0, 0, Header, 1, 6, 384
1, 0, Start_track
1, 0, Title_t, "Love Is Here to Stay"
1, 0, Text_t, "dougmck@pipeline.com.au"
1, 0, Text_t, "    This was done as an example to illustrate piano 'comping' styles and the distinctive styles of soloing on flute and Vibes\012"
1, 0, System_exclusive, 5, 126, 127, 9, 1, 247
1, 0, System_exclusive, 8, 67, 115, 1, 17, 15, 89, 0, 247
1, 1, System_exclusive, 8, 67, 115, 1, 17, 15, 89, 2, 247
1, 1, Time_signature, 4, 2, 24, 8
1, 1, Key_signature, -1, "major"
1, 1, Tempo, 476190
1, 1, Marker_t, "Love is Here to Stay  Flute plays typical flute lines - lots of grace notes - ornaments (turns, trills etc) to decorate usually chord tones, arpeggiated lines that can quickly cover the big range of a flute."
1, 57545, Marker_t, "Arpeggiated A major triad on flute from lowest note to near top of flute range"
1, 96974, Marker_t, "Vibes solo begins - many vibes players are drummers - the lines they often play are distinctive - lots of grace notes, chromatic connections between chord tones, rhythmic 'drumming' patterns, often blues scale melodic lines (as by Milt Jackson)"
1, 108853, Marker_t, "Chromatic notes from A up to C and down again"
1, 135367, Marker_t, "'Drumming' on two notes "
1, 181249, Marker_t, "Bluesy line"
1, 181249, End_track
2, 0, Start_track
2, 0, Title_t, "dougmck@pipeline.com.au"
2, 0, Control_c, 0, 7, 75
2, 0, Control_c, 0, 10, 127
2, 0, Note_on_c, 0, 55, 60
2, 220, Note_on_c, 0, 57, 78
2, 228, Note_on_c, 0, 62, 66
2, 236, Note_on_c, 0, 67, 62
2, 236, Note_on_c, 0, 72, 52
2, 248, Note_on_c, 0, 62, 0
2, 248, Note_on_c, 0, 55, 0
2, 260, Note_on_c, 0, 67, 0
2, 264, Note_on_c, 0, 72, 0
2, 268, Note_on_c, 0, 57, 0
2, 748, Note_on_c, 0, 70, 70
2, 748, Note_on_c, 0, 65, 79
2, 748, Note_on_c, 0, 74, 75
2, 752, Note_on_c, 0, 56, 51
2, 756, Note_on_c, 0, 60, 51
2, 840, Control_c, 0, 64, 127
2, 1016, Note_on_c, 0, 65, 0
2, 1056, Note_on_c, 0, 74, 0
2, 1064, Note_on_c, 0, 70, 0
2, 1232, Note_on_c, 0, 60, 0
2, 1428, Note_on_c, 0, 81, 79
2, 1492, Note_on_c, 0, 56, 0
2, 1524, Control_c, 0, 64, 0
2, 1544, Note_on_c, 0, 81, 0
2, 1572, Note_on_c, 0, 64, 39
2, 1572, Note_on_c, 0, 59, 39
2, 1580, Note_on_c, 0, 53, 34
2, 1588, Note_on_c, 0, 77, 36
2, 1760, Control_c, 0, 64, 127
2, 1908, Note_on_c, 0, 53, 0
2, 1916, Note_on_c, 0, 64, 0
2, 1920, Note_on_c, 0, 59, 0
2, 1940, Note_on_c, 0, 77, 0
2, 2300, Control_c, 0, 64, 0
2, 2320, Note_on_c, 0, 93, 75
2, 2320, Note_on_c, 0, 59, 51
2, 2324, Note_on_c, 0, 81, 49
2, 2328, Note_on_c, 0, 64, 49
2, 2328, Note_on_c, 0, 88, 58
2, 2340, Note_on_c, 0, 53, 33
2, 2484, Control_c, 0, 64, 127
2, 2684, Note_on_c, 0, 93, 0
2, 2704, Note_on_c, 0, 64, 0
2, 2716, Note_on_c, 0, 59, 0
2, 2724, Note_on_c, 0, 53, 0
2, 2736, Note_on_c, 0, 88, 0
2, 2752, Note_on_c, 0, 81, 0
2, 3056, Control_c, 0, 64, 0
2, 3080, Note_on_c, 0, 77, 39
2, 3080, Note_on_c, 0, 82, 36
2, 3084, Note_on_c, 0, 89, 51
2, 3084, Note_on_c, 0, 62, 36
2, 3084, Note_on_c, 0, 86, 42
2, 3088, Note_on_c, 0, 58, 36
2, 3092, Note_on_c, 0, 57, 33
2, 3108, Note_on_c, 0, 53, 27
2, 3224, Control_c, 0, 64, 127
2, 3436, Note_on_c, 0, 89, 0
2, 3456, Note_on_c, 0, 86, 0
2, 3492, Note_on_c, 0, 77, 0
2, 3492, Note_on_c, 0, 82, 0
2, 3516, Note_on_c, 0, 57, 0
2, 3528, Note_on_c, 0, 53, 0
2, 3536, Note_on_c, 0, 62, 0
2, 3544, Note_on_c, 0, 58, 0
2, 3800, Control_c, 0, 64, 0
2, 3828, Note_on_c, 0, 81, 78
2, 3832, Note_on_c, 0, 70, 74
2, 3836, Note_on_c, 0, 58, 62
2, 3840, Note_on_c, 0, 64, 66
2, 3840, Note_on_c, 0, 73, 57
2, 3844, Note_on_c, 0, 76, 65
2, 3904, Note_on_c, 0, 64, 0
2, 3908, Note_on_c, 0, 73, 0
2, 3924, Note_on_c, 0, 58, 0
2, 3924, Note_on_c, 0, 81, 0
2, 3924, Note_on_c, 0, 70, 0
2, 3928, Note_on_c, 0, 76, 0
2, 4208, Control_c, 0, 64, 127
2, 4208, Note_on_c, 0, 70, 69
2, 4220, Note_on_c, 0, 81, 46
2, 4220, Note_on_c, 0, 58, 52
2, 4220, Note_on_c, 0, 76, 58
2, 4224, Note_on_c, 0, 73, 46
2, 4228, Note_on_c, 0, 64, 51
2, 4284, Note_on_c, 0, 81, 0
2, 4296, Note_on_c, 0, 58, 0
2, 4336, Note_on_c, 0, 76, 0
2, 4364, Note_on_c, 0, 70, 0
2, 4368, Note_on_c, 0, 64, 0
2, 4384, Note_on_c, 0, 73, 0
2, 4608, Control_c, 0, 64, 0
2, 4608, Note_on_c, 0, 67, 39
2, 4612, Note_on_c, 0, 77, 46
2, 4616, Note_on_c, 0, 72, 53
2, 4620, Note_on_c, 0, 62, 37
2, 4632, Note_on_c, 0, 57, 44
2, 4828, Control_c, 0, 64, 127
2, 5120, Note_on_c, 0, 62, 0
2, 5168, Note_on_c, 0, 72, 0
2, 5168, Note_on_c, 0, 67, 0
2, 5228, Note_on_c, 0, 57, 0
2, 5288, Note_on_c, 0, 77, 0
2, 5640, Note_on_c, 0, 82, 85
2, 5640, Note_on_c, 0, 56, 77
2, 5644, Note_on_c, 0, 62, 75
2, 5644, Note_on_c, 0, 67, 85
2, 5648, Control_c, 0, 64, 0
2, 5776, Control_c, 0, 64, 127
2, 5956, Note_on_c, 0, 62, 0
2, 5976, Note_on_c, 0, 67, 0
2, 6024, Note_on_c, 0, 56, 0
2, 6024, Note_on_c, 0, 82, 0
2, 6124, Control_c, 0, 64, 0
2, 6140, Note_on_c, 0, 65, 53
2, 6144, Note_on_c, 0, 72, 54
2, 6148, Note_on_c, 0, 81, 62
2, 6152, Note_on_c, 0, 57, 58
2, 6164, Note_on_c, 0, 60, 58
2, 6308, Control_c, 0, 64, 127
2, 6516, Note_on_c, 0, 65, 0
2, 6528, Note_on_c, 0, 60, 0
2, 6536, Note_on_c, 0, 72, 0
2, 6552, Note_on_c, 0, 57, 0
2, 6588, Note_on_c, 0, 81, 0
2, 6860, Control_c, 0, 64, 0
2, 6888, Note_on_c, 0, 89, 79
2, 6892, Note_on_c, 0, 77, 77
2, 6892, Note_on_c, 0, 86, 66
2, 6892, Note_on_c, 0, 82, 59
2, 6896, Note_on_c, 0, 65, 76
2, 6900, Note_on_c, 0, 58, 55
2, 6900, Note_on_c, 0, 60, 62
2, 6904, Note_on_c, 0, 54, 48
2, 6928, Note_on_c, 0, 60, 0
2, 6936, Note_on_c, 0, 54, 0
2, 6936, Note_on_c, 0, 65, 0
2, 6940, Note_on_c, 0, 86, 0
2, 6940, Note_on_c, 0, 77, 0
2, 6944, Note_on_c, 0, 89, 0
2, 6948, Note_on_c, 0, 82, 0
2, 6952, Note_on_c, 0, 58, 0
2, 7256, Control_c, 0, 64, 127
2, 7264, Note_on_c, 0, 82, 70
2, 7272, Note_on_c, 0, 77, 71
2, 7272, Note_on_c, 0, 86, 68
2, 7280, Note_on_c, 0, 65, 67
2, 7280, Note_on_c, 0, 58, 40
2, 7284, Note_on_c, 0, 60, 52
2, 7284, Note_on_c, 0, 54, 49
2, 7376, Note_on_c, 0, 86, 0
2, 7412, Note_on_c, 0, 82, 0
2, 7412, Note_on_c, 0, 77, 0
2, 7460, Note_on_c, 0, 60, 0
2, 7476, Note_on_c, 0, 65, 0
2, 7604, Note_on_c, 0, 54, 0
2, 7608, Note_on_c, 0, 58, 0
2, 7652, Control_c, 0, 64, 0
2, 7656, Note_on_c, 0, 71, 48
2, 7660, Note_on_c, 0, 76, 53
2, 7664, Note_on_c, 0, 81, 51
2, 7668, Note_on_c, 0, 64, 49
2, 7672, Note_on_c, 0, 59, 47
2, 7692, Note_on_c, 0, 53, 31
2, 7824, Control_c, 0, 64, 127
2, 7948, Note_on_c, 0, 81, 0
2, 7984, Note_on_c, 0, 76, 0
2, 8000, Note_on_c, 0, 64, 0
2, 8024, Note_on_c, 0, 59, 0
2, 8028, Note_on_c, 0, 71, 0
2, 8072, Note_on_c, 0, 53, 0
2, 8420, Control_c, 0, 64, 0
2, 8432, Note_on_c, 0, 63, 53
2, 8440, Note_on_c, 0, 59, 54
2, 8452, Note_on_c, 0, 53, 36
2, 8552, Control_c, 0, 64, 127
2, 8880, Note_on_c, 0, 53, 0
2, 8936, Note_on_c, 0, 63, 0
2, 8964, Note_on_c, 0, 59, 0
2, 9116, Note_on_c, 0, 46, 19
2, 9156, Note_on_c, 0, 46, 0
2, 9164, Note_on_c, 0, 48, 47
2, 9188, Note_on_c, 0, 48, 0
2, 9196, Control_c, 0, 64, 0
2, 9200, Note_on_c, 0, 50, 53
2, 9204, Note_on_c, 0, 55, 59
2, 9204, Note_on_c, 0, 62, 60
2, 9204, Note_on_c, 0, 58, 52
2, 9372, Control_c, 0, 64, 127
2, 9416, Note_on_c, 0, 55, 0
2, 9420, Note_on_c, 0, 50, 0
2, 9424, Note_on_c, 0, 51, 37
2, 9432, Note_on_c, 0, 58, 0
2, 9444, Note_on_c, 0, 62, 0
2, 9468, Note_on_c, 0, 51, 0
2, 9472, Note_on_c, 0, 55, 71
2, 9472, Note_on_c, 0, 58, 57
2, 9480, Note_on_c, 0, 65, 66
2, 9484, Note_on_c, 0, 62, 60
2, 9488, Note_on_c, 0, 53, 68
2, 9524, Control_c, 0, 64, 0
2, 9564, Note_on_c, 0, 55, 0
2, 9584, Note_on_c, 0, 65, 0
2, 9592, Note_on_c, 0, 58, 0
2, 9600, Note_on_c, 0, 62, 0
2, 9628, Note_on_c, 0, 53, 0
2, 9636, Note_on_c, 0, 50, 32
2, 9868, Note_on_c, 0, 58, 59
2, 9868, Note_on_c, 0, 53, 64
2, 9868, Note_on_c, 0, 55, 70
2, 9872, Note_on_c, 0, 65, 60
2, 9872, Note_on_c, 0, 62, 66
2, 9876, Note_on_c, 0, 50, 0
2, 9956, Note_on_c, 0, 53, 0
2, 9960, Note_on_c, 0, 55, 0
2, 9968, Note_on_c, 0, 65, 0
2, 9972, Note_on_c, 0, 58, 0
2, 9980, Note_on_c, 0, 62, 0
2, 10032, Note_on_c, 0, 53, 45
2, 10036, Note_on_c, 0, 58, 37
2, 10036, Note_on_c, 0, 55, 50
2, 10040, Note_on_c, 0, 65, 48
2, 10040, Note_on_c, 0, 62, 49
2, 10108, Note_on_c, 0, 53, 0
2, 10160, Note_on_c, 0, 55, 0
2, 10164, Note_on_c, 0, 58, 0
2, 10212, Control_c, 0, 64, 127
2, 10220, Note_on_c, 0, 62, 0
2, 10224, Note_on_c, 0, 65, 0
2, 10272, Control_c, 0, 64, 0
2, 10368, Note_on_c, 0, 55, 59
2, 10372, Note_on_c, 0, 60, 58
2, 10372, Note_on_c, 0, 64, 55
2, 10376, Note_on_c, 0, 46, 40
2, 10436, Note_on_c, 0, 55, 0
2, 10452, Note_on_c, 0, 46, 0
2, 10476, Note_on_c, 0, 60, 0
2, 10484, Control_c, 0, 64, 127
2, 10512, Note_on_c, 0, 64, 0
2, 10736, Control_c, 0, 64, 0
2, 10756, Note_on_c, 0, 72, 79
2, 10756, Note_on_c, 0, 69, 76
2, 10760, Note_on_c, 0, 61, 48
2, 10760, Note_on_c, 0, 60, 56
2, 10764, Note_on_c, 0, 65, 62
2, 10764, Note_on_c, 0, 55, 57
2, 10912, Control_c, 0, 64, 127
2, 11128, Note_on_c, 0, 69, 0
2, 11156, Note_on_c, 0, 72, 0
2, 11180, Note_on_c, 0, 65, 0
2, 11216, Note_on_c, 0, 60, 0
2, 11240, Note_on_c, 0, 61, 0
2, 11256, Note_on_c, 0, 55, 0
2, 11500, Control_c, 0, 64, 0
2, 11508, Note_on_c, 0, 86, 60
2, 11512, Note_on_c, 0, 74, 62
2, 11516, Note_on_c, 0, 80, 45
2, 11516, Note_on_c, 0, 54, 55
2, 11520, Note_on_c, 0, 83, 60
2, 11520, Note_on_c, 0, 64, 58
2, 11524, Note_on_c, 0, 60, 45
2, 11724, Control_c, 0, 64, 127
2, 11912, Note_on_c, 0, 86, 0
2, 11928, Note_on_c, 0, 83, 0
2, 11936, Note_on_c, 0, 60, 0
2, 11940, Note_on_c, 0, 64, 0
2, 11948, Note_on_c, 0, 80, 0
2, 11952, Note_on_c, 0, 74, 0
2, 12020, Note_on_c, 0, 54, 0
2, 12252, Control_c, 0, 64, 0
2, 12264, Note_on_c, 0, 69, 57
2, 12268, Note_on_c, 0, 65, 46
2, 12272, Note_on_c, 0, 59, 50
2, 12276, Note_on_c, 0, 64, 40
2, 12312, Note_on_c, 0, 53, 17
2, 12440, Control_c, 0, 64, 127
2, 12600, Note_on_c, 0, 65, 0
2, 12608, Note_on_c, 0, 53, 0
2, 12608, Note_on_c, 0, 59, 0
2, 12620, Note_on_c, 0, 69, 0
2, 12648, Note_on_c, 0, 64, 0
2, 12872, Control_c, 0, 64, 0
2, 12928, Note_on_c, 0, 64, 81
2, 12928, Note_on_c, 0, 65, 92
2, 12928, Note_on_c, 0, 76, 84
2, 12928, Note_on_c, 0, 69, 87
2, 12936, Note_on_c, 0, 72, 71
2, 12980, Note_on_c, 0, 69, 0
2, 12992, Note_on_c, 0, 65, 0
2, 13000, Note_on_c, 0, 72, 0
2, 13004, Note_on_c, 0, 76, 0
2, 13012, Note_on_c, 0, 64, 0
2, 13176, Note_on_c, 0, 76, 76
2, 13176, Note_on_c, 0, 65, 80
2, 13180, Note_on_c, 0, 69, 73
2, 13180, Note_on_c, 0, 64, 73
2, 13180, Note_on_c, 0, 72, 66
2, 13248, Control_c, 0, 64, 127
2, 13348, Note_on_c, 0, 69, 0
2, 13348, Note_on_c, 0, 65, 0
2, 13360, Note_on_c, 0, 72, 0
2, 13388, Note_on_c, 0, 76, 0
2, 13404, Note_on_c, 0, 64, 0
2, 13404, Control_c, 0, 64, 0
2, 13436, Note_on_c, 0, 62, 55
2, 13444, Note_on_c, 0, 74, 48
2, 13448, Note_on_c, 0, 65, 38
2, 13448, Note_on_c, 0, 69, 46
2, 13464, Note_on_c, 0, 62, 0
2, 13480, Control_c, 0, 64, 127
2, 13504, Note_on_c, 0, 69, 0
2, 13512, Note_on_c, 0, 74, 0
2, 13532, Note_on_c, 0, 65, 0
2, 13724, Control_c, 0, 64, 0
2, 13796, Note_on_c, 0, 67, 56
2, 13796, Note_on_c, 0, 62, 52
2, 13800, Note_on_c, 0, 58, 51
2, 13800, Note_on_c, 0, 72, 43
2, 13812, Note_on_c, 0, 52, 47
2, 13824, Note_on_c, 0, 62, 0
2, 13832, Note_on_c, 0, 67, 0
2, 13836, Note_on_c, 0, 72, 0
2, 13840, Note_on_c, 0, 52, 0
2, 13852, Note_on_c, 0, 58, 0
2, 14172, Control_c, 0, 64, 127
2, 14512, Control_c, 0, 64, 0
2, 14588, Note_on_c, 0, 86, 59
2, 14592, Note_on_c, 0, 98, 68
2, 14592, Note_on_c, 0, 93, 59
2, 14596, Note_on_c, 0, 54, 58
2, 14596, Note_on_c, 0, 64, 65
2, 14600, Note_on_c, 0, 60, 50
2, 14620, Note_on_c, 0, 93, 0
2, 14628, Note_on_c, 0, 60, 0
2, 14636, Note_on_c, 0, 86, 0
2, 14640, Note_on_c, 0, 98, 0
2, 14648, Note_on_c, 0, 64, 0
2, 14652, Note_on_c, 0, 54, 0
2, 14856, Note_on_c, 0, 86, 73
2, 14856, Note_on_c, 0, 98, 76
2, 14860, Note_on_c, 0, 54, 73
2, 14860, Note_on_c, 0, 93, 74
2, 14860, Note_on_c, 0, 64, 75
2, 14864, Note_on_c, 0, 60, 69
2, 14936, Control_c, 0, 64, 127
2, 14940, Note_on_c, 0, 98, 0
2, 14940, Note_on_c, 0, 86, 0
2, 14944, Note_on_c, 0, 64, 0
2, 14944, Note_on_c, 0, 93, 0
2, 14960, Note_on_c, 0, 60, 0
2, 14964, Note_on_c, 0, 54, 0
2, 15000, Note_on_c, 0, 96, 67
2, 15012, Note_on_c, 0, 54, 55
2, 15012, Note_on_c, 0, 84, 48
2, 15012, Note_on_c, 0, 64, 43
2, 15016, Note_on_c, 0, 91, 54
2, 15020, Note_on_c, 0, 60, 53
2, 15048, Note_on_c, 0, 91, 0
2, 15056, Note_on_c, 0, 84, 0
2, 15064, Note_on_c, 0, 96, 0
2, 15072, Note_on_c, 0, 64, 0
2, 15076, Note_on_c, 0, 60, 0
2, 15076, Control_c, 0, 64, 0
2, 15080, Note_on_c, 0, 54, 0
2, 15252, Note_on_c, 0, 64, 53
2, 15256, Note_on_c, 0, 54, 53
2, 15256, Note_on_c, 0, 60, 44
2, 15256, Note_on_c, 0, 84, 74
2, 15260, Note_on_c, 0, 96, 66
2, 15260, Note_on_c, 0, 91, 57
2, 15280, Note_on_c, 0, 96, 0
2, 15280, Note_on_c, 0, 64, 0
2, 15284, Note_on_c, 0, 60, 0
2, 15284, Note_on_c, 0, 91, 0
2, 15300, Note_on_c, 0, 84, 0
2, 15320, Note_on_c, 0, 54, 0
2, 15392, Note_on_c, 0, 82, 53
2, 15396, Note_on_c, 0, 90, 47
2, 15396, Note_on_c, 0, 58, 37
2, 15396, Note_on_c, 0, 62, 57
2, 15400, Note_on_c, 0, 94, 47
2, 15404, Note_on_c, 0, 53, 42
2, 15404, Note_on_c, 0, 55, 60
2, 15468, Note_on_c, 0, 90, 0
2, 15500, Control_c, 0, 64, 127
2, 15652, Note_on_c, 0, 94, 0
2, 15688, Note_on_c, 0, 82, 0
2, 15804, Note_on_c, 0, 55, 0
2, 15808, Note_on_c, 0, 53, 0
2, 15832, Note_on_c, 0, 62, 0
2, 15844, Note_on_c, 0, 58, 0
2, 16092, Control_c, 0, 64, 0
2, 16108, Note_on_c, 0, 64, 68
2, 16108, Note_on_c, 0, 66, 48
2, 16112, Note_on_c, 0, 68, 50
2, 16112, Note_on_c, 0, 72, 65
2, 16112, Note_on_c, 0, 61, 49
2, 16116, Note_on_c, 0, 58, 39
2, 16440, Note_on_c, 0, 72, 0
2, 16480, Control_c, 0, 64, 127
2, 16484, Note_on_c, 0, 70, 65
2, 16660, Note_on_c, 0, 64, 0
2, 16672, Note_on_c, 0, 70, 0
2, 16688, Note_on_c, 0, 68, 0
2, 16700, Note_on_c, 0, 61, 0
2, 16708, Note_on_c, 0, 66, 0
2, 16832, Note_on_c, 0, 58, 0
2, 16868, Note_on_c, 0, 60, 46
2, 16872, Note_on_c, 0, 64, 48
2, 16872, Control_c, 0, 64, 0
2, 16876, Note_on_c, 0, 69, 49
2, 16888, Note_on_c, 0, 57, 38
2, 17076, Control_c, 0, 64, 127
2, 17312, Note_on_c, 0, 60, 0
2, 17332, Note_on_c, 0, 57, 0
2, 17348, Note_on_c, 0, 64, 0
2, 17352, Note_on_c, 0, 69, 0
2, 17648, Control_c, 0, 64, 0
2, 17656, Note_on_c, 0, 57, 74
2, 17656, Note_on_c, 0, 72, 83
2, 17656, Note_on_c, 0, 65, 87
2, 17660, Note_on_c, 0, 62, 84
2, 17800, Control_c, 0, 64, 127
2, 18020, Note_on_c, 0, 57, 0
2, 18116, Note_on_c, 0, 72, 0
2, 18120, Note_on_c, 0, 62, 0
2, 18132, Note_on_c, 0, 65, 0
2, 18404, Control_c, 0, 64, 0
2, 18416, Note_on_c, 0, 58, 42
2, 18420, Note_on_c, 0, 62, 55
2, 18420, Note_on_c, 0, 67, 59
2, 18436, Note_on_c, 0, 52, 46
2, 18512, Control_c, 0, 64, 127
2, 18620, Note_on_c, 0, 52, 0
2, 18648, Note_on_c, 0, 62, 0
2, 18656, Note_on_c, 0, 58, 0
2, 18660, Note_on_c, 0, 67, 0
2, 18676, Note_on_c, 0, 62, 32
2, 18680, Note_on_c, 0, 69, 78
2, 18688, Note_on_c, 0, 58, 44
2, 18712, Note_on_c, 0, 52, 32
2, 18728, Control_c, 0, 64, 0
2, 18740, Note_on_c, 0, 52, 0
2, 18760, Note_on_c, 0, 58, 0
2, 18772, Note_on_c, 0, 62, 0
2, 18792, Note_on_c, 0, 69, 0
2, 18856, Note_on_c, 0, 67, 32
2, 18908, Note_on_c, 0, 67, 0
2, 18980, Control_c, 0, 64, 127
2, 19060, Control_c, 0, 64, 0
2, 19076, Note_on_c, 0, 66, 64
2, 19080, Note_on_c, 0, 61, 62
2, 19080, Note_on_c, 0, 70, 64
2, 19088, Note_on_c, 0, 55, 61
2, 19136, Note_on_c, 0, 61, 0
2, 19144, Note_on_c, 0, 55, 0
2, 19156, Note_on_c, 0, 66, 0
2, 19160, Note_on_c, 0, 70, 0
2, 19460, Note_on_c, 0, 72, 66
2, 19464, Note_on_c, 0, 61, 52
2, 19464, Note_on_c, 0, 65, 69
2, 19468, Note_on_c, 0, 69, 62
2, 19472, Note_on_c, 0, 55, 57
2, 19580, Control_c, 0, 64, 127
2, 19664, Note_on_c, 0, 61, 0
2, 19680, Note_on_c, 0, 55, 0
2, 19708, Note_on_c, 0, 72, 0
2, 19728, Note_on_c, 0, 69, 0
2, 19756, Note_on_c, 0, 65, 0
2, 19972, Note_on_c, 0, 57, 36
2, 19976, Note_on_c, 0, 60, 41
2, 19976, Note_on_c, 0, 64, 53
2, 19980, Control_c, 0, 64, 0
2, 19980, Note_on_c, 0, 67, 50
2, 19984, Note_on_c, 0, 55, 47
2, 19984, Note_on_c, 0, 53, 34
2, 20020, Note_on_c, 0, 60, 0
2, 20028, Note_on_c, 0, 55, 0
2, 20028, Note_on_c, 0, 64, 0
2, 20032, Note_on_c, 0, 53, 0
2, 20032, Note_on_c, 0, 57, 0
2, 20036, Note_on_c, 0, 67, 0
2, 20332, Note_on_c, 0, 60, 36
2, 20336, Note_on_c, 0, 67, 47
2, 20336, Note_on_c, 0, 64, 45
2, 20356, Note_on_c, 0, 57, 24
2, 20356, Note_on_c, 0, 55, 34
2, 20364, Note_on_c, 0, 53, 29
2, 20468, Control_c, 0, 64, 127
2, 20620, Note_on_c, 0, 57, 0
2, 20620, Note_on_c, 0, 60, 0
2, 20628, Note_on_c, 0, 55, 0
2, 20636, Note_on_c, 0, 53, 0
2, 20648, Note_on_c, 0, 64, 0
2, 20676, Note_on_c, 0, 67, 0
2, 20696, Control_c, 0, 64, 0
2, 20720, Note_on_c, 0, 60, 37
2, 20736, Note_on_c, 0, 65, 53
2, 20736, Note_on_c, 0, 57, 31
2, 20744, Note_on_c, 0, 64, 30
2, 20748, Note_on_c, 0, 55, 31
2, 20760, Note_on_c, 0, 53, 33
2, 20908, Control_c, 0, 64, 127
2, 21080, Note_on_c, 0, 60, 0
2, 21100, Note_on_c, 0, 55, 0
2, 21108, Note_on_c, 0, 57, 0
2, 21108, Note_on_c, 0, 53, 0
2, 21156, Note_on_c, 0, 64, 0
2, 21164, Note_on_c, 0, 65, 0
2, 21452, Control_c, 0, 64, 0
2, 21724, Note_on_c, 0, 63, 76
2, 21728, Note_on_c, 0, 67, 74
2, 21732, Note_on_c, 0, 59, 75
2, 21744, Note_on_c, 0, 53, 60
2, 21800, Note_on_c, 0, 63, 0
2, 21804, Note_on_c, 0, 64, 44
2, 21848, Note_on_c, 0, 53, 0
2, 21852, Note_on_c, 0, 59, 0
2, 21856, Note_on_c, 0, 64, 0
2, 21868, Note_on_c, 0, 67, 0
2, 21984, Note_on_c, 0, 63, 62
2, 21988, Note_on_c, 0, 59, 62
2, 21992, Note_on_c, 0, 54, 50
2, 21992, Note_on_c, 0, 67, 58
2, 22012, Note_on_c, 0, 44, 32
2, 22080, Control_c, 0, 64, 127
2, 22164, Note_on_c, 0, 59, 0
2, 22172, Note_on_c, 0, 54, 0
2, 22192, Note_on_c, 0, 67, 0
2, 22200, Note_on_c, 0, 44, 0
2, 22212, Note_on_c, 0, 63, 0
2, 22232, Control_c, 0, 64, 0
2, 22260, Note_on_c, 0, 67, 51
2, 22264, Note_on_c, 0, 59, 42
2, 22268, Note_on_c, 0, 53, 51
2, 22268, Note_on_c, 0, 62, 55
2, 22356, Control_c, 0, 64, 127
2, 22508, Note_on_c, 0, 59, 0
2, 22532, Note_on_c, 0, 43, 65
2, 22568, Note_on_c, 0, 62, 0
2, 22592, Note_on_c, 0, 67, 0
2, 22596, Note_on_c, 0, 43, 0
2, 22624, Note_on_c, 0, 53, 0
2, 23052, Control_c, 0, 64, 0
2, 23288, Note_on_c, 0, 74, 81
2, 23288, Note_on_c, 0, 70, 82
2, 23292, Note_on_c, 0, 77, 79
2, 23292, Note_on_c, 0, 65, 90
2, 23292, Note_on_c, 0, 60, 78
2, 23296, Note_on_c, 0, 59, 53
2, 23320, Note_on_c, 0, 59, 0
2, 23448, Control_c, 0, 64, 127
2, 23656, Note_on_c, 0, 74, 0
2, 23672, Note_on_c, 0, 65, 0
2, 23672, Note_on_c, 0, 70, 0
2, 23696, Note_on_c, 0, 77, 0
2, 23772, Note_on_c, 0, 60, 0
2, 23772, Control_c, 0, 64, 0
2, 23808, Note_on_c, 0, 74, 66
2, 23808, Note_on_c, 0, 58, 50
2, 23824, Note_on_c, 0, 70, 33
2, 23828, Note_on_c, 0, 65, 38
2, 23848, Note_on_c, 0, 70, 0
2, 23856, Note_on_c, 0, 65, 0
2, 23860, Note_on_c, 0, 58, 0
2, 23864, Note_on_c, 0, 74, 0
2, 24180, Note_on_c, 0, 70, 52
2, 24188, Note_on_c, 0, 65, 48
2, 24196, Note_on_c, 0, 62, 24
2, 24200, Note_on_c, 0, 55, 38
2, 24236, Note_on_c, 0, 55, 0
2, 24272, Note_on_c, 0, 62, 0
2, 24272, Note_on_c, 0, 65, 0
2, 24280, Note_on_c, 0, 70, 0
2, 24584, Note_on_c, 0, 58, 43
2, 24588, Note_on_c, 0, 65, 59
2, 24600, Note_on_c, 0, 62, 44
2, 24760, Control_c, 0, 64, 127
2, 24944, Note_on_c, 0, 58, 0
2, 24952, Note_on_c, 0, 62, 0
2, 24976, Note_on_c, 0, 65, 0
2, 25208, Control_c, 0, 64, 0
2, 25212, Note_on_c, 0, 74, 83
2, 25212, Note_on_c, 0, 70, 78
2, 25212, Note_on_c, 0, 54, 71
2, 25216, Note_on_c, 0, 65, 85
2, 25220, Note_on_c, 0, 44, 67
2, 25296, Control_c, 0, 64, 127
2, 25360, Note_on_c, 0, 65, 0
2, 25368, Note_on_c, 0, 44, 0
2, 25380, Note_on_c, 0, 70, 0
2, 25384, Note_on_c, 0, 74, 0
2, 25388, Note_on_c, 0, 54, 0
2, 25596, Note_on_c, 0, 65, 78
2, 25600, Note_on_c, 0, 77, 77
2, 25600, Note_on_c, 0, 60, 68
2, 25600, Note_on_c, 0, 74, 81
2, 25600, Note_on_c, 0, 70, 83
2, 25604, Note_on_c, 0, 58, 57
2, 25608, Note_on_c, 0, 54, 55
2, 25620, Control_c, 0, 64, 0
2, 25708, Control_c, 0, 64, 127
2, 25748, Note_on_c, 0, 70, 0
2, 25784, Note_on_c, 0, 74, 0
2, 25804, Note_on_c, 0, 77, 0
2, 25968, Note_on_c, 0, 60, 0
2, 25996, Note_on_c, 0, 65, 0
2, 26068, Note_on_c, 0, 54, 0
2, 26072, Note_on_c, 0, 58, 0
2, 26088, Control_c, 0, 64, 0
2, 26104, Note_on_c, 0, 89, 62
2, 26104, Note_on_c, 0, 64, 51
2, 26108, Note_on_c, 0, 59, 51
2, 26112, Note_on_c, 0, 84, 59
2, 26116, Note_on_c, 0, 77, 35
2, 26128, Note_on_c, 0, 53, 43
2, 26228, Note_on_c, 0, 77, 0
2, 26244, Note_on_c, 0, 84, 0
2, 26248, Note_on_c, 0, 53, 0
2, 26252, Note_on_c, 0, 64, 0
2, 26252, Note_on_c, 0, 59, 0
2, 26268, Note_on_c, 0, 89, 0
2, 26488, Note_on_c, 0, 92, 56
2, 26500, Note_on_c, 0, 87, 55
2, 26504, Note_on_c, 0, 64, 37
2, 26504, Note_on_c, 0, 80, 31
2, 26508, Note_on_c, 0, 59, 50
2, 26524, Note_on_c, 0, 53, 39
2, 26640, Note_on_c, 0, 80, 0
2, 26644, Note_on_c, 0, 59, 0
2, 26644, Note_on_c, 0, 64, 0
2, 26648, Note_on_c, 0, 87, 0
2, 26652, Note_on_c, 0, 92, 0
2, 26652, Note_on_c, 0, 53, 0
2, 26896, Note_on_c, 0, 93, 58
2, 26900, Note_on_c, 0, 81, 45
2, 26900, Note_on_c, 0, 88, 47
2, 26904, Note_on_c, 0, 64, 53
2, 26908, Control_c, 0, 64, 127
2, 26908, Note_on_c, 0, 59, 51
2, 26924, Note_on_c, 0, 53, 36
2, 27000, Note_on_c, 0, 88, 0
2, 27000, Note_on_c, 0, 93, 0
2, 27028, Note_on_c, 0, 81, 0
2, 27044, Note_on_c, 0, 53, 0
2, 27064, Note_on_c, 0, 59, 0
2, 27068, Note_on_c, 0, 64, 0
2, 27160, Note_on_c, 0, 89, 50
2, 27164, Note_on_c, 0, 77, 42
2, 27168, Note_on_c, 0, 64, 52
2, 27172, Note_on_c, 0, 59, 59
2, 27176, Note_on_c, 0, 84, 61
2, 27176, Note_on_c, 0, 53, 48
2, 27440, Note_on_c, 0, 59, 0
2, 27464, Note_on_c, 0, 64, 0
2, 27464, Note_on_c, 0, 89, 0
2, 27476, Note_on_c, 0, 77, 0
2, 27480, Note_on_c, 0, 84, 0
2, 27508, Note_on_c, 0, 53, 0
2, 27628, Control_c, 0, 64, 0
2, 27648, Note_on_c, 0, 62, 49
2, 27656, Note_on_c, 0, 89, 46
2, 27656, Note_on_c, 0, 77, 39
2, 27660, Note_on_c, 0, 58, 43
2, 27660, Note_on_c, 0, 82, 36
2, 27664, Note_on_c, 0, 86, 42
2, 27668, Note_on_c, 0, 57, 37
2, 27668, Note_on_c, 0, 53, 26
2, 27736, Note_on_c, 0, 86, 0
2, 27736, Note_on_c, 0, 77, 0
2, 27736, Note_on_c, 0, 82, 0
2, 27748, Note_on_c, 0, 89, 0
2, 27760, Note_on_c, 0, 62, 0
2, 27764, Note_on_c, 0, 53, 0
2, 27768, Note_on_c, 0, 57, 0
2, 27768, Note_on_c, 0, 58, 0
2, 28428, Control_c, 0, 64, 127
2, 28668, Note_on_c, 0, 91, 66
2, 28672, Note_on_c, 0, 58, 53
2, 28676, Note_on_c, 0, 88, 60
2, 28676, Note_on_c, 0, 62, 60
2, 28680, Note_on_c, 0, 79, 51
2, 28680, Note_on_c, 0, 85, 47
2, 28688, Control_c, 0, 64, 0
2, 28692, Note_on_c, 0, 52, 50
2, 28788, Control_c, 0, 64, 127
2, 28972, Note_on_c, 0, 52, 0
2, 28980, Note_on_c, 0, 91, 0
2, 28992, Note_on_c, 0, 88, 0
2, 29008, Note_on_c, 0, 58, 0
2, 29008, Note_on_c, 0, 79, 0
2, 29020, Note_on_c, 0, 85, 0
2, 29040, Note_on_c, 0, 62, 0
2, 29132, Control_c, 0, 64, 0
2, 29168, Note_on_c, 0, 89, 49
2, 29176, Note_on_c, 0, 64, 42
2, 29180, Note_on_c, 0, 77, 39
2, 29180, Note_on_c, 0, 84, 41
2, 29192, Note_on_c, 0, 60, 33
2, 29192, Note_on_c, 0, 57, 33
2, 29200, Note_on_c, 0, 53, 24
2, 29260, Note_on_c, 0, 77, 0
2, 29264, Note_on_c, 0, 84, 0
2, 29276, Note_on_c, 0, 89, 0
2, 29308, Note_on_c, 0, 60, 0
2, 29320, Note_on_c, 0, 64, 0
2, 29324, Note_on_c, 0, 57, 0
2, 29328, Note_on_c, 0, 53, 0
2, 29940, Control_c, 0, 64, 127
2, 30184, Note_on_c, 0, 98, 80
2, 30188, Note_on_c, 0, 86, 69
2, 30192, Note_on_c, 0, 93, 72
2, 30196, Note_on_c, 0, 62, 68
2, 30200, Control_c, 0, 64, 0
2, 30200, Note_on_c, 0, 67, 74
2, 30200, Note_on_c, 0, 56, 65
2, 30308, Control_c, 0, 64, 127
2, 30456, Note_on_c, 0, 62, 0
2, 30476, Note_on_c, 0, 67, 0
2, 30520, Note_on_c, 0, 98, 0
2, 30540, Note_on_c, 0, 86, 0
2, 30540, Note_on_c, 0, 93, 0
2, 30548, Note_on_c, 0, 56, 0
2, 30664, Control_c, 0, 64, 0
2, 30704, Note_on_c, 0, 64, 54
2, 30704, Note_on_c, 0, 96, 68
2, 30712, Note_on_c, 0, 55, 47
2, 30712, Note_on_c, 0, 84, 54
2, 30716, Note_on_c, 0, 57, 48
2, 30720, Note_on_c, 0, 91, 53
2, 30724, Note_on_c, 0, 60, 50
2, 30832, Control_c, 0, 64, 127
2, 31016, Note_on_c, 0, 84, 0
2, 31048, Note_on_c, 0, 96, 0
2, 31048, Note_on_c, 0, 91, 0
2, 31060, Note_on_c, 0, 60, 0
2, 31072, Note_on_c, 0, 64, 0
2, 31076, Note_on_c, 0, 55, 0
2, 31096, Note_on_c, 0, 57, 0
2, 31336, Note_on_c, 0, 89, 77
2, 31336, Control_c, 0, 64, 0
2, 31336, Note_on_c, 0, 101, 77
2, 31340, Note_on_c, 0, 98, 66
2, 31340, Note_on_c, 0, 94, 64
2, 31340, Note_on_c, 0, 58, 64
2, 31340, Note_on_c, 0, 60, 74
2, 31340, Note_on_c, 0, 65, 82
2, 31348, Note_on_c, 0, 54, 70
2, 31432, Control_c, 0, 64, 127
2, 31604, Note_on_c, 0, 101, 0
2, 31616, Note_on_c, 0, 98, 0
2, 31628, Note_on_c, 0, 65, 0
2, 31632, Note_on_c, 0, 60, 0
2, 31636, Note_on_c, 0, 58, 0
2, 31652, Note_on_c, 0, 94, 0
2, 31672, Note_on_c, 0, 54, 0
2, 31692, Note_on_c, 0, 89, 0
2, 31788, Control_c, 0, 64, 0
2, 31832, Note_on_c, 0, 98, 71
2, 31840, Note_on_c, 0, 86, 66
2, 31840, Note_on_c, 0, 65, 71
2, 31840, Note_on_c, 0, 60, 67
2, 31844, Note_on_c, 0, 58, 57
2, 31848, Note_on_c, 0, 54, 55
2, 31884, Note_on_c, 0, 93, 15
2, 32056, Note_on_c, 0, 93, 0
2, 32056, Note_on_c, 0, 98, 0
2, 32072, Note_on_c, 0, 65, 0
2, 32076, Note_on_c, 0, 86, 0
2, 32080, Note_on_c, 0, 60, 0
2, 32144, Note_on_c, 0, 58, 0
2, 32152, Note_on_c, 0, 54, 0
2, 32232, Note_on_c, 0, 81, 72
2, 32236, Note_on_c, 0, 64, 69
2, 32236, Note_on_c, 0, 59, 71
2, 32240, Note_on_c, 0, 93, 70
2, 32240, Note_on_c, 0, 88, 68
2, 32244, Note_on_c, 0, 53, 59
2, 32576, Control_c, 0, 64, 127
2, 32908, Note_on_c, 0, 88, 0
2, 32928, Note_on_c, 0, 81, 0
2, 32928, Note_on_c, 0, 53, 0
2, 32932, Note_on_c, 0, 64, 0
2, 32936, Note_on_c, 0, 59, 0
2, 33004, Note_on_c, 0, 93, 0
2, 33004, Control_c, 0, 64, 0
2, 33020, Note_on_c, 0, 64, 33
2, 33024, Note_on_c, 0, 88, 36
2, 33024, Note_on_c, 0, 59, 43
2, 33036, Note_on_c, 0, 81, 31
2, 33036, Note_on_c, 0, 53, 30
2, 33144, Control_c, 0, 64, 127
2, 33232, Note_on_c, 0, 88, 0
2, 33288, Note_on_c, 0, 81, 0
2, 33396, Note_on_c, 0, 64, 0
2, 33404, Note_on_c, 0, 59, 0
2, 33452, Note_on_c, 0, 53, 0
2, 33692, Note_on_c, 0, 51, 35
2, 33736, Control_c, 0, 64, 0
2, 33756, Note_on_c, 0, 51, 0
2, 33756, Note_on_c, 0, 52, 60
2, 33764, Note_on_c, 0, 65, 60
2, 33768, Note_on_c, 0, 62, 55
2, 33768, Note_on_c, 0, 55, 46
2, 33772, Note_on_c, 0, 58, 35
2, 33776, Note_on_c, 0, 53, 58
2, 33780, Note_on_c, 0, 52, 0
2, 34040, Note_on_c, 0, 65, 0
2, 34052, Note_on_c, 0, 55, 0
2, 34052, Note_on_c, 0, 62, 0
2, 34052, Note_on_c, 0, 50, 40
2, 34056, Note_on_c, 0, 53, 0
2, 34068, Note_on_c, 0, 58, 0
2, 34068, Control_c, 0, 64, 127
2, 34084, Control_c, 0, 64, 0
2, 34088, Note_on_c, 0, 51, 30
2, 34120, Note_on_c, 0, 51, 0
2, 34144, Note_on_c, 0, 50, 0
2, 34144, Note_on_c, 0, 52, 24
2, 34168, Note_on_c, 0, 52, 0
2, 34168, Note_on_c, 0, 53, 51
2, 34172, Note_on_c, 0, 58, 37
2, 34176, Note_on_c, 0, 55, 56
2, 34176, Note_on_c, 0, 62, 49
2, 34180, Note_on_c, 0, 65, 51
2, 34404, Control_c, 0, 64, 127
2, 34448, Note_on_c, 0, 55, 0
2, 34468, Note_on_c, 0, 62, 0
2, 34468, Note_on_c, 0, 58, 0
2, 34472, Control_c, 0, 64, 0
2, 34492, Note_on_c, 0, 65, 0
2, 34528, Note_on_c, 0, 53, 0
2, 34552, Note_on_c, 0, 52, 40
2, 34552, Note_on_c, 0, 55, 41
2, 34556, Note_on_c, 0, 64, 49
2, 34560, Note_on_c, 0, 58, 35
2, 34724, Note_on_c, 0, 55, 0
2, 34736, Note_on_c, 0, 58, 0
2, 34756, Note_on_c, 0, 64, 0
2, 34804, Note_on_c, 0, 58, 52
2, 34808, Note_on_c, 0, 52, 0
2, 34808, Note_on_c, 0, 55, 63
2, 34808, Note_on_c, 0, 65, 55
2, 34812, Note_on_c, 0, 53, 63
2, 34820, Note_on_c, 0, 62, 41
2, 34828, Note_on_c, 0, 55, 0
2, 34836, Note_on_c, 0, 65, 0
2, 34840, Note_on_c, 0, 53, 0
2, 34844, Note_on_c, 0, 58, 0
2, 34848, Note_on_c, 0, 62, 0
2, 35308, Note_on_c, 0, 65, 68
2, 35312, Note_on_c, 0, 61, 47
2, 35312, Note_on_c, 0, 60, 61
2, 35316, Note_on_c, 0, 72, 83
2, 35320, Note_on_c, 0, 69, 75
2, 35320, Note_on_c, 0, 55, 55
2, 35344, Control_c, 0, 64, 127
2, 35488, Note_on_c, 0, 55, 0
2, 35488, Note_on_c, 0, 65, 0
2, 35488, Note_on_c, 0, 72, 0
2, 35496, Note_on_c, 0, 69, 0
2, 35500, Note_on_c, 0, 60, 0
2, 35512, Note_on_c, 0, 61, 0
2, 35564, Note_on_c, 0, 72, 60
2, 35568, Note_on_c, 0, 69, 58
2, 35576, Note_on_c, 0, 61, 45
2, 35576, Note_on_c, 0, 60, 49
2, 35580, Note_on_c, 0, 65, 64
2, 35592, Control_c, 0, 64, 0
2, 35592, Note_on_c, 0, 55, 49
2, 35660, Control_c, 0, 64, 127
2, 35768, Note_on_c, 0, 65, 0
2, 35876, Note_on_c, 0, 60, 0
2, 35908, Note_on_c, 0, 55, 0
2, 35944, Note_on_c, 0, 69, 0
2, 35956, Note_on_c, 0, 61, 0
2, 36020, Note_on_c, 0, 72, 0
2, 36044, Control_c, 0, 64, 0
2, 36076, Note_on_c, 0, 71, 52
2, 36076, Note_on_c, 0, 64, 50
2, 36080, Note_on_c, 0, 60, 38
2, 36080, Note_on_c, 0, 68, 46
2, 36092, Note_on_c, 0, 54, 33
2, 36164, Control_c, 0, 64, 127
2, 36264, Note_on_c, 0, 64, 0
2, 36272, Note_on_c, 0, 54, 0
2, 36288, Note_on_c, 0, 60, 0
2, 36292, Note_on_c, 0, 68, 0
2, 36308, Note_on_c, 0, 71, 0
2, 36348, Note_on_c, 0, 72, 62
2, 36356, Note_on_c, 0, 64, 48
2, 36356, Note_on_c, 0, 60, 56
2, 36360, Note_on_c, 0, 54, 49
2, 36360, Note_on_c, 0, 69, 59
2, 36364, Control_c, 0, 64, 0
2, 36472, Control_c, 0, 64, 127
2, 36488, Note_on_c, 0, 64, 0
2, 36548, Note_on_c, 0, 72, 0
2, 36560, Note_on_c, 0, 69, 0
2, 36592, Note_on_c, 0, 60, 0
2, 36684, Note_on_c, 0, 54, 0
2, 36772, Control_c, 0, 64, 0
2, 37108, Note_on_c, 0, 76, 80
2, 37108, Note_on_c, 0, 73, 64
2, 37108, Note_on_c, 0, 64, 79
2, 37112, Note_on_c, 0, 69, 75
2, 37120, Note_on_c, 0, 53, 68
2, 37120, Note_on_c, 0, 59, 62
2, 37128, Note_on_c, 0, 62, 61
2, 37128, Note_on_c, 0, 56, 28
2, 37152, Note_on_c, 0, 56, 0
2, 37152, Note_on_c, 0, 62, 0
2, 37200, Note_on_c, 0, 64, 0
2, 37200, Note_on_c, 0, 69, 0
2, 37204, Note_on_c, 0, 53, 0
2, 37204, Note_on_c, 0, 59, 0
2, 37212, Note_on_c, 0, 73, 0
2, 37216, Note_on_c, 0, 76, 0
2, 37384, Note_on_c, 0, 53, 68
2, 37388, Note_on_c, 0, 76, 72
2, 37388, Note_on_c, 0, 73, 55
2, 37388, Note_on_c, 0, 59, 64
2, 37392, Note_on_c, 0, 64, 73
2, 37392, Note_on_c, 0, 69, 69
2, 37484, Control_c, 0, 64, 127
2, 37496, Note_on_c, 0, 64, 0
2, 37504, Note_on_c, 0, 53, 0
2, 37512, Note_on_c, 0, 69, 0
2, 37520, Note_on_c, 0, 73, 0
2, 37520, Note_on_c, 0, 76, 0
2, 37532, Note_on_c, 0, 59, 0
2, 37592, Control_c, 0, 64, 0
2, 37664, Note_on_c, 0, 76, 72
2, 37664, Note_on_c, 0, 59, 59
2, 37668, Note_on_c, 0, 64, 66
2, 37672, Note_on_c, 0, 65, 48
2, 37676, Note_on_c, 0, 71, 48
2, 37676, Note_on_c, 0, 53, 56
2, 37676, Note_on_c, 0, 67, 54
2, 37752, Note_on_c, 0, 67, 0
2, 37860, Control_c, 0, 64, 127
2, 37892, Control_c, 0, 64, 0
2, 38000, Control_c, 0, 64, 127
2, 38116, Note_on_c, 0, 76, 0
2, 38140, Note_on_c, 0, 64, 0
2, 38140, Note_on_c, 0, 53, 0
2, 38152, Note_on_c, 0, 59, 0
2, 38160, Note_on_c, 0, 71, 0
2, 38160, Note_on_c, 0, 65, 0
2, 38252, Note_on_c, 0, 74, 63
2, 38256, Note_on_c, 0, 59, 41
2, 38260, Note_on_c, 0, 64, 32
2, 38260, Note_on_c, 0, 65, 57
2, 38268, Note_on_c, 0, 71, 45
2, 38268, Note_on_c, 0, 53, 40
2, 38292, Note_on_c, 0, 64, 0
2, 38292, Note_on_c, 0, 59, 0
2, 38300, Note_on_c, 0, 71, 0
2, 38312, Note_on_c, 0, 74, 0
2, 38320, Note_on_c, 0, 65, 0
2, 38336, Note_on_c, 0, 53, 0
2, 38356, Control_c, 0, 64, 0
2, 38404, Note_on_c, 0, 72, 58
2, 38412, Note_on_c, 0, 58, 38
2, 38416, Note_on_c, 0, 67, 35
2, 38444, Note_on_c, 0, 67, 0
2, 38452, Note_on_c, 0, 72, 0
2, 38456, Note_on_c, 0, 58, 0
2, 38756, Control_c, 0, 64, 127
2, 39104, Control_c, 0, 64, 0
2, 39164, Note_on_c, 0, 64, 24
2, 39168, Note_on_c, 0, 54, 33
2, 39168, Note_on_c, 0, 74, 28
2, 39172, Note_on_c, 0, 66, 35
2, 39176, Note_on_c, 0, 69, 38
2, 39176, Note_on_c, 0, 60, 27
2, 39204, Control_c, 0, 64, 127
2, 39268, Note_on_c, 0, 69, 0
2, 39268, Note_on_c, 0, 66, 0
2, 39276, Note_on_c, 0, 64, 0
2, 39276, Control_c, 0, 64, 0
2, 39280, Note_on_c, 0, 60, 0
2, 39284, Note_on_c, 0, 54, 0
2, 39288, Note_on_c, 0, 74, 0
2, 39560, Control_c, 0, 64, 127
2, 39568, Note_on_c, 0, 64, 44
2, 39568, Note_on_c, 0, 74, 33
2, 39572, Note_on_c, 0, 54, 44
2, 39572, Note_on_c, 0, 66, 38
2, 39572, Note_on_c, 0, 69, 42
2, 39576, Note_on_c, 0, 60, 42
2, 39668, Note_on_c, 0, 60, 0
2, 39716, Note_on_c, 0, 74, 0
2, 39728, Note_on_c, 0, 66, 0
2, 39728, Note_on_c, 0, 69, 0
2, 39744, Note_on_c, 0, 54, 0
2, 39744, Note_on_c, 0, 64, 0
2, 39904, Control_c, 0, 64, 0
2, 39948, Note_on_c, 0, 62, 32
2, 39952, Note_on_c, 0, 70, 38
2, 39952, Note_on_c, 0, 58, 35
2, 39960, Note_on_c, 0, 65, 42
2, 39968, Note_on_c, 0, 55, 40
2, 39980, Control_c, 0, 64, 127
2, 40048, Note_on_c, 0, 65, 0
2, 40080, Note_on_c, 0, 70, 0
2, 40088, Note_on_c, 0, 55, 0
2, 40092, Note_on_c, 0, 62, 0
2, 40112, Note_on_c, 0, 58, 0
2, 40200, Note_on_c, 0, 62, 62
2, 40204, Note_on_c, 0, 74, 80
2, 40208, Note_on_c, 0, 65, 69
2, 40212, Note_on_c, 0, 58, 40
2, 40228, Note_on_c, 0, 55, 36
2, 40256, Note_on_c, 0, 55, 0
2, 40272, Note_on_c, 0, 58, 0
2, 40276, Note_on_c, 0, 65, 0
2, 40296, Note_on_c, 0, 62, 0
2, 40312, Note_on_c, 0, 74, 0
2, 40312, Control_c, 0, 64, 0
2, 40356, Note_on_c, 0, 55, 32
2, 40380, Note_on_c, 0, 58, 23
2, 40568, Note_on_c, 0, 55, 0
2, 40588, Note_on_c, 0, 64, 57
2, 40588, Note_on_c, 0, 68, 53
2, 40588, Note_on_c, 0, 72, 57
2, 40588, Note_on_c, 0, 60, 60
2, 40592, Note_on_c, 0, 58, 0
2, 40748, Control_c, 0, 64, 127
2, 40932, Note_on_c, 0, 64, 0
2, 41012, Note_on_c, 0, 68, 0
2, 41020, Note_on_c, 0, 60, 0
2, 41048, Note_on_c, 0, 72, 0
2, 41440, Control_c, 0, 64, 0
2, 41456, Note_on_c, 0, 65, 70
2, 41456, Note_on_c, 0, 93, 66
2, 41460, Note_on_c, 0, 60, 57
2, 41460, Note_on_c, 0, 61, 42
2, 41464, Note_on_c, 0, 81, 53
2, 41468, Note_on_c, 0, 91, 37
2, 41480, Note_on_c, 0, 55, 49
2, 41496, Note_on_c, 0, 91, 0
2, 41496, Note_on_c, 0, 81, 0
2, 41508, Note_on_c, 0, 93, 0
2, 41516, Note_on_c, 0, 65, 0
2, 41520, Note_on_c, 0, 60, 0
2, 41544, Note_on_c, 0, 61, 0
2, 41572, Note_on_c, 0, 93, 26
2, 41576, Note_on_c, 0, 81, 32
2, 41584, Note_on_c, 0, 65, 20
2, 41608, Note_on_c, 0, 55, 0
2, 41612, Note_on_c, 0, 93, 0
2, 41612, Note_on_c, 0, 81, 0
2, 41612, Note_on_c, 0, 65, 0
2, 41848, Control_c, 0, 64, 127
2, 41856, Note_on_c, 0, 65, 66
2, 41860, Note_on_c, 0, 61, 37
2, 41860, Note_on_c, 0, 60, 51
2, 41868, Note_on_c, 0, 93, 74
2, 41868, Note_on_c, 0, 81, 64
2, 41876, Note_on_c, 0, 55, 48
2, 42012, Note_on_c, 0, 81, 0
2, 42040, Note_on_c, 0, 93, 0
2, 42056, Note_on_c, 0, 60, 0
2, 42072, Note_on_c, 0, 55, 0
2, 42076, Note_on_c, 0, 65, 0
2, 42096, Note_on_c, 0, 61, 0
2, 42196, Control_c, 0, 64, 0
2, 42252, Note_on_c, 0, 54, 63
2, 42260, Note_on_c, 0, 96, 76
2, 42260, Note_on_c, 0, 64, 64
2, 42260, Note_on_c, 0, 84, 73
2, 42264, Note_on_c, 0, 60, 55
2, 42268, Note_on_c, 0, 93, 61
2, 42440, Control_c, 0, 64, 127
2, 42664, Note_on_c, 0, 96, 0
2, 42692, Note_on_c, 0, 64, 0
2, 42696, Note_on_c, 0, 84, 0
2, 42696, Note_on_c, 0, 60, 0
2, 42696, Note_on_c, 0, 93, 0
2, 42744, Note_on_c, 0, 54, 0
2, 42964, Control_c, 0, 64, 0
2, 43024, Note_on_c, 0, 58, 57
2, 43024, Note_on_c, 0, 62, 69
2, 43024, Note_on_c, 0, 55, 61
2, 43028, Note_on_c, 0, 91, 71
2, 43032, Note_on_c, 0, 79, 66
2, 43032, Note_on_c, 0, 86, 66
2, 43036, Note_on_c, 0, 53, 50
2, 43060, Note_on_c, 0, 86, 0
2, 43064, Note_on_c, 0, 53, 0
2, 43072, Note_on_c, 0, 79, 0
2, 43080, Note_on_c, 0, 62, 0
2, 43088, Note_on_c, 0, 58, 0
2, 43088, Note_on_c, 0, 55, 0
2, 43088, Note_on_c, 0, 91, 0
2, 43384, Note_on_c, 0, 58, 54
2, 43388, Note_on_c, 0, 53, 58
2, 43388, Note_on_c, 0, 62, 62
2, 43392, Note_on_c, 0, 86, 70
2, 43396, Note_on_c, 0, 79, 68
2, 43396, Note_on_c, 0, 91, 69
2, 43396, Note_on_c, 0, 55, 44
2, 43428, Note_on_c, 0, 55, 0
2, 43484, Note_on_c, 0, 79, 0
2, 43500, Note_on_c, 0, 86, 0
2, 43508, Note_on_c, 0, 91, 0
2, 43544, Note_on_c, 0, 58, 0
2, 43552, Note_on_c, 0, 53, 0
2, 43568, Note_on_c, 0, 62, 0
2, 43748, Control_c, 0, 64, 127
2, 43776, Note_on_c, 0, 56, 53
2, 43780, Note_on_c, 0, 98, 77
2, 43780, Note_on_c, 0, 59, 56
2, 43784, Note_on_c, 0, 62, 62
2, 43784, Note_on_c, 0, 86, 70
2, 43784, Note_on_c, 0, 93, 72
2, 43788, Note_on_c, 0, 53, 55
2, 43812, Note_on_c, 0, 93, 0
2, 43828, Note_on_c, 0, 98, 0
2, 43832, Note_on_c, 0, 86, 0
2, 43860, Note_on_c, 0, 59, 0
2, 43888, Note_on_c, 0, 62, 0
2, 43900, Note_on_c, 0, 53, 0
2, 43900, Note_on_c, 0, 56, 0
2, 44040, Note_on_c, 0, 95, 64
2, 44044, Note_on_c, 0, 83, 58
2, 44044, Note_on_c, 0, 56, 35
2, 44044, Note_on_c, 0, 62, 55
2, 44048, Note_on_c, 0, 88, 59
2, 44052, Note_on_c, 0, 53, 46
2, 44052, Note_on_c, 0, 59, 55
2, 44052, Note_on_c, 0, 91, 48
2, 44060, Control_c, 0, 64, 0
2, 44128, Control_c, 0, 64, 127
2, 44220, Note_on_c, 0, 95, 0
2, 44232, Note_on_c, 0, 91, 0
2, 44236, Note_on_c, 0, 88, 0
2, 44260, Note_on_c, 0, 83, 0
2, 44308, Note_on_c, 0, 62, 0
2, 44312, Note_on_c, 0, 59, 0
2, 44356, Note_on_c, 0, 56, 0
2, 44384, Note_on_c, 0, 53, 0
2, 44536, Control_c, 0, 64, 0
2, 44548, Note_on_c, 0, 72, 66
2, 44552, Note_on_c, 0, 69, 68
2, 44552, Note_on_c, 0, 65, 68
2, 44784, Note_on_c, 0, 60, 67
2, 44936, Note_on_c, 0, 48, 52
2, 44936, Control_c, 0, 64, 127
2, 44956, Note_on_c, 0, 60, 0
2, 44960, Note_on_c, 0, 65, 0
2, 44992, Note_on_c, 0, 69, 0
2, 45160, Note_on_c, 0, 72, 0
2, 45176, Note_on_c, 0, 65, 66
2, 45180, Note_on_c, 0, 69, 64
2, 45180, Note_on_c, 0, 60, 66
2, 45216, Control_c, 0, 64, 0
2, 45292, Control_c, 0, 64, 127
2, 45472, Note_on_c, 0, 60, 0
2, 45560, Note_on_c, 0, 60, 81
2, 45580, Note_on_c, 0, 65, 0
2, 45656, Note_on_c, 0, 48, 0
2, 45684, Control_c, 0, 64, 0
2, 45692, Note_on_c, 0, 69, 0
2, 45708, Note_on_c, 0, 48, 53
2, 45744, Control_c, 0, 64, 127
2, 45812, Note_on_c, 0, 48, 0
2, 45860, Note_on_c, 0, 60, 0
2, 46036, Control_c, 0, 64, 0
2, 46068, Note_on_c, 0, 62, 58
2, 46072, Note_on_c, 0, 65, 73
2, 46072, Note_on_c, 0, 72, 66
2, 46076, Note_on_c, 0, 58, 45
2, 46076, Note_on_c, 0, 69, 66
2, 46080, Note_on_c, 0, 60, 57
2, 46468, Control_c, 0, 64, 127
2, 46516, Note_on_c, 0, 60, 0
2, 46520, Note_on_c, 0, 62, 0
2, 46528, Note_on_c, 0, 65, 0
2, 46536, Note_on_c, 0, 58, 0
2, 46540, Note_on_c, 0, 69, 0
2, 46556, Note_on_c, 0, 72, 0
2, 46796, Control_c, 0, 64, 0
2, 46840, Note_on_c, 0, 58, 49
2, 46844, Note_on_c, 0, 74, 73
2, 46848, Note_on_c, 0, 68, 55
2, 46848, Note_on_c, 0, 64, 64
2, 46852, Note_on_c, 0, 70, 51
2, 46852, Note_on_c, 0, 62, 58
2, 46860, Note_on_c, 0, 52, 50
2, 46924, Control_c, 0, 64, 127
2, 47080, Note_on_c, 0, 62, 0
2, 47136, Note_on_c, 0, 58, 0
2, 47180, Note_on_c, 0, 52, 0
2, 47200, Note_on_c, 0, 74, 0
2, 47232, Note_on_c, 0, 64, 0
2, 47236, Note_on_c, 0, 68, 0
2, 47260, Note_on_c, 0, 70, 0
2, 47600, Control_c, 0, 64, 0
2, 47604, Note_on_c, 0, 65, 83
2, 47604, Note_on_c, 0, 60, 80
2, 47604, Note_on_c, 0, 72, 76
2, 47608, Note_on_c, 0, 69, 72
2, 47628, Note_on_c, 0, 69, 0
2, 47632, Note_on_c, 0, 60, 0
2, 47636, Note_on_c, 0, 65, 0
2, 47660, Note_on_c, 0, 72, 0
2, 47844, Note_on_c, 0, 48, 92
2, 47848, Note_on_c, 0, 47, 81
2, 47888, Note_on_c, 0, 47, 0
2, 49752, Control_c, 0, 64, 127
2, 49788, Note_on_c, 0, 42, 45
2, 49792, Note_on_c, 0, 48, 0
2, 49844, Note_on_c, 0, 44, 30
2, 49848, Control_c, 0, 64, 0
2, 49864, Note_on_c, 0, 42, 0
2, 49876, Note_on_c, 0, 44, 0
2, 49884, Note_on_c, 0, 45, 68
2, 49896, Note_on_c, 0, 55, 57
2, 49900, Note_on_c, 0, 64, 54
2, 49908, Note_on_c, 0, 60, 52
2, 50132, Note_on_c, 0, 64, 0
2, 50160, Note_on_c, 0, 55, 0
2, 50188, Note_on_c, 0, 42, 38
2, 50196, Note_on_c, 0, 60, 0
2, 50256, Note_on_c, 0, 45, 0
2, 50280, Note_on_c, 0, 44, 47
2, 50280, Note_on_c, 0, 54, 54
2, 50280, Note_on_c, 0, 63, 53
2, 50284, Note_on_c, 0, 42, 0
2, 50292, Note_on_c, 0, 59, 49
2, 50472, Control_c, 0, 64, 127
2, 50540, Note_on_c, 0, 59, 0
2, 50560, Note_on_c, 0, 54, 0
2, 50564, Note_on_c, 0, 42, 35
2, 50608, Note_on_c, 0, 63, 0
2, 50640, Note_on_c, 0, 44, 0
2, 50644, Control_c, 0, 64, 0
2, 50656, Note_on_c, 0, 42, 0
2, 50676, Note_on_c, 0, 43, 40
2, 50680, Note_on_c, 0, 53, 39
2, 50688, Note_on_c, 0, 59, 32
2, 50692, Note_on_c, 0, 60, 32
2, 50708, Note_on_c, 0, 53, 0
2, 50720, Note_on_c, 0, 59, 0
2, 50724, Note_on_c, 0, 60, 0
2, 50904, Note_on_c, 0, 43, 0
2, 50916, Note_on_c, 0, 31, 75
2, 50948, Note_on_c, 0, 31, 0
2, 51068, Note_on_c, 0, 69, 69
2, 51068, Note_on_c, 0, 81, 74
2, 51072, Note_on_c, 0, 75, 62
2, 51092, Note_on_c, 0, 60, 64
2, 51148, Note_on_c, 0, 76, 63
2, 51164, Note_on_c, 0, 60, 0
2, 51176, Note_on_c, 0, 75, 0
2, 51188, Note_on_c, 0, 69, 0
2, 51204, Note_on_c, 0, 76, 0
2, 51220, Note_on_c, 0, 81, 0
2, 51296, Note_on_c, 0, 81, 78
2, 51300, Note_on_c, 0, 75, 69
2, 51304, Note_on_c, 0, 69, 68
2, 51304, Note_on_c, 0, 64, 63
2, 51308, Note_on_c, 0, 59, 66
2, 51308, Note_on_c, 0, 53, 65
2, 51368, Note_on_c, 0, 76, 54
2, 51380, Note_on_c, 0, 75, 0
2, 51400, Note_on_c, 0, 76, 0
2, 51404, Note_on_c, 0, 69, 0
2, 51408, Note_on_c, 0, 64, 0
2, 51408, Note_on_c, 0, 81, 0
2, 51408, Note_on_c, 0, 53, 0
2, 51424, Note_on_c, 0, 59, 0
2, 51504, Note_on_c, 0, 69, 51
2, 51508, Note_on_c, 0, 81, 47
2, 51516, Note_on_c, 0, 75, 56
2, 51524, Note_on_c, 0, 64, 47
2, 51528, Note_on_c, 0, 59, 31
2, 51548, Note_on_c, 0, 53, 46
2, 51576, Control_c, 0, 64, 127
2, 51600, Note_on_c, 0, 76, 30
2, 51680, Note_on_c, 0, 76, 0
2, 51704, Note_on_c, 0, 75, 0
2, 51716, Note_on_c, 0, 69, 0
2, 51716, Note_on_c, 0, 64, 0
2, 51716, Note_on_c, 0, 53, 0
2, 51744, Note_on_c, 0, 59, 0
2, 51756, Control_c, 0, 64, 0
2, 51764, Note_on_c, 0, 81, 0
2, 51800, Note_on_c, 0, 59, 37
2, 51800, Note_on_c, 0, 69, 42
2, 51800, Note_on_c, 0, 77, 55
2, 51804, Note_on_c, 0, 64, 44
2, 51804, Note_on_c, 0, 53, 34
2, 51812, Control_c, 0, 64, 127
2, 51880, Note_on_c, 0, 69, 0
2, 51932, Note_on_c, 0, 59, 0
2, 51936, Note_on_c, 0, 64, 0
2, 51944, Note_on_c, 0, 77, 0
2, 52004, Note_on_c, 0, 53, 0
2, 52076, Note_on_c, 0, 74, 37
2, 52076, Note_on_c, 0, 53, 16
2, 52080, Note_on_c, 0, 62, 38
2, 52084, Note_on_c, 0, 58, 39
2, 52084, Control_c, 0, 64, 0
2, 52092, Note_on_c, 0, 57, 31
2, 52092, Note_on_c, 0, 65, 32
2, 52636, Note_on_c, 0, 65, 0
2, 52636, Note_on_c, 0, 74, 0
2, 52648, Note_on_c, 0, 62, 0
2, 52668, Note_on_c, 0, 58, 0
2, 52672, Note_on_c, 0, 57, 0
2, 52724, Note_on_c, 0, 53, 0
2, 52976, Note_on_c, 0, 58, 63
2, 52980, Note_on_c, 0, 65, 74
2, 52980, Note_on_c, 0, 62, 67
2, 52984, Note_on_c, 0, 70, 52
2, 52984, Note_on_c, 0, 77, 58
2, 52992, Note_on_c, 0, 52, 53
2, 53000, Note_on_c, 0, 65, 0
2, 53004, Note_on_c, 0, 70, 0
2, 53004, Note_on_c, 0, 62, 0
2, 53012, Note_on_c, 0, 52, 0
2, 53020, Note_on_c, 0, 77, 0
2, 53024, Note_on_c, 0, 58, 0
2, 53360, Control_c, 0, 64, 127
2, 53672, Control_c, 0, 64, 0
2, 53728, Note_on_c, 0, 81, 49
2, 53732, Note_on_c, 0, 93, 53
2, 53732, Note_on_c, 0, 62, 46
2, 53736, Note_on_c, 0, 88, 44
2, 53736, Note_on_c, 0, 67, 48
2, 53740, Note_on_c, 0, 57, 22
2, 53764, Note_on_c, 0, 88, 0
2, 53768, Note_on_c, 0, 81, 0
2, 53772, Note_on_c, 0, 93, 0
2, 53780, Note_on_c, 0, 67, 0
2, 53784, Note_on_c, 0, 57, 0
2, 53792, Note_on_c, 0, 62, 0
2, 54116, Control_c, 0, 64, 127
2, 54484, Control_c, 0, 64, 0
2, 54504, Note_on_c, 0, 98, 76
2, 54508, Note_on_c, 0, 86, 62
2, 54516, Note_on_c, 0, 93, 59
2, 54516, Note_on_c, 0, 67, 58
2, 54516, Note_on_c, 0, 62, 55
2, 54520, Note_on_c, 0, 56, 52
2, 54608, Control_c, 0, 64, 127
2, 54932, Note_on_c, 0, 62, 0
2, 54952, Note_on_c, 0, 56, 0
2, 54964, Note_on_c, 0, 67, 0
2, 54972, Note_on_c, 0, 98, 0
2, 54996, Note_on_c, 0, 93, 0
2, 55000, Note_on_c, 0, 86, 0
2, 55248, Control_c, 0, 64, 0
2, 55284, Note_on_c, 0, 96, 62
2, 55284, Note_on_c, 0, 67, 49
2, 55288, Note_on_c, 0, 84, 51
2, 55288, Note_on_c, 0, 91, 46
2, 55292, Note_on_c, 0, 62, 47
2, 55292, Note_on_c, 0, 57, 43
2, 55376, Control_c, 0, 64, 127
2, 55628, Note_on_c, 0, 84, 0
2, 55640, Note_on_c, 0, 67, 0
2, 55656, Note_on_c, 0, 91, 0
2, 55656, Note_on_c, 0, 96, 0
2, 55660, Note_on_c, 0, 62, 0
2, 55684, Note_on_c, 0, 57, 0
2, 55920, Control_c, 0, 64, 0
2, 55944, Note_on_c, 0, 89, 72
2, 55944, Note_on_c, 0, 65, 76
2, 55948, Note_on_c, 0, 101, 71
2, 55948, Note_on_c, 0, 98, 61
2, 55948, Note_on_c, 0, 58, 57
2, 55952, Note_on_c, 0, 94, 52
2, 55952, Note_on_c, 0, 60, 64
2, 55952, Note_on_c, 0, 54, 59
2, 55996, Note_on_c, 0, 65, 0
2, 56000, Note_on_c, 0, 94, 0
2, 56004, Note_on_c, 0, 89, 0
2, 56008, Note_on_c, 0, 98, 0
2, 56008, Note_on_c, 0, 101, 0
2, 56020, Note_on_c, 0, 60, 0
2, 56020, Note_on_c, 0, 54, 0
2, 56028, Note_on_c, 0, 58, 0
2, 56120, Control_c, 0, 64, 127
2, 56184, Note_on_c, 0, 94, 62
2, 56184, Note_on_c, 0, 98, 67
2, 56188, Note_on_c, 0, 86, 58
2, 56192, Note_on_c, 0, 65, 65
2, 56192, Note_on_c, 0, 58, 46
2, 56196, Note_on_c, 0, 60, 56
2, 56196, Note_on_c, 0, 54, 52
2, 56252, Note_on_c, 0, 98, 0
2, 56256, Note_on_c, 0, 94, 0
2, 56284, Note_on_c, 0, 86, 0
2, 56292, Note_on_c, 0, 65, 0
2, 56308, Note_on_c, 0, 58, 0
2, 56320, Note_on_c, 0, 60, 0
2, 56328, Note_on_c, 0, 54, 0
2, 56400, Control_c, 0, 64, 0
2, 56440, Note_on_c, 0, 94, 61
2, 56444, Note_on_c, 0, 82, 53
2, 56448, Note_on_c, 0, 65, 53
2, 56448, Note_on_c, 0, 58, 46
2, 56448, Note_on_c, 0, 54, 52
2, 56452, Control_c, 0, 64, 127
2, 56452, Note_on_c, 0, 60, 52
2, 56528, Note_on_c, 0, 94, 0
2, 56548, Note_on_c, 0, 82, 0
2, 56580, Note_on_c, 0, 65, 0
2, 56584, Note_on_c, 0, 60, 0
2, 56676, Note_on_c, 0, 54, 0
2, 56676, Note_on_c, 0, 58, 0
2, 56708, Note_on_c, 0, 93, 62
2, 56712, Control_c, 0, 64, 0
2, 56712, Note_on_c, 0, 88, 53
2, 56716, Note_on_c, 0, 81, 50
2, 56716, Note_on_c, 0, 64, 58
2, 56720, Note_on_c, 0, 59, 62
2, 56724, Note_on_c, 0, 53, 55
2, 56840, Control_c, 0, 64, 127
2, 56976, Note_on_c, 0, 93, 0
2, 56992, Note_on_c, 0, 88, 0
2, 57040, Note_on_c, 0, 81, 0
2, 57072, Note_on_c, 0, 53, 0
2, 57088, Note_on_c, 0, 64, 0
2, 57096, Note_on_c, 0, 59, 0
2, 57176, Control_c, 0, 64, 0
2, 57212, Note_on_c, 0, 64, 33
2, 57216, Note_on_c, 0, 88, 38
2, 57220, Note_on_c, 0, 76, 29
2, 57220, Note_on_c, 0, 59, 44
2, 57224, Note_on_c, 0, 53, 33
2, 57228, Note_on_c, 0, 83, 37
2, 57276, Control_c, 0, 64, 127
2, 57400, Note_on_c, 0, 88, 0
2, 57408, Note_on_c, 0, 53, 0
2, 57408, Note_on_c, 0, 76, 0
2, 57412, Note_on_c, 0, 83, 0
2, 57428, Note_on_c, 0, 64, 0
2, 57444, Note_on_c, 0, 59, 0
2, 57468, Note_on_c, 0, 88, 39
2, 57472, Note_on_c, 0, 76, 49
2, 57476, Note_on_c, 0, 83, 48
2, 57480, Note_on_c, 0, 64, 56
2, 57484, Note_on_c, 0, 59, 60
2, 57492, Control_c, 0, 64, 0
2, 57500, Note_on_c, 0, 83, 0
2, 57508, Note_on_c, 0, 88, 0
2, 57508, Note_on_c, 0, 76, 0
2, 57512, Note_on_c, 0, 64, 0
2, 57516, Note_on_c, 0, 59, 0
2, 57972, Note_on_c, 0, 65, 60
2, 57976, Note_on_c, 0, 52, 58
2, 57988, Note_on_c, 0, 53, 48
2, 57992, Note_on_c, 0, 62, 51
2, 57996, Note_on_c, 0, 52, 0
2, 57996, Note_on_c, 0, 63, 28
2, 58004, Note_on_c, 0, 55, 30
2, 58108, Note_on_c, 0, 63, 0
2, 58168, Note_on_c, 0, 65, 0
2, 58176, Note_on_c, 0, 55, 0
2, 58204, Note_on_c, 0, 62, 0
2, 58220, Note_on_c, 0, 53, 0
2, 58240, Note_on_c, 0, 65, 58
2, 58244, Note_on_c, 0, 55, 55
2, 58244, Note_on_c, 0, 62, 29
2, 58248, Note_on_c, 0, 58, 48
2, 58252, Note_on_c, 0, 53, 30
2, 58320, Note_on_c, 0, 65, 0
2, 58328, Note_on_c, 0, 55, 0
2, 58336, Note_on_c, 0, 58, 0
2, 58344, Note_on_c, 0, 62, 0
2, 58384, Note_on_c, 0, 55, 44
2, 58388, Note_on_c, 0, 65, 33
2, 58388, Note_on_c, 0, 58, 25
2, 58392, Note_on_c, 0, 62, 40
2, 58564, Note_on_c, 0, 65, 0
2, 58572, Note_on_c, 0, 55, 0
2, 58584, Note_on_c, 0, 58, 0
2, 58592, Note_on_c, 0, 62, 0
2, 58604, Note_on_c, 0, 53, 0
2, 58632, Note_on_c, 0, 58, 37
2, 58632, Note_on_c, 0, 65, 46
2, 58636, Note_on_c, 0, 55, 40
2, 58640, Note_on_c, 0, 53, 36
2, 58644, Note_on_c, 0, 62, 56
2, 58664, Note_on_c, 0, 55, 0
2, 58668, Note_on_c, 0, 62, 0
2, 58668, Note_on_c, 0, 65, 0
2, 58676, Note_on_c, 0, 58, 0
2, 58708, Note_on_c, 0, 53, 0
2, 59040, Note_on_c, 0, 51, 28
2, 59108, Note_on_c, 0, 51, 0
2, 59128, Note_on_c, 0, 55, 46
2, 59132, Note_on_c, 0, 65, 50
2, 59140, Note_on_c, 0, 62, 45
2, 59140, Note_on_c, 0, 58, 38
2, 59144, Note_on_c, 0, 53, 32
2, 59316, Note_on_c, 0, 65, 0
2, 59320, Note_on_c, 0, 55, 0
2, 59344, Note_on_c, 0, 58, 0
2, 59344, Note_on_c, 0, 53, 0
2, 59352, Note_on_c, 0, 62, 0
2, 59396, Note_on_c, 0, 65, 50
2, 59396, Note_on_c, 0, 58, 40
2, 59400, Note_on_c, 0, 55, 55
2, 59400, Note_on_c, 0, 53, 60
2, 59400, Note_on_c, 0, 62, 46
2, 59472, Note_on_c, 0, 65, 0
2, 59480, Note_on_c, 0, 55, 0
2, 59496, Note_on_c, 0, 58, 0
2, 59496, Note_on_c, 0, 53, 0
2, 59504, Note_on_c, 0, 62, 0
2, 59524, Note_on_c, 0, 53, 25
2, 59540, Note_on_c, 0, 55, 38
2, 59544, Note_on_c, 0, 65, 35
2, 59548, Note_on_c, 0, 58, 27
2, 59552, Note_on_c, 0, 62, 43
2, 59684, Control_c, 0, 64, 127
2, 59720, Note_on_c, 0, 65, 0
2, 59720, Note_on_c, 0, 55, 0
2, 59728, Note_on_c, 0, 58, 0
2, 59740, Note_on_c, 0, 62, 0
2, 59740, Note_on_c, 0, 53, 0
2, 59772, Control_c, 0, 64, 0
2, 59776, Note_on_c, 0, 65, 55
2, 59776, Note_on_c, 0, 53, 57
2, 59780, Note_on_c, 0, 58, 46
2, 59784, Note_on_c, 0, 55, 58
2, 59792, Note_on_c, 0, 62, 54
2, 59804, Note_on_c, 0, 55, 0
2, 59820, Note_on_c, 0, 58, 0
2, 59820, Note_on_c, 0, 62, 0
2, 59836, Note_on_c, 0, 53, 0
2, 59864, Note_on_c, 0, 65, 0
2, 60136, Control_c, 0, 64, 127
2, 60188, Control_c, 0, 64, 0
2, 60296, Control_c, 0, 64, 127
2, 60296, Note_on_c, 0, 61, 38
2, 60296, Note_on_c, 0, 65, 71
2, 60300, Note_on_c, 0, 69, 69
2, 60300, Note_on_c, 0, 60, 44
2, 60304, Note_on_c, 0, 55, 50
2, 60444, Note_on_c, 0, 55, 0
2, 60456, Note_on_c, 0, 61, 0
2, 60460, Note_on_c, 0, 65, 0
2, 60460, Note_on_c, 0, 60, 0
2, 60480, Note_on_c, 0, 69, 0
2, 60548, Note_on_c, 0, 61, 48
2, 60552, Note_on_c, 0, 69, 66
2, 60552, Note_on_c, 0, 60, 55
2, 60552, Note_on_c, 0, 65, 71
2, 60556, Note_on_c, 0, 55, 49
2, 60592, Note_on_c, 0, 55, 0
2, 60616, Note_on_c, 0, 60, 0
2, 60620, Note_on_c, 0, 61, 0
2, 60624, Control_c, 0, 64, 0
2, 60640, Note_on_c, 0, 69, 0
2, 60640, Note_on_c, 0, 65, 0
2, 60688, Note_on_c, 0, 61, 35
2, 60700, Note_on_c, 0, 55, 55
2, 60704, Note_on_c, 0, 65, 44
2, 60708, Note_on_c, 0, 69, 36
2, 60820, Note_on_c, 0, 65, 0
2, 60848, Note_on_c, 0, 58, 1
2, 60852, Note_on_c, 0, 69, 0
2, 60852, Note_on_c, 0, 55, 0
2, 60892, Note_on_c, 0, 58, 0
2, 60912, Note_on_c, 0, 61, 0
2, 60956, Note_on_c, 0, 69, 75
2, 60956, Note_on_c, 0, 60, 70
2, 60960, Note_on_c, 0, 64, 69
2, 60964, Note_on_c, 0, 54, 58
2, 61088, Control_c, 0, 64, 127
2, 61264, Note_on_c, 0, 64, 0
2, 61312, Note_on_c, 0, 60, 0
2, 61372, Note_on_c, 0, 69, 0
2, 61396, Note_on_c, 0, 54, 0
2, 61400, Control_c, 0, 64, 0
2, 61440, Note_on_c, 0, 53, 50
2, 61440, Note_on_c, 0, 64, 43
2, 61448, Note_on_c, 0, 59, 57
2, 61452, Note_on_c, 0, 69, 44
2, 61456, Note_on_c, 0, 65, 50
2, 61488, Control_c, 0, 64, 127
2, 61536, Note_on_c, 0, 65, 0
2, 61548, Note_on_c, 0, 69, 0
2, 61632, Note_on_c, 0, 64, 0
2, 61644, Note_on_c, 0, 59, 0
2, 61648, Note_on_c, 0, 53, 0
2, 61704, Note_on_c, 0, 76, 75
2, 61712, Note_on_c, 0, 73, 65
2, 61712, Note_on_c, 0, 64, 72
2, 61716, Note_on_c, 0, 53, 58
2, 61716, Note_on_c, 0, 69, 71
2, 61716, Control_c, 0, 64, 0
2, 61720, Note_on_c, 0, 59, 68
2, 61848, Note_on_c, 0, 64, 0
2, 61860, Note_on_c, 0, 69, 0
2, 61864, Note_on_c, 0, 76, 0
2, 61872, Note_on_c, 0, 73, 0
2, 61876, Note_on_c, 0, 59, 0
2, 61880, Note_on_c, 0, 53, 0
2, 62200, Control_c, 0, 64, 127
2, 62456, Note_on_c, 0, 76, 73
2, 62456, Note_on_c, 0, 68, 69
2, 62456, Note_on_c, 0, 65, 77
2, 62460, Note_on_c, 0, 64, 65
2, 62464, Note_on_c, 0, 59, 60
2, 62464, Note_on_c, 0, 71, 60
2, 62472, Note_on_c, 0, 53, 47
2, 62480, Control_c, 0, 64, 0
2, 62588, Control_c, 0, 64, 127
2, 62608, Note_on_c, 0, 76, 0
2, 62648, Note_on_c, 0, 64, 0
2, 62660, Note_on_c, 0, 53, 0
2, 62664, Note_on_c, 0, 65, 0
2, 62672, Note_on_c, 0, 68, 0
2, 62672, Note_on_c, 0, 71, 0
2, 62680, Note_on_c, 0, 59, 0
2, 62720, Note_on_c, 0, 74, 66
2, 62724, Note_on_c, 0, 65, 54
2, 62728, Note_on_c, 0, 68, 56
2, 62728, Note_on_c, 0, 64, 45
2, 62732, Note_on_c, 0, 59, 36
2, 62740, Note_on_c, 0, 53, 33
2, 62808, Note_on_c, 0, 64, 0
2, 62812, Note_on_c, 0, 59, 0
2, 62856, Note_on_c, 0, 74, 0
2, 62876, Note_on_c, 0, 65, 0
2, 62884, Note_on_c, 0, 68, 0
2, 62892, Note_on_c, 0, 53, 0
2, 62968, Control_c, 0, 64, 0
2, 62980, Note_on_c, 0, 72, 54
2, 62984, Note_on_c, 0, 62, 63
2, 62992, Note_on_c, 0, 67, 49
2, 62992, Note_on_c, 0, 58, 53
2, 62996, Note_on_c, 0, 52, 53
2, 63016, Note_on_c, 0, 67, 0
2, 63024, Note_on_c, 0, 52, 0
2, 63032, Note_on_c, 0, 58, 0
2, 63032, Note_on_c, 0, 62, 0
2, 63036, Note_on_c, 0, 72, 0
2, 63348, Control_c, 0, 64, 127
2, 63680, Control_c, 0, 64, 0
2, 63732, Note_on_c, 0, 64, 51
2, 63736, Note_on_c, 0, 60, 47
2, 63740, Note_on_c, 0, 86, 58
2, 63740, Note_on_c, 0, 74, 55
2, 63744, Note_on_c, 0, 81, 53
2, 63744, Note_on_c, 0, 54, 34
2, 63768, Note_on_c, 0, 60, 0
2, 63772, Note_on_c, 0, 74, 0
2, 63772, Note_on_c, 0, 64, 0
2, 63792, Note_on_c, 0, 81, 0
2, 63796, Note_on_c, 0, 54, 0
2, 63812, Note_on_c, 0, 86, 0
2, 64108, Note_on_c, 0, 93, 79
2, 64112, Control_c, 0, 64, 127
2, 64112, Note_on_c, 0, 88, 74
2, 64112, Note_on_c, 0, 54, 64
2, 64116, Note_on_c, 0, 81, 65
2, 64116, Note_on_c, 0, 60, 66
2, 64120, Note_on_c, 0, 64, 67
2, 64276, Note_on_c, 0, 60, 0
2, 64284, Note_on_c, 0, 81, 0
2, 64288, Note_on_c, 0, 93, 0
2, 64292, Note_on_c, 0, 88, 0
2, 64296, Note_on_c, 0, 64, 0
2, 64368, Note_on_c, 0, 54, 0
2, 64468, Control_c, 0, 64, 0
2, 64496, Note_on_c, 0, 94, 57
2, 64496, Note_on_c, 0, 62, 40
2, 64504, Note_on_c, 0, 82, 34
2, 64504, Note_on_c, 0, 58, 36
2, 64508, Note_on_c, 0, 55, 42
2, 64512, Note_on_c, 0, 89, 53
2, 64600, Note_on_c, 0, 89, 0
2, 64644, Note_on_c, 0, 82, 0
2, 64660, Control_c, 0, 64, 127
2, 64668, Note_on_c, 0, 94, 0
2, 64676, Note_on_c, 0, 62, 0
2, 64680, Note_on_c, 0, 55, 0
2, 64688, Note_on_c, 0, 58, 0
2, 64748, Note_on_c, 0, 58, 36
2, 64752, Note_on_c, 0, 62, 48
2, 64752, Note_on_c, 0, 96, 57
2, 64756, Note_on_c, 0, 55, 39
2, 64768, Control_c, 0, 64, 0
2, 64780, Note_on_c, 0, 96, 0
2, 64796, Note_on_c, 0, 55, 0
2, 64796, Note_on_c, 0, 62, 0
2, 64800, Note_on_c, 0, 58, 0
2, 65140, Note_on_c, 0, 58, 67
2, 65144, Note_on_c, 0, 96, 67
2, 65144, Note_on_c, 0, 62, 72
2, 65148, Note_on_c, 0, 91, 61
2, 65148, Note_on_c, 0, 84, 58
2, 65152, Note_on_c, 0, 52, 55
2, 65164, Note_on_c, 0, 96, 0
2, 65172, Note_on_c, 0, 84, 0
2, 65176, Note_on_c, 0, 91, 0
2, 65176, Note_on_c, 0, 52, 0
2, 65180, Note_on_c, 0, 62, 0
2, 65188, Note_on_c, 0, 58, 0
2, 65308, Control_c, 0, 64, 127
2, 65372, Note_on_c, 0, 82, 67
2, 65372, Note_on_c, 0, 94, 71
2, 65384, Note_on_c, 0, 58, 59
2, 65388, Note_on_c, 0, 62, 63
2, 65396, Note_on_c, 0, 52, 59
2, 65480, Note_on_c, 0, 52, 0
2, 65496, Note_on_c, 0, 82, 0
2, 65500, Note_on_c, 0, 94, 0
2, 65508, Note_on_c, 0, 58, 0
2, 65508, Note_on_c, 0, 62, 0
2, 65592, Control_c, 0, 64, 0
2, 65632, Note_on_c, 0, 58, 47
2, 65632, Note_on_c, 0, 92, 55
2, 65636, Note_on_c, 0, 87, 58
2, 65636, Note_on_c, 0, 80, 38
2, 65640, Note_on_c, 0, 62, 54
2, 65648, Note_on_c, 0, 52, 47
2, 65648, Control_c, 0, 64, 127
2, 65732, Note_on_c, 0, 52, 0
2, 65772, Note_on_c, 0, 58, 0
2, 65776, Note_on_c, 0, 87, 0
2, 65796, Note_on_c, 0, 80, 0
2, 65812, Note_on_c, 0, 62, 0
2, 65820, Note_on_c, 0, 92, 0
2, 65912, Note_on_c, 0, 64, 66
2, 65916, Note_on_c, 0, 93, 77
2, 65916, Note_on_c, 0, 60, 60
2, 65920, Note_on_c, 0, 81, 64
2, 65920, Note_on_c, 0, 88, 70
2, 65924, Note_on_c, 0, 57, 53
2, 65928, Note_on_c, 0, 53, 38
2, 65928, Control_c, 0, 64, 0
2, 66120, Control_c, 0, 64, 127
2, 66320, Note_on_c, 0, 93, 0
2, 66348, Note_on_c, 0, 88, 0
2, 66400, Note_on_c, 0, 81, 0
2, 66464, Note_on_c, 0, 53, 0
2, 66468, Note_on_c, 0, 60, 0
2, 66472, Note_on_c, 0, 57, 0
2, 66476, Note_on_c, 0, 64, 0
2, 66780, Control_c, 0, 64, 0
2, 66800, Note_on_c, 0, 81, 83
2, 66800, Note_on_c, 0, 74, 82
2, 66804, Note_on_c, 0, 77, 71
2, 66804, Note_on_c, 0, 69, 81
2, 66808, Note_on_c, 0, 65, 74
2, 66876, Control_c, 0, 64, 127
2, 66988, Note_on_c, 0, 77, 0
2, 66992, Note_on_c, 0, 81, 0
2, 67012, Note_on_c, 0, 74, 0
2, 67036, Note_on_c, 0, 69, 0
2, 67176, Note_on_c, 0, 65, 0
2, 67180, Control_c, 0, 64, 0
2, 67192, Note_on_c, 0, 77, 66
2, 67192, Note_on_c, 0, 69, 67
2, 67196, Note_on_c, 0, 74, 63
2, 67200, Control_c, 0, 64, 127
2, 67204, Note_on_c, 0, 62, 44
2, 67312, Note_on_c, 0, 62, 0
2, 67336, Note_on_c, 0, 74, 0
2, 67336, Note_on_c, 0, 77, 0
2, 67352, Note_on_c, 0, 69, 0
2, 67560, Control_c, 0, 64, 0
2, 67572, Note_on_c, 0, 70, 52
2, 67572, Note_on_c, 0, 58, 42
2, 67580, Note_on_c, 0, 62, 43
2, 67584, Note_on_c, 0, 52, 48
2, 67588, Note_on_c, 0, 67, 48
2, 67652, Control_c, 0, 64, 127
2, 67808, Note_on_c, 0, 62, 0
2, 67840, Note_on_c, 0, 67, 0
2, 67848, Note_on_c, 0, 52, 0
2, 67880, Note_on_c, 0, 58, 0
2, 67904, Note_on_c, 0, 70, 0
2, 68216, Note_on_c, 0, 84, 101
2, 68316, Note_on_c, 0, 84, 0
2, 68324, Control_c, 0, 64, 0
2, 68476, Note_on_c, 0, 81, 67
2, 68480, Note_on_c, 0, 65, 55
2, 68480, Note_on_c, 0, 73, 44
2, 68480, Note_on_c, 0, 61, 38
2, 68484, Note_on_c, 0, 60, 50
2, 68492, Note_on_c, 0, 55, 46
2, 68504, Note_on_c, 0, 77, 26
2, 68552, Control_c, 0, 64, 127
2, 68608, Note_on_c, 0, 77, 0
2, 68640, Note_on_c, 0, 55, 0
2, 68652, Note_on_c, 0, 65, 0
2, 68652, Note_on_c, 0, 60, 0
2, 68660, Note_on_c, 0, 73, 0
2, 68660, Note_on_c, 0, 61, 0
2, 68692, Control_c, 0, 64, 0
2, 68704, Note_on_c, 0, 81, 0
2, 68728, Note_on_c, 0, 65, 50
2, 68732, Note_on_c, 0, 61, 35
2, 68736, Note_on_c, 0, 73, 50
2, 68740, Note_on_c, 0, 60, 34
2, 68740, Note_on_c, 0, 77, 55
2, 68748, Control_c, 0, 64, 127
2, 68752, Note_on_c, 0, 55, 43
2, 68824, Note_on_c, 0, 60, 0
2, 68828, Note_on_c, 0, 77, 0
2, 68852, Note_on_c, 0, 65, 0
2, 68864, Note_on_c, 0, 55, 0
2, 68868, Note_on_c, 0, 73, 0
2, 68892, Note_on_c, 0, 61, 0
2, 68988, Note_on_c, 0, 64, 57
2, 68992, Control_c, 0, 64, 0
2, 68992, Note_on_c, 0, 72, 53
2, 68992, Note_on_c, 0, 79, 59
2, 68992, Note_on_c, 0, 60, 46
2, 68992, Note_on_c, 0, 76, 61
2, 69000, Note_on_c, 0, 53, 34
2, 69000, Note_on_c, 0, 57, 50
2, 69248, Control_c, 0, 64, 127
2, 69584, Note_on_c, 0, 72, 0
2, 69592, Note_on_c, 0, 76, 0
2, 69600, Note_on_c, 0, 79, 0
2, 69616, Note_on_c, 0, 64, 0
2, 69648, Note_on_c, 0, 57, 0
2, 69664, Note_on_c, 0, 60, 0
2, 69700, Note_on_c, 0, 53, 0
2, 69844, Control_c, 0, 64, 0
2, 69856, Note_on_c, 0, 64, 40
2, 69860, Note_on_c, 0, 60, 36
2, 69864, Note_on_c, 0, 77, 37
2, 69864, Note_on_c, 0, 57, 45
2, 69864, Note_on_c, 0, 72, 40
2, 69864, Note_on_c, 0, 69, 37
2, 69872, Note_on_c, 0, 53, 29
2, 69896, Note_on_c, 0, 60, 0
2, 69900, Note_on_c, 0, 64, 0
2, 69900, Note_on_c, 0, 69, 0
2, 69908, Note_on_c, 0, 53, 0
2, 69916, Note_on_c, 0, 72, 0
2, 69920, Note_on_c, 0, 77, 0
2, 69920, Note_on_c, 0, 57, 0
2, 70616, Note_on_c, 0, 71, 62
2, 70620, Note_on_c, 0, 81, 66
2, 70620, Note_on_c, 0, 75, 54
2, 70628, Note_on_c, 0, 59, 49
2, 70628, Note_on_c, 0, 64, 35
2, 70632, Note_on_c, 0, 53, 36
2, 70720, Note_on_c, 0, 75, 0
2, 70736, Note_on_c, 0, 76, 39
2, 70800, Note_on_c, 0, 64, 0
2, 70800, Note_on_c, 0, 53, 0
2, 70808, Note_on_c, 0, 59, 0
2, 70808, Note_on_c, 0, 71, 0
2, 70812, Note_on_c, 0, 76, 0
2, 70816, Note_on_c, 0, 81, 0
2, 70996, Note_on_c, 0, 81, 73
2, 71000, Note_on_c, 0, 75, 60
2, 71000, Note_on_c, 0, 71, 68
2, 71004, Note_on_c, 0, 64, 60
2, 71004, Note_on_c, 0, 59, 57
2, 71008, Note_on_c, 0, 53, 55
2, 71136, Note_on_c, 0, 75, 0
2, 71136, Note_on_c, 0, 76, 34
2, 71176, Note_on_c, 0, 76, 0
2, 71176, Note_on_c, 0, 71, 0
2, 71184, Note_on_c, 0, 53, 0
2, 71188, Note_on_c, 0, 81, 0
2, 71188, Note_on_c, 0, 64, 0
2, 71196, Note_on_c, 0, 59, 0
2, 71368, Control_c, 0, 64, 127
2, 71376, Note_on_c, 0, 75, 62
2, 71380, Note_on_c, 0, 81, 74
2, 71380, Note_on_c, 0, 71, 69
2, 71384, Note_on_c, 0, 64, 66
2, 71388, Note_on_c, 0, 53, 58
2, 71388, Note_on_c, 0, 59, 58
2, 71436, Note_on_c, 0, 75, 0
2, 71444, Note_on_c, 0, 76, 48
2, 71540, Note_on_c, 0, 76, 0
2, 71540, Note_on_c, 0, 53, 0
2, 71548, Note_on_c, 0, 64, 0
2, 71556, Note_on_c, 0, 59, 0
2, 71560, Note_on_c, 0, 71, 0
2, 71640, Note_on_c, 0, 75, 55
2, 71648, Note_on_c, 0, 53, 48
2, 71652, Note_on_c, 0, 64, 51
2, 71652, Note_on_c, 0, 59, 50
2, 71660, Note_on_c, 0, 71, 18
2, 71688, Note_on_c, 0, 64, 0
2, 71708, Note_on_c, 0, 59, 0
2, 71708, Note_on_c, 0, 53, 0
2, 71708, Note_on_c, 0, 71, 0
2, 71740, Note_on_c, 0, 81, 0
2, 71756, Note_on_c, 0, 75, 0
2, 71768, Control_c, 0, 64, 0
2, 71788, Note_on_c, 0, 53, 36
2, 71788, Note_on_c, 0, 59, 47
2, 71792, Note_on_c, 0, 64, 31
2, 71796, Note_on_c, 0, 74, 34
2, 71828, Control_c, 0, 64, 127
2, 71900, Note_on_c, 0, 74, 0
2, 71904, Note_on_c, 0, 64, 0
2, 71908, Note_on_c, 0, 59, 0
2, 71988, Note_on_c, 0, 53, 0
2, 72028, Note_on_c, 0, 77, 59
2, 72032, Note_on_c, 0, 53, 28
2, 72036, Control_c, 0, 64, 0
2, 72040, Note_on_c, 0, 70, 46
2, 72040, Note_on_c, 0, 57, 49
2, 72044, Note_on_c, 0, 62, 54
2, 72044, Note_on_c, 0, 74, 66
2, 72048, Note_on_c, 0, 58, 48
2, 72056, Note_on_c, 0, 65, 45
2, 72060, Note_on_c, 0, 67, 42
2, 72088, Note_on_c, 0, 67, 0
2, 72156, Control_c, 0, 64, 127
2, 72296, Note_on_c, 0, 58, 0
2, 72296, Note_on_c, 0, 74, 0
2, 72328, Note_on_c, 0, 70, 0
2, 72328, Note_on_c, 0, 62, 0
2, 72332, Note_on_c, 0, 65, 0
2, 72392, Note_on_c, 0, 77, 0
2, 72424, Note_on_c, 0, 70, 56
2, 72424, Note_on_c, 0, 74, 58
2, 72428, Note_on_c, 0, 58, 59
2, 72432, Note_on_c, 0, 65, 60
2, 72432, Note_on_c, 0, 62, 62
2, 72568, Note_on_c, 0, 62, 0
2, 72576, Note_on_c, 0, 74, 0
2, 72596, Note_on_c, 0, 57, 0
2, 72600, Note_on_c, 0, 58, 0
2, 72628, Note_on_c, 0, 70, 0
2, 72636, Note_on_c, 0, 53, 0
2, 72644, Note_on_c, 0, 65, 0
2, 72892, Note_on_c, 0, 51, 35
2, 72940, Note_on_c, 0, 51, 0
2, 72944, Control_c, 0, 64, 0
2, 72956, Note_on_c, 0, 65, 51
2, 72960, Note_on_c, 0, 53, 61
2, 72964, Note_on_c, 0, 58, 36
2, 72964, Note_on_c, 0, 62, 52
2, 72964, Note_on_c, 0, 55, 50
2, 73040, Control_c, 0, 64, 127
2, 73128, Note_on_c, 0, 62, 0
2, 73140, Note_on_c, 0, 55, 0
2, 73152, Note_on_c, 0, 58, 0
2, 73176, Note_on_c, 0, 65, 0
2, 73208, Note_on_c, 0, 53, 0
2, 73224, Note_on_c, 0, 62, 50
2, 73224, Note_on_c, 0, 58, 45
2, 73228, Note_on_c, 0, 55, 53
2, 73228, Note_on_c, 0, 50, 56
2, 73276, Control_c, 0, 64, 0
2, 73296, Control_c, 0, 64, 127
2, 73468, Note_on_c, 0, 50, 0
2, 73528, Note_on_c, 0, 55, 0
2, 73584, Note_on_c, 0, 62, 0
2, 73588, Note_on_c, 0, 58, 0
2, 73708, Control_c, 0, 64, 0
2, 73732, Note_on_c, 0, 58, 69
2, 73732, Note_on_c, 0, 65, 68
2, 73736, Note_on_c, 0, 62, 66
2, 73736, Note_on_c, 0, 55, 78
2, 73784, Note_on_c, 0, 55, 0
2, 73804, Note_on_c, 0, 65, 0
2, 73812, Note_on_c, 0, 58, 0
2, 73820, Note_on_c, 0, 62, 0
2, 74092, Note_on_c, 0, 58, 69
2, 74100, Note_on_c, 0, 62, 66
2, 74100, Note_on_c, 0, 48, 55
2, 74100, Note_on_c, 0, 55, 72
2, 74112, Control_c, 0, 64, 127
2, 74120, Control_c, 0, 64, 0
2, 74152, Note_on_c, 0, 48, 0
2, 74156, Note_on_c, 0, 55, 0
2, 74196, Note_on_c, 0, 58, 0
2, 74200, Note_on_c, 0, 62, 0
2, 74488, Note_on_c, 0, 67, 80
2, 74492, Note_on_c, 0, 72, 76
2, 74492, Note_on_c, 0, 60, 77
2, 74496, Note_on_c, 0, 55, 66
2, 74500, Note_on_c, 0, 45, 57
2, 74616, Control_c, 0, 64, 127
2, 74680, Note_on_c, 0, 72, 0
2, 74704, Note_on_c, 0, 60, 0
2, 74724, Note_on_c, 0, 67, 0
2, 74744, Note_on_c, 0, 45, 0
2, 74748, Note_on_c, 0, 55, 0
2, 74804, Note_on_c, 0, 50, 31
2, 74820, Control_c, 0, 64, 0
2, 74852, Note_on_c, 0, 50, 0
2, 74880, Note_on_c, 0, 66, 58
2, 74884, Note_on_c, 0, 71, 62
2, 74884, Note_on_c, 0, 60, 62
2, 74892, Note_on_c, 0, 54, 55
2, 74900, Note_on_c, 0, 44, 51
2, 74908, Control_c, 0, 64, 127
2, 75096, Note_on_c, 0, 71, 0
2, 75100, Note_on_c, 0, 60, 0
2, 75132, Note_on_c, 0, 66, 0
2, 75184, Note_on_c, 0, 54, 0
2, 75236, Control_c, 0, 64, 0
2, 75244, Note_on_c, 0, 44, 0
2, 75272, Note_on_c, 0, 59, 47
2, 75276, Note_on_c, 0, 69, 48
2, 75276, Note_on_c, 0, 64, 57
2, 75284, Note_on_c, 0, 53, 51
2, 75492, Control_c, 0, 64, 127
2, 75532, Note_on_c, 0, 64, 0
2, 75540, Note_on_c, 0, 53, 0
2, 75556, Control_c, 0, 64, 0
2, 75556, Note_on_c, 0, 50, 47
2, 75564, Note_on_c, 0, 59, 0
2, 75632, Note_on_c, 0, 69, 0
2, 75636, Note_on_c, 0, 54, 44
2, 75636, Note_on_c, 0, 63, 48
2, 75640, Note_on_c, 0, 50, 0
2, 75640, Note_on_c, 0, 59, 45
2, 75688, Control_c, 0, 64, 127
2, 75844, Note_on_c, 0, 59, 0
2, 75884, Note_on_c, 0, 63, 0
2, 75896, Note_on_c, 0, 54, 0
2, 75900, Control_c, 0, 64, 0
2, 75900, Note_on_c, 0, 59, 59
2, 75904, Note_on_c, 0, 62, 70
2, 75928, Note_on_c, 0, 59, 0
2, 75932, Note_on_c, 0, 53, 51
2, 75936, Note_on_c, 0, 62, 0
2, 75956, Note_on_c, 0, 53, 0
2, 76056, Control_c, 0, 64, 127
2, 76136, Note_on_c, 0, 43, 54
2, 76160, Note_on_c, 0, 43, 0
2, 76368, Control_c, 0, 64, 0
2, 76400, Note_on_c, 0, 71, 68
2, 76400, Note_on_c, 0, 77, 61
2, 76404, Note_on_c, 0, 64, 49
2, 76404, Note_on_c, 0, 59, 51
2, 76452, Note_on_c, 0, 71, 0
2, 76452, Control_c, 0, 64, 127
2, 76456, Note_on_c, 0, 64, 0
2, 76468, Note_on_c, 0, 59, 0
2, 76476, Note_on_c, 0, 77, 0
2, 76500, Control_c, 0, 64, 0
2, 76548, Control_c, 0, 64, 127
2, 76616, Control_c, 0, 64, 0
2, 76668, Note_on_c, 0, 81, 58
2, 76672, Note_on_c, 0, 58, 38
2, 76672, Note_on_c, 0, 77, 57
2, 76676, Note_on_c, 0, 69, 56
2, 76676, Note_on_c, 0, 74, 59
2, 76676, Note_on_c, 0, 62, 51
2, 76684, Note_on_c, 0, 57, 42
2, 76688, Note_on_c, 0, 53, 40
2, 76816, Control_c, 0, 64, 127
2, 76956, Note_on_c, 0, 69, 0
2, 77020, Note_on_c, 0, 74, 0
2, 77048, Note_on_c, 0, 77, 0
2, 77060, Note_on_c, 0, 62, 0
2, 77064, Note_on_c, 0, 53, 0
2, 77076, Note_on_c, 0, 81, 0
2, 77080, Note_on_c, 0, 57, 0
2, 77080, Note_on_c, 0, 58, 0
2, 77512, Control_c, 0, 64, 0
2, 77536, Note_on_c, 0, 58, 35
2, 77540, Note_on_c, 0, 96, 61
2, 77544, Note_on_c, 0, 69, 35
2, 77544, Note_on_c, 0, 64, 42
2, 77548, Note_on_c, 0, 84, 44
2, 77628, Note_on_c, 0, 84, 0
2, 77644, Note_on_c, 0, 96, 0
2, 77648, Note_on_c, 0, 64, 0
2, 77648, Note_on_c, 0, 69, 0
2, 77660, Note_on_c, 0, 58, 0
2, 77932, Control_c, 0, 64, 127
2, 77932, Note_on_c, 0, 64, 37
2, 77940, Note_on_c, 0, 96, 61
2, 77948, Note_on_c, 0, 58, 27
2, 77948, Note_on_c, 0, 84, 41
2, 78024, Note_on_c, 0, 64, 0
2, 78052, Note_on_c, 0, 84, 0
2, 78060, Note_on_c, 0, 96, 0
2, 78116, Note_on_c, 0, 58, 0
2, 78288, Control_c, 0, 64, 0
2, 78328, Note_on_c, 0, 96, 64
2, 78332, Note_on_c, 0, 67, 44
2, 78332, Note_on_c, 0, 62, 49
2, 78336, Note_on_c, 0, 57, 45
2, 78348, Note_on_c, 0, 84, 28
2, 78440, Note_on_c, 0, 96, 0
2, 78444, Note_on_c, 0, 84, 0
2, 78464, Note_on_c, 0, 67, 0
2, 78472, Note_on_c, 0, 62, 0
2, 78488, Note_on_c, 0, 57, 0
2, 78712, Control_c, 0, 64, 127
2, 79024, Control_c, 0, 64, 0
2, 79088, Note_on_c, 0, 96, 74
2, 79092, Note_on_c, 0, 67, 51
2, 79092, Note_on_c, 0, 84, 65
2, 79096, Note_on_c, 0, 56, 43
2, 79096, Note_on_c, 0, 62, 53
2, 79268, Note_on_c, 0, 96, 0
2, 79276, Note_on_c, 0, 84, 0
2, 79288, Note_on_c, 0, 67, 0
2, 79300, Note_on_c, 0, 62, 0
2, 79340, Note_on_c, 0, 56, 0
2, 79496, Control_c, 0, 64, 127
2, 79792, Control_c, 0, 64, 0
2, 79848, Note_on_c, 0, 65, 55
2, 79856, Note_on_c, 0, 96, 71
2, 79856, Note_on_c, 0, 57, 50
2, 79860, Note_on_c, 0, 84, 64
2, 79864, Note_on_c, 0, 60, 55
2, 80044, Note_on_c, 0, 60, 0
2, 80048, Note_on_c, 0, 84, 0
2, 80052, Note_on_c, 0, 65, 0
2, 80072, Note_on_c, 0, 57, 0
2, 80076, Note_on_c, 0, 96, 0
2, 80240, Control_c, 0, 64, 127
2, 80532, Control_c, 0, 64, 0
2, 80612, Control_c, 0, 64, 127
2, 80616, Note_on_c, 0, 94, 74
2, 80620, Note_on_c, 0, 86, 72
2, 80620, Note_on_c, 0, 98, 74
2, 80620, Note_on_c, 0, 65, 70
2, 80624, Note_on_c, 0, 54, 62
2, 80628, Note_on_c, 0, 58, 51
2, 80628, Note_on_c, 0, 60, 60
2, 80752, Note_on_c, 0, 86, 0
2, 80764, Note_on_c, 0, 94, 0
2, 80768, Note_on_c, 0, 65, 0
2, 80768, Note_on_c, 0, 98, 0
2, 80780, Note_on_c, 0, 54, 0
2, 80784, Note_on_c, 0, 58, 0
2, 80784, Note_on_c, 0, 60, 0
2, 80884, Note_on_c, 0, 54, 64
2, 80888, Note_on_c, 0, 101, 73
2, 80888, Note_on_c, 0, 65, 70
2, 80892, Note_on_c, 0, 58, 50
2, 80892, Note_on_c, 0, 89, 63
2, 80892, Note_on_c, 0, 96, 71
2, 80896, Note_on_c, 0, 60, 52
2, 80936, Note_on_c, 0, 96, 0
2, 80936, Note_on_c, 0, 65, 0
2, 80936, Note_on_c, 0, 89, 0
2, 80940, Note_on_c, 0, 101, 0
2, 80956, Note_on_c, 0, 60, 0
2, 80956, Note_on_c, 0, 58, 0
2, 80972, Note_on_c, 0, 54, 0
2, 80988, Control_c, 0, 64, 0
2, 81020, Note_on_c, 0, 54, 47
2, 81020, Note_on_c, 0, 98, 55
2, 81028, Note_on_c, 0, 65, 38
2, 81032, Note_on_c, 0, 58, 33
2, 81032, Note_on_c, 0, 60, 33
2, 81044, Note_on_c, 0, 93, 34
2, 81056, Note_on_c, 0, 86, 15
2, 81080, Control_c, 0, 64, 127
2, 81116, Note_on_c, 0, 86, 0
2, 81144, Note_on_c, 0, 93, 0
2, 81164, Note_on_c, 0, 98, 0
2, 81196, Note_on_c, 0, 65, 0
2, 81200, Note_on_c, 0, 60, 0
2, 81264, Note_on_c, 0, 58, 0
2, 81304, Note_on_c, 0, 54, 0
2, 81324, Control_c, 0, 64, 0
2, 81392, Note_on_c, 0, 101, 71
2, 81396, Note_on_c, 0, 64, 64
2, 81396, Note_on_c, 0, 59, 58
2, 81400, Note_on_c, 0, 89, 58
2, 81400, Note_on_c, 0, 96, 62
2, 81404, Note_on_c, 0, 53, 55
2, 81572, Control_c, 0, 64, 127
2, 81768, Note_on_c, 0, 101, 0
2, 81800, Note_on_c, 0, 96, 0
2, 81804, Note_on_c, 0, 64, 0
2, 81808, Note_on_c, 0, 53, 0
2, 81812, Note_on_c, 0, 89, 0
2, 81812, Note_on_c, 0, 59, 0
2, 82044, Note_on_c, 0, 98, 63
2, 82048, Note_on_c, 0, 59, 62
2, 82048, Note_on_c, 0, 64, 62
2, 82052, Control_c, 0, 64, 0
2, 82052, Note_on_c, 0, 93, 61
2, 82052, Note_on_c, 0, 53, 45
2, 82056, Note_on_c, 0, 86, 37
2, 82140, Note_on_c, 0, 93, 0
2, 82144, Note_on_c, 0, 98, 0
2, 82152, Note_on_c, 0, 64, 0
2, 82160, Note_on_c, 0, 86, 0
2, 82164, Note_on_c, 0, 59, 0
2, 82172, Note_on_c, 0, 53, 0
2, 82428, Note_on_c, 0, 81, 54
2, 82432, Note_on_c, 0, 93, 57
2, 82432, Note_on_c, 0, 88, 57
2, 82436, Note_on_c, 0, 59, 58
2, 82440, Note_on_c, 0, 64, 59
2, 82440, Note_on_c, 0, 53, 49
2, 82500, Control_c, 0, 64, 127
2, 82656, Note_on_c, 0, 81, 0
2, 82668, Note_on_c, 0, 88, 0
2, 82676, Note_on_c, 0, 93, 0
2, 82680, Note_on_c, 0, 59, 0
2, 82688, Note_on_c, 0, 64, 0
2, 82784, Note_on_c, 0, 53, 0
2, 82896, Control_c, 0, 64, 0
2, 82944, Note_on_c, 0, 58, 43
2, 82948, Note_on_c, 0, 96, 71
2, 82948, Note_on_c, 0, 53, 32
2, 82952, Note_on_c, 0, 62, 35
2, 82952, Note_on_c, 0, 57, 42
2, 82956, Note_on_c, 0, 84, 51
2, 82964, Note_on_c, 0, 93, 44
2, 82964, Note_on_c, 0, 89, 40
2, 83044, Note_on_c, 0, 89, 0
2, 83048, Note_on_c, 0, 93, 0
2, 83056, Note_on_c, 0, 62, 0
2, 83056, Note_on_c, 0, 57, 0
2, 83064, Note_on_c, 0, 96, 0
2, 83064, Note_on_c, 0, 58, 0
2, 83064, Note_on_c, 0, 84, 0
2, 83072, Note_on_c, 0, 53, 0
2, 83340, Note_on_c, 0, 81, 44
2, 83340, Note_on_c, 0, 93, 44
2, 83344, Note_on_c, 0, 62, 51
2, 83348, Note_on_c, 0, 58, 39
2, 83348, Note_on_c, 0, 86, 46
2, 83348, Note_on_c, 0, 89, 42
2, 83352, Note_on_c, 0, 53, 35
2, 83360, Note_on_c, 0, 57, 37
2, 83396, Note_on_c, 0, 57, 0
2, 83400, Note_on_c, 0, 53, 0
2, 83424, Note_on_c, 0, 81, 0
2, 83432, Note_on_c, 0, 86, 0
2, 83432, Note_on_c, 0, 62, 0
2, 83436, Note_on_c, 0, 89, 0
2, 83436, Note_on_c, 0, 58, 0
2, 83460, Note_on_c, 0, 93, 0
2, 83468, Control_c, 0, 64, 127
2, 83492, Control_c, 0, 64, 0
2, 83560, Control_c, 0, 64, 127
2, 83624, Control_c, 0, 64, 0
2, 83724, Note_on_c, 0, 96, 83
2, 83728, Note_on_c, 0, 69, 73
2, 83728, Note_on_c, 0, 58, 67
2, 83732, Note_on_c, 0, 84, 76
2, 83732, Note_on_c, 0, 91, 70
2, 83732, Note_on_c, 0, 64, 68
2, 83764, Control_c, 0, 64, 127
2, 83840, Note_on_c, 0, 96, 0
2, 83852, Note_on_c, 0, 91, 0
2, 83880, Note_on_c, 0, 84, 0
2, 83892, Note_on_c, 0, 64, 0
2, 83912, Note_on_c, 0, 58, 0
2, 83916, Note_on_c, 0, 69, 0
2, 84064, Control_c, 0, 64, 0
2, 84096, Note_on_c, 0, 69, 55
2, 84096, Note_on_c, 0, 58, 53
2, 84100, Note_on_c, 0, 64, 48
2, 84100, Note_on_c, 0, 88, 53
2, 84104, Note_on_c, 0, 81, 47
2, 84104, Note_on_c, 0, 93, 51
2, 84124, Control_c, 0, 64, 127
2, 84140, Note_on_c, 0, 64, 0
2, 84148, Note_on_c, 0, 69, 0
2, 84164, Note_on_c, 0, 81, 0
2, 84184, Note_on_c, 0, 88, 0
2, 84188, Note_on_c, 0, 58, 0
2, 84192, Note_on_c, 0, 93, 0
2, 84408, Control_c, 0, 64, 0
2, 84460, Note_on_c, 0, 61, 59
2, 84464, Note_on_c, 0, 60, 66
2, 84464, Note_on_c, 0, 65, 78
2, 84464, Note_on_c, 0, 96, 83
2, 84464, Note_on_c, 0, 84, 81
2, 84472, Note_on_c, 0, 93, 72
2, 84472, Note_on_c, 0, 89, 66
2, 84472, Note_on_c, 0, 55, 68
2, 84568, Control_c, 0, 64, 127
2, 84656, Note_on_c, 0, 89, 0
2, 84656, Note_on_c, 0, 93, 0
2, 84660, Note_on_c, 0, 96, 0
2, 84692, Note_on_c, 0, 84, 0
2, 84692, Note_on_c, 0, 60, 0
2, 84696, Note_on_c, 0, 55, 0
2, 84696, Note_on_c, 0, 65, 0
2, 84720, Note_on_c, 0, 61, 0
2, 84808, Control_c, 0, 64, 0
2, 84844, Note_on_c, 0, 60, 44
2, 84848, Note_on_c, 0, 61, 36
2, 84848, Note_on_c, 0, 93, 54
2, 84848, Note_on_c, 0, 65, 54
2, 84860, Note_on_c, 0, 55, 52
2, 84864, Note_on_c, 0, 86, 27
2, 84868, Note_on_c, 0, 89, 35
2, 84876, Control_c, 0, 64, 127
2, 84884, Note_on_c, 0, 81, 24
2, 84912, Note_on_c, 0, 81, 0
2, 84920, Note_on_c, 0, 86, 0
2, 84928, Note_on_c, 0, 89, 0
2, 84940, Note_on_c, 0, 93, 0
2, 84968, Note_on_c, 0, 65, 0
2, 84968, Note_on_c, 0, 60, 0
2, 84984, Note_on_c, 0, 61, 0
2, 84992, Note_on_c, 0, 55, 0
2, 85092, Control_c, 0, 64, 0
2, 85124, Note_on_c, 0, 54, 62
2, 85124, Note_on_c, 0, 60, 65
2, 85128, Note_on_c, 0, 98, 51
2, 85132, Note_on_c, 0, 64, 66
2, 85132, Note_on_c, 0, 96, 50
2, 85136, Note_on_c, 0, 84, 37
2, 85148, Note_on_c, 0, 89, 31
2, 85152, Note_on_c, 0, 98, 0
2, 85156, Note_on_c, 0, 93, 33
2, 85228, Control_c, 0, 64, 127
2, 85492, Note_on_c, 0, 96, 0
2, 85496, Note_on_c, 0, 84, 0
2, 85504, Note_on_c, 0, 93, 0
2, 85520, Note_on_c, 0, 89, 0
2, 85536, Note_on_c, 0, 60, 0
2, 85540, Note_on_c, 0, 64, 0
2, 85544, Note_on_c, 0, 54, 0
2, 85588, Control_c, 0, 64, 0
2, 85624, Note_on_c, 0, 64, 36
2, 85624, Note_on_c, 0, 88, 41
2, 85628, Note_on_c, 0, 54, 39
2, 85632, Note_on_c, 0, 81, 37
2, 85636, Note_on_c, 0, 60, 35
2, 85636, Note_on_c, 0, 93, 31
2, 85684, Note_on_c, 0, 81, 0
2, 85704, Note_on_c, 0, 88, 0
2, 85720, Note_on_c, 0, 93, 0
2, 85728, Note_on_c, 0, 60, 0
2, 85752, Note_on_c, 0, 64, 0
2, 85796, Note_on_c, 0, 54, 0
2, 86016, Note_on_c, 0, 84, 45
2, 86020, Note_on_c, 0, 91, 39
2, 86020, Note_on_c, 0, 64, 55
2, 86024, Note_on_c, 0, 96, 36
2, 86024, Note_on_c, 0, 59, 45
2, 86056, Note_on_c, 0, 96, 0
2, 86072, Note_on_c, 0, 91, 0
2, 86084, Note_on_c, 0, 84, 0
2, 86088, Note_on_c, 0, 64, 0
2, 86096, Note_on_c, 0, 59, 0
2, 86376, Control_c, 0, 64, 127
2, 86644, Note_on_c, 0, 76, 76
2, 86648, Note_on_c, 0, 65, 74
2, 86648, Note_on_c, 0, 69, 74
2, 86652, Note_on_c, 0, 62, 74
2, 86652, Note_on_c, 0, 71, 61
2, 86652, Note_on_c, 0, 64, 78
2, 86656, Control_c, 0, 64, 0
2, 86692, Note_on_c, 0, 62, 0
2, 86836, Note_on_c, 0, 65, 0
2, 86840, Note_on_c, 0, 76, 0
2, 86840, Note_on_c, 0, 69, 0
2, 86852, Note_on_c, 0, 71, 0
2, 86860, Note_on_c, 0, 64, 0
2, 86864, Control_c, 0, 64, 127
2, 86900, Note_on_c, 0, 76, 63
2, 86904, Note_on_c, 0, 64, 70
2, 86904, Note_on_c, 0, 71, 57
2, 86904, Note_on_c, 0, 69, 60
2, 86908, Note_on_c, 0, 65, 48
2, 87068, Note_on_c, 0, 69, 0
2, 87080, Note_on_c, 0, 65, 0
2, 87088, Note_on_c, 0, 71, 0
2, 87124, Note_on_c, 0, 76, 0
2, 87132, Control_c, 0, 64, 0
2, 87148, Note_on_c, 0, 64, 0
2, 87172, Note_on_c, 0, 74, 49
2, 87176, Note_on_c, 0, 62, 51
2, 87176, Note_on_c, 0, 65, 52
2, 87184, Note_on_c, 0, 69, 46
2, 87184, Note_on_c, 0, 71, 40
2, 87260, Control_c, 0, 64, 127
2, 87292, Note_on_c, 0, 62, 0
2, 87316, Note_on_c, 0, 74, 0
2, 87320, Note_on_c, 0, 71, 0
2, 87328, Note_on_c, 0, 65, 0
2, 87328, Note_on_c, 0, 69, 0
2, 87484, Control_c, 0, 64, 0
2, 87552, Note_on_c, 0, 59, 32
2, 87556, Note_on_c, 0, 60, 58
2, 87564, Note_on_c, 0, 62, 49
2, 87564, Note_on_c, 0, 65, 49
2, 87564, Note_on_c, 0, 72, 47
2, 87568, Note_on_c, 0, 69, 44
2, 87584, Note_on_c, 0, 59, 0
2, 87612, Note_on_c, 0, 62, 0
2, 87616, Note_on_c, 0, 65, 0
2, 87624, Note_on_c, 0, 60, 0
2, 87636, Note_on_c, 0, 69, 0
2, 87644, Note_on_c, 0, 72, 0
2, 87920, Control_c, 0, 64, 127
2, 88280, Note_on_c, 0, 86, 43
2, 88284, Control_c, 0, 64, 0
2, 88288, Note_on_c, 0, 74, 48
2, 88292, Note_on_c, 0, 54, 49
2, 88292, Note_on_c, 0, 64, 49
2, 88296, Note_on_c, 0, 60, 38
2, 88296, Note_on_c, 0, 81, 35
2, 88296, Note_on_c, 0, 78, 36
2, 88644, Control_c, 0, 64, 127
2, 88728, Note_on_c, 0, 86, 0
2, 88744, Note_on_c, 0, 74, 0
2, 88748, Note_on_c, 0, 81, 0
2, 88752, Note_on_c, 0, 60, 0
2, 88760, Note_on_c, 0, 64, 0
2, 88760, Note_on_c, 0, 78, 0
2, 88804, Note_on_c, 0, 54, 0
2, 89020, Control_c, 0, 64, 0
2, 89040, Note_on_c, 0, 82, 55
2, 89048, Note_on_c, 0, 70, 48
2, 89056, Note_on_c, 0, 62, 36
2, 89056, Note_on_c, 0, 77, 53
2, 89056, Note_on_c, 0, 55, 43
2, 89060, Note_on_c, 0, 58, 37
2, 89064, Note_on_c, 0, 57, 38
2, 89208, Control_c, 0, 64, 127
2, 89424, Note_on_c, 0, 62, 0
2, 89428, Note_on_c, 0, 70, 0
2, 89428, Note_on_c, 0, 57, 0
2, 89432, Note_on_c, 0, 77, 0
2, 89456, Note_on_c, 0, 58, 0
2, 89468, Note_on_c, 0, 55, 0
2, 89480, Note_on_c, 0, 82, 0
2, 89800, Control_c, 0, 64, 0
2, 89824, Note_on_c, 0, 62, 51
2, 89824, Note_on_c, 0, 58, 38
2, 89828, Note_on_c, 0, 79, 60
2, 89828, Note_on_c, 0, 84, 69
2, 89832, Note_on_c, 0, 72, 49
2, 89836, Note_on_c, 0, 52, 42
2, 89864, Note_on_c, 0, 52, 0
2, 89868, Note_on_c, 0, 72, 0
2, 89876, Note_on_c, 0, 62, 0
2, 89876, Note_on_c, 0, 58, 0
2, 89880, Note_on_c, 0, 79, 0
2, 89884, Note_on_c, 0, 84, 0
2, 90200, Control_c, 0, 64, 127
2, 90204, Note_on_c, 0, 82, 71
2, 90204, Note_on_c, 0, 70, 71
2, 90208, Note_on_c, 0, 58, 52
2, 90220, Note_on_c, 0, 62, 57
2, 90224, Note_on_c, 0, 52, 50
2, 90336, Note_on_c, 0, 52, 0
2, 90364, Note_on_c, 0, 58, 0
2, 90412, Note_on_c, 0, 70, 0
2, 90416, Note_on_c, 0, 82, 0
2, 90428, Note_on_c, 0, 62, 0
2, 90576, Control_c, 0, 64, 0
2, 90592, Note_on_c, 0, 65, 53
2, 90600, Note_on_c, 0, 77, 53
2, 90604, Note_on_c, 0, 69, 53
2, 90604, Note_on_c, 0, 81, 52
2, 90608, Note_on_c, 0, 60, 43
2, 90608, Note_on_c, 0, 61, 38
2, 90616, Note_on_c, 0, 55, 43
2, 90740, Control_c, 0, 64, 127
2, 90952, Note_on_c, 0, 69, 0
2, 91000, Note_on_c, 0, 77, 0
2, 91024, Note_on_c, 0, 81, 0
2, 91096, Note_on_c, 0, 65, 0
2, 91124, Note_on_c, 0, 60, 0
2, 91152, Note_on_c, 0, 55, 0
2, 91216, Note_on_c, 0, 61, 0
2, 91356, Control_c, 0, 64, 0
2, 91380, Note_on_c, 0, 84, 74
2, 91384, Note_on_c, 0, 72, 54
2, 91388, Note_on_c, 0, 81, 54
2, 91388, Note_on_c, 0, 64, 58
2, 91388, Note_on_c, 0, 60, 51
2, 91392, Note_on_c, 0, 54, 46
2, 91396, Note_on_c, 0, 77, 48
2, 91528, Control_c, 0, 64, 127
2, 91764, Note_on_c, 0, 84, 0
2, 91772, Note_on_c, 0, 60, 0
2, 91776, Note_on_c, 0, 64, 0
2, 91800, Note_on_c, 0, 81, 0
2, 91808, Note_on_c, 0, 72, 0
2, 91808, Note_on_c, 0, 77, 0
2, 91808, Note_on_c, 0, 54, 0
2, 92120, Control_c, 0, 64, 0
2, 92144, Note_on_c, 0, 65, 53
2, 92144, Note_on_c, 0, 79, 56
2, 92148, Note_on_c, 0, 74, 65
2, 92148, Note_on_c, 0, 62, 50
2, 92152, Note_on_c, 0, 67, 49
2, 92156, Note_on_c, 0, 60, 43
2, 92192, Note_on_c, 0, 60, 0
2, 92196, Note_on_c, 0, 62, 0
2, 92200, Note_on_c, 0, 65, 0
2, 92200, Note_on_c, 0, 67, 0
2, 92220, Note_on_c, 0, 74, 0
2, 92248, Note_on_c, 0, 79, 0
2, 92536, Control_c, 0, 64, 127
2, 92772, Control_c, 0, 64, 0
2, 92788, Note_on_c, 0, 56, 62
2, 92788, Note_on_c, 0, 86, 74
2, 92792, Note_on_c, 0, 74, 81
2, 92792, Note_on_c, 0, 83, 73
2, 92792, Note_on_c, 0, 80, 60
2, 92792, Note_on_c, 0, 59, 69
2, 92792, Note_on_c, 0, 62, 73
2, 92800, Note_on_c, 0, 53, 53
2, 92820, Note_on_c, 0, 59, 0
2, 92820, Note_on_c, 0, 74, 0
2, 92820, Note_on_c, 0, 83, 0
2, 92824, Note_on_c, 0, 62, 0
2, 92828, Note_on_c, 0, 80, 0
2, 92828, Note_on_c, 0, 53, 0
2, 92832, Note_on_c, 0, 86, 0
2, 92840, Note_on_c, 0, 56, 0
2, 92940, Control_c, 0, 64, 127
2, 93008, Note_on_c, 0, 83, 74
2, 93020, Note_on_c, 0, 56, 51
2, 93020, Note_on_c, 0, 71, 58
2, 93020, Note_on_c, 0, 62, 71
2, 93024, Note_on_c, 0, 59, 58
2, 93028, Note_on_c, 0, 53, 53
2, 93088, Note_on_c, 0, 83, 0
2, 93104, Note_on_c, 0, 71, 0
2, 93124, Note_on_c, 0, 62, 0
2, 93140, Note_on_c, 0, 59, 0
2, 93144, Note_on_c, 0, 53, 0
2, 93152, Note_on_c, 0, 56, 0
2, 93252, Control_c, 0, 64, 0
2, 93276, Note_on_c, 0, 80, 52
2, 93288, Note_on_c, 0, 68, 37
2, 93288, Note_on_c, 0, 75, 40
2, 93292, Note_on_c, 0, 62, 41
2, 93292, Note_on_c, 0, 56, 28
2, 93296, Note_on_c, 0, 59, 42
2, 93316, Control_c, 0, 64, 127
2, 93316, Note_on_c, 0, 53, 19
2, 93320, Note_on_c, 0, 62, 0
2, 93324, Note_on_c, 0, 59, 0
2, 93352, Note_on_c, 0, 56, 0
2, 93356, Note_on_c, 0, 53, 0
2, 93376, Note_on_c, 0, 68, 0
2, 93384, Note_on_c, 0, 75, 0
2, 93408, Note_on_c, 0, 80, 0
2, 93536, Note_on_c, 0, 81, 71
2, 93536, Note_on_c, 0, 77, 68
2, 93540, Note_on_c, 0, 69, 68
2, 93548, Control_c, 0, 64, 0
2, 93552, Note_on_c, 0, 57, 57
2, 93572, Note_on_c, 0, 79, 31
2, 93632, Note_on_c, 0, 81, 0
2, 93636, Note_on_c, 0, 77, 0
2, 93644, Note_on_c, 0, 79, 0
2, 93652, Control_c, 0, 64, 127
2, 93656, Note_on_c, 0, 69, 0
2, 93920, Note_on_c, 0, 65, 72
2, 93924, Note_on_c, 0, 72, 69
2, 93924, Note_on_c, 0, 69, 62
2, 93928, Note_on_c, 0, 60, 66
2, 93932, Note_on_c, 0, 48, 65
2, 93936, Control_c, 0, 64, 0
2, 94052, Control_c, 0, 64, 127
2, 94324, Note_on_c, 0, 60, 0
2, 94344, Note_on_c, 0, 65, 0
2, 94356, Note_on_c, 0, 69, 0
2, 94360, Note_on_c, 0, 57, 0
2, 94404, Note_on_c, 0, 72, 0
2, 94420, Control_c, 0, 64, 0
2, 94436, Note_on_c, 0, 60, 48
2, 94436, Note_on_c, 0, 57, 34
2, 94436, Note_on_c, 0, 69, 45
2, 94444, Note_on_c, 0, 65, 36
2, 94484, Note_on_c, 0, 65, 0
2, 94504, Note_on_c, 0, 60, 0
2, 94508, Note_on_c, 0, 57, 0
2, 94524, Note_on_c, 0, 69, 0
2, 94812, Note_on_c, 0, 65, 57
2, 94816, Note_on_c, 0, 60, 49
2, 94832, Control_c, 0, 64, 127
2, 94832, Note_on_c, 0, 57, 37
2, 94888, Note_on_c, 0, 48, 0
2, 94900, Note_on_c, 0, 60, 0
2, 94928, Note_on_c, 0, 57, 0
2, 94944, Note_on_c, 0, 65, 0
2, 95176, Control_c, 0, 64, 0
2, 95196, Note_on_c, 0, 65, 80
2, 95200, Note_on_c, 0, 72, 74
2, 95200, Note_on_c, 0, 62, 56
2, 95200, Note_on_c, 0, 69, 73
2, 95204, Note_on_c, 0, 58, 46
2, 95216, Note_on_c, 0, 60, 44
2, 95336, Control_c, 0, 64, 127
2, 95616, Note_on_c, 0, 60, 0
2, 95660, Note_on_c, 0, 62, 0
2, 95664, Note_on_c, 0, 65, 0
2, 95668, Note_on_c, 0, 58, 0
2, 95676, Note_on_c, 0, 69, 0
2, 95740, Note_on_c, 0, 72, 0
2, 95864, Note_on_c, 0, 68, 71
2, 95864, Note_on_c, 0, 72, 69
2, 95868, Note_on_c, 0, 64, 77
2, 95876, Note_on_c, 0, 58, 49
2, 95880, Note_on_c, 0, 61, 52
2, 95880, Control_c, 0, 64, 0
2, 96064, Control_c, 0, 64, 127
2, 96272, Note_on_c, 0, 64, 0
2, 96336, Note_on_c, 0, 61, 0
2, 96364, Note_on_c, 0, 58, 0
2, 96380, Note_on_c, 0, 72, 0
2, 96460, Note_on_c, 0, 68, 0
2, 96624, Control_c, 0, 64, 0
2, 96632, Note_on_c, 0, 72, 74
2, 96636, Note_on_c, 0, 67, 81
2, 96636, Note_on_c, 0, 57, 68
2, 96640, Note_on_c, 0, 62, 77
2, 96768, Control_c, 0, 64, 127
2, 96784, Control_c, 0, 64, 0
2, 96792, Note_on_c, 0, 57, 0
2, 96804, Note_on_c, 0, 72, 0
2, 96804, Note_on_c, 0, 67, 0
2, 96812, Note_on_c, 0, 62, 0
2, 97032, Note_on_c, 0, 57, 64
2, 97040, Note_on_c, 0, 65, 52
2, 97040, Note_on_c, 0, 62, 57
2, 97044, Note_on_c, 0, 48, 54
2, 97048, Note_on_c, 0, 47, 46
2, 97048, Note_on_c, 0, 60, 46
2, 97056, Note_on_c, 0, 59, 54
2, 97072, Note_on_c, 0, 47, 0
2, 97076, Note_on_c, 0, 59, 0
2, 97440, Note_on_c, 0, 62, 0
2, 97440, Note_on_c, 0, 57, 0
2, 97448, Note_on_c, 0, 60, 0
2, 97456, Note_on_c, 0, 65, 0
2, 97460, Note_on_c, 0, 48, 0
2, 97540, Note_on_c, 0, 57, 50
2, 97544, Note_on_c, 0, 48, 48
2, 97544, Note_on_c, 0, 65, 44
2, 97548, Note_on_c, 0, 60, 55
2, 97548, Note_on_c, 0, 62, 52
2, 97760, Control_c, 0, 64, 127
2, 97844, Note_on_c, 0, 57, 0
2, 97916, Note_on_c, 0, 57, 55
2, 98048, Note_on_c, 0, 57, 0
2, 98048, Note_on_c, 0, 62, 0
2, 98088, Note_on_c, 0, 65, 0
2, 98096, Note_on_c, 0, 60, 0
2, 98160, Note_on_c, 0, 48, 0
2, 98208, Note_on_c, 0, 42, 30
2, 98264, Note_on_c, 0, 44, 35
2, 98276, Control_c, 0, 64, 0
2, 98280, Note_on_c, 0, 42, 0
2, 98296, Note_on_c, 0, 45, 68
2, 98300, Note_on_c, 0, 55, 81
2, 98300, Note_on_c, 0, 64, 74
2, 98300, Note_on_c, 0, 60, 71
2, 98312, Note_on_c, 0, 44, 0
2, 98648, Control_c, 0, 64, 127
2, 98816, Note_on_c, 0, 64, 0
2, 98896, Note_on_c, 0, 60, 0
2, 98916, Note_on_c, 0, 55, 0
2, 98956, Note_on_c, 0, 42, 33
2, 99020, Note_on_c, 0, 45, 0
2, 99044, Control_c, 0, 64, 0
2, 99056, Note_on_c, 0, 63, 50
2, 99056, Note_on_c, 0, 44, 43
2, 99060, Note_on_c, 0, 54, 55
2, 99060, Note_on_c, 0, 59, 57
2, 99068, Note_on_c, 0, 42, 0
2, 99260, Control_c, 0, 64, 127
2, 99668, Note_on_c, 0, 59, 0
2, 99684, Note_on_c, 0, 42, 33
2, 99716, Note_on_c, 0, 54, 0
2, 99736, Note_on_c, 0, 63, 0
2, 99760, Note_on_c, 0, 44, 0
2, 99768, Note_on_c, 0, 42, 0
2, 99780, Control_c, 0, 64, 0
2, 99784, Note_on_c, 0, 43, 36
2, 99788, Note_on_c, 0, 62, 44
2, 99792, Note_on_c, 0, 53, 36
2, 99808, Note_on_c, 0, 57, 26
2, 99824, Note_on_c, 0, 53, 0
2, 99836, Note_on_c, 0, 57, 0
2, 99856, Note_on_c, 0, 62, 0
2, 100044, Note_on_c, 0, 31, 70
2, 100080, Note_on_c, 0, 43, 0
2, 100092, Note_on_c, 0, 31, 0
2, 100160, Control_c, 0, 64, 127
2, 100452, Note_on_c, 0, 69, 74
2, 100452, Note_on_c, 0, 64, 70
2, 100456, Note_on_c, 0, 74, 67
2, 100468, Note_on_c, 0, 59, 48
2, 100472, Note_on_c, 0, 69, 0
2, 100476, Note_on_c, 0, 64, 0
2, 100484, Control_c, 0, 64, 0
2, 100492, Note_on_c, 0, 74, 0
2, 100492, Note_on_c, 0, 59, 0
2, 100700, Note_on_c, 0, 81, 71
2, 100708, Note_on_c, 0, 74, 59
2, 100708, Note_on_c, 0, 64, 64
2, 100708, Note_on_c, 0, 69, 58
2, 100712, Note_on_c, 0, 59, 60
2, 100720, Note_on_c, 0, 53, 36
2, 100720, Control_c, 0, 64, 127
2, 100860, Note_on_c, 0, 53, 0
2, 100872, Note_on_c, 0, 64, 0
2, 100884, Note_on_c, 0, 69, 0
2, 100884, Note_on_c, 0, 74, 0
2, 100892, Note_on_c, 0, 59, 0
2, 100924, Note_on_c, 0, 81, 0
2, 100944, Control_c, 0, 64, 0
2, 100968, Control_c, 0, 64, 127
2, 100984, Note_on_c, 0, 64, 53
2, 100988, Note_on_c, 0, 59, 45
2, 100996, Note_on_c, 0, 53, 33
2, 101072, Note_on_c, 0, 64, 0
2, 101076, Note_on_c, 0, 59, 0
2, 101168, Note_on_c, 0, 53, 0
2, 101224, Note_on_c, 0, 77, 56
2, 101228, Note_on_c, 0, 65, 47
2, 101228, Note_on_c, 0, 74, 56
2, 101232, Note_on_c, 0, 62, 58
2, 101232, Note_on_c, 0, 58, 47
2, 101236, Note_on_c, 0, 70, 47
2, 101236, Note_on_c, 0, 53, 29
2, 101240, Note_on_c, 0, 57, 42
2, 101260, Control_c, 0, 64, 0
2, 101408, Control_c, 0, 64, 127
2, 101496, Note_on_c, 0, 65, 0
2, 101532, Note_on_c, 0, 74, 0
2, 101536, Note_on_c, 0, 70, 0
2, 101596, Note_on_c, 0, 77, 0
2, 101604, Note_on_c, 0, 62, 0
2, 101640, Note_on_c, 0, 58, 0
2, 101640, Note_on_c, 0, 53, 0
2, 101648, Note_on_c, 0, 57, 0
2, 102084, Control_c, 0, 64, 0
2, 102144, Note_on_c, 0, 69, 40
2, 102148, Note_on_c, 0, 96, 56
2, 102148, Note_on_c, 0, 58, 36
2, 102148, Note_on_c, 0, 64, 41
2, 102148, Note_on_c, 0, 91, 41
2, 102152, Note_on_c, 0, 84, 40
2, 102156, Note_on_c, 0, 62, 38
2, 102212, Note_on_c, 0, 84, 0
2, 102212, Note_on_c, 0, 69, 0
2, 102224, Note_on_c, 0, 91, 0
2, 102228, Note_on_c, 0, 64, 0
2, 102228, Note_on_c, 0, 62, 0
2, 102232, Note_on_c, 0, 96, 0
2, 102244, Note_on_c, 0, 58, 0
2, 102548, Control_c, 0, 64, 127
2, 102848, Control_c, 0, 64, 0
2, 102888, Note_on_c, 0, 96, 60
2, 102892, Note_on_c, 0, 84, 46
2, 102896, Note_on_c, 0, 57, 36
2, 102900, Note_on_c, 0, 91, 37
2, 102900, Note_on_c, 0, 62, 36
2, 102904, Note_on_c, 0, 65, 35
2, 103044, Note_on_c, 0, 84, 0
2, 103048, Note_on_c, 0, 91, 0
2, 103052, Note_on_c, 0, 96, 0
2, 103068, Note_on_c, 0, 62, 0
2, 103068, Note_on_c, 0, 65, 0
2, 103080, Note_on_c, 0, 57, 0
2, 103292, Control_c, 0, 64, 127
2, 103604, Control_c, 0, 64, 0
2, 103656, Note_on_c, 0, 98, 72
2, 103660, Note_on_c, 0, 62, 58
2, 103664, Note_on_c, 0, 86, 65
2, 103664, Note_on_c, 0, 56, 64
2, 103664, Note_on_c, 0, 67, 68
2, 103672, Note_on_c, 0, 93, 60
2, 103680, Control_c, 0, 64, 127
2, 103752, Note_on_c, 0, 86, 0
2, 103768, Note_on_c, 0, 93, 0
2, 103792, Note_on_c, 0, 98, 0
2, 103804, Note_on_c, 0, 67, 0
2, 103812, Note_on_c, 0, 56, 0
2, 103820, Note_on_c, 0, 62, 0
2, 103916, Note_on_c, 0, 101, 73
2, 103916, Note_on_c, 0, 89, 68
2, 103920, Note_on_c, 0, 56, 62
2, 103920, Note_on_c, 0, 96, 72
2, 103920, Note_on_c, 0, 67, 63
2, 103924, Note_on_c, 0, 62, 58
2, 103952, Note_on_c, 0, 67, 0
2, 103956, Note_on_c, 0, 96, 0
2, 103968, Note_on_c, 0, 101, 0
2, 103968, Note_on_c, 0, 62, 0
2, 103976, Note_on_c, 0, 89, 0
2, 103976, Note_on_c, 0, 56, 0
2, 104004, Control_c, 0, 64, 0
2, 104032, Note_on_c, 0, 56, 37
2, 104052, Note_on_c, 0, 67, 45
2, 104056, Note_on_c, 0, 62, 54
2, 104064, Note_on_c, 0, 98, 48
2, 104080, Control_c, 0, 64, 127
2, 104084, Note_on_c, 0, 93, 28
2, 104096, Note_on_c, 0, 86, 15
2, 104116, Note_on_c, 0, 93, 0
2, 104120, Note_on_c, 0, 67, 0
2, 104128, Note_on_c, 0, 86, 0
2, 104132, Note_on_c, 0, 98, 0
2, 104148, Note_on_c, 0, 62, 0
2, 104164, Note_on_c, 0, 56, 0
2, 104308, Note_on_c, 0, 57, 55
2, 104312, Note_on_c, 0, 65, 53
2, 104316, Note_on_c, 0, 62, 53
2, 104316, Note_on_c, 0, 96, 61
2, 104320, Note_on_c, 0, 84, 53
2, 104320, Note_on_c, 0, 91, 55
2, 104328, Control_c, 0, 64, 0
2, 104416, Control_c, 0, 64, 127
2, 104444, Note_on_c, 0, 96, 0
2, 104468, Note_on_c, 0, 91, 0
2, 104484, Note_on_c, 0, 84, 0
2, 104496, Note_on_c, 0, 62, 0
2, 104512, Note_on_c, 0, 65, 0
2, 104512, Note_on_c, 0, 57, 0
2, 104700, Note_on_c, 0, 77, 56
2, 104700, Note_on_c, 0, 89, 58
2, 104708, Note_on_c, 0, 84, 60
2, 104712, Note_on_c, 0, 57, 58
2, 104716, Note_on_c, 0, 65, 58
2, 104720, Note_on_c, 0, 62, 49
2, 104728, Control_c, 0, 64, 0
2, 104824, Control_c, 0, 64, 127
2, 104944, Note_on_c, 0, 62, 0
2, 104948, Note_on_c, 0, 65, 0
2, 104984, Note_on_c, 0, 77, 0
2, 104988, Note_on_c, 0, 57, 0
2, 104996, Note_on_c, 0, 84, 0
2, 105008, Note_on_c, 0, 89, 0
2, 105184, Control_c, 0, 64, 0
2, 105244, Control_c, 0, 64, 127
2, 105460, Control_c, 0, 64, 0
2, 105464, Note_on_c, 0, 98, 80
2, 105468, Note_on_c, 0, 94, 73
2, 105468, Note_on_c, 0, 89, 80
2, 105472, Note_on_c, 0, 65, 76
2, 105472, Note_on_c, 0, 58, 55
2, 105476, Note_on_c, 0, 54, 53
2, 105480, Note_on_c, 0, 60, 58
2, 105532, Note_on_c, 0, 94, 0
2, 105544, Note_on_c, 0, 89, 0
2, 105548, Note_on_c, 0, 98, 0
2, 105552, Note_on_c, 0, 65, 0
2, 105564, Note_on_c, 0, 60, 0
2, 105568, Note_on_c, 0, 54, 0
2, 105572, Note_on_c, 0, 58, 0
2, 105580, Control_c, 0, 64, 127
2, 105700, Note_on_c, 0, 94, 65
2, 105708, Note_on_c, 0, 54, 60
2, 105708, Note_on_c, 0, 86, 55
2, 105708, Note_on_c, 0, 65, 65
2, 105712, Note_on_c, 0, 60, 55
2, 105712, Note_on_c, 0, 58, 48
2, 105712, Note_on_c, 0, 89, 56
2, 105744, Note_on_c, 0, 89, 0
2, 105764, Note_on_c, 0, 94, 0
2, 105780, Note_on_c, 0, 86, 0
2, 105876, Note_on_c, 0, 65, 0
2, 105884, Note_on_c, 0, 60, 0
2, 105936, Note_on_c, 0, 58, 0
2, 105936, Note_on_c, 0, 54, 0
2, 105952, Control_c, 0, 64, 0
2, 105976, Note_on_c, 0, 64, 60
2, 105984, Note_on_c, 0, 91, 50
2, 105988, Note_on_c, 0, 59, 56
2, 105988, Note_on_c, 0, 53, 47
2, 106000, Note_on_c, 0, 86, 26
2, 106000, Note_on_c, 0, 79, 19
2, 106200, Control_c, 0, 64, 127
2, 106280, Note_on_c, 0, 91, 0
2, 106320, Note_on_c, 0, 86, 0
2, 106348, Note_on_c, 0, 79, 0
2, 106372, Note_on_c, 0, 64, 0
2, 106396, Note_on_c, 0, 59, 0
2, 106460, Note_on_c, 0, 53, 0
2, 106712, Control_c, 0, 64, 0
2, 106960, Note_on_c, 0, 50, 50
2, 106984, Note_on_c, 0, 64, 53
2, 106992, Note_on_c, 0, 53, 40
2, 106996, Note_on_c, 0, 57, 51
2, 106996, Note_on_c, 0, 60, 44
2, 107004, Note_on_c, 0, 50, 0
2, 107008, Note_on_c, 0, 52, 55
2, 107084, Note_on_c, 0, 53, 0
2, 107092, Note_on_c, 0, 57, 0
2, 107096, Note_on_c, 0, 60, 0
2, 107100, Note_on_c, 0, 64, 0
2, 107112, Note_on_c, 0, 52, 0
2, 107128, Note_on_c, 0, 50, 45
2, 107364, Note_on_c, 0, 50, 0
2, 107372, Note_on_c, 0, 64, 54
2, 107376, Note_on_c, 0, 52, 58
2, 107396, Note_on_c, 0, 60, 25
2, 107408, Note_on_c, 0, 53, 13
2, 107416, Note_on_c, 0, 60, 0
2, 107428, Note_on_c, 0, 64, 0
2, 107452, Note_on_c, 0, 53, 0
2, 107472, Note_on_c, 0, 52, 0
2, 107492, Note_on_c, 0, 51, 27
2, 107532, Note_on_c, 0, 65, 57
2, 107532, Note_on_c, 0, 55, 56
2, 107536, Note_on_c, 0, 51, 0
2, 107536, Note_on_c, 0, 58, 37
2, 107536, Note_on_c, 0, 62, 55
2, 107544, Note_on_c, 0, 53, 45
2, 107788, Note_on_c, 0, 55, 0
2, 107796, Note_on_c, 0, 62, 0
2, 107816, Note_on_c, 0, 58, 0
2, 107884, Note_on_c, 0, 65, 0
2, 107912, Note_on_c, 0, 53, 0
2, 108136, Note_on_c, 0, 58, 52
2, 108140, Note_on_c, 0, 62, 64
2, 108140, Note_on_c, 0, 50, 53
2, 108144, Note_on_c, 0, 55, 62
2, 108204, Note_on_c, 0, 55, 0
2, 108216, Note_on_c, 0, 58, 0
2, 108232, Note_on_c, 0, 62, 0
2, 108264, Note_on_c, 0, 50, 0
2, 108324, Note_on_c, 0, 65, 53
2, 108328, Note_on_c, 0, 55, 47
2, 108328, Note_on_c, 0, 53, 49
2, 108328, Note_on_c, 0, 62, 37
2, 108332, Note_on_c, 0, 58, 31
2, 108384, Note_on_c, 0, 62, 0
2, 108396, Note_on_c, 0, 65, 0
2, 108424, Note_on_c, 0, 55, 0
2, 108436, Note_on_c, 0, 58, 0
2, 108484, Note_on_c, 0, 53, 0
2, 108552, Note_on_c, 0, 61, 48
2, 108556, Note_on_c, 0, 64, 51
2, 108560, Note_on_c, 0, 55, 53
2, 108560, Note_on_c, 0, 58, 49
2, 108580, Note_on_c, 0, 52, 32
2, 108684, Control_c, 0, 64, 127
2, 108812, Note_on_c, 0, 52, 0
2, 108812, Note_on_c, 0, 55, 0
2, 108844, Note_on_c, 0, 58, 0
2, 108860, Note_on_c, 0, 64, 0
2, 108864, Note_on_c, 0, 61, 0
2, 109024, Control_c, 0, 64, 0
2, 109048, Note_on_c, 0, 65, 73
2, 109048, Note_on_c, 0, 69, 75
2, 109048, Note_on_c, 0, 61, 40
2, 109056, Note_on_c, 0, 60, 51
2, 109068, Note_on_c, 0, 55, 35
2, 109096, Note_on_c, 0, 69, 0
2, 109096, Note_on_c, 0, 65, 0
2, 109100, Note_on_c, 0, 55, 0
2, 109104, Note_on_c, 0, 60, 0
2, 109116, Note_on_c, 0, 61, 0
2, 109136, Note_on_c, 0, 69, 44
2, 109144, Note_on_c, 0, 65, 51
2, 109152, Note_on_c, 0, 55, 24
2, 109152, Note_on_c, 0, 61, 27
2, 109156, Note_on_c, 0, 60, 40
2, 109188, Note_on_c, 0, 60, 0
2, 109200, Note_on_c, 0, 69, 0
2, 109200, Note_on_c, 0, 65, 0
2, 109212, Note_on_c, 0, 55, 0
2, 109224, Note_on_c, 0, 61, 0
2, 109408, Note_on_c, 0, 61, 50
2, 109412, Control_c, 0, 64, 127
2, 109416, Note_on_c, 0, 69, 66
2, 109420, Note_on_c, 0, 60, 53
2, 109420, Note_on_c, 0, 65, 62
2, 109428, Note_on_c, 0, 55, 50
2, 109500, Note_on_c, 0, 65, 0
2, 109520, Note_on_c, 0, 69, 0
2, 109628, Note_on_c, 0, 60, 0
2, 109652, Note_on_c, 0, 55, 0
2, 109688, Note_on_c, 0, 61, 0
2, 109756, Control_c, 0, 64, 0
2, 109788, Note_on_c, 0, 54, 59
2, 109792, Note_on_c, 0, 71, 65
2, 109796, Note_on_c, 0, 60, 62
2, 109800, Note_on_c, 0, 68, 48
2, 109804, Note_on_c, 0, 64, 55
2, 109848, Note_on_c, 0, 64, 0
2, 109848, Note_on_c, 0, 68, 0
2, 109856, Note_on_c, 0, 71, 0
2, 109868, Note_on_c, 0, 60, 0
2, 109868, Note_on_c, 0, 54, 0
2, 109912, Note_on_c, 0, 71, 38
2, 109916, Note_on_c, 0, 64, 48
2, 109920, Note_on_c, 0, 68, 40
2, 109920, Note_on_c, 0, 54, 33
2, 109920, Note_on_c, 0, 60, 27
2, 109984, Note_on_c, 0, 54, 0
2, 109988, Note_on_c, 0, 64, 0
2, 109992, Note_on_c, 0, 68, 0
2, 110000, Note_on_c, 0, 60, 0
2, 110008, Note_on_c, 0, 71, 0
2, 110156, Control_c, 0, 64, 127
2, 110172, Note_on_c, 0, 71, 64
2, 110172, Note_on_c, 0, 68, 51
2, 110176, Note_on_c, 0, 64, 55
2, 110180, Note_on_c, 0, 60, 59
2, 110184, Note_on_c, 0, 54, 53
2, 110336, Note_on_c, 0, 64, 0
2, 110344, Note_on_c, 0, 60, 0
2, 110368, Note_on_c, 0, 71, 0
2, 110420, Note_on_c, 0, 68, 0
2, 110448, Note_on_c, 0, 54, 0
2, 110504, Control_c, 0, 64, 0
2, 110564, Note_on_c, 0, 76, 66
2, 110564, Note_on_c, 0, 64, 66
2, 110568, Note_on_c, 0, 69, 74
2, 110568, Note_on_c, 0, 59, 60
2, 110568, Note_on_c, 0, 73, 50
2, 110572, Note_on_c, 0, 53, 51
2, 110616, Note_on_c, 0, 53, 0
2, 110616, Note_on_c, 0, 69, 0
2, 110620, Note_on_c, 0, 64, 0
2, 110628, Note_on_c, 0, 76, 0
2, 110628, Note_on_c, 0, 59, 0
2, 110628, Note_on_c, 0, 73, 0
2, 110688, Note_on_c, 0, 76, 51
2, 110692, Note_on_c, 0, 53, 27
2, 110696, Note_on_c, 0, 73, 42
2, 110696, Note_on_c, 0, 69, 50
2, 110700, Note_on_c, 0, 59, 50
2, 110704, Note_on_c, 0, 64, 33
2, 110740, Note_on_c, 0, 64, 0
2, 110748, Note_on_c, 0, 69, 0
2, 110752, Note_on_c, 0, 53, 0
2, 110756, Note_on_c, 0, 59, 0
2, 110760, Note_on_c, 0, 73, 0
2, 110760, Note_on_c, 0, 76, 0
2, 110924, Control_c, 0, 64, 127
2, 110928, Note_on_c, 0, 73, 57
2, 110932, Note_on_c, 0, 69, 68
2, 110936, Note_on_c, 0, 76, 63
2, 110952, Note_on_c, 0, 53, 44
2, 110960, Note_on_c, 0, 59, 39
2, 110964, Note_on_c, 0, 64, 36
2, 111076, Note_on_c, 0, 64, 0
2, 111080, Note_on_c, 0, 69, 0
2, 111108, Note_on_c, 0, 73, 0
2, 111112, Note_on_c, 0, 53, 0
2, 111120, Note_on_c, 0, 59, 0
2, 111128, Note_on_c, 0, 76, 0
2, 111196, Note_on_c, 0, 74, 55
2, 111200, Note_on_c, 0, 71, 55
2, 111204, Note_on_c, 0, 65, 28
2, 111208, Note_on_c, 0, 62, 58
2, 111212, Note_on_c, 0, 59, 51
2, 111216, Control_c, 0, 64, 0
2, 111220, Note_on_c, 0, 53, 44
2, 111324, Control_c, 0, 64, 127
2, 111492, Note_on_c, 0, 53, 0
2, 111504, Note_on_c, 0, 59, 0
2, 111544, Note_on_c, 0, 62, 0
2, 111552, Note_on_c, 0, 71, 0
2, 111580, Note_on_c, 0, 65, 0
2, 111648, Note_on_c, 0, 74, 0
2, 111680, Control_c, 0, 64, 0
2, 111720, Note_on_c, 0, 53, 37
2, 111720, Note_on_c, 0, 65, 51
2, 111724, Note_on_c, 0, 59, 35
2, 111728, Note_on_c, 0, 62, 54
2, 111732, Note_on_c, 0, 71, 48
2, 111748, Control_c, 0, 64, 127
2, 111824, Note_on_c, 0, 59, 0
2, 111936, Note_on_c, 0, 53, 0
2, 111952, Note_on_c, 0, 65, 0
2, 111964, Note_on_c, 0, 71, 0
2, 111964, Note_on_c, 0, 62, 0
2, 112072, Control_c, 0, 64, 0
2, 112108, Note_on_c, 0, 62, 40
2, 112112, Note_on_c, 0, 58, 32
2, 112112, Note_on_c, 0, 64, 44
2, 112120, Note_on_c, 0, 67, 44
2, 112124, Note_on_c, 0, 52, 32
2, 112152, Note_on_c, 0, 52, 0
2, 112152, Note_on_c, 0, 62, 0
2, 112156, Note_on_c, 0, 58, 0
2, 112156, Note_on_c, 0, 64, 0
2, 112168, Note_on_c, 0, 67, 0
2, 112504, Note_on_c, 0, 58, 53
2, 112504, Note_on_c, 0, 62, 62
2, 112508, Note_on_c, 0, 72, 52
2, 112512, Note_on_c, 0, 84, 59
2, 112520, Note_on_c, 0, 52, 36
2, 112548, Note_on_c, 0, 52, 0
2, 112552, Note_on_c, 0, 72, 0
2, 112552, Note_on_c, 0, 62, 0
2, 112568, Note_on_c, 0, 58, 0
2, 112576, Note_on_c, 0, 84, 0
2, 112884, Note_on_c, 0, 64, 57
2, 112888, Note_on_c, 0, 54, 45
2, 112892, Note_on_c, 0, 86, 67
2, 112892, Note_on_c, 0, 60, 50
2, 112892, Note_on_c, 0, 74, 66
2, 112896, Note_on_c, 0, 81, 57
2, 112932, Control_c, 0, 64, 127
2, 113268, Note_on_c, 0, 74, 0
2, 113288, Note_on_c, 0, 60, 0
2, 113288, Note_on_c, 0, 64, 0
2, 113296, Note_on_c, 0, 81, 0
2, 113324, Note_on_c, 0, 86, 0
2, 113332, Note_on_c, 0, 54, 0
2, 113624, Control_c, 0, 64, 0
2, 113652, Note_on_c, 0, 62, 50
2, 113652, Note_on_c, 0, 82, 51
2, 113656, Note_on_c, 0, 94, 64
2, 113660, Note_on_c, 0, 58, 36
2, 113664, Note_on_c, 0, 55, 50
2, 113664, Note_on_c, 0, 57, 50
2, 113664, Note_on_c, 0, 87, 52
2, 113720, Note_on_c, 0, 87, 0
2, 113736, Note_on_c, 0, 62, 0
2, 113736, Note_on_c, 0, 57, 0
2, 113744, Note_on_c, 0, 82, 0
2, 113752, Note_on_c, 0, 58, 0
2, 113752, Note_on_c, 0, 94, 0
2, 113752, Note_on_c, 0, 55, 0
2, 114052, Note_on_c, 0, 58, 62
2, 114056, Note_on_c, 0, 62, 73
2, 114056, Note_on_c, 0, 55, 71
2, 114064, Note_on_c, 0, 82, 77
2, 114068, Note_on_c, 0, 94, 78
2, 114144, Control_c, 0, 64, 127
2, 114244, Note_on_c, 0, 82, 0
2, 114260, Note_on_c, 0, 62, 0
2, 114264, Note_on_c, 0, 94, 0
2, 114268, Note_on_c, 0, 55, 0
2, 114280, Note_on_c, 0, 58, 0
2, 114320, Note_on_c, 0, 84, 71
2, 114324, Note_on_c, 0, 96, 69
2, 114328, Note_on_c, 0, 58, 51
2, 114328, Note_on_c, 0, 62, 54
2, 114336, Control_c, 0, 64, 0
2, 114340, Note_on_c, 0, 52, 71
2, 114444, Control_c, 0, 64, 127
2, 114536, Note_on_c, 0, 96, 0
2, 114548, Note_on_c, 0, 52, 0
2, 114564, Note_on_c, 0, 58, 0
2, 114576, Note_on_c, 0, 84, 0
2, 114588, Note_on_c, 0, 62, 0
2, 114756, Control_c, 0, 64, 0
2, 114804, Note_on_c, 0, 60, 47
2, 114808, Note_on_c, 0, 64, 66
2, 114808, Note_on_c, 0, 53, 41
2, 114816, Note_on_c, 0, 57, 60
2, 114820, Note_on_c, 0, 88, 57
2, 114820, Note_on_c, 0, 93, 55
2, 114828, Note_on_c, 0, 81, 31
2, 114860, Note_on_c, 0, 88, 0
2, 114864, Note_on_c, 0, 93, 0
2, 114864, Note_on_c, 0, 64, 0
2, 114864, Note_on_c, 0, 60, 0
2, 114864, Note_on_c, 0, 81, 0
2, 114868, Note_on_c, 0, 53, 0
2, 114876, Note_on_c, 0, 57, 0
2, 115188, Note_on_c, 0, 64, 69
2, 115196, Note_on_c, 0, 93, 78
2, 115196, Note_on_c, 0, 88, 74
2, 115196, Note_on_c, 0, 81, 71
2, 115200, Control_c, 0, 64, 127
2, 115204, Note_on_c, 0, 60, 50
2, 115204, Note_on_c, 0, 53, 48
2, 115204, Note_on_c, 0, 57, 46
2, 115348, Note_on_c, 0, 81, 0
2, 115372, Note_on_c, 0, 93, 0
2, 115384, Note_on_c, 0, 88, 0
2, 115404, Note_on_c, 0, 60, 0
2, 115404, Note_on_c, 0, 64, 0
2, 115404, Note_on_c, 0, 53, 0
2, 115408, Note_on_c, 0, 57, 0
2, 115476, Control_c, 0, 64, 0
2, 115480, Note_on_c, 0, 94, 78
2, 115480, Note_on_c, 0, 82, 70
2, 115480, Note_on_c, 0, 88, 72
2, 115484, Note_on_c, 0, 60, 62
2, 115484, Note_on_c, 0, 64, 74
2, 115488, Note_on_c, 0, 57, 56
2, 115488, Note_on_c, 0, 53, 58
2, 115580, Control_c, 0, 64, 127
2, 115716, Note_on_c, 0, 57, 0
2, 115728, Note_on_c, 0, 60, 0
2, 115732, Note_on_c, 0, 53, 0
2, 115820, Note_on_c, 0, 64, 0
2, 115916, Control_c, 0, 64, 0
2, 115952, Note_on_c, 0, 65, 60
2, 115960, Note_on_c, 0, 62, 42
2, 115960, Note_on_c, 0, 55, 51
2, 115964, Note_on_c, 0, 60, 47
2, 116068, Control_c, 0, 64, 127
2, 116376, Note_on_c, 0, 62, 0
2, 116380, Note_on_c, 0, 65, 0
2, 116384, Note_on_c, 0, 94, 0
2, 116388, Note_on_c, 0, 88, 0
2, 116396, Note_on_c, 0, 60, 0
2, 116404, Note_on_c, 0, 82, 0
2, 116440, Note_on_c, 0, 55, 0
2, 116684, Control_c, 0, 64, 0
2, 116724, Note_on_c, 0, 91, 64
2, 116724, Note_on_c, 0, 86, 61
2, 116728, Note_on_c, 0, 58, 56
2, 116736, Note_on_c, 0, 62, 60
2, 116736, Note_on_c, 0, 79, 37
2, 116740, Note_on_c, 0, 52, 57
2, 116760, Note_on_c, 0, 62, 0
2, 116764, Note_on_c, 0, 79, 0
2, 116764, Note_on_c, 0, 52, 0
2, 116780, Note_on_c, 0, 58, 0
2, 116788, Note_on_c, 0, 86, 0
2, 116792, Note_on_c, 0, 91, 0
2, 117108, Note_on_c, 0, 58, 57
2, 117108, Note_on_c, 0, 86, 66
2, 117112, Note_on_c, 0, 91, 66
2, 117112, Note_on_c, 0, 79, 56
2, 117116, Control_c, 0, 64, 127
2, 117120, Note_on_c, 0, 62, 57
2, 117136, Note_on_c, 0, 52, 30
2, 117172, Note_on_c, 0, 52, 0
2, 117196, Note_on_c, 0, 79, 0
2, 117204, Note_on_c, 0, 58, 0
2, 117224, Note_on_c, 0, 86, 0
2, 117224, Note_on_c, 0, 91, 0
2, 117236, Note_on_c, 0, 62, 0
2, 117420, Control_c, 0, 64, 0
2, 117480, Note_on_c, 0, 61, 57
2, 117484, Note_on_c, 0, 65, 67
2, 117484, Note_on_c, 0, 55, 68
2, 117484, Note_on_c, 0, 93, 80
2, 117488, Note_on_c, 0, 81, 74
2, 117488, Note_on_c, 0, 88, 73
2, 117500, Control_c, 0, 64, 127
2, 117564, Note_on_c, 0, 88, 0
2, 117568, Note_on_c, 0, 93, 0
2, 117584, Note_on_c, 0, 55, 0
2, 117592, Note_on_c, 0, 81, 0
2, 117592, Note_on_c, 0, 65, 0
2, 117612, Note_on_c, 0, 61, 0
2, 117752, Control_c, 0, 64, 0
2, 117760, Note_on_c, 0, 89, 62
2, 117764, Note_on_c, 0, 77, 55
2, 117764, Note_on_c, 0, 84, 67
2, 117772, Note_on_c, 0, 65, 65
2, 117776, Note_on_c, 0, 61, 51
2, 117776, Note_on_c, 0, 55, 68
2, 117848, Control_c, 0, 64, 127
2, 117972, Note_on_c, 0, 65, 0
2, 118000, Note_on_c, 0, 61, 0
2, 118004, Note_on_c, 0, 55, 0
2, 118048, Note_on_c, 0, 89, 0
2, 118088, Note_on_c, 0, 77, 0
2, 118096, Note_on_c, 0, 84, 0
2, 118192, Control_c, 0, 64, 0
2, 118232, Note_on_c, 0, 88, 60
2, 118232, Note_on_c, 0, 83, 66
2, 118232, Note_on_c, 0, 60, 50
2, 118236, Note_on_c, 0, 76, 50
2, 118248, Note_on_c, 0, 57, 32
2, 118252, Note_on_c, 0, 53, 44
2, 118260, Note_on_c, 0, 50, 20
2, 118260, Control_c, 0, 64, 127
2, 118296, Note_on_c, 0, 88, 0
2, 118324, Note_on_c, 0, 83, 0
2, 118340, Note_on_c, 0, 76, 0
2, 118396, Note_on_c, 0, 53, 0
2, 118404, Note_on_c, 0, 50, 0
2, 118404, Note_on_c, 0, 57, 0
2, 118444, Note_on_c, 0, 60, 0
2, 118580, Control_c, 0, 64, 0
2, 118628, Note_on_c, 0, 64, 68
2, 118628, Note_on_c, 0, 79, 76
2, 118628, Note_on_c, 0, 69, 79
2, 118628, Note_on_c, 0, 76, 67
2, 118632, Note_on_c, 0, 72, 70
2, 118668, Control_c, 0, 64, 127
2, 118756, Note_on_c, 0, 76, 0
2, 118756, Note_on_c, 0, 79, 0
2, 118764, Note_on_c, 0, 72, 0
2, 118788, Note_on_c, 0, 69, 0
2, 118892, Note_on_c, 0, 76, 56
2, 118900, Note_on_c, 0, 64, 0
2, 118904, Note_on_c, 0, 72, 48
2, 118912, Note_on_c, 0, 60, 58
2, 118912, Note_on_c, 0, 69, 44
2, 118916, Control_c, 0, 64, 0
2, 118916, Note_on_c, 0, 65, 35
2, 119008, Note_on_c, 0, 69, 0
2, 119008, Note_on_c, 0, 72, 0
2, 119016, Note_on_c, 0, 76, 0
2, 119016, Control_c, 0, 64, 127
2, 119044, Note_on_c, 0, 65, 0
2, 119084, Note_on_c, 0, 60, 0
2, 119128, Note_on_c, 0, 59, 47
2, 119136, Note_on_c, 0, 64, 46
2, 119140, Note_on_c, 0, 72, 38
2, 119144, Note_on_c, 0, 69, 36
2, 119188, Note_on_c, 0, 69, 0
2, 119204, Note_on_c, 0, 72, 0
2, 119220, Note_on_c, 0, 64, 0
2, 119344, Note_on_c, 0, 59, 0
2, 119364, Control_c, 0, 64, 0
2, 119392, Note_on_c, 0, 69, 35
2, 119396, Note_on_c, 0, 65, 40
2, 119396, Note_on_c, 0, 64, 47
2, 119400, Note_on_c, 0, 60, 38
2, 119416, Note_on_c, 0, 53, 35
2, 119424, Note_on_c, 0, 65, 0
2, 119428, Note_on_c, 0, 69, 0
2, 119428, Note_on_c, 0, 64, 0
2, 119440, Note_on_c, 0, 60, 0
2, 119448, Note_on_c, 0, 53, 0
2, 119464, Control_c, 0, 64, 127
2, 119656, Note_on_c, 0, 64, 60
2, 119660, Note_on_c, 0, 59, 54
2, 119668, Control_c, 0, 64, 0
2, 119672, Note_on_c, 0, 43, 50
2, 119708, Note_on_c, 0, 59, 0
2, 119720, Note_on_c, 0, 64, 0
2, 119736, Note_on_c, 0, 43, 0
2, 119900, Note_on_c, 0, 63, 57
2, 119904, Note_on_c, 0, 54, 37
2, 119908, Note_on_c, 0, 58, 51
2, 119912, Note_on_c, 0, 44, 34
2, 119916, Control_c, 0, 64, 127
2, 120052, Note_on_c, 0, 63, 0
2, 120064, Note_on_c, 0, 54, 0
2, 120068, Note_on_c, 0, 58, 0
2, 120144, Control_c, 0, 64, 0
2, 120148, Note_on_c, 0, 44, 0
2, 120164, Note_on_c, 0, 62, 50
2, 120176, Note_on_c, 0, 57, 42
2, 120184, Note_on_c, 0, 53, 36
2, 120184, Note_on_c, 0, 59, 38
2, 120280, Control_c, 0, 64, 127
2, 120436, Note_on_c, 0, 43, 66
2, 120448, Note_on_c, 0, 59, 0
2, 120452, Note_on_c, 0, 57, 0
2, 120496, Note_on_c, 0, 43, 0
2, 120496, Note_on_c, 0, 53, 0
2, 120508, Note_on_c, 0, 62, 0
2, 121344, Control_c, 0, 64, 0
2, 121716, Note_on_c, 0, 67, 63
2, 121720, Note_on_c, 0, 96, 69
2, 121720, Note_on_c, 0, 93, 64
2, 121724, Note_on_c, 0, 84, 67
2, 121724, Note_on_c, 0, 64, 53
2, 121728, Note_on_c, 0, 58, 37
2, 121736, Note_on_c, 0, 62, 49
2, 121800, Note_on_c, 0, 96, 0
2, 121804, Note_on_c, 0, 93, 0
2, 121804, Note_on_c, 0, 67, 0
2, 121804, Note_on_c, 0, 62, 0
2, 121808, Note_on_c, 0, 84, 0
2, 121808, Note_on_c, 0, 64, 0
2, 121828, Note_on_c, 0, 58, 0
2, 122108, Note_on_c, 0, 58, 57
2, 122112, Note_on_c, 0, 67, 68
2, 122112, Note_on_c, 0, 64, 57
2, 122116, Control_c, 0, 64, 127
2, 122116, Note_on_c, 0, 84, 77
2, 122120, Note_on_c, 0, 62, 47
2, 122120, Note_on_c, 0, 93, 62
2, 122120, Note_on_c, 0, 96, 68
2, 122236, Note_on_c, 0, 84, 0
2, 122244, Note_on_c, 0, 62, 0
2, 122252, Note_on_c, 0, 67, 0
2, 122252, Note_on_c, 0, 93, 0
2, 122260, Note_on_c, 0, 58, 0
2, 122260, Note_on_c, 0, 96, 0
2, 122264, Note_on_c, 0, 64, 0
2, 122372, Note_on_c, 0, 58, 51
2, 122376, Note_on_c, 0, 67, 60
2, 122376, Note_on_c, 0, 64, 53
2, 122380, Note_on_c, 0, 98, 76
2, 122380, Note_on_c, 0, 86, 70
2, 122384, Note_on_c, 0, 93, 66
2, 122388, Note_on_c, 0, 62, 45
2, 122416, Note_on_c, 0, 62, 0
2, 122420, Note_on_c, 0, 67, 0
2, 122440, Note_on_c, 0, 98, 0
2, 122444, Note_on_c, 0, 64, 0
2, 122452, Note_on_c, 0, 58, 0
2, 122452, Note_on_c, 0, 93, 0
2, 122456, Note_on_c, 0, 86, 0
2, 122484, Control_c, 0, 64, 0
2, 122512, Note_on_c, 0, 58, 37
2, 122520, Note_on_c, 0, 67, 46
2, 122520, Note_on_c, 0, 64, 38
2, 122524, Note_on_c, 0, 96, 49
2, 122536, Note_on_c, 0, 62, 36
2, 122536, Note_on_c, 0, 84, 37
2, 122548, Note_on_c, 0, 91, 36
2, 122612, Note_on_c, 0, 91, 0
2, 122612, Note_on_c, 0, 84, 0
2, 122624, Note_on_c, 0, 67, 0
2, 122628, Note_on_c, 0, 62, 0
2, 122636, Note_on_c, 0, 58, 0
2, 122648, Note_on_c, 0, 64, 0
2, 122652, Note_on_c, 0, 96, 0
2, 122756, Note_on_c, 0, 98, 79
2, 122764, Note_on_c, 0, 86, 71
2, 122764, Note_on_c, 0, 58, 55
2, 122764, Note_on_c, 0, 64, 60
2, 122764, Note_on_c, 0, 67, 67
2, 122768, Note_on_c, 0, 93, 74
2, 122768, Note_on_c, 0, 62, 55
2, 122820, Note_on_c, 0, 93, 0
2, 122820, Note_on_c, 0, 67, 0
2, 122832, Note_on_c, 0, 98, 0
2, 122836, Note_on_c, 0, 64, 0
2, 122836, Note_on_c, 0, 86, 0
2, 122836, Note_on_c, 0, 62, 0
2, 122852, Note_on_c, 0, 58, 0
2, 122940, Control_c, 0, 64, 127
2, 122972, Note_on_c, 0, 96, 72
2, 122976, Note_on_c, 0, 84, 71
2, 122976, Note_on_c, 0, 58, 55
2, 122980, Note_on_c, 0, 91, 63
2, 122980, Note_on_c, 0, 67, 72
2, 122980, Note_on_c, 0, 64, 57
2, 122988, Note_on_c, 0, 62, 39
2, 123000, Note_on_c, 0, 96, 0
2, 123004, Note_on_c, 0, 91, 0
2, 123012, Note_on_c, 0, 67, 0
2, 123012, Note_on_c, 0, 62, 0
2, 123016, Note_on_c, 0, 64, 0
2, 123028, Note_on_c, 0, 84, 0
2, 123048, Note_on_c, 0, 58, 0
2, 123244, Control_c, 0, 64, 0
2, 123264, Control_c, 0, 64, 127
2, 123292, Note_on_c, 0, 55, 58
2, 123320, Note_on_c, 0, 55, 0
2, 123524, Control_c, 0, 64, 0
2, 123528, Note_on_c, 0, 70, 86
2, 123532, Note_on_c, 0, 74, 88
2, 123532, Note_on_c, 0, 54, 74
2, 123532, Note_on_c, 0, 65, 90
2, 123536, Note_on_c, 0, 60, 72
2, 123592, Note_on_c, 0, 65, 0
2, 123612, Control_c, 0, 64, 127
2, 123624, Note_on_c, 0, 70, 0
2, 123624, Note_on_c, 0, 60, 0
2, 123644, Note_on_c, 0, 74, 0
2, 123656, Note_on_c, 0, 54, 0
2, 123896, Note_on_c, 0, 86, 89
2, 123900, Note_on_c, 0, 82, 83
2, 123904, Note_on_c, 0, 60, 74
2, 123908, Note_on_c, 0, 77, 80
2, 123908, Note_on_c, 0, 54, 77
2, 123908, Note_on_c, 0, 65, 91
2, 123912, Note_on_c, 0, 58, 63
2, 123916, Note_on_c, 0, 79, 55
2, 123936, Note_on_c, 0, 79, 0
2, 123960, Control_c, 0, 64, 0
2, 124004, Control_c, 0, 64, 127
2, 124124, Note_on_c, 0, 86, 0
2, 124160, Note_on_c, 0, 82, 0
2, 124164, Note_on_c, 0, 77, 0
2, 124288, Note_on_c, 0, 60, 0
2, 124308, Note_on_c, 0, 65, 0
2, 124384, Note_on_c, 0, 58, 0
2, 124392, Note_on_c, 0, 54, 0
2, 124416, Control_c, 0, 64, 0
2, 124420, Note_on_c, 0, 71, 45
2, 124420, Note_on_c, 0, 76, 45
2, 124420, Note_on_c, 0, 64, 40
2, 124424, Note_on_c, 0, 81, 47
2, 124428, Note_on_c, 0, 59, 49
2, 124440, Note_on_c, 0, 53, 38
2, 124580, Note_on_c, 0, 53, 0
2, 124584, Note_on_c, 0, 71, 0
2, 124584, Note_on_c, 0, 64, 0
2, 124588, Note_on_c, 0, 76, 0
2, 124588, Note_on_c, 0, 81, 0
2, 124588, Note_on_c, 0, 59, 0
2, 124796, Control_c, 0, 64, 127
2, 124868, Control_c, 0, 64, 0
2, 124956, Control_c, 0, 64, 127
2, 125084, Control_c, 0, 64, 0
2, 125172, Note_on_c, 0, 81, 65
2, 125176, Note_on_c, 0, 71, 56
2, 125180, Note_on_c, 0, 75, 52
2, 125184, Note_on_c, 0, 64, 47
2, 125188, Note_on_c, 0, 53, 34
2, 125188, Note_on_c, 0, 59, 47
2, 125352, Note_on_c, 0, 75, 0
2, 125352, Note_on_c, 0, 76, 34
2, 125376, Note_on_c, 0, 71, 0
2, 125388, Note_on_c, 0, 76, 0
2, 125400, Note_on_c, 0, 53, 0
2, 125404, Note_on_c, 0, 81, 0
2, 125420, Note_on_c, 0, 59, 0
2, 125420, Note_on_c, 0, 64, 0
2, 125568, Control_c, 0, 64, 127
2, 125864, Control_c, 0, 64, 0
2, 125920, Note_on_c, 0, 73, 65
2, 125924, Note_on_c, 0, 65, 74
2, 125924, Note_on_c, 0, 57, 52
2, 125928, Note_on_c, 0, 77, 63
2, 125932, Note_on_c, 0, 62, 54
2, 125932, Note_on_c, 0, 58, 43
2, 126060, Note_on_c, 0, 65, 0
2, 126072, Note_on_c, 0, 73, 0
2, 126076, Note_on_c, 0, 62, 0
2, 126080, Note_on_c, 0, 77, 0
2, 126080, Note_on_c, 0, 74, 37
2, 126096, Note_on_c, 0, 58, 0
2, 126104, Note_on_c, 0, 74, 0
2, 126116, Note_on_c, 0, 57, 0
2, 126320, Control_c, 0, 64, 127
2, 126328, Note_on_c, 0, 55, 70
2, 126328, Note_on_c, 0, 58, 56
2, 126332, Note_on_c, 0, 53, 68
2, 126332, Note_on_c, 0, 62, 57
2, 126372, Control_c, 0, 64, 0
2, 126504, Note_on_c, 0, 55, 0
2, 126520, Note_on_c, 0, 58, 0
2, 126524, Note_on_c, 0, 62, 0
2, 126572, Note_on_c, 0, 53, 0
2, 126648, Note_on_c, 0, 51, 25
2, 126668, Note_on_c, 0, 51, 0
2, 126688, Note_on_c, 0, 52, 44
2, 126704, Note_on_c, 0, 58, 50
2, 126704, Note_on_c, 0, 55, 66
2, 126708, Note_on_c, 0, 62, 53
2, 126708, Note_on_c, 0, 53, 70
2, 126712, Note_on_c, 0, 52, 0
2, 126712, Note_on_c, 0, 65, 61
2, 126980, Note_on_c, 0, 62, 0
2, 126988, Note_on_c, 0, 55, 0
2, 127004, Note_on_c, 0, 58, 0
2, 127028, Note_on_c, 0, 65, 0
2, 127068, Note_on_c, 0, 53, 0
2, 127080, Note_on_c, 0, 52, 48
2, 127084, Note_on_c, 0, 55, 57
2, 127088, Note_on_c, 0, 58, 37
2, 127100, Note_on_c, 0, 64, 48
2, 127272, Note_on_c, 0, 55, 0
2, 127300, Note_on_c, 0, 58, 0
2, 127308, Note_on_c, 0, 64, 0
2, 127336, Note_on_c, 0, 52, 0
2, 127464, Note_on_c, 0, 60, 53
2, 127464, Note_on_c, 0, 55, 36
2, 127472, Note_on_c, 0, 57, 49
2, 127496, Note_on_c, 0, 48, 37
2, 127504, Note_on_c, 0, 47, 22
2, 127532, Note_on_c, 0, 47, 0
2, 127552, Note_on_c, 0, 48, 0
2, 127592, Note_on_c, 0, 55, 0
2, 127608, Note_on_c, 0, 57, 0
2, 127628, Note_on_c, 0, 60, 0
2, 128076, Control_c, 0, 64, 127
2, 128144, Control_c, 0, 64, 0
2, 128260, Control_c, 0, 64, 127
2, 128500, Control_c, 0, 64, 0
2, 128508, Note_on_c, 0, 77, 81
2, 128508, Note_on_c, 0, 56, 64
2, 128512, Note_on_c, 0, 72, 82
2, 128512, Note_on_c, 0, 67, 71
2, 128516, Note_on_c, 0, 62, 60
2, 128616, Control_c, 0, 64, 127
2, 128820, Note_on_c, 0, 67, 0
2, 128828, Note_on_c, 0, 72, 0
2, 128844, Note_on_c, 0, 62, 0
2, 128848, Note_on_c, 0, 77, 0
2, 128868, Note_on_c, 0, 56, 0
2, 128984, Control_c, 0, 64, 0
2, 129016, Note_on_c, 0, 57, 46
2, 129016, Note_on_c, 0, 72, 44
2, 129020, Note_on_c, 0, 62, 47
2, 129024, Note_on_c, 0, 67, 34
2, 129028, Note_on_c, 0, 69, 42
2, 129060, Note_on_c, 0, 67, 0
2, 129064, Note_on_c, 0, 62, 0
2, 129064, Note_on_c, 0, 69, 0
2, 129076, Note_on_c, 0, 57, 0
2, 129088, Note_on_c, 0, 72, 0
2, 129388, Note_on_c, 0, 86, 76
2, 129392, Note_on_c, 0, 82, 61
2, 129396, Note_on_c, 0, 77, 75
2, 129396, Note_on_c, 0, 65, 71
2, 129400, Note_on_c, 0, 58, 53
2, 129400, Note_on_c, 0, 54, 58
2, 129404, Note_on_c, 0, 60, 57
2, 129440, Note_on_c, 0, 82, 0
2, 129440, Note_on_c, 0, 86, 0
2, 129448, Note_on_c, 0, 65, 0
2, 129448, Note_on_c, 0, 77, 0
2, 129464, Note_on_c, 0, 60, 0
2, 129484, Note_on_c, 0, 65, 40
2, 129500, Note_on_c, 0, 77, 29
2, 129500, Note_on_c, 0, 60, 28
2, 129500, Note_on_c, 0, 82, 37
2, 129508, Note_on_c, 0, 86, 26
2, 129536, Note_on_c, 0, 60, 0
2, 129544, Note_on_c, 0, 77, 0
2, 129544, Note_on_c, 0, 82, 0
2, 129552, Note_on_c, 0, 65, 0
2, 129552, Note_on_c, 0, 86, 0
2, 129556, Note_on_c, 0, 54, 0
2, 129560, Note_on_c, 0, 58, 0
2, 129772, Control_c, 0, 64, 127
2, 129992, Control_c, 0, 64, 0
2, 130024, Note_on_c, 0, 77, 74
2, 130024, Note_on_c, 0, 89, 73
2, 130028, Note_on_c, 0, 82, 58
2, 130032, Note_on_c, 0, 54, 65
2, 130032, Note_on_c, 0, 65, 74
2, 130032, Note_on_c, 0, 58, 47
2, 130036, Note_on_c, 0, 86, 49
2, 130040, Note_on_c, 0, 60, 57
2, 130064, Note_on_c, 0, 86, 0
2, 130072, Note_on_c, 0, 82, 0
2, 130072, Note_on_c, 0, 89, 0
2, 130076, Note_on_c, 0, 60, 0
2, 130076, Note_on_c, 0, 77, 0
2, 130076, Note_on_c, 0, 65, 0
2, 130080, Note_on_c, 0, 54, 0
2, 130092, Note_on_c, 0, 58, 0
2, 130108, Note_on_c, 0, 54, 33
2, 130116, Note_on_c, 0, 65, 62
2, 130120, Note_on_c, 0, 89, 47
2, 130124, Note_on_c, 0, 58, 36
2, 130124, Note_on_c, 0, 77, 36
2, 130128, Note_on_c, 0, 82, 42
2, 130132, Note_on_c, 0, 60, 54
2, 130140, Note_on_c, 0, 86, 45
2, 130176, Note_on_c, 0, 86, 0
2, 130176, Note_on_c, 0, 82, 0
2, 130176, Note_on_c, 0, 77, 0
2, 130188, Note_on_c, 0, 89, 0
2, 130204, Note_on_c, 0, 65, 0
2, 130204, Note_on_c, 0, 60, 0
2, 130216, Note_on_c, 0, 54, 0
2, 130220, Note_on_c, 0, 58, 0
2, 130512, Note_on_c, 0, 93, 74
2, 130516, Note_on_c, 0, 64, 62
2, 130516, Note_on_c, 0, 59, 65
2, 130516, Note_on_c, 0, 53, 63
2, 130520, Note_on_c, 0, 81, 55
2, 130520, Note_on_c, 0, 88, 64
2, 130556, Note_on_c, 0, 88, 0
2, 130556, Note_on_c, 0, 81, 0
2, 130576, Note_on_c, 0, 93, 0
2, 130576, Note_on_c, 0, 64, 0
2, 130592, Note_on_c, 0, 59, 0
2, 130620, Note_on_c, 0, 64, 45
2, 130620, Note_on_c, 0, 93, 54
2, 130624, Note_on_c, 0, 59, 30
2, 130624, Note_on_c, 0, 81, 41
2, 130628, Note_on_c, 0, 88, 53
2, 130672, Note_on_c, 0, 81, 0
2, 130680, Note_on_c, 0, 88, 0
2, 130684, Note_on_c, 0, 64, 0
2, 130692, Note_on_c, 0, 53, 0
2, 130692, Note_on_c, 0, 93, 0
2, 130700, Note_on_c, 0, 59, 0
2, 130908, Control_c, 0, 64, 127
2, 131196, Note_on_c, 0, 93, 79
2, 131200, Note_on_c, 0, 81, 71
2, 131200, Note_on_c, 0, 88, 71
2, 131208, Note_on_c, 0, 64, 70
2, 131212, Note_on_c, 0, 59, 63
2, 131212, Note_on_c, 0, 53, 65
2, 131232, Control_c, 0, 64, 0
2, 131348, Control_c, 0, 64, 127
2, 131480, Note_on_c, 0, 93, 0
2, 131492, Note_on_c, 0, 88, 0
2, 131532, Note_on_c, 0, 81, 0
2, 131592, Note_on_c, 0, 64, 0
2, 131592, Note_on_c, 0, 53, 0
2, 131608, Note_on_c, 0, 59, 0
2, 131692, Control_c, 0, 64, 0
2, 131712, Note_on_c, 0, 77, 40
2, 131716, Note_on_c, 0, 59, 36
2, 131716, Note_on_c, 0, 89, 43
2, 131716, Note_on_c, 0, 64, 47
2, 131720, Note_on_c, 0, 84, 54
2, 131728, Note_on_c, 0, 53, 29
2, 131792, Note_on_c, 0, 77, 0
2, 131808, Note_on_c, 0, 84, 0
2, 131808, Note_on_c, 0, 89, 0
2, 131824, Note_on_c, 0, 59, 0
2, 131824, Note_on_c, 0, 64, 0
2, 131848, Note_on_c, 0, 53, 0
2, 132100, Note_on_c, 0, 89, 55
2, 132100, Note_on_c, 0, 62, 34
2, 132104, Note_on_c, 0, 82, 36
2, 132104, Note_on_c, 0, 58, 39
2, 132108, Note_on_c, 0, 77, 37
2, 132108, Note_on_c, 0, 86, 43
2, 132112, Control_c, 0, 64, 127
2, 132112, Note_on_c, 0, 57, 37
2, 132116, Note_on_c, 0, 53, 33
2, 132464, Note_on_c, 0, 53, 0
2, 132484, Note_on_c, 0, 57, 0
2, 132492, Note_on_c, 0, 62, 0
2, 132496, Note_on_c, 0, 58, 0
2, 132504, Note_on_c, 0, 77, 0
2, 132520, Note_on_c, 0, 86, 0
2, 132524, Note_on_c, 0, 82, 0
2, 132548, Note_on_c, 0, 89, 0
2, 132792, Control_c, 0, 64, 0
2, 132844, Note_on_c, 0, 79, 70
2, 132844, Note_on_c, 0, 91, 70
2, 132848, Note_on_c, 0, 69, 58
2, 132852, Note_on_c, 0, 58, 50
2, 132856, Note_on_c, 0, 84, 56
2, 132856, Note_on_c, 0, 88, 44
2, 132856, Note_on_c, 0, 64, 53
2, 132888, Control_c, 0, 64, 127
2, 133012, Note_on_c, 0, 69, 0
2, 133020, Note_on_c, 0, 88, 0
2, 133020, Note_on_c, 0, 91, 0
2, 133032, Note_on_c, 0, 79, 0
2, 133040, Note_on_c, 0, 58, 0
2, 133040, Note_on_c, 0, 84, 0
2, 133052, Note_on_c, 0, 64, 0
2, 133128, Note_on_c, 0, 84, 66
2, 133136, Note_on_c, 0, 77, 54
2, 133136, Note_on_c, 0, 58, 53
2, 133136, Note_on_c, 0, 89, 48
2, 133140, Note_on_c, 0, 69, 46
2, 133140, Note_on_c, 0, 64, 54
2, 133148, Control_c, 0, 64, 0
2, 133160, Note_on_c, 0, 77, 0
2, 133168, Note_on_c, 0, 69, 0
2, 133168, Note_on_c, 0, 64, 0
2, 133188, Note_on_c, 0, 84, 0
2, 133204, Note_on_c, 0, 89, 0
2, 133216, Note_on_c, 0, 58, 0
2, 133488, Note_on_c, 0, 93, 80
2, 133488, Note_on_c, 0, 89, 79
2, 133492, Note_on_c, 0, 60, 60
2, 133492, Note_on_c, 0, 61, 54
2, 133496, Note_on_c, 0, 81, 79
2, 133496, Note_on_c, 0, 65, 73
2, 133500, Note_on_c, 0, 55, 68
2, 133512, Note_on_c, 0, 58, 35
2, 133580, Control_c, 0, 64, 127
2, 133604, Note_on_c, 0, 81, 0
2, 133620, Note_on_c, 0, 89, 0
2, 133640, Note_on_c, 0, 93, 0
2, 133668, Note_on_c, 0, 61, 0
2, 133668, Note_on_c, 0, 65, 0
2, 133672, Note_on_c, 0, 60, 0
2, 133684, Note_on_c, 0, 55, 0
2, 133700, Note_on_c, 0, 58, 0
2, 133872, Note_on_c, 0, 96, 85
2, 133876, Note_on_c, 0, 84, 87
2, 133876, Note_on_c, 0, 60, 78
2, 133880, Note_on_c, 0, 93, 79
2, 133880, Note_on_c, 0, 89, 74
2, 133880, Note_on_c, 0, 61, 62
2, 133880, Note_on_c, 0, 65, 83
2, 133888, Note_on_c, 0, 55, 71
2, 133896, Control_c, 0, 64, 0
2, 133984, Control_c, 0, 64, 127
2, 134064, Note_on_c, 0, 89, 0
2, 134076, Note_on_c, 0, 84, 0
2, 134084, Note_on_c, 0, 93, 0
2, 134108, Note_on_c, 0, 96, 0
2, 134140, Note_on_c, 0, 55, 0
2, 134148, Note_on_c, 0, 65, 0
2, 134152, Note_on_c, 0, 60, 0
2, 134216, Note_on_c, 0, 61, 0
2, 134248, Note_on_c, 0, 98, 78
2, 134252, Note_on_c, 0, 86, 75
2, 134252, Note_on_c, 0, 95, 72
2, 134256, Note_on_c, 0, 92, 62
2, 134256, Note_on_c, 0, 64, 80
2, 134260, Note_on_c, 0, 54, 74
2, 134260, Note_on_c, 0, 60, 74
2, 134268, Control_c, 0, 64, 0
2, 134408, Control_c, 0, 64, 127
2, 134512, Note_on_c, 0, 86, 0
2, 134532, Note_on_c, 0, 92, 0
2, 134540, Note_on_c, 0, 95, 0
2, 134548, Note_on_c, 0, 98, 0
2, 134640, Note_on_c, 0, 60, 0
2, 134660, Note_on_c, 0, 64, 0
2, 134668, Note_on_c, 0, 54, 0
2, 134764, Control_c, 0, 64, 0
2, 134768, Note_on_c, 0, 105, 55
2, 134772, Note_on_c, 0, 64, 60
2, 134776, Note_on_c, 0, 93, 40
2, 134780, Note_on_c, 0, 54, 49
2, 134780, Note_on_c, 0, 60, 58
2, 134784, Note_on_c, 0, 100, 36
2, 134912, Note_on_c, 0, 100, 0
2, 134920, Note_on_c, 0, 105, 0
2, 134928, Note_on_c, 0, 60, 0
2, 134932, Note_on_c, 0, 93, 0
2, 134940, Note_on_c, 0, 64, 0
2, 135012, Note_on_c, 0, 54, 0
2, 135132, Note_on_c, 0, 103, 43
2, 135132, Note_on_c, 0, 64, 50
2, 135144, Note_on_c, 0, 59, 50
2, 135144, Note_on_c, 0, 91, 22
2, 135148, Note_on_c, 0, 53, 35
2, 135152, Note_on_c, 0, 98, 48
2, 135268, Note_on_c, 0, 98, 0
2, 135272, Note_on_c, 0, 103, 0
2, 135292, Note_on_c, 0, 91, 0
2, 135296, Note_on_c, 0, 64, 0
2, 135296, Note_on_c, 0, 53, 0
2, 135304, Note_on_c, 0, 59, 0
2, 135532, Note_on_c, 0, 100, 41
2, 135532, Note_on_c, 0, 95, 48
2, 135536, Note_on_c, 0, 88, 36
2, 135536, Note_on_c, 0, 64, 42
2, 135536, Note_on_c, 0, 59, 48
2, 135544, Note_on_c, 0, 53, 32
2, 135628, Control_c, 0, 64, 127
2, 135660, Control_c, 0, 64, 0
2, 135684, Note_on_c, 0, 88, 0
2, 135688, Note_on_c, 0, 100, 0
2, 135688, Note_on_c, 0, 95, 0
2, 135692, Note_on_c, 0, 64, 0
2, 135696, Note_on_c, 0, 59, 0
2, 135696, Note_on_c, 0, 53, 0
2, 135928, Note_on_c, 0, 88, 51
2, 135928, Note_on_c, 0, 100, 53
2, 135932, Note_on_c, 0, 64, 49
2, 135932, Note_on_c, 0, 59, 48
2, 135932, Note_on_c, 0, 95, 51
2, 135936, Note_on_c, 0, 53, 38
2, 135952, Control_c, 0, 64, 127
2, 136140, Note_on_c, 0, 100, 0
2, 136148, Note_on_c, 0, 64, 0
2, 136148, Note_on_c, 0, 88, 0
2, 136148, Note_on_c, 0, 95, 0
2, 136148, Note_on_c, 0, 53, 0
2, 136160, Note_on_c, 0, 59, 0
2, 136568, Note_on_c, 0, 69, 60
2, 136572, Note_on_c, 0, 58, 44
2, 136576, Note_on_c, 0, 98, 69
2, 136580, Note_on_c, 0, 86, 57
2, 136580, Note_on_c, 0, 64, 45
2, 136588, Note_on_c, 0, 93, 53
2, 136592, Note_on_c, 0, 62, 37
2, 136612, Note_on_c, 0, 64, 0
2, 136616, Note_on_c, 0, 93, 0
2, 136616, Note_on_c, 0, 62, 0
2, 136620, Note_on_c, 0, 69, 0
2, 136628, Note_on_c, 0, 58, 0
2, 136628, Note_on_c, 0, 98, 0
2, 136632, Note_on_c, 0, 86, 0
2, 136632, Control_c, 0, 64, 0
2, 136804, Note_on_c, 0, 84, 63
2, 136808, Note_on_c, 0, 69, 58
2, 136808, Note_on_c, 0, 58, 45
2, 136808, Note_on_c, 0, 91, 53
2, 136812, Note_on_c, 0, 96, 54
2, 136812, Note_on_c, 0, 64, 49
2, 136816, Note_on_c, 0, 62, 43
2, 136848, Note_on_c, 0, 62, 0
2, 136848, Note_on_c, 0, 84, 0
2, 136848, Note_on_c, 0, 96, 0
2, 136856, Note_on_c, 0, 91, 0
2, 136856, Note_on_c, 0, 69, 0
2, 136880, Note_on_c, 0, 58, 0
2, 136880, Note_on_c, 0, 64, 0
2, 136920, Control_c, 0, 64, 127
2, 136980, Control_c, 0, 64, 0
2, 137084, Control_c, 0, 64, 127
2, 137088, Note_on_c, 0, 84, 55
2, 137092, Note_on_c, 0, 96, 52
2, 137092, Note_on_c, 0, 69, 41
2, 137096, Note_on_c, 0, 58, 42
2, 137096, Note_on_c, 0, 91, 42
2, 137100, Note_on_c, 0, 64, 32
2, 137128, Note_on_c, 0, 64, 0
2, 137128, Note_on_c, 0, 69, 0
2, 137152, Note_on_c, 0, 84, 0
2, 137180, Note_on_c, 0, 91, 0
2, 137200, Note_on_c, 0, 96, 0
2, 137212, Note_on_c, 0, 58, 0
2, 137424, Control_c, 0, 64, 0
2, 137476, Note_on_c, 0, 98, 48
2, 137480, Note_on_c, 0, 54, 42
2, 137480, Note_on_c, 0, 86, 51
2, 137484, Note_on_c, 0, 64, 36
2, 137488, Note_on_c, 0, 93, 39
2, 137492, Note_on_c, 0, 90, 42
2, 137492, Note_on_c, 0, 60, 56
2, 137604, Control_c, 0, 64, 127
2, 137736, Note_on_c, 0, 98, 0
2, 137788, Note_on_c, 0, 93, 0
2, 137796, Note_on_c, 0, 86, 0
2, 137800, Note_on_c, 0, 90, 0
2, 137880, Note_on_c, 0, 64, 0
2, 137888, Note_on_c, 0, 60, 0
2, 138000, Note_on_c, 0, 54, 0
2, 138160, Note_on_c, 0, 56, 34
2, 138180, Note_on_c, 0, 57, 45
2, 138196, Note_on_c, 0, 56, 0
2, 138196, Control_c, 0, 64, 0
2, 138208, Note_on_c, 0, 62, 50
2, 138220, Note_on_c, 0, 65, 48
2, 138224, Note_on_c, 0, 70, 36
2, 138224, Note_on_c, 0, 58, 55
2, 138228, Note_on_c, 0, 57, 0
2, 138228, Note_on_c, 0, 67, 50
2, 138504, Note_on_c, 0, 67, 0
2, 138508, Note_on_c, 0, 62, 0
2, 138540, Note_on_c, 0, 65, 0
2, 138564, Note_on_c, 0, 70, 0
2, 138580, Note_on_c, 0, 58, 0
2, 138596, Note_on_c, 0, 62, 38
2, 138596, Note_on_c, 0, 55, 44
2, 138600, Control_c, 0, 64, 127
2, 138608, Note_on_c, 0, 67, 27
2, 138624, Note_on_c, 0, 65, 25
2, 138704, Note_on_c, 0, 65, 0
2, 138708, Note_on_c, 0, 67, 0
2, 138712, Note_on_c, 0, 62, 0
2, 138864, Note_on_c, 0, 55, 0
2, 138864, Note_on_c, 0, 69, 68
2, 138876, Control_c, 0, 64, 0
2, 138876, Note_on_c, 0, 58, 62
2, 138876, Note_on_c, 0, 64, 67
2, 138880, Note_on_c, 0, 57, 63
2, 138884, Note_on_c, 0, 61, 57
2, 139116, Control_c, 0, 64, 127
2, 139260, Note_on_c, 0, 64, 0
2, 139264, Note_on_c, 0, 58, 0
2, 139272, Note_on_c, 0, 61, 0
2, 139284, Note_on_c, 0, 69, 0
2, 139352, Control_c, 0, 64, 0
2, 139368, Note_on_c, 0, 57, 0
2, 139376, Note_on_c, 0, 58, 40
2, 139388, Note_on_c, 0, 67, 46
2, 139388, Note_on_c, 0, 61, 36
2, 139392, Note_on_c, 0, 64, 45
2, 139392, Note_on_c, 0, 55, 42
2, 139440, Control_c, 0, 64, 127
2, 139520, Note_on_c, 0, 55, 0
2, 139528, Note_on_c, 0, 58, 0
2, 139564, Note_on_c, 0, 64, 0
2, 139576, Note_on_c, 0, 67, 0
2, 139592, Note_on_c, 0, 61, 0
2, 139712, Control_c, 0, 64, 0
2, 140020, Note_on_c, 0, 61, 43
2, 140028, Note_on_c, 0, 60, 50
2, 140032, Note_on_c, 0, 72, 66
2, 140032, Note_on_c, 0, 69, 66
2, 140032, Note_on_c, 0, 65, 70
2, 140036, Note_on_c, 0, 55, 50
2, 140064, Note_on_c, 0, 55, 0
2, 140064, Note_on_c, 0, 69, 0
2, 140064, Note_on_c, 0, 65, 0
2, 140068, Note_on_c, 0, 60, 0
2, 140072, Note_on_c, 0, 72, 0
2, 140076, Note_on_c, 0, 61, 0
2, 140136, Note_on_c, 0, 61, 36
2, 140140, Note_on_c, 0, 72, 49
2, 140140, Note_on_c, 0, 65, 58
2, 140144, Note_on_c, 0, 60, 44
2, 140148, Note_on_c, 0, 69, 55
2, 140152, Note_on_c, 0, 55, 28
2, 140180, Note_on_c, 0, 55, 0
2, 140184, Note_on_c, 0, 65, 0
2, 140188, Note_on_c, 0, 72, 0
2, 140192, Note_on_c, 0, 69, 0
2, 140196, Note_on_c, 0, 60, 0
2, 140204, Note_on_c, 0, 61, 0
2, 140356, Note_on_c, 0, 69, 69
2, 140356, Note_on_c, 0, 60, 53
2, 140360, Note_on_c, 0, 65, 68
2, 140360, Note_on_c, 0, 72, 57
2, 140364, Note_on_c, 0, 61, 32
2, 140380, Note_on_c, 0, 55, 30
2, 140388, Note_on_c, 0, 72, 0
2, 140388, Note_on_c, 0, 65, 0
2, 140392, Note_on_c, 0, 61, 0
2, 140392, Note_on_c, 0, 60, 0
2, 140404, Note_on_c, 0, 69, 0
2, 140412, Note_on_c, 0, 55, 0
2, 140440, Note_on_c, 0, 55, 32
2, 140452, Note_on_c, 0, 61, 36
2, 140456, Note_on_c, 0, 72, 46
2, 140456, Note_on_c, 0, 69, 44
2, 140460, Note_on_c, 0, 60, 34
2, 140460, Note_on_c, 0, 65, 43
2, 140492, Note_on_c, 0, 65, 0
2, 140492, Note_on_c, 0, 60, 0
2, 140500, Control_c, 0, 64, 127
2, 140512, Note_on_c, 0, 55, 0
2, 140520, Note_on_c, 0, 69, 0
2, 140520, Note_on_c, 0, 72, 0
2, 140532, Note_on_c, 0, 61, 0
2, 140532, Control_c, 0, 64, 0
2, 140588, Note_on_c, 0, 68, 56
2, 140592, Note_on_c, 0, 64, 57
2, 140592, Note_on_c, 0, 71, 60
2, 140604, Note_on_c, 0, 60, 55
2, 140608, Note_on_c, 0, 54, 53
2, 140864, Note_on_c, 0, 64, 0
2, 140876, Note_on_c, 0, 60, 0
2, 140884, Note_on_c, 0, 54, 0
2, 140904, Note_on_c, 0, 71, 0
2, 140904, Note_on_c, 0, 68, 0
2, 140940, Note_on_c, 0, 54, 45
2, 140944, Note_on_c, 0, 65, 50
2, 140948, Note_on_c, 0, 60, 46
2, 140952, Note_on_c, 0, 72, 55
2, 140956, Note_on_c, 0, 69, 54
2, 140972, Control_c, 0, 64, 127
2, 141148, Note_on_c, 0, 60, 0
2, 141156, Note_on_c, 0, 65, 0
2, 141164, Note_on_c, 0, 69, 0
2, 141184, Note_on_c, 0, 72, 0
2, 141192, Note_on_c, 0, 54, 0
2, 141200, Control_c, 0, 64, 0
2, 141384, Control_c, 0, 64, 127
2, 141560, Note_on_c, 0, 58, 63
2, 141564, Note_on_c, 0, 70, 62
2, 141568, Note_on_c, 0, 62, 62
2, 141568, Note_on_c, 0, 65, 61
2, 141572, Note_on_c, 0, 53, 63
2, 141576, Note_on_c, 0, 66, 32
2, 141596, Note_on_c, 0, 66, 0
2, 141604, Note_on_c, 0, 65, 0
2, 141608, Note_on_c, 0, 62, 0
2, 141640, Note_on_c, 0, 70, 0
2, 141672, Note_on_c, 0, 58, 0
2, 141692, Note_on_c, 0, 53, 0
2, 141696, Control_c, 0, 64, 0
2, 141948, Note_on_c, 0, 71, 80
2, 141948, Note_on_c, 0, 67, 80
2, 141952, Note_on_c, 0, 62, 84
2, 141956, Note_on_c, 0, 56, 75
2, 142032, Control_c, 0, 64, 127
2, 142088, Note_on_c, 0, 71, 0
2, 142100, Note_on_c, 0, 62, 0
2, 142128, Note_on_c, 0, 67, 0
2, 142296, Control_c, 0, 64, 0
2, 142300, Note_on_c, 0, 59, 71
2, 142300, Note_on_c, 0, 70, 74
2, 142300, Note_on_c, 0, 74, 80
2, 142304, Note_on_c, 0, 65, 83
2, 142316, Note_on_c, 0, 68, 46
2, 142336, Note_on_c, 0, 68, 0
2, 142340, Note_on_c, 0, 65, 0
2, 142364, Note_on_c, 0, 70, 0
2, 142364, Note_on_c, 0, 74, 0
2, 142456, Note_on_c, 0, 59, 0
2, 142468, Note_on_c, 0, 56, 0
2, 142476, Note_on_c, 0, 62, 65
2, 142484, Note_on_c, 0, 77, 57
2, 142492, Note_on_c, 0, 68, 67
2, 142508, Note_on_c, 0, 74, 51
2, 142540, Note_on_c, 0, 77, 0
2, 142548, Note_on_c, 0, 74, 0
2, 142592, Note_on_c, 0, 68, 0
2, 142600, Note_on_c, 0, 62, 0
2, 142672, Control_c, 0, 64, 127
2, 142708, Note_on_c, 0, 68, 72
2, 142712, Note_on_c, 0, 80, 72
2, 142716, Note_on_c, 0, 64, 43
2, 142748, Note_on_c, 0, 64, 0
2, 142772, Note_on_c, 0, 68, 0
2, 142804, Note_on_c, 0, 80, 0
2, 142804, Control_c, 0, 64, 0
2, 142868, Note_on_c, 0, 65, 70
2, 142876, Note_on_c, 0, 72, 60
2, 142888, Note_on_c, 0, 65, 0
2, 142888, Note_on_c, 0, 81, 34
2, 142900, Note_on_c, 0, 72, 0
2, 142900, Note_on_c, 0, 77, 32
2, 142920, Note_on_c, 0, 81, 0
2, 142928, Note_on_c, 0, 77, 0
2, 143100, Note_on_c, 0, 48, 70
2, 143160, Note_on_c, 0, 48, 0
2, 143244, Note_on_c, 0, 72, 42
2, 143248, Note_on_c, 0, 60, 39
2, 143252, Note_on_c, 0, 68, 17
2, 143260, Note_on_c, 0, 69, 33
2, 143276, Note_on_c, 0, 65, 24
2, 143288, Note_on_c, 0, 64, 22
2, 143312, Note_on_c, 0, 64, 0
2, 143336, Note_on_c, 0, 65, 0
2, 143340, Note_on_c, 0, 60, 0
2, 143352, Note_on_c, 0, 69, 0
2, 143356, Note_on_c, 0, 68, 0
2, 143364, Note_on_c, 0, 72, 0
2, 143480, Note_on_c, 0, 72, 62
2, 143480, Note_on_c, 0, 60, 60
2, 143480, Note_on_c, 0, 69, 64
2, 143484, Note_on_c, 0, 65, 68
2, 143536, Note_on_c, 0, 65, 0
2, 143540, Note_on_c, 0, 60, 0
2, 143552, Note_on_c, 0, 72, 0
2, 143556, Note_on_c, 0, 69, 0
2, 143632, Note_on_c, 0, 60, 51
2, 143632, Note_on_c, 0, 72, 48
2, 143636, Note_on_c, 0, 65, 47
2, 143640, Note_on_c, 0, 69, 42
2, 143676, Note_on_c, 0, 60, 0
2, 143708, Note_on_c, 0, 69, 0
2, 143708, Note_on_c, 0, 65, 0
2, 143756, Note_on_c, 0, 72, 0
2, 143764, Control_c, 0, 64, 127
2, 143860, Note_on_c, 0, 65, 65
2, 143868, Note_on_c, 0, 60, 56
2, 143868, Note_on_c, 0, 69, 64
2, 143872, Note_on_c, 0, 48, 62
2, 144016, Note_on_c, 0, 48, 0
2, 144044, Note_on_c, 0, 60, 0
2, 144192, Note_on_c, 0, 65, 0
2, 144200, Note_on_c, 0, 69, 0
2, 144324, Control_c, 0, 64, 0
2, 144364, Note_on_c, 0, 65, 81
2, 144368, Note_on_c, 0, 62, 64
2, 144368, Note_on_c, 0, 69, 76
2, 144368, Note_on_c, 0, 72, 71
2, 144372, Note_on_c, 0, 58, 55
2, 144380, Note_on_c, 0, 60, 61
2, 144456, Control_c, 0, 64, 127
2, 144512, Note_on_c, 0, 60, 0
2, 144512, Note_on_c, 0, 65, 0
2, 144520, Note_on_c, 0, 72, 0
2, 144520, Note_on_c, 0, 62, 0
2, 144528, Note_on_c, 0, 69, 0
2, 144532, Note_on_c, 0, 58, 0
2, 144620, Note_on_c, 0, 69, 72
2, 144624, Note_on_c, 0, 58, 48
2, 144624, Note_on_c, 0, 62, 60
2, 144628, Note_on_c, 0, 72, 53
2, 144628, Note_on_c, 0, 65, 72
2, 144636, Note_on_c, 0, 60, 44
2, 144664, Note_on_c, 0, 60, 0
2, 144676, Note_on_c, 0, 65, 0
2, 144680, Note_on_c, 0, 62, 0
2, 144692, Note_on_c, 0, 72, 0
2, 144700, Note_on_c, 0, 69, 0
2, 144704, Note_on_c, 0, 58, 0
2, 144760, Note_on_c, 0, 69, 44
2, 144760, Note_on_c, 0, 62, 41
2, 144764, Note_on_c, 0, 58, 33
2, 144764, Note_on_c, 0, 65, 51
2, 144768, Note_on_c, 0, 72, 29
2, 144792, Note_on_c, 0, 60, 24
2, 144812, Note_on_c, 0, 62, 0
2, 144816, Note_on_c, 0, 60, 0
2, 144824, Note_on_c, 0, 65, 0
2, 144836, Note_on_c, 0, 72, 0
2, 144840, Note_on_c, 0, 69, 0
2, 144852, Note_on_c, 0, 58, 0
2, 144984, Note_on_c, 0, 58, 25
2, 145008, Note_on_c, 0, 62, 53
2, 145012, Note_on_c, 0, 65, 67
2, 145016, Note_on_c, 0, 69, 66
2, 145024, Note_on_c, 0, 72, 57
2, 145040, Note_on_c, 0, 62, 0
2, 145060, Note_on_c, 0, 58, 0
2, 145072, Note_on_c, 0, 65, 0
2, 145080, Note_on_c, 0, 69, 0
2, 145092, Note_on_c, 0, 72, 0
2, 145124, Control_c, 0, 64, 0
2, 145172, Note_on_c, 0, 58, 45
2, 145184, Note_on_c, 0, 52, 44
2, 145184, Note_on_c, 0, 64, 58
2, 145188, Note_on_c, 0, 72, 45
2, 145192, Note_on_c, 0, 68, 36
2, 145212, Note_on_c, 0, 52, 0
2, 145228, Note_on_c, 0, 58, 0
2, 145232, Note_on_c, 0, 68, 0
2, 145236, Note_on_c, 0, 72, 0
2, 145240, Note_on_c, 0, 64, 0
2, 145412, Note_on_c, 0, 68, 69
2, 145416, Note_on_c, 0, 64, 63
2, 145420, Note_on_c, 0, 72, 60
2, 145424, Note_on_c, 0, 58, 54
2, 145428, Note_on_c, 0, 62, 57
2, 145440, Note_on_c, 0, 52, 39
2, 145448, Note_on_c, 0, 64, 0
2, 145452, Note_on_c, 0, 62, 0
2, 145456, Note_on_c, 0, 72, 0
2, 145468, Note_on_c, 0, 68, 0
2, 145484, Note_on_c, 0, 52, 0
2, 145492, Note_on_c, 0, 58, 0
2, 145780, Note_on_c, 0, 65, 70
2, 145780, Note_on_c, 0, 72, 58
2, 145784, Note_on_c, 0, 60, 67
2, 145784, Note_on_c, 0, 69, 54
2, 145812, Note_on_c, 0, 60, 0
2, 145828, Note_on_c, 0, 65, 0
2, 145828, Note_on_c, 0, 72, 0
2, 145832, Note_on_c, 0, 69, 0
2, 146136, Note_on_c, 0, 48, 84
2, 146140, Note_on_c, 0, 47, 77
2, 146144, Note_on_c, 0, 65, 71
2, 146148, Note_on_c, 0, 60, 71
2, 146152, Note_on_c, 0, 57, 71
2, 146152, Note_on_c, 0, 62, 67
2, 146184, Note_on_c, 0, 47, 0
2, 146356, Control_c, 0, 64, 127
2, 146520, Note_on_c, 0, 57, 0
2, 146528, Note_on_c, 0, 60, 0
2, 146528, Note_on_c, 0, 62, 0
2, 146536, Note_on_c, 0, 65, 0
2, 146616, Note_on_c, 0, 48, 0
2, 146632, Note_on_c, 0, 46, 19
2, 146644, Control_c, 0, 64, 0
2, 146652, Note_on_c, 0, 47, 49
2, 146656, Note_on_c, 0, 46, 0
2, 146672, Note_on_c, 0, 48, 62
2, 146676, Note_on_c, 0, 65, 61
2, 146680, Note_on_c, 0, 60, 57
2, 146680, Note_on_c, 0, 57, 52
2, 146680, Note_on_c, 0, 62, 49
2, 146712, Note_on_c, 0, 47, 0
2, 146820, Control_c, 0, 64, 127
2, 147112, Note_on_c, 0, 57, 0
2, 147120, Note_on_c, 0, 48, 0
2, 147128, Note_on_c, 0, 60, 0
2, 147128, Note_on_c, 0, 65, 0
2, 147132, Note_on_c, 0, 62, 0
2, 147300, Note_on_c, 0, 48, 63
2, 147304, Note_on_c, 0, 65, 67
2, 147304, Note_on_c, 0, 60, 68
2, 147308, Note_on_c, 0, 57, 56
2, 147324, Note_on_c, 0, 48, 0
2, 147328, Control_c, 0, 64, 0
2, 147328, Note_on_c, 0, 62, 30
2, 147332, Note_on_c, 0, 57, 0
2, 147352, Note_on_c, 0, 62, 0
2, 147356, Note_on_c, 0, 60, 0
2, 147368, Note_on_c, 0, 65, 0
2, 147668, Note_on_c, 0, 72, 70
2, 147672, Note_on_c, 0, 76, 73
2, 147672, Note_on_c, 0, 67, 81
2, 147676, Note_on_c, 0, 45, 62
2, 147680, Note_on_c, 0, 55, 70
2, 147716, Note_on_c, 0, 67, 0
2, 147724, Note_on_c, 0, 45, 0
2, 147724, Note_on_c, 0, 72, 0
2, 147728, Note_on_c, 0, 76, 0
2, 147728, Note_on_c, 0, 55, 0
2, 148080, Note_on_c, 0, 74, 89
2, 148080, Note_on_c, 0, 77, 81
2, 148080, Note_on_c, 0, 54, 82
2, 148084, Note_on_c, 0, 60, 77
2, 148084, Note_on_c, 0, 65, 96
2, 148088, Note_on_c, 0, 70, 80
2, 148188, Control_c, 0, 64, 127
2, 148212, Note_on_c, 0, 65, 0
2, 148244, Note_on_c, 0, 70, 0
2, 148268, Note_on_c, 0, 74, 0
2, 148272, Note_on_c, 0, 60, 0
2, 148280, Note_on_c, 0, 77, 0
2, 148284, Note_on_c, 0, 54, 0
2, 148600, Note_on_c, 0, 82, 75
2, 148608, Note_on_c, 0, 89, 74
2, 148612, Note_on_c, 0, 86, 60
2, 148612, Note_on_c, 0, 58, 56
2, 148612, Note_on_c, 0, 65, 73
2, 148612, Note_on_c, 0, 54, 61
2, 148616, Note_on_c, 0, 60, 61
2, 148616, Control_c, 0, 64, 0
2, 148616, Note_on_c, 0, 77, 62
2, 148640, Control_c, 0, 64, 127
2, 148708, Note_on_c, 0, 77, 0
2, 148724, Note_on_c, 0, 86, 0
2, 148724, Note_on_c, 0, 82, 0
2, 148744, Note_on_c, 0, 89, 0
2, 148764, Note_on_c, 0, 65, 0
2, 148768, Note_on_c, 0, 60, 0
2, 148932, Note_on_c, 0, 54, 0
2, 148940, Note_on_c, 0, 58, 0
2, 148984, Note_on_c, 0, 90, 38
2, 148988, Control_c, 0, 64, 0
2, 148996, Note_on_c, 0, 64, 70
2, 148996, Note_on_c, 0, 83, 58
2, 149000, Note_on_c, 0, 95, 40
2, 149004, Note_on_c, 0, 96, 67
2, 149004, Note_on_c, 0, 59, 62
2, 149008, Note_on_c, 0, 53, 62
2, 149060, Note_on_c, 0, 90, 0
2, 149080, Note_on_c, 0, 96, 0
2, 149324, Note_on_c, 0, 95, 0
2, 149340, Note_on_c, 0, 83, 0
2, 149360, Note_on_c, 0, 64, 0
2, 149364, Note_on_c, 0, 53, 0
2, 149364, Note_on_c, 0, 59, 0
2, 149624, Note_on_c, 0, 93, 70
2, 149628, Note_on_c, 0, 81, 71
2, 149632, Note_on_c, 0, 59, 63
2, 149632, Note_on_c, 0, 64, 72
2, 149632, Note_on_c, 0, 88, 61
2, 149636, Note_on_c, 0, 53, 60
2, 149636, Note_on_c, 0, 85, 45
2, 149668, Note_on_c, 0, 85, 0
2, 149684, Note_on_c, 0, 64, 0
2, 149684, Note_on_c, 0, 53, 0
2, 149688, Note_on_c, 0, 59, 0
2, 149692, Note_on_c, 0, 93, 0
2, 149692, Note_on_c, 0, 81, 0
2, 149692, Note_on_c, 0, 88, 0
2, 149816, Control_c, 0, 64, 127
2, 149836, Note_on_c, 0, 93, 67
2, 149840, Note_on_c, 0, 81, 63
2, 149844, Note_on_c, 0, 88, 51
2, 149852, Note_on_c, 0, 64, 53
2, 149852, Note_on_c, 0, 53, 50
2, 149856, Note_on_c, 0, 59, 52
2, 149856, Note_on_c, 0, 85, 43
2, 150008, Note_on_c, 0, 93, 0
2, 150012, Note_on_c, 0, 85, 0
2, 150016, Note_on_c, 0, 64, 0
2, 150020, Note_on_c, 0, 53, 0
2, 150036, Note_on_c, 0, 81, 0
2, 150040, Note_on_c, 0, 59, 0
2, 150068, Note_on_c, 0, 88, 0
2, 150108, Control_c, 0, 64, 0
2, 150136, Note_on_c, 0, 59, 50
2, 150136, Note_on_c, 0, 64, 44
2, 150144, Note_on_c, 0, 91, 46
2, 150144, Note_on_c, 0, 88, 36
2, 150148, Note_on_c, 0, 85, 46
2, 150148, Note_on_c, 0, 79, 40
2, 150148, Note_on_c, 0, 53, 33
2, 150152, Control_c, 0, 64, 127
2, 150200, Note_on_c, 0, 88, 0
2, 150204, Note_on_c, 0, 59, 0
2, 150208, Note_on_c, 0, 64, 0
2, 150220, Note_on_c, 0, 85, 0
2, 150224, Note_on_c, 0, 91, 0
2, 150252, Note_on_c, 0, 79, 0
2, 150284, Note_on_c, 0, 53, 0
2, 150396, Note_on_c, 0, 89, 56
2, 150400, Control_c, 0, 64, 0
2, 150404, Note_on_c, 0, 77, 48
2, 150404, Note_on_c, 0, 86, 48
2, 150408, Note_on_c, 0, 62, 50
2, 150412, Note_on_c, 0, 53, 34
2, 150412, Note_on_c, 0, 58, 44
2, 150416, Note_on_c, 0, 57, 34
2, 150416, Note_on_c, 0, 82, 36
2, 150520, Control_c, 0, 64, 127
2, 150640, Note_on_c, 0, 89, 0
2, 150648, Note_on_c, 0, 86, 0
2, 150664, Note_on_c, 0, 82, 0
2, 150676, Note_on_c, 0, 77, 0
2, 150740, Note_on_c, 0, 62, 0
2, 150768, Note_on_c, 0, 58, 0
2, 150776, Note_on_c, 0, 57, 0
2, 150824, Note_on_c, 0, 53, 0
2, 151152, Note_on_c, 0, 51, 32
2, 151240, Note_on_c, 0, 51, 0
2, 151240, Note_on_c, 0, 52, 39
2, 151252, Control_c, 0, 64, 0
2, 151272, Note_on_c, 0, 52, 0
2, 151276, Note_on_c, 0, 53, 42
2, 151280, Note_on_c, 0, 55, 49
2, 151284, Note_on_c, 0, 58, 40
2, 151284, Note_on_c, 0, 62, 39
2, 151284, Note_on_c, 0, 65, 46
2, 151508, Note_on_c, 0, 55, 0
2, 151520, Note_on_c, 0, 62, 0
2, 151532, Note_on_c, 0, 65, 0
2, 151540, Note_on_c, 0, 58, 0
2, 151548, Note_on_c, 0, 53, 0
2, 151560, Note_on_c, 0, 51, 31
2, 151624, Note_on_c, 0, 51, 0
2, 151652, Note_on_c, 0, 53, 37
2, 151664, Note_on_c, 0, 55, 37
2, 151668, Note_on_c, 0, 58, 32
2, 151668, Note_on_c, 0, 65, 35
2, 151672, Note_on_c, 0, 62, 46
2, 151840, Note_on_c, 0, 55, 0
2, 151860, Note_on_c, 0, 65, 0
2, 151860, Note_on_c, 0, 62, 0
2, 151880, Note_on_c, 0, 58, 0
2, 151884, Note_on_c, 0, 53, 0
2, 151928, Note_on_c, 0, 58, 43
2, 151932, Note_on_c, 0, 55, 63
2, 151936, Note_on_c, 0, 65, 47
2, 151940, Note_on_c, 0, 62, 45
2, 151944, Note_on_c, 0, 53, 47
2, 151988, Note_on_c, 0, 55, 0
2, 152008, Note_on_c, 0, 58, 0
2, 152012, Note_on_c, 0, 53, 0
2, 152012, Note_on_c, 0, 65, 0
2, 152032, Note_on_c, 0, 62, 0
2, 152072, Note_on_c, 0, 65, 27
2, 152076, Note_on_c, 0, 53, 32
2, 152088, Note_on_c, 0, 60, 44
2, 152088, Note_on_c, 0, 57, 26
2, 152092, Note_on_c, 0, 62, 41
2, 152260, Note_on_c, 0, 57, 0
2, 152260, Note_on_c, 0, 65, 0
2, 152268, Note_on_c, 0, 60, 0
2, 152276, Note_on_c, 0, 62, 0
2, 152284, Note_on_c, 0, 53, 0
2, 152320, Note_on_c, 0, 65, 42
2, 152328, Note_on_c, 0, 60, 59
2, 152332, Note_on_c, 0, 53, 40
2, 152332, Note_on_c, 0, 57, 28
2, 152352, Note_on_c, 0, 60, 0
2, 152352, Note_on_c, 0, 65, 0
2, 152356, Note_on_c, 0, 57, 0
2, 152372, Note_on_c, 0, 53, 0
2, 152832, Note_on_c, 0, 57, 43
2, 152836, Note_on_c, 0, 65, 43
2, 152836, Note_on_c, 0, 53, 40
2, 152840, Note_on_c, 0, 60, 49
2, 152840, Note_on_c, 0, 62, 40
2, 152880, Note_on_c, 0, 60, 0
2, 152880, Note_on_c, 0, 57, 0
2, 152888, Note_on_c, 0, 62, 0
2, 152892, Note_on_c, 0, 53, 0
2, 152892, Note_on_c, 0, 65, 0
2, 153208, Control_c, 0, 64, 127
2, 153508, Control_c, 0, 64, 0
2, 153576, Note_on_c, 0, 65, 53
2, 153576, Note_on_c, 0, 57, 44
2, 153580, Note_on_c, 0, 60, 49
2, 153580, Note_on_c, 0, 53, 51
2, 153644, Note_on_c, 0, 57, 0
2, 153660, Note_on_c, 0, 53, 0
2, 153664, Note_on_c, 0, 60, 0
2, 153704, Note_on_c, 0, 65, 0
2, 153964, Note_on_c, 0, 70, 82
2, 153968, Note_on_c, 0, 74, 81
2, 153972, Note_on_c, 0, 65, 87
2, 153980, Note_on_c, 0, 54, 56
2, 153980, Note_on_c, 0, 58, 50
2, 153980, Note_on_c, 0, 60, 62
2, 154112, Note_on_c, 0, 60, 0
2, 154120, Note_on_c, 0, 74, 0
2, 154120, Note_on_c, 0, 58, 0
2, 154124, Note_on_c, 0, 70, 0
2, 154132, Note_on_c, 0, 65, 0
2, 154152, Note_on_c, 0, 54, 0
2, 154344, Control_c, 0, 64, 127
2, 154352, Note_on_c, 0, 70, 69
2, 154356, Note_on_c, 0, 65, 64
2, 154360, Note_on_c, 0, 54, 54
2, 154360, Note_on_c, 0, 62, 62
2, 154372, Note_on_c, 0, 58, 28
2, 154400, Note_on_c, 0, 58, 0
2, 154416, Note_on_c, 0, 65, 0
2, 154428, Note_on_c, 0, 70, 0
2, 154452, Note_on_c, 0, 54, 0
2, 154452, Note_on_c, 0, 62, 0
2, 154616, Note_on_c, 0, 58, 57
2, 154620, Note_on_c, 0, 44, 49
2, 154620, Note_on_c, 0, 54, 45
2, 154624, Control_c, 0, 64, 0
2, 154624, Note_on_c, 0, 65, 55
2, 154628, Note_on_c, 0, 62, 57
2, 154720, Control_c, 0, 64, 127
2, 154900, Note_on_c, 0, 62, 0
2, 154912, Note_on_c, 0, 58, 0
2, 154928, Note_on_c, 0, 65, 0
2, 155004, Note_on_c, 0, 54, 0
2, 155076, Note_on_c, 0, 44, 0
2, 155132, Control_c, 0, 64, 0
2, 155136, Note_on_c, 0, 53, 27
2, 155144, Note_on_c, 0, 62, 33
2, 155152, Note_on_c, 0, 43, 47
2, 155152, Note_on_c, 0, 59, 39
2, 155264, Note_on_c, 0, 53, 0
2, 155292, Note_on_c, 0, 59, 0
2, 155304, Note_on_c, 0, 62, 0
2, 155324, Note_on_c, 0, 43, 0
2, 155496, Control_c, 0, 64, 127
2, 155884, Control_c, 0, 64, 0
2, 155892, Note_on_c, 0, 76, 55
2, 155900, Note_on_c, 0, 65, 47
2, 155904, Note_on_c, 0, 64, 44
2, 155908, Note_on_c, 0, 69, 46
2, 155908, Note_on_c, 0, 71, 43
2, 155912, Note_on_c, 0, 59, 44
2, 155924, Note_on_c, 0, 53, 36
2, 156240, Note_on_c, 0, 76, 0
2, 156248, Note_on_c, 0, 71, 0
2, 156264, Note_on_c, 0, 64, 0
2, 156272, Note_on_c, 0, 74, 52
2, 156288, Note_on_c, 0, 64, 27
2, 156288, Control_c, 0, 64, 127
2, 156376, Note_on_c, 0, 69, 0
2, 156400, Note_on_c, 0, 74, 0
2, 156452, Note_on_c, 0, 64, 0
2, 156456, Note_on_c, 0, 59, 0
2, 156460, Note_on_c, 0, 65, 0
2, 156540, Note_on_c, 0, 77, 70
2, 156540, Note_on_c, 0, 62, 53
2, 156544, Note_on_c, 0, 65, 58
2, 156548, Note_on_c, 0, 58, 45
2, 156556, Note_on_c, 0, 70, 48
2, 156556, Note_on_c, 0, 57, 30
2, 156560, Control_c, 0, 64, 0
2, 156700, Control_c, 0, 64, 127
2, 157064, Note_on_c, 0, 62, 0
2, 157072, Note_on_c, 0, 57, 0
2, 157076, Note_on_c, 0, 53, 0
2, 157088, Note_on_c, 0, 58, 0
2, 157096, Note_on_c, 0, 65, 0
2, 157120, Note_on_c, 0, 70, 0
2, 157196, Note_on_c, 0, 77, 0
2, 157684, Note_on_c, 0, 79, 80
2, 157688, Note_on_c, 0, 69, 62
2, 157688, Note_on_c, 0, 72, 81
2, 157692, Note_on_c, 0, 58, 47
2, 157692, Control_c, 0, 64, 0
2, 157696, Note_on_c, 0, 64, 54
2, 157780, Control_c, 0, 64, 127
2, 157848, Note_on_c, 0, 58, 0
2, 157860, Note_on_c, 0, 69, 0
2, 157884, Note_on_c, 0, 64, 0
2, 157896, Note_on_c, 0, 72, 0
2, 157896, Note_on_c, 0, 79, 0
2, 157932, Note_on_c, 0, 58, 33
2, 157940, Note_on_c, 0, 77, 74
2, 157992, Note_on_c, 0, 58, 0
2, 158036, Note_on_c, 0, 77, 0
2, 158188, Control_c, 0, 64, 0
2, 158208, Note_on_c, 0, 81, 74
2, 158212, Note_on_c, 0, 65, 57
2, 158212, Note_on_c, 0, 77, 60
2, 158212, Note_on_c, 0, 61, 34
2, 158216, Note_on_c, 0, 69, 60
2, 158220, Note_on_c, 0, 60, 43
2, 158224, Note_on_c, 0, 55, 45
2, 158372, Control_c, 0, 64, 127
2, 158712, Note_on_c, 0, 60, 0
2, 158772, Note_on_c, 0, 65, 0
2, 158852, Note_on_c, 0, 69, 0
2, 158852, Note_on_c, 0, 55, 0
2, 158860, Note_on_c, 0, 61, 0
2, 158892, Note_on_c, 0, 77, 0
2, 158916, Note_on_c, 0, 81, 0
2, 159208, Note_on_c, 0, 83, 81
2, 159212, Note_on_c, 0, 76, 76
2, 159212, Note_on_c, 0, 60, 64
2, 159216, Note_on_c, 0, 71, 72
2, 159216, Control_c, 0, 64, 0
2, 159220, Note_on_c, 0, 64, 63
2, 159220, Note_on_c, 0, 54, 59
2, 159220, Note_on_c, 0, 80, 48
2, 159320, Control_c, 0, 64, 127
2, 159408, Note_on_c, 0, 80, 0
2, 159412, Note_on_c, 0, 71, 0
2, 159416, Note_on_c, 0, 54, 0
2, 159420, Note_on_c, 0, 76, 0
2, 159432, Note_on_c, 0, 64, 0
2, 159444, Note_on_c, 0, 83, 0
2, 159472, Note_on_c, 0, 81, 54
2, 159480, Note_on_c, 0, 54, 52
2, 159480, Note_on_c, 0, 64, 41
2, 159516, Note_on_c, 0, 81, 0
2, 159616, Note_on_c, 0, 60, 0
2, 159640, Note_on_c, 0, 64, 0
2, 159684, Note_on_c, 0, 54, 0
2, 159720, Control_c, 0, 64, 0
2, 159728, Note_on_c, 0, 88, 64
2, 159732, Note_on_c, 0, 76, 60
2, 159736, Note_on_c, 0, 81, 62
2, 159740, Note_on_c, 0, 53, 53
2, 159740, Note_on_c, 0, 64, 49
2, 159756, Note_on_c, 0, 59, 61
2, 159896, Control_c, 0, 64, 127
2, 160204, Note_on_c, 0, 64, 0
2, 160232, Note_on_c, 0, 59, 0
2, 160248, Note_on_c, 0, 81, 0
2, 160260, Note_on_c, 0, 53, 0
2, 160264, Note_on_c, 0, 76, 0
2, 160292, Note_on_c, 0, 88, 0
2, 160380, Note_on_c, 0, 62, 52
2, 160384, Note_on_c, 0, 86, 54
2, 160384, Note_on_c, 0, 76, 51
2, 160388, Note_on_c, 0, 80, 37
2, 160388, Note_on_c, 0, 53, 48
2, 160392, Note_on_c, 0, 59, 47
2, 160392, Control_c, 0, 64, 0
2, 160428, Note_on_c, 0, 59, 0
2, 160432, Note_on_c, 0, 62, 0
2, 160432, Note_on_c, 0, 80, 0
2, 160436, Note_on_c, 0, 76, 0
2, 160440, Note_on_c, 0, 86, 0
2, 160452, Note_on_c, 0, 53, 0
2, 160824, Note_on_c, 0, 61, 42
2, 160860, Note_on_c, 0, 61, 0
2, 160872, Note_on_c, 0, 74, 55
2, 160880, Note_on_c, 0, 62, 55
2, 160880, Note_on_c, 0, 70, 35
2, 160952, Note_on_c, 0, 74, 0
2, 160960, Note_on_c, 0, 70, 0
2, 161052, Note_on_c, 0, 62, 0
2, 161128, Note_on_c, 0, 61, 50
2, 161136, Note_on_c, 0, 73, 64
2, 161152, Note_on_c, 0, 67, 42
2, 161152, Note_on_c, 0, 64, 29
2, 161216, Note_on_c, 0, 64, 0
2, 161216, Note_on_c, 0, 73, 0
2, 161228, Note_on_c, 0, 67, 0
2, 161284, Note_on_c, 0, 61, 0
2, 161304, Note_on_c, 0, 72, 39
2, 161308, Note_on_c, 0, 60, 36
2, 161316, Note_on_c, 0, 67, 25
2, 161328, Note_on_c, 0, 64, 15
2, 161368, Note_on_c, 0, 72, 0
2, 161384, Note_on_c, 0, 64, 0
2, 161384, Note_on_c, 0, 67, 0
2, 161424, Note_on_c, 0, 60, 0
2, 161636, Control_c, 0, 64, 127
2, 162000, Control_c, 0, 64, 0
2, 162028, Note_on_c, 0, 54, 40
2, 162028, Note_on_c, 0, 74, 40
2, 162032, Note_on_c, 0, 64, 42
2, 162032, Note_on_c, 0, 71, 42
2, 162036, Note_on_c, 0, 68, 36
2, 162036, Note_on_c, 0, 60, 34
2, 162160, Note_on_c, 0, 68, 0
2, 162164, Note_on_c, 0, 60, 0
2, 162168, Note_on_c, 0, 74, 0
2, 162172, Note_on_c, 0, 64, 0
2, 162180, Note_on_c, 0, 71, 0
2, 162184, Note_on_c, 0, 54, 0
2, 162400, Note_on_c, 0, 64, 47
2, 162404, Note_on_c, 0, 72, 35
2, 162408, Note_on_c, 0, 69, 50
2, 162412, Note_on_c, 0, 60, 40
2, 162412, Note_on_c, 0, 54, 39
2, 162436, Control_c, 0, 64, 127
2, 162500, Note_on_c, 0, 60, 0
2, 162548, Note_on_c, 0, 69, 0
2, 162552, Note_on_c, 0, 72, 0
2, 162560, Note_on_c, 0, 64, 0
2, 162572, Note_on_c, 0, 54, 0
2, 162684, Control_c, 0, 64, 0
2, 162788, Note_on_c, 0, 70, 35
2, 162788, Note_on_c, 0, 62, 31
2, 162792, Note_on_c, 0, 58, 33
2, 162804, Note_on_c, 0, 55, 40
2, 162808, Note_on_c, 0, 67, 35
2, 162896, Note_on_c, 0, 67, 0
2, 162896, Note_on_c, 0, 62, 0
2, 162900, Note_on_c, 0, 55, 0
2, 162900, Note_on_c, 0, 58, 0
2, 162908, Note_on_c, 0, 70, 0
2, 163160, Control_c, 0, 64, 127
2, 163512, Control_c, 0, 64, 0
2, 163548, Note_on_c, 0, 68, 47
2, 163552, Note_on_c, 0, 64, 51
2, 163556, Note_on_c, 0, 72, 52
2, 163556, Note_on_c, 0, 66, 36
2, 163560, Note_on_c, 0, 61, 53
2, 163604, Note_on_c, 0, 64, 0
2, 163608, Note_on_c, 0, 66, 0
2, 163616, Note_on_c, 0, 72, 0
2, 163620, Note_on_c, 0, 68, 0
2, 163632, Note_on_c, 0, 61, 0
2, 163932, Note_on_c, 0, 68, 52
2, 163932, Note_on_c, 0, 61, 50
2, 163932, Note_on_c, 0, 72, 62
2, 163936, Note_on_c, 0, 66, 46
2, 163936, Note_on_c, 0, 64, 63
2, 163960, Control_c, 0, 64, 127
2, 164044, Note_on_c, 0, 66, 0
2, 164056, Note_on_c, 0, 61, 0
2, 164056, Note_on_c, 0, 68, 0
2, 164056, Note_on_c, 0, 64, 0
2, 164072, Note_on_c, 0, 72, 0
2, 164196, Note_on_c, 0, 66, 58
2, 164200, Note_on_c, 0, 70, 57
2, 164200, Note_on_c, 0, 64, 62
2, 164224, Note_on_c, 0, 58, 11
2, 164296, Control_c, 0, 64, 0
2, 164304, Note_on_c, 0, 64, 0
2, 164316, Note_on_c, 0, 70, 0
2, 164324, Note_on_c, 0, 66, 0
2, 164328, Note_on_c, 0, 58, 0
2, 164388, Note_on_c, 0, 57, 33
2, 164392, Note_on_c, 0, 69, 49
2, 164400, Note_on_c, 0, 60, 36
2, 164404, Note_on_c, 0, 64, 40
2, 164512, Note_on_c, 0, 64, 0
2, 164512, Note_on_c, 0, 57, 0
2, 164516, Note_on_c, 0, 60, 0
2, 164524, Note_on_c, 0, 69, 0
2, 164604, Note_on_c, 0, 64, 56
2, 164608, Note_on_c, 0, 69, 45
2, 164608, Note_on_c, 0, 60, 51
2, 164620, Note_on_c, 0, 57, 38
2, 164660, Note_on_c, 0, 57, 0
2, 164660, Note_on_c, 0, 60, 0
2, 164664, Note_on_c, 0, 64, 0
2, 164668, Note_on_c, 0, 69, 0
2, 164756, Control_c, 0, 64, 127
2, 164984, Note_on_c, 0, 62, 64
2, 164988, Note_on_c, 0, 69, 68
2, 164992, Control_c, 0, 64, 0
2, 164992, Note_on_c, 0, 65, 58
2, 164992, Note_on_c, 0, 57, 62
2, 164992, Note_on_c, 0, 46, 52
2, 164996, Note_on_c, 0, 53, 49
2, 165056, Note_on_c, 0, 57, 0
2, 165080, Note_on_c, 0, 62, 0
2, 165092, Note_on_c, 0, 65, 0
2, 165104, Note_on_c, 0, 69, 0
2, 165172, Note_on_c, 0, 53, 0
2, 165192, Note_on_c, 0, 57, 60
2, 165192, Note_on_c, 0, 62, 75
2, 165192, Note_on_c, 0, 72, 78
2, 165192, Note_on_c, 0, 65, 66
2, 165200, Note_on_c, 0, 69, 68
2, 165232, Control_c, 0, 64, 127
2, 165352, Note_on_c, 0, 69, 0
2, 165364, Note_on_c, 0, 65, 0
2, 165400, Note_on_c, 0, 62, 0
2, 165404, Note_on_c, 0, 72, 0
2, 165416, Note_on_c, 0, 57, 0
2, 165492, Control_c, 0, 64, 0
2, 165508, Note_on_c, 0, 70, 60
2, 165516, Note_on_c, 0, 57, 49
2, 165524, Note_on_c, 0, 65, 45
2, 165524, Note_on_c, 0, 62, 50
2, 165552, Note_on_c, 0, 65, 0
2, 165560, Note_on_c, 0, 46, 0
2, 165564, Control_c, 0, 64, 127
2, 165568, Note_on_c, 0, 70, 0
2, 165592, Note_on_c, 0, 62, 0
2, 165664, Note_on_c, 0, 57, 0
2, 165760, Note_on_c, 0, 67, 60
2, 165764, Note_on_c, 0, 58, 60
2, 165768, Control_c, 0, 64, 0
2, 165772, Note_on_c, 0, 62, 59
2, 165780, Note_on_c, 0, 52, 42
2, 165792, Note_on_c, 0, 64, 33
2, 165900, Control_c, 0, 64, 127
2, 166052, Note_on_c, 0, 64, 0
2, 166064, Note_on_c, 0, 58, 0
2, 166072, Note_on_c, 0, 62, 0
2, 166088, Note_on_c, 0, 67, 0
2, 166132, Note_on_c, 0, 69, 69
2, 166136, Note_on_c, 0, 58, 50
2, 166136, Note_on_c, 0, 57, 49
2, 166136, Note_on_c, 0, 62, 56
2, 166148, Note_on_c, 0, 64, 45
2, 166208, Note_on_c, 0, 57, 0
2, 166232, Note_on_c, 0, 69, 0
2, 166232, Control_c, 0, 64, 0
2, 166236, Note_on_c, 0, 58, 0
2, 166236, Note_on_c, 0, 64, 0
2, 166244, Note_on_c, 0, 62, 0
2, 166272, Note_on_c, 0, 52, 0
2, 166312, Note_on_c, 0, 67, 29
2, 166356, Note_on_c, 0, 58, 5
2, 166364, Note_on_c, 0, 55, 4
2, 166408, Control_c, 0, 64, 127
2, 166428, Note_on_c, 0, 58, 0
2, 166440, Note_on_c, 0, 67, 0
2, 166516, Note_on_c, 0, 58, 64
2, 166520, Note_on_c, 0, 55, 0
2, 166524, Note_on_c, 0, 62, 68
2, 166536, Note_on_c, 0, 57, 57
2, 166540, Note_on_c, 0, 64, 43
2, 166544, Note_on_c, 0, 69, 36
2, 166548, Note_on_c, 0, 67, 27
2, 166568, Note_on_c, 0, 64, 0
2, 166576, Note_on_c, 0, 69, 0
2, 166584, Note_on_c, 0, 62, 0
2, 166588, Note_on_c, 0, 58, 0
2, 166600, Note_on_c, 0, 67, 0
2, 166600, Note_on_c, 0, 57, 0
2, 166644, Control_c, 0, 64, 0
2, 166676, Note_on_c, 0, 61, 63
2, 166676, Note_on_c, 0, 55, 54
2, 166684, Note_on_c, 0, 70, 55
2, 166684, Note_on_c, 0, 66, 52
2, 166768, Note_on_c, 0, 70, 0
2, 166784, Note_on_c, 0, 55, 0
2, 166796, Note_on_c, 0, 66, 0
2, 166816, Note_on_c, 0, 61, 0
2, 167012, Note_on_c, 0, 58, 45
2, 167016, Note_on_c, 0, 69, 55
2, 167020, Note_on_c, 0, 61, 38
2, 167024, Note_on_c, 0, 64, 53
2, 167028, Control_c, 0, 64, 127
2, 167028, Note_on_c, 0, 55, 44
2, 167148, Note_on_c, 0, 58, 0
2, 167168, Note_on_c, 0, 64, 0
2, 167172, Note_on_c, 0, 55, 0
2, 167192, Note_on_c, 0, 61, 0
2, 167284, Note_on_c, 0, 69, 0
2, 167388, Control_c, 0, 64, 0
2, 167392, Note_on_c, 0, 65, 55
2, 167396, Note_on_c, 0, 60, 37
2, 167404, Note_on_c, 0, 57, 35
2, 167420, Note_on_c, 0, 50, 40
2, 167520, Control_c, 0, 64, 127
2, 167848, Note_on_c, 0, 60, 0
2, 167928, Note_on_c, 0, 65, 0
2, 168024, Note_on_c, 0, 50, 0
2, 168040, Note_on_c, 0, 57, 0
2, 168536, Control_c, 0, 64, 0
2, 168540, Note_on_c, 0, 79, 76
2, 168540, Note_on_c, 0, 76, 69
2, 168544, Note_on_c, 0, 72, 74
2, 168548, Note_on_c, 0, 67, 71
2, 168548, Note_on_c, 0, 62, 49
2, 168552, Note_on_c, 0, 64, 54
2, 168560, Note_on_c, 0, 60, 43
2, 168640, Control_c, 0, 64, 127
2, 168700, Note_on_c, 0, 79, 0
2, 168732, Note_on_c, 0, 76, 0
2, 168784, Note_on_c, 0, 67, 0
2, 168796, Note_on_c, 0, 72, 0
2, 168808, Note_on_c, 0, 77, 76
2, 168844, Note_on_c, 0, 62, 0
2, 168852, Note_on_c, 0, 64, 0
2, 168868, Note_on_c, 0, 60, 0
2, 168896, Note_on_c, 0, 77, 0
2, 169148, Note_on_c, 0, 67, 68
2, 169156, Note_on_c, 0, 64, 58
2, 169160, Control_c, 0, 64, 0
2, 169160, Note_on_c, 0, 59, 54
2, 169172, Note_on_c, 0, 53, 33
2, 169292, Control_c, 0, 64, 127
2, 169648, Note_on_c, 0, 64, 0
2, 169664, Note_on_c, 0, 59, 0
2, 169728, Note_on_c, 0, 53, 0
2, 169856, Note_on_c, 0, 67, 0
2, 170072, Note_on_c, 0, 62, 56
2, 170148, Note_on_c, 0, 62, 0
2, 170308, Note_on_c, 0, 51, 18
2, 170336, Note_on_c, 0, 65, 64
2, 170344, Note_on_c, 0, 51, 0
2, 170344, Note_on_c, 0, 52, 53
2, 170344, Note_on_c, 0, 55, 60
2, 170348, Note_on_c, 0, 62, 60
2, 170348, Note_on_c, 0, 58, 46
2, 170360, Control_c, 0, 64, 0
2, 170364, Note_on_c, 0, 52, 0
2, 170364, Note_on_c, 0, 53, 49
2, 170716, Note_on_c, 0, 55, 0
2, 170748, Note_on_c, 0, 65, 0
2, 170760, Note_on_c, 0, 53, 0
2, 170760, Note_on_c, 0, 50, 29
2, 170772, Note_on_c, 0, 62, 0
2, 170776, Note_on_c, 0, 58, 0
2, 170852, Note_on_c, 0, 50, 0
2, 170860, Note_on_c, 0, 55, 46
2, 170864, Note_on_c, 0, 53, 50
2, 170868, Note_on_c, 0, 58, 30
2, 170868, Note_on_c, 0, 62, 36
2, 170872, Note_on_c, 0, 65, 34
2, 171088, Note_on_c, 0, 65, 0
2, 171100, Note_on_c, 0, 55, 0
2, 171112, Note_on_c, 0, 62, 0
2, 171124, Note_on_c, 0, 58, 0
2, 171140, Note_on_c, 0, 53, 0
2, 171168, Note_on_c, 0, 50, 29
2, 171240, Note_on_c, 0, 50, 0
2, 171252, Note_on_c, 0, 58, 37
2, 171260, Note_on_c, 0, 55, 47
2, 171264, Note_on_c, 0, 53, 50
2, 171268, Note_on_c, 0, 65, 40
2, 171272, Note_on_c, 0, 62, 32
2, 171304, Note_on_c, 0, 62, 0
2, 171304, Note_on_c, 0, 55, 0
2, 171316, Note_on_c, 0, 58, 0
2, 171328, Note_on_c, 0, 65, 0
2, 171332, Control_c, 0, 64, 127
2, 171344, Note_on_c, 0, 53, 0
2, 171520, Note_on_c, 0, 57, 61
2, 171532, Note_on_c, 0, 69, 74
2, 171532, Note_on_c, 0, 58, 59
2, 171532, Note_on_c, 0, 62, 64
2, 171548, Note_on_c, 0, 65, 42
2, 171580, Note_on_c, 0, 65, 0
2, 171616, Note_on_c, 0, 62, 0
2, 171624, Note_on_c, 0, 69, 0
2, 171652, Control_c, 0, 64, 0
2, 171664, Note_on_c, 0, 57, 0
2, 171668, Note_on_c, 0, 58, 0
2, 171672, Note_on_c, 0, 53, 53
2, 171688, Note_on_c, 0, 65, 41
2, 171724, Note_on_c, 0, 53, 0
2, 171756, Note_on_c, 0, 65, 0
2, 171840, Control_c, 0, 64, 127
2, 171944, Note_on_c, 0, 50, 22
2, 172004, Note_on_c, 0, 50, 0
2, 172004, Control_c, 0, 64, 0
2, 172016, Note_on_c, 0, 53, 53
2, 172040, Note_on_c, 0, 62, 54
2, 172040, Note_on_c, 0, 58, 46
2, 172044, Note_on_c, 0, 65, 53
2, 172044, Note_on_c, 0, 55, 51
2, 172052, Note_on_c, 0, 53, 0
2, 172084, Note_on_c, 0, 55, 0
2, 172100, Note_on_c, 0, 58, 0
2, 172108, Note_on_c, 0, 62, 0
2, 172116, Note_on_c, 0, 65, 0
2, 172408, Note_on_c, 0, 64, 69
2, 172416, Note_on_c, 0, 60, 64
2, 172416, Note_on_c, 0, 45, 64
2, 172424, Note_on_c, 0, 55, 53
2, 172476, Note_on_c, 0, 55, 0
2, 172504, Note_on_c, 0, 45, 0
2, 172504, Note_on_c, 0, 60, 0
2, 172524, Note_on_c, 0, 64, 0
2, 172776, Control_c, 0, 64, 127
2, 172792, Note_on_c, 0, 70, 68
2, 172796, Note_on_c, 0, 74, 77
2, 172796, Note_on_c, 0, 44, 59
2, 172796, Note_on_c, 0, 65, 80
2, 172800, Note_on_c, 0, 54, 56
2, 172852, Note_on_c, 0, 65, 0
2, 172860, Note_on_c, 0, 44, 0
2, 172868, Note_on_c, 0, 70, 0
2, 172872, Note_on_c, 0, 74, 0
2, 172884, Note_on_c, 0, 54, 0
2, 173048, Note_on_c, 0, 70, 59
2, 173056, Note_on_c, 0, 77, 66
2, 173060, Note_on_c, 0, 65, 67
2, 173072, Note_on_c, 0, 70, 0
2, 173072, Note_on_c, 0, 60, 54
2, 173072, Note_on_c, 0, 58, 38
2, 173092, Note_on_c, 0, 65, 0
2, 173100, Note_on_c, 0, 60, 0
2, 173104, Note_on_c, 0, 77, 0
2, 173104, Note_on_c, 0, 58, 0
2, 173156, Control_c, 0, 64, 0
2, 173180, Note_on_c, 0, 82, 57
2, 173184, Note_on_c, 0, 86, 68
2, 173188, Note_on_c, 0, 77, 66
2, 173188, Note_on_c, 0, 65, 73
2, 173192, Note_on_c, 0, 58, 50
2, 173192, Note_on_c, 0, 54, 51
2, 173192, Note_on_c, 0, 60, 48
2, 173232, Control_c, 0, 64, 127
2, 173308, Note_on_c, 0, 77, 0
2, 173308, Note_on_c, 0, 82, 0
2, 173312, Note_on_c, 0, 86, 0
2, 173348, Note_on_c, 0, 60, 0
2, 173352, Note_on_c, 0, 65, 0
2, 173404, Note_on_c, 0, 58, 0
2, 173404, Note_on_c, 0, 54, 0
2, 173432, Note_on_c, 0, 81, 74
2, 173436, Note_on_c, 0, 88, 72
2, 173436, Note_on_c, 0, 93, 69
2, 173436, Note_on_c, 0, 64, 73
2, 173448, Note_on_c, 0, 59, 66
2, 173448, Control_c, 0, 64, 0
2, 173448, Note_on_c, 0, 53, 64
2, 173672, Control_c, 0, 64, 127
2, 174168, Note_on_c, 0, 81, 0
2, 174184, Note_on_c, 0, 88, 0
2, 174204, Note_on_c, 0, 93, 0
2, 174244, Note_on_c, 0, 53, 0
2, 174256, Note_on_c, 0, 64, 0
2, 174264, Note_on_c, 0, 59, 0
2, 174324, Control_c, 0, 64, 0
2, 174332, Note_on_c, 0, 96, 59
2, 174340, Note_on_c, 0, 64, 49
2, 174344, Note_on_c, 0, 59, 42
2, 174352, Note_on_c, 0, 91, 36
2, 174352, Note_on_c, 0, 84, 27
2, 174376, Note_on_c, 0, 64, 0
2, 174380, Note_on_c, 0, 59, 0
2, 174384, Note_on_c, 0, 91, 0
2, 174392, Note_on_c, 0, 84, 0
2, 174396, Note_on_c, 0, 96, 0
2, 174724, Control_c, 0, 64, 127
2, 175056, Control_c, 0, 64, 0
2, 175080, Note_on_c, 0, 62, 32
2, 175084, Note_on_c, 0, 58, 37
2, 175088, Note_on_c, 0, 53, 28
2, 175092, Note_on_c, 0, 101, 36
2, 175096, Note_on_c, 0, 105, 51
2, 175100, Note_on_c, 0, 57, 42
2, 175100, Note_on_c, 0, 93, 32
2, 175104, Note_on_c, 0, 98, 34
2, 175180, Note_on_c, 0, 93, 0
2, 175192, Note_on_c, 0, 98, 0
2, 175192, Note_on_c, 0, 57, 0
2, 175200, Note_on_c, 0, 58, 0
2, 175204, Note_on_c, 0, 62, 0
2, 175208, Note_on_c, 0, 105, 0
2, 175216, Note_on_c, 0, 101, 0
2, 175220, Note_on_c, 0, 53, 0
2, 175488, Control_c, 0, 64, 127
2, 175492, Note_on_c, 0, 105, 58
2, 175492, Note_on_c, 0, 62, 41
2, 175492, Note_on_c, 0, 93, 50
2, 175496, Note_on_c, 0, 53, 40
2, 175500, Note_on_c, 0, 58, 35
2, 175508, Note_on_c, 0, 101, 31
2, 175512, Note_on_c, 0, 57, 35
2, 175620, Note_on_c, 0, 101, 0
2, 175636, Note_on_c, 0, 93, 0
2, 175644, Note_on_c, 0, 58, 0
2, 175652, Note_on_c, 0, 105, 0
2, 175652, Note_on_c, 0, 57, 0
2, 175656, Note_on_c, 0, 62, 0
2, 175668, Note_on_c, 0, 53, 0
2, 175740, Note_on_c, 0, 53, 46
2, 175756, Note_on_c, 0, 62, 37
2, 175760, Note_on_c, 0, 58, 39
2, 175760, Note_on_c, 0, 93, 58
2, 175760, Note_on_c, 0, 105, 60
2, 175792, Note_on_c, 0, 62, 0
2, 175804, Note_on_c, 0, 53, 0
2, 175820, Note_on_c, 0, 93, 0
2, 175820, Note_on_c, 0, 58, 0
2, 175824, Note_on_c, 0, 105, 0
2, 175856, Control_c, 0, 64, 0
2, 175868, Note_on_c, 0, 62, 43
2, 175872, Note_on_c, 0, 58, 33
2, 175884, Note_on_c, 0, 52, 47
2, 175884, Note_on_c, 0, 93, 43
2, 175884, Note_on_c, 0, 105, 44
2, 176056, Note_on_c, 0, 93, 0
2, 176060, Note_on_c, 0, 52, 0
2, 176064, Note_on_c, 0, 105, 0
2, 176068, Note_on_c, 0, 62, 0
2, 176072, Note_on_c, 0, 58, 0
2, 176128, Note_on_c, 0, 105, 48
2, 176132, Note_on_c, 0, 93, 45
2, 176132, Note_on_c, 0, 62, 47
2, 176132, Note_on_c, 0, 58, 50
2, 176136, Note_on_c, 0, 52, 35
2, 176176, Note_on_c, 0, 52, 0
2, 176176, Note_on_c, 0, 93, 0
2, 176180, Note_on_c, 0, 105, 0
2, 176188, Note_on_c, 0, 62, 0
2, 176192, Note_on_c, 0, 58, 0
2, 176388, Control_c, 0, 64, 127
2, 176568, Control_c, 0, 64, 0
2, 176636, Note_on_c, 0, 64, 47
2, 176640, Note_on_c, 0, 105, 65
2, 176644, Note_on_c, 0, 93, 57
2, 176644, Note_on_c, 0, 60, 40
2, 176648, Note_on_c, 0, 53, 32
2, 176652, Note_on_c, 0, 57, 40
2, 176736, Note_on_c, 0, 93, 0
2, 176756, Note_on_c, 0, 64, 0
2, 176756, Note_on_c, 0, 105, 0
2, 176760, Note_on_c, 0, 60, 0
2, 176772, Note_on_c, 0, 53, 0
2, 176772, Note_on_c, 0, 57, 0
2, 177024, Note_on_c, 0, 64, 54
2, 177032, Note_on_c, 0, 105, 68
2, 177036, Note_on_c, 0, 53, 33
2, 177036, Note_on_c, 0, 60, 44
2, 177040, Note_on_c, 0, 93, 44
2, 177048, Note_on_c, 0, 57, 41
2, 177056, Control_c, 0, 64, 127
2, 177176, Note_on_c, 0, 105, 0
2, 177180, Note_on_c, 0, 93, 0
2, 177200, Note_on_c, 0, 64, 0
2, 177200, Note_on_c, 0, 53, 0
2, 177200, Note_on_c, 0, 57, 0
2, 177204, Note_on_c, 0, 60, 0
2, 177296, Note_on_c, 0, 64, 53
2, 177300, Note_on_c, 0, 105, 68
2, 177304, Note_on_c, 0, 93, 59
2, 177308, Note_on_c, 0, 60, 39
2, 177312, Note_on_c, 0, 57, 36
2, 177316, Note_on_c, 0, 53, 27
2, 177328, Note_on_c, 0, 100, 29
2, 177344, Note_on_c, 0, 53, 0
2, 177344, Note_on_c, 0, 60, 0
2, 177344, Note_on_c, 0, 57, 0
2, 177348, Note_on_c, 0, 64, 0
2, 177352, Note_on_c, 0, 93, 0
2, 177356, Note_on_c, 0, 100, 0
2, 177360, Note_on_c, 0, 105, 0
2, 177368, Control_c, 0, 64, 0
2, 177420, Note_on_c, 0, 93, 62
2, 177424, Note_on_c, 0, 105, 64
2, 177568, Note_on_c, 0, 105, 0
2, 177580, Note_on_c, 0, 93, 0
2, 177680, Note_on_c, 0, 56, 69
2, 177680, Note_on_c, 0, 62, 69
2, 177684, Note_on_c, 0, 67, 69
2, 177684, Note_on_c, 0, 105, 74
2, 177684, Note_on_c, 0, 93, 71
2, 177708, Note_on_c, 0, 100, 35
2, 177804, Control_c, 0, 64, 127
2, 178012, Note_on_c, 0, 62, 0
2, 178052, Note_on_c, 0, 67, 0
2, 178080, Note_on_c, 0, 100, 0
2, 178088, Note_on_c, 0, 93, 0
2, 178100, Note_on_c, 0, 105, 0
2, 178132, Note_on_c, 0, 56, 0
2, 178160, Control_c, 0, 64, 0
2, 178188, Note_on_c, 0, 64, 55
2, 178192, Note_on_c, 0, 55, 46
2, 178200, Note_on_c, 0, 60, 50
2, 178204, Note_on_c, 0, 93, 56
2, 178204, Note_on_c, 0, 105, 43
2, 178216, Note_on_c, 0, 57, 36
2, 178220, Note_on_c, 0, 100, 43
2, 178276, Control_c, 0, 64, 127
2, 178304, Note_on_c, 0, 60, 0
2, 178308, Note_on_c, 0, 55, 0
2, 178312, Note_on_c, 0, 93, 0
2, 178324, Note_on_c, 0, 57, 0
2, 178328, Note_on_c, 0, 100, 0
2, 178340, Note_on_c, 0, 105, 0
2, 178340, Note_on_c, 0, 64, 0
2, 178420, Control_c, 0, 64, 0
2, 178576, Note_on_c, 0, 105, 68
2, 178580, Note_on_c, 0, 55, 53
2, 178580, Note_on_c, 0, 93, 61
2, 178580, Note_on_c, 0, 64, 54
2, 178584, Note_on_c, 0, 100, 55
2, 178588, Note_on_c, 0, 57, 48
2, 178592, Control_c, 0, 64, 127
2, 178600, Note_on_c, 0, 60, 34
2, 178704, Note_on_c, 0, 100, 0
2, 178704, Note_on_c, 0, 105, 0
2, 178712, Note_on_c, 0, 93, 0
2, 178720, Note_on_c, 0, 64, 0
2, 178724, Note_on_c, 0, 60, 0
2, 178728, Note_on_c, 0, 55, 0
2, 178736, Note_on_c, 0, 57, 0
2, 178824, Note_on_c, 0, 55, 60
2, 178828, Note_on_c, 0, 64, 53
2, 178832, Note_on_c, 0, 93, 66
2, 178832, Note_on_c, 0, 105, 68
2, 178840, Note_on_c, 0, 100, 55
2, 178840, Note_on_c, 0, 60, 44
2, 178848, Note_on_c, 0, 57, 38
2, 178876, Note_on_c, 0, 57, 0
2, 178880, Note_on_c, 0, 93, 0
2, 178880, Note_on_c, 0, 100, 0
2, 178884, Note_on_c, 0, 55, 0
2, 178888, Note_on_c, 0, 105, 0
2, 178892, Note_on_c, 0, 64, 0
2, 178904, Note_on_c, 0, 60, 0
2, 178916, Control_c, 0, 64, 0
2, 178976, Note_on_c, 0, 65, 61
2, 178980, Note_on_c, 0, 54, 61
2, 178980, Note_on_c, 0, 60, 37
2, 178984, Note_on_c, 0, 58, 42
2, 178992, Note_on_c, 0, 94, 57
2, 178992, Note_on_c, 0, 106, 60
2, 179004, Note_on_c, 0, 101, 45
2, 179036, Control_c, 0, 64, 127
2, 179088, Note_on_c, 0, 101, 0
2, 179112, Note_on_c, 0, 94, 0
2, 179112, Note_on_c, 0, 106, 0
2, 179136, Note_on_c, 0, 65, 0
2, 179136, Note_on_c, 0, 58, 0
2, 179160, Note_on_c, 0, 54, 0
2, 179172, Note_on_c, 0, 60, 0
2, 179232, Note_on_c, 0, 101, 63
2, 179244, Note_on_c, 0, 54, 55
2, 179244, Note_on_c, 0, 65, 62
2, 179248, Note_on_c, 0, 60, 44
2, 179248, Note_on_c, 0, 89, 37
2, 179252, Note_on_c, 0, 58, 46
2, 179260, Control_c, 0, 64, 0
2, 179260, Note_on_c, 0, 91, 27
2, 179288, Note_on_c, 0, 91, 0
2, 179360, Control_c, 0, 64, 127
2, 179536, Note_on_c, 0, 89, 0
2, 179556, Note_on_c, 0, 101, 0
2, 179572, Note_on_c, 0, 60, 0
2, 179604, Note_on_c, 0, 65, 0
2, 179676, Note_on_c, 0, 58, 0
2, 179680, Note_on_c, 0, 54, 0
2, 179684, Control_c, 0, 64, 0
2, 179712, Note_on_c, 0, 64, 54
2, 179716, Note_on_c, 0, 93, 67
2, 179720, Note_on_c, 0, 105, 60
2, 179724, Note_on_c, 0, 53, 40
2, 179728, Note_on_c, 0, 59, 54
2, 179732, Note_on_c, 0, 100, 54
2, 179808, Note_on_c, 0, 105, 0
2, 179812, Note_on_c, 0, 100, 0
2, 179840, Note_on_c, 0, 93, 0
2, 179860, Note_on_c, 0, 64, 0
2, 179868, Note_on_c, 0, 59, 0
2, 179876, Note_on_c, 0, 53, 0
2, 180384, Note_on_c, 0, 51, 25
2, 180460, Note_on_c, 0, 52, 31
2, 180472, Note_on_c, 0, 64, 51
2, 180472, Note_on_c, 0, 53, 57
2, 180476, Note_on_c, 0, 59, 49
2, 180476, Note_on_c, 0, 69, 51
2, 180480, Note_on_c, 0, 51, 0
2, 180492, Note_on_c, 0, 52, 0
2, 180664, Note_on_c, 0, 64, 0
2, 180716, Note_on_c, 0, 59, 0
2, 180792, Note_on_c, 0, 69, 0
2, 180808, Note_on_c, 0, 53, 0
2, 180844, Note_on_c, 0, 54, 38
2, 180848, Note_on_c, 0, 63, 56
2, 180856, Note_on_c, 0, 59, 47
2, 180872, Note_on_c, 0, 66, 27
2, 181040, Note_on_c, 0, 59, 0
2, 181064, Note_on_c, 0, 66, 0
2, 181104, Note_on_c, 0, 54, 0
2, 181128, Note_on_c, 0, 51, 18
2, 181148, Note_on_c, 0, 63, 0
2, 181224, Note_on_c, 0, 51, 0
2, 181224, Note_on_c, 0, 53, 38
2, 181224, Note_on_c, 0, 65, 48
2, 181232, Note_on_c, 0, 62, 49
2, 181240, Note_on_c, 0, 58, 26
2, 181312, Note_on_c, 0, 62, 0
2, 181320, Note_on_c, 0, 65, 0
2, 181348, Note_on_c, 0, 58, 0
2, 181352, Note_on_c, 0, 53, 0
2, 181400, Control_c, 0, 64, 127
2, 181488, Note_on_c, 0, 50, 58
2, 181492, Control_c, 0, 64, 0
2, 181492, Note_on_c, 0, 58, 48
2, 181492, Note_on_c, 0, 65, 55
2, 181496, Note_on_c, 0, 55, 58
2, 181500, Note_on_c, 0, 62, 52
2, 181612, Note_on_c, 0, 65, 0
2, 181636, Note_on_c, 0, 55, 0
2, 181648, Note_on_c, 0, 58, 0
2, 181656, Note_on_c, 0, 62, 0
2, 181688, Control_c, 0, 64, 127
2, 181768, Note_on_c, 0, 67, 73
2, 181772, Note_on_c, 0, 50, 0
2, 181780, Note_on_c, 0, 53, 42
2, 181816, Note_on_c, 0, 53, 0
2, 181832, Note_on_c, 0, 67, 0
2, 181884, Note_on_c, 0, 51, 31
2, 181908, Note_on_c, 0, 51, 0
2, 181912, Note_on_c, 0, 65, 24
2, 181960, Note_on_c, 0, 65, 0
2, 181968, Control_c, 0, 64, 0
2, 182256, Note_on_c, 0, 58, 62
2, 182264, Note_on_c, 0, 67, 66
2, 182264, Note_on_c, 0, 64, 68
2, 182268, Note_on_c, 0, 55, 62
2, 182304, Note_on_c, 0, 58, 0
2, 182312, Note_on_c, 0, 67, 0
2, 182328, Note_on_c, 0, 64, 0
2, 182328, Note_on_c, 0, 55, 0
2, 182492, Note_on_c, 0, 67, 64
2, 182492, Control_c, 0, 64, 127
2, 182496, Note_on_c, 0, 58, 60
2, 182512, Note_on_c, 0, 55, 34
2, 182516, Note_on_c, 0, 64, 36
2, 182544, Note_on_c, 0, 64, 0
2, 182544, Note_on_c, 0, 58, 0
2, 182552, Note_on_c, 0, 55, 0
2, 182552, Note_on_c, 0, 67, 0
2, 182608, Note_on_c, 0, 55, 14
2, 182624, Note_on_c, 0, 48, 37
2, 182644, Note_on_c, 0, 55, 0
2, 182652, Note_on_c, 0, 48, 0
2, 182708, Control_c, 0, 64, 0
2, 182916, Note_on_c, 0, 72, 59
2, 182928, Note_on_c, 0, 61, 34
2, 182932, Note_on_c, 0, 60, 45
2, 182940, Note_on_c, 0, 72, 0
2, 182944, Note_on_c, 0, 55, 35
2, 182956, Note_on_c, 0, 60, 0
2, 182964, Note_on_c, 0, 61, 0
2, 182976, Note_on_c, 0, 55, 0
2, 183140, Note_on_c, 0, 72, 60
2, 183140, Control_c, 0, 64, 127
2, 183144, Note_on_c, 0, 65, 60
2, 183144, Note_on_c, 0, 60, 34
2, 183152, Note_on_c, 0, 61, 27
2, 183152, Note_on_c, 0, 69, 38
2, 183156, Note_on_c, 0, 55, 39
2, 183180, Note_on_c, 0, 69, 0
2, 183180, Control_c, 0, 64, 0
2, 183188, Note_on_c, 0, 65, 0
2, 183196, Note_on_c, 0, 72, 0
2, 183200, Note_on_c, 0, 61, 0
2, 183204, Note_on_c, 0, 60, 0
2, 183220, Note_on_c, 0, 55, 0
2, 183248, Note_on_c, 0, 61, 29
2, 183252, Note_on_c, 0, 60, 36
2, 183256, Note_on_c, 0, 55, 17
2, 183256, Note_on_c, 0, 69, 42
2, 183292, Note_on_c, 0, 60, 0
2, 183296, Note_on_c, 0, 69, 0
2, 183304, Note_on_c, 0, 61, 0
2, 183316, Note_on_c, 0, 55, 0
2, 183412, Note_on_c, 0, 72, 65
2, 183412, Note_on_c, 0, 64, 71
2, 183412, Note_on_c, 0, 69, 62
2, 183416, Note_on_c, 0, 54, 67
2, 183420, Note_on_c, 0, 60, 64
2, 183588, Control_c, 0, 64, 127
2, 183828, Note_on_c, 0, 60, 0
2, 183828, Note_on_c, 0, 64, 0
2, 183832, Note_on_c, 0, 54, 0
2, 183864, Note_on_c, 0, 69, 0
2, 183904, Control_c, 0, 64, 0
2, 183908, Note_on_c, 0, 60, 45
2, 183912, Note_on_c, 0, 68, 55
2, 183912, Note_on_c, 0, 64, 48
2, 183912, Note_on_c, 0, 54, 47
2, 184028, Control_c, 0, 64, 127
2, 184064, Note_on_c, 0, 60, 0
2, 184104, Note_on_c, 0, 64, 0
2, 184140, Note_on_c, 0, 68, 0
2, 184156, Note_on_c, 0, 72, 0
2, 184160, Note_on_c, 0, 54, 0
2, 184180, Note_on_c, 0, 67, 58
2, 184184, Note_on_c, 0, 59, 45
2, 184184, Note_on_c, 0, 64, 42
2, 184204, Control_c, 0, 64, 0
2, 184204, Note_on_c, 0, 53, 46
2, 184304, Control_c, 0, 64, 127
2, 184348, Note_on_c, 0, 64, 0
2, 184360, Note_on_c, 0, 67, 0
2, 184396, Note_on_c, 0, 53, 0
2, 184416, Note_on_c, 0, 59, 0
2, 184572, Note_on_c, 0, 69, 63
2, 184576, Note_on_c, 0, 76, 60
2, 184576, Note_on_c, 0, 77, 60
2, 184576, Note_on_c, 0, 64, 71
2, 184584, Note_on_c, 0, 65, 53
2, 184588, Note_on_c, 0, 59, 58
2, 184588, Note_on_c, 0, 53, 59
2, 184592, Note_on_c, 0, 67, 56
2, 184616, Note_on_c, 0, 67, 0
2, 184624, Control_c, 0, 64, 0
2, 184636, Note_on_c, 0, 77, 0
2, 184768, Control_c, 0, 64, 127
2, 184960, Note_on_c, 0, 64, 0
2, 184960, Note_on_c, 0, 69, 0
2, 184964, Note_on_c, 0, 65, 0
2, 184972, Note_on_c, 0, 76, 0
2, 184976, Note_on_c, 0, 53, 0
2, 184984, Note_on_c, 0, 59, 0
2, 185068, Control_c, 0, 64, 0
2, 185076, Note_on_c, 0, 59, 40
2, 185080, Note_on_c, 0, 65, 36
2, 185084, Note_on_c, 0, 69, 57
2, 185084, Note_on_c, 0, 62, 39
2, 185088, Note_on_c, 0, 76, 35
2, 185096, Note_on_c, 0, 53, 30
2, 185168, Note_on_c, 0, 53, 0
2, 185184, Note_on_c, 0, 69, 0
2, 185184, Note_on_c, 0, 62, 0
2, 185192, Note_on_c, 0, 65, 0
2, 185204, Note_on_c, 0, 76, 0
2, 185212, Note_on_c, 0, 59, 0
2, 185468, Note_on_c, 0, 65, 50
2, 185472, Note_on_c, 0, 62, 39
2, 185476, Control_c, 0, 64, 127
2, 185476, Note_on_c, 0, 74, 47
2, 185476, Note_on_c, 0, 59, 37
2, 185480, Note_on_c, 0, 69, 48
2, 185488, Note_on_c, 0, 53, 36
2, 185556, Note_on_c, 0, 59, 0
2, 185564, Note_on_c, 0, 62, 0
2, 185604, Note_on_c, 0, 74, 0
2, 185608, Note_on_c, 0, 65, 0
2, 185612, Note_on_c, 0, 53, 0
2, 185616, Note_on_c, 0, 69, 0
2, 185804, Control_c, 0, 64, 0
2, 185844, Note_on_c, 0, 58, 35
2, 185844, Note_on_c, 0, 67, 48
2, 185848, Note_on_c, 0, 62, 34
2, 185852, Note_on_c, 0, 72, 33
2, 185852, Note_on_c, 0, 52, 37
2, 186000, Control_c, 0, 64, 127
2, 186216, Note_on_c, 0, 62, 0
2, 186256, Note_on_c, 0, 52, 0
2, 186256, Note_on_c, 0, 67, 0
2, 186264, Note_on_c, 0, 72, 0
2, 186280, Note_on_c, 0, 58, 0
2, 186600, Control_c, 0, 64, 0
2, 186604, Note_on_c, 0, 71, 41
2, 186604, Note_on_c, 0, 74, 40
2, 186608, Note_on_c, 0, 64, 36
2, 186608, Note_on_c, 0, 68, 45
2, 186616, Note_on_c, 0, 60, 37
2, 186620, Note_on_c, 0, 54, 37
2, 186732, Control_c, 0, 64, 127
2, 186996, Note_on_c, 0, 60, 0
2, 187028, Note_on_c, 0, 54, 0
2, 187040, Note_on_c, 0, 74, 0
2, 187048, Note_on_c, 0, 68, 0
2, 187048, Note_on_c, 0, 64, 0
2, 187064, Note_on_c, 0, 71, 0
2, 187360, Control_c, 0, 64, 0
2, 187380, Note_on_c, 0, 55, 46
2, 187380, Note_on_c, 0, 70, 44
2, 187384, Note_on_c, 0, 67, 47
2, 187384, Note_on_c, 0, 62, 45
2, 187392, Note_on_c, 0, 58, 34
2, 187476, Control_c, 0, 64, 127
2, 187512, Note_on_c, 0, 62, 0
2, 187548, Note_on_c, 0, 67, 0
2, 187584, Note_on_c, 0, 70, 0
2, 187760, Note_on_c, 0, 76, 91
2, 187776, Note_on_c, 0, 58, 0
2, 187788, Note_on_c, 0, 55, 0
2, 187896, Note_on_c, 0, 76, 0
2, 188124, Control_c, 0, 64, 0
2, 188128, Note_on_c, 0, 74, 65
2, 188132, Note_on_c, 0, 70, 50
2, 188136, Note_on_c, 0, 68, 39
2, 188144, Note_on_c, 0, 58, 43
2, 188148, Note_on_c, 0, 64, 20
2, 188228, Control_c, 0, 64, 127
2, 188344, Note_on_c, 0, 74, 0
2, 188376, Note_on_c, 0, 70, 0
2, 188388, Note_on_c, 0, 68, 0
2, 188420, Note_on_c, 0, 58, 0
2, 188424, Note_on_c, 0, 64, 0
2, 188512, Control_c, 0, 64, 0
2, 188516, Note_on_c, 0, 58, 45
2, 188516, Note_on_c, 0, 68, 51
2, 188520, Note_on_c, 0, 64, 53
2, 188528, Note_on_c, 0, 72, 50
2, 188588, Control_c, 0, 64, 127
2, 188620, Note_on_c, 0, 58, 0
2, 188652, Note_on_c, 0, 64, 0
2, 188792, Note_on_c, 0, 68, 0
2, 188848, Note_on_c, 0, 72, 0
2, 188908, Note_on_c, 0, 61, 38
2, 188912, Control_c, 0, 64, 0
2, 188916, Note_on_c, 0, 69, 54
2, 188916, Note_on_c, 0, 60, 36
2, 188916, Note_on_c, 0, 65, 51
2, 188924, Note_on_c, 0, 55, 45
2, 189052, Control_c, 0, 64, 127
2, 189380, Note_on_c, 0, 65, 0
2, 189424, Note_on_c, 0, 69, 0
2, 189432, Note_on_c, 0, 61, 0
2, 189448, Note_on_c, 0, 60, 0
2, 189472, Note_on_c, 0, 55, 0
2, 189692, Note_on_c, 0, 64, 48
2, 189692, Control_c, 0, 64, 0
2, 189692, Note_on_c, 0, 68, 43
2, 189696, Note_on_c, 0, 72, 48
2, 189700, Note_on_c, 0, 60, 41
2, 189708, Note_on_c, 0, 54, 37
2, 189840, Control_c, 0, 64, 127
2, 190036, Note_on_c, 0, 60, 0
2, 190108, Note_on_c, 0, 54, 0
2, 190112, Note_on_c, 0, 72, 0
2, 190120, Note_on_c, 0, 64, 0
2, 190128, Note_on_c, 0, 68, 0
2, 190464, Control_c, 0, 64, 0
2, 190472, Note_on_c, 0, 67, 51
2, 190476, Note_on_c, 0, 58, 32
2, 190480, Note_on_c, 0, 55, 40
2, 190484, Note_on_c, 0, 62, 43
2, 190492, Note_on_c, 0, 46, 27
2, 190588, Control_c, 0, 64, 127
2, 190656, Note_on_c, 0, 67, 0
2, 190668, Note_on_c, 0, 58, 0
2, 190684, Note_on_c, 0, 62, 0
2, 190944, Note_on_c, 0, 46, 0
2, 190956, Note_on_c, 0, 55, 0
2, 191092, Note_on_c, 0, 77, 95
2, 191156, Note_on_c, 0, 77, 0
2, 191188, Control_c, 0, 64, 0
2, 191472, Note_on_c, 0, 56, 46
2, 191476, Note_on_c, 0, 74, 78
2, 191480, Note_on_c, 0, 68, 65
2, 191484, Note_on_c, 0, 65, 71
2, 191484, Note_on_c, 0, 47, 38
2, 191508, Note_on_c, 0, 65, 0
2, 191512, Note_on_c, 0, 68, 0
2, 191520, Note_on_c, 0, 47, 0
2, 191520, Note_on_c, 0, 74, 0
2, 191532, Note_on_c, 0, 56, 0
2, 191796, Control_c, 0, 64, 127
2, 191832, Note_on_c, 0, 68, 52
2, 191836, Note_on_c, 0, 56, 37
2, 191840, Note_on_c, 0, 62, 52
2, 191848, Note_on_c, 0, 71, 39
2, 191852, Note_on_c, 0, 65, 32
2, 191876, Note_on_c, 0, 71, 0
2, 191876, Note_on_c, 0, 62, 0
2, 191880, Note_on_c, 0, 65, 0
2, 191904, Note_on_c, 0, 68, 0
2, 191916, Note_on_c, 0, 56, 0
2, 191964, Control_c, 0, 64, 0
2, 191972, Note_on_c, 0, 72, 56
2, 191980, Note_on_c, 0, 65, 32
2, 191984, Note_on_c, 0, 57, 31
2, 191988, Note_on_c, 0, 48, 39
2, 191988, Note_on_c, 0, 60, 35
2, 191996, Note_on_c, 0, 69, 25
2, 192032, Note_on_c, 0, 48, 0
2, 192040, Note_on_c, 0, 60, 0
2, 192040, Note_on_c, 0, 65, 0
2, 192044, Note_on_c, 0, 57, 0
2, 192048, Note_on_c, 0, 72, 0
2, 192052, Note_on_c, 0, 69, 0
2, 192348, Note_on_c, 0, 72, 57
2, 192348, Note_on_c, 0, 65, 55
2, 192348, Note_on_c, 0, 69, 55
2, 192352, Note_on_c, 0, 60, 51
2, 192364, Note_on_c, 0, 57, 40
2, 192364, Note_on_c, 0, 48, 37
2, 192504, Control_c, 0, 64, 127
2, 192768, Note_on_c, 0, 57, 0
2, 192776, Note_on_c, 0, 60, 0
2, 192804, Note_on_c, 0, 48, 0
2, 192852, Note_on_c, 0, 65, 0
2, 192860, Note_on_c, 0, 69, 0
2, 192932, Note_on_c, 0, 72, 0
2, 193076, Control_c, 0, 64, 0
2, 193104, Note_on_c, 0, 69, 59
2, 193112, Note_on_c, 0, 48, 44
2, 193116, Note_on_c, 0, 60, 45
2, 193116, Note_on_c, 0, 65, 51
2, 193124, Note_on_c, 0, 57, 32
2, 193172, Note_on_c, 0, 60, 0
2, 193180, Note_on_c, 0, 65, 0
2, 193184, Note_on_c, 0, 48, 0
2, 193188, Note_on_c, 0, 57, 0
2, 193216, Note_on_c, 0, 69, 0
2, 193500, Note_on_c, 0, 58, 44
2, 193500, Note_on_c, 0, 65, 64
2, 193504, Note_on_c, 0, 72, 55
2, 193508, Note_on_c, 0, 62, 40
2, 193508, Note_on_c, 0, 69, 51
2, 193508, Note_on_c, 0, 60, 50
2, 193544, Note_on_c, 0, 60, 0
2, 193548, Note_on_c, 0, 62, 0
2, 193552, Note_on_c, 0, 65, 0
2, 193568, Note_on_c, 0, 72, 0
2, 193572, Note_on_c, 0, 69, 0
2, 193596, Note_on_c, 0, 58, 0
2, 193896, Note_on_c, 0, 58, 38
2, 193896, Note_on_c, 0, 69, 61
2, 193900, Note_on_c, 0, 65, 62
2, 193900, Note_on_c, 0, 72, 55
2, 193900, Note_on_c, 0, 62, 36
2, 193936, Control_c, 0, 64, 127
2, 194188, Note_on_c, 0, 62, 0
2, 194244, Note_on_c, 0, 58, 0
2, 194280, Note_on_c, 0, 65, 0
2, 194324, Note_on_c, 0, 69, 0
2, 194364, Note_on_c, 0, 72, 0
2, 194552, Note_on_c, 0, 68, 59
2, 194556, Control_c, 0, 64, 0
2, 194556, Note_on_c, 0, 72, 65
2, 194556, Note_on_c, 0, 64, 66
2, 194560, Note_on_c, 0, 58, 47
2, 194560, Note_on_c, 0, 62, 53
2, 194576, Note_on_c, 0, 52, 40
2, 194676, Control_c, 0, 64, 127
2, 194704, Note_on_c, 0, 62, 0
2, 194724, Note_on_c, 0, 72, 0
2, 194740, Note_on_c, 0, 58, 0
2, 194768, Note_on_c, 0, 68, 0
2, 194772, Note_on_c, 0, 64, 0
2, 194796, Note_on_c, 0, 52, 0
2, 195064, Note_on_c, 0, 57, 65
2, 195068, Note_on_c, 0, 65, 61
2, 195068, Control_c, 0, 64, 0
2, 195068, Note_on_c, 0, 60, 60
2, 195072, Note_on_c, 0, 62, 50
2, 195096, Note_on_c, 0, 60, 0
2, 195100, Note_on_c, 0, 62, 0
2, 195104, Note_on_c, 0, 57, 0
2, 195112, Note_on_c, 0, 65, 0
2, 195328, Note_on_c, 0, 48, 83
2, 195332, Note_on_c, 0, 47, 70
2, 195352, Note_on_c, 0, 47, 0
2, 196276, Note_on_c, 0, 48, 0
2, 196604, Control_c, 0, 64, 127
2, 196944, Control_c, 0, 64, 0
2, 196968, Control_c, 0, 64, 127
2, 196972, Note_on_c, 0, 64, 40
2, 196972, Note_on_c, 0, 58, 37
2, 197112, Note_on_c, 0, 64, 0
2, 197148, Note_on_c, 0, 58, 0
2, 197244, Note_on_c, 0, 67, 41
2, 197248, Note_on_c, 0, 63, 59
2, 197252, Note_on_c, 0, 77, 42
2, 197256, Note_on_c, 0, 72, 51
2, 197260, Control_c, 0, 64, 0
2, 197264, Note_on_c, 0, 57, 52
2, 197356, Control_c, 0, 64, 127
2, 197392, Note_on_c, 0, 67, 0
2, 197412, Note_on_c, 0, 72, 0
2, 197436, Note_on_c, 0, 77, 0
2, 197584, Note_on_c, 0, 91, 57
2, 197588, Note_on_c, 0, 79, 49
2, 197624, Note_on_c, 0, 79, 0
2, 197632, Note_on_c, 0, 91, 0
2, 197788, Note_on_c, 0, 93, 52
2, 197788, Note_on_c, 0, 81, 41
2, 197820, Note_on_c, 0, 81, 0
2, 197836, Note_on_c, 0, 93, 0
2, 197976, Note_on_c, 0, 86, 54
2, 197980, Note_on_c, 0, 98, 59
2, 198012, Note_on_c, 0, 86, 0
2, 198028, Note_on_c, 0, 98, 0
2, 198192, Note_on_c, 0, 89, 62
2, 198196, Note_on_c, 0, 101, 48
2, 198220, Note_on_c, 0, 89, 0
2, 198244, Note_on_c, 0, 101, 0
2, 198392, Note_on_c, 0, 91, 48
2, 198392, Note_on_c, 0, 103, 48
2, 198440, Note_on_c, 0, 91, 0
2, 198448, Note_on_c, 0, 103, 0
2, 198612, Note_on_c, 0, 105, 48
2, 198616, Note_on_c, 0, 93, 43
2, 198656, Note_on_c, 0, 93, 0
2, 198672, Note_on_c, 0, 105, 0
2, 198816, Note_on_c, 0, 108, 59
2, 198824, Note_on_c, 0, 96, 42
2, 198888, Note_on_c, 0, 96, 0
2, 198888, Note_on_c, 0, 108, 0
2, 199056, Note_on_c, 0, 93, 47
2, 199064, Note_on_c, 0, 105, 31
2, 199188, Note_on_c, 0, 57, 0
2, 199192, Note_on_c, 0, 63, 0
2, 199280, Note_on_c, 0, 105, 0
2, 199284, Note_on_c, 0, 93, 0
2, 199284, End_track
3, 0, Start_track
3, 0, Program_c, 1, 32
3, 0, Control_c, 1, 7, 115
3, 0, Program_c, 1, 32
3, 236, Note_on_c, 1, 33, 80
3, 356, Note_on_c, 1, 33, 0
3, 760, Note_on_c, 1, 32, 64
3, 1144, Note_on_c, 1, 32, 0
3, 1152, Note_on_c, 1, 30, 53
3, 1512, Note_on_c, 1, 30, 0
3, 1544, Note_on_c, 1, 31, 64
3, 2176, Note_on_c, 1, 44, 75
3, 2288, Note_on_c, 1, 44, 0
3, 2292, Note_on_c, 1, 31, 0
3, 2308, Note_on_c, 1, 43, 46
3, 2688, Note_on_c, 1, 38, 57
3, 2692, Note_on_c, 1, 43, 0
3, 2964, Note_on_c, 1, 35, 39
3, 2968, Note_on_c, 1, 38, 0
3, 3044, Note_on_c, 1, 35, 0
3, 3064, Note_on_c, 1, 36, 66
3, 3336, Note_on_c, 1, 34, 28
3, 3428, Note_on_c, 1, 36, 0
3, 3428, Note_on_c, 1, 45, 74
3, 3448, Note_on_c, 1, 34, 0
3, 3720, Note_on_c, 1, 36, 36
3, 3752, Note_on_c, 1, 36, 0
3, 3812, Note_on_c, 1, 45, 0
3, 3820, Note_on_c, 1, 43, 54
3, 4080, Note_on_c, 1, 48, 70
3, 4100, Note_on_c, 1, 43, 0
3, 4356, Note_on_c, 1, 48, 0
3, 4372, Note_on_c, 1, 39, 56
3, 4472, Note_on_c, 1, 39, 0
3, 4480, Note_on_c, 1, 40, 59
3, 4512, Note_on_c, 1, 40, 0
3, 4588, Pitch_bend_c, 1, 8192
3, 4592, Pitch_bend_c, 1, 8192
3, 4596, Pitch_bend_c, 1, 7680
3, 4600, Pitch_bend_c, 1, 7168
3, 4604, Pitch_bend_c, 1, 6528
3, 4608, Pitch_bend_c, 1, 6016
3, 4612, Pitch_bend_c, 1, 5632
3, 4616, Pitch_bend_c, 1, 5120
3, 4620, Pitch_bend_c, 1, 4736
3, 4624, Pitch_bend_c, 1, 4480
3, 4624, Note_on_c, 1, 41, 60
3, 4628, Pitch_bend_c, 1, 4096
3, 4636, Pitch_bend_c, 1, 3840
3, 4640, Pitch_bend_c, 1, 3712
3, 4644, Pitch_bend_c, 1, 3584
3, 4652, Pitch_bend_c, 1, 3328
3, 4660, Pitch_bend_c, 1, 3200
3, 4680, Pitch_bend_c, 1, 3328
3, 4684, Pitch_bend_c, 1, 3456
3, 4696, Pitch_bend_c, 1, 3584
3, 4704, Pitch_bend_c, 1, 3840
3, 4708, Pitch_bend_c, 1, 3968
3, 4712, Pitch_bend_c, 1, 4224
3, 4716, Pitch_bend_c, 1, 4352
3, 4724, Pitch_bend_c, 1, 4480
3, 4736, Pitch_bend_c, 1, 4736
3, 4752, Pitch_bend_c, 1, 4864
3, 4756, Pitch_bend_c, 1, 4992
3, 4764, Pitch_bend_c, 1, 5120
3, 4772, Pitch_bend_c, 1, 5504
3, 4776, Pitch_bend_c, 1, 5632
3, 4780, Pitch_bend_c, 1, 5760
3, 4788, Pitch_bend_c, 1, 5888
3, 4792, Pitch_bend_c, 1, 6016
3, 4796, Pitch_bend_c, 1, 6272
3, 4800, Pitch_bend_c, 1, 6400
3, 4808, Pitch_bend_c, 1, 6528
3, 4816, Pitch_bend_c, 1, 6784
3, 4824, Pitch_bend_c, 1, 6912
3, 4832, Pitch_bend_c, 1, 7040
3, 4836, Pitch_bend_c, 1, 7168
3, 4844, Pitch_bend_c, 1, 7296
3, 4856, Pitch_bend_c, 1, 7552
3, 4860, Pitch_bend_c, 1, 7680
3, 4864, Pitch_bend_c, 1, 8192
3, 4868, Pitch_bend_c, 1, 8192
3, 4876, Pitch_bend_c, 1, 8192
3, 4880, Pitch_bend_c, 1, 8192
3, 4888, Pitch_bend_c, 1, 8192
3, 5368, Note_on_c, 1, 41, 0
3, 5368, Note_on_c, 1, 34, 58
3, 5876, Note_on_c, 1, 46, 61
3, 5920, Note_on_c, 1, 34, 0
3, 5972, Note_on_c, 1, 46, 0
3, 5988, Note_on_c, 1, 34, 45
3, 6120, Note_on_c, 1, 45, 67
3, 6152, Note_on_c, 1, 34, 0
3, 6768, Note_on_c, 1, 40, 46
3, 6864, Note_on_c, 1, 40, 0
3, 6904, Note_on_c, 1, 45, 0
3, 6904, Note_on_c, 1, 44, 62
3, 7160, Note_on_c, 1, 39, 31
3, 7184, Note_on_c, 1, 39, 0
3, 7296, Note_on_c, 1, 32, 64
3, 7576, Note_on_c, 1, 39, 25
3, 7620, Note_on_c, 1, 44, 0
3, 7648, Note_on_c, 1, 39, 0
3, 7672, Note_on_c, 1, 32, 0
3, 7676, Note_on_c, 1, 43, 59
3, 8460, Note_on_c, 1, 31, 57
3, 9212, Note_on_c, 1, 31, 0
3, 9224, Note_on_c, 1, 36, 73
3, 9252, Note_on_c, 1, 43, 0
3, 9848, Note_on_c, 1, 48, 108
3, 9944, Note_on_c, 1, 36, 0
3, 9952, Note_on_c, 1, 48, 0
3, 9964, Note_on_c, 1, 46, 60
3, 10588, Note_on_c, 1, 44, 35
3, 10608, Note_on_c, 1, 34, 27
3, 10612, Note_on_c, 1, 46, 0
3, 10632, Note_on_c, 1, 34, 0
3, 10708, Note_on_c, 1, 44, 0
3, 10724, Note_on_c, 1, 45, 54
3, 11764, Note_on_c, 1, 38, 74
3, 12204, Note_on_c, 1, 37, 14
3, 12252, Note_on_c, 1, 37, 0
3, 12268, Note_on_c, 1, 38, 0
3, 12272, Note_on_c, 1, 45, 0
3, 12272, Note_on_c, 1, 43, 71
3, 13552, Note_on_c, 1, 38, 58
3, 13580, Note_on_c, 1, 38, 0
3, 13672, Note_on_c, 1, 37, 57
3, 13748, Note_on_c, 1, 37, 0
3, 13800, Note_on_c, 1, 36, 60
3, 13836, Note_on_c, 1, 43, 0
3, 14412, Note_on_c, 1, 36, 0
3, 14440, Note_on_c, 1, 37, 45
3, 14572, Note_on_c, 1, 37, 0
3, 14580, Note_on_c, 1, 38, 39
3, 15088, Note_on_c, 1, 45, 67
3, 15120, Note_on_c, 1, 45, 0
3, 15188, Note_on_c, 1, 44, 71
3, 15312, Note_on_c, 1, 44, 0
3, 15332, Note_on_c, 1, 43, 62
3, 15340, Note_on_c, 1, 38, 0
3, 15596, Note_on_c, 1, 38, 49
3, 15668, Note_on_c, 1, 38, 0
3, 15724, Note_on_c, 1, 35, 51
3, 16032, Note_on_c, 1, 43, 0
3, 16104, Note_on_c, 1, 36, 60
3, 16108, Note_on_c, 1, 35, 0
3, 16744, Note_on_c, 1, 36, 0
3, 16744, Note_on_c, 1, 34, 49
3, 16868, Note_on_c, 1, 34, 0
3, 16876, Note_on_c, 1, 33, 58
3, 17280, Note_on_c, 1, 41, 77
3, 17316, Note_on_c, 1, 33, 0
3, 17672, Note_on_c, 1, 41, 0
3, 17688, Note_on_c, 1, 34, 67
3, 18452, Note_on_c, 1, 34, 0
3, 18452, Note_on_c, 1, 40, 70
3, 18836, Note_on_c, 1, 46, 72
3, 18900, Note_on_c, 1, 40, 0
3, 19104, Note_on_c, 1, 40, 55
3, 19124, Note_on_c, 1, 40, 0
3, 19188, Note_on_c, 1, 46, 0
3, 19212, Note_on_c, 1, 45, 57
3, 19232, Note_on_c, 1, 45, 0
3, 19320, Note_on_c, 1, 40, 64
3, 19576, Note_on_c, 1, 40, 0
3, 19584, Note_on_c, 1, 37, 62
3, 19836, Note_on_c, 1, 33, 68
3, 19844, Note_on_c, 1, 37, 0
3, 19948, Note_on_c, 1, 33, 0
3, 19960, Note_on_c, 1, 38, 76
3, 20588, Note_on_c, 1, 40, 48
3, 20656, Note_on_c, 1, 40, 0
3, 20712, Note_on_c, 1, 41, 53
3, 21036, Note_on_c, 1, 38, 0
3, 21352, Note_on_c, 1, 42, 40
3, 21408, Note_on_c, 1, 41, 0
3, 21452, Note_on_c, 1, 42, 0
3, 21488, Note_on_c, 1, 43, 43
3, 21528, Note_on_c, 1, 43, 0
3, 21728, Note_on_c, 1, 38, 53
3, 21792, Note_on_c, 1, 38, 0
3, 21868, Note_on_c, 1, 31, 71
3, 22808, Note_on_c, 1, 43, 68
3, 22868, Note_on_c, 1, 43, 0
3, 22908, Note_on_c, 1, 42, 49
3, 22948, Note_on_c, 1, 42, 0
3, 23032, Note_on_c, 1, 43, 77
3, 23048, Note_on_c, 1, 31, 0
3, 23288, Note_on_c, 1, 43, 0
3, 23296, Note_on_c, 1, 36, 94
3, 23688, Note_on_c, 1, 48, 103
3, 23804, Note_on_c, 1, 48, 0
3, 23836, Note_on_c, 1, 46, 72
3, 23844, Note_on_c, 1, 36, 0
3, 24460, Note_on_c, 1, 36, 39
3, 24508, Note_on_c, 1, 36, 0
3, 24572, Note_on_c, 1, 46, 0
3, 24584, Note_on_c, 1, 45, 68
3, 25216, Note_on_c, 1, 36, 38
3, 25244, Note_on_c, 1, 36, 0
3, 25328, Note_on_c, 1, 44, 60
3, 25340, Note_on_c, 1, 45, 0
3, 25960, Note_on_c, 1, 42, 49
3, 25972, Note_on_c, 1, 44, 0
3, 26076, Note_on_c, 1, 42, 0
3, 26088, Note_on_c, 1, 43, 50
3, 26176, Note_on_c, 1, 43, 0
3, 26356, Note_on_c, 1, 38, 63
3, 26892, Note_on_c, 1, 34, 45
3, 26904, Note_on_c, 1, 38, 0
3, 27272, Note_on_c, 1, 35, 58
3, 27292, Note_on_c, 1, 34, 0
3, 27556, Note_on_c, 1, 34, 18
3, 27616, Note_on_c, 1, 35, 0
3, 27656, Note_on_c, 1, 34, 0
3, 27664, Note_on_c, 1, 36, 42
3, 27912, Note_on_c, 1, 48, 76
3, 28936, Note_on_c, 1, 39, 60
3, 28948, Note_on_c, 1, 36, 0
3, 29032, Note_on_c, 1, 39, 0
3, 29048, Note_on_c, 1, 40, 58
3, 29140, Note_on_c, 1, 48, 0
3, 29172, Note_on_c, 1, 40, 0
3, 29184, Note_on_c, 1, 41, 69
3, 29924, Note_on_c, 1, 41, 0
3, 29928, Note_on_c, 1, 34, 60
3, 30712, Note_on_c, 1, 34, 0
3, 30716, Note_on_c, 1, 33, 50
3, 30968, Note_on_c, 1, 34, 39
3, 31044, Note_on_c, 1, 34, 0
3, 31084, Note_on_c, 1, 45, 69
3, 31232, Note_on_c, 1, 33, 0
3, 31744, Note_on_c, 1, 33, 26
3, 31788, Note_on_c, 1, 33, 0
3, 31860, Note_on_c, 1, 45, 0
3, 31860, Note_on_c, 1, 44, 65
3, 32112, Note_on_c, 1, 37, 36
3, 32132, Note_on_c, 1, 37, 0
3, 32232, Note_on_c, 1, 44, 0
3, 32232, Note_on_c, 1, 43, 55
3, 32508, Note_on_c, 1, 38, 80
3, 32516, Note_on_c, 1, 43, 0
3, 32592, Note_on_c, 1, 38, 0
3, 32636, Note_on_c, 1, 31, 73
3, 33004, Note_on_c, 1, 31, 0
3, 33008, Note_on_c, 1, 34, 67
3, 33392, Note_on_c, 1, 34, 0
3, 33392, Note_on_c, 1, 35, 63
3, 33668, Note_on_c, 1, 34, 19
3, 33736, Note_on_c, 1, 34, 0
3, 33752, Note_on_c, 1, 35, 0
3, 33764, Note_on_c, 1, 36, 64
3, 34044, Note_on_c, 1, 34, 31
3, 34144, Note_on_c, 1, 36, 0
3, 34152, Note_on_c, 1, 48, 79
3, 34164, Note_on_c, 1, 34, 0
3, 34940, Note_on_c, 1, 36, 60
3, 34964, Note_on_c, 1, 36, 0
3, 35188, Note_on_c, 1, 36, 60
3, 35244, Note_on_c, 1, 36, 0
3, 35324, Note_on_c, 1, 39, 71
3, 35388, Note_on_c, 1, 48, 0
3, 35832, Note_on_c, 1, 39, 0
3, 35848, Note_on_c, 1, 36, 55
3, 35932, Note_on_c, 1, 36, 0
3, 35964, Note_on_c, 1, 37, 60
3, 36088, Note_on_c, 1, 38, 76
3, 36104, Note_on_c, 1, 37, 0
3, 36616, Note_on_c, 1, 45, 49
3, 36672, Note_on_c, 1, 45, 0
3, 36720, Note_on_c, 1, 44, 76
3, 36836, Note_on_c, 1, 38, 0
3, 36840, Note_on_c, 1, 44, 0
3, 36864, Note_on_c, 1, 43, 64
3, 37488, Note_on_c, 1, 34, 29
3, 37596, Note_on_c, 1, 34, 0
3, 37612, Note_on_c, 1, 38, 51
3, 37972, Note_on_c, 1, 38, 0
3, 37988, Note_on_c, 1, 35, 55
3, 38168, Note_on_c, 1, 43, 0
3, 38380, Note_on_c, 1, 36, 64
3, 38388, Note_on_c, 1, 35, 0
3, 39024, Note_on_c, 1, 36, 0
3, 39032, Note_on_c, 1, 37, 46
3, 39140, Note_on_c, 1, 37, 0
3, 39160, Note_on_c, 1, 38, 55
3, 39676, Note_on_c, 1, 45, 50
3, 39704, Note_on_c, 1, 45, 0
3, 39788, Note_on_c, 1, 44, 62
3, 39872, Note_on_c, 1, 44, 0
3, 39916, Note_on_c, 1, 43, 58
3, 39940, Note_on_c, 1, 38, 0
3, 40436, Note_on_c, 1, 38, 60
3, 40504, Note_on_c, 1, 38, 0
3, 40556, Note_on_c, 1, 37, 56
3, 40640, Note_on_c, 1, 37, 0
3, 40692, Note_on_c, 1, 36, 67
3, 40700, Note_on_c, 1, 43, 0
3, 41208, Note_on_c, 1, 37, 48
3, 41244, Note_on_c, 1, 36, 0
3, 41264, Note_on_c, 1, 37, 0
3, 41320, Note_on_c, 1, 38, 65
3, 41444, Note_on_c, 1, 38, 0
3, 41456, Note_on_c, 1, 39, 72
3, 41988, Note_on_c, 1, 55, 68
3, 42224, Note_on_c, 1, 55, 0
3, 42244, Note_on_c, 1, 39, 0
3, 42252, Note_on_c, 1, 38, 53
3, 42260, Note_on_c, 1, 54, 47
3, 42816, Note_on_c, 1, 54, 0
3, 42868, Note_on_c, 1, 45, 68
3, 42952, Note_on_c, 1, 38, 0
3, 43000, Note_on_c, 1, 45, 0
3, 43008, Note_on_c, 1, 46, 74
3, 43628, Note_on_c, 1, 41, 36
3, 43660, Note_on_c, 1, 41, 0
3, 43756, Note_on_c, 1, 47, 70
3, 43760, Note_on_c, 1, 46, 0
3, 44536, Note_on_c, 1, 47, 0
3, 44792, Note_on_c, 1, 48, 108
3, 45328, Note_on_c, 1, 36, 47
3, 45388, Note_on_c, 1, 48, 0
3, 45648, Note_on_c, 1, 36, 0
3, 45692, Note_on_c, 1, 36, 62
3, 46080, Note_on_c, 1, 48, 89
3, 46100, Note_on_c, 1, 36, 0
3, 46712, Note_on_c, 1, 36, 87
3, 46720, Note_on_c, 1, 48, 0
3, 47108, Note_on_c, 1, 39, 48
3, 47152, Note_on_c, 1, 36, 0
3, 47212, Note_on_c, 1, 39, 0
3, 47228, Note_on_c, 1, 40, 62
3, 47472, Note_on_c, 1, 40, 0
3, 47480, Note_on_c, 1, 41, 95
3, 47732, Note_on_c, 1, 41, 0
3, 49392, Note_on_c, 1, 48, 99
3, 49500, Note_on_c, 1, 48, 0
3, 49528, Note_on_c, 1, 45, 55
3, 49820, Note_on_c, 1, 45, 0
3, 49904, Note_on_c, 1, 44, 62
3, 50240, Note_on_c, 1, 44, 0
3, 50280, Note_on_c, 1, 42, 69
3, 50764, Note_on_c, 1, 43, 68
3, 50768, Note_on_c, 1, 42, 0
3, 50784, Note_on_c, 1, 43, 0
3, 50884, Note_on_c, 1, 38, 68
3, 50988, Note_on_c, 1, 38, 0
3, 51024, Note_on_c, 1, 34, 62
3, 51408, Note_on_c, 1, 33, 62
3, 51424, Note_on_c, 1, 34, 0
3, 51816, Note_on_c, 1, 31, 62
3, 51824, Note_on_c, 1, 33, 0
3, 52212, Note_on_c, 1, 36, 66
3, 52224, Note_on_c, 1, 31, 0
3, 52596, Note_on_c, 1, 40, 60
3, 52616, Note_on_c, 1, 36, 0
3, 52868, Note_on_c, 1, 36, 36
3, 52936, Note_on_c, 1, 36, 0
3, 52940, Note_on_c, 1, 40, 0
3, 52968, Note_on_c, 1, 48, 71
3, 53340, Note_on_c, 1, 48, 0
3, 53356, Note_on_c, 1, 46, 60
3, 53656, Note_on_c, 1, 40, 24
3, 53688, Note_on_c, 1, 40, 0
3, 53732, Note_on_c, 1, 46, 0
3, 53756, Note_on_c, 1, 45, 55
3, 54132, Note_on_c, 1, 41, 58
3, 54160, Note_on_c, 1, 45, 0
3, 54408, Note_on_c, 1, 39, 28
3, 54508, Note_on_c, 1, 41, 0
3, 54508, Note_on_c, 1, 46, 64
3, 54520, Note_on_c, 1, 39, 0
3, 54812, Note_on_c, 1, 41, 40
3, 54840, Note_on_c, 1, 41, 0
3, 54900, Note_on_c, 1, 46, 0
3, 54904, Note_on_c, 1, 50, 60
3, 55264, Note_on_c, 1, 50, 0
3, 55296, Note_on_c, 1, 48, 54
3, 55664, Note_on_c, 1, 45, 56
3, 55680, Note_on_c, 1, 48, 0
3, 56052, Note_on_c, 1, 45, 0
3, 56068, Note_on_c, 1, 44, 46
3, 56364, Note_on_c, 1, 42, 31
3, 56436, Note_on_c, 1, 56, 75
3, 56508, Note_on_c, 1, 42, 0
3, 56512, Note_on_c, 1, 44, 0
3, 56720, Note_on_c, 1, 44, 36
3, 56752, Note_on_c, 1, 44, 0
3, 56800, Note_on_c, 1, 56, 0
3, 56828, Note_on_c, 1, 55, 48
3, 57080, Note_on_c, 1, 55, 0
3, 57092, Note_on_c, 1, 50, 55
3, 57196, Note_on_c, 1, 50, 0
3, 57216, Note_on_c, 1, 44, 61
3, 57592, Note_on_c, 1, 44, 0
3, 57592, Note_on_c, 1, 43, 41
3, 57880, Note_on_c, 1, 44, 21
3, 57960, Note_on_c, 1, 50, 66
3, 57964, Note_on_c, 1, 44, 0
3, 57976, Note_on_c, 1, 43, 0
3, 58260, Note_on_c, 1, 43, 34
3, 58284, Note_on_c, 1, 43, 0
3, 58344, Note_on_c, 1, 50, 0
3, 58356, Note_on_c, 1, 48, 63
3, 58692, Note_on_c, 1, 48, 0
3, 58736, Note_on_c, 1, 48, 66
3, 59080, Note_on_c, 1, 48, 0
3, 59128, Note_on_c, 1, 48, 68
3, 59392, Note_on_c, 1, 43, 36
3, 59452, Note_on_c, 1, 43, 0
3, 59496, Note_on_c, 1, 48, 0
3, 59508, Note_on_c, 1, 46, 64
3, 59780, Note_on_c, 1, 44, 31
3, 59844, Note_on_c, 1, 46, 0
3, 59884, Note_on_c, 1, 44, 0
3, 59896, Note_on_c, 1, 45, 51
3, 60168, Note_on_c, 1, 44, 26
3, 60280, Note_on_c, 1, 57, 77
3, 60284, Note_on_c, 1, 44, 0
3, 60300, Note_on_c, 1, 45, 0
3, 60660, Note_on_c, 1, 57, 0
3, 60672, Note_on_c, 1, 50, 57
3, 60984, Note_on_c, 1, 50, 0
3, 61040, Note_on_c, 1, 50, 47
3, 61424, Note_on_c, 1, 43, 45
3, 61456, Note_on_c, 1, 50, 0
3, 61684, Note_on_c, 1, 57, 75
3, 61800, Note_on_c, 1, 57, 0
3, 61836, Note_on_c, 1, 43, 0
3, 61840, Note_on_c, 1, 55, 50
3, 62064, Note_on_c, 1, 43, 45
3, 62100, Note_on_c, 1, 43, 0
3, 62192, Note_on_c, 1, 50, 68
3, 62460, Note_on_c, 1, 43, 44
3, 62484, Note_on_c, 1, 43, 0
3, 62496, Note_on_c, 1, 55, 0
3, 62572, Note_on_c, 1, 50, 0
3, 62576, Note_on_c, 1, 47, 60
3, 62936, Note_on_c, 1, 47, 0
3, 62952, Note_on_c, 1, 48, 76
3, 63288, Note_on_c, 1, 48, 0
3, 63336, Note_on_c, 1, 48, 64
3, 63644, Note_on_c, 1, 48, 0
3, 63656, Control_c, 1, 1, 4
3, 63656, Control_c, 1, 1, 7
3, 63660, Control_c, 1, 1, 9
3, 63660, Control_c, 1, 1, 12
3, 63664, Control_c, 1, 1, 15
3, 63668, Control_c, 1, 1, 17
3, 63668, Control_c, 1, 1, 20
3, 63672, Control_c, 1, 1, 22
3, 63672, Control_c, 1, 1, 24
3, 63676, Control_c, 1, 1, 27
3, 63676, Control_c, 1, 1, 28
3, 63680, Control_c, 1, 1, 30
3, 63680, Control_c, 1, 1, 32
3, 63684, Control_c, 1, 1, 34
3, 63684, Control_c, 1, 1, 35
3, 63688, Control_c, 1, 1, 37
3, 63688, Control_c, 1, 1, 38
3, 63692, Control_c, 1, 1, 40
3, 63696, Control_c, 1, 1, 42
3, 63696, Control_c, 1, 1, 45
3, 63700, Control_c, 1, 1, 46
3, 63700, Control_c, 1, 1, 48
3, 63704, Control_c, 1, 1, 51
3, 63704, Control_c, 1, 1, 53
3, 63708, Control_c, 1, 1, 56
3, 63708, Note_on_c, 1, 50, 74
3, 63712, Control_c, 1, 1, 59
3, 63712, Control_c, 1, 1, 61
3, 63716, Control_c, 1, 1, 65
3, 63716, Control_c, 1, 1, 68
3, 63720, Control_c, 1, 1, 70
3, 63720, Control_c, 1, 1, 73
3, 63724, Control_c, 1, 1, 75
3, 63724, Control_c, 1, 1, 78
3, 63728, Control_c, 1, 1, 80
3, 63732, Control_c, 1, 1, 83
3, 63732, Control_c, 1, 1, 85
3, 63736, Control_c, 1, 1, 87
3, 63736, Control_c, 1, 1, 89
3, 63740, Control_c, 1, 1, 91
3, 63740, Control_c, 1, 1, 93
3, 63744, Control_c, 1, 1, 95
3, 63744, Control_c, 1, 1, 97
3, 63748, Control_c, 1, 1, 99
3, 63748, Control_c, 1, 1, 101
3, 63752, Control_c, 1, 1, 103
3, 63752, Control_c, 1, 1, 105
3, 63756, Control_c, 1, 1, 107
3, 63760, Control_c, 1, 1, 109
3, 63760, Control_c, 1, 1, 111
3, 63764, Control_c, 1, 1, 113
3, 63764, Control_c, 1, 1, 115
3, 63768, Control_c, 1, 1, 116
3, 63768, Control_c, 1, 1, 118
3, 63772, Control_c, 1, 1, 120
3, 63772, Control_c, 1, 1, 121
3, 63776, Control_c, 1, 1, 123
3, 63776, Control_c, 1, 1, 124
3, 63780, Control_c, 1, 1, 125
3, 63780, Control_c, 1, 1, 126
3, 63788, Control_c, 1, 1, 127
3, 63936, Control_c, 1, 1, 125
3, 63936, Control_c, 1, 1, 124
3, 63940, Control_c, 1, 1, 123
3, 63940, Control_c, 1, 1, 121
3, 63944, Control_c, 1, 1, 120
3, 63944, Control_c, 1, 1, 118
3, 63948, Control_c, 1, 1, 117
3, 63948, Control_c, 1, 1, 115
3, 63952, Control_c, 1, 1, 113
3, 63952, Control_c, 1, 1, 112
3, 63956, Control_c, 1, 1, 110
3, 63960, Control_c, 1, 1, 108
3, 63960, Control_c, 1, 1, 106
3, 63964, Control_c, 1, 1, 104
3, 63964, Control_c, 1, 1, 102
3, 63968, Control_c, 1, 1, 100
3, 63968, Control_c, 1, 1, 97
3, 63972, Control_c, 1, 1, 95
3, 63972, Control_c, 1, 1, 93
3, 63976, Control_c, 1, 1, 90
3, 63976, Control_c, 1, 1, 88
3, 63980, Control_c, 1, 1, 85
3, 63980, Control_c, 1, 1, 83
3, 63984, Control_c, 1, 1, 79
3, 63988, Control_c, 1, 1, 76
3, 63988, Control_c, 1, 1, 74
3, 63992, Control_c, 1, 1, 71
3, 63992, Control_c, 1, 1, 68
3, 63996, Control_c, 1, 1, 65
3, 63996, Control_c, 1, 1, 62
3, 64000, Control_c, 1, 1, 59
3, 64000, Control_c, 1, 1, 56
3, 64004, Control_c, 1, 1, 53
3, 64004, Control_c, 1, 1, 49
3, 64008, Control_c, 1, 1, 46
3, 64012, Control_c, 1, 1, 43
3, 64012, Control_c, 1, 1, 39
3, 64016, Control_c, 1, 1, 35
3, 64016, Control_c, 1, 1, 32
3, 64020, Control_c, 1, 1, 29
3, 64020, Control_c, 1, 1, 24
3, 64024, Control_c, 1, 1, 20
3, 64024, Control_c, 1, 1, 16
3, 64028, Control_c, 1, 1, 13
3, 64028, Control_c, 1, 1, 9
3, 64032, Control_c, 1, 1, 5
3, 64036, Control_c, 1, 1, 1
3, 64036, Control_c, 1, 1, 0
3, 64092, Note_on_c, 1, 50, 0
3, 64100, Note_on_c, 1, 45, 36
3, 64104, Note_on_c, 1, 47, 38
3, 64128, Note_on_c, 1, 47, 0
3, 64356, Note_on_c, 1, 42, 58
3, 64384, Note_on_c, 1, 45, 0
3, 64480, Note_on_c, 1, 43, 46
3, 64492, Note_on_c, 1, 42, 0
3, 64736, Note_on_c, 1, 42, 34
3, 64816, Note_on_c, 1, 42, 0
3, 64872, Note_on_c, 1, 53, 91
3, 64880, Note_on_c, 1, 43, 0
3, 65236, Note_on_c, 1, 53, 0
3, 65256, Note_on_c, 1, 52, 68
3, 65556, Note_on_c, 1, 42, 21
3, 65572, Note_on_c, 1, 42, 0
3, 65632, Note_on_c, 1, 52, 0
3, 65652, Note_on_c, 1, 46, 62
3, 66032, Note_on_c, 1, 46, 0
3, 66036, Note_on_c, 1, 45, 58
3, 66376, Note_on_c, 1, 45, 0
3, 66416, Note_on_c, 1, 45, 69
3, 66780, Note_on_c, 1, 45, 0
3, 66800, Note_on_c, 1, 46, 51
3, 67160, Note_on_c, 1, 46, 0
3, 67176, Note_on_c, 1, 53, 72
3, 67436, Note_on_c, 1, 53, 0
3, 67444, Note_on_c, 1, 51, 55
3, 67532, Note_on_c, 1, 51, 0
3, 67576, Note_on_c, 1, 52, 67
3, 67788, Note_on_c, 1, 52, 0
3, 67816, Note_on_c, 1, 45, 87
3, 67956, Note_on_c, 1, 45, 0
3, 67956, Note_on_c, 1, 46, 43
3, 68200, Note_on_c, 1, 39, 50
3, 68248, Note_on_c, 1, 46, 0
3, 68312, Note_on_c, 1, 39, 0
3, 68332, Note_on_c, 1, 40, 57
3, 68704, Note_on_c, 1, 45, 67
3, 68736, Note_on_c, 1, 40, 0
3, 68960, Note_on_c, 1, 39, 59
3, 68976, Note_on_c, 1, 45, 0
3, 69100, Note_on_c, 1, 38, 59
3, 69104, Note_on_c, 1, 39, 0
3, 69480, Note_on_c, 1, 40, 63
3, 69492, Note_on_c, 1, 38, 0
3, 69848, Note_on_c, 1, 40, 0
3, 69864, Note_on_c, 1, 41, 58
3, 70240, Note_on_c, 1, 45, 61
3, 70244, Note_on_c, 1, 41, 0
3, 70492, Note_on_c, 1, 44, 53
3, 70508, Note_on_c, 1, 45, 0
3, 70632, Note_on_c, 1, 44, 0
3, 70632, Note_on_c, 1, 43, 40
3, 70864, Note_on_c, 1, 57, 101
3, 70980, Note_on_c, 1, 57, 0
3, 70984, Note_on_c, 1, 43, 0
3, 71016, Note_on_c, 1, 55, 53
3, 71308, Note_on_c, 1, 43, 31
3, 71340, Note_on_c, 1, 43, 0
3, 71412, Note_on_c, 1, 55, 0
3, 71416, Note_on_c, 1, 53, 60
3, 71812, Note_on_c, 1, 50, 56
3, 71832, Note_on_c, 1, 53, 0
3, 72168, Note_on_c, 1, 50, 0
3, 72200, Note_on_c, 1, 48, 52
3, 72320, Note_on_c, 1, 60, 58
3, 72820, Note_on_c, 1, 43, 56
3, 72880, Note_on_c, 1, 43, 0
3, 72904, Note_on_c, 1, 60, 0
3, 72956, Note_on_c, 1, 36, 62
3, 73564, Note_on_c, 1, 48, 0
3, 73576, Note_on_c, 1, 43, 46
3, 73668, Note_on_c, 1, 43, 0
3, 73712, Note_on_c, 1, 48, 78
3, 73724, Note_on_c, 1, 36, 0
3, 73796, Note_on_c, 1, 48, 0
3, 73964, Note_on_c, 1, 48, 80
3, 74100, Note_on_c, 1, 48, 0
3, 74108, Note_on_c, 1, 44, 84
3, 74360, Note_on_c, 1, 60, 72
3, 74804, Note_on_c, 1, 44, 0
3, 74904, Note_on_c, 1, 44, 56
3, 74932, Note_on_c, 1, 60, 0
3, 75116, Note_on_c, 1, 42, 42
3, 75164, Note_on_c, 1, 44, 0
3, 75224, Note_on_c, 1, 42, 0
3, 75236, Note_on_c, 1, 43, 54
3, 75544, Note_on_c, 1, 42, 11
3, 75640, Note_on_c, 1, 50, 45
3, 75644, Note_on_c, 1, 42, 0
3, 75648, Note_on_c, 1, 43, 0
3, 75968, Note_on_c, 1, 50, 0
3, 76024, Note_on_c, 1, 50, 58
3, 76288, Note_on_c, 1, 42, 46
3, 76388, Note_on_c, 1, 42, 0
3, 76404, Note_on_c, 1, 50, 0
3, 76408, Note_on_c, 1, 43, 51
3, 76680, Note_on_c, 1, 42, 26
3, 76780, Note_on_c, 1, 46, 58
3, 76784, Note_on_c, 1, 42, 0
3, 76792, Note_on_c, 1, 43, 0
3, 77140, Note_on_c, 1, 46, 0
3, 77168, Note_on_c, 1, 47, 62
3, 77548, Note_on_c, 1, 47, 0
3, 77568, Note_on_c, 1, 48, 56
3, 77828, Note_on_c, 1, 39, 44
3, 77856, Note_on_c, 1, 39, 0
3, 77932, Note_on_c, 1, 40, 59
3, 78028, Note_on_c, 1, 48, 0
3, 78324, Note_on_c, 1, 40, 0
3, 78324, Note_on_c, 1, 41, 56
3, 78568, Note_on_c, 1, 39, 33
3, 78696, Note_on_c, 1, 46, 71
3, 78708, Note_on_c, 1, 39, 0
3, 78720, Note_on_c, 1, 41, 0
3, 79008, Note_on_c, 1, 39, 17
3, 79056, Note_on_c, 1, 39, 0
3, 79072, Note_on_c, 1, 46, 0
3, 79084, Note_on_c, 1, 53, 61
3, 79456, Note_on_c, 1, 44, 57
3, 79464, Note_on_c, 1, 53, 0
3, 79736, Note_on_c, 1, 42, 26
3, 79796, Note_on_c, 1, 44, 0
3, 79832, Note_on_c, 1, 42, 0
3, 79844, Note_on_c, 1, 43, 45
3, 80132, Note_on_c, 1, 42, 27
3, 80240, Note_on_c, 1, 50, 71
3, 80248, Note_on_c, 1, 43, 0
3, 80508, Note_on_c, 1, 42, 0
3, 80608, Note_on_c, 1, 50, 0
3, 80620, Note_on_c, 1, 48, 59
3, 80976, Note_on_c, 1, 48, 0
3, 81012, Note_on_c, 1, 44, 52
3, 81348, Note_on_c, 1, 42, 17
3, 81392, Note_on_c, 1, 42, 0
3, 81396, Note_on_c, 1, 44, 0
3, 81396, Note_on_c, 1, 43, 51
3, 81652, Note_on_c, 1, 57, 88
3, 81744, Note_on_c, 1, 57, 0
3, 81788, Note_on_c, 1, 55, 67
3, 81884, Note_on_c, 1, 43, 0
3, 82044, Note_on_c, 1, 43, 39
3, 82080, Note_on_c, 1, 43, 0
3, 82168, Note_on_c, 1, 50, 58
3, 82228, Note_on_c, 1, 55, 0
3, 82556, Note_on_c, 1, 47, 65
3, 82576, Note_on_c, 1, 50, 0
3, 82932, Note_on_c, 1, 47, 0
3, 82952, Note_on_c, 1, 48, 55
3, 83324, Note_on_c, 1, 48, 0
3, 83332, Note_on_c, 1, 36, 60
3, 83684, Note_on_c, 1, 36, 0
3, 83708, Note_on_c, 1, 46, 71
3, 84040, Note_on_c, 1, 46, 0
3, 84076, Note_on_c, 1, 46, 62
3, 84356, Note_on_c, 1, 43, 47
3, 84368, Note_on_c, 1, 46, 0
3, 84436, Note_on_c, 1, 43, 0
3, 84460, Note_on_c, 1, 45, 64
3, 84720, Note_on_c, 1, 39, 59
3, 84740, Note_on_c, 1, 45, 0
3, 84852, Note_on_c, 1, 51, 83
3, 84936, Note_on_c, 1, 39, 0
3, 85152, Note_on_c, 1, 43, 48
3, 85180, Note_on_c, 1, 43, 0
3, 85216, Note_on_c, 1, 51, 0
3, 85240, Note_on_c, 1, 50, 64
3, 85620, Note_on_c, 1, 45, 62
3, 85636, Note_on_c, 1, 50, 0
3, 85880, Note_on_c, 1, 42, 49
3, 85888, Note_on_c, 1, 45, 0
3, 85988, Note_on_c, 1, 42, 0
3, 85988, Note_on_c, 1, 43, 67
3, 86340, Note_on_c, 1, 43, 0
3, 86380, Note_on_c, 1, 43, 72
3, 86772, Note_on_c, 1, 45, 58
3, 86788, Note_on_c, 1, 43, 0
3, 87060, Note_on_c, 1, 43, 26
3, 87096, Note_on_c, 1, 43, 0
3, 87156, Note_on_c, 1, 45, 0
3, 87156, Note_on_c, 1, 46, 59
3, 87364, Note_on_c, 1, 46, 0
3, 87404, Note_on_c, 1, 47, 66
3, 87516, Note_on_c, 1, 47, 0
3, 87544, Note_on_c, 1, 48, 60
3, 87860, Note_on_c, 1, 48, 0
3, 87904, Note_on_c, 1, 48, 66
3, 88188, Note_on_c, 1, 43, 22
3, 88216, Note_on_c, 1, 43, 0
3, 88268, Note_on_c, 1, 48, 0
3, 88276, Note_on_c, 1, 50, 59
3, 88556, Note_on_c, 1, 45, 45
3, 88620, Note_on_c, 1, 45, 0
3, 88660, Note_on_c, 1, 50, 0
3, 88676, Note_on_c, 1, 42, 69
3, 89080, Note_on_c, 1, 42, 0
3, 89084, Note_on_c, 1, 43, 56
3, 89360, Note_on_c, 1, 42, 35
3, 89452, Note_on_c, 1, 43, 0
3, 89472, Note_on_c, 1, 57, 71
3, 89480, Note_on_c, 1, 42, 0
3, 89836, Note_on_c, 1, 57, 0
3, 89856, Note_on_c, 1, 55, 56
3, 90224, Note_on_c, 1, 55, 0
3, 90236, Note_on_c, 1, 48, 58
3, 90588, Note_on_c, 1, 48, 0
3, 90620, Note_on_c, 1, 51, 70
3, 91012, Note_on_c, 1, 39, 63
3, 91068, Note_on_c, 1, 51, 0
3, 91380, Note_on_c, 1, 50, 66
3, 91412, Note_on_c, 1, 39, 0
3, 91660, Note_on_c, 1, 45, 38
3, 91716, Note_on_c, 1, 45, 0
3, 91772, Note_on_c, 1, 42, 67
3, 92072, Note_on_c, 1, 42, 0
3, 92072, Note_on_c, 1, 45, 25
3, 92112, Note_on_c, 1, 45, 0
3, 92152, Note_on_c, 1, 46, 67
3, 92484, Note_on_c, 1, 46, 0
3, 92512, Note_on_c, 1, 50, 0
3, 92528, Note_on_c, 1, 46, 61
3, 92872, Note_on_c, 1, 46, 0
3, 92912, Note_on_c, 1, 47, 65
3, 93176, Note_on_c, 1, 46, 47
3, 93180, Note_on_c, 1, 47, 0
3, 93288, Note_on_c, 1, 47, 49
3, 93312, Note_on_c, 1, 46, 0
3, 93572, Note_on_c, 1, 43, 50
3, 93592, Note_on_c, 1, 43, 0
3, 93648, Note_on_c, 1, 47, 0
3, 93684, Note_on_c, 1, 48, 58
3, 93704, Note_on_c, 1, 48, 0
3, 93808, Note_on_c, 1, 43, 46
3, 93832, Note_on_c, 1, 43, 0
3, 93928, Note_on_c, 1, 37, 49
3, 94016, Note_on_c, 1, 37, 0
3, 94064, Note_on_c, 1, 36, 61
3, 94444, Note_on_c, 1, 48, 84
3, 94932, Note_on_c, 1, 48, 0
3, 94984, Note_on_c, 1, 48, 44
3, 95040, Note_on_c, 1, 48, 0
3, 95096, Note_on_c, 1, 47, 33
3, 95140, Note_on_c, 1, 47, 0
3, 95216, Note_on_c, 1, 48, 61
3, 95232, Note_on_c, 1, 36, 0
3, 95264, Note_on_c, 1, 48, 0
3, 95344, Note_on_c, 1, 43, 35
3, 95380, Note_on_c, 1, 43, 0
3, 95464, Note_on_c, 1, 37, 72
3, 95524, Note_on_c, 1, 37, 0
3, 95600, Note_on_c, 1, 36, 71
3, 95848, Note_on_c, 1, 36, 0
3, 95852, Note_on_c, 1, 48, 105
3, 95956, Control_c, 1, 1, 6
3, 95956, Control_c, 1, 1, 8
3, 95960, Control_c, 1, 1, 10
3, 95964, Control_c, 1, 1, 13
3, 95964, Control_c, 1, 1, 15
3, 95968, Control_c, 1, 1, 17
3, 95968, Control_c, 1, 1, 18
3, 95972, Control_c, 1, 1, 20
3, 95972, Control_c, 1, 1, 21
3, 95976, Control_c, 1, 1, 22
3, 95976, Control_c, 1, 1, 24
3, 95980, Control_c, 1, 1, 26
3, 95980, Control_c, 1, 1, 27
3, 95984, Control_c, 1, 1, 28
3, 95984, Control_c, 1, 1, 29
3, 95988, Control_c, 1, 1, 31
3, 95992, Control_c, 1, 1, 33
3, 95992, Control_c, 1, 1, 34
3, 95996, Control_c, 1, 1, 35
3, 95996, Control_c, 1, 1, 37
3, 96000, Control_c, 1, 1, 39
3, 96000, Control_c, 1, 1, 41
3, 96004, Control_c, 1, 1, 42
3, 96004, Control_c, 1, 1, 44
3, 96008, Control_c, 1, 1, 46
3, 96008, Control_c, 1, 1, 48
3, 96012, Control_c, 1, 1, 50
3, 96012, Control_c, 1, 1, 52
3, 96016, Control_c, 1, 1, 54
3, 96020, Control_c, 1, 1, 55
3, 96020, Control_c, 1, 1, 57
3, 96024, Control_c, 1, 1, 59
3, 96024, Control_c, 1, 1, 61
3, 96028, Control_c, 1, 1, 63
3, 96028, Control_c, 1, 1, 65
3, 96032, Control_c, 1, 1, 66
3, 96032, Control_c, 1, 1, 68
3, 96036, Control_c, 1, 1, 70
3, 96036, Control_c, 1, 1, 71
3, 96040, Control_c, 1, 1, 73
3, 96040, Control_c, 1, 1, 75
3, 96044, Control_c, 1, 1, 76
3, 96048, Control_c, 1, 1, 78
3, 96048, Control_c, 1, 1, 79
3, 96052, Control_c, 1, 1, 80
3, 96052, Control_c, 1, 1, 81
3, 96056, Control_c, 1, 1, 82
3, 96056, Control_c, 1, 1, 83
3, 96060, Control_c, 1, 1, 84
3, 96060, Control_c, 1, 1, 85
3, 96064, Control_c, 1, 1, 86
3, 96068, Control_c, 1, 1, 88
3, 96076, Control_c, 1, 1, 90
3, 96084, Control_c, 1, 1, 91
3, 96096, Control_c, 1, 1, 93
3, 96104, Control_c, 1, 1, 94
3, 96120, Control_c, 1, 1, 95
3, 96132, Control_c, 1, 1, 96
3, 96140, Control_c, 1, 1, 97
3, 96152, Control_c, 1, 1, 98
3, 96160, Control_c, 1, 1, 99
3, 96168, Control_c, 1, 1, 100
3, 96180, Control_c, 1, 1, 101
3, 96228, Control_c, 1, 1, 100
3, 96236, Control_c, 1, 1, 99
3, 96240, Control_c, 1, 1, 98
3, 96248, Control_c, 1, 1, 96
3, 96252, Control_c, 1, 1, 95
3, 96256, Control_c, 1, 1, 94
3, 96260, Control_c, 1, 1, 93
3, 96260, Control_c, 1, 1, 91
3, 96264, Control_c, 1, 1, 90
3, 96268, Control_c, 1, 1, 87
3, 96272, Control_c, 1, 1, 86
3, 96272, Control_c, 1, 1, 84
3, 96276, Control_c, 1, 1, 83
3, 96276, Control_c, 1, 1, 82
3, 96280, Control_c, 1, 1, 80
3, 96280, Control_c, 1, 1, 78
3, 96284, Control_c, 1, 1, 77
3, 96284, Control_c, 1, 1, 75
3, 96288, Control_c, 1, 1, 73
3, 96292, Control_c, 1, 1, 71
3, 96292, Control_c, 1, 1, 69
3, 96296, Control_c, 1, 1, 67
3, 96296, Control_c, 1, 1, 65
3, 96300, Control_c, 1, 1, 62
3, 96300, Control_c, 1, 1, 60
3, 96304, Control_c, 1, 1, 57
3, 96304, Control_c, 1, 1, 55
3, 96308, Control_c, 1, 1, 52
3, 96308, Control_c, 1, 1, 50
3, 96312, Control_c, 1, 1, 47
3, 96316, Control_c, 1, 1, 45
3, 96316, Control_c, 1, 1, 42
3, 96320, Control_c, 1, 1, 39
3, 96320, Control_c, 1, 1, 35
3, 96324, Control_c, 1, 1, 33
3, 96324, Control_c, 1, 1, 30
3, 96328, Control_c, 1, 1, 27
3, 96328, Control_c, 1, 1, 23
3, 96332, Control_c, 1, 1, 20
3, 96332, Control_c, 1, 1, 17
3, 96336, Control_c, 1, 1, 13
3, 96340, Control_c, 1, 1, 10
3, 96340, Control_c, 1, 1, 6
3, 96344, Control_c, 1, 1, 3
3, 96344, Control_c, 1, 1, 0
3, 96416, Note_on_c, 1, 45, 58
3, 96428, Note_on_c, 1, 48, 0
3, 96640, Note_on_c, 1, 45, 0
3, 96660, Note_on_c, 1, 46, 58
3, 96760, Note_on_c, 1, 46, 0
3, 96788, Note_on_c, 1, 48, 71
3, 97028, Note_on_c, 1, 36, 88
3, 97036, Note_on_c, 1, 48, 0
3, 97416, Note_on_c, 1, 45, 24
3, 97432, Note_on_c, 1, 45, 0
3, 97528, Note_on_c, 1, 48, 88
3, 97580, Note_on_c, 1, 36, 0
3, 97788, Note_on_c, 1, 36, 41
3, 97816, Note_on_c, 1, 36, 0
3, 97884, Note_on_c, 1, 48, 0
3, 97908, Note_on_c, 1, 47, 58
3, 98248, Note_on_c, 1, 47, 0
3, 98284, Note_on_c, 1, 48, 96
3, 98304, Note_on_c, 1, 47, 33
3, 98328, Note_on_c, 1, 47, 0
3, 98452, Note_on_c, 1, 48, 0
3, 99312, Note_on_c, 1, 44, 80
3, 99412, Note_on_c, 1, 44, 0
3, 99440, Note_on_c, 1, 41, 38
3, 99688, Note_on_c, 1, 41, 0
3, 99700, Note_on_c, 1, 42, 54
3, 99796, Note_on_c, 1, 42, 0
3, 99824, Note_on_c, 1, 43, 59
3, 99856, Note_on_c, 1, 43, 0
3, 99960, Note_on_c, 1, 38, 41
3, 100012, Note_on_c, 1, 38, 0
3, 100068, Note_on_c, 1, 34, 49
3, 100204, Note_on_c, 1, 34, 0
3, 100220, Note_on_c, 1, 35, 55
3, 100584, Note_on_c, 1, 35, 0
3, 100592, Note_on_c, 1, 38, 54
3, 100960, Note_on_c, 1, 38, 0
3, 100988, Note_on_c, 1, 37, 50
3, 101360, Note_on_c, 1, 37, 0
3, 101376, Note_on_c, 1, 36, 50
3, 101640, Note_on_c, 1, 37, 29
3, 101720, Note_on_c, 1, 37, 0
3, 101752, Note_on_c, 1, 48, 68
3, 101788, Note_on_c, 1, 36, 0
3, 102064, Note_on_c, 1, 40, 25
3, 102104, Note_on_c, 1, 40, 0
3, 102140, Note_on_c, 1, 48, 0
3, 102140, Note_on_c, 1, 46, 57
3, 102448, Note_on_c, 1, 40, 34
3, 102460, Note_on_c, 1, 46, 0
3, 102484, Note_on_c, 1, 40, 0
3, 102512, Note_on_c, 1, 46, 45
3, 102888, Note_on_c, 1, 45, 49
3, 102900, Note_on_c, 1, 46, 0
3, 103156, Note_on_c, 1, 40, 60
3, 103232, Note_on_c, 1, 40, 0
3, 103256, Note_on_c, 1, 45, 0
3, 103280, Note_on_c, 1, 41, 47
3, 103544, Note_on_c, 1, 39, 35
3, 103628, Note_on_c, 1, 41, 0
3, 103660, Note_on_c, 1, 39, 0
3, 103664, Note_on_c, 1, 46, 60
3, 103940, Note_on_c, 1, 39, 30
3, 103960, Note_on_c, 1, 39, 0
3, 104028, Note_on_c, 1, 46, 0
3, 104064, Note_on_c, 1, 44, 52
3, 104320, Note_on_c, 1, 39, 26
3, 104340, Note_on_c, 1, 39, 0
3, 104420, Note_on_c, 1, 44, 0
3, 104448, Note_on_c, 1, 45, 54
3, 104696, Note_on_c, 1, 41, 39
3, 104732, Note_on_c, 1, 41, 0
3, 104828, Note_on_c, 1, 36, 60
3, 105160, Note_on_c, 1, 45, 0
3, 105204, Note_on_c, 1, 36, 0
3, 105204, Note_on_c, 1, 32, 59
3, 105572, Note_on_c, 1, 32, 0
3, 105576, Note_on_c, 1, 48, 66
3, 105580, Note_on_c, 1, 42, 68
3, 105648, Note_on_c, 1, 48, 0
3, 105928, Note_on_c, 1, 42, 0
3, 105972, Note_on_c, 1, 43, 58
3, 106336, Note_on_c, 1, 38, 54
3, 106340, Note_on_c, 1, 43, 0
3, 106688, Note_on_c, 1, 38, 0
3, 106732, Note_on_c, 1, 37, 59
3, 107108, Note_on_c, 1, 49, 73
3, 107168, Note_on_c, 1, 37, 0
3, 107372, Note_on_c, 1, 37, 32
3, 107464, Note_on_c, 1, 37, 0
3, 107468, Note_on_c, 1, 49, 0
3, 107504, Note_on_c, 1, 48, 67
3, 107876, Note_on_c, 1, 43, 60
3, 108260, Note_on_c, 1, 43, 0
3, 108264, Note_on_c, 1, 36, 60
3, 108600, Note_on_c, 1, 36, 0
3, 108648, Note_on_c, 1, 38, 64
3, 108992, Note_on_c, 1, 48, 0
3, 109008, Note_on_c, 1, 39, 57
3, 109012, Note_on_c, 1, 38, 0
3, 109420, Note_on_c, 1, 51, 75
3, 109472, Note_on_c, 1, 39, 0
3, 110080, Note_on_c, 1, 39, 35
3, 110108, Note_on_c, 1, 39, 0
3, 110200, Note_on_c, 1, 50, 65
3, 110236, Note_on_c, 1, 51, 0
3, 110320, Note_on_c, 1, 45, 48
3, 110340, Note_on_c, 1, 50, 0
3, 110384, Note_on_c, 1, 45, 0
3, 110436, Note_on_c, 1, 44, 59
3, 110548, Note_on_c, 1, 44, 0
3, 110568, Note_on_c, 1, 43, 51
3, 110964, Note_on_c, 1, 43, 0
3, 110968, Note_on_c, 1, 38, 56
3, 111352, Note_on_c, 1, 47, 69
3, 111376, Note_on_c, 1, 38, 0
3, 111640, Note_on_c, 1, 38, 35
3, 111684, Note_on_c, 1, 38, 0
3, 111720, Note_on_c, 1, 47, 0
3, 111740, Note_on_c, 1, 46, 53
3, 112000, Note_on_c, 1, 45, 64
3, 112028, Note_on_c, 1, 46, 0
3, 112104, Note_on_c, 1, 45, 0
3, 112136, Note_on_c, 1, 48, 58
3, 112512, Note_on_c, 1, 43, 60
3, 112540, Note_on_c, 1, 48, 0
3, 112800, Note_on_c, 1, 39, 34
3, 112856, Note_on_c, 1, 39, 0
3, 112876, Note_on_c, 1, 43, 0
3, 112900, Note_on_c, 1, 38, 57
3, 113268, Note_on_c, 1, 42, 57
3, 113292, Note_on_c, 1, 38, 0
3, 113548, Note_on_c, 1, 39, 30
3, 113640, Note_on_c, 1, 42, 0
3, 113656, Note_on_c, 1, 39, 0
3, 113656, Note_on_c, 1, 43, 57
3, 114036, Note_on_c, 1, 50, 76
3, 114076, Note_on_c, 1, 43, 0
3, 114400, Note_on_c, 1, 50, 0
3, 114424, Note_on_c, 1, 48, 67
3, 114800, Note_on_c, 1, 40, 70
3, 114808, Note_on_c, 1, 48, 0
3, 115176, Note_on_c, 1, 40, 0
3, 115196, Note_on_c, 1, 41, 49
3, 115524, Note_on_c, 1, 41, 0
3, 115564, Note_on_c, 1, 41, 66
3, 115952, Note_on_c, 1, 41, 0
3, 115956, Note_on_c, 1, 46, 62
3, 116288, Note_on_c, 1, 46, 0
3, 116340, Note_on_c, 1, 46, 58
3, 116600, Note_on_c, 1, 41, 62
3, 116676, Note_on_c, 1, 41, 0
3, 116700, Note_on_c, 1, 46, 0
3, 116732, Note_on_c, 1, 40, 59
3, 117096, Note_on_c, 1, 46, 71
3, 117144, Note_on_c, 1, 40, 0
3, 117364, Note_on_c, 1, 40, 55
3, 117416, Note_on_c, 1, 40, 0
3, 117468, Note_on_c, 1, 46, 0
3, 117484, Note_on_c, 1, 45, 55
3, 117748, Note_on_c, 1, 40, 44
3, 117776, Note_on_c, 1, 40, 0
3, 117808, Note_on_c, 1, 45, 0
3, 117844, Note_on_c, 1, 58, 63
3, 118060, Note_on_c, 1, 58, 0
3, 118112, Note_on_c, 1, 57, 71
3, 118356, Note_on_c, 1, 57, 0
3, 118392, Note_on_c, 1, 53, 48
3, 118456, Note_on_c, 1, 53, 0
3, 118504, Note_on_c, 1, 52, 60
3, 118600, Note_on_c, 1, 52, 0
3, 118632, Note_on_c, 1, 50, 59
3, 118888, Note_on_c, 1, 45, 51
3, 118908, Note_on_c, 1, 50, 0
3, 118996, Note_on_c, 1, 45, 0
3, 119020, Note_on_c, 1, 43, 48
3, 119408, Note_on_c, 1, 43, 0
3, 119412, Note_on_c, 1, 41, 55
3, 119652, Note_on_c, 1, 42, 53
3, 119668, Note_on_c, 1, 41, 0
3, 119752, Note_on_c, 1, 42, 0
3, 119788, Note_on_c, 1, 43, 44
3, 120072, Note_on_c, 1, 42, 20
3, 120112, Note_on_c, 1, 42, 0
3, 120124, Note_on_c, 1, 43, 0
3, 120172, Note_on_c, 1, 50, 58
3, 120524, Note_on_c, 1, 50, 0
3, 120568, Note_on_c, 1, 57, 71
3, 120916, Note_on_c, 1, 57, 0
3, 120964, Note_on_c, 1, 55, 66
3, 121240, Note_on_c, 1, 55, 0
3, 121340, Note_on_c, 1, 48, 72
3, 121452, Pitch_bend_c, 1, 8192
3, 121456, Pitch_bend_c, 1, 8192
3, 121460, Pitch_bend_c, 1, 8192
3, 121468, Pitch_bend_c, 1, 7552
3, 121476, Pitch_bend_c, 1, 7296
3, 121480, Pitch_bend_c, 1, 7168
3, 121484, Pitch_bend_c, 1, 6912
3, 121488, Pitch_bend_c, 1, 6784
3, 121492, Pitch_bend_c, 1, 6656
3, 121496, Pitch_bend_c, 1, 6400
3, 121500, Pitch_bend_c, 1, 6272
3, 121508, Pitch_bend_c, 1, 6016
3, 121512, Pitch_bend_c, 1, 5888
3, 121516, Pitch_bend_c, 1, 5632
3, 121524, Pitch_bend_c, 1, 5504
3, 121536, Pitch_bend_c, 1, 5632
3, 121540, Pitch_bend_c, 1, 5888
3, 121544, Pitch_bend_c, 1, 6144
3, 121548, Pitch_bend_c, 1, 6400
3, 121552, Pitch_bend_c, 1, 6656
3, 121556, Pitch_bend_c, 1, 7040
3, 121560, Pitch_bend_c, 1, 7296
3, 121568, Pitch_bend_c, 1, 7680
3, 121572, Pitch_bend_c, 1, 8192
3, 121572, Pitch_bend_c, 1, 8192
3, 121576, Pitch_bend_c, 1, 8192
3, 121656, Pitch_bend_c, 1, 8192
3, 121660, Pitch_bend_c, 1, 8192
3, 121668, Pitch_bend_c, 1, 7552
3, 121672, Pitch_bend_c, 1, 7296
3, 121676, Pitch_bend_c, 1, 7168
3, 121680, Pitch_bend_c, 1, 6912
3, 121684, Pitch_bend_c, 1, 6656
3, 121688, Pitch_bend_c, 1, 6400
3, 121692, Pitch_bend_c, 1, 6272
3, 121696, Pitch_bend_c, 1, 6144
3, 121700, Pitch_bend_c, 1, 5888
3, 121712, Pitch_bend_c, 1, 5760
3, 121724, Pitch_bend_c, 1, 6016
3, 121728, Pitch_bend_c, 1, 6272
3, 121732, Pitch_bend_c, 1, 6656
3, 121736, Pitch_bend_c, 1, 7168
3, 121740, Pitch_bend_c, 1, 8192
3, 121744, Pitch_bend_c, 1, 8192
3, 122504, Note_on_c, 1, 43, 71
3, 122516, Note_on_c, 1, 48, 0
3, 122748, Note_on_c, 1, 48, 103
3, 122752, Note_on_c, 1, 43, 0
3, 122896, Note_on_c, 1, 48, 0
3, 123800, Note_on_c, 1, 46, 57
3, 123876, Note_on_c, 1, 46, 0
3, 123912, Note_on_c, 1, 45, 64
3, 124012, Note_on_c, 1, 45, 0
3, 124040, Note_on_c, 1, 44, 60
3, 124420, Note_on_c, 1, 44, 0
3, 124424, Note_on_c, 1, 43, 46
3, 124672, Note_on_c, 1, 57, 77
3, 124796, Note_on_c, 1, 57, 0
3, 124800, Note_on_c, 1, 43, 0
3, 124812, Note_on_c, 1, 55, 50
3, 125084, Note_on_c, 1, 47, 29
3, 125116, Note_on_c, 1, 47, 0
3, 125176, Note_on_c, 1, 55, 0
3, 125196, Note_on_c, 1, 50, 45
3, 125696, Note_on_c, 1, 47, 51
3, 125716, Note_on_c, 1, 50, 0
3, 125800, Note_on_c, 1, 47, 0
3, 125800, Note_on_c, 1, 48, 78
3, 125932, Note_on_c, 1, 49, 71
3, 125936, Note_on_c, 1, 48, 0
3, 126288, Note_on_c, 1, 49, 0
3, 126320, Note_on_c, 1, 48, 53
3, 126592, Note_on_c, 1, 43, 48
3, 126616, Note_on_c, 1, 43, 0
3, 126712, Note_on_c, 1, 36, 53
3, 127080, Note_on_c, 1, 36, 0
3, 127092, Note_on_c, 1, 40, 60
3, 127108, Note_on_c, 1, 48, 0
3, 127460, Note_on_c, 1, 40, 0
3, 127496, Note_on_c, 1, 41, 41
3, 127572, Note_on_c, 1, 41, 0
3, 127596, Note_on_c, 1, 36, 46
3, 127624, Note_on_c, 1, 36, 0
3, 127716, Note_on_c, 1, 32, 62
3, 127832, Note_on_c, 1, 32, 0
3, 127856, Note_on_c, 1, 33, 61
3, 128232, Note_on_c, 1, 33, 0
3, 128248, Note_on_c, 1, 34, 59
3, 128624, Note_on_c, 1, 50, 68
3, 128716, Note_on_c, 1, 34, 0
3, 128872, Note_on_c, 1, 34, 40
3, 128928, Note_on_c, 1, 34, 0
3, 128984, Note_on_c, 1, 50, 0
3, 128996, Note_on_c, 1, 48, 62
3, 129392, Note_on_c, 1, 45, 60
3, 129424, Note_on_c, 1, 48, 0
3, 129788, Note_on_c, 1, 45, 0
3, 129792, Note_on_c, 1, 44, 49
3, 130044, Note_on_c, 1, 60, 59
3, 130320, Note_on_c, 1, 44, 0
3, 130356, Note_on_c, 1, 44, 64
3, 130412, Note_on_c, 1, 44, 0
3, 130452, Note_on_c, 1, 42, 52
3, 130516, Note_on_c, 1, 60, 0
3, 130568, Note_on_c, 1, 42, 0
3, 130572, Note_on_c, 1, 43, 64
3, 130824, Note_on_c, 1, 38, 54
3, 130872, Note_on_c, 1, 38, 0
3, 130944, Note_on_c, 1, 35, 47
3, 131320, Note_on_c, 1, 38, 58
3, 131324, Note_on_c, 1, 35, 0
3, 131336, Note_on_c, 1, 43, 0
3, 131708, Note_on_c, 1, 38, 0
3, 131708, Note_on_c, 1, 37, 59
3, 132084, Note_on_c, 1, 37, 0
3, 132088, Note_on_c, 1, 36, 62
3, 132460, Note_on_c, 1, 48, 73
3, 132484, Note_on_c, 1, 36, 0
3, 132796, Note_on_c, 1, 48, 0
3, 132848, Note_on_c, 1, 48, 66
3, 133128, Note_on_c, 1, 43, 31
3, 133164, Note_on_c, 1, 43, 0
3, 133212, Note_on_c, 1, 48, 0
3, 133236, Note_on_c, 1, 46, 56
3, 133620, Note_on_c, 1, 46, 0
3, 133620, Note_on_c, 1, 45, 65
3, 134008, Note_on_c, 1, 40, 60
3, 134372, Note_on_c, 1, 40, 0
3, 134384, Note_on_c, 1, 45, 0
3, 134392, Note_on_c, 1, 38, 60
3, 134748, Note_on_c, 1, 43, 63
3, 134788, Note_on_c, 1, 38, 0
3, 135112, Note_on_c, 1, 43, 0
3, 135148, Note_on_c, 1, 43, 57
3, 135416, Note_on_c, 1, 31, 66
3, 135684, Note_on_c, 1, 43, 0
3, 135812, Note_on_c, 1, 43, 94
3, 136012, Note_on_c, 1, 31, 0
3, 136212, Note_on_c, 1, 38, 35
3, 136324, Note_on_c, 1, 38, 0
3, 136324, Note_on_c, 1, 46, 57
3, 136396, Note_on_c, 1, 46, 0
3, 136572, Note_on_c, 1, 47, 72
3, 136572, Note_on_c, 1, 38, 25
3, 136608, Note_on_c, 1, 38, 0
3, 136688, Note_on_c, 1, 47, 0
3, 136704, Note_on_c, 1, 43, 0
3, 136712, Note_on_c, 1, 48, 48
3, 136952, Note_on_c, 1, 43, 53
3, 137020, Note_on_c, 1, 43, 0
3, 137104, Note_on_c, 1, 38, 38
3, 137172, Note_on_c, 1, 39, 30
3, 137176, Note_on_c, 1, 38, 0
3, 137240, Note_on_c, 1, 39, 0
3, 137336, Note_on_c, 1, 39, 48
3, 137436, Note_on_c, 1, 39, 0
3, 137472, Note_on_c, 1, 38, 51
3, 137676, Note_on_c, 1, 48, 0
3, 137744, Note_on_c, 1, 43, 26
3, 137780, Note_on_c, 1, 43, 0
3, 137844, Note_on_c, 1, 50, 64
3, 137916, Note_on_c, 1, 38, 0
3, 137968, Note_on_c, 1, 41, 41
3, 138012, Note_on_c, 1, 50, 0
3, 138044, Note_on_c, 1, 41, 0
3, 138088, Note_on_c, 1, 42, 57
3, 138204, Note_on_c, 1, 42, 0
3, 138212, Note_on_c, 1, 43, 55
3, 138484, Note_on_c, 1, 42, 32
3, 138580, Note_on_c, 1, 42, 0
3, 138580, Note_on_c, 1, 43, 0
3, 138600, Note_on_c, 1, 46, 55
3, 138680, Note_on_c, 1, 46, 0
3, 138724, Note_on_c, 1, 47, 39
3, 138788, Note_on_c, 1, 47, 0
3, 138860, Note_on_c, 1, 48, 71
3, 139116, Note_on_c, 1, 43, 40
3, 139156, Note_on_c, 1, 43, 0
3, 139236, Note_on_c, 1, 38, 57
3, 139344, Note_on_c, 1, 38, 0
3, 139380, Note_on_c, 1, 36, 56
3, 139644, Note_on_c, 1, 38, 57
3, 139656, Note_on_c, 1, 36, 0
3, 139712, Note_on_c, 1, 48, 0
3, 139740, Note_on_c, 1, 38, 0
3, 139780, Note_on_c, 1, 39, 55
3, 140156, Note_on_c, 1, 51, 77
3, 140312, Note_on_c, 1, 39, 0
3, 140412, Note_on_c, 1, 39, 33
3, 140456, Note_on_c, 1, 39, 0
3, 140508, Note_on_c, 1, 51, 0
3, 140540, Note_on_c, 1, 50, 53
3, 140804, Note_on_c, 1, 45, 44
3, 140840, Note_on_c, 1, 45, 0
3, 140912, Note_on_c, 1, 42, 62
3, 141272, Note_on_c, 1, 42, 0
3, 141304, Note_on_c, 1, 46, 61
3, 141628, Note_on_c, 1, 46, 0
3, 141676, Note_on_c, 1, 46, 60
3, 141712, Note_on_c, 1, 50, 0
3, 141968, Note_on_c, 1, 43, 27
3, 142000, Note_on_c, 1, 46, 0
3, 142020, Note_on_c, 1, 43, 0
3, 142044, Note_on_c, 1, 47, 64
3, 142440, Note_on_c, 1, 41, 56
3, 142448, Note_on_c, 1, 47, 0
3, 142812, Note_on_c, 1, 41, 0
3, 142836, Note_on_c, 1, 36, 50
3, 143212, Note_on_c, 1, 48, 87
3, 143904, Note_on_c, 1, 48, 0
3, 143964, Note_on_c, 1, 36, 0
3, 143972, Note_on_c, 1, 48, 80
3, 144668, Note_on_c, 1, 48, 0
3, 144760, Note_on_c, 1, 48, 80
3, 145404, Note_on_c, 1, 39, 43
3, 145420, Note_on_c, 1, 48, 0
3, 145492, Note_on_c, 1, 39, 0
3, 145524, Note_on_c, 1, 40, 58
3, 145756, Note_on_c, 1, 40, 0
3, 145768, Note_on_c, 1, 41, 96
3, 145948, Note_on_c, 1, 41, 0
3, 147712, Note_on_c, 1, 33, 77
3, 148216, Note_on_c, 1, 33, 0
3, 148236, Note_on_c, 1, 32, 67
3, 148728, Note_on_c, 1, 44, 61
3, 148796, Note_on_c, 1, 44, 0
3, 148844, Note_on_c, 1, 42, 39
3, 148956, Note_on_c, 1, 42, 0
3, 148972, Note_on_c, 1, 32, 0
3, 148976, Note_on_c, 1, 43, 57
3, 149620, Note_on_c, 1, 37, 46
3, 149716, Note_on_c, 1, 37, 0
3, 149740, Note_on_c, 1, 43, 0
3, 149744, Note_on_c, 1, 38, 59
3, 150380, Note_on_c, 1, 32, 52
3, 150460, Note_on_c, 1, 32, 0
3, 150496, Note_on_c, 1, 38, 0
3, 150512, Note_on_c, 1, 31, 51
3, 150768, Note_on_c, 1, 38, 57
3, 150796, Note_on_c, 1, 31, 0
3, 150876, Note_on_c, 1, 38, 0
3, 150896, Note_on_c, 1, 35, 44
3, 151288, Note_on_c, 1, 35, 0
3, 151296, Note_on_c, 1, 36, 61
3, 151552, Note_on_c, 1, 34, 33
3, 151668, Note_on_c, 1, 46, 59
3, 151700, Note_on_c, 1, 36, 0
3, 151732, Note_on_c, 1, 34, 0
3, 151932, Note_on_c, 1, 36, 53
3, 151976, Note_on_c, 1, 36, 0
3, 152036, Note_on_c, 1, 46, 0
3, 152056, Note_on_c, 1, 45, 62
3, 152820, Note_on_c, 1, 46, 59
3, 152836, Note_on_c, 1, 45, 0
3, 153592, Note_on_c, 1, 43, 53
3, 153616, Note_on_c, 1, 46, 0
3, 154360, Note_on_c, 1, 43, 0
3, 154372, Note_on_c, 1, 48, 66
3, 154644, Note_on_c, 1, 37, 40
3, 154664, Note_on_c, 1, 37, 0
3, 154752, Note_on_c, 1, 48, 0
3, 154756, Note_on_c, 1, 44, 57
3, 155132, Note_on_c, 1, 44, 0
3, 155132, Note_on_c, 1, 43, 54
3, 155396, Note_on_c, 1, 38, 44
3, 155448, Note_on_c, 1, 38, 0
3, 155516, Note_on_c, 1, 43, 0
3, 155516, Note_on_c, 1, 32, 64
3, 155860, Note_on_c, 1, 32, 0
3, 155896, Note_on_c, 1, 31, 63
3, 156404, Note_on_c, 1, 34, 55
3, 156420, Note_on_c, 1, 31, 0
3, 156476, Note_on_c, 1, 34, 0
3, 156516, Note_on_c, 1, 35, 64
3, 156616, Note_on_c, 1, 35, 0
3, 156644, Note_on_c, 1, 36, 69
3, 157324, Note_on_c, 1, 34, 5
3, 157428, Note_on_c, 1, 48, 74
3, 157452, Note_on_c, 1, 34, 0
3, 157940, Note_on_c, 1, 37, 47
3, 157964, Note_on_c, 1, 36, 0
3, 157968, Note_on_c, 1, 48, 0
3, 158004, Note_on_c, 1, 37, 0
3, 158052, Note_on_c, 1, 38, 56
3, 158176, Note_on_c, 1, 38, 0
3, 158192, Note_on_c, 1, 39, 76
3, 158704, Note_on_c, 1, 54, 45
3, 158756, Note_on_c, 1, 39, 0
3, 158804, Note_on_c, 1, 39, 36
3, 158892, Note_on_c, 1, 39, 0
3, 158932, Note_on_c, 1, 54, 0
3, 159184, Note_on_c, 1, 38, 73
3, 159480, Note_on_c, 1, 38, 0
3, 159480, Note_on_c, 1, 45, 66
3, 159540, Note_on_c, 1, 45, 0
3, 159592, Note_on_c, 1, 44, 67
3, 159704, Note_on_c, 1, 44, 0
3, 159728, Note_on_c, 1, 43, 61
3, 160364, Note_on_c, 1, 38, 47
3, 160428, Note_on_c, 1, 38, 0
3, 160744, Note_on_c, 1, 38, 53
3, 160868, Note_on_c, 1, 38, 0
3, 160872, Note_on_c, 1, 43, 0
3, 160884, Note_on_c, 1, 35, 48
3, 161244, Note_on_c, 1, 35, 0
3, 161272, Note_on_c, 1, 36, 58
3, 161656, Note_on_c, 1, 52, 53
3, 161812, Note_on_c, 1, 36, 0
3, 161900, Note_on_c, 1, 37, 47
3, 161972, Note_on_c, 1, 52, 0
3, 162004, Note_on_c, 1, 37, 0
3, 162024, Note_on_c, 1, 38, 45
3, 162276, Note_on_c, 1, 54, 57
3, 162408, Note_on_c, 1, 38, 0
3, 162560, Note_on_c, 1, 45, 66
3, 162636, Note_on_c, 1, 54, 0
3, 162640, Note_on_c, 1, 45, 0
3, 162668, Note_on_c, 1, 44, 56
3, 162784, Note_on_c, 1, 44, 0
3, 162792, Note_on_c, 1, 43, 61
3, 163072, Note_on_c, 1, 42, 23
3, 163176, Note_on_c, 1, 43, 0
3, 163180, Note_on_c, 1, 50, 71
3, 163208, Note_on_c, 1, 42, 0
3, 163488, Note_on_c, 1, 43, 20
3, 163508, Note_on_c, 1, 43, 0
3, 163560, Note_on_c, 1, 50, 0
3, 163580, Note_on_c, 1, 48, 56
3, 164076, Note_on_c, 1, 43, 58
3, 164128, Note_on_c, 1, 43, 0
3, 164200, Note_on_c, 1, 40, 54
3, 164288, Note_on_c, 1, 48, 0
3, 164304, Note_on_c, 1, 40, 0
3, 164336, Note_on_c, 1, 41, 55
3, 164852, Note_on_c, 1, 44, 57
3, 164924, Note_on_c, 1, 44, 0
3, 164964, Note_on_c, 1, 45, 61
3, 165068, Note_on_c, 1, 45, 0
3, 165104, Note_on_c, 1, 46, 75
3, 165216, Note_on_c, 1, 41, 0
3, 165740, Note_on_c, 1, 41, 34
3, 165784, Note_on_c, 1, 41, 0
3, 165868, Note_on_c, 1, 40, 66
3, 165880, Note_on_c, 1, 46, 0
3, 166380, Note_on_c, 1, 46, 52
3, 166404, Note_on_c, 1, 40, 0
3, 166492, Note_on_c, 1, 40, 51
3, 166500, Note_on_c, 1, 46, 0
3, 166596, Note_on_c, 1, 40, 0
3, 166620, Note_on_c, 1, 45, 54
3, 166656, Note_on_c, 1, 45, 0
3, 166724, Note_on_c, 1, 40, 68
3, 167020, Note_on_c, 1, 40, 0
3, 167028, Note_on_c, 1, 37, 60
3, 167252, Note_on_c, 1, 37, 0
3, 167288, Note_on_c, 1, 33, 41
3, 167400, Note_on_c, 1, 33, 0
3, 167412, Note_on_c, 1, 38, 71
3, 167776, Note_on_c, 1, 38, 0
3, 167784, Note_on_c, 1, 40, 60
3, 168152, Note_on_c, 1, 41, 62
3, 168164, Note_on_c, 1, 40, 0
3, 168728, Note_on_c, 1, 41, 0
3, 168796, Note_on_c, 1, 42, 76
3, 168944, Note_on_c, 1, 42, 0
3, 168956, Note_on_c, 1, 43, 58
3, 169316, Note_on_c, 1, 45, 69
3, 169320, Note_on_c, 1, 43, 0
3, 169576, Note_on_c, 1, 43, 53
3, 169612, Note_on_c, 1, 43, 0
3, 169704, Note_on_c, 1, 47, 59
3, 169720, Note_on_c, 1, 45, 0
3, 170344, Note_on_c, 1, 43, 54
3, 170356, Note_on_c, 1, 47, 0
3, 170472, Note_on_c, 1, 48, 82
3, 170500, Note_on_c, 1, 43, 0
3, 170844, Note_on_c, 1, 48, 0
3, 170872, Note_on_c, 1, 50, 71
3, 171228, Note_on_c, 1, 50, 0
3, 171248, Note_on_c, 1, 52, 72
3, 171624, Note_on_c, 1, 52, 0
3, 171648, Note_on_c, 1, 50, 63
3, 171948, Note_on_c, 1, 50, 0
3, 172020, Note_on_c, 1, 48, 92
3, 172208, Note_on_c, 1, 48, 0
3, 173044, Note_on_c, 1, 60, 62
3, 173056, Note_on_c, 1, 44, 57
3, 173540, Note_on_c, 1, 60, 0
3, 173568, Note_on_c, 1, 44, 0
3, 173588, Note_on_c, 1, 43, 39
3, 173592, Note_on_c, 1, 59, 32
3, 173676, Note_on_c, 1, 59, 0
3, 173844, Note_on_c, 1, 49, 43
3, 173908, Note_on_c, 1, 43, 0
3, 173920, Note_on_c, 1, 49, 0
3, 173948, Note_on_c, 1, 50, 36
3, 174340, Note_on_c, 1, 43, 44
3, 174368, Note_on_c, 1, 50, 0
3, 174700, Note_on_c, 1, 43, 0
3, 174720, Note_on_c, 1, 37, 60
3, 175072, Note_on_c, 1, 37, 0
3, 175108, Note_on_c, 1, 36, 56
3, 175484, Note_on_c, 1, 48, 74
3, 175532, Note_on_c, 1, 36, 0
3, 175828, Note_on_c, 1, 48, 0
3, 175872, Note_on_c, 1, 48, 71
3, 176252, Note_on_c, 1, 36, 83
3, 176556, Note_on_c, 1, 48, 0
3, 176632, Note_on_c, 1, 48, 83
3, 176976, Note_on_c, 1, 48, 0
3, 177024, Note_on_c, 1, 48, 76
3, 177088, Note_on_c, 1, 36, 0
3, 177420, Note_on_c, 1, 46, 65
3, 177436, Note_on_c, 1, 48, 0
3, 177780, Note_on_c, 1, 46, 0
3, 177808, Note_on_c, 1, 46, 70
3, 178164, Note_on_c, 1, 46, 0
3, 178176, Note_on_c, 1, 43, 50
3, 178556, Note_on_c, 1, 48, 69
3, 178564, Note_on_c, 1, 43, 0
3, 178928, Note_on_c, 1, 48, 0
3, 178940, Note_on_c, 1, 44, 56
3, 179328, Note_on_c, 1, 36, 69
3, 179352, Note_on_c, 1, 44, 0
3, 179608, Note_on_c, 1, 39, 18
3, 179680, Note_on_c, 1, 39, 0
3, 179680, Note_on_c, 1, 36, 0
3, 179704, Note_on_c, 1, 43, 71
3, 180364, Note_on_c, 1, 37, 47
3, 180420, Note_on_c, 1, 37, 0
3, 180496, Note_on_c, 1, 38, 46
3, 180580, Note_on_c, 1, 43, 0
3, 181112, Note_on_c, 1, 42, 61
3, 181132, Note_on_c, 1, 38, 0
3, 181228, Note_on_c, 1, 42, 0
3, 181240, Note_on_c, 1, 43, 56
3, 181484, Note_on_c, 1, 50, 75
3, 181496, Note_on_c, 1, 52, 50
3, 181516, Note_on_c, 1, 52, 0
3, 181572, Note_on_c, 1, 50, 0
3, 181628, Note_on_c, 1, 49, 44
3, 181688, Note_on_c, 1, 43, 0
3, 181868, Note_on_c, 1, 42, 40
3, 181904, Note_on_c, 1, 42, 0
3, 181984, Note_on_c, 1, 49, 0
3, 182012, Note_on_c, 1, 48, 58
3, 182532, Note_on_c, 1, 43, 36
3, 182580, Note_on_c, 1, 43, 0
3, 182784, Note_on_c, 1, 48, 0
3, 182784, Note_on_c, 1, 39, 64
3, 183048, Note_on_c, 1, 51, 70
3, 183548, Note_on_c, 1, 39, 0
3, 183564, Note_on_c, 1, 51, 0
3, 183568, Note_on_c, 1, 38, 49
3, 183804, Note_on_c, 1, 50, 49
3, 184064, Note_on_c, 1, 38, 0
3, 184076, Note_on_c, 1, 45, 44
3, 184108, Note_on_c, 1, 50, 0
3, 184176, Note_on_c, 1, 45, 0
3, 184176, Note_on_c, 1, 44, 58
3, 184312, Note_on_c, 1, 44, 0
3, 184328, Note_on_c, 1, 43, 74
3, 185448, Note_on_c, 1, 43, 0
3, 185448, Note_on_c, 1, 47, 55
3, 185828, Note_on_c, 1, 47, 0
3, 185848, Note_on_c, 1, 48, 62
3, 186360, Note_on_c, 1, 43, 53
3, 186424, Note_on_c, 1, 43, 0
3, 186488, Note_on_c, 1, 39, 49
3, 186580, Note_on_c, 1, 39, 0
3, 186624, Note_on_c, 1, 38, 62
3, 186736, Note_on_c, 1, 48, 0
3, 186984, Note_on_c, 1, 50, 64
3, 187212, Note_on_c, 1, 50, 0
3, 187244, Note_on_c, 1, 44, 60
3, 187272, Note_on_c, 1, 38, 0
3, 187364, Note_on_c, 1, 44, 0
3, 187388, Note_on_c, 1, 43, 60
3, 187760, Note_on_c, 1, 43, 0
3, 187764, Note_on_c, 1, 37, 67
3, 188152, Note_on_c, 1, 37, 0
3, 188156, Note_on_c, 1, 36, 65
3, 188924, Note_on_c, 1, 36, 0
3, 188936, Note_on_c, 1, 39, 69
3, 189700, Note_on_c, 1, 38, 68
3, 189704, Note_on_c, 1, 39, 0
3, 190712, Note_on_c, 1, 41, 79
3, 190716, Note_on_c, 1, 38, 0
3, 191464, Note_on_c, 1, 47, 87
3, 191556, Note_on_c, 1, 41, 0
3, 191588, Note_on_c, 1, 47, 0
3, 191608, Note_on_c, 1, 44, 56
3, 191848, Note_on_c, 1, 41, 40
3, 191876, Note_on_c, 1, 41, 0
3, 191920, Note_on_c, 1, 44, 0
3, 191968, Note_on_c, 1, 48, 62
3, 192248, Note_on_c, 1, 36, 83
3, 192672, Note_on_c, 1, 48, 0
3, 193124, Note_on_c, 1, 48, 60
3, 193332, Note_on_c, 1, 48, 0
3, 193532, Note_on_c, 1, 48, 74
3, 193564, Note_on_c, 1, 36, 0
3, 193796, Note_on_c, 1, 36, 87
3, 193920, Note_on_c, 1, 48, 0
3, 194688, Note_on_c, 1, 48, 84
3, 194708, Note_on_c, 1, 36, 0
3, 194824, Note_on_c, 1, 48, 0
3, 195072, Note_on_c, 1, 48, 80
3, 195116, Note_on_c, 1, 48, 0
3, 195204, Note_on_c, 1, 36, 43
3, 195276, Note_on_c, 1, 36, 0
3, 195320, Note_on_c, 1, 32, 60
3, 195428, Note_on_c, 1, 32, 0
3, 195448, Note_on_c, 1, 33, 69
3, 195816, Note_on_c, 1, 33, 0
3, 195832, Note_on_c, 1, 34, 58
3, 196136, Note_on_c, 1, 34, 0
3, 196200, Note_on_c, 1, 35, 57
3, 196540, Note_on_c, 1, 35, 0
3, 196596, Note_on_c, 1, 36, 54
3, 197216, Note_on_c, 1, 53, 62
3, 197356, Note_on_c, 1, 36, 0
3, 198216, Note_on_c, 1, 53, 0
3, 198216, End_track
4, 0, Start_track
4, 0, Title_t, "Flute then Vibes"
4, 0, Program_c, 2, 73
4, 0, Control_c, 2, 7, 116
4, 0, Control_c, 2, 10, 127
4, 0, Program_c, 2, 73
4, 0, Control_c, 2, 93, 127
4, 244, Note_on_c, 2, 60, 75
4, 288, Note_on_c, 2, 60, 0
4, 584, Note_on_c, 2, 60, 82
4, 636, Note_on_c, 2, 60, 0
4, 712, Note_on_c, 2, 62, 81
4, 764, Note_on_c, 2, 62, 0
4, 996, Note_on_c, 2, 62, 80
4, 1016, Note_on_c, 2, 62, 0
4, 1132, Note_on_c, 2, 68, 80
4, 1172, Note_on_c, 2, 69, 72
4, 1196, Note_on_c, 2, 68, 0
4, 1276, Note_on_c, 2, 69, 0
4, 1408, Note_on_c, 2, 67, 64
4, 1432, Note_on_c, 2, 69, 71
4, 1436, Note_on_c, 2, 67, 0
4, 1504, Note_on_c, 2, 69, 0
4, 1608, Note_on_c, 2, 64, 69
4, 1656, Note_on_c, 2, 65, 34
4, 1692, Note_on_c, 2, 64, 0
4, 2584, Note_on_c, 2, 65, 0
4, 2596, Note_on_c, 2, 64, 44
4, 2748, Note_on_c, 2, 64, 0
4, 2760, Note_on_c, 2, 65, 68
4, 2784, Note_on_c, 2, 65, 0
4, 3000, Note_on_c, 2, 62, 45
4, 3060, Note_on_c, 2, 62, 0
4, 3128, Note_on_c, 2, 65, 60
4, 3332, Note_on_c, 2, 65, 0
4, 3364, Note_on_c, 2, 67, 63
4, 3416, Note_on_c, 2, 67, 0
4, 3480, Note_on_c, 2, 65, 35
4, 3520, Note_on_c, 2, 65, 0
4, 3724, Note_on_c, 2, 62, 59
4, 3748, Note_on_c, 2, 62, 0
4, 3856, Note_on_c, 2, 65, 68
4, 3912, Note_on_c, 2, 65, 0
4, 3912, Note_on_c, 2, 67, 64
4, 4044, Note_on_c, 2, 67, 0
4, 4100, Note_on_c, 2, 67, 65
4, 4172, Note_on_c, 2, 67, 0
4, 4276, Note_on_c, 2, 67, 69
4, 4348, Note_on_c, 2, 67, 0
4, 4480, Note_on_c, 2, 65, 71
4, 4524, Note_on_c, 2, 67, 68
4, 4544, Note_on_c, 2, 65, 0
4, 4592, Note_on_c, 2, 67, 0
4, 4656, Note_on_c, 2, 65, 47
4, 5360, Note_on_c, 2, 65, 0
4, 5612, Note_on_c, 2, 79, 92
4, 5672, Note_on_c, 2, 79, 0
4, 5744, Note_on_c, 2, 76, 63
4, 5776, Note_on_c, 2, 76, 0
4, 5880, Note_on_c, 2, 72, 46
4, 5944, Note_on_c, 2, 72, 0
4, 6004, Note_on_c, 2, 67, 35
4, 6064, Note_on_c, 2, 67, 0
4, 6388, Note_on_c, 2, 72, 49
4, 6412, Note_on_c, 2, 72, 0
4, 6764, Note_on_c, 2, 60, 79
4, 6820, Note_on_c, 2, 60, 0
4, 6904, Note_on_c, 2, 62, 53
4, 6916, Note_on_c, 2, 60, 36
4, 6944, Note_on_c, 2, 60, 0
4, 6944, Note_on_c, 2, 62, 0
4, 7016, Note_on_c, 2, 62, 70
4, 7076, Note_on_c, 2, 62, 0
4, 7392, Note_on_c, 2, 65, 52
4, 7416, Note_on_c, 2, 65, 0
4, 7512, Note_on_c, 2, 72, 85
4, 7600, Note_on_c, 2, 72, 0
4, 7648, Note_on_c, 2, 68, 68
4, 7708, Note_on_c, 2, 69, 69
4, 7720, Note_on_c, 2, 68, 0
4, 7936, Note_on_c, 2, 69, 0
4, 8248, Note_on_c, 2, 68, 67
4, 8284, Note_on_c, 2, 68, 0
4, 8428, Note_on_c, 2, 68, 68
4, 8476, Note_on_c, 2, 68, 0
4, 8508, Note_on_c, 2, 69, 48
4, 8556, Note_on_c, 2, 69, 0
4, 8700, Note_on_c, 2, 65, 71
4, 8752, Note_on_c, 2, 65, 0
4, 8864, Note_on_c, 2, 62, 31
4, 9016, Note_on_c, 2, 62, 0
4, 9080, Note_on_c, 2, 65, 41
4, 9124, Note_on_c, 2, 65, 0
4, 9436, Note_on_c, 2, 65, 52
4, 9468, Note_on_c, 2, 65, 0
4, 9584, Note_on_c, 2, 67, 67
4, 9612, Note_on_c, 2, 67, 0
4, 9716, Note_on_c, 2, 67, 71
4, 9764, Note_on_c, 2, 67, 0
4, 9840, Note_on_c, 2, 65, 66
4, 9868, Note_on_c, 2, 65, 0
4, 10004, Note_on_c, 2, 65, 41
4, 10016, Note_on_c, 2, 66, 54
4, 10040, Note_on_c, 2, 65, 0
4, 10056, Note_on_c, 2, 66, 0
4, 10068, Note_on_c, 2, 67, 51
4, 10216, Note_on_c, 2, 67, 0
4, 10260, Note_on_c, 2, 67, 67
4, 10324, Note_on_c, 2, 67, 0
4, 10412, Note_on_c, 2, 65, 46
4, 10440, Note_on_c, 2, 65, 0
4, 10620, Note_on_c, 2, 67, 71
4, 10672, Note_on_c, 2, 67, 0
4, 10780, Note_on_c, 2, 68, 62
4, 10828, Note_on_c, 2, 68, 0
4, 10852, Note_on_c, 2, 69, 66
4, 10904, Note_on_c, 2, 69, 0
4, 10960, Note_on_c, 2, 69, 63
4, 11004, Note_on_c, 2, 69, 0
4, 11052, Note_on_c, 2, 69, 66
4, 11120, Note_on_c, 2, 69, 0
4, 11168, Note_on_c, 2, 68, 63
4, 11216, Note_on_c, 2, 68, 0
4, 11236, Note_on_c, 2, 69, 66
4, 11996, Note_on_c, 2, 69, 0
4, 12540, Note_on_c, 2, 67, 49
4, 12564, Note_on_c, 2, 67, 0
4, 12692, Note_on_c, 2, 75, 65
4, 12724, Note_on_c, 2, 76, 74
4, 12756, Note_on_c, 2, 75, 0
4, 12828, Note_on_c, 2, 76, 0
4, 12916, Note_on_c, 2, 75, 68
4, 12960, Note_on_c, 2, 76, 74
4, 12992, Note_on_c, 2, 75, 0
4, 13048, Note_on_c, 2, 76, 0
4, 13136, Note_on_c, 2, 75, 67
4, 13192, Note_on_c, 2, 76, 59
4, 13228, Note_on_c, 2, 75, 0
4, 13680, Note_on_c, 2, 76, 0
4, 13704, Note_on_c, 2, 74, 68
4, 13756, Note_on_c, 2, 74, 0
4, 13856, Note_on_c, 2, 72, 55
4, 13996, Note_on_c, 2, 72, 0
4, 14048, Note_on_c, 2, 74, 42
4, 14076, Note_on_c, 2, 74, 0
4, 14088, Note_on_c, 2, 72, 45
4, 14156, Note_on_c, 2, 72, 0
4, 14156, Note_on_c, 2, 71, 58
4, 14180, Note_on_c, 2, 71, 0
4, 14260, Note_on_c, 2, 72, 65
4, 14340, Note_on_c, 2, 72, 0
4, 14456, Note_on_c, 2, 73, 69
4, 14512, Note_on_c, 2, 73, 0
4, 14600, Note_on_c, 2, 74, 66
4, 14672, Note_on_c, 2, 74, 0
4, 14836, Note_on_c, 2, 74, 68
4, 14896, Note_on_c, 2, 74, 0
4, 14988, Note_on_c, 2, 72, 57
4, 15012, Note_on_c, 2, 72, 0
4, 15240, Note_on_c, 2, 69, 60
4, 15268, Note_on_c, 2, 69, 0
4, 15384, Note_on_c, 2, 70, 54
4, 15620, Note_on_c, 2, 70, 0
4, 15644, Note_on_c, 2, 70, 33
4, 15692, Note_on_c, 2, 70, 0
4, 15928, Note_on_c, 2, 69, 54
4, 15956, Note_on_c, 2, 69, 0
4, 16028, Note_on_c, 2, 70, 64
4, 16060, Note_on_c, 2, 70, 0
4, 16148, Note_on_c, 2, 70, 62
4, 16180, Note_on_c, 2, 71, 74
4, 16192, Note_on_c, 2, 70, 0
4, 16248, Note_on_c, 2, 71, 0
4, 16248, Note_on_c, 2, 72, 54
4, 16336, Note_on_c, 2, 72, 0
4, 16404, Note_on_c, 2, 71, 64
4, 16436, Note_on_c, 2, 71, 0
4, 16444, Note_on_c, 2, 72, 64
4, 16524, Note_on_c, 2, 72, 0
4, 16600, Note_on_c, 2, 70, 47
4, 16656, Note_on_c, 2, 70, 0
4, 16768, Note_on_c, 2, 70, 62
4, 16836, Note_on_c, 2, 70, 0
4, 16932, Note_on_c, 2, 68, 59
4, 16976, Note_on_c, 2, 68, 0
4, 17028, Note_on_c, 2, 69, 68
4, 17056, Note_on_c, 2, 69, 0
4, 17120, Note_on_c, 2, 69, 62
4, 17156, Note_on_c, 2, 69, 0
4, 17220, Note_on_c, 2, 69, 69
4, 17280, Note_on_c, 2, 69, 0
4, 17328, Note_on_c, 2, 68, 55
4, 17384, Note_on_c, 2, 68, 0
4, 17412, Note_on_c, 2, 69, 68
4, 17440, Note_on_c, 2, 69, 0
4, 18052, Note_on_c, 2, 71, 76
4, 18088, Note_on_c, 2, 71, 0
4, 18108, Note_on_c, 2, 72, 72
4, 18176, Note_on_c, 2, 72, 0
4, 18332, Note_on_c, 2, 70, 67
4, 18408, Note_on_c, 2, 70, 0
4, 18472, Note_on_c, 2, 67, 57
4, 18628, Note_on_c, 2, 67, 0
4, 18652, Note_on_c, 2, 69, 35
4, 18684, Note_on_c, 2, 69, 0
4, 18704, Note_on_c, 2, 67, 43
4, 18772, Note_on_c, 2, 66, 34
4, 18784, Note_on_c, 2, 67, 0
4, 18828, Note_on_c, 2, 66, 0
4, 18880, Note_on_c, 2, 67, 71
4, 19020, Note_on_c, 2, 67, 0
4, 19128, Note_on_c, 2, 70, 77
4, 19204, Note_on_c, 2, 70, 0
4, 19284, Note_on_c, 2, 69, 65
4, 19336, Note_on_c, 2, 69, 0
4, 19500, Note_on_c, 2, 67, 73
4, 19572, Note_on_c, 2, 67, 0
4, 19648, Note_on_c, 2, 64, 36
4, 19740, Note_on_c, 2, 64, 0
4, 19892, Note_on_c, 2, 61, 37
4, 19956, Note_on_c, 2, 61, 0
4, 20020, Note_on_c, 2, 65, 60
4, 20084, Note_on_c, 2, 65, 0
4, 20252, Note_on_c, 2, 60, 57
4, 20276, Note_on_c, 2, 60, 0
4, 20388, Note_on_c, 2, 67, 76
4, 20700, Note_on_c, 2, 67, 0
4, 20748, Note_on_c, 2, 64, 34
4, 21012, Note_on_c, 2, 64, 0
4, 21020, Note_on_c, 2, 60, 24
4, 21044, Note_on_c, 2, 60, 0
4, 21108, Note_on_c, 2, 65, 62
4, 21360, Note_on_c, 2, 65, 0
4, 21396, Note_on_c, 2, 60, 26
4, 21420, Note_on_c, 2, 60, 0
4, 21464, Note_on_c, 2, 66, 61
4, 21548, Note_on_c, 2, 67, 48
4, 21552, Note_on_c, 2, 66, 0
4, 21824, Note_on_c, 2, 67, 0
4, 21824, Note_on_c, 2, 68, 56
4, 21868, Note_on_c, 2, 68, 0
4, 21880, Note_on_c, 2, 69, 54
4, 22236, Note_on_c, 2, 69, 0
4, 22256, Note_on_c, 2, 66, 46
4, 22604, Note_on_c, 2, 66, 0
4, 22640, Note_on_c, 2, 67, 49
4, 22992, Note_on_c, 2, 67, 0
4, 23016, Note_on_c, 2, 73, 64
4, 23036, Note_on_c, 2, 73, 0
4, 23048, Note_on_c, 2, 74, 66
4, 23512, Note_on_c, 2, 74, 0
4, 23880, Note_on_c, 2, 84, 87
4, 23936, Note_on_c, 2, 84, 0
4, 24016, Note_on_c, 2, 81, 71
4, 24048, Note_on_c, 2, 81, 0
4, 24232, Note_on_c, 2, 77, 73
4, 24292, Note_on_c, 2, 77, 0
4, 24332, Note_on_c, 2, 74, 48
4, 24484, Note_on_c, 2, 74, 0
4, 24996, Note_on_c, 2, 60, 63
4, 25072, Note_on_c, 2, 60, 0
4, 25096, Note_on_c, 2, 62, 66
4, 25124, Note_on_c, 2, 62, 0
4, 25220, Note_on_c, 2, 65, 65
4, 25292, Note_on_c, 2, 65, 0
4, 25328, Note_on_c, 2, 70, 60
4, 25396, Note_on_c, 2, 70, 0
4, 25428, Note_on_c, 2, 74, 75
4, 25452, Note_on_c, 2, 74, 0
4, 25528, Note_on_c, 2, 77, 73
4, 25564, Note_on_c, 2, 77, 0
4, 25656, Note_on_c, 2, 83, 40
4, 25684, Note_on_c, 2, 83, 0
4, 25736, Note_on_c, 2, 86, 83
4, 25800, Note_on_c, 2, 86, 0
4, 25876, Note_on_c, 2, 82, 67
4, 25920, Note_on_c, 2, 82, 0
4, 26036, Note_on_c, 2, 77, 34
4, 26068, Note_on_c, 2, 77, 0
4, 26120, Note_on_c, 2, 80, 57
4, 26172, Note_on_c, 2, 80, 0
4, 26220, Note_on_c, 2, 81, 56
4, 26276, Note_on_c, 2, 81, 0
4, 26328, Note_on_c, 2, 77, 55
4, 26376, Note_on_c, 2, 77, 0
4, 26432, Note_on_c, 2, 74, 60
4, 26456, Note_on_c, 2, 74, 0
4, 26540, Note_on_c, 2, 77, 71
4, 26784, Note_on_c, 2, 77, 0
4, 26932, Note_on_c, 2, 77, 63
4, 27088, Note_on_c, 2, 77, 0
4, 27108, Note_on_c, 2, 79, 50
4, 27160, Note_on_c, 2, 79, 0
4, 27184, Note_on_c, 2, 77, 52
4, 27220, Note_on_c, 2, 77, 0
4, 27244, Note_on_c, 2, 74, 62
4, 27272, Note_on_c, 2, 74, 0
4, 27328, Note_on_c, 2, 77, 74
4, 27496, Note_on_c, 2, 77, 0
4, 27524, Note_on_c, 2, 79, 51
4, 27572, Note_on_c, 2, 79, 0
4, 27576, Note_on_c, 2, 77, 54
4, 27632, Note_on_c, 2, 77, 0
4, 27644, Note_on_c, 2, 74, 57
4, 27668, Note_on_c, 2, 74, 0
4, 27724, Note_on_c, 2, 77, 73
4, 27912, Note_on_c, 2, 77, 0
4, 27956, Note_on_c, 2, 79, 50
4, 27992, Note_on_c, 2, 79, 0
4, 28080, Note_on_c, 2, 77, 58
4, 28108, Note_on_c, 2, 77, 0
4, 28312, Note_on_c, 2, 74, 66
4, 28336, Note_on_c, 2, 74, 0
4, 28484, Note_on_c, 2, 79, 47
4, 28532, Note_on_c, 2, 79, 0
4, 28540, Note_on_c, 2, 80, 51
4, 28588, Note_on_c, 2, 79, 47
4, 28596, Note_on_c, 2, 80, 0
4, 28640, Note_on_c, 2, 79, 0
4, 28652, Note_on_c, 2, 77, 46
4, 28692, Note_on_c, 2, 77, 0
4, 28740, Note_on_c, 2, 74, 54
4, 28820, Note_on_c, 2, 74, 0
4, 28860, Note_on_c, 2, 72, 51
4, 28884, Note_on_c, 2, 72, 0
4, 28972, Note_on_c, 2, 71, 64
4, 28992, Note_on_c, 2, 71, 0
4, 29064, Note_on_c, 2, 70, 68
4, 29128, Note_on_c, 2, 70, 0
4, 29200, Note_on_c, 2, 65, 40
4, 29228, Note_on_c, 2, 65, 0
4, 29272, Note_on_c, 2, 68, 54
4, 29336, Note_on_c, 2, 68, 0
4, 29348, Note_on_c, 2, 69, 60
4, 29408, Note_on_c, 2, 69, 0
4, 29440, Note_on_c, 2, 65, 49
4, 29500, Note_on_c, 2, 65, 0
4, 29536, Note_on_c, 2, 64, 25
4, 29560, Note_on_c, 2, 64, 0
4, 29604, Note_on_c, 2, 65, 66
4, 29888, Note_on_c, 2, 65, 0
4, 31108, Note_on_c, 2, 71, 64
4, 31140, Note_on_c, 2, 71, 0
4, 31216, Note_on_c, 2, 72, 62
4, 31244, Note_on_c, 2, 72, 0
4, 31472, Note_on_c, 2, 74, 77
4, 31528, Note_on_c, 2, 74, 0
4, 31736, Note_on_c, 2, 77, 64
4, 31764, Note_on_c, 2, 77, 0
4, 31912, Note_on_c, 2, 69, 67
4, 31944, Note_on_c, 2, 69, 0
4, 32008, Note_on_c, 2, 72, 24
4, 32024, Note_on_c, 2, 71, 31
4, 32048, Note_on_c, 2, 71, 0
4, 32068, Note_on_c, 2, 72, 0
4, 32192, Note_on_c, 2, 72, 80
4, 32260, Note_on_c, 2, 72, 0
4, 32392, Note_on_c, 2, 68, 25
4, 32396, Note_on_c, 2, 69, 62
4, 32444, Note_on_c, 2, 68, 0
4, 32504, Note_on_c, 2, 69, 0
4, 32612, Note_on_c, 2, 68, 55
4, 32652, Note_on_c, 2, 69, 70
4, 32676, Note_on_c, 2, 68, 0
4, 32732, Note_on_c, 2, 69, 0
4, 32916, Note_on_c, 2, 65, 58
4, 32944, Note_on_c, 2, 65, 0
4, 33084, Note_on_c, 2, 68, 70
4, 33148, Note_on_c, 2, 68, 0
4, 33152, Note_on_c, 2, 69, 68
4, 33216, Note_on_c, 2, 69, 0
4, 33264, Note_on_c, 2, 65, 38
4, 33332, Note_on_c, 2, 65, 0
4, 33356, Note_on_c, 2, 62, 54
4, 33384, Note_on_c, 2, 62, 0
4, 33448, Note_on_c, 2, 65, 59
4, 33576, Note_on_c, 2, 65, 0
4, 33576, Note_on_c, 2, 62, 48
4, 33604, Note_on_c, 2, 62, 0
4, 34032, Note_on_c, 2, 65, 69
4, 34072, Note_on_c, 2, 65, 0
4, 34156, Note_on_c, 2, 67, 68
4, 34192, Note_on_c, 2, 67, 0
4, 34280, Note_on_c, 2, 67, 68
4, 34328, Note_on_c, 2, 67, 0
4, 34420, Note_on_c, 2, 65, 71
4, 34444, Note_on_c, 2, 65, 0
4, 34572, Note_on_c, 2, 67, 71
4, 34596, Note_on_c, 2, 67, 0
4, 34692, Note_on_c, 2, 67, 70
4, 34744, Note_on_c, 2, 67, 0
4, 34808, Note_on_c, 2, 65, 60
4, 34836, Note_on_c, 2, 65, 0
4, 34952, Note_on_c, 2, 67, 71
4, 34976, Note_on_c, 2, 67, 0
4, 35076, Note_on_c, 2, 67, 72
4, 35132, Note_on_c, 2, 67, 0
4, 35184, Note_on_c, 2, 65, 60
4, 35208, Note_on_c, 2, 65, 0
4, 35336, Note_on_c, 2, 68, 55
4, 35360, Note_on_c, 2, 68, 0
4, 35436, Note_on_c, 2, 69, 62
4, 35436, Note_on_c, 2, 71, 60
4, 35504, Note_on_c, 2, 71, 0
4, 35648, Note_on_c, 2, 69, 0
4, 35712, Note_on_c, 2, 68, 64
4, 35760, Note_on_c, 2, 69, 57
4, 35792, Note_on_c, 2, 68, 0
4, 36000, Note_on_c, 2, 69, 0
4, 37100, Note_on_c, 2, 75, 59
4, 37144, Note_on_c, 2, 75, 0
4, 37268, Note_on_c, 2, 76, 58
4, 37320, Note_on_c, 2, 76, 0
4, 37492, Note_on_c, 2, 76, 74
4, 37556, Note_on_c, 2, 76, 0
4, 37684, Note_on_c, 2, 75, 56
4, 37732, Note_on_c, 2, 76, 51
4, 37744, Note_on_c, 2, 75, 0
4, 38256, Note_on_c, 2, 76, 0
4, 38276, Note_on_c, 2, 74, 57
4, 38360, Note_on_c, 2, 74, 0
4, 38428, Note_on_c, 2, 72, 34
4, 38552, Note_on_c, 2, 72, 0
4, 38588, Note_on_c, 2, 74, 41
4, 38640, Note_on_c, 2, 74, 0
4, 38648, Note_on_c, 2, 72, 48
4, 38712, Note_on_c, 2, 72, 0
4, 38716, Note_on_c, 2, 71, 58
4, 38740, Note_on_c, 2, 71, 0
4, 38820, Note_on_c, 2, 72, 60
4, 38924, Note_on_c, 2, 72, 0
4, 39044, Note_on_c, 2, 73, 67
4, 39096, Note_on_c, 2, 73, 0
4, 39200, Note_on_c, 2, 73, 63
4, 39252, Note_on_c, 2, 74, 60
4, 39256, Note_on_c, 2, 73, 0
4, 39336, Note_on_c, 2, 74, 0
4, 39412, Note_on_c, 2, 73, 60
4, 39460, Note_on_c, 2, 74, 57
4, 39492, Note_on_c, 2, 73, 0
4, 39548, Note_on_c, 2, 74, 0
4, 39620, Note_on_c, 2, 72, 29
4, 39684, Note_on_c, 2, 72, 0
4, 39824, Note_on_c, 2, 72, 66
4, 39892, Note_on_c, 2, 72, 0
4, 40000, Note_on_c, 2, 70, 48
4, 40032, Note_on_c, 2, 70, 0
4, 40060, Note_on_c, 2, 72, 55
4, 40116, Note_on_c, 2, 70, 45
4, 40124, Note_on_c, 2, 72, 0
4, 40200, Note_on_c, 2, 70, 0
4, 40204, Note_on_c, 2, 69, 53
4, 40232, Note_on_c, 2, 69, 0
4, 40320, Note_on_c, 2, 70, 48
4, 40376, Note_on_c, 2, 70, 0
4, 40408, Note_on_c, 2, 72, 49
4, 40464, Note_on_c, 2, 70, 56
4, 40468, Note_on_c, 2, 72, 0
4, 40568, Note_on_c, 2, 70, 0
4, 40576, Note_on_c, 2, 69, 40
4, 40604, Note_on_c, 2, 69, 0
4, 40656, Note_on_c, 2, 70, 67
4, 40704, Note_on_c, 2, 70, 0
4, 40768, Note_on_c, 2, 72, 65
4, 40820, Note_on_c, 2, 72, 0
4, 40964, Note_on_c, 2, 72, 72
4, 41008, Note_on_c, 2, 72, 0
4, 41140, Note_on_c, 2, 72, 71
4, 41196, Note_on_c, 2, 72, 0
4, 41340, Note_on_c, 2, 70, 67
4, 41384, Note_on_c, 2, 70, 0
4, 41856, Note_on_c, 2, 69, 66
4, 41884, Note_on_c, 2, 70, 55
4, 41892, Note_on_c, 2, 69, 0
4, 41936, Note_on_c, 2, 69, 62
4, 41940, Note_on_c, 2, 70, 0
4, 42012, Note_on_c, 2, 68, 49
4, 42024, Note_on_c, 2, 69, 0
4, 42084, Note_on_c, 2, 68, 0
4, 42116, Note_on_c, 2, 69, 49
4, 42172, Note_on_c, 2, 69, 0
4, 42328, Note_on_c, 2, 72, 53
4, 42356, Note_on_c, 2, 72, 0
4, 42432, Note_on_c, 2, 77, 41
4, 42464, Note_on_c, 2, 77, 0
4, 42508, Note_on_c, 2, 81, 64
4, 42556, Note_on_c, 2, 81, 0
4, 42604, Note_on_c, 2, 84, 88
4, 42648, Note_on_c, 2, 84, 0
4, 42716, Note_on_c, 2, 82, 74
4, 42788, Note_on_c, 2, 82, 0
4, 42820, Note_on_c, 2, 78, 50
4, 42852, Note_on_c, 2, 78, 0
4, 42900, Note_on_c, 2, 81, 71
4, 42952, Note_on_c, 2, 81, 0
4, 43004, Note_on_c, 2, 79, 61
4, 43072, Note_on_c, 2, 79, 0
4, 43676, Note_on_c, 2, 79, 75
4, 43724, Note_on_c, 2, 79, 0
4, 43852, Note_on_c, 2, 86, 87
4, 43920, Note_on_c, 2, 86, 0
4, 44072, Note_on_c, 2, 83, 80
4, 44136, Note_on_c, 2, 83, 0
4, 44224, Note_on_c, 2, 80, 57
4, 44292, Note_on_c, 2, 80, 0
4, 44436, Note_on_c, 2, 77, 63
4, 44528, Note_on_c, 2, 77, 0
4, 44592, Note_on_c, 2, 74, 53
4, 44640, Note_on_c, 2, 74, 0
4, 44820, Note_on_c, 2, 72, 65
4, 44844, Note_on_c, 2, 72, 0
4, 44964, Note_on_c, 2, 72, 68
4, 45016, Note_on_c, 2, 72, 0
4, 45204, Note_on_c, 2, 72, 64
4, 45236, Note_on_c, 2, 72, 0
4, 45332, Note_on_c, 2, 72, 51
4, 45356, Note_on_c, 2, 73, 59
4, 45376, Note_on_c, 2, 72, 0
4, 45396, Note_on_c, 2, 73, 0
4, 45404, Note_on_c, 2, 74, 57
4, 45472, Note_on_c, 2, 74, 0
4, 45584, Note_on_c, 2, 74, 66
4, 45664, Note_on_c, 2, 74, 0
4, 45724, Note_on_c, 2, 69, 48
4, 45780, Note_on_c, 2, 69, 0
4, 45956, Note_on_c, 2, 69, 47
4, 45980, Note_on_c, 2, 69, 0
4, 46100, Note_on_c, 2, 70, 61
4, 46128, Note_on_c, 2, 71, 68
4, 46152, Note_on_c, 2, 70, 0
4, 46196, Note_on_c, 2, 71, 0
4, 46200, Note_on_c, 2, 72, 67
4, 46832, Note_on_c, 2, 72, 0
4, 46868, Note_on_c, 2, 62, 35
4, 47496, Note_on_c, 2, 62, 0
4, 47856, Note_on_c, 2, 77, 67
4, 47876, Note_on_c, 2, 77, 0
4, 47992, Note_on_c, 2, 82, 69
4, 48040, Note_on_c, 2, 82, 0
4, 48108, Note_on_c, 2, 83, 70
4, 48160, Note_on_c, 2, 83, 0
4, 48232, Note_on_c, 2, 82, 73
4, 48288, Note_on_c, 2, 82, 0
4, 48384, Note_on_c, 2, 80, 51
4, 48420, Note_on_c, 2, 80, 0
4, 48480, Note_on_c, 2, 82, 33
4, 48540, Note_on_c, 2, 80, 58
4, 48556, Note_on_c, 2, 82, 0
4, 48628, Note_on_c, 2, 80, 0
4, 48636, Note_on_c, 2, 77, 71
4, 48700, Note_on_c, 2, 77, 0
4, 48744, Note_on_c, 2, 75, 55
4, 48916, Note_on_c, 2, 75, 0
4, 49012, Note_on_c, 2, 77, 78
4, 49068, Note_on_c, 2, 77, 0
4, 49204, Note_on_c, 2, 75, 28
4, 49224, Note_on_c, 2, 75, 0
4, 49256, Note_on_c, 2, 77, 60
4, 49300, Note_on_c, 2, 75, 55
4, 49316, Note_on_c, 2, 77, 0
4, 49372, Note_on_c, 2, 75, 0
4, 49400, Note_on_c, 2, 72, 67
4, 49460, Note_on_c, 2, 72, 0
4, 49524, Note_on_c, 2, 71, 70
4, 49884, Note_on_c, 2, 71, 0
4, 49948, Note_on_c, 2, 70, 49
4, 50028, Note_on_c, 2, 70, 0
4, 50056, Note_on_c, 2, 65, 50
4, 50084, Note_on_c, 2, 65, 0
4, 50132, Note_on_c, 2, 70, 59
4, 50204, Note_on_c, 2, 70, 0
4, 50232, Note_on_c, 2, 74, 66
4, 50256, Note_on_c, 2, 74, 0
4, 50328, Note_on_c, 2, 77, 74
4, 50360, Note_on_c, 2, 77, 0
4, 50424, Note_on_c, 2, 82, 67
4, 50484, Note_on_c, 2, 82, 0
4, 50524, Note_on_c, 2, 86, 62
4, 50604, Note_on_c, 2, 86, 0
4, 50640, Note_on_c, 2, 80, 83
4, 50684, Note_on_c, 2, 80, 0
4, 50744, Note_on_c, 2, 81, 80
4, 50808, Note_on_c, 2, 81, 0
4, 50852, Note_on_c, 2, 77, 60
4, 50908, Note_on_c, 2, 77, 0
4, 51076, Note_on_c, 2, 77, 58
4, 51324, Note_on_c, 2, 77, 0
4, 51348, Note_on_c, 2, 74, 56
4, 51372, Note_on_c, 2, 74, 0
4, 51452, Note_on_c, 2, 77, 55
4, 51692, Note_on_c, 2, 77, 0
4, 51724, Note_on_c, 2, 79, 58
4, 51784, Note_on_c, 2, 79, 0
4, 51796, Note_on_c, 2, 77, 68
4, 51852, Note_on_c, 2, 77, 0
4, 51876, Note_on_c, 2, 74, 40
4, 52068, Note_on_c, 2, 74, 0
4, 52112, Note_on_c, 2, 77, 67
4, 52188, Note_on_c, 2, 77, 0
4, 52824, Note_on_c, 2, 69, 62
4, 52876, Note_on_c, 2, 69, 0
4, 52916, Note_on_c, 2, 70, 60
4, 52964, Note_on_c, 2, 70, 0
4, 53016, Note_on_c, 2, 74, 70
4, 53056, Note_on_c, 2, 74, 0
4, 53112, Note_on_c, 2, 77, 64
4, 53164, Note_on_c, 2, 77, 0
4, 53204, Note_on_c, 2, 81, 66
4, 53256, Note_on_c, 2, 81, 0
4, 53300, Note_on_c, 2, 82, 57
4, 53360, Note_on_c, 2, 82, 0
4, 53380, Note_on_c, 2, 83, 53
4, 53448, Note_on_c, 2, 83, 0
4, 53488, Note_on_c, 2, 84, 75
4, 53556, Note_on_c, 2, 84, 0
4, 53668, Note_on_c, 2, 77, 62
4, 53696, Note_on_c, 2, 77, 0
4, 53756, Note_on_c, 2, 80, 64
4, 53812, Note_on_c, 2, 80, 0
4, 53856, Note_on_c, 2, 81, 63
4, 53924, Note_on_c, 2, 81, 0
4, 53936, Note_on_c, 2, 77, 65
4, 54032, Note_on_c, 2, 77, 0
4, 54056, Note_on_c, 2, 74, 55
4, 54084, Note_on_c, 2, 74, 0
4, 54132, Note_on_c, 2, 77, 64
4, 54224, Note_on_c, 2, 77, 0
4, 54268, Note_on_c, 2, 72, 48
4, 54296, Note_on_c, 2, 72, 0
4, 54664, Note_on_c, 2, 76, 79
4, 54704, Note_on_c, 2, 76, 0
4, 54776, Note_on_c, 2, 79, 94
4, 54840, Note_on_c, 2, 79, 0
4, 54896, Note_on_c, 2, 76, 74
4, 54948, Note_on_c, 2, 76, 0
4, 55024, Note_on_c, 2, 72, 66
4, 55080, Note_on_c, 2, 72, 0
4, 55324, Note_on_c, 2, 73, 25
4, 55344, Note_on_c, 2, 73, 0
4, 55424, Note_on_c, 2, 76, 71
4, 55480, Note_on_c, 2, 76, 0
4, 55560, Note_on_c, 2, 79, 89
4, 55628, Note_on_c, 2, 79, 0
4, 55688, Note_on_c, 2, 76, 69
4, 55748, Note_on_c, 2, 76, 0
4, 55816, Note_on_c, 2, 72, 60
4, 55904, Note_on_c, 2, 72, 0
4, 56056, Note_on_c, 2, 74, 81
4, 56124, Note_on_c, 2, 74, 0
4, 56188, Note_on_c, 2, 77, 83
4, 56244, Note_on_c, 2, 77, 0
4, 56300, Note_on_c, 2, 74, 77
4, 56376, Note_on_c, 2, 74, 0
4, 56440, Note_on_c, 2, 70, 69
4, 56528, Note_on_c, 2, 70, 0
4, 56692, Note_on_c, 2, 68, 63
4, 56768, Note_on_c, 2, 68, 0
4, 56840, Note_on_c, 2, 69, 55
4, 56892, Note_on_c, 2, 69, 0
4, 56984, Note_on_c, 2, 72, 66
4, 57052, Note_on_c, 2, 72, 0
4, 57120, Note_on_c, 2, 68, 71
4, 57168, Note_on_c, 2, 68, 0
4, 57244, Note_on_c, 2, 69, 63
4, 57312, Note_on_c, 2, 69, 0
4, 57372, Note_on_c, 2, 65, 68
4, 57444, Note_on_c, 2, 65, 0
4, 57492, Note_on_c, 2, 62, 46
4, 57576, Note_on_c, 2, 62, 0
4, 57616, Note_on_c, 2, 61, 48
4, 57660, Note_on_c, 2, 61, 0
4, 57716, Note_on_c, 2, 64, 57
4, 57752, Note_on_c, 2, 64, 0
4, 57796, Note_on_c, 2, 69, 65
4, 57856, Note_on_c, 2, 69, 0
4, 57860, Note_on_c, 2, 73, 59
4, 57896, Note_on_c, 2, 73, 0
4, 57952, Note_on_c, 2, 76, 58
4, 57972, Note_on_c, 2, 77, 29
4, 57992, Note_on_c, 2, 77, 0
4, 58004, Note_on_c, 2, 76, 0
4, 58024, Note_on_c, 2, 81, 54
4, 58092, Note_on_c, 2, 85, 53
4, 58100, Note_on_c, 2, 81, 0
4, 58148, Note_on_c, 2, 85, 0
4, 58188, Note_on_c, 2, 88, 54
4, 58216, Note_on_c, 2, 88, 0
4, 59008, Note_on_c, 2, 77, 69
4, 59060, Note_on_c, 2, 77, 0
4, 59152, Note_on_c, 2, 79, 70
4, 59200, Note_on_c, 2, 79, 0
4, 59272, Note_on_c, 2, 79, 64
4, 59336, Note_on_c, 2, 79, 0
4, 59392, Note_on_c, 2, 77, 69
4, 59444, Note_on_c, 2, 77, 0
4, 59528, Note_on_c, 2, 79, 74
4, 59604, Note_on_c, 2, 79, 0
4, 59656, Note_on_c, 2, 77, 66
4, 59708, Note_on_c, 2, 77, 0
4, 59796, Note_on_c, 2, 80, 70
4, 59860, Note_on_c, 2, 80, 0
4, 59948, Note_on_c, 2, 81, 65
4, 60016, Note_on_c, 2, 81, 0
4, 60172, Note_on_c, 2, 77, 71
4, 60236, Note_on_c, 2, 77, 0
4, 60340, Note_on_c, 2, 73, 34
4, 60392, Note_on_c, 2, 73, 0
4, 60468, Note_on_c, 2, 72, 35
4, 60540, Note_on_c, 2, 72, 0
4, 60604, Note_on_c, 2, 70, 62
4, 60656, Note_on_c, 2, 70, 0
4, 60768, Note_on_c, 2, 69, 72
4, 60844, Note_on_c, 2, 69, 0
4, 60972, Note_on_c, 2, 70, 64
4, 61028, Note_on_c, 2, 70, 0
4, 61128, Note_on_c, 2, 69, 61
4, 61160, Note_on_c, 2, 69, 0
4, 61344, Note_on_c, 2, 77, 37
4, 61416, Note_on_c, 2, 77, 0
4, 61500, Note_on_c, 2, 74, 34
4, 61576, Note_on_c, 2, 74, 0
4, 61736, Note_on_c, 2, 71, 43
4, 61764, Note_on_c, 2, 71, 0
4, 61860, Note_on_c, 2, 75, 69
4, 61920, Note_on_c, 2, 75, 0
4, 61932, Note_on_c, 2, 76, 69
4, 62168, Note_on_c, 2, 76, 0
4, 62224, Note_on_c, 2, 75, 59
4, 62288, Note_on_c, 2, 76, 65
4, 62300, Note_on_c, 2, 75, 0
4, 62572, Note_on_c, 2, 76, 0
4, 62604, Note_on_c, 2, 74, 57
4, 62868, Note_on_c, 2, 74, 0
4, 62996, Note_on_c, 2, 72, 68
4, 63048, Note_on_c, 2, 72, 0
4, 63072, Note_on_c, 2, 74, 54
4, 63148, Note_on_c, 2, 74, 0
4, 63148, Note_on_c, 2, 72, 45
4, 63236, Note_on_c, 2, 72, 0
4, 63248, Note_on_c, 2, 71, 52
4, 63304, Note_on_c, 2, 71, 0
4, 63388, Note_on_c, 2, 72, 55
4, 63508, Note_on_c, 2, 72, 0
4, 63628, Note_on_c, 2, 73, 48
4, 63700, Note_on_c, 2, 73, 0
4, 63776, Note_on_c, 2, 74, 45
4, 63892, Note_on_c, 2, 74, 0
4, 64008, Note_on_c, 2, 77, 49
4, 64060, Note_on_c, 2, 77, 0
4, 64172, Note_on_c, 2, 72, 71
4, 64300, Note_on_c, 2, 72, 0
4, 64392, Note_on_c, 2, 71, 71
4, 64496, Note_on_c, 2, 71, 0
4, 64576, Note_on_c, 2, 70, 38
4, 64632, Note_on_c, 2, 70, 0
4, 64768, Note_on_c, 2, 74, 74
4, 64816, Note_on_c, 2, 74, 0
4, 64932, Note_on_c, 2, 84, 75
4, 65024, Note_on_c, 2, 84, 0
4, 65156, Note_on_c, 2, 82, 67
4, 65248, Note_on_c, 2, 82, 0
4, 65344, Note_on_c, 2, 78, 42
4, 65448, Note_on_c, 2, 78, 0
4, 65524, Note_on_c, 2, 81, 77
4, 65608, Note_on_c, 2, 81, 0
4, 65700, Note_on_c, 2, 79, 33
4, 65884, Note_on_c, 2, 79, 0
4, 65912, Note_on_c, 2, 76, 50
4, 65992, Note_on_c, 2, 76, 0
4, 66060, Note_on_c, 2, 72, 43
4, 66296, Note_on_c, 2, 72, 0
4, 66352, Note_on_c, 2, 69, 24
4, 66372, Note_on_c, 2, 69, 0
4, 66452, Note_on_c, 2, 72, 61
4, 66588, Note_on_c, 2, 72, 0
4, 66824, Note_on_c, 2, 77, 77
4, 67032, Note_on_c, 2, 77, 0
4, 67104, Note_on_c, 2, 74, 29
4, 67132, Note_on_c, 2, 74, 0
4, 67208, Note_on_c, 2, 77, 76
4, 67440, Note_on_c, 2, 77, 0
4, 67592, Note_on_c, 2, 70, 73
4, 67820, Note_on_c, 2, 70, 0
4, 67876, Note_on_c, 2, 67, 42
4, 67908, Note_on_c, 2, 67, 0
4, 67968, Note_on_c, 2, 70, 64
4, 68152, Note_on_c, 2, 70, 0
4, 68220, Note_on_c, 2, 76, 92
4, 68572, Note_on_c, 2, 76, 0
4, 68620, Note_on_c, 2, 73, 28
4, 68700, Note_on_c, 2, 73, 0
4, 68736, Note_on_c, 2, 76, 80
4, 68964, Note_on_c, 2, 76, 0
4, 69008, Note_on_c, 2, 72, 66
4, 69084, Note_on_c, 2, 72, 0
4, 69176, Note_on_c, 2, 69, 31
4, 69384, Note_on_c, 2, 69, 0
4, 69400, Note_on_c, 2, 65, 60
4, 69492, Note_on_c, 2, 65, 0
4, 69572, Note_on_c, 2, 64, 28
4, 69772, Note_on_c, 2, 64, 0
4, 69792, Note_on_c, 2, 67, 77
4, 69884, Note_on_c, 2, 67, 0
4, 69944, Note_on_c, 2, 65, 53
4, 70136, Note_on_c, 2, 65, 0
4, 70164, Note_on_c, 2, 64, 64
4, 70260, Note_on_c, 2, 64, 0
4, 70320, Note_on_c, 2, 63, 23
4, 70488, Note_on_c, 2, 63, 0
4, 70536, Note_on_c, 2, 64, 54
4, 70628, Note_on_c, 2, 64, 0
4, 70692, Note_on_c, 2, 62, 34
4, 70828, Note_on_c, 2, 62, 0
4, 71416, Note_on_c, 2, 67, 71
4, 71444, Note_on_c, 2, 69, 66
4, 71460, Note_on_c, 2, 67, 0
4, 71504, Note_on_c, 2, 69, 0
4, 71504, Note_on_c, 2, 67, 63
4, 71592, Note_on_c, 2, 66, 49
4, 71604, Note_on_c, 2, 67, 0
4, 71668, Note_on_c, 2, 66, 0
4, 71792, Note_on_c, 2, 67, 65
4, 71896, Note_on_c, 2, 67, 0
4, 72336, Note_on_c, 2, 69, 66
4, 72380, Note_on_c, 2, 69, 0
4, 72460, Note_on_c, 2, 74, 60
4, 72508, Note_on_c, 2, 74, 0
4, 72588, Note_on_c, 2, 84, 81
4, 72632, Note_on_c, 2, 84, 0
4, 72720, Note_on_c, 2, 84, 88
4, 72792, Note_on_c, 2, 84, 0
4, 72844, Note_on_c, 2, 81, 68
4, 72884, Note_on_c, 2, 81, 0
4, 72992, Note_on_c, 2, 81, 68
4, 73044, Note_on_c, 2, 81, 0
4, 73112, Note_on_c, 2, 77, 54
4, 73140, Note_on_c, 2, 77, 0
4, 73240, Note_on_c, 2, 77, 69
4, 73308, Note_on_c, 2, 77, 0
4, 73368, Note_on_c, 2, 74, 44
4, 73400, Note_on_c, 2, 74, 0
4, 73500, Note_on_c, 2, 74, 62
4, 73520, Note_on_c, 2, 74, 0
4, 73660, Note_on_c, 2, 85, 80
4, 73716, Note_on_c, 2, 85, 0
4, 73788, Note_on_c, 2, 85, 83
4, 73848, Note_on_c, 2, 85, 0
4, 73916, Note_on_c, 2, 82, 63
4, 73956, Note_on_c, 2, 82, 0
4, 74036, Note_on_c, 2, 82, 59
4, 74108, Note_on_c, 2, 82, 0
4, 74164, Note_on_c, 2, 79, 53
4, 74196, Note_on_c, 2, 79, 0
4, 74280, Note_on_c, 2, 79, 62
4, 74344, Note_on_c, 2, 79, 0
4, 74392, Note_on_c, 2, 76, 54
4, 74420, Note_on_c, 2, 76, 0
4, 74700, Note_on_c, 2, 74, 81
4, 74752, Note_on_c, 2, 74, 0
4, 74820, Note_on_c, 2, 76, 71
4, 74820, Note_on_c, 2, 77, 74
4, 74876, Note_on_c, 2, 77, 0
4, 74880, Note_on_c, 2, 76, 0
4, 74976, Note_on_c, 2, 74, 80
4, 75032, Note_on_c, 2, 74, 0
4, 75088, Note_on_c, 2, 70, 62
4, 75136, Note_on_c, 2, 70, 0
4, 75220, Note_on_c, 2, 67, 55
4, 75252, Note_on_c, 2, 67, 0
4, 75348, Note_on_c, 2, 68, 67
4, 75444, Note_on_c, 2, 68, 0
4, 75456, Note_on_c, 2, 69, 70
4, 75504, Note_on_c, 2, 69, 0
4, 75688, Note_on_c, 2, 68, 73
4, 75740, Note_on_c, 2, 68, 0
4, 75788, Note_on_c, 2, 69, 71
4, 75880, Note_on_c, 2, 69, 0
4, 76044, Note_on_c, 2, 68, 74
4, 76096, Note_on_c, 2, 68, 0
4, 76148, Note_on_c, 2, 69, 62
4, 76212, Note_on_c, 2, 69, 0
4, 76328, Note_on_c, 2, 65, 76
4, 76400, Note_on_c, 2, 65, 0
4, 76436, Note_on_c, 2, 62, 60
4, 76460, Note_on_c, 2, 62, 0
4, 76528, Note_on_c, 2, 65, 68
4, 76700, Note_on_c, 2, 62, 57
4, 76708, Note_on_c, 2, 65, 0
4, 76728, Note_on_c, 2, 62, 0
4, 77468, Note_on_c, 2, 65, 51
4, 77504, Note_on_c, 2, 65, 0
4, 77580, Note_on_c, 2, 69, 84
4, 77736, Note_on_c, 2, 69, 0
4, 77748, Note_on_c, 2, 70, 53
4, 77804, Note_on_c, 2, 70, 0
4, 77820, Note_on_c, 2, 69, 64
4, 77888, Note_on_c, 2, 69, 0
4, 77908, Note_on_c, 2, 65, 53
4, 77940, Note_on_c, 2, 65, 0
4, 77992, Note_on_c, 2, 69, 84
4, 78180, Note_on_c, 2, 69, 0
4, 78240, Note_on_c, 2, 65, 78
4, 78316, Note_on_c, 2, 65, 0
4, 78424, Note_on_c, 2, 65, 64
4, 78536, Note_on_c, 2, 65, 0
4, 78740, Note_on_c, 2, 64, 37
4, 78768, Note_on_c, 2, 64, 0
4, 78980, Note_on_c, 2, 65, 60
4, 79008, Note_on_c, 2, 65, 0
4, 79168, Note_on_c, 2, 69, 60
4, 79224, Note_on_c, 2, 69, 0
4, 79256, Note_on_c, 2, 70, 64
4, 79300, Note_on_c, 2, 70, 0
4, 79356, Note_on_c, 2, 74, 73
4, 79404, Note_on_c, 2, 74, 0
4, 79448, Note_on_c, 2, 77, 63
4, 79484, Note_on_c, 2, 77, 0
4, 79564, Note_on_c, 2, 84, 82
4, 79624, Note_on_c, 2, 84, 0
4, 79688, Note_on_c, 2, 82, 69
4, 79768, Note_on_c, 2, 82, 0
4, 79812, Note_on_c, 2, 78, 42
4, 79872, Note_on_c, 2, 78, 0
4, 79912, Note_on_c, 2, 81, 71
4, 79972, Note_on_c, 2, 81, 0
4, 80052, Note_on_c, 2, 79, 70
4, 80108, Note_on_c, 2, 79, 0
4, 80180, Note_on_c, 2, 76, 65
4, 80244, Note_on_c, 2, 76, 0
4, 80324, Note_on_c, 2, 72, 44
4, 80408, Note_on_c, 2, 72, 0
4, 80568, Note_on_c, 2, 73, 77
4, 80628, Note_on_c, 2, 73, 0
4, 80712, Note_on_c, 2, 74, 64
4, 80784, Note_on_c, 2, 74, 0
4, 80904, Note_on_c, 2, 77, 75
4, 80968, Note_on_c, 2, 77, 0
4, 81064, Note_on_c, 2, 70, 55
4, 81196, Note_on_c, 2, 70, 0
4, 81300, Note_on_c, 2, 65, 46
4, 81332, Note_on_c, 2, 65, 0
4, 81428, Note_on_c, 2, 68, 64
4, 81492, Note_on_c, 2, 69, 57
4, 81500, Note_on_c, 2, 68, 0
4, 81688, Note_on_c, 2, 69, 0
4, 81792, Note_on_c, 2, 68, 60
4, 81864, Note_on_c, 2, 69, 51
4, 81868, Note_on_c, 2, 68, 0
4, 82108, Note_on_c, 2, 69, 0
4, 82200, Note_on_c, 2, 68, 59
4, 82248, Note_on_c, 2, 68, 0
4, 82288, Note_on_c, 2, 69, 48
4, 82336, Note_on_c, 2, 68, 55
4, 82352, Note_on_c, 2, 69, 0
4, 82416, Note_on_c, 2, 68, 0
4, 82428, Note_on_c, 2, 64, 45
4, 82528, Note_on_c, 2, 64, 0
4, 82536, Note_on_c, 2, 62, 55
4, 82568, Note_on_c, 2, 62, 0
4, 82624, Note_on_c, 2, 64, 57
4, 82804, Note_on_c, 2, 64, 0
4, 82944, Note_on_c, 2, 69, 51
4, 82968, Note_on_c, 2, 69, 0
4, 83756, Note_on_c, 2, 65, 63
4, 83784, Note_on_c, 2, 67, 58
4, 83792, Note_on_c, 2, 65, 0
4, 83840, Note_on_c, 2, 65, 62
4, 83844, Note_on_c, 2, 67, 0
4, 83908, Note_on_c, 2, 65, 0
4, 83928, Note_on_c, 2, 64, 55
4, 83952, Note_on_c, 2, 64, 0
4, 84152, Note_on_c, 2, 65, 81
4, 84212, Note_on_c, 2, 65, 0
4, 84412, Note_on_c, 2, 64, 38
4, 84440, Note_on_c, 2, 64, 0
4, 84548, Note_on_c, 2, 68, 72
4, 84604, Note_on_c, 2, 68, 0
4, 84608, Note_on_c, 2, 69, 55
4, 84608, Note_on_c, 2, 71, 35
4, 84660, Note_on_c, 2, 71, 0
4, 84820, Note_on_c, 2, 69, 0
4, 84876, Note_on_c, 2, 68, 67
4, 84944, Note_on_c, 2, 69, 65
4, 84956, Note_on_c, 2, 68, 0
4, 85208, Note_on_c, 2, 69, 0
4, 85244, Note_on_c, 2, 68, 64
4, 85308, Note_on_c, 2, 68, 0
4, 85332, Note_on_c, 2, 69, 66
4, 85564, Note_on_c, 2, 69, 0
4, 85632, Note_on_c, 2, 60, 38
4, 85704, Note_on_c, 2, 60, 0
4, 86404, Note_on_c, 2, 75, 60
4, 86440, Note_on_c, 2, 75, 0
4, 86672, Note_on_c, 2, 76, 74
4, 86724, Note_on_c, 2, 76, 0
4, 86948, Note_on_c, 2, 79, 79
4, 87032, Note_on_c, 2, 79, 0
4, 87204, Note_on_c, 2, 77, 40
4, 87252, Note_on_c, 2, 77, 0
4, 87612, Note_on_c, 2, 72, 64
4, 87640, Note_on_c, 2, 72, 0
4, 87868, Note_on_c, 2, 74, 70
4, 87924, Note_on_c, 2, 72, 50
4, 87928, Note_on_c, 2, 74, 0
4, 88004, Note_on_c, 2, 72, 0
4, 88004, Note_on_c, 2, 71, 46
4, 88104, Note_on_c, 2, 71, 0
4, 88220, Note_on_c, 2, 72, 68
4, 88284, Note_on_c, 2, 72, 0
4, 88348, Note_on_c, 2, 73, 50
4, 88404, Note_on_c, 2, 73, 0
4, 88580, Note_on_c, 2, 74, 25
4, 88628, Note_on_c, 2, 74, 0
4, 88956, Note_on_c, 2, 84, 81
4, 89028, Note_on_c, 2, 84, 0
4, 89128, Note_on_c, 2, 82, 48
4, 89216, Note_on_c, 2, 82, 0
4, 89324, Note_on_c, 2, 78, 45
4, 89388, Note_on_c, 2, 78, 0
4, 89456, Note_on_c, 2, 81, 62
4, 89512, Note_on_c, 2, 81, 0
4, 89576, Note_on_c, 2, 72, 48
4, 89636, Note_on_c, 2, 72, 0
4, 89684, Note_on_c, 2, 73, 53
4, 89732, Note_on_c, 2, 73, 0
4, 89812, Note_on_c, 2, 76, 43
4, 89864, Note_on_c, 2, 76, 0
4, 89924, Note_on_c, 2, 80, 56
4, 89972, Note_on_c, 2, 80, 0
4, 90036, Note_on_c, 2, 82, 62
4, 90100, Note_on_c, 2, 82, 0
4, 90132, Note_on_c, 2, 84, 70
4, 90188, Note_on_c, 2, 84, 0
4, 90248, Note_on_c, 2, 85, 60
4, 90288, Note_on_c, 2, 85, 0
4, 90348, Note_on_c, 2, 87, 74
4, 90428, Note_on_c, 2, 87, 0
4, 90464, Note_on_c, 2, 85, 37
4, 90492, Note_on_c, 2, 85, 0
4, 90588, Note_on_c, 2, 86, 53
4, 90616, Note_on_c, 2, 86, 0
4, 90708, Note_on_c, 2, 84, 65
4, 90736, Note_on_c, 2, 84, 0
4, 90984, Note_on_c, 2, 81, 70
4, 91044, Note_on_c, 2, 81, 0
4, 91088, Note_on_c, 2, 84, 85
4, 91148, Note_on_c, 2, 84, 0
4, 91188, Note_on_c, 2, 81, 68
4, 91232, Note_on_c, 2, 81, 0
4, 91304, Note_on_c, 2, 75, 64
4, 91360, Note_on_c, 2, 75, 0
4, 91424, Note_on_c, 2, 74, 56
4, 91596, Note_on_c, 2, 74, 0
4, 91672, Note_on_c, 2, 72, 65
4, 91724, Note_on_c, 2, 72, 0
4, 91840, Note_on_c, 2, 70, 23
4, 91872, Note_on_c, 2, 70, 0
4, 92060, Note_on_c, 2, 65, 34
4, 92096, Note_on_c, 2, 65, 0
4, 92184, Note_on_c, 2, 67, 55
4, 92240, Note_on_c, 2, 67, 0
4, 92424, Note_on_c, 2, 70, 68
4, 92504, Note_on_c, 2, 70, 0
4, 92572, Note_on_c, 2, 67, 39
4, 92640, Note_on_c, 2, 67, 0
4, 93032, Note_on_c, 2, 67, 64
4, 93084, Note_on_c, 2, 67, 0
4, 93092, Note_on_c, 2, 68, 57
4, 93164, Note_on_c, 2, 68, 0
4, 93168, Note_on_c, 2, 70, 54
4, 93200, Note_on_c, 2, 70, 0
4, 93236, Note_on_c, 2, 71, 66
4, 93268, Note_on_c, 2, 71, 0
4, 93300, Note_on_c, 2, 73, 51
4, 93324, Note_on_c, 2, 73, 0
4, 93364, Note_on_c, 2, 74, 64
4, 93416, Note_on_c, 2, 74, 0
4, 93432, Note_on_c, 2, 76, 62
4, 93476, Note_on_c, 2, 76, 0
4, 93500, Note_on_c, 2, 77, 43
4, 93552, Note_on_c, 2, 77, 0
4, 93576, Note_on_c, 2, 79, 67
4, 93624, Note_on_c, 2, 79, 0
4, 93712, Note_on_c, 2, 80, 71
4, 93760, Note_on_c, 2, 80, 0
4, 93860, Note_on_c, 2, 81, 74
4, 93908, Note_on_c, 2, 81, 0
4, 93976, Note_on_c, 2, 84, 73
4, 94044, Note_on_c, 2, 84, 0
4, 94104, Note_on_c, 2, 86, 83
4, 94156, Note_on_c, 2, 86, 0
4, 94228, Note_on_c, 2, 84, 68
4, 94304, Note_on_c, 2, 84, 0
4, 94420, Note_on_c, 2, 81, 70
4, 94456, Note_on_c, 2, 81, 0
4, 94544, Note_on_c, 2, 84, 64
4, 94592, Note_on_c, 2, 84, 0
4, 94760, Note_on_c, 2, 86, 80
4, 94804, Note_on_c, 2, 86, 0
4, 94892, Note_on_c, 2, 84, 60
4, 95036, Note_on_c, 2, 84, 0
4, 95112, Note_on_c, 2, 81, 41
4, 95144, Note_on_c, 2, 81, 0
4, 95232, Note_on_c, 2, 84, 76
4, 95340, Note_on_c, 2, 84, 0
4, 95596, Note_on_c, 2, 80, 64
4, 95608, Note_on_c, 2, 81, 80
4, 95640, Note_on_c, 2, 80, 0
4, 95692, Note_on_c, 2, 81, 0
4, 95996, Note_on_c, 2, 77, 73
4, 96252, Note_on_c, 2, 77, 0
4, 96384, Note_on_c, 2, 74, 81
4, 96448, Note_on_c, 2, 74, 0
4, 96868, Note_on_c, 2, 77, 103
4, 96920, Note_on_c, 2, 77, 0
4, 97151, Program_c, 2, 100
4, 97152, Program_c, 2, 11
4, 97456, Note_on_c, 2, 70, 53
4, 97464, Note_on_c, 2, 71, 66
4, 97504, Note_on_c, 2, 70, 0
4, 97552, Note_on_c, 2, 71, 0
4, 97632, Note_on_c, 2, 70, 56
4, 97680, Note_on_c, 2, 70, 0
4, 97880, Note_on_c, 2, 68, 58
4, 97920, Note_on_c, 2, 68, 0
4, 98020, Note_on_c, 2, 69, 74
4, 98112, Note_on_c, 2, 69, 0
4, 98220, Note_on_c, 2, 65, 69
4, 98288, Note_on_c, 2, 65, 0
4, 98372, Note_on_c, 2, 62, 40
4, 98480, Note_on_c, 2, 62, 0
4, 98948, Note_on_c, 2, 65, 101
4, 99024, Note_on_c, 2, 65, 0
4, 99104, Note_on_c, 2, 62, 62
4, 99260, Note_on_c, 2, 62, 0
4, 99352, Note_on_c, 2, 58, 57
4, 99828, Note_on_c, 2, 58, 0
4, 99872, Note_on_c, 2, 57, 42
4, 100432, Note_on_c, 2, 57, 0
4, 100492, Note_on_c, 2, 62, 50
4, 100520, Note_on_c, 2, 62, 0
4, 100648, Note_on_c, 2, 68, 57
4, 100720, Note_on_c, 2, 68, 0
4, 100744, Note_on_c, 2, 69, 40
4, 100796, Note_on_c, 2, 69, 0
4, 100848, Note_on_c, 2, 72, 42
4, 100876, Note_on_c, 2, 72, 0
4, 100940, Note_on_c, 2, 72, 61
4, 101000, Note_on_c, 2, 72, 0
4, 101072, Note_on_c, 2, 69, 59
4, 101136, Note_on_c, 2, 69, 0
4, 101160, Note_on_c, 2, 72, 64
4, 101208, Note_on_c, 2, 72, 0
4, 101256, Note_on_c, 2, 72, 66
4, 101320, Note_on_c, 2, 72, 0
4, 101368, Note_on_c, 2, 72, 64
4, 101488, Note_on_c, 2, 72, 0
4, 101488, Note_on_c, 2, 69, 70
4, 101524, Note_on_c, 2, 69, 0
4, 101692, Note_on_c, 2, 65, 57
4, 101772, Note_on_c, 2, 65, 0
4, 101828, Note_on_c, 2, 62, 54
4, 102004, Note_on_c, 2, 62, 0
4, 102048, Note_on_c, 2, 65, 73
4, 102144, Note_on_c, 2, 65, 0
4, 102184, Note_on_c, 2, 64, 45
4, 102256, Note_on_c, 2, 64, 0
4, 102304, Note_on_c, 2, 65, 66
4, 102380, Note_on_c, 2, 65, 0
4, 102420, Note_on_c, 2, 67, 76
4, 102508, Note_on_c, 2, 67, 0
4, 102572, Note_on_c, 2, 64, 55
4, 102796, Note_on_c, 2, 64, 0
4, 102816, Note_on_c, 2, 60, 30
4, 102852, Note_on_c, 2, 60, 0
4, 102936, Note_on_c, 2, 65, 57
4, 103140, Note_on_c, 2, 65, 0
4, 103188, Note_on_c, 2, 60, 35
4, 103220, Note_on_c, 2, 60, 0
4, 103660, Note_on_c, 2, 76, 85
4, 103708, Note_on_c, 2, 76, 0
4, 103764, Note_on_c, 2, 77, 69
4, 103816, Note_on_c, 2, 77, 0
4, 103864, Note_on_c, 2, 79, 81
4, 103932, Note_on_c, 2, 79, 0
4, 103956, Note_on_c, 2, 76, 73
4, 104008, Note_on_c, 2, 76, 0
4, 104064, Note_on_c, 2, 72, 54
4, 104104, Note_on_c, 2, 72, 0
4, 104156, Note_on_c, 2, 74, 66
4, 104200, Note_on_c, 2, 74, 0
4, 104260, Note_on_c, 2, 76, 70
4, 104312, Note_on_c, 2, 76, 0
4, 104368, Note_on_c, 2, 74, 70
4, 104440, Note_on_c, 2, 74, 0
4, 104480, Note_on_c, 2, 69, 52
4, 104520, Note_on_c, 2, 69, 0
4, 104588, Note_on_c, 2, 70, 50
4, 104640, Note_on_c, 2, 70, 0
4, 104676, Note_on_c, 2, 72, 56
4, 104732, Note_on_c, 2, 72, 0
4, 104792, Note_on_c, 2, 69, 35
4, 104820, Note_on_c, 2, 69, 0
4, 105032, Note_on_c, 2, 65, 56
4, 105104, Note_on_c, 2, 65, 0
4, 105124, Note_on_c, 2, 70, 67
4, 105164, Note_on_c, 2, 70, 0
4, 105236, Note_on_c, 2, 74, 71
4, 105268, Note_on_c, 2, 74, 0
4, 105332, Note_on_c, 2, 77, 71
4, 105380, Note_on_c, 2, 77, 0
4, 105424, Note_on_c, 2, 82, 60
4, 105488, Note_on_c, 2, 82, 0
4, 105524, Note_on_c, 2, 86, 91
4, 105588, Note_on_c, 2, 86, 0
4, 105628, Note_on_c, 2, 84, 78
4, 105684, Note_on_c, 2, 84, 0
4, 105740, Note_on_c, 2, 82, 35
4, 105768, Note_on_c, 2, 82, 0
4, 105996, Note_on_c, 2, 80, 69
4, 106052, Note_on_c, 2, 80, 0
4, 106096, Note_on_c, 2, 81, 71
4, 106168, Note_on_c, 2, 81, 0
4, 106208, Note_on_c, 2, 77, 40
4, 106276, Note_on_c, 2, 77, 0
4, 106312, Note_on_c, 2, 74, 35
4, 106340, Note_on_c, 2, 74, 0
4, 106404, Note_on_c, 2, 77, 68
4, 106592, Note_on_c, 2, 77, 0
4, 106620, Note_on_c, 2, 74, 49
4, 106652, Note_on_c, 2, 74, 0
4, 107020, Note_on_c, 2, 74, 28
4, 107040, Note_on_c, 2, 74, 0
4, 107104, Note_on_c, 2, 75, 63
4, 107128, Note_on_c, 2, 76, 65
4, 107152, Note_on_c, 2, 75, 0
4, 107176, Note_on_c, 2, 77, 63
4, 107204, Note_on_c, 2, 76, 0
4, 107300, Note_on_c, 2, 77, 0
4, 107364, Note_on_c, 2, 77, 63
4, 107456, Note_on_c, 2, 77, 0
4, 107524, Note_on_c, 2, 77, 58
4, 107628, Note_on_c, 2, 77, 0
4, 107788, Note_on_c, 2, 74, 73
4, 107864, Note_on_c, 2, 74, 0
4, 107968, Note_on_c, 2, 70, 33
4, 108152, Note_on_c, 2, 70, 0
4, 108188, Note_on_c, 2, 65, 35
4, 108232, Note_on_c, 2, 65, 0
4, 108312, Note_on_c, 2, 70, 64
4, 108532, Note_on_c, 2, 70, 0
4, 108584, Note_on_c, 2, 67, 22
4, 108632, Note_on_c, 2, 67, 0
4, 108704, Note_on_c, 2, 68, 71
4, 108844, Note_on_c, 2, 68, 0
4, 108932, Note_on_c, 2, 69, 79
4, 108996, Note_on_c, 2, 69, 0
4, 109088, Note_on_c, 2, 69, 46
4, 109120, Note_on_c, 2, 69, 0
4, 109124, Note_on_c, 2, 70, 50
4, 109164, Note_on_c, 2, 71, 71
4, 109172, Note_on_c, 2, 70, 0
4, 109212, Note_on_c, 2, 71, 0
4, 109220, Note_on_c, 2, 72, 60
4, 109604, Note_on_c, 2, 71, 47
4, 109640, Note_on_c, 2, 72, 0
4, 109644, Note_on_c, 2, 71, 0
4, 109648, Note_on_c, 2, 70, 50
4, 109724, Note_on_c, 2, 69, 49
4, 109740, Note_on_c, 2, 70, 0
4, 109816, Note_on_c, 2, 69, 0
4, 110576, Note_on_c, 2, 64, 34
4, 110604, Note_on_c, 2, 64, 0
4, 110672, Note_on_c, 2, 69, 58
4, 110728, Note_on_c, 2, 69, 0
4, 110752, Note_on_c, 2, 73, 59
4, 110796, Note_on_c, 2, 73, 0
4, 110856, Note_on_c, 2, 74, 31
4, 110856, Note_on_c, 2, 76, 38
4, 110884, Note_on_c, 2, 74, 0
4, 110888, Note_on_c, 2, 76, 0
4, 110944, Note_on_c, 2, 81, 49
4, 111012, Note_on_c, 2, 81, 0
4, 111020, Note_on_c, 2, 85, 51
4, 111092, Note_on_c, 2, 85, 0
4, 111128, Note_on_c, 2, 88, 81
4, 111200, Note_on_c, 2, 88, 0
4, 111336, Note_on_c, 2, 88, 89
4, 111412, Note_on_c, 2, 88, 0
4, 111440, Note_on_c, 2, 85, 61
4, 111536, Note_on_c, 2, 85, 0
4, 111536, Note_on_c, 2, 81, 35
4, 111596, Note_on_c, 2, 81, 0
4, 111652, Note_on_c, 2, 76, 24
4, 111680, Note_on_c, 2, 76, 0
4, 111732, Note_on_c, 2, 81, 70
4, 111792, Note_on_c, 2, 81, 0
4, 111860, Note_on_c, 2, 76, 45
4, 111892, Note_on_c, 2, 76, 0
4, 112036, Note_on_c, 2, 72, 31
4, 112064, Note_on_c, 2, 72, 0
4, 112128, Note_on_c, 2, 75, 60
4, 112196, Note_on_c, 2, 75, 0
4, 112240, Note_on_c, 2, 76, 66
4, 112320, Note_on_c, 2, 76, 0
4, 112332, Note_on_c, 2, 75, 46
4, 112420, Note_on_c, 2, 75, 0
4, 112456, Note_on_c, 2, 73, 33
4, 112532, Note_on_c, 2, 73, 0
4, 112544, Note_on_c, 2, 72, 35
4, 112612, Note_on_c, 2, 72, 0
4, 112632, Note_on_c, 2, 70, 43
4, 112696, Note_on_c, 2, 70, 0
4, 112760, Note_on_c, 2, 69, 18
4, 112800, Note_on_c, 2, 69, 0
4, 112924, Note_on_c, 2, 69, 66
4, 113020, Note_on_c, 2, 69, 0
4, 113024, Note_on_c, 2, 70, 46
4, 113096, Note_on_c, 2, 70, 0
4, 113148, Note_on_c, 2, 71, 31
4, 113196, Note_on_c, 2, 71, 0
4, 113236, Note_on_c, 2, 72, 71
4, 113308, Note_on_c, 2, 72, 0
4, 113340, Note_on_c, 2, 69, 60
4, 113408, Note_on_c, 2, 69, 0
4, 113444, Note_on_c, 2, 66, 48
4, 113480, Note_on_c, 2, 66, 0
4, 113604, Note_on_c, 2, 61, 37
4, 113624, Note_on_c, 2, 61, 0
4, 113648, Note_on_c, 2, 62, 32
4, 113676, Note_on_c, 2, 62, 0
4, 113704, Note_on_c, 2, 65, 65
4, 113784, Note_on_c, 2, 65, 0
4, 113804, Note_on_c, 2, 62, 65
4, 113864, Note_on_c, 2, 62, 0
4, 113996, Note_on_c, 2, 57, 35
4, 114028, Note_on_c, 2, 57, 0
4, 114068, Note_on_c, 2, 60, 71
4, 114144, Note_on_c, 2, 60, 0
4, 114184, Note_on_c, 2, 57, 50
4, 114212, Note_on_c, 2, 57, 0
4, 114292, Note_on_c, 2, 58, 23
4, 114340, Note_on_c, 2, 58, 0
4, 114368, Note_on_c, 2, 60, 52
4, 114448, Note_on_c, 2, 61, 48
4, 114452, Note_on_c, 2, 60, 0
4, 114536, Note_on_c, 2, 61, 0
4, 114564, Note_on_c, 2, 63, 49
4, 114616, Note_on_c, 2, 63, 0
4, 114640, Note_on_c, 2, 64, 61
4, 114736, Note_on_c, 2, 64, 0
4, 114748, Note_on_c, 2, 65, 71
4, 114828, Note_on_c, 2, 65, 0
4, 114856, Note_on_c, 2, 66, 42
4, 114916, Note_on_c, 2, 66, 0
4, 114944, Note_on_c, 2, 67, 64
4, 115008, Note_on_c, 2, 67, 0
4, 115048, Note_on_c, 2, 68, 33
4, 115100, Note_on_c, 2, 68, 0
4, 115140, Note_on_c, 2, 69, 65
4, 115204, Note_on_c, 2, 69, 0
4, 115228, Note_on_c, 2, 72, 47
4, 115300, Note_on_c, 2, 72, 0
4, 115332, Note_on_c, 2, 76, 62
4, 115376, Note_on_c, 2, 76, 0
4, 115400, Note_on_c, 2, 79, 81
4, 115484, Note_on_c, 2, 79, 0
4, 115520, Note_on_c, 2, 76, 58
4, 115544, Note_on_c, 2, 76, 0
4, 115592, Note_on_c, 2, 79, 89
4, 115672, Note_on_c, 2, 79, 0
4, 115696, Note_on_c, 2, 76, 67
4, 115756, Note_on_c, 2, 76, 0
4, 115792, Note_on_c, 2, 72, 33
4, 115900, Note_on_c, 2, 72, 0
4, 115904, Note_on_c, 2, 71, 37
4, 115928, Note_on_c, 2, 71, 0
4, 115964, Note_on_c, 2, 77, 82
4, 116048, Note_on_c, 2, 77, 0
4, 116164, Note_on_c, 2, 79, 80
4, 116168, Note_on_c, 2, 77, 85
4, 116244, Note_on_c, 2, 77, 0
4, 116244, Note_on_c, 2, 79, 0
4, 116268, Note_on_c, 2, 76, 71
4, 116332, Note_on_c, 2, 76, 0
4, 116380, Note_on_c, 2, 72, 24
4, 116416, Note_on_c, 2, 72, 0
4, 116552, Note_on_c, 2, 79, 78
4, 116564, Note_on_c, 2, 77, 43
4, 116636, Note_on_c, 2, 77, 0
4, 116640, Note_on_c, 2, 79, 0
4, 116676, Note_on_c, 2, 74, 50
4, 116704, Note_on_c, 2, 74, 0
4, 116752, Note_on_c, 2, 77, 92
4, 116856, Note_on_c, 2, 74, 72
4, 116860, Note_on_c, 2, 77, 0
4, 116928, Note_on_c, 2, 74, 0
4, 116944, Note_on_c, 2, 70, 49
4, 117004, Note_on_c, 2, 70, 0
4, 117040, Note_on_c, 2, 67, 51
4, 117084, Note_on_c, 2, 67, 0
4, 117132, Note_on_c, 2, 70, 68
4, 117224, Note_on_c, 2, 70, 0
4, 117240, Note_on_c, 2, 67, 56
4, 117264, Note_on_c, 2, 67, 0
4, 117320, Note_on_c, 2, 69, 67
4, 117396, Note_on_c, 2, 69, 0
4, 117420, Note_on_c, 2, 70, 68
4, 117472, Note_on_c, 2, 70, 0
4, 117496, Note_on_c, 2, 72, 68
4, 117548, Note_on_c, 2, 72, 0
4, 117568, Note_on_c, 2, 73, 49
4, 117604, Note_on_c, 2, 73, 0
4, 117624, Note_on_c, 2, 75, 42
4, 117644, Note_on_c, 2, 75, 0
4, 117668, Note_on_c, 2, 76, 64
4, 117716, Note_on_c, 2, 76, 0
4, 117740, Note_on_c, 2, 78, 37
4, 117760, Note_on_c, 2, 78, 0
4, 117792, Note_on_c, 2, 79, 43
4, 117848, Note_on_c, 2, 79, 0
4, 117860, Note_on_c, 2, 81, 43
4, 117912, Note_on_c, 2, 82, 57
4, 117916, Note_on_c, 2, 81, 0
4, 118000, Note_on_c, 2, 82, 0
4, 118004, Note_on_c, 2, 84, 74
4, 118084, Note_on_c, 2, 84, 0
4, 118604, Note_on_c, 2, 76, 87
4, 118648, Note_on_c, 2, 76, 0
4, 118692, Note_on_c, 2, 79, 79
4, 118768, Note_on_c, 2, 79, 0
4, 119004, Note_on_c, 2, 72, 80
4, 119052, Note_on_c, 2, 72, 0
4, 119096, Note_on_c, 2, 76, 76
4, 119300, Note_on_c, 2, 76, 0
4, 119356, Note_on_c, 2, 69, 64
4, 119408, Note_on_c, 2, 69, 0
4, 119452, Note_on_c, 2, 72, 57
4, 119660, Note_on_c, 2, 72, 0
4, 119752, Note_on_c, 2, 68, 67
4, 119804, Note_on_c, 2, 68, 0
4, 119804, Note_on_c, 2, 69, 49
4, 120132, Note_on_c, 2, 69, 0
4, 120160, Note_on_c, 2, 65, 64
4, 120432, Note_on_c, 2, 65, 0
4, 120468, Note_on_c, 2, 62, 26
4, 120508, Note_on_c, 2, 62, 0
4, 120576, Note_on_c, 2, 65, 45
4, 120744, Note_on_c, 2, 65, 0
4, 120772, Note_on_c, 2, 67, 48
4, 120824, Note_on_c, 2, 67, 0
4, 120828, Note_on_c, 2, 65, 39
4, 120896, Note_on_c, 2, 65, 0
4, 120896, Note_on_c, 2, 62, 58
4, 120920, Note_on_c, 2, 62, 0
4, 120980, Note_on_c, 2, 65, 76
4, 121156, Note_on_c, 2, 65, 0
4, 121176, Note_on_c, 2, 67, 46
4, 121236, Note_on_c, 2, 67, 0
4, 121236, Note_on_c, 2, 65, 41
4, 121288, Note_on_c, 2, 65, 0
4, 121288, Note_on_c, 2, 62, 53
4, 121316, Note_on_c, 2, 62, 0
4, 121360, Note_on_c, 2, 65, 64
4, 121552, Note_on_c, 2, 65, 0
4, 121564, Note_on_c, 2, 67, 45
4, 121604, Note_on_c, 2, 67, 0
4, 121608, Note_on_c, 2, 65, 40
4, 121656, Note_on_c, 2, 65, 0
4, 121680, Note_on_c, 2, 62, 42
4, 121708, Note_on_c, 2, 62, 0
4, 121756, Note_on_c, 2, 65, 68
4, 121972, Note_on_c, 2, 65, 0
4, 121980, Note_on_c, 2, 67, 49
4, 122012, Note_on_c, 2, 67, 0
4, 122036, Note_on_c, 2, 65, 36
4, 122068, Note_on_c, 2, 65, 0
4, 122076, Note_on_c, 2, 62, 56
4, 122100, Note_on_c, 2, 62, 0
4, 122152, Note_on_c, 2, 65, 61
4, 122472, Note_on_c, 2, 65, 0
4, 122504, Note_on_c, 2, 62, 43
4, 122732, Note_on_c, 2, 62, 0
4, 122764, Note_on_c, 2, 65, 64
4, 123020, Note_on_c, 2, 65, 0
4, 123040, Note_on_c, 2, 62, 38
4, 123112, Note_on_c, 2, 62, 0
4, 123156, Note_on_c, 2, 65, 43
4, 123220, Note_on_c, 2, 65, 0
4, 123316, Note_on_c, 2, 65, 36
4, 123344, Note_on_c, 2, 65, 0
4, 123444, Note_on_c, 2, 70, 68
4, 123500, Note_on_c, 2, 70, 0
4, 123544, Note_on_c, 2, 74, 80
4, 123600, Note_on_c, 2, 74, 0
4, 123672, Note_on_c, 2, 76, 71
4, 123704, Note_on_c, 2, 76, 0
4, 123808, Note_on_c, 2, 82, 69
4, 123852, Note_on_c, 2, 82, 0
4, 123920, Note_on_c, 2, 82, 78
4, 124000, Note_on_c, 2, 82, 0
4, 124044, Note_on_c, 2, 86, 84
4, 124112, Note_on_c, 2, 86, 0
4, 124164, Note_on_c, 2, 86, 70
4, 124220, Note_on_c, 2, 86, 0
4, 124348, Note_on_c, 2, 81, 33
4, 124376, Note_on_c, 2, 81, 0
4, 124444, Note_on_c, 2, 81, 65
4, 124508, Note_on_c, 2, 81, 0
4, 124568, Note_on_c, 2, 84, 85
4, 124628, Note_on_c, 2, 84, 0
4, 124688, Note_on_c, 2, 84, 76
4, 124760, Note_on_c, 2, 84, 0
4, 124804, Note_on_c, 2, 77, 60
4, 124860, Note_on_c, 2, 77, 0
4, 124916, Note_on_c, 2, 77, 50
4, 124980, Note_on_c, 2, 77, 0
4, 125032, Note_on_c, 2, 81, 72
4, 125088, Note_on_c, 2, 81, 0
4, 125152, Note_on_c, 2, 81, 60
4, 125256, Note_on_c, 2, 81, 0
4, 125272, Note_on_c, 2, 74, 63
4, 125332, Note_on_c, 2, 74, 0
4, 125388, Note_on_c, 2, 74, 59
4, 125456, Note_on_c, 2, 74, 0
4, 125496, Note_on_c, 2, 77, 74
4, 125568, Note_on_c, 2, 77, 0
4, 125620, Note_on_c, 2, 77, 57
4, 125696, Note_on_c, 2, 77, 0
4, 125744, Note_on_c, 2, 69, 55
4, 125808, Note_on_c, 2, 69, 0
4, 125860, Note_on_c, 2, 69, 60
4, 125996, Note_on_c, 2, 70, 64
4, 126004, Note_on_c, 2, 69, 0
4, 126032, Note_on_c, 2, 71, 60
4, 126060, Note_on_c, 2, 70, 0
4, 126088, Note_on_c, 2, 71, 0
4, 126092, Note_on_c, 2, 72, 50
4, 126616, Note_on_c, 2, 70, 68
4, 126680, Note_on_c, 2, 72, 0
4, 126736, Note_on_c, 2, 70, 0
4, 126772, Note_on_c, 2, 69, 51
4, 126992, Note_on_c, 2, 69, 0
4, 127012, Note_on_c, 2, 70, 46
4, 127116, Note_on_c, 2, 70, 0
4, 127148, Note_on_c, 2, 72, 56
4, 127324, Note_on_c, 2, 72, 0
4, 127360, Note_on_c, 2, 68, 48
4, 127404, Note_on_c, 2, 69, 55
4, 127428, Note_on_c, 2, 68, 0
4, 127504, Note_on_c, 2, 69, 0
4, 127552, Note_on_c, 2, 64, 43
4, 127752, Note_on_c, 2, 67, 78
4, 127756, Note_on_c, 2, 64, 0
4, 127996, Note_on_c, 2, 66, 40
4, 128016, Note_on_c, 2, 67, 0
4, 128056, Note_on_c, 2, 65, 51
4, 128076, Note_on_c, 2, 66, 0
4, 128120, Note_on_c, 2, 65, 0
4, 128124, Note_on_c, 2, 64, 48
4, 128224, Note_on_c, 2, 64, 0
4, 128256, Note_on_c, 2, 60, 47
4, 128328, Note_on_c, 2, 60, 0
4, 128412, Note_on_c, 2, 62, 56
4, 128540, Note_on_c, 2, 62, 0
4, 128588, Note_on_c, 2, 55, 56
4, 128652, Note_on_c, 2, 55, 0
4, 129432, Note_on_c, 2, 60, 55
4, 129492, Note_on_c, 2, 60, 0
4, 129532, Note_on_c, 2, 61, 39
4, 129556, Note_on_c, 2, 61, 0
4, 129620, Note_on_c, 2, 64, 49
4, 129676, Note_on_c, 2, 64, 0
4, 129688, Note_on_c, 2, 66, 48
4, 129732, Note_on_c, 2, 66, 0
4, 129800, Note_on_c, 2, 70, 57
4, 129900, Note_on_c, 2, 70, 0
4, 130204, Note_on_c, 2, 62, 44
4, 130232, Note_on_c, 2, 62, 0
4, 130296, Note_on_c, 2, 65, 53
4, 130324, Note_on_c, 2, 65, 0
4, 130380, Note_on_c, 2, 70, 57
4, 130448, Note_on_c, 2, 70, 0
4, 130480, Note_on_c, 2, 74, 80
4, 130564, Note_on_c, 2, 74, 0
4, 130568, Note_on_c, 2, 72, 64
4, 130640, Note_on_c, 2, 72, 0
4, 130688, Note_on_c, 2, 69, 42
4, 130748, Note_on_c, 2, 69, 0
4, 130764, Note_on_c, 2, 65, 42
4, 130860, Note_on_c, 2, 65, 0
4, 130976, Note_on_c, 2, 68, 62
4, 131080, Note_on_c, 2, 68, 0
4, 131160, Note_on_c, 2, 67, 73
4, 131236, Note_on_c, 2, 67, 0
4, 131264, Note_on_c, 2, 62, 42
4, 131292, Note_on_c, 2, 62, 0
4, 131348, Note_on_c, 2, 65, 55
4, 131440, Note_on_c, 2, 65, 0
4, 131468, Note_on_c, 2, 62, 44
4, 131648, Note_on_c, 2, 62, 0
4, 131740, Note_on_c, 2, 66, 72
4, 131760, Note_on_c, 2, 66, 0
4, 131764, Note_on_c, 2, 65, 68
4, 131976, Note_on_c, 2, 65, 0
4, 132012, Note_on_c, 2, 62, 41
4, 132040, Note_on_c, 2, 62, 0
4, 132124, Note_on_c, 2, 65, 58
4, 132232, Note_on_c, 2, 65, 0
4, 132280, Note_on_c, 2, 67, 44
4, 132336, Note_on_c, 2, 67, 0
4, 132352, Note_on_c, 2, 65, 24
4, 132392, Note_on_c, 2, 62, 57
4, 132404, Note_on_c, 2, 65, 0
4, 132436, Note_on_c, 2, 62, 0
4, 132504, Note_on_c, 2, 65, 73
4, 132644, Note_on_c, 2, 65, 0
4, 132660, Note_on_c, 2, 67, 41
4, 132712, Note_on_c, 2, 67, 0
4, 132712, Note_on_c, 2, 65, 35
4, 132780, Note_on_c, 2, 65, 0
4, 132792, Note_on_c, 2, 62, 31
4, 132824, Note_on_c, 2, 62, 0
4, 132884, Note_on_c, 2, 65, 66
4, 133016, Note_on_c, 2, 65, 0
4, 133048, Note_on_c, 2, 67, 38
4, 133092, Note_on_c, 2, 67, 0
4, 133104, Note_on_c, 2, 65, 45
4, 133180, Note_on_c, 2, 62, 46
4, 133184, Note_on_c, 2, 65, 0
4, 133212, Note_on_c, 2, 62, 0
4, 133284, Note_on_c, 2, 65, 74
4, 133384, Note_on_c, 2, 65, 0
4, 133416, Note_on_c, 2, 67, 40
4, 133480, Note_on_c, 2, 67, 0
4, 133480, Note_on_c, 2, 65, 47
4, 133552, Note_on_c, 2, 65, 0
4, 133676, Note_on_c, 2, 67, 47
4, 133772, Note_on_c, 2, 67, 0
4, 133868, Note_on_c, 2, 69, 73
4, 133996, Note_on_c, 2, 70, 48
4, 134004, Note_on_c, 2, 69, 0
4, 134056, Note_on_c, 2, 69, 45
4, 134084, Note_on_c, 2, 70, 0
4, 134104, Note_on_c, 2, 65, 57
4, 134108, Note_on_c, 2, 69, 0
4, 134136, Note_on_c, 2, 65, 0
4, 134184, Note_on_c, 2, 69, 77
4, 134288, Note_on_c, 2, 69, 0
4, 135520, Note_on_c, 2, 75, 75
4, 135568, Note_on_c, 2, 75, 0
4, 135608, Note_on_c, 2, 76, 71
4, 135664, Note_on_c, 2, 76, 0
4, 135716, Note_on_c, 2, 76, 63
4, 135764, Note_on_c, 2, 76, 0
4, 135804, Note_on_c, 2, 76, 62
4, 135880, Note_on_c, 2, 76, 0
4, 135920, Note_on_c, 2, 75, 48
4, 135952, Note_on_c, 2, 75, 0
4, 136008, Note_on_c, 2, 76, 68
4, 136060, Note_on_c, 2, 76, 0
4, 136112, Note_on_c, 2, 76, 62
4, 136172, Note_on_c, 2, 76, 0
4, 136208, Note_on_c, 2, 76, 72
4, 136300, Note_on_c, 2, 76, 0
4, 136340, Note_on_c, 2, 73, 57
4, 136404, Note_on_c, 2, 74, 68
4, 136412, Note_on_c, 2, 73, 0
4, 136476, Note_on_c, 2, 74, 0
4, 136548, Note_on_c, 2, 73, 63
4, 136604, Note_on_c, 2, 74, 78
4, 136640, Note_on_c, 2, 73, 0
4, 136680, Note_on_c, 2, 74, 0
4, 136792, Note_on_c, 2, 71, 48
4, 136840, Note_on_c, 2, 72, 59
4, 136844, Note_on_c, 2, 71, 0
4, 136888, Note_on_c, 2, 73, 55
4, 136904, Note_on_c, 2, 72, 0
4, 136976, Note_on_c, 2, 72, 39
4, 136996, Note_on_c, 2, 73, 0
4, 137076, Note_on_c, 2, 72, 0
4, 137076, Note_on_c, 2, 71, 55
4, 137100, Note_on_c, 2, 71, 0
4, 137148, Note_on_c, 2, 72, 71
4, 137352, Note_on_c, 2, 72, 0
4, 137384, Note_on_c, 2, 70, 49
4, 137440, Note_on_c, 2, 70, 0
4, 137484, Note_on_c, 2, 73, 73
4, 137564, Note_on_c, 2, 74, 83
4, 137568, Note_on_c, 2, 73, 0
4, 137808, Note_on_c, 2, 74, 0
4, 137864, Note_on_c, 2, 69, 56
4, 138116, Note_on_c, 2, 69, 0
4, 138128, Note_on_c, 2, 64, 55
4, 138156, Note_on_c, 2, 64, 0
4, 138252, Note_on_c, 2, 70, 78
4, 138388, Note_on_c, 2, 70, 0
4, 138428, Note_on_c, 2, 72, 49
4, 138484, Note_on_c, 2, 70, 31
4, 138492, Note_on_c, 2, 72, 0
4, 138532, Note_on_c, 2, 69, 67
4, 138540, Note_on_c, 2, 70, 0
4, 138572, Note_on_c, 2, 69, 0
4, 138628, Note_on_c, 2, 70, 76
4, 138804, Note_on_c, 2, 70, 0
4, 138876, Note_on_c, 2, 71, 87
4, 138972, Note_on_c, 2, 71, 0
4, 139044, Note_on_c, 2, 72, 73
4, 139192, Note_on_c, 2, 72, 0
4, 139264, Note_on_c, 2, 70, 69
4, 139352, Note_on_c, 2, 70, 0
4, 139452, Note_on_c, 2, 67, 24
4, 139472, Note_on_c, 2, 67, 0
4, 139788, Note_on_c, 2, 69, 84
4, 139980, Note_on_c, 2, 69, 0
4, 140044, Note_on_c, 2, 69, 80
4, 140152, Note_on_c, 2, 69, 0
4, 140220, Note_on_c, 2, 68, 42
4, 140332, Note_on_c, 2, 68, 0
4, 140416, Note_on_c, 2, 69, 70
4, 140468, Note_on_c, 2, 69, 0
4, 140536, Note_on_c, 2, 69, 36
4, 140580, Note_on_c, 2, 70, 59
4, 140600, Note_on_c, 2, 69, 0
4, 140616, Note_on_c, 2, 71, 70
4, 140652, Note_on_c, 2, 70, 0
4, 140668, Note_on_c, 2, 72, 65
4, 140692, Note_on_c, 2, 71, 0
4, 141148, Note_on_c, 2, 72, 0
4, 141204, Note_on_c, 2, 70, 62
4, 141272, Note_on_c, 2, 70, 0
4, 141356, Note_on_c, 2, 67, 44
4, 141400, Note_on_c, 2, 67, 0
4, 141440, Note_on_c, 2, 69, 35
4, 141484, Note_on_c, 2, 69, 0
4, 141492, Note_on_c, 2, 67, 44
4, 141564, Note_on_c, 2, 66, 45
4, 141572, Note_on_c, 2, 67, 0
4, 141628, Note_on_c, 2, 66, 0
4, 141704, Note_on_c, 2, 67, 64
4, 141880, Note_on_c, 2, 67, 0
4, 141904, Note_on_c, 2, 68, 58
4, 141964, Note_on_c, 2, 68, 0
4, 141988, Note_on_c, 2, 69, 61
4, 142036, Note_on_c, 2, 69, 0
4, 142064, Note_on_c, 2, 70, 57
4, 142096, Note_on_c, 2, 70, 0
4, 142140, Note_on_c, 2, 71, 59
4, 142196, Note_on_c, 2, 71, 0
4, 142204, Note_on_c, 2, 72, 39
4, 142232, Note_on_c, 2, 73, 62
4, 142260, Note_on_c, 2, 72, 0
4, 142296, Note_on_c, 2, 74, 82
4, 142312, Note_on_c, 2, 73, 0
4, 142508, Note_on_c, 2, 74, 0
4, 142528, Note_on_c, 2, 71, 56
4, 142568, Note_on_c, 2, 71, 0
4, 142584, Note_on_c, 2, 68, 62
4, 142652, Note_on_c, 2, 68, 0
4, 142660, Note_on_c, 2, 65, 46
4, 142704, Note_on_c, 2, 65, 0
4, 142792, Note_on_c, 2, 71, 58
4, 142844, Note_on_c, 2, 71, 0
4, 142880, Note_on_c, 2, 74, 94
4, 142968, Note_on_c, 2, 72, 68
4, 142996, Note_on_c, 2, 74, 0
4, 143108, Note_on_c, 2, 72, 0
4, 143140, Note_on_c, 2, 69, 80
4, 143216, Note_on_c, 2, 69, 0
4, 143292, Note_on_c, 2, 65, 66
4, 143356, Note_on_c, 2, 65, 0
4, 143528, Note_on_c, 2, 60, 50
4, 143556, Note_on_c, 2, 60, 0
4, 143660, Note_on_c, 2, 72, 77
4, 143820, Note_on_c, 2, 72, 0
4, 143896, Note_on_c, 2, 72, 69
4, 143980, Note_on_c, 2, 72, 0
4, 144036, Note_on_c, 2, 69, 57
4, 144240, Note_on_c, 2, 69, 0
4, 144268, Note_on_c, 2, 62, 44
4, 144292, Note_on_c, 2, 62, 0
4, 144388, Note_on_c, 2, 72, 83
4, 144528, Note_on_c, 2, 72, 0
4, 144644, Note_on_c, 2, 72, 77
4, 144716, Note_on_c, 2, 72, 0
4, 144772, Note_on_c, 2, 68, 64
4, 144996, Note_on_c, 2, 68, 0
4, 145028, Note_on_c, 2, 65, 60
4, 145072, Note_on_c, 2, 65, 0
4, 145152, Note_on_c, 2, 67, 80
4, 145416, Note_on_c, 2, 67, 0
4, 145456, Note_on_c, 2, 62, 55
4, 145496, Note_on_c, 2, 62, 0
4, 145572, Note_on_c, 2, 65, 74
4, 145748, Note_on_c, 2, 65, 0
4, 145912, Note_on_c, 2, 65, 110
4, 146040, Note_on_c, 2, 65, 0
4, 146736, Note_on_c, 2, 65, 80
4, 146820, Note_on_c, 2, 65, 0
4, 147112, Note_on_c, 2, 65, 75
4, 147232, Note_on_c, 2, 65, 0
4, 147492, Note_on_c, 2, 65, 81
4, 148104, Note_on_c, 2, 65, 0
4, 148132, Note_on_c, 2, 60, 70
4, 148196, Note_on_c, 2, 60, 0
4, 148264, Note_on_c, 2, 62, 69
4, 148360, Note_on_c, 2, 62, 0
4, 148532, Note_on_c, 2, 62, 71
4, 148580, Note_on_c, 2, 62, 0
4, 148724, Note_on_c, 2, 68, 74
4, 148764, Note_on_c, 2, 69, 72
4, 148800, Note_on_c, 2, 68, 0
4, 148904, Note_on_c, 2, 69, 0
4, 148972, Note_on_c, 2, 68, 74
4, 149036, Note_on_c, 2, 69, 65
4, 149072, Note_on_c, 2, 68, 0
4, 149132, Note_on_c, 2, 69, 0
4, 149220, Note_on_c, 2, 65, 54
4, 149448, Note_on_c, 2, 65, 0
4, 149496, Note_on_c, 2, 62, 37
4, 149644, Note_on_c, 2, 62, 0
4, 149696, Note_on_c, 2, 65, 53
4, 150776, Note_on_c, 2, 65, 0
4, 150824, Note_on_c, 2, 62, 29
4, 150856, Note_on_c, 2, 62, 0
4, 150944, Note_on_c, 2, 65, 95
4, 151152, Note_on_c, 2, 65, 0
4, 151232, Note_on_c, 2, 67, 89
4, 151332, Note_on_c, 2, 67, 0
4, 151368, Note_on_c, 2, 65, 46
4, 151448, Note_on_c, 2, 65, 0
4, 151572, Note_on_c, 2, 67, 83
4, 151676, Note_on_c, 2, 67, 0
4, 151792, Note_on_c, 2, 67, 77
4, 151908, Note_on_c, 2, 67, 0
4, 151988, Note_on_c, 2, 65, 70
4, 152060, Note_on_c, 2, 65, 0
4, 152196, Note_on_c, 2, 67, 42
4, 152248, Note_on_c, 2, 68, 53
4, 152280, Note_on_c, 2, 67, 0
4, 152304, Note_on_c, 2, 68, 0
4, 152312, Note_on_c, 2, 69, 64
4, 152400, Note_on_c, 2, 69, 0
4, 152436, Note_on_c, 2, 72, 75
4, 152532, Note_on_c, 2, 72, 0
4, 152600, Note_on_c, 2, 74, 80
4, 152740, Note_on_c, 2, 74, 0
4, 152808, Note_on_c, 2, 72, 71
4, 152924, Note_on_c, 2, 72, 0
4, 153068, Note_on_c, 2, 68, 59
4, 153124, Note_on_c, 2, 68, 0
4, 153156, Note_on_c, 2, 67, 30
4, 153228, Note_on_c, 2, 67, 0
4, 153244, Note_on_c, 2, 65, 58
4, 153316, Note_on_c, 2, 65, 0
4, 153368, Note_on_c, 2, 62, 25
4, 153552, Note_on_c, 2, 62, 0
4, 153576, Note_on_c, 2, 65, 59
4, 155032, Note_on_c, 2, 65, 0
4, 155444, Note_on_c, 2, 60, 54
4, 155476, Note_on_c, 2, 60, 0
4, 155584, Note_on_c, 2, 62, 64
4, 155632, Note_on_c, 2, 62, 0
4, 155832, Note_on_c, 2, 65, 72
4, 155896, Note_on_c, 2, 65, 0
4, 156120, Note_on_c, 2, 68, 62
4, 156152, Note_on_c, 2, 68, 0
4, 156164, Note_on_c, 2, 69, 47
4, 156260, Note_on_c, 2, 69, 0
4, 156384, Note_on_c, 2, 69, 76
4, 156528, Note_on_c, 2, 69, 0
4, 156616, Note_on_c, 2, 65, 48
4, 156748, Note_on_c, 2, 65, 0
4, 156864, Note_on_c, 2, 62, 35
4, 156916, Note_on_c, 2, 62, 0
4, 157032, Note_on_c, 2, 65, 56
4, 157116, Note_on_c, 2, 65, 0
4, 157304, Note_on_c, 2, 62, 32
4, 157340, Note_on_c, 2, 62, 0
4, 157484, Note_on_c, 2, 65, 64
4, 157620, Note_on_c, 2, 65, 0
4, 157704, Note_on_c, 2, 67, 37
4, 157724, Note_on_c, 2, 65, 53
4, 157736, Note_on_c, 2, 67, 0
4, 157784, Note_on_c, 2, 62, 38
4, 157796, Note_on_c, 2, 65, 0
4, 157820, Note_on_c, 2, 62, 0
4, 157872, Note_on_c, 2, 65, 45
4, 158112, Note_on_c, 2, 65, 0
4, 158124, Note_on_c, 2, 62, 30
4, 158168, Note_on_c, 2, 62, 0
4, 158304, Note_on_c, 2, 66, 20
4, 158868, Note_on_c, 2, 66, 0
4, 158880, Note_on_c, 2, 65, 35
4, 159776, Note_on_c, 2, 65, 0
4, 160540, Note_on_c, 2, 75, 79
4, 160600, Note_on_c, 2, 75, 0
4, 160644, Note_on_c, 2, 76, 79
4, 160712, Note_on_c, 2, 76, 0
4, 160768, Note_on_c, 2, 76, 77
4, 160832, Note_on_c, 2, 76, 0
4, 160880, Note_on_c, 2, 76, 78
4, 160968, Note_on_c, 2, 76, 0
4, 161000, Note_on_c, 2, 73, 71
4, 161096, Note_on_c, 2, 74, 74
4, 161112, Note_on_c, 2, 73, 0
4, 161184, Note_on_c, 2, 74, 0
4, 161244, Note_on_c, 2, 74, 64
4, 161352, Note_on_c, 2, 74, 0
4, 161412, Note_on_c, 2, 72, 45
4, 161424, Note_on_c, 2, 74, 33
4, 161472, Note_on_c, 2, 74, 0
4, 161640, Note_on_c, 2, 72, 0
4, 161712, Note_on_c, 2, 72, 52
4, 161996, Note_on_c, 2, 72, 0
4, 162076, Note_on_c, 2, 73, 48
4, 162164, Note_on_c, 2, 74, 50
4, 162176, Note_on_c, 2, 73, 0
4, 162648, Note_on_c, 2, 74, 0
4, 162696, Note_on_c, 2, 72, 64
4, 162776, Note_on_c, 2, 72, 0
4, 162916, Note_on_c, 2, 70, 39
4, 163100, Note_on_c, 2, 70, 0
4, 163120, Note_on_c, 2, 69, 37
4, 163180, Note_on_c, 2, 69, 0
4, 163284, Note_on_c, 2, 70, 43
4, 163440, Note_on_c, 2, 70, 0
4, 163508, Note_on_c, 2, 71, 74
4, 163616, Note_on_c, 2, 71, 0
4, 163704, Note_on_c, 2, 72, 58
4, 163824, Note_on_c, 2, 72, 0
4, 163904, Note_on_c, 2, 72, 59
4, 164004, Note_on_c, 2, 72, 0
4, 164088, Note_on_c, 2, 70, 34
4, 164208, Note_on_c, 2, 70, 0
4, 164276, Note_on_c, 2, 70, 60
4, 164396, Note_on_c, 2, 70, 0
4, 164464, Note_on_c, 2, 68, 52
4, 164552, Note_on_c, 2, 69, 57
4, 164564, Note_on_c, 2, 68, 0
4, 164696, Note_on_c, 2, 69, 0
4, 164796, Note_on_c, 2, 69, 55
4, 165000, Note_on_c, 2, 69, 0
4, 165032, Note_on_c, 2, 72, 74
4, 165160, Note_on_c, 2, 72, 0
4, 165228, Note_on_c, 2, 72, 59
4, 165484, Note_on_c, 2, 72, 0
4, 165560, Note_on_c, 2, 70, 49
4, 165744, Note_on_c, 2, 70, 0
4, 165796, Note_on_c, 2, 67, 61
4, 166256, Note_on_c, 2, 67, 0
4, 166684, Note_on_c, 2, 68, 86
4, 166748, Note_on_c, 2, 68, 0
4, 166804, Note_on_c, 2, 69, 78
4, 166860, Note_on_c, 2, 69, 0
4, 166924, Note_on_c, 2, 69, 76
4, 167020, Note_on_c, 2, 69, 0
4, 167080, Note_on_c, 2, 68, 60
4, 167144, Note_on_c, 2, 68, 0
4, 167208, Note_on_c, 2, 69, 75
4, 167288, Note_on_c, 2, 69, 0
4, 167416, Note_on_c, 2, 67, 71
4, 167492, Note_on_c, 2, 67, 0
4, 167608, Note_on_c, 2, 65, 70
4, 167780, Note_on_c, 2, 65, 0
4, 167832, Note_on_c, 2, 67, 59
4, 167900, Note_on_c, 2, 65, 62
4, 167908, Note_on_c, 2, 67, 0
4, 168028, Note_on_c, 2, 65, 0
4, 168040, Note_on_c, 2, 62, 44
4, 168164, Note_on_c, 2, 62, 0
4, 168248, Note_on_c, 2, 64, 62
4, 168348, Note_on_c, 2, 64, 0
4, 168488, Note_on_c, 2, 65, 66
4, 168656, Note_on_c, 2, 65, 0
4, 168748, Note_on_c, 2, 67, 59
4, 168856, Note_on_c, 2, 67, 0
4, 169580, Note_on_c, 2, 67, 68
4, 169644, Note_on_c, 2, 67, 0
4, 169700, Note_on_c, 2, 69, 82
4, 169804, Note_on_c, 2, 69, 0
4, 169864, Note_on_c, 2, 66, 48
4, 170016, Note_on_c, 2, 66, 0
4, 170092, Note_on_c, 2, 67, 62
4, 170188, Note_on_c, 2, 67, 0
4, 170520, Note_on_c, 2, 73, 70
4, 170584, Note_on_c, 2, 73, 0
4, 170652, Note_on_c, 2, 74, 68
4, 170820, Note_on_c, 2, 74, 0
4, 170936, Note_on_c, 2, 74, 77
4, 171156, Note_on_c, 2, 74, 0
4, 171188, Note_on_c, 2, 73, 38
4, 171256, Note_on_c, 2, 73, 0
4, 171340, Note_on_c, 2, 74, 64
4, 171520, Note_on_c, 2, 74, 0
4, 171628, Note_on_c, 2, 60, 45
4, 171664, Note_on_c, 2, 60, 0
4, 172324, Note_on_c, 2, 60, 42
4, 172384, Note_on_c, 2, 60, 0
4, 172624, Note_on_c, 2, 65, 24
4, 172656, Note_on_c, 2, 65, 0
4, 172720, Note_on_c, 2, 70, 80
4, 172816, Note_on_c, 2, 70, 0
4, 172868, Note_on_c, 2, 74, 82
4, 172996, Note_on_c, 2, 74, 0
4, 173108, Note_on_c, 2, 77, 90
4, 173204, Note_on_c, 2, 77, 0
4, 173336, Note_on_c, 2, 80, 43
4, 173372, Note_on_c, 2, 80, 0
4, 173764, Note_on_c, 2, 77, 49
4, 173936, Note_on_c, 2, 77, 0
4, 174028, Note_on_c, 2, 77, 55
4, 174216, Note_on_c, 2, 77, 0
4, 174288, Note_on_c, 2, 76, 39
4, 174336, Note_on_c, 2, 76, 0
4, 174432, Note_on_c, 2, 77, 49
4, 174652, Note_on_c, 2, 77, 0
4, 174668, Note_on_c, 2, 74, 44
4, 174716, Note_on_c, 2, 74, 0
4, 175484, Note_on_c, 2, 65, 72
4, 175552, Note_on_c, 2, 77, 79
4, 175560, Note_on_c, 2, 65, 0
4, 175652, Note_on_c, 2, 77, 0
4, 175684, Note_on_c, 2, 65, 24
4, 175712, Note_on_c, 2, 65, 0
4, 175732, Note_on_c, 2, 77, 48
4, 175828, Note_on_c, 2, 77, 0
4, 175852, Note_on_c, 2, 65, 33
4, 175892, Note_on_c, 2, 65, 0
4, 176556, Note_on_c, 2, 74, 69
4, 176608, Note_on_c, 2, 74, 0
4, 176772, Note_on_c, 2, 75, 49
4, 176796, Note_on_c, 2, 76, 71
4, 176800, Note_on_c, 2, 75, 0
4, 176840, Note_on_c, 2, 77, 66
4, 176876, Note_on_c, 2, 76, 0
4, 177008, Note_on_c, 2, 77, 0
4, 177080, Note_on_c, 2, 77, 69
4, 177224, Note_on_c, 2, 77, 0
4, 177568, Note_on_c, 2, 77, 79
4, 177716, Note_on_c, 2, 77, 0
4, 177840, Note_on_c, 2, 77, 63
4, 177936, Note_on_c, 2, 77, 0
4, 178132, Note_on_c, 2, 74, 33
4, 178132, Note_on_c, 2, 72, 32
4, 178212, Note_on_c, 2, 74, 0
4, 178252, Note_on_c, 2, 72, 0
4, 178380, Note_on_c, 2, 68, 43
4, 178520, Note_on_c, 2, 68, 0
4, 178660, Note_on_c, 2, 68, 42
4, 178772, Note_on_c, 2, 68, 0
4, 178904, Note_on_c, 2, 65, 36
4, 178972, Note_on_c, 2, 65, 0
4, 179076, Note_on_c, 2, 67, 45
4, 179240, Note_on_c, 2, 67, 0
4, 179280, Note_on_c, 2, 65, 49
4, 179316, Note_on_c, 2, 65, 0
4, 179636, Note_on_c, 2, 77, 94
4, 179648, Note_on_c, 2, 76, 58
4, 179676, Note_on_c, 2, 76, 0
4, 179704, Note_on_c, 2, 77, 0
4, 180040, Note_on_c, 2, 75, 79
4, 180120, Note_on_c, 2, 75, 0
4, 180476, Note_on_c, 2, 72, 60
4, 180536, Note_on_c, 2, 72, 0
4, 180804, Note_on_c, 2, 65, 50
4, 180844, Note_on_c, 2, 65, 0
4, 181164, Note_on_c, 2, 70, 92
4, 181320, Note_on_c, 2, 70, 0
4, 181376, Note_on_c, 2, 71, 38
4, 181448, Note_on_c, 2, 70, 62
4, 181452, Note_on_c, 2, 71, 0
4, 181536, Note_on_c, 2, 68, 56
4, 181556, Note_on_c, 2, 70, 0
4, 181604, Note_on_c, 2, 65, 64
4, 181612, Note_on_c, 2, 68, 0
4, 181672, Note_on_c, 2, 65, 0
4, 181728, Note_on_c, 2, 70, 74
4, 181932, Note_on_c, 2, 70, 0
4, 181972, Note_on_c, 2, 68, 38
4, 182016, Note_on_c, 2, 68, 0
4, 182112, Note_on_c, 2, 70, 76
4, 182292, Note_on_c, 2, 70, 0
4, 182312, Note_on_c, 2, 68, 65
4, 182416, Note_on_c, 2, 68, 0
4, 182448, Note_on_c, 2, 65, 47
4, 182616, Note_on_c, 2, 65, 0
4, 182684, Note_on_c, 2, 63, 34
4, 182792, Note_on_c, 2, 63, 0
4, 182840, Note_on_c, 2, 69, 72
4, 183496, Note_on_c, 2, 69, 0
4, 183836, Note_on_c, 2, 66, 39
4, 183944, Note_on_c, 2, 66, 0
4, 184732, Note_on_c, 2, 75, 70
4, 184792, Note_on_c, 2, 75, 0
4, 184860, Note_on_c, 2, 75, 67
4, 184928, Note_on_c, 2, 75, 0
4, 185132, Note_on_c, 2, 75, 85
4, 185160, Note_on_c, 2, 76, 72
4, 185212, Note_on_c, 2, 75, 0
4, 185488, Note_on_c, 2, 76, 0
4, 185520, Note_on_c, 2, 74, 76
4, 185792, Note_on_c, 2, 74, 0
4, 186044, Note_on_c, 2, 74, 50
4, 186120, Note_on_c, 2, 74, 0
4, 186124, Note_on_c, 2, 72, 40
4, 186212, Note_on_c, 2, 71, 51
4, 186216, Note_on_c, 2, 72, 0
4, 186276, Note_on_c, 2, 71, 0
4, 186348, Note_on_c, 2, 72, 70
4, 186500, Note_on_c, 2, 72, 0
4, 186588, Note_on_c, 2, 73, 71
4, 186696, Note_on_c, 2, 73, 0
4, 186780, Note_on_c, 2, 74, 61
4, 186912, Note_on_c, 2, 74, 0
4, 187016, Note_on_c, 2, 74, 58
4, 187104, Note_on_c, 2, 74, 0
4, 187280, Note_on_c, 2, 72, 59
4, 187404, Note_on_c, 2, 72, 0
4, 187488, Note_on_c, 2, 70, 48
4, 187952, Note_on_c, 2, 70, 0
4, 187960, Note_on_c, 2, 69, 57
4, 188028, Note_on_c, 2, 69, 0
4, 188080, Note_on_c, 2, 70, 60
4, 188160, Note_on_c, 2, 70, 0
4, 188232, Note_on_c, 2, 71, 80
4, 188320, Note_on_c, 2, 72, 64
4, 188352, Note_on_c, 2, 71, 0
4, 188476, Note_on_c, 2, 72, 0
4, 188584, Note_on_c, 2, 72, 72
4, 188760, Note_on_c, 2, 72, 0
4, 188812, Note_on_c, 2, 70, 67
4, 188960, Note_on_c, 2, 70, 0
4, 189032, Note_on_c, 2, 69, 58
4, 189476, Note_on_c, 2, 69, 0
4, 189476, Note_on_c, 2, 68, 52
4, 189552, Note_on_c, 2, 68, 0
4, 189612, Note_on_c, 2, 69, 66
4, 189708, Note_on_c, 2, 69, 0
4, 189776, Note_on_c, 2, 71, 71
4, 189820, Note_on_c, 2, 72, 60
4, 189868, Note_on_c, 2, 71, 0
4, 190052, Note_on_c, 2, 72, 0
4, 190116, Note_on_c, 2, 70, 52
4, 190320, Note_on_c, 2, 70, 0
4, 190356, Note_on_c, 2, 67, 66
4, 191140, Note_on_c, 2, 74, 88
4, 191168, Note_on_c, 2, 67, 0
4, 192000, Note_on_c, 2, 74, 0
4, 192264, Note_on_c, 2, 72, 90
4, 192712, Note_on_c, 2, 72, 0
4, 192796, Note_on_c, 2, 74, 64
4, 192836, Note_on_c, 2, 74, 0
4, 193156, Note_on_c, 2, 69, 62
4, 193236, Note_on_c, 2, 69, 0
4, 193532, Note_on_c, 2, 71, 73
4, 193620, Note_on_c, 2, 71, 0
4, 193624, Note_on_c, 2, 72, 57
4, 194292, Note_on_c, 2, 72, 0
4, 194316, Note_on_c, 2, 62, 39
4, 194784, Note_on_c, 2, 62, 0
4, 195488, Note_on_c, 2, 70, 55
4, 195524, Note_on_c, 2, 70, 0
4, 195576, Note_on_c, 2, 71, 50
4, 195656, Note_on_c, 2, 70, 67
4, 195660, Note_on_c, 2, 71, 0
4, 195760, Note_on_c, 2, 68, 56
4, 195780, Note_on_c, 2, 70, 0
4, 195832, Note_on_c, 2, 68, 0
4, 195864, Note_on_c, 2, 65, 57
4, 196016, Note_on_c, 2, 65, 0
4, 196124, Note_on_c, 2, 63, 62
4, 196224, Note_on_c, 2, 63, 0
4, 196280, Note_on_c, 2, 60, 33
4, 196400, Note_on_c, 2, 60, 0
4, 196516, Note_on_c, 2, 59, 59
4, 196584, Note_on_c, 2, 59, 0
4, 196720, Note_on_c, 2, 58, 44
4, 196800, Note_on_c, 2, 58, 0
4, 197108, Note_on_c, 2, 56, 57
4, 197232, Note_on_c, 2, 56, 0
4, 197348, Note_on_c, 2, 53, 38
4, 199500, Note_on_c, 2, 53, 0
4, 199500, End_track
5, 0, Start_track
5, 0, Control_c, 9, 0, 0
5, 0, Program_c, 9, 0
5, 0, Control_c, 9, 7, 85
5, 0, Note_on_c, 9, 26, 38
5, 0, Note_on_c, 9, 24, 34
5, 12, Note_on_c, 9, 38, 25
5, 60, Note_on_c, 9, 38, 0
5, 120, Note_on_c, 9, 24, 0
5, 192, Note_on_c, 9, 26, 0
5, 254, Note_on_c, 9, 51, 49
5, 372, Note_on_c, 9, 26, 28
5, 376, Note_on_c, 9, 24, 36
5, 420, Note_on_c, 9, 26, 0
5, 496, Note_on_c, 9, 24, 0
5, 634, Note_on_c, 9, 51, 0
5, 674, Note_on_c, 9, 51, 47
5, 684, Note_on_c, 9, 26, 34
5, 698, Note_on_c, 9, 51, 0
5, 760, Note_on_c, 9, 24, 27
5, 770, Note_on_c, 9, 51, 41
5, 776, Note_on_c, 9, 26, 0
5, 798, Note_on_c, 9, 51, 0
5, 888, Note_on_c, 9, 24, 0
5, 1112, Note_on_c, 9, 26, 33
5, 1144, Note_on_c, 9, 24, 40
5, 1168, Note_on_c, 9, 24, 0
5, 1172, Note_on_c, 9, 26, 0
5, 1396, Note_on_c, 9, 36, 42
5, 1406, Note_on_c, 9, 51, 36
5, 1454, Note_on_c, 9, 51, 0
5, 1476, Note_on_c, 9, 36, 0
5, 1522, Note_on_c, 9, 51, 41
5, 1548, Note_on_c, 9, 36, 28
5, 1566, Note_on_c, 9, 51, 0
5, 1744, Note_on_c, 9, 36, 0
5, 1912, Note_on_c, 9, 44, 38
5, 2040, Note_on_c, 9, 44, 0
5, 2182, Note_on_c, 9, 51, 48
5, 2188, Note_on_c, 9, 36, 24
5, 2206, Note_on_c, 9, 51, 0
5, 2220, Note_on_c, 9, 36, 0
5, 2562, Note_on_c, 9, 51, 37
5, 2650, Note_on_c, 9, 51, 0
5, 2680, Note_on_c, 9, 44, 52
5, 2720, Note_on_c, 9, 38, 21
5, 2832, Note_on_c, 9, 44, 0
5, 2960, Note_on_c, 9, 36, 31
5, 3012, Note_on_c, 9, 36, 0
5, 3060, Note_on_c, 9, 38, 0
5, 3080, Note_on_c, 9, 36, 28
5, 3082, Note_on_c, 9, 51, 46
5, 3144, Note_on_c, 9, 36, 0
5, 3406, Note_on_c, 9, 51, 0
5, 3448, Note_on_c, 9, 44, 58
5, 3462, Note_on_c, 9, 51, 42
5, 3640, Note_on_c, 9, 44, 0
5, 3696, Note_on_c, 9, 36, 41
5, 3728, Note_on_c, 9, 36, 0
5, 3778, Note_on_c, 9, 51, 0
5, 3830, Note_on_c, 9, 51, 40
5, 4100, Note_on_c, 9, 38, 51
5, 4106, Note_on_c, 9, 51, 0
5, 4204, Note_on_c, 9, 38, 0
5, 4214, Note_on_c, 9, 51, 40
5, 4216, Note_on_c, 9, 44, 56
5, 4312, Note_on_c, 9, 44, 0
5, 4546, Note_on_c, 9, 51, 0
5, 4610, Note_on_c, 9, 51, 37
5, 4954, Note_on_c, 9, 51, 0
5, 4984, Note_on_c, 9, 44, 52
5, 5002, Note_on_c, 9, 51, 46
5, 5144, Note_on_c, 9, 44, 0
5, 5248, Note_on_c, 9, 36, 46
5, 5296, Note_on_c, 9, 36, 0
5, 5326, Note_on_c, 9, 51, 0
5, 5386, Note_on_c, 9, 51, 37
5, 5618, Note_on_c, 9, 51, 0
5, 5624, Note_on_c, 9, 38, 56
5, 5736, Note_on_c, 9, 38, 0
5, 5746, Note_on_c, 9, 51, 52
5, 5752, Note_on_c, 9, 44, 46
5, 5940, Note_on_c, 9, 44, 0
5, 6004, Note_on_c, 9, 36, 44
5, 6032, Note_on_c, 9, 36, 0
5, 6054, Note_on_c, 9, 51, 0
5, 6122, Note_on_c, 9, 51, 38
5, 6124, Note_on_c, 9, 36, 38
5, 6160, Note_on_c, 9, 36, 0
5, 6474, Note_on_c, 9, 51, 0
5, 6520, Note_on_c, 9, 44, 48
5, 6522, Note_on_c, 9, 51, 45
5, 6784, Note_on_c, 9, 44, 0
5, 6846, Note_on_c, 9, 51, 0
5, 6910, Note_on_c, 9, 51, 41
5, 7130, Note_on_c, 9, 51, 0
5, 7140, Note_on_c, 9, 36, 27
5, 7166, Note_on_c, 9, 51, 74
5, 7172, Note_on_c, 9, 36, 0
5, 7210, Note_on_c, 9, 51, 0
5, 7258, Note_on_c, 9, 51, 68
5, 7268, Note_on_c, 9, 46, 61
5, 7288, Note_on_c, 9, 46, 36
5, 7400, Note_on_c, 9, 46, 0
5, 7484, Note_on_c, 9, 46, 0
5, 7504, Note_on_c, 9, 36, 40
5, 7548, Note_on_c, 9, 36, 0
5, 7622, Note_on_c, 9, 51, 0
5, 7644, Note_on_c, 9, 46, 25
5, 7662, Note_on_c, 9, 51, 70
5, 7716, Note_on_c, 9, 46, 0
5, 7898, Note_on_c, 9, 51, 0
5, 7904, Note_on_c, 9, 36, 45
5, 7908, Note_on_c, 9, 38, 72
5, 7960, Note_on_c, 9, 36, 0
5, 8036, Note_on_c, 9, 36, 31
5, 8050, Note_on_c, 9, 51, 42
5, 8052, Note_on_c, 9, 38, 0
5, 8056, Note_on_c, 9, 44, 51
5, 8128, Note_on_c, 9, 36, 0
5, 8160, Note_on_c, 9, 44, 0
5, 8382, Note_on_c, 9, 51, 0
5, 8434, Note_on_c, 9, 51, 45
5, 8672, Note_on_c, 9, 36, 33
5, 8700, Note_on_c, 9, 36, 0
5, 8782, Note_on_c, 9, 51, 0
5, 8824, Note_on_c, 9, 44, 50
5, 8830, Note_on_c, 9, 51, 52
5, 8934, Note_on_c, 9, 51, 0
5, 8942, Note_on_c, 9, 53, 60
5, 8968, Note_on_c, 9, 44, 0
5, 9058, Note_on_c, 9, 53, 0
5, 9066, Note_on_c, 9, 51, 52
5, 9146, Note_on_c, 9, 51, 0
5, 9198, Note_on_c, 9, 51, 54
5, 9542, Note_on_c, 9, 51, 0
5, 9592, Note_on_c, 9, 44, 39
5, 9602, Note_on_c, 9, 51, 46
5, 9760, Note_on_c, 9, 44, 0
5, 9856, Note_on_c, 9, 36, 46
5, 9930, Note_on_c, 9, 51, 0
5, 9944, Note_on_c, 9, 36, 0
5, 9986, Note_on_c, 9, 51, 42
5, 9992, Note_on_c, 9, 36, 37
5, 10064, Note_on_c, 9, 36, 0
5, 10326, Note_on_c, 9, 51, 0
5, 10360, Note_on_c, 9, 44, 47
5, 10370, Note_on_c, 9, 51, 53
5, 10480, Note_on_c, 9, 44, 0
5, 10586, Note_on_c, 9, 51, 0
5, 10670, Note_on_c, 9, 51, 64
5, 10726, Note_on_c, 9, 51, 0
5, 10770, Note_on_c, 9, 51, 60
5, 11078, Note_on_c, 9, 51, 0
5, 11128, Note_on_c, 9, 44, 50
5, 11146, Note_on_c, 9, 51, 45
5, 11266, Note_on_c, 9, 53, 56
5, 11270, Note_on_c, 9, 51, 0
5, 11272, Note_on_c, 9, 44, 0
5, 11398, Note_on_c, 9, 53, 0
5, 11400, Note_on_c, 9, 36, 49
5, 11406, Note_on_c, 9, 51, 58
5, 11444, Note_on_c, 9, 36, 0
5, 11454, Note_on_c, 9, 51, 0
5, 11530, Note_on_c, 9, 51, 60
5, 11838, Note_on_c, 9, 51, 0
5, 11896, Note_on_c, 9, 44, 50
5, 11910, Note_on_c, 9, 51, 54
5, 12024, Note_on_c, 9, 44, 0
5, 12214, Note_on_c, 9, 51, 0
5, 12298, Note_on_c, 9, 51, 57
5, 12630, Note_on_c, 9, 51, 0
5, 12664, Note_on_c, 9, 44, 60
5, 12686, Note_on_c, 9, 51, 51
5, 12776, Note_on_c, 9, 44, 0
5, 12796, Note_on_c, 9, 38, 60
5, 12798, Note_on_c, 9, 51, 0
5, 12920, Note_on_c, 9, 36, 44
5, 12944, Note_on_c, 9, 36, 0
5, 12984, Note_on_c, 9, 38, 0
5, 13070, Note_on_c, 9, 51, 58
5, 13188, Note_on_c, 9, 36, 33
5, 13216, Note_on_c, 9, 36, 0
5, 13358, Note_on_c, 9, 51, 0
5, 13426, Note_on_c, 9, 51, 53
5, 13432, Note_on_c, 9, 44, 59
5, 13436, Note_on_c, 9, 36, 21
5, 13460, Note_on_c, 9, 36, 0
5, 13548, Note_on_c, 9, 38, 60
5, 13568, Note_on_c, 9, 44, 0
5, 13576, Note_on_c, 9, 38, 0
5, 13676, Note_on_c, 9, 36, 31
5, 13708, Note_on_c, 9, 36, 0
5, 13750, Note_on_c, 9, 51, 0
5, 13810, Note_on_c, 9, 51, 41
5, 13824, Note_on_c, 9, 36, 33
5, 13880, Note_on_c, 9, 36, 0
5, 14130, Note_on_c, 9, 51, 0
5, 14182, Note_on_c, 9, 51, 41
5, 14200, Note_on_c, 9, 44, 46
5, 14352, Note_on_c, 9, 44, 0
5, 14464, Note_on_c, 9, 36, 32
5, 14488, Note_on_c, 9, 36, 0
5, 14584, Note_on_c, 9, 38, 51
5, 14604, Note_on_c, 9, 38, 0
5, 14626, Note_on_c, 9, 51, 0
5, 14676, Note_on_c, 9, 38, 64
5, 14700, Note_on_c, 9, 38, 0
5, 14826, Note_on_c, 9, 51, 62
5, 14968, Note_on_c, 9, 44, 53
5, 15104, Note_on_c, 9, 44, 0
5, 15108, Note_on_c, 9, 38, 42
5, 15114, Note_on_c, 9, 51, 0
5, 15158, Note_on_c, 9, 51, 46
5, 15168, Note_on_c, 9, 38, 0
5, 15194, Note_on_c, 9, 51, 0
5, 15236, Note_on_c, 9, 36, 33
5, 15262, Note_on_c, 9, 51, 30
5, 15294, Note_on_c, 9, 51, 0
5, 15316, Note_on_c, 9, 36, 0
5, 15322, Note_on_c, 9, 51, 49
5, 15364, Note_on_c, 9, 36, 32
5, 15444, Note_on_c, 9, 36, 0
5, 15618, Note_on_c, 9, 51, 0
5, 15694, Note_on_c, 9, 51, 58
5, 15736, Note_on_c, 9, 44, 48
5, 15888, Note_on_c, 9, 44, 0
5, 15976, Note_on_c, 9, 36, 39
5, 16004, Note_on_c, 9, 36, 0
5, 16058, Note_on_c, 9, 51, 0
5, 16114, Note_on_c, 9, 51, 46
5, 16450, Note_on_c, 9, 51, 0
5, 16504, Note_on_c, 9, 44, 57
5, 16514, Note_on_c, 9, 51, 38
5, 16664, Note_on_c, 9, 44, 0
5, 16730, Note_on_c, 9, 51, 0
5, 16764, Note_on_c, 9, 38, 67
5, 16780, Note_on_c, 9, 36, 25
5, 16808, Note_on_c, 9, 38, 0
5, 16832, Note_on_c, 9, 36, 0
5, 16886, Note_on_c, 9, 51, 56
5, 17218, Note_on_c, 9, 51, 0
5, 17272, Note_on_c, 9, 44, 56
5, 17278, Note_on_c, 9, 51, 44
5, 17408, Note_on_c, 9, 44, 0
5, 17536, Note_on_c, 9, 36, 32
5, 17564, Note_on_c, 9, 36, 0
5, 17614, Note_on_c, 9, 51, 0
5, 17674, Note_on_c, 9, 51, 45
5, 17986, Note_on_c, 9, 51, 0
5, 18040, Note_on_c, 9, 44, 54
5, 18066, Note_on_c, 9, 51, 57
5, 18120, Note_on_c, 9, 44, 0
5, 18298, Note_on_c, 9, 51, 0
5, 18300, Note_on_c, 9, 38, 57
5, 18312, Note_on_c, 9, 36, 32
5, 18340, Note_on_c, 9, 36, 0
5, 18392, Note_on_c, 9, 38, 0
5, 18426, Note_on_c, 9, 51, 44
5, 18560, Note_on_c, 9, 48, 67
5, 18596, Note_on_c, 9, 48, 0
5, 18676, Note_on_c, 9, 48, 78
5, 18748, Note_on_c, 9, 48, 0
5, 18754, Note_on_c, 9, 51, 0
5, 18808, Note_on_c, 9, 44, 60
5, 18816, Note_on_c, 9, 47, 52
5, 18826, Note_on_c, 9, 51, 49
5, 18856, Note_on_c, 9, 47, 0
5, 18904, Note_on_c, 9, 44, 0
5, 18948, Note_on_c, 9, 45, 39
5, 18968, Note_on_c, 9, 45, 0
5, 19038, Note_on_c, 9, 51, 0
5, 19072, Note_on_c, 9, 36, 38
5, 19176, Note_on_c, 9, 36, 0
5, 19198, Note_on_c, 9, 51, 52
5, 19396, Note_on_c, 9, 48, 51
5, 19444, Note_on_c, 9, 48, 0
5, 19494, Note_on_c, 9, 51, 0
5, 19500, Note_on_c, 9, 48, 68
5, 19576, Note_on_c, 9, 48, 0
5, 19576, Note_on_c, 9, 46, 60
5, 19586, Note_on_c, 9, 51, 60
5, 19628, Note_on_c, 9, 47, 68
5, 19652, Note_on_c, 9, 47, 0
5, 19720, Note_on_c, 9, 46, 0
5, 19728, Note_on_c, 9, 45, 44
5, 19756, Note_on_c, 9, 45, 0
5, 19834, Note_on_c, 9, 51, 0
5, 19860, Note_on_c, 9, 36, 58
5, 19968, Note_on_c, 9, 36, 0
5, 19978, Note_on_c, 9, 51, 47
5, 20222, Note_on_c, 9, 51, 0
5, 20344, Note_on_c, 9, 44, 47
5, 20354, Note_on_c, 9, 51, 53
5, 20464, Note_on_c, 9, 44, 0
5, 20628, Note_on_c, 9, 36, 36
5, 20646, Note_on_c, 9, 51, 0
5, 20664, Note_on_c, 9, 36, 0
5, 20738, Note_on_c, 9, 51, 45
5, 20744, Note_on_c, 9, 36, 27
5, 20800, Note_on_c, 9, 36, 0
5, 21042, Note_on_c, 9, 51, 0
5, 21106, Note_on_c, 9, 51, 32
5, 21112, Note_on_c, 9, 44, 50
5, 21146, Note_on_c, 9, 51, 0
5, 21232, Note_on_c, 9, 44, 0
5, 21364, Note_on_c, 9, 36, 35
5, 21386, Note_on_c, 9, 51, 71
5, 21388, Note_on_c, 9, 36, 0
5, 21438, Note_on_c, 9, 51, 0
5, 21498, Note_on_c, 9, 51, 48
5, 21790, Note_on_c, 9, 51, 0
5, 21862, Note_on_c, 9, 51, 49
5, 21880, Note_on_c, 9, 44, 62
5, 21976, Note_on_c, 9, 44, 0
5, 22170, Note_on_c, 9, 51, 0
5, 22254, Note_on_c, 9, 51, 56
5, 22516, Note_on_c, 9, 36, 16
5, 22536, Note_on_c, 9, 36, 0
5, 22542, Note_on_c, 9, 51, 0
5, 22648, Note_on_c, 9, 44, 59
5, 22650, Note_on_c, 9, 51, 62
5, 22832, Note_on_c, 9, 44, 0
5, 22870, Note_on_c, 9, 51, 0
5, 22892, Note_on_c, 9, 38, 56
5, 22984, Note_on_c, 9, 38, 0
5, 23022, Note_on_c, 9, 51, 49
5, 23164, Note_on_c, 9, 45, 37
5, 23196, Note_on_c, 9, 45, 0
5, 23288, Note_on_c, 9, 45, 40
5, 23320, Note_on_c, 9, 45, 0
5, 23330, Note_on_c, 9, 51, 0
5, 23406, Note_on_c, 9, 51, 59
5, 23416, Note_on_c, 9, 44, 59
5, 23416, Note_on_c, 9, 45, 38
5, 23460, Note_on_c, 9, 45, 0
5, 23552, Note_on_c, 9, 36, 44
5, 23600, Note_on_c, 9, 44, 0
5, 23668, Note_on_c, 9, 36, 0
5, 23726, Note_on_c, 9, 51, 0
5, 23810, Note_on_c, 9, 51, 54
5, 23812, Note_on_c, 9, 36, 49
5, 23888, Note_on_c, 9, 36, 0
5, 24046, Note_on_c, 9, 51, 0
5, 24048, Note_on_c, 9, 46, 53
5, 24064, Note_on_c, 9, 36, 50
5, 24092, Note_on_c, 9, 46, 0
5, 24148, Note_on_c, 9, 36, 0
5, 24184, Note_on_c, 9, 44, 53
5, 24190, Note_on_c, 9, 51, 56
5, 24352, Note_on_c, 9, 44, 0
5, 24352, Note_on_c, 9, 45, 47
5, 24376, Note_on_c, 9, 45, 0
5, 24422, Note_on_c, 9, 51, 0
5, 24432, Note_on_c, 9, 46, 56
5, 24480, Note_on_c, 9, 46, 0
5, 24582, Note_on_c, 9, 51, 51
5, 24832, Note_on_c, 9, 36, 43
5, 24866, Note_on_c, 9, 51, 0
5, 24892, Note_on_c, 9, 36, 0
5, 24952, Note_on_c, 9, 44, 62
5, 24956, Note_on_c, 9, 45, 39
5, 24962, Note_on_c, 9, 51, 59
5, 24980, Note_on_c, 9, 45, 0
5, 25084, Note_on_c, 9, 36, 40
5, 25136, Note_on_c, 9, 36, 0
5, 25144, Note_on_c, 9, 44, 0
5, 25200, Note_on_c, 9, 45, 49
5, 25218, Note_on_c, 9, 51, 0
5, 25248, Note_on_c, 9, 45, 0
5, 25346, Note_on_c, 9, 51, 62
5, 25488, Note_on_c, 9, 43, 64
5, 25524, Note_on_c, 9, 43, 0
5, 25616, Note_on_c, 9, 36, 41
5, 25642, Note_on_c, 9, 51, 0
5, 25672, Note_on_c, 9, 36, 0
5, 25720, Note_on_c, 9, 44, 43
5, 25730, Note_on_c, 9, 51, 59
5, 25744, Note_on_c, 9, 43, 41
5, 25772, Note_on_c, 9, 43, 0
5, 25856, Note_on_c, 9, 38, 57
5, 25856, Note_on_c, 9, 36, 40
5, 25858, Note_on_c, 9, 51, 0
5, 25872, Note_on_c, 9, 44, 0
5, 25900, Note_on_c, 9, 36, 0
5, 25968, Note_on_c, 9, 49, 67
5, 25978, Note_on_c, 9, 51, 74
5, 25996, Note_on_c, 9, 38, 0
5, 26012, Note_on_c, 9, 49, 0
5, 26070, Note_on_c, 9, 51, 0
5, 26080, Note_on_c, 9, 53, 63
5, 26108, Note_on_c, 9, 36, 37
5, 26114, Note_on_c, 9, 51, 71
5, 26128, Note_on_c, 9, 53, 0
5, 26144, Note_on_c, 9, 36, 0
5, 26434, Note_on_c, 9, 51, 0
5, 26488, Note_on_c, 9, 44, 51
5, 26494, Note_on_c, 9, 51, 46
5, 26680, Note_on_c, 9, 44, 0
5, 26772, Note_on_c, 9, 36, 28
5, 26808, Note_on_c, 9, 36, 0
5, 26822, Note_on_c, 9, 51, 0
5, 26894, Note_on_c, 9, 51, 44
5, 26920, Note_on_c, 9, 36, 15
5, 26952, Note_on_c, 9, 36, 0
5, 27218, Note_on_c, 9, 51, 0
5, 27256, Note_on_c, 9, 44, 48
5, 27290, Note_on_c, 9, 51, 48
5, 27456, Note_on_c, 9, 44, 0
5, 27542, Note_on_c, 9, 51, 0
5, 27548, Note_on_c, 9, 38, 57
5, 27548, Note_on_c, 9, 36, 43
5, 27576, Note_on_c, 9, 36, 0
5, 27672, Note_on_c, 9, 38, 0
5, 27674, Note_on_c, 9, 51, 51
5, 27994, Note_on_c, 9, 51, 0
5, 28024, Note_on_c, 9, 44, 59
5, 28042, Note_on_c, 9, 51, 51
5, 28232, Note_on_c, 9, 44, 0
5, 28350, Note_on_c, 9, 51, 0
5, 28430, Note_on_c, 9, 51, 52
5, 28618, Note_on_c, 9, 51, 0
5, 28668, Note_on_c, 9, 38, 71
5, 28736, Note_on_c, 9, 38, 0
5, 28792, Note_on_c, 9, 44, 47
5, 28798, Note_on_c, 9, 51, 54
5, 28976, Note_on_c, 9, 44, 0
5, 29048, Note_on_c, 9, 36, 34
5, 29112, Note_on_c, 9, 36, 0
5, 29122, Note_on_c, 9, 51, 0
5, 29172, Note_on_c, 9, 36, 32
5, 29182, Note_on_c, 9, 51, 48
5, 29228, Note_on_c, 9, 36, 0
5, 29498, Note_on_c, 9, 51, 0
5, 29560, Note_on_c, 9, 44, 52
5, 29566, Note_on_c, 9, 51, 51
5, 29680, Note_on_c, 9, 44, 0
5, 29808, Note_on_c, 9, 36, 27
5, 29812, Note_on_c, 9, 38, 57
5, 29830, Note_on_c, 9, 51, 0
5, 29840, Note_on_c, 9, 36, 0
5, 29904, Note_on_c, 9, 38, 0
5, 29926, Note_on_c, 9, 51, 41
5, 29928, Note_on_c, 9, 46, 38
5, 30088, Note_on_c, 9, 46, 0
5, 30192, Note_on_c, 9, 36, 27
5, 30220, Note_on_c, 9, 36, 0
5, 30254, Note_on_c, 9, 51, 0
5, 30300, Note_on_c, 9, 46, 39
5, 30322, Note_on_c, 9, 51, 48
5, 30328, Note_on_c, 9, 44, 51
5, 30432, Note_on_c, 9, 44, 0
5, 30438, Note_on_c, 9, 53, 46
5, 30456, Note_on_c, 9, 46, 0
5, 30470, Note_on_c, 9, 53, 0
5, 30482, Note_on_c, 9, 51, 0
5, 30538, Note_on_c, 9, 53, 58
5, 30544, Note_on_c, 9, 36, 34
5, 30596, Note_on_c, 9, 36, 0
5, 30598, Note_on_c, 9, 53, 0
5, 30678, Note_on_c, 9, 51, 58
5, 31014, Note_on_c, 9, 51, 0
5, 31082, Note_on_c, 9, 51, 52
5, 31096, Note_on_c, 9, 44, 50
5, 31200, Note_on_c, 9, 44, 0
5, 31356, Note_on_c, 9, 36, 34
5, 31388, Note_on_c, 9, 36, 0
5, 31402, Note_on_c, 9, 51, 0
5, 31474, Note_on_c, 9, 51, 47
5, 31480, Note_on_c, 9, 46, 49
5, 31516, Note_on_c, 9, 46, 0
5, 31600, Note_on_c, 9, 46, 46
5, 31636, Note_on_c, 9, 46, 0
5, 31724, Note_on_c, 9, 36, 39
5, 31774, Note_on_c, 9, 51, 0
5, 31776, Note_on_c, 9, 36, 0
5, 31864, Note_on_c, 9, 44, 47
5, 31866, Note_on_c, 9, 51, 47
5, 32008, Note_on_c, 9, 44, 0
5, 32042, Note_on_c, 9, 51, 0
5, 32112, Note_on_c, 9, 36, 47
5, 32118, Note_on_c, 9, 51, 60
5, 32164, Note_on_c, 9, 36, 0
5, 32170, Note_on_c, 9, 51, 0
5, 32238, Note_on_c, 9, 51, 38
5, 32244, Note_on_c, 9, 36, 34
5, 32292, Note_on_c, 9, 36, 0
5, 32538, Note_on_c, 9, 51, 0
5, 32622, Note_on_c, 9, 51, 66
5, 32632, Note_on_c, 9, 44, 57
5, 32768, Note_on_c, 9, 44, 0
5, 32884, Note_on_c, 9, 36, 35
5, 32920, Note_on_c, 9, 36, 0
5, 32938, Note_on_c, 9, 51, 0
5, 33018, Note_on_c, 9, 51, 47
5, 33132, Note_on_c, 9, 50, 66
5, 33174, Note_on_c, 9, 51, 0
5, 33240, Note_on_c, 9, 50, 0
5, 33286, Note_on_c, 9, 51, 56
5, 33392, Note_on_c, 9, 48, 62
5, 33400, Note_on_c, 9, 44, 63
5, 33438, Note_on_c, 9, 51, 0
5, 33492, Note_on_c, 9, 48, 0
5, 33546, Note_on_c, 9, 51, 61
5, 33568, Note_on_c, 9, 44, 0
5, 33626, Note_on_c, 9, 51, 0
5, 33648, Note_on_c, 9, 47, 60
5, 33664, Note_on_c, 9, 36, 36
5, 33692, Note_on_c, 9, 36, 0
5, 33728, Note_on_c, 9, 47, 0
5, 33814, Note_on_c, 9, 51, 57
5, 33958, Note_on_c, 9, 51, 0
5, 34022, Note_on_c, 9, 51, 54
5, 34098, Note_on_c, 9, 51, 0
5, 34150, Note_on_c, 9, 51, 43
5, 34168, Note_on_c, 9, 44, 53
5, 34320, Note_on_c, 9, 44, 0
5, 34322, Note_on_c, 9, 51, 0
5, 34394, Note_on_c, 9, 51, 57
5, 34758, Note_on_c, 9, 51, 0
5, 34808, Note_on_c, 9, 38, 30
5, 34888, Note_on_c, 9, 38, 0
5, 34926, Note_on_c, 9, 51, 53
5, 34936, Note_on_c, 9, 44, 60
5, 35072, Note_on_c, 9, 44, 0
5, 35076, Note_on_c, 9, 36, 35
5, 35104, Note_on_c, 9, 36, 0
5, 35208, Note_on_c, 9, 36, 53
5, 35266, Note_on_c, 9, 51, 0
5, 35280, Note_on_c, 9, 36, 0
5, 35334, Note_on_c, 9, 51, 53
5, 35634, Note_on_c, 9, 51, 0
5, 35704, Note_on_c, 9, 44, 56
5, 35714, Note_on_c, 9, 51, 58
5, 35832, Note_on_c, 9, 44, 0
5, 35954, Note_on_c, 9, 51, 0
5, 35956, Note_on_c, 9, 38, 53
5, 36064, Note_on_c, 9, 38, 0
5, 36094, Note_on_c, 9, 51, 37
5, 36130, Note_on_c, 9, 51, 0
5, 36226, Note_on_c, 9, 51, 58
5, 36306, Note_on_c, 9, 51, 0
5, 36332, Note_on_c, 9, 36, 25
5, 36354, Note_on_c, 9, 51, 62
5, 36360, Note_on_c, 9, 36, 0
5, 36472, Note_on_c, 9, 44, 60
5, 36568, Note_on_c, 9, 44, 0
5, 36662, Note_on_c, 9, 51, 0
5, 36676, Note_on_c, 9, 38, 60
5, 36720, Note_on_c, 9, 36, 23
5, 36748, Note_on_c, 9, 36, 0
5, 36756, Note_on_c, 9, 38, 0
5, 36778, Note_on_c, 9, 51, 58
5, 36842, Note_on_c, 9, 51, 0
5, 36844, Note_on_c, 9, 45, 49
5, 36868, Note_on_c, 9, 45, 0
5, 36894, Note_on_c, 9, 51, 49
5, 36972, Note_on_c, 9, 36, 33
5, 36990, Note_on_c, 9, 51, 0
5, 36996, Note_on_c, 9, 36, 0
5, 37088, Note_on_c, 9, 45, 53
5, 37134, Note_on_c, 9, 51, 70
5, 37144, Note_on_c, 9, 45, 0
5, 37218, Note_on_c, 9, 51, 0
5, 37240, Note_on_c, 9, 44, 62
5, 37244, Note_on_c, 9, 36, 30
5, 37272, Note_on_c, 9, 36, 0
5, 37278, Note_on_c, 9, 51, 57
5, 37352, Note_on_c, 9, 44, 0
5, 37360, Note_on_c, 9, 36, 54
5, 37476, Note_on_c, 9, 36, 0
5, 37520, Note_on_c, 9, 38, 44
5, 37550, Note_on_c, 9, 51, 0
5, 37608, Note_on_c, 9, 38, 0
5, 37650, Note_on_c, 9, 51, 54
5, 37796, Note_on_c, 9, 36, 38
5, 37820, Note_on_c, 9, 36, 0
5, 37908, Note_on_c, 9, 36, 54
5, 37964, Note_on_c, 9, 36, 0
5, 37974, Note_on_c, 9, 51, 0
5, 38008, Note_on_c, 9, 46, 53
5, 38022, Note_on_c, 9, 51, 51
5, 38096, Note_on_c, 9, 46, 0
5, 38180, Note_on_c, 9, 36, 49
5, 38216, Note_on_c, 9, 36, 0
5, 38276, Note_on_c, 9, 38, 59
5, 38280, Note_on_c, 9, 36, 53
5, 38286, Note_on_c, 9, 51, 0
5, 38336, Note_on_c, 9, 36, 0
5, 38356, Note_on_c, 9, 38, 0
5, 38394, Note_on_c, 9, 51, 45
5, 38750, Note_on_c, 9, 51, 0
5, 38776, Note_on_c, 9, 44, 55
5, 38802, Note_on_c, 9, 51, 58
5, 38904, Note_on_c, 9, 44, 0
5, 39024, Note_on_c, 9, 36, 42
5, 39042, Note_on_c, 9, 53, 59
5, 39050, Note_on_c, 9, 51, 0
5, 39088, Note_on_c, 9, 36, 0
5, 39142, Note_on_c, 9, 53, 0
5, 39160, Note_on_c, 9, 36, 26
5, 39174, Note_on_c, 9, 51, 49
5, 39248, Note_on_c, 9, 36, 0
5, 39506, Note_on_c, 9, 51, 0
5, 39544, Note_on_c, 9, 44, 50
5, 39562, Note_on_c, 9, 51, 48
5, 39688, Note_on_c, 9, 44, 0
5, 39798, Note_on_c, 9, 51, 0
5, 39812, Note_on_c, 9, 38, 59
5, 39924, Note_on_c, 9, 38, 0
5, 39942, Note_on_c, 9, 51, 50
5, 40254, Note_on_c, 9, 51, 0
5, 40312, Note_on_c, 9, 44, 55
5, 40322, Note_on_c, 9, 51, 50
5, 40408, Note_on_c, 9, 44, 0
5, 40584, Note_on_c, 9, 36, 28
5, 40612, Note_on_c, 9, 36, 0
5, 40638, Note_on_c, 9, 51, 0
5, 40706, Note_on_c, 9, 51, 51
5, 40980, Note_on_c, 9, 36, 29
5, 41008, Note_on_c, 9, 36, 0
5, 41014, Note_on_c, 9, 51, 0
5, 41080, Note_on_c, 9, 44, 55
5, 41082, Note_on_c, 9, 51, 51
5, 41118, Note_on_c, 9, 51, 55
5, 41154, Note_on_c, 9, 51, 0
5, 41200, Note_on_c, 9, 44, 0
5, 41236, Note_on_c, 9, 38, 37
5, 41264, Note_on_c, 9, 38, 0
5, 41344, Note_on_c, 9, 38, 53
5, 41356, Note_on_c, 9, 36, 54
5, 41370, Note_on_c, 9, 51, 0
5, 41440, Note_on_c, 9, 38, 0
5, 41462, Note_on_c, 9, 51, 58
5, 41480, Note_on_c, 9, 36, 0
5, 41790, Note_on_c, 9, 51, 0
5, 41848, Note_on_c, 9, 44, 51
5, 41866, Note_on_c, 9, 51, 50
5, 41984, Note_on_c, 9, 44, 0
5, 42112, Note_on_c, 9, 36, 44
5, 42156, Note_on_c, 9, 36, 0
5, 42190, Note_on_c, 9, 51, 0
5, 42228, Note_on_c, 9, 36, 32
5, 42258, Note_on_c, 9, 51, 54
5, 42280, Note_on_c, 9, 36, 0
5, 42598, Note_on_c, 9, 51, 0
5, 42616, Note_on_c, 9, 44, 50
5, 42654, Note_on_c, 9, 51, 50
5, 42760, Note_on_c, 9, 44, 0
5, 42862, Note_on_c, 9, 51, 0
5, 42888, Note_on_c, 9, 38, 57
5, 42916, Note_on_c, 9, 36, 15
5, 42936, Note_on_c, 9, 36, 0
5, 43004, Note_on_c, 9, 38, 0
5, 43030, Note_on_c, 9, 51, 49
5, 43046, Note_on_c, 9, 51, 68
5, 43074, Note_on_c, 9, 51, 0
5, 43158, Note_on_c, 9, 51, 72
5, 43226, Note_on_c, 9, 51, 0
5, 43268, Note_on_c, 9, 38, 73
5, 43312, Note_on_c, 9, 38, 0
5, 43350, Note_on_c, 9, 51, 0
5, 43384, Note_on_c, 9, 44, 50
5, 43414, Note_on_c, 9, 51, 47
5, 43534, Note_on_c, 9, 51, 75
5, 43536, Note_on_c, 9, 44, 0
5, 43582, Note_on_c, 9, 51, 0
5, 43650, Note_on_c, 9, 51, 69
5, 43656, Note_on_c, 9, 38, 58
5, 43666, Note_on_c, 9, 51, 0
5, 43710, Note_on_c, 9, 51, 0
5, 43764, Note_on_c, 9, 38, 0
5, 43772, Note_on_c, 9, 38, 64
5, 43786, Note_on_c, 9, 51, 47
5, 43796, Note_on_c, 9, 38, 0
5, 43900, Note_on_c, 9, 36, 45
5, 43944, Note_on_c, 9, 36, 0
5, 44030, Note_on_c, 9, 51, 81
5, 44094, Note_on_c, 9, 51, 0
5, 44106, Note_on_c, 9, 51, 0
5, 44152, Note_on_c, 9, 44, 48
5, 44158, Note_on_c, 9, 51, 71
5, 44170, Note_on_c, 9, 51, 41
5, 44234, Note_on_c, 9, 51, 0
5, 44272, Note_on_c, 9, 38, 66
5, 44296, Note_on_c, 9, 44, 0
5, 44316, Note_on_c, 9, 38, 0
5, 44396, Note_on_c, 9, 36, 63
5, 44470, Note_on_c, 9, 51, 0
5, 44484, Note_on_c, 9, 36, 0
5, 44558, Note_on_c, 9, 51, 62
5, 44878, Note_on_c, 9, 51, 0
5, 44920, Note_on_c, 9, 44, 49
5, 44942, Note_on_c, 9, 51, 48
5, 45024, Note_on_c, 9, 44, 0
5, 45184, Note_on_c, 9, 53, 68
5, 45188, Note_on_c, 9, 36, 43
5, 45202, Note_on_c, 9, 51, 0
5, 45204, Note_on_c, 9, 53, 0
5, 45244, Note_on_c, 9, 36, 0
5, 45308, Note_on_c, 9, 53, 63
5, 45324, Note_on_c, 9, 36, 37
5, 45364, Note_on_c, 9, 53, 0
5, 45380, Note_on_c, 9, 36, 0
5, 45594, Note_on_c, 9, 51, 64
5, 45674, Note_on_c, 9, 51, 0
5, 45688, Note_on_c, 9, 44, 47
5, 45738, Note_on_c, 9, 51, 64
5, 45824, Note_on_c, 9, 44, 0
5, 45952, Note_on_c, 9, 36, 48
5, 45964, Note_on_c, 9, 53, 54
5, 46028, Note_on_c, 9, 36, 0
5, 46032, Note_on_c, 9, 53, 0
5, 46120, Note_on_c, 9, 53, 36
5, 46202, Note_on_c, 9, 51, 0
5, 46352, Note_on_c, 9, 53, 0
5, 46370, Note_on_c, 9, 51, 70
5, 46450, Note_on_c, 9, 51, 0
5, 46456, Note_on_c, 9, 44, 40
5, 46514, Note_on_c, 9, 51, 57
5, 46520, Note_on_c, 9, 44, 0
5, 46724, Note_on_c, 9, 53, 68
5, 46740, Note_on_c, 9, 36, 42
5, 46764, Note_on_c, 9, 53, 0
5, 46796, Note_on_c, 9, 36, 0
5, 46860, Note_on_c, 9, 53, 48
5, 46922, Note_on_c, 9, 51, 0
5, 47110, Note_on_c, 9, 51, 65
5, 47162, Note_on_c, 9, 51, 0
5, 47208, Note_on_c, 9, 53, 0
5, 47224, Note_on_c, 9, 44, 38
5, 47254, Note_on_c, 9, 51, 54
5, 47336, Note_on_c, 9, 44, 0
5, 47466, Note_on_c, 9, 51, 0
5, 47472, Note_on_c, 9, 36, 51
5, 47480, Note_on_c, 9, 53, 62
5, 47504, Note_on_c, 9, 53, 0
5, 47540, Note_on_c, 9, 36, 0
5, 47592, Note_on_c, 9, 36, 42
5, 47612, Note_on_c, 9, 53, 70
5, 47668, Note_on_c, 9, 36, 0
5, 47728, Note_on_c, 9, 53, 0
5, 47992, Note_on_c, 9, 44, 46
5, 48120, Note_on_c, 9, 44, 0
5, 48232, Note_on_c, 9, 36, 42
5, 48260, Note_on_c, 9, 36, 0
5, 48608, Note_on_c, 9, 53, 66
5, 48636, Note_on_c, 9, 53, 0
5, 48744, Note_on_c, 9, 53, 57
5, 48760, Note_on_c, 9, 44, 45
5, 48880, Note_on_c, 9, 44, 0
5, 48940, Note_on_c, 9, 53, 0
5, 49004, Note_on_c, 9, 53, 82
5, 49008, Note_on_c, 9, 36, 46
5, 49064, Note_on_c, 9, 36, 0
5, 49064, Note_on_c, 9, 53, 0
5, 49528, Note_on_c, 9, 44, 49
5, 49664, Note_on_c, 9, 44, 0
5, 49792, Note_on_c, 9, 36, 35
5, 49812, Note_on_c, 9, 53, 77
5, 49820, Note_on_c, 9, 36, 0
5, 49848, Note_on_c, 9, 53, 0
5, 49944, Note_on_c, 9, 53, 63
5, 50140, Note_on_c, 9, 53, 0
5, 50192, Note_on_c, 9, 53, 62
5, 50240, Note_on_c, 9, 53, 0
5, 50296, Note_on_c, 9, 44, 49
5, 50432, Note_on_c, 9, 44, 0
5, 50528, Note_on_c, 9, 38, 87
5, 50664, Note_on_c, 9, 38, 0
5, 50680, Note_on_c, 9, 51, 67
5, 50688, Control_c, 9, 32, 0
5, 50688, Control_c, 9, 0, 0
5, 50688, Control_c, 9, 0, 0
5, 50688, Control_c, 9, 32, 0
5, 50688, Control_c, 9, 0, 0
5, 50688, Control_c, 9, 32, 0
5, 50688, Control_c, 9, 0, 0
5, 50688, Control_c, 9, 32, 0
5, 50688, Control_c, 9, 0, 0
5, 50688, Control_c, 9, 32, 0
5, 50688, Program_c, 9, 32
5, 50688, Control_c, 9, 0, 127
5, 50720, Note_on_c, 9, 51, 0
5, 50924, Note_on_c, 9, 36, 33
5, 50964, Note_on_c, 9, 36, 0
5, 51048, Note_on_c, 9, 36, 51
5, 51064, Note_on_c, 9, 44, 52
5, 51068, Note_on_c, 9, 51, 60
5, 51096, Note_on_c, 9, 51, 0
5, 51208, Note_on_c, 9, 44, 0
5, 51244, Note_on_c, 9, 36, 0
5, 51308, Note_on_c, 9, 36, 55
5, 51448, Note_on_c, 9, 51, 69
5, 51496, Note_on_c, 9, 51, 0
5, 51496, Note_on_c, 9, 36, 0
5, 51816, Note_on_c, 9, 51, 64
5, 51832, Note_on_c, 9, 44, 56
5, 51868, Note_on_c, 9, 51, 0
5, 51936, Note_on_c, 9, 38, 65
5, 51952, Note_on_c, 9, 44, 0
5, 51980, Note_on_c, 9, 38, 0
5, 52048, Note_on_c, 9, 38, 55
5, 52120, Note_on_c, 9, 51, 52
5, 52152, Note_on_c, 9, 38, 0
5, 52156, Note_on_c, 9, 51, 0
5, 52184, Note_on_c, 9, 57, 77
5, 52184, Note_on_c, 9, 36, 49
5, 52224, Note_on_c, 9, 51, 54
5, 52432, Note_on_c, 9, 51, 0
5, 52492, Note_on_c, 9, 57, 0
5, 52600, Note_on_c, 9, 44, 48
5, 52612, Note_on_c, 9, 51, 71
5, 52668, Note_on_c, 9, 36, 0
5, 52684, Note_on_c, 9, 51, 0
5, 52752, Note_on_c, 9, 44, 0
5, 52872, Note_on_c, 9, 36, 50
5, 52916, Note_on_c, 9, 36, 0
5, 53000, Note_on_c, 9, 51, 65
5, 53072, Note_on_c, 9, 51, 0
5, 53368, Note_on_c, 9, 44, 52
5, 53368, Note_on_c, 9, 51, 72
5, 53460, Note_on_c, 9, 51, 0
5, 53520, Note_on_c, 9, 44, 0
5, 53652, Note_on_c, 9, 51, 60
5, 53692, Note_on_c, 9, 51, 0
5, 53740, Note_on_c, 9, 51, 56
5, 53748, Note_on_c, 9, 36, 33
5, 53772, Note_on_c, 9, 36, 0
5, 53956, Note_on_c, 9, 51, 0
5, 54136, Note_on_c, 9, 44, 57
5, 54140, Note_on_c, 9, 51, 75
5, 54264, Note_on_c, 9, 44, 0
5, 54296, Note_on_c, 9, 51, 0
5, 54400, Note_on_c, 9, 38, 55
5, 54436, Note_on_c, 9, 51, 50
5, 54464, Note_on_c, 9, 51, 0
5, 54476, Note_on_c, 9, 38, 0
5, 54528, Note_on_c, 9, 51, 69
5, 54528, Note_on_c, 9, 36, 30
5, 54732, Note_on_c, 9, 36, 0
5, 54772, Note_on_c, 9, 51, 0
5, 54780, Note_on_c, 9, 36, 35
5, 54832, Note_on_c, 9, 36, 0
5, 54904, Note_on_c, 9, 44, 55
5, 54912, Note_on_c, 9, 51, 80
5, 55080, Note_on_c, 9, 44, 0
5, 55132, Note_on_c, 9, 51, 0
5, 55292, Note_on_c, 9, 51, 77
5, 55500, Note_on_c, 9, 51, 0
5, 55668, Note_on_c, 9, 51, 77
5, 55672, Note_on_c, 9, 44, 56
5, 55840, Note_on_c, 9, 44, 0
5, 55860, Note_on_c, 9, 51, 0
5, 55968, Note_on_c, 9, 51, 51
5, 55992, Note_on_c, 9, 51, 0
5, 56052, Note_on_c, 9, 51, 67
5, 56288, Note_on_c, 9, 51, 0
5, 56328, Note_on_c, 9, 36, 49
5, 56340, Note_on_c, 9, 51, 42
5, 56360, Note_on_c, 9, 51, 0
5, 56384, Note_on_c, 9, 36, 0
5, 56440, Note_on_c, 9, 46, 40
5, 56440, Note_on_c, 9, 51, 76
5, 56560, Note_on_c, 9, 46, 0
5, 56712, Note_on_c, 9, 36, 60
5, 56720, Note_on_c, 9, 51, 0
5, 56788, Note_on_c, 9, 36, 0
5, 56820, Note_on_c, 9, 51, 70
5, 57056, Note_on_c, 9, 51, 0
5, 57100, Note_on_c, 9, 51, 52
5, 57100, Note_on_c, 9, 38, 23
5, 57128, Note_on_c, 9, 38, 0
5, 57132, Note_on_c, 9, 51, 0
5, 57188, Note_on_c, 9, 51, 70
5, 57208, Note_on_c, 9, 44, 40
5, 57216, Note_on_c, 9, 36, 40
5, 57384, Note_on_c, 9, 44, 0
5, 57440, Note_on_c, 9, 36, 0
5, 57476, Note_on_c, 9, 51, 0
5, 57600, Note_on_c, 9, 51, 71
5, 57608, Note_on_c, 9, 36, 32
5, 57816, Note_on_c, 9, 36, 0
5, 57860, Note_on_c, 9, 36, 39
5, 57864, Note_on_c, 9, 51, 0
5, 57908, Note_on_c, 9, 36, 0
5, 57976, Note_on_c, 9, 44, 47
5, 57988, Note_on_c, 9, 51, 70
5, 58136, Note_on_c, 9, 44, 0
5, 58256, Note_on_c, 9, 51, 0
5, 58356, Note_on_c, 9, 51, 70
5, 58584, Note_on_c, 9, 51, 0
5, 58636, Note_on_c, 9, 51, 49
5, 58668, Note_on_c, 9, 51, 0
5, 58732, Note_on_c, 9, 51, 60
5, 58744, Note_on_c, 9, 44, 52
5, 58872, Note_on_c, 9, 44, 0
5, 59008, Note_on_c, 9, 51, 0
5, 59128, Note_on_c, 9, 51, 67
5, 59264, Note_on_c, 9, 38, 59
5, 59348, Note_on_c, 9, 38, 0
5, 59384, Note_on_c, 9, 36, 37
5, 59424, Note_on_c, 9, 51, 0
5, 59444, Note_on_c, 9, 36, 0
5, 59512, Note_on_c, 9, 44, 51
5, 59520, Note_on_c, 9, 51, 45
5, 59596, Note_on_c, 9, 51, 0
5, 59636, Note_on_c, 9, 53, 73
5, 59640, Note_on_c, 9, 44, 0
5, 59660, Note_on_c, 9, 38, 72
5, 59740, Note_on_c, 9, 38, 0
5, 59788, Note_on_c, 9, 36, 39
5, 59812, Note_on_c, 9, 36, 0
5, 59840, Note_on_c, 9, 53, 0
5, 59912, Note_on_c, 9, 51, 56
5, 59920, Note_on_c, 9, 36, 35
5, 59948, Note_on_c, 9, 36, 0
5, 60040, Note_on_c, 9, 38, 69
5, 60136, Note_on_c, 9, 38, 0
5, 60168, Note_on_c, 9, 36, 38
5, 60180, Note_on_c, 9, 51, 0
5, 60208, Note_on_c, 9, 36, 0
5, 60280, Note_on_c, 9, 44, 46
5, 60288, Note_on_c, 9, 51, 70
5, 60292, Note_on_c, 9, 36, 42
5, 60424, Note_on_c, 9, 44, 0
5, 60432, Note_on_c, 9, 36, 0
5, 60552, Note_on_c, 9, 51, 0
5, 60552, Note_on_c, 9, 36, 37
5, 60576, Note_on_c, 9, 36, 0
5, 60672, Note_on_c, 9, 51, 68
5, 60900, Note_on_c, 9, 51, 0
5, 61048, Note_on_c, 9, 44, 56
5, 61068, Note_on_c, 9, 51, 62
5, 61192, Note_on_c, 9, 44, 0
5, 61296, Note_on_c, 9, 51, 0
5, 61352, Note_on_c, 9, 51, 47
5, 61392, Note_on_c, 9, 51, 0
5, 61448, Note_on_c, 9, 51, 46
5, 61466, Note_on_c, 9, 51, 83
5, 61506, Note_on_c, 9, 51, 0
5, 61646, Note_on_c, 9, 51, 85
5, 61690, Note_on_c, 9, 51, 0
5, 61736, Note_on_c, 9, 51, 0
5, 61816, Note_on_c, 9, 44, 46
5, 61844, Note_on_c, 9, 51, 68
5, 61976, Note_on_c, 9, 44, 0
5, 62096, Note_on_c, 9, 51, 0
5, 62144, Note_on_c, 9, 51, 60
5, 62172, Note_on_c, 9, 51, 0
5, 62224, Note_on_c, 9, 51, 55
5, 62400, Note_on_c, 9, 36, 43
5, 62420, Note_on_c, 9, 36, 0
5, 62480, Note_on_c, 9, 51, 0
5, 62584, Note_on_c, 9, 44, 50
5, 62592, Note_on_c, 9, 51, 69
5, 62596, Note_on_c, 9, 36, 44
5, 62648, Note_on_c, 9, 36, 0
5, 62700, Note_on_c, 9, 36, 41
5, 62720, Note_on_c, 9, 44, 0
5, 62752, Note_on_c, 9, 51, 0
5, 62816, Note_on_c, 9, 38, 42
5, 62836, Note_on_c, 9, 36, 0
5, 62840, Note_on_c, 9, 54, 64
5, 62912, Note_on_c, 9, 54, 0
5, 62948, Note_on_c, 9, 38, 0
5, 62992, Note_on_c, 9, 51, 43
5, 62992, Note_on_c, 9, 36, 32
5, 63024, Note_on_c, 9, 36, 0
5, 63260, Note_on_c, 9, 51, 0
5, 63340, Note_on_c, 9, 51, 61
5, 63352, Note_on_c, 9, 44, 51
5, 63448, Note_on_c, 9, 44, 0
5, 63588, Note_on_c, 9, 51, 0
5, 63604, Note_on_c, 9, 36, 42
5, 63612, Note_on_c, 9, 53, 63
5, 63648, Note_on_c, 9, 36, 0
5, 63688, Note_on_c, 9, 53, 0
5, 63752, Note_on_c, 9, 51, 29
5, 64000, Note_on_c, 9, 51, 0
5, 64120, Note_on_c, 9, 51, 50
5, 64120, Note_on_c, 9, 44, 67
5, 64216, Note_on_c, 9, 44, 0
5, 64396, Note_on_c, 9, 36, 37
5, 64420, Note_on_c, 9, 36, 0
5, 64428, Note_on_c, 9, 51, 0
5, 64512, Note_on_c, 9, 51, 56
5, 64680, Note_on_c, 9, 51, 0
5, 64888, Note_on_c, 9, 51, 59
5, 64888, Note_on_c, 9, 44, 64
5, 64984, Note_on_c, 9, 44, 0
5, 65016, Note_on_c, 9, 59, 64
5, 65028, Note_on_c, 9, 51, 0
5, 65156, Note_on_c, 9, 36, 40
5, 65184, Note_on_c, 9, 36, 0
5, 65204, Note_on_c, 9, 59, 0
5, 65292, Note_on_c, 9, 59, 70
5, 65392, Note_on_c, 9, 59, 0
5, 65420, Note_on_c, 9, 51, 60
5, 65600, Note_on_c, 9, 51, 0
5, 65648, Note_on_c, 9, 51, 59
5, 65656, Note_on_c, 9, 44, 60
5, 65752, Note_on_c, 9, 51, 0
5, 65756, Note_on_c, 9, 59, 71
5, 65776, Note_on_c, 9, 44, 0
5, 65928, Note_on_c, 9, 36, 27
5, 65956, Note_on_c, 9, 59, 0
5, 65960, Note_on_c, 9, 36, 0
5, 66036, Note_on_c, 9, 59, 68
5, 66052, Note_on_c, 9, 36, 33
5, 66092, Note_on_c, 9, 36, 0
5, 66136, Note_on_c, 9, 59, 0
5, 66164, Note_on_c, 9, 51, 53
5, 66328, Note_on_c, 9, 51, 0
5, 66424, Note_on_c, 9, 44, 58
5, 66444, Note_on_c, 9, 51, 31
5, 66444, Note_on_c, 9, 50, 61
5, 66488, Note_on_c, 9, 50, 0
5, 66524, Note_on_c, 9, 51, 0
5, 66560, Note_on_c, 9, 44, 0
5, 66796, Note_on_c, 9, 51, 47
5, 67000, Note_on_c, 9, 51, 0
5, 67184, Note_on_c, 9, 51, 53
5, 67192, Note_on_c, 9, 44, 59
5, 67344, Note_on_c, 9, 44, 0
5, 67412, Note_on_c, 9, 51, 0
5, 67488, Note_on_c, 9, 51, 59
5, 67520, Note_on_c, 9, 51, 0
5, 67584, Note_on_c, 9, 51, 48
5, 67852, Note_on_c, 9, 36, 47
5, 67876, Note_on_c, 9, 51, 0
5, 67932, Note_on_c, 9, 36, 0
5, 67960, Note_on_c, 9, 44, 61
5, 67968, Note_on_c, 9, 51, 64
5, 67988, Note_on_c, 9, 36, 26
5, 68088, Note_on_c, 9, 44, 0
5, 68196, Note_on_c, 9, 36, 0
5, 68204, Note_on_c, 9, 51, 0
5, 68240, Note_on_c, 9, 36, 41
5, 68248, Note_on_c, 9, 51, 46
5, 68272, Note_on_c, 9, 51, 0
5, 68284, Note_on_c, 9, 36, 0
5, 68344, Note_on_c, 9, 51, 72
5, 68656, Note_on_c, 9, 51, 0
5, 68728, Note_on_c, 9, 44, 63
5, 68732, Note_on_c, 9, 51, 76
5, 68872, Note_on_c, 9, 44, 0
5, 68976, Note_on_c, 9, 51, 0
5, 69000, Note_on_c, 9, 36, 45
5, 69016, Note_on_c, 9, 51, 48
5, 69052, Note_on_c, 9, 51, 0
5, 69060, Note_on_c, 9, 36, 0
5, 69112, Note_on_c, 9, 51, 56
5, 69392, Note_on_c, 9, 51, 0
5, 69480, Note_on_c, 9, 51, 76
5, 69496, Note_on_c, 9, 44, 64
5, 69640, Note_on_c, 9, 44, 0
5, 69716, Note_on_c, 9, 51, 0
5, 69776, Note_on_c, 9, 51, 34
5, 69800, Note_on_c, 9, 51, 0
5, 69804, Note_on_c, 9, 36, 32
5, 69832, Note_on_c, 9, 36, 0
5, 69864, Note_on_c, 9, 51, 60
5, 69916, Note_on_c, 9, 36, 42
5, 70008, Note_on_c, 9, 36, 0
5, 70180, Note_on_c, 9, 51, 0
5, 70252, Note_on_c, 9, 51, 67
5, 70264, Note_on_c, 9, 44, 67
5, 70360, Note_on_c, 9, 44, 0
5, 70568, Note_on_c, 9, 51, 0
5, 70636, Note_on_c, 9, 51, 60
5, 70868, Note_on_c, 9, 36, 51
5, 70900, Note_on_c, 9, 36, 0
5, 70932, Note_on_c, 9, 51, 0
5, 71008, Note_on_c, 9, 51, 73
5, 71032, Note_on_c, 9, 44, 63
5, 71152, Note_on_c, 9, 44, 0
5, 71232, Note_on_c, 9, 51, 0
5, 71296, Note_on_c, 9, 51, 38
5, 71328, Note_on_c, 9, 51, 0
5, 71392, Note_on_c, 9, 51, 49
5, 71688, Note_on_c, 9, 51, 0
5, 71772, Note_on_c, 9, 51, 67
5, 71800, Note_on_c, 9, 44, 58
5, 71928, Note_on_c, 9, 38, 25
5, 71936, Note_on_c, 9, 44, 0
5, 71968, Note_on_c, 9, 38, 0
5, 72056, Note_on_c, 9, 51, 0
5, 72172, Note_on_c, 9, 51, 63
5, 72312, Note_on_c, 9, 38, 43
5, 72396, Note_on_c, 9, 38, 0
5, 72424, Note_on_c, 9, 51, 0
5, 72444, Note_on_c, 9, 36, 25
5, 72484, Note_on_c, 9, 36, 0
5, 72564, Note_on_c, 9, 51, 62
5, 72568, Note_on_c, 9, 44, 57
5, 72576, Note_on_c, 9, 36, 29
5, 72612, Note_on_c, 9, 36, 0
5, 72696, Note_on_c, 9, 44, 0
5, 72700, Note_on_c, 9, 38, 50
5, 72792, Note_on_c, 9, 51, 0
5, 72812, Note_on_c, 9, 38, 0
5, 72940, Note_on_c, 9, 51, 60
5, 72964, Note_on_c, 9, 38, 58
5, 73116, Note_on_c, 9, 38, 0
5, 73160, Note_on_c, 9, 51, 0
5, 73228, Note_on_c, 9, 38, 69
5, 73236, Note_on_c, 9, 51, 37
5, 73256, Note_on_c, 9, 51, 0
5, 73324, Note_on_c, 9, 51, 62
5, 73328, Note_on_c, 9, 38, 0
5, 73336, Note_on_c, 9, 44, 56
5, 73464, Note_on_c, 9, 44, 0
5, 73480, Note_on_c, 9, 38, 67
5, 73600, Note_on_c, 9, 51, 0
5, 73604, Note_on_c, 9, 38, 0
5, 73716, Note_on_c, 9, 51, 74
5, 73724, Note_on_c, 9, 38, 70
5, 73808, Note_on_c, 9, 38, 0
5, 73868, Note_on_c, 9, 51, 0
5, 73980, Note_on_c, 9, 51, 87
5, 73980, Note_on_c, 9, 38, 74
5, 74048, Note_on_c, 9, 51, 0
5, 74052, Note_on_c, 9, 38, 0
5, 74104, Note_on_c, 9, 44, 55
5, 74108, Note_on_c, 9, 51, 52
5, 74224, Note_on_c, 9, 38, 70
5, 74232, Note_on_c, 9, 44, 0
5, 74336, Note_on_c, 9, 51, 0
5, 74348, Note_on_c, 9, 38, 0
5, 74492, Note_on_c, 9, 38, 76
5, 74500, Note_on_c, 9, 51, 73
5, 74556, Note_on_c, 9, 38, 0
5, 74680, Note_on_c, 9, 51, 0
5, 74756, Note_on_c, 9, 51, 86
5, 74760, Note_on_c, 9, 38, 85
5, 74816, Note_on_c, 9, 51, 0
5, 74836, Note_on_c, 9, 38, 0
5, 74872, Note_on_c, 9, 44, 54
5, 74892, Note_on_c, 9, 51, 36
5, 74992, Note_on_c, 9, 44, 0
5, 75016, Note_on_c, 9, 38, 88
5, 75068, Note_on_c, 9, 38, 0
5, 75084, Note_on_c, 9, 51, 0
5, 75140, Note_on_c, 9, 38, 86
5, 75144, Note_on_c, 9, 51, 47
5, 75184, Note_on_c, 9, 51, 0
5, 75264, Note_on_c, 9, 51, 67
5, 75264, Note_on_c, 9, 36, 64
5, 75268, Note_on_c, 9, 38, 0
5, 75268, Note_on_c, 9, 57, 90
5, 75468, Note_on_c, 9, 51, 0
5, 75500, Note_on_c, 9, 59, 65
5, 75572, Note_on_c, 9, 59, 0
5, 75600, Note_on_c, 9, 51, 34
5, 75640, Note_on_c, 9, 44, 52
5, 75744, Note_on_c, 9, 44, 0
5, 75932, Note_on_c, 9, 51, 0
5, 76024, Note_on_c, 9, 51, 58
5, 76272, Note_on_c, 9, 36, 0
5, 76284, Note_on_c, 9, 57, 0
5, 76288, Note_on_c, 9, 38, 81
5, 76300, Note_on_c, 9, 51, 0
5, 76408, Note_on_c, 9, 44, 42
5, 76416, Note_on_c, 9, 51, 56
5, 76424, Note_on_c, 9, 57, 70
5, 76424, Note_on_c, 9, 36, 62
5, 76444, Note_on_c, 9, 38, 0
5, 76512, Note_on_c, 9, 44, 0
5, 76688, Note_on_c, 9, 51, 0
5, 76724, Note_on_c, 9, 57, 0
5, 76800, Note_on_c, 9, 51, 57
5, 77084, Note_on_c, 9, 51, 0
5, 77176, Note_on_c, 9, 44, 40
5, 77180, Note_on_c, 9, 51, 53
5, 77272, Note_on_c, 9, 44, 0
5, 77324, Note_on_c, 9, 36, 0
5, 77368, Note_on_c, 9, 51, 0
5, 77468, Note_on_c, 9, 51, 51
5, 77512, Note_on_c, 9, 51, 0
5, 77560, Note_on_c, 9, 51, 50
5, 77860, Note_on_c, 9, 51, 0
5, 77944, Note_on_c, 9, 44, 63
5, 77948, Note_on_c, 9, 51, 61
5, 78040, Note_on_c, 9, 44, 0
5, 78164, Note_on_c, 9, 51, 0
5, 78212, Note_on_c, 9, 36, 40
5, 78264, Note_on_c, 9, 36, 0
5, 78328, Note_on_c, 9, 51, 43
5, 78624, Note_on_c, 9, 51, 0
5, 78712, Note_on_c, 9, 44, 61
5, 78716, Note_on_c, 9, 51, 65
5, 78840, Note_on_c, 9, 44, 0
5, 78948, Note_on_c, 9, 51, 0
5, 78984, Note_on_c, 9, 36, 35
5, 79016, Note_on_c, 9, 51, 36
5, 79020, Note_on_c, 9, 36, 0
5, 79040, Note_on_c, 9, 51, 0
5, 79104, Note_on_c, 9, 51, 51
5, 79388, Note_on_c, 9, 51, 0
5, 79480, Note_on_c, 9, 44, 59
5, 79480, Note_on_c, 9, 51, 67
5, 79600, Note_on_c, 9, 44, 0
5, 79740, Note_on_c, 9, 51, 0
5, 79836, Note_on_c, 9, 51, 62
5, 80160, Note_on_c, 9, 51, 0
5, 80224, Note_on_c, 9, 51, 58
5, 80248, Note_on_c, 9, 44, 60
5, 80392, Note_on_c, 9, 44, 0
5, 80512, Note_on_c, 9, 36, 44
5, 80564, Note_on_c, 9, 51, 0
5, 80588, Note_on_c, 9, 36, 0
5, 80628, Note_on_c, 9, 51, 55
5, 80652, Note_on_c, 9, 36, 26
5, 80824, Note_on_c, 9, 36, 0
5, 80864, Note_on_c, 9, 51, 0
5, 80884, Note_on_c, 9, 36, 28
5, 80916, Note_on_c, 9, 51, 45
5, 80944, Note_on_c, 9, 36, 0
5, 80956, Note_on_c, 9, 51, 0
5, 81012, Note_on_c, 9, 51, 61
5, 81016, Note_on_c, 9, 44, 67
5, 81184, Note_on_c, 9, 44, 0
5, 81296, Note_on_c, 9, 38, 33
5, 81332, Note_on_c, 9, 51, 0
5, 81348, Note_on_c, 9, 38, 0
5, 81404, Note_on_c, 9, 51, 60
5, 81648, Note_on_c, 9, 51, 0
5, 81692, Note_on_c, 9, 36, 16
5, 81716, Note_on_c, 9, 36, 0
5, 81728, Note_on_c, 9, 51, 9
5, 81752, Note_on_c, 9, 51, 0
5, 81784, Note_on_c, 9, 51, 74
5, 81784, Note_on_c, 9, 44, 67
5, 81816, Note_on_c, 9, 46, 30
5, 81844, Note_on_c, 9, 46, 0
5, 81960, Note_on_c, 9, 44, 0
5, 82100, Note_on_c, 9, 51, 0
5, 82180, Note_on_c, 9, 51, 64
5, 82432, Note_on_c, 9, 51, 0
5, 82472, Note_on_c, 9, 51, 38
5, 82492, Note_on_c, 9, 51, 0
5, 82552, Note_on_c, 9, 44, 63
5, 82552, Note_on_c, 9, 51, 52
5, 82560, Note_on_c, 9, 46, 64
5, 82588, Note_on_c, 9, 46, 0
5, 82676, Note_on_c, 9, 46, 74
5, 82720, Note_on_c, 9, 46, 0
5, 82752, Note_on_c, 9, 44, 0
5, 82840, Note_on_c, 9, 51, 0
5, 82932, Note_on_c, 9, 51, 60
5, 83180, Note_on_c, 9, 36, 46
5, 83192, Note_on_c, 9, 51, 0
5, 83240, Note_on_c, 9, 36, 0
5, 83304, Note_on_c, 9, 36, 30
5, 83316, Note_on_c, 9, 51, 60
5, 83320, Note_on_c, 9, 44, 61
5, 83396, Note_on_c, 9, 36, 0
5, 83512, Note_on_c, 9, 44, 0
5, 83584, Note_on_c, 9, 36, 44
5, 83596, Note_on_c, 9, 51, 0
5, 83628, Note_on_c, 9, 51, 34
5, 83632, Note_on_c, 9, 36, 0
5, 83660, Note_on_c, 9, 51, 0
5, 83732, Note_on_c, 9, 51, 55
5, 84020, Note_on_c, 9, 51, 0
5, 84088, Note_on_c, 9, 44, 63
5, 84100, Note_on_c, 9, 51, 59
5, 84256, Note_on_c, 9, 44, 0
5, 84352, Note_on_c, 9, 51, 0
5, 84396, Note_on_c, 9, 51, 40
5, 84416, Note_on_c, 9, 51, 0
5, 84480, Note_on_c, 9, 51, 46
5, 84772, Note_on_c, 9, 51, 0
5, 84856, Note_on_c, 9, 44, 53
5, 84856, Note_on_c, 9, 51, 68
5, 84872, Note_on_c, 9, 36, 35
5, 85024, Note_on_c, 9, 44, 0
5, 85052, Note_on_c, 9, 36, 0
5, 85104, Note_on_c, 9, 51, 0
5, 85168, Note_on_c, 9, 51, 12
5, 85196, Note_on_c, 9, 51, 0
5, 85236, Note_on_c, 9, 51, 55
5, 85260, Note_on_c, 9, 36, 35
5, 85448, Note_on_c, 9, 36, 0
5, 85512, Note_on_c, 9, 36, 30
5, 85552, Note_on_c, 9, 36, 0
5, 85552, Note_on_c, 9, 51, 0
5, 85624, Note_on_c, 9, 44, 65
5, 85632, Note_on_c, 9, 51, 69
5, 85792, Note_on_c, 9, 44, 0
5, 85868, Note_on_c, 9, 51, 0
5, 85920, Note_on_c, 9, 51, 36
5, 85956, Note_on_c, 9, 51, 0
5, 86012, Note_on_c, 9, 51, 56
5, 86316, Note_on_c, 9, 51, 0
5, 86392, Note_on_c, 9, 44, 62
5, 86392, Note_on_c, 9, 51, 74
5, 86552, Note_on_c, 9, 44, 0
5, 86616, Note_on_c, 9, 51, 0
5, 86660, Note_on_c, 9, 53, 77
5, 86676, Note_on_c, 9, 36, 45
5, 86712, Note_on_c, 9, 36, 0
5, 86744, Note_on_c, 9, 53, 0
5, 86804, Note_on_c, 9, 51, 15
5, 86964, Note_on_c, 9, 51, 0
5, 87024, Note_on_c, 9, 53, 79
5, 87120, Note_on_c, 9, 53, 0
5, 87160, Note_on_c, 9, 51, 23
5, 87160, Note_on_c, 9, 46, 56
5, 87224, Note_on_c, 9, 46, 0
5, 87396, Note_on_c, 9, 51, 0
5, 87432, Note_on_c, 9, 51, 56
5, 87444, Note_on_c, 9, 36, 43
5, 87472, Note_on_c, 9, 36, 0
5, 87476, Note_on_c, 9, 51, 0
5, 87552, Note_on_c, 9, 51, 47
5, 87856, Note_on_c, 9, 51, 0
5, 87928, Note_on_c, 9, 51, 70
5, 87928, Note_on_c, 9, 44, 62
5, 88056, Note_on_c, 9, 44, 0
5, 88188, Note_on_c, 9, 51, 0
5, 88196, Note_on_c, 9, 36, 42
5, 88228, Note_on_c, 9, 51, 50
5, 88236, Note_on_c, 9, 36, 0
5, 88252, Note_on_c, 9, 51, 0
5, 88316, Note_on_c, 9, 51, 54
5, 88600, Note_on_c, 9, 51, 0
5, 88696, Note_on_c, 9, 51, 64
5, 88696, Note_on_c, 9, 44, 67
5, 88832, Note_on_c, 9, 44, 0
5, 88936, Note_on_c, 9, 51, 0
5, 88960, Note_on_c, 9, 36, 40
5, 88980, Note_on_c, 9, 51, 46
5, 88984, Note_on_c, 9, 36, 0
5, 89000, Note_on_c, 9, 51, 0
5, 89076, Note_on_c, 9, 51, 60
5, 89100, Note_on_c, 9, 36, 30
5, 89132, Note_on_c, 9, 36, 0
5, 89376, Note_on_c, 9, 51, 0
5, 89464, Note_on_c, 9, 44, 63
5, 89464, Note_on_c, 9, 51, 69
5, 89576, Note_on_c, 9, 44, 0
5, 89704, Note_on_c, 9, 51, 0
5, 89744, Note_on_c, 9, 36, 31
5, 89748, Note_on_c, 9, 51, 49
5, 89772, Note_on_c, 9, 36, 0
5, 89784, Note_on_c, 9, 51, 0
5, 89840, Note_on_c, 9, 51, 56
5, 90140, Note_on_c, 9, 51, 0
5, 90220, Note_on_c, 9, 51, 69
5, 90232, Note_on_c, 9, 44, 65
5, 90352, Note_on_c, 9, 44, 0
5, 90524, Note_on_c, 9, 51, 0
5, 90608, Note_on_c, 9, 51, 62
5, 90616, Note_on_c, 9, 36, 35
5, 90828, Note_on_c, 9, 36, 0
5, 90868, Note_on_c, 9, 36, 24
5, 90884, Note_on_c, 9, 51, 0
5, 90896, Note_on_c, 9, 36, 0
5, 90992, Note_on_c, 9, 51, 62
5, 91000, Note_on_c, 9, 44, 68
5, 91112, Note_on_c, 9, 44, 0
5, 91228, Note_on_c, 9, 51, 0
5, 91300, Note_on_c, 9, 51, 35
5, 91344, Note_on_c, 9, 51, 0
5, 91384, Note_on_c, 9, 51, 57
5, 91644, Note_on_c, 9, 36, 38
5, 91680, Note_on_c, 9, 36, 0
5, 91688, Note_on_c, 9, 51, 0
5, 91768, Note_on_c, 9, 44, 65
5, 91776, Note_on_c, 9, 51, 62
5, 91864, Note_on_c, 9, 44, 0
5, 92024, Note_on_c, 9, 51, 0
5, 92028, Note_on_c, 9, 38, 70
5, 92064, Note_on_c, 9, 38, 0
5, 92068, Note_on_c, 9, 51, 42
5, 92100, Note_on_c, 9, 51, 0
5, 92160, Note_on_c, 9, 51, 50
5, 92452, Note_on_c, 9, 51, 0
5, 92536, Note_on_c, 9, 44, 70
5, 92556, Note_on_c, 9, 51, 67
5, 92640, Note_on_c, 9, 44, 0
5, 92788, Note_on_c, 9, 51, 0
5, 92804, Note_on_c, 9, 38, 68
5, 92844, Note_on_c, 9, 51, 36
5, 92864, Note_on_c, 9, 38, 0
5, 92892, Note_on_c, 9, 51, 0
5, 92932, Note_on_c, 9, 51, 62
5, 92952, Note_on_c, 9, 36, 23
5, 92988, Note_on_c, 9, 36, 0
5, 93180, Note_on_c, 9, 51, 0
5, 93188, Note_on_c, 9, 36, 43
5, 93224, Note_on_c, 9, 51, 44
5, 93240, Note_on_c, 9, 36, 0
5, 93264, Note_on_c, 9, 51, 0
5, 93304, Note_on_c, 9, 44, 67
5, 93308, Note_on_c, 9, 51, 63
5, 93400, Note_on_c, 9, 44, 0
5, 93572, Note_on_c, 9, 38, 80
5, 93608, Note_on_c, 9, 51, 0
5, 93636, Note_on_c, 9, 38, 0
5, 93676, Note_on_c, 9, 51, 64
5, 93708, Note_on_c, 9, 36, 26
5, 93760, Note_on_c, 9, 36, 0
5, 93912, Note_on_c, 9, 51, 0
5, 93944, Note_on_c, 9, 36, 33
5, 93956, Note_on_c, 9, 51, 35
5, 93972, Note_on_c, 9, 36, 0
5, 94000, Note_on_c, 9, 51, 0
5, 94048, Note_on_c, 9, 51, 61
5, 94072, Note_on_c, 9, 44, 69
5, 94168, Note_on_c, 9, 44, 0
5, 94360, Note_on_c, 9, 51, 0
5, 94444, Note_on_c, 9, 51, 68
5, 94592, Note_on_c, 9, 38, 35
5, 94628, Note_on_c, 9, 38, 0
5, 94716, Note_on_c, 9, 38, 42
5, 94752, Note_on_c, 9, 38, 0
5, 94752, Note_on_c, 9, 51, 0
5, 94832, Note_on_c, 9, 51, 67
5, 94840, Note_on_c, 9, 44, 64
5, 94844, Note_on_c, 9, 38, 48
5, 94900, Note_on_c, 9, 38, 0
5, 94952, Note_on_c, 9, 44, 0
5, 94972, Note_on_c, 9, 36, 47
5, 95072, Note_on_c, 9, 36, 0
5, 95080, Note_on_c, 9, 51, 0
5, 95128, Note_on_c, 9, 51, 39
5, 95156, Note_on_c, 9, 51, 0
5, 95212, Note_on_c, 9, 51, 49
5, 95508, Note_on_c, 9, 51, 0
5, 95592, Note_on_c, 9, 51, 62
5, 95608, Note_on_c, 9, 44, 69
5, 95712, Note_on_c, 9, 44, 0
5, 95852, Note_on_c, 9, 37, 60
5, 95872, Note_on_c, 9, 51, 0
5, 95876, Note_on_c, 9, 37, 0
5, 95980, Note_on_c, 9, 51, 62
5, 95996, Note_on_c, 9, 37, 73
5, 96048, Note_on_c, 9, 37, 0
5, 96208, Note_on_c, 9, 51, 0
5, 96224, Note_on_c, 9, 36, 54
5, 96260, Note_on_c, 9, 51, 39
5, 96272, Note_on_c, 9, 36, 0
5, 96296, Note_on_c, 9, 51, 0
5, 96372, Note_on_c, 9, 51, 48
5, 96376, Note_on_c, 9, 44, 68
5, 96516, Note_on_c, 9, 51, 0
5, 96520, Note_on_c, 9, 44, 0
5, 96636, Note_on_c, 9, 51, 83
5, 96644, Note_on_c, 9, 37, 69
5, 96672, Note_on_c, 9, 51, 0
5, 96684, Note_on_c, 9, 37, 0
5, 96736, Note_on_c, 9, 51, 84
5, 96780, Note_on_c, 9, 37, 71
5, 96904, Note_on_c, 9, 51, 0
5, 96932, Note_on_c, 9, 37, 0
5, 97016, Note_on_c, 9, 36, 59
5, 97080, Note_on_c, 9, 36, 0
5, 97144, Note_on_c, 9, 44, 64
5, 97280, Note_on_c, 9, 44, 0
5, 97400, Note_on_c, 9, 51, 81
5, 97412, Note_on_c, 9, 37, 69
5, 97440, Note_on_c, 9, 51, 0
5, 97452, Note_on_c, 9, 37, 0
5, 97552, Note_on_c, 9, 37, 76
5, 97616, Note_on_c, 9, 37, 0
5, 97800, Note_on_c, 9, 36, 58
5, 97856, Note_on_c, 9, 36, 0
5, 97912, Note_on_c, 9, 44, 65
5, 98024, Note_on_c, 9, 44, 0
5, 98188, Note_on_c, 9, 51, 77
5, 98216, Note_on_c, 9, 37, 71
5, 98240, Note_on_c, 9, 51, 0
5, 98280, Note_on_c, 9, 37, 0
5, 98324, Note_on_c, 9, 51, 67
5, 98352, Note_on_c, 9, 37, 68
5, 98372, Note_on_c, 9, 51, 0
5, 98492, Note_on_c, 9, 37, 0
5, 98588, Note_on_c, 9, 36, 63
5, 98656, Note_on_c, 9, 36, 0
5, 98680, Note_on_c, 9, 44, 61
5, 98808, Note_on_c, 9, 44, 0
5, 98960, Note_on_c, 9, 51, 83
5, 99016, Note_on_c, 9, 51, 0
5, 99232, Note_on_c, 9, 38, 73
5, 99284, Note_on_c, 9, 38, 0
5, 99340, Note_on_c, 9, 38, 65
5, 99396, Note_on_c, 9, 38, 0
5, 99448, Note_on_c, 9, 44, 62
5, 99468, Note_on_c, 9, 38, 64
5, 99508, Note_on_c, 9, 38, 0
5, 99568, Note_on_c, 9, 44, 0
5, 99692, Note_on_c, 9, 38, 63
5, 99704, Note_on_c, 9, 51, 61
5, 99740, Note_on_c, 9, 51, 0
5, 99816, Note_on_c, 9, 38, 0
5, 99824, Note_on_c, 9, 59, 67
5, 99828, Note_on_c, 9, 36, 42
5, 100076, Note_on_c, 9, 59, 0
5, 100112, Note_on_c, 9, 36, 0
5, 100212, Note_on_c, 9, 59, 73
5, 100216, Note_on_c, 9, 44, 60
5, 100336, Note_on_c, 9, 44, 0
5, 100456, Note_on_c, 9, 59, 0
5, 100484, Note_on_c, 9, 38, 46
5, 100560, Note_on_c, 9, 38, 0
5, 100596, Note_on_c, 9, 59, 60
5, 100608, Note_on_c, 9, 36, 25
5, 100828, Note_on_c, 9, 36, 0
5, 100844, Note_on_c, 9, 59, 0
5, 100984, Note_on_c, 9, 44, 64
5, 100996, Note_on_c, 9, 59, 64
5, 101112, Note_on_c, 9, 44, 0
5, 101208, Note_on_c, 9, 59, 0
5, 101276, Note_on_c, 9, 59, 46
5, 101320, Note_on_c, 9, 59, 0
5, 101364, Note_on_c, 9, 59, 74
5, 101660, Note_on_c, 9, 59, 0
5, 101752, Note_on_c, 9, 44, 62
5, 101756, Note_on_c, 9, 59, 61
5, 101856, Note_on_c, 9, 44, 0
5, 102000, Note_on_c, 9, 59, 0
5, 102032, Note_on_c, 9, 36, 25
5, 102052, Note_on_c, 9, 59, 50
5, 102060, Note_on_c, 9, 36, 0
5, 102084, Note_on_c, 9, 59, 0
5, 102144, Note_on_c, 9, 59, 57
5, 102456, Note_on_c, 9, 59, 0
5, 102520, Note_on_c, 9, 44, 58
5, 102528, Note_on_c, 9, 59, 65
5, 102548, Note_on_c, 9, 37, 83
5, 102632, Note_on_c, 9, 44, 0
5, 102696, Note_on_c, 9, 37, 0
5, 102764, Note_on_c, 9, 59, 0
5, 102812, Note_on_c, 9, 59, 54
5, 102840, Note_on_c, 9, 59, 0
5, 102896, Note_on_c, 9, 59, 58
5, 103152, Note_on_c, 9, 59, 0
5, 103280, Note_on_c, 9, 59, 58
5, 103288, Note_on_c, 9, 44, 57
5, 103392, Note_on_c, 9, 44, 0
5, 103540, Note_on_c, 9, 59, 0
5, 103656, Note_on_c, 9, 59, 67
5, 103904, Note_on_c, 9, 59, 0
5, 104028, Note_on_c, 9, 59, 69
5, 104040, Note_on_c, 9, 37, 74
5, 104056, Note_on_c, 9, 44, 64
5, 104152, Note_on_c, 9, 37, 0
5, 104176, Note_on_c, 9, 44, 0
5, 104304, Note_on_c, 9, 59, 0
5, 104404, Note_on_c, 9, 59, 67
5, 104668, Note_on_c, 9, 59, 0
5, 104804, Note_on_c, 9, 59, 66
5, 104824, Note_on_c, 9, 44, 64
5, 104844, Note_on_c, 9, 45, 25
5, 104944, Note_on_c, 9, 44, 0
5, 105016, Note_on_c, 9, 59, 0
5, 105024, Note_on_c, 9, 45, 0
5, 105084, Note_on_c, 9, 45, 46
5, 105108, Note_on_c, 9, 59, 42
5, 105136, Note_on_c, 9, 59, 0
5, 105208, Note_on_c, 9, 59, 49
5, 105468, Note_on_c, 9, 59, 0
5, 105524, Note_on_c, 9, 45, 0
5, 105580, Note_on_c, 9, 59, 69
5, 105592, Note_on_c, 9, 46, 20
5, 105596, Note_on_c, 9, 37, 77
5, 105684, Note_on_c, 9, 37, 0
5, 105720, Note_on_c, 9, 46, 0
5, 105788, Note_on_c, 9, 59, 0
5, 105972, Note_on_c, 9, 59, 66
5, 106184, Note_on_c, 9, 59, 0
5, 106252, Note_on_c, 9, 37, 35
5, 106272, Note_on_c, 9, 37, 0
5, 106276, Note_on_c, 9, 59, 38
5, 106304, Note_on_c, 9, 59, 0
5, 106356, Note_on_c, 9, 45, 73
5, 106360, Note_on_c, 9, 44, 67
5, 106364, Note_on_c, 9, 59, 47
5, 106512, Note_on_c, 9, 44, 0
5, 106564, Note_on_c, 9, 45, 0
5, 106624, Note_on_c, 9, 45, 70
5, 106680, Note_on_c, 9, 59, 0
5, 106744, Note_on_c, 9, 59, 62
5, 106940, Note_on_c, 9, 59, 0
5, 107044, Note_on_c, 9, 36, 16
5, 107072, Note_on_c, 9, 36, 0
5, 107080, Note_on_c, 9, 45, 0
5, 107128, Note_on_c, 9, 44, 68
5, 107128, Note_on_c, 9, 59, 77
5, 107136, Note_on_c, 9, 37, 79
5, 107192, Note_on_c, 9, 59, 0
5, 107220, Note_on_c, 9, 59, 47
5, 107224, Note_on_c, 9, 44, 0
5, 107316, Note_on_c, 9, 59, 0
5, 107324, Note_on_c, 9, 37, 0
5, 107504, Note_on_c, 9, 59, 74
5, 107676, Note_on_c, 9, 59, 0
5, 107812, Note_on_c, 9, 37, 33
5, 107832, Note_on_c, 9, 37, 0
5, 107892, Note_on_c, 9, 59, 53
5, 107896, Note_on_c, 9, 44, 67
5, 107912, Note_on_c, 9, 37, 64
5, 107916, Note_on_c, 9, 59, 0
5, 107968, Note_on_c, 9, 59, 54
5, 107984, Note_on_c, 9, 44, 0
5, 108072, Note_on_c, 9, 37, 0
5, 108148, Note_on_c, 9, 59, 0
5, 108184, Note_on_c, 9, 37, 37
5, 108204, Note_on_c, 9, 37, 0
5, 108280, Note_on_c, 9, 59, 75
5, 108336, Note_on_c, 9, 59, 0
5, 108380, Note_on_c, 9, 59, 59
5, 108484, Note_on_c, 9, 59, 0
5, 108664, Note_on_c, 9, 44, 63
5, 108668, Note_on_c, 9, 59, 52
5, 108672, Note_on_c, 9, 37, 74
5, 108724, Note_on_c, 9, 59, 0
5, 108768, Note_on_c, 9, 37, 0
5, 108768, Note_on_c, 9, 59, 51
5, 108800, Note_on_c, 9, 44, 0
5, 108868, Note_on_c, 9, 59, 0
5, 109040, Note_on_c, 9, 59, 65
5, 109264, Note_on_c, 9, 59, 0
5, 109308, Note_on_c, 9, 37, 35
5, 109332, Note_on_c, 9, 37, 0
5, 109416, Note_on_c, 9, 59, 66
5, 109420, Note_on_c, 9, 45, 63
5, 109432, Note_on_c, 9, 44, 62
5, 109560, Note_on_c, 9, 44, 0
5, 109648, Note_on_c, 9, 45, 0
5, 109664, Note_on_c, 9, 59, 0
5, 109688, Note_on_c, 9, 45, 57
5, 109800, Note_on_c, 9, 59, 54
5, 110028, Note_on_c, 9, 59, 0
5, 110064, Note_on_c, 9, 45, 0
5, 110088, Note_on_c, 9, 36, 23
5, 110120, Note_on_c, 9, 36, 0
5, 110164, Note_on_c, 9, 59, 66
5, 110188, Note_on_c, 9, 37, 74
5, 110200, Note_on_c, 9, 44, 63
5, 110348, Note_on_c, 9, 37, 0
5, 110352, Note_on_c, 9, 44, 0
5, 110376, Note_on_c, 9, 59, 0
5, 110476, Note_on_c, 9, 59, 54
5, 110504, Note_on_c, 9, 59, 0
5, 110576, Note_on_c, 9, 59, 61
5, 110820, Note_on_c, 9, 59, 0
5, 110940, Note_on_c, 9, 45, 72
5, 110944, Note_on_c, 9, 59, 68
5, 110968, Note_on_c, 9, 44, 56
5, 111132, Note_on_c, 9, 59, 0
5, 111144, Note_on_c, 9, 44, 0
5, 111152, Note_on_c, 9, 45, 0
5, 111200, Note_on_c, 9, 45, 60
5, 111316, Note_on_c, 9, 45, 0
5, 111320, Note_on_c, 9, 59, 71
5, 111532, Note_on_c, 9, 59, 0
5, 111708, Note_on_c, 9, 59, 72
5, 111736, Note_on_c, 9, 44, 58
5, 111744, Note_on_c, 9, 37, 73
5, 111832, Note_on_c, 9, 37, 0
5, 111856, Note_on_c, 9, 44, 0
5, 111920, Note_on_c, 9, 59, 0
5, 112004, Note_on_c, 9, 59, 51
5, 112032, Note_on_c, 9, 59, 0
5, 112096, Note_on_c, 9, 59, 56
5, 112376, Note_on_c, 9, 59, 0
5, 112500, Note_on_c, 9, 59, 68
5, 112500, Note_on_c, 9, 45, 50
5, 112504, Note_on_c, 9, 44, 50
5, 112632, Note_on_c, 9, 44, 0
5, 112688, Note_on_c, 9, 45, 0
5, 112692, Note_on_c, 9, 59, 0
5, 112752, Note_on_c, 9, 45, 51
5, 112812, Note_on_c, 9, 59, 41
5, 112852, Note_on_c, 9, 59, 0
5, 112908, Note_on_c, 9, 59, 52
5, 113032, Note_on_c, 9, 45, 0
5, 113140, Note_on_c, 9, 59, 0
5, 113168, Note_on_c, 9, 53, 61
5, 113188, Note_on_c, 9, 53, 0
5, 113272, Note_on_c, 9, 44, 55
5, 113280, Note_on_c, 9, 37, 84
5, 113292, Note_on_c, 9, 59, 33
5, 113396, Note_on_c, 9, 37, 0
5, 113408, Note_on_c, 9, 44, 0
5, 113532, Note_on_c, 9, 59, 0
5, 113632, Note_on_c, 9, 59, 64
5, 113892, Note_on_c, 9, 59, 0
5, 113928, Note_on_c, 9, 37, 33
5, 113952, Note_on_c, 9, 37, 0
5, 114028, Note_on_c, 9, 59, 64
5, 114032, Note_on_c, 9, 45, 63
5, 114040, Note_on_c, 9, 44, 58
5, 114200, Note_on_c, 9, 44, 0
5, 114256, Note_on_c, 9, 45, 0
5, 114256, Note_on_c, 9, 59, 0
5, 114304, Note_on_c, 9, 45, 65
5, 114332, Note_on_c, 9, 59, 35
5, 114376, Note_on_c, 9, 59, 0
5, 114424, Note_on_c, 9, 59, 67
5, 114508, Note_on_c, 9, 45, 0
5, 114696, Note_on_c, 9, 59, 0
5, 114808, Note_on_c, 9, 46, 44
5, 114816, Note_on_c, 9, 37, 81
5, 114816, Note_on_c, 9, 59, 71
5, 114948, Note_on_c, 9, 37, 0
5, 114960, Note_on_c, 9, 46, 0
5, 115036, Note_on_c, 9, 59, 0
5, 115100, Note_on_c, 9, 59, 48
5, 115136, Note_on_c, 9, 59, 0
5, 115192, Note_on_c, 9, 59, 61
5, 115480, Note_on_c, 9, 59, 0
5, 115572, Note_on_c, 9, 45, 65
5, 115576, Note_on_c, 9, 44, 55
5, 115580, Note_on_c, 9, 59, 75
5, 115728, Note_on_c, 9, 44, 0
5, 115804, Note_on_c, 9, 45, 0
5, 115828, Note_on_c, 9, 59, 0
5, 115840, Note_on_c, 9, 45, 61
5, 115948, Note_on_c, 9, 59, 76
5, 115992, Note_on_c, 9, 45, 0
5, 116180, Note_on_c, 9, 59, 0
5, 116336, Note_on_c, 9, 59, 74
5, 116340, Note_on_c, 9, 37, 75
5, 116344, Note_on_c, 9, 44, 54
5, 116456, Note_on_c, 9, 37, 0
5, 116496, Note_on_c, 9, 44, 0
5, 116548, Note_on_c, 9, 59, 0
5, 116640, Note_on_c, 9, 59, 53
5, 116664, Note_on_c, 9, 59, 0
5, 116720, Note_on_c, 9, 59, 53
5, 116992, Note_on_c, 9, 59, 0
5, 117012, Note_on_c, 9, 36, 22
5, 117040, Note_on_c, 9, 36, 0
5, 117100, Note_on_c, 9, 59, 73
5, 117112, Note_on_c, 9, 44, 60
5, 117112, Note_on_c, 9, 37, 79
5, 117280, Note_on_c, 9, 37, 0
5, 117280, Note_on_c, 9, 44, 0
5, 117336, Note_on_c, 9, 59, 0
5, 117360, Note_on_c, 9, 45, 48
5, 117380, Note_on_c, 9, 45, 0
5, 117412, Note_on_c, 9, 59, 37
5, 117440, Note_on_c, 9, 59, 0
5, 117492, Note_on_c, 9, 59, 64
5, 117756, Note_on_c, 9, 59, 0
5, 117856, Note_on_c, 9, 59, 76
5, 117860, Note_on_c, 9, 37, 78
5, 117880, Note_on_c, 9, 44, 55
5, 117920, Note_on_c, 9, 37, 0
5, 118056, Note_on_c, 9, 44, 0
5, 118100, Note_on_c, 9, 59, 0
5, 118152, Note_on_c, 9, 59, 46
5, 118176, Note_on_c, 9, 59, 0
5, 118232, Note_on_c, 9, 59, 60
5, 118516, Note_on_c, 9, 59, 0
5, 118624, Note_on_c, 9, 45, 52
5, 118636, Note_on_c, 9, 59, 68
5, 118648, Note_on_c, 9, 44, 60
5, 118816, Note_on_c, 9, 44, 0
5, 118836, Note_on_c, 9, 45, 0
5, 118876, Note_on_c, 9, 59, 0
5, 118908, Note_on_c, 9, 45, 60
5, 118932, Note_on_c, 9, 59, 43
5, 118956, Note_on_c, 9, 59, 0
5, 119004, Note_on_c, 9, 45, 0
5, 119008, Note_on_c, 9, 59, 54
5, 119316, Note_on_c, 9, 59, 0
5, 119400, Note_on_c, 9, 59, 69
5, 119416, Note_on_c, 9, 44, 56
5, 119420, Note_on_c, 9, 37, 95
5, 119500, Note_on_c, 9, 37, 0
5, 119532, Note_on_c, 9, 37, 79
5, 119568, Note_on_c, 9, 44, 0
5, 119620, Note_on_c, 9, 37, 0
5, 119664, Note_on_c, 9, 59, 0
5, 119784, Note_on_c, 9, 59, 74
5, 120048, Note_on_c, 9, 37, 44
5, 120056, Note_on_c, 9, 59, 0
5, 120068, Note_on_c, 9, 37, 0
5, 120152, Note_on_c, 9, 45, 52
5, 120172, Note_on_c, 9, 59, 68
5, 120184, Note_on_c, 9, 44, 56
5, 120344, Note_on_c, 9, 44, 0
5, 120368, Note_on_c, 9, 45, 0
5, 120424, Note_on_c, 9, 45, 54
5, 120440, Note_on_c, 9, 59, 0
5, 120560, Note_on_c, 9, 59, 70
5, 120632, Note_on_c, 9, 45, 0
5, 120824, Note_on_c, 9, 59, 0
5, 120952, Note_on_c, 9, 46, 36
5, 120952, Note_on_c, 9, 59, 62
5, 120964, Note_on_c, 9, 37, 78
5, 121076, Note_on_c, 9, 37, 0
5, 121080, Note_on_c, 9, 46, 0
5, 121160, Note_on_c, 9, 59, 0
5, 121248, Note_on_c, 9, 59, 47
5, 121280, Note_on_c, 9, 59, 0
5, 121348, Note_on_c, 9, 59, 72
5, 121420, Note_on_c, 9, 59, 0
5, 121452, Note_on_c, 9, 59, 71
5, 121536, Note_on_c, 9, 59, 0
5, 121720, Note_on_c, 9, 44, 50
5, 121732, Note_on_c, 9, 59, 81
5, 121740, Note_on_c, 9, 45, 57
5, 121888, Note_on_c, 9, 44, 0
5, 121944, Note_on_c, 9, 45, 0
5, 121992, Note_on_c, 9, 59, 0
5, 121996, Note_on_c, 9, 45, 56
5, 122112, Note_on_c, 9, 59, 69
5, 122392, Note_on_c, 9, 59, 0
5, 122444, Note_on_c, 9, 45, 0
5, 122488, Note_on_c, 9, 44, 53
5, 122512, Note_on_c, 9, 59, 68
5, 122516, Note_on_c, 9, 37, 84
5, 122648, Note_on_c, 9, 44, 0
5, 122676, Note_on_c, 9, 37, 0
5, 122732, Note_on_c, 9, 59, 0
5, 122784, Note_on_c, 9, 59, 42
5, 122812, Note_on_c, 9, 59, 0
5, 122888, Note_on_c, 9, 59, 66
5, 123128, Note_on_c, 9, 59, 0
5, 123256, Note_on_c, 9, 44, 61
5, 123268, Note_on_c, 9, 59, 66
5, 123276, Note_on_c, 9, 38, 86
5, 123328, Note_on_c, 9, 38, 0
5, 123396, Note_on_c, 9, 38, 88
5, 123400, Note_on_c, 9, 44, 0
5, 123472, Note_on_c, 9, 38, 0
5, 123512, Note_on_c, 9, 59, 0
5, 123772, Note_on_c, 9, 59, 89
5, 123952, Note_on_c, 9, 59, 0
5, 124024, Note_on_c, 9, 44, 54
5, 124080, Note_on_c, 9, 59, 96
5, 124168, Note_on_c, 9, 44, 0
5, 124168, Note_on_c, 9, 38, 92
5, 124232, Note_on_c, 9, 38, 0
5, 124244, Note_on_c, 9, 59, 0
5, 124276, Note_on_c, 9, 38, 70
5, 124328, Note_on_c, 9, 59, 96
5, 124416, Note_on_c, 9, 59, 0
5, 124432, Note_on_c, 9, 38, 0
5, 124444, Note_on_c, 9, 36, 44
5, 124452, Note_on_c, 9, 59, 74
5, 124676, Note_on_c, 9, 36, 0
5, 124704, Note_on_c, 9, 59, 0
5, 124792, Note_on_c, 9, 44, 57
5, 124804, Note_on_c, 9, 59, 69
5, 124920, Note_on_c, 9, 44, 0
5, 125036, Note_on_c, 9, 59, 0
5, 125180, Note_on_c, 9, 59, 71
5, 125436, Note_on_c, 9, 59, 0
5, 125440, Note_on_c, 9, 38, 74
5, 125544, Note_on_c, 9, 38, 0
5, 125560, Note_on_c, 9, 44, 54
5, 125568, Note_on_c, 9, 59, 68
5, 125568, Note_on_c, 9, 36, 52
5, 125572, Note_on_c, 9, 57, 58
5, 125576, Note_on_c, 9, 55, 70
5, 125640, Note_on_c, 9, 55, 0
5, 125680, Note_on_c, 9, 44, 0
5, 125768, Note_on_c, 9, 59, 0
5, 125848, Note_on_c, 9, 59, 41
5, 125884, Note_on_c, 9, 59, 0
5, 125896, Note_on_c, 9, 57, 0
5, 125952, Note_on_c, 9, 59, 60
5, 126256, Note_on_c, 9, 59, 0
5, 126264, Note_on_c, 9, 36, 0
5, 126328, Note_on_c, 9, 44, 49
5, 126332, Note_on_c, 9, 59, 64
5, 126464, Note_on_c, 9, 44, 0
5, 126632, Note_on_c, 9, 59, 0
5, 126724, Note_on_c, 9, 59, 69
5, 126956, Note_on_c, 9, 59, 0
5, 127096, Note_on_c, 9, 44, 48
5, 127104, Note_on_c, 9, 59, 58
5, 127224, Note_on_c, 9, 44, 0
5, 127328, Note_on_c, 9, 59, 0
5, 127376, Note_on_c, 9, 36, 57
5, 127388, Note_on_c, 9, 59, 55
5, 127436, Note_on_c, 9, 59, 0
5, 127448, Note_on_c, 9, 36, 0
5, 127492, Note_on_c, 9, 59, 47
5, 127792, Note_on_c, 9, 59, 0
5, 127864, Note_on_c, 9, 44, 51
5, 127884, Note_on_c, 9, 59, 71
5, 127976, Note_on_c, 9, 44, 0
5, 128136, Note_on_c, 9, 36, 36
5, 128168, Note_on_c, 9, 36, 0
5, 128176, Note_on_c, 9, 59, 0
5, 128260, Note_on_c, 9, 59, 68
5, 128476, Note_on_c, 9, 59, 0
5, 128536, Note_on_c, 9, 59, 42
5, 128564, Note_on_c, 9, 59, 0
5, 128632, Note_on_c, 9, 59, 66
5, 128632, Note_on_c, 9, 44, 57
5, 128768, Note_on_c, 9, 44, 0
5, 128860, Note_on_c, 9, 38, 30
5, 128900, Note_on_c, 9, 38, 0
5, 128932, Note_on_c, 9, 59, 0
5, 129016, Note_on_c, 9, 59, 68
5, 129040, Note_on_c, 9, 36, 24
5, 129072, Note_on_c, 9, 36, 0
5, 129260, Note_on_c, 9, 59, 0
5, 129396, Note_on_c, 9, 59, 68
5, 129400, Note_on_c, 9, 44, 56
5, 129552, Note_on_c, 9, 44, 0
5, 129624, Note_on_c, 9, 59, 0
5, 129784, Note_on_c, 9, 59, 62
5, 129820, Note_on_c, 9, 59, 0
5, 129868, Note_on_c, 9, 59, 55
5, 129972, Note_on_c, 9, 59, 0
5, 130168, Note_on_c, 9, 44, 52
5, 130172, Note_on_c, 9, 59, 78
5, 130220, Note_on_c, 9, 59, 0
5, 130268, Note_on_c, 9, 59, 55
5, 130280, Note_on_c, 9, 38, 60
5, 130312, Note_on_c, 9, 59, 0
5, 130332, Note_on_c, 9, 38, 0
5, 130376, Note_on_c, 9, 44, 0
5, 130400, Note_on_c, 9, 36, 42
5, 130424, Note_on_c, 9, 59, 80
5, 130424, Note_on_c, 9, 57, 79
5, 130464, Note_on_c, 9, 36, 0
5, 130524, Note_on_c, 9, 36, 36
5, 130536, Note_on_c, 9, 57, 0
5, 130580, Note_on_c, 9, 36, 0
5, 130820, Note_on_c, 9, 59, 0
5, 130932, Note_on_c, 9, 59, 58
5, 130936, Note_on_c, 9, 44, 54
5, 131128, Note_on_c, 9, 44, 0
5, 131160, Note_on_c, 9, 59, 0
5, 131320, Note_on_c, 9, 59, 62
5, 131584, Note_on_c, 9, 59, 0
5, 131704, Note_on_c, 9, 44, 56
5, 131716, Note_on_c, 9, 59, 66
5, 131880, Note_on_c, 9, 44, 0
5, 131920, Note_on_c, 9, 59, 0
5, 131980, Note_on_c, 9, 38, 26
5, 132000, Note_on_c, 9, 59, 44
5, 132036, Note_on_c, 9, 59, 0
5, 132068, Note_on_c, 9, 38, 0
5, 132088, Note_on_c, 9, 36, 43
5, 132096, Note_on_c, 9, 59, 49
5, 132292, Note_on_c, 9, 36, 0
5, 132400, Note_on_c, 9, 59, 0
5, 132472, Note_on_c, 9, 44, 57
5, 132484, Note_on_c, 9, 59, 60
5, 132632, Note_on_c, 9, 44, 0
5, 132728, Note_on_c, 9, 59, 0
5, 132784, Note_on_c, 9, 59, 35
5, 132816, Note_on_c, 9, 59, 0
5, 132864, Note_on_c, 9, 59, 66
5, 133152, Note_on_c, 9, 59, 0
5, 133240, Note_on_c, 9, 44, 51
5, 133248, Note_on_c, 9, 59, 64
5, 133256, Note_on_c, 9, 36, 36
5, 133416, Note_on_c, 9, 44, 0
5, 133476, Note_on_c, 9, 36, 0
5, 133480, Note_on_c, 9, 59, 0
5, 133496, Note_on_c, 9, 53, 68
5, 133516, Note_on_c, 9, 36, 48
5, 133524, Note_on_c, 9, 53, 0
5, 133560, Note_on_c, 9, 36, 0
5, 133640, Note_on_c, 9, 59, 34
5, 133880, Note_on_c, 9, 59, 0
5, 134004, Note_on_c, 9, 59, 68
5, 134008, Note_on_c, 9, 44, 52
5, 134168, Note_on_c, 9, 44, 0
5, 134240, Note_on_c, 9, 59, 0
5, 134296, Note_on_c, 9, 59, 49
5, 134332, Note_on_c, 9, 59, 0
5, 134392, Note_on_c, 9, 59, 60
5, 134664, Note_on_c, 9, 36, 39
5, 134684, Note_on_c, 9, 36, 0
5, 134696, Note_on_c, 9, 59, 0
5, 134776, Note_on_c, 9, 44, 50
5, 134780, Note_on_c, 9, 59, 66
5, 134796, Note_on_c, 9, 37, 67
5, 134840, Note_on_c, 9, 37, 0
5, 134904, Note_on_c, 9, 44, 0
5, 134916, Note_on_c, 9, 37, 72
5, 134956, Note_on_c, 9, 37, 0
5, 135032, Note_on_c, 9, 37, 88
5, 135056, Note_on_c, 9, 59, 0
5, 135096, Note_on_c, 9, 37, 0
5, 135156, Note_on_c, 9, 59, 71
5, 135384, Note_on_c, 9, 59, 0
5, 135532, Note_on_c, 9, 59, 76
5, 135544, Note_on_c, 9, 44, 57
5, 135688, Note_on_c, 9, 44, 0
5, 135756, Note_on_c, 9, 59, 0
5, 135816, Note_on_c, 9, 59, 53
5, 135868, Note_on_c, 9, 59, 0
5, 135912, Note_on_c, 9, 59, 64
5, 136208, Note_on_c, 9, 59, 0
5, 136216, Note_on_c, 9, 36, 16
5, 136236, Note_on_c, 9, 36, 0
5, 136300, Note_on_c, 9, 59, 76
5, 136312, Note_on_c, 9, 44, 52
5, 136322, Note_on_c, 9, 51, 68
5, 136346, Note_on_c, 9, 51, 0
5, 136480, Note_on_c, 9, 44, 0
5, 136556, Note_on_c, 9, 59, 0
5, 136582, Note_on_c, 9, 51, 89
5, 136646, Note_on_c, 9, 51, 0
5, 136688, Note_on_c, 9, 59, 65
5, 136724, Note_on_c, 9, 36, 31
5, 136768, Note_on_c, 9, 36, 0
5, 136824, Note_on_c, 9, 36, 6
5, 136884, Note_on_c, 9, 36, 0
5, 136928, Note_on_c, 9, 59, 0
5, 136976, Note_on_c, 9, 36, 35
5, 137008, Note_on_c, 9, 36, 0
5, 137076, Note_on_c, 9, 59, 67
5, 137080, Note_on_c, 9, 44, 56
5, 137232, Note_on_c, 9, 44, 0
5, 137312, Note_on_c, 9, 59, 0
5, 137372, Note_on_c, 9, 59, 50
5, 137424, Note_on_c, 9, 59, 0
5, 137476, Note_on_c, 9, 59, 60
5, 137736, Note_on_c, 9, 59, 0
5, 137752, Note_on_c, 9, 38, 65
5, 137804, Note_on_c, 9, 38, 0
5, 137848, Note_on_c, 9, 44, 57
5, 137876, Note_on_c, 9, 59, 70
5, 137896, Note_on_c, 9, 36, 29
5, 137932, Note_on_c, 9, 36, 0
5, 137992, Note_on_c, 9, 44, 0
5, 138144, Note_on_c, 9, 36, 42
5, 138160, Note_on_c, 9, 59, 0
5, 138168, Note_on_c, 9, 36, 0
5, 138244, Note_on_c, 9, 59, 62
5, 138484, Note_on_c, 9, 59, 0
5, 138596, Note_on_c, 9, 59, 58
5, 138616, Note_on_c, 9, 44, 56
5, 138728, Note_on_c, 9, 44, 0
5, 138844, Note_on_c, 9, 59, 0
5, 138896, Note_on_c, 9, 59, 51
5, 138932, Note_on_c, 9, 59, 0
5, 138988, Note_on_c, 9, 59, 64
5, 139260, Note_on_c, 9, 59, 0
5, 139272, Note_on_c, 9, 36, 24
5, 139300, Note_on_c, 9, 36, 0
5, 139380, Note_on_c, 9, 59, 68
5, 139384, Note_on_c, 9, 44, 60
5, 139420, Note_on_c, 9, 36, 25
5, 139448, Note_on_c, 9, 36, 0
5, 139512, Note_on_c, 9, 44, 0
5, 139648, Note_on_c, 9, 36, 59
5, 139672, Note_on_c, 9, 59, 0
5, 139704, Note_on_c, 9, 36, 0
5, 139768, Note_on_c, 9, 59, 62
5, 139780, Note_on_c, 9, 36, 52
5, 139840, Note_on_c, 9, 36, 0
5, 140064, Note_on_c, 9, 59, 0
5, 140152, Note_on_c, 9, 44, 60
5, 140156, Note_on_c, 9, 59, 56
5, 140312, Note_on_c, 9, 44, 0
5, 140380, Note_on_c, 9, 59, 0
5, 140416, Note_on_c, 9, 36, 46
5, 140432, Note_on_c, 9, 59, 58
5, 140468, Note_on_c, 9, 36, 0
5, 140484, Note_on_c, 9, 59, 0
5, 140536, Note_on_c, 9, 59, 55
5, 140568, Note_on_c, 9, 36, 41
5, 140636, Note_on_c, 9, 36, 0
5, 140812, Note_on_c, 9, 59, 0
5, 140920, Note_on_c, 9, 44, 56
5, 140932, Note_on_c, 9, 59, 66
5, 141056, Note_on_c, 9, 44, 0
5, 141192, Note_on_c, 9, 59, 0
5, 141204, Note_on_c, 9, 36, 30
5, 141232, Note_on_c, 9, 36, 0
5, 141320, Note_on_c, 9, 59, 69
5, 141336, Note_on_c, 9, 53, 81
5, 141364, Note_on_c, 9, 53, 0
5, 141440, Note_on_c, 9, 53, 71
5, 141476, Note_on_c, 9, 53, 0
5, 141540, Note_on_c, 9, 59, 0
5, 141572, Note_on_c, 9, 53, 91
5, 141620, Note_on_c, 9, 53, 0
5, 141688, Note_on_c, 9, 44, 56
5, 141696, Note_on_c, 9, 59, 70
5, 141832, Note_on_c, 9, 44, 0
5, 141844, Note_on_c, 9, 36, 49
5, 141892, Note_on_c, 9, 59, 0
5, 141904, Note_on_c, 9, 36, 0
5, 141956, Note_on_c, 9, 36, 49
5, 141968, Note_on_c, 9, 59, 58
5, 142012, Note_on_c, 9, 59, 0
5, 142012, Note_on_c, 9, 36, 0
5, 142072, Note_on_c, 9, 59, 58
5, 142080, Note_on_c, 9, 53, 92
5, 142120, Note_on_c, 9, 53, 0
5, 142184, Note_on_c, 9, 53, 74
5, 142228, Note_on_c, 9, 53, 0
5, 142308, Note_on_c, 9, 53, 99
5, 142336, Note_on_c, 9, 59, 0
5, 142380, Note_on_c, 9, 53, 0
5, 142448, Note_on_c, 9, 59, 74
5, 142456, Note_on_c, 9, 44, 60
5, 142588, Note_on_c, 9, 36, 43
5, 142592, Note_on_c, 9, 44, 0
5, 142632, Note_on_c, 9, 36, 0
5, 142692, Note_on_c, 9, 59, 0
5, 142704, Note_on_c, 9, 36, 56
5, 142752, Note_on_c, 9, 59, 45
5, 142768, Note_on_c, 9, 36, 0
5, 142776, Note_on_c, 9, 59, 0
5, 142828, Note_on_c, 9, 38, 74
5, 142828, Note_on_c, 9, 36, 40
5, 142832, Note_on_c, 9, 59, 60
5, 142848, Note_on_c, 9, 36, 0
5, 142880, Note_on_c, 9, 38, 0
5, 142880, Note_on_c, 9, 36, 23
5, 142912, Note_on_c, 9, 36, 0
5, 143140, Note_on_c, 9, 59, 0
5, 143220, Note_on_c, 9, 59, 68
5, 143224, Note_on_c, 9, 44, 62
5, 143368, Note_on_c, 9, 44, 0
5, 143472, Note_on_c, 9, 59, 0
5, 143488, Note_on_c, 9, 36, 48
5, 143524, Note_on_c, 9, 59, 51
5, 143544, Note_on_c, 9, 36, 0
5, 143552, Note_on_c, 9, 59, 0
5, 143612, Note_on_c, 9, 59, 60
5, 143920, Note_on_c, 9, 59, 0
5, 143992, Note_on_c, 9, 44, 68
5, 144012, Note_on_c, 9, 59, 76
5, 144104, Note_on_c, 9, 44, 0
5, 144188, Note_on_c, 9, 59, 0
5, 144288, Note_on_c, 9, 59, 54
5, 144316, Note_on_c, 9, 59, 0
5, 144396, Note_on_c, 9, 59, 66
5, 144624, Note_on_c, 9, 53, 66
5, 144668, Note_on_c, 9, 53, 0
5, 144724, Note_on_c, 9, 59, 0
5, 144740, Note_on_c, 9, 53, 46
5, 144760, Note_on_c, 9, 44, 67
5, 144776, Note_on_c, 9, 36, 25
5, 144804, Note_on_c, 9, 53, 0
5, 144888, Note_on_c, 9, 44, 0
5, 144960, Note_on_c, 9, 36, 0
5, 145004, Note_on_c, 9, 59, 68
5, 145008, Note_on_c, 9, 36, 37
5, 145056, Note_on_c, 9, 36, 0
5, 145060, Note_on_c, 9, 59, 0
5, 145144, Note_on_c, 9, 59, 61
5, 145332, Note_on_c, 9, 59, 0
5, 145404, Note_on_c, 9, 53, 76
5, 145468, Note_on_c, 9, 53, 0
5, 145528, Note_on_c, 9, 44, 61
5, 145548, Note_on_c, 9, 53, 53
5, 145548, Note_on_c, 9, 36, 26
5, 145616, Note_on_c, 9, 53, 0
5, 145680, Note_on_c, 9, 44, 0
5, 145716, Note_on_c, 9, 36, 0
5, 145792, Note_on_c, 9, 36, 42
5, 145808, Note_on_c, 9, 59, 65
5, 145840, Note_on_c, 9, 59, 0
5, 145840, Note_on_c, 9, 36, 0
5, 145948, Note_on_c, 9, 59, 69
5, 145976, Note_on_c, 9, 59, 0
5, 146148, Note_on_c, 9, 38, 55
5, 146164, Note_on_c, 9, 53, 90
5, 146188, Note_on_c, 9, 38, 0
5, 146216, Note_on_c, 9, 53, 0
5, 146292, Note_on_c, 9, 36, 34
5, 146296, Note_on_c, 9, 46, 62
5, 146400, Note_on_c, 9, 46, 0
5, 146468, Note_on_c, 9, 36, 0
5, 146544, Note_on_c, 9, 36, 49
5, 146600, Note_on_c, 9, 36, 0
5, 146804, Note_on_c, 9, 50, 72
5, 146824, Note_on_c, 9, 50, 0
5, 146920, Note_on_c, 9, 50, 85
5, 146928, Note_on_c, 9, 53, 88
5, 146972, Note_on_c, 9, 50, 0
5, 146976, Note_on_c, 9, 53, 0
5, 147048, Note_on_c, 9, 50, 105
5, 147064, Note_on_c, 9, 44, 52
5, 147208, Note_on_c, 9, 44, 0
5, 147320, Note_on_c, 9, 36, 30
5, 147332, Note_on_c, 9, 50, 0
5, 147344, Note_on_c, 9, 36, 0
5, 147428, Note_on_c, 9, 48, 64
5, 147452, Note_on_c, 9, 48, 0
5, 147552, Note_on_c, 9, 48, 105
5, 147692, Note_on_c, 9, 53, 75
5, 147712, Note_on_c, 9, 53, 0
5, 147736, Note_on_c, 9, 48, 0
5, 147816, Note_on_c, 9, 57, 85
5, 147824, Note_on_c, 9, 47, 90
5, 147832, Note_on_c, 9, 44, 48
5, 147892, Note_on_c, 9, 47, 0
5, 147936, Note_on_c, 9, 47, 92
5, 148008, Note_on_c, 9, 44, 0
5, 148116, Note_on_c, 9, 47, 0
5, 148204, Note_on_c, 9, 45, 65
5, 148268, Note_on_c, 9, 45, 0
5, 148316, Note_on_c, 9, 45, 64
5, 148492, Note_on_c, 9, 45, 0
5, 148584, Note_on_c, 9, 45, 58
5, 148600, Note_on_c, 9, 44, 53
5, 148632, Note_on_c, 9, 45, 0
5, 148716, Note_on_c, 9, 38, 81
5, 148736, Note_on_c, 9, 44, 0
5, 148768, Note_on_c, 9, 38, 0
5, 148828, Note_on_c, 9, 57, 0
5, 148828, Note_on_c, 9, 38, 77
5, 148948, Note_on_c, 9, 38, 0
5, 148960, Note_on_c, 9, 57, 94
5, 148964, Note_on_c, 9, 36, 59
5, 148988, Note_on_c, 9, 52, 82
5, 149188, Note_on_c, 9, 52, 0
5, 149368, Note_on_c, 9, 44, 55
5, 149384, Note_on_c, 9, 51, 34
5, 149408, Note_on_c, 9, 51, 0
5, 149472, Note_on_c, 9, 44, 0
5, 149728, Note_on_c, 9, 51, 39
5, 149796, Note_on_c, 9, 57, 0
5, 149996, Note_on_c, 9, 36, 0
5, 150000, Note_on_c, 9, 38, 38
5, 150004, Note_on_c, 9, 51, 0
5, 150108, Note_on_c, 9, 38, 0
5, 150116, Note_on_c, 9, 51, 48
5, 150136, Note_on_c, 9, 44, 56
5, 150148, Note_on_c, 9, 36, 23
5, 150320, Note_on_c, 9, 44, 0
5, 150336, Note_on_c, 9, 36, 0
5, 150396, Note_on_c, 9, 51, 0
5, 150400, Note_on_c, 9, 36, 32
5, 150436, Note_on_c, 9, 36, 0
5, 150444, Note_on_c, 9, 51, 36
5, 150472, Note_on_c, 9, 51, 0
5, 150528, Note_on_c, 9, 51, 44
5, 150820, Note_on_c, 9, 51, 0
5, 150904, Note_on_c, 9, 44, 56
5, 150916, Note_on_c, 9, 51, 64
5, 151080, Note_on_c, 9, 44, 0
5, 151172, Note_on_c, 9, 36, 45
5, 151212, Note_on_c, 9, 51, 0
5, 151216, Note_on_c, 9, 36, 0
5, 151312, Note_on_c, 9, 51, 59
5, 151600, Note_on_c, 9, 51, 0
5, 151672, Note_on_c, 9, 44, 69
5, 151696, Note_on_c, 9, 51, 67
5, 151856, Note_on_c, 9, 44, 0
5, 151924, Note_on_c, 9, 51, 0
5, 151948, Note_on_c, 9, 53, 74
5, 152040, Note_on_c, 9, 53, 0
5, 152060, Note_on_c, 9, 51, 34
5, 152368, Note_on_c, 9, 51, 0
5, 152440, Note_on_c, 9, 44, 67
5, 152440, Note_on_c, 9, 51, 62
5, 152616, Note_on_c, 9, 44, 0
5, 152708, Note_on_c, 9, 51, 0
5, 152736, Note_on_c, 9, 51, 50
5, 152772, Note_on_c, 9, 51, 0
5, 152828, Note_on_c, 9, 51, 56
5, 153076, Note_on_c, 9, 36, 40
5, 153104, Note_on_c, 9, 36, 0
5, 153140, Note_on_c, 9, 51, 0
5, 153208, Note_on_c, 9, 51, 71
5, 153208, Note_on_c, 9, 44, 64
5, 153408, Note_on_c, 9, 44, 0
5, 153472, Note_on_c, 9, 51, 0
5, 153508, Note_on_c, 9, 51, 33
5, 153544, Note_on_c, 9, 51, 0
5, 153592, Note_on_c, 9, 51, 62
5, 153612, Note_on_c, 9, 37, 46
5, 153636, Note_on_c, 9, 37, 0
5, 153808, Note_on_c, 9, 37, 52
5, 153832, Note_on_c, 9, 37, 0
5, 153892, Note_on_c, 9, 51, 0
5, 153972, Note_on_c, 9, 51, 65
5, 153976, Note_on_c, 9, 44, 64
5, 154000, Note_on_c, 9, 37, 74
5, 154040, Note_on_c, 9, 37, 0
5, 154096, Note_on_c, 9, 37, 57
5, 154140, Note_on_c, 9, 37, 0
5, 154160, Note_on_c, 9, 44, 0
5, 154208, Note_on_c, 9, 36, 44
5, 154268, Note_on_c, 9, 51, 0
5, 154356, Note_on_c, 9, 36, 0
5, 154356, Note_on_c, 9, 51, 63
5, 154656, Note_on_c, 9, 51, 0
5, 154744, Note_on_c, 9, 46, 53
5, 154748, Note_on_c, 9, 51, 68
5, 154832, Note_on_c, 9, 46, 0
5, 154988, Note_on_c, 9, 51, 0
5, 155024, Note_on_c, 9, 36, 42
5, 155044, Note_on_c, 9, 36, 0
5, 155092, Note_on_c, 9, 51, 62
5, 155128, Note_on_c, 9, 51, 0
5, 155188, Note_on_c, 9, 51, 65
5, 155388, Note_on_c, 9, 51, 0
5, 155512, Note_on_c, 9, 44, 62
5, 155512, Note_on_c, 9, 51, 74
5, 155648, Note_on_c, 9, 44, 0
5, 155792, Note_on_c, 9, 51, 0
5, 155904, Note_on_c, 9, 51, 60
5, 155964, Note_on_c, 9, 51, 0
5, 156004, Note_on_c, 9, 51, 63
5, 156132, Note_on_c, 9, 51, 0
5, 156280, Note_on_c, 9, 44, 60
5, 156296, Note_on_c, 9, 51, 73
5, 156376, Note_on_c, 9, 51, 0
5, 156384, Note_on_c, 9, 44, 0
5, 156404, Note_on_c, 9, 51, 58
5, 156508, Note_on_c, 9, 51, 0
5, 156588, Note_on_c, 9, 36, 34
5, 156612, Note_on_c, 9, 36, 0
5, 156668, Note_on_c, 9, 51, 77
5, 156904, Note_on_c, 9, 51, 0
5, 157032, Note_on_c, 9, 51, 75
5, 157048, Note_on_c, 9, 44, 69
5, 157088, Note_on_c, 9, 44, 0
5, 157208, Note_on_c, 9, 51, 0
5, 157328, Note_on_c, 9, 51, 46
5, 157348, Note_on_c, 9, 51, 0
5, 157412, Note_on_c, 9, 51, 59
5, 157640, Note_on_c, 9, 51, 0
5, 157672, Note_on_c, 9, 53, 74
5, 157760, Note_on_c, 9, 53, 0
5, 157796, Note_on_c, 9, 51, 38
5, 157816, Note_on_c, 9, 44, 69
5, 157904, Note_on_c, 9, 44, 0
5, 158076, Note_on_c, 9, 51, 0
5, 158160, Note_on_c, 9, 51, 63
5, 158448, Note_on_c, 9, 51, 0
5, 158576, Note_on_c, 9, 51, 70
5, 158584, Note_on_c, 9, 44, 67
5, 158704, Note_on_c, 9, 44, 0
5, 158832, Note_on_c, 9, 51, 0
5, 158876, Note_on_c, 9, 51, 46
5, 158900, Note_on_c, 9, 51, 0
5, 158960, Note_on_c, 9, 51, 55
5, 159236, Note_on_c, 9, 51, 0
5, 159328, Note_on_c, 9, 51, 71
5, 159352, Note_on_c, 9, 44, 65
5, 159480, Note_on_c, 9, 44, 0
5, 159572, Note_on_c, 9, 51, 0
5, 159596, Note_on_c, 9, 38, 44
5, 159624, Note_on_c, 9, 51, 46
5, 159628, Note_on_c, 9, 38, 0
5, 159652, Note_on_c, 9, 51, 0
5, 159720, Note_on_c, 9, 51, 53
5, 159750, Note_on_c, 9, 51, 44
5, 159774, Note_on_c, 9, 51, 0
5, 159858, Note_on_c, 9, 51, 80
5, 159922, Note_on_c, 9, 51, 0
5, 159980, Note_on_c, 9, 51, 0
5, 160104, Note_on_c, 9, 51, 72
5, 160114, Note_on_c, 9, 51, 89
5, 160120, Note_on_c, 9, 44, 67
5, 160226, Note_on_c, 9, 51, 0
5, 160256, Note_on_c, 9, 44, 0
5, 160356, Note_on_c, 9, 51, 0
5, 160358, Note_on_c, 9, 51, 95
5, 160458, Note_on_c, 9, 51, 0
5, 160496, Note_on_c, 9, 51, 70
5, 160716, Note_on_c, 9, 51, 0
5, 160752, Note_on_c, 9, 53, 77
5, 160856, Note_on_c, 9, 53, 0
5, 160888, Note_on_c, 9, 44, 63
5, 160892, Note_on_c, 9, 51, 39
5, 161024, Note_on_c, 9, 44, 0
5, 161032, Note_on_c, 9, 38, 89
5, 161084, Note_on_c, 9, 51, 0
5, 161092, Note_on_c, 9, 38, 0
5, 161136, Note_on_c, 9, 38, 64
5, 161148, Note_on_c, 9, 51, 59
5, 161200, Note_on_c, 9, 51, 0
5, 161264, Note_on_c, 9, 51, 47
5, 161264, Note_on_c, 9, 36, 30
5, 161272, Note_on_c, 9, 38, 0
5, 161432, Note_on_c, 9, 36, 0
5, 161540, Note_on_c, 9, 51, 0
5, 161640, Note_on_c, 9, 51, 68
5, 161656, Note_on_c, 9, 44, 64
5, 161776, Note_on_c, 9, 44, 0
5, 161896, Note_on_c, 9, 51, 0
5, 161908, Note_on_c, 9, 36, 49
5, 161964, Note_on_c, 9, 36, 0
5, 162032, Note_on_c, 9, 51, 68
5, 162320, Note_on_c, 9, 51, 0
5, 162420, Note_on_c, 9, 51, 70
5, 162424, Note_on_c, 9, 44, 61
5, 162528, Note_on_c, 9, 44, 0
5, 162644, Note_on_c, 9, 51, 0
5, 162688, Note_on_c, 9, 36, 35
5, 162708, Note_on_c, 9, 51, 40
5, 162728, Note_on_c, 9, 51, 0
5, 162760, Note_on_c, 9, 36, 0
5, 162800, Note_on_c, 9, 51, 63
5, 162820, Note_on_c, 9, 36, 29
5, 162888, Note_on_c, 9, 36, 0
5, 163076, Note_on_c, 9, 51, 0
5, 163160, Note_on_c, 9, 51, 72
5, 163192, Note_on_c, 9, 44, 60
5, 163296, Note_on_c, 9, 44, 0
5, 163460, Note_on_c, 9, 36, 38
5, 163476, Note_on_c, 9, 51, 0
5, 163492, Note_on_c, 9, 36, 0
5, 163576, Note_on_c, 9, 51, 64
5, 163616, Note_on_c, 9, 51, 0
5, 163676, Note_on_c, 9, 51, 69
5, 163872, Note_on_c, 9, 51, 0
5, 163960, Note_on_c, 9, 46, 55
5, 163994, Note_on_c, 9, 51, 47
5, 163996, Note_on_c, 9, 51, 58
5, 164040, Note_on_c, 9, 46, 0
5, 164060, Note_on_c, 9, 51, 0
5, 164092, Note_on_c, 9, 51, 70
5, 164154, Note_on_c, 9, 51, 0
5, 164204, Note_on_c, 9, 51, 0
5, 164236, Note_on_c, 9, 36, 38
5, 164292, Note_on_c, 9, 36, 0
5, 164372, Note_on_c, 9, 51, 77
5, 164608, Note_on_c, 9, 51, 0
5, 164728, Note_on_c, 9, 44, 54
5, 164736, Note_on_c, 9, 51, 71
5, 164816, Note_on_c, 9, 44, 0
5, 164984, Note_on_c, 9, 51, 0
5, 165108, Note_on_c, 9, 51, 70
5, 165364, Note_on_c, 9, 51, 0
5, 165480, Note_on_c, 9, 51, 71
5, 165496, Note_on_c, 9, 44, 62
5, 165600, Note_on_c, 9, 44, 0
5, 165672, Note_on_c, 9, 51, 0
5, 165776, Note_on_c, 9, 51, 45
5, 165800, Note_on_c, 9, 51, 0
5, 165864, Note_on_c, 9, 51, 52
5, 166116, Note_on_c, 9, 37, 47
5, 166148, Note_on_c, 9, 51, 0
5, 166208, Note_on_c, 9, 37, 0
5, 166260, Note_on_c, 9, 51, 73
5, 166264, Note_on_c, 9, 44, 57
5, 166268, Note_on_c, 9, 36, 24
5, 166316, Note_on_c, 9, 51, 0
5, 166360, Note_on_c, 9, 44, 0
5, 166360, Note_on_c, 9, 51, 53
5, 166420, Note_on_c, 9, 51, 0
5, 166472, Note_on_c, 9, 36, 0
5, 166512, Note_on_c, 9, 36, 52
5, 166644, Note_on_c, 9, 51, 68
5, 166660, Note_on_c, 9, 36, 0
5, 166692, Note_on_c, 9, 51, 0
5, 167028, Note_on_c, 9, 51, 78
5, 167032, Note_on_c, 9, 46, 33
5, 167084, Note_on_c, 9, 51, 0
5, 167192, Note_on_c, 9, 46, 0
5, 167292, Note_on_c, 9, 36, 59
5, 167300, Note_on_c, 9, 51, 68
5, 167376, Note_on_c, 9, 51, 0
5, 167388, Note_on_c, 9, 36, 0
5, 167412, Note_on_c, 9, 51, 63
5, 167432, Note_on_c, 9, 36, 38
5, 167536, Note_on_c, 9, 36, 0
5, 167548, Note_on_c, 9, 51, 0
5, 167780, Note_on_c, 9, 51, 81
5, 167800, Note_on_c, 9, 44, 56
5, 167880, Note_on_c, 9, 44, 0
5, 167916, Note_on_c, 9, 51, 0
5, 168068, Note_on_c, 9, 36, 31
5, 168076, Note_on_c, 9, 51, 64
5, 168092, Note_on_c, 9, 36, 0
5, 168128, Note_on_c, 9, 51, 0
5, 168176, Note_on_c, 9, 51, 51
5, 168296, Note_on_c, 9, 51, 0
5, 168540, Note_on_c, 9, 51, 77
5, 168568, Note_on_c, 9, 44, 64
5, 168688, Note_on_c, 9, 44, 0
5, 168712, Note_on_c, 9, 51, 0
5, 168840, Note_on_c, 9, 51, 42
5, 168840, Note_on_c, 9, 36, 23
5, 168864, Note_on_c, 9, 36, 0
5, 168868, Note_on_c, 9, 51, 0
5, 168936, Note_on_c, 9, 51, 69
5, 169172, Note_on_c, 9, 51, 0
5, 169312, Note_on_c, 9, 51, 80
5, 169336, Note_on_c, 9, 44, 70
5, 169472, Note_on_c, 9, 44, 0
5, 169560, Note_on_c, 9, 51, 0
5, 169700, Note_on_c, 9, 51, 75
5, 169920, Note_on_c, 9, 51, 0
5, 169992, Note_on_c, 9, 51, 28
5, 170020, Note_on_c, 9, 51, 0
5, 170092, Note_on_c, 9, 51, 74
5, 170104, Note_on_c, 9, 44, 70
5, 170240, Note_on_c, 9, 44, 0
5, 170352, Note_on_c, 9, 51, 0
5, 170460, Note_on_c, 9, 51, 82
5, 170468, Note_on_c, 9, 41, 71
5, 170520, Note_on_c, 9, 41, 0
5, 170568, Note_on_c, 9, 41, 47
5, 170648, Note_on_c, 9, 51, 0
5, 170652, Note_on_c, 9, 41, 0
5, 170740, Note_on_c, 9, 51, 61
5, 170788, Note_on_c, 9, 51, 0
5, 170848, Note_on_c, 9, 36, 49
5, 170872, Note_on_c, 9, 51, 60
5, 170872, Note_on_c, 9, 44, 71
5, 170912, Note_on_c, 9, 51, 0
5, 171032, Note_on_c, 9, 44, 0
5, 171052, Note_on_c, 9, 36, 0
5, 171100, Note_on_c, 9, 36, 49
5, 171124, Note_on_c, 9, 51, 85
5, 171176, Note_on_c, 9, 51, 0
5, 171208, Note_on_c, 9, 36, 0
5, 171260, Note_on_c, 9, 51, 49
5, 171360, Note_on_c, 9, 51, 0
5, 171508, Note_on_c, 9, 51, 74
5, 171548, Note_on_c, 9, 51, 0
5, 171640, Note_on_c, 9, 44, 71
5, 171644, Note_on_c, 9, 51, 50
5, 171708, Note_on_c, 9, 51, 0
5, 171784, Note_on_c, 9, 44, 0
5, 171896, Note_on_c, 9, 51, 75
5, 171916, Note_on_c, 9, 36, 51
5, 171944, Note_on_c, 9, 51, 0
5, 171972, Note_on_c, 9, 36, 0
5, 172032, Note_on_c, 9, 57, 95
5, 172088, Note_on_c, 9, 57, 0
5, 172296, Note_on_c, 9, 36, 58
5, 172368, Note_on_c, 9, 36, 0
5, 172408, Note_on_c, 9, 44, 71
5, 172552, Note_on_c, 9, 44, 0
5, 173056, Note_on_c, 9, 47, 103
5, 173176, Note_on_c, 9, 44, 74
5, 173296, Note_on_c, 9, 47, 0
5, 173304, Note_on_c, 9, 44, 0
5, 173328, Note_on_c, 9, 45, 46
5, 173356, Note_on_c, 9, 45, 0
5, 173456, Note_on_c, 9, 36, 54
5, 173464, Note_on_c, 9, 51, 92
5, 173512, Note_on_c, 9, 36, 0
5, 173544, Note_on_c, 9, 51, 0
5, 173596, Note_on_c, 9, 36, 56
5, 173604, Note_on_c, 9, 51, 36
5, 173648, Note_on_c, 9, 51, 0
5, 173736, Note_on_c, 9, 36, 0
5, 173944, Note_on_c, 9, 44, 73
5, 173964, Note_on_c, 9, 51, 69
5, 174036, Note_on_c, 9, 51, 0
5, 174072, Note_on_c, 9, 44, 0
5, 174336, Note_on_c, 9, 51, 69
5, 174444, Note_on_c, 9, 51, 0
5, 174484, Note_on_c, 9, 38, 62
5, 174524, Note_on_c, 9, 38, 0
5, 174604, Note_on_c, 9, 38, 64
5, 174712, Note_on_c, 9, 44, 71
5, 174716, Note_on_c, 9, 38, 0
5, 174728, Note_on_c, 9, 51, 68
5, 174732, Note_on_c, 9, 36, 38
5, 174736, Note_on_c, 9, 57, 50
5, 174840, Note_on_c, 9, 51, 0
5, 174856, Note_on_c, 9, 44, 0
5, 174912, Note_on_c, 9, 57, 0
5, 174964, Note_on_c, 9, 36, 0
5, 175028, Note_on_c, 9, 51, 52
5, 175068, Note_on_c, 9, 51, 0
5, 175112, Note_on_c, 9, 51, 62
5, 175364, Note_on_c, 9, 51, 0
5, 175480, Note_on_c, 9, 44, 71
5, 175504, Note_on_c, 9, 51, 76
5, 175632, Note_on_c, 9, 44, 0
5, 175712, Note_on_c, 9, 51, 0
5, 175780, Note_on_c, 9, 36, 47
5, 175828, Note_on_c, 9, 51, 25
5, 175848, Note_on_c, 9, 51, 0
5, 175872, Note_on_c, 9, 36, 0
5, 175892, Note_on_c, 9, 51, 57
5, 175912, Note_on_c, 9, 36, 51
5, 176116, Note_on_c, 9, 36, 0
5, 176160, Note_on_c, 9, 36, 37
5, 176172, Note_on_c, 9, 51, 0
5, 176196, Note_on_c, 9, 36, 0
5, 176248, Note_on_c, 9, 44, 71
5, 176276, Note_on_c, 9, 51, 71
5, 176400, Note_on_c, 9, 44, 0
5, 176516, Note_on_c, 9, 51, 0
5, 176576, Note_on_c, 9, 51, 36
5, 176604, Note_on_c, 9, 51, 0
5, 176656, Note_on_c, 9, 51, 50
5, 176920, Note_on_c, 9, 51, 0
5, 177016, Note_on_c, 9, 44, 71
5, 177032, Note_on_c, 9, 51, 69
5, 177168, Note_on_c, 9, 44, 0
5, 177300, Note_on_c, 9, 38, 55
5, 177324, Note_on_c, 9, 51, 0
5, 177384, Note_on_c, 9, 38, 0
5, 177424, Note_on_c, 9, 51, 33
5, 177452, Note_on_c, 9, 36, 23
5, 177496, Note_on_c, 9, 51, 0
5, 177532, Note_on_c, 9, 53, 72
5, 177636, Note_on_c, 9, 36, 0
5, 177680, Note_on_c, 9, 36, 37
5, 177720, Note_on_c, 9, 53, 0
5, 177732, Note_on_c, 9, 36, 0
5, 177784, Note_on_c, 9, 44, 71
5, 177908, Note_on_c, 9, 53, 75
5, 177944, Note_on_c, 9, 44, 0
5, 178128, Note_on_c, 9, 53, 0
5, 178204, Note_on_c, 9, 51, 42
5, 178256, Note_on_c, 9, 51, 0
5, 178304, Note_on_c, 9, 53, 76
5, 178496, Note_on_c, 9, 53, 0
5, 178552, Note_on_c, 9, 44, 71
5, 178588, Note_on_c, 9, 51, 60
5, 178712, Note_on_c, 9, 44, 0
5, 178840, Note_on_c, 9, 51, 0
5, 178840, Note_on_c, 9, 36, 47
5, 178920, Note_on_c, 9, 36, 0
5, 178932, Note_on_c, 9, 51, 56
5, 178968, Note_on_c, 9, 36, 37
5, 179080, Note_on_c, 9, 51, 0
5, 179148, Note_on_c, 9, 36, 0
5, 179216, Note_on_c, 9, 36, 28
5, 179280, Note_on_c, 9, 36, 0
5, 179320, Note_on_c, 9, 44, 71
5, 179340, Note_on_c, 9, 51, 61
5, 179368, Note_on_c, 9, 54, 68
5, 179388, Note_on_c, 9, 54, 0
5, 179476, Note_on_c, 9, 54, 68
5, 179496, Note_on_c, 9, 44, 0
5, 179520, Note_on_c, 9, 54, 0
5, 179520, Note_on_c, 9, 51, 0
5, 179592, Note_on_c, 9, 54, 80
5, 179612, Note_on_c, 9, 51, 49
5, 179640, Note_on_c, 9, 54, 0
5, 179656, Note_on_c, 9, 51, 0
5, 179704, Note_on_c, 9, 51, 55
5, 179736, Note_on_c, 9, 36, 40
5, 179876, Note_on_c, 9, 36, 0
5, 179972, Note_on_c, 9, 36, 49
5, 179976, Note_on_c, 9, 51, 0
5, 180048, Note_on_c, 9, 36, 0
5, 180088, Note_on_c, 9, 44, 74
5, 180104, Note_on_c, 9, 36, 33
5, 180108, Note_on_c, 9, 51, 63
5, 180232, Note_on_c, 9, 36, 0
5, 180264, Note_on_c, 9, 44, 0
5, 180352, Note_on_c, 9, 51, 0
5, 180360, Note_on_c, 9, 38, 33
5, 180400, Note_on_c, 9, 51, 49
5, 180424, Note_on_c, 9, 51, 0
5, 180448, Note_on_c, 9, 38, 0
5, 180484, Note_on_c, 9, 36, 36
5, 180504, Note_on_c, 9, 51, 51
5, 180688, Note_on_c, 9, 36, 0
5, 180784, Note_on_c, 9, 51, 0
5, 180856, Note_on_c, 9, 44, 71
5, 180884, Note_on_c, 9, 51, 67
5, 181008, Note_on_c, 9, 44, 0
5, 181104, Note_on_c, 9, 51, 0
5, 181168, Note_on_c, 9, 51, 33
5, 181192, Note_on_c, 9, 51, 0
5, 181268, Note_on_c, 9, 51, 49
5, 181540, Note_on_c, 9, 51, 0
5, 181556, Note_on_c, 9, 36, 23
5, 181584, Note_on_c, 9, 36, 0
5, 181624, Note_on_c, 9, 44, 71
5, 181644, Note_on_c, 9, 51, 68
5, 181664, Note_on_c, 9, 37, 69
5, 181776, Note_on_c, 9, 44, 0
5, 181864, Note_on_c, 9, 37, 0
5, 181896, Note_on_c, 9, 51, 0
5, 181908, Note_on_c, 9, 37, 61
5, 181948, Note_on_c, 9, 37, 0
5, 181948, Note_on_c, 9, 51, 50
5, 181988, Note_on_c, 9, 51, 0
5, 182028, Note_on_c, 9, 51, 67
5, 182044, Note_on_c, 9, 36, 26
5, 182072, Note_on_c, 9, 36, 0
5, 182304, Note_on_c, 9, 51, 0
5, 182392, Note_on_c, 9, 44, 70
5, 182408, Note_on_c, 9, 51, 71
5, 182528, Note_on_c, 9, 44, 0
5, 182668, Note_on_c, 9, 51, 0
5, 182776, Note_on_c, 9, 51, 70
5, 182916, Note_on_c, 9, 53, 60
5, 182940, Note_on_c, 9, 53, 0
5, 183008, Note_on_c, 9, 51, 0
5, 183044, Note_on_c, 9, 53, 75
5, 183136, Note_on_c, 9, 53, 0
5, 183160, Note_on_c, 9, 44, 74
5, 183172, Note_on_c, 9, 51, 28
5, 183180, Note_on_c, 9, 53, 72
5, 183208, Note_on_c, 9, 53, 0
5, 183296, Note_on_c, 9, 44, 0
5, 183404, Note_on_c, 9, 36, 39
5, 183440, Note_on_c, 9, 51, 0
5, 183452, Note_on_c, 9, 36, 0
5, 183532, Note_on_c, 9, 51, 59
5, 183796, Note_on_c, 9, 51, 0
5, 183928, Note_on_c, 9, 44, 76
5, 183932, Note_on_c, 9, 51, 77
5, 184068, Note_on_c, 9, 36, 44
5, 184072, Note_on_c, 9, 44, 0
5, 184112, Note_on_c, 9, 36, 0
5, 184168, Note_on_c, 9, 51, 0
5, 184184, Note_on_c, 9, 36, 52
5, 184224, Note_on_c, 9, 51, 50
5, 184264, Note_on_c, 9, 36, 0
5, 184268, Note_on_c, 9, 51, 0
5, 184320, Note_on_c, 9, 51, 50
5, 184568, Note_on_c, 9, 51, 0
5, 184696, Note_on_c, 9, 44, 75
5, 184704, Note_on_c, 9, 51, 70
5, 184848, Note_on_c, 9, 44, 0
5, 184956, Note_on_c, 9, 51, 0
5, 185088, Note_on_c, 9, 51, 71
5, 185354, Note_on_c, 9, 51, 74
5, 185360, Note_on_c, 9, 51, 0
5, 185402, Note_on_c, 9, 51, 0
5, 185464, Note_on_c, 9, 44, 74
5, 185482, Note_on_c, 9, 51, 62
5, 185484, Note_on_c, 9, 51, 64
5, 185534, Note_on_c, 9, 51, 0
5, 185600, Note_on_c, 9, 38, 75
5, 185616, Note_on_c, 9, 44, 0
5, 185664, Note_on_c, 9, 38, 0
5, 185716, Note_on_c, 9, 38, 63
5, 185736, Note_on_c, 9, 51, 0
5, 185828, Note_on_c, 9, 38, 0
5, 185856, Note_on_c, 9, 51, 67
5, 185868, Note_on_c, 9, 36, 42
5, 186072, Note_on_c, 9, 36, 0
5, 186092, Note_on_c, 9, 51, 0
5, 186232, Note_on_c, 9, 44, 75
5, 186240, Note_on_c, 9, 51, 67
5, 186408, Note_on_c, 9, 44, 0
5, 186448, Note_on_c, 9, 51, 0
5, 186520, Note_on_c, 9, 51, 51
5, 186548, Note_on_c, 9, 51, 0
5, 186616, Note_on_c, 9, 51, 68
5, 186876, Note_on_c, 9, 36, 63
5, 186892, Note_on_c, 9, 51, 0
5, 186948, Note_on_c, 9, 36, 0
5, 186996, Note_on_c, 9, 51, 68
5, 187000, Note_on_c, 9, 44, 74
5, 187008, Note_on_c, 9, 36, 37
5, 187116, Note_on_c, 9, 36, 0
5, 187160, Note_on_c, 9, 44, 0
5, 187248, Note_on_c, 9, 38, 44
5, 187260, Note_on_c, 9, 51, 0
5, 187356, Note_on_c, 9, 38, 0
5, 187372, Note_on_c, 9, 51, 70
5, 187384, Note_on_c, 9, 36, 30
5, 187544, Note_on_c, 9, 51, 0
5, 187604, Note_on_c, 9, 36, 0
5, 187640, Note_on_c, 9, 53, 75
5, 187736, Note_on_c, 9, 53, 0
5, 187768, Note_on_c, 9, 44, 71
5, 187784, Note_on_c, 9, 51, 33
5, 187944, Note_on_c, 9, 44, 0
5, 188036, Note_on_c, 9, 51, 0
5, 188052, Note_on_c, 9, 36, 44
5, 188088, Note_on_c, 9, 36, 0
5, 188140, Note_on_c, 9, 51, 67
5, 188404, Note_on_c, 9, 51, 0
5, 188528, Note_on_c, 9, 51, 64
5, 188536, Note_on_c, 9, 44, 73
5, 188696, Note_on_c, 9, 44, 0
5, 188772, Note_on_c, 9, 51, 0
5, 188796, Note_on_c, 9, 36, 41
5, 188820, Note_on_c, 9, 51, 50
5, 188852, Note_on_c, 9, 36, 0
5, 188864, Note_on_c, 9, 51, 0
5, 188916, Note_on_c, 9, 51, 45
5, 189188, Note_on_c, 9, 51, 0
5, 189304, Note_on_c, 9, 44, 69
5, 189308, Note_on_c, 9, 51, 67
5, 189448, Note_on_c, 9, 44, 0
5, 189588, Note_on_c, 9, 51, 0
5, 189688, Note_on_c, 9, 51, 71
5, 189900, Note_on_c, 9, 51, 0
5, 189952, Note_on_c, 9, 53, 71
5, 190036, Note_on_c, 9, 53, 0
5, 190072, Note_on_c, 9, 44, 69
5, 190088, Note_on_c, 9, 51, 39
5, 190200, Note_on_c, 9, 44, 0
5, 190346, Note_on_c, 9, 51, 74
5, 190360, Note_on_c, 9, 51, 0
5, 190386, Note_on_c, 9, 51, 0
5, 190444, Note_on_c, 9, 51, 58
5, 190488, Note_on_c, 9, 36, 22
5, 190556, Note_on_c, 9, 36, 0
5, 190732, Note_on_c, 9, 51, 0
5, 190734, Note_on_c, 9, 51, 83
5, 190794, Note_on_c, 9, 51, 0
5, 190828, Note_on_c, 9, 51, 71
5, 190840, Note_on_c, 9, 44, 70
5, 190876, Note_on_c, 9, 36, 28
5, 190944, Note_on_c, 9, 44, 0
5, 190964, Note_on_c, 9, 36, 0
5, 191052, Note_on_c, 9, 51, 0
5, 191120, Note_on_c, 9, 51, 39
5, 191168, Note_on_c, 9, 51, 0
5, 191216, Note_on_c, 9, 51, 59
5, 191508, Note_on_c, 9, 51, 0
5, 191600, Note_on_c, 9, 51, 74
5, 191608, Note_on_c, 9, 44, 68
5, 191646, Note_on_c, 9, 51, 68
5, 191678, Note_on_c, 9, 51, 0
5, 191704, Note_on_c, 9, 44, 0
5, 191750, Note_on_c, 9, 51, 63
5, 191798, Note_on_c, 9, 51, 0
5, 191840, Note_on_c, 9, 51, 0
5, 191884, Note_on_c, 9, 38, 64
5, 191888, Note_on_c, 9, 51, 42
5, 191900, Note_on_c, 9, 37, 57
5, 191936, Note_on_c, 9, 51, 0
5, 191976, Note_on_c, 9, 37, 0
5, 191976, Note_on_c, 9, 51, 61
5, 191988, Note_on_c, 9, 38, 0
5, 192008, Note_on_c, 9, 36, 51
5, 192196, Note_on_c, 9, 36, 0
5, 192252, Note_on_c, 9, 36, 39
5, 192276, Note_on_c, 9, 51, 0
5, 192308, Note_on_c, 9, 36, 0
5, 192372, Note_on_c, 9, 51, 72
5, 192376, Note_on_c, 9, 44, 68
5, 192496, Note_on_c, 9, 44, 0
5, 192636, Note_on_c, 9, 51, 0
5, 192676, Note_on_c, 9, 51, 20
5, 192700, Note_on_c, 9, 51, 0
5, 192748, Note_on_c, 9, 51, 53
5, 193020, Note_on_c, 9, 51, 0
5, 193020, Note_on_c, 9, 38, 56
5, 193112, Note_on_c, 9, 38, 0
5, 193132, Note_on_c, 9, 51, 75
5, 193144, Note_on_c, 9, 44, 69
5, 193164, Note_on_c, 9, 57, 46
5, 193164, Note_on_c, 9, 36, 38
5, 193256, Note_on_c, 9, 44, 0
5, 193296, Note_on_c, 9, 57, 0
5, 193316, Note_on_c, 9, 51, 0
5, 193344, Note_on_c, 9, 36, 0
5, 193412, Note_on_c, 9, 51, 38
5, 193440, Note_on_c, 9, 51, 0
5, 193504, Note_on_c, 9, 51, 64
5, 193772, Note_on_c, 9, 38, 47
5, 193776, Note_on_c, 9, 51, 0
5, 193856, Note_on_c, 9, 38, 0
5, 193876, Note_on_c, 9, 51, 71
5, 193896, Note_on_c, 9, 57, 55
5, 193900, Note_on_c, 9, 36, 37
5, 193912, Note_on_c, 9, 44, 71
5, 194000, Note_on_c, 9, 44, 0
5, 194036, Note_on_c, 9, 57, 0
5, 194072, Note_on_c, 9, 51, 0
5, 194084, Note_on_c, 9, 36, 0
5, 194184, Note_on_c, 9, 51, 38
5, 194208, Note_on_c, 9, 51, 0
5, 194280, Note_on_c, 9, 51, 62
5, 194540, Note_on_c, 9, 38, 54
5, 194564, Note_on_c, 9, 51, 0
5, 194636, Note_on_c, 9, 38, 0
5, 194660, Note_on_c, 9, 51, 78
5, 194680, Note_on_c, 9, 46, 51
5, 194692, Note_on_c, 9, 36, 26
5, 194700, Note_on_c, 9, 57, 46
5, 194748, Note_on_c, 9, 57, 0
5, 194776, Note_on_c, 9, 46, 0
5, 194800, Note_on_c, 9, 36, 0
5, 194828, Note_on_c, 9, 51, 0
5, 194936, Note_on_c, 9, 36, 56
5, 194944, Note_on_c, 9, 51, 46
5, 194964, Note_on_c, 9, 51, 0
5, 195012, Note_on_c, 9, 36, 0
5, 195060, Note_on_c, 9, 51, 59
5, 195080, Note_on_c, 9, 51, 0
5, 195304, Note_on_c, 9, 51, 86
5, 195380, Note_on_c, 9, 51, 0
5, 195440, Note_on_c, 9, 51, 35
5, 195448, Note_on_c, 9, 44, 61
5, 195520, Note_on_c, 9, 44, 0
5, 195572, Note_on_c, 9, 51, 0
5, 195704, Note_on_c, 9, 38, 53
5, 195708, Note_on_c, 9, 53, 67
5, 195776, Note_on_c, 9, 53, 0
5, 195776, Note_on_c, 9, 38, 0
5, 195852, Note_on_c, 9, 36, 23
5, 196008, Note_on_c, 9, 36, 0
5, 196080, Note_on_c, 9, 36, 32
5, 196084, Note_on_c, 9, 53, 82
5, 196136, Note_on_c, 9, 36, 0
5, 196172, Note_on_c, 9, 53, 0
5, 196216, Note_on_c, 9, 44, 67
5, 196240, Note_on_c, 9, 38, 28
5, 196268, Note_on_c, 9, 38, 0
5, 196352, Note_on_c, 9, 44, 0
5, 196476, Note_on_c, 9, 38, 56
5, 196480, Note_on_c, 9, 51, 47
5, 196496, Note_on_c, 9, 38, 0
5, 196508, Note_on_c, 9, 51, 0
5, 196624, Note_on_c, 9, 53, 84
5, 196632, Note_on_c, 9, 45, 58
5, 196712, Note_on_c, 9, 45, 0
5, 196752, Note_on_c, 9, 43, 71
5, 196800, Note_on_c, 9, 43, 0
5, 196812, Note_on_c, 9, 53, 0
5, 196852, Note_on_c, 9, 51, 56
5, 196888, Note_on_c, 9, 36, 43
5, 196892, Note_on_c, 9, 51, 0
5, 196952, Note_on_c, 9, 36, 0
5, 196984, Note_on_c, 9, 44, 67
5, 197008, Note_on_c, 9, 51, 57
5, 197020, Note_on_c, 9, 41, 66
5, 197056, Note_on_c, 9, 51, 0
5, 197064, Note_on_c, 9, 41, 0
5, 197096, Note_on_c, 9, 44, 0
5, 197132, Note_on_c, 9, 38, 56
5, 197208, Note_on_c, 9, 38, 0
5, 197224, Note_on_c, 9, 57, 81
5, 197236, Note_on_c, 9, 51, 63
5, 197276, Note_on_c, 9, 38, 54
5, 197280, Note_on_c, 9, 57, 81
5, 197296, Note_on_c, 9, 36, 49
5, 197304, Note_on_c, 9, 38, 0
5, 197812, Note_on_c, 9, 57, 0
5, 197900, Note_on_c, 9, 57, 0
5, 197904, Note_on_c, 9, 51, 0
5, 198128, Note_on_c, 9, 36, 0
5, 198128, End_track
6, 0, Start_track
6, 0, End_track
0, 0, End_of_file
