0, 0, Header, 1, 2, 120
1, 0, Start_track
1, 0, Title_t, "untitled"
1, 0, Copyright_t, "Copyright © 1999 by Doug McKenzie"
1, 0, Text_t, "Doug McKenzie\012"
1, 0, Time_signature, 3, 2, 24, 8
1, 0, Key_signature, -1, "major"
1, 0, Tempo, 545455
1, 0, End_track
2, 0, Start_track
2, 0, MIDI_port, 0
2, 0, Title_t, ""
2, 8, Note_on_c, 0, 60, 48
2, 10, Note_on_c, 0, 41, 32
2, 11, Note_on_c, 0, 57, 40
2, 13, Note_on_c, 0, 53, 19
2, 16, Note_on_c, 0, 48, 25
2, 50, Control_c, 0, 64, 127
2, 85, Note_on_c, 0, 57, 0
2, 98, Note_on_c, 0, 53, 0
2, 135, Note_on_c, 0, 53, 28
2, 135, Note_on_c, 0, 57, 36
2, 154, Note_on_c, 0, 53, 0
2, 161, Note_on_c, 0, 57, 0
2, 181, Note_on_c, 0, 60, 0
2, 256, Note_on_c, 0, 57, 45
2, 257, Note_on_c, 0, 60, 56
2, 259, Note_on_c, 0, 53, 37
2, 271, Note_on_c, 0, 41, 0
2, 278, Note_on_c, 0, 53, 0
2, 284, Note_on_c, 0, 57, 0
2, 315, Note_on_c, 0, 60, 0
2, 331, Note_on_c, 0, 41, 50
2, 340, Note_on_c, 0, 48, 0
2, 372, Note_on_c, 0, 57, 87
2, 372, Note_on_c, 0, 48, 68
2, 373, Note_on_c, 0, 60, 83
2, 374, Note_on_c, 0, 53, 79
2, 381, Control_c, 0, 64, 0
2, 427, Control_c, 0, 64, 127
2, 437, Note_on_c, 0, 57, 0
2, 451, Note_on_c, 0, 53, 0
2, 484, Note_on_c, 0, 60, 0
2, 490, Note_on_c, 0, 53, 31
2, 492, Note_on_c, 0, 57, 41
2, 521, Note_on_c, 0, 53, 0
2, 538, Note_on_c, 0, 57, 0
2, 574, Note_on_c, 0, 53, 57
2, 593, Note_on_c, 0, 53, 0
2, 610, Note_on_c, 0, 56, 53
2, 618, Control_c, 0, 64, 0
2, 622, Note_on_c, 0, 56, 0
2, 626, Note_on_c, 0, 57, 58
2, 628, Note_on_c, 0, 41, 0
2, 642, Note_on_c, 0, 57, 0
2, 656, Note_on_c, 0, 60, 61
2, 672, Note_on_c, 0, 48, 0
2, 674, Control_c, 0, 64, 127
2, 676, Note_on_c, 0, 60, 0
2, 686, Note_on_c, 0, 62, 71
2, 710, Note_on_c, 0, 62, 0
2, 724, Note_on_c, 0, 62, 76
2, 727, Control_c, 0, 64, 0
2, 730, Note_on_c, 0, 53, 43
2, 732, Note_on_c, 0, 45, 34
2, 733, Note_on_c, 0, 38, 54
2, 733, Note_on_c, 0, 57, 44
2, 783, Control_c, 0, 64, 127
2, 808, Note_on_c, 0, 57, 0
2, 809, Note_on_c, 0, 53, 0
2, 846, Note_on_c, 0, 57, 43
2, 849, Note_on_c, 0, 50, 30
2, 850, Note_on_c, 0, 53, 17
2, 890, Note_on_c, 0, 53, 0
2, 903, Note_on_c, 0, 57, 0
2, 920, Note_on_c, 0, 62, 0
2, 967, Note_on_c, 0, 62, 39
2, 969, Note_on_c, 0, 53, 24
2, 971, Note_on_c, 0, 45, 0
2, 971, Note_on_c, 0, 57, 44
2, 986, Note_on_c, 0, 50, 0
2, 1025, Note_on_c, 0, 53, 0
2, 1028, Note_on_c, 0, 57, 0
2, 1040, Note_on_c, 0, 38, 0
2, 1047, Note_on_c, 0, 45, 32
2, 1084, Note_on_c, 0, 57, 71
2, 1085, Note_on_c, 0, 53, 48
2, 1085, Note_on_c, 0, 52, 70
2, 1092, Control_c, 0, 64, 0
2, 1145, Control_c, 0, 64, 127
2, 1180, Note_on_c, 0, 53, 0
2, 1181, Note_on_c, 0, 52, 0
2, 1187, Note_on_c, 0, 57, 0
2, 1205, Note_on_c, 0, 57, 58
2, 1205, Control_c, 0, 64, 0
2, 1206, Note_on_c, 0, 50, 59
2, 1207, Note_on_c, 0, 53, 25
2, 1238, Control_c, 0, 64, 127
2, 1288, Note_on_c, 0, 53, 0
2, 1304, Note_on_c, 0, 57, 0
2, 1311, Note_on_c, 0, 62, 0
2, 1318, Note_on_c, 0, 38, 61
2, 1343, Note_on_c, 0, 38, 0
2, 1349, Note_on_c, 0, 45, 0
2, 1363, Note_on_c, 0, 62, 74
2, 1366, Note_on_c, 0, 50, 0
2, 1385, Note_on_c, 0, 62, 0
2, 1397, Note_on_c, 0, 61, 64
2, 1420, Note_on_c, 0, 61, 0
2, 1437, Note_on_c, 0, 62, 42
2, 1438, Note_on_c, 0, 58, 45
2, 1441, Note_on_c, 0, 53, 45
2, 1443, Control_c, 0, 64, 0
2, 1443, Note_on_c, 0, 43, 37
2, 1444, Note_on_c, 0, 50, 33
2, 1482, Control_c, 0, 64, 127
2, 1506, Note_on_c, 0, 53, 0
2, 1515, Note_on_c, 0, 58, 0
2, 1518, Note_on_c, 0, 50, 0
2, 1565, Note_on_c, 0, 50, 34
2, 1566, Note_on_c, 0, 58, 37
2, 1573, Note_on_c, 0, 53, 17
2, 1583, Note_on_c, 0, 53, 0
2, 1593, Note_on_c, 0, 50, 0
2, 1610, Note_on_c, 0, 58, 0
2, 1621, Note_on_c, 0, 62, 0
2, 1639, Note_on_c, 0, 64, 68
2, 1642, Note_on_c, 0, 58, 64
2, 1643, Note_on_c, 0, 52, 66
2, 1644, Note_on_c, 0, 55, 67
2, 1657, Note_on_c, 0, 64, 0
2, 1662, Note_on_c, 0, 55, 0
2, 1667, Note_on_c, 0, 52, 0
2, 1668, Note_on_c, 0, 58, 0
2, 1686, Control_c, 0, 64, 0
2, 1687, Note_on_c, 0, 58, 48
2, 1688, Note_on_c, 0, 65, 58
2, 1688, Note_on_c, 0, 53, 54
2, 1689, Note_on_c, 0, 62, 67
2, 1690, Note_on_c, 0, 55, 60
2, 1695, Note_on_c, 0, 43, 0
2, 1711, Control_c, 0, 64, 127
2, 1730, Note_on_c, 0, 55, 0
2, 1737, Note_on_c, 0, 53, 0
2, 1737, Note_on_c, 0, 58, 0
2, 1737, Note_on_c, 0, 62, 0
2, 1740, Note_on_c, 0, 65, 0
2, 1804, Note_on_c, 0, 67, 70
2, 1804, Control_c, 0, 64, 0
2, 1805, Note_on_c, 0, 62, 69
2, 1806, Note_on_c, 0, 64, 66
2, 1806, Note_on_c, 0, 58, 62
2, 1806, Note_on_c, 0, 48, 50
2, 1810, Note_on_c, 0, 57, 54
2, 1834, Control_c, 0, 64, 127
2, 1844, Note_on_c, 0, 57, 0
2, 1849, Note_on_c, 0, 67, 0
2, 1855, Note_on_c, 0, 62, 0
2, 1855, Note_on_c, 0, 64, 0
2, 1864, Note_on_c, 0, 58, 0
2, 1923, Note_on_c, 0, 62, 74
2, 1924, Note_on_c, 0, 65, 77
2, 1924, Note_on_c, 0, 58, 72
2, 1926, Note_on_c, 0, 55, 71
2, 1927, Control_c, 0, 64, 0
2, 1929, Note_on_c, 0, 53, 50
2, 1944, Note_on_c, 0, 48, 0
2, 1960, Control_c, 0, 64, 127
2, 2003, Note_on_c, 0, 55, 0
2, 2004, Note_on_c, 0, 58, 0
2, 2009, Note_on_c, 0, 62, 0
2, 2025, Note_on_c, 0, 53, 0
2, 2026, Note_on_c, 0, 65, 0
2, 2120, Note_on_c, 0, 65, 36
2, 2121, Note_on_c, 0, 48, 32
2, 2128, Note_on_c, 0, 65, 0
2, 2146, Note_on_c, 0, 48, 0
2, 2155, Control_c, 0, 64, 0
2, 2163, Note_on_c, 0, 41, 49
2, 2165, Note_on_c, 0, 69, 55
2, 2166, Note_on_c, 0, 63, 46
2, 2166, Note_on_c, 0, 51, 29
2, 2179, Note_on_c, 0, 41, 0
2, 2182, Control_c, 0, 64, 127
2, 2194, Note_on_c, 0, 51, 0
2, 2235, Note_on_c, 0, 63, 0
2, 2281, Note_on_c, 0, 63, 42
2, 2282, Note_on_c, 0, 69, 0
2, 2285, Note_on_c, 0, 53, 31
2, 2287, Note_on_c, 0, 58, 37
2, 2290, Note_on_c, 0, 60, 27
2, 2298, Note_on_c, 0, 60, 0
2, 2304, Note_on_c, 0, 63, 0
2, 2363, Note_on_c, 0, 74, 75
2, 2380, Note_on_c, 0, 53, 0
2, 2393, Note_on_c, 0, 58, 0
2, 2412, Note_on_c, 0, 74, 0
2, 2412, Note_on_c, 0, 67, 44
2, 2423, Note_on_c, 0, 67, 0
2, 2483, Note_on_c, 0, 86, 70
2, 2518, Note_on_c, 0, 86, 0
2, 2531, Note_on_c, 0, 74, 36
2, 2532, Note_on_c, 0, 67, 28
2, 2533, Note_on_c, 0, 57, 41
2, 2533, Note_on_c, 0, 79, 42
2, 2534, Note_on_c, 0, 63, 39
2, 2540, Control_c, 0, 64, 0
2, 2567, Control_c, 0, 64, 127
2, 2602, Note_on_c, 0, 74, 0
2, 2608, Note_on_c, 0, 86, 68
2, 2612, Note_on_c, 0, 67, 0
2, 2614, Note_on_c, 0, 79, 0
2, 2625, Note_on_c, 0, 63, 0
2, 2627, Note_on_c, 0, 86, 0
2, 2647, Control_c, 0, 64, 0
2, 2652, Note_on_c, 0, 74, 34
2, 2652, Note_on_c, 0, 63, 34
2, 2653, Note_on_c, 0, 84, 46
2, 2654, Note_on_c, 0, 65, 48
2, 2655, Note_on_c, 0, 81, 40
2, 2682, Control_c, 0, 64, 127
2, 2722, Note_on_c, 0, 57, 0
2, 2728, Note_on_c, 0, 84, 0
2, 2729, Note_on_c, 0, 81, 0
2, 2737, Note_on_c, 0, 74, 0
2, 2762, Note_on_c, 0, 65, 0
2, 2773, Note_on_c, 0, 57, 39
2, 2780, Note_on_c, 0, 63, 0
2, 2790, Note_on_c, 0, 57, 0
2, 2900, Control_c, 0, 64, 0
2, 2906, Control_c, 0, 64, 127
2, 2967, Note_on_c, 0, 47, 66
2, 2982, Control_c, 0, 64, 0
2, 3005, Control_c, 0, 64, 127
2, 3085, Note_on_c, 0, 66, 71
2, 3086, Note_on_c, 0, 74, 71
2, 3087, Note_on_c, 0, 62, 74
2, 3090, Note_on_c, 0, 57, 58
2, 3095, Control_c, 0, 64, 0
2, 3126, Control_c, 0, 64, 127
2, 3143, Note_on_c, 0, 74, 0
2, 3150, Note_on_c, 0, 47, 0
2, 3161, Note_on_c, 0, 62, 0
2, 3162, Note_on_c, 0, 66, 0
2, 3168, Note_on_c, 0, 74, 44
2, 3169, Note_on_c, 0, 57, 0
2, 3188, Note_on_c, 0, 74, 0
2, 3204, Note_on_c, 0, 74, 56
2, 3231, Note_on_c, 0, 74, 0
2, 3245, Note_on_c, 0, 56, 56
2, 3246, Control_c, 0, 64, 0
2, 3270, Control_c, 0, 64, 127
2, 3361, Note_on_c, 0, 80, 69
2, 3361, Note_on_c, 0, 62, 41
2, 3362, Note_on_c, 0, 67, 36
2, 3362, Note_on_c, 0, 68, 55
2, 3419, Note_on_c, 0, 68, 0
2, 3419, Note_on_c, 0, 80, 0
2, 3420, Note_on_c, 0, 67, 0
2, 3428, Note_on_c, 0, 62, 0
2, 3440, Note_on_c, 0, 81, 74
2, 3442, Note_on_c, 0, 69, 76
2, 3457, Note_on_c, 0, 69, 0
2, 3461, Note_on_c, 0, 81, 0
2, 3478, Note_on_c, 0, 67, 48
2, 3478, Note_on_c, 0, 62, 50
2, 3480, Control_c, 0, 64, 0
2, 3482, Note_on_c, 0, 71, 87
2, 3482, Note_on_c, 0, 83, 77
2, 3486, Note_on_c, 0, 81, 47
2, 3493, Note_on_c, 0, 81, 0
2, 3493, Control_c, 0, 64, 127
2, 3514, Note_on_c, 0, 67, 0
2, 3514, Note_on_c, 0, 62, 0
2, 3548, Note_on_c, 0, 56, 0
2, 3553, Note_on_c, 0, 83, 0
2, 3554, Note_on_c, 0, 71, 0
2, 3596, Note_on_c, 0, 57, 50
2, 3599, Note_on_c, 0, 84, 67
2, 3601, Note_on_c, 0, 72, 53
2, 3604, Control_c, 0, 64, 0
2, 3643, Control_c, 0, 64, 127
2, 3680, Note_on_c, 0, 64, 43
2, 3680, Note_on_c, 0, 60, 42
2, 3779, Note_on_c, 0, 57, 0
2, 3797, Note_on_c, 0, 56, 59
2, 3809, Note_on_c, 0, 64, 0
2, 3814, Note_on_c, 0, 60, 0
2, 3826, Control_c, 0, 64, 0
2, 3850, Note_on_c, 0, 64, 30
2, 3852, Note_on_c, 0, 60, 33
2, 3863, Control_c, 0, 64, 127
2, 3909, Note_on_c, 0, 56, 0
2, 3925, Note_on_c, 0, 55, 71
2, 3939, Note_on_c, 0, 64, 0
2, 3946, Note_on_c, 0, 60, 0
2, 3949, Control_c, 0, 64, 0
2, 3978, Control_c, 0, 64, 127
2, 3978, Note_on_c, 0, 64, 47
2, 3982, Note_on_c, 0, 60, 38
2, 4001, Note_on_c, 0, 55, 0
2, 4005, Note_on_c, 0, 64, 0
2, 4090, Note_on_c, 0, 52, 60
2, 4093, Control_c, 0, 64, 0
2, 4110, Control_c, 0, 64, 127
2, 4112, Note_on_c, 0, 52, 0
2, 4134, Note_on_c, 0, 60, 0
2, 4207, Note_on_c, 0, 60, 50
2, 4207, Note_on_c, 0, 64, 46
2, 4212, Note_on_c, 0, 84, 0
2, 4213, Note_on_c, 0, 57, 22
2, 4220, Note_on_c, 0, 72, 0
2, 4220, Note_on_c, 0, 64, 0
2, 4225, Note_on_c, 0, 60, 0
2, 4230, Note_on_c, 0, 57, 0
2, 4283, Note_on_c, 0, 44, 39
2, 4305, Note_on_c, 0, 44, 0
2, 4323, Note_on_c, 0, 50, 49
2, 4325, Note_on_c, 0, 67, 55
2, 4325, Note_on_c, 0, 58, 52
2, 4326, Note_on_c, 0, 43, 49
2, 4328, Control_c, 0, 64, 0
2, 4332, Note_on_c, 0, 62, 30
2, 4365, Control_c, 0, 64, 127
2, 4394, Note_on_c, 0, 62, 0
2, 4406, Note_on_c, 0, 58, 0
2, 4442, Note_on_c, 0, 67, 0
2, 4443, Note_on_c, 0, 62, 38
2, 4445, Note_on_c, 0, 58, 36
2, 4449, Note_on_c, 0, 53, 29
2, 4449, Note_on_c, 0, 55, 39
2, 4488, Note_on_c, 0, 53, 0
2, 4494, Note_on_c, 0, 62, 0
2, 4500, Note_on_c, 0, 55, 0
2, 4501, Note_on_c, 0, 58, 0
2, 4541, Note_on_c, 0, 50, 0
2, 4563, Note_on_c, 0, 58, 37
2, 4564, Note_on_c, 0, 43, 0
2, 4564, Note_on_c, 0, 62, 44
2, 4566, Note_on_c, 0, 55, 38
2, 4603, Note_on_c, 0, 58, 0
2, 4604, Note_on_c, 0, 55, 0
2, 4621, Note_on_c, 0, 62, 0
2, 4637, Note_on_c, 0, 33, 53
2, 4663, Note_on_c, 0, 33, 0
2, 4676, Note_on_c, 0, 26, 74
2, 4677, Note_on_c, 0, 38, 74
2, 4678, Note_on_c, 0, 66, 77
2, 4678, Note_on_c, 0, 54, 85
2, 4678, Note_on_c, 0, 60, 85
2, 4685, Control_c, 0, 64, 0
2, 4716, Control_c, 0, 64, 127
2, 4728, Note_on_c, 0, 26, 0
2, 4730, Note_on_c, 0, 54, 0
2, 4738, Note_on_c, 0, 60, 0
2, 4742, Note_on_c, 0, 38, 0
2, 4748, Note_on_c, 0, 66, 0
2, 4872, Note_on_c, 0, 62, 46
2, 4872, Note_on_c, 0, 60, 42
2, 4873, Note_on_c, 0, 54, 45
2, 4935, Note_on_c, 0, 60, 0
2, 4939, Note_on_c, 0, 62, 0
2, 4958, Note_on_c, 0, 67, 53
2, 4975, Note_on_c, 0, 67, 0
2, 4985, Note_on_c, 0, 54, 0
2, 4995, Note_on_c, 0, 69, 91
2, 5017, Note_on_c, 0, 69, 0
2, 5036, Note_on_c, 0, 70, 83
2, 5037, Note_on_c, 0, 63, 57
2, 5037, Note_on_c, 0, 59, 55
2, 5037, Note_on_c, 0, 53, 60
2, 5039, Control_c, 0, 64, 0
2, 5074, Control_c, 0, 64, 127
2, 5097, Note_on_c, 0, 63, 0
2, 5107, Note_on_c, 0, 59, 0
2, 5116, Note_on_c, 0, 53, 0
2, 5148, Note_on_c, 0, 70, 0
2, 5224, Control_c, 0, 64, 0
2, 5225, Note_on_c, 0, 68, 42
2, 5227, Note_on_c, 0, 63, 43
2, 5228, Note_on_c, 0, 59, 40
2, 5228, Note_on_c, 0, 49, 31
2, 5230, Note_on_c, 0, 58, 19
2, 5230, Note_on_c, 0, 56, 32
2, 5255, Control_c, 0, 64, 127
2, 5282, Note_on_c, 0, 58, 0
2, 5297, Note_on_c, 0, 59, 0
2, 5297, Note_on_c, 0, 56, 0
2, 5306, Note_on_c, 0, 49, 0
2, 5307, Note_on_c, 0, 68, 0
2, 5316, Note_on_c, 0, 63, 0
2, 5387, Control_c, 0, 64, 0
2, 5394, Note_on_c, 0, 58, 34
2, 5394, Note_on_c, 0, 55, 44
2, 5395, Note_on_c, 0, 67, 35
2, 5395, Note_on_c, 0, 62, 41
2, 5400, Note_on_c, 0, 48, 41
2, 5400, Note_on_c, 0, 65, 42
2, 5402, Note_on_c, 0, 55, 0
2, 5408, Note_on_c, 0, 65, 0
2, 5412, Note_on_c, 0, 67, 0
2, 5413, Note_on_c, 0, 48, 0
2, 5413, Note_on_c, 0, 62, 0
2, 5415, Note_on_c, 0, 58, 0
2, 5482, Note_on_c, 0, 60, 70
2, 5496, Note_on_c, 0, 60, 0
2, 5518, Note_on_c, 0, 60, 24
2, 5523, Note_on_c, 0, 61, 55
2, 5530, Note_on_c, 0, 61, 0
2, 5533, Note_on_c, 0, 62, 62
2, 5536, Note_on_c, 0, 60, 0
2, 5549, Note_on_c, 0, 62, 0
2, 5560, Note_on_c, 0, 65, 60
2, 5564, Note_on_c, 0, 53, 62
2, 5590, Note_on_c, 0, 53, 0
2, 5598, Note_on_c, 0, 65, 0
2, 5606, Control_c, 0, 64, 127
2, 5613, Control_c, 0, 64, 0
2, 5644, Note_on_c, 0, 53, 45
2, 5645, Note_on_c, 0, 58, 45
2, 5645, Note_on_c, 0, 65, 46
2, 5646, Note_on_c, 0, 62, 48
2, 5650, Note_on_c, 0, 48, 32
2, 5687, Note_on_c, 0, 62, 0
2, 5688, Note_on_c, 0, 48, 0
2, 5698, Note_on_c, 0, 53, 0
2, 5704, Control_c, 0, 64, 127
2, 5707, Note_on_c, 0, 65, 0
2, 5707, Note_on_c, 0, 58, 0
2, 5727, Note_on_c, 0, 62, 37
2, 5729, Note_on_c, 0, 40, 38
2, 5749, Note_on_c, 0, 62, 0
2, 5755, Note_on_c, 0, 40, 0
2, 5757, Control_c, 0, 64, 0
2, 5766, Note_on_c, 0, 57, 31
2, 5769, Note_on_c, 0, 60, 37
2, 5769, Note_on_c, 0, 65, 33
2, 5771, Note_on_c, 0, 41, 35
2, 5803, Control_c, 0, 64, 127
2, 5835, Note_on_c, 0, 60, 0
2, 5835, Note_on_c, 0, 57, 0
2, 5877, Note_on_c, 0, 41, 0
2, 5889, Note_on_c, 0, 57, 34
2, 5890, Note_on_c, 0, 60, 40
2, 5940, Note_on_c, 0, 60, 0
2, 5949, Note_on_c, 0, 65, 0
2, 5973, Note_on_c, 0, 48, 58
2, 5977, Note_on_c, 0, 57, 0
2, 5997, Note_on_c, 0, 48, 0
2, 6008, Note_on_c, 0, 50, 92
2, 6011, Note_on_c, 0, 58, 99
2, 6012, Control_c, 0, 64, 0
2, 6012, Note_on_c, 0, 65, 94
2, 6064, Note_on_c, 0, 65, 0
2, 6066, Control_c, 0, 64, 127
2, 6086, Note_on_c, 0, 56, 60
2, 6086, Note_on_c, 0, 65, 32
2, 6090, Note_on_c, 0, 49, 32
2, 6106, Note_on_c, 0, 65, 0
2, 6110, Note_on_c, 0, 50, 0
2, 6112, Note_on_c, 0, 56, 0
2, 6114, Note_on_c, 0, 58, 0
2, 6116, Note_on_c, 0, 49, 0
2, 6120, Control_c, 0, 64, 0
2, 6131, Note_on_c, 0, 65, 58
2, 6131, Note_on_c, 0, 41, 51
2, 6132, Note_on_c, 0, 48, 38
2, 6132, Note_on_c, 0, 57, 51
2, 6163, Control_c, 0, 64, 127
2, 6183, Note_on_c, 0, 48, 0
2, 6199, Note_on_c, 0, 57, 0
2, 6248, Note_on_c, 0, 48, 38
2, 6252, Note_on_c, 0, 60, 44
2, 6253, Note_on_c, 0, 57, 26
2, 6278, Note_on_c, 0, 57, 0
2, 6282, Note_on_c, 0, 65, 0
2, 6286, Note_on_c, 0, 48, 0
2, 6292, Note_on_c, 0, 60, 0
2, 6323, Note_on_c, 0, 56, 59
2, 6352, Note_on_c, 0, 56, 0
2, 6365, Note_on_c, 0, 57, 55
2, 6373, Note_on_c, 0, 41, 0
2, 6377, Control_c, 0, 64, 0
2, 6382, Note_on_c, 0, 57, 0
2, 6404, Note_on_c, 0, 60, 47
2, 6412, Note_on_c, 0, 60, 0
2, 6418, Control_c, 0, 64, 127
2, 6450, Note_on_c, 0, 67, 61
2, 6465, Note_on_c, 0, 67, 0
2, 6489, Note_on_c, 0, 53, 38
2, 6490, Control_c, 0, 64, 0
2, 6490, Note_on_c, 0, 64, 26
2, 6490, Note_on_c, 0, 57, 50
2, 6492, Note_on_c, 0, 62, 31
2, 6492, Note_on_c, 0, 38, 46
2, 6542, Control_c, 0, 64, 127
2, 6567, Note_on_c, 0, 53, 0
2, 6570, Note_on_c, 0, 62, 0
2, 6571, Note_on_c, 0, 64, 0
2, 6576, Note_on_c, 0, 57, 0
2, 6605, Note_on_c, 0, 38, 0
2, 6605, Note_on_c, 0, 50, 36
2, 6606, Note_on_c, 0, 60, 46
2, 6608, Note_on_c, 0, 57, 24
2, 6616, Note_on_c, 0, 57, 0
2, 6623, Note_on_c, 0, 50, 0
2, 6625, Note_on_c, 0, 60, 0
2, 6681, Note_on_c, 0, 76, 81
2, 6710, Note_on_c, 0, 76, 0
2, 6722, Note_on_c, 0, 69, 56
2, 6724, Note_on_c, 0, 65, 42
2, 6725, Control_c, 0, 64, 0
2, 6727, Note_on_c, 0, 64, 38
2, 6743, Control_c, 0, 64, 127
2, 6764, Note_on_c, 0, 64, 0
2, 6793, Note_on_c, 0, 65, 0
2, 6797, Note_on_c, 0, 69, 0
2, 6801, Note_on_c, 0, 50, 42
2, 6811, Note_on_c, 0, 50, 0
2, 6834, Control_c, 0, 64, 0
2, 6839, Note_on_c, 0, 74, 68
2, 6842, Note_on_c, 0, 69, 67
2, 6842, Note_on_c, 0, 65, 62
2, 6844, Note_on_c, 0, 61, 60
2, 6893, Note_on_c, 0, 69, 0
2, 6894, Note_on_c, 0, 61, 0
2, 6896, Note_on_c, 0, 74, 0
2, 6898, Note_on_c, 0, 65, 0
2, 6900, Control_c, 0, 64, 127
2, 6926, Note_on_c, 0, 57, 35
2, 6941, Control_c, 0, 64, 0
2, 6943, Note_on_c, 0, 57, 0
2, 6959, Note_on_c, 0, 65, 61
2, 6961, Note_on_c, 0, 72, 37
2, 6962, Note_on_c, 0, 60, 53
2, 6963, Note_on_c, 0, 69, 51
2, 7003, Note_on_c, 0, 69, 0
2, 7003, Note_on_c, 0, 72, 0
2, 7008, Note_on_c, 0, 65, 0
2, 7015, Control_c, 0, 64, 127
2, 7042, Note_on_c, 0, 60, 0
2, 7044, Note_on_c, 0, 50, 55
2, 7083, Control_c, 0, 64, 0
2, 7084, Note_on_c, 0, 62, 74
2, 7085, Note_on_c, 0, 50, 0
2, 7110, Note_on_c, 0, 62, 0
2, 7152, Control_c, 0, 64, 127
2, 7159, Note_on_c, 0, 62, 68
2, 7162, Note_on_c, 0, 44, 46
2, 7163, Note_on_c, 0, 54, 36
2, 7197, Note_on_c, 0, 54, 0
2, 7198, Control_c, 0, 64, 0
2, 7204, Note_on_c, 0, 44, 0
2, 7211, Note_on_c, 0, 53, 31
2, 7216, Note_on_c, 0, 43, 34
2, 7225, Control_c, 0, 64, 127
2, 7250, Note_on_c, 0, 53, 0
2, 7295, Note_on_c, 0, 50, 30
2, 7314, Note_on_c, 0, 50, 0
2, 7319, Control_c, 0, 64, 0
2, 7324, Note_on_c, 0, 58, 47
2, 7326, Note_on_c, 0, 55, 37
2, 7332, Control_c, 0, 64, 127
2, 7357, Note_on_c, 0, 62, 0
2, 7374, Note_on_c, 0, 58, 0
2, 7375, Note_on_c, 0, 55, 0
2, 7391, Note_on_c, 0, 43, 0
2, 7399, Note_on_c, 0, 64, 61
2, 7401, Note_on_c, 0, 58, 57
2, 7401, Note_on_c, 0, 48, 52
2, 7404, Note_on_c, 0, 55, 40
2, 7417, Note_on_c, 0, 64, 0
2, 7422, Note_on_c, 0, 55, 0
2, 7432, Note_on_c, 0, 58, 0
2, 7439, Control_c, 0, 64, 0
2, 7441, Note_on_c, 0, 48, 0
2, 7446, Note_on_c, 0, 58, 26
2, 7448, Note_on_c, 0, 65, 44
2, 7449, Note_on_c, 0, 55, 40
2, 7453, Note_on_c, 0, 50, 38
2, 7482, Note_on_c, 0, 65, 0
2, 7486, Control_c, 0, 64, 127
2, 7496, Note_on_c, 0, 58, 0
2, 7508, Note_on_c, 0, 55, 0
2, 7566, Control_c, 0, 64, 0
2, 7566, Note_on_c, 0, 67, 54
2, 7568, Note_on_c, 0, 58, 47
2, 7569, Note_on_c, 0, 50, 0
2, 7569, Note_on_c, 0, 62, 57
2, 7572, Note_on_c, 0, 52, 45
2, 7572, Note_on_c, 0, 64, 43
2, 7601, Control_c, 0, 64, 127
2, 7614, Note_on_c, 0, 67, 0
2, 7616, Note_on_c, 0, 64, 0
2, 7616, Note_on_c, 0, 62, 0
2, 7633, Note_on_c, 0, 58, 0
2, 7638, Note_on_c, 0, 52, 0
2, 7668, Note_on_c, 0, 46, 21
2, 7680, Note_on_c, 0, 46, 0
2, 7684, Note_on_c, 0, 48, 43
2, 7685, Note_on_c, 0, 65, 57
2, 7686, Note_on_c, 0, 55, 45
2, 7686, Control_c, 0, 64, 0
2, 7687, Note_on_c, 0, 62, 37
2, 7688, Note_on_c, 0, 58, 49
2, 7737, Control_c, 0, 64, 127
2, 7784, Control_c, 0, 64, 0
2, 7797, Control_c, 0, 64, 127
2, 7801, Note_on_c, 0, 36, 55
2, 7810, Note_on_c, 0, 36, 0
2, 7820, Note_on_c, 0, 48, 0
2, 7837, Note_on_c, 0, 62, 0
2, 7851, Note_on_c, 0, 65, 0
2, 7853, Note_on_c, 0, 55, 0
2, 7868, Note_on_c, 0, 58, 0
2, 7878, Note_on_c, 0, 64, 62
2, 7895, Note_on_c, 0, 64, 0
2, 7920, Control_c, 0, 64, 0
2, 7924, Note_on_c, 0, 51, 36
2, 7924, Note_on_c, 0, 69, 54
2, 7925, Note_on_c, 0, 63, 46
2, 7927, Note_on_c, 0, 41, 34
2, 7928, Note_on_c, 0, 60, 28
2, 7935, Note_on_c, 0, 41, 0
2, 7945, Control_c, 0, 64, 127
2, 7948, Note_on_c, 0, 51, 0
2, 7959, Note_on_c, 0, 60, 0
2, 7974, Note_on_c, 0, 63, 0
2, 7999, Note_on_c, 0, 69, 0
2, 8041, Note_on_c, 0, 63, 38
2, 8045, Note_on_c, 0, 58, 34
2, 8046, Note_on_c, 0, 53, 27
2, 8056, Control_c, 0, 64, 0
2, 8073, Note_on_c, 0, 65, 55
2, 8081, Note_on_c, 0, 65, 0
2, 8101, Note_on_c, 0, 67, 34
2, 8109, Note_on_c, 0, 67, 0
2, 8123, Note_on_c, 0, 70, 50
2, 8129, Note_on_c, 0, 70, 0
2, 8146, Note_on_c, 0, 72, 55
2, 8161, Note_on_c, 0, 72, 0
2, 8165, Note_on_c, 0, 74, 50
2, 8181, Note_on_c, 0, 74, 0
2, 8206, Note_on_c, 0, 77, 41
2, 8221, Note_on_c, 0, 53, 0
2, 8224, Note_on_c, 0, 77, 0
2, 8224, Note_on_c, 0, 79, 49
2, 8229, Note_on_c, 0, 58, 0
2, 8238, Note_on_c, 0, 63, 0
2, 8238, Note_on_c, 0, 81, 54
2, 8244, Control_c, 0, 64, 127
2, 8250, Note_on_c, 0, 79, 0
2, 8261, Note_on_c, 0, 82, 48
2, 8262, Note_on_c, 0, 81, 0
2, 8279, Note_on_c, 0, 82, 0
2, 8281, Note_on_c, 0, 84, 72
2, 8291, Control_c, 0, 64, 0
2, 8293, Note_on_c, 0, 57, 50
2, 8293, Note_on_c, 0, 67, 34
2, 8294, Note_on_c, 0, 63, 38
2, 8304, Note_on_c, 0, 82, 61
2, 8305, Note_on_c, 0, 84, 0
2, 8327, Note_on_c, 0, 82, 0
2, 8355, Note_on_c, 0, 78, 57
2, 8369, Note_on_c, 0, 78, 0
2, 8381, Control_c, 0, 64, 127
2, 8388, Note_on_c, 0, 81, 71
2, 8389, Control_c, 0, 64, 0
2, 8406, Note_on_c, 0, 81, 0
2, 8423, Note_on_c, 0, 67, 0
2, 8425, Note_on_c, 0, 79, 51
2, 8439, Note_on_c, 0, 63, 0
2, 8444, Note_on_c, 0, 79, 0
2, 8447, Note_on_c, 0, 57, 0
2, 8455, Note_on_c, 0, 74, 46
2, 8471, Note_on_c, 0, 74, 0
2, 8489, Note_on_c, 0, 77, 66
2, 8496, Control_c, 0, 64, 127
2, 8511, Note_on_c, 0, 77, 0
2, 8523, Control_c, 0, 64, 0
2, 8528, Note_on_c, 0, 75, 55
2, 8528, Note_on_c, 0, 63, 27
2, 8534, Note_on_c, 0, 53, 27
2, 8535, Note_on_c, 0, 60, 26
2, 8559, Note_on_c, 0, 75, 0
2, 8560, Control_c, 0, 64, 127
2, 8564, Note_on_c, 0, 71, 33
2, 8579, Note_on_c, 0, 71, 0
2, 8596, Note_on_c, 0, 74, 61
2, 8600, Note_on_c, 0, 63, 0
2, 8605, Note_on_c, 0, 60, 0
2, 8611, Note_on_c, 0, 53, 0
2, 8623, Note_on_c, 0, 74, 0
2, 8636, Note_on_c, 0, 72, 49
2, 8639, Control_c, 0, 64, 0
2, 8656, Note_on_c, 0, 72, 0
2, 8674, Note_on_c, 0, 69, 54
2, 8697, Note_on_c, 0, 69, 0
2, 8712, Control_c, 0, 64, 127
2, 8715, Note_on_c, 0, 65, 45
2, 8724, Note_on_c, 0, 65, 0
2, 8724, Note_on_c, 0, 46, 28
2, 8725, Note_on_c, 0, 53, 18
2, 8752, Note_on_c, 0, 62, 60
2, 8774, Note_on_c, 0, 62, 0
2, 8825, Note_on_c, 0, 62, 68
2, 8825, Note_on_c, 0, 69, 57
2, 8828, Note_on_c, 0, 58, 69
2, 8829, Note_on_c, 0, 57, 60
2, 8830, Note_on_c, 0, 65, 65
2, 8906, Note_on_c, 0, 46, 0
2, 8923, Note_on_c, 0, 58, 0
2, 8939, Note_on_c, 0, 62, 0
2, 8941, Note_on_c, 0, 65, 0
2, 8946, Note_on_c, 0, 69, 0
2, 8953, Note_on_c, 0, 57, 0
2, 8954, Note_on_c, 0, 46, 38
2, 8979, Note_on_c, 0, 46, 0
2, 8990, Note_on_c, 0, 53, 0
2, 9000, Note_on_c, 0, 72, 64
2, 9001, Note_on_c, 0, 51, 53
2, 9001, Note_on_c, 0, 65, 70
2, 9001, Note_on_c, 0, 61, 56
2, 9002, Control_c, 0, 64, 0
2, 9003, Note_on_c, 0, 58, 37
2, 9003, Note_on_c, 0, 69, 57
2, 9042, Control_c, 0, 64, 127
2, 9076, Note_on_c, 0, 58, 0
2, 9079, Note_on_c, 0, 72, 0
2, 9086, Note_on_c, 0, 65, 0
2, 9091, Note_on_c, 0, 61, 0
2, 9092, Note_on_c, 0, 69, 0
2, 9124, Control_c, 0, 64, 0
2, 9124, Note_on_c, 0, 70, 57
2, 9126, Note_on_c, 0, 61, 42
2, 9128, Note_on_c, 0, 58, 34
2, 9131, Note_on_c, 0, 65, 48
2, 9145, Control_c, 0, 64, 127
2, 9183, Note_on_c, 0, 58, 0
2, 9194, Note_on_c, 0, 70, 0
2, 9197, Note_on_c, 0, 65, 0
2, 9214, Note_on_c, 0, 69, 64
2, 9217, Note_on_c, 0, 65, 25
2, 9218, Note_on_c, 0, 58, 36
2, 9225, Control_c, 0, 64, 0
2, 9239, Control_c, 0, 64, 127
2, 9269, Note_on_c, 0, 61, 0
2, 9270, Note_on_c, 0, 65, 0
2, 9274, Note_on_c, 0, 58, 0
2, 9280, Note_on_c, 0, 69, 0
2, 9291, Note_on_c, 0, 67, 46
2, 9343, Note_on_c, 0, 51, 0
2, 9344, Note_on_c, 0, 67, 0
2, 9358, Note_on_c, 0, 53, 42
2, 9359, Note_on_c, 0, 70, 54
2, 9361, Note_on_c, 0, 65, 51
2, 9362, Control_c, 0, 64, 0
2, 9363, Note_on_c, 0, 60, 25
2, 9365, Note_on_c, 0, 62, 33
2, 9372, Note_on_c, 0, 62, 0
2, 9398, Control_c, 0, 64, 127
2, 9418, Note_on_c, 0, 65, 0
2, 9426, Note_on_c, 0, 70, 0
2, 9434, Note_on_c, 0, 60, 0
2, 9449, Note_on_c, 0, 69, 55
2, 9450, Note_on_c, 0, 64, 53
2, 9450, Note_on_c, 0, 60, 31
2, 9460, Control_c, 0, 64, 0
2, 9470, Control_c, 0, 64, 127
2, 9528, Note_on_c, 0, 60, 0
2, 9528, Note_on_c, 0, 64, 0
2, 9545, Note_on_c, 0, 69, 0
2, 9564, Note_on_c, 0, 67, 53
2, 9567, Note_on_c, 0, 64, 45
2, 9568, Note_on_c, 0, 60, 27
2, 9587, Note_on_c, 0, 60, 0
2, 9588, Note_on_c, 0, 64, 0
2, 9604, Note_on_c, 0, 67, 0
2, 9618, Note_on_c, 0, 65, 37
2, 9619, Note_on_c, 0, 67, 34
2, 9626, Note_on_c, 0, 60, 17
2, 9630, Note_on_c, 0, 67, 0
2, 9656, Note_on_c, 0, 60, 0
2, 9656, Note_on_c, 0, 65, 0
2, 9682, Note_on_c, 0, 53, 0
2, 9700, Note_on_c, 0, 50, 25
2, 9712, Note_on_c, 0, 50, 0
2, 9727, Control_c, 0, 64, 0
2, 9727, Note_on_c, 0, 56, 35
2, 9729, Note_on_c, 0, 64, 37
2, 9729, Note_on_c, 0, 44, 35
2, 9730, Note_on_c, 0, 53, 39
2, 9732, Note_on_c, 0, 59, 47
2, 9770, Control_c, 0, 64, 127
2, 9795, Note_on_c, 0, 53, 0
2, 9816, Note_on_c, 0, 59, 0
2, 9824, Note_on_c, 0, 56, 0
2, 9849, Note_on_c, 0, 56, 29
2, 9852, Note_on_c, 0, 59, 37
2, 9854, Note_on_c, 0, 53, 25
2, 9898, Note_on_c, 0, 53, 0
2, 9899, Note_on_c, 0, 56, 0
2, 9921, Note_on_c, 0, 59, 0
2, 9930, Note_on_c, 0, 44, 0
2, 9933, Note_on_c, 0, 50, 30
2, 9945, Note_on_c, 0, 64, 0
2, 9968, Note_on_c, 0, 56, 34
2, 9970, Note_on_c, 0, 62, 52
2, 9971, Note_on_c, 0, 59, 40
2, 9974, Control_c, 0, 64, 0
2, 9975, Note_on_c, 0, 44, 30
2, 9976, Note_on_c, 0, 50, 0
2, 10011, Note_on_c, 0, 56, 0
2, 10012, Note_on_c, 0, 59, 0
2, 10013, Control_c, 0, 64, 127
2, 10027, Note_on_c, 0, 62, 0
2, 10054, Note_on_c, 0, 50, 32
2, 10062, Note_on_c, 0, 44, 0
2, 10079, Control_c, 0, 64, 0
2, 10084, Note_on_c, 0, 62, 45
2, 10084, Note_on_c, 0, 43, 44
2, 10087, Note_on_c, 0, 58, 35
2, 10088, Note_on_c, 0, 53, 32
2, 10116, Control_c, 0, 64, 127
2, 10139, Note_on_c, 0, 62, 0
2, 10156, Note_on_c, 0, 53, 0
2, 10165, Note_on_c, 0, 50, 0
2, 10171, Note_on_c, 0, 58, 0
2, 10202, Control_c, 0, 64, 0
2, 10204, Note_on_c, 0, 61, 51
2, 10206, Note_on_c, 0, 58, 44
2, 10206, Note_on_c, 0, 50, 33
2, 10209, Note_on_c, 0, 53, 32
2, 10232, Note_on_c, 0, 50, 0
2, 10243, Control_c, 0, 64, 127
2, 10247, Note_on_c, 0, 53, 0
2, 10254, Note_on_c, 0, 61, 0
2, 10271, Note_on_c, 0, 58, 0
2, 10321, Note_on_c, 0, 58, 46
2, 10324, Note_on_c, 0, 62, 44
2, 10325, Note_on_c, 0, 53, 34
2, 10336, Note_on_c, 0, 43, 0
2, 10340, Note_on_c, 0, 53, 0
2, 10356, Note_on_c, 0, 62, 0
2, 10357, Note_on_c, 0, 58, 0
2, 10404, Note_on_c, 0, 31, 49
2, 10427, Note_on_c, 0, 31, 0
2, 10441, Note_on_c, 0, 36, 80
2, 10441, Note_on_c, 0, 24, 80
2, 10442, Note_on_c, 0, 67, 82
2, 10443, Note_on_c, 0, 58, 93
2, 10443, Control_c, 0, 64, 0
2, 10443, Note_on_c, 0, 70, 83
2, 10482, Control_c, 0, 64, 127
2, 10504, Note_on_c, 0, 67, 0
2, 10523, Note_on_c, 0, 58, 0
2, 10536, Note_on_c, 0, 36, 0
2, 10539, Note_on_c, 0, 70, 0
2, 10541, Note_on_c, 0, 31, 36
2, 10560, Note_on_c, 0, 31, 0
2, 10569, Note_on_c, 0, 69, 79
2, 10571, Note_on_c, 0, 36, 66
2, 10573, Note_on_c, 0, 61, 61
2, 10574, Control_c, 0, 64, 0
2, 10574, Note_on_c, 0, 57, 63
2, 10575, Note_on_c, 0, 65, 52
2, 10582, Note_on_c, 0, 65, 0
2, 10609, Control_c, 0, 64, 127
2, 10622, Note_on_c, 0, 24, 0
2, 10641, Note_on_c, 0, 69, 0
2, 10644, Note_on_c, 0, 57, 0
2, 10653, Note_on_c, 0, 61, 0
2, 10659, Note_on_c, 0, 24, 38
2, 10661, Note_on_c, 0, 36, 0
2, 10688, Note_on_c, 0, 24, 0
2, 10690, Control_c, 0, 64, 0
2, 10693, Note_on_c, 0, 67, 42
2, 10694, Note_on_c, 0, 36, 58
2, 10695, Note_on_c, 0, 55, 45
2, 10697, Note_on_c, 0, 60, 34
2, 10702, Note_on_c, 0, 64, 28
2, 10705, Note_on_c, 0, 36, 0
2, 10731, Control_c, 0, 64, 127
2, 10746, Note_on_c, 0, 64, 0
2, 10754, Note_on_c, 0, 55, 0
2, 10761, Note_on_c, 0, 67, 0
2, 10768, Note_on_c, 0, 60, 0
2, 10811, Note_on_c, 0, 61, 46
2, 10812, Note_on_c, 0, 48, 56
2, 10812, Note_on_c, 0, 57, 45
2, 10812, Note_on_c, 0, 65, 55
2, 10817, Control_c, 0, 64, 0
2, 10829, Note_on_c, 0, 61, 0
2, 10830, Note_on_c, 0, 62, 66
2, 10852, Note_on_c, 0, 57, 0
2, 10862, Note_on_c, 0, 62, 0
2, 10869, Note_on_c, 0, 65, 0
2, 10872, Note_on_c, 0, 48, 0
2, 10889, Note_on_c, 0, 36, 60
2, 10896, Note_on_c, 0, 36, 0
2, 10927, Note_on_c, 0, 62, 36
2, 10930, Note_on_c, 0, 58, 31
2, 10934, Note_on_c, 0, 53, 36
2, 10978, Note_on_c, 0, 53, 0
2, 10985, Note_on_c, 0, 58, 0
2, 10988, Note_on_c, 0, 62, 0
2, 10991, Note_on_c, 0, 46, 25
2, 11001, Note_on_c, 0, 46, 0
2, 11003, Note_on_c, 0, 47, 56
2, 11004, Note_on_c, 0, 58, 37
2, 11004, Note_on_c, 0, 65, 48
2, 11006, Note_on_c, 0, 48, 57
2, 11007, Note_on_c, 0, 62, 54
2, 11007, Note_on_c, 0, 53, 29
2, 11012, Note_on_c, 0, 47, 0
2, 11028, Note_on_c, 0, 53, 0
2, 11036, Note_on_c, 0, 62, 0
2, 11037, Note_on_c, 0, 58, 0
2, 11037, Note_on_c, 0, 65, 0
2, 11057, Note_on_c, 0, 65, 19
2, 11058, Note_on_c, 0, 58, 25
2, 11059, Note_on_c, 0, 62, 36
2, 11092, Note_on_c, 0, 62, 0
2, 11093, Note_on_c, 0, 58, 0
2, 11093, Note_on_c, 0, 65, 0
2, 11113, Note_on_c, 0, 48, 0
2, 11163, Note_on_c, 0, 58, 31
2, 11163, Note_on_c, 0, 65, 37
2, 11164, Note_on_c, 0, 62, 38
2, 11166, Note_on_c, 0, 48, 51
2, 11175, Note_on_c, 0, 47, 32
2, 11185, Note_on_c, 0, 47, 0
2, 11217, Control_c, 0, 64, 127
2, 11221, Note_on_c, 0, 62, 0
2, 11222, Note_on_c, 0, 58, 0
2, 11231, Note_on_c, 0, 48, 0
2, 11232, Note_on_c, 0, 65, 0
2, 11248, Note_on_c, 0, 46, 18
2, 11261, Note_on_c, 0, 46, 0
2, 11267, Note_on_c, 0, 47, 39
2, 11272, Control_c, 0, 64, 0
2, 11277, Note_on_c, 0, 47, 0
2, 11281, Note_on_c, 0, 48, 39
2, 11283, Note_on_c, 0, 58, 42
2, 11284, Note_on_c, 0, 62, 35
2, 11284, Note_on_c, 0, 65, 41
2, 11286, Note_on_c, 0, 53, 29
2, 11295, Note_on_c, 0, 53, 0
2, 11305, Note_on_c, 0, 58, 0
2, 11309, Note_on_c, 0, 62, 0
2, 11318, Note_on_c, 0, 65, 0
2, 11344, Control_c, 0, 64, 127
2, 11397, Note_on_c, 0, 46, 18
2, 11406, Control_c, 0, 64, 0
2, 11410, Note_on_c, 0, 86, 88
2, 11418, Note_on_c, 0, 46, 0
2, 11430, Note_on_c, 0, 48, 0
2, 11434, Note_on_c, 0, 86, 0
2, 11447, Note_on_c, 0, 84, 72
2, 11451, Control_c, 0, 64, 127
2, 11469, Note_on_c, 0, 84, 0
2, 11486, Note_on_c, 0, 81, 54
2, 11507, Control_c, 0, 64, 0
2, 11521, Note_on_c, 0, 41, 35
2, 11522, Note_on_c, 0, 81, 0
2, 11528, Note_on_c, 0, 48, 19
2, 11532, Note_on_c, 0, 41, 0
2, 11544, Note_on_c, 0, 48, 0
2, 11554, Control_c, 0, 64, 127
2, 11568, Note_on_c, 0, 82, 71
2, 11593, Note_on_c, 0, 82, 0
2, 11605, Note_on_c, 0, 81, 76
2, 11628, Note_on_c, 0, 81, 0
2, 11643, Note_on_c, 0, 62, 26
2, 11644, Note_on_c, 0, 60, 26
2, 11645, Note_on_c, 0, 77, 52
2, 11645, Control_c, 0, 64, 0
2, 11652, Note_on_c, 0, 62, 0
2, 11655, Note_on_c, 0, 60, 0
2, 11677, Note_on_c, 0, 77, 0
2, 11689, Note_on_c, 0, 72, 38
2, 11702, Control_c, 0, 64, 127
2, 11710, Note_on_c, 0, 72, 0
2, 11726, Note_on_c, 0, 79, 80
2, 11755, Note_on_c, 0, 62, 32
2, 11758, Note_on_c, 0, 79, 0
2, 11762, Note_on_c, 0, 62, 0
2, 11762, Control_c, 0, 64, 0
2, 11768, Note_on_c, 0, 77, 54
2, 11797, Note_on_c, 0, 77, 0
2, 11805, Note_on_c, 0, 72, 58
2, 11813, Control_c, 0, 64, 127
2, 11829, Note_on_c, 0, 72, 0
2, 11843, Note_on_c, 0, 69, 53
2, 11846, Note_on_c, 0, 45, 56
2, 11865, Note_on_c, 0, 69, 0
2, 11868, Note_on_c, 0, 45, 0
2, 11881, Control_c, 0, 64, 0
2, 11884, Note_on_c, 0, 38, 51
2, 11884, Note_on_c, 0, 50, 54
2, 11885, Note_on_c, 0, 74, 58
2, 11896, Note_on_c, 0, 38, 0
2, 11906, Note_on_c, 0, 50, 0
2, 11909, Note_on_c, 0, 74, 0
2, 11924, Note_on_c, 0, 72, 61
2, 11954, Note_on_c, 0, 72, 0
2, 11957, Control_c, 0, 64, 127
2, 11961, Note_on_c, 0, 69, 57
2, 11986, Control_c, 0, 64, 0
2, 11989, Note_on_c, 0, 69, 0
2, 11991, Note_on_c, 0, 60, 35
2, 11999, Note_on_c, 0, 57, 20
2, 12000, Note_on_c, 0, 53, 22
2, 12004, Note_on_c, 0, 65, 36
2, 12013, Note_on_c, 0, 60, 0
2, 12023, Note_on_c, 0, 65, 0
2, 12031, Note_on_c, 0, 57, 0
2, 12042, Note_on_c, 0, 53, 0
2, 12043, Note_on_c, 0, 62, 48
2, 12044, Control_c, 0, 64, 127
2, 12071, Note_on_c, 0, 62, 0
2, 12083, Note_on_c, 0, 60, 43
2, 12114, Note_on_c, 0, 60, 0
2, 12130, Control_c, 0, 64, 0
2, 12194, Control_c, 0, 64, 127
2, 12196, Note_on_c, 0, 58, 59
2, 12197, Note_on_c, 0, 49, 37
2, 12225, Note_on_c, 0, 58, 0
2, 12234, Note_on_c, 0, 49, 0
2, 12237, Control_c, 0, 64, 0
2, 12237, Note_on_c, 0, 64, 49
2, 12242, Note_on_c, 0, 50, 44
2, 12243, Note_on_c, 0, 57, 39
2, 12250, Note_on_c, 0, 53, 15
2, 12295, Control_c, 0, 64, 127
2, 12305, Note_on_c, 0, 53, 0
2, 12308, Note_on_c, 0, 50, 0
2, 12318, Note_on_c, 0, 57, 0
2, 12323, Note_on_c, 0, 45, 38
2, 12325, Note_on_c, 0, 64, 0
2, 12342, Control_c, 0, 64, 0
2, 12353, Note_on_c, 0, 45, 0
2, 12361, Note_on_c, 0, 62, 47
2, 12362, Note_on_c, 0, 57, 52
2, 12364, Note_on_c, 0, 53, 34
2, 12364, Note_on_c, 0, 50, 50
2, 12375, Control_c, 0, 64, 127
2, 12379, Note_on_c, 0, 53, 0
2, 12381, Note_on_c, 0, 50, 0
2, 12394, Note_on_c, 0, 57, 0
2, 12407, Note_on_c, 0, 62, 0
2, 12490, Note_on_c, 0, 60, 33
2, 12490, Note_on_c, 0, 53, 36
2, 12492, Note_on_c, 0, 57, 31
2, 12571, Note_on_c, 0, 50, 57
2, 12577, Note_on_c, 0, 60, 0
2, 12585, Note_on_c, 0, 57, 0
2, 12589, Note_on_c, 0, 53, 0
2, 12614, Note_on_c, 0, 69, 87
2, 12618, Control_c, 0, 64, 0
2, 12648, Note_on_c, 0, 69, 0
2, 12651, Note_on_c, 0, 64, 68
2, 12683, Note_on_c, 0, 64, 0
2, 12691, Note_on_c, 0, 67, 83
2, 12694, Control_c, 0, 64, 127
2, 12698, Note_on_c, 0, 60, 57
2, 12703, Note_on_c, 0, 57, 44
2, 12716, Note_on_c, 0, 60, 0
2, 12721, Control_c, 0, 64, 0
2, 12727, Note_on_c, 0, 57, 0
2, 12734, Note_on_c, 0, 65, 68
2, 12743, Note_on_c, 0, 67, 0
2, 12748, Note_on_c, 0, 50, 0
2, 12757, Note_on_c, 0, 65, 0
2, 12776, Control_c, 0, 64, 127
2, 12776, Note_on_c, 0, 61, 38
2, 12798, Note_on_c, 0, 61, 0
2, 12811, Note_on_c, 0, 64, 79
2, 12839, Note_on_c, 0, 64, 0
2, 12840, Control_c, 0, 64, 0
2, 12848, Note_on_c, 0, 54, 33
2, 12849, Note_on_c, 0, 44, 38
2, 12850, Note_on_c, 0, 62, 68
2, 12914, Control_c, 0, 64, 127
2, 12916, Note_on_c, 0, 54, 0
2, 12920, Note_on_c, 0, 62, 0
2, 12924, Note_on_c, 0, 50, 34
2, 12926, Note_on_c, 0, 57, 48
2, 12952, Note_on_c, 0, 44, 0
2, 12954, Note_on_c, 0, 50, 0
2, 12959, Note_on_c, 0, 57, 0
2, 12963, Control_c, 0, 64, 0
2, 12964, Note_on_c, 0, 58, 63
2, 12966, Note_on_c, 0, 53, 27
2, 12968, Note_on_c, 0, 43, 32
2, 12983, Note_on_c, 0, 53, 0
2, 12993, Note_on_c, 0, 58, 0
2, 13004, Note_on_c, 0, 60, 53
2, 13020, Note_on_c, 0, 58, 30
2, 13023, Note_on_c, 0, 60, 0
2, 13040, Control_c, 0, 64, 127
2, 13049, Note_on_c, 0, 58, 0
2, 13051, Note_on_c, 0, 57, 36
2, 13075, Note_on_c, 0, 57, 0
2, 13079, Note_on_c, 0, 53, 36
2, 13081, Control_c, 0, 64, 0
2, 13082, Note_on_c, 0, 43, 0
2, 13082, Note_on_c, 0, 58, 44
2, 13100, Note_on_c, 0, 53, 0
2, 13101, Note_on_c, 0, 58, 0
2, 13122, Note_on_c, 0, 62, 53
2, 13142, Note_on_c, 0, 62, 0
2, 13155, Note_on_c, 0, 66, 70
2, 13159, Control_c, 0, 64, 127
2, 13178, Note_on_c, 0, 66, 0
2, 13188, Note_on_c, 0, 69, 78
2, 13192, Control_c, 0, 64, 0
2, 13199, Note_on_c, 0, 58, 34
2, 13200, Note_on_c, 0, 57, 24
2, 13205, Note_on_c, 0, 62, 18
2, 13217, Note_on_c, 0, 69, 0
2, 13223, Note_on_c, 0, 66, 45
2, 13244, Note_on_c, 0, 66, 0
2, 13250, Control_c, 0, 64, 127
2, 13252, Note_on_c, 0, 62, 0
2, 13255, Note_on_c, 0, 67, 42
2, 13273, Note_on_c, 0, 57, 0
2, 13282, Note_on_c, 0, 67, 0
2, 13282, Note_on_c, 0, 58, 0
2, 13285, Note_on_c, 0, 69, 58
2, 13303, Control_c, 0, 64, 0
2, 13311, Note_on_c, 0, 69, 0
2, 13318, Note_on_c, 0, 70, 62
2, 13339, Note_on_c, 0, 70, 0
2, 13353, Note_on_c, 0, 72, 49
2, 13373, Note_on_c, 0, 72, 0
2, 13417, Note_on_c, 0, 73, 67
2, 13420, Note_on_c, 0, 58, 49
2, 13420, Note_on_c, 0, 63, 52
2, 13427, Note_on_c, 0, 63, 0
2, 13432, Note_on_c, 0, 58, 0
2, 13436, Note_on_c, 0, 73, 0
2, 13461, Note_on_c, 0, 74, 44
2, 13501, Note_on_c, 0, 74, 0
2, 13511, Control_c, 0, 64, 127
2, 13530, Note_on_c, 0, 75, 62
2, 13552, Control_c, 0, 64, 0
2, 13557, Note_on_c, 0, 75, 0
2, 13560, Note_on_c, 0, 48, 30
2, 13564, Note_on_c, 0, 58, 25
2, 13571, Note_on_c, 0, 48, 0
2, 13575, Note_on_c, 0, 76, 27
2, 13588, Note_on_c, 0, 58, 0
2, 13602, Note_on_c, 0, 76, 0
2, 13622, Control_c, 0, 64, 127
2, 13644, Note_on_c, 0, 79, 52
2, 13672, Note_on_c, 0, 79, 0
2, 13675, Control_c, 0, 64, 0
2, 13679, Note_on_c, 0, 63, 42
2, 13682, Note_on_c, 0, 58, 31
2, 13687, Note_on_c, 0, 81, 48
2, 13704, Control_c, 0, 64, 127
2, 13708, Note_on_c, 0, 81, 0
2, 13724, Note_on_c, 0, 82, 46
2, 13738, Note_on_c, 0, 82, 0
2, 13743, Note_on_c, 0, 63, 0
2, 13756, Note_on_c, 0, 84, 66
2, 13779, Note_on_c, 0, 84, 0
2, 13796, Note_on_c, 0, 86, 67
2, 13796, Note_on_c, 0, 63, 35
2, 13811, Note_on_c, 0, 86, 0
2, 13822, Note_on_c, 0, 58, 0
2, 13825, Note_on_c, 0, 63, 0
2, 13833, Note_on_c, 0, 87, 58
2, 13850, Note_on_c, 0, 87, 0
2, 13873, Note_on_c, 0, 91, 80
2, 13903, Note_on_c, 0, 91, 0
2, 13915, Note_on_c, 0, 67, 48
2, 13916, Note_on_c, 0, 63, 46
2, 13922, Control_c, 0, 64, 0
2, 13922, Note_on_c, 0, 89, 77
2, 13922, Note_on_c, 0, 57, 51
2, 13937, Note_on_c, 0, 67, 0
2, 13945, Note_on_c, 0, 63, 0
2, 13950, Note_on_c, 0, 57, 0
2, 13951, Control_c, 0, 64, 127
2, 13953, Note_on_c, 0, 89, 0
2, 13993, Note_on_c, 0, 41, 70
2, 14006, Note_on_c, 0, 41, 0
2, 14040, Note_on_c, 0, 74, 57
2, 14042, Note_on_c, 0, 67, 74
2, 14042, Note_on_c, 0, 63, 80
2, 14044, Note_on_c, 0, 70, 46
2, 14044, Note_on_c, 0, 62, 78
2, 14045, Control_c, 0, 64, 0
2, 14081, Control_c, 0, 64, 127
2, 14122, Note_on_c, 0, 67, 0
2, 14126, Note_on_c, 0, 62, 0
2, 14129, Note_on_c, 0, 70, 0
2, 14129, Note_on_c, 0, 63, 0
2, 14138, Note_on_c, 0, 74, 0
2, 14159, Control_c, 0, 64, 0
2, 14159, Note_on_c, 0, 63, 42
2, 14161, Note_on_c, 0, 72, 51
2, 14161, Note_on_c, 0, 67, 51
2, 14165, Control_c, 0, 64, 127
2, 14165, Note_on_c, 0, 70, 45
2, 14188, Note_on_c, 0, 72, 0
2, 14191, Note_on_c, 0, 67, 0
2, 14194, Note_on_c, 0, 70, 0
2, 14205, Note_on_c, 0, 63, 0
2, 14279, Control_c, 0, 64, 0
2, 14282, Note_on_c, 0, 69, 51
2, 14283, Note_on_c, 0, 62, 50
2, 14283, Note_on_c, 0, 66, 34
2, 14284, Note_on_c, 0, 57, 37
2, 14287, Note_on_c, 0, 53, 32
2, 14307, Control_c, 0, 64, 127
2, 14337, Note_on_c, 0, 57, 0
2, 14341, Note_on_c, 0, 62, 0
2, 14345, Note_on_c, 0, 66, 0
2, 14348, Note_on_c, 0, 69, 0
2, 14369, Note_on_c, 0, 47, 38
2, 14371, Note_on_c, 0, 53, 0
2, 14378, Note_on_c, 0, 47, 0
2, 14392, Control_c, 0, 64, 0
2, 14402, Note_on_c, 0, 62, 47
2, 14403, Note_on_c, 0, 66, 42
2, 14406, Note_on_c, 0, 57, 44
2, 14406, Note_on_c, 0, 47, 37
2, 14414, Control_c, 0, 64, 127
2, 14416, Note_on_c, 0, 47, 0
2, 14426, Note_on_c, 0, 57, 0
2, 14439, Note_on_c, 0, 62, 0
2, 14452, Note_on_c, 0, 66, 0
2, 14525, Note_on_c, 0, 57, 49
2, 14527, Note_on_c, 0, 66, 44
2, 14528, Note_on_c, 0, 62, 37
2, 14573, Note_on_c, 0, 81, 71
2, 14574, Note_on_c, 0, 69, 55
2, 14592, Note_on_c, 0, 62, 0
2, 14594, Note_on_c, 0, 81, 0
2, 14595, Note_on_c, 0, 66, 0
2, 14601, Note_on_c, 0, 69, 0
2, 14612, Note_on_c, 0, 80, 60
2, 14631, Note_on_c, 0, 80, 0
2, 14640, Control_c, 0, 64, 0
2, 14648, Note_on_c, 0, 66, 44
2, 14649, Note_on_c, 0, 81, 82
2, 14650, Note_on_c, 0, 62, 37
2, 14652, Note_on_c, 0, 69, 69
2, 14654, Note_on_c, 0, 74, 48
2, 14665, Note_on_c, 0, 74, 0
2, 14674, Control_c, 0, 64, 127
2, 14703, Note_on_c, 0, 69, 0
2, 14708, Note_on_c, 0, 62, 0
2, 14717, Note_on_c, 0, 81, 0
2, 14731, Note_on_c, 0, 62, 34
2, 14738, Note_on_c, 0, 57, 0
2, 14772, Control_c, 0, 64, 0
2, 14772, Note_on_c, 0, 80, 43
2, 14773, Note_on_c, 0, 68, 39
2, 14774, Note_on_c, 0, 74, 35
2, 14775, Note_on_c, 0, 56, 49
2, 14778, Note_on_c, 0, 66, 0
2, 14789, Note_on_c, 0, 62, 0
2, 14803, Control_c, 0, 64, 127
2, 14839, Note_on_c, 0, 74, 0
2, 14854, Note_on_c, 0, 68, 0
2, 14891, Note_on_c, 0, 68, 35
2, 14891, Note_on_c, 0, 66, 33
2, 14893, Note_on_c, 0, 62, 29
2, 14895, Note_on_c, 0, 74, 24
2, 14921, Note_on_c, 0, 68, 0
2, 14936, Note_on_c, 0, 62, 0
2, 14936, Note_on_c, 0, 74, 0
2, 14945, Note_on_c, 0, 80, 0
2, 14946, Note_on_c, 0, 66, 0
2, 15009, Note_on_c, 0, 66, 46
2, 15013, Note_on_c, 0, 62, 24
2, 15016, Note_on_c, 0, 66, 0
2, 15020, Note_on_c, 0, 62, 0
2, 15036, Note_on_c, 0, 56, 0
2, 15054, Note_on_c, 0, 83, 80
2, 15072, Note_on_c, 0, 83, 0
2, 15090, Note_on_c, 0, 86, 95
2, 15114, Note_on_c, 0, 86, 0
2, 15124, Note_on_c, 0, 45, 56
2, 15126, Control_c, 0, 64, 0
2, 15127, Note_on_c, 0, 52, 45
2, 15131, Note_on_c, 0, 86, 76
2, 15143, Note_on_c, 0, 45, 0
2, 15149, Control_c, 0, 64, 127
2, 15154, Note_on_c, 0, 52, 0
2, 15208, Note_on_c, 0, 80, 48
2, 15212, Note_on_c, 0, 86, 0
2, 15227, Note_on_c, 0, 80, 0
2, 15246, Note_on_c, 0, 64, 44
2, 15248, Note_on_c, 0, 84, 69
2, 15250, Control_c, 0, 64, 0
2, 15251, Note_on_c, 0, 60, 34
2, 15251, Note_on_c, 0, 57, 32
2, 15282, Control_c, 0, 64, 127
2, 15320, Note_on_c, 0, 64, 0
2, 15322, Note_on_c, 0, 84, 0
2, 15329, Note_on_c, 0, 80, 27
2, 15348, Note_on_c, 0, 80, 0
2, 15351, Note_on_c, 0, 57, 0
2, 15361, Control_c, 0, 64, 0
2, 15364, Note_on_c, 0, 56, 38
2, 15365, Note_on_c, 0, 83, 60
2, 15367, Note_on_c, 0, 64, 36
2, 15391, Control_c, 0, 64, 127
2, 15422, Note_on_c, 0, 60, 0
2, 15443, Note_on_c, 0, 64, 0
2, 15444, Note_on_c, 0, 83, 0
2, 15444, Note_on_c, 0, 76, 47
2, 15462, Note_on_c, 0, 76, 0
2, 15462, Note_on_c, 0, 56, 0
2, 15476, Control_c, 0, 64, 0
2, 15481, Note_on_c, 0, 64, 46
2, 15481, Note_on_c, 0, 81, 72
2, 15483, Note_on_c, 0, 55, 49
2, 15486, Note_on_c, 0, 60, 32
2, 15501, Control_c, 0, 64, 127
2, 15502, Note_on_c, 0, 64, 0
2, 15506, Note_on_c, 0, 60, 0
2, 15515, Note_on_c, 0, 55, 0
2, 15566, Note_on_c, 0, 76, 42
2, 15569, Note_on_c, 0, 72, 36
2, 15584, Note_on_c, 0, 72, 0
2, 15587, Note_on_c, 0, 76, 0
2, 15587, Note_on_c, 0, 81, 0
2, 15600, Note_on_c, 0, 55, 49
2, 15603, Control_c, 0, 64, 0
2, 15603, Note_on_c, 0, 45, 34
2, 15611, Note_on_c, 0, 55, 0
2, 15616, Control_c, 0, 64, 127
2, 15654, Note_on_c, 0, 45, 0
2, 15688, Note_on_c, 0, 50, 32
2, 15707, Note_on_c, 0, 50, 0
2, 15720, Note_on_c, 0, 59, 73
2, 15722, Note_on_c, 0, 54, 65
2, 15723, Note_on_c, 0, 44, 60
2, 15727, Control_c, 0, 64, 0
2, 15768, Control_c, 0, 64, 127
2, 15803, Note_on_c, 0, 54, 0
2, 15807, Note_on_c, 0, 50, 43
2, 15823, Note_on_c, 0, 59, 0
2, 15826, Note_on_c, 0, 44, 0
2, 15832, Note_on_c, 0, 50, 0
2, 15840, Control_c, 0, 64, 0
2, 15842, Note_on_c, 0, 43, 47
2, 15846, Note_on_c, 0, 58, 58
2, 15850, Note_on_c, 0, 53, 19
2, 15863, Control_c, 0, 64, 127
2, 15884, Note_on_c, 0, 53, 0
2, 15889, Note_on_c, 0, 58, 0
2, 15925, Note_on_c, 0, 67, 68
2, 15925, Note_on_c, 0, 50, 55
2, 15925, Note_on_c, 0, 58, 64
2, 15929, Note_on_c, 0, 62, 55
2, 15929, Note_on_c, 0, 55, 61
2, 15935, Note_on_c, 0, 50, 0
2, 15936, Note_on_c, 0, 53, 60
2, 15945, Control_c, 0, 64, 0
2, 15984, Control_c, 0, 64, 127
2, 16039, Note_on_c, 0, 62, 0
2, 16049, Note_on_c, 0, 55, 0
2, 16052, Note_on_c, 0, 58, 0
2, 16079, Note_on_c, 0, 67, 0
2, 16083, Note_on_c, 0, 53, 0
2, 16088, Note_on_c, 0, 62, 37
2, 16088, Note_on_c, 0, 55, 44
2, 16091, Note_on_c, 0, 58, 33
2, 16091, Note_on_c, 0, 50, 32
2, 16099, Note_on_c, 0, 50, 0
2, 16109, Note_on_c, 0, 43, 0
2, 16145, Note_on_c, 0, 55, 0
2, 16147, Note_on_c, 0, 58, 0
2, 16168, Note_on_c, 0, 62, 0
2, 16173, Note_on_c, 0, 45, 25
2, 16192, Note_on_c, 0, 45, 0
2, 16202, Control_c, 0, 64, 0
2, 16208, Note_on_c, 0, 54, 53
2, 16209, Note_on_c, 0, 38, 53
2, 16210, Note_on_c, 0, 66, 45
2, 16212, Note_on_c, 0, 60, 57
2, 16220, Note_on_c, 0, 60, 0
2, 16226, Note_on_c, 0, 54, 0
2, 16227, Control_c, 0, 64, 127
2, 16268, Note_on_c, 0, 66, 0
2, 16330, Note_on_c, 0, 50, 62
2, 16332, Note_on_c, 0, 38, 0
2, 16342, Note_on_c, 0, 50, 0
2, 16449, Control_c, 0, 64, 0
2, 16456, Note_on_c, 0, 60, 49
2, 16457, Note_on_c, 0, 65, 53
2, 16458, Note_on_c, 0, 54, 47
2, 16472, Control_c, 0, 64, 127
2, 16508, Note_on_c, 0, 60, 0
2, 16514, Note_on_c, 0, 65, 0
2, 16536, Note_on_c, 0, 82, 85
2, 16537, Note_on_c, 0, 75, 87
2, 16547, Note_on_c, 0, 54, 0
2, 16569, Note_on_c, 0, 53, 30
2, 16572, Note_on_c, 0, 59, 37
2, 16573, Note_on_c, 0, 64, 14
2, 16574, Note_on_c, 0, 75, 0
2, 16575, Control_c, 0, 64, 0
2, 16576, Note_on_c, 0, 82, 0
2, 16593, Note_on_c, 0, 79, 55
2, 16593, Note_on_c, 0, 71, 28
2, 16594, Note_on_c, 0, 75, 43
2, 16612, Control_c, 0, 64, 127
2, 16630, Note_on_c, 0, 75, 0
2, 16632, Note_on_c, 0, 71, 0
2, 16644, Note_on_c, 0, 59, 0
2, 16645, Note_on_c, 0, 79, 0
2, 16648, Note_on_c, 0, 64, 0
2, 16658, Note_on_c, 0, 82, 69
2, 16660, Note_on_c, 0, 75, 69
2, 16672, Note_on_c, 0, 53, 0
2, 16685, Note_on_c, 0, 75, 0
2, 16687, Note_on_c, 0, 82, 0
2, 16697, Note_on_c, 0, 53, 28
2, 16698, Control_c, 0, 64, 0
2, 16703, Note_on_c, 0, 75, 42
2, 16704, Note_on_c, 0, 59, 36
2, 16704, Note_on_c, 0, 64, 30
2, 16704, Note_on_c, 0, 79, 47
2, 16705, Note_on_c, 0, 71, 37
2, 16735, Control_c, 0, 64, 127
2, 16744, Note_on_c, 0, 71, 0
2, 16746, Note_on_c, 0, 75, 0
2, 16750, Note_on_c, 0, 59, 0
2, 16755, Note_on_c, 0, 53, 0
2, 16756, Note_on_c, 0, 79, 0
2, 16758, Note_on_c, 0, 64, 0
2, 16807, Control_c, 0, 64, 0
2, 16812, Note_on_c, 0, 79, 47
2, 16813, Note_on_c, 0, 75, 40
2, 16815, Note_on_c, 0, 71, 33
2, 16815, Note_on_c, 0, 63, 35
2, 16816, Note_on_c, 0, 59, 34
2, 16819, Note_on_c, 0, 53, 24
2, 16831, Control_c, 0, 64, 127
2, 16847, Note_on_c, 0, 59, 0
2, 16865, Note_on_c, 0, 71, 0
2, 16867, Note_on_c, 0, 53, 0
2, 16868, Note_on_c, 0, 63, 0
2, 16881, Note_on_c, 0, 75, 0
2, 16888, Note_on_c, 0, 79, 0
2, 16924, Control_c, 0, 64, 0
2, 16929, Note_on_c, 0, 58, 47
2, 16929, Note_on_c, 0, 79, 40
2, 16929, Note_on_c, 0, 76, 38
2, 16931, Note_on_c, 0, 70, 33
2, 16936, Note_on_c, 0, 52, 22
2, 16944, Note_on_c, 0, 58, 0
2, 16950, Note_on_c, 0, 52, 0
2, 16954, Note_on_c, 0, 79, 0
2, 16954, Note_on_c, 0, 76, 0
2, 16964, Note_on_c, 0, 70, 0
2, 16980, Control_c, 0, 64, 127
2, 17011, Note_on_c, 0, 47, 64
2, 17011, Note_on_c, 0, 48, 59
2, 17013, Note_on_c, 0, 62, 63
2, 17021, Note_on_c, 0, 47, 0
2, 17022, Note_on_c, 0, 62, 0
2, 17025, Control_c, 0, 64, 0
2, 17052, Note_on_c, 0, 61, 63
2, 17063, Note_on_c, 0, 61, 0
2, 17065, Note_on_c, 0, 62, 66
2, 17088, Note_on_c, 0, 62, 0
2, 17092, Note_on_c, 0, 65, 73
2, 17130, Control_c, 0, 64, 127
2, 17138, Note_on_c, 0, 65, 0
2, 17150, Note_on_c, 0, 48, 0
2, 17154, Control_c, 0, 64, 0
2, 17154, Note_on_c, 0, 43, 32
2, 17164, Note_on_c, 0, 43, 0
2, 17169, Note_on_c, 0, 65, 53
2, 17171, Note_on_c, 0, 58, 36
2, 17172, Note_on_c, 0, 62, 44
2, 17173, Note_on_c, 0, 48, 34
2, 17174, Note_on_c, 0, 53, 24
2, 17185, Note_on_c, 0, 62, 0
2, 17189, Note_on_c, 0, 53, 0
2, 17194, Note_on_c, 0, 58, 0
2, 17199, Note_on_c, 0, 65, 0
2, 17210, Note_on_c, 0, 62, 53
2, 17226, Note_on_c, 0, 48, 0
2, 17231, Note_on_c, 0, 62, 0
2, 17231, Note_on_c, 0, 43, 22
2, 17239, Note_on_c, 0, 43, 0
2, 17247, Control_c, 0, 64, 127
2, 17252, Note_on_c, 0, 62, 62
2, 17253, Note_on_c, 0, 65, 69
2, 17253, Note_on_c, 0, 58, 64
2, 17256, Note_on_c, 0, 48, 63
2, 17258, Note_on_c, 0, 53, 53
2, 17266, Control_c, 0, 64, 0
2, 17295, Note_on_c, 0, 53, 0
2, 17313, Control_c, 0, 64, 127
2, 17324, Note_on_c, 0, 58, 0
2, 17328, Note_on_c, 0, 62, 0
2, 17340, Note_on_c, 0, 57, 65
2, 17343, Note_on_c, 0, 60, 61
2, 17344, Note_on_c, 0, 62, 48
2, 17385, Control_c, 0, 64, 0
2, 17390, Note_on_c, 0, 57, 0
2, 17393, Note_on_c, 0, 60, 0
2, 17394, Note_on_c, 0, 65, 0
2, 17396, Note_on_c, 0, 62, 0
2, 17416, Note_on_c, 0, 62, 54
2, 17416, Note_on_c, 0, 65, 59
2, 17418, Note_on_c, 0, 57, 58
2, 17419, Note_on_c, 0, 60, 49
2, 17447, Control_c, 0, 64, 127
2, 17470, Note_on_c, 0, 65, 0
2, 17471, Note_on_c, 0, 57, 0
2, 17472, Note_on_c, 0, 60, 0
2, 17473, Note_on_c, 0, 46, 37
2, 17474, Note_on_c, 0, 48, 0
2, 17479, Note_on_c, 0, 62, 0
2, 17479, Note_on_c, 0, 45, 14
2, 17491, Note_on_c, 0, 45, 0
2, 17491, Note_on_c, 0, 46, 0
2, 17492, Note_on_c, 0, 47, 72
2, 17493, Note_on_c, 0, 65, 48
2, 17494, Note_on_c, 0, 48, 57
2, 17494, Note_on_c, 0, 60, 55
2, 17495, Note_on_c, 0, 57, 44
2, 17496, Note_on_c, 0, 62, 64
2, 17502, Control_c, 0, 64, 0
2, 17505, Note_on_c, 0, 47, 0
2, 17581, Note_on_c, 0, 62, 0
2, 17587, Note_on_c, 0, 60, 0
2, 17591, Note_on_c, 0, 57, 0
2, 17593, Control_c, 0, 64, 127
2, 17602, Note_on_c, 0, 65, 0
2, 17607, Note_on_c, 0, 62, 38
2, 17614, Note_on_c, 0, 47, 47
2, 17618, Note_on_c, 0, 48, 0
2, 17629, Note_on_c, 0, 62, 0
2, 17642, Control_c, 0, 64, 0
2, 17651, Note_on_c, 0, 65, 55
2, 17652, Note_on_c, 0, 47, 0
2, 17653, Note_on_c, 0, 48, 60
2, 17654, Note_on_c, 0, 60, 51
2, 17654, Note_on_c, 0, 57, 47
2, 17704, Control_c, 0, 64, 127
2, 17732, Note_on_c, 0, 36, 73
2, 17755, Control_c, 0, 64, 0
2, 17760, Note_on_c, 0, 36, 0
2, 17761, Control_c, 0, 64, 127
2, 17827, Note_on_c, 0, 57, 0
2, 17834, Note_on_c, 0, 48, 0
2, 17836, Note_on_c, 0, 60, 0
2, 17846, Note_on_c, 0, 65, 0
2, 17892, Note_on_c, 0, 58, 63
2, 17892, Note_on_c, 0, 64, 66
2, 17893, Control_c, 0, 64, 0
2, 17893, Note_on_c, 0, 49, 61
2, 17894, Note_on_c, 0, 61, 61
2, 17943, Note_on_c, 0, 58, 0
2, 17947, Control_c, 0, 64, 127
2, 17955, Note_on_c, 0, 64, 0
2, 17958, Note_on_c, 0, 61, 0
2, 17965, Note_on_c, 0, 67, 57
2, 17968, Note_on_c, 0, 61, 31
2, 17970, Note_on_c, 0, 58, 59
2, 17994, Note_on_c, 0, 67, 0
2, 17996, Note_on_c, 0, 58, 0
2, 17996, Note_on_c, 0, 61, 0
2, 18002, Note_on_c, 0, 49, 0
2, 18006, Control_c, 0, 64, 0
2, 18012, Note_on_c, 0, 65, 58
2, 18016, Note_on_c, 0, 62, 47
2, 18017, Note_on_c, 0, 57, 45
2, 18018, Note_on_c, 0, 50, 55
2, 18035, Control_c, 0, 64, 127
2, 18038, Note_on_c, 0, 57, 0
2, 18050, Note_on_c, 0, 62, 0
2, 18052, Note_on_c, 0, 65, 0
2, 18060, Note_on_c, 0, 50, 0
2, 18126, Note_on_c, 0, 76, 87
2, 18128, Note_on_c, 0, 69, 87
2, 18128, Note_on_c, 0, 65, 91
2, 18128, Control_c, 0, 64, 0
2, 18129, Note_on_c, 0, 64, 74
2, 18154, Control_c, 0, 64, 127
2, 18198, Note_on_c, 0, 65, 0
2, 18199, Note_on_c, 0, 69, 0
2, 18217, Note_on_c, 0, 76, 0
2, 18232, Note_on_c, 0, 64, 0
2, 18241, Control_c, 0, 64, 0
2, 18242, Note_on_c, 0, 61, 44
2, 18242, Note_on_c, 0, 73, 45
2, 18245, Note_on_c, 0, 65, 40
2, 18246, Note_on_c, 0, 69, 48
2, 18265, Control_c, 0, 64, 127
2, 18304, Note_on_c, 0, 73, 0
2, 18315, Note_on_c, 0, 69, 0
2, 18324, Note_on_c, 0, 65, 0
2, 18336, Note_on_c, 0, 61, 0
2, 18361, Note_on_c, 0, 74, 47
2, 18362, Control_c, 0, 64, 0
2, 18364, Note_on_c, 0, 60, 55
2, 18365, Note_on_c, 0, 69, 50
2, 18366, Note_on_c, 0, 65, 33
2, 18379, Control_c, 0, 64, 127
2, 18405, Note_on_c, 0, 69, 0
2, 18413, Note_on_c, 0, 65, 0
2, 18424, Note_on_c, 0, 74, 0
2, 18448, Note_on_c, 0, 60, 0
2, 18478, Control_c, 0, 64, 0
2, 18480, Note_on_c, 0, 65, 43
2, 18481, Note_on_c, 0, 60, 45
2, 18482, Note_on_c, 0, 69, 55
2, 18483, Note_on_c, 0, 57, 43
2, 18494, Control_c, 0, 64, 127
2, 18497, Note_on_c, 0, 57, 0
2, 18520, Note_on_c, 0, 69, 0
2, 18521, Note_on_c, 0, 65, 0
2, 18534, Note_on_c, 0, 60, 0
2, 18562, Note_on_c, 0, 50, 57
2, 18597, Note_on_c, 0, 54, 58
2, 18599, Note_on_c, 0, 59, 56
2, 18601, Note_on_c, 0, 44, 37
2, 18603, Control_c, 0, 64, 0
2, 18613, Note_on_c, 0, 50, 0
2, 18630, Control_c, 0, 64, 127
2, 18668, Note_on_c, 0, 59, 0
2, 18682, Note_on_c, 0, 54, 0
2, 18686, Note_on_c, 0, 50, 49
2, 18705, Note_on_c, 0, 44, 0
2, 18710, Note_on_c, 0, 50, 0
2, 18715, Note_on_c, 0, 53, 46
2, 18718, Note_on_c, 0, 58, 47
2, 18722, Control_c, 0, 64, 0
2, 18723, Note_on_c, 0, 43, 47
2, 18725, Note_on_c, 0, 55, 28
2, 18741, Note_on_c, 0, 53, 0
2, 18753, Control_c, 0, 64, 127
2, 18776, Note_on_c, 0, 55, 0
2, 18790, Note_on_c, 0, 58, 0
2, 18799, Note_on_c, 0, 49, 58
2, 18805, Note_on_c, 0, 62, 67
2, 18806, Note_on_c, 0, 58, 61
2, 18811, Note_on_c, 0, 53, 35
2, 18817, Note_on_c, 0, 53, 0
2, 18824, Note_on_c, 0, 62, 0
2, 18826, Note_on_c, 0, 58, 0
2, 18832, Note_on_c, 0, 49, 0
2, 18834, Note_on_c, 0, 43, 0
2, 18842, Note_on_c, 0, 58, 76
2, 18844, Note_on_c, 0, 65, 80
2, 18845, Note_on_c, 0, 62, 48
2, 18846, Note_on_c, 0, 53, 66
2, 18847, Note_on_c, 0, 50, 46
2, 18848, Note_on_c, 0, 52, 60
2, 18854, Control_c, 0, 64, 0
2, 18865, Note_on_c, 0, 50, 0
2, 18884, Note_on_c, 0, 52, 0
2, 18899, Note_on_c, 0, 65, 0
2, 18902, Note_on_c, 0, 53, 0
2, 18905, Note_on_c, 0, 62, 0
2, 18908, Control_c, 0, 64, 127
2, 18913, Note_on_c, 0, 58, 0
2, 18921, Note_on_c, 0, 65, 70
2, 18922, Note_on_c, 0, 58, 55
2, 18925, Note_on_c, 0, 53, 47
2, 18929, Note_on_c, 0, 50, 57
2, 18947, Note_on_c, 0, 53, 0
2, 18951, Note_on_c, 0, 58, 0
2, 18952, Note_on_c, 0, 50, 0
2, 18955, Note_on_c, 0, 65, 0
2, 18967, Control_c, 0, 64, 0
2, 18969, Note_on_c, 0, 62, 35
2, 18969, Note_on_c, 0, 58, 25
2, 18970, Note_on_c, 0, 53, 31
2, 18973, Note_on_c, 0, 47, 39
2, 19010, Note_on_c, 0, 53, 0
2, 19011, Control_c, 0, 64, 127
2, 19029, Note_on_c, 0, 62, 0
2, 19030, Note_on_c, 0, 58, 0
2, 19043, Note_on_c, 0, 46, 34
2, 19063, Note_on_c, 0, 47, 0
2, 19076, Note_on_c, 0, 46, 0
2, 19084, Note_on_c, 0, 48, 45
2, 19086, Note_on_c, 0, 67, 59
2, 19088, Control_c, 0, 64, 0
2, 19088, Note_on_c, 0, 64, 45
2, 19089, Note_on_c, 0, 58, 34
2, 19090, Note_on_c, 0, 62, 46
2, 19144, Control_c, 0, 64, 127
2, 19160, Note_on_c, 0, 36, 74
2, 19230, Note_on_c, 0, 64, 0
2, 19233, Note_on_c, 0, 48, 0
2, 19244, Note_on_c, 0, 62, 0
2, 19247, Note_on_c, 0, 58, 0
2, 19252, Note_on_c, 0, 67, 0
2, 19279, Note_on_c, 0, 65, 64
2, 19281, Note_on_c, 0, 58, 44
2, 19282, Note_on_c, 0, 48, 49
2, 19282, Note_on_c, 0, 62, 55
2, 19288, Control_c, 0, 64, 0
2, 19297, Note_on_c, 0, 36, 0
2, 19305, Control_c, 0, 64, 127
2, 19311, Note_on_c, 0, 48, 0
2, 19339, Note_on_c, 0, 58, 0
2, 19341, Note_on_c, 0, 62, 0
2, 19347, Note_on_c, 0, 65, 0
2, 19355, Note_on_c, 0, 64, 58
2, 19375, Note_on_c, 0, 64, 0
2, 19441, Control_c, 0, 64, 0
2, 19443, Note_on_c, 0, 67, 50
2, 19444, Note_on_c, 0, 69, 58
2, 19445, Note_on_c, 0, 58, 53
2, 19446, Note_on_c, 0, 63, 62
2, 19447, Note_on_c, 0, 51, 46
2, 19450, Note_on_c, 0, 41, 42
2, 19473, Control_c, 0, 64, 127
2, 19494, Note_on_c, 0, 58, 0
2, 19500, Note_on_c, 0, 67, 0
2, 19503, Note_on_c, 0, 63, 0
2, 19503, Note_on_c, 0, 69, 0
2, 19519, Note_on_c, 0, 41, 0
2, 19533, Note_on_c, 0, 74, 66
2, 19537, Note_on_c, 0, 51, 0
2, 19586, Note_on_c, 0, 74, 0
2, 19607, Note_on_c, 0, 70, 64
2, 19609, Note_on_c, 0, 63, 55
2, 19616, Note_on_c, 0, 60, 32
2, 19627, Note_on_c, 0, 63, 0
2, 19630, Note_on_c, 0, 60, 0
2, 19638, Note_on_c, 0, 70, 0
2, 19685, Note_on_c, 0, 86, 80
2, 19736, Note_on_c, 0, 86, 0
2, 19757, Note_on_c, 0, 81, 57
2, 19757, Note_on_c, 0, 67, 34
2, 19757, Note_on_c, 0, 74, 39
2, 19758, Note_on_c, 0, 63, 35
2, 19759, Note_on_c, 0, 78, 40
2, 19763, Note_on_c, 0, 57, 39
2, 19768, Control_c, 0, 64, 0
2, 19796, Control_c, 0, 64, 127
2, 19830, Note_on_c, 0, 84, 65
2, 19835, Note_on_c, 0, 67, 0
2, 19838, Note_on_c, 0, 78, 0
2, 19838, Note_on_c, 0, 81, 0
2, 19864, Note_on_c, 0, 63, 0
2, 19876, Note_on_c, 0, 74, 0
2, 19895, Note_on_c, 0, 84, 0
2, 19999, Note_on_c, 0, 67, 49
2, 20000, Note_on_c, 0, 63, 38
2, 20016, Note_on_c, 0, 67, 0
2, 20046, Note_on_c, 0, 77, 34
2, 20063, Note_on_c, 0, 77, 0
2, 20068, Note_on_c, 0, 63, 0
2, 20073, Note_on_c, 0, 57, 0
2, 20087, Note_on_c, 0, 79, 38
2, 20095, Note_on_c, 0, 79, 0
2, 20121, Note_on_c, 0, 82, 69
2, 20144, Note_on_c, 0, 82, 0
2, 20156, Note_on_c, 0, 65, 40
2, 20162, Note_on_c, 0, 81, 54
2, 20163, Note_on_c, 0, 62, 30
2, 20163, Control_c, 0, 64, 0
2, 20164, Note_on_c, 0, 60, 38
2, 20195, Note_on_c, 0, 65, 0
2, 20202, Control_c, 0, 64, 127
2, 20237, Note_on_c, 0, 81, 0
2, 20238, Note_on_c, 0, 53, 39
2, 20238, Note_on_c, 0, 77, 45
2, 20253, Control_c, 0, 64, 0
2, 20264, Note_on_c, 0, 77, 0
2, 20274, Note_on_c, 0, 62, 0
2, 20277, Note_on_c, 0, 60, 0
2, 20287, Note_on_c, 0, 74, 27
2, 20304, Note_on_c, 0, 74, 0
2, 20356, Note_on_c, 0, 65, 36
2, 20358, Note_on_c, 0, 62, 32
2, 20361, Note_on_c, 0, 69, 26
2, 20364, Note_on_c, 0, 65, 0
2, 20365, Note_on_c, 0, 60, 24
2, 20383, Note_on_c, 0, 69, 0
2, 20403, Note_on_c, 0, 65, 36
2, 20414, Note_on_c, 0, 53, 0
2, 20423, Note_on_c, 0, 65, 0
2, 20455, Control_c, 0, 64, 127
2, 20467, Note_on_c, 0, 62, 0
2, 20473, Note_on_c, 0, 60, 0
2, 20479, Note_on_c, 0, 84, 92
2, 20506, Note_on_c, 0, 84, 0
2, 20517, Note_on_c, 0, 65, 55
2, 20518, Note_on_c, 0, 61, 44
2, 20523, Control_c, 0, 64, 0
2, 20524, Note_on_c, 0, 65, 0
2, 20534, Note_on_c, 0, 61, 0
2, 20567, Note_on_c, 0, 82, 71
2, 20595, Note_on_c, 0, 82, 0
2, 20597, Control_c, 0, 64, 127
2, 20602, Note_on_c, 0, 73, 60
2, 20626, Note_on_c, 0, 73, 0
2, 20632, Control_c, 0, 64, 0
2, 20640, Note_on_c, 0, 39, 35
2, 20642, Note_on_c, 0, 72, 37
2, 20644, Note_on_c, 0, 46, 25
2, 20669, Note_on_c, 0, 72, 0
2, 20671, Note_on_c, 0, 39, 0
2, 20681, Note_on_c, 0, 70, 35
2, 20683, Note_on_c, 0, 46, 0
2, 20688, Control_c, 0, 64, 127
2, 20707, Note_on_c, 0, 70, 0
2, 20718, Note_on_c, 0, 69, 44
2, 20735, Note_on_c, 0, 69, 0
2, 20757, Note_on_c, 0, 65, 52
2, 20758, Note_on_c, 0, 61, 49
2, 20763, Control_c, 0, 64, 0
2, 20764, Note_on_c, 0, 65, 0
2, 20775, Note_on_c, 0, 61, 0
2, 20802, Note_on_c, 0, 70, 59
2, 20819, Note_on_c, 0, 70, 0
2, 20828, Control_c, 0, 64, 127
2, 20842, Note_on_c, 0, 74, 78
2, 20846, Note_on_c, 0, 58, 64
2, 20849, Note_on_c, 0, 73, 37
2, 20850, Note_on_c, 0, 70, 33
2, 20856, Note_on_c, 0, 73, 0
2, 20860, Note_on_c, 0, 70, 0
2, 20867, Note_on_c, 0, 74, 0
2, 20868, Note_on_c, 0, 58, 0
2, 20883, Control_c, 0, 64, 0
2, 20887, Note_on_c, 0, 72, 67
2, 20889, Note_on_c, 0, 62, 46
2, 20892, Note_on_c, 0, 57, 58
2, 20894, Note_on_c, 0, 67, 36
2, 20910, Control_c, 0, 64, 127
2, 20931, Note_on_c, 0, 72, 0
2, 20937, Note_on_c, 0, 67, 0
2, 20959, Note_on_c, 0, 62, 0
2, 20993, Note_on_c, 0, 57, 0
2, 21002, Control_c, 0, 64, 0
2, 21002, Note_on_c, 0, 69, 43
2, 21003, Note_on_c, 0, 64, 41
2, 21004, Note_on_c, 0, 53, 42
2, 21007, Note_on_c, 0, 60, 31
2, 21021, Control_c, 0, 64, 127
2, 21038, Note_on_c, 0, 69, 0
2, 21043, Note_on_c, 0, 64, 0
2, 21051, Note_on_c, 0, 60, 0
2, 21103, Note_on_c, 0, 53, 0
2, 21118, Control_c, 0, 64, 0
2, 21120, Note_on_c, 0, 57, 47
2, 21122, Note_on_c, 0, 60, 34
2, 21123, Note_on_c, 0, 50, 38
2, 21126, Note_on_c, 0, 65, 34
2, 21144, Control_c, 0, 64, 127
2, 21146, Note_on_c, 0, 50, 0
2, 21169, Note_on_c, 0, 65, 0
2, 21183, Note_on_c, 0, 60, 0
2, 21185, Note_on_c, 0, 57, 0
2, 21197, Note_on_c, 0, 44, 46
2, 21204, Note_on_c, 0, 44, 0
2, 21238, Note_on_c, 0, 67, 60
2, 21239, Note_on_c, 0, 59, 53
2, 21241, Note_on_c, 0, 56, 49
2, 21244, Note_on_c, 0, 62, 49
2, 21247, Control_c, 0, 64, 0
2, 21248, Note_on_c, 0, 55, 18
2, 21280, Control_c, 0, 64, 127
2, 21286, Note_on_c, 0, 67, 0
2, 21292, Note_on_c, 0, 55, 0
2, 21294, Note_on_c, 0, 56, 0
2, 21296, Note_on_c, 0, 59, 0
2, 21305, Note_on_c, 0, 62, 0
2, 21315, Note_on_c, 0, 66, 64
2, 21316, Note_on_c, 0, 54, 56
2, 21316, Note_on_c, 0, 56, 49
2, 21320, Note_on_c, 0, 62, 42
2, 21322, Note_on_c, 0, 59, 34
2, 21343, Note_on_c, 0, 66, 0
2, 21345, Note_on_c, 0, 54, 0
2, 21348, Note_on_c, 0, 59, 0
2, 21364, Note_on_c, 0, 53, 44
2, 21365, Note_on_c, 0, 65, 49
2, 21365, Note_on_c, 0, 59, 32
2, 21366, Control_c, 0, 64, 0
2, 21402, Control_c, 0, 64, 127
2, 21426, Note_on_c, 0, 56, 0
2, 21427, Note_on_c, 0, 62, 0
2, 21438, Note_on_c, 0, 59, 0
2, 21440, Note_on_c, 0, 53, 0
2, 21445, Note_on_c, 0, 50, 47
2, 21467, Note_on_c, 0, 65, 0
2, 21483, Note_on_c, 0, 59, 45
2, 21483, Note_on_c, 0, 54, 50
2, 21484, Control_c, 0, 64, 0
2, 21485, Note_on_c, 0, 55, 39
2, 21485, Note_on_c, 0, 44, 42
2, 21498, Note_on_c, 0, 50, 0
2, 21521, Control_c, 0, 64, 127
2, 21558, Note_on_c, 0, 59, 0
2, 21559, Note_on_c, 0, 55, 0
2, 21569, Note_on_c, 0, 54, 0
2, 21573, Note_on_c, 0, 50, 42
2, 21589, Note_on_c, 0, 44, 0
2, 21597, Control_c, 0, 64, 0
2, 21599, Note_on_c, 0, 50, 0
2, 21603, Note_on_c, 0, 58, 48
2, 21604, Note_on_c, 0, 53, 31
2, 21611, Note_on_c, 0, 55, 31
2, 21611, Note_on_c, 0, 43, 43
2, 21630, Control_c, 0, 64, 127
2, 21643, Note_on_c, 0, 53, 0
2, 21644, Note_on_c, 0, 55, 0
2, 21660, Note_on_c, 0, 58, 0
2, 21686, Note_on_c, 0, 46, 52
2, 21688, Note_on_c, 0, 61, 56
2, 21691, Note_on_c, 0, 55, 24
2, 21697, Note_on_c, 0, 43, 0
2, 21711, Note_on_c, 0, 55, 0
2, 21717, Note_on_c, 0, 61, 0
2, 21726, Control_c, 0, 64, 0
2, 21760, Note_on_c, 0, 65, 67
2, 21764, Note_on_c, 0, 50, 55
2, 21775, Note_on_c, 0, 65, 0
2, 21788, Note_on_c, 0, 50, 0
2, 21793, Note_on_c, 0, 46, 0
2, 21801, Note_on_c, 0, 53, 72
2, 21807, Control_c, 0, 64, 127
2, 21816, Note_on_c, 0, 53, 0
2, 21843, Note_on_c, 0, 62, 91
2, 21844, Control_c, 0, 64, 0
2, 21844, Note_on_c, 0, 72, 79
2, 21845, Note_on_c, 0, 69, 69
2, 21845, Note_on_c, 0, 65, 71
2, 21847, Note_on_c, 0, 60, 84
2, 21880, Note_on_c, 0, 69, 0
2, 21888, Note_on_c, 0, 65, 0
2, 21896, Note_on_c, 0, 72, 0
2, 21901, Control_c, 0, 64, 127
2, 21904, Note_on_c, 0, 62, 0
2, 21911, Note_on_c, 0, 60, 0
2, 21920, Note_on_c, 0, 58, 65
2, 21955, Note_on_c, 0, 58, 0
2, 21964, Note_on_c, 0, 69, 66
2, 21965, Control_c, 0, 64, 0
2, 21965, Note_on_c, 0, 58, 56
2, 21968, Note_on_c, 0, 61, 55
2, 21968, Note_on_c, 0, 57, 59
2, 21969, Note_on_c, 0, 64, 54
2, 22008, Control_c, 0, 64, 127
2, 22021, Note_on_c, 0, 64, 0
2, 22025, Note_on_c, 0, 61, 0
2, 22025, Note_on_c, 0, 58, 0
2, 22029, Note_on_c, 0, 69, 0
2, 22045, Note_on_c, 0, 48, 73
2, 22058, Control_c, 0, 64, 0
2, 22091, Control_c, 0, 64, 127
2, 22147, Note_on_c, 0, 60, 83
2, 22166, Note_on_c, 0, 60, 0
2, 22181, Note_on_c, 0, 61, 71
2, 22190, Note_on_c, 0, 57, 0
2, 22211, Note_on_c, 0, 61, 0
2, 22212, Control_c, 0, 64, 0
2, 22217, Note_on_c, 0, 62, 71
2, 22223, Note_on_c, 0, 48, 0
2, 22239, Note_on_c, 0, 62, 0
2, 22248, Note_on_c, 0, 65, 66
2, 22263, Note_on_c, 0, 65, 0
2, 22280, Control_c, 0, 64, 127
2, 22287, Note_on_c, 0, 67, 73
2, 22310, Note_on_c, 0, 67, 0
2, 22321, Control_c, 0, 64, 0
2, 22328, Note_on_c, 0, 62, 59
2, 22329, Note_on_c, 0, 47, 42
2, 22329, Note_on_c, 0, 65, 62
2, 22331, Note_on_c, 0, 57, 51
2, 22362, Note_on_c, 0, 62, 0
2, 22372, Note_on_c, 0, 57, 0
2, 22394, Note_on_c, 0, 65, 0
2, 22395, Control_c, 0, 64, 127
2, 22400, Note_on_c, 0, 65, 19
2, 22403, Note_on_c, 0, 56, 46
2, 22404, Note_on_c, 0, 47, 0
2, 22405, Note_on_c, 0, 61, 46
2, 22405, Note_on_c, 0, 46, 46
2, 22421, Note_on_c, 0, 65, 0
2, 22429, Note_on_c, 0, 56, 0
2, 22429, Note_on_c, 0, 61, 0
2, 22438, Control_c, 0, 64, 0
2, 22441, Note_on_c, 0, 46, 0
2, 22448, Note_on_c, 0, 45, 44
2, 22449, Note_on_c, 0, 60, 43
2, 22451, Note_on_c, 0, 65, 18
2, 22452, Note_on_c, 0, 55, 32
2, 22482, Note_on_c, 0, 55, 0
2, 22494, Note_on_c, 0, 60, 0
2, 22502, Note_on_c, 0, 65, 0
2, 22503, Control_c, 0, 64, 127
2, 22514, Note_on_c, 0, 65, 27
2, 22519, Note_on_c, 0, 54, 56
2, 22519, Note_on_c, 0, 44, 50
2, 22521, Note_on_c, 0, 45, 0
2, 22521, Note_on_c, 0, 59, 49
2, 22545, Note_on_c, 0, 59, 0
2, 22545, Note_on_c, 0, 54, 0
2, 22557, Note_on_c, 0, 44, 0
2, 22560, Control_c, 0, 64, 0
2, 22566, Note_on_c, 0, 43, 41
2, 22569, Note_on_c, 0, 58, 38
2, 22570, Note_on_c, 0, 53, 24
2, 22597, Note_on_c, 0, 43, 0
2, 22608, Note_on_c, 0, 53, 0
2, 22620, Note_on_c, 0, 58, 0
2, 22633, Note_on_c, 0, 65, 0
2, 22638, Control_c, 0, 64, 127
2, 22640, Note_on_c, 0, 27, 55
2, 22642, Note_on_c, 0, 37, 53
2, 22654, Note_on_c, 0, 37, 0
2, 22661, Note_on_c, 0, 27, 0
2, 22681, Control_c, 0, 64, 0
2, 22685, Note_on_c, 0, 36, 68
2, 22685, Note_on_c, 0, 63, 40
2, 22685, Note_on_c, 0, 52, 53
2, 22686, Note_on_c, 0, 58, 49
2, 22749, Control_c, 0, 64, 127
2, 22753, Note_on_c, 0, 52, 0
2, 22763, Note_on_c, 0, 24, 90
2, 22785, Note_on_c, 0, 58, 0
2, 22792, Note_on_c, 0, 36, 0
2, 22803, Note_on_c, 0, 24, 0
2, 22805, Note_on_c, 0, 63, 0
2, 22888, Note_on_c, 0, 72, 82
2, 22921, Note_on_c, 0, 63, 35
2, 22921, Note_on_c, 0, 58, 43
2, 22925, Note_on_c, 0, 73, 67
2, 22926, Note_on_c, 0, 52, 24
2, 22927, Note_on_c, 0, 63, 0
2, 22936, Note_on_c, 0, 72, 0
2, 22937, Note_on_c, 0, 58, 0
2, 22938, Control_c, 0, 64, 0
2, 22940, Note_on_c, 0, 52, 0
2, 22946, Note_on_c, 0, 73, 0
2, 22962, Note_on_c, 0, 74, 54
2, 22975, Control_c, 0, 64, 127
2, 22982, Note_on_c, 0, 74, 0
2, 23000, Note_on_c, 0, 77, 77
2, 23030, Note_on_c, 0, 77, 0
2, 23031, Control_c, 0, 64, 0
2, 23041, Note_on_c, 0, 41, 38
2, 23045, Note_on_c, 0, 48, 32
2, 23046, Note_on_c, 0, 77, 57
2, 23056, Control_c, 0, 64, 127
2, 23057, Note_on_c, 0, 41, 0
2, 23065, Note_on_c, 0, 48, 0
2, 23118, Note_on_c, 0, 77, 0
2, 23165, Note_on_c, 0, 72, 57
2, 23172, Note_on_c, 0, 62, 26
2, 23172, Note_on_c, 0, 60, 28
2, 23172, Note_on_c, 0, 57, 35
2, 23178, Note_on_c, 0, 53, 24
2, 23193, Note_on_c, 0, 72, 0
2, 23194, Note_on_c, 0, 62, 0
2, 23219, Note_on_c, 0, 60, 0
2, 23223, Note_on_c, 0, 57, 0
2, 23287, Note_on_c, 0, 62, 55
2, 23288, Note_on_c, 0, 69, 94
2, 23290, Note_on_c, 0, 60, 46
2, 23292, Note_on_c, 0, 57, 41
2, 23298, Note_on_c, 0, 62, 0
2, 23299, Note_on_c, 0, 60, 0
2, 23318, Note_on_c, 0, 57, 0
2, 23328, Note_on_c, 0, 53, 0
2, 23347, Note_on_c, 0, 69, 0
2, 23404, Note_on_c, 0, 69, 53
2, 23406, Note_on_c, 0, 50, 33
2, 23408, Control_c, 0, 64, 0
2, 23409, Note_on_c, 0, 57, 29
2, 23437, Control_c, 0, 64, 127
2, 23449, Note_on_c, 0, 57, 0
2, 23525, Note_on_c, 0, 62, 34
2, 23526, Note_on_c, 0, 65, 37
2, 23529, Note_on_c, 0, 57, 22
2, 23536, Note_on_c, 0, 57, 0
2, 23550, Note_on_c, 0, 50, 0
2, 23555, Note_on_c, 0, 65, 0
2, 23559, Note_on_c, 0, 69, 0
2, 23571, Note_on_c, 0, 62, 0
2, 23648, Note_on_c, 0, 61, 65
2, 23649, Note_on_c, 0, 64, 71
2, 23651, Note_on_c, 0, 58, 54
2, 23651, Note_on_c, 0, 49, 56
2, 23659, Control_c, 0, 64, 0
2, 23696, Control_c, 0, 64, 127
2, 23703, Note_on_c, 0, 58, 0
2, 23708, Note_on_c, 0, 61, 0
2, 23713, Note_on_c, 0, 64, 0
2, 23725, Note_on_c, 0, 67, 64
2, 23727, Note_on_c, 0, 61, 64
2, 23727, Note_on_c, 0, 52, 65
2, 23728, Note_on_c, 0, 58, 63
2, 23739, Note_on_c, 0, 49, 0
2, 23751, Note_on_c, 0, 67, 0
2, 23757, Note_on_c, 0, 61, 0
2, 23759, Note_on_c, 0, 58, 0
2, 23763, Note_on_c, 0, 52, 0
2, 23772, Control_c, 0, 64, 0
2, 23773, Note_on_c, 0, 65, 54
2, 23773, Note_on_c, 0, 50, 51
2, 23774, Note_on_c, 0, 62, 43
2, 23776, Note_on_c, 0, 57, 44
2, 23807, Control_c, 0, 64, 127
2, 23816, Note_on_c, 0, 62, 0
2, 23822, Note_on_c, 0, 65, 0
2, 23839, Note_on_c, 0, 57, 0
2, 23882, Note_on_c, 0, 50, 0
2, 23896, Note_on_c, 0, 49, 44
2, 23896, Note_on_c, 0, 61, 31
2, 23897, Control_c, 0, 64, 0
2, 23897, Note_on_c, 0, 55, 33
2, 23898, Note_on_c, 0, 58, 25
2, 23941, Control_c, 0, 64, 127
2, 23950, Note_on_c, 0, 55, 0
2, 23967, Note_on_c, 0, 61, 0
2, 23969, Note_on_c, 0, 58, 0
2, 23984, Note_on_c, 0, 62, 74
2, 23986, Note_on_c, 0, 53, 64
2, 23986, Note_on_c, 0, 57, 66
2, 23991, Note_on_c, 0, 49, 0
2, 23993, Note_on_c, 0, 50, 53
2, 24005, Control_c, 0, 64, 0
2, 24080, Control_c, 0, 64, 127
2, 24086, Note_on_c, 0, 50, 0
2, 24088, Note_on_c, 0, 38, 81
2, 24092, Note_on_c, 0, 53, 0
2, 24100, Note_on_c, 0, 57, 0
2, 24124, Control_c, 0, 64, 0
2, 24161, Control_c, 0, 64, 127
2, 24209, Note_on_c, 0, 42, 36
2, 24235, Note_on_c, 0, 38, 0
2, 24243, Note_on_c, 0, 42, 0
2, 24247, Note_on_c, 0, 45, 51
2, 24249, Control_c, 0, 64, 0
2, 24249, Note_on_c, 0, 57, 37
2, 24253, Note_on_c, 0, 53, 28
2, 24326, Note_on_c, 0, 45, 0
2, 24329, Note_on_c, 0, 41, 52
2, 24342, Control_c, 0, 64, 127
2, 24353, Note_on_c, 0, 41, 0
2, 24363, Note_on_c, 0, 53, 0
2, 24364, Note_on_c, 0, 57, 0
2, 24366, Control_c, 0, 64, 0
2, 24371, Note_on_c, 0, 42, 49
2, 24434, Control_c, 0, 64, 127
2, 24435, Note_on_c, 0, 42, 0
2, 24445, Note_on_c, 0, 39, 42
2, 24451, Note_on_c, 0, 62, 0
2, 24481, Note_on_c, 0, 43, 48
2, 24482, Note_on_c, 0, 39, 0
2, 24482, Control_c, 0, 64, 0
2, 24485, Note_on_c, 0, 58, 37
2, 24497, Note_on_c, 0, 43, 0
2, 24500, Control_c, 0, 64, 127
2, 24576, Note_on_c, 0, 58, 0
2, 24602, Note_on_c, 0, 58, 43
2, 24606, Note_on_c, 0, 53, 31
2, 24608, Note_on_c, 0, 50, 29
2, 24610, Note_on_c, 0, 55, 25
2, 24659, Note_on_c, 0, 53, 0
2, 24667, Note_on_c, 0, 55, 0
2, 24672, Note_on_c, 0, 58, 0
2, 24715, Note_on_c, 0, 50, 0
2, 24722, Control_c, 0, 64, 0
2, 24725, Note_on_c, 0, 52, 44
2, 24726, Note_on_c, 0, 64, 72
2, 24729, Note_on_c, 0, 58, 62
2, 24729, Note_on_c, 0, 55, 61
2, 24747, Note_on_c, 0, 52, 0
2, 24749, Control_c, 0, 64, 127
2, 24765, Note_on_c, 0, 55, 0
2, 24773, Note_on_c, 0, 64, 0
2, 24793, Note_on_c, 0, 58, 0
2, 24804, Note_on_c, 0, 55, 48
2, 24807, Note_on_c, 0, 65, 49
2, 24813, Note_on_c, 0, 65, 0
2, 24840, Note_on_c, 0, 55, 0
2, 24840, Control_c, 0, 64, 0
2, 24844, Note_on_c, 0, 48, 50
2, 24844, Note_on_c, 0, 62, 53
2, 24844, Note_on_c, 0, 67, 44
2, 24845, Note_on_c, 0, 64, 49
2, 24846, Note_on_c, 0, 58, 42
2, 24871, Control_c, 0, 64, 127
2, 24879, Note_on_c, 0, 62, 0
2, 24881, Note_on_c, 0, 64, 0
2, 24882, Note_on_c, 0, 67, 0
2, 24918, Note_on_c, 0, 58, 0
2, 24927, Note_on_c, 0, 48, 0
2, 24960, Note_on_c, 0, 74, 74
2, 24961, Note_on_c, 0, 63, 71
2, 24962, Note_on_c, 0, 67, 72
2, 24963, Note_on_c, 0, 70, 71
2, 24963, Note_on_c, 0, 64, 80
2, 24967, Control_c, 0, 64, 0
2, 24996, Control_c, 0, 64, 127
2, 25025, Note_on_c, 0, 63, 0
2, 25041, Note_on_c, 0, 74, 0
2, 25043, Note_on_c, 0, 64, 0
2, 25044, Note_on_c, 0, 67, 0
2, 25059, Note_on_c, 0, 70, 0
2, 25079, Note_on_c, 0, 60, 41
2, 25081, Note_on_c, 0, 64, 47
2, 25082, Note_on_c, 0, 72, 58
2, 25082, Note_on_c, 0, 67, 58
2, 25083, Control_c, 0, 64, 0
2, 25093, Control_c, 0, 64, 127
2, 25109, Note_on_c, 0, 64, 0
2, 25152, Note_on_c, 0, 67, 0
2, 25158, Note_on_c, 0, 60, 0
2, 25177, Note_on_c, 0, 72, 0
2, 25196, Control_c, 0, 64, 0
2, 25200, Note_on_c, 0, 63, 37
2, 25201, Note_on_c, 0, 69, 45
2, 25202, Note_on_c, 0, 60, 40
2, 25202, Note_on_c, 0, 65, 34
2, 25204, Note_on_c, 0, 53, 36
2, 25221, Control_c, 0, 64, 127
2, 25235, Note_on_c, 0, 65, 0
2, 25251, Note_on_c, 0, 69, 0
2, 25252, Note_on_c, 0, 60, 0
2, 25270, Note_on_c, 0, 63, 0
2, 25328, Note_on_c, 0, 63, 36
2, 25332, Note_on_c, 0, 60, 35
2, 25339, Note_on_c, 0, 60, 0
2, 25339, Note_on_c, 0, 53, 0
2, 25352, Note_on_c, 0, 63, 0
2, 25404, Note_on_c, 0, 93, 81
2, 25406, Note_on_c, 0, 81, 71
2, 25406, Note_on_c, 0, 89, 69
2, 25417, Note_on_c, 0, 89, 0
2, 25417, Note_on_c, 0, 81, 0
2, 25423, Note_on_c, 0, 93, 0
2, 25455, Control_c, 0, 64, 0
2, 25457, Note_on_c, 0, 93, 72
2, 25458, Note_on_c, 0, 89, 53
2, 25461, Note_on_c, 0, 81, 42
2, 25467, Note_on_c, 0, 89, 0
2, 25469, Note_on_c, 0, 81, 0
2, 25474, Note_on_c, 0, 93, 0
2, 25500, Control_c, 0, 64, 127
2, 25538, Note_on_c, 0, 92, 67
2, 25540, Note_on_c, 0, 80, 60
2, 25547, Note_on_c, 0, 89, 27
2, 25558, Note_on_c, 0, 89, 0
2, 25566, Note_on_c, 0, 80, 0
2, 25568, Note_on_c, 0, 92, 0
2, 25574, Control_c, 0, 64, 0
2, 25583, Note_on_c, 0, 63, 34
2, 25584, Note_on_c, 0, 57, 47
2, 25585, Note_on_c, 0, 91, 57
2, 25587, Note_on_c, 0, 67, 25
2, 25587, Note_on_c, 0, 79, 33
2, 25593, Control_c, 0, 64, 127
2, 25598, Note_on_c, 0, 67, 0
2, 25606, Note_on_c, 0, 91, 0
2, 25607, Note_on_c, 0, 63, 0
2, 25613, Note_on_c, 0, 57, 0
2, 25616, Note_on_c, 0, 79, 0
2, 25664, Note_on_c, 0, 48, 54
2, 25691, Note_on_c, 0, 48, 0
2, 25706, Note_on_c, 0, 51, 38
2, 25769, Note_on_c, 0, 51, 0
2, 25780, Note_on_c, 0, 48, 55
2, 25781, Note_on_c, 0, 67, 51
2, 25782, Note_on_c, 0, 62, 63
2, 25784, Note_on_c, 0, 57, 49
2, 25799, Note_on_c, 0, 57, 0
2, 25799, Note_on_c, 0, 67, 0
2, 25803, Note_on_c, 0, 62, 0
2, 25812, Note_on_c, 0, 48, 0
2, 25827, Note_on_c, 0, 45, 34
2, 25829, Note_on_c, 0, 63, 36
2, 25831, Control_c, 0, 64, 0
2, 25833, Note_on_c, 0, 61, 46
2, 25835, Note_on_c, 0, 66, 19
2, 25837, Note_on_c, 0, 57, 17
2, 25842, Note_on_c, 0, 45, 0
2, 25877, Control_c, 0, 64, 127
2, 25890, Note_on_c, 0, 57, 0
2, 25896, Note_on_c, 0, 66, 0
2, 25899, Note_on_c, 0, 40, 65
2, 25900, Note_on_c, 0, 61, 0
2, 25904, Note_on_c, 0, 63, 0
2, 25917, Note_on_c, 0, 40, 0
2, 25939, Control_c, 0, 64, 0
2, 25940, Note_on_c, 0, 35, 60
2, 25940, Note_on_c, 0, 47, 45
2, 25943, Note_on_c, 0, 62, 47
2, 25945, Note_on_c, 0, 57, 47
2, 25961, Note_on_c, 0, 35, 0
2, 25963, Note_on_c, 0, 57, 0
2, 25966, Note_on_c, 0, 47, 0
2, 25967, Control_c, 0, 64, 127
2, 25973, Note_on_c, 0, 62, 0
2, 26057, Note_on_c, 0, 57, 62
2, 26062, Note_on_c, 0, 66, 50
2, 26063, Note_on_c, 0, 62, 48
2, 26064, Control_c, 0, 64, 0
2, 26089, Note_on_c, 0, 66, 0
2, 26102, Note_on_c, 0, 74, 60
2, 26103, Note_on_c, 0, 86, 69
2, 26107, Control_c, 0, 64, 127
2, 26117, Note_on_c, 0, 86, 0
2, 26118, Note_on_c, 0, 74, 0
2, 26127, Note_on_c, 0, 62, 0
2, 26139, Note_on_c, 0, 57, 0
2, 26147, Note_on_c, 0, 85, 51
2, 26155, Note_on_c, 0, 85, 0
2, 26159, Control_c, 0, 64, 0
2, 26173, Note_on_c, 0, 57, 47
2, 26176, Note_on_c, 0, 62, 36
2, 26176, Note_on_c, 0, 66, 34
2, 26181, Note_on_c, 0, 86, 75
2, 26183, Note_on_c, 0, 74, 70
2, 26192, Control_c, 0, 64, 127
2, 26224, Note_on_c, 0, 86, 0
2, 26226, Note_on_c, 0, 74, 0
2, 26251, Note_on_c, 0, 57, 0
2, 26258, Note_on_c, 0, 74, 50
2, 26260, Note_on_c, 0, 86, 57
2, 26273, Note_on_c, 0, 74, 0
2, 26275, Note_on_c, 0, 86, 0
2, 26292, Control_c, 0, 64, 0
2, 26296, Note_on_c, 0, 56, 45
2, 26298, Note_on_c, 0, 76, 55
2, 26299, Note_on_c, 0, 88, 64
2, 26313, Control_c, 0, 64, 127
2, 26316, Note_on_c, 0, 62, 0
2, 26330, Note_on_c, 0, 66, 0
2, 26407, Note_on_c, 0, 66, 34
2, 26407, Note_on_c, 0, 62, 37
2, 26424, Note_on_c, 0, 88, 0
2, 26427, Note_on_c, 0, 76, 0
2, 26460, Note_on_c, 0, 62, 0
2, 26466, Note_on_c, 0, 66, 0
2, 26474, Note_on_c, 0, 56, 0
2, 26515, Control_c, 0, 64, 0
2, 26521, Note_on_c, 0, 86, 73
2, 26521, Note_on_c, 0, 62, 43
2, 26521, Note_on_c, 0, 56, 55
2, 26522, Note_on_c, 0, 74, 63
2, 26523, Note_on_c, 0, 65, 49
2, 26531, Note_on_c, 0, 65, 0
2, 26531, Control_c, 0, 64, 127
2, 26532, Note_on_c, 0, 62, 0
2, 26551, Note_on_c, 0, 56, 0
2, 26583, Note_on_c, 0, 86, 0
2, 26596, Note_on_c, 0, 74, 0
2, 26602, Note_on_c, 0, 52, 38
2, 26622, Control_c, 0, 64, 0
2, 26631, Note_on_c, 0, 45, 60
2, 26637, Note_on_c, 0, 84, 48
2, 26639, Note_on_c, 0, 72, 46
2, 26645, Note_on_c, 0, 45, 0
2, 26648, Control_c, 0, 64, 127
2, 26657, Note_on_c, 0, 52, 0
2, 26666, Note_on_c, 0, 84, 0
2, 26686, Note_on_c, 0, 72, 0
2, 26752, Note_on_c, 0, 64, 49
2, 26756, Note_on_c, 0, 57, 40
2, 26758, Note_on_c, 0, 60, 35
2, 26761, Note_on_c, 0, 64, 0
2, 26765, Note_on_c, 0, 60, 0
2, 26776, Note_on_c, 0, 57, 0
2, 26792, Control_c, 0, 64, 0
2, 26833, Note_on_c, 0, 71, 64
2, 26833, Note_on_c, 0, 68, 51
2, 26834, Note_on_c, 0, 64, 73
2, 26834, Note_on_c, 0, 59, 76
2, 26835, Note_on_c, 0, 60, 72
2, 26850, Control_c, 0, 64, 127
2, 26860, Note_on_c, 0, 64, 0
2, 26862, Note_on_c, 0, 68, 0
2, 26863, Note_on_c, 0, 60, 0
2, 26865, Control_c, 0, 64, 0
2, 26868, Note_on_c, 0, 71, 0
2, 26874, Note_on_c, 0, 59, 0
2, 26879, Note_on_c, 0, 57, 60
2, 26882, Note_on_c, 0, 69, 55
2, 26882, Note_on_c, 0, 64, 43
2, 26884, Note_on_c, 0, 60, 38
2, 26897, Note_on_c, 0, 57, 0
2, 26898, Control_c, 0, 64, 127
2, 26946, Note_on_c, 0, 60, 0
2, 26950, Note_on_c, 0, 64, 0
2, 26962, Note_on_c, 0, 45, 55
2, 26966, Note_on_c, 0, 52, 32
2, 26986, Note_on_c, 0, 52, 0
2, 27001, Note_on_c, 0, 64, 62
2, 27002, Control_c, 0, 64, 0
2, 27002, Note_on_c, 0, 56, 55
2, 27002, Note_on_c, 0, 60, 57
2, 27044, Control_c, 0, 64, 127
2, 27090, Note_on_c, 0, 60, 0
2, 27091, Note_on_c, 0, 64, 0
2, 27097, Note_on_c, 0, 56, 0
2, 27124, Note_on_c, 0, 64, 49
2, 27125, Note_on_c, 0, 55, 46
2, 27126, Note_on_c, 0, 60, 37
2, 27132, Control_c, 0, 64, 0
2, 27153, Control_c, 0, 64, 127
2, 27169, Note_on_c, 0, 69, 0
2, 27180, Note_on_c, 0, 64, 0
2, 27181, Note_on_c, 0, 60, 0
2, 27182, Note_on_c, 0, 55, 0
2, 27192, Note_on_c, 0, 45, 0
2, 27242, Note_on_c, 0, 55, 69
2, 27255, Control_c, 0, 64, 0
2, 27288, Control_c, 0, 64, 127
2, 27321, Note_on_c, 0, 55, 0
2, 27324, Note_on_c, 0, 44, 38
2, 27328, Note_on_c, 0, 50, 24
2, 27345, Note_on_c, 0, 50, 0
2, 27353, Note_on_c, 0, 44, 0
2, 27362, Control_c, 0, 64, 0
2, 27362, Note_on_c, 0, 53, 41
2, 27362, Note_on_c, 0, 58, 46
2, 27368, Note_on_c, 0, 43, 37
2, 27375, Note_on_c, 0, 50, 38
2, 27402, Control_c, 0, 64, 127
2, 27406, Note_on_c, 0, 53, 0
2, 27409, Note_on_c, 0, 50, 0
2, 27428, Note_on_c, 0, 58, 0
2, 27484, Note_on_c, 0, 62, 57
2, 27487, Note_on_c, 0, 58, 42
2, 27487, Note_on_c, 0, 55, 48
2, 27489, Note_on_c, 0, 53, 36
2, 27508, Note_on_c, 0, 43, 0
2, 27511, Note_on_c, 0, 55, 0
2, 27518, Note_on_c, 0, 58, 0
2, 27523, Note_on_c, 0, 62, 0
2, 27537, Note_on_c, 0, 53, 0
2, 27566, Note_on_c, 0, 67, 69
2, 27568, Note_on_c, 0, 62, 68
2, 27568, Note_on_c, 0, 57, 73
2, 27569, Note_on_c, 0, 58, 77
2, 27571, Note_on_c, 0, 65, 66
2, 27573, Control_c, 0, 64, 0
2, 27599, Control_c, 0, 64, 127
2, 27620, Note_on_c, 0, 67, 0
2, 27622, Note_on_c, 0, 57, 0
2, 27626, Note_on_c, 0, 62, 0
2, 27626, Note_on_c, 0, 58, 0
2, 27632, Note_on_c, 0, 65, 0
2, 27646, Note_on_c, 0, 62, 60
2, 27647, Note_on_c, 0, 67, 54
2, 27648, Note_on_c, 0, 58, 69
2, 27649, Note_on_c, 0, 57, 57
2, 27687, Note_on_c, 0, 67, 0
2, 27688, Note_on_c, 0, 62, 0
2, 27699, Note_on_c, 0, 58, 0
2, 27703, Note_on_c, 0, 57, 0
2, 27726, Control_c, 0, 64, 0
2, 27727, Note_on_c, 0, 66, 55
2, 27728, Note_on_c, 0, 57, 56
2, 27728, Note_on_c, 0, 62, 56
2, 27731, Note_on_c, 0, 50, 49
2, 27732, Note_on_c, 0, 54, 42
2, 27759, Control_c, 0, 64, 127
2, 27767, Note_on_c, 0, 57, 0
2, 27800, Note_on_c, 0, 62, 0
2, 27812, Note_on_c, 0, 66, 0
2, 27842, Note_on_c, 0, 57, 51
2, 27843, Note_on_c, 0, 67, 50
2, 27845, Note_on_c, 0, 62, 60
2, 27879, Note_on_c, 0, 67, 0
2, 27883, Note_on_c, 0, 50, 0
2, 27933, Note_on_c, 0, 62, 0
2, 27960, Note_on_c, 0, 50, 54
2, 27994, Note_on_c, 0, 57, 0
2, 28006, Note_on_c, 0, 50, 0
2, 28010, Note_on_c, 0, 54, 0
2, 28036, Note_on_c, 0, 69, 58
2, 28050, Note_on_c, 0, 69, 0
2, 28086, Note_on_c, 0, 53, 54
2, 28086, Note_on_c, 0, 67, 65
2, 28086, Note_on_c, 0, 49, 50
2, 28087, Control_c, 0, 64, 0
2, 28088, Note_on_c, 0, 63, 64
2, 28088, Note_on_c, 0, 70, 72
2, 28089, Note_on_c, 0, 59, 69
2, 28136, Note_on_c, 0, 70, 0
2, 28145, Control_c, 0, 64, 127
2, 28165, Note_on_c, 0, 70, 75
2, 28220, Note_on_c, 0, 70, 0
2, 28221, Note_on_c, 0, 59, 0
2, 28223, Note_on_c, 0, 67, 0
2, 28226, Note_on_c, 0, 63, 0
2, 28254, Note_on_c, 0, 68, 60
2, 28255, Note_on_c, 0, 63, 57
2, 28259, Note_on_c, 0, 59, 52
2, 28301, Note_on_c, 0, 59, 0
2, 28301, Note_on_c, 0, 63, 0
2, 28307, Note_on_c, 0, 49, 0
2, 28323, Note_on_c, 0, 68, 0
2, 28333, Note_on_c, 0, 63, 51
2, 28335, Note_on_c, 0, 59, 44
2, 28337, Note_on_c, 0, 58, 35
2, 28393, Note_on_c, 0, 58, 0
2, 28395, Note_on_c, 0, 59, 0
2, 28406, Note_on_c, 0, 53, 0
2, 28410, Note_on_c, 0, 63, 0
2, 28412, Note_on_c, 0, 49, 36
2, 28438, Note_on_c, 0, 49, 0
2, 28453, Control_c, 0, 64, 0
2, 28454, Note_on_c, 0, 67, 41
2, 28455, Note_on_c, 0, 58, 46
2, 28457, Note_on_c, 0, 64, 53
2, 28457, Note_on_c, 0, 62, 51
2, 28460, Note_on_c, 0, 55, 35
2, 28464, Note_on_c, 0, 48, 38
2, 28468, Note_on_c, 0, 55, 0
2, 28478, Note_on_c, 0, 48, 0
2, 28480, Control_c, 0, 64, 127
2, 28485, Note_on_c, 0, 67, 0
2, 28489, Note_on_c, 0, 62, 0
2, 28490, Note_on_c, 0, 64, 0
2, 28498, Note_on_c, 0, 58, 0
2, 28581, Note_on_c, 0, 61, 57
2, 28582, Note_on_c, 0, 58, 60
2, 28582, Note_on_c, 0, 52, 58
2, 28585, Note_on_c, 0, 42, 45
2, 28588, Note_on_c, 0, 49, 34
2, 28597, Control_c, 0, 64, 0
2, 28642, Control_c, 0, 64, 127
2, 28696, Note_on_c, 0, 42, 0
2, 28720, Note_on_c, 0, 52, 0
2, 28727, Note_on_c, 0, 49, 0
2, 28768, Note_on_c, 0, 48, 33
2, 28775, Note_on_c, 0, 58, 0
2, 28792, Note_on_c, 0, 61, 0
2, 28799, Note_on_c, 0, 48, 0
2, 28801, Control_c, 0, 64, 0
2, 28810, Note_on_c, 0, 60, 43
2, 28811, Note_on_c, 0, 57, 35
2, 28812, Note_on_c, 0, 50, 36
2, 28816, Note_on_c, 0, 41, 24
2, 28822, Control_c, 0, 64, 127
2, 28826, Note_on_c, 0, 41, 0
2, 28831, Note_on_c, 0, 57, 0
2, 28834, Note_on_c, 0, 50, 0
2, 28837, Note_on_c, 0, 60, 0
2, 28930, Note_on_c, 0, 62, 55
2, 28933, Note_on_c, 0, 60, 46
2, 28938, Note_on_c, 0, 57, 34
2, 28940, Note_on_c, 0, 60, 0
2, 28940, Note_on_c, 0, 62, 0
2, 28941, Control_c, 0, 64, 0
2, 28947, Note_on_c, 0, 57, 0
2, 29008, Note_on_c, 0, 86, 74
2, 29009, Note_on_c, 0, 74, 62
2, 29015, Control_c, 0, 64, 127
2, 29028, Note_on_c, 0, 74, 0
2, 29029, Note_on_c, 0, 86, 0
2, 29046, Control_c, 0, 64, 0
2, 29048, Note_on_c, 0, 62, 49
2, 29051, Note_on_c, 0, 84, 50
2, 29053, Note_on_c, 0, 60, 31
2, 29053, Note_on_c, 0, 72, 48
2, 29054, Note_on_c, 0, 57, 35
2, 29055, Note_on_c, 0, 62, 0
2, 29060, Note_on_c, 0, 60, 0
2, 29061, Note_on_c, 0, 53, 20
2, 29067, Note_on_c, 0, 57, 0
2, 29073, Note_on_c, 0, 53, 0
2, 29087, Control_c, 0, 64, 127
2, 29103, Note_on_c, 0, 84, 0
2, 29120, Note_on_c, 0, 72, 0
2, 29126, Note_on_c, 0, 48, 47
2, 29153, Note_on_c, 0, 48, 0
2, 29155, Control_c, 0, 64, 0
2, 29165, Note_on_c, 0, 50, 54
2, 29167, Note_on_c, 0, 41, 40
2, 29169, Note_on_c, 0, 81, 47
2, 29169, Note_on_c, 0, 69, 51
2, 29173, Note_on_c, 0, 74, 26
2, 29178, Note_on_c, 0, 41, 0
2, 29179, Control_c, 0, 64, 127
2, 29183, Note_on_c, 0, 50, 0
2, 29203, Note_on_c, 0, 81, 0
2, 29206, Note_on_c, 0, 74, 0
2, 29222, Note_on_c, 0, 69, 0
2, 29289, Note_on_c, 0, 77, 38
2, 29289, Note_on_c, 0, 72, 33
2, 29290, Note_on_c, 0, 60, 32
2, 29291, Note_on_c, 0, 62, 32
2, 29292, Note_on_c, 0, 65, 34
2, 29292, Note_on_c, 0, 53, 29
2, 29292, Note_on_c, 0, 57, 37
2, 29309, Note_on_c, 0, 62, 0
2, 29313, Control_c, 0, 64, 0
2, 29320, Note_on_c, 0, 60, 0
2, 29332, Note_on_c, 0, 53, 0
2, 29336, Note_on_c, 0, 57, 0
2, 29338, Control_c, 0, 64, 127
2, 29379, Control_c, 0, 64, 0
2, 29409, Note_on_c, 0, 53, 36
2, 29410, Note_on_c, 0, 60, 35
2, 29410, Note_on_c, 0, 62, 31
2, 29413, Note_on_c, 0, 57, 36
2, 29416, Note_on_c, 0, 60, 0
2, 29416, Control_c, 0, 64, 127
2, 29417, Note_on_c, 0, 62, 0
2, 29422, Note_on_c, 0, 57, 0
2, 29430, Note_on_c, 0, 53, 0
2, 29489, Note_on_c, 0, 45, 55
2, 29495, Note_on_c, 0, 38, 50
2, 29523, Control_c, 0, 64, 0
2, 29531, Note_on_c, 0, 38, 0
2, 29534, Note_on_c, 0, 53, 55
2, 29546, Control_c, 0, 64, 127
2, 29548, Note_on_c, 0, 45, 0
2, 29564, Note_on_c, 0, 53, 0
2, 29578, Note_on_c, 0, 72, 0
2, 29596, Note_on_c, 0, 77, 0
2, 29600, Note_on_c, 0, 65, 0
2, 29652, Note_on_c, 0, 60, 54
2, 29655, Note_on_c, 0, 57, 36
2, 29658, Note_on_c, 0, 53, 30
2, 29661, Note_on_c, 0, 50, 24
2, 29665, Control_c, 0, 64, 0
2, 29714, Note_on_c, 0, 60, 0
2, 29718, Control_c, 0, 64, 127
2, 29720, Note_on_c, 0, 57, 0
2, 29729, Note_on_c, 0, 64, 105
2, 29759, Note_on_c, 0, 64, 0
2, 29766, Note_on_c, 0, 57, 46
2, 29770, Note_on_c, 0, 60, 35
2, 29778, Control_c, 0, 64, 0
2, 29781, Note_on_c, 0, 67, 88
2, 29782, Note_on_c, 0, 50, 0
2, 29784, Note_on_c, 0, 60, 0
2, 29832, Control_c, 0, 64, 127
2, 29840, Note_on_c, 0, 67, 0
2, 29850, Note_on_c, 0, 64, 72
2, 29884, Note_on_c, 0, 64, 0
2, 29891, Note_on_c, 0, 57, 0
2, 29893, Control_c, 0, 64, 0
2, 29893, Note_on_c, 0, 50, 36
2, 29894, Note_on_c, 0, 65, 77
2, 29897, Note_on_c, 0, 53, 0
2, 29913, Note_on_c, 0, 50, 0
2, 29955, Control_c, 0, 64, 127
2, 29958, Note_on_c, 0, 65, 0
2, 29964, Note_on_c, 0, 61, 40
2, 29975, Note_on_c, 0, 48, 15
2, 29991, Note_on_c, 0, 61, 0
2, 29992, Note_on_c, 0, 48, 0
2, 30002, Control_c, 0, 64, 0
2, 30005, Note_on_c, 0, 64, 68
2, 30007, Note_on_c, 0, 50, 47
2, 30068, Note_on_c, 0, 64, 0
2, 30073, Control_c, 0, 64, 127
2, 30079, Note_on_c, 0, 62, 58
2, 30086, Note_on_c, 0, 45, 33
2, 30089, Note_on_c, 0, 50, 0
2, 30118, Control_c, 0, 64, 0
2, 30127, Note_on_c, 0, 62, 0
2, 30133, Note_on_c, 0, 57, 26
2, 30149, Note_on_c, 0, 45, 0
2, 30184, Control_c, 0, 64, 127
2, 30192, Note_on_c, 0, 57, 0
2, 30204, Note_on_c, 0, 42, 31
2, 30239, Control_c, 0, 64, 0
2, 30245, Note_on_c, 0, 42, 0
2, 30245, Note_on_c, 0, 58, 53
2, 30249, Note_on_c, 0, 43, 37
2, 30268, Control_c, 0, 64, 127
2, 30293, Note_on_c, 0, 58, 0
2, 30328, Note_on_c, 0, 31, 53
2, 30341, Note_on_c, 0, 31, 0
2, 30360, Note_on_c, 0, 43, 0
2, 30443, Note_on_c, 0, 62, 58
2, 30444, Note_on_c, 0, 58, 42
2, 30445, Note_on_c, 0, 55, 49
2, 30448, Note_on_c, 0, 50, 38
2, 30461, Control_c, 0, 64, 0
2, 30484, Control_c, 0, 64, 127
2, 30508, Note_on_c, 0, 50, 0
2, 30508, Note_on_c, 0, 62, 0
2, 30511, Note_on_c, 0, 55, 0
2, 30521, Note_on_c, 0, 64, 54
2, 30543, Note_on_c, 0, 58, 0
2, 30544, Note_on_c, 0, 64, 0
2, 30556, Note_on_c, 0, 65, 71
2, 30570, Note_on_c, 0, 65, 0
2, 30600, Note_on_c, 0, 67, 53
2, 30600, Note_on_c, 0, 58, 52
2, 30604, Note_on_c, 0, 55, 40
2, 30605, Note_on_c, 0, 62, 48
2, 30605, Control_c, 0, 64, 0
2, 30605, Note_on_c, 0, 64, 51
2, 30606, Note_on_c, 0, 48, 38
2, 30642, Control_c, 0, 64, 127
2, 30691, Note_on_c, 0, 62, 0
2, 30698, Note_on_c, 0, 58, 0
2, 30702, Note_on_c, 0, 67, 0
2, 30712, Note_on_c, 0, 64, 0
2, 30725, Note_on_c, 0, 57, 30
2, 30725, Note_on_c, 0, 65, 41
2, 30726, Note_on_c, 0, 62, 35
2, 30726, Note_on_c, 0, 58, 36
2, 30740, Note_on_c, 0, 55, 0
2, 30767, Note_on_c, 0, 57, 0
2, 30797, Note_on_c, 0, 58, 0
2, 30836, Note_on_c, 0, 48, 0
2, 30836, Note_on_c, 0, 57, 33
2, 30846, Note_on_c, 0, 57, 0
2, 30859, Note_on_c, 0, 62, 0
2, 30899, Note_on_c, 0, 65, 0
2, 30918, Note_on_c, 0, 64, 44
2, 30944, Note_on_c, 0, 64, 0
2, 30957, Control_c, 0, 64, 0
2, 30961, Note_on_c, 0, 69, 60
2, 30962, Note_on_c, 0, 63, 42
2, 30966, Note_on_c, 0, 58, 28
2, 30970, Note_on_c, 0, 53, 20
2, 30984, Control_c, 0, 64, 127
2, 31034, Note_on_c, 0, 69, 0
2, 31045, Note_on_c, 0, 65, 40
2, 31064, Note_on_c, 0, 65, 0
2, 31079, Control_c, 0, 64, 0
2, 31129, Note_on_c, 0, 67, 53
2, 31140, Note_on_c, 0, 67, 0
2, 31169, Note_on_c, 0, 70, 43
2, 31178, Note_on_c, 0, 70, 0
2, 31208, Note_on_c, 0, 74, 63
2, 31252, Control_c, 0, 64, 127
2, 31294, Note_on_c, 0, 74, 0
2, 31323, Note_on_c, 0, 53, 0
2, 31327, Note_on_c, 0, 72, 42
2, 31337, Note_on_c, 0, 58, 0
2, 31341, Note_on_c, 0, 72, 0
2, 31341, Note_on_c, 0, 63, 0
2, 31363, Note_on_c, 0, 79, 66
2, 31365, Control_c, 0, 64, 0
2, 31388, Note_on_c, 0, 79, 0
2, 31412, Control_c, 0, 64, 127
2, 31431, Control_c, 0, 64, 0
2, 31451, Note_on_c, 0, 63, 38
2, 31452, Note_on_c, 0, 77, 41
2, 31455, Note_on_c, 0, 53, 35
2, 31467, Control_c, 0, 64, 127
2, 31477, Note_on_c, 0, 53, 0
2, 31492, Note_on_c, 0, 63, 0
2, 31531, Note_on_c, 0, 57, 45
2, 31534, Note_on_c, 0, 67, 46
2, 31536, Note_on_c, 0, 63, 42
2, 31544, Control_c, 0, 64, 0
2, 31564, Control_c, 0, 64, 127
2, 31578, Note_on_c, 0, 67, 0
2, 31580, Note_on_c, 0, 57, 0
2, 31592, Note_on_c, 0, 63, 0
2, 31615, Control_c, 0, 64, 0
2, 31617, Note_on_c, 0, 57, 52
2, 31617, Note_on_c, 0, 66, 44
2, 31620, Note_on_c, 0, 63, 35
2, 31634, Control_c, 0, 64, 127
2, 31650, Note_on_c, 0, 57, 0
2, 31653, Note_on_c, 0, 66, 0
2, 31663, Note_on_c, 0, 63, 0
2, 31690, Note_on_c, 0, 77, 0
2, 31695, Note_on_c, 0, 65, 38
2, 31696, Control_c, 0, 64, 0
2, 31700, Note_on_c, 0, 74, 34
2, 31701, Note_on_c, 0, 62, 32
2, 31703, Note_on_c, 0, 60, 38
2, 31731, Control_c, 0, 64, 127
2, 31737, Note_on_c, 0, 65, 0
2, 31774, Note_on_c, 0, 53, 35
2, 31783, Note_on_c, 0, 74, 0
2, 31823, Note_on_c, 0, 62, 0
2, 31830, Note_on_c, 0, 60, 0
2, 31878, Note_on_c, 0, 65, 45
2, 31878, Note_on_c, 0, 62, 42
2, 31880, Note_on_c, 0, 60, 37
2, 31881, Note_on_c, 0, 81, 74
2, 31897, Control_c, 0, 64, 0
2, 31916, Control_c, 0, 64, 127
2, 31929, Note_on_c, 0, 65, 0
2, 31947, Note_on_c, 0, 53, 0
2, 31954, Note_on_c, 0, 62, 0
2, 31955, Note_on_c, 0, 81, 0
2, 31963, Note_on_c, 0, 80, 48
2, 31970, Note_on_c, 0, 60, 0
2, 31984, Note_on_c, 0, 80, 0
2, 32002, Note_on_c, 0, 81, 77
2, 32019, Note_on_c, 0, 55, 54
2, 32027, Note_on_c, 0, 81, 0
2, 32028, Note_on_c, 0, 60, 44
2, 32035, Note_on_c, 0, 72, 75
2, 32041, Note_on_c, 0, 77, 60
2, 32042, Note_on_c, 0, 61, 61
2, 32042, Control_c, 0, 64, 0
2, 32044, Note_on_c, 0, 65, 71
2, 32049, Note_on_c, 0, 81, 65
2, 32053, Note_on_c, 0, 84, 79
2, 32074, Control_c, 0, 64, 127
2, 32115, Note_on_c, 0, 65, 0
2, 32115, Note_on_c, 0, 61, 0
2, 32117, Note_on_c, 0, 84, 0
2, 32117, Note_on_c, 0, 60, 0
2, 32119, Note_on_c, 0, 81, 0
2, 32120, Note_on_c, 0, 77, 0
2, 32121, Note_on_c, 0, 72, 0
2, 32153, Note_on_c, 0, 60, 25
2, 32154, Note_on_c, 0, 78, 38
2, 32157, Note_on_c, 0, 70, 55
2, 32159, Note_on_c, 0, 61, 48
2, 32163, Note_on_c, 0, 65, 53
2, 32168, Note_on_c, 0, 82, 69
2, 32197, Note_on_c, 0, 78, 0
2, 32209, Note_on_c, 0, 65, 0
2, 32213, Note_on_c, 0, 70, 0
2, 32213, Note_on_c, 0, 82, 0
2, 32216, Note_on_c, 0, 60, 0
2, 32219, Note_on_c, 0, 61, 0
2, 32242, Note_on_c, 0, 69, 49
2, 32243, Note_on_c, 0, 76, 35
2, 32244, Note_on_c, 0, 60, 11
2, 32247, Note_on_c, 0, 81, 69
2, 32249, Note_on_c, 0, 65, 51
2, 32252, Note_on_c, 0, 61, 14
2, 32260, Control_c, 0, 64, 0
2, 32268, Control_c, 0, 64, 127
2, 32278, Note_on_c, 0, 81, 0
2, 32280, Note_on_c, 0, 76, 0
2, 32283, Note_on_c, 0, 69, 0
2, 32290, Note_on_c, 0, 65, 0
2, 32292, Note_on_c, 0, 55, 0
2, 32305, Note_on_c, 0, 60, 0
2, 32317, Note_on_c, 0, 67, 45
2, 32323, Note_on_c, 0, 79, 39
2, 32325, Note_on_c, 0, 55, 41
2, 32335, Note_on_c, 0, 67, 0
2, 32342, Note_on_c, 0, 79, 0
2, 32344, Note_on_c, 0, 55, 0
2, 32363, Note_on_c, 0, 61, 0
2, 32388, Note_on_c, 0, 70, 50
2, 32394, Note_on_c, 0, 53, 24
2, 32394, Control_c, 0, 64, 0
2, 32396, Note_on_c, 0, 60, 37
2, 32397, Note_on_c, 0, 64, 50
2, 32399, Note_on_c, 0, 57, 30
2, 32401, Note_on_c, 0, 82, 65
2, 32403, Note_on_c, 0, 79, 47
2, 32403, Note_on_c, 0, 76, 30
2, 32426, Control_c, 0, 64, 127
2, 32429, Note_on_c, 0, 79, 0
2, 32449, Note_on_c, 0, 76, 0
2, 32451, Note_on_c, 0, 82, 0
2, 32452, Note_on_c, 0, 64, 0
2, 32456, Note_on_c, 0, 60, 0
2, 32456, Note_on_c, 0, 70, 0
2, 32480, Note_on_c, 0, 69, 61
2, 32482, Note_on_c, 0, 76, 49
2, 32486, Note_on_c, 0, 81, 62
2, 32488, Note_on_c, 0, 64, 39
2, 32491, Note_on_c, 0, 60, 28
2, 32508, Note_on_c, 0, 60, 0
2, 32508, Note_on_c, 0, 64, 0
2, 32510, Note_on_c, 0, 76, 0
2, 32517, Note_on_c, 0, 81, 0
2, 32525, Note_on_c, 0, 57, 0
2, 32529, Note_on_c, 0, 69, 0
2, 32562, Note_on_c, 0, 67, 43
2, 32566, Note_on_c, 0, 74, 40
2, 32571, Note_on_c, 0, 79, 57
2, 32574, Note_on_c, 0, 64, 39
2, 32578, Note_on_c, 0, 57, 31
2, 32595, Note_on_c, 0, 64, 0
2, 32598, Note_on_c, 0, 74, 0
2, 32606, Note_on_c, 0, 79, 0
2, 32608, Note_on_c, 0, 67, 0
2, 32640, Note_on_c, 0, 65, 46
2, 32643, Note_on_c, 0, 72, 39
2, 32646, Note_on_c, 0, 77, 63
2, 32648, Note_on_c, 0, 64, 35
2, 32650, Note_on_c, 0, 60, 26
2, 32656, Note_on_c, 0, 53, 0
2, 32676, Note_on_c, 0, 72, 0
2, 32676, Note_on_c, 0, 65, 0
2, 32679, Note_on_c, 0, 77, 0
2, 32709, Note_on_c, 0, 64, 0
2, 32712, Note_on_c, 0, 57, 0
2, 32716, Note_on_c, 0, 60, 0
2, 32731, Note_on_c, 0, 53, 22
2, 32770, Note_on_c, 0, 64, 37
2, 32770, Note_on_c, 0, 76, 46
2, 32772, Note_on_c, 0, 56, 23
2, 32773, Note_on_c, 0, 68, 33
2, 32773, Note_on_c, 0, 62, 39
2, 32775, Note_on_c, 0, 71, 38
2, 32776, Note_on_c, 0, 59, 37
2, 32776, Control_c, 0, 64, 0
2, 32811, Control_c, 0, 64, 127
2, 32836, Note_on_c, 0, 59, 0
2, 32847, Note_on_c, 0, 62, 0
2, 32887, Note_on_c, 0, 62, 33
2, 32896, Note_on_c, 0, 59, 24
2, 32902, Note_on_c, 0, 76, 0
2, 32907, Note_on_c, 0, 64, 0
2, 32912, Note_on_c, 0, 59, 0
2, 32915, Note_on_c, 0, 62, 0
2, 32938, Note_on_c, 0, 71, 0
2, 32943, Note_on_c, 0, 68, 0
2, 32955, Note_on_c, 0, 56, 0
2, 33002, Control_c, 0, 64, 0
2, 33004, Note_on_c, 0, 68, 47
2, 33005, Note_on_c, 0, 56, 18
2, 33006, Note_on_c, 0, 75, 47
2, 33007, Note_on_c, 0, 63, 42
2, 33009, Note_on_c, 0, 71, 32
2, 33019, Note_on_c, 0, 56, 0
2, 33023, Note_on_c, 0, 53, 0
2, 33029, Control_c, 0, 64, 127
2, 33035, Note_on_c, 0, 75, 0
2, 33035, Note_on_c, 0, 71, 0
2, 33043, Note_on_c, 0, 68, 0
2, 33044, Note_on_c, 0, 63, 0
2, 33083, Note_on_c, 0, 44, 36
2, 33110, Note_on_c, 0, 44, 0
2, 33125, Note_on_c, 0, 62, 49
2, 33126, Note_on_c, 0, 43, 36
2, 33127, Note_on_c, 0, 58, 34
2, 33129, Note_on_c, 0, 50, 33
2, 33134, Control_c, 0, 64, 0
2, 33151, Note_on_c, 0, 53, 2
2, 33185, Control_c, 0, 64, 127
2, 33199, Note_on_c, 0, 50, 0
2, 33212, Note_on_c, 0, 53, 0
2, 33220, Note_on_c, 0, 58, 0
2, 33239, Note_on_c, 0, 62, 0
2, 33251, Control_c, 0, 64, 0
2, 33252, Note_on_c, 0, 61, 36
2, 33253, Note_on_c, 0, 58, 21
2, 33254, Note_on_c, 0, 50, 28
2, 33255, Note_on_c, 0, 53, 14
2, 33265, Control_c, 0, 64, 127
2, 33269, Note_on_c, 0, 50, 0
2, 33288, Note_on_c, 0, 43, 0
2, 33303, Note_on_c, 0, 53, 0
2, 33305, Note_on_c, 0, 58, 0
2, 33314, Note_on_c, 0, 61, 0
2, 33369, Note_on_c, 0, 62, 30
2, 33370, Note_on_c, 0, 58, 29
2, 33395, Note_on_c, 0, 62, 0
2, 33399, Note_on_c, 0, 58, 0
2, 33447, Note_on_c, 0, 31, 27
2, 33484, Note_on_c, 0, 31, 0
2, 33491, Note_on_c, 0, 70, 36
2, 33492, Note_on_c, 0, 24, 32
2, 33492, Note_on_c, 0, 36, 35
2, 33496, Note_on_c, 0, 58, 21
2, 33498, Control_c, 0, 64, 0
2, 33498, Note_on_c, 0, 67, 27
2, 33511, Note_on_c, 0, 67, 0
2, 33514, Note_on_c, 0, 58, 0
2, 33515, Note_on_c, 0, 36, 0
2, 33517, Note_on_c, 0, 24, 0
2, 33518, Note_on_c, 0, 70, 0
2, 33739, Control_c, 0, 64, 127
2, 33798, Note_on_c, 0, 42, 74
2, 33798, Note_on_c, 0, 58, 74
2, 33799, Note_on_c, 0, 53, 75
2, 33800, Note_on_c, 0, 61, 57
2, 33828, Note_on_c, 0, 53, 0
2, 33834, Note_on_c, 0, 61, 0
2, 33845, Control_c, 0, 64, 0
2, 33847, Note_on_c, 0, 62, 64
2, 33849, Note_on_c, 0, 53, 61
2, 33850, Note_on_c, 0, 42, 0
2, 33851, Note_on_c, 0, 43, 53
2, 33851, Note_on_c, 0, 55, 71
2, 33865, Control_c, 0, 64, 127
2, 33874, Note_on_c, 0, 43, 0
2, 33891, Note_on_c, 0, 55, 0
2, 33893, Note_on_c, 0, 53, 0
2, 33896, Note_on_c, 0, 62, 0
2, 33899, Note_on_c, 0, 58, 0
2, 34030, Note_on_c, 0, 61, 57
2, 34034, Note_on_c, 0, 49, 37
2, 34037, Note_on_c, 0, 53, 37
2, 34038, Note_on_c, 0, 58, 34
2, 34053, Control_c, 0, 64, 0
2, 34061, Note_on_c, 0, 53, 0
2, 34061, Note_on_c, 0, 49, 0
2, 34063, Note_on_c, 0, 61, 0
2, 34078, Note_on_c, 0, 50, 54
2, 34079, Control_c, 0, 64, 127
2, 34080, Note_on_c, 0, 62, 48
2, 34085, Note_on_c, 0, 50, 0
2, 34089, Note_on_c, 0, 58, 0
2, 34095, Note_on_c, 0, 62, 0
2, 34157, Note_on_c, 0, 70, 46
2, 34158, Note_on_c, 0, 62, 42
2, 34158, Note_on_c, 0, 65, 50
2, 34159, Note_on_c, 0, 48, 38
2, 34161, Note_on_c, 0, 58, 39
2, 34162, Control_c, 0, 64, 0
2, 34167, Note_on_c, 0, 65, 0
2, 34168, Note_on_c, 0, 62, 0
2, 34181, Note_on_c, 0, 70, 0
2, 34217, Control_c, 0, 64, 127
2, 34240, Note_on_c, 0, 72, 47
2, 34250, Note_on_c, 0, 72, 0
2, 34264, Control_c, 0, 64, 0
2, 34275, Note_on_c, 0, 75, 50
2, 34294, Note_on_c, 0, 75, 0
2, 34312, Note_on_c, 0, 76, 40
2, 34331, Note_on_c, 0, 76, 0
2, 34351, Note_on_c, 0, 79, 48
2, 34357, Control_c, 0, 64, 127
2, 34364, Note_on_c, 0, 79, 0
2, 34391, Note_on_c, 0, 84, 89
2, 34410, Note_on_c, 0, 84, 0
2, 34421, Note_on_c, 0, 48, 0
2, 34421, Control_c, 0, 64, 0
2, 34424, Note_on_c, 0, 58, 0
2, 34483, Control_c, 0, 64, 127
2, 34501, Note_on_c, 0, 44, 36
2, 34527, Note_on_c, 0, 44, 0
2, 34540, Note_on_c, 0, 62, 51
2, 34542, Control_c, 0, 64, 0
2, 34544, Note_on_c, 0, 58, 44
2, 34545, Note_on_c, 0, 43, 43
2, 34545, Note_on_c, 0, 50, 37
2, 34547, Note_on_c, 0, 53, 40
2, 34581, Control_c, 0, 64, 127
2, 34637, Note_on_c, 0, 53, 0
2, 34644, Note_on_c, 0, 50, 0
2, 34653, Note_on_c, 0, 58, 0
2, 34662, Note_on_c, 0, 62, 0
2, 34672, Note_on_c, 0, 61, 39
2, 34673, Note_on_c, 0, 49, 37
2, 34674, Control_c, 0, 64, 0
2, 34674, Note_on_c, 0, 53, 24
2, 34677, Note_on_c, 0, 58, 20
2, 34717, Control_c, 0, 64, 127
2, 34733, Note_on_c, 0, 53, 0
2, 34739, Note_on_c, 0, 58, 0
2, 34747, Note_on_c, 0, 61, 0
2, 34755, Note_on_c, 0, 49, 0
2, 34797, Note_on_c, 0, 50, 31
2, 34798, Note_on_c, 0, 62, 42
2, 34798, Note_on_c, 0, 58, 46
2, 34804, Note_on_c, 0, 50, 0
2, 34811, Note_on_c, 0, 43, 0
2, 34818, Note_on_c, 0, 62, 0
2, 34819, Note_on_c, 0, 58, 0
2, 34822, Control_c, 0, 64, 0
2, 34841, Control_c, 0, 64, 127
2, 34895, Note_on_c, 0, 31, 37
2, 34905, Note_on_c, 0, 31, 0
2, 34923, Note_on_c, 0, 36, 92
2, 34923, Note_on_c, 0, 24, 88
2, 34923, Note_on_c, 0, 70, 76
2, 34925, Note_on_c, 0, 58, 81
2, 34926, Note_on_c, 0, 64, 79
2, 34926, Note_on_c, 0, 67, 67
2, 34933, Control_c, 0, 64, 0
2, 34970, Control_c, 0, 64, 127
2, 34993, Note_on_c, 0, 67, 0
2, 34997, Note_on_c, 0, 64, 0
2, 35013, Note_on_c, 0, 24, 0
2, 35022, Note_on_c, 0, 58, 0
2, 35025, Note_on_c, 0, 36, 0
2, 35031, Note_on_c, 0, 70, 0
2, 35050, Note_on_c, 0, 69, 74
2, 35051, Note_on_c, 0, 61, 49
2, 35051, Note_on_c, 0, 26, 40
2, 35052, Note_on_c, 0, 38, 57
2, 35053, Note_on_c, 0, 64, 68
2, 35054, Note_on_c, 0, 57, 36
2, 35056, Control_c, 0, 64, 0
2, 35091, Control_c, 0, 64, 127
2, 35106, Note_on_c, 0, 26, 0
2, 35108, Note_on_c, 0, 69, 0
2, 35117, Note_on_c, 0, 64, 0
2, 35122, Note_on_c, 0, 57, 0
2, 35129, Note_on_c, 0, 61, 0
2, 35139, Note_on_c, 0, 28, 33
2, 35150, Note_on_c, 0, 28, 0
2, 35150, Note_on_c, 0, 38, 0
2, 35171, Note_on_c, 0, 28, 37
2, 35172, Note_on_c, 0, 61, 55
2, 35173, Note_on_c, 0, 40, 49
2, 35174, Control_c, 0, 64, 0
2, 35175, Note_on_c, 0, 67, 31
2, 35177, Note_on_c, 0, 55, 39
2, 35209, Control_c, 0, 64, 127
2, 35226, Note_on_c, 0, 67, 0
2, 35226, Note_on_c, 0, 28, 0
2, 35227, Note_on_c, 0, 55, 0
2, 35253, Note_on_c, 0, 40, 0
2, 35254, Note_on_c, 0, 34, 27
2, 35255, Note_on_c, 0, 29, 39
2, 35256, Note_on_c, 0, 61, 0
2, 35271, Note_on_c, 0, 29, 0
2, 35280, Note_on_c, 0, 34, 0
2, 35290, Note_on_c, 0, 29, 30
2, 35292, Note_on_c, 0, 41, 50
2, 35294, Note_on_c, 0, 57, 36
2, 35295, Control_c, 0, 64, 0
2, 35295, Note_on_c, 0, 65, 35
2, 35297, Note_on_c, 0, 60, 39
2, 35306, Note_on_c, 0, 65, 0
2, 35308, Note_on_c, 0, 57, 0
2, 35308, Note_on_c, 0, 29, 0
2, 35310, Note_on_c, 0, 60, 0
2, 35315, Note_on_c, 0, 41, 0
2, 35631, Note_on_c, 0, 62, 22
2, 35634, Note_on_c, 0, 57, 32
2, 35640, Note_on_c, 0, 100, 47
2, 35641, Note_on_c, 0, 63, 28
2, 35665, Note_on_c, 0, 100, 0
2, 35665, Note_on_c, 0, 67, 5
2, 35670, Note_on_c, 0, 101, 43
2, 35750, Control_c, 0, 64, 127
2, 35773, Note_on_c, 0, 67, 0
2, 35780, Note_on_c, 0, 62, 0
2, 35781, Note_on_c, 0, 63, 0
2, 35789, Note_on_c, 0, 57, 0
2, 35877, Note_on_c, 0, 29, 36
2, 35925, Note_on_c, 0, 101, 0
2, 35931, Note_on_c, 0, 29, 0
2, 35931, End_track
0, 0, End_of_file
