0, 0, Header, 0, 1, 384
1, 0, Start_track
1, 0, Title_t, "untitled"
1, 0, System_exclusive, 5, 126, 127, 9, 1, 247
1, 0, Time_signature, 4, 2, 24, 8
1, 0, Key_signature, 0, "major"
1, 0, Tempo, 600000
1, 0, Tempo, 681818
1, 0, Sequencer_specific, 21, 67, 115, 10, 0, 5, 75, 79, 79, 79, 79, 79, 79, 79, 79, 79, 79, 79, 79, 79, 79, 79
1, 0, Sequencer_specific, 6, 67, 115, 10, 0, 4, 1
1, 0, Sequencer_specific, 9, 67, 123, 0, 88, 70, 48, 50, 0, 0
1, 384, Control_c, 0, 0, 0
1, 384, Control_c, 0, 32, 0
1, 384, Program_c, 0, 0
1, 385, Control_c, 0, 7, 107
1, 385, Control_c, 0, 10, 64
1, 385, Control_c, 0, 91, 20
1, 385, Control_c, 0, 93, 0
1, 2304, Control_c, 0, 11, 127
1, 2304, Control_c, 0, 94, 0
1, 2304, Control_c, 0, 101, 0
1, 2305, Control_c, 0, 100, 1
1, 2306, Control_c, 0, 6, 64
1, 2307, Control_c, 0, 38, 0
1, 2308, Control_c, 0, 71, 43
1, 2308, Control_c, 0, 74, 46
1, 3072, Note_on_c, 0, 79, 99
1, 3088, Control_c, 0, 64, 127
1, 3092, Note_on_c, 0, 39, 45
1, 3128, Note_on_c, 0, 46, 20
1, 3216, Note_on_c, 0, 39, 0
1, 3576, Note_on_c, 0, 67, 35
1, 3596, Note_on_c, 0, 55, 26
1, 3756, Note_on_c, 0, 79, 0
1, 3796, Note_on_c, 0, 55, 0
1, 3796, Note_on_c, 0, 67, 0
1, 3892, Note_on_c, 0, 46, 0
1, 4440, Control_c, 0, 64, 0
1, 4476, Note_on_c, 0, 44, 48
1, 4484, Note_on_c, 0, 60, 56
1, 4484, Note_on_c, 0, 63, 49
1, 4492, Note_on_c, 0, 55, 31
1, 4496, Control_c, 0, 64, 127
1, 4544, Note_on_c, 0, 55, 0
1, 4580, Note_on_c, 0, 60, 0
1, 4672, Note_on_c, 0, 63, 0
1, 4672, Note_on_c, 0, 44, 0
1, 4756, Control_c, 0, 64, 0
1, 4760, Note_on_c, 0, 58, 45
1, 4772, Note_on_c, 0, 62, 52
1, 4780, Note_on_c, 0, 53, 31
1, 4784, Note_on_c, 0, 43, 33
1, 4868, Control_c, 0, 64, 127
1, 4928, Note_on_c, 0, 62, 0
1, 4956, Note_on_c, 0, 58, 0
1, 4976, Note_on_c, 0, 53, 0
1, 5200, Note_on_c, 0, 43, 0
1, 5204, Note_on_c, 0, 58, 74
1, 5208, Note_on_c, 0, 53, 60
1, 5212, Note_on_c, 0, 46, 61
1, 5216, Note_on_c, 0, 55, 68
1, 5268, Note_on_c, 0, 55, 0
1, 5288, Note_on_c, 0, 53, 0
1, 5316, Note_on_c, 0, 58, 0
1, 5356, Control_c, 0, 64, 0
1, 5368, Note_on_c, 0, 46, 0
1, 5380, Note_on_c, 0, 55, 66
1, 5384, Note_on_c, 0, 63, 51
1, 5384, Note_on_c, 0, 58, 51
1, 5388, Note_on_c, 0, 51, 60
1, 5424, Note_on_c, 0, 55, 0
1, 5428, Note_on_c, 0, 58, 0
1, 5440, Control_c, 0, 64, 127
1, 5444, Note_on_c, 0, 63, 0
1, 5664, Note_on_c, 0, 51, 0
1, 5664, Note_on_c, 0, 67, 83
1, 5664, Control_c, 0, 64, 0
1, 5668, Note_on_c, 0, 58, 81
1, 5672, Note_on_c, 0, 63, 72
1, 5684, Note_on_c, 0, 55, 59
1, 5692, Note_on_c, 0, 58, 0
1, 5704, Note_on_c, 0, 55, 0
1, 5724, Note_on_c, 0, 67, 0
1, 5736, Control_c, 0, 64, 127
1, 5744, Note_on_c, 0, 63, 0
1, 5748, Control_c, 0, 64, 0
1, 5884, Control_c, 0, 64, 127
1, 6072, Note_on_c, 0, 70, 61
1, 6080, Note_on_c, 0, 58, 46
1, 6080, Note_on_c, 0, 60, 49
1, 6084, Note_on_c, 0, 67, 52
1, 6084, Note_on_c, 0, 48, 43
1, 6084, Note_on_c, 0, 63, 46
1, 6088, Control_c, 0, 64, 0
1, 6156, Note_on_c, 0, 58, 0
1, 6168, Control_c, 0, 64, 127
1, 6172, Note_on_c, 0, 48, 0
1, 6260, Note_on_c, 0, 67, 0
1, 6288, Note_on_c, 0, 60, 0
1, 6300, Note_on_c, 0, 70, 0
1, 6348, Note_on_c, 0, 63, 0
1, 6524, Note_on_c, 0, 66, 48
1, 6524, Note_on_c, 0, 69, 48
1, 6524, Note_on_c, 0, 62, 38
1, 6544, Note_on_c, 0, 66, 0
1, 6552, Note_on_c, 0, 62, 0
1, 6564, Note_on_c, 0, 69, 0
1, 6632, Control_c, 0, 64, 0
1, 6676, Note_on_c, 0, 74, 75
1, 6676, Note_on_c, 0, 81, 83
1, 6680, Note_on_c, 0, 41, 42
1, 6684, Note_on_c, 0, 57, 24
1, 6720, Control_c, 0, 64, 127
1, 6740, Note_on_c, 0, 41, 0
1, 6788, Note_on_c, 0, 57, 0
1, 6892, Note_on_c, 0, 74, 0
1, 6896, Note_on_c, 0, 81, 0
1, 6940, Note_on_c, 0, 78, 54
1, 6960, Note_on_c, 0, 69, 29
1, 6988, Note_on_c, 0, 69, 0
1, 7028, Note_on_c, 0, 78, 0
1, 7088, Note_on_c, 0, 67, 36
1, 7100, Note_on_c, 0, 74, 55
1, 7100, Control_c, 0, 64, 0
1, 7104, Note_on_c, 0, 81, 51
1, 7108, Note_on_c, 0, 57, 35
1, 7112, Note_on_c, 0, 63, 41
1, 7188, Control_c, 0, 64, 127
1, 7288, Note_on_c, 0, 57, 0
1, 7288, Note_on_c, 0, 81, 0
1, 7292, Note_on_c, 0, 74, 0
1, 7320, Note_on_c, 0, 67, 0
1, 7340, Note_on_c, 0, 63, 0
1, 7368, Note_on_c, 0, 78, 52
1, 7372, Note_on_c, 0, 69, 48
1, 7420, Note_on_c, 0, 69, 0
1, 7448, Note_on_c, 0, 78, 0
1, 7500, Control_c, 0, 64, 0
1, 7516, Note_on_c, 0, 68, 47
1, 7524, Note_on_c, 0, 64, 33
1, 7528, Note_on_c, 0, 58, 42
1, 7528, Note_on_c, 0, 74, 56
1, 7540, Note_on_c, 0, 81, 46
1, 7592, Control_c, 0, 64, 127
1, 7644, Note_on_c, 0, 64, 0
1, 7708, Note_on_c, 0, 68, 0
1, 7736, Note_on_c, 0, 74, 0
1, 7736, Note_on_c, 0, 81, 0
1, 7780, Note_on_c, 0, 58, 0
1, 7808, Note_on_c, 0, 79, 61
1, 7944, Note_on_c, 0, 67, 28
1, 7964, Note_on_c, 0, 63, 36
1, 7964, Note_on_c, 0, 57, 33
1, 8068, Note_on_c, 0, 57, 0
1, 8092, Note_on_c, 0, 79, 0
1, 8092, Note_on_c, 0, 80, 60
1, 8136, Note_on_c, 0, 67, 0
1, 8168, Note_on_c, 0, 80, 0
1, 8212, Note_on_c, 0, 63, 0
1, 8232, Note_on_c, 0, 81, 80
1, 8336, Note_on_c, 0, 81, 0
1, 8348, Control_c, 0, 64, 0
1, 8368, Note_on_c, 0, 68, 57
1, 8376, Note_on_c, 0, 58, 45
1, 8376, Note_on_c, 0, 82, 83
1, 8388, Note_on_c, 0, 63, 44
1, 8404, Control_c, 0, 64, 88
1, 8408, Control_c, 0, 64, 127
1, 8424, Note_on_c, 0, 68, 0
1, 8432, Note_on_c, 0, 63, 0
1, 8452, Note_on_c, 0, 58, 0
1, 8496, Note_on_c, 0, 82, 0
1, 8652, Note_on_c, 0, 46, 56
1, 8812, Note_on_c, 0, 55, 63
1, 8884, Note_on_c, 0, 55, 0
1, 8908, Note_on_c, 0, 56, 57
1, 8912, Control_c, 0, 64, 0
1, 8936, Control_c, 0, 64, 127
1, 8956, Control_c, 0, 64, 0
1, 8976, Note_on_c, 0, 56, 0
1, 9012, Note_on_c, 0, 58, 61
1, 9020, Note_on_c, 0, 46, 0
1, 9068, Note_on_c, 0, 58, 0
1, 9108, Note_on_c, 0, 60, 63
1, 9144, Control_c, 0, 64, 127
1, 9168, Note_on_c, 0, 60, 0
1, 9192, Control_c, 0, 64, 0
1, 9228, Note_on_c, 0, 46, 43
1, 9232, Note_on_c, 0, 62, 52
1, 9244, Note_on_c, 0, 56, 37
1, 9260, Note_on_c, 0, 59, 37
1, 9288, Control_c, 0, 64, 127
1, 9380, Note_on_c, 0, 59, 0
1, 9424, Note_on_c, 0, 56, 0
1, 9460, Note_on_c, 0, 62, 0
1, 9496, Note_on_c, 0, 63, 63
1, 9496, Note_on_c, 0, 59, 58
1, 9508, Note_on_c, 0, 56, 40
1, 9572, Note_on_c, 0, 56, 0
1, 9584, Note_on_c, 0, 59, 0
1, 9612, Note_on_c, 0, 63, 0
1, 9660, Note_on_c, 0, 64, 53
1, 9664, Note_on_c, 0, 56, 32
1, 9668, Note_on_c, 0, 59, 47
1, 9712, Note_on_c, 0, 56, 0
1, 9720, Note_on_c, 0, 59, 0
1, 9800, Note_on_c, 0, 46, 0
1, 9856, Note_on_c, 0, 64, 0
1, 9924, Note_on_c, 0, 66, 43
1, 9928, Note_on_c, 0, 61, 48
1, 9932, Note_on_c, 0, 54, 38
1, 9984, Note_on_c, 0, 54, 0
1, 10000, Note_on_c, 0, 61, 0
1, 10004, Note_on_c, 0, 66, 0
1, 10068, Control_c, 0, 64, 0
1, 10088, Note_on_c, 0, 55, 52
1, 10092, Note_on_c, 0, 67, 54
1, 10100, Note_on_c, 0, 39, 41
1, 10100, Note_on_c, 0, 62, 53
1, 10104, Note_on_c, 0, 46, 36
1, 10144, Control_c, 0, 64, 127
1, 10264, Note_on_c, 0, 62, 0
1, 10276, Note_on_c, 0, 55, 0
1, 10516, Note_on_c, 0, 62, 51
1, 10516, Note_on_c, 0, 55, 45
1, 10544, Note_on_c, 0, 46, 0
1, 10584, Note_on_c, 0, 62, 0
1, 10600, Note_on_c, 0, 39, 0
1, 10652, Note_on_c, 0, 55, 0
1, 10760, Control_c, 0, 64, 0
1, 10780, Note_on_c, 0, 44, 36
1, 10784, Note_on_c, 0, 55, 67
1, 10784, Note_on_c, 0, 63, 59
1, 10784, Note_on_c, 0, 45, 58
1, 10788, Note_on_c, 0, 60, 66
1, 10812, Note_on_c, 0, 44, 0
1, 10852, Control_c, 0, 64, 127
1, 10948, Note_on_c, 0, 55, 0
1, 10960, Note_on_c, 0, 60, 0
1, 10964, Note_on_c, 0, 45, 0
1, 10972, Note_on_c, 0, 67, 0
1, 10976, Note_on_c, 0, 63, 0
1, 11112, Note_on_c, 0, 63, 68
1, 11116, Note_on_c, 0, 60, 70
1, 11116, Note_on_c, 0, 55, 68
1, 11116, Note_on_c, 0, 44, 67
1, 11124, Control_c, 0, 64, 0
1, 11128, Note_on_c, 0, 32, 56
1, 11284, Note_on_c, 0, 55, 0
1, 11308, Note_on_c, 0, 32, 0
1, 11308, Note_on_c, 0, 60, 0
1, 11316, Note_on_c, 0, 63, 0
1, 11324, Note_on_c, 0, 44, 0
1, 11368, Control_c, 0, 64, 127
1, 11384, Note_on_c, 0, 63, 57
1, 11388, Note_on_c, 0, 60, 63
1, 11388, Note_on_c, 0, 44, 56
1, 11388, Note_on_c, 0, 32, 68
1, 11392, Note_on_c, 0, 55, 63
1, 11532, Note_on_c, 0, 60, 0
1, 11536, Note_on_c, 0, 55, 0
1, 11556, Note_on_c, 0, 63, 0
1, 11576, Note_on_c, 0, 44, 0
1, 11580, Note_on_c, 0, 32, 0
1, 11656, Note_on_c, 0, 62, 75
1, 11656, Note_on_c, 0, 58, 81
1, 11660, Control_c, 0, 64, 0
1, 11664, Note_on_c, 0, 31, 69
1, 11664, Note_on_c, 0, 53, 68
1, 11668, Note_on_c, 0, 43, 66
1, 11784, Control_c, 0, 64, 127
1, 11808, Note_on_c, 0, 31, 0
1, 11812, Note_on_c, 0, 62, 0
1, 11832, Note_on_c, 0, 58, 0
1, 11844, Note_on_c, 0, 53, 0
1, 11860, Note_on_c, 0, 43, 0
1, 12020, Control_c, 0, 64, 0
1, 12052, Note_on_c, 0, 58, 68
1, 12056, Note_on_c, 0, 50, 73
1, 12060, Note_on_c, 0, 53, 57
1, 12060, Note_on_c, 0, 43, 66
1, 12076, Control_c, 0, 64, 127
1, 12100, Note_on_c, 0, 53, 0
1, 12100, Note_on_c, 0, 50, 0
1, 12124, Note_on_c, 0, 58, 0
1, 12184, Note_on_c, 0, 43, 0
1, 12296, Control_c, 0, 64, 0
1, 12308, Note_on_c, 0, 63, 72
1, 12312, Note_on_c, 0, 46, 66
1, 12312, Note_on_c, 0, 58, 74
1, 12316, Note_on_c, 0, 55, 70
1, 12368, Control_c, 0, 64, 127
1, 12380, Note_on_c, 0, 55, 0
1, 12400, Note_on_c, 0, 46, 0
1, 12404, Note_on_c, 0, 63, 0
1, 12412, Note_on_c, 0, 58, 0
1, 12536, Control_c, 0, 64, 0
1, 12564, Note_on_c, 0, 67, 68
1, 12568, Note_on_c, 0, 58, 64
1, 12572, Note_on_c, 0, 51, 56
1, 12576, Note_on_c, 0, 63, 54
1, 12600, Note_on_c, 0, 51, 0
1, 12604, Control_c, 0, 64, 127
1, 12616, Note_on_c, 0, 58, 0
1, 12628, Note_on_c, 0, 67, 0
1, 12648, Note_on_c, 0, 63, 0
1, 12840, Control_c, 0, 64, 0
1, 12848, Note_on_c, 0, 70, 57
1, 12856, Note_on_c, 0, 55, 54
1, 12860, Note_on_c, 0, 63, 43
1, 12860, Note_on_c, 0, 60, 36
1, 12868, Note_on_c, 0, 67, 44
1, 12920, Control_c, 0, 64, 127
1, 12972, Note_on_c, 0, 55, 0
1, 12980, Note_on_c, 0, 60, 0
1, 13004, Note_on_c, 0, 67, 0
1, 13012, Note_on_c, 0, 63, 0
1, 13036, Note_on_c, 0, 70, 0
1, 13204, Control_c, 0, 64, 0
1, 13220, Note_on_c, 0, 72, 54
1, 13220, Note_on_c, 0, 66, 48
1, 13220, Note_on_c, 0, 62, 46
1, 13232, Note_on_c, 0, 69, 48
1, 13236, Note_on_c, 0, 57, 36
1, 13244, Note_on_c, 0, 51, 36
1, 13324, Control_c, 0, 64, 127
1, 13396, Note_on_c, 0, 51, 0
1, 13396, Note_on_c, 0, 57, 0
1, 13704, Note_on_c, 0, 41, 65
1, 13748, Control_c, 0, 64, 0
1, 13840, Note_on_c, 0, 41, 0
1, 14124, Note_on_c, 0, 42, 56
1, 14240, Note_on_c, 0, 42, 0
1, 14276, Control_c, 0, 64, 127
1, 14292, Note_on_c, 0, 62, 0
1, 14308, Note_on_c, 0, 41, 34
1, 14352, Note_on_c, 0, 69, 0
1, 14360, Note_on_c, 0, 66, 0
1, 14572, Note_on_c, 0, 72, 0
1, 14572, Note_on_c, 0, 62, 45
1, 14660, Note_on_c, 0, 62, 0
1, 14704, Note_on_c, 0, 51, 49
1, 14728, Note_on_c, 0, 70, 52
1, 14728, Note_on_c, 0, 62, 22
1, 14732, Note_on_c, 0, 41, 0
1, 14736, Note_on_c, 0, 66, 34
1, 14804, Note_on_c, 0, 51, 0
1, 14892, Note_on_c, 0, 62, 0
1, 14904, Note_on_c, 0, 70, 0
1, 14916, Note_on_c, 0, 66, 0
1, 14972, Note_on_c, 0, 72, 65
1, 14992, Note_on_c, 0, 70, 43
1, 15020, Note_on_c, 0, 70, 0
1, 15032, Note_on_c, 0, 72, 0
1, 15100, Control_c, 0, 64, 0
1, 15124, Note_on_c, 0, 57, 51
1, 15128, Note_on_c, 0, 62, 50
1, 15132, Note_on_c, 0, 74, 57
1, 15132, Note_on_c, 0, 69, 58
1, 15132, Note_on_c, 0, 47, 43
1, 15192, Control_c, 0, 64, 40
1, 15192, Control_c, 0, 64, 127
1, 15352, Note_on_c, 0, 57, 0
1, 15368, Note_on_c, 0, 69, 0
1, 15412, Note_on_c, 0, 62, 0
1, 15552, Note_on_c, 0, 62, 42
1, 15556, Note_on_c, 0, 68, 54
1, 15572, Note_on_c, 0, 56, 33
1, 15792, Note_on_c, 0, 56, 0
1, 15800, Note_on_c, 0, 68, 0
1, 15860, Note_on_c, 0, 62, 0
1, 15968, Control_c, 0, 64, 0
1, 15980, Note_on_c, 0, 62, 41
1, 15988, Note_on_c, 0, 68, 51
1, 15988, Note_on_c, 0, 56, 40
1, 16048, Control_c, 0, 64, 127
1, 16212, Note_on_c, 0, 47, 0
1, 16288, Note_on_c, 0, 62, 0
1, 16308, Note_on_c, 0, 56, 0
1, 16372, Control_c, 0, 64, 0
1, 16396, Note_on_c, 0, 62, 42
1, 16412, Control_c, 0, 64, 127
1, 16564, Note_on_c, 0, 74, 0
1, 16576, Note_on_c, 0, 62, 0
1, 16620, Note_on_c, 0, 68, 0
1, 16632, Note_on_c, 0, 47, 63
1, 16688, Note_on_c, 0, 47, 0
1, 16816, Control_c, 0, 64, 72
1, 16820, Control_c, 0, 64, 0
1, 16844, Note_on_c, 0, 75, 55
1, 16844, Note_on_c, 0, 46, 55
1, 16848, Note_on_c, 0, 61, 47
1, 16848, Note_on_c, 0, 56, 49
1, 16856, Note_on_c, 0, 68, 46
1, 16896, Control_c, 0, 64, 127
1, 16916, Note_on_c, 0, 46, 0
1, 16936, Note_on_c, 0, 56, 0
1, 16964, Note_on_c, 0, 61, 0
1, 16996, Note_on_c, 0, 68, 0
1, 17044, Note_on_c, 0, 75, 0
1, 17236, Note_on_c, 0, 65, 52
1, 17244, Note_on_c, 0, 61, 49
1, 17244, Note_on_c, 0, 87, 85
1, 17252, Note_on_c, 0, 75, 76
1, 17264, Note_on_c, 0, 60, 39
1, 17336, Note_on_c, 0, 75, 0
1, 17344, Note_on_c, 0, 87, 0
1, 17352, Note_on_c, 0, 60, 0
1, 17392, Note_on_c, 0, 87, 57
1, 17400, Note_on_c, 0, 65, 0
1, 17404, Note_on_c, 0, 75, 30
1, 17444, Note_on_c, 0, 75, 0
1, 17456, Note_on_c, 0, 87, 0
1, 17488, Note_on_c, 0, 61, 0
1, 17536, Note_on_c, 0, 87, 87
1, 17540, Note_on_c, 0, 75, 82
1, 17628, Control_c, 0, 64, 0
1, 17644, Note_on_c, 0, 65, 40
1, 17648, Note_on_c, 0, 61, 36
1, 17660, Note_on_c, 0, 57, 41
1, 17664, Note_on_c, 0, 87, 0
1, 17672, Note_on_c, 0, 75, 0
1, 17700, Control_c, 0, 64, 127
1, 17712, Note_on_c, 0, 87, 57
1, 17728, Note_on_c, 0, 75, 42
1, 17780, Note_on_c, 0, 75, 0
1, 17792, Note_on_c, 0, 87, 0
1, 17840, Note_on_c, 0, 87, 67
1, 17852, Note_on_c, 0, 75, 68
1, 17872, Note_on_c, 0, 65, 0
1, 17968, Note_on_c, 0, 57, 0
1, 17968, Note_on_c, 0, 75, 0
1, 17980, Note_on_c, 0, 87, 0
1, 18044, Note_on_c, 0, 87, 73
1, 18048, Note_on_c, 0, 65, 60
1, 18052, Note_on_c, 0, 75, 72
1, 18052, Control_c, 0, 64, 0
1, 18060, Note_on_c, 0, 56, 43
1, 18124, Control_c, 0, 64, 127
1, 18140, Note_on_c, 0, 75, 0
1, 18152, Note_on_c, 0, 87, 0
1, 18200, Note_on_c, 0, 87, 26
1, 18232, Note_on_c, 0, 75, 25
1, 18256, Note_on_c, 0, 75, 0
1, 18276, Note_on_c, 0, 87, 0
1, 18280, Note_on_c, 0, 65, 0
1, 18316, Note_on_c, 0, 61, 0
1, 18336, Note_on_c, 0, 87, 82
1, 18340, Note_on_c, 0, 56, 0
1, 18344, Note_on_c, 0, 78, 86
1, 18348, Note_on_c, 0, 83, 80
1, 18376, Control_c, 0, 64, 0
1, 18412, Note_on_c, 0, 65, 46
1, 18424, Note_on_c, 0, 61, 49
1, 18432, Note_on_c, 0, 55, 43
1, 18444, Control_c, 0, 64, 127
1, 18468, Note_on_c, 0, 65, 0
1, 18484, Note_on_c, 0, 61, 0
1, 18504, Note_on_c, 0, 55, 0
1, 18528, Note_on_c, 0, 78, 0
1, 18548, Note_on_c, 0, 83, 0
1, 18584, Note_on_c, 0, 87, 0
1, 18700, Note_on_c, 0, 27, 66
1, 18728, Control_c, 0, 64, 0
1, 18768, Control_c, 0, 64, 127
1, 18840, Note_on_c, 0, 27, 0
1, 19284, Note_on_c, 0, 63, 51
1, 19308, Control_c, 0, 64, 0
1, 19312, Note_on_c, 0, 51, 43
1, 19352, Control_c, 0, 64, 104
1, 19356, Control_c, 0, 64, 127
1, 19504, Note_on_c, 0, 63, 0
1, 19508, Note_on_c, 0, 51, 0
1, 19532, Note_on_c, 0, 67, 66
1, 19540, Note_on_c, 0, 55, 50
1, 19648, Note_on_c, 0, 67, 0
1, 19652, Note_on_c, 0, 55, 0
1, 19660, Control_c, 0, 64, 0
1, 19684, Note_on_c, 0, 58, 41
1, 19684, Note_on_c, 0, 70, 57
1, 19708, Note_on_c, 0, 58, 0
1, 19712, Note_on_c, 0, 70, 0
1, 19736, Control_c, 0, 64, 127
1, 19920, Note_on_c, 0, 75, 61
1, 19980, Note_on_c, 0, 75, 0
1, 20072, Control_c, 0, 64, 0
1, 20076, Note_on_c, 0, 65, 52
1, 20080, Note_on_c, 0, 74, 54
1, 20096, Note_on_c, 0, 70, 41
1, 20100, Note_on_c, 0, 65, 0
1, 20120, Note_on_c, 0, 70, 0
1, 20124, Note_on_c, 0, 74, 0
1, 20204, Note_on_c, 0, 65, 38
1, 20208, Note_on_c, 0, 74, 33
1, 20216, Note_on_c, 0, 70, 37
1, 20244, Note_on_c, 0, 65, 0
1, 20248, Note_on_c, 0, 70, 0
1, 20256, Note_on_c, 0, 74, 0
1, 20328, Note_on_c, 0, 56, 42
1, 20360, Note_on_c, 0, 56, 0
1, 20460, Note_on_c, 0, 65, 39
1, 20460, Note_on_c, 0, 74, 45
1, 20464, Note_on_c, 0, 70, 46
1, 20492, Note_on_c, 0, 70, 0
1, 20492, Note_on_c, 0, 65, 0
1, 20500, Note_on_c, 0, 74, 0
1, 20592, Note_on_c, 0, 74, 37
1, 20596, Note_on_c, 0, 70, 39
1, 20628, Note_on_c, 0, 70, 0
1, 20632, Note_on_c, 0, 74, 0
1, 20704, Note_on_c, 0, 56, 41
1, 20776, Note_on_c, 0, 56, 0
1, 20836, Note_on_c, 0, 70, 39
1, 20840, Note_on_c, 0, 74, 37
1, 20868, Note_on_c, 0, 70, 0
1, 20872, Note_on_c, 0, 74, 0
1, 20956, Note_on_c, 0, 74, 38
1, 20964, Note_on_c, 0, 70, 39
1, 20996, Note_on_c, 0, 70, 0
1, 21000, Note_on_c, 0, 74, 0
1, 21076, Note_on_c, 0, 56, 48
1, 21156, Note_on_c, 0, 56, 0
1, 21212, Note_on_c, 0, 74, 53
1, 21212, Note_on_c, 0, 70, 52
1, 21216, Control_c, 0, 64, 127
1, 21216, Note_on_c, 0, 65, 44
1, 21388, Note_on_c, 0, 65, 0
1, 21396, Note_on_c, 0, 74, 0
1, 21404, Note_on_c, 0, 70, 0
1, 21576, Control_c, 0, 64, 0
1, 21604, Note_on_c, 0, 72, 55
1, 21608, Note_on_c, 0, 43, 50
1, 21620, Note_on_c, 0, 65, 38
1, 21636, Control_c, 0, 64, 127
1, 21672, Note_on_c, 0, 43, 0
1, 21716, Note_on_c, 0, 65, 0
1, 21736, Note_on_c, 0, 72, 0
1, 21864, Note_on_c, 0, 60, 60
1, 21900, Note_on_c, 0, 60, 0
1, 21992, Note_on_c, 0, 58, 57
1, 22004, Control_c, 0, 64, 0
1, 22016, Note_on_c, 0, 66, 64
1, 22052, Note_on_c, 0, 58, 0
1, 22068, Note_on_c, 0, 66, 0
1, 22084, Note_on_c, 0, 67, 56
1, 22124, Note_on_c, 0, 66, 44
1, 22144, Note_on_c, 0, 67, 0
1, 22188, Note_on_c, 0, 66, 0
1, 22188, Note_on_c, 0, 62, 53
1, 22216, Note_on_c, 0, 62, 0
1, 22244, Control_c, 0, 64, 127
1, 22252, Note_on_c, 0, 65, 66
1, 22312, Note_on_c, 0, 65, 0
1, 22316, Note_on_c, 0, 67, 57
1, 22348, Note_on_c, 0, 67, 0
1, 22356, Note_on_c, 0, 65, 37
1, 22392, Note_on_c, 0, 65, 0
1, 22408, Note_on_c, 0, 62, 38
1, 22412, Control_c, 0, 64, 0
1, 22432, Note_on_c, 0, 36, 50
1, 22436, Note_on_c, 0, 62, 0
1, 22448, Note_on_c, 0, 64, 71
1, 22468, Note_on_c, 0, 52, 32
1, 22508, Control_c, 0, 64, 127
1, 22516, Note_on_c, 0, 36, 0
1, 22588, Note_on_c, 0, 52, 0
1, 22832, Note_on_c, 0, 58, 53
1, 22832, Note_on_c, 0, 60, 48
1, 22864, Note_on_c, 0, 58, 0
1, 22940, Note_on_c, 0, 64, 0
1, 23032, Note_on_c, 0, 60, 0
1, 23236, Control_c, 0, 64, 0
1, 23244, Note_on_c, 0, 51, 36
1, 23256, Note_on_c, 0, 41, 41
1, 23312, Control_c, 0, 64, 127
1, 23380, Note_on_c, 0, 41, 0
1, 23432, Note_on_c, 0, 51, 0
1, 23660, Note_on_c, 0, 56, 52
1, 23680, Note_on_c, 0, 56, 0
1, 23680, Note_on_c, 0, 58, 60
1, 23680, Note_on_c, 0, 70, 64
1, 23684, Note_on_c, 0, 63, 63
1, 23684, Note_on_c, 0, 67, 57
1, 23688, Control_c, 0, 64, 0
1, 23688, Note_on_c, 0, 60, 66
1, 23716, Note_on_c, 0, 57, 25
1, 23740, Note_on_c, 0, 57, 0
1, 23796, Control_c, 0, 64, 127
1, 23924, Note_on_c, 0, 60, 0
1, 23952, Note_on_c, 0, 58, 0
1, 23956, Note_on_c, 0, 67, 0
1, 23956, Note_on_c, 0, 63, 0
1, 23976, Note_on_c, 0, 56, 37
1, 23984, Note_on_c, 0, 70, 0
1, 24020, Note_on_c, 0, 56, 0
1, 24068, Note_on_c, 0, 58, 62
1, 24072, Control_c, 0, 64, 0
1, 24072, Note_on_c, 0, 60, 57
1, 24076, Note_on_c, 0, 70, 54
1, 24076, Note_on_c, 0, 63, 48
1, 24088, Note_on_c, 0, 67, 48
1, 24176, Control_c, 0, 64, 127
1, 24232, Note_on_c, 0, 67, 0
1, 24248, Note_on_c, 0, 60, 0
1, 24268, Note_on_c, 0, 70, 0
1, 24284, Note_on_c, 0, 63, 0
1, 24296, Note_on_c, 0, 58, 0
1, 24324, Note_on_c, 0, 68, 46
1, 24328, Note_on_c, 0, 60, 37
1, 24336, Note_on_c, 0, 56, 38
1, 24360, Note_on_c, 0, 60, 0
1, 24400, Control_c, 0, 64, 0
1, 24404, Note_on_c, 0, 68, 0
1, 24436, Note_on_c, 0, 56, 0
1, 24456, Note_on_c, 0, 58, 52
1, 24460, Note_on_c, 0, 60, 51
1, 24464, Control_c, 0, 64, 127
1, 24464, Note_on_c, 0, 70, 47
1, 24472, Note_on_c, 0, 67, 39
1, 24472, Note_on_c, 0, 63, 43
1, 24536, Note_on_c, 0, 67, 0
1, 24536, Note_on_c, 0, 60, 0
1, 24564, Note_on_c, 0, 63, 0
1, 24576, Note_on_c, 0, 58, 0
1, 24636, Note_on_c, 0, 70, 0
1, 24848, Control_c, 0, 64, 0
1, 24860, Note_on_c, 0, 68, 49
1, 24868, Note_on_c, 0, 63, 41
1, 24872, Note_on_c, 0, 59, 39
1, 24872, Note_on_c, 0, 56, 41
1, 24880, Note_on_c, 0, 49, 34
1, 25036, Control_c, 0, 64, 127
1, 25256, Control_c, 0, 64, 0
1, 25264, Note_on_c, 0, 56, 0
1, 25268, Note_on_c, 0, 56, 52
1, 25348, Control_c, 0, 64, 127
1, 25484, Note_on_c, 0, 59, 0
1, 25652, Note_on_c, 0, 56, 0
1, 25652, Control_c, 0, 64, 0
1, 25664, Note_on_c, 0, 55, 52
1, 25728, Control_c, 0, 64, 127
1, 25900, Note_on_c, 0, 63, 0
1, 25956, Note_on_c, 0, 55, 0
1, 26068, Note_on_c, 0, 56, 36
1, 26068, Note_on_c, 0, 63, 42
1, 26080, Note_on_c, 0, 59, 33
1, 26096, Note_on_c, 0, 56, 0
1, 26116, Note_on_c, 0, 49, 0
1, 26124, Note_on_c, 0, 59, 0
1, 26124, Note_on_c, 0, 68, 0
1, 26200, Note_on_c, 0, 63, 0
1, 26360, Note_on_c, 0, 58, 48
1, 26364, Note_on_c, 0, 67, 47
1, 26364, Note_on_c, 0, 46, 37
1, 26368, Note_on_c, 0, 55, 40
1, 26372, Note_on_c, 0, 63, 45
1, 26380, Control_c, 0, 64, 0
1, 26472, Control_c, 0, 64, 56
1, 26476, Control_c, 0, 64, 127
1, 26620, Note_on_c, 0, 67, 0
1, 26636, Note_on_c, 0, 55, 0
1, 26664, Note_on_c, 0, 46, 0
1, 26672, Note_on_c, 0, 58, 0
1, 26700, Note_on_c, 0, 63, 0
1, 26768, Note_on_c, 0, 46, 41
1, 26772, Note_on_c, 0, 55, 41
1, 26772, Note_on_c, 0, 58, 48
1, 26780, Note_on_c, 0, 67, 54
1, 26784, Note_on_c, 0, 63, 39
1, 26860, Note_on_c, 0, 58, 0
1, 26868, Note_on_c, 0, 63, 0
1, 26872, Note_on_c, 0, 67, 0
1, 26880, Note_on_c, 0, 55, 0
1, 26892, Note_on_c, 0, 46, 0
1, 26952, Note_on_c, 0, 58, 57
1, 26956, Note_on_c, 0, 67, 57
1, 26956, Note_on_c, 0, 46, 43
1, 26964, Note_on_c, 0, 55, 42
1, 26968, Note_on_c, 0, 63, 54
1, 27036, Note_on_c, 0, 55, 0
1, 27048, Note_on_c, 0, 58, 0
1, 27052, Note_on_c, 0, 67, 0
1, 27052, Note_on_c, 0, 63, 0
1, 27072, Note_on_c, 0, 46, 0
1, 27188, Note_on_c, 0, 46, 52
1, 27192, Note_on_c, 0, 67, 68
1, 27204, Note_on_c, 0, 63, 61
1, 27204, Note_on_c, 0, 55, 54
1, 27204, Note_on_c, 0, 58, 66
1, 27248, Note_on_c, 0, 67, 0
1, 27300, Note_on_c, 0, 58, 0
1, 27328, Note_on_c, 0, 55, 0
1, 27336, Control_c, 0, 64, 56
1, 27336, Control_c, 0, 64, 0
1, 27340, Note_on_c, 0, 63, 0
1, 27360, Note_on_c, 0, 46, 0
1, 27376, Note_on_c, 0, 68, 71
1, 27380, Note_on_c, 0, 59, 74
1, 27384, Note_on_c, 0, 64, 66
1, 27384, Note_on_c, 0, 49, 56
1, 27404, Note_on_c, 0, 66, 36
1, 27412, Control_c, 0, 64, 72
1, 27412, Control_c, 0, 64, 127
1, 27500, Note_on_c, 0, 49, 0
1, 27512, Note_on_c, 0, 59, 0
1, 27528, Note_on_c, 0, 64, 0
1, 27544, Note_on_c, 0, 66, 0
1, 27556, Note_on_c, 0, 68, 0
1, 27760, Control_c, 0, 64, 0
1, 27776, Note_on_c, 0, 58, 58
1, 27776, Note_on_c, 0, 70, 72
1, 27784, Note_on_c, 0, 64, 76
1, 27788, Note_on_c, 0, 48, 49
1, 27824, Control_c, 0, 64, 127
1, 27836, Note_on_c, 0, 58, 0
1, 27852, Note_on_c, 0, 48, 0
1, 27948, Note_on_c, 0, 64, 0
1, 27972, Note_on_c, 0, 70, 0
1, 28180, Control_c, 0, 64, 56
1, 28180, Note_on_c, 0, 71, 72
1, 28180, Control_c, 0, 64, 0
1, 28184, Note_on_c, 0, 63, 66
1, 28184, Note_on_c, 0, 47, 66
1, 28188, Note_on_c, 0, 67, 66
1, 28188, Note_on_c, 0, 59, 67
1, 28256, Control_c, 0, 64, 127
1, 28304, Note_on_c, 0, 47, 0
1, 28332, Note_on_c, 0, 59, 0
1, 28356, Note_on_c, 0, 67, 0
1, 28380, Note_on_c, 0, 63, 0
1, 28388, Note_on_c, 0, 71, 0
1, 28568, Control_c, 0, 64, 0
1, 28584, Note_on_c, 0, 46, 51
1, 28584, Note_on_c, 0, 72, 66
1, 28588, Note_on_c, 0, 65, 63
1, 28588, Note_on_c, 0, 56, 49
1, 28588, Note_on_c, 0, 68, 55
1, 28588, Note_on_c, 0, 62, 62
1, 28648, Control_c, 0, 64, 127
1, 28656, Note_on_c, 0, 56, 0
1, 28676, Note_on_c, 0, 72, 0
1, 28704, Note_on_c, 0, 65, 0
1, 28708, Note_on_c, 0, 46, 0
1, 28712, Note_on_c, 0, 68, 0
1, 28728, Note_on_c, 0, 62, 0
1, 28964, Control_c, 0, 64, 0
1, 28988, Note_on_c, 0, 63, 46
1, 28996, Note_on_c, 0, 53, 42
1, 28996, Note_on_c, 0, 56, 48
1, 28996, Note_on_c, 0, 46, 42
1, 29008, Note_on_c, 0, 60, 52
1, 29036, Control_c, 0, 64, 127
1, 29408, Note_on_c, 0, 60, 0
1, 29408, Note_on_c, 0, 53, 0
1, 29428, Note_on_c, 0, 56, 0
1, 29464, Note_on_c, 0, 63, 0
1, 29680, Note_on_c, 0, 46, 0
1, 29684, Note_on_c, 0, 65, 59
1, 29772, Note_on_c, 0, 65, 0
1, 30088, Control_c, 0, 64, 0
1, 30096, Note_on_c, 0, 67, 66
1, 30096, Note_on_c, 0, 63, 55
1, 30100, Note_on_c, 0, 55, 56
1, 30108, Note_on_c, 0, 45, 50
1, 30108, Note_on_c, 0, 60, 54
1, 30224, Control_c, 0, 64, 127
1, 30324, Note_on_c, 0, 67, 0
1, 30384, Note_on_c, 0, 55, 0
1, 30404, Note_on_c, 0, 45, 0
1, 30412, Note_on_c, 0, 67, 65
1, 30476, Note_on_c, 0, 67, 0
1, 30500, Note_on_c, 0, 60, 0
1, 30504, Note_on_c, 0, 63, 0
1, 30548, Note_on_c, 0, 67, 66
1, 30620, Note_on_c, 0, 67, 0
1, 30700, Control_c, 0, 64, 0
1, 30708, Note_on_c, 0, 67, 67
1, 30712, Note_on_c, 0, 32, 49
1, 30716, Note_on_c, 0, 44, 42
1, 30720, Note_on_c, 0, 60, 61
1, 30720, Note_on_c, 0, 55, 57
1, 30824, Control_c, 0, 64, 127
1, 30924, Note_on_c, 0, 67, 0
1, 30968, Note_on_c, 0, 55, 0
1, 30996, Note_on_c, 0, 60, 0
1, 31040, Note_on_c, 0, 67, 49
1, 31052, Note_on_c, 0, 44, 0
1, 31060, Note_on_c, 0, 32, 0
1, 31080, Note_on_c, 0, 67, 0
1, 31176, Note_on_c, 0, 67, 66
1, 31180, Note_on_c, 0, 68, 45
1, 31232, Note_on_c, 0, 67, 0
1, 31264, Note_on_c, 0, 68, 0
1, 31312, Control_c, 0, 64, 0
1, 31328, Note_on_c, 0, 67, 78
1, 31332, Note_on_c, 0, 58, 80
1, 31336, Note_on_c, 0, 62, 69
1, 31340, Note_on_c, 0, 31, 63
1, 31344, Note_on_c, 0, 43, 60
1, 31400, Control_c, 0, 64, 127
1, 31424, Note_on_c, 0, 31, 0
1, 31440, Note_on_c, 0, 67, 0
1, 31452, Note_on_c, 0, 62, 0
1, 31468, Note_on_c, 0, 43, 0
1, 31476, Note_on_c, 0, 58, 0
1, 31720, Note_on_c, 0, 58, 66
1, 31720, Note_on_c, 0, 43, 54
1, 31728, Note_on_c, 0, 50, 60
1, 31736, Note_on_c, 0, 53, 48
1, 31780, Note_on_c, 0, 50, 0
1, 31800, Note_on_c, 0, 53, 0
1, 31812, Note_on_c, 0, 58, 0
1, 31828, Note_on_c, 0, 43, 0
1, 31836, Control_c, 0, 64, 72
1, 31836, Control_c, 0, 64, 0
1, 31896, Note_on_c, 0, 53, 35
1, 31900, Note_on_c, 0, 46, 41
1, 31924, Note_on_c, 0, 53, 0
1, 31928, Control_c, 0, 64, 127
1, 31952, Note_on_c, 0, 46, 0
1, 32156, Note_on_c, 0, 51, 48
1, 32264, Note_on_c, 0, 51, 0
1, 32304, Control_c, 0, 64, 0
1, 32316, Note_on_c, 0, 55, 51
1, 32348, Control_c, 0, 64, 127
1, 32464, Note_on_c, 0, 55, 0
1, 32568, Note_on_c, 0, 60, 30
1, 32592, Note_on_c, 0, 60, 0
1, 32692, Note_on_c, 0, 58, 49
1, 32712, Note_on_c, 0, 58, 0
1, 32836, Note_on_c, 0, 67, 46
1, 32920, Note_on_c, 0, 67, 0
1, 32956, Note_on_c, 0, 74, 82
1, 32984, Note_on_c, 0, 70, 35
1, 33012, Note_on_c, 0, 70, 0
1, 33068, Control_c, 0, 64, 0
1, 33080, Note_on_c, 0, 41, 45
1, 33104, Note_on_c, 0, 57, 42
1, 33104, Note_on_c, 0, 69, 58
1, 33108, Note_on_c, 0, 74, 0
1, 33132, Note_on_c, 0, 41, 0
1, 33144, Control_c, 0, 64, 127
1, 33180, Note_on_c, 0, 57, 0
1, 33204, Note_on_c, 0, 69, 0
1, 33220, Note_on_c, 0, 70, 50
1, 33260, Note_on_c, 0, 69, 49
1, 33300, Note_on_c, 0, 70, 0
1, 33352, Note_on_c, 0, 68, 56
1, 33364, Note_on_c, 0, 69, 0
1, 33408, Note_on_c, 0, 68, 0
1, 33464, Note_on_c, 0, 69, 63
1, 33476, Control_c, 0, 64, 0
1, 33476, Note_on_c, 0, 63, 38
1, 33480, Note_on_c, 0, 57, 39
1, 33560, Note_on_c, 0, 69, 0
1, 33576, Note_on_c, 0, 70, 62
1, 33668, Note_on_c, 0, 70, 0
1, 33676, Control_c, 0, 64, 127
1, 33680, Note_on_c, 0, 57, 0
1, 33696, Note_on_c, 0, 71, 85
1, 33736, Note_on_c, 0, 63, 0
1, 33800, Note_on_c, 0, 71, 0
1, 33820, Note_on_c, 0, 74, 85
1, 33820, Control_c, 0, 64, 0
1, 33844, Note_on_c, 0, 64, 56
1, 33844, Note_on_c, 0, 58, 54
1, 33844, Note_on_c, 0, 68, 54
1, 33956, Note_on_c, 0, 71, 65
1, 33960, Note_on_c, 0, 74, 0
1, 34016, Note_on_c, 0, 71, 0
1, 34016, Control_c, 0, 64, 127
1, 34028, Note_on_c, 0, 64, 0
1, 34088, Note_on_c, 0, 72, 81
1, 34092, Note_on_c, 0, 68, 0
1, 34156, Note_on_c, 0, 58, 0
1, 34200, Control_c, 0, 64, 0
1, 34212, Note_on_c, 0, 67, 48
1, 34216, Note_on_c, 0, 57, 52
1, 34220, Note_on_c, 0, 74, 76
1, 34232, Note_on_c, 0, 63, 47
1, 34252, Note_on_c, 0, 72, 0
1, 34304, Control_c, 0, 64, 127
1, 34320, Note_on_c, 0, 74, 0
1, 34348, Note_on_c, 0, 75, 74
1, 34364, Note_on_c, 0, 67, 0
1, 34408, Note_on_c, 0, 57, 0
1, 34432, Note_on_c, 0, 75, 0
1, 34476, Note_on_c, 0, 77, 78
1, 34492, Note_on_c, 0, 63, 0
1, 34580, Control_c, 0, 64, 0
1, 34584, Note_on_c, 0, 56, 47
1, 34584, Note_on_c, 0, 67, 45
1, 34604, Note_on_c, 0, 79, 76
1, 34604, Note_on_c, 0, 62, 49
1, 34624, Note_on_c, 0, 67, 0
1, 34628, Note_on_c, 0, 77, 0
1, 34632, Note_on_c, 0, 62, 0
1, 34680, Control_c, 0, 64, 88
1, 34680, Control_c, 0, 64, 127
1, 34688, Note_on_c, 0, 56, 0
1, 34700, Note_on_c, 0, 79, 0
1, 34732, Note_on_c, 0, 80, 71
1, 34808, Note_on_c, 0, 80, 0
1, 34864, Note_on_c, 0, 82, 57
1, 34936, Control_c, 0, 64, 0
1, 34940, Note_on_c, 0, 82, 0
1, 34980, Note_on_c, 0, 46, 43
1, 34984, Note_on_c, 0, 56, 36
1, 34988, Note_on_c, 0, 84, 66
1, 34996, Note_on_c, 0, 72, 50
1, 35048, Note_on_c, 0, 84, 0
1, 35048, Control_c, 0, 64, 127
1, 35052, Note_on_c, 0, 72, 0
1, 35116, Note_on_c, 0, 46, 0
1, 35116, Note_on_c, 0, 85, 68
1, 35128, Note_on_c, 0, 73, 49
1, 35144, Note_on_c, 0, 56, 0
1, 35148, Note_on_c, 0, 73, 0
1, 35200, Note_on_c, 0, 85, 0
1, 35216, Note_on_c, 0, 73, 54
1, 35248, Note_on_c, 0, 85, 45
1, 35324, Note_on_c, 0, 85, 0
1, 35336, Note_on_c, 0, 73, 0
1, 35352, Note_on_c, 0, 74, 55
1, 35380, Control_c, 0, 64, 24
1, 35380, Note_on_c, 0, 67, 57
1, 35384, Control_c, 0, 64, 0
1, 35412, Note_on_c, 0, 74, 0
1, 35412, Note_on_c, 0, 86, 45
1, 35416, Note_on_c, 0, 56, 23
1, 35432, Note_on_c, 0, 67, 0
1, 35432, Note_on_c, 0, 62, 25
1, 35460, Note_on_c, 0, 62, 0
1, 35464, Control_c, 0, 64, 127
1, 35468, Note_on_c, 0, 86, 0
1, 35472, Note_on_c, 0, 74, 52
1, 35484, Note_on_c, 0, 56, 0
1, 35532, Note_on_c, 0, 74, 0
1, 35540, Note_on_c, 0, 86, 39
1, 35588, Note_on_c, 0, 74, 52
1, 35592, Note_on_c, 0, 86, 0
1, 35652, Note_on_c, 0, 74, 0
1, 35656, Note_on_c, 0, 86, 56
1, 35712, Note_on_c, 0, 86, 0
1, 35764, Control_c, 0, 64, 0
1, 35784, Note_on_c, 0, 46, 54
1, 35792, Note_on_c, 0, 56, 47
1, 35812, Control_c, 0, 64, 127
1, 35972, Note_on_c, 0, 56, 0
1, 36060, Note_on_c, 0, 56, 61
1, 36144, Note_on_c, 0, 56, 0
1, 36212, Control_c, 0, 64, 0
1, 36216, Note_on_c, 0, 46, 0
1, 36216, Note_on_c, 0, 70, 89
1, 36216, Note_on_c, 0, 65, 88
1, 36220, Note_on_c, 0, 60, 84
1, 36224, Note_on_c, 0, 55, 72
1, 36384, Control_c, 0, 64, 127
1, 36516, Note_on_c, 0, 60, 0
1, 36532, Note_on_c, 0, 70, 0
1, 36536, Note_on_c, 0, 65, 0
1, 36556, Note_on_c, 0, 55, 0
1, 36616, Control_c, 0, 64, 0
1, 36628, Note_on_c, 0, 70, 85
1, 36628, Note_on_c, 0, 65, 84
1, 36632, Note_on_c, 0, 60, 76
1, 36632, Note_on_c, 0, 55, 71
1, 36704, Control_c, 0, 64, 127
1, 36828, Note_on_c, 0, 55, 0
1, 36832, Note_on_c, 0, 65, 0
1, 36836, Note_on_c, 0, 70, 0
1, 36876, Note_on_c, 0, 60, 0
1, 37420, Control_c, 0, 64, 0
1, 37464, Note_on_c, 0, 63, 37
1, 37464, Note_on_c, 0, 32, 39
1, 37464, Note_on_c, 0, 44, 39
1, 37468, Note_on_c, 0, 53, 40
1, 37472, Note_on_c, 0, 58, 48
1, 37512, Note_on_c, 0, 63, 0
1, 37516, Note_on_c, 0, 53, 0
1, 37516, Note_on_c, 0, 32, 0
1, 37520, Note_on_c, 0, 44, 0
1, 37528, Note_on_c, 0, 58, 0
1, 37652, Control_c, 0, 64, 127
1, 37700, Note_on_c, 0, 63, 48
1, 37708, Note_on_c, 0, 32, 39
1, 37712, Note_on_c, 0, 58, 49
1, 37716, Note_on_c, 0, 44, 31
1, 37716, Note_on_c, 0, 53, 36
1, 37788, Note_on_c, 0, 53, 0
1, 37792, Note_on_c, 0, 63, 0
1, 37804, Note_on_c, 0, 44, 0
1, 37816, Note_on_c, 0, 58, 0
1, 37832, Note_on_c, 0, 32, 0
1, 37852, Control_c, 0, 64, 0
1, 37900, Note_on_c, 0, 53, 50
1, 37900, Note_on_c, 0, 58, 40
1, 37908, Note_on_c, 0, 62, 44
1, 37908, Note_on_c, 0, 31, 39
1, 37912, Control_c, 0, 64, 127
1, 37916, Note_on_c, 0, 43, 30
1, 37940, Note_on_c, 0, 31, 0
1, 37992, Note_on_c, 0, 62, 0
1, 38000, Note_on_c, 0, 43, 0
1, 38008, Note_on_c, 0, 53, 0
1, 38024, Note_on_c, 0, 58, 0
1, 38292, Control_c, 0, 64, 0
1, 38312, Note_on_c, 0, 53, 52
1, 38316, Note_on_c, 0, 65, 50
1, 38316, Note_on_c, 0, 55, 56
1, 38316, Note_on_c, 0, 58, 56
1, 38316, Note_on_c, 0, 62, 56
1, 38380, Control_c, 0, 64, 127
1, 38472, Note_on_c, 0, 53, 0
1, 38564, Note_on_c, 0, 62, 0
1, 38564, Note_on_c, 0, 55, 0
1, 38572, Note_on_c, 0, 47, 67
1, 38576, Note_on_c, 0, 58, 0
1, 38584, Note_on_c, 0, 65, 0
1, 38692, Control_c, 0, 64, 0
1, 38712, Note_on_c, 0, 47, 0
1, 38732, Note_on_c, 0, 63, 72
1, 38740, Note_on_c, 0, 55, 62
1, 38744, Note_on_c, 0, 58, 60
1, 38748, Note_on_c, 0, 48, 51
1, 38796, Control_c, 0, 64, 127
1, 38832, Note_on_c, 0, 55, 0
1, 38864, Note_on_c, 0, 58, 0
1, 38896, Note_on_c, 0, 63, 0
1, 38952, Note_on_c, 0, 48, 0
1, 38956, Control_c, 0, 64, 0
1, 38968, Note_on_c, 0, 67, 71
1, 38968, Note_on_c, 0, 58, 75
1, 38976, Note_on_c, 0, 51, 54
1, 38980, Note_on_c, 0, 63, 66
1, 38996, Control_c, 0, 64, 127
1, 39016, Note_on_c, 0, 58, 0
1, 39028, Note_on_c, 0, 67, 0
1, 39028, Note_on_c, 0, 51, 0
1, 39040, Note_on_c, 0, 63, 0
1, 39108, Control_c, 0, 64, 0
1, 39124, Note_on_c, 0, 70, 87
1, 39128, Note_on_c, 0, 55, 68
1, 39128, Note_on_c, 0, 63, 76
1, 39132, Note_on_c, 0, 60, 73
1, 39208, Control_c, 0, 64, 127
1, 39304, Note_on_c, 0, 60, 0
1, 39324, Note_on_c, 0, 63, 0
1, 39332, Note_on_c, 0, 55, 0
1, 39340, Note_on_c, 0, 70, 0
1, 39396, Note_on_c, 0, 52, 46
1, 39496, Control_c, 0, 64, 0
1, 39512, Note_on_c, 0, 52, 0
1, 39544, Note_on_c, 0, 72, 52
1, 39552, Note_on_c, 0, 63, 47
1, 39552, Note_on_c, 0, 65, 54
1, 39552, Note_on_c, 0, 53, 49
1, 39564, Note_on_c, 0, 69, 48
1, 39588, Control_c, 0, 64, 127
1, 39648, Note_on_c, 0, 65, 0
1, 39660, Note_on_c, 0, 69, 0
1, 39684, Note_on_c, 0, 72, 0
1, 39700, Note_on_c, 0, 63, 0
1, 39748, Note_on_c, 0, 53, 0
1, 39800, Note_on_c, 0, 41, 48
1, 39820, Note_on_c, 0, 41, 0
1, 39952, Note_on_c, 0, 63, 50
1, 39956, Note_on_c, 0, 74, 57
1, 39956, Note_on_c, 0, 67, 54
1, 39960, Note_on_c, 0, 62, 59
1, 39972, Control_c, 0, 64, 0
1, 40000, Note_on_c, 0, 63, 0
1, 40020, Note_on_c, 0, 67, 0
1, 40028, Note_on_c, 0, 74, 0
1, 40040, Note_on_c, 0, 62, 0
1, 40084, Note_on_c, 0, 60, 49
1, 40128, Control_c, 0, 64, 127
1, 40148, Note_on_c, 0, 60, 0
1, 40220, Note_on_c, 0, 63, 60
1, 40224, Note_on_c, 0, 74, 63
1, 40228, Note_on_c, 0, 67, 57
1, 40228, Note_on_c, 0, 62, 52
1, 40316, Note_on_c, 0, 63, 0
1, 40320, Note_on_c, 0, 74, 0
1, 40340, Note_on_c, 0, 67, 0
1, 40340, Note_on_c, 0, 62, 0
1, 40372, Note_on_c, 0, 63, 36
1, 40384, Note_on_c, 0, 72, 54
1, 40388, Note_on_c, 0, 60, 45
1, 40388, Note_on_c, 0, 67, 29
1, 40608, Note_on_c, 0, 63, 0
1, 40616, Note_on_c, 0, 67, 0
1, 40776, Note_on_c, 0, 63, 52
1, 40784, Note_on_c, 0, 62, 34
1, 40792, Note_on_c, 0, 67, 49
1, 40812, Note_on_c, 0, 62, 0
1, 40812, Note_on_c, 0, 60, 0
1, 40888, Note_on_c, 0, 72, 0
1, 40904, Note_on_c, 0, 67, 0
1, 40944, Note_on_c, 0, 63, 0
1, 41128, Control_c, 0, 64, 0
1, 41172, Note_on_c, 0, 56, 33
1, 41172, Note_on_c, 0, 65, 45
1, 41180, Note_on_c, 0, 46, 38
1, 41184, Note_on_c, 0, 62, 26
1, 41204, Control_c, 0, 64, 127
1, 41256, Note_on_c, 0, 65, 0
1, 41300, Note_on_c, 0, 62, 0
1, 41400, Note_on_c, 0, 56, 0
1, 41448, Note_on_c, 0, 73, 61
1, 41452, Note_on_c, 0, 61, 60
1, 41456, Note_on_c, 0, 66, 56
1, 41520, Note_on_c, 0, 61, 0
1, 41528, Note_on_c, 0, 73, 0
1, 41536, Note_on_c, 0, 66, 0
1, 41592, Control_c, 0, 64, 0
1, 41596, Note_on_c, 0, 73, 52
1, 41600, Note_on_c, 0, 56, 45
1, 41600, Note_on_c, 0, 61, 66
1, 41692, Note_on_c, 0, 61, 0
1, 41692, Note_on_c, 0, 73, 0
1, 41692, Control_c, 0, 64, 127
1, 41712, Note_on_c, 0, 62, 41
1, 41748, Note_on_c, 0, 46, 0
1, 41764, Note_on_c, 0, 62, 0
1, 41780, Note_on_c, 0, 56, 0
1, 41780, Note_on_c, 0, 74, 43
1, 41836, Note_on_c, 0, 74, 0
1, 41836, Note_on_c, 0, 62, 40
1, 41900, Note_on_c, 0, 62, 0
1, 41900, Note_on_c, 0, 74, 51
1, 41976, Note_on_c, 0, 74, 0
1, 41976, Note_on_c, 0, 62, 51
1, 42016, Control_c, 0, 64, 0
1, 42040, Note_on_c, 0, 56, 46
1, 42048, Note_on_c, 0, 62, 0
1, 42052, Note_on_c, 0, 74, 52
1, 42112, Note_on_c, 0, 74, 0
1, 42124, Note_on_c, 0, 62, 44
1, 42172, Control_c, 0, 64, 127
1, 42176, Note_on_c, 0, 62, 0
1, 42184, Note_on_c, 0, 74, 48
1, 42236, Note_on_c, 0, 74, 0
1, 42248, Note_on_c, 0, 62, 45
1, 42304, Note_on_c, 0, 62, 0
1, 42312, Note_on_c, 0, 74, 50
1, 42376, Note_on_c, 0, 74, 0
1, 42384, Note_on_c, 0, 62, 44
1, 42448, Note_on_c, 0, 74, 48
1, 42456, Note_on_c, 0, 62, 0
1, 42476, Note_on_c, 0, 50, 22
1, 42512, Note_on_c, 0, 74, 0
1, 42520, Note_on_c, 0, 62, 41
1, 42540, Note_on_c, 0, 56, 0
1, 42568, Note_on_c, 0, 50, 0
1, 42572, Note_on_c, 0, 62, 0
1, 42580, Note_on_c, 0, 74, 56
1, 42656, Note_on_c, 0, 62, 40
1, 42660, Note_on_c, 0, 74, 0
1, 42676, Note_on_c, 0, 53, 24
1, 42732, Note_on_c, 0, 62, 0
1, 42756, Note_on_c, 0, 53, 0
1, 42764, Note_on_c, 0, 46, 39
1, 42776, Note_on_c, 0, 56, 40
1, 42800, Control_c, 0, 64, 0
1, 42816, Note_on_c, 0, 75, 70
1, 42828, Note_on_c, 0, 61, 56
1, 42844, Note_on_c, 0, 56, 0
1, 42864, Note_on_c, 0, 46, 0
1, 42872, Control_c, 0, 64, 127
1, 42928, Note_on_c, 0, 61, 0
1, 43008, Note_on_c, 0, 75, 0
1, 43216, Note_on_c, 0, 61, 42
1, 43220, Note_on_c, 0, 87, 59
1, 43220, Note_on_c, 0, 65, 31
1, 43232, Control_c, 0, 64, 0
1, 43236, Note_on_c, 0, 73, 31
1, 43288, Note_on_c, 0, 73, 0
1, 43292, Note_on_c, 0, 87, 0
1, 43352, Note_on_c, 0, 65, 0
1, 43352, Note_on_c, 0, 85, 47
1, 43380, Note_on_c, 0, 85, 0
1, 43384, Control_c, 0, 64, 127
1, 43464, Note_on_c, 0, 87, 73
1, 43472, Note_on_c, 0, 73, 62
1, 43504, Note_on_c, 0, 61, 0
1, 43520, Control_c, 0, 64, 0
1, 43580, Note_on_c, 0, 61, 29
1, 43592, Note_on_c, 0, 65, 31
1, 43600, Note_on_c, 0, 57, 39
1, 43608, Note_on_c, 0, 87, 0
1, 43612, Control_c, 0, 64, 127
1, 43628, Note_on_c, 0, 73, 0
1, 43724, Note_on_c, 0, 87, 57
1, 43728, Note_on_c, 0, 73, 54
1, 43772, Note_on_c, 0, 73, 0
1, 43776, Note_on_c, 0, 87, 0
1, 43824, Note_on_c, 0, 65, 0
1, 43856, Note_on_c, 0, 85, 52
1, 43904, Note_on_c, 0, 57, 0
1, 43924, Note_on_c, 0, 85, 0
1, 43972, Control_c, 0, 64, 0
1, 43988, Note_on_c, 0, 87, 72
1, 43992, Note_on_c, 0, 65, 46
1, 43992, Note_on_c, 0, 73, 61
1, 43992, Note_on_c, 0, 56, 39
1, 44056, Control_c, 0, 64, 127
1, 44112, Note_on_c, 0, 87, 0
1, 44120, Note_on_c, 0, 73, 0
1, 44168, Note_on_c, 0, 87, 49
1, 44220, Note_on_c, 0, 87, 0
1, 44220, Note_on_c, 0, 61, 0
1, 44224, Note_on_c, 0, 65, 0
1, 44272, Note_on_c, 0, 87, 56
1, 44296, Note_on_c, 0, 56, 0
1, 44332, Note_on_c, 0, 87, 0
1, 44404, Control_c, 0, 64, 0
1, 44408, Note_on_c, 0, 65, 57
1, 44412, Note_on_c, 0, 61, 50
1, 44420, Control_c, 0, 64, 127
1, 44428, Note_on_c, 0, 65, 0
1, 44440, Note_on_c, 0, 61, 0
1, 44444, Note_on_c, 0, 55, 24
1, 44476, Note_on_c, 0, 55, 0
1, 44688, Note_on_c, 0, 27, 37
1, 44716, Note_on_c, 0, 27, 0
1, 44840, Note_on_c, 0, 58, 66
1, 44840, Note_on_c, 0, 55, 68
1, 44852, Note_on_c, 0, 63, 45
1, 44880, Note_on_c, 0, 63, 0
1, 44928, Note_on_c, 0, 55, 0
1, 44948, Note_on_c, 0, 58, 0
1, 45096, Control_c, 0, 64, 0
1, 45104, Note_on_c, 0, 67, 72
1, 45108, Note_on_c, 0, 58, 74
1, 45116, Note_on_c, 0, 63, 64
1, 45116, Note_on_c, 0, 51, 68
1, 45180, Control_c, 0, 64, 127
1, 45240, Note_on_c, 0, 67, 0
1, 45260, Note_on_c, 0, 58, 0
1, 45264, Note_on_c, 0, 63, 0
1, 45372, Note_on_c, 0, 70, 68
1, 45388, Note_on_c, 0, 63, 64
1, 45388, Note_on_c, 0, 60, 66
1, 45396, Note_on_c, 0, 51, 0
1, 45400, Note_on_c, 0, 55, 63
1, 45412, Note_on_c, 0, 60, 0
1, 45444, Note_on_c, 0, 63, 0
1, 45452, Note_on_c, 0, 55, 0
1, 45468, Note_on_c, 0, 70, 0
1, 45640, Note_on_c, 0, 75, 68
1, 45652, Note_on_c, 0, 58, 58
1, 45652, Note_on_c, 0, 70, 60
1, 45652, Note_on_c, 0, 65, 55
1, 45684, Note_on_c, 0, 58, 0
1, 45696, Note_on_c, 0, 65, 0
1, 45740, Note_on_c, 0, 70, 0
1, 45748, Note_on_c, 0, 75, 0
1, 46064, Note_on_c, 0, 44, 41
1, 46064, Note_on_c, 0, 77, 80
1, 46064, Note_on_c, 0, 74, 75
1, 46072, Control_c, 0, 64, 0
1, 46080, Note_on_c, 0, 73, 50
1, 46084, Note_on_c, 0, 51, 38
1, 46108, Note_on_c, 0, 73, 0
1, 46160, Control_c, 0, 64, 127
1, 46284, Note_on_c, 0, 74, 0
1, 46300, Note_on_c, 0, 77, 0
1, 46332, Note_on_c, 0, 73, 57
1, 46336, Note_on_c, 0, 76, 55
1, 46444, Note_on_c, 0, 76, 0
1, 46456, Note_on_c, 0, 73, 0
1, 46484, Control_c, 0, 64, 0
1, 46496, Note_on_c, 0, 75, 54
1, 46496, Note_on_c, 0, 55, 38
1, 46508, Note_on_c, 0, 72, 42
1, 46572, Control_c, 0, 64, 127
1, 46700, Note_on_c, 0, 44, 0
1, 46752, Note_on_c, 0, 44, 56
1, 46784, Note_on_c, 0, 55, 0
1, 46792, Note_on_c, 0, 72, 0
1, 46888, Note_on_c, 0, 51, 0
1, 46940, Note_on_c, 0, 55, 29
1, 47052, Note_on_c, 0, 55, 0
1, 47080, Note_on_c, 0, 75, 0
1, 47220, Note_on_c, 0, 70, 75
1, 47220, Note_on_c, 0, 74, 81
1, 47372, Note_on_c, 0, 51, 33
1, 47476, Note_on_c, 0, 44, 0
1, 47524, Note_on_c, 0, 70, 0
1, 47556, Note_on_c, 0, 74, 0
1, 47604, Note_on_c, 0, 51, 0
1, 47632, Note_on_c, 0, 44, 46
1, 47636, Note_on_c, 0, 73, 63
1, 47656, Note_on_c, 0, 51, 24
1, 47688, Note_on_c, 0, 73, 0
1, 47704, Note_on_c, 0, 44, 0
1, 47756, Note_on_c, 0, 51, 0
1, 47792, Control_c, 0, 64, 0
1, 47808, Note_on_c, 0, 74, 62
1, 47812, Note_on_c, 0, 63, 52
1, 47812, Note_on_c, 0, 45, 50
1, 47820, Note_on_c, 0, 55, 48
1, 47820, Note_on_c, 0, 67, 60
1, 47888, Control_c, 0, 64, 127
1, 47892, Note_on_c, 0, 45, 0
1, 47940, Note_on_c, 0, 55, 0
1, 48072, Note_on_c, 0, 63, 0
1, 48076, Note_on_c, 0, 67, 0
1, 48104, Note_on_c, 0, 74, 0
1, 48232, Note_on_c, 0, 62, 48
1, 48232, Note_on_c, 0, 72, 54
1, 48236, Note_on_c, 0, 63, 46
1, 48244, Note_on_c, 0, 67, 48
1, 48264, Note_on_c, 0, 62, 0
1, 48344, Note_on_c, 0, 72, 0
1, 48356, Note_on_c, 0, 67, 0
1, 48384, Note_on_c, 0, 63, 0
1, 48600, Control_c, 0, 64, 0
1, 48636, Note_on_c, 0, 70, 49
1, 48648, Note_on_c, 0, 60, 33
1, 48652, Note_on_c, 0, 50, 39
1, 48652, Note_on_c, 0, 64, 41
1, 48652, Note_on_c, 0, 66, 45
1, 48656, Note_on_c, 0, 57, 36
1, 48672, Control_c, 0, 64, 127
1, 48716, Note_on_c, 0, 57, 0
1, 48748, Note_on_c, 0, 50, 0
1, 48860, Note_on_c, 0, 66, 0
1, 48868, Note_on_c, 0, 60, 0
1, 48872, Note_on_c, 0, 70, 0
1, 48872, Note_on_c, 0, 64, 0
1, 49072, Note_on_c, 0, 60, 44
1, 49076, Note_on_c, 0, 69, 56
1, 49076, Note_on_c, 0, 44, 35
1, 49084, Note_on_c, 0, 64, 46
1, 49100, Note_on_c, 0, 54, 12
1, 49188, Note_on_c, 0, 54, 0
1, 49200, Note_on_c, 0, 44, 0
1, 49204, Note_on_c, 0, 64, 0
1, 49228, Note_on_c, 0, 60, 0
1, 49332, Note_on_c, 0, 69, 0
1, 49480, Control_c, 0, 64, 0
1, 49500, Note_on_c, 0, 59, 57
1, 49504, Note_on_c, 0, 64, 55
1, 49504, Note_on_c, 0, 43, 48
1, 49504, Note_on_c, 0, 67, 60
1, 49508, Note_on_c, 0, 53, 38
1, 49612, Control_c, 0, 64, 127
1, 49728, Note_on_c, 0, 53, 0
1, 49740, Note_on_c, 0, 64, 0
1, 49788, Note_on_c, 0, 59, 0
1, 49912, Note_on_c, 0, 63, 55
1, 49924, Note_on_c, 0, 59, 46
1, 49928, Note_on_c, 0, 53, 35
1, 49944, Note_on_c, 0, 43, 0
1, 50000, Note_on_c, 0, 53, 0
1, 50068, Note_on_c, 0, 59, 0
1, 50212, Note_on_c, 0, 63, 0
1, 50304, Control_c, 0, 64, 0
1, 50328, Note_on_c, 0, 58, 44
1, 50336, Note_on_c, 0, 36, 43
1, 50340, Note_on_c, 0, 62, 49
1, 50360, Note_on_c, 0, 52, 38
1, 50400, Control_c, 0, 64, 127
1, 50564, Note_on_c, 0, 52, 0
1, 50608, Note_on_c, 0, 62, 0
1, 50624, Note_on_c, 0, 43, 47
1, 50628, Note_on_c, 0, 58, 0
1, 50688, Note_on_c, 0, 67, 0
1, 50744, Note_on_c, 0, 36, 0
1, 50764, Note_on_c, 0, 43, 0
1, 50772, Note_on_c, 0, 58, 57
1, 50772, Note_on_c, 0, 61, 58
1, 50784, Note_on_c, 0, 52, 45
1, 50848, Note_on_c, 0, 52, 0
1, 51044, Note_on_c, 0, 48, 32
1, 51056, Note_on_c, 0, 58, 0
1, 51108, Note_on_c, 0, 61, 0
1, 51160, Note_on_c, 0, 48, 0
1, 51164, Control_c, 0, 64, 0
1, 51184, Note_on_c, 0, 56, 55
1, 51192, Note_on_c, 0, 41, 42
1, 51192, Note_on_c, 0, 60, 55
1, 51208, Note_on_c, 0, 51, 26
1, 51244, Control_c, 0, 64, 127
1, 51356, Note_on_c, 0, 60, 0
1, 51420, Note_on_c, 0, 51, 0
1, 51480, Note_on_c, 0, 56, 0
1, 51572, Note_on_c, 0, 41, 0
1, 51600, Note_on_c, 0, 51, 39
1, 51600, Note_on_c, 0, 56, 40
1, 51612, Note_on_c, 0, 59, 45
1, 51656, Note_on_c, 0, 56, 0
1, 51664, Note_on_c, 0, 59, 0
1, 51672, Note_on_c, 0, 51, 0
1, 51864, Note_on_c, 0, 60, 66
1, 51864, Note_on_c, 0, 68, 58
1, 51868, Note_on_c, 0, 65, 63
1, 51872, Note_on_c, 0, 63, 55
1, 52008, Control_c, 0, 64, 0
1, 52020, Note_on_c, 0, 46, 44
1, 52020, Note_on_c, 0, 56, 39
1, 52056, Control_c, 0, 64, 127
1, 52100, Note_on_c, 0, 56, 0
1, 52116, Note_on_c, 0, 60, 0
1, 52116, Note_on_c, 0, 65, 0
1, 52132, Note_on_c, 0, 68, 0
1, 52164, Note_on_c, 0, 46, 0
1, 52184, Note_on_c, 0, 63, 0
1, 52300, Note_on_c, 0, 67, 68
1, 52308, Note_on_c, 0, 62, 63
1, 52312, Note_on_c, 0, 58, 54
1, 52436, Note_on_c, 0, 46, 45
1, 52464, Note_on_c, 0, 46, 0
1, 52560, Note_on_c, 0, 58, 0
1, 52560, Note_on_c, 0, 67, 0
1, 52592, Note_on_c, 0, 62, 0
1, 52600, Note_on_c, 0, 65, 63
1, 52600, Note_on_c, 0, 44, 38
1, 52676, Note_on_c, 0, 44, 0
1, 52844, Note_on_c, 0, 65, 0
1, 52860, Control_c, 0, 64, 0
1, 52876, Note_on_c, 0, 36, 57
1, 52884, Note_on_c, 0, 64, 83
1, 52896, Note_on_c, 0, 52, 51
1, 52912, Note_on_c, 0, 43, 32
1, 52936, Control_c, 0, 64, 127
1, 52976, Note_on_c, 0, 36, 0
1, 52984, Note_on_c, 0, 43, 0
1, 53020, Note_on_c, 0, 52, 0
1, 53068, Note_on_c, 0, 64, 0
1, 53320, Note_on_c, 0, 76, 102
1, 53320, Note_on_c, 0, 64, 66
1, 53320, Note_on_c, 0, 71, 92
1, 53320, Note_on_c, 0, 67, 90
1, 53328, Note_on_c, 0, 60, 58
1, 53336, Note_on_c, 0, 59, 57
1, 53368, Note_on_c, 0, 64, 0
1, 53384, Note_on_c, 0, 60, 0
1, 53384, Note_on_c, 0, 59, 0
1, 53508, Note_on_c, 0, 71, 0
1, 53512, Note_on_c, 0, 76, 0
1, 53520, Note_on_c, 0, 67, 0
1, 53732, Note_on_c, 0, 41, 56
1, 53748, Control_c, 0, 64, 0
1, 53752, Note_on_c, 0, 72, 84
1, 53756, Note_on_c, 0, 64, 87
1, 53756, Note_on_c, 0, 69, 84
1, 53756, Note_on_c, 0, 57, 57
1, 53764, Note_on_c, 0, 48, 49
1, 53852, Control_c, 0, 64, 127
1, 53940, Note_on_c, 0, 72, 0
1, 53948, Note_on_c, 0, 69, 0
1, 53952, Note_on_c, 0, 57, 0
1, 53980, Note_on_c, 0, 64, 0
1, 54004, Note_on_c, 0, 48, 0
1, 54168, Note_on_c, 0, 48, 48
1, 54176, Note_on_c, 0, 57, 39
1, 54176, Note_on_c, 0, 69, 83
1, 54184, Note_on_c, 0, 64, 83
1, 54188, Note_on_c, 0, 60, 84
1, 54200, Note_on_c, 0, 57, 0
1, 54208, Note_on_c, 0, 41, 0
1, 54252, Note_on_c, 0, 48, 0
1, 54316, Note_on_c, 0, 69, 0
1, 54316, Note_on_c, 0, 64, 0
1, 54348, Note_on_c, 0, 60, 0
1, 54556, Control_c, 0, 64, 0
1, 54596, Note_on_c, 0, 67, 59
1, 54596, Note_on_c, 0, 62, 63
1, 54600, Note_on_c, 0, 40, 50
1, 54600, Note_on_c, 0, 55, 55
1, 54616, Note_on_c, 0, 47, 41
1, 54624, Note_on_c, 0, 52, 36
1, 54652, Control_c, 0, 64, 127
1, 54664, Note_on_c, 0, 40, 0
1, 54672, Note_on_c, 0, 55, 0
1, 54688, Note_on_c, 0, 47, 0
1, 54696, Note_on_c, 0, 52, 0
1, 54724, Note_on_c, 0, 62, 0
1, 54768, Note_on_c, 0, 67, 0
1, 55024, Control_c, 0, 64, 0
1, 55044, Note_on_c, 0, 62, 33
1, 55044, Note_on_c, 0, 55, 34
1, 55044, Note_on_c, 0, 52, 29
1, 55072, Note_on_c, 0, 62, 0
1, 55092, Note_on_c, 0, 55, 0
1, 55116, Note_on_c, 0, 52, 0
1, 55152, Note_on_c, 0, 67, 55
1, 55200, Note_on_c, 0, 67, 0
1, 55232, Control_c, 0, 64, 127
1, 55276, Note_on_c, 0, 72, 68
1, 55328, Note_on_c, 0, 72, 0
1, 55404, Control_c, 0, 64, 0
1, 55416, Note_on_c, 0, 45, 56
1, 55436, Note_on_c, 0, 86, 88
1, 55444, Note_on_c, 0, 45, 0
1, 55556, Note_on_c, 0, 86, 0
1, 55820, Note_on_c, 0, 60, 39
1, 55820, Note_on_c, 0, 64, 40
1, 55824, Note_on_c, 0, 57, 48
1, 55888, Control_c, 0, 64, 127
1, 55912, Note_on_c, 0, 64, 0
1, 55936, Note_on_c, 0, 60, 0
1, 55952, Note_on_c, 0, 80, 58
1, 55960, Note_on_c, 0, 57, 0
1, 56044, Note_on_c, 0, 80, 0
1, 56084, Note_on_c, 0, 83, 81
1, 56156, Note_on_c, 0, 83, 0
1, 56192, Control_c, 0, 64, 0
1, 56228, Note_on_c, 0, 60, 31
1, 56236, Note_on_c, 0, 50, 36
1, 56244, Note_on_c, 0, 80, 57
1, 56264, Note_on_c, 0, 57, 26
1, 56336, Note_on_c, 0, 80, 0
1, 56376, Note_on_c, 0, 81, 64
1, 56424, Note_on_c, 0, 60, 0
1, 56428, Control_c, 0, 64, 127
1, 56456, Note_on_c, 0, 57, 0
1, 56472, Note_on_c, 0, 81, 0
1, 56520, Note_on_c, 0, 76, 55
1, 56548, Note_on_c, 0, 76, 0
1, 56620, Control_c, 0, 64, 0
1, 56648, Note_on_c, 0, 60, 37
1, 56652, Note_on_c, 0, 57, 41
1, 56664, Note_on_c, 0, 80, 71
1, 56720, Note_on_c, 0, 80, 0
1, 56720, Note_on_c, 0, 50, 0
1, 56724, Note_on_c, 0, 57, 0
1, 56740, Note_on_c, 0, 81, 55
1, 56784, Note_on_c, 0, 60, 0
1, 56796, Note_on_c, 0, 81, 0
1, 56800, Note_on_c, 0, 80, 56
1, 56804, Control_c, 0, 64, 127
1, 56860, Note_on_c, 0, 80, 0
1, 56864, Note_on_c, 0, 76, 47
1, 56884, Note_on_c, 0, 76, 0
1, 56944, Note_on_c, 0, 79, 89
1, 56996, Control_c, 0, 64, 0
1, 57036, Note_on_c, 0, 79, 0
1, 57048, Note_on_c, 0, 64, 35
1, 57060, Note_on_c, 0, 60, 42
1, 57060, Note_on_c, 0, 57, 42
1, 57116, Note_on_c, 0, 81, 64
1, 57164, Note_on_c, 0, 79, 66
1, 57172, Note_on_c, 0, 81, 0
1, 57228, Note_on_c, 0, 76, 52
1, 57236, Note_on_c, 0, 79, 0
1, 57276, Note_on_c, 0, 76, 0
1, 57284, Note_on_c, 0, 64, 0
1, 57344, Note_on_c, 0, 77, 77
1, 57360, Control_c, 0, 64, 127
1, 57388, Note_on_c, 0, 57, 0
1, 57424, Note_on_c, 0, 77, 0
1, 57432, Note_on_c, 0, 60, 0
1, 57468, Control_c, 0, 64, 0
1, 57492, Note_on_c, 0, 78, 69
1, 57504, Note_on_c, 0, 64, 46
1, 57508, Note_on_c, 0, 60, 38
1, 57520, Note_on_c, 0, 54, 32
1, 57572, Control_c, 0, 64, 127
1, 57652, Note_on_c, 0, 64, 0
1, 57676, Note_on_c, 0, 60, 0
1, 57720, Note_on_c, 0, 54, 0
1, 57724, Note_on_c, 0, 78, 0
1, 57764, Note_on_c, 0, 81, 78
1, 57816, Note_on_c, 0, 81, 0
1, 57892, Control_c, 0, 64, 0
1, 57916, Note_on_c, 0, 79, 69
1, 57920, Note_on_c, 0, 69, 54
1, 57928, Note_on_c, 0, 64, 54
1, 57928, Note_on_c, 0, 72, 48
1, 57932, Note_on_c, 0, 76, 43
1, 58008, Note_on_c, 0, 76, 0
1, 58008, Note_on_c, 0, 72, 0
1, 58016, Note_on_c, 0, 79, 0
1, 58036, Note_on_c, 0, 64, 0
1, 58040, Note_on_c, 0, 69, 0
1, 58056, Note_on_c, 0, 63, 48
1, 58160, Note_on_c, 0, 63, 0
1, 58184, Note_on_c, 0, 77, 52
1, 58184, Note_on_c, 0, 72, 50
1, 58192, Note_on_c, 0, 62, 46
1, 58192, Note_on_c, 0, 69, 46
1, 58292, Note_on_c, 0, 77, 0
1, 58300, Note_on_c, 0, 72, 0
1, 58312, Note_on_c, 0, 62, 0
1, 58332, Note_on_c, 0, 69, 0
1, 58332, Note_on_c, 0, 61, 39
1, 58428, Note_on_c, 0, 61, 0
1, 58444, Note_on_c, 0, 76, 61
1, 58452, Note_on_c, 0, 69, 60
1, 58460, Note_on_c, 0, 60, 50
1, 58460, Note_on_c, 0, 65, 54
1, 58464, Control_c, 0, 64, 127
1, 58500, Note_on_c, 0, 76, 0
1, 58504, Note_on_c, 0, 69, 0
1, 58540, Note_on_c, 0, 65, 0
1, 58568, Note_on_c, 0, 60, 0
1, 58600, Note_on_c, 0, 65, 53
1, 58604, Note_on_c, 0, 72, 57
1, 58608, Note_on_c, 0, 57, 44
1, 58700, Note_on_c, 0, 65, 0
1, 58700, Control_c, 0, 64, 0
1, 58708, Note_on_c, 0, 72, 0
1, 58712, Note_on_c, 0, 57, 0
1, 58748, Note_on_c, 0, 65, 40
1, 58756, Note_on_c, 0, 53, 41
1, 58756, Note_on_c, 0, 69, 49
1, 58756, Note_on_c, 0, 62, 43
1, 58776, Note_on_c, 0, 53, 0
1, 58780, Control_c, 0, 64, 127
1, 58820, Note_on_c, 0, 62, 0
1, 58824, Note_on_c, 0, 65, 0
1, 58828, Note_on_c, 0, 69, 0
1, 58840, Control_c, 0, 64, 0
1, 58876, Note_on_c, 0, 43, 49
1, 58904, Note_on_c, 0, 43, 0
1, 59020, Note_on_c, 0, 70, 62
1, 59028, Note_on_c, 0, 63, 58
1, 59032, Note_on_c, 0, 59, 50
1, 59044, Note_on_c, 0, 53, 43
1, 59144, Control_c, 0, 64, 127
1, 59232, Note_on_c, 0, 59, 0
1, 59248, Note_on_c, 0, 63, 0
1, 59284, Note_on_c, 0, 70, 0
1, 59300, Note_on_c, 0, 63, 51
1, 59300, Note_on_c, 0, 68, 59
1, 59308, Note_on_c, 0, 59, 46
1, 59308, Note_on_c, 0, 43, 53
1, 59372, Note_on_c, 0, 53, 0
1, 59408, Note_on_c, 0, 68, 0
1, 59416, Note_on_c, 0, 59, 0
1, 59472, Note_on_c, 0, 63, 0
1, 59556, Control_c, 0, 64, 0
1, 59580, Note_on_c, 0, 67, 65
1, 59592, Note_on_c, 0, 62, 60
1, 59596, Note_on_c, 0, 59, 46
1, 59596, Note_on_c, 0, 57, 40
1, 59600, Note_on_c, 0, 52, 48
1, 59668, Control_c, 0, 64, 127
1, 59772, Note_on_c, 0, 43, 0
1, 59840, Note_on_c, 0, 52, 0
1, 59864, Note_on_c, 0, 57, 0
1, 59872, Note_on_c, 0, 59, 0
1, 59872, Note_on_c, 0, 62, 0
1, 59968, Note_on_c, 0, 67, 0
1, 60220, Control_c, 0, 64, 0
1, 60276, Note_on_c, 0, 42, 50
1, 60288, Note_on_c, 0, 64, 36
1, 60308, Control_c, 0, 64, 127
1, 60316, Note_on_c, 0, 64, 0
1, 60436, Note_on_c, 0, 42, 0
1, 60448, Control_c, 0, 64, 0
1, 60504, Note_on_c, 0, 60, 48
1, 60504, Note_on_c, 0, 41, 49
1, 60504, Note_on_c, 0, 55, 36
1, 60508, Note_on_c, 0, 57, 34
1, 60528, Note_on_c, 0, 55, 0
1, 60540, Control_c, 0, 64, 127
1, 60552, Note_on_c, 0, 57, 0
1, 60572, Note_on_c, 0, 60, 0
1, 60780, Control_c, 0, 64, 0
1, 60784, Note_on_c, 0, 57, 53
1, 60784, Note_on_c, 0, 74, 88
1, 60788, Note_on_c, 0, 67, 80
1, 60788, Note_on_c, 0, 63, 83
1, 60852, Control_c, 0, 64, 127
1, 60936, Note_on_c, 0, 57, 0
1, 60944, Note_on_c, 0, 74, 0
1, 60960, Note_on_c, 0, 41, 0
1, 60992, Note_on_c, 0, 63, 0
1, 60996, Note_on_c, 0, 67, 0
1, 61028, Note_on_c, 0, 72, 74
1, 61252, Note_on_c, 0, 72, 0
1, 61264, Control_c, 0, 64, 0
1, 61296, Note_on_c, 0, 62, 46
1, 61300, Note_on_c, 0, 40, 42
1, 61304, Note_on_c, 0, 67, 48
1, 61320, Note_on_c, 0, 55, 25
1, 61380, Note_on_c, 0, 40, 0
1, 61384, Control_c, 0, 64, 127
1, 61444, Note_on_c, 0, 55, 0
1, 61504, Note_on_c, 0, 62, 0
1, 61628, Note_on_c, 0, 67, 0
1, 61748, Note_on_c, 0, 62, 39
1, 61760, Note_on_c, 0, 55, 39
1, 61812, Note_on_c, 0, 62, 0
1, 61820, Note_on_c, 0, 55, 0
1, 62016, Note_on_c, 0, 79, 70
1, 62016, Note_on_c, 0, 64, 54
1, 62020, Note_on_c, 0, 69, 63
1, 62028, Note_on_c, 0, 72, 58
1, 62104, Note_on_c, 0, 72, 0
1, 62104, Note_on_c, 0, 79, 0
1, 62104, Note_on_c, 0, 64, 0
1, 62124, Note_on_c, 0, 69, 0
1, 62128, Control_c, 0, 64, 0
1, 62220, Note_on_c, 0, 60, 46
1, 62220, Note_on_c, 0, 76, 60
1, 62220, Note_on_c, 0, 67, 56
1, 62224, Note_on_c, 0, 69, 57
1, 62232, Note_on_c, 0, 72, 57
1, 62284, Control_c, 0, 64, 127
1, 62328, Note_on_c, 0, 72, 0
1, 62336, Note_on_c, 0, 76, 0
1, 62340, Note_on_c, 0, 69, 0
1, 62368, Note_on_c, 0, 67, 0
1, 62432, Note_on_c, 0, 60, 0
1, 62492, Note_on_c, 0, 72, 53
1, 62492, Note_on_c, 0, 67, 50
1, 62496, Note_on_c, 0, 57, 48
1, 62496, Note_on_c, 0, 64, 46
1, 62552, Note_on_c, 0, 67, 0
1, 62552, Note_on_c, 0, 72, 0
1, 62576, Note_on_c, 0, 64, 0
1, 62608, Control_c, 0, 64, 0
1, 62628, Note_on_c, 0, 57, 0
1, 62656, Note_on_c, 0, 68, 57
1, 62664, Note_on_c, 0, 60, 47
1, 62672, Note_on_c, 0, 56, 45
1, 62724, Control_c, 0, 64, 127
1, 62820, Note_on_c, 0, 60, 0
1, 62848, Note_on_c, 0, 68, 0
1, 62896, Note_on_c, 0, 56, 0
1, 62912, Note_on_c, 0, 59, 50
1, 62912, Note_on_c, 0, 71, 59
1, 62932, Note_on_c, 0, 60, 28
1, 62936, Note_on_c, 0, 64, 36
1, 62976, Note_on_c, 0, 60, 0
1, 62988, Note_on_c, 0, 64, 0
1, 63012, Note_on_c, 0, 59, 0
1, 63016, Note_on_c, 0, 71, 0
1, 63028, Control_c, 0, 64, 104
1, 63032, Control_c, 0, 64, 0
1, 63076, Note_on_c, 0, 69, 52
1, 63092, Note_on_c, 0, 57, 31
1, 63100, Note_on_c, 0, 50, 37
1, 63140, Control_c, 0, 64, 127
1, 63232, Note_on_c, 0, 69, 0
1, 63348, Note_on_c, 0, 68, 57
1, 63420, Note_on_c, 0, 68, 0
1, 63468, Note_on_c, 0, 57, 0
1, 63476, Control_c, 0, 64, 0
1, 63488, Note_on_c, 0, 69, 49
1, 63492, Note_on_c, 0, 60, 38
1, 63496, Note_on_c, 0, 54, 35
1, 63552, Note_on_c, 0, 69, 0
1, 63608, Note_on_c, 0, 72, 54
1, 63628, Control_c, 0, 64, 127
1, 63640, Note_on_c, 0, 50, 0
1, 63652, Note_on_c, 0, 54, 0
1, 63652, Note_on_c, 0, 72, 0
1, 63700, Note_on_c, 0, 60, 0
1, 63732, Note_on_c, 0, 76, 72
1, 63796, Note_on_c, 0, 76, 0
1, 63868, Control_c, 0, 64, 0
1, 63880, Note_on_c, 0, 80, 67
1, 63880, Note_on_c, 0, 64, 37
1, 63888, Note_on_c, 0, 60, 44
1, 63888, Note_on_c, 0, 54, 35
1, 64000, Note_on_c, 0, 80, 0
1, 64008, Control_c, 0, 64, 127
1, 64020, Note_on_c, 0, 81, 76
1, 64048, Note_on_c, 0, 64, 0
1, 64108, Note_on_c, 0, 60, 0
1, 64256, Note_on_c, 0, 81, 0
1, 64276, Control_c, 0, 64, 0
1, 64300, Note_on_c, 0, 80, 74
1, 64304, Note_on_c, 0, 64, 40
1, 64320, Note_on_c, 0, 60, 41
1, 64368, Control_c, 0, 64, 127
1, 64408, Note_on_c, 0, 80, 0
1, 64436, Note_on_c, 0, 64, 0
1, 64440, Note_on_c, 0, 81, 64
1, 64452, Note_on_c, 0, 60, 0
1, 64488, Note_on_c, 0, 54, 0
1, 64672, Note_on_c, 0, 81, 0
1, 64696, Control_c, 0, 64, 0
1, 64700, Note_on_c, 0, 63, 48
1, 64712, Note_on_c, 0, 82, 63
1, 64724, Note_on_c, 0, 59, 45
1, 64732, Note_on_c, 0, 58, 39
1, 64808, Control_c, 0, 64, 127
1, 65124, Control_c, 0, 64, 0
1, 65124, Note_on_c, 0, 54, 55
1, 65196, Control_c, 0, 64, 127
1, 65328, Note_on_c, 0, 63, 0
1, 65360, Note_on_c, 0, 58, 0
1, 65376, Note_on_c, 0, 54, 0
1, 65408, Note_on_c, 0, 59, 0
1, 65508, Control_c, 0, 64, 0
1, 65516, Note_on_c, 0, 82, 0
1, 65524, Note_on_c, 0, 63, 48
1, 65528, Note_on_c, 0, 83, 63
1, 65532, Note_on_c, 0, 59, 30
1, 65548, Note_on_c, 0, 53, 37
1, 65564, Control_c, 0, 64, 127
1, 65592, Note_on_c, 0, 63, 0
1, 65608, Note_on_c, 0, 59, 0
1, 65612, Note_on_c, 0, 53, 0
1, 65716, Note_on_c, 0, 83, 0
1, 65908, Control_c, 0, 64, 0
1, 65936, Control_c, 0, 64, 127
1, 65940, Note_on_c, 0, 37, 46
1, 65948, Note_on_c, 0, 44, 42
1, 66024, Note_on_c, 0, 37, 0
1, 66040, Note_on_c, 0, 44, 0
1, 66348, Control_c, 0, 64, 0
1, 66368, Note_on_c, 0, 43, 54
1, 66408, Control_c, 0, 64, 72
1, 66408, Control_c, 0, 64, 127
1, 66620, Note_on_c, 0, 72, 51
1, 66628, Note_on_c, 0, 65, 63
1, 66632, Note_on_c, 0, 58, 61
1, 66636, Note_on_c, 0, 70, 45
1, 66640, Note_on_c, 0, 57, 68
1, 66664, Note_on_c, 0, 43, 0
1, 66680, Note_on_c, 0, 57, 0
1, 66684, Note_on_c, 0, 58, 0
1, 66696, Note_on_c, 0, 70, 0
1, 66700, Note_on_c, 0, 65, 0
1, 66732, Note_on_c, 0, 72, 0
1, 66856, Note_on_c, 0, 78, 37
1, 66884, Note_on_c, 0, 78, 0
1, 67040, Note_on_c, 0, 62, 52
1, 67040, Note_on_c, 0, 84, 72
1, 67048, Note_on_c, 0, 58, 46
1, 67052, Note_on_c, 0, 53, 46
1, 67052, Note_on_c, 0, 77, 56
1, 67052, Note_on_c, 0, 72, 54
1, 67072, Note_on_c, 0, 57, 36
1, 67080, Note_on_c, 0, 72, 0
1, 67092, Note_on_c, 0, 77, 0
1, 67096, Note_on_c, 0, 57, 0
1, 67100, Note_on_c, 0, 53, 0
1, 67112, Note_on_c, 0, 62, 0
1, 67112, Note_on_c, 0, 84, 0
1, 67120, Note_on_c, 0, 58, 0
1, 67164, Note_on_c, 0, 84, 66
1, 67172, Note_on_c, 0, 62, 60
1, 67176, Note_on_c, 0, 58, 58
1, 67176, Note_on_c, 0, 72, 50
1, 67176, Note_on_c, 0, 77, 65
1, 67180, Note_on_c, 0, 53, 46
1, 67188, Note_on_c, 0, 57, 56
1, 67240, Note_on_c, 0, 72, 0
1, 67264, Note_on_c, 0, 77, 0
1, 67264, Note_on_c, 0, 84, 0
1, 67264, Note_on_c, 0, 53, 0
1, 67268, Note_on_c, 0, 57, 0
1, 67280, Note_on_c, 0, 62, 0
1, 67284, Note_on_c, 0, 58, 0
1, 67312, Note_on_c, 0, 84, 73
1, 67316, Note_on_c, 0, 53, 56
1, 67316, Note_on_c, 0, 77, 65
1, 67320, Note_on_c, 0, 72, 57
1, 67320, Note_on_c, 0, 62, 56
1, 67328, Note_on_c, 0, 58, 68
1, 67336, Note_on_c, 0, 57, 58
1, 67488, Note_on_c, 0, 53, 0
1, 67492, Note_on_c, 0, 72, 0
1, 67496, Note_on_c, 0, 58, 0
1, 67504, Note_on_c, 0, 57, 0
1, 67504, Note_on_c, 0, 77, 0
1, 67508, Note_on_c, 0, 62, 0
1, 67512, Note_on_c, 0, 84, 0
1, 67544, Control_c, 0, 64, 0
1, 67564, Note_on_c, 0, 62, 57
1, 67572, Note_on_c, 0, 84, 60
1, 67576, Note_on_c, 0, 72, 48
1, 67576, Note_on_c, 0, 57, 40
1, 67576, Note_on_c, 0, 58, 57
1, 67576, Note_on_c, 0, 77, 56
1, 67576, Note_on_c, 0, 53, 52
1, 67612, Note_on_c, 0, 57, 0
1, 67620, Note_on_c, 0, 53, 0
1, 67628, Note_on_c, 0, 62, 0
1, 67636, Note_on_c, 0, 72, 0
1, 67636, Note_on_c, 0, 77, 0
1, 67644, Note_on_c, 0, 84, 0
1, 67644, Note_on_c, 0, 58, 0
1, 67692, Note_on_c, 0, 72, 51
1, 67692, Note_on_c, 0, 84, 57
1, 67692, Note_on_c, 0, 62, 55
1, 67692, Note_on_c, 0, 77, 65
1, 67692, Note_on_c, 0, 58, 50
1, 67708, Note_on_c, 0, 57, 46
1, 67732, Note_on_c, 0, 57, 0
1, 67732, Note_on_c, 0, 53, 26
1, 67740, Control_c, 0, 64, 127
1, 67744, Note_on_c, 0, 72, 0
1, 67748, Note_on_c, 0, 62, 0
1, 67760, Note_on_c, 0, 77, 0
1, 67760, Note_on_c, 0, 53, 0
1, 67764, Note_on_c, 0, 58, 0
1, 67768, Note_on_c, 0, 84, 0
1, 67824, Control_c, 0, 64, 0
1, 67828, Note_on_c, 0, 84, 68
1, 67828, Note_on_c, 0, 62, 71
1, 67828, Note_on_c, 0, 77, 72
1, 67832, Note_on_c, 0, 72, 62
1, 67836, Note_on_c, 0, 57, 57
1, 67836, Note_on_c, 0, 58, 60
1, 67836, Note_on_c, 0, 53, 53
1, 67916, Control_c, 0, 64, 127
1, 67960, Note_on_c, 0, 53, 0
1, 67960, Note_on_c, 0, 72, 0
1, 67964, Note_on_c, 0, 77, 0
1, 67964, Note_on_c, 0, 62, 0
1, 67968, Note_on_c, 0, 57, 0
1, 67972, Note_on_c, 0, 58, 0
1, 67984, Note_on_c, 0, 84, 0
1, 68000, Control_c, 0, 64, 0
1, 68000, Note_on_c, 0, 84, 33
1, 68008, Note_on_c, 0, 72, 66
1, 68008, Note_on_c, 0, 58, 72
1, 68008, Note_on_c, 0, 77, 85
1, 68008, Note_on_c, 0, 62, 68
1, 68036, Note_on_c, 0, 52, 43
1, 68136, Control_c, 0, 64, 127
1, 68224, Note_on_c, 0, 52, 0
1, 68224, Note_on_c, 0, 72, 0
1, 68228, Note_on_c, 0, 77, 0
1, 68228, Note_on_c, 0, 62, 0
1, 68236, Note_on_c, 0, 84, 0
1, 68244, Note_on_c, 0, 58, 0
1, 68300, Note_on_c, 0, 84, 66
1, 68300, Note_on_c, 0, 62, 63
1, 68300, Note_on_c, 0, 72, 61
1, 68304, Note_on_c, 0, 77, 75
1, 68304, Note_on_c, 0, 58, 57
1, 68312, Note_on_c, 0, 52, 56
1, 68324, Control_c, 0, 64, 0
1, 68408, Control_c, 0, 64, 127
1, 68460, Note_on_c, 0, 84, 0
1, 68464, Note_on_c, 0, 62, 0
1, 68484, Note_on_c, 0, 77, 0
1, 68496, Note_on_c, 0, 72, 0
1, 68500, Note_on_c, 0, 58, 0
1, 68528, Note_on_c, 0, 52, 0
1, 68832, Control_c, 0, 64, 0
1, 68888, Control_c, 0, 64, 127
1, 68908, Note_on_c, 0, 60, 49
1, 68912, Note_on_c, 0, 52, 50
1, 68916, Note_on_c, 0, 48, 43
1, 68924, Note_on_c, 0, 55, 42
1, 68952, Note_on_c, 0, 58, 28
1, 68960, Note_on_c, 0, 52, 0
1, 68972, Note_on_c, 0, 60, 0
1, 68976, Note_on_c, 0, 55, 0
1, 68984, Note_on_c, 0, 58, 0
1, 69128, Note_on_c, 0, 48, 0
1, 69160, Note_on_c, 0, 58, 54
1, 69176, Note_on_c, 0, 52, 57
1, 69180, Note_on_c, 0, 58, 0
1, 69288, Control_c, 0, 64, 0
1, 69320, Note_on_c, 0, 52, 0
1, 69324, Note_on_c, 0, 67, 63
1, 69328, Note_on_c, 0, 58, 53
1, 69344, Note_on_c, 0, 55, 56
1, 69348, Note_on_c, 0, 58, 0
1, 69348, Note_on_c, 0, 61, 38
1, 69360, Control_c, 0, 64, 127
1, 69376, Note_on_c, 0, 61, 0
1, 69388, Note_on_c, 0, 67, 0
1, 69396, Note_on_c, 0, 55, 0
1, 69576, Note_on_c, 0, 74, 71
1, 69584, Note_on_c, 0, 65, 63
1, 69596, Note_on_c, 0, 58, 50
1, 69608, Note_on_c, 0, 65, 0
1, 69620, Note_on_c, 0, 58, 0
1, 69632, Note_on_c, 0, 74, 0
1, 69736, Control_c, 0, 64, 0
1, 69744, Note_on_c, 0, 71, 74
1, 69744, Note_on_c, 0, 62, 58
1, 69752, Note_on_c, 0, 67, 68
1, 69776, Note_on_c, 0, 53, 49
1, 69844, Note_on_c, 0, 53, 0
1, 69860, Control_c, 0, 64, 127
1, 70004, Note_on_c, 0, 41, 62
1, 70048, Note_on_c, 0, 62, 0
1, 70048, Control_c, 0, 64, 0
1, 70084, Note_on_c, 0, 71, 0
1, 70088, Note_on_c, 0, 67, 0
1, 70160, Note_on_c, 0, 57, 56
1, 70172, Note_on_c, 0, 67, 54
1, 70172, Note_on_c, 0, 62, 49
1, 70176, Note_on_c, 0, 71, 52
1, 70192, Note_on_c, 0, 62, 0
1, 70216, Note_on_c, 0, 41, 0
1, 70220, Note_on_c, 0, 71, 0
1, 70220, Note_on_c, 0, 67, 0
1, 70228, Note_on_c, 0, 57, 0
1, 70396, Control_c, 0, 64, 127
1, 70432, Note_on_c, 0, 41, 41
1, 70508, Control_c, 0, 64, 0
1, 70572, Note_on_c, 0, 62, 52
1, 70572, Note_on_c, 0, 66, 56
1, 70576, Note_on_c, 0, 71, 42
1, 70576, Note_on_c, 0, 57, 36
1, 70612, Control_c, 0, 64, 127
1, 70632, Note_on_c, 0, 66, 0
1, 70656, Note_on_c, 0, 57, 0
1, 70672, Note_on_c, 0, 41, 0
1, 70684, Note_on_c, 0, 67, 5
1, 70732, Note_on_c, 0, 62, 0
1, 70752, Note_on_c, 0, 71, 0
1, 70768, Note_on_c, 0, 67, 0
1, 70808, Note_on_c, 0, 41, 57
1, 70828, Note_on_c, 0, 65, 48
1, 70828, Note_on_c, 0, 60, 45
1, 70832, Note_on_c, 0, 69, 48
1, 70860, Note_on_c, 0, 60, 0
1, 70880, Control_c, 0, 64, 0
1, 70908, Note_on_c, 0, 65, 0
1, 70916, Note_on_c, 0, 69, 0
1, 70964, Note_on_c, 0, 57, 47
1, 70968, Control_c, 0, 64, 127
1, 70980, Note_on_c, 0, 71, 56
1, 70980, Note_on_c, 0, 62, 54
1, 70992, Note_on_c, 0, 67, 42
1, 71032, Note_on_c, 0, 57, 0
1, 71064, Note_on_c, 0, 41, 0
1, 71108, Note_on_c, 0, 67, 0
1, 71108, Note_on_c, 0, 71, 0
1, 71120, Note_on_c, 0, 62, 0
1, 71356, Control_c, 0, 64, 0
1, 71376, Note_on_c, 0, 40, 63
1, 71396, Note_on_c, 0, 69, 51
1, 71400, Note_on_c, 0, 66, 41
1, 71400, Note_on_c, 0, 62, 41
1, 71408, Note_on_c, 0, 40, 0
1, 71436, Control_c, 0, 64, 127
1, 71540, Note_on_c, 0, 62, 0
1, 71648, Note_on_c, 0, 66, 0
1, 71656, Note_on_c, 0, 69, 0
1, 71780, Note_on_c, 0, 58, 45
1, 71796, Note_on_c, 0, 52, 35
1, 71796, Control_c, 0, 64, 0
1, 71820, Note_on_c, 0, 52, 0
1, 71820, Note_on_c, 0, 60, 57
1, 71836, Note_on_c, 0, 58, 0
1, 71852, Note_on_c, 0, 60, 0
1, 71864, Note_on_c, 0, 61, 50
1, 71924, Note_on_c, 0, 63, 46
1, 71928, Note_on_c, 0, 61, 0
1, 71944, Note_on_c, 0, 63, 0
1, 71960, Note_on_c, 0, 64, 54
1, 71988, Note_on_c, 0, 64, 0
1, 72012, Note_on_c, 0, 66, 55
1, 72032, Note_on_c, 0, 66, 0
1, 72080, Note_on_c, 0, 67, 39
1, 72104, Note_on_c, 0, 68, 38
1, 72112, Note_on_c, 0, 67, 0
1, 72124, Note_on_c, 0, 69, 57
1, 72128, Note_on_c, 0, 68, 0
1, 72148, Note_on_c, 0, 69, 0
1, 72156, Note_on_c, 0, 70, 66
1, 72160, Note_on_c, 0, 64, 40
1, 72160, Note_on_c, 0, 61, 46
1, 72176, Note_on_c, 0, 70, 0
1, 72188, Note_on_c, 0, 64, 0
1, 72220, Note_on_c, 0, 61, 0
1, 72224, Note_on_c, 0, 72, 60
1, 72252, Note_on_c, 0, 72, 0
1, 72312, Note_on_c, 0, 75, 55
1, 72332, Note_on_c, 0, 75, 0
1, 72360, Note_on_c, 0, 76, 64
1, 72392, Note_on_c, 0, 76, 0
1, 72420, Note_on_c, 0, 78, 51
1, 72440, Note_on_c, 0, 78, 0
1, 72480, Note_on_c, 0, 79, 37
1, 72544, Note_on_c, 0, 55, 48
1, 72564, Note_on_c, 0, 45, 32
1, 72564, Note_on_c, 0, 52, 37
1, 72600, Note_on_c, 0, 79, 0
1, 72740, Note_on_c, 0, 81, 63
1, 72748, Note_on_c, 0, 45, 0
1, 72764, Note_on_c, 0, 52, 0
1, 72768, Note_on_c, 0, 81, 0
1, 72792, Note_on_c, 0, 55, 0
1, 72812, Note_on_c, 0, 82, 52
1, 72868, Note_on_c, 0, 82, 0
1, 72876, Note_on_c, 0, 83, 63
1, 72936, Note_on_c, 0, 83, 0
1, 72940, Note_on_c, 0, 86, 102
1, 73008, Note_on_c, 0, 60, 41
1, 73008, Note_on_c, 0, 84, 78
1, 73012, Note_on_c, 0, 50, 44
1, 73020, Note_on_c, 0, 57, 42
1, 73064, Note_on_c, 0, 86, 0
1, 73124, Note_on_c, 0, 84, 0
1, 73144, Note_on_c, 0, 57, 0
1, 73144, Note_on_c, 0, 81, 72
1, 73148, Note_on_c, 0, 60, 0
1, 73204, Note_on_c, 0, 81, 0
1, 73240, Note_on_c, 0, 77, 46
1, 73256, Control_c, 0, 64, 127
1, 73308, Note_on_c, 0, 77, 0
1, 73360, Note_on_c, 0, 50, 0
1, 73396, Control_c, 0, 64, 0
1, 73428, Note_on_c, 0, 79, 81
1, 73432, Note_on_c, 0, 69, 72
1, 73436, Note_on_c, 0, 73, 75
1, 73452, Note_on_c, 0, 62, 43
1, 73456, Note_on_c, 0, 64, 41
1, 73496, Note_on_c, 0, 64, 0
1, 73512, Note_on_c, 0, 79, 0
1, 73516, Note_on_c, 0, 73, 0
1, 73524, Note_on_c, 0, 69, 0
1, 73544, Note_on_c, 0, 62, 0
1, 73620, Note_on_c, 0, 78, 79
1, 73632, Note_on_c, 0, 63, 52
1, 73636, Note_on_c, 0, 69, 68
1, 73636, Note_on_c, 0, 72, 65
1, 73740, Note_on_c, 0, 72, 0
1, 73752, Note_on_c, 0, 69, 0
1, 73752, Note_on_c, 0, 78, 0
1, 73804, Note_on_c, 0, 63, 0
1, 73832, Note_on_c, 0, 77, 63
1, 73832, Note_on_c, 0, 62, 54
1, 73836, Control_c, 0, 64, 127
1, 73840, Note_on_c, 0, 72, 54
1, 73840, Note_on_c, 0, 69, 54
1, 73900, Note_on_c, 0, 72, 0
1, 73900, Note_on_c, 0, 77, 0
1, 73928, Note_on_c, 0, 69, 0
1, 74024, Note_on_c, 0, 62, 0
1, 74040, Note_on_c, 0, 76, 73
1, 74048, Note_on_c, 0, 61, 55
1, 74048, Note_on_c, 0, 69, 60
1, 74048, Note_on_c, 0, 65, 51
1, 74148, Control_c, 0, 64, 0
1, 74172, Note_on_c, 0, 65, 0
1, 74180, Note_on_c, 0, 69, 0
1, 74184, Note_on_c, 0, 76, 0
1, 74216, Note_on_c, 0, 61, 0
1, 74228, Control_c, 0, 64, 127
1, 74240, Note_on_c, 0, 65, 56
1, 74244, Note_on_c, 0, 74, 66
1, 74248, Note_on_c, 0, 60, 54
1, 74292, Note_on_c, 0, 74, 0
1, 74308, Note_on_c, 0, 65, 0
1, 74412, Note_on_c, 0, 60, 0
1, 74456, Note_on_c, 0, 72, 58
1, 74456, Note_on_c, 0, 57, 54
1, 74472, Note_on_c, 0, 62, 48
1, 74480, Note_on_c, 0, 57, 0
1, 74480, Note_on_c, 0, 65, 36
1, 74512, Note_on_c, 0, 65, 0
1, 74516, Note_on_c, 0, 72, 0
1, 74540, Note_on_c, 0, 62, 0
1, 74632, Control_c, 0, 64, 24
1, 74632, Control_c, 0, 64, 0
1, 74672, Note_on_c, 0, 56, 43
1, 74676, Note_on_c, 0, 63, 54
1, 74676, Note_on_c, 0, 60, 56
1, 74676, Note_on_c, 0, 46, 44
1, 74676, Note_on_c, 0, 67, 57
1, 74724, Control_c, 0, 64, 127
1, 74884, Note_on_c, 0, 67, 0
1, 74892, Note_on_c, 0, 56, 0
1, 74900, Note_on_c, 0, 53, 54
1, 74928, Note_on_c, 0, 63, 0
1, 74936, Note_on_c, 0, 60, 0
1, 75100, Note_on_c, 0, 60, 72
1, 75104, Note_on_c, 0, 56, 60
1, 75108, Control_c, 0, 64, 0
1, 75252, Note_on_c, 0, 56, 0
1, 75256, Note_on_c, 0, 46, 0
1, 75304, Note_on_c, 0, 58, 68
1, 75308, Note_on_c, 0, 46, 60
1, 75312, Note_on_c, 0, 62, 72
1, 75332, Note_on_c, 0, 60, 0
1, 75472, Note_on_c, 0, 58, 0
1, 75484, Note_on_c, 0, 62, 0
1, 75488, Note_on_c, 0, 46, 0
1, 75508, Note_on_c, 0, 46, 39
1, 75516, Note_on_c, 0, 63, 66
1, 75520, Note_on_c, 0, 56, 55
1, 75524, Note_on_c, 0, 60, 72
1, 75652, Note_on_c, 0, 46, 0
1, 75688, Note_on_c, 0, 63, 0
1, 75692, Note_on_c, 0, 60, 0
1, 75708, Note_on_c, 0, 56, 0
1, 75716, Note_on_c, 0, 46, 54
1, 75732, Note_on_c, 0, 65, 73
1, 75740, Note_on_c, 0, 60, 65
1, 75744, Note_on_c, 0, 62, 66
1, 75828, Control_c, 0, 64, 127
1, 75852, Note_on_c, 0, 65, 0
1, 75872, Note_on_c, 0, 62, 0
1, 75896, Note_on_c, 0, 60, 0
1, 75952, Note_on_c, 0, 56, 51
1, 75980, Note_on_c, 0, 56, 0
1, 76020, Note_on_c, 0, 46, 0
1, 76120, Note_on_c, 0, 53, 0
1, 76152, Note_on_c, 0, 46, 52
1, 76152, Note_on_c, 0, 66, 60
1, 76164, Note_on_c, 0, 54, 46
1, 76164, Note_on_c, 0, 60, 61
1, 76172, Note_on_c, 0, 63, 42
1, 76176, Note_on_c, 0, 46, 0
1, 76208, Note_on_c, 0, 54, 0
1, 76228, Note_on_c, 0, 60, 0
1, 76264, Note_on_c, 0, 66, 0
1, 76268, Note_on_c, 0, 63, 0
1, 76336, Control_c, 0, 64, 0
1, 76368, Note_on_c, 0, 67, 75
1, 76372, Note_on_c, 0, 60, 75
1, 76380, Note_on_c, 0, 55, 66
1, 76380, Note_on_c, 0, 43, 56
1, 76380, Note_on_c, 0, 52, 63
1, 76400, Note_on_c, 0, 63, 31
1, 76444, Note_on_c, 0, 63, 0
1, 76452, Control_c, 0, 64, 127
1, 76628, Note_on_c, 0, 67, 0
1, 76652, Note_on_c, 0, 55, 0
1, 76660, Note_on_c, 0, 60, 0
1, 76788, Note_on_c, 0, 52, 0
1, 76816, Note_on_c, 0, 64, 83
1, 76824, Note_on_c, 0, 55, 73
1, 76828, Note_on_c, 0, 60, 62
1, 76888, Note_on_c, 0, 55, 0
1, 76896, Note_on_c, 0, 60, 0
1, 76896, Note_on_c, 0, 43, 0
1, 76904, Note_on_c, 0, 64, 0
1, 76948, Note_on_c, 0, 55, 52
1, 76952, Note_on_c, 0, 64, 51
1, 76960, Note_on_c, 0, 60, 59
1, 76980, Note_on_c, 0, 60, 0
1, 76996, Note_on_c, 0, 55, 0
1, 77004, Note_on_c, 0, 64, 0
1, 77048, Note_on_c, 0, 55, 47
1, 77056, Note_on_c, 0, 64, 43
1, 77072, Note_on_c, 0, 60, 31
1, 77092, Note_on_c, 0, 55, 0
1, 77100, Note_on_c, 0, 60, 0
1, 77156, Note_on_c, 0, 55, 39
1, 77180, Note_on_c, 0, 55, 0
1, 77180, Note_on_c, 0, 60, 25
1, 77184, Note_on_c, 0, 41, 41
1, 77204, Note_on_c, 0, 60, 0
1, 77216, Note_on_c, 0, 41, 0
1, 77224, Control_c, 0, 64, 0
1, 77236, Note_on_c, 0, 64, 0
1, 77256, Note_on_c, 0, 65, 65
1, 77260, Note_on_c, 0, 56, 56
1, 77260, Note_on_c, 0, 60, 56
1, 77264, Note_on_c, 0, 34, 57
1, 77264, Note_on_c, 0, 46, 52
1, 77304, Control_c, 0, 64, 127
1, 77400, Note_on_c, 0, 65, 0
1, 77428, Note_on_c, 0, 60, 0
1, 77440, Note_on_c, 0, 56, 0
1, 77476, Note_on_c, 0, 46, 0
1, 77488, Note_on_c, 0, 34, 0
1, 77652, Control_c, 0, 64, 0
1, 77680, Note_on_c, 0, 67, 47
1, 77684, Note_on_c, 0, 58, 57
1, 77696, Note_on_c, 0, 33, 51
1, 77696, Note_on_c, 0, 61, 48
1, 77700, Note_on_c, 0, 45, 39
1, 77700, Note_on_c, 0, 55, 50
1, 77732, Note_on_c, 0, 33, 0
1, 77756, Control_c, 0, 64, 127
1, 77840, Note_on_c, 0, 45, 0
1, 77844, Note_on_c, 0, 55, 0
1, 77868, Note_on_c, 0, 58, 0
1, 77872, Note_on_c, 0, 61, 0
1, 77880, Note_on_c, 0, 67, 0
1, 78064, Control_c, 0, 64, 0
1, 78104, Note_on_c, 0, 59, 56
1, 78104, Note_on_c, 0, 68, 55
1, 78108, Note_on_c, 0, 64, 52
1, 78120, Note_on_c, 0, 26, 35
1, 78136, Note_on_c, 0, 38, 14
1, 78152, Control_c, 0, 64, 127
1, 78156, Note_on_c, 0, 26, 0
1, 78240, Note_on_c, 0, 38, 0
1, 78268, Note_on_c, 0, 64, 0
1, 78268, Note_on_c, 0, 59, 0
1, 78324, Note_on_c, 0, 68, 0
1, 78520, Control_c, 0, 64, 0
1, 78536, Note_on_c, 0, 69, 60
1, 78540, Note_on_c, 0, 54, 47
1, 78544, Note_on_c, 0, 64, 46
1, 78544, Note_on_c, 0, 44, 46
1, 78544, Note_on_c, 0, 60, 40
1, 78600, Control_c, 0, 64, 127
1, 78648, Note_on_c, 0, 54, 0
1, 78656, Note_on_c, 0, 69, 0
1, 78656, Note_on_c, 0, 64, 0
1, 78684, Note_on_c, 0, 60, 0
1, 78700, Note_on_c, 0, 44, 0
1, 78912, Control_c, 0, 64, 0
1, 78952, Note_on_c, 0, 43, 38
1, 78952, Note_on_c, 0, 60, 52
1, 78952, Note_on_c, 0, 53, 41
1, 78964, Note_on_c, 0, 50, 36
1, 78972, Note_on_c, 0, 57, 32
1, 78996, Control_c, 0, 64, 127
1, 79100, Note_on_c, 0, 57, 0
1, 79100, Note_on_c, 0, 53, 0
1, 79168, Note_on_c, 0, 60, 0
1, 79176, Note_on_c, 0, 50, 0
1, 79356, Control_c, 0, 64, 0
1, 79372, Note_on_c, 0, 53, 39
1, 79376, Note_on_c, 0, 56, 46
1, 79384, Note_on_c, 0, 62, 48
1, 79388, Note_on_c, 0, 59, 50
1, 79396, Note_on_c, 0, 53, 0
1, 79440, Control_c, 0, 64, 127
1, 79456, Note_on_c, 0, 43, 0
1, 79584, Note_on_c, 0, 56, 0
1, 79588, Note_on_c, 0, 59, 0
1, 79612, Note_on_c, 0, 62, 0
1, 79772, Control_c, 0, 64, 0
1, 79816, Note_on_c, 0, 36, 53
1, 79836, Note_on_c, 0, 52, 51
1, 79848, Control_c, 0, 64, 127
1, 79876, Note_on_c, 0, 36, 0
1, 79932, Note_on_c, 0, 52, 0
1, 80140, Note_on_c, 0, 74, 117
1, 80256, Note_on_c, 0, 74, 0
1, 80264, Note_on_c, 0, 62, 50
1, 80288, Note_on_c, 0, 62, 0
1, 80304, Note_on_c, 0, 71, 65
1, 80304, Note_on_c, 0, 55, 31
1, 80340, Note_on_c, 0, 55, 0
1, 80384, Note_on_c, 0, 71, 0
1, 80432, Note_on_c, 0, 72, 64
1, 80512, Note_on_c, 0, 72, 0
1, 80576, Note_on_c, 0, 76, 82
1, 80660, Note_on_c, 0, 76, 0
1, 80692, Note_on_c, 0, 41, 54
1, 80704, Control_c, 0, 64, 72
1, 80708, Control_c, 0, 64, 0
1, 80712, Note_on_c, 0, 79, 89
1, 80720, Note_on_c, 0, 57, 45
1, 80768, Control_c, 0, 64, 127
1, 80784, Note_on_c, 0, 79, 0
1, 80816, Note_on_c, 0, 41, 0
1, 80856, Note_on_c, 0, 86, 122
1, 80872, Note_on_c, 0, 57, 0
1, 81140, Note_on_c, 0, 84, 85
1, 81144, Note_on_c, 0, 64, 68
1, 81148, Note_on_c, 0, 53, 60
1, 81160, Note_on_c, 0, 60, 46
1, 81164, Note_on_c, 0, 57, 52
1, 81172, Note_on_c, 0, 56, 37
1, 81184, Note_on_c, 0, 86, 0
1, 81212, Control_c, 0, 64, 0
1, 81272, Control_c, 0, 64, 127
1, 81328, Note_on_c, 0, 60, 0
1, 81332, Note_on_c, 0, 56, 0
1, 81336, Note_on_c, 0, 57, 0
1, 81340, Note_on_c, 0, 64, 0
1, 81348, Note_on_c, 0, 53, 0
1, 81388, Note_on_c, 0, 84, 0
1, 81404, Note_on_c, 0, 62, 70
1, 81412, Note_on_c, 0, 79, 107
1, 81416, Note_on_c, 0, 52, 62
1, 81416, Note_on_c, 0, 59, 57
1, 81424, Note_on_c, 0, 55, 62
1, 81440, Control_c, 0, 64, 0
1, 81552, Control_c, 0, 64, 127
1, 81724, Note_on_c, 0, 79, 0
1, 81888, Note_on_c, 0, 76, 85
1, 81924, Note_on_c, 0, 62, 0
1, 81996, Note_on_c, 0, 76, 0
1, 82004, Note_on_c, 0, 59, 0
1, 82028, Note_on_c, 0, 55, 0
1, 82036, Note_on_c, 0, 71, 50
1, 82060, Note_on_c, 0, 52, 0
1, 82100, Note_on_c, 0, 71, 0
1, 82180, Note_on_c, 0, 71, 46
1, 82224, Note_on_c, 0, 71, 0
1, 82316, Note_on_c, 0, 74, 66
1, 82416, Control_c, 0, 64, 0
1, 82424, Note_on_c, 0, 74, 0
1, 82452, Note_on_c, 0, 45, 45
1, 82460, Note_on_c, 0, 55, 39
1, 82460, Note_on_c, 0, 52, 42
1, 82484, Control_c, 0, 64, 127
1, 82524, Note_on_c, 0, 72, 50
1, 82564, Note_on_c, 0, 45, 0
1, 82572, Note_on_c, 0, 72, 0
1, 82572, Note_on_c, 0, 52, 0
1, 82588, Note_on_c, 0, 55, 0
1, 82640, Note_on_c, 0, 72, 53
1, 82716, Note_on_c, 0, 72, 0
1, 82764, Note_on_c, 0, 68, 62
1, 82836, Note_on_c, 0, 68, 0
1, 82872, Note_on_c, 0, 64, 47
1, 82884, Note_on_c, 0, 60, 39
1, 82896, Note_on_c, 0, 59, 39
1, 82900, Note_on_c, 0, 71, 61
1, 82912, Control_c, 0, 64, 0
1, 82956, Note_on_c, 0, 71, 0
1, 83008, Note_on_c, 0, 64, 0
1, 83012, Control_c, 0, 64, 127
1, 83032, Note_on_c, 0, 59, 0
1, 83032, Note_on_c, 0, 60, 0
1, 83040, Note_on_c, 0, 71, 58
1, 83144, Note_on_c, 0, 71, 0
1, 83180, Note_on_c, 0, 69, 57
1, 83256, Note_on_c, 0, 69, 0
1, 83288, Note_on_c, 0, 60, 43
1, 83300, Control_c, 0, 64, 24
1, 83300, Control_c, 0, 64, 0
1, 83300, Note_on_c, 0, 50, 41
1, 83324, Note_on_c, 0, 68, 56
1, 83420, Note_on_c, 0, 68, 0
1, 83472, Note_on_c, 0, 68, 51
1, 83544, Control_c, 0, 64, 127
1, 83552, Note_on_c, 0, 60, 0
1, 83556, Note_on_c, 0, 68, 0
1, 83596, Note_on_c, 0, 69, 60
1, 83688, Note_on_c, 0, 69, 0
1, 83724, Control_c, 0, 64, 0
1, 83728, Note_on_c, 0, 60, 42
1, 83748, Note_on_c, 0, 64, 45
1, 83772, Note_on_c, 0, 60, 0
1, 83816, Note_on_c, 0, 64, 0
1, 83816, Control_c, 0, 64, 127
1, 83876, Note_on_c, 0, 64, 38
1, 83900, Note_on_c, 0, 50, 0
1, 83908, Note_on_c, 0, 64, 0
1, 83992, Note_on_c, 0, 57, 41
1, 84072, Note_on_c, 0, 57, 0
1, 84140, Note_on_c, 0, 57, 56
1, 84140, Note_on_c, 0, 64, 65
1, 84144, Note_on_c, 0, 54, 57
1, 84152, Note_on_c, 0, 52, 56
1, 84152, Control_c, 0, 64, 0
1, 84164, Note_on_c, 0, 60, 45
1, 84292, Control_c, 0, 64, 127
1, 84336, Control_c, 0, 64, 72
1, 84340, Control_c, 0, 64, 0
1, 84392, Note_on_c, 0, 52, 0
1, 84408, Control_c, 0, 64, 127
1, 84416, Note_on_c, 0, 51, 58
1, 84424, Note_on_c, 0, 60, 0
1, 84428, Note_on_c, 0, 57, 0
1, 84436, Note_on_c, 0, 54, 0
1, 84484, Note_on_c, 0, 64, 0
1, 84556, Control_c, 0, 64, 0
1, 84564, Note_on_c, 0, 51, 0
1, 84576, Note_on_c, 0, 54, 57
1, 84588, Note_on_c, 0, 57, 50
1, 84592, Note_on_c, 0, 50, 52
1, 84592, Note_on_c, 0, 62, 49
1, 84600, Note_on_c, 0, 60, 45
1, 84628, Note_on_c, 0, 60, 0
1, 84632, Control_c, 0, 64, 127
1, 84764, Note_on_c, 0, 50, 0
1, 84796, Note_on_c, 0, 57, 0
1, 84812, Note_on_c, 0, 54, 0
1, 84844, Note_on_c, 0, 62, 0
1, 84856, Note_on_c, 0, 45, 45
1, 84948, Control_c, 0, 64, 0
1, 84960, Note_on_c, 0, 45, 0
1, 85012, Note_on_c, 0, 64, 51
1, 85012, Note_on_c, 0, 53, 57
1, 85016, Note_on_c, 0, 38, 41
1, 85016, Note_on_c, 0, 57, 52
1, 85020, Note_on_c, 0, 60, 49
1, 85020, Control_c, 0, 64, 127
1, 85044, Note_on_c, 0, 38, 0
1, 85060, Note_on_c, 0, 53, 0
1, 85060, Note_on_c, 0, 52, 17
1, 85084, Note_on_c, 0, 57, 0
1, 85088, Note_on_c, 0, 60, 0
1, 85108, Note_on_c, 0, 52, 0
1, 85120, Note_on_c, 0, 64, 0
1, 85432, Control_c, 0, 64, 0
1, 85444, Note_on_c, 0, 67, 56
1, 85444, Note_on_c, 0, 60, 56
1, 85448, Note_on_c, 0, 64, 56
1, 85448, Note_on_c, 0, 57, 42
1, 85460, Note_on_c, 0, 53, 43
1, 85460, Note_on_c, 0, 55, 40
1, 85460, Control_c, 0, 64, 127
1, 85688, Note_on_c, 0, 55, 0
1, 85688, Note_on_c, 0, 53, 0
1, 85704, Note_on_c, 0, 60, 0
1, 85708, Note_on_c, 0, 57, 0
1, 85728, Note_on_c, 0, 64, 0
1, 85736, Note_on_c, 0, 67, 0
1, 85856, Control_c, 0, 64, 0
1, 85880, Note_on_c, 0, 57, 43
1, 85884, Note_on_c, 0, 64, 48
1, 85888, Note_on_c, 0, 60, 50
1, 85888, Note_on_c, 0, 67, 45
1, 85896, Note_on_c, 0, 55, 42
1, 85900, Note_on_c, 0, 53, 41
1, 85948, Control_c, 0, 64, 127
1, 86060, Note_on_c, 0, 57, 0
1, 86064, Note_on_c, 0, 60, 0
1, 86072, Note_on_c, 0, 55, 0
1, 86088, Note_on_c, 0, 53, 0
1, 86132, Note_on_c, 0, 64, 0
1, 86160, Note_on_c, 0, 67, 0
1, 86284, Control_c, 0, 64, 0
1, 86320, Note_on_c, 0, 67, 56
1, 86320, Note_on_c, 0, 64, 51
1, 86324, Note_on_c, 0, 59, 56
1, 86324, Note_on_c, 0, 55, 41
1, 86324, Note_on_c, 0, 57, 48
1, 86328, Note_on_c, 0, 53, 40
1, 86360, Control_c, 0, 64, 127
1, 86444, Note_on_c, 0, 57, 0
1, 86464, Note_on_c, 0, 55, 0
1, 86496, Note_on_c, 0, 53, 0
1, 86516, Note_on_c, 0, 59, 0
1, 86536, Note_on_c, 0, 67, 0
1, 86632, Note_on_c, 0, 64, 0
1, 86732, Control_c, 0, 64, 0
1, 86736, Note_on_c, 0, 51, 37
1, 86744, Note_on_c, 0, 52, 55
1, 86744, Note_on_c, 0, 67, 55
1, 86748, Note_on_c, 0, 62, 60
1, 86752, Note_on_c, 0, 57, 48
1, 86768, Note_on_c, 0, 51, 0
1, 86892, Note_on_c, 0, 67, 0
1, 86928, Note_on_c, 0, 57, 0
1, 86952, Note_on_c, 0, 62, 0
1, 86996, Note_on_c, 0, 52, 0
1, 87012, Note_on_c, 0, 51, 51
1, 87012, Note_on_c, 0, 66, 53
1, 87020, Note_on_c, 0, 56, 50
1, 87028, Note_on_c, 0, 61, 50
1, 87084, Note_on_c, 0, 56, 0
1, 87088, Note_on_c, 0, 66, 0
1, 87108, Note_on_c, 0, 61, 0
1, 87132, Note_on_c, 0, 51, 0
1, 87148, Note_on_c, 0, 52, 58
1, 87160, Note_on_c, 0, 67, 57
1, 87164, Control_c, 0, 64, 127
1, 87164, Note_on_c, 0, 57, 45
1, 87168, Note_on_c, 0, 62, 54
1, 87184, Note_on_c, 0, 52, 0
1, 87188, Note_on_c, 0, 57, 0
1, 87220, Note_on_c, 0, 62, 0
1, 87224, Note_on_c, 0, 67, 0
1, 87420, Note_on_c, 0, 74, 75
1, 87480, Note_on_c, 0, 74, 0
1, 87480, Control_c, 0, 64, 0
1, 87560, Note_on_c, 0, 41, 48
1, 87568, Note_on_c, 0, 71, 57
1, 87576, Note_on_c, 0, 67, 46
1, 87576, Note_on_c, 0, 62, 38
1, 87584, Note_on_c, 0, 57, 30
1, 87592, Note_on_c, 0, 48, 26
1, 87604, Note_on_c, 0, 67, 0
1, 87608, Note_on_c, 0, 62, 0
1, 87624, Note_on_c, 0, 57, 0
1, 87632, Note_on_c, 0, 48, 0
1, 87640, Note_on_c, 0, 71, 0
1, 87644, Note_on_c, 0, 41, 0
1, 87748, Control_c, 0, 64, 127
1, 87808, Note_on_c, 0, 71, 57
1, 87808, Note_on_c, 0, 62, 48
1, 87824, Note_on_c, 0, 67, 39
1, 87824, Note_on_c, 0, 41, 29
1, 87828, Note_on_c, 0, 48, 37
1, 87828, Note_on_c, 0, 57, 22
1, 87860, Note_on_c, 0, 67, 0
1, 87860, Note_on_c, 0, 62, 0
1, 87872, Control_c, 0, 64, 0
1, 87892, Note_on_c, 0, 71, 0
1, 87920, Note_on_c, 0, 48, 0
1, 87940, Control_c, 0, 64, 127
1, 87968, Note_on_c, 0, 71, 52
1, 87972, Note_on_c, 0, 67, 49
1, 87976, Note_on_c, 0, 62, 37
1, 87992, Note_on_c, 0, 57, 0
1, 88008, Note_on_c, 0, 41, 0
1, 88044, Note_on_c, 0, 67, 0
1, 88052, Note_on_c, 0, 62, 0
1, 88160, Note_on_c, 0, 71, 0
1, 88212, Note_on_c, 0, 67, 57
1, 88284, Note_on_c, 0, 67, 0
1, 88320, Control_c, 0, 64, 0
1, 88356, Note_on_c, 0, 40, 39
1, 88364, Note_on_c, 0, 62, 39
1, 88372, Note_on_c, 0, 47, 36
1, 88384, Note_on_c, 0, 55, 22
1, 88444, Note_on_c, 0, 55, 0
1, 88448, Note_on_c, 0, 40, 0
1, 88464, Note_on_c, 0, 62, 0
1, 88468, Note_on_c, 0, 47, 0
1, 88588, Note_on_c, 0, 62, 57
1, 88596, Note_on_c, 0, 40, 47
1, 88612, Note_on_c, 0, 55, 26
1, 88616, Note_on_c, 0, 47, 42
1, 88680, Note_on_c, 0, 62, 0
1, 88684, Note_on_c, 0, 55, 0
1, 88716, Note_on_c, 0, 47, 0
1, 88724, Control_c, 0, 64, 127
1, 88760, Note_on_c, 0, 47, 22
1, 88760, Note_on_c, 0, 55, 36
1, 88760, Note_on_c, 0, 62, 61
1, 88768, Note_on_c, 0, 40, 0
1, 88828, Note_on_c, 0, 47, 0
1, 88840, Note_on_c, 0, 55, 0
1, 88840, Note_on_c, 0, 62, 0
1, 89004, Note_on_c, 0, 74, 120
1, 89080, Note_on_c, 0, 74, 0
1, 89160, Control_c, 0, 64, 0
1, 89176, Note_on_c, 0, 72, 72
1, 89184, Note_on_c, 0, 67, 66
1, 89188, Note_on_c, 0, 60, 56
1, 89428, Note_on_c, 0, 57, 72
1, 89456, Note_on_c, 0, 67, 0
1, 89564, Note_on_c, 0, 57, 0
1, 89592, Note_on_c, 0, 56, 56
1, 89648, Note_on_c, 0, 60, 0
1, 89652, Control_c, 0, 64, 127
1, 89696, Note_on_c, 0, 72, 0
1, 89732, Note_on_c, 0, 56, 0
1, 89824, Note_on_c, 0, 64, 57
1, 89836, Note_on_c, 0, 55, 56
1, 89836, Note_on_c, 0, 60, 40
1, 89876, Note_on_c, 0, 60, 0
1, 89900, Note_on_c, 0, 64, 0
1, 89952, Note_on_c, 0, 55, 0
1, 89980, Control_c, 0, 64, 0
1, 90000, Note_on_c, 0, 63, 60
1, 90012, Note_on_c, 0, 54, 55
1, 90016, Note_on_c, 0, 63, 0
1, 90016, Note_on_c, 0, 68, 49
1, 90016, Note_on_c, 0, 60, 46
1, 90116, Control_c, 0, 64, 127
1, 90216, Note_on_c, 0, 60, 0
1, 90244, Note_on_c, 0, 68, 0
1, 90260, Note_on_c, 0, 60, 66
1, 90264, Note_on_c, 0, 57, 60
1, 90264, Note_on_c, 0, 64, 54
1, 90268, Note_on_c, 0, 69, 60
1, 90292, Note_on_c, 0, 54, 0
1, 90316, Note_on_c, 0, 57, 0
1, 90632, Note_on_c, 0, 60, 0
1, 90636, Note_on_c, 0, 64, 0
1, 90644, Note_on_c, 0, 69, 0
1, 90664, Note_on_c, 0, 26, 81
1, 90668, Note_on_c, 0, 38, 74
1, 90680, Control_c, 0, 64, 0
1, 90872, Control_c, 0, 64, 127
1, 91228, Note_on_c, 0, 26, 0
1, 91260, Note_on_c, 0, 38, 0
1, 92040, Note_on_c, 0, 71, 73
1, 92044, Note_on_c, 0, 60, 74
1, 92044, Note_on_c, 0, 65, 73
1, 92048, Note_on_c, 0, 55, 62
1, 92060, Control_c, 0, 64, 0
1, 92132, Control_c, 0, 64, 127
1, 92272, Note_on_c, 0, 55, 0
1, 92280, Note_on_c, 0, 60, 0
1, 92300, Note_on_c, 0, 65, 0
1, 92408, Note_on_c, 0, 71, 0
1, 92444, Control_c, 0, 64, 0
1, 92464, Note_on_c, 0, 71, 23
1, 92472, Note_on_c, 0, 64, 55
1, 92472, Note_on_c, 0, 59, 50
1, 92476, Note_on_c, 0, 53, 42
1, 92480, Note_on_c, 0, 43, 48
1, 92516, Control_c, 0, 64, 127
1, 92644, Note_on_c, 0, 64, 0
1, 92680, Note_on_c, 0, 59, 0
1, 92688, Note_on_c, 0, 53, 0
1, 92712, Note_on_c, 0, 71, 0
1, 92732, Note_on_c, 0, 63, 52
1, 92748, Note_on_c, 0, 59, 27
1, 92800, Note_on_c, 0, 59, 0
1, 92848, Note_on_c, 0, 63, 0
1, 92872, Note_on_c, 0, 62, 63
1, 92884, Note_on_c, 0, 53, 43
1, 92892, Note_on_c, 0, 59, 26
1, 92896, Note_on_c, 0, 43, 0
1, 92928, Note_on_c, 0, 59, 0
1, 92932, Note_on_c, 0, 53, 0
1, 92952, Note_on_c, 0, 62, 0
1, 93276, Note_on_c, 0, 65, 38
1, 93276, Control_c, 0, 64, 0
1, 93280, Note_on_c, 0, 72, 43
1, 93280, Note_on_c, 0, 62, 31
1, 93284, Note_on_c, 0, 58, 32
1, 93284, Note_on_c, 0, 69, 49
1, 93296, Note_on_c, 0, 60, 40
1, 93324, Control_c, 0, 64, 127
1, 93424, Note_on_c, 0, 72, 0
1, 93512, Note_on_c, 0, 69, 0
1, 93520, Note_on_c, 0, 65, 0
1, 93524, Note_on_c, 0, 60, 0
1, 93528, Note_on_c, 0, 62, 0
1, 93552, Note_on_c, 0, 74, 66
1, 93556, Note_on_c, 0, 58, 0
1, 93608, Note_on_c, 0, 74, 0
1, 93696, Note_on_c, 0, 72, 49
1, 93708, Note_on_c, 0, 65, 43
1, 93708, Control_c, 0, 64, 0
1, 93708, Note_on_c, 0, 62, 38
1, 93712, Note_on_c, 0, 58, 35
1, 93720, Note_on_c, 0, 69, 52
1, 93728, Note_on_c, 0, 60, 44
1, 93760, Control_c, 0, 64, 127
1, 93808, Note_on_c, 0, 60, 0
1, 93816, Note_on_c, 0, 72, 0
1, 93852, Note_on_c, 0, 58, 0
1, 93852, Note_on_c, 0, 62, 0
1, 93880, Note_on_c, 0, 65, 0
1, 93900, Note_on_c, 0, 69, 0
1, 93988, Note_on_c, 0, 74, 39
1, 93988, Note_on_c, 0, 72, 39
1, 94008, Note_on_c, 0, 74, 0
1, 94016, Note_on_c, 0, 72, 0
1, 94096, Control_c, 0, 64, 0
1, 94116, Note_on_c, 0, 72, 50
1, 94120, Note_on_c, 0, 62, 46
1, 94128, Note_on_c, 0, 65, 45
1, 94128, Note_on_c, 0, 58, 38
1, 94152, Note_on_c, 0, 60, 33
1, 94156, Control_c, 0, 64, 127
1, 94188, Note_on_c, 0, 60, 0
1, 94268, Note_on_c, 0, 62, 0
1, 94268, Note_on_c, 0, 58, 0
1, 94332, Note_on_c, 0, 65, 0
1, 94520, Note_on_c, 0, 65, 40
1, 94528, Note_on_c, 0, 62, 34
1, 94532, Note_on_c, 0, 58, 39
1, 94588, Note_on_c, 0, 62, 0
1, 94612, Note_on_c, 0, 58, 0
1, 94668, Note_on_c, 0, 65, 0
1, 94816, Note_on_c, 0, 72, 0
1, 94940, Note_on_c, 0, 72, 48
1, 94940, Note_on_c, 0, 58, 43
1, 94940, Note_on_c, 0, 48, 41
1, 94944, Note_on_c, 0, 65, 42
1, 94944, Control_c, 0, 64, 0
1, 94948, Note_on_c, 0, 62, 34
1, 95032, Control_c, 0, 64, 127
1, 95152, Note_on_c, 0, 62, 0
1, 95160, Note_on_c, 0, 58, 0
1, 95168, Note_on_c, 0, 72, 0
1, 95204, Note_on_c, 0, 65, 0
1, 95344, Control_c, 0, 64, 0
1, 95356, Note_on_c, 0, 60, 79
1, 95364, Note_on_c, 0, 58, 47
1, 95416, Control_c, 0, 64, 127
1, 95460, Note_on_c, 0, 48, 0
1, 95500, Note_on_c, 0, 60, 0
1, 95580, Note_on_c, 0, 58, 0
1, 95628, Note_on_c, 0, 48, 48
1, 95648, Note_on_c, 0, 48, 0
1, 95768, Control_c, 0, 64, 0
1, 95780, Note_on_c, 0, 64, 79
1, 95780, Note_on_c, 0, 58, 48
1, 95816, Note_on_c, 0, 52, 36
1, 95840, Control_c, 0, 64, 127
1, 95956, Note_on_c, 0, 58, 0
1, 95984, Note_on_c, 0, 64, 0
1, 96036, Note_on_c, 0, 67, 76
1, 96060, Note_on_c, 0, 58, 40
1, 96064, Note_on_c, 0, 60, 35
1, 96080, Note_on_c, 0, 67, 0
1, 96092, Note_on_c, 0, 60, 0
1, 96152, Note_on_c, 0, 52, 0
1, 96156, Note_on_c, 0, 58, 0
1, 96180, Note_on_c, 0, 72, 83
1, 96304, Note_on_c, 0, 72, 0
1, 96532, Control_c, 0, 64, 0
1, 96568, Note_on_c, 0, 74, 66
1, 96572, Note_on_c, 0, 64, 52
1, 96576, Note_on_c, 0, 69, 57
1, 96576, Note_on_c, 0, 58, 45
1, 96616, Control_c, 0, 64, 127
1, 96776, Note_on_c, 0, 69, 0
1, 96800, Note_on_c, 0, 74, 0
1, 96832, Note_on_c, 0, 64, 0
1, 97368, Note_on_c, 0, 58, 0
1, 97368, Control_c, 0, 64, 72
1, 97368, Control_c, 0, 64, 0
1, 97384, Note_on_c, 0, 72, 43
1, 97388, Note_on_c, 0, 67, 41
1, 97392, Note_on_c, 0, 57, 38
1, 97396, Note_on_c, 0, 62, 27
1, 97444, Control_c, 0, 64, 127
1, 97484, Note_on_c, 0, 57, 0
1, 97652, Note_on_c, 0, 62, 0
1, 97784, Note_on_c, 0, 41, 58
1, 97804, Control_c, 0, 64, 0
1, 97812, Note_on_c, 0, 72, 0
1, 97832, Note_on_c, 0, 67, 0
1, 97852, Note_on_c, 0, 41, 0
1, 97852, Control_c, 0, 64, 127
1, 98172, Control_c, 0, 64, 40
1, 98172, Control_c, 0, 64, 0
1, 98208, Note_on_c, 0, 71, 57
1, 98212, Note_on_c, 0, 62, 55
1, 98220, Note_on_c, 0, 67, 45
1, 98220, Note_on_c, 0, 42, 38
1, 98296, Control_c, 0, 64, 127
1, 98416, Note_on_c, 0, 62, 0
1, 98480, Note_on_c, 0, 67, 0
1, 98548, Note_on_c, 0, 71, 0
1, 98612, Note_on_c, 0, 42, 0
1, 98760, Note_on_c, 0, 69, 75
1, 98776, Note_on_c, 0, 60, 49
1, 98832, Note_on_c, 0, 60, 0
1, 98836, Note_on_c, 0, 69, 0
1, 99236, Control_c, 0, 64, 0
1, 99248, Note_on_c, 0, 67, 60
1, 99256, Note_on_c, 0, 62, 58
1, 99256, Note_on_c, 0, 54, 35
1, 99256, Note_on_c, 0, 47, 41
1, 99260, Note_on_c, 0, 59, 46
1, 99328, Control_c, 0, 64, 127
1, 99356, Note_on_c, 0, 62, 0
1, 99368, Note_on_c, 0, 59, 0
1, 99372, Note_on_c, 0, 67, 0
1, 99404, Note_on_c, 0, 54, 0
1, 99416, Note_on_c, 0, 47, 0
1, 99520, Note_on_c, 0, 65, 61
1, 99536, Note_on_c, 0, 57, 36
1, 99536, Note_on_c, 0, 60, 51
1, 99600, Note_on_c, 0, 57, 0
1, 99644, Note_on_c, 0, 60, 0
1, 99932, Note_on_c, 0, 65, 0
1, 100044, Control_c, 0, 64, 0
1, 100064, Note_on_c, 0, 61, 51
1, 100072, Note_on_c, 0, 40, 39
1, 100072, Note_on_c, 0, 64, 56
1, 100072, Note_on_c, 0, 52, 33
1, 100148, Control_c, 0, 64, 127
1, 100248, Note_on_c, 0, 61, 0
1, 100432, Note_on_c, 0, 60, 67
1, 100480, Note_on_c, 0, 52, 0
1, 100484, Note_on_c, 0, 40, 0
1, 100632, Note_on_c, 0, 60, 0
1, 100632, Control_c, 0, 64, 0
1, 100652, Note_on_c, 0, 59, 68
1, 100660, Note_on_c, 0, 45, 43
1, 100728, Control_c, 0, 64, 127
1, 100812, Note_on_c, 0, 45, 0
1, 100932, Note_on_c, 0, 59, 0
1, 101056, Control_c, 0, 64, 0
1, 101064, Note_on_c, 0, 33, 43
1, 101072, Note_on_c, 0, 58, 52
1, 101080, Note_on_c, 0, 45, 25
1, 101080, Control_c, 0, 64, 127
1, 101096, Note_on_c, 0, 33, 0
1, 101168, Note_on_c, 0, 45, 0
1, 101340, Note_on_c, 0, 58, 0
1, 101400, Note_on_c, 0, 64, 0
1, 101464, Control_c, 0, 64, 0
1, 101484, Note_on_c, 0, 48, 43
1, 101492, Note_on_c, 0, 57, 50
1, 101496, Note_on_c, 0, 53, 45
1, 101504, Note_on_c, 0, 38, 34
1, 101536, Control_c, 0, 64, 127
1, 101784, Note_on_c, 0, 53, 0
1, 101816, Note_on_c, 0, 57, 0
1, 101892, Note_on_c, 0, 48, 0
1, 101928, Note_on_c, 0, 57, 42
1, 101932, Note_on_c, 0, 53, 30
1, 102048, Note_on_c, 0, 38, 0
1, 102128, Note_on_c, 0, 53, 0
1, 102140, Note_on_c, 0, 57, 0
1, 102212, Note_on_c, 0, 42, 33
1, 102312, Note_on_c, 0, 42, 0
1, 102320, Control_c, 0, 64, 0
1, 102352, Note_on_c, 0, 43, 42
1, 102356, Note_on_c, 0, 56, 44
1, 102412, Control_c, 0, 64, 127
1, 102500, Note_on_c, 0, 56, 0
1, 102592, Note_on_c, 0, 57, 66
1, 102672, Note_on_c, 0, 57, 0
1, 102692, Note_on_c, 0, 58, 66
1, 102696, Note_on_c, 0, 43, 0
1, 102744, Note_on_c, 0, 58, 0
1, 102764, Note_on_c, 0, 59, 61
1, 102816, Note_on_c, 0, 59, 0
1, 102832, Note_on_c, 0, 60, 52
1, 102880, Note_on_c, 0, 61, 60
1, 102884, Note_on_c, 0, 60, 0
1, 102920, Note_on_c, 0, 61, 0
1, 102936, Note_on_c, 0, 62, 66
1, 102980, Note_on_c, 0, 62, 0
1, 103004, Note_on_c, 0, 63, 48
1, 103028, Note_on_c, 0, 63, 0
1, 103048, Note_on_c, 0, 64, 61
1, 103100, Note_on_c, 0, 64, 0
1, 103104, Note_on_c, 0, 65, 40
1, 103148, Note_on_c, 0, 65, 0
1, 103148, Note_on_c, 0, 66, 65
1, 103200, Control_c, 0, 64, 0
1, 103224, Note_on_c, 0, 67, 78
1, 103236, Note_on_c, 0, 66, 0
1, 103236, Note_on_c, 0, 39, 56
1, 103304, Control_c, 0, 64, 127
1, 103432, Note_on_c, 0, 46, 57
1, 103444, Note_on_c, 0, 39, 0
1, 103488, Note_on_c, 0, 67, 0
1, 103612, Note_on_c, 0, 55, 75
1, 103820, Note_on_c, 0, 62, 74
1, 103892, Note_on_c, 0, 62, 0
1, 103988, Note_on_c, 0, 67, 107
1, 104016, Note_on_c, 0, 55, 0
1, 104088, Note_on_c, 0, 46, 0
1, 104100, Note_on_c, 0, 67, 0
1, 104188, Note_on_c, 0, 74, 122
1, 104304, Note_on_c, 0, 74, 0
1, 104376, Control_c, 0, 64, 0
1, 104384, Note_on_c, 0, 44, 60
1, 104388, Note_on_c, 0, 72, 83
1, 104400, Note_on_c, 0, 55, 55
1, 104468, Control_c, 0, 64, 127
1, 104564, Note_on_c, 0, 72, 0
1, 104584, Note_on_c, 0, 55, 0
1, 104600, Note_on_c, 0, 60, 57
1, 104628, Note_on_c, 0, 60, 0
1, 104672, Note_on_c, 0, 44, 0
1, 104788, Control_c, 0, 64, 0
1, 104804, Note_on_c, 0, 58, 41
1, 104812, Note_on_c, 0, 53, 41
1, 104812, Note_on_c, 0, 43, 40
1, 104816, Note_on_c, 0, 62, 43
1, 104892, Control_c, 0, 64, 127
1, 104992, Note_on_c, 0, 58, 0
1, 105024, Note_on_c, 0, 62, 0
1, 105028, Note_on_c, 0, 70, 66
1, 105088, Note_on_c, 0, 70, 0
1, 105140, Note_on_c, 0, 43, 0
1, 105172, Note_on_c, 0, 53, 0
1, 105224, Note_on_c, 0, 70, 56
1, 105248, Note_on_c, 0, 70, 0
1, 105328, Control_c, 0, 64, 0
1, 105332, Note_on_c, 0, 71, 55
1, 105356, Note_on_c, 0, 71, 0
1, 105428, Note_on_c, 0, 74, 81
1, 105532, Note_on_c, 0, 74, 0
1, 105620, Note_on_c, 0, 48, 46
1, 105628, Note_on_c, 0, 58, 33
1, 105640, Note_on_c, 0, 72, 47
1, 105656, Note_on_c, 0, 48, 0
1, 105708, Note_on_c, 0, 72, 0
1, 105712, Note_on_c, 0, 58, 0
1, 105736, Note_on_c, 0, 74, 68
1, 105776, Control_c, 0, 64, 127
1, 105796, Note_on_c, 0, 74, 0
1, 105832, Note_on_c, 0, 75, 65
1, 105884, Note_on_c, 0, 75, 0
1, 105932, Note_on_c, 0, 79, 80
1, 105980, Note_on_c, 0, 79, 0
1, 105992, Control_c, 0, 64, 72
1, 105992, Control_c, 0, 64, 0
1, 106016, Note_on_c, 0, 82, 76
1, 106020, Note_on_c, 0, 62, 46
1, 106028, Note_on_c, 0, 58, 37
1, 106028, Note_on_c, 0, 67, 29
1, 106028, Note_on_c, 0, 63, 40
1, 106084, Note_on_c, 0, 82, 0
1, 106124, Note_on_c, 0, 83, 87
1, 106164, Note_on_c, 0, 67, 0
1, 106180, Note_on_c, 0, 62, 0
1, 106180, Control_c, 0, 64, 127
1, 106184, Note_on_c, 0, 83, 0
1, 106212, Note_on_c, 0, 86, 117
1, 106220, Note_on_c, 0, 63, 0
1, 106236, Note_on_c, 0, 58, 0
1, 106304, Note_on_c, 0, 86, 0
1, 106332, Note_on_c, 0, 83, 79
1, 106400, Note_on_c, 0, 83, 0
1, 106412, Control_c, 0, 64, 0
1, 106424, Note_on_c, 0, 84, 78
1, 106428, Note_on_c, 0, 68, 54
1, 106452, Note_on_c, 0, 60, 38
1, 106452, Note_on_c, 0, 63, 38
1, 106480, Note_on_c, 0, 60, 0
1, 106484, Note_on_c, 0, 68, 0
1, 106488, Note_on_c, 0, 63, 0
1, 106520, Note_on_c, 0, 84, 0
1, 106556, Note_on_c, 0, 79, 49
1, 106592, Note_on_c, 0, 79, 0
1, 106604, Control_c, 0, 64, 127
1, 106652, Note_on_c, 0, 75, 60
1, 106696, Note_on_c, 0, 75, 0
1, 106804, Control_c, 0, 64, 0
1, 106824, Note_on_c, 0, 67, 39
1, 106836, Note_on_c, 0, 63, 45
1, 106836, Note_on_c, 0, 57, 40
1, 106844, Note_on_c, 0, 79, 86
1, 106912, Control_c, 0, 64, 127
1, 106952, Note_on_c, 0, 79, 0
1, 106976, Note_on_c, 0, 57, 0
1, 106980, Note_on_c, 0, 76, 48
1, 106988, Note_on_c, 0, 67, 0
1, 107012, Note_on_c, 0, 76, 0
1, 107016, Note_on_c, 0, 63, 0
1, 107068, Note_on_c, 0, 78, 85
1, 107176, Note_on_c, 0, 78, 0
1, 107204, Note_on_c, 0, 74, 60
1, 107216, Note_on_c, 0, 64, 36
1, 107216, Note_on_c, 0, 58, 48
1, 107216, Note_on_c, 0, 68, 45
1, 107224, Control_c, 0, 64, 0
1, 107300, Note_on_c, 0, 74, 0
1, 107336, Note_on_c, 0, 77, 70
1, 107352, Control_c, 0, 64, 127
1, 107392, Note_on_c, 0, 64, 0
1, 107416, Note_on_c, 0, 68, 0
1, 107432, Note_on_c, 0, 77, 0
1, 107460, Note_on_c, 0, 76, 63
1, 107476, Note_on_c, 0, 58, 0
1, 107548, Note_on_c, 0, 76, 0
1, 107572, Control_c, 0, 64, 0
1, 107592, Note_on_c, 0, 67, 37
1, 107600, Note_on_c, 0, 63, 42
1, 107600, Note_on_c, 0, 72, 53
1, 107604, Note_on_c, 0, 57, 35
1, 107684, Note_on_c, 0, 72, 0
1, 107700, Control_c, 0, 64, 127
1, 107716, Note_on_c, 0, 67, 0
1, 107724, Note_on_c, 0, 75, 68
1, 107760, Note_on_c, 0, 57, 0
1, 107832, Note_on_c, 0, 75, 0
1, 107840, Note_on_c, 0, 72, 64
1, 107852, Note_on_c, 0, 63, 0
1, 107928, Note_on_c, 0, 72, 0
1, 107976, Note_on_c, 0, 63, 45
1, 107976, Note_on_c, 0, 68, 54
1, 107980, Control_c, 0, 64, 0
1, 107992, Note_on_c, 0, 58, 34
1, 108008, Note_on_c, 0, 68, 0
1, 108020, Note_on_c, 0, 63, 0
1, 108028, Note_on_c, 0, 58, 0
1, 108044, Control_c, 0, 64, 127
1, 108104, Note_on_c, 0, 65, 49
1, 108144, Note_on_c, 0, 65, 0
1, 108220, Note_on_c, 0, 68, 60
1, 108300, Control_c, 0, 64, 0
1, 108340, Note_on_c, 0, 68, 0
1, 108356, Control_c, 0, 64, 127
1, 108364, Note_on_c, 0, 65, 48
1, 108368, Note_on_c, 0, 58, 43
1, 108416, Note_on_c, 0, 65, 0
1, 108496, Note_on_c, 0, 65, 52
1, 108536, Note_on_c, 0, 65, 0
1, 108596, Note_on_c, 0, 58, 0
1, 108616, Note_on_c, 0, 46, 58
1, 108624, Control_c, 0, 64, 0
1, 108676, Control_c, 0, 64, 127
1, 108900, Note_on_c, 0, 60, 35
1, 108928, Note_on_c, 0, 60, 0
1, 109008, Note_on_c, 0, 56, 66
1, 109084, Control_c, 0, 64, 0
1, 109156, Note_on_c, 0, 63, 61
1, 109164, Note_on_c, 0, 60, 49
1, 109184, Note_on_c, 0, 60, 0
1, 109196, Note_on_c, 0, 63, 0
1, 109260, Note_on_c, 0, 46, 0
1, 109284, Note_on_c, 0, 63, 54
1, 109288, Control_c, 0, 64, 127
1, 109300, Control_c, 0, 64, 0
1, 109308, Note_on_c, 0, 63, 0
1, 109388, Note_on_c, 0, 56, 0
1, 109392, Control_c, 0, 64, 127
1, 109392, Note_on_c, 0, 46, 55
1, 109512, Control_c, 0, 64, 0
1, 109532, Note_on_c, 0, 58, 56
1, 109544, Note_on_c, 0, 55, 40
1, 109548, Note_on_c, 0, 62, 40
1, 109580, Note_on_c, 0, 62, 0
1, 109580, Note_on_c, 0, 58, 0
1, 109656, Note_on_c, 0, 67, 42
1, 109660, Note_on_c, 0, 58, 52
1, 109668, Note_on_c, 0, 62, 36
1, 109668, Control_c, 0, 64, 127
1, 109684, Note_on_c, 0, 46, 0
1, 109688, Note_on_c, 0, 67, 0
1, 109692, Note_on_c, 0, 62, 0
1, 109696, Note_on_c, 0, 58, 0
1, 109716, Control_c, 0, 64, 0
1, 109740, Note_on_c, 0, 55, 0
1, 109780, Note_on_c, 0, 46, 52
1, 109904, Note_on_c, 0, 46, 0
1, 109924, Note_on_c, 0, 62, 51
1, 109924, Note_on_c, 0, 55, 46
1, 109924, Note_on_c, 0, 58, 48
1, 109956, Note_on_c, 0, 58, 0
1, 109956, Note_on_c, 0, 55, 0
1, 109984, Note_on_c, 0, 62, 0
1, 110048, Note_on_c, 0, 58, 44
1, 110052, Note_on_c, 0, 55, 39
1, 110052, Note_on_c, 0, 62, 39
1, 110076, Note_on_c, 0, 55, 0
1, 110080, Note_on_c, 0, 58, 0
1, 110084, Note_on_c, 0, 62, 0
1, 110152, Note_on_c, 0, 32, 56
1, 110164, Note_on_c, 0, 44, 42
1, 110216, Note_on_c, 0, 44, 0
1, 110244, Note_on_c, 0, 32, 0
1, 110292, Note_on_c, 0, 65, 51
1, 110300, Note_on_c, 0, 60, 59
1, 110300, Note_on_c, 0, 54, 41
1, 110328, Note_on_c, 0, 65, 0
1, 110332, Note_on_c, 0, 54, 0
1, 110332, Note_on_c, 0, 60, 0
1, 110420, Note_on_c, 0, 60, 46
1, 110448, Note_on_c, 0, 60, 0
1, 110528, Note_on_c, 0, 53, 52
1, 110552, Note_on_c, 0, 53, 0
1, 110668, Note_on_c, 0, 63, 52
1, 110668, Note_on_c, 0, 54, 52
1, 110676, Note_on_c, 0, 60, 52
1, 110684, Control_c, 0, 64, 127
1, 110696, Note_on_c, 0, 60, 0
1, 110700, Control_c, 0, 64, 0
1, 110708, Note_on_c, 0, 63, 0
1, 110712, Note_on_c, 0, 54, 0
1, 110772, Control_c, 0, 64, 127
1, 110776, Note_on_c, 0, 63, 54
1, 110788, Note_on_c, 0, 60, 49
1, 110792, Note_on_c, 0, 54, 37
1, 110812, Note_on_c, 0, 60, 0
1, 110820, Note_on_c, 0, 54, 0
1, 110848, Note_on_c, 0, 63, 0
1, 110896, Note_on_c, 0, 44, 48
1, 110900, Note_on_c, 0, 32, 48
1, 110924, Note_on_c, 0, 44, 0
1, 110956, Note_on_c, 0, 32, 0
1, 110964, Control_c, 0, 64, 0
1, 111024, Control_c, 0, 64, 127
1, 111040, Note_on_c, 0, 58, 58
1, 111044, Note_on_c, 0, 62, 58
1, 111044, Note_on_c, 0, 43, 54
1, 111048, Note_on_c, 0, 53, 57
1, 111096, Note_on_c, 0, 43, 0
1, 111120, Note_on_c, 0, 62, 0
1, 111168, Note_on_c, 0, 58, 0
1, 111196, Note_on_c, 0, 53, 0
1, 111296, Note_on_c, 0, 61, 68
1, 111304, Note_on_c, 0, 46, 57
1, 111304, Note_on_c, 0, 53, 72
1, 111316, Note_on_c, 0, 58, 52
1, 111344, Note_on_c, 0, 58, 0
1, 111380, Note_on_c, 0, 53, 0
1, 111396, Control_c, 0, 64, 0
1, 111416, Note_on_c, 0, 61, 0
1, 111440, Note_on_c, 0, 53, 41
1, 111448, Note_on_c, 0, 62, 49
1, 111448, Note_on_c, 0, 50, 43
1, 111460, Note_on_c, 0, 53, 0
1, 111468, Note_on_c, 0, 62, 0
1, 111480, Note_on_c, 0, 50, 0
1, 111492, Note_on_c, 0, 46, 0
1, 111560, Note_on_c, 0, 65, 77
1, 111560, Note_on_c, 0, 58, 68
1, 111564, Note_on_c, 0, 55, 68
1, 111572, Control_c, 0, 64, 127
1, 111592, Note_on_c, 0, 62, 33
1, 111604, Note_on_c, 0, 53, 51
1, 111616, Note_on_c, 0, 55, 0
1, 111624, Note_on_c, 0, 62, 0
1, 111640, Note_on_c, 0, 53, 0
1, 111640, Note_on_c, 0, 58, 0
1, 111644, Note_on_c, 0, 65, 0
1, 111692, Note_on_c, 0, 50, 61
1, 111732, Control_c, 0, 64, 0
1, 111776, Note_on_c, 0, 50, 0
1, 111812, Control_c, 0, 64, 127
1, 111816, Note_on_c, 0, 63, 67
1, 111824, Note_on_c, 0, 58, 62
1, 111828, Note_on_c, 0, 55, 60
1, 111832, Note_on_c, 0, 48, 49
1, 111980, Note_on_c, 0, 63, 0
1, 111992, Note_on_c, 0, 58, 0
1, 112004, Note_on_c, 0, 55, 0
1, 112016, Note_on_c, 0, 48, 0
1, 112068, Note_on_c, 0, 65, 75
1, 112076, Note_on_c, 0, 60, 71
1, 112080, Note_on_c, 0, 55, 63
1, 112080, Note_on_c, 0, 50, 66
1, 112128, Note_on_c, 0, 55, 0
1, 112136, Note_on_c, 0, 50, 0
1, 112148, Note_on_c, 0, 65, 0
1, 112160, Note_on_c, 0, 60, 0
1, 112196, Control_c, 0, 64, 0
1, 112224, Note_on_c, 0, 67, 70
1, 112228, Note_on_c, 0, 52, 65
1, 112232, Note_on_c, 0, 60, 50
1, 112236, Note_on_c, 0, 63, 45
1, 112268, Note_on_c, 0, 52, 0
1, 112284, Control_c, 0, 64, 127
1, 112380, Note_on_c, 0, 60, 0
1, 112400, Note_on_c, 0, 67, 0
1, 112412, Note_on_c, 0, 63, 0
1, 112460, Note_on_c, 0, 48, 48
1, 112572, Control_c, 0, 64, 0
1, 112576, Note_on_c, 0, 48, 0
1, 112612, Note_on_c, 0, 69, 56
1, 112620, Note_on_c, 0, 41, 50
1, 112620, Note_on_c, 0, 62, 54
1, 112620, Note_on_c, 0, 66, 45
1, 112628, Note_on_c, 0, 51, 34
1, 112640, Note_on_c, 0, 57, 31
1, 112672, Note_on_c, 0, 57, 0
1, 112680, Control_c, 0, 64, 127
1, 112688, Note_on_c, 0, 41, 0
1, 112708, Note_on_c, 0, 62, 0
1, 112732, Note_on_c, 0, 51, 0
1, 112740, Note_on_c, 0, 66, 0
1, 112748, Note_on_c, 0, 69, 0
1, 113012, Control_c, 0, 64, 0
1, 113024, Note_on_c, 0, 80, 84
1, 113024, Note_on_c, 0, 84, 88
1, 113024, Note_on_c, 0, 72, 84
1, 113036, Note_on_c, 0, 57, 59
1, 113040, Note_on_c, 0, 62, 61
1, 113040, Note_on_c, 0, 63, 54
1, 113044, Note_on_c, 0, 67, 66
1, 113092, Note_on_c, 0, 81, 49
1, 113108, Note_on_c, 0, 80, 0
1, 113112, Control_c, 0, 64, 127
1, 113228, Note_on_c, 0, 57, 0
1, 113252, Note_on_c, 0, 67, 0
1, 113260, Note_on_c, 0, 63, 0
1, 113264, Note_on_c, 0, 62, 0
1, 113300, Note_on_c, 0, 72, 0
1, 113336, Note_on_c, 0, 81, 0
1, 113356, Note_on_c, 0, 84, 0
1, 113404, Control_c, 0, 64, 0
1, 113444, Note_on_c, 0, 84, 71
1, 113448, Note_on_c, 0, 72, 61
1, 113448, Note_on_c, 0, 68, 56
1, 113452, Control_c, 0, 64, 127
1, 113452, Note_on_c, 0, 58, 54
1, 113460, Note_on_c, 0, 64, 43
1, 113468, Note_on_c, 0, 62, 42
1, 113476, Note_on_c, 0, 81, 45
1, 113548, Note_on_c, 0, 64, 0
1, 113576, Note_on_c, 0, 62, 0
1, 113580, Note_on_c, 0, 68, 0
1, 113580, Note_on_c, 0, 81, 0
1, 113632, Note_on_c, 0, 72, 0
1, 113656, Note_on_c, 0, 58, 0
1, 113676, Note_on_c, 0, 84, 0
1, 113720, Note_on_c, 0, 83, 68
1, 113852, Control_c, 0, 64, 0
1, 113852, Note_on_c, 0, 67, 49
1, 113856, Note_on_c, 0, 57, 48
1, 113860, Note_on_c, 0, 63, 46
1, 113872, Control_c, 0, 64, 127
1, 113888, Note_on_c, 0, 84, 61
1, 113916, Note_on_c, 0, 83, 0
1, 113924, Note_on_c, 0, 67, 0
1, 113944, Note_on_c, 0, 84, 0
1, 113992, Note_on_c, 0, 57, 0
1, 114032, Note_on_c, 0, 63, 0
1, 114128, Note_on_c, 0, 85, 72
1, 114144, Note_on_c, 0, 73, 68
1, 114228, Note_on_c, 0, 73, 0
1, 114240, Note_on_c, 0, 85, 0
1, 114240, Control_c, 0, 64, 0
1, 114268, Note_on_c, 0, 66, 66
1, 114276, Note_on_c, 0, 86, 75
1, 114280, Note_on_c, 0, 56, 52
1, 114284, Note_on_c, 0, 74, 52
1, 114288, Control_c, 0, 64, 127
1, 114288, Note_on_c, 0, 62, 44
1, 114292, Note_on_c, 0, 79, 56
1, 114324, Note_on_c, 0, 62, 0
1, 114324, Note_on_c, 0, 66, 0
1, 114364, Note_on_c, 0, 56, 0
1, 114372, Note_on_c, 0, 82, 1
1, 114412, Note_on_c, 0, 79, 0
1, 114412, Note_on_c, 0, 86, 0
1, 114424, Note_on_c, 0, 82, 0
1, 114452, Note_on_c, 0, 74, 0
1, 114672, Control_c, 0, 64, 0
1, 114672, Note_on_c, 0, 66, 62
1, 114672, Note_on_c, 0, 74, 66
1, 114680, Note_on_c, 0, 62, 51
1, 114684, Note_on_c, 0, 47, 54
1, 114688, Note_on_c, 0, 57, 49
1, 114732, Control_c, 0, 64, 127
1, 114884, Note_on_c, 0, 66, 0
1, 114896, Note_on_c, 0, 57, 0
1, 114896, Note_on_c, 0, 62, 0
1, 115060, Control_c, 0, 64, 0
1, 115088, Note_on_c, 0, 68, 57
1, 115088, Note_on_c, 0, 56, 53
1, 115092, Note_on_c, 0, 62, 50
1, 115184, Control_c, 0, 64, 127
1, 115360, Note_on_c, 0, 62, 0
1, 115400, Note_on_c, 0, 56, 0
1, 115492, Control_c, 0, 64, 0
1, 115492, Note_on_c, 0, 62, 57
1, 115504, Note_on_c, 0, 57, 41
1, 115524, Note_on_c, 0, 74, 0
1, 115536, Control_c, 0, 64, 127
1, 115620, Note_on_c, 0, 62, 0
1, 115644, Note_on_c, 0, 57, 0
1, 115660, Note_on_c, 0, 68, 0
1, 115700, Note_on_c, 0, 47, 0
1, 115732, Note_on_c, 0, 47, 23
1, 115752, Note_on_c, 0, 55, 39
1, 115796, Note_on_c, 0, 47, 0
1, 115816, Note_on_c, 0, 55, 0
1, 115896, Control_c, 0, 64, 0
1, 115916, Note_on_c, 0, 46, 48
1, 115924, Note_on_c, 0, 75, 52
1, 115928, Note_on_c, 0, 56, 40
1, 115928, Note_on_c, 0, 61, 42
1, 115944, Note_on_c, 0, 68, 39
1, 115980, Control_c, 0, 64, 127
1, 116016, Note_on_c, 0, 56, 0
1, 116024, Note_on_c, 0, 46, 0
1, 116100, Note_on_c, 0, 61, 0
1, 116144, Note_on_c, 0, 68, 0
1, 116164, Note_on_c, 0, 75, 0
1, 116328, Note_on_c, 0, 75, 55
1, 116336, Control_c, 0, 64, 0
1, 116340, Note_on_c, 0, 61, 40
1, 116340, Note_on_c, 0, 68, 49
1, 116344, Note_on_c, 0, 60, 42
1, 116448, Note_on_c, 0, 60, 0
1, 116604, Note_on_c, 0, 59, 57
1, 116636, Control_c, 0, 64, 127
1, 116644, Note_on_c, 0, 61, 0
1, 116652, Note_on_c, 0, 75, 0
1, 116656, Note_on_c, 0, 68, 0
1, 116716, Control_c, 0, 64, 0
1, 116748, Note_on_c, 0, 59, 0
1, 116780, Note_on_c, 0, 75, 46
1, 116780, Note_on_c, 0, 60, 47
1, 116784, Note_on_c, 0, 61, 39
1, 116796, Note_on_c, 0, 68, 43
1, 116832, Control_c, 0, 64, 127
1, 117000, Note_on_c, 0, 60, 0
1, 117036, Note_on_c, 0, 68, 0
1, 117036, Note_on_c, 0, 61, 0
1, 117036, Note_on_c, 0, 59, 48
1, 117060, Note_on_c, 0, 75, 0
1, 117136, Note_on_c, 0, 59, 0
1, 117148, Control_c, 0, 64, 0
1, 117184, Note_on_c, 0, 75, 46
1, 117188, Note_on_c, 0, 60, 49
1, 117188, Note_on_c, 0, 61, 42
1, 117204, Note_on_c, 0, 68, 43
1, 117332, Control_c, 0, 64, 127
1, 117404, Note_on_c, 0, 60, 0
1, 117432, Note_on_c, 0, 59, 53
1, 117460, Note_on_c, 0, 61, 0
1, 117504, Note_on_c, 0, 68, 0
1, 117504, Note_on_c, 0, 75, 0
1, 117528, Control_c, 0, 64, 0
1, 117552, Note_on_c, 0, 59, 0
1, 117592, Note_on_c, 0, 58, 56
1, 117592, Control_c, 0, 64, 127
1, 117592, Note_on_c, 0, 75, 48
1, 117604, Note_on_c, 0, 61, 37
1, 117612, Note_on_c, 0, 58, 0
1, 117612, Note_on_c, 0, 67, 39
1, 117624, Note_on_c, 0, 73, 27
1, 117672, Note_on_c, 0, 73, 0
1, 117828, Note_on_c, 0, 67, 0
1, 117832, Note_on_c, 0, 61, 0
1, 117832, Note_on_c, 0, 75, 0
1, 117836, Note_on_c, 0, 27, 60
1, 117880, Control_c, 0, 64, 0
1, 117900, Control_c, 0, 64, 127
1, 118424, Note_on_c, 0, 51, 57
1, 118440, Note_on_c, 0, 27, 0
1, 118508, Note_on_c, 0, 51, 0
1, 118676, Note_on_c, 0, 55, 68
1, 118772, Note_on_c, 0, 55, 0
1, 118844, Note_on_c, 0, 58, 66
1, 119008, Note_on_c, 0, 58, 0
1, 119080, Note_on_c, 0, 63, 55
1, 119416, Note_on_c, 0, 63, 0
1, 119672, Control_c, 0, 64, 0
1, 119676, Note_on_c, 0, 44, 47
1, 119680, Note_on_c, 0, 65, 62
1, 119692, Note_on_c, 0, 70, 45
1, 119692, Note_on_c, 0, 74, 49
1, 119704, Note_on_c, 0, 44, 0
1, 119712, Note_on_c, 0, 65, 0
1, 119720, Note_on_c, 0, 70, 0
1, 119720, Note_on_c, 0, 74, 0
1, 119932, Note_on_c, 0, 74, 57
1, 119936, Note_on_c, 0, 70, 56
1, 119940, Note_on_c, 0, 44, 48
1, 119940, Note_on_c, 0, 65, 55
1, 119940, Control_c, 0, 64, 127
1, 119944, Note_on_c, 0, 51, 39
1, 119988, Note_on_c, 0, 65, 0
1, 119988, Note_on_c, 0, 44, 0
1, 120000, Note_on_c, 0, 51, 0
1, 120000, Note_on_c, 0, 74, 0
1, 120008, Note_on_c, 0, 70, 0
1, 120032, Control_c, 0, 64, 0
1, 120100, Note_on_c, 0, 65, 52
1, 120100, Control_c, 0, 64, 127
1, 120100, Note_on_c, 0, 74, 55
1, 120104, Note_on_c, 0, 70, 51
1, 120112, Note_on_c, 0, 44, 43
1, 120116, Note_on_c, 0, 51, 39
1, 120160, Note_on_c, 0, 65, 0
1, 120184, Note_on_c, 0, 74, 0
1, 120252, Note_on_c, 0, 70, 0
1, 120364, Note_on_c, 0, 55, 43
1, 120368, Note_on_c, 0, 68, 51
1, 120368, Note_on_c, 0, 72, 46
1, 120372, Note_on_c, 0, 63, 45
1, 120404, Note_on_c, 0, 55, 0
1, 120420, Note_on_c, 0, 63, 0
1, 120444, Control_c, 0, 64, 88
1, 120444, Control_c, 0, 64, 0
1, 120452, Note_on_c, 0, 68, 0
1, 120452, Note_on_c, 0, 72, 0
1, 120516, Note_on_c, 0, 65, 49
1, 120516, Note_on_c, 0, 74, 58
1, 120524, Note_on_c, 0, 55, 50
1, 120524, Note_on_c, 0, 70, 56
1, 120536, Control_c, 0, 64, 127
1, 120624, Note_on_c, 0, 44, 0
1, 120724, Note_on_c, 0, 74, 0
1, 120736, Note_on_c, 0, 55, 0
1, 120748, Note_on_c, 0, 70, 0
1, 120752, Note_on_c, 0, 51, 0
1, 120752, Note_on_c, 0, 65, 0
1, 120940, Control_c, 0, 64, 0
1, 120952, Note_on_c, 0, 72, 63
1, 120952, Note_on_c, 0, 65, 66
1, 120964, Note_on_c, 0, 43, 56
1, 120968, Note_on_c, 0, 58, 36
1, 120968, Note_on_c, 0, 50, 46
1, 121076, Control_c, 0, 64, 127
1, 121084, Note_on_c, 0, 72, 0
1, 121100, Note_on_c, 0, 58, 0
1, 121104, Note_on_c, 0, 65, 0
1, 121188, Note_on_c, 0, 72, 61
1, 121196, Note_on_c, 0, 58, 48
1, 121204, Note_on_c, 0, 65, 54
1, 121208, Note_on_c, 0, 70, 32
1, 121272, Note_on_c, 0, 72, 0
1, 121276, Note_on_c, 0, 70, 0
1, 121280, Note_on_c, 0, 58, 0
1, 121292, Note_on_c, 0, 65, 0
1, 121296, Control_c, 0, 64, 0
1, 121348, Note_on_c, 0, 72, 61
1, 121356, Note_on_c, 0, 55, 53
1, 121360, Note_on_c, 0, 65, 47
1, 121364, Note_on_c, 0, 58, 41
1, 121372, Control_c, 0, 64, 127
1, 121396, Note_on_c, 0, 43, 0
1, 121424, Note_on_c, 0, 58, 0
1, 121432, Note_on_c, 0, 50, 0
1, 121464, Note_on_c, 0, 55, 0
1, 121484, Note_on_c, 0, 72, 0
1, 121536, Note_on_c, 0, 65, 0
1, 121608, Note_on_c, 0, 70, 68
1, 121712, Note_on_c, 0, 70, 0
1, 121748, Control_c, 0, 64, 0
1, 121756, Note_on_c, 0, 48, 50
1, 121760, Note_on_c, 0, 58, 57
1, 121764, Note_on_c, 0, 72, 73
1, 121764, Note_on_c, 0, 68, 70
1, 121768, Note_on_c, 0, 64, 66
1, 121848, Control_c, 0, 64, 127
1, 121944, Note_on_c, 0, 72, 0
1, 121952, Note_on_c, 0, 58, 0
1, 121960, Note_on_c, 0, 64, 0
1, 121996, Note_on_c, 0, 68, 0
1, 122028, Note_on_c, 0, 48, 0
1, 122144, Control_c, 0, 64, 0
1, 122160, Note_on_c, 0, 70, 75
1, 122164, Note_on_c, 0, 58, 66
1, 122168, Note_on_c, 0, 63, 68
1, 122168, Note_on_c, 0, 67, 63
1, 122176, Note_on_c, 0, 60, 72
1, 122224, Control_c, 0, 64, 127
1, 122240, Note_on_c, 0, 58, 0
1, 122284, Note_on_c, 0, 70, 0
1, 122304, Note_on_c, 0, 60, 0
1, 122320, Note_on_c, 0, 67, 0
1, 122360, Note_on_c, 0, 63, 0
1, 122396, Note_on_c, 0, 70, 76
1, 122408, Note_on_c, 0, 63, 52
1, 122416, Note_on_c, 0, 60, 51
1, 122468, Note_on_c, 0, 60, 0
1, 122476, Note_on_c, 0, 70, 0
1, 122492, Control_c, 0, 64, 0
1, 122504, Note_on_c, 0, 63, 0
1, 122548, Note_on_c, 0, 70, 54
1, 122552, Note_on_c, 0, 41, 57
1, 122556, Note_on_c, 0, 63, 50
1, 122588, Control_c, 0, 64, 127
1, 122728, Note_on_c, 0, 63, 0
1, 122744, Note_on_c, 0, 70, 0
1, 122800, Note_on_c, 0, 48, 46
1, 122808, Note_on_c, 0, 68, 55
1, 122816, Note_on_c, 0, 63, 39
1, 122848, Note_on_c, 0, 63, 0
1, 122904, Note_on_c, 0, 68, 0
1, 122948, Note_on_c, 0, 41, 0
1, 122948, Control_c, 0, 64, 0
1, 122960, Note_on_c, 0, 48, 0
1, 122960, Note_on_c, 0, 63, 49
1, 122964, Note_on_c, 0, 70, 58
1, 122964, Note_on_c, 0, 60, 54
1, 122968, Note_on_c, 0, 67, 47
1, 122984, Note_on_c, 0, 55, 31
1, 123052, Control_c, 0, 64, 127
1, 123136, Note_on_c, 0, 60, 0
1, 123152, Note_on_c, 0, 67, 0
1, 123164, Note_on_c, 0, 70, 0
1, 123224, Note_on_c, 0, 68, 50
1, 123300, Note_on_c, 0, 63, 0
1, 123324, Note_on_c, 0, 68, 0
1, 123352, Control_c, 0, 64, 0
1, 123368, Note_on_c, 0, 55, 0
1, 123372, Note_on_c, 0, 70, 57
1, 123372, Note_on_c, 0, 56, 46
1, 123380, Note_on_c, 0, 60, 40
1, 123380, Note_on_c, 0, 63, 35
1, 123416, Note_on_c, 0, 67, 19
1, 123436, Control_c, 0, 64, 127
1, 123512, Note_on_c, 0, 60, 0
1, 123516, Note_on_c, 0, 67, 0
1, 123552, Note_on_c, 0, 63, 0
1, 123564, Note_on_c, 0, 70, 0
1, 123616, Note_on_c, 0, 68, 47
1, 123624, Note_on_c, 0, 63, 32
1, 123696, Note_on_c, 0, 63, 0
1, 123696, Note_on_c, 0, 68, 0
1, 123752, Note_on_c, 0, 58, 57
1, 123756, Note_on_c, 0, 56, 0
1, 123768, Note_on_c, 0, 70, 50
1, 123768, Note_on_c, 0, 63, 37
1, 123772, Note_on_c, 0, 60, 44
1, 123788, Note_on_c, 0, 58, 0
1, 123796, Note_on_c, 0, 67, 31
1, 123948, Note_on_c, 0, 67, 0
1, 123952, Note_on_c, 0, 60, 0
1, 124008, Note_on_c, 0, 63, 0
1, 124012, Note_on_c, 0, 70, 0
1, 124144, Control_c, 0, 64, 56
1, 124148, Control_c, 0, 64, 0
1, 124148, Note_on_c, 0, 56, 41
1, 124148, Note_on_c, 0, 68, 46
1, 124156, Note_on_c, 0, 59, 41
1, 124160, Note_on_c, 0, 63, 41
1, 124180, Note_on_c, 0, 49, 35
1, 124212, Note_on_c, 0, 56, 0
1, 124400, Note_on_c, 0, 53, 52
1, 124512, Note_on_c, 0, 53, 0
1, 124556, Note_on_c, 0, 55, 40
1, 124608, Note_on_c, 0, 49, 0
1, 124668, Note_on_c, 0, 55, 0
1, 124676, Note_on_c, 0, 56, 57
1, 124800, Control_c, 0, 64, 127
1, 124820, Note_on_c, 0, 63, 0
1, 124820, Note_on_c, 0, 59, 0
1, 124824, Control_c, 0, 64, 0
1, 124944, Note_on_c, 0, 63, 43
1, 124952, Note_on_c, 0, 59, 28
1, 125076, Note_on_c, 0, 58, 64
1, 125084, Note_on_c, 0, 56, 0
1, 125168, Control_c, 0, 64, 127
1, 125232, Note_on_c, 0, 59, 0
1, 125232, Note_on_c, 0, 63, 0
1, 125268, Control_c, 0, 64, 0
1, 125328, Control_c, 0, 64, 127
1, 125360, Note_on_c, 0, 63, 51
1, 125368, Note_on_c, 0, 59, 36
1, 125412, Note_on_c, 0, 58, 0
1, 125592, Note_on_c, 0, 56, 55
1, 125612, Note_on_c, 0, 56, 0
1, 125644, Note_on_c, 0, 59, 0
1, 125744, Note_on_c, 0, 68, 0
1, 125756, Note_on_c, 0, 63, 0
1, 125992, Control_c, 0, 64, 0
1, 125996, Note_on_c, 0, 67, 82
1, 126000, Note_on_c, 0, 63, 73
1, 126000, Note_on_c, 0, 58, 80
1, 126004, Note_on_c, 0, 46, 61
1, 126008, Note_on_c, 0, 55, 64
1, 126092, Control_c, 0, 64, 127
1, 126288, Note_on_c, 0, 55, 0
1, 126288, Note_on_c, 0, 46, 0
1, 126348, Note_on_c, 0, 58, 0
1, 126352, Note_on_c, 0, 63, 0
1, 126360, Note_on_c, 0, 67, 0
1, 126540, Control_c, 0, 64, 0
1, 126560, Note_on_c, 0, 68, 64
1, 126564, Note_on_c, 0, 58, 66
1, 126568, Note_on_c, 0, 48, 47
1, 126576, Note_on_c, 0, 64, 56
1, 126620, Control_c, 0, 64, 127
1, 126728, Note_on_c, 0, 64, 0
1, 126752, Note_on_c, 0, 68, 0
1, 126820, Note_on_c, 0, 58, 0
1, 126960, Note_on_c, 0, 55, 49
1, 126968, Note_on_c, 0, 70, 74
1, 126972, Note_on_c, 0, 58, 66
1, 126988, Note_on_c, 0, 55, 0
1, 127056, Note_on_c, 0, 48, 0
1, 127080, Note_on_c, 0, 58, 0
1, 127140, Note_on_c, 0, 70, 0
1, 127344, Control_c, 0, 64, 0
1, 127372, Note_on_c, 0, 71, 58
1, 127372, Note_on_c, 0, 51, 52
1, 127376, Note_on_c, 0, 63, 66
1, 127376, Note_on_c, 0, 41, 54
1, 127380, Note_on_c, 0, 59, 63
1, 127380, Note_on_c, 0, 67, 54
1, 127424, Note_on_c, 0, 51, 0
1, 127424, Control_c, 0, 64, 127
1, 127472, Note_on_c, 0, 59, 0
1, 127476, Note_on_c, 0, 67, 0
1, 127508, Note_on_c, 0, 63, 0
1, 127512, Note_on_c, 0, 71, 0
1, 127764, Note_on_c, 0, 51, 58
1, 127764, Note_on_c, 0, 72, 85
1, 127792, Note_on_c, 0, 51, 0
1, 127816, Note_on_c, 0, 41, 0
1, 127840, Note_on_c, 0, 72, 0
1, 128116, Control_c, 0, 64, 0
1, 128156, Note_on_c, 0, 63, 72
1, 128164, Note_on_c, 0, 56, 78
1, 128164, Note_on_c, 0, 46, 68
1, 128168, Note_on_c, 0, 60, 68
1, 128168, Note_on_c, 0, 53, 80
1, 128196, Control_c, 0, 64, 127
1, 128332, Note_on_c, 0, 63, 0
1, 128344, Note_on_c, 0, 46, 0
1, 128376, Note_on_c, 0, 53, 0
1, 128424, Note_on_c, 0, 46, 87
1, 128424, Note_on_c, 0, 63, 69
1, 128428, Note_on_c, 0, 53, 57
1, 128476, Note_on_c, 0, 60, 0
1, 128480, Note_on_c, 0, 53, 0
1, 128492, Note_on_c, 0, 56, 0
1, 128544, Note_on_c, 0, 63, 0
1, 128656, Note_on_c, 0, 46, 0
1, 128712, Note_on_c, 0, 65, 75
1, 128716, Note_on_c, 0, 60, 81
1, 128720, Note_on_c, 0, 46, 64
1, 128740, Note_on_c, 0, 53, 42
1, 128768, Note_on_c, 0, 53, 0
1, 128788, Note_on_c, 0, 46, 0
1, 128812, Note_on_c, 0, 60, 0
1, 128816, Note_on_c, 0, 65, 0
1, 128928, Control_c, 0, 64, 40
1, 128932, Control_c, 0, 64, 0
1, 128960, Note_on_c, 0, 67, 76
1, 128964, Note_on_c, 0, 45, 75
1, 128968, Note_on_c, 0, 55, 71
1, 128968, Note_on_c, 0, 63, 66
1, 128968, Note_on_c, 0, 60, 76
1, 128968, Note_on_c, 0, 33, 72
1, 129024, Control_c, 0, 64, 127
1, 129036, Note_on_c, 0, 33, 0
1, 129040, Note_on_c, 0, 55, 0
1, 129068, Note_on_c, 0, 60, 0
1, 129080, Note_on_c, 0, 45, 0
1, 129104, Note_on_c, 0, 67, 0
1, 129112, Note_on_c, 0, 63, 0
1, 129388, Note_on_c, 0, 79, 88
1, 129392, Note_on_c, 0, 75, 80
1, 129396, Note_on_c, 0, 67, 76
1, 129396, Note_on_c, 0, 72, 75
1, 129404, Note_on_c, 0, 63, 80
1, 129404, Note_on_c, 0, 55, 63
1, 129404, Note_on_c, 0, 57, 64
1, 129404, Note_on_c, 0, 60, 61
1, 129408, Note_on_c, 0, 77, 52
1, 129432, Note_on_c, 0, 77, 0
1, 129488, Note_on_c, 0, 60, 0
1, 129492, Note_on_c, 0, 63, 0
1, 129508, Note_on_c, 0, 55, 0
1, 129520, Note_on_c, 0, 57, 0
1, 129528, Note_on_c, 0, 79, 0
1, 129544, Note_on_c, 0, 72, 0
1, 129556, Note_on_c, 0, 67, 0
1, 129556, Note_on_c, 0, 75, 0
1, 129720, Control_c, 0, 64, 72
1, 129720, Control_c, 0, 64, 0
1, 129844, Control_c, 0, 64, 127
1, 130188, Control_c, 0, 64, 0
1, 130220, Note_on_c, 0, 63, 43
1, 130224, Note_on_c, 0, 55, 36
1, 130224, Note_on_c, 0, 58, 43
1, 130224, Control_c, 0, 64, 127
1, 130228, Note_on_c, 0, 32, 39
1, 130228, Note_on_c, 0, 44, 36
1, 130240, Note_on_c, 0, 60, 46
1, 130356, Note_on_c, 0, 44, 0
1, 130360, Note_on_c, 0, 60, 0
1, 130368, Note_on_c, 0, 63, 0
1, 130376, Note_on_c, 0, 32, 0
1, 130392, Note_on_c, 0, 58, 0
1, 130392, Note_on_c, 0, 55, 0
1, 130588, Control_c, 0, 64, 0
1, 130628, Control_c, 0, 64, 127
1, 130644, Note_on_c, 0, 58, 42
1, 130648, Note_on_c, 0, 53, 39
1, 130648, Note_on_c, 0, 62, 43
1, 130648, Note_on_c, 0, 55, 40
1, 130652, Note_on_c, 0, 31, 45
1, 130668, Note_on_c, 0, 43, 26
1, 130700, Note_on_c, 0, 31, 0
1, 130712, Note_on_c, 0, 55, 0
1, 130712, Note_on_c, 0, 53, 0
1, 130748, Note_on_c, 0, 43, 0
1, 130780, Note_on_c, 0, 58, 0
1, 130784, Note_on_c, 0, 62, 0
1, 131052, Control_c, 0, 64, 0
1, 131056, Note_on_c, 0, 62, 42
1, 131064, Note_on_c, 0, 53, 33
1, 131068, Note_on_c, 0, 63, 43
1, 131072, Note_on_c, 0, 58, 42
1, 131084, Note_on_c, 0, 55, 36
1, 131088, Control_c, 0, 64, 127
1, 131128, Note_on_c, 0, 62, 0
1, 131132, Note_on_c, 0, 53, 0
1, 131156, Note_on_c, 0, 55, 0
1, 131164, Note_on_c, 0, 58, 0
1, 131260, Note_on_c, 0, 63, 0
1, 131420, Control_c, 0, 64, 0
1, 131444, Note_on_c, 0, 58, 40
1, 131448, Note_on_c, 0, 48, 45
1, 131456, Note_on_c, 0, 63, 45
1, 131460, Note_on_c, 0, 67, 39
1, 131480, Control_c, 0, 64, 72
1, 131484, Control_c, 0, 64, 127
1, 131568, Note_on_c, 0, 58, 0
1, 131648, Note_on_c, 0, 48, 0
1, 131672, Note_on_c, 0, 63, 0
1, 131688, Note_on_c, 0, 67, 0
1, 131836, Note_on_c, 0, 58, 44
1, 131836, Note_on_c, 0, 70, 48
1, 131848, Note_on_c, 0, 63, 39
1, 131852, Note_on_c, 0, 67, 40
1, 131900, Note_on_c, 0, 58, 0
1, 131948, Note_on_c, 0, 67, 0
1, 131976, Note_on_c, 0, 70, 0
1, 132008, Note_on_c, 0, 63, 0
1, 132192, Control_c, 0, 64, 0
1, 132228, Note_on_c, 0, 57, 41
1, 132228, Note_on_c, 0, 60, 33
1, 132240, Note_on_c, 0, 63, 34
1, 132336, Note_on_c, 0, 63, 0
1, 132344, Note_on_c, 0, 60, 0
1, 132344, Note_on_c, 0, 57, 0
1, 132384, Note_on_c, 0, 56, 39
1, 132428, Note_on_c, 0, 56, 0
1, 132460, Note_on_c, 0, 57, 42
1, 132468, Note_on_c, 0, 69, 57
1, 132468, Note_on_c, 0, 60, 46
1, 132484, Note_on_c, 0, 63, 31
1, 132528, Note_on_c, 0, 69, 0
1, 132552, Note_on_c, 0, 60, 0
1, 132564, Note_on_c, 0, 63, 0
1, 132576, Note_on_c, 0, 57, 0
1, 132600, Note_on_c, 0, 56, 39
1, 132648, Control_c, 0, 64, 127
1, 132652, Note_on_c, 0, 56, 0
1, 132684, Note_on_c, 0, 57, 42
1, 132684, Note_on_c, 0, 69, 40
1, 132688, Note_on_c, 0, 63, 43
1, 132696, Note_on_c, 0, 60, 31
1, 132708, Note_on_c, 0, 57, 0
1, 132712, Note_on_c, 0, 69, 0
1, 132724, Note_on_c, 0, 63, 0
1, 132732, Note_on_c, 0, 60, 0
1, 132824, Control_c, 0, 64, 0
1, 132828, Note_on_c, 0, 65, 62
1, 132840, Note_on_c, 0, 53, 46
1, 132848, Note_on_c, 0, 60, 29
1, 132876, Control_c, 0, 64, 127
1, 132928, Note_on_c, 0, 53, 0
1, 132940, Note_on_c, 0, 60, 0
1, 133044, Note_on_c, 0, 65, 0
1, 133052, Control_c, 0, 64, 0
1, 133080, Note_on_c, 0, 65, 21
1, 133088, Note_on_c, 0, 57, 52
1, 133092, Note_on_c, 0, 62, 56
1, 133096, Note_on_c, 0, 51, 36
1, 133100, Note_on_c, 0, 41, 37
1, 133132, Control_c, 0, 64, 127
1, 133300, Note_on_c, 0, 57, 0
1, 133316, Note_on_c, 0, 51, 0
1, 133320, Note_on_c, 0, 62, 0
1, 133344, Note_on_c, 0, 61, 57
1, 133356, Note_on_c, 0, 57, 30
1, 133420, Note_on_c, 0, 57, 0
1, 133432, Control_c, 0, 64, 0
1, 133452, Control_c, 0, 64, 127
1, 133472, Note_on_c, 0, 61, 0
1, 133484, Note_on_c, 0, 41, 0
1, 133484, Note_on_c, 0, 51, 42
1, 133496, Note_on_c, 0, 60, 49
1, 133564, Note_on_c, 0, 51, 0
1, 133596, Note_on_c, 0, 60, 0
1, 133604, Note_on_c, 0, 65, 0
1, 133836, Control_c, 0, 64, 0
1, 133848, Note_on_c, 0, 70, 58
1, 133852, Note_on_c, 0, 58, 41
1, 133860, Note_on_c, 0, 63, 53
1, 133864, Note_on_c, 0, 60, 50
1, 133876, Note_on_c, 0, 67, 44
1, 133944, Note_on_c, 0, 60, 0
1, 133956, Note_on_c, 0, 58, 0
1, 133960, Note_on_c, 0, 70, 0
1, 133964, Note_on_c, 0, 63, 0
1, 133968, Note_on_c, 0, 67, 0
1, 134012, Note_on_c, 0, 56, 28
1, 134048, Note_on_c, 0, 56, 0
1, 134056, Note_on_c, 0, 58, 50
1, 134072, Note_on_c, 0, 70, 59
1, 134084, Note_on_c, 0, 63, 43
1, 134088, Note_on_c, 0, 60, 38
1, 134108, Note_on_c, 0, 67, 31
1, 134136, Note_on_c, 0, 60, 0
1, 134148, Note_on_c, 0, 70, 0
1, 134156, Note_on_c, 0, 63, 0
1, 134160, Note_on_c, 0, 67, 0
1, 134164, Note_on_c, 0, 58, 0
1, 134200, Note_on_c, 0, 56, 36
1, 134216, Control_c, 0, 64, 127
1, 134248, Note_on_c, 0, 56, 0
1, 134256, Note_on_c, 0, 70, 63
1, 134268, Note_on_c, 0, 58, 48
1, 134268, Note_on_c, 0, 63, 48
1, 134272, Note_on_c, 0, 60, 40
1, 134308, Note_on_c, 0, 58, 0
1, 134316, Note_on_c, 0, 60, 0
1, 134348, Note_on_c, 0, 70, 0
1, 134352, Note_on_c, 0, 63, 0
1, 134404, Control_c, 0, 64, 0
1, 134404, Note_on_c, 0, 63, 52
1, 134416, Note_on_c, 0, 60, 46
1, 134420, Control_c, 0, 64, 127
1, 134420, Note_on_c, 0, 58, 48
1, 134520, Note_on_c, 0, 58, 0
1, 134520, Note_on_c, 0, 60, 0
1, 134564, Note_on_c, 0, 63, 0
1, 134620, Control_c, 0, 64, 0
1, 134652, Note_on_c, 0, 59, 40
1, 134652, Note_on_c, 0, 56, 48
1, 134656, Note_on_c, 0, 62, 55
1, 134664, Note_on_c, 0, 46, 45
1, 134676, Control_c, 0, 64, 127
1, 134876, Note_on_c, 0, 56, 0
1, 134924, Note_on_c, 0, 59, 0
1, 134968, Note_on_c, 0, 62, 0
1, 135012, Note_on_c, 0, 46, 0
1, 135060, Note_on_c, 0, 46, 49
1, 135072, Note_on_c, 0, 56, 48
1, 135168, Note_on_c, 0, 56, 0
1, 135272, Note_on_c, 0, 46, 0
1, 135704, Note_on_c, 0, 39, 57
1, 135768, Note_on_c, 0, 39, 0
1, 135816, Control_c, 0, 64, 0
1, 135888, Note_on_c, 0, 67, 56
1, 135892, Note_on_c, 0, 62, 57
1, 135892, Note_on_c, 0, 55, 54
1, 135912, Note_on_c, 0, 55, 0
1, 135924, Note_on_c, 0, 67, 0
1, 135940, Note_on_c, 0, 62, 0
1, 136088, Note_on_c, 0, 67, 55
1, 136092, Note_on_c, 0, 62, 58
1, 136104, Note_on_c, 0, 55, 41
1, 136140, Note_on_c, 0, 67, 0
1, 136144, Note_on_c, 0, 55, 0
1, 136144, Note_on_c, 0, 62, 0
1, 136276, Note_on_c, 0, 32, 49
1, 136420, Note_on_c, 0, 32, 0
1, 136476, Note_on_c, 0, 65, 49
1, 136480, Note_on_c, 0, 58, 57
1, 136484, Note_on_c, 0, 63, 48
1, 136496, Note_on_c, 0, 55, 38
1, 136496, Note_on_c, 0, 53, 35
1, 136524, Note_on_c, 0, 53, 0
1, 136528, Note_on_c, 0, 55, 0
1, 136536, Note_on_c, 0, 65, 0
1, 136540, Note_on_c, 0, 58, 0
1, 136556, Note_on_c, 0, 63, 0
1, 136680, Note_on_c, 0, 65, 44
1, 136680, Note_on_c, 0, 58, 51
1, 136692, Note_on_c, 0, 63, 46
1, 136704, Note_on_c, 0, 55, 25
1, 136716, Note_on_c, 0, 63, 0
1, 136732, Note_on_c, 0, 55, 0
1, 136732, Note_on_c, 0, 65, 0
1, 136744, Note_on_c, 0, 58, 0
1, 136868, Note_on_c, 0, 32, 48
1, 136992, Note_on_c, 0, 32, 0
1, 137036, Control_c, 0, 64, 127
1, 137080, Note_on_c, 0, 31, 46
1, 137084, Note_on_c, 0, 53, 43
1, 137084, Note_on_c, 0, 58, 51
1, 137088, Note_on_c, 0, 62, 54
1, 137088, Note_on_c, 0, 55, 43
1, 137096, Note_on_c, 0, 43, 38
1, 137108, Note_on_c, 0, 31, 0
1, 137164, Note_on_c, 0, 43, 0
1, 137248, Note_on_c, 0, 55, 0
1, 137252, Note_on_c, 0, 53, 0
1, 137284, Note_on_c, 0, 58, 0
1, 137412, Note_on_c, 0, 62, 0
1, 137476, Control_c, 0, 64, 0
1, 137488, Note_on_c, 0, 58, 60
1, 137496, Note_on_c, 0, 53, 37
1, 137504, Note_on_c, 0, 46, 50
1, 137508, Note_on_c, 0, 55, 36
1, 137516, Control_c, 0, 64, 127
1, 137560, Note_on_c, 0, 62, 11
1, 137596, Note_on_c, 0, 55, 0
1, 137608, Note_on_c, 0, 53, 0
1, 137692, Note_on_c, 0, 62, 0
1, 137764, Note_on_c, 0, 58, 0
1, 137804, Control_c, 0, 64, 0
1, 137868, Note_on_c, 0, 63, 72
1, 137872, Note_on_c, 0, 58, 76
1, 137872, Note_on_c, 0, 48, 71
1, 137876, Control_c, 0, 64, 127
1, 137876, Note_on_c, 0, 55, 66
1, 137900, Note_on_c, 0, 46, 0
1, 137976, Note_on_c, 0, 55, 0
1, 137984, Note_on_c, 0, 48, 0
1, 138016, Note_on_c, 0, 63, 0
1, 138032, Note_on_c, 0, 58, 0
1, 138252, Note_on_c, 0, 67, 76
1, 138260, Note_on_c, 0, 55, 57
1, 138260, Note_on_c, 0, 63, 68
1, 138264, Note_on_c, 0, 60, 74
1, 138320, Note_on_c, 0, 55, 0
1, 138356, Note_on_c, 0, 60, 0
1, 138384, Note_on_c, 0, 67, 0
1, 138400, Note_on_c, 0, 63, 0
1, 138624, Control_c, 0, 64, 0
1, 138628, Note_on_c, 0, 41, 46
1, 138640, Note_on_c, 0, 69, 66
1, 138644, Note_on_c, 0, 66, 61
1, 138644, Note_on_c, 0, 62, 60
1, 138668, Note_on_c, 0, 57, 36
1, 138740, Control_c, 0, 64, 127
1, 138756, Note_on_c, 0, 41, 0
1, 138824, Note_on_c, 0, 57, 0
1, 138844, Note_on_c, 0, 62, 0
1, 138892, Note_on_c, 0, 69, 0
1, 138916, Note_on_c, 0, 66, 0
1, 138992, Control_c, 0, 64, 0
1, 139004, Note_on_c, 0, 66, 75
1, 139004, Note_on_c, 0, 57, 68
1, 139008, Note_on_c, 0, 72, 70
1, 139008, Note_on_c, 0, 62, 78
1, 139012, Note_on_c, 0, 69, 63
1, 139068, Control_c, 0, 64, 127
1, 139244, Note_on_c, 0, 62, 0
1, 139276, Note_on_c, 0, 57, 0
1, 139276, Note_on_c, 0, 69, 0
1, 139284, Note_on_c, 0, 66, 0
1, 139288, Note_on_c, 0, 72, 0
1, 139360, Control_c, 0, 64, 0
1, 139388, Note_on_c, 0, 57, 56
1, 139392, Note_on_c, 0, 66, 57
1, 139396, Note_on_c, 0, 72, 54
1, 139400, Note_on_c, 0, 62, 57
1, 139404, Note_on_c, 0, 69, 48
1, 139464, Control_c, 0, 64, 127
1, 139820, Note_on_c, 0, 57, 0
1, 139840, Note_on_c, 0, 72, 0
1, 139852, Note_on_c, 0, 69, 0
1, 139852, Note_on_c, 0, 62, 0
1, 139916, Note_on_c, 0, 70, 51
1, 139964, Note_on_c, 0, 66, 0
1, 139972, Note_on_c, 0, 70, 0
1, 140004, Note_on_c, 0, 72, 30
1, 140108, Control_c, 0, 64, 0
1, 140148, Note_on_c, 0, 74, 57
1, 140152, Note_on_c, 0, 62, 43
1, 140152, Note_on_c, 0, 57, 43
1, 140160, Note_on_c, 0, 69, 57
1, 140160, Note_on_c, 0, 47, 41
1, 140196, Note_on_c, 0, 72, 0
1, 140204, Control_c, 0, 64, 127
1, 140336, Note_on_c, 0, 57, 0
1, 140348, Note_on_c, 0, 69, 0
1, 140352, Note_on_c, 0, 62, 0
1, 140736, Note_on_c, 0, 62, 54
1, 140800, Note_on_c, 0, 62, 0
1, 140892, Control_c, 0, 64, 0
1, 140916, Note_on_c, 0, 74, 0
1, 140936, Note_on_c, 0, 68, 49
1, 140936, Note_on_c, 0, 62, 48
1, 140936, Note_on_c, 0, 56, 41
1, 140980, Control_c, 0, 64, 127
1, 141152, Note_on_c, 0, 47, 0
1, 141316, Note_on_c, 0, 47, 43
1, 141316, Note_on_c, 0, 74, 57
1, 141372, Note_on_c, 0, 62, 0
1, 141392, Note_on_c, 0, 74, 0
1, 141400, Note_on_c, 0, 47, 0
1, 141436, Note_on_c, 0, 68, 0
1, 141504, Note_on_c, 0, 56, 0
1, 141664, Control_c, 0, 64, 0
1, 141684, Note_on_c, 0, 75, 55
1, 141688, Note_on_c, 0, 61, 46
1, 141692, Note_on_c, 0, 46, 43
1, 141692, Note_on_c, 0, 56, 38
1, 141696, Note_on_c, 0, 68, 48
1, 141800, Control_c, 0, 64, 127
1, 141840, Note_on_c, 0, 56, 0
1, 141892, Note_on_c, 0, 57, 52
1, 141948, Note_on_c, 0, 46, 0
1, 142060, Control_c, 0, 64, 0
1, 142064, Note_on_c, 0, 57, 0
1, 142072, Note_on_c, 0, 61, 0
1, 142080, Note_on_c, 0, 58, 49
1, 142084, Note_on_c, 0, 68, 0
1, 142168, Control_c, 0, 64, 127
1, 142276, Note_on_c, 0, 61, 41
1, 142284, Note_on_c, 0, 68, 40
1, 142344, Note_on_c, 0, 61, 0
1, 142368, Note_on_c, 0, 68, 0
1, 142452, Control_c, 0, 64, 0
1, 142472, Note_on_c, 0, 60, 66
1, 142472, Note_on_c, 0, 61, 47
1, 142476, Note_on_c, 0, 68, 45
1, 142484, Note_on_c, 0, 58, 0
1, 142576, Note_on_c, 0, 61, 0
1, 142576, Note_on_c, 0, 68, 0
1, 142604, Control_c, 0, 64, 127
1, 142676, Note_on_c, 0, 61, 41
1, 142680, Note_on_c, 0, 68, 40
1, 142724, Note_on_c, 0, 61, 0
1, 142772, Note_on_c, 0, 68, 0
1, 142868, Note_on_c, 0, 68, 51
1, 142876, Note_on_c, 0, 61, 34
1, 142900, Note_on_c, 0, 60, 0
1, 142980, Note_on_c, 0, 61, 0
1, 142996, Note_on_c, 0, 68, 0
1, 143064, Note_on_c, 0, 54, 52
1, 143156, Note_on_c, 0, 73, 1
1, 143180, Control_c, 0, 64, 0
1, 143216, Note_on_c, 0, 75, 0
1, 143236, Note_on_c, 0, 54, 0
1, 143248, Note_on_c, 0, 73, 0
1, 143264, Note_on_c, 0, 55, 47
1, 143264, Control_c, 0, 64, 127
1, 143272, Note_on_c, 0, 61, 31
1, 143276, Note_on_c, 0, 67, 31
1, 143304, Note_on_c, 0, 67, 0
1, 143328, Note_on_c, 0, 61, 0
1, 143348, Note_on_c, 0, 55, 0
1, 143500, Note_on_c, 0, 49, 39
1, 143532, Note_on_c, 0, 49, 0
1, 143600, Control_c, 0, 64, 0
1, 143672, Note_on_c, 0, 63, 57
1, 143672, Note_on_c, 0, 51, 59
1, 143676, Note_on_c, 0, 58, 57
1, 143676, Note_on_c, 0, 55, 52
1, 143720, Control_c, 0, 64, 127
1, 143756, Note_on_c, 0, 55, 0
1, 143788, Note_on_c, 0, 58, 0
1, 143828, Note_on_c, 0, 63, 0
1, 143876, Control_c, 0, 64, 0
1, 143908, Note_on_c, 0, 67, 75
1, 143912, Note_on_c, 0, 63, 68
1, 143912, Note_on_c, 0, 58, 78
1, 143912, Note_on_c, 0, 55, 68
1, 143928, Note_on_c, 0, 51, 0
1, 143948, Control_c, 0, 64, 127
1, 143992, Note_on_c, 0, 58, 0
1, 143996, Note_on_c, 0, 67, 0
1, 144012, Note_on_c, 0, 63, 0
1, 144056, Note_on_c, 0, 55, 0
1, 144148, Note_on_c, 0, 70, 70
1, 144160, Note_on_c, 0, 63, 63
1, 144164, Note_on_c, 0, 60, 58
1, 144164, Note_on_c, 0, 58, 57
1, 144184, Note_on_c, 0, 60, 0
1, 144200, Note_on_c, 0, 63, 0
1, 144208, Note_on_c, 0, 58, 0
1, 144224, Note_on_c, 0, 70, 0
1, 144576, Control_c, 0, 64, 0
1, 144608, Note_on_c, 0, 75, 66
1, 144612, Note_on_c, 0, 61, 57
1, 144616, Note_on_c, 0, 67, 58
1, 144624, Note_on_c, 0, 45, 53
1, 144624, Note_on_c, 0, 55, 47
1, 144628, Note_on_c, 0, 73, 42
1, 144640, Note_on_c, 0, 61, 0
1, 144640, Control_c, 0, 64, 127
1, 144660, Note_on_c, 0, 55, 0
1, 144664, Note_on_c, 0, 67, 0
1, 144676, Note_on_c, 0, 45, 0
1, 144692, Note_on_c, 0, 73, 0
1, 144708, Note_on_c, 0, 75, 0
1, 144816, Control_c, 0, 64, 0
1, 144868, Note_on_c, 0, 44, 56
1, 144872, Note_on_c, 0, 70, 57
1, 144872, Note_on_c, 0, 77, 60
1, 144872, Note_on_c, 0, 65, 57
1, 144876, Note_on_c, 0, 74, 59
1, 144880, Note_on_c, 0, 55, 46
1, 144900, Control_c, 0, 64, 127
1, 145008, Note_on_c, 0, 55, 0
1, 145280, Note_on_c, 0, 53, 55
1, 145288, Control_c, 0, 64, 0
1, 145324, Control_c, 0, 64, 127
1, 145400, Note_on_c, 0, 77, 0
1, 145404, Note_on_c, 0, 74, 0
1, 145436, Note_on_c, 0, 70, 0
1, 145448, Note_on_c, 0, 65, 0
1, 145464, Note_on_c, 0, 53, 0
1, 145672, Control_c, 0, 64, 0
1, 145672, Note_on_c, 0, 75, 65
1, 145684, Note_on_c, 0, 63, 47
1, 145684, Note_on_c, 0, 67, 52
1, 145684, Note_on_c, 0, 51, 43
1, 145772, Control_c, 0, 64, 127
1, 145916, Note_on_c, 0, 44, 0
1, 145924, Note_on_c, 0, 67, 0
1, 145936, Note_on_c, 0, 63, 0
1, 146064, Note_on_c, 0, 44, 50
1, 146084, Note_on_c, 0, 75, 0
1, 146088, Note_on_c, 0, 63, 42
1, 146116, Note_on_c, 0, 63, 0
1, 146128, Note_on_c, 0, 51, 0
1, 146132, Note_on_c, 0, 44, 0
1, 146440, Control_c, 0, 64, 0
1, 146476, Note_on_c, 0, 74, 89
1, 146476, Note_on_c, 0, 67, 82
1, 146476, Note_on_c, 0, 63, 84
1, 146480, Note_on_c, 0, 62, 84
1, 146484, Note_on_c, 0, 69, 64
1, 146532, Control_c, 0, 64, 127
1, 146740, Note_on_c, 0, 62, 0
1, 146744, Note_on_c, 0, 74, 0
1, 146748, Note_on_c, 0, 69, 0
1, 146772, Note_on_c, 0, 63, 0
1, 146776, Note_on_c, 0, 67, 0
1, 146880, Note_on_c, 0, 63, 71
1, 146884, Note_on_c, 0, 72, 64
1, 146884, Note_on_c, 0, 60, 58
1, 146888, Note_on_c, 0, 67, 58
1, 146900, Note_on_c, 0, 69, 49
1, 146956, Note_on_c, 0, 60, 0
1, 146996, Note_on_c, 0, 72, 0
1, 147000, Note_on_c, 0, 69, 0
1, 147004, Note_on_c, 0, 67, 0
1, 147036, Note_on_c, 0, 63, 0
1, 147224, Control_c, 0, 64, 0
1, 147264, Note_on_c, 0, 70, 60
1, 147272, Note_on_c, 0, 60, 46
1, 147276, Note_on_c, 0, 66, 51
1, 147280, Note_on_c, 0, 64, 48
1, 147280, Note_on_c, 0, 50, 52
1, 147296, Control_c, 0, 64, 127
1, 147344, Note_on_c, 0, 50, 0
1, 147436, Note_on_c, 0, 64, 0
1, 147456, Note_on_c, 0, 66, 0
1, 147464, Note_on_c, 0, 60, 0
1, 147464, Note_on_c, 0, 70, 0
1, 147784, Note_on_c, 0, 68, 60
1, 147852, Note_on_c, 0, 68, 0
1, 147980, Control_c, 0, 64, 0
1, 148016, Note_on_c, 0, 67, 54
1, 148024, Note_on_c, 0, 53, 45
1, 148024, Note_on_c, 0, 64, 51
1, 148032, Note_on_c, 0, 43, 45
1, 148032, Note_on_c, 0, 59, 38
1, 148076, Control_c, 0, 64, 127
1, 148296, Note_on_c, 0, 53, 0
1, 148308, Note_on_c, 0, 43, 0
1, 148316, Note_on_c, 0, 59, 0
1, 148404, Note_on_c, 0, 64, 0
1, 148424, Note_on_c, 0, 63, 54
1, 148704, Note_on_c, 0, 63, 0
1, 148780, Control_c, 0, 64, 0
1, 148816, Note_on_c, 0, 36, 46
1, 148816, Note_on_c, 0, 58, 40
1, 148832, Note_on_c, 0, 62, 41
1, 148840, Note_on_c, 0, 52, 39
1, 148864, Control_c, 0, 64, 127
1, 148976, Note_on_c, 0, 67, 0
1, 149016, Note_on_c, 0, 58, 0
1, 149072, Note_on_c, 0, 62, 0
1, 149264, Note_on_c, 0, 36, 0
1, 149336, Note_on_c, 0, 52, 0
1, 149400, Note_on_c, 0, 67, 64
1, 149456, Note_on_c, 0, 67, 0
1, 149604, Control_c, 0, 64, 0
1, 149644, Note_on_c, 0, 70, 50
1, 149648, Note_on_c, 0, 63, 57
1, 149652, Note_on_c, 0, 41, 52
1, 149672, Note_on_c, 0, 56, 36
1, 149740, Control_c, 0, 64, 127
1, 149868, Note_on_c, 0, 48, 48
1, 149920, Note_on_c, 0, 56, 0
1, 149952, Note_on_c, 0, 63, 0
1, 150020, Note_on_c, 0, 70, 0
1, 150068, Note_on_c, 0, 53, 51
1, 150112, Note_on_c, 0, 53, 0
1, 150112, Note_on_c, 0, 41, 0
1, 150156, Note_on_c, 0, 48, 0
1, 150256, Note_on_c, 0, 68, 73
1, 150268, Note_on_c, 0, 63, 66
1, 150336, Note_on_c, 0, 63, 0
1, 150344, Note_on_c, 0, 68, 0
1, 150428, Control_c, 0, 64, 0
1, 150468, Note_on_c, 0, 67, 66
1, 150468, Note_on_c, 0, 46, 54
1, 150472, Note_on_c, 0, 59, 57
1, 150472, Note_on_c, 0, 56, 46
1, 150476, Note_on_c, 0, 62, 58
1, 150520, Control_c, 0, 64, 104
1, 150520, Control_c, 0, 64, 127
1, 150656, Note_on_c, 0, 62, 0
1, 150672, Note_on_c, 0, 67, 0
1, 150672, Note_on_c, 0, 56, 0
1, 150684, Note_on_c, 0, 59, 0
1, 150884, Note_on_c, 0, 65, 75
1, 150896, Note_on_c, 0, 57, 56
1, 150900, Note_on_c, 0, 60, 63
1, 150928, Note_on_c, 0, 46, 0
1, 151040, Note_on_c, 0, 65, 0
1, 151044, Note_on_c, 0, 57, 0
1, 151080, Note_on_c, 0, 60, 0
1, 151296, Control_c, 0, 64, 0
1, 151320, Note_on_c, 0, 63, 71
1, 151324, Note_on_c, 0, 54, 67
1, 151328, Note_on_c, 0, 58, 67
1, 151340, Note_on_c, 0, 40, 61
1, 151420, Control_c, 0, 64, 127
1, 151580, Note_on_c, 0, 54, 0
1, 151584, Note_on_c, 0, 47, 66
1, 151588, Note_on_c, 0, 63, 0
1, 151604, Note_on_c, 0, 58, 0
1, 151844, Note_on_c, 0, 49, 52
1, 151872, Note_on_c, 0, 49, 0
1, 151900, Note_on_c, 0, 51, 58
1, 151916, Note_on_c, 0, 51, 0
1, 151948, Note_on_c, 0, 54, 62
1, 151968, Note_on_c, 0, 54, 0
1, 151988, Note_on_c, 0, 56, 60
1, 152004, Note_on_c, 0, 56, 0
1, 152020, Note_on_c, 0, 58, 68
1, 152040, Note_on_c, 0, 58, 0
1, 152068, Note_on_c, 0, 61, 67
1, 152088, Note_on_c, 0, 61, 0
1, 152100, Note_on_c, 0, 63, 68
1, 152116, Note_on_c, 0, 63, 0
1, 152140, Note_on_c, 0, 66, 70
1, 152160, Note_on_c, 0, 66, 0
1, 152172, Note_on_c, 0, 68, 68
1, 152192, Note_on_c, 0, 68, 0
1, 152204, Note_on_c, 0, 70, 66
1, 152224, Note_on_c, 0, 70, 0
1, 152248, Note_on_c, 0, 73, 66
1, 152268, Note_on_c, 0, 73, 0
1, 152284, Note_on_c, 0, 75, 63
1, 152300, Note_on_c, 0, 75, 0
1, 152332, Note_on_c, 0, 78, 64
1, 152348, Note_on_c, 0, 78, 0
1, 152356, Note_on_c, 0, 40, 0
1, 152368, Note_on_c, 0, 80, 62
1, 152388, Note_on_c, 0, 80, 0
1, 152404, Note_on_c, 0, 82, 61
1, 152420, Note_on_c, 0, 82, 0
1, 152456, Note_on_c, 0, 85, 60
1, 152472, Note_on_c, 0, 85, 0
1, 152488, Note_on_c, 0, 87, 60
1, 152504, Note_on_c, 0, 87, 0
1, 152536, Note_on_c, 0, 90, 62
1, 152556, Note_on_c, 0, 90, 0
1, 152572, Note_on_c, 0, 92, 57
1, 152592, Note_on_c, 0, 92, 0
1, 152608, Note_on_c, 0, 94, 57
1, 152628, Note_on_c, 0, 94, 0
1, 152660, Note_on_c, 0, 97, 58
1, 152684, Note_on_c, 0, 97, 0
1, 152704, Note_on_c, 0, 99, 56
1, 152732, Note_on_c, 0, 99, 0
1, 152764, Note_on_c, 0, 102, 56
1, 152796, Note_on_c, 0, 102, 0
1, 152804, Note_on_c, 0, 104, 65
1, 152824, Note_on_c, 0, 104, 0
1, 152848, Note_on_c, 0, 106, 39
1, 152924, Note_on_c, 0, 106, 0
1, 153164, Note_on_c, 0, 47, 0
1, 154232, Note_on_c, 0, 62, 48
1, 154236, Note_on_c, 0, 67, 4
1, 154260, Note_on_c, 0, 60, 39
1, 154276, Control_c, 0, 64, 0
1, 154296, Note_on_c, 0, 55, 57
1, 154304, Note_on_c, 0, 27, 41
1, 154316, Note_on_c, 0, 39, 34
1, 154392, Control_c, 0, 64, 88
1, 154392, Control_c, 0, 64, 127
1, 154472, Note_on_c, 0, 27, 0
1, 154476, Note_on_c, 0, 55, 0
1, 154512, Note_on_c, 0, 60, 0
1, 154512, Note_on_c, 0, 39, 0
1, 154524, Note_on_c, 0, 62, 0
1, 154560, Note_on_c, 0, 67, 0
1, 154784, Note_on_c, 0, 51, 42
1, 154844, Note_on_c, 0, 58, 42
1, 154908, Note_on_c, 0, 62, 38
1, 154952, Note_on_c, 0, 67, 41
1, 155012, Note_on_c, 0, 67, 0
1, 155024, Note_on_c, 0, 69, 34
1, 155052, Note_on_c, 0, 69, 0
1, 155052, Note_on_c, 0, 70, 60
1, 155072, Note_on_c, 0, 70, 0
1, 155112, Note_on_c, 0, 72, 56
1, 155180, Note_on_c, 0, 72, 0
1, 155188, Note_on_c, 0, 74, 44
1, 155212, Note_on_c, 0, 74, 0
1, 155224, Note_on_c, 0, 75, 53
1, 155244, Note_on_c, 0, 75, 0
1, 155280, Note_on_c, 0, 77, 58
1, 155332, Note_on_c, 0, 77, 0
1, 155340, Note_on_c, 0, 79, 37
1, 155368, Note_on_c, 0, 79, 0
1, 155388, Note_on_c, 0, 81, 39
1, 155408, Note_on_c, 0, 81, 0
1, 155420, Note_on_c, 0, 82, 54
1, 155440, Note_on_c, 0, 82, 0
1, 155484, Note_on_c, 0, 84, 49
1, 155548, Note_on_c, 0, 84, 0
1, 155564, Note_on_c, 0, 86, 49
1, 155812, Note_on_c, 0, 86, 0
1, 155824, Note_on_c, 0, 87, 39
1, 155852, Note_on_c, 0, 87, 0
1, 155884, Note_on_c, 0, 89, 52
1, 155936, Note_on_c, 0, 89, 0
1, 155956, Note_on_c, 0, 91, 47
1, 156008, Note_on_c, 0, 91, 0
1, 156016, Note_on_c, 0, 93, 43
1, 156040, Note_on_c, 0, 93, 0
1, 156064, Note_on_c, 0, 94, 52
1, 156084, Note_on_c, 0, 94, 0
1, 156132, Note_on_c, 0, 96, 68
1, 156184, Note_on_c, 0, 96, 0
1, 156212, Note_on_c, 0, 98, 56
1, 156264, Note_on_c, 0, 98, 0
1, 156280, Note_on_c, 0, 99, 44
1, 156312, Note_on_c, 0, 99, 0
1, 156356, Note_on_c, 0, 101, 57
1, 156452, Note_on_c, 0, 101, 0
1, 156476, Note_on_c, 0, 103, 55
1, 156524, Note_on_c, 0, 103, 0
1, 156592, Note_on_c, 0, 105, 63
1, 156684, Note_on_c, 0, 105, 0
1, 156744, Note_on_c, 0, 106, 57
1, 156824, Note_on_c, 0, 106, 0
1, 156904, Note_on_c, 0, 108, 55
1, 157084, Note_on_c, 0, 108, 0
1, 157096, Note_on_c, 0, 106, 48
1, 157176, Note_on_c, 0, 62, 0
1, 157208, Note_on_c, 0, 106, 0
1, 157208, Note_on_c, 0, 58, 0
1, 157228, Note_on_c, 0, 51, 0
1, 157308, Note_on_c, 0, 106, 54
1, 157644, Note_on_c, 0, 27, 35
1, 158836, Note_on_c, 0, 106, 0
1, 158976, Control_c, 0, 64, 0
1, 159052, Note_on_c, 0, 27, 0
1, 159052, End_track
0, 0, End_of_file
