0, 0, Header, 1, 5, 384
1, 0, Start_track
1, 0, Title_t, "LoverComeBackToMe"
1, 0, Text_t, "dougmck@pipeline.com.au\012"
1, 0, SMPTE_offset, 96, 0, 3, 0, 0
1, 0, Time_signature, 4, 2, 24, 8
1, 0, Key_signature, 1, "major"
1, 0, Tempo, 461538
1, 0, Marker_t, "Sequence by dougmck@pipeline.com.au"
1, 0, End_track
2, 0, Start_track
2, 0, MIDI_port, 0
2, 0, Title_t, ""
2, 0, Program_c, 0, 0
2, 1735, Note_on_c, 0, 67, 57
2, 1738, Note_on_c, 0, 59, 66
2, 1740, Note_on_c, 0, 62, 63
2, 1743, Note_on_c, 0, 52, 66
2, 1862, Control_c, 0, 64, 127
2, 2013, Control_c, 0, 64, 0
2, 2195, Note_on_c, 0, 67, 0
2, 2206, Note_on_c, 0, 59, 0
2, 2207, Note_on_c, 0, 52, 0
2, 2224, Note_on_c, 0, 62, 0
2, 2271, Note_on_c, 0, 67, 38
2, 2273, Note_on_c, 0, 62, 55
2, 2276, Note_on_c, 0, 59, 55
2, 2281, Note_on_c, 0, 52, 39
2, 2376, Note_on_c, 0, 59, 0
2, 2391, Note_on_c, 0, 67, 0
2, 2397, Note_on_c, 0, 62, 0
2, 2466, Note_on_c, 0, 52, 0
2, 2630, Note_on_c, 0, 69, 62
2, 2637, Note_on_c, 0, 63, 39
2, 2639, Note_on_c, 0, 54, 60
2, 2642, Note_on_c, 0, 66, 52
2, 2644, Note_on_c, 0, 60, 50
2, 2757, Note_on_c, 0, 60, 0
2, 2777, Note_on_c, 0, 69, 0
2, 2794, Note_on_c, 0, 63, 0
2, 2803, Note_on_c, 0, 66, 0
2, 2840, Note_on_c, 0, 54, 0
2, 3026, Note_on_c, 0, 71, 60
2, 3027, Note_on_c, 0, 67, 52
2, 3031, Note_on_c, 0, 62, 53
2, 3035, Note_on_c, 0, 64, 52
2, 3040, Note_on_c, 0, 55, 49
2, 3106, Control_c, 0, 64, 127
2, 3224, Note_on_c, 0, 62, 0
2, 3235, Note_on_c, 0, 64, 0
2, 3244, Note_on_c, 0, 67, 0
2, 3267, Note_on_c, 0, 71, 0
2, 3419, Note_on_c, 0, 55, 0
2, 4802, Control_c, 0, 64, 0
2, 4807, Note_on_c, 0, 66, 69
2, 4810, Note_on_c, 0, 58, 62
2, 4811, Note_on_c, 0, 62, 70
2, 4811, Note_on_c, 0, 48, 60
2, 4832, Note_on_c, 0, 62, 0
2, 4833, Note_on_c, 0, 48, 0
2, 4838, Note_on_c, 0, 58, 0
2, 4851, Note_on_c, 0, 66, 0
2, 5176, Note_on_c, 0, 58, 83
2, 5176, Note_on_c, 0, 78, 91
2, 5178, Note_on_c, 0, 69, 101
2, 5179, Note_on_c, 0, 74, 92
2, 5180, Note_on_c, 0, 64, 88
2, 5183, Control_c, 0, 64, 127
2, 5299, Note_on_c, 0, 69, 0
2, 5311, Note_on_c, 0, 74, 0
2, 5311, Control_c, 0, 64, 0
2, 5319, Note_on_c, 0, 64, 0
2, 5323, Note_on_c, 0, 78, 0
2, 5337, Note_on_c, 0, 58, 0
2, 5399, Control_c, 0, 64, 127
2, 5407, Note_on_c, 0, 78, 83
2, 5411, Note_on_c, 0, 74, 92
2, 5411, Note_on_c, 0, 58, 83
2, 5413, Note_on_c, 0, 64, 81
2, 5413, Note_on_c, 0, 69, 88
2, 5602, Note_on_c, 0, 64, 0
2, 5611, Note_on_c, 0, 69, 0
2, 5619, Note_on_c, 0, 74, 0
2, 5625, Note_on_c, 0, 58, 0
2, 5636, Note_on_c, 0, 78, 0
2, 5659, Control_c, 0, 64, 0
2, 5677, Note_on_c, 0, 64, 56
2, 5678, Note_on_c, 0, 58, 61
2, 5679, Note_on_c, 0, 79, 79
2, 5681, Note_on_c, 0, 74, 63
2, 5698, Control_c, 0, 64, 127
2, 5700, Note_on_c, 0, 78, 23
2, 5701, Note_on_c, 0, 64, 0
2, 5738, Note_on_c, 0, 58, 0
2, 5738, Note_on_c, 0, 78, 0
2, 5753, Note_on_c, 0, 74, 0
2, 5776, Note_on_c, 0, 79, 0
2, 5966, Note_on_c, 0, 81, 69
2, 5970, Note_on_c, 0, 77, 71
2, 5972, Control_c, 0, 64, 0
2, 5972, Note_on_c, 0, 47, 59
2, 5973, Note_on_c, 0, 57, 65
2, 5975, Note_on_c, 0, 69, 68
2, 6079, Control_c, 0, 64, 127
2, 6127, Note_on_c, 0, 69, 0
2, 6156, Note_on_c, 0, 77, 0
2, 6170, Note_on_c, 0, 81, 0
2, 6986, Note_on_c, 0, 57, 0
2, 6988, Note_on_c, 0, 47, 0
2, 7233, Note_on_c, 0, 69, 81
2, 7234, Note_on_c, 0, 63, 80
2, 7235, Note_on_c, 0, 59, 85
2, 7239, Note_on_c, 0, 66, 69
2, 7239, Note_on_c, 0, 57, 75
2, 7242, Note_on_c, 0, 51, 56
2, 7246, Note_on_c, 0, 47, 54
2, 7248, Control_c, 0, 64, 0
2, 7300, Note_on_c, 0, 57, 0
2, 7331, Control_c, 0, 64, 127
2, 7426, Note_on_c, 0, 59, 0
2, 7442, Note_on_c, 0, 66, 0
2, 7451, Note_on_c, 0, 69, 0
2, 7478, Note_on_c, 0, 63, 0
2, 7504, Note_on_c, 0, 67, 66
2, 7508, Control_c, 0, 64, 0
2, 7509, Note_on_c, 0, 51, 0
2, 7509, Note_on_c, 0, 62, 74
2, 7510, Note_on_c, 0, 47, 0
2, 7512, Note_on_c, 0, 57, 71
2, 7522, Note_on_c, 0, 52, 67
2, 7628, Control_c, 0, 64, 127
2, 7671, Note_on_c, 0, 57, 0
2, 7701, Note_on_c, 0, 62, 0
2, 7725, Note_on_c, 0, 67, 0
2, 8710, Note_on_c, 0, 52, 0
2, 8906, Control_c, 0, 64, 0
2, 8944, Note_on_c, 0, 62, 67
2, 8944, Note_on_c, 0, 67, 61
2, 8948, Note_on_c, 0, 59, 61
2, 8952, Note_on_c, 0, 52, 61
2, 8969, Note_on_c, 0, 59, 0
2, 8992, Note_on_c, 0, 62, 0
2, 8993, Note_on_c, 0, 67, 0
2, 9013, Control_c, 0, 64, 127
2, 9034, Note_on_c, 0, 52, 0
2, 9059, Note_on_c, 0, 54, 75
2, 9060, Note_on_c, 0, 69, 75
2, 9067, Note_on_c, 0, 60, 59
2, 9087, Note_on_c, 0, 60, 0
2, 9106, Note_on_c, 0, 69, 0
2, 9140, Note_on_c, 0, 54, 0
2, 9160, Control_c, 0, 64, 0
2, 9184, Note_on_c, 0, 71, 76
2, 9187, Note_on_c, 0, 67, 72
2, 9188, Note_on_c, 0, 62, 72
2, 9191, Note_on_c, 0, 55, 78
2, 9194, Note_on_c, 0, 64, 68
2, 9274, Note_on_c, 0, 62, 0
2, 9282, Note_on_c, 0, 55, 0
2, 9286, Note_on_c, 0, 64, 0
2, 9295, Note_on_c, 0, 67, 0
2, 9297, Note_on_c, 0, 71, 0
2, 9542, Note_on_c, 0, 55, 68
2, 9543, Note_on_c, 0, 67, 56
2, 9544, Note_on_c, 0, 71, 62
2, 9546, Note_on_c, 0, 62, 59
2, 9551, Note_on_c, 0, 64, 47
2, 9871, Control_c, 0, 64, 127
2, 10054, Note_on_c, 0, 62, 0
2, 10090, Note_on_c, 0, 64, 0
2, 10108, Note_on_c, 0, 55, 0
2, 10115, Note_on_c, 0, 67, 0
2, 10146, Note_on_c, 0, 71, 0
2, 10665, Control_c, 0, 64, 0
2, 10686, Note_on_c, 0, 61, 36
2, 10686, Note_on_c, 0, 88, 36
2, 10689, Note_on_c, 0, 65, 35
2, 10690, Control_c, 0, 64, 127
2, 10700, Note_on_c, 0, 60, 38
2, 10700, Note_on_c, 0, 76, 20
2, 10701, Note_on_c, 0, 55, 38
2, 10714, Note_on_c, 0, 58, 30
2, 10714, Note_on_c, 0, 84, 36
2, 10810, Note_on_c, 0, 55, 0
2, 10812, Note_on_c, 0, 84, 0
2, 10822, Note_on_c, 0, 60, 0
2, 10827, Note_on_c, 0, 65, 0
2, 10836, Note_on_c, 0, 76, 0
2, 10837, Note_on_c, 0, 61, 0
2, 10842, Note_on_c, 0, 88, 0
2, 10847, Note_on_c, 0, 58, 0
2, 10970, Note_on_c, 0, 61, 59
2, 10971, Note_on_c, 0, 60, 62
2, 10974, Note_on_c, 0, 65, 68
2, 10978, Note_on_c, 0, 55, 67
2, 10979, Note_on_c, 0, 88, 79
2, 10981, Note_on_c, 0, 76, 68
2, 10984, Note_on_c, 0, 58, 42
2, 11070, Note_on_c, 0, 65, 0
2, 11071, Note_on_c, 0, 55, 0
2, 11074, Note_on_c, 0, 76, 0
2, 11076, Note_on_c, 0, 58, 0
2, 11080, Note_on_c, 0, 60, 0
2, 11081, Note_on_c, 0, 88, 0
2, 11088, Note_on_c, 0, 61, 0
2, 11128, Note_on_c, 0, 65, 54
2, 11128, Note_on_c, 0, 61, 52
2, 11132, Note_on_c, 0, 76, 46
2, 11133, Note_on_c, 0, 88, 56
2, 11136, Note_on_c, 0, 55, 67
2, 11136, Note_on_c, 0, 60, 62
2, 11155, Note_on_c, 0, 58, 36
2, 11255, Note_on_c, 0, 55, 0
2, 11255, Note_on_c, 0, 76, 0
2, 11258, Note_on_c, 0, 65, 0
2, 11260, Note_on_c, 0, 88, 0
2, 11268, Note_on_c, 0, 58, 0
2, 11272, Note_on_c, 0, 60, 0
2, 11277, Note_on_c, 0, 61, 0
2, 11353, Note_on_c, 0, 61, 60
2, 11354, Note_on_c, 0, 60, 68
2, 11354, Note_on_c, 0, 65, 72
2, 11355, Note_on_c, 0, 88, 84
2, 11356, Note_on_c, 0, 76, 83
2, 11360, Note_on_c, 0, 55, 63
2, 11377, Note_on_c, 0, 58, 32
2, 11416, Note_on_c, 0, 65, 0
2, 11429, Note_on_c, 0, 55, 0
2, 11432, Note_on_c, 0, 58, 0
2, 11445, Note_on_c, 0, 88, 0
2, 11445, Note_on_c, 0, 76, 0
2, 11457, Note_on_c, 0, 60, 0
2, 11457, Note_on_c, 0, 61, 0
2, 11503, Note_on_c, 0, 61, 61
2, 11505, Note_on_c, 0, 76, 62
2, 11505, Note_on_c, 0, 60, 55
2, 11506, Note_on_c, 0, 88, 62
2, 11507, Note_on_c, 0, 55, 52
2, 11507, Note_on_c, 0, 65, 61
2, 11525, Note_on_c, 0, 58, 32
2, 11562, Note_on_c, 0, 65, 0
2, 11565, Note_on_c, 0, 76, 0
2, 11585, Note_on_c, 0, 88, 0
2, 11591, Note_on_c, 0, 55, 0
2, 11591, Note_on_c, 0, 61, 0
2, 11595, Note_on_c, 0, 58, 0
2, 11596, Note_on_c, 0, 60, 0
2, 11749, Note_on_c, 0, 61, 68
2, 11750, Note_on_c, 0, 78, 77
2, 11751, Note_on_c, 0, 90, 79
2, 11752, Note_on_c, 0, 60, 66
2, 11753, Note_on_c, 0, 55, 74
2, 11754, Note_on_c, 0, 65, 74
2, 11766, Control_c, 0, 64, 0
2, 11766, Note_on_c, 0, 58, 48
2, 11804, Control_c, 0, 64, 127
2, 11908, Note_on_c, 0, 60, 0
2, 11946, Note_on_c, 0, 90, 0
2, 11953, Note_on_c, 0, 58, 0
2, 11956, Note_on_c, 0, 78, 0
2, 11960, Note_on_c, 0, 65, 0
2, 11976, Note_on_c, 0, 61, 0
2, 12020, Note_on_c, 0, 55, 0
2, 12120, Note_on_c, 0, 91, 81
2, 12122, Note_on_c, 0, 79, 82
2, 12124, Note_on_c, 0, 55, 79
2, 12126, Note_on_c, 0, 61, 74
2, 12126, Note_on_c, 0, 58, 69
2, 12128, Note_on_c, 0, 64, 79
2, 12141, Control_c, 0, 64, 0
2, 12217, Control_c, 0, 64, 127
2, 12245, Note_on_c, 0, 79, 0
2, 12260, Note_on_c, 0, 91, 0
2, 12745, Note_on_c, 0, 61, 0
2, 12774, Note_on_c, 0, 64, 0
2, 12783, Note_on_c, 0, 58, 0
2, 13309, Note_on_c, 0, 55, 0
2, 13769, Note_on_c, 0, 47, 44
2, 13770, Note_on_c, 0, 62, 53
2, 13778, Note_on_c, 0, 59, 53
2, 13779, Note_on_c, 0, 55, 39
2, 13817, Control_c, 0, 64, 0
2, 13865, Note_on_c, 0, 55, 0
2, 13884, Note_on_c, 0, 59, 0
2, 13886, Note_on_c, 0, 47, 0
2, 13907, Note_on_c, 0, 62, 0
2, 14171, Note_on_c, 0, 62, 44
2, 14176, Note_on_c, 0, 47, 38
2, 14180, Note_on_c, 0, 55, 35
2, 14186, Note_on_c, 0, 59, 44
2, 14266, Note_on_c, 0, 55, 0
2, 14277, Note_on_c, 0, 59, 0
2, 14308, Note_on_c, 0, 62, 0
2, 14419, Note_on_c, 0, 47, 0
2, 14592, Control_c, 0, 64, 127
2, 14803, Note_on_c, 0, 62, 88
2, 14808, Note_on_c, 0, 57, 82
2, 14812, Note_on_c, 0, 47, 69
2, 14827, Control_c, 0, 64, 0
2, 14910, Control_c, 0, 64, 127
2, 15002, Note_on_c, 0, 57, 0
2, 15018, Note_on_c, 0, 62, 0
2, 15019, Note_on_c, 0, 47, 0
2, 15045, Note_on_c, 0, 64, 76
2, 15046, Note_on_c, 0, 57, 79
2, 15133, Note_on_c, 0, 57, 0
2, 15172, Note_on_c, 0, 64, 0
2, 15310, Control_c, 0, 64, 0
2, 15318, Note_on_c, 0, 67, 59
2, 15319, Note_on_c, 0, 59, 66
2, 15321, Note_on_c, 0, 40, 47
2, 15327, Note_on_c, 0, 62, 40
2, 15327, Note_on_c, 0, 55, 61
2, 15340, Note_on_c, 0, 52, 28
2, 15399, Control_c, 0, 64, 127
2, 15401, Note_on_c, 0, 40, 0
2, 15432, Note_on_c, 0, 55, 0
2, 15432, Note_on_c, 0, 62, 0
2, 15441, Note_on_c, 0, 59, 0
2, 15468, Note_on_c, 0, 67, 0
2, 15605, Note_on_c, 0, 52, 0
2, 15691, Control_c, 0, 64, 0
2, 15691, Note_on_c, 0, 69, 83
2, 15693, Note_on_c, 0, 54, 86
2, 15694, Note_on_c, 0, 66, 75
2, 15695, Note_on_c, 0, 62, 89
2, 15698, Note_on_c, 0, 57, 84
2, 15806, Control_c, 0, 64, 127
2, 15884, Note_on_c, 0, 57, 0
2, 15910, Note_on_c, 0, 62, 0
2, 15928, Note_on_c, 0, 69, 0
2, 15953, Note_on_c, 0, 66, 0
2, 16065, Control_c, 0, 64, 0
2, 16075, Note_on_c, 0, 71, 66
2, 16082, Note_on_c, 0, 67, 52
2, 16082, Note_on_c, 0, 62, 64
2, 16088, Note_on_c, 0, 55, 66
2, 16088, Note_on_c, 0, 64, 64
2, 16093, Note_on_c, 0, 54, 0
2, 16162, Control_c, 0, 64, 127
2, 16198, Note_on_c, 0, 64, 0
2, 16205, Note_on_c, 0, 62, 0
2, 16221, Note_on_c, 0, 71, 0
2, 16222, Note_on_c, 0, 67, 0
2, 16415, Control_c, 0, 64, 0
2, 16453, Note_on_c, 0, 74, 68
2, 16458, Note_on_c, 0, 64, 62
2, 16461, Note_on_c, 0, 55, 0
2, 16462, Note_on_c, 0, 67, 54
2, 16464, Note_on_c, 0, 59, 51
2, 16468, Note_on_c, 0, 71, 34
2, 16510, Control_c, 0, 64, 127
2, 16511, Note_on_c, 0, 59, 0
2, 16528, Note_on_c, 0, 64, 0
2, 16568, Note_on_c, 0, 67, 0
2, 16585, Note_on_c, 0, 71, 0
2, 16594, Note_on_c, 0, 74, 0
2, 16833, Note_on_c, 0, 75, 69
2, 16841, Note_on_c, 0, 71, 66
2, 16842, Note_on_c, 0, 83, 67
2, 16844, Note_on_c, 0, 79, 55
2, 16845, Note_on_c, 0, 61, 47
2, 16847, Note_on_c, 0, 60, 47
2, 16847, Note_on_c, 0, 65, 59
2, 16860, Control_c, 0, 64, 0
2, 16864, Note_on_c, 0, 55, 49
2, 16983, Note_on_c, 0, 76, 30
2, 16987, Note_on_c, 0, 75, 0
2, 17027, Note_on_c, 0, 71, 0
2, 17037, Note_on_c, 0, 83, 0
2, 17041, Note_on_c, 0, 55, 0
2, 17049, Note_on_c, 0, 65, 0
2, 17051, Note_on_c, 0, 76, 0
2, 17051, Note_on_c, 0, 60, 0
2, 17057, Note_on_c, 0, 61, 0
2, 17058, Note_on_c, 0, 79, 0
2, 17502, Note_on_c, 0, 61, 64
2, 17503, Note_on_c, 0, 60, 79
2, 17507, Note_on_c, 0, 75, 85
2, 17510, Note_on_c, 0, 65, 77
2, 17510, Note_on_c, 0, 55, 73
2, 17511, Note_on_c, 0, 71, 87
2, 17512, Note_on_c, 0, 83, 85
2, 17513, Note_on_c, 0, 79, 74
2, 17521, Note_on_c, 0, 58, 37
2, 17543, Note_on_c, 0, 58, 0
2, 17607, Note_on_c, 0, 76, 43
2, 17636, Note_on_c, 0, 55, 0
2, 17646, Note_on_c, 0, 75, 0
2, 17647, Note_on_c, 0, 71, 0
2, 17648, Note_on_c, 0, 65, 0
2, 17652, Note_on_c, 0, 76, 0
2, 17656, Note_on_c, 0, 79, 0
2, 17657, Note_on_c, 0, 83, 0
2, 17662, Note_on_c, 0, 60, 0
2, 17663, Note_on_c, 0, 61, 0
2, 17718, Note_on_c, 0, 81, 59
2, 17720, Note_on_c, 0, 61, 44
2, 17723, Note_on_c, 0, 60, 50
2, 17725, Note_on_c, 0, 65, 49
2, 17727, Note_on_c, 0, 76, 29
2, 17731, Note_on_c, 0, 55, 58
2, 17733, Note_on_c, 0, 69, 33
2, 17825, Note_on_c, 0, 69, 0
2, 17825, Control_c, 0, 64, 127
2, 17833, Note_on_c, 0, 76, 0
2, 17841, Note_on_c, 0, 65, 0
2, 17844, Note_on_c, 0, 55, 0
2, 17850, Note_on_c, 0, 61, 0
2, 17851, Note_on_c, 0, 60, 0
2, 17852, Note_on_c, 0, 81, 0
2, 17895, Control_c, 0, 64, 0
2, 18254, Note_on_c, 0, 55, 80
2, 18254, Note_on_c, 0, 81, 88
2, 18255, Note_on_c, 0, 59, 71
2, 18256, Note_on_c, 0, 64, 77
2, 18257, Note_on_c, 0, 75, 80
2, 18258, Note_on_c, 0, 60, 78
2, 18259, Note_on_c, 0, 69, 77
2, 18274, Note_on_c, 0, 71, 46
2, 18296, Note_on_c, 0, 71, 0
2, 18383, Note_on_c, 0, 69, 0
2, 18387, Note_on_c, 0, 75, 0
2, 18397, Note_on_c, 0, 76, 27
2, 18404, Note_on_c, 0, 55, 0
2, 18410, Note_on_c, 0, 81, 0
2, 18412, Note_on_c, 0, 59, 0
2, 18417, Note_on_c, 0, 64, 0
2, 18418, Note_on_c, 0, 76, 0
2, 18429, Note_on_c, 0, 60, 0
2, 18487, Note_on_c, 0, 81, 42
2, 18487, Note_on_c, 0, 55, 55
2, 18488, Note_on_c, 0, 64, 46
2, 18489, Note_on_c, 0, 60, 44
2, 18496, Note_on_c, 0, 69, 45
2, 18503, Note_on_c, 0, 75, 62
2, 18640, Note_on_c, 0, 75, 0
2, 18645, Note_on_c, 0, 69, 0
2, 18647, Note_on_c, 0, 76, 36
2, 18648, Note_on_c, 0, 81, 0
2, 18652, Note_on_c, 0, 60, 0
2, 18661, Note_on_c, 0, 64, 0
2, 18672, Note_on_c, 0, 76, 0
2, 18675, Note_on_c, 0, 55, 0
2, 19321, Control_c, 0, 64, 127
2, 19398, Control_c, 0, 64, 0
2, 19409, Note_on_c, 0, 64, 75
2, 19411, Note_on_c, 0, 54, 77
2, 19412, Note_on_c, 0, 81, 80
2, 19412, Note_on_c, 0, 75, 71
2, 19413, Note_on_c, 0, 60, 71
2, 19414, Note_on_c, 0, 69, 77
2, 19499, Note_on_c, 0, 75, 0
2, 19501, Note_on_c, 0, 76, 37
2, 19544, Control_c, 0, 64, 127
2, 19672, Note_on_c, 0, 81, 0
2, 19673, Note_on_c, 0, 64, 0
2, 19674, Note_on_c, 0, 76, 0
2, 19679, Note_on_c, 0, 60, 0
2, 19700, Note_on_c, 0, 69, 0
2, 19711, Note_on_c, 0, 54, 0
2, 20199, Note_on_c, 0, 62, 64
2, 20201, Note_on_c, 0, 55, 70
2, 20209, Note_on_c, 0, 47, 47
2, 20212, Note_on_c, 0, 43, 38
2, 20219, Note_on_c, 0, 59, 46
2, 20275, Note_on_c, 0, 55, 0
2, 20295, Note_on_c, 0, 62, 0
2, 20302, Note_on_c, 0, 59, 0
2, 20318, Control_c, 0, 64, 0
2, 20341, Note_on_c, 0, 64, 52
2, 20349, Note_on_c, 0, 55, 44
2, 20365, Note_on_c, 0, 59, 35
2, 20397, Note_on_c, 0, 55, 0
2, 20403, Note_on_c, 0, 59, 0
2, 20416, Note_on_c, 0, 47, 0
2, 20431, Note_on_c, 0, 64, 0
2, 20452, Note_on_c, 0, 43, 0
2, 20604, Control_c, 0, 64, 127
2, 20655, Control_c, 0, 64, 0
2, 20929, Control_c, 0, 64, 127
2, 21011, Control_c, 0, 64, 0
2, 21072, Note_on_c, 0, 59, 58
2, 21074, Note_on_c, 0, 67, 64
2, 21075, Note_on_c, 0, 63, 57
2, 21076, Note_on_c, 0, 58, 57
2, 21082, Note_on_c, 0, 49, 39
2, 21086, Note_on_c, 0, 53, 51
2, 21182, Note_on_c, 0, 67, 0
2, 21191, Note_on_c, 0, 59, 0
2, 21192, Note_on_c, 0, 53, 0
2, 21199, Note_on_c, 0, 58, 0
2, 21208, Note_on_c, 0, 63, 0
2, 21257, Note_on_c, 0, 49, 0
2, 21453, Note_on_c, 0, 67, 61
2, 21461, Note_on_c, 0, 62, 58
2, 21465, Note_on_c, 0, 55, 45
2, 21466, Note_on_c, 0, 48, 48
2, 21646, Control_c, 0, 64, 127
2, 21920, Note_on_c, 0, 55, 0
2, 22038, Note_on_c, 0, 62, 0
2, 22043, Note_on_c, 0, 48, 0
2, 22106, Note_on_c, 0, 67, 0
2, 22496, Note_on_c, 0, 57, 95
2, 22498, Note_on_c, 0, 67, 80
2, 22498, Note_on_c, 0, 60, 90
2, 22499, Note_on_c, 0, 64, 76
2, 22505, Note_on_c, 0, 50, 75
2, 22509, Note_on_c, 0, 65, 71
2, 22525, Control_c, 0, 64, 0
2, 22531, Note_on_c, 0, 65, 0
2, 22665, Control_c, 0, 64, 127
2, 22790, Note_on_c, 0, 50, 0
2, 22792, Note_on_c, 0, 65, 1
2, 22803, Note_on_c, 0, 60, 0
2, 22812, Note_on_c, 0, 57, 0
2, 22874, Note_on_c, 0, 64, 0
2, 22889, Note_on_c, 0, 65, 0
2, 22889, Note_on_c, 0, 67, 0
2, 22970, Control_c, 0, 64, 0
2, 22984, Note_on_c, 0, 67, 48
2, 22985, Note_on_c, 0, 59, 55
2, 22991, Note_on_c, 0, 62, 58
2, 22994, Note_on_c, 0, 64, 52
2, 23254, Note_on_c, 0, 55, 69
2, 23278, Note_on_c, 0, 55, 0
2, 23750, Note_on_c, 0, 50, 64
2, 23770, Note_on_c, 0, 59, 0
2, 23789, Note_on_c, 0, 62, 0
2, 23810, Note_on_c, 0, 64, 0
2, 23837, Note_on_c, 0, 67, 0
2, 23892, Control_c, 0, 64, 127
2, 24017, Note_on_c, 0, 38, 66
2, 24047, Note_on_c, 0, 38, 0
2, 24065, Note_on_c, 0, 50, 0
2, 24514, Control_c, 0, 64, 0
2, 24518, Note_on_c, 0, 65, 80
2, 24520, Note_on_c, 0, 60, 71
2, 24521, Note_on_c, 0, 61, 58
2, 24523, Note_on_c, 0, 87, 78
2, 24526, Note_on_c, 0, 75, 74
2, 24529, Note_on_c, 0, 55, 69
2, 24534, Note_on_c, 0, 82, 62
2, 24538, Note_on_c, 0, 58, 34
2, 24546, Control_c, 0, 64, 127
2, 24648, Note_on_c, 0, 82, 0
2, 24664, Note_on_c, 0, 55, 0
2, 24671, Note_on_c, 0, 75, 0
2, 24675, Note_on_c, 0, 58, 0
2, 24680, Note_on_c, 0, 65, 0
2, 24686, Note_on_c, 0, 87, 0
2, 24686, Note_on_c, 0, 60, 0
2, 24704, Note_on_c, 0, 61, 0
2, 24770, Note_on_c, 0, 61, 51
2, 24774, Note_on_c, 0, 60, 65
2, 24775, Note_on_c, 0, 89, 75
2, 24780, Note_on_c, 0, 65, 59
2, 24786, Note_on_c, 0, 77, 54
2, 24794, Note_on_c, 0, 55, 38
2, 24801, Note_on_c, 0, 65, 0
2, 24810, Note_on_c, 0, 77, 0
2, 24817, Note_on_c, 0, 55, 0
2, 24823, Note_on_c, 0, 89, 0
2, 24828, Note_on_c, 0, 60, 0
2, 24833, Note_on_c, 0, 61, 0
2, 24844, Control_c, 0, 64, 0
2, 24890, Note_on_c, 0, 61, 42
2, 24893, Note_on_c, 0, 65, 57
2, 24895, Control_c, 0, 64, 127
2, 24896, Note_on_c, 0, 55, 47
2, 24899, Note_on_c, 0, 75, 60
2, 24900, Note_on_c, 0, 87, 63
2, 24904, Note_on_c, 0, 60, 24
2, 24989, Note_on_c, 0, 60, 0
2, 24993, Note_on_c, 0, 55, 0
2, 24997, Note_on_c, 0, 65, 0
2, 25032, Note_on_c, 0, 87, 0
2, 25054, Note_on_c, 0, 75, 0
2, 25055, Note_on_c, 0, 61, 0
2, 25144, Note_on_c, 0, 86, 71
2, 25149, Note_on_c, 0, 64, 66
2, 25150, Note_on_c, 0, 74, 65
2, 25151, Note_on_c, 0, 54, 64
2, 25154, Note_on_c, 0, 60, 62
2, 25168, Control_c, 0, 64, 0
2, 25175, Note_on_c, 0, 60, 0
2, 25194, Note_on_c, 0, 64, 0
2, 25242, Note_on_c, 0, 74, 0
2, 25246, Note_on_c, 0, 54, 0
2, 25255, Note_on_c, 0, 86, 0
2, 25393, Note_on_c, 0, 86, 78
2, 25398, Note_on_c, 0, 82, 78
2, 25402, Note_on_c, 0, 50, 92
2, 25412, Note_on_c, 0, 49, 67
2, 25457, Note_on_c, 0, 82, 0
2, 25458, Note_on_c, 0, 86, 0
2, 25483, Note_on_c, 0, 49, 0
2, 25513, Note_on_c, 0, 83, 80
2, 25514, Note_on_c, 0, 86, 34
2, 25545, Note_on_c, 0, 86, 0
2, 25573, Note_on_c, 0, 83, 0
2, 25636, Note_on_c, 0, 79, 64
2, 25645, Control_c, 0, 64, 127
2, 25695, Note_on_c, 0, 79, 0
2, 25739, Note_on_c, 0, 74, 49
2, 25759, Control_c, 0, 64, 0
2, 25800, Note_on_c, 0, 74, 0
2, 25878, Note_on_c, 0, 79, 61
2, 25882, Note_on_c, 0, 72, 59
2, 25929, Note_on_c, 0, 79, 0
2, 25944, Note_on_c, 0, 72, 0
2, 26032, Note_on_c, 0, 70, 60
2, 26050, Note_on_c, 0, 79, 44
2, 26073, Note_on_c, 0, 70, 0
2, 26091, Note_on_c, 0, 71, 34
2, 26119, Note_on_c, 0, 50, 0
2, 26126, Note_on_c, 0, 79, 0
2, 26127, Note_on_c, 0, 71, 0
2, 26313, Note_on_c, 0, 43, 57
2, 26340, Note_on_c, 0, 43, 0
2, 26425, Note_on_c, 0, 67, 49
2, 26431, Note_on_c, 0, 62, 52
2, 26439, Note_on_c, 0, 57, 32
2, 26447, Note_on_c, 0, 52, 59
2, 26611, Note_on_c, 0, 52, 0
2, 26647, Note_on_c, 0, 67, 0
2, 26666, Note_on_c, 0, 57, 0
2, 26683, Note_on_c, 0, 62, 0
2, 26820, Note_on_c, 0, 67, 60
2, 26825, Note_on_c, 0, 62, 58
2, 26826, Note_on_c, 0, 57, 57
2, 26830, Note_on_c, 0, 52, 51
2, 26921, Control_c, 0, 64, 127
2, 27062, Note_on_c, 0, 67, 0
2, 27063, Note_on_c, 0, 57, 0
2, 27095, Note_on_c, 0, 62, 0
2, 27170, Control_c, 0, 64, 0
2, 27196, Note_on_c, 0, 54, 57
2, 27199, Note_on_c, 0, 52, 0
2, 27202, Note_on_c, 0, 69, 62
2, 27203, Note_on_c, 0, 62, 58
2, 27208, Note_on_c, 0, 57, 54
2, 27297, Control_c, 0, 64, 127
2, 27335, Note_on_c, 0, 57, 0
2, 27398, Note_on_c, 0, 62, 0
2, 27428, Note_on_c, 0, 69, 0
2, 27563, Control_c, 0, 64, 0
2, 27588, Note_on_c, 0, 54, 0
2, 27597, Note_on_c, 0, 71, 53
2, 27599, Note_on_c, 0, 62, 52
2, 27602, Note_on_c, 0, 67, 47
2, 27605, Note_on_c, 0, 55, 60
2, 27610, Note_on_c, 0, 64, 53
2, 27982, Control_c, 0, 64, 127
2, 28076, Note_on_c, 0, 71, 0
2, 28080, Note_on_c, 0, 67, 0
2, 28087, Note_on_c, 0, 62, 0
2, 28120, Note_on_c, 0, 64, 0
2, 28344, Control_c, 0, 64, 0
2, 28367, Note_on_c, 0, 67, 38
2, 28380, Note_on_c, 0, 64, 32
2, 28386, Note_on_c, 0, 62, 24
2, 28409, Note_on_c, 0, 62, 0
2, 28418, Note_on_c, 0, 64, 0
2, 28430, Note_on_c, 0, 55, 0
2, 28447, Note_on_c, 0, 67, 0
2, 28592, Control_c, 0, 64, 127
2, 28630, Control_c, 0, 64, 0
2, 28758, Note_on_c, 0, 78, 85
2, 28760, Note_on_c, 0, 74, 94
2, 28891, Control_c, 0, 64, 127
2, 28977, Note_on_c, 0, 74, 0
2, 29011, Control_c, 0, 64, 0
2, 29016, Note_on_c, 0, 69, 59
2, 29020, Note_on_c, 0, 58, 49
2, 29026, Note_on_c, 0, 64, 36
2, 29060, Note_on_c, 0, 78, 0
2, 29106, Control_c, 0, 64, 127
2, 29380, Note_on_c, 0, 69, 0
2, 29390, Note_on_c, 0, 64, 0
2, 29427, Note_on_c, 0, 58, 0
2, 30088, Note_on_c, 0, 78, 81
2, 30089, Note_on_c, 0, 58, 71
2, 30089, Note_on_c, 0, 90, 78
2, 30091, Note_on_c, 0, 62, 83
2, 30096, Note_on_c, 0, 52, 68
2, 30098, Note_on_c, 0, 56, 33
2, 30110, Note_on_c, 0, 62, 0
2, 30117, Note_on_c, 0, 52, 0
2, 30120, Note_on_c, 0, 56, 0
2, 30122, Note_on_c, 0, 78, 0
2, 30126, Note_on_c, 0, 90, 0
2, 30130, Note_on_c, 0, 58, 0
2, 30135, Control_c, 0, 64, 0
2, 30195, Note_on_c, 0, 78, 67
2, 30202, Note_on_c, 0, 90, 67
2, 30205, Note_on_c, 0, 58, 70
2, 30210, Note_on_c, 0, 62, 68
2, 30214, Note_on_c, 0, 52, 62
2, 30224, Note_on_c, 0, 90, 0
2, 30230, Note_on_c, 0, 62, 0
2, 30230, Note_on_c, 0, 58, 0
2, 30235, Note_on_c, 0, 52, 0
2, 30236, Note_on_c, 0, 78, 0
2, 30371, Control_c, 0, 64, 127
2, 30409, Control_c, 0, 64, 0
2, 30445, Note_on_c, 0, 91, 73
2, 30447, Note_on_c, 0, 52, 78
2, 30447, Note_on_c, 0, 58, 71
2, 30449, Note_on_c, 0, 79, 73
2, 30449, Note_on_c, 0, 62, 79
2, 30460, Note_on_c, 0, 90, 44
2, 30482, Note_on_c, 0, 90, 0
2, 30488, Note_on_c, 0, 62, 0
2, 30494, Note_on_c, 0, 79, 0
2, 30497, Note_on_c, 0, 91, 0
2, 30500, Note_on_c, 0, 58, 0
2, 30501, Note_on_c, 0, 52, 0
2, 30504, Control_c, 0, 64, 127
2, 30538, Note_on_c, 0, 52, 41
2, 30543, Note_on_c, 0, 79, 58
2, 30547, Note_on_c, 0, 91, 60
2, 30547, Note_on_c, 0, 62, 48
2, 30548, Note_on_c, 0, 58, 47
2, 30579, Note_on_c, 0, 62, 0
2, 30591, Note_on_c, 0, 79, 0
2, 30596, Note_on_c, 0, 52, 0
2, 30604, Note_on_c, 0, 91, 0
2, 30626, Note_on_c, 0, 58, 0
2, 30651, Control_c, 0, 64, 0
2, 30669, Note_on_c, 0, 51, 73
2, 30670, Note_on_c, 0, 60, 78
2, 30673, Note_on_c, 0, 93, 80
2, 30676, Note_on_c, 0, 81, 74
2, 30676, Note_on_c, 0, 57, 66
2, 30720, Note_on_c, 0, 93, 0
2, 30726, Note_on_c, 0, 81, 0
2, 30727, Note_on_c, 0, 60, 0
2, 30751, Note_on_c, 0, 57, 0
2, 30766, Note_on_c, 0, 51, 0
2, 30809, Control_c, 0, 64, 127
2, 30835, Control_c, 0, 64, 0
2, 31050, Control_c, 0, 64, 127
2, 31374, Control_c, 0, 64, 0
2, 31406, Note_on_c, 0, 66, 92
2, 31409, Note_on_c, 0, 62, 82
2, 31409, Note_on_c, 0, 63, 86
2, 31410, Note_on_c, 0, 74, 92
2, 31411, Note_on_c, 0, 73, 43
2, 31507, Control_c, 0, 64, 127
2, 31709, Note_on_c, 0, 62, 0
2, 31715, Note_on_c, 0, 63, 0
2, 31737, Note_on_c, 0, 74, 0
2, 31742, Note_on_c, 0, 66, 0
2, 31743, Note_on_c, 0, 73, 0
2, 31756, Control_c, 0, 64, 0
2, 31776, Note_on_c, 0, 66, 35
2, 31777, Note_on_c, 0, 63, 45
2, 31781, Note_on_c, 0, 72, 61
2, 31790, Note_on_c, 0, 60, 62
2, 31819, Control_c, 0, 64, 127
2, 32035, Note_on_c, 0, 72, 0
2, 32069, Note_on_c, 0, 63, 0
2, 32096, Note_on_c, 0, 66, 0
2, 32104, Note_on_c, 0, 60, 0
2, 32174, Control_c, 0, 64, 0
2, 32180, Note_on_c, 0, 71, 36
2, 32189, Note_on_c, 0, 66, 35
2, 32193, Note_on_c, 0, 59, 22
2, 32198, Note_on_c, 0, 62, 17
2, 32199, Note_on_c, 0, 52, 24
2, 32486, Control_c, 0, 64, 127
2, 32563, Note_on_c, 0, 62, 0
2, 32596, Note_on_c, 0, 66, 0
2, 32621, Note_on_c, 0, 52, 0
2, 32626, Note_on_c, 0, 59, 0
2, 32628, Note_on_c, 0, 71, 0
2, 32852, Note_on_c, 0, 63, 86
2, 32858, Note_on_c, 0, 79, 83
2, 32862, Note_on_c, 0, 74, 82
2, 32863, Note_on_c, 0, 67, 85
2, 32873, Control_c, 0, 64, 0
2, 33000, Control_c, 0, 64, 127
2, 33010, Note_on_c, 0, 79, 0
2, 33015, Note_on_c, 0, 67, 0
2, 33027, Note_on_c, 0, 63, 0
2, 33029, Note_on_c, 0, 74, 0
2, 33080, Note_on_c, 0, 63, 64
2, 33091, Note_on_c, 0, 79, 74
2, 33093, Note_on_c, 0, 74, 63
2, 33096, Note_on_c, 0, 67, 65
2, 33264, Note_on_c, 0, 67, 0
2, 33279, Note_on_c, 0, 79, 0
2, 33292, Note_on_c, 0, 63, 0
2, 33297, Note_on_c, 0, 74, 0
2, 33350, Control_c, 0, 64, 0
2, 33360, Note_on_c, 0, 62, 66
2, 33361, Note_on_c, 0, 81, 78
2, 33365, Note_on_c, 0, 74, 50
2, 33370, Note_on_c, 0, 69, 66
2, 33432, Control_c, 0, 64, 127
2, 33529, Note_on_c, 0, 69, 0
2, 33532, Note_on_c, 0, 74, 0
2, 33559, Note_on_c, 0, 81, 0
2, 33559, Note_on_c, 0, 62, 0
2, 33619, Note_on_c, 0, 62, 54
2, 33625, Note_on_c, 0, 83, 78
2, 33629, Note_on_c, 0, 76, 58
2, 33631, Note_on_c, 0, 52, 51
2, 33633, Note_on_c, 0, 71, 48
2, 33634, Note_on_c, 0, 59, 57
2, 33648, Control_c, 0, 64, 0
2, 33650, Note_on_c, 0, 76, 0
2, 33655, Note_on_c, 0, 71, 0
2, 33655, Note_on_c, 0, 59, 0
2, 33657, Note_on_c, 0, 62, 0
2, 33657, Note_on_c, 0, 52, 0
2, 33675, Note_on_c, 0, 83, 0
2, 33814, Control_c, 0, 64, 127
2, 34000, Note_on_c, 0, 58, 56
2, 34004, Note_on_c, 0, 59, 80
2, 34005, Note_on_c, 0, 71, 74
2, 34011, Note_on_c, 0, 62, 74
2, 34013, Note_on_c, 0, 67, 62
2, 34014, Note_on_c, 0, 64, 66
2, 34022, Note_on_c, 0, 58, 0
2, 34042, Control_c, 0, 64, 0
2, 34060, Note_on_c, 0, 59, 0
2, 34071, Note_on_c, 0, 67, 0
2, 34076, Note_on_c, 0, 71, 0
2, 34084, Note_on_c, 0, 62, 0
2, 34086, Note_on_c, 0, 64, 0
2, 34190, Note_on_c, 0, 67, 48
2, 34197, Note_on_c, 0, 59, 45
2, 34223, Note_on_c, 0, 62, 30
2, 34224, Note_on_c, 0, 55, 32
2, 34271, Control_c, 0, 64, 127
2, 34331, Note_on_c, 0, 62, 0
2, 34336, Note_on_c, 0, 55, 0
2, 34364, Note_on_c, 0, 67, 0
2, 34399, Note_on_c, 0, 59, 0
2, 34499, Control_c, 0, 64, 0
2, 34507, Note_on_c, 0, 66, 55
2, 34516, Note_on_c, 0, 59, 54
2, 34517, Note_on_c, 0, 51, 46
2, 34556, Note_on_c, 0, 55, 9
2, 34620, Control_c, 0, 64, 127
2, 34659, Note_on_c, 0, 59, 0
2, 34666, Note_on_c, 0, 55, 0
2, 34718, Note_on_c, 0, 66, 0
2, 34736, Note_on_c, 0, 51, 0
2, 34765, Note_on_c, 0, 67, 71
2, 34770, Note_on_c, 0, 55, 77
2, 34781, Note_on_c, 0, 61, 57
2, 34783, Note_on_c, 0, 57, 57
2, 34784, Note_on_c, 0, 59, 61
2, 34835, Note_on_c, 0, 59, 0
2, 34844, Note_on_c, 0, 57, 0
2, 34862, Note_on_c, 0, 61, 0
2, 34874, Control_c, 0, 64, 0
2, 34897, Note_on_c, 0, 67, 0
2, 34912, Note_on_c, 0, 55, 0
2, 34925, Note_on_c, 0, 52, 48
2, 35007, Control_c, 0, 64, 127
2, 35127, Note_on_c, 0, 52, 0
2, 35144, Note_on_c, 0, 64, 64
2, 35149, Note_on_c, 0, 58, 67
2, 35153, Note_on_c, 0, 61, 64
2, 35153, Note_on_c, 0, 55, 71
2, 35156, Note_on_c, 0, 45, 68
2, 35172, Control_c, 0, 64, 0
2, 35294, Control_c, 0, 64, 127
2, 35532, Note_on_c, 0, 49, 36
2, 35564, Note_on_c, 0, 55, 0
2, 35578, Note_on_c, 0, 58, 0
2, 35608, Note_on_c, 0, 61, 0
2, 35622, Note_on_c, 0, 64, 0
2, 35655, Note_on_c, 0, 49, 0
2, 35713, Control_c, 0, 64, 0
2, 35902, Note_on_c, 0, 45, 0
2, 35944, Note_on_c, 0, 49, 81
2, 35944, Note_on_c, 0, 64, 77
2, 35949, Note_on_c, 0, 61, 71
2, 35949, Note_on_c, 0, 58, 77
2, 35950, Note_on_c, 0, 55, 89
2, 36058, Note_on_c, 0, 55, 0
2, 36072, Note_on_c, 0, 61, 0
2, 36078, Note_on_c, 0, 58, 0
2, 36079, Note_on_c, 0, 49, 0
2, 36121, Note_on_c, 0, 49, 60
2, 36128, Note_on_c, 0, 58, 50
2, 36133, Note_on_c, 0, 55, 62
2, 36138, Note_on_c, 0, 61, 39
2, 36144, Control_c, 0, 64, 127
2, 36344, Note_on_c, 0, 61, 0
2, 36349, Note_on_c, 0, 55, 0
2, 36362, Note_on_c, 0, 58, 0
2, 36422, Note_on_c, 0, 64, 0
2, 36429, Note_on_c, 0, 49, 0
2, 36463, Note_on_c, 0, 66, 67
2, 36466, Note_on_c, 0, 51, 64
2, 36468, Control_c, 0, 64, 0
2, 36471, Note_on_c, 0, 58, 51
2, 36472, Note_on_c, 0, 61, 56
2, 36475, Note_on_c, 0, 55, 50
2, 36566, Note_on_c, 0, 55, 0
2, 36570, Control_c, 0, 64, 127
2, 36578, Note_on_c, 0, 61, 0
2, 36584, Note_on_c, 0, 58, 0
2, 36632, Note_on_c, 0, 66, 0
2, 36710, Note_on_c, 0, 67, 62
2, 36716, Note_on_c, 0, 58, 69
2, 36717, Note_on_c, 0, 61, 69
2, 36719, Note_on_c, 0, 64, 59
2, 36723, Control_c, 0, 64, 0
2, 36727, Note_on_c, 0, 52, 76
2, 36732, Note_on_c, 0, 51, 0
2, 36844, Control_c, 0, 64, 127
2, 36878, Note_on_c, 0, 67, 0
2, 36883, Note_on_c, 0, 64, 0
2, 36896, Note_on_c, 0, 61, 0
2, 36907, Note_on_c, 0, 58, 0
2, 36915, Note_on_c, 0, 52, 0
2, 37082, Note_on_c, 0, 70, 75
2, 37082, Note_on_c, 0, 55, 74
2, 37088, Note_on_c, 0, 61, 69
2, 37091, Note_on_c, 0, 64, 74
2, 37092, Note_on_c, 0, 67, 66
2, 37097, Control_c, 0, 64, 0
2, 37205, Control_c, 0, 64, 127
2, 37206, Note_on_c, 0, 61, 0
2, 37210, Note_on_c, 0, 64, 0
2, 37211, Note_on_c, 0, 67, 0
2, 37231, Note_on_c, 0, 70, 0
2, 37279, Note_on_c, 0, 55, 0
2, 37608, Note_on_c, 0, 84, 83
2, 37609, Note_on_c, 0, 76, 80
2, 37612, Control_c, 0, 64, 0
2, 37613, Note_on_c, 0, 73, 74
2, 37615, Note_on_c, 0, 72, 78
2, 37621, Note_on_c, 0, 79, 56
2, 37623, Note_on_c, 0, 82, 53
2, 37676, Control_c, 0, 64, 127
2, 37688, Note_on_c, 0, 79, 0
2, 37693, Note_on_c, 0, 82, 0
2, 37695, Note_on_c, 0, 84, 0
2, 37700, Note_on_c, 0, 76, 0
2, 37710, Note_on_c, 0, 72, 0
2, 37755, Note_on_c, 0, 73, 0
2, 37856, Note_on_c, 0, 73, 74
2, 37859, Note_on_c, 0, 81, 79
2, 37860, Note_on_c, 0, 69, 71
2, 37860, Note_on_c, 0, 70, 68
2, 37867, Note_on_c, 0, 76, 61
2, 37905, Control_c, 0, 64, 0
2, 37936, Note_on_c, 0, 76, 0
2, 37944, Note_on_c, 0, 81, 0
2, 37960, Note_on_c, 0, 73, 0
2, 37960, Note_on_c, 0, 70, 0
2, 37976, Note_on_c, 0, 69, 0
2, 38001, Control_c, 0, 64, 127
2, 38006, Note_on_c, 0, 66, 37
2, 38012, Note_on_c, 0, 70, 62
2, 38020, Note_on_c, 0, 76, 28
2, 38026, Note_on_c, 0, 73, 53
2, 38028, Note_on_c, 0, 66, 0
2, 38100, Note_on_c, 0, 76, 0
2, 38121, Note_on_c, 0, 78, 25
2, 38124, Note_on_c, 0, 73, 0
2, 38141, Note_on_c, 0, 70, 0
2, 38150, Note_on_c, 0, 78, 0
2, 38245, Note_on_c, 0, 54, 67
2, 38335, Note_on_c, 0, 54, 0
2, 38350, Control_c, 0, 64, 0
2, 38363, Note_on_c, 0, 74, 61
2, 38368, Note_on_c, 0, 55, 69
2, 38375, Note_on_c, 0, 67, 60
2, 38390, Note_on_c, 0, 62, 59
2, 38502, Control_c, 0, 64, 127
2, 38523, Note_on_c, 0, 67, 0
2, 38535, Note_on_c, 0, 62, 0
2, 38583, Note_on_c, 0, 74, 0
2, 38609, Note_on_c, 0, 62, 60
2, 38618, Note_on_c, 0, 71, 64
2, 38619, Note_on_c, 0, 47, 70
2, 38620, Note_on_c, 0, 67, 62
2, 38656, Control_c, 0, 64, 0
2, 38708, Note_on_c, 0, 67, 0
2, 38736, Note_on_c, 0, 62, 0
2, 38761, Note_on_c, 0, 71, 0
2, 38780, Note_on_c, 0, 67, 29
2, 38782, Control_c, 0, 64, 127
2, 38825, Note_on_c, 0, 67, 0
2, 38921, Note_on_c, 0, 47, 0
2, 39004, Note_on_c, 0, 47, 55
2, 39051, Note_on_c, 0, 55, 0
2, 39078, Note_on_c, 0, 47, 0
2, 39119, Control_c, 0, 64, 0
2, 39128, Note_on_c, 0, 57, 74
2, 39128, Note_on_c, 0, 62, 71
2, 39151, Note_on_c, 0, 47, 66
2, 39246, Note_on_c, 0, 47, 0
2, 39288, Note_on_c, 0, 57, 0
2, 39301, Note_on_c, 0, 62, 0
2, 39506, Note_on_c, 0, 64, 59
2, 39515, Note_on_c, 0, 47, 54
2, 39516, Note_on_c, 0, 57, 54
2, 39525, Note_on_c, 0, 62, 53
2, 39625, Note_on_c, 0, 47, 0
2, 39626, Note_on_c, 0, 62, 0
2, 39644, Note_on_c, 0, 57, 0
2, 39654, Note_on_c, 0, 64, 0
2, 39716, Control_c, 0, 64, 127
2, 39862, Control_c, 0, 64, 0
2, 39895, Note_on_c, 0, 62, 57
2, 39898, Note_on_c, 0, 67, 49
2, 39899, Note_on_c, 0, 40, 50
2, 39901, Note_on_c, 0, 55, 56
2, 39915, Note_on_c, 0, 52, 37
2, 39995, Control_c, 0, 64, 127
2, 40008, Note_on_c, 0, 40, 0
2, 40023, Note_on_c, 0, 55, 0
2, 40057, Note_on_c, 0, 67, 0
2, 40061, Note_on_c, 0, 62, 0
2, 40226, Note_on_c, 0, 52, 0
2, 40281, Control_c, 0, 64, 0
2, 40283, Note_on_c, 0, 54, 91
2, 40283, Note_on_c, 0, 66, 77
2, 40285, Note_on_c, 0, 69, 88
2, 40285, Note_on_c, 0, 62, 91
2, 40288, Note_on_c, 0, 57, 87
2, 40415, Control_c, 0, 64, 127
2, 40468, Note_on_c, 0, 57, 0
2, 40496, Note_on_c, 0, 62, 0
2, 40513, Note_on_c, 0, 69, 0
2, 40534, Note_on_c, 0, 66, 0
2, 40631, Control_c, 0, 64, 0
2, 40650, Note_on_c, 0, 54, 0
2, 40658, Note_on_c, 0, 71, 66
2, 40666, Note_on_c, 0, 67, 44
2, 40669, Note_on_c, 0, 55, 66
2, 40671, Note_on_c, 0, 64, 48
2, 40678, Note_on_c, 0, 62, 42
2, 40679, Note_on_c, 0, 60, 46
2, 40700, Note_on_c, 0, 60, 0
2, 40703, Note_on_c, 0, 62, 0
2, 40716, Note_on_c, 0, 64, 0
2, 40720, Control_c, 0, 64, 127
2, 40736, Note_on_c, 0, 67, 0
2, 40747, Note_on_c, 0, 71, 0
2, 40924, Note_on_c, 0, 74, 68
2, 40932, Note_on_c, 0, 71, 60
2, 40934, Note_on_c, 0, 64, 60
2, 40934, Note_on_c, 0, 67, 62
2, 40935, Note_on_c, 0, 59, 69
2, 40937, Control_c, 0, 64, 0
2, 40954, Note_on_c, 0, 55, 0
2, 41008, Note_on_c, 0, 59, 0
2, 41008, Control_c, 0, 64, 127
2, 41065, Note_on_c, 0, 64, 0
2, 41118, Note_on_c, 0, 67, 0
2, 41134, Note_on_c, 0, 71, 0
2, 41150, Note_on_c, 0, 74, 0
2, 41450, Note_on_c, 0, 82, 81
2, 41451, Note_on_c, 0, 70, 86
2, 41456, Note_on_c, 0, 60, 77
2, 41459, Control_c, 0, 64, 0
2, 41459, Note_on_c, 0, 61, 62
2, 41460, Note_on_c, 0, 75, 68
2, 41464, Note_on_c, 0, 65, 71
2, 41470, Note_on_c, 0, 55, 60
2, 41474, Note_on_c, 0, 58, 34
2, 41476, Note_on_c, 0, 78, 25
2, 41480, Note_on_c, 0, 75, 0
2, 41485, Note_on_c, 0, 65, 0
2, 41498, Note_on_c, 0, 78, 0
2, 41502, Note_on_c, 0, 58, 0
2, 41527, Note_on_c, 0, 70, 0
2, 41541, Note_on_c, 0, 82, 0
2, 41547, Note_on_c, 0, 65, 32
2, 41548, Note_on_c, 0, 75, 7
2, 41561, Note_on_c, 0, 83, 64
2, 41564, Note_on_c, 0, 71, 53
2, 41578, Note_on_c, 0, 75, 0
2, 41596, Note_on_c, 0, 76, 38
2, 41746, Note_on_c, 0, 55, 0
2, 41748, Note_on_c, 0, 83, 0
2, 41748, Note_on_c, 0, 71, 0
2, 41751, Note_on_c, 0, 65, 0
2, 41765, Note_on_c, 0, 76, 0
2, 41767, Note_on_c, 0, 60, 0
2, 41772, Note_on_c, 0, 61, 0
2, 41826, Note_on_c, 0, 61, 38
2, 41829, Note_on_c, 0, 65, 47
2, 41830, Note_on_c, 0, 81, 63
2, 41832, Note_on_c, 0, 76, 34
2, 41834, Note_on_c, 0, 60, 47
2, 41841, Note_on_c, 0, 55, 46
2, 41843, Note_on_c, 0, 69, 34
2, 41925, Note_on_c, 0, 69, 0
2, 41936, Note_on_c, 0, 76, 0
2, 41950, Note_on_c, 0, 65, 0
2, 41952, Note_on_c, 0, 55, 0
2, 41953, Note_on_c, 0, 60, 0
2, 41954, Note_on_c, 0, 81, 0
2, 41958, Note_on_c, 0, 61, 0
2, 42573, Note_on_c, 0, 60, 72
2, 42578, Note_on_c, 0, 94, 83
2, 42579, Note_on_c, 0, 65, 72
2, 42580, Note_on_c, 0, 61, 57
2, 42581, Note_on_c, 0, 55, 74
2, 42582, Note_on_c, 0, 82, 79
2, 42585, Note_on_c, 0, 87, 77
2, 42685, Note_on_c, 0, 65, 0
2, 42688, Note_on_c, 0, 94, 0
2, 42694, Note_on_c, 0, 82, 0
2, 42703, Note_on_c, 0, 95, 46
2, 42706, Note_on_c, 0, 65, 30
2, 42715, Note_on_c, 0, 83, 46
2, 42732, Note_on_c, 0, 87, 0
2, 42797, Note_on_c, 0, 95, 0
2, 42797, Note_on_c, 0, 83, 0
2, 42799, Note_on_c, 0, 65, 0
2, 42806, Note_on_c, 0, 55, 0
2, 42812, Note_on_c, 0, 60, 0
2, 42836, Note_on_c, 0, 61, 0
2, 43211, Note_on_c, 0, 81, 76
2, 43212, Note_on_c, 0, 93, 80
2, 43215, Note_on_c, 0, 88, 68
2, 43218, Note_on_c, 0, 60, 74
2, 43219, Note_on_c, 0, 64, 73
2, 43220, Note_on_c, 0, 54, 74
2, 43240, Note_on_c, 0, 88, 0
2, 43263, Note_on_c, 0, 93, 0
2, 43286, Note_on_c, 0, 64, 0
2, 43292, Note_on_c, 0, 81, 0
2, 43294, Note_on_c, 0, 60, 0
2, 43323, Note_on_c, 0, 54, 0
2, 43474, Note_on_c, 0, 38, 44
2, 43476, Note_on_c, 0, 36, 57
2, 43498, Note_on_c, 0, 36, 0
2, 43507, Note_on_c, 0, 38, 0
2, 43852, Note_on_c, 0, 60, 85
2, 43856, Note_on_c, 0, 74, 74
2, 43858, Note_on_c, 0, 70, 74
2, 43859, Note_on_c, 0, 65, 82
2, 43861, Note_on_c, 0, 54, 74
2, 43893, Note_on_c, 0, 60, 0
2, 43903, Note_on_c, 0, 65, 0
2, 43912, Note_on_c, 0, 74, 0
2, 43915, Note_on_c, 0, 70, 0
2, 43921, Note_on_c, 0, 54, 0
2, 44079, Note_on_c, 0, 54, 69
2, 44081, Note_on_c, 0, 68, 62
2, 44082, Note_on_c, 0, 44, 55
2, 44083, Note_on_c, 0, 63, 62
2, 44087, Note_on_c, 0, 60, 58
2, 44134, Control_c, 0, 64, 127
2, 44238, Note_on_c, 0, 63, 0
2, 44252, Note_on_c, 0, 60, 0
2, 44262, Note_on_c, 0, 54, 0
2, 44280, Note_on_c, 0, 44, 0
2, 44287, Note_on_c, 0, 68, 0
2, 44337, Note_on_c, 0, 62, 55
2, 44343, Note_on_c, 0, 59, 54
2, 44345, Note_on_c, 0, 54, 57
2, 44350, Note_on_c, 0, 43, 48
2, 44363, Control_c, 0, 64, 0
2, 44503, Control_c, 0, 64, 127
2, 44742, Note_on_c, 0, 54, 0
2, 44746, Note_on_c, 0, 59, 0
2, 44761, Note_on_c, 0, 50, 36
2, 44773, Note_on_c, 0, 62, 0
2, 44850, Note_on_c, 0, 62, 43
2, 44850, Note_on_c, 0, 64, 48
2, 44851, Note_on_c, 0, 54, 48
2, 44852, Note_on_c, 0, 59, 52
2, 44858, Control_c, 0, 64, 0
2, 44865, Note_on_c, 0, 43, 0
2, 44910, Note_on_c, 0, 50, 0
2, 44986, Note_on_c, 0, 54, 0
2, 45011, Control_c, 0, 64, 127
2, 45037, Note_on_c, 0, 64, 0
2, 45085, Note_on_c, 0, 59, 0
2, 45136, Note_on_c, 0, 62, 0
2, 45232, Control_c, 0, 64, 0
2, 45240, Note_on_c, 0, 59, 45
2, 45243, Note_on_c, 0, 67, 43
2, 45253, Note_on_c, 0, 63, 46
2, 45254, Note_on_c, 0, 53, 42
2, 45257, Note_on_c, 0, 58, 32
2, 45259, Note_on_c, 0, 49, 29
2, 45359, Note_on_c, 0, 58, 0
2, 45361, Note_on_c, 0, 67, 0
2, 45368, Note_on_c, 0, 53, 0
2, 45372, Note_on_c, 0, 59, 0
2, 45372, Note_on_c, 0, 63, 0
2, 45402, Note_on_c, 0, 49, 0
2, 45630, Note_on_c, 0, 59, 41
2, 45632, Note_on_c, 0, 63, 38
2, 45642, Note_on_c, 0, 49, 30
2, 45647, Note_on_c, 0, 58, 31
2, 45653, Note_on_c, 0, 53, 43
2, 45662, Note_on_c, 0, 67, 24
2, 45746, Note_on_c, 0, 67, 0
2, 45772, Note_on_c, 0, 59, 0
2, 45776, Note_on_c, 0, 53, 0
2, 45815, Note_on_c, 0, 58, 0
2, 45828, Note_on_c, 0, 63, 0
2, 45865, Note_on_c, 0, 49, 0
2, 45907, Control_c, 0, 64, 127
2, 45932, Control_c, 0, 64, 0
2, 46024, Note_on_c, 0, 67, 43
2, 46031, Note_on_c, 0, 57, 42
2, 46032, Note_on_c, 0, 48, 38
2, 46033, Note_on_c, 0, 62, 44
2, 46042, Note_on_c, 0, 55, 38
2, 46421, Control_c, 0, 64, 127
2, 46619, Note_on_c, 0, 57, 0
2, 46710, Note_on_c, 0, 48, 0
2, 46711, Note_on_c, 0, 62, 0
2, 46716, Note_on_c, 0, 55, 0
2, 46770, Note_on_c, 0, 67, 0
2, 47047, Note_on_c, 0, 63, 73
2, 47050, Note_on_c, 0, 67, 71
2, 47056, Note_on_c, 0, 60, 64
2, 47059, Note_on_c, 0, 57, 64
2, 47062, Control_c, 0, 64, 0
2, 47064, Note_on_c, 0, 50, 58
2, 47089, Note_on_c, 0, 60, 0
2, 47109, Note_on_c, 0, 63, 0
2, 47121, Note_on_c, 0, 57, 0
2, 47123, Note_on_c, 0, 64, 35
2, 47146, Note_on_c, 0, 50, 0
2, 47154, Note_on_c, 0, 64, 0
2, 47162, Note_on_c, 0, 67, 0
2, 47253, Control_c, 0, 64, 127
2, 47282, Note_on_c, 0, 63, 64
2, 47285, Note_on_c, 0, 67, 53
2, 47288, Note_on_c, 0, 60, 68
2, 47301, Note_on_c, 0, 57, 44
2, 47302, Note_on_c, 0, 50, 54
2, 47326, Note_on_c, 0, 57, 0
2, 47349, Note_on_c, 0, 50, 0
2, 47412, Note_on_c, 0, 60, 0
2, 47420, Note_on_c, 0, 64, 27
2, 47431, Note_on_c, 0, 67, 0
2, 47440, Note_on_c, 0, 63, 0
2, 47455, Note_on_c, 0, 64, 0
2, 47551, Control_c, 0, 64, 0
2, 47554, Note_on_c, 0, 62, 58
2, 47556, Note_on_c, 0, 67, 49
2, 47558, Note_on_c, 0, 59, 53
2, 47820, Note_on_c, 0, 50, 83
2, 47907, Control_c, 0, 64, 127
2, 47991, Note_on_c, 0, 50, 0
2, 48081, Note_on_c, 0, 59, 0
2, 48153, Note_on_c, 0, 67, 0
2, 48199, Note_on_c, 0, 62, 0
2, 48300, Control_c, 0, 64, 0
2, 48329, Note_on_c, 0, 67, 60
2, 48333, Note_on_c, 0, 53, 47
2, 48334, Note_on_c, 0, 59, 54
2, 48335, Note_on_c, 0, 63, 56
2, 48340, Note_on_c, 0, 58, 50
2, 48343, Note_on_c, 0, 49, 36
2, 48378, Note_on_c, 0, 58, 0
2, 48389, Note_on_c, 0, 59, 0
2, 48389, Note_on_c, 0, 53, 0
2, 48392, Note_on_c, 0, 67, 0
2, 48392, Note_on_c, 0, 63, 0
2, 48408, Note_on_c, 0, 49, 0
2, 48583, Note_on_c, 0, 53, 55
2, 48584, Note_on_c, 0, 59, 57
2, 48587, Note_on_c, 0, 63, 65
2, 48589, Note_on_c, 0, 49, 39
2, 48591, Note_on_c, 0, 58, 62
2, 48596, Note_on_c, 0, 67, 54
2, 48617, Note_on_c, 0, 67, 0
2, 48620, Note_on_c, 0, 58, 0
2, 48631, Note_on_c, 0, 59, 0
2, 48637, Note_on_c, 0, 63, 0
2, 48640, Note_on_c, 0, 53, 0
2, 48651, Note_on_c, 0, 49, 0
2, 48726, Note_on_c, 0, 59, 36
2, 48730, Note_on_c, 0, 53, 39
2, 48731, Note_on_c, 0, 63, 53
2, 48731, Note_on_c, 0, 49, 36
2, 48739, Note_on_c, 0, 67, 40
2, 48741, Note_on_c, 0, 58, 31
2, 48763, Note_on_c, 0, 58, 0
2, 48765, Note_on_c, 0, 67, 0
2, 48776, Note_on_c, 0, 59, 0
2, 48783, Note_on_c, 0, 63, 0
2, 48788, Note_on_c, 0, 49, 0
2, 48791, Note_on_c, 0, 53, 0
2, 48930, Control_c, 0, 64, 127
2, 48953, Note_on_c, 0, 49, 69
2, 48967, Note_on_c, 0, 63, 62
2, 48971, Note_on_c, 0, 58, 61
2, 48977, Note_on_c, 0, 67, 49
2, 49001, Note_on_c, 0, 67, 0
2, 49012, Note_on_c, 0, 63, 0
2, 49025, Note_on_c, 0, 58, 0
2, 49047, Note_on_c, 0, 49, 0
2, 49076, Control_c, 0, 64, 0
2, 49116, Note_on_c, 0, 62, 64
2, 49120, Note_on_c, 0, 48, 50
2, 49121, Note_on_c, 0, 69, 64
2, 49124, Note_on_c, 0, 58, 37
2, 49261, Note_on_c, 0, 48, 0
2, 49267, Note_on_c, 0, 62, 0
2, 49281, Note_on_c, 0, 58, 0
2, 49283, Note_on_c, 0, 69, 0
2, 49457, Note_on_c, 0, 58, 36
2, 49457, Note_on_c, 0, 48, 48
2, 49466, Note_on_c, 0, 62, 62
2, 49467, Note_on_c, 0, 66, 42
2, 49469, Note_on_c, 0, 69, 60
2, 49476, Control_c, 0, 64, 127
2, 49538, Note_on_c, 0, 62, 0
2, 49554, Note_on_c, 0, 48, 0
2, 49565, Note_on_c, 0, 69, 0
2, 49575, Note_on_c, 0, 58, 0
2, 49588, Note_on_c, 0, 66, 0
2, 49728, Note_on_c, 0, 66, 55
2, 49730, Note_on_c, 0, 71, 62
2, 49736, Control_c, 0, 64, 0
2, 49740, Note_on_c, 0, 64, 65
2, 49741, Note_on_c, 0, 59, 54
2, 49742, Note_on_c, 0, 51, 42
2, 49744, Note_on_c, 0, 47, 46
2, 49746, Note_on_c, 0, 57, 37
2, 49838, Control_c, 0, 64, 127
2, 50135, Note_on_c, 0, 47, 0
2, 50157, Note_on_c, 0, 51, 0
2, 50187, Note_on_c, 0, 57, 0
2, 50194, Note_on_c, 0, 59, 0
2, 50271, Note_on_c, 0, 64, 0
2, 50328, Note_on_c, 0, 66, 0
2, 50500, Note_on_c, 0, 71, 0
2, 50607, Note_on_c, 0, 52, 47
2, 50609, Note_on_c, 0, 59, 26
2, 50613, Control_c, 0, 64, 0
2, 50622, Note_on_c, 0, 55, 37
2, 50695, Control_c, 0, 64, 127
2, 50944, Control_c, 0, 64, 0
2, 50977, Note_on_c, 0, 76, 60
2, 50984, Note_on_c, 0, 64, 50
2, 51007, Control_c, 0, 64, 127
2, 51029, Note_on_c, 0, 64, 0
2, 51054, Note_on_c, 0, 76, 0
2, 51064, Note_on_c, 0, 52, 0
2, 51064, Control_c, 0, 64, 0
2, 51078, Note_on_c, 0, 59, 0
2, 51082, Note_on_c, 0, 55, 0
2, 51216, Control_c, 0, 64, 127
2, 51252, Note_on_c, 0, 78, 71
2, 51254, Note_on_c, 0, 66, 70
2, 51262, Note_on_c, 0, 63, 64
2, 51263, Note_on_c, 0, 59, 49
2, 51264, Note_on_c, 0, 52, 54
2, 51285, Note_on_c, 0, 55, 41
2, 51347, Note_on_c, 0, 63, 0
2, 51356, Note_on_c, 0, 66, 0
2, 51362, Control_c, 0, 64, 0
2, 51367, Note_on_c, 0, 78, 0
2, 51397, Note_on_c, 0, 63, 48
2, 51410, Note_on_c, 0, 79, 70
2, 51490, Note_on_c, 0, 67, 64
2, 51490, Control_c, 0, 64, 127
2, 51656, Note_on_c, 0, 67, 0
2, 51680, Note_on_c, 0, 79, 0
2, 51731, Control_c, 0, 64, 0
2, 51769, Note_on_c, 0, 81, 74
2, 51775, Control_c, 0, 64, 127
2, 51776, Note_on_c, 0, 69, 68
2, 51794, Control_c, 0, 64, 0
2, 51933, Note_on_c, 0, 55, 0
2, 51937, Note_on_c, 0, 69, 0
2, 51941, Note_on_c, 0, 52, 0
2, 51941, Control_c, 0, 64, 127
2, 51960, Note_on_c, 0, 81, 0
2, 51974, Note_on_c, 0, 59, 0
2, 51991, Note_on_c, 0, 63, 0
2, 52017, Control_c, 0, 64, 0
2, 52056, Note_on_c, 0, 62, 62
2, 52060, Note_on_c, 0, 71, 69
2, 52060, Note_on_c, 0, 83, 72
2, 52061, Note_on_c, 0, 59, 32
2, 52082, Note_on_c, 0, 55, 36
2, 52103, Note_on_c, 0, 62, 0
2, 52104, Note_on_c, 0, 59, 0
2, 52108, Note_on_c, 0, 71, 0
2, 52110, Note_on_c, 0, 55, 0
2, 52135, Note_on_c, 0, 83, 0
2, 52445, Note_on_c, 0, 82, 87
2, 52448, Note_on_c, 0, 76, 90
2, 52448, Note_on_c, 0, 88, 91
2, 52449, Note_on_c, 0, 62, 80
2, 52453, Note_on_c, 0, 59, 59
2, 52454, Note_on_c, 0, 52, 66
2, 52462, Note_on_c, 0, 55, 56
2, 52504, Note_on_c, 0, 82, 0
2, 52509, Note_on_c, 0, 83, 62
2, 52640, Control_c, 0, 64, 127
2, 52803, Note_on_c, 0, 88, 0
2, 52828, Note_on_c, 0, 52, 0
2, 52837, Note_on_c, 0, 76, 0
2, 52838, Note_on_c, 0, 83, 0
2, 52839, Note_on_c, 0, 62, 0
2, 52846, Note_on_c, 0, 55, 0
2, 52869, Note_on_c, 0, 59, 0
2, 52921, Control_c, 0, 64, 0
2, 52962, Note_on_c, 0, 61, 57
2, 52966, Note_on_c, 0, 87, 62
2, 52970, Note_on_c, 0, 75, 57
2, 52971, Note_on_c, 0, 59, 51
2, 52976, Note_on_c, 0, 82, 53
2, 52978, Note_on_c, 0, 52, 29
2, 53002, Note_on_c, 0, 59, 0
2, 53011, Note_on_c, 0, 52, 0
2, 53022, Note_on_c, 0, 75, 0
2, 53026, Note_on_c, 0, 61, 0
2, 53032, Note_on_c, 0, 82, 0
2, 53062, Note_on_c, 0, 87, 0
2, 53334, Control_c, 0, 64, 127
2, 53337, Note_on_c, 0, 52, 46
2, 53339, Note_on_c, 0, 88, 74
2, 53340, Note_on_c, 0, 59, 47
2, 53344, Note_on_c, 0, 76, 51
2, 53345, Note_on_c, 0, 83, 65
2, 53353, Note_on_c, 0, 55, 36
2, 53388, Note_on_c, 0, 55, 0
2, 53391, Note_on_c, 0, 52, 0
2, 53391, Control_c, 0, 64, 0
2, 53397, Note_on_c, 0, 76, 0
2, 53398, Note_on_c, 0, 83, 0
2, 53403, Note_on_c, 0, 88, 0
2, 53406, Note_on_c, 0, 59, 0
2, 53707, Note_on_c, 0, 84, 60
2, 53713, Note_on_c, 0, 64, 41
2, 53714, Note_on_c, 0, 79, 50
2, 53718, Note_on_c, 0, 72, 35
2, 53721, Control_c, 0, 64, 127
2, 53723, Note_on_c, 0, 55, 35
2, 53725, Note_on_c, 0, 60, 50
2, 53730, Note_on_c, 0, 59, 37
2, 53881, Note_on_c, 0, 60, 0
2, 53886, Note_on_c, 0, 59, 0
2, 53887, Note_on_c, 0, 55, 0
2, 53892, Note_on_c, 0, 72, 0
2, 53896, Note_on_c, 0, 64, 0
2, 53907, Note_on_c, 0, 79, 0
2, 53917, Note_on_c, 0, 84, 0
2, 54375, Note_on_c, 0, 88, 91
2, 54377, Note_on_c, 0, 56, 70
2, 54378, Note_on_c, 0, 60, 78
2, 54379, Note_on_c, 0, 64, 80
2, 54379, Note_on_c, 0, 76, 87
2, 54383, Note_on_c, 0, 84, 79
2, 54383, Note_on_c, 0, 81, 79
2, 54387, Note_on_c, 0, 58, 43
2, 54407, Note_on_c, 0, 58, 0
2, 54407, Control_c, 0, 64, 0
2, 54492, Note_on_c, 0, 88, 0
2, 54502, Control_c, 0, 64, 127
2, 54533, Note_on_c, 0, 76, 0
2, 54536, Note_on_c, 0, 64, 0
2, 54543, Note_on_c, 0, 56, 0
2, 54558, Note_on_c, 0, 81, 0
2, 54565, Note_on_c, 0, 60, 0
2, 54572, Control_c, 0, 64, 0
2, 54578, Note_on_c, 0, 84, 0
2, 54624, Note_on_c, 0, 87, 71
2, 54627, Note_on_c, 0, 56, 63
2, 54630, Note_on_c, 0, 75, 65
2, 54630, Note_on_c, 0, 84, 66
2, 54631, Note_on_c, 0, 81, 63
2, 54637, Note_on_c, 0, 64, 62
2, 54638, Note_on_c, 0, 60, 63
2, 54654, Control_c, 0, 64, 127
2, 54736, Note_on_c, 0, 84, 0
2, 54739, Note_on_c, 0, 81, 0
2, 54763, Note_on_c, 0, 75, 0
2, 54772, Note_on_c, 0, 64, 0
2, 54776, Note_on_c, 0, 87, 0
2, 54780, Note_on_c, 0, 60, 0
2, 54799, Note_on_c, 0, 56, 0
2, 54839, Control_c, 0, 64, 0
2, 54873, Note_on_c, 0, 88, 68
2, 54880, Note_on_c, 0, 55, 68
2, 54881, Note_on_c, 0, 81, 61
2, 54883, Note_on_c, 0, 60, 64
2, 54884, Note_on_c, 0, 64, 54
2, 54885, Note_on_c, 0, 76, 54
2, 54890, Note_on_c, 0, 84, 58
2, 54896, Control_c, 0, 64, 127
2, 54918, Note_on_c, 0, 84, 0
2, 54932, Note_on_c, 0, 64, 0
2, 54938, Note_on_c, 0, 60, 0
2, 54942, Note_on_c, 0, 81, 0
2, 54947, Note_on_c, 0, 88, 0
2, 54949, Note_on_c, 0, 76, 0
2, 54962, Note_on_c, 0, 55, 0
2, 55137, Control_c, 0, 64, 0
2, 55138, Note_on_c, 0, 83, 76
2, 55146, Note_on_c, 0, 76, 64
2, 55146, Note_on_c, 0, 79, 63
2, 55147, Note_on_c, 0, 71, 61
2, 55148, Note_on_c, 0, 62, 64
2, 55152, Note_on_c, 0, 52, 57
2, 55157, Note_on_c, 0, 59, 47
2, 55160, Note_on_c, 0, 55, 53
2, 55252, Control_c, 0, 64, 127
2, 55357, Note_on_c, 0, 62, 0
2, 55436, Note_on_c, 0, 59, 0
2, 55438, Note_on_c, 0, 55, 0
2, 55502, Note_on_c, 0, 59, 63
2, 55506, Note_on_c, 0, 63, 86
2, 55520, Note_on_c, 0, 55, 50
2, 55567, Note_on_c, 0, 71, 0
2, 55591, Note_on_c, 0, 79, 0
2, 55598, Note_on_c, 0, 76, 0
2, 55602, Note_on_c, 0, 83, 0
2, 55626, Control_c, 0, 64, 0
2, 55683, Note_on_c, 0, 81, 44
2, 55684, Control_c, 0, 64, 127
2, 55698, Note_on_c, 0, 76, 38
2, 55700, Note_on_c, 0, 63, 0
2, 55700, Note_on_c, 0, 69, 49
2, 55707, Note_on_c, 0, 62, 64
2, 55917, Note_on_c, 0, 76, 0
2, 55931, Note_on_c, 0, 81, 0
2, 55935, Note_on_c, 0, 62, 0
2, 55940, Note_on_c, 0, 69, 0
2, 55980, Note_on_c, 0, 55, 0
2, 55982, Control_c, 0, 64, 0
2, 56019, Note_on_c, 0, 79, 39
2, 56021, Note_on_c, 0, 61, 48
2, 56058, Note_on_c, 0, 55, 20
2, 56077, Control_c, 0, 64, 127
2, 56078, Note_on_c, 0, 79, 0
2, 56208, Note_on_c, 0, 61, 0
2, 56224, Note_on_c, 0, 59, 0
2, 56232, Note_on_c, 0, 52, 0
2, 56233, Note_on_c, 0, 55, 0
2, 56267, Note_on_c, 0, 76, 57
2, 56274, Note_on_c, 0, 71, 64
2, 56275, Note_on_c, 0, 64, 60
2, 56282, Note_on_c, 0, 59, 46
2, 56299, Note_on_c, 0, 55, 55
2, 56301, Note_on_c, 0, 52, 37
2, 56313, Note_on_c, 0, 64, 0
2, 56319, Control_c, 0, 64, 0
2, 56323, Note_on_c, 0, 71, 0
2, 56326, Note_on_c, 0, 76, 0
2, 56356, Note_on_c, 0, 59, 0
2, 56381, Note_on_c, 0, 55, 0
2, 56395, Control_c, 0, 64, 127
2, 56409, Note_on_c, 0, 52, 0
2, 56645, Note_on_c, 0, 56, 23
2, 56652, Note_on_c, 0, 58, 57
2, 56656, Note_on_c, 0, 71, 71
2, 56658, Note_on_c, 0, 60, 71
2, 56660, Note_on_c, 0, 66, 60
2, 56663, Note_on_c, 0, 64, 68
2, 56673, Note_on_c, 0, 59, 76
2, 56683, Note_on_c, 0, 56, 0
2, 56692, Note_on_c, 0, 58, 0
2, 56725, Control_c, 0, 64, 0
2, 56941, Control_c, 0, 64, 127
2, 57050, Note_on_c, 0, 60, 0
2, 57057, Note_on_c, 0, 64, 0
2, 57078, Note_on_c, 0, 59, 0
2, 57081, Note_on_c, 0, 66, 0
2, 57082, Note_on_c, 0, 71, 0
2, 57082, Note_on_c, 0, 58, 29
2, 57119, Control_c, 0, 64, 0
2, 57162, Note_on_c, 0, 58, 0
2, 57163, Note_on_c, 0, 71, 47
2, 57166, Note_on_c, 0, 66, 35
2, 57171, Note_on_c, 0, 60, 37
2, 57175, Note_on_c, 0, 59, 38
2, 57177, Note_on_c, 0, 64, 49
2, 57350, Note_on_c, 0, 60, 0
2, 57362, Note_on_c, 0, 64, 0
2, 57381, Note_on_c, 0, 71, 0
2, 57389, Note_on_c, 0, 66, 0
2, 57442, Note_on_c, 0, 59, 0
2, 57470, Note_on_c, 0, 58, 31
2, 57539, Note_on_c, 0, 58, 0
2, 57541, Note_on_c, 0, 66, 35
2, 57546, Note_on_c, 0, 60, 41
2, 57547, Note_on_c, 0, 71, 35
2, 57552, Note_on_c, 0, 59, 50
2, 57556, Note_on_c, 0, 64, 47
2, 57652, Control_c, 0, 64, 127
2, 57690, Note_on_c, 0, 60, 0
2, 57702, Note_on_c, 0, 64, 0
2, 57704, Note_on_c, 0, 71, 0
2, 57737, Note_on_c, 0, 59, 0
2, 57749, Note_on_c, 0, 66, 0
2, 57821, Note_on_c, 0, 60, 70
2, 57823, Note_on_c, 0, 66, 48
2, 57825, Note_on_c, 0, 72, 71
2, 57827, Note_on_c, 0, 64, 65
2, 57835, Note_on_c, 0, 70, 57
2, 57856, Note_on_c, 0, 70, 0
2, 57897, Note_on_c, 0, 60, 0
2, 57904, Note_on_c, 0, 72, 0
2, 57920, Control_c, 0, 64, 0
2, 57931, Note_on_c, 0, 66, 0
2, 57936, Note_on_c, 0, 64, 0
2, 57987, Note_on_c, 0, 59, 44
2, 57988, Note_on_c, 0, 71, 50
2, 57994, Note_on_c, 0, 64, 45
2, 57997, Note_on_c, 0, 66, 32
2, 58010, Note_on_c, 0, 60, 46
2, 58069, Note_on_c, 0, 59, 0
2, 58078, Control_c, 0, 64, 127
2, 58193, Note_on_c, 0, 71, 0
2, 58195, Note_on_c, 0, 64, 0
2, 58215, Note_on_c, 0, 60, 0
2, 58217, Note_on_c, 0, 66, 0
2, 58732, Control_c, 0, 64, 0
2, 58841, Note_on_c, 0, 65, 69
2, 58842, Note_on_c, 0, 63, 68
2, 58846, Note_on_c, 0, 69, 61
2, 58847, Note_on_c, 0, 71, 61
2, 58848, Note_on_c, 0, 67, 55
2, 58868, Note_on_c, 0, 69, 0
2, 58869, Note_on_c, 0, 67, 0
2, 58875, Note_on_c, 0, 65, 0
2, 58889, Note_on_c, 0, 63, 0
2, 58889, Note_on_c, 0, 71, 0
2, 59103, Note_on_c, 0, 63, 79
2, 59106, Note_on_c, 0, 71, 70
2, 59106, Note_on_c, 0, 65, 75
2, 59107, Note_on_c, 0, 69, 68
2, 59108, Note_on_c, 0, 67, 69
2, 59211, Control_c, 0, 64, 127
2, 59273, Note_on_c, 0, 67, 0
2, 59298, Note_on_c, 0, 65, 0
2, 59329, Note_on_c, 0, 69, 0
2, 59334, Note_on_c, 0, 71, 0
2, 59363, Note_on_c, 0, 67, 77
2, 59416, Note_on_c, 0, 63, 0
2, 59542, Note_on_c, 0, 67, 0
2, 59600, Note_on_c, 0, 65, 51
2, 59632, Note_on_c, 0, 65, 0
2, 59718, Note_on_c, 0, 64, 54
2, 59742, Note_on_c, 0, 64, 0
2, 59833, Control_c, 0, 64, 0
2, 59922, Control_c, 0, 64, 127
2, 60068, Control_c, 0, 64, 0
2, 60086, Note_on_c, 0, 66, 75
2, 60089, Note_on_c, 0, 62, 76
2, 60090, Note_on_c, 0, 58, 51
2, 60095, Note_on_c, 0, 69, 66
2, 60158, Note_on_c, 0, 62, 0
2, 60192, Note_on_c, 0, 69, 0
2, 60202, Control_c, 0, 64, 127
2, 60215, Note_on_c, 0, 66, 0
2, 60248, Note_on_c, 0, 74, 74
2, 60293, Note_on_c, 0, 74, 0
2, 60302, Note_on_c, 0, 58, 0
2, 60486, Note_on_c, 0, 81, 92
2, 60488, Note_on_c, 0, 58, 70
2, 60490, Note_on_c, 0, 74, 91
2, 60491, Note_on_c, 0, 64, 68
2, 60576, Control_c, 0, 64, 0
2, 60593, Note_on_c, 0, 64, 0
2, 60606, Note_on_c, 0, 74, 0
2, 60615, Note_on_c, 0, 58, 0
2, 60630, Note_on_c, 0, 81, 0
2, 60672, Control_c, 0, 64, 127
2, 60697, Note_on_c, 0, 78, 59
2, 60701, Note_on_c, 0, 74, 57
2, 60704, Note_on_c, 0, 58, 53
2, 60706, Note_on_c, 0, 64, 54
2, 60714, Note_on_c, 0, 69, 59
2, 60800, Note_on_c, 0, 74, 0
2, 60833, Note_on_c, 0, 64, 0
2, 60847, Note_on_c, 0, 69, 0
2, 60848, Note_on_c, 0, 58, 0
2, 60860, Note_on_c, 0, 78, 0
2, 60998, Note_on_c, 0, 58, 54
2, 61046, Note_on_c, 0, 58, 0
2, 61268, Note_on_c, 0, 65, 74
2, 61269, Note_on_c, 0, 69, 72
2, 61274, Note_on_c, 0, 60, 70
2, 61283, Note_on_c, 0, 57, 72
2, 61285, Note_on_c, 0, 47, 63
2, 61307, Control_c, 0, 64, 0
2, 61421, Control_c, 0, 64, 127
2, 61483, Note_on_c, 0, 60, 0
2, 61503, Note_on_c, 0, 65, 0
2, 61513, Note_on_c, 0, 69, 0
2, 61584, Note_on_c, 0, 57, 0
2, 61663, Note_on_c, 0, 72, 81
2, 61667, Note_on_c, 0, 64, 73
2, 61669, Note_on_c, 0, 57, 64
2, 61669, Note_on_c, 0, 69, 78
2, 61749, Note_on_c, 0, 64, 0
2, 61766, Note_on_c, 0, 69, 0
2, 61787, Note_on_c, 0, 72, 0
2, 61790, Control_c, 0, 64, 0
2, 61825, Note_on_c, 0, 71, 53
2, 61833, Note_on_c, 0, 62, 47
2, 61834, Note_on_c, 0, 67, 46
2, 61840, Note_on_c, 0, 54, 39
2, 61891, Control_c, 0, 64, 127
2, 61930, Note_on_c, 0, 54, 0
2, 61997, Note_on_c, 0, 67, 0
2, 62009, Note_on_c, 0, 71, 0
2, 62015, Note_on_c, 0, 57, 0
2, 62042, Note_on_c, 0, 62, 0
2, 62139, Note_on_c, 0, 47, 0
2, 62158, Control_c, 0, 64, 0
2, 62166, Note_on_c, 0, 69, 58
2, 62177, Note_on_c, 0, 60, 35
2, 62179, Note_on_c, 0, 66, 39
2, 62188, Note_on_c, 0, 57, 44
2, 62194, Note_on_c, 0, 47, 27
2, 62260, Control_c, 0, 64, 127
2, 62324, Note_on_c, 0, 69, 0
2, 62337, Note_on_c, 0, 66, 0
2, 62351, Note_on_c, 0, 47, 0
2, 62378, Note_on_c, 0, 60, 0
2, 62394, Note_on_c, 0, 57, 0
2, 62517, Note_on_c, 0, 47, 7
2, 62520, Control_c, 0, 64, 0
2, 62529, Note_on_c, 0, 57, 44
2, 62532, Note_on_c, 0, 63, 55
2, 62538, Note_on_c, 0, 66, 45
2, 62539, Note_on_c, 0, 59, 50
2, 62577, Control_c, 0, 64, 127
2, 62579, Note_on_c, 0, 57, 0
2, 62636, Note_on_c, 0, 47, 0
2, 62757, Note_on_c, 0, 59, 0
2, 62814, Note_on_c, 0, 63, 0
2, 62816, Note_on_c, 0, 66, 0
2, 62907, Control_c, 0, 64, 0
2, 62909, Note_on_c, 0, 52, 47
2, 62910, Note_on_c, 0, 67, 42
2, 62918, Note_on_c, 0, 62, 48
2, 62940, Note_on_c, 0, 57, 29
2, 62944, Note_on_c, 0, 55, 25
2, 62968, Note_on_c, 0, 55, 0
2, 62994, Note_on_c, 0, 57, 0
2, 63021, Control_c, 0, 64, 127
2, 63045, Note_on_c, 0, 62, 0
2, 63083, Note_on_c, 0, 67, 0
2, 63141, Note_on_c, 0, 52, 0
2, 63178, Note_on_c, 0, 40, 50
2, 63200, Note_on_c, 0, 40, 0
2, 63333, Control_c, 0, 64, 0
2, 63365, Control_c, 0, 64, 127
2, 63386, Note_on_c, 0, 76, 78
2, 63391, Note_on_c, 0, 64, 71
2, 63404, Note_on_c, 0, 55, 53
2, 63405, Note_on_c, 0, 59, 41
2, 63427, Note_on_c, 0, 55, 0
2, 63431, Note_on_c, 0, 59, 0
2, 63441, Note_on_c, 0, 64, 0
2, 63473, Note_on_c, 0, 76, 0
2, 63645, Control_c, 0, 64, 0
2, 63670, Note_on_c, 0, 78, 84
2, 63671, Note_on_c, 0, 66, 84
2, 63671, Note_on_c, 0, 59, 73
2, 63677, Note_on_c, 0, 63, 82
2, 63680, Note_on_c, 0, 52, 64
2, 63702, Note_on_c, 0, 55, 42
2, 63753, Control_c, 0, 64, 127
2, 63873, Note_on_c, 0, 52, 0
2, 63886, Note_on_c, 0, 55, 0
2, 63891, Note_on_c, 0, 66, 0
2, 63896, Note_on_c, 0, 63, 0
2, 63898, Note_on_c, 0, 78, 0
2, 63912, Note_on_c, 0, 59, 0
2, 63957, Note_on_c, 0, 79, 75
2, 63963, Note_on_c, 0, 67, 80
2, 63965, Note_on_c, 0, 63, 71
2, 63970, Note_on_c, 0, 59, 68
2, 63977, Note_on_c, 0, 77, 48
2, 63977, Note_on_c, 0, 52, 66
2, 63981, Control_c, 0, 64, 0
2, 63987, Note_on_c, 0, 55, 49
2, 64001, Note_on_c, 0, 77, 0
2, 64082, Note_on_c, 0, 52, 0
2, 64083, Note_on_c, 0, 67, 0
2, 64087, Note_on_c, 0, 55, 0
2, 64090, Note_on_c, 0, 63, 0
2, 64114, Note_on_c, 0, 59, 0
2, 64116, Note_on_c, 0, 79, 0
2, 64120, Control_c, 0, 64, 127
2, 64183, Note_on_c, 0, 59, 51
2, 64185, Note_on_c, 0, 81, 73
2, 64187, Note_on_c, 0, 63, 70
2, 64190, Note_on_c, 0, 69, 79
2, 64194, Note_on_c, 0, 52, 56
2, 64206, Note_on_c, 0, 55, 51
2, 64342, Note_on_c, 0, 69, 0
2, 64348, Note_on_c, 0, 52, 0
2, 64348, Note_on_c, 0, 55, 0
2, 64363, Note_on_c, 0, 81, 0
2, 64365, Note_on_c, 0, 59, 0
2, 64373, Note_on_c, 0, 63, 0
2, 64425, Control_c, 0, 64, 0
2, 64450, Note_on_c, 0, 62, 68
2, 64456, Note_on_c, 0, 71, 71
2, 64457, Note_on_c, 0, 83, 75
2, 64458, Note_on_c, 0, 59, 34
2, 64465, Note_on_c, 0, 52, 48
2, 64467, Note_on_c, 0, 55, 51
2, 64581, Note_on_c, 0, 71, 0
2, 64584, Control_c, 0, 64, 127
2, 64608, Note_on_c, 0, 52, 0
2, 64614, Note_on_c, 0, 55, 0
2, 64616, Note_on_c, 0, 62, 0
2, 64619, Note_on_c, 0, 59, 0
2, 64622, Note_on_c, 0, 83, 0
2, 64731, Control_c, 0, 64, 0
2, 64731, Note_on_c, 0, 88, 91
2, 64732, Note_on_c, 0, 76, 88
2, 64736, Note_on_c, 0, 59, 77
2, 64737, Note_on_c, 0, 62, 84
2, 64741, Note_on_c, 0, 52, 75
2, 64745, Note_on_c, 0, 55, 71
2, 64870, Control_c, 0, 64, 127
2, 65102, Note_on_c, 0, 62, 0
2, 65106, Note_on_c, 0, 88, 0
2, 65131, Note_on_c, 0, 76, 0
2, 65140, Note_on_c, 0, 55, 0
2, 65149, Note_on_c, 0, 52, 0
2, 65168, Note_on_c, 0, 59, 0
2, 65226, Control_c, 0, 64, 0
2, 65240, Note_on_c, 0, 61, 67
2, 65246, Note_on_c, 0, 75, 65
2, 65247, Note_on_c, 0, 52, 32
2, 65248, Note_on_c, 0, 87, 65
2, 65250, Note_on_c, 0, 59, 47
2, 65280, Note_on_c, 0, 55, 20
2, 65282, Note_on_c, 0, 59, 0
2, 65309, Note_on_c, 0, 75, 0
2, 65310, Note_on_c, 0, 55, 0
2, 65322, Note_on_c, 0, 61, 0
2, 65337, Note_on_c, 0, 52, 0
2, 65345, Note_on_c, 0, 87, 0
2, 65410, Control_c, 0, 64, 127
2, 65511, Control_c, 0, 64, 0
2, 65615, Note_on_c, 0, 52, 48
2, 65620, Note_on_c, 0, 60, 53
2, 65622, Note_on_c, 0, 88, 74
2, 65631, Note_on_c, 0, 76, 55
2, 65636, Note_on_c, 0, 59, 31
2, 65642, Note_on_c, 0, 55, 29
2, 65675, Note_on_c, 0, 55, 0
2, 65677, Note_on_c, 0, 60, 0
2, 65677, Control_c, 0, 64, 127
2, 65679, Note_on_c, 0, 52, 0
2, 65683, Note_on_c, 0, 59, 0
2, 65703, Note_on_c, 0, 88, 0
2, 65726, Note_on_c, 0, 76, 0
2, 65944, Control_c, 0, 64, 0
2, 65978, Note_on_c, 0, 64, 49
2, 65989, Note_on_c, 0, 55, 44
2, 65993, Note_on_c, 0, 84, 58
2, 65993, Note_on_c, 0, 60, 47
2, 65996, Note_on_c, 0, 59, 38
2, 65997, Note_on_c, 0, 72, 45
2, 66023, Note_on_c, 0, 60, 0
2, 66030, Note_on_c, 0, 59, 0
2, 66040, Note_on_c, 0, 64, 0
2, 66059, Note_on_c, 0, 72, 0
2, 66066, Note_on_c, 0, 55, 0
2, 66098, Note_on_c, 0, 84, 0
2, 66395, Control_c, 0, 64, 127
2, 66642, Note_on_c, 0, 55, 84
2, 66642, Note_on_c, 0, 64, 83
2, 66643, Note_on_c, 0, 60, 79
2, 66643, Note_on_c, 0, 59, 74
2, 66648, Note_on_c, 0, 88, 91
2, 66648, Note_on_c, 0, 76, 95
2, 66652, Note_on_c, 0, 84, 88
2, 66661, Note_on_c, 0, 86, 55
2, 66681, Note_on_c, 0, 86, 0
2, 66725, Note_on_c, 0, 76, 0
2, 66729, Note_on_c, 0, 88, 0
2, 66729, Note_on_c, 0, 84, 0
2, 66734, Note_on_c, 0, 64, 0
2, 66741, Note_on_c, 0, 59, 0
2, 66744, Note_on_c, 0, 60, 0
2, 66746, Note_on_c, 0, 55, 0
2, 66785, Note_on_c, 0, 55, 48
2, 66789, Note_on_c, 0, 64, 54
2, 66793, Note_on_c, 0, 60, 63
2, 66795, Note_on_c, 0, 87, 68
2, 66795, Note_on_c, 0, 59, 62
2, 66796, Note_on_c, 0, 84, 60
2, 66798, Control_c, 0, 64, 0
2, 66799, Note_on_c, 0, 75, 71
2, 66822, Note_on_c, 0, 59, 0
2, 66836, Note_on_c, 0, 75, 0
2, 66842, Note_on_c, 0, 87, 0
2, 66847, Note_on_c, 0, 64, 0
2, 66848, Note_on_c, 0, 84, 0
2, 66850, Note_on_c, 0, 60, 0
2, 66896, Note_on_c, 0, 75, 47
2, 66902, Note_on_c, 0, 64, 57
2, 66903, Note_on_c, 0, 87, 35
2, 66910, Note_on_c, 0, 60, 38
2, 66910, Note_on_c, 0, 59, 22
2, 66917, Note_on_c, 0, 84, 36
2, 66932, Note_on_c, 0, 60, 0
2, 66940, Note_on_c, 0, 84, 0
2, 66942, Note_on_c, 0, 59, 0
2, 66943, Note_on_c, 0, 64, 0
2, 66947, Note_on_c, 0, 55, 0
2, 66950, Note_on_c, 0, 75, 0
2, 66961, Note_on_c, 0, 87, 0
2, 67035, Note_on_c, 0, 88, 74
2, 67037, Note_on_c, 0, 84, 74
2, 67037, Note_on_c, 0, 55, 80
2, 67038, Note_on_c, 0, 76, 74
2, 67040, Note_on_c, 0, 64, 74
2, 67040, Note_on_c, 0, 59, 67
2, 67041, Note_on_c, 0, 60, 72
2, 67054, Note_on_c, 0, 86, 42
2, 67079, Note_on_c, 0, 86, 0
2, 67097, Note_on_c, 0, 76, 0
2, 67102, Note_on_c, 0, 88, 0
2, 67106, Note_on_c, 0, 84, 0
2, 67113, Note_on_c, 0, 64, 0
2, 67120, Note_on_c, 0, 60, 0
2, 67127, Note_on_c, 0, 55, 0
2, 67128, Note_on_c, 0, 59, 0
2, 67158, Note_on_c, 0, 88, 50
2, 67160, Note_on_c, 0, 76, 51
2, 67168, Control_c, 0, 64, 127
2, 67169, Note_on_c, 0, 84, 43
2, 67190, Note_on_c, 0, 84, 0
2, 67204, Note_on_c, 0, 88, 0
2, 67207, Note_on_c, 0, 76, 0
2, 67238, Control_c, 0, 64, 0
2, 67284, Note_on_c, 0, 84, 74
2, 67287, Note_on_c, 0, 55, 59
2, 67289, Note_on_c, 0, 72, 66
2, 67290, Note_on_c, 0, 64, 60
2, 67291, Note_on_c, 0, 60, 60
2, 67293, Note_on_c, 0, 59, 54
2, 67294, Note_on_c, 0, 81, 59
2, 67316, Note_on_c, 0, 83, 32
2, 67335, Control_c, 0, 64, 127
2, 67340, Note_on_c, 0, 83, 0
2, 67356, Note_on_c, 0, 72, 0
2, 67359, Note_on_c, 0, 84, 0
2, 67360, Note_on_c, 0, 81, 0
2, 67410, Note_on_c, 0, 64, 0
2, 67411, Note_on_c, 0, 59, 0
2, 67413, Note_on_c, 0, 55, 0
2, 67416, Note_on_c, 0, 84, 45
2, 67419, Note_on_c, 0, 72, 35
2, 67424, Note_on_c, 0, 60, 0
2, 67428, Note_on_c, 0, 81, 36
2, 67448, Note_on_c, 0, 84, 0
2, 67455, Note_on_c, 0, 81, 0
2, 67472, Note_on_c, 0, 72, 0
2, 67528, Note_on_c, 0, 79, 56
2, 67529, Note_on_c, 0, 83, 39
2, 67530, Note_on_c, 0, 52, 64
2, 67531, Note_on_c, 0, 71, 49
2, 67532, Note_on_c, 0, 62, 68
2, 67534, Control_c, 0, 64, 0
2, 67534, Note_on_c, 0, 59, 55
2, 67536, Note_on_c, 0, 55, 60
2, 67554, Note_on_c, 0, 62, 0
2, 67560, Note_on_c, 0, 59, 0
2, 67562, Note_on_c, 0, 79, 0
2, 67563, Note_on_c, 0, 71, 0
2, 67576, Note_on_c, 0, 83, 0
2, 67593, Note_on_c, 0, 55, 0
2, 67599, Note_on_c, 0, 52, 0
2, 68175, Note_on_c, 0, 54, 97
2, 68176, Note_on_c, 0, 66, 77
2, 68176, Note_on_c, 0, 69, 91
2, 68178, Note_on_c, 0, 62, 85
2, 68181, Note_on_c, 0, 57, 78
2, 68184, Note_on_c, 0, 59, 80
2, 68273, Note_on_c, 0, 59, 0
2, 68287, Note_on_c, 0, 57, 0
2, 68299, Note_on_c, 0, 69, 0
2, 68304, Note_on_c, 0, 62, 0
2, 68306, Note_on_c, 0, 66, 0
2, 68307, Note_on_c, 0, 54, 0
2, 68342, Note_on_c, 0, 52, 55
2, 68344, Note_on_c, 0, 57, 47
2, 68345, Note_on_c, 0, 67, 41
2, 68350, Note_on_c, 0, 62, 32
2, 68369, Note_on_c, 0, 66, 21
2, 68522, Note_on_c, 0, 66, 0
2, 68581, Note_on_c, 0, 62, 0
2, 68587, Note_on_c, 0, 57, 0
2, 68644, Note_on_c, 0, 67, 0
2, 68678, Note_on_c, 0, 66, 46
2, 68686, Note_on_c, 0, 52, 0
2, 68687, Note_on_c, 0, 57, 48
2, 68693, Note_on_c, 0, 51, 49
2, 68697, Note_on_c, 0, 62, 39
2, 68772, Control_c, 0, 64, 127
2, 68844, Note_on_c, 0, 62, 0
2, 68849, Note_on_c, 0, 57, 0
2, 69011, Note_on_c, 0, 66, 0
2, 69065, Note_on_c, 0, 51, 0
2, 69065, Control_c, 0, 64, 0
2, 69229, Control_c, 0, 64, 127
2, 69312, Control_c, 0, 64, 0
2, 69318, Note_on_c, 0, 67, 54
2, 69338, Note_on_c, 0, 61, 48
2, 69341, Note_on_c, 0, 45, 49
2, 69343, Note_on_c, 0, 58, 27
2, 69346, Note_on_c, 0, 64, 48
2, 69350, Note_on_c, 0, 55, 42
2, 69422, Note_on_c, 0, 45, 0
2, 69426, Note_on_c, 0, 58, 0
2, 69432, Control_c, 0, 64, 127
2, 69444, Note_on_c, 0, 55, 0
2, 69471, Note_on_c, 0, 67, 0
2, 69472, Note_on_c, 0, 61, 0
2, 69474, Note_on_c, 0, 64, 0
2, 69839, Control_c, 0, 64, 0
2, 69841, Note_on_c, 0, 75, 85
2, 69844, Note_on_c, 0, 71, 84
2, 69845, Note_on_c, 0, 83, 81
2, 69849, Note_on_c, 0, 61, 62
2, 69850, Note_on_c, 0, 60, 74
2, 69852, Note_on_c, 0, 65, 81
2, 69855, Note_on_c, 0, 79, 62
2, 69857, Note_on_c, 0, 81, 48
2, 69860, Note_on_c, 0, 55, 63
2, 69863, Note_on_c, 0, 58, 35
2, 69879, Note_on_c, 0, 81, 0
2, 69911, Note_on_c, 0, 75, 0
2, 69916, Note_on_c, 0, 76, 56
2, 69962, Note_on_c, 0, 65, 0
2, 69968, Note_on_c, 0, 55, 0
2, 69975, Note_on_c, 0, 76, 0
2, 69977, Note_on_c, 0, 61, 0
2, 69979, Note_on_c, 0, 71, 0
2, 69981, Note_on_c, 0, 60, 0
2, 69988, Note_on_c, 0, 83, 0
2, 69991, Note_on_c, 0, 58, 0
2, 69999, Note_on_c, 0, 79, 0
2, 70119, Note_on_c, 0, 82, 67
2, 70120, Note_on_c, 0, 60, 72
2, 70120, Note_on_c, 0, 65, 71
2, 70125, Note_on_c, 0, 70, 71
2, 70127, Note_on_c, 0, 75, 62
2, 70128, Note_on_c, 0, 61, 44
2, 70129, Note_on_c, 0, 78, 43
2, 70142, Note_on_c, 0, 55, 43
2, 70168, Note_on_c, 0, 55, 0
2, 70185, Note_on_c, 0, 65, 0
2, 70199, Note_on_c, 0, 70, 0
2, 70199, Note_on_c, 0, 60, 0
2, 70208, Note_on_c, 0, 61, 0
2, 70209, Note_on_c, 0, 75, 0
2, 70214, Note_on_c, 0, 82, 0
2, 70217, Note_on_c, 0, 78, 0
2, 70258, Note_on_c, 0, 65, 62
2, 70262, Note_on_c, 0, 61, 49
2, 70266, Note_on_c, 0, 60, 52
2, 70266, Note_on_c, 0, 83, 64
2, 70268, Note_on_c, 0, 71, 57
2, 70289, Note_on_c, 0, 60, 0
2, 70289, Note_on_c, 0, 79, 33
2, 70289, Note_on_c, 0, 76, 36
2, 70315, Note_on_c, 0, 79, 0
2, 70317, Note_on_c, 0, 65, 0
2, 70320, Note_on_c, 0, 76, 0
2, 70327, Note_on_c, 0, 71, 0
2, 70339, Note_on_c, 0, 83, 0
2, 70343, Note_on_c, 0, 61, 0
2, 70461, Control_c, 0, 64, 127
2, 70512, Control_c, 0, 64, 0
2, 70621, Control_c, 0, 64, 127
2, 70771, Note_on_c, 0, 76, 68
2, 70773, Note_on_c, 0, 61, 64
2, 70773, Note_on_c, 0, 60, 73
2, 70774, Note_on_c, 0, 64, 71
2, 70779, Note_on_c, 0, 71, 60
2, 70782, Note_on_c, 0, 55, 66
2, 70821, Note_on_c, 0, 64, 0
2, 70823, Note_on_c, 0, 60, 0
2, 70824, Note_on_c, 0, 71, 0
2, 70827, Note_on_c, 0, 76, 0
2, 70830, Note_on_c, 0, 61, 0
2, 70835, Note_on_c, 0, 55, 0
2, 70888, Note_on_c, 0, 76, 57
2, 70891, Note_on_c, 0, 71, 58
2, 70894, Note_on_c, 0, 61, 43
2, 70897, Note_on_c, 0, 60, 52
2, 70898, Note_on_c, 0, 64, 40
2, 70903, Note_on_c, 0, 55, 47
2, 70917, Note_on_c, 0, 76, 0
2, 70922, Note_on_c, 0, 60, 0
2, 70923, Note_on_c, 0, 64, 0
2, 70926, Note_on_c, 0, 55, 0
2, 70944, Note_on_c, 0, 61, 0
2, 70945, Note_on_c, 0, 71, 0
2, 70989, Control_c, 0, 64, 0
2, 71038, Note_on_c, 0, 61, 73
2, 71039, Note_on_c, 0, 78, 77
2, 71040, Note_on_c, 0, 60, 79
2, 71044, Note_on_c, 0, 65, 79
2, 71047, Note_on_c, 0, 66, 82
2, 71050, Note_on_c, 0, 55, 68
2, 71092, Note_on_c, 0, 66, 0
2, 71095, Note_on_c, 0, 65, 0
2, 71120, Note_on_c, 0, 55, 0
2, 71121, Note_on_c, 0, 78, 0
2, 71148, Control_c, 0, 64, 127
2, 71154, Note_on_c, 0, 78, 31
2, 71169, Note_on_c, 0, 66, 43
2, 71200, Note_on_c, 0, 60, 0
2, 71204, Note_on_c, 0, 66, 0
2, 71210, Note_on_c, 0, 61, 0
2, 71221, Note_on_c, 0, 78, 0
2, 71224, Control_c, 0, 64, 0
2, 71290, Note_on_c, 0, 79, 75
2, 71291, Note_on_c, 0, 67, 80
2, 71292, Note_on_c, 0, 61, 67
2, 71294, Note_on_c, 0, 60, 73
2, 71297, Note_on_c, 0, 65, 74
2, 71300, Note_on_c, 0, 55, 71
2, 71309, Note_on_c, 0, 77, 42
2, 71327, Note_on_c, 0, 58, 25
2, 71339, Note_on_c, 0, 77, 0
2, 71354, Note_on_c, 0, 67, 0
2, 71356, Note_on_c, 0, 58, 0
2, 71356, Note_on_c, 0, 65, 0
2, 71357, Note_on_c, 0, 79, 0
2, 71370, Control_c, 0, 64, 127
2, 71379, Note_on_c, 0, 60, 0
2, 71384, Note_on_c, 0, 55, 0
2, 71385, Note_on_c, 0, 61, 0
2, 71417, Note_on_c, 0, 79, 50
2, 71418, Note_on_c, 0, 67, 51
2, 71428, Note_on_c, 0, 61, 44
2, 71429, Note_on_c, 0, 55, 28
2, 71431, Note_on_c, 0, 60, 44
2, 71436, Note_on_c, 0, 65, 40
2, 71458, Note_on_c, 0, 65, 0
2, 71463, Note_on_c, 0, 55, 0
2, 71463, Note_on_c, 0, 60, 0
2, 71466, Note_on_c, 0, 67, 0
2, 71482, Note_on_c, 0, 61, 0
2, 71485, Note_on_c, 0, 79, 0
2, 71580, Control_c, 0, 64, 0
2, 71580, Note_on_c, 0, 61, 68
2, 71583, Note_on_c, 0, 60, 77
2, 71584, Note_on_c, 0, 81, 87
2, 71585, Note_on_c, 0, 65, 74
2, 71586, Note_on_c, 0, 69, 87
2, 71590, Note_on_c, 0, 55, 64
2, 71607, Note_on_c, 0, 65, 0
2, 71612, Note_on_c, 0, 55, 0
2, 71623, Note_on_c, 0, 69, 0
2, 71635, Note_on_c, 0, 60, 0
2, 71640, Note_on_c, 0, 81, 0
2, 71641, Note_on_c, 0, 61, 0
2, 71827, Note_on_c, 0, 71, 83
2, 71828, Note_on_c, 0, 83, 83
2, 71831, Note_on_c, 0, 61, 69
2, 71833, Note_on_c, 0, 60, 80
2, 71837, Note_on_c, 0, 65, 70
2, 71850, Note_on_c, 0, 55, 42
2, 71859, Note_on_c, 0, 65, 0
2, 71868, Note_on_c, 0, 71, 0
2, 71874, Note_on_c, 0, 55, 0
2, 71878, Note_on_c, 0, 61, 0
2, 71880, Note_on_c, 0, 83, 0
2, 71883, Note_on_c, 0, 60, 0
2, 71937, Note_on_c, 0, 61, 49
2, 71940, Note_on_c, 0, 60, 71
2, 71951, Note_on_c, 0, 65, 47
2, 71953, Note_on_c, 0, 72, 68
2, 71953, Note_on_c, 0, 84, 73
2, 71954, Note_on_c, 0, 55, 24
2, 71962, Control_c, 0, 64, 127
2, 71973, Note_on_c, 0, 72, 0
2, 71974, Note_on_c, 0, 65, 0
2, 71977, Note_on_c, 0, 55, 0
2, 71984, Note_on_c, 0, 84, 0
2, 71998, Note_on_c, 0, 60, 0
2, 72005, Note_on_c, 0, 61, 0
2, 72134, Control_c, 0, 64, 0
2, 72164, Note_on_c, 0, 86, 78
2, 72168, Note_on_c, 0, 74, 71
2, 72173, Note_on_c, 0, 64, 59
2, 72177, Note_on_c, 0, 55, 48
2, 72178, Note_on_c, 0, 59, 43
2, 72182, Note_on_c, 0, 83, 37
2, 72183, Note_on_c, 0, 60, 44
2, 72190, Note_on_c, 0, 74, 0
2, 72195, Note_on_c, 0, 64, 0
2, 72200, Note_on_c, 0, 55, 0
2, 72201, Note_on_c, 0, 59, 0
2, 72204, Note_on_c, 0, 60, 0
2, 72209, Note_on_c, 0, 83, 0
2, 72212, Note_on_c, 0, 86, 0
2, 72424, Note_on_c, 0, 64, 80
2, 72425, Note_on_c, 0, 55, 80
2, 72427, Note_on_c, 0, 59, 71
2, 72428, Note_on_c, 0, 74, 85
2, 72428, Note_on_c, 0, 86, 83
2, 72429, Note_on_c, 0, 60, 71
2, 72434, Note_on_c, 0, 83, 75
2, 72435, Note_on_c, 0, 79, 72
2, 72449, Note_on_c, 0, 60, 0
2, 72453, Note_on_c, 0, 79, 0
2, 72454, Note_on_c, 0, 83, 0
2, 72465, Note_on_c, 0, 59, 0
2, 72468, Note_on_c, 0, 74, 0
2, 72471, Note_on_c, 0, 64, 0
2, 72484, Note_on_c, 0, 55, 0
2, 72486, Note_on_c, 0, 86, 0
2, 72555, Note_on_c, 0, 55, 57
2, 72558, Note_on_c, 0, 86, 64
2, 72562, Note_on_c, 0, 64, 51
2, 72563, Note_on_c, 0, 59, 51
2, 72563, Note_on_c, 0, 74, 61
2, 72565, Note_on_c, 0, 83, 66
2, 72566, Note_on_c, 0, 60, 54
2, 72567, Note_on_c, 0, 79, 60
2, 72587, Note_on_c, 0, 60, 0
2, 72589, Note_on_c, 0, 79, 0
2, 72593, Note_on_c, 0, 64, 0
2, 72594, Note_on_c, 0, 59, 0
2, 72599, Note_on_c, 0, 74, 0
2, 72605, Note_on_c, 0, 55, 0
2, 72612, Note_on_c, 0, 86, 0
2, 72612, Note_on_c, 0, 83, 0
2, 72758, Control_c, 0, 64, 127
2, 72786, Note_on_c, 0, 64, 73
2, 72786, Note_on_c, 0, 55, 75
2, 72788, Note_on_c, 0, 59, 66
2, 72789, Note_on_c, 0, 88, 82
2, 72789, Note_on_c, 0, 60, 67
2, 72790, Note_on_c, 0, 76, 76
2, 72793, Note_on_c, 0, 81, 68
2, 72794, Note_on_c, 0, 84, 71
2, 72811, Note_on_c, 0, 60, 0
2, 72815, Note_on_c, 0, 81, 0
2, 72828, Note_on_c, 0, 84, 0
2, 72831, Note_on_c, 0, 59, 0
2, 72832, Note_on_c, 0, 76, 0
2, 72833, Note_on_c, 0, 64, 0
2, 72843, Note_on_c, 0, 88, 0
2, 72845, Note_on_c, 0, 55, 0
2, 72866, Control_c, 0, 64, 0
2, 72922, Note_on_c, 0, 86, 75
2, 72927, Note_on_c, 0, 74, 68
2, 72930, Note_on_c, 0, 55, 66
2, 72931, Note_on_c, 0, 64, 63
2, 72932, Note_on_c, 0, 60, 64
2, 72933, Note_on_c, 0, 83, 66
2, 72935, Note_on_c, 0, 59, 64
2, 72936, Note_on_c, 0, 79, 59
2, 72999, Control_c, 0, 64, 127
2, 73366, Note_on_c, 0, 55, 0
2, 73381, Note_on_c, 0, 60, 0
2, 73387, Note_on_c, 0, 59, 0
2, 73397, Note_on_c, 0, 64, 0
2, 73439, Note_on_c, 0, 86, 0
2, 73460, Note_on_c, 0, 83, 0
2, 73478, Note_on_c, 0, 79, 0
2, 73491, Note_on_c, 0, 74, 0
2, 73628, Control_c, 0, 64, 0
2, 73667, Note_on_c, 0, 61, 57
2, 73667, Note_on_c, 0, 60, 69
2, 73668, Note_on_c, 0, 65, 73
2, 73670, Note_on_c, 0, 55, 70
2, 73947, Note_on_c, 0, 96, 101
2, 74030, Note_on_c, 0, 96, 0
2, 74117, Note_on_c, 0, 94, 77
2, 74137, Note_on_c, 0, 60, 0
2, 74144, Note_on_c, 0, 55, 0
2, 74161, Note_on_c, 0, 65, 0
2, 74175, Note_on_c, 0, 61, 0
2, 74187, Note_on_c, 0, 94, 0
2, 74246, Note_on_c, 0, 89, 74
2, 74305, Note_on_c, 0, 89, 0
2, 74375, Note_on_c, 0, 85, 74
2, 74386, Note_on_c, 0, 65, 76
2, 74391, Note_on_c, 0, 60, 71
2, 74394, Note_on_c, 0, 54, 62
2, 74478, Note_on_c, 0, 85, 0
2, 74534, Note_on_c, 0, 84, 49
2, 74592, Note_on_c, 0, 84, 0
2, 74659, Note_on_c, 0, 82, 73
2, 74746, Note_on_c, 0, 82, 0
2, 74787, Note_on_c, 0, 65, 0
2, 74790, Note_on_c, 0, 81, 64
2, 74852, Note_on_c, 0, 81, 0
2, 74880, Note_on_c, 0, 60, 0
2, 74939, Note_on_c, 0, 82, 79
2, 75008, Note_on_c, 0, 54, 0
2, 75042, Note_on_c, 0, 83, 82
2, 75051, Note_on_c, 0, 82, 0
2, 75102, Note_on_c, 0, 83, 0
2, 75132, Note_on_c, 0, 62, 30
2, 75137, Note_on_c, 0, 59, 38
2, 75146, Note_on_c, 0, 54, 33
2, 75148, Note_on_c, 0, 86, 84
2, 75208, Note_on_c, 0, 86, 0
2, 75265, Note_on_c, 0, 83, 78
2, 75327, Note_on_c, 0, 83, 0
2, 75392, Note_on_c, 0, 79, 62
2, 75456, Note_on_c, 0, 79, 0
2, 75511, Note_on_c, 0, 74, 38
2, 75538, Note_on_c, 0, 74, 0
2, 75611, Note_on_c, 0, 62, 0
2, 75625, Note_on_c, 0, 59, 0
2, 75683, Note_on_c, 0, 54, 0
2, 75736, Control_c, 0, 64, 127
2, 75879, Note_on_c, 0, 67, 65
2, 75886, Note_on_c, 0, 52, 71
2, 75886, Note_on_c, 0, 51, 56
2, 75889, Note_on_c, 0, 62, 68
2, 75890, Note_on_c, 0, 57, 70
2, 75947, Control_c, 0, 64, 0
2, 75976, Note_on_c, 0, 67, 0
2, 75990, Note_on_c, 0, 51, 0
2, 75999, Note_on_c, 0, 62, 0
2, 76000, Note_on_c, 0, 57, 0
2, 76006, Note_on_c, 0, 52, 0
2, 76040, Note_on_c, 0, 67, 57
2, 76051, Note_on_c, 0, 57, 46
2, 76055, Note_on_c, 0, 62, 54
2, 76055, Note_on_c, 0, 52, 40
2, 76150, Control_c, 0, 64, 127
2, 76169, Note_on_c, 0, 57, 0
2, 76175, Note_on_c, 0, 67, 0
2, 76213, Note_on_c, 0, 62, 0
2, 76308, Control_c, 0, 64, 0
2, 76369, Note_on_c, 0, 52, 0
2, 76369, Note_on_c, 0, 54, 55
2, 76370, Note_on_c, 0, 69, 53
2, 76379, Note_on_c, 0, 62, 37
2, 76385, Note_on_c, 0, 57, 34
2, 76461, Control_c, 0, 64, 127
2, 76471, Note_on_c, 0, 57, 0
2, 76512, Note_on_c, 0, 62, 0
2, 76537, Note_on_c, 0, 69, 0
2, 76702, Control_c, 0, 64, 0
2, 76739, Note_on_c, 0, 71, 53
2, 76740, Note_on_c, 0, 62, 52
2, 76753, Note_on_c, 0, 54, 0
2, 76753, Note_on_c, 0, 64, 51
2, 76754, Note_on_c, 0, 55, 58
2, 76755, Note_on_c, 0, 67, 37
2, 76778, Note_on_c, 0, 64, 0
2, 76786, Note_on_c, 0, 67, 0
2, 76788, Note_on_c, 0, 62, 0
2, 76809, Note_on_c, 0, 71, 0
2, 76814, Note_on_c, 0, 55, 0
2, 77009, Control_c, 0, 64, 127
2, 77117, Control_c, 0, 64, 0
2, 77142, Control_c, 0, 64, 127
2, 77879, Note_on_c, 0, 81, 95
2, 78082, Note_on_c, 0, 81, 0
2, 78137, Note_on_c, 0, 78, 50
2, 78148, Note_on_c, 0, 69, 47
2, 78153, Note_on_c, 0, 74, 50
2, 78166, Note_on_c, 0, 64, 34
2, 78167, Note_on_c, 0, 58, 42
2, 78196, Control_c, 0, 64, 0
2, 78349, Control_c, 0, 64, 127
2, 78666, Note_on_c, 0, 64, 0
2, 78692, Note_on_c, 0, 74, 0
2, 78699, Note_on_c, 0, 69, 0
2, 78706, Note_on_c, 0, 58, 0
2, 78726, Note_on_c, 0, 78, 0
2, 79041, Note_on_c, 0, 78, 67
2, 79045, Note_on_c, 0, 66, 78
2, 79048, Control_c, 0, 64, 0
2, 79049, Note_on_c, 0, 58, 67
2, 79051, Note_on_c, 0, 74, 61
2, 79051, Note_on_c, 0, 64, 68
2, 79097, Note_on_c, 0, 64, 0
2, 79103, Note_on_c, 0, 66, 0
2, 79115, Note_on_c, 0, 74, 0
2, 79121, Note_on_c, 0, 58, 0
2, 79134, Note_on_c, 0, 78, 0
2, 79258, Control_c, 0, 64, 127
2, 79293, Note_on_c, 0, 78, 69
2, 79295, Note_on_c, 0, 66, 74
2, 79302, Note_on_c, 0, 58, 71
2, 79309, Note_on_c, 0, 64, 63
2, 79332, Note_on_c, 0, 64, 0
2, 79372, Note_on_c, 0, 66, 0
2, 79375, Note_on_c, 0, 58, 0
2, 79378, Control_c, 0, 64, 0
2, 79380, Note_on_c, 0, 78, 0
2, 79424, Note_on_c, 0, 58, 55
2, 79427, Note_on_c, 0, 64, 47
2, 79429, Note_on_c, 0, 67, 63
2, 79437, Note_on_c, 0, 79, 46
2, 79456, Note_on_c, 0, 64, 0
2, 79472, Note_on_c, 0, 67, 0
2, 79498, Note_on_c, 0, 79, 0
2, 79504, Note_on_c, 0, 58, 0
2, 79511, Control_c, 0, 64, 127
2, 79791, Control_c, 0, 64, 0
2, 79816, Note_on_c, 0, 62, 51
2, 79816, Note_on_c, 0, 81, 57
2, 79821, Note_on_c, 0, 69, 52
2, 79822, Note_on_c, 0, 51, 45
2, 79824, Note_on_c, 0, 77, 37
2, 79827, Note_on_c, 0, 57, 39
2, 79873, Note_on_c, 0, 77, 0
2, 79873, Note_on_c, 0, 69, 0
2, 79879, Note_on_c, 0, 81, 0
2, 79881, Note_on_c, 0, 62, 0
2, 79884, Note_on_c, 0, 57, 0
2, 79911, Note_on_c, 0, 51, 0
2, 80032, Control_c, 0, 64, 127
2, 80134, Control_c, 0, 64, 0
2, 80170, Note_on_c, 0, 63, 63
2, 80173, Note_on_c, 0, 71, 67
2, 80184, Note_on_c, 0, 67, 59
2, 80184, Note_on_c, 0, 69, 60
2, 80186, Note_on_c, 0, 65, 64
2, 80251, Note_on_c, 0, 65, 0
2, 80253, Note_on_c, 0, 67, 0
2, 80263, Note_on_c, 0, 63, 0
2, 80264, Note_on_c, 0, 71, 0
2, 80269, Note_on_c, 0, 69, 0
2, 80302, Note_on_c, 0, 63, 52
2, 80307, Note_on_c, 0, 65, 37
2, 80311, Note_on_c, 0, 67, 49
2, 80315, Note_on_c, 0, 69, 51
2, 80317, Note_on_c, 0, 71, 56
2, 80336, Note_on_c, 0, 67, 0
2, 80336, Note_on_c, 0, 65, 0
2, 80343, Note_on_c, 0, 69, 0
2, 80344, Note_on_c, 0, 71, 0
2, 80362, Note_on_c, 0, 63, 0
2, 80603, Note_on_c, 0, 83, 92
2, 80673, Note_on_c, 0, 83, 0
2, 80716, Note_on_c, 0, 83, 72
2, 80781, Note_on_c, 0, 83, 0
2, 80841, Control_c, 0, 64, 127
2, 80955, Control_c, 0, 64, 0
2, 80989, Note_on_c, 0, 81, 80
2, 80994, Note_on_c, 0, 63, 62
2, 81000, Note_on_c, 0, 69, 66
2, 81042, Note_on_c, 0, 63, 0
2, 81050, Note_on_c, 0, 69, 0
2, 81066, Note_on_c, 0, 81, 0
2, 81165, Control_c, 0, 64, 127
2, 81254, Control_c, 0, 64, 0
2, 81256, Note_on_c, 0, 58, 18
2, 81263, Note_on_c, 0, 79, 65
2, 81263, Note_on_c, 0, 67, 63
2, 81279, Note_on_c, 0, 58, 0
2, 81286, Note_on_c, 0, 67, 0
2, 81306, Note_on_c, 0, 79, 0
2, 81519, Note_on_c, 0, 78, 79
2, 81520, Note_on_c, 0, 66, 81
2, 81522, Note_on_c, 0, 52, 62
2, 81540, Note_on_c, 0, 59, 37
2, 81554, Note_on_c, 0, 62, 32
2, 81629, Control_c, 0, 64, 127
2, 81644, Note_on_c, 0, 62, 0
2, 81720, Note_on_c, 0, 78, 0
2, 81721, Note_on_c, 0, 66, 0
2, 81724, Note_on_c, 0, 59, 0
2, 81724, Control_c, 0, 64, 0
2, 81757, Note_on_c, 0, 59, 22
2, 81766, Note_on_c, 0, 63, 67
2, 81767, Note_on_c, 0, 79, 68
2, 81767, Note_on_c, 0, 67, 71
2, 81790, Note_on_c, 0, 77, 32
2, 81827, Note_on_c, 0, 77, 0
2, 81857, Control_c, 0, 64, 127
2, 82194, Note_on_c, 0, 59, 0
2, 82199, Note_on_c, 0, 63, 0
2, 82209, Note_on_c, 0, 67, 0
2, 82210, Note_on_c, 0, 52, 0
2, 82222, Note_on_c, 0, 79, 0
2, 82389, Note_on_c, 0, 81, 79
2, 82393, Note_on_c, 0, 62, 66
2, 82394, Note_on_c, 0, 52, 62
2, 82396, Note_on_c, 0, 69, 72
2, 82396, Note_on_c, 0, 59, 49
2, 82403, Control_c, 0, 64, 0
2, 82543, Control_c, 0, 64, 127
2, 82705, Note_on_c, 0, 52, 0
2, 82712, Note_on_c, 0, 62, 0
2, 82715, Note_on_c, 0, 69, 0
2, 82728, Note_on_c, 0, 81, 0
2, 82749, Note_on_c, 0, 59, 0
2, 82861, Control_c, 0, 64, 0
2, 82875, Note_on_c, 0, 62, 58
2, 82882, Note_on_c, 0, 83, 70
2, 82890, Note_on_c, 0, 71, 51
2, 82890, Note_on_c, 0, 59, 36
2, 82895, Note_on_c, 0, 52, 27
2, 82899, Note_on_c, 0, 76, 43
2, 82904, Note_on_c, 0, 55, 36
2, 82927, Note_on_c, 0, 76, 0
2, 82928, Note_on_c, 0, 52, 0
2, 82932, Note_on_c, 0, 62, 0
2, 82934, Note_on_c, 0, 71, 0
2, 82935, Note_on_c, 0, 55, 0
2, 82937, Note_on_c, 0, 59, 0
2, 82949, Note_on_c, 0, 83, 0
2, 83256, Note_on_c, 0, 79, 42
2, 83259, Note_on_c, 0, 67, 40
2, 83261, Note_on_c, 0, 62, 44
2, 83266, Note_on_c, 0, 59, 34
2, 83274, Note_on_c, 0, 74, 36
2, 83276, Note_on_c, 0, 52, 34
2, 83279, Note_on_c, 0, 55, 34
2, 83323, Note_on_c, 0, 62, 0
2, 83332, Note_on_c, 0, 67, 0
2, 83343, Note_on_c, 0, 59, 0
2, 83345, Note_on_c, 0, 74, 0
2, 83346, Note_on_c, 0, 52, 0
2, 83346, Note_on_c, 0, 55, 0
2, 83360, Note_on_c, 0, 79, 0
2, 83712, Control_c, 0, 64, 127
2, 83895, Note_on_c, 0, 79, 44
2, 83900, Note_on_c, 0, 74, 52
2, 83901, Note_on_c, 0, 67, 37
2, 83905, Note_on_c, 0, 62, 44
2, 83917, Note_on_c, 0, 59, 29
2, 83928, Note_on_c, 0, 52, 24
2, 83962, Note_on_c, 0, 52, 0
2, 83964, Note_on_c, 0, 67, 0
2, 83982, Note_on_c, 0, 59, 0
2, 83987, Note_on_c, 0, 62, 0
2, 83999, Note_on_c, 0, 74, 0
2, 84039, Note_on_c, 0, 79, 0
2, 84665, Control_c, 0, 64, 0
2, 84690, Note_on_c, 0, 83, 92
2, 84692, Note_on_c, 0, 74, 90
2, 84692, Note_on_c, 0, 56, 77
2, 84693, Note_on_c, 0, 79, 84
2, 84694, Note_on_c, 0, 67, 83
2, 84696, Note_on_c, 0, 62, 69
2, 84760, Control_c, 0, 64, 127
2, 84813, Note_on_c, 0, 74, 0
2, 84827, Note_on_c, 0, 67, 0
2, 84828, Note_on_c, 0, 83, 0
2, 84829, Note_on_c, 0, 79, 0
2, 84830, Note_on_c, 0, 56, 0
2, 84848, Note_on_c, 0, 62, 0
2, 84877, Note_on_c, 0, 83, 71
2, 84878, Note_on_c, 0, 79, 68
2, 84879, Note_on_c, 0, 67, 66
2, 84882, Note_on_c, 0, 56, 65
2, 84883, Note_on_c, 0, 74, 67
2, 84890, Note_on_c, 0, 62, 77
2, 84979, Note_on_c, 0, 74, 0
2, 84988, Note_on_c, 0, 83, 0
2, 84992, Note_on_c, 0, 79, 0
2, 84996, Note_on_c, 0, 56, 0
2, 84997, Note_on_c, 0, 67, 0
2, 85016, Note_on_c, 0, 62, 0
2, 85082, Note_on_c, 0, 62, 68
2, 85083, Note_on_c, 0, 83, 80
2, 85085, Note_on_c, 0, 79, 80
2, 85086, Note_on_c, 0, 56, 78
2, 85086, Note_on_c, 0, 74, 80
2, 85088, Note_on_c, 0, 67, 76
2, 85180, Note_on_c, 0, 74, 0
2, 85181, Note_on_c, 0, 67, 0
2, 85182, Note_on_c, 0, 83, 0
2, 85185, Note_on_c, 0, 56, 0
2, 85192, Note_on_c, 0, 79, 0
2, 85208, Note_on_c, 0, 62, 0
2, 85230, Control_c, 0, 64, 0
2, 85254, Note_on_c, 0, 79, 60
2, 85256, Note_on_c, 0, 56, 64
2, 85257, Note_on_c, 0, 83, 67
2, 85257, Note_on_c, 0, 62, 70
2, 85258, Note_on_c, 0, 67, 60
2, 85261, Note_on_c, 0, 74, 53
2, 85294, Control_c, 0, 64, 127
2, 85341, Note_on_c, 0, 74, 0
2, 85351, Note_on_c, 0, 83, 0
2, 85353, Note_on_c, 0, 79, 0
2, 85361, Note_on_c, 0, 67, 0
2, 85361, Note_on_c, 0, 62, 0
2, 85363, Note_on_c, 0, 56, 0
2, 85488, Note_on_c, 0, 81, 69
2, 85490, Control_c, 0, 64, 0
2, 85491, Note_on_c, 0, 84, 73
2, 85492, Note_on_c, 0, 72, 64
2, 85501, Note_on_c, 0, 62, 66
2, 85502, Note_on_c, 0, 56, 67
2, 85503, Note_on_c, 0, 67, 71
2, 85541, Note_on_c, 0, 72, 0
2, 85542, Note_on_c, 0, 67, 0
2, 85557, Note_on_c, 0, 81, 0
2, 85559, Note_on_c, 0, 62, 0
2, 85570, Note_on_c, 0, 84, 0
2, 85574, Note_on_c, 0, 56, 0
2, 85592, Control_c, 0, 64, 127
2, 85827, Control_c, 0, 64, 0
2, 85837, Note_on_c, 0, 86, 82
2, 85839, Note_on_c, 0, 74, 83
2, 85840, Note_on_c, 0, 56, 75
2, 85841, Note_on_c, 0, 79, 76
2, 85842, Note_on_c, 0, 67, 79
2, 85844, Note_on_c, 0, 83, 74
2, 85846, Note_on_c, 0, 62, 66
2, 85878, Note_on_c, 0, 74, 0
2, 85921, Note_on_c, 0, 79, 0
2, 85927, Note_on_c, 0, 56, 0
2, 85935, Control_c, 0, 64, 127
2, 85941, Note_on_c, 0, 86, 0
2, 85942, Note_on_c, 0, 67, 0
2, 85942, Note_on_c, 0, 83, 0
2, 85949, Note_on_c, 0, 62, 0
2, 85954, Note_on_c, 0, 56, 29
2, 85958, Note_on_c, 0, 74, 41
2, 86012, Note_on_c, 0, 74, 0
2, 86013, Note_on_c, 0, 86, 27
2, 86029, Note_on_c, 0, 79, 40
2, 86029, Note_on_c, 0, 83, 35
2, 86040, Note_on_c, 0, 62, 24
2, 86044, Note_on_c, 0, 56, 0
2, 86060, Note_on_c, 0, 86, 0
2, 86060, Note_on_c, 0, 79, 0
2, 86066, Note_on_c, 0, 67, 28
2, 86068, Note_on_c, 0, 74, 44
2, 86073, Note_on_c, 0, 62, 0
2, 86074, Note_on_c, 0, 83, 0
2, 86098, Note_on_c, 0, 67, 0
2, 86114, Note_on_c, 0, 56, 51
2, 86143, Note_on_c, 0, 74, 0
2, 86149, Note_on_c, 0, 86, 28
2, 86159, Note_on_c, 0, 79, 41
2, 86160, Note_on_c, 0, 83, 40
2, 86206, Note_on_c, 0, 62, 38
2, 86207, Note_on_c, 0, 74, 39
2, 86214, Note_on_c, 0, 67, 40
2, 86220, Note_on_c, 0, 79, 0
2, 86233, Note_on_c, 0, 83, 0
2, 86243, Note_on_c, 0, 56, 0
2, 86244, Note_on_c, 0, 86, 0
2, 86247, Note_on_c, 0, 67, 0
2, 86257, Note_on_c, 0, 74, 0
2, 86258, Note_on_c, 0, 62, 0
2, 86291, Control_c, 0, 64, 0
2, 86544, Control_c, 0, 64, 127
2, 86598, Note_on_c, 0, 71, 66
2, 86605, Note_on_c, 0, 68, 65
2, 86606, Note_on_c, 0, 62, 62
2, 86607, Note_on_c, 0, 56, 62
2, 86613, Note_on_c, 0, 64, 68
2, 86655, Note_on_c, 0, 68, 0
2, 86693, Note_on_c, 0, 62, 0
2, 86698, Note_on_c, 0, 64, 0
2, 86723, Control_c, 0, 64, 0
2, 86728, Note_on_c, 0, 71, 0
2, 86767, Note_on_c, 0, 62, 31
2, 86769, Note_on_c, 0, 74, 62
2, 86776, Note_on_c, 0, 71, 51
2, 86778, Note_on_c, 0, 64, 51
2, 86780, Note_on_c, 0, 68, 53
2, 86831, Control_c, 0, 64, 127
2, 86887, Note_on_c, 0, 72, 1
2, 86902, Note_on_c, 0, 62, 0
2, 86944, Note_on_c, 0, 71, 0
2, 86965, Note_on_c, 0, 74, 0
2, 86998, Note_on_c, 0, 64, 0
2, 87004, Note_on_c, 0, 72, 0
2, 87018, Note_on_c, 0, 68, 0
2, 87036, Note_on_c, 0, 56, 0
2, 87072, Control_c, 0, 64, 0
2, 87105, Note_on_c, 0, 68, 55
2, 87107, Note_on_c, 0, 64, 36
2, 87117, Note_on_c, 0, 58, 50
2, 87120, Note_on_c, 0, 70, 45
2, 87149, Control_c, 0, 64, 127
2, 87265, Note_on_c, 0, 70, 0
2, 87278, Note_on_c, 0, 64, 0
2, 87284, Note_on_c, 0, 68, 0
2, 87363, Note_on_c, 0, 58, 0
2, 87377, Note_on_c, 0, 72, 52
2, 87382, Note_on_c, 0, 67, 54
2, 87385, Note_on_c, 0, 62, 43
2, 87387, Note_on_c, 0, 57, 51
2, 87409, Control_c, 0, 64, 0
2, 87529, Control_c, 0, 64, 127
2, 87668, Note_on_c, 0, 72, 0
2, 87670, Note_on_c, 0, 62, 0
2, 87686, Note_on_c, 0, 67, 0
2, 87704, Note_on_c, 0, 57, 0
2, 87910, Control_c, 0, 64, 0
2, 87936, Control_c, 0, 64, 127
2, 88667, Control_c, 0, 64, 0
2, 88718, Control_c, 0, 64, 127
2, 88912, Note_on_c, 0, 60, 85
2, 88914, Note_on_c, 0, 74, 79
2, 88914, Note_on_c, 0, 64, 85
2, 88919, Note_on_c, 0, 67, 68
2, 88920, Note_on_c, 0, 71, 58
2, 88986, Note_on_c, 0, 67, 0
2, 88986, Note_on_c, 0, 64, 0
2, 89008, Note_on_c, 0, 60, 0
2, 89015, Note_on_c, 0, 71, 0
2, 89021, Note_on_c, 0, 74, 0
2, 89075, Control_c, 0, 64, 0
2, 89094, Note_on_c, 0, 76, 70
2, 89099, Note_on_c, 0, 67, 68
2, 89105, Note_on_c, 0, 69, 68
2, 89107, Note_on_c, 0, 72, 57
2, 89108, Note_on_c, 0, 62, 70
2, 89127, Note_on_c, 0, 69, 0
2, 89145, Note_on_c, 0, 67, 0
2, 89152, Note_on_c, 0, 62, 0
2, 89161, Note_on_c, 0, 72, 0
2, 89176, Note_on_c, 0, 76, 0
2, 89346, Note_on_c, 0, 79, 88
2, 89347, Note_on_c, 0, 76, 83
2, 89349, Note_on_c, 0, 69, 96
2, 89350, Note_on_c, 0, 72, 88
2, 89353, Note_on_c, 0, 64, 89
2, 89458, Control_c, 0, 64, 127
2, 89544, Note_on_c, 0, 76, 0
2, 89548, Note_on_c, 0, 79, 0
2, 89569, Note_on_c, 0, 72, 0
2, 89606, Note_on_c, 0, 69, 0
2, 89770, Note_on_c, 0, 64, 0
2, 89775, Control_c, 0, 64, 0
2, 89794, Note_on_c, 0, 76, 55
2, 89799, Note_on_c, 0, 67, 51
2, 89805, Note_on_c, 0, 69, 58
2, 89813, Note_on_c, 0, 60, 46
2, 89813, Note_on_c, 0, 72, 40
2, 89845, Note_on_c, 0, 72, 0
2, 89863, Note_on_c, 0, 76, 0
2, 89876, Note_on_c, 0, 69, 0
2, 89889, Note_on_c, 0, 67, 0
2, 89963, Note_on_c, 0, 60, 0
2, 90183, Note_on_c, 0, 64, 57
2, 90183, Note_on_c, 0, 57, 48
2, 90189, Note_on_c, 0, 72, 53
2, 90189, Note_on_c, 0, 69, 58
2, 90195, Note_on_c, 0, 67, 51
2, 90245, Note_on_c, 0, 57, 0
2, 90267, Note_on_c, 0, 67, 0
2, 90286, Note_on_c, 0, 64, 0
2, 90345, Note_on_c, 0, 69, 0
2, 90365, Control_c, 0, 64, 127
2, 90384, Note_on_c, 0, 72, 0
2, 90525, Control_c, 0, 64, 0
2, 90588, Note_on_c, 0, 71, 62
2, 90588, Note_on_c, 0, 59, 39
2, 90589, Note_on_c, 0, 50, 50
2, 90589, Note_on_c, 0, 62, 52
2, 90597, Note_on_c, 0, 67, 49
2, 90665, Note_on_c, 0, 50, 0
2, 90675, Note_on_c, 0, 59, 0
2, 90684, Note_on_c, 0, 62, 0
2, 90701, Note_on_c, 0, 67, 0
2, 90708, Note_on_c, 0, 71, 0
2, 90971, Note_on_c, 0, 74, 75
2, 90973, Note_on_c, 0, 50, 63
2, 90975, Note_on_c, 0, 67, 67
2, 90980, Note_on_c, 0, 62, 70
2, 90981, Note_on_c, 0, 59, 53
2, 91033, Note_on_c, 0, 59, 0
2, 91042, Note_on_c, 0, 62, 0
2, 91047, Note_on_c, 0, 67, 0
2, 91051, Note_on_c, 0, 50, 0
2, 91056, Note_on_c, 0, 74, 0
2, 91350, Note_on_c, 0, 71, 80
2, 91351, Note_on_c, 0, 52, 72
2, 91351, Note_on_c, 0, 59, 66
2, 91353, Note_on_c, 0, 62, 82
2, 91353, Note_on_c, 0, 67, 74
2, 91402, Control_c, 0, 64, 127
2, 91551, Note_on_c, 0, 59, 0
2, 91575, Note_on_c, 0, 67, 0
2, 91590, Note_on_c, 0, 62, 0
2, 91642, Note_on_c, 0, 52, 0
2, 91718, Note_on_c, 0, 52, 24
2, 91735, Note_on_c, 0, 59, 58
2, 91745, Note_on_c, 0, 67, 71
2, 91749, Note_on_c, 0, 62, 70
2, 91818, Note_on_c, 0, 59, 0
2, 91826, Note_on_c, 0, 62, 0
2, 91827, Note_on_c, 0, 52, 0
2, 91833, Note_on_c, 0, 67, 0
2, 91837, Note_on_c, 0, 71, 0
2, 92106, Control_c, 0, 64, 0
2, 92111, Note_on_c, 0, 69, 94
2, 92116, Note_on_c, 0, 61, 92
2, 92119, Note_on_c, 0, 65, 83
2, 92119, Note_on_c, 0, 51, 74
2, 92140, Note_on_c, 0, 60, 73
2, 92162, Note_on_c, 0, 60, 0
2, 92196, Note_on_c, 0, 60, 17
2, 92500, Control_c, 0, 64, 127
2, 92508, Note_on_c, 0, 60, 0
2, 92548, Note_on_c, 0, 51, 0
2, 92561, Note_on_c, 0, 65, 0
2, 92579, Note_on_c, 0, 61, 0
2, 92602, Note_on_c, 0, 69, 0
2, 92763, Note_on_c, 0, 71, 63
2, 92769, Note_on_c, 0, 66, 62
2, 92770, Note_on_c, 0, 60, 66
2, 92771, Note_on_c, 0, 63, 62
2, 92783, Note_on_c, 0, 59, 60
2, 92795, Note_on_c, 0, 50, 51
2, 92798, Control_c, 0, 64, 0
2, 92865, Note_on_c, 0, 59, 0
2, 92916, Note_on_c, 0, 50, 0
2, 92977, Control_c, 0, 64, 127
2, 93148, Note_on_c, 0, 50, 110
2, 93156, Note_on_c, 0, 49, 80
2, 93198, Control_c, 0, 64, 0
2, 93233, Note_on_c, 0, 49, 0
2, 93243, Note_on_c, 0, 71, 0
2, 93442, Note_on_c, 0, 66, 0
2, 93529, Control_c, 0, 64, 127
2, 93552, Note_on_c, 0, 60, 0
2, 93569, Note_on_c, 0, 63, 0
2, 93599, Control_c, 0, 64, 0
2, 93655, Note_on_c, 0, 62, 57
2, 93790, Note_on_c, 0, 62, 0
2, 94012, Note_on_c, 0, 64, 64
2, 94117, Note_on_c, 0, 64, 0
2, 94280, Note_on_c, 0, 50, 0
2, 94315, Note_on_c, 0, 46, 35
2, 94383, Note_on_c, 0, 46, 0
2, 94397, Note_on_c, 0, 55, 57
2, 94399, Note_on_c, 0, 67, 40
2, 94400, Note_on_c, 0, 47, 50
2, 95015, Note_on_c, 0, 55, 0
2, 95022, Note_on_c, 0, 67, 0
2, 95073, Note_on_c, 0, 46, 37
2, 95078, Note_on_c, 0, 47, 0
2, 95154, Note_on_c, 0, 67, 36
2, 95159, Note_on_c, 0, 48, 57
2, 95160, Note_on_c, 0, 55, 50
2, 95161, Note_on_c, 0, 46, 0
2, 95161, Note_on_c, 0, 60, 61
2, 95689, Note_on_c, 0, 60, 0
2, 95747, Control_c, 0, 64, 127
2, 95753, Note_on_c, 0, 67, 0
2, 95758, Note_on_c, 0, 55, 0
2, 95913, Control_c, 0, 64, 0
2, 95922, Note_on_c, 0, 48, 0
2, 95946, Note_on_c, 0, 61, 57
2, 95947, Note_on_c, 0, 67, 48
2, 95952, Note_on_c, 0, 49, 44
2, 95952, Note_on_c, 0, 55, 54
2, 96231, Control_c, 0, 64, 127
2, 96351, Note_on_c, 0, 55, 0
2, 96425, Note_on_c, 0, 67, 0
2, 96460, Note_on_c, 0, 61, 0
2, 96600, Note_on_c, 0, 67, 51
2, 96608, Note_on_c, 0, 59, 48
2, 96610, Note_on_c, 0, 64, 48
2, 96611, Note_on_c, 0, 62, 48
2, 96630, Control_c, 0, 64, 0
2, 96663, Note_on_c, 0, 49, 0
2, 96973, Note_on_c, 0, 59, 0
2, 96991, Note_on_c, 0, 62, 0
2, 96994, Note_on_c, 0, 50, 95
2, 96996, Note_on_c, 0, 49, 73
2, 97008, Note_on_c, 0, 64, 0
2, 97056, Note_on_c, 0, 49, 0
2, 97058, Note_on_c, 0, 67, 0
2, 97221, Control_c, 0, 64, 127
2, 97437, Control_c, 0, 64, 0
2, 97488, Control_c, 0, 64, 127
2, 97492, Note_on_c, 0, 74, 94
2, 97765, Note_on_c, 0, 50, 0
2, 97766, Note_on_c, 0, 62, 62
2, 98013, Note_on_c, 0, 62, 0
2, 98133, Note_on_c, 0, 74, 0
2, 98246, Note_on_c, 0, 77, 84
2, 98489, Note_on_c, 0, 68, 80
2, 98511, Note_on_c, 0, 54, 46
2, 98516, Note_on_c, 0, 60, 42
2, 98783, Note_on_c, 0, 68, 0
2, 98821, Note_on_c, 0, 77, 0
2, 98987, Note_on_c, 0, 60, 0
2, 98993, Note_on_c, 0, 54, 0
2, 99006, Note_on_c, 0, 89, 79
2, 99253, Note_on_c, 0, 82, 69
2, 99263, Note_on_c, 0, 65, 51
2, 99265, Note_on_c, 0, 60, 55
2, 99271, Note_on_c, 0, 54, 39
2, 99545, Note_on_c, 0, 65, 0
2, 99559, Note_on_c, 0, 60, 0
2, 99632, Note_on_c, 0, 54, 0
2, 99685, Note_on_c, 0, 89, 0
2, 99723, Note_on_c, 0, 82, 0
2, 99759, Note_on_c, 0, 62, 31
2, 99763, Note_on_c, 0, 59, 36
2, 99774, Note_on_c, 0, 83, 42
2, 99776, Note_on_c, 0, 54, 31
2, 99787, Control_c, 0, 64, 0
2, 99815, Note_on_c, 0, 83, 0
2, 99870, Note_on_c, 0, 59, 0
2, 99877, Note_on_c, 0, 62, 0
2, 99880, Note_on_c, 0, 54, 0
2, 100164, Note_on_c, 0, 67, 95
2, 100349, Note_on_c, 0, 67, 0
2, 100367, Note_on_c, 0, 69, 50
2, 100430, Note_on_c, 0, 67, 46
2, 100432, Note_on_c, 0, 69, 0
2, 100490, Note_on_c, 0, 66, 53
2, 100494, Note_on_c, 0, 67, 0
2, 100519, Note_on_c, 0, 66, 0
2, 100575, Note_on_c, 0, 67, 29
2, 100731, Note_on_c, 0, 67, 0
2, 101210, Note_on_c, 0, 62, 61
2, 101213, Note_on_c, 0, 69, 99
2, 101230, Note_on_c, 0, 59, 32
2, 101234, Note_on_c, 0, 55, 34
2, 101235, Note_on_c, 0, 62, 0
2, 101259, Note_on_c, 0, 59, 0
2, 101286, Note_on_c, 0, 69, 0
2, 101302, Note_on_c, 0, 55, 0
2, 101401, Note_on_c, 0, 70, 21
2, 101464, Note_on_c, 0, 70, 0
2, 101501, Note_on_c, 0, 71, 33
2, 101553, Note_on_c, 0, 71, 0
2, 101597, Note_on_c, 0, 76, 92
2, 101660, Note_on_c, 0, 55, 20
2, 101676, Note_on_c, 0, 76, 0
2, 101694, Note_on_c, 0, 55, 0
2, 101723, Note_on_c, 0, 70, 62
2, 101799, Note_on_c, 0, 70, 0
2, 101861, Note_on_c, 0, 69, 14
2, 101923, Note_on_c, 0, 69, 0
2, 102346, Note_on_c, 0, 62, 43
2, 102357, Note_on_c, 0, 59, 34
2, 102369, Note_on_c, 0, 62, 0
2, 102373, Note_on_c, 0, 55, 24
2, 102383, Note_on_c, 0, 59, 0
2, 102408, Note_on_c, 0, 55, 0
2, 102590, Note_on_c, 0, 67, 51
2, 102616, Note_on_c, 0, 67, 0
2, 102709, Control_c, 0, 64, 127
2, 102713, Note_on_c, 0, 69, 76
2, 102780, Note_on_c, 0, 69, 0
2, 102829, Note_on_c, 0, 74, 80
2, 102843, Control_c, 0, 64, 0
2, 102915, Note_on_c, 0, 74, 0
2, 102958, Note_on_c, 0, 69, 61
2, 103002, Note_on_c, 0, 69, 0
2, 103083, Note_on_c, 0, 66, 70
2, 103142, Note_on_c, 0, 66, 0
2, 103194, Note_on_c, 0, 62, 55
2, 103251, Note_on_c, 0, 62, 0
2, 103318, Note_on_c, 0, 58, 43
2, 103378, Note_on_c, 0, 58, 0
2, 103516, Note_on_c, 0, 57, 59
2, 103522, Control_c, 0, 64, 127
2, 103560, Control_c, 0, 64, 0
2, 103603, Note_on_c, 0, 57, 0
2, 103657, Note_on_c, 0, 54, 33
2, 103713, Note_on_c, 0, 54, 0
2, 103885, Control_c, 0, 64, 127
2, 103919, Note_on_c, 0, 62, 47
2, 103929, Note_on_c, 0, 58, 36
2, 103943, Note_on_c, 0, 62, 0
2, 103954, Control_c, 0, 64, 0
2, 103962, Note_on_c, 0, 58, 0
2, 104176, Control_c, 0, 64, 127
2, 104267, Note_on_c, 0, 67, 64
2, 104273, Note_on_c, 0, 57, 57
2, 104274, Note_on_c, 0, 63, 51
2, 104289, Note_on_c, 0, 67, 0
2, 104298, Control_c, 0, 64, 0
2, 104299, Note_on_c, 0, 57, 0
2, 104313, Note_on_c, 0, 63, 0
2, 104421, Note_on_c, 0, 87, 60
2, 104460, Note_on_c, 0, 87, 0
2, 104479, Note_on_c, 0, 91, 68
2, 104518, Note_on_c, 0, 87, 37
2, 104565, Note_on_c, 0, 91, 0
2, 104598, Note_on_c, 0, 84, 58
2, 104616, Note_on_c, 0, 87, 0
2, 104626, Note_on_c, 0, 84, 0
2, 104735, Note_on_c, 0, 80, 36
2, 104757, Note_on_c, 0, 80, 0
2, 104777, Note_on_c, 0, 79, 44
2, 104841, Note_on_c, 0, 79, 0
2, 104858, Note_on_c, 0, 78, 56
2, 104895, Note_on_c, 0, 78, 0
2, 104914, Note_on_c, 0, 77, 36
2, 104968, Note_on_c, 0, 77, 0
2, 104969, Note_on_c, 0, 76, 53
2, 105026, Note_on_c, 0, 76, 0
2, 105061, Note_on_c, 0, 75, 68
2, 105101, Note_on_c, 0, 75, 0
2, 105132, Note_on_c, 0, 79, 71
2, 105179, Note_on_c, 0, 75, 51
2, 105218, Note_on_c, 0, 79, 0
2, 105250, Note_on_c, 0, 72, 48
2, 105257, Note_on_c, 0, 75, 0
2, 105290, Note_on_c, 0, 72, 0
2, 105305, Note_on_c, 0, 69, 54
2, 105359, Note_on_c, 0, 69, 0
2, 105389, Note_on_c, 0, 68, 45
2, 105424, Note_on_c, 0, 68, 0
2, 105433, Note_on_c, 0, 67, 51
2, 105492, Note_on_c, 0, 67, 0
2, 105518, Note_on_c, 0, 66, 50
2, 105540, Note_on_c, 0, 66, 0
2, 105561, Note_on_c, 0, 65, 47
2, 105621, Note_on_c, 0, 65, 0
2, 105642, Note_on_c, 0, 64, 34
2, 105682, Note_on_c, 0, 64, 0
2, 105739, Note_on_c, 0, 69, 89
2, 105805, Note_on_c, 0, 69, 0
2, 105857, Note_on_c, 0, 66, 80
2, 105914, Note_on_c, 0, 66, 0
2, 105992, Note_on_c, 0, 63, 71
2, 106030, Note_on_c, 0, 63, 0
2, 106114, Note_on_c, 0, 67, 83
2, 106183, Note_on_c, 0, 67, 0
2, 106221, Note_on_c, 0, 64, 82
2, 106268, Note_on_c, 0, 64, 0
2, 106353, Note_on_c, 0, 59, 58
2, 106420, Note_on_c, 0, 59, 0
2, 106575, Note_on_c, 0, 64, 77
2, 106579, Note_on_c, 0, 58, 84
2, 106661, Note_on_c, 0, 58, 0
2, 106666, Note_on_c, 0, 64, 0
2, 106687, Note_on_c, 0, 57, 60
2, 106763, Note_on_c, 0, 57, 0
2, 106808, Note_on_c, 0, 55, 34
2, 106845, Note_on_c, 0, 55, 0
2, 106918, Note_on_c, 0, 52, 61
2, 106982, Note_on_c, 0, 52, 0
2, 107062, Note_on_c, 0, 55, 79
2, 107144, Note_on_c, 0, 55, 0
2, 107173, Note_on_c, 0, 57, 68
2, 107240, Note_on_c, 0, 57, 0
2, 107304, Note_on_c, 0, 55, 80
2, 107732, Note_on_c, 0, 55, 0
2, 107738, Note_on_c, 0, 52, 53
2, 107797, Note_on_c, 0, 52, 0
2, 108124, Note_on_c, 0, 69, 77
2, 108125, Note_on_c, 0, 66, 59
2, 108127, Control_c, 0, 64, 127
2, 108129, Note_on_c, 0, 57, 75
2, 108130, Note_on_c, 0, 59, 69
2, 108132, Note_on_c, 0, 62, 65
2, 108203, Control_c, 0, 64, 0
2, 108214, Note_on_c, 0, 62, 0
2, 108220, Note_on_c, 0, 66, 0
2, 108225, Note_on_c, 0, 59, 0
2, 108229, Note_on_c, 0, 69, 0
2, 108246, Note_on_c, 0, 57, 0
2, 108275, Note_on_c, 0, 55, 39
2, 108277, Note_on_c, 0, 67, 39
2, 108291, Note_on_c, 0, 59, 40
2, 108296, Note_on_c, 0, 62, 31
2, 108494, Note_on_c, 0, 67, 0
2, 108496, Control_c, 0, 64, 127
2, 108528, Note_on_c, 0, 62, 0
2, 108528, Note_on_c, 0, 59, 0
2, 108559, Control_c, 0, 64, 0
2, 108623, Note_on_c, 0, 66, 48
2, 108628, Note_on_c, 0, 59, 45
2, 108633, Note_on_c, 0, 62, 37
2, 108633, Note_on_c, 0, 54, 42
2, 108648, Note_on_c, 0, 55, 0
2, 108686, Control_c, 0, 64, 127
2, 108729, Note_on_c, 0, 54, 0
2, 108770, Note_on_c, 0, 62, 0
2, 108777, Note_on_c, 0, 59, 0
2, 108909, Note_on_c, 0, 66, 0
2, 108973, Control_c, 0, 64, 0
2, 109004, Note_on_c, 0, 64, 44
2, 109009, Note_on_c, 0, 55, 33
2, 109015, Note_on_c, 0, 45, 29
2, 109021, Note_on_c, 0, 59, 34
2, 109021, Note_on_c, 0, 61, 33
2, 109071, Note_on_c, 0, 59, 0
2, 109075, Note_on_c, 0, 55, 0
2, 109080, Note_on_c, 0, 61, 0
2, 109085, Note_on_c, 0, 45, 0
2, 109085, Note_on_c, 0, 64, 0
2, 109550, Control_c, 0, 64, 127
2, 109648, Note_on_c, 0, 65, 47
2, 109648, Note_on_c, 0, 60, 47
2, 109651, Note_on_c, 0, 61, 40
2, 109671, Note_on_c, 0, 65, 0
2, 109677, Control_c, 0, 64, 0
2, 109678, Note_on_c, 0, 60, 0
2, 109696, Note_on_c, 0, 61, 0
2, 109901, Note_on_c, 0, 75, 69
2, 109977, Note_on_c, 0, 75, 0
2, 110013, Note_on_c, 0, 76, 60
2, 110085, Note_on_c, 0, 76, 0
2, 110141, Note_on_c, 0, 78, 50
2, 110211, Note_on_c, 0, 78, 0
2, 110268, Note_on_c, 0, 79, 44
2, 110337, Note_on_c, 0, 79, 0
2, 110394, Note_on_c, 0, 61, 57
2, 110396, Note_on_c, 0, 66, 60
2, 110401, Note_on_c, 0, 81, 65
2, 110436, Note_on_c, 0, 66, 0
2, 110441, Note_on_c, 0, 61, 0
2, 110459, Note_on_c, 0, 81, 0
2, 110634, Note_on_c, 0, 82, 67
2, 110687, Note_on_c, 0, 82, 0
2, 110706, Control_c, 0, 64, 127
2, 110738, Note_on_c, 0, 84, 77
2, 110795, Note_on_c, 0, 84, 0
2, 110814, Control_c, 0, 64, 0
2, 110844, Note_on_c, 0, 89, 78
2, 110913, Note_on_c, 0, 89, 0
2, 110948, Note_on_c, 0, 94, 78
2, 111006, Note_on_c, 0, 94, 0
2, 111043, Control_c, 0, 64, 127
2, 111061, Note_on_c, 0, 96, 90
2, 111067, Note_on_c, 0, 84, 75
2, 111112, Note_on_c, 0, 84, 0
2, 111122, Note_on_c, 0, 96, 0
2, 111172, Note_on_c, 0, 94, 65
2, 111224, Note_on_c, 0, 94, 0
2, 111275, Note_on_c, 0, 96, 83
2, 111280, Note_on_c, 0, 84, 75
2, 111290, Control_c, 0, 64, 0
2, 111299, Note_on_c, 0, 66, 57
2, 111300, Note_on_c, 0, 61, 50
2, 111332, Note_on_c, 0, 96, 0
2, 111333, Note_on_c, 0, 84, 0
2, 111377, Note_on_c, 0, 66, 0
2, 111378, Note_on_c, 0, 61, 0
2, 111397, Note_on_c, 0, 94, 59
2, 111446, Note_on_c, 0, 94, 0
2, 111507, Control_c, 0, 64, 127
2, 111511, Note_on_c, 0, 96, 67
2, 111517, Note_on_c, 0, 84, 65
2, 111555, Note_on_c, 0, 96, 0
2, 111561, Note_on_c, 0, 84, 0
2, 111612, Note_on_c, 0, 94, 63
2, 111662, Note_on_c, 0, 94, 0
2, 111691, Control_c, 0, 64, 0
2, 111721, Note_on_c, 0, 66, 69
2, 111727, Note_on_c, 0, 61, 54
2, 111729, Note_on_c, 0, 96, 84
2, 111734, Note_on_c, 0, 84, 78
2, 111773, Note_on_c, 0, 66, 0
2, 111781, Note_on_c, 0, 96, 0
2, 111782, Note_on_c, 0, 84, 0
2, 111800, Note_on_c, 0, 61, 0
2, 111805, Control_c, 0, 64, 127
2, 111854, Note_on_c, 0, 94, 62
2, 111901, Note_on_c, 0, 94, 0
2, 111944, Note_on_c, 0, 61, 59
2, 111952, Note_on_c, 0, 66, 49
2, 111954, Note_on_c, 0, 96, 78
2, 111959, Note_on_c, 0, 84, 68
2, 111962, Note_on_c, 0, 55, 37
2, 111975, Note_on_c, 0, 66, 0
2, 111994, Note_on_c, 0, 55, 0
2, 112002, Note_on_c, 0, 96, 0
2, 112008, Note_on_c, 0, 84, 0
2, 112039, Note_on_c, 0, 61, 0
2, 112062, Note_on_c, 0, 94, 61
2, 112109, Note_on_c, 0, 94, 0
2, 112116, Control_c, 0, 64, 0
2, 112148, Note_on_c, 0, 55, 40
2, 112149, Note_on_c, 0, 62, 37
2, 112152, Note_on_c, 0, 95, 66
2, 112158, Note_on_c, 0, 83, 50
2, 112175, Note_on_c, 0, 95, 0
2, 112180, Note_on_c, 0, 62, 0
2, 112185, Note_on_c, 0, 83, 0
2, 112191, Note_on_c, 0, 55, 0
2, 112454, Control_c, 0, 64, 127
2, 112716, Note_on_c, 0, 69, 90
2, 112722, Note_on_c, 0, 62, 91
2, 112729, Note_on_c, 0, 47, 65
2, 112730, Note_on_c, 0, 57, 62
2, 112778, Note_on_c, 0, 57, 0
2, 112783, Control_c, 0, 64, 0
2, 112805, Note_on_c, 0, 69, 0
2, 112864, Note_on_c, 0, 66, 57
2, 112877, Note_on_c, 0, 57, 51
2, 112981, Control_c, 0, 64, 127
2, 113012, Note_on_c, 0, 62, 0
2, 113139, Control_c, 0, 64, 0
2, 113142, Note_on_c, 0, 57, 0
2, 113233, Note_on_c, 0, 62, 62
2, 113235, Note_on_c, 0, 57, 65
2, 113291, Control_c, 0, 64, 127
2, 113399, Note_on_c, 0, 57, 0
2, 113432, Note_on_c, 0, 62, 0
2, 113432, Note_on_c, 0, 47, 0
2, 113445, Note_on_c, 0, 66, 0
2, 113590, Control_c, 0, 64, 0
2, 113612, Note_on_c, 0, 69, 87
2, 113613, Note_on_c, 0, 54, 76
2, 113617, Note_on_c, 0, 59, 84
2, 113618, Note_on_c, 0, 66, 63
2, 113619, Note_on_c, 0, 62, 76
2, 113793, Note_on_c, 0, 66, 0
2, 113798, Note_on_c, 0, 62, 0
2, 113816, Note_on_c, 0, 59, 0
2, 113833, Note_on_c, 0, 69, 0
2, 113840, Note_on_c, 0, 54, 0
2, 113888, Note_on_c, 0, 52, 53
2, 113960, Note_on_c, 0, 52, 0
2, 113982, Note_on_c, 0, 54, 74
2, 113986, Note_on_c, 0, 66, 62
2, 113991, Note_on_c, 0, 69, 73
2, 113994, Note_on_c, 0, 59, 68
2, 113996, Note_on_c, 0, 62, 66
2, 114067, Control_c, 0, 64, 127
2, 114186, Note_on_c, 0, 59, 0
2, 114193, Note_on_c, 0, 62, 0
2, 114202, Note_on_c, 0, 69, 0
2, 114210, Note_on_c, 0, 66, 0
2, 114231, Note_on_c, 0, 54, 0
2, 114252, Note_on_c, 0, 67, 63
2, 114253, Note_on_c, 0, 62, 64
2, 114254, Note_on_c, 0, 59, 53
2, 114258, Note_on_c, 0, 52, 60
2, 114268, Note_on_c, 0, 66, 28
2, 114270, Control_c, 0, 64, 0
2, 114291, Note_on_c, 0, 66, 0
2, 114384, Control_c, 0, 64, 127
2, 114429, Note_on_c, 0, 59, 0
2, 114462, Note_on_c, 0, 62, 0
2, 114498, Note_on_c, 0, 52, 0
2, 114518, Note_on_c, 0, 67, 0
2, 115083, Control_c, 0, 64, 0
2, 115130, Note_on_c, 0, 60, 75
2, 115131, Note_on_c, 0, 61, 62
2, 115134, Note_on_c, 0, 65, 74
2, 115140, Note_on_c, 0, 94, 80
2, 115141, Note_on_c, 0, 82, 76
2, 115141, Note_on_c, 0, 87, 77
2, 115149, Note_on_c, 0, 58, 31
2, 115158, Note_on_c, 0, 65, 0
2, 115163, Note_on_c, 0, 55, 27
2, 115177, Note_on_c, 0, 82, 0
2, 115181, Note_on_c, 0, 87, 0
2, 115182, Note_on_c, 0, 58, 0
2, 115184, Note_on_c, 0, 61, 0
2, 115184, Note_on_c, 0, 55, 0
2, 115186, Note_on_c, 0, 60, 0
2, 115198, Note_on_c, 0, 94, 0
2, 115362, Control_c, 0, 64, 127
2, 115399, Note_on_c, 0, 60, 80
2, 115400, Note_on_c, 0, 61, 65
2, 115402, Note_on_c, 0, 96, 71
2, 115404, Note_on_c, 0, 65, 79
2, 115407, Note_on_c, 0, 98, 57
2, 115409, Note_on_c, 0, 84, 64
2, 115411, Note_on_c, 0, 58, 38
2, 115411, Note_on_c, 0, 55, 64
2, 115420, Control_c, 0, 64, 0
2, 115425, Note_on_c, 0, 65, 0
2, 115430, Note_on_c, 0, 98, 0
2, 115433, Note_on_c, 0, 55, 0
2, 115438, Note_on_c, 0, 84, 0
2, 115438, Note_on_c, 0, 58, 0
2, 115447, Note_on_c, 0, 60, 0
2, 115448, Note_on_c, 0, 96, 0
2, 115456, Note_on_c, 0, 61, 0
2, 115527, Note_on_c, 0, 82, 62
2, 115529, Note_on_c, 0, 94, 59
2, 115529, Note_on_c, 0, 65, 56
2, 115532, Note_on_c, 0, 60, 37
2, 115533, Note_on_c, 0, 61, 39
2, 115553, Note_on_c, 0, 65, 0
2, 115562, Note_on_c, 0, 60, 0
2, 115570, Note_on_c, 0, 82, 0
2, 115573, Note_on_c, 0, 61, 0
2, 115580, Note_on_c, 0, 94, 0
2, 115680, Control_c, 0, 64, 127
2, 115762, Note_on_c, 0, 60, 73
2, 115767, Note_on_c, 0, 61, 52
2, 115771, Note_on_c, 0, 65, 62
2, 115774, Note_on_c, 0, 96, 79
2, 115780, Note_on_c, 0, 84, 68
2, 115793, Note_on_c, 0, 65, 0
2, 115794, Note_on_c, 0, 61, 0
2, 115803, Note_on_c, 0, 84, 0
2, 115810, Note_on_c, 0, 60, 0
2, 115814, Note_on_c, 0, 96, 0
2, 115858, Control_c, 0, 64, 0
2, 115898, Note_on_c, 0, 60, 59
2, 115900, Note_on_c, 0, 61, 57
2, 115902, Note_on_c, 0, 94, 69
2, 115902, Note_on_c, 0, 65, 67
2, 115910, Note_on_c, 0, 82, 50
2, 115917, Note_on_c, 0, 55, 50
2, 115980, Control_c, 0, 64, 127
2, 116133, Note_on_c, 0, 55, 0
2, 116140, Note_on_c, 0, 94, 0
2, 116141, Note_on_c, 0, 65, 0
2, 116174, Note_on_c, 0, 60, 0
2, 116175, Note_on_c, 0, 61, 0
2, 116180, Note_on_c, 0, 82, 0
2, 116234, Control_c, 0, 64, 0
2, 116270, Note_on_c, 0, 65, 64
2, 116270, Note_on_c, 0, 60, 44
2, 116274, Note_on_c, 0, 61, 55
2, 116280, Note_on_c, 0, 91, 43
2, 116282, Note_on_c, 0, 55, 58
2, 116291, Note_on_c, 0, 79, 50
2, 116330, Control_c, 0, 64, 127
2, 116444, Note_on_c, 0, 91, 0
2, 116472, Note_on_c, 0, 55, 0
2, 116472, Note_on_c, 0, 79, 0
2, 116492, Note_on_c, 0, 60, 0
2, 116495, Note_on_c, 0, 65, 0
2, 116548, Note_on_c, 0, 61, 0
2, 116628, Control_c, 0, 64, 0
2, 116653, Note_on_c, 0, 93, 83
2, 116654, Note_on_c, 0, 81, 76
2, 116656, Note_on_c, 0, 64, 67
2, 116659, Note_on_c, 0, 60, 67
2, 116664, Note_on_c, 0, 54, 59
2, 116680, Note_on_c, 0, 60, 0
2, 116681, Note_on_c, 0, 64, 0
2, 116723, Control_c, 0, 64, 127
2, 116733, Note_on_c, 0, 54, 0
2, 116851, Note_on_c, 0, 93, 0
2, 116891, Note_on_c, 0, 81, 0
2, 116914, Note_on_c, 0, 50, 103
2, 116924, Note_on_c, 0, 49, 77
2, 117009, Control_c, 0, 64, 0
2, 117022, Note_on_c, 0, 49, 0
2, 117188, Note_on_c, 0, 67, 64
2, 117228, Note_on_c, 0, 67, 0
2, 117296, Note_on_c, 0, 70, 76
2, 117345, Note_on_c, 0, 70, 0
2, 117425, Note_on_c, 0, 72, 91
2, 117517, Note_on_c, 0, 72, 0
2, 117553, Note_on_c, 0, 70, 56
2, 117578, Note_on_c, 0, 70, 0
2, 117675, Note_on_c, 0, 72, 94
2, 117681, Note_on_c, 0, 71, 76
2, 117701, Note_on_c, 0, 71, 0
2, 117779, Note_on_c, 0, 72, 0
2, 117801, Note_on_c, 0, 70, 59
2, 117832, Note_on_c, 0, 50, 0
2, 117852, Note_on_c, 0, 70, 0
2, 117916, Note_on_c, 0, 72, 95
2, 117928, Note_on_c, 0, 50, 79
2, 117937, Note_on_c, 0, 49, 56
2, 117980, Note_on_c, 0, 49, 0
2, 118013, Note_on_c, 0, 72, 0
2, 118061, Note_on_c, 0, 70, 51
2, 118089, Control_c, 0, 64, 127
2, 118096, Note_on_c, 0, 70, 0
2, 118171, Control_c, 0, 64, 0
2, 118191, Note_on_c, 0, 43, 51
2, 118202, Note_on_c, 0, 50, 0
2, 118203, Note_on_c, 0, 70, 84
2, 118266, Note_on_c, 0, 70, 0
2, 118266, Note_on_c, 0, 72, 71
2, 118342, Note_on_c, 0, 70, 62
2, 118374, Note_on_c, 0, 72, 0
2, 118422, Note_on_c, 0, 43, 0
2, 118427, Note_on_c, 0, 70, 0
2, 118447, Note_on_c, 0, 67, 63
2, 118464, Control_c, 0, 64, 127
2, 118493, Note_on_c, 0, 67, 0
2, 118494, Note_on_c, 0, 50, 37
2, 118541, Note_on_c, 0, 62, 62
2, 118559, Note_on_c, 0, 67, 30
2, 118565, Control_c, 0, 64, 0
2, 118580, Note_on_c, 0, 50, 0
2, 118622, Note_on_c, 0, 67, 0
2, 118634, Note_on_c, 0, 62, 0
2, 118689, Note_on_c, 0, 67, 57
2, 118701, Note_on_c, 0, 58, 71
2, 118833, Note_on_c, 0, 67, 0
2, 118850, Note_on_c, 0, 58, 0
2, 118934, Control_c, 0, 64, 127
2, 118978, Control_c, 0, 64, 0
2, 119037, Note_on_c, 0, 67, 78
2, 119038, Note_on_c, 0, 60, 89
2, 119175, Note_on_c, 0, 67, 0
2, 119204, Note_on_c, 0, 60, 0
2, 119384, Note_on_c, 0, 58, 74
2, 119400, Note_on_c, 0, 67, 52
2, 119545, Note_on_c, 0, 67, 0
2, 119583, Note_on_c, 0, 58, 0
2, 119626, Control_c, 0, 64, 127
2, 119710, Control_c, 0, 64, 0
2, 119770, Note_on_c, 0, 64, 62
2, 119775, Note_on_c, 0, 60, 63
2, 119854, Note_on_c, 0, 60, 0
2, 119863, Note_on_c, 0, 64, 0
2, 119881, Control_c, 0, 64, 127
2, 120024, Note_on_c, 0, 58, 67
2, 120025, Note_on_c, 0, 64, 75
2, 120029, Note_on_c, 0, 67, 64
2, 120090, Control_c, 0, 64, 0
2, 120143, Note_on_c, 0, 64, 0
2, 120161, Note_on_c, 0, 48, 58
2, 120165, Note_on_c, 0, 60, 59
2, 120201, Note_on_c, 0, 58, 0
2, 120217, Control_c, 0, 64, 127
2, 120236, Note_on_c, 0, 67, 0
2, 120238, Note_on_c, 0, 48, 0
2, 120276, Note_on_c, 0, 60, 0
2, 120381, Note_on_c, 0, 50, 75
2, 120382, Note_on_c, 0, 71, 73
2, 120382, Note_on_c, 0, 64, 79
2, 120384, Note_on_c, 0, 59, 74
2, 120390, Control_c, 0, 64, 0
2, 120390, Note_on_c, 0, 60, 80
2, 120392, Note_on_c, 0, 67, 69
2, 120547, Control_c, 0, 64, 127
2, 120670, Note_on_c, 0, 59, 0
2, 120679, Note_on_c, 0, 60, 0
2, 120689, Note_on_c, 0, 64, 0
2, 120713, Note_on_c, 0, 67, 0
2, 120716, Note_on_c, 0, 71, 0
2, 120751, Note_on_c, 0, 69, 62
2, 120755, Note_on_c, 0, 64, 59
2, 120756, Note_on_c, 0, 60, 65
2, 120763, Control_c, 0, 64, 0
2, 120764, Note_on_c, 0, 57, 62
2, 120882, Note_on_c, 0, 60, 0
2, 120898, Note_on_c, 0, 64, 0
2, 120919, Note_on_c, 0, 69, 0
2, 121040, Note_on_c, 0, 57, 0
2, 121141, Note_on_c, 0, 58, 69
2, 121143, Note_on_c, 0, 70, 86
2, 121145, Note_on_c, 0, 74, 85
2, 121147, Note_on_c, 0, 62, 90
2, 121166, Note_on_c, 0, 72, 47
2, 121167, Note_on_c, 0, 67, 41
2, 121187, Note_on_c, 0, 67, 0
2, 121211, Note_on_c, 0, 62, 0
2, 121220, Note_on_c, 0, 71, 64
2, 121237, Note_on_c, 0, 70, 0
2, 121243, Note_on_c, 0, 71, 0
2, 121270, Note_on_c, 0, 72, 0
2, 121272, Note_on_c, 0, 74, 0
2, 121333, Note_on_c, 0, 58, 0
2, 121352, Note_on_c, 0, 66, 69
2, 121354, Note_on_c, 0, 70, 69
2, 121359, Note_on_c, 0, 74, 60
2, 121364, Note_on_c, 0, 62, 58
2, 121368, Note_on_c, 0, 59, 58
2, 121390, Note_on_c, 0, 72, 24
2, 121432, Note_on_c, 0, 66, 0
2, 121443, Control_c, 0, 64, 127
2, 121531, Note_on_c, 0, 74, 0
2, 121532, Note_on_c, 0, 70, 0
2, 121533, Note_on_c, 0, 72, 0
2, 121542, Note_on_c, 0, 62, 0
2, 121562, Note_on_c, 0, 59, 0
2, 121608, Control_c, 0, 64, 0
2, 121632, Note_on_c, 0, 71, 67
2, 121645, Note_on_c, 0, 59, 50
2, 121650, Note_on_c, 0, 67, 34
2, 121657, Note_on_c, 0, 62, 34
2, 121660, Note_on_c, 0, 64, 30
2, 121661, Note_on_c, 0, 60, 35
2, 121722, Control_c, 0, 64, 127
2, 121740, Note_on_c, 0, 67, 0
2, 121752, Note_on_c, 0, 71, 0
2, 121765, Note_on_c, 0, 64, 0
2, 121771, Note_on_c, 0, 62, 0
2, 121774, Note_on_c, 0, 60, 0
2, 121780, Note_on_c, 0, 50, 0
2, 121802, Note_on_c, 0, 59, 0
2, 121907, Note_on_c, 0, 62, 54
2, 121908, Note_on_c, 0, 59, 60
2, 121911, Note_on_c, 0, 67, 49
2, 121916, Note_on_c, 0, 64, 53
2, 121917, Note_on_c, 0, 55, 64
2, 121964, Control_c, 0, 64, 0
2, 121997, Note_on_c, 0, 59, 0
2, 122001, Note_on_c, 0, 64, 0
2, 122008, Control_c, 0, 64, 127
2, 122021, Note_on_c, 0, 55, 0
2, 122021, Note_on_c, 0, 67, 0
2, 122022, Note_on_c, 0, 62, 0
2, 122034, Control_c, 0, 64, 0
2, 122111, Note_on_c, 0, 63, 62
2, 122112, Note_on_c, 0, 59, 37
2, 122112, Note_on_c, 0, 67, 47
2, 122125, Note_on_c, 0, 58, 37
2, 122212, Control_c, 0, 64, 127
2, 122272, Note_on_c, 0, 67, 0
2, 122273, Note_on_c, 0, 63, 0
2, 122276, Note_on_c, 0, 59, 0
2, 122277, Note_on_c, 0, 58, 0
2, 122377, Control_c, 0, 64, 0
2, 122433, Note_on_c, 0, 55, 53
2, 122454, Note_on_c, 0, 55, 0
2, 122696, Note_on_c, 0, 67, 60
2, 122701, Note_on_c, 0, 64, 54
2, 122704, Note_on_c, 0, 50, 85
2, 122704, Note_on_c, 0, 49, 68
2, 122705, Note_on_c, 0, 57, 74
2, 122706, Note_on_c, 0, 60, 78
2, 122717, Note_on_c, 0, 65, 54
2, 122738, Note_on_c, 0, 65, 0
2, 122751, Note_on_c, 0, 49, 0
2, 122860, Control_c, 0, 64, 127
2, 122898, Note_on_c, 0, 57, 0
2, 122937, Note_on_c, 0, 60, 0
2, 122980, Note_on_c, 0, 64, 0
2, 122994, Note_on_c, 0, 67, 0
2, 123070, Note_on_c, 0, 38, 68
2, 123092, Note_on_c, 0, 38, 0
2, 123101, Note_on_c, 0, 50, 0
2, 123462, Note_on_c, 0, 60, 83
2, 123466, Note_on_c, 0, 69, 77
2, 123467, Note_on_c, 0, 81, 81
2, 123468, Note_on_c, 0, 65, 78
2, 123473, Note_on_c, 0, 61, 43
2, 123474, Note_on_c, 0, 58, 40
2, 123487, Note_on_c, 0, 69, 0
2, 123490, Note_on_c, 0, 65, 0
2, 123497, Note_on_c, 0, 61, 0
2, 123501, Note_on_c, 0, 58, 0
2, 123511, Note_on_c, 0, 60, 0
2, 123517, Note_on_c, 0, 81, 0
2, 123552, Control_c, 0, 64, 0
2, 123600, Note_on_c, 0, 61, 64
2, 123605, Note_on_c, 0, 84, 77
2, 123606, Note_on_c, 0, 65, 64
2, 123610, Note_on_c, 0, 55, 57
2, 123613, Note_on_c, 0, 72, 47
2, 123628, Note_on_c, 0, 65, 0
2, 123632, Note_on_c, 0, 55, 0
2, 123634, Note_on_c, 0, 72, 0
2, 123636, Note_on_c, 0, 61, 0
2, 123645, Note_on_c, 0, 84, 0
2, 123749, Control_c, 0, 64, 127
2, 123833, Note_on_c, 0, 89, 83
2, 123834, Note_on_c, 0, 77, 77
2, 123842, Note_on_c, 0, 60, 74
2, 123843, Note_on_c, 0, 58, 59
2, 123846, Note_on_c, 0, 65, 79
2, 123857, Note_on_c, 0, 54, 52
2, 123870, Note_on_c, 0, 77, 0
2, 123880, Note_on_c, 0, 89, 0
2, 123882, Note_on_c, 0, 54, 0
2, 123891, Note_on_c, 0, 65, 0
2, 123895, Control_c, 0, 64, 0
2, 123899, Note_on_c, 0, 60, 0
2, 123910, Note_on_c, 0, 58, 0
2, 123960, Note_on_c, 0, 65, 75
2, 123961, Note_on_c, 0, 60, 66
2, 123962, Note_on_c, 0, 58, 67
2, 123962, Note_on_c, 0, 54, 78
2, 123967, Note_on_c, 0, 94, 81
2, 123969, Note_on_c, 0, 82, 83
2, 123984, Control_c, 0, 64, 127
2, 124048, Note_on_c, 0, 82, 0
2, 124056, Note_on_c, 0, 94, 0
2, 124070, Note_on_c, 0, 54, 0
2, 124073, Note_on_c, 0, 65, 0
2, 124088, Note_on_c, 0, 60, 0
2, 124102, Note_on_c, 0, 58, 0
2, 124207, Note_on_c, 0, 54, 77
2, 124209, Note_on_c, 0, 60, 65
2, 124213, Note_on_c, 0, 65, 48
2, 124214, Note_on_c, 0, 58, 44
2, 124216, Note_on_c, 0, 96, 88
2, 124221, Note_on_c, 0, 84, 87
2, 124231, Note_on_c, 0, 60, 0
2, 124235, Note_on_c, 0, 65, 0
2, 124263, Note_on_c, 0, 84, 0
2, 124268, Note_on_c, 0, 96, 0
2, 124285, Note_on_c, 0, 54, 0
2, 124287, Note_on_c, 0, 58, 0
2, 124340, Control_c, 0, 64, 0
2, 124350, Note_on_c, 0, 62, 65
2, 124358, Note_on_c, 0, 54, 57
2, 124359, Note_on_c, 0, 94, 71
2, 124360, Note_on_c, 0, 59, 60
2, 124364, Note_on_c, 0, 82, 56
2, 124430, Note_on_c, 0, 92, 20
2, 124447, Note_on_c, 0, 95, 69
2, 124453, Note_on_c, 0, 92, 0
2, 124462, Note_on_c, 0, 94, 0
2, 124469, Note_on_c, 0, 82, 0
2, 124473, Note_on_c, 0, 83, 58
2, 124492, Control_c, 0, 64, 127
2, 124503, Note_on_c, 0, 92, 14
2, 124507, Note_on_c, 0, 95, 0
2, 124529, Note_on_c, 0, 83, 0
2, 124564, Note_on_c, 0, 59, 0
2, 124567, Note_on_c, 0, 92, 0
2, 124568, Note_on_c, 0, 62, 0
2, 124568, Note_on_c, 0, 54, 0
2, 124612, Control_c, 0, 64, 0
2, 124701, Note_on_c, 0, 90, 63
2, 124704, Note_on_c, 0, 78, 59
2, 124705, Note_on_c, 0, 62, 57
2, 124709, Note_on_c, 0, 59, 57
2, 124716, Note_on_c, 0, 80, 47
2, 124716, Note_on_c, 0, 54, 59
2, 124718, Note_on_c, 0, 91, 55
2, 124765, Control_c, 0, 64, 127
2, 124780, Note_on_c, 0, 91, 0
2, 124781, Note_on_c, 0, 80, 0
2, 124840, Note_on_c, 0, 90, 0
2, 124861, Note_on_c, 0, 78, 0
2, 124897, Note_on_c, 0, 62, 0
2, 124900, Note_on_c, 0, 59, 0
2, 124903, Note_on_c, 0, 54, 0
2, 124997, Note_on_c, 0, 86, 73
2, 125000, Note_on_c, 0, 74, 71
2, 125005, Note_on_c, 0, 59, 63
2, 125009, Note_on_c, 0, 62, 66
2, 125010, Note_on_c, 0, 54, 71
2, 125013, Control_c, 0, 64, 0
2, 125085, Note_on_c, 0, 86, 0
2, 125098, Note_on_c, 0, 74, 0
2, 125101, Note_on_c, 0, 62, 0
2, 125107, Note_on_c, 0, 54, 0
2, 125113, Note_on_c, 0, 59, 0
2, 125211, Note_on_c, 0, 82, 77
2, 125216, Note_on_c, 0, 70, 78
2, 125223, Note_on_c, 0, 62, 69
2, 125225, Note_on_c, 0, 59, 64
2, 125227, Note_on_c, 0, 54, 74
2, 125242, Control_c, 0, 64, 127
2, 125258, Note_on_c, 0, 83, 43
2, 125279, Note_on_c, 0, 70, 0
2, 125287, Note_on_c, 0, 71, 54
2, 125322, Note_on_c, 0, 82, 0
2, 125328, Note_on_c, 0, 83, 0
2, 125349, Note_on_c, 0, 71, 0
2, 125374, Note_on_c, 0, 54, 0
2, 125376, Note_on_c, 0, 62, 0
2, 125387, Note_on_c, 0, 59, 0
2, 125413, Control_c, 0, 64, 0
2, 125464, Note_on_c, 0, 78, 57
2, 125465, Note_on_c, 0, 59, 60
2, 125465, Note_on_c, 0, 62, 58
2, 125468, Note_on_c, 0, 66, 73
2, 125471, Note_on_c, 0, 54, 70
2, 125502, Control_c, 0, 64, 127
2, 125579, Note_on_c, 0, 78, 0
2, 125599, Note_on_c, 0, 62, 0
2, 125607, Note_on_c, 0, 66, 0
2, 125637, Note_on_c, 0, 59, 0
2, 125642, Note_on_c, 0, 54, 0
2, 125719, Note_on_c, 0, 76, 64
2, 125734, Note_on_c, 0, 64, 66
2, 125735, Note_on_c, 0, 62, 62
2, 125740, Note_on_c, 0, 59, 59
2, 125741, Note_on_c, 0, 54, 62
2, 125749, Control_c, 0, 64, 0
2, 125845, Control_c, 0, 64, 127
2, 125885, Note_on_c, 0, 62, 0
2, 125897, Note_on_c, 0, 59, 0
2, 125942, Note_on_c, 0, 54, 0
2, 126137, Note_on_c, 0, 50, 94
2, 126148, Note_on_c, 0, 49, 65
2, 126207, Control_c, 0, 64, 0
2, 126229, Note_on_c, 0, 49, 0
2, 126302, Note_on_c, 0, 76, 0
2, 126315, Control_c, 0, 64, 127
2, 126560, Note_on_c, 0, 64, 0
2, 126613, Control_c, 0, 64, 0
2, 126692, Note_on_c, 0, 74, 74
2, 126696, Note_on_c, 0, 62, 70
2, 126736, Note_on_c, 0, 62, 0
2, 126744, Note_on_c, 0, 74, 0
2, 126953, Note_on_c, 0, 71, 78
2, 127015, Note_on_c, 0, 50, 0
2, 127067, Note_on_c, 0, 71, 0
2, 127099, Note_on_c, 0, 67, 52
2, 127178, Control_c, 0, 64, 127
2, 127284, Note_on_c, 0, 67, 0
2, 127310, Note_on_c, 0, 62, 57
2, 127330, Note_on_c, 0, 55, 44
2, 127364, Note_on_c, 0, 62, 0
2, 127427, Control_c, 0, 64, 0
2, 127441, Note_on_c, 0, 55, 0
2, 127453, Note_on_c, 0, 58, 27
2, 127456, Note_on_c, 0, 66, 36
2, 127465, Note_on_c, 0, 48, 36
2, 127493, Note_on_c, 0, 66, 0
2, 127499, Note_on_c, 0, 58, 0
2, 127534, Note_on_c, 0, 69, 61
2, 127584, Note_on_c, 0, 66, 51
2, 127601, Note_on_c, 0, 69, 0
2, 127636, Note_on_c, 0, 66, 0
2, 127652, Note_on_c, 0, 62, 54
2, 127701, Note_on_c, 0, 62, 0
2, 127731, Note_on_c, 0, 57, 44
2, 127765, Note_on_c, 0, 57, 0
2, 127803, Note_on_c, 0, 62, 43
2, 127846, Note_on_c, 0, 62, 0
2, 127860, Note_on_c, 0, 66, 58
2, 127882, Note_on_c, 0, 66, 0
2, 127930, Note_on_c, 0, 69, 76
2, 127974, Note_on_c, 0, 69, 0
2, 128007, Note_on_c, 0, 74, 35
2, 128063, Note_on_c, 0, 74, 0
2, 128063, Note_on_c, 0, 78, 42
2, 128107, Note_on_c, 0, 48, 0
2, 128120, Note_on_c, 0, 78, 0
2, 128138, Note_on_c, 0, 81, 87
2, 128223, Note_on_c, 0, 78, 49
2, 128226, Note_on_c, 0, 81, 0
2, 128257, Note_on_c, 0, 78, 0
2, 128479, Note_on_c, 0, 58, 54
2, 128483, Note_on_c, 0, 48, 54
2, 128512, Note_on_c, 0, 58, 0
2, 128522, Note_on_c, 0, 48, 0
2, 128850, Note_on_c, 0, 47, 70
2, 128851, Note_on_c, 0, 57, 64
2, 128883, Note_on_c, 0, 47, 0
2, 128888, Note_on_c, 0, 57, 0
2, 129102, Note_on_c, 0, 60, 72
2, 129157, Note_on_c, 0, 60, 0
2, 129216, Note_on_c, 0, 63, 59
2, 129268, Note_on_c, 0, 63, 0
2, 129301, Control_c, 0, 64, 127
2, 129320, Control_c, 0, 64, 0
2, 129347, Note_on_c, 0, 65, 60
2, 129371, Note_on_c, 0, 65, 0
2, 129464, Note_on_c, 0, 67, 53
2, 129489, Note_on_c, 0, 67, 0
2, 129596, Note_on_c, 0, 69, 82
2, 129611, Control_c, 0, 64, 127
2, 129644, Note_on_c, 0, 69, 0
2, 129681, Control_c, 0, 64, 0
2, 129732, Note_on_c, 0, 71, 88
2, 129737, Note_on_c, 0, 67, 83
2, 129739, Note_on_c, 0, 68, 77
2, 129803, Note_on_c, 0, 68, 0
2, 129812, Note_on_c, 0, 67, 0
2, 129836, Note_on_c, 0, 71, 0
2, 129871, Note_on_c, 0, 69, 63
2, 129898, Note_on_c, 0, 69, 0
2, 129985, Note_on_c, 0, 68, 81
2, 129989, Note_on_c, 0, 71, 80
2, 129992, Note_on_c, 0, 67, 80
2, 130065, Note_on_c, 0, 67, 0
2, 130074, Note_on_c, 0, 68, 0
2, 130098, Note_on_c, 0, 71, 0
2, 130130, Note_on_c, 0, 69, 33
2, 130155, Note_on_c, 0, 69, 0
2, 130236, Note_on_c, 0, 68, 73
2, 130241, Note_on_c, 0, 71, 77
2, 130245, Note_on_c, 0, 67, 73
2, 130282, Note_on_c, 0, 68, 0
2, 130289, Note_on_c, 0, 67, 0
2, 130331, Note_on_c, 0, 71, 0
2, 130349, Control_c, 0, 64, 127
2, 130373, Note_on_c, 0, 69, 65
2, 130429, Note_on_c, 0, 69, 0
2, 130482, Control_c, 0, 64, 0
2, 130490, Note_on_c, 0, 62, 59
2, 130491, Note_on_c, 0, 69, 66
2, 130493, Note_on_c, 0, 66, 78
2, 130501, Note_on_c, 0, 52, 48
2, 130544, Note_on_c, 0, 62, 0
2, 130581, Note_on_c, 0, 66, 0
2, 130585, Note_on_c, 0, 52, 0
2, 130597, Note_on_c, 0, 69, 0
2, 130634, Note_on_c, 0, 64, 22
2, 130663, Note_on_c, 0, 64, 0
2, 130733, Note_on_c, 0, 69, 75
2, 130738, Note_on_c, 0, 66, 78
2, 130741, Note_on_c, 0, 62, 64
2, 130748, Note_on_c, 0, 52, 64
2, 130822, Note_on_c, 0, 62, 0
2, 130848, Note_on_c, 0, 69, 0
2, 130853, Note_on_c, 0, 66, 0
2, 130875, Note_on_c, 0, 64, 52
2, 130881, Note_on_c, 0, 67, 56
2, 130898, Note_on_c, 0, 59, 39
2, 130928, Note_on_c, 0, 59, 0
2, 130958, Control_c, 0, 64, 127
2, 131060, Note_on_c, 0, 64, 0
2, 131119, Note_on_c, 0, 67, 0
2, 131142, Note_on_c, 0, 62, 57
2, 131145, Note_on_c, 0, 66, 48
2, 131155, Note_on_c, 0, 59, 48
2, 131197, Note_on_c, 0, 62, 0
2, 131228, Note_on_c, 0, 66, 0
2, 131240, Note_on_c, 0, 52, 0
2, 131244, Control_c, 0, 64, 0
2, 131245, Note_on_c, 0, 59, 0
2, 131269, Note_on_c, 0, 52, 15
2, 131278, Note_on_c, 0, 62, 43
2, 131285, Note_on_c, 0, 67, 53
2, 131291, Note_on_c, 0, 64, 57
2, 131336, Note_on_c, 0, 64, 0
2, 131336, Note_on_c, 0, 62, 0
2, 131365, Note_on_c, 0, 67, 0
2, 131379, Note_on_c, 0, 52, 0
2, 131524, Note_on_c, 0, 69, 82
2, 131531, Note_on_c, 0, 62, 65
2, 131531, Note_on_c, 0, 66, 71
2, 131533, Note_on_c, 0, 52, 66
2, 131552, Note_on_c, 0, 68, 31
2, 131573, Note_on_c, 0, 68, 0
2, 131590, Note_on_c, 0, 62, 0
2, 131620, Note_on_c, 0, 69, 0
2, 131621, Note_on_c, 0, 66, 0
2, 131664, Note_on_c, 0, 67, 57
2, 131676, Note_on_c, 0, 64, 57
2, 131680, Note_on_c, 0, 59, 38
2, 131760, Note_on_c, 0, 52, 0
2, 131835, Note_on_c, 0, 59, 0
2, 131842, Control_c, 0, 64, 127
2, 131862, Note_on_c, 0, 64, 0
2, 131873, Note_on_c, 0, 67, 0
2, 131919, Note_on_c, 0, 52, 47
2, 131924, Note_on_c, 0, 62, 34
2, 131945, Note_on_c, 0, 59, 18
2, 131951, Note_on_c, 0, 52, 0
2, 131953, Note_on_c, 0, 62, 0
2, 131985, Note_on_c, 0, 59, 0
2, 131994, Control_c, 0, 64, 0
2, 132042, Note_on_c, 0, 67, 66
2, 132044, Note_on_c, 0, 52, 62
2, 132046, Note_on_c, 0, 62, 55
2, 132048, Note_on_c, 0, 64, 64
2, 132159, Control_c, 0, 64, 127
2, 132304, Note_on_c, 0, 62, 0
2, 132342, Note_on_c, 0, 52, 0
2, 132349, Note_on_c, 0, 64, 0
2, 132363, Control_c, 0, 64, 0
2, 132388, Note_on_c, 0, 67, 0
2, 132428, Note_on_c, 0, 66, 38
2, 132430, Note_on_c, 0, 62, 49
2, 132435, Note_on_c, 0, 59, 38
2, 132439, Control_c, 0, 64, 127
2, 132441, Note_on_c, 0, 52, 38
2, 132508, Note_on_c, 0, 59, 0
2, 132510, Note_on_c, 0, 62, 0
2, 132532, Note_on_c, 0, 52, 0
2, 132669, Note_on_c, 0, 66, 0
2, 132715, Note_on_c, 0, 64, 55
2, 132721, Note_on_c, 0, 52, 52
2, 132729, Note_on_c, 0, 59, 34
2, 132730, Control_c, 0, 64, 0
2, 132782, Note_on_c, 0, 64, 0
2, 132849, Note_on_c, 0, 59, 0
2, 132852, Control_c, 0, 64, 127
2, 132873, Note_on_c, 0, 52, 0
2, 133073, Note_on_c, 0, 59, 66
2, 133076, Note_on_c, 0, 52, 65
2, 133130, Note_on_c, 0, 52, 0
2, 133141, Note_on_c, 0, 59, 0
2, 133455, Note_on_c, 0, 65, 61
2, 133461, Note_on_c, 0, 61, 39
2, 133462, Note_on_c, 0, 60, 55
2, 133469, Note_on_c, 0, 55, 50
2, 133506, Control_c, 0, 64, 0
2, 133594, Control_c, 0, 64, 127
2, 133613, Note_on_c, 0, 65, 0
2, 133640, Note_on_c, 0, 61, 0
2, 133642, Note_on_c, 0, 60, 0
2, 133685, Note_on_c, 0, 55, 0
2, 133766, Note_on_c, 0, 60, 53
2, 133821, Note_on_c, 0, 60, 0
2, 133829, Note_on_c, 0, 61, 57
2, 133892, Note_on_c, 0, 63, 61
2, 133896, Note_on_c, 0, 61, 0
2, 133929, Note_on_c, 0, 63, 0
2, 133931, Control_c, 0, 64, 0
2, 133954, Note_on_c, 0, 64, 54
2, 133992, Note_on_c, 0, 64, 0
2, 134012, Note_on_c, 0, 66, 51
2, 134034, Note_on_c, 0, 66, 0
2, 134077, Note_on_c, 0, 67, 52
2, 134129, Note_on_c, 0, 67, 0
2, 134134, Note_on_c, 0, 69, 63
2, 134189, Note_on_c, 0, 69, 0
2, 134194, Note_on_c, 0, 70, 63
2, 134214, Note_on_c, 0, 70, 0
2, 134260, Note_on_c, 0, 72, 60
2, 134306, Note_on_c, 0, 72, 0
2, 134318, Note_on_c, 0, 73, 57
2, 134363, Note_on_c, 0, 73, 0
2, 134436, Note_on_c, 0, 75, 73
2, 134475, Note_on_c, 0, 75, 0
2, 134540, Note_on_c, 0, 76, 74
2, 134585, Note_on_c, 0, 76, 0
2, 134640, Note_on_c, 0, 78, 68
2, 134685, Note_on_c, 0, 78, 0
2, 134733, Note_on_c, 0, 79, 78
2, 134750, Note_on_c, 0, 66, 43
2, 134775, Note_on_c, 0, 66, 0
2, 134777, Note_on_c, 0, 79, 0
2, 134835, Note_on_c, 0, 81, 74
2, 134873, Note_on_c, 0, 81, 0
2, 134940, Note_on_c, 0, 82, 64
2, 134983, Note_on_c, 0, 82, 0
2, 135026, Note_on_c, 0, 83, 75
2, 135091, Note_on_c, 0, 83, 0
2, 135133, Note_on_c, 0, 61, 48
2, 135139, Note_on_c, 0, 65, 35
2, 135149, Note_on_c, 0, 84, 60
2, 135149, Note_on_c, 0, 72, 53
2, 135163, Note_on_c, 0, 65, 0
2, 135170, Note_on_c, 0, 84, 0
2, 135171, Note_on_c, 0, 72, 0
2, 135176, Note_on_c, 0, 61, 0
2, 135316, Control_c, 0, 64, 127
2, 135370, Note_on_c, 0, 73, 80
2, 135371, Note_on_c, 0, 85, 80
2, 135372, Note_on_c, 0, 58, 57
2, 135375, Note_on_c, 0, 61, 55
2, 135376, Note_on_c, 0, 64, 67
2, 135378, Note_on_c, 0, 55, 58
2, 135417, Note_on_c, 0, 73, 0
2, 135419, Note_on_c, 0, 55, 0
2, 135423, Note_on_c, 0, 64, 0
2, 135427, Note_on_c, 0, 85, 0
2, 135447, Note_on_c, 0, 61, 0
2, 135458, Note_on_c, 0, 58, 0
2, 135475, Control_c, 0, 64, 0
2, 135501, Note_on_c, 0, 75, 70
2, 135503, Note_on_c, 0, 87, 77
2, 135510, Note_on_c, 0, 58, 51
2, 135512, Note_on_c, 0, 61, 38
2, 135513, Note_on_c, 0, 55, 45
2, 135516, Note_on_c, 0, 64, 53
2, 135582, Control_c, 0, 64, 127
2, 135585, Note_on_c, 0, 64, 0
2, 135589, Note_on_c, 0, 55, 0
2, 135617, Note_on_c, 0, 75, 0
2, 135619, Note_on_c, 0, 61, 0
2, 135622, Note_on_c, 0, 58, 0
2, 135642, Note_on_c, 0, 87, 0
2, 135748, Note_on_c, 0, 58, 65
2, 135750, Note_on_c, 0, 61, 67
2, 135752, Note_on_c, 0, 64, 71
2, 135755, Note_on_c, 0, 88, 75
2, 135756, Note_on_c, 0, 55, 63
2, 135757, Note_on_c, 0, 76, 73
2, 135778, Note_on_c, 0, 55, 0
2, 135799, Note_on_c, 0, 64, 0
2, 135800, Note_on_c, 0, 76, 0
2, 135813, Note_on_c, 0, 58, 0
2, 135817, Note_on_c, 0, 61, 0
2, 135822, Note_on_c, 0, 88, 0
2, 135831, Control_c, 0, 64, 0
2, 135880, Note_on_c, 0, 78, 55
2, 135885, Note_on_c, 0, 61, 56
2, 135887, Note_on_c, 0, 58, 61
2, 135887, Note_on_c, 0, 90, 72
2, 135888, Note_on_c, 0, 64, 70
2, 135893, Note_on_c, 0, 55, 59
2, 135908, Note_on_c, 0, 64, 0
2, 135914, Note_on_c, 0, 55, 0
2, 135921, Note_on_c, 0, 78, 0
2, 135923, Note_on_c, 0, 61, 0
2, 135935, Note_on_c, 0, 58, 0
2, 135935, Note_on_c, 0, 90, 0
2, 135965, Control_c, 0, 64, 127
2, 136007, Note_on_c, 0, 61, 82
2, 136010, Note_on_c, 0, 58, 77
2, 136010, Note_on_c, 0, 64, 81
2, 136012, Note_on_c, 0, 55, 80
2, 136013, Note_on_c, 0, 91, 82
2, 136015, Note_on_c, 0, 79, 91
2, 136026, Note_on_c, 0, 90, 58
2, 136048, Note_on_c, 0, 90, 0
2, 136169, Note_on_c, 0, 55, 0
2, 136178, Note_on_c, 0, 79, 0
2, 136185, Note_on_c, 0, 64, 0
2, 136197, Note_on_c, 0, 91, 0
2, 136201, Note_on_c, 0, 61, 0
2, 136204, Note_on_c, 0, 58, 0
2, 136233, Control_c, 0, 64, 0
2, 136258, Control_c, 0, 64, 127
2, 136262, Note_on_c, 0, 58, 59
2, 136265, Note_on_c, 0, 93, 75
2, 136269, Note_on_c, 0, 61, 47
2, 136276, Note_on_c, 0, 81, 56
2, 136290, Note_on_c, 0, 64, 28
2, 136297, Note_on_c, 0, 81, 0
2, 136301, Note_on_c, 0, 61, 0
2, 136305, Note_on_c, 0, 93, 0
2, 136314, Note_on_c, 0, 64, 0
2, 136316, Note_on_c, 0, 58, 0
2, 136321, Control_c, 0, 64, 0
2, 136366, Control_c, 0, 64, 127
2, 136382, Note_on_c, 0, 82, 83
2, 136383, Note_on_c, 0, 58, 68
2, 136385, Note_on_c, 0, 94, 87
2, 136385, Note_on_c, 0, 61, 79
2, 136390, Note_on_c, 0, 55, 80
2, 136391, Note_on_c, 0, 64, 71
2, 136509, Note_on_c, 0, 92, 12
2, 136575, Note_on_c, 0, 82, 0
2, 136578, Note_on_c, 0, 55, 0
2, 136581, Note_on_c, 0, 64, 0
2, 136584, Note_on_c, 0, 94, 0
2, 136600, Note_on_c, 0, 58, 0
2, 136614, Note_on_c, 0, 92, 0
2, 136615, Note_on_c, 0, 61, 0
2, 136651, Control_c, 0, 64, 0
2, 136653, Note_on_c, 0, 62, 68
2, 136654, Note_on_c, 0, 59, 71
2, 136655, Note_on_c, 0, 55, 65
2, 136658, Note_on_c, 0, 95, 85
2, 136663, Note_on_c, 0, 83, 77
2, 136753, Control_c, 0, 64, 127
2, 136775, Note_on_c, 0, 95, 0
2, 136824, Note_on_c, 0, 83, 0
2, 136894, Note_on_c, 0, 55, 0
2, 136897, Note_on_c, 0, 59, 0
2, 136911, Note_on_c, 0, 62, 0
2, 137032, Control_c, 0, 64, 0
2, 137038, Note_on_c, 0, 91, 74
2, 137041, Note_on_c, 0, 62, 74
2, 137044, Note_on_c, 0, 59, 68
2, 137045, Note_on_c, 0, 86, 73
2, 137046, Note_on_c, 0, 79, 69
2, 137046, Note_on_c, 0, 55, 77
2, 137072, Note_on_c, 0, 89, 27
2, 137116, Note_on_c, 0, 91, 0
2, 137120, Note_on_c, 0, 62, 0
2, 137120, Note_on_c, 0, 89, 0
2, 137126, Note_on_c, 0, 86, 0
2, 137139, Note_on_c, 0, 59, 0
2, 137149, Note_on_c, 0, 79, 0
2, 137149, Control_c, 0, 64, 127
2, 137162, Note_on_c, 0, 55, 0
2, 137402, Control_c, 0, 64, 0
2, 137419, Note_on_c, 0, 69, 91
2, 137419, Note_on_c, 0, 62, 95
2, 137421, Note_on_c, 0, 47, 68
2, 137428, Note_on_c, 0, 57, 75
2, 137510, Control_c, 0, 64, 127
2, 137613, Note_on_c, 0, 57, 0
2, 137630, Note_on_c, 0, 69, 0
2, 137649, Note_on_c, 0, 62, 0
2, 137676, Note_on_c, 0, 66, 74
2, 137676, Note_on_c, 0, 54, 69
2, 137693, Note_on_c, 0, 57, 50
2, 137702, Note_on_c, 0, 62, 33
2, 137727, Note_on_c, 0, 62, 0
2, 137739, Control_c, 0, 64, 0
2, 137742, Note_on_c, 0, 47, 0
2, 137757, Note_on_c, 0, 57, 0
2, 137760, Note_on_c, 0, 54, 0
2, 137809, Note_on_c, 0, 51, 47
2, 137823, Note_on_c, 0, 62, 31
2, 137832, Note_on_c, 0, 66, 0
2, 137841, Control_c, 0, 64, 127
2, 137922, Note_on_c, 0, 62, 0
2, 138012, Note_on_c, 0, 51, 0
2, 138051, Note_on_c, 0, 69, 88
2, 138055, Note_on_c, 0, 66, 76
2, 138056, Note_on_c, 0, 62, 89
2, 138057, Note_on_c, 0, 59, 84
2, 138059, Note_on_c, 0, 54, 88
2, 138081, Control_c, 0, 64, 0
2, 138216, Control_c, 0, 64, 127
2, 138463, Note_on_c, 0, 59, 0
2, 138483, Note_on_c, 0, 66, 0
2, 138501, Note_on_c, 0, 69, 0
2, 138503, Note_on_c, 0, 62, 0
2, 138546, Control_c, 0, 64, 0
2, 138557, Note_on_c, 0, 52, 58
2, 138559, Note_on_c, 0, 54, 0
2, 138560, Note_on_c, 0, 67, 49
2, 138565, Note_on_c, 0, 59, 49
2, 138566, Note_on_c, 0, 62, 51
2, 138691, Note_on_c, 0, 67, 0
2, 138767, Note_on_c, 0, 62, 0
2, 138773, Note_on_c, 0, 59, 0
2, 138896, Note_on_c, 0, 52, 0
2, 138946, Note_on_c, 0, 66, 56
2, 138947, Note_on_c, 0, 51, 42
2, 138958, Note_on_c, 0, 62, 36
2, 138961, Note_on_c, 0, 59, 44
2, 138997, Control_c, 0, 64, 127
2, 139058, Note_on_c, 0, 62, 0
2, 139067, Note_on_c, 0, 59, 0
2, 139120, Note_on_c, 0, 66, 0
2, 139199, Note_on_c, 0, 67, 62
2, 139203, Note_on_c, 0, 59, 56
2, 139203, Note_on_c, 0, 62, 59
2, 139204, Note_on_c, 0, 52, 62
2, 139228, Note_on_c, 0, 59, 0
2, 139241, Note_on_c, 0, 51, 0
2, 139251, Note_on_c, 0, 62, 0
2, 139255, Note_on_c, 0, 52, 0
2, 139295, Note_on_c, 0, 67, 0
2, 139683, Control_c, 0, 64, 0
2, 139695, Note_on_c, 0, 76, 87
2, 139696, Note_on_c, 0, 84, 87
2, 139699, Note_on_c, 0, 73, 85
2, 139702, Note_on_c, 0, 72, 89
2, 139707, Note_on_c, 0, 79, 67
2, 139716, Note_on_c, 0, 82, 46
2, 139829, Note_on_c, 0, 73, 0
2, 139843, Note_on_c, 0, 76, 0
2, 139844, Note_on_c, 0, 72, 0
2, 139844, Note_on_c, 0, 79, 0
2, 139849, Note_on_c, 0, 84, 0
2, 139857, Note_on_c, 0, 82, 0
2, 139893, Note_on_c, 0, 76, 68
2, 139895, Note_on_c, 0, 84, 84
2, 139895, Note_on_c, 0, 73, 75
2, 139900, Note_on_c, 0, 72, 72
2, 139905, Note_on_c, 0, 79, 52
2, 139910, Note_on_c, 0, 82, 51
2, 139934, Note_on_c, 0, 82, 0
2, 139965, Note_on_c, 0, 79, 0
2, 139966, Note_on_c, 0, 84, 0
2, 139975, Control_c, 0, 64, 127
2, 139976, Note_on_c, 0, 76, 0
2, 139983, Note_on_c, 0, 72, 0
2, 139995, Note_on_c, 0, 71, 47
2, 140029, Note_on_c, 0, 73, 0
2, 140045, Note_on_c, 0, 70, 67
2, 140056, Note_on_c, 0, 71, 0
2, 140096, Control_c, 0, 64, 0
2, 140098, Note_on_c, 0, 70, 0
2, 140108, Note_on_c, 0, 73, 69
2, 140113, Note_on_c, 0, 81, 71
2, 140123, Note_on_c, 0, 76, 44
2, 140129, Note_on_c, 0, 70, 33
2, 140129, Note_on_c, 0, 69, 67
2, 140153, Note_on_c, 0, 76, 0
2, 140166, Note_on_c, 0, 70, 0
2, 140167, Note_on_c, 0, 69, 0
2, 140172, Note_on_c, 0, 73, 0
2, 140176, Note_on_c, 0, 81, 0
2, 140290, Note_on_c, 0, 81, 74
2, 140294, Note_on_c, 0, 73, 67
2, 140295, Note_on_c, 0, 70, 64
2, 140298, Note_on_c, 0, 69, 80
2, 140303, Note_on_c, 0, 76, 54
2, 140345, Note_on_c, 0, 69, 0
2, 140345, Note_on_c, 0, 70, 0
2, 140351, Note_on_c, 0, 73, 0
2, 140360, Note_on_c, 0, 81, 0
2, 140375, Note_on_c, 0, 76, 0
2, 140388, Control_c, 0, 64, 127
2, 140444, Note_on_c, 0, 73, 69
2, 140446, Note_on_c, 0, 69, 72
2, 140450, Note_on_c, 0, 70, 60
2, 140450, Note_on_c, 0, 76, 36
2, 140451, Note_on_c, 0, 81, 58
2, 140464, Control_c, 0, 64, 0
2, 140475, Note_on_c, 0, 81, 0
2, 140485, Note_on_c, 0, 76, 0
2, 140511, Note_on_c, 0, 73, 0
2, 140512, Note_on_c, 0, 68, 51
2, 140513, Note_on_c, 0, 69, 0
2, 140517, Note_on_c, 0, 70, 0
2, 140549, Note_on_c, 0, 68, 0
2, 140559, Note_on_c, 0, 67, 55
2, 140620, Note_on_c, 0, 78, 64
2, 140622, Note_on_c, 0, 70, 67
2, 140626, Note_on_c, 0, 66, 54
2, 140628, Note_on_c, 0, 67, 0
2, 140683, Note_on_c, 0, 66, 0
2, 140684, Note_on_c, 0, 70, 0
2, 140698, Note_on_c, 0, 78, 0
2, 140877, Control_c, 0, 64, 127
2, 141105, Note_on_c, 0, 61, 55
2, 141107, Note_on_c, 0, 67, 44
2, 141110, Note_on_c, 0, 70, 47
2, 141138, Note_on_c, 0, 67, 0
2, 141166, Note_on_c, 0, 70, 0
2, 141200, Note_on_c, 0, 61, 0
2, 141227, Control_c, 0, 64, 0
2, 141228, Note_on_c, 0, 77, 74
2, 141229, Note_on_c, 0, 66, 73
2, 141230, Note_on_c, 0, 69, 78
2, 141234, Note_on_c, 0, 65, 79
2, 141239, Note_on_c, 0, 72, 66
2, 141255, Note_on_c, 0, 75, 35
2, 141402, Note_on_c, 0, 77, 0
2, 141409, Note_on_c, 0, 72, 0
2, 141417, Control_c, 0, 64, 127
2, 141423, Note_on_c, 0, 69, 0
2, 141424, Note_on_c, 0, 66, 0
2, 141430, Note_on_c, 0, 75, 0
2, 141460, Note_on_c, 0, 65, 0
2, 141476, Note_on_c, 0, 66, 52
2, 141483, Note_on_c, 0, 63, 57
2, 141543, Note_on_c, 0, 66, 0
2, 141554, Note_on_c, 0, 63, 0
2, 141576, Control_c, 0, 64, 0
2, 141603, Note_on_c, 0, 63, 44
2, 141604, Note_on_c, 0, 74, 65
2, 141612, Note_on_c, 0, 66, 39
2, 141617, Note_on_c, 0, 69, 46
2, 141622, Note_on_c, 0, 62, 59
2, 141722, Control_c, 0, 64, 127
2, 141905, Note_on_c, 0, 69, 0
2, 141907, Note_on_c, 0, 62, 0
2, 141921, Note_on_c, 0, 63, 0
2, 141922, Note_on_c, 0, 66, 0
2, 141926, Note_on_c, 0, 74, 0
2, 141969, Control_c, 0, 64, 0
2, 142001, Note_on_c, 0, 60, 55
2, 142005, Note_on_c, 0, 63, 52
2, 142008, Note_on_c, 0, 66, 51
2, 142017, Note_on_c, 0, 72, 44
2, 142020, Note_on_c, 0, 69, 46
2, 142068, Note_on_c, 0, 72, 0
2, 142084, Control_c, 0, 64, 127
2, 142120, Note_on_c, 0, 69, 0
2, 142153, Note_on_c, 0, 63, 0
2, 142154, Note_on_c, 0, 60, 0
2, 142219, Note_on_c, 0, 66, 0
2, 142351, Control_c, 0, 64, 0
2, 142376, Note_on_c, 0, 70, 67
2, 142378, Note_on_c, 0, 54, 70
2, 142380, Note_on_c, 0, 66, 73
2, 142386, Note_on_c, 0, 62, 66
2, 142447, Note_on_c, 0, 55, 46
2, 142560, Note_on_c, 0, 55, 0
2, 142565, Note_on_c, 0, 62, 0
2, 142582, Note_on_c, 0, 70, 0
2, 142591, Note_on_c, 0, 54, 0
2, 142599, Note_on_c, 0, 66, 0
2, 142605, Control_c, 0, 64, 127
2, 142636, Note_on_c, 0, 55, 64
2, 142647, Note_on_c, 0, 71, 68
2, 142656, Note_on_c, 0, 67, 53
2, 142656, Note_on_c, 0, 62, 36
2, 142702, Note_on_c, 0, 62, 0
2, 142704, Note_on_c, 0, 67, 0
2, 142722, Note_on_c, 0, 71, 0
2, 142738, Control_c, 0, 64, 0
2, 142755, Note_on_c, 0, 55, 0
2, 142770, Note_on_c, 0, 67, 40
2, 142784, Note_on_c, 0, 50, 55
2, 142807, Note_on_c, 0, 50, 0
2, 142870, Note_on_c, 0, 62, 1
2, 142947, Note_on_c, 0, 62, 0
2, 142960, Control_c, 0, 64, 127
2, 142962, Note_on_c, 0, 67, 0
2, 143027, Note_on_c, 0, 69, 74
2, 143031, Note_on_c, 0, 62, 60
2, 143040, Note_on_c, 0, 55, 60
2, 143064, Note_on_c, 0, 55, 0
2, 143074, Note_on_c, 0, 62, 0
2, 143081, Control_c, 0, 64, 0
2, 143097, Note_on_c, 0, 69, 0
2, 143278, Control_c, 0, 64, 127
2, 143494, Control_c, 0, 64, 0
2, 143535, Note_on_c, 0, 59, 42
2, 143540, Note_on_c, 0, 63, 50
2, 143546, Note_on_c, 0, 49, 32
2, 143547, Note_on_c, 0, 67, 38
2, 143548, Note_on_c, 0, 53, 44
2, 143554, Note_on_c, 0, 58, 31
2, 143648, Note_on_c, 0, 58, 0
2, 143655, Note_on_c, 0, 67, 0
2, 143660, Note_on_c, 0, 53, 0
2, 143661, Note_on_c, 0, 59, 0
2, 143676, Note_on_c, 0, 63, 0
2, 143700, Note_on_c, 0, 49, 0
2, 143930, Note_on_c, 0, 59, 43
2, 143933, Note_on_c, 0, 63, 52
2, 143933, Note_on_c, 0, 49, 37
2, 143941, Note_on_c, 0, 58, 40
2, 143946, Note_on_c, 0, 53, 45
2, 143949, Note_on_c, 0, 67, 32
2, 144027, Note_on_c, 0, 67, 0
2, 144033, Note_on_c, 0, 59, 0
2, 144044, Note_on_c, 0, 53, 0
2, 144063, Note_on_c, 0, 58, 0
2, 144117, Note_on_c, 0, 49, 0
2, 144147, Note_on_c, 0, 63, 0
2, 144317, Note_on_c, 0, 67, 44
2, 144324, Note_on_c, 0, 64, 45
2, 144324, Note_on_c, 0, 60, 49
2, 144332, Note_on_c, 0, 55, 40
2, 144335, Note_on_c, 0, 48, 48
2, 144733, Control_c, 0, 64, 127
2, 144756, Note_on_c, 0, 55, 0
2, 144819, Note_on_c, 0, 48, 0
2, 144820, Note_on_c, 0, 60, 0
2, 144875, Note_on_c, 0, 64, 0
2, 144905, Note_on_c, 0, 67, 0
2, 145003, Note_on_c, 0, 48, 38
2, 145044, Control_c, 0, 64, 0
2, 145056, Note_on_c, 0, 49, 46
2, 145059, Note_on_c, 0, 48, 0
2, 145078, Note_on_c, 0, 67, 43
2, 145080, Note_on_c, 0, 64, 39
2, 145081, Note_on_c, 0, 60, 64
2, 145081, Note_on_c, 0, 55, 64
2, 145093, Note_on_c, 0, 50, 61
2, 145116, Note_on_c, 0, 49, 0
2, 145231, Note_on_c, 0, 55, 0
2, 145240, Note_on_c, 0, 67, 0
2, 145244, Note_on_c, 0, 60, 0
2, 145273, Note_on_c, 0, 64, 0
2, 145346, Note_on_c, 0, 38, 39
2, 145382, Note_on_c, 0, 38, 0
2, 145397, Note_on_c, 0, 50, 0
2, 145454, Note_on_c, 0, 61, 42
2, 145456, Note_on_c, 0, 58, 55
2, 145479, Note_on_c, 0, 55, 30
2, 145541, Control_c, 0, 64, 127
2, 145639, Note_on_c, 0, 55, 0
2, 145692, Note_on_c, 0, 58, 0
2, 145701, Note_on_c, 0, 61, 0
2, 145725, Note_on_c, 0, 62, 56
2, 145726, Note_on_c, 0, 49, 40
2, 145732, Note_on_c, 0, 50, 68
2, 145733, Note_on_c, 0, 55, 58
2, 145734, Note_on_c, 0, 59, 60
2, 145748, Note_on_c, 0, 49, 0
2, 145763, Control_c, 0, 64, 0
2, 145786, Note_on_c, 0, 55, 0
2, 145819, Note_on_c, 0, 59, 0
2, 145847, Note_on_c, 0, 62, 0
2, 145896, Control_c, 0, 64, 127
2, 146096, Note_on_c, 0, 38, 62
2, 146137, Note_on_c, 0, 50, 0
2, 146146, Note_on_c, 0, 38, 0
2, 146255, Note_on_c, 0, 67, 72
2, 146278, Note_on_c, 0, 67, 0
2, 146504, Note_on_c, 0, 69, 94
2, 146565, Note_on_c, 0, 69, 0
2, 146640, Control_c, 0, 64, 0
2, 146665, Note_on_c, 0, 49, 55
2, 146668, Note_on_c, 0, 67, 65
2, 146678, Note_on_c, 0, 59, 63
2, 146681, Note_on_c, 0, 63, 53
2, 146686, Note_on_c, 0, 70, 60
2, 146748, Control_c, 0, 64, 127
2, 146788, Note_on_c, 0, 59, 0
2, 146825, Note_on_c, 0, 67, 0
2, 146839, Note_on_c, 0, 70, 0
2, 146840, Note_on_c, 0, 63, 0
2, 146900, Note_on_c, 0, 72, 66
2, 146904, Note_on_c, 0, 59, 41
2, 146947, Note_on_c, 0, 59, 0
2, 146963, Note_on_c, 0, 72, 0
2, 146982, Note_on_c, 0, 49, 0
2, 146990, Control_c, 0, 64, 0
2, 147033, Note_on_c, 0, 49, 50
2, 147035, Note_on_c, 0, 70, 60
2, 147047, Control_c, 0, 64, 127
2, 147090, Note_on_c, 0, 70, 0
2, 147191, Note_on_c, 0, 49, 0
2, 147274, Note_on_c, 0, 69, 68
2, 147279, Note_on_c, 0, 66, 65
2, 147288, Note_on_c, 0, 62, 71
2, 147289, Note_on_c, 0, 58, 47
2, 147299, Note_on_c, 0, 48, 46
2, 147301, Control_c, 0, 64, 0
2, 147408, Control_c, 0, 64, 127
2, 147502, Note_on_c, 0, 48, 0
2, 147503, Note_on_c, 0, 69, 0
2, 147519, Note_on_c, 0, 62, 0
2, 147555, Note_on_c, 0, 66, 0
2, 147600, Note_on_c, 0, 58, 0
2, 147646, Note_on_c, 0, 48, 56
2, 147655, Note_on_c, 0, 72, 73
2, 147721, Note_on_c, 0, 72, 0
2, 147758, Control_c, 0, 64, 0
2, 147777, Control_c, 0, 64, 127
2, 147784, Note_on_c, 0, 58, 37
2, 147797, Note_on_c, 0, 71, 29
2, 147820, Note_on_c, 0, 71, 0
2, 147851, Note_on_c, 0, 58, 0
2, 147870, Note_on_c, 0, 48, 0
2, 148024, Note_on_c, 0, 69, 65
2, 148029, Note_on_c, 0, 65, 64
2, 148030, Note_on_c, 0, 60, 66
2, 148037, Note_on_c, 0, 47, 55
2, 148038, Note_on_c, 0, 57, 51
2, 148050, Control_c, 0, 64, 0
2, 148117, Note_on_c, 0, 60, 0
2, 148120, Note_on_c, 0, 65, 0
2, 148125, Note_on_c, 0, 69, 0
2, 148130, Note_on_c, 0, 57, 0
2, 148177, Control_c, 0, 64, 127
2, 148239, Note_on_c, 0, 57, 48
2, 148241, Note_on_c, 0, 68, 67
2, 148253, Note_on_c, 0, 63, 57
2, 148254, Note_on_c, 0, 59, 51
2, 148354, Note_on_c, 0, 59, 0
2, 148356, Note_on_c, 0, 68, 0
2, 148390, Note_on_c, 0, 57, 0
2, 148394, Note_on_c, 0, 63, 0
2, 148471, Note_on_c, 0, 47, 0
2, 148514, Control_c, 0, 64, 0
2, 148518, Note_on_c, 0, 66, 57
2, 148533, Note_on_c, 0, 58, 34
2, 148533, Note_on_c, 0, 51, 53
2, 148538, Note_on_c, 0, 61, 49
2, 148540, Control_c, 0, 64, 127
2, 148659, Note_on_c, 0, 61, 0
2, 148686, Note_on_c, 0, 66, 0
2, 148704, Note_on_c, 0, 58, 0
2, 148755, Note_on_c, 0, 51, 0
2, 148799, Note_on_c, 0, 62, 53
2, 148801, Note_on_c, 0, 67, 47
2, 148806, Control_c, 0, 64, 0
2, 148807, Note_on_c, 0, 59, 48
2, 148820, Note_on_c, 0, 52, 37
2, 148879, Note_on_c, 0, 59, 0
2, 148894, Control_c, 0, 64, 127
2, 148922, Note_on_c, 0, 62, 0
2, 148943, Note_on_c, 0, 67, 0
2, 148962, Note_on_c, 0, 52, 0
2, 149947, Note_on_c, 0, 62, 48
2, 149955, Note_on_c, 0, 59, 32
2, 149969, Note_on_c, 0, 62, 0
2, 149973, Note_on_c, 0, 55, 30
2, 149983, Note_on_c, 0, 59, 0
2, 150003, Note_on_c, 0, 55, 0
2, 150058, Control_c, 0, 64, 0
2, 150081, Note_on_c, 0, 77, 63
2, 150105, Note_on_c, 0, 77, 0
2, 150179, Note_on_c, 0, 81, 90
2, 150254, Note_on_c, 0, 81, 0
2, 150306, Note_on_c, 0, 79, 89
2, 150324, Control_c, 0, 64, 127
2, 150331, Note_on_c, 0, 62, 46
2, 150355, Note_on_c, 0, 62, 0
2, 150385, Note_on_c, 0, 55, 18
2, 150387, Control_c, 0, 64, 0
2, 150404, Note_on_c, 0, 79, 0
2, 150420, Note_on_c, 0, 55, 0
2, 150449, Note_on_c, 0, 78, 62
2, 150492, Note_on_c, 0, 78, 0
2, 150561, Note_on_c, 0, 76, 53
2, 150604, Note_on_c, 0, 76, 0
2, 150972, Note_on_c, 0, 76, 74
2, 150981, Note_on_c, 0, 70, 78
2, 151044, Note_on_c, 0, 70, 0
2, 151070, Note_on_c, 0, 69, 43
2, 151108, Note_on_c, 0, 76, 0
2, 151156, Note_on_c, 0, 69, 0
2, 151188, Note_on_c, 0, 67, 49
2, 151213, Control_c, 0, 64, 127
2, 151235, Note_on_c, 0, 67, 0
2, 151239, Control_c, 0, 64, 0
2, 151313, Note_on_c, 0, 69, 96
2, 151316, Note_on_c, 0, 76, 81
2, 151386, Note_on_c, 0, 69, 0
2, 151395, Note_on_c, 0, 76, 0
2, 151428, Note_on_c, 0, 71, 80
2, 151434, Note_on_c, 0, 76, 57
2, 151467, Note_on_c, 0, 76, 0
2, 151495, Note_on_c, 0, 71, 0
2, 151539, Note_on_c, 0, 67, 71
2, 151557, Note_on_c, 0, 62, 35
2, 151576, Note_on_c, 0, 59, 22
2, 151581, Note_on_c, 0, 62, 0
2, 151609, Note_on_c, 0, 59, 0
2, 151626, Note_on_c, 0, 67, 0
2, 151667, Note_on_c, 0, 64, 62
2, 151727, Note_on_c, 0, 64, 0
2, 151881, Note_on_c, 0, 62, 68
2, 151957, Note_on_c, 0, 62, 0
2, 152275, Note_on_c, 0, 55, 41
2, 152285, Note_on_c, 0, 45, 36
2, 152298, Note_on_c, 0, 55, 0
2, 152318, Note_on_c, 0, 45, 0
2, 152402, Note_on_c, 0, 59, 57
2, 152476, Note_on_c, 0, 59, 0
2, 152624, Control_c, 0, 64, 127
2, 152643, Note_on_c, 0, 60, 91
2, 152654, Note_on_c, 0, 55, 62
2, 152678, Note_on_c, 0, 55, 0
2, 152687, Control_c, 0, 64, 0
2, 152710, Note_on_c, 0, 60, 0
2, 152782, Note_on_c, 0, 64, 62
2, 152801, Control_c, 0, 64, 127
2, 152970, Note_on_c, 0, 64, 0
2, 153015, Note_on_c, 0, 67, 64
2, 153017, Note_on_c, 0, 64, 50
2, 153037, Note_on_c, 0, 60, 35
2, 153048, Note_on_c, 0, 64, 0
2, 153061, Note_on_c, 0, 60, 0
2, 153065, Note_on_c, 0, 67, 0
2, 153152, Note_on_c, 0, 71, 54
2, 153241, Note_on_c, 0, 71, 0
2, 153407, Note_on_c, 0, 59, 41
2, 153409, Note_on_c, 0, 74, 89
2, 153441, Note_on_c, 0, 59, 0
2, 153461, Note_on_c, 0, 74, 0
2, 153545, Control_c, 0, 64, 0
2, 153551, Note_on_c, 0, 69, 60
2, 153553, Note_on_c, 0, 66, 61
2, 153678, Note_on_c, 0, 69, 0
2, 153683, Note_on_c, 0, 64, 32
2, 153695, Note_on_c, 0, 66, 0
2, 153725, Note_on_c, 0, 64, 0
2, 153786, Control_c, 0, 64, 127
2, 153798, Control_c, 0, 64, 0
2, 153800, Note_on_c, 0, 69, 72
2, 153802, Note_on_c, 0, 66, 74
2, 153814, Note_on_c, 0, 62, 36
2, 153820, Note_on_c, 0, 59, 32
2, 153822, Note_on_c, 0, 52, 40
2, 153853, Note_on_c, 0, 59, 0
2, 153854, Note_on_c, 0, 52, 0
2, 153863, Note_on_c, 0, 62, 0
2, 154034, Control_c, 0, 64, 127
2, 154137, Note_on_c, 0, 67, 64
2, 154160, Note_on_c, 0, 69, 0
2, 154166, Note_on_c, 0, 66, 0
2, 154241, Note_on_c, 0, 67, 0
2, 154259, Note_on_c, 0, 64, 34
2, 154294, Control_c, 0, 64, 0
2, 154298, Note_on_c, 0, 64, 0
2, 154360, Note_on_c, 0, 67, 67
2, 154365, Note_on_c, 0, 64, 61
2, 154441, Control_c, 0, 64, 127
2, 154613, Note_on_c, 0, 64, 0
2, 154677, Note_on_c, 0, 67, 0
2, 154682, Control_c, 0, 64, 0
2, 154701, Note_on_c, 0, 66, 59
2, 154708, Note_on_c, 0, 62, 44
2, 154758, Control_c, 0, 64, 127
2, 155011, Note_on_c, 0, 66, 0
2, 155018, Note_on_c, 0, 62, 0
2, 155088, Control_c, 0, 64, 0
2, 155090, Note_on_c, 0, 66, 34
2, 155096, Note_on_c, 0, 64, 42
2, 155100, Note_on_c, 0, 71, 30
2, 155105, Note_on_c, 0, 54, 37
2, 155106, Note_on_c, 0, 60, 34
2, 155241, Control_c, 0, 64, 127
2, 155318, Note_on_c, 0, 64, 0
2, 155324, Note_on_c, 0, 66, 0
2, 155353, Note_on_c, 0, 71, 0
2, 155508, Note_on_c, 0, 60, 0
2, 155511, Note_on_c, 0, 54, 0
2, 155863, Control_c, 0, 64, 0
2, 155869, Note_on_c, 0, 54, 42
2, 155870, Note_on_c, 0, 64, 36
2, 155872, Note_on_c, 0, 60, 42
2, 156009, Note_on_c, 0, 83, 87
2, 156071, Note_on_c, 0, 83, 0
2, 156126, Note_on_c, 0, 81, 44
2, 156152, Note_on_c, 0, 81, 0
2, 156256, Note_on_c, 0, 83, 91
2, 156315, Note_on_c, 0, 64, 0
2, 156319, Note_on_c, 0, 83, 0
2, 156325, Note_on_c, 0, 60, 0
2, 156384, Note_on_c, 0, 81, 58
2, 156413, Note_on_c, 0, 54, 0
2, 156420, Note_on_c, 0, 81, 0
2, 156442, Control_c, 0, 64, 127
2, 156600, Control_c, 0, 64, 0
2, 156672, Note_on_c, 0, 62, 66
2, 156675, Note_on_c, 0, 51, 58
2, 156691, Note_on_c, 0, 84, 90
2, 156692, Note_on_c, 0, 57, 53
2, 156697, Note_on_c, 0, 72, 77
2, 156728, Note_on_c, 0, 57, 0
2, 156738, Note_on_c, 0, 72, 0
2, 156759, Note_on_c, 0, 62, 0
2, 156768, Note_on_c, 0, 84, 0
2, 156769, Note_on_c, 0, 51, 0
2, 156827, Note_on_c, 0, 83, 43
2, 156856, Note_on_c, 0, 83, 0
2, 156940, Note_on_c, 0, 84, 82
2, 156942, Note_on_c, 0, 62, 63
2, 156947, Note_on_c, 0, 51, 57
2, 156947, Note_on_c, 0, 72, 71
2, 156949, Note_on_c, 0, 57, 55
2, 157013, Note_on_c, 0, 62, 0
2, 157021, Note_on_c, 0, 57, 0
2, 157022, Note_on_c, 0, 72, 0
2, 157039, Note_on_c, 0, 84, 0
2, 157051, Note_on_c, 0, 51, 0
2, 157127, Control_c, 0, 64, 127
2, 157324, Control_c, 0, 64, 0
2, 157394, Control_c, 0, 64, 127
2, 157633, Note_on_c, 0, 51, 50
2, 157633, Note_on_c, 0, 62, 60
2, 157637, Note_on_c, 0, 57, 50
2, 157655, Note_on_c, 0, 51, 0
2, 157664, Note_on_c, 0, 62, 0
2, 157668, Note_on_c, 0, 57, 0
2, 157693, Control_c, 0, 64, 0
2, 157724, Control_c, 0, 64, 127
2, 157931, Note_on_c, 0, 96, 90
2, 158017, Note_on_c, 0, 96, 0
2, 158059, Note_on_c, 0, 93, 57
2, 158087, Note_on_c, 0, 93, 0
2, 158180, Note_on_c, 0, 90, 80
2, 158183, Control_c, 0, 64, 0
2, 158186, Note_on_c, 0, 57, 41
2, 158186, Note_on_c, 0, 62, 46
2, 158191, Note_on_c, 0, 58, 46
2, 158282, Note_on_c, 0, 90, 0
2, 158303, Note_on_c, 0, 93, 79
2, 158374, Note_on_c, 0, 93, 0
2, 158391, Control_c, 0, 64, 127
2, 158429, Note_on_c, 0, 91, 75
2, 158454, Control_c, 0, 64, 0
2, 158502, Note_on_c, 0, 91, 0
2, 158530, Note_on_c, 0, 62, 0
2, 158549, Note_on_c, 0, 57, 0
2, 158552, Note_on_c, 0, 58, 0
2, 158557, Note_on_c, 0, 86, 51
2, 158637, Note_on_c, 0, 86, 0
2, 158715, Control_c, 0, 64, 127
2, 158761, Note_on_c, 0, 62, 58
2, 158765, Note_on_c, 0, 57, 60
2, 158771, Note_on_c, 0, 58, 43
2, 158790, Note_on_c, 0, 62, 0
2, 158791, Note_on_c, 0, 57, 0
2, 158798, Control_c, 0, 64, 0
2, 158814, Note_on_c, 0, 58, 0
2, 158982, Control_c, 0, 64, 127
2, 159024, Note_on_c, 0, 86, 78
2, 159083, Note_on_c, 0, 86, 0
2, 159145, Note_on_c, 0, 90, 84
2, 159188, Note_on_c, 0, 62, 40
2, 159195, Note_on_c, 0, 58, 32
2, 159203, Note_on_c, 0, 57, 32
2, 159220, Note_on_c, 0, 62, 0
2, 159228, Note_on_c, 0, 57, 0
2, 159231, Note_on_c, 0, 90, 0
2, 159249, Control_c, 0, 64, 0
2, 159251, Note_on_c, 0, 58, 0
2, 159282, Note_on_c, 0, 89, 67
2, 159348, Note_on_c, 0, 89, 0
2, 159382, Control_c, 0, 64, 127
2, 159407, Note_on_c, 0, 87, 57
2, 159465, Note_on_c, 0, 87, 0
2, 159528, Note_on_c, 0, 62, 39
2, 159529, Note_on_c, 0, 63, 48
2, 159536, Note_on_c, 0, 67, 51
2, 159540, Note_on_c, 0, 57, 55
2, 159545, Note_on_c, 0, 84, 60
2, 159545, Note_on_c, 0, 83, 57
2, 159553, Control_c, 0, 64, 0
2, 159595, Note_on_c, 0, 84, 0
2, 159635, Note_on_c, 0, 83, 0
2, 159664, Note_on_c, 0, 86, 66
2, 159738, Note_on_c, 0, 86, 0
2, 159776, Control_c, 0, 64, 127
2, 159804, Note_on_c, 0, 84, 82
2, 159877, Note_on_c, 0, 84, 0
2, 159932, Note_on_c, 0, 80, 53
2, 159939, Note_on_c, 0, 67, 0
2, 159953, Note_on_c, 0, 63, 0
2, 159976, Note_on_c, 0, 57, 0
2, 159981, Note_on_c, 0, 80, 0
2, 159982, Note_on_c, 0, 62, 0
2, 160113, Control_c, 0, 64, 0
2, 160241, Note_on_c, 0, 80, 76
2, 160242, Note_on_c, 0, 63, 53
2, 160250, Note_on_c, 0, 67, 55
2, 160274, Note_on_c, 0, 57, 39
2, 160318, Note_on_c, 0, 80, 0
2, 160359, Note_on_c, 0, 83, 90
2, 160408, Note_on_c, 0, 67, 0
2, 160454, Note_on_c, 0, 63, 0
2, 160455, Note_on_c, 0, 83, 0
2, 160462, Control_c, 0, 64, 127
2, 160474, Note_on_c, 0, 57, 0
2, 160486, Note_on_c, 0, 81, 73
2, 160548, Note_on_c, 0, 81, 0
2, 160596, Note_on_c, 0, 76, 57
2, 160646, Note_on_c, 0, 76, 0
2, 160719, Note_on_c, 0, 63, 60
2, 160725, Note_on_c, 0, 67, 57
2, 160726, Note_on_c, 0, 78, 72
2, 160730, Note_on_c, 0, 57, 59
2, 160748, Control_c, 0, 64, 0
2, 160757, Note_on_c, 0, 67, 0
2, 160797, Note_on_c, 0, 63, 0
2, 160801, Note_on_c, 0, 78, 0
2, 160814, Note_on_c, 0, 57, 0
2, 160844, Note_on_c, 0, 79, 65
2, 160904, Note_on_c, 0, 79, 0
2, 160972, Note_on_c, 0, 81, 92
2, 160992, Note_on_c, 0, 62, 53
2, 161023, Note_on_c, 0, 52, 34
2, 161032, Note_on_c, 0, 55, 36
2, 161052, Note_on_c, 0, 62, 0
2, 161052, Note_on_c, 0, 81, 0
2, 161100, Note_on_c, 0, 78, 67
2, 161155, Note_on_c, 0, 55, 0
2, 161193, Note_on_c, 0, 78, 0
2, 161231, Note_on_c, 0, 79, 75
2, 161291, Note_on_c, 0, 52, 0
2, 161294, Control_c, 0, 64, 127
2, 161312, Note_on_c, 0, 79, 0
2, 161361, Note_on_c, 0, 78, 65
2, 161383, Control_c, 0, 64, 0
2, 161413, Note_on_c, 0, 78, 0
2, 161468, Note_on_c, 0, 76, 66
2, 161538, Note_on_c, 0, 76, 0
2, 161617, Note_on_c, 0, 67, 30
2, 161621, Note_on_c, 0, 69, 32
2, 161644, Note_on_c, 0, 67, 0
2, 161646, Note_on_c, 0, 69, 0
2, 161887, Note_on_c, 0, 76, 74
2, 161896, Note_on_c, 0, 70, 83
2, 161900, Note_on_c, 0, 63, 59
2, 161906, Note_on_c, 0, 75, 45
2, 161916, Note_on_c, 0, 59, 36
2, 161928, Note_on_c, 0, 75, 0
2, 161943, Note_on_c, 0, 63, 0
2, 161949, Note_on_c, 0, 59, 0
2, 161966, Note_on_c, 0, 76, 0
2, 161976, Note_on_c, 0, 70, 0
2, 161995, Note_on_c, 0, 69, 64
2, 162057, Note_on_c, 0, 69, 0
2, 162080, Note_on_c, 0, 67, 34
2, 162126, Note_on_c, 0, 67, 0
2, 162184, Note_on_c, 0, 64, 48
2, 162215, Note_on_c, 0, 64, 0
2, 162270, Note_on_c, 0, 67, 74
2, 162336, Note_on_c, 0, 67, 0
2, 162375, Note_on_c, 0, 69, 81
2, 162446, Note_on_c, 0, 69, 0
2, 162478, Note_on_c, 0, 67, 68
2, 162557, Note_on_c, 0, 67, 0
2, 162583, Note_on_c, 0, 66, 71
2, 162655, Note_on_c, 0, 66, 0
2, 162688, Note_on_c, 0, 64, 35
2, 162745, Note_on_c, 0, 64, 0
2, 162821, Note_on_c, 0, 62, 34
2, 162860, Note_on_c, 0, 62, 0
2, 162920, Note_on_c, 0, 64, 66
2, 162989, Note_on_c, 0, 64, 0
2, 163039, Note_on_c, 0, 59, 54
2, 163133, Note_on_c, 0, 59, 0
2, 163177, Note_on_c, 0, 59, 67
2, 163311, Note_on_c, 0, 59, 0
2, 163784, Control_c, 0, 64, 127
2, 163812, Note_on_c, 0, 62, 42
2, 163825, Note_on_c, 0, 59, 34
2, 163836, Note_on_c, 0, 62, 0
2, 163845, Note_on_c, 0, 55, 28
2, 163860, Control_c, 0, 64, 0
2, 163861, Note_on_c, 0, 59, 0
2, 163883, Note_on_c, 0, 55, 0
2, 164072, Note_on_c, 0, 64, 55
2, 164097, Note_on_c, 0, 64, 0
2, 164179, Note_on_c, 0, 67, 66
2, 164235, Control_c, 0, 64, 127
2, 164240, Note_on_c, 0, 67, 0
2, 164279, Control_c, 0, 64, 0
2, 164309, Note_on_c, 0, 71, 74
2, 164310, Note_on_c, 0, 65, 62
2, 164316, Note_on_c, 0, 60, 50
2, 164316, Note_on_c, 0, 61, 49
2, 164330, Note_on_c, 0, 65, 0
2, 164331, Note_on_c, 0, 58, 27
2, 164338, Note_on_c, 0, 60, 0
2, 164350, Note_on_c, 0, 61, 0
2, 164361, Note_on_c, 0, 58, 0
2, 164376, Note_on_c, 0, 71, 0
2, 164696, Note_on_c, 0, 60, 60
2, 164696, Note_on_c, 0, 61, 46
2, 164698, Note_on_c, 0, 65, 65
2, 164702, Note_on_c, 0, 83, 77
2, 164703, Note_on_c, 0, 71, 71
2, 164718, Note_on_c, 0, 65, 0
2, 164720, Note_on_c, 0, 60, 0
2, 164736, Note_on_c, 0, 71, 0
2, 164739, Note_on_c, 0, 61, 0
2, 164753, Note_on_c, 0, 83, 0
2, 165308, Control_c, 0, 64, 127
2, 165410, Control_c, 0, 64, 0
2, 165671, Control_c, 0, 64, 127
2, 165709, Note_on_c, 0, 61, 54
2, 165713, Note_on_c, 0, 72, 62
2, 165714, Note_on_c, 0, 84, 71
2, 165730, Note_on_c, 0, 61, 0
2, 165733, Note_on_c, 0, 72, 0
2, 165735, Note_on_c, 0, 84, 0
2, 165798, Control_c, 0, 64, 0
2, 165831, Note_on_c, 0, 88, 73
2, 165837, Note_on_c, 0, 76, 69
2, 165837, Note_on_c, 0, 61, 69
2, 165839, Note_on_c, 0, 65, 67
2, 165842, Note_on_c, 0, 55, 70
2, 165860, Note_on_c, 0, 65, 0
2, 165861, Note_on_c, 0, 76, 0
2, 165862, Note_on_c, 0, 55, 0
2, 165866, Note_on_c, 0, 88, 0
2, 165882, Note_on_c, 0, 61, 0
2, 166014, Control_c, 0, 64, 127
2, 166089, Note_on_c, 0, 70, 78
2, 166090, Note_on_c, 0, 82, 75
2, 166093, Note_on_c, 0, 59, 72
2, 166151, Note_on_c, 0, 59, 0
2, 166156, Note_on_c, 0, 70, 0
2, 166173, Control_c, 0, 64, 0
2, 166193, Note_on_c, 0, 82, 0
2, 166206, Note_on_c, 0, 59, 29
2, 166213, Note_on_c, 0, 52, 53
2, 166213, Note_on_c, 0, 62, 49
2, 166220, Note_on_c, 0, 83, 66
2, 166221, Note_on_c, 0, 55, 47
2, 166225, Note_on_c, 0, 71, 62
2, 166239, Note_on_c, 0, 80, 19
2, 166280, Note_on_c, 0, 83, 0
2, 166293, Note_on_c, 0, 62, 0
2, 166297, Note_on_c, 0, 80, 0
2, 166311, Note_on_c, 0, 71, 0
2, 166331, Control_c, 0, 64, 127
2, 166360, Note_on_c, 0, 55, 0
2, 166401, Note_on_c, 0, 52, 0
2, 166415, Note_on_c, 0, 59, 0
2, 166560, Control_c, 0, 64, 0
2, 166600, Note_on_c, 0, 62, 63
2, 166606, Note_on_c, 0, 52, 53
2, 166606, Note_on_c, 0, 59, 36
2, 166611, Note_on_c, 0, 79, 74
2, 166615, Note_on_c, 0, 67, 66
2, 166621, Note_on_c, 0, 55, 41
2, 166662, Control_c, 0, 64, 127
2, 166753, Note_on_c, 0, 62, 0
2, 166757, Note_on_c, 0, 52, 0
2, 166766, Note_on_c, 0, 67, 0
2, 166766, Note_on_c, 0, 59, 0
2, 166775, Note_on_c, 0, 55, 0
2, 166853, Note_on_c, 0, 79, 0
2, 166947, Control_c, 0, 64, 0
2, 166967, Control_c, 0, 64, 127
2, 166985, Note_on_c, 0, 52, 50
2, 166985, Note_on_c, 0, 62, 54
2, 166991, Note_on_c, 0, 76, 56
2, 166993, Note_on_c, 0, 67, 55
2, 166994, Note_on_c, 0, 59, 38
2, 167022, Note_on_c, 0, 62, 0
2, 167022, Note_on_c, 0, 52, 0
2, 167031, Note_on_c, 0, 59, 0
2, 167032, Note_on_c, 0, 67, 0
2, 167079, Note_on_c, 0, 76, 0
2, 167322, Control_c, 0, 64, 0
2, 167361, Note_on_c, 0, 83, 90
2, 167364, Note_on_c, 0, 71, 90
2, 167365, Note_on_c, 0, 60, 84
2, 167366, Note_on_c, 0, 65, 85
2, 167368, Note_on_c, 0, 61, 67
2, 167369, Note_on_c, 0, 79, 70
2, 167377, Note_on_c, 0, 58, 45
2, 167378, Note_on_c, 0, 55, 70
2, 167378, Note_on_c, 0, 76, 60
2, 167398, Note_on_c, 0, 55, 0
2, 167399, Note_on_c, 0, 76, 0
2, 167406, Note_on_c, 0, 71, 0
2, 167430, Control_c, 0, 64, 127
2, 167436, Note_on_c, 0, 55, 18
2, 167445, Note_on_c, 0, 79, 0
2, 167446, Note_on_c, 0, 60, 0
2, 167465, Note_on_c, 0, 65, 0
2, 167472, Note_on_c, 0, 83, 0
2, 167479, Note_on_c, 0, 71, 53
2, 167484, Note_on_c, 0, 61, 0
2, 167518, Note_on_c, 0, 60, 49
2, 167529, Note_on_c, 0, 83, 35
2, 167539, Note_on_c, 0, 71, 0
2, 167541, Note_on_c, 0, 61, 53
2, 167544, Note_on_c, 0, 79, 34
2, 167546, Note_on_c, 0, 55, 0
2, 167555, Note_on_c, 0, 65, 43
2, 167558, Note_on_c, 0, 58, 0
2, 167582, Note_on_c, 0, 60, 0
2, 167592, Note_on_c, 0, 79, 0
2, 167594, Note_on_c, 0, 71, 50
2, 167600, Note_on_c, 0, 83, 0
2, 167603, Note_on_c, 0, 61, 0
2, 167610, Note_on_c, 0, 65, 0
2, 167640, Note_on_c, 0, 55, 48
2, 167643, Note_on_c, 0, 60, 48
2, 167653, Note_on_c, 0, 71, 0
2, 167660, Note_on_c, 0, 83, 52
2, 167673, Note_on_c, 0, 79, 36
2, 167699, Note_on_c, 0, 61, 52
2, 167705, Note_on_c, 0, 79, 0
2, 167706, Note_on_c, 0, 65, 38
2, 167711, Note_on_c, 0, 71, 42
2, 167712, Note_on_c, 0, 55, 0
2, 167723, Note_on_c, 0, 83, 0
2, 167726, Note_on_c, 0, 60, 0
2, 167754, Note_on_c, 0, 61, 0
2, 167772, Note_on_c, 0, 71, 0
2, 167779, Note_on_c, 0, 83, 51
2, 167780, Note_on_c, 0, 65, 0
2, 167795, Note_on_c, 0, 60, 63
2, 167805, Note_on_c, 0, 55, 32
2, 167812, Note_on_c, 0, 58, 34
2, 167828, Note_on_c, 0, 61, 53
2, 167833, Note_on_c, 0, 71, 52
2, 167834, Note_on_c, 0, 55, 0
2, 167842, Note_on_c, 0, 83, 0
2, 167857, Note_on_c, 0, 60, 0
2, 167859, Note_on_c, 0, 58, 0
2, 167868, Note_on_c, 0, 65, 36
2, 167890, Note_on_c, 0, 61, 0
2, 167895, Note_on_c, 0, 71, 0
2, 167901, Note_on_c, 0, 83, 46
2, 167924, Note_on_c, 0, 60, 57
2, 167928, Note_on_c, 0, 65, 0
2, 167938, Note_on_c, 0, 55, 43
2, 167951, Note_on_c, 0, 58, 26
2, 167954, Note_on_c, 0, 71, 51
2, 167961, Note_on_c, 0, 83, 0
2, 167971, Note_on_c, 0, 55, 0
2, 167989, Note_on_c, 0, 61, 35
2, 167994, Note_on_c, 0, 58, 0
2, 168011, Note_on_c, 0, 71, 0
2, 168018, Note_on_c, 0, 83, 53
2, 168018, Note_on_c, 0, 65, 46
2, 168022, Note_on_c, 0, 60, 0
2, 168034, Note_on_c, 0, 79, 43
2, 168038, Note_on_c, 0, 61, 0
2, 168061, Note_on_c, 0, 79, 0
2, 168071, Note_on_c, 0, 71, 47
2, 168072, Note_on_c, 0, 65, 0
2, 168075, Note_on_c, 0, 83, 0
2, 168080, Note_on_c, 0, 60, 50
2, 168085, Note_on_c, 0, 55, 45
2, 168108, Note_on_c, 0, 58, 25
2, 168124, Note_on_c, 0, 71, 0
2, 168129, Note_on_c, 0, 55, 0
2, 168129, Note_on_c, 0, 83, 42
2, 168142, Note_on_c, 0, 79, 43
2, 168147, Note_on_c, 0, 58, 0
2, 168151, Note_on_c, 0, 61, 32
2, 168157, Note_on_c, 0, 65, 48
2, 168158, Note_on_c, 0, 60, 0
2, 168184, Note_on_c, 0, 79, 0
2, 168185, Note_on_c, 0, 83, 0
2, 168188, Note_on_c, 0, 71, 47
2, 168193, Note_on_c, 0, 61, 0
2, 168215, Note_on_c, 0, 65, 0
2, 168220, Note_on_c, 0, 60, 62
2, 168227, Note_on_c, 0, 55, 36
2, 168236, Note_on_c, 0, 71, 0
2, 168246, Note_on_c, 0, 83, 34
2, 168246, Note_on_c, 0, 58, 25
2, 168248, Note_on_c, 0, 79, 51
2, 168271, Note_on_c, 0, 55, 0
2, 168293, Note_on_c, 0, 83, 0
2, 168293, Note_on_c, 0, 65, 36
2, 168295, Note_on_c, 0, 58, 0
2, 168295, Note_on_c, 0, 71, 48
2, 168297, Note_on_c, 0, 60, 0
2, 168298, Note_on_c, 0, 61, 31
2, 168307, Note_on_c, 0, 79, 0
2, 168335, Note_on_c, 0, 61, 0
2, 168351, Note_on_c, 0, 71, 0
2, 168365, Note_on_c, 0, 65, 0
2, 168366, Note_on_c, 0, 79, 43
2, 168371, Note_on_c, 0, 83, 28
2, 168375, Note_on_c, 0, 60, 50
2, 168395, Note_on_c, 0, 55, 29
2, 168405, Note_on_c, 0, 83, 0
2, 168407, Note_on_c, 0, 58, 19
2, 168422, Note_on_c, 0, 55, 0
2, 168459, Note_on_c, 0, 79, 0
2, 168460, Note_on_c, 0, 58, 0
2, 168509, Note_on_c, 0, 82, 69
2, 168511, Control_c, 0, 64, 0
2, 168512, Note_on_c, 0, 70, 78
2, 168512, Note_on_c, 0, 65, 60
2, 168524, Note_on_c, 0, 61, 43
2, 168532, Note_on_c, 0, 80, 30
2, 168535, Note_on_c, 0, 55, 45
2, 168566, Note_on_c, 0, 80, 0
2, 168606, Control_c, 0, 64, 127
2, 168669, Note_on_c, 0, 55, 0
2, 168680, Note_on_c, 0, 65, 0
2, 168715, Note_on_c, 0, 70, 0
2, 168720, Note_on_c, 0, 82, 0
2, 168722, Note_on_c, 0, 61, 0
2, 168727, Note_on_c, 0, 60, 0
2, 168780, Note_on_c, 0, 83, 73
2, 168787, Note_on_c, 0, 65, 74
2, 168789, Note_on_c, 0, 61, 55
2, 168791, Note_on_c, 0, 60, 72
2, 168791, Note_on_c, 0, 71, 70
2, 168792, Note_on_c, 0, 76, 68
2, 168797, Note_on_c, 0, 55, 60
2, 168798, Note_on_c, 0, 79, 55
2, 168810, Note_on_c, 0, 58, 31
2, 168824, Note_on_c, 0, 79, 0
2, 168829, Note_on_c, 0, 55, 0
2, 168840, Note_on_c, 0, 65, 0
2, 168840, Control_c, 0, 64, 0
2, 168844, Note_on_c, 0, 71, 0
2, 168845, Note_on_c, 0, 76, 0
2, 168849, Note_on_c, 0, 83, 0
2, 168858, Note_on_c, 0, 58, 0
2, 168865, Note_on_c, 0, 60, 0
2, 168868, Note_on_c, 0, 61, 0
2, 168929, Control_c, 0, 64, 127
2, 168963, Note_on_c, 0, 76, 64
2, 168963, Note_on_c, 0, 61, 57
2, 168971, Note_on_c, 0, 64, 68
2, 168979, Note_on_c, 0, 60, 33
2, 168985, Note_on_c, 0, 55, 43
2, 169161, Note_on_c, 0, 55, 0
2, 169161, Note_on_c, 0, 64, 0
2, 169186, Note_on_c, 0, 61, 0
2, 169190, Note_on_c, 0, 76, 0
2, 169193, Note_on_c, 0, 60, 0
2, 169262, Note_on_c, 0, 60, 68
2, 169265, Note_on_c, 0, 61, 64
2, 169272, Control_c, 0, 64, 0
2, 169274, Note_on_c, 0, 55, 66
2, 169274, Note_on_c, 0, 64, 74
2, 169275, Note_on_c, 0, 76, 60
2, 169284, Note_on_c, 0, 58, 31
2, 169367, Control_c, 0, 64, 127
2, 169414, Note_on_c, 0, 64, 0
2, 169431, Note_on_c, 0, 60, 0
2, 169436, Note_on_c, 0, 76, 0
2, 169446, Note_on_c, 0, 55, 0
2, 169463, Note_on_c, 0, 61, 0
2, 169464, Note_on_c, 0, 58, 0
2, 169557, Note_on_c, 0, 78, 78
2, 169559, Note_on_c, 0, 66, 88
2, 169560, Note_on_c, 0, 55, 84
2, 169564, Note_on_c, 0, 61, 74
2, 169569, Note_on_c, 0, 65, 68
2, 169609, Control_c, 0, 64, 0
2, 169668, Note_on_c, 0, 65, 0
2, 169697, Note_on_c, 0, 55, 0
2, 169704, Control_c, 0, 64, 127
2, 169716, Note_on_c, 0, 66, 0
2, 169726, Note_on_c, 0, 61, 0
2, 169732, Note_on_c, 0, 78, 0
2, 169803, Note_on_c, 0, 55, 75
2, 169806, Note_on_c, 0, 79, 69
2, 169806, Note_on_c, 0, 61, 75
2, 169813, Note_on_c, 0, 65, 68
2, 169820, Note_on_c, 0, 67, 72
2, 169908, Note_on_c, 0, 67, 0
2, 169925, Note_on_c, 0, 65, 0
2, 169932, Note_on_c, 0, 55, 0
2, 169938, Note_on_c, 0, 79, 0
2, 169973, Note_on_c, 0, 61, 0
2, 170043, Control_c, 0, 64, 0
2, 170081, Note_on_c, 0, 61, 75
2, 170093, Note_on_c, 0, 55, 78
2, 170094, Note_on_c, 0, 65, 60
2, 170097, Note_on_c, 0, 84, 49
2, 170100, Note_on_c, 0, 71, 46
2, 170112, Control_c, 0, 64, 127
2, 170116, Note_on_c, 0, 65, 0
2, 170119, Note_on_c, 0, 84, 0
2, 170121, Note_on_c, 0, 71, 0
2, 170162, Note_on_c, 0, 55, 0
2, 170178, Note_on_c, 0, 61, 0
2, 170339, Note_on_c, 0, 86, 89
2, 170342, Note_on_c, 0, 74, 96
2, 170346, Note_on_c, 0, 83, 81
2, 170347, Control_c, 0, 64, 0
2, 170348, Note_on_c, 0, 79, 83
2, 170349, Note_on_c, 0, 64, 90
2, 170350, Note_on_c, 0, 60, 85
2, 170351, Note_on_c, 0, 59, 75
2, 170352, Note_on_c, 0, 55, 89
2, 170462, Control_c, 0, 64, 127
2, 170685, Note_on_c, 0, 86, 0
2, 170698, Note_on_c, 0, 83, 0
2, 170713, Note_on_c, 0, 79, 0
2, 170731, Note_on_c, 0, 55, 0
2, 170737, Note_on_c, 0, 64, 0
2, 170737, Note_on_c, 0, 74, 0
2, 170770, Note_on_c, 0, 59, 0
2, 170781, Note_on_c, 0, 60, 0
2, 170824, Control_c, 0, 64, 0
2, 170836, Note_on_c, 0, 64, 58
2, 170840, Note_on_c, 0, 60, 39
2, 170841, Note_on_c, 0, 55, 61
2, 170847, Note_on_c, 0, 59, 50
2, 170848, Note_on_c, 0, 76, 40
2, 170850, Note_on_c, 0, 83, 42
2, 170851, Note_on_c, 0, 71, 32
2, 170851, Note_on_c, 0, 79, 36
2, 170944, Note_on_c, 0, 71, 0
2, 170959, Note_on_c, 0, 76, 0
2, 170975, Note_on_c, 0, 64, 0
2, 170977, Note_on_c, 0, 79, 0
2, 170980, Note_on_c, 0, 55, 0
2, 170983, Note_on_c, 0, 83, 0
2, 170999, Note_on_c, 0, 60, 0
2, 171008, Note_on_c, 0, 59, 0
2, 171215, Note_on_c, 0, 88, 70
2, 171220, Note_on_c, 0, 60, 63
2, 171220, Note_on_c, 0, 64, 62
2, 171222, Note_on_c, 0, 55, 62
2, 171224, Note_on_c, 0, 84, 63
2, 171226, Note_on_c, 0, 59, 48
2, 171229, Note_on_c, 0, 76, 50
2, 171230, Note_on_c, 0, 81, 60
2, 171250, Note_on_c, 0, 59, 0
2, 171271, Note_on_c, 0, 60, 0
2, 171276, Note_on_c, 0, 84, 0
2, 171277, Note_on_c, 0, 64, 0
2, 171279, Note_on_c, 0, 88, 0
2, 171283, Note_on_c, 0, 55, 0
2, 171286, Note_on_c, 0, 81, 0
2, 171293, Note_on_c, 0, 76, 0
2, 171597, Note_on_c, 0, 83, 64
2, 171603, Note_on_c, 0, 60, 53
2, 171604, Note_on_c, 0, 64, 60
2, 171605, Note_on_c, 0, 55, 64
2, 171605, Note_on_c, 0, 76, 54
2, 171606, Note_on_c, 0, 71, 60
2, 171610, Note_on_c, 0, 79, 45
2, 171613, Note_on_c, 0, 59, 39
2, 171637, Note_on_c, 0, 59, 0
2, 171666, Note_on_c, 0, 64, 0
2, 171670, Note_on_c, 0, 71, 0
2, 171674, Note_on_c, 0, 60, 0
2, 171693, Note_on_c, 0, 76, 0
2, 171696, Note_on_c, 0, 79, 0
2, 171701, Note_on_c, 0, 55, 0
2, 171712, Note_on_c, 0, 83, 0
2, 171764, Control_c, 0, 64, 127
2, 171942, Control_c, 0, 64, 0
2, 171976, Note_on_c, 0, 60, 77
2, 171980, Note_on_c, 0, 75, 91
2, 171980, Note_on_c, 0, 65, 83
2, 171982, Note_on_c, 0, 87, 84
2, 171983, Note_on_c, 0, 58, 59
2, 171984, Note_on_c, 0, 54, 82
2, 171993, Note_on_c, 0, 80, 28
2, 171995, Note_on_c, 0, 88, 75
2, 171997, Note_on_c, 0, 85, 46
2, 171998, Note_on_c, 0, 81, 66
2, 172013, Note_on_c, 0, 80, 0
2, 172032, Note_on_c, 0, 81, 0
2, 172107, Note_on_c, 0, 85, 0
2, 172118, Note_on_c, 0, 75, 0
2, 172121, Note_on_c, 0, 88, 0
2, 172140, Control_c, 0, 64, 127
2, 172289, Note_on_c, 0, 65, 0
2, 172299, Note_on_c, 0, 54, 0
2, 172316, Note_on_c, 0, 60, 0
2, 172320, Note_on_c, 0, 58, 0
2, 172322, Note_on_c, 0, 87, 0
2, 172331, Control_c, 0, 64, 0
2, 172362, Note_on_c, 0, 65, 53
2, 172368, Note_on_c, 0, 84, 64
2, 172371, Note_on_c, 0, 54, 42
2, 172371, Note_on_c, 0, 75, 42
2, 172376, Control_c, 0, 64, 127
2, 172378, Note_on_c, 0, 60, 68
2, 172379, Note_on_c, 0, 80, 36
2, 172381, Note_on_c, 0, 58, 35
2, 172510, Note_on_c, 0, 80, 0
2, 172510, Note_on_c, 0, 75, 0
2, 172518, Note_on_c, 0, 65, 0
2, 172525, Note_on_c, 0, 54, 0
2, 172538, Note_on_c, 0, 84, 0
2, 172552, Note_on_c, 0, 60, 0
2, 172563, Note_on_c, 0, 58, 0
2, 172628, Note_on_c, 0, 87, 78
2, 172633, Note_on_c, 0, 75, 81
2, 172634, Note_on_c, 0, 80, 75
2, 172635, Note_on_c, 0, 65, 82
2, 172637, Note_on_c, 0, 60, 75
2, 172637, Note_on_c, 0, 58, 69
2, 172638, Note_on_c, 0, 54, 83
2, 172643, Control_c, 0, 64, 0
2, 172651, Note_on_c, 0, 84, 49
2, 172735, Note_on_c, 0, 84, 0
2, 172768, Control_c, 0, 64, 127
2, 172790, Note_on_c, 0, 75, 0
2, 172791, Note_on_c, 0, 80, 0
2, 172797, Note_on_c, 0, 65, 0
2, 172825, Note_on_c, 0, 60, 0
2, 172831, Note_on_c, 0, 87, 0
2, 172843, Note_on_c, 0, 58, 0
2, 172875, Note_on_c, 0, 84, 68
2, 172878, Note_on_c, 0, 75, 61
2, 172879, Note_on_c, 0, 65, 65
2, 172886, Note_on_c, 0, 58, 29
2, 172889, Note_on_c, 0, 60, 70
2, 172890, Note_on_c, 0, 80, 42
2, 173003, Note_on_c, 0, 75, 0
2, 173016, Note_on_c, 0, 84, 0
2, 173022, Note_on_c, 0, 54, 0
2, 173040, Note_on_c, 0, 65, 0
2, 173062, Note_on_c, 0, 80, 0
2, 173084, Note_on_c, 0, 58, 0
2, 173087, Note_on_c, 0, 60, 0
2, 173106, Control_c, 0, 64, 0
2, 173142, Note_on_c, 0, 85, 44
2, 173145, Note_on_c, 0, 80, 37
2, 173147, Note_on_c, 0, 73, 56
2, 173150, Note_on_c, 0, 54, 64
2, 173151, Control_c, 0, 64, 127
2, 173151, Note_on_c, 0, 58, 23
2, 173161, Note_on_c, 0, 60, 22
2, 173188, Note_on_c, 0, 60, 0
2, 173265, Note_on_c, 0, 80, 0
2, 173272, Note_on_c, 0, 54, 0
2, 173280, Note_on_c, 0, 73, 0
2, 173281, Note_on_c, 0, 85, 0
2, 173313, Note_on_c, 0, 58, 0
2, 173386, Control_c, 0, 64, 0
2, 173387, Note_on_c, 0, 86, 64
2, 173391, Note_on_c, 0, 79, 65
2, 173393, Note_on_c, 0, 62, 63
2, 173396, Note_on_c, 0, 74, 55
2, 173400, Note_on_c, 0, 54, 62
2, 173402, Note_on_c, 0, 59, 55
2, 173412, Note_on_c, 0, 84, 32
2, 173436, Note_on_c, 0, 84, 0
2, 173444, Note_on_c, 0, 86, 0
2, 173445, Note_on_c, 0, 62, 0
2, 173452, Note_on_c, 0, 79, 0
2, 173458, Note_on_c, 0, 59, 0
2, 173464, Note_on_c, 0, 74, 0
2, 173481, Control_c, 0, 64, 127
2, 173500, Note_on_c, 0, 54, 0
2, 173767, Note_on_c, 0, 51, 55
2, 173773, Note_on_c, 0, 67, 57
2, 173781, Note_on_c, 0, 62, 62
2, 173783, Note_on_c, 0, 57, 62
2, 173785, Note_on_c, 0, 52, 75
2, 173810, Note_on_c, 0, 51, 0
2, 173818, Control_c, 0, 64, 0
2, 173982, Control_c, 0, 64, 127
2, 174203, Note_on_c, 0, 67, 0
2, 174205, Note_on_c, 0, 57, 0
2, 174209, Note_on_c, 0, 52, 0
2, 174227, Note_on_c, 0, 62, 0
2, 174256, Control_c, 0, 64, 0
2, 174283, Note_on_c, 0, 67, 35
2, 174295, Note_on_c, 0, 52, 39
2, 174298, Note_on_c, 0, 57, 48
2, 174303, Note_on_c, 0, 62, 36
2, 174415, Note_on_c, 0, 57, 0
2, 174417, Note_on_c, 0, 67, 0
2, 174457, Note_on_c, 0, 62, 0
2, 174510, Control_c, 0, 64, 127
2, 174611, Control_c, 0, 64, 0
2, 174663, Note_on_c, 0, 52, 0
2, 174669, Note_on_c, 0, 57, 39
2, 174671, Note_on_c, 0, 69, 44
2, 174674, Note_on_c, 0, 62, 46
2, 174677, Note_on_c, 0, 54, 39
2, 174790, Note_on_c, 0, 57, 0
2, 174826, Note_on_c, 0, 62, 0
2, 174844, Note_on_c, 0, 69, 0
2, 174942, Control_c, 0, 64, 127
2, 174961, Control_c, 0, 64, 0
2, 175054, Note_on_c, 0, 71, 50
2, 175063, Note_on_c, 0, 54, 0
2, 175066, Note_on_c, 0, 62, 36
2, 175071, Note_on_c, 0, 55, 54
2, 175074, Note_on_c, 0, 64, 42
2, 175076, Note_on_c, 0, 67, 30
2, 175136, Note_on_c, 0, 62, 0
2, 175152, Note_on_c, 0, 55, 0
2, 175160, Note_on_c, 0, 64, 0
2, 175171, Note_on_c, 0, 67, 0
2, 175193, Note_on_c, 0, 71, 0
2, 175241, Control_c, 0, 64, 127
2, 175399, Control_c, 0, 64, 0
2, 175432, Note_on_c, 0, 81, 87
2, 175436, Note_on_c, 0, 78, 67
2, 175437, Note_on_c, 0, 66, 83
2, 175437, Note_on_c, 0, 74, 80
2, 175438, Note_on_c, 0, 71, 81
2, 175527, Control_c, 0, 64, 127
2, 175609, Note_on_c, 0, 81, 0
2, 175627, Note_on_c, 0, 71, 0
2, 175637, Note_on_c, 0, 74, 0
2, 175643, Note_on_c, 0, 66, 0
2, 175651, Note_on_c, 0, 78, 0
2, 175696, Note_on_c, 0, 79, 56
2, 175698, Note_on_c, 0, 71, 55
2, 175703, Note_on_c, 0, 74, 42
2, 175712, Note_on_c, 0, 64, 58
2, 175731, Note_on_c, 0, 74, 0
2, 175737, Control_c, 0, 64, 0
2, 175759, Note_on_c, 0, 79, 0
2, 175788, Note_on_c, 0, 71, 0
2, 175845, Control_c, 0, 64, 127
2, 175883, Note_on_c, 0, 64, 0
2, 175901, Note_on_c, 0, 78, 64
2, 175916, Note_on_c, 0, 62, 45
2, 175923, Note_on_c, 0, 71, 40
2, 175938, Note_on_c, 0, 67, 24
2, 175947, Note_on_c, 0, 71, 0
2, 175964, Note_on_c, 0, 78, 0
2, 175977, Note_on_c, 0, 67, 0
2, 176097, Note_on_c, 0, 62, 0
2, 176182, Control_c, 0, 64, 0
2, 176194, Note_on_c, 0, 74, 35
2, 176195, Note_on_c, 0, 66, 45
2, 176200, Note_on_c, 0, 63, 45
2, 176201, Note_on_c, 0, 59, 30
2, 176201, Note_on_c, 0, 69, 50
2, 176260, Control_c, 0, 64, 127
2, 176285, Note_on_c, 0, 59, 0
2, 176289, Note_on_c, 0, 74, 0
2, 176298, Note_on_c, 0, 66, 0
2, 176331, Note_on_c, 0, 63, 0
2, 176384, Note_on_c, 0, 69, 0
2, 176442, Note_on_c, 0, 66, 23
2, 176450, Note_on_c, 0, 63, 31
2, 176470, Note_on_c, 0, 55, 29
2, 176509, Note_on_c, 0, 63, 0
2, 176509, Note_on_c, 0, 66, 0
2, 176578, Control_c, 0, 64, 0
2, 176612, Note_on_c, 0, 55, 0
2, 176622, Note_on_c, 0, 66, 43
2, 176625, Note_on_c, 0, 58, 37
2, 176628, Note_on_c, 0, 48, 44
2, 176630, Note_on_c, 0, 62, 39
2, 176774, Control_c, 0, 64, 127
2, 176944, Note_on_c, 0, 48, 0
2, 176978, Note_on_c, 0, 62, 0
2, 176997, Note_on_c, 0, 58, 0
2, 177011, Note_on_c, 0, 66, 0
2, 177579, Note_on_c, 0, 57, 64
2, 177583, Note_on_c, 0, 62, 63
2, 177584, Note_on_c, 0, 90, 68
2, 177588, Note_on_c, 0, 58, 44
2, 177589, Note_on_c, 0, 78, 60
2, 177600, Control_c, 0, 64, 0
2, 177602, Note_on_c, 0, 86, 39
2, 177609, Note_on_c, 0, 58, 0
2, 177612, Note_on_c, 0, 62, 0
2, 177613, Note_on_c, 0, 78, 0
2, 177621, Note_on_c, 0, 57, 0
2, 177627, Note_on_c, 0, 86, 0
2, 177632, Note_on_c, 0, 90, 0
2, 177746, Control_c, 0, 64, 127
2, 177797, Note_on_c, 0, 78, 72
2, 177797, Note_on_c, 0, 90, 72
2, 177798, Note_on_c, 0, 57, 69
2, 177799, Note_on_c, 0, 62, 71
2, 177808, Note_on_c, 0, 86, 53
2, 177811, Note_on_c, 0, 58, 42
2, 177811, Note_on_c, 0, 52, 49
2, 177827, Note_on_c, 0, 62, 0
2, 177830, Note_on_c, 0, 86, 0
2, 177831, Note_on_c, 0, 58, 0
2, 177833, Note_on_c, 0, 52, 0
2, 177836, Note_on_c, 0, 78, 0
2, 177838, Note_on_c, 0, 90, 0
2, 177844, Note_on_c, 0, 57, 0
2, 177874, Note_on_c, 0, 78, 64
2, 177879, Note_on_c, 0, 90, 67
2, 177882, Note_on_c, 0, 62, 58
2, 177884, Note_on_c, 0, 86, 44
2, 177892, Note_on_c, 0, 57, 60
2, 177899, Note_on_c, 0, 52, 29
2, 177901, Note_on_c, 0, 58, 37
2, 177909, Note_on_c, 0, 86, 0
2, 177923, Note_on_c, 0, 78, 0
2, 177928, Note_on_c, 0, 58, 0
2, 177930, Note_on_c, 0, 62, 0
2, 177932, Note_on_c, 0, 52, 0
2, 177937, Note_on_c, 0, 57, 0
2, 177954, Note_on_c, 0, 90, 0
2, 177956, Control_c, 0, 64, 0
2, 178043, Note_on_c, 0, 62, 70
2, 178045, Note_on_c, 0, 57, 56
2, 178048, Note_on_c, 0, 52, 50
2, 178049, Note_on_c, 0, 79, 74
2, 178050, Note_on_c, 0, 91, 68
2, 178064, Note_on_c, 0, 62, 0
2, 178073, Note_on_c, 0, 91, 0
2, 178074, Note_on_c, 0, 79, 0
2, 178077, Note_on_c, 0, 52, 0
2, 178082, Note_on_c, 0, 57, 0
2, 178122, Note_on_c, 0, 62, 50
2, 178126, Note_on_c, 0, 58, 37
2, 178128, Note_on_c, 0, 91, 51
2, 178129, Note_on_c, 0, 79, 54
2, 178130, Note_on_c, 0, 57, 26
2, 178131, Note_on_c, 0, 52, 20
2, 178154, Note_on_c, 0, 79, 0
2, 178157, Note_on_c, 0, 57, 0
2, 178163, Note_on_c, 0, 62, 0
2, 178169, Note_on_c, 0, 52, 0
2, 178176, Note_on_c, 0, 91, 0
2, 178178, Control_c, 0, 64, 127
2, 178184, Note_on_c, 0, 58, 0
2, 178203, Control_c, 0, 64, 0
2, 178240, Note_on_c, 0, 62, 68
2, 178241, Note_on_c, 0, 93, 72
2, 178245, Note_on_c, 0, 89, 48
2, 178247, Note_on_c, 0, 51, 64
2, 178250, Note_on_c, 0, 81, 44
2, 178255, Note_on_c, 0, 56, 29
2, 178256, Note_on_c, 0, 57, 55
2, 178263, Note_on_c, 0, 93, 0
2, 178268, Note_on_c, 0, 89, 0
2, 178274, Note_on_c, 0, 81, 0
2, 178277, Note_on_c, 0, 56, 0
2, 178278, Note_on_c, 0, 57, 0
2, 178287, Note_on_c, 0, 62, 0
2, 178301, Note_on_c, 0, 51, 0
2, 178514, Control_c, 0, 64, 127
2, 178864, Control_c, 0, 64, 0
2, 178908, Control_c, 0, 64, 127
2, 179154, Note_on_c, 0, 66, 80
2, 179155, Note_on_c, 0, 71, 88
2, 179156, Note_on_c, 0, 60, 94
2, 179159, Note_on_c, 0, 64, 80
2, 179159, Note_on_c, 0, 57, 87
2, 179236, Note_on_c, 0, 71, 0
2, 179245, Note_on_c, 0, 64, 0
2, 179251, Control_c, 0, 64, 0
2, 179255, Note_on_c, 0, 60, 0
2, 179256, Note_on_c, 0, 66, 0
2, 179310, Note_on_c, 0, 60, 58
2, 179314, Note_on_c, 0, 69, 49
2, 179316, Note_on_c, 0, 66, 37
2, 179317, Note_on_c, 0, 64, 49
2, 179365, Control_c, 0, 64, 127
2, 179372, Note_on_c, 0, 57, 0
2, 179490, Note_on_c, 0, 64, 0
2, 179511, Note_on_c, 0, 60, 0
2, 179524, Note_on_c, 0, 66, 0
2, 179542, Note_on_c, 0, 51, 48
2, 179562, Note_on_c, 0, 69, 0
2, 179633, Control_c, 0, 64, 0
2, 179643, Note_on_c, 0, 51, 0
2, 179658, Note_on_c, 0, 67, 50
2, 179665, Note_on_c, 0, 62, 48
2, 179666, Note_on_c, 0, 57, 37
2, 179667, Note_on_c, 0, 52, 53
2, 179725, Note_on_c, 0, 57, 0
2, 179729, Note_on_c, 0, 62, 0
2, 179770, Note_on_c, 0, 67, 0
2, 179882, Note_on_c, 0, 52, 0
2, 179910, Note_on_c, 0, 40, 60
2, 179932, Note_on_c, 0, 40, 0
2, 180021, Control_c, 0, 64, 127
2, 180283, Note_on_c, 0, 62, 72
2, 180284, Note_on_c, 0, 79, 64
2, 180287, Note_on_c, 0, 59, 55
2, 180289, Note_on_c, 0, 67, 63
2, 180291, Note_on_c, 0, 74, 59
2, 180294, Note_on_c, 0, 52, 42
2, 180302, Note_on_c, 0, 55, 42
2, 180318, Control_c, 0, 64, 0
2, 180321, Note_on_c, 0, 52, 0
2, 180329, Note_on_c, 0, 62, 0
2, 180337, Note_on_c, 0, 55, 0
2, 180340, Note_on_c, 0, 59, 0
2, 180342, Note_on_c, 0, 67, 0
2, 180350, Note_on_c, 0, 79, 0
2, 180360, Note_on_c, 0, 74, 0
2, 180405, Note_on_c, 0, 59, 50
2, 180410, Note_on_c, 0, 74, 64
2, 180416, Note_on_c, 0, 79, 35
2, 180422, Note_on_c, 0, 67, 28
2, 180426, Note_on_c, 0, 55, 39
2, 180431, Note_on_c, 0, 59, 0
2, 180444, Note_on_c, 0, 74, 0
2, 180445, Note_on_c, 0, 67, 0
2, 180450, Note_on_c, 0, 55, 0
2, 180459, Note_on_c, 0, 79, 0
2, 180789, Note_on_c, 0, 62, 55
2, 180790, Note_on_c, 0, 81, 60
2, 180791, Note_on_c, 0, 69, 59
2, 180796, Note_on_c, 0, 59, 32
2, 180810, Note_on_c, 0, 62, 0
2, 180813, Note_on_c, 0, 69, 0
2, 180813, Note_on_c, 0, 55, 22
2, 180826, Note_on_c, 0, 81, 0
2, 180835, Note_on_c, 0, 59, 0
2, 180846, Note_on_c, 0, 55, 0
2, 181004, Control_c, 0, 64, 127
2, 181062, Control_c, 0, 64, 0
2, 181180, Note_on_c, 0, 83, 70
2, 181181, Note_on_c, 0, 62, 54
2, 181184, Note_on_c, 0, 71, 57
2, 181186, Note_on_c, 0, 76, 57
2, 181188, Note_on_c, 0, 59, 44
2, 181190, Note_on_c, 0, 55, 44
2, 181192, Note_on_c, 0, 52, 44
2, 181385, Control_c, 0, 64, 127
2, 181474, Control_c, 0, 64, 0
2, 181558, Control_c, 0, 64, 127
2, 181622, Note_on_c, 0, 71, 0
2, 181638, Note_on_c, 0, 76, 0
2, 181639, Note_on_c, 0, 62, 0
2, 181641, Note_on_c, 0, 52, 0
2, 181644, Note_on_c, 0, 55, 0
2, 181651, Note_on_c, 0, 59, 0
2, 181676, Note_on_c, 0, 83, 0
2, 181906, Control_c, 0, 64, 0
2, 181982, Control_c, 0, 64, 127
2, 182227, Note_on_c, 0, 88, 90
2, 182231, Note_on_c, 0, 62, 81
2, 182232, Note_on_c, 0, 76, 84
2, 182233, Note_on_c, 0, 83, 89
2, 182234, Note_on_c, 0, 59, 64
2, 182239, Note_on_c, 0, 52, 68
2, 182243, Control_c, 0, 64, 0
2, 182246, Note_on_c, 0, 55, 58
2, 182319, Control_c, 0, 64, 127
2, 182400, Note_on_c, 0, 88, 0
2, 182421, Note_on_c, 0, 83, 0
2, 182433, Note_on_c, 0, 55, 0
2, 182454, Note_on_c, 0, 62, 0
2, 182457, Note_on_c, 0, 76, 0
2, 182459, Note_on_c, 0, 59, 0
2, 182486, Note_on_c, 0, 52, 0
2, 182714, Control_c, 0, 64, 0
2, 182719, Note_on_c, 0, 71, 82
2, 182726, Note_on_c, 0, 62, 92
2, 182726, Note_on_c, 0, 67, 83
2, 182735, Note_on_c, 0, 56, 83
2, 182840, Control_c, 0, 64, 127
2, 182935, Note_on_c, 0, 62, 0
2, 182952, Note_on_c, 0, 67, 0
2, 182953, Note_on_c, 0, 71, 0
2, 182957, Note_on_c, 0, 56, 0
2, 182996, Note_on_c, 0, 56, 79
2, 182997, Note_on_c, 0, 62, 68
2, 182999, Note_on_c, 0, 71, 80
2, 182999, Note_on_c, 0, 67, 74
2, 183045, Control_c, 0, 64, 0
2, 183110, Note_on_c, 0, 62, 0
2, 183124, Note_on_c, 0, 67, 0
2, 183134, Note_on_c, 0, 71, 0
2, 183137, Note_on_c, 0, 56, 0
2, 183153, Control_c, 0, 64, 127
2, 183177, Note_on_c, 0, 71, 66
2, 183177, Note_on_c, 0, 62, 62
2, 183177, Note_on_c, 0, 56, 76
2, 183180, Note_on_c, 0, 67, 57
2, 183291, Note_on_c, 0, 62, 0
2, 183301, Note_on_c, 0, 67, 0
2, 183312, Note_on_c, 0, 71, 0
2, 183320, Note_on_c, 0, 56, 0
2, 183381, Note_on_c, 0, 71, 68
2, 183382, Note_on_c, 0, 56, 72
2, 183384, Note_on_c, 0, 67, 71
2, 183384, Note_on_c, 0, 62, 78
2, 183462, Note_on_c, 0, 62, 0
2, 183477, Control_c, 0, 64, 0
2, 183481, Note_on_c, 0, 56, 0
2, 183489, Note_on_c, 0, 71, 0
2, 183490, Note_on_c, 0, 67, 0
2, 183550, Note_on_c, 0, 56, 62
2, 183552, Note_on_c, 0, 71, 54
2, 183554, Note_on_c, 0, 67, 55
2, 183560, Note_on_c, 0, 62, 61
2, 183573, Control_c, 0, 64, 127
2, 183717, Note_on_c, 0, 62, 0
2, 183789, Note_on_c, 0, 71, 0
2, 183806, Note_on_c, 0, 67, 0
2, 183832, Control_c, 0, 64, 0
2, 183877, Note_on_c, 0, 58, 51
2, 183880, Note_on_c, 0, 63, 53
2, 183881, Note_on_c, 0, 56, 0
2, 183881, Note_on_c, 0, 72, 38
2, 183887, Note_on_c, 0, 68, 47
2, 183902, Control_c, 0, 64, 127
2, 183969, Note_on_c, 0, 72, 0
2, 183987, Note_on_c, 0, 68, 0
2, 183991, Note_on_c, 0, 63, 0
2, 184133, Note_on_c, 0, 74, 62
2, 184134, Note_on_c, 0, 58, 0
2, 184139, Note_on_c, 0, 65, 47
2, 184141, Note_on_c, 0, 70, 58
2, 184145, Note_on_c, 0, 60, 64
2, 184150, Control_c, 0, 64, 0
2, 184160, Note_on_c, 0, 65, 0
2, 184167, Note_on_c, 0, 60, 0
2, 184186, Note_on_c, 0, 70, 0
2, 184190, Note_on_c, 0, 74, 0
2, 184302, Control_c, 0, 64, 127
2, 184509, Note_on_c, 0, 77, 76
2, 184513, Note_on_c, 0, 68, 83
2, 184517, Note_on_c, 0, 74, 63
2, 184517, Note_on_c, 0, 71, 75
2, 184522, Note_on_c, 0, 67, 80
2, 184526, Control_c, 0, 64, 0
2, 184576, Note_on_c, 0, 77, 0
2, 184613, Note_on_c, 0, 68, 0
2, 184629, Note_on_c, 0, 74, 0
2, 184636, Note_on_c, 0, 71, 0
2, 184643, Note_on_c, 0, 67, 0
2, 184659, Control_c, 0, 64, 127
2, 184681, Note_on_c, 0, 71, 77
2, 184686, Note_on_c, 0, 68, 80
2, 184689, Note_on_c, 0, 67, 66
2, 184689, Note_on_c, 0, 74, 54
2, 184690, Note_on_c, 0, 79, 80
2, 184869, Note_on_c, 0, 67, 0
2, 184874, Note_on_c, 0, 79, 0
2, 184879, Note_on_c, 0, 74, 0
2, 184879, Note_on_c, 0, 68, 0
2, 184880, Note_on_c, 0, 71, 0
2, 184923, Note_on_c, 0, 68, 60
2, 184925, Note_on_c, 0, 77, 68
2, 184932, Note_on_c, 0, 71, 62
2, 184935, Note_on_c, 0, 74, 58
2, 184936, Note_on_c, 0, 65, 68
2, 184946, Control_c, 0, 64, 0
2, 184998, Note_on_c, 0, 71, 0
2, 185006, Note_on_c, 0, 74, 0
2, 185011, Note_on_c, 0, 77, 0
2, 185044, Note_on_c, 0, 68, 0
2, 185048, Note_on_c, 0, 65, 0
2, 185079, Control_c, 0, 64, 127
2, 185111, Note_on_c, 0, 62, 40
2, 185126, Note_on_c, 0, 74, 59
2, 185144, Note_on_c, 0, 68, 42
2, 185145, Note_on_c, 0, 65, 60
2, 185305, Note_on_c, 0, 68, 0
2, 185307, Note_on_c, 0, 62, 0
2, 185318, Note_on_c, 0, 65, 0
2, 185340, Control_c, 0, 64, 0
2, 185361, Note_on_c, 0, 74, 0
2, 185372, Control_c, 0, 64, 127
2, 185376, Note_on_c, 0, 71, 41
2, 185381, Note_on_c, 0, 65, 56
2, 185383, Note_on_c, 0, 58, 44
2, 185390, Note_on_c, 0, 68, 45
2, 185471, Note_on_c, 0, 71, 0
2, 185500, Note_on_c, 0, 65, 0
2, 185533, Note_on_c, 0, 68, 0
2, 185637, Note_on_c, 0, 58, 0
2, 185651, Note_on_c, 0, 72, 59
2, 185657, Note_on_c, 0, 67, 55
2, 185662, Note_on_c, 0, 57, 53
2, 185671, Note_on_c, 0, 62, 38
2, 185679, Note_on_c, 0, 64, 32
2, 185682, Control_c, 0, 64, 0
2, 185704, Note_on_c, 0, 64, 0
2, 185728, Note_on_c, 0, 62, 0
2, 185739, Control_c, 0, 64, 127
2, 185756, Note_on_c, 0, 57, 0
2, 185783, Note_on_c, 0, 67, 0
2, 185798, Note_on_c, 0, 72, 0
2, 186050, Note_on_c, 0, 84, 89
2, 186051, Note_on_c, 0, 55, 81
2, 186053, Note_on_c, 0, 72, 88
2, 186054, Note_on_c, 0, 79, 81
2, 186055, Note_on_c, 0, 60, 72
2, 186058, Note_on_c, 0, 64, 72
2, 186060, Note_on_c, 0, 59, 64
2, 186064, Control_c, 0, 64, 0
2, 186078, Note_on_c, 0, 64, 0
2, 186159, Control_c, 0, 64, 127
2, 186440, Note_on_c, 0, 55, 0
2, 186463, Note_on_c, 0, 72, 0
2, 186466, Note_on_c, 0, 60, 0
2, 186467, Note_on_c, 0, 59, 0
2, 186480, Note_on_c, 0, 84, 0
2, 186486, Note_on_c, 0, 79, 0
2, 186578, Control_c, 0, 64, 0
2, 186585, Note_on_c, 0, 64, 49
2, 186587, Note_on_c, 0, 84, 54
2, 186589, Note_on_c, 0, 60, 45
2, 186591, Note_on_c, 0, 55, 44
2, 186596, Note_on_c, 0, 79, 48
2, 186597, Note_on_c, 0, 59, 35
2, 186599, Note_on_c, 0, 72, 41
2, 186615, Note_on_c, 0, 60, 0
2, 186619, Note_on_c, 0, 64, 0
2, 186623, Note_on_c, 0, 59, 0
2, 186627, Note_on_c, 0, 72, 0
2, 186629, Note_on_c, 0, 55, 0
2, 186634, Note_on_c, 0, 79, 0
2, 186661, Note_on_c, 0, 84, 0
2, 186959, Note_on_c, 0, 86, 62
2, 186960, Note_on_c, 0, 64, 50
2, 186961, Note_on_c, 0, 74, 59
2, 186962, Note_on_c, 0, 59, 43
2, 186965, Note_on_c, 0, 60, 42
2, 186967, Note_on_c, 0, 55, 44
2, 186969, Note_on_c, 0, 81, 50
2, 186986, Note_on_c, 0, 60, 0
2, 186991, Note_on_c, 0, 64, 0
2, 186995, Note_on_c, 0, 59, 0
2, 186997, Note_on_c, 0, 81, 0
2, 186998, Note_on_c, 0, 55, 0
2, 187002, Note_on_c, 0, 74, 0
2, 187033, Note_on_c, 0, 86, 0
2, 187345, Note_on_c, 0, 60, 54
2, 187348, Note_on_c, 0, 76, 60
2, 187348, Note_on_c, 0, 64, 49
2, 187350, Note_on_c, 0, 59, 41
2, 187351, Note_on_c, 0, 88, 58
2, 187351, Note_on_c, 0, 55, 54
2, 187362, Control_c, 0, 64, 127
2, 187364, Note_on_c, 0, 83, 44
2, 187405, Note_on_c, 0, 83, 0
2, 187405, Note_on_c, 0, 76, 0
2, 187417, Note_on_c, 0, 55, 0
2, 187436, Note_on_c, 0, 88, 0
2, 187455, Note_on_c, 0, 60, 0
2, 187463, Note_on_c, 0, 59, 0
2, 187464, Note_on_c, 0, 64, 0
2, 187981, Note_on_c, 0, 59, 67
2, 187982, Note_on_c, 0, 60, 74
2, 187984, Note_on_c, 0, 55, 75
2, 187984, Note_on_c, 0, 64, 73
2, 187985, Note_on_c, 0, 91, 74
2, 187990, Note_on_c, 0, 79, 76
2, 187992, Note_on_c, 0, 86, 73
2, 188027, Note_on_c, 0, 86, 0
2, 188031, Note_on_c, 0, 79, 0
2, 188045, Note_on_c, 0, 64, 0
2, 188045, Note_on_c, 0, 91, 0
2, 188047, Note_on_c, 0, 59, 0
2, 188052, Note_on_c, 0, 60, 0
2, 188058, Note_on_c, 0, 55, 0
2, 188111, Control_c, 0, 64, 0
2, 188133, Note_on_c, 0, 55, 49
2, 188140, Note_on_c, 0, 88, 66
2, 188141, Note_on_c, 0, 60, 53
2, 188143, Note_on_c, 0, 76, 55
2, 188145, Note_on_c, 0, 59, 46
2, 188149, Note_on_c, 0, 64, 46
2, 188150, Note_on_c, 0, 83, 56
2, 188187, Control_c, 0, 64, 127
2, 188211, Note_on_c, 0, 64, 0
2, 188222, Note_on_c, 0, 60, 0
2, 188222, Note_on_c, 0, 83, 0
2, 188231, Note_on_c, 0, 55, 0
2, 188236, Note_on_c, 0, 88, 0
2, 188240, Note_on_c, 0, 76, 0
2, 188249, Note_on_c, 0, 59, 0
2, 188758, Note_on_c, 0, 60, 58
2, 188760, Note_on_c, 0, 55, 64
2, 188764, Note_on_c, 0, 84, 81
2, 188767, Note_on_c, 0, 79, 74
2, 188768, Note_on_c, 0, 72, 74
2, 188769, Note_on_c, 0, 59, 39
2, 188782, Note_on_c, 0, 60, 0
2, 188796, Note_on_c, 0, 59, 0
2, 188814, Note_on_c, 0, 84, 0
2, 188820, Note_on_c, 0, 79, 0
2, 188829, Note_on_c, 0, 55, 0
2, 188837, Note_on_c, 0, 72, 0
2, 188892, Control_c, 0, 64, 0
2, 188918, Note_on_c, 0, 62, 53
2, 188921, Note_on_c, 0, 59, 50
2, 188925, Note_on_c, 0, 71, 51
2, 188928, Note_on_c, 0, 55, 44
2, 188929, Note_on_c, 0, 83, 42
2, 188934, Note_on_c, 0, 79, 34
2, 189019, Control_c, 0, 64, 127
2, 189028, Note_on_c, 0, 71, 0
2, 189042, Note_on_c, 0, 55, 0
2, 189052, Note_on_c, 0, 79, 0
2, 189060, Note_on_c, 0, 62, 0
2, 189063, Note_on_c, 0, 83, 0
2, 189067, Note_on_c, 0, 59, 0
2, 189204, Control_c, 0, 64, 0
2, 189262, Note_on_c, 0, 62, 68
2, 189266, Note_on_c, 0, 55, 69
2, 189269, Note_on_c, 0, 86, 71
2, 189271, Note_on_c, 0, 59, 50
2, 189277, Note_on_c, 0, 74, 61
2, 189278, Note_on_c, 0, 83, 55
2, 189299, Note_on_c, 0, 59, 0
2, 189299, Note_on_c, 0, 79, 59
2, 189307, Note_on_c, 0, 84, 26
2, 189320, Note_on_c, 0, 62, 0
2, 189343, Note_on_c, 0, 84, 0
2, 189346, Note_on_c, 0, 83, 0
2, 189348, Note_on_c, 0, 86, 0
2, 189352, Note_on_c, 0, 55, 0
2, 189353, Note_on_c, 0, 79, 0
2, 189369, Note_on_c, 0, 74, 0
2, 189644, Note_on_c, 0, 78, 74
2, 189645, Note_on_c, 0, 52, 71
2, 189648, Note_on_c, 0, 55, 64
2, 189649, Note_on_c, 0, 83, 81
2, 189649, Note_on_c, 0, 59, 60
2, 189650, Note_on_c, 0, 71, 76
2, 189651, Note_on_c, 0, 62, 62
2, 189652, Note_on_c, 0, 75, 65
2, 189672, Note_on_c, 0, 75, 0
2, 189683, Control_c, 0, 64, 127
2, 189727, Note_on_c, 0, 81, 13
2, 189764, Note_on_c, 0, 79, 24
2, 189779, Note_on_c, 0, 78, 0
2, 189789, Note_on_c, 0, 79, 0
2, 189808, Note_on_c, 0, 71, 0
2, 189810, Note_on_c, 0, 83, 0
2, 189812, Note_on_c, 0, 81, 0
2, 189849, Note_on_c, 0, 62, 0
2, 189853, Note_on_c, 0, 52, 0
2, 189855, Note_on_c, 0, 59, 0
2, 189858, Note_on_c, 0, 55, 0
2, 189969, Control_c, 0, 64, 0
2, 190025, Note_on_c, 0, 79, 72
2, 190029, Note_on_c, 0, 52, 71
2, 190031, Note_on_c, 0, 74, 70
2, 190032, Note_on_c, 0, 55, 66
2, 190033, Note_on_c, 0, 59, 65
2, 190035, Note_on_c, 0, 67, 64
2, 190038, Note_on_c, 0, 62, 66
2, 190121, Note_on_c, 0, 67, 0
2, 190127, Note_on_c, 0, 52, 0
2, 190127, Note_on_c, 0, 62, 0
2, 190133, Note_on_c, 0, 55, 0
2, 190151, Note_on_c, 0, 59, 0
2, 190153, Note_on_c, 0, 74, 0
2, 190155, Note_on_c, 0, 79, 0
2, 190178, Control_c, 0, 64, 127
2, 190362, Control_c, 0, 64, 0
2, 190407, Note_on_c, 0, 73, 87
2, 190408, Note_on_c, 0, 69, 94
2, 190409, Note_on_c, 0, 61, 75
2, 190409, Note_on_c, 0, 77, 74
2, 190410, Note_on_c, 0, 81, 80
2, 190412, Note_on_c, 0, 60, 81
2, 190412, Note_on_c, 0, 65, 84
2, 190413, Note_on_c, 0, 55, 80
2, 190424, Note_on_c, 0, 79, 47
2, 190432, Note_on_c, 0, 58, 31
2, 190448, Note_on_c, 0, 79, 0
2, 190459, Note_on_c, 0, 58, 0
2, 190655, Control_c, 0, 64, 127
2, 190810, Note_on_c, 0, 69, 0
2, 190814, Note_on_c, 0, 77, 0
2, 190816, Note_on_c, 0, 73, 0
2, 190842, Note_on_c, 0, 81, 0
2, 190846, Note_on_c, 0, 60, 0
2, 190850, Note_on_c, 0, 65, 0
2, 190865, Note_on_c, 0, 55, 0
2, 190908, Control_c, 0, 64, 127
2, 190921, Note_on_c, 0, 61, 0
2, 191042, Note_on_c, 0, 83, 80
2, 191045, Note_on_c, 0, 78, 67
2, 191048, Note_on_c, 0, 71, 72
2, 191050, Note_on_c, 0, 76, 73
2, 191054, Note_on_c, 0, 65, 79
2, 191055, Control_c, 0, 64, 0
2, 191057, Note_on_c, 0, 58, 60
2, 191058, Note_on_c, 0, 54, 76
2, 191059, Note_on_c, 0, 60, 73
2, 191292, Note_on_c, 0, 83, 0
2, 191318, Note_on_c, 0, 65, 0
2, 191328, Note_on_c, 0, 76, 0
2, 191337, Note_on_c, 0, 60, 0
2, 191351, Note_on_c, 0, 78, 0
2, 191377, Note_on_c, 0, 58, 0
2, 191381, Note_on_c, 0, 71, 0
2, 191392, Note_on_c, 0, 54, 0
2, 191676, Control_c, 0, 64, 0
2, 191933, Note_on_c, 0, 43, 48
2, 191935, Note_on_c, 0, 62, 54
2, 191942, Note_on_c, 0, 55, 53
2, 191951, Note_on_c, 0, 59, 45
2, 192011, Note_on_c, 0, 55, 0
2, 192033, Note_on_c, 0, 43, 0
2, 192040, Note_on_c, 0, 59, 0
2, 192081, Note_on_c, 0, 62, 0
2, 192335, Note_on_c, 0, 64, 47
2, 192341, Note_on_c, 0, 55, 45
2, 192344, Note_on_c, 0, 43, 30
2, 192347, Note_on_c, 0, 59, 48
2, 192358, Note_on_c, 0, 50, 24
2, 192400, Note_on_c, 0, 55, 0
2, 192401, Note_on_c, 0, 43, 0
2, 192466, Note_on_c, 0, 59, 0
2, 192475, Note_on_c, 0, 50, 0
2, 192482, Note_on_c, 0, 64, 0
2, 192982, Note_on_c, 0, 63, 82
2, 192983, Note_on_c, 0, 67, 81
2, 192986, Note_on_c, 0, 59, 85
2, 192988, Note_on_c, 0, 53, 66
2, 192992, Note_on_c, 0, 49, 58
2, 193100, Control_c, 0, 64, 127
2, 193266, Note_on_c, 0, 59, 0
2, 193281, Note_on_c, 0, 53, 0
2, 193363, Note_on_c, 0, 63, 0
2, 193368, Note_on_c, 0, 67, 0
2, 193380, Note_on_c, 0, 49, 0
2, 193423, Control_c, 0, 64, 0
2, 193487, Note_on_c, 0, 67, 40
2, 193495, Note_on_c, 0, 64, 46
2, 193499, Note_on_c, 0, 48, 45
2, 193500, Note_on_c, 0, 60, 43
2, 193500, Note_on_c, 0, 55, 37
2, 193875, Note_on_c, 0, 55, 0
2, 193888, Control_c, 0, 64, 127
2, 193917, Note_on_c, 0, 48, 0
2, 193919, Note_on_c, 0, 60, 0
2, 193990, Note_on_c, 0, 67, 0
2, 194004, Note_on_c, 0, 64, 0
2, 194118, Note_on_c, 0, 49, 71
2, 194123, Note_on_c, 0, 67, 68
2, 194125, Note_on_c, 0, 57, 74
2, 194126, Note_on_c, 0, 64, 68
2, 194131, Note_on_c, 0, 50, 81
2, 194132, Note_on_c, 0, 60, 80
2, 194138, Control_c, 0, 64, 0
2, 194175, Note_on_c, 0, 49, 0
2, 194268, Note_on_c, 0, 50, 0
2, 194306, Control_c, 0, 64, 127
2, 194511, Note_on_c, 0, 37, 93
2, 194556, Control_c, 0, 64, 0
2, 194646, Note_on_c, 0, 37, 0
2, 194646, Note_on_c, 0, 38, 72
2, 194861, Note_on_c, 0, 38, 0
2, 194883, Note_on_c, 0, 57, 0
2, 194886, Note_on_c, 0, 31, 96
2, 194892, Note_on_c, 0, 60, 0
2, 194902, Note_on_c, 0, 64, 0
2, 194929, Note_on_c, 0, 67, 0
2, 194968, Control_c, 0, 64, 127
2, 195035, Note_on_c, 0, 31, 0
2, 195269, Note_on_c, 0, 50, 61
2, 195276, Note_on_c, 0, 62, 54
2, 195283, Note_on_c, 0, 55, 51
2, 195287, Note_on_c, 0, 59, 47
2, 195333, Note_on_c, 0, 55, 0
2, 195350, Control_c, 0, 64, 0
2, 195353, Note_on_c, 0, 59, 0
2, 195356, Note_on_c, 0, 62, 0
2, 195359, Note_on_c, 0, 50, 0
2, 195398, Note_on_c, 0, 59, 40
2, 195399, Note_on_c, 0, 52, 54
2, 195400, Note_on_c, 0, 55, 37
2, 195407, Note_on_c, 0, 64, 47
2, 195448, Note_on_c, 0, 55, 0
2, 195509, Note_on_c, 0, 64, 0
2, 195514, Note_on_c, 0, 59, 0
2, 195515, Note_on_c, 0, 52, 0
2, 195790, Note_on_c, 0, 67, 46
2, 195793, Note_on_c, 0, 58, 36
2, 195794, Note_on_c, 0, 63, 45
2, 195799, Note_on_c, 0, 59, 25
2, 195800, Note_on_c, 0, 53, 37
2, 195825, Note_on_c, 0, 49, 29
2, 195888, Note_on_c, 0, 67, 0
2, 195895, Note_on_c, 0, 58, 0
2, 195901, Note_on_c, 0, 63, 0
2, 195912, Note_on_c, 0, 53, 0
2, 195918, Note_on_c, 0, 59, 0
2, 195936, Note_on_c, 0, 49, 0
2, 196170, Note_on_c, 0, 63, 49
2, 196174, Note_on_c, 0, 59, 38
2, 196176, Note_on_c, 0, 58, 38
2, 196186, Note_on_c, 0, 49, 31
2, 196187, Note_on_c, 0, 53, 35
2, 196189, Note_on_c, 0, 67, 25
2, 196268, Note_on_c, 0, 67, 0
2, 196286, Note_on_c, 0, 53, 0
2, 196288, Note_on_c, 0, 59, 0
2, 196299, Note_on_c, 0, 58, 0
2, 196319, Note_on_c, 0, 63, 0
2, 196358, Note_on_c, 0, 49, 0
2, 196567, Note_on_c, 0, 67, 43
2, 196569, Note_on_c, 0, 62, 53
2, 196574, Note_on_c, 0, 55, 40
2, 196577, Note_on_c, 0, 48, 36
2, 196619, Note_on_c, 0, 55, 0
2, 196663, Note_on_c, 0, 48, 0
2, 196751, Note_on_c, 0, 62, 0
2, 196758, Note_on_c, 0, 67, 0
2, 196814, Note_on_c, 0, 48, 64
2, 196894, Note_on_c, 0, 48, 0
2, 196958, Note_on_c, 0, 49, 30
2, 197063, Control_c, 0, 64, 127
2, 197190, Note_on_c, 0, 49, 0
2, 197194, Control_c, 0, 64, 0
2, 197194, Note_on_c, 0, 67, 37
2, 197195, Note_on_c, 0, 55, 51
2, 197196, Note_on_c, 0, 50, 60
2, 197197, Note_on_c, 0, 60, 61
2, 197206, Note_on_c, 0, 64, 39
2, 197221, Note_on_c, 0, 55, 0
2, 197249, Note_on_c, 0, 60, 0
2, 197264, Note_on_c, 0, 64, 0
2, 197274, Note_on_c, 0, 67, 0
2, 197455, Note_on_c, 0, 74, 81
2, 197459, Note_on_c, 0, 70, 81
2, 197518, Note_on_c, 0, 70, 0
2, 197531, Note_on_c, 0, 74, 0
2, 197542, Note_on_c, 0, 50, 0
2, 197563, Note_on_c, 0, 74, 51
2, 197572, Note_on_c, 0, 69, 69
2, 197616, Note_on_c, 0, 74, 0
2, 197633, Note_on_c, 0, 69, 0
2, 197688, Note_on_c, 0, 67, 60
2, 197774, Note_on_c, 0, 67, 0
2, 197813, Note_on_c, 0, 62, 47
2, 197877, Note_on_c, 0, 62, 0
2, 197940, Note_on_c, 0, 67, 50
2, 197947, Note_on_c, 0, 60, 61
2, 198024, Note_on_c, 0, 60, 0
2, 198035, Note_on_c, 0, 67, 0
2, 198313, Note_on_c, 0, 59, 43
2, 198328, Note_on_c, 0, 55, 32
2, 198331, Note_on_c, 0, 43, 44
2, 198357, Control_c, 0, 64, 127
2, 198365, Note_on_c, 0, 50, 24
2, 198368, Note_on_c, 0, 55, 0
2, 198393, Note_on_c, 0, 50, 0
2, 198399, Control_c, 0, 64, 0
2, 198413, Note_on_c, 0, 59, 0
2, 198428, Note_on_c, 0, 43, 0
2, 198439, Note_on_c, 0, 62, 55
2, 198445, Note_on_c, 0, 55, 40
2, 198451, Note_on_c, 0, 59, 22
2, 198483, Note_on_c, 0, 55, 0
2, 198520, Note_on_c, 0, 59, 0
2, 198520, Note_on_c, 0, 62, 0
2, 198723, Note_on_c, 0, 64, 62
2, 198749, Note_on_c, 0, 64, 0
2, 198751, Control_c, 0, 64, 127
2, 198760, Note_on_c, 0, 52, 26
2, 198784, Note_on_c, 0, 52, 0
2, 198823, Control_c, 0, 64, 0
2, 198865, Note_on_c, 0, 67, 62
2, 198869, Note_on_c, 0, 58, 74
2, 198878, Note_on_c, 0, 63, 56
2, 198889, Note_on_c, 0, 61, 33
2, 198909, Note_on_c, 0, 61, 0
2, 198920, Note_on_c, 0, 58, 0
2, 198953, Note_on_c, 0, 67, 0
2, 198955, Note_on_c, 0, 63, 0
2, 199246, Note_on_c, 0, 59, 37
2, 199247, Note_on_c, 0, 63, 51
2, 199250, Note_on_c, 0, 58, 50
2, 199256, Note_on_c, 0, 53, 37
2, 199257, Note_on_c, 0, 49, 34
2, 199264, Note_on_c, 0, 67, 32
2, 199314, Note_on_c, 0, 67, 0
2, 199337, Note_on_c, 0, 53, 0
2, 199354, Note_on_c, 0, 59, 0
2, 199358, Note_on_c, 0, 58, 0
2, 199381, Note_on_c, 0, 63, 0
2, 199397, Note_on_c, 0, 49, 0
2, 199657, Note_on_c, 0, 64, 37
2, 199657, Note_on_c, 0, 67, 36
2, 199663, Note_on_c, 0, 60, 48
2, 199665, Note_on_c, 0, 55, 38
2, 199669, Note_on_c, 0, 48, 39
2, 199759, Note_on_c, 0, 55, 0
2, 199771, Note_on_c, 0, 60, 0
2, 199779, Note_on_c, 0, 48, 0
2, 199806, Note_on_c, 0, 64, 0
2, 199816, Note_on_c, 0, 67, 0
2, 200058, Control_c, 0, 64, 127
2, 200339, Control_c, 0, 64, 0
2, 200386, Control_c, 0, 64, 127
2, 200714, Control_c, 0, 64, 0
2, 200751, Control_c, 0, 64, 127
2, 200791, Note_on_c, 0, 54, 20
2, 200791, Note_on_c, 0, 58, 27
2, 200793, Note_on_c, 0, 66, 31
2, 200797, Note_on_c, 0, 61, 37
2, 200808, Note_on_c, 0, 63, 28
2, 200827, Note_on_c, 0, 56, 53
2, 200839, Note_on_c, 0, 54, 0
2, 200853, Note_on_c, 0, 56, 0
2, 200878, Note_on_c, 0, 63, 0
2, 200879, Note_on_c, 0, 61, 0
2, 200910, Note_on_c, 0, 66, 0
2, 200921, Note_on_c, 0, 58, 0
2, 201013, Control_c, 0, 64, 0
2, 201034, Note_on_c, 0, 59, 62
2, 201034, Note_on_c, 0, 57, 62
2, 201037, Note_on_c, 0, 67, 55
2, 201045, Note_on_c, 0, 55, 46
2, 201047, Note_on_c, 0, 62, 47
2, 201060, Note_on_c, 0, 57, 0
2, 201060, Note_on_c, 0, 59, 0
2, 201063, Note_on_c, 0, 64, 29
2, 201069, Note_on_c, 0, 55, 0
2, 201072, Note_on_c, 0, 62, 0
2, 201088, Note_on_c, 0, 64, 0
2, 201103, Note_on_c, 0, 67, 0
2, 201947, Note_on_c, 0, 103, 68
2, 201952, Note_on_c, 0, 88, 54
2, 201954, Note_on_c, 0, 93, 46
2, 201957, Note_on_c, 0, 96, 63
2, 202045, Note_on_c, 0, 88, 0
2, 202049, Note_on_c, 0, 96, 0
2, 202057, Note_on_c, 0, 93, 0
2, 202066, Note_on_c, 0, 103, 0
2, 202720, Note_on_c, 0, 88, 64
2, 202724, Note_on_c, 0, 103, 74
2, 202724, Note_on_c, 0, 94, 67
2, 202729, Note_on_c, 0, 97, 63
2, 202823, Note_on_c, 0, 88, 0
2, 202827, Note_on_c, 0, 97, 0
2, 202834, Note_on_c, 0, 94, 0
2, 202842, Note_on_c, 0, 103, 0
2, 203339, Note_on_c, 0, 88, 69
2, 203340, Note_on_c, 0, 103, 80
2, 203343, Note_on_c, 0, 95, 75
2, 203346, Note_on_c, 0, 98, 75
2, 203650, Control_c, 0, 64, 127
2, 203670, Note_on_c, 0, 88, 0
2, 204015, Note_on_c, 0, 31, 47
2, 204311, Note_on_c, 0, 98, 0
2, 204314, Note_on_c, 0, 95, 0
2, 204318, Note_on_c, 0, 103, 0
2, 204637, Note_on_c, 0, 31, 0
2, 204637, End_track
3, 0, Start_track
3, 0, MIDI_port, 0
3, 0, Title_t, ""
3, 0, Program_c, 1, 32
3, 0, Control_c, 1, 7, 110
3, 1476, Note_on_c, 1, 43, 54
3, 1861, Note_on_c, 1, 43, 0
3, 1889, Note_on_c, 1, 38, 37
3, 2242, Note_on_c, 1, 38, 0
3, 2264, Note_on_c, 1, 35, 46
3, 2601, Note_on_c, 1, 35, 0
3, 2643, Note_on_c, 1, 33, 40
3, 3009, Note_on_c, 1, 33, 0
3, 3022, Note_on_c, 1, 31, 55
3, 3407, Note_on_c, 1, 38, 57
3, 3414, Note_on_c, 1, 31, 0
3, 3784, Note_on_c, 1, 38, 0
3, 3786, Note_on_c, 1, 50, 95
3, 4078, Note_on_c, 1, 38, 22
3, 4101, Note_on_c, 1, 38, 0
3, 4112, Note_on_c, 1, 50, 0
3, 4162, Note_on_c, 1, 47, 66
3, 4430, Note_on_c, 1, 38, 44
3, 4454, Note_on_c, 1, 38, 0
3, 4500, Note_on_c, 1, 47, 0
3, 4545, Note_on_c, 1, 48, 68
3, 4813, Note_on_c, 1, 38, 34
3, 4839, Note_on_c, 1, 38, 0
3, 4895, Note_on_c, 1, 48, 0
3, 4911, Note_on_c, 1, 42, 57
3, 5221, Note_on_c, 1, 36, 26
3, 5244, Note_on_c, 1, 36, 0
3, 5270, Note_on_c, 1, 42, 0
3, 5293, Note_on_c, 1, 46, 54
3, 5565, Note_on_c, 1, 36, 45
3, 5588, Note_on_c, 1, 36, 0
3, 5688, Note_on_c, 1, 40, 44
3, 5691, Note_on_c, 1, 46, 0
3, 5792, Note_on_c, 1, 40, 0
3, 5961, Note_on_c, 1, 34, 59
3, 6040, Note_on_c, 1, 34, 0
3, 6077, Note_on_c, 1, 35, 49
3, 6459, Note_on_c, 1, 35, 0
3, 6463, Note_on_c, 1, 38, 58
3, 6492, Note_on_c, 1, 38, 0
3, 6719, Note_on_c, 1, 35, 44
3, 6749, Note_on_c, 1, 35, 0
3, 6823, Note_on_c, 1, 39, 69
3, 7196, Note_on_c, 1, 39, 0
3, 7222, Note_on_c, 1, 42, 59
3, 7510, Note_on_c, 1, 39, 47
3, 7531, Note_on_c, 1, 39, 0
3, 7575, Note_on_c, 1, 42, 0
3, 7630, Note_on_c, 1, 43, 48
3, 7986, Note_on_c, 1, 43, 0
3, 8024, Note_on_c, 1, 47, 52
3, 8280, Note_on_c, 1, 40, 46
3, 8326, Note_on_c, 1, 40, 0
3, 8338, Note_on_c, 1, 47, 0
3, 8390, Note_on_c, 1, 52, 72
3, 8719, Note_on_c, 1, 52, 0
3, 8788, Note_on_c, 1, 51, 45
3, 9131, Note_on_c, 1, 51, 0
3, 9151, Note_on_c, 1, 50, 60
3, 9538, Note_on_c, 1, 50, 0
3, 9538, Note_on_c, 1, 47, 48
3, 9916, Note_on_c, 1, 43, 42
3, 10003, Note_on_c, 1, 47, 0
3, 10185, Note_on_c, 1, 36, 69
3, 10236, Note_on_c, 1, 36, 0
3, 10249, Note_on_c, 1, 43, 0
3, 10296, Note_on_c, 1, 34, 45
3, 10674, Note_on_c, 1, 33, 55
3, 10678, Note_on_c, 1, 34, 0
3, 11042, Note_on_c, 1, 33, 0
3, 11070, Note_on_c, 1, 33, 39
3, 11438, Note_on_c, 1, 33, 0
3, 11463, Note_on_c, 1, 35, 55
3, 11814, Note_on_c, 1, 35, 0
3, 11854, Note_on_c, 1, 35, 78
3, 12208, Note_on_c, 1, 35, 0
3, 12236, Note_on_c, 1, 36, 66
3, 12582, Note_on_c, 1, 36, 0
3, 12614, Note_on_c, 1, 36, 71
3, 12969, Note_on_c, 1, 36, 0
3, 12993, Note_on_c, 1, 37, 74
3, 13345, Note_on_c, 1, 37, 0
3, 13372, Note_on_c, 1, 37, 67
3, 13661, Note_on_c, 1, 34, 30
3, 13698, Note_on_c, 1, 37, 0
3, 13750, Note_on_c, 1, 38, 68
3, 13753, Note_on_c, 1, 34, 0
3, 14159, Note_on_c, 1, 35, 55
3, 14161, Note_on_c, 1, 38, 0
3, 14442, Note_on_c, 1, 38, 41
3, 14483, Note_on_c, 1, 35, 0
3, 14519, Note_on_c, 1, 38, 0
3, 14539, Note_on_c, 1, 47, 81
3, 14834, Note_on_c, 1, 35, 33
3, 14880, Note_on_c, 1, 35, 0
3, 14884, Note_on_c, 1, 47, 0
3, 14916, Note_on_c, 1, 42, 44
3, 15179, Note_on_c, 1, 39, 42
3, 15252, Note_on_c, 1, 42, 0
3, 15267, Note_on_c, 1, 39, 0
3, 15287, Note_on_c, 1, 40, 51
3, 15557, Note_on_c, 1, 39, 44
3, 15647, Note_on_c, 1, 40, 0
3, 15655, Note_on_c, 1, 39, 0
3, 15668, Note_on_c, 1, 54, 86
3, 15924, Note_on_c, 1, 39, 31
3, 15970, Note_on_c, 1, 39, 0
3, 16198, Note_on_c, 1, 54, 0
3, 16202, Note_on_c, 1, 52, 55
3, 16252, Note_on_c, 1, 52, 0
3, 16313, Note_on_c, 1, 47, 49
3, 16432, Note_on_c, 1, 47, 0
3, 16454, Note_on_c, 1, 42, 67
3, 16724, Note_on_c, 1, 39, 44
3, 16769, Note_on_c, 1, 39, 0
3, 16791, Note_on_c, 1, 42, 0
3, 16840, Note_on_c, 1, 45, 59
3, 16869, Note_on_c, 1, 45, 0
3, 16969, Note_on_c, 1, 40, 50
3, 17005, Note_on_c, 1, 40, 0
3, 17086, Note_on_c, 1, 37, 57
3, 17197, Note_on_c, 1, 37, 0
3, 17212, Note_on_c, 1, 34, 59
3, 17583, Note_on_c, 1, 33, 52
3, 17604, Note_on_c, 1, 34, 0
3, 17962, Note_on_c, 1, 33, 0
3, 17970, Note_on_c, 1, 39, 72
3, 18300, Note_on_c, 1, 34, 14
3, 18314, Note_on_c, 1, 39, 0
3, 18374, Note_on_c, 1, 34, 0
3, 18374, Note_on_c, 1, 38, 57
3, 18640, Note_on_c, 1, 37, 43
3, 18679, Note_on_c, 1, 38, 0
3, 18717, Note_on_c, 1, 37, 0
3, 18747, Note_on_c, 1, 44, 69
3, 19107, Note_on_c, 1, 44, 0
3, 19127, Note_on_c, 1, 50, 66
3, 19391, Note_on_c, 1, 50, 0
3, 19403, Note_on_c, 1, 37, 31
3, 19452, Note_on_c, 1, 37, 0
3, 19506, Note_on_c, 1, 42, 48
3, 19917, Note_on_c, 1, 42, 0
3, 19926, Note_on_c, 1, 43, 60
3, 19947, Note_on_c, 1, 43, 0
3, 20047, Note_on_c, 1, 38, 55
3, 20121, Note_on_c, 1, 38, 0
3, 20151, Note_on_c, 1, 30, 69
3, 20245, Note_on_c, 1, 30, 0
3, 20276, Note_on_c, 1, 31, 72
3, 20641, Note_on_c, 1, 31, 0
3, 20677, Note_on_c, 1, 34, 62
3, 20746, Note_on_c, 1, 34, 0
3, 20750, Note_on_c, 1, 35, 70
3, 21028, Note_on_c, 1, 35, 0
3, 21060, Note_on_c, 1, 35, 70
3, 21330, Note_on_c, 1, 34, 38
3, 21410, Note_on_c, 1, 34, 0
3, 21412, Note_on_c, 1, 35, 0
3, 21437, Note_on_c, 1, 36, 66
3, 21762, Note_on_c, 1, 34, 37
3, 21773, Note_on_c, 1, 36, 0
3, 21819, Note_on_c, 1, 36, 72
3, 21860, Note_on_c, 1, 34, 0
3, 22167, Note_on_c, 1, 36, 0
3, 22192, Note_on_c, 1, 37, 55
3, 22527, Note_on_c, 1, 37, 0
3, 22569, Note_on_c, 1, 37, 64
3, 22890, Note_on_c, 1, 34, 28
3, 22958, Note_on_c, 1, 37, 0
3, 22976, Note_on_c, 1, 38, 52
3, 22989, Note_on_c, 1, 34, 0
3, 23266, Note_on_c, 1, 37, 45
3, 23318, Note_on_c, 1, 38, 0
3, 23347, Note_on_c, 1, 37, 0
3, 23370, Note_on_c, 1, 51, 90
3, 23410, Note_on_c, 1, 50, 67
3, 23531, Note_on_c, 1, 50, 0
3, 23743, Note_on_c, 1, 51, 0
3, 23753, Note_on_c, 1, 50, 57
3, 24009, Note_on_c, 1, 37, 54
3, 24032, Note_on_c, 1, 50, 0
3, 24115, Note_on_c, 1, 37, 0
3, 24123, Note_on_c, 1, 38, 66
3, 24394, Note_on_c, 1, 37, 42
3, 24441, Note_on_c, 1, 38, 0
3, 24457, Note_on_c, 1, 37, 0
3, 24503, Note_on_c, 1, 51, 75
3, 24866, Note_on_c, 1, 51, 0
3, 24874, Note_on_c, 1, 50, 71
3, 25180, Note_on_c, 1, 37, 14
3, 25216, Note_on_c, 1, 37, 0
3, 25246, Note_on_c, 1, 50, 0
3, 25257, Note_on_c, 1, 38, 61
3, 25521, Note_on_c, 1, 37, 31
3, 25533, Note_on_c, 1, 38, 0
3, 25542, Note_on_c, 1, 37, 0
3, 25636, Note_on_c, 1, 32, 62
3, 26018, Note_on_c, 1, 32, 0
3, 26048, Note_on_c, 1, 31, 44
3, 26446, Note_on_c, 1, 31, 0
3, 26448, Note_on_c, 1, 45, 63
3, 26813, Note_on_c, 1, 45, 0
3, 26847, Note_on_c, 1, 43, 30
3, 27113, Note_on_c, 1, 38, 34
3, 27145, Note_on_c, 1, 38, 0
3, 27151, Note_on_c, 1, 43, 0
3, 27222, Note_on_c, 1, 51, 58
3, 27590, Note_on_c, 1, 51, 0
3, 27603, Note_on_c, 1, 50, 58
3, 27972, Note_on_c, 1, 50, 0
3, 27978, Note_on_c, 1, 47, 47
3, 28336, Note_on_c, 1, 47, 0
3, 28358, Note_on_c, 1, 43, 34
3, 28731, Note_on_c, 1, 43, 0
3, 28742, Note_on_c, 1, 34, 44
3, 28975, Note_on_c, 1, 34, 0
3, 29009, Note_on_c, 1, 35, 53
3, 29094, Note_on_c, 1, 35, 0
3, 29130, Note_on_c, 1, 36, 37
3, 29415, Note_on_c, 1, 34, 32
3, 29471, Note_on_c, 1, 36, 0
3, 29504, Note_on_c, 1, 34, 0
3, 29509, Note_on_c, 1, 48, 52
3, 29789, Note_on_c, 1, 34, 18
3, 29818, Note_on_c, 1, 34, 0
3, 29867, Note_on_c, 1, 48, 0
3, 29902, Note_on_c, 1, 55, 54
3, 30158, Note_on_c, 1, 34, 36
3, 30181, Note_on_c, 1, 34, 0
3, 30226, Note_on_c, 1, 55, 0
3, 30274, Note_on_c, 1, 48, 48
3, 30607, Note_on_c, 1, 48, 0
3, 30639, Note_on_c, 1, 47, 33
3, 30926, Note_on_c, 1, 39, 40
3, 30948, Note_on_c, 1, 39, 0
3, 31009, Note_on_c, 1, 47, 0
3, 31033, Note_on_c, 1, 54, 82
3, 31410, Note_on_c, 1, 42, 49
3, 31453, Note_on_c, 1, 54, 0
3, 31795, Note_on_c, 1, 39, 42
3, 31799, Note_on_c, 1, 42, 0
3, 32165, Note_on_c, 1, 39, 0
3, 32184, Note_on_c, 1, 40, 35
3, 32455, Note_on_c, 1, 52, 77
3, 32495, Note_on_c, 1, 40, 0
3, 32534, Note_on_c, 1, 52, 0
3, 32583, Note_on_c, 1, 50, 54
3, 32690, Note_on_c, 1, 52, 26
3, 32752, Note_on_c, 1, 52, 0
3, 32856, Note_on_c, 1, 39, 30
3, 32914, Note_on_c, 1, 39, 0
3, 32918, Note_on_c, 1, 50, 0
3, 32964, Note_on_c, 1, 47, 40
3, 33221, Note_on_c, 1, 39, 25
3, 33243, Note_on_c, 1, 39, 0
3, 33294, Note_on_c, 1, 47, 0
3, 33336, Note_on_c, 1, 45, 51
3, 33689, Note_on_c, 1, 45, 0
3, 33738, Note_on_c, 1, 43, 40
3, 33924, Note_on_c, 1, 43, 0
3, 34012, Note_on_c, 1, 39, 62
3, 34105, Note_on_c, 1, 39, 0
3, 34143, Note_on_c, 1, 40, 42
3, 34497, Note_on_c, 1, 40, 0
3, 34521, Note_on_c, 1, 35, 42
3, 34839, Note_on_c, 1, 35, 0
3, 34872, Note_on_c, 1, 34, 56
3, 35261, Note_on_c, 1, 34, 0
3, 35273, Note_on_c, 1, 33, 57
3, 35662, Note_on_c, 1, 35, 77
3, 35680, Note_on_c, 1, 33, 0
3, 36043, Note_on_c, 1, 35, 0
3, 36050, Note_on_c, 1, 36, 66
3, 36427, Note_on_c, 1, 36, 0
3, 36440, Note_on_c, 1, 37, 60
3, 36714, Note_on_c, 1, 34, 31
3, 36797, Note_on_c, 1, 34, 0
3, 36819, Note_on_c, 1, 46, 55
3, 36829, Note_on_c, 1, 37, 0
3, 37083, Note_on_c, 1, 40, 48
3, 37111, Note_on_c, 1, 40, 0
3, 37198, Note_on_c, 1, 46, 0
3, 37199, Note_on_c, 1, 43, 58
3, 37458, Note_on_c, 1, 40, 41
3, 37491, Note_on_c, 1, 40, 0
3, 37565, Note_on_c, 1, 43, 0
3, 37568, Note_on_c, 1, 52, 64
3, 37928, Note_on_c, 1, 52, 0
3, 37981, Note_on_c, 1, 49, 49
3, 38317, Note_on_c, 1, 49, 0
3, 38353, Note_on_c, 1, 47, 47
3, 38711, Note_on_c, 1, 47, 0
3, 38745, Note_on_c, 1, 43, 37
3, 39114, Note_on_c, 1, 43, 0
3, 39136, Note_on_c, 1, 50, 50
3, 39499, Note_on_c, 1, 50, 0
3, 39522, Note_on_c, 1, 47, 48
3, 39869, Note_on_c, 1, 47, 0
3, 39888, Note_on_c, 1, 52, 66
3, 40230, Note_on_c, 1, 52, 0
3, 40271, Note_on_c, 1, 46, 55
3, 40523, Note_on_c, 1, 39, 28
3, 40545, Note_on_c, 1, 39, 0
3, 40623, Note_on_c, 1, 46, 0
3, 40673, Note_on_c, 1, 45, 36
3, 41012, Note_on_c, 1, 45, 0
3, 41044, Note_on_c, 1, 43, 37
3, 41291, Note_on_c, 1, 43, 0
3, 41296, Note_on_c, 1, 34, 45
3, 41400, Note_on_c, 1, 34, 0
3, 41404, Note_on_c, 1, 33, 47
3, 41708, Note_on_c, 1, 34, 33
3, 41766, Note_on_c, 1, 33, 0
3, 41782, Note_on_c, 1, 34, 0
3, 41805, Note_on_c, 1, 40, 59
3, 42160, Note_on_c, 1, 40, 0
3, 42185, Note_on_c, 1, 37, 50
3, 42569, Note_on_c, 1, 37, 0
3, 42569, Note_on_c, 1, 39, 60
3, 42922, Note_on_c, 1, 39, 0
3, 42954, Note_on_c, 1, 38, 55
3, 43222, Note_on_c, 1, 37, 42
3, 43306, Note_on_c, 1, 38, 0
3, 43333, Note_on_c, 1, 54, 77
3, 43344, Note_on_c, 1, 37, 0
3, 43695, Note_on_c, 1, 54, 0
3, 43712, Note_on_c, 1, 50, 56
3, 44009, Note_on_c, 1, 50, 0
3, 44084, Note_on_c, 1, 42, 52
3, 44365, Note_on_c, 1, 39, 29
3, 44455, Note_on_c, 1, 39, 0
3, 44457, Note_on_c, 1, 42, 0
3, 44494, Note_on_c, 1, 43, 48
3, 44567, Note_on_c, 1, 43, 0
3, 44605, Note_on_c, 1, 38, 57
3, 44629, Note_on_c, 1, 38, 0
3, 44726, Note_on_c, 1, 34, 60
3, 44843, Note_on_c, 1, 34, 0
3, 44866, Note_on_c, 1, 35, 60
3, 45240, Note_on_c, 1, 35, 0
3, 45257, Note_on_c, 1, 38, 61
3, 45627, Note_on_c, 1, 35, 65
3, 45655, Note_on_c, 1, 38, 0
3, 45911, Note_on_c, 1, 34, 31
3, 46002, Note_on_c, 1, 35, 0
3, 46016, Note_on_c, 1, 34, 0
3, 46020, Note_on_c, 1, 36, 63
3, 46311, Note_on_c, 1, 34, 37
3, 46322, Note_on_c, 1, 36, 0
3, 46414, Note_on_c, 1, 36, 67
3, 46454, Note_on_c, 1, 34, 0
3, 46786, Note_on_c, 1, 37, 57
3, 46788, Note_on_c, 1, 36, 0
3, 47137, Note_on_c, 1, 37, 0
3, 47173, Note_on_c, 1, 37, 51
3, 47453, Note_on_c, 1, 34, 28
3, 47549, Note_on_c, 1, 37, 0
3, 47566, Note_on_c, 1, 38, 47
3, 47855, Note_on_c, 1, 37, 46
3, 47864, Note_on_c, 1, 38, 0
3, 47928, Note_on_c, 1, 34, 0
3, 47938, Note_on_c, 1, 38, 71
3, 47946, Note_on_c, 1, 37, 0
3, 48304, Note_on_c, 1, 38, 0
3, 48319, Note_on_c, 1, 37, 60
3, 48653, Note_on_c, 1, 37, 0
3, 48699, Note_on_c, 1, 37, 55
3, 49072, Note_on_c, 1, 37, 0
3, 49079, Note_on_c, 1, 36, 58
3, 49437, Note_on_c, 1, 36, 0
3, 49476, Note_on_c, 1, 36, 67
3, 49815, Note_on_c, 1, 36, 0
3, 49843, Note_on_c, 1, 35, 54
3, 50111, Note_on_c, 1, 35, 0
3, 50114, Note_on_c, 1, 47, 81
3, 50183, Note_on_c, 1, 47, 0
3, 50239, Note_on_c, 1, 39, 53
3, 50592, Note_on_c, 1, 39, 0
3, 50602, Note_on_c, 1, 40, 58
3, 50857, Note_on_c, 1, 39, 39
3, 50923, Note_on_c, 1, 40, 0
3, 50958, Note_on_c, 1, 39, 0
3, 50983, Note_on_c, 1, 52, 75
3, 51338, Note_on_c, 1, 52, 0
3, 51383, Note_on_c, 1, 52, 71
3, 51736, Note_on_c, 1, 52, 0
3, 51762, Note_on_c, 1, 40, 43
3, 52056, Note_on_c, 1, 37, 25
3, 52105, Note_on_c, 1, 37, 0
3, 52144, Note_on_c, 1, 40, 0
3, 52169, Note_on_c, 1, 54, 81
3, 52523, Note_on_c, 1, 54, 0
3, 52553, Note_on_c, 1, 52, 48
3, 52836, Note_on_c, 1, 39, 38
3, 52897, Note_on_c, 1, 39, 0
3, 52923, Note_on_c, 1, 52, 0
3, 52943, Note_on_c, 1, 40, 37
3, 53257, Note_on_c, 1, 40, 0
3, 53309, Note_on_c, 1, 40, 59
3, 53552, Note_on_c, 1, 40, 0
3, 53587, Note_on_c, 1, 34, 44
3, 53701, Note_on_c, 1, 33, 53
3, 53702, Note_on_c, 1, 34, 0
3, 54094, Note_on_c, 1, 40, 55
3, 54111, Note_on_c, 1, 33, 0
3, 54350, Note_on_c, 1, 33, 47
3, 54419, Note_on_c, 1, 40, 0
3, 54443, Note_on_c, 1, 33, 0
3, 54483, Note_on_c, 1, 45, 44
3, 54859, Note_on_c, 1, 45, 0
3, 54873, Note_on_c, 1, 39, 53
3, 55238, Note_on_c, 1, 39, 0
3, 55260, Note_on_c, 1, 40, 46
3, 55507, Note_on_c, 1, 39, 42
3, 55548, Note_on_c, 1, 40, 0
3, 55580, Note_on_c, 1, 39, 0
3, 55622, Note_on_c, 1, 52, 88
3, 55883, Note_on_c, 1, 39, 29
3, 55905, Note_on_c, 1, 39, 0
3, 55981, Note_on_c, 1, 52, 0
3, 56015, Note_on_c, 1, 47, 43
3, 56215, Note_on_c, 1, 47, 0
3, 56265, Note_on_c, 1, 43, 42
3, 56316, Note_on_c, 1, 43, 0
3, 56388, Note_on_c, 1, 40, 49
3, 56772, Note_on_c, 1, 40, 0
3, 56791, Note_on_c, 1, 30, 37
3, 57052, Note_on_c, 1, 40, 36
3, 57086, Note_on_c, 1, 40, 0
3, 57121, Note_on_c, 1, 30, 0
3, 57153, Note_on_c, 1, 47, 66
3, 57870, Note_on_c, 1, 47, 0
3, 57933, Note_on_c, 1, 47, 66
3, 58575, Note_on_c, 1, 35, 56
3, 58601, Note_on_c, 1, 35, 0
3, 58606, Note_on_c, 1, 47, 0
3, 58679, Note_on_c, 1, 47, 70
3, 59334, Note_on_c, 1, 35, 50
3, 59368, Note_on_c, 1, 35, 0
3, 59373, Note_on_c, 1, 47, 0
3, 59438, Note_on_c, 1, 47, 55
3, 59824, Note_on_c, 1, 47, 0
3, 59842, Note_on_c, 1, 48, 64
3, 60212, Note_on_c, 1, 48, 0
3, 60230, Note_on_c, 1, 43, 52
3, 60618, Note_on_c, 1, 43, 0
3, 60620, Note_on_c, 1, 36, 50
3, 60984, Note_on_c, 1, 36, 0
3, 61005, Note_on_c, 1, 48, 78
3, 61451, Note_on_c, 1, 48, 0
3, 61572, Note_on_c, 1, 47, 80
3, 61618, Note_on_c, 1, 47, 0
3, 61682, Note_on_c, 1, 42, 74
3, 61750, Note_on_c, 1, 42, 0
3, 61807, Note_on_c, 1, 35, 58
3, 62105, Note_on_c, 1, 35, 0
3, 62162, Note_on_c, 1, 33, 63
3, 62498, Note_on_c, 1, 33, 0
3, 62546, Note_on_c, 1, 39, 70
3, 62797, Note_on_c, 1, 34, 33
3, 62831, Note_on_c, 1, 39, 0
3, 62909, Note_on_c, 1, 40, 49
3, 62931, Note_on_c, 1, 34, 0
3, 63187, Note_on_c, 1, 37, 21
3, 63295, Note_on_c, 1, 37, 0
3, 63296, Note_on_c, 1, 47, 60
3, 63318, Note_on_c, 1, 40, 0
3, 63563, Note_on_c, 1, 40, 36
3, 63606, Note_on_c, 1, 40, 0
3, 63671, Note_on_c, 1, 47, 0
3, 63699, Note_on_c, 1, 48, 50
3, 64033, Note_on_c, 1, 48, 0
3, 64087, Note_on_c, 1, 48, 73
3, 64429, Note_on_c, 1, 48, 0
3, 64468, Note_on_c, 1, 49, 59
3, 64764, Note_on_c, 1, 40, 35
3, 64797, Note_on_c, 1, 40, 0
3, 64801, Note_on_c, 1, 49, 0
3, 64856, Note_on_c, 1, 49, 62
3, 65135, Note_on_c, 1, 40, 24
3, 65164, Note_on_c, 1, 40, 0
3, 65208, Note_on_c, 1, 49, 0
3, 65235, Note_on_c, 1, 48, 62
3, 65520, Note_on_c, 1, 40, 32
3, 65550, Note_on_c, 1, 40, 0
3, 65584, Note_on_c, 1, 48, 0
3, 65622, Note_on_c, 1, 47, 57
3, 65701, Note_on_c, 1, 47, 0
3, 65860, Note_on_c, 1, 46, 64
3, 65958, Note_on_c, 1, 46, 0
3, 65990, Note_on_c, 1, 45, 45
3, 66237, Note_on_c, 1, 40, 50
3, 66279, Note_on_c, 1, 45, 0
3, 66326, Note_on_c, 1, 40, 0
3, 66359, Note_on_c, 1, 36, 57
3, 66731, Note_on_c, 1, 36, 0
3, 66744, Note_on_c, 1, 40, 51
3, 67118, Note_on_c, 1, 40, 0
3, 67119, Note_on_c, 1, 39, 60
3, 67489, Note_on_c, 1, 39, 0
3, 67507, Note_on_c, 1, 40, 59
3, 67874, Note_on_c, 1, 40, 0
3, 67899, Note_on_c, 1, 35, 55
3, 68297, Note_on_c, 1, 47, 77
3, 68307, Note_on_c, 1, 35, 0
3, 68569, Note_on_c, 1, 35, 47
3, 68612, Note_on_c, 1, 35, 0
3, 68632, Note_on_c, 1, 47, 0
3, 68682, Note_on_c, 1, 46, 58
3, 69032, Note_on_c, 1, 46, 0
3, 69069, Note_on_c, 1, 45, 54
3, 69338, Note_on_c, 1, 40, 63
3, 69376, Note_on_c, 1, 45, 0
3, 69396, Note_on_c, 1, 40, 0
3, 69459, Note_on_c, 1, 38, 54
3, 69798, Note_on_c, 1, 38, 0
3, 69829, Note_on_c, 1, 37, 53
3, 70210, Note_on_c, 1, 34, 59
3, 70224, Note_on_c, 1, 37, 0
3, 70576, Note_on_c, 1, 34, 0
3, 70591, Note_on_c, 1, 33, 58
3, 70954, Note_on_c, 1, 33, 0
3, 70972, Note_on_c, 1, 35, 59
3, 71358, Note_on_c, 1, 36, 63
3, 71359, Note_on_c, 1, 35, 0
3, 71736, Note_on_c, 1, 36, 0
3, 71743, Note_on_c, 1, 37, 53
3, 72034, Note_on_c, 1, 34, 26
3, 72129, Note_on_c, 1, 34, 0
3, 72137, Note_on_c, 1, 37, 0
3, 72138, Note_on_c, 1, 38, 55
3, 72404, Note_on_c, 1, 37, 38
3, 72484, Note_on_c, 1, 38, 0
3, 72512, Note_on_c, 1, 51, 69
3, 72516, Note_on_c, 1, 37, 0
3, 72816, Note_on_c, 1, 37, 18
3, 72859, Note_on_c, 1, 37, 0
3, 72873, Note_on_c, 1, 51, 0
3, 72906, Note_on_c, 1, 49, 47
3, 73180, Note_on_c, 1, 37, 28
3, 73229, Note_on_c, 1, 37, 0
3, 73244, Note_on_c, 1, 49, 0
3, 73268, Note_on_c, 1, 51, 59
3, 73662, Note_on_c, 1, 51, 0
3, 73664, Note_on_c, 1, 50, 64
3, 73734, Note_on_c, 1, 50, 0
3, 73922, Note_on_c, 1, 45, 59
3, 73999, Note_on_c, 1, 45, 0
3, 74044, Note_on_c, 1, 38, 61
3, 74492, Note_on_c, 1, 38, 0
3, 74559, Note_on_c, 1, 45, 65
3, 74591, Note_on_c, 1, 45, 0
3, 74682, Note_on_c, 1, 38, 53
3, 74740, Note_on_c, 1, 38, 0
3, 74809, Note_on_c, 1, 32, 56
3, 75154, Note_on_c, 1, 32, 0
3, 75180, Note_on_c, 1, 31, 45
3, 75537, Note_on_c, 1, 31, 0
3, 75588, Note_on_c, 1, 31, 60
3, 75977, Note_on_c, 1, 31, 0
3, 75991, Note_on_c, 1, 40, 61
3, 76349, Note_on_c, 1, 40, 0
3, 76357, Note_on_c, 1, 39, 54
3, 76697, Note_on_c, 1, 39, 0
3, 76726, Note_on_c, 1, 38, 44
3, 77099, Note_on_c, 1, 38, 0
3, 77106, Note_on_c, 1, 35, 54
3, 77480, Note_on_c, 1, 35, 0
3, 77482, Note_on_c, 1, 31, 50
3, 77878, Note_on_c, 1, 35, 50
3, 77898, Note_on_c, 1, 31, 0
3, 78154, Note_on_c, 1, 34, 23
3, 78228, Note_on_c, 1, 35, 0
3, 78233, Note_on_c, 1, 34, 0
3, 78263, Note_on_c, 1, 36, 42
3, 78543, Note_on_c, 1, 34, 32
3, 78610, Note_on_c, 1, 36, 0
3, 78646, Note_on_c, 1, 34, 0
3, 78657, Note_on_c, 1, 50, 67
3, 79001, Note_on_c, 1, 50, 0
3, 79026, Note_on_c, 1, 48, 50
3, 79375, Note_on_c, 1, 48, 0
3, 79415, Note_on_c, 1, 46, 49
3, 79777, Note_on_c, 1, 46, 0
3, 79800, Note_on_c, 1, 47, 55
3, 80156, Note_on_c, 1, 47, 0
3, 80185, Note_on_c, 1, 39, 59
3, 80575, Note_on_c, 1, 39, 0
3, 80586, Note_on_c, 1, 42, 55
3, 80975, Note_on_c, 1, 39, 47
3, 80986, Note_on_c, 1, 42, 0
3, 81251, Note_on_c, 1, 37, 27
3, 81330, Note_on_c, 1, 37, 0
3, 81337, Note_on_c, 1, 39, 0
3, 81344, Note_on_c, 1, 40, 59
3, 81718, Note_on_c, 1, 42, 52
3, 81732, Note_on_c, 1, 40, 0
3, 82125, Note_on_c, 1, 42, 0
3, 82126, Note_on_c, 1, 43, 50
3, 82375, Note_on_c, 1, 42, 45
3, 82436, Note_on_c, 1, 43, 0
3, 82488, Note_on_c, 1, 42, 0
3, 82496, Note_on_c, 1, 54, 64
3, 82835, Note_on_c, 1, 54, 0
3, 82872, Note_on_c, 1, 52, 59
3, 83133, Note_on_c, 1, 43, 29
3, 83164, Note_on_c, 1, 43, 0
3, 83232, Note_on_c, 1, 52, 0
3, 83265, Note_on_c, 1, 47, 47
3, 83567, Note_on_c, 1, 47, 0
3, 83636, Note_on_c, 1, 43, 47
3, 84002, Note_on_c, 1, 43, 0
3, 84014, Note_on_c, 1, 39, 56
3, 84269, Note_on_c, 1, 37, 25
3, 84383, Note_on_c, 1, 39, 0
3, 84399, Note_on_c, 1, 37, 0
3, 84399, Note_on_c, 1, 40, 53
3, 84746, Note_on_c, 1, 40, 0
3, 84790, Note_on_c, 1, 40, 72
3, 85149, Note_on_c, 1, 40, 0
3, 85174, Note_on_c, 1, 35, 54
3, 85514, Note_on_c, 1, 35, 0
3, 85563, Note_on_c, 1, 35, 64
3, 85855, Note_on_c, 1, 40, 41
3, 85884, Note_on_c, 1, 40, 0
3, 85940, Note_on_c, 1, 35, 0
3, 85961, Note_on_c, 1, 47, 68
3, 86311, Note_on_c, 1, 47, 0
3, 86336, Note_on_c, 1, 44, 55
3, 86588, Note_on_c, 1, 37, 33
3, 86685, Note_on_c, 1, 44, 0
3, 86692, Note_on_c, 1, 37, 0
3, 86724, Note_on_c, 1, 40, 52
3, 87088, Note_on_c, 1, 40, 0
3, 87110, Note_on_c, 1, 34, 75
3, 87487, Note_on_c, 1, 33, 63
3, 87490, Note_on_c, 1, 34, 0
3, 87867, Note_on_c, 1, 35, 70
3, 87900, Note_on_c, 1, 33, 0
3, 88262, Note_on_c, 1, 35, 0
3, 88269, Note_on_c, 1, 36, 68
3, 88534, Note_on_c, 1, 34, 32
3, 88635, Note_on_c, 1, 36, 0
3, 88644, Note_on_c, 1, 40, 49
3, 88673, Note_on_c, 1, 34, 0
3, 88921, Note_on_c, 1, 36, 46
3, 88987, Note_on_c, 1, 40, 0
3, 89025, Note_on_c, 1, 50, 80
3, 89027, Note_on_c, 1, 36, 0
3, 89389, Note_on_c, 1, 50, 0
3, 89410, Note_on_c, 1, 48, 59
3, 89774, Note_on_c, 1, 48, 0
3, 89798, Note_on_c, 1, 47, 60
3, 90173, Note_on_c, 1, 47, 0
3, 90190, Note_on_c, 1, 49, 56
3, 90474, Note_on_c, 1, 41, 22
3, 90501, Note_on_c, 1, 41, 0
3, 90579, Note_on_c, 1, 49, 0
3, 90587, Note_on_c, 1, 50, 63
3, 90954, Note_on_c, 1, 38, 64
3, 91303, Note_on_c, 1, 38, 0
3, 91352, Note_on_c, 1, 38, 72
3, 91365, Note_on_c, 1, 50, 0
3, 91623, Note_on_c, 1, 39, 61
3, 91654, Note_on_c, 1, 38, 0
3, 91700, Note_on_c, 1, 39, 0
3, 91748, Note_on_c, 1, 40, 64
3, 92004, Note_on_c, 1, 39, 30
3, 92087, Note_on_c, 1, 39, 0
3, 92120, Note_on_c, 1, 51, 71
3, 92123, Note_on_c, 1, 40, 0
3, 92472, Note_on_c, 1, 51, 0
3, 92495, Note_on_c, 1, 49, 50
3, 92873, Note_on_c, 1, 49, 0
3, 92878, Note_on_c, 1, 50, 59
3, 93120, Note_on_c, 1, 45, 55
3, 93160, Note_on_c, 1, 45, 0
3, 93239, Note_on_c, 1, 38, 57
3, 93563, Note_on_c, 1, 50, 0
3, 93574, Note_on_c, 1, 38, 0
3, 93610, Note_on_c, 1, 35, 65
3, 93979, Note_on_c, 1, 35, 0
3, 94016, Note_on_c, 1, 35, 71
3, 94391, Note_on_c, 1, 35, 0
3, 94407, Note_on_c, 1, 38, 57
3, 94766, Note_on_c, 1, 38, 0
3, 94781, Note_on_c, 1, 37, 60
3, 95094, Note_on_c, 1, 34, 29
3, 95133, Note_on_c, 1, 37, 0
3, 95160, Note_on_c, 1, 34, 0
3, 95167, Note_on_c, 1, 36, 51
3, 95424, Note_on_c, 1, 34, 34
3, 95519, Note_on_c, 1, 36, 0
3, 95556, Note_on_c, 1, 43, 64
3, 95581, Note_on_c, 1, 34, 0
3, 95922, Note_on_c, 1, 43, 0
3, 95947, Note_on_c, 1, 38, 55
3, 96215, Note_on_c, 1, 37, 47
3, 96270, Note_on_c, 1, 38, 0
3, 96294, Note_on_c, 1, 37, 0
3, 96331, Note_on_c, 1, 50, 68
3, 96686, Note_on_c, 1, 50, 0
3, 96735, Note_on_c, 1, 43, 42
3, 96978, Note_on_c, 1, 43, 0
3, 96978, Note_on_c, 1, 38, 65
3, 97060, Note_on_c, 1, 38, 0
3, 97090, Note_on_c, 1, 31, 63
3, 97389, Note_on_c, 1, 38, 22
3, 97435, Note_on_c, 1, 38, 0
3, 97769, Note_on_c, 1, 38, 46
3, 97787, Note_on_c, 1, 31, 0
3, 97793, Note_on_c, 1, 38, 0
3, 97877, Note_on_c, 1, 50, 78
3, 98532, Note_on_c, 1, 38, 89
3, 98555, Note_on_c, 1, 50, 0
3, 99168, Note_on_c, 1, 33, 58
3, 99202, Note_on_c, 1, 38, 0
3, 99257, Note_on_c, 1, 33, 0
3, 99296, Note_on_c, 1, 32, 77
3, 99355, Note_on_c, 1, 32, 0
3, 99432, Note_on_c, 1, 31, 51
3, 99662, Note_on_c, 1, 42, 60
3, 99664, Note_on_c, 1, 31, 0
3, 99714, Note_on_c, 1, 30, 69
3, 99725, Note_on_c, 1, 42, 0
3, 99754, Note_on_c, 1, 29, 27
3, 99778, Note_on_c, 1, 29, 0
3, 99785, Note_on_c, 1, 30, 0
3, 99791, Note_on_c, 1, 43, 48
3, 99804, Note_on_c, 1, 29, 24
3, 100107, Note_on_c, 1, 29, 0
3, 100111, Note_on_c, 1, 43, 0
3, 100148, Note_on_c, 1, 38, 39
3, 100505, Note_on_c, 1, 38, 0
3, 100530, Note_on_c, 1, 35, 49
3, 100816, Note_on_c, 1, 38, 39
3, 100823, Note_on_c, 1, 35, 0
3, 100848, Note_on_c, 1, 38, 0
3, 100917, Note_on_c, 1, 47, 58
3, 101211, Note_on_c, 1, 38, 34
3, 101244, Note_on_c, 1, 38, 0
3, 101287, Note_on_c, 1, 47, 0
3, 101320, Note_on_c, 1, 52, 64
3, 101695, Note_on_c, 1, 52, 0
3, 101709, Note_on_c, 1, 50, 53
3, 102067, Note_on_c, 1, 50, 0
3, 102080, Note_on_c, 1, 47, 50
3, 102457, Note_on_c, 1, 47, 0
3, 102465, Note_on_c, 1, 37, 55
3, 102857, Note_on_c, 1, 36, 50
3, 102864, Note_on_c, 1, 37, 0
3, 103239, Note_on_c, 1, 48, 115
3, 103247, Note_on_c, 1, 36, 0
3, 103757, Note_on_c, 1, 48, 0
3, 103759, Note_on_c, 1, 43, 55
3, 103789, Note_on_c, 1, 43, 0
3, 103882, Note_on_c, 1, 36, 68
3, 103931, Note_on_c, 1, 36, 0
3, 104009, Note_on_c, 1, 35, 72
3, 104368, Note_on_c, 1, 47, 88
3, 104403, Note_on_c, 1, 35, 0
3, 104486, Note_on_c, 1, 48, 48
3, 104594, Note_on_c, 1, 48, 0
3, 104692, Note_on_c, 1, 47, 0
3, 104741, Note_on_c, 1, 42, 53
3, 105134, Note_on_c, 1, 42, 0
3, 105142, Note_on_c, 1, 39, 45
3, 105454, Note_on_c, 1, 39, 0
3, 105483, Note_on_c, 1, 34, 60
3, 105669, Note_on_c, 1, 34, 0
3, 105740, Note_on_c, 1, 35, 60
3, 105837, Note_on_c, 1, 35, 0
3, 105866, Note_on_c, 1, 40, 64
3, 106233, Note_on_c, 1, 40, 0
3, 106260, Note_on_c, 1, 35, 48
3, 106579, Note_on_c, 1, 40, 34
3, 106602, Note_on_c, 1, 35, 0
3, 106616, Note_on_c, 1, 40, 0
3, 106684, Note_on_c, 1, 47, 66
3, 107047, Note_on_c, 1, 47, 0
3, 107082, Note_on_c, 1, 43, 39
3, 107428, Note_on_c, 1, 43, 0
3, 107466, Note_on_c, 1, 40, 36
3, 107826, Note_on_c, 1, 40, 0
3, 107844, Note_on_c, 1, 34, 50
3, 108205, Note_on_c, 1, 34, 0
3, 108228, Note_on_c, 1, 35, 34
3, 108563, Note_on_c, 1, 35, 0
3, 108592, Note_on_c, 1, 34, 57
3, 108977, Note_on_c, 1, 34, 0
3, 108987, Note_on_c, 1, 33, 46
3, 109222, Note_on_c, 1, 33, 0
3, 109249, Note_on_c, 1, 44, 83
3, 109351, Note_on_c, 1, 44, 0
3, 109382, Note_on_c, 1, 45, 55
3, 109597, Note_on_c, 1, 45, 0
3, 109651, Note_on_c, 1, 42, 33
3, 109728, Note_on_c, 1, 42, 0
3, 109786, Note_on_c, 1, 43, 40
3, 110039, Note_on_c, 1, 39, 33
3, 110070, Note_on_c, 1, 43, 0
3, 110102, Note_on_c, 1, 39, 0
3, 110154, Note_on_c, 1, 40, 44
3, 110482, Note_on_c, 1, 40, 0
3, 110530, Note_on_c, 1, 37, 37
3, 110808, Note_on_c, 1, 34, 34
3, 110876, Note_on_c, 1, 34, 0
3, 110896, Note_on_c, 1, 37, 0
3, 110918, Note_on_c, 1, 46, 65
3, 111196, Note_on_c, 1, 40, 24
3, 111223, Note_on_c, 1, 40, 0
3, 111277, Note_on_c, 1, 46, 0
3, 111289, Note_on_c, 1, 43, 41
3, 111537, Note_on_c, 1, 40, 46
3, 111568, Note_on_c, 1, 40, 0
3, 111631, Note_on_c, 1, 43, 0
3, 111661, Note_on_c, 1, 52, 49
3, 111909, Note_on_c, 1, 42, 40
3, 111931, Note_on_c, 1, 42, 0
3, 112009, Note_on_c, 1, 52, 0
3, 112042, Note_on_c, 1, 47, 48
3, 112411, Note_on_c, 1, 47, 0
3, 112443, Note_on_c, 1, 38, 54
3, 112804, Note_on_c, 1, 38, 0
3, 112829, Note_on_c, 1, 35, 53
3, 113186, Note_on_c, 1, 35, 0
3, 113220, Note_on_c, 1, 47, 71
3, 113485, Note_on_c, 1, 39, 51
3, 113513, Note_on_c, 1, 47, 0
3, 113586, Note_on_c, 1, 39, 0
3, 113618, Note_on_c, 1, 40, 38
3, 113866, Note_on_c, 1, 39, 49
3, 113907, Note_on_c, 1, 40, 0
3, 113936, Note_on_c, 1, 39, 0
3, 114255, Note_on_c, 1, 40, 56
3, 114287, Note_on_c, 1, 40, 0
3, 114373, Note_on_c, 1, 52, 80
3, 114601, Note_on_c, 1, 52, 0
3, 114619, Note_on_c, 1, 47, 64
3, 114690, Note_on_c, 1, 47, 0
3, 114739, Note_on_c, 1, 43, 44
3, 114867, Note_on_c, 1, 43, 0
3, 114985, Note_on_c, 1, 44, 56
3, 114992, Note_on_c, 1, 39, 31
3, 115031, Note_on_c, 1, 39, 0
3, 115069, Note_on_c, 1, 44, 0
3, 115118, Note_on_c, 1, 45, 49
3, 115234, Note_on_c, 1, 45, 0
3, 115385, Note_on_c, 1, 42, 62
3, 115469, Note_on_c, 1, 42, 0
3, 115517, Note_on_c, 1, 43, 36
3, 115758, Note_on_c, 1, 39, 51
3, 115778, Note_on_c, 1, 43, 0
3, 115847, Note_on_c, 1, 39, 0
3, 115888, Note_on_c, 1, 40, 41
3, 116134, Note_on_c, 1, 40, 0
3, 116149, Note_on_c, 1, 36, 24
3, 116216, Note_on_c, 1, 36, 0
3, 116280, Note_on_c, 1, 37, 48
3, 116536, Note_on_c, 1, 34, 25
3, 116635, Note_on_c, 1, 37, 0
3, 116651, Note_on_c, 1, 38, 48
3, 116653, Note_on_c, 1, 34, 0
3, 116750, Note_on_c, 1, 38, 0
3, 116783, Note_on_c, 1, 52, 44
3, 116822, Note_on_c, 1, 52, 0
3, 116885, Note_on_c, 1, 51, 61
3, 116991, Note_on_c, 1, 51, 0
3, 117024, Note_on_c, 1, 50, 58
3, 117295, Note_on_c, 1, 38, 41
3, 117321, Note_on_c, 1, 38, 0
3, 117368, Note_on_c, 1, 50, 0
3, 117422, Note_on_c, 1, 45, 36
3, 117653, Note_on_c, 1, 38, 37
3, 117679, Note_on_c, 1, 38, 0
3, 117774, Note_on_c, 1, 45, 0
3, 117821, Note_on_c, 1, 42, 50
3, 117855, Note_on_c, 1, 42, 0
3, 118077, Note_on_c, 1, 34, 60
3, 118154, Note_on_c, 1, 34, 0
3, 118200, Note_on_c, 1, 35, 54
3, 118542, Note_on_c, 1, 35, 0
3, 118593, Note_on_c, 1, 35, 54
3, 118959, Note_on_c, 1, 35, 0
3, 118976, Note_on_c, 1, 37, 53
3, 119306, Note_on_c, 1, 37, 0
3, 119359, Note_on_c, 1, 37, 63
3, 119696, Note_on_c, 1, 37, 0
3, 119732, Note_on_c, 1, 36, 60
3, 120047, Note_on_c, 1, 35, 32
3, 120084, Note_on_c, 1, 35, 0
3, 120092, Note_on_c, 1, 36, 0
3, 120124, Note_on_c, 1, 48, 85
3, 120472, Note_on_c, 1, 48, 0
3, 120499, Note_on_c, 1, 47, 55
3, 120852, Note_on_c, 1, 47, 0
3, 120868, Note_on_c, 1, 42, 50
3, 121215, Note_on_c, 1, 42, 0
3, 121249, Note_on_c, 1, 43, 47
3, 121645, Note_on_c, 1, 43, 0
3, 121648, Note_on_c, 1, 38, 52
3, 122055, Note_on_c, 1, 38, 0
3, 122061, Note_on_c, 1, 37, 55
3, 122432, Note_on_c, 1, 37, 0
3, 122438, Note_on_c, 1, 40, 54
3, 122720, Note_on_c, 1, 37, 37
3, 122726, Note_on_c, 1, 40, 0
3, 122821, Note_on_c, 1, 37, 0
3, 122821, Note_on_c, 1, 38, 50
3, 123076, Note_on_c, 1, 37, 34
3, 123146, Note_on_c, 1, 38, 0
3, 123177, Note_on_c, 1, 37, 0
3, 123182, Note_on_c, 1, 52, 76
3, 123538, Note_on_c, 1, 52, 0
3, 123565, Note_on_c, 1, 50, 55
3, 123923, Note_on_c, 1, 50, 0
3, 123936, Note_on_c, 1, 44, 44
3, 124301, Note_on_c, 1, 44, 0
3, 124322, Note_on_c, 1, 43, 43
3, 124560, Note_on_c, 1, 43, 0
3, 124598, Note_on_c, 1, 37, 52
3, 124669, Note_on_c, 1, 37, 0
3, 124705, Note_on_c, 1, 38, 46
3, 125040, Note_on_c, 1, 38, 0
3, 125067, Note_on_c, 1, 35, 52
3, 125423, Note_on_c, 1, 35, 0
3, 125446, Note_on_c, 1, 30, 57
3, 125830, Note_on_c, 1, 30, 0
3, 125872, Note_on_c, 1, 31, 55
3, 126262, Note_on_c, 1, 31, 0
3, 126268, Note_on_c, 1, 35, 55
3, 126647, Note_on_c, 1, 35, 0
3, 126663, Note_on_c, 1, 38, 49
3, 126936, Note_on_c, 1, 34, 48
3, 127002, Note_on_c, 1, 38, 0
3, 127033, Note_on_c, 1, 34, 0
3, 127044, Note_on_c, 1, 49, 75
3, 127389, Note_on_c, 1, 49, 0
3, 127449, Note_on_c, 1, 48, 24
3, 127758, Note_on_c, 1, 48, 0
3, 127800, Note_on_c, 1, 43, 48
3, 128174, Note_on_c, 1, 43, 0
3, 128183, Note_on_c, 1, 36, 55
3, 128458, Note_on_c, 1, 43, 41
3, 128486, Note_on_c, 1, 43, 0
3, 128543, Note_on_c, 1, 36, 0
3, 128575, Note_on_c, 1, 48, 89
3, 128929, Note_on_c, 1, 48, 0
3, 128962, Note_on_c, 1, 47, 50
3, 129311, Note_on_c, 1, 47, 0
3, 129345, Note_on_c, 1, 39, 48
3, 129709, Note_on_c, 1, 39, 0
3, 129710, Note_on_c, 1, 35, 47
3, 129967, Note_on_c, 1, 39, 44
3, 130011, Note_on_c, 1, 39, 0
3, 130016, Note_on_c, 1, 35, 0
3, 130079, Note_on_c, 1, 42, 57
3, 130131, Note_on_c, 1, 42, 0
3, 130336, Note_on_c, 1, 51, 68
3, 130352, Note_on_c, 1, 39, 23
3, 130377, Note_on_c, 1, 39, 0
3, 130437, Note_on_c, 1, 51, 0
3, 130476, Note_on_c, 1, 52, 36
3, 130730, Note_on_c, 1, 52, 0
3, 130744, Note_on_c, 1, 49, 47
3, 130835, Note_on_c, 1, 49, 0
3, 130868, Note_on_c, 1, 50, 66
3, 131094, Note_on_c, 1, 50, 0
3, 131131, Note_on_c, 1, 46, 33
3, 131207, Note_on_c, 1, 46, 0
3, 131260, Note_on_c, 1, 47, 45
3, 131309, Note_on_c, 1, 47, 0
3, 131526, Note_on_c, 1, 42, 55
3, 131625, Note_on_c, 1, 42, 0
3, 131658, Note_on_c, 1, 43, 39
3, 131876, Note_on_c, 1, 43, 0
3, 131901, Note_on_c, 1, 39, 52
3, 131990, Note_on_c, 1, 39, 0
3, 132029, Note_on_c, 1, 40, 40
3, 132311, Note_on_c, 1, 40, 0
3, 132321, Note_on_c, 1, 34, 64
3, 132394, Note_on_c, 1, 34, 0
3, 132440, Note_on_c, 1, 35, 41
3, 132769, Note_on_c, 1, 35, 0
3, 132799, Note_on_c, 1, 40, 49
3, 133057, Note_on_c, 1, 35, 22
3, 133103, Note_on_c, 1, 35, 0
3, 133142, Note_on_c, 1, 40, 0
3, 133161, Note_on_c, 1, 43, 50
3, 133365, Note_on_c, 1, 43, 0
3, 133415, Note_on_c, 1, 44, 55
3, 133502, Note_on_c, 1, 44, 0
3, 133554, Note_on_c, 1, 45, 28
3, 133814, Note_on_c, 1, 40, 36
3, 133840, Note_on_c, 1, 40, 0
3, 133899, Note_on_c, 1, 45, 0
3, 133927, Note_on_c, 1, 52, 56
3, 134287, Note_on_c, 1, 52, 0
3, 134324, Note_on_c, 1, 49, 39
3, 134557, Note_on_c, 1, 40, 43
3, 134584, Note_on_c, 1, 40, 0
3, 134704, Note_on_c, 1, 49, 0
3, 134713, Note_on_c, 1, 45, 41
3, 135053, Note_on_c, 1, 45, 0
3, 135085, Note_on_c, 1, 46, 55
3, 135453, Note_on_c, 1, 46, 0
3, 135462, Note_on_c, 1, 43, 48
3, 135833, Note_on_c, 1, 43, 0
3, 135863, Note_on_c, 1, 40, 43
3, 136128, Note_on_c, 1, 37, 53
3, 136151, Note_on_c, 1, 40, 0
3, 136189, Note_on_c, 1, 37, 0
3, 136243, Note_on_c, 1, 34, 56
3, 136580, Note_on_c, 1, 34, 0
3, 136612, Note_on_c, 1, 35, 54
3, 136907, Note_on_c, 1, 34, 21
3, 136985, Note_on_c, 1, 34, 0
3, 137006, Note_on_c, 1, 35, 0
3, 137025, Note_on_c, 1, 43, 43
3, 137299, Note_on_c, 1, 35, 41
3, 137334, Note_on_c, 1, 35, 0
3, 137403, Note_on_c, 1, 43, 0
3, 137411, Note_on_c, 1, 47, 51
3, 137765, Note_on_c, 1, 47, 0
3, 137792, Note_on_c, 1, 39, 69
3, 138163, Note_on_c, 1, 39, 0
3, 138187, Note_on_c, 1, 40, 49
3, 138433, Note_on_c, 1, 39, 42
3, 138481, Note_on_c, 1, 40, 0
3, 138501, Note_on_c, 1, 39, 0
3, 138556, Note_on_c, 1, 52, 89
3, 138918, Note_on_c, 1, 52, 0
3, 138940, Note_on_c, 1, 47, 57
3, 139177, Note_on_c, 1, 47, 0
3, 139193, Note_on_c, 1, 43, 58
3, 139232, Note_on_c, 1, 43, 0
3, 139301, Note_on_c, 1, 34, 46
3, 139680, Note_on_c, 1, 34, 0
3, 139700, Note_on_c, 1, 33, 52
3, 140060, Note_on_c, 1, 33, 0
3, 140074, Note_on_c, 1, 37, 71
3, 140442, Note_on_c, 1, 37, 0
3, 140466, Note_on_c, 1, 40, 60
3, 140804, Note_on_c, 1, 40, 0
3, 140827, Note_on_c, 1, 39, 54
3, 141195, Note_on_c, 1, 39, 0
3, 141206, Note_on_c, 1, 38, 48
3, 141481, Note_on_c, 1, 47, 89
3, 141509, Note_on_c, 1, 38, 0
3, 141592, Note_on_c, 1, 47, 0
3, 141613, Note_on_c, 1, 48, 54
3, 141849, Note_on_c, 1, 48, 0
3, 141889, Note_on_c, 1, 46, 25
3, 141993, Note_on_c, 1, 46, 0
3, 142015, Note_on_c, 1, 47, 53
3, 142253, Note_on_c, 1, 47, 0
3, 142277, Note_on_c, 1, 42, 43
3, 142299, Note_on_c, 1, 42, 0
3, 142410, Note_on_c, 1, 45, 54
3, 142643, Note_on_c, 1, 45, 0
3, 142644, Note_on_c, 1, 37, 28
3, 142665, Note_on_c, 1, 42, 35
3, 142666, Note_on_c, 1, 37, 0
3, 142735, Note_on_c, 1, 42, 0
3, 142791, Note_on_c, 1, 43, 35
3, 142850, Note_on_c, 1, 43, 0
3, 143050, Note_on_c, 1, 38, 48
3, 143095, Note_on_c, 1, 38, 0
3, 143158, Note_on_c, 1, 35, 59
3, 143685, Note_on_c, 1, 43, 64
3, 143708, Note_on_c, 1, 43, 0
3, 143719, Note_on_c, 1, 35, 0
3, 143798, Note_on_c, 1, 38, 51
3, 143860, Note_on_c, 1, 38, 0
3, 143922, Note_on_c, 1, 37, 64
3, 144266, Note_on_c, 1, 37, 0
3, 144299, Note_on_c, 1, 36, 74
3, 144703, Note_on_c, 1, 48, 74
3, 144719, Note_on_c, 1, 36, 0
3, 144996, Note_on_c, 1, 38, 30
3, 145028, Note_on_c, 1, 38, 0
3, 145046, Note_on_c, 1, 48, 0
3, 145081, Note_on_c, 1, 47, 54
3, 145348, Note_on_c, 1, 38, 51
3, 145373, Note_on_c, 1, 38, 0
3, 145387, Note_on_c, 1, 47, 0
3, 145462, Note_on_c, 1, 42, 37
3, 145838, Note_on_c, 1, 42, 0
3, 145875, Note_on_c, 1, 43, 41
3, 146235, Note_on_c, 1, 38, 55
3, 146542, Note_on_c, 1, 37, 20
3, 146606, Note_on_c, 1, 43, 0
3, 146609, Note_on_c, 1, 37, 0
3, 146643, Note_on_c, 1, 49, 49
3, 146647, Note_on_c, 1, 38, 0
3, 147013, Note_on_c, 1, 37, 47
3, 147037, Note_on_c, 1, 49, 0
3, 147399, Note_on_c, 1, 37, 0
3, 147405, Note_on_c, 1, 36, 61
3, 147662, Note_on_c, 1, 38, 55
3, 147710, Note_on_c, 1, 38, 0
3, 147734, Note_on_c, 1, 36, 0
3, 147772, Note_on_c, 1, 48, 71
3, 148152, Note_on_c, 1, 48, 0
3, 148157, Note_on_c, 1, 47, 44
3, 148182, Note_on_c, 1, 47, 0
3, 148295, Note_on_c, 1, 40, 50
3, 148352, Note_on_c, 1, 40, 0
3, 148407, Note_on_c, 1, 34, 60
3, 148490, Note_on_c, 1, 34, 0
3, 148541, Note_on_c, 1, 35, 63
3, 148678, Note_on_c, 1, 35, 0
3, 148790, Note_on_c, 1, 39, 67
3, 148870, Note_on_c, 1, 39, 0
3, 148906, Note_on_c, 1, 40, 53
3, 149235, Note_on_c, 1, 39, 34
3, 149285, Note_on_c, 1, 39, 0
3, 149294, Note_on_c, 1, 40, 0
3, 149309, Note_on_c, 1, 42, 47
3, 149647, Note_on_c, 1, 42, 0
3, 149674, Note_on_c, 1, 43, 48
3, 149947, Note_on_c, 1, 40, 31
3, 149980, Note_on_c, 1, 40, 0
3, 150036, Note_on_c, 1, 43, 0
3, 150063, Note_on_c, 1, 52, 60
3, 150428, Note_on_c, 1, 52, 0
3, 150456, Note_on_c, 1, 50, 54
3, 150839, Note_on_c, 1, 47, 50
3, 151028, Note_on_c, 1, 50, 0
3, 151158, Note_on_c, 1, 47, 0
3, 151223, Note_on_c, 1, 43, 50
3, 151423, Note_on_c, 1, 43, 0
3, 151478, Note_on_c, 1, 40, 54
3, 151551, Note_on_c, 1, 40, 0
3, 151598, Note_on_c, 1, 34, 51
3, 151983, Note_on_c, 1, 33, 54
3, 151987, Note_on_c, 1, 34, 0
3, 152371, Note_on_c, 1, 33, 0
3, 152379, Note_on_c, 1, 40, 55
3, 152759, Note_on_c, 1, 40, 0
3, 152760, Note_on_c, 1, 45, 50
3, 153021, Note_on_c, 1, 40, 40
3, 153108, Note_on_c, 1, 40, 0
3, 153143, Note_on_c, 1, 52, 64
3, 153146, Note_on_c, 1, 45, 0
3, 153401, Note_on_c, 1, 40, 43
3, 153430, Note_on_c, 1, 40, 0
3, 153519, Note_on_c, 1, 52, 0
3, 153536, Note_on_c, 1, 47, 50
3, 153898, Note_on_c, 1, 47, 0
3, 153908, Note_on_c, 1, 40, 55
3, 154299, Note_on_c, 1, 40, 0
3, 154301, Note_on_c, 1, 52, 64
3, 154544, Note_on_c, 1, 52, 0
3, 154564, Note_on_c, 1, 40, 36
3, 154591, Note_on_c, 1, 40, 0
3, 154688, Note_on_c, 1, 43, 53
3, 155014, Note_on_c, 1, 43, 0
3, 155062, Note_on_c, 1, 42, 34
3, 155451, Note_on_c, 1, 42, 0
3, 155461, Note_on_c, 1, 36, 57
3, 155808, Note_on_c, 1, 36, 0
3, 155856, Note_on_c, 1, 36, 74
3, 156196, Note_on_c, 1, 36, 0
3, 156218, Note_on_c, 1, 34, 56
3, 156603, Note_on_c, 1, 34, 0
3, 156607, Note_on_c, 1, 35, 60
3, 156994, Note_on_c, 1, 47, 62
3, 157024, Note_on_c, 1, 35, 0
3, 157273, Note_on_c, 1, 35, 44
3, 157337, Note_on_c, 1, 35, 0
3, 157367, Note_on_c, 1, 47, 0
3, 157387, Note_on_c, 1, 52, 65
3, 157642, Note_on_c, 1, 35, 40
3, 157683, Note_on_c, 1, 35, 0
3, 157718, Note_on_c, 1, 52, 0
3, 157769, Note_on_c, 1, 47, 47
3, 158017, Note_on_c, 1, 39, 27
3, 158048, Note_on_c, 1, 39, 0
3, 158111, Note_on_c, 1, 47, 0
3, 158136, Note_on_c, 1, 43, 37
3, 158396, Note_on_c, 1, 39, 28
3, 158436, Note_on_c, 1, 39, 0
3, 158498, Note_on_c, 1, 43, 0
3, 158508, Note_on_c, 1, 48, 60
3, 158903, Note_on_c, 1, 48, 0
3, 158908, Note_on_c, 1, 43, 46
3, 159174, Note_on_c, 1, 36, 58
3, 159208, Note_on_c, 1, 43, 0
3, 159283, Note_on_c, 1, 36, 0
3, 159294, Note_on_c, 1, 35, 70
3, 159675, Note_on_c, 1, 47, 87
3, 159704, Note_on_c, 1, 35, 0
3, 160047, Note_on_c, 1, 47, 0
3, 160055, Note_on_c, 1, 42, 52
3, 160434, Note_on_c, 1, 39, 48
3, 160436, Note_on_c, 1, 42, 0
3, 160777, Note_on_c, 1, 39, 0
3, 160815, Note_on_c, 1, 39, 67
3, 161197, Note_on_c, 1, 39, 0
3, 161204, Note_on_c, 1, 40, 55
3, 161509, Note_on_c, 1, 39, 27
3, 161584, Note_on_c, 1, 39, 0
3, 161618, Note_on_c, 1, 40, 0
3, 161633, Note_on_c, 1, 47, 45
3, 162011, Note_on_c, 1, 47, 0
3, 162013, Note_on_c, 1, 48, 58
3, 162268, Note_on_c, 1, 40, 35
3, 162304, Note_on_c, 1, 40, 0
3, 162369, Note_on_c, 1, 48, 0
3, 162386, Note_on_c, 1, 47, 51
3, 162692, Note_on_c, 1, 39, 25
3, 162735, Note_on_c, 1, 39, 0
3, 162744, Note_on_c, 1, 47, 0
3, 162761, Note_on_c, 1, 40, 55
3, 163022, Note_on_c, 1, 39, 20
3, 163078, Note_on_c, 1, 39, 0
3, 163136, Note_on_c, 1, 47, 57
3, 163146, Note_on_c, 1, 40, 0
3, 163506, Note_on_c, 1, 47, 0
3, 163524, Note_on_c, 1, 48, 64
3, 163804, Note_on_c, 1, 42, 28
3, 163850, Note_on_c, 1, 48, 0
3, 163871, Note_on_c, 1, 42, 0
3, 163899, Note_on_c, 1, 44, 55
3, 164261, Note_on_c, 1, 44, 0
3, 164292, Note_on_c, 1, 45, 47
3, 164668, Note_on_c, 1, 45, 0
3, 164677, Note_on_c, 1, 48, 76
3, 165060, Note_on_c, 1, 48, 0
3, 165069, Note_on_c, 1, 45, 49
3, 165323, Note_on_c, 1, 38, 50
3, 165375, Note_on_c, 1, 38, 0
3, 165383, Note_on_c, 1, 45, 0
3, 165437, Note_on_c, 1, 39, 67
3, 165446, Note_on_c, 1, 37, 31
3, 165467, Note_on_c, 1, 37, 0
3, 165799, Note_on_c, 1, 39, 0
3, 165814, Note_on_c, 1, 40, 59
3, 166095, Note_on_c, 1, 39, 38
3, 166150, Note_on_c, 1, 40, 0
3, 166164, Note_on_c, 1, 39, 0
3, 166204, Note_on_c, 1, 47, 76
3, 166587, Note_on_c, 1, 47, 0
3, 166596, Note_on_c, 1, 43, 44
3, 166623, Note_on_c, 1, 43, 0
3, 166721, Note_on_c, 1, 40, 41
3, 166758, Note_on_c, 1, 40, 0
3, 166829, Note_on_c, 1, 35, 64
3, 166890, Note_on_c, 1, 35, 0
3, 166953, Note_on_c, 1, 34, 67
3, 167311, Note_on_c, 1, 34, 0
3, 167339, Note_on_c, 1, 33, 53
3, 167620, Note_on_c, 1, 34, 37
3, 167649, Note_on_c, 1, 34, 0
3, 167679, Note_on_c, 1, 33, 0
3, 167740, Note_on_c, 1, 42, 57
3, 168097, Note_on_c, 1, 42, 0
3, 168130, Note_on_c, 1, 43, 48
3, 168506, Note_on_c, 1, 39, 53
3, 168540, Note_on_c, 1, 43, 0
3, 168901, Note_on_c, 1, 51, 60
3, 168924, Note_on_c, 1, 39, 0
3, 169249, Note_on_c, 1, 51, 0
3, 169289, Note_on_c, 1, 52, 60
3, 169641, Note_on_c, 1, 52, 0
3, 169674, Note_on_c, 1, 49, 37
3, 170043, Note_on_c, 1, 44, 50
3, 170070, Note_on_c, 1, 49, 0
3, 170436, Note_on_c, 1, 44, 0
3, 170446, Note_on_c, 1, 45, 47
3, 170719, Note_on_c, 1, 44, 33
3, 170779, Note_on_c, 1, 45, 0
3, 170813, Note_on_c, 1, 44, 0
3, 170834, Note_on_c, 1, 51, 62
3, 171209, Note_on_c, 1, 39, 46
3, 171238, Note_on_c, 1, 51, 0
3, 171586, Note_on_c, 1, 49, 49
3, 171634, Note_on_c, 1, 39, 0
3, 171955, Note_on_c, 1, 49, 0
3, 171981, Note_on_c, 1, 50, 47
3, 172217, Note_on_c, 1, 50, 0
3, 172246, Note_on_c, 1, 38, 47
3, 172310, Note_on_c, 1, 38, 0
3, 172368, Note_on_c, 1, 44, 52
3, 172874, Note_on_c, 1, 38, 52
3, 172903, Note_on_c, 1, 38, 0
3, 172997, Note_on_c, 1, 32, 57
3, 173019, Note_on_c, 1, 32, 0
3, 173058, Note_on_c, 1, 44, 0
3, 173114, Note_on_c, 1, 30, 64
3, 173518, Note_on_c, 1, 31, 66
3, 173522, Note_on_c, 1, 30, 0
3, 173788, Note_on_c, 1, 38, 24
3, 173839, Note_on_c, 1, 38, 0
3, 173895, Note_on_c, 1, 45, 62
3, 173899, Note_on_c, 1, 31, 0
3, 174250, Note_on_c, 1, 45, 0
3, 174285, Note_on_c, 1, 43, 38
3, 174647, Note_on_c, 1, 43, 0
3, 174655, Note_on_c, 1, 42, 48
3, 174951, Note_on_c, 1, 39, 32
3, 175039, Note_on_c, 1, 42, 0
3, 175047, Note_on_c, 1, 39, 0
3, 175050, Note_on_c, 1, 40, 54
3, 175424, Note_on_c, 1, 40, 0
3, 175435, Note_on_c, 1, 38, 50
3, 175786, Note_on_c, 1, 38, 0
3, 175799, Note_on_c, 1, 35, 50
3, 176079, Note_on_c, 1, 38, 27
3, 176102, Note_on_c, 1, 35, 0
3, 176120, Note_on_c, 1, 38, 0
3, 176169, Note_on_c, 1, 49, 48
3, 176531, Note_on_c, 1, 49, 0
3, 176558, Note_on_c, 1, 48, 47
3, 176914, Note_on_c, 1, 48, 0
3, 176946, Note_on_c, 1, 43, 41
3, 177340, Note_on_c, 1, 36, 47
3, 177358, Note_on_c, 1, 43, 0
3, 177710, Note_on_c, 1, 36, 0
3, 177728, Note_on_c, 1, 35, 76
3, 178113, Note_on_c, 1, 47, 45
3, 178151, Note_on_c, 1, 35, 0
3, 178400, Note_on_c, 1, 35, 24
3, 178451, Note_on_c, 1, 35, 0
3, 178509, Note_on_c, 1, 59, 52
3, 178518, Note_on_c, 1, 47, 0
3, 178845, Note_on_c, 1, 59, 0
3, 178925, Note_on_c, 1, 51, 9
3, 179225, Note_on_c, 1, 51, 0
3, 179259, Note_on_c, 1, 51, 77
3, 179609, Note_on_c, 1, 51, 0
3, 179637, Note_on_c, 1, 52, 58
3, 179762, Note_on_c, 1, 52, 0
3, 179895, Note_on_c, 1, 47, 54
3, 179948, Note_on_c, 1, 47, 0
3, 180018, Note_on_c, 1, 47, 45
3, 180312, Note_on_c, 1, 42, 64
3, 180314, Note_on_c, 1, 47, 0
3, 180388, Note_on_c, 1, 42, 0
3, 180421, Note_on_c, 1, 43, 51
3, 180705, Note_on_c, 1, 43, 0
3, 180718, Note_on_c, 1, 39, 43
3, 180788, Note_on_c, 1, 39, 0
3, 180815, Note_on_c, 1, 40, 48
3, 181165, Note_on_c, 1, 40, 0
3, 181183, Note_on_c, 1, 35, 53
3, 181466, Note_on_c, 1, 40, 33
3, 181555, Note_on_c, 1, 40, 0
3, 181557, Note_on_c, 1, 35, 0
3, 181582, Note_on_c, 1, 48, 38
3, 181949, Note_on_c, 1, 48, 0
3, 181964, Note_on_c, 1, 47, 50
3, 182201, Note_on_c, 1, 43, 50
3, 182253, Note_on_c, 1, 47, 0
3, 182265, Note_on_c, 1, 43, 0
3, 182324, Note_on_c, 1, 39, 57
3, 182699, Note_on_c, 1, 39, 0
3, 182713, Note_on_c, 1, 40, 56
3, 182924, Note_on_c, 1, 40, 0
3, 182966, Note_on_c, 1, 40, 64
3, 183062, Note_on_c, 1, 40, 0
3, 183077, Note_on_c, 1, 42, 48
3, 183453, Note_on_c, 1, 42, 0
3, 183478, Note_on_c, 1, 43, 48
3, 183754, Note_on_c, 1, 40, 32
3, 183797, Note_on_c, 1, 40, 0
3, 183850, Note_on_c, 1, 43, 0
3, 183873, Note_on_c, 1, 44, 51
3, 184127, Note_on_c, 1, 40, 33
3, 184165, Note_on_c, 1, 40, 0
3, 184228, Note_on_c, 1, 44, 0
3, 184246, Note_on_c, 1, 47, 44
3, 184607, Note_on_c, 1, 47, 0
3, 184633, Note_on_c, 1, 52, 64
3, 184971, Note_on_c, 1, 52, 0
3, 185015, Note_on_c, 1, 44, 36
3, 185358, Note_on_c, 1, 44, 0
3, 185387, Note_on_c, 1, 47, 53
3, 185751, Note_on_c, 1, 47, 0
3, 185775, Note_on_c, 1, 48, 58
3, 186160, Note_on_c, 1, 48, 0
3, 186183, Note_on_c, 1, 47, 56
3, 186567, Note_on_c, 1, 47, 0
3, 186583, Note_on_c, 1, 45, 34
3, 186945, Note_on_c, 1, 45, 0
3, 186967, Note_on_c, 1, 40, 49
3, 187330, Note_on_c, 1, 40, 0
3, 187343, Note_on_c, 1, 36, 51
3, 187657, Note_on_c, 1, 36, 0
3, 187708, Note_on_c, 1, 35, 50
3, 188077, Note_on_c, 1, 35, 0
3, 188093, Note_on_c, 1, 33, 50
3, 188315, Note_on_c, 1, 33, 0
3, 188352, Note_on_c, 1, 35, 35
3, 188386, Note_on_c, 1, 35, 0
3, 188402, Note_on_c, 1, 36, 49
3, 188426, Note_on_c, 1, 36, 0
3, 188722, Note_on_c, 1, 37, 64
3, 188774, Note_on_c, 1, 37, 0
3, 188857, Note_on_c, 1, 38, 44
3, 189143, Note_on_c, 1, 37, 37
3, 189189, Note_on_c, 1, 38, 0
3, 189201, Note_on_c, 1, 37, 0
3, 189260, Note_on_c, 1, 50, 74
3, 189915, Note_on_c, 1, 38, 42
3, 189940, Note_on_c, 1, 38, 0
3, 189997, Note_on_c, 1, 50, 0
3, 190020, Note_on_c, 1, 40, 64
3, 190657, Note_on_c, 1, 37, 45
3, 190683, Note_on_c, 1, 40, 0
3, 190727, Note_on_c, 1, 37, 0
3, 190777, Note_on_c, 1, 39, 71
3, 191068, Note_on_c, 1, 37, 38
3, 191103, Note_on_c, 1, 39, 0
3, 191135, Note_on_c, 1, 37, 0
3, 191167, Note_on_c, 1, 38, 56
3, 191426, Note_on_c, 1, 33, 56
3, 191438, Note_on_c, 1, 38, 0
3, 191480, Note_on_c, 1, 33, 0
3, 191551, Note_on_c, 1, 32, 55
3, 191895, Note_on_c, 1, 32, 0
3, 191932, Note_on_c, 1, 31, 54
3, 192295, Note_on_c, 1, 31, 0
3, 192329, Note_on_c, 1, 31, 57
3, 192703, Note_on_c, 1, 35, 62
3, 192705, Note_on_c, 1, 31, 0
3, 193042, Note_on_c, 1, 35, 0
3, 193083, Note_on_c, 1, 35, 68
3, 193456, Note_on_c, 1, 35, 0
3, 193472, Note_on_c, 1, 36, 59
3, 193753, Note_on_c, 1, 34, 35
3, 193785, Note_on_c, 1, 36, 0
3, 193848, Note_on_c, 1, 34, 0
3, 193857, Note_on_c, 1, 37, 60
3, 194144, Note_on_c, 1, 34, 25
3, 194224, Note_on_c, 1, 37, 0
3, 194226, Note_on_c, 1, 34, 0
3, 194240, Note_on_c, 1, 38, 70
3, 194486, Note_on_c, 1, 38, 0
3, 194488, Note_on_c, 1, 30, 83
3, 194989, Note_on_c, 1, 30, 0
3, 195018, Note_on_c, 1, 31, 53
3, 195342, Note_on_c, 1, 31, 0
3, 195380, Note_on_c, 1, 31, 74
3, 195783, Note_on_c, 1, 31, 0
3, 195783, Note_on_c, 1, 35, 57
3, 196107, Note_on_c, 1, 35, 0
3, 196161, Note_on_c, 1, 35, 51
3, 196540, Note_on_c, 1, 35, 0
3, 196541, Note_on_c, 1, 36, 60
3, 196932, Note_on_c, 1, 36, 0
3, 196947, Note_on_c, 1, 37, 73
3, 197580, Note_on_c, 1, 34, 44
3, 197599, Note_on_c, 1, 37, 0
3, 197692, Note_on_c, 1, 38, 69
3, 197774, Note_on_c, 1, 34, 0
3, 197984, Note_on_c, 1, 37, 31
3, 198034, Note_on_c, 1, 37, 0
3, 198040, Note_on_c, 1, 38, 0
3, 198075, Note_on_c, 1, 31, 67
3, 198756, Note_on_c, 1, 34, 38
3, 198780, Note_on_c, 1, 31, 0
3, 198818, Note_on_c, 1, 34, 0
3, 198855, Note_on_c, 1, 35, 62
3, 199513, Note_on_c, 1, 34, 32
3, 199573, Note_on_c, 1, 35, 0
3, 199617, Note_on_c, 1, 34, 0
3, 199623, Note_on_c, 1, 36, 71
3, 200304, Note_on_c, 1, 34, 33
3, 200328, Note_on_c, 1, 36, 0
3, 200389, Note_on_c, 1, 34, 0
3, 200409, Note_on_c, 1, 37, 64
3, 201057, Note_on_c, 1, 34, 31
3, 201129, Note_on_c, 1, 37, 0
3, 201166, Note_on_c, 1, 34, 0
3, 201170, Note_on_c, 1, 38, 44
3, 201275, Note_on_c, 1, 38, 0
3, 201971, Note_on_c, 1, 49, 59
3, 202215, Note_on_c, 1, 50, 54
3, 202217, Note_on_c, 1, 49, 0
3, 202281, Note_on_c, 1, 50, 0
3, 202610, Note_on_c, 1, 46, 32
3, 202704, Note_on_c, 1, 46, 0
3, 202742, Note_on_c, 1, 47, 49
3, 202808, Note_on_c, 1, 47, 0
3, 202980, Note_on_c, 1, 29, 39
3, 203047, Note_on_c, 1, 29, 0
3, 203101, Note_on_c, 1, 30, 32
3, 203323, Note_on_c, 1, 30, 0
3, 203346, Note_on_c, 1, 31, 55
3, 204596, Note_on_c, 1, 31, 0
3, 204596, End_track
4, 0, Start_track
4, 0, MIDI_port, 0
4, 0, Title_t, ""
4, 0, Program_c, 2, 32
4, 0, Control_c, 2, 7, 36
4, 0, End_track
5, 0, Start_track
5, 0, MIDI_port, 0
5, 0, Title_t, ""
5, 0, Program_c, 9, 0
5, 0, Note_on_c, 9, 42, 58
5, 0, Program_c, 9, 0
5, 36, Note_on_c, 9, 42, 0
5, 349, Note_on_c, 9, 42, 49
5, 397, Note_on_c, 9, 42, 0
5, 732, Note_on_c, 9, 42, 45
5, 780, Note_on_c, 9, 42, 0
5, 1116, Note_on_c, 9, 42, 51
5, 1164, Note_on_c, 9, 42, 0
5, 1267, Note_on_c, 9, 34, 26
5, 1315, Note_on_c, 9, 34, 0
5, 1373, Note_on_c, 9, 59, 40
5, 1389, Note_on_c, 9, 34, 56
5, 1405, Note_on_c, 9, 59, 0
5, 1437, Note_on_c, 9, 34, 0
5, 1484, Note_on_c, 9, 59, 29
5, 1503, Note_on_c, 9, 46, 56
5, 1536, Note_on_c, 9, 35, 25
5, 1544, Note_on_c, 9, 35, 0
5, 1551, Note_on_c, 9, 46, 0
5, 1635, Note_on_c, 9, 59, 0
5, 1752, Note_on_c, 9, 59, 42
5, 1799, Note_on_c, 9, 59, 0
5, 1865, Note_on_c, 9, 59, 61
5, 1884, Note_on_c, 9, 44, 40
5, 1884, Note_on_c, 9, 35, 32
5, 1888, Note_on_c, 9, 44, 0
5, 1892, Note_on_c, 9, 35, 0
5, 2032, Note_on_c, 9, 59, 0
5, 2119, Note_on_c, 9, 59, 12
5, 2171, Note_on_c, 9, 59, 0
5, 2230, Note_on_c, 9, 59, 54
5, 2268, Note_on_c, 9, 35, 32
5, 2284, Note_on_c, 9, 35, 0
5, 2391, Note_on_c, 9, 59, 0
5, 2488, Note_on_c, 9, 59, 40
5, 2560, Note_on_c, 9, 59, 0
5, 2614, Note_on_c, 9, 59, 67
5, 2648, Note_on_c, 9, 35, 32
5, 2652, Note_on_c, 9, 44, 40
5, 2656, Note_on_c, 9, 35, 0
5, 2660, Note_on_c, 9, 44, 0
5, 2750, Note_on_c, 9, 59, 0
5, 2900, Note_on_c, 9, 59, 31
5, 2934, Note_on_c, 9, 59, 0
5, 3006, Note_on_c, 9, 59, 42
5, 3032, Note_on_c, 9, 35, 32
5, 3036, Note_on_c, 9, 35, 0
5, 3145, Note_on_c, 9, 59, 0
5, 3290, Note_on_c, 9, 59, 36
5, 3328, Note_on_c, 9, 59, 0
5, 3409, Note_on_c, 9, 59, 56
5, 3416, Note_on_c, 9, 35, 32
5, 3416, Note_on_c, 9, 35, 0
5, 3420, Note_on_c, 9, 44, 40
5, 3420, Note_on_c, 9, 44, 0
5, 3566, Note_on_c, 9, 59, 0
5, 3651, Note_on_c, 9, 59, 39
5, 3687, Note_on_c, 9, 59, 0
5, 3772, Note_on_c, 9, 59, 44
5, 3800, Note_on_c, 9, 35, 32
5, 3804, Note_on_c, 9, 35, 0
5, 3974, Note_on_c, 9, 59, 0
5, 4037, Note_on_c, 9, 59, 33
5, 4069, Note_on_c, 9, 59, 0
5, 4152, Note_on_c, 9, 59, 54
5, 4184, Note_on_c, 9, 44, 40
5, 4188, Note_on_c, 9, 35, 32
5, 4196, Note_on_c, 9, 35, 0
5, 4200, Note_on_c, 9, 44, 0
5, 4323, Note_on_c, 9, 59, 0
5, 4422, Note_on_c, 9, 34, 39
5, 4436, Note_on_c, 9, 59, 25
5, 4474, Note_on_c, 9, 59, 0
5, 4496, Note_on_c, 9, 34, 0
5, 4548, Note_on_c, 9, 59, 49
5, 4564, Note_on_c, 9, 35, 32
5, 4569, Note_on_c, 9, 35, 3
5, 4576, Note_on_c, 9, 35, 0
5, 4659, Note_on_c, 9, 35, 0
5, 4710, Note_on_c, 9, 59, 0
5, 4834, Note_on_c, 9, 59, 27
5, 4868, Note_on_c, 9, 59, 0
5, 4936, Note_on_c, 9, 59, 49
5, 4948, Note_on_c, 9, 44, 40
5, 4956, Note_on_c, 9, 35, 32
5, 4960, Note_on_c, 9, 35, 0
5, 4960, Note_on_c, 9, 44, 0
5, 5109, Note_on_c, 9, 59, 0
5, 5202, Note_on_c, 9, 59, 23
5, 5250, Note_on_c, 9, 59, 0
5, 5321, Note_on_c, 9, 59, 46
5, 5336, Note_on_c, 9, 35, 32
5, 5340, Note_on_c, 9, 35, 0
5, 5459, Note_on_c, 9, 59, 0
5, 5579, Note_on_c, 9, 59, 34
5, 5612, Note_on_c, 9, 59, 0
5, 5715, Note_on_c, 9, 59, 63
5, 5716, Note_on_c, 9, 35, 32
5, 5720, Note_on_c, 9, 44, 40
5, 5724, Note_on_c, 9, 35, 0
5, 5728, Note_on_c, 9, 44, 0
5, 5868, Note_on_c, 9, 59, 0
5, 5960, Note_on_c, 9, 59, 35
5, 6030, Note_on_c, 9, 59, 0
5, 6104, Note_on_c, 9, 35, 32
5, 6107, Note_on_c, 9, 59, 24
5, 6116, Note_on_c, 9, 35, 0
5, 6283, Note_on_c, 9, 59, 0
5, 6363, Note_on_c, 9, 59, 40
5, 6394, Note_on_c, 9, 59, 0
5, 6480, Note_on_c, 9, 59, 61
5, 6484, Note_on_c, 9, 35, 32
5, 6488, Note_on_c, 9, 44, 40
5, 6492, Note_on_c, 9, 44, 0
5, 6496, Note_on_c, 9, 35, 0
5, 6654, Note_on_c, 9, 59, 0
5, 6769, Note_on_c, 9, 59, 24
5, 6807, Note_on_c, 9, 59, 0
5, 6868, Note_on_c, 9, 35, 32
5, 6876, Note_on_c, 9, 35, 0
5, 6876, Note_on_c, 9, 59, 39
5, 7059, Note_on_c, 9, 59, 0
5, 7145, Note_on_c, 9, 59, 34
5, 7183, Note_on_c, 9, 59, 0
5, 7253, Note_on_c, 9, 59, 55
5, 7256, Note_on_c, 9, 35, 32
5, 7264, Note_on_c, 9, 35, 0
5, 7454, Note_on_c, 9, 59, 0
5, 7502, Note_on_c, 9, 34, 44
5, 7527, Note_on_c, 9, 59, 32
5, 7559, Note_on_c, 9, 59, 0
5, 7612, Note_on_c, 9, 34, 0
5, 7620, Note_on_c, 9, 59, 38
5, 7622, Note_on_c, 9, 57, 52
5, 7640, Note_on_c, 9, 35, 32
5, 7648, Note_on_c, 9, 35, 0
5, 7696, Note_on_c, 9, 57, 0
5, 7827, Note_on_c, 9, 59, 0
5, 7892, Note_on_c, 9, 59, 29
5, 7927, Note_on_c, 9, 59, 0
5, 7992, Note_on_c, 9, 59, 51
5, 8024, Note_on_c, 9, 44, 40
5, 8024, Note_on_c, 9, 35, 32
5, 8040, Note_on_c, 9, 35, 0
5, 8040, Note_on_c, 9, 44, 0
5, 8201, Note_on_c, 9, 59, 0
5, 8274, Note_on_c, 9, 59, 31
5, 8308, Note_on_c, 9, 59, 0
5, 8375, Note_on_c, 9, 59, 40
5, 8408, Note_on_c, 9, 35, 32
5, 8416, Note_on_c, 9, 35, 0
5, 8552, Note_on_c, 9, 59, 0
5, 8663, Note_on_c, 9, 59, 34
5, 8697, Note_on_c, 9, 59, 0
5, 8773, Note_on_c, 9, 59, 48
5, 8792, Note_on_c, 9, 44, 40
5, 8792, Note_on_c, 9, 35, 32
5, 8804, Note_on_c, 9, 35, 0
5, 8808, Note_on_c, 9, 44, 0
5, 8885, Note_on_c, 9, 59, 0
5, 9146, Note_on_c, 9, 59, 46
5, 9176, Note_on_c, 9, 35, 32
5, 9184, Note_on_c, 9, 35, 0
5, 9327, Note_on_c, 9, 59, 0
5, 9460, Note_on_c, 9, 59, 34
5, 9493, Note_on_c, 9, 59, 0
5, 9554, Note_on_c, 9, 59, 46
5, 9560, Note_on_c, 9, 44, 40
5, 9560, Note_on_c, 9, 35, 32
5, 9568, Note_on_c, 9, 44, 0
5, 9572, Note_on_c, 9, 35, 0
5, 9733, Note_on_c, 9, 59, 0
5, 9815, Note_on_c, 9, 59, 37
5, 9857, Note_on_c, 9, 59, 0
5, 9936, Note_on_c, 9, 59, 49
5, 9944, Note_on_c, 9, 35, 32
5, 9952, Note_on_c, 9, 35, 0
5, 10120, Note_on_c, 9, 59, 0
5, 10207, Note_on_c, 9, 59, 35
5, 10250, Note_on_c, 9, 59, 0
5, 10314, Note_on_c, 9, 59, 60
5, 10328, Note_on_c, 9, 44, 40
5, 10328, Note_on_c, 9, 35, 32
5, 10340, Note_on_c, 9, 35, 0
5, 10340, Note_on_c, 9, 44, 0
5, 10453, Note_on_c, 9, 59, 0
5, 10585, Note_on_c, 9, 59, 30
5, 10691, Note_on_c, 9, 59, 0
5, 10691, Note_on_c, 9, 59, 50
5, 10712, Note_on_c, 9, 35, 32
5, 10716, Note_on_c, 9, 35, 0
5, 10834, Note_on_c, 9, 59, 0
5, 10971, Note_on_c, 9, 59, 29
5, 11010, Note_on_c, 9, 59, 0
5, 11082, Note_on_c, 9, 59, 52
5, 11096, Note_on_c, 9, 44, 40
5, 11100, Note_on_c, 9, 35, 32
5, 11104, Note_on_c, 9, 35, 0
5, 11104, Note_on_c, 9, 44, 0
5, 11232, Note_on_c, 9, 59, 0
5, 11375, Note_on_c, 9, 59, 38
5, 11406, Note_on_c, 9, 59, 0
5, 11474, Note_on_c, 9, 59, 42
5, 11476, Note_on_c, 9, 35, 32
5, 11488, Note_on_c, 9, 35, 0
5, 11586, Note_on_c, 9, 59, 0
5, 11743, Note_on_c, 9, 59, 21
5, 11783, Note_on_c, 9, 59, 0
5, 11834, Note_on_c, 9, 59, 61
5, 11864, Note_on_c, 9, 35, 32
5, 11868, Note_on_c, 9, 44, 40
5, 11876, Note_on_c, 9, 44, 0
5, 11880, Note_on_c, 9, 35, 0
5, 12056, Note_on_c, 9, 59, 0
5, 12119, Note_on_c, 9, 59, 24
5, 12157, Note_on_c, 9, 59, 0
5, 12217, Note_on_c, 9, 59, 47
5, 12244, Note_on_c, 9, 35, 32
5, 12252, Note_on_c, 9, 35, 0
5, 12412, Note_on_c, 9, 59, 0
5, 12506, Note_on_c, 9, 59, 29
5, 12614, Note_on_c, 9, 59, 0
5, 12614, Note_on_c, 9, 59, 51
5, 12632, Note_on_c, 9, 44, 40
5, 12632, Note_on_c, 9, 35, 32
5, 12640, Note_on_c, 9, 35, 0
5, 12640, Note_on_c, 9, 44, 0
5, 12740, Note_on_c, 9, 59, 0
5, 12877, Note_on_c, 9, 59, 40
5, 12914, Note_on_c, 9, 59, 0
5, 12985, Note_on_c, 9, 59, 54
5, 13012, Note_on_c, 9, 35, 32
5, 13020, Note_on_c, 9, 35, 0
5, 13173, Note_on_c, 9, 59, 0
5, 13306, Note_on_c, 9, 59, 42
5, 13336, Note_on_c, 9, 59, 0
5, 13391, Note_on_c, 9, 59, 55
5, 13400, Note_on_c, 9, 35, 32
5, 13416, Note_on_c, 9, 35, 0
5, 13586, Note_on_c, 9, 59, 0
5, 13669, Note_on_c, 9, 59, 19
5, 13670, Note_on_c, 9, 34, 42
5, 13708, Note_on_c, 9, 59, 0
5, 13734, Note_on_c, 9, 34, 0
5, 13777, Note_on_c, 9, 59, 49
5, 13788, Note_on_c, 9, 35, 25
5, 13804, Note_on_c, 9, 35, 0
5, 13811, Note_on_c, 9, 57, 32
5, 13834, Note_on_c, 9, 57, 0
5, 13946, Note_on_c, 9, 59, 0
5, 14042, Note_on_c, 9, 59, 23
5, 14079, Note_on_c, 9, 59, 0
5, 14153, Note_on_c, 9, 59, 48
5, 14172, Note_on_c, 9, 44, 40
5, 14172, Note_on_c, 9, 35, 32
5, 14188, Note_on_c, 9, 35, 0
5, 14188, Note_on_c, 9, 44, 0
5, 14347, Note_on_c, 9, 59, 0
5, 14430, Note_on_c, 9, 59, 35
5, 14466, Note_on_c, 9, 59, 0
5, 14544, Note_on_c, 9, 59, 51
5, 14556, Note_on_c, 9, 35, 32
5, 14564, Note_on_c, 9, 35, 0
5, 14687, Note_on_c, 9, 59, 0
5, 14832, Note_on_c, 9, 59, 33
5, 14863, Note_on_c, 9, 59, 0
5, 14928, Note_on_c, 9, 59, 51
5, 14932, Note_on_c, 9, 35, 32
5, 14935, Note_on_c, 9, 34, 40
5, 14940, Note_on_c, 9, 44, 40
5, 14944, Note_on_c, 9, 35, 0
5, 14948, Note_on_c, 9, 44, 0
5, 14951, Note_on_c, 9, 57, 42
5, 14975, Note_on_c, 9, 57, 0
5, 15017, Note_on_c, 9, 34, 0
5, 15074, Note_on_c, 9, 59, 0
5, 15307, Note_on_c, 9, 59, 57
5, 15320, Note_on_c, 9, 35, 32
5, 15324, Note_on_c, 9, 35, 0
5, 15478, Note_on_c, 9, 59, 0
5, 15596, Note_on_c, 9, 59, 29
5, 15644, Note_on_c, 9, 59, 0
5, 15700, Note_on_c, 9, 35, 32
5, 15708, Note_on_c, 9, 35, 0
5, 15708, Note_on_c, 9, 44, 40
5, 15712, Note_on_c, 9, 44, 0
5, 15714, Note_on_c, 9, 59, 57
5, 15873, Note_on_c, 9, 59, 0
5, 16085, Note_on_c, 9, 59, 60
5, 16088, Note_on_c, 9, 35, 32
5, 16092, Note_on_c, 9, 35, 0
5, 16265, Note_on_c, 9, 59, 0
5, 16465, Note_on_c, 9, 59, 61
5, 16476, Note_on_c, 9, 44, 40
5, 16476, Note_on_c, 9, 35, 32
5, 16488, Note_on_c, 9, 35, 0
5, 16488, Note_on_c, 9, 44, 0
5, 16630, Note_on_c, 9, 59, 0
5, 16755, Note_on_c, 9, 59, 26
5, 16795, Note_on_c, 9, 59, 0
5, 16852, Note_on_c, 9, 35, 32
5, 16861, Note_on_c, 9, 59, 51
5, 16864, Note_on_c, 9, 35, 0
5, 17070, Note_on_c, 9, 59, 0
5, 17121, Note_on_c, 9, 59, 37
5, 17151, Note_on_c, 9, 59, 0
5, 17236, Note_on_c, 9, 44, 40
5, 17239, Note_on_c, 9, 59, 46
5, 17244, Note_on_c, 9, 35, 32
5, 17248, Note_on_c, 9, 35, 0
5, 17248, Note_on_c, 9, 44, 0
5, 17458, Note_on_c, 9, 59, 0
5, 17531, Note_on_c, 9, 59, 25
5, 17567, Note_on_c, 9, 59, 0
5, 17624, Note_on_c, 9, 59, 54
5, 17624, Note_on_c, 9, 35, 32
5, 17632, Note_on_c, 9, 35, 0
5, 17750, Note_on_c, 9, 34, 20
5, 17783, Note_on_c, 9, 34, 0
5, 17847, Note_on_c, 9, 59, 0
5, 17874, Note_on_c, 9, 34, 29
5, 17922, Note_on_c, 9, 59, 17
5, 17924, Note_on_c, 9, 34, 0
5, 17963, Note_on_c, 9, 59, 0
5, 18004, Note_on_c, 9, 35, 32
5, 18007, Note_on_c, 9, 34, 41
5, 18008, Note_on_c, 9, 44, 40
5, 18012, Note_on_c, 9, 35, 0
5, 18016, Note_on_c, 9, 44, 0
5, 18018, Note_on_c, 9, 59, 58
5, 18040, Note_on_c, 9, 34, 0
5, 18200, Note_on_c, 9, 59, 0
5, 18273, Note_on_c, 9, 59, 47
5, 18312, Note_on_c, 9, 59, 0
5, 18386, Note_on_c, 9, 59, 52
5, 18392, Note_on_c, 9, 35, 32
5, 18400, Note_on_c, 9, 35, 0
5, 18591, Note_on_c, 9, 59, 0
5, 18676, Note_on_c, 9, 59, 29
5, 18711, Note_on_c, 9, 59, 0
5, 18772, Note_on_c, 9, 35, 32
5, 18776, Note_on_c, 9, 59, 52
5, 18780, Note_on_c, 9, 44, 40
5, 18784, Note_on_c, 9, 44, 0
5, 18784, Note_on_c, 9, 35, 0
5, 18978, Note_on_c, 9, 59, 0
5, 19052, Note_on_c, 9, 59, 31
5, 19085, Note_on_c, 9, 59, 0
5, 19156, Note_on_c, 9, 35, 32
5, 19160, Note_on_c, 9, 59, 51
5, 19164, Note_on_c, 9, 35, 0
5, 19367, Note_on_c, 9, 59, 0
5, 19434, Note_on_c, 9, 59, 38
5, 19465, Note_on_c, 9, 59, 0
5, 19536, Note_on_c, 9, 59, 54
5, 19540, Note_on_c, 9, 44, 40
5, 19540, Note_on_c, 9, 35, 32
5, 19552, Note_on_c, 9, 35, 0
5, 19552, Note_on_c, 9, 44, 0
5, 19666, Note_on_c, 9, 59, 0
5, 19806, Note_on_c, 9, 59, 65
5, 19862, Note_on_c, 9, 59, 0
5, 19916, Note_on_c, 9, 59, 64
5, 19928, Note_on_c, 9, 35, 32
5, 19932, Note_on_c, 9, 35, 0
5, 20086, Note_on_c, 9, 59, 0
5, 20180, Note_on_c, 9, 59, 18
5, 20220, Note_on_c, 9, 59, 0
5, 20289, Note_on_c, 9, 59, 55
5, 20308, Note_on_c, 9, 44, 40
5, 20308, Note_on_c, 9, 35, 32
5, 20324, Note_on_c, 9, 35, 0
5, 20324, Note_on_c, 9, 44, 0
5, 20415, Note_on_c, 9, 59, 0
5, 20551, Note_on_c, 9, 59, 55
5, 20609, Note_on_c, 9, 59, 0
5, 20676, Note_on_c, 9, 59, 68
5, 20696, Note_on_c, 9, 35, 32
5, 20704, Note_on_c, 9, 35, 0
5, 20846, Note_on_c, 9, 59, 0
5, 20951, Note_on_c, 9, 59, 30
5, 20986, Note_on_c, 9, 59, 0
5, 21064, Note_on_c, 9, 59, 47
5, 21076, Note_on_c, 9, 44, 40
5, 21080, Note_on_c, 9, 35, 32
5, 21092, Note_on_c, 9, 35, 0
5, 21096, Note_on_c, 9, 44, 0
5, 21158, Note_on_c, 9, 59, 0
5, 21209, Note_on_c, 9, 59, 41
5, 21239, Note_on_c, 9, 59, 0
5, 21308, Note_on_c, 9, 59, 42
5, 21404, Note_on_c, 9, 59, 0
5, 21454, Note_on_c, 9, 59, 64
5, 21464, Note_on_c, 9, 35, 32
5, 21468, Note_on_c, 9, 35, 0
5, 21616, Note_on_c, 9, 59, 0
5, 21767, Note_on_c, 9, 59, 62
5, 21827, Note_on_c, 9, 59, 0
5, 21848, Note_on_c, 9, 44, 40
5, 21848, Note_on_c, 9, 35, 32
5, 21864, Note_on_c, 9, 44, 0
5, 21868, Note_on_c, 9, 35, 0
5, 21898, Note_on_c, 9, 59, 40
5, 21960, Note_on_c, 9, 59, 0
5, 22208, Note_on_c, 9, 59, 60
5, 22236, Note_on_c, 9, 35, 32
5, 22240, Note_on_c, 9, 35, 0
5, 22358, Note_on_c, 9, 59, 0
5, 22504, Note_on_c, 9, 59, 44
5, 22535, Note_on_c, 9, 59, 0
5, 22614, Note_on_c, 9, 59, 49
5, 22616, Note_on_c, 9, 44, 40
5, 22616, Note_on_c, 9, 35, 32
5, 22628, Note_on_c, 9, 44, 0
5, 22632, Note_on_c, 9, 35, 0
5, 22786, Note_on_c, 9, 59, 0
5, 22861, Note_on_c, 9, 40, 14
5, 22889, Note_on_c, 9, 59, 20
5, 22895, Note_on_c, 9, 40, 0
5, 22928, Note_on_c, 9, 59, 0
5, 22995, Note_on_c, 9, 59, 52
5, 23000, Note_on_c, 9, 35, 32
5, 23008, Note_on_c, 9, 35, 0
5, 23167, Note_on_c, 9, 59, 0
5, 23231, Note_on_c, 9, 40, 21
5, 23261, Note_on_c, 9, 59, 34
5, 23294, Note_on_c, 9, 59, 0
5, 23306, Note_on_c, 9, 40, 0
5, 23370, Note_on_c, 9, 59, 51
5, 23380, Note_on_c, 9, 44, 40
5, 23380, Note_on_c, 9, 40, 15
5, 23392, Note_on_c, 9, 44, 0
5, 23392, Note_on_c, 9, 35, 32
5, 23392, Note_on_c, 9, 35, 0
5, 23453, Note_on_c, 9, 40, 0
5, 23573, Note_on_c, 9, 59, 0
5, 23671, Note_on_c, 9, 40, 14
5, 23699, Note_on_c, 9, 40, 0
5, 23753, Note_on_c, 9, 59, 55
5, 23764, Note_on_c, 9, 35, 32
5, 23776, Note_on_c, 9, 35, 0
5, 23952, Note_on_c, 9, 59, 0
5, 24014, Note_on_c, 9, 59, 44
5, 24044, Note_on_c, 9, 59, 0
5, 24120, Note_on_c, 9, 59, 48
5, 24152, Note_on_c, 9, 35, 32
5, 24168, Note_on_c, 9, 35, 0
5, 24233, Note_on_c, 9, 59, 0
5, 24391, Note_on_c, 9, 59, 45
5, 24420, Note_on_c, 9, 59, 0
5, 24536, Note_on_c, 9, 35, 32
5, 24544, Note_on_c, 9, 35, 0
5, 24787, Note_on_c, 9, 59, 70
5, 24841, Note_on_c, 9, 59, 0
5, 24904, Note_on_c, 9, 59, 60
5, 24916, Note_on_c, 9, 35, 32
5, 24924, Note_on_c, 9, 44, 40
5, 24928, Note_on_c, 9, 44, 0
5, 24932, Note_on_c, 9, 35, 0
5, 25061, Note_on_c, 9, 59, 0
5, 25189, Note_on_c, 9, 59, 17
5, 25230, Note_on_c, 9, 59, 0
5, 25304, Note_on_c, 9, 35, 32
5, 25308, Note_on_c, 9, 35, 0
5, 25308, Note_on_c, 9, 59, 37
5, 25347, Note_on_c, 9, 59, 0
5, 25567, Note_on_c, 9, 59, 72
5, 25627, Note_on_c, 9, 59, 0
5, 25685, Note_on_c, 9, 59, 68
5, 25692, Note_on_c, 9, 44, 40
5, 25692, Note_on_c, 9, 35, 32
5, 25704, Note_on_c, 9, 35, 0
5, 25704, Note_on_c, 9, 44, 0
5, 25839, Note_on_c, 9, 59, 0
5, 25930, Note_on_c, 9, 34, 66
5, 25968, Note_on_c, 9, 59, 22
5, 26004, Note_on_c, 9, 59, 0
5, 26015, Note_on_c, 9, 34, 0
5, 26061, Note_on_c, 9, 57, 48
5, 26072, Note_on_c, 9, 59, 33
5, 26076, Note_on_c, 9, 35, 25
5, 26092, Note_on_c, 9, 35, 0
5, 26118, Note_on_c, 9, 57, 0
5, 26191, Note_on_c, 9, 59, 0
5, 26335, Note_on_c, 9, 59, 34
5, 26370, Note_on_c, 9, 59, 0
5, 26452, Note_on_c, 9, 59, 60
5, 26460, Note_on_c, 9, 44, 40
5, 26460, Note_on_c, 9, 35, 32
5, 26476, Note_on_c, 9, 35, 0
5, 26476, Note_on_c, 9, 44, 0
5, 26655, Note_on_c, 9, 59, 0
5, 26721, Note_on_c, 9, 59, 32
5, 26754, Note_on_c, 9, 59, 0
5, 26844, Note_on_c, 9, 35, 32
5, 26860, Note_on_c, 9, 35, 0
5, 26989, Note_on_c, 9, 59, 54
5, 27015, Note_on_c, 9, 59, 0
5, 27083, Note_on_c, 9, 59, 39
5, 27099, Note_on_c, 9, 34, 59
5, 27122, Note_on_c, 9, 59, 0
5, 27195, Note_on_c, 9, 34, 0
5, 27215, Note_on_c, 9, 59, 60
5, 27220, Note_on_c, 9, 35, 32
5, 27228, Note_on_c, 9, 44, 40
5, 27231, Note_on_c, 9, 57, 51
5, 27232, Note_on_c, 9, 35, 0
5, 27236, Note_on_c, 9, 44, 0
5, 27287, Note_on_c, 9, 57, 0
5, 27355, Note_on_c, 9, 59, 0
5, 27500, Note_on_c, 9, 59, 29
5, 27533, Note_on_c, 9, 59, 0
5, 27585, Note_on_c, 9, 59, 60
5, 27604, Note_on_c, 9, 35, 32
5, 27612, Note_on_c, 9, 35, 0
5, 27707, Note_on_c, 9, 59, 0
5, 27970, Note_on_c, 9, 59, 54
5, 27988, Note_on_c, 9, 35, 32
5, 27992, Note_on_c, 9, 35, 0
5, 27996, Note_on_c, 9, 44, 40
5, 27996, Note_on_c, 9, 44, 0
5, 28082, Note_on_c, 9, 59, 0
5, 28351, Note_on_c, 9, 59, 63
5, 28376, Note_on_c, 9, 35, 32
5, 28380, Note_on_c, 9, 35, 0
5, 28496, Note_on_c, 9, 59, 0
5, 28741, Note_on_c, 9, 59, 64
5, 28760, Note_on_c, 9, 35, 32
5, 28772, Note_on_c, 9, 35, 0
5, 28841, Note_on_c, 9, 59, 0
5, 29024, Note_on_c, 9, 59, 58
5, 29073, Note_on_c, 9, 59, 0
5, 29140, Note_on_c, 9, 35, 32
5, 29148, Note_on_c, 9, 35, 0
5, 29152, Note_on_c, 9, 59, 40
5, 29228, Note_on_c, 9, 59, 0
5, 29399, Note_on_c, 9, 59, 53
5, 29455, Note_on_c, 9, 59, 0
5, 29520, Note_on_c, 9, 59, 47
5, 29524, Note_on_c, 9, 44, 40
5, 29532, Note_on_c, 9, 44, 0
5, 29532, Note_on_c, 9, 35, 32
5, 29532, Note_on_c, 9, 35, 0
5, 29555, Note_on_c, 9, 59, 0
5, 29778, Note_on_c, 9, 59, 46
5, 29814, Note_on_c, 9, 59, 0
5, 29897, Note_on_c, 9, 59, 40
5, 29912, Note_on_c, 9, 35, 32
5, 29920, Note_on_c, 9, 35, 0
5, 29941, Note_on_c, 9, 59, 0
5, 30171, Note_on_c, 9, 59, 56
5, 30210, Note_on_c, 9, 59, 0
5, 30291, Note_on_c, 9, 59, 44
5, 30292, Note_on_c, 9, 35, 32
5, 30296, Note_on_c, 9, 44, 40
5, 30300, Note_on_c, 9, 35, 0
5, 30304, Note_on_c, 9, 44, 0
5, 30351, Note_on_c, 9, 59, 0
5, 30559, Note_on_c, 9, 59, 58
5, 30614, Note_on_c, 9, 59, 0
5, 30676, Note_on_c, 9, 59, 56
5, 30680, Note_on_c, 9, 35, 32
5, 30688, Note_on_c, 9, 35, 0
5, 30721, Note_on_c, 9, 59, 0
5, 30943, Note_on_c, 9, 59, 59
5, 30998, Note_on_c, 9, 59, 0
5, 31060, Note_on_c, 9, 35, 32
5, 31064, Note_on_c, 9, 59, 48
5, 31068, Note_on_c, 9, 44, 40
5, 31076, Note_on_c, 9, 44, 0
5, 31076, Note_on_c, 9, 35, 0
5, 31100, Note_on_c, 9, 59, 0
5, 31318, Note_on_c, 9, 59, 58
5, 31375, Note_on_c, 9, 59, 0
5, 31444, Note_on_c, 9, 35, 32
5, 31448, Note_on_c, 9, 59, 47
5, 31456, Note_on_c, 9, 35, 0
5, 31486, Note_on_c, 9, 59, 0
5, 31709, Note_on_c, 9, 59, 58
5, 31765, Note_on_c, 9, 59, 0
5, 31827, Note_on_c, 9, 59, 52
5, 31828, Note_on_c, 9, 44, 40
5, 31832, Note_on_c, 9, 35, 32
5, 31840, Note_on_c, 9, 35, 0
5, 31840, Note_on_c, 9, 44, 0
5, 31862, Note_on_c, 9, 59, 0
5, 32092, Note_on_c, 9, 59, 55
5, 32148, Note_on_c, 9, 59, 0
5, 32211, Note_on_c, 9, 59, 51
5, 32216, Note_on_c, 9, 35, 32
5, 32220, Note_on_c, 9, 35, 0
5, 32263, Note_on_c, 9, 59, 0
5, 32472, Note_on_c, 9, 59, 60
5, 32531, Note_on_c, 9, 59, 0
5, 32596, Note_on_c, 9, 44, 40
5, 32596, Note_on_c, 9, 35, 32
5, 32597, Note_on_c, 9, 59, 49
5, 32616, Note_on_c, 9, 35, 0
5, 32620, Note_on_c, 9, 44, 0
5, 32642, Note_on_c, 9, 59, 0
5, 32879, Note_on_c, 9, 59, 58
5, 32941, Note_on_c, 9, 59, 0
5, 32980, Note_on_c, 9, 35, 32
5, 32988, Note_on_c, 9, 35, 0
5, 32997, Note_on_c, 9, 59, 51
5, 33036, Note_on_c, 9, 59, 0
5, 33267, Note_on_c, 9, 59, 58
5, 33298, Note_on_c, 9, 59, 0
5, 33367, Note_on_c, 9, 59, 54
5, 33368, Note_on_c, 9, 44, 40
5, 33368, Note_on_c, 9, 35, 32
5, 33384, Note_on_c, 9, 35, 0
5, 33384, Note_on_c, 9, 44, 0
5, 33422, Note_on_c, 9, 59, 0
5, 33624, Note_on_c, 9, 59, 60
5, 33659, Note_on_c, 9, 59, 0
5, 33750, Note_on_c, 9, 59, 58
5, 33752, Note_on_c, 9, 35, 32
5, 33756, Note_on_c, 9, 35, 0
5, 33834, Note_on_c, 9, 59, 0
5, 33993, Note_on_c, 9, 53, 52
5, 34016, Note_on_c, 9, 35, 48
5, 34023, Note_on_c, 9, 53, 0
5, 34073, Note_on_c, 9, 35, 0
5, 34127, Note_on_c, 9, 59, 37
5, 34136, Note_on_c, 9, 44, 40
5, 34136, Note_on_c, 9, 35, 32
5, 34152, Note_on_c, 9, 35, 0
5, 34152, Note_on_c, 9, 44, 0
5, 34218, Note_on_c, 9, 59, 0
5, 34402, Note_on_c, 9, 59, 40
5, 34435, Note_on_c, 9, 59, 0
5, 34511, Note_on_c, 9, 59, 46
5, 34520, Note_on_c, 9, 35, 32
5, 34524, Note_on_c, 9, 35, 0
5, 34585, Note_on_c, 9, 59, 0
5, 34770, Note_on_c, 9, 59, 26
5, 34805, Note_on_c, 9, 59, 0
5, 34877, Note_on_c, 9, 59, 51
5, 34908, Note_on_c, 9, 44, 40
5, 34908, Note_on_c, 9, 35, 32
5, 34916, Note_on_c, 9, 44, 0
5, 34920, Note_on_c, 9, 35, 0
5, 34947, Note_on_c, 9, 59, 0
5, 35162, Note_on_c, 9, 59, 42
5, 35193, Note_on_c, 9, 59, 0
5, 35263, Note_on_c, 9, 59, 47
5, 35288, Note_on_c, 9, 35, 32
5, 35296, Note_on_c, 9, 35, 0
5, 35346, Note_on_c, 9, 59, 0
5, 35562, Note_on_c, 9, 59, 40
5, 35592, Note_on_c, 9, 59, 0
5, 35676, Note_on_c, 9, 59, 51
5, 35676, Note_on_c, 9, 44, 40
5, 35676, Note_on_c, 9, 35, 32
5, 35680, Note_on_c, 9, 35, 0
5, 35684, Note_on_c, 9, 44, 0
5, 35746, Note_on_c, 9, 59, 0
5, 35954, Note_on_c, 9, 59, 36
5, 35956, Note_on_c, 9, 35, 45
5, 35984, Note_on_c, 9, 59, 0
5, 36051, Note_on_c, 9, 35, 0
5, 36052, Note_on_c, 9, 35, 32
5, 36057, Note_on_c, 9, 59, 47
5, 36064, Note_on_c, 9, 35, 0
5, 36110, Note_on_c, 9, 35, 35
5, 36138, Note_on_c, 9, 59, 0
5, 36300, Note_on_c, 9, 35, 0
5, 36315, Note_on_c, 9, 40, 19
5, 36345, Note_on_c, 9, 40, 0
5, 36349, Note_on_c, 9, 35, 32
5, 36414, Note_on_c, 9, 35, 0
5, 36434, Note_on_c, 9, 59, 64
5, 36436, Note_on_c, 9, 35, 32
5, 36440, Note_on_c, 9, 44, 40
5, 36444, Note_on_c, 9, 44, 0
5, 36448, Note_on_c, 9, 35, 0
5, 36520, Note_on_c, 9, 59, 0
5, 36821, Note_on_c, 9, 59, 60
5, 36824, Note_on_c, 9, 35, 32
5, 36836, Note_on_c, 9, 35, 0
5, 36892, Note_on_c, 9, 59, 0
5, 37095, Note_on_c, 9, 40, 9
5, 37134, Note_on_c, 9, 40, 0
5, 37189, Note_on_c, 9, 59, 65
5, 37204, Note_on_c, 9, 35, 32
5, 37212, Note_on_c, 9, 44, 40
5, 37212, Note_on_c, 9, 44, 0
5, 37216, Note_on_c, 9, 35, 0
5, 37262, Note_on_c, 9, 59, 0
5, 37489, Note_on_c, 9, 59, 42
5, 37525, Note_on_c, 9, 59, 0
5, 37588, Note_on_c, 9, 35, 32
5, 37596, Note_on_c, 9, 35, 0
5, 37603, Note_on_c, 9, 59, 48
5, 37682, Note_on_c, 9, 59, 0
5, 37874, Note_on_c, 9, 59, 31
5, 37906, Note_on_c, 9, 59, 0
5, 37976, Note_on_c, 9, 35, 32
5, 37980, Note_on_c, 9, 59, 44
5, 37984, Note_on_c, 9, 35, 0
5, 38078, Note_on_c, 9, 59, 0
5, 38239, Note_on_c, 9, 59, 44
5, 38284, Note_on_c, 9, 59, 0
5, 38358, Note_on_c, 9, 59, 56
5, 38364, Note_on_c, 9, 35, 25
5, 38372, Note_on_c, 9, 35, 0
5, 38428, Note_on_c, 9, 59, 0
5, 38628, Note_on_c, 9, 59, 40
5, 38667, Note_on_c, 9, 59, 0
5, 38744, Note_on_c, 9, 59, 46
5, 38748, Note_on_c, 9, 44, 40
5, 38756, Note_on_c, 9, 35, 32
5, 38764, Note_on_c, 9, 35, 0
5, 38764, Note_on_c, 9, 44, 0
5, 38824, Note_on_c, 9, 59, 0
5, 39018, Note_on_c, 9, 59, 43
5, 39053, Note_on_c, 9, 59, 0
5, 39132, Note_on_c, 9, 35, 32
5, 39135, Note_on_c, 9, 59, 44
5, 39148, Note_on_c, 9, 35, 0
5, 39189, Note_on_c, 9, 59, 0
5, 39394, Note_on_c, 9, 59, 51
5, 39425, Note_on_c, 9, 59, 0
5, 39508, Note_on_c, 9, 35, 32
5, 39512, Note_on_c, 9, 59, 40
5, 39520, Note_on_c, 9, 35, 0
5, 39520, Note_on_c, 9, 44, 40
5, 39524, Note_on_c, 9, 44, 0
5, 39554, Note_on_c, 9, 59, 0
5, 39780, Note_on_c, 9, 59, 41
5, 39810, Note_on_c, 9, 59, 0
5, 39884, Note_on_c, 9, 59, 42
5, 39896, Note_on_c, 9, 35, 32
5, 39900, Note_on_c, 9, 35, 0
5, 39934, Note_on_c, 9, 59, 0
5, 40161, Note_on_c, 9, 59, 41
5, 40177, Note_on_c, 9, 40, 20
5, 40191, Note_on_c, 9, 59, 0
5, 40206, Note_on_c, 9, 40, 0
5, 40276, Note_on_c, 9, 59, 45
5, 40280, Note_on_c, 9, 35, 32
5, 40284, Note_on_c, 9, 35, 0
5, 40284, Note_on_c, 9, 44, 40
5, 40292, Note_on_c, 9, 44, 0
5, 40317, Note_on_c, 9, 59, 0
5, 40319, Note_on_c, 9, 40, 21
5, 40345, Note_on_c, 9, 40, 0
5, 40548, Note_on_c, 9, 40, 64
5, 40550, Note_on_c, 9, 59, 53
5, 40580, Note_on_c, 9, 59, 0
5, 40605, Note_on_c, 9, 40, 0
5, 40661, Note_on_c, 9, 59, 53
5, 40668, Note_on_c, 9, 35, 32
5, 40672, Note_on_c, 9, 35, 0
5, 40726, Note_on_c, 9, 59, 0
5, 40925, Note_on_c, 9, 59, 39
5, 40946, Note_on_c, 9, 40, 11
5, 40956, Note_on_c, 9, 59, 0
5, 40971, Note_on_c, 9, 40, 0
5, 41048, Note_on_c, 9, 44, 40
5, 41048, Note_on_c, 9, 35, 32
5, 41053, Note_on_c, 9, 59, 34
5, 41060, Note_on_c, 9, 35, 0
5, 41060, Note_on_c, 9, 44, 0
5, 41084, Note_on_c, 9, 59, 0
5, 41305, Note_on_c, 9, 59, 64
5, 41368, Note_on_c, 9, 59, 0
5, 41424, Note_on_c, 9, 59, 64
5, 41432, Note_on_c, 9, 35, 32
5, 41436, Note_on_c, 9, 35, 0
5, 41505, Note_on_c, 9, 59, 0
5, 41700, Note_on_c, 9, 59, 31
5, 41734, Note_on_c, 9, 59, 0
5, 41812, Note_on_c, 9, 44, 40
5, 41817, Note_on_c, 9, 59, 38
5, 41824, Note_on_c, 9, 35, 32
5, 41824, Note_on_c, 9, 35, 0
5, 41828, Note_on_c, 9, 44, 0
5, 41893, Note_on_c, 9, 59, 0
5, 42076, Note_on_c, 9, 59, 46
5, 42135, Note_on_c, 9, 59, 0
5, 42200, Note_on_c, 9, 35, 32
5, 42204, Note_on_c, 9, 35, 0
5, 42204, Note_on_c, 9, 59, 60
5, 42278, Note_on_c, 9, 59, 0
5, 42462, Note_on_c, 9, 59, 42
5, 42497, Note_on_c, 9, 59, 0
5, 42584, Note_on_c, 9, 35, 32
5, 42588, Note_on_c, 9, 35, 0
5, 42588, Note_on_c, 9, 44, 40
5, 42592, Note_on_c, 9, 44, 0
5, 42593, Note_on_c, 9, 59, 42
5, 42690, Note_on_c, 9, 59, 0
5, 42854, Note_on_c, 9, 59, 38
5, 42885, Note_on_c, 9, 59, 0
5, 42965, Note_on_c, 9, 59, 44
5, 42968, Note_on_c, 9, 35, 32
5, 42972, Note_on_c, 9, 35, 0
5, 43036, Note_on_c, 9, 59, 0
5, 43230, Note_on_c, 9, 59, 44
5, 43264, Note_on_c, 9, 59, 0
5, 43348, Note_on_c, 9, 59, 54
5, 43348, Note_on_c, 9, 35, 32
5, 43356, Note_on_c, 9, 44, 40
5, 43356, Note_on_c, 9, 44, 0
5, 43360, Note_on_c, 9, 35, 0
5, 43417, Note_on_c, 9, 59, 0
5, 43603, Note_on_c, 9, 59, 48
5, 43634, Note_on_c, 9, 59, 0
5, 43726, Note_on_c, 9, 59, 50
5, 43732, Note_on_c, 9, 35, 32
5, 43740, Note_on_c, 9, 35, 0
5, 43787, Note_on_c, 9, 59, 0
5, 43984, Note_on_c, 9, 59, 59
5, 44021, Note_on_c, 9, 59, 0
5, 44096, Note_on_c, 9, 59, 54
5, 44116, Note_on_c, 9, 44, 40
5, 44120, Note_on_c, 9, 35, 32
5, 44132, Note_on_c, 9, 35, 0
5, 44132, Note_on_c, 9, 44, 0
5, 44158, Note_on_c, 9, 59, 0
5, 44361, Note_on_c, 9, 34, 47
5, 44369, Note_on_c, 9, 59, 52
5, 44399, Note_on_c, 9, 59, 0
5, 44454, Note_on_c, 9, 34, 0
5, 44485, Note_on_c, 9, 59, 51
5, 44490, Note_on_c, 9, 57, 49
5, 44504, Note_on_c, 9, 35, 32
5, 44508, Note_on_c, 9, 35, 0
5, 44513, Note_on_c, 9, 57, 0
5, 44544, Note_on_c, 9, 35, 25
5, 44545, Note_on_c, 9, 59, 0
5, 44552, Note_on_c, 9, 35, 0
5, 44760, Note_on_c, 9, 59, 58
5, 44790, Note_on_c, 9, 59, 0
5, 44870, Note_on_c, 9, 59, 55
5, 44892, Note_on_c, 9, 44, 40
5, 44892, Note_on_c, 9, 35, 32
5, 44896, Note_on_c, 9, 44, 0
5, 44900, Note_on_c, 9, 35, 0
5, 44927, Note_on_c, 9, 59, 0
5, 45152, Note_on_c, 9, 59, 49
5, 45182, Note_on_c, 9, 59, 0
5, 45271, Note_on_c, 9, 59, 50
5, 45276, Note_on_c, 9, 35, 32
5, 45292, Note_on_c, 9, 35, 0
5, 45330, Note_on_c, 9, 59, 0
5, 45534, Note_on_c, 9, 59, 60
5, 45565, Note_on_c, 9, 59, 0
5, 45656, Note_on_c, 9, 35, 32
5, 45660, Note_on_c, 9, 44, 40
5, 45663, Note_on_c, 9, 59, 61
5, 45664, Note_on_c, 9, 35, 0
5, 45668, Note_on_c, 9, 44, 0
5, 45726, Note_on_c, 9, 59, 0
5, 45913, Note_on_c, 9, 59, 60
5, 45952, Note_on_c, 9, 59, 0
5, 46035, Note_on_c, 9, 59, 59
5, 46040, Note_on_c, 9, 35, 32
5, 46044, Note_on_c, 9, 35, 0
5, 46094, Note_on_c, 9, 59, 0
5, 46296, Note_on_c, 9, 59, 56
5, 46354, Note_on_c, 9, 59, 0
5, 46422, Note_on_c, 9, 59, 48
5, 46424, Note_on_c, 9, 35, 32
5, 46424, Note_on_c, 9, 35, 0
5, 46428, Note_on_c, 9, 44, 40
5, 46428, Note_on_c, 9, 44, 0
5, 46487, Note_on_c, 9, 59, 0
5, 46553, Note_on_c, 9, 59, 45
5, 46593, Note_on_c, 9, 59, 0
5, 46671, Note_on_c, 9, 59, 62
5, 46752, Note_on_c, 9, 59, 0
5, 46808, Note_on_c, 9, 35, 32
5, 46812, Note_on_c, 9, 35, 0
5, 46913, Note_on_c, 9, 59, 54
5, 46962, Note_on_c, 9, 59, 0
5, 47036, Note_on_c, 9, 59, 57
5, 47101, Note_on_c, 9, 59, 0
5, 47187, Note_on_c, 9, 59, 51
5, 47192, Note_on_c, 9, 44, 40
5, 47196, Note_on_c, 9, 35, 32
5, 47204, Note_on_c, 9, 35, 0
5, 47208, Note_on_c, 9, 44, 0
5, 47247, Note_on_c, 9, 59, 0
5, 47437, Note_on_c, 9, 59, 57
5, 47478, Note_on_c, 9, 59, 0
5, 47564, Note_on_c, 9, 59, 56
5, 47572, Note_on_c, 9, 35, 32
5, 47584, Note_on_c, 9, 35, 0
5, 47629, Note_on_c, 9, 59, 0
5, 47834, Note_on_c, 9, 59, 58
5, 47874, Note_on_c, 9, 59, 0
5, 47956, Note_on_c, 9, 44, 40
5, 47964, Note_on_c, 9, 35, 32
5, 47968, Note_on_c, 9, 35, 0
5, 47968, Note_on_c, 9, 44, 0
5, 47982, Note_on_c, 9, 59, 30
5, 48015, Note_on_c, 9, 59, 0
5, 48237, Note_on_c, 9, 59, 44
5, 48267, Note_on_c, 9, 59, 0
5, 48344, Note_on_c, 9, 35, 32
5, 48348, Note_on_c, 9, 35, 0
5, 48353, Note_on_c, 9, 59, 51
5, 48418, Note_on_c, 9, 59, 0
5, 48602, Note_on_c, 9, 59, 58
5, 48637, Note_on_c, 9, 59, 0
5, 48724, Note_on_c, 9, 35, 32
5, 48728, Note_on_c, 9, 44, 40
5, 48732, Note_on_c, 9, 35, 0
5, 48732, Note_on_c, 9, 59, 44
5, 48736, Note_on_c, 9, 44, 0
5, 48813, Note_on_c, 9, 59, 0
5, 48990, Note_on_c, 9, 59, 51
5, 49025, Note_on_c, 9, 59, 0
5, 49100, Note_on_c, 9, 59, 56
5, 49112, Note_on_c, 9, 35, 32
5, 49124, Note_on_c, 9, 35, 0
5, 49195, Note_on_c, 9, 59, 0
5, 49294, Note_on_c, 9, 40, 14
5, 49322, Note_on_c, 9, 40, 0
5, 49367, Note_on_c, 9, 59, 44
5, 49398, Note_on_c, 9, 59, 0
5, 49403, Note_on_c, 9, 40, 24
5, 49431, Note_on_c, 9, 40, 0
5, 49484, Note_on_c, 9, 59, 56
5, 49492, Note_on_c, 9, 35, 32
5, 49496, Note_on_c, 9, 44, 40
5, 49500, Note_on_c, 9, 44, 0
5, 49504, Note_on_c, 9, 35, 0
5, 49576, Note_on_c, 9, 59, 0
5, 49743, Note_on_c, 9, 59, 48
5, 49747, Note_on_c, 9, 40, 49
5, 49773, Note_on_c, 9, 59, 0
5, 49775, Note_on_c, 9, 40, 0
5, 49864, Note_on_c, 9, 59, 53
5, 49876, Note_on_c, 9, 35, 32
5, 49884, Note_on_c, 9, 35, 0
5, 50010, Note_on_c, 9, 59, 0
5, 50115, Note_on_c, 9, 59, 54
5, 50184, Note_on_c, 9, 59, 0
5, 50247, Note_on_c, 9, 59, 60
5, 50264, Note_on_c, 9, 35, 32
5, 50272, Note_on_c, 9, 35, 0
5, 50305, Note_on_c, 9, 59, 0
5, 50482, Note_on_c, 9, 51, 54
5, 50529, Note_on_c, 9, 51, 0
5, 50603, Note_on_c, 9, 51, 47
5, 50648, Note_on_c, 9, 35, 32
5, 50656, Note_on_c, 9, 35, 0
5, 50764, Note_on_c, 9, 51, 0
5, 51020, Note_on_c, 9, 51, 63
5, 51032, Note_on_c, 9, 44, 40
5, 51032, Note_on_c, 9, 35, 32
5, 51048, Note_on_c, 9, 35, 0
5, 51048, Note_on_c, 9, 44, 0
5, 51129, Note_on_c, 9, 51, 0
5, 51416, Note_on_c, 9, 35, 32
5, 51417, Note_on_c, 9, 51, 60
5, 51424, Note_on_c, 9, 35, 0
5, 51537, Note_on_c, 9, 51, 0
5, 51795, Note_on_c, 9, 51, 63
5, 51800, Note_on_c, 9, 44, 40
5, 51800, Note_on_c, 9, 35, 32
5, 51812, Note_on_c, 9, 35, 0
5, 51816, Note_on_c, 9, 44, 0
5, 51900, Note_on_c, 9, 51, 0
5, 52097, Note_on_c, 9, 51, 35
5, 52140, Note_on_c, 9, 51, 0
5, 52184, Note_on_c, 9, 35, 32
5, 52192, Note_on_c, 9, 35, 0
5, 52200, Note_on_c, 9, 51, 51
5, 52392, Note_on_c, 9, 51, 0
5, 52568, Note_on_c, 9, 44, 40
5, 52568, Note_on_c, 9, 35, 32
5, 52576, Note_on_c, 9, 44, 0
5, 52577, Note_on_c, 9, 51, 36
5, 52580, Note_on_c, 9, 35, 0
5, 52627, Note_on_c, 9, 51, 0
5, 52870, Note_on_c, 9, 51, 36
5, 52900, Note_on_c, 9, 51, 0
5, 52952, Note_on_c, 9, 35, 32
5, 52960, Note_on_c, 9, 35, 0
5, 52960, Note_on_c, 9, 51, 47
5, 53057, Note_on_c, 9, 51, 0
5, 53241, Note_on_c, 9, 51, 29
5, 53271, Note_on_c, 9, 51, 0
5, 53336, Note_on_c, 9, 44, 40
5, 53336, Note_on_c, 9, 35, 32
5, 53346, Note_on_c, 9, 51, 47
5, 53348, Note_on_c, 9, 35, 0
5, 53348, Note_on_c, 9, 44, 0
5, 53440, Note_on_c, 9, 51, 0
5, 53623, Note_on_c, 9, 51, 40
5, 53662, Note_on_c, 9, 51, 0
5, 53720, Note_on_c, 9, 35, 32
5, 53724, Note_on_c, 9, 35, 0
5, 53728, Note_on_c, 9, 51, 53
5, 53809, Note_on_c, 9, 51, 0
5, 54009, Note_on_c, 9, 51, 45
5, 54039, Note_on_c, 9, 51, 0
5, 54104, Note_on_c, 9, 44, 40
5, 54108, Note_on_c, 9, 35, 32
5, 54112, Note_on_c, 9, 35, 0
5, 54112, Note_on_c, 9, 44, 0
5, 54112, Note_on_c, 9, 51, 50
5, 54226, Note_on_c, 9, 51, 0
5, 54411, Note_on_c, 9, 51, 47
5, 54441, Note_on_c, 9, 51, 0
5, 54484, Note_on_c, 9, 35, 32
5, 54496, Note_on_c, 9, 35, 0
5, 54522, Note_on_c, 9, 51, 52
5, 54595, Note_on_c, 9, 51, 0
5, 54782, Note_on_c, 9, 51, 42
5, 54812, Note_on_c, 9, 51, 0
5, 54870, Note_on_c, 9, 51, 42
5, 54872, Note_on_c, 9, 35, 32
5, 54876, Note_on_c, 9, 44, 40
5, 54884, Note_on_c, 9, 44, 0
5, 54888, Note_on_c, 9, 35, 0
5, 54904, Note_on_c, 9, 37, 55
5, 54950, Note_on_c, 9, 37, 0
5, 54964, Note_on_c, 9, 51, 0
5, 55163, Note_on_c, 9, 51, 25
5, 55193, Note_on_c, 9, 51, 0
5, 55243, Note_on_c, 9, 51, 47
5, 55252, Note_on_c, 9, 35, 32
5, 55260, Note_on_c, 9, 35, 0
5, 55344, Note_on_c, 9, 51, 0
5, 55628, Note_on_c, 9, 51, 60
5, 55640, Note_on_c, 9, 44, 40
5, 55640, Note_on_c, 9, 35, 32
5, 55648, Note_on_c, 9, 35, 0
5, 55648, Note_on_c, 9, 44, 0
5, 55722, Note_on_c, 9, 51, 0
5, 56020, Note_on_c, 9, 35, 32
5, 56028, Note_on_c, 9, 35, 0
5, 56031, Note_on_c, 9, 51, 59
5, 56111, Note_on_c, 9, 51, 0
5, 56407, Note_on_c, 9, 51, 63
5, 56408, Note_on_c, 9, 35, 32
5, 56424, Note_on_c, 9, 35, 0
5, 56425, Note_on_c, 9, 37, 84
5, 56492, Note_on_c, 9, 51, 0
5, 56518, Note_on_c, 9, 37, 0
5, 56681, Note_on_c, 9, 51, 34
5, 56734, Note_on_c, 9, 51, 0
5, 56796, Note_on_c, 9, 35, 25
5, 56803, Note_on_c, 9, 51, 48
5, 56812, Note_on_c, 9, 35, 0
5, 56882, Note_on_c, 9, 51, 0
5, 57065, Note_on_c, 9, 51, 45
5, 57108, Note_on_c, 9, 51, 0
5, 57172, Note_on_c, 9, 51, 54
5, 57180, Note_on_c, 9, 44, 40
5, 57180, Note_on_c, 9, 35, 32
5, 57196, Note_on_c, 9, 35, 0
5, 57196, Note_on_c, 9, 44, 0
5, 57277, Note_on_c, 9, 51, 0
5, 57564, Note_on_c, 9, 35, 32
5, 57572, Note_on_c, 9, 35, 0
5, 57579, Note_on_c, 9, 51, 58
5, 57647, Note_on_c, 9, 51, 0
5, 57851, Note_on_c, 9, 51, 14
5, 57881, Note_on_c, 9, 51, 0
5, 57938, Note_on_c, 9, 51, 57
5, 57940, Note_on_c, 9, 35, 32
5, 57948, Note_on_c, 9, 44, 40
5, 57952, Note_on_c, 9, 35, 0
5, 57956, Note_on_c, 9, 44, 0
5, 57956, Note_on_c, 9, 37, 75
5, 58053, Note_on_c, 9, 37, 0
5, 58065, Note_on_c, 9, 51, 0
5, 58205, Note_on_c, 9, 51, 27
5, 58235, Note_on_c, 9, 51, 0
5, 58328, Note_on_c, 9, 35, 32
5, 58332, Note_on_c, 9, 35, 0
5, 58332, Note_on_c, 9, 51, 22
5, 58375, Note_on_c, 9, 51, 0
5, 58579, Note_on_c, 9, 51, 60
5, 58635, Note_on_c, 9, 51, 0
5, 58708, Note_on_c, 9, 35, 32
5, 58712, Note_on_c, 9, 51, 62
5, 58716, Note_on_c, 9, 35, 0
5, 58716, Note_on_c, 9, 44, 40
5, 58720, Note_on_c, 9, 44, 0
5, 58827, Note_on_c, 9, 51, 0
5, 58969, Note_on_c, 9, 51, 32
5, 58999, Note_on_c, 9, 51, 0
5, 59082, Note_on_c, 9, 51, 31
5, 59096, Note_on_c, 9, 35, 32
5, 59100, Note_on_c, 9, 35, 0
5, 59138, Note_on_c, 9, 51, 0
5, 59363, Note_on_c, 9, 51, 63
5, 59422, Note_on_c, 9, 51, 0
5, 59463, Note_on_c, 9, 37, 75
5, 59479, Note_on_c, 9, 51, 57
5, 59484, Note_on_c, 9, 44, 40
5, 59484, Note_on_c, 9, 35, 32
5, 59496, Note_on_c, 9, 35, 0
5, 59496, Note_on_c, 9, 44, 0
5, 59587, Note_on_c, 9, 51, 0
5, 59588, Note_on_c, 9, 37, 0
5, 59731, Note_on_c, 9, 51, 34
5, 59761, Note_on_c, 9, 51, 0
5, 59852, Note_on_c, 9, 51, 44
5, 59860, Note_on_c, 9, 35, 32
5, 59872, Note_on_c, 9, 35, 0
5, 59928, Note_on_c, 9, 51, 0
5, 60127, Note_on_c, 9, 51, 53
5, 60174, Note_on_c, 9, 51, 0
5, 60244, Note_on_c, 9, 44, 40
5, 60250, Note_on_c, 9, 51, 54
5, 60252, Note_on_c, 9, 35, 32
5, 60256, Note_on_c, 9, 35, 0
5, 60256, Note_on_c, 9, 44, 0
5, 60336, Note_on_c, 9, 51, 0
5, 60506, Note_on_c, 9, 51, 27
5, 60536, Note_on_c, 9, 51, 0
5, 60614, Note_on_c, 9, 51, 34
5, 60632, Note_on_c, 9, 35, 32
5, 60640, Note_on_c, 9, 35, 0
5, 60687, Note_on_c, 9, 51, 0
5, 60900, Note_on_c, 9, 51, 56
5, 60955, Note_on_c, 9, 51, 0
5, 61011, Note_on_c, 9, 37, 73
5, 61012, Note_on_c, 9, 35, 32
5, 61016, Note_on_c, 9, 44, 40
5, 61020, Note_on_c, 9, 35, 0
5, 61024, Note_on_c, 9, 44, 0
5, 61029, Note_on_c, 9, 51, 54
5, 61112, Note_on_c, 9, 51, 0
5, 61135, Note_on_c, 9, 37, 0
5, 61284, Note_on_c, 9, 51, 39
5, 61315, Note_on_c, 9, 51, 0
5, 61400, Note_on_c, 9, 35, 32
5, 61403, Note_on_c, 9, 51, 44
5, 61408, Note_on_c, 9, 35, 0
5, 61478, Note_on_c, 9, 51, 0
5, 61678, Note_on_c, 9, 51, 51
5, 61727, Note_on_c, 9, 51, 0
5, 61780, Note_on_c, 9, 35, 32
5, 61788, Note_on_c, 9, 44, 40
5, 61791, Note_on_c, 9, 51, 42
5, 61792, Note_on_c, 9, 44, 0
5, 61792, Note_on_c, 9, 35, 0
5, 61903, Note_on_c, 9, 51, 0
5, 62060, Note_on_c, 9, 53, 59
5, 62152, Note_on_c, 9, 53, 0
5, 62164, Note_on_c, 9, 35, 32
5, 62172, Note_on_c, 9, 35, 0
5, 62213, Note_on_c, 9, 51, 13
5, 62322, Note_on_c, 9, 51, 0
5, 62458, Note_on_c, 9, 51, 49
5, 62519, Note_on_c, 9, 51, 0
5, 62540, Note_on_c, 9, 37, 74
5, 62548, Note_on_c, 9, 44, 40
5, 62548, Note_on_c, 9, 35, 32
5, 62560, Note_on_c, 9, 35, 0
5, 62560, Note_on_c, 9, 44, 0
5, 62585, Note_on_c, 9, 51, 42
5, 62658, Note_on_c, 9, 37, 0
5, 62677, Note_on_c, 9, 51, 0
5, 62839, Note_on_c, 9, 51, 36
5, 62869, Note_on_c, 9, 51, 0
5, 62936, Note_on_c, 9, 35, 32
5, 62940, Note_on_c, 9, 35, 0
5, 62948, Note_on_c, 9, 51, 44
5, 63037, Note_on_c, 9, 51, 0
5, 63235, Note_on_c, 9, 51, 55
5, 63281, Note_on_c, 9, 51, 0
5, 63316, Note_on_c, 9, 44, 40
5, 63316, Note_on_c, 9, 35, 32
5, 63332, Note_on_c, 9, 35, 0
5, 63332, Note_on_c, 9, 44, 0
5, 63334, Note_on_c, 9, 51, 51
5, 63402, Note_on_c, 9, 51, 0
5, 63609, Note_on_c, 9, 51, 14
5, 63639, Note_on_c, 9, 51, 0
5, 63701, Note_on_c, 9, 51, 43
5, 63704, Note_on_c, 9, 35, 32
5, 63712, Note_on_c, 9, 35, 0
5, 63777, Note_on_c, 9, 51, 0
5, 63972, Note_on_c, 9, 51, 51
5, 64022, Note_on_c, 9, 51, 0
5, 64082, Note_on_c, 9, 51, 54
5, 64084, Note_on_c, 9, 44, 40
5, 64088, Note_on_c, 9, 35, 32
5, 64100, Note_on_c, 9, 35, 0
5, 64104, Note_on_c, 9, 44, 0
5, 64129, Note_on_c, 9, 37, 73
5, 64183, Note_on_c, 9, 51, 0
5, 64189, Note_on_c, 9, 37, 0
5, 64355, Note_on_c, 9, 51, 42
5, 64392, Note_on_c, 9, 51, 0
5, 64472, Note_on_c, 9, 35, 32
5, 64475, Note_on_c, 9, 51, 39
5, 64476, Note_on_c, 9, 35, 0
5, 64545, Note_on_c, 9, 51, 0
5, 64751, Note_on_c, 9, 51, 49
5, 64781, Note_on_c, 9, 51, 0
5, 64856, Note_on_c, 9, 44, 40
5, 64856, Note_on_c, 9, 35, 32
5, 64869, Note_on_c, 9, 51, 56
5, 64872, Note_on_c, 9, 44, 0
5, 64876, Note_on_c, 9, 35, 0
5, 64948, Note_on_c, 9, 51, 0
5, 65125, Note_on_c, 9, 51, 49
5, 65170, Note_on_c, 9, 51, 0
5, 65241, Note_on_c, 9, 51, 47
5, 65244, Note_on_c, 9, 35, 32
5, 65248, Note_on_c, 9, 35, 0
5, 65338, Note_on_c, 9, 51, 0
5, 65505, Note_on_c, 9, 53, 60
5, 65591, Note_on_c, 9, 53, 0
5, 65598, Note_on_c, 9, 37, 72
5, 65624, Note_on_c, 9, 44, 40
5, 65624, Note_on_c, 9, 35, 32
5, 65636, Note_on_c, 9, 44, 0
5, 65640, Note_on_c, 9, 35, 0
5, 65646, Note_on_c, 9, 51, 33
5, 65706, Note_on_c, 9, 37, 0
5, 65727, Note_on_c, 9, 51, 0
5, 65921, Note_on_c, 9, 53, 67
5, 66008, Note_on_c, 9, 35, 32
5, 66016, Note_on_c, 9, 35, 0
5, 66037, Note_on_c, 9, 53, 0
5, 66055, Note_on_c, 9, 51, 42
5, 66115, Note_on_c, 9, 51, 0
5, 66283, Note_on_c, 9, 51, 58
5, 66348, Note_on_c, 9, 51, 0
5, 66388, Note_on_c, 9, 44, 40
5, 66400, Note_on_c, 9, 44, 0
5, 66400, Note_on_c, 9, 35, 32
5, 66400, Note_on_c, 9, 35, 0
5, 66411, Note_on_c, 9, 51, 43
5, 66500, Note_on_c, 9, 51, 0
5, 66664, Note_on_c, 9, 51, 49
5, 66709, Note_on_c, 9, 51, 0
5, 66772, Note_on_c, 9, 35, 32
5, 66782, Note_on_c, 9, 51, 41
5, 66784, Note_on_c, 9, 35, 0
5, 66867, Note_on_c, 9, 51, 0
5, 67047, Note_on_c, 9, 51, 45
5, 67090, Note_on_c, 9, 51, 0
5, 67135, Note_on_c, 9, 37, 72
5, 67159, Note_on_c, 9, 51, 43
5, 67160, Note_on_c, 9, 35, 32
5, 67176, Note_on_c, 9, 35, 0
5, 67246, Note_on_c, 9, 51, 0
5, 67246, Note_on_c, 9, 37, 0
5, 67426, Note_on_c, 9, 51, 53
5, 67485, Note_on_c, 9, 51, 0
5, 67544, Note_on_c, 9, 35, 32
5, 67548, Note_on_c, 9, 51, 44
5, 67552, Note_on_c, 9, 35, 0
5, 67626, Note_on_c, 9, 51, 0
5, 67811, Note_on_c, 9, 51, 62
5, 67875, Note_on_c, 9, 51, 0
5, 67924, Note_on_c, 9, 35, 32
5, 67932, Note_on_c, 9, 44, 40
5, 67936, Note_on_c, 9, 44, 0
5, 67940, Note_on_c, 9, 35, 0
5, 67952, Note_on_c, 9, 51, 26
5, 68011, Note_on_c, 9, 51, 0
5, 68177, Note_on_c, 9, 51, 51
5, 68219, Note_on_c, 9, 51, 0
5, 68312, Note_on_c, 9, 35, 32
5, 68316, Note_on_c, 9, 35, 0
5, 68324, Note_on_c, 9, 51, 36
5, 68365, Note_on_c, 9, 51, 0
5, 68558, Note_on_c, 9, 51, 54
5, 68607, Note_on_c, 9, 51, 0
5, 68696, Note_on_c, 9, 37, 71
5, 68700, Note_on_c, 9, 44, 40
5, 68700, Note_on_c, 9, 35, 32
5, 68702, Note_on_c, 9, 51, 57
5, 68712, Note_on_c, 9, 35, 0
5, 68712, Note_on_c, 9, 44, 0
5, 68780, Note_on_c, 9, 51, 0
5, 68781, Note_on_c, 9, 37, 0
5, 68958, Note_on_c, 9, 51, 44
5, 68995, Note_on_c, 9, 51, 0
5, 69081, Note_on_c, 9, 51, 39
5, 69084, Note_on_c, 9, 35, 25
5, 69100, Note_on_c, 9, 35, 0
5, 69140, Note_on_c, 9, 51, 0
5, 69329, Note_on_c, 9, 51, 57
5, 69377, Note_on_c, 9, 51, 0
5, 69447, Note_on_c, 9, 51, 54
5, 69468, Note_on_c, 9, 44, 40
5, 69468, Note_on_c, 9, 35, 32
5, 69484, Note_on_c, 9, 35, 0
5, 69484, Note_on_c, 9, 44, 0
5, 69528, Note_on_c, 9, 51, 0
5, 69723, Note_on_c, 9, 51, 44
5, 69757, Note_on_c, 9, 51, 0
5, 69835, Note_on_c, 9, 51, 45
5, 69852, Note_on_c, 9, 35, 32
5, 69868, Note_on_c, 9, 35, 0
5, 69903, Note_on_c, 9, 51, 0
5, 70107, Note_on_c, 9, 51, 57
5, 70160, Note_on_c, 9, 51, 0
5, 70214, Note_on_c, 9, 37, 71
5, 70225, Note_on_c, 9, 51, 42
5, 70228, Note_on_c, 9, 35, 32
5, 70236, Note_on_c, 9, 44, 40
5, 70240, Note_on_c, 9, 35, 0
5, 70244, Note_on_c, 9, 44, 0
5, 70292, Note_on_c, 9, 51, 0
5, 70304, Note_on_c, 9, 37, 0
5, 70476, Note_on_c, 9, 51, 57
5, 70531, Note_on_c, 9, 51, 0
5, 70602, Note_on_c, 9, 51, 49
5, 70612, Note_on_c, 9, 35, 32
5, 70620, Note_on_c, 9, 35, 0
5, 70676, Note_on_c, 9, 51, 0
5, 70976, Note_on_c, 9, 51, 63
5, 70996, Note_on_c, 9, 35, 32
5, 71000, Note_on_c, 9, 35, 0
5, 71004, Note_on_c, 9, 44, 40
5, 71004, Note_on_c, 9, 44, 0
5, 71065, Note_on_c, 9, 51, 0
5, 71365, Note_on_c, 9, 51, 62
5, 71384, Note_on_c, 9, 35, 32
5, 71388, Note_on_c, 9, 35, 0
5, 71453, Note_on_c, 9, 51, 0
5, 71643, Note_on_c, 9, 51, 32
5, 71674, Note_on_c, 9, 51, 0
5, 71743, Note_on_c, 9, 51, 40
5, 71767, Note_on_c, 9, 37, 70
5, 71768, Note_on_c, 9, 35, 32
5, 71780, Note_on_c, 9, 35, 0
5, 71832, Note_on_c, 9, 51, 0
5, 71918, Note_on_c, 9, 37, 0
5, 72030, Note_on_c, 9, 51, 50
5, 72061, Note_on_c, 9, 51, 0
5, 72142, Note_on_c, 9, 51, 49
5, 72148, Note_on_c, 9, 35, 32
5, 72156, Note_on_c, 9, 35, 0
5, 72213, Note_on_c, 9, 51, 0
5, 72402, Note_on_c, 9, 51, 44
5, 72432, Note_on_c, 9, 51, 0
5, 72522, Note_on_c, 9, 51, 54
5, 72532, Note_on_c, 9, 44, 40
5, 72540, Note_on_c, 9, 44, 0
5, 72540, Note_on_c, 9, 35, 32
5, 72540, Note_on_c, 9, 35, 0
5, 72597, Note_on_c, 9, 51, 0
5, 72799, Note_on_c, 9, 51, 39
5, 72829, Note_on_c, 9, 51, 0
5, 72904, Note_on_c, 9, 51, 43
5, 72920, Note_on_c, 9, 35, 32
5, 72928, Note_on_c, 9, 35, 0
5, 73010, Note_on_c, 9, 51, 0
5, 73169, Note_on_c, 9, 53, 49
5, 73237, Note_on_c, 9, 53, 0
5, 73268, Note_on_c, 9, 37, 68
5, 73273, Note_on_c, 9, 51, 44
5, 73300, Note_on_c, 9, 35, 32
5, 73304, Note_on_c, 9, 44, 40
5, 73308, Note_on_c, 9, 35, 0
5, 73312, Note_on_c, 9, 44, 0
5, 73348, Note_on_c, 9, 51, 0
5, 73389, Note_on_c, 9, 37, 0
5, 73538, Note_on_c, 9, 51, 49
5, 73570, Note_on_c, 9, 51, 0
5, 73677, Note_on_c, 9, 51, 45
5, 73688, Note_on_c, 9, 35, 32
5, 73696, Note_on_c, 9, 35, 0
5, 73740, Note_on_c, 9, 51, 0
5, 73953, Note_on_c, 9, 53, 58
5, 74019, Note_on_c, 9, 53, 0
5, 74068, Note_on_c, 9, 35, 32
5, 74076, Note_on_c, 9, 44, 40
5, 74084, Note_on_c, 9, 44, 0
5, 74084, Note_on_c, 9, 35, 0
5, 74086, Note_on_c, 9, 51, 37
5, 74154, Note_on_c, 9, 51, 0
5, 74339, Note_on_c, 9, 51, 54
5, 74392, Note_on_c, 9, 51, 0
5, 74452, Note_on_c, 9, 35, 32
5, 74464, Note_on_c, 9, 35, 0
5, 74465, Note_on_c, 9, 51, 47
5, 74535, Note_on_c, 9, 51, 0
5, 74706, Note_on_c, 9, 51, 53
5, 74764, Note_on_c, 9, 51, 0
5, 74821, Note_on_c, 9, 37, 67
5, 74836, Note_on_c, 9, 44, 40
5, 74840, Note_on_c, 9, 35, 32
5, 74847, Note_on_c, 9, 51, 36
5, 74848, Note_on_c, 9, 35, 0
5, 74848, Note_on_c, 9, 44, 0
5, 74914, Note_on_c, 9, 51, 0
5, 74926, Note_on_c, 9, 37, 0
5, 74963, Note_on_c, 9, 51, 54
5, 75022, Note_on_c, 9, 51, 0
5, 75098, Note_on_c, 9, 51, 63
5, 75209, Note_on_c, 9, 51, 0
5, 75224, Note_on_c, 9, 35, 32
5, 75228, Note_on_c, 9, 35, 0
5, 75359, Note_on_c, 9, 51, 42
5, 75389, Note_on_c, 9, 51, 0
5, 75497, Note_on_c, 9, 51, 56
5, 75567, Note_on_c, 9, 51, 0
5, 75604, Note_on_c, 9, 44, 40
5, 75604, Note_on_c, 9, 35, 32
5, 75618, Note_on_c, 9, 51, 63
5, 75624, Note_on_c, 9, 35, 0
5, 75628, Note_on_c, 9, 44, 0
5, 75778, Note_on_c, 9, 51, 0
5, 75840, Note_on_c, 9, 41, 60
5, 75877, Note_on_c, 9, 41, 0
5, 75988, Note_on_c, 9, 35, 32
5, 75996, Note_on_c, 9, 35, 0
5, 76000, Note_on_c, 9, 51, 63
5, 76129, Note_on_c, 9, 51, 0
5, 76354, Note_on_c, 9, 51, 65
5, 76366, Note_on_c, 9, 37, 67
5, 76376, Note_on_c, 9, 44, 40
5, 76376, Note_on_c, 9, 35, 32
5, 76392, Note_on_c, 9, 35, 0
5, 76392, Note_on_c, 9, 44, 0
5, 76439, Note_on_c, 9, 37, 0
5, 76445, Note_on_c, 9, 51, 0
5, 76632, Note_on_c, 9, 51, 33
5, 76665, Note_on_c, 9, 51, 0
5, 76748, Note_on_c, 9, 51, 36
5, 76760, Note_on_c, 9, 35, 32
5, 76764, Note_on_c, 9, 35, 0
5, 76823, Note_on_c, 9, 51, 0
5, 77005, Note_on_c, 9, 51, 53
5, 77063, Note_on_c, 9, 51, 0
5, 77117, Note_on_c, 9, 43, 44
5, 77126, Note_on_c, 9, 51, 44
5, 77144, Note_on_c, 9, 44, 40
5, 77144, Note_on_c, 9, 35, 32
5, 77153, Note_on_c, 9, 43, 0
5, 77160, Note_on_c, 9, 35, 0
5, 77160, Note_on_c, 9, 44, 0
5, 77201, Note_on_c, 9, 51, 0
5, 77378, Note_on_c, 9, 43, 90
5, 77391, Note_on_c, 9, 51, 56
5, 77435, Note_on_c, 9, 43, 0
5, 77448, Note_on_c, 9, 51, 0
5, 77519, Note_on_c, 9, 51, 34
5, 77528, Note_on_c, 9, 35, 32
5, 77532, Note_on_c, 9, 35, 0
5, 77580, Note_on_c, 9, 51, 0
5, 77754, Note_on_c, 9, 51, 57
5, 77809, Note_on_c, 9, 51, 0
5, 77878, Note_on_c, 9, 37, 71
5, 77884, Note_on_c, 9, 51, 51
5, 77916, Note_on_c, 9, 44, 40
5, 77916, Note_on_c, 9, 35, 32
5, 77924, Note_on_c, 9, 44, 0
5, 77928, Note_on_c, 9, 35, 0
5, 77955, Note_on_c, 9, 51, 0
5, 77972, Note_on_c, 9, 37, 0
5, 78168, Note_on_c, 9, 51, 32
5, 78198, Note_on_c, 9, 51, 0
5, 78274, Note_on_c, 9, 51, 47
5, 78296, Note_on_c, 9, 35, 32
5, 78304, Note_on_c, 9, 35, 0
5, 78349, Note_on_c, 9, 51, 0
5, 78552, Note_on_c, 9, 51, 40
5, 78582, Note_on_c, 9, 51, 0
5, 78644, Note_on_c, 9, 43, 55
5, 78663, Note_on_c, 9, 51, 49
5, 78673, Note_on_c, 9, 43, 0
5, 78684, Note_on_c, 9, 44, 40
5, 78684, Note_on_c, 9, 35, 32
5, 78688, Note_on_c, 9, 35, 0
5, 78692, Note_on_c, 9, 44, 0
5, 78734, Note_on_c, 9, 51, 0
5, 78914, Note_on_c, 9, 43, 85
5, 78944, Note_on_c, 9, 51, 51
5, 78967, Note_on_c, 9, 43, 0
5, 78988, Note_on_c, 9, 51, 0
5, 79060, Note_on_c, 9, 35, 32
5, 79072, Note_on_c, 9, 35, 0
5, 79075, Note_on_c, 9, 51, 53
5, 79146, Note_on_c, 9, 51, 0
5, 79314, Note_on_c, 9, 51, 54
5, 79367, Note_on_c, 9, 51, 0
5, 79434, Note_on_c, 9, 37, 67
5, 79444, Note_on_c, 9, 51, 49
5, 79444, Note_on_c, 9, 35, 32
5, 79448, Note_on_c, 9, 44, 40
5, 79452, Note_on_c, 9, 44, 0
5, 79456, Note_on_c, 9, 35, 0
5, 79511, Note_on_c, 9, 51, 0
5, 79531, Note_on_c, 9, 37, 0
5, 79714, Note_on_c, 9, 51, 47
5, 79750, Note_on_c, 9, 51, 0
5, 79826, Note_on_c, 9, 51, 49
5, 79832, Note_on_c, 9, 35, 32
5, 79844, Note_on_c, 9, 35, 0
5, 79894, Note_on_c, 9, 51, 0
5, 80098, Note_on_c, 9, 51, 51
5, 80130, Note_on_c, 9, 51, 0
5, 80198, Note_on_c, 9, 43, 6
5, 80212, Note_on_c, 9, 51, 48
5, 80212, Note_on_c, 9, 35, 32
5, 80220, Note_on_c, 9, 44, 40
5, 80220, Note_on_c, 9, 44, 0
5, 80223, Note_on_c, 9, 43, 0
5, 80224, Note_on_c, 9, 35, 0
5, 80273, Note_on_c, 9, 51, 0
5, 80450, Note_on_c, 9, 43, 95
5, 80483, Note_on_c, 9, 51, 57
5, 80513, Note_on_c, 9, 43, 0
5, 80538, Note_on_c, 9, 51, 0
5, 80596, Note_on_c, 9, 35, 32
5, 80597, Note_on_c, 9, 51, 49
5, 80604, Note_on_c, 9, 35, 0
5, 80672, Note_on_c, 9, 51, 0
5, 80846, Note_on_c, 9, 51, 47
5, 80880, Note_on_c, 9, 51, 0
5, 80959, Note_on_c, 9, 51, 54
5, 80962, Note_on_c, 9, 37, 59
5, 80984, Note_on_c, 9, 35, 32
5, 80992, Note_on_c, 9, 35, 0
5, 81034, Note_on_c, 9, 37, 0
5, 81040, Note_on_c, 9, 51, 0
5, 81235, Note_on_c, 9, 51, 57
5, 81282, Note_on_c, 9, 51, 0
5, 81351, Note_on_c, 9, 51, 55
5, 81372, Note_on_c, 9, 35, 25
5, 81380, Note_on_c, 9, 35, 0
5, 81427, Note_on_c, 9, 51, 0
5, 81636, Note_on_c, 9, 51, 49
5, 81665, Note_on_c, 9, 51, 0
5, 81747, Note_on_c, 9, 43, 38
5, 81751, Note_on_c, 9, 51, 57
5, 81756, Note_on_c, 9, 44, 40
5, 81764, Note_on_c, 9, 35, 32
5, 81769, Note_on_c, 9, 43, 0
5, 81772, Note_on_c, 9, 35, 0
5, 81772, Note_on_c, 9, 44, 0
5, 81818, Note_on_c, 9, 51, 0
5, 81990, Note_on_c, 9, 43, 88
5, 82018, Note_on_c, 9, 51, 54
5, 82054, Note_on_c, 9, 43, 0
5, 82058, Note_on_c, 9, 51, 0
5, 82130, Note_on_c, 9, 51, 50
5, 82140, Note_on_c, 9, 35, 32
5, 82156, Note_on_c, 9, 35, 0
5, 82195, Note_on_c, 9, 51, 0
5, 82382, Note_on_c, 9, 51, 50
5, 82413, Note_on_c, 9, 51, 0
5, 82493, Note_on_c, 9, 51, 49
5, 82497, Note_on_c, 9, 37, 64
5, 82516, Note_on_c, 9, 35, 32
5, 82528, Note_on_c, 9, 35, 0
5, 82528, Note_on_c, 9, 44, 40
5, 82532, Note_on_c, 9, 44, 0
5, 82554, Note_on_c, 9, 51, 0
5, 82573, Note_on_c, 9, 37, 0
5, 82779, Note_on_c, 9, 51, 58
5, 82831, Note_on_c, 9, 51, 0
5, 82889, Note_on_c, 9, 51, 50
5, 82904, Note_on_c, 9, 35, 32
5, 82908, Note_on_c, 9, 35, 0
5, 82949, Note_on_c, 9, 51, 0
5, 83259, Note_on_c, 9, 51, 66
5, 83266, Note_on_c, 9, 43, 31
5, 83275, Note_on_c, 9, 41, 15
5, 83288, Note_on_c, 9, 35, 32
5, 83292, Note_on_c, 9, 35, 0
5, 83292, Note_on_c, 9, 44, 40
5, 83300, Note_on_c, 9, 44, 0
5, 83303, Note_on_c, 9, 41, 0
5, 83310, Note_on_c, 9, 43, 0
5, 83322, Note_on_c, 9, 51, 0
5, 83524, Note_on_c, 9, 41, 58
5, 83525, Note_on_c, 9, 43, 48
5, 83541, Note_on_c, 9, 51, 55
5, 83571, Note_on_c, 9, 41, 0
5, 83576, Note_on_c, 9, 43, 0
5, 83584, Note_on_c, 9, 51, 0
5, 83666, Note_on_c, 9, 51, 57
5, 83676, Note_on_c, 9, 35, 32
5, 83680, Note_on_c, 9, 35, 0
5, 83728, Note_on_c, 9, 51, 0
5, 83920, Note_on_c, 9, 51, 55
5, 83972, Note_on_c, 9, 51, 0
5, 84037, Note_on_c, 9, 51, 51
5, 84038, Note_on_c, 9, 37, 66
5, 84056, Note_on_c, 9, 44, 40
5, 84056, Note_on_c, 9, 35, 32
5, 84068, Note_on_c, 9, 35, 0
5, 84068, Note_on_c, 9, 44, 0
5, 84103, Note_on_c, 9, 37, 0
5, 84103, Note_on_c, 9, 51, 0
5, 84292, Note_on_c, 9, 51, 51
5, 84335, Note_on_c, 9, 51, 0
5, 84410, Note_on_c, 9, 51, 52
5, 84440, Note_on_c, 9, 35, 32
5, 84444, Note_on_c, 9, 35, 0
5, 84477, Note_on_c, 9, 51, 0
5, 84685, Note_on_c, 9, 51, 51
5, 84728, Note_on_c, 9, 51, 0
5, 84798, Note_on_c, 9, 51, 51
5, 84817, Note_on_c, 9, 45, 15
5, 84820, Note_on_c, 9, 44, 40
5, 84832, Note_on_c, 9, 35, 32
5, 84832, Note_on_c, 9, 35, 0
5, 84836, Note_on_c, 9, 44, 0
5, 84844, Note_on_c, 9, 45, 0
5, 84889, Note_on_c, 9, 51, 0
5, 85066, Note_on_c, 9, 45, 74
5, 85067, Note_on_c, 9, 53, 58
5, 85113, Note_on_c, 9, 45, 0
5, 85140, Note_on_c, 9, 53, 0
5, 85190, Note_on_c, 9, 51, 44
5, 85208, Note_on_c, 9, 35, 32
5, 85212, Note_on_c, 9, 35, 0
5, 85259, Note_on_c, 9, 51, 0
5, 85462, Note_on_c, 9, 51, 54
5, 85515, Note_on_c, 9, 51, 0
5, 85586, Note_on_c, 9, 51, 51
5, 85588, Note_on_c, 9, 37, 61
5, 85592, Note_on_c, 9, 35, 32
5, 85596, Note_on_c, 9, 35, 0
5, 85596, Note_on_c, 9, 44, 40
5, 85600, Note_on_c, 9, 44, 0
5, 85654, Note_on_c, 9, 37, 0
5, 85656, Note_on_c, 9, 51, 0
5, 85841, Note_on_c, 9, 51, 56
5, 85888, Note_on_c, 9, 51, 0
5, 85970, Note_on_c, 9, 51, 54
5, 85976, Note_on_c, 9, 35, 32
5, 85980, Note_on_c, 9, 35, 0
5, 86043, Note_on_c, 9, 51, 0
5, 86241, Note_on_c, 9, 51, 49
5, 86285, Note_on_c, 9, 51, 0
5, 86356, Note_on_c, 9, 35, 32
5, 86363, Note_on_c, 9, 51, 51
5, 86364, Note_on_c, 9, 44, 40
5, 86364, Note_on_c, 9, 44, 0
5, 86368, Note_on_c, 9, 35, 0
5, 86404, Note_on_c, 9, 43, 30
5, 86404, Note_on_c, 9, 43, 0
5, 86446, Note_on_c, 9, 51, 0
5, 86619, Note_on_c, 9, 51, 52
5, 86621, Note_on_c, 9, 43, 72
5, 86668, Note_on_c, 9, 51, 0
5, 86669, Note_on_c, 9, 43, 0
5, 86740, Note_on_c, 9, 35, 32
5, 86745, Note_on_c, 9, 51, 57
5, 86748, Note_on_c, 9, 35, 0
5, 86813, Note_on_c, 9, 51, 0
5, 86994, Note_on_c, 9, 51, 61
5, 87048, Note_on_c, 9, 51, 0
5, 87112, Note_on_c, 9, 51, 51
5, 87124, Note_on_c, 9, 44, 40
5, 87128, Note_on_c, 9, 35, 32
5, 87136, Note_on_c, 9, 37, 63
5, 87140, Note_on_c, 9, 35, 0
5, 87140, Note_on_c, 9, 44, 0
5, 87179, Note_on_c, 9, 51, 0
5, 87201, Note_on_c, 9, 37, 0
5, 87375, Note_on_c, 9, 51, 63
5, 87424, Note_on_c, 9, 51, 0
5, 87501, Note_on_c, 9, 51, 52
5, 87512, Note_on_c, 9, 35, 32
5, 87516, Note_on_c, 9, 35, 0
5, 87552, Note_on_c, 9, 35, 25
5, 87560, Note_on_c, 9, 35, 0
5, 87568, Note_on_c, 9, 51, 0
5, 87769, Note_on_c, 9, 51, 49
5, 87806, Note_on_c, 9, 51, 0
5, 87877, Note_on_c, 9, 51, 55
5, 87900, Note_on_c, 9, 44, 40
5, 87900, Note_on_c, 9, 35, 32
5, 87904, Note_on_c, 9, 44, 0
5, 87908, Note_on_c, 9, 35, 0
5, 87929, Note_on_c, 9, 43, 10
5, 87948, Note_on_c, 9, 51, 0
5, 87954, Note_on_c, 9, 43, 0
5, 88170, Note_on_c, 9, 43, 51
5, 88175, Note_on_c, 9, 51, 52
5, 88194, Note_on_c, 9, 43, 0
5, 88211, Note_on_c, 9, 51, 0
5, 88284, Note_on_c, 9, 35, 32
5, 88296, Note_on_c, 9, 51, 53
5, 88300, Note_on_c, 9, 35, 0
5, 88360, Note_on_c, 9, 51, 0
5, 88547, Note_on_c, 9, 51, 63
5, 88600, Note_on_c, 9, 51, 0
5, 88663, Note_on_c, 9, 37, 66
5, 88664, Note_on_c, 9, 35, 32
5, 88668, Note_on_c, 9, 44, 40
5, 88671, Note_on_c, 9, 51, 49
5, 88672, Note_on_c, 9, 35, 0
5, 88676, Note_on_c, 9, 44, 0
5, 88747, Note_on_c, 9, 51, 0
5, 88765, Note_on_c, 9, 37, 0
5, 88946, Note_on_c, 9, 51, 54
5, 89048, Note_on_c, 9, 35, 32
5, 89052, Note_on_c, 9, 35, 0
5, 89075, Note_on_c, 9, 51, 0
5, 89075, Note_on_c, 9, 51, 51
5, 89152, Note_on_c, 9, 51, 0
5, 89345, Note_on_c, 9, 51, 47
5, 89380, Note_on_c, 9, 51, 0
5, 89432, Note_on_c, 9, 35, 32
5, 89432, Note_on_c, 9, 35, 0
5, 89436, Note_on_c, 9, 44, 40
5, 89436, Note_on_c, 9, 44, 0
5, 89459, Note_on_c, 9, 43, 28
5, 89459, Note_on_c, 9, 43, 0
5, 89472, Note_on_c, 9, 51, 52
5, 89532, Note_on_c, 9, 51, 0
5, 89707, Note_on_c, 9, 43, 50
5, 89719, Note_on_c, 9, 51, 47
5, 89741, Note_on_c, 9, 43, 0
5, 89749, Note_on_c, 9, 51, 0
5, 89816, Note_on_c, 9, 35, 32
5, 89820, Note_on_c, 9, 35, 0
5, 89841, Note_on_c, 9, 51, 52
5, 89900, Note_on_c, 9, 51, 0
5, 90108, Note_on_c, 9, 51, 54
5, 90150, Note_on_c, 9, 51, 0
5, 90200, Note_on_c, 9, 44, 40
5, 90204, Note_on_c, 9, 35, 32
5, 90210, Note_on_c, 9, 37, 67
5, 90212, Note_on_c, 9, 35, 0
5, 90215, Note_on_c, 9, 51, 49
5, 90216, Note_on_c, 9, 44, 0
5, 90279, Note_on_c, 9, 51, 0
5, 90283, Note_on_c, 9, 37, 0
5, 90480, Note_on_c, 9, 51, 49
5, 90513, Note_on_c, 9, 51, 0
5, 90580, Note_on_c, 9, 35, 32
5, 90592, Note_on_c, 9, 35, 0
5, 90594, Note_on_c, 9, 51, 53
5, 90663, Note_on_c, 9, 51, 0
5, 90847, Note_on_c, 9, 51, 44
5, 90877, Note_on_c, 9, 51, 0
5, 90964, Note_on_c, 9, 44, 40
5, 90967, Note_on_c, 9, 51, 57
5, 90972, Note_on_c, 9, 35, 32
5, 90976, Note_on_c, 9, 35, 0
5, 90976, Note_on_c, 9, 44, 0
5, 90995, Note_on_c, 9, 43, 14
5, 91032, Note_on_c, 9, 51, 0
5, 91076, Note_on_c, 9, 43, 0
5, 91245, Note_on_c, 9, 43, 75
5, 91272, Note_on_c, 9, 51, 62
5, 91295, Note_on_c, 9, 43, 0
5, 91323, Note_on_c, 9, 51, 0
5, 91352, Note_on_c, 9, 35, 32
5, 91356, Note_on_c, 9, 35, 0
5, 91371, Note_on_c, 9, 51, 56
5, 91465, Note_on_c, 9, 51, 0
5, 91606, Note_on_c, 9, 53, 64
5, 91693, Note_on_c, 9, 53, 0
5, 91732, Note_on_c, 9, 35, 32
5, 91736, Note_on_c, 9, 44, 40
5, 91740, Note_on_c, 9, 35, 0
5, 91744, Note_on_c, 9, 44, 0
5, 91745, Note_on_c, 9, 37, 56
5, 91802, Note_on_c, 9, 51, 42
5, 91805, Note_on_c, 9, 51, 0
5, 91810, Note_on_c, 9, 37, 0
5, 91982, Note_on_c, 9, 51, 58
5, 92041, Note_on_c, 9, 51, 0
5, 92114, Note_on_c, 9, 51, 48
5, 92120, Note_on_c, 9, 35, 32
5, 92132, Note_on_c, 9, 35, 0
5, 92193, Note_on_c, 9, 51, 0
5, 92363, Note_on_c, 9, 51, 42
5, 92394, Note_on_c, 9, 51, 0
5, 92499, Note_on_c, 9, 43, 35
5, 92500, Note_on_c, 9, 35, 32
5, 92504, Note_on_c, 9, 44, 40
5, 92506, Note_on_c, 9, 51, 54
5, 92508, Note_on_c, 9, 44, 0
5, 92512, Note_on_c, 9, 35, 0
5, 92525, Note_on_c, 9, 43, 0
5, 92560, Note_on_c, 9, 51, 0
5, 92756, Note_on_c, 9, 51, 49
5, 92759, Note_on_c, 9, 43, 67
5, 92796, Note_on_c, 9, 51, 0
5, 92873, Note_on_c, 9, 43, 0
5, 92879, Note_on_c, 9, 51, 57
5, 92884, Note_on_c, 9, 35, 32
5, 92892, Note_on_c, 9, 35, 0
5, 92953, Note_on_c, 9, 51, 0
5, 93148, Note_on_c, 9, 51, 52
5, 93181, Note_on_c, 9, 51, 0
5, 93253, Note_on_c, 9, 37, 63
5, 93272, Note_on_c, 9, 35, 32
5, 93273, Note_on_c, 9, 51, 54
5, 93280, Note_on_c, 9, 35, 0
5, 93331, Note_on_c, 9, 37, 0
5, 93334, Note_on_c, 9, 51, 0
5, 93532, Note_on_c, 9, 51, 39
5, 93567, Note_on_c, 9, 51, 0
5, 93654, Note_on_c, 9, 51, 59
5, 93656, Note_on_c, 9, 35, 32
5, 93664, Note_on_c, 9, 35, 0
5, 93716, Note_on_c, 9, 51, 0
5, 93920, Note_on_c, 9, 51, 58
5, 93969, Note_on_c, 9, 51, 0
5, 94020, Note_on_c, 9, 43, 31
5, 94040, Note_on_c, 9, 44, 40
5, 94040, Note_on_c, 9, 35, 32
5, 94047, Note_on_c, 9, 51, 54
5, 94056, Note_on_c, 9, 35, 0
5, 94056, Note_on_c, 9, 44, 0
5, 94077, Note_on_c, 9, 43, 0
5, 94109, Note_on_c, 9, 51, 0
5, 94305, Note_on_c, 9, 43, 43
5, 94306, Note_on_c, 9, 51, 55
5, 94344, Note_on_c, 9, 51, 0
5, 94354, Note_on_c, 9, 43, 0
5, 94424, Note_on_c, 9, 35, 32
5, 94430, Note_on_c, 9, 51, 51
5, 94432, Note_on_c, 9, 35, 0
5, 94487, Note_on_c, 9, 51, 0
5, 94692, Note_on_c, 9, 51, 64
5, 94743, Note_on_c, 9, 51, 0
5, 94797, Note_on_c, 9, 37, 67
5, 94808, Note_on_c, 9, 44, 40
5, 94808, Note_on_c, 9, 35, 32
5, 94814, Note_on_c, 9, 51, 52
5, 94820, Note_on_c, 9, 35, 0
5, 94824, Note_on_c, 9, 44, 0
5, 94864, Note_on_c, 9, 37, 0
5, 94889, Note_on_c, 9, 51, 0
5, 95063, Note_on_c, 9, 53, 65
5, 95136, Note_on_c, 9, 53, 0
5, 95183, Note_on_c, 9, 51, 49
5, 95192, Note_on_c, 9, 35, 32
5, 95200, Note_on_c, 9, 35, 0
5, 95280, Note_on_c, 9, 51, 0
5, 95443, Note_on_c, 9, 51, 57
5, 95500, Note_on_c, 9, 51, 0
5, 95571, Note_on_c, 9, 51, 50
5, 95576, Note_on_c, 9, 44, 40
5, 95576, Note_on_c, 9, 35, 32
5, 95584, Note_on_c, 9, 44, 0
5, 95588, Note_on_c, 9, 35, 0
5, 95650, Note_on_c, 9, 51, 0
5, 95833, Note_on_c, 9, 53, 59
5, 95835, Note_on_c, 9, 43, 9
5, 95859, Note_on_c, 9, 43, 0
5, 95902, Note_on_c, 9, 53, 0
5, 95959, Note_on_c, 9, 51, 47
5, 95960, Note_on_c, 9, 35, 32
5, 95968, Note_on_c, 9, 35, 0
5, 96017, Note_on_c, 9, 51, 0
5, 96217, Note_on_c, 9, 51, 47
5, 96250, Note_on_c, 9, 51, 0
5, 96344, Note_on_c, 9, 44, 40
5, 96344, Note_on_c, 9, 35, 32
5, 96356, Note_on_c, 9, 35, 0
5, 96356, Note_on_c, 9, 44, 0
5, 96367, Note_on_c, 9, 51, 55
5, 96423, Note_on_c, 9, 51, 0
5, 96606, Note_on_c, 9, 53, 64
5, 96679, Note_on_c, 9, 53, 0
5, 96728, Note_on_c, 9, 35, 32
5, 96732, Note_on_c, 9, 35, 0
5, 96746, Note_on_c, 9, 51, 57
5, 96811, Note_on_c, 9, 51, 0
5, 96993, Note_on_c, 9, 51, 57
5, 97048, Note_on_c, 9, 51, 0
5, 97112, Note_on_c, 9, 44, 40
5, 97116, Note_on_c, 9, 35, 32
5, 97120, Note_on_c, 9, 35, 0
5, 97120, Note_on_c, 9, 44, 0
5, 97127, Note_on_c, 9, 51, 49
5, 97187, Note_on_c, 9, 51, 0
5, 97374, Note_on_c, 9, 51, 54
5, 97411, Note_on_c, 9, 51, 0
5, 97492, Note_on_c, 9, 35, 32
5, 97504, Note_on_c, 9, 35, 0
5, 97514, Note_on_c, 9, 51, 54
5, 97565, Note_on_c, 9, 51, 0
5, 97748, Note_on_c, 9, 51, 56
5, 97801, Note_on_c, 9, 51, 0
5, 97877, Note_on_c, 9, 51, 45
5, 97880, Note_on_c, 9, 35, 32
5, 97884, Note_on_c, 9, 44, 40
5, 97892, Note_on_c, 9, 44, 0
5, 97896, Note_on_c, 9, 35, 0
5, 97937, Note_on_c, 9, 51, 0
5, 98117, Note_on_c, 9, 46, 40
5, 98133, Note_on_c, 9, 53, 64
5, 98146, Note_on_c, 9, 46, 0
5, 98158, Note_on_c, 9, 40, 38
5, 98203, Note_on_c, 9, 53, 0
5, 98213, Note_on_c, 9, 40, 0
5, 98260, Note_on_c, 9, 35, 32
5, 98261, Note_on_c, 9, 51, 49
5, 98268, Note_on_c, 9, 35, 0
5, 98328, Note_on_c, 9, 51, 0
5, 98510, Note_on_c, 9, 51, 44
5, 98542, Note_on_c, 9, 40, 62
5, 98548, Note_on_c, 9, 51, 0
5, 98599, Note_on_c, 9, 40, 0
5, 98646, Note_on_c, 9, 51, 42
5, 98648, Note_on_c, 9, 44, 40
5, 98648, Note_on_c, 9, 35, 32
5, 98656, Note_on_c, 9, 35, 0
5, 98656, Note_on_c, 9, 44, 0
5, 98706, Note_on_c, 9, 51, 0
5, 98891, Note_on_c, 9, 40, 63
5, 98946, Note_on_c, 9, 40, 0
5, 98997, Note_on_c, 9, 53, 51
5, 99028, Note_on_c, 9, 35, 32
5, 99036, Note_on_c, 9, 35, 0
5, 99058, Note_on_c, 9, 53, 0
5, 99266, Note_on_c, 9, 51, 61
5, 99335, Note_on_c, 9, 51, 0
5, 99413, Note_on_c, 9, 59, 60
5, 99416, Note_on_c, 9, 35, 32
5, 99432, Note_on_c, 9, 35, 0
5, 99462, Note_on_c, 9, 59, 0
5, 99649, Note_on_c, 9, 59, 70
5, 99664, Note_on_c, 9, 34, 54
5, 99682, Note_on_c, 9, 57, 60
5, 99702, Note_on_c, 9, 59, 0
5, 99741, Note_on_c, 9, 57, 0
5, 99777, Note_on_c, 9, 59, 46
5, 99782, Note_on_c, 9, 34, 0
5, 99804, Note_on_c, 9, 35, 25
5, 99820, Note_on_c, 9, 35, 0
5, 99926, Note_on_c, 9, 59, 0
5, 100059, Note_on_c, 9, 59, 64
5, 100121, Note_on_c, 9, 59, 0
5, 100173, Note_on_c, 9, 59, 60
5, 100188, Note_on_c, 9, 44, 40
5, 100188, Note_on_c, 9, 35, 32
5, 100204, Note_on_c, 9, 35, 0
5, 100204, Note_on_c, 9, 44, 0
5, 100341, Note_on_c, 9, 59, 0
5, 100552, Note_on_c, 9, 59, 74
5, 100572, Note_on_c, 9, 35, 32
5, 100580, Note_on_c, 9, 35, 0
5, 100640, Note_on_c, 9, 59, 0
5, 100813, Note_on_c, 9, 34, 48
5, 100873, Note_on_c, 9, 34, 0
5, 100934, Note_on_c, 9, 59, 71
5, 100943, Note_on_c, 9, 35, 59
5, 100948, Note_on_c, 9, 35, 32
5, 100950, Note_on_c, 9, 57, 74
5, 100956, Note_on_c, 9, 44, 40
5, 100960, Note_on_c, 9, 35, 0
5, 100964, Note_on_c, 9, 44, 0
5, 100984, Note_on_c, 9, 57, 0
5, 101005, Note_on_c, 9, 35, 0
5, 101066, Note_on_c, 9, 59, 0
5, 101234, Note_on_c, 9, 59, 40
5, 101267, Note_on_c, 9, 59, 0
5, 101336, Note_on_c, 9, 35, 32
5, 101340, Note_on_c, 9, 35, 0
5, 101346, Note_on_c, 9, 59, 54
5, 101496, Note_on_c, 9, 59, 0
5, 101589, Note_on_c, 9, 59, 42
5, 101623, Note_on_c, 9, 59, 0
5, 101714, Note_on_c, 9, 59, 60
5, 101716, Note_on_c, 9, 35, 32
5, 101724, Note_on_c, 9, 35, 0
5, 101724, Note_on_c, 9, 44, 40
5, 101728, Note_on_c, 9, 44, 0
5, 101856, Note_on_c, 9, 59, 0
5, 101989, Note_on_c, 9, 59, 50
5, 102020, Note_on_c, 9, 59, 0
5, 102104, Note_on_c, 9, 35, 32
5, 102105, Note_on_c, 9, 59, 45
5, 102108, Note_on_c, 9, 35, 0
5, 102122, Note_on_c, 9, 38, 46
5, 102144, Note_on_c, 9, 38, 0
5, 102189, Note_on_c, 9, 59, 0
5, 102309, Note_on_c, 9, 38, 53
5, 102331, Note_on_c, 9, 38, 0
5, 102380, Note_on_c, 9, 59, 60
5, 102440, Note_on_c, 9, 59, 0
5, 102490, Note_on_c, 9, 59, 65
5, 102492, Note_on_c, 9, 44, 40
5, 102492, Note_on_c, 9, 35, 32
5, 102500, Note_on_c, 9, 38, 68
5, 102504, Note_on_c, 9, 35, 0
5, 102504, Note_on_c, 9, 44, 0
5, 102547, Note_on_c, 9, 38, 0
5, 102582, Note_on_c, 9, 59, 0
5, 102602, Note_on_c, 9, 38, 44
5, 102647, Note_on_c, 9, 38, 0
5, 102708, Note_on_c, 9, 34, 63
5, 102756, Note_on_c, 9, 59, 44
5, 102791, Note_on_c, 9, 59, 0
5, 102818, Note_on_c, 9, 34, 0
5, 102868, Note_on_c, 9, 35, 32
5, 102871, Note_on_c, 9, 59, 34
5, 102880, Note_on_c, 9, 35, 0
5, 102927, Note_on_c, 9, 59, 0
5, 103117, Note_on_c, 9, 59, 54
5, 103169, Note_on_c, 9, 59, 0
5, 103243, Note_on_c, 9, 59, 60
5, 103252, Note_on_c, 9, 44, 40
5, 103260, Note_on_c, 9, 35, 32
5, 103264, Note_on_c, 9, 35, 0
5, 103264, Note_on_c, 9, 44, 0
5, 103313, Note_on_c, 9, 59, 0
5, 103508, Note_on_c, 9, 59, 51
5, 103538, Note_on_c, 9, 59, 0
5, 103624, Note_on_c, 9, 59, 44
5, 103640, Note_on_c, 9, 35, 32
5, 103648, Note_on_c, 9, 35, 0
5, 103677, Note_on_c, 9, 59, 0
5, 103875, Note_on_c, 9, 59, 59
5, 103939, Note_on_c, 9, 59, 0
5, 104020, Note_on_c, 9, 35, 32
5, 104024, Note_on_c, 9, 44, 40
5, 104028, Note_on_c, 9, 35, 0
5, 104032, Note_on_c, 9, 44, 0
5, 104053, Note_on_c, 9, 59, 10
5, 104095, Note_on_c, 9, 59, 0
5, 104158, Note_on_c, 9, 59, 44
5, 104211, Note_on_c, 9, 59, 0
5, 104286, Note_on_c, 9, 59, 64
5, 104290, Note_on_c, 9, 40, 43
5, 104313, Note_on_c, 9, 40, 0
5, 104365, Note_on_c, 9, 59, 0
5, 104408, Note_on_c, 9, 35, 32
5, 104416, Note_on_c, 9, 35, 0
5, 104416, Note_on_c, 9, 59, 64
5, 104526, Note_on_c, 9, 40, 62
5, 104538, Note_on_c, 9, 59, 0
5, 104618, Note_on_c, 9, 40, 0
5, 104668, Note_on_c, 9, 59, 56
5, 104737, Note_on_c, 9, 59, 0
5, 104773, Note_on_c, 9, 40, 70
5, 104788, Note_on_c, 9, 35, 32
5, 104793, Note_on_c, 9, 59, 52
5, 104796, Note_on_c, 9, 44, 40
5, 104800, Note_on_c, 9, 44, 0
5, 104800, Note_on_c, 9, 35, 0
5, 104851, Note_on_c, 9, 40, 0
5, 104862, Note_on_c, 9, 59, 0
5, 105023, Note_on_c, 9, 40, 70
5, 105036, Note_on_c, 9, 59, 70
5, 105090, Note_on_c, 9, 59, 0
5, 105094, Note_on_c, 9, 40, 0
5, 105172, Note_on_c, 9, 35, 32
5, 105176, Note_on_c, 9, 59, 50
5, 105180, Note_on_c, 9, 35, 0
5, 105245, Note_on_c, 9, 59, 0
5, 105250, Note_on_c, 9, 40, 68
5, 105305, Note_on_c, 9, 40, 0
5, 105444, Note_on_c, 9, 59, 57
5, 105485, Note_on_c, 9, 59, 0
5, 105543, Note_on_c, 9, 40, 60
5, 105556, Note_on_c, 9, 44, 40
5, 105556, Note_on_c, 9, 35, 32
5, 105568, Note_on_c, 9, 35, 0
5, 105568, Note_on_c, 9, 44, 0
5, 105588, Note_on_c, 9, 59, 50
5, 105598, Note_on_c, 9, 40, 0
5, 105629, Note_on_c, 9, 59, 0
5, 105811, Note_on_c, 9, 34, 63
5, 105829, Note_on_c, 9, 57, 81
5, 105836, Note_on_c, 9, 59, 43
5, 105840, Note_on_c, 9, 60, 43
5, 105860, Note_on_c, 9, 35, 1
5, 105867, Note_on_c, 9, 59, 0
5, 105870, Note_on_c, 9, 60, 0
5, 105908, Note_on_c, 9, 57, 0
5, 105911, Note_on_c, 9, 35, 0
5, 105944, Note_on_c, 9, 35, 32
5, 105948, Note_on_c, 9, 35, 0
5, 105948, Note_on_c, 9, 34, 0
5, 105956, Note_on_c, 9, 59, 65
5, 105961, Note_on_c, 9, 35, 47
5, 106063, Note_on_c, 9, 59, 0
5, 106176, Note_on_c, 9, 59, 55
5, 106208, Note_on_c, 9, 35, 0
5, 106243, Note_on_c, 9, 59, 0
5, 106309, Note_on_c, 9, 59, 50
5, 106324, Note_on_c, 9, 44, 40
5, 106324, Note_on_c, 9, 35, 32
5, 106340, Note_on_c, 9, 35, 0
5, 106340, Note_on_c, 9, 44, 0
5, 106399, Note_on_c, 9, 59, 0
5, 106577, Note_on_c, 9, 59, 65
5, 106633, Note_on_c, 9, 59, 0
5, 106712, Note_on_c, 9, 35, 32
5, 106720, Note_on_c, 9, 35, 0
5, 106722, Note_on_c, 9, 59, 52
5, 106803, Note_on_c, 9, 59, 0
5, 106956, Note_on_c, 9, 59, 64
5, 107038, Note_on_c, 9, 59, 0
5, 107092, Note_on_c, 9, 44, 40
5, 107096, Note_on_c, 9, 35, 32
5, 107101, Note_on_c, 9, 59, 35
5, 107108, Note_on_c, 9, 35, 0
5, 107112, Note_on_c, 9, 44, 0
5, 107168, Note_on_c, 9, 59, 0
5, 107345, Note_on_c, 9, 59, 69
5, 107417, Note_on_c, 9, 59, 0
5, 107480, Note_on_c, 9, 35, 32
5, 107481, Note_on_c, 9, 59, 51
5, 107484, Note_on_c, 9, 35, 0
5, 107598, Note_on_c, 9, 59, 0
5, 107720, Note_on_c, 9, 59, 53
5, 107726, Note_on_c, 9, 40, 44
5, 107748, Note_on_c, 9, 40, 0
5, 107782, Note_on_c, 9, 59, 0
5, 107864, Note_on_c, 9, 44, 40
5, 107864, Note_on_c, 9, 35, 32
5, 107865, Note_on_c, 9, 59, 60
5, 107880, Note_on_c, 9, 44, 0
5, 107884, Note_on_c, 9, 35, 0
5, 107977, Note_on_c, 9, 59, 0
5, 108099, Note_on_c, 9, 59, 48
5, 108149, Note_on_c, 9, 59, 0
5, 108243, Note_on_c, 9, 59, 52
5, 108252, Note_on_c, 9, 35, 32
5, 108256, Note_on_c, 9, 35, 0
5, 108309, Note_on_c, 9, 59, 0
5, 108500, Note_on_c, 9, 59, 68
5, 108560, Note_on_c, 9, 59, 0
5, 108622, Note_on_c, 9, 59, 49
5, 108632, Note_on_c, 9, 44, 40
5, 108632, Note_on_c, 9, 35, 32
5, 108644, Note_on_c, 9, 44, 0
5, 108648, Note_on_c, 9, 35, 0
5, 108710, Note_on_c, 9, 59, 0
5, 108893, Note_on_c, 9, 59, 44
5, 108923, Note_on_c, 9, 59, 0
5, 109015, Note_on_c, 9, 59, 54
5, 109016, Note_on_c, 9, 35, 32
5, 109024, Note_on_c, 9, 35, 0
5, 109088, Note_on_c, 9, 59, 0
5, 109291, Note_on_c, 9, 59, 64
5, 109345, Note_on_c, 9, 59, 0
5, 109396, Note_on_c, 9, 44, 40
5, 109408, Note_on_c, 9, 44, 0
5, 109408, Note_on_c, 9, 35, 32
5, 109408, Note_on_c, 9, 35, 0
5, 109414, Note_on_c, 9, 59, 60
5, 109501, Note_on_c, 9, 59, 0
5, 109675, Note_on_c, 9, 59, 55
5, 109706, Note_on_c, 9, 59, 0
5, 109780, Note_on_c, 9, 35, 32
5, 109783, Note_on_c, 9, 38, 7
5, 109792, Note_on_c, 9, 35, 0
5, 109802, Note_on_c, 9, 59, 60
5, 109806, Note_on_c, 9, 38, 0
5, 109868, Note_on_c, 9, 59, 0
5, 109883, Note_on_c, 9, 38, 7
5, 109933, Note_on_c, 9, 38, 0
5, 109993, Note_on_c, 9, 38, 27
5, 110016, Note_on_c, 9, 38, 0
5, 110064, Note_on_c, 9, 38, 39
5, 110127, Note_on_c, 9, 38, 0
5, 110154, Note_on_c, 9, 59, 70
5, 110168, Note_on_c, 9, 35, 32
5, 110176, Note_on_c, 9, 38, 37
5, 110184, Note_on_c, 9, 35, 0
5, 110198, Note_on_c, 9, 38, 0
5, 110233, Note_on_c, 9, 59, 0
5, 110428, Note_on_c, 9, 59, 54
5, 110460, Note_on_c, 9, 59, 0
5, 110552, Note_on_c, 9, 35, 32
5, 110553, Note_on_c, 9, 59, 57
5, 110560, Note_on_c, 9, 35, 0
5, 110624, Note_on_c, 9, 59, 0
5, 110714, Note_on_c, 9, 38, 15
5, 110754, Note_on_c, 9, 38, 0
5, 110788, Note_on_c, 9, 59, 51
5, 110840, Note_on_c, 9, 59, 0
5, 110925, Note_on_c, 9, 59, 47
5, 110932, Note_on_c, 9, 35, 32
5, 110940, Note_on_c, 9, 44, 40
5, 110944, Note_on_c, 9, 44, 0
5, 110948, Note_on_c, 9, 35, 0
5, 110998, Note_on_c, 9, 59, 0
5, 111168, Note_on_c, 9, 59, 54
5, 111239, Note_on_c, 9, 59, 0
5, 111301, Note_on_c, 9, 59, 49
5, 111320, Note_on_c, 9, 35, 32
5, 111324, Note_on_c, 9, 35, 0
5, 111364, Note_on_c, 9, 59, 0
5, 111556, Note_on_c, 9, 59, 70
5, 111616, Note_on_c, 9, 59, 0
5, 111683, Note_on_c, 9, 59, 54
5, 111708, Note_on_c, 9, 44, 40
5, 111708, Note_on_c, 9, 35, 32
5, 111720, Note_on_c, 9, 35, 0
5, 111720, Note_on_c, 9, 44, 0
5, 111758, Note_on_c, 9, 59, 0
5, 111951, Note_on_c, 9, 59, 49
5, 111981, Note_on_c, 9, 59, 0
5, 111985, Note_on_c, 9, 34, 27
5, 112020, Note_on_c, 9, 34, 0
5, 112077, Note_on_c, 9, 59, 52
5, 112092, Note_on_c, 9, 35, 25
5, 112108, Note_on_c, 9, 35, 0
5, 112137, Note_on_c, 9, 59, 0
5, 112339, Note_on_c, 9, 59, 54
5, 112369, Note_on_c, 9, 59, 0
5, 112472, Note_on_c, 9, 59, 49
5, 112476, Note_on_c, 9, 44, 40
5, 112476, Note_on_c, 9, 35, 32
5, 112492, Note_on_c, 9, 35, 0
5, 112492, Note_on_c, 9, 44, 0
5, 112528, Note_on_c, 9, 59, 0
5, 112741, Note_on_c, 9, 59, 72
5, 112806, Note_on_c, 9, 59, 0
5, 112860, Note_on_c, 9, 35, 32
5, 112876, Note_on_c, 9, 35, 0
5, 112902, Note_on_c, 9, 59, 49
5, 112944, Note_on_c, 9, 59, 0
5, 113119, Note_on_c, 9, 34, 32
5, 113124, Note_on_c, 9, 59, 57
5, 113154, Note_on_c, 9, 59, 0
5, 113197, Note_on_c, 9, 34, 0
5, 113236, Note_on_c, 9, 35, 32
5, 113244, Note_on_c, 9, 44, 40
5, 113248, Note_on_c, 9, 35, 0
5, 113252, Note_on_c, 9, 44, 0
5, 113252, Note_on_c, 9, 57, 39
5, 113256, Note_on_c, 9, 59, 42
5, 113258, Note_on_c, 9, 35, 18
5, 113293, Note_on_c, 9, 59, 0
5, 113308, Note_on_c, 9, 57, 0
5, 113367, Note_on_c, 9, 35, 0
5, 113499, Note_on_c, 9, 59, 70
5, 113554, Note_on_c, 9, 59, 0
5, 113620, Note_on_c, 9, 35, 32
5, 113628, Note_on_c, 9, 35, 0
5, 113638, Note_on_c, 9, 59, 37
5, 113703, Note_on_c, 9, 59, 0
5, 113888, Note_on_c, 9, 59, 63
5, 113944, Note_on_c, 9, 59, 0
5, 114004, Note_on_c, 9, 35, 32
5, 114008, Note_on_c, 9, 35, 0
5, 114012, Note_on_c, 9, 44, 40
5, 114012, Note_on_c, 9, 44, 0
5, 114021, Note_on_c, 9, 59, 50
5, 114085, Note_on_c, 9, 59, 0
5, 114270, Note_on_c, 9, 59, 69
5, 114328, Note_on_c, 9, 59, 0
5, 114389, Note_on_c, 9, 59, 49
5, 114392, Note_on_c, 9, 35, 32
5, 114393, Note_on_c, 9, 38, 30
5, 114396, Note_on_c, 9, 35, 0
5, 114417, Note_on_c, 9, 38, 0
5, 114460, Note_on_c, 9, 59, 0
5, 114596, Note_on_c, 9, 38, 54
5, 114642, Note_on_c, 9, 38, 0
5, 114649, Note_on_c, 9, 59, 64
5, 114714, Note_on_c, 9, 59, 0
5, 114772, Note_on_c, 9, 59, 55
5, 114776, Note_on_c, 9, 35, 32
5, 114788, Note_on_c, 9, 35, 0
5, 114834, Note_on_c, 9, 59, 0
5, 114985, Note_on_c, 9, 38, 51
5, 115030, Note_on_c, 9, 59, 67
5, 115036, Note_on_c, 9, 38, 0
5, 115089, Note_on_c, 9, 59, 0
5, 115149, Note_on_c, 9, 59, 54
5, 115156, Note_on_c, 9, 35, 32
5, 115164, Note_on_c, 9, 35, 0
5, 115172, Note_on_c, 9, 38, 60
5, 115225, Note_on_c, 9, 59, 0
5, 115228, Note_on_c, 9, 38, 0
5, 115412, Note_on_c, 9, 59, 56
5, 115469, Note_on_c, 9, 59, 0
5, 115540, Note_on_c, 9, 59, 56
5, 115540, Note_on_c, 9, 44, 40
5, 115548, Note_on_c, 9, 44, 0
5, 115548, Note_on_c, 9, 35, 32
5, 115548, Note_on_c, 9, 35, 0
5, 115601, Note_on_c, 9, 59, 0
5, 115804, Note_on_c, 9, 59, 60
5, 115841, Note_on_c, 9, 59, 0
5, 115918, Note_on_c, 9, 59, 50
5, 115928, Note_on_c, 9, 35, 32
5, 115936, Note_on_c, 9, 35, 0
5, 115973, Note_on_c, 9, 59, 0
5, 116175, Note_on_c, 9, 59, 70
5, 116231, Note_on_c, 9, 59, 0
5, 116294, Note_on_c, 9, 59, 51
5, 116308, Note_on_c, 9, 35, 32
5, 116312, Note_on_c, 9, 44, 40
5, 116316, Note_on_c, 9, 35, 0
5, 116320, Note_on_c, 9, 44, 0
5, 116355, Note_on_c, 9, 59, 0
5, 116568, Note_on_c, 9, 59, 62
5, 116598, Note_on_c, 9, 59, 0
5, 116696, Note_on_c, 9, 59, 55
5, 116696, Note_on_c, 9, 35, 32
5, 116704, Note_on_c, 9, 35, 0
5, 116757, Note_on_c, 9, 59, 0
5, 116962, Note_on_c, 9, 59, 61
5, 117016, Note_on_c, 9, 59, 0
5, 117070, Note_on_c, 9, 59, 69
5, 117076, Note_on_c, 9, 35, 32
5, 117084, Note_on_c, 9, 44, 40
5, 117092, Note_on_c, 9, 44, 0
5, 117092, Note_on_c, 9, 35, 0
5, 117146, Note_on_c, 9, 59, 0
5, 117343, Note_on_c, 9, 59, 62
5, 117377, Note_on_c, 9, 38, 24
5, 117386, Note_on_c, 9, 59, 0
5, 117405, Note_on_c, 9, 38, 0
5, 117460, Note_on_c, 9, 35, 32
5, 117467, Note_on_c, 9, 59, 55
5, 117472, Note_on_c, 9, 35, 0
5, 117510, Note_on_c, 9, 38, 11
5, 117524, Note_on_c, 9, 59, 0
5, 117540, Note_on_c, 9, 38, 0
5, 117715, Note_on_c, 9, 59, 64
5, 117774, Note_on_c, 9, 59, 0
5, 117844, Note_on_c, 9, 44, 40
5, 117848, Note_on_c, 9, 35, 32
5, 117849, Note_on_c, 9, 59, 57
5, 117856, Note_on_c, 9, 35, 0
5, 117856, Note_on_c, 9, 44, 0
5, 117913, Note_on_c, 9, 59, 0
5, 118089, Note_on_c, 9, 53, 64
5, 118112, Note_on_c, 9, 35, 41
5, 118152, Note_on_c, 9, 53, 0
5, 118164, Note_on_c, 9, 35, 0
5, 118232, Note_on_c, 9, 35, 32
5, 118236, Note_on_c, 9, 35, 0
5, 118246, Note_on_c, 9, 59, 46
5, 118253, Note_on_c, 9, 57, 26
5, 118255, Note_on_c, 9, 35, 36
5, 118279, Note_on_c, 9, 57, 0
5, 118307, Note_on_c, 9, 35, 0
5, 118321, Note_on_c, 9, 59, 0
5, 118501, Note_on_c, 9, 59, 55
5, 118531, Note_on_c, 9, 59, 0
5, 118612, Note_on_c, 9, 44, 40
5, 118612, Note_on_c, 9, 35, 32
5, 118628, Note_on_c, 9, 59, 50
5, 118632, Note_on_c, 9, 35, 0
5, 118636, Note_on_c, 9, 44, 0
5, 118678, Note_on_c, 9, 59, 0
5, 118891, Note_on_c, 9, 59, 62
5, 118939, Note_on_c, 9, 59, 0
5, 118996, Note_on_c, 9, 35, 32
5, 119004, Note_on_c, 9, 35, 0
5, 119020, Note_on_c, 9, 59, 58
5, 119054, Note_on_c, 9, 59, 0
5, 119146, Note_on_c, 9, 38, 20
5, 119172, Note_on_c, 9, 38, 0
5, 119246, Note_on_c, 9, 38, 30
5, 119284, Note_on_c, 9, 59, 67
5, 119300, Note_on_c, 9, 38, 0
5, 119349, Note_on_c, 9, 59, 0
5, 119361, Note_on_c, 9, 38, 26
5, 119384, Note_on_c, 9, 38, 0
5, 119384, Note_on_c, 9, 44, 40
5, 119384, Note_on_c, 9, 35, 32
5, 119395, Note_on_c, 9, 59, 51
5, 119400, Note_on_c, 9, 35, 0
5, 119400, Note_on_c, 9, 44, 0
5, 119425, Note_on_c, 9, 59, 0
5, 119673, Note_on_c, 9, 59, 49
5, 119703, Note_on_c, 9, 59, 0
5, 119768, Note_on_c, 9, 35, 32
5, 119769, Note_on_c, 9, 38, 31
5, 119772, Note_on_c, 9, 35, 0
5, 119790, Note_on_c, 9, 59, 24
5, 119791, Note_on_c, 9, 38, 0
5, 119822, Note_on_c, 9, 59, 0
5, 119869, Note_on_c, 9, 38, 31
5, 119903, Note_on_c, 9, 38, 0
5, 119986, Note_on_c, 9, 38, 19
5, 120011, Note_on_c, 9, 38, 0
5, 120024, Note_on_c, 9, 59, 67
5, 120079, Note_on_c, 9, 59, 0
5, 120152, Note_on_c, 9, 44, 40
5, 120152, Note_on_c, 9, 35, 32
5, 120155, Note_on_c, 9, 59, 60
5, 120168, Note_on_c, 9, 35, 0
5, 120168, Note_on_c, 9, 44, 0
5, 120217, Note_on_c, 9, 59, 0
5, 120414, Note_on_c, 9, 59, 59
5, 120445, Note_on_c, 9, 59, 0
5, 120529, Note_on_c, 9, 59, 46
5, 120536, Note_on_c, 9, 35, 32
5, 120540, Note_on_c, 9, 35, 0
5, 120588, Note_on_c, 9, 59, 0
5, 120659, Note_on_c, 9, 38, 36
5, 120687, Note_on_c, 9, 38, 0
5, 120773, Note_on_c, 9, 38, 34
5, 120784, Note_on_c, 9, 59, 70
5, 120802, Note_on_c, 9, 38, 0
5, 120839, Note_on_c, 9, 59, 0
5, 120879, Note_on_c, 9, 34, 37
5, 120923, Note_on_c, 9, 59, 38
5, 120924, Note_on_c, 9, 44, 40
5, 120924, Note_on_c, 9, 35, 32
5, 120932, Note_on_c, 9, 44, 0
5, 120936, Note_on_c, 9, 35, 0
5, 120938, Note_on_c, 9, 34, 0
5, 120985, Note_on_c, 9, 59, 0
5, 121186, Note_on_c, 9, 59, 57
5, 121216, Note_on_c, 9, 59, 0
5, 121298, Note_on_c, 9, 59, 48
5, 121304, Note_on_c, 9, 35, 32
5, 121311, Note_on_c, 9, 35, 18
5, 121312, Note_on_c, 9, 35, 0
5, 121359, Note_on_c, 9, 59, 0
5, 121403, Note_on_c, 9, 35, 0
5, 121557, Note_on_c, 9, 52, 62
5, 121618, Note_on_c, 9, 52, 0
5, 121681, Note_on_c, 9, 35, 15
5, 121692, Note_on_c, 9, 44, 40
5, 121692, Note_on_c, 9, 35, 32
5, 121696, Note_on_c, 9, 35, 0
5, 121700, Note_on_c, 9, 44, 0
5, 121782, Note_on_c, 9, 35, 0
5, 121924, Note_on_c, 9, 59, 64
5, 121983, Note_on_c, 9, 59, 0
5, 122068, Note_on_c, 9, 35, 32
5, 122072, Note_on_c, 9, 59, 44
5, 122080, Note_on_c, 9, 35, 0
5, 122143, Note_on_c, 9, 59, 0
5, 122182, Note_on_c, 9, 38, 38
5, 122206, Note_on_c, 9, 38, 0
5, 122288, Note_on_c, 9, 38, 27
5, 122303, Note_on_c, 9, 53, 65
5, 122342, Note_on_c, 9, 38, 0
5, 122361, Note_on_c, 9, 53, 0
5, 122421, Note_on_c, 9, 40, 40
5, 122451, Note_on_c, 9, 53, 44
5, 122452, Note_on_c, 9, 35, 32
5, 122456, Note_on_c, 9, 44, 40
5, 122460, Note_on_c, 9, 44, 0
5, 122464, Note_on_c, 9, 35, 0
5, 122469, Note_on_c, 9, 40, 0
5, 122518, Note_on_c, 9, 53, 0
5, 122698, Note_on_c, 9, 59, 67
5, 122764, Note_on_c, 9, 59, 0
5, 122803, Note_on_c, 9, 40, 36
5, 122836, Note_on_c, 9, 59, 51
5, 122840, Note_on_c, 9, 35, 32
5, 122852, Note_on_c, 9, 35, 0
5, 122859, Note_on_c, 9, 40, 0
5, 122898, Note_on_c, 9, 59, 0
5, 122923, Note_on_c, 9, 38, 37
5, 122947, Note_on_c, 9, 38, 0
5, 123059, Note_on_c, 9, 53, 67
5, 123129, Note_on_c, 9, 53, 0
5, 123197, Note_on_c, 9, 53, 47
5, 123220, Note_on_c, 9, 35, 32
5, 123228, Note_on_c, 9, 44, 40
5, 123228, Note_on_c, 9, 44, 0
5, 123232, Note_on_c, 9, 35, 0
5, 123278, Note_on_c, 9, 53, 0
5, 123465, Note_on_c, 9, 59, 54
5, 123499, Note_on_c, 9, 40, 44
5, 123529, Note_on_c, 9, 59, 0
5, 123540, Note_on_c, 9, 40, 0
5, 123589, Note_on_c, 9, 59, 55
5, 123604, Note_on_c, 9, 35, 32
5, 123612, Note_on_c, 9, 35, 0
5, 123650, Note_on_c, 9, 59, 0
5, 123734, Note_on_c, 9, 40, 54
5, 123821, Note_on_c, 9, 40, 0
5, 123841, Note_on_c, 9, 53, 67
5, 123899, Note_on_c, 9, 53, 0
5, 123963, Note_on_c, 9, 53, 51
5, 123972, Note_on_c, 9, 40, 65
5, 123992, Note_on_c, 9, 35, 32
5, 124000, Note_on_c, 9, 35, 0
5, 124039, Note_on_c, 9, 40, 0
5, 124060, Note_on_c, 9, 53, 0
5, 124213, Note_on_c, 9, 34, 61
5, 124214, Note_on_c, 9, 40, 65
5, 124226, Note_on_c, 9, 57, 64
5, 124234, Note_on_c, 9, 59, 69
5, 124272, Note_on_c, 9, 57, 0
5, 124275, Note_on_c, 9, 40, 0
5, 124288, Note_on_c, 9, 59, 0
5, 124297, Note_on_c, 9, 34, 0
5, 124360, Note_on_c, 9, 59, 51
5, 124380, Note_on_c, 9, 35, 25
5, 124382, Note_on_c, 9, 35, 1
5, 124388, Note_on_c, 9, 35, 0
5, 124411, Note_on_c, 9, 35, 0
5, 124471, Note_on_c, 9, 40, 64
5, 124472, Note_on_c, 9, 34, 63
5, 124476, Note_on_c, 9, 57, 71
5, 124486, Note_on_c, 9, 59, 0
5, 124541, Note_on_c, 9, 57, 0
5, 124565, Note_on_c, 9, 40, 0
5, 124573, Note_on_c, 9, 34, 0
5, 124653, Note_on_c, 9, 59, 56
5, 124718, Note_on_c, 9, 59, 0
5, 124736, Note_on_c, 9, 34, 61
5, 124739, Note_on_c, 9, 40, 65
5, 124742, Note_on_c, 9, 57, 71
5, 124764, Note_on_c, 9, 44, 40
5, 124772, Note_on_c, 9, 35, 32
5, 124773, Note_on_c, 9, 59, 61
5, 124780, Note_on_c, 9, 35, 0
5, 124780, Note_on_c, 9, 44, 0
5, 124800, Note_on_c, 9, 57, 0
5, 124852, Note_on_c, 9, 34, 0
5, 124858, Note_on_c, 9, 40, 0
5, 124860, Note_on_c, 9, 59, 0
5, 124989, Note_on_c, 9, 57, 69
5, 124995, Note_on_c, 9, 34, 62
5, 124996, Note_on_c, 9, 40, 64
5, 125046, Note_on_c, 9, 57, 0
5, 125115, Note_on_c, 9, 40, 0
5, 125117, Note_on_c, 9, 34, 0
5, 125148, Note_on_c, 9, 35, 32
5, 125160, Note_on_c, 9, 59, 69
5, 125164, Note_on_c, 9, 35, 0
5, 125235, Note_on_c, 9, 59, 0
5, 125459, Note_on_c, 9, 59, 56
5, 125500, Note_on_c, 9, 59, 0
5, 125524, Note_on_c, 9, 35, 32
5, 125536, Note_on_c, 9, 35, 0
5, 125536, Note_on_c, 9, 44, 40
5, 125540, Note_on_c, 9, 44, 0
5, 125571, Note_on_c, 9, 59, 60
5, 125633, Note_on_c, 9, 59, 0
5, 125819, Note_on_c, 9, 59, 39
5, 125857, Note_on_c, 9, 59, 0
5, 125912, Note_on_c, 9, 35, 32
5, 125916, Note_on_c, 9, 35, 0
5, 125941, Note_on_c, 9, 59, 46
5, 126018, Note_on_c, 9, 59, 0
5, 126193, Note_on_c, 9, 59, 47
5, 126225, Note_on_c, 9, 59, 0
5, 126296, Note_on_c, 9, 35, 32
5, 126300, Note_on_c, 9, 35, 0
5, 126300, Note_on_c, 9, 44, 40
5, 126308, Note_on_c, 9, 44, 0
5, 126313, Note_on_c, 9, 59, 50
5, 126387, Note_on_c, 9, 59, 0
5, 126573, Note_on_c, 9, 59, 41
5, 126579, Note_on_c, 9, 40, 48
5, 126604, Note_on_c, 9, 59, 0
5, 126644, Note_on_c, 9, 40, 0
5, 126684, Note_on_c, 9, 35, 32
5, 126688, Note_on_c, 9, 35, 0
5, 126745, Note_on_c, 9, 38, 1
5, 126780, Note_on_c, 9, 59, 37
5, 126780, Note_on_c, 9, 59, 0
5, 126821, Note_on_c, 9, 38, 0
5, 126942, Note_on_c, 9, 59, 51
5, 126997, Note_on_c, 9, 59, 0
5, 127063, Note_on_c, 9, 59, 63
5, 127064, Note_on_c, 9, 44, 40
5, 127064, Note_on_c, 9, 35, 32
5, 127076, Note_on_c, 9, 35, 0
5, 127076, Note_on_c, 9, 44, 0
5, 127139, Note_on_c, 9, 59, 0
5, 127305, Note_on_c, 9, 59, 40
5, 127334, Note_on_c, 9, 38, 24
5, 127335, Note_on_c, 9, 59, 0
5, 127366, Note_on_c, 9, 38, 0
5, 127427, Note_on_c, 9, 59, 44
5, 127448, Note_on_c, 9, 35, 32
5, 127452, Note_on_c, 9, 35, 0
5, 127472, Note_on_c, 9, 38, 12
5, 127509, Note_on_c, 9, 59, 0
5, 127527, Note_on_c, 9, 38, 0
5, 127705, Note_on_c, 9, 59, 43
5, 127737, Note_on_c, 9, 59, 0
5, 127828, Note_on_c, 9, 44, 40
5, 127839, Note_on_c, 9, 59, 23
5, 127840, Note_on_c, 9, 35, 32
5, 127840, Note_on_c, 9, 35, 0
5, 127844, Note_on_c, 9, 44, 0
5, 127889, Note_on_c, 9, 59, 0
5, 127965, Note_on_c, 9, 59, 41
5, 127998, Note_on_c, 9, 59, 0
5, 128079, Note_on_c, 9, 38, 30
5, 128085, Note_on_c, 9, 59, 63
5, 128101, Note_on_c, 9, 38, 0
5, 128181, Note_on_c, 9, 59, 0
5, 128216, Note_on_c, 9, 35, 32
5, 128220, Note_on_c, 9, 35, 0
5, 128234, Note_on_c, 9, 59, 53
5, 128294, Note_on_c, 9, 59, 0
5, 128474, Note_on_c, 9, 59, 51
5, 128511, Note_on_c, 9, 59, 0
5, 128600, Note_on_c, 9, 35, 32
5, 128602, Note_on_c, 9, 59, 51
5, 128604, Note_on_c, 9, 35, 0
5, 128604, Note_on_c, 9, 44, 40
5, 128608, Note_on_c, 9, 44, 0
5, 128675, Note_on_c, 9, 59, 0
5, 128845, Note_on_c, 9, 59, 51
5, 128911, Note_on_c, 9, 59, 0
5, 128977, Note_on_c, 9, 59, 45
5, 128984, Note_on_c, 9, 35, 32
5, 128988, Note_on_c, 9, 35, 0
5, 129049, Note_on_c, 9, 59, 0
5, 129219, Note_on_c, 9, 59, 44
5, 129250, Note_on_c, 9, 59, 0
5, 129351, Note_on_c, 9, 59, 58
5, 129364, Note_on_c, 9, 35, 32
5, 129372, Note_on_c, 9, 44, 40
5, 129372, Note_on_c, 9, 44, 0
5, 129376, Note_on_c, 9, 35, 0
5, 129421, Note_on_c, 9, 59, 0
5, 129610, Note_on_c, 9, 38, 27
5, 129636, Note_on_c, 9, 38, 0
5, 129735, Note_on_c, 9, 59, 62
5, 129748, Note_on_c, 9, 35, 32
5, 129756, Note_on_c, 9, 35, 0
5, 129808, Note_on_c, 9, 59, 0
5, 130016, Note_on_c, 9, 38, 12
5, 130036, Note_on_c, 9, 59, 44
5, 130047, Note_on_c, 9, 38, 0
5, 130066, Note_on_c, 9, 59, 0
5, 130132, Note_on_c, 9, 44, 40
5, 130136, Note_on_c, 9, 35, 32
5, 130148, Note_on_c, 9, 35, 0
5, 130148, Note_on_c, 9, 44, 0
5, 130152, Note_on_c, 9, 59, 46
5, 130223, Note_on_c, 9, 59, 0
5, 130418, Note_on_c, 9, 59, 38
5, 130452, Note_on_c, 9, 59, 0
5, 130506, Note_on_c, 9, 59, 49
5, 130520, Note_on_c, 9, 35, 32
5, 130524, Note_on_c, 9, 35, 0
5, 130560, Note_on_c, 9, 35, 25
5, 130568, Note_on_c, 9, 35, 0
5, 130600, Note_on_c, 9, 59, 0
5, 130809, Note_on_c, 9, 59, 31
5, 130842, Note_on_c, 9, 59, 0
5, 130905, Note_on_c, 9, 59, 48
5, 130908, Note_on_c, 9, 44, 40
5, 130908, Note_on_c, 9, 35, 32
5, 130912, Note_on_c, 9, 44, 0
5, 130916, Note_on_c, 9, 35, 0
5, 131002, Note_on_c, 9, 59, 0
5, 131175, Note_on_c, 9, 59, 52
5, 131179, Note_on_c, 9, 37, 39
5, 131210, Note_on_c, 9, 59, 0
5, 131228, Note_on_c, 9, 37, 0
5, 131292, Note_on_c, 9, 35, 32
5, 131304, Note_on_c, 9, 59, 56
5, 131308, Note_on_c, 9, 35, 0
5, 131380, Note_on_c, 9, 59, 0
5, 131563, Note_on_c, 9, 59, 58
5, 131628, Note_on_c, 9, 59, 0
5, 131672, Note_on_c, 9, 35, 32
5, 131676, Note_on_c, 9, 44, 40
5, 131680, Note_on_c, 9, 35, 0
5, 131684, Note_on_c, 9, 44, 0
5, 131690, Note_on_c, 9, 59, 41
5, 131794, Note_on_c, 9, 59, 0
5, 131940, Note_on_c, 9, 59, 60
5, 131993, Note_on_c, 9, 59, 0
5, 132056, Note_on_c, 9, 35, 32
5, 132060, Note_on_c, 9, 35, 0
5, 132062, Note_on_c, 9, 59, 58
5, 132159, Note_on_c, 9, 59, 0
5, 132331, Note_on_c, 9, 59, 35
5, 132363, Note_on_c, 9, 59, 0
5, 132440, Note_on_c, 9, 35, 32
5, 132440, Note_on_c, 9, 35, 0
5, 132441, Note_on_c, 9, 59, 48
5, 132444, Note_on_c, 9, 44, 40
5, 132444, Note_on_c, 9, 44, 0
5, 132537, Note_on_c, 9, 59, 0
5, 132706, Note_on_c, 9, 38, 9
5, 132729, Note_on_c, 9, 38, 0
5, 132809, Note_on_c, 9, 59, 69
5, 132824, Note_on_c, 9, 35, 32
5, 132828, Note_on_c, 9, 35, 0
5, 132875, Note_on_c, 9, 59, 0
5, 133066, Note_on_c, 9, 38, 8
5, 133086, Note_on_c, 9, 59, 62
5, 133101, Note_on_c, 9, 38, 0
5, 133152, Note_on_c, 9, 59, 0
5, 133181, Note_on_c, 9, 38, 24
5, 133208, Note_on_c, 9, 44, 40
5, 133209, Note_on_c, 9, 59, 30
5, 133212, Note_on_c, 9, 35, 32
5, 133220, Note_on_c, 9, 35, 0
5, 133224, Note_on_c, 9, 44, 0
5, 133234, Note_on_c, 9, 38, 0
5, 133284, Note_on_c, 9, 59, 0
5, 133438, Note_on_c, 9, 38, 54
5, 133453, Note_on_c, 9, 59, 58
5, 133477, Note_on_c, 9, 38, 0
5, 133525, Note_on_c, 9, 59, 0
5, 133583, Note_on_c, 9, 59, 54
5, 133588, Note_on_c, 9, 35, 32
5, 133600, Note_on_c, 9, 35, 0
5, 133658, Note_on_c, 9, 59, 0
5, 133841, Note_on_c, 9, 59, 58
5, 133889, Note_on_c, 9, 59, 0
5, 133949, Note_on_c, 9, 59, 58
5, 133972, Note_on_c, 9, 44, 40
5, 133980, Note_on_c, 9, 35, 32
5, 133984, Note_on_c, 9, 35, 0
5, 133984, Note_on_c, 9, 44, 0
5, 134058, Note_on_c, 9, 59, 0
5, 134208, Note_on_c, 9, 59, 45
5, 134268, Note_on_c, 9, 59, 0
5, 134360, Note_on_c, 9, 35, 32
5, 134364, Note_on_c, 9, 35, 0
5, 134365, Note_on_c, 9, 59, 37
5, 134422, Note_on_c, 9, 59, 0
5, 134617, Note_on_c, 9, 59, 69
5, 134676, Note_on_c, 9, 59, 0
5, 134734, Note_on_c, 9, 59, 53
5, 134740, Note_on_c, 9, 35, 32
5, 134744, Note_on_c, 9, 44, 40
5, 134748, Note_on_c, 9, 35, 0
5, 134752, Note_on_c, 9, 44, 0
5, 134825, Note_on_c, 9, 59, 0
5, 134994, Note_on_c, 9, 59, 43
5, 135022, Note_on_c, 9, 34, 39
5, 135043, Note_on_c, 9, 59, 0
5, 135069, Note_on_c, 9, 34, 0
5, 135128, Note_on_c, 9, 35, 32
5, 135140, Note_on_c, 9, 35, 0
5, 135144, Note_on_c, 9, 59, 38
5, 135181, Note_on_c, 9, 59, 0
5, 135195, Note_on_c, 9, 34, 30
5, 135195, Note_on_c, 9, 34, 0
5, 135388, Note_on_c, 9, 59, 71
5, 135391, Note_on_c, 9, 34, 25
5, 135443, Note_on_c, 9, 34, 0
5, 135459, Note_on_c, 9, 59, 0
5, 135508, Note_on_c, 9, 35, 32
5, 135512, Note_on_c, 9, 44, 40
5, 135516, Note_on_c, 9, 44, 0
5, 135516, Note_on_c, 9, 59, 54
5, 135520, Note_on_c, 9, 35, 0
5, 135653, Note_on_c, 9, 59, 0
5, 135762, Note_on_c, 9, 29, 35
5, 135777, Note_on_c, 9, 59, 38
5, 135819, Note_on_c, 9, 59, 0
5, 135892, Note_on_c, 9, 35, 32
5, 135900, Note_on_c, 9, 35, 0
5, 135900, Note_on_c, 9, 59, 40
5, 135984, Note_on_c, 9, 59, 0
5, 136150, Note_on_c, 9, 59, 60
5, 136210, Note_on_c, 9, 59, 0
5, 136280, Note_on_c, 9, 35, 32
5, 136282, Note_on_c, 9, 59, 54
5, 136288, Note_on_c, 9, 35, 0
5, 136386, Note_on_c, 9, 59, 0
5, 136532, Note_on_c, 9, 59, 38
5, 136549, Note_on_c, 9, 34, 63
5, 136567, Note_on_c, 9, 59, 0
5, 136604, Note_on_c, 9, 29, 0
5, 136664, Note_on_c, 9, 35, 32
5, 136666, Note_on_c, 9, 59, 64
5, 136672, Note_on_c, 9, 35, 0
5, 136682, Note_on_c, 9, 34, 0
5, 136686, Note_on_c, 9, 35, 38
5, 136699, Note_on_c, 9, 57, 28
5, 136782, Note_on_c, 9, 59, 0
5, 136917, Note_on_c, 9, 59, 39
5, 136947, Note_on_c, 9, 59, 0
5, 137033, Note_on_c, 9, 57, 0
5, 137038, Note_on_c, 9, 59, 39
5, 137048, Note_on_c, 9, 44, 40
5, 137048, Note_on_c, 9, 35, 32
5, 137064, Note_on_c, 9, 44, 0
5, 137064, Note_on_c, 9, 35, 0
5, 137082, Note_on_c, 9, 35, 0
5, 137110, Note_on_c, 9, 59, 0
5, 137304, Note_on_c, 9, 59, 60
5, 137341, Note_on_c, 9, 59, 0
5, 137432, Note_on_c, 9, 35, 32
5, 137440, Note_on_c, 9, 35, 0
5, 137443, Note_on_c, 9, 59, 43
5, 137473, Note_on_c, 9, 59, 0
5, 137674, Note_on_c, 9, 59, 83
5, 137691, Note_on_c, 9, 34, 49
5, 137746, Note_on_c, 9, 59, 0
5, 137759, Note_on_c, 9, 34, 0
5, 137815, Note_on_c, 9, 59, 58
5, 137816, Note_on_c, 9, 44, 40
5, 137816, Note_on_c, 9, 35, 32
5, 137826, Note_on_c, 9, 35, 53
5, 137828, Note_on_c, 9, 35, 0
5, 137830, Note_on_c, 9, 57, 55
5, 137832, Note_on_c, 9, 44, 0
5, 137895, Note_on_c, 9, 59, 0
5, 137910, Note_on_c, 9, 57, 0
5, 137989, Note_on_c, 9, 35, 0
5, 138059, Note_on_c, 9, 59, 42
5, 138094, Note_on_c, 9, 59, 0
5, 138200, Note_on_c, 9, 35, 32
5, 138207, Note_on_c, 9, 59, 31
5, 138208, Note_on_c, 9, 35, 0
5, 138243, Note_on_c, 9, 59, 0
5, 138420, Note_on_c, 9, 59, 44
5, 138457, Note_on_c, 9, 59, 0
5, 138584, Note_on_c, 9, 44, 40
5, 138584, Note_on_c, 9, 35, 32
5, 138592, Note_on_c, 9, 44, 0
5, 138595, Note_on_c, 9, 59, 38
5, 138596, Note_on_c, 9, 35, 0
5, 138601, Note_on_c, 9, 35, 10
5, 138635, Note_on_c, 9, 59, 0
5, 138734, Note_on_c, 9, 35, 0
5, 138806, Note_on_c, 9, 59, 76
5, 138878, Note_on_c, 9, 59, 0
5, 138959, Note_on_c, 9, 59, 57
5, 138968, Note_on_c, 9, 35, 32
5, 138976, Note_on_c, 9, 35, 0
5, 139043, Note_on_c, 9, 59, 0
5, 139184, Note_on_c, 9, 59, 48
5, 139227, Note_on_c, 9, 35, 26
5, 139244, Note_on_c, 9, 59, 0
5, 139255, Note_on_c, 9, 35, 0
5, 139325, Note_on_c, 9, 59, 47
5, 139347, Note_on_c, 9, 35, 9
5, 139348, Note_on_c, 9, 35, 27
5, 139352, Note_on_c, 9, 44, 40
5, 139352, Note_on_c, 9, 35, 32
5, 139364, Note_on_c, 9, 44, 0
5, 139364, Note_on_c, 9, 35, 0
5, 139376, Note_on_c, 9, 35, 0
5, 139392, Note_on_c, 9, 59, 0
5, 139396, Note_on_c, 9, 35, 0
5, 139555, Note_on_c, 9, 59, 51
5, 139588, Note_on_c, 9, 35, 52
5, 139626, Note_on_c, 9, 59, 0
5, 139631, Note_on_c, 9, 35, 0
5, 139705, Note_on_c, 9, 59, 49
5, 139736, Note_on_c, 9, 35, 32
5, 139740, Note_on_c, 9, 35, 0
5, 139788, Note_on_c, 9, 59, 0
5, 139944, Note_on_c, 9, 59, 62
5, 140011, Note_on_c, 9, 59, 0
5, 140074, Note_on_c, 9, 59, 41
5, 140120, Note_on_c, 9, 44, 40
5, 140124, Note_on_c, 9, 35, 32
5, 140128, Note_on_c, 9, 35, 0
5, 140128, Note_on_c, 9, 44, 0
5, 140152, Note_on_c, 9, 59, 0
5, 140321, Note_on_c, 9, 59, 54
5, 140374, Note_on_c, 9, 59, 0
5, 140464, Note_on_c, 9, 59, 57
5, 140500, Note_on_c, 9, 35, 32
5, 140512, Note_on_c, 9, 35, 0
5, 140541, Note_on_c, 9, 59, 0
5, 140740, Note_on_c, 9, 59, 61
5, 140789, Note_on_c, 9, 59, 0
5, 140857, Note_on_c, 9, 59, 58
5, 140888, Note_on_c, 9, 35, 32
5, 140892, Note_on_c, 9, 44, 40
5, 140900, Note_on_c, 9, 44, 0
5, 140904, Note_on_c, 9, 35, 0
5, 140915, Note_on_c, 9, 59, 0
5, 141122, Note_on_c, 9, 34, 41
5, 141148, Note_on_c, 9, 59, 60
5, 141177, Note_on_c, 9, 34, 0
5, 141179, Note_on_c, 9, 59, 0
5, 141248, Note_on_c, 9, 35, 9
5, 141254, Note_on_c, 9, 59, 56
5, 141259, Note_on_c, 9, 57, 10
5, 141268, Note_on_c, 9, 35, 32
5, 141276, Note_on_c, 9, 35, 0
5, 141295, Note_on_c, 9, 57, 0
5, 141330, Note_on_c, 9, 59, 0
5, 141332, Note_on_c, 9, 35, 0
5, 141500, Note_on_c, 9, 35, 40
5, 141509, Note_on_c, 9, 57, 30
5, 141534, Note_on_c, 9, 59, 68
5, 141540, Note_on_c, 9, 57, 0
5, 141558, Note_on_c, 9, 35, 0
5, 141597, Note_on_c, 9, 59, 0
5, 141642, Note_on_c, 9, 57, 28
5, 141655, Note_on_c, 9, 35, 15
5, 141656, Note_on_c, 9, 44, 40
5, 141656, Note_on_c, 9, 35, 32
5, 141664, Note_on_c, 9, 44, 0
5, 141664, Note_on_c, 9, 35, 0
5, 141666, Note_on_c, 9, 57, 0
5, 141667, Note_on_c, 9, 59, 51
5, 141685, Note_on_c, 9, 35, 0
5, 141725, Note_on_c, 9, 59, 0
5, 141923, Note_on_c, 9, 59, 68
5, 141988, Note_on_c, 9, 59, 0
5, 142036, Note_on_c, 9, 35, 32
5, 142044, Note_on_c, 9, 35, 0
5, 142045, Note_on_c, 9, 59, 54
5, 142103, Note_on_c, 9, 59, 0
5, 142305, Note_on_c, 9, 59, 67
5, 142371, Note_on_c, 9, 59, 0
5, 142424, Note_on_c, 9, 35, 32
5, 142429, Note_on_c, 9, 59, 54
5, 142440, Note_on_c, 9, 35, 0
5, 142493, Note_on_c, 9, 59, 0
5, 142688, Note_on_c, 9, 59, 67
5, 142751, Note_on_c, 9, 59, 0
5, 142793, Note_on_c, 9, 38, 45
5, 142811, Note_on_c, 9, 59, 56
5, 142812, Note_on_c, 9, 35, 25
5, 142815, Note_on_c, 9, 38, 0
5, 142828, Note_on_c, 9, 35, 0
5, 142872, Note_on_c, 9, 59, 0
5, 142900, Note_on_c, 9, 38, 59
5, 142949, Note_on_c, 9, 38, 0
5, 143063, Note_on_c, 9, 59, 63
5, 143125, Note_on_c, 9, 59, 0
5, 143165, Note_on_c, 9, 38, 40
5, 143190, Note_on_c, 9, 59, 54
5, 143196, Note_on_c, 9, 44, 40
5, 143196, Note_on_c, 9, 35, 32
5, 143212, Note_on_c, 9, 35, 0
5, 143212, Note_on_c, 9, 44, 0
5, 143216, Note_on_c, 9, 38, 0
5, 143255, Note_on_c, 9, 59, 0
5, 143288, Note_on_c, 9, 38, 48
5, 143350, Note_on_c, 9, 38, 0
5, 143453, Note_on_c, 9, 59, 65
5, 143492, Note_on_c, 9, 59, 0
5, 143559, Note_on_c, 9, 38, 42
5, 143578, Note_on_c, 9, 59, 50
5, 143580, Note_on_c, 9, 35, 32
5, 143588, Note_on_c, 9, 35, 0
5, 143607, Note_on_c, 9, 38, 0
5, 143637, Note_on_c, 9, 59, 0
5, 143680, Note_on_c, 9, 38, 37
5, 143748, Note_on_c, 9, 38, 0
5, 143835, Note_on_c, 9, 59, 63
5, 143865, Note_on_c, 9, 59, 0
5, 143946, Note_on_c, 9, 38, 48
5, 143956, Note_on_c, 9, 35, 32
5, 143964, Note_on_c, 9, 44, 40
5, 143968, Note_on_c, 9, 35, 0
5, 143972, Note_on_c, 9, 44, 0
5, 143976, Note_on_c, 9, 59, 46
5, 143983, Note_on_c, 9, 38, 0
5, 144021, Note_on_c, 9, 59, 0
5, 144084, Note_on_c, 9, 34, 28
5, 144130, Note_on_c, 9, 34, 0
5, 144197, Note_on_c, 9, 53, 54
5, 144205, Note_on_c, 9, 34, 39
5, 144260, Note_on_c, 9, 53, 0
5, 144291, Note_on_c, 9, 34, 0
5, 144344, Note_on_c, 9, 35, 32
5, 144345, Note_on_c, 9, 35, 32
5, 144348, Note_on_c, 9, 35, 0
5, 144350, Note_on_c, 9, 59, 36
5, 144403, Note_on_c, 9, 35, 0
5, 144417, Note_on_c, 9, 59, 0
5, 144612, Note_on_c, 9, 59, 60
5, 144642, Note_on_c, 9, 59, 0
5, 144724, Note_on_c, 9, 35, 32
5, 144732, Note_on_c, 9, 35, 0
5, 144732, Note_on_c, 9, 44, 40
5, 144736, Note_on_c, 9, 44, 0
5, 144744, Note_on_c, 9, 59, 54
5, 144799, Note_on_c, 9, 59, 0
5, 144985, Note_on_c, 9, 38, 42
5, 144995, Note_on_c, 9, 59, 63
5, 145010, Note_on_c, 9, 38, 0
5, 145026, Note_on_c, 9, 59, 0
5, 145112, Note_on_c, 9, 35, 32
5, 145116, Note_on_c, 9, 35, 0
5, 145127, Note_on_c, 9, 59, 54
5, 145131, Note_on_c, 9, 38, 50
5, 145187, Note_on_c, 9, 59, 0
5, 145197, Note_on_c, 9, 38, 0
5, 145367, Note_on_c, 9, 34, 48
5, 145382, Note_on_c, 9, 59, 55
5, 145412, Note_on_c, 9, 59, 0
5, 145415, Note_on_c, 9, 34, 0
5, 145500, Note_on_c, 9, 44, 40
5, 145500, Note_on_c, 9, 35, 32
5, 145505, Note_on_c, 9, 59, 51
5, 145512, Note_on_c, 9, 35, 0
5, 145512, Note_on_c, 9, 44, 0
5, 145515, Note_on_c, 9, 34, 26
5, 145541, Note_on_c, 9, 34, 0
5, 145545, Note_on_c, 9, 59, 0
5, 145752, Note_on_c, 9, 59, 90
5, 145753, Note_on_c, 9, 35, 45
5, 145809, Note_on_c, 9, 35, 0
5, 145821, Note_on_c, 9, 59, 0
5, 145876, Note_on_c, 9, 35, 32
5, 145888, Note_on_c, 9, 35, 0
5, 145888, Note_on_c, 9, 35, 25
5, 145902, Note_on_c, 9, 59, 54
5, 145930, Note_on_c, 9, 35, 0
5, 145964, Note_on_c, 9, 59, 0
5, 146148, Note_on_c, 9, 59, 59
5, 146183, Note_on_c, 9, 59, 0
5, 146260, Note_on_c, 9, 44, 40
5, 146267, Note_on_c, 9, 59, 55
5, 146268, Note_on_c, 9, 35, 40
5, 146268, Note_on_c, 9, 35, 32
5, 146272, Note_on_c, 9, 35, 0
5, 146272, Note_on_c, 9, 44, 0
5, 146327, Note_on_c, 9, 59, 0
5, 146328, Note_on_c, 9, 35, 0
5, 146520, Note_on_c, 9, 35, 45
5, 146521, Note_on_c, 9, 59, 48
5, 146551, Note_on_c, 9, 59, 0
5, 146591, Note_on_c, 9, 35, 0
5, 146639, Note_on_c, 9, 59, 46
5, 146648, Note_on_c, 9, 35, 32
5, 146656, Note_on_c, 9, 35, 0
5, 146657, Note_on_c, 9, 35, 30
5, 146699, Note_on_c, 9, 59, 0
5, 146713, Note_on_c, 9, 35, 0
5, 146888, Note_on_c, 9, 59, 76
5, 146946, Note_on_c, 9, 59, 0
5, 147013, Note_on_c, 9, 59, 51
5, 147028, Note_on_c, 9, 35, 32
5, 147032, Note_on_c, 9, 44, 40
5, 147036, Note_on_c, 9, 35, 0
5, 147040, Note_on_c, 9, 44, 0
5, 147059, Note_on_c, 9, 35, 38
5, 147080, Note_on_c, 9, 59, 0
5, 147217, Note_on_c, 9, 35, 0
5, 147257, Note_on_c, 9, 53, 58
5, 147279, Note_on_c, 9, 38, 51
5, 147324, Note_on_c, 9, 53, 0
5, 147346, Note_on_c, 9, 38, 0
5, 147411, Note_on_c, 9, 59, 46
5, 147416, Note_on_c, 9, 35, 32
5, 147424, Note_on_c, 9, 35, 0
5, 147470, Note_on_c, 9, 59, 0
5, 147657, Note_on_c, 9, 38, 68
5, 147673, Note_on_c, 9, 59, 58
5, 147703, Note_on_c, 9, 59, 0
5, 147732, Note_on_c, 9, 38, 0
5, 147796, Note_on_c, 9, 35, 32
5, 147803, Note_on_c, 9, 59, 57
5, 147804, Note_on_c, 9, 44, 40
5, 147808, Note_on_c, 9, 44, 0
5, 147808, Note_on_c, 9, 35, 0
5, 147866, Note_on_c, 9, 59, 0
5, 148034, Note_on_c, 9, 53, 56
5, 148051, Note_on_c, 9, 38, 75
5, 148093, Note_on_c, 9, 53, 0
5, 148116, Note_on_c, 9, 38, 0
5, 148180, Note_on_c, 9, 35, 32
5, 148188, Note_on_c, 9, 35, 0
5, 148197, Note_on_c, 9, 59, 61
5, 148252, Note_on_c, 9, 59, 0
5, 148415, Note_on_c, 9, 53, 57
5, 148428, Note_on_c, 9, 38, 75
5, 148444, Note_on_c, 9, 53, 0
5, 148540, Note_on_c, 9, 38, 0
5, 148559, Note_on_c, 9, 59, 54
5, 148564, Note_on_c, 9, 44, 40
5, 148564, Note_on_c, 9, 35, 32
5, 148576, Note_on_c, 9, 35, 0
5, 148576, Note_on_c, 9, 44, 0
5, 148598, Note_on_c, 9, 59, 0
5, 148704, Note_on_c, 9, 34, 34
5, 148726, Note_on_c, 9, 34, 0
5, 148813, Note_on_c, 9, 34, 65
5, 148817, Note_on_c, 9, 59, 46
5, 148852, Note_on_c, 9, 59, 0
5, 148878, Note_on_c, 9, 34, 0
5, 148936, Note_on_c, 9, 35, 48
5, 148939, Note_on_c, 9, 59, 34
5, 148947, Note_on_c, 9, 57, 54
5, 148952, Note_on_c, 9, 35, 32
5, 148956, Note_on_c, 9, 35, 0
5, 148977, Note_on_c, 9, 59, 0
5, 148992, Note_on_c, 9, 35, 25
5, 149000, Note_on_c, 9, 35, 0
5, 149076, Note_on_c, 9, 57, 0
5, 149160, Note_on_c, 9, 35, 0
5, 149208, Note_on_c, 9, 59, 42
5, 149255, Note_on_c, 9, 59, 0
5, 149321, Note_on_c, 9, 59, 61
5, 149340, Note_on_c, 9, 44, 40
5, 149340, Note_on_c, 9, 35, 32
5, 149344, Note_on_c, 9, 44, 0
5, 149348, Note_on_c, 9, 35, 0
5, 149488, Note_on_c, 9, 59, 0
5, 149575, Note_on_c, 9, 59, 12
5, 149627, Note_on_c, 9, 59, 0
5, 149686, Note_on_c, 9, 59, 54
5, 149724, Note_on_c, 9, 35, 32
5, 149740, Note_on_c, 9, 35, 0
5, 149847, Note_on_c, 9, 59, 0
5, 149944, Note_on_c, 9, 59, 40
5, 150016, Note_on_c, 9, 59, 0
5, 150070, Note_on_c, 9, 59, 67
5, 150104, Note_on_c, 9, 35, 32
5, 150108, Note_on_c, 9, 44, 40
5, 150112, Note_on_c, 9, 35, 0
5, 150116, Note_on_c, 9, 44, 0
5, 150206, Note_on_c, 9, 59, 0
5, 150356, Note_on_c, 9, 59, 31
5, 150390, Note_on_c, 9, 59, 0
5, 150462, Note_on_c, 9, 59, 42
5, 150488, Note_on_c, 9, 35, 32
5, 150492, Note_on_c, 9, 35, 0
5, 150601, Note_on_c, 9, 59, 0
5, 150746, Note_on_c, 9, 59, 36
5, 150784, Note_on_c, 9, 59, 0
5, 150865, Note_on_c, 9, 59, 56
5, 150872, Note_on_c, 9, 35, 32
5, 150872, Note_on_c, 9, 35, 0
5, 150876, Note_on_c, 9, 44, 40
5, 150876, Note_on_c, 9, 44, 0
5, 151022, Note_on_c, 9, 59, 0
5, 151107, Note_on_c, 9, 59, 39
5, 151143, Note_on_c, 9, 59, 0
5, 151228, Note_on_c, 9, 59, 44
5, 151256, Note_on_c, 9, 35, 32
5, 151260, Note_on_c, 9, 35, 0
5, 151430, Note_on_c, 9, 59, 0
5, 151493, Note_on_c, 9, 59, 33
5, 151525, Note_on_c, 9, 59, 0
5, 151608, Note_on_c, 9, 59, 54
5, 151640, Note_on_c, 9, 44, 40
5, 151644, Note_on_c, 9, 35, 32
5, 151652, Note_on_c, 9, 35, 0
5, 151656, Note_on_c, 9, 44, 0
5, 151779, Note_on_c, 9, 59, 0
5, 151878, Note_on_c, 9, 34, 39
5, 151892, Note_on_c, 9, 59, 25
5, 151930, Note_on_c, 9, 59, 0
5, 151952, Note_on_c, 9, 34, 0
5, 152004, Note_on_c, 9, 59, 49
5, 152020, Note_on_c, 9, 35, 32
5, 152025, Note_on_c, 9, 35, 3
5, 152032, Note_on_c, 9, 35, 0
5, 152115, Note_on_c, 9, 35, 0
5, 152166, Note_on_c, 9, 59, 0
5, 152290, Note_on_c, 9, 59, 27
5, 152324, Note_on_c, 9, 59, 0
5, 152392, Note_on_c, 9, 59, 49
5, 152404, Note_on_c, 9, 44, 40
5, 152412, Note_on_c, 9, 35, 32
5, 152416, Note_on_c, 9, 35, 0
5, 152416, Note_on_c, 9, 44, 0
5, 152565, Note_on_c, 9, 59, 0
5, 152658, Note_on_c, 9, 59, 23
5, 152706, Note_on_c, 9, 59, 0
5, 152777, Note_on_c, 9, 59, 46
5, 152792, Note_on_c, 9, 35, 32
5, 152796, Note_on_c, 9, 35, 0
5, 152915, Note_on_c, 9, 59, 0
5, 153035, Note_on_c, 9, 59, 34
5, 153068, Note_on_c, 9, 59, 0
5, 153171, Note_on_c, 9, 59, 63
5, 153172, Note_on_c, 9, 35, 32
5, 153176, Note_on_c, 9, 44, 40
5, 153180, Note_on_c, 9, 35, 0
5, 153184, Note_on_c, 9, 44, 0
5, 153324, Note_on_c, 9, 59, 0
5, 153416, Note_on_c, 9, 59, 35
5, 153486, Note_on_c, 9, 59, 0
5, 153545, Note_on_c, 9, 38, 26
5, 153560, Note_on_c, 9, 35, 32
5, 153563, Note_on_c, 9, 59, 24
5, 153572, Note_on_c, 9, 35, 0
5, 153619, Note_on_c, 9, 38, 0
5, 153739, Note_on_c, 9, 59, 0
5, 153819, Note_on_c, 9, 59, 40
5, 153850, Note_on_c, 9, 59, 0
5, 153927, Note_on_c, 9, 38, 23
5, 153936, Note_on_c, 9, 59, 61
5, 153940, Note_on_c, 9, 35, 32
5, 153944, Note_on_c, 9, 44, 40
5, 153948, Note_on_c, 9, 44, 0
5, 153952, Note_on_c, 9, 35, 0
5, 154084, Note_on_c, 9, 38, 0
5, 154110, Note_on_c, 9, 59, 0
5, 154225, Note_on_c, 9, 59, 24
5, 154263, Note_on_c, 9, 59, 0
5, 154324, Note_on_c, 9, 35, 32
5, 154332, Note_on_c, 9, 35, 0
5, 154332, Note_on_c, 9, 59, 39
5, 154515, Note_on_c, 9, 59, 0
5, 154601, Note_on_c, 9, 59, 34
5, 154639, Note_on_c, 9, 59, 0
5, 154709, Note_on_c, 9, 59, 55
5, 154712, Note_on_c, 9, 35, 32
5, 154720, Note_on_c, 9, 35, 0
5, 154910, Note_on_c, 9, 59, 0
5, 154958, Note_on_c, 9, 34, 44
5, 154983, Note_on_c, 9, 59, 32
5, 155015, Note_on_c, 9, 59, 0
5, 155068, Note_on_c, 9, 34, 0
5, 155076, Note_on_c, 9, 59, 38
5, 155078, Note_on_c, 9, 57, 52
5, 155090, Note_on_c, 9, 38, 48
5, 155096, Note_on_c, 9, 35, 32
5, 155104, Note_on_c, 9, 35, 0
5, 155152, Note_on_c, 9, 57, 0
5, 155183, Note_on_c, 9, 38, 0
5, 155283, Note_on_c, 9, 59, 0
5, 155348, Note_on_c, 9, 59, 29
5, 155383, Note_on_c, 9, 59, 0
5, 155448, Note_on_c, 9, 59, 51
5, 155480, Note_on_c, 9, 44, 40
5, 155480, Note_on_c, 9, 35, 32
5, 155496, Note_on_c, 9, 35, 0
5, 155496, Note_on_c, 9, 44, 0
5, 155657, Note_on_c, 9, 59, 0
5, 155730, Note_on_c, 9, 59, 31
5, 155764, Note_on_c, 9, 59, 0
5, 155831, Note_on_c, 9, 59, 40
5, 155864, Note_on_c, 9, 35, 32
5, 155872, Note_on_c, 9, 35, 0
5, 156008, Note_on_c, 9, 59, 0
5, 156119, Note_on_c, 9, 59, 34
5, 156153, Note_on_c, 9, 59, 0
5, 156229, Note_on_c, 9, 59, 48
5, 156248, Note_on_c, 9, 44, 40
5, 156248, Note_on_c, 9, 35, 32
5, 156260, Note_on_c, 9, 35, 0
5, 156264, Note_on_c, 9, 44, 0
5, 156341, Note_on_c, 9, 59, 0
5, 156602, Note_on_c, 9, 59, 46
5, 156632, Note_on_c, 9, 35, 32
5, 156640, Note_on_c, 9, 35, 0
5, 156783, Note_on_c, 9, 59, 0
5, 156916, Note_on_c, 9, 59, 34
5, 156949, Note_on_c, 9, 59, 0
5, 157010, Note_on_c, 9, 59, 46
5, 157016, Note_on_c, 9, 44, 40
5, 157016, Note_on_c, 9, 35, 32
5, 157024, Note_on_c, 9, 44, 0
5, 157028, Note_on_c, 9, 35, 0
5, 157189, Note_on_c, 9, 59, 0
5, 157271, Note_on_c, 9, 59, 37
5, 157313, Note_on_c, 9, 59, 0
5, 157392, Note_on_c, 9, 59, 49
5, 157400, Note_on_c, 9, 35, 32
5, 157408, Note_on_c, 9, 35, 0
5, 157576, Note_on_c, 9, 59, 0
5, 157663, Note_on_c, 9, 59, 35
5, 157706, Note_on_c, 9, 59, 0
5, 157761, Note_on_c, 9, 38, 22
5, 157770, Note_on_c, 9, 59, 60
5, 157784, Note_on_c, 9, 44, 40
5, 157784, Note_on_c, 9, 35, 32
5, 157794, Note_on_c, 9, 38, 0
5, 157796, Note_on_c, 9, 35, 0
5, 157796, Note_on_c, 9, 44, 0
5, 157894, Note_on_c, 9, 38, 19
5, 157909, Note_on_c, 9, 59, 0
5, 157925, Note_on_c, 9, 38, 0
5, 158041, Note_on_c, 9, 59, 30
5, 158147, Note_on_c, 9, 59, 0
5, 158147, Note_on_c, 9, 59, 50
5, 158168, Note_on_c, 9, 35, 32
5, 158172, Note_on_c, 9, 35, 0
5, 158189, Note_on_c, 9, 38, 33
5, 158227, Note_on_c, 9, 38, 0
5, 158290, Note_on_c, 9, 59, 0
5, 158310, Note_on_c, 9, 38, 35
5, 158333, Note_on_c, 9, 38, 0
5, 158427, Note_on_c, 9, 59, 29
5, 158466, Note_on_c, 9, 59, 0
5, 158538, Note_on_c, 9, 59, 52
5, 158547, Note_on_c, 9, 38, 51
5, 158552, Note_on_c, 9, 44, 40
5, 158556, Note_on_c, 9, 35, 32
5, 158560, Note_on_c, 9, 35, 0
5, 158560, Note_on_c, 9, 44, 0
5, 158587, Note_on_c, 9, 38, 0
5, 158688, Note_on_c, 9, 59, 0
5, 158805, Note_on_c, 9, 38, 60
5, 158831, Note_on_c, 9, 59, 38
5, 158848, Note_on_c, 9, 38, 0
5, 158862, Note_on_c, 9, 59, 0
5, 158930, Note_on_c, 9, 59, 42
5, 158932, Note_on_c, 9, 35, 32
5, 158944, Note_on_c, 9, 35, 0
5, 159042, Note_on_c, 9, 59, 0
5, 159199, Note_on_c, 9, 59, 21
5, 159239, Note_on_c, 9, 59, 0
5, 159290, Note_on_c, 9, 59, 61
5, 159320, Note_on_c, 9, 35, 32
5, 159324, Note_on_c, 9, 44, 40
5, 159332, Note_on_c, 9, 44, 0
5, 159336, Note_on_c, 9, 35, 0
5, 159512, Note_on_c, 9, 59, 0
5, 159575, Note_on_c, 9, 59, 24
5, 159613, Note_on_c, 9, 59, 0
5, 159673, Note_on_c, 9, 59, 47
5, 159700, Note_on_c, 9, 35, 32
5, 159708, Note_on_c, 9, 35, 0
5, 159868, Note_on_c, 9, 59, 0
5, 159962, Note_on_c, 9, 59, 29
5, 160070, Note_on_c, 9, 59, 0
5, 160070, Note_on_c, 9, 59, 51
5, 160088, Note_on_c, 9, 44, 40
5, 160088, Note_on_c, 9, 35, 32
5, 160096, Note_on_c, 9, 35, 0
5, 160096, Note_on_c, 9, 44, 0
5, 160196, Note_on_c, 9, 59, 0
5, 160333, Note_on_c, 9, 59, 40
5, 160370, Note_on_c, 9, 59, 0
5, 160441, Note_on_c, 9, 59, 54
5, 160468, Note_on_c, 9, 35, 32
5, 160476, Note_on_c, 9, 35, 0
5, 160629, Note_on_c, 9, 59, 0
5, 160762, Note_on_c, 9, 59, 42
5, 160792, Note_on_c, 9, 59, 0
5, 160805, Note_on_c, 9, 38, 30
5, 160805, Note_on_c, 9, 38, 0
5, 160847, Note_on_c, 9, 59, 55
5, 160856, Note_on_c, 9, 35, 32
5, 160872, Note_on_c, 9, 35, 0
5, 160903, Note_on_c, 9, 38, 39
5, 160929, Note_on_c, 9, 38, 0
5, 161042, Note_on_c, 9, 59, 0
5, 161125, Note_on_c, 9, 59, 19
5, 161126, Note_on_c, 9, 34, 42
5, 161164, Note_on_c, 9, 59, 0
5, 161190, Note_on_c, 9, 34, 0
5, 161233, Note_on_c, 9, 59, 49
5, 161244, Note_on_c, 9, 35, 25
5, 161260, Note_on_c, 9, 35, 0
5, 161266, Note_on_c, 9, 38, 37
5, 161267, Note_on_c, 9, 57, 32
5, 161289, Note_on_c, 9, 38, 0
5, 161290, Note_on_c, 9, 57, 0
5, 161402, Note_on_c, 9, 59, 0
5, 161498, Note_on_c, 9, 59, 23
5, 161535, Note_on_c, 9, 59, 0
5, 161609, Note_on_c, 9, 59, 48
5, 161628, Note_on_c, 9, 44, 40
5, 161628, Note_on_c, 9, 35, 32
5, 161644, Note_on_c, 9, 35, 0
5, 161644, Note_on_c, 9, 44, 0
5, 161803, Note_on_c, 9, 59, 0
5, 161886, Note_on_c, 9, 59, 35
5, 161922, Note_on_c, 9, 59, 0
5, 162000, Note_on_c, 9, 59, 51
5, 162012, Note_on_c, 9, 35, 32
5, 162020, Note_on_c, 9, 35, 0
5, 162143, Note_on_c, 9, 59, 0
5, 162265, Note_on_c, 9, 38, 58
5, 162288, Note_on_c, 9, 59, 33
5, 162319, Note_on_c, 9, 59, 0
5, 162327, Note_on_c, 9, 38, 0
5, 162384, Note_on_c, 9, 59, 51
5, 162388, Note_on_c, 9, 35, 32
5, 162391, Note_on_c, 9, 34, 40
5, 162396, Note_on_c, 9, 44, 40
5, 162400, Note_on_c, 9, 35, 0
5, 162404, Note_on_c, 9, 44, 0
5, 162407, Note_on_c, 9, 57, 42
5, 162431, Note_on_c, 9, 57, 0
5, 162473, Note_on_c, 9, 34, 0
5, 162530, Note_on_c, 9, 59, 0
5, 162763, Note_on_c, 9, 59, 57
5, 162776, Note_on_c, 9, 35, 32
5, 162780, Note_on_c, 9, 35, 0
5, 162934, Note_on_c, 9, 59, 0
5, 163052, Note_on_c, 9, 59, 29
5, 163100, Note_on_c, 9, 59, 0
5, 163156, Note_on_c, 9, 35, 32
5, 163164, Note_on_c, 9, 35, 0
5, 163164, Note_on_c, 9, 44, 40
5, 163168, Note_on_c, 9, 44, 0
5, 163170, Note_on_c, 9, 59, 57
5, 163329, Note_on_c, 9, 59, 0
5, 163541, Note_on_c, 9, 59, 60
5, 163544, Note_on_c, 9, 35, 32
5, 163548, Note_on_c, 9, 35, 0
5, 163721, Note_on_c, 9, 59, 0
5, 163921, Note_on_c, 9, 59, 61
5, 163932, Note_on_c, 9, 44, 40
5, 163932, Note_on_c, 9, 35, 32
5, 163944, Note_on_c, 9, 35, 0
5, 163944, Note_on_c, 9, 44, 0
5, 164086, Note_on_c, 9, 59, 0
5, 164211, Note_on_c, 9, 59, 26
5, 164251, Note_on_c, 9, 59, 0
5, 164308, Note_on_c, 9, 35, 32
5, 164317, Note_on_c, 9, 59, 51
5, 164320, Note_on_c, 9, 35, 0
5, 164526, Note_on_c, 9, 59, 0
5, 164577, Note_on_c, 9, 59, 37
5, 164607, Note_on_c, 9, 59, 0
5, 164692, Note_on_c, 9, 44, 40
5, 164695, Note_on_c, 9, 59, 46
5, 164700, Note_on_c, 9, 35, 32
5, 164704, Note_on_c, 9, 35, 0
5, 164704, Note_on_c, 9, 44, 0
5, 164914, Note_on_c, 9, 59, 0
5, 164987, Note_on_c, 9, 59, 25
5, 165023, Note_on_c, 9, 59, 0
5, 165080, Note_on_c, 9, 59, 54
5, 165080, Note_on_c, 9, 35, 32
5, 165088, Note_on_c, 9, 35, 0
5, 165206, Note_on_c, 9, 34, 20
5, 165239, Note_on_c, 9, 34, 0
5, 165303, Note_on_c, 9, 59, 0
5, 165330, Note_on_c, 9, 34, 29
5, 165378, Note_on_c, 9, 59, 17
5, 165380, Note_on_c, 9, 34, 0
5, 165419, Note_on_c, 9, 59, 0
5, 165460, Note_on_c, 9, 35, 32
5, 165463, Note_on_c, 9, 34, 41
5, 165464, Note_on_c, 9, 44, 40
5, 165468, Note_on_c, 9, 35, 0
5, 165472, Note_on_c, 9, 44, 0
5, 165474, Note_on_c, 9, 59, 58
5, 165496, Note_on_c, 9, 34, 0
5, 165656, Note_on_c, 9, 59, 0
5, 165729, Note_on_c, 9, 59, 47
5, 165768, Note_on_c, 9, 59, 0
5, 165842, Note_on_c, 9, 59, 52
5, 165848, Note_on_c, 9, 35, 32
5, 165856, Note_on_c, 9, 35, 0
5, 166047, Note_on_c, 9, 59, 0
5, 166132, Note_on_c, 9, 59, 29
5, 166167, Note_on_c, 9, 59, 0
5, 166228, Note_on_c, 9, 35, 32
5, 166232, Note_on_c, 9, 59, 52
5, 166236, Note_on_c, 9, 44, 40
5, 166240, Note_on_c, 9, 44, 0
5, 166240, Note_on_c, 9, 35, 0
5, 166434, Note_on_c, 9, 59, 0
5, 166508, Note_on_c, 9, 59, 31
5, 166541, Note_on_c, 9, 59, 0
5, 166612, Note_on_c, 9, 35, 32
5, 166616, Note_on_c, 9, 59, 51
5, 166620, Note_on_c, 9, 35, 0
5, 166823, Note_on_c, 9, 59, 0
5, 166890, Note_on_c, 9, 59, 38
5, 166921, Note_on_c, 9, 59, 0
5, 166992, Note_on_c, 9, 59, 54
5, 166996, Note_on_c, 9, 44, 40
5, 166996, Note_on_c, 9, 35, 32
5, 167008, Note_on_c, 9, 35, 0
5, 167008, Note_on_c, 9, 44, 0
5, 167122, Note_on_c, 9, 59, 0
5, 167136, Note_on_c, 9, 38, 37
5, 167158, Note_on_c, 9, 38, 0
5, 167262, Note_on_c, 9, 59, 65
5, 167318, Note_on_c, 9, 59, 0
5, 167372, Note_on_c, 9, 59, 64
5, 167384, Note_on_c, 9, 35, 32
5, 167388, Note_on_c, 9, 35, 0
5, 167416, Note_on_c, 9, 38, 18
5, 167444, Note_on_c, 9, 38, 0
5, 167542, Note_on_c, 9, 59, 0
5, 167636, Note_on_c, 9, 59, 18
5, 167647, Note_on_c, 9, 38, 51
5, 167671, Note_on_c, 9, 38, 0
5, 167676, Note_on_c, 9, 59, 0
5, 167745, Note_on_c, 9, 59, 55
5, 167764, Note_on_c, 9, 44, 40
5, 167764, Note_on_c, 9, 35, 32
5, 167780, Note_on_c, 9, 35, 0
5, 167780, Note_on_c, 9, 44, 0
5, 167871, Note_on_c, 9, 59, 0
5, 168007, Note_on_c, 9, 59, 55
5, 168065, Note_on_c, 9, 59, 0
5, 168132, Note_on_c, 9, 59, 68
5, 168152, Note_on_c, 9, 35, 32
5, 168160, Note_on_c, 9, 35, 0
5, 168302, Note_on_c, 9, 59, 0
5, 168407, Note_on_c, 9, 59, 30
5, 168442, Note_on_c, 9, 59, 0
5, 168520, Note_on_c, 9, 59, 47
5, 168532, Note_on_c, 9, 44, 40
5, 168536, Note_on_c, 9, 35, 32
5, 168548, Note_on_c, 9, 35, 0
5, 168552, Note_on_c, 9, 44, 0
5, 168614, Note_on_c, 9, 59, 0
5, 168655, Note_on_c, 9, 38, 6
5, 168665, Note_on_c, 9, 59, 41
5, 168695, Note_on_c, 9, 59, 0
5, 168726, Note_on_c, 9, 38, 0
5, 168764, Note_on_c, 9, 59, 42
5, 168782, Note_on_c, 9, 38, 21
5, 168854, Note_on_c, 9, 38, 0
5, 168860, Note_on_c, 9, 59, 0
5, 168902, Note_on_c, 9, 38, 43
5, 168910, Note_on_c, 9, 59, 64
5, 168920, Note_on_c, 9, 35, 32
5, 168924, Note_on_c, 9, 35, 0
5, 168929, Note_on_c, 9, 38, 0
5, 169072, Note_on_c, 9, 59, 0
5, 169163, Note_on_c, 9, 38, 37
5, 169213, Note_on_c, 9, 38, 0
5, 169223, Note_on_c, 9, 59, 62
5, 169283, Note_on_c, 9, 59, 0
5, 169304, Note_on_c, 9, 44, 40
5, 169304, Note_on_c, 9, 35, 32
5, 169320, Note_on_c, 9, 44, 0
5, 169324, Note_on_c, 9, 35, 0
5, 169354, Note_on_c, 9, 59, 40
5, 169416, Note_on_c, 9, 59, 0
5, 169664, Note_on_c, 9, 59, 60
5, 169692, Note_on_c, 9, 35, 32
5, 169696, Note_on_c, 9, 35, 0
5, 169814, Note_on_c, 9, 59, 0
5, 169960, Note_on_c, 9, 59, 44
5, 169991, Note_on_c, 9, 59, 0
5, 170070, Note_on_c, 9, 59, 49
5, 170072, Note_on_c, 9, 44, 40
5, 170072, Note_on_c, 9, 35, 32
5, 170084, Note_on_c, 9, 44, 0
5, 170088, Note_on_c, 9, 35, 0
5, 170242, Note_on_c, 9, 59, 0
5, 170317, Note_on_c, 9, 40, 14
5, 170345, Note_on_c, 9, 59, 20
5, 170351, Note_on_c, 9, 40, 0
5, 170384, Note_on_c, 9, 59, 0
5, 170451, Note_on_c, 9, 59, 52
5, 170456, Note_on_c, 9, 35, 32
5, 170464, Note_on_c, 9, 35, 0
5, 170623, Note_on_c, 9, 59, 0
5, 170687, Note_on_c, 9, 40, 21
5, 170717, Note_on_c, 9, 59, 34
5, 170750, Note_on_c, 9, 59, 0
5, 170762, Note_on_c, 9, 40, 0
5, 170826, Note_on_c, 9, 59, 51
5, 170836, Note_on_c, 9, 44, 40
5, 170836, Note_on_c, 9, 40, 15
5, 170848, Note_on_c, 9, 44, 0
5, 170848, Note_on_c, 9, 35, 32
5, 170848, Note_on_c, 9, 35, 0
5, 170909, Note_on_c, 9, 40, 0
5, 171029, Note_on_c, 9, 59, 0
5, 171127, Note_on_c, 9, 40, 14
5, 171155, Note_on_c, 9, 40, 0
5, 171209, Note_on_c, 9, 59, 55
5, 171220, Note_on_c, 9, 35, 32
5, 171232, Note_on_c, 9, 35, 0
5, 171408, Note_on_c, 9, 59, 0
5, 171470, Note_on_c, 9, 59, 44
5, 171500, Note_on_c, 9, 59, 0
5, 171576, Note_on_c, 9, 59, 48
5, 171608, Note_on_c, 9, 35, 32
5, 171624, Note_on_c, 9, 35, 0
5, 171689, Note_on_c, 9, 59, 0
5, 171847, Note_on_c, 9, 59, 45
5, 171876, Note_on_c, 9, 59, 0
5, 171992, Note_on_c, 9, 35, 32
5, 172000, Note_on_c, 9, 35, 0
5, 172243, Note_on_c, 9, 59, 70
5, 172247, Note_on_c, 9, 38, 43
5, 172269, Note_on_c, 9, 38, 0
5, 172297, Note_on_c, 9, 59, 0
5, 172360, Note_on_c, 9, 59, 60
5, 172372, Note_on_c, 9, 35, 32
5, 172377, Note_on_c, 9, 38, 56
5, 172380, Note_on_c, 9, 44, 40
5, 172384, Note_on_c, 9, 44, 0
5, 172388, Note_on_c, 9, 35, 0
5, 172436, Note_on_c, 9, 38, 0
5, 172517, Note_on_c, 9, 59, 0
5, 172645, Note_on_c, 9, 59, 17
5, 172686, Note_on_c, 9, 59, 0
5, 172760, Note_on_c, 9, 35, 32
5, 172764, Note_on_c, 9, 35, 0
5, 172764, Note_on_c, 9, 59, 37
5, 172803, Note_on_c, 9, 59, 0
5, 173020, Note_on_c, 9, 38, 58
5, 173023, Note_on_c, 9, 59, 72
5, 173068, Note_on_c, 9, 38, 0
5, 173083, Note_on_c, 9, 59, 0
5, 173141, Note_on_c, 9, 59, 68
5, 173148, Note_on_c, 9, 44, 40
5, 173148, Note_on_c, 9, 35, 32
5, 173158, Note_on_c, 9, 38, 40
5, 173160, Note_on_c, 9, 35, 0
5, 173160, Note_on_c, 9, 44, 0
5, 173185, Note_on_c, 9, 38, 0
5, 173285, Note_on_c, 9, 38, 48
5, 173295, Note_on_c, 9, 59, 0
5, 173334, Note_on_c, 9, 38, 0
5, 173386, Note_on_c, 9, 34, 66
5, 173424, Note_on_c, 9, 59, 22
5, 173460, Note_on_c, 9, 59, 0
5, 173471, Note_on_c, 9, 34, 0
5, 173517, Note_on_c, 9, 57, 48
5, 173528, Note_on_c, 9, 59, 33
5, 173528, Note_on_c, 9, 38, 68
5, 173532, Note_on_c, 9, 35, 25
5, 173548, Note_on_c, 9, 35, 0
5, 173574, Note_on_c, 9, 57, 0
5, 173647, Note_on_c, 9, 59, 0
5, 173791, Note_on_c, 9, 59, 34
5, 173826, Note_on_c, 9, 59, 0
5, 173908, Note_on_c, 9, 59, 60
5, 173916, Note_on_c, 9, 44, 40
5, 173916, Note_on_c, 9, 35, 32
5, 173932, Note_on_c, 9, 35, 0
5, 173932, Note_on_c, 9, 44, 0
5, 174111, Note_on_c, 9, 59, 0
5, 174177, Note_on_c, 9, 59, 32
5, 174210, Note_on_c, 9, 59, 0
5, 174300, Note_on_c, 9, 35, 32
5, 174316, Note_on_c, 9, 35, 0
5, 174445, Note_on_c, 9, 38, 0
5, 174445, Note_on_c, 9, 59, 54
5, 174471, Note_on_c, 9, 59, 0
5, 174539, Note_on_c, 9, 59, 39
5, 174555, Note_on_c, 9, 34, 59
5, 174578, Note_on_c, 9, 59, 0
5, 174651, Note_on_c, 9, 34, 0
5, 174671, Note_on_c, 9, 59, 60
5, 174676, Note_on_c, 9, 35, 32
5, 174684, Note_on_c, 9, 44, 40
5, 174687, Note_on_c, 9, 57, 51
5, 174688, Note_on_c, 9, 35, 0
5, 174692, Note_on_c, 9, 44, 0
5, 174692, Note_on_c, 9, 38, 67
5, 174743, Note_on_c, 9, 57, 0
5, 174811, Note_on_c, 9, 59, 0
5, 174814, Note_on_c, 9, 38, 0
5, 174956, Note_on_c, 9, 59, 29
5, 174989, Note_on_c, 9, 59, 0
5, 175041, Note_on_c, 9, 59, 60
5, 175060, Note_on_c, 9, 35, 32
5, 175068, Note_on_c, 9, 35, 0
5, 175163, Note_on_c, 9, 59, 0
5, 175426, Note_on_c, 9, 59, 54
5, 175444, Note_on_c, 9, 35, 32
5, 175448, Note_on_c, 9, 35, 0
5, 175452, Note_on_c, 9, 44, 40
5, 175452, Note_on_c, 9, 44, 0
5, 175538, Note_on_c, 9, 59, 0
5, 175807, Note_on_c, 9, 59, 63
5, 175832, Note_on_c, 9, 35, 32
5, 175836, Note_on_c, 9, 35, 0
5, 175952, Note_on_c, 9, 59, 0
5, 176197, Note_on_c, 9, 59, 64
5, 176216, Note_on_c, 9, 35, 32
5, 176228, Note_on_c, 9, 35, 0
5, 176297, Note_on_c, 9, 59, 0
5, 176480, Note_on_c, 9, 59, 58
5, 176529, Note_on_c, 9, 59, 0
5, 176596, Note_on_c, 9, 35, 32
5, 176604, Note_on_c, 9, 35, 0
5, 176608, Note_on_c, 9, 59, 40
5, 176684, Note_on_c, 9, 59, 0
5, 176855, Note_on_c, 9, 59, 53
5, 176911, Note_on_c, 9, 59, 0
5, 176976, Note_on_c, 9, 59, 47
5, 176980, Note_on_c, 9, 44, 40
5, 176988, Note_on_c, 9, 44, 0
5, 176988, Note_on_c, 9, 35, 32
5, 176988, Note_on_c, 9, 35, 0
5, 177011, Note_on_c, 9, 59, 0
5, 177234, Note_on_c, 9, 59, 46
5, 177270, Note_on_c, 9, 59, 0
5, 177353, Note_on_c, 9, 59, 40
5, 177368, Note_on_c, 9, 35, 32
5, 177376, Note_on_c, 9, 35, 0
5, 177397, Note_on_c, 9, 59, 0
5, 177627, Note_on_c, 9, 59, 56
5, 177666, Note_on_c, 9, 59, 0
5, 177747, Note_on_c, 9, 59, 44
5, 177748, Note_on_c, 9, 35, 32
5, 177752, Note_on_c, 9, 44, 40
5, 177756, Note_on_c, 9, 35, 0
5, 177760, Note_on_c, 9, 44, 0
5, 177807, Note_on_c, 9, 59, 0
5, 178015, Note_on_c, 9, 59, 58
5, 178070, Note_on_c, 9, 59, 0
5, 178132, Note_on_c, 9, 59, 56
5, 178136, Note_on_c, 9, 35, 32
5, 178143, Note_on_c, 9, 38, 25
5, 178144, Note_on_c, 9, 35, 0
5, 178166, Note_on_c, 9, 38, 0
5, 178177, Note_on_c, 9, 59, 0
5, 178329, Note_on_c, 9, 38, 51
5, 178351, Note_on_c, 9, 38, 0
5, 178399, Note_on_c, 9, 59, 59
5, 178454, Note_on_c, 9, 59, 0
5, 178511, Note_on_c, 9, 38, 63
5, 178516, Note_on_c, 9, 35, 32
5, 178520, Note_on_c, 9, 59, 48
5, 178524, Note_on_c, 9, 44, 40
5, 178532, Note_on_c, 9, 44, 0
5, 178532, Note_on_c, 9, 35, 0
5, 178556, Note_on_c, 9, 59, 0
5, 178564, Note_on_c, 9, 38, 0
5, 178615, Note_on_c, 9, 38, 40
5, 178655, Note_on_c, 9, 38, 0
5, 178774, Note_on_c, 9, 59, 58
5, 178831, Note_on_c, 9, 59, 0
5, 178900, Note_on_c, 9, 35, 32
5, 178904, Note_on_c, 9, 59, 47
5, 178912, Note_on_c, 9, 35, 0
5, 178942, Note_on_c, 9, 59, 0
5, 179165, Note_on_c, 9, 59, 58
5, 179221, Note_on_c, 9, 59, 0
5, 179283, Note_on_c, 9, 59, 52
5, 179284, Note_on_c, 9, 44, 40
5, 179288, Note_on_c, 9, 35, 32
5, 179296, Note_on_c, 9, 35, 0
5, 179296, Note_on_c, 9, 44, 0
5, 179318, Note_on_c, 9, 59, 0
5, 179548, Note_on_c, 9, 59, 55
5, 179604, Note_on_c, 9, 59, 0
5, 179667, Note_on_c, 9, 59, 51
5, 179672, Note_on_c, 9, 35, 32
5, 179676, Note_on_c, 9, 35, 0
5, 179719, Note_on_c, 9, 59, 0
5, 179928, Note_on_c, 9, 59, 60
5, 179987, Note_on_c, 9, 59, 0
5, 180052, Note_on_c, 9, 44, 40
5, 180052, Note_on_c, 9, 35, 32
5, 180053, Note_on_c, 9, 59, 49
5, 180072, Note_on_c, 9, 35, 0
5, 180076, Note_on_c, 9, 44, 0
5, 180098, Note_on_c, 9, 59, 0
5, 180335, Note_on_c, 9, 59, 58
5, 180397, Note_on_c, 9, 59, 0
5, 180436, Note_on_c, 9, 35, 32
5, 180444, Note_on_c, 9, 35, 0
5, 180453, Note_on_c, 9, 59, 51
5, 180492, Note_on_c, 9, 59, 0
5, 180583, Note_on_c, 9, 38, 17
5, 180622, Note_on_c, 9, 38, 0
5, 180705, Note_on_c, 9, 38, 5
5, 180723, Note_on_c, 9, 59, 58
5, 180754, Note_on_c, 9, 59, 0
5, 180755, Note_on_c, 9, 38, 0
5, 180823, Note_on_c, 9, 59, 54
5, 180824, Note_on_c, 9, 44, 40
5, 180824, Note_on_c, 9, 35, 32
5, 180840, Note_on_c, 9, 35, 0
5, 180840, Note_on_c, 9, 44, 0
5, 180878, Note_on_c, 9, 59, 0
5, 181080, Note_on_c, 9, 59, 60
5, 181115, Note_on_c, 9, 59, 0
5, 181206, Note_on_c, 9, 59, 58
5, 181208, Note_on_c, 9, 35, 32
5, 181212, Note_on_c, 9, 35, 0
5, 181290, Note_on_c, 9, 59, 0
5, 181449, Note_on_c, 9, 53, 52
5, 181472, Note_on_c, 9, 35, 48
5, 181479, Note_on_c, 9, 53, 0
5, 181529, Note_on_c, 9, 35, 0
5, 181583, Note_on_c, 9, 59, 37
5, 181592, Note_on_c, 9, 44, 40
5, 181592, Note_on_c, 9, 35, 32
5, 181608, Note_on_c, 9, 35, 0
5, 181608, Note_on_c, 9, 44, 0
5, 181674, Note_on_c, 9, 59, 0
5, 181833, Note_on_c, 9, 38, 18
5, 181858, Note_on_c, 9, 59, 40
5, 181891, Note_on_c, 9, 59, 0
5, 181943, Note_on_c, 9, 38, 0
5, 181967, Note_on_c, 9, 59, 46
5, 181976, Note_on_c, 9, 35, 32
5, 181980, Note_on_c, 9, 35, 0
5, 182041, Note_on_c, 9, 59, 0
5, 182226, Note_on_c, 9, 59, 26
5, 182241, Note_on_c, 9, 38, 18
5, 182261, Note_on_c, 9, 59, 0
5, 182269, Note_on_c, 9, 38, 0
5, 182333, Note_on_c, 9, 59, 51
5, 182364, Note_on_c, 9, 44, 40
5, 182364, Note_on_c, 9, 35, 32
5, 182372, Note_on_c, 9, 44, 0
5, 182376, Note_on_c, 9, 35, 0
5, 182403, Note_on_c, 9, 59, 0
5, 182618, Note_on_c, 9, 59, 42
5, 182649, Note_on_c, 9, 59, 0
5, 182719, Note_on_c, 9, 59, 47
5, 182744, Note_on_c, 9, 35, 32
5, 182752, Note_on_c, 9, 35, 0
5, 182802, Note_on_c, 9, 59, 0
5, 183018, Note_on_c, 9, 59, 40
5, 183048, Note_on_c, 9, 59, 0
5, 183132, Note_on_c, 9, 44, 40
5, 183132, Note_on_c, 9, 59, 51
5, 183132, Note_on_c, 9, 35, 32
5, 183136, Note_on_c, 9, 35, 0
5, 183140, Note_on_c, 9, 44, 0
5, 183202, Note_on_c, 9, 59, 0
5, 183410, Note_on_c, 9, 59, 36
5, 183412, Note_on_c, 9, 35, 45
5, 183440, Note_on_c, 9, 59, 0
5, 183507, Note_on_c, 9, 35, 0
5, 183508, Note_on_c, 9, 35, 32
5, 183513, Note_on_c, 9, 59, 47
5, 183520, Note_on_c, 9, 35, 0
5, 183566, Note_on_c, 9, 35, 35
5, 183594, Note_on_c, 9, 59, 0
5, 183756, Note_on_c, 9, 35, 0
5, 183771, Note_on_c, 9, 40, 19
5, 183801, Note_on_c, 9, 40, 0
5, 183805, Note_on_c, 9, 35, 32
5, 183870, Note_on_c, 9, 35, 0
5, 183890, Note_on_c, 9, 59, 64
5, 183892, Note_on_c, 9, 35, 32
5, 183896, Note_on_c, 9, 44, 40
5, 183900, Note_on_c, 9, 44, 0
5, 183904, Note_on_c, 9, 35, 0
5, 183976, Note_on_c, 9, 59, 0
5, 184277, Note_on_c, 9, 59, 60
5, 184280, Note_on_c, 9, 35, 32
5, 184292, Note_on_c, 9, 35, 0
5, 184348, Note_on_c, 9, 59, 0
5, 184551, Note_on_c, 9, 40, 9
5, 184590, Note_on_c, 9, 40, 0
5, 184645, Note_on_c, 9, 59, 65
5, 184660, Note_on_c, 9, 35, 32
5, 184668, Note_on_c, 9, 44, 40
5, 184668, Note_on_c, 9, 44, 0
5, 184672, Note_on_c, 9, 35, 0
5, 184718, Note_on_c, 9, 59, 0
5, 184945, Note_on_c, 9, 59, 42
5, 184981, Note_on_c, 9, 59, 0
5, 185044, Note_on_c, 9, 35, 32
5, 185052, Note_on_c, 9, 35, 0
5, 185059, Note_on_c, 9, 59, 48
5, 185138, Note_on_c, 9, 59, 0
5, 185330, Note_on_c, 9, 59, 31
5, 185362, Note_on_c, 9, 59, 0
5, 185432, Note_on_c, 9, 35, 32
5, 185436, Note_on_c, 9, 59, 44
5, 185440, Note_on_c, 9, 35, 0
5, 185534, Note_on_c, 9, 59, 0
5, 185695, Note_on_c, 9, 59, 44
5, 185740, Note_on_c, 9, 59, 0
5, 185814, Note_on_c, 9, 59, 56
5, 185820, Note_on_c, 9, 35, 25
5, 185828, Note_on_c, 9, 35, 0
5, 185884, Note_on_c, 9, 59, 0
5, 186084, Note_on_c, 9, 59, 40
5, 186123, Note_on_c, 9, 59, 0
5, 186200, Note_on_c, 9, 59, 46
5, 186204, Note_on_c, 9, 44, 40
5, 186212, Note_on_c, 9, 35, 32
5, 186220, Note_on_c, 9, 35, 0
5, 186220, Note_on_c, 9, 44, 0
5, 186280, Note_on_c, 9, 59, 0
5, 186474, Note_on_c, 9, 59, 43
5, 186509, Note_on_c, 9, 59, 0
5, 186588, Note_on_c, 9, 35, 32
5, 186591, Note_on_c, 9, 59, 44
5, 186604, Note_on_c, 9, 35, 0
5, 186645, Note_on_c, 9, 59, 0
5, 186850, Note_on_c, 9, 59, 51
5, 186881, Note_on_c, 9, 59, 0
5, 186964, Note_on_c, 9, 35, 32
5, 186968, Note_on_c, 9, 59, 40
5, 186976, Note_on_c, 9, 35, 0
5, 186976, Note_on_c, 9, 44, 40
5, 186980, Note_on_c, 9, 44, 0
5, 187010, Note_on_c, 9, 59, 0
5, 187236, Note_on_c, 9, 59, 41
5, 187266, Note_on_c, 9, 59, 0
5, 187340, Note_on_c, 9, 59, 42
5, 187352, Note_on_c, 9, 35, 32
5, 187356, Note_on_c, 9, 35, 0
5, 187390, Note_on_c, 9, 59, 0
5, 187617, Note_on_c, 9, 59, 41
5, 187633, Note_on_c, 9, 40, 20
5, 187647, Note_on_c, 9, 59, 0
5, 187662, Note_on_c, 9, 40, 0
5, 187732, Note_on_c, 9, 59, 45
5, 187736, Note_on_c, 9, 35, 32
5, 187740, Note_on_c, 9, 35, 0
5, 187740, Note_on_c, 9, 44, 40
5, 187748, Note_on_c, 9, 44, 0
5, 187773, Note_on_c, 9, 59, 0
5, 187775, Note_on_c, 9, 40, 21
5, 187801, Note_on_c, 9, 40, 0
5, 188004, Note_on_c, 9, 40, 64
5, 188006, Note_on_c, 9, 59, 53
5, 188036, Note_on_c, 9, 59, 0
5, 188061, Note_on_c, 9, 40, 0
5, 188117, Note_on_c, 9, 59, 53
5, 188124, Note_on_c, 9, 35, 32
5, 188128, Note_on_c, 9, 35, 0
5, 188182, Note_on_c, 9, 59, 0
5, 188381, Note_on_c, 9, 59, 39
5, 188402, Note_on_c, 9, 40, 11
5, 188412, Note_on_c, 9, 59, 0
5, 188427, Note_on_c, 9, 40, 0
5, 188504, Note_on_c, 9, 44, 40
5, 188504, Note_on_c, 9, 35, 32
5, 188509, Note_on_c, 9, 59, 34
5, 188516, Note_on_c, 9, 35, 0
5, 188516, Note_on_c, 9, 44, 0
5, 188540, Note_on_c, 9, 59, 0
5, 188761, Note_on_c, 9, 59, 64
5, 188824, Note_on_c, 9, 59, 0
5, 188880, Note_on_c, 9, 59, 64
5, 188888, Note_on_c, 9, 35, 32
5, 188892, Note_on_c, 9, 35, 0
5, 188961, Note_on_c, 9, 59, 0
5, 189156, Note_on_c, 9, 59, 31
5, 189190, Note_on_c, 9, 59, 0
5, 189268, Note_on_c, 9, 44, 40
5, 189273, Note_on_c, 9, 59, 38
5, 189280, Note_on_c, 9, 35, 32
5, 189280, Note_on_c, 9, 35, 0
5, 189284, Note_on_c, 9, 44, 0
5, 189349, Note_on_c, 9, 59, 0
5, 189532, Note_on_c, 9, 59, 46
5, 189591, Note_on_c, 9, 59, 0
5, 189656, Note_on_c, 9, 35, 32
5, 189660, Note_on_c, 9, 35, 0
5, 189660, Note_on_c, 9, 59, 60
5, 189734, Note_on_c, 9, 59, 0
5, 189918, Note_on_c, 9, 59, 42
5, 189953, Note_on_c, 9, 59, 0
5, 190040, Note_on_c, 9, 35, 32
5, 190044, Note_on_c, 9, 35, 0
5, 190044, Note_on_c, 9, 44, 40
5, 190048, Note_on_c, 9, 44, 0
5, 190049, Note_on_c, 9, 59, 42
5, 190146, Note_on_c, 9, 59, 0
5, 190310, Note_on_c, 9, 59, 38
5, 190341, Note_on_c, 9, 59, 0
5, 190421, Note_on_c, 9, 59, 44
5, 190424, Note_on_c, 9, 35, 32
5, 190428, Note_on_c, 9, 35, 0
5, 190492, Note_on_c, 9, 59, 0
5, 190678, Note_on_c, 9, 38, 33
5, 190686, Note_on_c, 9, 59, 44
5, 190720, Note_on_c, 9, 59, 0
5, 190734, Note_on_c, 9, 38, 0
5, 190804, Note_on_c, 9, 59, 54
5, 190804, Note_on_c, 9, 35, 32
5, 190811, Note_on_c, 9, 38, 18
5, 190812, Note_on_c, 9, 44, 40
5, 190812, Note_on_c, 9, 44, 0
5, 190816, Note_on_c, 9, 35, 0
5, 190873, Note_on_c, 9, 59, 0
5, 190889, Note_on_c, 9, 38, 0
5, 191059, Note_on_c, 9, 59, 48
5, 191090, Note_on_c, 9, 59, 0
5, 191182, Note_on_c, 9, 59, 50
5, 191188, Note_on_c, 9, 35, 32
5, 191196, Note_on_c, 9, 35, 0
5, 191243, Note_on_c, 9, 59, 0
5, 191440, Note_on_c, 9, 59, 59
5, 191471, Note_on_c, 9, 38, 36
5, 191477, Note_on_c, 9, 59, 0
5, 191508, Note_on_c, 9, 38, 0
5, 191552, Note_on_c, 9, 59, 54
5, 191572, Note_on_c, 9, 44, 40
5, 191576, Note_on_c, 9, 35, 32
5, 191588, Note_on_c, 9, 35, 0
5, 191588, Note_on_c, 9, 44, 0
5, 191614, Note_on_c, 9, 59, 0
5, 191817, Note_on_c, 9, 34, 47
5, 191825, Note_on_c, 9, 59, 52
5, 191855, Note_on_c, 9, 59, 0
5, 191910, Note_on_c, 9, 34, 0
5, 191941, Note_on_c, 9, 59, 51
5, 191946, Note_on_c, 9, 57, 49
5, 191960, Note_on_c, 9, 35, 32
5, 191964, Note_on_c, 9, 35, 0
5, 191969, Note_on_c, 9, 57, 0
5, 191969, Note_on_c, 9, 38, 44
5, 191987, Note_on_c, 9, 38, 0
5, 192000, Note_on_c, 9, 35, 25
5, 192001, Note_on_c, 9, 59, 0
5, 192008, Note_on_c, 9, 35, 0
5, 192216, Note_on_c, 9, 59, 58
5, 192246, Note_on_c, 9, 59, 0
5, 192326, Note_on_c, 9, 59, 55
5, 192348, Note_on_c, 9, 44, 40
5, 192348, Note_on_c, 9, 35, 32
5, 192352, Note_on_c, 9, 44, 0
5, 192356, Note_on_c, 9, 35, 0
5, 192383, Note_on_c, 9, 59, 0
5, 192608, Note_on_c, 9, 59, 49
5, 192638, Note_on_c, 9, 59, 0
5, 192727, Note_on_c, 9, 59, 50
5, 192732, Note_on_c, 9, 35, 32
5, 192748, Note_on_c, 9, 35, 0
5, 192786, Note_on_c, 9, 59, 0
5, 192990, Note_on_c, 9, 59, 60
5, 193021, Note_on_c, 9, 59, 0
5, 193112, Note_on_c, 9, 35, 32
5, 193116, Note_on_c, 9, 44, 40
5, 193119, Note_on_c, 9, 59, 61
5, 193120, Note_on_c, 9, 35, 0
5, 193124, Note_on_c, 9, 44, 0
5, 193182, Note_on_c, 9, 59, 0
5, 193369, Note_on_c, 9, 59, 60
5, 193408, Note_on_c, 9, 59, 0
5, 193491, Note_on_c, 9, 59, 59
5, 193496, Note_on_c, 9, 35, 32
5, 193500, Note_on_c, 9, 35, 0
5, 193523, Note_on_c, 9, 38, 29
5, 193543, Note_on_c, 9, 38, 0
5, 193550, Note_on_c, 9, 59, 0
5, 193634, Note_on_c, 9, 38, 33
5, 193656, Note_on_c, 9, 38, 0
5, 193752, Note_on_c, 9, 59, 56
5, 193810, Note_on_c, 9, 59, 0
5, 193878, Note_on_c, 9, 59, 48
5, 193880, Note_on_c, 9, 35, 32
5, 193880, Note_on_c, 9, 35, 0
5, 193884, Note_on_c, 9, 44, 40
5, 193884, Note_on_c, 9, 44, 0
5, 193943, Note_on_c, 9, 59, 0
5, 194009, Note_on_c, 9, 59, 45
5, 194049, Note_on_c, 9, 59, 0
5, 194127, Note_on_c, 9, 59, 62
5, 194130, Note_on_c, 9, 38, 10
5, 194159, Note_on_c, 9, 38, 0
5, 194208, Note_on_c, 9, 59, 0
5, 194264, Note_on_c, 9, 35, 32
5, 194267, Note_on_c, 9, 38, 7
5, 194268, Note_on_c, 9, 35, 0
5, 194300, Note_on_c, 9, 38, 0
5, 194369, Note_on_c, 9, 59, 54
5, 194387, Note_on_c, 9, 38, 15
5, 194414, Note_on_c, 9, 38, 0
5, 194418, Note_on_c, 9, 59, 0
5, 194492, Note_on_c, 9, 59, 57
5, 194498, Note_on_c, 9, 38, 54
5, 194548, Note_on_c, 9, 38, 0
5, 194557, Note_on_c, 9, 59, 0
5, 194643, Note_on_c, 9, 59, 51
5, 194648, Note_on_c, 9, 44, 40
5, 194652, Note_on_c, 9, 35, 32
5, 194660, Note_on_c, 9, 35, 0
5, 194664, Note_on_c, 9, 44, 0
5, 194703, Note_on_c, 9, 59, 0
5, 194893, Note_on_c, 9, 59, 57
5, 194934, Note_on_c, 9, 59, 0
5, 195020, Note_on_c, 9, 59, 56
5, 195028, Note_on_c, 9, 35, 32
5, 195040, Note_on_c, 9, 35, 0
5, 195085, Note_on_c, 9, 59, 0
5, 195190, Note_on_c, 9, 38, 37
5, 195213, Note_on_c, 9, 38, 0
5, 195290, Note_on_c, 9, 59, 58
5, 195303, Note_on_c, 9, 38, 19
5, 195330, Note_on_c, 9, 59, 0
5, 195334, Note_on_c, 9, 38, 0
5, 195412, Note_on_c, 9, 44, 40
5, 195420, Note_on_c, 9, 35, 32
5, 195424, Note_on_c, 9, 35, 0
5, 195424, Note_on_c, 9, 44, 0
5, 195430, Note_on_c, 9, 38, 48
5, 195438, Note_on_c, 9, 59, 30
5, 195460, Note_on_c, 9, 38, 0
5, 195471, Note_on_c, 9, 59, 0
5, 195681, Note_on_c, 9, 38, 65
5, 195693, Note_on_c, 9, 59, 44
5, 195723, Note_on_c, 9, 59, 0
5, 195726, Note_on_c, 9, 38, 0
5, 195800, Note_on_c, 9, 35, 32
5, 195804, Note_on_c, 9, 35, 0
5, 195809, Note_on_c, 9, 59, 51
5, 195874, Note_on_c, 9, 59, 0
5, 196058, Note_on_c, 9, 59, 58
5, 196093, Note_on_c, 9, 59, 0
5, 196180, Note_on_c, 9, 35, 32
5, 196184, Note_on_c, 9, 44, 40
5, 196188, Note_on_c, 9, 35, 0
5, 196188, Note_on_c, 9, 59, 44
5, 196192, Note_on_c, 9, 44, 0
5, 196269, Note_on_c, 9, 59, 0
5, 196446, Note_on_c, 9, 59, 51
5, 196481, Note_on_c, 9, 59, 0
5, 196556, Note_on_c, 9, 59, 56
5, 196568, Note_on_c, 9, 35, 32
5, 196580, Note_on_c, 9, 35, 0
5, 196651, Note_on_c, 9, 59, 0
5, 196750, Note_on_c, 9, 40, 14
5, 196778, Note_on_c, 9, 40, 0
5, 196823, Note_on_c, 9, 59, 44
5, 196854, Note_on_c, 9, 59, 0
5, 196859, Note_on_c, 9, 40, 24
5, 196887, Note_on_c, 9, 40, 0
5, 196940, Note_on_c, 9, 59, 56
5, 196948, Note_on_c, 9, 35, 32
5, 196952, Note_on_c, 9, 44, 40
5, 196956, Note_on_c, 9, 44, 0
5, 196960, Note_on_c, 9, 35, 0
5, 197032, Note_on_c, 9, 59, 0
5, 197199, Note_on_c, 9, 59, 48
5, 197203, Note_on_c, 9, 40, 49
5, 197229, Note_on_c, 9, 59, 0
5, 197231, Note_on_c, 9, 40, 0
5, 197320, Note_on_c, 9, 59, 53
5, 197332, Note_on_c, 9, 35, 32
5, 197340, Note_on_c, 9, 35, 0
5, 197342, Note_on_c, 9, 40, 48
5, 197386, Note_on_c, 9, 40, 0
5, 197466, Note_on_c, 9, 59, 0
5, 197571, Note_on_c, 9, 59, 54
5, 197640, Note_on_c, 9, 59, 0
5, 197703, Note_on_c, 9, 59, 60
5, 197720, Note_on_c, 9, 35, 32
5, 197728, Note_on_c, 9, 35, 0
5, 197761, Note_on_c, 9, 59, 0
5, 197938, Note_on_c, 9, 51, 54
5, 197985, Note_on_c, 9, 51, 0
5, 198059, Note_on_c, 9, 51, 47
5, 198059, Note_on_c, 9, 34, 36
5, 198104, Note_on_c, 9, 35, 32
5, 198112, Note_on_c, 9, 35, 0
5, 198131, Note_on_c, 9, 34, 0
5, 198220, Note_on_c, 9, 51, 0
5, 198476, Note_on_c, 9, 51, 63
5, 198488, Note_on_c, 9, 44, 40
5, 198488, Note_on_c, 9, 35, 32
5, 198504, Note_on_c, 9, 35, 0
5, 198504, Note_on_c, 9, 44, 0
5, 198585, Note_on_c, 9, 51, 0
5, 198872, Note_on_c, 9, 35, 32
5, 198873, Note_on_c, 9, 51, 60
5, 198880, Note_on_c, 9, 35, 0
5, 198993, Note_on_c, 9, 51, 0
5, 199123, Note_on_c, 9, 34, 48
5, 199212, Note_on_c, 9, 34, 0
5, 199251, Note_on_c, 9, 51, 63
5, 199256, Note_on_c, 9, 44, 40
5, 199256, Note_on_c, 9, 35, 32
5, 199268, Note_on_c, 9, 35, 0
5, 199272, Note_on_c, 9, 44, 0
5, 199356, Note_on_c, 9, 51, 0
5, 199553, Note_on_c, 9, 51, 35
5, 199596, Note_on_c, 9, 51, 0
5, 199656, Note_on_c, 9, 51, 51
5, 199848, Note_on_c, 9, 51, 0
5, 199950, Note_on_c, 9, 51, 36
5, 200000, Note_on_c, 9, 51, 0
5, 200024, Note_on_c, 9, 44, 40
5, 200032, Note_on_c, 9, 44, 0
5, 200058, Note_on_c, 9, 51, 57
5, 200111, Note_on_c, 9, 51, 0
5, 200326, Note_on_c, 9, 51, 36
5, 200356, Note_on_c, 9, 51, 0
5, 200416, Note_on_c, 9, 51, 47
5, 200513, Note_on_c, 9, 51, 0
5, 200697, Note_on_c, 9, 51, 29
5, 200727, Note_on_c, 9, 51, 0
5, 200792, Note_on_c, 9, 44, 40
5, 200792, Note_on_c, 9, 35, 32
5, 200802, Note_on_c, 9, 51, 47
5, 200804, Note_on_c, 9, 35, 0
5, 200804, Note_on_c, 9, 44, 0
5, 200896, Note_on_c, 9, 51, 0
5, 201079, Note_on_c, 9, 51, 40
5, 201118, Note_on_c, 9, 51, 0
5, 201176, Note_on_c, 9, 35, 32
5, 201180, Note_on_c, 9, 35, 0
5, 201184, Note_on_c, 9, 51, 53
5, 201265, Note_on_c, 9, 51, 0
5, 201433, Note_on_c, 9, 34, 55
5, 201465, Note_on_c, 9, 51, 45
5, 201495, Note_on_c, 9, 51, 0
5, 201513, Note_on_c, 9, 34, 0
5, 201560, Note_on_c, 9, 44, 40
5, 201563, Note_on_c, 9, 35, 46
5, 201564, Note_on_c, 9, 35, 32
5, 201568, Note_on_c, 9, 35, 0
5, 201568, Note_on_c, 9, 44, 0
5, 201568, Note_on_c, 9, 51, 50
5, 201631, Note_on_c, 9, 35, 0
5, 201682, Note_on_c, 9, 51, 0
5, 201867, Note_on_c, 9, 51, 47
5, 201897, Note_on_c, 9, 51, 0
5, 201940, Note_on_c, 9, 35, 32
5, 201952, Note_on_c, 9, 35, 0
5, 201960, Note_on_c, 9, 35, 66
5, 201966, Note_on_c, 9, 57, 71
5, 201978, Note_on_c, 9, 51, 52
5, 202051, Note_on_c, 9, 51, 0
5, 202081, Note_on_c, 9, 57, 0
5, 202125, Note_on_c, 9, 35, 0
5, 202187, Note_on_c, 9, 57, 49
5, 202193, Note_on_c, 9, 35, 44
5, 202219, Note_on_c, 9, 57, 0
5, 202238, Note_on_c, 9, 51, 42
5, 202268, Note_on_c, 9, 51, 0
5, 202270, Note_on_c, 9, 35, 0
5, 202326, Note_on_c, 9, 51, 42
5, 202328, Note_on_c, 9, 35, 32
5, 202332, Note_on_c, 9, 44, 40
5, 202340, Note_on_c, 9, 44, 0
5, 202344, Note_on_c, 9, 35, 0
5, 202360, Note_on_c, 9, 37, 55
5, 202406, Note_on_c, 9, 37, 0
5, 202420, Note_on_c, 9, 51, 0
5, 202613, Note_on_c, 9, 34, 42
5, 202619, Note_on_c, 9, 51, 25
5, 202649, Note_on_c, 9, 51, 0
5, 202659, Note_on_c, 9, 34, 0
5, 202699, Note_on_c, 9, 51, 47
5, 202708, Note_on_c, 9, 35, 32
5, 202716, Note_on_c, 9, 35, 0
5, 202745, Note_on_c, 9, 35, 56
5, 202746, Note_on_c, 9, 57, 67
5, 202800, Note_on_c, 9, 51, 0
5, 202851, Note_on_c, 9, 57, 0
5, 202851, Note_on_c, 9, 35, 0
5, 203113, Note_on_c, 9, 34, 37
5, 203140, Note_on_c, 9, 34, 0
5, 203349, Note_on_c, 9, 57, 72
5, 203363, Note_on_c, 9, 35, 83
5, 203402, Note_on_c, 9, 57, 0
5, 203534, Note_on_c, 9, 35, 0
5, 203534, End_track
0, 0, End_of_file
