0, 0, Header, 1, 4, 960
1, 0, Start_track
1, 0, Title_t, "Lullaby"
1, 0, Text_t, "M. Petrucciani"
1, 0, Text_t, "Played in real time by dougmck@pipeline.com.au\012"
1, 0, Text_t, "A beautiful little waltz by Michel Petrucciani . You may need a good brush kit for the first chorus!\012"
1, 0, Time_signature, 3, 2, 24, 8
1, 0, Key_signature, 0, "major"
1, 0, Tempo, 444444
1, 0, Marker_t, "Intro"
1, 23040, Marker_t, "First Chorus"
1, 161280, Marker_t, "2nd Chorus"
1, 299520, Marker_t, "Out Chorus"
1, 437760, Marker_t, "Coda"
1, 437760, End_track
2, 0, Start_track
2, 0, Title_t, "Piano"
2, 0, Note_on_c, 0, 62, 59
2, 13, Note_on_c, 0, 50, 23
2, 1013, Note_on_c, 0, 71, 70
2, 1015, Note_on_c, 0, 67, 55
2, 1335, Control_c, 0, 64, 127
2, 2127, Note_on_c, 0, 50, 0
2, 2734, Note_on_c, 0, 62, 0
2, 2873, Control_c, 0, 64, 0
2, 2916, Note_on_c, 0, 67, 0
2, 2957, Note_on_c, 0, 50, 34
2, 2983, Note_on_c, 0, 62, 56
2, 2998, Note_on_c, 0, 71, 0
2, 3968, Note_on_c, 0, 69, 75
2, 3994, Note_on_c, 0, 72, 69
2, 4955, Note_on_c, 0, 38, 26
2, 5670, Note_on_c, 0, 62, 0
2, 5851, Note_on_c, 0, 72, 0
2, 5877, Note_on_c, 0, 69, 0
2, 5892, Note_on_c, 0, 62, 71
2, 6817, Note_on_c, 0, 71, 80
2, 6860, Note_on_c, 0, 74, 52
2, 7391, Note_on_c, 0, 50, 0
2, 7808, Note_on_c, 0, 50, 66
2, 7897, Note_on_c, 0, 38, 0
2, 8569, Note_on_c, 0, 62, 0
2, 8644, Note_on_c, 0, 74, 0
2, 8744, Note_on_c, 0, 71, 0
2, 8791, Note_on_c, 0, 62, 69
2, 9674, Note_on_c, 0, 72, 38
2, 9679, Note_on_c, 0, 69, 37
2, 10640, Note_on_c, 0, 38, 29
2, 10796, Note_on_c, 0, 62, 0
2, 11506, Note_on_c, 0, 72, 0
2, 11573, Note_on_c, 0, 62, 39
2, 11590, Note_on_c, 0, 69, 0
2, 12329, Note_on_c, 0, 62, 0
2, 12495, Note_on_c, 0, 62, 20
2, 12517, Note_on_c, 0, 67, 33
2, 12530, Note_on_c, 0, 71, 43
2, 12757, Note_on_c, 0, 50, 0
2, 13459, Note_on_c, 0, 50, 40
2, 13552, Note_on_c, 0, 38, 0
2, 14154, Note_on_c, 0, 62, 0
2, 14405, Note_on_c, 0, 62, 57
2, 14619, Note_on_c, 0, 71, 0
2, 14640, Note_on_c, 0, 67, 0
2, 15295, Note_on_c, 0, 69, 73
2, 15329, Note_on_c, 0, 72, 63
2, 16295, Note_on_c, 0, 38, 79
2, 16718, Note_on_c, 0, 62, 0
2, 17217, Note_on_c, 0, 72, 0
2, 17228, Note_on_c, 0, 69, 0
2, 17256, Note_on_c, 0, 62, 92
2, 18194, Note_on_c, 0, 71, 89
2, 18226, Note_on_c, 0, 74, 72
2, 19490, Note_on_c, 0, 50, 0
2, 19943, Note_on_c, 0, 62, 0
2, 20159, Note_on_c, 0, 74, 0
2, 20220, Note_on_c, 0, 62, 55
2, 20258, Note_on_c, 0, 50, 40
2, 20261, Note_on_c, 0, 71, 0
2, 20317, Note_on_c, 0, 38, 0
2, 20939, Note_on_c, 0, 62, 0
2, 21151, Note_on_c, 0, 62, 24
2, 21157, Note_on_c, 0, 72, 37
2, 21187, Note_on_c, 0, 69, 38
2, 21840, Note_on_c, 0, 50, 0
2, 22125, Note_on_c, 0, 62, 0
2, 22295, Note_on_c, 0, 72, 0
2, 22634, Note_on_c, 0, 69, 0
2, 22691, Note_on_c, 0, 74, 65
2, 23010, Note_on_c, 0, 74, 0
2, 23088, Note_on_c, 0, 73, 42
2, 23265, Control_c, 0, 64, 127
2, 24092, Note_on_c, 0, 64, 21
2, 24168, Note_on_c, 0, 57, 31
2, 24239, Note_on_c, 0, 61, 3
2, 24935, Note_on_c, 0, 73, 0
2, 25033, Note_on_c, 0, 64, 0
2, 25081, Note_on_c, 0, 61, 0
2, 25202, Note_on_c, 0, 57, 0
2, 25582, Note_on_c, 0, 74, 75
2, 25893, Control_c, 0, 64, 0
2, 25937, Note_on_c, 0, 74, 0
2, 25951, Note_on_c, 0, 50, 44
2, 25973, Note_on_c, 0, 71, 65
2, 26153, Control_c, 0, 64, 127
2, 26266, Note_on_c, 0, 50, 0
2, 26948, Note_on_c, 0, 64, 61
2, 26957, Note_on_c, 0, 60, 48
2, 26962, Note_on_c, 0, 59, 38
2, 27457, Note_on_c, 0, 71, 0
2, 27911, Note_on_c, 0, 64, 0
2, 28036, Note_on_c, 0, 60, 0
2, 28042, Note_on_c, 0, 59, 0
2, 28516, Note_on_c, 0, 74, 127
2, 28838, Control_c, 0, 64, 0
2, 28886, Note_on_c, 0, 57, 69
2, 28887, Note_on_c, 0, 73, 82
2, 28889, Note_on_c, 0, 50, 51
2, 28943, Note_on_c, 0, 74, 0
2, 29184, Control_c, 0, 64, 127
2, 29213, Note_on_c, 0, 50, 0
2, 29236, Note_on_c, 0, 57, 0
2, 31311, Note_on_c, 0, 73, 0
2, 31351, Note_on_c, 0, 74, 59
2, 31608, Note_on_c, 0, 74, 0
2, 31625, Control_c, 0, 64, 0
2, 31697, Note_on_c, 0, 50, 23
2, 31708, Note_on_c, 0, 76, 58
2, 31884, Control_c, 0, 64, 127
2, 31894, Note_on_c, 0, 50, 0
2, 32627, Note_on_c, 0, 64, 29
2, 32667, Note_on_c, 0, 60, 25
2, 32695, Note_on_c, 0, 59, 21
2, 33072, Note_on_c, 0, 76, 0
2, 33453, Note_on_c, 0, 64, 0
2, 33600, Note_on_c, 0, 59, 0
2, 33602, Note_on_c, 0, 60, 0
2, 34283, Note_on_c, 0, 74, 89
2, 34469, Note_on_c, 0, 74, 0
2, 34569, Control_c, 0, 64, 0
2, 34597, Note_on_c, 0, 73, 63
2, 34634, Note_on_c, 0, 57, 39
2, 34664, Note_on_c, 0, 50, 34
2, 34668, Note_on_c, 0, 64, 63
2, 34695, Note_on_c, 0, 69, 29
2, 35018, Control_c, 0, 64, 127
2, 35248, Note_on_c, 0, 69, 0
2, 35252, Note_on_c, 0, 64, 0
2, 35541, Note_on_c, 0, 69, 43
2, 35573, Note_on_c, 0, 62, 35
2, 35577, Note_on_c, 0, 64, 33
2, 36122, Note_on_c, 0, 62, 0
2, 36261, Note_on_c, 0, 64, 0
2, 36312, Note_on_c, 0, 73, 0
2, 36329, Note_on_c, 0, 57, 0
2, 36534, Note_on_c, 0, 50, 0
2, 36590, Note_on_c, 0, 69, 0
2, 36987, Note_on_c, 0, 74, 64
2, 37111, Note_on_c, 0, 74, 0
2, 37385, Control_c, 0, 64, 0
2, 37471, Note_on_c, 0, 49, 36
2, 37472, Note_on_c, 0, 76, 62
2, 37506, Note_on_c, 0, 55, 22
2, 37516, Note_on_c, 0, 71, 45
2, 37528, Note_on_c, 0, 65, 38
2, 37534, Note_on_c, 0, 59, 30
2, 37732, Control_c, 0, 64, 127
2, 38008, Note_on_c, 0, 76, 0
2, 38207, Note_on_c, 0, 71, 0
2, 38312, Note_on_c, 0, 74, 82
2, 38402, Note_on_c, 0, 65, 0
2, 38696, Note_on_c, 0, 74, 0
2, 39126, Note_on_c, 0, 71, 79
2, 39738, Note_on_c, 0, 67, 49
2, 39985, Note_on_c, 0, 55, 0
2, 40016, Note_on_c, 0, 59, 0
2, 40033, Note_on_c, 0, 67, 0
2, 40111, Note_on_c, 0, 49, 0
2, 40314, Note_on_c, 0, 66, 38
2, 40352, Note_on_c, 0, 60, 55
2, 40355, Note_on_c, 0, 48, 30
2, 40358, Control_c, 0, 64, 0
2, 40482, Note_on_c, 0, 55, 5
2, 41263, Note_on_c, 0, 60, 0
2, 41340, Control_c, 0, 64, 127
2, 41579, Note_on_c, 0, 71, 0
2, 41761, Note_on_c, 0, 66, 0
2, 42498, Note_on_c, 0, 55, 0
2, 42515, Note_on_c, 0, 48, 0
2, 42906, Note_on_c, 0, 67, 77
2, 43158, Note_on_c, 0, 67, 0
2, 43274, Control_c, 0, 64, 0
2, 43278, Note_on_c, 0, 60, 46
2, 43279, Note_on_c, 0, 64, 69
2, 43322, Note_on_c, 0, 46, 26
2, 43664, Control_c, 0, 64, 127
2, 43912, Note_on_c, 0, 60, 0
2, 44045, Note_on_c, 0, 64, 0
2, 44243, Note_on_c, 0, 56, 37
2, 44642, Note_on_c, 0, 56, 0
2, 44772, Note_on_c, 0, 46, 0
2, 45754, Note_on_c, 0, 79, 124
2, 46078, Note_on_c, 0, 79, 0
2, 46086, Note_on_c, 0, 55, 55
2, 46098, Note_on_c, 0, 62, 57
2, 46104, Control_c, 0, 64, 0
2, 46121, Note_on_c, 0, 66, 29
2, 46124, Note_on_c, 0, 59, 53
2, 46130, Note_on_c, 0, 78, 61
2, 46303, Note_on_c, 0, 78, 0
2, 46434, Note_on_c, 0, 78, 46
2, 46543, Note_on_c, 0, 78, 0
2, 47053, Note_on_c, 0, 78, 35
2, 47135, Note_on_c, 0, 78, 0
2, 47776, Note_on_c, 0, 78, 53
2, 48126, Control_c, 0, 64, 127
2, 48612, Note_on_c, 0, 62, 0
2, 48663, Note_on_c, 0, 59, 0
2, 48672, Note_on_c, 0, 55, 0
2, 48693, Note_on_c, 0, 79, 53
2, 48725, Note_on_c, 0, 78, 0
2, 48748, Note_on_c, 0, 66, 0
2, 49014, Note_on_c, 0, 79, 0
2, 49051, Control_c, 0, 64, 0
2, 49069, Note_on_c, 0, 66, 23
2, 49086, Note_on_c, 0, 61, 46
2, 49090, Note_on_c, 0, 76, 33
2, 49108, Note_on_c, 0, 55, 21
2, 49439, Control_c, 0, 64, 127
2, 49952, Note_on_c, 0, 76, 0
2, 50183, Note_on_c, 0, 66, 0
2, 50926, Control_c, 0, 64, 0
2, 50944, Note_on_c, 0, 67, 116
2, 51230, Note_on_c, 0, 69, 52
2, 51236, Note_on_c, 0, 67, 0
2, 51268, Note_on_c, 0, 55, 0
2, 51330, Note_on_c, 0, 69, 0
2, 51343, Note_on_c, 0, 67, 22
2, 51366, Note_on_c, 0, 61, 0
2, 51436, Note_on_c, 0, 69, 64
2, 51439, Note_on_c, 0, 67, 0
2, 51504, Control_c, 0, 64, 127
2, 51582, Note_on_c, 0, 67, 58
2, 51636, Note_on_c, 0, 69, 0
2, 51691, Control_c, 0, 64, 0
2, 51809, Note_on_c, 0, 67, 0
2, 51956, Note_on_c, 0, 55, 21
2, 51991, Note_on_c, 0, 66, 69
2, 52001, Note_on_c, 0, 62, 38
2, 52014, Note_on_c, 0, 59, 49
2, 52830, Note_on_c, 0, 66, 0
2, 52862, Control_c, 0, 64, 127
2, 53469, Note_on_c, 0, 66, 106
2, 53496, Control_c, 0, 64, 0
2, 53698, Control_c, 0, 64, 127
2, 53805, Note_on_c, 0, 66, 0
2, 53940, Note_on_c, 0, 66, 79
2, 53945, Note_on_c, 0, 62, 0
2, 54043, Note_on_c, 0, 59, 0
2, 54122, Note_on_c, 0, 55, 0
2, 54292, Note_on_c, 0, 66, 0
2, 54424, Note_on_c, 0, 67, 75
2, 54532, Note_on_c, 0, 67, 0
2, 54781, Control_c, 0, 64, 0
2, 55252, Note_on_c, 0, 69, 58
2, 55262, Note_on_c, 0, 58, 49
2, 55264, Note_on_c, 0, 45, 48
2, 55275, Note_on_c, 0, 61, 49
2, 55281, Note_on_c, 0, 64, 65
2, 55304, Note_on_c, 0, 55, 35
2, 55503, Control_c, 0, 64, 127
2, 55593, Note_on_c, 0, 58, 0
2, 55609, Note_on_c, 0, 61, 0
2, 55621, Note_on_c, 0, 64, 0
2, 55660, Note_on_c, 0, 69, 0
2, 55723, Note_on_c, 0, 55, 0
2, 55989, Note_on_c, 0, 71, 87
2, 55992, Note_on_c, 0, 61, 81
2, 56008, Control_c, 0, 64, 0
2, 56020, Note_on_c, 0, 64, 81
2, 56056, Note_on_c, 0, 55, 41
2, 56073, Note_on_c, 0, 67, 21
2, 56109, Control_c, 0, 64, 127
2, 56197, Note_on_c, 0, 67, 0
2, 56361, Note_on_c, 0, 64, 0
2, 56436, Note_on_c, 0, 61, 0
2, 56511, Note_on_c, 0, 71, 0
2, 56516, Note_on_c, 0, 55, 0
2, 56672, Note_on_c, 0, 61, 72
2, 56684, Note_on_c, 0, 67, 70
2, 56698, Note_on_c, 0, 45, 0
2, 56701, Note_on_c, 0, 52, 41
2, 56779, Note_on_c, 0, 52, 0
2, 56999, Note_on_c, 0, 61, 0
2, 57314, Note_on_c, 0, 67, 0
2, 57393, Control_c, 0, 64, 0
2, 57575, Note_on_c, 0, 64, 66
2, 57581, Note_on_c, 0, 60, 46
2, 57586, Note_on_c, 0, 45, 33
2, 57631, Note_on_c, 0, 55, 18
2, 57712, Control_c, 0, 64, 127
2, 57804, Note_on_c, 0, 45, 0
2, 57805, Note_on_c, 0, 60, 0
2, 57863, Note_on_c, 0, 64, 0
2, 57908, Note_on_c, 0, 55, 0
2, 58578, Note_on_c, 0, 83, 49
2, 58599, Note_on_c, 0, 71, 35
2, 58603, Note_on_c, 0, 60, 21
2, 58626, Note_on_c, 0, 55, 16
2, 58628, Note_on_c, 0, 59, 26
2, 58674, Note_on_c, 0, 71, 0
2, 58701, Note_on_c, 0, 55, 0
2, 58702, Note_on_c, 0, 59, 0
2, 58704, Note_on_c, 0, 60, 0
2, 58705, Note_on_c, 0, 83, 0
2, 58882, Note_on_c, 0, 84, 59
2, 58884, Note_on_c, 0, 72, 55
2, 58897, Note_on_c, 0, 60, 26
2, 58946, Note_on_c, 0, 72, 0
2, 58966, Note_on_c, 0, 60, 0
2, 58988, Note_on_c, 0, 84, 0
2, 59112, Control_c, 0, 64, 0
2, 59160, Note_on_c, 0, 64, 43
2, 59170, Note_on_c, 0, 60, 29
2, 59178, Note_on_c, 0, 88, 72
2, 59183, Control_c, 0, 64, 127
2, 59205, Note_on_c, 0, 59, 22
2, 59207, Note_on_c, 0, 76, 27
2, 59225, Note_on_c, 0, 88, 0
2, 59238, Note_on_c, 0, 64, 0
2, 59250, Note_on_c, 0, 60, 0
2, 59254, Note_on_c, 0, 59, 0
2, 59259, Note_on_c, 0, 76, 0
2, 59473, Note_on_c, 0, 64, 54
2, 59497, Note_on_c, 0, 60, 38
2, 59511, Note_on_c, 0, 91, 58
2, 59516, Note_on_c, 0, 79, 50
2, 59538, Note_on_c, 0, 64, 0
2, 59549, Note_on_c, 0, 60, 0
2, 59559, Note_on_c, 0, 91, 0
2, 59564, Note_on_c, 0, 79, 0
2, 59778, Note_on_c, 0, 64, 66
2, 59790, Note_on_c, 0, 60, 56
2, 59814, Note_on_c, 0, 59, 44
2, 59831, Note_on_c, 0, 93, 49
2, 59833, Note_on_c, 0, 95, 58
2, 59844, Note_on_c, 0, 64, 0
2, 59864, Note_on_c, 0, 59, 0
2, 59880, Note_on_c, 0, 95, 0
2, 59882, Note_on_c, 0, 93, 0
2, 59893, Note_on_c, 0, 60, 0
2, 60106, Note_on_c, 0, 64, 79
2, 60114, Note_on_c, 0, 60, 70
2, 60118, Note_on_c, 0, 96, 79
2, 60119, Note_on_c, 0, 59, 62
2, 60124, Note_on_c, 0, 83, 64
2, 60128, Note_on_c, 0, 84, 83
2, 60132, Note_on_c, 0, 95, 71
2, 60151, Note_on_c, 0, 55, 43
2, 60171, Note_on_c, 0, 83, 0
2, 60178, Note_on_c, 0, 95, 0
2, 60184, Note_on_c, 0, 84, 0
2, 60201, Note_on_c, 0, 55, 0
2, 60212, Note_on_c, 0, 96, 0
2, 60233, Note_on_c, 0, 64, 0
2, 60275, Note_on_c, 0, 59, 0
2, 60292, Note_on_c, 0, 60, 0
2, 60367, Control_c, 0, 64, 0
2, 60430, Note_on_c, 0, 98, 96
2, 60435, Note_on_c, 0, 86, 93
2, 60436, Note_on_c, 0, 64, 100
2, 60440, Note_on_c, 0, 60, 81
2, 60449, Note_on_c, 0, 55, 92
2, 60452, Note_on_c, 0, 95, 67
2, 60453, Note_on_c, 0, 91, 69
2, 60455, Note_on_c, 0, 59, 85
2, 60469, Note_on_c, 0, 88, 55
2, 60518, Note_on_c, 0, 88, 0
2, 60669, Control_c, 0, 64, 127
2, 60962, Note_on_c, 0, 95, 0
2, 60977, Note_on_c, 0, 91, 0
2, 60985, Note_on_c, 0, 98, 0
2, 61029, Note_on_c, 0, 55, 0
2, 61050, Note_on_c, 0, 86, 0
2, 61057, Note_on_c, 0, 64, 0
2, 61078, Note_on_c, 0, 59, 0
2, 61083, Note_on_c, 0, 60, 0
2, 61391, Control_c, 0, 64, 0
2, 61402, Note_on_c, 0, 83, 38
2, 61408, Note_on_c, 0, 95, 36
2, 61415, Note_on_c, 0, 60, 43
2, 61418, Note_on_c, 0, 64, 44
2, 61420, Note_on_c, 0, 91, 40
2, 61427, Note_on_c, 0, 88, 45
2, 61433, Note_on_c, 0, 55, 37
2, 61434, Note_on_c, 0, 59, 52
2, 61510, Control_c, 0, 64, 127
2, 61643, Note_on_c, 0, 95, 0
2, 61690, Note_on_c, 0, 91, 0
2, 61713, Note_on_c, 0, 88, 0
2, 61780, Note_on_c, 0, 83, 0
2, 62053, Note_on_c, 0, 64, 0
2, 62118, Note_on_c, 0, 60, 0
2, 62422, Note_on_c, 0, 60, 21
2, 62430, Note_on_c, 0, 64, 43
2, 62770, Note_on_c, 0, 69, 97
2, 62778, Note_on_c, 0, 64, 0
2, 62799, Note_on_c, 0, 55, 0
2, 62829, Note_on_c, 0, 59, 0
2, 62855, Note_on_c, 0, 60, 0
2, 62888, Note_on_c, 0, 69, 0
2, 63063, Note_on_c, 0, 71, 104
2, 63251, Note_on_c, 0, 71, 0
2, 63346, Control_c, 0, 64, 0
2, 63374, Note_on_c, 0, 55, 79
2, 63375, Note_on_c, 0, 60, 67
2, 63386, Note_on_c, 0, 63, 75
2, 63390, Note_on_c, 0, 74, 114
2, 63400, Note_on_c, 0, 57, 74
2, 63677, Control_c, 0, 64, 127
2, 64074, Note_on_c, 0, 57, 0
2, 64148, Note_on_c, 0, 63, 0
2, 64225, Note_on_c, 0, 60, 0
2, 64377, Note_on_c, 0, 57, 28
2, 64395, Note_on_c, 0, 60, 11
2, 64409, Note_on_c, 0, 63, 19
2, 65596, Note_on_c, 0, 72, 59
2, 65600, Note_on_c, 0, 55, 0
2, 65604, Note_on_c, 0, 57, 0
2, 65640, Note_on_c, 0, 74, 0
2, 65671, Note_on_c, 0, 63, 0
2, 65842, Note_on_c, 0, 72, 0
2, 65862, Note_on_c, 0, 60, 0
2, 65882, Note_on_c, 0, 71, 64
2, 66086, Note_on_c, 0, 71, 0
2, 66146, Control_c, 0, 64, 0
2, 66208, Note_on_c, 0, 69, 35
2, 66236, Note_on_c, 0, 60, 15
2, 66241, Note_on_c, 0, 63, 21
2, 66275, Note_on_c, 0, 54, 21
2, 66594, Control_c, 0, 64, 127
2, 66823, Note_on_c, 0, 60, 0
2, 66866, Note_on_c, 0, 63, 0
2, 67158, Note_on_c, 0, 69, 0
2, 67243, Note_on_c, 0, 63, 18
2, 67255, Note_on_c, 0, 60, 20
2, 67838, Note_on_c, 0, 60, 0
2, 67855, Note_on_c, 0, 63, 0
2, 68054, Note_on_c, 0, 54, 0
2, 68673, Note_on_c, 0, 74, 70
2, 68985, Note_on_c, 0, 74, 0
2, 69033, Control_c, 0, 64, 0
2, 69037, Note_on_c, 0, 73, 45
2, 69109, Note_on_c, 0, 50, 28
2, 69381, Control_c, 0, 64, 127
2, 69505, Note_on_c, 0, 50, 0
2, 70064, Note_on_c, 0, 64, 31
2, 70065, Note_on_c, 0, 61, 29
2, 70084, Note_on_c, 0, 59, 29
2, 70303, Note_on_c, 0, 59, 0
2, 70304, Note_on_c, 0, 61, 0
2, 70401, Note_on_c, 0, 64, 0
2, 71611, Note_on_c, 0, 73, 0
2, 71652, Note_on_c, 0, 74, 52
2, 71986, Note_on_c, 0, 74, 0
2, 72007, Control_c, 0, 64, 0
2, 72058, Note_on_c, 0, 71, 48
2, 72063, Note_on_c, 0, 50, 38
2, 72261, Note_on_c, 0, 50, 0
2, 72267, Control_c, 0, 64, 127
2, 72990, Note_on_c, 0, 64, 30
2, 73017, Note_on_c, 0, 60, 36
2, 73563, Note_on_c, 0, 59, 1
2, 73784, Note_on_c, 0, 64, 0
2, 73850, Note_on_c, 0, 60, 0
2, 73854, Note_on_c, 0, 59, 0
2, 74299, Note_on_c, 0, 71, 0
2, 74557, Note_on_c, 0, 74, 100
2, 74793, Control_c, 0, 64, 0
2, 74830, Note_on_c, 0, 74, 0
2, 74894, Note_on_c, 0, 73, 72
2, 74895, Note_on_c, 0, 50, 59
2, 74995, Control_c, 0, 64, 127
2, 75023, Note_on_c, 0, 50, 0
2, 75804, Note_on_c, 0, 61, 32
2, 75830, Note_on_c, 0, 64, 51
2, 75844, Note_on_c, 0, 57, 37
2, 76561, Note_on_c, 0, 64, 0
2, 76628, Note_on_c, 0, 61, 0
2, 76763, Note_on_c, 0, 57, 0
2, 77680, Control_c, 0, 64, 0
2, 77758, Note_on_c, 0, 50, 40
2, 77882, Control_c, 0, 64, 127
2, 77929, Note_on_c, 0, 50, 0
2, 78747, Note_on_c, 0, 64, 33
2, 78754, Note_on_c, 0, 59, 23
2, 78757, Note_on_c, 0, 60, 38
2, 79382, Note_on_c, 0, 69, 91
2, 79487, Note_on_c, 0, 73, 0
2, 79585, Note_on_c, 0, 64, 0
2, 79626, Note_on_c, 0, 69, 0
2, 79628, Note_on_c, 0, 60, 0
2, 79638, Note_on_c, 0, 59, 0
2, 79785, Note_on_c, 0, 71, 103
2, 79964, Note_on_c, 0, 71, 0
2, 80289, Note_on_c, 0, 76, 127
2, 80582, Control_c, 0, 64, 0
2, 80678, Note_on_c, 0, 50, 38
2, 80726, Note_on_c, 0, 73, 73
2, 80727, Note_on_c, 0, 57, 42
2, 80747, Note_on_c, 0, 76, 0
2, 80842, Control_c, 0, 64, 127
2, 80873, Note_on_c, 0, 50, 0
2, 80913, Note_on_c, 0, 57, 0
2, 81577, Note_on_c, 0, 73, 0
2, 81608, Note_on_c, 0, 73, 54
2, 81626, Note_on_c, 0, 64, 43
2, 81640, Note_on_c, 0, 60, 33
2, 81665, Note_on_c, 0, 59, 22
2, 82353, Note_on_c, 0, 73, 0
2, 82451, Note_on_c, 0, 64, 0
2, 82507, Note_on_c, 0, 60, 0
2, 82508, Note_on_c, 0, 59, 0
2, 82586, Note_on_c, 0, 74, 95
2, 83007, Note_on_c, 0, 74, 0
2, 83441, Control_c, 0, 64, 0
2, 83544, Note_on_c, 0, 79, 70
2, 83563, Note_on_c, 0, 49, 36
2, 83577, Note_on_c, 0, 71, 68
2, 83583, Note_on_c, 0, 59, 37
2, 83701, Control_c, 0, 64, 127
2, 83776, Note_on_c, 0, 49, 0
2, 83780, Note_on_c, 0, 59, 0
2, 83961, Note_on_c, 0, 79, 0
2, 84081, Note_on_c, 0, 71, 0
2, 85118, Note_on_c, 0, 74, 109
2, 85489, Note_on_c, 0, 74, 0
2, 85584, Note_on_c, 0, 72, 87
2, 85969, Note_on_c, 0, 72, 0
2, 86133, Note_on_c, 0, 71, 77
2, 86300, Note_on_c, 0, 71, 0
2, 86584, Note_on_c, 0, 71, 59
2, 86598, Note_on_c, 0, 63, 35
2, 86617, Control_c, 0, 64, 0
2, 86618, Note_on_c, 0, 48, 32
2, 86648, Note_on_c, 0, 55, 36
2, 87050, Control_c, 0, 64, 127
2, 87485, Note_on_c, 0, 55, 0
2, 87986, Note_on_c, 0, 59, 48
2, 88015, Note_on_c, 0, 55, 30
2, 88178, Note_on_c, 0, 59, 0
2, 88211, Note_on_c, 0, 63, 0
2, 88228, Note_on_c, 0, 71, 0
2, 88408, Note_on_c, 0, 55, 0
2, 88534, Note_on_c, 0, 48, 0
2, 88675, Note_on_c, 0, 72, 68
2, 88793, Note_on_c, 0, 72, 0
2, 89245, Control_c, 0, 64, 0
2, 89291, Note_on_c, 0, 69, 45
2, 89340, Note_on_c, 0, 57, 29
2, 89341, Note_on_c, 0, 63, 34
2, 89353, Note_on_c, 0, 41, 35
2, 89576, Note_on_c, 0, 57, 0
2, 89605, Control_c, 0, 64, 127
2, 89865, Note_on_c, 0, 63, 0
2, 89953, Note_on_c, 0, 69, 0
2, 90246, Note_on_c, 0, 48, 28
2, 90281, Note_on_c, 0, 57, 26
2, 91239, Note_on_c, 0, 41, 0
2, 91268, Note_on_c, 0, 57, 0
2, 91284, Note_on_c, 0, 83, 78
2, 91326, Note_on_c, 0, 48, 0
2, 91485, Note_on_c, 0, 83, 0
2, 91572, Note_on_c, 0, 81, 76
2, 91782, Note_on_c, 0, 81, 0
2, 91861, Note_on_c, 0, 79, 73
2, 91887, Note_on_c, 0, 81, 37
2, 91956, Note_on_c, 0, 81, 0
2, 92125, Note_on_c, 0, 79, 0
2, 92181, Note_on_c, 0, 78, 65
2, 92190, Control_c, 0, 64, 0
2, 92311, Note_on_c, 0, 52, 20
2, 92506, Control_c, 0, 64, 127
2, 92848, Note_on_c, 0, 59, 30
2, 93232, Note_on_c, 0, 78, 0
2, 93244, Note_on_c, 0, 67, 32
2, 93261, Note_on_c, 0, 71, 29
2, 93537, Note_on_c, 0, 59, 0
2, 93807, Note_on_c, 0, 71, 0
2, 93897, Note_on_c, 0, 67, 0
2, 94417, Note_on_c, 0, 52, 0
2, 94724, Note_on_c, 0, 67, 98
2, 95091, Control_c, 0, 64, 0
2, 95092, Note_on_c, 0, 67, 0
2, 95189, Note_on_c, 0, 64, 74
2, 96056, Note_on_c, 0, 50, 30
2, 96099, Note_on_c, 0, 59, 22
2, 96232, Control_c, 0, 64, 127
2, 96401, Note_on_c, 0, 64, 0
2, 96983, Control_c, 0, 64, 0
2, 96999, Note_on_c, 0, 67, 118
2, 97243, Control_c, 0, 64, 127
2, 97695, Note_on_c, 0, 59, 0
2, 97706, Note_on_c, 0, 50, 0
2, 97921, Control_c, 0, 64, 0
2, 97934, Note_on_c, 0, 67, 0
2, 97958, Note_on_c, 0, 66, 69
2, 97983, Note_on_c, 0, 49, 40
2, 98009, Note_on_c, 0, 59, 30
2, 98441, Control_c, 0, 64, 127
2, 98672, Control_c, 0, 64, 0
2, 98816, Control_c, 0, 64, 127
2, 98818, Note_on_c, 0, 66, 0
2, 98874, Note_on_c, 0, 67, 75
2, 99356, Note_on_c, 0, 67, 0
2, 99806, Note_on_c, 0, 71, 112
2, 100166, Note_on_c, 0, 49, 0
2, 100216, Note_on_c, 0, 71, 0
2, 100226, Note_on_c, 0, 59, 0
2, 100357, Note_on_c, 0, 74, 84
2, 100493, Note_on_c, 0, 74, 0
2, 100736, Control_c, 0, 64, 0
2, 100834, Note_on_c, 0, 75, 58
2, 100845, Note_on_c, 0, 72, 52
2, 100848, Note_on_c, 0, 54, 31
2, 100853, Note_on_c, 0, 64, 47
2, 100879, Note_on_c, 0, 68, 30
2, 100968, Note_on_c, 0, 58, 28
2, 101031, Note_on_c, 0, 64, 0
2, 101096, Note_on_c, 0, 72, 0
2, 101097, Note_on_c, 0, 68, 0
2, 101147, Note_on_c, 0, 58, 0
2, 101164, Note_on_c, 0, 75, 0
2, 101236, Note_on_c, 0, 54, 0
2, 101488, Note_on_c, 0, 78, 59
2, 101491, Note_on_c, 0, 69, 63
2, 101502, Note_on_c, 0, 74, 68
2, 101525, Note_on_c, 0, 64, 44
2, 101534, Note_on_c, 0, 58, 34
2, 101544, Note_on_c, 0, 69, 0
2, 101568, Note_on_c, 0, 74, 0
2, 101578, Note_on_c, 0, 64, 0
2, 101594, Note_on_c, 0, 78, 0
2, 101606, Note_on_c, 0, 58, 0
2, 102139, Note_on_c, 0, 78, 59
2, 102141, Note_on_c, 0, 74, 64
2, 102146, Note_on_c, 0, 69, 55
2, 102151, Control_c, 0, 64, 127
2, 102164, Note_on_c, 0, 54, 23
2, 102167, Note_on_c, 0, 58, 39
2, 102174, Note_on_c, 0, 64, 31
2, 102586, Note_on_c, 0, 54, 0
2, 102618, Note_on_c, 0, 64, 0
2, 102634, Note_on_c, 0, 58, 0
2, 102635, Note_on_c, 0, 74, 0
2, 102637, Note_on_c, 0, 78, 0
2, 102679, Note_on_c, 0, 69, 0
2, 102752, Note_on_c, 0, 76, 80
2, 102765, Note_on_c, 0, 54, 33
2, 102791, Note_on_c, 0, 58, 22
2, 102847, Note_on_c, 0, 58, 0
2, 102870, Note_on_c, 0, 76, 0
2, 102938, Note_on_c, 0, 54, 0
2, 103594, Control_c, 0, 64, 0
2, 103674, Note_on_c, 0, 74, 46
2, 103678, Note_on_c, 0, 66, 37
2, 103694, Note_on_c, 0, 62, 47
2, 103724, Note_on_c, 0, 57, 25
2, 103727, Note_on_c, 0, 47, 23
2, 103927, Control_c, 0, 64, 127
2, 104271, Note_on_c, 0, 62, 0
2, 104320, Note_on_c, 0, 57, 0
2, 104395, Note_on_c, 0, 66, 0
2, 104705, Note_on_c, 0, 74, 0
2, 104719, Note_on_c, 0, 66, 30
2, 104752, Note_on_c, 0, 62, 33
2, 104778, Note_on_c, 0, 57, 20
2, 104817, Note_on_c, 0, 62, 0
2, 104915, Note_on_c, 0, 66, 0
2, 105560, Note_on_c, 0, 47, 0
2, 105681, Note_on_c, 0, 57, 0
2, 106626, Note_on_c, 0, 67, 34
2, 106627, Note_on_c, 0, 56, 42
2, 106634, Note_on_c, 0, 62, 46
2, 106641, Control_c, 0, 64, 0
2, 106872, Control_c, 0, 64, 127
2, 107132, Control_c, 0, 64, 0
2, 107177, Note_on_c, 0, 88, 116
2, 107392, Control_c, 0, 64, 127
2, 107608, Note_on_c, 0, 87, 54
2, 107693, Note_on_c, 0, 88, 0
2, 107753, Control_c, 0, 64, 0
2, 107762, Note_on_c, 0, 87, 0
2, 107770, Note_on_c, 0, 86, 76
2, 107834, Note_on_c, 0, 86, 0
2, 107855, Note_on_c, 0, 85, 83
2, 108009, Note_on_c, 0, 85, 0
2, 108037, Note_on_c, 0, 84, 67
2, 108135, Note_on_c, 0, 67, 0
2, 108164, Note_on_c, 0, 62, 0
2, 108189, Note_on_c, 0, 84, 0
2, 108318, Note_on_c, 0, 56, 0
2, 108581, Note_on_c, 0, 84, 82
2, 108617, Note_on_c, 0, 67, 35
2, 108646, Note_on_c, 0, 62, 34
2, 108655, Note_on_c, 0, 84, 0
2, 108683, Note_on_c, 0, 67, 0
2, 108699, Note_on_c, 0, 62, 0
2, 109108, Note_on_c, 0, 56, 32
2, 109108, Note_on_c, 0, 84, 74
2, 109127, Note_on_c, 0, 62, 36
2, 109192, Note_on_c, 0, 62, 0
2, 109254, Control_c, 0, 64, 127
2, 109268, Note_on_c, 0, 84, 0
2, 109383, Note_on_c, 0, 86, 76
2, 109436, Note_on_c, 0, 56, 0
2, 109557, Control_c, 0, 64, 0
2, 109593, Note_on_c, 0, 86, 0
2, 109651, Note_on_c, 0, 83, 54
2, 109655, Note_on_c, 0, 64, 28
2, 109658, Note_on_c, 0, 55, 25
2, 109669, Note_on_c, 0, 59, 25
2, 109670, Note_on_c, 0, 60, 39
2, 109824, Note_on_c, 0, 83, 0
2, 109828, Note_on_c, 0, 64, 0
2, 109840, Note_on_c, 0, 60, 0
2, 109857, Note_on_c, 0, 59, 0
2, 109863, Note_on_c, 0, 55, 0
2, 110149, Note_on_c, 0, 64, 35
2, 110151, Note_on_c, 0, 83, 62
2, 110171, Note_on_c, 0, 60, 34
2, 110195, Note_on_c, 0, 59, 22
2, 110215, Note_on_c, 0, 55, 19
2, 110241, Note_on_c, 0, 83, 0
2, 110260, Note_on_c, 0, 59, 0
2, 110273, Note_on_c, 0, 55, 0
2, 110276, Note_on_c, 0, 64, 0
2, 110282, Note_on_c, 0, 60, 0
2, 110647, Note_on_c, 0, 83, 67
2, 110660, Note_on_c, 0, 64, 22
2, 110673, Note_on_c, 0, 60, 32
2, 110683, Note_on_c, 0, 55, 40
2, 110696, Note_on_c, 0, 59, 39
2, 110784, Control_c, 0, 64, 127
2, 111010, Note_on_c, 0, 55, 0
2, 111029, Note_on_c, 0, 64, 0
2, 111055, Note_on_c, 0, 59, 0
2, 111065, Note_on_c, 0, 60, 0
2, 111078, Note_on_c, 0, 83, 0
2, 111169, Note_on_c, 0, 84, 62
2, 111362, Control_c, 0, 64, 0
2, 111441, Note_on_c, 0, 84, 0
2, 111547, Note_on_c, 0, 83, 65
2, 111556, Note_on_c, 0, 60, 38
2, 111568, Note_on_c, 0, 64, 28
2, 111569, Note_on_c, 0, 59, 29
2, 111571, Note_on_c, 0, 55, 33
2, 111578, Control_c, 0, 64, 127
2, 111952, Note_on_c, 0, 64, 0
2, 112004, Note_on_c, 0, 60, 0
2, 112010, Note_on_c, 0, 59, 0
2, 112017, Note_on_c, 0, 55, 0
2, 112272, Control_c, 0, 64, 0
2, 112298, Note_on_c, 0, 83, 0
2, 112373, Note_on_c, 0, 81, 52
2, 112405, Note_on_c, 0, 64, 22
2, 112406, Note_on_c, 0, 54, 26
2, 112413, Note_on_c, 0, 60, 21
2, 112488, Control_c, 0, 64, 127
2, 112924, Note_on_c, 0, 64, 0
2, 112980, Note_on_c, 0, 60, 0
2, 113104, Note_on_c, 0, 81, 0
2, 113363, Note_on_c, 0, 64, 25
2, 113372, Note_on_c, 0, 60, 30
2, 113659, Note_on_c, 0, 60, 0
2, 113980, Note_on_c, 0, 60, 30
2, 114069, Note_on_c, 0, 64, 0
2, 114220, Control_c, 0, 64, 0
2, 114223, Note_on_c, 0, 60, 0
2, 114239, Note_on_c, 0, 85, 70
2, 114252, Note_on_c, 0, 73, 62
2, 114368, Note_on_c, 0, 54, 0
2, 114476, Note_on_c, 0, 85, 0
2, 114497, Note_on_c, 0, 73, 0
2, 114543, Note_on_c, 0, 86, 75
2, 114567, Note_on_c, 0, 74, 40
2, 114718, Note_on_c, 0, 86, 0
2, 114734, Note_on_c, 0, 74, 0
2, 114894, Note_on_c, 0, 73, 49
2, 114895, Note_on_c, 0, 85, 49
2, 115014, Control_c, 0, 64, 127
2, 115107, Note_on_c, 0, 85, 0
2, 115119, Note_on_c, 0, 73, 0
2, 115289, Control_c, 0, 64, 0
2, 115755, Note_on_c, 0, 85, 69
2, 115762, Note_on_c, 0, 73, 38
2, 115896, Note_on_c, 0, 73, 0
2, 115911, Note_on_c, 0, 85, 0
2, 116312, Note_on_c, 0, 85, 60
2, 116317, Note_on_c, 0, 73, 35
2, 116386, Control_c, 0, 64, 127
2, 117195, Note_on_c, 0, 50, 40
2, 118020, Note_on_c, 0, 50, 0
2, 118040, Note_on_c, 0, 73, 0
2, 118071, Note_on_c, 0, 85, 0
2, 118160, Note_on_c, 0, 50, 35
2, 118308, Note_on_c, 0, 50, 0
2, 118999, Control_c, 0, 64, 0
2, 119038, Note_on_c, 0, 86, 98
2, 119059, Note_on_c, 0, 83, 92
2, 119073, Note_on_c, 0, 79, 85
2, 119076, Note_on_c, 0, 74, 87
2, 119080, Note_on_c, 0, 64, 70
2, 119082, Note_on_c, 0, 60, 59
2, 119089, Note_on_c, 0, 59, 54
2, 119215, Control_c, 0, 64, 127
2, 119388, Note_on_c, 0, 86, 0
2, 119421, Note_on_c, 0, 79, 0
2, 119444, Note_on_c, 0, 83, 0
2, 119495, Note_on_c, 0, 60, 0
2, 119503, Note_on_c, 0, 64, 0
2, 119557, Note_on_c, 0, 59, 0
2, 119579, Note_on_c, 0, 74, 0
2, 120019, Note_on_c, 0, 83, 52
2, 120033, Note_on_c, 0, 79, 43
2, 120036, Note_on_c, 0, 64, 36
2, 120045, Note_on_c, 0, 76, 55
2, 120054, Note_on_c, 0, 60, 30
2, 120055, Note_on_c, 0, 71, 26
2, 120082, Note_on_c, 0, 59, 23
2, 120147, Note_on_c, 0, 64, 0
2, 120180, Note_on_c, 0, 60, 0
2, 120193, Note_on_c, 0, 59, 0
2, 120424, Note_on_c, 0, 71, 0
2, 120480, Note_on_c, 0, 83, 0
2, 120537, Note_on_c, 0, 76, 0
2, 120543, Note_on_c, 0, 79, 0
2, 120697, Note_on_c, 0, 57, 33
2, 120794, Note_on_c, 0, 57, 0
2, 120991, Control_c, 0, 64, 0
2, 120994, Note_on_c, 0, 73, 61
2, 121023, Note_on_c, 0, 64, 46
2, 121030, Note_on_c, 0, 69, 58
2, 121059, Note_on_c, 0, 50, 38
2, 121324, Control_c, 0, 64, 127
2, 121550, Note_on_c, 0, 69, 0
2, 121604, Note_on_c, 0, 64, 0
2, 121908, Note_on_c, 0, 69, 33
2, 121914, Note_on_c, 0, 64, 32
2, 121926, Note_on_c, 0, 62, 24
2, 121950, Note_on_c, 0, 57, 23
2, 122311, Note_on_c, 0, 64, 0
2, 122447, Note_on_c, 0, 69, 0
2, 122453, Note_on_c, 0, 73, 0
2, 122925, Note_on_c, 0, 62, 0
2, 123086, Note_on_c, 0, 57, 0
2, 123226, Note_on_c, 0, 50, 0
2, 123433, Note_on_c, 0, 74, 96
2, 123631, Note_on_c, 0, 74, 0
2, 123749, Control_c, 0, 64, 0
2, 123821, Note_on_c, 0, 76, 96
2, 123831, Note_on_c, 0, 50, 41
2, 123851, Note_on_c, 0, 71, 81
2, 123861, Note_on_c, 0, 67, 71
2, 123865, Note_on_c, 0, 60, 42
2, 124153, Control_c, 0, 64, 127
2, 124358, Note_on_c, 0, 60, 0
2, 124451, Note_on_c, 0, 71, 0
2, 124499, Note_on_c, 0, 67, 0
2, 124821, Note_on_c, 0, 71, 42
2, 124826, Note_on_c, 0, 67, 28
2, 125369, Note_on_c, 0, 76, 0
2, 125490, Note_on_c, 0, 71, 0
2, 125652, Note_on_c, 0, 67, 0
2, 125979, Note_on_c, 0, 50, 0
2, 126388, Note_on_c, 0, 74, 70
2, 126608, Note_on_c, 0, 74, 0
2, 126680, Control_c, 0, 64, 0
2, 126742, Note_on_c, 0, 73, 30
2, 126778, Note_on_c, 0, 64, 25
2, 126783, Note_on_c, 0, 50, 25
2, 126785, Note_on_c, 0, 69, 33
2, 127012, Control_c, 0, 64, 127
2, 127206, Note_on_c, 0, 64, 0
2, 127226, Note_on_c, 0, 69, 0
2, 127651, Note_on_c, 0, 69, 23
2, 127660, Note_on_c, 0, 62, 30
2, 127686, Note_on_c, 0, 64, 21
2, 128270, Note_on_c, 0, 62, 0
2, 128364, Note_on_c, 0, 64, 0
2, 128383, Note_on_c, 0, 69, 0
2, 128398, Note_on_c, 0, 73, 0
2, 128577, Note_on_c, 0, 50, 0
2, 128629, Note_on_c, 0, 74, 59
2, 128895, Note_on_c, 0, 74, 0
2, 129422, Control_c, 0, 64, 0
2, 129542, Note_on_c, 0, 76, 59
2, 129555, Note_on_c, 0, 49, 25
2, 129558, Note_on_c, 0, 65, 27
2, 129563, Note_on_c, 0, 71, 48
2, 129572, Note_on_c, 0, 59, 22
2, 129755, Control_c, 0, 64, 127
2, 129918, Note_on_c, 0, 76, 0
2, 129981, Note_on_c, 0, 71, 0
2, 129994, Note_on_c, 0, 59, 0
2, 130256, Note_on_c, 0, 65, 0
2, 130554, Note_on_c, 0, 74, 65
2, 130584, Note_on_c, 0, 59, 20
2, 131008, Note_on_c, 0, 74, 0
2, 131578, Note_on_c, 0, 59, 0
2, 131641, Note_on_c, 0, 49, 0
2, 132057, Note_on_c, 0, 67, 81
2, 132093, Note_on_c, 0, 49, 26
2, 132393, Note_on_c, 0, 49, 0
2, 132415, Note_on_c, 0, 67, 0
2, 132541, Control_c, 0, 64, 0
2, 132593, Note_on_c, 0, 66, 69
2, 132618, Note_on_c, 0, 48, 31
2, 132658, Note_on_c, 0, 62, 63
2, 132690, Note_on_c, 0, 57, 30
2, 132930, Control_c, 0, 64, 127
2, 133146, Note_on_c, 0, 57, 0
2, 133159, Note_on_c, 0, 62, 0
2, 133330, Note_on_c, 0, 66, 0
2, 133427, Note_on_c, 0, 62, 64
2, 133663, Note_on_c, 0, 62, 0
2, 134075, Note_on_c, 0, 67, 125
2, 134431, Note_on_c, 0, 67, 0
2, 134600, Note_on_c, 0, 67, 93
2, 134821, Note_on_c, 0, 48, 0
2, 134846, Note_on_c, 0, 67, 0
2, 135024, Note_on_c, 0, 67, 57
2, 135328, Note_on_c, 0, 67, 0
2, 135342, Control_c, 0, 64, 0
2, 135417, Note_on_c, 0, 53, 22
2, 135426, Note_on_c, 0, 46, 27
2, 135436, Note_on_c, 0, 64, 52
2, 135440, Note_on_c, 0, 60, 22
2, 135441, Note_on_c, 0, 56, 23
2, 135702, Control_c, 0, 64, 127
2, 135928, Note_on_c, 0, 60, 0
2, 136056, Note_on_c, 0, 53, 0
2, 136173, Note_on_c, 0, 64, 0
2, 136805, Note_on_c, 0, 46, 0
2, 136861, Note_on_c, 0, 56, 0
2, 137286, Note_on_c, 0, 79, 90
2, 137446, Note_on_c, 0, 79, 0
2, 137584, Note_on_c, 0, 78, 31
2, 137671, Note_on_c, 0, 78, 0
2, 137825, Control_c, 0, 64, 0
2, 137891, Note_on_c, 0, 79, 65
2, 137904, Note_on_c, 0, 62, 44
2, 137925, Note_on_c, 0, 66, 25
2, 137928, Note_on_c, 0, 55, 21
2, 137953, Note_on_c, 0, 59, 41
2, 138167, Note_on_c, 0, 79, 0
2, 138242, Note_on_c, 0, 78, 48
2, 138431, Control_c, 0, 64, 127
2, 138460, Control_c, 0, 64, 0
2, 138634, Note_on_c, 0, 78, 0
2, 138645, Note_on_c, 0, 59, 0
2, 138657, Note_on_c, 0, 62, 0
2, 138719, Note_on_c, 0, 66, 0
2, 139184, Note_on_c, 0, 78, 46
2, 139191, Note_on_c, 0, 66, 28
2, 139244, Note_on_c, 0, 62, 36
2, 139280, Note_on_c, 0, 59, 28
2, 139370, Control_c, 0, 64, 127
2, 139832, Control_c, 0, 64, 0
2, 140206, Control_c, 0, 64, 127
2, 140543, Note_on_c, 0, 78, 0
2, 140569, Note_on_c, 0, 62, 0
2, 140640, Note_on_c, 0, 59, 0
2, 140670, Note_on_c, 0, 55, 0
2, 140719, Note_on_c, 0, 66, 0
2, 140798, Note_on_c, 0, 79, 59
2, 140958, Control_c, 0, 64, 0
2, 140997, Note_on_c, 0, 79, 0
2, 141138, Note_on_c, 0, 66, 28
2, 141151, Note_on_c, 0, 61, 51
2, 141157, Note_on_c, 0, 76, 58
2, 141173, Note_on_c, 0, 55, 24
2, 141288, Note_on_c, 0, 55, 0
2, 141296, Note_on_c, 0, 76, 0
2, 141349, Note_on_c, 0, 61, 0
2, 141373, Note_on_c, 0, 66, 0
2, 141969, Control_c, 0, 64, 127
2, 142034, Note_on_c, 0, 66, 23
2, 142035, Note_on_c, 0, 61, 31
2, 142042, Note_on_c, 0, 76, 54
2, 142099, Note_on_c, 0, 55, 18
2, 142296, Note_on_c, 0, 76, 0
2, 142564, Note_on_c, 0, 66, 0
2, 142950, Control_c, 0, 64, 0
2, 143035, Note_on_c, 0, 67, 100
2, 143117, Note_on_c, 0, 67, 0
2, 143302, Note_on_c, 0, 55, 0
2, 143337, Note_on_c, 0, 67, 82
2, 143402, Note_on_c, 0, 67, 0
2, 143432, Note_on_c, 0, 61, 0
2, 143962, Note_on_c, 0, 66, 85
2, 144005, Note_on_c, 0, 62, 45
2, 144028, Note_on_c, 0, 55, 30
2, 144058, Note_on_c, 0, 59, 30
2, 144156, Note_on_c, 0, 66, 0
2, 144211, Note_on_c, 0, 62, 0
2, 144213, Note_on_c, 0, 55, 0
2, 144234, Note_on_c, 0, 59, 0
2, 144882, Note_on_c, 0, 66, 61
2, 144944, Note_on_c, 0, 62, 30
2, 144957, Note_on_c, 0, 59, 38
2, 145038, Note_on_c, 0, 55, 8
2, 145678, Control_c, 0, 64, 127
2, 145933, Note_on_c, 0, 62, 0
2, 146057, Note_on_c, 0, 59, 0
2, 146061, Note_on_c, 0, 55, 0
2, 146073, Note_on_c, 0, 66, 0
2, 146453, Note_on_c, 0, 67, 101
2, 146455, Note_on_c, 0, 62, 56
2, 146475, Note_on_c, 0, 59, 42
2, 146491, Note_on_c, 0, 65, 34
2, 146539, Note_on_c, 0, 65, 0
2, 146633, Note_on_c, 0, 67, 0
2, 146645, Note_on_c, 0, 59, 0
2, 146650, Note_on_c, 0, 62, 0
2, 146804, Control_c, 0, 64, 0
2, 146885, Note_on_c, 0, 69, 104
2, 146895, Note_on_c, 0, 62, 65
2, 146897, Note_on_c, 0, 59, 79
2, 147180, Control_c, 0, 64, 127
2, 147438, Note_on_c, 0, 59, 0
2, 147573, Note_on_c, 0, 62, 0
2, 149186, Note_on_c, 0, 69, 0
2, 149218, Note_on_c, 0, 67, 48
2, 149369, Note_on_c, 0, 67, 0
2, 149497, Note_on_c, 0, 66, 43
2, 149677, Control_c, 0, 64, 0
2, 149726, Note_on_c, 0, 66, 0
2, 149801, Note_on_c, 0, 60, 28
2, 149833, Note_on_c, 0, 64, 70
2, 149849, Note_on_c, 0, 59, 35
2, 149866, Note_on_c, 0, 55, 18
2, 150139, Control_c, 0, 64, 127
2, 150668, Note_on_c, 0, 64, 0
2, 150818, Note_on_c, 0, 59, 0
2, 150901, Note_on_c, 0, 60, 0
2, 151044, Note_on_c, 0, 55, 0
2, 152536, Control_c, 0, 64, 0
2, 152661, Note_on_c, 0, 57, 26
2, 152662, Note_on_c, 0, 60, 28
2, 152678, Note_on_c, 0, 59, 25
2, 152683, Note_on_c, 0, 64, 19
2, 152767, Control_c, 0, 64, 127
2, 153074, Note_on_c, 0, 59, 0
2, 153087, Note_on_c, 0, 64, 0
2, 153133, Note_on_c, 0, 57, 0
2, 153139, Note_on_c, 0, 60, 0
2, 153387, Note_on_c, 0, 81, 83
2, 153407, Note_on_c, 0, 69, 75
2, 153420, Note_on_c, 0, 60, 43
2, 153421, Note_on_c, 0, 64, 49
2, 153427, Note_on_c, 0, 57, 48
2, 153446, Note_on_c, 0, 59, 45
2, 153739, Note_on_c, 0, 59, 0
2, 153781, Note_on_c, 0, 69, 0
2, 153803, Note_on_c, 0, 57, 0
2, 153818, Note_on_c, 0, 64, 0
2, 153830, Note_on_c, 0, 60, 0
2, 153868, Note_on_c, 0, 81, 0
2, 154978, Note_on_c, 0, 83, 60
2, 154995, Note_on_c, 0, 71, 44
2, 155051, Note_on_c, 0, 71, 0
2, 155061, Note_on_c, 0, 83, 0
2, 155241, Note_on_c, 0, 57, 49
2, 155260, Note_on_c, 0, 64, 25
2, 155263, Note_on_c, 0, 84, 82
2, 155264, Note_on_c, 0, 72, 75
2, 155267, Note_on_c, 0, 60, 32
2, 155322, Note_on_c, 0, 64, 0
2, 155336, Note_on_c, 0, 60, 0
2, 155388, Note_on_c, 0, 72, 0
2, 155391, Note_on_c, 0, 57, 0
2, 155411, Note_on_c, 0, 84, 0
2, 155586, Control_c, 0, 64, 0
2, 155635, Note_on_c, 0, 86, 88
2, 155640, Note_on_c, 0, 79, 75
2, 155645, Note_on_c, 0, 60, 70
2, 155646, Note_on_c, 0, 74, 78
2, 155649, Note_on_c, 0, 56, 48
2, 155656, Note_on_c, 0, 63, 73
2, 155664, Note_on_c, 0, 82, 39
2, 155678, Note_on_c, 0, 57, 71
2, 155711, Note_on_c, 0, 82, 0
2, 155872, Note_on_c, 0, 56, 0
2, 156126, Note_on_c, 0, 63, 0
2, 156139, Note_on_c, 0, 79, 0
2, 156157, Note_on_c, 0, 57, 0
2, 156163, Note_on_c, 0, 74, 0
2, 156192, Note_on_c, 0, 60, 0
2, 156203, Note_on_c, 0, 86, 0
2, 156555, Note_on_c, 0, 86, 64
2, 156568, Note_on_c, 0, 60, 35
2, 156572, Note_on_c, 0, 63, 30
2, 156588, Note_on_c, 0, 57, 39
2, 156591, Note_on_c, 0, 74, 33
2, 156595, Note_on_c, 0, 55, 40
2, 156598, Note_on_c, 0, 79, 36
2, 156827, Control_c, 0, 64, 127
2, 157082, Note_on_c, 0, 86, 0
2, 157103, Note_on_c, 0, 74, 0
2, 157155, Note_on_c, 0, 63, 0
2, 157168, Note_on_c, 0, 79, 0
2, 157208, Note_on_c, 0, 55, 0
2, 157213, Note_on_c, 0, 57, 0
2, 157272, Note_on_c, 0, 60, 0
2, 157334, Control_c, 0, 64, 0
2, 157420, Note_on_c, 0, 63, 28
2, 157436, Note_on_c, 0, 84, 44
2, 157443, Note_on_c, 0, 72, 49
2, 157461, Note_on_c, 0, 79, 29
2, 157486, Note_on_c, 0, 57, 21
2, 157518, Note_on_c, 0, 79, 0
2, 157521, Note_on_c, 0, 84, 0
2, 157543, Note_on_c, 0, 63, 0
2, 157553, Note_on_c, 0, 72, 0
2, 157560, Note_on_c, 0, 57, 0
2, 158058, Note_on_c, 0, 83, 33
2, 158074, Note_on_c, 0, 71, 53
2, 158093, Note_on_c, 0, 60, 29
2, 158098, Control_c, 0, 64, 127
2, 158121, Note_on_c, 0, 83, 0
2, 158206, Note_on_c, 0, 71, 0
2, 158310, Note_on_c, 0, 60, 0
2, 158372, Control_c, 0, 64, 0
2, 158419, Note_on_c, 0, 81, 48
2, 158431, Note_on_c, 0, 60, 14
2, 158447, Note_on_c, 0, 63, 23
2, 158454, Note_on_c, 0, 69, 26
2, 158484, Note_on_c, 0, 54, 23
2, 158964, Control_c, 0, 64, 127
2, 159019, Note_on_c, 0, 63, 0
2, 159106, Note_on_c, 0, 60, 0
2, 159129, Note_on_c, 0, 69, 0
2, 159167, Note_on_c, 0, 81, 0
2, 159340, Control_c, 0, 64, 0
2, 159383, Note_on_c, 0, 81, 37
2, 159391, Note_on_c, 0, 60, 27
2, 159406, Note_on_c, 0, 63, 23
2, 159407, Note_on_c, 0, 69, 24
2, 159609, Note_on_c, 0, 69, 0
2, 159615, Control_c, 0, 64, 127
2, 159903, Note_on_c, 0, 81, 0
2, 160126, Note_on_c, 0, 54, 0
2, 160329, Note_on_c, 0, 54, 32
2, 160336, Control_c, 0, 64, 0
2, 160410, Note_on_c, 0, 60, 0
2, 160466, Note_on_c, 0, 63, 0
2, 160519, Note_on_c, 0, 54, 0
2, 160924, Note_on_c, 0, 86, 73
2, 160971, Note_on_c, 0, 86, 0
2, 161291, Note_on_c, 0, 93, 80
2, 161408, Note_on_c, 0, 93, 0
2, 162275, Note_on_c, 0, 73, 77
2, 162453, Note_on_c, 0, 73, 0
2, 162577, Note_on_c, 0, 74, 88
2, 162691, Note_on_c, 0, 74, 0
2, 162899, Note_on_c, 0, 73, 77
2, 163158, Note_on_c, 0, 73, 0
2, 163245, Note_on_c, 0, 69, 52
2, 163785, Note_on_c, 0, 69, 0
2, 163910, Note_on_c, 0, 69, 65
2, 165117, Note_on_c, 0, 69, 0
2, 165233, Note_on_c, 0, 64, 33
2, 165261, Note_on_c, 0, 60, 28
2, 165296, Note_on_c, 0, 59, 20
2, 165339, Note_on_c, 0, 71, 25
2, 165795, Note_on_c, 0, 71, 0
2, 165921, Note_on_c, 0, 72, 93
2, 166118, Note_on_c, 0, 72, 0
2, 166135, Note_on_c, 0, 64, 0
2, 166168, Note_on_c, 0, 60, 0
2, 166198, Note_on_c, 0, 59, 0
2, 166277, Note_on_c, 0, 76, 123
2, 166705, Note_on_c, 0, 76, 0
2, 166856, Note_on_c, 0, 79, 112
2, 167126, Note_on_c, 0, 79, 0
2, 167232, Note_on_c, 0, 78, 67
2, 167819, Note_on_c, 0, 74, 59
2, 167845, Note_on_c, 0, 78, 0
2, 168011, Note_on_c, 0, 74, 0
2, 168294, Note_on_c, 0, 69, 8
2, 168582, Note_on_c, 0, 69, 0
2, 169059, Note_on_c, 0, 69, 37
2, 170107, Note_on_c, 0, 69, 0
2, 170702, Note_on_c, 0, 71, 66
2, 170905, Note_on_c, 0, 71, 0
2, 170997, Note_on_c, 0, 72, 46
2, 171294, Note_on_c, 0, 72, 0
2, 171333, Note_on_c, 0, 76, 72
2, 171534, Note_on_c, 0, 76, 0
2, 171643, Note_on_c, 0, 79, 98
2, 171867, Note_on_c, 0, 79, 0
2, 171981, Note_on_c, 0, 83, 96
2, 172264, Note_on_c, 0, 83, 0
2, 172301, Note_on_c, 0, 86, 95
2, 172521, Note_on_c, 0, 86, 0
2, 172593, Note_on_c, 0, 86, 26
2, 172616, Note_on_c, 0, 85, 90
2, 172677, Note_on_c, 0, 86, 0
2, 172905, Note_on_c, 0, 82, 63
2, 172934, Note_on_c, 0, 85, 0
2, 172958, Note_on_c, 0, 82, 0
2, 172979, Note_on_c, 0, 81, 64
2, 173614, Note_on_c, 0, 81, 0
2, 173841, Note_on_c, 0, 76, 57
2, 174229, Note_on_c, 0, 76, 0
2, 174392, Note_on_c, 0, 73, 30
2, 174709, Note_on_c, 0, 69, 40
2, 174813, Note_on_c, 0, 73, 0
2, 175752, Note_on_c, 0, 69, 0
2, 175766, Note_on_c, 0, 59, 48
2, 175771, Note_on_c, 0, 49, 38
2, 176731, Note_on_c, 0, 62, 112
2, 177301, Note_on_c, 0, 62, 0
2, 177326, Note_on_c, 0, 61, 55
2, 177406, Note_on_c, 0, 55, 25
2, 177619, Note_on_c, 0, 61, 0
2, 177734, Note_on_c, 0, 62, 67
2, 177909, Note_on_c, 0, 55, 0
2, 178145, Note_on_c, 0, 59, 0
2, 178377, Note_on_c, 0, 64, 52
2, 178453, Note_on_c, 0, 49, 0
2, 178510, Note_on_c, 0, 62, 0
2, 178524, Note_on_c, 0, 64, 0
2, 178705, Note_on_c, 0, 48, 41
2, 178713, Note_on_c, 0, 57, 48
2, 179624, Note_on_c, 0, 66, 95
2, 179741, Note_on_c, 0, 57, 0
2, 180293, Note_on_c, 0, 57, 34
2, 180379, Note_on_c, 0, 57, 0
2, 180510, Note_on_c, 0, 66, 0
2, 180568, Note_on_c, 0, 57, 38
2, 180928, Note_on_c, 0, 62, 69
2, 181006, Note_on_c, 0, 57, 0
2, 181097, Note_on_c, 0, 62, 0
2, 181133, Note_on_c, 0, 48, 0
2, 181213, Note_on_c, 0, 66, 86
2, 181459, Note_on_c, 0, 66, 0
2, 181533, Note_on_c, 0, 67, 89
2, 181541, Note_on_c, 0, 60, 90
2, 181547, Note_on_c, 0, 55, 67
2, 181550, Note_on_c, 0, 46, 42
2, 182350, Note_on_c, 0, 60, 0
2, 182467, Note_on_c, 0, 64, 82
2, 182715, Note_on_c, 0, 55, 0
2, 182987, Note_on_c, 0, 67, 0
2, 183011, Note_on_c, 0, 64, 0
2, 183047, Note_on_c, 0, 60, 69
2, 183141, Note_on_c, 0, 55, 36
2, 183277, Note_on_c, 0, 55, 0
2, 183331, Note_on_c, 0, 60, 0
2, 183499, Note_on_c, 0, 46, 0
2, 183782, Note_on_c, 0, 55, 70
2, 183971, Note_on_c, 0, 55, 0
2, 184091, Note_on_c, 0, 65, 70
2, 184184, Note_on_c, 0, 40, 42
2, 184302, Note_on_c, 0, 65, 0
2, 184768, Note_on_c, 0, 62, 75
2, 185048, Note_on_c, 0, 66, 85
2, 185081, Note_on_c, 0, 47, 41
2, 185094, Note_on_c, 0, 62, 0
2, 185185, Note_on_c, 0, 40, 0
2, 185253, Note_on_c, 0, 66, 0
2, 185297, Note_on_c, 0, 47, 0
2, 185387, Note_on_c, 0, 67, 61
2, 185619, Note_on_c, 0, 67, 0
2, 185710, Note_on_c, 0, 74, 90
2, 185883, Note_on_c, 0, 74, 0
2, 185979, Note_on_c, 0, 78, 93
2, 186013, Note_on_c, 0, 75, 57
2, 186078, Note_on_c, 0, 75, 0
2, 186237, Note_on_c, 0, 78, 0
2, 186289, Note_on_c, 0, 62, 72
2, 186310, Note_on_c, 0, 79, 90
2, 186350, Note_on_c, 0, 59, 49
2, 186523, Note_on_c, 0, 79, 0
2, 186531, Note_on_c, 0, 62, 0
2, 186624, Note_on_c, 0, 78, 61
2, 186629, Note_on_c, 0, 59, 0
2, 186832, Note_on_c, 0, 78, 0
2, 186949, Note_on_c, 0, 79, 97
2, 187017, Note_on_c, 0, 66, 57
2, 187021, Note_on_c, 0, 61, 61
2, 187043, Note_on_c, 0, 55, 46
2, 187278, Note_on_c, 0, 78, 48
2, 187301, Note_on_c, 0, 79, 0
2, 187624, Note_on_c, 0, 78, 0
2, 187635, Note_on_c, 0, 76, 63
2, 188056, Note_on_c, 0, 76, 0
2, 188198, Note_on_c, 0, 71, 52
2, 189427, Note_on_c, 0, 55, 0
2, 189549, Note_on_c, 0, 61, 0
2, 189659, Note_on_c, 0, 66, 0
2, 190006, Note_on_c, 0, 71, 0
2, 190099, Note_on_c, 0, 66, 38
2, 190104, Note_on_c, 0, 62, 48
2, 190152, Note_on_c, 0, 55, 26
2, 190160, Note_on_c, 0, 59, 52
2, 190689, Note_on_c, 0, 78, 95
2, 190947, Note_on_c, 0, 78, 0
2, 190990, Note_on_c, 0, 79, 52
2, 191200, Note_on_c, 0, 80, 74
2, 191227, Note_on_c, 0, 79, 0
2, 191300, Note_on_c, 0, 81, 83
2, 191304, Note_on_c, 0, 80, 0
2, 191633, Note_on_c, 0, 81, 0
2, 192398, Note_on_c, 0, 62, 0
2, 192414, Note_on_c, 0, 81, 81
2, 192541, Note_on_c, 0, 55, 0
2, 192544, Note_on_c, 0, 59, 0
2, 192672, Note_on_c, 0, 81, 0
2, 192709, Note_on_c, 0, 66, 0
2, 193126, Note_on_c, 0, 66, 47
2, 193139, Note_on_c, 0, 61, 57
2, 193189, Note_on_c, 0, 55, 25
2, 193952, Note_on_c, 0, 78, 90
2, 194136, Note_on_c, 0, 78, 0
2, 194248, Note_on_c, 0, 79, 75
2, 194341, Note_on_c, 0, 66, 0
2, 194479, Note_on_c, 0, 79, 0
2, 194539, Note_on_c, 0, 78, 82
2, 194542, Note_on_c, 0, 55, 0
2, 194689, Note_on_c, 0, 61, 0
2, 194825, Note_on_c, 0, 78, 0
2, 194853, Note_on_c, 0, 76, 57
2, 194861, Note_on_c, 0, 61, 38
2, 194971, Note_on_c, 0, 55, 19
2, 195049, Note_on_c, 0, 76, 0
2, 195153, Note_on_c, 0, 75, 73
2, 195393, Note_on_c, 0, 73, 48
2, 195395, Note_on_c, 0, 75, 0
2, 195614, Note_on_c, 0, 73, 0
2, 195635, Note_on_c, 0, 61, 0
2, 195902, Note_on_c, 0, 71, 58
2, 195965, Note_on_c, 0, 60, 37
2, 195968, Note_on_c, 0, 64, 36
2, 195995, Note_on_c, 0, 59, 29
2, 196137, Note_on_c, 0, 71, 0
2, 196214, Note_on_c, 0, 74, 82
2, 196477, Note_on_c, 0, 72, 62
2, 196569, Note_on_c, 0, 64, 0
2, 196573, Note_on_c, 0, 74, 0
2, 196640, Note_on_c, 0, 72, 0
2, 196713, Note_on_c, 0, 60, 0
2, 196768, Note_on_c, 0, 68, 36
2, 196891, Note_on_c, 0, 64, 25
2, 196892, Note_on_c, 0, 68, 0
2, 196896, Note_on_c, 0, 60, 12
2, 196966, Note_on_c, 0, 71, 70
2, 197067, Note_on_c, 0, 64, 0
2, 197179, Note_on_c, 0, 60, 0
2, 197243, Note_on_c, 0, 71, 0
2, 197273, Note_on_c, 0, 59, 0
2, 197299, Note_on_c, 0, 68, 22
2, 197368, Note_on_c, 0, 68, 0
2, 197485, Note_on_c, 0, 69, 80
2, 197497, Note_on_c, 0, 55, 0
2, 197677, Note_on_c, 0, 69, 0
2, 197779, Note_on_c, 0, 64, 47
2, 197801, Note_on_c, 0, 65, 32
2, 197856, Note_on_c, 0, 65, 0
2, 197903, Note_on_c, 0, 64, 0
2, 198072, Note_on_c, 0, 64, 17
2, 198168, Note_on_c, 0, 64, 0
2, 198342, Note_on_c, 0, 60, 15
2, 198443, Note_on_c, 0, 60, 0
2, 198859, Note_on_c, 0, 45, 35
2, 198869, Note_on_c, 0, 55, 49
2, 198950, Note_on_c, 0, 62, 90
2, 199390, Note_on_c, 0, 55, 0
2, 199407, Note_on_c, 0, 62, 0
2, 199497, Note_on_c, 0, 59, 78
2, 199673, Note_on_c, 0, 59, 0
2, 199775, Note_on_c, 0, 60, 52
2, 199827, Note_on_c, 0, 55, 25
2, 199942, Note_on_c, 0, 60, 0
2, 199968, Note_on_c, 0, 55, 0
2, 200085, Note_on_c, 0, 64, 73
2, 200275, Note_on_c, 0, 64, 0
2, 200361, Note_on_c, 0, 67, 82
2, 200422, Note_on_c, 0, 55, 59
2, 200456, Note_on_c, 0, 52, 29
2, 200491, Note_on_c, 0, 45, 0
2, 200525, Note_on_c, 0, 67, 0
2, 200526, Note_on_c, 0, 52, 0
2, 200560, Note_on_c, 0, 55, 0
2, 200741, Note_on_c, 0, 71, 30
2, 200881, Note_on_c, 0, 71, 0
2, 201009, Note_on_c, 0, 74, 61
2, 201014, Note_on_c, 0, 72, 58
2, 201145, Note_on_c, 0, 74, 0
2, 201147, Note_on_c, 0, 72, 0
2, 201371, Note_on_c, 0, 75, 104
2, 201431, Note_on_c, 0, 76, 56
2, 201485, Note_on_c, 0, 76, 0
2, 201669, Note_on_c, 0, 63, 64
2, 201699, Note_on_c, 0, 60, 48
2, 201704, Note_on_c, 0, 57, 60
2, 201726, Note_on_c, 0, 55, 38
2, 201822, Note_on_c, 0, 74, 27
2, 202051, Note_on_c, 0, 67, 71
2, 202062, Note_on_c, 0, 74, 0
2, 202118, Note_on_c, 0, 75, 0
2, 202213, Note_on_c, 0, 67, 0
2, 202339, Note_on_c, 0, 63, 0
2, 202366, Note_on_c, 0, 70, 78
2, 202416, Note_on_c, 0, 60, 0
2, 202585, Note_on_c, 0, 70, 0
2, 202653, Note_on_c, 0, 63, 21
2, 202669, Note_on_c, 0, 75, 74
2, 202704, Note_on_c, 0, 60, 17
2, 202760, Note_on_c, 0, 63, 0
2, 202776, Note_on_c, 0, 75, 0
2, 202867, Note_on_c, 0, 60, 0
2, 202969, Note_on_c, 0, 79, 82
2, 203137, Note_on_c, 0, 79, 0
2, 203137, Note_on_c, 0, 57, 0
2, 203171, Note_on_c, 0, 55, 0
2, 203270, Note_on_c, 0, 82, 96
2, 203285, Note_on_c, 0, 63, 67
2, 203295, Note_on_c, 0, 55, 39
2, 203326, Note_on_c, 0, 60, 55
2, 203368, Note_on_c, 0, 57, 39
2, 203480, Note_on_c, 0, 63, 0
2, 203492, Note_on_c, 0, 82, 0
2, 203589, Note_on_c, 0, 63, 40
2, 203595, Note_on_c, 0, 87, 86
2, 203750, Note_on_c, 0, 63, 0
2, 203781, Note_on_c, 0, 55, 0
2, 203790, Note_on_c, 0, 57, 0
2, 203803, Note_on_c, 0, 87, 0
2, 203830, Note_on_c, 0, 60, 0
2, 203885, Note_on_c, 0, 63, 52
2, 203896, Note_on_c, 0, 55, 56
2, 203897, Note_on_c, 0, 89, 92
2, 203910, Note_on_c, 0, 77, 91
2, 203939, Note_on_c, 0, 88, 58
2, 203941, Note_on_c, 0, 60, 19
2, 203955, Note_on_c, 0, 79, 52
2, 203957, Note_on_c, 0, 57, 23
2, 203993, Note_on_c, 0, 88, 0
2, 204005, Note_on_c, 0, 79, 0
2, 204318, Note_on_c, 0, 57, 0
2, 204326, Note_on_c, 0, 55, 0
2, 204329, Note_on_c, 0, 89, 0
2, 204331, Note_on_c, 0, 77, 0
2, 204387, Note_on_c, 0, 60, 0
2, 204406, Note_on_c, 0, 63, 0
2, 204539, Note_on_c, 0, 89, 96
2, 204544, Note_on_c, 0, 86, 89
2, 204545, Note_on_c, 0, 82, 86
2, 204549, Note_on_c, 0, 77, 101
2, 204550, Note_on_c, 0, 58, 81
2, 204555, Note_on_c, 0, 54, 80
2, 204557, Note_on_c, 0, 60, 77
2, 204560, Note_on_c, 0, 65, 91
2, 204584, Note_on_c, 0, 88, 52
2, 204638, Note_on_c, 0, 88, 0
2, 206446, Note_on_c, 0, 86, 0
2, 206461, Note_on_c, 0, 89, 0
2, 206576, Note_on_c, 0, 77, 0
2, 206766, Note_on_c, 0, 65, 0
2, 206789, Note_on_c, 0, 82, 0
2, 206825, Note_on_c, 0, 54, 0
2, 206937, Note_on_c, 0, 60, 0
2, 206995, Note_on_c, 0, 58, 0
2, 207115, Note_on_c, 0, 54, 45
2, 207131, Note_on_c, 0, 87, 86
2, 207145, Note_on_c, 0, 75, 94
2, 207150, Note_on_c, 0, 58, 19
2, 207235, Note_on_c, 0, 58, 0
2, 207321, Note_on_c, 0, 54, 0
2, 207353, Note_on_c, 0, 75, 0
2, 207361, Note_on_c, 0, 87, 0
2, 207526, Note_on_c, 0, 86, 67
2, 207544, Note_on_c, 0, 74, 34
2, 207649, Note_on_c, 0, 74, 0
2, 207671, Note_on_c, 0, 86, 0
2, 208129, Note_on_c, 0, 74, 65
2, 208131, Note_on_c, 0, 86, 59
2, 208133, Note_on_c, 0, 50, 33
2, 208198, Note_on_c, 0, 86, 0
2, 208200, Note_on_c, 0, 74, 0
2, 208502, Note_on_c, 0, 86, 59
2, 208525, Note_on_c, 0, 74, 33
2, 208597, Note_on_c, 0, 86, 0
2, 208598, Note_on_c, 0, 74, 0
2, 209093, Note_on_c, 0, 85, 73
2, 209094, Note_on_c, 0, 73, 60
2, 209224, Note_on_c, 0, 85, 0
2, 209229, Note_on_c, 0, 73, 0
2, 209461, Note_on_c, 0, 85, 49
2, 209462, Note_on_c, 0, 73, 30
2, 209629, Note_on_c, 0, 73, 0
2, 209725, Note_on_c, 0, 85, 0
2, 210019, Note_on_c, 0, 81, 65
2, 210177, Note_on_c, 0, 81, 0
2, 210375, Note_on_c, 0, 81, 59
2, 210459, Note_on_c, 0, 50, 0
2, 211264, Note_on_c, 0, 64, 55
2, 211265, Note_on_c, 0, 60, 53
2, 211277, Note_on_c, 0, 59, 53
2, 211304, Note_on_c, 0, 81, 0
2, 212566, Note_on_c, 0, 71, 57
2, 212570, Note_on_c, 0, 64, 0
2, 212673, Note_on_c, 0, 60, 0
2, 212715, Note_on_c, 0, 71, 0
2, 212766, Note_on_c, 0, 59, 0
2, 212849, Note_on_c, 0, 76, 83
2, 213158, Note_on_c, 0, 76, 0
2, 213177, Note_on_c, 0, 73, 77
2, 213789, Note_on_c, 0, 50, 54
2, 214763, Note_on_c, 0, 69, 55
2, 215112, Note_on_c, 0, 50, 0
2, 215297, Note_on_c, 0, 73, 0
2, 215438, Note_on_c, 0, 71, 64
2, 215483, Note_on_c, 0, 69, 0
2, 215624, Note_on_c, 0, 71, 0
2, 215742, Note_on_c, 0, 73, 72
2, 215992, Note_on_c, 0, 73, 0
2, 216080, Note_on_c, 0, 64, 55
2, 216086, Note_on_c, 0, 60, 45
2, 216093, Note_on_c, 0, 59, 48
2, 216094, Note_on_c, 0, 71, 92
2, 216653, Note_on_c, 0, 71, 0
2, 216675, Note_on_c, 0, 72, 68
2, 216837, Note_on_c, 0, 71, 52
2, 216843, Note_on_c, 0, 72, 0
2, 216942, Note_on_c, 0, 69, 49
2, 216955, Note_on_c, 0, 71, 0
2, 217904, Note_on_c, 0, 69, 0
2, 217918, Note_on_c, 0, 64, 0
2, 217929, Note_on_c, 0, 71, 72
2, 217981, Note_on_c, 0, 60, 0
2, 217992, Note_on_c, 0, 59, 0
2, 218557, Note_on_c, 0, 66, 37
2, 218819, Note_on_c, 0, 50, 48
2, 218985, Note_on_c, 0, 71, 0
2, 219549, Note_on_c, 0, 57, 24
2, 219737, Note_on_c, 0, 66, 0
2, 219779, Note_on_c, 0, 57, 0
2, 219800, Note_on_c, 0, 69, 48
2, 220497, Note_on_c, 0, 57, 37
2, 220734, Note_on_c, 0, 57, 0
2, 220958, Note_on_c, 0, 50, 0
2, 221390, Note_on_c, 0, 69, 0
2, 221427, Note_on_c, 0, 64, 64
2, 221720, Note_on_c, 0, 64, 0
2, 221774, Note_on_c, 0, 49, 36
2, 221800, Note_on_c, 0, 66, 40
2, 222755, Note_on_c, 0, 59, 48
2, 223355, Note_on_c, 0, 55, 37
2, 223689, Note_on_c, 0, 66, 0
2, 223747, Note_on_c, 0, 49, 0
2, 224297, Note_on_c, 0, 59, 0
2, 224361, Note_on_c, 0, 49, 30
2, 224579, Note_on_c, 0, 55, 0
2, 224596, Note_on_c, 0, 49, 0
2, 224691, Note_on_c, 0, 59, 55
2, 224697, Note_on_c, 0, 48, 32
2, 224737, Note_on_c, 0, 60, 46
2, 225433, Note_on_c, 0, 60, 0
2, 225457, Note_on_c, 0, 55, 42
2, 225665, Note_on_c, 0, 63, 85
2, 225717, Note_on_c, 0, 55, 0
2, 226049, Note_on_c, 0, 59, 0
2, 226128, Note_on_c, 0, 63, 0
2, 226227, Note_on_c, 0, 67, 82
2, 226280, Note_on_c, 0, 59, 35
2, 226419, Note_on_c, 0, 67, 0
2, 226584, Note_on_c, 0, 71, 87
2, 226677, Note_on_c, 0, 48, 0
2, 226792, Note_on_c, 0, 59, 0
2, 227049, Note_on_c, 0, 71, 0
2, 227099, Control_c, 0, 64, 127
2, 227227, Note_on_c, 0, 74, 114
2, 227405, Control_c, 0, 64, 0
2, 227552, Note_on_c, 0, 74, 0
2, 227560, Note_on_c, 0, 63, 49
2, 227563, Note_on_c, 0, 67, 43
2, 227565, Note_on_c, 0, 62, 22
2, 227629, Note_on_c, 0, 57, 23
2, 227645, Note_on_c, 0, 71, 81
2, 227870, Note_on_c, 0, 71, 0
2, 227973, Note_on_c, 0, 72, 74
2, 228184, Note_on_c, 0, 72, 0
2, 228267, Note_on_c, 0, 74, 83
2, 228478, Note_on_c, 0, 74, 0
2, 228566, Note_on_c, 0, 63, 0
2, 228589, Note_on_c, 0, 75, 75
2, 228600, Note_on_c, 0, 67, 0
2, 228725, Note_on_c, 0, 75, 0
2, 228872, Note_on_c, 0, 79, 88
2, 229040, Note_on_c, 0, 79, 0
2, 229174, Note_on_c, 0, 82, 87
2, 229198, Note_on_c, 0, 63, 65
2, 229211, Note_on_c, 0, 67, 53
2, 229392, Note_on_c, 0, 67, 0
2, 229433, Note_on_c, 0, 62, 0
2, 229505, Note_on_c, 0, 83, 82
2, 229510, Note_on_c, 0, 82, 0
2, 229529, Note_on_c, 0, 57, 0
2, 229536, Note_on_c, 0, 63, 0
2, 229710, Note_on_c, 0, 83, 0
2, 229801, Note_on_c, 0, 86, 84
2, 230022, Note_on_c, 0, 86, 0
2, 230135, Note_on_c, 0, 88, 90
2, 230315, Note_on_c, 0, 88, 0
2, 230435, Note_on_c, 0, 66, 43
2, 230449, Note_on_c, 0, 62, 55
2, 230464, Note_on_c, 0, 90, 85
2, 230486, Note_on_c, 0, 59, 55
2, 230489, Note_on_c, 0, 55, 30
2, 230798, Note_on_c, 0, 90, 0
2, 230905, Note_on_c, 0, 93, 101
2, 231275, Note_on_c, 0, 93, 0
2, 231288, Note_on_c, 0, 90, 59
2, 231526, Note_on_c, 0, 90, 0
2, 231616, Note_on_c, 0, 91, 97
2, 231918, Note_on_c, 0, 88, 50
2, 231952, Note_on_c, 0, 91, 0
2, 232105, Note_on_c, 0, 88, 0
2, 232185, Note_on_c, 0, 90, 82
2, 232488, Note_on_c, 0, 90, 0
2, 232497, Note_on_c, 0, 88, 66
2, 232749, Note_on_c, 0, 88, 0
2, 232787, Note_on_c, 0, 86, 68
2, 233005, Note_on_c, 0, 86, 0
2, 233062, Note_on_c, 0, 62, 0
2, 233117, Note_on_c, 0, 55, 0
2, 233131, Note_on_c, 0, 83, 57
2, 233145, Note_on_c, 0, 59, 0
2, 233149, Note_on_c, 0, 66, 0
2, 233312, Note_on_c, 0, 83, 0
2, 233525, Note_on_c, 0, 83, 39
2, 234176, Note_on_c, 0, 83, 0
2, 234350, Note_on_c, 0, 79, 49
2, 234401, Note_on_c, 0, 50, 29
2, 234420, Note_on_c, 0, 59, 19
2, 235173, Note_on_c, 0, 79, 0
2, 235483, Note_on_c, 0, 50, 0
2, 235955, Note_on_c, 0, 50, 26
2, 236097, Note_on_c, 0, 59, 0
2, 236104, Note_on_c, 0, 50, 0
2, 236333, Note_on_c, 0, 66, 46
2, 236339, Note_on_c, 0, 59, 41
2, 236344, Note_on_c, 0, 49, 31
2, 236574, Note_on_c, 0, 66, 0
2, 236734, Note_on_c, 0, 66, 39
2, 236967, Note_on_c, 0, 64, 59
2, 237022, Note_on_c, 0, 66, 0
2, 237165, Note_on_c, 0, 64, 0
2, 237305, Note_on_c, 0, 66, 63
2, 237457, Note_on_c, 0, 59, 0
2, 237761, Note_on_c, 0, 66, 0
2, 237854, Note_on_c, 0, 67, 71
2, 237899, Note_on_c, 0, 59, 47
2, 238173, Note_on_c, 0, 67, 0
2, 238198, Note_on_c, 0, 49, 0
2, 238219, Note_on_c, 0, 69, 64
2, 238416, Note_on_c, 0, 59, 0
2, 238797, Note_on_c, 0, 70, 88
2, 238840, Note_on_c, 0, 69, 0
2, 239035, Note_on_c, 0, 63, 38
2, 239049, Note_on_c, 0, 58, 55
2, 239059, Note_on_c, 0, 52, 46
2, 239366, Note_on_c, 0, 70, 0
2, 239435, Note_on_c, 0, 72, 75
2, 239651, Note_on_c, 0, 72, 0
2, 239693, Note_on_c, 0, 73, 70
2, 239894, Note_on_c, 0, 73, 0
2, 239950, Note_on_c, 0, 75, 77
2, 240109, Note_on_c, 0, 75, 0
2, 240118, Note_on_c, 0, 63, 0
2, 240200, Note_on_c, 0, 76, 70
2, 240360, Note_on_c, 0, 76, 0
2, 240438, Note_on_c, 0, 78, 73
2, 240499, Note_on_c, 0, 58, 0
2, 240589, Note_on_c, 0, 78, 0
2, 240681, Note_on_c, 0, 79, 76
2, 240838, Note_on_c, 0, 79, 0
2, 240896, Note_on_c, 0, 80, 71
2, 240968, Note_on_c, 0, 81, 52
2, 241006, Note_on_c, 0, 58, 42
2, 241014, Note_on_c, 0, 63, 27
2, 241048, Note_on_c, 0, 80, 0
2, 241086, Note_on_c, 0, 81, 0
2, 241166, Note_on_c, 0, 82, 75
2, 241304, Note_on_c, 0, 82, 0
2, 241392, Note_on_c, 0, 52, 0
2, 241408, Note_on_c, 0, 84, 72
2, 241427, Note_on_c, 0, 58, 0
2, 241470, Note_on_c, 0, 63, 0
2, 241526, Note_on_c, 0, 84, 0
2, 241605, Note_on_c, 0, 85, 73
2, 241752, Note_on_c, 0, 85, 0
2, 241854, Note_on_c, 0, 87, 81
2, 242091, Note_on_c, 0, 87, 0
2, 242102, Note_on_c, 0, 56, 35
2, 242144, Note_on_c, 0, 86, 78
2, 242155, Note_on_c, 0, 56, 0
2, 242157, Note_on_c, 0, 66, 34
2, 242165, Note_on_c, 0, 62, 68
2, 242192, Note_on_c, 0, 57, 41
2, 242421, Note_on_c, 0, 86, 0
2, 242454, Note_on_c, 0, 81, 64
2, 242526, Note_on_c, 0, 62, 0
2, 242542, Note_on_c, 0, 66, 0
2, 242568, Note_on_c, 0, 81, 0
2, 242617, Note_on_c, 0, 57, 0
2, 243104, Note_on_c, 0, 81, 52
2, 243683, Note_on_c, 0, 66, 54
2, 243699, Note_on_c, 0, 57, 61
2, 243702, Note_on_c, 0, 62, 72
2, 243755, Note_on_c, 0, 62, 0
2, 243782, Note_on_c, 0, 57, 0
2, 243803, Note_on_c, 0, 66, 0
2, 244000, Note_on_c, 0, 83, 58
2, 244077, Note_on_c, 0, 81, 0
2, 244179, Note_on_c, 0, 83, 0
2, 244293, Note_on_c, 0, 84, 70
2, 244438, Note_on_c, 0, 84, 0
2, 244568, Note_on_c, 0, 85, 80
2, 244790, Note_on_c, 0, 85, 0
2, 244849, Note_on_c, 0, 86, 79
2, 245022, Note_on_c, 0, 86, 0
2, 245171, Note_on_c, 0, 56, 27
2, 245173, Note_on_c, 0, 88, 75
2, 245174, Note_on_c, 0, 62, 48
2, 245185, Note_on_c, 0, 67, 25
2, 245187, Note_on_c, 0, 76, 79
2, 245225, Note_on_c, 0, 86, 20
2, 245283, Note_on_c, 0, 86, 0
2, 245473, Note_on_c, 0, 76, 0
2, 245536, Note_on_c, 0, 67, 0
2, 245566, Note_on_c, 0, 88, 0
2, 245582, Note_on_c, 0, 56, 0
2, 245614, Note_on_c, 0, 62, 0
2, 245811, Note_on_c, 0, 89, 92
2, 245827, Note_on_c, 0, 56, 61
2, 245832, Note_on_c, 0, 67, 64
2, 245833, Note_on_c, 0, 77, 79
2, 245841, Note_on_c, 0, 62, 66
2, 246216, Note_on_c, 0, 89, 0
2, 246241, Note_on_c, 0, 67, 0
2, 246254, Note_on_c, 0, 77, 0
2, 246264, Note_on_c, 0, 56, 0
2, 246313, Note_on_c, 0, 62, 0
2, 246432, Note_on_c, 0, 88, 97
2, 246446, Note_on_c, 0, 76, 92
2, 246451, Note_on_c, 0, 56, 65
2, 246454, Note_on_c, 0, 65, 60
2, 246481, Note_on_c, 0, 62, 62
2, 246566, Note_on_c, 0, 76, 0
2, 246657, Note_on_c, 0, 88, 0
2, 246755, Note_on_c, 0, 65, 0
2, 246757, Note_on_c, 0, 76, 57
2, 246997, Note_on_c, 0, 76, 0
2, 247013, Note_on_c, 0, 88, 58
2, 247053, Note_on_c, 0, 62, 0
2, 247217, Note_on_c, 0, 76, 65
2, 247240, Note_on_c, 0, 88, 0
2, 247329, Note_on_c, 0, 76, 0
2, 247365, Note_on_c, 0, 56, 0
2, 247779, Note_on_c, 0, 60, 41
2, 247792, Note_on_c, 0, 59, 26
2, 247811, Note_on_c, 0, 64, 20
2, 247827, Note_on_c, 0, 55, 35
2, 248497, Note_on_c, 0, 86, 103
2, 248507, Note_on_c, 0, 74, 104
2, 248611, Note_on_c, 0, 74, 0
2, 248699, Note_on_c, 0, 86, 0
2, 248833, Note_on_c, 0, 82, 45
2, 248993, Note_on_c, 0, 64, 0
2, 249115, Note_on_c, 0, 60, 0
2, 249134, Note_on_c, 0, 82, 0
2, 249165, Note_on_c, 0, 83, 59
2, 249326, Note_on_c, 0, 83, 0
2, 249397, Note_on_c, 0, 59, 0
2, 249435, Note_on_c, 0, 86, 97
2, 249451, Note_on_c, 0, 74, 91
2, 249472, Note_on_c, 0, 55, 0
2, 249677, Note_on_c, 0, 86, 0
2, 249686, Note_on_c, 0, 64, 33
2, 249720, Note_on_c, 0, 55, 19
2, 249727, Note_on_c, 0, 59, 22
2, 249729, Note_on_c, 0, 60, 35
2, 249792, Note_on_c, 0, 74, 0
2, 249869, Note_on_c, 0, 64, 0
2, 250061, Note_on_c, 0, 60, 0
2, 250096, Note_on_c, 0, 83, 37
2, 250141, Note_on_c, 0, 59, 0
2, 250150, Note_on_c, 0, 55, 0
2, 250245, Note_on_c, 0, 83, 0
2, 250366, Note_on_c, 0, 86, 96
2, 250382, Note_on_c, 0, 74, 90
2, 250572, Note_on_c, 0, 74, 0
2, 250597, Note_on_c, 0, 86, 0
2, 250715, Note_on_c, 0, 60, 34
2, 250718, Note_on_c, 0, 64, 61
2, 250721, Note_on_c, 0, 54, 40
2, 250729, Note_on_c, 0, 85, 84
2, 251158, Note_on_c, 0, 85, 0
2, 251318, Note_on_c, 0, 84, 95
2, 251649, Note_on_c, 0, 84, 0
2, 251761, Note_on_c, 0, 83, 66
2, 251851, Note_on_c, 0, 64, 0
2, 251979, Note_on_c, 0, 60, 0
2, 252100, Note_on_c, 0, 83, 0
2, 252214, Note_on_c, 0, 82, 80
2, 252299, Note_on_c, 0, 64, 30
2, 252321, Note_on_c, 0, 60, 21
2, 252390, Note_on_c, 0, 64, 0
2, 252414, Note_on_c, 0, 60, 0
2, 252564, Note_on_c, 0, 82, 0
2, 252603, Note_on_c, 0, 54, 0
2, 252635, Note_on_c, 0, 81, 56
2, 252941, Note_on_c, 0, 81, 0
2, 253139, Note_on_c, 0, 79, 48
2, 253377, Note_on_c, 0, 79, 0
2, 253523, Note_on_c, 0, 50, 43
2, 253545, Note_on_c, 0, 78, 49
2, 253939, Note_on_c, 0, 78, 0
2, 254110, Note_on_c, 0, 81, 74
2, 254270, Note_on_c, 0, 81, 0
2, 254528, Note_on_c, 0, 78, 77
2, 254729, Note_on_c, 0, 78, 0
2, 255019, Note_on_c, 0, 76, 85
2, 255277, Note_on_c, 0, 76, 0
2, 255377, Note_on_c, 0, 73, 26
2, 255558, Note_on_c, 0, 73, 0
2, 255646, Note_on_c, 0, 69, 51
2, 255838, Note_on_c, 0, 69, 0
2, 256006, Note_on_c, 0, 66, 33
2, 256205, Note_on_c, 0, 50, 0
2, 256209, Note_on_c, 0, 66, 0
2, 256973, Note_on_c, 0, 59, 55
2, 256976, Note_on_c, 0, 50, 39
2, 257336, Note_on_c, 0, 64, 103
2, 257337, Note_on_c, 0, 71, 95
2, 257566, Note_on_c, 0, 71, 0
2, 257614, Note_on_c, 0, 64, 0
2, 257643, Note_on_c, 0, 67, 52
2, 257693, Note_on_c, 0, 60, 75
2, 257801, Note_on_c, 0, 59, 0
2, 257878, Note_on_c, 0, 60, 0
2, 257966, Note_on_c, 0, 67, 0
2, 258237, Note_on_c, 0, 50, 0
2, 258342, Note_on_c, 0, 64, 104
2, 258347, Note_on_c, 0, 71, 92
2, 258369, Note_on_c, 0, 50, 34
2, 258411, Note_on_c, 0, 59, 35
2, 258512, Note_on_c, 0, 59, 0
2, 258552, Note_on_c, 0, 71, 0
2, 258593, Note_on_c, 0, 64, 0
2, 258677, Note_on_c, 0, 67, 47
2, 258694, Note_on_c, 0, 60, 48
2, 258721, Note_on_c, 0, 50, 0
2, 258811, Note_on_c, 0, 60, 0
2, 258877, Note_on_c, 0, 67, 0
2, 259011, Note_on_c, 0, 64, 93
2, 259025, Note_on_c, 0, 71, 85
2, 259053, Note_on_c, 0, 50, 37
2, 259067, Note_on_c, 0, 57, 37
2, 259165, Note_on_c, 0, 57, 0
2, 259227, Note_on_c, 0, 71, 0
2, 259278, Note_on_c, 0, 50, 0
2, 259281, Note_on_c, 0, 64, 0
2, 259341, Note_on_c, 0, 67, 38
2, 259507, Note_on_c, 0, 67, 0
2, 259926, Note_on_c, 0, 69, 87
2, 259931, Note_on_c, 0, 61, 87
2, 259949, Note_on_c, 0, 50, 55
2, 260182, Note_on_c, 0, 69, 0
2, 260227, Note_on_c, 0, 61, 0
2, 260232, Note_on_c, 0, 64, 70
2, 260273, Note_on_c, 0, 57, 48
2, 260369, Note_on_c, 0, 50, 0
2, 260409, Note_on_c, 0, 57, 0
2, 260518, Note_on_c, 0, 64, 0
2, 260617, Note_on_c, 0, 61, 72
2, 260621, Note_on_c, 0, 69, 82
2, 260630, Note_on_c, 0, 50, 53
2, 260814, Note_on_c, 0, 69, 0
2, 260816, Note_on_c, 0, 61, 0
2, 260849, Note_on_c, 0, 50, 0
2, 260942, Note_on_c, 0, 64, 70
2, 260974, Note_on_c, 0, 57, 22
2, 261040, Note_on_c, 0, 57, 0
2, 261136, Note_on_c, 0, 64, 0
2, 261251, Note_on_c, 0, 61, 82
2, 261273, Note_on_c, 0, 69, 77
2, 261274, Note_on_c, 0, 50, 60
2, 261465, Note_on_c, 0, 69, 0
2, 261469, Note_on_c, 0, 50, 0
2, 261481, Note_on_c, 0, 61, 0
2, 261597, Note_on_c, 0, 64, 73
2, 261608, Note_on_c, 0, 57, 37
2, 261680, Note_on_c, 0, 57, 0
2, 261777, Note_on_c, 0, 64, 0
2, 261981, Note_on_c, 0, 71, 91
2, 261990, Note_on_c, 0, 64, 93
2, 262013, Note_on_c, 0, 50, 64
2, 262033, Note_on_c, 0, 59, 40
2, 262144, Note_on_c, 0, 59, 0
2, 262238, Note_on_c, 0, 50, 0
2, 262248, Note_on_c, 0, 71, 0
2, 262273, Note_on_c, 0, 67, 61
2, 262285, Note_on_c, 0, 64, 0
2, 262304, Note_on_c, 0, 60, 55
2, 262417, Note_on_c, 0, 60, 0
2, 262472, Note_on_c, 0, 67, 0
2, 262553, Note_on_c, 0, 64, 89
2, 262560, Note_on_c, 0, 71, 80
2, 262574, Note_on_c, 0, 59, 58
2, 262577, Note_on_c, 0, 50, 40
2, 263133, Note_on_c, 0, 59, 0
2, 263163, Note_on_c, 0, 64, 0
2, 263243, Note_on_c, 0, 71, 0
2, 263251, Note_on_c, 0, 67, 63
2, 263278, Note_on_c, 0, 60, 61
2, 263321, Note_on_c, 0, 59, 27
2, 263334, Note_on_c, 0, 64, 26
2, 263395, Note_on_c, 0, 64, 0
2, 264400, Note_on_c, 0, 60, 0
2, 264454, Note_on_c, 0, 50, 0
2, 264670, Note_on_c, 0, 67, 0
2, 264709, Note_on_c, 0, 50, 45
2, 264744, Note_on_c, 0, 60, 59
2, 264745, Note_on_c, 0, 64, 22
2, 264813, Note_on_c, 0, 64, 0
2, 264851, Note_on_c, 0, 59, 0
2, 264904, Note_on_c, 0, 60, 0
2, 264971, Note_on_c, 0, 50, 0
2, 265074, Note_on_c, 0, 61, 73
2, 265088, Note_on_c, 0, 69, 61
2, 265125, Note_on_c, 0, 50, 48
2, 265624, Note_on_c, 0, 69, 0
2, 265688, Note_on_c, 0, 64, 73
2, 265703, Note_on_c, 0, 59, 46
2, 265841, Note_on_c, 0, 59, 0
2, 265936, Note_on_c, 0, 61, 0
2, 266032, Note_on_c, 0, 61, 12
2, 266049, Note_on_c, 0, 57, 62
2, 266731, Note_on_c, 0, 57, 0
2, 266816, Note_on_c, 0, 61, 0
2, 266947, Note_on_c, 0, 61, 45
2, 266977, Note_on_c, 0, 57, 59
2, 267054, Note_on_c, 0, 50, 0
2, 267341, Note_on_c, 0, 57, 0
2, 267544, Note_on_c, 0, 64, 0
2, 267574, Note_on_c, 0, 50, 20
2, 267669, Note_on_c, 0, 50, 0
2, 267803, Note_on_c, 0, 61, 0
2, 267881, Note_on_c, 0, 59, 30
2, 267886, Note_on_c, 0, 49, 53
2, 267896, Note_on_c, 0, 64, 55
2, 269397, Note_on_c, 0, 59, 0
2, 269424, Note_on_c, 0, 55, 36
2, 269710, Note_on_c, 0, 64, 0
2, 270256, Note_on_c, 0, 49, 0
2, 270432, Note_on_c, 0, 49, 56
2, 270664, Note_on_c, 0, 55, 0
2, 270680, Note_on_c, 0, 49, 0
2, 270772, Note_on_c, 0, 48, 35
2, 271697, Note_on_c, 0, 57, 24
2, 271707, Note_on_c, 0, 62, 97
2, 271712, Note_on_c, 0, 66, 70
2, 271782, Note_on_c, 0, 57, 0
2, 272261, Note_on_c, 0, 62, 0
2, 272339, Note_on_c, 0, 57, 28
2, 272389, Note_on_c, 0, 66, 0
2, 272464, Note_on_c, 0, 57, 0
2, 272683, Note_on_c, 0, 62, 46
2, 272789, Control_c, 0, 64, 127
2, 272907, Note_on_c, 0, 62, 0
2, 272976, Note_on_c, 0, 66, 62
2, 273099, Note_on_c, 0, 66, 0
2, 273141, Control_c, 0, 64, 0
2, 273206, Control_c, 0, 64, 127
2, 273261, Note_on_c, 0, 69, 87
2, 273289, Note_on_c, 0, 48, 0
2, 273446, Note_on_c, 0, 69, 0
2, 273598, Note_on_c, 0, 74, 96
2, 273606, Control_c, 0, 64, 0
2, 273632, Note_on_c, 0, 46, 70
2, 273841, Note_on_c, 0, 46, 0
2, 273843, Note_on_c, 0, 74, 0
2, 273878, Control_c, 0, 64, 127
2, 273912, Note_on_c, 0, 78, 73
2, 274113, Note_on_c, 0, 78, 0
2, 274246, Note_on_c, 0, 72, 93
2, 274256, Note_on_c, 0, 79, 88
2, 274273, Note_on_c, 0, 62, 74
2, 274278, Note_on_c, 0, 56, 51
2, 274296, Control_c, 0, 64, 0
2, 274553, Control_c, 0, 64, 127
2, 275021, Note_on_c, 0, 62, 0
2, 275286, Note_on_c, 0, 56, 0
2, 275584, Note_on_c, 0, 56, 32
2, 275593, Note_on_c, 0, 62, 37
2, 275656, Note_on_c, 0, 62, 0
2, 275741, Note_on_c, 0, 56, 0
2, 276049, Note_on_c, 0, 79, 0
2, 276078, Note_on_c, 0, 72, 0
2, 276189, Note_on_c, 0, 67, 33
2, 276192, Note_on_c, 0, 76, 43
2, 276323, Note_on_c, 0, 76, 0
2, 276414, Note_on_c, 0, 67, 0
2, 276477, Control_c, 0, 64, 0
2, 276517, Note_on_c, 0, 66, 31
2, 276521, Note_on_c, 0, 59, 52
2, 276529, Note_on_c, 0, 62, 47
2, 276542, Note_on_c, 0, 67, 37
2, 276555, Note_on_c, 0, 55, 24
2, 276560, Note_on_c, 0, 78, 54
2, 276830, Control_c, 0, 64, 127
2, 276909, Note_on_c, 0, 67, 0
2, 277038, Note_on_c, 0, 78, 0
2, 277057, Note_on_c, 0, 55, 0
2, 277062, Note_on_c, 0, 62, 0
2, 277065, Note_on_c, 0, 59, 0
2, 277144, Note_on_c, 0, 66, 0
2, 277464, Note_on_c, 0, 66, 67
2, 277467, Note_on_c, 0, 90, 77
2, 277472, Control_c, 0, 64, 0
2, 277475, Note_on_c, 0, 78, 78
2, 277476, Note_on_c, 0, 62, 74
2, 277483, Note_on_c, 0, 55, 70
2, 277499, Note_on_c, 0, 59, 70
2, 277504, Control_c, 0, 64, 127
2, 277798, Note_on_c, 0, 55, 0
2, 277845, Note_on_c, 0, 66, 0
2, 277851, Note_on_c, 0, 78, 0
2, 277867, Note_on_c, 0, 59, 0
2, 277873, Note_on_c, 0, 62, 0
2, 277881, Note_on_c, 0, 90, 0
2, 278073, Note_on_c, 0, 62, 84
2, 278077, Note_on_c, 0, 66, 85
2, 278081, Note_on_c, 0, 91, 95
2, 278085, Note_on_c, 0, 79, 96
2, 278089, Note_on_c, 0, 55, 80
2, 278095, Note_on_c, 0, 90, 77
2, 278097, Note_on_c, 0, 59, 82
2, 278147, Note_on_c, 0, 90, 0
2, 278433, Note_on_c, 0, 79, 0
2, 278435, Note_on_c, 0, 55, 0
2, 278454, Note_on_c, 0, 66, 0
2, 278459, Note_on_c, 0, 59, 0
2, 278475, Note_on_c, 0, 91, 0
2, 278477, Note_on_c, 0, 62, 0
2, 278707, Control_c, 0, 64, 0
2, 278713, Note_on_c, 0, 62, 85
2, 278715, Note_on_c, 0, 66, 77
2, 278729, Note_on_c, 0, 93, 100
2, 278731, Note_on_c, 0, 55, 74
2, 278734, Note_on_c, 0, 81, 97
2, 278737, Note_on_c, 0, 59, 75
2, 278851, Control_c, 0, 64, 127
2, 279009, Note_on_c, 0, 62, 0
2, 279051, Note_on_c, 0, 81, 0
2, 279096, Note_on_c, 0, 93, 0
2, 279102, Note_on_c, 0, 59, 0
2, 279107, Note_on_c, 0, 55, 0
2, 279131, Note_on_c, 0, 66, 0
2, 279349, Control_c, 0, 64, 0
2, 279405, Note_on_c, 0, 66, 67
2, 279406, Note_on_c, 0, 61, 73
2, 279416, Note_on_c, 0, 95, 82
2, 279421, Note_on_c, 0, 83, 70
2, 279424, Note_on_c, 0, 88, 68
2, 279425, Note_on_c, 0, 55, 70
2, 280171, Note_on_c, 0, 95, 0
2, 280197, Note_on_c, 0, 55, 0
2, 280198, Note_on_c, 0, 83, 0
2, 280222, Note_on_c, 0, 66, 0
2, 280241, Note_on_c, 0, 88, 0
2, 280259, Note_on_c, 0, 61, 0
2, 280351, Note_on_c, 0, 66, 43
2, 280390, Note_on_c, 0, 61, 59
2, 280406, Note_on_c, 0, 81, 28
2, 280411, Control_c, 0, 64, 127
2, 280412, Note_on_c, 0, 93, 34
2, 280473, Note_on_c, 0, 81, 0
2, 280483, Note_on_c, 0, 66, 0
2, 280504, Note_on_c, 0, 93, 0
2, 280515, Note_on_c, 0, 61, 0
2, 280584, Control_c, 0, 64, 0
2, 281037, Note_on_c, 0, 91, 31
2, 281043, Note_on_c, 0, 66, 65
2, 281045, Note_on_c, 0, 61, 69
2, 281051, Note_on_c, 0, 86, 43
2, 281097, Note_on_c, 0, 79, 15
2, 281201, Note_on_c, 0, 79, 0
2, 281217, Note_on_c, 0, 86, 0
2, 281227, Note_on_c, 0, 91, 0
2, 281243, Note_on_c, 0, 61, 0
2, 281248, Note_on_c, 0, 66, 0
2, 281321, Control_c, 0, 64, 127
2, 281707, Control_c, 0, 64, 0
2, 281805, Note_on_c, 0, 88, 32
2, 281812, Note_on_c, 0, 61, 69
2, 281814, Note_on_c, 0, 66, 70
2, 281821, Note_on_c, 0, 76, 40
2, 281867, Note_on_c, 0, 55, 41
2, 281899, Control_c, 0, 64, 127
2, 282003, Note_on_c, 0, 76, 0
2, 282048, Note_on_c, 0, 88, 0
2, 282155, Note_on_c, 0, 55, 0
2, 282209, Note_on_c, 0, 66, 0
2, 282277, Note_on_c, 0, 61, 0
2, 282333, Control_c, 0, 64, 0
2, 282366, Note_on_c, 0, 66, 69
2, 282382, Note_on_c, 0, 78, 77
2, 282385, Note_on_c, 0, 90, 77
2, 282387, Note_on_c, 0, 55, 68
2, 282390, Note_on_c, 0, 62, 79
2, 282414, Note_on_c, 0, 59, 65
2, 283078, Note_on_c, 0, 66, 0
2, 283120, Note_on_c, 0, 59, 0
2, 283123, Note_on_c, 0, 62, 0
2, 283136, Note_on_c, 0, 78, 0
2, 283152, Note_on_c, 0, 90, 0
2, 283198, Control_c, 0, 64, 127
2, 283199, Note_on_c, 0, 66, 42
2, 283230, Note_on_c, 0, 62, 31
2, 283250, Note_on_c, 0, 91, 55
2, 283253, Note_on_c, 0, 79, 55
2, 283285, Note_on_c, 0, 59, 37
2, 283504, Note_on_c, 0, 79, 0
2, 283510, Note_on_c, 0, 55, 0
2, 283517, Note_on_c, 0, 59, 0
2, 283569, Note_on_c, 0, 91, 0
2, 283571, Note_on_c, 0, 66, 0
2, 283584, Note_on_c, 0, 62, 0
2, 283840, Control_c, 0, 64, 0
2, 283851, Note_on_c, 0, 93, 78
2, 283862, Note_on_c, 0, 62, 62
2, 283873, Note_on_c, 0, 66, 30
2, 283880, Note_on_c, 0, 81, 46
2, 283904, Note_on_c, 0, 93, 0
2, 283909, Note_on_c, 0, 59, 39
2, 283945, Note_on_c, 0, 66, 0
2, 283947, Note_on_c, 0, 81, 0
2, 283993, Note_on_c, 0, 62, 0
2, 283997, Note_on_c, 0, 59, 0
2, 284529, Control_c, 0, 64, 127
2, 284566, Note_on_c, 0, 62, 44
2, 284568, Note_on_c, 0, 91, 46
2, 284574, Note_on_c, 0, 66, 27
2, 284582, Note_on_c, 0, 79, 46
2, 284587, Note_on_c, 0, 59, 57
2, 284742, Note_on_c, 0, 91, 0
2, 284761, Note_on_c, 0, 62, 0
2, 284797, Note_on_c, 0, 79, 0
2, 284856, Note_on_c, 0, 59, 0
2, 284861, Note_on_c, 0, 66, 0
2, 285091, Control_c, 0, 64, 0
2, 285181, Note_on_c, 0, 66, 53
2, 285185, Note_on_c, 0, 61, 61
2, 285187, Note_on_c, 0, 90, 59
2, 285205, Note_on_c, 0, 78, 43
2, 285208, Note_on_c, 0, 55, 51
2, 285365, Control_c, 0, 64, 127
2, 285934, Note_on_c, 0, 90, 0
2, 285981, Note_on_c, 0, 78, 0
2, 286013, Note_on_c, 0, 66, 0
2, 286030, Note_on_c, 0, 55, 0
2, 286230, Note_on_c, 0, 61, 0
2, 286749, Note_on_c, 0, 66, 49
2, 286753, Note_on_c, 0, 61, 50
2, 286760, Control_c, 0, 64, 0
2, 286774, Note_on_c, 0, 88, 60
2, 286793, Note_on_c, 0, 55, 34
2, 286803, Note_on_c, 0, 76, 43
2, 286921, Note_on_c, 0, 76, 0
2, 287000, Control_c, 0, 64, 127
2, 287117, Note_on_c, 0, 88, 0
2, 287648, Note_on_c, 0, 66, 0
2, 287864, Note_on_c, 0, 55, 0
2, 288045, Note_on_c, 0, 61, 0
2, 288059, Control_c, 0, 64, 0
2, 288102, Note_on_c, 0, 64, 62
2, 288113, Note_on_c, 0, 60, 60
2, 288118, Note_on_c, 0, 98, 98
2, 288128, Note_on_c, 0, 55, 29
2, 288129, Note_on_c, 0, 59, 52
2, 288387, Note_on_c, 0, 98, 0
2, 288456, Note_on_c, 0, 95, 64
2, 288542, Note_on_c, 0, 95, 0
2, 288705, Note_on_c, 0, 96, 91
2, 288931, Note_on_c, 0, 96, 0
2, 288998, Note_on_c, 0, 92, 52
2, 289110, Note_on_c, 0, 92, 0
2, 289231, Note_on_c, 0, 95, 91
2, 289489, Note_on_c, 0, 94, 83
2, 289539, Note_on_c, 0, 95, 0
2, 289661, Note_on_c, 0, 94, 0
2, 289701, Note_on_c, 0, 64, 0
2, 289734, Note_on_c, 0, 93, 73
2, 289899, Note_on_c, 0, 93, 0
2, 289963, Note_on_c, 0, 59, 0
2, 289977, Note_on_c, 0, 88, 66
2, 290001, Note_on_c, 0, 55, 0
2, 290102, Note_on_c, 0, 88, 0
2, 290165, Note_on_c, 0, 60, 0
2, 290203, Note_on_c, 0, 86, 54
2, 290379, Note_on_c, 0, 86, 0
2, 290478, Note_on_c, 0, 84, 30
2, 290561, Note_on_c, 0, 84, 0
2, 290646, Note_on_c, 0, 83, 32
2, 290801, Note_on_c, 0, 83, 0
2, 290918, Note_on_c, 0, 86, 66
2, 291121, Note_on_c, 0, 84, 59
2, 291185, Note_on_c, 0, 86, 0
2, 291293, Note_on_c, 0, 84, 0
2, 291451, Note_on_c, 0, 76, 40
2, 291515, Note_on_c, 0, 76, 0
2, 291918, Note_on_c, 0, 76, 74
2, 292494, Note_on_c, 0, 76, 0
2, 292889, Note_on_c, 0, 64, 36
2, 292891, Note_on_c, 0, 76, 59
2, 292899, Note_on_c, 0, 60, 35
2, 293131, Note_on_c, 0, 64, 0
2, 293142, Note_on_c, 0, 60, 0
2, 293181, Note_on_c, 0, 76, 0
2, 293573, Note_on_c, 0, 79, 101
2, 293576, Note_on_c, 0, 74, 125
2, 293656, Note_on_c, 0, 63, 60
2, 293663, Note_on_c, 0, 60, 54
2, 293773, Note_on_c, 0, 57, 19
2, 294041, Note_on_c, 0, 74, 0
2, 294117, Note_on_c, 0, 75, 52
2, 294214, Note_on_c, 0, 55, 1
2, 294270, Note_on_c, 0, 74, 57
2, 294302, Note_on_c, 0, 79, 0
2, 294365, Note_on_c, 0, 75, 0
2, 294459, Note_on_c, 0, 74, 0
2, 294483, Note_on_c, 0, 72, 54
2, 294630, Note_on_c, 0, 72, 0
2, 294757, Note_on_c, 0, 69, 43
2, 295291, Note_on_c, 0, 63, 0
2, 295377, Note_on_c, 0, 69, 0
2, 295441, Note_on_c, 0, 67, 32
2, 295521, Note_on_c, 0, 67, 0
2, 295679, Note_on_c, 0, 63, 30
2, 295721, Note_on_c, 0, 74, 75
2, 296118, Note_on_c, 0, 60, 0
2, 296161, Note_on_c, 0, 55, 0
2, 296214, Note_on_c, 0, 63, 0
2, 296253, Note_on_c, 0, 74, 0
2, 296270, Note_on_c, 0, 57, 0
2, 296323, Note_on_c, 0, 73, 59
2, 296571, Note_on_c, 0, 73, 0
2, 296640, Note_on_c, 0, 60, 21
2, 296648, Note_on_c, 0, 63, 31
2, 296649, Note_on_c, 0, 54, 29
2, 296665, Note_on_c, 0, 72, 55
2, 296814, Note_on_c, 0, 63, 0
2, 296856, Note_on_c, 0, 60, 0
2, 296945, Note_on_c, 0, 54, 0
2, 297147, Note_on_c, 0, 72, 0
2, 297265, Note_on_c, 0, 69, 59
2, 297520, Note_on_c, 0, 69, 0
2, 297670, Note_on_c, 0, 67, 18
2, 298070, Note_on_c, 0, 67, 0
2, 298217, Note_on_c, 0, 66, 45
2, 298265, Note_on_c, 0, 54, 29
2, 298281, Note_on_c, 0, 60, 29
2, 298347, Note_on_c, 0, 60, 0
2, 298525, Note_on_c, 0, 66, 0
2, 298530, Note_on_c, 0, 54, 0
2, 298598, Note_on_c, 0, 63, 59
2, 298928, Note_on_c, 0, 63, 0
2, 299194, Note_on_c, 0, 74, 125
2, 299620, Note_on_c, 0, 73, 73
2, 299676, Note_on_c, 0, 74, 0
2, 300596, Control_c, 0, 64, 127
2, 301210, Note_on_c, 0, 50, 30
2, 302009, Note_on_c, 0, 73, 0
2, 302116, Note_on_c, 0, 74, 109
2, 302556, Note_on_c, 0, 74, 0
2, 302604, Control_c, 0, 64, 0
2, 302610, Note_on_c, 0, 71, 75
2, 302731, Note_on_c, 0, 50, 0
2, 302749, Control_c, 0, 64, 127
2, 303343, Note_on_c, 0, 64, 63
2, 303344, Note_on_c, 0, 59, 32
2, 303353, Note_on_c, 0, 60, 59
2, 303740, Note_on_c, 0, 60, 0
2, 303743, Note_on_c, 0, 64, 0
2, 303749, Note_on_c, 0, 59, 0
2, 304064, Note_on_c, 0, 64, 61
2, 304074, Note_on_c, 0, 60, 62
2, 304084, Note_on_c, 0, 59, 48
2, 304316, Note_on_c, 0, 60, 0
2, 304328, Note_on_c, 0, 59, 0
2, 304385, Note_on_c, 0, 64, 0
2, 304807, Note_on_c, 0, 64, 64
2, 304826, Note_on_c, 0, 60, 53
2, 304829, Note_on_c, 0, 59, 44
2, 304880, Note_on_c, 0, 60, 0
2, 304891, Note_on_c, 0, 59, 0
2, 304902, Note_on_c, 0, 64, 0
2, 305168, Note_on_c, 0, 74, 77
2, 305209, Note_on_c, 0, 71, 0
2, 305422, Note_on_c, 0, 73, 77
2, 305425, Note_on_c, 0, 74, 0
2, 305469, Note_on_c, 0, 50, 42
2, 305478, Control_c, 0, 64, 0
2, 305497, Note_on_c, 0, 57, 44
2, 305912, Control_c, 0, 64, 127
2, 306192, Note_on_c, 0, 61, 37
2, 306846, Note_on_c, 0, 64, 48
2, 307627, Note_on_c, 0, 64, 0
2, 307680, Note_on_c, 0, 73, 0
2, 307712, Note_on_c, 0, 69, 68
2, 307820, Note_on_c, 0, 61, 0
2, 307867, Note_on_c, 0, 69, 0
2, 307958, Note_on_c, 0, 74, 93
2, 307959, Note_on_c, 0, 57, 0
2, 307995, Note_on_c, 0, 50, 0
2, 308172, Note_on_c, 0, 74, 0
2, 308269, Note_on_c, 0, 76, 114
2, 308280, Control_c, 0, 64, 0
2, 308338, Note_on_c, 0, 50, 49
2, 308756, Control_c, 0, 64, 127
2, 309455, Note_on_c, 0, 50, 0
2, 310067, Note_on_c, 0, 64, 46
2, 310080, Note_on_c, 0, 59, 31
2, 310085, Note_on_c, 0, 60, 36
2, 310574, Note_on_c, 0, 76, 0
2, 310685, Note_on_c, 0, 74, 98
2, 310687, Note_on_c, 0, 64, 0
2, 310697, Note_on_c, 0, 59, 0
2, 310698, Note_on_c, 0, 60, 0
2, 311104, Note_on_c, 0, 74, 0
2, 311150, Note_on_c, 0, 50, 35
2, 311168, Control_c, 0, 64, 0
2, 311172, Note_on_c, 0, 73, 70
2, 311192, Note_on_c, 0, 57, 52
2, 311788, Control_c, 0, 64, 127
2, 311971, Note_on_c, 0, 62, 42
2, 312808, Note_on_c, 0, 62, 0
2, 312852, Note_on_c, 0, 57, 0
2, 312927, Note_on_c, 0, 50, 0
2, 312991, Note_on_c, 0, 73, 0
2, 313480, Note_on_c, 0, 74, 92
2, 313685, Note_on_c, 0, 74, 0
2, 313940, Note_on_c, 0, 76, 82
2, 313983, Control_c, 0, 64, 0
2, 313990, Note_on_c, 0, 71, 74
2, 314001, Note_on_c, 0, 49, 33
2, 314033, Note_on_c, 0, 65, 50
2, 314046, Note_on_c, 0, 59, 28
2, 314314, Control_c, 0, 64, 127
2, 314685, Note_on_c, 0, 76, 0
2, 314801, Note_on_c, 0, 71, 0
2, 314858, Note_on_c, 0, 65, 0
2, 314901, Note_on_c, 0, 74, 90
2, 315454, Note_on_c, 0, 74, 0
2, 315859, Note_on_c, 0, 59, 0
2, 316040, Note_on_c, 0, 49, 0
2, 316330, Note_on_c, 0, 71, 79
2, 316395, Note_on_c, 0, 49, 43
2, 316461, Note_on_c, 0, 71, 0
2, 316706, Note_on_c, 0, 49, 0
2, 316841, Note_on_c, 0, 66, 84
2, 316884, Control_c, 0, 64, 0
2, 316890, Note_on_c, 0, 48, 48
2, 316928, Note_on_c, 0, 62, 43
2, 316992, Note_on_c, 0, 57, 23
2, 317303, Control_c, 0, 64, 127
2, 317635, Note_on_c, 0, 57, 0
2, 317656, Note_on_c, 0, 62, 0
2, 317875, Note_on_c, 0, 62, 50
2, 317901, Note_on_c, 0, 57, 43
2, 317934, Note_on_c, 0, 55, 16
2, 318785, Note_on_c, 0, 57, 0
2, 318818, Note_on_c, 0, 55, 0
2, 318859, Note_on_c, 0, 66, 0
2, 319040, Note_on_c, 0, 48, 0
2, 319224, Note_on_c, 0, 62, 0
2, 319282, Note_on_c, 0, 67, 77
2, 319651, Note_on_c, 0, 67, 0
2, 319714, Control_c, 0, 64, 0
2, 319756, Note_on_c, 0, 60, 52
2, 319777, Note_on_c, 0, 46, 27
2, 319779, Note_on_c, 0, 64, 63
2, 319953, Note_on_c, 0, 60, 0
2, 319959, Control_c, 0, 64, 127
2, 320018, Note_on_c, 0, 64, 0
2, 320643, Note_on_c, 0, 76, 118
2, 320957, Note_on_c, 0, 72, 73
2, 320972, Note_on_c, 0, 76, 0
2, 321148, Note_on_c, 0, 72, 0
2, 321266, Note_on_c, 0, 67, 43
2, 321392, Note_on_c, 0, 67, 0
2, 321592, Note_on_c, 0, 64, 27
2, 321811, Note_on_c, 0, 64, 0
2, 321926, Note_on_c, 0, 60, 29
2, 322077, Note_on_c, 0, 60, 0
2, 322254, Note_on_c, 0, 46, 0
2, 322267, Note_on_c, 0, 67, 72
2, 322603, Note_on_c, 0, 67, 0
2, 322644, Note_on_c, 0, 66, 56
2, 322688, Control_c, 0, 64, 0
2, 323063, Control_c, 0, 64, 127
2, 323223, Note_on_c, 0, 40, 42
2, 323294, Note_on_c, 0, 66, 0
2, 323331, Note_on_c, 0, 40, 0
2, 323661, Note_on_c, 0, 67, 55
2, 323837, Note_on_c, 0, 67, 0
2, 324181, Note_on_c, 0, 70, 86
2, 324210, Note_on_c, 0, 71, 106
2, 324490, Note_on_c, 0, 70, 0
2, 324524, Note_on_c, 0, 71, 0
2, 324567, Note_on_c, 0, 74, 83
2, 324580, Note_on_c, 0, 66, 69
2, 324585, Note_on_c, 0, 71, 39
2, 324702, Note_on_c, 0, 66, 0
2, 324863, Note_on_c, 0, 71, 0
2, 325030, Note_on_c, 0, 74, 0
2, 325095, Note_on_c, 0, 78, 91
2, 325389, Note_on_c, 0, 78, 0
2, 325491, Note_on_c, 0, 76, 75
2, 325517, Control_c, 0, 64, 0
2, 325864, Control_c, 0, 64, 127
2, 326240, Control_c, 0, 64, 0
2, 326334, Note_on_c, 0, 66, 46
2, 326345, Note_on_c, 0, 62, 55
2, 326361, Note_on_c, 0, 55, 36
2, 326384, Note_on_c, 0, 59, 61
2, 326557, Note_on_c, 0, 66, 0
2, 326563, Note_on_c, 0, 59, 0
2, 326564, Note_on_c, 0, 55, 0
2, 326571, Note_on_c, 0, 62, 0
2, 327031, Note_on_c, 0, 66, 50
2, 327048, Note_on_c, 0, 55, 43
2, 327051, Note_on_c, 0, 62, 55
2, 327074, Note_on_c, 0, 59, 60
2, 327321, Note_on_c, 0, 59, 0
2, 327329, Note_on_c, 0, 55, 0
2, 327334, Note_on_c, 0, 62, 0
2, 327365, Note_on_c, 0, 66, 0
2, 327496, Control_c, 0, 64, 127
2, 327706, Note_on_c, 0, 66, 45
2, 327723, Note_on_c, 0, 62, 56
2, 327731, Note_on_c, 0, 55, 34
2, 327736, Note_on_c, 0, 59, 62
2, 327928, Note_on_c, 0, 62, 0
2, 328003, Note_on_c, 0, 59, 0
2, 328017, Note_on_c, 0, 55, 0
2, 328040, Note_on_c, 0, 66, 0
2, 328348, Control_c, 0, 64, 0
2, 328370, Note_on_c, 0, 66, 49
2, 328393, Note_on_c, 0, 62, 65
2, 328394, Note_on_c, 0, 59, 69
2, 328407, Note_on_c, 0, 55, 40
2, 328793, Note_on_c, 0, 76, 0
2, 328852, Control_c, 0, 64, 127
2, 329113, Note_on_c, 0, 55, 0
2, 329168, Note_on_c, 0, 66, 0
2, 329178, Note_on_c, 0, 59, 0
2, 329179, Note_on_c, 0, 62, 0
2, 329326, Note_on_c, 0, 90, 98
2, 329327, Note_on_c, 0, 66, 99
2, 329332, Note_on_c, 0, 62, 87
2, 329333, Note_on_c, 0, 78, 104
2, 329339, Note_on_c, 0, 55, 95
2, 329358, Note_on_c, 0, 59, 82
2, 329517, Note_on_c, 0, 55, 0
2, 329530, Note_on_c, 0, 66, 0
2, 329542, Note_on_c, 0, 78, 0
2, 329581, Note_on_c, 0, 90, 0
2, 329588, Note_on_c, 0, 59, 0
2, 329611, Note_on_c, 0, 66, 79
2, 329633, Note_on_c, 0, 91, 79
2, 329638, Note_on_c, 0, 79, 79
2, 329640, Note_on_c, 0, 55, 80
2, 329651, Note_on_c, 0, 59, 28
2, 329679, Note_on_c, 0, 89, 50
2, 329699, Note_on_c, 0, 81, 22
2, 329749, Note_on_c, 0, 81, 0
2, 329752, Note_on_c, 0, 89, 0
2, 329764, Note_on_c, 0, 55, 0
2, 329765, Note_on_c, 0, 79, 0
2, 329780, Note_on_c, 0, 91, 0
2, 329790, Note_on_c, 0, 66, 0
2, 329836, Note_on_c, 0, 62, 0
2, 329837, Note_on_c, 0, 59, 0
2, 329928, Note_on_c, 0, 66, 103
2, 329935, Note_on_c, 0, 55, 106
2, 329939, Note_on_c, 0, 93, 107
2, 329945, Note_on_c, 0, 62, 104
2, 329947, Note_on_c, 0, 59, 82
2, 329948, Note_on_c, 0, 81, 104
2, 329967, Control_c, 0, 64, 0
2, 330127, Control_c, 0, 64, 127
2, 330461, Note_on_c, 0, 93, 0
2, 330473, Note_on_c, 0, 81, 0
2, 330492, Note_on_c, 0, 55, 0
2, 330500, Note_on_c, 0, 59, 0
2, 330511, Note_on_c, 0, 66, 0
2, 330520, Note_on_c, 0, 62, 0
2, 330600, Note_on_c, 0, 91, 66
2, 330615, Note_on_c, 0, 66, 76
2, 330619, Note_on_c, 0, 55, 70
2, 330631, Note_on_c, 0, 59, 69
2, 330632, Note_on_c, 0, 62, 78
2, 330633, Note_on_c, 0, 79, 82
2, 330923, Note_on_c, 0, 62, 0
2, 330980, Note_on_c, 0, 79, 0
2, 330995, Note_on_c, 0, 55, 0
2, 331014, Note_on_c, 0, 59, 0
2, 331047, Note_on_c, 0, 66, 0
2, 331060, Note_on_c, 0, 91, 0
2, 331209, Control_c, 0, 64, 0
2, 331235, Note_on_c, 0, 66, 76
2, 331243, Note_on_c, 0, 61, 78
2, 331248, Note_on_c, 0, 93, 88
2, 331254, Note_on_c, 0, 55, 78
2, 331261, Note_on_c, 0, 81, 70
2, 331497, Control_c, 0, 64, 127
2, 331872, Note_on_c, 0, 55, 0
2, 331880, Note_on_c, 0, 61, 0
2, 331882, Note_on_c, 0, 81, 0
2, 331922, Note_on_c, 0, 66, 0
2, 331931, Note_on_c, 0, 93, 0
2, 332229, Note_on_c, 0, 66, 57
2, 332235, Control_c, 0, 64, 0
2, 332236, Note_on_c, 0, 61, 61
2, 332238, Note_on_c, 0, 95, 72
2, 332243, Note_on_c, 0, 83, 59
2, 332256, Note_on_c, 0, 55, 54
2, 332494, Control_c, 0, 64, 127
2, 332818, Note_on_c, 0, 95, 0
2, 332935, Note_on_c, 0, 83, 0
2, 332972, Note_on_c, 0, 55, 0
2, 333030, Note_on_c, 0, 66, 0
2, 333346, Note_on_c, 0, 61, 0
2, 333685, Note_on_c, 0, 61, 68
2, 333704, Note_on_c, 0, 66, 45
2, 333705, Note_on_c, 0, 55, 62
2, 333715, Note_on_c, 0, 91, 48
2, 333729, Note_on_c, 0, 79, 59
2, 333770, Note_on_c, 0, 91, 0
2, 333801, Note_on_c, 0, 79, 0
2, 333848, Note_on_c, 0, 66, 0
2, 333884, Note_on_c, 0, 55, 0
2, 334033, Note_on_c, 0, 61, 0
2, 334123, Note_on_c, 0, 87, 59
2, 334154, Control_c, 0, 64, 0
2, 334158, Note_on_c, 0, 75, 67
2, 334192, Note_on_c, 0, 64, 57
2, 334212, Note_on_c, 0, 55, 35
2, 334222, Note_on_c, 0, 59, 37
2, 334223, Note_on_c, 0, 60, 43
2, 334321, Note_on_c, 0, 75, 0
2, 334352, Note_on_c, 0, 87, 0
2, 334369, Note_on_c, 0, 76, 50
2, 334494, Note_on_c, 0, 88, 13
2, 334674, Control_c, 0, 64, 127
2, 335388, Note_on_c, 0, 60, 0
2, 335444, Note_on_c, 0, 59, 0
2, 335573, Note_on_c, 0, 76, 0
2, 335747, Note_on_c, 0, 64, 0
2, 335995, Note_on_c, 0, 88, 0
2, 336101, Note_on_c, 0, 64, 37
2, 336153, Note_on_c, 0, 60, 22
2, 336156, Note_on_c, 0, 59, 23
2, 336248, Control_c, 0, 64, 0
2, 336425, Note_on_c, 0, 83, 60
2, 336592, Note_on_c, 0, 83, 0
2, 336673, Note_on_c, 0, 86, 96
2, 336897, Note_on_c, 0, 85, 73
2, 336967, Note_on_c, 0, 64, 0
2, 336968, Note_on_c, 0, 86, 0
2, 336976, Note_on_c, 0, 60, 0
2, 337001, Note_on_c, 0, 59, 0
2, 337037, Note_on_c, 0, 85, 0
2, 337098, Note_on_c, 0, 55, 0
2, 337128, Note_on_c, 0, 84, 72
2, 337138, Note_on_c, 0, 64, 50
2, 337174, Note_on_c, 0, 60, 24
2, 337265, Note_on_c, 0, 60, 0
2, 337279, Note_on_c, 0, 84, 0
2, 337291, Note_on_c, 0, 64, 0
2, 337725, Note_on_c, 0, 83, 85
2, 337953, Note_on_c, 0, 83, 0
2, 338029, Note_on_c, 0, 64, 37
2, 338062, Note_on_c, 0, 81, 79
2, 338072, Note_on_c, 0, 60, 19
2, 338091, Note_on_c, 0, 59, 40
2, 338327, Control_c, 0, 64, 127
2, 338788, Control_c, 0, 64, 0
2, 338919, Control_c, 0, 64, 127
2, 339039, Note_on_c, 0, 64, 0
2, 339105, Note_on_c, 0, 60, 0
2, 339109, Note_on_c, 0, 59, 0
2, 339256, Note_on_c, 0, 81, 0
2, 339279, Note_on_c, 0, 83, 71
2, 339472, Note_on_c, 0, 83, 0
2, 339563, Note_on_c, 0, 84, 96
2, 339741, Note_on_c, 0, 84, 0
2, 339916, Control_c, 0, 64, 0
2, 339947, Note_on_c, 0, 57, 60
2, 339949, Note_on_c, 0, 55, 69
2, 339950, Note_on_c, 0, 63, 46
2, 339956, Note_on_c, 0, 60, 29
2, 339960, Note_on_c, 0, 86, 85
2, 339968, Note_on_c, 0, 74, 84
2, 339979, Note_on_c, 0, 84, 55
2, 340034, Note_on_c, 0, 84, 0
2, 340276, Control_c, 0, 64, 127
2, 340414, Note_on_c, 0, 86, 0
2, 340424, Note_on_c, 0, 74, 0
2, 340436, Note_on_c, 0, 55, 0
2, 340467, Note_on_c, 0, 63, 0
2, 340473, Note_on_c, 0, 57, 0
2, 340530, Note_on_c, 0, 60, 0
2, 340567, Note_on_c, 0, 87, 77
2, 340571, Note_on_c, 0, 75, 70
2, 340578, Note_on_c, 0, 63, 55
2, 340594, Note_on_c, 0, 55, 54
2, 340599, Note_on_c, 0, 60, 19
2, 340610, Note_on_c, 0, 57, 64
2, 340680, Control_c, 0, 64, 0
2, 340783, Note_on_c, 0, 55, 0
2, 340807, Note_on_c, 0, 57, 0
2, 340812, Note_on_c, 0, 63, 0
2, 340839, Note_on_c, 0, 87, 0
2, 340843, Note_on_c, 0, 75, 0
2, 340929, Note_on_c, 0, 63, 34
2, 340944, Note_on_c, 0, 86, 61
2, 340952, Note_on_c, 0, 74, 36
2, 340970, Note_on_c, 0, 55, 40
2, 340980, Note_on_c, 0, 57, 36
2, 340985, Control_c, 0, 64, 127
2, 341527, Note_on_c, 0, 57, 0
2, 341562, Note_on_c, 0, 55, 0
2, 341563, Note_on_c, 0, 63, 0
2, 341661, Note_on_c, 0, 60, 0
2, 341971, Note_on_c, 0, 86, 0
2, 341984, Note_on_c, 0, 74, 0
2, 342394, Note_on_c, 0, 84, 64
2, 342403, Note_on_c, 0, 63, 34
2, 342420, Note_on_c, 0, 72, 57
2, 342423, Note_on_c, 0, 60, 29
2, 342511, Note_on_c, 0, 84, 0
2, 342519, Note_on_c, 0, 60, 0
2, 342534, Note_on_c, 0, 63, 0
2, 342538, Note_on_c, 0, 72, 0
2, 342686, Control_c, 0, 64, 0
2, 342786, Note_on_c, 0, 63, 31
2, 342793, Note_on_c, 0, 60, 29
2, 342794, Note_on_c, 0, 54, 31
2, 342845, Note_on_c, 0, 63, 0
2, 342846, Note_on_c, 0, 60, 0
2, 342911, Note_on_c, 0, 54, 0
2, 343416, Note_on_c, 0, 81, 62
2, 343428, Note_on_c, 0, 69, 43
2, 343429, Note_on_c, 0, 63, 40
2, 343438, Note_on_c, 0, 60, 31
2, 343455, Note_on_c, 0, 54, 23
2, 343740, Control_c, 0, 64, 127
2, 343843, Note_on_c, 0, 69, 0
2, 343981, Note_on_c, 0, 81, 0
2, 344044, Note_on_c, 0, 60, 0
2, 344335, Note_on_c, 0, 60, 33
2, 344681, Note_on_c, 0, 85, 79
2, 344708, Control_c, 0, 64, 0
2, 344760, Note_on_c, 0, 63, 0
2, 344887, Note_on_c, 0, 85, 0
2, 344963, Note_on_c, 0, 86, 69
2, 345124, Note_on_c, 0, 86, 0
2, 345212, Note_on_c, 0, 60, 0
2, 345334, Note_on_c, 0, 60, 17
2, 345416, Note_on_c, 0, 60, 0
2, 345552, Note_on_c, 0, 85, 84
2, 345573, Note_on_c, 0, 54, 0
2, 345589, Control_c, 0, 64, 127
2, 345748, Control_c, 0, 64, 0
2, 345788, Note_on_c, 0, 85, 0
2, 345856, Note_on_c, 0, 86, 66
2, 346108, Control_c, 0, 64, 127
2, 346187, Note_on_c, 0, 86, 0
2, 346239, Control_c, 0, 64, 0
2, 346485, Note_on_c, 0, 85, 70
2, 346550, Note_on_c, 0, 50, 39
2, 346780, Note_on_c, 0, 85, 0
2, 346808, Note_on_c, 0, 86, 57
2, 346816, Control_c, 0, 64, 127
2, 347437, Control_c, 0, 64, 0
2, 347467, Note_on_c, 0, 81, 42
2, 347595, Control_c, 0, 64, 127
2, 347863, Note_on_c, 0, 50, 0
2, 348141, Note_on_c, 0, 50, 50
2, 348272, Note_on_c, 0, 50, 0
2, 348541, Note_on_c, 0, 64, 78
2, 348544, Note_on_c, 0, 59, 62
2, 348548, Note_on_c, 0, 60, 66
2, 348563, Control_c, 0, 64, 0
2, 348880, Control_c, 0, 64, 127
2, 349241, Note_on_c, 0, 64, 0
2, 349243, Note_on_c, 0, 60, 0
2, 349254, Note_on_c, 0, 59, 0
2, 349397, Note_on_c, 0, 86, 0
2, 349451, Note_on_c, 0, 64, 65
2, 349456, Note_on_c, 0, 60, 43
2, 349470, Note_on_c, 0, 59, 51
2, 349555, Note_on_c, 0, 81, 0
2, 350032, Note_on_c, 0, 86, 118
2, 350168, Note_on_c, 0, 64, 0
2, 350189, Note_on_c, 0, 60, 0
2, 350235, Note_on_c, 0, 59, 0
2, 350369, Note_on_c, 0, 86, 0
2, 350436, Note_on_c, 0, 64, 55
2, 350438, Note_on_c, 0, 60, 57
2, 350442, Control_c, 0, 64, 0
2, 350444, Note_on_c, 0, 59, 43
2, 350445, Note_on_c, 0, 83, 96
2, 350612, Control_c, 0, 64, 127
2, 350766, Note_on_c, 0, 60, 0
2, 350772, Note_on_c, 0, 64, 0
2, 350814, Note_on_c, 0, 59, 0
2, 350819, Note_on_c, 0, 83, 0
2, 351020, Note_on_c, 0, 86, 114
2, 351022, Note_on_c, 0, 60, 59
2, 351022, Note_on_c, 0, 64, 43
2, 351070, Note_on_c, 0, 60, 0
2, 351074, Note_on_c, 0, 64, 0
2, 351309, Note_on_c, 0, 86, 0
2, 351364, Control_c, 0, 64, 0
2, 351381, Note_on_c, 0, 50, 74
2, 351411, Note_on_c, 0, 85, 86
2, 351637, Control_c, 0, 64, 127
2, 351871, Note_on_c, 0, 50, 0
2, 351895, Note_on_c, 0, 85, 0
2, 351974, Note_on_c, 0, 85, 81
2, 351984, Note_on_c, 0, 50, 63
2, 352248, Note_on_c, 0, 85, 0
2, 352318, Note_on_c, 0, 81, 71
2, 352333, Note_on_c, 0, 76, 67
2, 352539, Note_on_c, 0, 81, 0
2, 352648, Note_on_c, 0, 76, 0
2, 352912, Note_on_c, 0, 50, 0
2, 353231, Note_on_c, 0, 50, 15
2, 353249, Note_on_c, 0, 73, 25
2, 353264, Note_on_c, 0, 76, 44
2, 353270, Note_on_c, 0, 69, 24
2, 353289, Note_on_c, 0, 50, 0
2, 353432, Note_on_c, 0, 76, 0
2, 353511, Note_on_c, 0, 73, 0
2, 353663, Note_on_c, 0, 69, 0
2, 353874, Note_on_c, 0, 71, 66
2, 354550, Note_on_c, 0, 71, 0
2, 354599, Note_on_c, 0, 76, 74
2, 354611, Control_c, 0, 64, 0
2, 354648, Note_on_c, 0, 64, 37
2, 354666, Note_on_c, 0, 60, 26
2, 354687, Note_on_c, 0, 59, 18
2, 355024, Note_on_c, 0, 60, 0
2, 355034, Note_on_c, 0, 59, 0
2, 355044, Note_on_c, 0, 64, 0
2, 355226, Note_on_c, 0, 64, 47
2, 355237, Note_on_c, 0, 60, 43
2, 355246, Control_c, 0, 64, 127
2, 355249, Note_on_c, 0, 59, 28
2, 355412, Note_on_c, 0, 64, 0
2, 355420, Note_on_c, 0, 60, 0
2, 355430, Note_on_c, 0, 59, 0
2, 355924, Note_on_c, 0, 64, 51
2, 355936, Note_on_c, 0, 60, 46
2, 355962, Note_on_c, 0, 59, 31
2, 356041, Note_on_c, 0, 59, 0
2, 356057, Note_on_c, 0, 64, 0
2, 356080, Note_on_c, 0, 60, 0
2, 356408, Note_on_c, 0, 76, 0
2, 356604, Note_on_c, 0, 74, 72
2, 356791, Note_on_c, 0, 74, 0
2, 357057, Note_on_c, 0, 73, 37
2, 357066, Control_c, 0, 64, 0
2, 357099, Note_on_c, 0, 50, 36
2, 357102, Note_on_c, 0, 69, 46
2, 357104, Note_on_c, 0, 57, 52
2, 357105, Note_on_c, 0, 64, 43
2, 357442, Control_c, 0, 64, 127
2, 357694, Note_on_c, 0, 64, 0
2, 357880, Note_on_c, 0, 69, 0
2, 358076, Note_on_c, 0, 64, 38
2, 358094, Note_on_c, 0, 62, 29
2, 358216, Note_on_c, 0, 64, 0
2, 358398, Note_on_c, 0, 73, 0
2, 358945, Note_on_c, 0, 62, 0
2, 359233, Note_on_c, 0, 57, 0
2, 359327, Note_on_c, 0, 50, 0
2, 359382, Note_on_c, 0, 74, 62
2, 359521, Note_on_c, 0, 74, 0
2, 359677, Note_on_c, 0, 76, 74
2, 359870, Note_on_c, 0, 76, 0
2, 360068, Control_c, 0, 64, 0
2, 360074, Note_on_c, 0, 79, 88
2, 360076, Note_on_c, 0, 49, 47
2, 360077, Note_on_c, 0, 59, 55
2, 360099, Note_on_c, 0, 78, 61
2, 360155, Note_on_c, 0, 78, 0
2, 360908, Note_on_c, 0, 79, 0
2, 360921, Control_c, 0, 64, 127
2, 360934, Note_on_c, 0, 67, 57
2, 361238, Note_on_c, 0, 59, 0
2, 361267, Note_on_c, 0, 67, 0
2, 361566, Note_on_c, 0, 74, 106
2, 361605, Note_on_c, 0, 59, 36
2, 362372, Note_on_c, 0, 72, 51
2, 362394, Note_on_c, 0, 74, 0
2, 362725, Note_on_c, 0, 49, 0
2, 362897, Note_on_c, 0, 59, 0
2, 362927, Note_on_c, 0, 72, 0
2, 362953, Note_on_c, 0, 48, 49
2, 362956, Note_on_c, 0, 71, 66
2, 362969, Note_on_c, 0, 55, 47
2, 363000, Control_c, 0, 64, 0
2, 363303, Control_c, 0, 64, 127
2, 363820, Note_on_c, 0, 71, 0
2, 363936, Note_on_c, 0, 67, 27
2, 363968, Note_on_c, 0, 63, 21
2, 364004, Note_on_c, 0, 60, 18
2, 364917, Note_on_c, 0, 60, 0
2, 364999, Note_on_c, 0, 67, 0
2, 365041, Note_on_c, 0, 63, 0
2, 365502, Note_on_c, 0, 55, 0
2, 365517, Note_on_c, 0, 72, 56
2, 365595, Note_on_c, 0, 72, 0
2, 365601, Note_on_c, 0, 48, 0
2, 365988, Control_c, 0, 64, 0
2, 366212, Note_on_c, 0, 69, 71
2, 366295, Note_on_c, 0, 41, 45
2, 366523, Control_c, 0, 64, 127
2, 366860, Note_on_c, 0, 63, 50
2, 366877, Note_on_c, 0, 48, 27
2, 366891, Note_on_c, 0, 57, 46
2, 367178, Note_on_c, 0, 69, 0
2, 367190, Note_on_c, 0, 63, 0
2, 367349, Note_on_c, 0, 48, 0
2, 367497, Note_on_c, 0, 48, 31
2, 367679, Note_on_c, 0, 41, 0
2, 367716, Note_on_c, 0, 71, 118
2, 367774, Note_on_c, 0, 70, 36
2, 367800, Note_on_c, 0, 48, 0
2, 367823, Note_on_c, 0, 70, 0
2, 367840, Note_on_c, 0, 57, 0
2, 368029, Note_on_c, 0, 71, 0
2, 368153, Note_on_c, 0, 69, 92
2, 368469, Note_on_c, 0, 67, 77
2, 368544, Note_on_c, 0, 69, 0
2, 368747, Note_on_c, 0, 67, 0
2, 368775, Control_c, 0, 64, 0
2, 368801, Note_on_c, 0, 52, 37
2, 368808, Note_on_c, 0, 65, 45
2, 368845, Note_on_c, 0, 59, 24
2, 369064, Note_on_c, 0, 65, 0
2, 369179, Note_on_c, 0, 66, 39
2, 369650, Note_on_c, 0, 66, 0
2, 369771, Control_c, 0, 64, 127
2, 369773, Note_on_c, 0, 66, 48
2, 370180, Note_on_c, 0, 66, 0
2, 370348, Note_on_c, 0, 66, 57
2, 370399, Note_on_c, 0, 62, 34
2, 370776, Note_on_c, 0, 62, 0
2, 370807, Note_on_c, 0, 59, 0
2, 370809, Note_on_c, 0, 66, 0
2, 370939, Note_on_c, 0, 67, 48
2, 370942, Note_on_c, 0, 52, 0
2, 371516, Note_on_c, 0, 67, 0
2, 371565, Note_on_c, 0, 64, 59
2, 371590, Control_c, 0, 64, 0
2, 372513, Control_c, 0, 64, 127
2, 373018, Control_c, 0, 64, 0
2, 373102, Note_on_c, 0, 50, 40
2, 373322, Control_c, 0, 64, 127
2, 373733, Note_on_c, 0, 64, 0
2, 373813, Note_on_c, 0, 50, 0
2, 374075, Note_on_c, 0, 67, 127
2, 374417, Note_on_c, 0, 67, 0
2, 374496, Note_on_c, 0, 49, 54
2, 374506, Control_c, 0, 64, 0
2, 374507, Note_on_c, 0, 66, 84
2, 374517, Note_on_c, 0, 55, 38
2, 374525, Note_on_c, 0, 59, 41
2, 375358, Control_c, 0, 64, 127
2, 375360, Note_on_c, 0, 59, 0
2, 375433, Note_on_c, 0, 55, 0
2, 375919, Note_on_c, 0, 66, 0
2, 375989, Note_on_c, 0, 67, 54
2, 376027, Note_on_c, 0, 59, 22
2, 376405, Note_on_c, 0, 49, 0
2, 376512, Note_on_c, 0, 67, 0
2, 376541, Note_on_c, 0, 59, 0
2, 376680, Note_on_c, 0, 71, 66
2, 376817, Note_on_c, 0, 71, 0
2, 376972, Note_on_c, 0, 74, 104
2, 377295, Note_on_c, 0, 74, 0
2, 377350, Control_c, 0, 64, 0
2, 377351, Note_on_c, 0, 63, 57
2, 377356, Note_on_c, 0, 52, 61
2, 377357, Note_on_c, 0, 58, 70
2, 377373, Note_on_c, 0, 75, 61
2, 377596, Control_c, 0, 64, 127
2, 377863, Note_on_c, 0, 52, 0
2, 377880, Note_on_c, 0, 63, 0
2, 377886, Note_on_c, 0, 58, 0
2, 377909, Note_on_c, 0, 75, 0
2, 378787, Note_on_c, 0, 63, 98
2, 378788, Note_on_c, 0, 58, 87
2, 378791, Note_on_c, 0, 90, 93
2, 378793, Note_on_c, 0, 78, 100
2, 378796, Note_on_c, 0, 52, 89
2, 378797, Note_on_c, 0, 85, 101
2, 378801, Control_c, 0, 64, 0
2, 379046, Control_c, 0, 64, 127
2, 379131, Note_on_c, 0, 85, 0
2, 379146, Note_on_c, 0, 90, 0
2, 379157, Note_on_c, 0, 78, 0
2, 379159, Note_on_c, 0, 52, 0
2, 379174, Note_on_c, 0, 63, 0
2, 379180, Note_on_c, 0, 58, 0
2, 379454, Note_on_c, 0, 88, 77
2, 379458, Note_on_c, 0, 63, 81
2, 379462, Note_on_c, 0, 83, 72
2, 379467, Note_on_c, 0, 58, 73
2, 379468, Note_on_c, 0, 52, 79
2, 379474, Note_on_c, 0, 76, 76
2, 379536, Control_c, 0, 64, 0
2, 379580, Control_c, 0, 64, 127
2, 379612, Note_on_c, 0, 52, 0
2, 379661, Note_on_c, 0, 83, 0
2, 379667, Note_on_c, 0, 58, 0
2, 379668, Note_on_c, 0, 88, 0
2, 379683, Note_on_c, 0, 63, 0
2, 379730, Note_on_c, 0, 76, 0
2, 380131, Note_on_c, 0, 66, 90
2, 380136, Note_on_c, 0, 61, 70
2, 380139, Note_on_c, 0, 57, 91
2, 380141, Note_on_c, 0, 86, 95
2, 380142, Note_on_c, 0, 62, 90
2, 380145, Note_on_c, 0, 74, 96
2, 380147, Note_on_c, 0, 81, 95
2, 380172, Control_c, 0, 64, 0
2, 380442, Note_on_c, 0, 74, 0
2, 380452, Note_on_c, 0, 86, 0
2, 380456, Note_on_c, 0, 62, 0
2, 380459, Note_on_c, 0, 61, 0
2, 380463, Note_on_c, 0, 81, 0
2, 380476, Note_on_c, 0, 66, 0
2, 380482, Note_on_c, 0, 57, 0
2, 380852, Note_on_c, 0, 86, 80
2, 380862, Note_on_c, 0, 81, 78
2, 380863, Note_on_c, 0, 74, 77
2, 380868, Note_on_c, 0, 66, 79
2, 380869, Note_on_c, 0, 61, 57
2, 380876, Note_on_c, 0, 57, 81
2, 380895, Note_on_c, 0, 62, 75
2, 380943, Note_on_c, 0, 62, 0
2, 381077, Note_on_c, 0, 74, 0
2, 381084, Note_on_c, 0, 66, 0
2, 381111, Note_on_c, 0, 81, 0
2, 381113, Note_on_c, 0, 57, 0
2, 381118, Note_on_c, 0, 86, 0
2, 381137, Note_on_c, 0, 61, 0
2, 381526, Note_on_c, 0, 86, 60
2, 381537, Note_on_c, 0, 66, 61
2, 381539, Note_on_c, 0, 81, 49
2, 381540, Note_on_c, 0, 74, 52
2, 381542, Note_on_c, 0, 61, 49
2, 381556, Note_on_c, 0, 57, 66
2, 381572, Note_on_c, 0, 62, 62
2, 381602, Control_c, 0, 64, 127
2, 381621, Note_on_c, 0, 62, 0
2, 381729, Note_on_c, 0, 74, 0
2, 381763, Note_on_c, 0, 57, 0
2, 381775, Note_on_c, 0, 86, 0
2, 381785, Note_on_c, 0, 66, 0
2, 381787, Note_on_c, 0, 81, 0
2, 381821, Note_on_c, 0, 61, 0
2, 381933, Control_c, 0, 64, 0
2, 382157, Note_on_c, 0, 66, 53
2, 382158, Note_on_c, 0, 86, 42
2, 382181, Note_on_c, 0, 61, 34
2, 382190, Note_on_c, 0, 81, 42
2, 382192, Note_on_c, 0, 57, 55
2, 382197, Note_on_c, 0, 74, 37
2, 382198, Note_on_c, 0, 62, 60
2, 382319, Note_on_c, 0, 74, 0
2, 382365, Note_on_c, 0, 62, 0
2, 382377, Note_on_c, 0, 86, 0
2, 382384, Note_on_c, 0, 81, 0
2, 382391, Note_on_c, 0, 66, 0
2, 382399, Note_on_c, 0, 57, 0
2, 382459, Note_on_c, 0, 61, 0
2, 382747, Note_on_c, 0, 66, 72
2, 382753, Note_on_c, 0, 88, 69
2, 382764, Note_on_c, 0, 81, 65
2, 382771, Control_c, 0, 64, 127
2, 382777, Note_on_c, 0, 61, 37
2, 382795, Note_on_c, 0, 76, 52
2, 382796, Note_on_c, 0, 57, 43
2, 382856, Note_on_c, 0, 57, 0
2, 382865, Note_on_c, 0, 76, 0
2, 382879, Note_on_c, 0, 88, 0
2, 382888, Note_on_c, 0, 81, 0
2, 382959, Note_on_c, 0, 61, 0
2, 382966, Note_on_c, 0, 66, 0
2, 383074, Control_c, 0, 64, 0
2, 383252, Note_on_c, 0, 56, 55
2, 383254, Note_on_c, 0, 67, 66
2, 383258, Note_on_c, 0, 84, 55
2, 383266, Note_on_c, 0, 62, 68
2, 383271, Note_on_c, 0, 76, 55
2, 383284, Note_on_c, 0, 79, 37
2, 383286, Note_on_c, 0, 72, 44
2, 383383, Note_on_c, 0, 67, 0
2, 383401, Note_on_c, 0, 72, 0
2, 383402, Note_on_c, 0, 62, 0
2, 383418, Note_on_c, 0, 76, 0
2, 383421, Note_on_c, 0, 79, 0
2, 383471, Note_on_c, 0, 56, 0
2, 383503, Note_on_c, 0, 84, 0
2, 383824, Note_on_c, 0, 84, 53
2, 383839, Note_on_c, 0, 76, 52
2, 383850, Note_on_c, 0, 79, 48
2, 383853, Note_on_c, 0, 56, 50
2, 383857, Note_on_c, 0, 67, 41
2, 383862, Note_on_c, 0, 72, 40
2, 383865, Note_on_c, 0, 62, 59
2, 383949, Note_on_c, 0, 72, 0
2, 383957, Note_on_c, 0, 67, 0
2, 383965, Note_on_c, 0, 62, 0
2, 383970, Note_on_c, 0, 76, 0
2, 383983, Note_on_c, 0, 79, 0
2, 384006, Note_on_c, 0, 84, 0
2, 384042, Note_on_c, 0, 56, 0
2, 384410, Note_on_c, 0, 84, 48
2, 384417, Note_on_c, 0, 56, 49
2, 384429, Note_on_c, 0, 76, 55
2, 384430, Note_on_c, 0, 67, 35
2, 384432, Note_on_c, 0, 72, 29
2, 384445, Note_on_c, 0, 79, 42
2, 384446, Note_on_c, 0, 62, 56
2, 384543, Note_on_c, 0, 62, 0
2, 384554, Note_on_c, 0, 67, 0
2, 384563, Note_on_c, 0, 76, 0
2, 384567, Note_on_c, 0, 79, 0
2, 384584, Note_on_c, 0, 72, 0
2, 384609, Note_on_c, 0, 84, 0
2, 384642, Note_on_c, 0, 56, 0
2, 384988, Note_on_c, 0, 56, 46
2, 385009, Control_c, 0, 64, 127
2, 385015, Note_on_c, 0, 76, 47
2, 385016, Note_on_c, 0, 84, 46
2, 385025, Note_on_c, 0, 67, 23
2, 385027, Note_on_c, 0, 62, 56
2, 385031, Note_on_c, 0, 72, 39
2, 385034, Note_on_c, 0, 79, 34
2, 385101, Note_on_c, 0, 79, 0
2, 385136, Note_on_c, 0, 76, 0
2, 385140, Note_on_c, 0, 67, 0
2, 385156, Note_on_c, 0, 62, 0
2, 385201, Note_on_c, 0, 72, 0
2, 385228, Note_on_c, 0, 84, 0
2, 385231, Note_on_c, 0, 56, 0
2, 385558, Note_on_c, 0, 56, 79
2, 385582, Note_on_c, 0, 86, 69
2, 385600, Note_on_c, 0, 74, 75
2, 385654, Note_on_c, 0, 86, 0
2, 385695, Note_on_c, 0, 74, 0
2, 385788, Note_on_c, 0, 56, 0
2, 385961, Control_c, 0, 64, 0
2, 385980, Note_on_c, 0, 82, 38
2, 385999, Note_on_c, 0, 55, 63
2, 386001, Note_on_c, 0, 64, 65
2, 386003, Note_on_c, 0, 70, 71
2, 386022, Note_on_c, 0, 60, 61
2, 386023, Note_on_c, 0, 59, 52
2, 386026, Note_on_c, 0, 83, 59
2, 386053, Note_on_c, 0, 79, 44
2, 386071, Note_on_c, 0, 76, 70
2, 386076, Note_on_c, 0, 82, 0
2, 386081, Note_on_c, 0, 70, 0
2, 386085, Note_on_c, 0, 71, 79
2, 386092, Note_on_c, 0, 81, 34
2, 386132, Note_on_c, 0, 71, 0
2, 386159, Note_on_c, 0, 81, 0
2, 386261, Note_on_c, 0, 71, 10
2, 386328, Note_on_c, 0, 71, 0
2, 386340, Note_on_c, 0, 55, 0
2, 386354, Note_on_c, 0, 76, 0
2, 386363, Note_on_c, 0, 64, 0
2, 386369, Note_on_c, 0, 60, 0
2, 386371, Note_on_c, 0, 83, 0
2, 386376, Note_on_c, 0, 59, 0
2, 386396, Note_on_c, 0, 79, 0
2, 386618, Note_on_c, 0, 83, 55
2, 386626, Note_on_c, 0, 71, 53
2, 386641, Note_on_c, 0, 76, 49
2, 386645, Note_on_c, 0, 64, 53
2, 386648, Note_on_c, 0, 55, 40
2, 386657, Note_on_c, 0, 60, 39
2, 386667, Note_on_c, 0, 79, 23
2, 386668, Note_on_c, 0, 59, 48
2, 386707, Note_on_c, 0, 76, 0
2, 386710, Note_on_c, 0, 71, 0
2, 386723, Note_on_c, 0, 79, 0
2, 386724, Note_on_c, 0, 59, 0
2, 386753, Note_on_c, 0, 83, 0
2, 386765, Note_on_c, 0, 60, 0
2, 386767, Note_on_c, 0, 64, 0
2, 386780, Note_on_c, 0, 55, 0
2, 387189, Note_on_c, 0, 83, 40
2, 387208, Note_on_c, 0, 64, 30
2, 387218, Control_c, 0, 64, 127
2, 387220, Note_on_c, 0, 71, 28
2, 387221, Note_on_c, 0, 60, 28
2, 387223, Note_on_c, 0, 55, 28
2, 387224, Note_on_c, 0, 79, 28
2, 387227, Note_on_c, 0, 76, 41
2, 387237, Note_on_c, 0, 59, 33
2, 387302, Note_on_c, 0, 79, 0
2, 387304, Note_on_c, 0, 76, 0
2, 387305, Note_on_c, 0, 71, 0
2, 387323, Note_on_c, 0, 64, 0
2, 387339, Note_on_c, 0, 55, 0
2, 387346, Note_on_c, 0, 59, 0
2, 387366, Note_on_c, 0, 60, 0
2, 387368, Note_on_c, 0, 83, 0
2, 387480, Control_c, 0, 64, 0
2, 387712, Control_c, 0, 64, 127
2, 387752, Note_on_c, 0, 83, 49
2, 387783, Note_on_c, 0, 64, 39
2, 387790, Note_on_c, 0, 76, 49
2, 387796, Note_on_c, 0, 60, 31
2, 387807, Note_on_c, 0, 55, 38
2, 387809, Note_on_c, 0, 71, 22
2, 387813, Note_on_c, 0, 59, 39
2, 387836, Note_on_c, 0, 79, 20
2, 387892, Note_on_c, 0, 71, 0
2, 387895, Note_on_c, 0, 79, 0
2, 387914, Note_on_c, 0, 76, 0
2, 387947, Note_on_c, 0, 64, 0
2, 387974, Note_on_c, 0, 55, 0
2, 387986, Note_on_c, 0, 83, 0
2, 388002, Note_on_c, 0, 60, 0
2, 388003, Note_on_c, 0, 59, 0
2, 388424, Note_on_c, 0, 84, 59
2, 388451, Note_on_c, 0, 72, 59
2, 388457, Note_on_c, 0, 55, 28
2, 388490, Note_on_c, 0, 84, 0
2, 388556, Note_on_c, 0, 55, 0
2, 388582, Note_on_c, 0, 72, 0
2, 388795, Control_c, 0, 64, 0
2, 388832, Note_on_c, 0, 81, 53
2, 388857, Note_on_c, 0, 69, 29
2, 388874, Note_on_c, 0, 54, 28
2, 388881, Note_on_c, 0, 64, 43
2, 388893, Note_on_c, 0, 60, 27
2, 389025, Control_c, 0, 64, 127
2, 389365, Note_on_c, 0, 69, 0
2, 389594, Note_on_c, 0, 81, 0
2, 389663, Note_on_c, 0, 60, 0
2, 389685, Note_on_c, 0, 64, 0
2, 390409, Note_on_c, 0, 60, 40
2, 390429, Note_on_c, 0, 64, 33
2, 390794, Note_on_c, 0, 86, 116
2, 390880, Note_on_c, 0, 64, 0
2, 390992, Note_on_c, 0, 60, 0
2, 391043, Note_on_c, 0, 54, 0
2, 391046, Note_on_c, 0, 86, 0
2, 391118, Note_on_c, 0, 85, 30
2, 391210, Note_on_c, 0, 85, 0
2, 391386, Note_on_c, 0, 86, 116
2, 391610, Control_c, 0, 64, 0
2, 391927, Control_c, 0, 64, 127
2, 392320, Note_on_c, 0, 45, 61
2, 392448, Note_on_c, 0, 45, 0
2, 393184, Control_c, 0, 64, 0
2, 393191, Note_on_c, 0, 86, 0
2, 393249, Note_on_c, 0, 85, 87
2, 393259, Note_on_c, 0, 50, 77
2, 393295, Note_on_c, 0, 82, 32
2, 393343, Note_on_c, 0, 82, 0
2, 393616, Control_c, 0, 64, 127
2, 393976, Note_on_c, 0, 81, 62
2, 394027, Note_on_c, 0, 85, 0
2, 394169, Note_on_c, 0, 81, 0
2, 394277, Note_on_c, 0, 76, 41
2, 394418, Note_on_c, 0, 76, 0
2, 394569, Note_on_c, 0, 73, 33
2, 394849, Note_on_c, 0, 73, 0
2, 394902, Note_on_c, 0, 71, 45
2, 394984, Note_on_c, 0, 71, 0
2, 395213, Note_on_c, 0, 76, 74
2, 395223, Note_on_c, 0, 71, 70
2, 395233, Control_c, 0, 64, 0
2, 395262, Note_on_c, 0, 60, 34
2, 395638, Control_c, 0, 64, 127
2, 396175, Note_on_c, 0, 67, 45
2, 396390, Note_on_c, 0, 71, 0
2, 396480, Note_on_c, 0, 76, 0
2, 396813, Note_on_c, 0, 67, 0
2, 397022, Note_on_c, 0, 60, 0
2, 397051, Note_on_c, 0, 57, 41
2, 397081, Note_on_c, 0, 74, 104
2, 397087, Note_on_c, 0, 50, 0
2, 397357, Note_on_c, 0, 74, 0
2, 397413, Note_on_c, 0, 57, 0
2, 397457, Control_c, 0, 64, 0
2, 397459, Note_on_c, 0, 73, 71
2, 397475, Note_on_c, 0, 64, 75
2, 397483, Note_on_c, 0, 69, 69
2, 397488, Note_on_c, 0, 50, 47
2, 397775, Control_c, 0, 64, 127
2, 398069, Note_on_c, 0, 69, 0
2, 398120, Note_on_c, 0, 64, 0
2, 398404, Note_on_c, 0, 69, 38
2, 398436, Note_on_c, 0, 62, 30
2, 398443, Note_on_c, 0, 64, 31
2, 398970, Note_on_c, 0, 69, 0
2, 398973, Note_on_c, 0, 64, 0
2, 399195, Note_on_c, 0, 73, 0
2, 399265, Note_on_c, 0, 62, 0
2, 399326, Note_on_c, 0, 74, 37
2, 399342, Note_on_c, 0, 64, 30
2, 399344, Note_on_c, 0, 69, 39
2, 399445, Note_on_c, 0, 50, 0
2, 399630, Note_on_c, 0, 64, 0
2, 399797, Note_on_c, 0, 74, 0
2, 399838, Note_on_c, 0, 69, 0
2, 399960, Note_on_c, 0, 50, 37
2, 400257, Control_c, 0, 64, 0
2, 400325, Note_on_c, 0, 76, 48
2, 400331, Note_on_c, 0, 67, 36
2, 400348, Note_on_c, 0, 60, 30
2, 400619, Control_c, 0, 64, 127
2, 400930, Note_on_c, 0, 60, 0
2, 400986, Note_on_c, 0, 67, 0
2, 401258, Note_on_c, 0, 67, 27
2, 401274, Note_on_c, 0, 60, 30
2, 401798, Note_on_c, 0, 76, 0
2, 401936, Note_on_c, 0, 67, 0
2, 402540, Note_on_c, 0, 50, 0
2, 402571, Note_on_c, 0, 60, 0
2, 402871, Note_on_c, 0, 74, 103
2, 402885, Note_on_c, 0, 67, 103
2, 403101, Note_on_c, 0, 67, 0
2, 403168, Note_on_c, 0, 74, 0
2, 403283, Note_on_c, 0, 73, 77
2, 403299, Note_on_c, 0, 69, 87
2, 403304, Note_on_c, 0, 64, 90
2, 403307, Note_on_c, 0, 50, 55
2, 403317, Control_c, 0, 64, 0
2, 403650, Control_c, 0, 64, 127
2, 403997, Note_on_c, 0, 64, 0
2, 404016, Note_on_c, 0, 69, 0
2, 404154, Note_on_c, 0, 73, 0
2, 404220, Note_on_c, 0, 74, 75
2, 404232, Note_on_c, 0, 69, 77
2, 404236, Note_on_c, 0, 64, 71
2, 404243, Note_on_c, 0, 62, 41
2, 404698, Note_on_c, 0, 62, 0
2, 404779, Note_on_c, 0, 64, 0
2, 404793, Note_on_c, 0, 74, 0
2, 404832, Note_on_c, 0, 69, 0
2, 405125, Note_on_c, 0, 74, 66
2, 405140, Note_on_c, 0, 62, 35
2, 405149, Note_on_c, 0, 69, 46
2, 405156, Note_on_c, 0, 64, 51
2, 405240, Note_on_c, 0, 62, 0
2, 405313, Note_on_c, 0, 64, 0
2, 405333, Note_on_c, 0, 69, 0
2, 405354, Note_on_c, 0, 74, 0
2, 405378, Note_on_c, 0, 50, 0
2, 406066, Note_on_c, 0, 76, 65
2, 406075, Control_c, 0, 64, 0
2, 406086, Note_on_c, 0, 71, 74
2, 406092, Note_on_c, 0, 49, 29
2, 406124, Note_on_c, 0, 64, 61
2, 406133, Note_on_c, 0, 59, 23
2, 406408, Control_c, 0, 64, 127
2, 406573, Note_on_c, 0, 59, 0
2, 406595, Note_on_c, 0, 71, 0
2, 406616, Note_on_c, 0, 76, 0
2, 406675, Note_on_c, 0, 64, 0
2, 407027, Note_on_c, 0, 74, 61
2, 407040, Note_on_c, 0, 62, 44
2, 407053, Note_on_c, 0, 59, 33
2, 407380, Note_on_c, 0, 74, 0
2, 407406, Note_on_c, 0, 59, 0
2, 407429, Note_on_c, 0, 62, 0
2, 407815, Note_on_c, 0, 49, 0
2, 407947, Note_on_c, 0, 49, 31
2, 407957, Note_on_c, 0, 71, 58
2, 407963, Note_on_c, 0, 64, 64
2, 408003, Note_on_c, 0, 59, 20
2, 408200, Note_on_c, 0, 59, 0
2, 408219, Note_on_c, 0, 64, 0
2, 408239, Note_on_c, 0, 71, 0
2, 408308, Note_on_c, 0, 49, 0
2, 408847, Control_c, 0, 64, 0
2, 408876, Note_on_c, 0, 66, 44
2, 408910, Note_on_c, 0, 48, 23
2, 408912, Note_on_c, 0, 62, 52
2, 408921, Note_on_c, 0, 57, 31
2, 408941, Note_on_c, 0, 55, 29
2, 409055, Note_on_c, 0, 57, 0
2, 409064, Control_c, 0, 64, 127
2, 409185, Note_on_c, 0, 62, 0
2, 409296, Note_on_c, 0, 66, 0
2, 409949, Note_on_c, 0, 78, 56
2, 409980, Note_on_c, 0, 74, 43
2, 409992, Note_on_c, 0, 60, 36
2, 410005, Note_on_c, 0, 69, 29
2, 410011, Note_on_c, 0, 48, 0
2, 410025, Note_on_c, 0, 55, 0
2, 410209, Note_on_c, 0, 60, 0
2, 410900, Note_on_c, 0, 60, 35
2, 410929, Note_on_c, 0, 64, 18
2, 411053, Note_on_c, 0, 64, 0
2, 411103, Note_on_c, 0, 78, 0
2, 411173, Note_on_c, 0, 69, 0
2, 411260, Note_on_c, 0, 74, 0
2, 411456, Note_on_c, 0, 79, 55
2, 411655, Note_on_c, 0, 79, 0
2, 411775, Note_on_c, 0, 60, 0
2, 411826, Note_on_c, 0, 76, 58
2, 411853, Note_on_c, 0, 58, 50
2, 411865, Control_c, 0, 64, 0
2, 411867, Note_on_c, 0, 72, 31
2, 411877, Note_on_c, 0, 67, 18
2, 412110, Control_c, 0, 64, 127
2, 412389, Note_on_c, 0, 67, 0
2, 412415, Note_on_c, 0, 72, 0
2, 412788, Note_on_c, 0, 72, 34
2, 412817, Note_on_c, 0, 67, 30
2, 412847, Note_on_c, 0, 64, 29
2, 412996, Note_on_c, 0, 67, 0
2, 413066, Note_on_c, 0, 64, 0
2, 413347, Note_on_c, 0, 72, 0
2, 413348, Note_on_c, 0, 76, 0
2, 413782, Note_on_c, 0, 64, 29
2, 413943, Note_on_c, 0, 64, 0
2, 414155, Note_on_c, 0, 58, 0
2, 414721, Note_on_c, 0, 62, 37
2, 414727, Note_on_c, 0, 81, 83
2, 414744, Note_on_c, 0, 52, 22
2, 414767, Control_c, 0, 64, 0
2, 414793, Note_on_c, 0, 59, 17
2, 414796, Note_on_c, 0, 55, 19
2, 414980, Note_on_c, 0, 80, 26
2, 415036, Note_on_c, 0, 81, 0
2, 415127, Note_on_c, 0, 80, 0
2, 415153, Note_on_c, 0, 79, 59
2, 415305, Note_on_c, 0, 79, 0
2, 415311, Note_on_c, 0, 78, 59
2, 415598, Note_on_c, 0, 78, 0
2, 415732, Note_on_c, 0, 62, 0
2, 415775, Note_on_c, 0, 78, 57
2, 415873, Note_on_c, 0, 62, 12
2, 415945, Note_on_c, 0, 78, 0
2, 416092, Note_on_c, 0, 62, 0
2, 416097, Note_on_c, 0, 59, 0
2, 416256, Note_on_c, 0, 78, 67
2, 416272, Note_on_c, 0, 62, 37
2, 416309, Note_on_c, 0, 59, 17
2, 416406, Note_on_c, 0, 78, 0
2, 416743, Note_on_c, 0, 78, 67
2, 416892, Control_c, 0, 64, 127
2, 416948, Note_on_c, 0, 78, 0
2, 416973, Note_on_c, 0, 59, 0
2, 417015, Note_on_c, 0, 55, 0
2, 417023, Note_on_c, 0, 52, 0
2, 417031, Note_on_c, 0, 79, 61
2, 417094, Note_on_c, 0, 62, 0
2, 417208, Note_on_c, 0, 79, 0
2, 417272, Note_on_c, 0, 78, 45
2, 417690, Note_on_c, 0, 55, 43
2, 417691, Note_on_c, 0, 62, 58
2, 417699, Note_on_c, 0, 76, 61
2, 417702, Control_c, 0, 64, 0
2, 417715, Note_on_c, 0, 78, 0
2, 417720, Note_on_c, 0, 59, 52
2, 417723, Note_on_c, 0, 66, 21
2, 418567, Control_c, 0, 64, 127
2, 418848, Note_on_c, 0, 59, 0
2, 418856, Note_on_c, 0, 62, 0
2, 418926, Note_on_c, 0, 66, 0
2, 418928, Note_on_c, 0, 55, 0
2, 419081, Note_on_c, 0, 76, 0
2, 419244, Note_on_c, 0, 66, 37
2, 419290, Note_on_c, 0, 62, 48
2, 419310, Note_on_c, 0, 55, 22
2, 419324, Note_on_c, 0, 59, 30
2, 419637, Note_on_c, 0, 66, 0
2, 419732, Note_on_c, 0, 62, 0
2, 419926, Note_on_c, 0, 67, 81
2, 419972, Note_on_c, 0, 59, 0
2, 420037, Note_on_c, 0, 67, 0
2, 420070, Note_on_c, 0, 55, 0
2, 420115, Note_on_c, 0, 69, 20
2, 420393, Note_on_c, 0, 67, 64
2, 420440, Note_on_c, 0, 69, 0
2, 420553, Note_on_c, 0, 67, 0
2, 420559, Note_on_c, 0, 66, 43
2, 420605, Note_on_c, 0, 62, 31
2, 420618, Control_c, 0, 64, 0
2, 420619, Note_on_c, 0, 55, 41
2, 420626, Note_on_c, 0, 59, 43
2, 421280, Note_on_c, 0, 66, 0
2, 421372, Note_on_c, 0, 66, 61
2, 421483, Control_c, 0, 64, 127
2, 421797, Note_on_c, 0, 66, 0
2, 421983, Note_on_c, 0, 66, 107
2, 422256, Note_on_c, 0, 62, 0
2, 422281, Note_on_c, 0, 66, 0
2, 422395, Note_on_c, 0, 66, 94
2, 422426, Note_on_c, 0, 62, 26
2, 422713, Note_on_c, 0, 66, 0
2, 422729, Note_on_c, 0, 62, 0
2, 422884, Note_on_c, 0, 59, 0
2, 422901, Note_on_c, 0, 55, 0
2, 422986, Note_on_c, 0, 67, 91
2, 423270, Note_on_c, 0, 67, 0
2, 423390, Control_c, 0, 64, 0
2, 423405, Note_on_c, 0, 61, 53
2, 423407, Note_on_c, 0, 66, 34
2, 423426, Note_on_c, 0, 69, 77
2, 423431, Note_on_c, 0, 55, 25
2, 424053, Control_c, 0, 64, 127
2, 424233, Note_on_c, 0, 69, 0
2, 424354, Note_on_c, 0, 71, 90
2, 424438, Note_on_c, 0, 66, 0
2, 424673, Note_on_c, 0, 55, 0
2, 424906, Note_on_c, 0, 61, 0
2, 425819, Note_on_c, 0, 71, 0
2, 425849, Note_on_c, 0, 67, 44
2, 426133, Control_c, 0, 64, 0
2, 426177, Note_on_c, 0, 67, 0
2, 426268, Note_on_c, 0, 64, 41
2, 426297, Note_on_c, 0, 59, 22
2, 426306, Control_c, 0, 64, 127
2, 426319, Note_on_c, 0, 60, 18
2, 426473, Note_on_c, 0, 64, 0
2, 426494, Note_on_c, 0, 55, 6
2, 426931, Note_on_c, 0, 60, 0
2, 426935, Note_on_c, 0, 59, 0
2, 427021, Note_on_c, 0, 55, 0
2, 427740, Note_on_c, 0, 95, 63
2, 427793, Note_on_c, 0, 55, 58
2, 427806, Note_on_c, 0, 88, 71
2, 427809, Note_on_c, 0, 60, 54
2, 427810, Note_on_c, 0, 64, 64
2, 427812, Note_on_c, 0, 91, 43
2, 427815, Note_on_c, 0, 59, 53
2, 427825, Note_on_c, 0, 83, 65
2, 427898, Note_on_c, 0, 83, 0
2, 427927, Note_on_c, 0, 88, 0
2, 427947, Note_on_c, 0, 91, 0
2, 427949, Note_on_c, 0, 64, 0
2, 427987, Note_on_c, 0, 60, 0
2, 427990, Note_on_c, 0, 55, 0
2, 427992, Note_on_c, 0, 95, 0
2, 428005, Note_on_c, 0, 59, 0
2, 428288, Note_on_c, 0, 98, 89
2, 428301, Control_c, 0, 64, 0
2, 428311, Note_on_c, 0, 64, 101
2, 428314, Note_on_c, 0, 55, 93
2, 428316, Note_on_c, 0, 60, 89
2, 428319, Note_on_c, 0, 95, 66
2, 428320, Note_on_c, 0, 59, 88
2, 428323, Note_on_c, 0, 86, 92
2, 428335, Note_on_c, 0, 91, 70
2, 428337, Note_on_c, 0, 93, 74
2, 428385, Note_on_c, 0, 93, 0
2, 428460, Control_c, 0, 64, 127
2, 428628, Note_on_c, 0, 95, 0
2, 428630, Note_on_c, 0, 91, 0
2, 428669, Note_on_c, 0, 98, 0
2, 428682, Note_on_c, 0, 86, 0
2, 428745, Note_on_c, 0, 59, 0
2, 428748, Note_on_c, 0, 60, 0
2, 428759, Note_on_c, 0, 64, 0
2, 428765, Note_on_c, 0, 55, 0
2, 429152, Control_c, 0, 64, 0
2, 429183, Note_on_c, 0, 95, 74
2, 429197, Note_on_c, 0, 64, 69
2, 429201, Note_on_c, 0, 83, 46
2, 429203, Note_on_c, 0, 91, 48
2, 429205, Note_on_c, 0, 55, 63
2, 429206, Note_on_c, 0, 88, 57
2, 429210, Note_on_c, 0, 60, 59
2, 429219, Note_on_c, 0, 59, 57
2, 429427, Control_c, 0, 64, 127
2, 429936, Note_on_c, 0, 95, 0
2, 429969, Note_on_c, 0, 91, 0
2, 430002, Note_on_c, 0, 88, 0
2, 430042, Note_on_c, 0, 83, 0
2, 430217, Note_on_c, 0, 64, 0
2, 430263, Note_on_c, 0, 55, 0
2, 430271, Note_on_c, 0, 59, 0
2, 430273, Note_on_c, 0, 60, 0
2, 430712, Note_on_c, 0, 64, 71
2, 430728, Note_on_c, 0, 60, 63
2, 430741, Note_on_c, 0, 55, 47
2, 430742, Note_on_c, 0, 59, 59
2, 430937, Note_on_c, 0, 64, 0
2, 430974, Note_on_c, 0, 55, 0
2, 430977, Note_on_c, 0, 59, 0
2, 430978, Note_on_c, 0, 60, 0
2, 431107, Note_on_c, 0, 81, 83
2, 431111, Note_on_c, 0, 69, 84
2, 431112, Note_on_c, 0, 55, 64
2, 431114, Note_on_c, 0, 64, 66
2, 431128, Note_on_c, 0, 60, 75
2, 431132, Note_on_c, 0, 59, 69
2, 431301, Note_on_c, 0, 69, 0
2, 431318, Note_on_c, 0, 64, 0
2, 431346, Note_on_c, 0, 55, 0
2, 431347, Note_on_c, 0, 81, 0
2, 431359, Note_on_c, 0, 59, 0
2, 431360, Note_on_c, 0, 60, 0
2, 431708, Note_on_c, 0, 55, 81
2, 431713, Note_on_c, 0, 83, 85
2, 431716, Note_on_c, 0, 71, 98
2, 431724, Note_on_c, 0, 60, 64
2, 431733, Note_on_c, 0, 64, 45
2, 431786, Note_on_c, 0, 64, 0
2, 431808, Note_on_c, 0, 71, 0
2, 431845, Note_on_c, 0, 60, 0
2, 431860, Note_on_c, 0, 55, 0
2, 431881, Note_on_c, 0, 83, 0
2, 432113, Control_c, 0, 64, 0
2, 432139, Note_on_c, 0, 63, 87
2, 432140, Note_on_c, 0, 60, 70
2, 432143, Note_on_c, 0, 84, 87
2, 432146, Note_on_c, 0, 55, 82
2, 432155, Note_on_c, 0, 72, 76
2, 432161, Note_on_c, 0, 57, 80
2, 432174, Note_on_c, 0, 79, 48
2, 432223, Note_on_c, 0, 79, 0
2, 432392, Note_on_c, 0, 84, 0
2, 432444, Control_c, 0, 64, 127
2, 432451, Note_on_c, 0, 72, 0
2, 432604, Note_on_c, 0, 55, 0
2, 432627, Note_on_c, 0, 57, 0
2, 432646, Note_on_c, 0, 63, 0
2, 432685, Note_on_c, 0, 60, 0
2, 432878, Control_c, 0, 64, 0
2, 433049, Note_on_c, 0, 63, 77
2, 433068, Note_on_c, 0, 86, 91
2, 433071, Note_on_c, 0, 60, 66
2, 433072, Note_on_c, 0, 55, 64
2, 433075, Note_on_c, 0, 57, 69
2, 433076, Note_on_c, 0, 74, 92
2, 433078, Note_on_c, 0, 81, 84
2, 433174, Note_on_c, 0, 74, 0
2, 433184, Note_on_c, 0, 81, 0
2, 433223, Note_on_c, 0, 86, 0
2, 433243, Note_on_c, 0, 55, 0
2, 433249, Note_on_c, 0, 63, 0
2, 433269, Note_on_c, 0, 57, 0
2, 433279, Note_on_c, 0, 60, 0
2, 433963, Note_on_c, 0, 63, 47
2, 433977, Note_on_c, 0, 55, 52
2, 433979, Note_on_c, 0, 84, 71
2, 433981, Note_on_c, 0, 72, 78
2, 433992, Note_on_c, 0, 60, 31
2, 433994, Note_on_c, 0, 57, 58
2, 434053, Note_on_c, 0, 60, 0
2, 434079, Note_on_c, 0, 72, 0
2, 434082, Note_on_c, 0, 84, 0
2, 434113, Note_on_c, 0, 63, 0
2, 434168, Note_on_c, 0, 55, 0
2, 434259, Note_on_c, 0, 57, 0
2, 434560, Note_on_c, 0, 63, 48
2, 434563, Note_on_c, 0, 82, 61
2, 434578, Note_on_c, 0, 70, 71
2, 434596, Control_c, 0, 64, 127
2, 434614, Note_on_c, 0, 60, 28
2, 434754, Note_on_c, 0, 63, 0
2, 434757, Note_on_c, 0, 82, 0
2, 434768, Note_on_c, 0, 70, 0
2, 434779, Note_on_c, 0, 60, 0
2, 434856, Control_c, 0, 64, 0
2, 434928, Note_on_c, 0, 81, 63
2, 434940, Note_on_c, 0, 69, 38
2, 434946, Note_on_c, 0, 64, 55
2, 434954, Note_on_c, 0, 60, 20
2, 434969, Note_on_c, 0, 54, 20
2, 435217, Control_c, 0, 64, 127
2, 435542, Note_on_c, 0, 64, 0
2, 435547, Note_on_c, 0, 60, 0
2, 435834, Note_on_c, 0, 81, 0
2, 435889, Note_on_c, 0, 64, 42
2, 435909, Note_on_c, 0, 60, 37
2, 436148, Note_on_c, 0, 69, 0
2, 436638, Note_on_c, 0, 64, 0
2, 436823, Note_on_c, 0, 60, 0
2, 436993, Note_on_c, 0, 54, 0
2, 437743, Control_c, 0, 64, 0
2, 437765, Note_on_c, 0, 50, 27
2, 437769, Note_on_c, 0, 62, 29
2, 438031, Control_c, 0, 64, 127
2, 438724, Note_on_c, 0, 71, 63
2, 438746, Note_on_c, 0, 67, 43
2, 439319, Note_on_c, 0, 62, 0
2, 439788, Note_on_c, 0, 62, 26
2, 440328, Note_on_c, 0, 62, 0
2, 440429, Note_on_c, 0, 50, 0
2, 440632, Note_on_c, 0, 67, 0
2, 440667, Note_on_c, 0, 71, 0
2, 440674, Control_c, 0, 64, 0
2, 440693, Note_on_c, 0, 62, 46
2, 440711, Note_on_c, 0, 50, 34
2, 440775, Control_c, 0, 64, 127
2, 441225, Note_on_c, 0, 62, 0
2, 441584, Note_on_c, 0, 72, 59
2, 441608, Note_on_c, 0, 69, 58
2, 441610, Note_on_c, 0, 62, 53
2, 441613, Note_on_c, 0, 60, 27
2, 441627, Control_c, 0, 64, 0
2, 441829, Control_c, 0, 64, 127
2, 442351, Note_on_c, 0, 62, 0
2, 442602, Note_on_c, 0, 62, 65
2, 443231, Note_on_c, 0, 62, 0
2, 443295, Note_on_c, 0, 50, 0
2, 443477, Note_on_c, 0, 60, 0
2, 443503, Control_c, 0, 64, 0
2, 443505, Note_on_c, 0, 62, 70
2, 443527, Note_on_c, 0, 50, 46
2, 443616, Note_on_c, 0, 69, 0
2, 443633, Control_c, 0, 64, 127
2, 443760, Note_on_c, 0, 62, 0
2, 443766, Note_on_c, 0, 72, 0
2, 444396, Note_on_c, 0, 71, 98
2, 444409, Note_on_c, 0, 62, 88
2, 444411, Note_on_c, 0, 74, 87
2, 444486, Control_c, 0, 64, 0
2, 444730, Control_c, 0, 64, 127
2, 445075, Note_on_c, 0, 62, 0
2, 445437, Note_on_c, 0, 62, 66
2, 446007, Note_on_c, 0, 62, 0
2, 446349, Note_on_c, 0, 50, 0
2, 446363, Note_on_c, 0, 62, 56
2, 446487, Note_on_c, 0, 71, 0
2, 446669, Note_on_c, 0, 74, 0
2, 446764, Note_on_c, 0, 62, 0
2, 447301, Note_on_c, 0, 72, 28
2, 447330, Control_c, 0, 64, 0
2, 447335, Note_on_c, 0, 69, 25
2, 447343, Note_on_c, 0, 62, 20
2, 447349, Note_on_c, 0, 50, 28
2, 447377, Note_on_c, 0, 60, 23
2, 447940, Note_on_c, 0, 62, 0
2, 447993, Control_c, 0, 64, 127
2, 448325, Note_on_c, 0, 62, 48
2, 448662, Note_on_c, 0, 50, 0
2, 448797, Note_on_c, 0, 62, 0
2, 448819, Note_on_c, 0, 60, 0
2, 449037, Note_on_c, 0, 69, 0
2, 449265, Note_on_c, 0, 62, 37
2, 449278, Control_c, 0, 64, 0
2, 449311, Note_on_c, 0, 50, 24
2, 449340, Note_on_c, 0, 59, 27
2, 449783, Control_c, 0, 64, 127
2, 449825, Note_on_c, 0, 62, 0
2, 450015, Note_on_c, 0, 59, 0
2, 450089, Note_on_c, 0, 72, 0
2, 450192, Note_on_c, 0, 62, 35
2, 450224, Note_on_c, 0, 71, 27
2, 450237, Note_on_c, 0, 67, 25
2, 450260, Note_on_c, 0, 59, 20
2, 450868, Note_on_c, 0, 62, 0
2, 451022, Note_on_c, 0, 67, 0
2, 451117, Note_on_c, 0, 59, 0
2, 451155, Note_on_c, 0, 62, 29
2, 451452, Note_on_c, 0, 62, 0
2, 451935, Note_on_c, 0, 71, 0
2, 452064, Control_c, 0, 64, 0
2, 452139, Note_on_c, 0, 55, 16
2, 452142, Note_on_c, 0, 60, 24
2, 452145, Note_on_c, 0, 62, 20
2, 452155, Note_on_c, 0, 57, 29
2, 452223, Note_on_c, 0, 62, 0
2, 452311, Control_c, 0, 64, 127
2, 452986, Note_on_c, 0, 60, 0
2, 453532, Note_on_c, 0, 71, 42
2, 453681, Note_on_c, 0, 71, 0
2, 453713, Note_on_c, 0, 57, 0
2, 453795, Note_on_c, 0, 72, 60
2, 453913, Note_on_c, 0, 55, 0
2, 453995, Note_on_c, 0, 72, 0
2, 454136, Note_on_c, 0, 76, 68
2, 454158, Note_on_c, 0, 55, 8
2, 454160, Note_on_c, 0, 57, 23
2, 454164, Note_on_c, 0, 60, 17
2, 454403, Note_on_c, 0, 76, 0
2, 454449, Note_on_c, 0, 79, 56
2, 454535, Note_on_c, 0, 79, 0
2, 454733, Note_on_c, 0, 83, 84
2, 454737, Note_on_c, 0, 55, 0
2, 454790, Note_on_c, 0, 50, 0
2, 455006, Note_on_c, 0, 83, 0
2, 455023, Control_c, 0, 64, 0
2, 455025, Note_on_c, 0, 60, 0
2, 455057, Note_on_c, 0, 57, 0
2, 455058, Note_on_c, 0, 86, 77
2, 455082, Note_on_c, 0, 50, 48
2, 455270, Control_c, 0, 64, 127
2, 455278, Note_on_c, 0, 86, 0
2, 455450, Note_on_c, 0, 90, 55
2, 455640, Note_on_c, 0, 90, 0
2, 456050, Control_c, 0, 64, 0
2, 456057, Note_on_c, 0, 93, 66
2, 456063, Note_on_c, 0, 62, 19
2, 456101, Note_on_c, 0, 59, 22
2, 456210, Note_on_c, 0, 93, 0
2, 456664, Note_on_c, 0, 90, 46
2, 456782, Note_on_c, 0, 90, 0
2, 457132, Control_c, 0, 64, 127
2, 457172, Note_on_c, 0, 59, 0
2, 457240, Note_on_c, 0, 62, 0
2, 457340, Note_on_c, 0, 86, 40
2, 457446, Note_on_c, 0, 86, 0
2, 457912, Control_c, 0, 64, 0
2, 457990, Note_on_c, 0, 57, 17
2, 457993, Note_on_c, 0, 55, 15
2, 458014, Note_on_c, 0, 60, 7
2, 458518, Note_on_c, 0, 91, 60
2, 458675, Note_on_c, 0, 91, 0
2, 458953, Note_on_c, 0, 87, 54
2, 459058, Note_on_c, 0, 88, 40
2, 459067, Note_on_c, 0, 87, 0
2, 459171, Note_on_c, 0, 88, 0
2, 459470, Note_on_c, 0, 84, 38
2, 459536, Note_on_c, 0, 84, 0
2, 459577, Note_on_c, 0, 57, 0
2, 459577, Note_on_c, 0, 60, 0
2, 459734, Note_on_c, 0, 55, 0
2, 459967, Note_on_c, 0, 86, 51
2, 460014, Note_on_c, 0, 57, 14
2, 460018, Note_on_c, 0, 60, 11
2, 460020, Note_on_c, 0, 55, 6
2, 460167, Note_on_c, 0, 86, 0
2, 460290, Note_on_c, 0, 83, 15
2, 460372, Note_on_c, 0, 83, 0
2, 460696, Note_on_c, 0, 55, 0
2, 460742, Note_on_c, 0, 50, 0
2, 460756, Control_c, 0, 64, 127
2, 460886, Control_c, 0, 64, 0
2, 460889, Note_on_c, 0, 57, 0
2, 460907, Note_on_c, 0, 50, 30
2, 460910, Note_on_c, 0, 60, 0
2, 461478, Control_c, 0, 64, 127
2, 461665, Control_c, 0, 64, 0
2, 461786, Note_on_c, 0, 86, 42
2, 461832, Note_on_c, 0, 62, 42
2, 461835, Note_on_c, 0, 59, 42
2, 461885, Note_on_c, 0, 86, 0
2, 461938, Note_on_c, 0, 62, 0
2, 462054, Note_on_c, 0, 83, 39
2, 462167, Note_on_c, 0, 83, 0
2, 462641, Note_on_c, 0, 74, 32
2, 462748, Note_on_c, 0, 74, 0
2, 462887, Note_on_c, 0, 71, 28
2, 462913, Note_on_c, 0, 62, 28
2, 463190, Note_on_c, 0, 59, 0
2, 463207, Note_on_c, 0, 62, 0
2, 463224, Control_c, 0, 64, 127
2, 463758, Control_c, 0, 64, 0
2, 463760, Note_on_c, 0, 50, 22
2, 463869, Note_on_c, 0, 71, 0
2, 464239, Note_on_c, 0, 60, 16
2, 464437, Control_c, 0, 64, 127
2, 464597, Control_c, 0, 64, 0
2, 464689, Note_on_c, 0, 88, 13
2, 464970, Note_on_c, 0, 60, 0
2, 464972, Note_on_c, 0, 88, 0
2, 465008, Note_on_c, 0, 84, 12
2, 465046, Note_on_c, 0, 50, 0
2, 465144, Control_c, 0, 64, 127
2, 465318, Control_c, 0, 64, 0
2, 465386, Note_on_c, 0, 84, 0
2, 465594, Note_on_c, 0, 83, 9
2, 465630, Note_on_c, 0, 55, 9
2, 465651, Control_c, 0, 64, 127
2, 465782, Note_on_c, 0, 55, 0
2, 465878, Note_on_c, 0, 83, 0
2, 465907, Note_on_c, 0, 86, 8
2, 466031, Note_on_c, 0, 50, 0
2, 466140, Note_on_c, 0, 86, 0
2, 466237, Note_on_c, 0, 84, 7
2, 466516, Control_c, 0, 64, 0
2, 466559, Note_on_c, 0, 50, 6
2, 466878, Control_c, 0, 64, 127
2, 467803, Note_on_c, 0, 50, 0
2, 468474, Note_on_c, 0, 38, 1
2, 469218, Note_on_c, 0, 38, 0
2, 469860, Note_on_c, 0, 84, 0
2, 470463, Note_on_c, 0, 26, 2
2, 470630, Note_on_c, 0, 26, 0
2, 473620, Control_c, 0, 64, 0
2, 473620, End_track
3, 0, Start_track
3, 0, Title_t, "Bass"
3, 0, Program_c, 1, 32
3, 23073, Note_on_c, 1, 38, 74
3, 28896, Note_on_c, 1, 50, 56
3, 29411, Note_on_c, 1, 52, 53
3, 29606, Note_on_c, 1, 50, 0
3, 29684, Note_on_c, 1, 52, 0
3, 29758, Note_on_c, 1, 50, 53
3, 30323, Note_on_c, 1, 38, 0
3, 30438, Note_on_c, 1, 45, 22
3, 30537, Note_on_c, 1, 50, 0
3, 30561, Note_on_c, 1, 45, 0
3, 30757, Note_on_c, 1, 38, 58
3, 35145, Note_on_c, 1, 52, 85
3, 35500, Note_on_c, 1, 52, 0
3, 35513, Note_on_c, 1, 38, 0
3, 35573, Note_on_c, 1, 50, 80
3, 37131, Note_on_c, 1, 38, 57
3, 37389, Note_on_c, 1, 50, 0
3, 37422, Note_on_c, 1, 38, 0
3, 37510, Note_on_c, 1, 37, 76
3, 39982, Note_on_c, 1, 37, 0
3, 39992, Note_on_c, 1, 35, 74
3, 40349, Note_on_c, 1, 35, 0
3, 40390, Note_on_c, 1, 36, 109
3, 43187, Note_on_c, 1, 34, 99
3, 43275, Note_on_c, 1, 36, 0
3, 45667, Note_on_c, 1, 34, 0
3, 45737, Note_on_c, 1, 31, 74
3, 45881, Note_on_c, 1, 31, 0
3, 46067, Note_on_c, 1, 28, 100
3, 48942, Note_on_c, 1, 28, 0
3, 48965, Note_on_c, 1, 33, 78
3, 51251, Note_on_c, 1, 43, 55
3, 51374, Note_on_c, 1, 43, 0
3, 51467, Note_on_c, 1, 33, 0
3, 51542, Note_on_c, 1, 42, 78
3, 51715, Note_on_c, 1, 42, 0
3, 51899, Note_on_c, 1, 40, 71
3, 52825, Note_on_c, 1, 28, 77
3, 53392, Note_on_c, 1, 40, 0
3, 53766, Note_on_c, 1, 33, 97
3, 53857, Note_on_c, 1, 28, 0
3, 56652, Note_on_c, 1, 45, 74
3, 56705, Note_on_c, 1, 45, 0
3, 57265, Note_on_c, 1, 47, 98
3, 57472, Note_on_c, 1, 47, 0
3, 57597, Note_on_c, 1, 45, 116
3, 57598, Note_on_c, 1, 33, 0
3, 58240, Note_on_c, 1, 40, 43
3, 58291, Note_on_c, 1, 45, 0
3, 58550, Note_on_c, 1, 40, 0
3, 58565, Note_on_c, 1, 33, 83
3, 62757, Note_on_c, 1, 40, 55
3, 62931, Note_on_c, 1, 33, 0
3, 63075, Note_on_c, 1, 43, 34
3, 63107, Note_on_c, 1, 45, 22
3, 63161, Note_on_c, 1, 45, 0
3, 63205, Note_on_c, 1, 43, 0
3, 63422, Note_on_c, 1, 51, 85
3, 63870, Note_on_c, 1, 40, 0
3, 64289, Note_on_c, 1, 51, 0
3, 64331, Note_on_c, 1, 48, 46
3, 65249, Note_on_c, 1, 48, 0
3, 65254, Note_on_c, 1, 39, 54
3, 67120, Note_on_c, 1, 39, 0
3, 67169, Note_on_c, 1, 38, 42
3, 67720, Note_on_c, 1, 38, 0
3, 67779, Note_on_c, 1, 40, 60
3, 68037, Note_on_c, 1, 40, 0
3, 68153, Note_on_c, 1, 42, 42
3, 68761, Note_on_c, 1, 51, 85
3, 68865, Note_on_c, 1, 42, 0
3, 69094, Note_on_c, 1, 51, 0
3, 69153, Note_on_c, 1, 50, 68
3, 69360, Note_on_c, 1, 50, 0
3, 69693, Note_on_c, 1, 38, 52
3, 71022, Note_on_c, 1, 38, 0
3, 71134, Note_on_c, 1, 38, 78
3, 73590, Note_on_c, 1, 37, 46
3, 73624, Note_on_c, 1, 38, 0
3, 73840, Note_on_c, 1, 37, 0
3, 73942, Note_on_c, 1, 38, 98
3, 74515, Note_on_c, 1, 37, 39
3, 74640, Note_on_c, 1, 38, 0
3, 74803, Note_on_c, 1, 37, 0
3, 74856, Note_on_c, 1, 38, 106
3, 76472, Note_on_c, 1, 50, 125
3, 78795, Note_on_c, 1, 38, 0
3, 80283, Note_on_c, 1, 38, 57
3, 80441, Note_on_c, 1, 38, 0
3, 80680, Note_on_c, 1, 38, 93
3, 81200, Note_on_c, 1, 38, 0
3, 81598, Note_on_c, 1, 38, 96
3, 81720, Note_on_c, 1, 50, 0
3, 83505, Note_on_c, 1, 37, 95
3, 83560, Note_on_c, 1, 38, 0
3, 86368, Note_on_c, 1, 37, 0
3, 86422, Note_on_c, 1, 36, 85
3, 89273, Note_on_c, 1, 36, 0
3, 89285, Note_on_c, 1, 41, 70
3, 90278, Note_on_c, 1, 47, 74
3, 90280, Note_on_c, 1, 41, 0
3, 91563, Note_on_c, 1, 38, 46
3, 91625, Note_on_c, 1, 47, 0
3, 91731, Note_on_c, 1, 38, 0
3, 91853, Note_on_c, 1, 39, 70
3, 92121, Note_on_c, 1, 39, 0
3, 92208, Note_on_c, 1, 40, 84
3, 93789, Note_on_c, 1, 39, 24
3, 93968, Note_on_c, 1, 39, 0
3, 94713, Note_on_c, 1, 52, 107
3, 95024, Note_on_c, 1, 52, 0
3, 95033, Note_on_c, 1, 40, 0
3, 95109, Note_on_c, 1, 50, 82
3, 95985, Note_on_c, 1, 50, 0
3, 96013, Note_on_c, 1, 38, 91
3, 97845, Note_on_c, 1, 38, 0
3, 97904, Note_on_c, 1, 37, 94
3, 100806, Note_on_c, 1, 42, 88
3, 100821, Note_on_c, 1, 37, 0
3, 103570, Note_on_c, 1, 42, 0
3, 103643, Note_on_c, 1, 35, 91
3, 106528, Note_on_c, 1, 35, 0
3, 106552, Note_on_c, 1, 28, 110
3, 106578, Note_on_c, 1, 35, 26
3, 106640, Note_on_c, 1, 35, 0
3, 109422, Note_on_c, 1, 28, 0
3, 109470, Note_on_c, 1, 33, 106
3, 111331, Note_on_c, 1, 33, 0
3, 111387, Note_on_c, 1, 40, 78
3, 111533, Note_on_c, 1, 40, 0
3, 112030, Note_on_c, 1, 39, 76
3, 112296, Note_on_c, 1, 39, 0
3, 112361, Note_on_c, 1, 38, 57
3, 113311, Note_on_c, 1, 45, 89
3, 113429, Note_on_c, 1, 38, 0
3, 114862, Note_on_c, 1, 38, 84
3, 114952, Note_on_c, 1, 45, 0
3, 116206, Note_on_c, 1, 50, 109
3, 118537, Note_on_c, 1, 38, 0
3, 118704, Note_on_c, 1, 37, 50
3, 118971, Note_on_c, 1, 37, 0
3, 119072, Note_on_c, 1, 38, 88
3, 119598, Note_on_c, 1, 38, 0
3, 119705, Note_on_c, 1, 37, 58
3, 119963, Note_on_c, 1, 37, 0
3, 120027, Note_on_c, 1, 38, 80
3, 122598, Note_on_c, 1, 37, 26
3, 122665, Note_on_c, 1, 50, 0
3, 122813, Note_on_c, 1, 37, 0
3, 122899, Note_on_c, 1, 50, 96
3, 125625, Note_on_c, 1, 38, 0
3, 126713, Note_on_c, 1, 38, 90
3, 126805, Note_on_c, 1, 50, 0
3, 129557, Note_on_c, 1, 37, 94
3, 129632, Note_on_c, 1, 38, 0
3, 132232, Note_on_c, 1, 34, 42
3, 132389, Note_on_c, 1, 37, 0
3, 132433, Note_on_c, 1, 34, 0
3, 132493, Note_on_c, 1, 36, 106
3, 136297, Note_on_c, 1, 36, 0
3, 136305, Note_on_c, 1, 34, 86
3, 137832, Note_on_c, 1, 34, 0
3, 137889, Note_on_c, 1, 39, 83
3, 138278, Note_on_c, 1, 39, 0
3, 138337, Note_on_c, 1, 40, 78
3, 139256, Note_on_c, 1, 52, 100
3, 142022, Note_on_c, 1, 40, 0
3, 143013, Note_on_c, 1, 45, 91
3, 143622, Note_on_c, 1, 45, 0
3, 143656, Note_on_c, 1, 39, 55
3, 143904, Note_on_c, 1, 39, 0
3, 143926, Note_on_c, 1, 52, 0
3, 143992, Note_on_c, 1, 40, 73
3, 144905, Note_on_c, 1, 40, 0
3, 144933, Note_on_c, 1, 33, 92
3, 147885, Note_on_c, 1, 45, 103
3, 149440, Note_on_c, 1, 40, 41
3, 149446, Note_on_c, 1, 45, 0
3, 149630, Note_on_c, 1, 33, 0
3, 149696, Note_on_c, 1, 40, 0
3, 149782, Note_on_c, 1, 45, 106
3, 152654, Note_on_c, 1, 40, 78
3, 152731, Note_on_c, 1, 45, 0
3, 155478, Note_on_c, 1, 40, 0
3, 155533, Note_on_c, 1, 39, 85
3, 158337, Note_on_c, 1, 39, 0
3, 158393, Note_on_c, 1, 38, 85
3, 158413, Note_on_c, 1, 39, 18
3, 158480, Note_on_c, 1, 39, 0
3, 160659, Note_on_c, 1, 38, 0
3, 161310, Note_on_c, 1, 50, 127
3, 162803, Note_on_c, 1, 50, 0
3, 162867, Note_on_c, 1, 52, 92
3, 162899, Note_on_c, 1, 50, 37
3, 162960, Note_on_c, 1, 50, 0
3, 163185, Note_on_c, 1, 52, 0
3, 163269, Note_on_c, 1, 50, 77
3, 164769, Note_on_c, 1, 37, 72
3, 165037, Note_on_c, 1, 50, 0
3, 165073, Note_on_c, 1, 37, 0
3, 165149, Note_on_c, 1, 38, 61
3, 165845, Note_on_c, 1, 37, 31
3, 166033, Note_on_c, 1, 37, 0
3, 166120, Note_on_c, 1, 50, 107
3, 166289, Note_on_c, 1, 50, 0
3, 166433, Note_on_c, 1, 52, 70
3, 166597, Note_on_c, 1, 38, 0
3, 166664, Note_on_c, 1, 52, 0
3, 166768, Note_on_c, 1, 50, 104
3, 167093, Note_on_c, 1, 50, 0
3, 167150, Note_on_c, 1, 38, 62
3, 167995, Note_on_c, 1, 38, 0
3, 168107, Note_on_c, 1, 38, 82
3, 170608, Note_on_c, 1, 37, 31
3, 170792, Note_on_c, 1, 37, 0
3, 170827, Note_on_c, 1, 38, 0
3, 170953, Note_on_c, 1, 50, 101
3, 171197, Note_on_c, 1, 50, 0
3, 171246, Note_on_c, 1, 52, 82
3, 171513, Note_on_c, 1, 52, 0
3, 171579, Note_on_c, 1, 50, 106
3, 172189, Note_on_c, 1, 50, 0
3, 172273, Note_on_c, 1, 52, 82
3, 172502, Note_on_c, 1, 52, 0
3, 172566, Note_on_c, 1, 50, 92
3, 172766, Note_on_c, 1, 50, 0
3, 172897, Note_on_c, 1, 38, 56
3, 173729, Note_on_c, 1, 38, 0
3, 173849, Note_on_c, 1, 38, 70
3, 175277, Note_on_c, 1, 38, 0
3, 175304, Note_on_c, 1, 50, 72
3, 175643, Note_on_c, 1, 50, 0
3, 175677, Note_on_c, 1, 49, 88
3, 178265, Note_on_c, 1, 37, 93
3, 178310, Note_on_c, 1, 49, 0
3, 178584, Note_on_c, 1, 37, 0
3, 178645, Note_on_c, 1, 48, 118
3, 180937, Note_on_c, 1, 36, 64
3, 181038, Note_on_c, 1, 48, 0
3, 181048, Note_on_c, 1, 36, 0
3, 181184, Note_on_c, 1, 35, 82
3, 181351, Note_on_c, 1, 35, 0
3, 181501, Note_on_c, 1, 34, 95
3, 182473, Note_on_c, 1, 46, 104
3, 183529, Note_on_c, 1, 34, 0
3, 184025, Note_on_c, 1, 34, 61
3, 184257, Note_on_c, 1, 34, 0
3, 184284, Note_on_c, 1, 46, 0
3, 184401, Note_on_c, 1, 52, 93
3, 185568, Note_on_c, 1, 52, 0
3, 185595, Note_on_c, 1, 47, 46
3, 185790, Note_on_c, 1, 47, 0
3, 185872, Note_on_c, 1, 43, 69
3, 186049, Note_on_c, 1, 43, 0
3, 186227, Note_on_c, 1, 40, 68
3, 186921, Note_on_c, 1, 46, 94
3, 186960, Note_on_c, 1, 40, 0
3, 187179, Note_on_c, 1, 46, 0
3, 187270, Note_on_c, 1, 45, 78
3, 187453, Note_on_c, 1, 45, 0
3, 187859, Note_on_c, 1, 40, 70
3, 188024, Note_on_c, 1, 40, 0
3, 188177, Note_on_c, 1, 33, 84
3, 189773, Note_on_c, 1, 33, 0
3, 189799, Note_on_c, 1, 39, 90
3, 190152, Note_on_c, 1, 39, 0
3, 190160, Note_on_c, 1, 40, 85
3, 190787, Note_on_c, 1, 39, 62
3, 191022, Note_on_c, 1, 40, 0
3, 191054, Note_on_c, 1, 52, 97
3, 191056, Note_on_c, 1, 39, 0
3, 191761, Note_on_c, 1, 39, 27
3, 191872, Note_on_c, 1, 39, 0
3, 192560, Note_on_c, 1, 52, 0
3, 192627, Note_on_c, 1, 54, 57
3, 192801, Note_on_c, 1, 54, 0
3, 192966, Note_on_c, 1, 57, 118
3, 193601, Note_on_c, 1, 42, 20
3, 193659, Note_on_c, 1, 42, 0
3, 194552, Note_on_c, 1, 57, 0
3, 194569, Note_on_c, 1, 52, 70
3, 194685, Note_on_c, 1, 52, 0
3, 194950, Note_on_c, 1, 45, 60
3, 195449, Note_on_c, 1, 45, 0
3, 195566, Note_on_c, 1, 40, 64
3, 195755, Note_on_c, 1, 40, 0
3, 195910, Note_on_c, 1, 33, 82
3, 198429, Note_on_c, 1, 40, 53
3, 198678, Note_on_c, 1, 40, 0
3, 198781, Note_on_c, 1, 47, 107
3, 199379, Note_on_c, 1, 46, 75
3, 199398, Note_on_c, 1, 47, 0
3, 199635, Note_on_c, 1, 33, 0
3, 199736, Note_on_c, 1, 46, 0
3, 199758, Note_on_c, 1, 45, 71
3, 201345, Note_on_c, 1, 40, 63
3, 201536, Note_on_c, 1, 40, 0
3, 201616, Note_on_c, 1, 45, 0
3, 201697, Note_on_c, 1, 33, 70
3, 202579, Note_on_c, 1, 33, 0
3, 202637, Note_on_c, 1, 39, 95
3, 205112, Note_on_c, 1, 39, 0
3, 205237, Note_on_c, 1, 39, 36
3, 205445, Note_on_c, 1, 39, 0
3, 205525, Note_on_c, 1, 51, 100
3, 206195, Note_on_c, 1, 39, 70
3, 206363, Note_on_c, 1, 39, 0
3, 206408, Note_on_c, 1, 51, 0
3, 206494, Note_on_c, 1, 50, 93
3, 207277, Note_on_c, 1, 50, 0
3, 207448, Note_on_c, 1, 50, 100
3, 208091, Note_on_c, 1, 49, 73
3, 208110, Note_on_c, 1, 50, 0
3, 208254, Note_on_c, 1, 49, 0
3, 208382, Note_on_c, 1, 50, 76
3, 209080, Note_on_c, 1, 38, 93
3, 209081, Note_on_c, 1, 50, 0
3, 212185, Note_on_c, 1, 50, 101
3, 212270, Note_on_c, 1, 38, 0
3, 212493, Note_on_c, 1, 49, 77
3, 212501, Note_on_c, 1, 50, 0
3, 212664, Note_on_c, 1, 49, 0
3, 212779, Note_on_c, 1, 50, 101
3, 213689, Note_on_c, 1, 38, 92
3, 213787, Note_on_c, 1, 50, 0
3, 214280, Note_on_c, 1, 38, 0
3, 214383, Note_on_c, 1, 38, 92
3, 214965, Note_on_c, 1, 38, 0
3, 215081, Note_on_c, 1, 38, 87
3, 217048, Note_on_c, 1, 50, 107
3, 217096, Note_on_c, 1, 38, 0
3, 217681, Note_on_c, 1, 49, 75
3, 217693, Note_on_c, 1, 50, 0
3, 217763, Note_on_c, 1, 38, 28
3, 217936, Note_on_c, 1, 49, 0
3, 217944, Note_on_c, 1, 38, 0
3, 218014, Note_on_c, 1, 50, 70
3, 218541, Note_on_c, 1, 50, 0
3, 218561, Note_on_c, 1, 49, 67
3, 218728, Note_on_c, 1, 49, 0
3, 218851, Note_on_c, 1, 50, 70
3, 219494, Note_on_c, 1, 38, 90
3, 219505, Note_on_c, 1, 50, 0
3, 219755, Note_on_c, 1, 38, 0
3, 219851, Note_on_c, 1, 38, 96
3, 221011, Note_on_c, 1, 38, 0
3, 221120, Note_on_c, 1, 50, 71
3, 221233, Note_on_c, 1, 50, 0
3, 221427, Note_on_c, 1, 38, 72
3, 221633, Note_on_c, 1, 38, 0
3, 221747, Note_on_c, 1, 37, 92
3, 224158, Note_on_c, 1, 49, 99
3, 224184, Note_on_c, 1, 37, 0
3, 224323, Note_on_c, 1, 49, 0
3, 224419, Note_on_c, 1, 37, 85
3, 224701, Note_on_c, 1, 48, 114
3, 224806, Note_on_c, 1, 37, 0
3, 227200, Note_on_c, 1, 36, 55
3, 227395, Note_on_c, 1, 36, 0
3, 227550, Note_on_c, 1, 48, 0
3, 227593, Note_on_c, 1, 47, 50
3, 228211, Note_on_c, 1, 41, 57
3, 228299, Note_on_c, 1, 47, 0
3, 228376, Note_on_c, 1, 41, 0
3, 228461, Note_on_c, 1, 53, 78
3, 230126, Note_on_c, 1, 59, 110
3, 230273, Note_on_c, 1, 53, 0
3, 231060, Note_on_c, 1, 59, 0
3, 231070, Note_on_c, 1, 52, 91
3, 232789, Note_on_c, 1, 47, 50
3, 232854, Note_on_c, 1, 52, 0
3, 232982, Note_on_c, 1, 47, 0
3, 233104, Note_on_c, 1, 51, 85
3, 233414, Note_on_c, 1, 51, 0
3, 233441, Note_on_c, 1, 50, 81
3, 235203, Note_on_c, 1, 50, 0
3, 235269, Note_on_c, 1, 38, 55
3, 235551, Note_on_c, 1, 38, 0
3, 235920, Note_on_c, 1, 38, 53
3, 236081, Note_on_c, 1, 38, 0
3, 236251, Note_on_c, 1, 37, 55
3, 237177, Note_on_c, 1, 49, 85
3, 238376, Note_on_c, 1, 37, 0
3, 238803, Note_on_c, 1, 37, 46
3, 238955, Note_on_c, 1, 49, 0
3, 238988, Note_on_c, 1, 37, 0
3, 239121, Note_on_c, 1, 54, 87
3, 241741, Note_on_c, 1, 46, 22
3, 241797, Note_on_c, 1, 54, 0
3, 241958, Note_on_c, 1, 46, 0
3, 241995, Note_on_c, 1, 47, 60
3, 242901, Note_on_c, 1, 42, 73
3, 242985, Note_on_c, 1, 47, 0
3, 243856, Note_on_c, 1, 42, 0
3, 243905, Note_on_c, 1, 35, 65
3, 244521, Note_on_c, 1, 35, 0
3, 244582, Note_on_c, 1, 39, 74
3, 244861, Note_on_c, 1, 39, 0
3, 244897, Note_on_c, 1, 40, 62
3, 245535, Note_on_c, 1, 39, 54
3, 245661, Note_on_c, 1, 40, 0
3, 245773, Note_on_c, 1, 54, 93
3, 245774, Note_on_c, 1, 39, 0
3, 246348, Note_on_c, 1, 39, 21
3, 246424, Note_on_c, 1, 41, 18
3, 246438, Note_on_c, 1, 39, 0
3, 246478, Note_on_c, 1, 41, 0
3, 246709, Note_on_c, 1, 54, 0
3, 246715, Note_on_c, 1, 52, 74
3, 247400, Note_on_c, 1, 46, 63
3, 247413, Note_on_c, 1, 52, 0
3, 247665, Note_on_c, 1, 46, 0
3, 247685, Note_on_c, 1, 45, 71
3, 248619, Note_on_c, 1, 45, 0
3, 248683, Note_on_c, 1, 40, 73
3, 249544, Note_on_c, 1, 40, 0
3, 249635, Note_on_c, 1, 37, 74
3, 250597, Note_on_c, 1, 38, 72
3, 250599, Note_on_c, 1, 37, 0
3, 251565, Note_on_c, 1, 40, 64
3, 251579, Note_on_c, 1, 38, 0
3, 252235, Note_on_c, 1, 38, 54
3, 252317, Note_on_c, 1, 40, 0
3, 252477, Note_on_c, 1, 38, 0
3, 252507, Note_on_c, 1, 51, 84
3, 253155, Note_on_c, 1, 45, 36
3, 253230, Note_on_c, 1, 45, 0
3, 253355, Note_on_c, 1, 51, 0
3, 253406, Note_on_c, 1, 50, 74
3, 254158, Note_on_c, 1, 45, 27
3, 254245, Note_on_c, 1, 45, 0
3, 254373, Note_on_c, 1, 50, 0
3, 254462, Note_on_c, 1, 38, 55
3, 255366, Note_on_c, 1, 50, 79
3, 256001, Note_on_c, 1, 45, 29
3, 256059, Note_on_c, 1, 50, 0
3, 256201, Note_on_c, 1, 45, 0
3, 256281, Note_on_c, 1, 50, 70
3, 256365, Note_on_c, 1, 38, 0
3, 257179, Note_on_c, 1, 50, 0
3, 257216, Note_on_c, 1, 38, 64
3, 257960, Note_on_c, 1, 45, 67
3, 258035, Note_on_c, 1, 45, 0
3, 258173, Note_on_c, 1, 50, 109
3, 258249, Note_on_c, 1, 38, 0
3, 258905, Note_on_c, 1, 45, 23
3, 258987, Note_on_c, 1, 50, 0
3, 259081, Note_on_c, 1, 45, 0
3, 259179, Note_on_c, 1, 50, 96
3, 260089, Note_on_c, 1, 50, 0
3, 260137, Note_on_c, 1, 38, 79
3, 261811, Note_on_c, 1, 50, 123
3, 262056, Note_on_c, 1, 50, 0
3, 262153, Note_on_c, 1, 50, 91
3, 262334, Note_on_c, 1, 38, 0
3, 263045, Note_on_c, 1, 38, 85
3, 263059, Note_on_c, 1, 50, 0
3, 264019, Note_on_c, 1, 50, 103
3, 264200, Note_on_c, 1, 38, 0
3, 264670, Note_on_c, 1, 38, 77
3, 264707, Note_on_c, 1, 50, 0
3, 264974, Note_on_c, 1, 50, 114
3, 264985, Note_on_c, 1, 38, 0
3, 265907, Note_on_c, 1, 50, 0
3, 265931, Note_on_c, 1, 38, 90
3, 266928, Note_on_c, 1, 50, 112
3, 267045, Note_on_c, 1, 38, 0
3, 267549, Note_on_c, 1, 50, 0
3, 267577, Note_on_c, 1, 38, 69
3, 267771, Note_on_c, 1, 38, 0
3, 267872, Note_on_c, 1, 37, 84
3, 268793, Note_on_c, 1, 49, 82
3, 268869, Note_on_c, 1, 37, 0
3, 269534, Note_on_c, 1, 37, 29
3, 269590, Note_on_c, 1, 49, 0
3, 269691, Note_on_c, 1, 37, 0
3, 269809, Note_on_c, 1, 49, 84
3, 270461, Note_on_c, 1, 37, 59
3, 270641, Note_on_c, 1, 49, 0
3, 270672, Note_on_c, 1, 37, 0
3, 270794, Note_on_c, 1, 36, 79
3, 271712, Note_on_c, 1, 48, 84
3, 271760, Note_on_c, 1, 36, 0
3, 272365, Note_on_c, 1, 36, 71
3, 272515, Note_on_c, 1, 36, 0
3, 272606, Note_on_c, 1, 48, 0
3, 272659, Note_on_c, 1, 52, 75
3, 273297, Note_on_c, 1, 48, 70
3, 273323, Note_on_c, 1, 52, 0
3, 273425, Note_on_c, 1, 48, 0
3, 273609, Note_on_c, 1, 46, 54
3, 274433, Note_on_c, 1, 46, 0
3, 274555, Note_on_c, 1, 46, 71
3, 276125, Note_on_c, 1, 43, 46
3, 276141, Note_on_c, 1, 46, 0
3, 276366, Note_on_c, 1, 43, 0
3, 276497, Note_on_c, 1, 40, 70
3, 277429, Note_on_c, 1, 40, 0
3, 277468, Note_on_c, 1, 47, 68
3, 278411, Note_on_c, 1, 43, 63
3, 278453, Note_on_c, 1, 47, 0
3, 279008, Note_on_c, 1, 43, 0
3, 279058, Note_on_c, 1, 44, 69
3, 279384, Note_on_c, 1, 45, 64
3, 279395, Note_on_c, 1, 44, 0
3, 280064, Note_on_c, 1, 44, 40
3, 280168, Note_on_c, 1, 45, 0
3, 280286, Note_on_c, 1, 59, 100
3, 280305, Note_on_c, 1, 44, 0
3, 280937, Note_on_c, 1, 44, 23
3, 280963, Note_on_c, 1, 58, 80
3, 281019, Note_on_c, 1, 59, 0
3, 281150, Note_on_c, 1, 44, 0
3, 281163, Note_on_c, 1, 58, 0
3, 281313, Note_on_c, 1, 57, 66
3, 281923, Note_on_c, 1, 57, 0
3, 281941, Note_on_c, 1, 51, 76
3, 282141, Note_on_c, 1, 51, 0
3, 282291, Note_on_c, 1, 52, 52
3, 282632, Note_on_c, 1, 52, 0
3, 282955, Note_on_c, 1, 47, 43
3, 283185, Note_on_c, 1, 47, 0
3, 283229, Note_on_c, 1, 40, 76
3, 283889, Note_on_c, 1, 40, 0
3, 284158, Note_on_c, 1, 40, 74
3, 284662, Note_on_c, 1, 40, 0
3, 284803, Note_on_c, 1, 28, 70
3, 285043, Note_on_c, 1, 28, 0
3, 285153, Note_on_c, 1, 33, 82
3, 285944, Note_on_c, 1, 33, 0
3, 286118, Note_on_c, 1, 33, 82
3, 286973, Note_on_c, 1, 33, 0
3, 287043, Note_on_c, 1, 37, 75
3, 287529, Note_on_c, 1, 37, 0
3, 287675, Note_on_c, 1, 34, 74
3, 287885, Note_on_c, 1, 34, 0
3, 288019, Note_on_c, 1, 33, 73
3, 288918, Note_on_c, 1, 33, 0
3, 288997, Note_on_c, 1, 36, 89
3, 289941, Note_on_c, 1, 36, 0
3, 289963, Note_on_c, 1, 40, 81
3, 290625, Note_on_c, 1, 36, 62
3, 290726, Note_on_c, 1, 40, 0
3, 290865, Note_on_c, 1, 36, 0
3, 290894, Note_on_c, 1, 47, 107
3, 291552, Note_on_c, 1, 40, 43
3, 291667, Note_on_c, 1, 40, 0
3, 291839, Note_on_c, 1, 45, 88
3, 291896, Note_on_c, 1, 47, 0
3, 292808, Note_on_c, 1, 40, 70
3, 292830, Note_on_c, 1, 45, 0
3, 293408, Note_on_c, 1, 40, 0
3, 293480, Note_on_c, 1, 34, 78
3, 293712, Note_on_c, 1, 34, 0
3, 293805, Note_on_c, 1, 33, 80
3, 294733, Note_on_c, 1, 33, 0
3, 294781, Note_on_c, 1, 39, 87
3, 295659, Note_on_c, 1, 39, 0
3, 295694, Note_on_c, 1, 36, 76
3, 296187, Note_on_c, 1, 36, 0
3, 296331, Note_on_c, 1, 37, 77
3, 296560, Note_on_c, 1, 37, 0
3, 296670, Note_on_c, 1, 38, 55
3, 297225, Note_on_c, 1, 37, 38
3, 297278, Note_on_c, 1, 52, 109
3, 297321, Note_on_c, 1, 38, 0
3, 297383, Note_on_c, 1, 37, 0
3, 298241, Note_on_c, 1, 38, 62
3, 298347, Note_on_c, 1, 38, 0
3, 298497, Note_on_c, 1, 52, 0
3, 298571, Note_on_c, 1, 50, 82
3, 298979, Note_on_c, 1, 50, 0
3, 299514, Note_on_c, 1, 38, 61
3, 300548, Note_on_c, 1, 50, 82
3, 301384, Note_on_c, 1, 50, 0
3, 301445, Note_on_c, 1, 38, 0
3, 301481, Note_on_c, 1, 50, 95
3, 304663, Note_on_c, 1, 64, 112
3, 304948, Note_on_c, 1, 63, 88
3, 305003, Note_on_c, 1, 64, 0
3, 305209, Note_on_c, 1, 63, 0
3, 305253, Note_on_c, 1, 62, 81
3, 305275, Note_on_c, 1, 50, 0
3, 305377, Note_on_c, 1, 62, 0
3, 305549, Note_on_c, 1, 50, 50
3, 305680, Note_on_c, 1, 50, 0
3, 305877, Note_on_c, 1, 38, 68
3, 305896, Note_on_c, 1, 40, 43
3, 305960, Note_on_c, 1, 40, 0
3, 306217, Note_on_c, 1, 38, 0
3, 306282, Note_on_c, 1, 38, 72
3, 306892, Note_on_c, 1, 38, 0
3, 306974, Note_on_c, 1, 38, 85
3, 306986, Note_on_c, 1, 40, 89
3, 307173, Note_on_c, 1, 40, 0
3, 309690, Note_on_c, 1, 50, 35
3, 309766, Note_on_c, 1, 50, 0
3, 310028, Note_on_c, 1, 52, 97
3, 310187, Note_on_c, 1, 52, 0
3, 310645, Note_on_c, 1, 51, 75
3, 310854, Note_on_c, 1, 38, 0
3, 310917, Note_on_c, 1, 51, 0
3, 311005, Note_on_c, 1, 50, 78
3, 311976, Note_on_c, 1, 38, 76
3, 312862, Note_on_c, 1, 38, 0
3, 313266, Note_on_c, 1, 40, 67
3, 313358, Note_on_c, 1, 40, 0
3, 313397, Note_on_c, 1, 50, 0
3, 313567, Note_on_c, 1, 38, 68
3, 313844, Note_on_c, 1, 38, 0
3, 313899, Note_on_c, 1, 37, 84
3, 313909, Note_on_c, 1, 53, 109
3, 316064, Note_on_c, 1, 37, 0
3, 316133, Note_on_c, 1, 38, 20
3, 316411, Note_on_c, 1, 37, 71
3, 316485, Note_on_c, 1, 38, 0
3, 316701, Note_on_c, 1, 53, 0
3, 316720, Note_on_c, 1, 37, 0
3, 316768, Note_on_c, 1, 54, 57
3, 316798, Note_on_c, 1, 36, 84
3, 318880, Note_on_c, 1, 36, 0
3, 319329, Note_on_c, 1, 36, 51
3, 319547, Note_on_c, 1, 54, 0
3, 319661, Note_on_c, 1, 36, 0
3, 319718, Note_on_c, 1, 34, 56
3, 321484, Note_on_c, 1, 34, 0
3, 321589, Note_on_c, 1, 34, 78
3, 322509, Note_on_c, 1, 34, 0
3, 322538, Note_on_c, 1, 40, 103
3, 324506, Note_on_c, 1, 35, 57
3, 324508, Note_on_c, 1, 40, 0
3, 324629, Note_on_c, 1, 35, 0
3, 325127, Note_on_c, 1, 34, 60
3, 325370, Note_on_c, 1, 34, 0
3, 325465, Note_on_c, 1, 33, 54
3, 326056, Note_on_c, 1, 47, 101
3, 326391, Note_on_c, 1, 47, 0
3, 326426, Note_on_c, 1, 45, 81
3, 327502, Note_on_c, 1, 33, 0
3, 327699, Note_on_c, 1, 38, 62
3, 327843, Note_on_c, 1, 38, 0
3, 327991, Note_on_c, 1, 39, 80
3, 328102, Note_on_c, 1, 45, 0
3, 328229, Note_on_c, 1, 39, 0
3, 328334, Note_on_c, 1, 40, 95
3, 332085, Note_on_c, 1, 40, 0
3, 332109, Note_on_c, 1, 33, 82
3, 333081, Note_on_c, 1, 45, 81
3, 333405, Note_on_c, 1, 33, 0
3, 334012, Note_on_c, 1, 45, 0
3, 334036, Note_on_c, 1, 33, 97
3, 337495, Note_on_c, 1, 47, 66
3, 337823, Note_on_c, 1, 47, 0
3, 337934, Note_on_c, 1, 45, 87
3, 337969, Note_on_c, 1, 33, 0
3, 339576, Note_on_c, 1, 40, 71
3, 339764, Note_on_c, 1, 40, 0
3, 339983, Note_on_c, 1, 33, 81
3, 340050, Note_on_c, 1, 45, 0
3, 340824, Note_on_c, 1, 39, 85
3, 340922, Note_on_c, 1, 33, 0
3, 342102, Note_on_c, 1, 39, 0
3, 342164, Note_on_c, 1, 36, 44
3, 342331, Note_on_c, 1, 36, 0
3, 342424, Note_on_c, 1, 37, 67
3, 342623, Note_on_c, 1, 37, 0
3, 342748, Note_on_c, 1, 38, 77
3, 343668, Note_on_c, 1, 54, 59
3, 345532, Note_on_c, 1, 38, 0
3, 345550, Note_on_c, 1, 50, 61
3, 345552, Note_on_c, 1, 54, 0
3, 346603, Note_on_c, 1, 38, 74
3, 347777, Note_on_c, 1, 50, 0
3, 349421, Note_on_c, 1, 50, 118
3, 349839, Note_on_c, 1, 50, 0
3, 350036, Note_on_c, 1, 52, 107
3, 350356, Note_on_c, 1, 52, 0
3, 350445, Note_on_c, 1, 50, 89
3, 350951, Note_on_c, 1, 50, 0
3, 350955, Note_on_c, 1, 38, 0
3, 351004, Note_on_c, 1, 49, 76
3, 351295, Note_on_c, 1, 49, 0
3, 351408, Note_on_c, 1, 50, 73
3, 352287, Note_on_c, 1, 50, 0
3, 352297, Note_on_c, 1, 38, 109
3, 355757, Note_on_c, 1, 50, 118
3, 356098, Note_on_c, 1, 50, 0
3, 356173, Note_on_c, 1, 50, 88
3, 356685, Note_on_c, 1, 50, 0
3, 356787, Note_on_c, 1, 52, 96
3, 357069, Note_on_c, 1, 52, 0
3, 357148, Note_on_c, 1, 50, 96
3, 357250, Note_on_c, 1, 38, 0
3, 358078, Note_on_c, 1, 50, 0
3, 358087, Note_on_c, 1, 38, 97
3, 359405, Note_on_c, 1, 38, 0
3, 359415, Note_on_c, 1, 40, 62
3, 359671, Note_on_c, 1, 40, 0
3, 359714, Note_on_c, 1, 38, 75
3, 359988, Note_on_c, 1, 38, 0
3, 360060, Note_on_c, 1, 37, 80
3, 360385, Note_on_c, 1, 51, 75
3, 360554, Note_on_c, 1, 51, 0
3, 360656, Note_on_c, 1, 52, 64
3, 360953, Note_on_c, 1, 52, 0
3, 360987, Note_on_c, 1, 53, 83
3, 362812, Note_on_c, 1, 53, 0
3, 362828, Note_on_c, 1, 37, 0
3, 362888, Note_on_c, 1, 36, 59
3, 365332, Note_on_c, 1, 36, 0
3, 365394, Note_on_c, 1, 40, 48
3, 365708, Note_on_c, 1, 40, 0
3, 365778, Note_on_c, 1, 41, 73
3, 366700, Note_on_c, 1, 29, 95
3, 366777, Note_on_c, 1, 41, 0
3, 368217, Note_on_c, 1, 29, 0
3, 368602, Note_on_c, 1, 28, 112
3, 370959, Note_on_c, 1, 35, 73
3, 371061, Note_on_c, 1, 35, 0
3, 371216, Note_on_c, 1, 28, 0
3, 371289, Note_on_c, 1, 40, 80
3, 371604, Note_on_c, 1, 40, 0
3, 371623, Note_on_c, 1, 38, 80
3, 374467, Note_on_c, 1, 37, 79
3, 374515, Note_on_c, 1, 38, 0
3, 376237, Note_on_c, 1, 37, 0
3, 376332, Note_on_c, 1, 32, 69
3, 376483, Note_on_c, 1, 32, 0
3, 376931, Note_on_c, 1, 31, 66
3, 377238, Note_on_c, 1, 31, 0
3, 377294, Note_on_c, 1, 30, 57
3, 378235, Note_on_c, 1, 42, 95
3, 378354, Note_on_c, 1, 30, 0
3, 380132, Note_on_c, 1, 42, 0
3, 380175, Note_on_c, 1, 35, 88
3, 383064, Note_on_c, 1, 40, 70
3, 383142, Note_on_c, 1, 35, 0
3, 384681, Note_on_c, 1, 34, 38
3, 384950, Note_on_c, 1, 47, 80
3, 384989, Note_on_c, 1, 40, 0
3, 384991, Note_on_c, 1, 34, 0
3, 385522, Note_on_c, 1, 47, 0
3, 385588, Note_on_c, 1, 46, 86
3, 385947, Note_on_c, 1, 46, 0
3, 386023, Note_on_c, 1, 45, 74
3, 388494, Note_on_c, 1, 37, 50
3, 388733, Note_on_c, 1, 45, 0
3, 388817, Note_on_c, 1, 37, 0
3, 388835, Note_on_c, 1, 38, 70
3, 390496, Note_on_c, 1, 34, 21
3, 390696, Note_on_c, 1, 52, 89
3, 390742, Note_on_c, 1, 34, 0
3, 390962, Note_on_c, 1, 38, 0
3, 391335, Note_on_c, 1, 52, 0
3, 391351, Note_on_c, 1, 51, 67
3, 391613, Note_on_c, 1, 51, 0
3, 391685, Note_on_c, 1, 50, 49
3, 392287, Note_on_c, 1, 45, 44
3, 392424, Note_on_c, 1, 45, 0
3, 392527, Note_on_c, 1, 50, 0
3, 392641, Note_on_c, 1, 38, 63
3, 393510, Note_on_c, 1, 38, 0
3, 393619, Note_on_c, 1, 38, 74
3, 394781, Note_on_c, 1, 38, 0
3, 395527, Note_on_c, 1, 38, 47
3, 396139, Note_on_c, 1, 38, 0
3, 396159, Note_on_c, 1, 36, 52
3, 396470, Note_on_c, 1, 36, 0
3, 396509, Note_on_c, 1, 38, 54
3, 396983, Note_on_c, 1, 38, 0
3, 397069, Note_on_c, 1, 37, 36
3, 397395, Note_on_c, 1, 37, 0
3, 397409, Note_on_c, 1, 38, 71
3, 398059, Note_on_c, 1, 37, 21
3, 398272, Note_on_c, 1, 37, 0
3, 398371, Note_on_c, 1, 52, 89
3, 398993, Note_on_c, 1, 52, 0
3, 398996, Note_on_c, 1, 51, 76
3, 399232, Note_on_c, 1, 38, 0
3, 399294, Note_on_c, 1, 51, 0
3, 399350, Note_on_c, 1, 50, 62
3, 401015, Note_on_c, 1, 38, 78
3, 401270, Note_on_c, 1, 38, 0
3, 401682, Note_on_c, 1, 38, 69
3, 402004, Note_on_c, 1, 38, 0
3, 402271, Note_on_c, 1, 38, 66
3, 402893, Note_on_c, 1, 37, 80
3, 402904, Note_on_c, 1, 38, 0
3, 402999, Note_on_c, 1, 50, 0
3, 403243, Note_on_c, 1, 37, 0
3, 403257, Note_on_c, 1, 38, 82
3, 406087, Note_on_c, 1, 37, 101
3, 406174, Note_on_c, 1, 38, 0
3, 408375, Note_on_c, 1, 34, 43
3, 408396, Note_on_c, 1, 37, 0
3, 408547, Note_on_c, 1, 34, 0
3, 408651, Note_on_c, 1, 35, 82
3, 409005, Note_on_c, 1, 36, 118
3, 409090, Note_on_c, 1, 35, 0
3, 411482, Note_on_c, 1, 35, 89
3, 411484, Note_on_c, 1, 36, 0
3, 411822, Note_on_c, 1, 35, 0
3, 411851, Note_on_c, 1, 34, 88
3, 414680, Note_on_c, 1, 34, 0
3, 414712, Note_on_c, 1, 40, 107
3, 416326, Note_on_c, 1, 35, 63
3, 416367, Note_on_c, 1, 40, 0
3, 416563, Note_on_c, 1, 35, 0
3, 416694, Note_on_c, 1, 31, 73
3, 417582, Note_on_c, 1, 31, 0
3, 417627, Note_on_c, 1, 33, 74
3, 418596, Note_on_c, 1, 47, 43
3, 419094, Note_on_c, 1, 47, 0
3, 419153, Note_on_c, 1, 46, 46
3, 419515, Note_on_c, 1, 46, 0
3, 419526, Note_on_c, 1, 45, 58
3, 420425, Note_on_c, 1, 33, 0
3, 420456, Note_on_c, 1, 40, 107
3, 420483, Note_on_c, 1, 45, 0
3, 423364, Note_on_c, 1, 40, 0
3, 423375, Note_on_c, 1, 33, 65
3, 425901, Note_on_c, 1, 47, 103
3, 426372, Note_on_c, 1, 47, 0
3, 426419, Note_on_c, 1, 33, 0
3, 426460, Note_on_c, 1, 45, 84
3, 427118, Note_on_c, 1, 45, 0
3, 427144, Note_on_c, 1, 40, 67
3, 427810, Note_on_c, 1, 33, 71
3, 428277, Note_on_c, 1, 33, 0
3, 428334, Note_on_c, 1, 40, 0
3, 428407, Note_on_c, 1, 33, 70
3, 428921, Note_on_c, 1, 33, 0
3, 429058, Note_on_c, 1, 33, 71
3, 431680, Note_on_c, 1, 40, 80
3, 431687, Note_on_c, 1, 33, 0
3, 432089, Note_on_c, 1, 33, 43
3, 432104, Note_on_c, 1, 40, 0
3, 432691, Note_on_c, 1, 39, 92
3, 432744, Note_on_c, 1, 33, 0
3, 434431, Note_on_c, 1, 39, 0
3, 434528, Note_on_c, 1, 37, 77
3, 434848, Note_on_c, 1, 37, 0
3, 434911, Note_on_c, 1, 38, 72
3, 435546, Note_on_c, 1, 50, 96
3, 437216, Note_on_c, 1, 38, 0
3, 437801, Note_on_c, 1, 38, 52
3, 437808, Note_on_c, 1, 50, 0
3, 438786, Note_on_c, 1, 50, 45
3, 442157, Note_on_c, 1, 38, 0
3, 442514, Note_on_c, 1, 38, 48
3, 443076, Note_on_c, 1, 38, 0
3, 443123, Note_on_c, 1, 37, 38
3, 443423, Note_on_c, 1, 37, 0
3, 443472, Note_on_c, 1, 38, 60
3, 443479, Note_on_c, 1, 50, 0
3, 444497, Note_on_c, 1, 50, 125
3, 446936, Note_on_c, 1, 38, 0
3, 447371, Note_on_c, 1, 38, 40
3, 447783, Note_on_c, 1, 38, 0
3, 448077, Note_on_c, 1, 38, 38
3, 448426, Note_on_c, 1, 38, 0
3, 448683, Note_on_c, 1, 38, 41
3, 448945, Note_on_c, 1, 38, 0
3, 448986, Note_on_c, 1, 37, 38
3, 449222, Note_on_c, 1, 37, 0
3, 449295, Note_on_c, 1, 38, 48
3, 449379, Note_on_c, 1, 50, 0
3, 450207, Note_on_c, 1, 50, 46
3, 453738, Note_on_c, 1, 38, 0
3, 454087, Note_on_c, 1, 38, 27
3, 454593, Note_on_c, 1, 38, 0
3, 454651, Note_on_c, 1, 37, 27
3, 454940, Note_on_c, 1, 37, 0
3, 454950, Note_on_c, 1, 50, 0
3, 455002, Note_on_c, 1, 38, 28
3, 455952, Note_on_c, 1, 50, 23
3, 456332, Note_on_c, 1, 38, 0
3, 458946, Note_on_c, 1, 38, 20
3, 460445, Note_on_c, 1, 38, 0
3, 460487, Note_on_c, 1, 50, 0
3, 460526, Note_on_c, 1, 37, 17
3, 460798, Note_on_c, 1, 37, 0
3, 460845, Note_on_c, 1, 38, 21
3, 465880, Note_on_c, 1, 38, 0
3, 465880, End_track
4, 0, Start_track
4, 0, Title_t, "Drums 1"
4, 0, Program_c, 9, 40
4, 0, Control_c, 9, 7, 86
4, 23040, Note_on_c, 9, 36, 48
4, 23078, Note_on_c, 9, 40, 23
4, 23122, Note_on_c, 9, 36, 0
4, 23888, Note_on_c, 9, 40, 0
4, 24039, Note_on_c, 9, 40, 30
4, 24845, Note_on_c, 9, 40, 0
4, 25050, Note_on_c, 9, 40, 24
4, 25696, Note_on_c, 9, 38, 39
4, 25731, Note_on_c, 9, 40, 0
4, 25857, Note_on_c, 9, 38, 0
4, 26006, Note_on_c, 9, 40, 21
4, 26806, Note_on_c, 9, 40, 0
4, 26956, Note_on_c, 9, 40, 22
4, 27741, Note_on_c, 9, 40, 0
4, 27951, Note_on_c, 9, 44, 19
4, 27958, Note_on_c, 9, 40, 27
4, 28241, Note_on_c, 9, 39, 54
4, 28261, Note_on_c, 9, 40, 0
4, 28265, Note_on_c, 9, 44, 0
4, 28367, Note_on_c, 9, 39, 0
4, 28563, Note_on_c, 9, 40, 29
4, 28755, Note_on_c, 9, 40, 0
4, 28902, Note_on_c, 9, 40, 26
4, 29613, Note_on_c, 9, 40, 0
4, 29800, Note_on_c, 9, 44, 63
4, 29840, Note_on_c, 9, 40, 26
4, 30427, Note_on_c, 9, 44, 0
4, 30582, Note_on_c, 9, 40, 0
4, 30760, Note_on_c, 9, 40, 23
4, 31358, Note_on_c, 9, 36, 48
4, 31430, Note_on_c, 9, 36, 0
4, 31462, Note_on_c, 9, 40, 0
4, 31698, Note_on_c, 9, 36, 26
4, 31724, Note_on_c, 9, 40, 27
4, 31819, Note_on_c, 9, 36, 0
4, 32420, Note_on_c, 9, 40, 0
4, 32695, Note_on_c, 9, 40, 35
4, 32737, Note_on_c, 9, 44, 24
4, 32869, Note_on_c, 9, 44, 0
4, 33068, Note_on_c, 9, 36, 18
4, 33240, Note_on_c, 9, 36, 0
4, 33418, Note_on_c, 9, 40, 0
4, 33629, Note_on_c, 9, 40, 36
4, 33936, Note_on_c, 9, 39, 30
4, 34064, Note_on_c, 9, 39, 0
4, 34240, Note_on_c, 9, 39, 48
4, 34292, Note_on_c, 9, 40, 0
4, 34453, Note_on_c, 9, 39, 0
4, 34620, Note_on_c, 9, 40, 22
4, 35426, Note_on_c, 9, 40, 0
4, 35562, Note_on_c, 9, 40, 32
4, 36373, Note_on_c, 9, 40, 0
4, 36500, Note_on_c, 9, 40, 39
4, 37117, Note_on_c, 9, 40, 0
4, 37161, Note_on_c, 9, 38, 58
4, 37369, Note_on_c, 9, 38, 0
4, 37429, Note_on_c, 9, 40, 35
4, 38004, Note_on_c, 9, 40, 0
4, 38108, Note_on_c, 9, 38, 38
4, 38311, Note_on_c, 9, 38, 0
4, 38377, Note_on_c, 9, 40, 25
4, 39180, Note_on_c, 9, 40, 0
4, 39313, Note_on_c, 9, 40, 21
4, 39385, Note_on_c, 9, 46, 21
4, 40069, Note_on_c, 9, 40, 0
4, 40124, Note_on_c, 9, 46, 0
4, 40252, Note_on_c, 9, 40, 22
4, 41179, Note_on_c, 9, 40, 0
4, 41322, Note_on_c, 9, 40, 27
4, 41888, Note_on_c, 9, 40, 0
4, 42011, Note_on_c, 9, 40, 22
4, 42140, Note_on_c, 9, 40, 0
4, 42315, Note_on_c, 9, 40, 22
4, 42354, Note_on_c, 9, 44, 80
4, 42858, Note_on_c, 9, 40, 0
4, 42883, Note_on_c, 9, 44, 0
4, 42920, Note_on_c, 9, 38, 46
4, 43113, Note_on_c, 9, 38, 0
4, 43207, Note_on_c, 9, 40, 24
4, 43973, Note_on_c, 9, 40, 0
4, 44171, Note_on_c, 9, 40, 30
4, 44824, Note_on_c, 9, 40, 0
4, 44832, Note_on_c, 9, 39, 54
4, 45064, Note_on_c, 9, 39, 0
4, 45174, Note_on_c, 9, 40, 18
4, 45381, Note_on_c, 9, 40, 0
4, 45479, Note_on_c, 9, 39, 30
4, 45626, Note_on_c, 9, 39, 0
4, 45750, Note_on_c, 9, 40, 32
4, 45979, Note_on_c, 9, 40, 0
4, 46084, Note_on_c, 9, 40, 18
4, 46848, Note_on_c, 9, 40, 0
4, 47036, Note_on_c, 9, 44, 68
4, 47066, Note_on_c, 9, 40, 21
4, 47307, Note_on_c, 9, 44, 0
4, 47751, Note_on_c, 9, 40, 0
4, 48010, Note_on_c, 9, 44, 77
4, 48028, Note_on_c, 9, 40, 27
4, 48280, Note_on_c, 9, 44, 0
4, 48319, Note_on_c, 9, 40, 0
4, 48370, Note_on_c, 9, 39, 34
4, 48520, Note_on_c, 9, 39, 0
4, 48658, Note_on_c, 9, 38, 37
4, 48831, Note_on_c, 9, 38, 0
4, 48956, Note_on_c, 9, 40, 26
4, 49764, Note_on_c, 9, 40, 0
4, 49973, Note_on_c, 9, 40, 21
4, 50782, Note_on_c, 9, 40, 0
4, 50974, Note_on_c, 9, 40, 20
4, 51206, Note_on_c, 9, 40, 0
4, 51258, Note_on_c, 9, 38, 38
4, 51521, Note_on_c, 9, 38, 0
4, 51563, Note_on_c, 9, 39, 70
4, 51583, Note_on_c, 9, 44, 34
4, 51655, Note_on_c, 9, 44, 0
4, 51694, Note_on_c, 9, 39, 0
4, 51872, Note_on_c, 9, 40, 37
4, 51900, Note_on_c, 9, 36, 25
4, 52077, Note_on_c, 9, 36, 0
4, 52482, Note_on_c, 9, 36, 31
4, 52664, Note_on_c, 9, 36, 0
4, 52688, Note_on_c, 9, 40, 0
4, 52879, Note_on_c, 9, 40, 27
4, 52888, Note_on_c, 9, 36, 20
4, 53160, Note_on_c, 9, 36, 0
4, 53508, Note_on_c, 9, 40, 0
4, 53779, Note_on_c, 9, 40, 21
4, 54467, Note_on_c, 9, 40, 0
4, 54725, Note_on_c, 9, 40, 22
4, 55526, Note_on_c, 9, 40, 0
4, 55729, Note_on_c, 9, 40, 26
4, 55745, Note_on_c, 9, 46, 34
4, 56194, Note_on_c, 9, 46, 0
4, 56298, Note_on_c, 9, 40, 0
4, 56443, Note_on_c, 9, 40, 24
4, 56627, Note_on_c, 9, 40, 0
4, 56756, Note_on_c, 9, 40, 20
4, 57389, Note_on_c, 9, 40, 0
4, 57612, Note_on_c, 9, 40, 35
4, 58407, Note_on_c, 9, 40, 0
4, 58559, Note_on_c, 9, 40, 30
4, 58597, Note_on_c, 9, 44, 63
4, 58802, Note_on_c, 9, 44, 0
4, 59382, Note_on_c, 9, 40, 0
4, 59520, Note_on_c, 9, 40, 16
4, 59579, Note_on_c, 9, 37, 30
4, 59705, Note_on_c, 9, 37, 0
4, 60095, Note_on_c, 9, 40, 0
4, 60145, Note_on_c, 9, 39, 45
4, 60147, Note_on_c, 9, 36, 52
4, 60269, Note_on_c, 9, 39, 0
4, 60273, Note_on_c, 9, 36, 0
4, 60458, Note_on_c, 9, 40, 20
4, 61238, Note_on_c, 9, 40, 0
4, 61461, Note_on_c, 9, 40, 20
4, 62240, Note_on_c, 9, 40, 0
4, 62451, Note_on_c, 9, 40, 15
4, 62726, Note_on_c, 9, 40, 0
4, 62796, Note_on_c, 9, 38, 22
4, 62922, Note_on_c, 9, 38, 0
4, 63058, Note_on_c, 9, 40, 22
4, 63328, Note_on_c, 9, 40, 0
4, 63398, Note_on_c, 9, 40, 9
4, 63954, Note_on_c, 9, 40, 0
4, 64295, Note_on_c, 9, 40, 27
4, 64390, Note_on_c, 9, 46, 30
4, 64615, Note_on_c, 9, 46, 0
4, 65056, Note_on_c, 9, 40, 0
4, 65288, Note_on_c, 9, 40, 34
4, 65819, Note_on_c, 9, 40, 0
4, 65864, Note_on_c, 9, 36, 18
4, 65889, Note_on_c, 9, 40, 15
4, 65948, Note_on_c, 9, 36, 0
4, 66059, Note_on_c, 9, 40, 0
4, 66185, Note_on_c, 9, 40, 20
4, 66955, Note_on_c, 9, 40, 0
4, 67180, Note_on_c, 9, 40, 29
4, 67894, Note_on_c, 9, 40, 0
4, 68143, Note_on_c, 9, 40, 29
4, 68559, Note_on_c, 9, 40, 0
4, 68695, Note_on_c, 9, 37, 57
4, 68759, Note_on_c, 9, 40, 21
4, 68919, Note_on_c, 9, 40, 0
4, 68921, Note_on_c, 9, 37, 0
4, 69026, Note_on_c, 9, 36, 56
4, 69069, Note_on_c, 9, 40, 17
4, 69376, Note_on_c, 9, 36, 0
4, 69731, Note_on_c, 9, 40, 0
4, 70024, Note_on_c, 9, 44, 27
4, 70057, Note_on_c, 9, 40, 19
4, 70208, Note_on_c, 9, 44, 0
4, 70785, Note_on_c, 9, 40, 0
4, 71042, Note_on_c, 9, 40, 30
4, 71534, Note_on_c, 9, 40, 0
4, 71691, Note_on_c, 9, 40, 24
4, 71724, Note_on_c, 9, 37, 40
4, 71841, Note_on_c, 9, 37, 0
4, 71878, Note_on_c, 9, 40, 0
4, 72020, Note_on_c, 9, 40, 29
4, 72061, Note_on_c, 9, 36, 31
4, 72072, Note_on_c, 9, 44, 33
4, 72552, Note_on_c, 9, 36, 0
4, 72581, Note_on_c, 9, 44, 0
4, 72731, Note_on_c, 9, 40, 0
4, 72976, Note_on_c, 9, 40, 31
4, 73566, Note_on_c, 9, 40, 0
4, 73663, Note_on_c, 9, 40, 13
4, 73824, Note_on_c, 9, 40, 0
4, 73984, Note_on_c, 9, 40, 28
4, 74293, Note_on_c, 9, 40, 0
4, 74313, Note_on_c, 9, 39, 36
4, 74447, Note_on_c, 9, 39, 0
4, 74599, Note_on_c, 9, 40, 18
4, 74887, Note_on_c, 9, 39, 40
4, 74943, Note_on_c, 9, 40, 0
4, 75025, Note_on_c, 9, 39, 0
4, 75223, Note_on_c, 9, 40, 20
4, 75496, Note_on_c, 9, 40, 0
4, 75549, Note_on_c, 9, 39, 50
4, 75671, Note_on_c, 9, 39, 0
4, 75838, Note_on_c, 9, 44, 67
4, 75870, Note_on_c, 9, 40, 27
4, 76082, Note_on_c, 9, 44, 0
4, 76610, Note_on_c, 9, 40, 0
4, 76820, Note_on_c, 9, 44, 71
4, 76829, Note_on_c, 9, 40, 21
4, 77015, Note_on_c, 9, 44, 0
4, 77536, Note_on_c, 9, 40, 0
4, 77782, Note_on_c, 9, 40, 27
4, 78539, Note_on_c, 9, 40, 0
4, 78760, Note_on_c, 9, 40, 25
4, 79348, Note_on_c, 9, 40, 0
4, 79415, Note_on_c, 9, 38, 25
4, 79653, Note_on_c, 9, 38, 0
4, 79758, Note_on_c, 9, 40, 22
4, 80318, Note_on_c, 9, 40, 0
4, 80376, Note_on_c, 9, 38, 29
4, 80555, Note_on_c, 9, 38, 0
4, 80645, Note_on_c, 9, 40, 21
4, 81171, Note_on_c, 9, 40, 0
4, 81636, Note_on_c, 9, 44, 80
4, 81655, Note_on_c, 9, 40, 15
4, 81657, Note_on_c, 9, 38, 21
4, 81827, Note_on_c, 9, 44, 0
4, 82363, Note_on_c, 9, 38, 0
4, 82392, Note_on_c, 9, 40, 0
4, 82568, Note_on_c, 9, 40, 24
4, 82614, Note_on_c, 9, 38, 25
4, 83309, Note_on_c, 9, 38, 0
4, 83331, Note_on_c, 9, 40, 0
4, 83566, Note_on_c, 9, 40, 17
4, 83605, Note_on_c, 9, 38, 25
4, 84176, Note_on_c, 9, 38, 0
4, 84186, Note_on_c, 9, 39, 54
4, 84188, Note_on_c, 9, 40, 0
4, 84441, Note_on_c, 9, 39, 0
4, 84477, Note_on_c, 9, 44, 64
4, 84524, Note_on_c, 9, 40, 15
4, 84539, Note_on_c, 9, 38, 29
4, 84622, Note_on_c, 9, 44, 0
4, 85138, Note_on_c, 9, 38, 0
4, 85147, Note_on_c, 9, 39, 48
4, 85154, Note_on_c, 9, 40, 0
4, 85332, Note_on_c, 9, 39, 0
4, 85440, Note_on_c, 9, 46, 32
4, 85465, Note_on_c, 9, 40, 14
4, 85485, Note_on_c, 9, 38, 27
4, 85573, Note_on_c, 9, 46, 0
4, 86045, Note_on_c, 9, 36, 54
4, 86094, Note_on_c, 9, 38, 0
4, 86127, Note_on_c, 9, 40, 0
4, 86183, Note_on_c, 9, 36, 0
4, 86421, Note_on_c, 9, 40, 21
4, 86440, Note_on_c, 9, 38, 39
4, 87013, Note_on_c, 9, 38, 0
4, 87056, Note_on_c, 9, 40, 0
4, 87357, Note_on_c, 9, 44, 30
4, 87360, Note_on_c, 9, 40, 16
4, 87376, Note_on_c, 9, 38, 33
4, 87464, Note_on_c, 9, 44, 0
4, 87861, Note_on_c, 9, 38, 0
4, 87914, Note_on_c, 9, 40, 0
4, 88343, Note_on_c, 9, 40, 16
4, 88351, Note_on_c, 9, 38, 36
4, 88427, Note_on_c, 9, 44, 51
4, 88569, Note_on_c, 9, 44, 0
4, 89022, Note_on_c, 9, 38, 0
4, 89078, Note_on_c, 9, 40, 0
4, 89305, Note_on_c, 9, 40, 21
4, 89326, Note_on_c, 9, 38, 38
4, 89911, Note_on_c, 9, 38, 0
4, 90020, Note_on_c, 9, 40, 0
4, 90263, Note_on_c, 9, 44, 43
4, 90286, Note_on_c, 9, 40, 18
4, 90300, Note_on_c, 9, 38, 29
4, 90387, Note_on_c, 9, 44, 0
4, 90800, Note_on_c, 9, 38, 0
4, 90804, Note_on_c, 9, 40, 0
4, 90931, Note_on_c, 9, 39, 21
4, 91030, Note_on_c, 9, 39, 0
4, 91212, Note_on_c, 9, 40, 15
4, 91213, Note_on_c, 9, 38, 31
4, 91468, Note_on_c, 9, 38, 0
4, 91507, Note_on_c, 9, 40, 0
4, 91542, Note_on_c, 9, 39, 40
4, 91658, Note_on_c, 9, 39, 0
4, 91845, Note_on_c, 9, 40, 19
4, 91856, Note_on_c, 9, 36, 29
4, 91861, Note_on_c, 9, 38, 38
4, 91920, Note_on_c, 9, 36, 0
4, 92021, Note_on_c, 9, 40, 0
4, 92051, Note_on_c, 9, 38, 0
4, 92161, Note_on_c, 9, 40, 26
4, 92175, Note_on_c, 9, 38, 29
4, 92211, Note_on_c, 9, 44, 24
4, 92868, Note_on_c, 9, 44, 0
4, 92878, Note_on_c, 9, 40, 0
4, 92882, Note_on_c, 9, 38, 0
4, 93105, Note_on_c, 9, 40, 22
4, 93114, Note_on_c, 9, 38, 27
4, 93864, Note_on_c, 9, 38, 0
4, 93867, Note_on_c, 9, 40, 0
4, 94113, Note_on_c, 9, 40, 17
4, 94138, Note_on_c, 9, 38, 29
4, 94687, Note_on_c, 9, 38, 0
4, 94698, Note_on_c, 9, 40, 0
4, 94744, Note_on_c, 9, 39, 42
4, 94900, Note_on_c, 9, 39, 0
4, 95079, Note_on_c, 9, 40, 14
4, 95093, Note_on_c, 9, 38, 25
4, 95748, Note_on_c, 9, 40, 0
4, 95753, Note_on_c, 9, 38, 0
4, 96013, Note_on_c, 9, 44, 55
4, 96039, Note_on_c, 9, 40, 15
4, 96041, Note_on_c, 9, 38, 28
4, 96282, Note_on_c, 9, 44, 0
4, 96661, Note_on_c, 9, 38, 0
4, 96663, Note_on_c, 9, 40, 0
4, 96947, Note_on_c, 9, 40, 19
4, 96952, Note_on_c, 9, 38, 26
4, 97496, Note_on_c, 9, 40, 0
4, 97512, Note_on_c, 9, 38, 0
4, 97634, Note_on_c, 9, 40, 52
4, 97647, Note_on_c, 9, 38, 74
4, 97903, Note_on_c, 9, 40, 0
4, 97914, Note_on_c, 9, 38, 0
4, 97920, Note_on_c, 9, 40, 26
4, 98401, Note_on_c, 9, 40, 0
4, 98527, Note_on_c, 9, 40, 24
4, 98543, Note_on_c, 9, 38, 40
4, 98850, Note_on_c, 9, 44, 43
4, 98864, Note_on_c, 9, 39, 43
4, 99048, Note_on_c, 9, 44, 0
4, 99283, Note_on_c, 9, 40, 0
4, 99289, Note_on_c, 9, 39, 0
4, 99309, Note_on_c, 9, 38, 0
4, 99478, Note_on_c, 9, 40, 21
4, 99482, Note_on_c, 9, 38, 33
4, 99634, Note_on_c, 9, 40, 0
4, 99650, Note_on_c, 9, 38, 0
4, 99800, Note_on_c, 9, 40, 18
4, 99809, Note_on_c, 9, 38, 27
4, 99837, Note_on_c, 9, 46, 45
4, 100458, Note_on_c, 9, 46, 0
4, 100496, Note_on_c, 9, 40, 0
4, 100540, Note_on_c, 9, 38, 0
4, 100773, Note_on_c, 9, 38, 28
4, 100776, Note_on_c, 9, 40, 23
4, 101393, Note_on_c, 9, 40, 0
4, 101466, Note_on_c, 9, 38, 0
4, 101727, Note_on_c, 9, 38, 24
4, 101728, Note_on_c, 9, 40, 20
4, 101770, Note_on_c, 9, 44, 57
4, 101970, Note_on_c, 9, 44, 0
4, 102185, Note_on_c, 9, 38, 0
4, 102316, Note_on_c, 9, 40, 0
4, 102375, Note_on_c, 9, 40, 21
4, 102569, Note_on_c, 9, 40, 0
4, 102692, Note_on_c, 9, 40, 28
4, 103589, Note_on_c, 9, 40, 0
4, 103710, Note_on_c, 9, 40, 31
4, 104504, Note_on_c, 9, 40, 0
4, 104676, Note_on_c, 9, 40, 33
4, 104693, Note_on_c, 9, 44, 46
4, 104916, Note_on_c, 9, 44, 0
4, 105357, Note_on_c, 9, 40, 0
4, 105653, Note_on_c, 9, 40, 21
4, 105664, Note_on_c, 9, 44, 42
4, 105812, Note_on_c, 9, 44, 0
4, 105982, Note_on_c, 9, 36, 46
4, 106099, Note_on_c, 9, 36, 0
4, 106283, Note_on_c, 9, 38, 55
4, 106293, Note_on_c, 9, 36, 70
4, 106333, Note_on_c, 9, 40, 0
4, 106447, Note_on_c, 9, 36, 0
4, 106457, Note_on_c, 9, 38, 0
4, 106587, Note_on_c, 9, 40, 27
4, 107243, Note_on_c, 9, 40, 0
4, 107523, Note_on_c, 9, 40, 34
4, 107596, Note_on_c, 9, 44, 49
4, 107821, Note_on_c, 9, 44, 0
4, 108271, Note_on_c, 9, 40, 0
4, 108535, Note_on_c, 9, 40, 33
4, 108809, Note_on_c, 9, 40, 0
4, 108837, Note_on_c, 9, 38, 37
4, 109002, Note_on_c, 9, 38, 0
4, 109118, Note_on_c, 9, 40, 29
4, 109367, Note_on_c, 9, 40, 0
4, 109484, Note_on_c, 9, 40, 27
4, 110249, Note_on_c, 9, 40, 0
4, 110462, Note_on_c, 9, 40, 33
4, 110476, Note_on_c, 9, 44, 59
4, 110682, Note_on_c, 9, 44, 0
4, 111078, Note_on_c, 9, 40, 0
4, 111363, Note_on_c, 9, 40, 27
4, 111671, Note_on_c, 9, 40, 0
4, 111720, Note_on_c, 9, 39, 32
4, 111818, Note_on_c, 9, 39, 0
4, 111990, Note_on_c, 9, 40, 24
4, 112190, Note_on_c, 9, 40, 0
4, 112357, Note_on_c, 9, 40, 33
4, 113070, Note_on_c, 9, 40, 0
4, 113277, Note_on_c, 9, 40, 29
4, 113952, Note_on_c, 9, 40, 0
4, 113955, Note_on_c, 9, 44, 23
4, 114073, Note_on_c, 9, 44, 0
4, 114219, Note_on_c, 9, 40, 27
4, 114504, Note_on_c, 9, 40, 0
4, 114559, Note_on_c, 9, 39, 34
4, 114690, Note_on_c, 9, 39, 0
4, 114858, Note_on_c, 9, 40, 25
4, 115035, Note_on_c, 9, 40, 0
4, 115201, Note_on_c, 9, 40, 24
4, 115898, Note_on_c, 9, 40, 0
4, 116181, Note_on_c, 9, 40, 27
4, 116864, Note_on_c, 9, 40, 0
4, 117129, Note_on_c, 9, 40, 21
4, 117480, Note_on_c, 9, 44, 15
4, 117665, Note_on_c, 9, 44, 0
4, 117757, Note_on_c, 9, 38, 37
4, 117760, Note_on_c, 9, 40, 0
4, 117970, Note_on_c, 9, 38, 0
4, 118072, Note_on_c, 9, 40, 18
4, 118141, Note_on_c, 9, 44, 28
4, 118555, Note_on_c, 9, 44, 0
4, 118782, Note_on_c, 9, 40, 0
4, 118804, Note_on_c, 9, 44, 27
4, 118991, Note_on_c, 9, 44, 0
4, 119044, Note_on_c, 9, 40, 27
4, 119407, Note_on_c, 9, 44, 27
4, 119643, Note_on_c, 9, 44, 0
4, 119748, Note_on_c, 9, 40, 0
4, 119997, Note_on_c, 9, 40, 27
4, 120019, Note_on_c, 9, 44, 29
4, 120249, Note_on_c, 9, 40, 0
4, 120317, Note_on_c, 9, 38, 23
4, 120477, Note_on_c, 9, 38, 0
4, 120575, Note_on_c, 9, 40, 29
4, 120647, Note_on_c, 9, 46, 34
4, 120700, Note_on_c, 9, 44, 0
4, 120802, Note_on_c, 9, 46, 0
4, 120869, Note_on_c, 9, 40, 0
4, 120972, Note_on_c, 9, 40, 16
4, 121663, Note_on_c, 9, 40, 0
4, 121957, Note_on_c, 9, 40, 18
4, 122532, Note_on_c, 9, 44, 22
4, 122656, Note_on_c, 9, 44, 0
4, 122683, Note_on_c, 9, 40, 0
4, 122934, Note_on_c, 9, 40, 26
4, 123184, Note_on_c, 9, 44, 31
4, 123462, Note_on_c, 9, 44, 0
4, 123531, Note_on_c, 9, 40, 0
4, 123547, Note_on_c, 9, 39, 48
4, 123705, Note_on_c, 9, 39, 0
4, 123840, Note_on_c, 9, 44, 32
4, 123882, Note_on_c, 9, 40, 18
4, 124160, Note_on_c, 9, 44, 0
4, 124522, Note_on_c, 9, 44, 34
4, 124565, Note_on_c, 9, 40, 0
4, 124744, Note_on_c, 9, 44, 0
4, 124837, Note_on_c, 9, 40, 27
4, 125168, Note_on_c, 9, 44, 36
4, 125413, Note_on_c, 9, 44, 0
4, 125543, Note_on_c, 9, 40, 0
4, 125785, Note_on_c, 9, 40, 25
4, 125789, Note_on_c, 9, 44, 36
4, 126161, Note_on_c, 9, 40, 0
4, 126391, Note_on_c, 9, 44, 0
4, 126436, Note_on_c, 9, 40, 32
4, 126439, Note_on_c, 9, 46, 22
4, 126561, Note_on_c, 9, 40, 0
4, 126636, Note_on_c, 9, 46, 0
4, 126715, Note_on_c, 9, 40, 24
4, 126778, Note_on_c, 9, 36, 26
4, 127088, Note_on_c, 9, 36, 0
4, 127298, Note_on_c, 9, 40, 0
4, 127625, Note_on_c, 9, 40, 29
4, 128351, Note_on_c, 9, 40, 0
4, 128611, Note_on_c, 9, 40, 30
4, 129308, Note_on_c, 9, 40, 0
4, 129635, Note_on_c, 9, 40, 28
4, 130233, Note_on_c, 9, 40, 0
4, 130260, Note_on_c, 9, 38, 38
4, 130396, Note_on_c, 9, 38, 0
4, 130577, Note_on_c, 9, 40, 21
4, 130591, Note_on_c, 9, 44, 57
4, 130912, Note_on_c, 9, 44, 0
4, 131342, Note_on_c, 9, 40, 0
4, 131509, Note_on_c, 9, 40, 36
4, 131563, Note_on_c, 9, 44, 49
4, 131813, Note_on_c, 9, 44, 0
4, 132152, Note_on_c, 9, 40, 0
4, 132436, Note_on_c, 9, 40, 33
4, 133186, Note_on_c, 9, 40, 0
4, 133395, Note_on_c, 9, 40, 27
4, 133505, Note_on_c, 9, 44, 32
4, 133715, Note_on_c, 9, 44, 0
4, 134109, Note_on_c, 9, 40, 0
4, 134406, Note_on_c, 9, 40, 27
4, 135076, Note_on_c, 9, 38, 42
4, 135087, Note_on_c, 9, 40, 0
4, 135224, Note_on_c, 9, 38, 0
4, 135374, Note_on_c, 9, 40, 18
4, 136078, Note_on_c, 9, 40, 0
4, 136327, Note_on_c, 9, 40, 28
4, 136330, Note_on_c, 9, 46, 31
4, 136943, Note_on_c, 9, 40, 0
4, 136982, Note_on_c, 9, 39, 31
4, 137084, Note_on_c, 9, 39, 0
4, 137224, Note_on_c, 9, 46, 0
4, 137290, Note_on_c, 9, 40, 21
4, 137960, Note_on_c, 9, 40, 0
4, 138215, Note_on_c, 9, 40, 30
4, 139103, Note_on_c, 9, 40, 0
4, 139216, Note_on_c, 9, 44, 51
4, 139224, Note_on_c, 9, 40, 24
4, 139424, Note_on_c, 9, 44, 0
4, 139719, Note_on_c, 9, 40, 0
4, 139849, Note_on_c, 9, 40, 28
4, 139967, Note_on_c, 9, 40, 0
4, 140127, Note_on_c, 9, 40, 29
4, 140887, Note_on_c, 9, 40, 0
4, 141118, Note_on_c, 9, 40, 41
4, 141865, Note_on_c, 9, 40, 0
4, 142109, Note_on_c, 9, 40, 30
4, 142113, Note_on_c, 9, 44, 64
4, 142353, Note_on_c, 9, 44, 0
4, 142819, Note_on_c, 9, 40, 0
4, 143095, Note_on_c, 9, 40, 23
4, 143127, Note_on_c, 9, 46, 34
4, 143395, Note_on_c, 9, 46, 0
4, 143683, Note_on_c, 9, 40, 0
4, 143717, Note_on_c, 9, 39, 50
4, 143848, Note_on_c, 9, 39, 0
4, 144005, Note_on_c, 9, 40, 18
4, 144734, Note_on_c, 9, 40, 0
4, 144940, Note_on_c, 9, 44, 45
4, 144944, Note_on_c, 9, 40, 30
4, 145150, Note_on_c, 9, 44, 0
4, 145583, Note_on_c, 9, 40, 0
4, 145876, Note_on_c, 9, 40, 29
4, 146426, Note_on_c, 9, 40, 0
4, 146830, Note_on_c, 9, 40, 36
4, 147166, Note_on_c, 9, 40, 0
4, 147198, Note_on_c, 9, 39, 23
4, 147657, Note_on_c, 9, 39, 0
4, 147848, Note_on_c, 9, 44, 60
4, 147876, Note_on_c, 9, 40, 30
4, 148005, Note_on_c, 9, 44, 0
4, 148522, Note_on_c, 9, 40, 0
4, 148800, Note_on_c, 9, 40, 24
4, 149090, Note_on_c, 9, 39, 68
4, 149113, Note_on_c, 9, 40, 0
4, 149437, Note_on_c, 9, 44, 30
4, 149474, Note_on_c, 9, 39, 0
4, 149538, Note_on_c, 9, 44, 0
4, 149765, Note_on_c, 9, 40, 39
4, 149778, Note_on_c, 9, 36, 29
4, 150007, Note_on_c, 9, 36, 0
4, 150485, Note_on_c, 9, 40, 0
4, 150695, Note_on_c, 9, 40, 27
4, 150725, Note_on_c, 9, 36, 38
4, 151063, Note_on_c, 9, 36, 0
4, 151357, Note_on_c, 9, 40, 0
4, 151662, Note_on_c, 9, 40, 27
4, 151980, Note_on_c, 9, 39, 31
4, 152288, Note_on_c, 9, 40, 0
4, 152354, Note_on_c, 9, 39, 0
4, 152631, Note_on_c, 9, 40, 32
4, 153395, Note_on_c, 9, 40, 0
4, 153588, Note_on_c, 9, 40, 27
4, 154218, Note_on_c, 9, 40, 0
4, 154523, Note_on_c, 9, 40, 29
4, 154792, Note_on_c, 9, 40, 0
4, 154851, Note_on_c, 9, 44, 34
4, 154853, Note_on_c, 9, 38, 29
4, 154974, Note_on_c, 9, 44, 0
4, 155067, Note_on_c, 9, 38, 0
4, 155128, Note_on_c, 9, 39, 67
4, 155132, Note_on_c, 9, 44, 42
4, 155233, Note_on_c, 9, 44, 0
4, 155321, Note_on_c, 9, 39, 0
4, 155449, Note_on_c, 9, 36, 47
4, 155506, Note_on_c, 9, 40, 19
4, 155911, Note_on_c, 9, 36, 0
4, 156236, Note_on_c, 9, 40, 0
4, 156488, Note_on_c, 9, 36, 34
4, 156496, Note_on_c, 9, 40, 27
4, 157036, Note_on_c, 9, 36, 0
4, 157164, Note_on_c, 9, 40, 0
4, 157459, Note_on_c, 9, 40, 21
4, 157723, Note_on_c, 9, 40, 0
4, 157767, Note_on_c, 9, 39, 34
4, 157884, Note_on_c, 9, 39, 0
4, 158042, Note_on_c, 9, 40, 27
4, 158216, Note_on_c, 9, 40, 0
4, 158398, Note_on_c, 9, 40, 25
4, 158628, Note_on_c, 9, 40, 0
4, 158728, Note_on_c, 9, 39, 22
4, 158804, Note_on_c, 9, 39, 0
4, 159029, Note_on_c, 9, 40, 20
4, 159325, Note_on_c, 9, 40, 0
4, 159533, Note_on_c, 9, 40, 4
4, 159843, Note_on_c, 9, 40, 0
4, 159976, Note_on_c, 9, 40, 38
4, 160163, Note_on_c, 9, 40, 0
4, 160342, Note_on_c, 9, 40, 28
4, 160484, Note_on_c, 9, 40, 0
4, 160644, Note_on_c, 9, 39, 31
4, 160709, Note_on_c, 9, 39, 0
4, 160925, Note_on_c, 9, 39, 62
4, 161140, Note_on_c, 9, 39, 0
4, 161275, Note_on_c, 9, 39, 62
4, 161280, Program_c, 9, 32
4, 161295, Note_on_c, 9, 51, 85
4, 161456, Note_on_c, 9, 39, 0
4, 162089, Note_on_c, 9, 51, 0
4, 162256, Note_on_c, 9, 51, 65
4, 163583, Note_on_c, 9, 51, 0
4, 163858, Note_on_c, 9, 51, 63
4, 164020, Note_on_c, 9, 51, 0
4, 164181, Note_on_c, 9, 51, 59
4, 164933, Note_on_c, 9, 51, 0
4, 165206, Note_on_c, 9, 44, 40
4, 165212, Note_on_c, 9, 51, 48
4, 165712, Note_on_c, 9, 44, 0
4, 166010, Note_on_c, 9, 51, 0
4, 166165, Note_on_c, 9, 51, 67
4, 166681, Note_on_c, 9, 51, 0
4, 166891, Note_on_c, 9, 51, 59
4, 166915, Note_on_c, 9, 38, 20
4, 167003, Note_on_c, 9, 38, 0
4, 167026, Note_on_c, 9, 51, 0
4, 167196, Note_on_c, 9, 51, 63
4, 167808, Note_on_c, 9, 38, 28
4, 168035, Note_on_c, 9, 38, 0
4, 168083, Note_on_c, 9, 51, 0
4, 168177, Note_on_c, 9, 38, 25
4, 168320, Note_on_c, 9, 38, 0
4, 168520, Note_on_c, 9, 36, 19
4, 168637, Note_on_c, 9, 36, 0
4, 168665, Note_on_c, 9, 51, 54
4, 168845, Note_on_c, 9, 51, 0
4, 169038, Note_on_c, 9, 51, 31
4, 169217, Note_on_c, 9, 36, 25
4, 169532, Note_on_c, 9, 51, 0
4, 169590, Note_on_c, 9, 36, 0
4, 169600, Note_on_c, 9, 53, 91
4, 169722, Note_on_c, 9, 53, 0
4, 169941, Note_on_c, 9, 51, 43
4, 170441, Note_on_c, 9, 51, 0
4, 170935, Note_on_c, 9, 51, 50
4, 171057, Note_on_c, 9, 44, 45
4, 171268, Note_on_c, 9, 44, 0
4, 171316, Note_on_c, 9, 51, 0
4, 172027, Note_on_c, 9, 46, 35
4, 172481, Note_on_c, 9, 51, 67
4, 172668, Note_on_c, 9, 51, 0
4, 173515, Note_on_c, 9, 51, 87
4, 173635, Note_on_c, 9, 46, 0
4, 173645, Note_on_c, 9, 51, 0
4, 173947, Note_on_c, 9, 44, 34
4, 174172, Note_on_c, 9, 44, 0
4, 174221, Note_on_c, 9, 51, 39
4, 174275, Note_on_c, 9, 51, 0
4, 174537, Note_on_c, 9, 51, 85
4, 174715, Note_on_c, 9, 51, 0
4, 174903, Note_on_c, 9, 53, 93
4, 175113, Note_on_c, 9, 53, 0
4, 175211, Note_on_c, 9, 51, 36
4, 175358, Note_on_c, 9, 51, 0
4, 175519, Note_on_c, 9, 51, 80
4, 175759, Note_on_c, 9, 51, 0
4, 176630, Note_on_c, 9, 44, 43
4, 177143, Note_on_c, 9, 44, 0
4, 178269, Note_on_c, 9, 38, 24
4, 178271, Note_on_c, 9, 51, 67
4, 178388, Note_on_c, 9, 51, 0
4, 178397, Note_on_c, 9, 38, 0
4, 178614, Note_on_c, 9, 51, 32
4, 178729, Note_on_c, 9, 51, 0
4, 179553, Note_on_c, 9, 44, 34
4, 179983, Note_on_c, 9, 44, 0
4, 181143, Note_on_c, 9, 53, 63
4, 181199, Note_on_c, 9, 53, 0
4, 181459, Note_on_c, 9, 51, 23
4, 181565, Note_on_c, 9, 51, 0
4, 182140, Note_on_c, 9, 51, 23
4, 182213, Note_on_c, 9, 51, 0
4, 182486, Note_on_c, 9, 44, 37
4, 182509, Note_on_c, 9, 51, 27
4, 182584, Note_on_c, 9, 51, 0
4, 182717, Note_on_c, 9, 38, 33
4, 182776, Note_on_c, 9, 44, 0
4, 182785, Note_on_c, 9, 38, 0
4, 183542, Note_on_c, 9, 46, 30
4, 183680, Note_on_c, 9, 51, 21
4, 183742, Note_on_c, 9, 38, 31
4, 183746, Note_on_c, 9, 51, 0
4, 183813, Note_on_c, 9, 38, 0
4, 183993, Note_on_c, 9, 38, 37
4, 184015, Note_on_c, 9, 51, 54
4, 184022, Note_on_c, 9, 46, 0
4, 184096, Note_on_c, 9, 51, 0
4, 184137, Note_on_c, 9, 38, 0
4, 184337, Note_on_c, 9, 36, 35
4, 184568, Note_on_c, 9, 36, 0
4, 185036, Note_on_c, 9, 51, 22
4, 185088, Note_on_c, 9, 51, 0
4, 185329, Note_on_c, 9, 51, 46
4, 185354, Note_on_c, 9, 44, 33
4, 185412, Note_on_c, 9, 51, 0
4, 185627, Note_on_c, 9, 44, 0
4, 186266, Note_on_c, 9, 44, 23
4, 186691, Note_on_c, 9, 44, 0
4, 186867, Note_on_c, 9, 51, 54
4, 187001, Note_on_c, 9, 51, 0
4, 187235, Note_on_c, 9, 51, 20
4, 187482, Note_on_c, 9, 51, 0
4, 187853, Note_on_c, 9, 51, 42
4, 187922, Note_on_c, 9, 51, 0
4, 188179, Note_on_c, 9, 44, 33
4, 188230, Note_on_c, 9, 53, 35
4, 188311, Note_on_c, 9, 53, 0
4, 188527, Note_on_c, 9, 53, 33
4, 188593, Note_on_c, 9, 53, 0
4, 188625, Note_on_c, 9, 44, 0
4, 189763, Note_on_c, 9, 38, 59
4, 189921, Note_on_c, 9, 53, 54
4, 189944, Note_on_c, 9, 38, 0
4, 190029, Note_on_c, 9, 53, 0
4, 190171, Note_on_c, 9, 36, 17
4, 190401, Note_on_c, 9, 36, 0
4, 190560, Note_on_c, 9, 51, 37
4, 190747, Note_on_c, 9, 51, 0
4, 190835, Note_on_c, 9, 53, 54
4, 190965, Note_on_c, 9, 53, 0
4, 191107, Note_on_c, 9, 44, 61
4, 191447, Note_on_c, 9, 51, 21
4, 191515, Note_on_c, 9, 51, 0
4, 191705, Note_on_c, 9, 44, 0
4, 191738, Note_on_c, 9, 51, 61
4, 191858, Note_on_c, 9, 51, 0
4, 192039, Note_on_c, 9, 51, 45
4, 192300, Note_on_c, 9, 51, 0
4, 192992, Note_on_c, 9, 51, 67
4, 193164, Note_on_c, 9, 51, 0
4, 193654, Note_on_c, 9, 38, 25
4, 193718, Note_on_c, 9, 38, 0
4, 193970, Note_on_c, 9, 44, 60
4, 193993, Note_on_c, 9, 51, 59
4, 194117, Note_on_c, 9, 51, 0
4, 194198, Note_on_c, 9, 44, 0
4, 194914, Note_on_c, 9, 51, 62
4, 195070, Note_on_c, 9, 51, 0
4, 195583, Note_on_c, 9, 51, 44
4, 195684, Note_on_c, 9, 51, 0
4, 195871, Note_on_c, 9, 51, 51
4, 196460, Note_on_c, 9, 51, 0
4, 196541, Note_on_c, 9, 38, 20
4, 196598, Note_on_c, 9, 38, 0
4, 196839, Note_on_c, 9, 51, 55
4, 196850, Note_on_c, 9, 44, 31
4, 197203, Note_on_c, 9, 44, 0
4, 197331, Note_on_c, 9, 51, 0
4, 197424, Note_on_c, 9, 36, 62
4, 197648, Note_on_c, 9, 36, 0
4, 197808, Note_on_c, 9, 36, 34
4, 197810, Note_on_c, 9, 44, 32
4, 197814, Note_on_c, 9, 51, 48
4, 197990, Note_on_c, 9, 36, 0
4, 198185, Note_on_c, 9, 51, 0
4, 198202, Note_on_c, 9, 44, 0
4, 198462, Note_on_c, 9, 53, 61
4, 198650, Note_on_c, 9, 53, 0
4, 198787, Note_on_c, 9, 51, 34
4, 199406, Note_on_c, 9, 51, 0
4, 199730, Note_on_c, 9, 51, 45
4, 199783, Note_on_c, 9, 44, 31
4, 200114, Note_on_c, 9, 44, 0
4, 200379, Note_on_c, 9, 51, 0
4, 200762, Note_on_c, 9, 46, 29
4, 201337, Note_on_c, 9, 51, 78
4, 201540, Note_on_c, 9, 51, 0
4, 201713, Note_on_c, 9, 51, 55
4, 201895, Note_on_c, 9, 46, 0
4, 202326, Note_on_c, 9, 38, 30
4, 202489, Note_on_c, 9, 51, 0
4, 202499, Note_on_c, 9, 38, 0
4, 202691, Note_on_c, 9, 44, 36
4, 203042, Note_on_c, 9, 44, 0
4, 203900, Note_on_c, 9, 53, 53
4, 204003, Note_on_c, 9, 53, 0
4, 204175, Note_on_c, 9, 51, 47
4, 204350, Note_on_c, 9, 51, 0
4, 204526, Note_on_c, 9, 51, 42
4, 205019, Note_on_c, 9, 51, 0
4, 205550, Note_on_c, 9, 44, 63
4, 205745, Note_on_c, 9, 38, 19
4, 205846, Note_on_c, 9, 38, 0
4, 206083, Note_on_c, 9, 51, 36
4, 206137, Note_on_c, 9, 51, 0
4, 206582, Note_on_c, 9, 44, 0
4, 206672, Note_on_c, 9, 38, 33
4, 206761, Note_on_c, 9, 38, 0
4, 206952, Note_on_c, 9, 38, 41
4, 207023, Note_on_c, 9, 51, 23
4, 207059, Note_on_c, 9, 38, 0
4, 207123, Note_on_c, 9, 51, 0
4, 207321, Note_on_c, 9, 36, 50
4, 207414, Note_on_c, 9, 51, 59
4, 207486, Note_on_c, 9, 36, 0
4, 207953, Note_on_c, 9, 51, 0
4, 208409, Note_on_c, 9, 51, 70
4, 208480, Note_on_c, 9, 44, 34
4, 208742, Note_on_c, 9, 44, 0
4, 208762, Note_on_c, 9, 51, 0
4, 209325, Note_on_c, 9, 51, 67
4, 209712, Note_on_c, 9, 51, 0
4, 209991, Note_on_c, 9, 38, 30
4, 210036, Note_on_c, 9, 51, 33
4, 210062, Note_on_c, 9, 38, 0
4, 210105, Note_on_c, 9, 51, 0
4, 210308, Note_on_c, 9, 51, 57
4, 210808, Note_on_c, 9, 51, 0
4, 210926, Note_on_c, 9, 38, 33
4, 210982, Note_on_c, 9, 38, 0
4, 211226, Note_on_c, 9, 51, 67
4, 211331, Note_on_c, 9, 44, 32
4, 211675, Note_on_c, 9, 44, 0
4, 211681, Note_on_c, 9, 51, 0
4, 211865, Note_on_c, 9, 38, 43
4, 211933, Note_on_c, 9, 38, 0
4, 212189, Note_on_c, 9, 51, 73
4, 212272, Note_on_c, 9, 44, 30
4, 212427, Note_on_c, 9, 51, 0
4, 212711, Note_on_c, 9, 44, 0
4, 212787, Note_on_c, 9, 38, 30
4, 212941, Note_on_c, 9, 38, 0
4, 213137, Note_on_c, 9, 51, 69
4, 213195, Note_on_c, 9, 36, 13
4, 213315, Note_on_c, 9, 36, 0
4, 213378, Note_on_c, 9, 51, 0
4, 213717, Note_on_c, 9, 36, 43
4, 213860, Note_on_c, 9, 36, 0
4, 214071, Note_on_c, 9, 51, 67
4, 214115, Note_on_c, 9, 44, 30
4, 214115, Note_on_c, 9, 36, 28
4, 214280, Note_on_c, 9, 51, 0
4, 214409, Note_on_c, 9, 36, 0
4, 214461, Note_on_c, 9, 44, 0
4, 214768, Note_on_c, 9, 51, 65
4, 214867, Note_on_c, 9, 51, 0
4, 215042, Note_on_c, 9, 51, 56
4, 215419, Note_on_c, 9, 51, 0
4, 215972, Note_on_c, 9, 51, 67
4, 216394, Note_on_c, 9, 51, 0
4, 216960, Note_on_c, 9, 51, 61
4, 217055, Note_on_c, 9, 44, 37
4, 217241, Note_on_c, 9, 44, 0
4, 217284, Note_on_c, 9, 51, 0
4, 217664, Note_on_c, 9, 51, 36
4, 217713, Note_on_c, 9, 51, 0
4, 217927, Note_on_c, 9, 51, 61
4, 218375, Note_on_c, 9, 51, 0
4, 218549, Note_on_c, 9, 38, 30
4, 218630, Note_on_c, 9, 38, 0
4, 218866, Note_on_c, 9, 51, 73
4, 218939, Note_on_c, 9, 36, 18
4, 219032, Note_on_c, 9, 36, 0
4, 219323, Note_on_c, 9, 51, 0
4, 219488, Note_on_c, 9, 36, 27
4, 219667, Note_on_c, 9, 36, 0
4, 219776, Note_on_c, 9, 51, 70
4, 219856, Note_on_c, 9, 36, 29
4, 219887, Note_on_c, 9, 44, 38
4, 220043, Note_on_c, 9, 36, 0
4, 220144, Note_on_c, 9, 44, 0
4, 220318, Note_on_c, 9, 51, 0
4, 220447, Note_on_c, 9, 53, 80
4, 220662, Note_on_c, 9, 53, 0
4, 220801, Note_on_c, 9, 51, 31
4, 221322, Note_on_c, 9, 51, 0
4, 221729, Note_on_c, 9, 51, 72
4, 222286, Note_on_c, 9, 51, 0
4, 222705, Note_on_c, 9, 51, 73
4, 222743, Note_on_c, 9, 44, 42
4, 222986, Note_on_c, 9, 44, 0
4, 223123, Note_on_c, 9, 51, 0
4, 223693, Note_on_c, 9, 51, 65
4, 223897, Note_on_c, 9, 51, 0
4, 224322, Note_on_c, 9, 51, 57
4, 224432, Note_on_c, 9, 51, 0
4, 224587, Note_on_c, 9, 51, 57
4, 225096, Note_on_c, 9, 51, 0
4, 225544, Note_on_c, 9, 51, 67
4, 225619, Note_on_c, 9, 44, 40
4, 225863, Note_on_c, 9, 44, 0
4, 225902, Note_on_c, 9, 51, 0
4, 226531, Note_on_c, 9, 51, 69
4, 226595, Note_on_c, 9, 44, 38
4, 226775, Note_on_c, 9, 51, 0
4, 226852, Note_on_c, 9, 44, 0
4, 227475, Note_on_c, 9, 51, 69
4, 227691, Note_on_c, 9, 51, 0
4, 228431, Note_on_c, 9, 51, 76
4, 228575, Note_on_c, 9, 44, 32
4, 228621, Note_on_c, 9, 51, 0
4, 228811, Note_on_c, 9, 44, 0
4, 229407, Note_on_c, 9, 51, 75
4, 229581, Note_on_c, 9, 51, 0
4, 229588, Note_on_c, 9, 46, 48
4, 230087, Note_on_c, 9, 51, 75
4, 230102, Note_on_c, 9, 38, 47
4, 230219, Note_on_c, 9, 51, 0
4, 230222, Note_on_c, 9, 38, 0
4, 230412, Note_on_c, 9, 51, 56
4, 230457, Note_on_c, 9, 46, 0
4, 230882, Note_on_c, 9, 51, 0
4, 231401, Note_on_c, 9, 51, 61
4, 231533, Note_on_c, 9, 51, 0
4, 232058, Note_on_c, 9, 51, 54
4, 232138, Note_on_c, 9, 51, 0
4, 232365, Note_on_c, 9, 51, 74
4, 232957, Note_on_c, 9, 51, 0
4, 233907, Note_on_c, 9, 51, 68
4, 234064, Note_on_c, 9, 51, 0
4, 234270, Note_on_c, 9, 51, 47
4, 234809, Note_on_c, 9, 51, 0
4, 234984, Note_on_c, 9, 38, 20
4, 235040, Note_on_c, 9, 38, 0
4, 235241, Note_on_c, 9, 51, 47
4, 235343, Note_on_c, 9, 51, 0
4, 235688, Note_on_c, 9, 38, 28
4, 235790, Note_on_c, 9, 38, 0
4, 235855, Note_on_c, 9, 51, 85
4, 235976, Note_on_c, 9, 38, 25
4, 236015, Note_on_c, 9, 51, 0
4, 236048, Note_on_c, 9, 38, 0
4, 236220, Note_on_c, 9, 51, 58
4, 236760, Note_on_c, 9, 51, 0
4, 236893, Note_on_c, 9, 38, 26
4, 237005, Note_on_c, 9, 38, 0
4, 237196, Note_on_c, 9, 51, 52
4, 237256, Note_on_c, 9, 38, 29
4, 237324, Note_on_c, 9, 51, 0
4, 237361, Note_on_c, 9, 38, 0
4, 237784, Note_on_c, 9, 53, 78
4, 237869, Note_on_c, 9, 36, 29
4, 237951, Note_on_c, 9, 53, 0
4, 238001, Note_on_c, 9, 36, 0
4, 238136, Note_on_c, 9, 51, 49
4, 238184, Note_on_c, 9, 36, 54
4, 238427, Note_on_c, 9, 36, 0
4, 238760, Note_on_c, 9, 51, 0
4, 239123, Note_on_c, 9, 51, 71
4, 239612, Note_on_c, 9, 51, 0
4, 240065, Note_on_c, 9, 51, 62
4, 240134, Note_on_c, 9, 44, 35
4, 240499, Note_on_c, 9, 44, 0
4, 240599, Note_on_c, 9, 51, 0
4, 241011, Note_on_c, 9, 51, 58
4, 241559, Note_on_c, 9, 51, 0
4, 241651, Note_on_c, 9, 53, 68
4, 241879, Note_on_c, 9, 53, 0
4, 241975, Note_on_c, 9, 51, 32
4, 242645, Note_on_c, 9, 51, 0
4, 243017, Note_on_c, 9, 51, 48
4, 243031, Note_on_c, 9, 44, 54
4, 243242, Note_on_c, 9, 44, 0
4, 243525, Note_on_c, 9, 51, 0
4, 243948, Note_on_c, 9, 51, 55
4, 244475, Note_on_c, 9, 51, 0
4, 244848, Note_on_c, 9, 51, 54
4, 245478, Note_on_c, 9, 51, 0
4, 245757, Note_on_c, 9, 51, 49
4, 245879, Note_on_c, 9, 44, 38
4, 246081, Note_on_c, 9, 44, 0
4, 246401, Note_on_c, 9, 51, 0
4, 246726, Note_on_c, 9, 51, 38
4, 246844, Note_on_c, 9, 46, 30
4, 246987, Note_on_c, 9, 51, 0
4, 247073, Note_on_c, 9, 53, 60
4, 247288, Note_on_c, 9, 53, 0
4, 247380, Note_on_c, 9, 38, 31
4, 247394, Note_on_c, 9, 51, 38
4, 247430, Note_on_c, 9, 46, 0
4, 247560, Note_on_c, 9, 51, 0
4, 247613, Note_on_c, 9, 38, 0
4, 247721, Note_on_c, 9, 51, 47
4, 247760, Note_on_c, 9, 38, 43
4, 248251, Note_on_c, 9, 38, 0
4, 248392, Note_on_c, 9, 36, 26
4, 248418, Note_on_c, 9, 51, 0
4, 248472, Note_on_c, 9, 36, 0
4, 248661, Note_on_c, 9, 51, 47
4, 248702, Note_on_c, 9, 44, 31
4, 249035, Note_on_c, 9, 44, 0
4, 249304, Note_on_c, 9, 51, 0
4, 249593, Note_on_c, 9, 51, 42
4, 250157, Note_on_c, 9, 51, 0
4, 250578, Note_on_c, 9, 51, 54
4, 251238, Note_on_c, 9, 51, 0
4, 251277, Note_on_c, 9, 38, 30
4, 251347, Note_on_c, 9, 38, 0
4, 251546, Note_on_c, 9, 51, 45
4, 251582, Note_on_c, 9, 44, 68
4, 251851, Note_on_c, 9, 44, 0
4, 252090, Note_on_c, 9, 51, 0
4, 252243, Note_on_c, 9, 38, 48
4, 252326, Note_on_c, 9, 38, 0
4, 252518, Note_on_c, 9, 51, 34
4, 253079, Note_on_c, 9, 51, 0
4, 253150, Note_on_c, 9, 53, 56
4, 253206, Note_on_c, 9, 38, 62
4, 253326, Note_on_c, 9, 38, 0
4, 253357, Note_on_c, 9, 53, 0
4, 253498, Note_on_c, 9, 51, 21
4, 253550, Note_on_c, 9, 57, 70
4, 253580, Note_on_c, 9, 36, 40
4, 254159, Note_on_c, 9, 51, 0
4, 254481, Note_on_c, 9, 44, 35
4, 254486, Note_on_c, 9, 51, 39
4, 254767, Note_on_c, 9, 44, 0
4, 255149, Note_on_c, 9, 51, 0
4, 255387, Note_on_c, 9, 51, 45
4, 255647, Note_on_c, 9, 51, 0
4, 255909, Note_on_c, 9, 57, 0
4, 256032, Note_on_c, 9, 51, 36
4, 256148, Note_on_c, 9, 51, 0
4, 256253, Note_on_c, 9, 36, 0
4, 256316, Note_on_c, 9, 51, 34
4, 256401, Note_on_c, 9, 44, 39
4, 256687, Note_on_c, 9, 44, 0
4, 256933, Note_on_c, 9, 51, 0
4, 257229, Note_on_c, 9, 38, 21
4, 257260, Note_on_c, 9, 51, 50
4, 257369, Note_on_c, 9, 38, 0
4, 257561, Note_on_c, 9, 38, 41
4, 257705, Note_on_c, 9, 38, 0
4, 257813, Note_on_c, 9, 51, 0
4, 257891, Note_on_c, 9, 36, 37
4, 258089, Note_on_c, 9, 36, 0
4, 258234, Note_on_c, 9, 51, 51
4, 258273, Note_on_c, 9, 44, 54
4, 258583, Note_on_c, 9, 44, 0
4, 258587, Note_on_c, 9, 51, 0
4, 258605, Note_on_c, 9, 38, 23
4, 258694, Note_on_c, 9, 38, 0
4, 258902, Note_on_c, 9, 38, 46
4, 258908, Note_on_c, 9, 51, 42
4, 259024, Note_on_c, 9, 51, 0
4, 259085, Note_on_c, 9, 38, 0
4, 259198, Note_on_c, 9, 51, 52
4, 259246, Note_on_c, 9, 36, 44
4, 259436, Note_on_c, 9, 36, 0
4, 259757, Note_on_c, 9, 51, 0
4, 260095, Note_on_c, 9, 51, 56
4, 260181, Note_on_c, 9, 38, 33
4, 260188, Note_on_c, 9, 44, 47
4, 260286, Note_on_c, 9, 38, 0
4, 260469, Note_on_c, 9, 38, 46
4, 260591, Note_on_c, 9, 44, 0
4, 260632, Note_on_c, 9, 38, 0
4, 260645, Note_on_c, 9, 51, 0
4, 261076, Note_on_c, 9, 51, 50
4, 261423, Note_on_c, 9, 51, 0
4, 262101, Note_on_c, 9, 51, 73
4, 262183, Note_on_c, 9, 44, 48
4, 262507, Note_on_c, 9, 38, 52
4, 262523, Note_on_c, 9, 44, 0
4, 262585, Note_on_c, 9, 51, 0
4, 262622, Note_on_c, 9, 38, 0
4, 262792, Note_on_c, 9, 38, 45
4, 262949, Note_on_c, 9, 38, 0
4, 263008, Note_on_c, 9, 51, 63
4, 263112, Note_on_c, 9, 38, 53
4, 263353, Note_on_c, 9, 38, 0
4, 263391, Note_on_c, 9, 51, 0
4, 263675, Note_on_c, 9, 53, 69
4, 263848, Note_on_c, 9, 53, 0
4, 264005, Note_on_c, 9, 38, 45
4, 264023, Note_on_c, 9, 51, 25
4, 264152, Note_on_c, 9, 38, 0
4, 264175, Note_on_c, 9, 44, 48
4, 264307, Note_on_c, 9, 38, 29
4, 264382, Note_on_c, 9, 38, 0
4, 264385, Note_on_c, 9, 51, 0
4, 264535, Note_on_c, 9, 44, 0
4, 264642, Note_on_c, 9, 51, 59
4, 264646, Note_on_c, 9, 38, 44
4, 264762, Note_on_c, 9, 51, 0
4, 264896, Note_on_c, 9, 38, 0
4, 265001, Note_on_c, 9, 51, 52
4, 265103, Note_on_c, 9, 51, 0
4, 265266, Note_on_c, 9, 51, 50
4, 265587, Note_on_c, 9, 51, 0
4, 265944, Note_on_c, 9, 51, 46
4, 266023, Note_on_c, 9, 44, 55
4, 266077, Note_on_c, 9, 51, 0
4, 266254, Note_on_c, 9, 51, 53
4, 266320, Note_on_c, 9, 44, 0
4, 266537, Note_on_c, 9, 51, 0
4, 266885, Note_on_c, 9, 51, 61
4, 267358, Note_on_c, 9, 51, 0
4, 267567, Note_on_c, 9, 51, 45
4, 267605, Note_on_c, 9, 38, 49
4, 267698, Note_on_c, 9, 51, 0
4, 267718, Note_on_c, 9, 38, 0
4, 267896, Note_on_c, 9, 51, 39
4, 268325, Note_on_c, 9, 38, 54
4, 268414, Note_on_c, 9, 51, 0
4, 268456, Note_on_c, 9, 38, 0
4, 268489, Note_on_c, 9, 53, 74
4, 268622, Note_on_c, 9, 38, 21
4, 268702, Note_on_c, 9, 53, 0
4, 268744, Note_on_c, 9, 38, 0
4, 268836, Note_on_c, 9, 51, 31
4, 268919, Note_on_c, 9, 46, 25
4, 268984, Note_on_c, 9, 38, 43
4, 269045, Note_on_c, 9, 38, 0
4, 269282, Note_on_c, 9, 46, 0
4, 269390, Note_on_c, 9, 51, 0
4, 269837, Note_on_c, 9, 51, 32
4, 269888, Note_on_c, 9, 51, 0
4, 269980, Note_on_c, 9, 38, 49
4, 270067, Note_on_c, 9, 38, 0
4, 270326, Note_on_c, 9, 38, 27
4, 270389, Note_on_c, 9, 38, 0
4, 270413, Note_on_c, 9, 51, 86
4, 270554, Note_on_c, 9, 51, 0
4, 270777, Note_on_c, 9, 51, 61
4, 271225, Note_on_c, 9, 51, 0
4, 271395, Note_on_c, 9, 51, 24
4, 271471, Note_on_c, 9, 51, 0
4, 271739, Note_on_c, 9, 44, 37
4, 271749, Note_on_c, 9, 53, 48
4, 271918, Note_on_c, 9, 53, 0
4, 272030, Note_on_c, 9, 44, 0
4, 272329, Note_on_c, 9, 51, 70
4, 272437, Note_on_c, 9, 51, 0
4, 273045, Note_on_c, 9, 51, 45
4, 273110, Note_on_c, 9, 51, 0
4, 273295, Note_on_c, 9, 51, 69
4, 273464, Note_on_c, 9, 51, 0
4, 273910, Note_on_c, 9, 51, 51
4, 274011, Note_on_c, 9, 51, 0
4, 274198, Note_on_c, 9, 51, 72
4, 274345, Note_on_c, 9, 51, 0
4, 274521, Note_on_c, 9, 44, 48
4, 274557, Note_on_c, 9, 53, 82
4, 274728, Note_on_c, 9, 53, 0
4, 274766, Note_on_c, 9, 44, 0
4, 274865, Note_on_c, 9, 51, 30
4, 274995, Note_on_c, 9, 51, 0
4, 275185, Note_on_c, 9, 51, 72
4, 275534, Note_on_c, 9, 44, 32
4, 275896, Note_on_c, 9, 44, 0
4, 275909, Note_on_c, 9, 51, 0
4, 276205, Note_on_c, 9, 51, 38
4, 276323, Note_on_c, 9, 51, 0
4, 276551, Note_on_c, 9, 51, 56
4, 277097, Note_on_c, 9, 51, 0
4, 277134, Note_on_c, 9, 38, 20
4, 277261, Note_on_c, 9, 38, 0
4, 277461, Note_on_c, 9, 51, 61
4, 277571, Note_on_c, 9, 46, 30
4, 277863, Note_on_c, 9, 51, 0
4, 277919, Note_on_c, 9, 46, 0
4, 278144, Note_on_c, 9, 36, 19
4, 278286, Note_on_c, 9, 36, 0
4, 278357, Note_on_c, 9, 51, 71
4, 278560, Note_on_c, 9, 51, 0
4, 279060, Note_on_c, 9, 51, 75
4, 279181, Note_on_c, 9, 51, 0
4, 279356, Note_on_c, 9, 51, 64
4, 279940, Note_on_c, 9, 51, 0
4, 279990, Note_on_c, 9, 40, 19
4, 280139, Note_on_c, 9, 40, 0
4, 280317, Note_on_c, 9, 51, 69
4, 280382, Note_on_c, 9, 44, 55
4, 280463, Note_on_c, 9, 44, 0
4, 280909, Note_on_c, 9, 51, 0
4, 280976, Note_on_c, 9, 36, 29
4, 281139, Note_on_c, 9, 36, 0
4, 281324, Note_on_c, 9, 51, 63
4, 281369, Note_on_c, 9, 36, 32
4, 281568, Note_on_c, 9, 36, 0
4, 281634, Note_on_c, 9, 51, 0
4, 281956, Note_on_c, 9, 51, 60
4, 282090, Note_on_c, 9, 51, 0
4, 282241, Note_on_c, 9, 51, 57
4, 282807, Note_on_c, 9, 51, 0
4, 283229, Note_on_c, 9, 51, 76
4, 283267, Note_on_c, 9, 44, 54
4, 283361, Note_on_c, 9, 51, 0
4, 283571, Note_on_c, 9, 44, 0
4, 283865, Note_on_c, 9, 51, 64
4, 283983, Note_on_c, 9, 51, 0
4, 284157, Note_on_c, 9, 51, 62
4, 284614, Note_on_c, 9, 51, 0
4, 285106, Note_on_c, 9, 51, 77
4, 285700, Note_on_c, 9, 51, 0
4, 285768, Note_on_c, 9, 38, 22
4, 285985, Note_on_c, 9, 38, 0
4, 286067, Note_on_c, 9, 51, 75
4, 286130, Note_on_c, 9, 46, 42
4, 286442, Note_on_c, 9, 46, 0
4, 286566, Note_on_c, 9, 51, 0
4, 286787, Note_on_c, 9, 36, 20
4, 286947, Note_on_c, 9, 36, 0
4, 287045, Note_on_c, 9, 51, 70
4, 287142, Note_on_c, 9, 36, 17
4, 287381, Note_on_c, 9, 36, 0
4, 287704, Note_on_c, 9, 53, 52
4, 287747, Note_on_c, 9, 36, 24
4, 287776, Note_on_c, 9, 51, 0
4, 287903, Note_on_c, 9, 53, 0
4, 287925, Note_on_c, 9, 36, 0
4, 288071, Note_on_c, 9, 51, 21
4, 288826, Note_on_c, 9, 51, 0
4, 289013, Note_on_c, 9, 51, 60
4, 289031, Note_on_c, 9, 44, 58
4, 289307, Note_on_c, 9, 44, 0
4, 289674, Note_on_c, 9, 51, 0
4, 289917, Note_on_c, 9, 51, 50
4, 290488, Note_on_c, 9, 51, 0
4, 290588, Note_on_c, 9, 53, 64
4, 290806, Note_on_c, 9, 53, 0
4, 290927, Note_on_c, 9, 51, 23
4, 291671, Note_on_c, 9, 51, 0
4, 291875, Note_on_c, 9, 44, 42
4, 291926, Note_on_c, 9, 51, 61
4, 292084, Note_on_c, 9, 44, 0
4, 292538, Note_on_c, 9, 51, 0
4, 292589, Note_on_c, 9, 38, 14
4, 292669, Note_on_c, 9, 38, 0
4, 292856, Note_on_c, 9, 51, 62
4, 292871, Note_on_c, 9, 44, 51
4, 293153, Note_on_c, 9, 51, 0
4, 293193, Note_on_c, 9, 44, 0
4, 293499, Note_on_c, 9, 51, 70
4, 293505, Note_on_c, 9, 38, 23
4, 293607, Note_on_c, 9, 51, 0
4, 293661, Note_on_c, 9, 38, 0
4, 293817, Note_on_c, 9, 51, 75
4, 294389, Note_on_c, 9, 51, 0
4, 294517, Note_on_c, 9, 38, 23
4, 294619, Note_on_c, 9, 38, 0
4, 294743, Note_on_c, 9, 51, 54
4, 294787, Note_on_c, 9, 44, 61
4, 294933, Note_on_c, 9, 51, 0
4, 295055, Note_on_c, 9, 44, 0
4, 295700, Note_on_c, 9, 51, 67
4, 296001, Note_on_c, 9, 51, 0
4, 296629, Note_on_c, 9, 51, 35
4, 297097, Note_on_c, 9, 51, 0
4, 297591, Note_on_c, 9, 51, 34
4, 297631, Note_on_c, 9, 44, 42
4, 297887, Note_on_c, 9, 44, 0
4, 298328, Note_on_c, 9, 51, 0
4, 298557, Note_on_c, 9, 51, 29
4, 298610, Note_on_c, 9, 44, 54
4, 298845, Note_on_c, 9, 44, 0
4, 298909, Note_on_c, 9, 38, 41
4, 299049, Note_on_c, 9, 38, 0
4, 299064, Note_on_c, 9, 51, 0
4, 299131, Note_on_c, 9, 38, 37
4, 299159, Note_on_c, 9, 59, 70
4, 299176, Note_on_c, 9, 38, 29
4, 299237, Note_on_c, 9, 57, 48
4, 299289, Note_on_c, 9, 57, 0
4, 299309, Note_on_c, 9, 59, 0
4, 299326, Note_on_c, 9, 38, 0
4, 299451, Note_on_c, 9, 38, 0
4, 299485, Note_on_c, 9, 36, 26
4, 299506, Note_on_c, 9, 59, 83
4, 299534, Note_on_c, 9, 36, 73
4, 299535, Note_on_c, 9, 57, 72
4, 299651, Note_on_c, 9, 57, 0
4, 299670, Note_on_c, 9, 36, 0
4, 300131, Note_on_c, 9, 59, 0
4, 300427, Note_on_c, 9, 36, 0
4, 300509, Note_on_c, 9, 59, 64
4, 300552, Note_on_c, 9, 44, 36
4, 300971, Note_on_c, 9, 44, 0
4, 301721, Note_on_c, 9, 59, 0
4, 302130, Note_on_c, 9, 59, 32
4, 302211, Note_on_c, 9, 59, 0
4, 302486, Note_on_c, 9, 59, 33
4, 302584, Note_on_c, 9, 59, 0
4, 302701, Note_on_c, 9, 53, 54
4, 302975, Note_on_c, 9, 53, 0
4, 303367, Note_on_c, 9, 53, 39
4, 303462, Note_on_c, 9, 46, 43
4, 303593, Note_on_c, 9, 53, 0
4, 304578, Note_on_c, 9, 46, 0
4, 304699, Note_on_c, 9, 38, 31
4, 304791, Note_on_c, 9, 38, 0
4, 304974, Note_on_c, 9, 36, 38
4, 305107, Note_on_c, 9, 36, 0
4, 305278, Note_on_c, 9, 36, 38
4, 305282, Note_on_c, 9, 59, 36
4, 305564, Note_on_c, 9, 36, 0
4, 305793, Note_on_c, 9, 59, 0
4, 305841, Note_on_c, 9, 53, 44
4, 305907, Note_on_c, 9, 53, 0
4, 306246, Note_on_c, 9, 44, 54
4, 306496, Note_on_c, 9, 44, 0
4, 306616, Note_on_c, 9, 53, 43
4, 306742, Note_on_c, 9, 53, 0
4, 307275, Note_on_c, 9, 53, 45
4, 307422, Note_on_c, 9, 53, 0
4, 307722, Note_on_c, 9, 38, 24
4, 307900, Note_on_c, 9, 59, 39
4, 307902, Note_on_c, 9, 38, 0
4, 308014, Note_on_c, 9, 59, 0
4, 308244, Note_on_c, 9, 59, 45
4, 308698, Note_on_c, 9, 59, 0
4, 309169, Note_on_c, 9, 53, 23
4, 309196, Note_on_c, 9, 46, 49
4, 309322, Note_on_c, 9, 46, 0
4, 309378, Note_on_c, 9, 53, 0
4, 311620, Note_on_c, 9, 38, 21
4, 311669, Note_on_c, 9, 59, 49
4, 311728, Note_on_c, 9, 59, 0
4, 311768, Note_on_c, 9, 38, 0
4, 311944, Note_on_c, 9, 44, 46
4, 312014, Note_on_c, 9, 53, 28
4, 312104, Note_on_c, 9, 53, 0
4, 312147, Note_on_c, 9, 44, 0
4, 312620, Note_on_c, 9, 53, 24
4, 312713, Note_on_c, 9, 53, 0
4, 312878, Note_on_c, 9, 44, 37
4, 312907, Note_on_c, 9, 36, 29
4, 312944, Note_on_c, 9, 53, 39
4, 313064, Note_on_c, 9, 44, 0
4, 313123, Note_on_c, 9, 53, 0
4, 313185, Note_on_c, 9, 36, 0
4, 313569, Note_on_c, 9, 59, 54
4, 313657, Note_on_c, 9, 59, 0
4, 313872, Note_on_c, 9, 59, 78
4, 313971, Note_on_c, 9, 59, 0
4, 314490, Note_on_c, 9, 59, 101
4, 314814, Note_on_c, 9, 44, 33
4, 315084, Note_on_c, 9, 59, 0
4, 315113, Note_on_c, 9, 44, 0
4, 315204, Note_on_c, 9, 59, 61
4, 315254, Note_on_c, 9, 59, 0
4, 315453, Note_on_c, 9, 59, 91
4, 315561, Note_on_c, 9, 59, 0
4, 315812, Note_on_c, 9, 59, 109
4, 316389, Note_on_c, 9, 59, 0
4, 316735, Note_on_c, 9, 59, 52
4, 316856, Note_on_c, 9, 59, 0
4, 317018, Note_on_c, 9, 59, 52
4, 317074, Note_on_c, 9, 59, 0
4, 317388, Note_on_c, 9, 59, 116
4, 317710, Note_on_c, 9, 44, 33
4, 317925, Note_on_c, 9, 59, 0
4, 317936, Note_on_c, 9, 44, 0
4, 318033, Note_on_c, 9, 59, 72
4, 318088, Note_on_c, 9, 59, 0
4, 318756, Note_on_c, 9, 59, 106
4, 319363, Note_on_c, 9, 38, 23
4, 319515, Note_on_c, 9, 38, 0
4, 319989, Note_on_c, 9, 59, 0
4, 320320, Note_on_c, 9, 59, 48
4, 320327, Note_on_c, 9, 38, 22
4, 320411, Note_on_c, 9, 59, 0
4, 320526, Note_on_c, 9, 38, 0
4, 320672, Note_on_c, 9, 59, 57
4, 320686, Note_on_c, 9, 44, 34
4, 320722, Note_on_c, 9, 59, 0
4, 320991, Note_on_c, 9, 44, 0
4, 321283, Note_on_c, 9, 38, 28
4, 321292, Note_on_c, 9, 59, 63
4, 321343, Note_on_c, 9, 59, 0
4, 321419, Note_on_c, 9, 38, 0
4, 321593, Note_on_c, 9, 44, 32
4, 321947, Note_on_c, 9, 59, 60
4, 321963, Note_on_c, 9, 44, 0
4, 321998, Note_on_c, 9, 59, 0
4, 322222, Note_on_c, 9, 38, 32
4, 322228, Note_on_c, 9, 53, 44
4, 322372, Note_on_c, 9, 38, 0
4, 322384, Note_on_c, 9, 53, 0
4, 322590, Note_on_c, 9, 59, 23
4, 322597, Note_on_c, 9, 57, 36
4, 322616, Note_on_c, 9, 36, 24
4, 322706, Note_on_c, 9, 59, 0
4, 322880, Note_on_c, 9, 59, 32
4, 322963, Note_on_c, 9, 59, 0
4, 323202, Note_on_c, 9, 53, 59
4, 323276, Note_on_c, 9, 53, 0
4, 323546, Note_on_c, 9, 44, 38
4, 323586, Note_on_c, 9, 59, 29
4, 323658, Note_on_c, 9, 59, 0
4, 323822, Note_on_c, 9, 44, 0
4, 323914, Note_on_c, 9, 53, 43
4, 323973, Note_on_c, 9, 53, 0
4, 324231, Note_on_c, 9, 59, 36
4, 324345, Note_on_c, 9, 57, 0
4, 324371, Note_on_c, 9, 59, 0
4, 324607, Note_on_c, 9, 59, 38
4, 324719, Note_on_c, 9, 59, 0
4, 324862, Note_on_c, 9, 38, 34
4, 324873, Note_on_c, 9, 36, 0
4, 324905, Note_on_c, 9, 59, 59
4, 324966, Note_on_c, 9, 59, 0
4, 324968, Note_on_c, 9, 38, 0
4, 325147, Note_on_c, 9, 38, 38
4, 325254, Note_on_c, 9, 53, 41
4, 325320, Note_on_c, 9, 53, 0
4, 325353, Note_on_c, 9, 38, 0
4, 325523, Note_on_c, 9, 36, 20
4, 325602, Note_on_c, 9, 59, 47
4, 325720, Note_on_c, 9, 59, 0
4, 325956, Note_on_c, 9, 36, 0
4, 326453, Note_on_c, 9, 44, 48
4, 326736, Note_on_c, 9, 44, 0
4, 326984, Note_on_c, 9, 59, 30
4, 327055, Note_on_c, 9, 59, 0
4, 327313, Note_on_c, 9, 59, 39
4, 327379, Note_on_c, 9, 59, 0
4, 327657, Note_on_c, 9, 53, 27
4, 327715, Note_on_c, 9, 53, 0
4, 327978, Note_on_c, 9, 59, 62
4, 328135, Note_on_c, 9, 59, 0
4, 328342, Note_on_c, 9, 59, 53
4, 328530, Note_on_c, 9, 59, 0
4, 328928, Note_on_c, 9, 38, 22
4, 329024, Note_on_c, 9, 38, 0
4, 329273, Note_on_c, 9, 44, 40
4, 329328, Note_on_c, 9, 59, 46
4, 329424, Note_on_c, 9, 44, 0
4, 330070, Note_on_c, 9, 59, 0
4, 331171, Note_on_c, 9, 59, 34
4, 331244, Note_on_c, 9, 59, 0
4, 332140, Note_on_c, 9, 44, 33
4, 332353, Note_on_c, 9, 44, 0
4, 332812, Note_on_c, 9, 59, 24
4, 332903, Note_on_c, 9, 59, 0
4, 333120, Note_on_c, 9, 59, 54
4, 333516, Note_on_c, 9, 59, 0
4, 333642, Note_on_c, 9, 40, 32
4, 333734, Note_on_c, 9, 40, 0
4, 333767, Note_on_c, 9, 59, 107
4, 333993, Note_on_c, 9, 59, 0
4, 334049, Note_on_c, 9, 36, 13
4, 334117, Note_on_c, 9, 59, 87
4, 334248, Note_on_c, 9, 36, 0
4, 334720, Note_on_c, 9, 36, 21
4, 334785, Note_on_c, 9, 59, 0
4, 334850, Note_on_c, 9, 36, 0
4, 335040, Note_on_c, 9, 59, 69
4, 335044, Note_on_c, 9, 44, 33
4, 335086, Note_on_c, 9, 36, 20
4, 335337, Note_on_c, 9, 44, 0
4, 335394, Note_on_c, 9, 36, 0
4, 335588, Note_on_c, 9, 59, 0
4, 336024, Note_on_c, 9, 44, 35
4, 336028, Note_on_c, 9, 59, 64
4, 336313, Note_on_c, 9, 44, 0
4, 336628, Note_on_c, 9, 59, 0
4, 337628, Note_on_c, 9, 59, 61
4, 337740, Note_on_c, 9, 59, 0
4, 337890, Note_on_c, 9, 59, 65
4, 337960, Note_on_c, 9, 44, 31
4, 338273, Note_on_c, 9, 44, 0
4, 338473, Note_on_c, 9, 59, 0
4, 338582, Note_on_c, 9, 59, 20
4, 339055, Note_on_c, 9, 59, 0
4, 339178, Note_on_c, 9, 59, 65
4, 339292, Note_on_c, 9, 59, 0
4, 339422, Note_on_c, 9, 59, 72
4, 339707, Note_on_c, 9, 59, 0
4, 339803, Note_on_c, 9, 59, 72
4, 340375, Note_on_c, 9, 59, 0
4, 340791, Note_on_c, 9, 59, 55
4, 340810, Note_on_c, 9, 44, 36
4, 341081, Note_on_c, 9, 44, 0
4, 341475, Note_on_c, 9, 59, 0
4, 341745, Note_on_c, 9, 44, 45
4, 341759, Note_on_c, 9, 59, 49
4, 342033, Note_on_c, 9, 44, 0
4, 342908, Note_on_c, 9, 59, 0
4, 343377, Note_on_c, 9, 59, 18
4, 343379, Note_on_c, 9, 37, 33
4, 343491, Note_on_c, 9, 59, 0
4, 343536, Note_on_c, 9, 37, 0
4, 343676, Note_on_c, 9, 46, 35
4, 343714, Note_on_c, 9, 59, 51
4, 343858, Note_on_c, 9, 59, 0
4, 343971, Note_on_c, 9, 37, 39
4, 344296, Note_on_c, 9, 37, 0
4, 344352, Note_on_c, 9, 53, 60
4, 344422, Note_on_c, 9, 53, 0
4, 344660, Note_on_c, 9, 37, 48
4, 344734, Note_on_c, 9, 59, 22
4, 344956, Note_on_c, 9, 46, 0
4, 345105, Note_on_c, 9, 59, 0
4, 345153, Note_on_c, 9, 37, 0
4, 345277, Note_on_c, 9, 53, 55
4, 345280, Note_on_c, 9, 36, 64
4, 345332, Note_on_c, 9, 53, 0
4, 345497, Note_on_c, 9, 36, 0
4, 345648, Note_on_c, 9, 59, 19
4, 345667, Note_on_c, 9, 36, 28
4, 345893, Note_on_c, 9, 59, 0
4, 345926, Note_on_c, 9, 36, 0
4, 346148, Note_on_c, 9, 59, 57
4, 346280, Note_on_c, 9, 59, 0
4, 346484, Note_on_c, 9, 59, 52
4, 346505, Note_on_c, 9, 44, 30
4, 346576, Note_on_c, 9, 59, 0
4, 346731, Note_on_c, 9, 44, 0
4, 346795, Note_on_c, 9, 53, 27
4, 346936, Note_on_c, 9, 53, 0
4, 347113, Note_on_c, 9, 59, 52
4, 347221, Note_on_c, 9, 59, 0
4, 347451, Note_on_c, 9, 59, 64
4, 347461, Note_on_c, 9, 44, 23
4, 347582, Note_on_c, 9, 59, 0
4, 347790, Note_on_c, 9, 53, 39
4, 347900, Note_on_c, 9, 53, 0
4, 347918, Note_on_c, 9, 44, 0
4, 348108, Note_on_c, 9, 59, 57
4, 348246, Note_on_c, 9, 59, 0
4, 348777, Note_on_c, 9, 38, 22
4, 348881, Note_on_c, 9, 38, 0
4, 349060, Note_on_c, 9, 38, 33
4, 349104, Note_on_c, 9, 53, 36
4, 349162, Note_on_c, 9, 53, 0
4, 349207, Note_on_c, 9, 38, 0
4, 349423, Note_on_c, 9, 59, 62
4, 349431, Note_on_c, 9, 38, 45
4, 349571, Note_on_c, 9, 38, 0
4, 349580, Note_on_c, 9, 59, 0
4, 349706, Note_on_c, 9, 44, 48
4, 349724, Note_on_c, 9, 36, 40
4, 349744, Note_on_c, 9, 53, 20
4, 349810, Note_on_c, 9, 36, 0
4, 349872, Note_on_c, 9, 53, 0
4, 349927, Note_on_c, 9, 44, 0
4, 350018, Note_on_c, 9, 44, 35
4, 350019, Note_on_c, 9, 36, 48
4, 350136, Note_on_c, 9, 44, 0
4, 350350, Note_on_c, 9, 36, 0
4, 350979, Note_on_c, 9, 59, 64
4, 351044, Note_on_c, 9, 59, 0
4, 351361, Note_on_c, 9, 59, 72
4, 351457, Note_on_c, 9, 59, 0
4, 351663, Note_on_c, 9, 53, 36
4, 351740, Note_on_c, 9, 53, 0
4, 351887, Note_on_c, 9, 44, 32
4, 351961, Note_on_c, 9, 59, 60
4, 352089, Note_on_c, 9, 59, 0
4, 352131, Note_on_c, 9, 44, 0
4, 352254, Note_on_c, 9, 44, 27
4, 352294, Note_on_c, 9, 37, 64
4, 352656, Note_on_c, 9, 44, 0
4, 352729, Note_on_c, 9, 59, 55
4, 352784, Note_on_c, 9, 37, 0
4, 352808, Note_on_c, 9, 59, 0
4, 353014, Note_on_c, 9, 59, 69
4, 353089, Note_on_c, 9, 59, 0
4, 353331, Note_on_c, 9, 53, 52
4, 353420, Note_on_c, 9, 53, 0
4, 353881, Note_on_c, 9, 44, 36
4, 354070, Note_on_c, 9, 44, 0
4, 354235, Note_on_c, 9, 44, 30
4, 354546, Note_on_c, 9, 44, 0
4, 355147, Note_on_c, 9, 37, 45
4, 355186, Note_on_c, 9, 59, 23
4, 355257, Note_on_c, 9, 59, 0
4, 355409, Note_on_c, 9, 59, 41
4, 355478, Note_on_c, 9, 59, 0
4, 355532, Note_on_c, 9, 37, 0
4, 355790, Note_on_c, 9, 44, 39
4, 355809, Note_on_c, 9, 53, 25
4, 355874, Note_on_c, 9, 53, 0
4, 356001, Note_on_c, 9, 44, 0
4, 356122, Note_on_c, 9, 44, 48
4, 356362, Note_on_c, 9, 44, 0
4, 356458, Note_on_c, 9, 59, 39
4, 356536, Note_on_c, 9, 59, 0
4, 356705, Note_on_c, 9, 46, 27
4, 356718, Note_on_c, 9, 36, 50
4, 356768, Note_on_c, 9, 59, 51
4, 356917, Note_on_c, 9, 46, 0
4, 356919, Note_on_c, 9, 36, 0
4, 356936, Note_on_c, 9, 59, 0
4, 357111, Note_on_c, 9, 36, 25
4, 357170, Note_on_c, 9, 59, 39
4, 357548, Note_on_c, 9, 36, 0
4, 357717, Note_on_c, 9, 59, 0
4, 358024, Note_on_c, 9, 44, 24
4, 358027, Note_on_c, 9, 37, 27
4, 358088, Note_on_c, 9, 59, 55
4, 358204, Note_on_c, 9, 59, 0
4, 358263, Note_on_c, 9, 37, 0
4, 358285, Note_on_c, 9, 44, 0
4, 359039, Note_on_c, 9, 36, 24
4, 359052, Note_on_c, 9, 59, 29
4, 359531, Note_on_c, 9, 36, 0
4, 359909, Note_on_c, 9, 59, 0
4, 360963, Note_on_c, 9, 59, 37
4, 361010, Note_on_c, 9, 44, 40
4, 361342, Note_on_c, 9, 44, 0
4, 361916, Note_on_c, 9, 44, 36
4, 362169, Note_on_c, 9, 59, 0
4, 362377, Note_on_c, 9, 44, 0
4, 362481, Note_on_c, 9, 59, 33
4, 362620, Note_on_c, 9, 59, 0
4, 362836, Note_on_c, 9, 59, 48
4, 363571, Note_on_c, 9, 59, 0
4, 363805, Note_on_c, 9, 44, 38
4, 363810, Note_on_c, 9, 59, 45
4, 364076, Note_on_c, 9, 44, 0
4, 364792, Note_on_c, 9, 46, 26
4, 365119, Note_on_c, 9, 59, 0
4, 365435, Note_on_c, 9, 59, 32
4, 365552, Note_on_c, 9, 59, 0
4, 365785, Note_on_c, 9, 46, 0
4, 365798, Note_on_c, 9, 59, 40
4, 365801, Note_on_c, 9, 38, 21
4, 365875, Note_on_c, 9, 38, 0
4, 366383, Note_on_c, 9, 38, 33
4, 366481, Note_on_c, 9, 59, 0
4, 366533, Note_on_c, 9, 38, 0
4, 366754, Note_on_c, 9, 59, 38
4, 366842, Note_on_c, 9, 38, 34
4, 366957, Note_on_c, 9, 38, 0
4, 367088, Note_on_c, 9, 38, 25
4, 367283, Note_on_c, 9, 38, 0
4, 367605, Note_on_c, 9, 59, 0
4, 367646, Note_on_c, 9, 53, 42
4, 367833, Note_on_c, 9, 36, 22
4, 367997, Note_on_c, 9, 36, 0
4, 368272, Note_on_c, 9, 53, 0
4, 368380, Note_on_c, 9, 59, 22
4, 368468, Note_on_c, 9, 59, 0
4, 368674, Note_on_c, 9, 59, 43
4, 369348, Note_on_c, 9, 59, 0
4, 369613, Note_on_c, 9, 44, 37
4, 369621, Note_on_c, 9, 59, 28
4, 369924, Note_on_c, 9, 44, 0
4, 370167, Note_on_c, 9, 59, 0
4, 370543, Note_on_c, 9, 59, 36
4, 371108, Note_on_c, 9, 59, 0
4, 371175, Note_on_c, 9, 53, 64
4, 371213, Note_on_c, 9, 38, 20
4, 371297, Note_on_c, 9, 38, 0
4, 371360, Note_on_c, 9, 53, 0
4, 371550, Note_on_c, 9, 59, 37
4, 372173, Note_on_c, 9, 38, 21
4, 372293, Note_on_c, 9, 38, 0
4, 372306, Note_on_c, 9, 59, 0
4, 372471, Note_on_c, 9, 44, 34
4, 372532, Note_on_c, 9, 59, 40
4, 372746, Note_on_c, 9, 44, 0
4, 373154, Note_on_c, 9, 59, 0
4, 373154, Note_on_c, 9, 38, 21
4, 373262, Note_on_c, 9, 38, 0
4, 373461, Note_on_c, 9, 59, 33
4, 373805, Note_on_c, 9, 38, 22
4, 373897, Note_on_c, 9, 38, 0
4, 374055, Note_on_c, 9, 38, 32
4, 374097, Note_on_c, 9, 59, 0
4, 374195, Note_on_c, 9, 38, 0
4, 374401, Note_on_c, 9, 36, 22
4, 374420, Note_on_c, 9, 59, 48
4, 374686, Note_on_c, 9, 36, 0
4, 375104, Note_on_c, 9, 59, 0
4, 375373, Note_on_c, 9, 59, 43
4, 375375, Note_on_c, 9, 36, 17
4, 375377, Note_on_c, 9, 44, 18
4, 375570, Note_on_c, 9, 44, 0
4, 375745, Note_on_c, 9, 36, 0
4, 375926, Note_on_c, 9, 59, 0
4, 375971, Note_on_c, 9, 44, 27
4, 376001, Note_on_c, 9, 53, 29
4, 376218, Note_on_c, 9, 53, 0
4, 376379, Note_on_c, 9, 59, 24
4, 376600, Note_on_c, 9, 44, 0
4, 376690, Note_on_c, 9, 59, 0
4, 377227, Note_on_c, 9, 59, 66
4, 377285, Note_on_c, 9, 59, 0
4, 377897, Note_on_c, 9, 44, 26
4, 377907, Note_on_c, 9, 59, 87
4, 377992, Note_on_c, 9, 59, 0
4, 378126, Note_on_c, 9, 44, 0
4, 378228, Note_on_c, 9, 59, 95
4, 378229, Note_on_c, 9, 44, 21
4, 378333, Note_on_c, 9, 59, 0
4, 378497, Note_on_c, 9, 59, 74
4, 378525, Note_on_c, 9, 44, 0
4, 378558, Note_on_c, 9, 59, 0
4, 378802, Note_on_c, 9, 46, 31
4, 379193, Note_on_c, 9, 59, 82
4, 379224, Note_on_c, 9, 46, 0
4, 379242, Note_on_c, 9, 59, 0
4, 379487, Note_on_c, 9, 38, 39
4, 379602, Note_on_c, 9, 38, 0
4, 379786, Note_on_c, 9, 38, 28
4, 379807, Note_on_c, 9, 59, 89
4, 379866, Note_on_c, 9, 59, 0
4, 379987, Note_on_c, 9, 38, 0
4, 380138, Note_on_c, 9, 36, 29
4, 380143, Note_on_c, 9, 57, 39
4, 380465, Note_on_c, 9, 59, 56
4, 380518, Note_on_c, 9, 59, 0
4, 380715, Note_on_c, 9, 44, 32
4, 380745, Note_on_c, 9, 59, 83
4, 380905, Note_on_c, 9, 44, 0
4, 380935, Note_on_c, 9, 59, 0
4, 381065, Note_on_c, 9, 44, 24
4, 381072, Note_on_c, 9, 59, 77
4, 381286, Note_on_c, 9, 44, 0
4, 381484, Note_on_c, 9, 59, 0
4, 381663, Note_on_c, 9, 46, 34
4, 381972, Note_on_c, 9, 59, 82
4, 382515, Note_on_c, 9, 59, 0
4, 382613, Note_on_c, 9, 57, 0
4, 382661, Note_on_c, 9, 36, 0
4, 382733, Note_on_c, 9, 38, 65
4, 382875, Note_on_c, 9, 46, 0
4, 382894, Note_on_c, 9, 38, 0
4, 383034, Note_on_c, 9, 59, 51
4, 383071, Note_on_c, 9, 36, 44
4, 383091, Note_on_c, 9, 57, 31
4, 383218, Note_on_c, 9, 59, 0
4, 383990, Note_on_c, 9, 59, 46
4, 384052, Note_on_c, 9, 44, 32
4, 384369, Note_on_c, 9, 44, 0
4, 384579, Note_on_c, 9, 53, 45
4, 384707, Note_on_c, 9, 59, 0
4, 384809, Note_on_c, 9, 53, 0
4, 384960, Note_on_c, 9, 59, 23
4, 385264, Note_on_c, 9, 36, 0
4, 385315, Note_on_c, 9, 57, 0
4, 385335, Note_on_c, 9, 38, 52
4, 385355, Note_on_c, 9, 59, 0
4, 385387, Note_on_c, 9, 38, 0
4, 385579, Note_on_c, 9, 59, 45
4, 385601, Note_on_c, 9, 38, 57
4, 385722, Note_on_c, 9, 59, 0
4, 385874, Note_on_c, 9, 38, 0
4, 385938, Note_on_c, 9, 59, 34
4, 385944, Note_on_c, 9, 36, 77
4, 385955, Note_on_c, 9, 57, 75
4, 386311, Note_on_c, 9, 59, 0
4, 386585, Note_on_c, 9, 44, 29
4, 386732, Note_on_c, 9, 44, 0
4, 386870, Note_on_c, 9, 59, 31
4, 387094, Note_on_c, 9, 59, 0
4, 387215, Note_on_c, 9, 44, 32
4, 387426, Note_on_c, 9, 44, 0
4, 387807, Note_on_c, 9, 59, 25
4, 387852, Note_on_c, 9, 44, 37
4, 388256, Note_on_c, 9, 57, 0
4, 388339, Note_on_c, 9, 59, 0
4, 388342, Note_on_c, 9, 44, 0
4, 388377, Note_on_c, 9, 36, 0
4, 388398, Note_on_c, 9, 46, 29
4, 388413, Note_on_c, 9, 38, 64
4, 388603, Note_on_c, 9, 38, 0
4, 388667, Note_on_c, 9, 46, 0
4, 388700, Note_on_c, 9, 36, 48
4, 388729, Note_on_c, 9, 59, 33
4, 388832, Note_on_c, 9, 57, 17
4, 388926, Note_on_c, 9, 57, 0
4, 389122, Note_on_c, 9, 36, 0
4, 389178, Note_on_c, 9, 44, 43
4, 389293, Note_on_c, 9, 59, 0
4, 389344, Note_on_c, 9, 44, 0
4, 389737, Note_on_c, 9, 59, 30
4, 389777, Note_on_c, 9, 44, 31
4, 389999, Note_on_c, 9, 44, 0
4, 390347, Note_on_c, 9, 59, 0
4, 390379, Note_on_c, 9, 53, 25
4, 390401, Note_on_c, 9, 44, 34
4, 390506, Note_on_c, 9, 53, 0
4, 390617, Note_on_c, 9, 44, 0
4, 391019, Note_on_c, 9, 46, 31
4, 391252, Note_on_c, 9, 46, 0
4, 391338, Note_on_c, 9, 53, 29
4, 391475, Note_on_c, 9, 53, 0
4, 392277, Note_on_c, 9, 53, 30
4, 392329, Note_on_c, 9, 37, 25
4, 392415, Note_on_c, 9, 53, 0
4, 392443, Note_on_c, 9, 37, 0
4, 392591, Note_on_c, 9, 44, 30
4, 392669, Note_on_c, 9, 53, 32
4, 392756, Note_on_c, 9, 53, 0
4, 392762, Note_on_c, 9, 44, 0
4, 392938, Note_on_c, 9, 37, 30
4, 393164, Note_on_c, 9, 37, 0
4, 393595, Note_on_c, 9, 46, 28
4, 393597, Note_on_c, 9, 37, 37
4, 393656, Note_on_c, 9, 59, 30
4, 393809, Note_on_c, 9, 59, 0
4, 394042, Note_on_c, 9, 37, 0
4, 394197, Note_on_c, 9, 53, 23
4, 394204, Note_on_c, 9, 36, 29
4, 394281, Note_on_c, 9, 53, 0
4, 394363, Note_on_c, 9, 36, 0
4, 394565, Note_on_c, 9, 53, 32
4, 394600, Note_on_c, 9, 36, 25
4, 394644, Note_on_c, 9, 46, 0
4, 394755, Note_on_c, 9, 53, 0
4, 394974, Note_on_c, 9, 36, 0
4, 395233, Note_on_c, 9, 59, 18
4, 395317, Note_on_c, 9, 59, 0
4, 395537, Note_on_c, 9, 44, 22
4, 395573, Note_on_c, 9, 59, 22
4, 395740, Note_on_c, 9, 59, 0
4, 395845, Note_on_c, 9, 44, 0
4, 396158, Note_on_c, 9, 53, 31
4, 396248, Note_on_c, 9, 53, 0
4, 396518, Note_on_c, 9, 53, 27
4, 396647, Note_on_c, 9, 53, 0
4, 397137, Note_on_c, 9, 59, 22
4, 397224, Note_on_c, 9, 59, 0
4, 397488, Note_on_c, 9, 53, 35
4, 397667, Note_on_c, 9, 53, 0
4, 398048, Note_on_c, 9, 38, 29
4, 398054, Note_on_c, 9, 53, 38
4, 398126, Note_on_c, 9, 53, 0
4, 398191, Note_on_c, 9, 38, 0
4, 398421, Note_on_c, 9, 38, 23
4, 398427, Note_on_c, 9, 44, 26
4, 398445, Note_on_c, 9, 53, 25
4, 398671, Note_on_c, 9, 53, 0
4, 398674, Note_on_c, 9, 44, 0
4, 398734, Note_on_c, 9, 38, 0
4, 399078, Note_on_c, 9, 36, 20
4, 399079, Note_on_c, 9, 59, 18
4, 399140, Note_on_c, 9, 59, 0
4, 399235, Note_on_c, 9, 36, 0
4, 399366, Note_on_c, 9, 53, 35
4, 399575, Note_on_c, 9, 53, 0
4, 399939, Note_on_c, 9, 53, 45
4, 399941, Note_on_c, 9, 38, 27
4, 400086, Note_on_c, 9, 38, 0
4, 400092, Note_on_c, 9, 53, 0
4, 400308, Note_on_c, 9, 38, 27
4, 400635, Note_on_c, 9, 38, 0
4, 400639, Note_on_c, 9, 59, 38
4, 400707, Note_on_c, 9, 59, 0
4, 400934, Note_on_c, 9, 59, 33
4, 401015, Note_on_c, 9, 59, 0
4, 401210, Note_on_c, 9, 44, 24
4, 401254, Note_on_c, 9, 53, 41
4, 401422, Note_on_c, 9, 53, 0
4, 401506, Note_on_c, 9, 44, 0
4, 401610, Note_on_c, 9, 53, 25
4, 401712, Note_on_c, 9, 53, 0
4, 401850, Note_on_c, 9, 38, 25
4, 402033, Note_on_c, 9, 38, 0
4, 402207, Note_on_c, 9, 53, 40
4, 402219, Note_on_c, 9, 38, 25
4, 402446, Note_on_c, 9, 38, 0
4, 402481, Note_on_c, 9, 53, 0
4, 402869, Note_on_c, 9, 36, 24
4, 402913, Note_on_c, 9, 59, 22
4, 403022, Note_on_c, 9, 59, 0
4, 403047, Note_on_c, 9, 36, 0
4, 403346, Note_on_c, 9, 59, 18
4, 403471, Note_on_c, 9, 59, 0
4, 403886, Note_on_c, 9, 38, 19
4, 404035, Note_on_c, 9, 38, 0
4, 404179, Note_on_c, 9, 44, 31
4, 404202, Note_on_c, 9, 59, 37
4, 404255, Note_on_c, 9, 38, 20
4, 404377, Note_on_c, 9, 59, 0
4, 404411, Note_on_c, 9, 44, 0
4, 404587, Note_on_c, 9, 38, 0
4, 404873, Note_on_c, 9, 36, 22
4, 405015, Note_on_c, 9, 36, 0
4, 405131, Note_on_c, 9, 59, 41
4, 405322, Note_on_c, 9, 59, 0
4, 406671, Note_on_c, 9, 59, 39
4, 406791, Note_on_c, 9, 59, 0
4, 407009, Note_on_c, 9, 59, 39
4, 407020, Note_on_c, 9, 38, 18
4, 407053, Note_on_c, 9, 44, 36
4, 407128, Note_on_c, 9, 38, 0
4, 407214, Note_on_c, 9, 44, 0
4, 407311, Note_on_c, 9, 59, 0
4, 407601, Note_on_c, 9, 38, 24
4, 407724, Note_on_c, 9, 38, 0
4, 407937, Note_on_c, 9, 59, 53
4, 407976, Note_on_c, 9, 46, 25
4, 408069, Note_on_c, 9, 59, 0
4, 408536, Note_on_c, 9, 36, 26
4, 408602, Note_on_c, 9, 59, 52
4, 408674, Note_on_c, 9, 36, 0
4, 408683, Note_on_c, 9, 59, 0
4, 408778, Note_on_c, 9, 46, 0
4, 408906, Note_on_c, 9, 59, 53
4, 409282, Note_on_c, 9, 59, 0
4, 409868, Note_on_c, 9, 44, 27
4, 409888, Note_on_c, 9, 59, 55
4, 410100, Note_on_c, 9, 44, 0
4, 410422, Note_on_c, 9, 59, 0
4, 410844, Note_on_c, 9, 59, 49
4, 411093, Note_on_c, 9, 59, 0
4, 411499, Note_on_c, 9, 59, 46
4, 411602, Note_on_c, 9, 59, 0
4, 411809, Note_on_c, 9, 59, 32
4, 412265, Note_on_c, 9, 59, 0
4, 412745, Note_on_c, 9, 59, 44
4, 412777, Note_on_c, 9, 44, 25
4, 412932, Note_on_c, 9, 44, 0
4, 413366, Note_on_c, 9, 59, 0
4, 413377, Note_on_c, 9, 53, 38
4, 413498, Note_on_c, 9, 53, 0
4, 413802, Note_on_c, 9, 59, 23
4, 413907, Note_on_c, 9, 59, 0
4, 414365, Note_on_c, 9, 53, 52
4, 414421, Note_on_c, 9, 53, 0
4, 414771, Note_on_c, 9, 59, 29
4, 415232, Note_on_c, 9, 59, 0
4, 415632, Note_on_c, 9, 44, 29
4, 415658, Note_on_c, 9, 59, 33
4, 415804, Note_on_c, 9, 44, 0
4, 415828, Note_on_c, 9, 59, 0
4, 416660, Note_on_c, 9, 59, 28
4, 416856, Note_on_c, 9, 59, 0
4, 417615, Note_on_c, 9, 59, 40
4, 417841, Note_on_c, 9, 59, 0
4, 418656, Note_on_c, 9, 44, 21
4, 418797, Note_on_c, 9, 44, 0
4, 419193, Note_on_c, 9, 59, 35
4, 419274, Note_on_c, 9, 59, 0
4, 419562, Note_on_c, 9, 59, 50
4, 419588, Note_on_c, 9, 46, 29
4, 419625, Note_on_c, 9, 59, 0
4, 419885, Note_on_c, 9, 46, 0
4, 420119, Note_on_c, 9, 59, 76
4, 420178, Note_on_c, 9, 38, 34
4, 420256, Note_on_c, 9, 59, 0
4, 420315, Note_on_c, 9, 38, 0
4, 420448, Note_on_c, 9, 59, 72
4, 420839, Note_on_c, 9, 59, 0
4, 421327, Note_on_c, 9, 59, 64
4, 421437, Note_on_c, 9, 44, 29
4, 421585, Note_on_c, 9, 44, 0
4, 422055, Note_on_c, 9, 59, 0
4, 422327, Note_on_c, 9, 59, 65
4, 423360, Note_on_c, 9, 59, 0
4, 423957, Note_on_c, 9, 38, 35
4, 424016, Note_on_c, 9, 59, 33
4, 424074, Note_on_c, 9, 38, 0
4, 424102, Note_on_c, 9, 59, 0
4, 424332, Note_on_c, 9, 44, 30
4, 424356, Note_on_c, 9, 36, 21
4, 424370, Note_on_c, 9, 59, 58
4, 424483, Note_on_c, 9, 44, 0
4, 424667, Note_on_c, 9, 36, 0
4, 424880, Note_on_c, 9, 59, 0
4, 424981, Note_on_c, 9, 36, 21
4, 425097, Note_on_c, 9, 36, 0
4, 425328, Note_on_c, 9, 59, 62
4, 425910, Note_on_c, 9, 59, 0
4, 425915, Note_on_c, 9, 53, 77
4, 426082, Note_on_c, 9, 53, 0
4, 426331, Note_on_c, 9, 59, 25
4, 426661, Note_on_c, 9, 59, 0
4, 427220, Note_on_c, 9, 44, 17
4, 427240, Note_on_c, 9, 59, 35
4, 427404, Note_on_c, 9, 44, 0
4, 428123, Note_on_c, 9, 59, 0
4, 428633, Note_on_c, 9, 59, 51
4, 428758, Note_on_c, 9, 59, 0
4, 428875, Note_on_c, 9, 59, 77
4, 429065, Note_on_c, 9, 59, 0
4, 429199, Note_on_c, 9, 59, 74
4, 429765, Note_on_c, 9, 59, 0
4, 430124, Note_on_c, 9, 59, 48
4, 430178, Note_on_c, 9, 46, 20
4, 430470, Note_on_c, 9, 46, 0
4, 431083, Note_on_c, 9, 59, 0
4, 431275, Note_on_c, 9, 59, 37
4, 431415, Note_on_c, 9, 59, 0
4, 431639, Note_on_c, 9, 59, 35
4, 431677, Note_on_c, 9, 38, 31
4, 431776, Note_on_c, 9, 59, 0
4, 431801, Note_on_c, 9, 38, 0
4, 432050, Note_on_c, 9, 59, 50
4, 432126, Note_on_c, 9, 36, 14
4, 432283, Note_on_c, 9, 36, 0
4, 432643, Note_on_c, 9, 59, 0
4, 432689, Note_on_c, 9, 36, 26
4, 432856, Note_on_c, 9, 36, 0
4, 433059, Note_on_c, 9, 59, 34
4, 433068, Note_on_c, 9, 44, 22
4, 433085, Note_on_c, 9, 36, 19
4, 433164, Note_on_c, 9, 59, 0
4, 433294, Note_on_c, 9, 44, 0
4, 433382, Note_on_c, 9, 59, 37
4, 433464, Note_on_c, 9, 59, 0
4, 433490, Note_on_c, 9, 36, 0
4, 433711, Note_on_c, 9, 59, 61
4, 433736, Note_on_c, 9, 36, 21
4, 433838, Note_on_c, 9, 36, 0
4, 433929, Note_on_c, 9, 59, 0
4, 434053, Note_on_c, 9, 59, 79
4, 434662, Note_on_c, 9, 59, 0
4, 435270, Note_on_c, 9, 59, 56
4, 435424, Note_on_c, 9, 59, 0
4, 435558, Note_on_c, 9, 59, 72
4, 435742, Note_on_c, 9, 59, 0
4, 435870, Note_on_c, 9, 44, 26
4, 435936, Note_on_c, 9, 59, 88
4, 436027, Note_on_c, 9, 44, 0
4, 436375, Note_on_c, 9, 59, 0
4, 436553, Note_on_c, 9, 59, 69
4, 436679, Note_on_c, 9, 59, 0
4, 436785, Note_on_c, 9, 46, 25
4, 436887, Note_on_c, 9, 59, 67
4, 437047, Note_on_c, 9, 46, 0
4, 437411, Note_on_c, 9, 53, 60
4, 437425, Note_on_c, 9, 59, 0
4, 437527, Note_on_c, 9, 53, 0
4, 438367, Note_on_c, 9, 53, 21
4, 438491, Note_on_c, 9, 53, 0
4, 438684, Note_on_c, 9, 44, 22
4, 438730, Note_on_c, 9, 53, 37
4, 438798, Note_on_c, 9, 53, 0
4, 439316, Note_on_c, 9, 38, 15
4, 439397, Note_on_c, 9, 38, 0
4, 439697, Note_on_c, 9, 38, 10
4, 439714, Note_on_c, 9, 44, 0
4, 440042, Note_on_c, 9, 38, 0
4, 440268, Note_on_c, 9, 53, 30
4, 440310, Note_on_c, 9, 36, 15
4, 440354, Note_on_c, 9, 53, 0
4, 440422, Note_on_c, 9, 36, 0
4, 440664, Note_on_c, 9, 36, 21
4, 440825, Note_on_c, 9, 36, 0
4, 441263, Note_on_c, 9, 59, 28
4, 441372, Note_on_c, 9, 59, 0
4, 441573, Note_on_c, 9, 44, 21
4, 441643, Note_on_c, 9, 59, 22
4, 441790, Note_on_c, 9, 59, 0
4, 441941, Note_on_c, 9, 44, 0
4, 442187, Note_on_c, 9, 53, 23
4, 442292, Note_on_c, 9, 53, 0
4, 442522, Note_on_c, 9, 44, 20
4, 442576, Note_on_c, 9, 53, 19
4, 442760, Note_on_c, 9, 53, 0
4, 443030, Note_on_c, 9, 44, 0
4, 444428, Note_on_c, 9, 53, 25
4, 444556, Note_on_c, 9, 53, 0
4, 445036, Note_on_c, 9, 59, 23
4, 445149, Note_on_c, 9, 59, 0
4, 445393, Note_on_c, 9, 53, 24
4, 445571, Note_on_c, 9, 53, 0
4, 446018, Note_on_c, 9, 53, 22
4, 446133, Note_on_c, 9, 53, 0
4, 446398, Note_on_c, 9, 53, 23
4, 446608, Note_on_c, 9, 53, 0
4, 447694, Note_on_c, 9, 53, 16
4, 447765, Note_on_c, 9, 53, 0
4, 448359, Note_on_c, 9, 53, 20
4, 448453, Note_on_c, 9, 53, 0
4, 448981, Note_on_c, 9, 53, 21
4, 449085, Note_on_c, 9, 53, 0
4, 449301, Note_on_c, 9, 36, 19
4, 449609, Note_on_c, 9, 59, 22
4, 449752, Note_on_c, 9, 59, 0
4, 449773, Note_on_c, 9, 36, 0
4, 450211, Note_on_c, 9, 44, 20
4, 450241, Note_on_c, 9, 53, 21
4, 450335, Note_on_c, 9, 53, 0
4, 450398, Note_on_c, 9, 44, 0
4, 450885, Note_on_c, 9, 53, 16
4, 450984, Note_on_c, 9, 53, 0
4, 452715, Note_on_c, 9, 38, 18
4, 452871, Note_on_c, 9, 38, 0
4, 453120, Note_on_c, 9, 59, 22
4, 453267, Note_on_c, 9, 59, 0
4, 453759, Note_on_c, 9, 59, 21
4, 453905, Note_on_c, 9, 59, 0
4, 455617, Note_on_c, 9, 59, 21
4, 455700, Note_on_c, 9, 59, 0
4, 455909, Note_on_c, 9, 44, 18
4, 456157, Note_on_c, 9, 44, 0
4, 456278, Note_on_c, 9, 59, 30
4, 456427, Note_on_c, 9, 59, 0
4, 457034, Note_on_c, 9, 59, 25
4, 457136, Note_on_c, 9, 59, 0
4, 457613, Note_on_c, 9, 59, 25
4, 457755, Note_on_c, 9, 59, 0
4, 458955, Note_on_c, 9, 53, 20
4, 459034, Note_on_c, 9, 53, 0
4, 459529, Note_on_c, 9, 53, 18
4, 459610, Note_on_c, 9, 53, 0
4, 460110, Note_on_c, 9, 53, 17
4, 460213, Note_on_c, 9, 53, 0
4, 461701, Note_on_c, 9, 44, 17
4, 461905, Note_on_c, 9, 44, 0
4, 462294, Note_on_c, 9, 59, 21
4, 462403, Note_on_c, 9, 59, 0
4, 462962, Note_on_c, 9, 59, 24
4, 463072, Note_on_c, 9, 59, 0
4, 465581, Note_on_c, 9, 59, 16
4, 465767, Note_on_c, 9, 59, 0
4, 470295, Note_on_c, 9, 59, 24
4, 470440, Note_on_c, 9, 59, 0
4, 470440, End_track
0, 0, End_of_file
