0, 0, Header, 1, 5, 120
1, 0, Start_track
1, 0, Title_t, "Lush Life  - trio"
1, 0, Text_t, "dougmck@pipeline.com.au\012"
1, 0, Text_t, "Another version with different harmonies and with bass and drums. Drums and bass in the style of modern piano trios -drums played fairly freely without sticking to a regular cymbal/hihat pattern. Bass sort of in counterpoint to piano and not always playe\012"
1, 0, Time_signature, 4, 2, 24, 8
1, 0, Key_signature, -5, "major"
1, 0, Tempo, 500000
1, 0, Marker_t, "Standard type arpeggiated L Hand"
1, 4126, Marker_t, "DbMaj7,"
1, 4320, Marker_t, "D7#9"
1, 4436, Marker_t, "Ebm7"
1, 4546, Marker_t, "Em9"
1, 4721, Marker_t, "Fm7"
1, 4866, Marker_t, "F#m9"
1, 5230, Marker_t, "Gm9"
1, 5357, Marker_t, "Gm9add6"
1, 5484, Marker_t, "Abm7"
1, 9166, Marker_t, "Db6/9 and Cb6/9 over Ab pedal again"
1, 11409, Marker_t, "Series of Major 7ths - DbMaj7"
1, 11588, Marker_t, "DMaj7"
1, 11761, Marker_t, "EMaj7"
1, 12036, Marker_t, "FMaj7"
1, 12281, Marker_t, "GMaj7"
1, 13441, Marker_t, "Melody in unison 3 Octaves apart over pedalled Root note way down at the bottom"
1, 16998, Marker_t, "Both hands move to the treble end of the piano"
1, 18122, Marker_t, "'So What' chords (stack of perfect 4ths with Maj 3rd at top of stack."
1, 24489, Marker_t, "More melody in unison 3 octaves apart WITH PEDAL DOWN"
1, 27794, Marker_t, "Ebm11 voicing - sometimes called 'Kenny Barron' voicing Root,5,9,b3,b7,11 - played in rolling fashion -Pedal down"
1, 29200, Marker_t, "On D7#11, RH alternates pairs of notes from E major triad"
1, 36517, Marker_t, "4th chord voicings "
1, 38880, Marker_t, "Basically a whole step/half step diminished scale "
1, 51124, Marker_t, "#9 chords rising chromatically"
1, 54674, Marker_t, "Bass and drums in - double time feel"
1, 61460, Marker_t, "F major triad with upper neighbouring tones"
1, 67680, Marker_t, "Kind of 'drumming' on the notes from E triad on D7#11 then Fm triad on DbMaj7"
1, 68656, Marker_t, "These big voicings are 'Red Garland type structures'"
1, 69037, Marker_t, "i.e. RH plays Octave with perfect 5th as LH plays rootless voicing - all played togetther like a big Horn section, and covering several octaves in range"
1, 71239, Marker_t, "On A7alt more 'Red Garland' voicings - RH plays octaves with perfect 5th - LH plays standard rootless type voicing"
1, 72201, Marker_t, "Another 'drum-like repeating pattern"
1, 73920, Marker_t, "George Shearing type block chords in Close position. melody doubled by LH"
1, 80735, Marker_t, "On Fm7/Bb7 an Eb Major scale with accelerando and crescendo"
1, 82096, Marker_t, "These chord structures are rolled quickly from the top down"
1, 89764, Marker_t, "On final Db chord basically an Ab pentatonic scale with surround tones on the Ab"
1, 89764, End_track
2, 0, Start_track
2, 0, Title_t, "Track 1"
2, 0, Control_c, 0, 7, 101
2, 0, Control_c, 0, 10, 64
2, 0, End_track
3, 0, Start_track
3, 0, MIDI_port, 0
3, 0, Title_t, "Track 2"
3, 0, Program_c, 0, 0
3, 163, Note_on_c, 0, 56, 46
3, 245, Note_on_c, 0, 56, 0
3, 248, Note_on_c, 0, 61, 48
3, 255, Note_on_c, 0, 37, 32
3, 272, Control_c, 0, 64, 127
3, 306, Note_on_c, 0, 37, 0
3, 310, Note_on_c, 0, 44, 45
3, 314, Note_on_c, 0, 61, 0
3, 364, Note_on_c, 0, 44, 0
3, 379, Note_on_c, 0, 65, 50
3, 379, Note_on_c, 0, 53, 41
3, 382, Note_on_c, 0, 60, 33
3, 382, Note_on_c, 0, 68, 29
3, 424, Note_on_c, 0, 53, 0
3, 438, Note_on_c, 0, 60, 0
3, 447, Note_on_c, 0, 65, 0
3, 450, Note_on_c, 0, 53, 40
3, 454, Note_on_c, 0, 68, 0
3, 529, Note_on_c, 0, 60, 37
3, 614, Note_on_c, 0, 63, 29
3, 615, Note_on_c, 0, 73, 37
3, 677, Note_on_c, 0, 63, 0
3, 686, Note_on_c, 0, 60, 0
3, 698, Note_on_c, 0, 53, 0
3, 842, Note_on_c, 0, 73, 0
3, 878, Note_on_c, 0, 75, 62
3, 881, Note_on_c, 0, 47, 33
3, 894, Control_c, 0, 64, 0
3, 941, Control_c, 0, 64, 127
3, 954, Note_on_c, 0, 54, 29
3, 1003, Note_on_c, 0, 47, 0
3, 1024, Note_on_c, 0, 54, 0
3, 1028, Note_on_c, 0, 66, 25
3, 1031, Note_on_c, 0, 71, 25
3, 1033, Note_on_c, 0, 59, 34
3, 1124, Note_on_c, 0, 61, 35
3, 1127, Note_on_c, 0, 59, 0
3, 1188, Note_on_c, 0, 61, 0
3, 1227, Note_on_c, 0, 61, 21
3, 1233, Note_on_c, 0, 71, 0
3, 1313, Note_on_c, 0, 66, 0
3, 1315, Note_on_c, 0, 63, 30
3, 1417, Note_on_c, 0, 71, 34
3, 1419, Note_on_c, 0, 66, 20
3, 1457, Note_on_c, 0, 63, 0
3, 1460, Note_on_c, 0, 61, 0
3, 1489, Note_on_c, 0, 75, 0
3, 1526, Note_on_c, 0, 75, 47
3, 1549, Note_on_c, 0, 71, 0
3, 1561, Note_on_c, 0, 66, 0
3, 1569, Note_on_c, 0, 75, 0
3, 1715, Note_on_c, 0, 77, 64
3, 1717, Control_c, 0, 64, 0
3, 1718, Note_on_c, 0, 37, 37
3, 1747, Control_c, 0, 64, 127
3, 1805, Note_on_c, 0, 44, 44
3, 1813, Note_on_c, 0, 37, 0
3, 1841, Note_on_c, 0, 44, 0
3, 1891, Note_on_c, 0, 53, 45
3, 1952, Note_on_c, 0, 53, 0
3, 1979, Note_on_c, 0, 58, 31
3, 2066, Note_on_c, 0, 60, 37
3, 2073, Note_on_c, 0, 60, 0
3, 2076, Note_on_c, 0, 58, 0
3, 2162, Note_on_c, 0, 68, 30
3, 2164, Note_on_c, 0, 63, 31
3, 2164, Note_on_c, 0, 65, 44
3, 2214, Note_on_c, 0, 65, 0
3, 2227, Note_on_c, 0, 63, 0
3, 2228, Note_on_c, 0, 68, 0
3, 2271, Note_on_c, 0, 68, 32
3, 2279, Note_on_c, 0, 63, 27
3, 2283, Note_on_c, 0, 65, 28
3, 2340, Note_on_c, 0, 68, 0
3, 2341, Note_on_c, 0, 65, 0
3, 2353, Note_on_c, 0, 77, 0
3, 2355, Note_on_c, 0, 63, 0
3, 2383, Note_on_c, 0, 77, 48
3, 2384, Note_on_c, 0, 63, 31
3, 2386, Note_on_c, 0, 65, 36
3, 2480, Note_on_c, 0, 77, 0
3, 2501, Note_on_c, 0, 65, 0
3, 2517, Note_on_c, 0, 77, 54
3, 2519, Note_on_c, 0, 63, 0
3, 2520, Note_on_c, 0, 56, 44
3, 2541, Control_c, 0, 64, 0
3, 2559, Control_c, 0, 64, 127
3, 2625, Note_on_c, 0, 66, 31
3, 2627, Note_on_c, 0, 63, 36
3, 2631, Note_on_c, 0, 61, 31
3, 2680, Note_on_c, 0, 63, 0
3, 2683, Note_on_c, 0, 66, 0
3, 2697, Note_on_c, 0, 61, 0
3, 2737, Note_on_c, 0, 66, 31
3, 2738, Note_on_c, 0, 63, 32
3, 2740, Note_on_c, 0, 61, 18
3, 2828, Note_on_c, 0, 77, 0
3, 2839, Note_on_c, 0, 63, 0
3, 2843, Note_on_c, 0, 66, 0
3, 2852, Note_on_c, 0, 61, 0
3, 2883, Note_on_c, 0, 75, 83
3, 2885, Note_on_c, 0, 66, 51
3, 2889, Note_on_c, 0, 63, 48
3, 2890, Note_on_c, 0, 61, 42
3, 2937, Note_on_c, 0, 63, 0
3, 2946, Note_on_c, 0, 66, 0
3, 2957, Note_on_c, 0, 75, 0
3, 2990, Note_on_c, 0, 75, 94
3, 2991, Note_on_c, 0, 66, 60
3, 2993, Note_on_c, 0, 63, 48
3, 3036, Note_on_c, 0, 63, 0
3, 3041, Note_on_c, 0, 66, 0
3, 3051, Note_on_c, 0, 75, 0
3, 3077, Note_on_c, 0, 75, 84
3, 3078, Note_on_c, 0, 66, 49
3, 3082, Note_on_c, 0, 63, 45
3, 3102, Note_on_c, 0, 56, 0
3, 3138, Note_on_c, 0, 75, 0
3, 3146, Note_on_c, 0, 66, 0
3, 3148, Note_on_c, 0, 61, 0
3, 3157, Note_on_c, 0, 56, 68
3, 3158, Note_on_c, 0, 63, 0
3, 3161, Note_on_c, 0, 77, 87
3, 3165, Control_c, 0, 64, 0
3, 3185, Control_c, 0, 64, 127
3, 3207, Note_on_c, 0, 56, 0
3, 3242, Note_on_c, 0, 68, 48
3, 3244, Note_on_c, 0, 63, 40
3, 3244, Note_on_c, 0, 65, 60
3, 3293, Note_on_c, 0, 65, 0
3, 3294, Note_on_c, 0, 63, 0
3, 3299, Note_on_c, 0, 68, 0
3, 3333, Note_on_c, 0, 68, 36
3, 3336, Note_on_c, 0, 65, 54
3, 3340, Note_on_c, 0, 63, 29
3, 3363, Note_on_c, 0, 65, 0
3, 3367, Note_on_c, 0, 63, 0
3, 3378, Note_on_c, 0, 68, 0
3, 3423, Note_on_c, 0, 68, 34
3, 3430, Note_on_c, 0, 65, 53
3, 3435, Note_on_c, 0, 63, 28
3, 3444, Note_on_c, 0, 68, 0
3, 3494, Note_on_c, 0, 65, 0
3, 3502, Note_on_c, 0, 63, 0
3, 3521, Note_on_c, 0, 56, 60
3, 3536, Control_c, 0, 64, 0
3, 3558, Control_c, 0, 64, 127
3, 3627, Note_on_c, 0, 75, 52
3, 3629, Note_on_c, 0, 63, 32
3, 3631, Note_on_c, 0, 66, 30
3, 3633, Note_on_c, 0, 61, 28
3, 3640, Note_on_c, 0, 77, 0
3, 3686, Note_on_c, 0, 66, 0
3, 3690, Note_on_c, 0, 63, 0
3, 3695, Note_on_c, 0, 61, 0
3, 3708, Note_on_c, 0, 75, 0
3, 3742, Note_on_c, 0, 63, 28
3, 3743, Note_on_c, 0, 66, 26
3, 3744, Note_on_c, 0, 75, 40
3, 3750, Note_on_c, 0, 61, 21
3, 3786, Note_on_c, 0, 63, 0
3, 3797, Note_on_c, 0, 61, 0
3, 3798, Note_on_c, 0, 66, 0
3, 3824, Note_on_c, 0, 75, 0
3, 3885, Note_on_c, 0, 66, 33
3, 3887, Note_on_c, 0, 75, 39
3, 3892, Note_on_c, 0, 63, 27
3, 3910, Note_on_c, 0, 66, 0
3, 3917, Note_on_c, 0, 63, 0
3, 3941, Note_on_c, 0, 56, 0
3, 3948, Note_on_c, 0, 75, 0
3, 4188, Note_on_c, 0, 65, 58
3, 4192, Note_on_c, 0, 37, 39
3, 4192, Note_on_c, 0, 60, 57
3, 4194, Note_on_c, 0, 53, 34
3, 4198, Control_c, 0, 64, 0
3, 4198, Note_on_c, 0, 44, 29
3, 4226, Control_c, 0, 64, 127
3, 4238, Note_on_c, 0, 53, 0
3, 4259, Note_on_c, 0, 37, 0
3, 4270, Note_on_c, 0, 44, 0
3, 4282, Note_on_c, 0, 60, 0
3, 4301, Note_on_c, 0, 65, 0
3, 4323, Note_on_c, 0, 65, 62
3, 4323, Note_on_c, 0, 54, 50
3, 4324, Note_on_c, 0, 61, 51
3, 4325, Note_on_c, 0, 38, 42
3, 4327, Note_on_c, 0, 45, 36
3, 4330, Control_c, 0, 64, 0
3, 4354, Control_c, 0, 64, 127
3, 4386, Note_on_c, 0, 45, 0
3, 4389, Note_on_c, 0, 65, 0
3, 4393, Note_on_c, 0, 38, 0
3, 4406, Note_on_c, 0, 61, 0
3, 4427, Note_on_c, 0, 54, 0
3, 4453, Note_on_c, 0, 66, 64
3, 4455, Note_on_c, 0, 54, 62
3, 4455, Note_on_c, 0, 61, 60
3, 4456, Note_on_c, 0, 39, 52
3, 4458, Note_on_c, 0, 46, 51
3, 4460, Control_c, 0, 64, 0
3, 4497, Control_c, 0, 64, 127
3, 4550, Note_on_c, 0, 54, 0
3, 4553, Note_on_c, 0, 39, 0
3, 4558, Note_on_c, 0, 61, 0
3, 4578, Note_on_c, 0, 46, 0
3, 4583, Note_on_c, 0, 66, 0
3, 4596, Note_on_c, 0, 66, 49
3, 4600, Note_on_c, 0, 62, 62
3, 4601, Note_on_c, 0, 55, 66
3, 4602, Note_on_c, 0, 47, 44
3, 4604, Note_on_c, 0, 40, 42
3, 4609, Control_c, 0, 64, 0
3, 4651, Control_c, 0, 64, 127
3, 4674, Note_on_c, 0, 40, 0
3, 4677, Note_on_c, 0, 55, 0
3, 4681, Note_on_c, 0, 62, 0
3, 4684, Note_on_c, 0, 47, 0
3, 4691, Note_on_c, 0, 66, 0
3, 4738, Note_on_c, 0, 68, 64
3, 4739, Note_on_c, 0, 63, 63
3, 4739, Note_on_c, 0, 56, 62
3, 4742, Note_on_c, 0, 48, 59
3, 4742, Note_on_c, 0, 41, 63
3, 4747, Control_c, 0, 64, 0
3, 4787, Control_c, 0, 64, 127
3, 4812, Note_on_c, 0, 48, 0
3, 4814, Note_on_c, 0, 41, 0
3, 4830, Note_on_c, 0, 56, 0
3, 4835, Note_on_c, 0, 63, 0
3, 4866, Note_on_c, 0, 68, 0
3, 4878, Note_on_c, 0, 68, 32
3, 4883, Note_on_c, 0, 64, 57
3, 4884, Note_on_c, 0, 57, 44
3, 4885, Note_on_c, 0, 42, 42
3, 4887, Note_on_c, 0, 49, 42
3, 4892, Control_c, 0, 64, 0
3, 4932, Control_c, 0, 64, 127
3, 4968, Note_on_c, 0, 57, 0
3, 4986, Note_on_c, 0, 64, 0
3, 4999, Note_on_c, 0, 42, 0
3, 5008, Note_on_c, 0, 68, 0
3, 5011, Note_on_c, 0, 49, 0
3, 5247, Note_on_c, 0, 69, 47
3, 5248, Note_on_c, 0, 64, 49
3, 5250, Note_on_c, 0, 58, 32
3, 5250, Note_on_c, 0, 43, 34
3, 5253, Control_c, 0, 64, 0
3, 5254, Note_on_c, 0, 53, 29
3, 5283, Control_c, 0, 64, 127
3, 5313, Note_on_c, 0, 53, 0
3, 5323, Note_on_c, 0, 43, 0
3, 5327, Note_on_c, 0, 58, 0
3, 5330, Note_on_c, 0, 64, 0
3, 5341, Note_on_c, 0, 69, 0
3, 5377, Note_on_c, 0, 69, 49
3, 5381, Note_on_c, 0, 64, 41
3, 5382, Note_on_c, 0, 52, 35
3, 5383, Note_on_c, 0, 58, 24
3, 5384, Note_on_c, 0, 43, 30
3, 5408, Note_on_c, 0, 58, 0
3, 5413, Note_on_c, 0, 69, 0
3, 5420, Note_on_c, 0, 64, 0
3, 5438, Note_on_c, 0, 43, 0
3, 5449, Note_on_c, 0, 52, 0
3, 5489, Note_on_c, 0, 44, 37
3, 5489, Note_on_c, 0, 71, 38
3, 5491, Note_on_c, 0, 59, 34
3, 5491, Note_on_c, 0, 68, 47
3, 5493, Note_on_c, 0, 54, 43
3, 5496, Control_c, 0, 64, 0
3, 5562, Note_on_c, 0, 53, 40
3, 5564, Control_c, 0, 64, 127
3, 5567, Note_on_c, 0, 53, 0
3, 5573, Note_on_c, 0, 71, 0
3, 5589, Note_on_c, 0, 54, 0
3, 5597, Note_on_c, 0, 71, 44
3, 5599, Note_on_c, 0, 52, 31
3, 5631, Note_on_c, 0, 59, 0
3, 5650, Note_on_c, 0, 68, 0
3, 5651, Control_c, 0, 64, 0
3, 5661, Note_on_c, 0, 71, 0
3, 5691, Note_on_c, 0, 52, 0
3, 5693, Note_on_c, 0, 71, 39
3, 5695, Note_on_c, 0, 64, 41
3, 5698, Note_on_c, 0, 44, 0
3, 5698, Note_on_c, 0, 59, 29
3, 5700, Control_c, 0, 64, 127
3, 5701, Note_on_c, 0, 55, 34
3, 5708, Note_on_c, 0, 59, 0
3, 5719, Note_on_c, 0, 64, 0
3, 5720, Note_on_c, 0, 55, 0
3, 5728, Note_on_c, 0, 71, 0
3, 5795, Note_on_c, 0, 76, 51
3, 5796, Note_on_c, 0, 83, 57
3, 5803, Note_on_c, 0, 60, 31
3, 5849, Note_on_c, 0, 76, 0
3, 5858, Note_on_c, 0, 60, 0
3, 5879, Note_on_c, 0, 83, 0
3, 5917, Note_on_c, 0, 83, 36
3, 5919, Note_on_c, 0, 71, 34
3, 5919, Note_on_c, 0, 76, 39
3, 5919, Note_on_c, 0, 54, 28
3, 5920, Note_on_c, 0, 80, 32
3, 5920, Note_on_c, 0, 64, 28
3, 5923, Note_on_c, 0, 59, 42
3, 5940, Control_c, 0, 64, 0
3, 5961, Control_c, 0, 64, 127
3, 5971, Note_on_c, 0, 64, 0
3, 5975, Note_on_c, 0, 59, 0
3, 5988, Note_on_c, 0, 54, 0
3, 6098, Note_on_c, 0, 26, 28
3, 6202, Note_on_c, 0, 26, 0
3, 6234, Note_on_c, 0, 71, 0
3, 6248, Note_on_c, 0, 76, 0
3, 6264, Note_on_c, 0, 80, 0
3, 6269, Note_on_c, 0, 83, 0
3, 6476, Note_on_c, 0, 57, 37
3, 6479, Note_on_c, 0, 93, 47
3, 6511, Note_on_c, 0, 93, 0
3, 6519, Note_on_c, 0, 57, 0
3, 6529, Note_on_c, 0, 59, 53
3, 6530, Note_on_c, 0, 95, 58
3, 6560, Note_on_c, 0, 95, 0
3, 6569, Note_on_c, 0, 59, 0
3, 6575, Note_on_c, 0, 93, 64
3, 6579, Note_on_c, 0, 57, 41
3, 6595, Note_on_c, 0, 57, 0
3, 6623, Note_on_c, 0, 93, 0
3, 6632, Note_on_c, 0, 92, 63
3, 6633, Note_on_c, 0, 56, 38
3, 6647, Control_c, 0, 64, 0
3, 6675, Control_c, 0, 64, 127
3, 6694, Note_on_c, 0, 56, 0
3, 6695, Note_on_c, 0, 92, 0
3, 6700, Note_on_c, 0, 53, 47
3, 6759, Note_on_c, 0, 60, 48
3, 6787, Note_on_c, 0, 63, 38
3, 6805, Note_on_c, 0, 65, 44
3, 6823, Note_on_c, 0, 65, 0
3, 6823, Note_on_c, 0, 67, 49
3, 6846, Note_on_c, 0, 68, 35
3, 6847, Note_on_c, 0, 67, 0
3, 6856, Note_on_c, 0, 70, 57
3, 6861, Note_on_c, 0, 68, 0
3, 6869, Note_on_c, 0, 70, 0
3, 6880, Note_on_c, 0, 72, 57
3, 6902, Note_on_c, 0, 72, 0
3, 6902, Note_on_c, 0, 74, 50
3, 6930, Note_on_c, 0, 74, 0
3, 6930, Note_on_c, 0, 63, 0
3, 6931, Note_on_c, 0, 75, 39
3, 6932, Note_on_c, 0, 60, 0
3, 6945, Note_on_c, 0, 75, 0
3, 6948, Note_on_c, 0, 53, 0
3, 6948, Note_on_c, 0, 76, 42
3, 6971, Note_on_c, 0, 76, 0
3, 6979, Note_on_c, 0, 77, 53
3, 7010, Note_on_c, 0, 77, 0
3, 7078, Note_on_c, 0, 80, 46
3, 7080, Note_on_c, 0, 64, 45
3, 7081, Note_on_c, 0, 71, 41
3, 7082, Note_on_c, 0, 59, 48
3, 7082, Note_on_c, 0, 54, 34
3, 7084, Note_on_c, 0, 76, 41
3, 7090, Control_c, 0, 64, 0
3, 7125, Control_c, 0, 64, 127
3, 7163, Note_on_c, 0, 64, 0
3, 7166, Note_on_c, 0, 59, 0
3, 7179, Note_on_c, 0, 54, 0
3, 7247, Note_on_c, 0, 38, 49
3, 7266, Note_on_c, 0, 38, 0
3, 7285, Note_on_c, 0, 76, 0
3, 7312, Note_on_c, 0, 71, 0
3, 7318, Note_on_c, 0, 80, 0
3, 7681, Note_on_c, 0, 82, 77
3, 7681, Note_on_c, 0, 54, 49
3, 7682, Note_on_c, 0, 64, 44
3, 7684, Note_on_c, 0, 70, 71
3, 7685, Note_on_c, 0, 59, 42
3, 7741, Note_on_c, 0, 82, 0
3, 7771, Note_on_c, 0, 70, 0
3, 7781, Note_on_c, 0, 76, 58
3, 7827, Note_on_c, 0, 76, 0
3, 7831, Note_on_c, 0, 64, 0
3, 7839, Note_on_c, 0, 59, 0
3, 7859, Note_on_c, 0, 54, 0
3, 7859, Note_on_c, 0, 76, 50
3, 7886, Note_on_c, 0, 76, 0
3, 7981, Note_on_c, 0, 75, 60
3, 7985, Note_on_c, 0, 68, 44
3, 7987, Note_on_c, 0, 64, 33
3, 7991, Note_on_c, 0, 37, 28
3, 7999, Control_c, 0, 64, 0
3, 8041, Control_c, 0, 64, 127
3, 8056, Note_on_c, 0, 37, 0
3, 8066, Note_on_c, 0, 44, 32
3, 8114, Note_on_c, 0, 44, 0
3, 8140, Note_on_c, 0, 52, 32
3, 8195, Note_on_c, 0, 52, 0
3, 8203, Note_on_c, 0, 56, 37
3, 8224, Note_on_c, 0, 68, 0
3, 8228, Note_on_c, 0, 64, 0
3, 8281, Note_on_c, 0, 68, 35
3, 8281, Note_on_c, 0, 64, 38
3, 8287, Note_on_c, 0, 59, 33
3, 8363, Note_on_c, 0, 63, 42
3, 8366, Note_on_c, 0, 59, 0
3, 8383, Note_on_c, 0, 64, 0
3, 8407, Note_on_c, 0, 68, 0
3, 8414, Note_on_c, 0, 63, 0
3, 8451, Note_on_c, 0, 61, 29
3, 8451, Note_on_c, 0, 64, 46
3, 8451, Note_on_c, 0, 68, 35
3, 8481, Note_on_c, 0, 56, 0
3, 8518, Note_on_c, 0, 61, 0
3, 8520, Note_on_c, 0, 64, 0
3, 8535, Note_on_c, 0, 56, 25
3, 8546, Note_on_c, 0, 56, 0
3, 8565, Note_on_c, 0, 75, 0
3, 8576, Note_on_c, 0, 68, 0
3, 8609, Note_on_c, 0, 68, 26
3, 8610, Note_on_c, 0, 71, 33
3, 8612, Note_on_c, 0, 64, 31
3, 8613, Note_on_c, 0, 60, 29
3, 8616, Note_on_c, 0, 50, 30
3, 8625, Control_c, 0, 64, 0
3, 8667, Note_on_c, 0, 64, 0
3, 8667, Control_c, 0, 64, 127
3, 8677, Note_on_c, 0, 68, 0
3, 8677, Note_on_c, 0, 71, 0
3, 8677, Note_on_c, 0, 54, 36
3, 8687, Note_on_c, 0, 60, 0
3, 8735, Note_on_c, 0, 50, 0
3, 8742, Note_on_c, 0, 54, 0
3, 8742, Note_on_c, 0, 60, 36
3, 8752, Note_on_c, 0, 60, 0
3, 8797, Note_on_c, 0, 88, 65
3, 8802, Note_on_c, 0, 59, 38
3, 8836, Note_on_c, 0, 88, 0
3, 8862, Note_on_c, 0, 83, 49
3, 8864, Note_on_c, 0, 76, 24
3, 8864, Note_on_c, 0, 64, 37
3, 8883, Note_on_c, 0, 59, 0
3, 8892, Note_on_c, 0, 83, 0
3, 8907, Note_on_c, 0, 76, 0
3, 8922, Note_on_c, 0, 64, 0
3, 8927, Note_on_c, 0, 59, 36
3, 9007, Note_on_c, 0, 64, 40
3, 9031, Note_on_c, 0, 64, 0
3, 9049, Note_on_c, 0, 59, 0
3, 9083, Note_on_c, 0, 71, 38
3, 9084, Note_on_c, 0, 64, 38
3, 9085, Note_on_c, 0, 68, 33
3, 9118, Note_on_c, 0, 64, 0
3, 9140, Note_on_c, 0, 68, 0
3, 9163, Note_on_c, 0, 71, 0
3, 9188, Note_on_c, 0, 65, 38
3, 9189, Note_on_c, 0, 73, 25
3, 9194, Note_on_c, 0, 68, 38
3, 9196, Note_on_c, 0, 37, 29
3, 9197, Note_on_c, 0, 44, 21
3, 9200, Control_c, 0, 64, 0
3, 9230, Note_on_c, 0, 37, 0
3, 9233, Control_c, 0, 64, 127
3, 9236, Note_on_c, 0, 44, 0
3, 9277, Note_on_c, 0, 65, 0
3, 9308, Note_on_c, 0, 68, 0
3, 9330, Note_on_c, 0, 68, 27
3, 9335, Note_on_c, 0, 65, 39
3, 9336, Note_on_c, 0, 63, 30
3, 9341, Note_on_c, 0, 73, 0
3, 9398, Note_on_c, 0, 65, 0
3, 9399, Note_on_c, 0, 68, 0
3, 9403, Note_on_c, 0, 63, 0
3, 9437, Note_on_c, 0, 73, 59
3, 9445, Note_on_c, 0, 68, 31
3, 9482, Note_on_c, 0, 73, 0
3, 9483, Note_on_c, 0, 68, 0
3, 9527, Note_on_c, 0, 68, 37
3, 9529, Note_on_c, 0, 73, 46
3, 9532, Note_on_c, 0, 65, 42
3, 9541, Note_on_c, 0, 65, 0
3, 9548, Note_on_c, 0, 68, 0
3, 9610, Note_on_c, 0, 66, 37
3, 9612, Note_on_c, 0, 75, 56
3, 9613, Note_on_c, 0, 63, 38
3, 9614, Note_on_c, 0, 61, 37
3, 9618, Control_c, 0, 64, 0
3, 9640, Note_on_c, 0, 73, 0
3, 9642, Control_c, 0, 64, 127
3, 9662, Note_on_c, 0, 66, 0
3, 9664, Note_on_c, 0, 63, 0
3, 9666, Note_on_c, 0, 61, 0
3, 9681, Note_on_c, 0, 75, 0
3, 9690, Note_on_c, 0, 66, 40
3, 9693, Note_on_c, 0, 63, 40
3, 9696, Note_on_c, 0, 61, 37
3, 9749, Note_on_c, 0, 61, 0
3, 9749, Note_on_c, 0, 66, 0
3, 9763, Note_on_c, 0, 56, 52
3, 9770, Note_on_c, 0, 66, 13
3, 9810, Note_on_c, 0, 63, 0
3, 9811, Note_on_c, 0, 66, 0
3, 9843, Note_on_c, 0, 66, 53
3, 9846, Note_on_c, 0, 63, 48
3, 9886, Note_on_c, 0, 63, 0
3, 9891, Note_on_c, 0, 56, 0
3, 9894, Note_on_c, 0, 66, 0
3, 9921, Note_on_c, 0, 66, 52
3, 9922, Note_on_c, 0, 68, 65
3, 9923, Note_on_c, 0, 77, 74
3, 9926, Note_on_c, 0, 63, 48
3, 9928, Note_on_c, 0, 66, 0
3, 9929, Note_on_c, 0, 65, 74
3, 9938, Control_c, 0, 64, 0
3, 9956, Control_c, 0, 64, 127
3, 9980, Note_on_c, 0, 68, 0
3, 9983, Note_on_c, 0, 65, 0
3, 9988, Note_on_c, 0, 63, 0
3, 10004, Note_on_c, 0, 68, 62
3, 10006, Note_on_c, 0, 65, 59
3, 10008, Note_on_c, 0, 63, 40
3, 10036, Note_on_c, 0, 68, 0
3, 10089, Note_on_c, 0, 56, 62
3, 10131, Note_on_c, 0, 56, 0
3, 10139, Note_on_c, 0, 63, 0
3, 10148, Note_on_c, 0, 65, 0
3, 10166, Note_on_c, 0, 68, 59
3, 10167, Note_on_c, 0, 65, 63
3, 10171, Note_on_c, 0, 63, 31
3, 10202, Note_on_c, 0, 65, 0
3, 10206, Note_on_c, 0, 68, 0
3, 10207, Note_on_c, 0, 63, 0
3, 10257, Note_on_c, 0, 66, 57
3, 10259, Note_on_c, 0, 63, 53
3, 10260, Note_on_c, 0, 61, 46
3, 10267, Control_c, 0, 64, 0
3, 10289, Control_c, 0, 64, 127
3, 10321, Note_on_c, 0, 63, 0
3, 10323, Note_on_c, 0, 66, 0
3, 10330, Note_on_c, 0, 61, 0
3, 10346, Note_on_c, 0, 66, 37
3, 10350, Note_on_c, 0, 63, 42
3, 10351, Note_on_c, 0, 61, 25
3, 10429, Note_on_c, 0, 56, 49
3, 10449, Note_on_c, 0, 61, 0
3, 10453, Note_on_c, 0, 63, 0
3, 10457, Note_on_c, 0, 66, 0
3, 10489, Note_on_c, 0, 56, 0
3, 10511, Note_on_c, 0, 77, 0
3, 10515, Note_on_c, 0, 75, 67
3, 10518, Note_on_c, 0, 56, 39
3, 10527, Note_on_c, 0, 63, 25
3, 10543, Note_on_c, 0, 63, 0
3, 10566, Note_on_c, 0, 56, 0
3, 10572, Note_on_c, 0, 75, 0
3, 10602, Note_on_c, 0, 68, 62
3, 10604, Note_on_c, 0, 77, 79
3, 10605, Note_on_c, 0, 63, 44
3, 10605, Note_on_c, 0, 65, 65
3, 10614, Control_c, 0, 64, 0
3, 10638, Control_c, 0, 64, 127
3, 10657, Note_on_c, 0, 65, 0
3, 10661, Note_on_c, 0, 68, 0
3, 10665, Note_on_c, 0, 63, 0
3, 10686, Note_on_c, 0, 77, 0
3, 10687, Note_on_c, 0, 68, 48
3, 10692, Note_on_c, 0, 65, 62
3, 10694, Note_on_c, 0, 63, 31
3, 10724, Note_on_c, 0, 68, 0
3, 10770, Note_on_c, 0, 56, 49
3, 10783, Note_on_c, 0, 63, 0
3, 10821, Note_on_c, 0, 65, 0
3, 10822, Note_on_c, 0, 56, 0
3, 10847, Note_on_c, 0, 65, 37
3, 10849, Note_on_c, 0, 68, 47
3, 10856, Note_on_c, 0, 63, 25
3, 10882, Note_on_c, 0, 65, 0
3, 10884, Note_on_c, 0, 68, 0
3, 10888, Note_on_c, 0, 63, 0
3, 10935, Note_on_c, 0, 66, 33
3, 10938, Note_on_c, 0, 63, 38
3, 10941, Note_on_c, 0, 61, 33
3, 10945, Control_c, 0, 64, 0
3, 10957, Control_c, 0, 64, 127
3, 10989, Note_on_c, 0, 66, 0
3, 10994, Note_on_c, 0, 63, 0
3, 11006, Note_on_c, 0, 61, 0
3, 11021, Note_on_c, 0, 66, 34
3, 11023, Note_on_c, 0, 63, 40
3, 11028, Note_on_c, 0, 61, 34
3, 11101, Note_on_c, 0, 61, 0
3, 11108, Note_on_c, 0, 75, 59
3, 11109, Note_on_c, 0, 56, 34
3, 11119, Note_on_c, 0, 63, 0
3, 11125, Note_on_c, 0, 66, 0
3, 11151, Note_on_c, 0, 75, 0
3, 11158, Note_on_c, 0, 56, 0
3, 11212, Note_on_c, 0, 75, 45
3, 11300, Note_on_c, 0, 75, 0
3, 11420, Note_on_c, 0, 65, 59
3, 11425, Note_on_c, 0, 60, 52
3, 11426, Note_on_c, 0, 37, 29
3, 11429, Note_on_c, 0, 44, 30
3, 11430, Note_on_c, 0, 53, 17
3, 11435, Control_c, 0, 64, 0
3, 11453, Control_c, 0, 64, 127
3, 11466, Note_on_c, 0, 65, 0
3, 11504, Note_on_c, 0, 65, 62
3, 11516, Note_on_c, 0, 53, 0
3, 11517, Note_on_c, 0, 37, 0
3, 11523, Note_on_c, 0, 44, 0
3, 11529, Note_on_c, 0, 65, 0
3, 11531, Note_on_c, 0, 60, 0
3, 11593, Note_on_c, 0, 66, 50
3, 11597, Note_on_c, 0, 61, 49
3, 11600, Note_on_c, 0, 38, 35
3, 11600, Note_on_c, 0, 54, 27
3, 11601, Note_on_c, 0, 45, 31
3, 11605, Control_c, 0, 64, 0
3, 11635, Control_c, 0, 64, 127
3, 11645, Note_on_c, 0, 66, 0
3, 11684, Note_on_c, 0, 66, 38
3, 11690, Note_on_c, 0, 45, 0
3, 11691, Note_on_c, 0, 38, 0
3, 11712, Note_on_c, 0, 54, 0
3, 11717, Note_on_c, 0, 61, 0
3, 11721, Note_on_c, 0, 66, 0
3, 11795, Note_on_c, 0, 68, 45
3, 11800, Note_on_c, 0, 63, 38
3, 11801, Note_on_c, 0, 56, 25
3, 11801, Note_on_c, 0, 40, 35
3, 11802, Note_on_c, 0, 47, 34
3, 11808, Control_c, 0, 64, 0
3, 11852, Control_c, 0, 64, 127
3, 11883, Note_on_c, 0, 68, 0
3, 11953, Note_on_c, 0, 40, 0
3, 11955, Note_on_c, 0, 47, 0
3, 11974, Note_on_c, 0, 68, 52
3, 12008, Note_on_c, 0, 63, 0
3, 12012, Note_on_c, 0, 56, 0
3, 12023, Note_on_c, 0, 68, 0
3, 12068, Note_on_c, 0, 69, 65
3, 12070, Note_on_c, 0, 64, 62
3, 12071, Note_on_c, 0, 57, 62
3, 12073, Note_on_c, 0, 48, 35
3, 12074, Note_on_c, 0, 41, 45
3, 12085, Control_c, 0, 64, 0
3, 12119, Control_c, 0, 64, 127
3, 12150, Note_on_c, 0, 69, 0
3, 12197, Note_on_c, 0, 48, 0
3, 12200, Note_on_c, 0, 41, 0
3, 12207, Note_on_c, 0, 69, 58
3, 12217, Note_on_c, 0, 57, 0
3, 12234, Note_on_c, 0, 64, 0
3, 12243, Note_on_c, 0, 69, 0
3, 12319, Note_on_c, 0, 71, 55
3, 12322, Note_on_c, 0, 66, 55
3, 12326, Note_on_c, 0, 54, 35
3, 12326, Note_on_c, 0, 43, 28
3, 12327, Note_on_c, 0, 59, 48
3, 12337, Control_c, 0, 64, 0
3, 12373, Control_c, 0, 64, 127
3, 12407, Note_on_c, 0, 71, 0
3, 12422, Note_on_c, 0, 54, 0
3, 12443, Note_on_c, 0, 50, 32
3, 12443, Note_on_c, 0, 71, 51
3, 12509, Note_on_c, 0, 59, 0
3, 12512, Note_on_c, 0, 66, 0
3, 12513, Note_on_c, 0, 71, 0
3, 12559, Note_on_c, 0, 66, 39
3, 12560, Note_on_c, 0, 71, 35
3, 12563, Note_on_c, 0, 59, 32
3, 12565, Note_on_c, 0, 54, 19
3, 12629, Note_on_c, 0, 71, 0
3, 12651, Note_on_c, 0, 43, 0
3, 12667, Note_on_c, 0, 50, 0
3, 12671, Note_on_c, 0, 59, 0
3, 12682, Note_on_c, 0, 71, 33
3, 12690, Note_on_c, 0, 54, 0
3, 12695, Note_on_c, 0, 66, 0
3, 12731, Note_on_c, 0, 71, 0
3, 12809, Note_on_c, 0, 71, 35
3, 12810, Note_on_c, 0, 68, 33
3, 12811, Note_on_c, 0, 64, 37
3, 12812, Note_on_c, 0, 54, 25
3, 12816, Note_on_c, 0, 50, 24
3, 12821, Note_on_c, 0, 60, 16
3, 12833, Control_c, 0, 64, 0
3, 12863, Control_c, 0, 64, 127
3, 12874, Note_on_c, 0, 60, 0
3, 12885, Note_on_c, 0, 54, 0
3, 12886, Note_on_c, 0, 50, 0
3, 12996, Note_on_c, 0, 26, 63
3, 13023, Note_on_c, 0, 26, 0
3, 13031, Note_on_c, 0, 64, 0
3, 13052, Note_on_c, 0, 68, 0
3, 13081, Note_on_c, 0, 71, 0
3, 13477, Note_on_c, 0, 93, 28
3, 13479, Note_on_c, 0, 57, 22
3, 13517, Note_on_c, 0, 93, 0
3, 13525, Note_on_c, 0, 59, 50
3, 13526, Note_on_c, 0, 57, 0
3, 13528, Note_on_c, 0, 95, 66
3, 13557, Note_on_c, 0, 95, 0
3, 13557, Note_on_c, 0, 59, 0
3, 13574, Note_on_c, 0, 95, 64
3, 13575, Note_on_c, 0, 59, 50
3, 13609, Note_on_c, 0, 95, 0
3, 13622, Note_on_c, 0, 59, 0
3, 13623, Note_on_c, 0, 93, 58
3, 13632, Note_on_c, 0, 57, 24
3, 13640, Note_on_c, 0, 57, 0
3, 13643, Note_on_c, 0, 93, 0
3, 13670, Note_on_c, 0, 93, 73
3, 13673, Note_on_c, 0, 57, 34
3, 13696, Note_on_c, 0, 93, 0
3, 13712, Note_on_c, 0, 57, 0
3, 13729, Control_c, 0, 64, 0
3, 13729, Note_on_c, 0, 56, 48
3, 13730, Note_on_c, 0, 92, 67
3, 13753, Control_c, 0, 64, 127
3, 13782, Note_on_c, 0, 92, 0
3, 13792, Note_on_c, 0, 56, 0
3, 13946, Note_on_c, 0, 67, 45
3, 13947, Note_on_c, 0, 68, 43
3, 13952, Note_on_c, 0, 63, 18
3, 13954, Note_on_c, 0, 60, 31
3, 13957, Note_on_c, 0, 56, 18
3, 13960, Note_on_c, 0, 53, 20
3, 14011, Note_on_c, 0, 60, 0
3, 14015, Note_on_c, 0, 53, 0
3, 14016, Note_on_c, 0, 63, 0
3, 14023, Note_on_c, 0, 56, 0
3, 14030, Note_on_c, 0, 67, 0
3, 14036, Note_on_c, 0, 68, 0
3, 14122, Note_on_c, 0, 68, 36
3, 14125, Note_on_c, 0, 64, 36
3, 14125, Note_on_c, 0, 54, 31
3, 14129, Note_on_c, 0, 50, 38
3, 14133, Note_on_c, 0, 60, 28
3, 14138, Control_c, 0, 64, 0
3, 14174, Control_c, 0, 64, 127
3, 14293, Note_on_c, 0, 64, 0
3, 14312, Note_on_c, 0, 68, 0
3, 14339, Note_on_c, 0, 60, 0
3, 14367, Note_on_c, 0, 50, 0
3, 14380, Note_on_c, 0, 54, 0
3, 14573, Note_on_c, 0, 88, 79
3, 14577, Note_on_c, 0, 64, 56
3, 14700, Note_on_c, 0, 64, 0
3, 14710, Note_on_c, 0, 88, 0
3, 14739, Note_on_c, 0, 88, 56
3, 14743, Note_on_c, 0, 64, 40
3, 14784, Note_on_c, 0, 88, 0
3, 14788, Note_on_c, 0, 64, 0
3, 14833, Note_on_c, 0, 64, 38
3, 14835, Note_on_c, 0, 88, 54
3, 14877, Note_on_c, 0, 64, 0
3, 14990, Note_on_c, 0, 88, 0
3, 15006, Note_on_c, 0, 63, 27
3, 15007, Note_on_c, 0, 87, 48
3, 15009, Control_c, 0, 64, 0
3, 15031, Control_c, 0, 64, 127
3, 15068, Note_on_c, 0, 63, 0
3, 15097, Note_on_c, 0, 49, 29
3, 15112, Note_on_c, 0, 87, 0
3, 15178, Note_on_c, 0, 56, 29
3, 15255, Note_on_c, 0, 60, 45
3, 15377, Note_on_c, 0, 60, 0
3, 15497, Note_on_c, 0, 60, 44
3, 15572, Note_on_c, 0, 60, 0
3, 15585, Note_on_c, 0, 65, 58
3, 15642, Note_on_c, 0, 65, 0
3, 15652, Note_on_c, 0, 70, 74
3, 15700, Note_on_c, 0, 56, 0
3, 15705, Note_on_c, 0, 49, 0
3, 15709, Note_on_c, 0, 70, 0
3, 15725, Note_on_c, 0, 72, 60
3, 15726, Note_on_c, 0, 61, 49
3, 15727, Note_on_c, 0, 65, 63
3, 15729, Note_on_c, 0, 55, 54
3, 15741, Control_c, 0, 64, 0
3, 15764, Note_on_c, 0, 72, 0
3, 15767, Control_c, 0, 64, 127
3, 15797, Note_on_c, 0, 73, 57
3, 15810, Note_on_c, 0, 65, 0
3, 15817, Note_on_c, 0, 61, 0
3, 15840, Note_on_c, 0, 73, 0
3, 15865, Note_on_c, 0, 75, 67
3, 15913, Note_on_c, 0, 75, 0
3, 15944, Note_on_c, 0, 76, 57
3, 16009, Note_on_c, 0, 76, 0
3, 16036, Note_on_c, 0, 55, 0
3, 16037, Note_on_c, 0, 76, 40
3, 16042, Note_on_c, 0, 58, 34
3, 16042, Note_on_c, 0, 73, 32
3, 16043, Note_on_c, 0, 64, 33
3, 16044, Note_on_c, 0, 70, 39
3, 16048, Note_on_c, 0, 48, 31
3, 16050, Control_c, 0, 64, 0
3, 16086, Control_c, 0, 64, 127
3, 16120, Note_on_c, 0, 76, 0
3, 16139, Note_on_c, 0, 73, 0
3, 16150, Note_on_c, 0, 75, 47
3, 16187, Note_on_c, 0, 58, 0
3, 16196, Note_on_c, 0, 75, 0
3, 16197, Note_on_c, 0, 64, 0
3, 16209, Note_on_c, 0, 70, 0
3, 16263, Note_on_c, 0, 70, 37
3, 16264, Note_on_c, 0, 73, 30
3, 16271, Note_on_c, 0, 64, 17
3, 16272, Note_on_c, 0, 58, 21
3, 16346, Note_on_c, 0, 48, 0
3, 16377, Note_on_c, 0, 58, 0
3, 16400, Note_on_c, 0, 73, 0
3, 16449, Note_on_c, 0, 64, 0
3, 16475, Note_on_c, 0, 70, 0
3, 16622, Note_on_c, 0, 72, 40
3, 16673, Note_on_c, 0, 72, 0
3, 17027, Note_on_c, 0, 84, 49
3, 17028, Note_on_c, 0, 68, 25
3, 17031, Note_on_c, 0, 65, 28
3, 17034, Note_on_c, 0, 72, 28
3, 17034, Note_on_c, 0, 74, 24
3, 17034, Note_on_c, 0, 80, 33
3, 17037, Note_on_c, 0, 79, 27
3, 17090, Note_on_c, 0, 84, 0
3, 17127, Note_on_c, 0, 84, 43
3, 17133, Note_on_c, 0, 74, 0
3, 17148, Note_on_c, 0, 84, 0
3, 17159, Note_on_c, 0, 80, 0
3, 17166, Note_on_c, 0, 84, 49
3, 17167, Note_on_c, 0, 65, 0
3, 17179, Note_on_c, 0, 79, 0
3, 17179, Note_on_c, 0, 68, 0
3, 17183, Note_on_c, 0, 72, 0
3, 17201, Note_on_c, 0, 84, 0
3, 17373, Note_on_c, 0, 86, 63
3, 17376, Note_on_c, 0, 80, 44
3, 17380, Note_on_c, 0, 76, 44
3, 17381, Note_on_c, 0, 77, 30
3, 17424, Note_on_c, 0, 86, 0
3, 17454, Note_on_c, 0, 86, 53
3, 17481, Note_on_c, 0, 86, 0
3, 17498, Note_on_c, 0, 77, 0
3, 17505, Note_on_c, 0, 86, 34
3, 17516, Note_on_c, 0, 76, 0
3, 17516, Note_on_c, 0, 80, 0
3, 17523, Note_on_c, 0, 86, 0
3, 17561, Note_on_c, 0, 89, 55
3, 17564, Note_on_c, 0, 74, 37
3, 17564, Note_on_c, 0, 77, 27
3, 17565, Note_on_c, 0, 84, 31
3, 17580, Control_c, 0, 64, 0
3, 17586, Control_c, 0, 64, 127
3, 17608, Note_on_c, 0, 89, 0
3, 17629, Note_on_c, 0, 89, 50
3, 17654, Note_on_c, 0, 89, 0
3, 17660, Note_on_c, 0, 84, 0
3, 17670, Note_on_c, 0, 77, 0
3, 17679, Note_on_c, 0, 89, 40
3, 17698, Note_on_c, 0, 89, 0
3, 17698, Note_on_c, 0, 74, 0
3, 17739, Note_on_c, 0, 92, 62
3, 17746, Note_on_c, 0, 72, 33
3, 17746, Note_on_c, 0, 84, 22
3, 17747, Note_on_c, 0, 80, 18
3, 17790, Note_on_c, 0, 92, 0
3, 17807, Note_on_c, 0, 72, 0
3, 17835, Note_on_c, 0, 92, 56
3, 17854, Note_on_c, 0, 84, 0
3, 17863, Note_on_c, 0, 92, 0
3, 17885, Note_on_c, 0, 80, 0
3, 17913, Note_on_c, 0, 92, 54
3, 17931, Note_on_c, 0, 92, 0
3, 18005, Note_on_c, 0, 41, 38
3, 18030, Note_on_c, 0, 41, 0
3, 18208, Note_on_c, 0, 75, 48
3, 18209, Note_on_c, 0, 70, 45
3, 18209, Note_on_c, 0, 84, 53
3, 18210, Note_on_c, 0, 80, 46
3, 18302, Note_on_c, 0, 84, 0
3, 18340, Note_on_c, 0, 75, 0
3, 18351, Note_on_c, 0, 80, 0
3, 18488, Note_on_c, 0, 85, 64
3, 18490, Note_on_c, 0, 76, 38
3, 18491, Note_on_c, 0, 70, 0
3, 18492, Note_on_c, 0, 71, 33
3, 18493, Note_on_c, 0, 81, 45
3, 18516, Note_on_c, 0, 76, 0
3, 18518, Note_on_c, 0, 85, 0
3, 18519, Note_on_c, 0, 81, 0
3, 18557, Note_on_c, 0, 71, 0
3, 18561, Note_on_c, 0, 82, 55
3, 18563, Note_on_c, 0, 68, 51
3, 18623, Note_on_c, 0, 82, 0
3, 18626, Note_on_c, 0, 68, 0
3, 18638, Note_on_c, 0, 70, 71
3, 18638, Note_on_c, 0, 75, 68
3, 18640, Note_on_c, 0, 84, 63
3, 18640, Note_on_c, 0, 80, 59
3, 18649, Control_c, 0, 64, 0
3, 18671, Control_c, 0, 64, 127
3, 18712, Note_on_c, 0, 70, 0
3, 18756, Note_on_c, 0, 84, 0
3, 18762, Note_on_c, 0, 80, 0
3, 18766, Note_on_c, 0, 75, 0
3, 18770, Note_on_c, 0, 46, 30
3, 18772, Note_on_c, 0, 44, 44
3, 18793, Note_on_c, 0, 44, 0
3, 18825, Note_on_c, 0, 46, 0
3, 19015, Note_on_c, 0, 61, 42
3, 19016, Note_on_c, 0, 70, 48
3, 19022, Note_on_c, 0, 60, 51
3, 19022, Note_on_c, 0, 65, 53
3, 19051, Note_on_c, 0, 61, 0
3, 19060, Note_on_c, 0, 60, 0
3, 19068, Control_c, 0, 64, 0
3, 19070, Note_on_c, 0, 61, 44
3, 19096, Note_on_c, 0, 61, 0
3, 19116, Note_on_c, 0, 60, 40
3, 19131, Note_on_c, 0, 60, 0
3, 19158, Note_on_c, 0, 58, 39
3, 19178, Note_on_c, 0, 58, 0
3, 19196, Note_on_c, 0, 56, 33
3, 19219, Note_on_c, 0, 56, 0
3, 19239, Note_on_c, 0, 55, 46
3, 19257, Note_on_c, 0, 55, 0
3, 19278, Note_on_c, 0, 54, 34
3, 19293, Note_on_c, 0, 54, 0
3, 19305, Note_on_c, 0, 53, 47
3, 19321, Note_on_c, 0, 53, 0
3, 19332, Note_on_c, 0, 52, 46
3, 19350, Note_on_c, 0, 52, 0
3, 19354, Note_on_c, 0, 51, 57
3, 19367, Note_on_c, 0, 51, 0
3, 19375, Control_c, 0, 64, 127
3, 19382, Note_on_c, 0, 50, 36
3, 19394, Note_on_c, 0, 65, 0
3, 19401, Note_on_c, 0, 50, 0
3, 19408, Note_on_c, 0, 49, 44
3, 19431, Note_on_c, 0, 49, 0
3, 19433, Control_c, 0, 64, 0
3, 19436, Note_on_c, 0, 58, 52
3, 19437, Note_on_c, 0, 64, 49
3, 19443, Note_on_c, 0, 48, 42
3, 19487, Control_c, 0, 64, 127
3, 19508, Note_on_c, 0, 48, 0
3, 19513, Note_on_c, 0, 64, 0
3, 19513, Note_on_c, 0, 70, 0
3, 19515, Note_on_c, 0, 43, 38
3, 19523, Note_on_c, 0, 58, 0
3, 19571, Note_on_c, 0, 43, 0
3, 19576, Note_on_c, 0, 36, 47
3, 19589, Note_on_c, 0, 36, 0
3, 19660, Note_on_c, 0, 24, 33
3, 19663, Note_on_c, 0, 58, 49
3, 19663, Note_on_c, 0, 61, 42
3, 19665, Note_on_c, 0, 52, 36
3, 19674, Note_on_c, 0, 24, 0
3, 19720, Note_on_c, 0, 52, 0
3, 19771, Note_on_c, 0, 58, 0
3, 19831, Note_on_c, 0, 61, 0
3, 19873, Note_on_c, 0, 60, 47
3, 19874, Note_on_c, 0, 56, 32
3, 19875, Note_on_c, 0, 55, 31
3, 19875, Control_c, 0, 64, 0
3, 19879, Note_on_c, 0, 41, 38
3, 19905, Control_c, 0, 64, 127
3, 19908, Note_on_c, 0, 55, 0
3, 19921, Note_on_c, 0, 56, 0
3, 19924, Note_on_c, 0, 60, 0
3, 19947, Note_on_c, 0, 48, 39
3, 19987, Note_on_c, 0, 41, 0
3, 20000, Note_on_c, 0, 48, 0
3, 20117, Note_on_c, 0, 60, 47
3, 20144, Note_on_c, 0, 60, 0
3, 20193, Note_on_c, 0, 60, 45
3, 20208, Note_on_c, 0, 60, 0
3, 20281, Note_on_c, 0, 74, 71
3, 20283, Note_on_c, 0, 56, 39
3, 20284, Note_on_c, 0, 62, 66
3, 20284, Note_on_c, 0, 46, 44
3, 20285, Note_on_c, 0, 67, 56
3, 20292, Control_c, 0, 64, 0
3, 20332, Control_c, 0, 64, 127
3, 20358, Note_on_c, 0, 56, 0
3, 20358, Note_on_c, 0, 53, 60
3, 20397, Note_on_c, 0, 62, 0
3, 20408, Note_on_c, 0, 74, 0
3, 20411, Note_on_c, 0, 67, 0
3, 20421, Note_on_c, 0, 56, 54
3, 20437, Note_on_c, 0, 46, 0
3, 20437, Note_on_c, 0, 53, 0
3, 20449, Note_on_c, 0, 56, 0
3, 20485, Note_on_c, 0, 62, 52
3, 20492, Note_on_c, 0, 62, 0
3, 20556, Note_on_c, 0, 39, 46
3, 20557, Note_on_c, 0, 77, 70
3, 20559, Note_on_c, 0, 70, 74
3, 20559, Note_on_c, 0, 73, 50
3, 20559, Note_on_c, 0, 65, 81
3, 20561, Note_on_c, 0, 54, 56
3, 20564, Control_c, 0, 64, 0
3, 20565, Note_on_c, 0, 76, 32
3, 20573, Note_on_c, 0, 76, 0
3, 20603, Control_c, 0, 64, 127
3, 20634, Note_on_c, 0, 46, 62
3, 20647, Note_on_c, 0, 54, 0
3, 20653, Note_on_c, 0, 39, 0
3, 20704, Note_on_c, 0, 65, 0
3, 20708, Note_on_c, 0, 54, 62
3, 20715, Note_on_c, 0, 46, 0
3, 20725, Note_on_c, 0, 54, 0
3, 20788, Note_on_c, 0, 70, 0
3, 20789, Note_on_c, 0, 58, 64
3, 20793, Note_on_c, 0, 77, 0
3, 20795, Note_on_c, 0, 73, 0
3, 20796, Note_on_c, 0, 58, 0
3, 20874, Note_on_c, 0, 44, 64
3, 20875, Control_c, 0, 64, 0
3, 20878, Note_on_c, 0, 80, 80
3, 20879, Note_on_c, 0, 68, 76
3, 20905, Control_c, 0, 64, 127
3, 20915, Note_on_c, 0, 44, 0
3, 20987, Note_on_c, 0, 59, 51
3, 20988, Note_on_c, 0, 64, 37
3, 20988, Note_on_c, 0, 54, 37
3, 21140, Note_on_c, 0, 80, 0
3, 21214, Note_on_c, 0, 68, 0
3, 21258, Note_on_c, 0, 80, 38
3, 21263, Note_on_c, 0, 68, 25
3, 21300, Note_on_c, 0, 68, 0
3, 21303, Note_on_c, 0, 64, 0
3, 21305, Note_on_c, 0, 59, 0
3, 21319, Note_on_c, 0, 80, 0
3, 21350, Note_on_c, 0, 54, 0
3, 21406, Note_on_c, 0, 84, 47
3, 21416, Note_on_c, 0, 53, 35
3, 21416, Note_on_c, 0, 72, 33
3, 21417, Control_c, 0, 64, 0
3, 21437, Control_c, 0, 64, 127
3, 21471, Note_on_c, 0, 77, 1
3, 21477, Note_on_c, 0, 72, 0
3, 21478, Note_on_c, 0, 84, 0
3, 21484, Note_on_c, 0, 60, 33
3, 21512, Note_on_c, 0, 77, 0
3, 21537, Note_on_c, 0, 63, 33
3, 21538, Note_on_c, 0, 85, 74
3, 21542, Note_on_c, 0, 73, 25
3, 21566, Note_on_c, 0, 53, 0
3, 21568, Note_on_c, 0, 85, 0
3, 21570, Note_on_c, 0, 63, 0
3, 21606, Note_on_c, 0, 82, 52
3, 21607, Note_on_c, 0, 53, 32
3, 21632, Note_on_c, 0, 53, 0
3, 21634, Note_on_c, 0, 73, 0
3, 21636, Note_on_c, 0, 60, 0
3, 21666, Note_on_c, 0, 82, 0
3, 21688, Note_on_c, 0, 84, 54
3, 21691, Note_on_c, 0, 52, 36
3, 21702, Control_c, 0, 64, 0
3, 21728, Control_c, 0, 64, 127
3, 21748, Note_on_c, 0, 84, 0
3, 21767, Note_on_c, 0, 58, 24
3, 21838, Note_on_c, 0, 67, 37
3, 21841, Note_on_c, 0, 64, 34
3, 21881, Note_on_c, 0, 52, 0
3, 21920, Note_on_c, 0, 70, 40
3, 21928, Note_on_c, 0, 52, 24
3, 21933, Note_on_c, 0, 64, 0
3, 21936, Note_on_c, 0, 67, 0
3, 21942, Note_on_c, 0, 52, 0
3, 21948, Note_on_c, 0, 58, 0
3, 22008, Note_on_c, 0, 66, 44
3, 22010, Note_on_c, 0, 61, 33
3, 22014, Note_on_c, 0, 51, 36
3, 22025, Control_c, 0, 64, 0
3, 22065, Control_c, 0, 64, 127
3, 22089, Note_on_c, 0, 58, 56
3, 22114, Note_on_c, 0, 70, 0
3, 22145, Note_on_c, 0, 61, 0
3, 22161, Note_on_c, 0, 72, 70
3, 22164, Note_on_c, 0, 61, 35
3, 22194, Note_on_c, 0, 51, 0
3, 22225, Note_on_c, 0, 61, 0
3, 22229, Note_on_c, 0, 72, 0
3, 22242, Note_on_c, 0, 51, 37
3, 22245, Note_on_c, 0, 61, 21
3, 22246, Note_on_c, 0, 68, 50
3, 22254, Note_on_c, 0, 58, 0
3, 22264, Note_on_c, 0, 51, 0
3, 22275, Note_on_c, 0, 61, 0
3, 22305, Note_on_c, 0, 66, 0
3, 22319, Note_on_c, 0, 68, 0
3, 22441, Note_on_c, 0, 70, 53
3, 22448, Note_on_c, 0, 64, 50
3, 22450, Note_on_c, 0, 60, 35
3, 22451, Note_on_c, 0, 54, 23
3, 22451, Note_on_c, 0, 44, 27
3, 22468, Control_c, 0, 64, 0
3, 22504, Control_c, 0, 64, 127
3, 22524, Note_on_c, 0, 64, 0
3, 22552, Note_on_c, 0, 63, 42
3, 22558, Control_c, 0, 64, 0
3, 22590, Control_c, 0, 64, 127
3, 22650, Note_on_c, 0, 54, 0
3, 22672, Note_on_c, 0, 63, 0
3, 22682, Note_on_c, 0, 62, 37
3, 22685, Note_on_c, 0, 54, 31
3, 22821, Note_on_c, 0, 62, 0
3, 22861, Note_on_c, 0, 54, 0
3, 22881, Note_on_c, 0, 60, 0
3, 22903, Note_on_c, 0, 70, 0
3, 22904, Note_on_c, 0, 61, 45
3, 22910, Note_on_c, 0, 54, 17
3, 22958, Note_on_c, 0, 54, 0
3, 22981, Note_on_c, 0, 44, 0
3, 23092, Note_on_c, 0, 61, 0
3, 23130, Note_on_c, 0, 60, 38
3, 23135, Note_on_c, 0, 51, 23
3, 23138, Note_on_c, 0, 41, 34
3, 23138, Note_on_c, 0, 57, 24
3, 23140, Control_c, 0, 64, 0
3, 23172, Control_c, 0, 64, 127
3, 23205, Note_on_c, 0, 60, 0
3, 23231, Note_on_c, 0, 57, 0
3, 23232, Note_on_c, 0, 59, 50
3, 23254, Note_on_c, 0, 59, 0
3, 23272, Note_on_c, 0, 41, 0
3, 23290, Note_on_c, 0, 51, 0
3, 23336, Note_on_c, 0, 73, 44
3, 23339, Note_on_c, 0, 69, 50
3, 23363, Note_on_c, 0, 69, 0
3, 23378, Note_on_c, 0, 73, 0
3, 23421, Note_on_c, 0, 77, 58
3, 23424, Note_on_c, 0, 63, 31
3, 23485, Note_on_c, 0, 77, 0
3, 23517, Note_on_c, 0, 77, 50
3, 23523, Note_on_c, 0, 71, 35
3, 23524, Note_on_c, 0, 63, 0
3, 23526, Note_on_c, 0, 73, 20
3, 23526, Note_on_c, 0, 65, 43
3, 23604, Note_on_c, 0, 71, 0
3, 23606, Note_on_c, 0, 65, 0
3, 23620, Note_on_c, 0, 63, 32
3, 23711, Note_on_c, 0, 73, 0
3, 23716, Note_on_c, 0, 63, 0
3, 23716, Note_on_c, 0, 77, 0
3, 23720, Note_on_c, 0, 71, 33
3, 23724, Note_on_c, 0, 61, 35
3, 23728, Note_on_c, 0, 65, 24
3, 23814, Note_on_c, 0, 65, 0
3, 23826, Note_on_c, 0, 73, 28
3, 23844, Note_on_c, 0, 61, 0
3, 23847, Note_on_c, 0, 71, 0
3, 23924, Note_on_c, 0, 73, 0
3, 23937, Note_on_c, 0, 72, 38
3, 23942, Control_c, 0, 64, 0
3, 23945, Note_on_c, 0, 68, 18
3, 23946, Note_on_c, 0, 60, 27
3, 23946, Note_on_c, 0, 63, 27
3, 23972, Control_c, 0, 64, 127
3, 23990, Note_on_c, 0, 68, 0
3, 23994, Note_on_c, 0, 63, 0
3, 23998, Note_on_c, 0, 60, 0
3, 24087, Note_on_c, 0, 34, 39
3, 24117, Note_on_c, 0, 34, 0
3, 24280, Note_on_c, 0, 22, 33
3, 24353, Note_on_c, 0, 22, 0
3, 24357, Note_on_c, 0, 72, 0
3, 24554, Note_on_c, 0, 56, 76
3, 24556, Note_on_c, 0, 92, 86
3, 24650, Note_on_c, 0, 56, 0
3, 24653, Note_on_c, 0, 92, 0
3, 24689, Note_on_c, 0, 92, 84
3, 24690, Note_on_c, 0, 56, 85
3, 24801, Note_on_c, 0, 92, 0
3, 24804, Note_on_c, 0, 56, 0
3, 24826, Note_on_c, 0, 92, 53
3, 24829, Note_on_c, 0, 56, 71
3, 24947, Note_on_c, 0, 92, 0
3, 24949, Note_on_c, 0, 56, 0
3, 24969, Note_on_c, 0, 90, 35
3, 24970, Note_on_c, 0, 54, 49
3, 25086, Note_on_c, 0, 90, 0
3, 25099, Note_on_c, 0, 54, 0
3, 25222, Note_on_c, 0, 89, 48
3, 25223, Note_on_c, 0, 53, 34
3, 25304, Note_on_c, 0, 89, 0
3, 25335, Note_on_c, 0, 53, 0
3, 25569, Note_on_c, 0, 63, 37
3, 25572, Note_on_c, 0, 61, 35
3, 25573, Note_on_c, 0, 55, 34
3, 25577, Note_on_c, 0, 45, 34
3, 25581, Control_c, 0, 64, 0
3, 25613, Control_c, 0, 64, 127
3, 25622, Note_on_c, 0, 55, 0
3, 25637, Note_on_c, 0, 61, 0
3, 25642, Note_on_c, 0, 63, 0
3, 25643, Note_on_c, 0, 45, 0
3, 25707, Note_on_c, 0, 75, 59
3, 25763, Note_on_c, 0, 75, 0
3, 25836, Note_on_c, 0, 75, 59
3, 25842, Note_on_c, 0, 73, 34
3, 25847, Note_on_c, 0, 67, 38
3, 25944, Note_on_c, 0, 67, 0
3, 25952, Note_on_c, 0, 73, 0
3, 25952, Note_on_c, 0, 75, 0
3, 25986, Note_on_c, 0, 61, 33
3, 25986, Note_on_c, 0, 75, 53
3, 26077, Note_on_c, 0, 75, 0
3, 26128, Note_on_c, 0, 61, 0
3, 26252, Note_on_c, 0, 61, 30
3, 26320, Note_on_c, 0, 61, 0
3, 26419, Note_on_c, 0, 75, 47
3, 26427, Note_on_c, 0, 73, 25
3, 26429, Note_on_c, 0, 57, 24
3, 26429, Note_on_c, 0, 67, 16
3, 26515, Note_on_c, 0, 57, 0
3, 26539, Note_on_c, 0, 67, 0
3, 26545, Note_on_c, 0, 75, 0
3, 26546, Note_on_c, 0, 73, 0
3, 26628, Note_on_c, 0, 75, 30
3, 26629, Note_on_c, 0, 67, 27
3, 26632, Note_on_c, 0, 73, 25
3, 26635, Note_on_c, 0, 57, 26
3, 26790, Note_on_c, 0, 67, 0
3, 26796, Note_on_c, 0, 57, 0
3, 26818, Note_on_c, 0, 73, 0
3, 26832, Note_on_c, 0, 75, 0
3, 26934, Note_on_c, 0, 63, 43
3, 26935, Note_on_c, 0, 87, 61
3, 26968, Note_on_c, 0, 87, 0
3, 26971, Note_on_c, 0, 63, 0
3, 26993, Note_on_c, 0, 87, 78
3, 26995, Note_on_c, 0, 63, 71
3, 27021, Note_on_c, 0, 87, 0
3, 27036, Note_on_c, 0, 63, 0
3, 27058, Note_on_c, 0, 63, 79
3, 27059, Note_on_c, 0, 87, 88
3, 27098, Note_on_c, 0, 87, 0
3, 27105, Note_on_c, 0, 63, 0
3, 27122, Note_on_c, 0, 87, 82
3, 27123, Note_on_c, 0, 63, 72
3, 27164, Note_on_c, 0, 87, 0
3, 27173, Note_on_c, 0, 63, 0
3, 27195, Note_on_c, 0, 63, 64
3, 27196, Note_on_c, 0, 87, 74
3, 27258, Note_on_c, 0, 87, 0
3, 27269, Note_on_c, 0, 89, 70
3, 27270, Note_on_c, 0, 65, 67
3, 27271, Note_on_c, 0, 63, 0
3, 27330, Note_on_c, 0, 89, 0
3, 27331, Note_on_c, 0, 65, 0
3, 27354, Note_on_c, 0, 89, 52
3, 27356, Note_on_c, 0, 65, 48
3, 27432, Note_on_c, 0, 65, 0
3, 27452, Note_on_c, 0, 61, 28
3, 27454, Note_on_c, 0, 85, 34
3, 27488, Note_on_c, 0, 61, 0
3, 27495, Note_on_c, 0, 89, 0
3, 27503, Note_on_c, 0, 85, 0
3, 27803, Note_on_c, 0, 39, 37
3, 27836, Note_on_c, 0, 46, 50
3, 27843, Note_on_c, 0, 39, 0
3, 27847, Note_on_c, 0, 54, 28
3, 27863, Note_on_c, 0, 61, 44
3, 27866, Note_on_c, 0, 53, 36
3, 27880, Note_on_c, 0, 68, 60
3, 27969, Note_on_c, 0, 53, 0
3, 28016, Note_on_c, 0, 68, 0
3, 28023, Note_on_c, 0, 46, 0
3, 28024, Note_on_c, 0, 54, 0
3, 28030, Note_on_c, 0, 61, 0
3, 28039, Note_on_c, 0, 39, 34
3, 28065, Note_on_c, 0, 46, 53
3, 28073, Note_on_c, 0, 39, 0
3, 28087, Note_on_c, 0, 54, 54
3, 28098, Note_on_c, 0, 53, 35
3, 28100, Note_on_c, 0, 61, 35
3, 28106, Control_c, 0, 64, 0
3, 28119, Note_on_c, 0, 68, 55
3, 28124, Control_c, 0, 64, 127
3, 28126, Note_on_c, 0, 53, 0
3, 28162, Note_on_c, 0, 46, 0
3, 28164, Note_on_c, 0, 39, 44
3, 28165, Note_on_c, 0, 54, 0
3, 28169, Note_on_c, 0, 68, 0
3, 28178, Note_on_c, 0, 61, 0
3, 28186, Note_on_c, 0, 46, 52
3, 28195, Note_on_c, 0, 39, 0
3, 28213, Note_on_c, 0, 54, 46
3, 28218, Note_on_c, 0, 53, 38
3, 28226, Note_on_c, 0, 61, 46
3, 28234, Note_on_c, 0, 53, 0
3, 28246, Note_on_c, 0, 54, 0
3, 28247, Note_on_c, 0, 68, 52
3, 28257, Note_on_c, 0, 46, 0
3, 28264, Note_on_c, 0, 39, 45
3, 28276, Note_on_c, 0, 68, 0
3, 28282, Note_on_c, 0, 61, 0
3, 28288, Note_on_c, 0, 46, 43
3, 28297, Note_on_c, 0, 39, 0
3, 28304, Note_on_c, 0, 54, 37
3, 28323, Note_on_c, 0, 61, 37
3, 28325, Note_on_c, 0, 53, 27
3, 28334, Note_on_c, 0, 53, 0
3, 28336, Note_on_c, 0, 54, 0
3, 28347, Note_on_c, 0, 68, 39
3, 28358, Note_on_c, 0, 46, 0
3, 28367, Note_on_c, 0, 39, 39
3, 28372, Note_on_c, 0, 61, 0
3, 28376, Note_on_c, 0, 68, 0
3, 28396, Note_on_c, 0, 46, 46
3, 28400, Note_on_c, 0, 54, 31
3, 28403, Note_on_c, 0, 39, 0
3, 28424, Note_on_c, 0, 61, 39
3, 28433, Note_on_c, 0, 54, 0
3, 28451, Note_on_c, 0, 68, 31
3, 28463, Note_on_c, 0, 46, 0
3, 28471, Note_on_c, 0, 39, 32
3, 28480, Note_on_c, 0, 68, 0
3, 28482, Note_on_c, 0, 61, 0
3, 28496, Note_on_c, 0, 46, 38
3, 28502, Note_on_c, 0, 39, 0
3, 28511, Note_on_c, 0, 54, 30
3, 28531, Note_on_c, 0, 61, 39
3, 28539, Note_on_c, 0, 54, 0
3, 28546, Note_on_c, 0, 46, 0
3, 28554, Note_on_c, 0, 68, 38
3, 28578, Note_on_c, 0, 39, 32
3, 28585, Note_on_c, 0, 68, 0
3, 28585, Note_on_c, 0, 61, 0
3, 28604, Note_on_c, 0, 39, 0
3, 28615, Note_on_c, 0, 46, 32
3, 28616, Note_on_c, 0, 54, 28
3, 28635, Note_on_c, 0, 61, 38
3, 28645, Note_on_c, 0, 54, 0
3, 28658, Note_on_c, 0, 68, 31
3, 28668, Note_on_c, 0, 46, 0
3, 28681, Note_on_c, 0, 39, 32
3, 28685, Note_on_c, 0, 68, 0
3, 28689, Note_on_c, 0, 61, 0
3, 28709, Note_on_c, 0, 46, 38
3, 28711, Note_on_c, 0, 39, 0
3, 28715, Note_on_c, 0, 54, 23
3, 28737, Note_on_c, 0, 61, 37
3, 28749, Note_on_c, 0, 54, 0
3, 28764, Note_on_c, 0, 68, 34
3, 28772, Note_on_c, 0, 46, 0
3, 28781, Note_on_c, 0, 39, 32
3, 28796, Note_on_c, 0, 61, 0
3, 28797, Note_on_c, 0, 68, 0
3, 28815, Note_on_c, 0, 46, 29
3, 28816, Note_on_c, 0, 39, 0
3, 28825, Note_on_c, 0, 54, 26
3, 28850, Note_on_c, 0, 61, 33
3, 28871, Note_on_c, 0, 54, 0
3, 28878, Note_on_c, 0, 68, 32
3, 28924, Note_on_c, 0, 46, 0
3, 28933, Note_on_c, 0, 61, 0
3, 28938, Note_on_c, 0, 38, 50
3, 28952, Control_c, 0, 64, 0
3, 28954, Note_on_c, 0, 68, 0
3, 28984, Control_c, 0, 64, 127
3, 29051, Note_on_c, 0, 38, 0
3, 29092, Note_on_c, 0, 52, 38
3, 29143, Note_on_c, 0, 59, 40
3, 29145, Note_on_c, 0, 52, 0
3, 29147, Note_on_c, 0, 56, 32
3, 29159, Note_on_c, 0, 59, 0
3, 29182, Note_on_c, 0, 64, 47
3, 29222, Note_on_c, 0, 64, 0
3, 29223, Note_on_c, 0, 68, 60
3, 29233, Note_on_c, 0, 59, 28
3, 29241, Note_on_c, 0, 68, 0
3, 29266, Note_on_c, 0, 71, 41
3, 29274, Note_on_c, 0, 64, 36
3, 29302, Note_on_c, 0, 71, 0
3, 29307, Note_on_c, 0, 64, 0
3, 29315, Note_on_c, 0, 76, 39
3, 29319, Note_on_c, 0, 83, 41
3, 29328, Note_on_c, 0, 56, 0
3, 29345, Note_on_c, 0, 59, 0
3, 29358, Note_on_c, 0, 83, 0
3, 29365, Note_on_c, 0, 76, 0
3, 29371, Note_on_c, 0, 80, 33
3, 29371, Note_on_c, 0, 71, 34
3, 29410, Note_on_c, 0, 71, 0
3, 29414, Note_on_c, 0, 80, 0
3, 29425, Note_on_c, 0, 76, 22
3, 29428, Note_on_c, 0, 83, 26
3, 29461, Note_on_c, 0, 83, 0
3, 29462, Note_on_c, 0, 76, 0
3, 29482, Note_on_c, 0, 71, 34
3, 29483, Note_on_c, 0, 80, 33
3, 29490, Note_on_c, 0, 76, 17
3, 29492, Note_on_c, 0, 54, 28
3, 29493, Note_on_c, 0, 60, 31
3, 29496, Note_on_c, 0, 50, 32
3, 29552, Note_on_c, 0, 54, 0
3, 29591, Note_on_c, 0, 54, 34
3, 29606, Note_on_c, 0, 60, 0
3, 29624, Note_on_c, 0, 76, 0
3, 29627, Note_on_c, 0, 71, 0
3, 29651, Note_on_c, 0, 80, 0
3, 29697, Note_on_c, 0, 80, 18
3, 29702, Note_on_c, 0, 60, 34
3, 29703, Note_on_c, 0, 76, 25
3, 29704, Note_on_c, 0, 71, 24
3, 29870, Note_on_c, 0, 60, 0
3, 29881, Note_on_c, 0, 76, 0
3, 29882, Note_on_c, 0, 80, 0
3, 29882, Note_on_c, 0, 71, 0
3, 29887, Note_on_c, 0, 50, 0
3, 29893, Note_on_c, 0, 54, 0
3, 30133, Control_c, 0, 64, 0
3, 30234, Control_c, 0, 64, 127
3, 30296, Control_c, 0, 64, 0
3, 30307, Note_on_c, 0, 68, 37
3, 30311, Note_on_c, 0, 37, 30
3, 30312, Note_on_c, 0, 44, 29
3, 30314, Control_c, 0, 64, 127
3, 30328, Note_on_c, 0, 37, 0
3, 30331, Note_on_c, 0, 44, 0
3, 30488, Note_on_c, 0, 63, 27
3, 30495, Note_on_c, 0, 58, 31
3, 30501, Note_on_c, 0, 53, 19
3, 30677, Note_on_c, 0, 70, 77
3, 30680, Note_on_c, 0, 53, 0
3, 30692, Note_on_c, 0, 68, 0
3, 30708, Note_on_c, 0, 63, 0
3, 30710, Note_on_c, 0, 58, 0
3, 30737, Note_on_c, 0, 70, 0
3, 30746, Note_on_c, 0, 64, 38
3, 30747, Note_on_c, 0, 59, 46
3, 30747, Note_on_c, 0, 71, 58
3, 30749, Note_on_c, 0, 54, 27
3, 30753, Control_c, 0, 64, 0
3, 30777, Control_c, 0, 64, 127
3, 30826, Note_on_c, 0, 71, 0
3, 30826, Note_on_c, 0, 76, 55
3, 30857, Note_on_c, 0, 76, 0
3, 30869, Note_on_c, 0, 83, 73
3, 30898, Note_on_c, 0, 83, 0
3, 30910, Note_on_c, 0, 80, 46
3, 30923, Note_on_c, 0, 64, 0
3, 30924, Note_on_c, 0, 80, 0
3, 30963, Note_on_c, 0, 89, 55
3, 30963, Note_on_c, 0, 88, 62
3, 30964, Note_on_c, 0, 64, 36
3, 30979, Note_on_c, 0, 89, 0
3, 30992, Note_on_c, 0, 88, 0
3, 31009, Note_on_c, 0, 76, 41
3, 31016, Note_on_c, 0, 64, 0
3, 31018, Note_on_c, 0, 76, 0
3, 31020, Note_on_c, 0, 84, 24
3, 31026, Note_on_c, 0, 84, 0
3, 31071, Note_on_c, 0, 64, 32
3, 31073, Note_on_c, 0, 100, 71
3, 31081, Note_on_c, 0, 64, 0
3, 31091, Note_on_c, 0, 59, 0
3, 31108, Note_on_c, 0, 54, 0
3, 31116, Note_on_c, 0, 100, 0
3, 31130, Note_on_c, 0, 88, 43
3, 31133, Note_on_c, 0, 95, 53
3, 31155, Note_on_c, 0, 88, 0
3, 31156, Note_on_c, 0, 95, 0
3, 31193, Note_on_c, 0, 99, 53
3, 31194, Note_on_c, 0, 37, 46
3, 31197, Note_on_c, 0, 44, 37
3, 31198, Control_c, 0, 64, 0
3, 31200, Note_on_c, 0, 87, 20
3, 31201, Note_on_c, 0, 96, 44
3, 31220, Control_c, 0, 64, 127
3, 31222, Note_on_c, 0, 37, 0
3, 31223, Note_on_c, 0, 92, 5
3, 31229, Note_on_c, 0, 44, 0
3, 31249, Note_on_c, 0, 96, 0
3, 31250, Note_on_c, 0, 99, 0
3, 31259, Note_on_c, 0, 92, 0
3, 31268, Note_on_c, 0, 87, 0
3, 31410, Note_on_c, 0, 68, 30
3, 31411, Note_on_c, 0, 65, 31
3, 31413, Note_on_c, 0, 60, 36
3, 31414, Note_on_c, 0, 72, 33
3, 31418, Note_on_c, 0, 56, 21
3, 31425, Note_on_c, 0, 53, 15
3, 31450, Note_on_c, 0, 72, 0
3, 31458, Note_on_c, 0, 63, 1
3, 31471, Note_on_c, 0, 65, 0
3, 31475, Note_on_c, 0, 68, 0
3, 31487, Note_on_c, 0, 68, 75
3, 31527, Note_on_c, 0, 60, 0
3, 31530, Note_on_c, 0, 53, 0
3, 31537, Note_on_c, 0, 68, 0
3, 31544, Note_on_c, 0, 70, 83
3, 31547, Note_on_c, 0, 63, 0
3, 31547, Note_on_c, 0, 68, 53
3, 31554, Note_on_c, 0, 68, 0
3, 31587, Note_on_c, 0, 56, 0
3, 31609, Note_on_c, 0, 70, 0
3, 31610, Note_on_c, 0, 64, 45
3, 31611, Note_on_c, 0, 54, 32
3, 31611, Note_on_c, 0, 59, 31
3, 31614, Note_on_c, 0, 71, 59
3, 31620, Control_c, 0, 64, 0
3, 31652, Control_c, 0, 64, 127
3, 31683, Note_on_c, 0, 76, 56
3, 31692, Note_on_c, 0, 71, 0
3, 31738, Note_on_c, 0, 64, 0
3, 31747, Note_on_c, 0, 59, 0
3, 31819, Note_on_c, 0, 64, 24
3, 31819, Note_on_c, 0, 59, 36
3, 31922, Note_on_c, 0, 76, 0
3, 31923, Note_on_c, 0, 59, 0
3, 31926, Note_on_c, 0, 64, 0
3, 31941, Note_on_c, 0, 71, 41
3, 31955, Note_on_c, 0, 54, 0
3, 31999, Note_on_c, 0, 71, 0
3, 32012, Note_on_c, 0, 70, 35
3, 32015, Note_on_c, 0, 65, 32
3, 32017, Note_on_c, 0, 60, 33
3, 32018, Note_on_c, 0, 53, 24
3, 32023, Control_c, 0, 64, 0
3, 32024, Note_on_c, 0, 56, 25
3, 32051, Control_c, 0, 64, 127
3, 32075, Note_on_c, 0, 60, 0
3, 32076, Note_on_c, 0, 53, 0
3, 32090, Note_on_c, 0, 56, 0
3, 32226, Note_on_c, 0, 70, 0
3, 32234, Note_on_c, 0, 37, 29
3, 32237, Note_on_c, 0, 44, 21
3, 32270, Note_on_c, 0, 65, 0
3, 32293, Note_on_c, 0, 68, 55
3, 32306, Note_on_c, 0, 37, 0
3, 32314, Note_on_c, 0, 44, 0
3, 32315, Note_on_c, 0, 68, 0
3, 32543, Note_on_c, 0, 78, 67
3, 32544, Note_on_c, 0, 73, 64
3, 32545, Note_on_c, 0, 76, 71
3, 32546, Note_on_c, 0, 69, 80
3, 32547, Note_on_c, 0, 68, 82
3, 32613, Note_on_c, 0, 69, 0
3, 32617, Note_on_c, 0, 78, 0
3, 32621, Note_on_c, 0, 73, 0
3, 32627, Note_on_c, 0, 76, 0
3, 32641, Note_on_c, 0, 78, 53
3, 32643, Note_on_c, 0, 73, 37
3, 32646, Note_on_c, 0, 69, 62
3, 32646, Note_on_c, 0, 76, 49
3, 32671, Note_on_c, 0, 76, 0
3, 32715, Note_on_c, 0, 68, 0
3, 32721, Note_on_c, 0, 69, 0
3, 32723, Note_on_c, 0, 78, 0
3, 32733, Note_on_c, 0, 73, 0
3, 32739, Note_on_c, 0, 66, 40
3, 32740, Note_on_c, 0, 80, 62
3, 32741, Note_on_c, 0, 73, 25
3, 32747, Note_on_c, 0, 66, 0
3, 32750, Note_on_c, 0, 69, 17
3, 32760, Note_on_c, 0, 80, 0
3, 32762, Note_on_c, 0, 69, 0
3, 32763, Note_on_c, 0, 73, 0
3, 32839, Note_on_c, 0, 63, 29
3, 32841, Note_on_c, 0, 71, 28
3, 32842, Note_on_c, 0, 68, 48
3, 32847, Note_on_c, 0, 59, 24
3, 32861, Control_c, 0, 64, 0
3, 32887, Control_c, 0, 64, 127
3, 32962, Note_on_c, 0, 52, 61
3, 33023, Note_on_c, 0, 59, 0
3, 33032, Note_on_c, 0, 63, 0
3, 33067, Note_on_c, 0, 71, 0
3, 33067, Note_on_c, 0, 63, 27
3, 33067, Note_on_c, 0, 59, 36
3, 33091, Note_on_c, 0, 71, 17
3, 33121, Note_on_c, 0, 52, 0
3, 33152, Note_on_c, 0, 59, 0
3, 33180, Note_on_c, 0, 52, 40
3, 33190, Note_on_c, 0, 63, 0
3, 33193, Note_on_c, 0, 52, 0
3, 33212, Note_on_c, 0, 71, 0
3, 33221, Note_on_c, 0, 68, 0
3, 33279, Note_on_c, 0, 68, 31
3, 33280, Control_c, 0, 64, 0
3, 33280, Note_on_c, 0, 71, 33
3, 33281, Note_on_c, 0, 64, 55
3, 33284, Note_on_c, 0, 60, 34
3, 33287, Note_on_c, 0, 50, 34
3, 33294, Control_c, 0, 64, 127
3, 33299, Note_on_c, 0, 64, 0
3, 33309, Note_on_c, 0, 68, 0
3, 33311, Note_on_c, 0, 71, 0
3, 33353, Note_on_c, 0, 83, 69
3, 33360, Note_on_c, 0, 76, 39
3, 33360, Note_on_c, 0, 77, 29
3, 33364, Note_on_c, 0, 54, 23
3, 33372, Note_on_c, 0, 50, 0
3, 33375, Note_on_c, 0, 77, 0
3, 33375, Note_on_c, 0, 60, 0
3, 33384, Note_on_c, 0, 54, 0
3, 33405, Note_on_c, 0, 83, 0
3, 33409, Note_on_c, 0, 76, 0
3, 33415, Note_on_c, 0, 80, 34
3, 33420, Note_on_c, 0, 76, 26
3, 33421, Note_on_c, 0, 71, 55
3, 33451, Note_on_c, 0, 80, 0
3, 33453, Note_on_c, 0, 76, 0
3, 33478, Note_on_c, 0, 71, 0
3, 33490, Note_on_c, 0, 64, 33
3, 33494, Note_on_c, 0, 59, 26
3, 33496, Note_on_c, 0, 54, 26
3, 33550, Note_on_c, 0, 64, 0
3, 33561, Note_on_c, 0, 76, 44
3, 33561, Note_on_c, 0, 68, 43
3, 33584, Note_on_c, 0, 59, 0
3, 33602, Note_on_c, 0, 54, 0
3, 33603, Note_on_c, 0, 68, 0
3, 33617, Note_on_c, 0, 76, 0
3, 33625, Note_on_c, 0, 71, 42
3, 33627, Note_on_c, 0, 64, 48
3, 33628, Note_on_c, 0, 68, 26
3, 33656, Note_on_c, 0, 64, 0
3, 33661, Note_on_c, 0, 71, 0
3, 33663, Note_on_c, 0, 68, 0
3, 33701, Note_on_c, 0, 65, 50
3, 33702, Note_on_c, 0, 75, 33
3, 33704, Note_on_c, 0, 56, 27
3, 33706, Note_on_c, 0, 68, 32
3, 33707, Control_c, 0, 64, 0
3, 33708, Note_on_c, 0, 49, 31
3, 33712, Note_on_c, 0, 72, 30
3, 33729, Control_c, 0, 64, 127
3, 33752, Note_on_c, 0, 56, 0
3, 33760, Note_on_c, 0, 49, 0
3, 33825, Note_on_c, 0, 37, 62
3, 33874, Note_on_c, 0, 37, 0
3, 33876, Note_on_c, 0, 44, 60
3, 33900, Note_on_c, 0, 42, 11
3, 33916, Note_on_c, 0, 72, 0
3, 33919, Note_on_c, 0, 65, 0
3, 33920, Note_on_c, 0, 44, 0
3, 33920, Note_on_c, 0, 42, 0
3, 33921, Note_on_c, 0, 68, 0
3, 33924, Note_on_c, 0, 75, 0
3, 33930, Note_on_c, 0, 53, 66
3, 33975, Note_on_c, 0, 53, 0
3, 33981, Note_on_c, 0, 56, 47
3, 33985, Note_on_c, 0, 60, 63
3, 34021, Note_on_c, 0, 60, 0
3, 34037, Note_on_c, 0, 63, 68
3, 34042, Note_on_c, 0, 60, 49
3, 34081, Note_on_c, 0, 60, 0
3, 34089, Note_on_c, 0, 68, 77
3, 34114, Note_on_c, 0, 63, 0
3, 34132, Note_on_c, 0, 56, 0
3, 34134, Note_on_c, 0, 68, 0
3, 34144, Note_on_c, 0, 64, 63
3, 34146, Note_on_c, 0, 59, 55
3, 34147, Note_on_c, 0, 54, 43
3, 34150, Note_on_c, 0, 71, 66
3, 34157, Control_c, 0, 64, 0
3, 34183, Control_c, 0, 64, 127
3, 34195, Note_on_c, 0, 71, 0
3, 34202, Note_on_c, 0, 59, 0
3, 34218, Note_on_c, 0, 76, 71
3, 34222, Note_on_c, 0, 59, 38
3, 34226, Note_on_c, 0, 64, 0
3, 34260, Note_on_c, 0, 59, 0
3, 34268, Note_on_c, 0, 76, 0
3, 34283, Note_on_c, 0, 71, 51
3, 34283, Note_on_c, 0, 64, 60
3, 34284, Note_on_c, 0, 59, 55
3, 34286, Note_on_c, 0, 68, 37
3, 34293, Note_on_c, 0, 64, 0
3, 34300, Note_on_c, 0, 68, 0
3, 34303, Note_on_c, 0, 71, 0
3, 34352, Note_on_c, 0, 80, 68
3, 34356, Note_on_c, 0, 64, 49
3, 34356, Note_on_c, 0, 88, 72
3, 34373, Note_on_c, 0, 59, 0
3, 34421, Note_on_c, 0, 88, 0
3, 34425, Note_on_c, 0, 76, 52
3, 34428, Note_on_c, 0, 64, 0
3, 34428, Note_on_c, 0, 59, 56
3, 34429, Note_on_c, 0, 83, 38
3, 34445, Note_on_c, 0, 54, 0
3, 34453, Note_on_c, 0, 83, 0
3, 34454, Note_on_c, 0, 76, 0
3, 34454, Note_on_c, 0, 80, 0
3, 34490, Note_on_c, 0, 89, 72
3, 34492, Note_on_c, 0, 84, 72
3, 34494, Note_on_c, 0, 54, 33
3, 34496, Note_on_c, 0, 59, 0
3, 34507, Note_on_c, 0, 54, 0
3, 34512, Note_on_c, 0, 84, 0
3, 34515, Note_on_c, 0, 89, 0
3, 34563, Note_on_c, 0, 78, 36
3, 34563, Note_on_c, 0, 92, 61
3, 34564, Note_on_c, 0, 80, 31
3, 34566, Control_c, 0, 64, 0
3, 34572, Note_on_c, 0, 92, 0
3, 34578, Note_on_c, 0, 39, 30
3, 34584, Control_c, 0, 64, 127
3, 34589, Note_on_c, 0, 78, 0
3, 34609, Note_on_c, 0, 39, 0
3, 34610, Note_on_c, 0, 80, 0
3, 34628, Note_on_c, 0, 44, 55
3, 34629, Note_on_c, 0, 94, 62
3, 34636, Note_on_c, 0, 82, 18
3, 34674, Note_on_c, 0, 44, 0
3, 34683, Note_on_c, 0, 94, 0
3, 34688, Note_on_c, 0, 53, 54
3, 34690, Note_on_c, 0, 82, 0
3, 34729, Note_on_c, 0, 53, 0
3, 34739, Note_on_c, 0, 56, 48
3, 34792, Note_on_c, 0, 68, 53
3, 34795, Note_on_c, 0, 65, 57
3, 34796, Note_on_c, 0, 60, 43
3, 34839, Note_on_c, 0, 65, 0
3, 34852, Note_on_c, 0, 75, 74
3, 34854, Note_on_c, 0, 63, 53
3, 34857, Note_on_c, 0, 65, 68
3, 34859, Note_on_c, 0, 60, 0
3, 34892, Note_on_c, 0, 68, 0
3, 34896, Note_on_c, 0, 65, 0
3, 34902, Note_on_c, 0, 75, 0
3, 34911, Note_on_c, 0, 60, 42
3, 34911, Note_on_c, 0, 72, 59
3, 34912, Note_on_c, 0, 65, 32
3, 34913, Note_on_c, 0, 68, 34
3, 34922, Note_on_c, 0, 56, 0
3, 34934, Note_on_c, 0, 63, 0
3, 34939, Note_on_c, 0, 65, 0
3, 34957, Note_on_c, 0, 72, 0
3, 34965, Note_on_c, 0, 65, 44
3, 34967, Note_on_c, 0, 56, 34
3, 34976, Note_on_c, 0, 68, 0
3, 34979, Note_on_c, 0, 65, 0
3, 34981, Note_on_c, 0, 60, 0
3, 35017, Note_on_c, 0, 56, 0
3, 35020, Note_on_c, 0, 54, 47
3, 35020, Note_on_c, 0, 68, 30
3, 35020, Note_on_c, 0, 71, 42
3, 35021, Note_on_c, 0, 64, 47
3, 35022, Note_on_c, 0, 59, 33
3, 35029, Control_c, 0, 64, 0
3, 35059, Control_c, 0, 64, 127
3, 35095, Note_on_c, 0, 76, 31
3, 35140, Note_on_c, 0, 64, 0
3, 35155, Note_on_c, 0, 59, 0
3, 35161, Note_on_c, 0, 71, 0
3, 35164, Note_on_c, 0, 68, 0
3, 35227, Note_on_c, 0, 76, 0
3, 35243, Note_on_c, 0, 59, 33
3, 35246, Note_on_c, 0, 71, 40
3, 35249, Note_on_c, 0, 64, 36
3, 35249, Note_on_c, 0, 68, 30
3, 35311, Note_on_c, 0, 71, 0
3, 35317, Note_on_c, 0, 76, 71
3, 35362, Note_on_c, 0, 64, 0
3, 35365, Note_on_c, 0, 59, 0
3, 35366, Note_on_c, 0, 76, 0
3, 35373, Note_on_c, 0, 71, 57
3, 35398, Note_on_c, 0, 54, 0
3, 35406, Note_on_c, 0, 71, 0
3, 35414, Note_on_c, 0, 68, 0
3, 35425, Note_on_c, 0, 71, 55
3, 35464, Note_on_c, 0, 71, 0
3, 35476, Note_on_c, 0, 70, 46
3, 35477, Note_on_c, 0, 65, 45
3, 35482, Note_on_c, 0, 56, 27
3, 35484, Note_on_c, 0, 63, 19
3, 35490, Note_on_c, 0, 53, 18
3, 35491, Note_on_c, 0, 60, 19
3, 35492, Control_c, 0, 64, 0
3, 35529, Control_c, 0, 64, 127
3, 35591, Note_on_c, 0, 63, 0
3, 35635, Note_on_c, 0, 56, 0
3, 35652, Note_on_c, 0, 60, 0
3, 35672, Note_on_c, 0, 70, 0
3, 35708, Note_on_c, 0, 63, 20
3, 35712, Note_on_c, 0, 60, 25
3, 35715, Note_on_c, 0, 56, 20
3, 35716, Note_on_c, 0, 65, 0
3, 35754, Note_on_c, 0, 68, 57
3, 35796, Note_on_c, 0, 68, 0
3, 35796, Note_on_c, 0, 73, 44
3, 35819, Note_on_c, 0, 73, 0
3, 35838, Note_on_c, 0, 77, 59
3, 35843, Note_on_c, 0, 76, 44
3, 35852, Note_on_c, 0, 60, 0
3, 35857, Note_on_c, 0, 77, 0
3, 35861, Note_on_c, 0, 53, 0
3, 35861, Note_on_c, 0, 76, 0
3, 35873, Note_on_c, 0, 63, 0
3, 35891, Note_on_c, 0, 56, 0
3, 35892, Note_on_c, 0, 79, 37
3, 35912, Note_on_c, 0, 79, 0
3, 35938, Note_on_c, 0, 80, 59
3, 35940, Note_on_c, 0, 71, 57
3, 35940, Note_on_c, 0, 64, 53
3, 35941, Note_on_c, 0, 59, 46
3, 35944, Note_on_c, 0, 54, 35
3, 35954, Control_c, 0, 64, 0
3, 35996, Control_c, 0, 64, 127
3, 36076, Note_on_c, 0, 64, 0
3, 36079, Note_on_c, 0, 59, 0
3, 36082, Note_on_c, 0, 71, 0
3, 36102, Note_on_c, 0, 54, 0
3, 36104, Note_on_c, 0, 80, 0
3, 36171, Note_on_c, 0, 73, 30
3, 36172, Note_on_c, 0, 81, 44
3, 36174, Note_on_c, 0, 58, 36
3, 36174, Note_on_c, 0, 69, 42
3, 36176, Note_on_c, 0, 63, 21
3, 36178, Note_on_c, 0, 52, 43
3, 36182, Control_c, 0, 64, 0
3, 36215, Control_c, 0, 64, 127
3, 36224, Note_on_c, 0, 63, 0
3, 36228, Note_on_c, 0, 52, 0
3, 36230, Note_on_c, 0, 58, 0
3, 36284, Note_on_c, 0, 81, 0
3, 36297, Note_on_c, 0, 69, 0
3, 36303, Note_on_c, 0, 73, 0
3, 36407, Note_on_c, 0, 41, 35
3, 36408, Note_on_c, 0, 72, 37
3, 36409, Note_on_c, 0, 48, 24
3, 36409, Control_c, 0, 64, 0
3, 36410, Note_on_c, 0, 67, 31
3, 36410, Note_on_c, 0, 62, 28
3, 36414, Note_on_c, 0, 57, 35
3, 36429, Control_c, 0, 64, 127
3, 36435, Note_on_c, 0, 62, 0
3, 36444, Note_on_c, 0, 67, 0
3, 36451, Note_on_c, 0, 72, 0
3, 36452, Note_on_c, 0, 41, 0
3, 36457, Note_on_c, 0, 48, 0
3, 36466, Note_on_c, 0, 57, 0
3, 36531, Note_on_c, 0, 75, 88
3, 36532, Note_on_c, 0, 85, 92
3, 36532, Note_on_c, 0, 80, 83
3, 36534, Note_on_c, 0, 70, 83
3, 36580, Note_on_c, 0, 85, 0
3, 36582, Note_on_c, 0, 75, 0
3, 36583, Note_on_c, 0, 80, 0
3, 36586, Note_on_c, 0, 70, 0
3, 36595, Note_on_c, 0, 84, 64
3, 36597, Note_on_c, 0, 79, 54
3, 36599, Note_on_c, 0, 74, 58
3, 36602, Control_c, 0, 64, 0
3, 36602, Note_on_c, 0, 69, 60
3, 36618, Control_c, 0, 64, 127
3, 36625, Note_on_c, 0, 79, 0
3, 36626, Note_on_c, 0, 84, 0
3, 36644, Note_on_c, 0, 74, 0
3, 36662, Note_on_c, 0, 81, 54
3, 36663, Note_on_c, 0, 69, 0
3, 36667, Note_on_c, 0, 65, 49
3, 36669, Note_on_c, 0, 76, 35
3, 36669, Note_on_c, 0, 72, 36
3, 36681, Note_on_c, 0, 76, 0
3, 36683, Note_on_c, 0, 81, 0
3, 36688, Note_on_c, 0, 72, 0
3, 36737, Note_on_c, 0, 65, 0
3, 36739, Note_on_c, 0, 77, 48
3, 36740, Note_on_c, 0, 62, 38
3, 36741, Note_on_c, 0, 72, 41
3, 36747, Note_on_c, 0, 67, 32
3, 36749, Note_on_c, 0, 69, 24
3, 36750, Note_on_c, 0, 72, 0
3, 36751, Note_on_c, 0, 62, 0
3, 36753, Note_on_c, 0, 67, 0
3, 36755, Note_on_c, 0, 77, 0
3, 36756, Note_on_c, 0, 69, 0
3, 36776, Control_c, 0, 64, 0
3, 36824, Control_c, 0, 64, 127
3, 36912, Note_on_c, 0, 69, 34
3, 36915, Note_on_c, 0, 64, 42
3, 36917, Note_on_c, 0, 55, 46
3, 36918, Control_c, 0, 64, 0
3, 36920, Note_on_c, 0, 45, 25
3, 36920, Note_on_c, 0, 61, 21
3, 36924, Note_on_c, 0, 58, 9
3, 36951, Control_c, 0, 64, 127
3, 37030, Note_on_c, 0, 55, 0
3, 37056, Note_on_c, 0, 58, 0
3, 37069, Note_on_c, 0, 69, 0
3, 37079, Note_on_c, 0, 64, 0
3, 37083, Note_on_c, 0, 61, 0
3, 37138, Note_on_c, 0, 64, 36
3, 37139, Note_on_c, 0, 58, 25
3, 37141, Note_on_c, 0, 67, 25
3, 37144, Note_on_c, 0, 61, 30
3, 37146, Note_on_c, 0, 55, 33
3, 37151, Control_c, 0, 64, 0
3, 37165, Control_c, 0, 64, 127
3, 37194, Note_on_c, 0, 45, 0
3, 37239, Note_on_c, 0, 67, 0
3, 37243, Note_on_c, 0, 55, 0
3, 37263, Note_on_c, 0, 64, 0
3, 37273, Note_on_c, 0, 61, 0
3, 37274, Note_on_c, 0, 58, 0
3, 37289, Note_on_c, 0, 45, 26
3, 37301, Note_on_c, 0, 45, 0
3, 37372, Control_c, 0, 64, 0
3, 37373, Note_on_c, 0, 63, 29
3, 37376, Note_on_c, 0, 32, 35
3, 37377, Note_on_c, 0, 55, 27
3, 37378, Note_on_c, 0, 58, 26
3, 37379, Note_on_c, 0, 60, 32
3, 37385, Note_on_c, 0, 44, 21
3, 37398, Control_c, 0, 64, 127
3, 37411, Note_on_c, 0, 32, 0
3, 37422, Note_on_c, 0, 44, 0
3, 37423, Note_on_c, 0, 55, 0
3, 37427, Note_on_c, 0, 60, 0
3, 37445, Note_on_c, 0, 63, 0
3, 37450, Note_on_c, 0, 58, 0
3, 37532, Note_on_c, 0, 75, 48
3, 37541, Note_on_c, 0, 75, 0
3, 37547, Note_on_c, 0, 77, 55
3, 37565, Note_on_c, 0, 75, 39
3, 37573, Note_on_c, 0, 75, 0
3, 37589, Note_on_c, 0, 75, 51
3, 37599, Note_on_c, 0, 77, 0
3, 37604, Control_c, 0, 64, 0
3, 37613, Note_on_c, 0, 75, 0
3, 37614, Note_on_c, 0, 74, 36
3, 37618, Note_on_c, 0, 63, 23
3, 37623, Note_on_c, 0, 60, 29
3, 37624, Note_on_c, 0, 58, 35
3, 37647, Note_on_c, 0, 74, 0
3, 37680, Note_on_c, 0, 75, 85
3, 37706, Note_on_c, 0, 75, 0
3, 37734, Note_on_c, 0, 60, 0
3, 37750, Note_on_c, 0, 77, 95
3, 37753, Control_c, 0, 64, 127
3, 37768, Note_on_c, 0, 63, 0
3, 37783, Note_on_c, 0, 77, 0
3, 37799, Note_on_c, 0, 58, 0
3, 37825, Note_on_c, 0, 61, 57
3, 37825, Note_on_c, 0, 78, 83
3, 37826, Note_on_c, 0, 66, 67
3, 37828, Note_on_c, 0, 55, 68
3, 37835, Control_c, 0, 64, 0
3, 37887, Control_c, 0, 64, 127
3, 37893, Note_on_c, 0, 78, 0
3, 37907, Note_on_c, 0, 78, 55
3, 37931, Note_on_c, 0, 78, 0
3, 37982, Note_on_c, 0, 90, 49
3, 37990, Note_on_c, 0, 55, 0
3, 37997, Note_on_c, 0, 66, 0
3, 38024, Note_on_c, 0, 61, 0
3, 38030, Note_on_c, 0, 90, 0
3, 38057, Note_on_c, 0, 66, 45
3, 38059, Note_on_c, 0, 75, 53
3, 38060, Note_on_c, 0, 90, 43
3, 38061, Note_on_c, 0, 61, 39
3, 38064, Control_c, 0, 64, 0
3, 38103, Note_on_c, 0, 75, 0
3, 38106, Note_on_c, 0, 90, 0
3, 38120, Control_c, 0, 64, 127
3, 38140, Note_on_c, 0, 75, 47
3, 38140, Note_on_c, 0, 90, 42
3, 38156, Note_on_c, 0, 66, 0
3, 38165, Note_on_c, 0, 90, 0
3, 38169, Note_on_c, 0, 75, 0
3, 38186, Note_on_c, 0, 61, 0
3, 38198, Note_on_c, 0, 61, 14
3, 38212, Note_on_c, 0, 61, 0
3, 38213, Note_on_c, 0, 87, 52
3, 38244, Note_on_c, 0, 87, 0
3, 38276, Control_c, 0, 64, 0
3, 38277, Note_on_c, 0, 44, 51
3, 38284, Note_on_c, 0, 51, 38
3, 38298, Control_c, 0, 64, 127
3, 38301, Note_on_c, 0, 51, 0
3, 38301, Note_on_c, 0, 44, 0
3, 38423, Note_on_c, 0, 63, 62
3, 38425, Note_on_c, 0, 60, 67
3, 38426, Note_on_c, 0, 53, 63
3, 38427, Note_on_c, 0, 58, 60
3, 38507, Note_on_c, 0, 75, 72
3, 38509, Note_on_c, 0, 70, 76
3, 38511, Note_on_c, 0, 72, 74
3, 38512, Note_on_c, 0, 65, 74
3, 38559, Note_on_c, 0, 65, 0
3, 38567, Note_on_c, 0, 75, 0
3, 38567, Note_on_c, 0, 63, 0
3, 38568, Note_on_c, 0, 60, 0
3, 38571, Note_on_c, 0, 70, 0
3, 38576, Note_on_c, 0, 72, 0
3, 38582, Note_on_c, 0, 58, 0
3, 38585, Note_on_c, 0, 75, 51
3, 38587, Note_on_c, 0, 70, 32
3, 38595, Note_on_c, 0, 65, 54
3, 38604, Note_on_c, 0, 65, 0
3, 38610, Note_on_c, 0, 53, 0
3, 38615, Note_on_c, 0, 70, 0
3, 38616, Note_on_c, 0, 75, 0
3, 38663, Note_on_c, 0, 65, 52
3, 38664, Note_on_c, 0, 77, 29
3, 38683, Note_on_c, 0, 65, 0
3, 38685, Note_on_c, 0, 77, 0
3, 38743, Note_on_c, 0, 78, 51
3, 38744, Note_on_c, 0, 62, 32
3, 38744, Note_on_c, 0, 66, 33
3, 38744, Control_c, 0, 64, 0
3, 38746, Note_on_c, 0, 71, 38
3, 38747, Note_on_c, 0, 59, 38
3, 38754, Note_on_c, 0, 55, 20
3, 38772, Control_c, 0, 64, 127
3, 38779, Note_on_c, 0, 71, 0
3, 38781, Note_on_c, 0, 78, 0
3, 38794, Note_on_c, 0, 67, 47
3, 38800, Control_c, 0, 64, 0
3, 38805, Note_on_c, 0, 67, 0
3, 38817, Note_on_c, 0, 69, 54
3, 38832, Note_on_c, 0, 69, 0
3, 38834, Note_on_c, 0, 70, 57
3, 38842, Note_on_c, 0, 70, 0
3, 38855, Note_on_c, 0, 72, 58
3, 38859, Note_on_c, 0, 62, 0
3, 38862, Note_on_c, 0, 55, 0
3, 38864, Note_on_c, 0, 72, 0
3, 38872, Note_on_c, 0, 66, 0
3, 38873, Note_on_c, 0, 73, 25
3, 38877, Note_on_c, 0, 59, 0
3, 38884, Note_on_c, 0, 73, 0
3, 38889, Note_on_c, 0, 75, 39
3, 38895, Note_on_c, 0, 75, 0
3, 38904, Note_on_c, 0, 76, 46
3, 38916, Note_on_c, 0, 76, 0
3, 38942, Note_on_c, 0, 79, 45
3, 38963, Note_on_c, 0, 79, 0
3, 38965, Note_on_c, 0, 81, 45
3, 38981, Note_on_c, 0, 81, 0
3, 38986, Note_on_c, 0, 82, 43
3, 38993, Note_on_c, 0, 82, 0
3, 39026, Note_on_c, 0, 85, 52
3, 39043, Note_on_c, 0, 85, 0
3, 39047, Note_on_c, 0, 87, 37
3, 39066, Note_on_c, 0, 87, 0
3, 39066, Note_on_c, 0, 88, 65
3, 39082, Note_on_c, 0, 88, 0
3, 39087, Note_on_c, 0, 91, 71
3, 39089, Note_on_c, 0, 61, 35
3, 39090, Note_on_c, 0, 66, 28
3, 39094, Note_on_c, 0, 55, 35
3, 39106, Note_on_c, 0, 91, 0
3, 39126, Note_on_c, 0, 90, 59
3, 39127, Control_c, 0, 64, 127
3, 39143, Note_on_c, 0, 55, 0
3, 39145, Note_on_c, 0, 90, 0
3, 39162, Note_on_c, 0, 66, 0
3, 39162, Note_on_c, 0, 89, 60
3, 39187, Note_on_c, 0, 89, 0
3, 39192, Note_on_c, 0, 88, 62
3, 39196, Note_on_c, 0, 61, 0
3, 39212, Note_on_c, 0, 88, 0
3, 39225, Note_on_c, 0, 86, 57
3, 39249, Note_on_c, 0, 86, 0
3, 39253, Note_on_c, 0, 61, 15
3, 39256, Note_on_c, 0, 85, 62
3, 39256, Note_on_c, 0, 64, 33
3, 39259, Note_on_c, 0, 59, 26
3, 39260, Note_on_c, 0, 54, 27
3, 39263, Control_c, 0, 64, 0
3, 39293, Note_on_c, 0, 85, 0
3, 39299, Control_c, 0, 64, 127
3, 39310, Note_on_c, 0, 88, 68
3, 39354, Note_on_c, 0, 81, 31
3, 39374, Note_on_c, 0, 81, 0
3, 39378, Note_on_c, 0, 88, 0
3, 39380, Note_on_c, 0, 64, 0
3, 39388, Note_on_c, 0, 59, 0
3, 39401, Note_on_c, 0, 81, 41
3, 39419, Note_on_c, 0, 61, 0
3, 39429, Note_on_c, 0, 81, 0
3, 39450, Note_on_c, 0, 81, 48
3, 39478, Note_on_c, 0, 81, 0
3, 39499, Note_on_c, 0, 64, 36
3, 39499, Note_on_c, 0, 61, 29
3, 39502, Note_on_c, 0, 81, 44
3, 39503, Note_on_c, 0, 59, 32
3, 39560, Note_on_c, 0, 81, 0
3, 39570, Note_on_c, 0, 83, 51
3, 39598, Note_on_c, 0, 83, 0
3, 39615, Note_on_c, 0, 54, 0
3, 39629, Note_on_c, 0, 64, 0
3, 39638, Note_on_c, 0, 83, 67
3, 39638, Note_on_c, 0, 54, 55
3, 39660, Note_on_c, 0, 83, 0
3, 39662, Note_on_c, 0, 59, 0
3, 39684, Note_on_c, 0, 54, 0
3, 39693, Note_on_c, 0, 61, 0
3, 39714, Note_on_c, 0, 53, 35
3, 39715, Note_on_c, 0, 84, 77
3, 39717, Note_on_c, 0, 57, 51
3, 39718, Note_on_c, 0, 60, 39
3, 39719, Note_on_c, 0, 81, 73
3, 39723, Note_on_c, 0, 77, 69
3, 39727, Note_on_c, 0, 64, 51
3, 39728, Control_c, 0, 64, 0
3, 39730, Note_on_c, 0, 72, 56
3, 39764, Control_c, 0, 64, 127
3, 39767, Note_on_c, 0, 84, 0
3, 39787, Note_on_c, 0, 84, 64
3, 39821, Note_on_c, 0, 84, 0
3, 39838, Note_on_c, 0, 72, 0
3, 39842, Note_on_c, 0, 81, 0
3, 39848, Note_on_c, 0, 84, 67
3, 39852, Note_on_c, 0, 72, 27
3, 39875, Note_on_c, 0, 72, 0
3, 39877, Note_on_c, 0, 64, 0
3, 39879, Note_on_c, 0, 84, 0
3, 39881, Note_on_c, 0, 53, 0
3, 39882, Note_on_c, 0, 60, 0
3, 39889, Note_on_c, 0, 57, 0
3, 39891, Note_on_c, 0, 77, 0
3, 39899, Note_on_c, 0, 84, 48
3, 39932, Note_on_c, 0, 84, 0
3, 39959, Note_on_c, 0, 80, 49
3, 39960, Note_on_c, 0, 76, 51
3, 39961, Note_on_c, 0, 84, 57
3, 39963, Note_on_c, 0, 64, 36
3, 39965, Control_c, 0, 64, 0
3, 39965, Note_on_c, 0, 72, 40
3, 39966, Note_on_c, 0, 59, 34
3, 39969, Note_on_c, 0, 53, 31
3, 39993, Control_c, 0, 64, 127
3, 40019, Note_on_c, 0, 53, 0
3, 40019, Note_on_c, 0, 64, 0
3, 40025, Note_on_c, 0, 84, 0
3, 40027, Note_on_c, 0, 72, 0
3, 40040, Note_on_c, 0, 76, 0
3, 40040, Note_on_c, 0, 59, 0
3, 40048, Note_on_c, 0, 80, 0
3, 40082, Note_on_c, 0, 83, 59
3, 40082, Note_on_c, 0, 76, 50
3, 40084, Note_on_c, 0, 59, 48
3, 40086, Note_on_c, 0, 63, 35
3, 40086, Note_on_c, 0, 53, 39
3, 40086, Note_on_c, 0, 71, 40
3, 40093, Note_on_c, 0, 56, 25
3, 40119, Note_on_c, 0, 59, 0
3, 40127, Note_on_c, 0, 83, 0
3, 40128, Note_on_c, 0, 76, 0
3, 40133, Note_on_c, 0, 63, 0
3, 40136, Note_on_c, 0, 53, 0
3, 40141, Note_on_c, 0, 56, 0
3, 40142, Note_on_c, 0, 71, 0
3, 40195, Note_on_c, 0, 81, 55
3, 40199, Note_on_c, 0, 74, 53
3, 40200, Note_on_c, 0, 69, 45
3, 40202, Note_on_c, 0, 62, 36
3, 40203, Note_on_c, 0, 52, 37
3, 40204, Note_on_c, 0, 57, 37
3, 40206, Control_c, 0, 64, 0
3, 40244, Control_c, 0, 64, 127
3, 40306, Note_on_c, 0, 81, 0
3, 40317, Note_on_c, 0, 69, 0
3, 40324, Note_on_c, 0, 81, 44
3, 40329, Note_on_c, 0, 62, 0
3, 40350, Note_on_c, 0, 57, 0
3, 40367, Note_on_c, 0, 74, 0
3, 40370, Note_on_c, 0, 81, 0
3, 40426, Note_on_c, 0, 62, 36
3, 40427, Note_on_c, 0, 81, 41
3, 40429, Note_on_c, 0, 74, 43
3, 40433, Note_on_c, 0, 69, 26
3, 40436, Note_on_c, 0, 57, 25
3, 40457, Note_on_c, 0, 81, 0
3, 40472, Note_on_c, 0, 74, 0
3, 40486, Note_on_c, 0, 69, 0
3, 40547, Note_on_c, 0, 62, 0
3, 40585, Note_on_c, 0, 57, 0
3, 40598, Note_on_c, 0, 52, 0
3, 40604, Note_on_c, 0, 71, 47
3, 40625, Note_on_c, 0, 71, 0
3, 40675, Note_on_c, 0, 72, 49
3, 40678, Note_on_c, 0, 44, 34
3, 40680, Note_on_c, 0, 54, 31
3, 40683, Note_on_c, 0, 68, 23
3, 40684, Note_on_c, 0, 65, 24
3, 40685, Note_on_c, 0, 60, 14
3, 40687, Control_c, 0, 64, 0
3, 40729, Control_c, 0, 64, 127
3, 40737, Note_on_c, 0, 60, 0
3, 40738, Note_on_c, 0, 72, 0
3, 40739, Note_on_c, 0, 65, 0
3, 40748, Note_on_c, 0, 68, 0
3, 40760, Note_on_c, 0, 60, 37
3, 40762, Note_on_c, 0, 72, 28
3, 40763, Note_on_c, 0, 65, 54
3, 40766, Note_on_c, 0, 68, 23
3, 40812, Note_on_c, 0, 65, 0
3, 40827, Note_on_c, 0, 54, 0
3, 40835, Note_on_c, 0, 60, 0
3, 40883, Note_on_c, 0, 68, 0
3, 40919, Note_on_c, 0, 60, 35
3, 40922, Note_on_c, 0, 65, 34
3, 40925, Note_on_c, 0, 54, 19
3, 41008, Note_on_c, 0, 44, 0
3, 41051, Note_on_c, 0, 54, 0
3, 41066, Note_on_c, 0, 60, 0
3, 41103, Note_on_c, 0, 65, 0
3, 41156, Control_c, 0, 64, 0
3, 41163, Note_on_c, 0, 37, 34
3, 41169, Note_on_c, 0, 44, 23
3, 41177, Note_on_c, 0, 37, 0
3, 41177, Control_c, 0, 64, 127
3, 41181, Note_on_c, 0, 44, 0
3, 41216, Note_on_c, 0, 72, 0
3, 41263, Note_on_c, 0, 63, 34
3, 41266, Note_on_c, 0, 60, 29
3, 41272, Note_on_c, 0, 53, 22
3, 41295, Note_on_c, 0, 53, 0
3, 41300, Note_on_c, 0, 60, 0
3, 41302, Note_on_c, 0, 63, 0
3, 41332, Note_on_c, 0, 63, 30
3, 41335, Note_on_c, 0, 60, 30
3, 41345, Note_on_c, 0, 53, 18
3, 41360, Note_on_c, 0, 53, 0
3, 41367, Note_on_c, 0, 63, 0
3, 41373, Note_on_c, 0, 60, 0
3, 41404, Note_on_c, 0, 63, 31
3, 41407, Note_on_c, 0, 53, 39
3, 41411, Note_on_c, 0, 60, 26
3, 41412, Note_on_c, 0, 58, 28
3, 41440, Note_on_c, 0, 63, 0
3, 41443, Note_on_c, 0, 58, 0
3, 41443, Note_on_c, 0, 60, 0
3, 41445, Note_on_c, 0, 53, 0
3, 41487, Note_on_c, 0, 63, 35
3, 41488, Note_on_c, 0, 53, 44
3, 41491, Note_on_c, 0, 60, 44
3, 41494, Note_on_c, 0, 58, 30
3, 41523, Note_on_c, 0, 63, 0
3, 41528, Note_on_c, 0, 58, 0
3, 41530, Note_on_c, 0, 60, 0
3, 41531, Note_on_c, 0, 53, 0
3, 41560, Note_on_c, 0, 63, 44
3, 41561, Note_on_c, 0, 70, 84
3, 41565, Note_on_c, 0, 58, 48
3, 41565, Note_on_c, 0, 60, 46
3, 41565, Note_on_c, 0, 53, 43
3, 41592, Note_on_c, 0, 53, 0
3, 41597, Note_on_c, 0, 60, 0
3, 41617, Note_on_c, 0, 63, 0
3, 41634, Note_on_c, 0, 64, 72
3, 41636, Note_on_c, 0, 70, 0
3, 41636, Note_on_c, 0, 71, 76
3, 41636, Note_on_c, 0, 54, 55
3, 41638, Note_on_c, 0, 59, 60
3, 41642, Control_c, 0, 64, 0
3, 41652, Note_on_c, 0, 58, 0
3, 41668, Control_c, 0, 64, 127
3, 41701, Note_on_c, 0, 71, 0
3, 41706, Note_on_c, 0, 76, 71
3, 41729, Note_on_c, 0, 64, 0
3, 41742, Note_on_c, 0, 59, 0
3, 41748, Note_on_c, 0, 54, 0
3, 41761, Note_on_c, 0, 76, 0
3, 41771, Note_on_c, 0, 76, 19
3, 41775, Note_on_c, 0, 68, 37
3, 41776, Note_on_c, 0, 64, 50
3, 41776, Note_on_c, 0, 71, 45
3, 41847, Note_on_c, 0, 38, 49
3, 41848, Note_on_c, 0, 45, 51
3, 41855, Note_on_c, 0, 38, 0
3, 41865, Note_on_c, 0, 45, 0
3, 41876, Note_on_c, 0, 64, 0
3, 41911, Note_on_c, 0, 68, 0
3, 41928, Note_on_c, 0, 59, 71
3, 41929, Note_on_c, 0, 54, 70
3, 41929, Note_on_c, 0, 64, 74
3, 41983, Note_on_c, 0, 54, 0
3, 41984, Note_on_c, 0, 64, 0
3, 41988, Note_on_c, 0, 59, 0
3, 42001, Note_on_c, 0, 64, 76
3, 42001, Note_on_c, 0, 54, 73
3, 42005, Note_on_c, 0, 59, 71
3, 42008, Note_on_c, 0, 71, 0
3, 42029, Note_on_c, 0, 76, 0
3, 42030, Note_on_c, 0, 64, 0
3, 42033, Note_on_c, 0, 59, 0
3, 42043, Note_on_c, 0, 54, 0
3, 42075, Note_on_c, 0, 60, 68
3, 42078, Note_on_c, 0, 63, 59
3, 42078, Note_on_c, 0, 53, 62
3, 42079, Note_on_c, 0, 68, 62
3, 42079, Note_on_c, 0, 72, 71
3, 42079, Note_on_c, 0, 56, 47
3, 42081, Note_on_c, 0, 65, 65
3, 42085, Control_c, 0, 64, 0
3, 42107, Control_c, 0, 64, 127
3, 42124, Note_on_c, 0, 65, 0
3, 42129, Note_on_c, 0, 68, 0
3, 42131, Note_on_c, 0, 72, 0
3, 42163, Note_on_c, 0, 72, 82
3, 42164, Note_on_c, 0, 84, 78
3, 42200, Note_on_c, 0, 63, 0
3, 42209, Note_on_c, 0, 72, 0
3, 42214, Note_on_c, 0, 84, 0
3, 42228, Note_on_c, 0, 60, 0
3, 42242, Note_on_c, 0, 56, 0
3, 42252, Note_on_c, 0, 89, 56
3, 42256, Note_on_c, 0, 77, 66
3, 42262, Note_on_c, 0, 84, 38
3, 42271, Note_on_c, 0, 84, 0
3, 42307, Note_on_c, 0, 89, 0
3, 42308, Note_on_c, 0, 77, 0
3, 42322, Note_on_c, 0, 63, 27
3, 42325, Note_on_c, 0, 56, 31
3, 42325, Note_on_c, 0, 60, 39
3, 42383, Note_on_c, 0, 60, 0
3, 42394, Note_on_c, 0, 56, 0
3, 42403, Note_on_c, 0, 92, 56
3, 42403, Note_on_c, 0, 80, 46
3, 42406, Note_on_c, 0, 63, 0
3, 42420, Note_on_c, 0, 80, 0
3, 42425, Note_on_c, 0, 92, 0
3, 42442, Note_on_c, 0, 53, 0
3, 42472, Note_on_c, 0, 63, 42
3, 42474, Note_on_c, 0, 95, 65
3, 42479, Note_on_c, 0, 83, 35
3, 42482, Note_on_c, 0, 60, 27
3, 42482, Note_on_c, 0, 56, 29
3, 42487, Note_on_c, 0, 83, 0
3, 42492, Note_on_c, 0, 60, 0
3, 42499, Note_on_c, 0, 95, 0
3, 42521, Note_on_c, 0, 63, 0
3, 42540, Note_on_c, 0, 56, 0
3, 42553, Note_on_c, 0, 95, 57
3, 42553, Note_on_c, 0, 59, 51
3, 42554, Note_on_c, 0, 64, 52
3, 42554, Note_on_c, 0, 100, 47
3, 42555, Note_on_c, 0, 88, 49
3, 42559, Note_on_c, 0, 54, 23
3, 42562, Control_c, 0, 64, 0
3, 42584, Control_c, 0, 64, 127
3, 42636, Note_on_c, 0, 100, 0
3, 42642, Note_on_c, 0, 95, 0
3, 42652, Note_on_c, 0, 100, 51
3, 42684, Note_on_c, 0, 59, 0
3, 42685, Note_on_c, 0, 64, 0
3, 42727, Note_on_c, 0, 88, 0
3, 42729, Note_on_c, 0, 100, 0
3, 42786, Note_on_c, 0, 64, 32
3, 42786, Note_on_c, 0, 95, 39
3, 42788, Note_on_c, 0, 59, 35
3, 42789, Note_on_c, 0, 92, 30
3, 42789, Note_on_c, 0, 88, 46
3, 42822, Note_on_c, 0, 92, 0
3, 42823, Note_on_c, 0, 95, 0
3, 42837, Note_on_c, 0, 88, 0
3, 42869, Note_on_c, 0, 54, 0
3, 42883, Note_on_c, 0, 54, 50
3, 42946, Note_on_c, 0, 54, 0
3, 42956, Note_on_c, 0, 64, 0
3, 42958, Note_on_c, 0, 54, 43
3, 42969, Note_on_c, 0, 59, 0
3, 42995, Note_on_c, 0, 54, 0
3, 43023, Note_on_c, 0, 70, 39
3, 43027, Note_on_c, 0, 53, 32
3, 43027, Note_on_c, 0, 60, 38
3, 43027, Note_on_c, 0, 65, 54
3, 43028, Note_on_c, 0, 56, 34
3, 43036, Control_c, 0, 64, 0
3, 43066, Control_c, 0, 64, 127
3, 43086, Note_on_c, 0, 56, 0
3, 43086, Note_on_c, 0, 53, 0
3, 43155, Note_on_c, 0, 60, 0
3, 43162, Note_on_c, 0, 65, 0
3, 43169, Note_on_c, 0, 37, 71
3, 43171, Note_on_c, 0, 44, 64
3, 43179, Note_on_c, 0, 70, 0
3, 43187, Note_on_c, 0, 37, 0
3, 43192, Note_on_c, 0, 44, 0
3, 43261, Note_on_c, 0, 53, 56
3, 43263, Note_on_c, 0, 68, 91
3, 43263, Note_on_c, 0, 63, 68
3, 43264, Note_on_c, 0, 58, 71
3, 43342, Note_on_c, 0, 73, 53
3, 43397, Note_on_c, 0, 68, 0
3, 43408, Note_on_c, 0, 73, 0
3, 43412, Note_on_c, 0, 53, 0
3, 43414, Note_on_c, 0, 77, 75
3, 43415, Note_on_c, 0, 68, 45
3, 43416, Note_on_c, 0, 73, 27
3, 43431, Note_on_c, 0, 58, 0
3, 43434, Note_on_c, 0, 68, 0
3, 43434, Note_on_c, 0, 63, 0
3, 43451, Note_on_c, 0, 77, 0
3, 43455, Note_on_c, 0, 78, 20
3, 43466, Note_on_c, 0, 73, 0
3, 43474, Note_on_c, 0, 78, 0
3, 43738, Note_on_c, 0, 78, 69
3, 43740, Note_on_c, 0, 70, 68
3, 43740, Note_on_c, 0, 73, 47
3, 43744, Note_on_c, 0, 66, 48
3, 43760, Note_on_c, 0, 66, 0
3, 43790, Note_on_c, 0, 73, 0
3, 43793, Note_on_c, 0, 70, 0
3, 43822, Note_on_c, 0, 78, 0
3, 43850, Note_on_c, 0, 66, 35
3, 43851, Note_on_c, 0, 80, 57
3, 43852, Note_on_c, 0, 63, 33
3, 43853, Note_on_c, 0, 73, 30
3, 43853, Note_on_c, 0, 75, 46
3, 43854, Note_on_c, 0, 57, 43
3, 43854, Note_on_c, 0, 69, 50
3, 43862, Control_c, 0, 64, 0
3, 43864, Control_c, 0, 64, 127
3, 43888, Note_on_c, 0, 57, 0
3, 43894, Note_on_c, 0, 69, 0
3, 43896, Note_on_c, 0, 75, 0
3, 43900, Note_on_c, 0, 73, 0
3, 43904, Note_on_c, 0, 66, 0
3, 43907, Note_on_c, 0, 80, 0
3, 43940, Note_on_c, 0, 63, 0
3, 43960, Note_on_c, 0, 63, 21
3, 43961, Note_on_c, 0, 75, 57
3, 43962, Note_on_c, 0, 82, 48
3, 43962, Note_on_c, 0, 68, 54
3, 43965, Note_on_c, 0, 67, 33
3, 43966, Note_on_c, 0, 60, 38
3, 43967, Note_on_c, 0, 56, 30
3, 43970, Control_c, 0, 64, 0
3, 44002, Control_c, 0, 64, 127
3, 44015, Note_on_c, 0, 80, 1
3, 44023, Note_on_c, 0, 67, 0
3, 44031, Note_on_c, 0, 63, 0
3, 44032, Note_on_c, 0, 60, 0
3, 44039, Note_on_c, 0, 82, 0
3, 44039, Note_on_c, 0, 56, 0
3, 44043, Note_on_c, 0, 75, 0
3, 44048, Note_on_c, 0, 80, 0
3, 44054, Note_on_c, 0, 68, 0
3, 44084, Note_on_c, 0, 44, 34
3, 44098, Note_on_c, 0, 44, 0
3, 44117, Note_on_c, 0, 46, 30
3, 44205, Note_on_c, 0, 67, 40
3, 44207, Note_on_c, 0, 63, 37
3, 44209, Note_on_c, 0, 60, 35
3, 44209, Note_on_c, 0, 58, 36
3, 44219, Control_c, 0, 64, 0
3, 44243, Control_c, 0, 64, 127
3, 44282, Note_on_c, 0, 46, 0
3, 44299, Note_on_c, 0, 67, 0
3, 44322, Note_on_c, 0, 46, 32
3, 44343, Note_on_c, 0, 58, 0
3, 44352, Note_on_c, 0, 63, 0
3, 44371, Note_on_c, 0, 60, 0
3, 44438, Note_on_c, 0, 67, 54
3, 44441, Note_on_c, 0, 64, 57
3, 44449, Note_on_c, 0, 62, 31
3, 44450, Note_on_c, 0, 59, 47
3, 44454, Note_on_c, 0, 56, 27
3, 44462, Control_c, 0, 64, 0
3, 44502, Control_c, 0, 64, 127
3, 44524, Note_on_c, 0, 46, 0
3, 44566, Note_on_c, 0, 46, 30
3, 44590, Note_on_c, 0, 59, 0
3, 44600, Note_on_c, 0, 56, 0
3, 44603, Note_on_c, 0, 62, 0
3, 44613, Note_on_c, 0, 64, 0
3, 44682, Note_on_c, 0, 67, 0
3, 44682, Note_on_c, 0, 62, 34
3, 44682, Note_on_c, 0, 59, 37
3, 44688, Note_on_c, 0, 56, 25
3, 44747, Note_on_c, 0, 46, 0
3, 44768, Note_on_c, 0, 46, 46
3, 44773, Note_on_c, 0, 56, 0
3, 44793, Note_on_c, 0, 46, 0
3, 44844, Note_on_c, 0, 34, 52
3, 44859, Note_on_c, 0, 59, 0
3, 44859, Note_on_c, 0, 62, 0
3, 44864, Note_on_c, 0, 34, 0
3, 44925, Note_on_c, 0, 30, 45
3, 44926, Note_on_c, 0, 64, 48
3, 44926, Note_on_c, 0, 61, 36
3, 44928, Note_on_c, 0, 42, 33
3, 44933, Control_c, 0, 64, 0
3, 44967, Control_c, 0, 64, 127
3, 44967, Note_on_c, 0, 57, 1
3, 44993, Note_on_c, 0, 30, 0
3, 45004, Note_on_c, 0, 42, 0
3, 45008, Note_on_c, 0, 68, 63
3, 45016, Note_on_c, 0, 57, 0
3, 45023, Note_on_c, 0, 64, 0
3, 45031, Note_on_c, 0, 61, 0
3, 45039, Note_on_c, 0, 68, 0
3, 45083, Note_on_c, 0, 80, 77
3, 45132, Note_on_c, 0, 80, 0
3, 45156, Note_on_c, 0, 80, 80
3, 45158, Note_on_c, 0, 73, 68
3, 45159, Note_on_c, 0, 68, 87
3, 45159, Note_on_c, 0, 76, 74
3, 45160, Note_on_c, 0, 69, 81
3, 45164, Note_on_c, 0, 78, 33
3, 45226, Note_on_c, 0, 80, 0
3, 45237, Note_on_c, 0, 78, 0
3, 45246, Note_on_c, 0, 69, 0
3, 45248, Note_on_c, 0, 76, 0
3, 45253, Note_on_c, 0, 80, 68
3, 45254, Note_on_c, 0, 68, 0
3, 45254, Note_on_c, 0, 69, 39
3, 45255, Note_on_c, 0, 76, 26
3, 45286, Note_on_c, 0, 80, 0
3, 45308, Note_on_c, 0, 76, 0
3, 45314, Note_on_c, 0, 69, 0
3, 45322, Note_on_c, 0, 80, 64
3, 45342, Note_on_c, 0, 73, 0
3, 45358, Note_on_c, 0, 78, 44
3, 45366, Note_on_c, 0, 80, 0
3, 45383, Note_on_c, 0, 78, 0
3, 45399, Note_on_c, 0, 80, 51
3, 45403, Note_on_c, 0, 69, 35
3, 45406, Note_on_c, 0, 47, 39
3, 45406, Note_on_c, 0, 75, 33
3, 45407, Note_on_c, 0, 73, 23
3, 45410, Control_c, 0, 64, 0
3, 45431, Note_on_c, 0, 80, 0
3, 45434, Control_c, 0, 64, 127
3, 45436, Note_on_c, 0, 75, 0
3, 45439, Note_on_c, 0, 73, 0
3, 45448, Note_on_c, 0, 69, 0
3, 45473, Note_on_c, 0, 54, 29
3, 45535, Note_on_c, 0, 68, 44
3, 45537, Note_on_c, 0, 54, 0
3, 45538, Note_on_c, 0, 63, 36
3, 45538, Note_on_c, 0, 61, 35
3, 45540, Note_on_c, 0, 56, 29
3, 45540, Note_on_c, 0, 57, 34
3, 45703, Note_on_c, 0, 57, 0
3, 45715, Note_on_c, 0, 61, 0
3, 45721, Note_on_c, 0, 63, 0
3, 45751, Note_on_c, 0, 56, 0
3, 45778, Note_on_c, 0, 47, 0
3, 45779, Note_on_c, 0, 68, 0
3, 45787, Note_on_c, 0, 66, 40
3, 45792, Note_on_c, 0, 63, 25
3, 45793, Note_on_c, 0, 57, 25
3, 45796, Note_on_c, 0, 61, 21
3, 45809, Note_on_c, 0, 57, 0
3, 45813, Note_on_c, 0, 66, 0
3, 45821, Note_on_c, 0, 63, 0
3, 45828, Note_on_c, 0, 68, 56
3, 45838, Note_on_c, 0, 61, 0
3, 45853, Note_on_c, 0, 68, 0
3, 45884, Control_c, 0, 64, 0
3, 45884, Note_on_c, 0, 45, 54
3, 45885, Note_on_c, 0, 65, 54
3, 45893, Note_on_c, 0, 45, 0
3, 45906, Control_c, 0, 64, 127
3, 45924, Note_on_c, 0, 65, 0
3, 45957, Note_on_c, 0, 55, 58
3, 45989, Note_on_c, 0, 77, 65
3, 45994, Note_on_c, 0, 61, 37
3, 45996, Note_on_c, 0, 72, 56
3, 46000, Note_on_c, 0, 69, 54
3, 46025, Note_on_c, 0, 65, 28
3, 46079, Note_on_c, 0, 61, 0
3, 46104, Note_on_c, 0, 65, 0
3, 46106, Note_on_c, 0, 69, 0
3, 46110, Note_on_c, 0, 72, 0
3, 46143, Note_on_c, 0, 72, 35
3, 46146, Note_on_c, 0, 69, 33
3, 46148, Note_on_c, 0, 61, 28
3, 46151, Note_on_c, 0, 65, 36
3, 46244, Note_on_c, 0, 61, 0
3, 46248, Note_on_c, 0, 55, 0
3, 46369, Control_c, 0, 64, 0
3, 46375, Note_on_c, 0, 32, 43
3, 46377, Note_on_c, 0, 65, 0
3, 46383, Note_on_c, 0, 69, 0
3, 46383, Note_on_c, 0, 32, 0
3, 46386, Note_on_c, 0, 72, 0
3, 46387, Control_c, 0, 64, 127
3, 46389, Note_on_c, 0, 77, 0
3, 46465, Note_on_c, 0, 77, 47
3, 46470, Note_on_c, 0, 74, 55
3, 46473, Note_on_c, 0, 70, 52
3, 46477, Note_on_c, 0, 54, 32
3, 46478, Note_on_c, 0, 65, 53
3, 46479, Note_on_c, 0, 60, 25
3, 46556, Note_on_c, 0, 60, 0
3, 46560, Note_on_c, 0, 65, 0
3, 46570, Note_on_c, 0, 70, 0
3, 46575, Note_on_c, 0, 74, 0
3, 46585, Note_on_c, 0, 77, 0
3, 46621, Note_on_c, 0, 77, 35
3, 46623, Note_on_c, 0, 70, 31
3, 46624, Note_on_c, 0, 74, 34
3, 46627, Note_on_c, 0, 65, 32
3, 46628, Note_on_c, 0, 60, 32
3, 46697, Note_on_c, 0, 54, 0
3, 46723, Note_on_c, 0, 54, 33
3, 46732, Note_on_c, 0, 74, 0
3, 46740, Note_on_c, 0, 77, 0
3, 46752, Note_on_c, 0, 70, 0
3, 46768, Note_on_c, 0, 60, 0
3, 46783, Note_on_c, 0, 54, 0
3, 46793, Note_on_c, 0, 65, 0
3, 46838, Note_on_c, 0, 68, 31
3, 46856, Note_on_c, 0, 68, 0
3, 46885, Note_on_c, 0, 75, 62
3, 46886, Note_on_c, 0, 37, 37
3, 46893, Control_c, 0, 64, 0
3, 46893, Note_on_c, 0, 44, 28
3, 46909, Note_on_c, 0, 37, 0
3, 46915, Note_on_c, 0, 44, 0
3, 46915, Control_c, 0, 64, 127
3, 46989, Note_on_c, 0, 63, 43
3, 46994, Note_on_c, 0, 53, 20
3, 46995, Note_on_c, 0, 58, 35
3, 47146, Note_on_c, 0, 75, 0
3, 47215, Note_on_c, 0, 63, 0
3, 47260, Note_on_c, 0, 53, 0
3, 47265, Note_on_c, 0, 58, 0
3, 47292, Note_on_c, 0, 75, 84
3, 47336, Note_on_c, 0, 74, 53
3, 47344, Note_on_c, 0, 75, 0
3, 47361, Note_on_c, 0, 73, 34
3, 47364, Note_on_c, 0, 74, 0
3, 47388, Note_on_c, 0, 72, 50
3, 47392, Note_on_c, 0, 73, 0
3, 47400, Note_on_c, 0, 72, 0
3, 47408, Control_c, 0, 64, 0
3, 47408, Note_on_c, 0, 30, 42
3, 47412, Note_on_c, 0, 42, 27
3, 47415, Note_on_c, 0, 75, 74
3, 47443, Note_on_c, 0, 75, 0
3, 47458, Control_c, 0, 64, 127
3, 47479, Note_on_c, 0, 75, 64
3, 47495, Note_on_c, 0, 30, 0
3, 47504, Note_on_c, 0, 42, 0
3, 47651, Note_on_c, 0, 52, 50
3, 47652, Note_on_c, 0, 58, 45
3, 47654, Note_on_c, 0, 63, 25
3, 47669, Control_c, 0, 64, 0
3, 47697, Control_c, 0, 64, 127
3, 47829, Note_on_c, 0, 52, 0
3, 47835, Note_on_c, 0, 75, 0
3, 47842, Note_on_c, 0, 63, 0
3, 47844, Note_on_c, 0, 73, 55
3, 47848, Note_on_c, 0, 58, 0
3, 47866, Note_on_c, 0, 73, 0
3, 47910, Note_on_c, 0, 68, 32
3, 47912, Note_on_c, 0, 72, 48
3, 47912, Note_on_c, 0, 56, 32
3, 47915, Note_on_c, 0, 63, 31
3, 47919, Control_c, 0, 64, 0
3, 47922, Note_on_c, 0, 60, 24
3, 47956, Control_c, 0, 64, 127
3, 47972, Note_on_c, 0, 72, 0
3, 47981, Note_on_c, 0, 68, 0
3, 47999, Note_on_c, 0, 70, 50
3, 47999, Note_on_c, 0, 53, 36
3, 48002, Note_on_c, 0, 67, 36
3, 48025, Note_on_c, 0, 63, 0
3, 48036, Note_on_c, 0, 60, 0
3, 48039, Note_on_c, 0, 67, 0
3, 48045, Note_on_c, 0, 70, 0
3, 48052, Note_on_c, 0, 56, 0
3, 48168, Note_on_c, 0, 82, 69
3, 48172, Note_on_c, 0, 56, 23
3, 48175, Note_on_c, 0, 74, 54
3, 48175, Note_on_c, 0, 63, 18
3, 48177, Note_on_c, 0, 60, 30
3, 48187, Note_on_c, 0, 53, 0
3, 48222, Note_on_c, 0, 82, 0
3, 48226, Note_on_c, 0, 74, 0
3, 48239, Note_on_c, 0, 63, 0
3, 48252, Note_on_c, 0, 60, 0
3, 48263, Note_on_c, 0, 56, 0
3, 48346, Note_on_c, 0, 67, 53
3, 48410, Note_on_c, 0, 67, 0
3, 48421, Note_on_c, 0, 64, 44
3, 48426, Note_on_c, 0, 59, 37
3, 48428, Note_on_c, 0, 62, 33
3, 48430, Note_on_c, 0, 56, 20
3, 48433, Control_c, 0, 64, 0
3, 48434, Note_on_c, 0, 46, 28
3, 48453, Control_c, 0, 64, 127
3, 48467, Note_on_c, 0, 46, 0
3, 48468, Note_on_c, 0, 59, 0
3, 48476, Note_on_c, 0, 56, 0
3, 48485, Note_on_c, 0, 62, 0
3, 48492, Note_on_c, 0, 64, 0
3, 48543, Note_on_c, 0, 68, 35
3, 48550, Note_on_c, 0, 68, 0
3, 48550, Note_on_c, 0, 70, 42
3, 48557, Note_on_c, 0, 70, 0
3, 48557, Note_on_c, 0, 79, 51
3, 48576, Note_on_c, 0, 76, 20
3, 48576, Note_on_c, 0, 74, 40
3, 48584, Note_on_c, 0, 79, 0
3, 48600, Note_on_c, 0, 74, 0
3, 48601, Note_on_c, 0, 76, 0
3, 48620, Note_on_c, 0, 80, 51
3, 48630, Note_on_c, 0, 80, 0
3, 48635, Note_on_c, 0, 91, 67
3, 48643, Note_on_c, 0, 88, 32
3, 48650, Note_on_c, 0, 86, 44
3, 48661, Note_on_c, 0, 91, 0
3, 48663, Note_on_c, 0, 88, 0
3, 48665, Note_on_c, 0, 86, 0
3, 48692, Note_on_c, 0, 92, 46
3, 48699, Note_on_c, 0, 94, 26
3, 48701, Note_on_c, 0, 92, 0
3, 48705, Note_on_c, 0, 103, 66
3, 48706, Note_on_c, 0, 94, 0
3, 48724, Note_on_c, 0, 100, 22
3, 48726, Note_on_c, 0, 103, 0
3, 48728, Note_on_c, 0, 98, 19
3, 48730, Note_on_c, 0, 95, 14
3, 48735, Note_on_c, 0, 100, 0
3, 48740, Note_on_c, 0, 98, 0
3, 48743, Note_on_c, 0, 95, 0
3, 48937, Note_on_c, 0, 68, 40
3, 48942, Note_on_c, 0, 61, 30
3, 48943, Note_on_c, 0, 64, 42
3, 48947, Note_on_c, 0, 57, 34
3, 48964, Note_on_c, 0, 56, 6
3, 48966, Control_c, 0, 64, 0
3, 49012, Note_on_c, 0, 56, 0
3, 49015, Note_on_c, 0, 54, 47
3, 49047, Control_c, 0, 64, 127
3, 49054, Note_on_c, 0, 54, 0
3, 49084, Note_on_c, 0, 42, 57
3, 49158, Note_on_c, 0, 61, 0
3, 49161, Note_on_c, 0, 57, 0
3, 49183, Note_on_c, 0, 61, 43
3, 49184, Note_on_c, 0, 57, 47
3, 49243, Note_on_c, 0, 64, 0
3, 49245, Note_on_c, 0, 57, 0
3, 49252, Note_on_c, 0, 68, 0
3, 49256, Note_on_c, 0, 61, 0
3, 49264, Note_on_c, 0, 66, 40
3, 49265, Note_on_c, 0, 61, 52
3, 49266, Note_on_c, 0, 57, 58
3, 49271, Note_on_c, 0, 54, 33
3, 49324, Note_on_c, 0, 42, 0
3, 49334, Note_on_c, 0, 66, 0
3, 49341, Note_on_c, 0, 54, 0
3, 49350, Note_on_c, 0, 66, 65
3, 49383, Note_on_c, 0, 57, 0
3, 49392, Note_on_c, 0, 61, 0
3, 49406, Note_on_c, 0, 66, 0
3, 49425, Note_on_c, 0, 68, 78
3, 49426, Note_on_c, 0, 61, 76
3, 49427, Note_on_c, 0, 56, 70
3, 49428, Note_on_c, 0, 63, 62
3, 49428, Note_on_c, 0, 57, 80
3, 49450, Control_c, 0, 64, 0
3, 49487, Note_on_c, 0, 68, 0
3, 49492, Control_c, 0, 64, 127
3, 49505, Note_on_c, 0, 68, 64
3, 49512, Note_on_c, 0, 47, 61
3, 49614, Note_on_c, 0, 57, 0
3, 49617, Note_on_c, 0, 56, 0
3, 49619, Note_on_c, 0, 63, 0
3, 49626, Note_on_c, 0, 61, 0
3, 49638, Note_on_c, 0, 68, 0
3, 49670, Note_on_c, 0, 68, 51
3, 49674, Note_on_c, 0, 61, 42
3, 49674, Note_on_c, 0, 56, 34
3, 49675, Note_on_c, 0, 57, 38
3, 49675, Note_on_c, 0, 63, 39
3, 49688, Control_c, 0, 64, 0
3, 49718, Control_c, 0, 64, 127
3, 49769, Note_on_c, 0, 56, 0
3, 49798, Note_on_c, 0, 47, 0
3, 49836, Note_on_c, 0, 68, 0
3, 49844, Note_on_c, 0, 63, 0
3, 49854, Note_on_c, 0, 66, 52
3, 49896, Note_on_c, 0, 57, 0
3, 49911, Note_on_c, 0, 61, 0
3, 49913, Note_on_c, 0, 66, 0
3, 49933, Note_on_c, 0, 33, 47
3, 49939, Control_c, 0, 64, 0
3, 49941, Note_on_c, 0, 33, 0
3, 49957, Control_c, 0, 64, 127
3, 50013, Note_on_c, 0, 55, 36
3, 50017, Note_on_c, 0, 77, 69
3, 50022, Note_on_c, 0, 72, 60
3, 50026, Note_on_c, 0, 69, 49
3, 50028, Note_on_c, 0, 61, 34
3, 50032, Note_on_c, 0, 65, 46
3, 50092, Note_on_c, 0, 77, 0
3, 50109, Note_on_c, 0, 77, 44
3, 50168, Note_on_c, 0, 77, 0
3, 50201, Note_on_c, 0, 77, 43
3, 50277, Note_on_c, 0, 77, 0
3, 50285, Note_on_c, 0, 61, 0
3, 50289, Note_on_c, 0, 55, 0
3, 50298, Note_on_c, 0, 77, 44
3, 50351, Note_on_c, 0, 72, 0
3, 50358, Note_on_c, 0, 77, 0
3, 50369, Note_on_c, 0, 75, 49
3, 50371, Note_on_c, 0, 69, 0
3, 50438, Note_on_c, 0, 65, 0
3, 50445, Control_c, 0, 64, 0
3, 50448, Note_on_c, 0, 32, 48
3, 50458, Note_on_c, 0, 32, 0
3, 50459, Control_c, 0, 64, 127
3, 50507, Note_on_c, 0, 75, 0
3, 50644, Note_on_c, 0, 77, 48
3, 50646, Note_on_c, 0, 70, 34
3, 50649, Note_on_c, 0, 65, 36
3, 50649, Note_on_c, 0, 73, 29
3, 50649, Note_on_c, 0, 66, 23
3, 50650, Note_on_c, 0, 61, 31
3, 50651, Note_on_c, 0, 54, 23
3, 50655, Note_on_c, 0, 58, 33
3, 50698, Note_on_c, 0, 73, 0
3, 50699, Note_on_c, 0, 65, 0
3, 50702, Note_on_c, 0, 66, 0
3, 50706, Note_on_c, 0, 70, 0
3, 50706, Note_on_c, 0, 54, 0
3, 50716, Note_on_c, 0, 61, 0
3, 50720, Note_on_c, 0, 58, 0
3, 50730, Note_on_c, 0, 77, 0
3, 50743, Note_on_c, 0, 77, 19
3, 50747, Note_on_c, 0, 69, 55
3, 50748, Note_on_c, 0, 54, 32
3, 50749, Note_on_c, 0, 65, 44
3, 50750, Note_on_c, 0, 60, 40
3, 50752, Note_on_c, 0, 74, 34
3, 50759, Control_c, 0, 64, 0
3, 50766, Note_on_c, 0, 66, 6
3, 50799, Control_c, 0, 64, 127
3, 50855, Note_on_c, 0, 69, 0
3, 50858, Note_on_c, 0, 74, 0
3, 50858, Note_on_c, 0, 75, 1
3, 50863, Note_on_c, 0, 65, 0
3, 50873, Note_on_c, 0, 77, 0
3, 50889, Note_on_c, 0, 66, 0
3, 50896, Note_on_c, 0, 75, 0
3, 50918, Note_on_c, 0, 68, 59
3, 50936, Note_on_c, 0, 60, 0
3, 50963, Note_on_c, 0, 54, 0
3, 51042, Note_on_c, 0, 68, 0
3, 51216, Note_on_c, 0, 71, 71
3, 51217, Note_on_c, 0, 68, 70
3, 51218, Note_on_c, 0, 64, 73
3, 51221, Note_on_c, 0, 59, 50
3, 51222, Note_on_c, 0, 50, 42
3, 51228, Note_on_c, 0, 54, 31
3, 51229, Control_c, 0, 64, 0
3, 51255, Control_c, 0, 64, 127
3, 51284, Note_on_c, 0, 59, 0
3, 51291, Note_on_c, 0, 50, 0
3, 51295, Note_on_c, 0, 54, 0
3, 51296, Note_on_c, 0, 64, 0
3, 51308, Note_on_c, 0, 68, 0
3, 51349, Note_on_c, 0, 71, 0
3, 51368, Note_on_c, 0, 72, 64
3, 51370, Note_on_c, 0, 61, 59
3, 51371, Note_on_c, 0, 65, 72
3, 51373, Note_on_c, 0, 45, 46
3, 51374, Note_on_c, 0, 69, 53
3, 51383, Control_c, 0, 64, 0
3, 51383, Note_on_c, 0, 55, 17
3, 51413, Control_c, 0, 64, 127
3, 51462, Note_on_c, 0, 69, 0
3, 51481, Note_on_c, 0, 65, 0
3, 51493, Note_on_c, 0, 72, 0
3, 51500, Note_on_c, 0, 45, 0
3, 51515, Note_on_c, 0, 61, 0
3, 51520, Note_on_c, 0, 55, 0
3, 51647, Note_on_c, 0, 73, 55
3, 51649, Note_on_c, 0, 62, 66
3, 51650, Note_on_c, 0, 66, 67
3, 51654, Note_on_c, 0, 56, 34
3, 51655, Note_on_c, 0, 46, 43
3, 51664, Control_c, 0, 64, 0
3, 51696, Control_c, 0, 64, 127
3, 51747, Note_on_c, 0, 46, 0
3, 51753, Note_on_c, 0, 62, 0
3, 51755, Note_on_c, 0, 56, 0
3, 51765, Note_on_c, 0, 66, 0
3, 51767, Note_on_c, 0, 73, 0
3, 51809, Note_on_c, 0, 74, 55
3, 51812, Note_on_c, 0, 62, 48
3, 51813, Note_on_c, 0, 67, 45
3, 51814, Note_on_c, 0, 47, 36
3, 51817, Note_on_c, 0, 57, 35
3, 51828, Control_c, 0, 64, 0
3, 51857, Control_c, 0, 64, 127
3, 51876, Note_on_c, 0, 47, 0
3, 51877, Note_on_c, 0, 67, 0
3, 51877, Note_on_c, 0, 62, 0
3, 51886, Note_on_c, 0, 74, 0
3, 51890, Note_on_c, 0, 57, 0
3, 51966, Note_on_c, 0, 75, 62
3, 51969, Note_on_c, 0, 64, 45
3, 51969, Note_on_c, 0, 70, 51
3, 51970, Note_on_c, 0, 58, 31
3, 51974, Note_on_c, 0, 48, 32
3, 51989, Control_c, 0, 64, 0
3, 52011, Control_c, 0, 64, 127
3, 52066, Note_on_c, 0, 48, 0
3, 52083, Note_on_c, 0, 64, 0
3, 52090, Note_on_c, 0, 58, 0
3, 52107, Note_on_c, 0, 70, 0
3, 52110, Note_on_c, 0, 75, 0
3, 52212, Note_on_c, 0, 76, 36
3, 52215, Note_on_c, 0, 68, 40
3, 52217, Note_on_c, 0, 71, 40
3, 52218, Note_on_c, 0, 64, 33
3, 52220, Note_on_c, 0, 59, 43
3, 52220, Note_on_c, 0, 54, 25
3, 52236, Control_c, 0, 64, 0
3, 52268, Control_c, 0, 64, 127
3, 52329, Note_on_c, 0, 64, 0
3, 52331, Note_on_c, 0, 59, 0
3, 52340, Note_on_c, 0, 68, 0
3, 52341, Note_on_c, 0, 71, 0
3, 52354, Note_on_c, 0, 76, 0
3, 52368, Note_on_c, 0, 54, 0
3, 52459, Note_on_c, 0, 77, 40
3, 52462, Note_on_c, 0, 72, 40
3, 52463, Note_on_c, 0, 63, 25
3, 52464, Note_on_c, 0, 65, 32
3, 52465, Note_on_c, 0, 58, 37
3, 52466, Note_on_c, 0, 53, 26
3, 52468, Control_c, 0, 64, 0
3, 52500, Control_c, 0, 64, 127
3, 52513, Note_on_c, 0, 65, 0
3, 52525, Note_on_c, 0, 72, 0
3, 52536, Note_on_c, 0, 77, 0
3, 52588, Note_on_c, 0, 89, 44
3, 52592, Note_on_c, 0, 77, 24
3, 52670, Note_on_c, 0, 77, 0
3, 52674, Note_on_c, 0, 89, 0
3, 52706, Note_on_c, 0, 89, 39
3, 52713, Note_on_c, 0, 77, 24
3, 52803, Note_on_c, 0, 77, 0
3, 52805, Note_on_c, 0, 89, 0
3, 52858, Note_on_c, 0, 89, 27
3, 52864, Note_on_c, 0, 77, 18
3, 52993, Note_on_c, 0, 53, 0
3, 53016, Note_on_c, 0, 63, 0
3, 53025, Note_on_c, 0, 58, 0
3, 53051, Note_on_c, 0, 77, 0
3, 53057, Note_on_c, 0, 64, 37
3, 53058, Note_on_c, 0, 54, 25
3, 53059, Note_on_c, 0, 59, 43
3, 53064, Control_c, 0, 64, 0
3, 53088, Control_c, 0, 64, 127
3, 53099, Note_on_c, 0, 89, 0
3, 53165, Note_on_c, 0, 95, 46
3, 53168, Note_on_c, 0, 88, 58
3, 53203, Note_on_c, 0, 95, 0
3, 53205, Note_on_c, 0, 88, 0
3, 53211, Note_on_c, 0, 92, 34
3, 53212, Note_on_c, 0, 83, 36
3, 53256, Note_on_c, 0, 83, 0
3, 53258, Note_on_c, 0, 92, 0
3, 53266, Note_on_c, 0, 95, 37
3, 53267, Note_on_c, 0, 88, 34
3, 53294, Note_on_c, 0, 95, 0
3, 53298, Note_on_c, 0, 88, 0
3, 53307, Note_on_c, 0, 92, 36
3, 53310, Note_on_c, 0, 83, 31
3, 53340, Note_on_c, 0, 83, 0
3, 53343, Note_on_c, 0, 92, 0
3, 53360, Note_on_c, 0, 88, 36
3, 53361, Note_on_c, 0, 95, 36
3, 53390, Note_on_c, 0, 95, 0
3, 53390, Note_on_c, 0, 88, 0
3, 53403, Note_on_c, 0, 64, 0
3, 53405, Note_on_c, 0, 92, 38
3, 53407, Note_on_c, 0, 59, 0
3, 53409, Note_on_c, 0, 83, 19
3, 53430, Note_on_c, 0, 54, 0
3, 53435, Note_on_c, 0, 83, 0
3, 53441, Note_on_c, 0, 92, 0
3, 53457, Note_on_c, 0, 88, 24
3, 53460, Note_on_c, 0, 95, 22
3, 53488, Note_on_c, 0, 95, 0
3, 53490, Note_on_c, 0, 88, 0
3, 53502, Note_on_c, 0, 92, 35
3, 53506, Note_on_c, 0, 83, 27
3, 53527, Note_on_c, 0, 83, 0
3, 53545, Note_on_c, 0, 92, 0
3, 53565, Note_on_c, 0, 37, 40
3, 53565, Note_on_c, 0, 89, 43
3, 53567, Note_on_c, 0, 96, 46
3, 53575, Control_c, 0, 64, 0
3, 53599, Note_on_c, 0, 96, 0
3, 53599, Control_c, 0, 64, 127
3, 53610, Note_on_c, 0, 89, 0
3, 53618, Note_on_c, 0, 37, 0
3, 53625, Note_on_c, 0, 44, 36
3, 53656, Note_on_c, 0, 44, 0
3, 53687, Note_on_c, 0, 53, 28
3, 53709, Note_on_c, 0, 53, 0
3, 53748, Note_on_c, 0, 56, 26
3, 53812, Note_on_c, 0, 60, 40
3, 53877, Note_on_c, 0, 63, 44
3, 53949, Note_on_c, 0, 72, 41
3, 53949, Note_on_c, 0, 65, 26
3, 53954, Note_on_c, 0, 68, 26
3, 53992, Note_on_c, 0, 63, 0
3, 53999, Note_on_c, 0, 60, 0
3, 54013, Note_on_c, 0, 65, 0
3, 54020, Note_on_c, 0, 75, 44
3, 54028, Note_on_c, 0, 72, 0
3, 54045, Note_on_c, 0, 75, 0
3, 54059, Note_on_c, 0, 68, 0
3, 54065, Note_on_c, 0, 56, 0
3, 54090, Note_on_c, 0, 68, 35
3, 54092, Note_on_c, 0, 76, 39
3, 54097, Note_on_c, 0, 59, 38
3, 54099, Note_on_c, 0, 64, 30
3, 54099, Note_on_c, 0, 71, 32
3, 54100, Note_on_c, 0, 54, 33
3, 54105, Control_c, 0, 64, 0
3, 54137, Note_on_c, 0, 71, 0
3, 54137, Control_c, 0, 64, 127
3, 54138, Note_on_c, 0, 68, 0
3, 54149, Note_on_c, 0, 76, 0
3, 54189, Note_on_c, 0, 88, 60
3, 54223, Note_on_c, 0, 59, 0
3, 54225, Note_on_c, 0, 64, 0
3, 54232, Note_on_c, 0, 88, 0
3, 54286, Note_on_c, 0, 88, 34
3, 54289, Note_on_c, 0, 80, 28
3, 54290, Note_on_c, 0, 76, 22
3, 54295, Note_on_c, 0, 83, 24
3, 54295, Note_on_c, 0, 59, 31
3, 54297, Note_on_c, 0, 64, 22
3, 54544, Note_on_c, 0, 54, 0
3, 54720, Note_on_c, 0, 68, 60
3, 54742, Note_on_c, 0, 76, 0
3, 54745, Note_on_c, 0, 80, 0
3, 54748, Note_on_c, 0, 83, 0
3, 54754, Note_on_c, 0, 88, 0
3, 54769, Control_c, 0, 64, 0
3, 54777, Note_on_c, 0, 64, 0
3, 54777, Note_on_c, 0, 59, 0
3, 55022, Note_on_c, 0, 63, 53
3, 55030, Note_on_c, 0, 53, 44
3, 55030, Note_on_c, 0, 60, 44
3, 55031, Note_on_c, 0, 58, 42
3, 55038, Note_on_c, 0, 60, 0
3, 55038, Note_on_c, 0, 53, 0
3, 55042, Note_on_c, 0, 63, 0
3, 55074, Note_on_c, 0, 58, 0
3, 55183, Note_on_c, 0, 64, 41
3, 55189, Note_on_c, 0, 59, 37
3, 55194, Note_on_c, 0, 54, 34
3, 55200, Note_on_c, 0, 68, 0
3, 55397, Note_on_c, 0, 71, 46
3, 55408, Note_on_c, 0, 71, 0
3, 55434, Note_on_c, 0, 76, 40
3, 55448, Note_on_c, 0, 76, 0
3, 55474, Note_on_c, 0, 80, 70
3, 55490, Note_on_c, 0, 64, 0
3, 55496, Note_on_c, 0, 54, 0
3, 55497, Note_on_c, 0, 80, 0
3, 55514, Note_on_c, 0, 83, 88
3, 55519, Note_on_c, 0, 59, 0
3, 55540, Note_on_c, 0, 83, 0
3, 55550, Note_on_c, 0, 59, 32
3, 55550, Note_on_c, 0, 64, 53
3, 55554, Note_on_c, 0, 54, 47
3, 55556, Note_on_c, 0, 84, 94
3, 55604, Note_on_c, 0, 64, 0
3, 55606, Note_on_c, 0, 59, 0
3, 55625, Note_on_c, 0, 84, 0
3, 55629, Note_on_c, 0, 54, 0
3, 55638, Note_on_c, 0, 82, 80
3, 55644, Note_on_c, 0, 60, 68
3, 55648, Note_on_c, 0, 53, 52
3, 55649, Note_on_c, 0, 56, 49
3, 55683, Note_on_c, 0, 82, 0
3, 55713, Note_on_c, 0, 80, 59
3, 55718, Note_on_c, 0, 82, 34
3, 55754, Note_on_c, 0, 82, 0
3, 55755, Note_on_c, 0, 80, 0
3, 55766, Note_on_c, 0, 78, 59
3, 55795, Note_on_c, 0, 78, 0
3, 55831, Note_on_c, 0, 72, 47
3, 55854, Note_on_c, 0, 60, 0
3, 55866, Note_on_c, 0, 72, 0
3, 55890, Note_on_c, 0, 70, 56
3, 55899, Note_on_c, 0, 60, 35
3, 55899, Note_on_c, 0, 63, 25
3, 55930, Note_on_c, 0, 70, 0
3, 55945, Note_on_c, 0, 68, 48
3, 56049, Note_on_c, 0, 53, 0
3, 56056, Note_on_c, 0, 60, 0
3, 56083, Note_on_c, 0, 63, 0
3, 56119, Note_on_c, 0, 56, 0
3, 56154, Note_on_c, 0, 64, 36
3, 56157, Note_on_c, 0, 59, 36
3, 56162, Note_on_c, 0, 54, 29
3, 56230, Note_on_c, 0, 68, 0
3, 56273, Note_on_c, 0, 68, 69
3, 56314, Note_on_c, 0, 64, 0
3, 56316, Note_on_c, 0, 66, 45
3, 56330, Note_on_c, 0, 68, 0
3, 56339, Note_on_c, 0, 66, 0
3, 56400, Note_on_c, 0, 69, 68
3, 56424, Note_on_c, 0, 59, 0
3, 56430, Note_on_c, 0, 69, 0
3, 56437, Note_on_c, 0, 68, 43
3, 56467, Note_on_c, 0, 68, 0
3, 56480, Note_on_c, 0, 59, 30
3, 56481, Note_on_c, 0, 64, 37
3, 56483, Note_on_c, 0, 71, 74
3, 56530, Note_on_c, 0, 64, 0
3, 56533, Note_on_c, 0, 59, 0
3, 56539, Note_on_c, 0, 71, 0
3, 56556, Note_on_c, 0, 54, 0
3, 56628, Note_on_c, 0, 63, 33
3, 56631, Note_on_c, 0, 53, 37
3, 56634, Note_on_c, 0, 60, 44
3, 56636, Note_on_c, 0, 56, 28
3, 56752, Note_on_c, 0, 72, 68
3, 56775, Note_on_c, 0, 63, 0
3, 56778, Note_on_c, 0, 72, 0
3, 56789, Note_on_c, 0, 70, 43
3, 56790, Note_on_c, 0, 60, 0
3, 56807, Note_on_c, 0, 70, 0
3, 56827, Note_on_c, 0, 63, 37
3, 56831, Note_on_c, 0, 75, 78
3, 56835, Note_on_c, 0, 60, 42
3, 56856, Note_on_c, 0, 63, 0
3, 56863, Note_on_c, 0, 75, 0
3, 56886, Note_on_c, 0, 60, 0
3, 56887, Note_on_c, 0, 72, 68
3, 56896, Note_on_c, 0, 56, 0
3, 56910, Note_on_c, 0, 72, 0
3, 56969, Note_on_c, 0, 68, 74
3, 56988, Note_on_c, 0, 68, 0
3, 57020, Note_on_c, 0, 53, 0
3, 57053, Note_on_c, 0, 64, 27
3, 57066, Note_on_c, 0, 64, 0
3, 57069, Control_c, 0, 64, 127
3, 57095, Note_on_c, 0, 61, 37
3, 57120, Control_c, 0, 64, 0
3, 57130, Note_on_c, 0, 54, 36
3, 57137, Note_on_c, 0, 57, 40
3, 57141, Note_on_c, 0, 66, 55
3, 57193, Note_on_c, 0, 61, 0
3, 57218, Note_on_c, 0, 57, 0
3, 57228, Control_c, 0, 64, 127
3, 57254, Note_on_c, 0, 54, 0
3, 57327, Note_on_c, 0, 51, 45
3, 57330, Note_on_c, 0, 66, 0
3, 57351, Note_on_c, 0, 51, 0
3, 57356, Control_c, 0, 64, 0
3, 57357, Note_on_c, 0, 68, 59
3, 57358, Note_on_c, 0, 56, 55
3, 57359, Note_on_c, 0, 57, 58
3, 57361, Note_on_c, 0, 61, 36
3, 57361, Note_on_c, 0, 63, 32
3, 57432, Note_on_c, 0, 57, 0
3, 57435, Note_on_c, 0, 56, 0
3, 57437, Note_on_c, 0, 63, 0
3, 57440, Note_on_c, 0, 61, 0
3, 57441, Note_on_c, 0, 68, 0
3, 57457, Note_on_c, 0, 54, 21
3, 57471, Note_on_c, 0, 56, 56
3, 57476, Note_on_c, 0, 68, 51
3, 57477, Note_on_c, 0, 54, 0
3, 57477, Note_on_c, 0, 61, 43
3, 57481, Note_on_c, 0, 57, 32
3, 57485, Note_on_c, 0, 63, 29
3, 57486, Control_c, 0, 64, 127
3, 57494, Note_on_c, 0, 56, 0
3, 57511, Note_on_c, 0, 63, 0
3, 57512, Note_on_c, 0, 57, 0
3, 57520, Note_on_c, 0, 68, 0
3, 57523, Note_on_c, 0, 61, 0
3, 57596, Control_c, 0, 64, 0
3, 57599, Note_on_c, 0, 64, 57
3, 57600, Note_on_c, 0, 71, 39
3, 57602, Note_on_c, 0, 68, 40
3, 57684, Note_on_c, 0, 63, 37
3, 57688, Note_on_c, 0, 58, 36
3, 57689, Note_on_c, 0, 59, 50
3, 57695, Note_on_c, 0, 64, 0
3, 57703, Control_c, 0, 64, 127
3, 57715, Note_on_c, 0, 68, 0
3, 57722, Note_on_c, 0, 71, 0
3, 57855, Note_on_c, 0, 59, 0
3, 57865, Note_on_c, 0, 63, 0
3, 57883, Note_on_c, 0, 95, 88
3, 57884, Note_on_c, 0, 88, 85
3, 57885, Note_on_c, 0, 63, 43
3, 57900, Note_on_c, 0, 59, 20
3, 57907, Control_c, 0, 64, 0
3, 57912, Control_c, 0, 64, 127
3, 57920, Note_on_c, 0, 95, 0
3, 57925, Note_on_c, 0, 92, 59
3, 57926, Note_on_c, 0, 88, 0
3, 57929, Note_on_c, 0, 59, 0
3, 57930, Note_on_c, 0, 83, 50
3, 57948, Note_on_c, 0, 83, 0
3, 57951, Note_on_c, 0, 92, 0
3, 57968, Note_on_c, 0, 88, 81
3, 57970, Note_on_c, 0, 95, 81
3, 57972, Control_c, 0, 64, 0
3, 57972, Note_on_c, 0, 92, 38
3, 57980, Note_on_c, 0, 92, 0
3, 57985, Note_on_c, 0, 63, 0
3, 57990, Note_on_c, 0, 58, 0
3, 58025, Note_on_c, 0, 88, 0
3, 58025, Note_on_c, 0, 95, 0
3, 58055, Note_on_c, 0, 59, 30
3, 58060, Note_on_c, 0, 64, 43
3, 58061, Note_on_c, 0, 54, 34
3, 58062, Note_on_c, 0, 92, 46
3, 58064, Note_on_c, 0, 83, 44
3, 58097, Note_on_c, 0, 83, 0
3, 58104, Note_on_c, 0, 92, 0
3, 58118, Note_on_c, 0, 88, 39
3, 58132, Note_on_c, 0, 88, 0
3, 58150, Note_on_c, 0, 92, 36
3, 58151, Note_on_c, 0, 88, 42
3, 58156, Note_on_c, 0, 83, 28
3, 58167, Control_c, 0, 64, 127
3, 58180, Note_on_c, 0, 88, 0
3, 58192, Note_on_c, 0, 92, 0
3, 58212, Note_on_c, 0, 83, 0
3, 58262, Note_on_c, 0, 59, 0
3, 58268, Note_on_c, 0, 64, 0
3, 58275, Note_on_c, 0, 54, 0
3, 58382, Note_on_c, 0, 64, 51
3, 58384, Note_on_c, 0, 59, 47
3, 58392, Note_on_c, 0, 54, 28
3, 58395, Control_c, 0, 64, 0
3, 58429, Control_c, 0, 64, 127
3, 58466, Note_on_c, 0, 59, 0
3, 58484, Note_on_c, 0, 64, 0
3, 58507, Note_on_c, 0, 54, 0
3, 58552, Note_on_c, 0, 60, 27
3, 58555, Note_on_c, 0, 63, 34
3, 58559, Control_c, 0, 64, 0
3, 58562, Note_on_c, 0, 53, 26
3, 58644, Note_on_c, 0, 65, 51
3, 58666, Note_on_c, 0, 65, 0
3, 58670, Note_on_c, 0, 68, 28
3, 58679, Note_on_c, 0, 63, 0
3, 58690, Note_on_c, 0, 68, 0
3, 58708, Note_on_c, 0, 72, 36
3, 58727, Note_on_c, 0, 72, 0
3, 58729, Note_on_c, 0, 60, 0
3, 58735, Note_on_c, 0, 75, 83
3, 58765, Note_on_c, 0, 75, 0
3, 58766, Note_on_c, 0, 60, 34
3, 58772, Note_on_c, 0, 72, 72
3, 58786, Note_on_c, 0, 72, 0
3, 58804, Note_on_c, 0, 73, 31
3, 58814, Note_on_c, 0, 53, 0
3, 58815, Note_on_c, 0, 60, 0
3, 58829, Note_on_c, 0, 73, 0
3, 58847, Note_on_c, 0, 75, 45
3, 58855, Note_on_c, 0, 75, 0
3, 58878, Note_on_c, 0, 77, 58
3, 58897, Note_on_c, 0, 77, 0
3, 58913, Note_on_c, 0, 79, 57
3, 58916, Note_on_c, 0, 63, 27
3, 58930, Note_on_c, 0, 79, 0
3, 58952, Note_on_c, 0, 80, 64
3, 58969, Note_on_c, 0, 80, 0
3, 58970, Note_on_c, 0, 63, 0
3, 58973, Control_c, 0, 64, 127
3, 58987, Note_on_c, 0, 82, 77
3, 59005, Control_c, 0, 64, 0
3, 59011, Note_on_c, 0, 82, 0
3, 59023, Note_on_c, 0, 83, 60
3, 59028, Note_on_c, 0, 59, 58
3, 59031, Note_on_c, 0, 64, 40
3, 59041, Note_on_c, 0, 54, 26
3, 59053, Control_c, 0, 64, 127
3, 59055, Note_on_c, 0, 83, 0
3, 59076, Note_on_c, 0, 88, 71
3, 59107, Note_on_c, 0, 88, 0
3, 59234, Note_on_c, 0, 64, 0
3, 59252, Note_on_c, 0, 59, 0
3, 59288, Control_c, 0, 64, 127
3, 59304, Note_on_c, 0, 88, 45
3, 59304, Note_on_c, 0, 95, 57
3, 59310, Note_on_c, 0, 83, 19
3, 59313, Note_on_c, 0, 92, 21
3, 59321, Note_on_c, 0, 92, 0
3, 59322, Note_on_c, 0, 83, 0
3, 59324, Note_on_c, 0, 95, 0
3, 59325, Note_on_c, 0, 88, 0
3, 59338, Note_on_c, 0, 54, 0
3, 59346, Control_c, 0, 64, 0
3, 59396, Note_on_c, 0, 64, 37
3, 59398, Note_on_c, 0, 54, 33
3, 59402, Note_on_c, 0, 59, 44
3, 59421, Control_c, 0, 64, 127
3, 59432, Note_on_c, 0, 59, 0
3, 59436, Note_on_c, 0, 64, 0
3, 59457, Note_on_c, 0, 54, 0
3, 59484, Note_on_c, 0, 63, 51
3, 59487, Note_on_c, 0, 60, 53
3, 59491, Note_on_c, 0, 53, 40
3, 59491, Control_c, 0, 64, 0
3, 59494, Note_on_c, 0, 56, 30
3, 59568, Control_c, 0, 64, 127
3, 59597, Control_c, 0, 64, 0
3, 59640, Note_on_c, 0, 84, 94
3, 59659, Note_on_c, 0, 84, 0
3, 59673, Note_on_c, 0, 63, 0
3, 59682, Note_on_c, 0, 84, 77
3, 59683, Note_on_c, 0, 60, 0
3, 59708, Note_on_c, 0, 84, 0
3, 59724, Note_on_c, 0, 77, 38
3, 59728, Note_on_c, 0, 60, 37
3, 59740, Note_on_c, 0, 77, 0
3, 59761, Note_on_c, 0, 77, 55
3, 59785, Note_on_c, 0, 60, 0
3, 59788, Note_on_c, 0, 77, 0
3, 59793, Note_on_c, 0, 56, 0
3, 59807, Note_on_c, 0, 80, 77
3, 59828, Note_on_c, 0, 80, 0
3, 59845, Note_on_c, 0, 60, 46
3, 59845, Note_on_c, 0, 63, 33
3, 59846, Note_on_c, 0, 80, 54
3, 59849, Note_on_c, 0, 56, 27
3, 59859, Note_on_c, 0, 63, 0
3, 59867, Note_on_c, 0, 53, 0
3, 59870, Note_on_c, 0, 60, 0
3, 59886, Note_on_c, 0, 73, 34
3, 59890, Note_on_c, 0, 80, 0
3, 59904, Note_on_c, 0, 73, 0
3, 59905, Control_c, 0, 64, 127
3, 59926, Note_on_c, 0, 56, 0
3, 59926, Note_on_c, 0, 73, 46
3, 59953, Note_on_c, 0, 73, 0
3, 59966, Note_on_c, 0, 77, 66
3, 59970, Control_c, 0, 64, 0
3, 59973, Note_on_c, 0, 64, 55
3, 59973, Note_on_c, 0, 59, 53
3, 59980, Note_on_c, 0, 54, 37
3, 59991, Note_on_c, 0, 77, 0
3, 60008, Note_on_c, 0, 77, 62
3, 60038, Note_on_c, 0, 77, 0
3, 60047, Note_on_c, 0, 71, 49
3, 60067, Note_on_c, 0, 71, 0
3, 60089, Note_on_c, 0, 71, 58
3, 60109, Note_on_c, 0, 71, 0
3, 60121, Note_on_c, 0, 76, 68
3, 60140, Note_on_c, 0, 64, 0
3, 60145, Note_on_c, 0, 76, 0
3, 60161, Note_on_c, 0, 76, 70
3, 60164, Control_c, 0, 64, 127
3, 60167, Note_on_c, 0, 59, 0
3, 60188, Note_on_c, 0, 76, 0
3, 60199, Note_on_c, 0, 68, 45
3, 60201, Control_c, 0, 64, 0
3, 60206, Note_on_c, 0, 59, 38
3, 60218, Note_on_c, 0, 68, 0
3, 60234, Note_on_c, 0, 68, 46
3, 60246, Control_c, 0, 64, 127
3, 60257, Note_on_c, 0, 68, 0
3, 60263, Note_on_c, 0, 59, 0
3, 60272, Note_on_c, 0, 71, 53
3, 60285, Note_on_c, 0, 71, 0
3, 60306, Note_on_c, 0, 71, 57
3, 60309, Control_c, 0, 64, 0
3, 60312, Note_on_c, 0, 64, 37
3, 60320, Note_on_c, 0, 59, 30
3, 60333, Note_on_c, 0, 64, 0
3, 60333, Note_on_c, 0, 71, 0
3, 60344, Note_on_c, 0, 59, 0
3, 60347, Note_on_c, 0, 65, 52
3, 60357, Note_on_c, 0, 65, 0
3, 60379, Control_c, 0, 64, 127
3, 60398, Note_on_c, 0, 64, 49
3, 60402, Note_on_c, 0, 54, 0
3, 60409, Note_on_c, 0, 64, 0
3, 60428, Note_on_c, 0, 70, 78
3, 60456, Control_c, 0, 64, 0
3, 60456, Note_on_c, 0, 63, 19
3, 60458, Note_on_c, 0, 60, 28
3, 60462, Note_on_c, 0, 70, 0
3, 60466, Note_on_c, 0, 56, 18
3, 60471, Note_on_c, 0, 53, 18
3, 60482, Note_on_c, 0, 68, 38
3, 60495, Note_on_c, 0, 70, 20
3, 60523, Note_on_c, 0, 63, 0
3, 60547, Note_on_c, 0, 65, 68
3, 60549, Note_on_c, 0, 70, 0
3, 60556, Note_on_c, 0, 60, 0
3, 60567, Note_on_c, 0, 68, 0
3, 60575, Note_on_c, 0, 65, 0
3, 60586, Note_on_c, 0, 60, 40
3, 60646, Control_c, 0, 64, 127
3, 60658, Control_c, 0, 64, 0
3, 60671, Note_on_c, 0, 60, 0
3, 60696, Note_on_c, 0, 56, 0
3, 60705, Note_on_c, 0, 60, 47
3, 60711, Note_on_c, 0, 53, 0
3, 60716, Control_c, 0, 64, 127
3, 60732, Note_on_c, 0, 60, 0
3, 60786, Control_c, 0, 64, 0
3, 60787, Note_on_c, 0, 60, 63
3, 60788, Note_on_c, 0, 53, 47
3, 60796, Note_on_c, 0, 56, 29
3, 60813, Note_on_c, 0, 60, 0
3, 60819, Note_on_c, 0, 53, 0
3, 60836, Control_c, 0, 64, 127
3, 60842, Note_on_c, 0, 56, 0
3, 60937, Control_c, 0, 64, 0
3, 60951, Note_on_c, 0, 59, 54
3, 60952, Note_on_c, 0, 64, 62
3, 60953, Note_on_c, 0, 80, 62
3, 60953, Note_on_c, 0, 75, 74
3, 60954, Note_on_c, 0, 68, 73
3, 60957, Note_on_c, 0, 54, 34
3, 60985, Control_c, 0, 64, 127
3, 61060, Note_on_c, 0, 59, 0
3, 61065, Note_on_c, 0, 64, 0
3, 61096, Note_on_c, 0, 54, 0
3, 61098, Note_on_c, 0, 68, 0
3, 61110, Note_on_c, 0, 80, 0
3, 61124, Note_on_c, 0, 75, 0
3, 61185, Control_c, 0, 64, 0
3, 61189, Note_on_c, 0, 76, 42
3, 61190, Note_on_c, 0, 58, 37
3, 61190, Note_on_c, 0, 69, 53
3, 61191, Note_on_c, 0, 81, 51
3, 61192, Note_on_c, 0, 62, 38
3, 61199, Note_on_c, 0, 52, 34
3, 61226, Control_c, 0, 64, 127
3, 61264, Note_on_c, 0, 81, 0
3, 61277, Note_on_c, 0, 52, 0
3, 61295, Note_on_c, 0, 58, 0
3, 61300, Note_on_c, 0, 62, 0
3, 61300, Note_on_c, 0, 69, 0
3, 61308, Note_on_c, 0, 76, 0
3, 61433, Control_c, 0, 64, 0
3, 61434, Note_on_c, 0, 62, 33
3, 61435, Note_on_c, 0, 60, 32
3, 61437, Note_on_c, 0, 57, 40
3, 61480, Note_on_c, 0, 86, 70
3, 61500, Note_on_c, 0, 86, 0
3, 61514, Note_on_c, 0, 84, 61
3, 61543, Note_on_c, 0, 84, 0
3, 61551, Note_on_c, 0, 81, 48
3, 61580, Note_on_c, 0, 81, 0
3, 61589, Note_on_c, 0, 77, 37
3, 61607, Note_on_c, 0, 77, 0
3, 61626, Note_on_c, 0, 82, 74
3, 61634, Note_on_c, 0, 53, 1
3, 61654, Note_on_c, 0, 82, 0
3, 61665, Note_on_c, 0, 81, 63
3, 61688, Note_on_c, 0, 81, 0
3, 61705, Note_on_c, 0, 77, 50
3, 61732, Note_on_c, 0, 77, 0
3, 61748, Note_on_c, 0, 72, 37
3, 61752, Note_on_c, 0, 74, 25
3, 61762, Note_on_c, 0, 74, 0
3, 61767, Note_on_c, 0, 72, 0
3, 61798, Note_on_c, 0, 62, 0
3, 61818, Note_on_c, 0, 60, 0
3, 61822, Note_on_c, 0, 57, 0
3, 61889, Note_on_c, 0, 53, 0
3, 61912, Control_c, 0, 64, 127
3, 62020, Control_c, 0, 64, 0
3, 62031, Note_on_c, 0, 55, 88
3, 62031, Note_on_c, 0, 61, 78
3, 62032, Note_on_c, 0, 66, 82
3, 62138, Control_c, 0, 64, 127
3, 62174, Note_on_c, 0, 55, 0
3, 62183, Note_on_c, 0, 66, 0
3, 62204, Note_on_c, 0, 61, 0
3, 62256, Control_c, 0, 64, 0
3, 62264, Note_on_c, 0, 61, 40
3, 62265, Note_on_c, 0, 65, 53
3, 62271, Note_on_c, 0, 55, 37
3, 62282, Note_on_c, 0, 55, 0
3, 62285, Control_c, 0, 64, 127
3, 62292, Note_on_c, 0, 65, 0
3, 62315, Note_on_c, 0, 61, 0
3, 62391, Control_c, 0, 64, 0
3, 62391, Note_on_c, 0, 60, 36
3, 62391, Note_on_c, 0, 63, 30
3, 62396, Note_on_c, 0, 53, 29
3, 62496, Note_on_c, 0, 63, 0
3, 62520, Note_on_c, 0, 75, 68
3, 62534, Note_on_c, 0, 75, 0
3, 62537, Note_on_c, 0, 77, 44
3, 62564, Note_on_c, 0, 75, 37
3, 62575, Note_on_c, 0, 77, 0
3, 62581, Note_on_c, 0, 60, 0
3, 62596, Note_on_c, 0, 75, 0
3, 62600, Note_on_c, 0, 74, 29
3, 62605, Control_c, 0, 64, 127
3, 62619, Note_on_c, 0, 74, 0
3, 62641, Note_on_c, 0, 63, 28
3, 62642, Control_c, 0, 64, 0
3, 62643, Note_on_c, 0, 60, 32
3, 62648, Note_on_c, 0, 75, 80
3, 62658, Note_on_c, 0, 63, 0
3, 62672, Note_on_c, 0, 75, 0
3, 62672, Note_on_c, 0, 60, 0
3, 62721, Note_on_c, 0, 77, 71
3, 62731, Note_on_c, 0, 63, 25
3, 62735, Note_on_c, 0, 60, 29
3, 62741, Note_on_c, 0, 53, 0
3, 62748, Note_on_c, 0, 77, 0
3, 62748, Note_on_c, 0, 60, 0
3, 62749, Note_on_c, 0, 63, 0
3, 62772, Note_on_c, 0, 74, 35
3, 62813, Note_on_c, 0, 74, 0
3, 62815, Control_c, 0, 64, 127
3, 62839, Note_on_c, 0, 75, 71
3, 62863, Note_on_c, 0, 75, 0
3, 62875, Control_c, 0, 64, 0
3, 62885, Note_on_c, 0, 61, 37
3, 62886, Note_on_c, 0, 66, 38
3, 62889, Note_on_c, 0, 55, 46
3, 62890, Note_on_c, 0, 78, 37
3, 62890, Note_on_c, 0, 78, 49
3, 62925, Control_c, 0, 64, 127
3, 62951, Note_on_c, 0, 78, 0
3, 62952, Note_on_c, 0, 78, 0
3, 62968, Control_c, 0, 64, 0
3, 62977, Note_on_c, 0, 55, 0
3, 62981, Note_on_c, 0, 66, 0
3, 62990, Note_on_c, 0, 61, 0
3, 63002, Note_on_c, 0, 66, 64
3, 63003, Note_on_c, 0, 78, 87
3, 63003, Note_on_c, 0, 55, 69
3, 63004, Note_on_c, 0, 61, 50
3, 63036, Control_c, 0, 64, 127
3, 63046, Note_on_c, 0, 55, 0
3, 63048, Note_on_c, 0, 78, 0
3, 63049, Note_on_c, 0, 66, 0
3, 63063, Note_on_c, 0, 61, 0
3, 63103, Control_c, 0, 64, 0
3, 63114, Note_on_c, 0, 66, 83
3, 63115, Note_on_c, 0, 61, 71
3, 63117, Note_on_c, 0, 55, 83
3, 63119, Note_on_c, 0, 90, 70
3, 63126, Note_on_c, 0, 76, 34
3, 63127, Note_on_c, 0, 78, 21
3, 63164, Note_on_c, 0, 76, 0
3, 63171, Note_on_c, 0, 78, 0
3, 63176, Control_c, 0, 64, 127
3, 63182, Note_on_c, 0, 90, 0
3, 63183, Note_on_c, 0, 55, 0
3, 63196, Note_on_c, 0, 66, 0
3, 63198, Note_on_c, 0, 61, 0
3, 63207, Note_on_c, 0, 87, 53
3, 63216, Note_on_c, 0, 87, 0
3, 63216, Control_c, 0, 64, 0
3, 63232, Note_on_c, 0, 66, 69
3, 63233, Note_on_c, 0, 61, 67
3, 63234, Note_on_c, 0, 55, 75
3, 63237, Note_on_c, 0, 75, 83
3, 63238, Note_on_c, 0, 90, 71
3, 63245, Note_on_c, 0, 82, 35
3, 63253, Note_on_c, 0, 82, 0
3, 63289, Note_on_c, 0, 55, 0
3, 63291, Note_on_c, 0, 75, 0
3, 63291, Control_c, 0, 64, 127
3, 63292, Note_on_c, 0, 66, 0
3, 63296, Note_on_c, 0, 90, 0
3, 63306, Note_on_c, 0, 61, 0
3, 63319, Note_on_c, 0, 66, 70
3, 63319, Note_on_c, 0, 55, 73
3, 63320, Note_on_c, 0, 61, 68
3, 63321, Note_on_c, 0, 90, 60
3, 63322, Control_c, 0, 64, 0
3, 63323, Note_on_c, 0, 75, 68
3, 63329, Note_on_c, 0, 87, 38
3, 63337, Note_on_c, 0, 87, 0
3, 63343, Note_on_c, 0, 90, 0
3, 63344, Note_on_c, 0, 66, 0
3, 63349, Note_on_c, 0, 75, 0
3, 63350, Note_on_c, 0, 55, 0
3, 63364, Note_on_c, 0, 61, 0
3, 63486, Control_c, 0, 64, 127
3, 63548, Control_c, 0, 64, 0
3, 63551, Note_on_c, 0, 60, 77
3, 63552, Note_on_c, 0, 63, 71
3, 63554, Note_on_c, 0, 53, 62
3, 63555, Note_on_c, 0, 75, 91
3, 63555, Note_on_c, 0, 87, 83
3, 63557, Note_on_c, 0, 82, 75
3, 63557, Note_on_c, 0, 58, 53
3, 63583, Note_on_c, 0, 82, 0
3, 63583, Note_on_c, 0, 87, 0
3, 63587, Note_on_c, 0, 53, 0
3, 63588, Note_on_c, 0, 63, 0
3, 63590, Note_on_c, 0, 75, 0
3, 63598, Note_on_c, 0, 60, 0
3, 63599, Note_on_c, 0, 58, 0
3, 63611, Control_c, 0, 64, 127
3, 63629, Note_on_c, 0, 84, 68
3, 63630, Note_on_c, 0, 60, 54
3, 63631, Note_on_c, 0, 63, 55
3, 63632, Note_on_c, 0, 72, 64
3, 63633, Note_on_c, 0, 53, 49
3, 63636, Note_on_c, 0, 58, 36
3, 63656, Note_on_c, 0, 84, 0
3, 63662, Note_on_c, 0, 72, 0
3, 63663, Note_on_c, 0, 63, 0
3, 63669, Note_on_c, 0, 53, 0
3, 63680, Note_on_c, 0, 60, 0
3, 63686, Note_on_c, 0, 58, 0
3, 63693, Control_c, 0, 64, 0
3, 63714, Note_on_c, 0, 60, 48
3, 63714, Note_on_c, 0, 82, 64
3, 63714, Note_on_c, 0, 63, 50
3, 63715, Note_on_c, 0, 70, 67
3, 63719, Note_on_c, 0, 58, 25
3, 63721, Note_on_c, 0, 53, 34
3, 63724, Control_c, 0, 64, 127
3, 63735, Note_on_c, 0, 60, 0
3, 63736, Note_on_c, 0, 70, 0
3, 63737, Note_on_c, 0, 63, 0
3, 63738, Note_on_c, 0, 82, 0
3, 63738, Note_on_c, 0, 53, 0
3, 63743, Note_on_c, 0, 58, 0
3, 63806, Control_c, 0, 64, 0
3, 63845, Control_c, 0, 64, 127
3, 63905, Note_on_c, 0, 62, 64
3, 63908, Note_on_c, 0, 66, 68
3, 63911, Note_on_c, 0, 59, 61
3, 63912, Note_on_c, 0, 55, 51
3, 63936, Control_c, 0, 64, 0
3, 63954, Note_on_c, 0, 78, 62
3, 63964, Note_on_c, 0, 66, 0
3, 63980, Note_on_c, 0, 78, 0
3, 63984, Note_on_c, 0, 67, 48
3, 63996, Note_on_c, 0, 62, 0
3, 64004, Note_on_c, 0, 67, 0
3, 64014, Note_on_c, 0, 69, 60
3, 64038, Note_on_c, 0, 55, 0
3, 64046, Note_on_c, 0, 70, 64
3, 64047, Note_on_c, 0, 69, 0
3, 64047, Note_on_c, 0, 59, 0
3, 64063, Note_on_c, 0, 70, 0
3, 64072, Note_on_c, 0, 72, 60
3, 64088, Note_on_c, 0, 72, 0
3, 64095, Note_on_c, 0, 73, 32
3, 64118, Note_on_c, 0, 73, 0
3, 64121, Note_on_c, 0, 75, 51
3, 64130, Note_on_c, 0, 75, 0
3, 64143, Note_on_c, 0, 76, 62
3, 64162, Note_on_c, 0, 61, 46
3, 64165, Note_on_c, 0, 66, 39
3, 64166, Note_on_c, 0, 76, 0
3, 64172, Note_on_c, 0, 77, 32
3, 64194, Note_on_c, 0, 77, 0
3, 64198, Note_on_c, 0, 66, 0
3, 64198, Note_on_c, 0, 78, 34
3, 64219, Note_on_c, 0, 78, 0
3, 64267, Note_on_c, 0, 83, 87
3, 64286, Note_on_c, 0, 61, 0
3, 64302, Note_on_c, 0, 61, 17
3, 64303, Note_on_c, 0, 78, 69
3, 64307, Note_on_c, 0, 64, 55
3, 64308, Note_on_c, 0, 83, 0
3, 64316, Note_on_c, 0, 59, 34
3, 64317, Note_on_c, 0, 54, 32
3, 64397, Note_on_c, 0, 78, 0
3, 64425, Note_on_c, 0, 73, 54
3, 64454, Control_c, 0, 64, 127
3, 64488, Note_on_c, 0, 64, 0
3, 64492, Note_on_c, 0, 59, 0
3, 64508, Note_on_c, 0, 61, 0
3, 64512, Note_on_c, 0, 73, 0
3, 64520, Note_on_c, 0, 69, 37
3, 64529, Note_on_c, 0, 69, 0
3, 64531, Control_c, 0, 64, 0
3, 64547, Note_on_c, 0, 73, 49
3, 64550, Note_on_c, 0, 61, 44
3, 64554, Note_on_c, 0, 64, 43
3, 64557, Note_on_c, 0, 59, 34
3, 64581, Control_c, 0, 64, 127
3, 64611, Note_on_c, 0, 54, 0
3, 64635, Note_on_c, 0, 59, 0
3, 64636, Note_on_c, 0, 69, 68
3, 64636, Note_on_c, 0, 54, 60
3, 64637, Control_c, 0, 64, 0
3, 64671, Control_c, 0, 64, 127
3, 64712, Note_on_c, 0, 73, 0
3, 64719, Note_on_c, 0, 64, 0
3, 64759, Note_on_c, 0, 69, 0
3, 64766, Note_on_c, 0, 54, 0
3, 64770, Note_on_c, 0, 61, 0
3, 64790, Note_on_c, 0, 72, 88
3, 64790, Note_on_c, 0, 60, 60
3, 64791, Note_on_c, 0, 64, 71
3, 64791, Control_c, 0, 64, 0
3, 64792, Note_on_c, 0, 57, 66
3, 64797, Note_on_c, 0, 53, 39
3, 64886, Note_on_c, 0, 64, 0
3, 64891, Note_on_c, 0, 53, 0
3, 64904, Note_on_c, 0, 64, 39
3, 64911, Note_on_c, 0, 72, 0
3, 64911, Note_on_c, 0, 69, 73
3, 64911, Note_on_c, 0, 53, 14
3, 64929, Note_on_c, 0, 69, 0
3, 64937, Note_on_c, 0, 64, 0
3, 64941, Note_on_c, 0, 53, 0
3, 64971, Control_c, 0, 64, 127
3, 64973, Note_on_c, 0, 60, 0
3, 64974, Note_on_c, 0, 57, 0
3, 64994, Note_on_c, 0, 57, 15
3, 64994, Note_on_c, 0, 72, 94
3, 64996, Note_on_c, 0, 64, 34
3, 65006, Note_on_c, 0, 64, 0
3, 65019, Note_on_c, 0, 72, 0
3, 65019, Note_on_c, 0, 57, 0
3, 65022, Control_c, 0, 64, 0
3, 65032, Note_on_c, 0, 64, 57
3, 65035, Note_on_c, 0, 71, 72
3, 65036, Note_on_c, 0, 53, 45
3, 65038, Note_on_c, 0, 59, 64
3, 65082, Control_c, 0, 64, 127
3, 65088, Note_on_c, 0, 53, 0
3, 65092, Note_on_c, 0, 64, 0
3, 65100, Note_on_c, 0, 59, 0
3, 65110, Note_on_c, 0, 69, 74
3, 65114, Note_on_c, 0, 59, 45
3, 65114, Note_on_c, 0, 53, 51
3, 65115, Note_on_c, 0, 64, 50
3, 65125, Note_on_c, 0, 71, 0
3, 65126, Control_c, 0, 64, 0
3, 65135, Note_on_c, 0, 64, 0
3, 65141, Note_on_c, 0, 69, 0
3, 65157, Note_on_c, 0, 67, 33
3, 65167, Note_on_c, 0, 64, 27
3, 65196, Note_on_c, 0, 64, 0
3, 65205, Control_c, 0, 64, 127
3, 65211, Note_on_c, 0, 67, 0
3, 65211, Note_on_c, 0, 59, 0
3, 65216, Note_on_c, 0, 53, 0
3, 65234, Note_on_c, 0, 65, 71
3, 65264, Note_on_c, 0, 65, 0
3, 65268, Control_c, 0, 64, 0
3, 65271, Note_on_c, 0, 62, 27
3, 65273, Note_on_c, 0, 59, 25
3, 65276, Note_on_c, 0, 55, 33
3, 65279, Note_on_c, 0, 52, 20
3, 65281, Note_on_c, 0, 64, 39
3, 65347, Note_on_c, 0, 52, 0
3, 65349, Note_on_c, 0, 62, 0
3, 65351, Note_on_c, 0, 55, 0
3, 65358, Note_on_c, 0, 59, 0
3, 65358, Note_on_c, 0, 64, 0
3, 65396, Note_on_c, 0, 62, 41
3, 65396, Note_on_c, 0, 64, 51
3, 65396, Note_on_c, 0, 59, 33
3, 65399, Note_on_c, 0, 52, 34
3, 65399, Note_on_c, 0, 55, 40
3, 65441, Control_c, 0, 64, 127
3, 65454, Note_on_c, 0, 52, 0
3, 65455, Note_on_c, 0, 62, 0
3, 65455, Note_on_c, 0, 55, 0
3, 65460, Note_on_c, 0, 59, 0
3, 65466, Note_on_c, 0, 64, 0
3, 65482, Control_c, 0, 64, 0
3, 65513, Control_c, 0, 64, 127
3, 65515, Note_on_c, 0, 59, 39
3, 65515, Note_on_c, 0, 64, 66
3, 65517, Note_on_c, 0, 62, 43
3, 65521, Note_on_c, 0, 55, 34
3, 65524, Note_on_c, 0, 52, 29
3, 65535, Note_on_c, 0, 62, 0
3, 65555, Note_on_c, 0, 59, 0
3, 65562, Note_on_c, 0, 55, 0
3, 65578, Note_on_c, 0, 64, 0
3, 65593, Note_on_c, 0, 65, 66
3, 65595, Note_on_c, 0, 59, 33
3, 65600, Note_on_c, 0, 62, 22
3, 65607, Control_c, 0, 64, 0
3, 65608, Note_on_c, 0, 52, 0
3, 65611, Note_on_c, 0, 62, 0
3, 65622, Note_on_c, 0, 65, 0
3, 65626, Note_on_c, 0, 59, 0
3, 65629, Control_c, 0, 64, 127
3, 65642, Note_on_c, 0, 67, 55
3, 65661, Note_on_c, 0, 67, 0
3, 65678, Note_on_c, 0, 68, 59
3, 65698, Control_c, 0, 64, 0
3, 65699, Note_on_c, 0, 68, 0
3, 65718, Note_on_c, 0, 70, 62
3, 65719, Note_on_c, 0, 65, 64
3, 65723, Note_on_c, 0, 61, 31
3, 65727, Note_on_c, 0, 58, 35
3, 65730, Note_on_c, 0, 54, 13
3, 65744, Note_on_c, 0, 70, 0
3, 65763, Note_on_c, 0, 72, 73
3, 65784, Note_on_c, 0, 72, 0
3, 65799, Note_on_c, 0, 73, 64
3, 65831, Note_on_c, 0, 73, 0
3, 65840, Note_on_c, 0, 75, 69
3, 65858, Note_on_c, 0, 65, 0
3, 65863, Note_on_c, 0, 75, 0
3, 65873, Note_on_c, 0, 58, 0
3, 65874, Note_on_c, 0, 54, 0
3, 65877, Note_on_c, 0, 61, 0
3, 65877, Note_on_c, 0, 77, 68
3, 65903, Note_on_c, 0, 77, 0
3, 65913, Note_on_c, 0, 78, 61
3, 65936, Note_on_c, 0, 78, 0
3, 65951, Note_on_c, 0, 80, 79
3, 65955, Note_on_c, 0, 61, 67
3, 65956, Note_on_c, 0, 58, 69
3, 65956, Note_on_c, 0, 65, 80
3, 65958, Note_on_c, 0, 54, 57
3, 66013, Note_on_c, 0, 65, 0
3, 66017, Note_on_c, 0, 54, 0
3, 66021, Note_on_c, 0, 61, 0
3, 66029, Note_on_c, 0, 61, 23
3, 66030, Note_on_c, 0, 82, 71
3, 66030, Note_on_c, 0, 54, 39
3, 66031, Note_on_c, 0, 65, 69
3, 66090, Note_on_c, 0, 54, 0
3, 66093, Note_on_c, 0, 65, 0
3, 66102, Note_on_c, 0, 80, 0
3, 66106, Note_on_c, 0, 61, 0
3, 66110, Note_on_c, 0, 82, 0
3, 66115, Control_c, 0, 64, 127
3, 66117, Note_on_c, 0, 65, 64
3, 66120, Note_on_c, 0, 60, 66
3, 66121, Note_on_c, 0, 84, 70
3, 66124, Note_on_c, 0, 54, 35
3, 66157, Note_on_c, 0, 65, 0
3, 66161, Note_on_c, 0, 54, 0
3, 66169, Note_on_c, 0, 60, 0
3, 66178, Note_on_c, 0, 84, 0
3, 66188, Note_on_c, 0, 54, 55
3, 66193, Note_on_c, 0, 85, 83
3, 66194, Note_on_c, 0, 58, 0
3, 66196, Note_on_c, 0, 60, 35
3, 66219, Note_on_c, 0, 54, 0
3, 66227, Note_on_c, 0, 60, 0
3, 66244, Note_on_c, 0, 60, 40
3, 66245, Note_on_c, 0, 85, 0
3, 66249, Note_on_c, 0, 63, 37
3, 66252, Note_on_c, 0, 53, 47
3, 66254, Control_c, 0, 64, 0
3, 66256, Note_on_c, 0, 56, 36
3, 66263, Note_on_c, 0, 87, 65
3, 66271, Note_on_c, 0, 87, 0
3, 66277, Note_on_c, 0, 88, 35
3, 66280, Note_on_c, 0, 89, 56
3, 66289, Note_on_c, 0, 88, 0
3, 66307, Control_c, 0, 64, 127
3, 66314, Control_c, 0, 64, 0
3, 66327, Note_on_c, 0, 63, 0
3, 66333, Note_on_c, 0, 53, 0
3, 66337, Note_on_c, 0, 89, 0
3, 66339, Note_on_c, 0, 60, 0
3, 66343, Note_on_c, 0, 56, 0
3, 66353, Note_on_c, 0, 63, 36
3, 66357, Note_on_c, 0, 84, 60
3, 66357, Note_on_c, 0, 60, 32
3, 66358, Control_c, 0, 64, 127
3, 66361, Note_on_c, 0, 56, 18
3, 66364, Note_on_c, 0, 53, 18
3, 66402, Note_on_c, 0, 53, 0
3, 66405, Note_on_c, 0, 63, 0
3, 66409, Note_on_c, 0, 56, 0
3, 66415, Note_on_c, 0, 60, 0
3, 66422, Note_on_c, 0, 84, 0
3, 66431, Note_on_c, 0, 80, 55
3, 66438, Note_on_c, 0, 63, 29
3, 66442, Control_c, 0, 64, 0
3, 66442, Note_on_c, 0, 56, 31
3, 66443, Note_on_c, 0, 53, 32
3, 66443, Note_on_c, 0, 60, 48
3, 66509, Control_c, 0, 64, 127
3, 66589, Note_on_c, 0, 60, 0
3, 66594, Note_on_c, 0, 53, 0
3, 66608, Note_on_c, 0, 63, 0
3, 66614, Note_on_c, 0, 80, 0
3, 66673, Note_on_c, 0, 56, 0
3, 66708, Note_on_c, 0, 64, 53
3, 66709, Note_on_c, 0, 59, 54
3, 66711, Note_on_c, 0, 54, 39
3, 66711, Control_c, 0, 64, 0
3, 66794, Note_on_c, 0, 88, 92
3, 66794, Note_on_c, 0, 95, 91
3, 66842, Control_c, 0, 64, 127
3, 66851, Note_on_c, 0, 95, 0
3, 66855, Note_on_c, 0, 88, 0
3, 66858, Note_on_c, 0, 64, 0
3, 66860, Note_on_c, 0, 54, 0
3, 66867, Note_on_c, 0, 92, 63
3, 66869, Note_on_c, 0, 83, 65
3, 66872, Note_on_c, 0, 64, 49
3, 66875, Note_on_c, 0, 54, 34
3, 66935, Note_on_c, 0, 83, 0
3, 66936, Note_on_c, 0, 64, 0
3, 66937, Note_on_c, 0, 54, 0
3, 66944, Note_on_c, 0, 92, 0
3, 66946, Note_on_c, 0, 59, 0
3, 66948, Control_c, 0, 64, 0
3, 66957, Control_c, 0, 64, 127
3, 66960, Note_on_c, 0, 54, 62
3, 66960, Note_on_c, 0, 59, 62
3, 66961, Note_on_c, 0, 88, 83
3, 66961, Note_on_c, 0, 64, 59
3, 66962, Note_on_c, 0, 95, 82
3, 67006, Note_on_c, 0, 95, 0
3, 67013, Note_on_c, 0, 88, 0
3, 67017, Note_on_c, 0, 64, 0
3, 67023, Note_on_c, 0, 54, 0
3, 67031, Note_on_c, 0, 59, 0
3, 67040, Note_on_c, 0, 64, 64
3, 67040, Note_on_c, 0, 54, 61
3, 67040, Note_on_c, 0, 96, 88
3, 67041, Note_on_c, 0, 59, 42
3, 67041, Note_on_c, 0, 84, 70
3, 67044, Control_c, 0, 64, 0
3, 67075, Control_c, 0, 64, 127
3, 67079, Note_on_c, 0, 84, 0
3, 67080, Note_on_c, 0, 96, 0
3, 67086, Note_on_c, 0, 64, 0
3, 67090, Note_on_c, 0, 54, 0
3, 67098, Note_on_c, 0, 59, 0
3, 67113, Note_on_c, 0, 54, 62
3, 67115, Note_on_c, 0, 64, 54
3, 67116, Note_on_c, 0, 97, 77
3, 67117, Note_on_c, 0, 85, 75
3, 67118, Note_on_c, 0, 59, 64
3, 67145, Note_on_c, 0, 64, 0
3, 67153, Note_on_c, 0, 59, 0
3, 67157, Note_on_c, 0, 85, 0
3, 67157, Note_on_c, 0, 97, 0
3, 67166, Note_on_c, 0, 54, 0
3, 67194, Note_on_c, 0, 87, 74
3, 67195, Note_on_c, 0, 63, 62
3, 67195, Note_on_c, 0, 99, 74
3, 67196, Note_on_c, 0, 60, 64
3, 67196, Control_c, 0, 64, 0
3, 67197, Note_on_c, 0, 53, 58
3, 67200, Note_on_c, 0, 56, 47
3, 67227, Control_c, 0, 64, 127
3, 67242, Note_on_c, 0, 99, 0
3, 67250, Note_on_c, 0, 87, 0
3, 67269, Note_on_c, 0, 63, 0
3, 67269, Note_on_c, 0, 56, 0
3, 67273, Note_on_c, 0, 60, 0
3, 67275, Note_on_c, 0, 53, 0
3, 67294, Control_c, 0, 64, 0
3, 67306, Control_c, 0, 64, 127
3, 67310, Note_on_c, 0, 53, 36
3, 67310, Note_on_c, 0, 63, 38
3, 67312, Note_on_c, 0, 96, 66
3, 67313, Note_on_c, 0, 60, 43
3, 67316, Note_on_c, 0, 84, 50
3, 67317, Note_on_c, 0, 56, 33
3, 67328, Note_on_c, 0, 96, 0
3, 67338, Note_on_c, 0, 84, 0
3, 67351, Note_on_c, 0, 53, 0
3, 67351, Note_on_c, 0, 63, 0
3, 67353, Note_on_c, 0, 56, 0
3, 67364, Note_on_c, 0, 60, 0
3, 67395, Note_on_c, 0, 92, 53
3, 67396, Note_on_c, 0, 53, 47
3, 67396, Note_on_c, 0, 60, 41
3, 67398, Note_on_c, 0, 63, 43
3, 67398, Note_on_c, 0, 80, 45
3, 67403, Note_on_c, 0, 56, 31
3, 67407, Control_c, 0, 64, 0
3, 67434, Control_c, 0, 64, 127
3, 67508, Note_on_c, 0, 92, 0
3, 67525, Note_on_c, 0, 80, 0
3, 67538, Note_on_c, 0, 60, 0
3, 67551, Note_on_c, 0, 53, 0
3, 67563, Note_on_c, 0, 63, 0
3, 67614, Note_on_c, 0, 56, 0
3, 67667, Note_on_c, 0, 64, 44
3, 67671, Note_on_c, 0, 59, 39
3, 67674, Note_on_c, 0, 54, 26
3, 67682, Control_c, 0, 64, 0
3, 67700, Note_on_c, 0, 64, 0
3, 67712, Note_on_c, 0, 71, 35
3, 67712, Note_on_c, 0, 68, 33
3, 67738, Note_on_c, 0, 68, 0
3, 67738, Note_on_c, 0, 71, 0
3, 67780, Note_on_c, 0, 71, 55
3, 67781, Note_on_c, 0, 68, 54
3, 67797, Note_on_c, 0, 68, 0
3, 67799, Note_on_c, 0, 71, 0
3, 67844, Note_on_c, 0, 59, 0
3, 67863, Note_on_c, 0, 68, 62
3, 67865, Note_on_c, 0, 71, 50
3, 67868, Note_on_c, 0, 59, 44
3, 67882, Note_on_c, 0, 71, 0
3, 67883, Note_on_c, 0, 68, 0
3, 67902, Note_on_c, 0, 64, 52
3, 67916, Note_on_c, 0, 64, 0
3, 67935, Note_on_c, 0, 59, 0
3, 67941, Note_on_c, 0, 64, 53
3, 67949, Note_on_c, 0, 64, 0
3, 67955, Note_on_c, 0, 68, 23
3, 67963, Note_on_c, 0, 68, 0
3, 67991, Note_on_c, 0, 59, 49
3, 67992, Note_on_c, 0, 64, 57
3, 68000, Note_on_c, 0, 64, 0
3, 68028, Note_on_c, 0, 68, 46
3, 68029, Note_on_c, 0, 71, 49
3, 68039, Note_on_c, 0, 68, 0
3, 68042, Note_on_c, 0, 71, 0
3, 68046, Note_on_c, 0, 59, 0
3, 68064, Note_on_c, 0, 54, 0
3, 68102, Note_on_c, 0, 71, 64
3, 68104, Note_on_c, 0, 68, 60
3, 68124, Note_on_c, 0, 68, 0
3, 68126, Note_on_c, 0, 71, 0
3, 68144, Note_on_c, 0, 65, 57
3, 68146, Note_on_c, 0, 60, 39
3, 68149, Note_on_c, 0, 63, 25
3, 68150, Note_on_c, 0, 56, 25
3, 68162, Note_on_c, 0, 65, 0
3, 68185, Note_on_c, 0, 68, 71
3, 68185, Note_on_c, 0, 72, 69
3, 68204, Note_on_c, 0, 60, 0
3, 68212, Note_on_c, 0, 72, 0
3, 68216, Note_on_c, 0, 68, 0
3, 68222, Note_on_c, 0, 60, 15
3, 68227, Note_on_c, 0, 65, 33
3, 68235, Note_on_c, 0, 65, 0
3, 68242, Note_on_c, 0, 63, 0
3, 68263, Note_on_c, 0, 72, 62
3, 68263, Note_on_c, 0, 68, 56
3, 68267, Note_on_c, 0, 53, 1
3, 68280, Note_on_c, 0, 68, 0
3, 68285, Note_on_c, 0, 60, 0
3, 68286, Note_on_c, 0, 72, 0
3, 68311, Note_on_c, 0, 56, 0
3, 68348, Note_on_c, 0, 68, 68
3, 68349, Note_on_c, 0, 72, 64
3, 68350, Note_on_c, 0, 63, 35
3, 68357, Note_on_c, 0, 60, 36
3, 68375, Note_on_c, 0, 72, 0
3, 68377, Note_on_c, 0, 53, 0
3, 68377, Note_on_c, 0, 68, 0
3, 68383, Note_on_c, 0, 63, 0
3, 68435, Note_on_c, 0, 68, 68
3, 68436, Note_on_c, 0, 72, 62
3, 68438, Note_on_c, 0, 60, 0
3, 68462, Note_on_c, 0, 72, 0
3, 68463, Note_on_c, 0, 68, 0
3, 68474, Note_on_c, 0, 65, 55
3, 68484, Note_on_c, 0, 65, 0
3, 68513, Note_on_c, 0, 68, 68
3, 68514, Note_on_c, 0, 72, 66
3, 68514, Note_on_c, 0, 63, 28
3, 68516, Note_on_c, 0, 60, 40
3, 68520, Note_on_c, 0, 56, 23
3, 68529, Note_on_c, 0, 63, 0
3, 68529, Note_on_c, 0, 68, 0
3, 68530, Note_on_c, 0, 72, 0
3, 68534, Control_c, 0, 64, 127
3, 68536, Note_on_c, 0, 60, 0
3, 68536, Control_c, 0, 64, 0
3, 68550, Note_on_c, 0, 56, 0
3, 68582, Control_c, 0, 64, 127
3, 68589, Note_on_c, 0, 68, 82
3, 68591, Note_on_c, 0, 60, 36
3, 68593, Note_on_c, 0, 56, 34
3, 68593, Note_on_c, 0, 53, 48
3, 68594, Note_on_c, 0, 72, 68
3, 68600, Note_on_c, 0, 60, 0
3, 68606, Note_on_c, 0, 53, 0
3, 68606, Note_on_c, 0, 72, 0
3, 68610, Note_on_c, 0, 68, 0
3, 68619, Note_on_c, 0, 56, 0
3, 68628, Control_c, 0, 64, 0
3, 68652, Control_c, 0, 64, 127
3, 68712, Note_on_c, 0, 78, 75
3, 68713, Note_on_c, 0, 58, 81
3, 68714, Note_on_c, 0, 66, 85
3, 68714, Note_on_c, 0, 62, 80
3, 68714, Note_on_c, 0, 52, 81
3, 68714, Note_on_c, 0, 73, 68
3, 68720, Control_c, 0, 64, 0
3, 68759, Control_c, 0, 64, 127
3, 68771, Note_on_c, 0, 52, 0
3, 68784, Note_on_c, 0, 62, 0
3, 68786, Note_on_c, 0, 58, 0
3, 68797, Note_on_c, 0, 66, 0
3, 68806, Note_on_c, 0, 78, 0
3, 68806, Note_on_c, 0, 73, 0
3, 68875, Note_on_c, 0, 80, 74
3, 68876, Note_on_c, 0, 73, 67
3, 68876, Note_on_c, 0, 75, 77
3, 68876, Note_on_c, 0, 66, 74
3, 68876, Note_on_c, 0, 63, 68
3, 68877, Control_c, 0, 64, 0
3, 68877, Note_on_c, 0, 57, 71
3, 68878, Note_on_c, 0, 69, 79
3, 68879, Note_on_c, 0, 61, 53
3, 68916, Control_c, 0, 64, 127
3, 68974, Note_on_c, 0, 57, 0
3, 68984, Note_on_c, 0, 69, 0
3, 68984, Note_on_c, 0, 75, 0
3, 68984, Note_on_c, 0, 80, 0
3, 68987, Note_on_c, 0, 66, 0
3, 68988, Note_on_c, 0, 73, 0
3, 68995, Note_on_c, 0, 61, 0
3, 68997, Note_on_c, 0, 63, 0
3, 69018, Note_on_c, 0, 63, 15
3, 69036, Note_on_c, 0, 63, 0
3, 69074, Note_on_c, 0, 63, 74
3, 69075, Note_on_c, 0, 70, 102
3, 69075, Note_on_c, 0, 82, 83
3, 69076, Note_on_c, 0, 56, 77
3, 69076, Note_on_c, 0, 75, 90
3, 69076, Note_on_c, 0, 60, 74
3, 69077, Note_on_c, 0, 67, 88
3, 69078, Note_on_c, 0, 79, 68
3, 69080, Control_c, 0, 64, 0
3, 69123, Control_c, 0, 64, 127
3, 69202, Note_on_c, 0, 79, 0
3, 69204, Note_on_c, 0, 67, 0
3, 69204, Note_on_c, 0, 82, 0
3, 69208, Note_on_c, 0, 56, 0
3, 69210, Note_on_c, 0, 70, 0
3, 69212, Note_on_c, 0, 60, 0
3, 69215, Note_on_c, 0, 63, 0
3, 69216, Note_on_c, 0, 75, 0
3, 69233, Note_on_c, 0, 67, 40
3, 69237, Note_on_c, 0, 63, 43
3, 69237, Note_on_c, 0, 80, 29
3, 69238, Note_on_c, 0, 75, 38
3, 69239, Note_on_c, 0, 56, 31
3, 69240, Note_on_c, 0, 60, 47
3, 69241, Note_on_c, 0, 68, 34
3, 69270, Note_on_c, 0, 68, 0
3, 69283, Note_on_c, 0, 67, 0
3, 69283, Note_on_c, 0, 56, 0
3, 69284, Note_on_c, 0, 80, 0
3, 69291, Note_on_c, 0, 75, 0
3, 69292, Note_on_c, 0, 60, 0
3, 69295, Note_on_c, 0, 63, 0
3, 69313, Note_on_c, 0, 63, 62
3, 69314, Note_on_c, 0, 82, 71
3, 69314, Note_on_c, 0, 67, 56
3, 69316, Note_on_c, 0, 75, 61
3, 69316, Note_on_c, 0, 70, 72
3, 69316, Note_on_c, 0, 56, 61
3, 69317, Note_on_c, 0, 60, 71
3, 69319, Note_on_c, 0, 79, 48
3, 69332, Control_c, 0, 64, 0
3, 69355, Note_on_c, 0, 82, 0
3, 69356, Control_c, 0, 64, 127
3, 69360, Note_on_c, 0, 70, 0
3, 69360, Note_on_c, 0, 67, 0
3, 69364, Note_on_c, 0, 75, 0
3, 69365, Note_on_c, 0, 56, 0
3, 69367, Note_on_c, 0, 60, 0
3, 69369, Note_on_c, 0, 79, 0
3, 69372, Note_on_c, 0, 63, 0
3, 69387, Note_on_c, 0, 67, 42
3, 69389, Note_on_c, 0, 56, 47
3, 69389, Note_on_c, 0, 82, 51
3, 69390, Note_on_c, 0, 63, 52
3, 69392, Note_on_c, 0, 70, 56
3, 69392, Note_on_c, 0, 60, 57
3, 69395, Note_on_c, 0, 75, 60
3, 69397, Note_on_c, 0, 79, 31
3, 69428, Note_on_c, 0, 79, 0
3, 69432, Note_on_c, 0, 82, 0
3, 69432, Note_on_c, 0, 67, 0
3, 69439, Note_on_c, 0, 70, 0
3, 69442, Note_on_c, 0, 60, 0
3, 69445, Note_on_c, 0, 63, 0
3, 69446, Note_on_c, 0, 56, 0
3, 69450, Note_on_c, 0, 75, 0
3, 69476, Note_on_c, 0, 63, 46
3, 69477, Note_on_c, 0, 80, 37
3, 69477, Note_on_c, 0, 56, 43
3, 69478, Note_on_c, 0, 67, 43
3, 69479, Note_on_c, 0, 75, 46
3, 69483, Note_on_c, 0, 60, 39
3, 69489, Note_on_c, 0, 67, 0
3, 69498, Note_on_c, 0, 75, 0
3, 69500, Note_on_c, 0, 80, 0
3, 69513, Note_on_c, 0, 56, 0
3, 69518, Note_on_c, 0, 60, 0
3, 69519, Note_on_c, 0, 63, 0
3, 69559, Note_on_c, 0, 85, 85
3, 69560, Note_on_c, 0, 62, 80
3, 69560, Note_on_c, 0, 66, 83
3, 69561, Note_on_c, 0, 73, 70
3, 69562, Note_on_c, 0, 56, 73
3, 69566, Note_on_c, 0, 80, 53
3, 69568, Control_c, 0, 64, 0
3, 69575, Note_on_c, 0, 80, 0
3, 69610, Note_on_c, 0, 56, 0
3, 69611, Control_c, 0, 64, 127
3, 69612, Note_on_c, 0, 66, 0
3, 69614, Note_on_c, 0, 85, 0
3, 69619, Note_on_c, 0, 73, 0
3, 69636, Note_on_c, 0, 66, 48
3, 69636, Note_on_c, 0, 85, 51
3, 69640, Note_on_c, 0, 56, 48
3, 69641, Note_on_c, 0, 73, 42
3, 69673, Note_on_c, 0, 85, 0
3, 69686, Note_on_c, 0, 56, 0
3, 69688, Note_on_c, 0, 73, 0
3, 69688, Note_on_c, 0, 66, 0
3, 69711, Note_on_c, 0, 62, 0
3, 69720, Control_c, 0, 64, 0
3, 69721, Note_on_c, 0, 62, 27
3, 69723, Note_on_c, 0, 66, 48
3, 69724, Note_on_c, 0, 82, 46
3, 69727, Note_on_c, 0, 56, 37
3, 69727, Control_c, 0, 64, 127
3, 69730, Note_on_c, 0, 70, 37
3, 69738, Note_on_c, 0, 70, 0
3, 69745, Note_on_c, 0, 66, 0
3, 69752, Note_on_c, 0, 56, 0
3, 69752, Note_on_c, 0, 82, 0
3, 69761, Note_on_c, 0, 62, 0
3, 69806, Control_c, 0, 64, 0
3, 69849, Control_c, 0, 64, 127
3, 69913, Note_on_c, 0, 62, 64
3, 69914, Note_on_c, 0, 66, 61
3, 69917, Note_on_c, 0, 56, 47
3, 69922, Control_c, 0, 64, 0
3, 69931, Note_on_c, 0, 66, 0
3, 69933, Note_on_c, 0, 62, 0
3, 69938, Note_on_c, 0, 56, 0
3, 70025, Control_c, 0, 64, 127
3, 70027, Note_on_c, 0, 66, 54
3, 70028, Note_on_c, 0, 56, 57
3, 70030, Note_on_c, 0, 87, 71
3, 70030, Note_on_c, 0, 75, 60
3, 70031, Note_on_c, 0, 62, 42
3, 70032, Note_on_c, 0, 82, 55
3, 70036, Note_on_c, 0, 66, 0
3, 70039, Note_on_c, 0, 62, 0
3, 70039, Note_on_c, 0, 75, 0
3, 70040, Note_on_c, 0, 82, 0
3, 70047, Note_on_c, 0, 56, 0
3, 70049, Note_on_c, 0, 87, 0
3, 70088, Control_c, 0, 64, 0
3, 70096, Note_on_c, 0, 61, 55
3, 70096, Note_on_c, 0, 64, 66
3, 70097, Note_on_c, 0, 92, 76
3, 70100, Note_on_c, 0, 79, 40
3, 70100, Note_on_c, 0, 57, 58
3, 70101, Note_on_c, 0, 85, 57
3, 70106, Note_on_c, 0, 54, 23
3, 70109, Note_on_c, 0, 85, 0
3, 70111, Note_on_c, 0, 79, 0
3, 70119, Note_on_c, 0, 64, 0
3, 70125, Note_on_c, 0, 57, 0
3, 70126, Note_on_c, 0, 92, 0
3, 70126, Note_on_c, 0, 54, 0
3, 70130, Note_on_c, 0, 61, 0
3, 70141, Control_c, 0, 64, 127
3, 70162, Control_c, 0, 64, 0
3, 70177, Note_on_c, 0, 61, 51
3, 70178, Note_on_c, 0, 92, 74
3, 70178, Note_on_c, 0, 64, 68
3, 70181, Note_on_c, 0, 85, 50
3, 70181, Note_on_c, 0, 81, 50
3, 70185, Note_on_c, 0, 92, 0
3, 70186, Note_on_c, 0, 57, 43
3, 70187, Note_on_c, 0, 64, 0
3, 70189, Note_on_c, 0, 85, 0
3, 70190, Note_on_c, 0, 81, 0
3, 70198, Note_on_c, 0, 61, 0
3, 70198, Note_on_c, 0, 57, 0
3, 70215, Control_c, 0, 64, 127
3, 70278, Note_on_c, 0, 59, 73
3, 70282, Note_on_c, 0, 56, 65
3, 70288, Note_on_c, 0, 65, 27
3, 70292, Note_on_c, 0, 59, 0
3, 70297, Note_on_c, 0, 65, 0
3, 70299, Control_c, 0, 64, 0
3, 70300, Note_on_c, 0, 56, 0
3, 70317, Note_on_c, 0, 54, 67
3, 70350, Note_on_c, 0, 54, 0
3, 70352, Note_on_c, 0, 68, 70
3, 70354, Note_on_c, 0, 64, 65
3, 70355, Note_on_c, 0, 56, 83
3, 70356, Note_on_c, 0, 61, 61
3, 70356, Note_on_c, 0, 57, 66
3, 70359, Note_on_c, 0, 66, 47
3, 70390, Note_on_c, 0, 66, 0
3, 70425, Note_on_c, 0, 57, 0
3, 70426, Note_on_c, 0, 64, 0
3, 70431, Note_on_c, 0, 61, 0
3, 70434, Note_on_c, 0, 68, 0
3, 70443, Note_on_c, 0, 56, 0
3, 70443, Note_on_c, 0, 66, 49
3, 70446, Note_on_c, 0, 54, 57
3, 70446, Note_on_c, 0, 61, 25
3, 70450, Note_on_c, 0, 57, 37
3, 70451, Control_c, 0, 64, 127
3, 70464, Note_on_c, 0, 57, 0
3, 70472, Note_on_c, 0, 61, 0
3, 70480, Note_on_c, 0, 66, 0
3, 70518, Note_on_c, 0, 68, 83
3, 70519, Note_on_c, 0, 61, 86
3, 70520, Note_on_c, 0, 63, 77
3, 70521, Note_on_c, 0, 57, 94
3, 70522, Note_on_c, 0, 54, 0
3, 70523, Note_on_c, 0, 56, 87
3, 70531, Control_c, 0, 64, 0
3, 70543, Note_on_c, 0, 57, 0
3, 70562, Note_on_c, 0, 63, 0
3, 70564, Note_on_c, 0, 68, 0
3, 70565, Note_on_c, 0, 61, 0
3, 70571, Note_on_c, 0, 57, 44
3, 70582, Note_on_c, 0, 68, 9
3, 70589, Note_on_c, 0, 57, 0
3, 70590, Note_on_c, 0, 61, 23
3, 70597, Note_on_c, 0, 63, 25
3, 70612, Note_on_c, 0, 57, 43
3, 70613, Note_on_c, 0, 63, 0
3, 70613, Note_on_c, 0, 68, 0
3, 70623, Note_on_c, 0, 61, 0
3, 70633, Note_on_c, 0, 57, 0
3, 70636, Note_on_c, 0, 68, 23
3, 70640, Note_on_c, 0, 61, 26
3, 70659, Note_on_c, 0, 68, 0
3, 70661, Note_on_c, 0, 57, 46
3, 70669, Note_on_c, 0, 61, 0
3, 70669, Note_on_c, 0, 56, 0
3, 70678, Note_on_c, 0, 68, 15
3, 70680, Note_on_c, 0, 57, 0
3, 70683, Note_on_c, 0, 61, 25
3, 70707, Note_on_c, 0, 57, 44
3, 70718, Note_on_c, 0, 61, 0
3, 70727, Note_on_c, 0, 57, 0
3, 70729, Note_on_c, 0, 61, 27
3, 70735, Note_on_c, 0, 63, 28
3, 70749, Note_on_c, 0, 63, 0
3, 70752, Note_on_c, 0, 57, 46
3, 70757, Note_on_c, 0, 68, 0
3, 70763, Note_on_c, 0, 61, 0
3, 70770, Note_on_c, 0, 68, 14
3, 70775, Note_on_c, 0, 57, 0
3, 70776, Note_on_c, 0, 61, 33
3, 70781, Note_on_c, 0, 63, 26
3, 70791, Note_on_c, 0, 63, 0
3, 70795, Note_on_c, 0, 68, 0
3, 70798, Note_on_c, 0, 57, 45
3, 70802, Note_on_c, 0, 61, 0
3, 70815, Note_on_c, 0, 68, 26
3, 70817, Note_on_c, 0, 57, 0
3, 70822, Note_on_c, 0, 61, 37
3, 70830, Note_on_c, 0, 63, 25
3, 70841, Note_on_c, 0, 63, 0
3, 70845, Note_on_c, 0, 57, 48
3, 70855, Note_on_c, 0, 61, 0
3, 70869, Note_on_c, 0, 61, 32
3, 70873, Note_on_c, 0, 57, 0
3, 70873, Note_on_c, 0, 63, 37
3, 70878, Note_on_c, 0, 56, 77
3, 70894, Note_on_c, 0, 63, 0
3, 70897, Note_on_c, 0, 57, 50
3, 70902, Note_on_c, 0, 61, 0
3, 70920, Note_on_c, 0, 57, 0
3, 70920, Note_on_c, 0, 61, 25
3, 70921, Note_on_c, 0, 63, 31
3, 70941, Note_on_c, 0, 63, 0
3, 70945, Note_on_c, 0, 61, 0
3, 70946, Note_on_c, 0, 57, 49
3, 70966, Note_on_c, 0, 57, 0
3, 70966, Control_c, 0, 64, 127
3, 70971, Note_on_c, 0, 56, 0
3, 70975, Note_on_c, 0, 54, 36
3, 70982, Note_on_c, 0, 66, 30
3, 70983, Note_on_c, 0, 54, 0
3, 70985, Note_on_c, 0, 61, 7
3, 70998, Note_on_c, 0, 68, 0
3, 71007, Note_on_c, 0, 66, 0
3, 71027, Note_on_c, 0, 61, 0
3, 71036, Control_c, 0, 64, 0
3, 71049, Note_on_c, 0, 45, 77
3, 71052, Note_on_c, 0, 65, 60
3, 71074, Control_c, 0, 64, 127
3, 71085, Note_on_c, 0, 45, 0
3, 71086, Note_on_c, 0, 65, 0
3, 71243, Note_on_c, 0, 66, 83
3, 71243, Note_on_c, 0, 61, 74
3, 71244, Note_on_c, 0, 55, 89
3, 71245, Note_on_c, 0, 89, 89
3, 71245, Note_on_c, 0, 77, 87
3, 71245, Note_on_c, 0, 84, 85
3, 71250, Control_c, 0, 64, 0
3, 71284, Control_c, 0, 64, 127
3, 71290, Note_on_c, 0, 89, 0
3, 71292, Note_on_c, 0, 55, 0
3, 71296, Note_on_c, 0, 66, 0
3, 71298, Note_on_c, 0, 84, 0
3, 71299, Note_on_c, 0, 77, 0
3, 71307, Note_on_c, 0, 61, 0
3, 71312, Note_on_c, 0, 89, 61
3, 71314, Note_on_c, 0, 66, 59
3, 71315, Note_on_c, 0, 61, 27
3, 71315, Note_on_c, 0, 55, 65
3, 71317, Note_on_c, 0, 84, 74
3, 71317, Note_on_c, 0, 77, 58
3, 71344, Note_on_c, 0, 89, 0
3, 71351, Note_on_c, 0, 55, 0
3, 71352, Note_on_c, 0, 77, 0
3, 71359, Note_on_c, 0, 66, 0
3, 71359, Note_on_c, 0, 84, 0
3, 71371, Note_on_c, 0, 61, 0
3, 71384, Note_on_c, 0, 66, 54
3, 71385, Note_on_c, 0, 87, 71
3, 71388, Note_on_c, 0, 61, 52
3, 71388, Note_on_c, 0, 55, 64
3, 71388, Note_on_c, 0, 75, 60
3, 71390, Control_c, 0, 64, 0
3, 71396, Note_on_c, 0, 75, 0
3, 71407, Control_c, 0, 64, 127
3, 71409, Note_on_c, 0, 55, 0
3, 71410, Note_on_c, 0, 66, 0
3, 71410, Note_on_c, 0, 87, 0
3, 71443, Note_on_c, 0, 61, 0
3, 71478, Note_on_c, 0, 61, 79
3, 71479, Note_on_c, 0, 65, 92
3, 71479, Note_on_c, 0, 58, 79
3, 71480, Note_on_c, 0, 54, 81
3, 71481, Note_on_c, 0, 82, 83
3, 71481, Note_on_c, 0, 77, 90
3, 71481, Note_on_c, 0, 89, 88
3, 71483, Note_on_c, 0, 85, 77
3, 71494, Control_c, 0, 64, 0
3, 71523, Control_c, 0, 64, 127
3, 71640, Note_on_c, 0, 89, 0
3, 71650, Note_on_c, 0, 85, 0
3, 71651, Note_on_c, 0, 82, 0
3, 71655, Note_on_c, 0, 77, 0
3, 71660, Note_on_c, 0, 65, 0
3, 71664, Note_on_c, 0, 54, 0
3, 71680, Note_on_c, 0, 58, 0
3, 71688, Note_on_c, 0, 61, 0
3, 71751, Control_c, 0, 64, 0
3, 71754, Note_on_c, 0, 61, 42
3, 71755, Note_on_c, 0, 80, 40
3, 71756, Note_on_c, 0, 65, 45
3, 71756, Note_on_c, 0, 54, 35
3, 71757, Note_on_c, 0, 58, 44
3, 71757, Note_on_c, 0, 72, 50
3, 71758, Note_on_c, 0, 84, 43
3, 71761, Note_on_c, 0, 77, 26
3, 71766, Note_on_c, 0, 84, 0
3, 71768, Note_on_c, 0, 65, 0
3, 71772, Note_on_c, 0, 77, 0
3, 71773, Note_on_c, 0, 72, 0
3, 71775, Note_on_c, 0, 80, 0
3, 71779, Note_on_c, 0, 61, 0
3, 71781, Note_on_c, 0, 54, 0
3, 71787, Note_on_c, 0, 58, 0
3, 71870, Note_on_c, 0, 61, 46
3, 71870, Note_on_c, 0, 80, 52
3, 71871, Note_on_c, 0, 65, 51
3, 71874, Note_on_c, 0, 68, 48
3, 71875, Note_on_c, 0, 54, 32
3, 71876, Note_on_c, 0, 58, 37
3, 71876, Note_on_c, 0, 75, 46
3, 71883, Note_on_c, 0, 65, 0
3, 71884, Note_on_c, 0, 75, 0
3, 71886, Note_on_c, 0, 68, 0
3, 71893, Note_on_c, 0, 80, 0
3, 71902, Note_on_c, 0, 61, 0
3, 71904, Note_on_c, 0, 58, 0
3, 71906, Note_on_c, 0, 54, 0
3, 71924, Note_on_c, 0, 61, 19
3, 71948, Note_on_c, 0, 61, 0
3, 71989, Note_on_c, 0, 77, 47
3, 71990, Note_on_c, 0, 72, 55
3, 71991, Note_on_c, 0, 63, 27
3, 71991, Note_on_c, 0, 60, 37
3, 71992, Control_c, 0, 64, 127
3, 71993, Note_on_c, 0, 65, 42
3, 71994, Note_on_c, 0, 56, 32
3, 71997, Note_on_c, 0, 53, 30
3, 72097, Note_on_c, 0, 65, 0
3, 72097, Note_on_c, 0, 63, 0
3, 72121, Note_on_c, 0, 72, 0
3, 72147, Note_on_c, 0, 56, 0
3, 72156, Note_on_c, 0, 60, 0
3, 72158, Note_on_c, 0, 77, 0
3, 72227, Note_on_c, 0, 63, 33
3, 72230, Note_on_c, 0, 60, 40
3, 72232, Note_on_c, 0, 56, 31
3, 72242, Control_c, 0, 64, 0
3, 72274, Note_on_c, 0, 75, 71
3, 72305, Note_on_c, 0, 75, 0
3, 72306, Note_on_c, 0, 73, 36
3, 72324, Note_on_c, 0, 73, 0
3, 72349, Note_on_c, 0, 75, 72
3, 72367, Note_on_c, 0, 75, 0
3, 72375, Note_on_c, 0, 60, 0
3, 72391, Note_on_c, 0, 75, 64
3, 72392, Note_on_c, 0, 53, 0
3, 72395, Note_on_c, 0, 63, 0
3, 72418, Note_on_c, 0, 75, 0
3, 72423, Note_on_c, 0, 56, 0
3, 72427, Note_on_c, 0, 73, 39
3, 72450, Note_on_c, 0, 73, 0
3, 72471, Note_on_c, 0, 75, 68
3, 72473, Note_on_c, 0, 63, 46
3, 72482, Note_on_c, 0, 52, 36
3, 72485, Note_on_c, 0, 58, 32
3, 72491, Note_on_c, 0, 75, 0
3, 72516, Note_on_c, 0, 75, 56
3, 72544, Note_on_c, 0, 75, 0
3, 72552, Note_on_c, 0, 73, 37
3, 72581, Note_on_c, 0, 73, 0
3, 72600, Note_on_c, 0, 75, 59
3, 72661, Note_on_c, 0, 52, 0
3, 72669, Note_on_c, 0, 75, 0
3, 72670, Note_on_c, 0, 58, 0
3, 72672, Note_on_c, 0, 63, 0
3, 72798, Note_on_c, 0, 63, 48
3, 72801, Note_on_c, 0, 58, 48
3, 72826, Note_on_c, 0, 52, 3
3, 72851, Control_c, 0, 64, 127
3, 72915, Note_on_c, 0, 52, 0
3, 72918, Note_on_c, 0, 73, 77
3, 72921, Note_on_c, 0, 58, 0
3, 72923, Note_on_c, 0, 63, 0
3, 72946, Note_on_c, 0, 73, 0
3, 72964, Control_c, 0, 64, 0
3, 72965, Note_on_c, 0, 63, 42
3, 72965, Note_on_c, 0, 72, 79
3, 72979, Note_on_c, 0, 60, 15
3, 72985, Note_on_c, 0, 53, 25
3, 73005, Note_on_c, 0, 72, 0
3, 73009, Note_on_c, 0, 73, 29
3, 73030, Note_on_c, 0, 73, 0
3, 73030, Note_on_c, 0, 72, 59
3, 73049, Note_on_c, 0, 63, 0
3, 73052, Note_on_c, 0, 56, 1
3, 73055, Note_on_c, 0, 72, 0
3, 73058, Note_on_c, 0, 71, 45
3, 73067, Note_on_c, 0, 71, 0
3, 73081, Note_on_c, 0, 72, 65
3, 73114, Note_on_c, 0, 60, 0
3, 73129, Note_on_c, 0, 56, 0
3, 73148, Note_on_c, 0, 72, 0
3, 73180, Note_on_c, 0, 53, 0
3, 73237, Control_c, 0, 64, 127
3, 73251, Control_c, 0, 64, 0
3, 73268, Note_on_c, 0, 63, 32
3, 73268, Note_on_c, 0, 60, 46
3, 73272, Note_on_c, 0, 56, 34
3, 73279, Note_on_c, 0, 63, 0
3, 73280, Note_on_c, 0, 60, 0
3, 73297, Note_on_c, 0, 56, 0
3, 73382, Note_on_c, 0, 78, 58
3, 73382, Note_on_c, 0, 71, 80
3, 73383, Note_on_c, 0, 83, 64
3, 73384, Note_on_c, 0, 57, 64
3, 73384, Note_on_c, 0, 63, 59
3, 73386, Note_on_c, 0, 68, 64
3, 73387, Note_on_c, 0, 61, 37
3, 73398, Control_c, 0, 64, 127
3, 73415, Note_on_c, 0, 71, 0
3, 73419, Note_on_c, 0, 57, 0
3, 73423, Note_on_c, 0, 68, 0
3, 73424, Note_on_c, 0, 83, 0
3, 73436, Note_on_c, 0, 61, 0
3, 73441, Note_on_c, 0, 63, 0
3, 73441, Note_on_c, 0, 78, 0
3, 73443, Control_c, 0, 64, 0
3, 73445, Note_on_c, 0, 79, 30
3, 73455, Note_on_c, 0, 79, 0
3, 73456, Note_on_c, 0, 77, 36
3, 73459, Note_on_c, 0, 82, 49
3, 73459, Note_on_c, 0, 67, 32
3, 73460, Note_on_c, 0, 62, 38
3, 73464, Note_on_c, 0, 70, 44
3, 73467, Note_on_c, 0, 60, 49
3, 73467, Note_on_c, 0, 56, 27
3, 73496, Note_on_c, 0, 70, 0
3, 73501, Note_on_c, 0, 67, 0
3, 73502, Note_on_c, 0, 82, 0
3, 73504, Note_on_c, 0, 77, 0
3, 73507, Note_on_c, 0, 62, 0
3, 73509, Note_on_c, 0, 60, 0
3, 73513, Note_on_c, 0, 56, 0
3, 73532, Note_on_c, 0, 82, 49
3, 73535, Note_on_c, 0, 67, 44
3, 73538, Note_on_c, 0, 70, 27
3, 73539, Note_on_c, 0, 62, 26
3, 73546, Note_on_c, 0, 70, 0
3, 73549, Note_on_c, 0, 67, 0
3, 73552, Note_on_c, 0, 62, 0
3, 73553, Note_on_c, 0, 82, 0
3, 73687, Control_c, 0, 64, 127
3, 73754, Note_on_c, 0, 67, 70
3, 73756, Note_on_c, 0, 62, 51
3, 73759, Note_on_c, 0, 60, 48
3, 73762, Note_on_c, 0, 67, 0
3, 73766, Control_c, 0, 64, 0
3, 73769, Note_on_c, 0, 60, 0
3, 73772, Note_on_c, 0, 62, 0
3, 73848, Control_c, 0, 64, 127
3, 73877, Note_on_c, 0, 54, 46
3, 73893, Control_c, 0, 64, 0
3, 73903, Note_on_c, 0, 54, 0
3, 73909, Note_on_c, 0, 61, 53
3, 73909, Note_on_c, 0, 68, 59
3, 73910, Note_on_c, 0, 57, 69
3, 73912, Note_on_c, 0, 64, 55
3, 73913, Note_on_c, 0, 56, 65
3, 73918, Note_on_c, 0, 66, 31
3, 73977, Note_on_c, 0, 57, 0
3, 73983, Note_on_c, 0, 68, 0
3, 73986, Note_on_c, 0, 64, 0
3, 73986, Note_on_c, 0, 56, 0
3, 73989, Note_on_c, 0, 61, 0
3, 73990, Note_on_c, 0, 66, 0
3, 74004, Note_on_c, 0, 54, 43
3, 74029, Note_on_c, 0, 61, 45
3, 74030, Note_on_c, 0, 68, 50
3, 74031, Note_on_c, 0, 57, 58
3, 74031, Note_on_c, 0, 64, 61
3, 74033, Note_on_c, 0, 54, 0
3, 74035, Note_on_c, 0, 56, 51
3, 74097, Note_on_c, 0, 64, 0
3, 74100, Note_on_c, 0, 57, 0
3, 74112, Note_on_c, 0, 68, 0
3, 74116, Note_on_c, 0, 61, 0
3, 74116, Note_on_c, 0, 56, 0
3, 74125, Note_on_c, 0, 54, 52
3, 74153, Note_on_c, 0, 54, 0
3, 74156, Note_on_c, 0, 68, 63
3, 74159, Note_on_c, 0, 64, 60
3, 74160, Note_on_c, 0, 57, 50
3, 74161, Note_on_c, 0, 61, 36
3, 74161, Note_on_c, 0, 56, 56
3, 74190, Control_c, 0, 64, 127
3, 74201, Note_on_c, 0, 57, 0
3, 74207, Note_on_c, 0, 64, 0
3, 74219, Note_on_c, 0, 68, 0
3, 74219, Note_on_c, 0, 61, 0
3, 74228, Control_c, 0, 64, 0
3, 74233, Note_on_c, 0, 56, 0
3, 74235, Note_on_c, 0, 61, 46
3, 74237, Note_on_c, 0, 66, 57
3, 74238, Note_on_c, 0, 54, 53
3, 74240, Note_on_c, 0, 57, 40
3, 74249, Note_on_c, 0, 57, 0
3, 74253, Note_on_c, 0, 61, 0
3, 74260, Note_on_c, 0, 54, 0
3, 74262, Note_on_c, 0, 66, 0
3, 74298, Control_c, 0, 64, 127
3, 74334, Control_c, 0, 64, 0
3, 74348, Note_on_c, 0, 57, 53
3, 74349, Note_on_c, 0, 68, 45
3, 74350, Note_on_c, 0, 61, 42
3, 74350, Note_on_c, 0, 56, 60
3, 74352, Note_on_c, 0, 47, 50
3, 74354, Note_on_c, 0, 63, 25
3, 74357, Note_on_c, 0, 57, 0
3, 74358, Note_on_c, 0, 61, 0
3, 74360, Note_on_c, 0, 47, 0
3, 74362, Note_on_c, 0, 63, 0
3, 74364, Note_on_c, 0, 56, 0
3, 74365, Note_on_c, 0, 68, 0
3, 74408, Control_c, 0, 64, 127
3, 74459, Control_c, 0, 64, 0
3, 74460, Note_on_c, 0, 80, 68
3, 74460, Note_on_c, 0, 68, 71
3, 74462, Note_on_c, 0, 75, 58
3, 74462, Note_on_c, 0, 69, 68
3, 74462, Note_on_c, 0, 73, 42
3, 74470, Note_on_c, 0, 69, 0
3, 74472, Note_on_c, 0, 75, 0
3, 74472, Note_on_c, 0, 73, 0
3, 74472, Note_on_c, 0, 80, 0
3, 74475, Note_on_c, 0, 68, 0
3, 74499, Note_on_c, 0, 66, 52
3, 74525, Note_on_c, 0, 66, 0
3, 74533, Note_on_c, 0, 80, 83
3, 74534, Note_on_c, 0, 73, 73
3, 74534, Note_on_c, 0, 75, 83
3, 74535, Note_on_c, 0, 69, 91
3, 74539, Note_on_c, 0, 68, 90
3, 74563, Control_c, 0, 64, 127
3, 74599, Control_c, 0, 64, 0
3, 74608, Note_on_c, 0, 69, 0
3, 74608, Note_on_c, 0, 75, 0
3, 74608, Note_on_c, 0, 73, 0
3, 74614, Note_on_c, 0, 80, 0
3, 74620, Note_on_c, 0, 68, 0
3, 74629, Note_on_c, 0, 78, 43
3, 74630, Control_c, 0, 64, 127
3, 74631, Note_on_c, 0, 66, 50
3, 74657, Note_on_c, 0, 78, 0
3, 74684, Note_on_c, 0, 66, 0
3, 74684, Control_c, 0, 64, 0
3, 74687, Note_on_c, 0, 80, 74
3, 74688, Note_on_c, 0, 75, 72
3, 74688, Note_on_c, 0, 73, 55
3, 74689, Note_on_c, 0, 69, 78
3, 74690, Note_on_c, 0, 68, 74
3, 74728, Note_on_c, 0, 73, 0
3, 74729, Note_on_c, 0, 69, 0
3, 74729, Note_on_c, 0, 75, 0
3, 74734, Note_on_c, 0, 80, 0
3, 74738, Note_on_c, 0, 68, 0
3, 74748, Note_on_c, 0, 66, 51
3, 74757, Note_on_c, 0, 66, 0
3, 74758, Control_c, 0, 64, 127
3, 74759, Note_on_c, 0, 78, 62
3, 74760, Note_on_c, 0, 75, 67
3, 74761, Note_on_c, 0, 73, 44
3, 74762, Note_on_c, 0, 69, 66
3, 74792, Note_on_c, 0, 75, 0
3, 74792, Note_on_c, 0, 78, 0
3, 74793, Note_on_c, 0, 73, 0
3, 74793, Note_on_c, 0, 69, 0
3, 74874, Note_on_c, 0, 61, 61
3, 74875, Note_on_c, 0, 77, 77
3, 74875, Note_on_c, 0, 72, 91
3, 74876, Control_c, 0, 64, 0
3, 74876, Note_on_c, 0, 66, 69
3, 74877, Note_on_c, 0, 55, 74
3, 74930, Note_on_c, 0, 55, 0
3, 74930, Note_on_c, 0, 66, 0
3, 74931, Control_c, 0, 64, 127
3, 74934, Note_on_c, 0, 72, 0
3, 74938, Note_on_c, 0, 77, 0
3, 74943, Note_on_c, 0, 61, 0
3, 74951, Control_c, 0, 64, 0
3, 74953, Note_on_c, 0, 77, 34
3, 74953, Note_on_c, 0, 66, 47
3, 74954, Note_on_c, 0, 55, 60
3, 74954, Note_on_c, 0, 61, 35
3, 74954, Note_on_c, 0, 72, 66
3, 74978, Note_on_c, 0, 55, 0
3, 74978, Note_on_c, 0, 66, 0
3, 74979, Note_on_c, 0, 72, 0
3, 74987, Note_on_c, 0, 77, 0
3, 74992, Note_on_c, 0, 61, 0
3, 74999, Note_on_c, 0, 66, 46
3, 75002, Note_on_c, 0, 61, 27
3, 75002, Note_on_c, 0, 77, 31
3, 75003, Note_on_c, 0, 72, 53
3, 75004, Note_on_c, 0, 55, 61
3, 75036, Note_on_c, 0, 55, 0
3, 75040, Control_c, 0, 64, 127
3, 75049, Note_on_c, 0, 66, 0
3, 75050, Note_on_c, 0, 72, 0
3, 75052, Note_on_c, 0, 77, 0
3, 75057, Note_on_c, 0, 61, 0
3, 75080, Note_on_c, 0, 72, 60
3, 75081, Note_on_c, 0, 77, 49
3, 75082, Note_on_c, 0, 66, 43
3, 75082, Note_on_c, 0, 61, 37
3, 75096, Note_on_c, 0, 66, 0
3, 75102, Control_c, 0, 64, 0
3, 75103, Note_on_c, 0, 72, 0
3, 75108, Note_on_c, 0, 61, 0
3, 75109, Note_on_c, 0, 77, 0
3, 75189, Control_c, 0, 64, 127
3, 75211, Control_c, 0, 64, 0
3, 75285, Control_c, 0, 64, 127
3, 75314, Note_on_c, 0, 56, 61
3, 75316, Note_on_c, 0, 62, 50
3, 75317, Note_on_c, 0, 66, 34
3, 75319, Note_on_c, 0, 72, 82
3, 75319, Note_on_c, 0, 77, 66
3, 75324, Note_on_c, 0, 62, 0
3, 75325, Note_on_c, 0, 66, 0
3, 75337, Note_on_c, 0, 72, 0
3, 75341, Note_on_c, 0, 56, 0
3, 75347, Note_on_c, 0, 77, 0
3, 75372, Control_c, 0, 64, 0
3, 75377, Note_on_c, 0, 77, 53
3, 75378, Note_on_c, 0, 65, 70
3, 75378, Note_on_c, 0, 74, 49
3, 75380, Note_on_c, 0, 54, 47
3, 75380, Note_on_c, 0, 58, 46
3, 75382, Note_on_c, 0, 60, 50
3, 75382, Note_on_c, 0, 70, 49
3, 75423, Note_on_c, 0, 65, 0
3, 75426, Note_on_c, 0, 70, 0
3, 75427, Note_on_c, 0, 54, 0
3, 75429, Note_on_c, 0, 77, 0
3, 75432, Note_on_c, 0, 74, 0
3, 75433, Note_on_c, 0, 60, 0
3, 75439, Note_on_c, 0, 58, 0
3, 75450, Note_on_c, 0, 70, 52
3, 75450, Note_on_c, 0, 65, 56
3, 75451, Note_on_c, 0, 77, 39
3, 75453, Note_on_c, 0, 74, 54
3, 75455, Note_on_c, 0, 60, 54
3, 75460, Note_on_c, 0, 65, 0
3, 75460, Note_on_c, 0, 58, 23
3, 75465, Note_on_c, 0, 70, 0
3, 75468, Note_on_c, 0, 74, 0
3, 75469, Note_on_c, 0, 77, 0
3, 75472, Note_on_c, 0, 60, 0
3, 75484, Note_on_c, 0, 58, 0
3, 75590, Note_on_c, 0, 70, 48
3, 75591, Note_on_c, 0, 60, 43
3, 75591, Note_on_c, 0, 65, 62
3, 75591, Note_on_c, 0, 77, 48
3, 75592, Note_on_c, 0, 74, 39
3, 75594, Note_on_c, 0, 58, 33
3, 75598, Note_on_c, 0, 54, 29
3, 75605, Control_c, 0, 64, 127
3, 75672, Note_on_c, 0, 60, 0
3, 75682, Note_on_c, 0, 77, 0
3, 75686, Note_on_c, 0, 58, 0
3, 75687, Note_on_c, 0, 74, 0
3, 75693, Note_on_c, 0, 54, 0
3, 75708, Note_on_c, 0, 65, 0
3, 75708, Note_on_c, 0, 70, 0
3, 75954, Control_c, 0, 64, 0
3, 75956, Note_on_c, 0, 71, 68
3, 75956, Note_on_c, 0, 68, 46
3, 75957, Note_on_c, 0, 64, 76
3, 75962, Note_on_c, 0, 59, 54
3, 75962, Note_on_c, 0, 44, 74
3, 75962, Note_on_c, 0, 60, 53
3, 76005, Control_c, 0, 64, 127
3, 76027, Note_on_c, 0, 59, 0
3, 76048, Note_on_c, 0, 44, 0
3, 76053, Note_on_c, 0, 71, 0
3, 76053, Note_on_c, 0, 60, 0
3, 76054, Note_on_c, 0, 64, 0
3, 76077, Note_on_c, 0, 68, 0
3, 76148, Note_on_c, 0, 72, 65
3, 76148, Note_on_c, 0, 45, 67
3, 76148, Note_on_c, 0, 65, 80
3, 76149, Note_on_c, 0, 69, 60
3, 76151, Note_on_c, 0, 55, 66
3, 76151, Note_on_c, 0, 60, 71
3, 76155, Control_c, 0, 64, 0
3, 76200, Control_c, 0, 64, 127
3, 76238, Note_on_c, 0, 69, 0
3, 76240, Note_on_c, 0, 60, 0
3, 76241, Note_on_c, 0, 65, 0
3, 76242, Note_on_c, 0, 72, 0
3, 76242, Note_on_c, 0, 45, 0
3, 76273, Note_on_c, 0, 55, 0
3, 76318, Control_c, 0, 64, 0
3, 76320, Note_on_c, 0, 73, 60
3, 76321, Note_on_c, 0, 61, 84
3, 76321, Note_on_c, 0, 46, 80
3, 76321, Note_on_c, 0, 66, 76
3, 76322, Note_on_c, 0, 70, 67
3, 76322, Note_on_c, 0, 56, 79
3, 76370, Control_c, 0, 64, 127
3, 76429, Note_on_c, 0, 46, 0
3, 76431, Note_on_c, 0, 56, 0
3, 76432, Note_on_c, 0, 61, 0
3, 76438, Note_on_c, 0, 66, 0
3, 76440, Note_on_c, 0, 70, 0
3, 76445, Note_on_c, 0, 73, 0
3, 76505, Note_on_c, 0, 74, 69
3, 76506, Note_on_c, 0, 67, 78
3, 76506, Note_on_c, 0, 71, 69
3, 76507, Note_on_c, 0, 57, 79
3, 76507, Note_on_c, 0, 62, 81
3, 76507, Note_on_c, 0, 47, 74
3, 76513, Note_on_c, 0, 72, 49
3, 76514, Control_c, 0, 64, 0
3, 76565, Control_c, 0, 64, 127
3, 76667, Note_on_c, 0, 47, 0
3, 76667, Note_on_c, 0, 62, 0
3, 76670, Note_on_c, 0, 67, 0
3, 76680, Note_on_c, 0, 74, 0
3, 76680, Note_on_c, 0, 71, 0
3, 76682, Note_on_c, 0, 72, 0
3, 76688, Note_on_c, 0, 57, 0
3, 76791, Control_c, 0, 64, 0
3, 76794, Note_on_c, 0, 75, 57
3, 76796, Note_on_c, 0, 72, 55
3, 76796, Note_on_c, 0, 58, 46
3, 76797, Note_on_c, 0, 68, 50
3, 76798, Note_on_c, 0, 48, 52
3, 76799, Note_on_c, 0, 64, 51
3, 76839, Control_c, 0, 64, 127
3, 76892, Note_on_c, 0, 48, 0
3, 76902, Note_on_c, 0, 72, 0
3, 76914, Note_on_c, 0, 64, 0
3, 76919, Note_on_c, 0, 75, 0
3, 76931, Note_on_c, 0, 58, 0
3, 76942, Note_on_c, 0, 68, 0
3, 77022, Control_c, 0, 64, 0
3, 77029, Note_on_c, 0, 76, 32
3, 77030, Note_on_c, 0, 64, 33
3, 77030, Note_on_c, 0, 68, 36
3, 77032, Note_on_c, 0, 71, 36
3, 77034, Note_on_c, 0, 59, 43
3, 77037, Note_on_c, 0, 49, 35
3, 77056, Control_c, 0, 64, 127
3, 77100, Note_on_c, 0, 49, 0
3, 77105, Note_on_c, 0, 59, 0
3, 77122, Note_on_c, 0, 64, 0
3, 77125, Note_on_c, 0, 68, 0
3, 77133, Note_on_c, 0, 71, 0
3, 77150, Note_on_c, 0, 76, 0
3, 77265, Control_c, 0, 64, 0
3, 77266, Note_on_c, 0, 63, 42
3, 77266, Note_on_c, 0, 77, 51
3, 77268, Note_on_c, 0, 72, 54
3, 77269, Note_on_c, 0, 65, 44
3, 77271, Note_on_c, 0, 53, 35
3, 77275, Note_on_c, 0, 58, 33
3, 77296, Control_c, 0, 64, 127
3, 77309, Control_c, 0, 64, 127
3, 77345, Note_on_c, 0, 53, 0
3, 77348, Note_on_c, 0, 65, 0
3, 77364, Note_on_c, 0, 58, 0
3, 77366, Note_on_c, 0, 72, 0
3, 77368, Note_on_c, 0, 63, 0
3, 77374, Note_on_c, 0, 77, 0
3, 77503, Control_c, 0, 64, 0
3, 77511, Control_c, 0, 64, 0
3, 77512, Note_on_c, 0, 61, 36
3, 77514, Note_on_c, 0, 65, 53
3, 77514, Note_on_c, 0, 80, 52
3, 77517, Note_on_c, 0, 75, 50
3, 77518, Note_on_c, 0, 58, 44
3, 77519, Note_on_c, 0, 54, 32
3, 77519, Note_on_c, 0, 68, 31
3, 77554, Control_c, 0, 64, 127
3, 77570, Note_on_c, 0, 68, 0
3, 77588, Note_on_c, 0, 75, 0
3, 77597, Note_on_c, 0, 65, 0
3, 77604, Note_on_c, 0, 80, 0
3, 77617, Note_on_c, 0, 58, 0
3, 77618, Note_on_c, 0, 61, 0
3, 77624, Note_on_c, 0, 54, 0
3, 77646, Note_on_c, 0, 77, 85
3, 77754, Control_c, 0, 64, 0
3, 77757, Note_on_c, 0, 96, 49
3, 77758, Note_on_c, 0, 84, 33
3, 77760, Note_on_c, 0, 63, 27
3, 77761, Note_on_c, 0, 77, 0
3, 77761, Note_on_c, 0, 89, 31
3, 77762, Note_on_c, 0, 60, 44
3, 77764, Note_on_c, 0, 53, 36
3, 77767, Note_on_c, 0, 72, 58
3, 77768, Note_on_c, 0, 63, 20
3, 77768, Note_on_c, 0, 58, 32
3, 77770, Note_on_c, 0, 60, 38
3, 77771, Note_on_c, 0, 58, 37
3, 77771, Note_on_c, 0, 53, 30
3, 77891, Control_c, 0, 64, 127
3, 77947, Note_on_c, 0, 60, 0
3, 77957, Note_on_c, 0, 84, 0
3, 77961, Note_on_c, 0, 63, 0
3, 77963, Note_on_c, 0, 89, 0
3, 77966, Note_on_c, 0, 58, 0
3, 77969, Note_on_c, 0, 96, 0
3, 78017, Note_on_c, 0, 63, 34
3, 78024, Note_on_c, 0, 60, 38
3, 78024, Note_on_c, 0, 58, 15
3, 78035, Note_on_c, 0, 53, 0
3, 78045, Note_on_c, 0, 60, 0
3, 78047, Note_on_c, 0, 63, 0
3, 78052, Note_on_c, 0, 58, 0
3, 78148, Note_on_c, 0, 60, 0
3, 78148, Note_on_c, 0, 53, 0
3, 78166, Note_on_c, 0, 72, 0
3, 78182, Note_on_c, 0, 63, 0
3, 78192, Note_on_c, 0, 68, 86
3, 78222, Note_on_c, 0, 68, 0
3, 78231, Note_on_c, 0, 68, 70
3, 78233, Note_on_c, 0, 70, 90
3, 78249, Note_on_c, 0, 68, 0
3, 78259, Note_on_c, 0, 58, 0
3, 78269, Control_c, 0, 64, 0
3, 78276, Note_on_c, 0, 59, 67
3, 78276, Note_on_c, 0, 54, 68
3, 78277, Note_on_c, 0, 64, 71
3, 78278, Note_on_c, 0, 71, 89
3, 78279, Note_on_c, 0, 70, 0
3, 78351, Note_on_c, 0, 71, 0
3, 78355, Note_on_c, 0, 76, 77
3, 78391, Control_c, 0, 64, 127
3, 78407, Note_on_c, 0, 76, 0
3, 78432, Note_on_c, 0, 76, 75
3, 78463, Note_on_c, 0, 64, 0
3, 78463, Note_on_c, 0, 59, 0
3, 78491, Note_on_c, 0, 76, 0
3, 78519, Note_on_c, 0, 59, 45
3, 78519, Note_on_c, 0, 64, 38
3, 78520, Note_on_c, 0, 76, 65
3, 78588, Note_on_c, 0, 76, 0
3, 78620, Note_on_c, 0, 76, 64
3, 78652, Note_on_c, 0, 64, 0
3, 78652, Note_on_c, 0, 59, 0
3, 78668, Note_on_c, 0, 76, 0
3, 78683, Note_on_c, 0, 54, 0
3, 78687, Note_on_c, 0, 69, 62
3, 78710, Note_on_c, 0, 69, 0
3, 78733, Note_on_c, 0, 69, 47
3, 78764, Control_c, 0, 64, 0
3, 78765, Note_on_c, 0, 69, 0
3, 78775, Note_on_c, 0, 63, 25
3, 78777, Note_on_c, 0, 60, 36
3, 78781, Note_on_c, 0, 68, 50
3, 78782, Note_on_c, 0, 56, 28
3, 78791, Note_on_c, 0, 53, 24
3, 78868, Control_c, 0, 64, 127
3, 78901, Note_on_c, 0, 63, 0
3, 78915, Note_on_c, 0, 60, 0
3, 78927, Note_on_c, 0, 56, 0
3, 78958, Note_on_c, 0, 68, 0
3, 78999, Note_on_c, 0, 63, 32
3, 79001, Note_on_c, 0, 60, 41
3, 79003, Note_on_c, 0, 56, 34
3, 79048, Note_on_c, 0, 60, 0
3, 79054, Note_on_c, 0, 63, 0
3, 79061, Note_on_c, 0, 53, 0
3, 79061, Note_on_c, 0, 56, 0
3, 79173, Note_on_c, 0, 60, 70
3, 79174, Note_on_c, 0, 53, 67
3, 79175, Note_on_c, 0, 63, 71
3, 79176, Note_on_c, 0, 70, 98
3, 79176, Note_on_c, 0, 82, 90
3, 79177, Note_on_c, 0, 75, 90
3, 79186, Note_on_c, 0, 80, 23
3, 79203, Note_on_c, 0, 53, 0
3, 79209, Note_on_c, 0, 60, 0
3, 79209, Note_on_c, 0, 75, 0
3, 79217, Note_on_c, 0, 70, 0
3, 79219, Note_on_c, 0, 63, 0
3, 79220, Note_on_c, 0, 80, 0
3, 79224, Note_on_c, 0, 82, 0
3, 79241, Control_c, 0, 64, 0
3, 79244, Note_on_c, 0, 54, 79
3, 79245, Note_on_c, 0, 64, 79
3, 79247, Note_on_c, 0, 59, 66
3, 79248, Note_on_c, 0, 80, 25
3, 79248, Note_on_c, 0, 83, 77
3, 79248, Note_on_c, 0, 76, 75
3, 79249, Note_on_c, 0, 71, 83
3, 79257, Note_on_c, 0, 81, 48
3, 79265, Note_on_c, 0, 81, 0
3, 79289, Control_c, 0, 64, 127
3, 79310, Note_on_c, 0, 71, 0
3, 79317, Note_on_c, 0, 76, 0
3, 79329, Note_on_c, 0, 83, 0
3, 79330, Note_on_c, 0, 80, 0
3, 79335, Note_on_c, 0, 59, 0
3, 79343, Note_on_c, 0, 64, 0
3, 79350, Note_on_c, 0, 54, 0
3, 79532, Control_c, 0, 64, 0
3, 79543, Note_on_c, 0, 64, 47
3, 79547, Note_on_c, 0, 59, 42
3, 79547, Note_on_c, 0, 54, 23
3, 79549, Note_on_c, 0, 88, 62
3, 79551, Note_on_c, 0, 76, 36
3, 79552, Note_on_c, 0, 64, 0
3, 79552, Note_on_c, 0, 83, 44
3, 79557, Note_on_c, 0, 88, 0
3, 79558, Note_on_c, 0, 59, 0
3, 79560, Note_on_c, 0, 83, 0
3, 79562, Note_on_c, 0, 76, 0
3, 79564, Note_on_c, 0, 54, 0
3, 79631, Note_on_c, 0, 71, 64
3, 79632, Note_on_c, 0, 78, 51
3, 79633, Note_on_c, 0, 64, 47
3, 79633, Note_on_c, 0, 83, 43
3, 79634, Note_on_c, 0, 54, 37
3, 79636, Note_on_c, 0, 59, 35
3, 79648, Control_c, 0, 64, 127
3, 79666, Note_on_c, 0, 64, 0
3, 79671, Note_on_c, 0, 59, 0
3, 79676, Note_on_c, 0, 79, 55
3, 79681, Note_on_c, 0, 71, 0
3, 79682, Note_on_c, 0, 83, 0
3, 79685, Note_on_c, 0, 78, 0
3, 79685, Note_on_c, 0, 54, 0
3, 79698, Control_c, 0, 64, 0
3, 79706, Note_on_c, 0, 79, 0
3, 79724, Note_on_c, 0, 70, 54
3, 79724, Note_on_c, 0, 60, 35
3, 79726, Note_on_c, 0, 82, 47
3, 79727, Note_on_c, 0, 63, 21
3, 79728, Note_on_c, 0, 58, 47
3, 79733, Note_on_c, 0, 77, 37
3, 79740, Note_on_c, 0, 53, 32
3, 79794, Control_c, 0, 64, 127
3, 79824, Note_on_c, 0, 63, 0
3, 79858, Note_on_c, 0, 58, 0
3, 79858, Note_on_c, 0, 70, 0
3, 79861, Note_on_c, 0, 60, 0
3, 79862, Note_on_c, 0, 82, 0
3, 79867, Note_on_c, 0, 77, 0
3, 79929, Note_on_c, 0, 53, 0
3, 79944, Note_on_c, 0, 53, 28
3, 79975, Note_on_c, 0, 53, 0
3, 80023, Note_on_c, 0, 56, 69
3, 80075, Note_on_c, 0, 56, 0
3, 80092, Note_on_c, 0, 61, 48
3, 80122, Note_on_c, 0, 61, 0
3, 80135, Note_on_c, 0, 65, 64
3, 80158, Note_on_c, 0, 65, 0
3, 80180, Control_c, 0, 64, 0
3, 80190, Note_on_c, 0, 58, 71
3, 80191, Note_on_c, 0, 68, 57
3, 80196, Note_on_c, 0, 61, 56
3, 80201, Note_on_c, 0, 65, 39
3, 80202, Note_on_c, 0, 64, 43
3, 80209, Note_on_c, 0, 68, 0
3, 80210, Note_on_c, 0, 65, 0
3, 80236, Note_on_c, 0, 66, 8
3, 80291, Note_on_c, 0, 56, 62
3, 80312, Control_c, 0, 64, 127
3, 80355, Note_on_c, 0, 64, 0
3, 80357, Note_on_c, 0, 56, 0
3, 80360, Note_on_c, 0, 58, 0
3, 80384, Note_on_c, 0, 61, 0
3, 80390, Note_on_c, 0, 66, 0
3, 80411, Control_c, 0, 64, 0
3, 80416, Note_on_c, 0, 68, 78
3, 80418, Note_on_c, 0, 63, 74
3, 80418, Note_on_c, 0, 61, 83
3, 80420, Note_on_c, 0, 57, 85
3, 80424, Note_on_c, 0, 56, 81
3, 80536, Note_on_c, 0, 54, 70
3, 80539, Note_on_c, 0, 56, 0
3, 80541, Control_c, 0, 64, 127
3, 80551, Note_on_c, 0, 57, 0
3, 80562, Note_on_c, 0, 61, 0
3, 80563, Note_on_c, 0, 63, 0
3, 80563, Note_on_c, 0, 54, 0
3, 80564, Note_on_c, 0, 68, 0
3, 80661, Control_c, 0, 64, 0
3, 80668, Note_on_c, 0, 63, 81
3, 80668, Note_on_c, 0, 70, 74
3, 80669, Note_on_c, 0, 56, 83
3, 80669, Note_on_c, 0, 41, 89
3, 80675, Note_on_c, 0, 68, 36
3, 80716, Control_c, 0, 64, 127
3, 80729, Note_on_c, 0, 70, 0
3, 80733, Note_on_c, 0, 56, 0
3, 80737, Note_on_c, 0, 68, 0
3, 80742, Note_on_c, 0, 63, 0
3, 80744, Note_on_c, 0, 48, 78
3, 80794, Note_on_c, 0, 55, 78
3, 80830, Note_on_c, 0, 56, 78
3, 80835, Note_on_c, 0, 55, 0
3, 80853, Note_on_c, 0, 41, 0
3, 80863, Note_on_c, 0, 58, 74
3, 80864, Note_on_c, 0, 48, 0
3, 80868, Note_on_c, 0, 56, 0
3, 80883, Note_on_c, 0, 58, 0
3, 80888, Note_on_c, 0, 60, 80
3, 80916, Note_on_c, 0, 62, 72
3, 80923, Note_on_c, 0, 60, 0
3, 80947, Note_on_c, 0, 63, 60
3, 80951, Note_on_c, 0, 62, 0
3, 80964, Note_on_c, 0, 63, 0
3, 80973, Note_on_c, 0, 65, 72
3, 80998, Note_on_c, 0, 67, 75
3, 81006, Note_on_c, 0, 65, 0
3, 81015, Note_on_c, 0, 68, 75
3, 81026, Note_on_c, 0, 67, 0
3, 81032, Note_on_c, 0, 70, 79
3, 81036, Note_on_c, 0, 68, 0
3, 81046, Note_on_c, 0, 70, 0
3, 81057, Note_on_c, 0, 72, 83
3, 81075, Note_on_c, 0, 73, 31
3, 81079, Note_on_c, 0, 72, 0
3, 81082, Note_on_c, 0, 74, 89
3, 81083, Note_on_c, 0, 73, 0
3, 81105, Note_on_c, 0, 75, 96
3, 81110, Note_on_c, 0, 74, 0
3, 81121, Note_on_c, 0, 76, 100
3, 81123, Note_on_c, 0, 75, 0
3, 81138, Control_c, 0, 64, 0
3, 81143, Note_on_c, 0, 62, 58
3, 81144, Note_on_c, 0, 67, 71
3, 81145, Note_on_c, 0, 56, 57
3, 81147, Note_on_c, 0, 77, 80
3, 81154, Note_on_c, 0, 76, 0
3, 81253, Control_c, 0, 64, 127
3, 81258, Note_on_c, 0, 74, 71
3, 81274, Note_on_c, 0, 77, 0
3, 81288, Note_on_c, 0, 74, 0
3, 81346, Note_on_c, 0, 67, 0
3, 81387, Note_on_c, 0, 82, 64
3, 81391, Note_on_c, 0, 73, 50
3, 81391, Note_on_c, 0, 66, 52
3, 81478, Note_on_c, 0, 66, 0
3, 81480, Note_on_c, 0, 73, 0
3, 81481, Note_on_c, 0, 56, 0
3, 81496, Note_on_c, 0, 62, 0
3, 81498, Note_on_c, 0, 82, 0
3, 81506, Note_on_c, 0, 73, 35
3, 81507, Note_on_c, 0, 78, 49
3, 81512, Note_on_c, 0, 56, 37
3, 81512, Note_on_c, 0, 62, 18
3, 81545, Note_on_c, 0, 62, 0
3, 81549, Note_on_c, 0, 73, 0
3, 81563, Note_on_c, 0, 56, 0
3, 81606, Note_on_c, 0, 78, 0
3, 81637, Note_on_c, 0, 69, 53
3, 81639, Note_on_c, 0, 73, 34
3, 81641, Control_c, 0, 64, 0
3, 81642, Note_on_c, 0, 68, 38
3, 81703, Control_c, 0, 64, 127
3, 81749, Note_on_c, 0, 80, 57
3, 81813, Note_on_c, 0, 69, 0
3, 81826, Note_on_c, 0, 80, 0
3, 81827, Note_on_c, 0, 73, 0
3, 81831, Note_on_c, 0, 68, 0
3, 81867, Note_on_c, 0, 73, 29
3, 81869, Note_on_c, 0, 80, 33
3, 81870, Note_on_c, 0, 76, 34
3, 81870, Note_on_c, 0, 69, 50
3, 81875, Note_on_c, 0, 68, 35
3, 81876, Control_c, 0, 64, 0
3, 81888, Control_c, 0, 64, 127
3, 81924, Note_on_c, 0, 68, 0
3, 81935, Note_on_c, 0, 80, 0
3, 81943, Note_on_c, 0, 69, 0
3, 81949, Note_on_c, 0, 76, 0
3, 81966, Note_on_c, 0, 80, 57
3, 81979, Note_on_c, 0, 69, 15
3, 81998, Note_on_c, 0, 69, 0
3, 82020, Note_on_c, 0, 80, 0
3, 82031, Note_on_c, 0, 73, 0
3, 82036, Note_on_c, 0, 78, 45
3, 82080, Note_on_c, 0, 78, 0
3, 82106, Note_on_c, 0, 80, 60
3, 82110, Control_c, 0, 64, 0
3, 82111, Note_on_c, 0, 69, 42
3, 82111, Note_on_c, 0, 75, 39
3, 82112, Note_on_c, 0, 68, 35
3, 82112, Note_on_c, 0, 73, 25
3, 82128, Note_on_c, 0, 69, 0
3, 82134, Note_on_c, 0, 73, 0
3, 82134, Note_on_c, 0, 75, 0
3, 82136, Note_on_c, 0, 68, 0
3, 82138, Note_on_c, 0, 80, 0
3, 82182, Note_on_c, 0, 80, 37
3, 82188, Note_on_c, 0, 78, 52
3, 82193, Note_on_c, 0, 68, 50
3, 82194, Note_on_c, 0, 73, 26
3, 82195, Note_on_c, 0, 69, 35
3, 82197, Note_on_c, 0, 75, 35
3, 82217, Note_on_c, 0, 69, 0
3, 82219, Note_on_c, 0, 80, 0
3, 82223, Note_on_c, 0, 68, 0
3, 82223, Note_on_c, 0, 75, 0
3, 82225, Note_on_c, 0, 73, 0
3, 82229, Note_on_c, 0, 78, 0
3, 82264, Note_on_c, 0, 80, 40
3, 82272, Note_on_c, 0, 78, 42
3, 82279, Note_on_c, 0, 73, 27
3, 82279, Note_on_c, 0, 75, 37
3, 82279, Note_on_c, 0, 68, 44
3, 82281, Note_on_c, 0, 69, 34
3, 82283, Note_on_c, 0, 66, 20
3, 82295, Note_on_c, 0, 66, 0
3, 82302, Note_on_c, 0, 69, 0
3, 82305, Note_on_c, 0, 80, 0
3, 82308, Note_on_c, 0, 75, 0
3, 82310, Note_on_c, 0, 68, 0
3, 82311, Note_on_c, 0, 73, 0
3, 82317, Note_on_c, 0, 78, 0
3, 82347, Note_on_c, 0, 80, 37
3, 82351, Note_on_c, 0, 66, 28
3, 82353, Note_on_c, 0, 78, 40
3, 82359, Note_on_c, 0, 68, 40
3, 82360, Note_on_c, 0, 75, 35
3, 82361, Note_on_c, 0, 73, 25
3, 82362, Note_on_c, 0, 69, 36
3, 82378, Note_on_c, 0, 66, 0
3, 82382, Note_on_c, 0, 80, 0
3, 82384, Note_on_c, 0, 69, 0
3, 82389, Note_on_c, 0, 75, 0
3, 82389, Note_on_c, 0, 68, 0
3, 82392, Note_on_c, 0, 73, 0
3, 82397, Note_on_c, 0, 78, 0
3, 82428, Note_on_c, 0, 80, 34
3, 82432, Note_on_c, 0, 66, 17
3, 82434, Note_on_c, 0, 78, 38
3, 82440, Note_on_c, 0, 75, 37
3, 82441, Note_on_c, 0, 73, 25
3, 82442, Note_on_c, 0, 68, 39
3, 82457, Note_on_c, 0, 68, 0
3, 82459, Note_on_c, 0, 80, 0
3, 82459, Note_on_c, 0, 66, 0
3, 82471, Note_on_c, 0, 75, 0
3, 82472, Note_on_c, 0, 78, 0
3, 82477, Note_on_c, 0, 73, 0
3, 82589, Control_c, 0, 64, 127
3, 82627, Control_c, 0, 64, 0
3, 82628, Note_on_c, 0, 77, 68
3, 82634, Note_on_c, 0, 72, 61
3, 82638, Note_on_c, 0, 76, 30
3, 82639, Note_on_c, 0, 69, 54
3, 82642, Note_on_c, 0, 66, 32
3, 82642, Note_on_c, 0, 55, 40
3, 82643, Note_on_c, 0, 61, 34
3, 82650, Note_on_c, 0, 65, 49
3, 82657, Note_on_c, 0, 66, 0
3, 82659, Note_on_c, 0, 55, 0
3, 82662, Note_on_c, 0, 65, 0
3, 82667, Note_on_c, 0, 69, 0
3, 82669, Note_on_c, 0, 76, 0
3, 82672, Note_on_c, 0, 61, 0
3, 82675, Note_on_c, 0, 72, 0
3, 82678, Note_on_c, 0, 77, 0
3, 82698, Note_on_c, 0, 77, 69
3, 82707, Note_on_c, 0, 72, 33
3, 82707, Note_on_c, 0, 69, 55
3, 82708, Note_on_c, 0, 61, 42
3, 82709, Note_on_c, 0, 66, 34
3, 82709, Note_on_c, 0, 55, 55
3, 82715, Note_on_c, 0, 65, 55
3, 82725, Note_on_c, 0, 66, 0
3, 82731, Note_on_c, 0, 55, 0
3, 82739, Note_on_c, 0, 69, 0
3, 82740, Note_on_c, 0, 61, 0
3, 82740, Note_on_c, 0, 65, 0
3, 82744, Note_on_c, 0, 77, 0
3, 82748, Note_on_c, 0, 72, 0
3, 82767, Note_on_c, 0, 77, 43
3, 82782, Note_on_c, 0, 72, 24
3, 82783, Note_on_c, 0, 69, 33
3, 82784, Note_on_c, 0, 66, 28
3, 82785, Note_on_c, 0, 61, 35
3, 82787, Note_on_c, 0, 55, 35
3, 82788, Note_on_c, 0, 65, 48
3, 82803, Note_on_c, 0, 55, 0
3, 82803, Note_on_c, 0, 66, 0
3, 82812, Note_on_c, 0, 69, 0
3, 82813, Note_on_c, 0, 65, 0
3, 82815, Note_on_c, 0, 61, 0
3, 82821, Note_on_c, 0, 77, 0
3, 82822, Note_on_c, 0, 72, 0
3, 82931, Control_c, 0, 64, 127
3, 83040, Note_on_c, 0, 66, 38
3, 83041, Note_on_c, 0, 61, 44
3, 83042, Note_on_c, 0, 55, 37
3, 83042, Note_on_c, 0, 75, 59
3, 83052, Note_on_c, 0, 55, 0
3, 83057, Note_on_c, 0, 66, 0
3, 83072, Note_on_c, 0, 61, 0
3, 83072, Note_on_c, 0, 75, 0
3, 83085, Control_c, 0, 64, 0
3, 83089, Note_on_c, 0, 77, 64
3, 83091, Note_on_c, 0, 65, 66
3, 83091, Note_on_c, 0, 66, 33
3, 83091, Note_on_c, 0, 70, 51
3, 83092, Note_on_c, 0, 73, 31
3, 83093, Note_on_c, 0, 58, 36
3, 83094, Note_on_c, 0, 60, 57
3, 83099, Note_on_c, 0, 54, 33
3, 83102, Note_on_c, 0, 66, 0
3, 83108, Note_on_c, 0, 65, 0
3, 83109, Note_on_c, 0, 70, 0
3, 83111, Note_on_c, 0, 73, 0
3, 83115, Note_on_c, 0, 77, 0
3, 83115, Note_on_c, 0, 60, 0
3, 83121, Note_on_c, 0, 54, 0
3, 83127, Note_on_c, 0, 58, 0
3, 83167, Note_on_c, 0, 77, 53
3, 83167, Note_on_c, 0, 66, 57
3, 83168, Note_on_c, 0, 70, 56
3, 83169, Note_on_c, 0, 65, 58
3, 83170, Note_on_c, 0, 73, 31
3, 83172, Note_on_c, 0, 60, 51
3, 83172, Note_on_c, 0, 54, 32
3, 83175, Note_on_c, 0, 58, 32
3, 83180, Note_on_c, 0, 70, 0
3, 83181, Note_on_c, 0, 73, 0
3, 83181, Note_on_c, 0, 66, 0
3, 83184, Note_on_c, 0, 65, 0
3, 83184, Note_on_c, 0, 60, 0
3, 83188, Note_on_c, 0, 77, 0
3, 83193, Note_on_c, 0, 54, 0
3, 83194, Note_on_c, 0, 58, 0
3, 83251, Note_on_c, 0, 77, 63
3, 83251, Note_on_c, 0, 65, 44
3, 83251, Note_on_c, 0, 66, 59
3, 83254, Note_on_c, 0, 60, 38
3, 83254, Note_on_c, 0, 70, 46
3, 83256, Note_on_c, 0, 58, 33
3, 83259, Note_on_c, 0, 54, 17
3, 83261, Note_on_c, 0, 66, 0
3, 83262, Note_on_c, 0, 70, 0
3, 83267, Note_on_c, 0, 60, 0
3, 83268, Note_on_c, 0, 65, 0
3, 83272, Note_on_c, 0, 77, 0
3, 83279, Note_on_c, 0, 54, 0
3, 83279, Note_on_c, 0, 58, 0
3, 83333, Note_on_c, 0, 66, 48
3, 83334, Note_on_c, 0, 70, 50
3, 83334, Note_on_c, 0, 77, 49
3, 83337, Note_on_c, 0, 65, 35
3, 83337, Note_on_c, 0, 54, 27
3, 83338, Note_on_c, 0, 73, 27
3, 83339, Note_on_c, 0, 60, 43
3, 83341, Note_on_c, 0, 58, 35
3, 83352, Control_c, 0, 64, 127
3, 83408, Note_on_c, 0, 77, 0
3, 83415, Note_on_c, 0, 73, 0
3, 83454, Note_on_c, 0, 65, 0
3, 83463, Note_on_c, 0, 66, 0
3, 83465, Note_on_c, 0, 70, 0
3, 83481, Note_on_c, 0, 60, 0
3, 83488, Note_on_c, 0, 58, 0
3, 83497, Note_on_c, 0, 54, 0
3, 83497, Note_on_c, 0, 72, 65
3, 83527, Note_on_c, 0, 72, 0
3, 83548, Note_on_c, 0, 75, 69
3, 83549, Note_on_c, 0, 72, 48
3, 83549, Note_on_c, 0, 68, 56
3, 83550, Note_on_c, 0, 60, 50
3, 83550, Note_on_c, 0, 65, 64
3, 83552, Control_c, 0, 64, 0
3, 83552, Note_on_c, 0, 63, 50
3, 83555, Note_on_c, 0, 53, 40
3, 83556, Note_on_c, 0, 58, 34
3, 83612, Control_c, 0, 64, 127
3, 83645, Note_on_c, 0, 63, 0
3, 83710, Note_on_c, 0, 60, 0
3, 83712, Note_on_c, 0, 58, 0
3, 83790, Note_on_c, 0, 63, 45
3, 83792, Note_on_c, 0, 60, 55
3, 83792, Note_on_c, 0, 58, 38
3, 83801, Note_on_c, 0, 75, 0
3, 83805, Note_on_c, 0, 65, 0
3, 83805, Note_on_c, 0, 72, 0
3, 83830, Note_on_c, 0, 68, 0
3, 83844, Note_on_c, 0, 63, 0
3, 83873, Note_on_c, 0, 60, 0
3, 83873, Note_on_c, 0, 75, 82
3, 83878, Note_on_c, 0, 68, 52
3, 83881, Note_on_c, 0, 65, 63
3, 83884, Note_on_c, 0, 58, 0
3, 83886, Note_on_c, 0, 53, 0
3, 83898, Note_on_c, 0, 68, 0
3, 83901, Note_on_c, 0, 65, 0
3, 83920, Note_on_c, 0, 75, 0
3, 83946, Note_on_c, 0, 75, 75
3, 83979, Note_on_c, 0, 75, 0
3, 83982, Note_on_c, 0, 73, 37
3, 84018, Note_on_c, 0, 73, 0
3, 84026, Control_c, 0, 64, 0
3, 84030, Note_on_c, 0, 42, 84
3, 84031, Note_on_c, 0, 30, 74
3, 84034, Note_on_c, 0, 68, 81
3, 84034, Note_on_c, 0, 72, 80
3, 84034, Note_on_c, 0, 75, 81
3, 84035, Note_on_c, 0, 64, 91
3, 84062, Note_on_c, 0, 30, 0
3, 84071, Note_on_c, 0, 42, 0
3, 84074, Control_c, 0, 64, 127
3, 84158, Note_on_c, 0, 63, 85
3, 84228, Note_on_c, 0, 64, 0
3, 84243, Note_on_c, 0, 68, 0
3, 84244, Note_on_c, 0, 72, 0
3, 84247, Note_on_c, 0, 75, 0
3, 84275, Note_on_c, 0, 63, 0
3, 84277, Note_on_c, 0, 75, 64
3, 84280, Note_on_c, 0, 61, 64
3, 84280, Note_on_c, 0, 68, 68
3, 84282, Note_on_c, 0, 64, 66
3, 84283, Note_on_c, 0, 72, 66
3, 84291, Control_c, 0, 64, 0
3, 84310, Control_c, 0, 64, 127
3, 84360, Note_on_c, 0, 72, 0
3, 84362, Note_on_c, 0, 64, 0
3, 84374, Note_on_c, 0, 68, 0
3, 84390, Note_on_c, 0, 61, 0
3, 84438, Note_on_c, 0, 75, 0
3, 84512, Control_c, 0, 64, 0
3, 84513, Note_on_c, 0, 41, 91
3, 84544, Note_on_c, 0, 41, 0
3, 84546, Control_c, 0, 64, 127
3, 84636, Note_on_c, 0, 72, 88
3, 84636, Note_on_c, 0, 56, 64
3, 84637, Note_on_c, 0, 67, 91
3, 84637, Note_on_c, 0, 63, 84
3, 84638, Note_on_c, 0, 58, 76
3, 84640, Note_on_c, 0, 60, 82
3, 84647, Control_c, 0, 64, 0
3, 84659, Control_c, 0, 64, 127
3, 84717, Note_on_c, 0, 58, 0
3, 84724, Note_on_c, 0, 60, 0
3, 84729, Note_on_c, 0, 63, 0
3, 84733, Note_on_c, 0, 72, 0
3, 84734, Note_on_c, 0, 67, 0
3, 84742, Note_on_c, 0, 56, 0
3, 84756, Note_on_c, 0, 58, 61
3, 84757, Note_on_c, 0, 67, 68
3, 84757, Note_on_c, 0, 56, 37
3, 84758, Note_on_c, 0, 63, 74
3, 84758, Note_on_c, 0, 60, 66
3, 84758, Note_on_c, 0, 70, 75
3, 84766, Control_c, 0, 64, 0
3, 84770, Control_c, 0, 64, 127
3, 84839, Note_on_c, 0, 60, 0
3, 84849, Note_on_c, 0, 58, 0
3, 84851, Note_on_c, 0, 56, 0
3, 84863, Note_on_c, 0, 63, 0
3, 84864, Note_on_c, 0, 67, 0
3, 84873, Note_on_c, 0, 58, 57
3, 84875, Note_on_c, 0, 56, 55
3, 84882, Note_on_c, 0, 70, 0
3, 84894, Note_on_c, 0, 58, 0
3, 84898, Note_on_c, 0, 56, 0
3, 84980, Control_c, 0, 64, 0
3, 84992, Note_on_c, 0, 82, 90
3, 84992, Note_on_c, 0, 46, 74
3, 84993, Note_on_c, 0, 73, 87
3, 84994, Note_on_c, 0, 56, 76
3, 84995, Note_on_c, 0, 78, 77
3, 85014, Control_c, 0, 64, 127
3, 85017, Note_on_c, 0, 46, 0
3, 85026, Note_on_c, 0, 56, 0
3, 85042, Note_on_c, 0, 82, 0
3, 85045, Note_on_c, 0, 78, 0
3, 85049, Note_on_c, 0, 73, 0
3, 85121, Note_on_c, 0, 78, 72
3, 85122, Note_on_c, 0, 62, 68
3, 85123, Note_on_c, 0, 56, 70
3, 85124, Note_on_c, 0, 70, 81
3, 85125, Note_on_c, 0, 73, 63
3, 85166, Note_on_c, 0, 78, 0
3, 85168, Note_on_c, 0, 70, 0
3, 85173, Note_on_c, 0, 73, 0
3, 85185, Note_on_c, 0, 62, 0
3, 85212, Note_on_c, 0, 56, 0
3, 85247, Note_on_c, 0, 70, 64
3, 85247, Note_on_c, 0, 73, 37
3, 85248, Note_on_c, 0, 66, 46
3, 85249, Note_on_c, 0, 56, 46
3, 85250, Note_on_c, 0, 62, 55
3, 85275, Note_on_c, 0, 62, 0
3, 85276, Note_on_c, 0, 70, 0
3, 85282, Note_on_c, 0, 73, 0
3, 85282, Note_on_c, 0, 66, 0
3, 85296, Note_on_c, 0, 56, 0
3, 85363, Note_on_c, 0, 65, 54
3, 85368, Note_on_c, 0, 56, 47
3, 85402, Note_on_c, 0, 56, 0
3, 85403, Note_on_c, 0, 65, 0
3, 85489, Note_on_c, 0, 68, 35
3, 85491, Note_on_c, 0, 61, 29
3, 85491, Note_on_c, 0, 56, 38
3, 85494, Note_on_c, 0, 64, 38
3, 85496, Note_on_c, 0, 57, 22
3, 85497, Control_c, 0, 64, 0
3, 85538, Note_on_c, 0, 64, 0
3, 85542, Note_on_c, 0, 57, 0
3, 85551, Note_on_c, 0, 68, 0
3, 85553, Note_on_c, 0, 56, 0
3, 85558, Note_on_c, 0, 66, 36
3, 85559, Note_on_c, 0, 54, 35
3, 85584, Note_on_c, 0, 61, 0
3, 85586, Note_on_c, 0, 66, 0
3, 85608, Note_on_c, 0, 54, 0
3, 85610, Note_on_c, 0, 61, 32
3, 85611, Note_on_c, 0, 68, 31
3, 85612, Note_on_c, 0, 57, 24
3, 85615, Note_on_c, 0, 56, 25
3, 85658, Note_on_c, 0, 57, 0
3, 85660, Note_on_c, 0, 68, 0
3, 85661, Control_c, 0, 64, 127
3, 85665, Note_on_c, 0, 61, 0
3, 85676, Note_on_c, 0, 56, 0
3, 85689, Note_on_c, 0, 54, 33
3, 85693, Note_on_c, 0, 57, 29
3, 85695, Note_on_c, 0, 66, 27
3, 85697, Control_c, 0, 64, 0
3, 85705, Note_on_c, 0, 57, 0
3, 85707, Note_on_c, 0, 66, 0
3, 85746, Note_on_c, 0, 54, 0
3, 85747, Note_on_c, 0, 68, 37
3, 85748, Note_on_c, 0, 56, 35
3, 85750, Note_on_c, 0, 57, 24
3, 85757, Note_on_c, 0, 61, 18
3, 85759, Note_on_c, 0, 64, 26
3, 85782, Note_on_c, 0, 64, 0
3, 85787, Note_on_c, 0, 57, 0
3, 85789, Note_on_c, 0, 68, 0
3, 85791, Note_on_c, 0, 61, 0
3, 85794, Note_on_c, 0, 56, 0
3, 85822, Note_on_c, 0, 68, 43
3, 85824, Note_on_c, 0, 56, 36
3, 85825, Note_on_c, 0, 61, 37
3, 85825, Note_on_c, 0, 57, 42
3, 85830, Note_on_c, 0, 64, 44
3, 85854, Control_c, 0, 64, 127
3, 85857, Note_on_c, 0, 64, 0
3, 85858, Note_on_c, 0, 57, 0
3, 85873, Note_on_c, 0, 61, 0
3, 85874, Note_on_c, 0, 68, 0
3, 85881, Note_on_c, 0, 56, 0
3, 85890, Note_on_c, 0, 61, 23
3, 85891, Note_on_c, 0, 66, 43
3, 85897, Note_on_c, 0, 57, 30
3, 85899, Note_on_c, 0, 54, 34
3, 85914, Note_on_c, 0, 57, 0
3, 85923, Note_on_c, 0, 61, 0
3, 85932, Note_on_c, 0, 66, 0
3, 85945, Control_c, 0, 64, 0
3, 85956, Note_on_c, 0, 54, 0
3, 85965, Note_on_c, 0, 61, 35
3, 85965, Note_on_c, 0, 68, 49
3, 85967, Note_on_c, 0, 57, 43
3, 85968, Note_on_c, 0, 63, 37
3, 85969, Note_on_c, 0, 56, 34
3, 86015, Control_c, 0, 64, 127
3, 86116, Note_on_c, 0, 57, 0
3, 86124, Note_on_c, 0, 63, 0
3, 86127, Note_on_c, 0, 61, 0
3, 86148, Note_on_c, 0, 56, 0
3, 86158, Note_on_c, 0, 68, 0
3, 86182, Note_on_c, 0, 66, 42
3, 86184, Note_on_c, 0, 57, 44
3, 86185, Note_on_c, 0, 61, 37
3, 86189, Note_on_c, 0, 63, 33
3, 86192, Note_on_c, 0, 54, 35
3, 86225, Note_on_c, 0, 57, 0
3, 86240, Note_on_c, 0, 54, 0
3, 86242, Note_on_c, 0, 61, 0
3, 86247, Note_on_c, 0, 66, 0
3, 86248, Note_on_c, 0, 63, 0
3, 86425, Note_on_c, 0, 77, 67
3, 86425, Note_on_c, 0, 69, 81
3, 86426, Control_c, 0, 64, 0
3, 86426, Note_on_c, 0, 55, 76
3, 86496, Control_c, 0, 64, 127
3, 86513, Note_on_c, 0, 69, 0
3, 86561, Note_on_c, 0, 69, 53
3, 86562, Note_on_c, 0, 65, 58
3, 86565, Note_on_c, 0, 61, 33
3, 86635, Note_on_c, 0, 61, 0
3, 86644, Note_on_c, 0, 65, 0
3, 86651, Note_on_c, 0, 69, 0
3, 86694, Note_on_c, 0, 69, 45
3, 86695, Note_on_c, 0, 65, 41
3, 86695, Note_on_c, 0, 61, 37
3, 86765, Note_on_c, 0, 55, 0
3, 86792, Note_on_c, 0, 65, 0
3, 86801, Note_on_c, 0, 69, 0
3, 86808, Note_on_c, 0, 55, 58
3, 86818, Note_on_c, 0, 77, 0
3, 86837, Note_on_c, 0, 55, 0
3, 86853, Note_on_c, 0, 61, 0
3, 86922, Control_c, 0, 64, 0
3, 86927, Note_on_c, 0, 70, 56
3, 86928, Note_on_c, 0, 65, 65
3, 86928, Note_on_c, 0, 77, 53
3, 86931, Note_on_c, 0, 54, 47
3, 86932, Note_on_c, 0, 60, 48
3, 86978, Control_c, 0, 64, 127
3, 87042, Note_on_c, 0, 77, 0
3, 87076, Note_on_c, 0, 70, 0
3, 87080, Note_on_c, 0, 65, 0
3, 87095, Note_on_c, 0, 54, 0
3, 87100, Note_on_c, 0, 60, 0
3, 87166, Note_on_c, 0, 54, 39
3, 87167, Note_on_c, 0, 60, 37
3, 87236, Note_on_c, 0, 60, 0
3, 87250, Note_on_c, 0, 54, 0
3, 87402, Note_on_c, 0, 68, 91
3, 87403, Note_on_c, 0, 71, 91
3, 87404, Note_on_c, 0, 64, 92
3, 87404, Note_on_c, 0, 54, 73
3, 87404, Control_c, 0, 64, 0
3, 87405, Note_on_c, 0, 44, 69
3, 87461, Control_c, 0, 64, 127
3, 87500, Note_on_c, 0, 71, 0
3, 87525, Note_on_c, 0, 44, 0
3, 87535, Note_on_c, 0, 54, 0
3, 87540, Note_on_c, 0, 71, 73
3, 87557, Note_on_c, 0, 64, 0
3, 87613, Note_on_c, 0, 68, 0
3, 87618, Note_on_c, 0, 71, 0
3, 87648, Note_on_c, 0, 72, 90
3, 87648, Note_on_c, 0, 69, 94
3, 87649, Note_on_c, 0, 65, 103
3, 87656, Control_c, 0, 64, 0
3, 87678, Control_c, 0, 64, 127
3, 87726, Note_on_c, 0, 72, 0
3, 87765, Note_on_c, 0, 69, 0
3, 87773, Note_on_c, 0, 72, 77
3, 87781, Note_on_c, 0, 65, 0
3, 87781, Note_on_c, 0, 71, 31
3, 87798, Note_on_c, 0, 71, 0
3, 87803, Note_on_c, 0, 72, 0
3, 87892, Control_c, 0, 64, 0
3, 87894, Note_on_c, 0, 73, 42
3, 87895, Note_on_c, 0, 56, 48
3, 87896, Note_on_c, 0, 70, 55
3, 87897, Note_on_c, 0, 66, 59
3, 87897, Note_on_c, 0, 46, 49
3, 87898, Note_on_c, 0, 61, 49
3, 87933, Control_c, 0, 64, 127
3, 87992, Note_on_c, 0, 73, 0
3, 87995, Note_on_c, 0, 46, 0
3, 88023, Note_on_c, 0, 56, 0
3, 88042, Note_on_c, 0, 73, 48
3, 88088, Note_on_c, 0, 61, 0
3, 88093, Note_on_c, 0, 66, 0
3, 88096, Note_on_c, 0, 70, 0
3, 88112, Note_on_c, 0, 73, 0
3, 88175, Note_on_c, 0, 74, 55
3, 88180, Note_on_c, 0, 71, 55
3, 88183, Note_on_c, 0, 67, 59
3, 88186, Control_c, 0, 64, 0
3, 88186, Note_on_c, 0, 47, 46
3, 88187, Note_on_c, 0, 72, 39
3, 88188, Note_on_c, 0, 57, 42
3, 88189, Note_on_c, 0, 62, 50
3, 88251, Control_c, 0, 64, 127
3, 88303, Note_on_c, 0, 74, 0
3, 88349, Note_on_c, 0, 72, 0
3, 88357, Note_on_c, 0, 47, 0
3, 88372, Note_on_c, 0, 74, 64
3, 88403, Note_on_c, 0, 57, 0
3, 88428, Note_on_c, 0, 71, 0
3, 88428, Note_on_c, 0, 62, 0
3, 88431, Note_on_c, 0, 67, 0
3, 88442, Note_on_c, 0, 74, 0
3, 88544, Note_on_c, 0, 75, 74
3, 88550, Note_on_c, 0, 72, 71
3, 88550, Note_on_c, 0, 58, 55
3, 88552, Note_on_c, 0, 48, 59
3, 88552, Note_on_c, 0, 68, 70
3, 88552, Control_c, 0, 64, 0
3, 88556, Note_on_c, 0, 63, 54
3, 88614, Control_c, 0, 64, 127
3, 88672, Note_on_c, 0, 75, 0
3, 88734, Note_on_c, 0, 48, 0
3, 88734, Note_on_c, 0, 72, 0
3, 88746, Note_on_c, 0, 75, 65
3, 88757, Note_on_c, 0, 58, 0
3, 88799, Note_on_c, 0, 63, 0
3, 88826, Note_on_c, 0, 68, 0
3, 88828, Note_on_c, 0, 75, 0
3, 88911, Note_on_c, 0, 54, 51
3, 88916, Note_on_c, 0, 50, 46
3, 88927, Note_on_c, 0, 64, 60
3, 88936, Note_on_c, 0, 68, 59
3, 88944, Note_on_c, 0, 60, 30
3, 88950, Note_on_c, 0, 71, 46
3, 88958, Control_c, 0, 64, 0
3, 88963, Note_on_c, 0, 76, 67
3, 89026, Control_c, 0, 64, 127
3, 89104, Note_on_c, 0, 64, 0
3, 89110, Note_on_c, 0, 71, 0
3, 89118, Note_on_c, 0, 68, 0
3, 89119, Note_on_c, 0, 76, 0
3, 89148, Note_on_c, 0, 64, 33
3, 89164, Note_on_c, 0, 68, 36
3, 89177, Note_on_c, 0, 71, 33
3, 89190, Note_on_c, 0, 76, 41
3, 89249, Note_on_c, 0, 60, 0
3, 89268, Note_on_c, 0, 64, 0
3, 89268, Note_on_c, 0, 54, 0
3, 89283, Note_on_c, 0, 71, 0
3, 89285, Note_on_c, 0, 68, 0
3, 89294, Note_on_c, 0, 50, 0
3, 89297, Note_on_c, 0, 76, 0
3, 89417, Note_on_c, 0, 65, 62
3, 89433, Note_on_c, 0, 72, 65
3, 89436, Note_on_c, 0, 37, 57
3, 89445, Control_c, 0, 64, 0
3, 89455, Note_on_c, 0, 77, 60
3, 89493, Control_c, 0, 64, 127
3, 89528, Note_on_c, 0, 37, 0
3, 89532, Note_on_c, 0, 44, 60
3, 89534, Note_on_c, 0, 77, 0
3, 89536, Note_on_c, 0, 72, 0
3, 89545, Note_on_c, 0, 65, 0
3, 89581, Note_on_c, 0, 44, 0
3, 89596, Note_on_c, 0, 53, 63
3, 89655, Note_on_c, 0, 56, 39
3, 89659, Note_on_c, 0, 53, 0
3, 89710, Note_on_c, 0, 60, 53
3, 89758, Note_on_c, 0, 63, 61
3, 89790, Note_on_c, 0, 63, 0
3, 89806, Note_on_c, 0, 70, 67
3, 89817, Note_on_c, 0, 63, 46
3, 89825, Note_on_c, 0, 60, 0
3, 89849, Note_on_c, 0, 70, 0
3, 89854, Note_on_c, 0, 67, 63
3, 89891, Note_on_c, 0, 67, 0
3, 89898, Note_on_c, 0, 68, 62
3, 89904, Note_on_c, 0, 63, 0
3, 89932, Note_on_c, 0, 68, 0
3, 89939, Note_on_c, 0, 70, 69
3, 89951, Note_on_c, 0, 63, 33
3, 89955, Note_on_c, 0, 70, 0
3, 89956, Note_on_c, 0, 60, 9
3, 89973, Note_on_c, 0, 72, 58
3, 89996, Note_on_c, 0, 72, 0
3, 90003, Note_on_c, 0, 75, 60
3, 90020, Note_on_c, 0, 75, 0
3, 90026, Note_on_c, 0, 63, 0
3, 90040, Note_on_c, 0, 77, 59
3, 90065, Note_on_c, 0, 77, 0
3, 90069, Note_on_c, 0, 56, 0
3, 90074, Note_on_c, 0, 82, 74
3, 90103, Note_on_c, 0, 82, 0
3, 90107, Note_on_c, 0, 79, 61
3, 90125, Note_on_c, 0, 63, 30
3, 90132, Note_on_c, 0, 60, 0
3, 90132, Note_on_c, 0, 56, 9
3, 90133, Note_on_c, 0, 79, 0
3, 90135, Note_on_c, 0, 53, 44
3, 90139, Note_on_c, 0, 80, 62
3, 90173, Note_on_c, 0, 80, 0
3, 90175, Note_on_c, 0, 82, 52
3, 90185, Note_on_c, 0, 82, 0
3, 90203, Note_on_c, 0, 84, 61
3, 90226, Note_on_c, 0, 84, 0
3, 90239, Note_on_c, 0, 60, 43
3, 90240, Note_on_c, 0, 87, 58
3, 90244, Note_on_c, 0, 63, 0
3, 90252, Note_on_c, 0, 87, 0
3, 90271, Note_on_c, 0, 89, 62
3, 90299, Note_on_c, 0, 89, 0
3, 90309, Note_on_c, 0, 91, 57
3, 90326, Note_on_c, 0, 63, 33
3, 90350, Note_on_c, 0, 91, 0
3, 90353, Note_on_c, 0, 92, 62
3, 90377, Note_on_c, 0, 60, 0
3, 90387, Note_on_c, 0, 92, 0
3, 90399, Note_on_c, 0, 94, 56
3, 90411, Note_on_c, 0, 94, 0
3, 90420, Note_on_c, 0, 60, 27
3, 90437, Note_on_c, 0, 96, 65
3, 90447, Note_on_c, 0, 60, 0
3, 90470, Note_on_c, 0, 96, 0
3, 90481, Note_on_c, 0, 97, 60
3, 90493, Note_on_c, 0, 60, 18
3, 90514, Note_on_c, 0, 97, 0
3, 90528, Note_on_c, 0, 99, 48
3, 90547, Note_on_c, 0, 99, 0
3, 90575, Note_on_c, 0, 101, 22
3, 90612, Note_on_c, 0, 63, 0
3, 90615, Note_on_c, 0, 101, 0
3, 90619, Note_on_c, 0, 60, 0
3, 90621, Note_on_c, 0, 53, 0
3, 90625, Note_on_c, 0, 103, 47
3, 90631, Note_on_c, 0, 56, 0
3, 90669, Note_on_c, 0, 103, 0
3, 90680, Note_on_c, 0, 104, 59
3, 90744, Note_on_c, 0, 106, 50
3, 90748, Note_on_c, 0, 104, 0
3, 90807, Note_on_c, 0, 106, 0
3, 90817, Note_on_c, 0, 108, 66
3, 90818, Note_on_c, 0, 25, 33
3, 90919, Note_on_c, 0, 108, 0
3, 90969, Note_on_c, 0, 25, 0
3, 91307, Control_c, 0, 64, 0
3, 91307, End_track
4, 0, Start_track
4, 0, MIDI_port, 0
4, 0, Title_t, "Track 3"
4, 0, Control_c, 1, 0, 0
4, 0, Control_c, 1, 7, 102
4, 0, Control_c, 1, 32, 122
4, 0, Program_c, 1, 32
4, 54711, Note_on_c, 1, 37, 78
4, 55123, Note_on_c, 1, 37, 0
4, 55155, Note_on_c, 1, 37, 55
4, 55196, Note_on_c, 1, 37, 0
4, 55202, Note_on_c, 1, 38, 67
4, 55435, Note_on_c, 1, 52, 87
4, 55593, Note_on_c, 1, 38, 0
4, 55635, Note_on_c, 1, 38, 46
4, 55636, Note_on_c, 1, 47, 48
4, 55647, Note_on_c, 1, 52, 0
4, 55654, Note_on_c, 1, 38, 0
4, 55655, Note_on_c, 1, 47, 0
4, 55681, Note_on_c, 1, 37, 75
4, 55763, Note_on_c, 1, 53, 83
4, 56035, Note_on_c, 1, 37, 0
4, 56080, Note_on_c, 1, 36, 55
4, 56104, Note_on_c, 1, 53, 0
4, 56111, Note_on_c, 1, 36, 0
4, 56113, Note_on_c, 1, 37, 71
4, 56150, Note_on_c, 1, 37, 0
4, 56159, Note_on_c, 1, 38, 79
4, 56236, Note_on_c, 1, 54, 82
4, 56603, Note_on_c, 1, 34, 38
4, 56612, Note_on_c, 1, 38, 0
4, 56637, Note_on_c, 1, 37, 69
4, 56638, Note_on_c, 1, 34, 0
4, 56640, Note_on_c, 1, 54, 0
4, 56846, Note_on_c, 1, 34, 36
4, 56882, Note_on_c, 1, 53, 83
4, 56987, Note_on_c, 1, 34, 0
4, 56993, Note_on_c, 1, 37, 0
4, 57078, Note_on_c, 1, 48, 64
4, 57087, Note_on_c, 1, 53, 0
4, 57115, Note_on_c, 1, 48, 0
4, 57120, Note_on_c, 1, 42, 92
4, 57328, Note_on_c, 1, 39, 38
4, 57355, Note_on_c, 1, 42, 0
4, 57356, Note_on_c, 1, 39, 0
4, 57360, Note_on_c, 1, 47, 87
4, 57443, Note_on_c, 1, 38, 71
4, 57456, Note_on_c, 1, 47, 0
4, 57463, Note_on_c, 1, 38, 0
4, 57481, Note_on_c, 1, 39, 81
4, 57578, Note_on_c, 1, 39, 0
4, 57592, Note_on_c, 1, 40, 80
4, 57715, Note_on_c, 1, 52, 110
4, 58035, Note_on_c, 1, 37, 38
4, 58046, Note_on_c, 1, 40, 0
4, 58050, Note_on_c, 1, 52, 0
4, 58080, Note_on_c, 1, 38, 66
4, 58082, Note_on_c, 1, 37, 0
4, 58193, Note_on_c, 1, 54, 88
4, 58542, Note_on_c, 1, 54, 0
4, 58561, Note_on_c, 1, 53, 43
4, 58561, Note_on_c, 1, 37, 46
4, 58569, Note_on_c, 1, 38, 0
4, 58584, Note_on_c, 1, 53, 0
4, 58938, Note_on_c, 1, 37, 0
4, 58962, Note_on_c, 1, 36, 55
4, 58984, Note_on_c, 1, 36, 0
4, 59004, Note_on_c, 1, 37, 64
4, 59032, Note_on_c, 1, 37, 0
4, 59040, Note_on_c, 1, 38, 74
4, 59235, Note_on_c, 1, 56, 84
4, 59273, Note_on_c, 1, 56, 0
4, 59294, Note_on_c, 1, 54, 62
4, 59502, Note_on_c, 1, 38, 0
4, 59506, Note_on_c, 1, 54, 0
4, 59520, Note_on_c, 1, 37, 71
4, 59830, Note_on_c, 1, 41, 64
4, 59839, Note_on_c, 1, 41, 0
4, 59869, Note_on_c, 1, 44, 53
4, 59873, Note_on_c, 1, 37, 0
4, 59903, Note_on_c, 1, 44, 0
4, 59948, Note_on_c, 1, 48, 67
4, 59968, Note_on_c, 1, 48, 0
4, 59995, Note_on_c, 1, 52, 96
4, 59997, Note_on_c, 1, 50, 75
4, 60005, Note_on_c, 1, 50, 0
4, 60049, Note_on_c, 1, 52, 0
4, 60064, Note_on_c, 1, 51, 83
4, 60100, Note_on_c, 1, 51, 0
4, 60111, Note_on_c, 1, 50, 63
4, 60180, Note_on_c, 1, 50, 0
4, 60192, Note_on_c, 1, 38, 79
4, 60338, Note_on_c, 1, 38, 0
4, 60352, Note_on_c, 1, 38, 84
4, 60478, Note_on_c, 1, 38, 0
4, 60480, Note_on_c, 1, 37, 90
4, 60684, Note_on_c, 1, 44, 41
4, 60692, Note_on_c, 1, 44, 0
4, 60700, Note_on_c, 1, 37, 0
4, 60720, Note_on_c, 1, 53, 91
4, 60926, Note_on_c, 1, 53, 0
4, 60953, Note_on_c, 1, 49, 92
4, 61159, Note_on_c, 1, 37, 54
4, 61176, Note_on_c, 1, 49, 0
4, 61180, Note_on_c, 1, 37, 0
4, 61195, Note_on_c, 1, 48, 63
4, 61279, Note_on_c, 1, 39, 59
4, 61281, Note_on_c, 1, 48, 0
4, 61302, Note_on_c, 1, 39, 0
4, 61314, Note_on_c, 1, 40, 75
4, 61404, Note_on_c, 1, 39, 37
4, 61427, Note_on_c, 1, 39, 0
4, 61428, Note_on_c, 1, 40, 0
4, 61433, Note_on_c, 1, 41, 71
4, 61641, Note_on_c, 1, 40, 49
4, 61668, Note_on_c, 1, 40, 0
4, 61675, Note_on_c, 1, 48, 113
4, 61721, Note_on_c, 1, 41, 0
4, 61756, Note_on_c, 1, 40, 48
4, 61767, Note_on_c, 1, 40, 0
4, 61783, Note_on_c, 1, 48, 0
4, 61792, Note_on_c, 1, 46, 90
4, 61896, Note_on_c, 1, 46, 0
4, 61906, Note_on_c, 1, 45, 79
4, 61978, Note_on_c, 1, 45, 0
4, 61994, Note_on_c, 1, 40, 54
4, 62010, Note_on_c, 1, 40, 0
4, 62030, Note_on_c, 1, 33, 82
4, 62316, Note_on_c, 1, 40, 62
4, 62322, Note_on_c, 1, 33, 0
4, 62326, Note_on_c, 1, 40, 0
4, 62355, Note_on_c, 1, 36, 64
4, 62363, Note_on_c, 1, 36, 0
4, 62392, Note_on_c, 1, 32, 78
4, 62636, Note_on_c, 1, 39, 91
4, 62649, Note_on_c, 1, 32, 0
4, 62878, Note_on_c, 1, 51, 104
4, 63042, Note_on_c, 1, 39, 0
4, 63121, Note_on_c, 1, 39, 92
4, 63227, Note_on_c, 1, 39, 0
4, 63239, Note_on_c, 1, 39, 91
4, 63257, Note_on_c, 1, 51, 0
4, 63479, Note_on_c, 1, 44, 92
4, 63495, Note_on_c, 1, 39, 0
4, 63676, Note_on_c, 1, 39, 30
4, 63707, Note_on_c, 1, 39, 0
4, 63707, Note_on_c, 1, 44, 0
4, 63712, Note_on_c, 1, 51, 88
4, 63731, Note_on_c, 1, 51, 0
4, 63753, Note_on_c, 1, 38, 67
4, 63772, Note_on_c, 1, 38, 0
4, 63794, Note_on_c, 1, 39, 81
4, 63825, Note_on_c, 1, 39, 0
4, 63834, Note_on_c, 1, 40, 91
4, 63951, Note_on_c, 1, 52, 115
4, 64061, Note_on_c, 1, 40, 0
4, 64065, Note_on_c, 1, 33, 89
4, 64080, Note_on_c, 1, 52, 0
4, 64177, Note_on_c, 1, 33, 0
4, 64186, Note_on_c, 1, 33, 89
4, 64426, Note_on_c, 1, 33, 0
4, 64431, Note_on_c, 1, 38, 94
4, 64653, Note_on_c, 1, 34, 23
4, 64684, Note_on_c, 1, 34, 0
4, 64757, Note_on_c, 1, 34, 30
4, 64796, Note_on_c, 1, 50, 92
4, 64798, Note_on_c, 1, 38, 0
4, 64800, Note_on_c, 1, 52, 62
4, 64806, Note_on_c, 1, 34, 0
4, 64808, Note_on_c, 1, 52, 0
4, 64902, Note_on_c, 1, 50, 0
4, 64912, Note_on_c, 1, 44, 75
4, 65004, Note_on_c, 1, 38, 57
4, 65013, Note_on_c, 1, 38, 0
4, 65025, Note_on_c, 1, 44, 0
4, 65035, Note_on_c, 1, 43, 65
4, 65115, Note_on_c, 1, 38, 65
4, 65122, Note_on_c, 1, 43, 0
4, 65130, Note_on_c, 1, 38, 0
4, 65149, Note_on_c, 1, 35, 81
4, 65261, Note_on_c, 1, 35, 0
4, 65269, Note_on_c, 1, 36, 91
4, 65582, Note_on_c, 1, 36, 0
4, 65589, Note_on_c, 1, 34, 92
4, 65736, Note_on_c, 1, 34, 0
4, 65757, Note_on_c, 1, 32, 86
4, 65848, Note_on_c, 1, 48, 80
4, 66217, Note_on_c, 1, 32, 0
4, 66227, Note_on_c, 1, 48, 0
4, 66228, Note_on_c, 1, 37, 78
4, 66479, Note_on_c, 1, 53, 96
4, 66679, Note_on_c, 1, 34, 39
4, 66711, Note_on_c, 1, 53, 0
4, 66712, Note_on_c, 1, 37, 0
4, 66721, Note_on_c, 1, 54, 59
4, 66722, Note_on_c, 1, 38, 68
4, 66723, Note_on_c, 1, 34, 0
4, 67070, Note_on_c, 1, 54, 0
4, 67117, Note_on_c, 1, 38, 0
4, 67121, Note_on_c, 1, 34, 71
4, 67141, Note_on_c, 1, 34, 0
4, 67157, Note_on_c, 1, 35, 29
4, 67176, Note_on_c, 1, 35, 0
4, 67182, Note_on_c, 1, 36, 68
4, 67209, Note_on_c, 1, 36, 0
4, 67218, Note_on_c, 1, 37, 88
4, 67445, Note_on_c, 1, 41, 96
4, 67460, Note_on_c, 1, 37, 0
4, 67634, Note_on_c, 1, 37, 46
4, 67658, Note_on_c, 1, 37, 0
4, 67662, Note_on_c, 1, 41, 0
4, 67675, Note_on_c, 1, 38, 76
4, 68004, Note_on_c, 1, 38, 0
4, 68034, Note_on_c, 1, 54, 90
4, 68121, Note_on_c, 1, 43, 49
4, 68130, Note_on_c, 1, 43, 0
4, 68145, Note_on_c, 1, 54, 0
4, 68153, Note_on_c, 1, 49, 79
4, 68393, Note_on_c, 1, 44, 80
4, 68403, Note_on_c, 1, 49, 0
4, 68632, Note_on_c, 1, 48, 84
4, 68638, Note_on_c, 1, 44, 0
4, 68753, Note_on_c, 1, 60, 105
4, 68840, Note_on_c, 1, 46, 49
4, 68841, Note_on_c, 1, 60, 0
4, 68873, Note_on_c, 1, 46, 0
4, 68874, Note_on_c, 1, 48, 0
4, 68877, Note_on_c, 1, 59, 92
4, 68998, Note_on_c, 1, 47, 74
4, 69096, Note_on_c, 1, 47, 0
4, 69114, Note_on_c, 1, 41, 103
4, 69120, Note_on_c, 1, 59, 0
4, 69346, Note_on_c, 1, 41, 0
4, 69359, Note_on_c, 1, 47, 92
4, 69561, Note_on_c, 1, 41, 59
4, 69564, Note_on_c, 1, 47, 0
4, 69591, Note_on_c, 1, 41, 0
4, 69605, Note_on_c, 1, 46, 69
4, 69618, Note_on_c, 1, 46, 0
4, 69677, Note_on_c, 1, 41, 75
4, 69702, Note_on_c, 1, 41, 0
4, 69719, Note_on_c, 1, 34, 80
4, 69951, Note_on_c, 1, 43, 80
4, 70003, Note_on_c, 1, 43, 0
4, 70027, Note_on_c, 1, 34, 0
4, 70029, Note_on_c, 1, 41, 71
4, 70059, Note_on_c, 1, 41, 0
4, 70071, Note_on_c, 1, 42, 92
4, 70517, Note_on_c, 1, 42, 0
4, 70520, Note_on_c, 1, 36, 46
4, 70544, Note_on_c, 1, 36, 0
4, 70564, Note_on_c, 1, 35, 77
4, 70799, Note_on_c, 1, 47, 105
4, 70803, Note_on_c, 1, 42, 49
4, 70810, Note_on_c, 1, 42, 0
4, 70821, Note_on_c, 1, 35, 0
4, 71003, Note_on_c, 1, 39, 40
4, 71015, Note_on_c, 1, 47, 0
4, 71033, Note_on_c, 1, 39, 0
4, 71039, Note_on_c, 1, 45, 90
4, 71281, Note_on_c, 1, 33, 95
4, 71376, Note_on_c, 1, 33, 0
4, 71396, Note_on_c, 1, 45, 0
4, 71399, Note_on_c, 1, 33, 74
4, 71436, Note_on_c, 1, 33, 0
4, 71520, Note_on_c, 1, 44, 92
4, 71562, Pitch_bend_c, 1, 8192
4, 71565, Pitch_bend_c, 1, 8192
4, 71568, Pitch_bend_c, 1, 8192
4, 71571, Pitch_bend_c, 1, 7552
4, 71573, Pitch_bend_c, 1, 7424
4, 71574, Pitch_bend_c, 1, 7168
4, 71576, Pitch_bend_c, 1, 7040
4, 71578, Pitch_bend_c, 1, 6784
4, 71579, Pitch_bend_c, 1, 6656
4, 71581, Pitch_bend_c, 1, 6528
4, 71583, Pitch_bend_c, 1, 6400
4, 71585, Pitch_bend_c, 1, 6272
4, 71586, Pitch_bend_c, 1, 6144
4, 71590, Pitch_bend_c, 1, 5888
4, 71593, Pitch_bend_c, 1, 5760
4, 71595, Pitch_bend_c, 1, 5632
4, 71600, Pitch_bend_c, 1, 5504
4, 71605, Pitch_bend_c, 1, 5376
4, 71608, Pitch_bend_c, 1, 4992
4, 71612, Pitch_bend_c, 1, 4864
4, 71616, Pitch_bend_c, 1, 4608
4, 71620, Pitch_bend_c, 1, 4480
4, 71623, Pitch_bend_c, 1, 4224
4, 71625, Pitch_bend_c, 1, 4096
4, 71626, Pitch_bend_c, 1, 3968
4, 71630, Pitch_bend_c, 1, 3712
4, 71633, Pitch_bend_c, 1, 3584
4, 71637, Pitch_bend_c, 1, 3328
4, 71638, Pitch_bend_c, 1, 3200
4, 71640, Pitch_bend_c, 1, 3072
4, 71643, Pitch_bend_c, 1, 2944
4, 71647, Pitch_bend_c, 1, 2816
4, 71651, Note_on_c, 1, 44, 0
4, 71655, Pitch_bend_c, 1, 3200
4, 71656, Pitch_bend_c, 1, 3840
4, 71658, Pitch_bend_c, 1, 4736
4, 71660, Pitch_bend_c, 1, 5888
4, 71662, Pitch_bend_c, 1, 7168
4, 71663, Pitch_bend_c, 1, 8192
4, 71664, Pitch_bend_c, 1, 8192
4, 71832, Note_on_c, 1, 44, 90
4, 71917, Note_on_c, 1, 38, 63
4, 71932, Note_on_c, 1, 38, 0
4, 71932, Note_on_c, 1, 44, 0
4, 71968, Note_on_c, 1, 36, 60
4, 71970, Note_on_c, 1, 35, 32
4, 71976, Note_on_c, 1, 36, 0
4, 71980, Note_on_c, 1, 35, 0
4, 72004, Note_on_c, 1, 37, 88
4, 72203, Note_on_c, 1, 34, 25
4, 72234, Note_on_c, 1, 34, 0
4, 72238, Note_on_c, 1, 49, 88
4, 72363, Note_on_c, 1, 37, 0
4, 72479, Note_on_c, 1, 30, 87
4, 72487, Note_on_c, 1, 49, 0
4, 72494, Note_on_c, 1, 32, 26
4, 72502, Note_on_c, 1, 32, 0
4, 72724, Note_on_c, 1, 42, 97
4, 72751, Note_on_c, 1, 30, 0
4, 72937, Note_on_c, 1, 42, 0
4, 72952, Note_on_c, 1, 41, 95
4, 72993, Note_on_c, 1, 41, 0
4, 73029, Note_on_c, 1, 36, 66
4, 73037, Note_on_c, 1, 36, 0
4, 73070, Note_on_c, 1, 29, 94
4, 73393, Note_on_c, 1, 47, 96
4, 73400, Note_on_c, 1, 45, 44
4, 73408, Note_on_c, 1, 45, 0
4, 73426, Note_on_c, 1, 29, 0
4, 73435, Note_on_c, 1, 47, 0
4, 73445, Note_on_c, 1, 46, 91
4, 73552, Note_on_c, 1, 34, 90
4, 73567, Note_on_c, 1, 46, 0
4, 73789, Note_on_c, 1, 43, 94
4, 73808, Note_on_c, 1, 34, 0
4, 73864, Note_on_c, 1, 43, 0
4, 73870, Note_on_c, 1, 34, 52
4, 73903, Note_on_c, 1, 34, 0
4, 73911, Note_on_c, 1, 42, 95
4, 74280, Note_on_c, 1, 36, 103
4, 74388, Note_on_c, 1, 36, 0
4, 74398, Note_on_c, 1, 35, 99
4, 74428, Note_on_c, 1, 42, 0
4, 74832, Note_on_c, 1, 35, 0
4, 74883, Note_on_c, 1, 33, 96
4, 74884, Note_on_c, 1, 31, 99
4, 74930, Note_on_c, 1, 31, 0
4, 74964, Note_on_c, 1, 33, 0
4, 75003, Note_on_c, 1, 33, 113
4, 75330, Note_on_c, 1, 33, 0
4, 75360, Note_on_c, 1, 32, 94
4, 75419, Note_on_c, 1, 32, 0
4, 75471, Note_on_c, 1, 32, 94
4, 75791, Note_on_c, 1, 32, 0
4, 75832, Note_on_c, 1, 32, 91
4, 76062, Note_on_c, 1, 32, 0
4, 76072, Note_on_c, 1, 33, 95
4, 76305, Note_on_c, 1, 33, 0
4, 76311, Note_on_c, 1, 34, 93
4, 76540, Note_on_c, 1, 34, 0
4, 76551, Note_on_c, 1, 35, 91
4, 76733, Note_on_c, 1, 35, 0
4, 76750, Note_on_c, 1, 34, 55
4, 76756, Note_on_c, 1, 35, 51
4, 76773, Note_on_c, 1, 34, 0
4, 76784, Note_on_c, 1, 35, 0
4, 76794, Note_on_c, 1, 36, 105
4, 76994, Note_on_c, 1, 34, 60
4, 77009, Note_on_c, 1, 36, 0
4, 77030, Note_on_c, 1, 34, 0
4, 77038, Note_on_c, 1, 38, 101
4, 77235, Note_on_c, 1, 34, 39
4, 77259, Note_on_c, 1, 38, 0
4, 77268, Note_on_c, 1, 34, 0
4, 77276, Note_on_c, 1, 37, 94
4, 77523, Note_on_c, 1, 44, 98
4, 77542, Note_on_c, 1, 37, 0
4, 77618, Note_on_c, 1, 44, 0
4, 77637, Note_on_c, 1, 44, 97
4, 77755, Note_on_c, 1, 44, 0
4, 77758, Note_on_c, 1, 37, 79
4, 78014, Note_on_c, 1, 37, 73
4, 78045, Control_c, 1, 64, 127
4, 78070, Note_on_c, 1, 37, 0
4, 78240, Note_on_c, 1, 38, 87
4, 78285, Control_c, 1, 64, 0
4, 78492, Note_on_c, 1, 50, 113
4, 78519, Note_on_c, 1, 37, 0
4, 78631, Note_on_c, 1, 38, 0
4, 78688, Note_on_c, 1, 38, 74
4, 78710, Note_on_c, 1, 38, 0
4, 78724, Note_on_c, 1, 50, 0
4, 78733, Note_on_c, 1, 49, 95
4, 79175, Note_on_c, 1, 39, 44
4, 79201, Note_on_c, 1, 39, 0
4, 79220, Note_on_c, 1, 38, 94
4, 79245, Note_on_c, 1, 49, 0
4, 79529, Note_on_c, 1, 50, 110
4, 79563, Note_on_c, 1, 38, 0
4, 79625, Note_on_c, 1, 38, 63
4, 79646, Note_on_c, 1, 50, 0
4, 79648, Note_on_c, 1, 38, 0
4, 79665, Note_on_c, 1, 36, 77
4, 79683, Note_on_c, 1, 36, 0
4, 79705, Note_on_c, 1, 37, 88
4, 80174, Note_on_c, 1, 48, 123
4, 80207, Note_on_c, 1, 37, 0
4, 80373, Note_on_c, 1, 37, 63
4, 80390, Note_on_c, 1, 37, 0
4, 80413, Note_on_c, 1, 48, 0
4, 80415, Note_on_c, 1, 47, 96
4, 80609, Note_on_c, 1, 40, 51
4, 80642, Note_on_c, 1, 40, 0
4, 80656, Note_on_c, 1, 41, 96
4, 80666, Note_on_c, 1, 47, 0
4, 81008, Note_on_c, 1, 34, 90
4, 81011, Note_on_c, 1, 41, 0
4, 81255, Note_on_c, 1, 46, 104
4, 81358, Note_on_c, 1, 34, 0
4, 81598, Note_on_c, 1, 46, 0
4, 81600, Note_on_c, 1, 42, 99
4, 81685, Pitch_bend_c, 1, 8192
4, 81688, Pitch_bend_c, 1, 8192
4, 81691, Pitch_bend_c, 1, 8192
4, 81695, Pitch_bend_c, 1, 7680
4, 81696, Pitch_bend_c, 1, 7552
4, 81698, Pitch_bend_c, 1, 7424
4, 81700, Pitch_bend_c, 1, 7296
4, 81702, Pitch_bend_c, 1, 7168
4, 81703, Pitch_bend_c, 1, 7040
4, 81705, Pitch_bend_c, 1, 6912
4, 81708, Pitch_bend_c, 1, 6656
4, 81712, Pitch_bend_c, 1, 6528
4, 81715, Pitch_bend_c, 1, 6272
4, 81719, Pitch_bend_c, 1, 6144
4, 81723, Pitch_bend_c, 1, 6016
4, 81726, Pitch_bend_c, 1, 5888
4, 81730, Pitch_bend_c, 1, 5760
4, 81738, Pitch_bend_c, 1, 5632
4, 81746, Pitch_bend_c, 1, 5504
4, 81779, Pitch_bend_c, 1, 5760
4, 81781, Pitch_bend_c, 1, 6016
4, 81783, Pitch_bend_c, 1, 6400
4, 81784, Pitch_bend_c, 1, 6656
4, 81786, Pitch_bend_c, 1, 7040
4, 81788, Pitch_bend_c, 1, 7296
4, 81789, Pitch_bend_c, 1, 7552
4, 81791, Pitch_bend_c, 1, 8192
4, 81792, Pitch_bend_c, 1, 8192
4, 81793, Pitch_bend_c, 1, 8192
4, 81831, Note_on_c, 1, 42, 0
4, 82091, Note_on_c, 1, 47, 99
4, 82334, Note_on_c, 1, 35, 92
4, 82429, Note_on_c, 1, 47, 0
4, 82543, Note_on_c, 1, 32, 34
4, 82559, Note_on_c, 1, 35, 0
4, 82578, Note_on_c, 1, 32, 0
4, 82584, Note_on_c, 1, 33, 92
4, 82936, Note_on_c, 1, 49, 102
4, 83050, Note_on_c, 1, 49, 0
4, 83061, Note_on_c, 1, 48, 101
4, 83088, Note_on_c, 1, 33, 0
4, 83175, Note_on_c, 1, 32, 83
4, 83535, Note_on_c, 1, 32, 0
4, 83543, Note_on_c, 1, 37, 93
4, 83643, Note_on_c, 1, 48, 0
4, 83959, Note_on_c, 1, 37, 0
4, 83967, Note_on_c, 1, 31, 80
4, 84030, Note_on_c, 1, 31, 0
4, 84039, Note_on_c, 1, 30, 82
4, 84258, Note_on_c, 1, 42, 97
4, 84400, Note_on_c, 1, 30, 0
4, 84447, Note_on_c, 1, 30, 46
4, 84475, Note_on_c, 1, 42, 0
4, 84491, Note_on_c, 1, 30, 0
4, 84494, Note_on_c, 1, 41, 94
4, 84971, Note_on_c, 1, 41, 0
4, 84973, Note_on_c, 1, 34, 87
4, 85460, Note_on_c, 1, 42, 108
4, 85477, Note_on_c, 1, 34, 0
4, 85701, Note_on_c, 1, 30, 85
4, 85806, Note_on_c, 1, 42, 0
4, 85943, Note_on_c, 1, 47, 118
4, 86029, Note_on_c, 1, 30, 0
4, 86175, Note_on_c, 1, 35, 103
4, 86189, Note_on_c, 1, 47, 0
4, 86380, Note_on_c, 1, 35, 0
4, 86428, Note_on_c, 1, 33, 118
4, 86819, Note_on_c, 1, 34, 71
4, 86820, Note_on_c, 1, 33, 0
4, 86837, Note_on_c, 1, 34, 0
4, 86863, Note_on_c, 1, 33, 78
4, 86889, Note_on_c, 1, 33, 0
4, 86909, Note_on_c, 1, 32, 92
4, 86919, Note_on_c, 1, 31, 32
4, 86929, Note_on_c, 1, 31, 0
4, 87335, Note_on_c, 1, 32, 0
4, 87388, Note_on_c, 1, 32, 97
4, 87637, Note_on_c, 1, 33, 95
4, 87653, Note_on_c, 1, 32, 0
4, 87900, Note_on_c, 1, 34, 86
4, 87911, Note_on_c, 1, 33, 0
4, 88205, Note_on_c, 1, 35, 88
4, 88228, Note_on_c, 1, 34, 0
4, 88538, Note_on_c, 1, 35, 0
4, 88539, Note_on_c, 1, 36, 89
4, 88903, Note_on_c, 1, 33, 40
4, 88905, Note_on_c, 1, 31, 29
4, 88913, Note_on_c, 1, 33, 0
4, 88913, Note_on_c, 1, 36, 0
4, 88915, Note_on_c, 1, 31, 0
4, 88916, Note_on_c, 1, 38, 94
4, 89385, Note_on_c, 1, 38, 0
4, 89397, Note_on_c, 1, 37, 92
4, 90260, Note_on_c, 1, 37, 0
4, 90260, End_track
5, 0, Start_track
5, 0, MIDI_port, 0
5, 0, Title_t, "Track 4"
5, 0, Program_c, 9, 32
5, 0, Control_c, 9, 7, 83
5, 54735, Note_on_c, 9, 59, 63
5, 54743, Note_on_c, 9, 59, 0
5, 54847, Note_on_c, 9, 59, 66
5, 54858, Note_on_c, 9, 59, 0
5, 54858, Note_on_c, 9, 44, 64
5, 54893, Note_on_c, 9, 44, 0
5, 54935, Note_on_c, 9, 59, 66
5, 54948, Note_on_c, 9, 59, 0
5, 54969, Note_on_c, 9, 59, 71
5, 55024, Note_on_c, 9, 59, 0
5, 55082, Note_on_c, 9, 59, 95
5, 55104, Note_on_c, 9, 59, 0
5, 55284, Note_on_c, 9, 59, 57
5, 55296, Note_on_c, 9, 59, 0
5, 55319, Note_on_c, 9, 59, 64
5, 55396, Note_on_c, 9, 59, 0
5, 55442, Note_on_c, 9, 59, 85
5, 55506, Note_on_c, 9, 59, 0
5, 55558, Note_on_c, 9, 59, 55
5, 55560, Note_on_c, 9, 44, 57
5, 55579, Note_on_c, 9, 44, 0
5, 55593, Note_on_c, 9, 59, 0
5, 55639, Note_on_c, 9, 59, 91
5, 55745, Note_on_c, 9, 59, 0
5, 55765, Note_on_c, 9, 59, 58
5, 55781, Note_on_c, 9, 59, 0
5, 55802, Note_on_c, 9, 59, 73
5, 55888, Note_on_c, 9, 59, 0
5, 55924, Note_on_c, 9, 59, 74
5, 55998, Note_on_c, 9, 59, 0
5, 56044, Note_on_c, 9, 44, 67
5, 56047, Note_on_c, 9, 59, 83
5, 56064, Note_on_c, 9, 44, 0
5, 56107, Note_on_c, 9, 59, 0
5, 56133, Note_on_c, 9, 59, 53
5, 56145, Note_on_c, 9, 59, 0
5, 56167, Note_on_c, 9, 59, 71
5, 56237, Note_on_c, 9, 59, 0
5, 56279, Note_on_c, 9, 59, 87
5, 56345, Note_on_c, 9, 59, 0
5, 56398, Note_on_c, 9, 59, 80
5, 56427, Note_on_c, 9, 59, 0
5, 56473, Note_on_c, 9, 36, 62
5, 56485, Note_on_c, 9, 59, 55
5, 56493, Note_on_c, 9, 36, 0
5, 56494, Note_on_c, 9, 59, 0
5, 56513, Note_on_c, 9, 36, 40
5, 56515, Note_on_c, 9, 59, 80
5, 56553, Note_on_c, 9, 36, 0
5, 56599, Note_on_c, 9, 59, 0
5, 56638, Note_on_c, 9, 59, 79
5, 56711, Note_on_c, 9, 59, 0
5, 56760, Note_on_c, 9, 59, 85
5, 56814, Note_on_c, 9, 59, 0
5, 56854, Note_on_c, 9, 59, 57
5, 56863, Note_on_c, 9, 59, 0
5, 56882, Note_on_c, 9, 59, 70
5, 56956, Note_on_c, 9, 38, 42
5, 56958, Note_on_c, 9, 59, 0
5, 56967, Note_on_c, 9, 38, 0
5, 56998, Note_on_c, 9, 59, 85
5, 57003, Note_on_c, 9, 36, 44
5, 57014, Note_on_c, 9, 36, 0
5, 57073, Note_on_c, 9, 36, 53
5, 57075, Note_on_c, 9, 59, 0
5, 57084, Note_on_c, 9, 36, 0
5, 57121, Note_on_c, 9, 59, 90
5, 57123, Note_on_c, 9, 36, 39
5, 57151, Note_on_c, 9, 36, 0
5, 57190, Note_on_c, 9, 59, 0
5, 57210, Note_on_c, 9, 59, 58
5, 57224, Note_on_c, 9, 59, 0
5, 57242, Note_on_c, 9, 59, 85
5, 57330, Note_on_c, 9, 59, 0
5, 57363, Note_on_c, 9, 59, 85
5, 57435, Note_on_c, 9, 59, 0
5, 57484, Note_on_c, 9, 59, 105
5, 57562, Note_on_c, 9, 38, 37
5, 57574, Note_on_c, 9, 38, 0
5, 57576, Note_on_c, 9, 59, 0
5, 57614, Note_on_c, 9, 38, 21
5, 57634, Note_on_c, 9, 38, 0
5, 57672, Note_on_c, 9, 36, 50
5, 57685, Note_on_c, 9, 59, 64
5, 57686, Note_on_c, 9, 36, 0
5, 57702, Note_on_c, 9, 59, 0
5, 57720, Note_on_c, 9, 59, 84
5, 57809, Note_on_c, 9, 59, 0
5, 57843, Note_on_c, 9, 59, 82
5, 57913, Note_on_c, 9, 59, 0
5, 57964, Note_on_c, 9, 59, 88
5, 58039, Note_on_c, 9, 59, 0
5, 58057, Note_on_c, 9, 59, 64
5, 58066, Note_on_c, 9, 59, 0
5, 58086, Note_on_c, 9, 40, 37
5, 58089, Note_on_c, 9, 59, 75
5, 58098, Note_on_c, 9, 40, 0
5, 58124, Note_on_c, 9, 40, 37
5, 58135, Note_on_c, 9, 40, 0
5, 58168, Note_on_c, 9, 59, 0
5, 58173, Note_on_c, 9, 36, 29
5, 58184, Note_on_c, 9, 36, 0
5, 58203, Note_on_c, 9, 59, 88
5, 58210, Note_on_c, 9, 40, 37
5, 58224, Note_on_c, 9, 40, 0
5, 58248, Note_on_c, 9, 40, 35
5, 58259, Note_on_c, 9, 40, 0
5, 58276, Note_on_c, 9, 59, 0
5, 58295, Note_on_c, 9, 59, 54
5, 58303, Note_on_c, 9, 59, 0
5, 58323, Note_on_c, 9, 59, 70
5, 58391, Note_on_c, 9, 59, 0
5, 58392, Note_on_c, 9, 36, 66
5, 58418, Note_on_c, 9, 36, 0
5, 58439, Note_on_c, 9, 36, 58
5, 58441, Note_on_c, 9, 59, 91
5, 58456, Note_on_c, 9, 59, 0
5, 58465, Note_on_c, 9, 36, 0
5, 58511, Note_on_c, 9, 36, 72
5, 58526, Note_on_c, 9, 59, 85
5, 58542, Note_on_c, 9, 36, 0
5, 58589, Note_on_c, 9, 59, 0
5, 58649, Note_on_c, 9, 59, 55
5, 58661, Note_on_c, 9, 59, 0
5, 58689, Note_on_c, 9, 59, 88
5, 58775, Note_on_c, 9, 59, 0
5, 58804, Note_on_c, 9, 59, 51
5, 58831, Note_on_c, 9, 59, 0
5, 58881, Note_on_c, 9, 59, 94
5, 58922, Note_on_c, 9, 59, 0
5, 58936, Note_on_c, 9, 59, 51
5, 58951, Note_on_c, 9, 59, 0
5, 58996, Note_on_c, 9, 40, 42
5, 59008, Note_on_c, 9, 40, 0
5, 59055, Note_on_c, 9, 59, 88
5, 59120, Note_on_c, 9, 59, 0
5, 59127, Note_on_c, 9, 40, 25
5, 59137, Note_on_c, 9, 40, 0
5, 59141, Note_on_c, 9, 59, 48
5, 59151, Note_on_c, 9, 59, 0
5, 59181, Note_on_c, 9, 59, 46
5, 59199, Note_on_c, 9, 59, 0
5, 59251, Note_on_c, 9, 59, 83
5, 59257, Note_on_c, 9, 53, 65
5, 59259, Note_on_c, 9, 40, 17
5, 59271, Note_on_c, 9, 40, 0
5, 59276, Note_on_c, 9, 53, 0
5, 59312, Note_on_c, 9, 59, 0
5, 59368, Note_on_c, 9, 59, 53
5, 59376, Note_on_c, 9, 59, 0
5, 59383, Note_on_c, 9, 36, 41
5, 59395, Note_on_c, 9, 36, 0
5, 59417, Note_on_c, 9, 53, 71
5, 59418, Note_on_c, 9, 59, 87
5, 59424, Note_on_c, 9, 36, 49
5, 59456, Note_on_c, 9, 53, 0
5, 59480, Note_on_c, 9, 36, 0
5, 59496, Note_on_c, 9, 59, 0
5, 59500, Note_on_c, 9, 36, 65
5, 59532, Note_on_c, 9, 59, 38
5, 59544, Note_on_c, 9, 36, 0
5, 59557, Note_on_c, 9, 59, 0
5, 59606, Note_on_c, 9, 59, 88
5, 59689, Note_on_c, 9, 59, 0
5, 59729, Note_on_c, 9, 53, 66
5, 59731, Note_on_c, 9, 59, 58
5, 59737, Note_on_c, 9, 53, 0
5, 59740, Note_on_c, 9, 59, 0
5, 59771, Note_on_c, 9, 59, 83
5, 59860, Note_on_c, 9, 59, 0
5, 59882, Note_on_c, 9, 59, 60
5, 59917, Note_on_c, 9, 59, 0
5, 59956, Note_on_c, 9, 59, 90
5, 59973, Note_on_c, 9, 36, 30
5, 59983, Note_on_c, 9, 36, 0
5, 60059, Note_on_c, 9, 59, 0
5, 60081, Note_on_c, 9, 59, 58
5, 60097, Note_on_c, 9, 59, 0
5, 60115, Note_on_c, 9, 59, 80
5, 60190, Note_on_c, 9, 59, 0
5, 60241, Note_on_c, 9, 59, 80
5, 60297, Note_on_c, 9, 59, 0
5, 60353, Note_on_c, 9, 44, 65
5, 60358, Note_on_c, 9, 59, 85
5, 60368, Note_on_c, 9, 44, 0
5, 60393, Note_on_c, 9, 59, 0
5, 60441, Note_on_c, 9, 59, 62
5, 60451, Note_on_c, 9, 59, 0
5, 60474, Note_on_c, 9, 59, 70
5, 60528, Note_on_c, 9, 59, 0
5, 60552, Note_on_c, 9, 36, 34
5, 60565, Note_on_c, 9, 36, 0
5, 60598, Note_on_c, 9, 59, 79
5, 60606, Note_on_c, 9, 59, 0
5, 60672, Note_on_c, 9, 36, 35
5, 60675, Note_on_c, 9, 59, 71
5, 60678, Note_on_c, 9, 53, 75
5, 60684, Note_on_c, 9, 59, 0
5, 60686, Note_on_c, 9, 53, 0
5, 60689, Note_on_c, 9, 36, 0
5, 60714, Note_on_c, 9, 53, 51
5, 60715, Note_on_c, 9, 59, 58
5, 60732, Note_on_c, 9, 53, 0
5, 60760, Note_on_c, 9, 59, 0
5, 60787, Note_on_c, 9, 44, 62
5, 60803, Note_on_c, 9, 44, 0
5, 60838, Note_on_c, 9, 59, 67
5, 60868, Note_on_c, 9, 59, 0
5, 60912, Note_on_c, 9, 44, 62
5, 60920, Note_on_c, 9, 44, 0
5, 60925, Note_on_c, 9, 59, 52
5, 60936, Note_on_c, 9, 59, 0
5, 60961, Note_on_c, 9, 59, 68
5, 61022, Note_on_c, 9, 59, 0
5, 61029, Note_on_c, 9, 36, 57
5, 61039, Note_on_c, 9, 36, 0
5, 61073, Note_on_c, 9, 36, 51
5, 61077, Note_on_c, 9, 59, 81
5, 61104, Note_on_c, 9, 36, 0
5, 61122, Note_on_c, 9, 59, 0
5, 61163, Note_on_c, 9, 59, 59
5, 61176, Note_on_c, 9, 59, 0
5, 61200, Note_on_c, 9, 59, 68
5, 61256, Note_on_c, 9, 59, 0
5, 61320, Note_on_c, 9, 59, 83
5, 61335, Note_on_c, 9, 59, 0
5, 61397, Note_on_c, 9, 59, 90
5, 61413, Note_on_c, 9, 59, 0
5, 61510, Note_on_c, 9, 44, 64
5, 61518, Note_on_c, 9, 44, 0
5, 61521, Note_on_c, 9, 59, 64
5, 61531, Note_on_c, 9, 59, 0
5, 61563, Note_on_c, 9, 59, 92
5, 61624, Note_on_c, 9, 59, 0
5, 61626, Note_on_c, 9, 44, 60
5, 61635, Note_on_c, 9, 44, 0
5, 61669, Note_on_c, 9, 59, 52
5, 61691, Note_on_c, 9, 59, 0
5, 61742, Note_on_c, 9, 36, 66
5, 61755, Note_on_c, 9, 59, 90
5, 61767, Note_on_c, 9, 36, 0
5, 61784, Note_on_c, 9, 36, 47
5, 61809, Note_on_c, 9, 59, 0
5, 61823, Note_on_c, 9, 36, 0
5, 61868, Note_on_c, 9, 36, 58
5, 61875, Note_on_c, 9, 59, 64
5, 61885, Note_on_c, 9, 59, 0
5, 61888, Note_on_c, 9, 36, 0
5, 61924, Note_on_c, 9, 59, 80
5, 61971, Note_on_c, 9, 59, 0
5, 61998, Note_on_c, 9, 59, 72
5, 62003, Note_on_c, 9, 53, 79
5, 62050, Note_on_c, 9, 53, 0
5, 62053, Note_on_c, 9, 59, 0
5, 62112, Note_on_c, 9, 36, 46
5, 62118, Note_on_c, 9, 59, 58
5, 62121, Note_on_c, 9, 36, 0
5, 62142, Note_on_c, 9, 59, 0
5, 62170, Note_on_c, 9, 59, 80
5, 62172, Note_on_c, 9, 53, 80
5, 62232, Note_on_c, 9, 53, 0
5, 62233, Note_on_c, 9, 59, 0
5, 62288, Note_on_c, 9, 59, 60
5, 62298, Note_on_c, 9, 59, 0
5, 62357, Note_on_c, 9, 46, 64
5, 62363, Note_on_c, 9, 53, 82
5, 62363, Note_on_c, 9, 59, 89
5, 62364, Note_on_c, 9, 36, 62
5, 62372, Note_on_c, 9, 46, 0
5, 62374, Note_on_c, 9, 36, 0
5, 62390, Note_on_c, 9, 53, 0
5, 62391, Note_on_c, 9, 59, 0
5, 62529, Note_on_c, 9, 59, 48
5, 62538, Note_on_c, 9, 59, 0
5, 62610, Note_on_c, 9, 59, 49
5, 62635, Note_on_c, 9, 59, 0
5, 62649, Note_on_c, 9, 59, 66
5, 62704, Note_on_c, 9, 59, 0
5, 62715, Note_on_c, 9, 38, 30
5, 62732, Note_on_c, 9, 38, 0
5, 62759, Note_on_c, 9, 38, 28
5, 62785, Note_on_c, 9, 38, 0
5, 62839, Note_on_c, 9, 36, 54
5, 62845, Note_on_c, 9, 59, 64
5, 62853, Note_on_c, 9, 36, 0
5, 62856, Note_on_c, 9, 59, 0
5, 62886, Note_on_c, 9, 36, 62
5, 62887, Note_on_c, 9, 59, 61
5, 62914, Note_on_c, 9, 36, 0
5, 62945, Note_on_c, 9, 59, 0
5, 63089, Note_on_c, 9, 59, 57
5, 63101, Note_on_c, 9, 59, 0
5, 63129, Note_on_c, 9, 59, 53
5, 63166, Note_on_c, 9, 59, 0
5, 63202, Note_on_c, 9, 59, 95
5, 63308, Note_on_c, 9, 59, 0
5, 63322, Note_on_c, 9, 44, 67
5, 63326, Note_on_c, 9, 59, 63
5, 63334, Note_on_c, 9, 59, 0
5, 63334, Note_on_c, 9, 44, 0
5, 63361, Note_on_c, 9, 59, 83
5, 63367, Note_on_c, 9, 36, 35
5, 63383, Note_on_c, 9, 36, 0
5, 63446, Note_on_c, 9, 36, 44
5, 63452, Note_on_c, 9, 59, 0
5, 63459, Note_on_c, 9, 36, 0
5, 63487, Note_on_c, 9, 36, 62
5, 63543, Note_on_c, 9, 36, 0
5, 63568, Note_on_c, 9, 59, 55
5, 63578, Note_on_c, 9, 59, 0
5, 63603, Note_on_c, 9, 59, 73
5, 63663, Note_on_c, 9, 59, 0
5, 63716, Note_on_c, 9, 59, 79
5, 63777, Note_on_c, 9, 59, 0
5, 63793, Note_on_c, 9, 38, 41
5, 63806, Note_on_c, 9, 38, 0
5, 63839, Note_on_c, 9, 59, 81
5, 63847, Note_on_c, 9, 36, 35
5, 63874, Note_on_c, 9, 36, 0
5, 63895, Note_on_c, 9, 59, 0
5, 63913, Note_on_c, 9, 36, 41
5, 63926, Note_on_c, 9, 36, 0
5, 64030, Note_on_c, 9, 38, 52
5, 64041, Note_on_c, 9, 59, 68
5, 64048, Note_on_c, 9, 38, 0
5, 64055, Note_on_c, 9, 59, 0
5, 64077, Note_on_c, 9, 59, 69
5, 64079, Note_on_c, 9, 36, 47
5, 64090, Note_on_c, 9, 36, 0
5, 64128, Note_on_c, 9, 59, 0
5, 64154, Note_on_c, 9, 36, 38
5, 64159, Note_on_c, 9, 59, 57
5, 64166, Note_on_c, 9, 36, 0
5, 64168, Note_on_c, 9, 59, 0
5, 64197, Note_on_c, 9, 59, 87
5, 64273, Note_on_c, 9, 59, 0
5, 64314, Note_on_c, 9, 59, 84
5, 64380, Note_on_c, 9, 59, 0
5, 64434, Note_on_c, 9, 59, 82
5, 64482, Note_on_c, 9, 59, 0
5, 64523, Note_on_c, 9, 59, 63
5, 64537, Note_on_c, 9, 59, 0
5, 64555, Note_on_c, 9, 59, 79
5, 64625, Note_on_c, 9, 59, 0
5, 64629, Note_on_c, 9, 36, 40
5, 64641, Note_on_c, 9, 36, 0
5, 64676, Note_on_c, 9, 59, 85
5, 64724, Note_on_c, 9, 59, 0
5, 64754, Note_on_c, 9, 36, 65
5, 64764, Note_on_c, 9, 59, 64
5, 64766, Note_on_c, 9, 36, 0
5, 64778, Note_on_c, 9, 59, 0
5, 64794, Note_on_c, 9, 36, 48
5, 64799, Note_on_c, 9, 59, 71
5, 64827, Note_on_c, 9, 36, 0
5, 64850, Note_on_c, 9, 59, 0
5, 64914, Note_on_c, 9, 59, 89
5, 64917, Note_on_c, 9, 44, 63
5, 64950, Note_on_c, 9, 44, 0
5, 64983, Note_on_c, 9, 59, 0
5, 65042, Note_on_c, 9, 59, 51
5, 65052, Note_on_c, 9, 59, 0
5, 65116, Note_on_c, 9, 36, 36
5, 65120, Note_on_c, 9, 59, 82
5, 65129, Note_on_c, 9, 36, 0
5, 65145, Note_on_c, 9, 59, 0
5, 65161, Note_on_c, 9, 59, 75
5, 65220, Note_on_c, 9, 59, 0
5, 65275, Note_on_c, 9, 59, 71
5, 65311, Note_on_c, 9, 59, 0
5, 65352, Note_on_c, 9, 36, 44
5, 65362, Note_on_c, 9, 36, 0
5, 65395, Note_on_c, 9, 46, 69
5, 65399, Note_on_c, 9, 59, 78
5, 65418, Note_on_c, 9, 46, 0
5, 65433, Note_on_c, 9, 59, 0
5, 65492, Note_on_c, 9, 59, 77
5, 65516, Note_on_c, 9, 59, 0
5, 65568, Note_on_c, 9, 59, 77
5, 65599, Note_on_c, 9, 59, 0
5, 65628, Note_on_c, 9, 36, 50
5, 65653, Note_on_c, 9, 59, 74
5, 65681, Note_on_c, 9, 36, 0
5, 65683, Note_on_c, 9, 59, 0
5, 65711, Note_on_c, 9, 36, 55
5, 65726, Note_on_c, 9, 59, 76
5, 65732, Note_on_c, 9, 36, 0
5, 65742, Note_on_c, 9, 59, 0
5, 65763, Note_on_c, 9, 59, 74
5, 65833, Note_on_c, 9, 59, 0
5, 65879, Note_on_c, 9, 59, 79
5, 65917, Note_on_c, 9, 59, 0
5, 65965, Note_on_c, 9, 59, 74
5, 66005, Note_on_c, 9, 59, 0
5, 66036, Note_on_c, 9, 59, 70
5, 66063, Note_on_c, 9, 59, 0
5, 66075, Note_on_c, 9, 38, 43
5, 66077, Note_on_c, 9, 53, 74
5, 66087, Note_on_c, 9, 38, 0
5, 66095, Note_on_c, 9, 53, 0
5, 66120, Note_on_c, 9, 59, 75
5, 66174, Note_on_c, 9, 59, 0
5, 66197, Note_on_c, 9, 37, 58
5, 66197, Note_on_c, 9, 38, 45
5, 66204, Note_on_c, 9, 59, 74
5, 66205, Note_on_c, 9, 38, 0
5, 66213, Note_on_c, 9, 37, 0
5, 66223, Note_on_c, 9, 59, 0
5, 66237, Note_on_c, 9, 46, 47
5, 66238, Note_on_c, 9, 36, 74
5, 66240, Note_on_c, 9, 59, 76
5, 66261, Note_on_c, 9, 46, 0
5, 66275, Note_on_c, 9, 36, 0
5, 66306, Note_on_c, 9, 59, 0
5, 66360, Note_on_c, 9, 59, 72
5, 66429, Note_on_c, 9, 59, 0
5, 66490, Note_on_c, 9, 59, 24
5, 66505, Note_on_c, 9, 59, 0
5, 66522, Note_on_c, 9, 59, 69
5, 66542, Note_on_c, 9, 59, 0
5, 66558, Note_on_c, 9, 38, 39
5, 66566, Note_on_c, 9, 59, 80
5, 66579, Note_on_c, 9, 38, 0
5, 66609, Note_on_c, 9, 36, 33
5, 66638, Note_on_c, 9, 59, 0
5, 66657, Note_on_c, 9, 59, 57
5, 66658, Note_on_c, 9, 36, 0
5, 66666, Note_on_c, 9, 59, 0
5, 66680, Note_on_c, 9, 36, 69
5, 66694, Note_on_c, 9, 59, 71
5, 66710, Note_on_c, 9, 36, 0
5, 66717, Note_on_c, 9, 59, 0
5, 66730, Note_on_c, 9, 36, 69
5, 66738, Note_on_c, 9, 59, 82
5, 66765, Note_on_c, 9, 36, 0
5, 66800, Note_on_c, 9, 59, 0
5, 66838, Note_on_c, 9, 59, 51
5, 66859, Note_on_c, 9, 59, 0
5, 66881, Note_on_c, 9, 59, 66
5, 66899, Note_on_c, 9, 59, 0
5, 66923, Note_on_c, 9, 59, 89
5, 66985, Note_on_c, 9, 59, 0
5, 67005, Note_on_c, 9, 59, 59
5, 67016, Note_on_c, 9, 59, 0
5, 67043, Note_on_c, 9, 59, 68
5, 67064, Note_on_c, 9, 59, 0
5, 67086, Note_on_c, 9, 59, 84
5, 67170, Note_on_c, 9, 59, 0
5, 67204, Note_on_c, 9, 59, 82
5, 67275, Note_on_c, 9, 44, 39
5, 67277, Note_on_c, 9, 59, 0
5, 67288, Note_on_c, 9, 44, 0
5, 67322, Note_on_c, 9, 59, 74
5, 67354, Note_on_c, 9, 59, 0
5, 67406, Note_on_c, 9, 59, 60
5, 67415, Note_on_c, 9, 59, 0
5, 67442, Note_on_c, 9, 59, 73
5, 67504, Note_on_c, 9, 59, 0
5, 67515, Note_on_c, 9, 44, 55
5, 67524, Note_on_c, 9, 44, 0
5, 67562, Note_on_c, 9, 59, 80
5, 67624, Note_on_c, 9, 59, 0
5, 67643, Note_on_c, 9, 38, 31
5, 67655, Note_on_c, 9, 38, 0
5, 67686, Note_on_c, 9, 59, 38
5, 67688, Note_on_c, 9, 36, 34
5, 67696, Note_on_c, 9, 59, 0
5, 67732, Note_on_c, 9, 36, 0
5, 67766, Note_on_c, 9, 59, 68
5, 67784, Note_on_c, 9, 59, 0
5, 67801, Note_on_c, 9, 59, 77
5, 67866, Note_on_c, 9, 59, 0
5, 67917, Note_on_c, 9, 59, 80
5, 67984, Note_on_c, 9, 59, 0
5, 68038, Note_on_c, 9, 59, 79
5, 68093, Note_on_c, 9, 59, 0
5, 68110, Note_on_c, 9, 44, 42
5, 68118, Note_on_c, 9, 44, 0
5, 68126, Note_on_c, 9, 59, 57
5, 68136, Note_on_c, 9, 59, 0
5, 68160, Note_on_c, 9, 59, 74
5, 68224, Note_on_c, 9, 59, 0
5, 68232, Note_on_c, 9, 36, 53
5, 68242, Note_on_c, 9, 36, 0
5, 68270, Note_on_c, 9, 36, 52
5, 68279, Note_on_c, 9, 59, 77
5, 68331, Note_on_c, 9, 36, 0
5, 68340, Note_on_c, 9, 59, 0
5, 68402, Note_on_c, 9, 59, 54
5, 68415, Note_on_c, 9, 59, 0
5, 68438, Note_on_c, 9, 59, 66
5, 68457, Note_on_c, 9, 59, 0
5, 68520, Note_on_c, 9, 59, 80
5, 68574, Note_on_c, 9, 59, 0
5, 68599, Note_on_c, 9, 59, 53
5, 68609, Note_on_c, 9, 59, 0
5, 68672, Note_on_c, 9, 59, 76
5, 68705, Note_on_c, 9, 59, 0
5, 68764, Note_on_c, 9, 59, 72
5, 68791, Note_on_c, 9, 59, 0
5, 68792, Note_on_c, 9, 40, 33
5, 68804, Note_on_c, 9, 40, 0
5, 68824, Note_on_c, 9, 40, 32
5, 68839, Note_on_c, 9, 40, 0
5, 68847, Note_on_c, 9, 59, 76
5, 68856, Note_on_c, 9, 36, 62
5, 68886, Note_on_c, 9, 59, 0
5, 68901, Note_on_c, 9, 36, 0
5, 68925, Note_on_c, 9, 59, 62
5, 68934, Note_on_c, 9, 59, 0
5, 68964, Note_on_c, 9, 59, 71
5, 68986, Note_on_c, 9, 59, 0
5, 69005, Note_on_c, 9, 59, 77
5, 69037, Note_on_c, 9, 59, 0
5, 69088, Note_on_c, 9, 59, 63
5, 69111, Note_on_c, 9, 59, 0
5, 69129, Note_on_c, 9, 59, 67
5, 69169, Note_on_c, 9, 59, 0
5, 69192, Note_on_c, 9, 40, 44
5, 69209, Note_on_c, 9, 40, 0
5, 69236, Note_on_c, 9, 59, 85
5, 69249, Note_on_c, 9, 36, 22
5, 69261, Note_on_c, 9, 36, 0
5, 69298, Note_on_c, 9, 59, 0
5, 69321, Note_on_c, 9, 36, 49
5, 69331, Note_on_c, 9, 59, 51
5, 69332, Note_on_c, 9, 36, 0
5, 69342, Note_on_c, 9, 59, 0
5, 69362, Note_on_c, 9, 59, 72
5, 69363, Note_on_c, 9, 36, 54
5, 69386, Note_on_c, 9, 36, 0
5, 69421, Note_on_c, 9, 59, 0
5, 69482, Note_on_c, 9, 59, 83
5, 69556, Note_on_c, 9, 59, 0
5, 69560, Note_on_c, 9, 40, 24
5, 69570, Note_on_c, 9, 40, 0
5, 69601, Note_on_c, 9, 59, 62
5, 69611, Note_on_c, 9, 59, 0
5, 69675, Note_on_c, 9, 44, 50
5, 69683, Note_on_c, 9, 44, 0
5, 69690, Note_on_c, 9, 59, 66
5, 69699, Note_on_c, 9, 59, 0
5, 69726, Note_on_c, 9, 59, 84
5, 69794, Note_on_c, 9, 44, 67
5, 69808, Note_on_c, 9, 44, 0
5, 69810, Note_on_c, 9, 59, 0
5, 69846, Note_on_c, 9, 59, 57
5, 69855, Note_on_c, 9, 59, 0
5, 69915, Note_on_c, 9, 44, 70
5, 69929, Note_on_c, 9, 59, 71
5, 69930, Note_on_c, 9, 44, 0
5, 69952, Note_on_c, 9, 59, 0
5, 69965, Note_on_c, 9, 59, 87
5, 70026, Note_on_c, 9, 46, 74
5, 70026, Note_on_c, 9, 44, 78
5, 70040, Note_on_c, 9, 59, 0
5, 70042, Note_on_c, 9, 44, 0
5, 70044, Note_on_c, 9, 46, 0
5, 70082, Note_on_c, 9, 59, 90
5, 70150, Note_on_c, 9, 40, 42
5, 70153, Note_on_c, 9, 59, 0
5, 70158, Note_on_c, 9, 40, 0
5, 70205, Note_on_c, 9, 59, 88
5, 70267, Note_on_c, 9, 40, 38
5, 70274, Note_on_c, 9, 59, 0
5, 70284, Note_on_c, 9, 40, 0
5, 70326, Note_on_c, 9, 59, 84
5, 70380, Note_on_c, 9, 59, 0
5, 70392, Note_on_c, 9, 40, 37
5, 70402, Note_on_c, 9, 40, 0
5, 70407, Note_on_c, 9, 59, 54
5, 70421, Note_on_c, 9, 59, 0
5, 70442, Note_on_c, 9, 59, 79
5, 70509, Note_on_c, 9, 40, 30
5, 70518, Note_on_c, 9, 59, 0
5, 70528, Note_on_c, 9, 40, 0
5, 70561, Note_on_c, 9, 59, 83
5, 70563, Note_on_c, 9, 36, 22
5, 70606, Note_on_c, 9, 36, 0
5, 70630, Note_on_c, 9, 59, 0
5, 70640, Note_on_c, 9, 36, 53
5, 70670, Note_on_c, 9, 36, 0
5, 70683, Note_on_c, 9, 59, 88
5, 70687, Note_on_c, 9, 36, 36
5, 70746, Note_on_c, 9, 59, 0
5, 70753, Note_on_c, 9, 36, 0
5, 70778, Note_on_c, 9, 59, 50
5, 70789, Note_on_c, 9, 59, 0
5, 70808, Note_on_c, 9, 59, 83
5, 70875, Note_on_c, 9, 59, 0
5, 70891, Note_on_c, 9, 36, 36
5, 70904, Note_on_c, 9, 36, 0
5, 70924, Note_on_c, 9, 59, 89
5, 70929, Note_on_c, 9, 36, 46
5, 70956, Note_on_c, 9, 36, 0
5, 70983, Note_on_c, 9, 59, 0
5, 71011, Note_on_c, 9, 36, 45
5, 71013, Note_on_c, 9, 59, 49
5, 71023, Note_on_c, 9, 36, 0
5, 71025, Note_on_c, 9, 59, 0
5, 71045, Note_on_c, 9, 59, 80
5, 71110, Note_on_c, 9, 59, 0
5, 71165, Note_on_c, 9, 59, 84
5, 71228, Note_on_c, 9, 59, 0
5, 71250, Note_on_c, 9, 36, 32
5, 71258, Note_on_c, 9, 59, 48
5, 71262, Note_on_c, 9, 36, 0
5, 71268, Note_on_c, 9, 59, 0
5, 71291, Note_on_c, 9, 59, 60
5, 71303, Note_on_c, 9, 59, 0
5, 71373, Note_on_c, 9, 59, 99
5, 71392, Note_on_c, 9, 59, 0
5, 71403, Note_on_c, 9, 44, 74
5, 71409, Note_on_c, 9, 59, 77
5, 71426, Note_on_c, 9, 44, 0
5, 71484, Note_on_c, 9, 59, 0
5, 71491, Note_on_c, 9, 36, 38
5, 71502, Note_on_c, 9, 36, 0
5, 71508, Note_on_c, 9, 59, 20
5, 71516, Note_on_c, 9, 59, 0
5, 71532, Note_on_c, 9, 36, 41
5, 71533, Note_on_c, 9, 59, 80
5, 71548, Note_on_c, 9, 36, 0
5, 71592, Note_on_c, 9, 59, 0
5, 71649, Note_on_c, 9, 59, 96
5, 71650, Note_on_c, 9, 44, 77
5, 71681, Note_on_c, 9, 44, 0
5, 71714, Note_on_c, 9, 59, 0
5, 71724, Note_on_c, 9, 36, 46
5, 71734, Note_on_c, 9, 36, 0
5, 71736, Note_on_c, 9, 59, 62
5, 71751, Note_on_c, 9, 59, 0
5, 71769, Note_on_c, 9, 59, 80
5, 71841, Note_on_c, 9, 59, 0
5, 71855, Note_on_c, 9, 36, 37
5, 71866, Note_on_c, 9, 36, 0
5, 71890, Note_on_c, 9, 59, 89
5, 71931, Note_on_c, 9, 59, 0
5, 71968, Note_on_c, 9, 36, 62
5, 71970, Note_on_c, 9, 59, 60
5, 71977, Note_on_c, 9, 36, 0
5, 71983, Note_on_c, 9, 59, 0
5, 72006, Note_on_c, 9, 36, 60
5, 72008, Note_on_c, 9, 59, 75
5, 72035, Note_on_c, 9, 36, 0
5, 72072, Note_on_c, 9, 59, 0
5, 72127, Note_on_c, 9, 59, 90
5, 72130, Note_on_c, 9, 44, 57
5, 72174, Note_on_c, 9, 44, 0
5, 72182, Note_on_c, 9, 59, 0
5, 72206, Note_on_c, 9, 36, 46
5, 72217, Note_on_c, 9, 36, 0
5, 72220, Note_on_c, 9, 59, 66
5, 72232, Note_on_c, 9, 59, 0
5, 72251, Note_on_c, 9, 36, 44
5, 72257, Note_on_c, 9, 59, 68
5, 72262, Note_on_c, 9, 36, 0
5, 72303, Note_on_c, 9, 59, 0
5, 72328, Note_on_c, 9, 53, 85
5, 72334, Note_on_c, 9, 59, 76
5, 72411, Note_on_c, 9, 53, 0
5, 72418, Note_on_c, 9, 59, 0
5, 72437, Note_on_c, 9, 59, 69
5, 72448, Note_on_c, 9, 59, 0
5, 72451, Note_on_c, 9, 36, 33
5, 72462, Note_on_c, 9, 36, 0
5, 72488, Note_on_c, 9, 59, 87
5, 72491, Note_on_c, 9, 53, 81
5, 72493, Note_on_c, 9, 36, 47
5, 72504, Note_on_c, 9, 36, 0
5, 72547, Note_on_c, 9, 53, 0
5, 72555, Note_on_c, 9, 59, 0
5, 72598, Note_on_c, 9, 59, 51
5, 72611, Note_on_c, 9, 46, 33
5, 72612, Note_on_c, 9, 59, 0
5, 72628, Note_on_c, 9, 46, 0
5, 72678, Note_on_c, 9, 59, 81
5, 72687, Note_on_c, 9, 36, 35
5, 72698, Note_on_c, 9, 36, 0
5, 72769, Note_on_c, 9, 59, 0
5, 72806, Note_on_c, 9, 36, 41
5, 72808, Note_on_c, 9, 59, 47
5, 72816, Note_on_c, 9, 36, 0
5, 72817, Note_on_c, 9, 59, 0
5, 72842, Note_on_c, 9, 36, 47
5, 72847, Note_on_c, 9, 59, 82
5, 72860, Note_on_c, 9, 36, 0
5, 72916, Note_on_c, 9, 59, 0
5, 72925, Note_on_c, 9, 36, 63
5, 72937, Note_on_c, 9, 36, 0
5, 72965, Note_on_c, 9, 59, 33
5, 72976, Note_on_c, 9, 59, 0
5, 73044, Note_on_c, 9, 59, 74
5, 73063, Note_on_c, 9, 59, 0
5, 73083, Note_on_c, 9, 59, 64
5, 73142, Note_on_c, 9, 59, 0
5, 73153, Note_on_c, 9, 44, 52
5, 73161, Note_on_c, 9, 44, 0
5, 73198, Note_on_c, 9, 59, 89
5, 73258, Note_on_c, 9, 59, 0
5, 73272, Note_on_c, 9, 36, 46
5, 73283, Note_on_c, 9, 36, 0
5, 73286, Note_on_c, 9, 59, 52
5, 73298, Note_on_c, 9, 59, 0
5, 73312, Note_on_c, 9, 36, 44
5, 73326, Note_on_c, 9, 36, 0
5, 73400, Note_on_c, 9, 59, 91
5, 73503, Note_on_c, 9, 59, 0
5, 73526, Note_on_c, 9, 59, 57
5, 73541, Note_on_c, 9, 59, 0
5, 73565, Note_on_c, 9, 59, 78
5, 73641, Note_on_c, 9, 40, 37
5, 73642, Note_on_c, 9, 59, 0
5, 73651, Note_on_c, 9, 40, 0
5, 73689, Note_on_c, 9, 40, 29
5, 73689, Note_on_c, 9, 59, 79
5, 73699, Note_on_c, 9, 40, 0
5, 73743, Note_on_c, 9, 59, 0
5, 73762, Note_on_c, 9, 40, 45
5, 73765, Note_on_c, 9, 59, 82
5, 73776, Note_on_c, 9, 40, 0
5, 73839, Note_on_c, 9, 59, 0
5, 73875, Note_on_c, 9, 40, 37
5, 73882, Note_on_c, 9, 59, 55
5, 73885, Note_on_c, 9, 40, 0
5, 73894, Note_on_c, 9, 59, 0
5, 73920, Note_on_c, 9, 36, 62
5, 73921, Note_on_c, 9, 59, 79
5, 73932, Note_on_c, 9, 36, 0
5, 73983, Note_on_c, 9, 59, 0
5, 74041, Note_on_c, 9, 59, 84
5, 74106, Note_on_c, 9, 59, 0
5, 74133, Note_on_c, 9, 59, 58
5, 74150, Note_on_c, 9, 59, 0
5, 74167, Note_on_c, 9, 59, 78
5, 74230, Note_on_c, 9, 59, 0
5, 74233, Note_on_c, 9, 40, 38
5, 74243, Note_on_c, 9, 40, 0
5, 74284, Note_on_c, 9, 59, 83
5, 74319, Note_on_c, 9, 59, 0
5, 74355, Note_on_c, 9, 36, 44
5, 74364, Note_on_c, 9, 36, 0
5, 74374, Note_on_c, 9, 59, 58
5, 74385, Note_on_c, 9, 59, 0
5, 74402, Note_on_c, 9, 36, 40
5, 74409, Note_on_c, 9, 59, 71
5, 74419, Note_on_c, 9, 36, 0
5, 74467, Note_on_c, 9, 59, 0
5, 74529, Note_on_c, 9, 59, 88
5, 74569, Note_on_c, 9, 59, 0
5, 74619, Note_on_c, 9, 59, 70
5, 74628, Note_on_c, 9, 59, 0
5, 74660, Note_on_c, 9, 59, 74
5, 74670, Note_on_c, 9, 59, 0
5, 74731, Note_on_c, 9, 40, 44
5, 74733, Note_on_c, 9, 59, 96
5, 74742, Note_on_c, 9, 40, 0
5, 74786, Note_on_c, 9, 59, 0
5, 74844, Note_on_c, 9, 40, 44
5, 74845, Note_on_c, 9, 59, 33
5, 74856, Note_on_c, 9, 59, 0
5, 74860, Note_on_c, 9, 40, 0
5, 74882, Note_on_c, 9, 59, 80
5, 74893, Note_on_c, 9, 57, 37
5, 74893, Note_on_c, 9, 36, 40
5, 74901, Note_on_c, 9, 57, 0
5, 74924, Note_on_c, 9, 36, 0
5, 74961, Note_on_c, 9, 59, 0
5, 75001, Note_on_c, 9, 59, 64
5, 75024, Note_on_c, 9, 59, 0
5, 75079, Note_on_c, 9, 59, 69
5, 75098, Note_on_c, 9, 59, 0
5, 75122, Note_on_c, 9, 59, 66
5, 75196, Note_on_c, 9, 59, 0
5, 75330, Note_on_c, 9, 59, 61
5, 75343, Note_on_c, 9, 59, 0
5, 75365, Note_on_c, 9, 59, 80
5, 75372, Note_on_c, 9, 36, 36
5, 75392, Note_on_c, 9, 36, 0
5, 75421, Note_on_c, 9, 59, 0
5, 75567, Note_on_c, 9, 59, 69
5, 75587, Note_on_c, 9, 59, 0
5, 75597, Note_on_c, 9, 36, 42
5, 75604, Note_on_c, 9, 59, 80
5, 75611, Note_on_c, 9, 36, 0
5, 75668, Note_on_c, 9, 59, 0
5, 75804, Note_on_c, 9, 59, 60
5, 75812, Note_on_c, 9, 59, 0
5, 75849, Note_on_c, 9, 53, 75
5, 75850, Note_on_c, 9, 59, 85
5, 75904, Note_on_c, 9, 59, 0
5, 75923, Note_on_c, 9, 53, 0
5, 75966, Note_on_c, 9, 44, 28
5, 75973, Note_on_c, 9, 59, 46
5, 75978, Note_on_c, 9, 44, 0
5, 75995, Note_on_c, 9, 59, 0
5, 76036, Note_on_c, 9, 44, 51
5, 76043, Note_on_c, 9, 59, 78
5, 76048, Note_on_c, 9, 53, 77
5, 76049, Note_on_c, 9, 44, 0
5, 76081, Note_on_c, 9, 53, 0
5, 76089, Note_on_c, 9, 59, 0
5, 76161, Note_on_c, 9, 59, 62
5, 76170, Note_on_c, 9, 59, 0
5, 76198, Note_on_c, 9, 44, 38
5, 76215, Note_on_c, 9, 59, 80
5, 76217, Note_on_c, 9, 53, 80
5, 76225, Note_on_c, 9, 44, 0
5, 76265, Note_on_c, 9, 53, 0
5, 76265, Note_on_c, 9, 59, 0
5, 76279, Note_on_c, 9, 44, 45
5, 76294, Note_on_c, 9, 44, 0
5, 76315, Note_on_c, 9, 59, 64
5, 76333, Note_on_c, 9, 59, 0
5, 76398, Note_on_c, 9, 53, 79
5, 76399, Note_on_c, 9, 40, 33
5, 76400, Note_on_c, 9, 59, 78
5, 76408, Note_on_c, 9, 40, 0
5, 76434, Note_on_c, 9, 44, 43
5, 76443, Note_on_c, 9, 59, 0
5, 76443, Note_on_c, 9, 53, 0
5, 76478, Note_on_c, 9, 44, 0
5, 76514, Note_on_c, 9, 44, 55
5, 76516, Note_on_c, 9, 59, 47
5, 76527, Note_on_c, 9, 59, 0
5, 76535, Note_on_c, 9, 44, 0
5, 76564, Note_on_c, 9, 59, 85
5, 76565, Note_on_c, 9, 53, 79
5, 76613, Note_on_c, 9, 53, 0
5, 76634, Note_on_c, 9, 59, 0
5, 76637, Note_on_c, 9, 40, 21
5, 76646, Note_on_c, 9, 40, 0
5, 76674, Note_on_c, 9, 59, 58
5, 76688, Note_on_c, 9, 59, 0
5, 76747, Note_on_c, 9, 59, 88
5, 76748, Note_on_c, 9, 53, 85
5, 76808, Note_on_c, 9, 53, 0
5, 76810, Note_on_c, 9, 59, 0
5, 76873, Note_on_c, 9, 59, 51
5, 76875, Note_on_c, 9, 40, 21
5, 76882, Note_on_c, 9, 59, 0
5, 76883, Note_on_c, 9, 40, 0
5, 76919, Note_on_c, 9, 59, 87
5, 76920, Note_on_c, 9, 53, 82
5, 76973, Note_on_c, 9, 53, 0
5, 76978, Note_on_c, 9, 59, 0
5, 76994, Note_on_c, 9, 44, 48
5, 77008, Note_on_c, 9, 44, 0
5, 77036, Note_on_c, 9, 59, 46
5, 77043, Note_on_c, 9, 44, 35
5, 77062, Note_on_c, 9, 59, 0
5, 77063, Note_on_c, 9, 44, 0
5, 77111, Note_on_c, 9, 59, 82
5, 77113, Note_on_c, 9, 53, 80
5, 77147, Note_on_c, 9, 53, 0
5, 77156, Note_on_c, 9, 59, 0
5, 77234, Note_on_c, 9, 59, 53
5, 77242, Note_on_c, 9, 59, 0
5, 77282, Note_on_c, 9, 59, 89
5, 77283, Note_on_c, 9, 53, 83
5, 77321, Note_on_c, 9, 53, 0
5, 77342, Note_on_c, 9, 59, 0
5, 77397, Note_on_c, 9, 44, 74
5, 77410, Note_on_c, 9, 59, 48
5, 77419, Note_on_c, 9, 44, 0
5, 77421, Note_on_c, 9, 59, 0
5, 77479, Note_on_c, 9, 53, 85
5, 77481, Note_on_c, 9, 59, 88
5, 77512, Note_on_c, 9, 53, 0
5, 77514, Note_on_c, 9, 59, 0
5, 77594, Note_on_c, 9, 40, 53
5, 77598, Note_on_c, 9, 59, 96
5, 77600, Note_on_c, 9, 53, 92
5, 77612, Note_on_c, 9, 40, 0
5, 77635, Note_on_c, 9, 53, 0
5, 77637, Note_on_c, 9, 59, 0
5, 77715, Note_on_c, 9, 37, 69
5, 77717, Note_on_c, 9, 53, 58
5, 77718, Note_on_c, 9, 51, 62
5, 77722, Note_on_c, 9, 59, 57
5, 77725, Note_on_c, 9, 53, 0
5, 77726, Note_on_c, 9, 51, 0
5, 77732, Note_on_c, 9, 59, 0
5, 77735, Note_on_c, 9, 37, 0
5, 77754, Note_on_c, 9, 57, 55
5, 77756, Note_on_c, 9, 36, 78
5, 77759, Note_on_c, 9, 51, 74
5, 77761, Note_on_c, 9, 59, 88
5, 77775, Note_on_c, 9, 57, 0
5, 77777, Note_on_c, 9, 36, 0
5, 77778, Note_on_c, 9, 51, 0
5, 77810, Note_on_c, 9, 59, 0
5, 77994, Note_on_c, 9, 51, 78
5, 78000, Note_on_c, 9, 44, 87
5, 78015, Note_on_c, 9, 51, 0
5, 78019, Note_on_c, 9, 44, 0
5, 78204, Note_on_c, 9, 51, 76
5, 78219, Note_on_c, 9, 51, 0
5, 78247, Note_on_c, 9, 51, 83
5, 78349, Note_on_c, 9, 51, 0
5, 78480, Note_on_c, 9, 44, 83
5, 78489, Note_on_c, 9, 51, 78
5, 78498, Note_on_c, 9, 44, 0
5, 78566, Note_on_c, 9, 51, 0
5, 78737, Note_on_c, 9, 51, 78
5, 78770, Note_on_c, 9, 51, 0
5, 78960, Note_on_c, 9, 44, 70
5, 78968, Note_on_c, 9, 51, 78
5, 78980, Note_on_c, 9, 44, 0
5, 78995, Note_on_c, 9, 51, 0
5, 79194, Note_on_c, 9, 36, 42
5, 79202, Note_on_c, 9, 51, 79
5, 79208, Note_on_c, 9, 36, 0
5, 79228, Note_on_c, 9, 51, 0
5, 79234, Note_on_c, 9, 36, 49
5, 79266, Note_on_c, 9, 36, 0
5, 79412, Note_on_c, 9, 51, 61
5, 79430, Note_on_c, 9, 51, 0
5, 79440, Note_on_c, 9, 44, 57
5, 79450, Note_on_c, 9, 51, 68
5, 79469, Note_on_c, 9, 44, 0
5, 79516, Note_on_c, 9, 51, 0
5, 79678, Note_on_c, 9, 51, 83
5, 79717, Note_on_c, 9, 51, 0
5, 79920, Note_on_c, 9, 44, 85
5, 79924, Note_on_c, 9, 51, 74
5, 79943, Note_on_c, 9, 44, 0
5, 79946, Note_on_c, 9, 51, 0
5, 80167, Note_on_c, 9, 51, 79
5, 80197, Note_on_c, 9, 51, 0
5, 80370, Note_on_c, 9, 51, 68
5, 80388, Note_on_c, 9, 51, 0
5, 80400, Note_on_c, 9, 44, 53
5, 80411, Note_on_c, 9, 51, 63
5, 80414, Note_on_c, 9, 44, 0
5, 80474, Note_on_c, 9, 51, 0
5, 80607, Note_on_c, 9, 51, 69
5, 80623, Note_on_c, 9, 51, 0
5, 80648, Note_on_c, 9, 51, 71
5, 80706, Note_on_c, 9, 51, 0
5, 80873, Note_on_c, 9, 51, 77
5, 80898, Note_on_c, 9, 51, 0
5, 80901, Note_on_c, 9, 46, 73
5, 80908, Control_c, 9, 64, 127
5, 80915, Control_c, 9, 64, 0
5, 80919, Note_on_c, 9, 46, 0
5, 80920, Control_c, 9, 64, 127
5, 80922, Control_c, 9, 64, 0
5, 81106, Note_on_c, 9, 51, 74
5, 81127, Note_on_c, 9, 51, 0
5, 81326, Note_on_c, 9, 36, 55
5, 81345, Note_on_c, 9, 36, 0
5, 81354, Note_on_c, 9, 51, 74
5, 81375, Note_on_c, 9, 36, 50
5, 81376, Note_on_c, 9, 51, 0
5, 81404, Note_on_c, 9, 36, 0
5, 81556, Note_on_c, 9, 51, 64
5, 81576, Note_on_c, 9, 51, 0
5, 81594, Note_on_c, 9, 51, 64
5, 81634, Note_on_c, 9, 51, 0
5, 81840, Note_on_c, 9, 44, 65
5, 81848, Note_on_c, 9, 51, 71
5, 81849, Note_on_c, 9, 53, 74
5, 81856, Note_on_c, 9, 44, 0
5, 81863, Note_on_c, 9, 51, 0
5, 81868, Note_on_c, 9, 53, 0
5, 81987, Note_on_c, 9, 36, 38
5, 82025, Note_on_c, 9, 36, 0
5, 82048, Note_on_c, 9, 51, 76
5, 82066, Note_on_c, 9, 51, 0
5, 82091, Note_on_c, 9, 51, 69
5, 82137, Note_on_c, 9, 51, 0
5, 82330, Note_on_c, 9, 51, 80
5, 82375, Note_on_c, 9, 51, 0
5, 82457, Note_on_c, 9, 44, 57
5, 82467, Note_on_c, 9, 44, 0
5, 82539, Note_on_c, 9, 36, 53
5, 82549, Note_on_c, 9, 36, 0
5, 82576, Note_on_c, 9, 51, 78
5, 82583, Note_on_c, 9, 36, 41
5, 82599, Note_on_c, 9, 51, 0
5, 82628, Note_on_c, 9, 36, 0
5, 82692, Note_on_c, 9, 51, 90
5, 82733, Note_on_c, 9, 51, 0
5, 82812, Note_on_c, 9, 51, 90
5, 82856, Note_on_c, 9, 51, 0
5, 83007, Note_on_c, 9, 36, 57
5, 83017, Note_on_c, 9, 36, 0
5, 83052, Note_on_c, 9, 36, 50
5, 83055, Note_on_c, 9, 51, 93
5, 83086, Note_on_c, 9, 51, 0
5, 83089, Note_on_c, 9, 36, 0
5, 83174, Note_on_c, 9, 51, 82
5, 83214, Note_on_c, 9, 51, 0
5, 83260, Note_on_c, 9, 44, 35
5, 83268, Note_on_c, 9, 44, 0
5, 83290, Note_on_c, 9, 51, 83
5, 83306, Note_on_c, 9, 44, 51
5, 83317, Note_on_c, 9, 44, 0
5, 83326, Note_on_c, 9, 51, 0
5, 83374, Note_on_c, 9, 36, 56
5, 83384, Note_on_c, 9, 36, 0
5, 83417, Note_on_c, 9, 36, 46
5, 83472, Note_on_c, 9, 36, 0
5, 83490, Note_on_c, 9, 51, 74
5, 83506, Note_on_c, 9, 51, 0
5, 83531, Note_on_c, 9, 51, 81
5, 83596, Note_on_c, 9, 51, 0
5, 83767, Note_on_c, 9, 51, 78
5, 83782, Note_on_c, 9, 46, 63
5, 83789, Note_on_c, 9, 51, 0
5, 83796, Note_on_c, 9, 46, 0
5, 83974, Note_on_c, 9, 51, 77
5, 83984, Note_on_c, 9, 36, 62
5, 83988, Note_on_c, 9, 51, 0
5, 83994, Note_on_c, 9, 36, 0
5, 84015, Note_on_c, 9, 51, 88
5, 84031, Note_on_c, 9, 36, 43
5, 84056, Note_on_c, 9, 36, 0
5, 84062, Note_on_c, 9, 51, 0
5, 84244, Note_on_c, 9, 51, 87
5, 84266, Note_on_c, 9, 51, 0
5, 84349, Note_on_c, 9, 40, 47
5, 84368, Note_on_c, 9, 40, 0
5, 84399, Note_on_c, 9, 36, 40
5, 84421, Note_on_c, 9, 36, 0
5, 84476, Note_on_c, 9, 36, 50
5, 84494, Note_on_c, 9, 51, 81
5, 84495, Note_on_c, 9, 53, 80
5, 84496, Note_on_c, 9, 36, 0
5, 84512, Note_on_c, 9, 51, 0
5, 84516, Note_on_c, 9, 53, 0
5, 84523, Note_on_c, 9, 36, 45
5, 84546, Note_on_c, 9, 36, 0
5, 84737, Note_on_c, 9, 51, 76
5, 84738, Note_on_c, 9, 53, 69
5, 84752, Note_on_c, 9, 44, 64
5, 84756, Note_on_c, 9, 51, 0
5, 84760, Note_on_c, 9, 53, 0
5, 84765, Note_on_c, 9, 44, 0
5, 84984, Note_on_c, 9, 51, 85
5, 84998, Note_on_c, 9, 36, 24
5, 85006, Note_on_c, 9, 51, 0
5, 85012, Note_on_c, 9, 36, 0
5, 85215, Note_on_c, 9, 51, 82
5, 85236, Note_on_c, 9, 51, 0
5, 85306, Note_on_c, 9, 44, 57
5, 85314, Note_on_c, 9, 44, 0
5, 85356, Note_on_c, 9, 44, 62
5, 85364, Note_on_c, 9, 44, 0
5, 85434, Note_on_c, 9, 36, 44
5, 85450, Note_on_c, 9, 36, 0
5, 85450, Note_on_c, 9, 51, 85
5, 85473, Note_on_c, 9, 51, 0
5, 85480, Note_on_c, 9, 36, 63
5, 85527, Note_on_c, 9, 36, 0
5, 85648, Note_on_c, 9, 51, 65
5, 85662, Note_on_c, 9, 51, 0
5, 85691, Note_on_c, 9, 51, 82
5, 85719, Note_on_c, 9, 44, 46
5, 85728, Note_on_c, 9, 44, 0
5, 85734, Note_on_c, 9, 51, 0
5, 85790, Note_on_c, 9, 36, 59
5, 85801, Note_on_c, 9, 36, 0
5, 85885, Note_on_c, 9, 51, 68
5, 85897, Note_on_c, 9, 51, 0
5, 85933, Note_on_c, 9, 51, 90
5, 85949, Note_on_c, 9, 36, 50
5, 85971, Note_on_c, 9, 36, 0
5, 85975, Note_on_c, 9, 51, 0
5, 86179, Note_on_c, 9, 51, 86
5, 86192, Note_on_c, 9, 44, 48
5, 86202, Note_on_c, 9, 51, 0
5, 86206, Note_on_c, 9, 44, 0
5, 86310, Note_on_c, 9, 36, 40
5, 86334, Note_on_c, 9, 36, 0
5, 86418, Note_on_c, 9, 51, 91
5, 86430, Note_on_c, 9, 36, 42
5, 86443, Note_on_c, 9, 51, 0
5, 86456, Note_on_c, 9, 36, 0
5, 86557, Note_on_c, 9, 36, 44
5, 86569, Note_on_c, 9, 36, 0
5, 86625, Note_on_c, 9, 51, 53
5, 86646, Note_on_c, 9, 51, 0
5, 86674, Note_on_c, 9, 51, 81
5, 86731, Note_on_c, 9, 51, 0
5, 86808, Note_on_c, 9, 36, 55
5, 86854, Note_on_c, 9, 36, 0
5, 86912, Note_on_c, 9, 51, 82
5, 86925, Note_on_c, 9, 46, 51
5, 86930, Note_on_c, 9, 36, 55
5, 86934, Note_on_c, 9, 46, 0
5, 86940, Note_on_c, 9, 51, 0
5, 86947, Note_on_c, 9, 36, 0
5, 87111, Note_on_c, 9, 36, 41
5, 87113, Note_on_c, 9, 51, 57
5, 87123, Note_on_c, 9, 51, 0
5, 87126, Note_on_c, 9, 36, 0
5, 87159, Note_on_c, 9, 51, 84
5, 87165, Note_on_c, 9, 36, 45
5, 87199, Note_on_c, 9, 51, 0
5, 87204, Note_on_c, 9, 36, 0
5, 87401, Note_on_c, 9, 53, 80
5, 87402, Note_on_c, 9, 51, 81
5, 87421, Note_on_c, 9, 51, 0
5, 87440, Note_on_c, 9, 53, 0
5, 87519, Note_on_c, 9, 36, 66
5, 87549, Note_on_c, 9, 36, 0
5, 87650, Note_on_c, 9, 51, 85
5, 87652, Note_on_c, 9, 53, 80
5, 87676, Note_on_c, 9, 51, 0
5, 87690, Note_on_c, 9, 53, 0
5, 87772, Note_on_c, 9, 36, 51
5, 87785, Note_on_c, 9, 36, 0
5, 87842, Note_on_c, 9, 36, 44
5, 87853, Note_on_c, 9, 36, 0
5, 87897, Note_on_c, 9, 46, 50
5, 87899, Note_on_c, 9, 51, 80
5, 87899, Note_on_c, 9, 53, 80
5, 87937, Note_on_c, 9, 46, 0
5, 87944, Note_on_c, 9, 51, 0
5, 87954, Note_on_c, 9, 53, 0
5, 88051, Note_on_c, 9, 36, 25
5, 88076, Note_on_c, 9, 36, 0
5, 88185, Note_on_c, 9, 46, 61
5, 88195, Note_on_c, 9, 51, 90
5, 88196, Note_on_c, 9, 53, 85
5, 88258, Note_on_c, 9, 46, 0
5, 88282, Note_on_c, 9, 51, 0
5, 88293, Note_on_c, 9, 53, 0
5, 88397, Note_on_c, 9, 36, 29
5, 88428, Note_on_c, 9, 36, 0
5, 88539, Note_on_c, 9, 51, 91
5, 88544, Note_on_c, 9, 53, 87
5, 88626, Note_on_c, 9, 51, 0
5, 88633, Note_on_c, 9, 53, 0
5, 88913, Note_on_c, 9, 54, 70
5, 88916, Note_on_c, 9, 46, 52
5, 88916, Note_on_c, 9, 53, 80
5, 88920, Note_on_c, 9, 51, 91
5, 88921, Note_on_c, 9, 54, 0
5, 88939, Note_on_c, 9, 46, 0
5, 89015, Note_on_c, 9, 51, 0
5, 89018, Note_on_c, 9, 53, 0
5, 89399, Note_on_c, 9, 51, 72
5, 89401, Note_on_c, 9, 57, 25
5, 89403, Note_on_c, 9, 53, 79
5, 89610, Note_on_c, 9, 53, 0
5, 89836, Note_on_c, 9, 57, 0
5, 90196, Note_on_c, 9, 51, 0
5, 90728, Note_on_c, 9, 40, 43
5, 90744, Note_on_c, 9, 40, 0
5, 90772, Note_on_c, 9, 40, 52
5, 90798, Note_on_c, 9, 40, 0
5, 90830, Note_on_c, 9, 57, 41
5, 90830, Note_on_c, 9, 36, 56
5, 90965, Note_on_c, 9, 57, 0
5, 90980, Note_on_c, 9, 36, 0
5, 90980, End_track
0, 0, End_of_file
