0, 0, Header, 1, 5, 120
1, 0, Start_track
1, 0, Title_t, "Mad About The Boy"
1, 0, Text_t, "Noel Coward"
1, 0, Text_t, "Solo improvised Piano in real time - unedited  - played in using Steinberg's 'The Grand'\012"
1, 0, Text_t, "dougmck@pipeline.com.au\012"
1, 0, Time_signature, 4, 2, 24, 8
1, 0, Key_signature, -3, "major"
1, 0, Tempo, 909091
1, 0, End_track
2, 0, Start_track
2, 0, End_track
3, 0, Start_track
3, 0, Title_t, "Solo Piano in Real time"
3, 0, Control_c, 0, 7, 127
3, 0, Control_c, 0, 10, 63
3, 0, Control_c, 0, 64, 127
3, 0, Control_c, 0, 64, 0
3, 0, Control_c, 0, 64, 127
3, 3, Control_c, 0, 64, 0
3, 4, Note_on_c, 0, 50, 29
3, 6, Note_on_c, 0, 89, 66
3, 32, Control_c, 0, 64, 127
3, 48, Note_on_c, 0, 89, 0
3, 74, Note_on_c, 0, 86, 53
3, 104, Note_on_c, 0, 86, 0
3, 130, Note_on_c, 0, 55, 16
3, 131, Note_on_c, 0, 60, 36
3, 132, Note_on_c, 0, 86, 62
3, 132, Note_on_c, 0, 56, 33
3, 169, Note_on_c, 0, 86, 0
3, 194, Note_on_c, 0, 86, 66
3, 224, Note_on_c, 0, 86, 0
3, 255, Note_on_c, 0, 55, 0
3, 255, Note_on_c, 0, 86, 71
3, 256, Note_on_c, 0, 60, 0
3, 259, Note_on_c, 0, 56, 0
3, 269, Note_on_c, 0, 50, 0
3, 311, Note_on_c, 0, 60, 41
3, 312, Note_on_c, 0, 56, 39
3, 312, Note_on_c, 0, 55, 44
3, 348, Note_on_c, 0, 60, 0
3, 349, Note_on_c, 0, 55, 0
3, 349, Note_on_c, 0, 56, 0
3, 372, Note_on_c, 0, 60, 50
3, 374, Note_on_c, 0, 56, 45
3, 374, Note_on_c, 0, 55, 46
3, 397, Note_on_c, 0, 55, 0
3, 402, Note_on_c, 0, 56, 0
3, 402, Note_on_c, 0, 60, 0
3, 433, Note_on_c, 0, 56, 49
3, 436, Note_on_c, 0, 60, 52
3, 446, Note_on_c, 0, 60, 0
3, 448, Note_on_c, 0, 56, 0
3, 491, Note_on_c, 0, 63, 42
3, 493, Note_on_c, 0, 53, 53
3, 494, Note_on_c, 0, 58, 52
3, 494, Note_on_c, 0, 59, 64
3, 495, Control_c, 0, 64, 0
3, 539, Control_c, 0, 64, 127
3, 556, Note_on_c, 0, 59, 0
3, 557, Note_on_c, 0, 63, 0
3, 561, Note_on_c, 0, 58, 0
3, 561, Note_on_c, 0, 53, 0
3, 582, Note_on_c, 0, 86, 0
3, 613, Note_on_c, 0, 43, 55
3, 657, Note_on_c, 0, 63, 79
3, 674, Note_on_c, 0, 63, 0
3, 684, Note_on_c, 0, 65, 90
3, 705, Note_on_c, 0, 65, 0
3, 706, Note_on_c, 0, 63, 78
3, 717, Note_on_c, 0, 43, 0
3, 736, Note_on_c, 0, 67, 64
3, 738, Control_c, 0, 64, 0
3, 738, Note_on_c, 0, 53, 50
3, 738, Note_on_c, 0, 43, 36
3, 796, Control_c, 0, 64, 127
3, 807, Note_on_c, 0, 65, 69
3, 808, Note_on_c, 0, 59, 53
3, 812, Note_on_c, 0, 67, 0
3, 815, Note_on_c, 0, 53, 0
3, 856, Note_on_c, 0, 53, 49
3, 865, Note_on_c, 0, 65, 0
3, 869, Note_on_c, 0, 53, 0
3, 871, Note_on_c, 0, 43, 0
3, 886, Note_on_c, 0, 63, 0
3, 896, Note_on_c, 0, 63, 52
3, 909, Note_on_c, 0, 59, 0
3, 923, Note_on_c, 0, 63, 0
3, 933, Note_on_c, 0, 62, 58
3, 949, Note_on_c, 0, 62, 0
3, 969, Control_c, 0, 64, 0
3, 975, Note_on_c, 0, 65, 50
3, 976, Note_on_c, 0, 38, 24
3, 976, Note_on_c, 0, 58, 35
3, 977, Note_on_c, 0, 26, 37
3, 996, Control_c, 0, 64, 127
3, 1004, Note_on_c, 0, 58, 0
3, 1008, Note_on_c, 0, 65, 0
3, 1013, Note_on_c, 0, 26, 0
3, 1020, Note_on_c, 0, 38, 0
3, 1095, Note_on_c, 0, 89, 60
3, 1096, Note_on_c, 0, 86, 55
3, 1096, Note_on_c, 0, 82, 36
3, 1097, Note_on_c, 0, 77, 40
3, 1097, Note_on_c, 0, 54, 37
3, 1097, Note_on_c, 0, 65, 44
3, 1099, Note_on_c, 0, 60, 41
3, 1140, Note_on_c, 0, 86, 0
3, 1140, Note_on_c, 0, 89, 0
3, 1146, Note_on_c, 0, 65, 0
3, 1152, Note_on_c, 0, 82, 0
3, 1153, Note_on_c, 0, 77, 0
3, 1153, Note_on_c, 0, 60, 0
3, 1160, Note_on_c, 0, 54, 0
3, 1216, Note_on_c, 0, 86, 58
3, 1217, Note_on_c, 0, 80, 39
3, 1218, Note_on_c, 0, 60, 35
3, 1219, Note_on_c, 0, 56, 34
3, 1220, Note_on_c, 0, 50, 24
3, 1220, Note_on_c, 0, 74, 44
3, 1221, Control_c, 0, 64, 0
3, 1247, Control_c, 0, 64, 127
3, 1268, Note_on_c, 0, 86, 0
3, 1270, Note_on_c, 0, 50, 0
3, 1274, Note_on_c, 0, 80, 0
3, 1277, Note_on_c, 0, 56, 0
3, 1277, Note_on_c, 0, 74, 0
3, 1277, Note_on_c, 0, 60, 0
3, 1331, Note_on_c, 0, 54, 30
3, 1332, Note_on_c, 0, 77, 37
3, 1332, Note_on_c, 0, 72, 20
3, 1334, Note_on_c, 0, 60, 37
3, 1369, Note_on_c, 0, 60, 0
3, 1374, Note_on_c, 0, 54, 0
3, 1379, Note_on_c, 0, 77, 0
3, 1388, Note_on_c, 0, 72, 0
3, 1447, Note_on_c, 0, 71, 52
3, 1447, Note_on_c, 0, 75, 46
3, 1450, Note_on_c, 0, 65, 40
3, 1452, Control_c, 0, 64, 0
3, 1453, Note_on_c, 0, 55, 33
3, 1476, Control_c, 0, 64, 127
3, 1490, Note_on_c, 0, 65, 0
3, 1513, Note_on_c, 0, 75, 0
3, 1522, Note_on_c, 0, 71, 0
3, 1556, Note_on_c, 0, 59, 47
3, 1561, Note_on_c, 0, 55, 0
3, 1564, Note_on_c, 0, 77, 72
3, 1565, Note_on_c, 0, 61, 52
3, 1566, Note_on_c, 0, 71, 83
3, 1567, Note_on_c, 0, 59, 0
3, 1568, Note_on_c, 0, 62, 91
3, 1568, Note_on_c, 0, 68, 80
3, 1570, Control_c, 0, 64, 0
3, 1574, Note_on_c, 0, 61, 0
3, 1609, Control_c, 0, 64, 127
3, 1656, Note_on_c, 0, 62, 0
3, 1667, Note_on_c, 0, 68, 0
3, 1670, Note_on_c, 0, 71, 0
3, 1676, Note_on_c, 0, 77, 0
3, 1686, Note_on_c, 0, 68, 50
3, 1687, Note_on_c, 0, 75, 62
3, 1687, Note_on_c, 0, 71, 55
3, 1691, Control_c, 0, 64, 0
3, 1692, Note_on_c, 0, 59, 47
3, 1732, Control_c, 0, 64, 127
3, 1756, Note_on_c, 0, 71, 0
3, 1759, Note_on_c, 0, 68, 0
3, 1765, Note_on_c, 0, 75, 0
3, 1789, Note_on_c, 0, 59, 0
3, 1802, Note_on_c, 0, 74, 53
3, 1803, Control_c, 0, 64, 0
3, 1804, Note_on_c, 0, 71, 43
3, 1804, Note_on_c, 0, 65, 31
3, 1805, Note_on_c, 0, 68, 30
3, 1809, Note_on_c, 0, 55, 28
3, 1829, Control_c, 0, 64, 127
3, 1837, Note_on_c, 0, 55, 0
3, 1850, Note_on_c, 0, 74, 0
3, 1864, Note_on_c, 0, 71, 0
3, 1869, Note_on_c, 0, 65, 0
3, 1875, Note_on_c, 0, 68, 0
3, 1923, Note_on_c, 0, 67, 53
3, 1923, Control_c, 0, 64, 0
3, 1924, Note_on_c, 0, 72, 36
3, 1924, Note_on_c, 0, 57, 48
3, 1925, Note_on_c, 0, 63, 35
3, 1960, Control_c, 0, 64, 127
3, 1967, Note_on_c, 0, 67, 0
3, 1973, Note_on_c, 0, 63, 0
3, 1986, Note_on_c, 0, 72, 0
3, 1990, Note_on_c, 0, 74, 68
3, 1991, Note_on_c, 0, 59, 65
3, 1992, Note_on_c, 0, 68, 64
3, 1992, Note_on_c, 0, 65, 65
3, 2001, Note_on_c, 0, 57, 0
3, 2011, Note_on_c, 0, 65, 0
3, 2014, Note_on_c, 0, 74, 0
3, 2019, Note_on_c, 0, 68, 0
3, 2040, Control_c, 0, 64, 0
3, 2044, Note_on_c, 0, 75, 72
3, 2046, Note_on_c, 0, 69, 70
3, 2046, Note_on_c, 0, 67, 67
3, 2047, Note_on_c, 0, 59, 0
3, 2047, Note_on_c, 0, 60, 64
3, 2065, Note_on_c, 0, 69, 0
3, 2069, Control_c, 0, 64, 127
3, 2076, Note_on_c, 0, 75, 0
3, 2089, Note_on_c, 0, 67, 0
3, 2103, Note_on_c, 0, 67, 59
3, 2103, Note_on_c, 0, 77, 63
3, 2104, Note_on_c, 0, 72, 54
3, 2104, Note_on_c, 0, 62, 68
3, 2109, Note_on_c, 0, 60, 0
3, 2121, Note_on_c, 0, 67, 0
3, 2126, Note_on_c, 0, 77, 0
3, 2128, Note_on_c, 0, 72, 0
3, 2128, Note_on_c, 0, 62, 0
3, 2156, Control_c, 0, 64, 0
3, 2163, Note_on_c, 0, 79, 62
3, 2163, Note_on_c, 0, 75, 55
3, 2164, Note_on_c, 0, 67, 51
3, 2164, Note_on_c, 0, 72, 39
3, 2165, Note_on_c, 0, 63, 42
3, 2183, Note_on_c, 0, 67, 0
3, 2184, Note_on_c, 0, 72, 0
3, 2186, Control_c, 0, 64, 127
3, 2192, Note_on_c, 0, 79, 0
3, 2199, Note_on_c, 0, 75, 0
3, 2210, Note_on_c, 0, 63, 0
3, 2222, Note_on_c, 0, 75, 31
3, 2222, Note_on_c, 0, 67, 51
3, 2222, Note_on_c, 0, 81, 57
3, 2235, Note_on_c, 0, 75, 0
3, 2241, Note_on_c, 0, 81, 0
3, 2252, Note_on_c, 0, 67, 0
3, 2271, Control_c, 0, 64, 0
3, 2277, Note_on_c, 0, 83, 59
3, 2278, Note_on_c, 0, 68, 46
3, 2278, Note_on_c, 0, 74, 49
3, 2280, Note_on_c, 0, 77, 51
3, 2280, Note_on_c, 0, 80, 36
3, 2291, Control_c, 0, 64, 127
3, 2292, Note_on_c, 0, 74, 0
3, 2294, Note_on_c, 0, 83, 0
3, 2294, Note_on_c, 0, 68, 0
3, 2295, Note_on_c, 0, 77, 0
3, 2298, Note_on_c, 0, 80, 0
3, 2340, Note_on_c, 0, 84, 58
3, 2342, Note_on_c, 0, 72, 42
3, 2354, Note_on_c, 0, 84, 0
3, 2358, Note_on_c, 0, 72, 0
3, 2402, Note_on_c, 0, 78, 46
3, 2404, Note_on_c, 0, 66, 34
3, 2404, Note_on_c, 0, 54, 35
3, 2405, Control_c, 0, 64, 0
3, 2408, Note_on_c, 0, 44, 34
3, 2434, Control_c, 0, 64, 127
3, 2454, Note_on_c, 0, 44, 0
3, 2459, Note_on_c, 0, 54, 0
3, 2475, Note_on_c, 0, 66, 0
3, 2491, Note_on_c, 0, 78, 0
3, 2528, Note_on_c, 0, 78, 40
3, 2529, Note_on_c, 0, 54, 31
3, 2531, Note_on_c, 0, 65, 40
3, 2531, Note_on_c, 0, 66, 26
3, 2533, Note_on_c, 0, 60, 38
3, 2533, Note_on_c, 0, 70, 37
3, 2577, Note_on_c, 0, 65, 0
3, 2582, Note_on_c, 0, 60, 0
3, 2595, Note_on_c, 0, 66, 0
3, 2596, Note_on_c, 0, 70, 0
3, 2601, Note_on_c, 0, 54, 0
3, 2609, Note_on_c, 0, 78, 0
3, 2652, Note_on_c, 0, 71, 47
3, 2653, Note_on_c, 0, 63, 32
3, 2653, Note_on_c, 0, 59, 38
3, 2653, Note_on_c, 0, 65, 41
3, 2654, Control_c, 0, 64, 0
3, 2657, Note_on_c, 0, 53, 31
3, 2676, Control_c, 0, 64, 127
3, 2686, Note_on_c, 0, 63, 0
3, 2687, Note_on_c, 0, 59, 0
3, 2691, Note_on_c, 0, 53, 0
3, 2697, Note_on_c, 0, 71, 0
3, 2708, Note_on_c, 0, 65, 0
3, 2769, Control_c, 0, 64, 0
3, 2769, Note_on_c, 0, 43, 39
3, 2770, Note_on_c, 0, 53, 36
3, 2787, Control_c, 0, 64, 127
3, 2808, Note_on_c, 0, 43, 0
3, 2809, Note_on_c, 0, 67, 79
3, 2816, Note_on_c, 0, 53, 0
3, 2837, Note_on_c, 0, 67, 0
3, 2843, Note_on_c, 0, 63, 60
3, 2878, Note_on_c, 0, 63, 0
3, 2886, Note_on_c, 0, 43, 17
3, 2887, Note_on_c, 0, 62, 63
3, 2889, Note_on_c, 0, 36, 37
3, 2893, Control_c, 0, 64, 0
3, 2893, Note_on_c, 0, 52, 30
3, 2964, Note_on_c, 0, 60, 54
3, 2966, Note_on_c, 0, 62, 0
3, 2966, Control_c, 0, 64, 127
3, 2976, Note_on_c, 0, 52, 0
3, 2994, Note_on_c, 0, 60, 0
3, 3016, Note_on_c, 0, 60, 62
3, 3018, Note_on_c, 0, 52, 30
3, 3059, Note_on_c, 0, 60, 0
3, 3073, Note_on_c, 0, 52, 0
3, 3087, Note_on_c, 0, 60, 71
3, 3127, Note_on_c, 0, 60, 0
3, 3140, Note_on_c, 0, 60, 64
3, 3141, Note_on_c, 0, 56, 50
3, 3142, Control_c, 0, 64, 0
3, 3143, Note_on_c, 0, 55, 55
3, 3152, Note_on_c, 0, 43, 0
3, 3199, Note_on_c, 0, 48, 51
3, 3245, Note_on_c, 0, 48, 0
3, 3256, Control_c, 0, 64, 127
3, 3260, Note_on_c, 0, 48, 44
3, 3290, Note_on_c, 0, 36, 0
3, 3316, Note_on_c, 0, 36, 46
3, 3325, Note_on_c, 0, 55, 0
3, 3335, Note_on_c, 0, 56, 0
3, 3335, Note_on_c, 0, 60, 0
3, 3402, Note_on_c, 0, 36, 0
3, 3430, Control_c, 0, 64, 0
3, 3435, Note_on_c, 0, 36, 34
3, 3445, Control_c, 0, 64, 127
3, 3450, Note_on_c, 0, 48, 0
3, 3487, Control_c, 0, 64, 0
3, 3489, Note_on_c, 0, 55, 52
3, 3490, Note_on_c, 0, 52, 45
3, 3493, Note_on_c, 0, 48, 35
3, 3535, Control_c, 0, 64, 127
3, 3570, Note_on_c, 0, 52, 0
3, 3577, Note_on_c, 0, 48, 0
3, 3585, Note_on_c, 0, 55, 0
3, 3613, Note_on_c, 0, 48, 54
3, 3641, Note_on_c, 0, 36, 0
3, 3741, Note_on_c, 0, 48, 0
3, 3778, Note_on_c, 0, 72, 34
3, 3790, Note_on_c, 0, 72, 0
3, 3810, Note_on_c, 0, 79, 91
3, 3844, Note_on_c, 0, 79, 0
3, 3847, Control_c, 0, 64, 0
3, 3847, Note_on_c, 0, 77, 66
3, 3847, Note_on_c, 0, 56, 37
3, 3848, Note_on_c, 0, 50, 34
3, 3848, Note_on_c, 0, 60, 34
3, 3883, Control_c, 0, 64, 127
3, 3906, Note_on_c, 0, 50, 0
3, 3910, Note_on_c, 0, 56, 0
3, 3912, Note_on_c, 0, 60, 0
3, 3967, Note_on_c, 0, 56, 36
3, 3967, Note_on_c, 0, 65, 36
3, 3971, Note_on_c, 0, 60, 38
3, 4059, Note_on_c, 0, 65, 0
3, 4067, Note_on_c, 0, 60, 0
3, 4084, Note_on_c, 0, 77, 0
3, 4086, Note_on_c, 0, 74, 89
3, 4090, Note_on_c, 0, 65, 31
3, 4091, Note_on_c, 0, 60, 27
3, 4125, Note_on_c, 0, 74, 0
3, 4126, Note_on_c, 0, 75, 59
3, 4141, Note_on_c, 0, 74, 58
3, 4146, Note_on_c, 0, 60, 0
3, 4147, Note_on_c, 0, 75, 0
3, 4154, Note_on_c, 0, 74, 0
3, 4154, Note_on_c, 0, 73, 49
3, 4163, Note_on_c, 0, 65, 0
3, 4164, Note_on_c, 0, 73, 0
3, 4173, Note_on_c, 0, 56, 0
3, 4177, Note_on_c, 0, 74, 76
3, 4203, Control_c, 0, 64, 0
3, 4205, Note_on_c, 0, 65, 31
3, 4206, Note_on_c, 0, 55, 38
3, 4207, Note_on_c, 0, 60, 41
3, 4234, Control_c, 0, 64, 127
3, 4265, Note_on_c, 0, 55, 0
3, 4265, Note_on_c, 0, 65, 0
3, 4267, Note_on_c, 0, 60, 0
3, 4325, Control_c, 0, 64, 0
3, 4326, Note_on_c, 0, 63, 45
3, 4328, Note_on_c, 0, 58, 45
3, 4329, Note_on_c, 0, 59, 56
3, 4334, Note_on_c, 0, 53, 29
3, 4353, Control_c, 0, 64, 127
3, 4358, Note_on_c, 0, 59, 0
3, 4358, Note_on_c, 0, 63, 0
3, 4362, Note_on_c, 0, 53, 0
3, 4363, Note_on_c, 0, 58, 0
3, 4390, Note_on_c, 0, 74, 0
3, 4450, Control_c, 0, 64, 0
3, 4451, Note_on_c, 0, 43, 56
3, 4471, Control_c, 0, 64, 127
3, 4482, Note_on_c, 0, 43, 0
3, 4482, Note_on_c, 0, 87, 81
3, 4501, Note_on_c, 0, 87, 0
3, 4507, Note_on_c, 0, 89, 78
3, 4527, Note_on_c, 0, 89, 0
3, 4533, Note_on_c, 0, 87, 72
3, 4555, Note_on_c, 0, 87, 0
3, 4562, Note_on_c, 0, 90, 51
3, 4562, Note_on_c, 0, 78, 63
3, 4563, Note_on_c, 0, 58, 48
3, 4563, Note_on_c, 0, 63, 53
3, 4564, Note_on_c, 0, 59, 53
3, 4566, Note_on_c, 0, 53, 39
3, 4566, Control_c, 0, 64, 0
3, 4577, Note_on_c, 0, 90, 0
3, 4581, Note_on_c, 0, 78, 0
3, 4583, Note_on_c, 0, 79, 47
3, 4601, Note_on_c, 0, 79, 0
3, 4624, Note_on_c, 0, 89, 54
3, 4625, Note_on_c, 0, 77, 47
3, 4642, Control_c, 0, 64, 127
3, 4647, Note_on_c, 0, 63, 0
3, 4650, Note_on_c, 0, 89, 0
3, 4660, Note_on_c, 0, 59, 0
3, 4660, Note_on_c, 0, 77, 0
3, 4661, Note_on_c, 0, 58, 0
3, 4679, Control_c, 0, 64, 0
3, 4683, Note_on_c, 0, 87, 53
3, 4684, Note_on_c, 0, 75, 47
3, 4684, Note_on_c, 0, 59, 48
3, 4686, Note_on_c, 0, 58, 19
3, 4687, Note_on_c, 0, 63, 23
3, 4694, Control_c, 0, 64, 127
3, 4715, Note_on_c, 0, 63, 0
3, 4715, Note_on_c, 0, 59, 0
3, 4719, Note_on_c, 0, 58, 0
3, 4720, Note_on_c, 0, 53, 0
3, 4720, Note_on_c, 0, 87, 0
3, 4726, Note_on_c, 0, 75, 0
3, 4743, Note_on_c, 0, 61, 47
3, 4744, Note_on_c, 0, 51, 38
3, 4744, Note_on_c, 0, 74, 55
3, 4745, Note_on_c, 0, 86, 60
3, 4756, Note_on_c, 0, 74, 0
3, 4760, Note_on_c, 0, 86, 0
3, 4779, Note_on_c, 0, 61, 0
3, 4780, Note_on_c, 0, 51, 0
3, 4800, Control_c, 0, 64, 0
3, 4803, Note_on_c, 0, 50, 46
3, 4803, Note_on_c, 0, 56, 45
3, 4804, Note_on_c, 0, 89, 74
3, 4804, Note_on_c, 0, 77, 69
3, 4805, Note_on_c, 0, 60, 44
3, 4829, Control_c, 0, 64, 127
3, 4830, Note_on_c, 0, 89, 0
3, 4839, Note_on_c, 0, 77, 0
3, 4866, Note_on_c, 0, 86, 71
3, 4871, Note_on_c, 0, 74, 53
3, 4874, Note_on_c, 0, 60, 0
3, 4894, Note_on_c, 0, 86, 0
3, 4895, Note_on_c, 0, 74, 0
3, 4926, Note_on_c, 0, 86, 78
3, 4928, Note_on_c, 0, 74, 66
3, 4928, Note_on_c, 0, 60, 35
3, 4943, Note_on_c, 0, 50, 0
3, 4945, Note_on_c, 0, 56, 0
3, 4951, Note_on_c, 0, 60, 0
3, 4966, Note_on_c, 0, 86, 0
3, 4970, Note_on_c, 0, 74, 0
3, 4986, Note_on_c, 0, 86, 73
3, 4991, Note_on_c, 0, 74, 48
3, 5002, Note_on_c, 0, 74, 0
3, 5016, Note_on_c, 0, 86, 0
3, 5045, Note_on_c, 0, 86, 68
3, 5047, Note_on_c, 0, 56, 39
3, 5049, Note_on_c, 0, 65, 37
3, 5049, Note_on_c, 0, 77, 58
3, 5050, Control_c, 0, 64, 0
3, 5051, Note_on_c, 0, 60, 42
3, 5078, Control_c, 0, 64, 127
3, 5092, Note_on_c, 0, 60, 0
3, 5096, Note_on_c, 0, 86, 0
3, 5112, Note_on_c, 0, 86, 70
3, 5114, Note_on_c, 0, 65, 0
3, 5117, Note_on_c, 0, 60, 31
3, 5123, Note_on_c, 0, 77, 0
3, 5123, Note_on_c, 0, 86, 0
3, 5124, Note_on_c, 0, 60, 0
3, 5134, Note_on_c, 0, 56, 0
3, 5171, Note_on_c, 0, 54, 42
3, 5172, Note_on_c, 0, 60, 45
3, 5174, Note_on_c, 0, 65, 58
3, 5176, Control_c, 0, 64, 0
3, 5176, Note_on_c, 0, 70, 48
3, 5210, Control_c, 0, 64, 127
3, 5230, Note_on_c, 0, 44, 39
3, 5232, Note_on_c, 0, 70, 0
3, 5238, Note_on_c, 0, 65, 0
3, 5247, Note_on_c, 0, 54, 0
3, 5251, Note_on_c, 0, 60, 0
3, 5255, Note_on_c, 0, 44, 0
3, 5294, Note_on_c, 0, 68, 34
3, 5294, Note_on_c, 0, 63, 43
3, 5294, Note_on_c, 0, 59, 44
3, 5296, Control_c, 0, 64, 0
3, 5296, Note_on_c, 0, 43, 36
3, 5297, Note_on_c, 0, 53, 34
3, 5329, Control_c, 0, 64, 127
3, 5350, Note_on_c, 0, 68, 0
3, 5357, Note_on_c, 0, 63, 0
3, 5359, Note_on_c, 0, 53, 0
3, 5365, Note_on_c, 0, 59, 0
3, 5410, Note_on_c, 0, 65, 71
3, 5412, Note_on_c, 0, 59, 71
3, 5412, Note_on_c, 0, 62, 71
3, 5412, Note_on_c, 0, 56, 64
3, 5415, Note_on_c, 0, 53, 54
3, 5416, Control_c, 0, 64, 0
3, 5429, Note_on_c, 0, 43, 0
3, 5464, Note_on_c, 0, 53, 0
3, 5478, Note_on_c, 0, 47, 80
3, 5522, Note_on_c, 0, 59, 0
3, 5524, Note_on_c, 0, 56, 0
3, 5525, Note_on_c, 0, 65, 0
3, 5528, Note_on_c, 0, 62, 0
3, 5537, Note_on_c, 0, 56, 50
3, 5537, Note_on_c, 0, 59, 59
3, 5538, Note_on_c, 0, 63, 57
3, 5623, Control_c, 0, 64, 127
3, 5624, Note_on_c, 0, 56, 0
3, 5626, Note_on_c, 0, 59, 0
3, 5647, Note_on_c, 0, 63, 0
3, 5650, Note_on_c, 0, 62, 63
3, 5651, Control_c, 0, 64, 0
3, 5651, Note_on_c, 0, 56, 35
3, 5651, Note_on_c, 0, 59, 50
3, 5653, Note_on_c, 0, 50, 33
3, 5655, Note_on_c, 0, 47, 0
3, 5705, Control_c, 0, 64, 127
3, 5706, Note_on_c, 0, 59, 0
3, 5707, Note_on_c, 0, 56, 0
3, 5711, Note_on_c, 0, 50, 0
3, 5713, Note_on_c, 0, 47, 55
3, 5714, Note_on_c, 0, 62, 0
3, 5724, Note_on_c, 0, 47, 0
3, 5772, Control_c, 0, 64, 0
3, 5775, Note_on_c, 0, 63, 37
3, 5776, Note_on_c, 0, 72, 30
3, 5776, Note_on_c, 0, 57, 47
3, 5776, Note_on_c, 0, 67, 52
3, 5800, Control_c, 0, 64, 127
3, 5802, Note_on_c, 0, 72, 0
3, 5807, Note_on_c, 0, 67, 0
3, 5811, Note_on_c, 0, 63, 0
3, 5835, Note_on_c, 0, 74, 63
3, 5836, Note_on_c, 0, 65, 58
3, 5837, Note_on_c, 0, 68, 56
3, 5837, Note_on_c, 0, 59, 47
3, 5842, Note_on_c, 0, 57, 0
3, 5856, Note_on_c, 0, 74, 0
3, 5859, Note_on_c, 0, 65, 0
3, 5866, Note_on_c, 0, 68, 0
3, 5890, Control_c, 0, 64, 0
3, 5892, Note_on_c, 0, 75, 65
3, 5894, Note_on_c, 0, 59, 0
3, 5894, Note_on_c, 0, 67, 52
3, 5895, Note_on_c, 0, 69, 50
3, 5896, Note_on_c, 0, 60, 51
3, 5907, Note_on_c, 0, 69, 0
3, 5912, Control_c, 0, 64, 127
3, 5918, Note_on_c, 0, 75, 0
3, 5935, Note_on_c, 0, 67, 0
3, 5948, Note_on_c, 0, 77, 58
3, 5949, Note_on_c, 0, 62, 54
3, 5949, Note_on_c, 0, 67, 57
3, 5952, Note_on_c, 0, 72, 49
3, 5954, Note_on_c, 0, 60, 0
3, 5963, Note_on_c, 0, 67, 0
3, 5966, Note_on_c, 0, 77, 0
3, 5972, Note_on_c, 0, 72, 0
3, 6001, Control_c, 0, 64, 0
3, 6007, Note_on_c, 0, 62, 0
3, 6007, Note_on_c, 0, 75, 51
3, 6007, Note_on_c, 0, 79, 55
3, 6008, Note_on_c, 0, 69, 51
3, 6009, Note_on_c, 0, 72, 32
3, 6010, Note_on_c, 0, 63, 40
3, 6023, Note_on_c, 0, 72, 0
3, 6025, Note_on_c, 0, 69, 0
3, 6025, Control_c, 0, 64, 127
3, 6027, Note_on_c, 0, 79, 0
3, 6034, Note_on_c, 0, 75, 0
3, 6045, Note_on_c, 0, 63, 0
3, 6067, Note_on_c, 0, 81, 68
3, 6067, Note_on_c, 0, 72, 49
3, 6071, Note_on_c, 0, 75, 35
3, 6076, Note_on_c, 0, 75, 0
3, 6083, Note_on_c, 0, 72, 0
3, 6084, Note_on_c, 0, 81, 0
3, 6117, Control_c, 0, 64, 0
3, 6121, Note_on_c, 0, 68, 49
3, 6121, Note_on_c, 0, 83, 57
3, 6124, Note_on_c, 0, 77, 54
3, 6124, Note_on_c, 0, 80, 43
3, 6124, Note_on_c, 0, 74, 46
3, 6138, Control_c, 0, 64, 127
3, 6139, Note_on_c, 0, 83, 0
3, 6140, Note_on_c, 0, 77, 0
3, 6145, Note_on_c, 0, 74, 0
3, 6145, Note_on_c, 0, 80, 0
3, 6149, Note_on_c, 0, 68, 0
3, 6182, Note_on_c, 0, 69, 37
3, 6184, Note_on_c, 0, 84, 63
3, 6185, Note_on_c, 0, 74, 51
3, 6186, Note_on_c, 0, 79, 49
3, 6190, Note_on_c, 0, 69, 0
3, 6196, Note_on_c, 0, 74, 0
3, 6199, Note_on_c, 0, 79, 0
3, 6200, Note_on_c, 0, 84, 0
3, 6245, Note_on_c, 0, 86, 67
3, 6246, Control_c, 0, 64, 0
3, 6247, Note_on_c, 0, 55, 33
3, 6249, Note_on_c, 0, 79, 36
3, 6249, Note_on_c, 0, 60, 40
3, 6249, Note_on_c, 0, 76, 42
3, 6250, Note_on_c, 0, 57, 31
3, 6251, Note_on_c, 0, 64, 31
3, 6283, Control_c, 0, 64, 127
3, 6307, Note_on_c, 0, 76, 0
3, 6321, Note_on_c, 0, 79, 0
3, 6326, Note_on_c, 0, 60, 0
3, 6326, Note_on_c, 0, 64, 0
3, 6344, Note_on_c, 0, 86, 0
3, 6373, Note_on_c, 0, 86, 67
3, 6374, Note_on_c, 0, 64, 40
3, 6375, Note_on_c, 0, 74, 37
3, 6377, Note_on_c, 0, 78, 36
3, 6377, Note_on_c, 0, 60, 39
3, 6381, Control_c, 0, 64, 0
3, 6392, Control_c, 0, 64, 127
3, 6444, Note_on_c, 0, 64, 0
3, 6448, Note_on_c, 0, 55, 0
3, 6449, Note_on_c, 0, 60, 0
3, 6451, Note_on_c, 0, 57, 0
3, 6467, Note_on_c, 0, 74, 0
3, 6470, Note_on_c, 0, 78, 0
3, 6496, Note_on_c, 0, 86, 0
3, 6497, Note_on_c, 0, 54, 30
3, 6497, Note_on_c, 0, 74, 31
3, 6498, Note_on_c, 0, 78, 21
3, 6499, Note_on_c, 0, 64, 30
3, 6499, Note_on_c, 0, 60, 32
3, 6500, Control_c, 0, 64, 0
3, 6527, Control_c, 0, 64, 127
3, 6542, Note_on_c, 0, 60, 0
3, 6543, Note_on_c, 0, 64, 0
3, 6552, Note_on_c, 0, 54, 0
3, 6606, Note_on_c, 0, 74, 0
3, 6607, Note_on_c, 0, 50, 35
3, 6610, Note_on_c, 0, 54, 19
3, 6617, Note_on_c, 0, 78, 0
3, 6675, Note_on_c, 0, 50, 0
3, 6682, Note_on_c, 0, 54, 0
3, 6683, Note_on_c, 0, 84, 96
3, 6720, Note_on_c, 0, 84, 0
3, 6727, Note_on_c, 0, 82, 47
3, 6732, Control_c, 0, 64, 0
3, 6732, Note_on_c, 0, 59, 41
3, 6733, Note_on_c, 0, 64, 35
3, 6734, Note_on_c, 0, 53, 28
3, 6738, Note_on_c, 0, 83, 64
3, 6747, Note_on_c, 0, 82, 0
3, 6762, Note_on_c, 0, 83, 0
3, 6771, Note_on_c, 0, 79, 43
3, 6785, Note_on_c, 0, 79, 0
3, 6815, Note_on_c, 0, 79, 57
3, 6833, Note_on_c, 0, 79, 0
3, 6835, Note_on_c, 0, 78, 47
3, 6845, Note_on_c, 0, 78, 0
3, 6858, Note_on_c, 0, 79, 61
3, 6865, Control_c, 0, 64, 127
3, 6911, Note_on_c, 0, 59, 0
3, 6914, Note_on_c, 0, 53, 0
3, 6918, Note_on_c, 0, 64, 0
3, 6953, Control_c, 0, 64, 0
3, 6959, Note_on_c, 0, 54, 37
3, 6960, Note_on_c, 0, 79, 0
3, 6960, Note_on_c, 0, 65, 37
3, 6961, Note_on_c, 0, 60, 45
3, 6970, Control_c, 0, 64, 127
3, 7006, Note_on_c, 0, 89, 52
3, 7032, Note_on_c, 0, 89, 0
3, 7044, Note_on_c, 0, 101, 81
3, 7076, Note_on_c, 0, 101, 0
3, 7082, Note_on_c, 0, 97, 59
3, 7111, Note_on_c, 0, 97, 0
3, 7119, Note_on_c, 0, 98, 68
3, 7125, Note_on_c, 0, 60, 0
3, 7131, Note_on_c, 0, 65, 0
3, 7142, Note_on_c, 0, 98, 0
3, 7161, Note_on_c, 0, 94, 72
3, 7162, Note_on_c, 0, 54, 0
3, 7188, Note_on_c, 0, 94, 0
3, 7192, Note_on_c, 0, 96, 67
3, 7202, Note_on_c, 0, 64, 29
3, 7203, Note_on_c, 0, 53, 29
3, 7204, Note_on_c, 0, 59, 34
3, 7206, Control_c, 0, 64, 0
3, 7215, Note_on_c, 0, 96, 0
3, 7229, Note_on_c, 0, 95, 31
3, 7244, Control_c, 0, 64, 127
3, 7253, Note_on_c, 0, 95, 0
3, 7259, Note_on_c, 0, 91, 45
3, 7294, Note_on_c, 0, 91, 0
3, 7294, Note_on_c, 0, 59, 0
3, 7295, Note_on_c, 0, 64, 0
3, 7323, Note_on_c, 0, 86, 48
3, 7326, Note_on_c, 0, 64, 25
3, 7330, Note_on_c, 0, 59, 27
3, 7349, Note_on_c, 0, 86, 0
3, 7350, Note_on_c, 0, 64, 0
3, 7351, Note_on_c, 0, 59, 0
3, 7362, Note_on_c, 0, 53, 0
3, 7404, Note_on_c, 0, 43, 38
3, 7455, Note_on_c, 0, 56, 31
3, 7455, Note_on_c, 0, 59, 48
3, 7457, Control_c, 0, 64, 0
3, 7457, Note_on_c, 0, 53, 25
3, 7494, Control_c, 0, 64, 127
3, 7531, Note_on_c, 0, 53, 0
3, 7538, Note_on_c, 0, 56, 0
3, 7540, Note_on_c, 0, 59, 0
3, 7570, Note_on_c, 0, 53, 39
3, 7610, Note_on_c, 0, 43, 0
3, 7622, Note_on_c, 0, 53, 0
3, 7643, Note_on_c, 0, 67, 60
3, 7656, Note_on_c, 0, 67, 0
3, 7687, Control_c, 0, 64, 0
3, 7690, Note_on_c, 0, 75, 74
3, 7690, Note_on_c, 0, 45, 49
3, 7715, Control_c, 0, 64, 127
3, 7730, Note_on_c, 0, 45, 0
3, 7810, Note_on_c, 0, 55, 49
3, 7810, Note_on_c, 0, 63, 27
3, 7811, Note_on_c, 0, 57, 42
3, 7812, Note_on_c, 0, 60, 29
3, 7842, Note_on_c, 0, 75, 0
3, 7874, Note_on_c, 0, 55, 0
3, 7874, Note_on_c, 0, 60, 0
3, 7878, Note_on_c, 0, 63, 0
3, 7878, Note_on_c, 0, 57, 0
3, 7937, Note_on_c, 0, 86, 96
3, 7937, Note_on_c, 0, 77, 94
3, 7937, Note_on_c, 0, 60, 65
3, 7938, Control_c, 0, 64, 0
3, 7939, Note_on_c, 0, 54, 59
3, 7967, Control_c, 0, 64, 127
3, 7988, Note_on_c, 0, 60, 0
3, 7988, Note_on_c, 0, 86, 0
3, 7994, Note_on_c, 0, 77, 0
3, 8000, Note_on_c, 0, 54, 0
3, 8013, Note_on_c, 0, 84, 63
3, 8014, Note_on_c, 0, 76, 50
3, 8043, Note_on_c, 0, 76, 0
3, 8049, Note_on_c, 0, 84, 0
3, 8057, Note_on_c, 0, 74, 50
3, 8058, Control_c, 0, 64, 0
3, 8058, Note_on_c, 0, 54, 26
3, 8058, Note_on_c, 0, 60, 35
3, 8058, Note_on_c, 0, 50, 33
3, 8059, Note_on_c, 0, 82, 46
3, 8080, Note_on_c, 0, 50, 0
3, 8081, Note_on_c, 0, 60, 0
3, 8081, Note_on_c, 0, 54, 0
3, 8081, Control_c, 0, 64, 127
3, 8106, Note_on_c, 0, 74, 0
3, 8121, Note_on_c, 0, 82, 0
3, 8133, Note_on_c, 0, 81, 44
3, 8146, Note_on_c, 0, 81, 0
3, 8169, Note_on_c, 0, 43, 20
3, 8172, Note_on_c, 0, 86, 58
3, 8173, Control_c, 0, 64, 0
3, 8174, Note_on_c, 0, 74, 32
3, 8191, Control_c, 0, 64, 127
3, 8212, Note_on_c, 0, 86, 0
3, 8216, Note_on_c, 0, 43, 0
3, 8221, Note_on_c, 0, 74, 0
3, 8248, Note_on_c, 0, 86, 55
3, 8250, Note_on_c, 0, 74, 47
3, 8259, Note_on_c, 0, 86, 0
3, 8268, Note_on_c, 0, 74, 0
3, 8292, Note_on_c, 0, 62, 44
3, 8293, Note_on_c, 0, 57, 31
3, 8295, Note_on_c, 0, 58, 33
3, 8323, Note_on_c, 0, 62, 0
3, 8329, Note_on_c, 0, 57, 0
3, 8331, Note_on_c, 0, 58, 0
3, 8365, Note_on_c, 0, 54, 19
3, 8370, Note_on_c, 0, 56, 31
3, 8373, Control_c, 0, 64, 0
3, 8373, Note_on_c, 0, 72, 43
3, 8373, Note_on_c, 0, 65, 61
3, 8374, Note_on_c, 0, 69, 49
3, 8374, Note_on_c, 0, 57, 66
3, 8374, Note_on_c, 0, 62, 69
3, 8379, Note_on_c, 0, 56, 0
3, 8379, Note_on_c, 0, 54, 0
3, 8398, Note_on_c, 0, 69, 0
3, 8403, Note_on_c, 0, 62, 0
3, 8404, Note_on_c, 0, 72, 0
3, 8417, Note_on_c, 0, 70, 37
3, 8418, Note_on_c, 0, 57, 0
3, 8418, Note_on_c, 0, 62, 33
3, 8420, Note_on_c, 0, 55, 40
3, 8467, Control_c, 0, 64, 127
3, 8505, Note_on_c, 0, 62, 0
3, 8506, Note_on_c, 0, 65, 0
3, 8512, Note_on_c, 0, 70, 0
3, 8520, Note_on_c, 0, 55, 0
3, 8534, Note_on_c, 0, 69, 42
3, 8534, Note_on_c, 0, 62, 22
3, 8534, Note_on_c, 0, 53, 38
3, 8536, Note_on_c, 0, 65, 26
3, 8539, Control_c, 0, 64, 0
3, 8558, Control_c, 0, 64, 127
3, 8601, Note_on_c, 0, 44, 35
3, 8602, Note_on_c, 0, 62, 0
3, 8615, Note_on_c, 0, 65, 0
3, 8620, Note_on_c, 0, 53, 0
3, 8629, Note_on_c, 0, 44, 0
3, 8639, Note_on_c, 0, 69, 0
3, 8648, Control_c, 0, 64, 0
3, 8649, Note_on_c, 0, 43, 41
3, 8649, Note_on_c, 0, 61, 27
3, 8649, Note_on_c, 0, 65, 45
3, 8649, Note_on_c, 0, 70, 35
3, 8668, Control_c, 0, 64, 127
3, 8673, Note_on_c, 0, 61, 0
3, 8678, Note_on_c, 0, 65, 0
3, 8684, Note_on_c, 0, 70, 0
3, 8689, Note_on_c, 0, 43, 0
3, 8730, Note_on_c, 0, 85, 83
3, 8731, Note_on_c, 0, 73, 73
3, 8769, Note_on_c, 0, 61, 46
3, 8771, Control_c, 0, 64, 0
3, 8771, Note_on_c, 0, 53, 32
3, 8772, Note_on_c, 0, 55, 44
3, 8775, Note_on_c, 0, 58, 35
3, 8787, Control_c, 0, 64, 127
3, 8819, Note_on_c, 0, 53, 0
3, 8821, Note_on_c, 0, 55, 0
3, 8825, Note_on_c, 0, 61, 0
3, 8826, Note_on_c, 0, 58, 0
3, 8842, Note_on_c, 0, 73, 0
3, 8844, Note_on_c, 0, 85, 0
3, 8893, Note_on_c, 0, 84, 82
3, 8894, Note_on_c, 0, 58, 48
3, 8894, Note_on_c, 0, 63, 53
3, 8894, Control_c, 0, 64, 0
3, 8894, Note_on_c, 0, 72, 74
3, 8895, Note_on_c, 0, 52, 43
3, 8918, Control_c, 0, 64, 127
3, 8920, Note_on_c, 0, 84, 0
3, 8928, Note_on_c, 0, 72, 0
3, 8942, Note_on_c, 0, 63, 0
3, 8969, Note_on_c, 0, 82, 74
3, 8970, Note_on_c, 0, 70, 69
3, 8974, Note_on_c, 0, 58, 0
3, 8994, Note_on_c, 0, 52, 0
3, 9008, Note_on_c, 0, 63, 35
3, 9009, Note_on_c, 0, 58, 39
3, 9010, Note_on_c, 0, 52, 34
3, 9017, Note_on_c, 0, 63, 0
3, 9024, Note_on_c, 0, 52, 0
3, 9024, Note_on_c, 0, 82, 0
3, 9025, Note_on_c, 0, 58, 0
3, 9027, Note_on_c, 0, 70, 0
3, 9049, Note_on_c, 0, 80, 50
3, 9052, Note_on_c, 0, 68, 38
3, 9067, Note_on_c, 0, 80, 0
3, 9070, Note_on_c, 0, 68, 0
3, 9085, Note_on_c, 0, 67, 58
3, 9086, Note_on_c, 0, 79, 38
3, 9096, Note_on_c, 0, 79, 0
3, 9100, Note_on_c, 0, 67, 0
3, 9124, Note_on_c, 0, 48, 33
3, 9124, Note_on_c, 0, 80, 47
3, 9124, Control_c, 0, 64, 0
3, 9125, Note_on_c, 0, 68, 46
3, 9126, Note_on_c, 0, 41, 47
3, 9153, Control_c, 0, 64, 127
3, 9161, Note_on_c, 0, 80, 0
3, 9167, Note_on_c, 0, 68, 0
3, 9247, Note_on_c, 0, 56, 33
3, 9248, Note_on_c, 0, 60, 49
3, 9298, Note_on_c, 0, 41, 0
3, 9301, Note_on_c, 0, 48, 0
3, 9306, Note_on_c, 0, 55, 75
3, 9339, Note_on_c, 0, 56, 0
3, 9341, Note_on_c, 0, 60, 0
3, 9366, Note_on_c, 0, 60, 58
3, 9366, Note_on_c, 0, 56, 43
3, 9369, Control_c, 0, 64, 0
3, 9426, Note_on_c, 0, 53, 87
3, 9444, Note_on_c, 0, 60, 0
3, 9454, Note_on_c, 0, 55, 0
3, 9454, Note_on_c, 0, 56, 0
3, 9487, Note_on_c, 0, 56, 47
3, 9488, Note_on_c, 0, 60, 60
3, 9544, Note_on_c, 0, 56, 0
3, 9547, Note_on_c, 0, 51, 74
3, 9549, Note_on_c, 0, 53, 0
3, 9550, Note_on_c, 0, 60, 0
3, 9570, Control_c, 0, 64, 127
3, 9599, Note_on_c, 0, 51, 0
3, 9601, Control_c, 0, 64, 0
3, 9604, Note_on_c, 0, 68, 67
3, 9605, Note_on_c, 0, 65, 75
3, 9605, Note_on_c, 0, 60, 71
3, 9606, Note_on_c, 0, 50, 68
3, 9629, Control_c, 0, 64, 127
3, 9643, Note_on_c, 0, 60, 0
3, 9652, Note_on_c, 0, 50, 0
3, 9652, Note_on_c, 0, 65, 0
3, 9660, Note_on_c, 0, 68, 0
3, 9726, Note_on_c, 0, 80, 71
3, 9727, Note_on_c, 0, 68, 86
3, 9727, Note_on_c, 0, 77, 71
3, 9727, Note_on_c, 0, 60, 69
3, 9728, Note_on_c, 0, 65, 79
3, 9728, Note_on_c, 0, 54, 69
3, 9733, Control_c, 0, 64, 0
3, 9754, Control_c, 0, 64, 127
3, 9788, Note_on_c, 0, 65, 0
3, 9790, Note_on_c, 0, 68, 0
3, 9791, Note_on_c, 0, 60, 0
3, 9796, Note_on_c, 0, 77, 0
3, 9801, Note_on_c, 0, 80, 0
3, 9806, Note_on_c, 0, 54, 0
3, 9849, Note_on_c, 0, 79, 71
3, 9849, Note_on_c, 0, 75, 71
3, 9849, Note_on_c, 0, 59, 59
3, 9849, Note_on_c, 0, 71, 80
3, 9850, Control_c, 0, 64, 0
3, 9850, Note_on_c, 0, 64, 58
3, 9851, Note_on_c, 0, 53, 54
3, 9891, Control_c, 0, 64, 127
3, 9902, Note_on_c, 0, 79, 0
3, 9911, Note_on_c, 0, 75, 0
3, 9911, Note_on_c, 0, 77, 74
3, 9921, Note_on_c, 0, 64, 0
3, 9933, Note_on_c, 0, 59, 0
3, 9956, Note_on_c, 0, 71, 0
3, 9968, Note_on_c, 0, 75, 67
3, 9971, Note_on_c, 0, 64, 33
3, 9972, Note_on_c, 0, 59, 41
3, 9981, Note_on_c, 0, 77, 0
3, 9997, Note_on_c, 0, 64, 0
3, 10007, Note_on_c, 0, 59, 0
3, 10016, Note_on_c, 0, 75, 0
3, 10020, Note_on_c, 0, 53, 0
3, 10027, Note_on_c, 0, 74, 70
3, 10047, Note_on_c, 0, 74, 0
3, 10089, Control_c, 0, 64, 0
3, 10090, Note_on_c, 0, 70, 67
3, 10090, Note_on_c, 0, 77, 68
3, 10090, Note_on_c, 0, 48, 44
3, 10091, Note_on_c, 0, 67, 66
3, 10093, Note_on_c, 0, 60, 45
3, 10121, Control_c, 0, 64, 127
3, 10132, Note_on_c, 0, 60, 0
3, 10144, Note_on_c, 0, 77, 0
3, 10152, Note_on_c, 0, 70, 0
3, 10156, Note_on_c, 0, 75, 79
3, 10156, Note_on_c, 0, 70, 36
3, 10196, Note_on_c, 0, 67, 0
3, 10206, Note_on_c, 0, 70, 0
3, 10206, Note_on_c, 0, 75, 0
3, 10214, Note_on_c, 0, 67, 58
3, 10214, Note_on_c, 0, 74, 72
3, 10214, Note_on_c, 0, 70, 37
3, 10216, Note_on_c, 0, 57, 44
3, 10226, Note_on_c, 0, 48, 0
3, 10238, Note_on_c, 0, 57, 0
3, 10258, Note_on_c, 0, 74, 0
3, 10264, Note_on_c, 0, 67, 0
3, 10270, Note_on_c, 0, 70, 0
3, 10274, Note_on_c, 0, 75, 74
3, 10278, Note_on_c, 0, 70, 29
3, 10282, Note_on_c, 0, 70, 0
3, 10295, Note_on_c, 0, 75, 0
3, 10332, Note_on_c, 0, 55, 54
3, 10332, Control_c, 0, 64, 0
3, 10333, Note_on_c, 0, 63, 48
3, 10334, Note_on_c, 0, 60, 33
3, 10335, Note_on_c, 0, 78, 68
3, 10336, Note_on_c, 0, 66, 62
3, 10338, Note_on_c, 0, 57, 34
3, 10361, Control_c, 0, 64, 127
3, 10374, Note_on_c, 0, 66, 0
3, 10375, Note_on_c, 0, 78, 0
3, 10388, Note_on_c, 0, 57, 0
3, 10395, Note_on_c, 0, 67, 71
3, 10395, Note_on_c, 0, 79, 68
3, 10396, Note_on_c, 0, 63, 0
3, 10403, Note_on_c, 0, 67, 0
3, 10408, Note_on_c, 0, 60, 0
3, 10409, Note_on_c, 0, 79, 0
3, 10459, Note_on_c, 0, 63, 38
3, 10460, Note_on_c, 0, 86, 84
3, 10461, Note_on_c, 0, 74, 62
3, 10463, Note_on_c, 0, 60, 34
3, 10464, Note_on_c, 0, 57, 40
3, 10464, Note_on_c, 0, 76, 60
3, 10465, Note_on_c, 0, 85, 33
3, 10469, Note_on_c, 0, 85, 0
3, 10469, Note_on_c, 0, 76, 0
3, 10493, Note_on_c, 0, 86, 0
3, 10505, Note_on_c, 0, 74, 0
3, 10522, Note_on_c, 0, 57, 0
3, 10522, Note_on_c, 0, 72, 47
3, 10522, Note_on_c, 0, 84, 64
3, 10523, Note_on_c, 0, 60, 0
3, 10525, Note_on_c, 0, 63, 0
3, 10529, Note_on_c, 0, 55, 0
3, 10534, Note_on_c, 0, 72, 0
3, 10539, Note_on_c, 0, 84, 0
3, 10584, Note_on_c, 0, 87, 60
3, 10584, Note_on_c, 0, 54, 38
3, 10585, Note_on_c, 0, 60, 39
3, 10585, Note_on_c, 0, 75, 53
3, 10586, Control_c, 0, 64, 0
3, 10616, Control_c, 0, 64, 127
3, 10637, Note_on_c, 0, 60, 0
3, 10643, Note_on_c, 0, 54, 0
3, 10693, Note_on_c, 0, 50, 42
3, 10697, Note_on_c, 0, 87, 0
3, 10709, Note_on_c, 0, 75, 0
3, 10809, Note_on_c, 0, 75, 48
3, 10812, Note_on_c, 0, 66, 32
3, 10815, Note_on_c, 0, 60, 34
3, 10817, Control_c, 0, 64, 0
3, 10843, Control_c, 0, 64, 127
3, 10877, Note_on_c, 0, 50, 0
3, 10900, Note_on_c, 0, 66, 0
3, 10929, Note_on_c, 0, 50, 37
3, 10932, Note_on_c, 0, 66, 25
3, 10939, Note_on_c, 0, 66, 0
3, 10942, Note_on_c, 0, 60, 0
3, 10948, Note_on_c, 0, 75, 0
3, 10956, Note_on_c, 0, 50, 0
3, 10991, Note_on_c, 0, 79, 59
3, 11021, Note_on_c, 0, 79, 0
3, 11049, Note_on_c, 0, 77, 50
3, 11049, Note_on_c, 0, 79, 40
3, 11052, Note_on_c, 0, 69, 41
3, 11052, Note_on_c, 0, 67, 54
3, 11053, Note_on_c, 0, 72, 33
3, 11056, Control_c, 0, 64, 0
3, 11079, Control_c, 0, 64, 127
3, 11115, Note_on_c, 0, 55, 36
3, 11118, Note_on_c, 0, 67, 0
3, 11119, Note_on_c, 0, 72, 0
3, 11119, Note_on_c, 0, 79, 0
3, 11120, Note_on_c, 0, 69, 0
3, 11124, Note_on_c, 0, 77, 0
3, 11135, Note_on_c, 0, 55, 0
3, 11172, Note_on_c, 0, 67, 54
3, 11232, Note_on_c, 0, 60, 37
3, 11232, Note_on_c, 0, 57, 39
3, 11256, Note_on_c, 0, 57, 0
3, 11263, Note_on_c, 0, 60, 0
3, 11273, Note_on_c, 0, 67, 0
3, 11297, Note_on_c, 0, 56, 29
3, 11299, Note_on_c, 0, 43, 34
3, 11300, Note_on_c, 0, 59, 36
3, 11300, Note_on_c, 0, 61, 33
3, 11302, Note_on_c, 0, 53, 24
3, 11303, Control_c, 0, 64, 0
3, 11341, Control_c, 0, 64, 127
3, 11364, Note_on_c, 0, 53, 0
3, 11378, Note_on_c, 0, 56, 0
3, 11386, Note_on_c, 0, 61, 0
3, 11386, Note_on_c, 0, 59, 0
3, 11414, Note_on_c, 0, 62, 64
3, 11415, Note_on_c, 0, 56, 30
3, 11417, Note_on_c, 0, 53, 34
3, 11417, Note_on_c, 0, 59, 41
3, 11453, Note_on_c, 0, 59, 0
3, 11456, Note_on_c, 0, 43, 0
3, 11475, Note_on_c, 0, 56, 0
3, 11493, Note_on_c, 0, 53, 0
3, 11508, Note_on_c, 0, 62, 0
3, 11534, Note_on_c, 0, 56, 37
3, 11535, Note_on_c, 0, 50, 41
3, 11535, Note_on_c, 0, 65, 52
3, 11536, Control_c, 0, 64, 0
3, 11537, Note_on_c, 0, 60, 52
3, 11563, Note_on_c, 0, 56, 0
3, 11563, Control_c, 0, 64, 127
3, 11571, Note_on_c, 0, 65, 0
3, 11573, Note_on_c, 0, 60, 0
3, 11579, Note_on_c, 0, 50, 0
3, 11657, Note_on_c, 0, 89, 78
3, 11709, Note_on_c, 0, 89, 0
3, 11751, Note_on_c, 0, 74, 49
3, 11753, Note_on_c, 0, 76, 50
3, 11758, Note_on_c, 0, 76, 0
3, 11780, Note_on_c, 0, 74, 0
3, 11787, Note_on_c, 0, 56, 44
3, 11788, Note_on_c, 0, 74, 53
3, 11789, Note_on_c, 0, 65, 40
3, 11793, Note_on_c, 0, 60, 35
3, 11794, Control_c, 0, 64, 0
3, 11823, Control_c, 0, 64, 127
3, 11857, Note_on_c, 0, 74, 0
3, 11872, Note_on_c, 0, 65, 0
3, 11876, Note_on_c, 0, 60, 0
3, 11904, Note_on_c, 0, 74, 49
3, 11905, Note_on_c, 0, 65, 31
3, 11906, Note_on_c, 0, 60, 31
3, 11949, Note_on_c, 0, 60, 0
3, 11950, Note_on_c, 0, 65, 0
3, 11966, Note_on_c, 0, 56, 0
3, 11986, Note_on_c, 0, 74, 0
3, 12009, Note_on_c, 0, 58, 36
3, 12012, Note_on_c, 0, 59, 33
3, 12012, Note_on_c, 0, 63, 20
3, 12013, Note_on_c, 0, 74, 44
3, 12014, Note_on_c, 0, 53, 30
3, 12016, Control_c, 0, 64, 0
3, 12040, Control_c, 0, 64, 127
3, 12051, Note_on_c, 0, 63, 0
3, 12051, Note_on_c, 0, 59, 0
3, 12056, Note_on_c, 0, 58, 0
3, 12057, Note_on_c, 0, 53, 0
3, 12129, Note_on_c, 0, 43, 44
3, 12137, Note_on_c, 0, 74, 0
3, 12153, Note_on_c, 0, 43, 0
3, 12163, Note_on_c, 0, 75, 79
3, 12180, Note_on_c, 0, 75, 0
3, 12191, Note_on_c, 0, 77, 83
3, 12212, Note_on_c, 0, 77, 0
3, 12214, Note_on_c, 0, 75, 77
3, 12232, Note_on_c, 0, 75, 0
3, 12243, Note_on_c, 0, 63, 43
3, 12244, Note_on_c, 0, 58, 38
3, 12244, Note_on_c, 0, 53, 37
3, 12244, Note_on_c, 0, 78, 54
3, 12245, Note_on_c, 0, 59, 51
3, 12246, Control_c, 0, 64, 0
3, 12263, Note_on_c, 0, 78, 0
3, 12263, Note_on_c, 0, 79, 53
3, 12277, Note_on_c, 0, 79, 0
3, 12297, Note_on_c, 0, 78, 46
3, 12318, Note_on_c, 0, 79, 49
3, 12319, Note_on_c, 0, 78, 0
3, 12332, Note_on_c, 0, 79, 0
3, 12335, Note_on_c, 0, 59, 0
3, 12344, Note_on_c, 0, 63, 0
3, 12348, Control_c, 0, 64, 127
3, 12356, Control_c, 0, 64, 0
3, 12361, Note_on_c, 0, 78, 45
3, 12364, Note_on_c, 0, 63, 29
3, 12365, Note_on_c, 0, 59, 44
3, 12376, Note_on_c, 0, 79, 41
3, 12380, Note_on_c, 0, 78, 0
3, 12397, Control_c, 0, 64, 127
3, 12402, Note_on_c, 0, 79, 0
3, 12414, Note_on_c, 0, 59, 0
3, 12420, Note_on_c, 0, 58, 0
3, 12420, Note_on_c, 0, 78, 45
3, 12423, Note_on_c, 0, 63, 0
3, 12426, Note_on_c, 0, 53, 0
3, 12433, Note_on_c, 0, 78, 0
3, 12433, Note_on_c, 0, 79, 57
3, 12461, Note_on_c, 0, 79, 0
3, 12475, Note_on_c, 0, 78, 40
3, 12481, Note_on_c, 0, 56, 31
3, 12481, Note_on_c, 0, 50, 31
3, 12483, Control_c, 0, 64, 0
3, 12485, Note_on_c, 0, 60, 30
3, 12488, Note_on_c, 0, 78, 0
3, 12488, Note_on_c, 0, 79, 57
3, 12523, Note_on_c, 0, 78, 57
3, 12537, Note_on_c, 0, 79, 0
3, 12543, Note_on_c, 0, 78, 0
3, 12552, Note_on_c, 0, 77, 56
3, 12570, Control_c, 0, 64, 127
3, 12579, Note_on_c, 0, 60, 0
3, 12581, Note_on_c, 0, 56, 0
3, 12601, Note_on_c, 0, 56, 31
3, 12603, Note_on_c, 0, 60, 28
3, 12648, Note_on_c, 0, 60, 0
3, 12653, Note_on_c, 0, 77, 0
3, 12656, Note_on_c, 0, 74, 64
3, 12672, Note_on_c, 0, 74, 0
3, 12687, Note_on_c, 0, 65, 53
3, 12713, Note_on_c, 0, 65, 0
3, 12723, Note_on_c, 0, 67, 63
3, 12726, Note_on_c, 0, 60, 33
3, 12733, Control_c, 0, 64, 0
3, 12752, Note_on_c, 0, 68, 52
3, 12756, Note_on_c, 0, 67, 0
3, 12774, Note_on_c, 0, 68, 0
3, 12778, Note_on_c, 0, 67, 60
3, 12783, Control_c, 0, 64, 127
3, 12815, Note_on_c, 0, 60, 0
3, 12820, Note_on_c, 0, 56, 0
3, 12866, Note_on_c, 0, 50, 0
3, 12906, Note_on_c, 0, 67, 0
3, 12907, Note_on_c, 0, 65, 43
3, 12961, Note_on_c, 0, 65, 0
3, 12968, Note_on_c, 0, 59, 35
3, 12968, Note_on_c, 0, 63, 21
3, 12968, Note_on_c, 0, 43, 37
3, 12969, Note_on_c, 0, 53, 35
3, 12973, Control_c, 0, 64, 0
3, 13012, Control_c, 0, 64, 127
3, 13059, Note_on_c, 0, 59, 0
3, 13067, Note_on_c, 0, 63, 0
3, 13072, Note_on_c, 0, 53, 0
3, 13085, Note_on_c, 0, 50, 39
3, 13086, Note_on_c, 0, 59, 47
3, 13087, Note_on_c, 0, 62, 59
3, 13090, Note_on_c, 0, 43, 0
3, 13094, Note_on_c, 0, 59, 0
3, 13099, Note_on_c, 0, 50, 0
3, 13100, Note_on_c, 0, 62, 0
3, 13155, Note_on_c, 0, 77, 66
3, 13156, Note_on_c, 0, 59, 75
3, 13157, Note_on_c, 0, 68, 56
3, 13157, Note_on_c, 0, 71, 62
3, 13197, Note_on_c, 0, 68, 0
3, 13199, Note_on_c, 0, 71, 0
3, 13199, Note_on_c, 0, 77, 0
3, 13210, Control_c, 0, 64, 0
3, 13210, Note_on_c, 0, 67, 61
3, 13210, Note_on_c, 0, 75, 64
3, 13211, Note_on_c, 0, 71, 63
3, 13213, Note_on_c, 0, 59, 0
3, 13213, Note_on_c, 0, 62, 62
3, 13241, Control_c, 0, 64, 127
3, 13256, Note_on_c, 0, 62, 0
3, 13273, Note_on_c, 0, 71, 0
3, 13281, Note_on_c, 0, 75, 0
3, 13293, Note_on_c, 0, 67, 0
3, 13329, Note_on_c, 0, 65, 45
3, 13330, Note_on_c, 0, 74, 52
3, 13331, Note_on_c, 0, 71, 42
3, 13331, Control_c, 0, 64, 0
3, 13332, Note_on_c, 0, 59, 36
3, 13333, Note_on_c, 0, 68, 28
3, 13353, Control_c, 0, 64, 127
3, 13366, Note_on_c, 0, 74, 0
3, 13374, Note_on_c, 0, 59, 0
3, 13376, Note_on_c, 0, 71, 0
3, 13384, Note_on_c, 0, 65, 0
3, 13394, Note_on_c, 0, 68, 0
3, 13444, Control_c, 0, 64, 0
3, 13445, Note_on_c, 0, 48, 35
3, 13446, Note_on_c, 0, 67, 45
3, 13446, Note_on_c, 0, 63, 26
3, 13448, Note_on_c, 0, 72, 22
3, 13448, Note_on_c, 0, 55, 33
3, 13466, Control_c, 0, 64, 127
3, 13468, Note_on_c, 0, 72, 0
3, 13474, Note_on_c, 0, 63, 0
3, 13478, Note_on_c, 0, 67, 0
3, 13511, Note_on_c, 0, 74, 62
3, 13513, Note_on_c, 0, 62, 60
3, 13514, Note_on_c, 0, 67, 44
3, 13528, Note_on_c, 0, 62, 0
3, 13530, Note_on_c, 0, 74, 0
3, 13556, Note_on_c, 0, 67, 0
3, 13563, Note_on_c, 0, 55, 0
3, 13572, Note_on_c, 0, 75, 64
3, 13573, Note_on_c, 0, 63, 61
3, 13575, Note_on_c, 0, 55, 35
3, 13591, Note_on_c, 0, 75, 0
3, 13592, Note_on_c, 0, 63, 0
3, 13597, Note_on_c, 0, 48, 0
3, 13601, Note_on_c, 0, 55, 0
3, 13630, Note_on_c, 0, 77, 66
3, 13632, Note_on_c, 0, 65, 68
3, 13653, Note_on_c, 0, 65, 0
3, 13653, Note_on_c, 0, 77, 0
3, 13690, Note_on_c, 0, 79, 72
3, 13691, Note_on_c, 0, 67, 71
3, 13692, Note_on_c, 0, 72, 51
3, 13692, Note_on_c, 0, 58, 58
3, 13694, Note_on_c, 0, 75, 46
3, 13696, Note_on_c, 0, 63, 21
3, 13697, Control_c, 0, 64, 0
3, 13699, Note_on_c, 0, 75, 0
3, 13728, Control_c, 0, 64, 127
3, 13735, Note_on_c, 0, 67, 0
3, 13735, Note_on_c, 0, 79, 0
3, 13736, Note_on_c, 0, 72, 0
3, 13754, Note_on_c, 0, 69, 67
3, 13755, Note_on_c, 0, 81, 62
3, 13766, Note_on_c, 0, 63, 0
3, 13777, Note_on_c, 0, 69, 0
3, 13780, Note_on_c, 0, 81, 0
3, 13795, Note_on_c, 0, 58, 0
3, 13811, Note_on_c, 0, 57, 60
3, 13812, Note_on_c, 0, 63, 48
3, 13813, Control_c, 0, 64, 0
3, 13836, Note_on_c, 0, 60, 1
3, 13838, Control_c, 0, 64, 127
3, 13864, Note_on_c, 0, 83, 47
3, 13864, Note_on_c, 0, 71, 58
3, 13872, Note_on_c, 0, 71, 0
3, 13875, Note_on_c, 0, 83, 0
3, 13877, Note_on_c, 0, 63, 0
3, 13879, Note_on_c, 0, 60, 0
3, 13881, Note_on_c, 0, 84, 47
3, 13882, Note_on_c, 0, 57, 0
3, 13885, Note_on_c, 0, 84, 0
3, 13900, Note_on_c, 0, 86, 51
3, 13908, Note_on_c, 0, 86, 0
3, 13931, Note_on_c, 0, 75, 65
3, 13931, Note_on_c, 0, 87, 62
3, 13931, Note_on_c, 0, 54, 50
3, 13932, Note_on_c, 0, 65, 60
3, 13933, Note_on_c, 0, 58, 53
3, 13933, Note_on_c, 0, 60, 54
3, 13933, Note_on_c, 0, 84, 66
3, 13933, Control_c, 0, 64, 0
3, 13966, Control_c, 0, 64, 127
3, 13991, Note_on_c, 0, 87, 0
3, 13999, Note_on_c, 0, 75, 0
3, 13999, Note_on_c, 0, 84, 0
3, 14002, Note_on_c, 0, 65, 0
3, 14002, Note_on_c, 0, 87, 67
3, 14015, Note_on_c, 0, 60, 0
3, 14024, Note_on_c, 0, 58, 0
3, 14036, Note_on_c, 0, 54, 0
3, 14038, Note_on_c, 0, 87, 0
3, 14054, Note_on_c, 0, 87, 57
3, 14056, Note_on_c, 0, 63, 53
3, 14057, Note_on_c, 0, 54, 44
3, 14057, Note_on_c, 0, 75, 39
3, 14058, Note_on_c, 0, 60, 45
3, 14059, Control_c, 0, 64, 0
3, 14059, Note_on_c, 0, 81, 50
3, 14081, Control_c, 0, 64, 127
3, 14101, Note_on_c, 0, 60, 0
3, 14103, Note_on_c, 0, 87, 0
3, 14120, Note_on_c, 0, 63, 0
3, 14121, Note_on_c, 0, 87, 55
3, 14132, Note_on_c, 0, 54, 0
3, 14160, Note_on_c, 0, 87, 0
3, 14163, Note_on_c, 0, 75, 0
3, 14166, Note_on_c, 0, 81, 0
3, 14176, Note_on_c, 0, 63, 40
3, 14178, Control_c, 0, 64, 0
3, 14178, Note_on_c, 0, 58, 38
3, 14179, Note_on_c, 0, 59, 48
3, 14179, Note_on_c, 0, 53, 31
3, 14179, Note_on_c, 0, 87, 51
3, 14180, Note_on_c, 0, 75, 45
3, 14205, Control_c, 0, 64, 127
3, 14211, Note_on_c, 0, 59, 0
3, 14211, Note_on_c, 0, 63, 0
3, 14215, Note_on_c, 0, 58, 0
3, 14216, Note_on_c, 0, 53, 0
3, 14243, Note_on_c, 0, 87, 0
3, 14250, Note_on_c, 0, 75, 0
3, 14294, Control_c, 0, 64, 0
3, 14295, Note_on_c, 0, 86, 50
3, 14297, Note_on_c, 0, 43, 30
3, 14298, Note_on_c, 0, 74, 37
3, 14317, Note_on_c, 0, 86, 0
3, 14318, Control_c, 0, 64, 127
3, 14329, Note_on_c, 0, 74, 0
3, 14352, Note_on_c, 0, 43, 0
3, 14354, Note_on_c, 0, 67, 56
3, 14371, Note_on_c, 0, 67, 0
3, 14415, Note_on_c, 0, 74, 48
3, 14417, Note_on_c, 0, 67, 43
3, 14417, Note_on_c, 0, 48, 32
3, 14417, Control_c, 0, 64, 0
3, 14418, Note_on_c, 0, 59, 42
3, 14418, Note_on_c, 0, 63, 26
3, 14468, Note_on_c, 0, 74, 0
3, 14469, Control_c, 0, 64, 127
3, 14476, Control_c, 0, 64, 0
3, 14477, Note_on_c, 0, 72, 27
3, 14478, Note_on_c, 0, 57, 44
3, 14488, Note_on_c, 0, 59, 0
3, 14496, Note_on_c, 0, 67, 0
3, 14496, Note_on_c, 0, 57, 0
3, 14502, Note_on_c, 0, 72, 0
3, 14506, Note_on_c, 0, 63, 0
3, 14508, Control_c, 0, 64, 127
3, 14525, Control_c, 0, 64, 0
3, 14534, Note_on_c, 0, 63, 39
3, 14536, Note_on_c, 0, 72, 29
3, 14537, Note_on_c, 0, 67, 40
3, 14540, Note_on_c, 0, 57, 31
3, 14574, Control_c, 0, 64, 127
3, 14590, Control_c, 0, 64, 0
3, 14600, Control_c, 0, 64, 127
3, 14622, Note_on_c, 0, 56, 40
3, 14623, Note_on_c, 0, 57, 0
3, 14624, Note_on_c, 0, 67, 0
3, 14624, Note_on_c, 0, 71, 60
3, 14626, Note_on_c, 0, 72, 0
3, 14633, Note_on_c, 0, 63, 0
3, 14645, Note_on_c, 0, 56, 0
3, 14649, Note_on_c, 0, 71, 0
3, 14652, Control_c, 0, 64, 0
3, 14656, Note_on_c, 0, 63, 45
3, 14656, Note_on_c, 0, 67, 37
3, 14657, Note_on_c, 0, 72, 34
3, 14658, Note_on_c, 0, 57, 44
3, 14698, Note_on_c, 0, 48, 0
3, 14709, Control_c, 0, 64, 127
3, 14755, Note_on_c, 0, 63, 0
3, 14763, Note_on_c, 0, 67, 0
3, 14763, Note_on_c, 0, 48, 43
3, 14776, Note_on_c, 0, 72, 0
3, 14821, Note_on_c, 0, 48, 0
3, 14823, Note_on_c, 0, 72, 77
3, 14833, Note_on_c, 0, 57, 0
3, 14858, Note_on_c, 0, 72, 0
3, 14883, Note_on_c, 0, 79, 94
3, 14884, Note_on_c, 0, 50, 48
3, 14884, Note_on_c, 0, 56, 49
3, 14885, Note_on_c, 0, 60, 58
3, 14886, Control_c, 0, 64, 0
3, 14919, Control_c, 0, 64, 127
3, 14944, Note_on_c, 0, 72, 45
3, 14950, Note_on_c, 0, 50, 0
3, 14952, Note_on_c, 0, 56, 0
3, 14961, Note_on_c, 0, 60, 0
3, 14981, Note_on_c, 0, 72, 0
3, 15008, Note_on_c, 0, 72, 41
3, 15010, Note_on_c, 0, 54, 35
3, 15010, Note_on_c, 0, 65, 40
3, 15012, Note_on_c, 0, 60, 39
3, 15014, Control_c, 0, 64, 0
3, 15030, Control_c, 0, 64, 127
3, 15075, Note_on_c, 0, 60, 0
3, 15076, Note_on_c, 0, 65, 0
3, 15087, Note_on_c, 0, 54, 0
3, 15092, Note_on_c, 0, 72, 0
3, 15130, Note_on_c, 0, 64, 35
3, 15133, Note_on_c, 0, 59, 40
3, 15134, Note_on_c, 0, 53, 27
3, 15136, Control_c, 0, 64, 0
3, 15172, Control_c, 0, 64, 127
3, 15184, Note_on_c, 0, 64, 0
3, 15186, Note_on_c, 0, 59, 0
3, 15195, Note_on_c, 0, 53, 0
3, 15250, Note_on_c, 0, 31, 54
3, 15259, Control_c, 0, 64, 0
3, 15269, Note_on_c, 0, 31, 0
3, 15275, Control_c, 0, 64, 127
3, 15357, Note_on_c, 0, 79, 0
3, 15369, Note_on_c, 0, 50, 27
3, 15370, Note_on_c, 0, 55, 33
3, 15371, Control_c, 0, 64, 0
3, 15372, Note_on_c, 0, 60, 24
3, 15372, Note_on_c, 0, 56, 25
3, 15450, Note_on_c, 0, 77, 54
3, 15459, Note_on_c, 0, 77, 0
3, 15463, Note_on_c, 0, 56, 0
3, 15464, Note_on_c, 0, 60, 0
3, 15489, Note_on_c, 0, 79, 95
3, 15492, Note_on_c, 0, 56, 37
3, 15494, Note_on_c, 0, 60, 32
3, 15521, Note_on_c, 0, 80, 59
3, 15527, Note_on_c, 0, 79, 0
3, 15542, Note_on_c, 0, 80, 0
3, 15548, Note_on_c, 0, 79, 54
3, 15554, Control_c, 0, 64, 127
3, 15564, Note_on_c, 0, 55, 0
3, 15566, Note_on_c, 0, 50, 0
3, 15571, Note_on_c, 0, 80, 56
3, 15574, Note_on_c, 0, 56, 0
3, 15577, Note_on_c, 0, 79, 0
3, 15580, Note_on_c, 0, 60, 0
3, 15594, Note_on_c, 0, 80, 0
3, 15599, Note_on_c, 0, 79, 67
3, 15723, Control_c, 0, 64, 0
3, 15727, Note_on_c, 0, 65, 39
3, 15728, Note_on_c, 0, 56, 32
3, 15731, Note_on_c, 0, 60, 36
3, 15746, Control_c, 0, 64, 127
3, 15780, Note_on_c, 0, 60, 0
3, 15787, Note_on_c, 0, 65, 0
3, 15816, Note_on_c, 0, 56, 0
3, 15852, Control_c, 0, 64, 0
3, 15853, Note_on_c, 0, 64, 24
3, 15854, Note_on_c, 0, 59, 35
3, 15856, Note_on_c, 0, 53, 26
3, 15860, Note_on_c, 0, 79, 0
3, 15876, Control_c, 0, 64, 127
3, 15903, Note_on_c, 0, 64, 0
3, 15909, Note_on_c, 0, 59, 0
3, 15914, Note_on_c, 0, 87, 64
3, 15919, Note_on_c, 0, 53, 0
3, 15934, Note_on_c, 0, 87, 0
3, 15941, Note_on_c, 0, 88, 76
3, 15968, Note_on_c, 0, 88, 0
3, 15974, Note_on_c, 0, 94, 82
3, 15978, Note_on_c, 0, 43, 51
3, 15980, Control_c, 0, 64, 0
3, 16004, Note_on_c, 0, 92, 72
3, 16007, Control_c, 0, 64, 127
3, 16011, Note_on_c, 0, 94, 0
3, 16017, Note_on_c, 0, 43, 0
3, 16025, Note_on_c, 0, 87, 64
3, 16026, Note_on_c, 0, 92, 0
3, 16040, Note_on_c, 0, 87, 0
3, 16046, Note_on_c, 0, 83, 50
3, 16057, Note_on_c, 0, 83, 0
3, 16063, Note_on_c, 0, 82, 38
3, 16078, Note_on_c, 0, 80, 53
3, 16084, Note_on_c, 0, 82, 0
3, 16094, Note_on_c, 0, 80, 0
3, 16096, Note_on_c, 0, 79, 61
3, 16098, Note_on_c, 0, 63, 46
3, 16099, Note_on_c, 0, 58, 46
3, 16100, Note_on_c, 0, 53, 36
3, 16100, Control_c, 0, 64, 0
3, 16101, Note_on_c, 0, 59, 57
3, 16134, Control_c, 0, 64, 127
3, 16155, Note_on_c, 0, 59, 0
3, 16157, Note_on_c, 0, 63, 0
3, 16160, Note_on_c, 0, 58, 0
3, 16162, Note_on_c, 0, 53, 0
3, 16203, Note_on_c, 0, 79, 0
3, 16221, Note_on_c, 0, 43, 50
3, 16256, Note_on_c, 0, 43, 0
3, 16275, Note_on_c, 0, 77, 90
3, 16326, Note_on_c, 0, 77, 0
3, 16329, Note_on_c, 0, 75, 72
3, 16330, Note_on_c, 0, 56, 47
3, 16330, Note_on_c, 0, 55, 54
3, 16330, Note_on_c, 0, 65, 54
3, 16332, Note_on_c, 0, 60, 50
3, 16333, Control_c, 0, 64, 0
3, 16365, Control_c, 0, 64, 127
3, 16368, Note_on_c, 0, 60, 0
3, 16368, Note_on_c, 0, 65, 0
3, 16374, Note_on_c, 0, 55, 0
3, 16379, Note_on_c, 0, 56, 0
3, 16389, Note_on_c, 0, 72, 47
3, 16399, Note_on_c, 0, 75, 0
3, 16428, Note_on_c, 0, 72, 0
3, 16443, Note_on_c, 0, 43, 45
3, 16444, Note_on_c, 0, 72, 42
3, 16457, Note_on_c, 0, 72, 0
3, 16461, Note_on_c, 0, 43, 0
3, 16504, Note_on_c, 0, 68, 70
3, 16550, Note_on_c, 0, 68, 0
3, 16555, Note_on_c, 0, 65, 46
3, 16555, Note_on_c, 0, 56, 34
3, 16557, Note_on_c, 0, 67, 66
3, 16557, Note_on_c, 0, 55, 40
3, 16557, Control_c, 0, 64, 0
3, 16558, Note_on_c, 0, 60, 42
3, 16586, Control_c, 0, 64, 127
3, 16599, Note_on_c, 0, 60, 0
3, 16600, Note_on_c, 0, 65, 0
3, 16606, Note_on_c, 0, 55, 0
3, 16612, Note_on_c, 0, 56, 0
3, 16679, Note_on_c, 0, 43, 51
3, 16683, Control_c, 0, 64, 0
3, 16706, Control_c, 0, 64, 127
3, 16729, Note_on_c, 0, 67, 0
3, 16756, Note_on_c, 0, 50, 20
3, 16798, Note_on_c, 0, 50, 0
3, 16803, Note_on_c, 0, 56, 34
3, 16804, Note_on_c, 0, 61, 39
3, 16804, Control_c, 0, 64, 0
3, 16805, Note_on_c, 0, 59, 49
3, 16806, Note_on_c, 0, 53, 34
3, 16853, Control_c, 0, 64, 127
3, 16860, Note_on_c, 0, 56, 0
3, 16863, Note_on_c, 0, 61, 0
3, 16865, Control_c, 0, 64, 0
3, 16868, Note_on_c, 0, 53, 0
3, 16868, Note_on_c, 0, 43, 0
3, 16868, Note_on_c, 0, 62, 76
3, 16871, Note_on_c, 0, 47, 34
3, 16883, Note_on_c, 0, 56, 1
3, 16884, Control_c, 0, 64, 127
3, 16906, Note_on_c, 0, 56, 0
3, 16914, Note_on_c, 0, 59, 0
3, 16916, Control_c, 0, 64, 0
3, 16922, Note_on_c, 0, 59, 22
3, 16923, Note_on_c, 0, 56, 59
3, 16924, Note_on_c, 0, 50, 67
3, 16924, Note_on_c, 0, 65, 66
3, 16926, Note_on_c, 0, 47, 0
3, 16932, Note_on_c, 0, 56, 0
3, 16933, Note_on_c, 0, 62, 0
3, 16934, Note_on_c, 0, 59, 0
3, 16938, Control_c, 0, 64, 127
3, 16940, Note_on_c, 0, 65, 0
3, 16978, Note_on_c, 0, 50, 0
3, 16981, Note_on_c, 0, 68, 69
3, 16982, Note_on_c, 0, 62, 70
3, 16984, Note_on_c, 0, 53, 51
3, 16986, Note_on_c, 0, 65, 33
3, 16987, Note_on_c, 0, 64, 32
3, 16992, Note_on_c, 0, 64, 0
3, 16992, Note_on_c, 0, 65, 0
3, 16994, Note_on_c, 0, 62, 0
3, 17003, Note_on_c, 0, 68, 0
3, 17043, Note_on_c, 0, 72, 25
3, 17045, Note_on_c, 0, 71, 32
3, 17046, Note_on_c, 0, 56, 48
3, 17047, Control_c, 0, 64, 0
3, 17047, Note_on_c, 0, 65, 32
3, 17051, Note_on_c, 0, 68, 29
3, 17053, Note_on_c, 0, 72, 0
3, 17053, Note_on_c, 0, 53, 0
3, 17078, Control_c, 0, 64, 127
3, 17102, Control_c, 0, 64, 0
3, 17104, Note_on_c, 0, 76, 66
3, 17106, Note_on_c, 0, 59, 57
3, 17109, Note_on_c, 0, 71, 0
3, 17111, Control_c, 0, 64, 127
3, 17123, Note_on_c, 0, 68, 0
3, 17126, Note_on_c, 0, 76, 0
3, 17128, Note_on_c, 0, 65, 0
3, 17162, Control_c, 0, 64, 0
3, 17165, Note_on_c, 0, 77, 57
3, 17165, Note_on_c, 0, 71, 44
3, 17165, Note_on_c, 0, 68, 50
3, 17166, Note_on_c, 0, 62, 55
3, 17168, Note_on_c, 0, 59, 0
3, 17191, Control_c, 0, 64, 127
3, 17226, Note_on_c, 0, 77, 0
3, 17227, Note_on_c, 0, 74, 64
3, 17228, Note_on_c, 0, 56, 0
3, 17229, Note_on_c, 0, 59, 44
3, 17230, Note_on_c, 0, 62, 0
3, 17238, Note_on_c, 0, 71, 0
3, 17250, Note_on_c, 0, 68, 0
3, 17270, Note_on_c, 0, 74, 0
3, 17282, Control_c, 0, 64, 0
3, 17283, Note_on_c, 0, 59, 0
3, 17285, Note_on_c, 0, 75, 61
3, 17287, Note_on_c, 0, 67, 58
3, 17288, Note_on_c, 0, 60, 41
3, 17303, Control_c, 0, 64, 127
3, 17311, Note_on_c, 0, 75, 0
3, 17329, Note_on_c, 0, 67, 0
3, 17346, Note_on_c, 0, 67, 80
3, 17394, Note_on_c, 0, 67, 0
3, 17403, Note_on_c, 0, 60, 0
3, 17406, Note_on_c, 0, 67, 71
3, 17452, Note_on_c, 0, 67, 0
3, 17462, Control_c, 0, 64, 0
3, 17463, Note_on_c, 0, 74, 75
3, 17463, Note_on_c, 0, 63, 60
3, 17464, Note_on_c, 0, 67, 71
3, 17465, Note_on_c, 0, 59, 46
3, 17491, Control_c, 0, 64, 127
3, 17506, Note_on_c, 0, 74, 0
3, 17508, Note_on_c, 0, 63, 0
3, 17508, Note_on_c, 0, 67, 0
3, 17523, Control_c, 0, 64, 0
3, 17526, Note_on_c, 0, 59, 0
3, 17526, Note_on_c, 0, 74, 75
3, 17527, Note_on_c, 0, 63, 57
3, 17527, Note_on_c, 0, 67, 73
3, 17528, Note_on_c, 0, 58, 49
3, 17553, Control_c, 0, 64, 127
3, 17581, Note_on_c, 0, 74, 0
3, 17590, Note_on_c, 0, 72, 49
3, 17621, Note_on_c, 0, 72, 0
3, 17631, Note_on_c, 0, 63, 0
3, 17631, Note_on_c, 0, 67, 0
3, 17649, Note_on_c, 0, 72, 45
3, 17649, Note_on_c, 0, 63, 48
3, 17669, Note_on_c, 0, 58, 0
3, 17708, Note_on_c, 0, 67, 51
3, 17711, Note_on_c, 0, 72, 0
3, 17720, Note_on_c, 0, 63, 0
3, 17724, Note_on_c, 0, 67, 0
3, 17768, Note_on_c, 0, 70, 44
3, 17769, Note_on_c, 0, 60, 38
3, 17770, Note_on_c, 0, 65, 39
3, 17771, Note_on_c, 0, 54, 32
3, 17773, Note_on_c, 0, 44, 38
3, 17776, Control_c, 0, 64, 0
3, 17807, Control_c, 0, 64, 127
3, 17819, Note_on_c, 0, 60, 0
3, 17825, Note_on_c, 0, 44, 0
3, 17825, Note_on_c, 0, 65, 0
3, 17830, Note_on_c, 0, 54, 0
3, 17839, Note_on_c, 0, 70, 0
3, 17895, Note_on_c, 0, 65, 36
3, 17895, Note_on_c, 0, 54, 31
3, 17896, Note_on_c, 0, 58, 37
3, 17897, Note_on_c, 0, 60, 40
3, 17956, Note_on_c, 0, 60, 0
3, 17960, Note_on_c, 0, 65, 0
3, 17973, Note_on_c, 0, 58, 0
3, 17973, Note_on_c, 0, 54, 0
3, 18018, Note_on_c, 0, 86, 80
3, 18018, Note_on_c, 0, 91, 77
3, 18019, Note_on_c, 0, 79, 75
3, 18020, Note_on_c, 0, 53, 70
3, 18020, Note_on_c, 0, 59, 73
3, 18020, Control_c, 0, 64, 0
3, 18021, Note_on_c, 0, 64, 73
3, 18022, Note_on_c, 0, 87, 48
3, 18026, Note_on_c, 0, 87, 0
3, 18054, Control_c, 0, 64, 127
3, 18086, Note_on_c, 0, 91, 0
3, 18087, Note_on_c, 0, 86, 0
3, 18091, Note_on_c, 0, 64, 0
3, 18092, Note_on_c, 0, 53, 0
3, 18093, Note_on_c, 0, 59, 0
3, 18095, Note_on_c, 0, 79, 0
3, 18137, Note_on_c, 0, 87, 50
3, 18138, Note_on_c, 0, 53, 56
3, 18138, Note_on_c, 0, 59, 58
3, 18138, Note_on_c, 0, 75, 52
3, 18139, Note_on_c, 0, 63, 56
3, 18139, Note_on_c, 0, 82, 55
3, 18142, Control_c, 0, 64, 0
3, 18168, Control_c, 0, 64, 127
3, 18177, Note_on_c, 0, 59, 0
3, 18193, Note_on_c, 0, 63, 0
3, 18195, Note_on_c, 0, 53, 0
3, 18198, Note_on_c, 0, 75, 0
3, 18199, Note_on_c, 0, 82, 0
3, 18199, Note_on_c, 0, 87, 0
3, 18257, Note_on_c, 0, 83, 40
3, 18257, Note_on_c, 0, 86, 55
3, 18258, Control_c, 0, 64, 0
3, 18258, Note_on_c, 0, 52, 36
3, 18258, Note_on_c, 0, 74, 41
3, 18258, Note_on_c, 0, 79, 44
3, 18258, Note_on_c, 0, 57, 50
3, 18259, Note_on_c, 0, 62, 33
3, 18283, Control_c, 0, 64, 127
3, 18284, Note_on_c, 0, 86, 0
3, 18288, Note_on_c, 0, 83, 0
3, 18290, Note_on_c, 0, 79, 0
3, 18298, Note_on_c, 0, 74, 0
3, 18319, Note_on_c, 0, 62, 0
3, 18322, Note_on_c, 0, 74, 69
3, 18333, Note_on_c, 0, 57, 0
3, 18360, Note_on_c, 0, 74, 0
3, 18381, Note_on_c, 0, 74, 58
3, 18382, Note_on_c, 0, 71, 53
3, 18382, Note_on_c, 0, 67, 57
3, 18383, Note_on_c, 0, 64, 51
3, 18385, Note_on_c, 0, 59, 40
3, 18414, Note_on_c, 0, 71, 0
3, 18416, Note_on_c, 0, 74, 0
3, 18433, Note_on_c, 0, 67, 0
3, 18434, Note_on_c, 0, 64, 0
3, 18441, Note_on_c, 0, 72, 69
3, 18446, Note_on_c, 0, 59, 0
3, 18467, Note_on_c, 0, 52, 0
3, 18474, Note_on_c, 0, 72, 0
3, 18499, Note_on_c, 0, 72, 50
3, 18500, Note_on_c, 0, 67, 66
3, 18501, Note_on_c, 0, 62, 55
3, 18557, Note_on_c, 0, 53, 75
3, 18572, Note_on_c, 0, 62, 0
3, 18610, Note_on_c, 0, 53, 0
3, 18614, Note_on_c, 0, 67, 0
3, 18616, Note_on_c, 0, 62, 74
3, 18619, Note_on_c, 0, 52, 84
3, 18623, Control_c, 0, 64, 0
3, 18659, Note_on_c, 0, 72, 0
3, 18671, Note_on_c, 0, 52, 0
3, 18672, Note_on_c, 0, 48, 62
3, 18673, Note_on_c, 0, 62, 0
3, 18673, Control_c, 0, 64, 127
3, 18730, Note_on_c, 0, 56, 54
3, 18732, Note_on_c, 0, 60, 60
3, 18734, Control_c, 0, 64, 0
3, 18736, Note_on_c, 0, 48, 0
3, 18792, Note_on_c, 0, 48, 52
3, 18821, Control_c, 0, 64, 127
3, 18828, Note_on_c, 0, 56, 0
3, 18852, Note_on_c, 0, 56, 42
3, 18901, Note_on_c, 0, 60, 0
3, 18902, Note_on_c, 0, 56, 0
3, 18910, Note_on_c, 0, 36, 37
3, 18968, Note_on_c, 0, 55, 46
3, 18969, Note_on_c, 0, 60, 41
3, 18969, Note_on_c, 0, 57, 42
3, 18976, Control_c, 0, 64, 0
3, 19018, Note_on_c, 0, 36, 0
3, 19027, Note_on_c, 0, 43, 57
3, 19035, Note_on_c, 0, 55, 0
3, 19041, Note_on_c, 0, 57, 0
3, 19052, Note_on_c, 0, 60, 0
3, 19052, Control_c, 0, 64, 127
3, 19088, Note_on_c, 0, 56, 38
3, 19088, Note_on_c, 0, 60, 47
3, 19089, Note_on_c, 0, 53, 43
3, 19102, Note_on_c, 0, 43, 0
3, 19105, Note_on_c, 0, 48, 0
3, 19135, Note_on_c, 0, 53, 0
3, 19140, Note_on_c, 0, 56, 0
3, 19142, Note_on_c, 0, 60, 0
3, 19205, Control_c, 0, 64, 0
3, 19208, Note_on_c, 0, 65, 48
3, 19208, Note_on_c, 0, 56, 37
3, 19208, Note_on_c, 0, 38, 46
3, 19210, Note_on_c, 0, 26, 45
3, 19211, Note_on_c, 0, 60, 44
3, 19211, Note_on_c, 0, 62, 38
3, 19234, Note_on_c, 0, 56, 0
3, 19235, Control_c, 0, 64, 127
3, 19236, Note_on_c, 0, 60, 0
3, 19237, Note_on_c, 0, 62, 0
3, 19238, Note_on_c, 0, 26, 0
3, 19239, Note_on_c, 0, 38, 0
3, 19242, Note_on_c, 0, 65, 0
3, 19328, Note_on_c, 0, 56, 69
3, 19329, Note_on_c, 0, 65, 79
3, 19330, Note_on_c, 0, 89, 84
3, 19330, Note_on_c, 0, 84, 84
3, 19330, Note_on_c, 0, 77, 81
3, 19330, Note_on_c, 0, 60, 66
3, 19331, Control_c, 0, 64, 0
3, 19354, Control_c, 0, 64, 127
3, 19391, Note_on_c, 0, 65, 0
3, 19394, Note_on_c, 0, 60, 0
3, 19402, Note_on_c, 0, 89, 0
3, 19403, Note_on_c, 0, 56, 0
3, 19403, Note_on_c, 0, 84, 0
3, 19408, Note_on_c, 0, 77, 0
3, 19454, Note_on_c, 0, 56, 37
3, 19454, Note_on_c, 0, 86, 57
3, 19454, Note_on_c, 0, 74, 48
3, 19455, Control_c, 0, 64, 0
3, 19456, Note_on_c, 0, 80, 40
3, 19456, Note_on_c, 0, 65, 36
3, 19458, Note_on_c, 0, 60, 35
3, 19479, Control_c, 0, 64, 127
3, 19482, Note_on_c, 0, 74, 0
3, 19489, Note_on_c, 0, 80, 0
3, 19497, Note_on_c, 0, 86, 0
3, 19529, Note_on_c, 0, 65, 0
3, 19530, Note_on_c, 0, 60, 0
3, 19575, Note_on_c, 0, 65, 42
3, 19577, Note_on_c, 0, 60, 41
3, 19615, Note_on_c, 0, 103, 80
3, 19627, Note_on_c, 0, 60, 0
3, 19639, Note_on_c, 0, 56, 0
3, 19645, Note_on_c, 0, 103, 0
3, 19648, Note_on_c, 0, 65, 0
3, 19653, Note_on_c, 0, 106, 69
3, 19656, Note_on_c, 0, 107, 80
3, 19675, Note_on_c, 0, 107, 0
3, 19689, Note_on_c, 0, 106, 0
3, 19696, Note_on_c, 0, 104, 65
3, 19697, Note_on_c, 0, 65, 54
3, 19698, Note_on_c, 0, 55, 46
3, 19699, Note_on_c, 0, 60, 53
3, 19701, Control_c, 0, 64, 0
3, 19738, Note_on_c, 0, 99, 62
3, 19741, Control_c, 0, 64, 127
3, 19747, Note_on_c, 0, 104, 0
3, 19776, Note_on_c, 0, 95, 37
3, 19779, Note_on_c, 0, 65, 0
3, 19780, Note_on_c, 0, 60, 0
3, 19785, Note_on_c, 0, 55, 0
3, 19823, Note_on_c, 0, 50, 50
3, 19826, Control_c, 0, 64, 0
3, 19846, Control_c, 0, 64, 127
3, 19870, Note_on_c, 0, 50, 0
3, 19903, Note_on_c, 0, 99, 0
3, 19928, Note_on_c, 0, 53, 45
3, 19929, Note_on_c, 0, 63, 47
3, 19930, Note_on_c, 0, 59, 52
3, 19934, Control_c, 0, 64, 0
3, 19967, Control_c, 0, 64, 127
3, 19987, Note_on_c, 0, 95, 0
3, 20000, Note_on_c, 0, 98, 83
3, 20015, Note_on_c, 0, 63, 0
3, 20017, Note_on_c, 0, 59, 0
3, 20025, Note_on_c, 0, 98, 0
3, 20033, Note_on_c, 0, 101, 84
3, 20047, Note_on_c, 0, 62, 59
3, 20048, Note_on_c, 0, 59, 37
3, 20049, Control_c, 0, 64, 0
3, 20061, Note_on_c, 0, 101, 0
3, 20069, Note_on_c, 0, 99, 75
3, 20077, Control_c, 0, 64, 127
3, 20092, Note_on_c, 0, 59, 0
3, 20097, Note_on_c, 0, 62, 0
3, 20098, Note_on_c, 0, 99, 0
3, 20103, Note_on_c, 0, 53, 0
3, 20116, Note_on_c, 0, 91, 55
3, 20170, Note_on_c, 0, 60, 34
3, 20170, Note_on_c, 0, 56, 25
3, 20171, Note_on_c, 0, 50, 29
3, 20171, Control_c, 0, 64, 0
3, 20201, Control_c, 0, 64, 127
3, 20214, Note_on_c, 0, 98, 74
3, 20221, Note_on_c, 0, 91, 0
3, 20240, Note_on_c, 0, 60, 0
3, 20244, Note_on_c, 0, 96, 62
3, 20249, Note_on_c, 0, 56, 0
3, 20260, Note_on_c, 0, 98, 0
3, 20263, Note_on_c, 0, 96, 0
3, 20285, Note_on_c, 0, 92, 59
3, 20291, Note_on_c, 0, 56, 26
3, 20291, Note_on_c, 0, 60, 34
3, 20294, Control_c, 0, 64, 0
3, 20313, Control_c, 0, 64, 127
3, 20320, Note_on_c, 0, 91, 33
3, 20346, Note_on_c, 0, 92, 0
3, 20349, Note_on_c, 0, 91, 0
3, 20352, Note_on_c, 0, 50, 0
3, 20354, Note_on_c, 0, 89, 51
3, 20356, Note_on_c, 0, 56, 0
3, 20362, Note_on_c, 0, 60, 0
3, 20376, Note_on_c, 0, 89, 0
3, 20405, Note_on_c, 0, 65, 49
3, 20406, Note_on_c, 0, 56, 30
3, 20407, Note_on_c, 0, 60, 41
3, 20491, Note_on_c, 0, 65, 0
3, 20492, Note_on_c, 0, 60, 0
3, 20530, Note_on_c, 0, 65, 48
3, 20534, Note_on_c, 0, 60, 30
3, 20581, Note_on_c, 0, 60, 0
3, 20592, Note_on_c, 0, 65, 0
3, 20593, Note_on_c, 0, 79, 55
3, 20599, Note_on_c, 0, 56, 0
3, 20608, Note_on_c, 0, 79, 0
3, 20620, Note_on_c, 0, 80, 77
3, 20641, Note_on_c, 0, 80, 0
3, 20651, Note_on_c, 0, 59, 40
3, 20652, Note_on_c, 0, 82, 71
3, 20652, Note_on_c, 0, 64, 30
3, 20654, Note_on_c, 0, 53, 31
3, 20655, Control_c, 0, 64, 0
3, 20672, Note_on_c, 0, 82, 0
3, 20674, Note_on_c, 0, 83, 60
3, 20698, Note_on_c, 0, 83, 0
3, 20698, Control_c, 0, 64, 127
3, 20698, Note_on_c, 0, 82, 54
3, 20701, Note_on_c, 0, 64, 0
3, 20703, Note_on_c, 0, 59, 0
3, 20711, Note_on_c, 0, 53, 0
3, 20718, Note_on_c, 0, 82, 0
3, 20724, Note_on_c, 0, 80, 54
3, 20774, Note_on_c, 0, 43, 36
3, 20801, Note_on_c, 0, 43, 0
3, 20806, Note_on_c, 0, 80, 0
3, 20828, Note_on_c, 0, 79, 62
3, 20885, Note_on_c, 0, 79, 0
3, 20885, Note_on_c, 0, 75, 52
3, 20888, Note_on_c, 0, 63, 23
3, 20888, Note_on_c, 0, 71, 46
3, 20890, Note_on_c, 0, 53, 30
3, 20891, Note_on_c, 0, 59, 35
3, 20893, Control_c, 0, 64, 0
3, 20913, Control_c, 0, 64, 127
3, 20924, Note_on_c, 0, 59, 0
3, 20926, Note_on_c, 0, 63, 0
3, 20929, Note_on_c, 0, 53, 0
3, 20979, Note_on_c, 0, 75, 0
3, 20980, Note_on_c, 0, 71, 0
3, 21010, Note_on_c, 0, 43, 40
3, 21011, Note_on_c, 0, 53, 33
3, 21031, Note_on_c, 0, 43, 0
3, 21044, Note_on_c, 0, 53, 0
3, 21069, Note_on_c, 0, 71, 51
3, 21090, Note_on_c, 0, 71, 0
3, 21129, Note_on_c, 0, 71, 54
3, 21129, Note_on_c, 0, 68, 42
3, 21130, Control_c, 0, 64, 0
3, 21130, Note_on_c, 0, 59, 48
3, 21131, Note_on_c, 0, 77, 49
3, 21167, Control_c, 0, 64, 127
3, 21178, Note_on_c, 0, 77, 0
3, 21190, Note_on_c, 0, 59, 0
3, 21190, Note_on_c, 0, 75, 64
3, 21192, Note_on_c, 0, 60, 51
3, 21199, Note_on_c, 0, 71, 0
3, 21218, Note_on_c, 0, 68, 0
3, 21231, Note_on_c, 0, 75, 0
3, 21247, Note_on_c, 0, 60, 0
3, 21250, Note_on_c, 0, 67, 58
3, 21295, Note_on_c, 0, 67, 0
3, 21303, Note_on_c, 0, 74, 75
3, 21346, Note_on_c, 0, 74, 0
3, 21362, Note_on_c, 0, 72, 40
3, 21362, Control_c, 0, 64, 0
3, 21362, Note_on_c, 0, 63, 37
3, 21363, Note_on_c, 0, 67, 50
3, 21368, Note_on_c, 0, 55, 22
3, 21395, Note_on_c, 0, 67, 0
3, 21404, Control_c, 0, 64, 127
3, 21409, Note_on_c, 0, 63, 0
3, 21419, Note_on_c, 0, 67, 50
3, 21424, Note_on_c, 0, 55, 0
3, 21424, Note_on_c, 0, 57, 44
3, 21431, Note_on_c, 0, 72, 0
3, 21482, Note_on_c, 0, 57, 0
3, 21483, Note_on_c, 0, 63, 49
3, 21504, Note_on_c, 0, 67, 0
3, 21506, Note_on_c, 0, 63, 0
3, 21604, Note_on_c, 0, 38, 20
3, 21605, Note_on_c, 0, 62, 44
3, 21606, Note_on_c, 0, 53, 37
3, 21606, Note_on_c, 0, 26, 35
3, 21607, Control_c, 0, 64, 0
3, 21625, Note_on_c, 0, 53, 0
3, 21629, Control_c, 0, 64, 127
3, 21630, Note_on_c, 0, 62, 0
3, 21645, Note_on_c, 0, 26, 0
3, 21651, Note_on_c, 0, 38, 0
3, 21735, Note_on_c, 0, 86, 79
3, 21736, Note_on_c, 0, 65, 50
3, 21737, Note_on_c, 0, 74, 64
3, 21738, Note_on_c, 0, 60, 36
3, 21738, Note_on_c, 0, 54, 31
3, 21766, Note_on_c, 0, 65, 0
3, 21772, Note_on_c, 0, 60, 0
3, 21783, Note_on_c, 0, 54, 0
3, 21787, Note_on_c, 0, 86, 0
3, 21801, Note_on_c, 0, 86, 80
3, 21832, Note_on_c, 0, 86, 0
3, 21836, Note_on_c, 0, 74, 0
3, 21858, Note_on_c, 0, 86, 82
3, 21858, Note_on_c, 0, 44, 68
3, 21860, Note_on_c, 0, 74, 61
3, 21862, Control_c, 0, 64, 0
3, 21887, Control_c, 0, 64, 127
3, 21903, Note_on_c, 0, 44, 0
3, 21907, Note_on_c, 0, 86, 0
3, 21920, Note_on_c, 0, 86, 66
3, 21954, Note_on_c, 0, 86, 0
3, 21960, Note_on_c, 0, 74, 0
3, 21974, Note_on_c, 0, 54, 30
3, 21978, Note_on_c, 0, 86, 49
3, 21979, Note_on_c, 0, 60, 36
3, 21979, Note_on_c, 0, 65, 26
3, 21981, Note_on_c, 0, 74, 33
3, 22009, Note_on_c, 0, 86, 0
3, 22014, Note_on_c, 0, 65, 0
3, 22018, Note_on_c, 0, 60, 0
3, 22023, Note_on_c, 0, 74, 0
3, 22042, Note_on_c, 0, 54, 0
3, 22042, Note_on_c, 0, 86, 70
3, 22067, Note_on_c, 0, 86, 0
3, 22089, Note_on_c, 0, 81, 31
3, 22092, Note_on_c, 0, 53, 34
3, 22092, Control_c, 0, 64, 0
3, 22092, Note_on_c, 0, 82, 51
3, 22092, Note_on_c, 0, 86, 22
3, 22093, Note_on_c, 0, 64, 25
3, 22095, Note_on_c, 0, 59, 22
3, 22102, Note_on_c, 0, 82, 0
3, 22102, Note_on_c, 0, 81, 0
3, 22105, Note_on_c, 0, 83, 39
3, 22121, Note_on_c, 0, 86, 0
3, 22129, Note_on_c, 0, 83, 0
3, 22133, Note_on_c, 0, 79, 31
3, 22144, Note_on_c, 0, 79, 0
3, 22151, Note_on_c, 0, 86, 61
3, 22154, Note_on_c, 0, 81, 37
3, 22198, Note_on_c, 0, 81, 0
3, 22201, Control_c, 0, 64, 127
3, 22206, Note_on_c, 0, 86, 0
3, 22218, Control_c, 0, 64, 0
3, 22223, Note_on_c, 0, 86, 57
3, 22224, Note_on_c, 0, 79, 57
3, 22247, Control_c, 0, 64, 127
3, 22295, Note_on_c, 0, 59, 0
3, 22299, Note_on_c, 0, 53, 0
3, 22301, Note_on_c, 0, 64, 0
3, 22336, Control_c, 0, 64, 0
3, 22336, Note_on_c, 0, 54, 42
3, 22338, Note_on_c, 0, 65, 46
3, 22338, Note_on_c, 0, 60, 42
3, 22365, Control_c, 0, 64, 127
3, 22379, Note_on_c, 0, 79, 0
3, 22383, Note_on_c, 0, 86, 0
3, 22433, Note_on_c, 0, 65, 0
3, 22441, Note_on_c, 0, 60, 0
3, 22452, Note_on_c, 0, 94, 70
3, 22452, Note_on_c, 0, 65, 47
3, 22453, Note_on_c, 0, 101, 66
3, 22453, Note_on_c, 0, 60, 36
3, 22495, Note_on_c, 0, 54, 0
3, 22516, Note_on_c, 0, 89, 30
3, 22516, Note_on_c, 0, 54, 42
3, 22527, Note_on_c, 0, 65, 0
3, 22536, Note_on_c, 0, 60, 0
3, 22547, Note_on_c, 0, 54, 0
3, 22555, Note_on_c, 0, 89, 0
3, 22565, Note_on_c, 0, 94, 0
3, 22568, Note_on_c, 0, 101, 0
3, 22578, Control_c, 0, 64, 0
3, 22578, Note_on_c, 0, 53, 33
3, 22578, Note_on_c, 0, 89, 29
3, 22579, Note_on_c, 0, 95, 26
3, 22580, Note_on_c, 0, 59, 40
3, 22580, Note_on_c, 0, 64, 34
3, 22598, Control_c, 0, 64, 127
3, 22608, Note_on_c, 0, 64, 0
3, 22611, Note_on_c, 0, 59, 0
3, 22617, Note_on_c, 0, 53, 0
3, 22655, Note_on_c, 0, 95, 0
3, 22667, Note_on_c, 0, 89, 0
3, 22692, Note_on_c, 0, 31, 75
3, 22722, Note_on_c, 0, 31, 0
3, 22814, Note_on_c, 0, 59, 68
3, 22815, Note_on_c, 0, 77, 74
3, 22815, Note_on_c, 0, 71, 76
3, 22815, Note_on_c, 0, 68, 75
3, 22816, Note_on_c, 0, 74, 66
3, 22820, Control_c, 0, 64, 0
3, 22851, Control_c, 0, 64, 127
3, 22911, Note_on_c, 0, 74, 0
3, 22912, Note_on_c, 0, 68, 0
3, 22923, Note_on_c, 0, 77, 0
3, 22934, Note_on_c, 0, 75, 60
3, 22935, Note_on_c, 0, 68, 45
3, 22937, Note_on_c, 0, 62, 49
3, 22939, Control_c, 0, 64, 0
3, 22943, Note_on_c, 0, 59, 0
3, 22957, Control_c, 0, 64, 127
3, 22993, Note_on_c, 0, 71, 0
3, 22994, Note_on_c, 0, 62, 0
3, 22994, Note_on_c, 0, 74, 62
3, 22996, Note_on_c, 0, 75, 0
3, 22996, Note_on_c, 0, 59, 46
3, 23010, Note_on_c, 0, 68, 0
3, 23030, Note_on_c, 0, 74, 0
3, 23042, Note_on_c, 0, 59, 0
3, 23049, Control_c, 0, 64, 0
3, 23050, Note_on_c, 0, 75, 47
3, 23053, Note_on_c, 0, 67, 43
3, 23053, Note_on_c, 0, 72, 30
3, 23054, Note_on_c, 0, 60, 37
3, 23073, Control_c, 0, 64, 127
3, 23078, Note_on_c, 0, 67, 0
3, 23089, Note_on_c, 0, 72, 0
3, 23096, Note_on_c, 0, 60, 0
3, 23097, Note_on_c, 0, 75, 0
3, 23170, Note_on_c, 0, 63, 28
3, 23175, Note_on_c, 0, 60, 34
3, 23213, Note_on_c, 0, 63, 0
3, 23223, Note_on_c, 0, 60, 0
3, 23248, Note_on_c, 0, 99, 83
3, 23271, Note_on_c, 0, 99, 0
3, 23297, Control_c, 0, 64, 0
3, 23299, Note_on_c, 0, 54, 36
3, 23299, Note_on_c, 0, 50, 44
3, 23300, Note_on_c, 0, 98, 84
3, 23300, Note_on_c, 0, 60, 47
3, 23332, Control_c, 0, 64, 127
3, 23334, Note_on_c, 0, 98, 0
3, 23337, Note_on_c, 0, 99, 55
3, 23348, Note_on_c, 0, 98, 61
3, 23351, Note_on_c, 0, 50, 0
3, 23355, Note_on_c, 0, 99, 0
3, 23359, Note_on_c, 0, 54, 0
3, 23363, Note_on_c, 0, 60, 0
3, 23366, Note_on_c, 0, 98, 0
3, 23368, Note_on_c, 0, 96, 50
3, 23404, Note_on_c, 0, 96, 0
3, 23424, Note_on_c, 0, 94, 60
3, 23424, Note_on_c, 0, 54, 34
3, 23425, Note_on_c, 0, 64, 40
3, 23427, Note_on_c, 0, 60, 38
3, 23427, Control_c, 0, 64, 0
3, 23464, Note_on_c, 0, 94, 0
3, 23469, Note_on_c, 0, 93, 62
3, 23470, Control_c, 0, 64, 127
3, 23476, Note_on_c, 0, 60, 0
3, 23482, Note_on_c, 0, 64, 0
3, 23493, Note_on_c, 0, 93, 0
3, 23494, Note_on_c, 0, 54, 0
3, 23499, Note_on_c, 0, 96, 55
3, 23515, Note_on_c, 0, 96, 0
3, 23524, Note_on_c, 0, 97, 74
3, 23538, Note_on_c, 0, 62, 35
3, 23538, Note_on_c, 0, 55, 29
3, 23540, Note_on_c, 0, 57, 41
3, 23541, Note_on_c, 0, 58, 33
3, 23541, Control_c, 0, 64, 0
3, 23545, Note_on_c, 0, 97, 0
3, 23552, Note_on_c, 0, 98, 62
3, 23574, Note_on_c, 0, 98, 0
3, 23586, Note_on_c, 0, 98, 62
3, 23599, Note_on_c, 0, 98, 0
3, 23617, Note_on_c, 0, 57, 0
3, 23617, Note_on_c, 0, 98, 68
3, 23625, Control_c, 0, 64, 127
3, 23629, Note_on_c, 0, 98, 0
3, 23630, Note_on_c, 0, 62, 0
3, 23640, Note_on_c, 0, 58, 0
3, 23641, Note_on_c, 0, 98, 58
3, 23646, Note_on_c, 0, 55, 0
3, 23656, Note_on_c, 0, 98, 0
3, 23660, Control_c, 0, 64, 0
3, 23662, Note_on_c, 0, 54, 33
3, 23665, Note_on_c, 0, 62, 40
3, 23665, Note_on_c, 0, 58, 25
3, 23669, Note_on_c, 0, 98, 54
3, 23688, Note_on_c, 0, 98, 0
3, 23702, Note_on_c, 0, 98, 60
3, 23704, Control_c, 0, 64, 127
3, 23713, Note_on_c, 0, 98, 0
3, 23726, Note_on_c, 0, 98, 47
3, 23738, Note_on_c, 0, 98, 0
3, 23751, Note_on_c, 0, 62, 0
3, 23752, Note_on_c, 0, 98, 45
3, 23764, Note_on_c, 0, 58, 0
3, 23764, Note_on_c, 0, 54, 0
3, 23766, Note_on_c, 0, 98, 0
3, 23777, Note_on_c, 0, 98, 48
3, 23778, Control_c, 0, 64, 0
3, 23778, Note_on_c, 0, 53, 38
3, 23778, Note_on_c, 0, 58, 25
3, 23778, Note_on_c, 0, 62, 38
3, 23806, Control_c, 0, 64, 127
3, 23817, Note_on_c, 0, 62, 0
3, 23821, Note_on_c, 0, 53, 0
3, 23825, Note_on_c, 0, 58, 0
3, 23885, Note_on_c, 0, 50, 42
3, 23897, Note_on_c, 0, 50, 0
3, 23934, Note_on_c, 0, 98, 0
3, 24003, Note_on_c, 0, 53, 43
3, 24003, Note_on_c, 0, 61, 34
3, 24004, Note_on_c, 0, 108, 91
3, 24004, Note_on_c, 0, 55, 44
3, 24005, Note_on_c, 0, 107, 89
3, 24006, Note_on_c, 0, 58, 45
3, 24007, Control_c, 0, 64, 0
3, 24009, Note_on_c, 0, 107, 0
3, 24041, Control_c, 0, 64, 127
3, 24043, Note_on_c, 0, 108, 0
3, 24052, Note_on_c, 0, 106, 75
3, 24079, Note_on_c, 0, 102, 72
3, 24086, Note_on_c, 0, 55, 0
3, 24086, Note_on_c, 0, 61, 0
3, 24097, Note_on_c, 0, 58, 0
3, 24097, Note_on_c, 0, 106, 0
3, 24099, Note_on_c, 0, 102, 0
3, 24103, Note_on_c, 0, 101, 70
3, 24117, Note_on_c, 0, 101, 0
3, 24129, Note_on_c, 0, 99, 73
3, 24129, Note_on_c, 0, 61, 40
3, 24131, Note_on_c, 0, 55, 24
3, 24132, Note_on_c, 0, 58, 37
3, 24137, Control_c, 0, 64, 0
3, 24146, Note_on_c, 0, 99, 0
3, 24157, Note_on_c, 0, 100, 74
3, 24176, Note_on_c, 0, 100, 0
3, 24181, Note_on_c, 0, 97, 67
3, 24186, Note_on_c, 0, 55, 0
3, 24187, Control_c, 0, 64, 127
3, 24188, Note_on_c, 0, 61, 0
3, 24192, Note_on_c, 0, 53, 0
3, 24200, Note_on_c, 0, 97, 0
3, 24201, Note_on_c, 0, 96, 60
3, 24209, Note_on_c, 0, 96, 0
3, 24209, Note_on_c, 0, 58, 0
3, 24222, Note_on_c, 0, 94, 60
3, 24245, Note_on_c, 0, 90, 60
3, 24247, Note_on_c, 0, 94, 0
3, 24248, Note_on_c, 0, 63, 43
3, 24251, Note_on_c, 0, 58, 37
3, 24253, Control_c, 0, 64, 0
3, 24254, Note_on_c, 0, 52, 31
3, 24262, Note_on_c, 0, 90, 0
3, 24269, Note_on_c, 0, 88, 41
3, 24282, Note_on_c, 0, 88, 0
3, 24290, Note_on_c, 0, 87, 54
3, 24307, Note_on_c, 0, 87, 0
3, 24307, Note_on_c, 0, 85, 42
3, 24312, Note_on_c, 0, 63, 0
3, 24313, Note_on_c, 0, 85, 0
3, 24335, Note_on_c, 0, 58, 0
3, 24338, Note_on_c, 0, 82, 38
3, 24350, Note_on_c, 0, 80, 45
3, 24357, Note_on_c, 0, 82, 0
3, 24364, Note_on_c, 0, 78, 54
3, 24366, Note_on_c, 0, 80, 0
3, 24372, Control_c, 0, 64, 127
3, 24374, Note_on_c, 0, 78, 0
3, 24378, Note_on_c, 0, 63, 23
3, 24380, Note_on_c, 0, 76, 47
3, 24380, Control_c, 0, 64, 0
3, 24381, Note_on_c, 0, 58, 27
3, 24390, Note_on_c, 0, 76, 0
3, 24391, Note_on_c, 0, 75, 49
3, 24401, Note_on_c, 0, 75, 0
3, 24404, Note_on_c, 0, 74, 48
3, 24419, Note_on_c, 0, 74, 0
3, 24421, Note_on_c, 0, 73, 45
3, 24430, Control_c, 0, 64, 127
3, 24434, Note_on_c, 0, 63, 0
3, 24435, Note_on_c, 0, 52, 0
3, 24435, Note_on_c, 0, 73, 0
3, 24436, Note_on_c, 0, 72, 34
3, 24441, Note_on_c, 0, 58, 0
3, 24443, Note_on_c, 0, 72, 0
3, 24450, Note_on_c, 0, 70, 40
3, 24464, Note_on_c, 0, 70, 0
3, 24469, Note_on_c, 0, 69, 40
3, 24478, Note_on_c, 0, 69, 0
3, 24488, Note_on_c, 0, 67, 47
3, 24503, Note_on_c, 0, 67, 0
3, 24506, Control_c, 0, 64, 0
3, 24506, Note_on_c, 0, 60, 40
3, 24506, Note_on_c, 0, 56, 30
3, 24507, Note_on_c, 0, 68, 46
3, 24508, Note_on_c, 0, 53, 36
3, 24568, Note_on_c, 0, 67, 60
3, 24573, Note_on_c, 0, 68, 0
3, 24583, Note_on_c, 0, 67, 0
3, 24587, Note_on_c, 0, 65, 40
3, 24600, Note_on_c, 0, 60, 0
3, 24601, Note_on_c, 0, 65, 0
3, 24606, Note_on_c, 0, 67, 49
3, 24622, Note_on_c, 0, 67, 0
3, 24625, Note_on_c, 0, 68, 55
3, 24635, Note_on_c, 0, 68, 0
3, 24641, Note_on_c, 0, 60, 33
3, 24646, Note_on_c, 0, 72, 40
3, 24662, Note_on_c, 0, 72, 0
3, 24662, Note_on_c, 0, 75, 35
3, 24679, Note_on_c, 0, 75, 0
3, 24681, Note_on_c, 0, 76, 59
3, 24692, Note_on_c, 0, 76, 0
3, 24695, Note_on_c, 0, 79, 78
3, 24715, Note_on_c, 0, 79, 0
3, 24719, Note_on_c, 0, 76, 59
3, 24726, Note_on_c, 0, 76, 0
3, 24727, Note_on_c, 0, 56, 0
3, 24728, Note_on_c, 0, 77, 60
3, 24733, Note_on_c, 0, 60, 0
3, 24737, Control_c, 0, 64, 127
3, 24738, Note_on_c, 0, 53, 0
3, 24748, Note_on_c, 0, 72, 49
3, 24749, Note_on_c, 0, 77, 0
3, 24764, Note_on_c, 0, 72, 0
3, 24764, Control_c, 0, 64, 0
3, 24765, Note_on_c, 0, 68, 44
3, 24784, Note_on_c, 0, 68, 0
3, 24785, Note_on_c, 0, 67, 57
3, 24835, Control_c, 0, 64, 127
3, 24859, Control_c, 0, 64, 0
3, 24861, Note_on_c, 0, 51, 47
3, 24862, Note_on_c, 0, 60, 44
3, 24863, Note_on_c, 0, 56, 35
3, 24874, Control_c, 0, 64, 127
3, 24912, Note_on_c, 0, 56, 0
3, 24915, Note_on_c, 0, 60, 0
3, 24929, Note_on_c, 0, 51, 0
3, 24948, Note_on_c, 0, 67, 0
3, 24977, Note_on_c, 0, 50, 31
3, 24977, Note_on_c, 0, 68, 32
3, 24978, Note_on_c, 0, 65, 47
3, 24979, Note_on_c, 0, 56, 32
3, 24980, Note_on_c, 0, 60, 34
3, 24982, Control_c, 0, 64, 0
3, 25009, Control_c, 0, 64, 127
3, 25015, Note_on_c, 0, 65, 0
3, 25021, Note_on_c, 0, 68, 0
3, 25030, Note_on_c, 0, 60, 0
3, 25052, Note_on_c, 0, 56, 0
3, 25098, Note_on_c, 0, 60, 44
3, 25098, Note_on_c, 0, 56, 31
3, 25154, Note_on_c, 0, 50, 0
3, 25155, Note_on_c, 0, 60, 0
3, 25161, Note_on_c, 0, 56, 0
3, 25162, Note_on_c, 0, 80, 75
3, 25164, Note_on_c, 0, 68, 78
3, 25195, Note_on_c, 0, 68, 0
3, 25198, Note_on_c, 0, 80, 0
3, 25219, Note_on_c, 0, 79, 60
3, 25219, Control_c, 0, 64, 0
3, 25219, Note_on_c, 0, 71, 65
3, 25219, Note_on_c, 0, 63, 53
3, 25220, Note_on_c, 0, 67, 60
3, 25221, Note_on_c, 0, 75, 52
3, 25221, Note_on_c, 0, 59, 48
3, 25221, Note_on_c, 0, 53, 40
3, 25253, Control_c, 0, 64, 127
3, 25264, Note_on_c, 0, 79, 0
3, 25274, Note_on_c, 0, 75, 0
3, 25274, Note_on_c, 0, 67, 0
3, 25276, Note_on_c, 0, 59, 0
3, 25278, Note_on_c, 0, 63, 0
3, 25280, Note_on_c, 0, 77, 69
3, 25283, Note_on_c, 0, 67, 50
3, 25283, Note_on_c, 0, 62, 65
3, 25304, Note_on_c, 0, 53, 0
3, 25326, Note_on_c, 0, 67, 0
3, 25330, Note_on_c, 0, 77, 0
3, 25337, Control_c, 0, 64, 0
3, 25338, Note_on_c, 0, 67, 57
3, 25338, Note_on_c, 0, 75, 64
3, 25343, Note_on_c, 0, 59, 39
3, 25344, Note_on_c, 0, 62, 0
3, 25367, Control_c, 0, 64, 127
3, 25372, Note_on_c, 0, 59, 0
3, 25384, Note_on_c, 0, 67, 0
3, 25395, Note_on_c, 0, 67, 55
3, 25396, Note_on_c, 0, 55, 39
3, 25396, Note_on_c, 0, 74, 69
3, 25409, Note_on_c, 0, 71, 0
3, 25414, Note_on_c, 0, 74, 0
3, 25418, Note_on_c, 0, 55, 0
3, 25424, Note_on_c, 0, 67, 0
3, 25433, Note_on_c, 0, 75, 0
3, 25455, Note_on_c, 0, 70, 71
3, 25455, Note_on_c, 0, 77, 64
3, 25455, Note_on_c, 0, 67, 71
3, 25456, Control_c, 0, 64, 0
3, 25457, Note_on_c, 0, 60, 25
3, 25509, Note_on_c, 0, 67, 0
3, 25511, Note_on_c, 0, 77, 0
3, 25515, Note_on_c, 0, 75, 57
3, 25515, Note_on_c, 0, 67, 26
3, 25517, Note_on_c, 0, 60, 0
3, 25518, Note_on_c, 0, 59, 54
3, 25531, Control_c, 0, 64, 127
3, 25555, Note_on_c, 0, 67, 0
3, 25566, Control_c, 0, 64, 0
3, 25568, Note_on_c, 0, 59, 0
3, 25568, Note_on_c, 0, 75, 0
3, 25570, Note_on_c, 0, 74, 59
3, 25571, Note_on_c, 0, 58, 57
3, 25571, Note_on_c, 0, 67, 51
3, 25596, Control_c, 0, 64, 127
3, 25604, Note_on_c, 0, 74, 0
3, 25623, Note_on_c, 0, 67, 0
3, 25626, Note_on_c, 0, 75, 65
3, 25633, Note_on_c, 0, 58, 0
3, 25640, Note_on_c, 0, 70, 0
3, 25677, Control_c, 0, 64, 0
3, 25685, Note_on_c, 0, 78, 39
3, 25685, Note_on_c, 0, 54, 33
3, 25686, Note_on_c, 0, 66, 32
3, 25689, Note_on_c, 0, 60, 18
3, 25704, Control_c, 0, 64, 127
3, 25726, Note_on_c, 0, 66, 0
3, 25727, Note_on_c, 0, 78, 0
3, 25728, Note_on_c, 0, 75, 0
3, 25728, Note_on_c, 0, 54, 0
3, 25729, Note_on_c, 0, 60, 0
3, 25746, Note_on_c, 0, 67, 51
3, 25747, Note_on_c, 0, 79, 49
3, 25751, Note_on_c, 0, 67, 0
3, 25759, Note_on_c, 0, 79, 0
3, 25800, Note_on_c, 0, 86, 67
3, 25801, Note_on_c, 0, 63, 37
3, 25801, Control_c, 0, 64, 0
3, 25802, Note_on_c, 0, 55, 47
3, 25803, Note_on_c, 0, 74, 40
3, 25807, Note_on_c, 0, 60, 24
3, 25807, Note_on_c, 0, 57, 35
3, 25826, Control_c, 0, 64, 127
3, 25856, Note_on_c, 0, 60, 0
3, 25858, Note_on_c, 0, 55, 0
3, 25860, Note_on_c, 0, 57, 0
3, 25862, Note_on_c, 0, 86, 0
3, 25867, Note_on_c, 0, 63, 0
3, 25867, Note_on_c, 0, 84, 52
3, 25874, Note_on_c, 0, 74, 0
3, 25883, Note_on_c, 0, 84, 0
3, 25926, Note_on_c, 0, 87, 57
3, 25926, Note_on_c, 0, 75, 48
3, 25927, Note_on_c, 0, 54, 36
3, 25928, Note_on_c, 0, 60, 39
3, 25928, Note_on_c, 0, 63, 36
3, 25931, Control_c, 0, 64, 0
3, 25963, Control_c, 0, 64, 127
3, 25965, Note_on_c, 0, 63, 0
3, 25966, Note_on_c, 0, 60, 0
3, 25974, Note_on_c, 0, 54, 0
3, 26047, Note_on_c, 0, 38, 46
3, 26065, Note_on_c, 0, 38, 0
3, 26165, Note_on_c, 0, 55, 70
3, 26165, Note_on_c, 0, 61, 65
3, 26166, Control_c, 0, 64, 0
3, 26166, Note_on_c, 0, 66, 70
3, 26198, Control_c, 0, 64, 127
3, 26233, Note_on_c, 0, 66, 0
3, 26236, Note_on_c, 0, 55, 0
3, 26261, Note_on_c, 0, 61, 0
3, 26263, Note_on_c, 0, 75, 0
3, 26264, Note_on_c, 0, 87, 0
3, 26290, Note_on_c, 0, 54, 56
3, 26290, Note_on_c, 0, 60, 62
3, 26290, Control_c, 0, 64, 0
3, 26291, Note_on_c, 0, 87, 78
3, 26291, Note_on_c, 0, 64, 60
3, 26291, Note_on_c, 0, 75, 74
3, 26292, Note_on_c, 0, 81, 69
3, 26321, Control_c, 0, 64, 127
3, 26360, Note_on_c, 0, 81, 0
3, 26360, Note_on_c, 0, 87, 0
3, 26364, Note_on_c, 0, 60, 0
3, 26365, Note_on_c, 0, 75, 0
3, 26367, Note_on_c, 0, 54, 0
3, 26368, Note_on_c, 0, 64, 0
3, 26414, Note_on_c, 0, 77, 64
3, 26414, Note_on_c, 0, 79, 60
3, 26414, Note_on_c, 0, 69, 69
3, 26415, Note_on_c, 0, 55, 45
3, 26416, Note_on_c, 0, 72, 51
3, 26416, Note_on_c, 0, 65, 57
3, 26417, Note_on_c, 0, 57, 54
3, 26418, Note_on_c, 0, 60, 48
3, 26419, Control_c, 0, 64, 0
3, 26457, Control_c, 0, 64, 127
3, 26468, Note_on_c, 0, 60, 0
3, 26468, Note_on_c, 0, 65, 0
3, 26476, Note_on_c, 0, 55, 0
3, 26476, Note_on_c, 0, 57, 0
3, 26490, Note_on_c, 0, 79, 0
3, 26492, Note_on_c, 0, 72, 0
3, 26494, Note_on_c, 0, 77, 0
3, 26499, Note_on_c, 0, 69, 0
3, 26534, Note_on_c, 0, 43, 49
3, 26651, Note_on_c, 0, 56, 26
3, 26653, Note_on_c, 0, 62, 44
3, 26654, Note_on_c, 0, 59, 43
3, 26655, Note_on_c, 0, 53, 28
3, 26658, Control_c, 0, 64, 0
3, 26701, Control_c, 0, 64, 127
3, 26730, Note_on_c, 0, 43, 0
3, 26738, Note_on_c, 0, 56, 0
3, 26750, Note_on_c, 0, 59, 0
3, 26755, Note_on_c, 0, 62, 0
3, 26771, Note_on_c, 0, 43, 40
3, 26799, Note_on_c, 0, 43, 0
3, 26812, Note_on_c, 0, 53, 0
3, 26832, Note_on_c, 0, 79, 53
3, 26851, Note_on_c, 0, 79, 0
3, 26891, Note_on_c, 0, 77, 50
3, 26893, Note_on_c, 0, 56, 25
3, 26893, Note_on_c, 0, 65, 31
3, 26894, Note_on_c, 0, 72, 30
3, 26894, Note_on_c, 0, 50, 27
3, 26894, Note_on_c, 0, 60, 30
3, 26895, Control_c, 0, 64, 0
3, 26936, Control_c, 0, 64, 127
3, 26951, Note_on_c, 0, 72, 0
3, 26956, Note_on_c, 0, 65, 0
3, 26967, Note_on_c, 0, 77, 0
3, 26974, Note_on_c, 0, 60, 0
3, 27016, Note_on_c, 0, 74, 64
3, 27020, Note_on_c, 0, 68, 35
3, 27020, Note_on_c, 0, 67, 55
3, 27023, Note_on_c, 0, 50, 0
3, 27026, Note_on_c, 0, 56, 0
3, 27059, Note_on_c, 0, 74, 0
3, 27060, Note_on_c, 0, 67, 0
3, 27071, Note_on_c, 0, 68, 0
3, 27079, Note_on_c, 0, 74, 70
3, 27110, Note_on_c, 0, 74, 0
3, 27137, Note_on_c, 0, 74, 67
3, 27138, Note_on_c, 0, 72, 52
3, 27140, Note_on_c, 0, 56, 31
3, 27141, Note_on_c, 0, 63, 27
3, 27143, Control_c, 0, 64, 0
3, 27143, Note_on_c, 0, 68, 28
3, 27144, Note_on_c, 0, 67, 45
3, 27187, Control_c, 0, 64, 127
3, 27194, Note_on_c, 0, 63, 0
3, 27201, Note_on_c, 0, 60, 38
3, 27213, Note_on_c, 0, 60, 0
3, 27225, Note_on_c, 0, 67, 0
3, 27239, Note_on_c, 0, 68, 0
3, 27243, Note_on_c, 0, 56, 0
3, 27254, Note_on_c, 0, 72, 0
3, 27262, Note_on_c, 0, 69, 53
3, 27262, Note_on_c, 0, 65, 49
3, 27267, Note_on_c, 0, 62, 34
3, 27267, Control_c, 0, 64, 0
3, 27299, Control_c, 0, 64, 127
3, 27310, Note_on_c, 0, 62, 0
3, 27312, Note_on_c, 0, 74, 0
3, 27314, Note_on_c, 0, 69, 0
3, 27318, Note_on_c, 0, 59, 40
3, 27324, Note_on_c, 0, 59, 0
3, 27324, Note_on_c, 0, 65, 0
3, 27381, Control_c, 0, 64, 0
3, 27383, Note_on_c, 0, 59, 36
3, 27383, Note_on_c, 0, 62, 43
3, 27383, Note_on_c, 0, 53, 40
3, 27384, Note_on_c, 0, 65, 40
3, 27385, Note_on_c, 0, 43, 24
3, 27418, Control_c, 0, 64, 127
3, 27443, Note_on_c, 0, 65, 0
3, 27444, Note_on_c, 0, 62, 0
3, 27454, Note_on_c, 0, 59, 0
3, 27455, Note_on_c, 0, 53, 0
3, 27536, Note_on_c, 0, 63, 59
3, 27536, Note_on_c, 0, 56, 50
3, 27539, Note_on_c, 0, 51, 38
3, 27540, Note_on_c, 0, 59, 45
3, 27541, Control_c, 0, 64, 0
3, 27548, Note_on_c, 0, 59, 0
3, 27549, Note_on_c, 0, 56, 0
3, 27556, Note_on_c, 0, 51, 0
3, 27559, Note_on_c, 0, 56, 44
3, 27559, Note_on_c, 0, 65, 64
3, 27560, Note_on_c, 0, 59, 29
3, 27560, Note_on_c, 0, 53, 49
3, 27571, Note_on_c, 0, 65, 0
3, 27575, Note_on_c, 0, 59, 0
3, 27576, Note_on_c, 0, 56, 0
3, 27576, Note_on_c, 0, 53, 0
3, 27585, Note_on_c, 0, 51, 36
3, 27586, Note_on_c, 0, 63, 0
3, 27606, Note_on_c, 0, 51, 0
3, 27607, Note_on_c, 0, 59, 72
3, 27609, Note_on_c, 0, 55, 68
3, 27609, Note_on_c, 0, 56, 61
3, 27609, Note_on_c, 0, 67, 68
3, 27609, Note_on_c, 0, 62, 64
3, 27640, Note_on_c, 0, 67, 0
3, 27647, Note_on_c, 0, 55, 0
3, 27652, Note_on_c, 0, 56, 0
3, 27655, Note_on_c, 0, 59, 0
3, 27657, Note_on_c, 0, 62, 0
3, 27662, Note_on_c, 0, 56, 46
3, 27662, Note_on_c, 0, 59, 28
3, 27664, Note_on_c, 0, 53, 57
3, 27664, Note_on_c, 0, 62, 16
3, 27665, Note_on_c, 0, 65, 53
3, 27706, Note_on_c, 0, 59, 0
3, 27707, Note_on_c, 0, 56, 0
3, 27708, Note_on_c, 0, 65, 0
3, 27710, Note_on_c, 0, 62, 0
3, 27719, Note_on_c, 0, 53, 0
3, 27722, Note_on_c, 0, 51, 44
3, 27724, Note_on_c, 0, 56, 36
3, 27725, Note_on_c, 0, 63, 33
3, 27726, Note_on_c, 0, 59, 46
3, 27761, Note_on_c, 0, 56, 0
3, 27764, Note_on_c, 0, 51, 0
3, 27766, Control_c, 0, 64, 127
3, 27770, Note_on_c, 0, 43, 0
3, 27774, Note_on_c, 0, 59, 0
3, 27776, Note_on_c, 0, 63, 0
3, 27782, Note_on_c, 0, 56, 37
3, 27784, Note_on_c, 0, 62, 66
3, 27796, Note_on_c, 0, 56, 0
3, 27822, Note_on_c, 0, 62, 0
3, 27846, Note_on_c, 0, 65, 47
3, 27846, Note_on_c, 0, 60, 51
3, 27847, Control_c, 0, 64, 0
3, 27847, Note_on_c, 0, 53, 35
3, 27847, Note_on_c, 0, 38, 33
3, 27849, Note_on_c, 0, 26, 43
3, 27851, Control_c, 0, 64, 127
3, 27867, Note_on_c, 0, 53, 0
3, 27875, Note_on_c, 0, 38, 0
3, 27877, Note_on_c, 0, 60, 0
3, 27879, Note_on_c, 0, 26, 0
3, 27886, Note_on_c, 0, 65, 0
3, 27963, Note_on_c, 0, 56, 45
3, 27966, Note_on_c, 0, 65, 38
3, 27969, Note_on_c, 0, 60, 37
3, 28005, Note_on_c, 0, 65, 0
3, 28009, Note_on_c, 0, 60, 0
3, 28022, Note_on_c, 0, 56, 0
3, 28038, Note_on_c, 0, 101, 71
3, 28083, Note_on_c, 0, 92, 60
3, 28083, Note_on_c, 0, 54, 35
3, 28085, Control_c, 0, 64, 0
3, 28085, Note_on_c, 0, 50, 37
3, 28085, Note_on_c, 0, 60, 42
3, 28096, Note_on_c, 0, 101, 0
3, 28109, Control_c, 0, 64, 127
3, 28111, Note_on_c, 0, 92, 0
3, 28123, Note_on_c, 0, 92, 39
3, 28137, Note_on_c, 0, 50, 0
3, 28142, Note_on_c, 0, 54, 0
3, 28147, Note_on_c, 0, 60, 0
3, 28153, Note_on_c, 0, 92, 0
3, 28166, Note_on_c, 0, 91, 55
3, 28207, Note_on_c, 0, 54, 38
3, 28208, Note_on_c, 0, 65, 42
3, 28210, Note_on_c, 0, 60, 40
3, 28213, Control_c, 0, 64, 0
3, 28225, Control_c, 0, 64, 127
3, 28229, Note_on_c, 0, 91, 0
3, 28254, Note_on_c, 0, 106, 76
3, 28258, Note_on_c, 0, 107, 68
3, 28262, Note_on_c, 0, 107, 0
3, 28283, Note_on_c, 0, 106, 0
3, 28288, Note_on_c, 0, 60, 0
3, 28290, Note_on_c, 0, 65, 0
3, 28296, Note_on_c, 0, 104, 76
3, 28305, Note_on_c, 0, 54, 0
3, 28333, Control_c, 0, 64, 0
3, 28334, Note_on_c, 0, 59, 49
3, 28334, Note_on_c, 0, 53, 35
3, 28335, Note_on_c, 0, 64, 34
3, 28337, Note_on_c, 0, 95, 49
3, 28361, Control_c, 0, 64, 127
3, 28366, Note_on_c, 0, 95, 0
3, 28369, Note_on_c, 0, 64, 0
3, 28372, Note_on_c, 0, 59, 0
3, 28374, Note_on_c, 0, 104, 0
3, 28378, Note_on_c, 0, 95, 51
3, 28380, Note_on_c, 0, 53, 0
3, 28400, Note_on_c, 0, 95, 0
3, 28414, Note_on_c, 0, 94, 50
3, 28460, Note_on_c, 0, 43, 49
3, 28462, Control_c, 0, 64, 0
3, 28479, Control_c, 0, 64, 127
3, 28504, Note_on_c, 0, 43, 0
3, 28562, Note_on_c, 0, 94, 0
3, 28571, Note_on_c, 0, 92, 60
3, 28573, Note_on_c, 0, 63, 30
3, 28573, Note_on_c, 0, 53, 35
3, 28574, Note_on_c, 0, 56, 35
3, 28576, Note_on_c, 0, 59, 34
3, 28581, Control_c, 0, 64, 0
3, 28602, Control_c, 0, 64, 127
3, 28623, Note_on_c, 0, 63, 0
3, 28653, Note_on_c, 0, 59, 0
3, 28679, Note_on_c, 0, 92, 0
3, 28692, Note_on_c, 0, 91, 53
3, 28693, Note_on_c, 0, 62, 47
3, 28695, Note_on_c, 0, 59, 29
3, 28708, Note_on_c, 0, 91, 0
3, 28710, Note_on_c, 0, 56, 0
3, 28731, Note_on_c, 0, 53, 0
3, 28740, Note_on_c, 0, 62, 0
3, 28744, Note_on_c, 0, 59, 0
3, 28754, Note_on_c, 0, 59, 51
3, 28812, Note_on_c, 0, 72, 41
3, 28813, Note_on_c, 0, 63, 46
3, 28813, Note_on_c, 0, 67, 54
3, 28814, Control_c, 0, 64, 0
3, 28815, Note_on_c, 0, 59, 0
3, 28816, Note_on_c, 0, 60, 42
3, 28848, Control_c, 0, 64, 127
3, 28872, Note_on_c, 0, 72, 0
3, 28876, Note_on_c, 0, 74, 73
3, 28906, Note_on_c, 0, 74, 0
3, 28926, Note_on_c, 0, 63, 0
3, 28937, Note_on_c, 0, 75, 68
3, 28939, Note_on_c, 0, 67, 0
3, 28955, Note_on_c, 0, 75, 0
3, 28992, Note_on_c, 0, 77, 58
3, 29010, Note_on_c, 0, 77, 0
3, 29033, Note_on_c, 0, 60, 0
3, 29049, Note_on_c, 0, 79, 55
3, 29050, Note_on_c, 0, 58, 37
3, 29050, Note_on_c, 0, 67, 44
3, 29051, Note_on_c, 0, 72, 36
3, 29053, Control_c, 0, 64, 0
3, 29081, Control_c, 0, 64, 127
3, 29096, Note_on_c, 0, 67, 0
3, 29099, Note_on_c, 0, 72, 0
3, 29100, Note_on_c, 0, 79, 0
3, 29115, Note_on_c, 0, 81, 63
3, 29133, Note_on_c, 0, 81, 0
3, 29142, Note_on_c, 0, 58, 0
3, 29166, Control_c, 0, 64, 0
3, 29167, Note_on_c, 0, 63, 30
3, 29167, Note_on_c, 0, 83, 60
3, 29168, Note_on_c, 0, 57, 55
3, 29169, Note_on_c, 0, 71, 46
3, 29190, Control_c, 0, 64, 127
3, 29195, Note_on_c, 0, 83, 0
3, 29200, Note_on_c, 0, 71, 0
3, 29222, Note_on_c, 0, 63, 0
3, 29223, Note_on_c, 0, 57, 0
3, 29228, Note_on_c, 0, 84, 66
3, 29229, Note_on_c, 0, 72, 37
3, 29241, Note_on_c, 0, 72, 0
3, 29244, Note_on_c, 0, 84, 0
3, 29288, Note_on_c, 0, 54, 51
3, 29289, Control_c, 0, 64, 0
3, 29289, Note_on_c, 0, 87, 60
3, 29291, Note_on_c, 0, 65, 54
3, 29291, Note_on_c, 0, 75, 59
3, 29291, Note_on_c, 0, 60, 48
3, 29291, Note_on_c, 0, 84, 63
3, 29292, Note_on_c, 0, 80, 53
3, 29319, Control_c, 0, 64, 127
3, 29335, Note_on_c, 0, 65, 0
3, 29337, Note_on_c, 0, 60, 0
3, 29347, Note_on_c, 0, 54, 0
3, 29415, Note_on_c, 0, 38, 81
3, 29416, Control_c, 0, 64, 0
3, 29436, Control_c, 0, 64, 127
3, 29455, Note_on_c, 0, 38, 0
3, 29473, Note_on_c, 0, 84, 0
3, 29486, Note_on_c, 0, 80, 0
3, 29486, Note_on_c, 0, 87, 0
3, 29488, Note_on_c, 0, 75, 0
3, 29538, Note_on_c, 0, 87, 75
3, 29539, Note_on_c, 0, 75, 64
3, 29539, Note_on_c, 0, 79, 71
3, 29539, Note_on_c, 0, 63, 74
3, 29541, Note_on_c, 0, 59, 72
3, 29541, Note_on_c, 0, 56, 52
3, 29541, Note_on_c, 0, 53, 64
3, 29541, Control_c, 0, 64, 0
3, 29568, Control_c, 0, 64, 127
3, 29575, Note_on_c, 0, 59, 0
3, 29576, Note_on_c, 0, 63, 0
3, 29580, Note_on_c, 0, 56, 0
3, 29581, Note_on_c, 0, 53, 0
3, 29617, Note_on_c, 0, 79, 0
3, 29622, Note_on_c, 0, 75, 0
3, 29624, Note_on_c, 0, 87, 0
3, 29665, Note_on_c, 0, 86, 80
3, 29666, Note_on_c, 0, 43, 66
3, 29666, Note_on_c, 0, 79, 72
3, 29667, Note_on_c, 0, 53, 65
3, 29667, Note_on_c, 0, 74, 66
3, 29667, Control_c, 0, 64, 0
3, 29691, Control_c, 0, 64, 127
3, 29708, Note_on_c, 0, 79, 0
3, 29708, Note_on_c, 0, 86, 0
3, 29709, Note_on_c, 0, 43, 0
3, 29714, Note_on_c, 0, 53, 0
3, 29722, Note_on_c, 0, 74, 0
3, 29793, Note_on_c, 0, 74, 78
3, 29793, Note_on_c, 0, 67, 84
3, 29794, Note_on_c, 0, 63, 79
3, 29795, Note_on_c, 0, 48, 66
3, 29795, Control_c, 0, 64, 0
3, 29796, Note_on_c, 0, 59, 73
3, 29800, Note_on_c, 0, 70, 25
3, 29826, Control_c, 0, 64, 127
3, 29851, Note_on_c, 0, 70, 0
3, 29855, Note_on_c, 0, 59, 0
3, 29866, Note_on_c, 0, 63, 0
3, 29867, Note_on_c, 0, 74, 0
3, 29868, Note_on_c, 0, 67, 0
3, 29876, Note_on_c, 0, 72, 43
3, 29876, Note_on_c, 0, 63, 61
3, 29878, Note_on_c, 0, 57, 48
3, 29880, Note_on_c, 0, 67, 63
3, 29915, Note_on_c, 0, 72, 0
3, 29917, Note_on_c, 0, 57, 0
3, 29918, Note_on_c, 0, 63, 0
3, 29919, Note_on_c, 0, 67, 0
3, 29944, Note_on_c, 0, 63, 58
3, 29945, Note_on_c, 0, 72, 37
3, 29946, Note_on_c, 0, 57, 51
3, 29947, Note_on_c, 0, 67, 58
3, 29993, Note_on_c, 0, 63, 0
3, 30002, Note_on_c, 0, 72, 0
3, 30007, Note_on_c, 0, 63, 31
3, 30008, Note_on_c, 0, 57, 0
3, 30008, Note_on_c, 0, 71, 52
3, 30011, Note_on_c, 0, 56, 34
3, 30038, Note_on_c, 0, 67, 0
3, 30046, Note_on_c, 0, 63, 0
3, 30061, Note_on_c, 0, 71, 0
3, 30077, Note_on_c, 0, 56, 0
3, 30078, Note_on_c, 0, 57, 56
3, 30078, Note_on_c, 0, 72, 35
3, 30079, Note_on_c, 0, 63, 40
3, 30080, Note_on_c, 0, 67, 50
3, 30085, Control_c, 0, 64, 0
3, 30113, Control_c, 0, 64, 127
3, 30127, Note_on_c, 0, 48, 0
3, 30151, Note_on_c, 0, 48, 58
3, 30200, Note_on_c, 0, 48, 0
3, 30224, Note_on_c, 0, 48, 53
3, 30255, Note_on_c, 0, 48, 0
3, 30298, Note_on_c, 0, 48, 54
3, 30316, Note_on_c, 0, 57, 0
3, 30321, Note_on_c, 0, 48, 0
3, 30334, Note_on_c, 0, 67, 0
3, 30336, Note_on_c, 0, 63, 0
3, 30362, Note_on_c, 0, 41, 55
3, 30367, Note_on_c, 0, 72, 0
3, 30373, Note_on_c, 0, 48, 36
3, 30385, Note_on_c, 0, 63, 32
3, 30390, Note_on_c, 0, 57, 64
3, 30390, Note_on_c, 0, 67, 66
3, 30391, Control_c, 0, 64, 0
3, 30392, Note_on_c, 0, 71, 72
3, 30393, Note_on_c, 0, 74, 81
3, 30436, Control_c, 0, 64, 127
3, 30452, Note_on_c, 0, 74, 0
3, 30462, Note_on_c, 0, 72, 55
3, 30476, Note_on_c, 0, 71, 0
3, 30494, Note_on_c, 0, 57, 0
3, 30496, Note_on_c, 0, 67, 0
3, 30503, Note_on_c, 0, 63, 0
3, 30504, Note_on_c, 0, 72, 0
3, 30533, Note_on_c, 0, 63, 48
3, 30534, Note_on_c, 0, 72, 35
3, 30535, Note_on_c, 0, 67, 50
3, 30537, Note_on_c, 0, 57, 37
3, 30605, Note_on_c, 0, 71, 64
3, 30610, Note_on_c, 0, 57, 0
3, 30612, Note_on_c, 0, 72, 0
3, 30622, Note_on_c, 0, 48, 0
3, 30631, Note_on_c, 0, 41, 0
3, 30646, Note_on_c, 0, 67, 0
3, 30648, Note_on_c, 0, 63, 0
3, 30663, Note_on_c, 0, 71, 0
3, 30683, Note_on_c, 0, 41, 48
3, 30683, Note_on_c, 0, 63, 37
3, 30683, Note_on_c, 0, 72, 37
3, 30685, Note_on_c, 0, 67, 44
3, 30763, Note_on_c, 0, 29, 34
3, 30827, Note_on_c, 0, 29, 0
3, 30847, Note_on_c, 0, 29, 37
3, 30886, Note_on_c, 0, 29, 0
3, 30932, Note_on_c, 0, 29, 32
3, 30938, Note_on_c, 0, 41, 0
3, 30943, Note_on_c, 0, 63, 0
3, 30950, Note_on_c, 0, 67, 0
3, 30950, Note_on_c, 0, 29, 0
3, 30981, Note_on_c, 0, 72, 0
3, 31040, Note_on_c, 0, 74, 50
3, 31041, Note_on_c, 0, 63, 37
3, 31042, Note_on_c, 0, 67, 50
3, 31043, Control_c, 0, 64, 0
3, 31043, Note_on_c, 0, 24, 40
3, 31045, Note_on_c, 0, 36, 30
3, 31072, Note_on_c, 0, 63, 0
3, 31072, Control_c, 0, 64, 127
3, 31073, Note_on_c, 0, 67, 0
3, 31080, Note_on_c, 0, 36, 0
3, 31082, Note_on_c, 0, 24, 0
3, 31084, Note_on_c, 0, 74, 0
3, 31203, Note_on_c, 0, 98, 48
3, 31203, Note_on_c, 0, 97, 25
3, 31206, Note_on_c, 0, 61, 23
3, 31206, Note_on_c, 0, 62, 34
3, 31210, Note_on_c, 0, 97, 0
3, 31212, Note_on_c, 0, 61, 0
3, 31268, Note_on_c, 0, 98, 0
3, 31272, Note_on_c, 0, 96, 43
3, 31275, Note_on_c, 0, 62, 0
3, 31275, Note_on_c, 0, 60, 36
3, 31316, Note_on_c, 0, 96, 0
3, 31317, Note_on_c, 0, 60, 0
3, 31343, Note_on_c, 0, 96, 37
3, 31346, Note_on_c, 0, 60, 35
3, 31556, Note_on_c, 0, 60, 0
3, 31565, Note_on_c, 0, 96, 0
3, 31609, Note_on_c, 0, 98, 45
3, 31611, Note_on_c, 0, 97, 23
3, 31611, Note_on_c, 0, 62, 34
3, 31620, Note_on_c, 0, 97, 0
3, 31677, Note_on_c, 0, 98, 0
3, 31680, Note_on_c, 0, 62, 0
3, 31680, Note_on_c, 0, 96, 34
3, 31682, Note_on_c, 0, 60, 32
3, 31709, Note_on_c, 0, 96, 0
3, 31711, Note_on_c, 0, 60, 0
3, 31760, Note_on_c, 0, 96, 26
3, 31760, Note_on_c, 0, 60, 33
3, 31787, Note_on_c, 0, 60, 0
3, 31904, Note_on_c, 0, 96, 0
3, 31986, Note_on_c, 0, 24, 39
3, 32006, Note_on_c, 0, 24, 0
3, 32636, Control_c, 0, 64, 0
3, 32636, End_track
4, 0, Start_track
4, 0, Title_t, "Solo Piano in Real time"
4, 0, End_track
5, 0, Start_track
5, 0, Title_t, "Solo Piano in Real time"
5, 0, End_track
0, 0, End_of_file
