0, 0, Header, 1, 6, 120
1, 0, Start_track
1, 0, Title_t, "Maiden Voyage"
1, 0, Text_t, "Herbie Hancock"
1, 0, Text_t, "dougmck@pipeline.com.au \012"
1, 0, Time_signature, 4, 2, 24, 8
1, 0, Key_signature, 0, "major"
1, 0, Tempo, 480000
1, 0, Marker_t, "In first section, melody is played with Both hands in unison - allowing freedom to re-harmonise the gaps between melody"
1, 383, Marker_t, "Usually played as 4 bars of each of the following - D7sus,F7sus,D7sus,F7sus,Eb7sus,Db7sus,D7sus,F7sus"
1, 1308, Marker_t, "Instead of the usual 7sus4 chords, in the 1st chorus, Maj7#5 chords are used"
1, 2400, Marker_t, "i.e. as 'slash' chords F#/D for 4bars then A/F for 4 bars"
1, 2950, Marker_t, "Melody in unison then chordal stuff in the gap"
1, 5758, Marker_t, "Parallel harmony with a 7b9 type voicing shifting with the melody"
1, 7908, Marker_t, "Same sort of voicing moves with the melody"
1, 10775, Marker_t, "An EbmMaj7 is used here instead of the usual Eb7sus chord"
1, 11116, Marker_t, "RH plays Ebm9 arpeggio (looks like GbMaj7) LH plays melody below - kind of Debussy style!"
1, 13091, Marker_t, "Instead of Db7sus for 4 bars, this becomes Dbm7 then Gb7sus"
1, 15966, Marker_t, "Back to the usual D7sus harmony - can think of this as Cmaj7/D"
1, 17141, Marker_t, "Now F7sus ( = Eb/F)"
1, 17358, Marker_t, "3 note fragment of melody moved up in octaves"
1, 19525, Marker_t, "More Parallel type harmony - the C/D chord is 'surrounded' by its neighbors - E/D and C#/B"
1, 23858, Marker_t, "More similar Parallel harmony using similar chord voicings on neighboring notes"
1, 27025, Marker_t, "On Eb chord a minor 7th chord  has its 5th shifted up in chromatic steps"
1, 34075, Marker_t, "Trio starts - more conventional sus4 harmony - mainly mixolydian melodic lines"
1, 35325, Marker_t, "Sus chords move in steps"
1, 38575, Marker_t, "'montuno' like figure"
1, 50558, Marker_t, "Left H crosses and plays chords - RH plays melodic line in bass register"
1, 57116, Marker_t, "2 handed chords with some black notes  sliding to white notes in RH - for 'bluesy' sound"
1, 57116, End_track
2, 0, Start_track
2, 0, Control_c, 0, 7, 78
2, 269, Control_c, 0, 64, 127
2, 269, Control_c, 0, 64, 0
2, 269, Control_c, 0, 64, 127
2, 269, Control_c, 0, 64, 0
2, 269, Control_c, 0, 64, 127
2, 269, Control_c, 0, 64, 0
2, 269, Control_c, 0, 64, 127
2, 396, Note_on_c, 0, 81, 28
2, 398, Note_on_c, 0, 57, 43
2, 409, Note_on_c, 0, 82, 59
2, 414, Note_on_c, 0, 57, 0
2, 420, Note_on_c, 0, 58, 45
2, 421, Note_on_c, 0, 81, 0
2, 424, Control_c, 0, 64, 0
2, 429, Note_on_c, 0, 83, 73
2, 430, Note_on_c, 0, 82, 0
2, 434, Note_on_c, 0, 59, 68
2, 444, Note_on_c, 0, 58, 0
2, 489, Control_c, 0, 64, 127
2, 689, Note_on_c, 0, 83, 0
2, 700, Note_on_c, 0, 84, 43
2, 725, Note_on_c, 0, 60, 44
2, 727, Note_on_c, 0, 84, 0
2, 734, Note_on_c, 0, 85, 74
2, 736, Note_on_c, 0, 61, 60
2, 737, Note_on_c, 0, 59, 0
2, 744, Note_on_c, 0, 60, 0
2, 752, Note_on_c, 0, 85, 0
2, 759, Control_c, 0, 64, 0
2, 760, Note_on_c, 0, 61, 0
2, 761, Note_on_c, 0, 62, 95
2, 764, Note_on_c, 0, 86, 95
2, 830, Control_c, 0, 64, 127
2, 863, Note_on_c, 0, 86, 0
2, 867, Note_on_c, 0, 62, 0
2, 879, Note_on_c, 0, 86, 96
2, 883, Note_on_c, 0, 62, 87
2, 885, Control_c, 0, 64, 0
2, 917, Control_c, 0, 64, 127
2, 1117, Note_on_c, 0, 86, 0
2, 1276, Note_on_c, 0, 62, 0
2, 1372, Note_on_c, 0, 61, 27
2, 1374, Note_on_c, 0, 70, 37
2, 1375, Note_on_c, 0, 66, 36
2, 1376, Note_on_c, 0, 62, 54
2, 1383, Note_on_c, 0, 50, 24
2, 1389, Control_c, 0, 64, 0
2, 1426, Control_c, 0, 64, 127
2, 1453, Note_on_c, 0, 61, 0
2, 1457, Note_on_c, 0, 66, 0
2, 1461, Note_on_c, 0, 70, 0
2, 1542, Note_on_c, 0, 85, 67
2, 1546, Note_on_c, 0, 78, 46
2, 1548, Note_on_c, 0, 62, 0
2, 1552, Note_on_c, 0, 57, 31
2, 1617, Note_on_c, 0, 78, 0
2, 1647, Note_on_c, 0, 57, 0
2, 1657, Note_on_c, 0, 82, 38
2, 1658, Note_on_c, 0, 50, 0
2, 1658, Note_on_c, 0, 73, 33
2, 1663, Note_on_c, 0, 78, 32
2, 1669, Note_on_c, 0, 62, 34
2, 1782, Note_on_c, 0, 66, 35
2, 1785, Note_on_c, 0, 62, 0
2, 1797, Note_on_c, 0, 73, 0
2, 1803, Note_on_c, 0, 78, 0
2, 1817, Note_on_c, 0, 82, 0
2, 1870, Note_on_c, 0, 85, 0
2, 1896, Note_on_c, 0, 73, 27
2, 1901, Note_on_c, 0, 78, 33
2, 1902, Note_on_c, 0, 82, 29
2, 1906, Note_on_c, 0, 70, 25
2, 1935, Note_on_c, 0, 73, 0
2, 1979, Note_on_c, 0, 82, 0
2, 1979, Note_on_c, 0, 78, 0
2, 1981, Note_on_c, 0, 70, 0
2, 1981, Note_on_c, 0, 85, 45
2, 1983, Note_on_c, 0, 74, 40
2, 2020, Note_on_c, 0, 74, 0
2, 2047, Note_on_c, 0, 73, 33
2, 2051, Note_on_c, 0, 78, 31
2, 2051, Note_on_c, 0, 70, 39
2, 2052, Note_on_c, 0, 82, 31
2, 2076, Note_on_c, 0, 66, 0
2, 2113, Note_on_c, 0, 70, 0
2, 2157, Note_on_c, 0, 78, 0
2, 2157, Note_on_c, 0, 82, 0
2, 2188, Note_on_c, 0, 73, 0
2, 2267, Note_on_c, 0, 62, 36
2, 2394, Note_on_c, 0, 73, 26
2, 2400, Note_on_c, 0, 78, 30
2, 2405, Note_on_c, 0, 82, 21
2, 2563, Note_on_c, 0, 50, 28
2, 2691, Note_on_c, 0, 73, 0
2, 2726, Note_on_c, 0, 78, 0
2, 2726, Note_on_c, 0, 57, 19
2, 2748, Note_on_c, 0, 62, 0
2, 2751, Note_on_c, 0, 85, 0
2, 2756, Note_on_c, 0, 82, 0
2, 2955, Note_on_c, 0, 84, 68
2, 2956, Note_on_c, 0, 57, 0
2, 2957, Note_on_c, 0, 72, 45
2, 2963, Note_on_c, 0, 60, 40
2, 2964, Note_on_c, 0, 50, 0
2, 3009, Note_on_c, 0, 72, 0
2, 3013, Note_on_c, 0, 84, 0
2, 3058, Note_on_c, 0, 62, 64
2, 3060, Note_on_c, 0, 60, 0
2, 3063, Note_on_c, 0, 86, 91
2, 3063, Note_on_c, 0, 74, 83
2, 3119, Note_on_c, 0, 86, 0
2, 3121, Note_on_c, 0, 74, 0
2, 3171, Note_on_c, 0, 62, 0
2, 3173, Control_c, 0, 64, 0
2, 3173, Note_on_c, 0, 75, 83
2, 3174, Note_on_c, 0, 87, 86
2, 3175, Note_on_c, 0, 63, 74
2, 3203, Control_c, 0, 64, 127
2, 3250, Note_on_c, 0, 75, 0
2, 3253, Note_on_c, 0, 87, 0
2, 3273, Note_on_c, 0, 63, 0
2, 3320, Note_on_c, 0, 65, 54
2, 3323, Note_on_c, 0, 89, 65
2, 3327, Note_on_c, 0, 77, 51
2, 3408, Note_on_c, 0, 89, 0
2, 3466, Note_on_c, 0, 77, 0
2, 3515, Note_on_c, 0, 65, 0
2, 4000, Note_on_c, 0, 72, 27
2, 4000, Note_on_c, 0, 64, 27
2, 4003, Note_on_c, 0, 53, 34
2, 4004, Note_on_c, 0, 69, 35
2, 4010, Control_c, 0, 64, 0
2, 4057, Control_c, 0, 64, 127
2, 4070, Note_on_c, 0, 64, 0
2, 4087, Note_on_c, 0, 72, 0
2, 4088, Note_on_c, 0, 69, 0
2, 4099, Note_on_c, 0, 61, 39
2, 4184, Note_on_c, 0, 73, 30
2, 4185, Note_on_c, 0, 53, 0
2, 4186, Note_on_c, 0, 81, 59
2, 4190, Note_on_c, 0, 64, 45
2, 4193, Note_on_c, 0, 61, 0
2, 4249, Note_on_c, 0, 64, 0
2, 4255, Note_on_c, 0, 73, 0
2, 4272, Note_on_c, 0, 81, 0
2, 4276, Note_on_c, 0, 69, 50
2, 4362, Note_on_c, 0, 69, 0
2, 4363, Note_on_c, 0, 81, 58
2, 4363, Note_on_c, 0, 88, 60
2, 4367, Note_on_c, 0, 74, 38
2, 4391, Note_on_c, 0, 74, 0
2, 4424, Note_on_c, 0, 81, 0
2, 4429, Note_on_c, 0, 88, 0
2, 4442, Note_on_c, 0, 85, 40
2, 4447, Note_on_c, 0, 69, 34
2, 4451, Note_on_c, 0, 76, 47
2, 4457, Note_on_c, 0, 69, 0
2, 4459, Note_on_c, 0, 85, 0
2, 4483, Note_on_c, 0, 76, 0
2, 4533, Note_on_c, 0, 81, 61
2, 4535, Note_on_c, 0, 73, 38
2, 4543, Note_on_c, 0, 64, 32
2, 4619, Note_on_c, 0, 61, 37
2, 4619, Note_on_c, 0, 69, 32
2, 4638, Note_on_c, 0, 73, 0
2, 4646, Note_on_c, 0, 69, 0
2, 4709, Note_on_c, 0, 81, 0
2, 4717, Note_on_c, 0, 61, 0
2, 4720, Note_on_c, 0, 76, 37
2, 4720, Note_on_c, 0, 69, 38
2, 4722, Note_on_c, 0, 53, 27
2, 4724, Note_on_c, 0, 73, 17
2, 4731, Control_c, 0, 64, 0
2, 4744, Note_on_c, 0, 64, 0
2, 4784, Control_c, 0, 64, 127
2, 4801, Note_on_c, 0, 69, 0
2, 4814, Note_on_c, 0, 73, 0
2, 4817, Note_on_c, 0, 76, 0
2, 4818, Note_on_c, 0, 61, 25
2, 4919, Note_on_c, 0, 85, 51
2, 4923, Note_on_c, 0, 93, 48
2, 4931, Note_on_c, 0, 64, 26
2, 4943, Note_on_c, 0, 61, 0
2, 4999, Note_on_c, 0, 85, 0
2, 5024, Note_on_c, 0, 88, 41
2, 5027, Note_on_c, 0, 93, 0
2, 5030, Note_on_c, 0, 61, 28
2, 5032, Note_on_c, 0, 81, 38
2, 5033, Note_on_c, 0, 64, 0
2, 5035, Note_on_c, 0, 85, 17
2, 5052, Note_on_c, 0, 88, 0
2, 5055, Note_on_c, 0, 85, 0
2, 5063, Note_on_c, 0, 81, 0
2, 5147, Note_on_c, 0, 73, 31
2, 5151, Note_on_c, 0, 81, 48
2, 5162, Note_on_c, 0, 64, 28
2, 5194, Note_on_c, 0, 61, 0
2, 5252, Note_on_c, 0, 73, 0
2, 5287, Note_on_c, 0, 81, 0
2, 5291, Note_on_c, 0, 61, 26
2, 5298, Note_on_c, 0, 76, 29
2, 5299, Note_on_c, 0, 69, 29
2, 5306, Note_on_c, 0, 73, 17
2, 5312, Note_on_c, 0, 64, 0
2, 5348, Note_on_c, 0, 76, 0
2, 5386, Note_on_c, 0, 73, 0
2, 5398, Note_on_c, 0, 69, 0
2, 5597, Note_on_c, 0, 61, 0
2, 5779, Note_on_c, 0, 71, 71
2, 5781, Note_on_c, 0, 63, 70
2, 5782, Note_on_c, 0, 66, 68
2, 5783, Note_on_c, 0, 60, 68
2, 5787, Note_on_c, 0, 59, 53
2, 5790, Note_on_c, 0, 53, 0
2, 5791, Control_c, 0, 64, 0
2, 5824, Control_c, 0, 64, 127
2, 5852, Note_on_c, 0, 60, 0
2, 5856, Note_on_c, 0, 71, 0
2, 5858, Note_on_c, 0, 66, 0
2, 5859, Note_on_c, 0, 63, 0
2, 5879, Note_on_c, 0, 59, 0
2, 5932, Note_on_c, 0, 66, 84
2, 5933, Note_on_c, 0, 63, 86
2, 5933, Note_on_c, 0, 74, 89
2, 5935, Note_on_c, 0, 69, 74
2, 5936, Note_on_c, 0, 62, 96
2, 5942, Control_c, 0, 64, 0
2, 5982, Control_c, 0, 64, 127
2, 6044, Note_on_c, 0, 69, 0
2, 6047, Note_on_c, 0, 62, 0
2, 6049, Note_on_c, 0, 74, 0
2, 6049, Note_on_c, 0, 63, 0
2, 6059, Note_on_c, 0, 66, 0
2, 6082, Note_on_c, 0, 66, 70
2, 6083, Note_on_c, 0, 74, 72
2, 6084, Note_on_c, 0, 63, 68
2, 6087, Note_on_c, 0, 69, 68
2, 6088, Note_on_c, 0, 62, 80
2, 6094, Control_c, 0, 64, 0
2, 6127, Control_c, 0, 64, 127
2, 6165, Note_on_c, 0, 62, 0
2, 6357, Note_on_c, 0, 26, 47
2, 6373, Control_c, 0, 64, 0
2, 6408, Control_c, 0, 64, 127
2, 6428, Note_on_c, 0, 26, 0
2, 6508, Note_on_c, 0, 69, 0
2, 6528, Note_on_c, 0, 63, 0
2, 6542, Note_on_c, 0, 66, 0
2, 6579, Note_on_c, 0, 63, 38
2, 6579, Note_on_c, 0, 66, 27
2, 6583, Note_on_c, 0, 69, 48
2, 6583, Note_on_c, 0, 62, 51
2, 6912, Note_on_c, 0, 69, 0
2, 6961, Note_on_c, 0, 50, 38
2, 6969, Note_on_c, 0, 62, 0
2, 6978, Note_on_c, 0, 66, 0
2, 6988, Note_on_c, 0, 63, 0
2, 7070, Note_on_c, 0, 63, 33
2, 7073, Note_on_c, 0, 66, 34
2, 7075, Note_on_c, 0, 70, 37
2, 7079, Note_on_c, 0, 62, 37
2, 7082, Control_c, 0, 64, 0
2, 7137, Control_c, 0, 64, 127
2, 7160, Note_on_c, 0, 62, 0
2, 7195, Note_on_c, 0, 63, 0
2, 7199, Note_on_c, 0, 62, 47
2, 7218, Note_on_c, 0, 66, 0
2, 7223, Note_on_c, 0, 70, 0
2, 7237, Note_on_c, 0, 62, 0
2, 7317, Note_on_c, 0, 66, 31
2, 7319, Note_on_c, 0, 70, 25
2, 7319, Note_on_c, 0, 61, 34
2, 7325, Note_on_c, 0, 62, 39
2, 7409, Note_on_c, 0, 50, 0
2, 7446, Note_on_c, 0, 50, 27
2, 7460, Note_on_c, 0, 61, 0
2, 7464, Note_on_c, 0, 62, 0
2, 7475, Note_on_c, 0, 66, 0
2, 7499, Note_on_c, 0, 70, 0
2, 7576, Note_on_c, 0, 74, 0
2, 7582, Note_on_c, 0, 70, 40
2, 7587, Note_on_c, 0, 66, 34
2, 7590, Note_on_c, 0, 61, 28
2, 7594, Note_on_c, 0, 62, 34
2, 7686, Note_on_c, 0, 61, 0
2, 7764, Note_on_c, 0, 62, 0
2, 7842, Note_on_c, 0, 70, 0
2, 7856, Note_on_c, 0, 66, 0
2, 7947, Note_on_c, 0, 72, 65
2, 7949, Note_on_c, 0, 64, 89
2, 7950, Note_on_c, 0, 61, 88
2, 7951, Note_on_c, 0, 67, 78
2, 7953, Note_on_c, 0, 60, 78
2, 7954, Note_on_c, 0, 70, 56
2, 7957, Control_c, 0, 64, 0
2, 7970, Note_on_c, 0, 50, 0
2, 7982, Control_c, 0, 64, 127
2, 7994, Note_on_c, 0, 67, 0
2, 7997, Note_on_c, 0, 64, 0
2, 7999, Note_on_c, 0, 72, 0
2, 8003, Note_on_c, 0, 61, 0
2, 8006, Note_on_c, 0, 70, 0
2, 8032, Note_on_c, 0, 60, 0
2, 8062, Note_on_c, 0, 74, 83
2, 8063, Note_on_c, 0, 66, 84
2, 8064, Note_on_c, 0, 63, 87
2, 8065, Note_on_c, 0, 69, 82
2, 8068, Note_on_c, 0, 62, 84
2, 8071, Control_c, 0, 64, 0
2, 8075, Note_on_c, 0, 72, 27
2, 8095, Note_on_c, 0, 72, 0
2, 8101, Control_c, 0, 64, 127
2, 8109, Note_on_c, 0, 69, 0
2, 8114, Note_on_c, 0, 74, 0
2, 8117, Note_on_c, 0, 63, 0
2, 8125, Note_on_c, 0, 66, 0
2, 8135, Note_on_c, 0, 62, 0
2, 8166, Note_on_c, 0, 70, 78
2, 8167, Note_on_c, 0, 75, 77
2, 8168, Note_on_c, 0, 67, 82
2, 8169, Note_on_c, 0, 64, 82
2, 8170, Control_c, 0, 64, 0
2, 8171, Note_on_c, 0, 63, 86
2, 8177, Note_on_c, 0, 73, 30
2, 8200, Control_c, 0, 64, 127
2, 8203, Note_on_c, 0, 64, 0
2, 8205, Note_on_c, 0, 67, 0
2, 8217, Note_on_c, 0, 73, 0
2, 8218, Note_on_c, 0, 70, 0
2, 8219, Note_on_c, 0, 75, 0
2, 8236, Note_on_c, 0, 63, 0
2, 8299, Note_on_c, 0, 77, 71
2, 8299, Note_on_c, 0, 65, 66
2, 8301, Note_on_c, 0, 69, 75
2, 8301, Note_on_c, 0, 66, 74
2, 8302, Note_on_c, 0, 72, 49
2, 8306, Note_on_c, 0, 75, 44
2, 8313, Control_c, 0, 64, 0
2, 8350, Control_c, 0, 64, 127
2, 8411, Note_on_c, 0, 65, 0
2, 8436, Note_on_c, 0, 77, 0
2, 8456, Note_on_c, 0, 72, 0
2, 8458, Note_on_c, 0, 69, 0
2, 8463, Note_on_c, 0, 75, 0
2, 8485, Note_on_c, 0, 66, 0
2, 8617, Note_on_c, 0, 72, 34
2, 8619, Note_on_c, 0, 64, 56
2, 8619, Note_on_c, 0, 69, 37
2, 8620, Note_on_c, 0, 61, 31
2, 8623, Note_on_c, 0, 53, 49
2, 8624, Control_c, 0, 64, 0
2, 8669, Control_c, 0, 64, 127
2, 8685, Note_on_c, 0, 64, 0
2, 8686, Note_on_c, 0, 61, 0
2, 8693, Note_on_c, 0, 69, 0
2, 8706, Note_on_c, 0, 72, 0
2, 8780, Note_on_c, 0, 61, 19
2, 8781, Note_on_c, 0, 73, 34
2, 8782, Note_on_c, 0, 81, 59
2, 8855, Note_on_c, 0, 73, 0
2, 8877, Note_on_c, 0, 81, 0
2, 8888, Note_on_c, 0, 69, 48
2, 8889, Note_on_c, 0, 76, 44
2, 8895, Note_on_c, 0, 53, 0
2, 8897, Note_on_c, 0, 64, 35
2, 8903, Note_on_c, 0, 61, 0
2, 8903, Note_on_c, 0, 69, 0
2, 8917, Note_on_c, 0, 76, 0
2, 8988, Note_on_c, 0, 64, 0
2, 9006, Note_on_c, 0, 88, 37
2, 9006, Note_on_c, 0, 81, 47
2, 9011, Note_on_c, 0, 69, 34
2, 9030, Note_on_c, 0, 81, 0
2, 9038, Note_on_c, 0, 88, 0
2, 9119, Note_on_c, 0, 85, 36
2, 9120, Note_on_c, 0, 93, 41
2, 9123, Note_on_c, 0, 81, 34
2, 9124, Note_on_c, 0, 69, 0
2, 9124, Note_on_c, 0, 73, 34
2, 9125, Note_on_c, 0, 91, 35
2, 9156, Note_on_c, 0, 81, 0
2, 9158, Note_on_c, 0, 91, 0
2, 9159, Note_on_c, 0, 85, 0
2, 9162, Note_on_c, 0, 73, 0
2, 9169, Note_on_c, 0, 93, 0
2, 9245, Note_on_c, 0, 100, 55
2, 9246, Note_on_c, 0, 76, 37
2, 9248, Note_on_c, 0, 93, 40
2, 9304, Note_on_c, 0, 93, 0
2, 9342, Note_on_c, 0, 76, 0
2, 9348, Note_on_c, 0, 100, 0
2, 9364, Note_on_c, 0, 97, 51
2, 9365, Note_on_c, 0, 73, 26
2, 9370, Note_on_c, 0, 88, 32
2, 9388, Note_on_c, 0, 97, 0
2, 9390, Note_on_c, 0, 73, 0
2, 9403, Note_on_c, 0, 88, 0
2, 9529, Note_on_c, 0, 81, 45
2, 9530, Note_on_c, 0, 73, 23
2, 9535, Note_on_c, 0, 64, 29
2, 9539, Note_on_c, 0, 76, 38
2, 9540, Note_on_c, 0, 69, 24
2, 9632, Note_on_c, 0, 76, 0
2, 9649, Note_on_c, 0, 73, 0
2, 9649, Note_on_c, 0, 69, 0
2, 9752, Note_on_c, 0, 81, 0
2, 9759, Note_on_c, 0, 69, 31
2, 9762, Note_on_c, 0, 53, 36
2, 9766, Note_on_c, 0, 76, 24
2, 9770, Note_on_c, 0, 73, 15
2, 9931, Note_on_c, 0, 76, 0
2, 9947, Note_on_c, 0, 69, 0
2, 9951, Note_on_c, 0, 73, 0
2, 10003, Note_on_c, 0, 72, 82
2, 10100, Note_on_c, 0, 72, 0
2, 10357, Note_on_c, 0, 72, 57
2, 10374, Note_on_c, 0, 64, 0
2, 10449, Note_on_c, 0, 53, 0
2, 10499, Note_on_c, 0, 72, 0
2, 10510, Note_on_c, 0, 77, 57
2, 10702, Note_on_c, 0, 77, 0
2, 10784, Control_c, 0, 64, 0
2, 10784, Note_on_c, 0, 77, 50
2, 10789, Note_on_c, 0, 51, 36
2, 10814, Control_c, 0, 64, 127
2, 10847, Note_on_c, 0, 51, 0
2, 10943, Note_on_c, 0, 65, 33
2, 11013, Note_on_c, 0, 66, 25
2, 11016, Note_on_c, 0, 65, 0
2, 11020, Note_on_c, 0, 77, 0
2, 11045, Note_on_c, 0, 70, 44
2, 11054, Note_on_c, 0, 66, 0
2, 11077, Note_on_c, 0, 77, 61
2, 11087, Note_on_c, 0, 70, 0
2, 11114, Note_on_c, 0, 64, 75
2, 11122, Control_c, 0, 64, 0
2, 11160, Note_on_c, 0, 66, 20
2, 11172, Control_c, 0, 64, 127
2, 11186, Note_on_c, 0, 77, 0
2, 11199, Note_on_c, 0, 70, 42
2, 11210, Note_on_c, 0, 66, 0
2, 11235, Note_on_c, 0, 77, 52
2, 11253, Note_on_c, 0, 70, 0
2, 11270, Note_on_c, 0, 63, 52
2, 11276, Note_on_c, 0, 64, 0
2, 11287, Control_c, 0, 64, 0
2, 11302, Note_on_c, 0, 66, 23
2, 11332, Note_on_c, 0, 77, 0
2, 11365, Control_c, 0, 64, 127
2, 11420, Note_on_c, 0, 66, 0
2, 11540, Note_on_c, 0, 63, 0
2, 11597, Note_on_c, 0, 64, 46
2, 11635, Note_on_c, 0, 66, 36
2, 11643, Note_on_c, 0, 64, 0
2, 11658, Note_on_c, 0, 70, 52
2, 11675, Note_on_c, 0, 66, 0
2, 11677, Note_on_c, 0, 77, 53
2, 11692, Note_on_c, 0, 65, 90
2, 11706, Control_c, 0, 64, 0
2, 11713, Note_on_c, 0, 70, 0
2, 11735, Note_on_c, 0, 66, 33
2, 11740, Note_on_c, 0, 77, 0
2, 11748, Control_c, 0, 64, 127
2, 11757, Note_on_c, 0, 70, 43
2, 11771, Note_on_c, 0, 66, 0
2, 11777, Note_on_c, 0, 77, 43
2, 11795, Note_on_c, 0, 64, 82
2, 11806, Note_on_c, 0, 70, 0
2, 11808, Note_on_c, 0, 65, 0
2, 11816, Control_c, 0, 64, 0
2, 11828, Note_on_c, 0, 77, 0
2, 11832, Note_on_c, 0, 66, 32
2, 11846, Control_c, 0, 64, 127
2, 11852, Note_on_c, 0, 70, 38
2, 11867, Note_on_c, 0, 66, 0
2, 11873, Note_on_c, 0, 77, 37
2, 11894, Note_on_c, 0, 63, 65
2, 11898, Note_on_c, 0, 64, 0
2, 11906, Control_c, 0, 64, 0
2, 11911, Note_on_c, 0, 70, 0
2, 11924, Control_c, 0, 64, 127
2, 11938, Note_on_c, 0, 66, 28
2, 11940, Note_on_c, 0, 77, 0
2, 11942, Note_on_c, 0, 63, 0
2, 11954, Note_on_c, 0, 70, 32
2, 11974, Note_on_c, 0, 66, 0
2, 11982, Note_on_c, 0, 77, 22
2, 12002, Note_on_c, 0, 59, 68
2, 12003, Note_on_c, 0, 70, 0
2, 12021, Control_c, 0, 64, 0
2, 12032, Note_on_c, 0, 66, 20
2, 12034, Note_on_c, 0, 77, 0
2, 12050, Note_on_c, 0, 70, 35
2, 12057, Control_c, 0, 64, 127
2, 12065, Note_on_c, 0, 66, 0
2, 12069, Note_on_c, 0, 77, 20
2, 12092, Note_on_c, 0, 70, 0
2, 12102, Note_on_c, 0, 77, 0
2, 12104, Note_on_c, 0, 66, 34
2, 12116, Note_on_c, 0, 59, 0
2, 12128, Note_on_c, 0, 70, 34
2, 12128, Note_on_c, 0, 51, 35
2, 12131, Note_on_c, 0, 60, 40
2, 12132, Control_c, 0, 64, 0
2, 12143, Note_on_c, 0, 77, 22
2, 12212, Control_c, 0, 64, 127
2, 12456, Note_on_c, 0, 66, 0
2, 12461, Note_on_c, 0, 77, 0
2, 12466, Note_on_c, 0, 70, 0
2, 12476, Note_on_c, 0, 75, 81
2, 12593, Note_on_c, 0, 75, 0
2, 12619, Note_on_c, 0, 75, 69
2, 12761, Note_on_c, 0, 60, 0
2, 12797, Note_on_c, 0, 51, 0
2, 12819, Note_on_c, 0, 75, 0
2, 12840, Note_on_c, 0, 76, 64
2, 12932, Note_on_c, 0, 76, 0
2, 13111, Control_c, 0, 64, 0
2, 13114, Note_on_c, 0, 25, 47
2, 13114, Note_on_c, 0, 76, 55
2, 13116, Note_on_c, 0, 64, 47
2, 13118, Note_on_c, 0, 37, 28
2, 13146, Control_c, 0, 64, 127
2, 13164, Note_on_c, 0, 25, 0
2, 13182, Note_on_c, 0, 37, 0
2, 13184, Note_on_c, 0, 64, 0
2, 13226, Note_on_c, 0, 76, 0
2, 13347, Note_on_c, 0, 68, 54
2, 13350, Note_on_c, 0, 78, 81
2, 13353, Note_on_c, 0, 63, 46
2, 13353, Note_on_c, 0, 59, 51
2, 13354, Note_on_c, 0, 64, 54
2, 13603, Note_on_c, 0, 64, 0
2, 13609, Note_on_c, 0, 59, 0
2, 13621, Note_on_c, 0, 63, 0
2, 13625, Note_on_c, 0, 68, 0
2, 13637, Note_on_c, 0, 78, 0
2, 13744, Note_on_c, 0, 73, 45
2, 13745, Note_on_c, 0, 68, 39
2, 13749, Note_on_c, 0, 58, 37
2, 13751, Note_on_c, 0, 64, 50
2, 13753, Control_c, 0, 64, 0
2, 13756, Note_on_c, 0, 63, 33
2, 13803, Control_c, 0, 64, 127
2, 13879, Note_on_c, 0, 68, 0
2, 13886, Note_on_c, 0, 64, 0
2, 13891, Note_on_c, 0, 63, 0
2, 13905, Note_on_c, 0, 73, 0
2, 13908, Note_on_c, 0, 58, 0
2, 14086, Note_on_c, 0, 63, 38
2, 14088, Note_on_c, 0, 42, 38
2, 14090, Note_on_c, 0, 30, 39
2, 14092, Note_on_c, 0, 58, 34
2, 14093, Note_on_c, 0, 59, 52
2, 14097, Note_on_c, 0, 52, 17
2, 14106, Control_c, 0, 64, 0
2, 14111, Note_on_c, 0, 52, 0
2, 14112, Note_on_c, 0, 59, 0
2, 14114, Note_on_c, 0, 42, 0
2, 14117, Note_on_c, 0, 58, 0
2, 14119, Note_on_c, 0, 30, 0
2, 14126, Note_on_c, 0, 63, 0
2, 14202, Note_on_c, 0, 52, 34
2, 14203, Note_on_c, 0, 30, 31
2, 14204, Note_on_c, 0, 63, 25
2, 14207, Note_on_c, 0, 58, 33
2, 14208, Note_on_c, 0, 59, 48
2, 14208, Note_on_c, 0, 42, 23
2, 14242, Note_on_c, 0, 59, 0
2, 14251, Note_on_c, 0, 58, 0
2, 14253, Note_on_c, 0, 30, 0
2, 14255, Note_on_c, 0, 52, 0
2, 14255, Note_on_c, 0, 42, 0
2, 14260, Note_on_c, 0, 63, 0
2, 14495, Note_on_c, 0, 30, 39
2, 14495, Note_on_c, 0, 63, 35
2, 14498, Note_on_c, 0, 42, 31
2, 14500, Note_on_c, 0, 52, 35
2, 14502, Note_on_c, 0, 59, 48
2, 14505, Note_on_c, 0, 56, 29
2, 14542, Note_on_c, 0, 56, 0
2, 14545, Note_on_c, 0, 30, 0
2, 14545, Note_on_c, 0, 42, 0
2, 14547, Note_on_c, 0, 59, 0
2, 14547, Note_on_c, 0, 52, 0
2, 14553, Note_on_c, 0, 63, 0
2, 14609, Note_on_c, 0, 63, 26
2, 14611, Note_on_c, 0, 30, 35
2, 14614, Note_on_c, 0, 52, 33
2, 14614, Note_on_c, 0, 42, 26
2, 14619, Note_on_c, 0, 59, 38
2, 14620, Note_on_c, 0, 56, 25
2, 14666, Note_on_c, 0, 56, 0
2, 14666, Note_on_c, 0, 30, 0
2, 14669, Note_on_c, 0, 42, 0
2, 14669, Note_on_c, 0, 59, 0
2, 14671, Note_on_c, 0, 52, 0
2, 14678, Note_on_c, 0, 63, 0
2, 14736, Note_on_c, 0, 30, 42
2, 14738, Note_on_c, 0, 42, 33
2, 14738, Note_on_c, 0, 63, 27
2, 14739, Note_on_c, 0, 52, 32
2, 14744, Note_on_c, 0, 56, 30
2, 14746, Note_on_c, 0, 59, 41
2, 14799, Note_on_c, 0, 30, 0
2, 14800, Note_on_c, 0, 42, 0
2, 14801, Note_on_c, 0, 52, 0
2, 14801, Note_on_c, 0, 59, 0
2, 14803, Note_on_c, 0, 56, 0
2, 14807, Note_on_c, 0, 63, 0
2, 14973, Note_on_c, 0, 63, 27
2, 14973, Note_on_c, 0, 30, 31
2, 14973, Note_on_c, 0, 42, 28
2, 14974, Note_on_c, 0, 52, 38
2, 14977, Note_on_c, 0, 56, 28
2, 14982, Note_on_c, 0, 59, 36
2, 15014, Note_on_c, 0, 30, 0
2, 15017, Note_on_c, 0, 59, 0
2, 15020, Note_on_c, 0, 42, 0
2, 15021, Note_on_c, 0, 56, 0
2, 15023, Note_on_c, 0, 52, 0
2, 15026, Note_on_c, 0, 63, 0
2, 15090, Note_on_c, 0, 63, 32
2, 15092, Note_on_c, 0, 30, 29
2, 15092, Note_on_c, 0, 42, 25
2, 15094, Note_on_c, 0, 52, 27
2, 15095, Note_on_c, 0, 56, 26
2, 15098, Note_on_c, 0, 59, 42
2, 15144, Control_c, 0, 64, 127
2, 15254, Note_on_c, 0, 52, 0
2, 15267, Note_on_c, 0, 59, 0
2, 15272, Note_on_c, 0, 56, 0
2, 15282, Note_on_c, 0, 30, 0
2, 15289, Note_on_c, 0, 42, 0
2, 15292, Note_on_c, 0, 63, 0
2, 15441, Note_on_c, 0, 82, 59
2, 15448, Note_on_c, 0, 59, 49
2, 15456, Note_on_c, 0, 83, 68
2, 15458, Note_on_c, 0, 82, 0
2, 15489, Control_c, 0, 64, 0
2, 15490, Note_on_c, 0, 83, 0
2, 15498, Note_on_c, 0, 86, 88
2, 15500, Note_on_c, 0, 74, 82
2, 15500, Note_on_c, 0, 62, 90
2, 15504, Note_on_c, 0, 59, 0
2, 15527, Control_c, 0, 64, 127
2, 15559, Note_on_c, 0, 86, 0
2, 15562, Note_on_c, 0, 74, 0
2, 15569, Note_on_c, 0, 62, 0
2, 15577, Control_c, 0, 64, 0
2, 15578, Note_on_c, 0, 86, 80
2, 15579, Note_on_c, 0, 74, 78
2, 15581, Note_on_c, 0, 62, 80
2, 15607, Control_c, 0, 64, 127
2, 15644, Note_on_c, 0, 86, 0
2, 15649, Note_on_c, 0, 74, 0
2, 15659, Note_on_c, 0, 62, 0
2, 15678, Note_on_c, 0, 86, 78
2, 15679, Note_on_c, 0, 62, 66
2, 15682, Note_on_c, 0, 74, 73
2, 15748, Note_on_c, 0, 86, 0
2, 15754, Note_on_c, 0, 74, 0
2, 15780, Note_on_c, 0, 86, 53
2, 15783, Note_on_c, 0, 62, 0
2, 15783, Control_c, 0, 64, 0
2, 15783, Note_on_c, 0, 50, 45
2, 15783, Note_on_c, 0, 74, 35
2, 15805, Control_c, 0, 64, 127
2, 15898, Note_on_c, 0, 86, 0
2, 15898, Note_on_c, 0, 59, 44
2, 15916, Note_on_c, 0, 74, 0
2, 16002, Note_on_c, 0, 60, 55
2, 16008, Note_on_c, 0, 59, 0
2, 16073, Note_on_c, 0, 64, 64
2, 16123, Note_on_c, 0, 64, 0
2, 16141, Note_on_c, 0, 67, 78
2, 16185, Note_on_c, 0, 67, 0
2, 16205, Note_on_c, 0, 74, 85
2, 16238, Note_on_c, 0, 50, 0
2, 16263, Note_on_c, 0, 74, 0
2, 16276, Note_on_c, 0, 71, 63
2, 16280, Note_on_c, 0, 60, 0
2, 16282, Control_c, 0, 64, 0
2, 16283, Note_on_c, 0, 50, 32
2, 16319, Control_c, 0, 64, 127
2, 16359, Note_on_c, 0, 59, 33
2, 16427, Note_on_c, 0, 59, 0
2, 16440, Note_on_c, 0, 72, 40
2, 16441, Note_on_c, 0, 60, 33
2, 16449, Note_on_c, 0, 50, 0
2, 16451, Note_on_c, 0, 71, 0
2, 16461, Note_on_c, 0, 60, 0
2, 16530, Note_on_c, 0, 64, 39
2, 16538, Note_on_c, 0, 72, 0
2, 16621, Note_on_c, 0, 64, 0
2, 16627, Note_on_c, 0, 79, 28
2, 16629, Note_on_c, 0, 67, 34
2, 16696, Note_on_c, 0, 67, 0
2, 16727, Note_on_c, 0, 86, 57
2, 16729, Note_on_c, 0, 71, 41
2, 16771, Note_on_c, 0, 79, 0
2, 16873, Note_on_c, 0, 86, 0
2, 16893, Note_on_c, 0, 71, 0
2, 16896, Note_on_c, 0, 84, 58
2, 17011, Note_on_c, 0, 86, 74
2, 17052, Note_on_c, 0, 84, 0
2, 17135, Note_on_c, 0, 86, 0
2, 17165, Note_on_c, 0, 63, 40
2, 17169, Note_on_c, 0, 87, 49
2, 17170, Note_on_c, 0, 53, 24
2, 17172, Note_on_c, 0, 58, 39
2, 17189, Control_c, 0, 64, 0
2, 17212, Note_on_c, 0, 87, 0
2, 17222, Note_on_c, 0, 89, 46
2, 17259, Note_on_c, 0, 89, 0
2, 17270, Note_on_c, 0, 84, 42
2, 17273, Note_on_c, 0, 53, 0
2, 17283, Note_on_c, 0, 84, 0
2, 17284, Note_on_c, 0, 63, 0
2, 17287, Note_on_c, 0, 58, 0
2, 17405, Note_on_c, 0, 75, 46
2, 17435, Note_on_c, 0, 75, 0
2, 17447, Note_on_c, 0, 77, 44
2, 17482, Note_on_c, 0, 77, 0
2, 17490, Note_on_c, 0, 72, 37
2, 17504, Note_on_c, 0, 72, 0
2, 17564, Note_on_c, 0, 87, 50
2, 17594, Note_on_c, 0, 87, 0
2, 17603, Note_on_c, 0, 89, 54
2, 17634, Note_on_c, 0, 89, 0
2, 17647, Note_on_c, 0, 84, 55
2, 17655, Note_on_c, 0, 84, 0
2, 17705, Note_on_c, 0, 65, 45
2, 17716, Note_on_c, 0, 65, 0
2, 17717, Note_on_c, 0, 99, 62
2, 17751, Note_on_c, 0, 99, 0
2, 17759, Note_on_c, 0, 101, 52
2, 17802, Note_on_c, 0, 101, 0
2, 17805, Note_on_c, 0, 96, 54
2, 17841, Note_on_c, 0, 96, 0
2, 17864, Note_on_c, 0, 53, 56
2, 17871, Note_on_c, 0, 99, 52
2, 17882, Note_on_c, 0, 53, 0
2, 17903, Note_on_c, 0, 99, 0
2, 17956, Note_on_c, 0, 94, 48
2, 17957, Note_on_c, 0, 48, 40
2, 17968, Note_on_c, 0, 48, 0
2, 17990, Note_on_c, 0, 94, 0
2, 18042, Note_on_c, 0, 41, 37
2, 18043, Note_on_c, 0, 96, 34
2, 18068, Note_on_c, 0, 96, 0
2, 18122, Note_on_c, 0, 41, 0
2, 18132, Note_on_c, 0, 29, 34
2, 18136, Note_on_c, 0, 91, 34
2, 18168, Note_on_c, 0, 91, 0
2, 18176, Control_c, 0, 64, 127
2, 18245, Note_on_c, 0, 84, 37
2, 18273, Note_on_c, 0, 84, 0
2, 18357, Note_on_c, 0, 87, 44
2, 18362, Note_on_c, 0, 41, 26
2, 18653, Note_on_c, 0, 87, 0
2, 18801, Note_on_c, 0, 81, 31
2, 18812, Note_on_c, 0, 82, 42
2, 18822, Note_on_c, 0, 59, 61
2, 18822, Note_on_c, 0, 83, 63
2, 18825, Note_on_c, 0, 82, 0
2, 18825, Note_on_c, 0, 81, 0
2, 18851, Note_on_c, 0, 83, 0
2, 18860, Note_on_c, 0, 86, 95
2, 18864, Note_on_c, 0, 59, 0
2, 18867, Note_on_c, 0, 62, 91
2, 18878, Note_on_c, 0, 29, 0
2, 18887, Note_on_c, 0, 41, 0
2, 18915, Note_on_c, 0, 86, 0
2, 18931, Note_on_c, 0, 62, 0
2, 18950, Note_on_c, 0, 86, 108
2, 18951, Note_on_c, 0, 62, 90
2, 18988, Control_c, 0, 64, 127
2, 19120, Note_on_c, 0, 86, 0
2, 19142, Note_on_c, 0, 62, 0
2, 19544, Note_on_c, 0, 64, 68
2, 19545, Note_on_c, 0, 55, 69
2, 19545, Note_on_c, 0, 60, 66
2, 19547, Note_on_c, 0, 38, 57
2, 19549, Note_on_c, 0, 26, 60
2, 19602, Note_on_c, 0, 55, 0
2, 19608, Note_on_c, 0, 26, 0
2, 19619, Note_on_c, 0, 60, 0
2, 19629, Note_on_c, 0, 38, 0
2, 19641, Note_on_c, 0, 64, 0
2, 19695, Note_on_c, 0, 66, 75
2, 19695, Note_on_c, 0, 57, 74
2, 19696, Note_on_c, 0, 40, 71
2, 19698, Note_on_c, 0, 62, 74
2, 19701, Note_on_c, 0, 28, 60
2, 19702, Control_c, 0, 64, 0
2, 19747, Control_c, 0, 64, 127
2, 19803, Note_on_c, 0, 62, 0
2, 19813, Note_on_c, 0, 66, 0
2, 19814, Note_on_c, 0, 40, 0
2, 19815, Note_on_c, 0, 28, 0
2, 19818, Note_on_c, 0, 57, 0
2, 19887, Note_on_c, 0, 63, 48
2, 19889, Note_on_c, 0, 54, 38
2, 19890, Note_on_c, 0, 59, 55
2, 19892, Note_on_c, 0, 37, 48
2, 19893, Note_on_c, 0, 25, 52
2, 19898, Control_c, 0, 64, 0
2, 19951, Control_c, 0, 64, 127
2, 19973, Note_on_c, 0, 25, 0
2, 19980, Note_on_c, 0, 59, 0
2, 19983, Note_on_c, 0, 37, 0
2, 19988, Note_on_c, 0, 54, 0
2, 20010, Note_on_c, 0, 63, 0
2, 20076, Control_c, 0, 64, 0
2, 20077, Note_on_c, 0, 55, 41
2, 20078, Note_on_c, 0, 38, 42
2, 20079, Note_on_c, 0, 64, 43
2, 20080, Note_on_c, 0, 60, 36
2, 20085, Note_on_c, 0, 26, 30
2, 20126, Control_c, 0, 64, 127
2, 20133, Note_on_c, 0, 55, 0
2, 20144, Note_on_c, 0, 60, 0
2, 20144, Note_on_c, 0, 26, 0
2, 20156, Note_on_c, 0, 64, 0
2, 20163, Note_on_c, 0, 38, 0
2, 20279, Note_on_c, 0, 74, 46
2, 20286, Note_on_c, 0, 86, 48
2, 20288, Note_on_c, 0, 62, 39
2, 20311, Note_on_c, 0, 74, 0
2, 20330, Note_on_c, 0, 86, 0
2, 20383, Note_on_c, 0, 62, 0
2, 20466, Note_on_c, 0, 86, 49
2, 20481, Note_on_c, 0, 74, 38
2, 20487, Note_on_c, 0, 98, 54
2, 20588, Note_on_c, 0, 98, 0
2, 20590, Note_on_c, 0, 74, 0
2, 20667, Note_on_c, 0, 86, 0
2, 20887, Note_on_c, 0, 84, 71
2, 20907, Note_on_c, 0, 84, 0
2, 20922, Control_c, 0, 64, 0
2, 20925, Note_on_c, 0, 86, 88
2, 20947, Note_on_c, 0, 86, 0
2, 20966, Note_on_c, 0, 86, 59
2, 20966, Note_on_c, 0, 87, 82
2, 20974, Note_on_c, 0, 86, 0
2, 20993, Note_on_c, 0, 87, 0
2, 21007, Note_on_c, 0, 89, 73
2, 21013, Control_c, 0, 64, 127
2, 21023, Control_c, 0, 64, 0
2, 21035, Note_on_c, 0, 89, 0
2, 21050, Note_on_c, 0, 84, 68
2, 21067, Note_on_c, 0, 84, 0
2, 21111, Note_on_c, 0, 53, 45
2, 21161, Control_c, 0, 64, 127
2, 21179, Note_on_c, 0, 58, 31
2, 21253, Note_on_c, 0, 60, 34
2, 21290, Note_on_c, 0, 60, 0
2, 21293, Note_on_c, 0, 63, 46
2, 21332, Note_on_c, 0, 67, 39
2, 21352, Note_on_c, 0, 67, 0
2, 21368, Note_on_c, 0, 70, 37
2, 21386, Control_c, 0, 64, 0
2, 21392, Note_on_c, 0, 70, 0
2, 21397, Note_on_c, 0, 75, 60
2, 21415, Note_on_c, 0, 75, 0
2, 21479, Note_on_c, 0, 82, 62
2, 21493, Note_on_c, 0, 82, 0
2, 21514, Note_on_c, 0, 87, 64
2, 21536, Note_on_c, 0, 87, 0
2, 21557, Note_on_c, 0, 89, 79
2, 21580, Note_on_c, 0, 89, 0
2, 21602, Note_on_c, 0, 86, 68
2, 21612, Note_on_c, 0, 86, 0
2, 21653, Note_on_c, 0, 87, 57
2, 21679, Note_on_c, 0, 87, 0
2, 21704, Note_on_c, 0, 79, 32
2, 21729, Note_on_c, 0, 79, 0
2, 21754, Note_on_c, 0, 86, 65
2, 21769, Note_on_c, 0, 86, 0
2, 21781, Note_on_c, 0, 53, 0
2, 21787, Note_on_c, 0, 58, 0
2, 21789, Note_on_c, 0, 63, 0
2, 21805, Note_on_c, 0, 84, 66
2, 21830, Note_on_c, 0, 84, 0
2, 21847, Note_on_c, 0, 77, 53
2, 21872, Note_on_c, 0, 77, 0
2, 21888, Note_on_c, 0, 75, 42
2, 21921, Note_on_c, 0, 75, 0
2, 21931, Note_on_c, 0, 74, 49
2, 21955, Note_on_c, 0, 74, 0
2, 21968, Note_on_c, 0, 77, 49
2, 21998, Note_on_c, 0, 77, 0
2, 22011, Note_on_c, 0, 75, 48
2, 22048, Note_on_c, 0, 75, 0
2, 22058, Note_on_c, 0, 67, 35
2, 22072, Note_on_c, 0, 53, 37
2, 22172, Note_on_c, 0, 74, 55
2, 22174, Note_on_c, 0, 67, 0
2, 22175, Control_c, 0, 64, 127
2, 22229, Note_on_c, 0, 60, 1
2, 22280, Note_on_c, 0, 63, 18
2, 22300, Note_on_c, 0, 60, 0
2, 22389, Note_on_c, 0, 60, 17
2, 22481, Note_on_c, 0, 63, 0
2, 22501, Note_on_c, 0, 62, 24
2, 22510, Note_on_c, 0, 60, 0
2, 22634, Note_on_c, 0, 62, 0
2, 22671, Note_on_c, 0, 60, 25
2, 22678, Note_on_c, 0, 74, 0
2, 22725, Note_on_c, 0, 60, 0
2, 22785, Note_on_c, 0, 53, 0
2, 22888, Note_on_c, 0, 83, 89
2, 22890, Note_on_c, 0, 59, 80
2, 22900, Control_c, 0, 64, 0
2, 22922, Control_c, 0, 64, 127
2, 23028, Note_on_c, 0, 59, 0
2, 23082, Note_on_c, 0, 84, 38
2, 23093, Note_on_c, 0, 83, 0
2, 23097, Note_on_c, 0, 85, 73
2, 23103, Note_on_c, 0, 61, 50
2, 23107, Note_on_c, 0, 84, 0
2, 23118, Control_c, 0, 64, 0
2, 23119, Note_on_c, 0, 85, 0
2, 23124, Note_on_c, 0, 86, 91
2, 23127, Note_on_c, 0, 61, 0
2, 23129, Note_on_c, 0, 62, 83
2, 23183, Control_c, 0, 64, 127
2, 23251, Note_on_c, 0, 62, 0
2, 23292, Note_on_c, 0, 86, 0
2, 23394, Note_on_c, 0, 62, 70
2, 23401, Note_on_c, 0, 86, 70
2, 23754, Note_on_c, 0, 62, 0
2, 23761, Note_on_c, 0, 86, 0
2, 23894, Control_c, 0, 64, 0
2, 23897, Note_on_c, 0, 64, 49
2, 23899, Note_on_c, 0, 38, 40
2, 23900, Note_on_c, 0, 55, 44
2, 23900, Note_on_c, 0, 60, 36
2, 23901, Note_on_c, 0, 59, 45
2, 23903, Note_on_c, 0, 26, 34
2, 23919, Control_c, 0, 64, 127
2, 23932, Note_on_c, 0, 60, 0
2, 23944, Note_on_c, 0, 64, 0
2, 23947, Note_on_c, 0, 59, 0
2, 23948, Note_on_c, 0, 55, 0
2, 23952, Note_on_c, 0, 26, 0
2, 23972, Note_on_c, 0, 38, 0
2, 24016, Note_on_c, 0, 40, 50
2, 24019, Note_on_c, 0, 66, 51
2, 24021, Note_on_c, 0, 57, 50
2, 24022, Note_on_c, 0, 28, 39
2, 24022, Note_on_c, 0, 61, 38
2, 24023, Note_on_c, 0, 62, 51
2, 24030, Control_c, 0, 64, 0
2, 24075, Control_c, 0, 64, 127
2, 24328, Note_on_c, 0, 28, 0
2, 24329, Note_on_c, 0, 40, 0
2, 24371, Note_on_c, 0, 57, 0
2, 24393, Note_on_c, 0, 62, 0
2, 24395, Note_on_c, 0, 66, 0
2, 24405, Note_on_c, 0, 61, 0
2, 24590, Note_on_c, 0, 64, 51
2, 24592, Note_on_c, 0, 38, 39
2, 24595, Note_on_c, 0, 55, 34
2, 24597, Note_on_c, 0, 26, 35
2, 24601, Control_c, 0, 64, 0
2, 24601, Note_on_c, 0, 60, 29
2, 24601, Note_on_c, 0, 59, 32
2, 24631, Control_c, 0, 64, 127
2, 24651, Note_on_c, 0, 59, 0
2, 24652, Note_on_c, 0, 64, 0
2, 24657, Note_on_c, 0, 60, 0
2, 24662, Note_on_c, 0, 26, 0
2, 24665, Note_on_c, 0, 38, 0
2, 24666, Note_on_c, 0, 55, 0
2, 24706, Control_c, 0, 64, 0
2, 24708, Note_on_c, 0, 63, 50
2, 24711, Note_on_c, 0, 54, 40
2, 24714, Note_on_c, 0, 58, 46
2, 24716, Note_on_c, 0, 37, 42
2, 24717, Note_on_c, 0, 25, 42
2, 24751, Control_c, 0, 64, 127
2, 24779, Note_on_c, 0, 25, 0
2, 24779, Note_on_c, 0, 54, 0
2, 24782, Note_on_c, 0, 37, 0
2, 24783, Note_on_c, 0, 58, 0
2, 24797, Note_on_c, 0, 63, 0
2, 24800, Note_on_c, 0, 55, 39
2, 24800, Note_on_c, 0, 26, 32
2, 24801, Note_on_c, 0, 38, 51
2, 24801, Note_on_c, 0, 60, 48
2, 24802, Note_on_c, 0, 64, 57
2, 24806, Control_c, 0, 64, 0
2, 24877, Control_c, 0, 64, 127
2, 24926, Note_on_c, 0, 55, 0
2, 24950, Note_on_c, 0, 60, 0
2, 24983, Note_on_c, 0, 64, 0
2, 25055, Note_on_c, 0, 26, 0
2, 25085, Note_on_c, 0, 72, 84
2, 25089, Note_on_c, 0, 38, 0
2, 25143, Note_on_c, 0, 72, 0
2, 25171, Note_on_c, 0, 74, 95
2, 25232, Note_on_c, 0, 74, 0
2, 25248, Note_on_c, 0, 75, 84
2, 25248, Note_on_c, 0, 53, 60
2, 25250, Control_c, 0, 64, 0
2, 25319, Note_on_c, 0, 77, 59
2, 25321, Note_on_c, 0, 75, 0
2, 25321, Control_c, 0, 64, 127
2, 25323, Note_on_c, 0, 58, 38
2, 25380, Control_c, 0, 64, 0
2, 25381, Note_on_c, 0, 77, 0
2, 25392, Note_on_c, 0, 72, 37
2, 25406, Note_on_c, 0, 60, 22
2, 25439, Note_on_c, 0, 60, 0
2, 25457, Note_on_c, 0, 63, 37
2, 25466, Control_c, 0, 64, 127
2, 25511, Note_on_c, 0, 72, 0
2, 25521, Note_on_c, 0, 67, 44
2, 25559, Note_on_c, 0, 53, 0
2, 25575, Note_on_c, 0, 63, 0
2, 25578, Note_on_c, 0, 67, 0
2, 25582, Note_on_c, 0, 69, 52
2, 25635, Note_on_c, 0, 70, 74
2, 25640, Note_on_c, 0, 69, 0
2, 25681, Note_on_c, 0, 70, 0
2, 25691, Note_on_c, 0, 72, 67
2, 25702, Note_on_c, 0, 65, 32
2, 25746, Note_on_c, 0, 72, 0
2, 25746, Control_c, 0, 64, 0
2, 25762, Note_on_c, 0, 53, 45
2, 25762, Note_on_c, 0, 74, 53
2, 25768, Note_on_c, 0, 65, 0
2, 25774, Note_on_c, 0, 58, 0
2, 25821, Control_c, 0, 64, 127
2, 25982, Note_on_c, 0, 74, 0
2, 25991, Note_on_c, 0, 70, 43
2, 25997, Control_c, 0, 64, 0
2, 26057, Control_c, 0, 64, 127
2, 26092, Note_on_c, 0, 70, 0
2, 26099, Note_on_c, 0, 65, 34
2, 26101, Note_on_c, 0, 63, 33
2, 26102, Note_on_c, 0, 58, 23
2, 26102, Note_on_c, 0, 69, 48
2, 26103, Control_c, 0, 64, 0
2, 26125, Control_c, 0, 64, 127
2, 26244, Note_on_c, 0, 72, 47
2, 26245, Note_on_c, 0, 63, 0
2, 26246, Note_on_c, 0, 69, 0
2, 26250, Note_on_c, 0, 58, 0
2, 26275, Note_on_c, 0, 53, 0
2, 26321, Note_on_c, 0, 65, 0
2, 26337, Note_on_c, 0, 67, 47
2, 26339, Note_on_c, 0, 53, 39
2, 26346, Control_c, 0, 64, 0
2, 26397, Note_on_c, 0, 72, 0
2, 26401, Control_c, 0, 64, 127
2, 26441, Note_on_c, 0, 67, 0
2, 26447, Note_on_c, 0, 65, 46
2, 26477, Note_on_c, 0, 58, 21
2, 26508, Note_on_c, 0, 58, 0
2, 26527, Note_on_c, 0, 65, 0
2, 26593, Note_on_c, 0, 63, 39
2, 26864, Note_on_c, 0, 63, 0
2, 26867, Note_on_c, 0, 77, 69
2, 26909, Note_on_c, 0, 77, 0
2, 26910, Note_on_c, 0, 53, 0
2, 26953, Note_on_c, 0, 77, 67
2, 27012, Note_on_c, 0, 77, 0
2, 27042, Note_on_c, 0, 77, 64
2, 27050, Note_on_c, 0, 70, 37
2, 27054, Note_on_c, 0, 51, 30
2, 27057, Control_c, 0, 64, 0
2, 27115, Control_c, 0, 64, 127
2, 27136, Note_on_c, 0, 58, 33
2, 27172, Note_on_c, 0, 51, 0
2, 27192, Note_on_c, 0, 58, 0
2, 27227, Note_on_c, 0, 65, 39
2, 27227, Note_on_c, 0, 66, 37
2, 27256, Note_on_c, 0, 77, 0
2, 27269, Note_on_c, 0, 65, 0
2, 27303, Note_on_c, 0, 77, 66
2, 27341, Note_on_c, 0, 70, 0
2, 27352, Note_on_c, 0, 66, 0
2, 27357, Note_on_c, 0, 77, 0
2, 27372, Note_on_c, 0, 77, 38
2, 27374, Note_on_c, 0, 66, 37
2, 27377, Note_on_c, 0, 71, 60
2, 27379, Note_on_c, 0, 51, 43
2, 27388, Control_c, 0, 64, 0
2, 27445, Note_on_c, 0, 59, 41
2, 27456, Control_c, 0, 64, 127
2, 27475, Note_on_c, 0, 66, 0
2, 27478, Note_on_c, 0, 51, 0
2, 27512, Note_on_c, 0, 65, 47
2, 27514, Note_on_c, 0, 66, 46
2, 27540, Note_on_c, 0, 77, 0
2, 27548, Note_on_c, 0, 65, 0
2, 27565, Note_on_c, 0, 71, 0
2, 27574, Note_on_c, 0, 77, 68
2, 27611, Note_on_c, 0, 66, 0
2, 27612, Note_on_c, 0, 77, 0
2, 27643, Note_on_c, 0, 59, 0
2, 27646, Note_on_c, 0, 77, 57
2, 27649, Control_c, 0, 64, 0
2, 27649, Note_on_c, 0, 66, 34
2, 27653, Note_on_c, 0, 72, 32
2, 27653, Note_on_c, 0, 51, 37
2, 27731, Control_c, 0, 64, 127
2, 27745, Note_on_c, 0, 66, 0
2, 27748, Note_on_c, 0, 72, 0
2, 27750, Note_on_c, 0, 60, 10
2, 27831, Note_on_c, 0, 66, 32
2, 27838, Note_on_c, 0, 72, 28
2, 27891, Note_on_c, 0, 51, 0
2, 27932, Note_on_c, 0, 51, 35
2, 27934, Note_on_c, 0, 72, 0
2, 27953, Note_on_c, 0, 66, 0
2, 27975, Note_on_c, 0, 60, 0
2, 28055, Note_on_c, 0, 66, 31
2, 28060, Note_on_c, 0, 72, 28
2, 28062, Control_c, 0, 64, 0
2, 28063, Note_on_c, 0, 59, 29
2, 28125, Control_c, 0, 64, 127
2, 28238, Note_on_c, 0, 77, 0
2, 28250, Note_on_c, 0, 75, 73
2, 28333, Note_on_c, 0, 75, 0
2, 28351, Note_on_c, 0, 72, 0
2, 28370, Note_on_c, 0, 75, 71
2, 28491, Note_on_c, 0, 66, 0
2, 28492, Note_on_c, 0, 75, 0
2, 28510, Note_on_c, 0, 76, 67
2, 28526, Note_on_c, 0, 51, 0
2, 28555, Note_on_c, 0, 59, 0
2, 28584, Note_on_c, 0, 76, 0
2, 28626, Control_c, 0, 64, 0
2, 28634, Note_on_c, 0, 76, 68
2, 28637, Note_on_c, 0, 49, 48
2, 28659, Control_c, 0, 64, 127
2, 28672, Note_on_c, 0, 76, 0
2, 28676, Note_on_c, 0, 49, 0
2, 28948, Note_on_c, 0, 78, 47
2, 29070, Note_on_c, 0, 59, 60
2, 29072, Note_on_c, 0, 63, 25
2, 29075, Note_on_c, 0, 73, 39
2, 29076, Note_on_c, 0, 58, 39
2, 29078, Note_on_c, 0, 59, 54
2, 29091, Note_on_c, 0, 78, 0
2, 29124, Note_on_c, 0, 59, 0
2, 29130, Note_on_c, 0, 59, 0
2, 29141, Note_on_c, 0, 63, 0
2, 29145, Note_on_c, 0, 58, 0
2, 29202, Note_on_c, 0, 63, 38
2, 29206, Note_on_c, 0, 58, 46
2, 29208, Note_on_c, 0, 59, 61
2, 29249, Note_on_c, 0, 59, 0
2, 29260, Note_on_c, 0, 58, 0
2, 29263, Note_on_c, 0, 63, 0
2, 29383, Note_on_c, 0, 63, 56
2, 29385, Note_on_c, 0, 59, 60
2, 29386, Note_on_c, 0, 58, 71
2, 29387, Note_on_c, 0, 54, 51
2, 29438, Note_on_c, 0, 58, 0
2, 29445, Note_on_c, 0, 59, 0
2, 29446, Note_on_c, 0, 54, 0
2, 29447, Note_on_c, 0, 63, 0
2, 29482, Note_on_c, 0, 63, 60
2, 29485, Note_on_c, 0, 59, 72
2, 29486, Note_on_c, 0, 54, 54
2, 29504, Note_on_c, 0, 63, 0
2, 29510, Note_on_c, 0, 59, 0
2, 29516, Note_on_c, 0, 54, 0
2, 29584, Note_on_c, 0, 49, 68
2, 29586, Note_on_c, 0, 37, 75
2, 29649, Note_on_c, 0, 37, 0
2, 29655, Note_on_c, 0, 49, 0
2, 29701, Note_on_c, 0, 37, 60
2, 29702, Note_on_c, 0, 49, 62
2, 29721, Note_on_c, 0, 37, 0
2, 29732, Note_on_c, 0, 49, 0
2, 29819, Note_on_c, 0, 63, 34
2, 29826, Note_on_c, 0, 59, 47
2, 29827, Note_on_c, 0, 58, 39
2, 29873, Note_on_c, 0, 59, 0
2, 29887, Note_on_c, 0, 63, 0
2, 29892, Note_on_c, 0, 58, 0
2, 30019, Note_on_c, 0, 63, 19
2, 30020, Note_on_c, 0, 58, 33
2, 30023, Note_on_c, 0, 59, 46
2, 30063, Note_on_c, 0, 59, 0
2, 30083, Note_on_c, 0, 58, 0
2, 30087, Note_on_c, 0, 63, 0
2, 30145, Note_on_c, 0, 63, 21
2, 30150, Note_on_c, 0, 58, 36
2, 30152, Note_on_c, 0, 59, 46
2, 30190, Note_on_c, 0, 59, 0
2, 30212, Note_on_c, 0, 58, 0
2, 30217, Note_on_c, 0, 63, 0
2, 30272, Note_on_c, 0, 73, 0
2, 30280, Note_on_c, 0, 63, 19
2, 30281, Note_on_c, 0, 58, 39
2, 30283, Note_on_c, 0, 59, 54
2, 30364, Note_on_c, 0, 63, 0
2, 30372, Note_on_c, 0, 81, 27
2, 30380, Note_on_c, 0, 59, 0
2, 30390, Note_on_c, 0, 82, 42
2, 30396, Note_on_c, 0, 58, 0
2, 30402, Note_on_c, 0, 83, 58
2, 30408, Note_on_c, 0, 82, 0
2, 30414, Note_on_c, 0, 81, 0
2, 30428, Note_on_c, 0, 83, 0
2, 30438, Note_on_c, 0, 86, 95
2, 30439, Note_on_c, 0, 74, 80
2, 30443, Note_on_c, 0, 76, 74
2, 30452, Note_on_c, 0, 76, 0
2, 30478, Note_on_c, 0, 86, 0
2, 30484, Note_on_c, 0, 74, 0
2, 30507, Note_on_c, 0, 86, 92
2, 30507, Note_on_c, 0, 74, 83
2, 30541, Note_on_c, 0, 86, 0
2, 30545, Note_on_c, 0, 74, 0
2, 30570, Note_on_c, 0, 86, 91
2, 30571, Note_on_c, 0, 74, 80
2, 30604, Note_on_c, 0, 86, 0
2, 30611, Note_on_c, 0, 74, 0
2, 30647, Note_on_c, 0, 74, 68
2, 30648, Control_c, 0, 64, 0
2, 30649, Note_on_c, 0, 86, 75
2, 30649, Note_on_c, 0, 50, 50
2, 30651, Note_on_c, 0, 60, 48
2, 30652, Note_on_c, 0, 82, 57
2, 30692, Note_on_c, 0, 82, 0
2, 30696, Note_on_c, 0, 83, 31
2, 30711, Note_on_c, 0, 74, 0
2, 30721, Control_c, 0, 64, 127
2, 30751, Note_on_c, 0, 83, 0
2, 30757, Note_on_c, 0, 50, 0
2, 30760, Note_on_c, 0, 74, 49
2, 30772, Note_on_c, 0, 60, 0
2, 30793, Note_on_c, 0, 86, 0
2, 30825, Note_on_c, 0, 74, 0
2, 30858, Note_on_c, 0, 74, 38
2, 30860, Note_on_c, 0, 64, 29
2, 30864, Note_on_c, 0, 59, 25
2, 30865, Note_on_c, 0, 60, 34
2, 30952, Note_on_c, 0, 74, 0
2, 31050, Note_on_c, 0, 64, 0
2, 31054, Note_on_c, 0, 60, 0
2, 31058, Note_on_c, 0, 59, 0
2, 31071, Note_on_c, 0, 81, 73
2, 31078, Note_on_c, 0, 72, 49
2, 31111, Note_on_c, 0, 81, 0
2, 31118, Note_on_c, 0, 72, 0
2, 31168, Note_on_c, 0, 79, 57
2, 31170, Note_on_c, 0, 72, 39
2, 31174, Control_c, 0, 64, 0
2, 31181, Note_on_c, 0, 50, 30
2, 31182, Note_on_c, 0, 60, 33
2, 31219, Control_c, 0, 64, 127
2, 31227, Note_on_c, 0, 79, 0
2, 31252, Note_on_c, 0, 72, 0
2, 31255, Note_on_c, 0, 60, 0
2, 31263, Note_on_c, 0, 57, 30
2, 31341, Note_on_c, 0, 76, 47
2, 31344, Note_on_c, 0, 67, 46
2, 31346, Note_on_c, 0, 57, 0
2, 31352, Note_on_c, 0, 60, 24
2, 31390, Note_on_c, 0, 76, 0
2, 31405, Note_on_c, 0, 67, 0
2, 31426, Note_on_c, 0, 60, 0
2, 31428, Note_on_c, 0, 57, 34
2, 31475, Note_on_c, 0, 50, 0
2, 31521, Note_on_c, 0, 71, 45
2, 31522, Note_on_c, 0, 57, 0
2, 31525, Note_on_c, 0, 64, 48
2, 31529, Note_on_c, 0, 60, 26
2, 31531, Note_on_c, 0, 50, 27
2, 31535, Control_c, 0, 64, 0
2, 31600, Control_c, 0, 64, 127
2, 31625, Note_on_c, 0, 60, 0
2, 31630, Note_on_c, 0, 57, 25
2, 31648, Note_on_c, 0, 64, 0
2, 31722, Note_on_c, 0, 71, 0
2, 31738, Note_on_c, 0, 67, 32
2, 31744, Note_on_c, 0, 64, 30
2, 31745, Note_on_c, 0, 60, 24
2, 31772, Note_on_c, 0, 60, 0
2, 31796, Note_on_c, 0, 64, 0
2, 31808, Note_on_c, 0, 67, 0
2, 31846, Note_on_c, 0, 60, 38
2, 31945, Note_on_c, 0, 72, 110
2, 31988, Note_on_c, 0, 72, 0
2, 32005, Note_on_c, 0, 72, 88
2, 32011, Note_on_c, 0, 50, 0
2, 32014, Note_on_c, 0, 57, 0
2, 32039, Note_on_c, 0, 72, 0
2, 32043, Note_on_c, 0, 60, 0
2, 32062, Note_on_c, 0, 74, 110
2, 32098, Note_on_c, 0, 74, 0
2, 32121, Note_on_c, 0, 74, 99
2, 32165, Note_on_c, 0, 74, 0
2, 32183, Note_on_c, 0, 53, 59
2, 32184, Note_on_c, 0, 75, 87
2, 32185, Note_on_c, 0, 63, 52
2, 32187, Control_c, 0, 64, 0
2, 32187, Note_on_c, 0, 58, 49
2, 32249, Note_on_c, 0, 75, 0
2, 32252, Control_c, 0, 64, 127
2, 32259, Note_on_c, 0, 77, 73
2, 32262, Note_on_c, 0, 63, 0
2, 32270, Note_on_c, 0, 60, 45
2, 32306, Note_on_c, 0, 77, 0
2, 32346, Note_on_c, 0, 60, 0
2, 32347, Note_on_c, 0, 63, 53
2, 32347, Note_on_c, 0, 72, 108
2, 32350, Control_c, 0, 64, 0
2, 32372, Control_c, 0, 64, 127
2, 32408, Note_on_c, 0, 72, 0
2, 32431, Note_on_c, 0, 53, 0
2, 32441, Note_on_c, 0, 63, 0
2, 32441, Note_on_c, 0, 72, 101
2, 32489, Note_on_c, 0, 72, 0
2, 32539, Note_on_c, 0, 72, 73
2, 32540, Note_on_c, 0, 70, 86
2, 32541, Note_on_c, 0, 65, 77
2, 32548, Control_c, 0, 64, 0
2, 32598, Control_c, 0, 64, 127
2, 32626, Note_on_c, 0, 72, 0
2, 32637, Note_on_c, 0, 70, 0
2, 32638, Note_on_c, 0, 65, 0
2, 32652, Note_on_c, 0, 72, 54
2, 32653, Note_on_c, 0, 58, 0
2, 32690, Note_on_c, 0, 72, 0
2, 32748, Note_on_c, 0, 67, 66
2, 32748, Note_on_c, 0, 70, 70
2, 32750, Note_on_c, 0, 53, 53
2, 32837, Note_on_c, 0, 53, 0
2, 32840, Note_on_c, 0, 70, 0
2, 32844, Note_on_c, 0, 41, 69
2, 32846, Note_on_c, 0, 67, 0
2, 32874, Note_on_c, 0, 41, 0
2, 32957, Note_on_c, 0, 58, 75
2, 32959, Note_on_c, 0, 67, 69
2, 32960, Note_on_c, 0, 63, 58
2, 32960, Note_on_c, 0, 41, 65
2, 32961, Note_on_c, 0, 55, 71
2, 32963, Control_c, 0, 64, 0
2, 33016, Control_c, 0, 64, 127
2, 33046, Note_on_c, 0, 55, 0
2, 33060, Note_on_c, 0, 58, 0
2, 33064, Note_on_c, 0, 29, 65
2, 33068, Note_on_c, 0, 63, 0
2, 33076, Note_on_c, 0, 67, 0
2, 33085, Note_on_c, 0, 29, 0
2, 33086, Note_on_c, 0, 41, 0
2, 33181, Note_on_c, 0, 70, 86
2, 33182, Note_on_c, 0, 75, 74
2, 33182, Note_on_c, 0, 77, 74
2, 33182, Note_on_c, 0, 67, 92
2, 33187, Note_on_c, 0, 53, 54
2, 33188, Note_on_c, 0, 63, 71
2, 33189, Note_on_c, 0, 58, 57
2, 33191, Control_c, 0, 64, 0
2, 33209, Control_c, 0, 64, 127
2, 33253, Note_on_c, 0, 67, 0
2, 33266, Note_on_c, 0, 70, 0
2, 33279, Note_on_c, 0, 77, 0
2, 33280, Note_on_c, 0, 75, 0
2, 33283, Note_on_c, 0, 63, 0
2, 33295, Note_on_c, 0, 60, 55
2, 33439, Note_on_c, 0, 89, 80
2, 33440, Note_on_c, 0, 82, 76
2, 33441, Note_on_c, 0, 87, 77
2, 33441, Note_on_c, 0, 65, 78
2, 33441, Note_on_c, 0, 79, 73
2, 33455, Control_c, 0, 64, 0
2, 33515, Control_c, 0, 64, 127
2, 33642, Note_on_c, 0, 79, 0
2, 33653, Note_on_c, 0, 82, 0
2, 33675, Note_on_c, 0, 89, 0
2, 33680, Note_on_c, 0, 87, 0
2, 33736, Note_on_c, 0, 60, 0
2, 33746, Note_on_c, 0, 53, 0
2, 33763, Note_on_c, 0, 58, 0
2, 33798, Note_on_c, 0, 65, 0
2, 34088, Note_on_c, 0, 86, 123
2, 34088, Note_on_c, 0, 64, 80
2, 34089, Note_on_c, 0, 60, 71
2, 34089, Note_on_c, 0, 59, 71
2, 34091, Note_on_c, 0, 55, 74
2, 34091, Control_c, 0, 64, 0
2, 34215, Control_c, 0, 64, 127
2, 34275, Note_on_c, 0, 85, 67
2, 34283, Note_on_c, 0, 64, 0
2, 34291, Note_on_c, 0, 86, 0
2, 34292, Note_on_c, 0, 59, 0
2, 34293, Note_on_c, 0, 84, 71
2, 34298, Note_on_c, 0, 60, 0
2, 34299, Note_on_c, 0, 85, 0
2, 34307, Control_c, 0, 64, 0
2, 34312, Note_on_c, 0, 60, 25
2, 34314, Note_on_c, 0, 64, 53
2, 34316, Note_on_c, 0, 59, 36
2, 34324, Note_on_c, 0, 83, 64
2, 34327, Note_on_c, 0, 84, 0
2, 34331, Note_on_c, 0, 59, 0
2, 34332, Note_on_c, 0, 55, 0
2, 34334, Note_on_c, 0, 64, 0
2, 34339, Note_on_c, 0, 60, 0
2, 34342, Note_on_c, 0, 83, 0
2, 34379, Note_on_c, 0, 80, 65
2, 34386, Note_on_c, 0, 60, 44
2, 34388, Note_on_c, 0, 64, 32
2, 34394, Note_on_c, 0, 80, 0
2, 34396, Note_on_c, 0, 60, 0
2, 34397, Note_on_c, 0, 64, 0
2, 34438, Note_on_c, 0, 83, 92
2, 34441, Note_on_c, 0, 64, 74
2, 34441, Note_on_c, 0, 60, 68
2, 34443, Note_on_c, 0, 59, 60
2, 34443, Note_on_c, 0, 55, 71
2, 34492, Note_on_c, 0, 64, 0
2, 34497, Note_on_c, 0, 83, 0
2, 34508, Note_on_c, 0, 81, 77
2, 34508, Note_on_c, 0, 64, 73
2, 34512, Control_c, 0, 64, 127
2, 34586, Note_on_c, 0, 64, 0
2, 34589, Note_on_c, 0, 59, 0
2, 34591, Note_on_c, 0, 60, 0
2, 34594, Note_on_c, 0, 55, 0
2, 34628, Note_on_c, 0, 76, 68
2, 34634, Note_on_c, 0, 64, 51
2, 34635, Note_on_c, 0, 60, 50
2, 34638, Note_on_c, 0, 59, 50
2, 34639, Note_on_c, 0, 55, 33
2, 34705, Note_on_c, 0, 64, 0
2, 34709, Note_on_c, 0, 59, 0
2, 34711, Note_on_c, 0, 55, 0
2, 34717, Note_on_c, 0, 81, 0
2, 34717, Note_on_c, 0, 60, 0
2, 34750, Note_on_c, 0, 60, 32
2, 34752, Note_on_c, 0, 64, 31
2, 34756, Note_on_c, 0, 59, 27
2, 34756, Note_on_c, 0, 55, 29
2, 34769, Note_on_c, 0, 59, 0
2, 34770, Note_on_c, 0, 76, 0
2, 34772, Note_on_c, 0, 55, 0
2, 34773, Note_on_c, 0, 64, 0
2, 34775, Note_on_c, 0, 60, 0
2, 34870, Note_on_c, 0, 64, 40
2, 34871, Note_on_c, 0, 60, 44
2, 34875, Note_on_c, 0, 59, 36
2, 34888, Note_on_c, 0, 59, 0
2, 34890, Note_on_c, 0, 64, 0
2, 34893, Note_on_c, 0, 60, 0
2, 34988, Note_on_c, 0, 50, 48
2, 34997, Note_on_c, 0, 50, 0
2, 35056, Note_on_c, 0, 38, 29
2, 35068, Note_on_c, 0, 38, 0
2, 35347, Note_on_c, 0, 64, 80
2, 35347, Note_on_c, 0, 38, 68
2, 35348, Note_on_c, 0, 60, 83
2, 35349, Note_on_c, 0, 55, 81
2, 35349, Note_on_c, 0, 50, 71
2, 35353, Control_c, 0, 64, 0
2, 35374, Control_c, 0, 64, 127
2, 35376, Note_on_c, 0, 38, 0
2, 35399, Note_on_c, 0, 55, 0
2, 35420, Note_on_c, 0, 64, 0
2, 35425, Note_on_c, 0, 60, 0
2, 35459, Note_on_c, 0, 50, 0
2, 35477, Note_on_c, 0, 62, 90
2, 35478, Note_on_c, 0, 66, 85
2, 35478, Note_on_c, 0, 52, 91
2, 35478, Note_on_c, 0, 57, 95
2, 35481, Note_on_c, 0, 61, 57
2, 35485, Control_c, 0, 64, 0
2, 35489, Note_on_c, 0, 61, 0
2, 35525, Control_c, 0, 64, 127
2, 35559, Note_on_c, 0, 62, 0
2, 35561, Note_on_c, 0, 57, 0
2, 35586, Note_on_c, 0, 66, 0
2, 35771, Note_on_c, 0, 67, 92
2, 35771, Note_on_c, 0, 58, 98
2, 35772, Note_on_c, 0, 63, 77
2, 35773, Note_on_c, 0, 53, 80
2, 35774, Control_c, 0, 64, 0
2, 35784, Note_on_c, 0, 52, 0
2, 35808, Control_c, 0, 64, 127
2, 35825, Note_on_c, 0, 67, 0
2, 35832, Note_on_c, 0, 58, 0
2, 35844, Note_on_c, 0, 63, 0
2, 35862, Note_on_c, 0, 60, 81
2, 35864, Note_on_c, 0, 69, 65
2, 35864, Note_on_c, 0, 65, 69
2, 35866, Note_on_c, 0, 53, 0
2, 35866, Note_on_c, 0, 55, 69
2, 35866, Control_c, 0, 64, 0
2, 35868, Note_on_c, 0, 66, 27
2, 35882, Note_on_c, 0, 60, 0
2, 35891, Note_on_c, 0, 65, 0
2, 35893, Note_on_c, 0, 69, 0
2, 35898, Note_on_c, 0, 66, 0
2, 35914, Control_c, 0, 64, 127
2, 35928, Control_c, 0, 64, 0
2, 35931, Note_on_c, 0, 55, 0
2, 35940, Control_c, 0, 64, 127
2, 35940, Note_on_c, 0, 71, 67
2, 35940, Note_on_c, 0, 57, 51
2, 35941, Note_on_c, 0, 67, 73
2, 35942, Note_on_c, 0, 62, 72
2, 35957, Note_on_c, 0, 57, 0
2, 35965, Note_on_c, 0, 62, 0
2, 35968, Note_on_c, 0, 67, 0
2, 35972, Note_on_c, 0, 71, 0
2, 36012, Note_on_c, 0, 74, 56
2, 36012, Note_on_c, 0, 63, 61
2, 36014, Note_on_c, 0, 53, 60
2, 36015, Note_on_c, 0, 67, 71
2, 36015, Note_on_c, 0, 58, 42
2, 36016, Control_c, 0, 64, 0
2, 36067, Control_c, 0, 64, 127
2, 36106, Note_on_c, 0, 63, 0
2, 36108, Note_on_c, 0, 74, 0
2, 36113, Note_on_c, 0, 67, 0
2, 36113, Note_on_c, 0, 72, 39
2, 36121, Note_on_c, 0, 60, 35
2, 36186, Note_on_c, 0, 72, 0
2, 36193, Note_on_c, 0, 67, 57
2, 36196, Note_on_c, 0, 63, 31
2, 36203, Control_c, 0, 64, 0
2, 36221, Control_c, 0, 64, 127
2, 36248, Note_on_c, 0, 67, 0
2, 36309, Note_on_c, 0, 91, 74
2, 36310, Note_on_c, 0, 79, 66
2, 36315, Note_on_c, 0, 53, 0
2, 36319, Note_on_c, 0, 60, 0
2, 36339, Note_on_c, 0, 63, 0
2, 36342, Note_on_c, 0, 58, 0
2, 36437, Note_on_c, 0, 67, 60
2, 36439, Note_on_c, 0, 63, 46
2, 36455, Note_on_c, 0, 67, 0
2, 36467, Note_on_c, 0, 63, 0
2, 36468, Control_c, 0, 64, 0
2, 36526, Control_c, 0, 64, 127
2, 36539, Control_c, 0, 64, 0
2, 36554, Note_on_c, 0, 67, 39
2, 36557, Note_on_c, 0, 62, 38
2, 36558, Note_on_c, 0, 63, 27
2, 36573, Note_on_c, 0, 79, 0
2, 36585, Note_on_c, 0, 62, 0
2, 36586, Note_on_c, 0, 67, 0
2, 36588, Control_c, 0, 64, 127
2, 36593, Note_on_c, 0, 63, 0
2, 36595, Note_on_c, 0, 91, 0
2, 36667, Note_on_c, 0, 63, 51
2, 36669, Note_on_c, 0, 67, 47
2, 36674, Note_on_c, 0, 62, 36
2, 36678, Control_c, 0, 64, 0
2, 36680, Note_on_c, 0, 67, 0
2, 36683, Note_on_c, 0, 62, 0
2, 36693, Note_on_c, 0, 63, 0
2, 36731, Note_on_c, 0, 98, 68
2, 36741, Note_on_c, 0, 98, 0
2, 36762, Note_on_c, 0, 98, 64
2, 36777, Note_on_c, 0, 98, 0
2, 36794, Note_on_c, 0, 101, 80
2, 36812, Note_on_c, 0, 101, 0
2, 36825, Note_on_c, 0, 101, 74
2, 36847, Note_on_c, 0, 101, 0
2, 36848, Note_on_c, 0, 67, 39
2, 36849, Note_on_c, 0, 63, 38
2, 36854, Note_on_c, 0, 99, 18
2, 36856, Note_on_c, 0, 62, 30
2, 36874, Note_on_c, 0, 63, 0
2, 36874, Note_on_c, 0, 67, 0
2, 36874, Note_on_c, 0, 95, 53
2, 36878, Note_on_c, 0, 99, 0
2, 36878, Note_on_c, 0, 62, 0
2, 36883, Note_on_c, 0, 95, 0
2, 37034, Note_on_c, 0, 53, 69
2, 37054, Note_on_c, 0, 53, 0
2, 37096, Note_on_c, 0, 98, 82
2, 37111, Note_on_c, 0, 98, 0
2, 37154, Note_on_c, 0, 101, 95
2, 37155, Note_on_c, 0, 67, 77
2, 37155, Note_on_c, 0, 63, 69
2, 37156, Note_on_c, 0, 62, 78
2, 37172, Note_on_c, 0, 101, 0
2, 37211, Note_on_c, 0, 99, 83
2, 37236, Control_c, 0, 64, 127
2, 37237, Note_on_c, 0, 99, 0
2, 37240, Control_c, 0, 64, 0
2, 37247, Note_on_c, 0, 95, 58
2, 37254, Control_c, 0, 64, 127
2, 37259, Note_on_c, 0, 95, 0
2, 37261, Note_on_c, 0, 67, 0
2, 37262, Note_on_c, 0, 63, 0
2, 37263, Note_on_c, 0, 62, 0
2, 37270, Control_c, 0, 64, 0
2, 37294, Note_on_c, 0, 98, 89
2, 37295, Note_on_c, 0, 67, 68
2, 37297, Note_on_c, 0, 62, 68
2, 37298, Note_on_c, 0, 63, 48
2, 37305, Note_on_c, 0, 62, 0
2, 37308, Note_on_c, 0, 67, 0
2, 37313, Note_on_c, 0, 98, 0
2, 37313, Note_on_c, 0, 63, 0
2, 37356, Note_on_c, 0, 96, 83
2, 37362, Note_on_c, 0, 63, 59
2, 37363, Note_on_c, 0, 67, 64
2, 37366, Note_on_c, 0, 62, 66
2, 37376, Note_on_c, 0, 96, 0
2, 37383, Control_c, 0, 64, 127
2, 37389, Note_on_c, 0, 91, 52
2, 37417, Note_on_c, 0, 67, 0
2, 37418, Note_on_c, 0, 63, 0
2, 37422, Note_on_c, 0, 62, 0
2, 37424, Note_on_c, 0, 91, 0
2, 37436, Note_on_c, 0, 89, 66
2, 37436, Note_on_c, 0, 63, 56
2, 37437, Note_on_c, 0, 67, 64
2, 37440, Note_on_c, 0, 62, 31
2, 37451, Note_on_c, 0, 62, 0
2, 37456, Note_on_c, 0, 67, 0
2, 37463, Note_on_c, 0, 89, 0
2, 37469, Note_on_c, 0, 63, 0
2, 37500, Note_on_c, 0, 87, 72
2, 37509, Note_on_c, 0, 53, 56
2, 37521, Note_on_c, 0, 53, 0
2, 37531, Note_on_c, 0, 87, 0
2, 37558, Note_on_c, 0, 86, 74
2, 37558, Note_on_c, 0, 53, 64
2, 37576, Note_on_c, 0, 86, 0
2, 37614, Note_on_c, 0, 89, 94
2, 37653, Note_on_c, 0, 89, 0
2, 37671, Note_on_c, 0, 67, 68
2, 37671, Note_on_c, 0, 63, 51
2, 37674, Note_on_c, 0, 87, 87
2, 37734, Note_on_c, 0, 63, 0
2, 37737, Note_on_c, 0, 79, 51
2, 37760, Note_on_c, 0, 53, 0
2, 37762, Note_on_c, 0, 87, 0
2, 37765, Note_on_c, 0, 79, 0
2, 37797, Note_on_c, 0, 53, 54
2, 37799, Note_on_c, 0, 86, 87
2, 37806, Note_on_c, 0, 67, 0
2, 37826, Note_on_c, 0, 53, 0
2, 37854, Note_on_c, 0, 86, 0
2, 37866, Note_on_c, 0, 84, 77
2, 37873, Note_on_c, 0, 86, 46
2, 37905, Note_on_c, 0, 86, 0
2, 37915, Note_on_c, 0, 84, 0
2, 37916, Control_c, 0, 64, 0
2, 37922, Note_on_c, 0, 50, 49
2, 37967, Control_c, 0, 64, 127
2, 37986, Note_on_c, 0, 83, 65
2, 37990, Control_c, 0, 64, 0
2, 37990, Note_on_c, 0, 76, 72
2, 38029, Control_c, 0, 64, 127
2, 38040, Note_on_c, 0, 76, 0
2, 38044, Note_on_c, 0, 83, 0
2, 38045, Note_on_c, 0, 79, 66
2, 38046, Note_on_c, 0, 50, 0
2, 38059, Note_on_c, 0, 71, 34
2, 38092, Note_on_c, 0, 71, 0
2, 38106, Note_on_c, 0, 76, 71
2, 38107, Note_on_c, 0, 64, 71
2, 38108, Note_on_c, 0, 60, 62
2, 38109, Note_on_c, 0, 59, 63
2, 38119, Control_c, 0, 64, 0
2, 38120, Note_on_c, 0, 79, 0
2, 38144, Control_c, 0, 64, 127
2, 38224, Note_on_c, 0, 59, 0
2, 38263, Note_on_c, 0, 64, 0
2, 38264, Note_on_c, 0, 60, 0
2, 38278, Note_on_c, 0, 71, 24
2, 38332, Note_on_c, 0, 76, 0
2, 38343, Note_on_c, 0, 71, 0
2, 38353, Note_on_c, 0, 50, 64
2, 38444, Note_on_c, 0, 50, 0
2, 38467, Note_on_c, 0, 50, 48
2, 38496, Note_on_c, 0, 50, 0
2, 38592, Note_on_c, 0, 47, 39
2, 38619, Note_on_c, 0, 47, 0
2, 38631, Control_c, 0, 64, 0
2, 38636, Note_on_c, 0, 56, 74
2, 38639, Note_on_c, 0, 50, 50
2, 38670, Note_on_c, 0, 64, 46
2, 38673, Note_on_c, 0, 60, 40
2, 38689, Note_on_c, 0, 56, 0
2, 38691, Note_on_c, 0, 64, 0
2, 38706, Note_on_c, 0, 60, 0
2, 38723, Note_on_c, 0, 55, 72
2, 38790, Note_on_c, 0, 60, 50
2, 38790, Note_on_c, 0, 64, 56
2, 38798, Note_on_c, 0, 55, 0
2, 38812, Note_on_c, 0, 64, 0
2, 38836, Note_on_c, 0, 60, 0
2, 38843, Note_on_c, 0, 54, 72
2, 38857, Note_on_c, 0, 54, 0
2, 38867, Note_on_c, 0, 38, 52
2, 38875, Note_on_c, 0, 54, 67
2, 38926, Note_on_c, 0, 54, 0
2, 38935, Note_on_c, 0, 64, 57
2, 38939, Note_on_c, 0, 60, 44
2, 38947, Note_on_c, 0, 64, 0
2, 38950, Note_on_c, 0, 60, 0
2, 38961, Note_on_c, 0, 50, 0
2, 38999, Note_on_c, 0, 50, 53
2, 39000, Note_on_c, 0, 56, 76
2, 39039, Note_on_c, 0, 64, 32
2, 39044, Note_on_c, 0, 60, 24
2, 39049, Note_on_c, 0, 64, 0
2, 39057, Note_on_c, 0, 56, 0
2, 39062, Note_on_c, 0, 50, 0
2, 39072, Note_on_c, 0, 60, 0
2, 39077, Note_on_c, 0, 45, 26
2, 39087, Note_on_c, 0, 55, 81
2, 39090, Note_on_c, 0, 45, 0
2, 39090, Note_on_c, 0, 50, 41
2, 39146, Note_on_c, 0, 64, 55
2, 39150, Note_on_c, 0, 60, 47
2, 39160, Note_on_c, 0, 55, 0
2, 39165, Note_on_c, 0, 64, 0
2, 39183, Note_on_c, 0, 60, 0
2, 39201, Note_on_c, 0, 54, 75
2, 39207, Note_on_c, 0, 45, 37
2, 39218, Note_on_c, 0, 54, 0
2, 39234, Note_on_c, 0, 54, 65
2, 39261, Note_on_c, 0, 45, 0
2, 39286, Note_on_c, 0, 54, 0
2, 39288, Note_on_c, 0, 38, 0
2, 39295, Note_on_c, 0, 45, 47
2, 39300, Note_on_c, 0, 64, 52
2, 39302, Note_on_c, 0, 60, 49
2, 39310, Note_on_c, 0, 64, 0
2, 39315, Note_on_c, 0, 60, 0
2, 39352, Note_on_c, 0, 45, 0
2, 39360, Note_on_c, 0, 56, 76
2, 39361, Note_on_c, 0, 38, 54
2, 39383, Note_on_c, 0, 56, 0
2, 39388, Note_on_c, 0, 50, 0
2, 39398, Note_on_c, 0, 64, 48
2, 39402, Note_on_c, 0, 60, 30
2, 39415, Note_on_c, 0, 64, 0
2, 39427, Note_on_c, 0, 60, 0
2, 39448, Note_on_c, 0, 55, 80
2, 39449, Note_on_c, 0, 50, 50
2, 39506, Note_on_c, 0, 64, 60
2, 39510, Note_on_c, 0, 60, 45
2, 39512, Note_on_c, 0, 55, 0
2, 39525, Note_on_c, 0, 64, 0
2, 39530, Note_on_c, 0, 45, 18
2, 39542, Note_on_c, 0, 38, 0
2, 39546, Note_on_c, 0, 60, 0
2, 39551, Note_on_c, 0, 45, 0
2, 39558, Note_on_c, 0, 54, 82
2, 39565, Note_on_c, 0, 38, 45
2, 39584, Note_on_c, 0, 50, 0
2, 39621, Note_on_c, 0, 54, 0
2, 39628, Note_on_c, 0, 64, 67
2, 39633, Note_on_c, 0, 60, 44
2, 39636, Note_on_c, 0, 45, 34
2, 39651, Note_on_c, 0, 64, 0
2, 39655, Note_on_c, 0, 60, 0
2, 39657, Note_on_c, 0, 45, 0
2, 39686, Note_on_c, 0, 56, 75
2, 39692, Note_on_c, 0, 50, 57
2, 39701, Note_on_c, 0, 56, 0
2, 39720, Note_on_c, 0, 56, 70
2, 39726, Control_c, 0, 64, 127
2, 39739, Note_on_c, 0, 50, 0
2, 39740, Control_c, 0, 64, 0
2, 39768, Note_on_c, 0, 56, 0
2, 39775, Note_on_c, 0, 38, 0
2, 39779, Control_c, 0, 64, 127
2, 39780, Note_on_c, 0, 50, 53
2, 39784, Note_on_c, 0, 55, 64
2, 39804, Note_on_c, 0, 55, 0
2, 39809, Control_c, 0, 64, 0
2, 39826, Note_on_c, 0, 50, 0
2, 39845, Note_on_c, 0, 58, 71
2, 39850, Note_on_c, 0, 41, 58
2, 39864, Control_c, 0, 64, 127
2, 39904, Note_on_c, 0, 53, 46
2, 39906, Note_on_c, 0, 41, 0
2, 39907, Note_on_c, 0, 63, 47
2, 39913, Note_on_c, 0, 53, 0
2, 39916, Note_on_c, 0, 58, 0
2, 39930, Note_on_c, 0, 63, 0
2, 39965, Note_on_c, 0, 65, 65
2, 39995, Note_on_c, 0, 65, 0
2, 40024, Note_on_c, 0, 67, 89
2, 40063, Note_on_c, 0, 67, 0
2, 40079, Note_on_c, 0, 70, 84
2, 40080, Note_on_c, 0, 63, 64
2, 40083, Note_on_c, 0, 58, 60
2, 40083, Note_on_c, 0, 53, 58
2, 40086, Control_c, 0, 64, 0
2, 40125, Control_c, 0, 64, 127
2, 40142, Note_on_c, 0, 72, 52
2, 40147, Note_on_c, 0, 63, 0
2, 40157, Note_on_c, 0, 70, 0
2, 40194, Note_on_c, 0, 72, 0
2, 40199, Note_on_c, 0, 74, 60
2, 40221, Note_on_c, 0, 74, 0
2, 40261, Note_on_c, 0, 75, 63
2, 40265, Note_on_c, 0, 63, 45
2, 40265, Note_on_c, 0, 67, 57
2, 40266, Note_on_c, 0, 70, 45
2, 40267, Note_on_c, 0, 58, 0
2, 40267, Note_on_c, 0, 62, 58
2, 40273, Control_c, 0, 64, 0
2, 40307, Control_c, 0, 64, 127
2, 40311, Note_on_c, 0, 67, 0
2, 40320, Note_on_c, 0, 70, 0
2, 40324, Note_on_c, 0, 63, 0
2, 40339, Note_on_c, 0, 75, 0
2, 40344, Note_on_c, 0, 62, 0
2, 40381, Note_on_c, 0, 77, 63
2, 40384, Note_on_c, 0, 65, 60
2, 40386, Note_on_c, 0, 60, 46
2, 40409, Note_on_c, 0, 53, 0
2, 40410, Note_on_c, 0, 65, 0
2, 40425, Note_on_c, 0, 77, 0
2, 40460, Note_on_c, 0, 60, 0
2, 40499, Note_on_c, 0, 79, 62
2, 40500, Note_on_c, 0, 63, 55
2, 40502, Note_on_c, 0, 74, 66
2, 40503, Note_on_c, 0, 67, 59
2, 40504, Note_on_c, 0, 58, 48
2, 40505, Note_on_c, 0, 53, 32
2, 40508, Control_c, 0, 64, 0
2, 40536, Control_c, 0, 64, 127
2, 40548, Note_on_c, 0, 63, 0
2, 40549, Note_on_c, 0, 67, 0
2, 40551, Note_on_c, 0, 79, 0
2, 40564, Note_on_c, 0, 74, 0
2, 40592, Note_on_c, 0, 53, 0
2, 40622, Note_on_c, 0, 81, 69
2, 40623, Note_on_c, 0, 63, 67
2, 40623, Note_on_c, 0, 74, 80
2, 40625, Note_on_c, 0, 60, 60
2, 40625, Note_on_c, 0, 77, 65
2, 40627, Note_on_c, 0, 69, 77
2, 40628, Note_on_c, 0, 53, 36
2, 40635, Control_c, 0, 64, 0
2, 40655, Control_c, 0, 64, 127
2, 40657, Note_on_c, 0, 53, 0
2, 40657, Note_on_c, 0, 69, 0
2, 40662, Note_on_c, 0, 60, 0
2, 40663, Note_on_c, 0, 74, 0
2, 40663, Note_on_c, 0, 63, 0
2, 40665, Note_on_c, 0, 77, 0
2, 40672, Note_on_c, 0, 81, 0
2, 40693, Note_on_c, 0, 58, 0
2, 40740, Note_on_c, 0, 75, 84
2, 40740, Note_on_c, 0, 82, 80
2, 40741, Note_on_c, 0, 70, 90
2, 40742, Note_on_c, 0, 63, 72
2, 40742, Note_on_c, 0, 60, 63
2, 40744, Note_on_c, 0, 58, 56
2, 40744, Note_on_c, 0, 53, 62
2, 40773, Note_on_c, 0, 75, 0
2, 40778, Note_on_c, 0, 70, 0
2, 40782, Note_on_c, 0, 53, 0
2, 40787, Note_on_c, 0, 63, 0
2, 40787, Note_on_c, 0, 82, 0
2, 40790, Note_on_c, 0, 60, 0
2, 40795, Note_on_c, 0, 58, 0
2, 40820, Note_on_c, 0, 63, 81
2, 40821, Note_on_c, 0, 84, 74
2, 40821, Note_on_c, 0, 53, 74
2, 40822, Note_on_c, 0, 58, 59
2, 40822, Note_on_c, 0, 60, 74
2, 40824, Control_c, 0, 64, 0
2, 40824, Note_on_c, 0, 79, 74
2, 40824, Note_on_c, 0, 72, 57
2, 40827, Note_on_c, 0, 74, 54
2, 40829, Note_on_c, 0, 82, 30
2, 40836, Note_on_c, 0, 74, 0
2, 40837, Note_on_c, 0, 82, 0
2, 40863, Control_c, 0, 64, 127
2, 40881, Note_on_c, 0, 84, 0
2, 40882, Note_on_c, 0, 72, 0
2, 40884, Note_on_c, 0, 53, 0
2, 40886, Note_on_c, 0, 63, 0
2, 40888, Note_on_c, 0, 60, 0
2, 40890, Note_on_c, 0, 79, 0
2, 40897, Note_on_c, 0, 58, 0
2, 40906, Note_on_c, 0, 63, 48
2, 40908, Note_on_c, 0, 86, 79
2, 40908, Note_on_c, 0, 53, 59
2, 40909, Note_on_c, 0, 74, 60
2, 40910, Note_on_c, 0, 58, 17
2, 40910, Note_on_c, 0, 79, 46
2, 40912, Note_on_c, 0, 82, 39
2, 40912, Note_on_c, 0, 60, 47
2, 40914, Control_c, 0, 64, 0
2, 40921, Control_c, 0, 64, 127
2, 40922, Note_on_c, 0, 60, 0
2, 40928, Note_on_c, 0, 74, 0
2, 40931, Note_on_c, 0, 79, 0
2, 40933, Note_on_c, 0, 82, 0
2, 40934, Note_on_c, 0, 86, 0
2, 40937, Note_on_c, 0, 53, 0
2, 40938, Note_on_c, 0, 63, 0
2, 40946, Control_c, 0, 64, 0
2, 40947, Note_on_c, 0, 58, 0
2, 40993, Note_on_c, 0, 87, 58
2, 40995, Note_on_c, 0, 79, 51
2, 40997, Note_on_c, 0, 75, 37
2, 40997, Note_on_c, 0, 63, 42
2, 40997, Note_on_c, 0, 82, 42
2, 41001, Note_on_c, 0, 58, 38
2, 41002, Note_on_c, 0, 53, 29
2, 41004, Note_on_c, 0, 60, 27
2, 41005, Note_on_c, 0, 75, 0
2, 41006, Note_on_c, 0, 79, 0
2, 41011, Note_on_c, 0, 82, 0
2, 41014, Note_on_c, 0, 60, 0
2, 41015, Note_on_c, 0, 63, 0
2, 41015, Note_on_c, 0, 53, 0
2, 41016, Note_on_c, 0, 87, 0
2, 41036, Note_on_c, 0, 58, 0
2, 41041, Control_c, 0, 64, 127
2, 41107, Note_on_c, 0, 63, 46
2, 41109, Note_on_c, 0, 89, 62
2, 41110, Note_on_c, 0, 58, 34
2, 41111, Note_on_c, 0, 53, 32
2, 41112, Control_c, 0, 64, 0
2, 41113, Note_on_c, 0, 84, 57
2, 41113, Note_on_c, 0, 77, 48
2, 41115, Note_on_c, 0, 60, 38
2, 41126, Control_c, 0, 64, 127
2, 41134, Note_on_c, 0, 84, 0
2, 41137, Note_on_c, 0, 89, 0
2, 41143, Note_on_c, 0, 53, 0
2, 41145, Note_on_c, 0, 63, 0
2, 41146, Note_on_c, 0, 60, 0
2, 41148, Note_on_c, 0, 77, 0
2, 41175, Note_on_c, 0, 58, 0
2, 41224, Note_on_c, 0, 86, 64
2, 41226, Note_on_c, 0, 63, 43
2, 41227, Note_on_c, 0, 82, 35
2, 41227, Note_on_c, 0, 79, 46
2, 41229, Note_on_c, 0, 74, 42
2, 41230, Note_on_c, 0, 53, 31
2, 41232, Control_c, 0, 64, 0
2, 41232, Note_on_c, 0, 58, 33
2, 41233, Note_on_c, 0, 60, 36
2, 41264, Control_c, 0, 64, 127
2, 41283, Note_on_c, 0, 63, 0
2, 41289, Note_on_c, 0, 60, 0
2, 41296, Note_on_c, 0, 53, 0
2, 41303, Note_on_c, 0, 79, 0
2, 41304, Note_on_c, 0, 86, 0
2, 41309, Note_on_c, 0, 74, 0
2, 41310, Note_on_c, 0, 58, 0
2, 41322, Note_on_c, 0, 82, 0
2, 41345, Note_on_c, 0, 84, 53
2, 41346, Note_on_c, 0, 63, 32
2, 41347, Note_on_c, 0, 79, 54
2, 41348, Note_on_c, 0, 58, 30
2, 41350, Note_on_c, 0, 53, 34
2, 41351, Note_on_c, 0, 72, 27
2, 41352, Note_on_c, 0, 60, 41
2, 41359, Control_c, 0, 64, 0
2, 41384, Control_c, 0, 64, 127
2, 41408, Note_on_c, 0, 60, 0
2, 41408, Note_on_c, 0, 63, 0
2, 41412, Note_on_c, 0, 53, 0
2, 41423, Note_on_c, 0, 58, 0
2, 41465, Note_on_c, 0, 63, 32
2, 41467, Note_on_c, 0, 58, 33
2, 41469, Note_on_c, 0, 60, 50
2, 41470, Note_on_c, 0, 53, 36
2, 41488, Control_c, 0, 64, 0
2, 41502, Control_c, 0, 64, 127
2, 41506, Note_on_c, 0, 63, 0
2, 41509, Note_on_c, 0, 53, 0
2, 41510, Note_on_c, 0, 60, 0
2, 41526, Note_on_c, 0, 58, 0
2, 41585, Note_on_c, 0, 63, 48
2, 41590, Note_on_c, 0, 58, 46
2, 41591, Note_on_c, 0, 53, 39
2, 41592, Note_on_c, 0, 60, 46
2, 41598, Control_c, 0, 64, 0
2, 41619, Control_c, 0, 64, 127
2, 41627, Note_on_c, 0, 60, 0
2, 41634, Note_on_c, 0, 53, 0
2, 41644, Note_on_c, 0, 63, 0
2, 41647, Note_on_c, 0, 58, 0
2, 41753, Control_c, 0, 64, 0
2, 41764, Note_on_c, 0, 61, 56
2, 41765, Note_on_c, 0, 79, 0
2, 41767, Note_on_c, 0, 72, 0
2, 41767, Note_on_c, 0, 51, 43
2, 41768, Note_on_c, 0, 56, 39
2, 41770, Note_on_c, 0, 84, 0
2, 41788, Control_c, 0, 64, 127
2, 41802, Note_on_c, 0, 56, 0
2, 41802, Note_on_c, 0, 51, 0
2, 41811, Note_on_c, 0, 61, 0
2, 41950, Note_on_c, 0, 61, 40
2, 41951, Note_on_c, 0, 65, 46
2, 41953, Note_on_c, 0, 60, 36
2, 41957, Note_on_c, 0, 56, 23
2, 41972, Control_c, 0, 64, 0
2, 42016, Control_c, 0, 64, 127
2, 42029, Note_on_c, 0, 72, 55
2, 42032, Control_c, 0, 64, 0
2, 42034, Control_c, 0, 64, 127
2, 42037, Control_c, 0, 64, 0
2, 42050, Note_on_c, 0, 72, 0
2, 42054, Note_on_c, 0, 73, 44
2, 42060, Note_on_c, 0, 72, 29
2, 42077, Note_on_c, 0, 73, 0
2, 42090, Note_on_c, 0, 65, 0
2, 42090, Note_on_c, 0, 72, 0
2, 42098, Note_on_c, 0, 69, 47
2, 42112, Note_on_c, 0, 69, 0
2, 42119, Note_on_c, 0, 70, 55
2, 42132, Note_on_c, 0, 70, 0
2, 42141, Note_on_c, 0, 60, 0
2, 42144, Note_on_c, 0, 72, 53
2, 42146, Note_on_c, 0, 61, 0
2, 42150, Note_on_c, 0, 56, 0
2, 42161, Note_on_c, 0, 72, 0
2, 42165, Note_on_c, 0, 73, 37
2, 42186, Note_on_c, 0, 75, 65
2, 42192, Note_on_c, 0, 73, 0
2, 42204, Note_on_c, 0, 75, 0
2, 42211, Note_on_c, 0, 77, 53
2, 42235, Note_on_c, 0, 79, 60
2, 42238, Note_on_c, 0, 77, 0
2, 42251, Note_on_c, 0, 80, 53
2, 42255, Note_on_c, 0, 79, 0
2, 42270, Note_on_c, 0, 82, 54
2, 42274, Note_on_c, 0, 80, 0
2, 42280, Note_on_c, 0, 82, 0
2, 42292, Note_on_c, 0, 84, 69
2, 42311, Note_on_c, 0, 84, 0
2, 42312, Note_on_c, 0, 85, 65
2, 42327, Control_c, 0, 64, 127
2, 42333, Note_on_c, 0, 87, 55
2, 42335, Note_on_c, 0, 85, 0
2, 42359, Note_on_c, 0, 89, 68
2, 42361, Note_on_c, 0, 87, 0
2, 42363, Note_on_c, 0, 61, 64
2, 42364, Note_on_c, 0, 56, 53
2, 42365, Note_on_c, 0, 65, 70
2, 42368, Note_on_c, 0, 60, 62
2, 42369, Control_c, 0, 64, 0
2, 42388, Note_on_c, 0, 85, 69
2, 42394, Note_on_c, 0, 89, 0
2, 42424, Control_c, 0, 64, 127
2, 42436, Control_c, 0, 64, 0
2, 42459, Control_c, 0, 64, 127
2, 42508, Note_on_c, 0, 65, 0
2, 42509, Note_on_c, 0, 60, 0
2, 42513, Note_on_c, 0, 85, 0
2, 42515, Note_on_c, 0, 56, 0
2, 42523, Note_on_c, 0, 61, 0
2, 42564, Note_on_c, 0, 84, 110
2, 42564, Note_on_c, 0, 65, 84
2, 42564, Note_on_c, 0, 61, 73
2, 42564, Note_on_c, 0, 60, 80
2, 42565, Note_on_c, 0, 56, 69
2, 42581, Note_on_c, 0, 65, 0
2, 42581, Note_on_c, 0, 84, 0
2, 42584, Note_on_c, 0, 60, 0
2, 42585, Note_on_c, 0, 85, 76
2, 42586, Control_c, 0, 64, 0
2, 42591, Note_on_c, 0, 61, 0
2, 42603, Note_on_c, 0, 61, 67
2, 42604, Note_on_c, 0, 65, 68
2, 42605, Note_on_c, 0, 60, 71
2, 42611, Note_on_c, 0, 84, 80
2, 42619, Note_on_c, 0, 85, 0
2, 42628, Control_c, 0, 64, 127
2, 42648, Note_on_c, 0, 65, 0
2, 42649, Note_on_c, 0, 84, 0
2, 42651, Note_on_c, 0, 56, 0
2, 42653, Note_on_c, 0, 60, 0
2, 42670, Note_on_c, 0, 65, 56
2, 42670, Note_on_c, 0, 56, 48
2, 42671, Note_on_c, 0, 82, 67
2, 42671, Note_on_c, 0, 60, 66
2, 42693, Note_on_c, 0, 60, 0
2, 42693, Note_on_c, 0, 65, 0
2, 42695, Note_on_c, 0, 84, 76
2, 42698, Note_on_c, 0, 82, 0
2, 42709, Note_on_c, 0, 65, 28
2, 42710, Note_on_c, 0, 60, 24
2, 42720, Control_c, 0, 64, 0
2, 42721, Note_on_c, 0, 65, 0
2, 42724, Note_on_c, 0, 60, 0
2, 42727, Note_on_c, 0, 82, 74
2, 42734, Note_on_c, 0, 60, 36
2, 42734, Note_on_c, 0, 65, 66
2, 42735, Note_on_c, 0, 84, 0
2, 42758, Note_on_c, 0, 60, 0
2, 42762, Note_on_c, 0, 65, 0
2, 42764, Note_on_c, 0, 82, 0
2, 42767, Note_on_c, 0, 56, 0
2, 42775, Note_on_c, 0, 61, 0
2, 42793, Note_on_c, 0, 80, 62
2, 42795, Note_on_c, 0, 61, 45
2, 42797, Note_on_c, 0, 65, 50
2, 42799, Note_on_c, 0, 60, 49
2, 42806, Note_on_c, 0, 65, 0
2, 42807, Note_on_c, 0, 60, 0
2, 42808, Note_on_c, 0, 80, 0
2, 42813, Note_on_c, 0, 61, 0
2, 42853, Note_on_c, 0, 79, 78
2, 42854, Note_on_c, 0, 61, 67
2, 42855, Note_on_c, 0, 60, 72
2, 42856, Note_on_c, 0, 65, 68
2, 42860, Note_on_c, 0, 56, 42
2, 42881, Control_c, 0, 64, 127
2, 42996, Note_on_c, 0, 60, 0
2, 42998, Note_on_c, 0, 56, 0
2, 43012, Note_on_c, 0, 65, 0
2, 43024, Note_on_c, 0, 65, 50
2, 43025, Note_on_c, 0, 57, 83
2, 43033, Control_c, 0, 64, 0
2, 43066, Control_c, 0, 64, 127
2, 43112, Note_on_c, 0, 57, 0
2, 43121, Note_on_c, 0, 65, 0
2, 43138, Note_on_c, 0, 61, 0
2, 43149, Note_on_c, 0, 56, 79
2, 43150, Note_on_c, 0, 65, 74
2, 43151, Note_on_c, 0, 61, 64
2, 43158, Control_c, 0, 64, 0
2, 43195, Control_c, 0, 64, 127
2, 43232, Note_on_c, 0, 65, 0
2, 43244, Note_on_c, 0, 56, 0
2, 43248, Note_on_c, 0, 61, 0
2, 43268, Note_on_c, 0, 61, 64
2, 43268, Note_on_c, 0, 56, 64
2, 43270, Note_on_c, 0, 65, 67
2, 43278, Control_c, 0, 64, 0
2, 43305, Control_c, 0, 64, 127
2, 43320, Note_on_c, 0, 61, 0
2, 43328, Note_on_c, 0, 65, 0
2, 43334, Note_on_c, 0, 56, 0
2, 43391, Note_on_c, 0, 56, 79
2, 43392, Note_on_c, 0, 65, 81
2, 43392, Note_on_c, 0, 61, 75
2, 43414, Note_on_c, 0, 79, 0
2, 43458, Note_on_c, 0, 77, 63
2, 43486, Note_on_c, 0, 65, 0
2, 43495, Note_on_c, 0, 61, 0
2, 43496, Note_on_c, 0, 56, 0
2, 43509, Note_on_c, 0, 77, 0
2, 43520, Note_on_c, 0, 79, 73
2, 43520, Note_on_c, 0, 56, 69
2, 43521, Note_on_c, 0, 61, 67
2, 43521, Note_on_c, 0, 65, 68
2, 43550, Note_on_c, 0, 65, 0
2, 43555, Note_on_c, 0, 56, 0
2, 43560, Note_on_c, 0, 79, 0
2, 43567, Note_on_c, 0, 61, 0
2, 43579, Note_on_c, 0, 61, 68
2, 43579, Note_on_c, 0, 80, 85
2, 43579, Note_on_c, 0, 56, 69
2, 43581, Note_on_c, 0, 65, 72
2, 43600, Note_on_c, 0, 65, 0
2, 43605, Note_on_c, 0, 56, 0
2, 43622, Note_on_c, 0, 61, 0
2, 43623, Note_on_c, 0, 80, 0
2, 43630, Note_on_c, 0, 61, 45
2, 43633, Note_on_c, 0, 56, 67
2, 43636, Note_on_c, 0, 82, 83
2, 43639, Note_on_c, 0, 65, 26
2, 43643, Note_on_c, 0, 80, 33
2, 43647, Note_on_c, 0, 65, 0
2, 43650, Note_on_c, 0, 80, 0
2, 43657, Note_on_c, 0, 56, 0
2, 43660, Note_on_c, 0, 61, 0
2, 43685, Note_on_c, 0, 82, 0
2, 43689, Note_on_c, 0, 63, 77
2, 43690, Control_c, 0, 64, 0
2, 43691, Note_on_c, 0, 59, 73
2, 43692, Note_on_c, 0, 54, 62
2, 43692, Note_on_c, 0, 58, 70
2, 43696, Note_on_c, 0, 83, 84
2, 43718, Control_c, 0, 64, 127
2, 43740, Note_on_c, 0, 63, 0
2, 43741, Note_on_c, 0, 54, 0
2, 43746, Note_on_c, 0, 59, 0
2, 43750, Note_on_c, 0, 58, 0
2, 43758, Note_on_c, 0, 85, 80
2, 43761, Note_on_c, 0, 54, 53
2, 43763, Note_on_c, 0, 58, 33
2, 43763, Note_on_c, 0, 63, 29
2, 43765, Note_on_c, 0, 59, 72
2, 43770, Note_on_c, 0, 83, 0
2, 43791, Note_on_c, 0, 54, 0
2, 43794, Note_on_c, 0, 59, 0
2, 43796, Note_on_c, 0, 63, 0
2, 43801, Note_on_c, 0, 58, 0
2, 43809, Note_on_c, 0, 85, 0
2, 43814, Note_on_c, 0, 58, 30
2, 43814, Note_on_c, 0, 54, 45
2, 43815, Note_on_c, 0, 63, 38
2, 43815, Note_on_c, 0, 87, 75
2, 43815, Note_on_c, 0, 59, 58
2, 43844, Note_on_c, 0, 54, 0
2, 43848, Note_on_c, 0, 59, 0
2, 43852, Note_on_c, 0, 63, 0
2, 43863, Note_on_c, 0, 58, 0
2, 43863, Note_on_c, 0, 87, 0
2, 43889, Note_on_c, 0, 63, 52
2, 43891, Note_on_c, 0, 87, 74
2, 43891, Note_on_c, 0, 58, 54
2, 43892, Note_on_c, 0, 54, 49
2, 43893, Note_on_c, 0, 59, 66
2, 43893, Control_c, 0, 64, 0
2, 43919, Control_c, 0, 64, 127
2, 43934, Note_on_c, 0, 54, 0
2, 43936, Note_on_c, 0, 59, 0
2, 43940, Note_on_c, 0, 63, 0
2, 43942, Note_on_c, 0, 58, 0
2, 43953, Note_on_c, 0, 87, 0
2, 43997, Note_on_c, 0, 63, 57
2, 43998, Note_on_c, 0, 87, 37
2, 43999, Note_on_c, 0, 54, 45
2, 44000, Note_on_c, 0, 75, 56
2, 44003, Note_on_c, 0, 59, 52
2, 44004, Note_on_c, 0, 58, 38
2, 44005, Note_on_c, 0, 85, 33
2, 44007, Control_c, 0, 64, 0
2, 44018, Note_on_c, 0, 87, 0
2, 44027, Control_c, 0, 64, 127
2, 44041, Note_on_c, 0, 59, 0
2, 44048, Note_on_c, 0, 75, 0
2, 44054, Note_on_c, 0, 54, 0
2, 44055, Note_on_c, 0, 63, 0
2, 44055, Note_on_c, 0, 85, 0
2, 44057, Note_on_c, 0, 58, 0
2, 44109, Note_on_c, 0, 63, 51
2, 44112, Note_on_c, 0, 85, 57
2, 44113, Note_on_c, 0, 54, 36
2, 44114, Note_on_c, 0, 59, 54
2, 44116, Note_on_c, 0, 73, 30
2, 44116, Note_on_c, 0, 58, 45
2, 44119, Control_c, 0, 64, 0
2, 44147, Control_c, 0, 64, 127
2, 44168, Note_on_c, 0, 59, 0
2, 44168, Note_on_c, 0, 85, 0
2, 44176, Note_on_c, 0, 54, 0
2, 44178, Note_on_c, 0, 63, 0
2, 44180, Note_on_c, 0, 73, 0
2, 44180, Note_on_c, 0, 58, 0
2, 44231, Note_on_c, 0, 83, 58
2, 44231, Note_on_c, 0, 63, 62
2, 44234, Note_on_c, 0, 71, 56
2, 44235, Note_on_c, 0, 59, 60
2, 44236, Note_on_c, 0, 54, 42
2, 44236, Note_on_c, 0, 58, 53
2, 44242, Control_c, 0, 64, 0
2, 44269, Control_c, 0, 64, 127
2, 44290, Note_on_c, 0, 83, 0
2, 44293, Note_on_c, 0, 59, 0
2, 44298, Note_on_c, 0, 54, 0
2, 44299, Note_on_c, 0, 63, 0
2, 44299, Note_on_c, 0, 58, 0
2, 44309, Note_on_c, 0, 71, 0
2, 44349, Note_on_c, 0, 63, 56
2, 44352, Note_on_c, 0, 82, 42
2, 44352, Note_on_c, 0, 70, 53
2, 44354, Note_on_c, 0, 59, 57
2, 44354, Note_on_c, 0, 58, 46
2, 44356, Note_on_c, 0, 54, 26
2, 44368, Control_c, 0, 64, 0
2, 44380, Control_c, 0, 64, 127
2, 44393, Note_on_c, 0, 54, 0
2, 44395, Note_on_c, 0, 59, 0
2, 44404, Note_on_c, 0, 58, 0
2, 44406, Note_on_c, 0, 63, 0
2, 44410, Note_on_c, 0, 82, 0
2, 44423, Note_on_c, 0, 70, 0
2, 44469, Note_on_c, 0, 63, 38
2, 44470, Note_on_c, 0, 80, 52
2, 44473, Note_on_c, 0, 68, 37
2, 44474, Note_on_c, 0, 59, 50
2, 44476, Note_on_c, 0, 58, 39
2, 44479, Note_on_c, 0, 54, 23
2, 44484, Control_c, 0, 64, 0
2, 44509, Control_c, 0, 64, 127
2, 44547, Note_on_c, 0, 54, 0
2, 44578, Note_on_c, 0, 59, 0
2, 44587, Note_on_c, 0, 54, 59
2, 44613, Note_on_c, 0, 58, 0
2, 44616, Note_on_c, 0, 63, 0
2, 44621, Note_on_c, 0, 68, 0
2, 44622, Note_on_c, 0, 54, 0
2, 44634, Note_on_c, 0, 80, 0
2, 44709, Note_on_c, 0, 54, 77
2, 44709, Note_on_c, 0, 63, 90
2, 44710, Note_on_c, 0, 58, 73
2, 44710, Note_on_c, 0, 59, 80
2, 44711, Note_on_c, 0, 82, 87
2, 44712, Note_on_c, 0, 75, 88
2, 44712, Note_on_c, 0, 70, 98
2, 44713, Control_c, 0, 64, 0
2, 44740, Control_c, 0, 64, 127
2, 44753, Note_on_c, 0, 63, 0
2, 44753, Note_on_c, 0, 54, 0
2, 44754, Note_on_c, 0, 70, 0
2, 44756, Note_on_c, 0, 75, 0
2, 44759, Note_on_c, 0, 59, 0
2, 44764, Note_on_c, 0, 58, 0
2, 44764, Note_on_c, 0, 82, 0
2, 44777, Note_on_c, 0, 63, 87
2, 44778, Note_on_c, 0, 54, 77
2, 44778, Note_on_c, 0, 75, 76
2, 44779, Note_on_c, 0, 59, 78
2, 44779, Note_on_c, 0, 58, 70
2, 44780, Note_on_c, 0, 83, 77
2, 44780, Note_on_c, 0, 71, 84
2, 44782, Control_c, 0, 64, 0
2, 44789, Note_on_c, 0, 78, 28
2, 44797, Note_on_c, 0, 78, 0
2, 44805, Control_c, 0, 64, 127
2, 44815, Note_on_c, 0, 71, 0
2, 44818, Note_on_c, 0, 63, 0
2, 44819, Note_on_c, 0, 54, 0
2, 44820, Note_on_c, 0, 75, 0
2, 44821, Note_on_c, 0, 83, 0
2, 44822, Note_on_c, 0, 59, 0
2, 44828, Note_on_c, 0, 58, 0
2, 44856, Control_c, 0, 64, 0
2, 44857, Note_on_c, 0, 63, 73
2, 44859, Note_on_c, 0, 73, 69
2, 44859, Note_on_c, 0, 85, 83
2, 44861, Note_on_c, 0, 54, 51
2, 44861, Note_on_c, 0, 59, 68
2, 44861, Note_on_c, 0, 58, 56
2, 44869, Note_on_c, 0, 59, 0
2, 44874, Note_on_c, 0, 73, 0
2, 44874, Note_on_c, 0, 63, 0
2, 44878, Note_on_c, 0, 85, 0
2, 44881, Note_on_c, 0, 58, 0
2, 44882, Note_on_c, 0, 54, 0
2, 44906, Control_c, 0, 64, 127
2, 44955, Control_c, 0, 64, 0
2, 44962, Note_on_c, 0, 63, 62
2, 44963, Note_on_c, 0, 83, 58
2, 44965, Note_on_c, 0, 71, 67
2, 44966, Note_on_c, 0, 59, 64
2, 44967, Note_on_c, 0, 58, 51
2, 44969, Note_on_c, 0, 54, 33
2, 44979, Note_on_c, 0, 54, 0
2, 44981, Note_on_c, 0, 63, 0
2, 44984, Note_on_c, 0, 83, 0
2, 44986, Note_on_c, 0, 71, 0
2, 44992, Note_on_c, 0, 59, 0
2, 45000, Note_on_c, 0, 58, 0
2, 45029, Control_c, 0, 64, 127
2, 45070, Control_c, 0, 64, 0
2, 45077, Note_on_c, 0, 70, 62
2, 45077, Note_on_c, 0, 82, 62
2, 45079, Note_on_c, 0, 63, 45
2, 45082, Note_on_c, 0, 75, 45
2, 45082, Note_on_c, 0, 59, 60
2, 45085, Note_on_c, 0, 58, 42
2, 45114, Control_c, 0, 64, 127
2, 45141, Note_on_c, 0, 59, 0
2, 45153, Note_on_c, 0, 58, 0
2, 45154, Note_on_c, 0, 82, 0
2, 45156, Note_on_c, 0, 63, 0
2, 45161, Note_on_c, 0, 70, 0
2, 45162, Note_on_c, 0, 75, 0
2, 45205, Note_on_c, 0, 63, 50
2, 45206, Note_on_c, 0, 75, 48
2, 45206, Note_on_c, 0, 80, 34
2, 45207, Note_on_c, 0, 68, 33
2, 45209, Note_on_c, 0, 58, 54
2, 45210, Note_on_c, 0, 59, 60
2, 45255, Note_on_c, 0, 59, 0
2, 45264, Note_on_c, 0, 68, 0
2, 45269, Note_on_c, 0, 58, 0
2, 45270, Note_on_c, 0, 80, 0
2, 45272, Note_on_c, 0, 63, 0
2, 45278, Note_on_c, 0, 75, 0
2, 45324, Note_on_c, 0, 63, 60
2, 45326, Note_on_c, 0, 82, 67
2, 45328, Note_on_c, 0, 70, 67
2, 45328, Note_on_c, 0, 58, 60
2, 45329, Note_on_c, 0, 59, 67
2, 45331, Control_c, 0, 64, 0
2, 45351, Control_c, 0, 64, 127
2, 45372, Note_on_c, 0, 59, 0
2, 45378, Note_on_c, 0, 70, 0
2, 45379, Note_on_c, 0, 58, 0
2, 45380, Note_on_c, 0, 82, 0
2, 45380, Note_on_c, 0, 63, 0
2, 45397, Note_on_c, 0, 63, 69
2, 45399, Note_on_c, 0, 83, 80
2, 45399, Note_on_c, 0, 58, 68
2, 45400, Note_on_c, 0, 71, 84
2, 45401, Note_on_c, 0, 59, 80
2, 45438, Note_on_c, 0, 71, 0
2, 45441, Note_on_c, 0, 59, 0
2, 45446, Note_on_c, 0, 63, 0
2, 45446, Note_on_c, 0, 83, 0
2, 45452, Note_on_c, 0, 58, 0
2, 45476, Note_on_c, 0, 63, 71
2, 45477, Note_on_c, 0, 72, 81
2, 45478, Note_on_c, 0, 84, 88
2, 45478, Note_on_c, 0, 58, 61
2, 45480, Note_on_c, 0, 59, 73
2, 45504, Note_on_c, 0, 59, 0
2, 45508, Note_on_c, 0, 72, 0
2, 45510, Note_on_c, 0, 84, 0
2, 45511, Note_on_c, 0, 63, 0
2, 45513, Note_on_c, 0, 58, 0
2, 45559, Note_on_c, 0, 64, 80
2, 45559, Note_on_c, 0, 60, 73
2, 45559, Note_on_c, 0, 86, 90
2, 45560, Note_on_c, 0, 55, 76
2, 45561, Note_on_c, 0, 74, 87
2, 45562, Note_on_c, 0, 79, 71
2, 45563, Note_on_c, 0, 59, 72
2, 45563, Note_on_c, 0, 83, 66
2, 45564, Control_c, 0, 64, 0
2, 45570, Note_on_c, 0, 59, 0
2, 45582, Note_on_c, 0, 59, 17
2, 45596, Control_c, 0, 64, 127
2, 45679, Note_on_c, 0, 59, 0
2, 45682, Note_on_c, 0, 64, 0
2, 45683, Note_on_c, 0, 60, 0
2, 45685, Note_on_c, 0, 55, 0
2, 45685, Note_on_c, 0, 74, 0
2, 45686, Note_on_c, 0, 83, 0
2, 45687, Note_on_c, 0, 86, 0
2, 45692, Note_on_c, 0, 79, 0
2, 45723, Note_on_c, 0, 64, 48
2, 45725, Note_on_c, 0, 84, 56
2, 45727, Note_on_c, 0, 60, 42
2, 45727, Note_on_c, 0, 72, 34
2, 45734, Note_on_c, 0, 55, 30
2, 45734, Note_on_c, 0, 59, 26
2, 45743, Note_on_c, 0, 59, 0
2, 45746, Note_on_c, 0, 55, 0
2, 45747, Note_on_c, 0, 84, 0
2, 45750, Note_on_c, 0, 64, 0
2, 45750, Note_on_c, 0, 60, 0
2, 45760, Note_on_c, 0, 72, 0
2, 45797, Note_on_c, 0, 83, 50
2, 45801, Note_on_c, 0, 76, 57
2, 45802, Note_on_c, 0, 79, 51
2, 45803, Note_on_c, 0, 60, 39
2, 45803, Note_on_c, 0, 71, 50
2, 45803, Note_on_c, 0, 64, 40
2, 45806, Note_on_c, 0, 59, 37
2, 45808, Note_on_c, 0, 55, 35
2, 45809, Control_c, 0, 64, 0
2, 45834, Control_c, 0, 64, 127
2, 45895, Note_on_c, 0, 71, 0
2, 45907, Note_on_c, 0, 76, 0
2, 45913, Note_on_c, 0, 79, 0
2, 45925, Note_on_c, 0, 55, 0
2, 45927, Note_on_c, 0, 59, 0
2, 45928, Note_on_c, 0, 64, 0
2, 45928, Note_on_c, 0, 60, 0
2, 45937, Note_on_c, 0, 83, 0
2, 46034, Note_on_c, 0, 60, 49
2, 46036, Note_on_c, 0, 64, 27
2, 46037, Note_on_c, 0, 59, 35
2, 46136, Note_on_c, 0, 95, 66
2, 46153, Note_on_c, 0, 95, 0
2, 46157, Note_on_c, 0, 59, 0
2, 46163, Note_on_c, 0, 64, 0
2, 46164, Note_on_c, 0, 60, 0
2, 46173, Note_on_c, 0, 95, 60
2, 46194, Note_on_c, 0, 95, 0
2, 46223, Note_on_c, 0, 100, 85
2, 46223, Note_on_c, 0, 60, 56
2, 46225, Note_on_c, 0, 64, 40
2, 46228, Note_on_c, 0, 59, 38
2, 46230, Control_c, 0, 64, 0
2, 46245, Note_on_c, 0, 100, 0
2, 46261, Control_c, 0, 64, 127
2, 46274, Note_on_c, 0, 59, 0
2, 46275, Note_on_c, 0, 100, 80
2, 46292, Note_on_c, 0, 60, 0
2, 46293, Note_on_c, 0, 64, 0
2, 46301, Note_on_c, 0, 100, 0
2, 46318, Note_on_c, 0, 93, 73
2, 46321, Control_c, 0, 64, 0
2, 46323, Note_on_c, 0, 60, 51
2, 46328, Note_on_c, 0, 64, 29
2, 46331, Note_on_c, 0, 59, 36
2, 46337, Note_on_c, 0, 93, 0
2, 46350, Control_c, 0, 64, 127
2, 46363, Note_on_c, 0, 93, 65
2, 46372, Note_on_c, 0, 59, 0
2, 46375, Note_on_c, 0, 64, 0
2, 46378, Note_on_c, 0, 60, 0
2, 46384, Note_on_c, 0, 93, 0
2, 46401, Note_on_c, 0, 98, 84
2, 46406, Control_c, 0, 64, 0
2, 46408, Note_on_c, 0, 60, 49
2, 46408, Note_on_c, 0, 64, 42
2, 46414, Note_on_c, 0, 59, 41
2, 46424, Control_c, 0, 64, 127
2, 46427, Note_on_c, 0, 59, 0
2, 46428, Note_on_c, 0, 98, 0
2, 46449, Note_on_c, 0, 98, 79
2, 46462, Note_on_c, 0, 64, 0
2, 46475, Note_on_c, 0, 60, 0
2, 46482, Note_on_c, 0, 98, 0
2, 46501, Note_on_c, 0, 92, 73
2, 46505, Note_on_c, 0, 60, 41
2, 46511, Note_on_c, 0, 64, 24
2, 46519, Note_on_c, 0, 92, 0
2, 46531, Note_on_c, 0, 64, 0
2, 46535, Note_on_c, 0, 60, 0
2, 46539, Note_on_c, 0, 92, 60
2, 46564, Note_on_c, 0, 92, 0
2, 46580, Note_on_c, 0, 96, 80
2, 46581, Note_on_c, 0, 60, 43
2, 46583, Note_on_c, 0, 64, 44
2, 46583, Control_c, 0, 64, 0
2, 46606, Note_on_c, 0, 96, 0
2, 46609, Control_c, 0, 64, 127
2, 46627, Note_on_c, 0, 64, 0
2, 46627, Note_on_c, 0, 96, 75
2, 46657, Note_on_c, 0, 96, 0
2, 46666, Control_c, 0, 64, 0
2, 46668, Note_on_c, 0, 91, 78
2, 46669, Note_on_c, 0, 55, 61
2, 46670, Note_on_c, 0, 64, 24
2, 46688, Note_on_c, 0, 91, 0
2, 46696, Control_c, 0, 64, 127
2, 46714, Note_on_c, 0, 91, 59
2, 46724, Note_on_c, 0, 64, 0
2, 46734, Note_on_c, 0, 60, 0
2, 46738, Note_on_c, 0, 91, 0
2, 46752, Note_on_c, 0, 95, 74
2, 46767, Note_on_c, 0, 55, 0
2, 46768, Control_c, 0, 64, 0
2, 46773, Note_on_c, 0, 95, 0
2, 46793, Control_c, 0, 64, 127
2, 46795, Note_on_c, 0, 95, 73
2, 46799, Note_on_c, 0, 64, 51
2, 46800, Note_on_c, 0, 60, 56
2, 46823, Note_on_c, 0, 95, 0
2, 46837, Control_c, 0, 64, 0
2, 46840, Note_on_c, 0, 92, 64
2, 46858, Control_c, 0, 64, 127
2, 46869, Note_on_c, 0, 92, 0
2, 46891, Note_on_c, 0, 60, 0
2, 46892, Note_on_c, 0, 64, 0
2, 46902, Note_on_c, 0, 92, 51
2, 46918, Control_c, 0, 64, 0
2, 46930, Note_on_c, 0, 92, 0
2, 46952, Note_on_c, 0, 93, 65
2, 46955, Note_on_c, 0, 60, 42
2, 46956, Note_on_c, 0, 64, 38
2, 46960, Note_on_c, 0, 59, 36
2, 46975, Control_c, 0, 64, 127
2, 47002, Note_on_c, 0, 93, 0
2, 47006, Note_on_c, 0, 59, 0
2, 47007, Note_on_c, 0, 88, 63
2, 47019, Note_on_c, 0, 60, 0
2, 47025, Note_on_c, 0, 64, 0
2, 47049, Note_on_c, 0, 88, 0
2, 47109, Control_c, 0, 64, 0
2, 47238, Note_on_c, 0, 60, 51
2, 47238, Note_on_c, 0, 64, 38
2, 47247, Note_on_c, 0, 60, 0
2, 47248, Note_on_c, 0, 64, 0
2, 47296, Note_on_c, 0, 60, 65
2, 47297, Note_on_c, 0, 64, 57
2, 47298, Note_on_c, 0, 59, 57
2, 47306, Note_on_c, 0, 59, 0
2, 47308, Note_on_c, 0, 64, 0
2, 47313, Note_on_c, 0, 60, 0
2, 47411, Note_on_c, 0, 60, 66
2, 47411, Note_on_c, 0, 64, 60
2, 47413, Note_on_c, 0, 59, 62
2, 47418, Control_c, 0, 64, 127
2, 47462, Control_c, 0, 64, 0
2, 47492, Note_on_c, 0, 59, 0
2, 47496, Note_on_c, 0, 60, 0
2, 47497, Note_on_c, 0, 64, 0
2, 47536, Control_c, 0, 64, 127
2, 47594, Note_on_c, 0, 63, 68
2, 47598, Note_on_c, 0, 58, 62
2, 47602, Note_on_c, 0, 53, 37
2, 47607, Control_c, 0, 64, 0
2, 47653, Note_on_c, 0, 67, 36
2, 47653, Control_c, 0, 64, 127
2, 47677, Note_on_c, 0, 63, 0
2, 47687, Note_on_c, 0, 67, 0
2, 47710, Note_on_c, 0, 72, 68
2, 47721, Note_on_c, 0, 60, 37
2, 47752, Note_on_c, 0, 72, 0
2, 47753, Note_on_c, 0, 60, 0
2, 47759, Note_on_c, 0, 53, 0
2, 47767, Note_on_c, 0, 74, 85
2, 47769, Note_on_c, 0, 63, 72
2, 47771, Note_on_c, 0, 67, 87
2, 47816, Note_on_c, 0, 74, 0
2, 47828, Note_on_c, 0, 75, 69
2, 47832, Note_on_c, 0, 63, 0
2, 47834, Note_on_c, 0, 60, 44
2, 47840, Note_on_c, 0, 67, 0
2, 47869, Note_on_c, 0, 75, 0
2, 47875, Note_on_c, 0, 60, 0
2, 47882, Control_c, 0, 64, 0
2, 47882, Note_on_c, 0, 77, 73
2, 47884, Note_on_c, 0, 67, 68
2, 47885, Note_on_c, 0, 70, 60
2, 47885, Note_on_c, 0, 63, 67
2, 47902, Control_c, 0, 64, 127
2, 47903, Note_on_c, 0, 58, 0
2, 47935, Note_on_c, 0, 77, 0
2, 47937, Note_on_c, 0, 67, 0
2, 47940, Note_on_c, 0, 70, 0
2, 47943, Note_on_c, 0, 63, 0
2, 47949, Control_c, 0, 64, 0
2, 47953, Note_on_c, 0, 75, 60
2, 47956, Note_on_c, 0, 70, 60
2, 47957, Note_on_c, 0, 67, 66
2, 47958, Note_on_c, 0, 60, 51
2, 47968, Note_on_c, 0, 53, 16
2, 47974, Control_c, 0, 64, 127
2, 47983, Note_on_c, 0, 70, 0
2, 47985, Note_on_c, 0, 75, 0
2, 47993, Note_on_c, 0, 67, 0
2, 48068, Note_on_c, 0, 60, 0
2, 48070, Note_on_c, 0, 74, 62
2, 48072, Note_on_c, 0, 63, 56
2, 48073, Note_on_c, 0, 67, 62
2, 48075, Note_on_c, 0, 70, 51
2, 48076, Note_on_c, 0, 62, 66
2, 48082, Control_c, 0, 64, 0
2, 48105, Control_c, 0, 64, 127
2, 48146, Note_on_c, 0, 70, 0
2, 48154, Note_on_c, 0, 67, 0
2, 48156, Note_on_c, 0, 63, 0
2, 48162, Note_on_c, 0, 62, 0
2, 48167, Note_on_c, 0, 74, 0
2, 48192, Note_on_c, 0, 63, 53
2, 48193, Note_on_c, 0, 60, 54
2, 48194, Note_on_c, 0, 67, 58
2, 48195, Note_on_c, 0, 70, 47
2, 48195, Note_on_c, 0, 72, 34
2, 48202, Note_on_c, 0, 60, 0
2, 48209, Control_c, 0, 64, 0
2, 48211, Control_c, 0, 64, 127
2, 48221, Note_on_c, 0, 53, 0
2, 48226, Note_on_c, 0, 67, 0
2, 48226, Note_on_c, 0, 72, 0
2, 48228, Note_on_c, 0, 70, 0
2, 48242, Note_on_c, 0, 63, 0
2, 48309, Note_on_c, 0, 58, 67
2, 48310, Note_on_c, 0, 67, 64
2, 48314, Note_on_c, 0, 63, 46
2, 48314, Note_on_c, 0, 53, 60
2, 48333, Note_on_c, 0, 53, 0
2, 48340, Control_c, 0, 64, 0
2, 48386, Control_c, 0, 64, 127
2, 48403, Control_c, 0, 64, 0
2, 48430, Control_c, 0, 64, 127
2, 48440, Note_on_c, 0, 38, 34
2, 48442, Note_on_c, 0, 36, 24
2, 48450, Note_on_c, 0, 36, 0
2, 48460, Note_on_c, 0, 38, 0
2, 48474, Control_c, 0, 64, 0
2, 48490, Note_on_c, 0, 41, 57
2, 48509, Control_c, 0, 64, 127
2, 48565, Note_on_c, 0, 67, 0
2, 48565, Note_on_c, 0, 29, 71
2, 48579, Note_on_c, 0, 63, 0
2, 48581, Note_on_c, 0, 58, 0
2, 48598, Note_on_c, 0, 29, 0
2, 48612, Note_on_c, 0, 41, 0
2, 48783, Note_on_c, 0, 48, 40
2, 48846, Note_on_c, 0, 48, 0
2, 48852, Control_c, 0, 64, 0
2, 48853, Note_on_c, 0, 53, 80
2, 48854, Note_on_c, 0, 41, 43
2, 48871, Note_on_c, 0, 53, 0
2, 48882, Note_on_c, 0, 50, 50
2, 48906, Note_on_c, 0, 50, 0
2, 48912, Note_on_c, 0, 51, 37
2, 48935, Note_on_c, 0, 51, 0
2, 48942, Note_on_c, 0, 53, 60
2, 48944, Note_on_c, 0, 48, 15
2, 48963, Note_on_c, 0, 48, 0
2, 48970, Note_on_c, 0, 53, 0
2, 48972, Note_on_c, 0, 55, 46
2, 49006, Note_on_c, 0, 55, 0
2, 49007, Note_on_c, 0, 57, 54
2, 49027, Note_on_c, 0, 57, 0
2, 49028, Note_on_c, 0, 58, 68
2, 49057, Note_on_c, 0, 58, 0
2, 49060, Note_on_c, 0, 55, 25
2, 49086, Note_on_c, 0, 55, 0
2, 49089, Note_on_c, 0, 57, 46
2, 49114, Note_on_c, 0, 58, 60
2, 49120, Note_on_c, 0, 57, 0
2, 49141, Note_on_c, 0, 58, 0
2, 49143, Note_on_c, 0, 60, 63
2, 49168, Note_on_c, 0, 60, 0
2, 49175, Note_on_c, 0, 57, 51
2, 49205, Note_on_c, 0, 57, 0
2, 49213, Note_on_c, 0, 58, 31
2, 49239, Note_on_c, 0, 60, 60
2, 49245, Note_on_c, 0, 58, 0
2, 49259, Note_on_c, 0, 60, 0
2, 49266, Note_on_c, 0, 62, 66
2, 49271, Note_on_c, 0, 51, 35
2, 49286, Note_on_c, 0, 62, 0
2, 49290, Note_on_c, 0, 51, 0
2, 49301, Note_on_c, 0, 58, 34
2, 49320, Note_on_c, 0, 58, 0
2, 49322, Note_on_c, 0, 41, 0
2, 49329, Note_on_c, 0, 60, 50
2, 49354, Note_on_c, 0, 62, 55
2, 49367, Note_on_c, 0, 60, 0
2, 49372, Note_on_c, 0, 62, 0
2, 49380, Note_on_c, 0, 63, 56
2, 49408, Note_on_c, 0, 63, 0
2, 49412, Note_on_c, 0, 60, 50
2, 49438, Note_on_c, 0, 60, 0
2, 49446, Note_on_c, 0, 62, 39
2, 49475, Note_on_c, 0, 62, 0
2, 49481, Note_on_c, 0, 63, 56
2, 49504, Note_on_c, 0, 63, 0
2, 49535, Control_c, 0, 64, 127
2, 49556, Control_c, 0, 64, 0
2, 49680, Control_c, 0, 64, 127
2, 49739, Note_on_c, 0, 50, 57
2, 49809, Note_on_c, 0, 60, 53
2, 49824, Note_on_c, 0, 60, 0
2, 49841, Note_on_c, 0, 64, 59
2, 49855, Control_c, 0, 64, 0
2, 49860, Note_on_c, 0, 64, 0
2, 49865, Control_c, 0, 64, 127
2, 49871, Note_on_c, 0, 67, 79
2, 49883, Note_on_c, 0, 57, 43
2, 49895, Note_on_c, 0, 67, 0
2, 49903, Note_on_c, 0, 71, 80
2, 49908, Note_on_c, 0, 64, 80
2, 49908, Note_on_c, 0, 60, 87
2, 49911, Note_on_c, 0, 67, 71
2, 49913, Note_on_c, 0, 57, 0
2, 49913, Note_on_c, 0, 59, 85
2, 49918, Control_c, 0, 64, 0
2, 49936, Note_on_c, 0, 60, 0
2, 49938, Note_on_c, 0, 57, 70
2, 49946, Note_on_c, 0, 59, 0
2, 49950, Note_on_c, 0, 71, 0
2, 49951, Note_on_c, 0, 64, 0
2, 49961, Note_on_c, 0, 67, 0
2, 49989, Note_on_c, 0, 57, 0
2, 49995, Note_on_c, 0, 59, 60
2, 49996, Note_on_c, 0, 71, 54
2, 50000, Note_on_c, 0, 60, 51
2, 50000, Note_on_c, 0, 64, 55
2, 50001, Note_on_c, 0, 67, 58
2, 50029, Note_on_c, 0, 67, 0
2, 50034, Note_on_c, 0, 60, 0
2, 50035, Note_on_c, 0, 64, 0
2, 50041, Note_on_c, 0, 71, 0
2, 50047, Note_on_c, 0, 59, 0
2, 50061, Note_on_c, 0, 57, 53
2, 50107, Note_on_c, 0, 57, 0
2, 50116, Note_on_c, 0, 59, 56
2, 50116, Control_c, 0, 64, 127
2, 50116, Note_on_c, 0, 71, 54
2, 50121, Note_on_c, 0, 64, 50
2, 50122, Note_on_c, 0, 60, 39
2, 50122, Note_on_c, 0, 67, 52
2, 50146, Control_c, 0, 64, 0
2, 50147, Note_on_c, 0, 67, 0
2, 50148, Note_on_c, 0, 60, 0
2, 50149, Note_on_c, 0, 64, 0
2, 50160, Note_on_c, 0, 59, 0
2, 50167, Note_on_c, 0, 71, 0
2, 50174, Control_c, 0, 64, 127
2, 50174, Note_on_c, 0, 67, 46
2, 50178, Note_on_c, 0, 57, 53
2, 50194, Note_on_c, 0, 50, 0
2, 50280, Control_c, 0, 64, 0
2, 50288, Note_on_c, 0, 60, 34
2, 50289, Note_on_c, 0, 64, 43
2, 50290, Note_on_c, 0, 50, 33
2, 50291, Control_c, 0, 64, 127
2, 50302, Note_on_c, 0, 57, 0
2, 50316, Note_on_c, 0, 50, 0
2, 50354, Note_on_c, 0, 60, 0
2, 50391, Note_on_c, 0, 64, 0
2, 50397, Note_on_c, 0, 67, 0
2, 50468, Note_on_c, 0, 64, 43
2, 50469, Note_on_c, 0, 60, 47
2, 50471, Note_on_c, 0, 59, 36
2, 50473, Control_c, 0, 64, 0
2, 50479, Note_on_c, 0, 64, 0
2, 50481, Note_on_c, 0, 59, 0
2, 50485, Note_on_c, 0, 60, 0
2, 50591, Note_on_c, 0, 60, 54
2, 50591, Note_on_c, 0, 64, 48
2, 50594, Note_on_c, 0, 59, 44
2, 50602, Note_on_c, 0, 59, 0
2, 50602, Note_on_c, 0, 64, 0
2, 50609, Note_on_c, 0, 60, 0
2, 50707, Note_on_c, 0, 64, 41
2, 50707, Note_on_c, 0, 60, 46
2, 50719, Note_on_c, 0, 64, 0
2, 50721, Note_on_c, 0, 60, 0
2, 50826, Note_on_c, 0, 64, 43
2, 50826, Note_on_c, 0, 60, 49
2, 50836, Note_on_c, 0, 64, 0
2, 50841, Note_on_c, 0, 60, 0
2, 50946, Note_on_c, 0, 60, 48
2, 50946, Note_on_c, 0, 64, 37
2, 50957, Note_on_c, 0, 64, 0
2, 50958, Note_on_c, 0, 60, 0
2, 51065, Note_on_c, 0, 60, 50
2, 51067, Note_on_c, 0, 64, 24
2, 51068, Note_on_c, 0, 59, 30
2, 51078, Note_on_c, 0, 59, 0
2, 51078, Note_on_c, 0, 64, 0
2, 51084, Note_on_c, 0, 60, 0
2, 51125, Note_on_c, 0, 47, 62
2, 51157, Note_on_c, 0, 47, 0
2, 51188, Note_on_c, 0, 50, 103
2, 51189, Note_on_c, 0, 60, 66
2, 51189, Note_on_c, 0, 64, 64
2, 51190, Note_on_c, 0, 59, 58
2, 51198, Note_on_c, 0, 59, 0
2, 51199, Note_on_c, 0, 64, 0
2, 51207, Note_on_c, 0, 60, 0
2, 51232, Note_on_c, 0, 50, 0
2, 51247, Note_on_c, 0, 48, 74
2, 51296, Note_on_c, 0, 48, 0
2, 51305, Note_on_c, 0, 47, 66
2, 51362, Note_on_c, 0, 48, 76
2, 51370, Note_on_c, 0, 47, 0
2, 51424, Note_on_c, 0, 48, 0
2, 51427, Note_on_c, 0, 63, 44
2, 51427, Note_on_c, 0, 50, 60
2, 51427, Note_on_c, 0, 65, 62
2, 51429, Note_on_c, 0, 58, 37
2, 51434, Note_on_c, 0, 65, 0
2, 51440, Note_on_c, 0, 58, 0
2, 51444, Note_on_c, 0, 63, 0
2, 51468, Note_on_c, 0, 50, 0
2, 51482, Note_on_c, 0, 51, 45
2, 51544, Note_on_c, 0, 53, 68
2, 51545, Note_on_c, 0, 65, 63
2, 51545, Note_on_c, 0, 63, 51
2, 51547, Note_on_c, 0, 51, 0
2, 51553, Note_on_c, 0, 65, 0
2, 51568, Note_on_c, 0, 63, 0
2, 51596, Note_on_c, 0, 53, 0
2, 51606, Note_on_c, 0, 48, 46
2, 51663, Note_on_c, 0, 63, 44
2, 51665, Note_on_c, 0, 65, 44
2, 51674, Note_on_c, 0, 65, 0
2, 51680, Note_on_c, 0, 63, 0
2, 51786, Note_on_c, 0, 63, 42
2, 51786, Note_on_c, 0, 65, 55
2, 51790, Note_on_c, 0, 58, 33
2, 51794, Note_on_c, 0, 65, 0
2, 51800, Note_on_c, 0, 58, 0
2, 51807, Note_on_c, 0, 63, 0
2, 51910, Note_on_c, 0, 63, 50
2, 51912, Note_on_c, 0, 65, 53
2, 51913, Note_on_c, 0, 58, 43
2, 51920, Note_on_c, 0, 65, 0
2, 51922, Note_on_c, 0, 58, 0
2, 51930, Note_on_c, 0, 63, 0
2, 51950, Note_on_c, 0, 48, 0
2, 51971, Note_on_c, 0, 50, 67
2, 52001, Note_on_c, 0, 50, 0
2, 52026, Note_on_c, 0, 55, 108
2, 52026, Note_on_c, 0, 63, 72
2, 52028, Note_on_c, 0, 58, 72
2, 52028, Note_on_c, 0, 65, 77
2, 52044, Note_on_c, 0, 65, 0
2, 52045, Note_on_c, 0, 58, 0
2, 52056, Note_on_c, 0, 63, 0
2, 52074, Note_on_c, 0, 55, 0
2, 52084, Note_on_c, 0, 53, 72
2, 52144, Note_on_c, 0, 63, 57
2, 52145, Note_on_c, 0, 58, 67
2, 52146, Note_on_c, 0, 65, 64
2, 52152, Note_on_c, 0, 58, 0
2, 52153, Note_on_c, 0, 65, 0
2, 52166, Note_on_c, 0, 63, 0
2, 52259, Note_on_c, 0, 53, 0
2, 52272, Note_on_c, 0, 58, 40
2, 52273, Note_on_c, 0, 63, 25
2, 52284, Note_on_c, 0, 58, 0
2, 52288, Note_on_c, 0, 63, 0
2, 52301, Note_on_c, 0, 50, 76
2, 52338, Note_on_c, 0, 48, 67
2, 52340, Note_on_c, 0, 63, 31
2, 52342, Note_on_c, 0, 65, 30
2, 52347, Note_on_c, 0, 50, 0
2, 52350, Note_on_c, 0, 65, 0
2, 52365, Note_on_c, 0, 63, 0
2, 52431, Note_on_c, 0, 48, 0
2, 52447, Note_on_c, 0, 41, 35
2, 52458, Note_on_c, 0, 41, 0
2, 52475, Note_on_c, 0, 46, 60
2, 52501, Note_on_c, 0, 46, 0
2, 52506, Note_on_c, 0, 45, 64
2, 52524, Note_on_c, 0, 65, 39
2, 52533, Note_on_c, 0, 65, 0
2, 52611, Note_on_c, 0, 63, 37
2, 52628, Note_on_c, 0, 63, 0
2, 52736, Note_on_c, 0, 63, 67
2, 52738, Note_on_c, 0, 58, 60
2, 52738, Note_on_c, 0, 65, 67
2, 52746, Note_on_c, 0, 65, 0
2, 52755, Note_on_c, 0, 58, 0
2, 52755, Note_on_c, 0, 63, 0
2, 52864, Note_on_c, 0, 63, 64
2, 52865, Note_on_c, 0, 65, 64
2, 52867, Note_on_c, 0, 58, 51
2, 52873, Note_on_c, 0, 65, 0
2, 52882, Note_on_c, 0, 58, 0
2, 52884, Note_on_c, 0, 63, 0
2, 52985, Note_on_c, 0, 63, 50
2, 52986, Note_on_c, 0, 65, 56
2, 52988, Note_on_c, 0, 58, 39
2, 52995, Note_on_c, 0, 65, 0
2, 53006, Note_on_c, 0, 58, 0
2, 53007, Note_on_c, 0, 63, 0
2, 53102, Note_on_c, 0, 63, 59
2, 53103, Note_on_c, 0, 58, 60
2, 53105, Note_on_c, 0, 65, 59
2, 53114, Note_on_c, 0, 65, 0
2, 53125, Note_on_c, 0, 58, 0
2, 53125, Note_on_c, 0, 63, 0
2, 53339, Note_on_c, 0, 61, 71
2, 53342, Note_on_c, 0, 63, 38
2, 53345, Note_on_c, 0, 56, 56
2, 53362, Note_on_c, 0, 63, 0
2, 53367, Note_on_c, 0, 56, 0
2, 53369, Note_on_c, 0, 61, 0
2, 53385, Note_on_c, 0, 45, 0
2, 53458, Note_on_c, 0, 63, 57
2, 53459, Note_on_c, 0, 61, 64
2, 53460, Note_on_c, 0, 56, 53
2, 53481, Note_on_c, 0, 63, 0
2, 53486, Note_on_c, 0, 56, 0
2, 53493, Note_on_c, 0, 61, 0
2, 53523, Note_on_c, 0, 48, 81
2, 53547, Note_on_c, 0, 48, 0
2, 53559, Note_on_c, 0, 45, 56
2, 53572, Note_on_c, 0, 45, 0
2, 53585, Note_on_c, 0, 46, 51
2, 53604, Note_on_c, 0, 61, 32
2, 53614, Note_on_c, 0, 46, 0
2, 53619, Note_on_c, 0, 61, 0
2, 53623, Note_on_c, 0, 48, 68
2, 53641, Note_on_c, 0, 48, 0
2, 53650, Note_on_c, 0, 49, 40
2, 53677, Note_on_c, 0, 49, 0
2, 53679, Note_on_c, 0, 51, 35
2, 53689, Note_on_c, 0, 51, 0
2, 53703, Note_on_c, 0, 53, 63
2, 53730, Note_on_c, 0, 53, 0
2, 53734, Note_on_c, 0, 55, 72
2, 53761, Note_on_c, 0, 55, 0
2, 53762, Note_on_c, 0, 56, 49
2, 53791, Note_on_c, 0, 56, 0
2, 53792, Note_on_c, 0, 58, 45
2, 53808, Note_on_c, 0, 58, 0
2, 53819, Note_on_c, 0, 60, 58
2, 53839, Note_on_c, 0, 60, 0
2, 53851, Note_on_c, 0, 61, 25
2, 53879, Note_on_c, 0, 61, 0
2, 53882, Note_on_c, 0, 63, 39
2, 53888, Control_c, 0, 64, 127
2, 53898, Note_on_c, 0, 63, 0
2, 53912, Note_on_c, 0, 65, 60
2, 53934, Note_on_c, 0, 65, 0
2, 53943, Note_on_c, 0, 67, 71
2, 53954, Note_on_c, 0, 61, 25
2, 53966, Note_on_c, 0, 67, 0
2, 53975, Note_on_c, 0, 68, 75
2, 53980, Note_on_c, 0, 65, 54
2, 53998, Note_on_c, 0, 65, 0
2, 54004, Note_on_c, 0, 68, 0
2, 54007, Note_on_c, 0, 70, 74
2, 54015, Note_on_c, 0, 65, 45
2, 54019, Note_on_c, 0, 60, 37
2, 54029, Note_on_c, 0, 60, 0
2, 54029, Note_on_c, 0, 70, 0
2, 54034, Note_on_c, 0, 65, 0
2, 54040, Note_on_c, 0, 72, 63
2, 54057, Note_on_c, 0, 65, 42
2, 54064, Note_on_c, 0, 72, 0
2, 54067, Note_on_c, 0, 65, 0
2, 54071, Note_on_c, 0, 73, 56
2, 54073, Control_c, 0, 64, 0
2, 54099, Note_on_c, 0, 65, 42
2, 54100, Note_on_c, 0, 73, 0
2, 54107, Note_on_c, 0, 75, 67
2, 54108, Note_on_c, 0, 65, 0
2, 54112, Control_c, 0, 64, 127
2, 54125, Note_on_c, 0, 75, 0
2, 54131, Note_on_c, 0, 77, 71
2, 54134, Note_on_c, 0, 61, 0
2, 54157, Note_on_c, 0, 77, 0
2, 54165, Note_on_c, 0, 79, 66
2, 54186, Note_on_c, 0, 79, 0
2, 54196, Note_on_c, 0, 80, 73
2, 54219, Note_on_c, 0, 80, 0
2, 54231, Note_on_c, 0, 82, 63
2, 54235, Note_on_c, 0, 65, 51
2, 54236, Note_on_c, 0, 56, 37
2, 54237, Control_c, 0, 64, 0
2, 54239, Note_on_c, 0, 61, 35
2, 54240, Note_on_c, 0, 60, 43
2, 54248, Note_on_c, 0, 65, 0
2, 54249, Note_on_c, 0, 60, 0
2, 54255, Note_on_c, 0, 56, 0
2, 54263, Note_on_c, 0, 82, 0
2, 54264, Note_on_c, 0, 61, 0
2, 54300, Note_on_c, 0, 84, 62
2, 54302, Note_on_c, 0, 72, 48
2, 54304, Note_on_c, 0, 65, 51
2, 54304, Note_on_c, 0, 61, 39
2, 54307, Note_on_c, 0, 60, 32
2, 54314, Note_on_c, 0, 65, 0
2, 54315, Note_on_c, 0, 60, 0
2, 54325, Note_on_c, 0, 84, 0
2, 54325, Note_on_c, 0, 72, 0
2, 54328, Note_on_c, 0, 61, 0
2, 54367, Note_on_c, 0, 85, 74
2, 54368, Control_c, 0, 64, 127
2, 54368, Note_on_c, 0, 73, 49
2, 54368, Note_on_c, 0, 65, 58
2, 54370, Note_on_c, 0, 60, 56
2, 54370, Note_on_c, 0, 61, 50
2, 54430, Note_on_c, 0, 60, 0
2, 54435, Note_on_c, 0, 65, 0
2, 54444, Note_on_c, 0, 73, 0
2, 54447, Note_on_c, 0, 61, 0
2, 54453, Note_on_c, 0, 85, 0
2, 54557, Note_on_c, 0, 61, 72
2, 54557, Note_on_c, 0, 87, 78
2, 54558, Note_on_c, 0, 75, 81
2, 54559, Note_on_c, 0, 63, 64
2, 54559, Note_on_c, 0, 65, 74
2, 54571, Control_c, 0, 64, 0
2, 54606, Control_c, 0, 64, 127
2, 54642, Note_on_c, 0, 65, 0
2, 54646, Note_on_c, 0, 61, 0
2, 54653, Note_on_c, 0, 63, 0
2, 54660, Note_on_c, 0, 75, 0
2, 54660, Note_on_c, 0, 87, 0
2, 54796, Note_on_c, 0, 85, 75
2, 54796, Note_on_c, 0, 73, 61
2, 54797, Note_on_c, 0, 61, 65
2, 54798, Note_on_c, 0, 63, 59
2, 54801, Note_on_c, 0, 65, 57
2, 54811, Control_c, 0, 64, 0
2, 54835, Note_on_c, 0, 65, 0
2, 54843, Control_c, 0, 64, 127
2, 54876, Note_on_c, 0, 63, 0
2, 54881, Note_on_c, 0, 61, 0
2, 54886, Note_on_c, 0, 73, 0
2, 54890, Note_on_c, 0, 85, 0
2, 54915, Note_on_c, 0, 75, 62
2, 54916, Note_on_c, 0, 61, 70
2, 54916, Note_on_c, 0, 87, 74
2, 54917, Note_on_c, 0, 63, 63
2, 54919, Note_on_c, 0, 65, 60
2, 54928, Control_c, 0, 64, 0
2, 54937, Note_on_c, 0, 65, 0
2, 54947, Control_c, 0, 64, 127
2, 54961, Note_on_c, 0, 61, 0
2, 54963, Note_on_c, 0, 63, 0
2, 54970, Note_on_c, 0, 87, 0
2, 54986, Note_on_c, 0, 75, 0
2, 55029, Note_on_c, 0, 85, 60
2, 55033, Note_on_c, 0, 73, 43
2, 55034, Note_on_c, 0, 63, 44
2, 55034, Note_on_c, 0, 61, 57
2, 55035, Note_on_c, 0, 65, 55
2, 55042, Control_c, 0, 64, 0
2, 55044, Note_on_c, 0, 65, 0
2, 55061, Note_on_c, 0, 63, 0
2, 55063, Note_on_c, 0, 61, 0
2, 55072, Control_c, 0, 64, 127
2, 55201, Control_c, 0, 64, 0
2, 55210, Note_on_c, 0, 63, 59
2, 55214, Note_on_c, 0, 54, 43
2, 55216, Note_on_c, 0, 58, 50
2, 55217, Note_on_c, 0, 59, 55
2, 55335, Control_c, 0, 64, 127
2, 55337, Note_on_c, 0, 73, 0
2, 55352, Note_on_c, 0, 59, 0
2, 55358, Note_on_c, 0, 58, 0
2, 55359, Note_on_c, 0, 63, 0
2, 55361, Note_on_c, 0, 85, 0
2, 55368, Note_on_c, 0, 54, 0
2, 55397, Note_on_c, 0, 54, 56
2, 55397, Note_on_c, 0, 63, 60
2, 55399, Note_on_c, 0, 59, 71
2, 55400, Note_on_c, 0, 58, 60
2, 55435, Note_on_c, 0, 59, 0
2, 55436, Note_on_c, 0, 63, 0
2, 55442, Note_on_c, 0, 54, 0
2, 55470, Note_on_c, 0, 58, 0
2, 55516, Note_on_c, 0, 63, 91
2, 55516, Note_on_c, 0, 54, 75
2, 55516, Note_on_c, 0, 59, 84
2, 55518, Note_on_c, 0, 58, 69
2, 55518, Note_on_c, 0, 82, 92
2, 55519, Note_on_c, 0, 94, 91
2, 55521, Note_on_c, 0, 87, 83
2, 55526, Control_c, 0, 64, 0
2, 55542, Control_c, 0, 64, 127
2, 55559, Note_on_c, 0, 87, 0
2, 55569, Note_on_c, 0, 54, 0
2, 55570, Note_on_c, 0, 82, 0
2, 55570, Note_on_c, 0, 63, 0
2, 55571, Note_on_c, 0, 59, 0
2, 55576, Note_on_c, 0, 58, 0
2, 55578, Note_on_c, 0, 94, 0
2, 55595, Control_c, 0, 64, 0
2, 55597, Note_on_c, 0, 63, 88
2, 55598, Note_on_c, 0, 54, 79
2, 55599, Note_on_c, 0, 87, 79
2, 55599, Note_on_c, 0, 95, 74
2, 55599, Note_on_c, 0, 83, 80
2, 55600, Note_on_c, 0, 59, 85
2, 55600, Note_on_c, 0, 58, 72
2, 55601, Note_on_c, 0, 90, 62
2, 55605, Note_on_c, 0, 93, 48
2, 55607, Control_c, 0, 64, 127
2, 55613, Note_on_c, 0, 93, 0
2, 55638, Note_on_c, 0, 83, 0
2, 55642, Note_on_c, 0, 87, 0
2, 55644, Note_on_c, 0, 95, 0
2, 55648, Note_on_c, 0, 90, 0
2, 55649, Note_on_c, 0, 59, 0
2, 55651, Note_on_c, 0, 54, 0
2, 55652, Note_on_c, 0, 63, 0
2, 55655, Note_on_c, 0, 58, 0
2, 55678, Control_c, 0, 64, 0
2, 55681, Note_on_c, 0, 54, 79
2, 55681, Note_on_c, 0, 63, 86
2, 55682, Note_on_c, 0, 85, 90
2, 55683, Note_on_c, 0, 58, 73
2, 55683, Note_on_c, 0, 59, 83
2, 55683, Note_on_c, 0, 97, 88
2, 55699, Control_c, 0, 64, 127
2, 55733, Note_on_c, 0, 85, 0
2, 55739, Note_on_c, 0, 59, 0
2, 55739, Note_on_c, 0, 54, 0
2, 55741, Note_on_c, 0, 63, 0
2, 55743, Note_on_c, 0, 97, 0
2, 55743, Note_on_c, 0, 58, 0
2, 55766, Note_on_c, 0, 54, 69
2, 55767, Note_on_c, 0, 63, 69
2, 55767, Note_on_c, 0, 99, 85
2, 55768, Note_on_c, 0, 87, 84
2, 55768, Note_on_c, 0, 59, 79
2, 55769, Note_on_c, 0, 58, 69
2, 55776, Control_c, 0, 64, 0
2, 55799, Control_c, 0, 64, 127
2, 55806, Note_on_c, 0, 99, 0
2, 55810, Note_on_c, 0, 87, 0
2, 55824, Note_on_c, 0, 59, 0
2, 55826, Note_on_c, 0, 58, 0
2, 55828, Note_on_c, 0, 54, 0
2, 55828, Note_on_c, 0, 63, 0
2, 55869, Note_on_c, 0, 95, 64
2, 55870, Note_on_c, 0, 90, 67
2, 55870, Note_on_c, 0, 54, 70
2, 55870, Note_on_c, 0, 83, 74
2, 55871, Note_on_c, 0, 63, 76
2, 55872, Note_on_c, 0, 59, 75
2, 55872, Note_on_c, 0, 58, 64
2, 55875, Control_c, 0, 64, 0
2, 55876, Note_on_c, 0, 92, 36
2, 55898, Note_on_c, 0, 92, 0
2, 55910, Control_c, 0, 64, 127
2, 55931, Note_on_c, 0, 95, 0
2, 55934, Note_on_c, 0, 83, 0
2, 55938, Note_on_c, 0, 59, 0
2, 55940, Note_on_c, 0, 63, 0
2, 55943, Note_on_c, 0, 58, 0
2, 55947, Note_on_c, 0, 54, 0
2, 55953, Note_on_c, 0, 90, 0
2, 55993, Note_on_c, 0, 63, 69
2, 55994, Note_on_c, 0, 94, 68
2, 55995, Note_on_c, 0, 54, 61
2, 55996, Note_on_c, 0, 82, 61
2, 55996, Note_on_c, 0, 59, 71
2, 55998, Note_on_c, 0, 58, 56
2, 56000, Note_on_c, 0, 90, 51
2, 56007, Control_c, 0, 64, 0
2, 56035, Control_c, 0, 64, 127
2, 56064, Note_on_c, 0, 94, 0
2, 56065, Note_on_c, 0, 59, 0
2, 56072, Note_on_c, 0, 58, 0
2, 56076, Note_on_c, 0, 90, 0
2, 56076, Note_on_c, 0, 54, 0
2, 56077, Note_on_c, 0, 63, 0
2, 56077, Note_on_c, 0, 82, 0
2, 56122, Note_on_c, 0, 63, 60
2, 56123, Note_on_c, 0, 92, 60
2, 56124, Note_on_c, 0, 54, 51
2, 56126, Note_on_c, 0, 58, 58
2, 56126, Note_on_c, 0, 59, 69
2, 56127, Note_on_c, 0, 80, 35
2, 56128, Note_on_c, 0, 87, 55
2, 56136, Control_c, 0, 64, 0
2, 56161, Control_c, 0, 64, 127
2, 56188, Note_on_c, 0, 59, 0
2, 56188, Note_on_c, 0, 92, 0
2, 56192, Note_on_c, 0, 87, 0
2, 56195, Note_on_c, 0, 54, 0
2, 56198, Note_on_c, 0, 80, 0
2, 56199, Note_on_c, 0, 63, 0
2, 56202, Note_on_c, 0, 58, 0
2, 56245, Note_on_c, 0, 90, 50
2, 56246, Note_on_c, 0, 63, 62
2, 56246, Note_on_c, 0, 54, 54
2, 56249, Note_on_c, 0, 78, 38
2, 56251, Note_on_c, 0, 58, 50
2, 56251, Note_on_c, 0, 59, 68
2, 56253, Note_on_c, 0, 85, 45
2, 56261, Control_c, 0, 64, 0
2, 56288, Control_c, 0, 64, 127
2, 56305, Note_on_c, 0, 85, 0
2, 56305, Note_on_c, 0, 59, 0
2, 56313, Note_on_c, 0, 90, 0
2, 56320, Note_on_c, 0, 78, 0
2, 56324, Note_on_c, 0, 63, 0
2, 56324, Note_on_c, 0, 54, 0
2, 56324, Note_on_c, 0, 58, 0
2, 56372, Note_on_c, 0, 63, 35
2, 56372, Note_on_c, 0, 54, 40
2, 56375, Note_on_c, 0, 89, 44
2, 56375, Note_on_c, 0, 58, 40
2, 56376, Note_on_c, 0, 77, 55
2, 56376, Note_on_c, 0, 59, 65
2, 56390, Control_c, 0, 64, 0
2, 56420, Control_c, 0, 64, 127
2, 56435, Note_on_c, 0, 59, 0
2, 56440, Note_on_c, 0, 89, 0
2, 56441, Note_on_c, 0, 54, 0
2, 56445, Note_on_c, 0, 77, 0
2, 56449, Note_on_c, 0, 63, 0
2, 56450, Note_on_c, 0, 58, 0
2, 56485, Note_on_c, 0, 87, 56
2, 56486, Note_on_c, 0, 63, 45
2, 56486, Note_on_c, 0, 75, 51
2, 56489, Note_on_c, 0, 54, 43
2, 56491, Note_on_c, 0, 58, 48
2, 56491, Note_on_c, 0, 59, 62
2, 56495, Note_on_c, 0, 82, 36
2, 56507, Control_c, 0, 64, 0
2, 56530, Control_c, 0, 64, 127
2, 56558, Note_on_c, 0, 59, 0
2, 56564, Note_on_c, 0, 58, 0
2, 56567, Note_on_c, 0, 54, 0
2, 56572, Note_on_c, 0, 63, 0
2, 56598, Note_on_c, 0, 63, 35
2, 56600, Note_on_c, 0, 82, 0
2, 56601, Note_on_c, 0, 54, 34
2, 56604, Note_on_c, 0, 59, 53
2, 56605, Note_on_c, 0, 58, 33
2, 56629, Note_on_c, 0, 59, 0
2, 56631, Note_on_c, 0, 63, 0
2, 56632, Note_on_c, 0, 54, 0
2, 56653, Note_on_c, 0, 58, 0
2, 56714, Note_on_c, 0, 87, 0
2, 56720, Note_on_c, 0, 63, 38
2, 56724, Note_on_c, 0, 54, 26
2, 56727, Note_on_c, 0, 75, 0
2, 56727, Note_on_c, 0, 59, 38
2, 56728, Note_on_c, 0, 58, 34
2, 56757, Note_on_c, 0, 59, 0
2, 56772, Note_on_c, 0, 63, 0
2, 56786, Note_on_c, 0, 58, 0
2, 56788, Note_on_c, 0, 54, 0
2, 56835, Note_on_c, 0, 63, 39
2, 56838, Note_on_c, 0, 54, 35
2, 56840, Note_on_c, 0, 59, 54
2, 56842, Note_on_c, 0, 58, 38
2, 56888, Note_on_c, 0, 63, 0
2, 56914, Note_on_c, 0, 59, 0
2, 56918, Note_on_c, 0, 58, 0
2, 56928, Note_on_c, 0, 54, 0
2, 56961, Note_on_c, 0, 63, 51
2, 56962, Note_on_c, 0, 54, 43
2, 56963, Note_on_c, 0, 85, 62
2, 56964, Note_on_c, 0, 59, 60
2, 56965, Note_on_c, 0, 58, 52
2, 56966, Note_on_c, 0, 73, 35
2, 56996, Note_on_c, 0, 73, 0
2, 57002, Note_on_c, 0, 85, 0
2, 57025, Note_on_c, 0, 82, 36
2, 57030, Note_on_c, 0, 63, 0
2, 57036, Note_on_c, 0, 59, 0
2, 57046, Note_on_c, 0, 58, 0
2, 57049, Note_on_c, 0, 54, 0
2, 57059, Note_on_c, 0, 82, 0
2, 57082, Note_on_c, 0, 63, 44
2, 57082, Note_on_c, 0, 85, 62
2, 57083, Note_on_c, 0, 54, 27
2, 57084, Note_on_c, 0, 73, 37
2, 57098, Note_on_c, 0, 73, 0
2, 57100, Note_on_c, 0, 63, 0
2, 57109, Note_on_c, 0, 54, 0
2, 57109, Note_on_c, 0, 85, 0
2, 57134, Control_c, 0, 64, 0
2, 57143, Note_on_c, 0, 74, 55
2, 57143, Note_on_c, 0, 64, 31
2, 57144, Note_on_c, 0, 86, 62
2, 57145, Note_on_c, 0, 82, 50
2, 57145, Note_on_c, 0, 60, 44
2, 57146, Note_on_c, 0, 59, 40
2, 57149, Note_on_c, 0, 55, 28
2, 57194, Note_on_c, 0, 83, 39
2, 57198, Note_on_c, 0, 82, 0
2, 57205, Note_on_c, 0, 74, 0
2, 57209, Note_on_c, 0, 86, 0
2, 57214, Note_on_c, 0, 83, 0
2, 57220, Note_on_c, 0, 59, 0
2, 57223, Note_on_c, 0, 64, 0
2, 57224, Note_on_c, 0, 60, 0
2, 57225, Note_on_c, 0, 55, 0
2, 57368, Note_on_c, 0, 74, 46
2, 57371, Note_on_c, 0, 82, 50
2, 57371, Note_on_c, 0, 86, 47
2, 57374, Note_on_c, 0, 64, 26
2, 57374, Note_on_c, 0, 60, 40
2, 57378, Note_on_c, 0, 55, 31
2, 57380, Note_on_c, 0, 59, 39
2, 57423, Note_on_c, 0, 60, 0
2, 57425, Note_on_c, 0, 74, 0
2, 57428, Note_on_c, 0, 59, 0
2, 57434, Note_on_c, 0, 86, 0
2, 57436, Note_on_c, 0, 82, 0
2, 57437, Note_on_c, 0, 83, 47
2, 57438, Note_on_c, 0, 55, 0
2, 57440, Note_on_c, 0, 64, 0
2, 57446, Note_on_c, 0, 83, 0
2, 57553, Note_on_c, 0, 60, 54
2, 57554, Note_on_c, 0, 74, 57
2, 57555, Note_on_c, 0, 64, 37
2, 57564, Note_on_c, 0, 64, 0
2, 57564, Note_on_c, 0, 74, 0
2, 57565, Note_on_c, 0, 60, 0
2, 57612, Note_on_c, 0, 74, 70
2, 57612, Note_on_c, 0, 86, 77
2, 57614, Note_on_c, 0, 82, 60
2, 57614, Note_on_c, 0, 60, 62
2, 57616, Note_on_c, 0, 64, 46
2, 57617, Note_on_c, 0, 55, 52
2, 57617, Note_on_c, 0, 59, 47
2, 57624, Note_on_c, 0, 55, 0
2, 57625, Note_on_c, 0, 64, 0
2, 57626, Note_on_c, 0, 59, 0
2, 57629, Note_on_c, 0, 74, 0
2, 57630, Note_on_c, 0, 60, 0
2, 57632, Note_on_c, 0, 86, 0
2, 57640, Note_on_c, 0, 82, 0
2, 57640, Note_on_c, 0, 83, 36
2, 57650, Note_on_c, 0, 83, 0
2, 57677, Note_on_c, 0, 75, 82
2, 57677, Note_on_c, 0, 87, 81
2, 57678, Note_on_c, 0, 56, 73
2, 57680, Note_on_c, 0, 82, 52
2, 57680, Note_on_c, 0, 61, 59
2, 57687, Note_on_c, 0, 82, 0
2, 57696, Note_on_c, 0, 61, 0
2, 57699, Note_on_c, 0, 75, 0
2, 57701, Note_on_c, 0, 87, 0
2, 57702, Note_on_c, 0, 56, 0
2, 57732, Note_on_c, 0, 64, 79
2, 57732, Note_on_c, 0, 61, 55
2, 57733, Note_on_c, 0, 60, 62
2, 57733, Note_on_c, 0, 74, 85
2, 57734, Note_on_c, 0, 86, 80
2, 57735, Note_on_c, 0, 82, 65
2, 57736, Note_on_c, 0, 55, 64
2, 57743, Note_on_c, 0, 80, 25
2, 57751, Note_on_c, 0, 80, 0
2, 57783, Note_on_c, 0, 61, 0
2, 57789, Note_on_c, 0, 60, 0
2, 57790, Note_on_c, 0, 74, 0
2, 57797, Note_on_c, 0, 86, 0
2, 57799, Note_on_c, 0, 64, 0
2, 57804, Note_on_c, 0, 82, 0
2, 57805, Note_on_c, 0, 55, 0
2, 57849, Note_on_c, 0, 82, 69
2, 57849, Note_on_c, 0, 74, 79
2, 57850, Note_on_c, 0, 60, 64
2, 57850, Note_on_c, 0, 64, 64
2, 57850, Note_on_c, 0, 55, 67
2, 57850, Note_on_c, 0, 86, 78
2, 57853, Note_on_c, 0, 59, 62
2, 57856, Note_on_c, 0, 80, 33
2, 57864, Note_on_c, 0, 80, 0
2, 57915, Note_on_c, 0, 86, 0
2, 57916, Note_on_c, 0, 82, 0
2, 57922, Note_on_c, 0, 74, 0
2, 57928, Note_on_c, 0, 59, 0
2, 57932, Note_on_c, 0, 60, 0
2, 57932, Note_on_c, 0, 55, 0
2, 57933, Note_on_c, 0, 64, 0
2, 57959, Note_on_c, 0, 83, 54
2, 57959, Note_on_c, 0, 71, 57
2, 57961, Note_on_c, 0, 78, 53
2, 57965, Note_on_c, 0, 64, 54
2, 57966, Note_on_c, 0, 55, 54
2, 57966, Note_on_c, 0, 60, 54
2, 57967, Control_c, 0, 64, 127
2, 57968, Note_on_c, 0, 59, 55
2, 57999, Control_c, 0, 64, 0
2, 58012, Note_on_c, 0, 71, 0
2, 58014, Note_on_c, 0, 83, 0
2, 58018, Note_on_c, 0, 78, 0
2, 58018, Note_on_c, 0, 55, 0
2, 58018, Note_on_c, 0, 59, 0
2, 58020, Note_on_c, 0, 64, 0
2, 58020, Note_on_c, 0, 79, 26
2, 58022, Note_on_c, 0, 60, 0
2, 58030, Note_on_c, 0, 79, 0
2, 58262, Note_on_c, 0, 74, 96
2, 58262, Note_on_c, 0, 60, 89
2, 58263, Note_on_c, 0, 55, 92
2, 58263, Note_on_c, 0, 64, 90
2, 58263, Note_on_c, 0, 86, 94
2, 58264, Note_on_c, 0, 82, 79
2, 58264, Note_on_c, 0, 59, 84
2, 58266, Note_on_c, 0, 80, 62
2, 58267, Note_on_c, 0, 84, 55
2, 58273, Note_on_c, 0, 80, 0
2, 58275, Note_on_c, 0, 84, 0
2, 58300, Note_on_c, 0, 64, 0
2, 58303, Note_on_c, 0, 74, 0
2, 58304, Note_on_c, 0, 59, 0
2, 58307, Note_on_c, 0, 55, 0
2, 58308, Note_on_c, 0, 86, 0
2, 58309, Note_on_c, 0, 60, 0
2, 58311, Note_on_c, 0, 82, 0
2, 58336, Note_on_c, 0, 55, 82
2, 58337, Note_on_c, 0, 64, 81
2, 58337, Note_on_c, 0, 86, 88
2, 58337, Note_on_c, 0, 60, 80
2, 58338, Note_on_c, 0, 74, 84
2, 58338, Note_on_c, 0, 82, 72
2, 58339, Note_on_c, 0, 59, 75
2, 58341, Note_on_c, 0, 80, 56
2, 58342, Control_c, 0, 64, 127
2, 58357, Note_on_c, 0, 80, 0
2, 58372, Note_on_c, 0, 74, 0
2, 58376, Note_on_c, 0, 83, 51
2, 58378, Note_on_c, 0, 86, 0
2, 58384, Note_on_c, 0, 55, 0
2, 58385, Note_on_c, 0, 82, 0
2, 58388, Note_on_c, 0, 64, 0
2, 58388, Note_on_c, 0, 59, 0
2, 58393, Note_on_c, 0, 60, 0
2, 58400, Note_on_c, 0, 83, 0
2, 58411, Control_c, 0, 64, 0
2, 58425, Note_on_c, 0, 87, 75
2, 58425, Note_on_c, 0, 75, 84
2, 58426, Note_on_c, 0, 60, 76
2, 58427, Note_on_c, 0, 64, 78
2, 58428, Note_on_c, 0, 59, 72
2, 58428, Note_on_c, 0, 55, 73
2, 58431, Note_on_c, 0, 85, 34
2, 58432, Note_on_c, 0, 81, 42
2, 58436, Note_on_c, 0, 55, 0
2, 58436, Note_on_c, 0, 59, 0
2, 58439, Note_on_c, 0, 85, 0
2, 58442, Note_on_c, 0, 81, 0
2, 58443, Note_on_c, 0, 60, 0
2, 58444, Note_on_c, 0, 64, 0
2, 58444, Note_on_c, 0, 75, 0
2, 58446, Note_on_c, 0, 87, 0
2, 58513, Note_on_c, 0, 82, 74
2, 58514, Note_on_c, 0, 74, 81
2, 58514, Note_on_c, 0, 86, 81
2, 58515, Note_on_c, 0, 60, 80
2, 58515, Note_on_c, 0, 64, 85
2, 58516, Note_on_c, 0, 59, 74
2, 58517, Note_on_c, 0, 55, 81
2, 58519, Note_on_c, 0, 80, 38
2, 58527, Note_on_c, 0, 80, 0
2, 58531, Note_on_c, 0, 64, 0
2, 58536, Note_on_c, 0, 59, 0
2, 58537, Note_on_c, 0, 74, 0
2, 58550, Note_on_c, 0, 55, 0
2, 58552, Note_on_c, 0, 60, 0
2, 58552, Control_c, 0, 64, 127
2, 58555, Note_on_c, 0, 86, 0
2, 58556, Note_on_c, 0, 82, 0
2, 58587, Control_c, 0, 64, 0
2, 58629, Note_on_c, 0, 78, 70
2, 58629, Note_on_c, 0, 83, 76
2, 58630, Note_on_c, 0, 60, 82
2, 58630, Note_on_c, 0, 71, 77
2, 58630, Note_on_c, 0, 64, 84
2, 58631, Note_on_c, 0, 59, 77
2, 58632, Note_on_c, 0, 55, 80
2, 58660, Note_on_c, 0, 79, 35
2, 58668, Note_on_c, 0, 78, 0
2, 58673, Note_on_c, 0, 79, 0
2, 58674, Note_on_c, 0, 64, 0
2, 58677, Note_on_c, 0, 71, 0
2, 58679, Control_c, 0, 64, 127
2, 58682, Note_on_c, 0, 83, 0
2, 58684, Note_on_c, 0, 59, 0
2, 58685, Note_on_c, 0, 55, 0
2, 58688, Note_on_c, 0, 60, 0
2, 58752, Note_on_c, 0, 75, 72
2, 58752, Note_on_c, 0, 79, 68
2, 58753, Note_on_c, 0, 60, 77
2, 58753, Note_on_c, 0, 59, 74
2, 58754, Note_on_c, 0, 64, 77
2, 58755, Note_on_c, 0, 67, 63
2, 58755, Note_on_c, 0, 55, 77
2, 58757, Control_c, 0, 64, 0
2, 58775, Note_on_c, 0, 76, 58
2, 58780, Note_on_c, 0, 67, 0
2, 58781, Note_on_c, 0, 77, 16
2, 58794, Note_on_c, 0, 75, 0
2, 58794, Control_c, 0, 64, 127
2, 58800, Note_on_c, 0, 76, 0
2, 58808, Note_on_c, 0, 77, 0
2, 58810, Note_on_c, 0, 79, 0
2, 58850, Note_on_c, 0, 67, 58
2, 58873, Note_on_c, 0, 69, 63
2, 58876, Note_on_c, 0, 67, 0
2, 58887, Note_on_c, 0, 59, 0
2, 58891, Note_on_c, 0, 55, 0
2, 58891, Note_on_c, 0, 64, 0
2, 58894, Note_on_c, 0, 60, 0
2, 58898, Note_on_c, 0, 70, 65
2, 58899, Note_on_c, 0, 69, 0
2, 58908, Note_on_c, 0, 70, 0
2, 58915, Note_on_c, 0, 72, 58
2, 58940, Note_on_c, 0, 74, 64
2, 58944, Note_on_c, 0, 72, 0
2, 58946, Control_c, 0, 64, 0
2, 58953, Note_on_c, 0, 75, 74
2, 58960, Note_on_c, 0, 74, 0
2, 58970, Note_on_c, 0, 75, 0
2, 58979, Note_on_c, 0, 77, 53
2, 58997, Note_on_c, 0, 79, 39
2, 59009, Note_on_c, 0, 77, 0
2, 59022, Note_on_c, 0, 79, 0
2, 59024, Note_on_c, 0, 82, 57
2, 59033, Note_on_c, 0, 82, 0
2, 59044, Note_on_c, 0, 63, 52
2, 59046, Note_on_c, 0, 84, 58
2, 59048, Note_on_c, 0, 58, 47
2, 59049, Note_on_c, 0, 53, 42
2, 59068, Note_on_c, 0, 84, 0
2, 59070, Note_on_c, 0, 86, 65
2, 59087, Note_on_c, 0, 86, 0
2, 59088, Note_on_c, 0, 87, 50
2, 59096, Note_on_c, 0, 87, 0
2, 59105, Note_on_c, 0, 89, 47
2, 59117, Control_c, 0, 64, 127
2, 59132, Note_on_c, 0, 89, 0
2, 59133, Note_on_c, 0, 91, 28
2, 59144, Note_on_c, 0, 93, 17
2, 59153, Note_on_c, 0, 93, 0
2, 59153, Note_on_c, 0, 91, 0
2, 59154, Note_on_c, 0, 94, 50
2, 59161, Note_on_c, 0, 94, 0
2, 59198, Note_on_c, 0, 98, 55
2, 59200, Note_on_c, 0, 63, 0
2, 59209, Note_on_c, 0, 53, 0
2, 59215, Note_on_c, 0, 99, 56
2, 59217, Note_on_c, 0, 58, 0
2, 59227, Note_on_c, 0, 98, 0
2, 59231, Note_on_c, 0, 99, 0
2, 59234, Note_on_c, 0, 100, 50
2, 59243, Note_on_c, 0, 100, 0
2, 59247, Note_on_c, 0, 101, 82
2, 59249, Note_on_c, 0, 63, 62
2, 59251, Note_on_c, 0, 58, 53
2, 59252, Note_on_c, 0, 53, 55
2, 59274, Control_c, 0, 64, 0
2, 59278, Note_on_c, 0, 99, 77
2, 59291, Note_on_c, 0, 101, 0
2, 59312, Note_on_c, 0, 99, 0
2, 59338, Note_on_c, 0, 91, 67
2, 59357, Note_on_c, 0, 91, 0
2, 59385, Note_on_c, 0, 91, 65
2, 59401, Note_on_c, 0, 91, 0
2, 59420, Note_on_c, 0, 98, 76
2, 59448, Note_on_c, 0, 98, 0
2, 59479, Note_on_c, 0, 89, 61
2, 59487, Note_on_c, 0, 89, 0
2, 59513, Note_on_c, 0, 89, 60
2, 59527, Note_on_c, 0, 89, 0
2, 59540, Note_on_c, 0, 96, 82
2, 59544, Control_c, 0, 64, 127
2, 59568, Note_on_c, 0, 96, 0
2, 59580, Note_on_c, 0, 53, 0
2, 59589, Note_on_c, 0, 87, 64
2, 59596, Note_on_c, 0, 63, 0
2, 59598, Note_on_c, 0, 87, 0
2, 59599, Control_c, 0, 64, 0
2, 59624, Note_on_c, 0, 87, 70
2, 59634, Control_c, 0, 64, 127
2, 59641, Note_on_c, 0, 87, 0
2, 59645, Control_c, 0, 64, 0
2, 59651, Note_on_c, 0, 94, 85
2, 59656, Note_on_c, 0, 63, 49
2, 59671, Note_on_c, 0, 63, 0
2, 59690, Note_on_c, 0, 94, 0
2, 59693, Note_on_c, 0, 58, 0
2, 59711, Note_on_c, 0, 86, 67
2, 59720, Note_on_c, 0, 86, 0
2, 59745, Note_on_c, 0, 86, 69
2, 59758, Note_on_c, 0, 86, 0
2, 59770, Note_on_c, 0, 63, 73
2, 59772, Note_on_c, 0, 93, 91
2, 59773, Note_on_c, 0, 58, 47
2, 59773, Note_on_c, 0, 53, 57
2, 59797, Control_c, 0, 64, 127
2, 59829, Note_on_c, 0, 93, 0
2, 59838, Note_on_c, 0, 63, 0
2, 59841, Note_on_c, 0, 83, 34
2, 59851, Note_on_c, 0, 83, 0
2, 59857, Note_on_c, 0, 53, 0
2, 59871, Control_c, 0, 64, 0
2, 59874, Note_on_c, 0, 84, 73
2, 59891, Note_on_c, 0, 84, 0
2, 59894, Note_on_c, 0, 63, 67
2, 59897, Note_on_c, 0, 53, 60
2, 59899, Note_on_c, 0, 91, 79
2, 59906, Control_c, 0, 64, 127
2, 59936, Note_on_c, 0, 53, 0
2, 59943, Note_on_c, 0, 91, 0
2, 59955, Note_on_c, 0, 63, 0
2, 59955, Note_on_c, 0, 82, 51
2, 59971, Note_on_c, 0, 82, 0
2, 59980, Control_c, 0, 64, 0
2, 59983, Note_on_c, 0, 58, 0
2, 60012, Note_on_c, 0, 81, 60
2, 60021, Note_on_c, 0, 81, 0
2, 60069, Note_on_c, 0, 63, 77
2, 60071, Note_on_c, 0, 89, 94
2, 60072, Note_on_c, 0, 53, 70
2, 60072, Note_on_c, 0, 58, 60
2, 60114, Note_on_c, 0, 63, 0
2, 60118, Control_c, 0, 64, 127
2, 60121, Note_on_c, 0, 89, 0
2, 60122, Note_on_c, 0, 53, 0
2, 60132, Note_on_c, 0, 63, 55
2, 60132, Note_on_c, 0, 53, 25
2, 60135, Note_on_c, 0, 87, 71
2, 60163, Note_on_c, 0, 53, 0
2, 60164, Note_on_c, 0, 63, 0
2, 60181, Note_on_c, 0, 87, 0
2, 60195, Note_on_c, 0, 79, 47
2, 60199, Note_on_c, 0, 53, 47
2, 60210, Note_on_c, 0, 79, 0
2, 60215, Note_on_c, 0, 53, 0
2, 60238, Note_on_c, 0, 58, 0
2, 60245, Control_c, 0, 64, 0
2, 60249, Note_on_c, 0, 58, 21
2, 60249, Note_on_c, 0, 86, 80
2, 60250, Note_on_c, 0, 75, 76
2, 60252, Note_on_c, 0, 53, 68
2, 60252, Note_on_c, 0, 63, 72
2, 60252, Note_on_c, 0, 79, 73
2, 60279, Control_c, 0, 64, 127
2, 60338, Note_on_c, 0, 63, 0
2, 60342, Note_on_c, 0, 86, 0
2, 60352, Note_on_c, 0, 79, 0
2, 60357, Note_on_c, 0, 75, 0
2, 60378, Note_on_c, 0, 53, 0
2, 60417, Note_on_c, 0, 58, 0
2, 60430, Note_on_c, 0, 58, 21
2, 60431, Note_on_c, 0, 84, 78
2, 60432, Note_on_c, 0, 53, 70
2, 60432, Note_on_c, 0, 79, 80
2, 60433, Note_on_c, 0, 63, 73
2, 60435, Note_on_c, 0, 72, 68
2, 60440, Control_c, 0, 64, 0
2, 60478, Note_on_c, 0, 63, 0
2, 60478, Control_c, 0, 64, 127
2, 60504, Note_on_c, 0, 53, 0
2, 60511, Note_on_c, 0, 84, 0
2, 60513, Note_on_c, 0, 79, 0
2, 60522, Note_on_c, 0, 72, 0
2, 60543, Note_on_c, 0, 58, 0
2, 60603, Note_on_c, 0, 82, 87
2, 60603, Note_on_c, 0, 70, 93
2, 60605, Note_on_c, 0, 60, 69
2, 60605, Note_on_c, 0, 63, 77
2, 60606, Note_on_c, 0, 75, 75
2, 60607, Control_c, 0, 64, 0
2, 60607, Note_on_c, 0, 58, 50
2, 60607, Note_on_c, 0, 53, 73
2, 60641, Control_c, 0, 64, 127
2, 60683, Note_on_c, 0, 60, 0
2, 60708, Note_on_c, 0, 63, 0
2, 60716, Note_on_c, 0, 53, 0
2, 60720, Note_on_c, 0, 70, 0
2, 60734, Note_on_c, 0, 82, 0
2, 60743, Note_on_c, 0, 75, 0
2, 60757, Note_on_c, 0, 58, 0
2, 60797, Note_on_c, 0, 58, 47
2, 60797, Note_on_c, 0, 53, 67
2, 60798, Note_on_c, 0, 60, 66
2, 60798, Note_on_c, 0, 63, 77
2, 60799, Note_on_c, 0, 75, 86
2, 60799, Note_on_c, 0, 81, 80
2, 60799, Note_on_c, 0, 69, 90
2, 60806, Control_c, 0, 64, 0
2, 60806, Note_on_c, 0, 71, 40
2, 60816, Note_on_c, 0, 71, 0
2, 60884, Note_on_c, 0, 60, 0
2, 60913, Note_on_c, 0, 63, 0
2, 60920, Note_on_c, 0, 81, 0
2, 60921, Note_on_c, 0, 69, 0
2, 60927, Note_on_c, 0, 53, 0
2, 60938, Note_on_c, 0, 75, 0
2, 60947, Note_on_c, 0, 58, 0
2, 60965, Note_on_c, 0, 74, 80
2, 60966, Note_on_c, 0, 64, 84
2, 60966, Note_on_c, 0, 67, 80
2, 60967, Note_on_c, 0, 69, 68
2, 60968, Note_on_c, 0, 50, 67
2, 60968, Note_on_c, 0, 60, 68
2, 60972, Note_on_c, 0, 64, 0
2, 60973, Note_on_c, 0, 69, 0
2, 60973, Note_on_c, 0, 67, 0
2, 60977, Note_on_c, 0, 60, 0
2, 60980, Note_on_c, 0, 74, 0
2, 60982, Note_on_c, 0, 50, 0
2, 61094, Note_on_c, 0, 74, 67
2, 61094, Note_on_c, 0, 64, 68
2, 61095, Note_on_c, 0, 67, 63
2, 61095, Note_on_c, 0, 69, 59
2, 61099, Note_on_c, 0, 50, 55
2, 61100, Note_on_c, 0, 60, 54
2, 61117, Control_c, 0, 64, 127
2, 61175, Note_on_c, 0, 64, 0
2, 61184, Note_on_c, 0, 67, 0
2, 61186, Note_on_c, 0, 69, 0
2, 61195, Note_on_c, 0, 74, 0
2, 61204, Note_on_c, 0, 60, 0
2, 61266, Note_on_c, 0, 50, 0
2, 61271, Note_on_c, 0, 74, 71
2, 61271, Note_on_c, 0, 86, 74
2, 61272, Note_on_c, 0, 62, 54
2, 61339, Note_on_c, 0, 74, 0
2, 61347, Note_on_c, 0, 86, 0
2, 61432, Note_on_c, 0, 62, 0
2, 61507, Note_on_c, 0, 69, 44
2, 61508, Note_on_c, 0, 93, 80
2, 61510, Note_on_c, 0, 81, 57
2, 61548, Note_on_c, 0, 93, 0
2, 61556, Note_on_c, 0, 81, 0
2, 61569, Note_on_c, 0, 69, 0
2, 61573, Note_on_c, 0, 67, 45
2, 61577, Note_on_c, 0, 91, 45
2, 61578, Note_on_c, 0, 79, 36
2, 61587, Note_on_c, 0, 67, 0
2, 61591, Note_on_c, 0, 79, 0
2, 61598, Note_on_c, 0, 91, 0
2, 61649, Note_on_c, 0, 98, 64
2, 61650, Note_on_c, 0, 74, 48
2, 61654, Note_on_c, 0, 86, 35
2, 61749, Note_on_c, 0, 98, 0
2, 61749, Note_on_c, 0, 71, 45
2, 61751, Note_on_c, 0, 74, 0
2, 61751, Note_on_c, 0, 95, 39
2, 61779, Note_on_c, 0, 86, 0
2, 61825, Note_on_c, 0, 71, 0
2, 61828, Note_on_c, 0, 72, 29
2, 61832, Note_on_c, 0, 95, 0
2, 61832, Note_on_c, 0, 96, 38
2, 61887, Note_on_c, 0, 96, 0
2, 61904, Note_on_c, 0, 100, 51
2, 61905, Note_on_c, 0, 76, 35
2, 61906, Note_on_c, 0, 72, 0
2, 61983, Note_on_c, 0, 76, 0
2, 61988, Note_on_c, 0, 79, 39
2, 61990, Note_on_c, 0, 100, 0
2, 61991, Note_on_c, 0, 103, 44
2, 62045, Note_on_c, 0, 103, 0
2, 62082, Note_on_c, 0, 81, 40
2, 62089, Note_on_c, 0, 105, 22
2, 62092, Note_on_c, 0, 79, 0
2, 62208, Note_on_c, 0, 98, 35
2, 62211, Note_on_c, 0, 86, 42
2, 62352, Note_on_c, 0, 81, 0
2, 62375, Note_on_c, 0, 105, 0
2, 62393, Note_on_c, 0, 86, 0
2, 62403, Note_on_c, 0, 98, 0
2, 62665, Control_c, 0, 64, 0
2, 62665, End_track
3, 0, Start_track
3, 0, Control_c, 1, 0, 0
3, 0, Control_c, 1, 32, 0
3, 0, Program_c, 1, 32
3, 34087, Note_on_c, 1, 38, 78
3, 34111, Note_on_c, 1, 38, 0
3, 34207, Note_on_c, 1, 38, 87
3, 34501, Note_on_c, 1, 45, 66
3, 34628, Note_on_c, 1, 50, 110
3, 34689, Note_on_c, 1, 45, 0
3, 34749, Note_on_c, 1, 45, 89
3, 34756, Note_on_c, 1, 50, 0
3, 34839, Note_on_c, 1, 45, 0
3, 34872, Note_on_c, 1, 45, 85
3, 34933, Note_on_c, 1, 50, 101
3, 34936, Note_on_c, 1, 45, 0
3, 34984, Note_on_c, 1, 50, 0
3, 34989, Note_on_c, 1, 45, 75
3, 34994, Note_on_c, 1, 38, 0
3, 35049, Note_on_c, 1, 38, 77
3, 35058, Note_on_c, 1, 45, 0
3, 35099, Note_on_c, 1, 38, 0
3, 35160, Note_on_c, 1, 38, 83
3, 35461, Note_on_c, 1, 45, 75
3, 35506, Note_on_c, 1, 45, 0
3, 35522, Note_on_c, 1, 50, 91
3, 35533, Note_on_c, 1, 50, 0
3, 35535, Note_on_c, 1, 38, 0
3, 35583, Note_on_c, 1, 50, 108
3, 35821, Note_on_c, 1, 45, 67
3, 35839, Note_on_c, 1, 50, 0
3, 35885, Note_on_c, 1, 38, 42
3, 35909, Note_on_c, 1, 38, 0
3, 35944, Note_on_c, 1, 38, 69
3, 35949, Note_on_c, 1, 45, 0
3, 35981, Note_on_c, 1, 38, 0
3, 36001, Note_on_c, 1, 41, 81
3, 36415, Note_on_c, 1, 36, 56
3, 36426, Note_on_c, 1, 41, 0
3, 36468, Note_on_c, 1, 36, 0
3, 36480, Note_on_c, 1, 41, 71
3, 36784, Note_on_c, 1, 36, 54
3, 36791, Note_on_c, 1, 41, 0
3, 36806, Note_on_c, 1, 36, 0
3, 36844, Note_on_c, 1, 41, 65
3, 36869, Note_on_c, 1, 41, 0
3, 36901, Note_on_c, 1, 36, 68
3, 36946, Note_on_c, 1, 36, 0
3, 36963, Note_on_c, 1, 29, 74
3, 37008, Note_on_c, 1, 29, 0
3, 37081, Note_on_c, 1, 29, 89
3, 37616, Note_on_c, 1, 36, 66
3, 37629, Note_on_c, 1, 36, 0
3, 37680, Note_on_c, 1, 41, 83
3, 37711, Note_on_c, 1, 41, 0
3, 37742, Note_on_c, 1, 41, 82
3, 37798, Note_on_c, 1, 41, 0
3, 37801, Note_on_c, 1, 36, 61
3, 37808, Note_on_c, 1, 29, 0
3, 37855, Note_on_c, 1, 36, 0
3, 37860, Note_on_c, 1, 29, 64
3, 37877, Note_on_c, 1, 29, 0
3, 37923, Note_on_c, 1, 38, 77
3, 37940, Note_on_c, 1, 38, 0
3, 38049, Note_on_c, 1, 38, 79
3, 38582, Note_on_c, 1, 45, 92
3, 38596, Note_on_c, 1, 38, 0
3, 38818, Note_on_c, 1, 38, 64
3, 38835, Note_on_c, 1, 38, 0
3, 38879, Note_on_c, 1, 38, 82
3, 38891, Note_on_c, 1, 45, 0
3, 39176, Note_on_c, 1, 45, 70
3, 39191, Note_on_c, 1, 45, 0
3, 39301, Note_on_c, 1, 45, 90
3, 39313, Note_on_c, 1, 38, 0
3, 39543, Note_on_c, 1, 38, 65
3, 39562, Note_on_c, 1, 38, 0
3, 39606, Note_on_c, 1, 38, 79
3, 39617, Note_on_c, 1, 45, 0
3, 39778, Note_on_c, 1, 38, 0
3, 39786, Note_on_c, 1, 39, 65
3, 39809, Note_on_c, 1, 39, 0
3, 39819, Note_on_c, 1, 40, 71
3, 39847, Note_on_c, 1, 40, 0
3, 39850, Note_on_c, 1, 41, 83
3, 40021, Note_on_c, 1, 36, 50
3, 40037, Note_on_c, 1, 36, 0
3, 40080, Note_on_c, 1, 29, 65
3, 40111, Note_on_c, 1, 29, 0
3, 40140, Note_on_c, 1, 29, 72
3, 40187, Note_on_c, 1, 41, 0
3, 40617, Note_on_c, 1, 36, 66
3, 40673, Note_on_c, 1, 36, 0
3, 40681, Note_on_c, 1, 41, 75
3, 40728, Note_on_c, 1, 29, 0
3, 40738, Note_on_c, 1, 36, 57
3, 40762, Note_on_c, 1, 36, 0
3, 40800, Note_on_c, 1, 29, 70
3, 40859, Note_on_c, 1, 29, 0
3, 40916, Note_on_c, 1, 29, 76
3, 40960, Note_on_c, 1, 41, 0
3, 41217, Note_on_c, 1, 41, 80
3, 41264, Note_on_c, 1, 41, 0
3, 41280, Note_on_c, 1, 41, 82
3, 41281, Note_on_c, 1, 29, 0
3, 41464, Note_on_c, 1, 29, 62
3, 41479, Note_on_c, 1, 41, 0
3, 41526, Note_on_c, 1, 41, 64
3, 41541, Note_on_c, 1, 41, 0
3, 41590, Note_on_c, 1, 41, 89
3, 41595, Note_on_c, 1, 29, 0
3, 41648, Note_on_c, 1, 40, 73
3, 41655, Note_on_c, 1, 41, 0
3, 41672, Note_on_c, 1, 40, 0
3, 41706, Note_on_c, 1, 40, 78
3, 41750, Note_on_c, 1, 40, 0
3, 41765, Note_on_c, 1, 39, 74
3, 41794, Note_on_c, 1, 39, 0
3, 41884, Note_on_c, 1, 39, 74
3, 42422, Note_on_c, 1, 51, 86
3, 42658, Note_on_c, 1, 39, 0
3, 42666, Note_on_c, 1, 46, 63
3, 42686, Note_on_c, 1, 51, 0
3, 42721, Note_on_c, 1, 46, 0
3, 42722, Note_on_c, 1, 39, 67
3, 42815, Note_on_c, 1, 39, 0
3, 42846, Note_on_c, 1, 39, 72
3, 43144, Note_on_c, 1, 46, 60
3, 43182, Note_on_c, 1, 46, 0
3, 43208, Note_on_c, 1, 51, 82
3, 43359, Note_on_c, 1, 39, 0
3, 43386, Note_on_c, 1, 39, 65
3, 43408, Note_on_c, 1, 51, 0
3, 43449, Note_on_c, 1, 46, 57
3, 43473, Note_on_c, 1, 46, 0
3, 43492, Note_on_c, 1, 39, 0
3, 43512, Note_on_c, 1, 46, 69
3, 43633, Note_on_c, 1, 39, 67
3, 43639, Note_on_c, 1, 46, 0
3, 43668, Note_on_c, 1, 39, 0
3, 43691, Note_on_c, 1, 37, 74
3, 43987, Note_on_c, 1, 44, 67
3, 44007, Note_on_c, 1, 37, 0
3, 44051, Note_on_c, 1, 49, 58
3, 44060, Note_on_c, 1, 49, 0
3, 44090, Note_on_c, 1, 44, 0
3, 44110, Note_on_c, 1, 49, 91
3, 44340, Note_on_c, 1, 44, 68
3, 44351, Note_on_c, 1, 49, 0
3, 44404, Note_on_c, 1, 49, 36
3, 44406, Note_on_c, 1, 44, 0
3, 44411, Note_on_c, 1, 49, 0
3, 44461, Note_on_c, 1, 49, 81
3, 44482, Note_on_c, 1, 49, 0
3, 44517, Note_on_c, 1, 49, 77
3, 44544, Note_on_c, 1, 49, 0
3, 44579, Note_on_c, 1, 44, 55
3, 44634, Note_on_c, 1, 44, 0
3, 44640, Note_on_c, 1, 37, 64
3, 44696, Note_on_c, 1, 37, 0
3, 44767, Note_on_c, 1, 37, 74
3, 45063, Note_on_c, 1, 44, 64
3, 45086, Note_on_c, 1, 44, 0
3, 45121, Note_on_c, 1, 49, 80
3, 45426, Note_on_c, 1, 44, 67
3, 45427, Note_on_c, 1, 37, 0
3, 45483, Note_on_c, 1, 37, 51
3, 45499, Note_on_c, 1, 44, 0
3, 45505, Note_on_c, 1, 37, 0
3, 45544, Note_on_c, 1, 37, 69
3, 45557, Note_on_c, 1, 49, 0
3, 45574, Note_on_c, 1, 37, 0
3, 45601, Note_on_c, 1, 38, 77
3, 45784, Note_on_c, 1, 45, 62
3, 45800, Note_on_c, 1, 45, 0
3, 45844, Note_on_c, 1, 54, 53
3, 46024, Note_on_c, 1, 45, 69
3, 46028, Note_on_c, 1, 54, 0
3, 46038, Note_on_c, 1, 38, 0
3, 46083, Note_on_c, 1, 38, 63
3, 46084, Note_on_c, 1, 45, 0
3, 46129, Note_on_c, 1, 38, 0
3, 46144, Note_on_c, 1, 38, 77
3, 46383, Note_on_c, 1, 45, 71
3, 46405, Note_on_c, 1, 45, 0
3, 46445, Note_on_c, 1, 50, 69
3, 46452, Note_on_c, 1, 50, 0
3, 46502, Note_on_c, 1, 50, 101
3, 46517, Note_on_c, 1, 50, 0
3, 46564, Note_on_c, 1, 50, 103
3, 46741, Note_on_c, 1, 50, 0
3, 46742, Note_on_c, 1, 45, 78
3, 46852, Note_on_c, 1, 45, 0
3, 46866, Note_on_c, 1, 38, 0
3, 46868, Note_on_c, 1, 45, 68
3, 46970, Note_on_c, 1, 45, 0
3, 46987, Note_on_c, 1, 45, 58
3, 47048, Note_on_c, 1, 45, 0
3, 47050, Note_on_c, 1, 38, 76
3, 47145, Note_on_c, 1, 38, 0
3, 47178, Note_on_c, 1, 38, 83
3, 47352, Note_on_c, 1, 45, 81
3, 47395, Note_on_c, 1, 45, 0
3, 47414, Note_on_c, 1, 45, 69
3, 47436, Note_on_c, 1, 38, 0
3, 47474, Note_on_c, 1, 38, 64
3, 47505, Note_on_c, 1, 38, 0
3, 47526, Note_on_c, 1, 45, 0
3, 47547, Note_on_c, 1, 45, 13
3, 47557, Note_on_c, 1, 45, 0
3, 47590, Note_on_c, 1, 41, 84
3, 47920, Note_on_c, 1, 41, 0
3, 47946, Note_on_c, 1, 41, 83
3, 48284, Note_on_c, 1, 41, 0
3, 48303, Note_on_c, 1, 39, 70
3, 48305, Note_on_c, 1, 55, 88
3, 48348, Note_on_c, 1, 55, 0
3, 48359, Note_on_c, 1, 39, 0
3, 48361, Note_on_c, 1, 40, 70
3, 48362, Note_on_c, 1, 56, 71
3, 48426, Note_on_c, 1, 56, 0
3, 48429, Note_on_c, 1, 57, 76
3, 48432, Note_on_c, 1, 41, 79
3, 48435, Note_on_c, 1, 40, 0
3, 48677, Note_on_c, 1, 48, 95
3, 48688, Note_on_c, 1, 57, 0
3, 48694, Note_on_c, 1, 41, 0
3, 48911, Note_on_c, 1, 41, 66
3, 48929, Note_on_c, 1, 41, 0
3, 48966, Note_on_c, 1, 41, 79
3, 48973, Note_on_c, 1, 48, 0
3, 49144, Note_on_c, 1, 48, 62
3, 49162, Note_on_c, 1, 48, 0
3, 49201, Note_on_c, 1, 48, 71
3, 49252, Note_on_c, 1, 41, 0
3, 49380, Note_on_c, 1, 41, 60
3, 49394, Note_on_c, 1, 41, 0
3, 49434, Note_on_c, 1, 48, 0
3, 49438, Note_on_c, 1, 38, 66
3, 49742, Note_on_c, 1, 45, 51
3, 50073, Note_on_c, 1, 45, 0
3, 50104, Note_on_c, 1, 45, 59
3, 50164, Note_on_c, 1, 50, 96
3, 50170, Note_on_c, 1, 45, 0
3, 50228, Note_on_c, 1, 45, 50
3, 50230, Note_on_c, 1, 50, 0
3, 50285, Note_on_c, 1, 50, 85
3, 50290, Note_on_c, 1, 45, 0
3, 50340, Note_on_c, 1, 50, 0
3, 50344, Note_on_c, 1, 45, 66
3, 50367, Note_on_c, 1, 38, 0
3, 50405, Note_on_c, 1, 38, 69
3, 50424, Note_on_c, 1, 45, 0
3, 50488, Note_on_c, 1, 38, 0
3, 50524, Note_on_c, 1, 38, 78
3, 50818, Note_on_c, 1, 45, 85
3, 50878, Note_on_c, 1, 50, 105
3, 50881, Note_on_c, 1, 45, 0
3, 50930, Note_on_c, 1, 50, 0
3, 50941, Note_on_c, 1, 45, 50
3, 50992, Note_on_c, 1, 45, 0
3, 51000, Note_on_c, 1, 50, 89
3, 51179, Note_on_c, 1, 45, 82
3, 51196, Note_on_c, 1, 50, 0
3, 51235, Note_on_c, 1, 38, 0
3, 51246, Note_on_c, 1, 50, 60
3, 51265, Note_on_c, 1, 50, 0
3, 51304, Note_on_c, 1, 38, 68
3, 51348, Note_on_c, 1, 38, 0
3, 51348, Note_on_c, 1, 45, 0
3, 51364, Note_on_c, 1, 41, 78
3, 51406, Note_on_c, 1, 41, 0
3, 51489, Note_on_c, 1, 41, 81
3, 51666, Note_on_c, 1, 48, 60
3, 51686, Note_on_c, 1, 48, 0
3, 51725, Note_on_c, 1, 53, 110
3, 51775, Note_on_c, 1, 53, 0
3, 51784, Note_on_c, 1, 53, 76
3, 51911, Note_on_c, 1, 53, 0
3, 51912, Note_on_c, 1, 52, 49
3, 51966, Note_on_c, 1, 52, 0
3, 51971, Note_on_c, 1, 53, 56
3, 52088, Note_on_c, 1, 41, 0
3, 52149, Note_on_c, 1, 40, 40
3, 52157, Note_on_c, 1, 40, 0
3, 52165, Note_on_c, 1, 53, 0
3, 52264, Note_on_c, 1, 41, 85
3, 52264, Note_on_c, 1, 53, 103
3, 52491, Note_on_c, 1, 41, 0
3, 52501, Note_on_c, 1, 41, 25
3, 52565, Note_on_c, 1, 53, 0
3, 52596, Note_on_c, 1, 41, 0
3, 52745, Note_on_c, 1, 41, 71
3, 52747, Note_on_c, 1, 57, 85
3, 52770, Note_on_c, 1, 57, 0
3, 52776, Note_on_c, 1, 41, 0
3, 52778, Note_on_c, 1, 56, 49
3, 52780, Note_on_c, 1, 40, 59
3, 52793, Note_on_c, 1, 56, 0
3, 52802, Note_on_c, 1, 57, 64
3, 52806, Note_on_c, 1, 40, 0
3, 52806, Note_on_c, 1, 41, 68
3, 52980, Note_on_c, 1, 57, 0
3, 52982, Note_on_c, 1, 36, 44
3, 52990, Note_on_c, 1, 41, 0
3, 53008, Note_on_c, 1, 36, 0
3, 53044, Note_on_c, 1, 41, 63
3, 53066, Note_on_c, 1, 41, 0
3, 53105, Note_on_c, 1, 41, 88
3, 53154, Note_on_c, 1, 41, 0
3, 53163, Note_on_c, 1, 40, 67
3, 53197, Note_on_c, 1, 40, 0
3, 53220, Note_on_c, 1, 40, 64
3, 53271, Note_on_c, 1, 40, 0
3, 53282, Note_on_c, 1, 39, 60
3, 53316, Note_on_c, 1, 39, 0
3, 53403, Note_on_c, 1, 39, 63
3, 53701, Note_on_c, 1, 46, 52
3, 53759, Note_on_c, 1, 46, 0
3, 53764, Note_on_c, 1, 51, 93
3, 53821, Note_on_c, 1, 51, 0
3, 53831, Note_on_c, 1, 51, 76
3, 54185, Note_on_c, 1, 46, 48
3, 54195, Note_on_c, 1, 51, 0
3, 54198, Note_on_c, 1, 39, 0
3, 54246, Note_on_c, 1, 46, 0
3, 54248, Note_on_c, 1, 39, 67
3, 54548, Note_on_c, 1, 46, 35
3, 54562, Note_on_c, 1, 46, 0
3, 54609, Note_on_c, 1, 51, 77
3, 54650, Note_on_c, 1, 51, 0
3, 54729, Note_on_c, 1, 51, 77
3, 54907, Note_on_c, 1, 46, 77
3, 54911, Note_on_c, 1, 51, 0
3, 54926, Note_on_c, 1, 39, 0
3, 55033, Note_on_c, 1, 39, 72
3, 55101, Note_on_c, 1, 51, 25
3, 55108, Note_on_c, 1, 51, 0
3, 55125, Note_on_c, 1, 39, 0
3, 55151, Note_on_c, 1, 39, 71
3, 55173, Note_on_c, 1, 46, 0
3, 55190, Note_on_c, 1, 39, 0
3, 55208, Note_on_c, 1, 37, 70
3, 55389, Note_on_c, 1, 44, 54
3, 55411, Note_on_c, 1, 44, 0
3, 55512, Note_on_c, 1, 44, 59
3, 55717, Note_on_c, 1, 37, 0
3, 55855, Note_on_c, 1, 37, 52
3, 55861, Note_on_c, 1, 44, 0
3, 55913, Note_on_c, 1, 37, 0
3, 55923, Note_on_c, 1, 44, 43
3, 55933, Note_on_c, 1, 44, 0
3, 55987, Note_on_c, 1, 44, 73
3, 56008, Note_on_c, 1, 44, 0
3, 56049, Note_on_c, 1, 44, 64
3, 56113, Note_on_c, 1, 37, 59
3, 56151, Note_on_c, 1, 44, 0
3, 56157, Note_on_c, 1, 37, 0
3, 56176, Note_on_c, 1, 37, 60
3, 56226, Note_on_c, 1, 37, 0
3, 56297, Note_on_c, 1, 37, 74
3, 56593, Note_on_c, 1, 44, 62
3, 56624, Note_on_c, 1, 44, 0
3, 56652, Note_on_c, 1, 49, 85
3, 56837, Note_on_c, 1, 44, 64
3, 56851, Note_on_c, 1, 49, 0
3, 56858, Note_on_c, 1, 44, 0
3, 56898, Note_on_c, 1, 44, 71
3, 56965, Note_on_c, 1, 37, 0
3, 57078, Note_on_c, 1, 37, 65
3, 57119, Note_on_c, 1, 37, 0
3, 57134, Note_on_c, 1, 44, 0
3, 57135, Note_on_c, 1, 38, 70
3, 57318, Note_on_c, 1, 45, 66
3, 57331, Note_on_c, 1, 45, 0
3, 57381, Note_on_c, 1, 45, 71
3, 57551, Note_on_c, 1, 50, 113
3, 57595, Note_on_c, 1, 45, 0
3, 57789, Note_on_c, 1, 38, 0
3, 57791, Note_on_c, 1, 45, 92
3, 57808, Note_on_c, 1, 50, 0
3, 57911, Note_on_c, 1, 37, 73
3, 57959, Note_on_c, 1, 37, 0
3, 57964, Note_on_c, 1, 45, 0
3, 57970, Note_on_c, 1, 38, 89
3, 58262, Note_on_c, 1, 45, 76
3, 58264, Note_on_c, 1, 38, 0
3, 58312, Note_on_c, 1, 45, 0
3, 58323, Note_on_c, 1, 45, 85
3, 58505, Note_on_c, 1, 50, 110
3, 58560, Note_on_c, 1, 45, 0
3, 58748, Note_on_c, 1, 45, 87
3, 58766, Note_on_c, 1, 50, 0
3, 58798, Note_on_c, 1, 45, 0
3, 58811, Note_on_c, 1, 45, 76
3, 58997, Note_on_c, 1, 39, 61
3, 59000, Note_on_c, 1, 45, 0
3, 59021, Note_on_c, 1, 39, 0
3, 59033, Note_on_c, 1, 40, 64
3, 59055, Note_on_c, 1, 40, 0
3, 59064, Note_on_c, 1, 41, 76
3, 59467, Note_on_c, 1, 36, 61
3, 59502, Note_on_c, 1, 41, 0
3, 59509, Note_on_c, 1, 36, 0
3, 59521, Note_on_c, 1, 29, 56
3, 59567, Note_on_c, 1, 29, 0
3, 59585, Note_on_c, 1, 29, 67
3, 59822, Note_on_c, 1, 36, 68
3, 59836, Note_on_c, 1, 29, 0
3, 59870, Note_on_c, 1, 36, 0
3, 59881, Note_on_c, 1, 41, 69
3, 59902, Note_on_c, 1, 41, 0
3, 59947, Note_on_c, 1, 41, 80
3, 59982, Note_on_c, 1, 41, 0
3, 60010, Note_on_c, 1, 41, 85
3, 60047, Note_on_c, 1, 41, 0
3, 60128, Note_on_c, 1, 41, 85
3, 60429, Note_on_c, 1, 48, 61
3, 60443, Note_on_c, 1, 48, 0
3, 60487, Note_on_c, 1, 53, 87
3, 60643, Note_on_c, 1, 41, 0
3, 60666, Note_on_c, 1, 41, 66
3, 60679, Note_on_c, 1, 53, 0
3, 60702, Note_on_c, 1, 41, 0
3, 60725, Note_on_c, 1, 57, 95
3, 60727, Note_on_c, 1, 41, 82
3, 60796, Note_on_c, 1, 57, 0
3, 60797, Note_on_c, 1, 56, 76
3, 60799, Note_on_c, 1, 40, 68
3, 60803, Note_on_c, 1, 41, 0
3, 60870, Note_on_c, 1, 40, 0
3, 60871, Note_on_c, 1, 56, 0
3, 60880, Note_on_c, 1, 39, 57
3, 60883, Note_on_c, 1, 55, 66
3, 60956, Note_on_c, 1, 39, 0
3, 60958, Note_on_c, 1, 55, 0
3, 60963, Note_on_c, 1, 54, 59
3, 60964, Note_on_c, 1, 38, 64
3, 62289, Note_on_c, 1, 54, 0
3, 62340, Note_on_c, 1, 38, 0
3, 62340, End_track
4, 0, Start_track
4, 0, Program_c, 9, 0
4, 0, Control_c, 9, 7, 76
4, 34087, Note_on_c, 9, 59, 68
4, 34129, Note_on_c, 9, 59, 0
4, 34150, Note_on_c, 9, 59, 66
4, 34175, Note_on_c, 9, 59, 0
4, 34267, Note_on_c, 9, 59, 63
4, 34286, Note_on_c, 9, 59, 0
4, 34329, Note_on_c, 9, 59, 71
4, 34497, Note_on_c, 9, 53, 51
4, 34515, Note_on_c, 9, 53, 0
4, 34522, Note_on_c, 9, 59, 0
4, 34745, Note_on_c, 9, 53, 51
4, 34753, Note_on_c, 9, 53, 0
4, 34812, Note_on_c, 9, 59, 56
4, 34821, Note_on_c, 9, 59, 0
4, 34838, Note_on_c, 9, 59, 76
4, 34852, Note_on_c, 9, 59, 0
4, 34872, Note_on_c, 9, 59, 66
4, 34882, Note_on_c, 9, 59, 0
4, 34930, Note_on_c, 9, 59, 79
4, 34937, Note_on_c, 9, 59, 0
4, 34984, Note_on_c, 9, 59, 88
4, 34995, Note_on_c, 9, 59, 0
4, 35041, Note_on_c, 9, 59, 103
4, 35224, Note_on_c, 9, 53, 53
4, 35231, Note_on_c, 9, 59, 0
4, 35244, Note_on_c, 9, 53, 0
4, 35287, Note_on_c, 9, 53, 90
4, 35358, Note_on_c, 9, 53, 0
4, 35593, Note_on_c, 9, 51, 68
4, 35608, Note_on_c, 9, 51, 0
4, 35645, Note_on_c, 9, 59, 85
4, 35658, Note_on_c, 9, 59, 0
4, 35830, Note_on_c, 9, 53, 40
4, 35838, Note_on_c, 9, 53, 0
4, 35884, Note_on_c, 9, 59, 36
4, 35892, Note_on_c, 9, 59, 0
4, 35933, Note_on_c, 9, 59, 77
4, 35940, Note_on_c, 9, 59, 0
4, 35998, Note_on_c, 9, 59, 96
4, 36012, Note_on_c, 9, 59, 0
4, 36184, Note_on_c, 9, 59, 51
4, 36191, Note_on_c, 9, 59, 0
4, 36240, Note_on_c, 9, 59, 68
4, 36253, Note_on_c, 9, 59, 0
4, 36269, Note_on_c, 9, 59, 66
4, 36284, Note_on_c, 9, 59, 0
4, 36299, Note_on_c, 9, 59, 68
4, 36308, Note_on_c, 9, 59, 0
4, 36362, Note_on_c, 9, 59, 65
4, 36370, Note_on_c, 9, 59, 0
4, 36416, Note_on_c, 9, 59, 84
4, 36462, Note_on_c, 9, 59, 0
4, 36661, Note_on_c, 9, 51, 65
4, 36662, Note_on_c, 9, 53, 68
4, 36679, Note_on_c, 9, 53, 0
4, 36686, Note_on_c, 9, 51, 0
4, 36724, Note_on_c, 9, 51, 67
4, 36724, Note_on_c, 9, 53, 69
4, 36755, Note_on_c, 9, 53, 0
4, 36758, Note_on_c, 9, 51, 0
4, 36903, Note_on_c, 9, 59, 70
4, 36919, Note_on_c, 9, 59, 0
4, 37027, Note_on_c, 9, 59, 51
4, 37035, Note_on_c, 9, 59, 0
4, 37084, Note_on_c, 9, 59, 88
4, 37152, Note_on_c, 9, 59, 0
4, 37208, Note_on_c, 9, 59, 51
4, 37220, Note_on_c, 9, 59, 0
4, 37261, Note_on_c, 9, 59, 74
4, 37268, Note_on_c, 9, 59, 0
4, 37319, Note_on_c, 9, 59, 96
4, 37468, Note_on_c, 9, 59, 0
4, 37499, Note_on_c, 9, 59, 53
4, 37512, Note_on_c, 9, 59, 0
4, 37555, Note_on_c, 9, 59, 71
4, 37562, Note_on_c, 9, 59, 0
4, 37619, Note_on_c, 9, 51, 61
4, 37620, Note_on_c, 9, 53, 57
4, 37628, Note_on_c, 9, 53, 0
4, 37639, Note_on_c, 9, 51, 0
4, 37683, Note_on_c, 9, 59, 31
4, 37690, Note_on_c, 9, 59, 0
4, 37736, Note_on_c, 9, 51, 74
4, 37737, Note_on_c, 9, 53, 77
4, 37759, Note_on_c, 9, 53, 0
4, 37766, Note_on_c, 9, 51, 0
4, 37793, Note_on_c, 9, 59, 79
4, 37804, Note_on_c, 9, 59, 0
4, 37857, Note_on_c, 9, 51, 69
4, 37858, Note_on_c, 9, 53, 74
4, 37877, Note_on_c, 9, 53, 0
4, 37877, Note_on_c, 9, 51, 0
4, 37919, Note_on_c, 9, 59, 53
4, 37930, Note_on_c, 9, 59, 0
4, 37983, Note_on_c, 9, 59, 46
4, 37990, Note_on_c, 9, 59, 0
4, 38041, Note_on_c, 9, 59, 91
4, 38156, Note_on_c, 9, 59, 0
4, 38227, Note_on_c, 9, 59, 44
4, 38235, Note_on_c, 9, 59, 0
4, 38349, Note_on_c, 9, 59, 59
4, 38357, Note_on_c, 9, 59, 0
4, 38468, Note_on_c, 9, 51, 71
4, 38470, Note_on_c, 9, 53, 75
4, 38495, Note_on_c, 9, 51, 0
4, 38496, Note_on_c, 9, 53, 0
4, 38583, Note_on_c, 9, 51, 80
4, 38585, Note_on_c, 9, 53, 80
4, 38609, Note_on_c, 9, 51, 0
4, 38616, Note_on_c, 9, 53, 0
4, 38700, Note_on_c, 9, 51, 77
4, 38701, Note_on_c, 9, 53, 74
4, 38717, Note_on_c, 9, 51, 0
4, 38719, Note_on_c, 9, 53, 0
4, 38751, Note_on_c, 9, 59, 68
4, 38769, Note_on_c, 9, 59, 0
4, 38807, Note_on_c, 9, 59, 65
4, 38815, Note_on_c, 9, 59, 0
4, 38868, Note_on_c, 9, 59, 89
4, 39015, Note_on_c, 9, 59, 0
4, 39060, Note_on_c, 9, 59, 63
4, 39067, Note_on_c, 9, 59, 0
4, 39116, Note_on_c, 9, 59, 83
4, 39133, Note_on_c, 9, 59, 0
4, 39307, Note_on_c, 9, 59, 30
4, 39315, Note_on_c, 9, 59, 0
4, 39479, Note_on_c, 9, 59, 74
4, 39494, Note_on_c, 9, 59, 0
4, 39506, Note_on_c, 9, 59, 78
4, 39523, Note_on_c, 9, 59, 0
4, 39538, Note_on_c, 9, 59, 63
4, 39549, Note_on_c, 9, 59, 0
4, 39601, Note_on_c, 9, 59, 83
4, 39615, Note_on_c, 9, 59, 0
4, 39665, Note_on_c, 9, 59, 82
4, 39674, Note_on_c, 9, 59, 0
4, 39726, Note_on_c, 9, 59, 74
4, 39742, Note_on_c, 9, 59, 0
4, 39788, Note_on_c, 9, 51, 71
4, 39789, Note_on_c, 9, 53, 62
4, 39796, Note_on_c, 9, 53, 0
4, 39804, Note_on_c, 9, 51, 0
4, 39843, Note_on_c, 9, 51, 82
4, 39846, Note_on_c, 9, 53, 81
4, 39855, Note_on_c, 9, 52, 65
4, 39862, Note_on_c, 9, 52, 0
4, 39876, Note_on_c, 9, 51, 0
4, 39878, Note_on_c, 9, 53, 0
4, 39969, Note_on_c, 9, 59, 46
4, 39979, Note_on_c, 9, 59, 0
4, 40027, Note_on_c, 9, 59, 79
4, 40115, Note_on_c, 9, 59, 0
4, 40147, Note_on_c, 9, 53, 59
4, 40148, Note_on_c, 9, 51, 39
4, 40156, Note_on_c, 9, 53, 0
4, 40165, Note_on_c, 9, 51, 0
4, 40380, Note_on_c, 9, 59, 69
4, 40405, Note_on_c, 9, 59, 0
4, 40440, Note_on_c, 9, 53, 52
4, 40441, Note_on_c, 9, 51, 42
4, 40459, Note_on_c, 9, 53, 0
4, 40460, Note_on_c, 9, 51, 0
4, 40498, Note_on_c, 9, 51, 53
4, 40501, Note_on_c, 9, 53, 57
4, 40521, Note_on_c, 9, 53, 0
4, 40529, Note_on_c, 9, 51, 0
4, 40556, Note_on_c, 9, 51, 71
4, 40557, Note_on_c, 9, 53, 66
4, 40586, Note_on_c, 9, 53, 0
4, 40594, Note_on_c, 9, 51, 0
4, 40617, Note_on_c, 9, 59, 57
4, 40626, Note_on_c, 9, 59, 0
4, 40684, Note_on_c, 9, 59, 62
4, 40696, Note_on_c, 9, 59, 0
4, 40716, Note_on_c, 9, 59, 60
4, 40727, Note_on_c, 9, 59, 0
4, 40742, Note_on_c, 9, 59, 75
4, 40756, Note_on_c, 9, 59, 0
4, 40795, Note_on_c, 9, 51, 46
4, 40796, Note_on_c, 9, 53, 54
4, 40812, Note_on_c, 9, 53, 0
4, 40816, Note_on_c, 9, 51, 0
4, 40857, Note_on_c, 9, 51, 56
4, 40859, Note_on_c, 9, 53, 54
4, 40873, Note_on_c, 9, 53, 0
4, 40882, Note_on_c, 9, 51, 0
4, 40916, Note_on_c, 9, 51, 60
4, 40918, Note_on_c, 9, 53, 59
4, 40935, Note_on_c, 9, 53, 0
4, 40944, Note_on_c, 9, 51, 0
4, 41099, Note_on_c, 9, 59, 58
4, 41109, Note_on_c, 9, 59, 0
4, 41128, Note_on_c, 9, 59, 76
4, 41144, Note_on_c, 9, 59, 0
4, 41158, Note_on_c, 9, 59, 72
4, 41173, Note_on_c, 9, 59, 0
4, 41225, Note_on_c, 9, 51, 48
4, 41225, Note_on_c, 9, 53, 45
4, 41235, Note_on_c, 9, 53, 0
4, 41248, Note_on_c, 9, 51, 0
4, 41469, Note_on_c, 9, 51, 62
4, 41486, Note_on_c, 9, 51, 0
4, 41528, Note_on_c, 9, 51, 73
4, 41543, Note_on_c, 9, 51, 0
4, 41558, Note_on_c, 9, 51, 52
4, 41567, Note_on_c, 9, 51, 0
4, 41581, Note_on_c, 9, 51, 71
4, 41600, Note_on_c, 9, 51, 0
4, 41644, Note_on_c, 9, 51, 71
4, 41667, Note_on_c, 9, 51, 0
4, 41699, Note_on_c, 9, 53, 77
4, 41701, Note_on_c, 9, 51, 76
4, 41718, Note_on_c, 9, 53, 0
4, 41724, Note_on_c, 9, 51, 0
4, 41764, Note_on_c, 9, 53, 82
4, 41765, Note_on_c, 9, 51, 74
4, 41798, Note_on_c, 9, 51, 0
4, 41798, Note_on_c, 9, 53, 0
4, 41826, Note_on_c, 9, 51, 62
4, 41845, Note_on_c, 9, 51, 0
4, 41887, Note_on_c, 9, 51, 46
4, 41897, Note_on_c, 9, 51, 0
4, 41946, Note_on_c, 9, 53, 83
4, 41949, Note_on_c, 9, 51, 69
4, 41964, Note_on_c, 9, 53, 0
4, 41970, Note_on_c, 9, 51, 0
4, 42066, Note_on_c, 9, 51, 75
4, 42069, Note_on_c, 9, 53, 63
4, 42076, Note_on_c, 9, 53, 0
4, 42088, Note_on_c, 9, 51, 0
4, 42178, Note_on_c, 9, 51, 71
4, 42181, Note_on_c, 9, 53, 67
4, 42198, Note_on_c, 9, 53, 0
4, 42208, Note_on_c, 9, 51, 0
4, 42301, Note_on_c, 9, 51, 46
4, 42312, Note_on_c, 9, 51, 0
4, 42415, Note_on_c, 9, 51, 51
4, 42438, Note_on_c, 9, 51, 0
4, 42482, Note_on_c, 9, 59, 82
4, 42482, Note_on_c, 9, 51, 46
4, 42486, Note_on_c, 9, 53, 44
4, 42495, Note_on_c, 9, 53, 0
4, 42495, Note_on_c, 9, 59, 0
4, 42502, Note_on_c, 9, 51, 0
4, 42540, Note_on_c, 9, 59, 87
4, 42541, Note_on_c, 9, 51, 68
4, 42544, Note_on_c, 9, 53, 62
4, 42564, Note_on_c, 9, 59, 0
4, 42565, Note_on_c, 9, 53, 0
4, 42576, Note_on_c, 9, 51, 0
4, 42610, Note_on_c, 9, 51, 25
4, 42620, Note_on_c, 9, 51, 0
4, 42662, Note_on_c, 9, 51, 55
4, 42682, Note_on_c, 9, 51, 0
4, 42722, Note_on_c, 9, 51, 67
4, 42722, Note_on_c, 9, 53, 79
4, 42741, Note_on_c, 9, 53, 0
4, 42742, Note_on_c, 9, 51, 0
4, 42756, Note_on_c, 9, 53, 70
4, 42764, Note_on_c, 9, 51, 26
4, 42772, Note_on_c, 9, 53, 0
4, 42784, Note_on_c, 9, 53, 59
4, 42795, Note_on_c, 9, 51, 0
4, 42799, Note_on_c, 9, 53, 0
4, 42911, Note_on_c, 9, 51, 51
4, 42929, Note_on_c, 9, 51, 0
4, 43030, Note_on_c, 9, 51, 59
4, 43050, Note_on_c, 9, 51, 0
4, 43149, Note_on_c, 9, 51, 52
4, 43169, Note_on_c, 9, 51, 0
4, 43268, Note_on_c, 9, 51, 64
4, 43289, Note_on_c, 9, 51, 0
4, 43392, Note_on_c, 9, 53, 54
4, 43402, Note_on_c, 9, 53, 0
4, 43455, Note_on_c, 9, 59, 72
4, 43464, Note_on_c, 9, 59, 0
4, 43481, Note_on_c, 9, 59, 73
4, 43498, Note_on_c, 9, 59, 0
4, 43514, Note_on_c, 9, 59, 72
4, 43522, Note_on_c, 9, 59, 0
4, 43573, Note_on_c, 9, 59, 82
4, 43587, Note_on_c, 9, 59, 0
4, 43603, Note_on_c, 9, 59, 66
4, 43618, Note_on_c, 9, 59, 0
4, 43631, Note_on_c, 9, 59, 76
4, 43645, Note_on_c, 9, 59, 0
4, 43695, Note_on_c, 9, 51, 49
4, 43696, Note_on_c, 9, 59, 79
4, 43711, Note_on_c, 9, 59, 0
4, 43713, Note_on_c, 9, 51, 0
4, 43725, Note_on_c, 9, 59, 68
4, 43737, Note_on_c, 9, 59, 0
4, 43752, Note_on_c, 9, 59, 73
4, 43764, Note_on_c, 9, 59, 0
4, 43813, Note_on_c, 9, 59, 77
4, 43829, Note_on_c, 9, 59, 0
4, 43842, Note_on_c, 9, 59, 67
4, 43856, Note_on_c, 9, 59, 0
4, 43869, Note_on_c, 9, 59, 80
4, 43876, Note_on_c, 9, 59, 0
4, 43931, Note_on_c, 9, 59, 80
4, 43932, Note_on_c, 9, 53, 56
4, 43943, Note_on_c, 9, 59, 0
4, 43947, Note_on_c, 9, 53, 0
4, 43989, Note_on_c, 9, 59, 83
4, 43994, Note_on_c, 9, 53, 63
4, 44008, Note_on_c, 9, 59, 0
4, 44013, Note_on_c, 9, 53, 0
4, 44050, Note_on_c, 9, 59, 84
4, 44053, Note_on_c, 9, 53, 57
4, 44070, Note_on_c, 9, 59, 0
4, 44075, Note_on_c, 9, 53, 0
4, 44339, Note_on_c, 9, 59, 66
4, 44346, Note_on_c, 9, 59, 0
4, 44366, Note_on_c, 9, 59, 70
4, 44382, Note_on_c, 9, 59, 0
4, 44394, Note_on_c, 9, 59, 74
4, 44403, Note_on_c, 9, 59, 0
4, 44523, Note_on_c, 9, 59, 63
4, 44535, Note_on_c, 9, 59, 0
4, 44551, Note_on_c, 9, 59, 70
4, 44568, Note_on_c, 9, 59, 0
4, 44580, Note_on_c, 9, 59, 69
4, 44592, Note_on_c, 9, 59, 0
4, 44640, Note_on_c, 9, 59, 77
4, 44645, Note_on_c, 9, 53, 36
4, 44648, Note_on_c, 9, 59, 0
4, 44654, Note_on_c, 9, 53, 0
4, 44699, Note_on_c, 9, 59, 83
4, 44700, Note_on_c, 9, 53, 66
4, 44711, Note_on_c, 9, 59, 0
4, 44717, Note_on_c, 9, 53, 0
4, 44759, Note_on_c, 9, 59, 89
4, 44760, Note_on_c, 9, 53, 79
4, 44780, Note_on_c, 9, 59, 0
4, 44797, Note_on_c, 9, 53, 0
4, 44886, Note_on_c, 9, 59, 25
4, 44893, Note_on_c, 9, 59, 0
4, 44940, Note_on_c, 9, 59, 76
4, 44942, Note_on_c, 9, 53, 77
4, 44958, Note_on_c, 9, 59, 0
4, 44967, Note_on_c, 9, 53, 0
4, 44997, Note_on_c, 9, 59, 60
4, 44998, Note_on_c, 9, 53, 43
4, 45014, Note_on_c, 9, 59, 0
4, 45021, Note_on_c, 9, 53, 0
4, 45056, Note_on_c, 9, 53, 80
4, 45057, Note_on_c, 9, 59, 94
4, 45074, Note_on_c, 9, 59, 0
4, 45084, Note_on_c, 9, 53, 0
4, 45116, Note_on_c, 9, 53, 85
4, 45116, Note_on_c, 9, 59, 105
4, 45157, Note_on_c, 9, 59, 0
4, 45192, Note_on_c, 9, 53, 0
4, 45310, Note_on_c, 9, 59, 71
4, 45314, Note_on_c, 9, 53, 60
4, 45327, Note_on_c, 9, 59, 0
4, 45332, Note_on_c, 9, 53, 0
4, 45372, Note_on_c, 9, 59, 53
4, 45373, Note_on_c, 9, 53, 46
4, 45384, Note_on_c, 9, 59, 0
4, 45390, Note_on_c, 9, 53, 0
4, 45433, Note_on_c, 9, 59, 75
4, 45435, Note_on_c, 9, 53, 66
4, 45447, Note_on_c, 9, 59, 0
4, 45455, Note_on_c, 9, 53, 0
4, 45491, Note_on_c, 9, 53, 62
4, 45492, Note_on_c, 9, 59, 66
4, 45501, Note_on_c, 9, 59, 0
4, 45507, Note_on_c, 9, 53, 0
4, 45546, Note_on_c, 9, 51, 82
4, 45546, Note_on_c, 9, 59, 99
4, 45548, Note_on_c, 9, 53, 82
4, 45563, Note_on_c, 9, 59, 0
4, 45565, Note_on_c, 9, 53, 0
4, 45577, Note_on_c, 9, 51, 0
4, 45605, Note_on_c, 9, 51, 82
4, 45605, Note_on_c, 9, 59, 96
4, 45607, Note_on_c, 9, 53, 80
4, 45687, Note_on_c, 9, 59, 0
4, 45691, Note_on_c, 9, 53, 0
4, 45700, Note_on_c, 9, 51, 0
4, 45783, Note_on_c, 9, 59, 50
4, 45791, Note_on_c, 9, 59, 0
4, 45844, Note_on_c, 9, 59, 44
4, 45852, Note_on_c, 9, 59, 0
4, 45900, Note_on_c, 9, 51, 72
4, 45900, Note_on_c, 9, 53, 77
4, 45901, Note_on_c, 9, 59, 94
4, 45959, Note_on_c, 9, 59, 0
4, 45959, Note_on_c, 9, 53, 0
4, 45962, Note_on_c, 9, 51, 0
4, 46023, Note_on_c, 9, 59, 88
4, 46025, Note_on_c, 9, 51, 76
4, 46026, Note_on_c, 9, 53, 75
4, 46078, Note_on_c, 9, 59, 0
4, 46082, Note_on_c, 9, 53, 0
4, 46087, Note_on_c, 9, 51, 0
4, 46142, Note_on_c, 9, 59, 77
4, 46144, Note_on_c, 9, 51, 71
4, 46144, Note_on_c, 9, 53, 72
4, 46188, Note_on_c, 9, 53, 0
4, 46188, Note_on_c, 9, 59, 0
4, 46198, Note_on_c, 9, 51, 0
4, 46260, Note_on_c, 9, 59, 54
4, 46270, Note_on_c, 9, 59, 0
4, 46387, Note_on_c, 9, 59, 52
4, 46389, Note_on_c, 9, 53, 54
4, 46395, Note_on_c, 9, 59, 0
4, 46400, Note_on_c, 9, 53, 0
4, 46504, Note_on_c, 9, 53, 59
4, 46504, Note_on_c, 9, 59, 56
4, 46512, Note_on_c, 9, 59, 0
4, 46517, Note_on_c, 9, 53, 0
4, 46563, Note_on_c, 9, 51, 65
4, 46563, Note_on_c, 9, 59, 82
4, 46564, Note_on_c, 9, 53, 66
4, 46593, Note_on_c, 9, 53, 0
4, 46603, Note_on_c, 9, 59, 0
4, 46609, Note_on_c, 9, 51, 0
4, 46746, Note_on_c, 9, 59, 57
4, 46748, Note_on_c, 9, 53, 53
4, 46753, Note_on_c, 9, 59, 0
4, 46760, Note_on_c, 9, 53, 0
4, 46805, Note_on_c, 9, 59, 77
4, 46806, Note_on_c, 9, 53, 74
4, 46890, Note_on_c, 9, 59, 0
4, 46932, Note_on_c, 9, 53, 0
4, 46983, Note_on_c, 9, 59, 52
4, 46985, Note_on_c, 9, 53, 58
4, 46991, Note_on_c, 9, 59, 0
4, 46999, Note_on_c, 9, 53, 0
4, 47038, Note_on_c, 9, 59, 64
4, 47039, Note_on_c, 9, 53, 66
4, 47078, Note_on_c, 9, 59, 0
4, 47176, Note_on_c, 9, 53, 0
4, 47230, Note_on_c, 9, 53, 37
4, 47240, Note_on_c, 9, 53, 0
4, 47293, Note_on_c, 9, 53, 71
4, 47299, Note_on_c, 9, 59, 45
4, 47320, Note_on_c, 9, 53, 0
4, 47325, Note_on_c, 9, 59, 0
4, 47471, Note_on_c, 9, 59, 53
4, 47472, Note_on_c, 9, 53, 52
4, 47480, Note_on_c, 9, 59, 0
4, 47484, Note_on_c, 9, 53, 0
4, 47528, Note_on_c, 9, 59, 69
4, 47528, Note_on_c, 9, 53, 61
4, 47546, Note_on_c, 9, 53, 0
4, 47546, Note_on_c, 9, 59, 0
4, 47584, Note_on_c, 9, 53, 68
4, 47584, Note_on_c, 9, 59, 72
4, 47604, Note_on_c, 9, 59, 0
4, 47614, Note_on_c, 9, 53, 0
4, 47644, Note_on_c, 9, 51, 59
4, 47649, Note_on_c, 9, 59, 36
4, 47657, Note_on_c, 9, 59, 0
4, 47666, Note_on_c, 9, 51, 0
4, 47704, Note_on_c, 9, 59, 64
4, 47706, Note_on_c, 9, 51, 64
4, 47708, Note_on_c, 9, 53, 60
4, 47712, Note_on_c, 9, 59, 0
4, 47715, Note_on_c, 9, 53, 0
4, 47724, Note_on_c, 9, 51, 0
4, 47769, Note_on_c, 9, 51, 64
4, 47769, Note_on_c, 9, 59, 80
4, 47769, Note_on_c, 9, 53, 67
4, 47806, Note_on_c, 9, 59, 0
4, 47808, Note_on_c, 9, 51, 0
4, 47814, Note_on_c, 9, 53, 0
4, 47947, Note_on_c, 9, 59, 69
4, 47948, Note_on_c, 9, 53, 67
4, 47970, Note_on_c, 9, 59, 0
4, 47977, Note_on_c, 9, 53, 0
4, 48371, Note_on_c, 9, 59, 59
4, 48381, Note_on_c, 9, 59, 0
4, 48396, Note_on_c, 9, 59, 74
4, 48412, Note_on_c, 9, 59, 0
4, 48426, Note_on_c, 9, 59, 67
4, 48441, Note_on_c, 9, 59, 0
4, 48487, Note_on_c, 9, 53, 43
4, 48498, Note_on_c, 9, 53, 0
4, 48551, Note_on_c, 9, 53, 57
4, 48566, Note_on_c, 9, 53, 0
4, 48609, Note_on_c, 9, 53, 78
4, 48645, Note_on_c, 9, 53, 0
4, 48790, Note_on_c, 9, 53, 60
4, 48805, Note_on_c, 9, 53, 0
4, 48911, Note_on_c, 9, 53, 51
4, 48922, Note_on_c, 9, 53, 0
4, 48967, Note_on_c, 9, 53, 60
4, 48984, Note_on_c, 9, 53, 0
4, 49023, Note_on_c, 9, 51, 62
4, 49040, Note_on_c, 9, 51, 0
4, 49088, Note_on_c, 9, 53, 36
4, 49097, Note_on_c, 9, 53, 0
4, 49147, Note_on_c, 9, 53, 58
4, 49157, Note_on_c, 9, 53, 0
4, 49205, Note_on_c, 9, 59, 61
4, 49215, Note_on_c, 9, 59, 0
4, 49233, Note_on_c, 9, 59, 55
4, 49253, Note_on_c, 9, 59, 0
4, 49267, Note_on_c, 9, 59, 55
4, 49274, Note_on_c, 9, 59, 0
4, 49327, Note_on_c, 9, 59, 68
4, 49345, Note_on_c, 9, 59, 0
4, 49356, Note_on_c, 9, 59, 56
4, 49365, Note_on_c, 9, 59, 0
4, 49386, Note_on_c, 9, 59, 61
4, 49396, Note_on_c, 9, 59, 0
4, 49440, Note_on_c, 9, 59, 66
4, 49448, Note_on_c, 9, 59, 0
4, 49475, Note_on_c, 9, 59, 73
4, 49491, Note_on_c, 9, 59, 0
4, 49503, Note_on_c, 9, 59, 62
4, 49510, Note_on_c, 9, 59, 0
4, 49558, Note_on_c, 9, 59, 78
4, 49573, Note_on_c, 9, 59, 0
4, 49615, Note_on_c, 9, 59, 70
4, 49630, Note_on_c, 9, 59, 0
4, 49678, Note_on_c, 9, 59, 75
4, 49695, Note_on_c, 9, 59, 0
4, 49729, Note_on_c, 9, 59, 58
4, 49739, Note_on_c, 9, 59, 0
4, 49797, Note_on_c, 9, 59, 74
4, 49808, Note_on_c, 9, 59, 0
4, 49860, Note_on_c, 9, 53, 53
4, 49873, Note_on_c, 9, 53, 0
4, 49923, Note_on_c, 9, 53, 54
4, 49932, Note_on_c, 9, 53, 0
4, 49982, Note_on_c, 9, 53, 59
4, 49982, Note_on_c, 9, 59, 58
4, 49990, Note_on_c, 9, 59, 0
4, 49992, Note_on_c, 9, 53, 0
4, 50055, Note_on_c, 9, 59, 33
4, 50063, Note_on_c, 9, 59, 0
4, 50108, Note_on_c, 9, 53, 62
4, 50125, Note_on_c, 9, 53, 0
4, 50174, Note_on_c, 9, 51, 53
4, 50176, Note_on_c, 9, 53, 45
4, 50185, Note_on_c, 9, 53, 0
4, 50195, Note_on_c, 9, 51, 0
4, 50351, Note_on_c, 9, 51, 56
4, 50352, Note_on_c, 9, 53, 60
4, 50366, Note_on_c, 9, 53, 0
4, 50371, Note_on_c, 9, 51, 0
4, 50411, Note_on_c, 9, 51, 61
4, 50413, Note_on_c, 9, 53, 62
4, 50432, Note_on_c, 9, 53, 0
4, 50437, Note_on_c, 9, 51, 0
4, 50468, Note_on_c, 9, 51, 55
4, 50470, Note_on_c, 9, 53, 59
4, 50490, Note_on_c, 9, 53, 0
4, 50501, Note_on_c, 9, 51, 0
4, 50532, Note_on_c, 9, 59, 62
4, 50544, Note_on_c, 9, 59, 0
4, 50588, Note_on_c, 9, 51, 62
4, 50588, Note_on_c, 9, 53, 68
4, 50619, Note_on_c, 9, 53, 0
4, 50630, Note_on_c, 9, 51, 0
4, 50647, Note_on_c, 9, 51, 50
4, 50650, Note_on_c, 9, 53, 60
4, 50677, Note_on_c, 9, 53, 0
4, 50686, Note_on_c, 9, 51, 0
4, 50822, Note_on_c, 9, 53, 51
4, 50823, Note_on_c, 9, 51, 39
4, 50842, Note_on_c, 9, 53, 0
4, 50858, Note_on_c, 9, 51, 0
4, 50947, Note_on_c, 9, 53, 45
4, 50948, Note_on_c, 9, 51, 36
4, 50972, Note_on_c, 9, 53, 0
4, 50993, Note_on_c, 9, 51, 0
4, 51006, Note_on_c, 9, 59, 71
4, 51022, Note_on_c, 9, 59, 0
4, 51034, Note_on_c, 9, 59, 75
4, 51050, Note_on_c, 9, 59, 0
4, 51064, Note_on_c, 9, 59, 72
4, 51078, Note_on_c, 9, 59, 0
4, 51127, Note_on_c, 9, 59, 78
4, 51138, Note_on_c, 9, 59, 0
4, 51184, Note_on_c, 9, 59, 81
4, 51199, Note_on_c, 9, 59, 0
4, 51307, Note_on_c, 9, 59, 62
4, 51314, Note_on_c, 9, 59, 0
4, 51367, Note_on_c, 9, 59, 81
4, 51397, Note_on_c, 9, 59, 0
4, 51427, Note_on_c, 9, 59, 51
4, 51435, Note_on_c, 9, 59, 0
4, 51545, Note_on_c, 9, 59, 77
4, 51554, Note_on_c, 9, 59, 0
4, 51610, Note_on_c, 9, 59, 69
4, 51620, Note_on_c, 9, 59, 0
4, 51637, Note_on_c, 9, 59, 74
4, 51651, Note_on_c, 9, 59, 0
4, 51663, Note_on_c, 9, 59, 76
4, 51678, Note_on_c, 9, 59, 0
4, 51783, Note_on_c, 9, 51, 59
4, 51786, Note_on_c, 9, 53, 59
4, 51793, Note_on_c, 9, 53, 0
4, 51803, Note_on_c, 9, 51, 0
4, 51910, Note_on_c, 9, 51, 45
4, 51911, Note_on_c, 9, 53, 58
4, 51922, Note_on_c, 9, 53, 0
4, 51931, Note_on_c, 9, 51, 0
4, 51964, Note_on_c, 9, 59, 80
4, 51980, Note_on_c, 9, 59, 0
4, 52025, Note_on_c, 9, 59, 63
4, 52032, Note_on_c, 9, 59, 0
4, 52086, Note_on_c, 9, 59, 82
4, 52103, Note_on_c, 9, 59, 0
4, 52115, Note_on_c, 9, 59, 77
4, 52130, Note_on_c, 9, 59, 0
4, 52144, Note_on_c, 9, 59, 74
4, 52159, Note_on_c, 9, 59, 0
4, 52205, Note_on_c, 9, 51, 52
4, 52206, Note_on_c, 9, 53, 55
4, 52214, Note_on_c, 9, 53, 0
4, 52223, Note_on_c, 9, 51, 0
4, 52266, Note_on_c, 9, 51, 78
4, 52269, Note_on_c, 9, 53, 71
4, 52287, Note_on_c, 9, 53, 0
4, 52301, Note_on_c, 9, 51, 0
4, 52415, Note_on_c, 9, 59, 54
4, 52422, Note_on_c, 9, 59, 0
4, 52436, Note_on_c, 9, 59, 77
4, 52450, Note_on_c, 9, 59, 0
4, 52506, Note_on_c, 9, 59, 80
4, 52520, Note_on_c, 9, 59, 0
4, 52597, Note_on_c, 9, 59, 63
4, 52606, Note_on_c, 9, 59, 0
4, 52621, Note_on_c, 9, 59, 74
4, 52643, Note_on_c, 9, 59, 0
4, 52686, Note_on_c, 9, 59, 83
4, 52702, Note_on_c, 9, 59, 0
4, 52746, Note_on_c, 9, 51, 55
4, 52747, Note_on_c, 9, 53, 55
4, 52761, Note_on_c, 9, 53, 0
4, 52768, Note_on_c, 9, 51, 0
4, 52799, Note_on_c, 9, 59, 76
4, 52818, Note_on_c, 9, 59, 0
4, 52861, Note_on_c, 9, 59, 75
4, 52874, Note_on_c, 9, 59, 0
4, 52978, Note_on_c, 9, 59, 65
4, 52986, Note_on_c, 9, 59, 0
4, 53040, Note_on_c, 9, 59, 76
4, 53051, Note_on_c, 9, 59, 0
4, 53071, Note_on_c, 9, 59, 71
4, 53086, Note_on_c, 9, 59, 0
4, 53098, Note_on_c, 9, 59, 78
4, 53104, Note_on_c, 9, 59, 0
4, 53162, Note_on_c, 9, 51, 40
4, 53163, Note_on_c, 9, 53, 44
4, 53171, Note_on_c, 9, 53, 0
4, 53178, Note_on_c, 9, 51, 0
4, 53221, Note_on_c, 9, 51, 71
4, 53223, Note_on_c, 9, 53, 67
4, 53235, Note_on_c, 9, 53, 0
4, 53240, Note_on_c, 9, 51, 0
4, 53284, Note_on_c, 9, 51, 75
4, 53287, Note_on_c, 9, 53, 68
4, 53304, Note_on_c, 9, 53, 0
4, 53309, Note_on_c, 9, 51, 0
4, 53344, Note_on_c, 9, 51, 72
4, 53347, Note_on_c, 9, 53, 67
4, 53365, Note_on_c, 9, 53, 0
4, 53374, Note_on_c, 9, 51, 0
4, 53463, Note_on_c, 9, 51, 65
4, 53463, Note_on_c, 9, 53, 66
4, 53477, Note_on_c, 9, 51, 0
4, 53479, Note_on_c, 9, 53, 0
4, 53522, Note_on_c, 9, 59, 75
4, 53540, Note_on_c, 9, 59, 0
4, 53583, Note_on_c, 9, 59, 57
4, 53592, Note_on_c, 9, 59, 0
4, 53639, Note_on_c, 9, 59, 76
4, 53658, Note_on_c, 9, 59, 0
4, 53700, Note_on_c, 9, 59, 62
4, 53708, Note_on_c, 9, 59, 0
4, 53764, Note_on_c, 9, 53, 82
4, 53789, Note_on_c, 9, 53, 0
4, 53822, Note_on_c, 9, 53, 75
4, 53843, Note_on_c, 9, 53, 0
4, 53944, Note_on_c, 9, 53, 58
4, 53964, Note_on_c, 9, 53, 0
4, 54005, Note_on_c, 9, 59, 68
4, 54018, Note_on_c, 9, 59, 0
4, 54032, Note_on_c, 9, 59, 78
4, 54048, Note_on_c, 9, 59, 0
4, 54061, Note_on_c, 9, 53, 70
4, 54092, Note_on_c, 9, 53, 0
4, 54121, Note_on_c, 9, 53, 66
4, 54141, Note_on_c, 9, 53, 0
4, 54247, Note_on_c, 9, 59, 78
4, 54263, Note_on_c, 9, 59, 0
4, 54279, Note_on_c, 9, 59, 67
4, 54294, Note_on_c, 9, 59, 0
4, 54360, Note_on_c, 9, 53, 71
4, 54377, Note_on_c, 9, 53, 0
4, 54424, Note_on_c, 9, 53, 68
4, 54442, Note_on_c, 9, 53, 0
4, 54536, Note_on_c, 9, 59, 66
4, 54543, Note_on_c, 9, 59, 0
4, 54557, Note_on_c, 9, 59, 78
4, 54572, Note_on_c, 9, 59, 0
4, 54618, Note_on_c, 9, 59, 80
4, 54630, Note_on_c, 9, 59, 0
4, 54672, Note_on_c, 9, 53, 64
4, 54684, Note_on_c, 9, 53, 0
4, 54906, Note_on_c, 9, 59, 71
4, 54915, Note_on_c, 9, 59, 0
4, 54967, Note_on_c, 9, 59, 58
4, 54976, Note_on_c, 9, 59, 0
4, 55027, Note_on_c, 9, 53, 54
4, 55036, Note_on_c, 9, 53, 0
4, 55091, Note_on_c, 9, 59, 42
4, 55100, Note_on_c, 9, 59, 0
4, 55145, Note_on_c, 9, 53, 61
4, 55162, Note_on_c, 9, 53, 0
4, 55207, Note_on_c, 9, 59, 71
4, 55216, Note_on_c, 9, 59, 0
4, 55336, Note_on_c, 9, 59, 60
4, 55344, Note_on_c, 9, 59, 0
4, 55392, Note_on_c, 9, 53, 70
4, 55394, Note_on_c, 9, 59, 60
4, 55403, Note_on_c, 9, 59, 0
4, 55415, Note_on_c, 9, 53, 0
4, 55454, Note_on_c, 9, 59, 53
4, 55467, Note_on_c, 9, 59, 0
4, 55511, Note_on_c, 9, 59, 67
4, 55523, Note_on_c, 9, 59, 0
4, 55568, Note_on_c, 9, 59, 46
4, 55580, Note_on_c, 9, 59, 0
4, 55625, Note_on_c, 9, 59, 68
4, 55625, Note_on_c, 9, 53, 70
4, 55640, Note_on_c, 9, 59, 0
4, 55648, Note_on_c, 9, 53, 0
4, 55685, Note_on_c, 9, 59, 43
4, 55696, Note_on_c, 9, 59, 0
4, 55744, Note_on_c, 9, 59, 71
4, 55750, Note_on_c, 9, 53, 51
4, 55765, Note_on_c, 9, 59, 0
4, 55767, Note_on_c, 9, 53, 0
4, 55858, Note_on_c, 9, 59, 67
4, 55873, Note_on_c, 9, 59, 0
4, 55921, Note_on_c, 9, 59, 51
4, 55931, Note_on_c, 9, 59, 0
4, 55980, Note_on_c, 9, 59, 77
4, 55981, Note_on_c, 9, 53, 67
4, 55996, Note_on_c, 9, 59, 0
4, 56003, Note_on_c, 9, 53, 0
4, 56042, Note_on_c, 9, 59, 77
4, 56043, Note_on_c, 9, 53, 66
4, 56063, Note_on_c, 9, 59, 0
4, 56070, Note_on_c, 9, 53, 0
4, 56174, Note_on_c, 9, 59, 47
4, 56181, Note_on_c, 9, 59, 0
4, 56228, Note_on_c, 9, 59, 68
4, 56235, Note_on_c, 9, 51, 42
4, 56236, Note_on_c, 9, 59, 0
4, 56244, Note_on_c, 9, 51, 0
4, 56287, Note_on_c, 9, 51, 67
4, 56289, Note_on_c, 9, 59, 74
4, 56307, Note_on_c, 9, 59, 0
4, 56315, Note_on_c, 9, 51, 0
4, 56409, Note_on_c, 9, 59, 52
4, 56416, Note_on_c, 9, 59, 0
4, 56474, Note_on_c, 9, 59, 74
4, 56492, Note_on_c, 9, 59, 0
4, 56588, Note_on_c, 9, 51, 64
4, 56589, Note_on_c, 9, 59, 72
4, 56605, Note_on_c, 9, 59, 0
4, 56614, Note_on_c, 9, 51, 0
4, 56649, Note_on_c, 9, 51, 60
4, 56651, Note_on_c, 9, 59, 66
4, 56670, Note_on_c, 9, 59, 0
4, 56679, Note_on_c, 9, 51, 0
4, 56707, Note_on_c, 9, 59, 57
4, 56715, Note_on_c, 9, 59, 0
4, 56767, Note_on_c, 9, 59, 58
4, 56773, Note_on_c, 9, 59, 0
4, 56830, Note_on_c, 9, 51, 69
4, 56830, Note_on_c, 9, 59, 77
4, 56845, Note_on_c, 9, 59, 0
4, 56850, Note_on_c, 9, 51, 0
4, 56891, Note_on_c, 9, 51, 60
4, 56892, Note_on_c, 9, 59, 67
4, 56901, Note_on_c, 9, 59, 0
4, 56909, Note_on_c, 9, 51, 0
4, 56952, Note_on_c, 9, 51, 64
4, 56953, Note_on_c, 9, 59, 76
4, 56966, Note_on_c, 9, 59, 0
4, 56971, Note_on_c, 9, 51, 0
4, 57007, Note_on_c, 9, 51, 60
4, 57014, Note_on_c, 9, 59, 54
4, 57020, Note_on_c, 9, 51, 0
4, 57021, Note_on_c, 9, 59, 0
4, 57070, Note_on_c, 9, 51, 62
4, 57072, Note_on_c, 9, 59, 76
4, 57080, Note_on_c, 9, 59, 0
4, 57089, Note_on_c, 9, 51, 0
4, 57137, Note_on_c, 9, 59, 79
4, 57138, Note_on_c, 9, 53, 62
4, 57150, Note_on_c, 9, 59, 0
4, 57151, Note_on_c, 9, 53, 0
4, 57196, Note_on_c, 9, 59, 62
4, 57204, Note_on_c, 9, 59, 0
4, 57259, Note_on_c, 9, 59, 83
4, 57260, Note_on_c, 9, 53, 74
4, 57336, Note_on_c, 9, 59, 0
4, 57344, Note_on_c, 9, 53, 0
4, 57431, Note_on_c, 9, 59, 71
4, 57434, Note_on_c, 9, 53, 68
4, 57446, Note_on_c, 9, 59, 0
4, 57452, Note_on_c, 9, 53, 0
4, 57664, Note_on_c, 9, 59, 54
4, 57674, Note_on_c, 9, 59, 0
4, 57691, Note_on_c, 9, 59, 71
4, 57705, Note_on_c, 9, 59, 0
4, 57717, Note_on_c, 9, 59, 70
4, 57720, Note_on_c, 9, 53, 61
4, 57731, Note_on_c, 9, 59, 0
4, 57742, Note_on_c, 9, 53, 0
4, 57787, Note_on_c, 9, 59, 80
4, 57787, Note_on_c, 9, 53, 64
4, 57800, Note_on_c, 9, 59, 0
4, 57818, Note_on_c, 9, 53, 0
4, 57917, Note_on_c, 9, 53, 37
4, 57926, Note_on_c, 9, 53, 0
4, 58028, Note_on_c, 9, 53, 49
4, 58030, Note_on_c, 9, 59, 53
4, 58038, Note_on_c, 9, 59, 0
4, 58049, Note_on_c, 9, 53, 0
4, 58144, Note_on_c, 9, 59, 52
4, 58145, Note_on_c, 9, 53, 44
4, 58153, Note_on_c, 9, 59, 0
4, 58172, Note_on_c, 9, 53, 0
4, 58208, Note_on_c, 9, 53, 52
4, 58209, Note_on_c, 9, 59, 64
4, 58273, Note_on_c, 9, 59, 0
4, 58305, Note_on_c, 9, 53, 0
4, 58391, Note_on_c, 9, 59, 54
4, 58392, Note_on_c, 9, 53, 46
4, 58403, Note_on_c, 9, 59, 0
4, 58411, Note_on_c, 9, 53, 0
4, 58511, Note_on_c, 9, 53, 49
4, 58511, Note_on_c, 9, 59, 57
4, 58518, Note_on_c, 9, 59, 0
4, 58520, Note_on_c, 9, 53, 0
4, 58625, Note_on_c, 9, 59, 75
4, 58628, Note_on_c, 9, 53, 61
4, 58637, Note_on_c, 9, 59, 0
4, 58642, Note_on_c, 9, 53, 0
4, 58691, Note_on_c, 9, 59, 85
4, 58693, Note_on_c, 9, 53, 72
4, 58766, Note_on_c, 9, 59, 0
4, 58823, Note_on_c, 9, 53, 0
4, 58865, Note_on_c, 9, 51, 69
4, 58866, Note_on_c, 9, 59, 74
4, 58884, Note_on_c, 9, 59, 0
4, 58909, Note_on_c, 9, 51, 0
4, 58921, Note_on_c, 9, 53, 47
4, 58933, Note_on_c, 9, 53, 0
4, 58982, Note_on_c, 9, 59, 53
4, 58986, Note_on_c, 9, 53, 48
4, 58990, Note_on_c, 9, 59, 0
4, 58996, Note_on_c, 9, 53, 0
4, 59043, Note_on_c, 9, 59, 64
4, 59048, Note_on_c, 9, 53, 58
4, 59058, Note_on_c, 9, 59, 0
4, 59064, Note_on_c, 9, 53, 0
4, 59230, Note_on_c, 9, 59, 51
4, 59239, Note_on_c, 9, 59, 0
4, 59289, Note_on_c, 9, 59, 56
4, 59297, Note_on_c, 9, 59, 0
4, 59346, Note_on_c, 9, 53, 45
4, 59357, Note_on_c, 9, 53, 0
4, 59460, Note_on_c, 9, 53, 43
4, 59471, Note_on_c, 9, 53, 0
4, 59516, Note_on_c, 9, 59, 69
4, 59524, Note_on_c, 9, 59, 0
4, 59582, Note_on_c, 9, 53, 39
4, 59591, Note_on_c, 9, 53, 0
4, 59641, Note_on_c, 9, 53, 36
4, 59651, Note_on_c, 9, 53, 0
4, 59704, Note_on_c, 9, 53, 46
4, 59712, Note_on_c, 9, 53, 0
4, 59762, Note_on_c, 9, 59, 66
4, 59769, Note_on_c, 9, 59, 0
4, 59825, Note_on_c, 9, 53, 44
4, 59834, Note_on_c, 9, 53, 0
4, 59884, Note_on_c, 9, 59, 47
4, 59893, Note_on_c, 9, 59, 0
4, 59916, Note_on_c, 9, 59, 73
4, 59925, Note_on_c, 9, 59, 0
4, 59953, Note_on_c, 9, 53, 49
4, 59971, Note_on_c, 9, 53, 0
4, 60015, Note_on_c, 9, 53, 55
4, 60028, Note_on_c, 9, 53, 0
4, 60077, Note_on_c, 9, 53, 47
4, 60086, Note_on_c, 9, 53, 0
4, 60191, Note_on_c, 9, 59, 55
4, 60198, Note_on_c, 9, 59, 0
4, 60253, Note_on_c, 9, 59, 69
4, 60260, Note_on_c, 9, 59, 0
4, 60310, Note_on_c, 9, 53, 44
4, 60320, Note_on_c, 9, 53, 0
4, 60364, Note_on_c, 9, 53, 56
4, 60378, Note_on_c, 9, 53, 0
4, 60427, Note_on_c, 9, 59, 85
4, 60466, Note_on_c, 9, 59, 0
4, 60549, Note_on_c, 9, 53, 49
4, 60559, Note_on_c, 9, 53, 0
4, 60607, Note_on_c, 9, 59, 43
4, 60615, Note_on_c, 9, 59, 0
4, 60663, Note_on_c, 9, 53, 58
4, 60674, Note_on_c, 9, 53, 0
4, 60725, Note_on_c, 9, 59, 74
4, 60732, Note_on_c, 9, 59, 0
4, 60788, Note_on_c, 9, 53, 51
4, 60798, Note_on_c, 9, 53, 0
4, 60851, Note_on_c, 9, 51, 47
4, 60865, Note_on_c, 9, 51, 0
4, 60909, Note_on_c, 9, 51, 53
4, 60934, Note_on_c, 9, 51, 0
4, 60972, Note_on_c, 9, 57, 58
4, 60973, Note_on_c, 9, 50, 47
4, 60982, Note_on_c, 9, 57, 0
4, 61296, Note_on_c, 9, 50, 0
4, 61382, Note_on_c, 9, 50, 60
4, 61403, Note_on_c, 9, 50, 0
4, 61403, End_track
5, 0, Start_track
5, 0, Control_c, 9, 7, 96
5, 34080, Note_on_c, 9, 36, 47
5, 34080, Note_on_c, 9, 36, 0
5, 34090, Note_on_c, 9, 36, 70
5, 34116, Note_on_c, 9, 36, 0
5, 34193, Note_on_c, 9, 36, 75
5, 34434, Note_on_c, 9, 36, 0
5, 34502, Note_on_c, 9, 36, 26
5, 34510, Note_on_c, 9, 36, 0
5, 34563, Note_on_c, 9, 36, 43
5, 34586, Note_on_c, 9, 36, 0
5, 34761, Note_on_c, 9, 36, 22
5, 34771, Note_on_c, 9, 36, 0
5, 34792, Note_on_c, 9, 40, 48
5, 34805, Note_on_c, 9, 40, 0
5, 34823, Note_on_c, 9, 40, 53
5, 34831, Note_on_c, 9, 40, 0
5, 34850, Note_on_c, 9, 36, 39
5, 34860, Note_on_c, 9, 36, 0
5, 34910, Note_on_c, 9, 36, 40
5, 34932, Note_on_c, 9, 36, 0
5, 34976, Note_on_c, 9, 36, 66
5, 35005, Note_on_c, 9, 36, 0
5, 35040, Note_on_c, 9, 36, 81
5, 35076, Note_on_c, 9, 36, 0
5, 35163, Note_on_c, 9, 36, 80
5, 35202, Note_on_c, 9, 36, 0
5, 35577, Note_on_c, 9, 40, 54
5, 35586, Note_on_c, 9, 40, 0
5, 35632, Note_on_c, 9, 36, 22
5, 35643, Note_on_c, 9, 36, 0
5, 35695, Note_on_c, 9, 36, 41
5, 35708, Note_on_c, 9, 36, 0
5, 35758, Note_on_c, 9, 40, 48
5, 35783, Note_on_c, 9, 40, 0
5, 35822, Note_on_c, 9, 36, 26
5, 35832, Note_on_c, 9, 36, 0
5, 35937, Note_on_c, 9, 36, 82
5, 35969, Note_on_c, 9, 36, 0
5, 35992, Note_on_c, 9, 36, 73
5, 36023, Note_on_c, 9, 36, 0
5, 36184, Note_on_c, 9, 40, 22
5, 36196, Note_on_c, 9, 40, 0
5, 36236, Note_on_c, 9, 40, 55
5, 36253, Note_on_c, 9, 40, 0
5, 36268, Note_on_c, 9, 40, 35
5, 36278, Note_on_c, 9, 40, 0
5, 36285, Note_on_c, 9, 36, 50
5, 36305, Note_on_c, 9, 36, 0
5, 36352, Note_on_c, 9, 36, 56
5, 36373, Note_on_c, 9, 36, 0
5, 36412, Note_on_c, 9, 36, 62
5, 36434, Note_on_c, 9, 36, 0
5, 36787, Note_on_c, 9, 40, 47
5, 36796, Note_on_c, 9, 40, 0
5, 36813, Note_on_c, 9, 40, 47
5, 36835, Note_on_c, 9, 40, 0
5, 36845, Note_on_c, 9, 40, 41
5, 36855, Note_on_c, 9, 40, 0
5, 36905, Note_on_c, 9, 36, 42
5, 36929, Note_on_c, 9, 36, 0
5, 37142, Note_on_c, 9, 36, 35
5, 37156, Note_on_c, 9, 36, 0
5, 37206, Note_on_c, 9, 40, 49
5, 37207, Note_on_c, 9, 38, 51
5, 37215, Note_on_c, 9, 38, 0
5, 37219, Note_on_c, 9, 40, 0
5, 37233, Note_on_c, 9, 38, 49
5, 37233, Note_on_c, 9, 40, 36
5, 37241, Note_on_c, 9, 38, 0
5, 37245, Note_on_c, 9, 40, 0
5, 37379, Note_on_c, 9, 36, 73
5, 37415, Note_on_c, 9, 36, 0
5, 37624, Note_on_c, 9, 37, 63
5, 37640, Note_on_c, 9, 37, 0
5, 37685, Note_on_c, 9, 37, 73
5, 37709, Note_on_c, 9, 37, 0
5, 37741, Note_on_c, 9, 36, 34
5, 37766, Note_on_c, 9, 36, 0
5, 37804, Note_on_c, 9, 36, 44
5, 37819, Note_on_c, 9, 36, 0
5, 37862, Note_on_c, 9, 36, 75
5, 37890, Note_on_c, 9, 36, 0
5, 37922, Note_on_c, 9, 36, 66
5, 37952, Note_on_c, 9, 36, 0
5, 38099, Note_on_c, 9, 36, 34
5, 38112, Note_on_c, 9, 36, 0
5, 38169, Note_on_c, 9, 36, 30
5, 38183, Note_on_c, 9, 36, 0
5, 38201, Note_on_c, 9, 46, 40
5, 38212, Note_on_c, 9, 46, 0
5, 38284, Note_on_c, 9, 46, 33
5, 38293, Note_on_c, 9, 46, 0
5, 38349, Note_on_c, 9, 46, 53
5, 38365, Note_on_c, 9, 46, 0
5, 38427, Note_on_c, 9, 46, 50
5, 38443, Note_on_c, 9, 46, 0
5, 38514, Note_on_c, 9, 46, 54
5, 38531, Note_on_c, 9, 46, 0
5, 38576, Note_on_c, 9, 36, 64
5, 38597, Note_on_c, 9, 36, 0
5, 38636, Note_on_c, 9, 36, 59
5, 38644, Note_on_c, 9, 36, 0
5, 38693, Note_on_c, 9, 36, 71
5, 38710, Note_on_c, 9, 36, 0
5, 38752, Note_on_c, 9, 36, 82
5, 38800, Note_on_c, 9, 36, 0
5, 38870, Note_on_c, 9, 36, 78
5, 38901, Note_on_c, 9, 36, 0
5, 38996, Note_on_c, 9, 36, 77
5, 39027, Note_on_c, 9, 36, 0
5, 39190, Note_on_c, 9, 40, 42
5, 39200, Note_on_c, 9, 40, 0
5, 39244, Note_on_c, 9, 40, 79
5, 39269, Note_on_c, 9, 40, 0
5, 39301, Note_on_c, 9, 36, 49
5, 39317, Note_on_c, 9, 36, 0
5, 39364, Note_on_c, 9, 36, 32
5, 39394, Note_on_c, 9, 36, 0
5, 39544, Note_on_c, 9, 36, 34
5, 39555, Note_on_c, 9, 36, 0
5, 39667, Note_on_c, 9, 40, 50
5, 39673, Note_on_c, 9, 38, 28
5, 39676, Note_on_c, 9, 40, 0
5, 39682, Note_on_c, 9, 38, 0
5, 39727, Note_on_c, 9, 40, 69
5, 39728, Note_on_c, 9, 38, 69
5, 39743, Note_on_c, 9, 38, 0
5, 39747, Note_on_c, 9, 40, 0
5, 39784, Note_on_c, 9, 36, 68
5, 39803, Note_on_c, 9, 36, 0
5, 39845, Note_on_c, 9, 36, 90
5, 39894, Note_on_c, 9, 36, 0
5, 39960, Note_on_c, 9, 36, 87
5, 40007, Note_on_c, 9, 36, 0
5, 40490, Note_on_c, 9, 38, 51
5, 40500, Note_on_c, 9, 38, 0
5, 40521, Note_on_c, 9, 38, 60
5, 40535, Note_on_c, 9, 38, 0
5, 40550, Note_on_c, 9, 36, 57
5, 40581, Note_on_c, 9, 36, 0
5, 40680, Note_on_c, 9, 38, 34
5, 40690, Note_on_c, 9, 38, 0
5, 40706, Note_on_c, 9, 38, 60
5, 40720, Note_on_c, 9, 38, 0
5, 40738, Note_on_c, 9, 36, 58
5, 40779, Note_on_c, 9, 36, 0
5, 40802, Note_on_c, 9, 36, 54
5, 40830, Note_on_c, 9, 36, 0
5, 40861, Note_on_c, 9, 36, 68
5, 40894, Note_on_c, 9, 36, 0
5, 41105, Note_on_c, 9, 40, 69
5, 41130, Note_on_c, 9, 40, 0
5, 41166, Note_on_c, 9, 36, 34
5, 41196, Note_on_c, 9, 36, 0
5, 41220, Note_on_c, 9, 36, 62
5, 41248, Note_on_c, 9, 36, 0
5, 41283, Note_on_c, 9, 36, 67
5, 41308, Note_on_c, 9, 36, 0
5, 41470, Note_on_c, 9, 36, 29
5, 41478, Note_on_c, 9, 36, 0
5, 41585, Note_on_c, 9, 36, 50
5, 41594, Note_on_c, 9, 36, 0
5, 41702, Note_on_c, 9, 36, 80
5, 41721, Note_on_c, 9, 36, 0
5, 41761, Note_on_c, 9, 36, 96
5, 41805, Note_on_c, 9, 36, 0
5, 41880, Note_on_c, 9, 36, 78
5, 41920, Note_on_c, 9, 36, 0
5, 42182, Note_on_c, 9, 40, 48
5, 42190, Note_on_c, 9, 40, 0
5, 42313, Note_on_c, 9, 36, 50
5, 42324, Note_on_c, 9, 36, 0
5, 42372, Note_on_c, 9, 36, 48
5, 42394, Note_on_c, 9, 36, 0
5, 42661, Note_on_c, 9, 40, 30
5, 42673, Note_on_c, 9, 40, 0
5, 42695, Note_on_c, 9, 40, 41
5, 42704, Note_on_c, 9, 40, 0
5, 42722, Note_on_c, 9, 36, 36
5, 42737, Note_on_c, 9, 36, 0
5, 42786, Note_on_c, 9, 40, 44
5, 42794, Note_on_c, 9, 40, 0
5, 42812, Note_on_c, 9, 40, 42
5, 42830, Note_on_c, 9, 40, 0
5, 42846, Note_on_c, 9, 36, 36
5, 42868, Note_on_c, 9, 36, 0
5, 42907, Note_on_c, 9, 36, 64
5, 42938, Note_on_c, 9, 36, 0
5, 42966, Note_on_c, 9, 36, 85
5, 43004, Note_on_c, 9, 36, 0
5, 43028, Note_on_c, 9, 36, 89
5, 43071, Note_on_c, 9, 36, 0
5, 43330, Note_on_c, 9, 36, 44
5, 43357, Note_on_c, 9, 36, 0
5, 43474, Note_on_c, 9, 44, 45
5, 43482, Note_on_c, 9, 44, 0
5, 43565, Note_on_c, 9, 44, 46
5, 43576, Note_on_c, 9, 44, 0
5, 43624, Note_on_c, 9, 44, 60
5, 43635, Note_on_c, 9, 44, 0
5, 43684, Note_on_c, 9, 36, 36
5, 43695, Note_on_c, 9, 36, 0
5, 43742, Note_on_c, 9, 36, 71
5, 43767, Note_on_c, 9, 36, 0
5, 43804, Note_on_c, 9, 36, 78
5, 43836, Note_on_c, 9, 36, 0
5, 44047, Note_on_c, 9, 40, 55
5, 44060, Note_on_c, 9, 40, 0
5, 44080, Note_on_c, 9, 40, 54
5, 44089, Note_on_c, 9, 40, 0
5, 44104, Note_on_c, 9, 36, 50
5, 44115, Note_on_c, 9, 36, 0
5, 44163, Note_on_c, 9, 40, 57
5, 44171, Note_on_c, 9, 40, 0
5, 44221, Note_on_c, 9, 40, 63
5, 44229, Note_on_c, 9, 40, 0
5, 44277, Note_on_c, 9, 40, 70
5, 44286, Note_on_c, 9, 40, 0
5, 44310, Note_on_c, 9, 36, 72
5, 44363, Note_on_c, 9, 36, 0
5, 44399, Note_on_c, 9, 36, 74
5, 44441, Note_on_c, 9, 36, 0
5, 44583, Note_on_c, 9, 36, 36
5, 44593, Note_on_c, 9, 36, 0
5, 44645, Note_on_c, 9, 36, 54
5, 44665, Note_on_c, 9, 36, 0
5, 44709, Note_on_c, 9, 36, 62
5, 44737, Note_on_c, 9, 36, 0
5, 44948, Note_on_c, 9, 36, 27
5, 44957, Note_on_c, 9, 36, 0
5, 45201, Note_on_c, 9, 36, 26
5, 45217, Note_on_c, 9, 36, 0
5, 45311, Note_on_c, 9, 36, 42
5, 45325, Note_on_c, 9, 36, 0
5, 45374, Note_on_c, 9, 48, 64
5, 45382, Note_on_c, 9, 48, 0
5, 45401, Note_on_c, 9, 48, 63
5, 45422, Note_on_c, 9, 48, 0
5, 45435, Note_on_c, 9, 36, 45
5, 45446, Note_on_c, 9, 36, 0
5, 45481, Note_on_c, 9, 47, 55
5, 45489, Note_on_c, 9, 47, 0
5, 45510, Note_on_c, 9, 47, 60
5, 45528, Note_on_c, 9, 47, 0
5, 45534, Note_on_c, 9, 45, 55
5, 45550, Note_on_c, 9, 45, 0
5, 45611, Note_on_c, 9, 36, 74
5, 45627, Note_on_c, 9, 36, 0
5, 45666, Note_on_c, 9, 36, 68
5, 45680, Note_on_c, 9, 36, 0
5, 45724, Note_on_c, 9, 36, 66
5, 45740, Note_on_c, 9, 36, 0
5, 46077, Note_on_c, 9, 36, 49
5, 46089, Note_on_c, 9, 36, 0
5, 46200, Note_on_c, 9, 37, 81
5, 46233, Note_on_c, 9, 37, 0
5, 46267, Note_on_c, 9, 36, 37
5, 46284, Note_on_c, 9, 36, 0
5, 46394, Note_on_c, 9, 36, 33
5, 46408, Note_on_c, 9, 36, 0
5, 46507, Note_on_c, 9, 36, 32
5, 46516, Note_on_c, 9, 36, 0
5, 46565, Note_on_c, 9, 36, 45
5, 46575, Note_on_c, 9, 36, 0
5, 46623, Note_on_c, 9, 36, 44
5, 46649, Note_on_c, 9, 36, 0
5, 46688, Note_on_c, 9, 37, 90
5, 46714, Note_on_c, 9, 37, 0
5, 46750, Note_on_c, 9, 36, 44
5, 46761, Note_on_c, 9, 36, 0
5, 46812, Note_on_c, 9, 36, 36
5, 46824, Note_on_c, 9, 36, 0
5, 46873, Note_on_c, 9, 36, 51
5, 46882, Note_on_c, 9, 36, 0
5, 46933, Note_on_c, 9, 38, 60
5, 46940, Note_on_c, 9, 38, 0
5, 46962, Note_on_c, 9, 38, 46
5, 46977, Note_on_c, 9, 38, 0
5, 46994, Note_on_c, 9, 36, 37
5, 47007, Note_on_c, 9, 36, 0
5, 47052, Note_on_c, 9, 36, 22
5, 47061, Note_on_c, 9, 36, 0
5, 47108, Note_on_c, 9, 36, 82
5, 47140, Note_on_c, 9, 36, 0
5, 47170, Note_on_c, 9, 36, 74
5, 47194, Note_on_c, 9, 36, 0
5, 47347, Note_on_c, 9, 36, 36
5, 47357, Note_on_c, 9, 36, 0
5, 47462, Note_on_c, 9, 36, 53
5, 47470, Note_on_c, 9, 36, 0
5, 47524, Note_on_c, 9, 36, 68
5, 47569, Note_on_c, 9, 36, 0
5, 47628, Note_on_c, 9, 36, 60
5, 47673, Note_on_c, 9, 36, 0
5, 48659, Note_on_c, 9, 36, 37
5, 48669, Note_on_c, 9, 36, 0
5, 48774, Note_on_c, 9, 36, 50
5, 48784, Note_on_c, 9, 36, 0
5, 48841, Note_on_c, 9, 36, 52
5, 48893, Note_on_c, 9, 36, 0
5, 49621, Note_on_c, 9, 36, 44
5, 49630, Note_on_c, 9, 36, 0
5, 49746, Note_on_c, 9, 36, 40
5, 49755, Note_on_c, 9, 36, 0
5, 49804, Note_on_c, 9, 36, 38
5, 49815, Note_on_c, 9, 36, 0
5, 49927, Note_on_c, 9, 37, 86
5, 49950, Note_on_c, 9, 37, 0
5, 49983, Note_on_c, 9, 36, 36
5, 49994, Note_on_c, 9, 36, 0
5, 50109, Note_on_c, 9, 36, 49
5, 50118, Note_on_c, 9, 36, 0
5, 50170, Note_on_c, 9, 38, 59
5, 50181, Note_on_c, 9, 38, 0
5, 50200, Note_on_c, 9, 38, 62
5, 50215, Note_on_c, 9, 38, 0
5, 50243, Note_on_c, 9, 36, 31
5, 50254, Note_on_c, 9, 36, 0
5, 50294, Note_on_c, 9, 36, 53
5, 50313, Note_on_c, 9, 36, 0
5, 50347, Note_on_c, 9, 36, 57
5, 50366, Note_on_c, 9, 36, 0
5, 50644, Note_on_c, 9, 40, 48
5, 50654, Note_on_c, 9, 40, 0
5, 50670, Note_on_c, 9, 40, 46
5, 50682, Note_on_c, 9, 40, 0
5, 50703, Note_on_c, 9, 36, 45
5, 50722, Note_on_c, 9, 36, 0
5, 50760, Note_on_c, 9, 40, 43
5, 50809, Note_on_c, 9, 40, 0
5, 50830, Note_on_c, 9, 36, 34
5, 50842, Note_on_c, 9, 36, 0
5, 50881, Note_on_c, 9, 40, 53
5, 50890, Note_on_c, 9, 40, 0
5, 50911, Note_on_c, 9, 40, 52
5, 50930, Note_on_c, 9, 40, 0
5, 50952, Note_on_c, 9, 36, 42
5, 50963, Note_on_c, 9, 36, 0
5, 51056, Note_on_c, 9, 36, 44
5, 51067, Note_on_c, 9, 36, 0
5, 51122, Note_on_c, 9, 40, 55
5, 51130, Note_on_c, 9, 40, 0
5, 51152, Note_on_c, 9, 40, 45
5, 51170, Note_on_c, 9, 40, 0
5, 51193, Note_on_c, 9, 36, 22
5, 51202, Note_on_c, 9, 36, 0
5, 51241, Note_on_c, 9, 40, 45
5, 51255, Note_on_c, 9, 40, 0
5, 51271, Note_on_c, 9, 40, 33
5, 51285, Note_on_c, 9, 40, 0
5, 51366, Note_on_c, 9, 36, 48
5, 51375, Note_on_c, 9, 36, 0
5, 51427, Note_on_c, 9, 36, 48
5, 51437, Note_on_c, 9, 36, 0
5, 51902, Note_on_c, 9, 40, 47
5, 51918, Note_on_c, 9, 40, 0
5, 51966, Note_on_c, 9, 36, 39
5, 51979, Note_on_c, 9, 36, 0
5, 52023, Note_on_c, 9, 36, 47
5, 52036, Note_on_c, 9, 36, 0
5, 52084, Note_on_c, 9, 36, 53
5, 52108, Note_on_c, 9, 36, 0
5, 52451, Note_on_c, 9, 36, 44
5, 52463, Note_on_c, 9, 36, 0
5, 52506, Note_on_c, 9, 36, 64
5, 52527, Note_on_c, 9, 36, 0
5, 52572, Note_on_c, 9, 36, 70
5, 52600, Note_on_c, 9, 36, 0
5, 52755, Note_on_c, 9, 40, 48
5, 52763, Note_on_c, 9, 40, 0
5, 53002, Note_on_c, 9, 36, 34
5, 53011, Note_on_c, 9, 36, 0
5, 53063, Note_on_c, 9, 36, 44
5, 53072, Note_on_c, 9, 36, 0
5, 53116, Note_on_c, 9, 36, 41
5, 53126, Note_on_c, 9, 36, 0
5, 53172, Note_on_c, 9, 36, 60
5, 53183, Note_on_c, 9, 36, 0
5, 53291, Note_on_c, 9, 36, 62
5, 53303, Note_on_c, 9, 36, 0
5, 53591, Note_on_c, 9, 36, 35
5, 53601, Note_on_c, 9, 36, 0
5, 53650, Note_on_c, 9, 36, 54
5, 53660, Note_on_c, 9, 36, 0
5, 53708, Note_on_c, 9, 36, 51
5, 53722, Note_on_c, 9, 36, 0
5, 53771, Note_on_c, 9, 37, 64
5, 53785, Note_on_c, 9, 37, 0
5, 54017, Note_on_c, 9, 36, 40
5, 54027, Note_on_c, 9, 36, 0
5, 54046, Note_on_c, 9, 36, 62
5, 54100, Note_on_c, 9, 36, 0
5, 54135, Note_on_c, 9, 36, 61
5, 54145, Note_on_c, 9, 36, 0
5, 54192, Note_on_c, 9, 36, 57
5, 54211, Note_on_c, 9, 36, 0
5, 54255, Note_on_c, 9, 37, 75
5, 54272, Note_on_c, 9, 37, 0
5, 54368, Note_on_c, 9, 36, 47
5, 54380, Note_on_c, 9, 36, 0
5, 54607, Note_on_c, 9, 36, 50
5, 54617, Note_on_c, 9, 36, 0
5, 54660, Note_on_c, 9, 36, 57
5, 54670, Note_on_c, 9, 36, 0
5, 54847, Note_on_c, 9, 36, 46
5, 54856, Note_on_c, 9, 36, 0
5, 54909, Note_on_c, 9, 36, 60
5, 54928, Note_on_c, 9, 36, 0
5, 54973, Note_on_c, 9, 37, 82
5, 54990, Note_on_c, 9, 37, 0
5, 55028, Note_on_c, 9, 36, 35
5, 55040, Note_on_c, 9, 36, 0
5, 55091, Note_on_c, 9, 36, 58
5, 55108, Note_on_c, 9, 36, 0
5, 55273, Note_on_c, 9, 38, 53
5, 55281, Note_on_c, 9, 38, 0
5, 55302, Note_on_c, 9, 38, 61
5, 55319, Note_on_c, 9, 38, 0
5, 55333, Note_on_c, 9, 36, 42
5, 55348, Note_on_c, 9, 36, 0
5, 55449, Note_on_c, 9, 38, 65
5, 55468, Note_on_c, 9, 38, 0
5, 55498, Note_on_c, 9, 38, 63
5, 55517, Note_on_c, 9, 38, 0
5, 55560, Note_on_c, 9, 36, 46
5, 55571, Note_on_c, 9, 36, 0
5, 55744, Note_on_c, 9, 38, 46
5, 55752, Note_on_c, 9, 38, 0
5, 55782, Note_on_c, 9, 38, 80
5, 55797, Note_on_c, 9, 38, 0
5, 55832, Note_on_c, 9, 36, 64
5, 55856, Note_on_c, 9, 36, 0
5, 55935, Note_on_c, 9, 36, 55
5, 55949, Note_on_c, 9, 36, 0
5, 56034, Note_on_c, 9, 36, 35
5, 56043, Note_on_c, 9, 36, 0
5, 56058, Note_on_c, 9, 38, 60
5, 56066, Note_on_c, 9, 38, 0
5, 56082, Note_on_c, 9, 38, 67
5, 56100, Note_on_c, 9, 38, 0
5, 56132, Note_on_c, 9, 36, 42
5, 56143, Note_on_c, 9, 36, 0
5, 56185, Note_on_c, 9, 36, 58
5, 56200, Note_on_c, 9, 36, 0
5, 56463, Note_on_c, 9, 36, 51
5, 56473, Note_on_c, 9, 36, 0
5, 56529, Note_on_c, 9, 36, 49
5, 56538, Note_on_c, 9, 36, 0
5, 56712, Note_on_c, 9, 38, 38
5, 56722, Note_on_c, 9, 38, 0
5, 56772, Note_on_c, 9, 38, 52
5, 56779, Note_on_c, 9, 38, 0
5, 56833, Note_on_c, 9, 36, 51
5, 56841, Note_on_c, 9, 36, 0
5, 56901, Note_on_c, 9, 40, 74
5, 56910, Note_on_c, 9, 40, 0
5, 56929, Note_on_c, 9, 40, 67
5, 56945, Note_on_c, 9, 40, 0
5, 56960, Note_on_c, 9, 36, 40
5, 56981, Note_on_c, 9, 36, 0
5, 57024, Note_on_c, 9, 36, 47
5, 57035, Note_on_c, 9, 36, 0
5, 57082, Note_on_c, 9, 36, 51
5, 57095, Note_on_c, 9, 36, 0
5, 57256, Note_on_c, 9, 36, 46
5, 57265, Note_on_c, 9, 36, 0
5, 57319, Note_on_c, 9, 36, 55
5, 57328, Note_on_c, 9, 36, 0
5, 57379, Note_on_c, 9, 36, 64
5, 57396, Note_on_c, 9, 36, 0
5, 57789, Note_on_c, 9, 36, 55
5, 57797, Note_on_c, 9, 36, 0
5, 57848, Note_on_c, 9, 36, 74
5, 57866, Note_on_c, 9, 36, 0
5, 57975, Note_on_c, 9, 36, 37
5, 57984, Note_on_c, 9, 36, 0
5, 58086, Note_on_c, 9, 37, 82
5, 58103, Note_on_c, 9, 37, 0
5, 58143, Note_on_c, 9, 36, 31
5, 58153, Note_on_c, 9, 36, 0
5, 58205, Note_on_c, 9, 36, 35
5, 58216, Note_on_c, 9, 36, 0
5, 58448, Note_on_c, 9, 36, 42
5, 58457, Note_on_c, 9, 36, 0
5, 58508, Note_on_c, 9, 36, 30
5, 58521, Note_on_c, 9, 36, 0
5, 58573, Note_on_c, 9, 37, 91
5, 58591, Note_on_c, 9, 37, 0
5, 58626, Note_on_c, 9, 36, 44
5, 58637, Note_on_c, 9, 36, 0
5, 58687, Note_on_c, 9, 36, 54
5, 58695, Note_on_c, 9, 36, 0
5, 58868, Note_on_c, 9, 36, 74
5, 58884, Note_on_c, 9, 36, 0
5, 58930, Note_on_c, 9, 36, 75
5, 58951, Note_on_c, 9, 36, 0
5, 59060, Note_on_c, 9, 37, 74
5, 59073, Note_on_c, 9, 37, 0
5, 59086, Note_on_c, 9, 37, 68
5, 59101, Note_on_c, 9, 37, 0
5, 59124, Note_on_c, 9, 36, 54
5, 59142, Note_on_c, 9, 36, 0
5, 59186, Note_on_c, 9, 36, 49
5, 59194, Note_on_c, 9, 36, 0
5, 59467, Note_on_c, 9, 36, 38
5, 59477, Note_on_c, 9, 36, 0
5, 59526, Note_on_c, 9, 36, 58
5, 59535, Note_on_c, 9, 36, 0
5, 59556, Note_on_c, 9, 36, 68
5, 59580, Note_on_c, 9, 36, 0
5, 59704, Note_on_c, 9, 38, 57
5, 59711, Note_on_c, 9, 38, 0
5, 59730, Note_on_c, 9, 38, 64
5, 59746, Note_on_c, 9, 38, 0
5, 59798, Note_on_c, 9, 36, 47
5, 59807, Note_on_c, 9, 36, 0
5, 59821, Note_on_c, 9, 38, 60
5, 59850, Note_on_c, 9, 38, 0
5, 59880, Note_on_c, 9, 36, 45
5, 59893, Note_on_c, 9, 36, 0
5, 59937, Note_on_c, 9, 36, 47
5, 59950, Note_on_c, 9, 36, 0
5, 60127, Note_on_c, 9, 38, 33
5, 60136, Note_on_c, 9, 38, 0
5, 60150, Note_on_c, 9, 38, 55
5, 60162, Note_on_c, 9, 38, 0
5, 60224, Note_on_c, 9, 36, 35
5, 60233, Note_on_c, 9, 36, 0
5, 60248, Note_on_c, 9, 38, 53
5, 60256, Note_on_c, 9, 38, 0
5, 60303, Note_on_c, 9, 36, 40
5, 60314, Note_on_c, 9, 36, 0
5, 60364, Note_on_c, 9, 36, 48
5, 60374, Note_on_c, 9, 36, 0
5, 60464, Note_on_c, 9, 36, 40
5, 60473, Note_on_c, 9, 36, 0
5, 60489, Note_on_c, 9, 38, 44
5, 60498, Note_on_c, 9, 38, 0
5, 60544, Note_on_c, 9, 38, 53
5, 60551, Note_on_c, 9, 38, 0
5, 60681, Note_on_c, 9, 38, 22
5, 60689, Note_on_c, 9, 38, 0
5, 60792, Note_on_c, 9, 36, 80
5, 60811, Note_on_c, 9, 36, 0
5, 60853, Note_on_c, 9, 36, 80
5, 60875, Note_on_c, 9, 36, 0
5, 60875, End_track
6, 0, Start_track
6, 0, End_track
0, 0, End_of_file
