0, 0, Header, 1, 5, 960
1, 0, Start_track
1, 0, Title_t, "Maid(en)s of Cadiz (Delibes)"
1, 0, Text_t, "dougmck@pipeline.com.au - as played by Oscar Peterson - and by Miles Davis with Gil Evans\012"
1, 0, Time_signature, 4, 2, 24, 8
1, 0, Key_signature, 0, "major"
1, 0, Tempo, 1000000
1, 0, End_track
2, 0, Start_track
2, 0, Title_t, "Piano"
2, 0, Program_c, 0, 0
2, 0, Control_c, 0, 64, 127
2, 0, Control_c, 0, 64, 0
2, 18, Note_on_c, 0, 54, 46
2, 24, Note_on_c, 0, 76, 35
2, 231, Control_c, 0, 64, 127
2, 438, Note_on_c, 0, 60, 30
2, 567, Note_on_c, 0, 84, 65
2, 594, Note_on_c, 0, 76, 0
2, 874, Note_on_c, 0, 64, 39
2, 1361, Note_on_c, 0, 71, 42
2, 1822, Note_on_c, 0, 71, 0
2, 1826, Note_on_c, 0, 69, 50
2, 2266, Note_on_c, 0, 64, 0
2, 2368, Note_on_c, 0, 84, 0
2, 2379, Note_on_c, 0, 83, 60
2, 2675, Note_on_c, 0, 54, 0
2, 2892, Note_on_c, 0, 60, 0
2, 2907, Note_on_c, 0, 75, 29
2, 2913, Note_on_c, 0, 53, 44
2, 2922, Control_c, 0, 64, 0
2, 2956, Note_on_c, 0, 83, 0
2, 3242, Control_c, 0, 64, 127
2, 3375, Note_on_c, 0, 59, 57
2, 3797, Control_c, 0, 64, 0
2, 3831, Note_on_c, 0, 63, 69
2, 3952, Control_c, 0, 64, 127
2, 4121, Note_on_c, 0, 69, 0
2, 4289, Note_on_c, 0, 70, 82
2, 4766, Note_on_c, 0, 68, 60
2, 4780, Control_c, 0, 64, 0
2, 4804, Note_on_c, 0, 70, 0
2, 4927, Control_c, 0, 64, 127
2, 5397, Note_on_c, 0, 63, 0
2, 5423, Note_on_c, 0, 53, 0
2, 5456, Note_on_c, 0, 59, 0
2, 5746, Note_on_c, 0, 74, 92
2, 5769, Note_on_c, 0, 75, 0
2, 5827, Control_c, 0, 64, 0
2, 5841, Note_on_c, 0, 52, 38
2, 6250, Note_on_c, 0, 68, 0
2, 6266, Note_on_c, 0, 58, 31
2, 6268, Control_c, 0, 64, 127
2, 6455, Note_on_c, 0, 78, 20
2, 6504, Note_on_c, 0, 78, 0
2, 6521, Note_on_c, 0, 79, 33
2, 6524, Note_on_c, 0, 74, 0
2, 6637, Note_on_c, 0, 80, 37
2, 6687, Note_on_c, 0, 79, 0
2, 6698, Note_on_c, 0, 81, 62
2, 6709, Note_on_c, 0, 80, 0
2, 6763, Note_on_c, 0, 62, 27
2, 6789, Note_on_c, 0, 81, 0
2, 6808, Note_on_c, 0, 82, 74
2, 7251, Note_on_c, 0, 69, 36
2, 7711, Note_on_c, 0, 67, 36
2, 7738, Note_on_c, 0, 69, 0
2, 8162, Note_on_c, 0, 82, 0
2, 8177, Note_on_c, 0, 81, 51
2, 8250, Note_on_c, 0, 52, 0
2, 8603, Note_on_c, 0, 62, 0
2, 8681, Control_c, 0, 64, 0
2, 8688, Note_on_c, 0, 51, 46
2, 8689, Note_on_c, 0, 73, 25
2, 8697, Note_on_c, 0, 58, 0
2, 8796, Note_on_c, 0, 81, 0
2, 8984, Control_c, 0, 64, 127
2, 9128, Note_on_c, 0, 58, 64
2, 9589, Note_on_c, 0, 61, 65
2, 10012, Note_on_c, 0, 67, 0
2, 10080, Control_c, 0, 64, 0
2, 10091, Note_on_c, 0, 68, 71
2, 10259, Control_c, 0, 64, 127
2, 10570, Control_c, 0, 64, 0
2, 10599, Note_on_c, 0, 67, 60
2, 10618, Note_on_c, 0, 68, 0
2, 10783, Control_c, 0, 64, 127
2, 11024, Note_on_c, 0, 58, 0
2, 11122, Note_on_c, 0, 61, 0
2, 11197, Control_c, 0, 64, 127
2, 11238, Control_c, 0, 64, 0
2, 11239, Note_on_c, 0, 51, 0
2, 11385, Control_c, 0, 64, 127
2, 11541, Control_c, 0, 64, 0
2, 11588, Note_on_c, 0, 72, 41
2, 11592, Control_c, 0, 64, 0
2, 11614, Note_on_c, 0, 50, 45
2, 11622, Note_on_c, 0, 73, 0
2, 11993, Control_c, 0, 64, 127
2, 12022, Note_on_c, 0, 56, 48
2, 12042, Note_on_c, 0, 67, 0
2, 12228, Control_c, 0, 64, 127
2, 12501, Note_on_c, 0, 60, 36
2, 12506, Control_c, 0, 64, 0
2, 12561, Note_on_c, 0, 80, 69
2, 12806, Note_on_c, 0, 72, 0
2, 12976, Control_c, 0, 64, 0
2, 12983, Note_on_c, 0, 67, 51
2, 13073, Control_c, 0, 64, 127
2, 13463, Control_c, 0, 64, 127
2, 13490, Control_c, 0, 64, 0
2, 13499, Note_on_c, 0, 65, 46
2, 13508, Note_on_c, 0, 67, 0
2, 13613, Control_c, 0, 64, 127
2, 13642, Control_c, 0, 64, 0
2, 13942, Note_on_c, 0, 50, 0
2, 13949, Note_on_c, 0, 80, 0
2, 13974, Note_on_c, 0, 79, 69
2, 14012, Note_on_c, 0, 60, 0
2, 14086, Control_c, 0, 64, 0
2, 14156, Note_on_c, 0, 56, 0
2, 14350, Note_on_c, 0, 79, 0
2, 14490, Note_on_c, 0, 65, 0
2, 15146, Note_on_c, 0, 55, 48
2, 15161, Note_on_c, 0, 43, 33
2, 15172, Control_c, 0, 64, 127
2, 15708, Note_on_c, 0, 43, 0
2, 15861, Note_on_c, 0, 55, 0
2, 15890, Note_on_c, 0, 55, 22
2, 15891, Note_on_c, 0, 51, 57
2, 15896, Note_on_c, 0, 60, 60
2, 15971, Control_c, 0, 64, 0
2, 16097, Control_c, 0, 64, 127
2, 16389, Note_on_c, 0, 51, 0
2, 16654, Note_on_c, 0, 55, 0
2, 16772, Note_on_c, 0, 55, 64
2, 16774, Note_on_c, 0, 62, 69
2, 16780, Control_c, 0, 64, 0
2, 16790, Note_on_c, 0, 47, 48
2, 16862, Note_on_c, 0, 60, 0
2, 16924, Control_c, 0, 64, 127
2, 17232, Note_on_c, 0, 55, 0
2, 17293, Note_on_c, 0, 62, 0
2, 17433, Note_on_c, 0, 47, 0
2, 17434, Note_on_c, 0, 60, 62
2, 17435, Note_on_c, 0, 55, 62
2, 17436, Note_on_c, 0, 48, 43
2, 17441, Note_on_c, 0, 63, 61
2, 17492, Control_c, 0, 64, 0
2, 17549, Control_c, 0, 64, 127
2, 17789, Note_on_c, 0, 55, 0
2, 17792, Note_on_c, 0, 60, 0
2, 17833, Note_on_c, 0, 63, 0
2, 18107, Note_on_c, 0, 48, 0
2, 18155, Note_on_c, 0, 65, 57
2, 18171, Note_on_c, 0, 53, 41
2, 18177, Note_on_c, 0, 60, 42
2, 18179, Note_on_c, 0, 44, 33
2, 18194, Control_c, 0, 64, 0
2, 18406, Control_c, 0, 64, 127
2, 18534, Note_on_c, 0, 44, 0
2, 18536, Note_on_c, 0, 65, 0
2, 18542, Note_on_c, 0, 53, 0
2, 18550, Note_on_c, 0, 60, 0
2, 19128, Note_on_c, 0, 67, 39
2, 19140, Note_on_c, 0, 59, 52
2, 19156, Control_c, 0, 64, 0
2, 19162, Note_on_c, 0, 37, 26
2, 19163, Note_on_c, 0, 65, 28
2, 19165, Note_on_c, 0, 44, 28
2, 19171, Note_on_c, 0, 53, 30
2, 19496, Control_c, 0, 64, 127
2, 20256, Note_on_c, 0, 65, 0
2, 20326, Note_on_c, 0, 67, 0
2, 20361, Note_on_c, 0, 53, 0
2, 20507, Note_on_c, 0, 59, 0
2, 20537, Note_on_c, 0, 67, 39
2, 20573, Note_on_c, 0, 37, 0
2, 20658, Note_on_c, 0, 44, 0
2, 20752, Note_on_c, 0, 67, 0
2, 21509, Note_on_c, 0, 67, 45
2, 21534, Note_on_c, 0, 60, 36
2, 21541, Note_on_c, 0, 53, 36
2, 21563, Note_on_c, 0, 38, 35
2, 21570, Note_on_c, 0, 45, 34
2, 21576, Control_c, 0, 64, 0
2, 21920, Control_c, 0, 64, 127
2, 22281, Note_on_c, 0, 67, 0
2, 22456, Note_on_c, 0, 53, 0
2, 22481, Note_on_c, 0, 45, 0
2, 22526, Note_on_c, 0, 38, 0
2, 22728, Note_on_c, 0, 67, 39
2, 22752, Note_on_c, 0, 36, 32
2, 22752, Note_on_c, 0, 36, 0
2, 22957, Note_on_c, 0, 60, 0
2, 23970, Note_on_c, 0, 67, 0
2, 24182, Note_on_c, 0, 67, 38
2, 24202, Note_on_c, 0, 61, 28
2, 24203, Note_on_c, 0, 43, 31
2, 24211, Control_c, 0, 64, 0
2, 24214, Note_on_c, 0, 59, 34
2, 24218, Note_on_c, 0, 63, 34
2, 24225, Note_on_c, 0, 53, 19
2, 24432, Control_c, 0, 64, 127
2, 24750, Note_on_c, 0, 59, 0
2, 24813, Note_on_c, 0, 61, 0
2, 24823, Note_on_c, 0, 43, 0
2, 24855, Note_on_c, 0, 53, 0
2, 24864, Note_on_c, 0, 63, 0
2, 24916, Note_on_c, 0, 67, 0
2, 26887, Note_on_c, 0, 85, 29
2, 26971, Note_on_c, 0, 89, 30
2, 27027, Note_on_c, 0, 87, 26
2, 27063, Note_on_c, 0, 91, 34
2, 27109, Note_on_c, 0, 93, 46
2, 27147, Note_on_c, 0, 89, 0
2, 27182, Note_on_c, 0, 95, 47
2, 27321, Note_on_c, 0, 93, 0
2, 27532, Note_on_c, 0, 91, 0
2, 27592, Note_on_c, 0, 95, 0
2, 27639, Note_on_c, 0, 87, 0
2, 27654, Note_on_c, 0, 85, 0
2, 28608, Control_c, 0, 64, 0
2, 31768, Note_on_c, 0, 36, 54
2, 31789, Control_c, 0, 64, 127
2, 31858, Note_on_c, 0, 36, 0
2, 32750, Note_on_c, 0, 65, 54
2, 32759, Note_on_c, 0, 60, 38
2, 32764, Note_on_c, 0, 70, 53
2, 32767, Note_on_c, 0, 79, 51
2, 32771, Note_on_c, 0, 75, 45
2, 32981, Note_on_c, 0, 65, 0
2, 32995, Note_on_c, 0, 70, 0
2, 33023, Note_on_c, 0, 79, 0
2, 33084, Note_on_c, 0, 75, 0
2, 33094, Note_on_c, 0, 60, 0
2, 33167, Note_on_c, 0, 58, 57
2, 33189, Note_on_c, 0, 68, 40
2, 33195, Note_on_c, 0, 77, 49
2, 33196, Note_on_c, 0, 73, 37
2, 33393, Note_on_c, 0, 68, 0
2, 33560, Note_on_c, 0, 77, 0
2, 33568, Note_on_c, 0, 73, 0
2, 33586, Note_on_c, 0, 58, 0
2, 33646, Control_c, 0, 64, 0
2, 33651, Note_on_c, 0, 65, 36
2, 33656, Note_on_c, 0, 70, 50
2, 33662, Note_on_c, 0, 75, 46
2, 33671, Note_on_c, 0, 79, 45
2, 33673, Note_on_c, 0, 60, 37
2, 33994, Control_c, 0, 64, 127
2, 34073, Note_on_c, 0, 65, 0
2, 34092, Note_on_c, 0, 60, 0
2, 35488, Note_on_c, 0, 70, 0
2, 35495, Note_on_c, 0, 79, 0
2, 35575, Note_on_c, 0, 75, 0
2, 36514, Control_c, 0, 64, 0
2, 36528, Note_on_c, 0, 75, 80
2, 36532, Note_on_c, 0, 65, 70
2, 36533, Note_on_c, 0, 60, 60
2, 36539, Note_on_c, 0, 70, 78
2, 36547, Note_on_c, 0, 79, 70
2, 36630, Control_c, 0, 64, 127
2, 36865, Note_on_c, 0, 70, 0
2, 36888, Note_on_c, 0, 79, 0
2, 36938, Note_on_c, 0, 65, 0
2, 36945, Note_on_c, 0, 60, 0
2, 36957, Note_on_c, 0, 75, 0
2, 37008, Note_on_c, 0, 58, 42
2, 37012, Note_on_c, 0, 73, 57
2, 37019, Note_on_c, 0, 68, 60
2, 37021, Note_on_c, 0, 77, 60
2, 37044, Control_c, 0, 64, 0
2, 37082, Control_c, 0, 64, 127
2, 37189, Note_on_c, 0, 68, 0
2, 37339, Note_on_c, 0, 73, 0
2, 37344, Note_on_c, 0, 77, 0
2, 37405, Note_on_c, 0, 58, 0
2, 37410, Control_c, 0, 64, 0
2, 37465, Note_on_c, 0, 60, 48
2, 37466, Note_on_c, 0, 75, 58
2, 37467, Note_on_c, 0, 70, 62
2, 37472, Note_on_c, 0, 65, 51
2, 37473, Note_on_c, 0, 79, 54
2, 37545, Control_c, 0, 64, 127
2, 37578, Note_on_c, 0, 60, 0
2, 37584, Note_on_c, 0, 70, 0
2, 37588, Note_on_c, 0, 65, 0
2, 37616, Note_on_c, 0, 79, 0
2, 37634, Note_on_c, 0, 75, 0
2, 37944, Note_on_c, 0, 68, 45
2, 37957, Note_on_c, 0, 82, 60
2, 37968, Note_on_c, 0, 73, 48
2, 37969, Note_on_c, 0, 78, 52
2, 37980, Note_on_c, 0, 63, 46
2, 37987, Control_c, 0, 64, 0
2, 38016, Control_c, 0, 64, 127
2, 38134, Note_on_c, 0, 68, 0
2, 38148, Note_on_c, 0, 82, 0
2, 38149, Note_on_c, 0, 78, 0
2, 38180, Note_on_c, 0, 73, 0
2, 38362, Note_on_c, 0, 63, 0
2, 38440, Control_c, 0, 64, 0
2, 38448, Note_on_c, 0, 65, 48
2, 38452, Note_on_c, 0, 79, 49
2, 38455, Note_on_c, 0, 75, 45
2, 38458, Note_on_c, 0, 60, 33
2, 38464, Note_on_c, 0, 70, 34
2, 39305, Control_c, 0, 64, 127
2, 39324, Control_c, 0, 64, 0
2, 39527, Control_c, 0, 64, 127
2, 39699, Note_on_c, 0, 60, 0
2, 39781, Note_on_c, 0, 65, 0
2, 39794, Note_on_c, 0, 79, 0
2, 39829, Note_on_c, 0, 70, 0
2, 39905, Note_on_c, 0, 75, 0
2, 40324, Control_c, 0, 64, 0
2, 40347, Note_on_c, 0, 75, 51
2, 40357, Note_on_c, 0, 65, 39
2, 40371, Note_on_c, 0, 60, 31
2, 40403, Note_on_c, 0, 79, 19
2, 40479, Control_c, 0, 64, 127
2, 40505, Note_on_c, 0, 70, 1
2, 40674, Note_on_c, 0, 79, 0
2, 40697, Note_on_c, 0, 70, 0
2, 40759, Note_on_c, 0, 65, 0
2, 40769, Note_on_c, 0, 60, 0
2, 40777, Note_on_c, 0, 75, 0
2, 40825, Control_c, 0, 64, 0
2, 40843, Note_on_c, 0, 68, 37
2, 40852, Note_on_c, 0, 58, 37
2, 40853, Note_on_c, 0, 73, 32
2, 40858, Note_on_c, 0, 77, 40
2, 40980, Control_c, 0, 64, 127
2, 41126, Note_on_c, 0, 68, 0
2, 41214, Note_on_c, 0, 77, 0
2, 41221, Note_on_c, 0, 73, 0
2, 41269, Control_c, 0, 64, 0
2, 41270, Note_on_c, 0, 58, 0
2, 41306, Note_on_c, 0, 65, 35
2, 41314, Note_on_c, 0, 75, 39
2, 41315, Note_on_c, 0, 60, 30
2, 41321, Note_on_c, 0, 70, 35
2, 41329, Note_on_c, 0, 79, 38
2, 42624, Control_c, 0, 64, 127
2, 43182, Note_on_c, 0, 60, 0
2, 43219, Note_on_c, 0, 70, 0
2, 43221, Note_on_c, 0, 79, 0
2, 43223, Note_on_c, 0, 65, 0
2, 43307, Note_on_c, 0, 75, 0
2, 44156, Control_c, 0, 64, 0
2, 44161, Note_on_c, 0, 75, 77
2, 44163, Note_on_c, 0, 70, 83
2, 44168, Note_on_c, 0, 65, 66
2, 44171, Note_on_c, 0, 79, 73
2, 44177, Note_on_c, 0, 60, 56
2, 44290, Control_c, 0, 64, 127
2, 44417, Note_on_c, 0, 65, 0
2, 44499, Note_on_c, 0, 70, 0
2, 44517, Note_on_c, 0, 60, 0
2, 44525, Note_on_c, 0, 79, 0
2, 44568, Note_on_c, 0, 75, 0
2, 44617, Control_c, 0, 64, 0
2, 44656, Note_on_c, 0, 63, 48
2, 44657, Note_on_c, 0, 73, 53
2, 44658, Note_on_c, 0, 58, 58
2, 44664, Note_on_c, 0, 68, 59
2, 44664, Note_on_c, 0, 77, 58
2, 44713, Control_c, 0, 64, 127
2, 44822, Note_on_c, 0, 68, 0
2, 44828, Note_on_c, 0, 63, 0
2, 44926, Note_on_c, 0, 73, 0
2, 44960, Note_on_c, 0, 77, 0
2, 44989, Note_on_c, 0, 58, 0
2, 45041, Control_c, 0, 64, 0
2, 45113, Note_on_c, 0, 65, 49
2, 45116, Note_on_c, 0, 60, 44
2, 45117, Note_on_c, 0, 70, 62
2, 45121, Note_on_c, 0, 75, 55
2, 45122, Note_on_c, 0, 79, 54
2, 45185, Control_c, 0, 64, 127
2, 45198, Note_on_c, 0, 60, 0
2, 45199, Note_on_c, 0, 70, 0
2, 45205, Note_on_c, 0, 65, 0
2, 45243, Note_on_c, 0, 79, 0
2, 45248, Note_on_c, 0, 75, 0
2, 45592, Note_on_c, 0, 68, 32
2, 45598, Note_on_c, 0, 82, 56
2, 45607, Note_on_c, 0, 73, 42
2, 45609, Note_on_c, 0, 78, 42
2, 45612, Note_on_c, 0, 63, 40
2, 45642, Note_on_c, 0, 68, 0
2, 45671, Note_on_c, 0, 73, 0
2, 45686, Note_on_c, 0, 82, 0
2, 45688, Note_on_c, 0, 78, 0
2, 45743, Note_on_c, 0, 63, 0
2, 46109, Control_c, 0, 64, 0
2, 46111, Note_on_c, 0, 65, 36
2, 46116, Note_on_c, 0, 70, 35
2, 46117, Note_on_c, 0, 75, 42
2, 46122, Note_on_c, 0, 60, 25
2, 46125, Note_on_c, 0, 79, 38
2, 46304, Control_c, 0, 64, 127
2, 46542, Note_on_c, 0, 60, 0
2, 46556, Note_on_c, 0, 65, 0
2, 46563, Note_on_c, 0, 70, 0
2, 46573, Note_on_c, 0, 79, 0
2, 46591, Note_on_c, 0, 75, 0
2, 46927, Control_c, 0, 64, 0
2, 47150, Note_on_c, 0, 63, 26
2, 47151, Note_on_c, 0, 60, 27
2, 47156, Note_on_c, 0, 67, 20
2, 47167, Note_on_c, 0, 62, 34
2, 48225, Note_on_c, 0, 67, 0
2, 48441, Note_on_c, 0, 67, 43
2, 48548, Note_on_c, 0, 67, 0
2, 48663, Note_on_c, 0, 72, 60
2, 48808, Note_on_c, 0, 72, 0
2, 48942, Note_on_c, 0, 74, 83
2, 49146, Note_on_c, 0, 74, 0
2, 49194, Note_on_c, 0, 67, 36
2, 49265, Note_on_c, 0, 75, 77
2, 50518, Note_on_c, 0, 67, 0
2, 50530, Note_on_c, 0, 62, 0
2, 50534, Note_on_c, 0, 75, 0
2, 50614, Note_on_c, 0, 60, 0
2, 50639, Note_on_c, 0, 77, 66
2, 50716, Note_on_c, 0, 63, 0
2, 50881, Note_on_c, 0, 77, 0
2, 50978, Note_on_c, 0, 63, 25
2, 50990, Note_on_c, 0, 77, 35
2, 50997, Note_on_c, 0, 67, 32
2, 51024, Note_on_c, 0, 59, 32
2, 51047, Note_on_c, 0, 78, 37
2, 51114, Note_on_c, 0, 78, 0
2, 51127, Note_on_c, 0, 79, 42
2, 51153, Note_on_c, 0, 77, 0
2, 51651, Note_on_c, 0, 79, 0
2, 51849, Note_on_c, 0, 80, 30
2, 51895, Note_on_c, 0, 81, 50
2, 51983, Note_on_c, 0, 82, 64
2, 51985, Note_on_c, 0, 81, 0
2, 52002, Note_on_c, 0, 80, 0
2, 52303, Note_on_c, 0, 82, 0
2, 52320, Note_on_c, 0, 79, 34
2, 52567, Note_on_c, 0, 79, 0
2, 52662, Note_on_c, 0, 79, 29
2, 53879, Note_on_c, 0, 59, 0
2, 53916, Note_on_c, 0, 67, 0
2, 53962, Note_on_c, 0, 63, 0
2, 54271, Note_on_c, 0, 59, 29
2, 54284, Note_on_c, 0, 67, 24
2, 54289, Note_on_c, 0, 63, 18
2, 54459, Note_on_c, 0, 59, 0
2, 54533, Note_on_c, 0, 67, 0
2, 54635, Note_on_c, 0, 63, 0
2, 54758, Note_on_c, 0, 67, 27
2, 54765, Note_on_c, 0, 63, 18
2, 54774, Note_on_c, 0, 58, 31
2, 55570, Note_on_c, 0, 79, 0
2, 56232, Note_on_c, 0, 77, 94
2, 56613, Note_on_c, 0, 77, 0
2, 56737, Note_on_c, 0, 75, 85
2, 57086, Note_on_c, 0, 67, 0
2, 57391, Note_on_c, 0, 58, 0
2, 57710, Note_on_c, 0, 67, 24
2, 57722, Note_on_c, 0, 57, 28
2, 58177, Note_on_c, 0, 74, 78
2, 58228, Note_on_c, 0, 57, 0
2, 58233, Note_on_c, 0, 75, 0
2, 58350, Note_on_c, 0, 67, 0
2, 58432, Note_on_c, 0, 74, 0
2, 58460, Note_on_c, 0, 75, 76
2, 58690, Note_on_c, 0, 56, 40
2, 58725, Note_on_c, 0, 67, 28
2, 58726, Note_on_c, 0, 75, 0
2, 58749, Note_on_c, 0, 77, 63
2, 58969, Note_on_c, 0, 77, 0
2, 59070, Note_on_c, 0, 80, 57
2, 59817, Control_c, 0, 64, 127
2, 59914, Note_on_c, 0, 80, 0
2, 59974, Note_on_c, 0, 79, 54
2, 59998, Note_on_c, 0, 67, 0
2, 60093, Note_on_c, 0, 63, 0
2, 60187, Note_on_c, 0, 79, 0
2, 60197, Note_on_c, 0, 56, 0
2, 60527, Note_on_c, 0, 75, 50
2, 60567, Note_on_c, 0, 72, 45
2, 60575, Note_on_c, 0, 63, 39
2, 60576, Note_on_c, 0, 68, 37
2, 60607, Control_c, 0, 64, 0
2, 60679, Note_on_c, 0, 64, 7
2, 60963, Control_c, 0, 64, 127
2, 61222, Note_on_c, 0, 68, 0
2, 61238, Note_on_c, 0, 63, 0
2, 61287, Note_on_c, 0, 64, 0
2, 61400, Note_on_c, 0, 72, 0
2, 61538, Note_on_c, 0, 68, 25
2, 61669, Note_on_c, 0, 75, 0
2, 61708, Note_on_c, 0, 64, 1
2, 61774, Note_on_c, 0, 68, 0
2, 61806, Note_on_c, 0, 64, 0
2, 62428, Note_on_c, 0, 41, 31
2, 62430, Note_on_c, 0, 63, 34
2, 62446, Control_c, 0, 64, 0
2, 62447, Note_on_c, 0, 56, 17
2, 62453, Note_on_c, 0, 60, 31
2, 62474, Note_on_c, 0, 48, 28
2, 62802, Control_c, 0, 64, 127
2, 62999, Note_on_c, 0, 56, 0
2, 63167, Note_on_c, 0, 60, 0
2, 63528, Note_on_c, 0, 63, 0
2, 63829, Note_on_c, 0, 41, 0
2, 63843, Note_on_c, 0, 48, 0
2, 63991, Note_on_c, 0, 62, 71
2, 64132, Note_on_c, 0, 62, 0
2, 64180, Note_on_c, 0, 60, 66
2, 64289, Note_on_c, 0, 60, 0
2, 64416, Note_on_c, 0, 62, 115
2, 64437, Control_c, 0, 64, 0
2, 64445, Note_on_c, 0, 50, 47
2, 64629, Control_c, 0, 64, 127
2, 65608, Note_on_c, 0, 62, 0
2, 65620, Control_c, 0, 64, 0
2, 65686, Note_on_c, 0, 50, 0
2, 65696, Note_on_c, 0, 63, 50
2, 65698, Note_on_c, 0, 43, 31
2, 65709, Note_on_c, 0, 59, 39
2, 65726, Note_on_c, 0, 62, 31
2, 65770, Note_on_c, 0, 53, 6
2, 65823, Control_c, 0, 64, 127
2, 65882, Note_on_c, 0, 62, 0
2, 65927, Note_on_c, 0, 43, 0
2, 66010, Note_on_c, 0, 53, 0
2, 66121, Note_on_c, 0, 59, 0
2, 66240, Note_on_c, 0, 63, 0
2, 66305, Note_on_c, 0, 60, 45
2, 66308, Note_on_c, 0, 54, 42
2, 66314, Control_c, 0, 64, 0
2, 66325, Note_on_c, 0, 44, 29
2, 66527, Control_c, 0, 64, 127
2, 66532, Note_on_c, 0, 60, 0
2, 66821, Note_on_c, 0, 72, 46
2, 67011, Note_on_c, 0, 72, 0
2, 67012, Note_on_c, 0, 54, 0
2, 68496, Note_on_c, 0, 44, 0
2, 69196, Note_on_c, 0, 42, 32
2, 69207, Note_on_c, 0, 63, 25
2, 69208, Note_on_c, 0, 58, 37
2, 69209, Note_on_c, 0, 52, 24
2, 69232, Control_c, 0, 64, 0
2, 69440, Note_on_c, 0, 52, 0
2, 69473, Control_c, 0, 64, 127
2, 69574, Note_on_c, 0, 42, 0
2, 69812, Note_on_c, 0, 63, 0
2, 69962, Note_on_c, 0, 58, 0
2, 70153, Note_on_c, 0, 41, 41
2, 70169, Note_on_c, 0, 53, 33
2, 70176, Control_c, 0, 64, 0
2, 70533, Control_c, 0, 64, 127
2, 71059, Note_on_c, 0, 59, 96
2, 71070, Control_c, 0, 64, 0
2, 71273, Control_c, 0, 64, 127
2, 71559, Note_on_c, 0, 57, 77
2, 71574, Note_on_c, 0, 41, 0
2, 71633, Note_on_c, 0, 53, 0
2, 71640, Note_on_c, 0, 59, 0
2, 71725, Note_on_c, 0, 57, 0
2, 72003, Control_c, 0, 64, 0
2, 72034, Note_on_c, 0, 59, 64
2, 72037, Note_on_c, 0, 57, 64
2, 72039, Note_on_c, 0, 53, 53
2, 72043, Note_on_c, 0, 43, 45
2, 72339, Control_c, 0, 64, 127
2, 72583, Note_on_c, 0, 53, 0
2, 72681, Note_on_c, 0, 57, 0
2, 72802, Note_on_c, 0, 59, 0
2, 73050, Note_on_c, 0, 56, 53
2, 73055, Note_on_c, 0, 60, 45
2, 73061, Control_c, 0, 64, 0
2, 73078, Note_on_c, 0, 53, 19
2, 73284, Note_on_c, 0, 53, 0
2, 73313, Control_c, 0, 64, 127
2, 73356, Note_on_c, 0, 43, 0
2, 73678, Note_on_c, 0, 56, 0
2, 73818, Note_on_c, 0, 60, 0
2, 73995, Note_on_c, 0, 36, 57
2, 74006, Control_c, 0, 64, 0
2, 74151, Note_on_c, 0, 36, 0
2, 74179, Control_c, 0, 64, 127
2, 74910, Note_on_c, 0, 75, 42
2, 74921, Note_on_c, 0, 65, 43
2, 74925, Note_on_c, 0, 70, 37
2, 74926, Note_on_c, 0, 60, 32
2, 74928, Note_on_c, 0, 79, 40
2, 74941, Control_c, 0, 64, 0
2, 75067, Control_c, 0, 64, 127
2, 75100, Note_on_c, 0, 60, 0
2, 75105, Note_on_c, 0, 70, 0
2, 75106, Note_on_c, 0, 65, 0
2, 75285, Note_on_c, 0, 79, 0
2, 75302, Note_on_c, 0, 75, 0
2, 75374, Control_c, 0, 64, 0
2, 75375, Note_on_c, 0, 58, 46
2, 75381, Note_on_c, 0, 73, 39
2, 75391, Note_on_c, 0, 68, 20
2, 75396, Note_on_c, 0, 77, 51
2, 75396, Note_on_c, 0, 63, 36
2, 75489, Control_c, 0, 64, 127
2, 75497, Note_on_c, 0, 58, 0
2, 75548, Note_on_c, 0, 63, 0
2, 75601, Note_on_c, 0, 68, 0
2, 75647, Note_on_c, 0, 73, 0
2, 75660, Note_on_c, 0, 77, 0
2, 75855, Control_c, 0, 64, 0
2, 75864, Note_on_c, 0, 70, 35
2, 75865, Note_on_c, 0, 75, 44
2, 75869, Note_on_c, 0, 65, 40
2, 75885, Note_on_c, 0, 79, 41
2, 75888, Note_on_c, 0, 60, 25
2, 76047, Control_c, 0, 64, 127
2, 77476, Note_on_c, 0, 60, 0
2, 77500, Note_on_c, 0, 65, 0
2, 77506, Note_on_c, 0, 70, 0
2, 77571, Note_on_c, 0, 79, 0
2, 77616, Note_on_c, 0, 75, 0
2, 78686, Control_c, 0, 64, 0
2, 78705, Note_on_c, 0, 70, 67
2, 78710, Note_on_c, 0, 75, 88
2, 78711, Note_on_c, 0, 60, 54
2, 78716, Note_on_c, 0, 65, 60
2, 78717, Note_on_c, 0, 79, 77
2, 78858, Control_c, 0, 64, 127
2, 78887, Note_on_c, 0, 60, 0
2, 78893, Note_on_c, 0, 70, 0
2, 78922, Note_on_c, 0, 65, 0
2, 79055, Note_on_c, 0, 79, 0
2, 79102, Note_on_c, 0, 75, 0
2, 79155, Control_c, 0, 64, 0
2, 79184, Note_on_c, 0, 68, 44
2, 79189, Note_on_c, 0, 58, 56
2, 79198, Note_on_c, 0, 77, 69
2, 79200, Note_on_c, 0, 73, 55
2, 79207, Note_on_c, 0, 63, 49
2, 79232, Control_c, 0, 64, 127
2, 79234, Note_on_c, 0, 75, 25
2, 79268, Note_on_c, 0, 75, 0
2, 79334, Note_on_c, 0, 58, 0
2, 79335, Note_on_c, 0, 63, 0
2, 79345, Note_on_c, 0, 73, 0
2, 79357, Note_on_c, 0, 68, 0
2, 79464, Note_on_c, 0, 77, 0
2, 79539, Control_c, 0, 64, 0
2, 79639, Note_on_c, 0, 65, 51
2, 79640, Note_on_c, 0, 70, 46
2, 79641, Note_on_c, 0, 75, 59
2, 79646, Note_on_c, 0, 60, 29
2, 79657, Note_on_c, 0, 79, 55
2, 79704, Control_c, 0, 64, 127
2, 79709, Note_on_c, 0, 60, 0
2, 79752, Note_on_c, 0, 65, 0
2, 79788, Note_on_c, 0, 75, 0
2, 79799, Note_on_c, 0, 70, 0
2, 79804, Note_on_c, 0, 79, 0
2, 80140, Note_on_c, 0, 73, 30
2, 80154, Note_on_c, 0, 78, 49
2, 80156, Note_on_c, 0, 68, 40
2, 80159, Note_on_c, 0, 82, 45
2, 80161, Note_on_c, 0, 63, 30
2, 80178, Note_on_c, 0, 73, 0
2, 80195, Control_c, 0, 64, 0
2, 80234, Note_on_c, 0, 63, 0
2, 80235, Note_on_c, 0, 68, 0
2, 80253, Note_on_c, 0, 78, 0
2, 80255, Note_on_c, 0, 82, 0
2, 80272, Control_c, 0, 64, 127
2, 80599, Control_c, 0, 64, 0
2, 80600, Note_on_c, 0, 70, 39
2, 80601, Note_on_c, 0, 75, 47
2, 80612, Note_on_c, 0, 65, 48
2, 80617, Note_on_c, 0, 79, 50
2, 80624, Note_on_c, 0, 60, 32
2, 81485, Control_c, 0, 64, 127
2, 82291, Note_on_c, 0, 65, 0
2, 82320, Note_on_c, 0, 60, 0
2, 82321, Note_on_c, 0, 70, 0
2, 82369, Note_on_c, 0, 79, 0
2, 82376, Note_on_c, 0, 75, 0
2, 82603, Note_on_c, 0, 70, 35
2, 82608, Note_on_c, 0, 75, 34
2, 82612, Control_c, 0, 64, 0
2, 82622, Note_on_c, 0, 65, 35
2, 82629, Note_on_c, 0, 79, 35
2, 82776, Control_c, 0, 64, 127
2, 82810, Note_on_c, 0, 70, 0
2, 82829, Note_on_c, 0, 65, 0
2, 82840, Note_on_c, 0, 75, 0
2, 82892, Note_on_c, 0, 79, 0
2, 83042, Control_c, 0, 64, 0
2, 83068, Note_on_c, 0, 58, 30
2, 83073, Note_on_c, 0, 77, 39
2, 83078, Note_on_c, 0, 73, 25
2, 83088, Note_on_c, 0, 70, 31
2, 83095, Note_on_c, 0, 68, 14
2, 83111, Note_on_c, 0, 63, 33
2, 83168, Control_c, 0, 64, 127
2, 83205, Note_on_c, 0, 73, 0
2, 83256, Note_on_c, 0, 58, 0
2, 83260, Note_on_c, 0, 70, 0
2, 83267, Note_on_c, 0, 63, 0
2, 83309, Note_on_c, 0, 68, 0
2, 83352, Note_on_c, 0, 77, 0
2, 83559, Note_on_c, 0, 70, 28
2, 83560, Note_on_c, 0, 75, 37
2, 83573, Note_on_c, 0, 79, 44
2, 83574, Note_on_c, 0, 65, 42
2, 83575, Control_c, 0, 64, 0
2, 83588, Note_on_c, 0, 60, 28
2, 83989, Control_c, 0, 64, 127
2, 85383, Note_on_c, 0, 60, 0
2, 85426, Note_on_c, 0, 65, 0
2, 85445, Note_on_c, 0, 70, 0
2, 85497, Note_on_c, 0, 79, 0
2, 85509, Note_on_c, 0, 75, 0
2, 86328, Control_c, 0, 64, 0
2, 86334, Note_on_c, 0, 75, 88
2, 86337, Note_on_c, 0, 70, 65
2, 86338, Note_on_c, 0, 65, 59
2, 86342, Note_on_c, 0, 79, 77
2, 86344, Note_on_c, 0, 60, 49
2, 86482, Control_c, 0, 64, 127
2, 86499, Note_on_c, 0, 70, 0
2, 86511, Note_on_c, 0, 60, 0
2, 86541, Note_on_c, 0, 65, 0
2, 86577, Note_on_c, 0, 75, 0
2, 86665, Note_on_c, 0, 79, 0
2, 86790, Control_c, 0, 64, 0
2, 86825, Note_on_c, 0, 77, 64
2, 86831, Note_on_c, 0, 68, 55
2, 86832, Note_on_c, 0, 70, 52
2, 86833, Note_on_c, 0, 73, 44
2, 86839, Note_on_c, 0, 58, 58
2, 86847, Note_on_c, 0, 63, 54
2, 86926, Control_c, 0, 64, 127
2, 86961, Note_on_c, 0, 73, 0
2, 87009, Note_on_c, 0, 58, 0
2, 87038, Note_on_c, 0, 63, 0
2, 87039, Note_on_c, 0, 70, 0
2, 87092, Note_on_c, 0, 68, 0
2, 87136, Note_on_c, 0, 77, 0
2, 87234, Control_c, 0, 64, 0
2, 87289, Note_on_c, 0, 70, 57
2, 87291, Note_on_c, 0, 75, 67
2, 87293, Note_on_c, 0, 79, 65
2, 87296, Note_on_c, 0, 65, 53
2, 87297, Note_on_c, 0, 60, 42
2, 87347, Note_on_c, 0, 60, 0
2, 87389, Control_c, 0, 64, 127
2, 87405, Note_on_c, 0, 65, 0
2, 87435, Note_on_c, 0, 70, 0
2, 87440, Note_on_c, 0, 79, 0
2, 87453, Note_on_c, 0, 75, 0
2, 87786, Note_on_c, 0, 73, 28
2, 87792, Note_on_c, 0, 78, 62
2, 87793, Note_on_c, 0, 82, 55
2, 87804, Control_c, 0, 64, 0
2, 87814, Note_on_c, 0, 63, 27
2, 87818, Note_on_c, 0, 68, 34
2, 87828, Note_on_c, 0, 73, 0
2, 87860, Note_on_c, 0, 63, 0
2, 87861, Note_on_c, 0, 68, 0
2, 87862, Control_c, 0, 64, 127
2, 87884, Note_on_c, 0, 82, 0
2, 87889, Note_on_c, 0, 78, 0
2, 88208, Control_c, 0, 64, 0
2, 88257, Note_on_c, 0, 75, 50
2, 88259, Note_on_c, 0, 79, 53
2, 88262, Note_on_c, 0, 70, 47
2, 88273, Note_on_c, 0, 60, 41
2, 88353, Control_c, 0, 64, 127
2, 88396, Note_on_c, 0, 60, 0
2, 88630, Note_on_c, 0, 79, 0
2, 88673, Note_on_c, 0, 75, 0
2, 88682, Note_on_c, 0, 70, 0
2, 89375, Control_c, 0, 64, 0
2, 89380, Note_on_c, 0, 55, 28
2, 89387, Note_on_c, 0, 48, 38
2, 89778, Control_c, 0, 64, 127
2, 90356, Note_on_c, 0, 55, 0
2, 90647, Note_on_c, 0, 55, 22
2, 90778, Control_c, 0, 64, 0
2, 90792, Note_on_c, 0, 55, 0
2, 90893, Note_on_c, 0, 60, 64
2, 91035, Note_on_c, 0, 60, 0
2, 91155, Note_on_c, 0, 62, 101
2, 91353, Note_on_c, 0, 62, 0
2, 91440, Note_on_c, 0, 55, 37
2, 91458, Note_on_c, 0, 63, 87
2, 92143, Control_c, 0, 64, 127
2, 92400, Note_on_c, 0, 63, 0
2, 92586, Note_on_c, 0, 48, 0
2, 92736, Note_on_c, 0, 55, 0
2, 92879, Note_on_c, 0, 65, 64
2, 93038, Note_on_c, 0, 65, 0
2, 93155, Control_c, 0, 64, 0
2, 93208, Note_on_c, 0, 65, 35
2, 93242, Note_on_c, 0, 47, 31
2, 93253, Note_on_c, 0, 55, 24
2, 93266, Note_on_c, 0, 66, 43
2, 93324, Note_on_c, 0, 65, 0
2, 93383, Note_on_c, 0, 66, 0
2, 93404, Note_on_c, 0, 67, 34
2, 93552, Note_on_c, 0, 67, 0
2, 93598, Note_on_c, 0, 70, 64
2, 93692, Note_on_c, 0, 70, 0
2, 93943, Note_on_c, 0, 70, 61
2, 94075, Note_on_c, 0, 70, 0
2, 94257, Note_on_c, 0, 66, 43
2, 94294, Note_on_c, 0, 66, 0
2, 94326, Note_on_c, 0, 67, 33
2, 94488, Note_on_c, 0, 67, 0
2, 94628, Note_on_c, 0, 67, 40
2, 95223, Control_c, 0, 64, 127
2, 95647, Note_on_c, 0, 47, 0
2, 96141, Note_on_c, 0, 47, 32
2, 96458, Note_on_c, 0, 47, 0
2, 96538, Note_on_c, 0, 55, 0
2, 96869, Note_on_c, 0, 67, 0
2, 96958, Note_on_c, 0, 55, 33
2, 96961, Note_on_c, 0, 46, 30
2, 96984, Control_c, 0, 64, 0
2, 97321, Control_c, 0, 64, 127
2, 97599, Note_on_c, 0, 55, 0
2, 97930, Note_on_c, 0, 55, 29
2, 98215, Note_on_c, 0, 65, 95
2, 98407, Note_on_c, 0, 55, 0
2, 98437, Note_on_c, 0, 65, 0
2, 98446, Note_on_c, 0, 62, 77
2, 98572, Note_on_c, 0, 46, 0
2, 98608, Note_on_c, 0, 62, 0
2, 98661, Note_on_c, 0, 63, 74
2, 98737, Note_on_c, 0, 63, 0
2, 98969, Note_on_c, 0, 74, 79
2, 98976, Note_on_c, 0, 67, 78
2, 98977, Note_on_c, 0, 63, 81
2, 98985, Control_c, 0, 64, 0
2, 98988, Note_on_c, 0, 55, 57
2, 98999, Note_on_c, 0, 45, 47
2, 99000, Note_on_c, 0, 69, 54
2, 99237, Control_c, 0, 64, 127
2, 99450, Note_on_c, 0, 55, 0
2, 99892, Note_on_c, 0, 55, 35
2, 100214, Note_on_c, 0, 45, 0
2, 100217, Note_on_c, 0, 74, 0
2, 100272, Note_on_c, 0, 55, 0
2, 100302, Note_on_c, 0, 69, 0
2, 100379, Note_on_c, 0, 72, 59
2, 100393, Note_on_c, 0, 63, 0
2, 100437, Note_on_c, 0, 67, 0
2, 100549, Note_on_c, 0, 72, 0
2, 100873, Control_c, 0, 64, 0
2, 100879, Note_on_c, 0, 67, 51
2, 100883, Note_on_c, 0, 72, 45
2, 100892, Note_on_c, 0, 60, 32
2, 100908, Note_on_c, 0, 44, 25
2, 100908, Note_on_c, 0, 51, 27
2, 101202, Control_c, 0, 64, 127
2, 101830, Note_on_c, 0, 72, 0
2, 101904, Note_on_c, 0, 70, 56
2, 101908, Note_on_c, 0, 55, 35
2, 102037, Control_c, 0, 64, 127
2, 102161, Note_on_c, 0, 67, 0
2, 102182, Note_on_c, 0, 55, 0
2, 102311, Note_on_c, 0, 70, 0
2, 102327, Note_on_c, 0, 51, 0
2, 102351, Note_on_c, 0, 60, 0
2, 102373, Note_on_c, 0, 44, 0
2, 102846, Control_c, 0, 64, 0
2, 102875, Note_on_c, 0, 44, 35
2, 102913, Note_on_c, 0, 55, 41
2, 103160, Control_c, 0, 64, 127
2, 103446, Note_on_c, 0, 55, 0
2, 103560, Note_on_c, 0, 44, 0
2, 103816, Control_c, 0, 64, 0
2, 103838, Note_on_c, 0, 42, 77
2, 103858, Note_on_c, 0, 53, 35
2, 103900, Note_on_c, 0, 53, 0
2, 104043, Note_on_c, 0, 58, 45
2, 104067, Control_c, 0, 64, 127
2, 104301, Note_on_c, 0, 58, 0
2, 104329, Note_on_c, 0, 63, 40
2, 104397, Note_on_c, 0, 42, 0
2, 104459, Note_on_c, 0, 63, 0
2, 104539, Control_c, 0, 64, 0
2, 104740, Note_on_c, 0, 41, 33
2, 104788, Control_c, 0, 64, 0
2, 104796, Note_on_c, 0, 48, 47
2, 104815, Note_on_c, 0, 63, 38
2, 104823, Note_on_c, 0, 70, 35
2, 104838, Note_on_c, 0, 56, 23
2, 105125, Control_c, 0, 64, 127
2, 105473, Note_on_c, 0, 56, 0
2, 105514, Note_on_c, 0, 63, 0
2, 105754, Note_on_c, 0, 55, 36
2, 105797, Note_on_c, 0, 70, 0
2, 106033, Note_on_c, 0, 41, 0
2, 106087, Note_on_c, 0, 48, 0
2, 106128, Note_on_c, 0, 55, 0
2, 106344, Note_on_c, 0, 72, 49
2, 106471, Note_on_c, 0, 72, 0
2, 106503, Note_on_c, 0, 75, 73
2, 106667, Note_on_c, 0, 75, 0
2, 106715, Note_on_c, 0, 56, 52
2, 106720, Note_on_c, 0, 62, 54
2, 106721, Note_on_c, 0, 74, 80
2, 106722, Note_on_c, 0, 67, 48
2, 106723, Control_c, 0, 64, 0
2, 106925, Control_c, 0, 64, 127
2, 106946, Note_on_c, 0, 74, 0
2, 107287, Note_on_c, 0, 80, 76
2, 107377, Note_on_c, 0, 67, 0
2, 107942, Note_on_c, 0, 62, 0
2, 108117, Note_on_c, 0, 56, 0
2, 108127, Note_on_c, 0, 74, 42
2, 108160, Note_on_c, 0, 80, 0
2, 108207, Note_on_c, 0, 74, 0
2, 108518, Note_on_c, 0, 75, 37
2, 108527, Note_on_c, 0, 68, 55
2, 108533, Control_c, 0, 64, 0
2, 108551, Note_on_c, 0, 52, 34
2, 108840, Control_c, 0, 64, 127
2, 109034, Note_on_c, 0, 59, 32
2, 109186, Note_on_c, 0, 68, 0
2, 109449, Note_on_c, 0, 68, 33
2, 109460, Note_on_c, 0, 64, 39
2, 109465, Note_on_c, 0, 63, 28
2, 109504, Note_on_c, 0, 64, 0
2, 109545, Note_on_c, 0, 68, 0
2, 109571, Note_on_c, 0, 75, 0
2, 109693, Note_on_c, 0, 59, 0
2, 109955, Note_on_c, 0, 80, 32
2, 109960, Note_on_c, 0, 87, 37
2, 109992, Note_on_c, 0, 63, 0
2, 109997, Note_on_c, 0, 59, 26
2, 110282, Note_on_c, 0, 80, 0
2, 110311, Note_on_c, 0, 87, 0
2, 110416, Note_on_c, 0, 76, 38
2, 110428, Note_on_c, 0, 80, 33
2, 110433, Note_on_c, 0, 63, 28
2, 110449, Note_on_c, 0, 83, 37
2, 110974, Note_on_c, 0, 63, 0
2, 110980, Note_on_c, 0, 83, 0
2, 111078, Note_on_c, 0, 59, 0
2, 111099, Note_on_c, 0, 80, 0
2, 111146, Note_on_c, 0, 76, 0
2, 111502, Note_on_c, 0, 52, 0
2, 112383, Note_on_c, 0, 58, 31
2, 112400, Control_c, 0, 64, 0
2, 112428, Note_on_c, 0, 55, 31
2, 112429, Note_on_c, 0, 53, 31
2, 112433, Note_on_c, 0, 39, 21
2, 112445, Note_on_c, 0, 27, 25
2, 112630, Control_c, 0, 64, 127
2, 112714, Control_c, 0, 64, 0
2, 112878, Control_c, 0, 64, 127
2, 113119, Note_on_c, 0, 53, 0
2, 113124, Note_on_c, 0, 55, 0
2, 113149, Note_on_c, 0, 58, 0
2, 113164, Note_on_c, 0, 39, 0
2, 113172, Note_on_c, 0, 27, 0
2, 113283, Control_c, 0, 64, 0
2, 113365, Note_on_c, 0, 63, 46
2, 113367, Note_on_c, 0, 68, 67
2, 113372, Note_on_c, 0, 77, 60
2, 113383, Note_on_c, 0, 73, 37
2, 113446, Control_c, 0, 64, 127
2, 113604, Note_on_c, 0, 63, 0
2, 113611, Note_on_c, 0, 77, 0
2, 113656, Note_on_c, 0, 73, 0
2, 113667, Note_on_c, 0, 68, 0
2, 113870, Control_c, 0, 64, 0
2, 113875, Note_on_c, 0, 65, 53
2, 113877, Note_on_c, 0, 60, 36
2, 113879, Note_on_c, 0, 74, 55
2, 113897, Note_on_c, 0, 70, 52
2, 114035, Control_c, 0, 64, 127
2, 114121, Note_on_c, 0, 65, 0
2, 114132, Note_on_c, 0, 74, 0
2, 114191, Note_on_c, 0, 70, 0
2, 114423, Note_on_c, 0, 60, 0
2, 114748, Control_c, 0, 64, 0
2, 114771, Note_on_c, 0, 61, 43
2, 114775, Note_on_c, 0, 70, 46
2, 114780, Note_on_c, 0, 56, 40
2, 114799, Note_on_c, 0, 66, 51
2, 114903, Control_c, 0, 64, 127
2, 114982, Note_on_c, 0, 56, 0
2, 115002, Note_on_c, 0, 66, 0
2, 115014, Note_on_c, 0, 61, 0
2, 115033, Note_on_c, 0, 70, 0
2, 115239, Control_c, 0, 64, 0
2, 115263, Note_on_c, 0, 64, 39
2, 115268, Note_on_c, 0, 59, 37
2, 115281, Note_on_c, 0, 53, 30
2, 115294, Note_on_c, 0, 68, 38
2, 115403, Control_c, 0, 64, 127
2, 115427, Note_on_c, 0, 64, 0
2, 115468, Note_on_c, 0, 68, 0
2, 115497, Note_on_c, 0, 59, 0
2, 115586, Note_on_c, 0, 53, 0
2, 115626, Control_c, 0, 64, 0
2, 115759, Control_c, 0, 64, 127
2, 115778, Note_on_c, 0, 61, 44
2, 115782, Note_on_c, 0, 66, 44
2, 116032, Note_on_c, 0, 66, 0
2, 116047, Note_on_c, 0, 61, 0
2, 116184, Control_c, 0, 64, 0
2, 116268, Note_on_c, 0, 67, 32
2, 116274, Note_on_c, 0, 46, 33
2, 116276, Note_on_c, 0, 39, 38
2, 116280, Note_on_c, 0, 62, 33
2, 116282, Note_on_c, 0, 55, 24
2, 116835, Control_c, 0, 64, 127
2, 117057, Control_c, 0, 64, 0
2, 117230, Control_c, 0, 64, 127
2, 117433, Note_on_c, 0, 55, 0
2, 117611, Note_on_c, 0, 46, 0
2, 117627, Note_on_c, 0, 62, 0
2, 117667, Note_on_c, 0, 67, 0
2, 118078, Control_c, 0, 64, 0
2, 118097, Note_on_c, 0, 58, 62
2, 118113, Note_on_c, 0, 46, 13
2, 118171, Note_on_c, 0, 58, 0
2, 118212, Note_on_c, 0, 60, 22
2, 118268, Note_on_c, 0, 58, 39
2, 118295, Note_on_c, 0, 60, 0
2, 118395, Note_on_c, 0, 57, 42
2, 118406, Note_on_c, 0, 58, 0
2, 118524, Note_on_c, 0, 57, 0
2, 118529, Note_on_c, 0, 58, 57
2, 118666, Note_on_c, 0, 58, 0
2, 118727, Note_on_c, 0, 67, 66
2, 118807, Note_on_c, 0, 39, 0
2, 118974, Control_c, 0, 64, 127
2, 119051, Control_c, 0, 64, 0
2, 119097, Note_on_c, 0, 55, 45
2, 119176, Control_c, 0, 64, 127
2, 119586, Note_on_c, 0, 55, 0
2, 119737, Note_on_c, 0, 67, 0
2, 119756, Note_on_c, 0, 46, 0
2, 120023, Control_c, 0, 64, 0
2, 120034, Note_on_c, 0, 51, 36
2, 120035, Note_on_c, 0, 56, 43
2, 120044, Note_on_c, 0, 41, 38
2, 120051, Note_on_c, 0, 59, 50
2, 120319, Control_c, 0, 64, 127
2, 120410, Note_on_c, 0, 56, 0
2, 120525, Note_on_c, 0, 59, 0
2, 120634, Note_on_c, 0, 59, 68
2, 120838, Note_on_c, 0, 59, 0
2, 120916, Note_on_c, 0, 51, 0
2, 121334, Note_on_c, 0, 66, 74
2, 121382, Note_on_c, 0, 41, 0
2, 121976, Note_on_c, 0, 61, 32
2, 121985, Control_c, 0, 64, 0
2, 121986, Note_on_c, 0, 57, 34
2, 122007, Note_on_c, 0, 54, 27
2, 122012, Note_on_c, 0, 63, 32
2, 122013, Note_on_c, 0, 47, 29
2, 122466, Control_c, 0, 64, 127
2, 122552, Note_on_c, 0, 57, 0
2, 122609, Note_on_c, 0, 54, 0
2, 122636, Note_on_c, 0, 61, 0
2, 122683, Note_on_c, 0, 63, 0
2, 122909, Note_on_c, 0, 61, 36
2, 122915, Note_on_c, 0, 54, 29
2, 122921, Note_on_c, 0, 57, 30
2, 123053, Note_on_c, 0, 54, 0
2, 123135, Note_on_c, 0, 47, 0
2, 123298, Note_on_c, 0, 57, 0
2, 123632, Note_on_c, 0, 61, 0
2, 123725, Note_on_c, 0, 66, 0
2, 123843, Control_c, 0, 64, 0
2, 123876, Note_on_c, 0, 56, 38
2, 123886, Note_on_c, 0, 41, 35
2, 123902, Note_on_c, 0, 60, 32
2, 123909, Note_on_c, 0, 51, 18
2, 124055, Control_c, 0, 64, 127
2, 124150, Note_on_c, 0, 41, 0
2, 124188, Note_on_c, 0, 56, 0
2, 124258, Note_on_c, 0, 51, 0
2, 124307, Note_on_c, 0, 60, 0
2, 124838, Note_on_c, 0, 63, 26
2, 124862, Note_on_c, 0, 67, 22
2, 124873, Note_on_c, 0, 56, 20
2, 124874, Note_on_c, 0, 60, 29
2, 125381, Note_on_c, 0, 72, 75
2, 125414, Note_on_c, 0, 67, 0
2, 125481, Note_on_c, 0, 56, 0
2, 125553, Note_on_c, 0, 73, 35
2, 125572, Note_on_c, 0, 63, 0
2, 125626, Note_on_c, 0, 72, 0
2, 125654, Note_on_c, 0, 60, 0
2, 125656, Note_on_c, 0, 74, 68
2, 125715, Note_on_c, 0, 74, 0
2, 125737, Note_on_c, 0, 75, 75
2, 125755, Control_c, 0, 64, 0
2, 125771, Note_on_c, 0, 73, 0
2, 125795, Note_on_c, 0, 62, 47
2, 125797, Note_on_c, 0, 67, 40
2, 125804, Note_on_c, 0, 56, 43
2, 125890, Note_on_c, 0, 74, 78
2, 125904, Note_on_c, 0, 75, 0
2, 126199, Note_on_c, 0, 74, 0
2, 126233, Note_on_c, 0, 77, 74
2, 126354, Control_c, 0, 64, 127
2, 126518, Note_on_c, 0, 67, 0
2, 126614, Note_on_c, 0, 56, 0
2, 126647, Note_on_c, 0, 62, 0
2, 126729, Control_c, 0, 64, 0
2, 126763, Note_on_c, 0, 62, 56
2, 126787, Note_on_c, 0, 66, 35
2, 126791, Note_on_c, 0, 56, 39
2, 126800, Note_on_c, 0, 60, 32
2, 126893, Control_c, 0, 64, 127
2, 127212, Note_on_c, 0, 62, 0
2, 127224, Note_on_c, 0, 60, 0
2, 127307, Note_on_c, 0, 66, 0
2, 127419, Note_on_c, 0, 56, 0
2, 127756, Note_on_c, 0, 77, 0
2, 127770, Control_c, 0, 64, 0
2, 127776, Note_on_c, 0, 75, 45
2, 127779, Note_on_c, 0, 65, 42
2, 127797, Note_on_c, 0, 60, 29
2, 127809, Note_on_c, 0, 55, 26
2, 128220, Control_c, 0, 64, 127
2, 128510, Note_on_c, 0, 77, 62
2, 128543, Note_on_c, 0, 75, 0
2, 128943, Note_on_c, 0, 74, 74
2, 128959, Note_on_c, 0, 77, 0
2, 129173, Note_on_c, 0, 74, 0
2, 129245, Note_on_c, 0, 75, 56
2, 129318, Note_on_c, 0, 60, 0
2, 129348, Note_on_c, 0, 65, 0
2, 129450, Note_on_c, 0, 75, 0
2, 129478, Note_on_c, 0, 77, 64
2, 129671, Note_on_c, 0, 77, 0
2, 129702, Control_c, 0, 64, 0
2, 129707, Note_on_c, 0, 65, 36
2, 129731, Note_on_c, 0, 60, 28
2, 129743, Note_on_c, 0, 79, 58
2, 130025, Note_on_c, 0, 67, 46
2, 130068, Control_c, 0, 64, 127
2, 130352, Note_on_c, 0, 65, 0
2, 130363, Note_on_c, 0, 60, 0
2, 130465, Note_on_c, 0, 67, 0
2, 130613, Note_on_c, 0, 67, 44
2, 130629, Note_on_c, 0, 65, 37
2, 130644, Note_on_c, 0, 60, 24
2, 130823, Note_on_c, 0, 65, 0
2, 130850, Note_on_c, 0, 60, 0
2, 130899, Note_on_c, 0, 55, 0
2, 131363, Note_on_c, 0, 67, 0
2, 131477, Note_on_c, 0, 79, 0
2, 131571, Control_c, 0, 64, 0
2, 131588, Note_on_c, 0, 67, 44
2, 131597, Note_on_c, 0, 72, 42
2, 131601, Note_on_c, 0, 45, 46
2, 131610, Note_on_c, 0, 33, 38
2, 131706, Control_c, 0, 64, 127
2, 131707, Note_on_c, 0, 33, 0
2, 131790, Note_on_c, 0, 45, 0
2, 131830, Note_on_c, 0, 67, 0
2, 131970, Note_on_c, 0, 72, 0
2, 132569, Control_c, 0, 64, 0
2, 132606, Note_on_c, 0, 60, 69
2, 132607, Note_on_c, 0, 63, 88
2, 132613, Note_on_c, 0, 55, 71
2, 132614, Note_on_c, 0, 91, 91
2, 132615, Note_on_c, 0, 79, 92
2, 132616, Note_on_c, 0, 86, 87
2, 132624, Note_on_c, 0, 57, 69
2, 132661, Control_c, 0, 64, 127
2, 132847, Note_on_c, 0, 79, 0
2, 132848, Note_on_c, 0, 55, 0
2, 132869, Note_on_c, 0, 86, 0
2, 132875, Note_on_c, 0, 63, 0
2, 132887, Note_on_c, 0, 57, 0
2, 132891, Note_on_c, 0, 91, 0
2, 132901, Note_on_c, 0, 60, 0
2, 132950, Control_c, 0, 64, 0
2, 132985, Note_on_c, 0, 60, 61
2, 132986, Note_on_c, 0, 63, 83
2, 132993, Note_on_c, 0, 57, 66
2, 132994, Note_on_c, 0, 55, 64
2, 133001, Note_on_c, 0, 93, 85
2, 133006, Note_on_c, 0, 88, 81
2, 133007, Note_on_c, 0, 81, 80
2, 133096, Note_on_c, 0, 81, 0
2, 133100, Note_on_c, 0, 55, 0
2, 133101, Note_on_c, 0, 88, 0
2, 133103, Note_on_c, 0, 63, 0
2, 133105, Note_on_c, 0, 93, 0
2, 133125, Note_on_c, 0, 60, 0
2, 133131, Note_on_c, 0, 57, 0
2, 133347, Note_on_c, 0, 79, 77
2, 133348, Note_on_c, 0, 91, 79
2, 133349, Note_on_c, 0, 86, 77
2, 133362, Note_on_c, 0, 63, 79
2, 133363, Note_on_c, 0, 60, 61
2, 133364, Note_on_c, 0, 55, 65
2, 133370, Note_on_c, 0, 57, 62
2, 133548, Note_on_c, 0, 79, 0
2, 133565, Note_on_c, 0, 63, 0
2, 133568, Note_on_c, 0, 55, 0
2, 133577, Note_on_c, 0, 91, 0
2, 133581, Note_on_c, 0, 86, 0
2, 133592, Note_on_c, 0, 57, 0
2, 133608, Note_on_c, 0, 60, 0
2, 133679, Note_on_c, 0, 60, 63
2, 133681, Note_on_c, 0, 63, 75
2, 133685, Note_on_c, 0, 88, 68
2, 133686, Note_on_c, 0, 93, 75
2, 133688, Note_on_c, 0, 81, 64
2, 133688, Note_on_c, 0, 55, 56
2, 133694, Note_on_c, 0, 57, 49
2, 133723, Control_c, 0, 64, 127
2, 133895, Note_on_c, 0, 55, 0
2, 133911, Note_on_c, 0, 81, 0
2, 133912, Note_on_c, 0, 93, 0
2, 133925, Note_on_c, 0, 88, 0
2, 133925, Note_on_c, 0, 63, 0
2, 133929, Note_on_c, 0, 57, 0
2, 133953, Note_on_c, 0, 60, 0
2, 134040, Note_on_c, 0, 60, 47
2, 134042, Note_on_c, 0, 93, 64
2, 134044, Note_on_c, 0, 63, 65
2, 134050, Note_on_c, 0, 81, 44
2, 134051, Note_on_c, 0, 88, 57
2, 134055, Note_on_c, 0, 57, 54
2, 134069, Note_on_c, 0, 55, 52
2, 134192, Note_on_c, 0, 93, 0
2, 134200, Note_on_c, 0, 55, 0
2, 134218, Note_on_c, 0, 63, 0
2, 134220, Note_on_c, 0, 88, 0
2, 134229, Note_on_c, 0, 81, 0
2, 134246, Note_on_c, 0, 60, 0
2, 134247, Note_on_c, 0, 57, 0
2, 134300, Control_c, 0, 64, 0
2, 134337, Note_on_c, 0, 91, 54
2, 134349, Note_on_c, 0, 63, 59
2, 134351, Note_on_c, 0, 86, 53
2, 134353, Note_on_c, 0, 60, 32
2, 134356, Note_on_c, 0, 79, 38
2, 134359, Note_on_c, 0, 57, 47
2, 134367, Note_on_c, 0, 55, 53
2, 134378, Control_c, 0, 64, 127
2, 134514, Note_on_c, 0, 79, 0
2, 134516, Note_on_c, 0, 55, 0
2, 134525, Note_on_c, 0, 91, 0
2, 134526, Note_on_c, 0, 86, 0
2, 134530, Note_on_c, 0, 63, 0
2, 134560, Note_on_c, 0, 57, 0
2, 134564, Note_on_c, 0, 60, 0
2, 134647, Note_on_c, 0, 63, 52
2, 134648, Note_on_c, 0, 91, 53
2, 134656, Note_on_c, 0, 60, 45
2, 134662, Note_on_c, 0, 86, 55
2, 134663, Note_on_c, 0, 79, 37
2, 134664, Note_on_c, 0, 55, 54
2, 134665, Note_on_c, 0, 57, 50
2, 134805, Note_on_c, 0, 79, 0
2, 134813, Note_on_c, 0, 86, 0
2, 134814, Note_on_c, 0, 55, 0
2, 134816, Note_on_c, 0, 63, 0
2, 134817, Note_on_c, 0, 91, 0
2, 134832, Note_on_c, 0, 57, 0
2, 134867, Note_on_c, 0, 60, 0
2, 134955, Note_on_c, 0, 91, 48
2, 134962, Note_on_c, 0, 63, 52
2, 134967, Note_on_c, 0, 60, 36
2, 134969, Note_on_c, 0, 86, 49
2, 134970, Note_on_c, 0, 55, 48
2, 134978, Note_on_c, 0, 79, 31
2, 134995, Note_on_c, 0, 57, 39
2, 135074, Note_on_c, 0, 63, 0
2, 135087, Note_on_c, 0, 86, 0
2, 135087, Note_on_c, 0, 79, 0
2, 135091, Note_on_c, 0, 55, 0
2, 135092, Note_on_c, 0, 57, 0
2, 135100, Note_on_c, 0, 91, 0
2, 135117, Note_on_c, 0, 60, 0
2, 135190, Note_on_c, 0, 63, 46
2, 135196, Note_on_c, 0, 55, 36
2, 135200, Note_on_c, 0, 91, 44
2, 135203, Note_on_c, 0, 60, 32
2, 135210, Note_on_c, 0, 86, 51
2, 135216, Note_on_c, 0, 79, 35
2, 135293, Note_on_c, 0, 55, 0
2, 135300, Note_on_c, 0, 86, 0
2, 135303, Note_on_c, 0, 63, 0
2, 135304, Note_on_c, 0, 79, 0
2, 135315, Note_on_c, 0, 91, 0
2, 135376, Note_on_c, 0, 60, 0
2, 135400, Control_c, 0, 64, 0
2, 135433, Note_on_c, 0, 60, 19
2, 135443, Note_on_c, 0, 91, 62
2, 135444, Note_on_c, 0, 63, 37
2, 135468, Note_on_c, 0, 79, 30
2, 135469, Note_on_c, 0, 54, 45
2, 135471, Note_on_c, 0, 84, 43
2, 135498, Note_on_c, 0, 88, 24
2, 135554, Control_c, 0, 64, 127
2, 135565, Note_on_c, 0, 88, 0
2, 135621, Note_on_c, 0, 91, 0
2, 135670, Note_on_c, 0, 54, 0
2, 135670, Note_on_c, 0, 63, 0
2, 135672, Note_on_c, 0, 79, 0
2, 135674, Note_on_c, 0, 84, 0
2, 135702, Note_on_c, 0, 60, 0
2, 135745, Control_c, 0, 64, 0
2, 135784, Note_on_c, 0, 60, 28
2, 135785, Note_on_c, 0, 63, 38
2, 135796, Note_on_c, 0, 54, 38
2, 135799, Note_on_c, 0, 84, 57
2, 135802, Note_on_c, 0, 90, 51
2, 135811, Note_on_c, 0, 78, 32
2, 135822, Control_c, 0, 64, 127
2, 135914, Note_on_c, 0, 84, 0
2, 135992, Note_on_c, 0, 78, 0
2, 136041, Note_on_c, 0, 63, 0
2, 136053, Note_on_c, 0, 90, 0
2, 136149, Note_on_c, 0, 54, 0
2, 136153, Note_on_c, 0, 60, 0
2, 136323, Control_c, 0, 64, 0
2, 136360, Note_on_c, 0, 93, 62
2, 136367, Note_on_c, 0, 63, 44
2, 136372, Note_on_c, 0, 81, 40
2, 136382, Note_on_c, 0, 60, 33
2, 136383, Note_on_c, 0, 54, 37
2, 136448, Control_c, 0, 64, 127
2, 136504, Note_on_c, 0, 60, 0
2, 136510, Note_on_c, 0, 63, 0
2, 136572, Note_on_c, 0, 54, 0
2, 136725, Note_on_c, 0, 93, 0
2, 136775, Note_on_c, 0, 81, 0
2, 136804, Control_c, 0, 64, 0
2, 136819, Note_on_c, 0, 50, 84
2, 136828, Note_on_c, 0, 48, 64
2, 136835, Note_on_c, 0, 49, 74
2, 136861, Note_on_c, 0, 48, 0
2, 136928, Note_on_c, 0, 49, 0
2, 137006, Control_c, 0, 64, 127
2, 137198, Control_c, 0, 64, 0
2, 137316, Note_on_c, 0, 38, 65
2, 137324, Control_c, 0, 64, 127
2, 137402, Note_on_c, 0, 38, 0
2, 137471, Note_on_c, 0, 50, 0
2, 137802, Note_on_c, 0, 63, 67
2, 137803, Note_on_c, 0, 66, 61
2, 137804, Note_on_c, 0, 57, 74
2, 137805, Note_on_c, 0, 69, 64
2, 137816, Note_on_c, 0, 60, 53
2, 138063, Note_on_c, 0, 69, 0
2, 138132, Note_on_c, 0, 60, 0
2, 138165, Note_on_c, 0, 63, 0
2, 138180, Note_on_c, 0, 66, 0
2, 138286, Note_on_c, 0, 66, 60
2, 138287, Note_on_c, 0, 63, 61
2, 138291, Note_on_c, 0, 54, 55
2, 138298, Note_on_c, 0, 60, 54
2, 138315, Note_on_c, 0, 57, 0
2, 138444, Note_on_c, 0, 54, 0
2, 138515, Note_on_c, 0, 60, 0
2, 138757, Note_on_c, 0, 60, 60
2, 138864, Note_on_c, 0, 60, 0
2, 138916, Note_on_c, 0, 63, 0
2, 139060, Note_on_c, 0, 66, 0
2, 139221, Control_c, 0, 64, 0
2, 139227, Note_on_c, 0, 61, 72
2, 139236, Note_on_c, 0, 65, 69
2, 139237, Note_on_c, 0, 69, 62
2, 139241, Note_on_c, 0, 55, 64
2, 139243, Note_on_c, 0, 57, 66
2, 139244, Note_on_c, 0, 39, 64
2, 139252, Note_on_c, 0, 27, 60
2, 139462, Control_c, 0, 64, 127
2, 139628, Note_on_c, 0, 55, 0
2, 139642, Note_on_c, 0, 27, 0
2, 139653, Note_on_c, 0, 57, 0
2, 139689, Note_on_c, 0, 39, 0
2, 139719, Note_on_c, 0, 61, 0
2, 139775, Note_on_c, 0, 65, 0
2, 139892, Note_on_c, 0, 69, 0
2, 140470, Control_c, 0, 64, 0
2, 140471, Note_on_c, 0, 65, 66
2, 140472, Note_on_c, 0, 61, 48
2, 140479, Note_on_c, 0, 91, 72
2, 140484, Note_on_c, 0, 79, 65
2, 140491, Note_on_c, 0, 60, 55
2, 140492, Note_on_c, 0, 86, 62
2, 140502, Note_on_c, 0, 55, 47
2, 140520, Note_on_c, 0, 58, 29
2, 140538, Control_c, 0, 64, 127
2, 140615, Control_c, 0, 64, 0
2, 140621, Note_on_c, 0, 79, 0
2, 140629, Note_on_c, 0, 55, 0
2, 140636, Note_on_c, 0, 86, 0
2, 140640, Note_on_c, 0, 65, 0
2, 140642, Note_on_c, 0, 60, 0
2, 140646, Note_on_c, 0, 58, 0
2, 140662, Note_on_c, 0, 91, 0
2, 140665, Note_on_c, 0, 61, 0
2, 140741, Note_on_c, 0, 61, 61
2, 140746, Note_on_c, 0, 65, 64
2, 140749, Note_on_c, 0, 60, 40
2, 140754, Note_on_c, 0, 93, 75
2, 140762, Note_on_c, 0, 81, 63
2, 140766, Note_on_c, 0, 88, 62
2, 140790, Note_on_c, 0, 60, 0
2, 140796, Note_on_c, 0, 65, 0
2, 140799, Note_on_c, 0, 88, 0
2, 140807, Note_on_c, 0, 81, 0
2, 140818, Note_on_c, 0, 61, 0
2, 140830, Note_on_c, 0, 93, 0
2, 141001, Note_on_c, 0, 91, 68
2, 141004, Note_on_c, 0, 79, 60
2, 141006, Note_on_c, 0, 60, 68
2, 141009, Control_c, 0, 64, 127
2, 141012, Note_on_c, 0, 86, 58
2, 141013, Note_on_c, 0, 61, 61
2, 141014, Note_on_c, 0, 65, 68
2, 141137, Note_on_c, 0, 79, 0
2, 141139, Note_on_c, 0, 86, 0
2, 141156, Note_on_c, 0, 65, 0
2, 141159, Note_on_c, 0, 61, 0
2, 141163, Control_c, 0, 64, 0
2, 141171, Note_on_c, 0, 60, 0
2, 141177, Note_on_c, 0, 91, 0
2, 141278, Note_on_c, 0, 60, 42
2, 141279, Note_on_c, 0, 65, 71
2, 141280, Note_on_c, 0, 93, 77
2, 141281, Note_on_c, 0, 61, 60
2, 141291, Control_c, 0, 64, 127
2, 141292, Note_on_c, 0, 81, 62
2, 141293, Note_on_c, 0, 88, 66
2, 141299, Note_on_c, 0, 55, 54
2, 141305, Note_on_c, 0, 58, 36
2, 141551, Note_on_c, 0, 55, 0
2, 141557, Note_on_c, 0, 81, 0
2, 141567, Note_on_c, 0, 88, 0
2, 141579, Note_on_c, 0, 65, 0
2, 141581, Note_on_c, 0, 61, 0
2, 141584, Note_on_c, 0, 93, 0
2, 141585, Note_on_c, 0, 60, 0
2, 141590, Note_on_c, 0, 58, 0
2, 141725, Note_on_c, 0, 93, 68
2, 141732, Note_on_c, 0, 61, 48
2, 141736, Note_on_c, 0, 65, 58
2, 141741, Note_on_c, 0, 88, 62
2, 141745, Note_on_c, 0, 60, 40
2, 141750, Note_on_c, 0, 81, 30
2, 141751, Note_on_c, 0, 55, 46
2, 141941, Note_on_c, 0, 93, 0
2, 141965, Note_on_c, 0, 88, 0
2, 141984, Note_on_c, 0, 55, 0
2, 141988, Note_on_c, 0, 81, 0
2, 141993, Note_on_c, 0, 65, 0
2, 141995, Note_on_c, 0, 60, 0
2, 142000, Note_on_c, 0, 61, 0
2, 142181, Note_on_c, 0, 60, 41
2, 142181, Note_on_c, 0, 91, 58
2, 142186, Note_on_c, 0, 65, 58
2, 142187, Note_on_c, 0, 61, 52
2, 142199, Note_on_c, 0, 79, 36
2, 142200, Note_on_c, 0, 55, 46
2, 142201, Note_on_c, 0, 86, 57
2, 142434, Note_on_c, 0, 55, 0
2, 142440, Note_on_c, 0, 86, 0
2, 142443, Note_on_c, 0, 65, 0
2, 142449, Note_on_c, 0, 79, 0
2, 142450, Note_on_c, 0, 61, 0
2, 142455, Note_on_c, 0, 91, 0
2, 142460, Note_on_c, 0, 60, 0
2, 142611, Note_on_c, 0, 65, 57
2, 142613, Note_on_c, 0, 61, 48
2, 142618, Note_on_c, 0, 60, 39
2, 142623, Note_on_c, 0, 91, 57
2, 142629, Note_on_c, 0, 86, 58
2, 142633, Note_on_c, 0, 55, 46
2, 142637, Note_on_c, 0, 79, 36
2, 142786, Note_on_c, 0, 60, 0
2, 142812, Note_on_c, 0, 86, 0
2, 142823, Note_on_c, 0, 65, 0
2, 142847, Note_on_c, 0, 55, 0
2, 142851, Note_on_c, 0, 61, 0
2, 142867, Note_on_c, 0, 79, 0
2, 142871, Note_on_c, 0, 91, 0
2, 143023, Control_c, 0, 64, 0
2, 143082, Note_on_c, 0, 64, 52
2, 143083, Note_on_c, 0, 55, 44
2, 143091, Note_on_c, 0, 60, 49
2, 143092, Note_on_c, 0, 91, 67
2, 143097, Note_on_c, 0, 59, 51
2, 143102, Note_on_c, 0, 79, 50
2, 143103, Note_on_c, 0, 88, 53
2, 143116, Note_on_c, 0, 84, 56
2, 143208, Control_c, 0, 64, 127
2, 143345, Note_on_c, 0, 88, 0
2, 143363, Note_on_c, 0, 91, 0
2, 143375, Note_on_c, 0, 79, 0
2, 143405, Note_on_c, 0, 84, 0
2, 143436, Note_on_c, 0, 55, 0
2, 143439, Note_on_c, 0, 60, 0
2, 143441, Note_on_c, 0, 64, 0
2, 143445, Note_on_c, 0, 59, 0
2, 143616, Note_on_c, 0, 90, 46
2, 143617, Note_on_c, 0, 64, 44
2, 143623, Note_on_c, 0, 55, 35
2, 143628, Note_on_c, 0, 84, 51
2, 143628, Note_on_c, 0, 78, 31
2, 143629, Note_on_c, 0, 60, 36
2, 143636, Note_on_c, 0, 59, 40
2, 143793, Note_on_c, 0, 84, 0
2, 143865, Note_on_c, 0, 78, 0
2, 143872, Note_on_c, 0, 55, 0
2, 143885, Note_on_c, 0, 90, 0
2, 143908, Note_on_c, 0, 59, 0
2, 143911, Note_on_c, 0, 64, 0
2, 143915, Note_on_c, 0, 60, 0
2, 144116, Note_on_c, 0, 90, 48
2, 144123, Note_on_c, 0, 64, 36
2, 144131, Note_on_c, 0, 60, 35
2, 144139, Note_on_c, 0, 78, 25
2, 144140, Note_on_c, 0, 84, 50
2, 144145, Note_on_c, 0, 59, 36
2, 144149, Note_on_c, 0, 55, 28
2, 144266, Note_on_c, 0, 84, 0
2, 144303, Note_on_c, 0, 78, 0
2, 144318, Note_on_c, 0, 55, 0
2, 144324, Note_on_c, 0, 64, 0
2, 144339, Note_on_c, 0, 59, 0
2, 144344, Note_on_c, 0, 90, 0
2, 144372, Note_on_c, 0, 60, 0
2, 144560, Note_on_c, 0, 90, 49
2, 144568, Note_on_c, 0, 64, 37
2, 144579, Note_on_c, 0, 78, 32
2, 144584, Note_on_c, 0, 55, 30
2, 144587, Note_on_c, 0, 60, 30
2, 144673, Note_on_c, 0, 78, 0
2, 144698, Note_on_c, 0, 60, 0
2, 144701, Note_on_c, 0, 64, 0
2, 144704, Note_on_c, 0, 55, 0
2, 144719, Note_on_c, 0, 90, 0
2, 144996, Control_c, 0, 64, 0
2, 145035, Note_on_c, 0, 93, 66
2, 145037, Note_on_c, 0, 60, 34
2, 145039, Note_on_c, 0, 64, 42
2, 145040, Note_on_c, 0, 81, 53
2, 145052, Note_on_c, 0, 87, 35
2, 145053, Note_on_c, 0, 54, 35
2, 145170, Control_c, 0, 64, 127
2, 145295, Note_on_c, 0, 93, 0
2, 145387, Note_on_c, 0, 87, 0
2, 145421, Note_on_c, 0, 81, 0
2, 145550, Note_on_c, 0, 64, 0
2, 145639, Note_on_c, 0, 60, 0
2, 145996, Note_on_c, 0, 64, 28
2, 146002, Note_on_c, 0, 60, 33
2, 146082, Note_on_c, 0, 67, 25
2, 146126, Note_on_c, 0, 67, 0
2, 146145, Note_on_c, 0, 69, 29
2, 146157, Note_on_c, 0, 64, 0
2, 146210, Note_on_c, 0, 71, 32
2, 146214, Note_on_c, 0, 69, 0
2, 146230, Note_on_c, 0, 54, 0
2, 146243, Note_on_c, 0, 60, 0
2, 146262, Note_on_c, 0, 71, 0
2, 146289, Note_on_c, 0, 72, 40
2, 146350, Note_on_c, 0, 72, 0
2, 146354, Note_on_c, 0, 74, 35
2, 146418, Note_on_c, 0, 76, 36
2, 146427, Note_on_c, 0, 74, 0
2, 146492, Note_on_c, 0, 76, 0
2, 146493, Note_on_c, 0, 77, 44
2, 146558, Note_on_c, 0, 79, 43
2, 146561, Note_on_c, 0, 77, 0
2, 146628, Note_on_c, 0, 81, 38
2, 146632, Note_on_c, 0, 79, 0
2, 146693, Note_on_c, 0, 83, 45
2, 146706, Note_on_c, 0, 81, 0
2, 146760, Note_on_c, 0, 84, 51
2, 146789, Note_on_c, 0, 83, 0
2, 146837, Note_on_c, 0, 86, 36
2, 146876, Note_on_c, 0, 84, 0
2, 146909, Note_on_c, 0, 86, 0
2, 146931, Note_on_c, 0, 60, 45
2, 146937, Note_on_c, 0, 63, 70
2, 146938, Note_on_c, 0, 87, 56
2, 146957, Note_on_c, 0, 57, 61
2, 146958, Note_on_c, 0, 55, 59
2, 146982, Note_on_c, 0, 86, 29
2, 146991, Control_c, 0, 64, 0
2, 147016, Note_on_c, 0, 86, 0
2, 147442, Control_c, 0, 64, 127
2, 147989, Note_on_c, 0, 87, 0
2, 148253, Note_on_c, 0, 60, 0
2, 148529, Note_on_c, 0, 63, 0
2, 148843, Note_on_c, 0, 63, 28
2, 148848, Note_on_c, 0, 60, 31
2, 149405, Note_on_c, 0, 63, 0
2, 149515, Note_on_c, 0, 57, 0
2, 149553, Note_on_c, 0, 84, 94
2, 149555, Note_on_c, 0, 72, 87
2, 149569, Note_on_c, 0, 60, 0
2, 149915, Control_c, 0, 64, 0
2, 149923, Note_on_c, 0, 63, 30
2, 149929, Note_on_c, 0, 57, 37
2, 149942, Note_on_c, 0, 60, 31
2, 150023, Control_c, 0, 64, 127
2, 150397, Note_on_c, 0, 72, 0
2, 150398, Note_on_c, 0, 63, 0
2, 150398, Note_on_c, 0, 55, 0
2, 150415, Note_on_c, 0, 57, 0
2, 150456, Note_on_c, 0, 81, 47
2, 150457, Note_on_c, 0, 60, 0
2, 150485, Note_on_c, 0, 84, 0
2, 150598, Note_on_c, 0, 81, 0
2, 150659, Note_on_c, 0, 72, 34
2, 150871, Note_on_c, 0, 72, 0
2, 150878, Control_c, 0, 64, 0
2, 150904, Note_on_c, 0, 78, 45
2, 150909, Note_on_c, 0, 60, 20
2, 150922, Note_on_c, 0, 64, 29
2, 150937, Note_on_c, 0, 54, 31
2, 151052, Control_c, 0, 64, 127
2, 151192, Note_on_c, 0, 78, 0
2, 151378, Note_on_c, 0, 64, 0
2, 151393, Note_on_c, 0, 60, 0
2, 151812, Note_on_c, 0, 64, 36
2, 151833, Note_on_c, 0, 60, 26
2, 151953, Note_on_c, 0, 102, 42
2, 152022, Note_on_c, 0, 101, 50
2, 152032, Control_c, 0, 64, 0
2, 152047, Note_on_c, 0, 64, 0
2, 152050, Note_on_c, 0, 102, 0
2, 152110, Note_on_c, 0, 101, 0
2, 152120, Note_on_c, 0, 100, 46
2, 152170, Note_on_c, 0, 100, 0
2, 152233, Note_on_c, 0, 99, 59
2, 152349, Note_on_c, 0, 99, 0
2, 152385, Note_on_c, 0, 54, 0
2, 152495, Control_c, 0, 64, 127
2, 152679, Note_on_c, 0, 89, 47
2, 152736, Control_c, 0, 64, 0
2, 152786, Note_on_c, 0, 62, 33
2, 152790, Note_on_c, 0, 54, 29
2, 152792, Note_on_c, 0, 89, 0
2, 152804, Note_on_c, 0, 88, 42
2, 152919, Note_on_c, 0, 88, 0
2, 152997, Note_on_c, 0, 87, 50
2, 153060, Note_on_c, 0, 87, 0
2, 153156, Note_on_c, 0, 84, 54
2, 153185, Note_on_c, 0, 62, 0
2, 153206, Note_on_c, 0, 84, 0
2, 153272, Note_on_c, 0, 81, 44
2, 153347, Note_on_c, 0, 81, 0
2, 153404, Note_on_c, 0, 78, 44
2, 153462, Note_on_c, 0, 60, 0
2, 153511, Note_on_c, 0, 77, 52
2, 153512, Note_on_c, 0, 78, 0
2, 153612, Note_on_c, 0, 77, 0
2, 153635, Note_on_c, 0, 76, 40
2, 153677, Note_on_c, 0, 60, 18
2, 153685, Note_on_c, 0, 62, 24
2, 153745, Note_on_c, 0, 76, 0
2, 153777, Note_on_c, 0, 75, 35
2, 153848, Note_on_c, 0, 75, 0
2, 153923, Note_on_c, 0, 72, 50
2, 154029, Note_on_c, 0, 72, 0
2, 154064, Control_c, 0, 64, 127
2, 154076, Note_on_c, 0, 71, 47
2, 154136, Note_on_c, 0, 60, 0
2, 154138, Note_on_c, 0, 62, 0
2, 154168, Note_on_c, 0, 71, 0
2, 154229, Note_on_c, 0, 54, 0
2, 154256, Note_on_c, 0, 69, 60
2, 154436, Note_on_c, 0, 69, 0
2, 154516, Control_c, 0, 64, 0
2, 154533, Note_on_c, 0, 69, 65
2, 154538, Note_on_c, 0, 60, 60
2, 154539, Note_on_c, 0, 65, 64
2, 154548, Note_on_c, 0, 57, 66
2, 154550, Note_on_c, 0, 64, 64
2, 154833, Control_c, 0, 64, 127
2, 154982, Note_on_c, 0, 57, 0
2, 155069, Note_on_c, 0, 43, 66
2, 155288, Note_on_c, 0, 64, 0
2, 155303, Note_on_c, 0, 65, 0
2, 155307, Note_on_c, 0, 69, 0
2, 155379, Note_on_c, 0, 60, 0
2, 156027, Note_on_c, 0, 43, 0
2, 156173, Note_on_c, 0, 64, 71
2, 156267, Note_on_c, 0, 64, 0
2, 156349, Note_on_c, 0, 65, 82
2, 156496, Note_on_c, 0, 65, 0
2, 156568, Note_on_c, 0, 53, 73
2, 156574, Note_on_c, 0, 64, 80
2, 156575, Control_c, 0, 64, 0
2, 156576, Note_on_c, 0, 59, 78
2, 156593, Note_on_c, 0, 74, 85
2, 156596, Note_on_c, 0, 72, 80
2, 156948, Note_on_c, 0, 72, 0
2, 156951, Control_c, 0, 64, 127
2, 156985, Note_on_c, 0, 74, 0
2, 157019, Note_on_c, 0, 53, 0
2, 157041, Note_on_c, 0, 64, 0
2, 157050, Note_on_c, 0, 59, 0
2, 157133, Note_on_c, 0, 64, 66
2, 157138, Note_on_c, 0, 59, 60
2, 157139, Note_on_c, 0, 53, 58
2, 157146, Note_on_c, 0, 74, 85
2, 157172, Control_c, 0, 64, 0
2, 157326, Control_c, 0, 64, 127
2, 157582, Note_on_c, 0, 53, 0
2, 157590, Note_on_c, 0, 64, 0
2, 157601, Note_on_c, 0, 59, 0
2, 157622, Note_on_c, 0, 74, 0
2, 157797, Note_on_c, 0, 64, 51
2, 157803, Note_on_c, 0, 74, 66
2, 157816, Note_on_c, 0, 59, 47
2, 157826, Note_on_c, 0, 53, 26
2, 157837, Note_on_c, 0, 64, 0
2, 157889, Note_on_c, 0, 59, 0
2, 157909, Note_on_c, 0, 74, 0
2, 157963, Note_on_c, 0, 53, 0
2, 158375, Control_c, 0, 64, 0
2, 158383, Note_on_c, 0, 64, 42
2, 158405, Note_on_c, 0, 52, 49
2, 158418, Note_on_c, 0, 37, 35
2, 158428, Note_on_c, 0, 44, 35
2, 158433, Note_on_c, 0, 56, 34
2, 158722, Control_c, 0, 64, 127
2, 159092, Note_on_c, 0, 52, 0
2, 159101, Note_on_c, 0, 56, 0
2, 159431, Note_on_c, 0, 52, 35
2, 159436, Note_on_c, 0, 56, 36
2, 159829, Note_on_c, 0, 64, 0
2, 159929, Note_on_c, 0, 52, 0
2, 160020, Note_on_c, 0, 56, 0
2, 160148, Note_on_c, 0, 37, 0
2, 160352, Note_on_c, 0, 44, 0
2, 160393, Note_on_c, 0, 58, 40
2, 160397, Note_on_c, 0, 54, 34
2, 160401, Note_on_c, 0, 52, 28
2, 160405, Note_on_c, 0, 42, 31
2, 160415, Control_c, 0, 64, 0
2, 160421, Note_on_c, 0, 49, 23
2, 160829, Control_c, 0, 64, 127
2, 161013, Note_on_c, 0, 49, 0
2, 161017, Note_on_c, 0, 52, 0
2, 161122, Note_on_c, 0, 54, 0
2, 161128, Note_on_c, 0, 58, 0
2, 161394, Note_on_c, 0, 49, 30
2, 161405, Note_on_c, 0, 58, 33
2, 161409, Note_on_c, 0, 52, 22
2, 161412, Note_on_c, 0, 54, 26
2, 161517, Note_on_c, 0, 49, 0
2, 161557, Note_on_c, 0, 42, 0
2, 161638, Note_on_c, 0, 52, 0
2, 161819, Note_on_c, 0, 54, 0
2, 161917, Note_on_c, 0, 58, 0
2, 162254, Control_c, 0, 64, 0
2, 162305, Note_on_c, 0, 51, 29
2, 162314, Note_on_c, 0, 55, 42
2, 162317, Note_on_c, 0, 36, 30
2, 162336, Note_on_c, 0, 24, 27
2, 162441, Note_on_c, 0, 24, 0
2, 162446, Control_c, 0, 64, 127
2, 162477, Note_on_c, 0, 51, 0
2, 162519, Note_on_c, 0, 55, 0
2, 162550, Note_on_c, 0, 36, 0
2, 163292, Note_on_c, 0, 65, 91
2, 163301, Note_on_c, 0, 53, 55
2, 163660, Note_on_c, 0, 53, 0
2, 163671, Note_on_c, 0, 62, 83
2, 163676, Note_on_c, 0, 50, 44
2, 163721, Note_on_c, 0, 65, 0
2, 163813, Note_on_c, 0, 50, 0
2, 163940, Note_on_c, 0, 62, 0
2, 163977, Note_on_c, 0, 63, 71
2, 164302, Note_on_c, 0, 63, 0
2, 164614, Note_on_c, 0, 41, 49
2, 164689, Note_on_c, 0, 48, 49
2, 164723, Note_on_c, 0, 63, 55
2, 164726, Control_c, 0, 64, 0
2, 164769, Note_on_c, 0, 57, 59
2, 164796, Note_on_c, 0, 72, 63
2, 165033, Control_c, 0, 64, 127
2, 165180, Note_on_c, 0, 72, 0
2, 165245, Note_on_c, 0, 57, 0
2, 165250, Note_on_c, 0, 72, 69
2, 165325, Note_on_c, 0, 48, 0
2, 165345, Note_on_c, 0, 41, 0
2, 165409, Note_on_c, 0, 72, 0
2, 165741, Note_on_c, 0, 72, 50
2, 165868, Note_on_c, 0, 72, 0
2, 165869, Note_on_c, 0, 63, 0
2, 166159, Control_c, 0, 64, 0
2, 166179, Note_on_c, 0, 24, 40
2, 166183, Note_on_c, 0, 72, 48
2, 166193, Note_on_c, 0, 36, 38
2, 166196, Note_on_c, 0, 60, 31
2, 166250, Note_on_c, 0, 60, 0
2, 166268, Note_on_c, 0, 72, 0
2, 166285, Note_on_c, 0, 36, 0
2, 166289, Note_on_c, 0, 24, 0
2, 166883, Note_on_c, 0, 55, 68
2, 166884, Note_on_c, 0, 43, 53
2, 166956, Control_c, 0, 64, 127
2, 167253, Note_on_c, 0, 43, 0
2, 167569, Note_on_c, 0, 55, 0
2, 168238, Note_on_c, 0, 51, 71
2, 168246, Note_on_c, 0, 60, 74
2, 168253, Note_on_c, 0, 55, 74
2, 168265, Control_c, 0, 64, 0
2, 168439, Control_c, 0, 64, 127
2, 168557, Note_on_c, 0, 51, 0
2, 168622, Note_on_c, 0, 55, 0
2, 168720, Note_on_c, 0, 60, 0
2, 168780, Note_on_c, 0, 62, 79
2, 168780, Note_on_c, 0, 47, 72
2, 168782, Note_on_c, 0, 55, 71
2, 168787, Control_c, 0, 64, 0
2, 168808, Note_on_c, 0, 60, 34
2, 168848, Note_on_c, 0, 60, 0
2, 169028, Control_c, 0, 64, 127
2, 169170, Note_on_c, 0, 55, 0
2, 169235, Note_on_c, 0, 62, 0
2, 169344, Note_on_c, 0, 63, 64
2, 169352, Note_on_c, 0, 55, 60
2, 169356, Note_on_c, 0, 60, 53
2, 169358, Note_on_c, 0, 48, 56
2, 169367, Note_on_c, 0, 47, 0
2, 169383, Control_c, 0, 64, 0
2, 169606, Control_c, 0, 64, 127
2, 170297, Note_on_c, 0, 55, 0
2, 170465, Note_on_c, 0, 60, 0
2, 170701, Note_on_c, 0, 63, 0
2, 170729, Note_on_c, 0, 48, 0
2, 170774, Note_on_c, 0, 55, 42
2, 170774, Note_on_c, 0, 60, 44
2, 170776, Note_on_c, 0, 44, 36
2, 170779, Control_c, 0, 64, 0
2, 170779, Note_on_c, 0, 65, 49
2, 171000, Control_c, 0, 64, 127
2, 171127, Note_on_c, 0, 55, 0
2, 171144, Note_on_c, 0, 65, 0
2, 171184, Note_on_c, 0, 60, 0
2, 171413, Note_on_c, 0, 44, 0
2, 171884, Note_on_c, 0, 67, 47
2, 171885, Note_on_c, 0, 59, 58
2, 171886, Control_c, 0, 64, 0
2, 171900, Note_on_c, 0, 37, 37
2, 171922, Note_on_c, 0, 63, 28
2, 171957, Note_on_c, 0, 63, 0
2, 172271, Control_c, 0, 64, 127
2, 172304, Note_on_c, 0, 44, 42
2, 172323, Note_on_c, 0, 37, 0
2, 172554, Note_on_c, 0, 59, 0
2, 172835, Note_on_c, 0, 59, 36
2, 172851, Note_on_c, 0, 53, 30
2, 172897, Note_on_c, 0, 67, 0
2, 173335, Note_on_c, 0, 53, 0
2, 173346, Note_on_c, 0, 44, 0
2, 173641, Note_on_c, 0, 67, 35
2, 173793, Note_on_c, 0, 59, 0
2, 174051, Note_on_c, 0, 67, 0
2, 174369, Control_c, 0, 64, 0
2, 174379, Note_on_c, 0, 67, 44
2, 174394, Note_on_c, 0, 60, 44
2, 174410, Note_on_c, 0, 38, 46
2, 174416, Note_on_c, 0, 53, 25
2, 174830, Control_c, 0, 64, 127
2, 174952, Note_on_c, 0, 67, 0
2, 175147, Note_on_c, 0, 53, 0
2, 175189, Note_on_c, 0, 67, 50
2, 175431, Note_on_c, 0, 38, 0
2, 175517, Note_on_c, 0, 60, 0
2, 175817, Note_on_c, 0, 67, 0
2, 176123, Note_on_c, 0, 63, 36
2, 176127, Note_on_c, 0, 67, 44
2, 176128, Control_c, 0, 64, 0
2, 176135, Note_on_c, 0, 37, 34
2, 176140, Note_on_c, 0, 44, 29
2, 176142, Note_on_c, 0, 59, 33
2, 176506, Control_c, 0, 64, 127
2, 179126, Note_on_c, 0, 44, 0
2, 179166, Note_on_c, 0, 37, 0
2, 179338, Note_on_c, 0, 59, 0
2, 179380, Note_on_c, 0, 67, 0
2, 179391, Note_on_c, 0, 63, 0
2, 179941, Control_c, 0, 64, 0
2, 181614, Note_on_c, 0, 63, 18
2, 181692, Note_on_c, 0, 63, 0
2, 181905, Note_on_c, 0, 79, 40
2, 182007, Note_on_c, 0, 79, 0
2, 182115, Note_on_c, 0, 84, 64
2, 182263, Note_on_c, 0, 84, 0
2, 182332, Note_on_c, 0, 86, 80
2, 182491, Note_on_c, 0, 86, 0
2, 182550, Note_on_c, 0, 63, 31
2, 182556, Note_on_c, 0, 67, 24
2, 182566, Note_on_c, 0, 58, 29
2, 182571, Note_on_c, 0, 62, 42
2, 182584, Note_on_c, 0, 87, 57
2, 182678, Control_c, 0, 64, 127
2, 183147, Note_on_c, 0, 67, 0
2, 183200, Note_on_c, 0, 62, 0
2, 183206, Note_on_c, 0, 63, 0
2, 183401, Note_on_c, 0, 63, 29
2, 183412, Note_on_c, 0, 62, 24
2, 183414, Note_on_c, 0, 67, 24
2, 183594, Note_on_c, 0, 87, 0
2, 183853, Note_on_c, 0, 58, 0
2, 183981, Note_on_c, 0, 62, 0
2, 184042, Note_on_c, 0, 67, 0
2, 184141, Note_on_c, 0, 63, 0
2, 184216, Note_on_c, 0, 86, 73
2, 184353, Note_on_c, 0, 86, 0
2, 184447, Control_c, 0, 64, 0
2, 184487, Note_on_c, 0, 67, 48
2, 184493, Note_on_c, 0, 63, 39
2, 184507, Note_on_c, 0, 59, 32
2, 184549, Note_on_c, 0, 91, 58
2, 184555, Note_on_c, 0, 79, 49
2, 184685, Note_on_c, 0, 59, 0
2, 184704, Note_on_c, 0, 79, 0
2, 184720, Note_on_c, 0, 91, 0
2, 184733, Note_on_c, 0, 67, 0
2, 184757, Note_on_c, 0, 63, 0
2, 184890, Note_on_c, 0, 94, 65
2, 184899, Note_on_c, 0, 67, 47
2, 184901, Note_on_c, 0, 82, 52
2, 184905, Note_on_c, 0, 63, 39
2, 184963, Note_on_c, 0, 67, 0
2, 184970, Note_on_c, 0, 82, 0
2, 184971, Note_on_c, 0, 94, 0
2, 185017, Note_on_c, 0, 63, 0
2, 186350, Note_on_c, 0, 67, 27
2, 186355, Note_on_c, 0, 63, 33
2, 186374, Note_on_c, 0, 59, 24
2, 186437, Note_on_c, 0, 59, 0
2, 186469, Note_on_c, 0, 67, 0
2, 186483, Note_on_c, 0, 63, 0
2, 186871, Note_on_c, 0, 93, 101
2, 187133, Note_on_c, 0, 93, 0
2, 187168, Note_on_c, 0, 92, 78
2, 187349, Note_on_c, 0, 92, 0
2, 187360, Note_on_c, 0, 67, 41
2, 187378, Note_on_c, 0, 63, 36
2, 187392, Note_on_c, 0, 59, 27
2, 187439, Note_on_c, 0, 91, 63
2, 187591, Note_on_c, 0, 91, 0
2, 187629, Note_on_c, 0, 59, 0
2, 187649, Note_on_c, 0, 67, 0
2, 187738, Note_on_c, 0, 89, 75
2, 187873, Note_on_c, 0, 89, 0
2, 187993, Note_on_c, 0, 87, 71
2, 188106, Note_on_c, 0, 63, 0
2, 188155, Note_on_c, 0, 87, 0
2, 188202, Note_on_c, 0, 89, 54
2, 188226, Note_on_c, 0, 67, 28
2, 188240, Note_on_c, 0, 58, 33
2, 188242, Note_on_c, 0, 63, 26
2, 188269, Note_on_c, 0, 87, 36
2, 188299, Note_on_c, 0, 89, 0
2, 188406, Note_on_c, 0, 86, 56
2, 188469, Note_on_c, 0, 87, 0
2, 188570, Note_on_c, 0, 86, 0
2, 188660, Note_on_c, 0, 89, 62
2, 188882, Note_on_c, 0, 89, 0
2, 188917, Note_on_c, 0, 86, 61
2, 188925, Note_on_c, 0, 67, 0
2, 188987, Note_on_c, 0, 63, 0
2, 189121, Note_on_c, 0, 86, 0
2, 189193, Note_on_c, 0, 67, 34
2, 189203, Note_on_c, 0, 87, 56
2, 189213, Note_on_c, 0, 63, 33
2, 189307, Control_c, 0, 64, 127
2, 189839, Note_on_c, 0, 67, 0
2, 189864, Note_on_c, 0, 87, 0
2, 189894, Note_on_c, 0, 63, 0
2, 189918, Note_on_c, 0, 58, 0
2, 190657, Note_on_c, 0, 57, 70
2, 190658, Note_on_c, 0, 63, 84
2, 190662, Note_on_c, 0, 60, 62
2, 190663, Note_on_c, 0, 55, 73
2, 190670, Note_on_c, 0, 86, 81
2, 190671, Note_on_c, 0, 81, 82
2, 190672, Note_on_c, 0, 74, 87
2, 190694, Note_on_c, 0, 84, 48
2, 190732, Control_c, 0, 64, 0
2, 190737, Note_on_c, 0, 84, 0
2, 190829, Control_c, 0, 64, 127
2, 191044, Note_on_c, 0, 86, 0
2, 191070, Note_on_c, 0, 74, 0
2, 191107, Note_on_c, 0, 55, 0
2, 191133, Note_on_c, 0, 81, 0
2, 191134, Note_on_c, 0, 57, 0
2, 191136, Note_on_c, 0, 63, 0
2, 191189, Note_on_c, 0, 60, 0
2, 191391, Note_on_c, 0, 55, 66
2, 191392, Note_on_c, 0, 63, 76
2, 191394, Note_on_c, 0, 60, 58
2, 191399, Note_on_c, 0, 75, 77
2, 191400, Note_on_c, 0, 81, 75
2, 191401, Note_on_c, 0, 87, 78
2, 191585, Note_on_c, 0, 81, 0
2, 191621, Note_on_c, 0, 55, 0
2, 191625, Note_on_c, 0, 75, 0
2, 191645, Note_on_c, 0, 63, 0
2, 191655, Note_on_c, 0, 60, 0
2, 191669, Note_on_c, 0, 87, 0
2, 191966, Control_c, 0, 64, 0
2, 191981, Note_on_c, 0, 58, 63
2, 191981, Note_on_c, 0, 65, 70
2, 191982, Note_on_c, 0, 60, 54
2, 191987, Note_on_c, 0, 54, 60
2, 191988, Note_on_c, 0, 89, 71
2, 191989, Note_on_c, 0, 84, 71
2, 191993, Note_on_c, 0, 77, 64
2, 192182, Control_c, 0, 64, 127
2, 192254, Note_on_c, 0, 77, 0
2, 192276, Note_on_c, 0, 84, 0
2, 192307, Note_on_c, 0, 89, 0
2, 192385, Note_on_c, 0, 60, 0
2, 192394, Note_on_c, 0, 58, 0
2, 192428, Note_on_c, 0, 65, 0
2, 192440, Note_on_c, 0, 54, 0
2, 192573, Note_on_c, 0, 54, 69
2, 192574, Note_on_c, 0, 92, 81
2, 192575, Note_on_c, 0, 80, 75
2, 192580, Note_on_c, 0, 65, 74
2, 192581, Note_on_c, 0, 60, 64
2, 192581, Note_on_c, 0, 58, 72
2, 192582, Note_on_c, 0, 87, 73
2, 192810, Note_on_c, 0, 60, 0
2, 192842, Note_on_c, 0, 80, 0
2, 192848, Note_on_c, 0, 65, 0
2, 192860, Note_on_c, 0, 92, 0
2, 192897, Note_on_c, 0, 87, 0
2, 192955, Note_on_c, 0, 58, 0
2, 192963, Note_on_c, 0, 54, 0
2, 193034, Control_c, 0, 64, 0
2, 193060, Note_on_c, 0, 64, 70
2, 193061, Note_on_c, 0, 53, 59
2, 193067, Note_on_c, 0, 91, 75
2, 193068, Note_on_c, 0, 59, 68
2, 193075, Note_on_c, 0, 79, 60
2, 193076, Note_on_c, 0, 86, 66
2, 193277, Control_c, 0, 64, 127
2, 193527, Note_on_c, 0, 64, 0
2, 193544, Note_on_c, 0, 91, 0
2, 193548, Note_on_c, 0, 59, 0
2, 193562, Note_on_c, 0, 86, 0
2, 193563, Note_on_c, 0, 53, 0
2, 193578, Note_on_c, 0, 79, 0
2, 193999, Control_c, 0, 64, 0
2, 194025, Note_on_c, 0, 87, 69
2, 194026, Note_on_c, 0, 75, 67
2, 194033, Note_on_c, 0, 82, 67
2, 194034, Note_on_c, 0, 63, 69
2, 194042, Note_on_c, 0, 58, 68
2, 194045, Note_on_c, 0, 52, 64
2, 194394, Control_c, 0, 64, 127
2, 194668, Note_on_c, 0, 58, 0
2, 194698, Note_on_c, 0, 63, 0
2, 194864, Note_on_c, 0, 87, 0
2, 194889, Note_on_c, 0, 82, 0
2, 194894, Note_on_c, 0, 75, 0
2, 194981, Note_on_c, 0, 63, 36
2, 194993, Note_on_c, 0, 58, 48
2, 195146, Note_on_c, 0, 63, 0
2, 195312, Note_on_c, 0, 58, 0
2, 195341, Note_on_c, 0, 52, 0
2, 195489, Note_on_c, 0, 63, 94
2, 195492, Note_on_c, 0, 70, 86
2, 195506, Note_on_c, 0, 58, 84
2, 195509, Control_c, 0, 64, 0
2, 195711, Note_on_c, 0, 68, 63
2, 195716, Note_on_c, 0, 60, 55
2, 195728, Note_on_c, 0, 56, 77
2, 195781, Note_on_c, 0, 58, 0
2, 195788, Note_on_c, 0, 70, 0
2, 195856, Note_on_c, 0, 63, 0
2, 195857, Note_on_c, 0, 68, 0
2, 195861, Note_on_c, 0, 60, 0
2, 195874, Control_c, 0, 64, 127
2, 195968, Note_on_c, 0, 56, 0
2, 196025, Note_on_c, 0, 56, 64
2, 196030, Control_c, 0, 64, 0
2, 196031, Note_on_c, 0, 67, 64
2, 196033, Note_on_c, 0, 60, 47
2, 196038, Note_on_c, 0, 63, 47
2, 196039, Note_on_c, 0, 55, 62
2, 196311, Note_on_c, 0, 67, 0
2, 196322, Note_on_c, 0, 56, 0
2, 196373, Note_on_c, 0, 56, 33
2, 196374, Note_on_c, 0, 65, 55
2, 196384, Note_on_c, 0, 55, 0
2, 196395, Note_on_c, 0, 53, 45
2, 196472, Control_c, 0, 64, 127
2, 196687, Note_on_c, 0, 60, 0
2, 196754, Note_on_c, 0, 56, 0
2, 196850, Note_on_c, 0, 53, 0
2, 196878, Note_on_c, 0, 65, 0
2, 196892, Note_on_c, 0, 63, 0
2, 196915, Control_c, 0, 64, 0
2, 196927, Note_on_c, 0, 56, 49
2, 196928, Note_on_c, 0, 60, 44
2, 196944, Note_on_c, 0, 48, 43
2, 197058, Control_c, 0, 64, 127
2, 197221, Note_on_c, 0, 56, 0
2, 197333, Note_on_c, 0, 48, 0
2, 197408, Note_on_c, 0, 56, 44
2, 197429, Note_on_c, 0, 60, 0
2, 197501, Note_on_c, 0, 56, 0
2, 197781, Control_c, 0, 64, 0
2, 197822, Note_on_c, 0, 53, 47
2, 197833, Note_on_c, 0, 57, 44
2, 197835, Note_on_c, 0, 62, 45
2, 197839, Note_on_c, 0, 50, 37
2, 197843, Note_on_c, 0, 60, 38
2, 198195, Control_c, 0, 64, 127
2, 198394, Note_on_c, 0, 53, 0
2, 198446, Note_on_c, 0, 60, 0
2, 198462, Note_on_c, 0, 57, 0
2, 198501, Note_on_c, 0, 62, 0
2, 198529, Note_on_c, 0, 50, 0
2, 198744, Control_c, 0, 64, 0
2, 198779, Note_on_c, 0, 63, 46
2, 198786, Note_on_c, 0, 56, 53
2, 198802, Note_on_c, 0, 59, 56
2, 198803, Note_on_c, 0, 43, 35
2, 198820, Note_on_c, 0, 53, 20
2, 199012, Note_on_c, 0, 53, 0
2, 199013, Control_c, 0, 64, 127
2, 199125, Note_on_c, 0, 43, 0
2, 199170, Note_on_c, 0, 63, 0
2, 199206, Note_on_c, 0, 59, 0
2, 199318, Note_on_c, 0, 56, 0
2, 199665, Control_c, 0, 64, 0
2, 199737, Note_on_c, 0, 58, 48
2, 199739, Note_on_c, 0, 54, 52
2, 199741, Note_on_c, 0, 60, 49
2, 199754, Note_on_c, 0, 32, 43
2, 199756, Note_on_c, 0, 44, 32
2, 199848, Note_on_c, 0, 54, 0
2, 199850, Note_on_c, 0, 32, 0
2, 199861, Control_c, 0, 64, 127
2, 199886, Note_on_c, 0, 60, 0
2, 199902, Note_on_c, 0, 44, 0
2, 199906, Note_on_c, 0, 58, 0
2, 200300, Note_on_c, 0, 84, 80
2, 200301, Note_on_c, 0, 80, 67
2, 200303, Note_on_c, 0, 77, 75
2, 200308, Note_on_c, 0, 54, 55
2, 200309, Note_on_c, 0, 72, 74
2, 200312, Note_on_c, 0, 65, 67
2, 200317, Note_on_c, 0, 60, 51
2, 200318, Note_on_c, 0, 58, 62
2, 200601, Note_on_c, 0, 72, 0
2, 200612, Note_on_c, 0, 77, 0
2, 200633, Note_on_c, 0, 80, 0
2, 200634, Note_on_c, 0, 60, 0
2, 200642, Note_on_c, 0, 65, 0
2, 200646, Note_on_c, 0, 54, 0
2, 200647, Note_on_c, 0, 84, 0
2, 200660, Note_on_c, 0, 58, 0
2, 200767, Note_on_c, 0, 80, 60
2, 200770, Note_on_c, 0, 84, 75
2, 200775, Note_on_c, 0, 77, 71
2, 200776, Note_on_c, 0, 58, 57
2, 200777, Note_on_c, 0, 54, 64
2, 200778, Note_on_c, 0, 65, 69
2, 200784, Note_on_c, 0, 60, 52
2, 200785, Note_on_c, 0, 72, 62
2, 200962, Note_on_c, 0, 77, 0
2, 200970, Note_on_c, 0, 72, 0
2, 201010, Note_on_c, 0, 84, 0
2, 201027, Note_on_c, 0, 80, 0
2, 201049, Note_on_c, 0, 60, 0
2, 201053, Note_on_c, 0, 65, 0
2, 201060, Note_on_c, 0, 54, 0
2, 201061, Note_on_c, 0, 58, 0
2, 201736, Control_c, 0, 64, 0
2, 202135, Note_on_c, 0, 58, 73
2, 202139, Note_on_c, 0, 52, 71
2, 202142, Note_on_c, 0, 63, 79
2, 202148, Note_on_c, 0, 82, 82
2, 202149, Note_on_c, 0, 87, 78
2, 202150, Note_on_c, 0, 75, 83
2, 202276, Control_c, 0, 64, 127
2, 202490, Note_on_c, 0, 52, 0
2, 202493, Note_on_c, 0, 75, 0
2, 202506, Note_on_c, 0, 87, 0
2, 202514, Note_on_c, 0, 82, 0
2, 202530, Note_on_c, 0, 63, 0
2, 202538, Note_on_c, 0, 58, 0
2, 202650, Note_on_c, 0, 63, 67
2, 202657, Note_on_c, 0, 58, 62
2, 202658, Note_on_c, 0, 87, 63
2, 202659, Note_on_c, 0, 75, 64
2, 202665, Note_on_c, 0, 82, 64
2, 202669, Note_on_c, 0, 52, 51
2, 202813, Note_on_c, 0, 87, 0
2, 202852, Note_on_c, 0, 75, 0
2, 202876, Note_on_c, 0, 82, 0
2, 202881, Note_on_c, 0, 58, 0
2, 202910, Note_on_c, 0, 52, 0
2, 202919, Note_on_c, 0, 63, 0
2, 203122, Note_on_c, 0, 58, 56
2, 203124, Note_on_c, 0, 63, 48
2, 203128, Note_on_c, 0, 85, 62
2, 203128, Note_on_c, 0, 73, 50
2, 203137, Note_on_c, 0, 80, 53
2, 203266, Note_on_c, 0, 58, 0
2, 203283, Note_on_c, 0, 63, 0
2, 203306, Note_on_c, 0, 73, 0
2, 203313, Note_on_c, 0, 85, 0
2, 203334, Note_on_c, 0, 80, 0
2, 203616, Note_on_c, 0, 84, 75
2, 203618, Note_on_c, 0, 72, 64
2, 203622, Note_on_c, 0, 53, 66
2, 203627, Control_c, 0, 64, 0
2, 203877, Control_c, 0, 64, 127
2, 203981, Note_on_c, 0, 84, 0
2, 204082, Note_on_c, 0, 72, 0
2, 204099, Note_on_c, 0, 60, 48
2, 204341, Note_on_c, 0, 60, 0
2, 204551, Note_on_c, 0, 60, 54
2, 204569, Note_on_c, 0, 53, 0
2, 205031, Note_on_c, 0, 63, 46
2, 205097, Note_on_c, 0, 60, 0
2, 205400, Note_on_c, 0, 63, 0
2, 205494, Control_c, 0, 64, 0
2, 205495, Note_on_c, 0, 56, 33
2, 205512, Note_on_c, 0, 62, 53
2, 205513, Note_on_c, 0, 59, 49
2, 205523, Note_on_c, 0, 53, 31
2, 205536, Note_on_c, 0, 43, 27
2, 205908, Control_c, 0, 64, 127
2, 205921, Note_on_c, 0, 56, 0
2, 206008, Note_on_c, 0, 59, 0
2, 206022, Note_on_c, 0, 56, 37
2, 206063, Note_on_c, 0, 62, 0
2, 206146, Note_on_c, 0, 56, 0
2, 206271, Note_on_c, 0, 59, 58
2, 206311, Note_on_c, 0, 43, 0
2, 206312, Note_on_c, 0, 59, 0
2, 206406, Note_on_c, 0, 53, 0
2, 206542, Note_on_c, 0, 71, 76
2, 206615, Note_on_c, 0, 71, 0
2, 206804, Note_on_c, 0, 74, 108
2, 206945, Note_on_c, 0, 74, 0
2, 207044, Note_on_c, 0, 77, 96
2, 207214, Note_on_c, 0, 77, 0
2, 207283, Control_c, 0, 64, 0
2, 207297, Note_on_c, 0, 75, 77
2, 207311, Note_on_c, 0, 67, 55
2, 207317, Note_on_c, 0, 63, 40
2, 207322, Note_on_c, 0, 60, 42
2, 207336, Note_on_c, 0, 62, 45
2, 207491, Note_on_c, 0, 67, 0
2, 207559, Note_on_c, 0, 75, 0
2, 207579, Note_on_c, 0, 67, 42
2, 207781, Note_on_c, 0, 67, 0
2, 207805, Note_on_c, 0, 74, 72
2, 207937, Control_c, 0, 64, 127
2, 207975, Note_on_c, 0, 62, 0
2, 207996, Note_on_c, 0, 74, 0
2, 208049, Note_on_c, 0, 63, 0
2, 208054, Note_on_c, 0, 72, 50
2, 208101, Note_on_c, 0, 74, 19
2, 208323, Control_c, 0, 64, 0
2, 208328, Note_on_c, 0, 72, 0
2, 208338, Note_on_c, 0, 63, 25
2, 208357, Note_on_c, 0, 74, 0
2, 208371, Note_on_c, 0, 67, 36
2, 208595, Note_on_c, 0, 67, 0
2, 208692, Note_on_c, 0, 67, 40
2, 208775, Control_c, 0, 64, 127
2, 208847, Note_on_c, 0, 67, 0
2, 209016, Note_on_c, 0, 67, 37
2, 209068, Note_on_c, 0, 63, 0
2, 209122, Note_on_c, 0, 67, 0
2, 209297, Note_on_c, 0, 67, 34
2, 209305, Control_c, 0, 64, 0
2, 209314, Note_on_c, 0, 63, 15
2, 209813, Note_on_c, 0, 81, 43
2, 209882, Note_on_c, 0, 82, 45
2, 209921, Note_on_c, 0, 82, 0
2, 209931, Note_on_c, 0, 83, 55
2, 209976, Note_on_c, 0, 81, 0
2, 210039, Note_on_c, 0, 67, 0
2, 210053, Note_on_c, 0, 83, 0
2, 210121, Note_on_c, 0, 63, 0
2, 210148, Note_on_c, 0, 86, 82
2, 210152, Note_on_c, 0, 74, 80
2, 210249, Control_c, 0, 64, 127
2, 210334, Note_on_c, 0, 86, 0
2, 210336, Note_on_c, 0, 74, 0
2, 210344, Control_c, 0, 64, 0
2, 210369, Note_on_c, 0, 63, 48
2, 210375, Note_on_c, 0, 67, 38
2, 210519, Note_on_c, 0, 86, 77
2, 210524, Note_on_c, 0, 74, 80
2, 210576, Control_c, 0, 64, 127
2, 210652, Note_on_c, 0, 74, 0
2, 210658, Note_on_c, 0, 86, 0
2, 210843, Note_on_c, 0, 75, 69
2, 210844, Note_on_c, 0, 87, 71
2, 210967, Note_on_c, 0, 87, 0
2, 210972, Note_on_c, 0, 67, 0
2, 210982, Note_on_c, 0, 75, 0
2, 211030, Note_on_c, 0, 60, 0
2, 211085, Note_on_c, 0, 63, 0
2, 211110, Note_on_c, 0, 87, 64
2, 211118, Note_on_c, 0, 75, 56
2, 211248, Control_c, 0, 64, 0
2, 211270, Note_on_c, 0, 67, 41
2, 211273, Note_on_c, 0, 63, 40
2, 211278, Note_on_c, 0, 75, 0
2, 211287, Note_on_c, 0, 59, 34
2, 211304, Note_on_c, 0, 87, 0
2, 211363, Note_on_c, 0, 77, 61
2, 211368, Note_on_c, 0, 89, 60
2, 211529, Note_on_c, 0, 89, 0
2, 211537, Note_on_c, 0, 77, 0
2, 211584, Control_c, 0, 64, 127
2, 211650, Note_on_c, 0, 89, 61
2, 211651, Note_on_c, 0, 77, 57
2, 211771, Note_on_c, 0, 77, 0
2, 211783, Note_on_c, 0, 67, 0
2, 211793, Note_on_c, 0, 89, 0
2, 211834, Note_on_c, 0, 59, 0
2, 211836, Note_on_c, 0, 63, 0
2, 211900, Note_on_c, 0, 67, 38
2, 211900, Note_on_c, 0, 59, 37
2, 211902, Note_on_c, 0, 63, 32
2, 211918, Note_on_c, 0, 79, 64
2, 211919, Note_on_c, 0, 91, 69
2, 212141, Note_on_c, 0, 79, 0
2, 212170, Note_on_c, 0, 67, 0
2, 212184, Note_on_c, 0, 91, 0
2, 212192, Note_on_c, 0, 63, 0
2, 212193, Note_on_c, 0, 59, 0
2, 212278, Control_c, 0, 64, 0
2, 212284, Note_on_c, 0, 59, 53
2, 212285, Note_on_c, 0, 63, 42
2, 212289, Note_on_c, 0, 91, 60
2, 212298, Note_on_c, 0, 67, 32
2, 212299, Note_on_c, 0, 79, 50
2, 212364, Control_c, 0, 64, 127
2, 212465, Note_on_c, 0, 79, 0
2, 212507, Note_on_c, 0, 67, 0
2, 212530, Note_on_c, 0, 91, 0
2, 212530, Note_on_c, 0, 59, 0
2, 212572, Note_on_c, 0, 63, 0
2, 212812, Note_on_c, 0, 63, 69
2, 212813, Note_on_c, 0, 98, 78
2, 212813, Note_on_c, 0, 59, 68
2, 212818, Note_on_c, 0, 67, 62
2, 212819, Note_on_c, 0, 91, 84
2, 213073, Note_on_c, 0, 59, 0
2, 213091, Note_on_c, 0, 67, 0
2, 213113, Note_on_c, 0, 91, 0
2, 213115, Note_on_c, 0, 63, 0
2, 213138, Note_on_c, 0, 98, 0
2, 213174, Control_c, 0, 64, 0
2, 213206, Note_on_c, 0, 86, 56
2, 213208, Note_on_c, 0, 95, 71
2, 213209, Note_on_c, 0, 91, 51
2, 213210, Note_on_c, 0, 63, 57
2, 213211, Note_on_c, 0, 59, 68
2, 213212, Note_on_c, 0, 67, 57
2, 213340, Control_c, 0, 64, 127
2, 213471, Note_on_c, 0, 95, 0
2, 213483, Note_on_c, 0, 91, 0
2, 213513, Note_on_c, 0, 86, 0
2, 213589, Note_on_c, 0, 67, 0
2, 213641, Note_on_c, 0, 63, 0
2, 213830, Note_on_c, 0, 59, 0
2, 214616, Note_on_c, 0, 59, 40
2, 214631, Note_on_c, 0, 67, 28
2, 214637, Note_on_c, 0, 63, 29
2, 214738, Note_on_c, 0, 59, 0
2, 214803, Note_on_c, 0, 67, 0
2, 214977, Note_on_c, 0, 63, 0
2, 215119, Note_on_c, 0, 67, 41
2, 215120, Control_c, 0, 64, 0
2, 215130, Note_on_c, 0, 63, 17
2, 215141, Note_on_c, 0, 58, 34
2, 215610, Note_on_c, 0, 75, 82
2, 215760, Note_on_c, 0, 75, 0
2, 215762, Note_on_c, 0, 77, 50
2, 215843, Note_on_c, 0, 75, 40
2, 215857, Note_on_c, 0, 67, 0
2, 215880, Note_on_c, 0, 77, 0
2, 215984, Note_on_c, 0, 75, 0
2, 215998, Note_on_c, 0, 74, 57
2, 216001, Note_on_c, 0, 63, 0
2, 216232, Note_on_c, 0, 74, 0
2, 216282, Note_on_c, 0, 75, 69
2, 216309, Note_on_c, 0, 63, 46
2, 216311, Note_on_c, 0, 67, 41
2, 216334, Control_c, 0, 64, 127
2, 216395, Note_on_c, 0, 75, 0
2, 216497, Note_on_c, 0, 67, 0
2, 216522, Note_on_c, 0, 77, 70
2, 216576, Note_on_c, 0, 63, 0
2, 216602, Note_on_c, 0, 58, 0
2, 216666, Note_on_c, 0, 77, 0
2, 216751, Note_on_c, 0, 82, 80
2, 216890, Note_on_c, 0, 82, 0
2, 216989, Control_c, 0, 64, 0
2, 217008, Note_on_c, 0, 60, 42
2, 217009, Note_on_c, 0, 63, 53
2, 217010, Note_on_c, 0, 55, 55
2, 217019, Note_on_c, 0, 86, 74
2, 217019, Note_on_c, 0, 74, 74
2, 217021, Note_on_c, 0, 57, 51
2, 217022, Note_on_c, 0, 81, 68
2, 217204, Control_c, 0, 64, 127
2, 217237, Note_on_c, 0, 86, 0
2, 217260, Note_on_c, 0, 55, 0
2, 217268, Note_on_c, 0, 63, 0
2, 217269, Note_on_c, 0, 74, 0
2, 217288, Note_on_c, 0, 81, 0
2, 217294, Note_on_c, 0, 57, 0
2, 217312, Note_on_c, 0, 60, 0
2, 217367, Note_on_c, 0, 63, 53
2, 217375, Note_on_c, 0, 84, 71
2, 217379, Note_on_c, 0, 57, 51
2, 217380, Note_on_c, 0, 72, 49
2, 217384, Note_on_c, 0, 60, 44
2, 217409, Note_on_c, 0, 55, 36
2, 217416, Note_on_c, 0, 80, 15
2, 217421, Note_on_c, 0, 81, 24
2, 217471, Note_on_c, 0, 72, 0
2, 217483, Note_on_c, 0, 55, 0
2, 217485, Note_on_c, 0, 80, 0
2, 217489, Note_on_c, 0, 81, 0
2, 217505, Note_on_c, 0, 84, 0
2, 217553, Note_on_c, 0, 63, 0
2, 217595, Note_on_c, 0, 57, 0
2, 217787, Note_on_c, 0, 60, 0
2, 217905, Control_c, 0, 64, 0
2, 217962, Note_on_c, 0, 63, 71
2, 217967, Note_on_c, 0, 60, 47
2, 217968, Note_on_c, 0, 89, 81
2, 217970, Note_on_c, 0, 55, 60
2, 217972, Note_on_c, 0, 57, 58
2, 217973, Note_on_c, 0, 84, 85
2, 217973, Note_on_c, 0, 77, 80
2, 218091, Control_c, 0, 64, 127
2, 218243, Note_on_c, 0, 89, 0
2, 218272, Note_on_c, 0, 55, 0
2, 218294, Note_on_c, 0, 63, 0
2, 218295, Note_on_c, 0, 84, 0
2, 218298, Note_on_c, 0, 77, 0
2, 218309, Note_on_c, 0, 57, 0
2, 218328, Note_on_c, 0, 60, 0
2, 218462, Note_on_c, 0, 63, 62
2, 218468, Note_on_c, 0, 87, 71
2, 218469, Note_on_c, 0, 55, 50
2, 218475, Note_on_c, 0, 60, 39
2, 218476, Note_on_c, 0, 75, 74
2, 218480, Note_on_c, 0, 82, 72
2, 218585, Note_on_c, 0, 55, 0
2, 218610, Note_on_c, 0, 82, 0
2, 218617, Note_on_c, 0, 63, 0
2, 218619, Note_on_c, 0, 87, 0
2, 218624, Note_on_c, 0, 75, 0
2, 218664, Note_on_c, 0, 60, 0
2, 218936, Control_c, 0, 64, 0
2, 218956, Note_on_c, 0, 84, 77
2, 218958, Note_on_c, 0, 60, 60
2, 218959, Note_on_c, 0, 77, 70
2, 218961, Note_on_c, 0, 54, 68
2, 218966, Note_on_c, 0, 72, 64
2, 218968, Note_on_c, 0, 65, 65
2, 219235, Control_c, 0, 64, 127
2, 219557, Note_on_c, 0, 65, 0
2, 219648, Note_on_c, 0, 54, 0
2, 219656, Note_on_c, 0, 60, 0
2, 219764, Note_on_c, 0, 84, 0
2, 219925, Note_on_c, 0, 77, 0
2, 219927, Note_on_c, 0, 72, 0
2, 220375, Note_on_c, 0, 67, 73
2, 220734, Note_on_c, 0, 67, 0
2, 220746, Note_on_c, 0, 43, 57
2, 220843, Control_c, 0, 64, 0
2, 220849, Note_on_c, 0, 59, 66
2, 220855, Note_on_c, 0, 63, 60
2, 220888, Note_on_c, 0, 67, 71
2, 220892, Note_on_c, 0, 53, 65
2, 220912, Note_on_c, 0, 70, 72
2, 221084, Control_c, 0, 64, 127
2, 221284, Note_on_c, 0, 70, 0
2, 221333, Note_on_c, 0, 67, 0
2, 221371, Note_on_c, 0, 53, 0
2, 221384, Note_on_c, 0, 59, 0
2, 221388, Note_on_c, 0, 70, 71
2, 221413, Note_on_c, 0, 43, 0
2, 221525, Note_on_c, 0, 70, 0
2, 221561, Note_on_c, 0, 63, 0
2, 221814, Control_c, 0, 64, 0
2, 221853, Note_on_c, 0, 68, 60
2, 221855, Note_on_c, 0, 61, 56
2, 221861, Note_on_c, 0, 58, 59
2, 221862, Note_on_c, 0, 42, 43
2, 221872, Note_on_c, 0, 52, 43
2, 221873, Note_on_c, 0, 64, 58
2, 222055, Control_c, 0, 64, 127
2, 222206, Note_on_c, 0, 68, 0
2, 222280, Note_on_c, 0, 52, 0
2, 222287, Note_on_c, 0, 64, 0
2, 222304, Note_on_c, 0, 58, 0
2, 222336, Note_on_c, 0, 42, 0
2, 222337, Note_on_c, 0, 68, 62
2, 222402, Note_on_c, 0, 61, 0
2, 222449, Note_on_c, 0, 68, 0
2, 222728, Control_c, 0, 64, 0
2, 222745, Note_on_c, 0, 56, 73
2, 222764, Note_on_c, 0, 63, 73
2, 222781, Note_on_c, 0, 41, 53
2, 222789, Note_on_c, 0, 70, 69
2, 223305, Control_c, 0, 64, 127
2, 223307, Note_on_c, 0, 48, 53
2, 223692, Note_on_c, 0, 56, 0
2, 223810, Note_on_c, 0, 55, 41
2, 224064, Note_on_c, 0, 70, 0
2, 224082, Note_on_c, 0, 41, 0
2, 224094, Note_on_c, 0, 63, 0
2, 224100, Note_on_c, 0, 55, 0
2, 224109, Note_on_c, 0, 48, 0
2, 224125, Note_on_c, 0, 56, 57
2, 224331, Note_on_c, 0, 56, 0
2, 224427, Note_on_c, 0, 63, 48
2, 224641, Note_on_c, 0, 63, 0
2, 224731, Control_c, 0, 64, 0
2, 224764, Note_on_c, 0, 56, 38
2, 224765, Note_on_c, 0, 62, 47
2, 224773, Note_on_c, 0, 46, 26
2, 225048, Control_c, 0, 64, 127
2, 225227, Note_on_c, 0, 62, 0
2, 225337, Note_on_c, 0, 62, 33
2, 225446, Note_on_c, 0, 62, 0
2, 225481, Control_c, 0, 64, 0
2, 225523, Note_on_c, 0, 63, 55
2, 225607, Note_on_c, 0, 63, 0
2, 225910, Note_on_c, 0, 64, 24
2, 225997, Note_on_c, 0, 64, 0
2, 226040, Control_c, 0, 64, 127
2, 226101, Note_on_c, 0, 46, 0
2, 226141, Note_on_c, 0, 56, 0
2, 226181, Note_on_c, 0, 66, 57
2, 226490, Control_c, 0, 64, 0
2, 226495, Note_on_c, 0, 66, 0
2, 226544, Note_on_c, 0, 68, 36
2, 226557, Note_on_c, 0, 59, 28
2, 226564, Note_on_c, 0, 52, 33
2, 226853, Note_on_c, 0, 68, 0
2, 226882, Note_on_c, 0, 64, 33
2, 226935, Note_on_c, 0, 64, 0
2, 227045, Note_on_c, 0, 66, 30
2, 227117, Note_on_c, 0, 66, 0
2, 227171, Note_on_c, 0, 68, 38
2, 227213, Note_on_c, 0, 68, 0
2, 227312, Note_on_c, 0, 71, 58
2, 227372, Note_on_c, 0, 71, 0
2, 227460, Note_on_c, 0, 73, 46
2, 227527, Note_on_c, 0, 73, 0
2, 227609, Note_on_c, 0, 76, 55
2, 227668, Note_on_c, 0, 76, 0
2, 227758, Note_on_c, 0, 78, 50
2, 227834, Note_on_c, 0, 78, 0
2, 227920, Note_on_c, 0, 80, 45
2, 227955, Note_on_c, 0, 80, 0
2, 228073, Note_on_c, 0, 83, 49
2, 228129, Note_on_c, 0, 83, 0
2, 228216, Note_on_c, 0, 85, 50
2, 228321, Note_on_c, 0, 85, 0
2, 228375, Note_on_c, 0, 88, 55
2, 228479, Note_on_c, 0, 88, 0
2, 228527, Note_on_c, 0, 83, 43
2, 228603, Note_on_c, 0, 83, 0
2, 228678, Note_on_c, 0, 85, 59
2, 228838, Note_on_c, 0, 85, 0
2, 228848, Note_on_c, 0, 80, 37
2, 228952, Note_on_c, 0, 80, 0
2, 229002, Note_on_c, 0, 83, 59
2, 229129, Note_on_c, 0, 83, 0
2, 229194, Note_on_c, 0, 76, 35
2, 229261, Note_on_c, 0, 76, 0
2, 229350, Note_on_c, 0, 80, 52
2, 229475, Control_c, 0, 64, 127
2, 229526, Note_on_c, 0, 80, 0
2, 229568, Note_on_c, 0, 76, 34
2, 229639, Note_on_c, 0, 76, 0
2, 229704, Note_on_c, 0, 52, 0
2, 229739, Note_on_c, 0, 78, 53
2, 229906, Note_on_c, 0, 78, 0
2, 229949, Note_on_c, 0, 74, 35
2, 230005, Note_on_c, 0, 74, 0
2, 230079, Note_on_c, 0, 75, 52
2, 230192, Note_on_c, 0, 59, 0
2, 230235, Note_on_c, 0, 75, 0
2, 230426, Control_c, 0, 64, 0
2, 230477, Note_on_c, 0, 51, 34
2, 230482, Note_on_c, 0, 74, 39
2, 230488, Note_on_c, 0, 79, 24
2, 230743, Control_c, 0, 64, 127
2, 230752, Note_on_c, 0, 79, 0
2, 230753, Note_on_c, 0, 74, 0
2, 230765, Note_on_c, 0, 67, 40
2, 230795, Note_on_c, 0, 58, 31
2, 231031, Note_on_c, 0, 70, 53
2, 231046, Note_on_c, 0, 67, 0
2, 231304, Note_on_c, 0, 70, 0
2, 231378, Note_on_c, 0, 72, 76
2, 231383, Note_on_c, 0, 62, 41
2, 231586, Note_on_c, 0, 72, 0
2, 231685, Note_on_c, 0, 74, 91
2, 231687, Note_on_c, 0, 62, 0
2, 231835, Note_on_c, 0, 74, 0
2, 231899, Note_on_c, 0, 51, 0
2, 231916, Note_on_c, 0, 58, 0
2, 231957, Control_c, 0, 64, 0
2, 232003, Note_on_c, 0, 58, 59
2, 232005, Note_on_c, 0, 75, 80
2, 232018, Note_on_c, 0, 70, 77
2, 232023, Note_on_c, 0, 51, 36
2, 232044, Control_c, 0, 64, 127
2, 232213, Note_on_c, 0, 70, 0
2, 232297, Note_on_c, 0, 75, 0
2, 232323, Control_c, 0, 64, 0
2, 232349, Note_on_c, 0, 70, 79
2, 232353, Note_on_c, 0, 77, 67
2, 232360, Note_on_c, 0, 65, 74
2, 232363, Note_on_c, 0, 60, 59
2, 232373, Note_on_c, 0, 76, 50
2, 232397, Note_on_c, 0, 58, 0
2, 232457, Control_c, 0, 64, 127
2, 232537, Note_on_c, 0, 70, 0
2, 232541, Note_on_c, 0, 65, 0
2, 232567, Note_on_c, 0, 77, 0
2, 232600, Note_on_c, 0, 60, 0
2, 232625, Note_on_c, 0, 76, 0
2, 232699, Control_c, 0, 64, 0
2, 232714, Note_on_c, 0, 79, 74
2, 232716, Note_on_c, 0, 74, 75
2, 232719, Note_on_c, 0, 67, 75
2, 232721, Note_on_c, 0, 62, 69
2, 232788, Note_on_c, 0, 51, 0
2, 232805, Control_c, 0, 64, 127
2, 233088, Note_on_c, 0, 67, 0
2, 233100, Note_on_c, 0, 79, 0
2, 233165, Note_on_c, 0, 74, 0
2, 233249, Note_on_c, 0, 62, 0
2, 233352, Note_on_c, 0, 80, 64
2, 233357, Note_on_c, 0, 68, 63
2, 233358, Note_on_c, 0, 74, 71
2, 233528, Note_on_c, 0, 68, 0
2, 233551, Note_on_c, 0, 74, 0
2, 233563, Note_on_c, 0, 80, 0
2, 233874, Note_on_c, 0, 82, 62
2, 233879, Note_on_c, 0, 70, 54
2, 234007, Note_on_c, 0, 70, 0
2, 234034, Note_on_c, 0, 82, 0
2, 234133, Control_c, 0, 64, 0
2, 234242, Note_on_c, 0, 27, 36
2, 234298, Note_on_c, 0, 55, 40
2, 234309, Note_on_c, 0, 82, 64
2, 234311, Note_on_c, 0, 65, 29
2, 234317, Note_on_c, 0, 60, 24
2, 234324, Note_on_c, 0, 27, 0
2, 234342, Note_on_c, 0, 55, 0
2, 234352, Note_on_c, 0, 65, 0
2, 234352, Note_on_c, 0, 60, 0
2, 234584, Note_on_c, 0, 82, 0
2, 234610, Note_on_c, 0, 84, 50
2, 234663, Note_on_c, 0, 82, 30
2, 234714, Note_on_c, 0, 84, 0
2, 234792, Note_on_c, 0, 81, 45
2, 234874, Note_on_c, 0, 82, 0
2, 235084, Note_on_c, 0, 82, 56
2, 235086, Note_on_c, 0, 81, 0
2, 235176, Note_on_c, 0, 82, 0
2, 235249, Note_on_c, 0, 91, 64
2, 235272, Note_on_c, 0, 65, 26
2, 235273, Note_on_c, 0, 55, 28
2, 235308, Note_on_c, 0, 65, 0
2, 235313, Note_on_c, 0, 55, 0
2, 235484, Note_on_c, 0, 91, 0
2, 235563, Note_on_c, 0, 91, 46
2, 235644, Note_on_c, 0, 91, 0
2, 236174, Note_on_c, 0, 65, 30
2, 236189, Note_on_c, 0, 60, 22
2, 236191, Note_on_c, 0, 55, 26
2, 236241, Note_on_c, 0, 60, 0
2, 236243, Note_on_c, 0, 65, 0
2, 236258, Note_on_c, 0, 55, 0
2, 236901, Note_on_c, 0, 65, 51
2, 236925, Note_on_c, 0, 60, 33
2, 236966, Note_on_c, 0, 60, 0
2, 236971, Note_on_c, 0, 65, 0
2, 238072, Note_on_c, 0, 62, 34
2, 238097, Note_on_c, 0, 59, 40
2, 238105, Note_on_c, 0, 55, 36
2, 238107, Note_on_c, 0, 51, 26
2, 238287, Note_on_c, 0, 59, 0
2, 238295, Note_on_c, 0, 62, 0
2, 238323, Note_on_c, 0, 55, 0
2, 238323, Note_on_c, 0, 51, 0
2, 238622, Note_on_c, 0, 74, 90
2, 238779, Note_on_c, 0, 74, 0
2, 238925, Note_on_c, 0, 62, 68
2, 238936, Note_on_c, 0, 51, 23
2, 238972, Note_on_c, 0, 55, 24
2, 238988, Note_on_c, 0, 51, 0
2, 239032, Note_on_c, 0, 55, 0
2, 239034, Note_on_c, 0, 62, 0
2, 239165, Note_on_c, 0, 67, 32
2, 239312, Note_on_c, 0, 67, 0
2, 239337, Note_on_c, 0, 74, 75
2, 239413, Note_on_c, 0, 74, 0
2, 239485, Note_on_c, 0, 79, 68
2, 239501, Note_on_c, 0, 77, 49
2, 239544, Note_on_c, 0, 77, 0
2, 239563, Note_on_c, 0, 79, 0
2, 239643, Note_on_c, 0, 83, 64
2, 239736, Note_on_c, 0, 83, 0
2, 239801, Note_on_c, 0, 86, 79
2, 239815, Note_on_c, 0, 74, 70
2, 239947, Note_on_c, 0, 74, 0
2, 239948, Note_on_c, 0, 86, 0
2, 240045, Note_on_c, 0, 62, 42
2, 240071, Note_on_c, 0, 59, 42
2, 240081, Note_on_c, 0, 51, 21
2, 240082, Note_on_c, 0, 55, 47
2, 240083, Note_on_c, 0, 86, 82
2, 240085, Note_on_c, 0, 74, 81
2, 240365, Note_on_c, 0, 74, 0
2, 240402, Note_on_c, 0, 86, 0
2, 240510, Note_on_c, 0, 62, 0
2, 240515, Note_on_c, 0, 83, 60
2, 240521, Note_on_c, 0, 82, 46
2, 240545, Note_on_c, 0, 86, 57
2, 240557, Note_on_c, 0, 59, 0
2, 240607, Note_on_c, 0, 55, 0
2, 240643, Note_on_c, 0, 86, 0
2, 240662, Note_on_c, 0, 82, 0
2, 240681, Note_on_c, 0, 83, 0
2, 240843, Note_on_c, 0, 62, 51
2, 240846, Note_on_c, 0, 79, 81
2, 240854, Note_on_c, 0, 86, 74
2, 240861, Note_on_c, 0, 59, 32
2, 240889, Note_on_c, 0, 55, 26
2, 240958, Note_on_c, 0, 62, 0
2, 240995, Note_on_c, 0, 59, 0
2, 241009, Note_on_c, 0, 79, 0
2, 241018, Note_on_c, 0, 55, 0
2, 241039, Note_on_c, 0, 86, 0
2, 241104, Note_on_c, 0, 83, 64
2, 241235, Note_on_c, 0, 83, 0
2, 241324, Note_on_c, 0, 79, 70
2, 241326, Note_on_c, 0, 62, 56
2, 241331, Note_on_c, 0, 59, 38
2, 241367, Note_on_c, 0, 55, 22
2, 241423, Note_on_c, 0, 55, 0
2, 241425, Note_on_c, 0, 51, 0
2, 241459, Note_on_c, 0, 79, 0
2, 241460, Note_on_c, 0, 59, 0
2, 241533, Note_on_c, 0, 74, 44
2, 241539, Note_on_c, 0, 62, 0
2, 241670, Note_on_c, 0, 74, 0
2, 241778, Note_on_c, 0, 70, 56
2, 241788, Note_on_c, 0, 60, 38
2, 241797, Note_on_c, 0, 63, 37
2, 241803, Note_on_c, 0, 56, 53
2, 241843, Note_on_c, 0, 63, 0
2, 241904, Note_on_c, 0, 70, 0
2, 241930, Note_on_c, 0, 53, 11
2, 241974, Note_on_c, 0, 68, 64
2, 242095, Note_on_c, 0, 60, 0
2, 242117, Note_on_c, 0, 56, 0
2, 242198, Note_on_c, 0, 68, 0
2, 242245, Note_on_c, 0, 70, 53
2, 242335, Note_on_c, 0, 68, 35
2, 242379, Note_on_c, 0, 53, 0
2, 242395, Note_on_c, 0, 70, 0
2, 242451, Note_on_c, 0, 68, 0
2, 242464, Note_on_c, 0, 67, 35
2, 242677, Note_on_c, 0, 67, 0
2, 242724, Note_on_c, 0, 63, 50
2, 242725, Note_on_c, 0, 68, 60
2, 242737, Note_on_c, 0, 60, 31
2, 242758, Note_on_c, 0, 63, 0
2, 242764, Note_on_c, 0, 56, 36
2, 242778, Note_on_c, 0, 60, 0
2, 242821, Note_on_c, 0, 68, 0
2, 242866, Note_on_c, 0, 56, 0
2, 242967, Note_on_c, 0, 70, 26
2, 243171, Note_on_c, 0, 70, 0
2, 243210, Note_on_c, 0, 72, 56
2, 243336, Note_on_c, 0, 72, 0
2, 243388, Note_on_c, 0, 73, 37
2, 243612, Note_on_c, 0, 73, 0
2, 243682, Note_on_c, 0, 67, 59
2, 243685, Note_on_c, 0, 74, 53
2, 243702, Note_on_c, 0, 62, 40
2, 243735, Note_on_c, 0, 67, 0
2, 243741, Note_on_c, 0, 62, 0
2, 243810, Note_on_c, 0, 74, 0
2, 243882, Note_on_c, 0, 77, 38
2, 244126, Note_on_c, 0, 77, 0
2, 244193, Note_on_c, 0, 79, 32
2, 244287, Note_on_c, 0, 79, 0
2, 244357, Note_on_c, 0, 82, 60
2, 244361, Note_on_c, 0, 70, 57
2, 244395, Note_on_c, 0, 67, 30
2, 244439, Note_on_c, 0, 67, 0
2, 244536, Note_on_c, 0, 70, 0
2, 244578, Note_on_c, 0, 82, 0
2, 244679, Note_on_c, 0, 67, 51
2, 244692, Note_on_c, 0, 62, 37
2, 244719, Note_on_c, 0, 67, 0
2, 244741, Note_on_c, 0, 62, 0
2, 245193, Note_on_c, 0, 62, 69
2, 245201, Note_on_c, 0, 84, 73
2, 245211, Note_on_c, 0, 56, 52
2, 245213, Note_on_c, 0, 72, 50
2, 245216, Note_on_c, 0, 79, 59
2, 245245, Note_on_c, 0, 56, 0
2, 245253, Note_on_c, 0, 72, 0
2, 245278, Note_on_c, 0, 84, 0
2, 245283, Control_c, 0, 64, 127
2, 245298, Note_on_c, 0, 62, 0
2, 245313, Note_on_c, 0, 79, 0
2, 245363, Note_on_c, 0, 66, 80
2, 245363, Note_on_c, 0, 56, 78
2, 245365, Note_on_c, 0, 73, 53
2, 245369, Note_on_c, 0, 62, 61
2, 245370, Note_on_c, 0, 79, 71
2, 245371, Note_on_c, 0, 85, 73
2, 245538, Note_on_c, 0, 79, 0
2, 245566, Note_on_c, 0, 73, 0
2, 245567, Note_on_c, 0, 66, 0
2, 245586, Note_on_c, 0, 56, 0
2, 245591, Note_on_c, 0, 85, 0
2, 245680, Note_on_c, 0, 56, 52
2, 245683, Note_on_c, 0, 66, 61
2, 245687, Note_on_c, 0, 74, 58
2, 245688, Note_on_c, 0, 86, 60
2, 245708, Note_on_c, 0, 82, 27
2, 245724, Note_on_c, 0, 74, 0
2, 245745, Note_on_c, 0, 66, 0
2, 245752, Note_on_c, 0, 82, 0
2, 245763, Note_on_c, 0, 86, 0
2, 245773, Note_on_c, 0, 56, 0
2, 245778, Note_on_c, 0, 62, 0
2, 245831, Note_on_c, 0, 65, 76
2, 245832, Note_on_c, 0, 62, 57
2, 245842, Note_on_c, 0, 89, 84
2, 245843, Note_on_c, 0, 77, 84
2, 245844, Note_on_c, 0, 84, 87
2, 245844, Note_on_c, 0, 55, 71
2, 245850, Note_on_c, 0, 60, 59
2, 245851, Control_c, 0, 64, 0
2, 246148, Note_on_c, 0, 89, 0
2, 246150, Note_on_c, 0, 84, 0
2, 246177, Note_on_c, 0, 55, 0
2, 246183, Note_on_c, 0, 60, 0
2, 246190, Note_on_c, 0, 77, 0
2, 246196, Note_on_c, 0, 65, 0
2, 246205, Note_on_c, 0, 62, 0
2, 246286, Note_on_c, 0, 86, 60
2, 246288, Note_on_c, 0, 65, 43
2, 246293, Note_on_c, 0, 62, 60
2, 246307, Note_on_c, 0, 55, 35
2, 246310, Note_on_c, 0, 81, 47
2, 246318, Note_on_c, 0, 74, 37
2, 246351, Note_on_c, 0, 81, 0
2, 246378, Note_on_c, 0, 86, 0
2, 246380, Control_c, 0, 64, 127
2, 246397, Note_on_c, 0, 65, 0
2, 246401, Note_on_c, 0, 62, 0
2, 246402, Note_on_c, 0, 74, 0
2, 246421, Note_on_c, 0, 55, 0
2, 246602, Control_c, 0, 64, 0
2, 246625, Note_on_c, 0, 82, 50
2, 246639, Note_on_c, 0, 65, 47
2, 246644, Note_on_c, 0, 62, 44
2, 246657, Note_on_c, 0, 70, 35
2, 246658, Note_on_c, 0, 55, 33
2, 246659, Note_on_c, 0, 60, 34
2, 246665, Note_on_c, 0, 77, 29
2, 246705, Note_on_c, 0, 60, 0
2, 246709, Note_on_c, 0, 77, 0
2, 246713, Note_on_c, 0, 65, 0
2, 246719, Note_on_c, 0, 55, 0
2, 246724, Note_on_c, 0, 62, 0
2, 246733, Note_on_c, 0, 70, 0
2, 246735, Note_on_c, 0, 82, 0
2, 246877, Note_on_c, 0, 65, 43
2, 246882, Note_on_c, 0, 79, 37
2, 246890, Control_c, 0, 64, 127
2, 246891, Note_on_c, 0, 62, 39
2, 246900, Note_on_c, 0, 55, 32
2, 246907, Note_on_c, 0, 60, 30
2, 246954, Note_on_c, 0, 67, 7
2, 247053, Control_c, 0, 64, 0
2, 247083, Control_c, 0, 64, 127
2, 247088, Note_on_c, 0, 62, 0
2, 247101, Note_on_c, 0, 67, 0
2, 247103, Note_on_c, 0, 60, 0
2, 247115, Note_on_c, 0, 65, 0
2, 247129, Note_on_c, 0, 79, 0
2, 247148, Note_on_c, 0, 55, 0
2, 247259, Note_on_c, 0, 65, 40
2, 247266, Control_c, 0, 64, 0
2, 247285, Note_on_c, 0, 60, 30
2, 247286, Note_on_c, 0, 62, 24
2, 247336, Note_on_c, 0, 62, 0
2, 247338, Note_on_c, 0, 60, 0
2, 247349, Note_on_c, 0, 65, 0
2, 248115, Note_on_c, 0, 65, 58
2, 248125, Note_on_c, 0, 62, 44
2, 248134, Note_on_c, 0, 60, 31
2, 248162, Note_on_c, 0, 65, 0
2, 248165, Note_on_c, 0, 62, 0
2, 248176, Note_on_c, 0, 60, 0
2, 248583, Note_on_c, 0, 62, 54
2, 248586, Note_on_c, 0, 65, 47
2, 248599, Note_on_c, 0, 60, 31
2, 248628, Note_on_c, 0, 65, 0
2, 248629, Note_on_c, 0, 62, 0
2, 248644, Note_on_c, 0, 60, 0
2, 248748, Note_on_c, 0, 74, 105
2, 248870, Note_on_c, 0, 74, 0
2, 248878, Note_on_c, 0, 75, 49
2, 249001, Note_on_c, 0, 74, 62
2, 249017, Note_on_c, 0, 75, 0
2, 249095, Note_on_c, 0, 65, 30
2, 249098, Note_on_c, 0, 62, 36
2, 249101, Note_on_c, 0, 74, 0
2, 249113, Note_on_c, 0, 60, 24
2, 249115, Note_on_c, 0, 72, 41
2, 249138, Note_on_c, 0, 65, 0
2, 249156, Note_on_c, 0, 62, 0
2, 249159, Note_on_c, 0, 72, 0
2, 249177, Note_on_c, 0, 60, 0
2, 249227, Note_on_c, 0, 74, 88
2, 249376, Note_on_c, 0, 74, 0
2, 249403, Note_on_c, 0, 75, 53
2, 249538, Note_on_c, 0, 75, 0
2, 249567, Note_on_c, 0, 72, 55
2, 249639, Note_on_c, 0, 72, 0
2, 249668, Note_on_c, 0, 63, 37
2, 249710, Note_on_c, 0, 57, 36
2, 249717, Note_on_c, 0, 74, 90
2, 249722, Note_on_c, 0, 55, 29
2, 249775, Note_on_c, 0, 63, 0
2, 249780, Note_on_c, 0, 55, 0
2, 249877, Note_on_c, 0, 57, 0
2, 249925, Note_on_c, 0, 74, 0
2, 249957, Note_on_c, 0, 75, 55
2, 250038, Note_on_c, 0, 74, 41
2, 250102, Note_on_c, 0, 75, 0
2, 250175, Note_on_c, 0, 74, 0
2, 250190, Note_on_c, 0, 72, 29
2, 250357, Note_on_c, 0, 72, 0
2, 250454, Note_on_c, 0, 63, 42
2, 250479, Note_on_c, 0, 67, 57
2, 250491, Note_on_c, 0, 63, 0
2, 250496, Note_on_c, 0, 57, 30
2, 250574, Note_on_c, 0, 67, 0
2, 250676, Note_on_c, 0, 57, 0
2, 250724, Note_on_c, 0, 63, 49
2, 251058, Note_on_c, 0, 63, 0
2, 251069, Note_on_c, 0, 60, 39
2, 251333, Note_on_c, 0, 60, 0
2, 251409, Note_on_c, 0, 62, 53
2, 251459, Note_on_c, 0, 55, 24
2, 251486, Note_on_c, 0, 62, 0
2, 251514, Note_on_c, 0, 55, 0
2, 252338, Note_on_c, 0, 63, 62
2, 252343, Note_on_c, 0, 60, 47
2, 252358, Note_on_c, 0, 57, 45
2, 252360, Note_on_c, 0, 55, 35
2, 252406, Note_on_c, 0, 55, 0
2, 252410, Note_on_c, 0, 63, 0
2, 252462, Note_on_c, 0, 60, 0
2, 252490, Note_on_c, 0, 57, 0
2, 252528, Note_on_c, 0, 89, 103
2, 252670, Note_on_c, 0, 90, 74
2, 252716, Note_on_c, 0, 89, 0
2, 252795, Note_on_c, 0, 90, 0
2, 252849, Note_on_c, 0, 63, 62
2, 252868, Note_on_c, 0, 60, 34
2, 252879, Note_on_c, 0, 55, 29
2, 252896, Note_on_c, 0, 57, 29
2, 252918, Note_on_c, 0, 60, 0
2, 252933, Note_on_c, 0, 63, 0
2, 252938, Note_on_c, 0, 55, 0
2, 252985, Note_on_c, 0, 88, 91
2, 253030, Note_on_c, 0, 57, 0
2, 253117, Note_on_c, 0, 88, 0
2, 253146, Note_on_c, 0, 89, 75
2, 253297, Note_on_c, 0, 89, 0
2, 253305, Note_on_c, 0, 60, 49
2, 253307, Note_on_c, 0, 54, 59
2, 253309, Note_on_c, 0, 64, 60
2, 253343, Note_on_c, 0, 64, 0
2, 253351, Note_on_c, 0, 60, 0
2, 253381, Note_on_c, 0, 54, 0
2, 253441, Note_on_c, 0, 87, 82
2, 253663, Note_on_c, 0, 87, 0
2, 253931, Note_on_c, 0, 86, 91
2, 254125, Note_on_c, 0, 86, 0
2, 254157, Note_on_c, 0, 87, 53
2, 254238, Note_on_c, 0, 86, 59
2, 254285, Note_on_c, 0, 87, 0
2, 254318, Note_on_c, 0, 62, 34
2, 254334, Note_on_c, 0, 54, 23
2, 254367, Note_on_c, 0, 86, 0
2, 254371, Note_on_c, 0, 84, 43
2, 254394, Note_on_c, 0, 62, 0
2, 254399, Note_on_c, 0, 54, 0
2, 254482, Note_on_c, 0, 84, 0
2, 254573, Note_on_c, 0, 82, 64
2, 254703, Note_on_c, 0, 82, 0
2, 254909, Note_on_c, 0, 81, 67
2, 255176, Note_on_c, 0, 81, 0
2, 255235, Note_on_c, 0, 79, 58
2, 255260, Note_on_c, 0, 62, 58
2, 255269, Note_on_c, 0, 54, 46
2, 255271, Note_on_c, 0, 60, 36
2, 255320, Note_on_c, 0, 60, 0
2, 255336, Note_on_c, 0, 62, 0
2, 255342, Note_on_c, 0, 54, 0
2, 255400, Note_on_c, 0, 79, 0
2, 255515, Note_on_c, 0, 78, 37
2, 255684, Note_on_c, 0, 78, 0
2, 255734, Note_on_c, 0, 81, 68
2, 255757, Note_on_c, 0, 78, 27
2, 255805, Note_on_c, 0, 78, 0
2, 255844, Note_on_c, 0, 81, 0
2, 255933, Note_on_c, 0, 75, 51
2, 256225, Note_on_c, 0, 64, 59
2, 256236, Note_on_c, 0, 75, 0
2, 256237, Note_on_c, 0, 54, 37
2, 256242, Note_on_c, 0, 60, 35
2, 256253, Note_on_c, 0, 72, 36
2, 256262, Note_on_c, 0, 64, 0
2, 256296, Note_on_c, 0, 72, 0
2, 256325, Note_on_c, 0, 54, 0
2, 256343, Note_on_c, 0, 60, 0
2, 256405, Note_on_c, 0, 74, 89
2, 256604, Note_on_c, 0, 74, 0
2, 256659, Note_on_c, 0, 75, 57
2, 256708, Note_on_c, 0, 64, 36
2, 256711, Note_on_c, 0, 54, 32
2, 256717, Note_on_c, 0, 74, 46
2, 256723, Note_on_c, 0, 60, 27
2, 256750, Note_on_c, 0, 64, 0
2, 256774, Note_on_c, 0, 54, 0
2, 256780, Note_on_c, 0, 60, 0
2, 256818, Note_on_c, 0, 75, 0
2, 256875, Note_on_c, 0, 72, 46
2, 256884, Note_on_c, 0, 74, 0
2, 257098, Note_on_c, 0, 72, 0
2, 257149, Note_on_c, 0, 70, 52
2, 257182, Note_on_c, 0, 65, 41
2, 257197, Note_on_c, 0, 55, 28
2, 257228, Note_on_c, 0, 65, 0
2, 257249, Note_on_c, 0, 55, 0
2, 257302, Note_on_c, 0, 70, 0
2, 257354, Note_on_c, 0, 69, 59
2, 257369, Note_on_c, 0, 65, 26
2, 257370, Note_on_c, 0, 55, 20
2, 257414, Note_on_c, 0, 60, 19
2, 257420, Note_on_c, 0, 61, 14
2, 257557, Note_on_c, 0, 61, 0
2, 257563, Note_on_c, 0, 55, 0
2, 257574, Note_on_c, 0, 65, 0
2, 257599, Note_on_c, 0, 60, 0
2, 257619, Note_on_c, 0, 69, 0
2, 257769, Note_on_c, 0, 61, 62
2, 257770, Note_on_c, 0, 60, 61
2, 257776, Note_on_c, 0, 65, 67
2, 257777, Note_on_c, 0, 69, 88
2, 257789, Note_on_c, 0, 55, 58
2, 258044, Note_on_c, 0, 55, 0
2, 258050, Note_on_c, 0, 65, 0
2, 258059, Note_on_c, 0, 61, 0
2, 258096, Note_on_c, 0, 70, 75
2, 258104, Note_on_c, 0, 61, 38
2, 258106, Note_on_c, 0, 65, 55
2, 258123, Note_on_c, 0, 55, 46
2, 258156, Note_on_c, 0, 69, 0
2, 258214, Note_on_c, 0, 65, 0
2, 258223, Note_on_c, 0, 55, 0
2, 258227, Control_c, 0, 64, 127
2, 258249, Note_on_c, 0, 60, 0
2, 258266, Note_on_c, 0, 70, 0
2, 258285, Note_on_c, 0, 65, 60
2, 258292, Note_on_c, 0, 60, 18
2, 258294, Note_on_c, 0, 69, 58
2, 258300, Note_on_c, 0, 55, 27
2, 258486, Note_on_c, 0, 55, 0
2, 258493, Note_on_c, 0, 65, 0
2, 258517, Note_on_c, 0, 61, 0
2, 258534, Note_on_c, 0, 60, 0
2, 258586, Note_on_c, 0, 65, 42
2, 258588, Note_on_c, 0, 69, 0
2, 258592, Note_on_c, 0, 61, 51
2, 258593, Note_on_c, 0, 67, 55
2, 258605, Note_on_c, 0, 60, 34
2, 258640, Note_on_c, 0, 67, 0
2, 258649, Control_c, 0, 64, 0
2, 258669, Note_on_c, 0, 65, 0
2, 258693, Note_on_c, 0, 60, 0
2, 258698, Note_on_c, 0, 61, 0
2, 259036, Note_on_c, 0, 69, 91
2, 259045, Note_on_c, 0, 61, 65
2, 259052, Note_on_c, 0, 60, 57
2, 259053, Note_on_c, 0, 65, 68
2, 259072, Note_on_c, 0, 55, 46
2, 259365, Note_on_c, 0, 69, 0
2, 259368, Note_on_c, 0, 70, 57
2, 259392, Note_on_c, 0, 61, 0
2, 259471, Note_on_c, 0, 55, 0
2, 259484, Note_on_c, 0, 69, 46
2, 259495, Note_on_c, 0, 65, 0
2, 259512, Note_on_c, 0, 70, 0
2, 259523, Note_on_c, 0, 61, 33
2, 259600, Note_on_c, 0, 67, 48
2, 259603, Note_on_c, 0, 69, 0
2, 259638, Note_on_c, 0, 61, 0
2, 259662, Note_on_c, 0, 67, 0
2, 259668, Note_on_c, 0, 60, 0
2, 259720, Note_on_c, 0, 61, 72
2, 259721, Note_on_c, 0, 60, 55
2, 259723, Note_on_c, 0, 65, 73
2, 259727, Note_on_c, 0, 69, 89
2, 259728, Note_on_c, 0, 55, 71
2, 260041, Note_on_c, 0, 70, 58
2, 260062, Note_on_c, 0, 69, 0
2, 260164, Note_on_c, 0, 70, 0
2, 260165, Note_on_c, 0, 69, 36
2, 260225, Note_on_c, 0, 65, 0
2, 260253, Note_on_c, 0, 67, 49
2, 260273, Note_on_c, 0, 69, 0
2, 260301, Note_on_c, 0, 55, 0
2, 260304, Note_on_c, 0, 60, 0
2, 260335, Note_on_c, 0, 61, 0
2, 260456, Note_on_c, 0, 67, 0
2, 260535, Note_on_c, 0, 69, 81
2, 260535, Note_on_c, 0, 61, 68
2, 260540, Note_on_c, 0, 60, 55
2, 260547, Note_on_c, 0, 65, 71
2, 260554, Note_on_c, 0, 55, 61
2, 260805, Note_on_c, 0, 60, 0
2, 260806, Note_on_c, 0, 65, 0
2, 260889, Note_on_c, 0, 70, 28
2, 260924, Note_on_c, 0, 70, 0
2, 260938, Note_on_c, 0, 69, 0
2, 260943, Note_on_c, 0, 71, 42
2, 260982, Note_on_c, 0, 55, 0
2, 260991, Note_on_c, 0, 61, 0
2, 261054, Note_on_c, 0, 71, 0
2, 261082, Note_on_c, 0, 74, 88
2, 261199, Note_on_c, 0, 64, 42
2, 261207, Note_on_c, 0, 60, 46
2, 261209, Note_on_c, 0, 74, 0
2, 261218, Note_on_c, 0, 59, 55
2, 261221, Note_on_c, 0, 55, 28
2, 261239, Note_on_c, 0, 72, 66
2, 261519, Note_on_c, 0, 60, 0
2, 261581, Note_on_c, 0, 72, 0
2, 261588, Note_on_c, 0, 64, 0
2, 261609, Note_on_c, 0, 60, 17
2, 261649, Note_on_c, 0, 69, 53
2, 261698, Note_on_c, 0, 60, 0
2, 261716, Note_on_c, 0, 59, 0
2, 261770, Note_on_c, 0, 55, 0
2, 261969, Note_on_c, 0, 64, 48
2, 261981, Note_on_c, 0, 69, 0
2, 262459, Note_on_c, 0, 60, 42
2, 262460, Note_on_c, 0, 64, 0
2, 262479, Note_on_c, 0, 59, 35
2, 262480, Note_on_c, 0, 55, 33
2, 262525, Note_on_c, 0, 59, 0
2, 262544, Note_on_c, 0, 55, 0
2, 262545, Note_on_c, 0, 60, 0
2, 262599, Note_on_c, 0, 65, 65
2, 262901, Note_on_c, 0, 65, 0
2, 262981, Note_on_c, 0, 64, 27
2, 263074, Note_on_c, 0, 60, 26
2, 263085, Note_on_c, 0, 54, 37
2, 263086, Note_on_c, 0, 64, 0
2, 263098, Note_on_c, 0, 66, 56
2, 263290, Note_on_c, 0, 60, 0
2, 263357, Note_on_c, 0, 66, 0
2, 263397, Note_on_c, 0, 60, 29
2, 263403, Note_on_c, 0, 74, 71
2, 263519, Note_on_c, 0, 74, 0
2, 263554, Note_on_c, 0, 60, 0
2, 263585, Note_on_c, 0, 66, 55
2, 263612, Note_on_c, 0, 54, 0
2, 263815, Note_on_c, 0, 66, 0
2, 263898, Note_on_c, 0, 64, 39
2, 263902, Note_on_c, 0, 54, 34
2, 263904, Note_on_c, 0, 60, 35
2, 263939, Note_on_c, 0, 64, 0
2, 263961, Note_on_c, 0, 60, 0
2, 263988, Note_on_c, 0, 54, 0
2, 264355, Note_on_c, 0, 64, 66
2, 264357, Note_on_c, 0, 60, 51
2, 264365, Note_on_c, 0, 54, 43
2, 264389, Note_on_c, 0, 64, 0
2, 264405, Note_on_c, 0, 60, 0
2, 264409, Note_on_c, 0, 54, 0
2, 264696, Note_on_c, 0, 72, 64
2, 264845, Note_on_c, 0, 75, 71
2, 264876, Note_on_c, 0, 72, 0
2, 264885, Note_on_c, 0, 63, 57
2, 264893, Note_on_c, 0, 60, 37
2, 264900, Note_on_c, 0, 57, 44
2, 264923, Note_on_c, 0, 75, 0
2, 264937, Note_on_c, 0, 60, 0
2, 264949, Note_on_c, 0, 63, 0
2, 265010, Note_on_c, 0, 79, 55
2, 265017, Note_on_c, 0, 57, 0
2, 265096, Note_on_c, 0, 79, 0
2, 265164, Note_on_c, 0, 84, 72
2, 265250, Note_on_c, 0, 84, 0
2, 265311, Note_on_c, 0, 87, 82
2, 265325, Note_on_c, 0, 60, 55
2, 265326, Note_on_c, 0, 63, 70
2, 265334, Note_on_c, 0, 57, 66
2, 265417, Note_on_c, 0, 87, 0
2, 265419, Note_on_c, 0, 63, 0
2, 265460, Note_on_c, 0, 60, 0
2, 265476, Note_on_c, 0, 63, 73
2, 265486, Note_on_c, 0, 89, 88
2, 265494, Note_on_c, 0, 55, 47
2, 265498, Note_on_c, 0, 60, 28
2, 265691, Note_on_c, 0, 55, 0
2, 265722, Note_on_c, 0, 60, 0
2, 265727, Note_on_c, 0, 63, 0
2, 265742, Note_on_c, 0, 57, 0
2, 265745, Note_on_c, 0, 89, 0
2, 265802, Note_on_c, 0, 87, 58
2, 265910, Note_on_c, 0, 87, 0
2, 265961, Note_on_c, 0, 89, 75
2, 265965, Note_on_c, 0, 63, 62
2, 265972, Note_on_c, 0, 60, 38
2, 265975, Note_on_c, 0, 57, 58
2, 265990, Note_on_c, 0, 77, 36
2, 265993, Note_on_c, 0, 55, 50
2, 265998, Note_on_c, 0, 79, 42
2, 266030, Note_on_c, 0, 77, 0
2, 266180, Note_on_c, 0, 79, 0
2, 266236, Note_on_c, 0, 89, 0
2, 266240, Note_on_c, 0, 63, 0
2, 266242, Note_on_c, 0, 55, 0
2, 266245, Note_on_c, 0, 60, 0
2, 266257, Note_on_c, 0, 57, 0
2, 266290, Note_on_c, 0, 63, 51
2, 266308, Note_on_c, 0, 87, 56
2, 266336, Note_on_c, 0, 60, 38
2, 266340, Note_on_c, 0, 57, 26
2, 266364, Note_on_c, 0, 63, 0
2, 266396, Note_on_c, 0, 87, 0
2, 266474, Note_on_c, 0, 60, 0
2, 266507, Note_on_c, 0, 57, 0
2, 266747, Note_on_c, 0, 63, 72
2, 266748, Note_on_c, 0, 89, 75
2, 266753, Note_on_c, 0, 60, 58
2, 266754, Note_on_c, 0, 84, 70
2, 266755, Note_on_c, 0, 77, 65
2, 266756, Note_on_c, 0, 76, 71
2, 266762, Note_on_c, 0, 57, 60
2, 266770, Note_on_c, 0, 83, 49
2, 266778, Note_on_c, 0, 55, 38
2, 266785, Note_on_c, 0, 76, 0
2, 266812, Note_on_c, 0, 77, 0
2, 266814, Note_on_c, 0, 83, 0
2, 266826, Note_on_c, 0, 84, 0
2, 266829, Note_on_c, 0, 55, 0
2, 266854, Note_on_c, 0, 63, 0
2, 266863, Note_on_c, 0, 89, 0
2, 266929, Note_on_c, 0, 60, 0
2, 266962, Note_on_c, 0, 57, 0
2, 267228, Note_on_c, 0, 63, 77
2, 267234, Note_on_c, 0, 60, 53
2, 267239, Note_on_c, 0, 84, 84
2, 267240, Note_on_c, 0, 55, 60
2, 267241, Note_on_c, 0, 79, 79
2, 267242, Note_on_c, 0, 57, 64
2, 267243, Note_on_c, 0, 91, 87
2, 267256, Note_on_c, 0, 87, 38
2, 267292, Note_on_c, 0, 87, 0
2, 267374, Note_on_c, 0, 55, 0
2, 267379, Control_c, 0, 64, 127
2, 267385, Note_on_c, 0, 91, 0
2, 267396, Note_on_c, 0, 63, 0
2, 267397, Note_on_c, 0, 79, 0
2, 267407, Note_on_c, 0, 84, 0
2, 267416, Note_on_c, 0, 57, 0
2, 267425, Note_on_c, 0, 60, 0
2, 267470, Note_on_c, 0, 63, 62
2, 267476, Note_on_c, 0, 84, 55
2, 267481, Note_on_c, 0, 89, 62
2, 267485, Note_on_c, 0, 77, 57
2, 267487, Note_on_c, 0, 57, 64
2, 267491, Note_on_c, 0, 60, 55
2, 267497, Note_on_c, 0, 55, 45
2, 267902, Note_on_c, 0, 63, 0
2, 267989, Note_on_c, 0, 89, 0
2, 268005, Note_on_c, 0, 55, 0
2, 268047, Note_on_c, 0, 84, 0
2, 268051, Note_on_c, 0, 77, 0
2, 268072, Note_on_c, 0, 57, 0
2, 268095, Note_on_c, 0, 60, 0
2, 268199, Note_on_c, 0, 87, 60
2, 268205, Note_on_c, 0, 82, 67
2, 268210, Note_on_c, 0, 75, 51
2, 268214, Note_on_c, 0, 63, 73
2, 268215, Note_on_c, 0, 57, 58
2, 268220, Note_on_c, 0, 60, 39
2, 268227, Control_c, 0, 64, 0
2, 268228, Note_on_c, 0, 55, 58
2, 268381, Note_on_c, 0, 75, 0
2, 268384, Note_on_c, 0, 87, 0
2, 268402, Note_on_c, 0, 55, 0
2, 268418, Note_on_c, 0, 63, 0
2, 268420, Note_on_c, 0, 82, 0
2, 268447, Note_on_c, 0, 57, 0
2, 268473, Note_on_c, 0, 60, 0
2, 268477, Control_c, 0, 64, 127
2, 268503, Note_on_c, 0, 63, 56
2, 268504, Note_on_c, 0, 85, 49
2, 268517, Note_on_c, 0, 55, 44
2, 268520, Note_on_c, 0, 73, 38
2, 268524, Note_on_c, 0, 80, 51
2, 268527, Note_on_c, 0, 60, 22
2, 268549, Note_on_c, 0, 57, 36
2, 268669, Note_on_c, 0, 55, 0
2, 268689, Note_on_c, 0, 73, 0
2, 268695, Note_on_c, 0, 57, 0
2, 268696, Note_on_c, 0, 80, 0
2, 268713, Note_on_c, 0, 85, 0
2, 268732, Note_on_c, 0, 63, 0
2, 268763, Note_on_c, 0, 60, 0
2, 268823, Control_c, 0, 64, 0
2, 268839, Note_on_c, 0, 60, 46
2, 268843, Note_on_c, 0, 86, 61
2, 268845, Note_on_c, 0, 74, 51
2, 268856, Note_on_c, 0, 54, 51
2, 268857, Note_on_c, 0, 81, 49
2, 269448, Note_on_c, 0, 60, 0
2, 269767, Note_on_c, 0, 74, 0
2, 269789, Note_on_c, 0, 81, 0
2, 269814, Note_on_c, 0, 86, 0
2, 269824, Control_c, 0, 64, 127
2, 270089, Note_on_c, 0, 54, 0
2, 270165, Note_on_c, 0, 90, 73
2, 270171, Note_on_c, 0, 78, 74
2, 270176, Note_on_c, 0, 54, 62
2, 270179, Note_on_c, 0, 64, 72
2, 270181, Note_on_c, 0, 60, 52
2, 270186, Note_on_c, 0, 87, 55
2, 270201, Control_c, 0, 64, 0
2, 270211, Note_on_c, 0, 64, 0
2, 270222, Note_on_c, 0, 60, 0
2, 270243, Note_on_c, 0, 78, 0
2, 270245, Note_on_c, 0, 87, 0
2, 270265, Note_on_c, 0, 54, 0
2, 270268, Note_on_c, 0, 90, 0
2, 270759, Note_on_c, 0, 75, 77
2, 270761, Note_on_c, 0, 87, 77
2, 270762, Note_on_c, 0, 60, 63
2, 270764, Note_on_c, 0, 64, 74
2, 270768, Note_on_c, 0, 54, 70
2, 270775, Note_on_c, 0, 81, 68
2, 270797, Control_c, 0, 64, 127
2, 270813, Note_on_c, 0, 81, 0
2, 270848, Note_on_c, 0, 81, 20
2, 270883, Control_c, 0, 64, 0
2, 271114, Control_c, 0, 64, 127
2, 271152, Control_c, 0, 64, 0
2, 271178, Note_on_c, 0, 81, 0
2, 271220, Note_on_c, 0, 87, 0
2, 271236, Note_on_c, 0, 75, 0
2, 271309, Note_on_c, 0, 64, 0
2, 271363, Note_on_c, 0, 60, 0
2, 271409, Note_on_c, 0, 54, 0
2, 271484, Note_on_c, 0, 77, 65
2, 271486, Note_on_c, 0, 84, 72
2, 271491, Note_on_c, 0, 60, 46
2, 271492, Note_on_c, 0, 72, 55
2, 271493, Note_on_c, 0, 64, 65
2, 271494, Note_on_c, 0, 81, 50
2, 271501, Note_on_c, 0, 54, 43
2, 271671, Control_c, 0, 64, 127
2, 271681, Control_c, 0, 64, 0
2, 271709, Control_c, 0, 64, 127
2, 271766, Control_c, 0, 64, 0
2, 271772, Note_on_c, 0, 54, 0
2, 271961, Note_on_c, 0, 54, 76
2, 272037, Control_c, 0, 64, 127
2, 272130, Note_on_c, 0, 84, 0
2, 272148, Note_on_c, 0, 81, 0
2, 272202, Note_on_c, 0, 77, 0
2, 272236, Note_on_c, 0, 72, 0
2, 272328, Note_on_c, 0, 60, 0
2, 272390, Note_on_c, 0, 56, 30
2, 272415, Note_on_c, 0, 64, 0
2, 272456, Note_on_c, 0, 58, 37
2, 272457, Note_on_c, 0, 54, 0
2, 272483, Note_on_c, 0, 56, 0
2, 272494, Note_on_c, 0, 58, 0
2, 272518, Control_c, 0, 64, 0
2, 272617, Note_on_c, 0, 79, 82
2, 272618, Note_on_c, 0, 76, 78
2, 272619, Note_on_c, 0, 67, 82
2, 272620, Note_on_c, 0, 69, 88
2, 272621, Note_on_c, 0, 72, 80
2, 273061, Control_c, 0, 64, 127
2, 273198, Note_on_c, 0, 76, 0
2, 273211, Note_on_c, 0, 67, 0
2, 273219, Note_on_c, 0, 79, 0
2, 273220, Note_on_c, 0, 72, 0
2, 273264, Note_on_c, 0, 69, 0
2, 273493, Control_c, 0, 64, 0
2, 273578, Note_on_c, 0, 76, 68
2, 273583, Note_on_c, 0, 64, 68
2, 273588, Note_on_c, 0, 69, 72
2, 273590, Note_on_c, 0, 72, 56
2, 273592, Note_on_c, 0, 65, 74
2, 273698, Note_on_c, 0, 72, 0
2, 273713, Note_on_c, 0, 76, 0
2, 273729, Note_on_c, 0, 69, 0
2, 273758, Note_on_c, 0, 65, 0
2, 273823, Note_on_c, 0, 64, 0
2, 273868, Control_c, 0, 64, 127
2, 273886, Control_c, 0, 64, 0
2, 273912, Note_on_c, 0, 72, 53
2, 273921, Note_on_c, 0, 65, 63
2, 273922, Note_on_c, 0, 60, 43
2, 273925, Note_on_c, 0, 69, 57
2, 274012, Note_on_c, 0, 60, 0
2, 274074, Note_on_c, 0, 65, 0
2, 274077, Note_on_c, 0, 69, 0
2, 274093, Note_on_c, 0, 62, 41
2, 274109, Control_c, 0, 64, 127
2, 274120, Note_on_c, 0, 72, 0
2, 274373, Note_on_c, 0, 50, 34
2, 274420, Note_on_c, 0, 62, 0
2, 274495, Control_c, 0, 64, 0
2, 274539, Note_on_c, 0, 50, 0
2, 274549, Note_on_c, 0, 53, 47
2, 274559, Note_on_c, 0, 63, 60
2, 274561, Note_on_c, 0, 68, 49
2, 274576, Note_on_c, 0, 59, 45
2, 275004, Control_c, 0, 64, 127
2, 275229, Note_on_c, 0, 59, 0
2, 275284, Note_on_c, 0, 63, 0
2, 275307, Note_on_c, 0, 68, 0
2, 275340, Control_c, 0, 64, 0
2, 275366, Note_on_c, 0, 59, 55
2, 275371, Note_on_c, 0, 63, 25
2, 275377, Note_on_c, 0, 67, 57
2, 275394, Note_on_c, 0, 43, 49
2, 275513, Control_c, 0, 64, 127
2, 275595, Note_on_c, 0, 43, 0
2, 275648, Note_on_c, 0, 53, 0
2, 275709, Note_on_c, 0, 59, 0
2, 275815, Note_on_c, 0, 63, 0
2, 275909, Note_on_c, 0, 67, 0
2, 276428, Control_c, 0, 64, 0
2, 276451, Note_on_c, 0, 68, 60
2, 276457, Note_on_c, 0, 64, 60
2, 276463, Note_on_c, 0, 63, 53
2, 276464, Note_on_c, 0, 75, 77
2, 276465, Note_on_c, 0, 59, 53
2, 276466, Note_on_c, 0, 87, 72
2, 276467, Note_on_c, 0, 82, 71
2, 276728, Note_on_c, 0, 87, 0
2, 276733, Note_on_c, 0, 75, 0
2, 276772, Note_on_c, 0, 88, 57
2, 276775, Note_on_c, 0, 76, 50
2, 276798, Note_on_c, 0, 85, 1
2, 276812, Note_on_c, 0, 86, 42
2, 276912, Note_on_c, 0, 88, 0
2, 276938, Note_on_c, 0, 76, 0
2, 276940, Note_on_c, 0, 86, 0
2, 276954, Note_on_c, 0, 85, 0
2, 276963, Note_on_c, 0, 82, 0
2, 277001, Note_on_c, 0, 88, 44
2, 277013, Note_on_c, 0, 76, 47
2, 277014, Note_on_c, 0, 82, 37
2, 277058, Control_c, 0, 64, 127
2, 277157, Note_on_c, 0, 88, 0
2, 277163, Note_on_c, 0, 76, 0
2, 277190, Note_on_c, 0, 82, 0
2, 277203, Note_on_c, 0, 59, 0
2, 277204, Note_on_c, 0, 68, 0
2, 277217, Note_on_c, 0, 63, 0
2, 277232, Note_on_c, 0, 64, 0
2, 277262, Note_on_c, 0, 82, 56
2, 277267, Note_on_c, 0, 76, 57
2, 277268, Note_on_c, 0, 88, 64
2, 277357, Control_c, 0, 64, 0
2, 277403, Note_on_c, 0, 88, 0
2, 277407, Note_on_c, 0, 76, 0
2, 277436, Note_on_c, 0, 82, 0
2, 277456, Note_on_c, 0, 68, 50
2, 277466, Note_on_c, 0, 64, 57
2, 277467, Note_on_c, 0, 59, 54
2, 277475, Note_on_c, 0, 63, 42
2, 277493, Note_on_c, 0, 76, 47
2, 277495, Note_on_c, 0, 88, 52
2, 277496, Note_on_c, 0, 82, 60
2, 277697, Note_on_c, 0, 88, 0
2, 277706, Note_on_c, 0, 76, 0
2, 277721, Note_on_c, 0, 64, 0
2, 277732, Note_on_c, 0, 59, 0
2, 277739, Note_on_c, 0, 68, 0
2, 277747, Note_on_c, 0, 63, 0
2, 277753, Note_on_c, 0, 82, 0
2, 277907, Control_c, 0, 64, 127
2, 278201, Note_on_c, 0, 68, 47
2, 278207, Note_on_c, 0, 87, 67
2, 278210, Note_on_c, 0, 75, 68
2, 278215, Note_on_c, 0, 64, 50
2, 278216, Note_on_c, 0, 82, 61
2, 278217, Note_on_c, 0, 59, 45
2, 278227, Note_on_c, 0, 63, 35
2, 278267, Note_on_c, 0, 59, 0
2, 278317, Note_on_c, 0, 87, 0
2, 278326, Note_on_c, 0, 68, 0
2, 278348, Note_on_c, 0, 64, 0
2, 278353, Note_on_c, 0, 75, 0
2, 278360, Note_on_c, 0, 63, 0
2, 278364, Note_on_c, 0, 82, 0
2, 278367, Control_c, 0, 64, 0
2, 278446, Note_on_c, 0, 85, 49
2, 278447, Note_on_c, 0, 64, 44
2, 278448, Note_on_c, 0, 68, 46
2, 278449, Note_on_c, 0, 63, 40
2, 278454, Note_on_c, 0, 80, 50
2, 278455, Note_on_c, 0, 58, 60
2, 278460, Note_on_c, 0, 73, 31
2, 278886, Note_on_c, 0, 68, 0
2, 278924, Control_c, 0, 64, 127
2, 278959, Note_on_c, 0, 73, 0
2, 278988, Note_on_c, 0, 64, 0
2, 279011, Note_on_c, 0, 80, 0
2, 279013, Note_on_c, 0, 85, 0
2, 279043, Note_on_c, 0, 58, 0
2, 279053, Note_on_c, 0, 63, 0
2, 279204, Control_c, 0, 64, 0
2, 279224, Note_on_c, 0, 87, 68
2, 279229, Note_on_c, 0, 75, 69
2, 279229, Note_on_c, 0, 68, 60
2, 279233, Note_on_c, 0, 82, 64
2, 279238, Note_on_c, 0, 63, 43
2, 279241, Note_on_c, 0, 58, 53
2, 279242, Note_on_c, 0, 64, 59
2, 279328, Control_c, 0, 64, 127
2, 279359, Note_on_c, 0, 87, 0
2, 279379, Note_on_c, 0, 75, 0
2, 279389, Note_on_c, 0, 82, 0
2, 279475, Note_on_c, 0, 58, 0
2, 279516, Note_on_c, 0, 68, 0
2, 279543, Note_on_c, 0, 64, 0
2, 279593, Note_on_c, 0, 63, 0
2, 279704, Note_on_c, 0, 63, 15
2, 279794, Note_on_c, 0, 63, 0
2, 279801, Control_c, 0, 64, 0
2, 279855, Note_on_c, 0, 63, 53
2, 279864, Note_on_c, 0, 58, 71
2, 279865, Note_on_c, 0, 85, 79
2, 279870, Note_on_c, 0, 73, 71
2, 279876, Note_on_c, 0, 68, 56
2, 279880, Note_on_c, 0, 80, 23
2, 279882, Note_on_c, 0, 82, 51
2, 279886, Note_on_c, 0, 79, 60
2, 279930, Note_on_c, 0, 80, 0
2, 279973, Control_c, 0, 64, 127
2, 280065, Note_on_c, 0, 79, 0
2, 280081, Note_on_c, 0, 68, 0
2, 280099, Note_on_c, 0, 82, 0
2, 280100, Note_on_c, 0, 73, 0
2, 280131, Note_on_c, 0, 85, 0
2, 280143, Note_on_c, 0, 63, 0
2, 280148, Note_on_c, 0, 58, 0
2, 280272, Control_c, 0, 64, 0
2, 280328, Note_on_c, 0, 63, 68
2, 280332, Note_on_c, 0, 67, 83
2, 280333, Note_on_c, 0, 62, 82
2, 280337, Note_on_c, 0, 82, 82
2, 280338, Note_on_c, 0, 79, 89
2, 280339, Note_on_c, 0, 86, 85
2, 280340, Note_on_c, 0, 58, 79
2, 280341, Note_on_c, 0, 74, 91
2, 280820, Control_c, 0, 64, 127
2, 280989, Note_on_c, 0, 62, 0
2, 281060, Note_on_c, 0, 67, 0
2, 281062, Note_on_c, 0, 63, 0
2, 281308, Note_on_c, 0, 67, 48
2, 281313, Note_on_c, 0, 63, 45
2, 281315, Note_on_c, 0, 74, 0
2, 281324, Note_on_c, 0, 62, 45
2, 281374, Note_on_c, 0, 79, 0
2, 281504, Note_on_c, 0, 86, 0
2, 281573, Note_on_c, 0, 82, 0
2, 281943, Note_on_c, 0, 86, 62
2, 281946, Note_on_c, 0, 62, 0
2, 281981, Note_on_c, 0, 67, 0
2, 282008, Note_on_c, 0, 58, 0
2, 282012, Note_on_c, 0, 63, 0
2, 282026, Note_on_c, 0, 86, 0
2, 282093, Note_on_c, 0, 84, 62
2, 282215, Note_on_c, 0, 84, 0
2, 282236, Control_c, 0, 64, 0
2, 282256, Note_on_c, 0, 63, 33
2, 282257, Note_on_c, 0, 86, 58
2, 282268, Note_on_c, 0, 62, 38
2, 282269, Note_on_c, 0, 67, 43
2, 282270, Note_on_c, 0, 79, 40
2, 282280, Note_on_c, 0, 74, 36
2, 282285, Note_on_c, 0, 57, 39
2, 282570, Note_on_c, 0, 86, 0
2, 282672, Note_on_c, 0, 79, 0
2, 282700, Note_on_c, 0, 74, 0
2, 282734, Control_c, 0, 64, 127
2, 282810, Note_on_c, 0, 67, 0
2, 282847, Note_on_c, 0, 62, 0
2, 282883, Note_on_c, 0, 63, 0
2, 283100, Note_on_c, 0, 63, 47
2, 283101, Note_on_c, 0, 67, 39
2, 283114, Note_on_c, 0, 62, 29
2, 283146, Note_on_c, 0, 67, 0
2, 283160, Note_on_c, 0, 62, 0
2, 283186, Note_on_c, 0, 63, 0
2, 283202, Note_on_c, 0, 57, 0
2, 283272, Note_on_c, 0, 69, 34
2, 283293, Control_c, 0, 64, 0
2, 283360, Note_on_c, 0, 70, 36
2, 283426, Note_on_c, 0, 69, 0
2, 283469, Note_on_c, 0, 71, 58
2, 283482, Note_on_c, 0, 70, 0
2, 283520, Note_on_c, 0, 71, 0
2, 283578, Note_on_c, 0, 74, 75
2, 283698, Note_on_c, 0, 74, 0
2, 283749, Note_on_c, 0, 72, 53
2, 284053, Note_on_c, 0, 67, 60
2, 284185, Note_on_c, 0, 72, 0
2, 284201, Note_on_c, 0, 67, 0
2, 284211, Note_on_c, 0, 60, 29
2, 284220, Note_on_c, 0, 55, 31
2, 284229, Note_on_c, 0, 48, 28
2, 284258, Note_on_c, 0, 65, 33
2, 284613, Note_on_c, 0, 65, 0
2, 284618, Note_on_c, 0, 60, 0
2, 284680, Note_on_c, 0, 63, 42
2, 284807, Note_on_c, 0, 55, 0
2, 285111, Note_on_c, 0, 63, 0
2, 285156, Note_on_c, 0, 55, 18
2, 285165, Note_on_c, 0, 62, 66
2, 285490, Note_on_c, 0, 63, 52
2, 285530, Note_on_c, 0, 62, 0
2, 285692, Note_on_c, 0, 55, 0
2, 285909, Note_on_c, 0, 60, 51
2, 285943, Note_on_c, 0, 55, 34
2, 286546, Control_c, 0, 64, 127
2, 286790, Note_on_c, 0, 55, 0
2, 287035, Note_on_c, 0, 55, 40
2, 287066, Control_c, 0, 64, 0
2, 287124, Note_on_c, 0, 60, 0
2, 287367, Note_on_c, 0, 60, 27
2, 287435, Note_on_c, 0, 60, 0
2, 287449, Note_on_c, 0, 63, 0
2, 287488, Control_c, 0, 64, 127
2, 287537, Note_on_c, 0, 62, 46
2, 287538, Note_on_c, 0, 55, 0
2, 287614, Note_on_c, 0, 48, 0
2, 287773, Note_on_c, 0, 62, 0
2, 287830, Note_on_c, 0, 63, 56
2, 287989, Control_c, 0, 64, 0
2, 288051, Note_on_c, 0, 59, 49
2, 288058, Note_on_c, 0, 37, 47
2, 288064, Note_on_c, 0, 67, 51
2, 288360, Note_on_c, 0, 44, 55
2, 288373, Note_on_c, 0, 37, 0
2, 288414, Control_c, 0, 64, 127
2, 288451, Note_on_c, 0, 59, 0
2, 288493, Note_on_c, 0, 46, 18
2, 288494, Note_on_c, 0, 67, 0
2, 288538, Note_on_c, 0, 63, 0
2, 288708, Note_on_c, 0, 46, 0
2, 288826, Note_on_c, 0, 63, 75
2, 288827, Note_on_c, 0, 70, 78
2, 288831, Note_on_c, 0, 59, 78
2, 288838, Control_c, 0, 64, 0
2, 288839, Note_on_c, 0, 53, 64
2, 288845, Note_on_c, 0, 65, 52
2, 288951, Note_on_c, 0, 53, 0
2, 288983, Note_on_c, 0, 70, 0
2, 288991, Note_on_c, 0, 59, 0
2, 289011, Note_on_c, 0, 63, 0
2, 289055, Note_on_c, 0, 65, 0
2, 289118, Note_on_c, 0, 70, 64
2, 289125, Note_on_c, 0, 63, 59
2, 289126, Control_c, 0, 64, 127
2, 289132, Note_on_c, 0, 59, 56
2, 289137, Note_on_c, 0, 53, 50
2, 289138, Note_on_c, 0, 65, 48
2, 289184, Note_on_c, 0, 44, 0
2, 289264, Note_on_c, 0, 59, 0
2, 289331, Note_on_c, 0, 70, 0
2, 289349, Note_on_c, 0, 53, 0
2, 289353, Note_on_c, 0, 65, 0
2, 289366, Note_on_c, 0, 63, 0
2, 289385, Control_c, 0, 64, 0
2, 289412, Note_on_c, 0, 51, 47
2, 289417, Note_on_c, 0, 63, 26
2, 289421, Note_on_c, 0, 68, 50
2, 289423, Note_on_c, 0, 59, 46
2, 289443, Note_on_c, 0, 65, 36
2, 289462, Note_on_c, 0, 59, 0
2, 289490, Note_on_c, 0, 65, 0
2, 289507, Note_on_c, 0, 63, 0
2, 289526, Note_on_c, 0, 51, 0
2, 289534, Note_on_c, 0, 68, 0
2, 289787, Note_on_c, 0, 63, 67
2, 289789, Note_on_c, 0, 70, 69
2, 289796, Note_on_c, 0, 65, 57
2, 289797, Note_on_c, 0, 59, 65
2, 289802, Note_on_c, 0, 53, 65
2, 289886, Note_on_c, 0, 59, 0
2, 289912, Note_on_c, 0, 70, 0
2, 289917, Note_on_c, 0, 53, 0
2, 289931, Note_on_c, 0, 63, 0
2, 289934, Note_on_c, 0, 65, 0
2, 290254, Note_on_c, 0, 63, 65
2, 290264, Note_on_c, 0, 70, 69
2, 290269, Note_on_c, 0, 65, 59
2, 290270, Note_on_c, 0, 59, 60
2, 290274, Note_on_c, 0, 53, 61
2, 290443, Control_c, 0, 64, 127
2, 290630, Note_on_c, 0, 59, 0
2, 290647, Note_on_c, 0, 70, 0
2, 290678, Note_on_c, 0, 53, 0
2, 290679, Note_on_c, 0, 65, 0
2, 290703, Note_on_c, 0, 63, 0
2, 290737, Note_on_c, 0, 51, 39
2, 290772, Note_on_c, 0, 68, 34
2, 290819, Control_c, 0, 64, 0
2, 290848, Note_on_c, 0, 68, 0
2, 290916, Note_on_c, 0, 51, 0
2, 290934, Note_on_c, 0, 63, 61
2, 290941, Note_on_c, 0, 53, 52
2, 290942, Note_on_c, 0, 70, 60
2, 290948, Note_on_c, 0, 59, 50
2, 290950, Note_on_c, 0, 65, 51
2, 291406, Control_c, 0, 64, 127
2, 291537, Note_on_c, 0, 53, 0
2, 291596, Note_on_c, 0, 70, 0
2, 291636, Note_on_c, 0, 59, 0
2, 291646, Note_on_c, 0, 65, 0
2, 291691, Note_on_c, 0, 68, 45
2, 291782, Note_on_c, 0, 68, 0
2, 291806, Note_on_c, 0, 63, 0
2, 291810, Control_c, 0, 64, 0
2, 291906, Note_on_c, 0, 43, 39
2, 291987, Note_on_c, 0, 43, 0
2, 292359, Control_c, 0, 64, 127
2, 292811, Control_c, 0, 64, 0
2, 293345, Note_on_c, 0, 43, 58
2, 293370, Control_c, 0, 64, 127
2, 293399, Control_c, 0, 64, 0
2, 293824, Note_on_c, 0, 56, 68
2, 293827, Note_on_c, 0, 67, 60
2, 293832, Note_on_c, 0, 55, 63
2, 293835, Note_on_c, 0, 60, 49
2, 293844, Note_on_c, 0, 62, 55
2, 294274, Control_c, 0, 64, 127
2, 294367, Note_on_c, 0, 62, 0
2, 294428, Note_on_c, 0, 55, 0
2, 294445, Note_on_c, 0, 60, 0
2, 294496, Note_on_c, 0, 67, 0
2, 294552, Note_on_c, 0, 56, 0
2, 294715, Control_c, 0, 64, 0
2, 294767, Note_on_c, 0, 65, 60
2, 294783, Note_on_c, 0, 63, 54
2, 294786, Note_on_c, 0, 56, 44
2, 294794, Note_on_c, 0, 53, 44
2, 294795, Note_on_c, 0, 59, 54
2, 294851, Control_c, 0, 64, 127
2, 294933, Note_on_c, 0, 43, 0
2, 294960, Note_on_c, 0, 56, 0
2, 294972, Note_on_c, 0, 53, 0
2, 295046, Note_on_c, 0, 59, 0
2, 295221, Note_on_c, 0, 63, 0
2, 295281, Note_on_c, 0, 65, 0
2, 295644, Note_on_c, 0, 60, 60
2, 295655, Note_on_c, 0, 57, 54
2, 295677, Note_on_c, 0, 60, 0
2, 295684, Note_on_c, 0, 55, 29
2, 295694, Note_on_c, 0, 57, 0
2, 295727, Note_on_c, 0, 55, 0
2, 295727, Control_c, 0, 64, 0
2, 295766, Note_on_c, 0, 67, 44
2, 296114, Note_on_c, 0, 67, 0
2, 296210, Note_on_c, 0, 72, 48
2, 296487, Note_on_c, 0, 72, 0
2, 296695, Note_on_c, 0, 62, 36
2, 296713, Note_on_c, 0, 57, 36
2, 296778, Note_on_c, 0, 62, 0
2, 296785, Note_on_c, 0, 57, 0
2, 297480, Note_on_c, 0, 62, 51
2, 297488, Note_on_c, 0, 57, 44
2, 297514, Note_on_c, 0, 62, 0
2, 297532, Note_on_c, 0, 57, 0
2, 297632, Note_on_c, 0, 74, 113
2, 297867, Note_on_c, 0, 74, 0
2, 297942, Note_on_c, 0, 75, 69
2, 298014, Note_on_c, 0, 75, 0
2, 298106, Note_on_c, 0, 77, 99
2, 298418, Note_on_c, 0, 62, 57
2, 298437, Note_on_c, 0, 57, 42
2, 298451, Note_on_c, 0, 62, 0
2, 298483, Note_on_c, 0, 57, 0
2, 298902, Note_on_c, 0, 74, 46
2, 298916, Note_on_c, 0, 77, 0
2, 299008, Note_on_c, 0, 74, 0
2, 299061, Note_on_c, 0, 75, 60
2, 299319, Note_on_c, 0, 75, 0
2, 299379, Note_on_c, 0, 59, 60
2, 299384, Note_on_c, 0, 67, 55
2, 299385, Note_on_c, 0, 63, 57
2, 299388, Note_on_c, 0, 77, 54
2, 299421, Note_on_c, 0, 67, 0
2, 299486, Note_on_c, 0, 63, 0
2, 299520, Note_on_c, 0, 77, 0
2, 299526, Note_on_c, 0, 59, 0
2, 299610, Note_on_c, 0, 78, 37
2, 299617, Note_on_c, 0, 66, 47
2, 299658, Note_on_c, 0, 79, 43
2, 299691, Note_on_c, 0, 67, 70
2, 299696, Note_on_c, 0, 66, 0
2, 299707, Note_on_c, 0, 78, 0
2, 299773, Note_on_c, 0, 67, 0
2, 299840, Note_on_c, 0, 79, 0
2, 300065, Note_on_c, 0, 82, 75
2, 300067, Note_on_c, 0, 63, 60
2, 300068, Note_on_c, 0, 70, 85
2, 300070, Note_on_c, 0, 67, 60
2, 300075, Note_on_c, 0, 59, 50
2, 300076, Note_on_c, 0, 75, 63
2, 300104, Note_on_c, 0, 80, 25
2, 300183, Note_on_c, 0, 75, 0
2, 300213, Note_on_c, 0, 83, 45
2, 300251, Note_on_c, 0, 70, 0
2, 300252, Note_on_c, 0, 71, 61
2, 300372, Note_on_c, 0, 82, 0
2, 300638, Note_on_c, 0, 83, 0
2, 300672, Note_on_c, 0, 67, 0
2, 300706, Note_on_c, 0, 80, 0
2, 300728, Note_on_c, 0, 71, 0
2, 300769, Note_on_c, 0, 59, 0
2, 300777, Note_on_c, 0, 63, 0
2, 300824, Note_on_c, 0, 63, 31
2, 300832, Note_on_c, 0, 59, 26
2, 300847, Note_on_c, 0, 79, 43
2, 300856, Note_on_c, 0, 67, 35
2, 300948, Note_on_c, 0, 79, 0
2, 300949, Note_on_c, 0, 67, 0
2, 300959, Note_on_c, 0, 59, 0
2, 300968, Note_on_c, 0, 63, 0
2, 301136, Note_on_c, 0, 79, 52
2, 301141, Note_on_c, 0, 63, 37
2, 301142, Note_on_c, 0, 59, 50
2, 301142, Note_on_c, 0, 67, 44
2, 301335, Note_on_c, 0, 79, 0
2, 301342, Note_on_c, 0, 67, 0
2, 301366, Note_on_c, 0, 59, 0
2, 301377, Note_on_c, 0, 63, 0
2, 301491, Note_on_c, 0, 67, 50
2, 301493, Note_on_c, 0, 79, 48
2, 301496, Note_on_c, 0, 63, 35
2, 301512, Note_on_c, 0, 59, 48
2, 301943, Control_c, 0, 64, 127
2, 302154, Note_on_c, 0, 67, 0
2, 302212, Note_on_c, 0, 59, 0
2, 302423, Note_on_c, 0, 67, 46
2, 302435, Note_on_c, 0, 59, 47
2, 302871, Note_on_c, 0, 79, 0
2, 302884, Note_on_c, 0, 59, 0
2, 302902, Note_on_c, 0, 67, 0
2, 303124, Note_on_c, 0, 63, 0
2, 303340, Note_on_c, 0, 60, 33
2, 303359, Note_on_c, 0, 67, 26
2, 303366, Note_on_c, 0, 63, 35
2, 303396, Control_c, 0, 64, 0
2, 303403, Note_on_c, 0, 58, 32
2, 303660, Note_on_c, 0, 67, 0
2, 303685, Note_on_c, 0, 58, 0
2, 303685, Note_on_c, 0, 63, 0
2, 303703, Note_on_c, 0, 60, 0
2, 303849, Control_c, 0, 64, 127
2, 304182, Note_on_c, 0, 60, 71
2, 304187, Note_on_c, 0, 67, 77
2, 304192, Note_on_c, 0, 63, 62
2, 304192, Note_on_c, 0, 58, 64
2, 304200, Note_on_c, 0, 89, 83
2, 304201, Note_on_c, 0, 84, 91
2, 304202, Note_on_c, 0, 77, 87
2, 304208, Control_c, 0, 64, 0
2, 304333, Note_on_c, 0, 89, 0
2, 304339, Note_on_c, 0, 77, 0
2, 304380, Note_on_c, 0, 67, 0
2, 304398, Control_c, 0, 64, 127
2, 304400, Note_on_c, 0, 84, 0
2, 304405, Note_on_c, 0, 60, 0
2, 304405, Note_on_c, 0, 58, 0
2, 304417, Note_on_c, 0, 63, 0
2, 304467, Note_on_c, 0, 67, 48
2, 304468, Note_on_c, 0, 87, 58
2, 304475, Note_on_c, 0, 58, 46
2, 304476, Note_on_c, 0, 75, 53
2, 304477, Note_on_c, 0, 63, 35
2, 304488, Note_on_c, 0, 60, 49
2, 304656, Note_on_c, 0, 75, 0
2, 304660, Note_on_c, 0, 58, 0
2, 304663, Note_on_c, 0, 67, 0
2, 304664, Note_on_c, 0, 87, 0
2, 304668, Control_c, 0, 64, 0
2, 304675, Note_on_c, 0, 60, 0
2, 304748, Note_on_c, 0, 67, 54
2, 304749, Note_on_c, 0, 89, 67
2, 304752, Note_on_c, 0, 77, 64
2, 304752, Note_on_c, 0, 84, 65
2, 304759, Note_on_c, 0, 58, 50
2, 304809, Note_on_c, 0, 67, 0
2, 304817, Note_on_c, 0, 89, 0
2, 304818, Note_on_c, 0, 84, 0
2, 304826, Note_on_c, 0, 77, 0
2, 304855, Note_on_c, 0, 63, 0
2, 304868, Note_on_c, 0, 58, 0
2, 305143, Note_on_c, 0, 86, 64
2, 305145, Note_on_c, 0, 63, 62
2, 305153, Note_on_c, 0, 60, 40
2, 305153, Note_on_c, 0, 57, 59
2, 305155, Note_on_c, 0, 74, 58
2, 305156, Note_on_c, 0, 55, 56
2, 305157, Note_on_c, 0, 79, 56
2, 305260, Control_c, 0, 64, 127
2, 305575, Note_on_c, 0, 74, 0
2, 305593, Note_on_c, 0, 86, 0
2, 305647, Note_on_c, 0, 55, 0
2, 305686, Note_on_c, 0, 57, 0
2, 305692, Note_on_c, 0, 63, 0
2, 305726, Note_on_c, 0, 79, 0
2, 305732, Note_on_c, 0, 60, 0
2, 305796, Note_on_c, 0, 60, 43
2, 305798, Note_on_c, 0, 63, 53
2, 305800, Note_on_c, 0, 79, 63
2, 305803, Note_on_c, 0, 87, 65
2, 305804, Note_on_c, 0, 55, 50
2, 305809, Control_c, 0, 64, 0
2, 305810, Note_on_c, 0, 57, 52
2, 305811, Note_on_c, 0, 75, 50
2, 306251, Control_c, 0, 64, 127
2, 306322, Note_on_c, 0, 79, 0
2, 306331, Note_on_c, 0, 75, 0
2, 306360, Note_on_c, 0, 55, 0
2, 306363, Note_on_c, 0, 63, 0
2, 306372, Note_on_c, 0, 87, 0
2, 306390, Note_on_c, 0, 57, 0
2, 306446, Note_on_c, 0, 60, 0
2, 306590, Note_on_c, 0, 74, 66
2, 306595, Note_on_c, 0, 82, 57
2, 306598, Note_on_c, 0, 60, 46
2, 306603, Note_on_c, 0, 63, 53
2, 306604, Note_on_c, 0, 86, 35
2, 306605, Note_on_c, 0, 79, 52
2, 306606, Note_on_c, 0, 57, 45
2, 306623, Note_on_c, 0, 74, 0
2, 306647, Note_on_c, 0, 63, 0
2, 306649, Note_on_c, 0, 86, 0
2, 306662, Note_on_c, 0, 79, 0
2, 306671, Note_on_c, 0, 57, 0
2, 306681, Note_on_c, 0, 60, 0
2, 306688, Note_on_c, 0, 82, 0
2, 306745, Note_on_c, 0, 75, 59
2, 306750, Note_on_c, 0, 63, 56
2, 306754, Note_on_c, 0, 87, 57
2, 306768, Note_on_c, 0, 60, 38
2, 306774, Note_on_c, 0, 57, 39
2, 306808, Note_on_c, 0, 60, 0
2, 306814, Note_on_c, 0, 63, 0
2, 306820, Note_on_c, 0, 75, 0
2, 306823, Note_on_c, 0, 57, 0
2, 306831, Note_on_c, 0, 87, 0
2, 306921, Note_on_c, 0, 76, 52
2, 306924, Note_on_c, 0, 63, 43
2, 306932, Note_on_c, 0, 60, 24
2, 306936, Note_on_c, 0, 85, 39
2, 306956, Note_on_c, 0, 63, 0
2, 306964, Note_on_c, 0, 76, 0
2, 306973, Note_on_c, 0, 85, 0
2, 306977, Note_on_c, 0, 60, 0
2, 307054, Note_on_c, 0, 63, 67
2, 307072, Note_on_c, 0, 55, 48
2, 307074, Note_on_c, 0, 60, 47
2, 307100, Note_on_c, 0, 57, 28
2, 307111, Note_on_c, 0, 55, 0
2, 307138, Note_on_c, 0, 63, 0
2, 307141, Note_on_c, 0, 57, 0
2, 307159, Note_on_c, 0, 60, 0
2, 307178, Control_c, 0, 64, 0
2, 307213, Note_on_c, 0, 84, 82
2, 307213, Note_on_c, 0, 58, 71
2, 307215, Note_on_c, 0, 60, 28
2, 307220, Note_on_c, 0, 77, 77
2, 307221, Note_on_c, 0, 89, 75
2, 307228, Note_on_c, 0, 65, 71
2, 307230, Note_on_c, 0, 54, 65
2, 307682, Control_c, 0, 64, 127
2, 307771, Note_on_c, 0, 77, 0
2, 307791, Note_on_c, 0, 84, 0
2, 307814, Note_on_c, 0, 89, 0
2, 307842, Note_on_c, 0, 65, 0
2, 307850, Note_on_c, 0, 58, 0
2, 307854, Note_on_c, 0, 60, 0
2, 307912, Note_on_c, 0, 54, 0
2, 307980, Control_c, 0, 64, 0
2, 307996, Note_on_c, 0, 92, 82
2, 307999, Note_on_c, 0, 54, 67
2, 308001, Note_on_c, 0, 80, 79
2, 308004, Note_on_c, 0, 87, 72
2, 308006, Note_on_c, 0, 65, 79
2, 308009, Note_on_c, 0, 58, 76
2, 308012, Note_on_c, 0, 60, 68
2, 308192, Note_on_c, 0, 60, 0
2, 308192, Note_on_c, 0, 80, 0
2, 308199, Note_on_c, 0, 65, 0
2, 308200, Note_on_c, 0, 58, 0
2, 308214, Note_on_c, 0, 92, 0
2, 308215, Note_on_c, 0, 87, 0
2, 308222, Note_on_c, 0, 54, 0
2, 308390, Note_on_c, 0, 60, 53
2, 308392, Note_on_c, 0, 65, 74
2, 308395, Control_c, 0, 64, 127
2, 308396, Note_on_c, 0, 58, 60
2, 308397, Note_on_c, 0, 54, 69
2, 308403, Note_on_c, 0, 86, 71
2, 308406, Note_on_c, 0, 91, 68
2, 308416, Note_on_c, 0, 79, 64
2, 308534, Note_on_c, 0, 91, 0
2, 308548, Note_on_c, 0, 86, 0
2, 308581, Note_on_c, 0, 79, 0
2, 308630, Note_on_c, 0, 65, 0
2, 308656, Note_on_c, 0, 60, 0
2, 308657, Note_on_c, 0, 54, 0
2, 308690, Note_on_c, 0, 58, 0
2, 308811, Note_on_c, 0, 58, 25
2, 308831, Note_on_c, 0, 60, 36
2, 308839, Note_on_c, 0, 54, 39
2, 308928, Note_on_c, 0, 60, 0
2, 308934, Note_on_c, 0, 58, 0
2, 308966, Note_on_c, 0, 54, 0
2, 309081, Control_c, 0, 64, 0
2, 309116, Note_on_c, 0, 63, 72
2, 309117, Note_on_c, 0, 75, 71
2, 309122, Note_on_c, 0, 58, 60
2, 309123, Note_on_c, 0, 87, 71
2, 309125, Note_on_c, 0, 52, 64
2, 309129, Note_on_c, 0, 82, 64
2, 309304, Note_on_c, 0, 75, 0
2, 309305, Note_on_c, 0, 87, 0
2, 309311, Note_on_c, 0, 52, 0
2, 309348, Note_on_c, 0, 63, 0
2, 309349, Note_on_c, 0, 82, 0
2, 309358, Note_on_c, 0, 58, 0
2, 309388, Control_c, 0, 64, 127
2, 309414, Note_on_c, 0, 87, 51
2, 309421, Note_on_c, 0, 82, 56
2, 309427, Note_on_c, 0, 75, 40
2, 309428, Note_on_c, 0, 63, 46
2, 309442, Note_on_c, 0, 58, 57
2, 309448, Note_on_c, 0, 52, 40
2, 309621, Note_on_c, 0, 52, 0
2, 309637, Note_on_c, 0, 87, 0
2, 309648, Note_on_c, 0, 75, 0
2, 309655, Note_on_c, 0, 63, 0
2, 309676, Note_on_c, 0, 82, 0
2, 309683, Note_on_c, 0, 58, 0
2, 309750, Note_on_c, 0, 63, 42
2, 309758, Note_on_c, 0, 85, 47
2, 309764, Note_on_c, 0, 58, 42
2, 309766, Note_on_c, 0, 80, 46
2, 309766, Note_on_c, 0, 73, 33
2, 309783, Note_on_c, 0, 52, 36
2, 309932, Note_on_c, 0, 52, 0
2, 309951, Note_on_c, 0, 80, 0
2, 309956, Note_on_c, 0, 73, 0
2, 309965, Note_on_c, 0, 63, 0
2, 309971, Note_on_c, 0, 85, 0
2, 309991, Note_on_c, 0, 58, 0
2, 310023, Control_c, 0, 64, 0
2, 310076, Note_on_c, 0, 85, 44
2, 310082, Note_on_c, 0, 63, 45
2, 310083, Note_on_c, 0, 73, 36
2, 310084, Note_on_c, 0, 80, 43
2, 310089, Note_on_c, 0, 58, 42
2, 310109, Note_on_c, 0, 52, 37
2, 310197, Control_c, 0, 64, 127
2, 310225, Note_on_c, 0, 85, 0
2, 310233, Note_on_c, 0, 80, 0
2, 310245, Note_on_c, 0, 73, 0
2, 310320, Note_on_c, 0, 52, 0
2, 310330, Note_on_c, 0, 58, 0
2, 310342, Note_on_c, 0, 63, 0
2, 310467, Control_c, 0, 64, 0
2, 310502, Note_on_c, 0, 63, 51
2, 310503, Note_on_c, 0, 82, 45
2, 310516, Note_on_c, 0, 75, 46
2, 310519, Note_on_c, 0, 58, 51
2, 310533, Note_on_c, 0, 52, 33
2, 310534, Note_on_c, 0, 70, 34
2, 310621, Control_c, 0, 64, 127
2, 310647, Note_on_c, 0, 82, 0
2, 310671, Note_on_c, 0, 63, 0
2, 310676, Note_on_c, 0, 75, 0
2, 310688, Note_on_c, 0, 70, 0
2, 310769, Note_on_c, 0, 58, 0
2, 310828, Note_on_c, 0, 52, 0
2, 310976, Note_on_c, 0, 51, 34
2, 311049, Note_on_c, 0, 51, 0
2, 311104, Note_on_c, 0, 56, 61
2, 311105, Note_on_c, 0, 63, 51
2, 311110, Note_on_c, 0, 53, 60
2, 311111, Note_on_c, 0, 60, 54
2, 311118, Note_on_c, 0, 51, 61
2, 311130, Control_c, 0, 64, 0
2, 312240, Note_on_c, 0, 60, 0
2, 312413, Note_on_c, 0, 53, 0
2, 312490, Note_on_c, 0, 63, 0
2, 312497, Note_on_c, 0, 60, 39
2, 312500, Note_on_c, 0, 48, 42
2, 312519, Note_on_c, 0, 51, 0
2, 312654, Note_on_c, 0, 60, 0
2, 312661, Note_on_c, 0, 56, 0
2, 312821, Note_on_c, 0, 51, 71
2, 312828, Note_on_c, 0, 56, 75
2, 312829, Note_on_c, 0, 60, 60
2, 312829, Note_on_c, 0, 63, 67
2, 312841, Note_on_c, 0, 53, 71
2, 312951, Note_on_c, 0, 63, 0
2, 312957, Note_on_c, 0, 53, 0
2, 312960, Note_on_c, 0, 51, 0
2, 312973, Note_on_c, 0, 56, 0
2, 312976, Note_on_c, 0, 60, 0
2, 312977, Note_on_c, 0, 48, 0
2, 313038, Note_on_c, 0, 50, 66
2, 313040, Note_on_c, 0, 56, 65
2, 313043, Note_on_c, 0, 62, 60
2, 313053, Note_on_c, 0, 60, 60
2, 313054, Note_on_c, 0, 53, 49
2, 313497, Control_c, 0, 64, 127
2, 313648, Note_on_c, 0, 53, 0
2, 313678, Note_on_c, 0, 60, 0
2, 313804, Note_on_c, 0, 56, 0
2, 313848, Note_on_c, 0, 62, 0
2, 313922, Control_c, 0, 64, 0
2, 313977, Note_on_c, 0, 63, 48
2, 313982, Note_on_c, 0, 56, 55
2, 313984, Note_on_c, 0, 59, 51
2, 313986, Note_on_c, 0, 50, 0
2, 313987, Note_on_c, 0, 53, 46
2, 313998, Note_on_c, 0, 43, 34
2, 314124, Control_c, 0, 64, 127
2, 314482, Note_on_c, 0, 43, 0
2, 314548, Note_on_c, 0, 59, 0
2, 314665, Note_on_c, 0, 56, 0
2, 314735, Note_on_c, 0, 63, 0
2, 314749, Note_on_c, 0, 53, 0
2, 314815, Control_c, 0, 64, 0
2, 314887, Note_on_c, 0, 60, 49
2, 314888, Note_on_c, 0, 56, 53
2, 314893, Note_on_c, 0, 44, 37
2, 314902, Note_on_c, 0, 51, 36
2, 315009, Control_c, 0, 64, 127
2, 315130, Note_on_c, 0, 56, 0
2, 315168, Note_on_c, 0, 60, 0
2, 315319, Note_on_c, 0, 44, 0
2, 315376, Note_on_c, 0, 51, 0
2, 315507, Note_on_c, 0, 65, 40
2, 315529, Control_c, 0, 64, 0
2, 315565, Note_on_c, 0, 65, 0
2, 315568, Note_on_c, 0, 66, 51
2, 315685, Note_on_c, 0, 66, 0
2, 315692, Note_on_c, 0, 68, 25
2, 315735, Note_on_c, 0, 70, 45
2, 315741, Note_on_c, 0, 68, 0
2, 315769, Note_on_c, 0, 70, 0
2, 315827, Note_on_c, 0, 72, 43
2, 315872, Note_on_c, 0, 72, 0
2, 315902, Note_on_c, 0, 73, 37
2, 315965, Note_on_c, 0, 73, 0
2, 315989, Note_on_c, 0, 75, 38
2, 316022, Note_on_c, 0, 75, 0
2, 316069, Note_on_c, 0, 77, 47
2, 316139, Note_on_c, 0, 77, 0
2, 316147, Note_on_c, 0, 78, 37
2, 316240, Note_on_c, 0, 78, 0
2, 316273, Note_on_c, 0, 82, 46
2, 316311, Note_on_c, 0, 82, 0
2, 316386, Note_on_c, 0, 84, 55
2, 316444, Note_on_c, 0, 84, 0
2, 316473, Note_on_c, 0, 85, 35
2, 316536, Note_on_c, 0, 85, 0
2, 316578, Note_on_c, 0, 87, 31
2, 316620, Note_on_c, 0, 87, 0
2, 316694, Note_on_c, 0, 89, 29
2, 316744, Note_on_c, 0, 89, 0
2, 316803, Note_on_c, 0, 90, 64
2, 316886, Note_on_c, 0, 90, 0
2, 317063, Note_on_c, 0, 63, 65
2, 317069, Note_on_c, 0, 92, 71
2, 317073, Note_on_c, 0, 58, 59
2, 317093, Note_on_c, 0, 52, 40
2, 317145, Note_on_c, 0, 52, 0
2, 317157, Note_on_c, 0, 63, 0
2, 317158, Note_on_c, 0, 92, 0
2, 317172, Note_on_c, 0, 58, 0
2, 317263, Note_on_c, 0, 63, 77
2, 317268, Note_on_c, 0, 94, 77
2, 317274, Note_on_c, 0, 58, 64
2, 317280, Note_on_c, 0, 52, 61
2, 317429, Note_on_c, 0, 52, 0
2, 317435, Note_on_c, 0, 63, 0
2, 317447, Note_on_c, 0, 94, 0
2, 317456, Note_on_c, 0, 58, 0
2, 317492, Note_on_c, 0, 90, 67
2, 317500, Note_on_c, 0, 63, 65
2, 317512, Note_on_c, 0, 58, 71
2, 317521, Note_on_c, 0, 52, 55
2, 317625, Note_on_c, 0, 52, 0
2, 317644, Note_on_c, 0, 63, 0
2, 317670, Note_on_c, 0, 58, 0
2, 317671, Note_on_c, 0, 90, 0
2, 317708, Note_on_c, 0, 89, 64
2, 317709, Note_on_c, 0, 63, 65
2, 317718, Note_on_c, 0, 58, 52
2, 317734, Note_on_c, 0, 52, 47
2, 317820, Note_on_c, 0, 52, 0
2, 317826, Note_on_c, 0, 63, 0
2, 317832, Note_on_c, 0, 89, 0
2, 317893, Note_on_c, 0, 63, 56
2, 317904, Note_on_c, 0, 87, 58
2, 317915, Note_on_c, 0, 52, 38
2, 318020, Control_c, 0, 64, 127
2, 318074, Note_on_c, 0, 52, 0
2, 318088, Note_on_c, 0, 63, 0
2, 318112, Note_on_c, 0, 58, 0
2, 318133, Note_on_c, 0, 87, 0
2, 318189, Note_on_c, 0, 63, 62
2, 318190, Note_on_c, 0, 90, 73
2, 318202, Note_on_c, 0, 58, 50
2, 318212, Note_on_c, 0, 52, 51
2, 318334, Note_on_c, 0, 52, 0
2, 318341, Note_on_c, 0, 63, 0
2, 318364, Note_on_c, 0, 58, 0
2, 318465, Note_on_c, 0, 90, 0
2, 318501, Note_on_c, 0, 87, 60
2, 318507, Note_on_c, 0, 63, 53
2, 318519, Note_on_c, 0, 58, 52
2, 318537, Note_on_c, 0, 52, 28
2, 318583, Note_on_c, 0, 63, 0
2, 318596, Note_on_c, 0, 52, 0
2, 318613, Note_on_c, 0, 87, 0
2, 318647, Note_on_c, 0, 90, 67
2, 318659, Note_on_c, 0, 63, 25
2, 318729, Note_on_c, 0, 63, 0
2, 318730, Note_on_c, 0, 58, 0
2, 318742, Control_c, 0, 64, 0
2, 318765, Note_on_c, 0, 90, 0
2, 318779, Note_on_c, 0, 63, 36
2, 318798, Note_on_c, 0, 60, 46
2, 318799, Note_on_c, 0, 89, 61
2, 318816, Note_on_c, 0, 53, 47
2, 318955, Control_c, 0, 64, 127
2, 319212, Note_on_c, 0, 89, 0
2, 319270, Note_on_c, 0, 63, 0
2, 319449, Note_on_c, 0, 60, 0
2, 319705, Note_on_c, 0, 63, 59
2, 319713, Note_on_c, 0, 60, 45
2, 319957, Note_on_c, 0, 63, 0
2, 320174, Note_on_c, 0, 60, 0
2, 320269, Note_on_c, 0, 53, 0
2, 320524, Note_on_c, 0, 50, 41
2, 320645, Note_on_c, 0, 50, 0
2, 320650, Control_c, 0, 64, 0
2, 320662, Note_on_c, 0, 60, 75
2, 320663, Note_on_c, 0, 55, 70
2, 320665, Note_on_c, 0, 67, 75
2, 320666, Note_on_c, 0, 56, 83
2, 320677, Note_on_c, 0, 63, 55
2, 321151, Control_c, 0, 64, 127
2, 321300, Note_on_c, 0, 67, 0
2, 321411, Note_on_c, 0, 55, 0
2, 321441, Note_on_c, 0, 43, 44
2, 321456, Note_on_c, 0, 60, 0
2, 321464, Note_on_c, 0, 56, 0
2, 321467, Note_on_c, 0, 63, 0
2, 321535, Control_c, 0, 64, 0
2, 321596, Note_on_c, 0, 53, 49
2, 321598, Note_on_c, 0, 65, 56
2, 321603, Note_on_c, 0, 56, 43
2, 321613, Note_on_c, 0, 59, 53
2, 321718, Control_c, 0, 64, 127
2, 321728, Note_on_c, 0, 43, 0
2, 321790, Note_on_c, 0, 53, 0
2, 321795, Note_on_c, 0, 56, 0
2, 321877, Note_on_c, 0, 59, 0
2, 321991, Note_on_c, 0, 65, 0
2, 322431, Note_on_c, 0, 62, 64
2, 322436, Note_on_c, 0, 51, 50
2, 322449, Note_on_c, 0, 57, 52
2, 322464, Note_on_c, 0, 62, 0
2, 322482, Note_on_c, 0, 51, 0
2, 322492, Note_on_c, 0, 57, 0
2, 322536, Note_on_c, 0, 65, 33
2, 322537, Control_c, 0, 64, 0
2, 322584, Note_on_c, 0, 66, 50
2, 322620, Note_on_c, 0, 65, 0
2, 322668, Note_on_c, 0, 66, 0
2, 322681, Note_on_c, 0, 67, 47
2, 322824, Note_on_c, 0, 67, 0
2, 322888, Note_on_c, 0, 72, 57
2, 322970, Note_on_c, 0, 72, 0
2, 323061, Note_on_c, 0, 72, 56
2, 323304, Note_on_c, 0, 72, 0
2, 323446, Note_on_c, 0, 57, 27
2, 323489, Note_on_c, 0, 57, 0
2, 323511, Note_on_c, 0, 65, 57
2, 323753, Note_on_c, 0, 65, 0
2, 324328, Note_on_c, 0, 63, 63
2, 324373, Note_on_c, 0, 60, 32
2, 324387, Note_on_c, 0, 57, 33
2, 324402, Note_on_c, 0, 63, 0
2, 324413, Note_on_c, 0, 60, 0
2, 324440, Note_on_c, 0, 57, 0
2, 324545, Note_on_c, 0, 65, 68
2, 324772, Note_on_c, 0, 65, 0
2, 325003, Note_on_c, 0, 63, 85
2, 325188, Note_on_c, 0, 63, 0
2, 325259, Note_on_c, 0, 65, 49
2, 325328, Note_on_c, 0, 63, 53
2, 325376, Note_on_c, 0, 65, 0
2, 325453, Note_on_c, 0, 62, 40
2, 325487, Note_on_c, 0, 63, 0
2, 325675, Note_on_c, 0, 62, 0
2, 325743, Note_on_c, 0, 60, 65
2, 325791, Note_on_c, 0, 57, 47
2, 325837, Note_on_c, 0, 57, 0
2, 325911, Note_on_c, 0, 60, 0
2, 326005, Note_on_c, 0, 59, 29
2, 326198, Note_on_c, 0, 59, 0
2, 326246, Note_on_c, 0, 60, 66
2, 326275, Note_on_c, 0, 55, 52
2, 326293, Note_on_c, 0, 47, 32
2, 326326, Note_on_c, 0, 55, 0
2, 326346, Note_on_c, 0, 47, 0
2, 326503, Note_on_c, 0, 62, 47
2, 326524, Note_on_c, 0, 60, 0
2, 326683, Note_on_c, 0, 62, 0
2, 326750, Note_on_c, 0, 63, 65
2, 326845, Note_on_c, 0, 63, 0
2, 327700, Note_on_c, 0, 59, 32
2, 327741, Note_on_c, 0, 59, 0
2, 327846, Note_on_c, 0, 71, 66
2, 327920, Note_on_c, 0, 71, 0
2, 327926, Note_on_c, 0, 72, 48
2, 328004, Note_on_c, 0, 72, 0
2, 328022, Note_on_c, 0, 71, 36
2, 328145, Note_on_c, 0, 71, 0
2, 328156, Note_on_c, 0, 70, 42
2, 328255, Note_on_c, 0, 70, 0
2, 328377, Note_on_c, 0, 74, 79
2, 328501, Note_on_c, 0, 76, 59
2, 328503, Note_on_c, 0, 74, 0
2, 328585, Note_on_c, 0, 74, 39
2, 328615, Note_on_c, 0, 76, 0
2, 328712, Note_on_c, 0, 73, 55
2, 328713, Note_on_c, 0, 74, 0
2, 328750, Note_on_c, 0, 60, 24
2, 328783, Note_on_c, 0, 73, 0
2, 328878, Note_on_c, 0, 60, 0
2, 328885, Note_on_c, 0, 79, 70
2, 328997, Note_on_c, 0, 81, 49
2, 329007, Note_on_c, 0, 79, 0
2, 329100, Note_on_c, 0, 79, 36
2, 329109, Note_on_c, 0, 81, 0
2, 329213, Note_on_c, 0, 78, 39
2, 329261, Note_on_c, 0, 62, 49
2, 329276, Note_on_c, 0, 79, 0
2, 329279, Note_on_c, 0, 60, 29
2, 329300, Note_on_c, 0, 78, 0
2, 329324, Note_on_c, 0, 60, 0
2, 329341, Note_on_c, 0, 62, 0
2, 329408, Note_on_c, 0, 83, 66
2, 329509, Note_on_c, 0, 83, 0
2, 329513, Note_on_c, 0, 84, 60
2, 329584, Note_on_c, 0, 84, 0
2, 329622, Note_on_c, 0, 83, 27
2, 329702, Note_on_c, 0, 82, 54
2, 329715, Note_on_c, 0, 83, 0
2, 329793, Note_on_c, 0, 82, 0
2, 329855, Note_on_c, 0, 84, 47
2, 329856, Note_on_c, 0, 83, 40
2, 329898, Note_on_c, 0, 83, 0
2, 330037, Note_on_c, 0, 86, 56
2, 330046, Note_on_c, 0, 84, 0
2, 330179, Note_on_c, 0, 86, 0
2, 330193, Note_on_c, 0, 88, 47
2, 330309, Note_on_c, 0, 88, 0
2, 330357, Note_on_c, 0, 89, 74
2, 330378, Note_on_c, 0, 67, 62
2, 330390, Note_on_c, 0, 63, 54
2, 330395, Note_on_c, 0, 60, 49
2, 330493, Note_on_c, 0, 67, 0
2, 330528, Note_on_c, 0, 89, 0
2, 330564, Note_on_c, 0, 60, 0
2, 330603, Note_on_c, 0, 63, 0
2, 330605, Note_on_c, 0, 86, 57
2, 330712, Note_on_c, 0, 86, 0
2, 330768, Note_on_c, 0, 87, 69
2, 330918, Note_on_c, 0, 79, 37
2, 330934, Note_on_c, 0, 87, 0
2, 331022, Note_on_c, 0, 79, 0
2, 331169, Note_on_c, 0, 79, 55
2, 331284, Note_on_c, 0, 79, 0
2, 331343, Note_on_c, 0, 75, 55
2, 331588, Note_on_c, 0, 75, 0
2, 331614, Note_on_c, 0, 67, 46
2, 331620, Note_on_c, 0, 72, 49
2, 331661, Note_on_c, 0, 67, 0
2, 331664, Note_on_c, 0, 72, 0
2, 332188, Note_on_c, 0, 60, 36
2, 332191, Note_on_c, 0, 63, 39
2, 332203, Note_on_c, 0, 57, 50
2, 332210, Note_on_c, 0, 55, 42
2, 332698, Control_c, 0, 64, 127
2, 332839, Note_on_c, 0, 63, 0
2, 332844, Note_on_c, 0, 55, 0
2, 332864, Note_on_c, 0, 57, 0
2, 332875, Note_on_c, 0, 60, 0
2, 332992, Note_on_c, 0, 81, 65
2, 332997, Note_on_c, 0, 60, 30
2, 333082, Note_on_c, 0, 60, 0
2, 333089, Note_on_c, 0, 81, 0
2, 333150, Note_on_c, 0, 63, 83
2, 333151, Note_on_c, 0, 84, 90
2, 333152, Note_on_c, 0, 57, 69
2, 333153, Note_on_c, 0, 72, 80
2, 333158, Note_on_c, 0, 60, 73
2, 333159, Note_on_c, 0, 55, 73
2, 333295, Note_on_c, 0, 72, 0
2, 333309, Note_on_c, 0, 84, 0
2, 333322, Note_on_c, 0, 55, 0
2, 333367, Note_on_c, 0, 63, 0
2, 333397, Note_on_c, 0, 60, 0
2, 333397, Note_on_c, 0, 57, 0
2, 333453, Note_on_c, 0, 63, 61
2, 333455, Note_on_c, 0, 75, 69
2, 333458, Note_on_c, 0, 87, 70
2, 333475, Note_on_c, 0, 60, 50
2, 333481, Note_on_c, 0, 57, 45
2, 333513, Note_on_c, 0, 60, 0
2, 333521, Note_on_c, 0, 75, 0
2, 333523, Note_on_c, 0, 87, 0
2, 333527, Note_on_c, 0, 63, 0
2, 333535, Note_on_c, 0, 57, 0
2, 333600, Note_on_c, 0, 63, 74
2, 333605, Note_on_c, 0, 55, 67
2, 333614, Note_on_c, 0, 60, 61
2, 333618, Note_on_c, 0, 89, 83
2, 333623, Note_on_c, 0, 77, 88
2, 333628, Note_on_c, 0, 57, 62
2, 333644, Note_on_c, 0, 88, 51
2, 333689, Note_on_c, 0, 88, 0
2, 333749, Note_on_c, 0, 89, 0
2, 333780, Note_on_c, 0, 77, 0
2, 333817, Control_c, 0, 64, 0
2, 333829, Note_on_c, 0, 63, 0
2, 333837, Note_on_c, 0, 55, 0
2, 333843, Note_on_c, 0, 60, 0
2, 333850, Note_on_c, 0, 57, 0
2, 333918, Note_on_c, 0, 63, 69
2, 333925, Note_on_c, 0, 55, 50
2, 333927, Note_on_c, 0, 60, 61
2, 333939, Note_on_c, 0, 87, 56
2, 333946, Note_on_c, 0, 75, 74
2, 333950, Note_on_c, 0, 57, 36
2, 333974, Note_on_c, 0, 82, 39
2, 334014, Note_on_c, 0, 82, 0
2, 334021, Note_on_c, 0, 55, 0
2, 334038, Note_on_c, 0, 57, 0
2, 334060, Note_on_c, 0, 87, 0
2, 334070, Note_on_c, 0, 75, 0
2, 334081, Note_on_c, 0, 63, 0
2, 334102, Note_on_c, 0, 60, 0
2, 334170, Note_on_c, 0, 84, 66
2, 334175, Note_on_c, 0, 54, 53
2, 334176, Note_on_c, 0, 65, 59
2, 334183, Note_on_c, 0, 60, 44
2, 334184, Note_on_c, 0, 58, 49
2, 334190, Note_on_c, 0, 72, 50
2, 334231, Control_c, 0, 64, 127
2, 334356, Control_c, 0, 64, 0
2, 334416, Note_on_c, 0, 65, 0
2, 334422, Note_on_c, 0, 84, 0
2, 334429, Note_on_c, 0, 54, 0
2, 334438, Note_on_c, 0, 72, 0
2, 334443, Note_on_c, 0, 60, 0
2, 334455, Note_on_c, 0, 58, 0
2, 334597, Note_on_c, 0, 65, 65
2, 334601, Note_on_c, 0, 54, 56
2, 334607, Note_on_c, 0, 84, 72
2, 334612, Note_on_c, 0, 60, 47
2, 334613, Note_on_c, 0, 58, 53
2, 334614, Note_on_c, 0, 72, 58
2, 335043, Control_c, 0, 64, 127
2, 335135, Note_on_c, 0, 84, 0
2, 335212, Note_on_c, 0, 72, 0
2, 335230, Note_on_c, 0, 65, 0
2, 335265, Note_on_c, 0, 58, 0
2, 335267, Note_on_c, 0, 60, 0
2, 335276, Note_on_c, 0, 54, 0
2, 335350, Control_c, 0, 64, 0
2, 335365, Note_on_c, 0, 54, 52
2, 335371, Note_on_c, 0, 82, 65
2, 335374, Note_on_c, 0, 60, 45
2, 335377, Note_on_c, 0, 65, 66
2, 335382, Note_on_c, 0, 58, 56
2, 335384, Note_on_c, 0, 70, 64
2, 335494, Control_c, 0, 64, 127
2, 335594, Note_on_c, 0, 70, 0
2, 335601, Note_on_c, 0, 65, 0
2, 335609, Note_on_c, 0, 54, 0
2, 335616, Note_on_c, 0, 82, 0
2, 335626, Note_on_c, 0, 60, 0
2, 335631, Note_on_c, 0, 58, 0
2, 335681, Note_on_c, 0, 80, 31
2, 335701, Note_on_c, 0, 68, 46
2, 335704, Note_on_c, 0, 65, 51
2, 335709, Note_on_c, 0, 54, 56
2, 335714, Note_on_c, 0, 58, 62
2, 335716, Note_on_c, 0, 60, 51
2, 335723, Note_on_c, 0, 75, 50
2, 335843, Note_on_c, 0, 65, 0
2, 335858, Note_on_c, 0, 60, 0
2, 335902, Note_on_c, 0, 68, 0
2, 335909, Note_on_c, 0, 80, 0
2, 335940, Note_on_c, 0, 54, 0
2, 335945, Note_on_c, 0, 75, 0
2, 335957, Control_c, 0, 64, 0
2, 335963, Note_on_c, 0, 58, 0
2, 336012, Note_on_c, 0, 64, 64
2, 336013, Note_on_c, 0, 74, 62
2, 336014, Note_on_c, 0, 79, 63
2, 336019, Note_on_c, 0, 67, 44
2, 336020, Note_on_c, 0, 53, 53
2, 336021, Note_on_c, 0, 59, 68
2, 336142, Control_c, 0, 64, 127
2, 336499, Note_on_c, 0, 64, 0
2, 336530, Note_on_c, 0, 59, 0
2, 336568, Note_on_c, 0, 53, 0
2, 336569, Note_on_c, 0, 74, 0
2, 336602, Note_on_c, 0, 79, 0
2, 336687, Note_on_c, 0, 67, 0
2, 336891, Control_c, 0, 64, 0
2, 336940, Note_on_c, 0, 78, 52
2, 336951, Note_on_c, 0, 63, 46
2, 336957, Note_on_c, 0, 52, 37
2, 336958, Note_on_c, 0, 73, 39
2, 336959, Note_on_c, 0, 66, 36
2, 336965, Note_on_c, 0, 58, 47
2, 337065, Control_c, 0, 64, 127
2, 337188, Note_on_c, 0, 63, 0
2, 337253, Note_on_c, 0, 52, 0
2, 337346, Note_on_c, 0, 58, 0
2, 337376, Note_on_c, 0, 66, 0
2, 337383, Note_on_c, 0, 73, 0
2, 337386, Note_on_c, 0, 78, 0
2, 337815, Control_c, 0, 64, 0
2, 337846, Note_on_c, 0, 70, 72
2, 337850, Note_on_c, 0, 63, 71
2, 337857, Note_on_c, 0, 58, 74
2, 337858, Note_on_c, 0, 60, 66
2, 337859, Note_on_c, 0, 67, 66
2, 338393, Control_c, 0, 64, 127
2, 338526, Note_on_c, 0, 67, 0
2, 338594, Note_on_c, 0, 60, 0
2, 338644, Note_on_c, 0, 63, 0
2, 338661, Note_on_c, 0, 70, 0
2, 338702, Note_on_c, 0, 68, 67
2, 338720, Note_on_c, 0, 60, 40
2, 338722, Note_on_c, 0, 56, 73
2, 338729, Note_on_c, 0, 63, 53
2, 338749, Note_on_c, 0, 58, 0
2, 338868, Note_on_c, 0, 60, 0
2, 338914, Control_c, 0, 64, 0
2, 338940, Note_on_c, 0, 63, 0
2, 338985, Note_on_c, 0, 68, 0
2, 338998, Note_on_c, 0, 56, 0
2, 339034, Note_on_c, 0, 67, 63
2, 339036, Note_on_c, 0, 60, 55
2, 339046, Note_on_c, 0, 63, 44
2, 339047, Note_on_c, 0, 58, 57
2, 339144, Control_c, 0, 64, 127
2, 339186, Note_on_c, 0, 63, 0
2, 339247, Note_on_c, 0, 60, 0
2, 339260, Note_on_c, 0, 58, 0
2, 339286, Note_on_c, 0, 67, 0
2, 339304, Note_on_c, 0, 56, 52
2, 339309, Note_on_c, 0, 63, 60
2, 339330, Note_on_c, 0, 60, 39
2, 339389, Note_on_c, 0, 60, 0
2, 339394, Note_on_c, 0, 56, 0
2, 339493, Note_on_c, 0, 63, 0
2, 339626, Control_c, 0, 64, 0
2, 339667, Note_on_c, 0, 59, 50
2, 339667, Note_on_c, 0, 62, 60
2, 339673, Note_on_c, 0, 56, 51
2, 339684, Note_on_c, 0, 46, 39
2, 340300, Control_c, 0, 64, 127
2, 340647, Note_on_c, 0, 56, 0
2, 340777, Note_on_c, 0, 62, 0
2, 340783, Note_on_c, 0, 56, 48
2, 341036, Note_on_c, 0, 59, 0
2, 341218, Note_on_c, 0, 46, 0
2, 341231, Note_on_c, 0, 56, 0
2, 341326, Note_on_c, 0, 62, 54
2, 341376, Control_c, 0, 64, 0
2, 341414, Note_on_c, 0, 62, 0
2, 341488, Note_on_c, 0, 63, 59
2, 341567, Note_on_c, 0, 63, 0
2, 341630, Note_on_c, 0, 64, 58
2, 341714, Note_on_c, 0, 64, 0
2, 341749, Note_on_c, 0, 56, 32
2, 341806, Note_on_c, 0, 66, 44
2, 341869, Note_on_c, 0, 56, 0
2, 341901, Note_on_c, 0, 66, 0
2, 341974, Note_on_c, 0, 68, 34
2, 342012, Note_on_c, 0, 68, 0
2, 342096, Note_on_c, 0, 71, 49
2, 342194, Note_on_c, 0, 71, 0
2, 342246, Note_on_c, 0, 73, 37
2, 342320, Note_on_c, 0, 73, 0
2, 342394, Note_on_c, 0, 76, 38
2, 342469, Note_on_c, 0, 76, 0
2, 342543, Note_on_c, 0, 78, 47
2, 342630, Note_on_c, 0, 78, 0
2, 342686, Note_on_c, 0, 63, 26
2, 342688, Note_on_c, 0, 58, 44
2, 342700, Note_on_c, 0, 80, 53
2, 342706, Note_on_c, 0, 52, 29
2, 342829, Note_on_c, 0, 80, 0
2, 342999, Note_on_c, 0, 83, 54
2, 343054, Note_on_c, 0, 52, 0
2, 343068, Note_on_c, 0, 58, 0
2, 343069, Note_on_c, 0, 83, 0
2, 343107, Note_on_c, 0, 63, 0
2, 343187, Note_on_c, 0, 85, 46
2, 343257, Note_on_c, 0, 85, 0
2, 343490, Note_on_c, 0, 87, 54
2, 343549, Note_on_c, 0, 87, 0
2, 343681, Note_on_c, 0, 88, 38
2, 343777, Note_on_c, 0, 88, 0
2, 343984, Note_on_c, 0, 90, 37
2, 344058, Note_on_c, 0, 90, 0
2, 344139, Note_on_c, 0, 63, 42
2, 344150, Note_on_c, 0, 59, 43
2, 344158, Control_c, 0, 64, 127
2, 344165, Note_on_c, 0, 92, 54
2, 344174, Note_on_c, 0, 52, 35
2, 344465, Note_on_c, 0, 92, 0
2, 344631, Note_on_c, 0, 93, 50
2, 344677, Note_on_c, 0, 59, 0
2, 344725, Note_on_c, 0, 52, 0
2, 344727, Note_on_c, 0, 63, 0
2, 344794, Note_on_c, 0, 93, 0
2, 344933, Note_on_c, 0, 94, 61
2, 345054, Note_on_c, 0, 94, 0
2, 345078, Note_on_c, 0, 63, 34
2, 345112, Note_on_c, 0, 59, 28
2, 345135, Note_on_c, 0, 98, 43
2, 345194, Note_on_c, 0, 59, 0
2, 345297, Note_on_c, 0, 63, 0
2, 345357, Note_on_c, 0, 98, 0
2, 345445, Note_on_c, 0, 101, 64
2, 345580, Note_on_c, 0, 101, 0
2, 345630, Control_c, 0, 64, 0
2, 345636, Note_on_c, 0, 65, 44
2, 345640, Note_on_c, 0, 62, 43
2, 345661, Note_on_c, 0, 98, 56
2, 345664, Note_on_c, 0, 60, 30
2, 345685, Note_on_c, 0, 55, 24
2, 345823, Note_on_c, 0, 55, 0
2, 345825, Note_on_c, 0, 60, 0
2, 345831, Note_on_c, 0, 62, 0
2, 345843, Note_on_c, 0, 98, 0
2, 345852, Note_on_c, 0, 65, 0
2, 346130, Note_on_c, 0, 65, 46
2, 346138, Note_on_c, 0, 94, 56
2, 346144, Note_on_c, 0, 62, 37
2, 346161, Note_on_c, 0, 60, 32
2, 346180, Note_on_c, 0, 55, 30
2, 346304, Control_c, 0, 64, 127
2, 346392, Note_on_c, 0, 62, 0
2, 346393, Note_on_c, 0, 65, 0
2, 346394, Note_on_c, 0, 55, 0
2, 346395, Note_on_c, 0, 60, 0
2, 346492, Note_on_c, 0, 91, 41
2, 346498, Note_on_c, 0, 94, 0
2, 346502, Note_on_c, 0, 65, 27
2, 346515, Note_on_c, 0, 62, 34
2, 346563, Note_on_c, 0, 62, 0
2, 346574, Note_on_c, 0, 65, 0
2, 346582, Note_on_c, 0, 91, 0
2, 346645, Note_on_c, 0, 94, 52
2, 346656, Note_on_c, 0, 65, 42
2, 346673, Note_on_c, 0, 62, 40
2, 346678, Note_on_c, 0, 60, 34
2, 346689, Note_on_c, 0, 55, 25
2, 346878, Note_on_c, 0, 55, 0
2, 346879, Note_on_c, 0, 65, 0
2, 346883, Note_on_c, 0, 60, 0
2, 346884, Note_on_c, 0, 62, 0
2, 346951, Note_on_c, 0, 94, 0
2, 346977, Note_on_c, 0, 91, 53
2, 346989, Note_on_c, 0, 65, 34
2, 346995, Note_on_c, 0, 62, 36
2, 347000, Note_on_c, 0, 60, 30
2, 347014, Note_on_c, 0, 55, 29
2, 347035, Control_c, 0, 64, 0
2, 347053, Note_on_c, 0, 62, 0
2, 347057, Note_on_c, 0, 91, 0
2, 347070, Note_on_c, 0, 55, 0
2, 347073, Note_on_c, 0, 65, 0
2, 347074, Note_on_c, 0, 60, 0
2, 347440, Note_on_c, 0, 65, 40
2, 347441, Note_on_c, 0, 94, 56
2, 347454, Note_on_c, 0, 86, 43
2, 347456, Note_on_c, 0, 62, 43
2, 347461, Note_on_c, 0, 60, 35
2, 347482, Note_on_c, 0, 55, 30
2, 347545, Control_c, 0, 64, 127
2, 347774, Note_on_c, 0, 94, 0
2, 347920, Note_on_c, 0, 86, 0
2, 348084, Note_on_c, 0, 65, 0
2, 348096, Note_on_c, 0, 60, 0
2, 348104, Note_on_c, 0, 62, 0
2, 348512, Note_on_c, 0, 65, 50
2, 348526, Note_on_c, 0, 62, 42
2, 348527, Note_on_c, 0, 60, 33
2, 348567, Note_on_c, 0, 62, 0
2, 348589, Note_on_c, 0, 60, 0
2, 348597, Note_on_c, 0, 65, 0
2, 348603, Note_on_c, 0, 55, 0
2, 349305, Note_on_c, 0, 62, 65
2, 349309, Note_on_c, 0, 81, 70
2, 349311, Note_on_c, 0, 69, 74
2, 349312, Note_on_c, 0, 60, 42
2, 349317, Note_on_c, 0, 65, 49
2, 349337, Note_on_c, 0, 62, 0
2, 349346, Note_on_c, 0, 69, 0
2, 349350, Note_on_c, 0, 60, 0
2, 349357, Note_on_c, 0, 65, 0
2, 349377, Note_on_c, 0, 81, 0
2, 349421, Control_c, 0, 64, 0
2, 349477, Note_on_c, 0, 62, 74
2, 349477, Note_on_c, 0, 70, 77
2, 349482, Note_on_c, 0, 82, 79
2, 349483, Note_on_c, 0, 65, 73
2, 349484, Note_on_c, 0, 55, 72
2, 349489, Note_on_c, 0, 60, 58
2, 349961, Control_c, 0, 64, 127
2, 350006, Note_on_c, 0, 70, 0
2, 350035, Note_on_c, 0, 65, 0
2, 350051, Note_on_c, 0, 55, 0
2, 350052, Note_on_c, 0, 60, 0
2, 350053, Note_on_c, 0, 62, 0
2, 350082, Note_on_c, 0, 82, 0
2, 350374, Control_c, 0, 64, 0
2, 350428, Note_on_c, 0, 65, 87
2, 350431, Note_on_c, 0, 90, 83
2, 350432, Note_on_c, 0, 85, 88
2, 350433, Note_on_c, 0, 78, 90
2, 350434, Note_on_c, 0, 60, 66
2, 350435, Note_on_c, 0, 62, 75
2, 350435, Note_on_c, 0, 55, 77
2, 350529, Control_c, 0, 64, 127
2, 350675, Note_on_c, 0, 55, 0
2, 350689, Note_on_c, 0, 65, 0
2, 350699, Note_on_c, 0, 78, 0
2, 350705, Note_on_c, 0, 90, 0
2, 350706, Note_on_c, 0, 62, 0
2, 350711, Note_on_c, 0, 85, 0
2, 350715, Note_on_c, 0, 60, 0
2, 350768, Note_on_c, 0, 65, 66
2, 350774, Note_on_c, 0, 55, 57
2, 350775, Note_on_c, 0, 62, 74
2, 350777, Note_on_c, 0, 91, 72
2, 350780, Note_on_c, 0, 86, 68
2, 350781, Note_on_c, 0, 60, 68
2, 350789, Note_on_c, 0, 79, 58
2, 350800, Control_c, 0, 64, 0
2, 350865, Note_on_c, 0, 79, 0
2, 350879, Note_on_c, 0, 65, 0
2, 350884, Note_on_c, 0, 62, 0
2, 350886, Note_on_c, 0, 86, 0
2, 350889, Note_on_c, 0, 60, 0
2, 350891, Note_on_c, 0, 91, 0
2, 350903, Note_on_c, 0, 55, 0
2, 351444, Note_on_c, 0, 91, 71
2, 351445, Control_c, 0, 64, 127
2, 351451, Note_on_c, 0, 86, 66
2, 351451, Note_on_c, 0, 65, 58
2, 351452, Note_on_c, 0, 79, 57
2, 351459, Note_on_c, 0, 62, 45
2, 351463, Note_on_c, 0, 60, 32
2, 351464, Note_on_c, 0, 55, 45
2, 351853, Note_on_c, 0, 91, 0
2, 351881, Note_on_c, 0, 86, 0
2, 351970, Note_on_c, 0, 65, 0
2, 351978, Note_on_c, 0, 79, 0
2, 352003, Note_on_c, 0, 60, 0
2, 352020, Note_on_c, 0, 62, 0
2, 352092, Note_on_c, 0, 55, 0
2, 352371, Note_on_c, 0, 65, 46
2, 352374, Note_on_c, 0, 60, 38
2, 352376, Note_on_c, 0, 62, 40
2, 352397, Note_on_c, 0, 55, 32
2, 352467, Note_on_c, 0, 65, 0
2, 352471, Note_on_c, 0, 62, 0
2, 352485, Note_on_c, 0, 60, 0
2, 352541, Note_on_c, 0, 55, 0
2, 353288, Note_on_c, 0, 59, 39
2, 353300, Note_on_c, 0, 55, 45
2, 353325, Note_on_c, 0, 51, 31
2, 353333, Control_c, 0, 64, 0
2, 353800, Note_on_c, 0, 66, 86
2, 353807, Note_on_c, 0, 70, 71
2, 353890, Note_on_c, 0, 66, 0
2, 353894, Note_on_c, 0, 70, 0
2, 353900, Note_on_c, 0, 59, 0
2, 353962, Note_on_c, 0, 67, 67
2, 353964, Note_on_c, 0, 55, 0
2, 353966, Note_on_c, 0, 71, 66
2, 354085, Note_on_c, 0, 71, 0
2, 354093, Note_on_c, 0, 67, 0
2, 354131, Note_on_c, 0, 62, 56
2, 354182, Note_on_c, 0, 59, 36
2, 354229, Note_on_c, 0, 59, 0
2, 354235, Note_on_c, 0, 62, 0
2, 354301, Note_on_c, 0, 61, 61
2, 354329, Note_on_c, 0, 67, 40
2, 354428, Note_on_c, 0, 61, 0
2, 354450, Note_on_c, 0, 62, 55
2, 354559, Note_on_c, 0, 62, 0
2, 354562, Note_on_c, 0, 67, 0
2, 354609, Note_on_c, 0, 59, 58
2, 354717, Note_on_c, 0, 59, 0
2, 354772, Note_on_c, 0, 58, 52
2, 354777, Note_on_c, 0, 61, 43
2, 354905, Note_on_c, 0, 58, 0
2, 354921, Note_on_c, 0, 61, 0
2, 354944, Note_on_c, 0, 59, 41
2, 354963, Note_on_c, 0, 62, 30
2, 355069, Note_on_c, 0, 59, 0
2, 355094, Note_on_c, 0, 55, 49
2, 355150, Note_on_c, 0, 62, 0
2, 355189, Note_on_c, 0, 55, 0
2, 355349, Note_on_c, 0, 51, 0
2, 356085, Note_on_c, 0, 51, 50
2, 356086, Note_on_c, 0, 59, 57
2, 356170, Note_on_c, 0, 59, 0
2, 356196, Note_on_c, 0, 51, 0
2, 356258, Note_on_c, 0, 67, 39
2, 356474, Note_on_c, 0, 67, 0
2, 356531, Note_on_c, 0, 70, 68
2, 356554, Note_on_c, 0, 51, 53
2, 356555, Note_on_c, 0, 59, 57
2, 356665, Note_on_c, 0, 59, 0
2, 356684, Note_on_c, 0, 51, 0
2, 356695, Note_on_c, 0, 70, 0
2, 356762, Note_on_c, 0, 71, 58
2, 356927, Note_on_c, 0, 71, 0
2, 357014, Note_on_c, 0, 63, 51
2, 357016, Note_on_c, 0, 72, 70
2, 357019, Note_on_c, 0, 60, 38
2, 357025, Note_on_c, 0, 53, 33
2, 357028, Note_on_c, 0, 56, 58
2, 357141, Note_on_c, 0, 72, 0
2, 357217, Note_on_c, 0, 74, 79
2, 357437, Note_on_c, 0, 74, 0
2, 357454, Note_on_c, 0, 75, 51
2, 357520, Note_on_c, 0, 63, 0
2, 357579, Note_on_c, 0, 74, 57
2, 357589, Note_on_c, 0, 75, 0
2, 357678, Note_on_c, 0, 74, 0
2, 357690, Note_on_c, 0, 72, 30
2, 357782, Note_on_c, 0, 60, 0
2, 357955, Note_on_c, 0, 71, 52
2, 357961, Note_on_c, 0, 72, 0
2, 358041, Note_on_c, 0, 71, 0
2, 358114, Note_on_c, 0, 74, 80
2, 358202, Note_on_c, 0, 56, 0
2, 358387, Note_on_c, 0, 74, 0
2, 358484, Note_on_c, 0, 63, 21
2, 358495, Note_on_c, 0, 60, 29
2, 358506, Note_on_c, 0, 56, 39
2, 358518, Note_on_c, 0, 63, 0
2, 358589, Note_on_c, 0, 72, 64
2, 358599, Note_on_c, 0, 60, 0
2, 358630, Note_on_c, 0, 56, 0
2, 358902, Note_on_c, 0, 68, 56
2, 358909, Note_on_c, 0, 72, 0
2, 358919, Note_on_c, 0, 63, 31
2, 358920, Note_on_c, 0, 56, 39
2, 358951, Note_on_c, 0, 53, 0
2, 359011, Note_on_c, 0, 63, 0
2, 359036, Note_on_c, 0, 56, 0
2, 359079, Control_c, 0, 64, 127
2, 359138, Note_on_c, 0, 68, 0
2, 359177, Note_on_c, 0, 56, 35
2, 359184, Note_on_c, 0, 65, 52
2, 359190, Note_on_c, 0, 62, 36
2, 359430, Note_on_c, 0, 62, 0
2, 359440, Note_on_c, 0, 56, 0
2, 359454, Control_c, 0, 64, 0
2, 359476, Note_on_c, 0, 65, 0
2, 359570, Control_c, 0, 64, 127
2, 359575, Note_on_c, 0, 64, 46
2, 359582, Note_on_c, 0, 56, 49
2, 359710, Note_on_c, 0, 56, 0
2, 359819, Note_on_c, 0, 64, 0
2, 359887, Note_on_c, 0, 63, 55
2, 359964, Control_c, 0, 64, 0
2, 360020, Note_on_c, 0, 63, 0
2, 360078, Note_on_c, 0, 56, 52
2, 360090, Note_on_c, 0, 62, 51
2, 360117, Control_c, 0, 64, 127
2, 360181, Note_on_c, 0, 62, 0
2, 360267, Note_on_c, 0, 56, 0
2, 360372, Note_on_c, 0, 77, 57
2, 360376, Control_c, 0, 64, 0
2, 360400, Note_on_c, 0, 56, 52
2, 360412, Note_on_c, 0, 62, 58
2, 360470, Note_on_c, 0, 62, 0
2, 360489, Note_on_c, 0, 77, 0
2, 360513, Note_on_c, 0, 56, 0
2, 360589, Control_c, 0, 64, 127
2, 360872, Note_on_c, 0, 56, 39
2, 360908, Note_on_c, 0, 56, 0
2, 360963, Control_c, 0, 64, 0
2, 361021, Note_on_c, 0, 75, 61
2, 361028, Note_on_c, 0, 55, 56
2, 361034, Note_on_c, 0, 70, 65
2, 361034, Note_on_c, 0, 60, 57
2, 361036, Note_on_c, 0, 63, 59
2, 361119, Control_c, 0, 64, 127
2, 361284, Note_on_c, 0, 60, 0
2, 361313, Note_on_c, 0, 55, 0
2, 361315, Note_on_c, 0, 63, 0
2, 361345, Note_on_c, 0, 70, 0
2, 361358, Note_on_c, 0, 75, 0
2, 361775, Control_c, 0, 64, 0
2, 361794, Note_on_c, 0, 77, 71
2, 361799, Note_on_c, 0, 60, 61
2, 361800, Note_on_c, 0, 72, 67
2, 361801, Note_on_c, 0, 65, 77
2, 361802, Note_on_c, 0, 55, 64
2, 361980, Control_c, 0, 64, 127
2, 362019, Note_on_c, 0, 60, 0
2, 362034, Note_on_c, 0, 55, 0
2, 362044, Note_on_c, 0, 65, 0
2, 362076, Note_on_c, 0, 72, 0
2, 362101, Note_on_c, 0, 77, 0
2, 362365, Control_c, 0, 64, 0
2, 362446, Note_on_c, 0, 79, 73
2, 362449, Note_on_c, 0, 74, 76
2, 362452, Note_on_c, 0, 58, 60
2, 362452, Note_on_c, 0, 67, 74
2, 362454, Note_on_c, 0, 62, 66
2, 362465, Note_on_c, 0, 51, 47
2, 362467, Note_on_c, 0, 55, 49
2, 362843, Note_on_c, 0, 79, 0
2, 362850, Note_on_c, 0, 62, 0
2, 362861, Note_on_c, 0, 74, 0
2, 362878, Note_on_c, 0, 55, 0
2, 362894, Note_on_c, 0, 58, 0
2, 362904, Control_c, 0, 64, 127
2, 362914, Note_on_c, 0, 67, 0
2, 362965, Note_on_c, 0, 51, 0
2, 363192, Control_c, 0, 64, 0
2, 363241, Note_on_c, 0, 70, 73
2, 363243, Note_on_c, 0, 55, 73
2, 363248, Note_on_c, 0, 65, 74
2, 363253, Note_on_c, 0, 60, 62
2, 363424, Note_on_c, 0, 60, 0
2, 363433, Note_on_c, 0, 65, 0
2, 363440, Note_on_c, 0, 70, 0
2, 363481, Note_on_c, 0, 55, 0
2, 363492, Control_c, 0, 64, 127
2, 363553, Note_on_c, 0, 64, 62
2, 363557, Note_on_c, 0, 69, 58
2, 363559, Note_on_c, 0, 59, 55
2, 363560, Note_on_c, 0, 54, 59
2, 363690, Note_on_c, 0, 69, 0
2, 363710, Note_on_c, 0, 59, 0
2, 363742, Note_on_c, 0, 64, 0
2, 363769, Control_c, 0, 64, 0
2, 363886, Note_on_c, 0, 70, 70
2, 363888, Note_on_c, 0, 65, 68
2, 363899, Note_on_c, 0, 54, 0
2, 363900, Note_on_c, 0, 55, 58
2, 363902, Note_on_c, 0, 60, 55
2, 363932, Control_c, 0, 64, 127
2, 364065, Note_on_c, 0, 65, 0
2, 364084, Note_on_c, 0, 70, 0
2, 364207, Note_on_c, 0, 60, 0
2, 364255, Note_on_c, 0, 55, 0
2, 364259, Control_c, 0, 64, 0
2, 364318, Note_on_c, 0, 46, 50
2, 364364, Note_on_c, 0, 51, 35
2, 364366, Control_c, 0, 64, 127
2, 364435, Note_on_c, 0, 63, 25
2, 364565, Note_on_c, 0, 63, 0
2, 364588, Note_on_c, 0, 46, 0
2, 364592, Note_on_c, 0, 51, 0
2, 364615, Control_c, 0, 64, 0
2, 364649, Note_on_c, 0, 60, 62
2, 364658, Note_on_c, 0, 45, 60
2, 364660, Note_on_c, 0, 55, 57
2, 364798, Control_c, 0, 64, 127
2, 364868, Note_on_c, 0, 55, 0
2, 364889, Note_on_c, 0, 45, 0
2, 364931, Note_on_c, 0, 60, 0
2, 365602, Note_on_c, 0, 63, 64
2, 365605, Note_on_c, 0, 74, 70
2, 365606, Note_on_c, 0, 67, 67
2, 365607, Note_on_c, 0, 57, 59
2, 365608, Note_on_c, 0, 79, 66
2, 365609, Control_c, 0, 64, 0
2, 365616, Note_on_c, 0, 60, 36
2, 365624, Note_on_c, 0, 55, 35
2, 365640, Note_on_c, 0, 67, 0
2, 365653, Note_on_c, 0, 60, 0
2, 365656, Note_on_c, 0, 74, 0
2, 365660, Note_on_c, 0, 63, 0
2, 365665, Note_on_c, 0, 55, 0
2, 365672, Note_on_c, 0, 79, 0
2, 365697, Note_on_c, 0, 57, 0
2, 365939, Note_on_c, 0, 81, 80
2, 365943, Note_on_c, 0, 69, 83
2, 365944, Note_on_c, 0, 76, 76
2, 365950, Note_on_c, 0, 63, 74
2, 365959, Note_on_c, 0, 55, 65
2, 365961, Note_on_c, 0, 57, 64
2, 365963, Note_on_c, 0, 78, 34
2, 365965, Note_on_c, 0, 60, 47
2, 365975, Control_c, 0, 64, 127
2, 365998, Note_on_c, 0, 78, 0
2, 366175, Note_on_c, 0, 81, 0
2, 366179, Note_on_c, 0, 55, 0
2, 366189, Note_on_c, 0, 69, 0
2, 366192, Note_on_c, 0, 76, 0
2, 366205, Note_on_c, 0, 63, 0
2, 366217, Note_on_c, 0, 57, 0
2, 366241, Note_on_c, 0, 60, 0
2, 366244, Control_c, 0, 64, 0
2, 366279, Note_on_c, 0, 63, 54
2, 366280, Note_on_c, 0, 79, 50
2, 366282, Note_on_c, 0, 67, 46
2, 366287, Note_on_c, 0, 74, 50
2, 366298, Note_on_c, 0, 60, 19
2, 366302, Note_on_c, 0, 57, 55
2, 366310, Note_on_c, 0, 55, 35
2, 366382, Control_c, 0, 64, 127
2, 366383, Note_on_c, 0, 67, 0
2, 366403, Note_on_c, 0, 74, 0
2, 366416, Note_on_c, 0, 63, 0
2, 366417, Note_on_c, 0, 55, 0
2, 366420, Note_on_c, 0, 79, 0
2, 366459, Control_c, 0, 64, 0
2, 366465, Note_on_c, 0, 57, 0
2, 366471, Note_on_c, 0, 60, 0
2, 366591, Note_on_c, 0, 60, 41
2, 366592, Note_on_c, 0, 63, 68
2, 366594, Note_on_c, 0, 81, 73
2, 366596, Note_on_c, 0, 75, 71
2, 366598, Note_on_c, 0, 69, 75
2, 366603, Note_on_c, 0, 57, 57
2, 366612, Note_on_c, 0, 55, 52
2, 366716, Note_on_c, 0, 75, 0
2, 366726, Note_on_c, 0, 76, 40
2, 366746, Note_on_c, 0, 55, 0
2, 366767, Note_on_c, 0, 63, 0
2, 366768, Note_on_c, 0, 69, 0
2, 366781, Note_on_c, 0, 76, 0
2, 366791, Note_on_c, 0, 81, 0
2, 366799, Note_on_c, 0, 57, 0
2, 366811, Note_on_c, 0, 60, 0
2, 367004, Note_on_c, 0, 75, 69
2, 367014, Note_on_c, 0, 81, 68
2, 367017, Note_on_c, 0, 69, 63
2, 367022, Note_on_c, 0, 63, 63
2, 367027, Control_c, 0, 64, 127
2, 367033, Note_on_c, 0, 60, 36
2, 367037, Note_on_c, 0, 57, 53
2, 367039, Note_on_c, 0, 55, 39
2, 367107, Note_on_c, 0, 76, 43
2, 367121, Note_on_c, 0, 75, 0
2, 367201, Note_on_c, 0, 55, 0
2, 367202, Note_on_c, 0, 81, 0
2, 367207, Note_on_c, 0, 69, 0
2, 367217, Note_on_c, 0, 63, 0
2, 367227, Note_on_c, 0, 76, 0
2, 367244, Note_on_c, 0, 57, 0
2, 367255, Note_on_c, 0, 60, 0
2, 367259, Control_c, 0, 64, 0
2, 367329, Note_on_c, 0, 79, 58
2, 367335, Note_on_c, 0, 74, 58
2, 367336, Note_on_c, 0, 67, 48
2, 367348, Note_on_c, 0, 63, 57
2, 367349, Note_on_c, 0, 60, 44
2, 367354, Note_on_c, 0, 57, 53
2, 367355, Control_c, 0, 64, 127
2, 367365, Note_on_c, 0, 55, 46
2, 367458, Note_on_c, 0, 67, 0
2, 367483, Note_on_c, 0, 74, 0
2, 367501, Note_on_c, 0, 55, 0
2, 367515, Note_on_c, 0, 79, 0
2, 367530, Note_on_c, 0, 63, 0
2, 367561, Note_on_c, 0, 57, 0
2, 367565, Control_c, 0, 64, 0
2, 367578, Note_on_c, 0, 60, 0
2, 367660, Note_on_c, 0, 75, 64
2, 367670, Note_on_c, 0, 81, 61
2, 367675, Note_on_c, 0, 63, 55
2, 367678, Note_on_c, 0, 60, 44
2, 367679, Note_on_c, 0, 69, 52
2, 367680, Note_on_c, 0, 57, 51
2, 367695, Note_on_c, 0, 55, 49
2, 367747, Control_c, 0, 64, 127
2, 367795, Note_on_c, 0, 75, 0
2, 367795, Note_on_c, 0, 76, 43
2, 367862, Note_on_c, 0, 55, 0
2, 367887, Note_on_c, 0, 81, 0
2, 367893, Note_on_c, 0, 69, 0
2, 367899, Note_on_c, 0, 63, 0
2, 367911, Control_c, 0, 64, 0
2, 367913, Note_on_c, 0, 57, 0
2, 367920, Note_on_c, 0, 76, 0
2, 367944, Note_on_c, 0, 60, 0
2, 368024, Note_on_c, 0, 79, 62
2, 368033, Note_on_c, 0, 63, 55
2, 368035, Note_on_c, 0, 67, 55
2, 368043, Note_on_c, 0, 60, 40
2, 368046, Note_on_c, 0, 55, 47
2, 368065, Note_on_c, 0, 57, 43
2, 368071, Note_on_c, 0, 74, 34
2, 368091, Note_on_c, 0, 67, 0
2, 368118, Note_on_c, 0, 74, 0
2, 368130, Note_on_c, 0, 79, 0
2, 368180, Control_c, 0, 64, 127
2, 368204, Note_on_c, 0, 55, 0
2, 368223, Note_on_c, 0, 60, 0
2, 368239, Note_on_c, 0, 63, 0
2, 368249, Note_on_c, 0, 57, 0
2, 368402, Control_c, 0, 64, 0
2, 368472, Note_on_c, 0, 79, 73
2, 368477, Note_on_c, 0, 74, 71
2, 368478, Note_on_c, 0, 67, 72
2, 368485, Note_on_c, 0, 54, 64
2, 368486, Note_on_c, 0, 60, 51
2, 368491, Note_on_c, 0, 64, 70
2, 368596, Control_c, 0, 64, 127
2, 368848, Note_on_c, 0, 79, 0
2, 368875, Note_on_c, 0, 67, 0
2, 368890, Note_on_c, 0, 64, 0
2, 368894, Note_on_c, 0, 60, 0
2, 368928, Note_on_c, 0, 74, 0
2, 368942, Note_on_c, 0, 54, 0
2, 369125, Control_c, 0, 64, 0
2, 369126, Note_on_c, 0, 54, 46
2, 369127, Note_on_c, 0, 78, 43
2, 369133, Note_on_c, 0, 64, 39
2, 369138, Note_on_c, 0, 60, 32
2, 369151, Note_on_c, 0, 66, 25
2, 369166, Note_on_c, 0, 73, 17
2, 369171, Note_on_c, 0, 74, 27
2, 369216, Note_on_c, 0, 66, 0
2, 369226, Note_on_c, 0, 74, 0
2, 369227, Note_on_c, 0, 73, 0
2, 369241, Note_on_c, 0, 64, 0
2, 369251, Note_on_c, 0, 78, 0
2, 369267, Note_on_c, 0, 60, 0
2, 369278, Control_c, 0, 64, 127
2, 369316, Note_on_c, 0, 54, 0
2, 369471, Control_c, 0, 64, 0
2, 369589, Note_on_c, 0, 81, 44
2, 369594, Note_on_c, 0, 76, 50
2, 369600, Note_on_c, 0, 64, 38
2, 369604, Note_on_c, 0, 69, 36
2, 369605, Note_on_c, 0, 60, 34
2, 369607, Note_on_c, 0, 54, 38
2, 370053, Note_on_c, 0, 60, 0
2, 370058, Note_on_c, 0, 64, 0
2, 370087, Control_c, 0, 64, 127
2, 370102, Note_on_c, 0, 54, 0
2, 370348, Control_c, 0, 64, 0
2, 370393, Note_on_c, 0, 66, 78
2, 370397, Note_on_c, 0, 61, 67
2, 370400, Note_on_c, 0, 55, 71
2, 370531, Note_on_c, 0, 69, 0
2, 370532, Note_on_c, 0, 55, 0
2, 370566, Note_on_c, 0, 66, 0
2, 370566, Note_on_c, 0, 76, 0
2, 370609, Note_on_c, 0, 61, 0
2, 370641, Note_on_c, 0, 81, 0
2, 370666, Note_on_c, 0, 64, 59
2, 370669, Note_on_c, 0, 60, 53
2, 370679, Note_on_c, 0, 54, 59
2, 371079, Control_c, 0, 64, 127
2, 371182, Note_on_c, 0, 64, 0
2, 371200, Note_on_c, 0, 54, 0
2, 371215, Note_on_c, 0, 60, 0
2, 371387, Note_on_c, 0, 60, 57
2, 371391, Note_on_c, 0, 64, 57
2, 371405, Note_on_c, 0, 54, 53
2, 371698, Note_on_c, 0, 64, 0
2, 371701, Note_on_c, 0, 60, 0
2, 371852, Note_on_c, 0, 64, 49
2, 371863, Note_on_c, 0, 60, 38
2, 371971, Control_c, 0, 64, 0
2, 371988, Note_on_c, 0, 54, 0
2, 372038, Note_on_c, 0, 60, 0
2, 372161, Note_on_c, 0, 64, 0
2, 372351, Note_on_c, 0, 65, 74
2, 372352, Note_on_c, 0, 61, 62
2, 372356, Note_on_c, 0, 60, 57
2, 372376, Note_on_c, 0, 55, 54
2, 372534, Note_on_c, 0, 79, 74
2, 372775, Note_on_c, 0, 79, 0
2, 372803, Note_on_c, 0, 81, 46
2, 372869, Note_on_c, 0, 79, 51
2, 372912, Note_on_c, 0, 81, 0
2, 372953, Note_on_c, 0, 55, 0
2, 372979, Note_on_c, 0, 78, 47
2, 372984, Note_on_c, 0, 65, 0
2, 372985, Note_on_c, 0, 79, 0
2, 373012, Note_on_c, 0, 78, 0
2, 373016, Note_on_c, 0, 60, 0
2, 373050, Note_on_c, 0, 79, 62
2, 373237, Note_on_c, 0, 61, 0
2, 373294, Note_on_c, 0, 79, 0
2, 373474, Note_on_c, 0, 79, 82
2, 373476, Note_on_c, 0, 81, 87
2, 373582, Note_on_c, 0, 81, 0
2, 373775, Note_on_c, 0, 61, 59
2, 373784, Note_on_c, 0, 65, 56
2, 373789, Note_on_c, 0, 60, 48
2, 373819, Note_on_c, 0, 65, 0
2, 373830, Note_on_c, 0, 60, 0
2, 373858, Note_on_c, 0, 61, 0
2, 374227, Note_on_c, 0, 78, 65
2, 374259, Note_on_c, 0, 79, 0
2, 374320, Note_on_c, 0, 78, 0
2, 374389, Control_c, 0, 64, 127
2, 374407, Note_on_c, 0, 79, 58
2, 374607, Note_on_c, 0, 79, 0
2, 374705, Note_on_c, 0, 81, 64
2, 374755, Control_c, 0, 64, 0
2, 374780, Note_on_c, 0, 81, 0
2, 374845, Note_on_c, 0, 84, 91
2, 374850, Note_on_c, 0, 72, 83
2, 374851, Note_on_c, 0, 60, 66
2, 374852, Note_on_c, 0, 61, 71
2, 374858, Note_on_c, 0, 65, 70
2, 374863, Note_on_c, 0, 55, 71
2, 374937, Control_c, 0, 64, 127
2, 375079, Note_on_c, 0, 84, 0
2, 375080, Note_on_c, 0, 55, 0
2, 375085, Note_on_c, 0, 65, 0
2, 375101, Control_c, 0, 64, 0
2, 375111, Note_on_c, 0, 72, 0
2, 375122, Note_on_c, 0, 60, 0
2, 375131, Note_on_c, 0, 61, 0
2, 375171, Note_on_c, 0, 84, 70
2, 375174, Note_on_c, 0, 72, 71
2, 375180, Note_on_c, 0, 61, 67
2, 375181, Note_on_c, 0, 65, 64
2, 375187, Note_on_c, 0, 60, 64
2, 375195, Note_on_c, 0, 55, 59
2, 375307, Note_on_c, 0, 84, 0
2, 375308, Note_on_c, 0, 55, 0
2, 375320, Note_on_c, 0, 65, 0
2, 375338, Note_on_c, 0, 72, 0
2, 375378, Note_on_c, 0, 61, 0
2, 375388, Control_c, 0, 64, 127
2, 375394, Note_on_c, 0, 60, 0
2, 375509, Note_on_c, 0, 60, 49
2, 375512, Note_on_c, 0, 61, 59
2, 375514, Note_on_c, 0, 65, 68
2, 375515, Note_on_c, 0, 69, 62
2, 375519, Note_on_c, 0, 81, 57
2, 375548, Note_on_c, 0, 55, 30
2, 375565, Note_on_c, 0, 80, 28
2, 375635, Note_on_c, 0, 65, 0
2, 375648, Note_on_c, 0, 81, 0
2, 375649, Note_on_c, 0, 55, 0
2, 375650, Note_on_c, 0, 80, 0
2, 375657, Note_on_c, 0, 69, 0
2, 375658, Control_c, 0, 64, 0
2, 375674, Note_on_c, 0, 61, 0
2, 375694, Note_on_c, 0, 60, 0
2, 375811, Note_on_c, 0, 61, 63
2, 375817, Note_on_c, 0, 65, 64
2, 375825, Note_on_c, 0, 55, 58
2, 375831, Control_c, 0, 64, 127
2, 375838, Note_on_c, 0, 60, 34
2, 375915, Note_on_c, 0, 65, 0
2, 375937, Note_on_c, 0, 60, 0
2, 375983, Note_on_c, 0, 55, 0
2, 375991, Note_on_c, 0, 61, 0
2, 376034, Control_c, 0, 64, 0
2, 376135, Note_on_c, 0, 79, 75
2, 376136, Note_on_c, 0, 76, 72
2, 376141, Note_on_c, 0, 57, 67
2, 376141, Note_on_c, 0, 55, 59
2, 376142, Note_on_c, 0, 72, 74
2, 376143, Note_on_c, 0, 67, 81
2, 376149, Note_on_c, 0, 60, 58
2, 376150, Note_on_c, 0, 64, 73
2, 376274, Control_c, 0, 64, 127
2, 376625, Note_on_c, 0, 79, 0
2, 376629, Note_on_c, 0, 67, 0
2, 376631, Note_on_c, 0, 55, 0
2, 376633, Note_on_c, 0, 64, 0
2, 376639, Note_on_c, 0, 76, 0
2, 376655, Note_on_c, 0, 72, 0
2, 376659, Note_on_c, 0, 60, 0
2, 376692, Note_on_c, 0, 57, 0
2, 376784, Note_on_c, 0, 78, 52
2, 376789, Note_on_c, 0, 57, 48
2, 376791, Note_on_c, 0, 66, 58
2, 376796, Note_on_c, 0, 64, 44
2, 376804, Note_on_c, 0, 72, 41
2, 376805, Note_on_c, 0, 60, 35
2, 376806, Note_on_c, 0, 55, 39
2, 376904, Note_on_c, 0, 64, 0
2, 376905, Note_on_c, 0, 66, 0
2, 376909, Note_on_c, 0, 72, 0
2, 376924, Note_on_c, 0, 60, 0
2, 376956, Note_on_c, 0, 78, 0
2, 376999, Note_on_c, 0, 57, 0
2, 377010, Note_on_c, 0, 55, 0
2, 377171, Control_c, 0, 64, 0
2, 377247, Note_on_c, 0, 75, 49
2, 377250, Note_on_c, 0, 81, 55
2, 377252, Note_on_c, 0, 69, 55
2, 377254, Note_on_c, 0, 78, 42
2, 377257, Note_on_c, 0, 57, 52
2, 377260, Note_on_c, 0, 60, 45
2, 377261, Note_on_c, 0, 64, 60
2, 377263, Note_on_c, 0, 55, 54
2, 377740, Control_c, 0, 64, 127
2, 377844, Note_on_c, 0, 60, 0
2, 377890, Note_on_c, 0, 64, 0
2, 377896, Note_on_c, 0, 55, 0
2, 377930, Note_on_c, 0, 57, 0
2, 378103, Note_on_c, 0, 69, 0
2, 378183, Note_on_c, 0, 75, 0
2, 378203, Control_c, 0, 64, 0
2, 378233, Note_on_c, 0, 78, 0
2, 378253, Note_on_c, 0, 60, 40
2, 378258, Note_on_c, 0, 64, 50
2, 378266, Note_on_c, 0, 81, 0
2, 378270, Note_on_c, 0, 54, 46
2, 378627, Note_on_c, 0, 94, 72
2, 378740, Note_on_c, 0, 94, 0
2, 378797, Note_on_c, 0, 64, 0
2, 378895, Note_on_c, 0, 90, 50
2, 378922, Note_on_c, 0, 60, 0
2, 379099, Note_on_c, 0, 90, 0
2, 379119, Note_on_c, 0, 60, 40
2, 379124, Note_on_c, 0, 89, 66
2, 379141, Note_on_c, 0, 64, 22
2, 379189, Note_on_c, 0, 64, 0
2, 379236, Note_on_c, 0, 89, 0
2, 379260, Control_c, 0, 64, 127
2, 379297, Control_c, 0, 64, 0
2, 379336, Control_c, 0, 64, 127
2, 379351, Note_on_c, 0, 87, 39
2, 379428, Note_on_c, 0, 54, 0
2, 379435, Note_on_c, 0, 60, 0
2, 379489, Note_on_c, 0, 87, 0
2, 379548, Control_c, 0, 64, 0
2, 379570, Note_on_c, 0, 86, 68
2, 379574, Note_on_c, 0, 60, 46
2, 379581, Note_on_c, 0, 54, 51
2, 379589, Note_on_c, 0, 64, 50
2, 379661, Note_on_c, 0, 64, 0
2, 379724, Note_on_c, 0, 86, 0
2, 379725, Note_on_c, 0, 54, 0
2, 379760, Control_c, 0, 64, 127
2, 379787, Note_on_c, 0, 85, 37
2, 379866, Note_on_c, 0, 60, 0
2, 380032, Note_on_c, 0, 84, 62
2, 380096, Note_on_c, 0, 85, 0
2, 380122, Note_on_c, 0, 84, 0
2, 380164, Control_c, 0, 64, 0
2, 380189, Note_on_c, 0, 63, 48
2, 380199, Note_on_c, 0, 85, 69
2, 380221, Note_on_c, 0, 55, 45
2, 380221, Note_on_c, 0, 57, 47
2, 380223, Note_on_c, 0, 60, 25
2, 380427, Note_on_c, 0, 85, 0
2, 380503, Note_on_c, 0, 86, 55
2, 380596, Note_on_c, 0, 86, 0
2, 380674, Note_on_c, 0, 87, 71
2, 380685, Control_c, 0, 64, 127
2, 380844, Note_on_c, 0, 57, 0
2, 380854, Note_on_c, 0, 55, 0
2, 380872, Note_on_c, 0, 63, 0
2, 380911, Note_on_c, 0, 60, 0
2, 380930, Note_on_c, 0, 87, 0
2, 380973, Control_c, 0, 64, 0
2, 380990, Note_on_c, 0, 87, 72
2, 380991, Note_on_c, 0, 75, 78
2, 381002, Note_on_c, 0, 60, 50
2, 381003, Note_on_c, 0, 63, 77
2, 381004, Note_on_c, 0, 84, 74
2, 381014, Note_on_c, 0, 57, 62
2, 381026, Note_on_c, 0, 55, 47
2, 381115, Note_on_c, 0, 55, 0
2, 381142, Note_on_c, 0, 63, 0
2, 381153, Note_on_c, 0, 87, 0
2, 381161, Note_on_c, 0, 75, 0
2, 381176, Note_on_c, 0, 84, 0
2, 381178, Note_on_c, 0, 57, 0
2, 381179, Note_on_c, 0, 60, 0
2, 381213, Control_c, 0, 64, 127
2, 381219, Note_on_c, 0, 63, 63
2, 381227, Note_on_c, 0, 87, 60
2, 381231, Note_on_c, 0, 57, 34
2, 381233, Note_on_c, 0, 75, 52
2, 381241, Note_on_c, 0, 60, 52
2, 381242, Note_on_c, 0, 55, 54
2, 381245, Note_on_c, 0, 84, 64
2, 381392, Note_on_c, 0, 55, 0
2, 381401, Note_on_c, 0, 87, 0
2, 381405, Note_on_c, 0, 75, 0
2, 381410, Note_on_c, 0, 84, 0
2, 381419, Note_on_c, 0, 63, 0
2, 381428, Note_on_c, 0, 57, 0
2, 381429, Note_on_c, 0, 60, 0
2, 381512, Control_c, 0, 64, 0
2, 381661, Note_on_c, 0, 63, 69
2, 381666, Note_on_c, 0, 87, 72
2, 381668, Note_on_c, 0, 75, 78
2, 381671, Note_on_c, 0, 57, 53
2, 381674, Note_on_c, 0, 60, 49
2, 381677, Note_on_c, 0, 84, 68
2, 381692, Note_on_c, 0, 55, 44
2, 381714, Control_c, 0, 64, 127
2, 381792, Note_on_c, 0, 84, 0
2, 381808, Note_on_c, 0, 55, 0
2, 381812, Note_on_c, 0, 87, 0
2, 381837, Note_on_c, 0, 63, 0
2, 381837, Note_on_c, 0, 75, 0
2, 381861, Note_on_c, 0, 60, 0
2, 381871, Note_on_c, 0, 57, 0
2, 381926, Control_c, 0, 64, 0
2, 382031, Note_on_c, 0, 84, 62
2, 382036, Note_on_c, 0, 72, 54
2, 382037, Note_on_c, 0, 81, 55
2, 382041, Note_on_c, 0, 63, 62
2, 382048, Note_on_c, 0, 60, 46
2, 382049, Note_on_c, 0, 57, 58
2, 382085, Note_on_c, 0, 72, 0
2, 382087, Note_on_c, 0, 60, 0
2, 382106, Note_on_c, 0, 63, 0
2, 382110, Note_on_c, 0, 84, 0
2, 382114, Note_on_c, 0, 81, 0
2, 382146, Note_on_c, 0, 57, 0
2, 382508, Note_on_c, 0, 84, 70
2, 382510, Note_on_c, 0, 81, 62
2, 382512, Note_on_c, 0, 72, 70
2, 382517, Note_on_c, 0, 57, 57
2, 382518, Note_on_c, 0, 63, 62
2, 382525, Note_on_c, 0, 60, 37
2, 382551, Note_on_c, 0, 55, 31
2, 382651, Control_c, 0, 64, 127
2, 383047, Note_on_c, 0, 84, 0
2, 383076, Note_on_c, 0, 63, 0
2, 383081, Note_on_c, 0, 81, 0
2, 383123, Note_on_c, 0, 72, 0
2, 383227, Note_on_c, 0, 55, 0
2, 383247, Note_on_c, 0, 60, 0
2, 383254, Note_on_c, 0, 57, 0
2, 383415, Note_on_c, 0, 63, 57
2, 383433, Note_on_c, 0, 57, 47
2, 383434, Note_on_c, 0, 55, 32
2, 383438, Note_on_c, 0, 60, 36
2, 383851, Note_on_c, 0, 55, 0
2, 383872, Note_on_c, 0, 60, 0
2, 383887, Note_on_c, 0, 81, 81
2, 383888, Note_on_c, 0, 63, 0
2, 383889, Note_on_c, 0, 57, 0
2, 384013, Note_on_c, 0, 81, 0
2, 384045, Control_c, 0, 64, 0
2, 384086, Note_on_c, 0, 60, 1
2, 384095, Note_on_c, 0, 64, 49
2, 384098, Note_on_c, 0, 78, 69
2, 384099, Note_on_c, 0, 54, 43
2, 384593, Control_c, 0, 64, 127
2, 384605, Note_on_c, 0, 64, 0
2, 384613, Control_c, 0, 64, 0
2, 384620, Note_on_c, 0, 75, 58
2, 384696, Note_on_c, 0, 60, 0
2, 384698, Note_on_c, 0, 78, 0
2, 384746, Note_on_c, 0, 75, 0
2, 384807, Note_on_c, 0, 72, 36
2, 384853, Note_on_c, 0, 72, 0
2, 384973, Note_on_c, 0, 69, 65
2, 385048, Note_on_c, 0, 69, 0
2, 385079, Note_on_c, 0, 54, 0
2, 385305, Note_on_c, 0, 66, 54
2, 385423, Note_on_c, 0, 66, 0
2, 385431, Note_on_c, 0, 63, 51
2, 385605, Note_on_c, 0, 60, 33
2, 385854, Note_on_c, 0, 60, 0
2, 385909, Note_on_c, 0, 63, 0
2, 385910, Note_on_c, 0, 54, 57
2, 386045, Note_on_c, 0, 54, 0
2, 386096, Control_c, 0, 64, 127
2, 386144, Control_c, 0, 64, 0
2, 386269, Control_c, 0, 64, 127
2, 386297, Control_c, 0, 64, 0
2, 386374, Note_on_c, 0, 78, 64
2, 386385, Note_on_c, 0, 72, 60
2, 386386, Note_on_c, 0, 75, 55
2, 386388, Note_on_c, 0, 69, 58
2, 386397, Note_on_c, 0, 62, 66
2, 386435, Note_on_c, 0, 62, 0
2, 386449, Note_on_c, 0, 69, 0
2, 386455, Note_on_c, 0, 72, 0
2, 386458, Note_on_c, 0, 75, 0
2, 386473, Note_on_c, 0, 78, 0
2, 386760, Note_on_c, 0, 75, 55
2, 386792, Note_on_c, 0, 66, 57
2, 386795, Note_on_c, 0, 69, 44
2, 386805, Note_on_c, 0, 60, 38
2, 386841, Note_on_c, 0, 69, 0
2, 386848, Note_on_c, 0, 60, 0
2, 386866, Note_on_c, 0, 75, 0
2, 386882, Note_on_c, 0, 66, 0
2, 387066, Note_on_c, 0, 60, 30
2, 387079, Note_on_c, 0, 72, 54
2, 387087, Note_on_c, 0, 66, 56
2, 387092, Note_on_c, 0, 63, 57
2, 387305, Note_on_c, 0, 63, 0
2, 387323, Note_on_c, 0, 66, 0
2, 387332, Note_on_c, 0, 60, 0
2, 387336, Note_on_c, 0, 72, 0
2, 387383, Note_on_c, 0, 57, 53
2, 387397, Note_on_c, 0, 63, 42
2, 387402, Note_on_c, 0, 66, 56
2, 387443, Control_c, 0, 64, 127
2, 387468, Note_on_c, 0, 63, 0
2, 387514, Note_on_c, 0, 57, 0
2, 387524, Note_on_c, 0, 66, 0
2, 387663, Control_c, 0, 64, 0
2, 387745, Note_on_c, 0, 67, 53
2, 387750, Note_on_c, 0, 60, 42
2, 387751, Note_on_c, 0, 55, 46
2, 387756, Note_on_c, 0, 64, 51
2, 388154, Control_c, 0, 64, 127
2, 388189, Note_on_c, 0, 43, 58
2, 388222, Note_on_c, 0, 60, 0
2, 388240, Control_c, 0, 64, 0
2, 388253, Note_on_c, 0, 55, 0
2, 388334, Note_on_c, 0, 67, 0
2, 388401, Note_on_c, 0, 60, 33
2, 388429, Note_on_c, 0, 64, 0
2, 388517, Note_on_c, 0, 60, 0
2, 388587, Control_c, 0, 64, 127
2, 388699, Note_on_c, 0, 50, 44
2, 388703, Control_c, 0, 64, 0
2, 388775, Note_on_c, 0, 50, 0
2, 388816, Note_on_c, 0, 43, 0
2, 388817, Note_on_c, 0, 69, 80
2, 388818, Note_on_c, 0, 64, 82
2, 388826, Note_on_c, 0, 59, 79
2, 388830, Note_on_c, 0, 53, 70
2, 389333, Note_on_c, 0, 53, 0
2, 389358, Note_on_c, 0, 59, 0
2, 389540, Control_c, 0, 64, 127
2, 389541, Note_on_c, 0, 64, 0
2, 389567, Note_on_c, 0, 69, 0
2, 389666, Control_c, 0, 64, 0
2, 389745, Note_on_c, 0, 64, 105
2, 389749, Note_on_c, 0, 57, 59
2, 389767, Note_on_c, 0, 55, 41
2, 389773, Note_on_c, 0, 60, 39
2, 389951, Note_on_c, 0, 55, 0
2, 389965, Note_on_c, 0, 60, 0
2, 390027, Note_on_c, 0, 57, 0
2, 390065, Note_on_c, 0, 64, 0
2, 390108, Note_on_c, 0, 65, 79
2, 390110, Note_on_c, 0, 57, 54
2, 390115, Note_on_c, 0, 64, 58
2, 390129, Note_on_c, 0, 60, 54
2, 390144, Note_on_c, 0, 55, 34
2, 390149, Note_on_c, 0, 64, 0
2, 390310, Control_c, 0, 64, 127
2, 390321, Note_on_c, 0, 60, 0
2, 390353, Note_on_c, 0, 55, 0
2, 390366, Note_on_c, 0, 57, 0
2, 390368, Note_on_c, 0, 65, 0
2, 390656, Control_c, 0, 64, 0
2, 390739, Note_on_c, 0, 64, 75
2, 390742, Note_on_c, 0, 59, 66
2, 390745, Note_on_c, 0, 68, 92
2, 390749, Note_on_c, 0, 53, 64
2, 390750, Note_on_c, 0, 74, 84
2, 391249, Note_on_c, 0, 64, 0
2, 391312, Note_on_c, 0, 74, 0
2, 391333, Note_on_c, 0, 59, 0
2, 391393, Note_on_c, 0, 53, 0
2, 391420, Note_on_c, 0, 68, 0
2, 391454, Note_on_c, 0, 74, 68
2, 391467, Control_c, 0, 64, 127
2, 391552, Note_on_c, 0, 74, 0
2, 391707, Control_c, 0, 64, 0
2, 391755, Note_on_c, 0, 64, 52
2, 391773, Note_on_c, 0, 56, 53
2, 391775, Note_on_c, 0, 59, 44
2, 391781, Note_on_c, 0, 49, 48
2, 392077, Note_on_c, 0, 64, 0
2, 392142, Note_on_c, 0, 64, 60
2, 392293, Control_c, 0, 64, 127
2, 392307, Note_on_c, 0, 64, 0
2, 392374, Note_on_c, 0, 59, 0
2, 392644, Note_on_c, 0, 64, 56
2, 392661, Note_on_c, 0, 59, 38
2, 392814, Note_on_c, 0, 64, 0
2, 392858, Note_on_c, 0, 56, 0
2, 392877, Note_on_c, 0, 59, 0
2, 392993, Note_on_c, 0, 59, 30
2, 392996, Note_on_c, 0, 64, 53
2, 393023, Note_on_c, 0, 49, 0
2, 393201, Note_on_c, 0, 59, 0
2, 393373, Note_on_c, 0, 64, 0
2, 393517, Control_c, 0, 64, 0
2, 393581, Note_on_c, 0, 58, 45
2, 393586, Note_on_c, 0, 64, 53
2, 393608, Note_on_c, 0, 42, 33
2, 393960, Control_c, 0, 64, 127
2, 394372, Note_on_c, 0, 58, 0
2, 394610, Note_on_c, 0, 49, 29
2, 394611, Note_on_c, 0, 58, 44
2, 394751, Note_on_c, 0, 42, 0
2, 394908, Note_on_c, 0, 64, 0
2, 395091, Note_on_c, 0, 58, 0
2, 395100, Note_on_c, 0, 42, 31
2, 395127, Note_on_c, 0, 49, 0
2, 395223, Note_on_c, 0, 42, 0
2, 395404, Note_on_c, 0, 46, 18
2, 395480, Note_on_c, 0, 47, 28
2, 395520, Control_c, 0, 64, 0
2, 395538, Note_on_c, 0, 46, 0
2, 395541, Note_on_c, 0, 47, 0
2, 395558, Note_on_c, 0, 48, 40
2, 395576, Note_on_c, 0, 58, 37
2, 395577, Note_on_c, 0, 65, 48
2, 395581, Note_on_c, 0, 55, 35
2, 395582, Note_on_c, 0, 62, 50
2, 395909, Note_on_c, 0, 48, 0
2, 395941, Note_on_c, 0, 55, 0
2, 396015, Note_on_c, 0, 58, 0
2, 396035, Note_on_c, 0, 62, 0
2, 396262, Note_on_c, 0, 65, 0
2, 396291, Control_c, 0, 64, 127
2, 396445, Control_c, 0, 64, 0
2, 396694, Control_c, 0, 64, 127
2, 396753, Control_c, 0, 64, 0
2, 396802, Note_on_c, 0, 62, 99
2, 396805, Note_on_c, 0, 50, 60
2, 396973, Control_c, 0, 64, 127
2, 396989, Note_on_c, 0, 50, 0
2, 396990, Note_on_c, 0, 62, 0
2, 397059, Note_on_c, 0, 63, 77
2, 397060, Note_on_c, 0, 51, 62
2, 397148, Note_on_c, 0, 51, 0
2, 397161, Note_on_c, 0, 63, 0
2, 397387, Control_c, 0, 64, 0
2, 397429, Note_on_c, 0, 72, 71
2, 397436, Note_on_c, 0, 63, 82
2, 397450, Note_on_c, 0, 41, 65
2, 397726, Control_c, 0, 64, 127
2, 398005, Note_on_c, 0, 63, 0
2, 398162, Note_on_c, 0, 72, 0
2, 398452, Note_on_c, 0, 72, 56
2, 398456, Note_on_c, 0, 53, 35
2, 398457, Note_on_c, 0, 63, 58
2, 398506, Note_on_c, 0, 53, 0
2, 398609, Note_on_c, 0, 41, 0
2, 398951, Note_on_c, 0, 63, 0
2, 399129, Note_on_c, 0, 72, 0
2, 399389, Control_c, 0, 64, 0
2, 399400, Note_on_c, 0, 24, 81
2, 399401, Note_on_c, 0, 36, 81
2, 399407, Note_on_c, 0, 63, 93
2, 399408, Note_on_c, 0, 72, 87
2, 399411, Note_on_c, 0, 67, 85
2, 399718, Note_on_c, 0, 72, 0
2, 399718, Note_on_c, 0, 63, 0
2, 399731, Note_on_c, 0, 67, 0
2, 399749, Note_on_c, 0, 24, 0
2, 399762, Note_on_c, 0, 36, 0
2, 400113, Note_on_c, 0, 55, 78
2, 400118, Note_on_c, 0, 43, 60
2, 400668, Control_c, 0, 64, 127
2, 401341, Note_on_c, 0, 43, 0
2, 401541, Note_on_c, 0, 55, 0
2, 401710, Note_on_c, 0, 60, 72
2, 401714, Note_on_c, 0, 55, 73
2, 401715, Note_on_c, 0, 51, 77
2, 401715, Note_on_c, 0, 39, 75
2, 401726, Control_c, 0, 64, 0
2, 401948, Control_c, 0, 64, 127
2, 402019, Note_on_c, 0, 51, 0
2, 402049, Note_on_c, 0, 39, 0
2, 402181, Note_on_c, 0, 55, 0
2, 402257, Note_on_c, 0, 60, 0
2, 402341, Control_c, 0, 64, 0
2, 402347, Note_on_c, 0, 62, 77
2, 402352, Note_on_c, 0, 55, 71
2, 402356, Note_on_c, 0, 47, 68
2, 402359, Note_on_c, 0, 35, 67
2, 402562, Control_c, 0, 64, 127
2, 402710, Note_on_c, 0, 35, 0
2, 402803, Note_on_c, 0, 47, 0
2, 402816, Note_on_c, 0, 55, 0
2, 402892, Note_on_c, 0, 62, 0
2, 403092, Control_c, 0, 64, 0
2, 403096, Note_on_c, 0, 63, 68
2, 403110, Note_on_c, 0, 55, 57
2, 403117, Note_on_c, 0, 60, 49
2, 403122, Note_on_c, 0, 48, 57
2, 403132, Note_on_c, 0, 36, 45
2, 403333, Control_c, 0, 64, 127
2, 403452, Note_on_c, 0, 48, 0
2, 403502, Note_on_c, 0, 36, 0
2, 403634, Note_on_c, 0, 55, 0
2, 404574, Note_on_c, 0, 60, 0
2, 405015, Note_on_c, 0, 63, 0
2, 405323, Note_on_c, 0, 65, 55
2, 405343, Note_on_c, 0, 53, 41
2, 405345, Note_on_c, 0, 60, 44
2, 405350, Note_on_c, 0, 44, 37
2, 405352, Note_on_c, 0, 32, 42
2, 405356, Control_c, 0, 64, 0
2, 405626, Control_c, 0, 64, 127
2, 405649, Note_on_c, 0, 32, 0
2, 405695, Note_on_c, 0, 53, 0
2, 405715, Note_on_c, 0, 65, 0
2, 405733, Note_on_c, 0, 60, 0
2, 405744, Note_on_c, 0, 44, 0
2, 406233, Note_on_c, 0, 67, 48
2, 406251, Note_on_c, 0, 63, 42
2, 406256, Note_on_c, 0, 59, 50
2, 406264, Note_on_c, 0, 55, 30
2, 406269, Control_c, 0, 64, 0
2, 406283, Note_on_c, 0, 37, 42
2, 406597, Control_c, 0, 64, 127
2, 406750, Note_on_c, 0, 44, 49
2, 406779, Note_on_c, 0, 55, 0
2, 406789, Note_on_c, 0, 59, 0
2, 406800, Note_on_c, 0, 37, 0
2, 407120, Note_on_c, 0, 44, 0
2, 407146, Note_on_c, 0, 63, 0
2, 407190, Note_on_c, 0, 67, 0
2, 407296, Note_on_c, 0, 53, 17
2, 407580, Note_on_c, 0, 56, 45
2, 407581, Note_on_c, 0, 53, 0
2, 407973, Note_on_c, 0, 79, 46
2, 407982, Note_on_c, 0, 59, 33
2, 407995, Note_on_c, 0, 75, 33
2, 407996, Note_on_c, 0, 71, 35
2, 408009, Note_on_c, 0, 67, 20
2, 408468, Note_on_c, 0, 63, 29
2, 408655, Note_on_c, 0, 79, 0
2, 408675, Note_on_c, 0, 71, 0
2, 408687, Note_on_c, 0, 75, 0
2, 408729, Note_on_c, 0, 67, 0
2, 408732, Note_on_c, 0, 63, 0
2, 408890, Note_on_c, 0, 59, 0
2, 408949, Note_on_c, 0, 56, 0
2, 409486, Note_on_c, 0, 67, 67
2, 410048, Note_on_c, 0, 67, 0
2, 410254, Control_c, 0, 64, 0
2, 410255, Note_on_c, 0, 67, 60
2, 410256, Note_on_c, 0, 65, 59
2, 410266, Note_on_c, 0, 60, 59
2, 410277, Note_on_c, 0, 38, 45
2, 410278, Note_on_c, 0, 57, 62
2, 410287, Note_on_c, 0, 26, 44
2, 410505, Control_c, 0, 64, 127
2, 410513, Control_c, 0, 64, 127
2, 410746, Control_c, 0, 64, 0
2, 410876, Note_on_c, 0, 67, 0
2, 410911, Note_on_c, 0, 26, 0
2, 411015, Note_on_c, 0, 67, 58
2, 411097, Note_on_c, 0, 38, 0
2, 411602, Note_on_c, 0, 67, 0
2, 411828, Note_on_c, 0, 67, 48
2, 412360, Note_on_c, 0, 67, 0
2, 412556, Note_on_c, 0, 67, 44
2, 412694, Note_on_c, 0, 60, 0
2, 412795, Note_on_c, 0, 57, 0
2, 412937, Note_on_c, 0, 65, 0
2, 413011, Note_on_c, 0, 67, 0
2, 413527, Note_on_c, 0, 67, 48
2, 413545, Note_on_c, 0, 59, 37
2, 413547, Control_c, 0, 64, 0
2, 413553, Note_on_c, 0, 61, 30
2, 413554, Note_on_c, 0, 63, 47
2, 413556, Note_on_c, 0, 53, 35
2, 413558, Note_on_c, 0, 43, 38
2, 413914, Control_c, 0, 64, 127
2, 414082, Note_on_c, 0, 67, 0
2, 414299, Note_on_c, 0, 43, 0
2, 414307, Note_on_c, 0, 67, 37
2, 414309, Note_on_c, 0, 59, 0
2, 414367, Note_on_c, 0, 53, 0
2, 414371, Note_on_c, 0, 61, 0
2, 414387, Note_on_c, 0, 63, 0
2, 414510, Note_on_c, 0, 67, 0
2, 415157, Note_on_c, 0, 79, 32
2, 415165, Note_on_c, 0, 67, 36
2, 415175, Note_on_c, 0, 91, 45
2, 415486, Note_on_c, 0, 67, 0
2, 415589, Note_on_c, 0, 91, 0
2, 415654, Note_on_c, 0, 79, 0
2, 416276, Note_on_c, 0, 67, 38
2, 416526, Control_c, 0, 64, 127
2, 418065, Note_on_c, 0, 67, 0
2, 418353, Control_c, 0, 64, 0
2, 418655, Note_on_c, 0, 63, 25
2, 418661, Note_on_c, 0, 48, 58
2, 418716, Note_on_c, 0, 67, 57
2, 418782, Note_on_c, 0, 74, 67
2, 418998, Control_c, 0, 64, 127
2, 419166, Note_on_c, 0, 51, 51
2, 419446, Note_on_c, 0, 55, 44
2, 419601, Note_on_c, 0, 63, 0
2, 419633, Note_on_c, 0, 48, 0
2, 419725, Note_on_c, 0, 55, 0
2, 419737, Note_on_c, 0, 59, 42
2, 419738, Note_on_c, 0, 51, 0
2, 419936, Note_on_c, 0, 67, 0
2, 419969, Note_on_c, 0, 74, 0
2, 420040, Note_on_c, 0, 59, 0
2, 420063, Note_on_c, 0, 63, 27
2, 420064, Note_on_c, 0, 62, 42
2, 420064, Note_on_c, 0, 67, 49
2, 420128, Note_on_c, 0, 63, 0
2, 420432, Note_on_c, 0, 63, 55
2, 420453, Note_on_c, 0, 62, 0
2, 420598, Note_on_c, 0, 67, 0
2, 420849, Note_on_c, 0, 67, 37
2, 420850, Note_on_c, 0, 63, 0
2, 421219, Note_on_c, 0, 71, 46
2, 421346, Note_on_c, 0, 67, 0
2, 421582, Note_on_c, 0, 74, 55
2, 421663, Note_on_c, 0, 71, 0
2, 421829, Note_on_c, 0, 74, 0
2, 421858, Note_on_c, 0, 75, 69
2, 422036, Note_on_c, 0, 75, 0
2, 422118, Note_on_c, 0, 79, 72
2, 422306, Note_on_c, 0, 79, 0
2, 422382, Note_on_c, 0, 82, 74
2, 422597, Note_on_c, 0, 82, 0
2, 422660, Note_on_c, 0, 83, 75
2, 422926, Note_on_c, 0, 84, 70
2, 422938, Note_on_c, 0, 83, 0
2, 423107, Note_on_c, 0, 84, 0
2, 423248, Note_on_c, 0, 89, 45
2, 423249, Note_on_c, 0, 91, 36
2, 423375, Note_on_c, 0, 89, 0
2, 423482, Note_on_c, 0, 91, 0
2, 423567, Note_on_c, 0, 95, 46
2, 423870, Note_on_c, 0, 95, 0
2, 423935, Note_on_c, 0, 41, 37
2, 423943, Note_on_c, 0, 91, 53
2, 423944, Note_on_c, 0, 98, 51
2, 423964, Note_on_c, 0, 57, 36
2, 423965, Control_c, 0, 64, 0
2, 424185, Control_c, 0, 64, 127
2, 424230, Note_on_c, 0, 98, 0
2, 424282, Note_on_c, 0, 91, 0
2, 424357, Note_on_c, 0, 57, 0
2, 424369, Note_on_c, 0, 48, 30
2, 424473, Note_on_c, 0, 41, 0
2, 424684, Note_on_c, 0, 48, 0
2, 424744, Note_on_c, 0, 57, 36
2, 424747, Note_on_c, 0, 74, 44
2, 424750, Note_on_c, 0, 67, 43
2, 424794, Note_on_c, 0, 57, 0
2, 424841, Note_on_c, 0, 67, 0
2, 424892, Note_on_c, 0, 74, 0
2, 425144, Note_on_c, 0, 63, 37
2, 425560, Note_on_c, 0, 86, 37
2, 425564, Note_on_c, 0, 74, 35
2, 425572, Note_on_c, 0, 67, 31
2, 425694, Note_on_c, 0, 74, 0
2, 425759, Note_on_c, 0, 63, 0
2, 425787, Note_on_c, 0, 86, 0
2, 426008, Note_on_c, 0, 63, 34
2, 426078, Note_on_c, 0, 67, 0
2, 426460, Note_on_c, 0, 67, 32
2, 426480, Note_on_c, 0, 86, 33
2, 426487, Note_on_c, 0, 98, 30
2, 426677, Note_on_c, 0, 63, 0
2, 426938, Note_on_c, 0, 86, 0
2, 426986, Note_on_c, 0, 63, 25
2, 427025, Note_on_c, 0, 67, 0
2, 427074, Note_on_c, 0, 98, 0
2, 427624, Note_on_c, 0, 107, 34
2, 427630, Note_on_c, 0, 67, 28
2, 427718, Note_on_c, 0, 103, 14
2, 427724, Note_on_c, 0, 98, 3
2, 427911, Note_on_c, 0, 67, 0
2, 427925, Note_on_c, 0, 63, 0
2, 427932, Note_on_c, 0, 103, 0
2, 427947, Note_on_c, 0, 98, 0
2, 427970, Note_on_c, 0, 107, 0
2, 430545, Control_c, 0, 64, 0
2, 430545, End_track
3, 0, Start_track
3, 0, Title_t, " Bass"
3, 0, Program_c, 1, 32
3, 0, Control_c, 1, 7, 106
3, 30804, Note_on_c, 1, 43, 43
3, 31779, Note_on_c, 1, 36, 30
3, 31811, Note_on_c, 1, 43, 0
3, 34585, Note_on_c, 1, 36, 0
3, 34585, Note_on_c, 1, 55, 46
3, 35071, Note_on_c, 1, 43, 56
3, 35110, Note_on_c, 1, 55, 0
3, 35576, Note_on_c, 1, 36, 64
3, 35592, Note_on_c, 1, 43, 0
3, 37993, Note_on_c, 1, 55, 76
3, 38073, Note_on_c, 1, 36, 0
3, 38496, Note_on_c, 1, 43, 42
3, 38503, Note_on_c, 1, 55, 0
3, 38982, Note_on_c, 1, 31, 44
3, 39073, Note_on_c, 1, 43, 0
3, 39467, Note_on_c, 1, 36, 57
3, 39496, Note_on_c, 1, 31, 0
3, 42236, Note_on_c, 1, 55, 60
3, 42716, Note_on_c, 1, 36, 0
3, 42729, Note_on_c, 1, 43, 64
3, 42969, Note_on_c, 1, 55, 0
3, 43243, Note_on_c, 1, 36, 72
3, 43284, Note_on_c, 1, 43, 0
3, 46599, Note_on_c, 1, 31, 45
3, 46604, Note_on_c, 1, 36, 0
3, 47087, Note_on_c, 1, 31, 0
3, 47100, Note_on_c, 1, 36, 54
3, 49039, Note_on_c, 1, 48, 68
3, 49074, Note_on_c, 1, 36, 0
3, 50920, Note_on_c, 1, 47, 61
3, 50950, Note_on_c, 1, 48, 0
3, 52828, Note_on_c, 1, 35, 48
3, 53880, Note_on_c, 1, 47, 0
3, 54733, Note_on_c, 1, 46, 77
3, 54761, Note_on_c, 1, 35, 0
3, 56651, Note_on_c, 1, 46, 0
3, 56680, Note_on_c, 1, 45, 77
3, 58048, Note_on_c, 1, 33, 62
3, 58175, Note_on_c, 1, 45, 0
3, 58570, Note_on_c, 1, 32, 68
3, 58624, Note_on_c, 1, 33, 0
3, 59552, Note_on_c, 1, 43, 74
3, 59617, Note_on_c, 1, 32, 0
3, 60409, Note_on_c, 1, 43, 0
3, 60529, Note_on_c, 1, 42, 62
3, 62403, Note_on_c, 1, 42, 0
3, 62435, Note_on_c, 1, 29, 67
3, 64354, Note_on_c, 1, 38, 83
3, 64404, Note_on_c, 1, 29, 0
3, 65318, Note_on_c, 1, 31, 71
3, 65329, Note_on_c, 1, 38, 0
3, 66216, Note_on_c, 1, 31, 0
3, 66264, Note_on_c, 1, 32, 76
3, 68249, Note_on_c, 1, 30, 68
3, 68299, Note_on_c, 1, 32, 0
3, 70077, Note_on_c, 1, 30, 0
3, 70119, Note_on_c, 1, 29, 70
3, 72082, Note_on_c, 1, 31, 63
3, 72104, Note_on_c, 1, 29, 0
3, 73865, Note_on_c, 1, 31, 0
3, 73905, Note_on_c, 1, 36, 57
3, 76374, Note_on_c, 1, 55, 75
3, 76446, Note_on_c, 1, 36, 0
3, 76817, Note_on_c, 1, 55, 0
3, 76851, Note_on_c, 1, 43, 44
3, 77328, Note_on_c, 1, 31, 48
3, 77419, Note_on_c, 1, 43, 0
3, 77824, Note_on_c, 1, 36, 60
3, 77848, Note_on_c, 1, 31, 0
3, 80729, Note_on_c, 1, 55, 71
3, 80851, Note_on_c, 1, 36, 0
3, 81180, Note_on_c, 1, 43, 53
3, 81196, Note_on_c, 1, 55, 0
3, 81667, Note_on_c, 1, 36, 66
3, 81687, Note_on_c, 1, 43, 0
3, 84034, Note_on_c, 1, 55, 80
3, 84131, Note_on_c, 1, 36, 0
3, 84514, Note_on_c, 1, 43, 58
3, 84551, Note_on_c, 1, 55, 0
3, 84652, Note_on_c, 1, 43, 0
3, 84751, Note_on_c, 1, 43, 36
3, 85002, Note_on_c, 1, 31, 46
3, 85095, Note_on_c, 1, 43, 0
3, 85493, Note_on_c, 1, 36, 67
3, 85515, Note_on_c, 1, 31, 0
3, 88857, Note_on_c, 1, 31, 37
3, 88869, Note_on_c, 1, 36, 0
3, 89360, Note_on_c, 1, 36, 56
3, 89364, Note_on_c, 1, 31, 0
3, 92210, Note_on_c, 1, 48, 73
3, 92211, Note_on_c, 1, 36, 0
3, 93076, Note_on_c, 1, 48, 0
3, 93145, Note_on_c, 1, 47, 66
3, 95691, Note_on_c, 1, 35, 33
3, 96171, Note_on_c, 1, 35, 0
3, 96358, Note_on_c, 1, 35, 50
3, 96850, Note_on_c, 1, 47, 0
3, 96882, Note_on_c, 1, 34, 62
3, 96887, Note_on_c, 1, 35, 0
3, 98861, Note_on_c, 1, 34, 0
3, 98877, Note_on_c, 1, 33, 74
3, 100855, Note_on_c, 1, 33, 0
3, 100908, Note_on_c, 1, 44, 49
3, 102830, Note_on_c, 1, 43, 62
3, 102855, Note_on_c, 1, 44, 0
3, 103815, Note_on_c, 1, 42, 71
3, 103845, Note_on_c, 1, 43, 0
3, 104813, Note_on_c, 1, 42, 0
3, 104817, Note_on_c, 1, 41, 62
3, 106762, Note_on_c, 1, 46, 76
3, 106802, Note_on_c, 1, 41, 0
3, 108518, Note_on_c, 1, 40, 58
3, 108593, Note_on_c, 1, 46, 0
3, 109193, Note_on_c, 1, 56, 50
3, 111571, Note_on_c, 1, 40, 0
3, 111870, Note_on_c, 1, 40, 34
3, 112301, Note_on_c, 1, 56, 0
3, 112371, Note_on_c, 1, 39, 46
3, 112433, Note_on_c, 1, 40, 0
3, 115428, Note_on_c, 1, 51, 40
3, 115521, Note_on_c, 1, 51, 0
3, 115872, Note_on_c, 1, 51, 35
3, 116085, Note_on_c, 1, 39, 0
3, 116318, Note_on_c, 1, 51, 0
3, 116320, Note_on_c, 1, 39, 35
3, 118154, Note_on_c, 1, 46, 50
3, 118231, Note_on_c, 1, 39, 0
3, 119239, Control_c, 1, 64, 127
3, 121455, Control_c, 1, 64, 0
3, 121497, Note_on_c, 1, 39, 64
3, 121500, Note_on_c, 1, 46, 0
3, 121693, Control_c, 1, 64, 127
3, 121952, Note_on_c, 1, 47, 53
3, 121965, Control_c, 1, 64, 0
3, 122984, Control_c, 1, 64, 127
3, 123203, Note_on_c, 1, 39, 0
3, 123429, Note_on_c, 1, 39, 54
3, 123458, Note_on_c, 1, 47, 0
3, 123866, Note_on_c, 1, 39, 0
3, 123881, Control_c, 1, 64, 0
3, 123882, Note_on_c, 1, 41, 54
3, 124967, Control_c, 1, 64, 127
3, 125853, Note_on_c, 1, 46, 83
3, 125860, Note_on_c, 1, 41, 0
3, 125900, Control_c, 1, 64, 0
3, 126496, Control_c, 1, 64, 127
3, 127064, Control_c, 1, 64, 0
3, 127124, Note_on_c, 1, 56, 83
3, 127157, Note_on_c, 1, 58, 31
3, 127259, Note_on_c, 1, 46, 0
3, 127405, Note_on_c, 1, 46, 49
3, 127508, Control_c, 1, 64, 127
3, 127554, Note_on_c, 1, 46, 0
3, 127575, Control_c, 1, 64, 0
3, 127613, Control_c, 1, 64, 127
3, 127738, Control_c, 1, 64, 0
3, 127744, Note_on_c, 1, 58, 0
3, 127746, Note_on_c, 1, 55, 68
3, 127811, Note_on_c, 1, 56, 0
3, 128226, Note_on_c, 1, 46, 35
3, 128421, Control_c, 1, 64, 127
3, 128449, Control_c, 1, 64, 0
3, 128497, Control_c, 1, 64, 127
3, 128711, Control_c, 1, 64, 0
3, 128728, Note_on_c, 1, 55, 0
3, 128752, Note_on_c, 1, 39, 48
3, 128763, Note_on_c, 1, 46, 0
3, 129633, Control_c, 1, 64, 127
3, 131070, Note_on_c, 1, 34, 70
3, 131088, Note_on_c, 1, 39, 0
3, 131116, Control_c, 1, 64, 0
3, 131203, Control_c, 1, 64, 127
3, 131528, Note_on_c, 1, 34, 0
3, 131572, Note_on_c, 1, 33, 78
3, 131616, Control_c, 1, 64, 0
3, 132592, Note_on_c, 1, 39, 91
3, 132681, Note_on_c, 1, 33, 0
3, 133595, Control_c, 1, 64, 127
3, 135061, Note_on_c, 1, 45, 74
3, 135135, Note_on_c, 1, 39, 0
3, 135468, Control_c, 1, 64, 0
3, 135485, Note_on_c, 1, 45, 0
3, 135486, Note_on_c, 1, 38, 70
3, 135853, Control_c, 1, 64, 127
3, 136841, Note_on_c, 1, 54, 77
3, 137256, Control_c, 1, 64, 0
3, 137556, Control_c, 1, 64, 127
3, 138299, Control_c, 1, 64, 0
3, 138309, Note_on_c, 1, 45, 90
3, 138356, Note_on_c, 1, 38, 0
3, 138606, Control_c, 1, 64, 127
3, 138791, Control_c, 1, 64, 0
3, 138817, Note_on_c, 1, 54, 0
3, 138823, Note_on_c, 1, 38, 72
3, 138846, Note_on_c, 1, 45, 0
3, 138954, Control_c, 1, 64, 127
3, 139286, Note_on_c, 1, 38, 0
3, 139292, Note_on_c, 1, 39, 86
3, 139311, Control_c, 1, 64, 0
3, 140603, Control_c, 1, 64, 127
3, 142649, Note_on_c, 1, 51, 57
3, 143089, Control_c, 1, 64, 0
3, 143102, Note_on_c, 1, 51, 0
3, 143108, Note_on_c, 1, 45, 68
3, 143114, Note_on_c, 1, 39, 0
3, 143417, Control_c, 1, 64, 127
3, 144088, Note_on_c, 1, 38, 66
3, 144098, Note_on_c, 1, 45, 0
3, 144110, Control_c, 1, 64, 0
3, 145071, Control_c, 1, 64, 127
3, 145937, Note_on_c, 1, 45, 85
3, 145976, Control_c, 1, 64, 0
3, 146007, Note_on_c, 1, 38, 0
3, 146083, Control_c, 1, 64, 127
3, 146427, Note_on_c, 1, 45, 0
3, 146432, Note_on_c, 1, 34, 83
3, 146477, Control_c, 1, 64, 0
3, 146583, Control_c, 1, 64, 127
3, 146848, Note_on_c, 1, 34, 0
3, 146906, Note_on_c, 1, 33, 99
3, 146938, Control_c, 1, 64, 0
3, 148036, Control_c, 1, 64, 127
3, 148866, Note_on_c, 1, 39, 87
3, 148900, Control_c, 1, 64, 0
3, 148926, Note_on_c, 1, 33, 0
3, 149864, Control_c, 1, 64, 127
3, 150778, Control_c, 1, 64, 0
3, 150805, Note_on_c, 1, 39, 0
3, 150816, Note_on_c, 1, 38, 62
3, 151434, Note_on_c, 1, 54, 37
3, 152127, Control_c, 1, 64, 127
3, 153704, Note_on_c, 1, 45, 90
3, 153765, Note_on_c, 1, 38, 0
3, 153790, Control_c, 1, 64, 0
3, 153905, Control_c, 1, 64, 127
3, 154607, Note_on_c, 1, 50, 74
3, 154634, Note_on_c, 1, 45, 0
3, 154638, Control_c, 1, 64, 0
3, 154726, Note_on_c, 1, 54, 0
3, 155667, Control_c, 1, 64, 127
3, 155695, Control_c, 1, 64, 0
3, 155744, Control_c, 1, 64, 127
3, 156032, Note_on_c, 1, 43, 70
3, 156081, Control_c, 1, 64, 0
3, 156216, Control_c, 1, 64, 127
3, 156513, Control_c, 1, 64, 0
3, 156524, Note_on_c, 1, 31, 74
3, 156561, Note_on_c, 1, 50, 0
3, 157014, Note_on_c, 1, 43, 0
3, 158423, Note_on_c, 1, 37, 80
3, 158472, Note_on_c, 1, 31, 0
3, 160366, Note_on_c, 1, 42, 69
3, 160422, Note_on_c, 1, 37, 0
3, 162027, Control_c, 1, 64, 127
3, 162201, Control_c, 1, 64, 0
3, 162295, Note_on_c, 1, 42, 0
3, 162301, Note_on_c, 1, 36, 71
3, 163969, Control_c, 1, 64, 127
3, 164191, Control_c, 1, 64, 0
3, 164242, Note_on_c, 1, 41, 80
3, 164294, Note_on_c, 1, 36, 0
3, 165723, Control_c, 1, 64, 127
3, 166059, Control_c, 1, 64, 0
3, 166184, Note_on_c, 1, 48, 55
3, 166215, Note_on_c, 1, 41, 0
3, 166672, Note_on_c, 1, 48, 0
3, 168284, Note_on_c, 1, 39, 56
3, 168722, Note_on_c, 1, 39, 0
3, 168780, Note_on_c, 1, 35, 53
3, 169286, Note_on_c, 1, 35, 0
3, 169340, Note_on_c, 1, 36, 60
3, 170700, Note_on_c, 1, 36, 0
3, 170780, Note_on_c, 1, 32, 46
3, 171886, Note_on_c, 1, 37, 36
3, 172800, Note_on_c, 1, 32, 0
3, 174406, Note_on_c, 1, 38, 46
3, 174437, Note_on_c, 1, 37, 0
3, 176160, Note_on_c, 1, 43, 27
3, 176640, Control_c, 1, 64, 127
3, 176640, Control_c, 1, 64, 0
3, 176643, Note_on_c, 1, 38, 0
3, 179576, Note_on_c, 1, 43, 0
3, 180073, Note_on_c, 1, 31, 37
3, 180480, Note_on_c, 1, 36, 43
3, 180513, Note_on_c, 1, 31, 0
3, 182407, Note_on_c, 1, 36, 34
3, 182657, Control_c, 1, 64, 127
3, 183429, Note_on_c, 1, 36, 0
3, 184340, Note_on_c, 1, 36, 0
3, 184341, Note_on_c, 1, 35, 53
3, 184359, Control_c, 1, 64, 0
3, 185331, Control_c, 1, 64, 127
3, 185945, Note_on_c, 1, 47, 39
3, 186044, Control_c, 1, 64, 0
3, 186072, Note_on_c, 1, 47, 0
3, 186074, Note_on_c, 1, 46, 45
3, 186222, Note_on_c, 1, 46, 0
3, 186263, Note_on_c, 1, 47, 44
3, 186526, Control_c, 1, 64, 127
3, 186889, Note_on_c, 1, 35, 0
3, 187712, Note_on_c, 1, 35, 59
3, 188021, Note_on_c, 1, 47, 0
3, 188183, Note_on_c, 1, 34, 67
3, 188193, Note_on_c, 1, 35, 0
3, 188199, Control_c, 1, 64, 0
3, 188661, Control_c, 1, 64, 127
3, 188979, Control_c, 1, 64, 0
3, 189132, Control_c, 1, 64, 127
3, 190089, Note_on_c, 1, 33, 73
3, 190115, Control_c, 1, 64, 0
3, 190146, Note_on_c, 1, 34, 0
3, 190480, Control_c, 1, 64, 127
3, 192018, Note_on_c, 1, 32, 79
3, 192029, Control_c, 1, 64, 0
3, 192046, Note_on_c, 1, 33, 0
3, 192386, Control_c, 1, 64, 127
3, 193010, Note_on_c, 1, 31, 68
3, 193020, Control_c, 1, 64, 0
3, 193079, Note_on_c, 1, 32, 0
3, 193280, Control_c, 1, 64, 127
3, 194017, Note_on_c, 1, 30, 60
3, 194051, Control_c, 1, 64, 0
3, 194059, Note_on_c, 1, 31, 0
3, 194956, Control_c, 1, 64, 127
3, 195888, Control_c, 1, 64, 0
3, 195890, Note_on_c, 1, 29, 61
3, 195956, Note_on_c, 1, 30, 0
3, 196859, Control_c, 1, 64, 127
3, 197746, Control_c, 1, 64, 0
3, 197768, Note_on_c, 1, 38, 77
3, 197794, Note_on_c, 1, 29, 0
3, 198160, Control_c, 1, 64, 127
3, 198728, Control_c, 1, 64, 0
3, 198750, Note_on_c, 1, 31, 61
3, 198759, Note_on_c, 1, 38, 0
3, 199037, Control_c, 1, 64, 127
3, 199698, Note_on_c, 1, 32, 79
3, 199708, Control_c, 1, 64, 0
3, 199720, Note_on_c, 1, 31, 0
3, 200787, Control_c, 1, 64, 127
3, 201595, Control_c, 1, 64, 0
3, 201612, Note_on_c, 1, 30, 62
3, 201662, Note_on_c, 1, 32, 0
3, 202529, Control_c, 1, 64, 127
3, 203451, Note_on_c, 1, 30, 0
3, 203452, Note_on_c, 1, 29, 61
3, 203460, Control_c, 1, 64, 0
3, 204539, Control_c, 1, 64, 127
3, 205459, Note_on_c, 1, 31, 60
3, 205463, Control_c, 1, 64, 0
3, 205485, Note_on_c, 1, 29, 0
3, 206416, Control_c, 1, 64, 127
3, 206867, Note_on_c, 1, 35, 51
3, 206898, Control_c, 1, 64, 0
3, 206946, Control_c, 1, 64, 127
3, 207080, Note_on_c, 1, 31, 0
3, 207329, Control_c, 1, 64, 0
3, 207367, Note_on_c, 1, 35, 0
3, 207370, Note_on_c, 1, 36, 55
3, 207733, Control_c, 1, 64, 127
3, 209280, Note_on_c, 1, 48, 78
3, 209390, Control_c, 1, 64, 0
3, 209804, Control_c, 1, 64, 127
3, 210165, Note_on_c, 1, 36, 0
3, 210607, Note_on_c, 1, 36, 40
3, 210655, Note_on_c, 1, 36, 0
3, 210965, Note_on_c, 1, 36, 39
3, 211106, Note_on_c, 1, 36, 0
3, 211140, Control_c, 1, 64, 0
3, 211224, Note_on_c, 1, 48, 0
3, 211259, Note_on_c, 1, 47, 66
3, 212199, Note_on_c, 1, 35, 48
3, 212682, Note_on_c, 1, 47, 0
3, 215053, Note_on_c, 1, 34, 67
3, 215088, Note_on_c, 1, 35, 0
3, 216969, Note_on_c, 1, 33, 74
3, 217033, Note_on_c, 1, 34, 0
3, 218912, Note_on_c, 1, 32, 81
3, 218948, Note_on_c, 1, 33, 0
3, 220756, Note_on_c, 1, 31, 71
3, 220808, Note_on_c, 1, 32, 0
3, 221711, Note_on_c, 1, 31, 0
3, 221732, Note_on_c, 1, 30, 61
3, 222718, Note_on_c, 1, 29, 64
3, 222797, Note_on_c, 1, 30, 0
3, 224686, Note_on_c, 1, 29, 0
3, 224765, Note_on_c, 1, 34, 81
3, 226540, Note_on_c, 1, 28, 74
3, 226709, Note_on_c, 1, 34, 0
3, 229010, Note_on_c, 1, 40, 49
3, 229522, Note_on_c, 1, 44, 67
3, 229842, Note_on_c, 1, 28, 0
3, 229975, Note_on_c, 1, 40, 0
3, 229981, Note_on_c, 1, 28, 53
3, 230109, Control_c, 1, 64, 127
3, 230358, Control_c, 1, 64, 0
3, 230394, Note_on_c, 1, 28, 0
3, 230472, Note_on_c, 1, 39, 69
3, 230513, Note_on_c, 1, 44, 0
3, 233650, Note_on_c, 1, 39, 0
3, 234240, Note_on_c, 1, 39, 40
3, 235200, Note_on_c, 1, 46, 38
3, 235220, Note_on_c, 1, 39, 0
3, 236160, Note_on_c, 1, 55, 54
3, 236636, Note_on_c, 1, 46, 0
3, 236979, Note_on_c, 1, 46, 53
3, 237012, Note_on_c, 1, 55, 0
3, 237091, Note_on_c, 1, 46, 0
3, 237156, Note_on_c, 1, 39, 48
3, 237574, Note_on_c, 1, 39, 0
3, 237639, Note_on_c, 1, 39, 55
3, 239068, Note_on_c, 1, 47, 49
3, 239893, Note_on_c, 1, 46, 28
3, 239984, Note_on_c, 1, 47, 0
3, 239992, Note_on_c, 1, 46, 0
3, 240050, Note_on_c, 1, 55, 66
3, 240820, Note_on_c, 1, 47, 48
3, 240863, Note_on_c, 1, 39, 0
3, 240928, Note_on_c, 1, 47, 0
3, 240990, Note_on_c, 1, 39, 53
3, 241402, Note_on_c, 1, 39, 0
3, 241455, Note_on_c, 1, 40, 61
3, 241846, Note_on_c, 1, 55, 0
3, 241907, Note_on_c, 1, 40, 0
3, 241937, Note_on_c, 1, 41, 55
3, 242860, Note_on_c, 1, 41, 0
3, 242945, Note_on_c, 1, 33, 66
3, 243840, Note_on_c, 1, 34, 45
3, 243950, Note_on_c, 1, 33, 0
3, 244744, Note_on_c, 1, 32, 33
3, 244807, Note_on_c, 1, 34, 0
3, 244902, Note_on_c, 1, 46, 71
3, 244928, Note_on_c, 1, 32, 0
3, 245361, Note_on_c, 1, 38, 55
3, 245413, Note_on_c, 1, 46, 0
3, 245758, Note_on_c, 1, 37, 25
3, 245792, Note_on_c, 1, 37, 0
3, 245809, Note_on_c, 1, 38, 0
3, 245820, Note_on_c, 1, 39, 57
3, 246768, Note_on_c, 1, 39, 0
3, 246802, Note_on_c, 1, 34, 50
3, 247665, Note_on_c, 1, 32, 35
3, 247769, Note_on_c, 1, 32, 0
3, 247772, Note_on_c, 1, 39, 56
3, 247801, Note_on_c, 1, 34, 0
3, 248719, Note_on_c, 1, 39, 0
3, 248733, Note_on_c, 1, 34, 52
3, 249022, Note_on_c, 1, 34, 0
3, 249065, Note_on_c, 1, 31, 41
3, 249151, Note_on_c, 1, 31, 0
3, 249170, Note_on_c, 1, 32, 50
3, 249597, Note_on_c, 1, 32, 0
3, 249645, Note_on_c, 1, 33, 55
3, 250583, Note_on_c, 1, 39, 51
3, 250600, Note_on_c, 1, 33, 0
3, 251432, Note_on_c, 1, 33, 35
3, 251556, Note_on_c, 1, 33, 0
3, 251571, Note_on_c, 1, 51, 67
3, 252468, Note_on_c, 1, 39, 0
3, 252516, Note_on_c, 1, 37, 68
3, 252555, Note_on_c, 1, 51, 0
3, 253440, Note_on_c, 1, 38, 55
3, 253509, Note_on_c, 1, 37, 0
3, 254400, Note_on_c, 1, 30, 54
3, 254402, Note_on_c, 1, 38, 0
3, 255915, Note_on_c, 1, 38, 72
3, 255918, Note_on_c, 1, 30, 0
3, 256686, Note_on_c, 1, 38, 0
3, 256691, Note_on_c, 1, 37, 48
3, 256805, Note_on_c, 1, 37, 0
3, 256830, Note_on_c, 1, 38, 63
3, 257282, Note_on_c, 1, 39, 54
3, 257319, Note_on_c, 1, 38, 0
3, 258237, Note_on_c, 1, 51, 57
3, 258541, Note_on_c, 1, 39, 0
3, 259214, Note_on_c, 1, 39, 69
3, 259273, Note_on_c, 1, 51, 0
3, 260003, Note_on_c, 1, 34, 74
3, 260021, Note_on_c, 1, 39, 0
3, 260667, Note_on_c, 1, 34, 0
3, 260674, Note_on_c, 1, 32, 56
3, 261110, Note_on_c, 1, 32, 0
3, 261140, Note_on_c, 1, 33, 68
3, 262115, Note_on_c, 1, 33, 0
3, 262124, Note_on_c, 1, 39, 61
3, 262945, Note_on_c, 1, 37, 52
3, 262984, Note_on_c, 1, 39, 0
3, 263091, Note_on_c, 1, 37, 0
3, 263093, Note_on_c, 1, 38, 66
3, 264385, Note_on_c, 1, 37, 37
3, 264484, Note_on_c, 1, 38, 0
3, 264496, Note_on_c, 1, 44, 59
3, 264527, Note_on_c, 1, 37, 0
3, 264822, Note_on_c, 1, 37, 25
3, 264924, Note_on_c, 1, 44, 0
3, 264925, Note_on_c, 1, 37, 0
3, 264968, Note_on_c, 1, 45, 64
3, 265931, Note_on_c, 1, 39, 70
3, 265960, Note_on_c, 1, 45, 0
3, 266898, Note_on_c, 1, 33, 66
3, 266919, Note_on_c, 1, 39, 0
3, 267856, Note_on_c, 1, 33, 0
3, 267863, Note_on_c, 1, 39, 83
3, 268664, Note_on_c, 1, 39, 0
3, 268673, Note_on_c, 1, 37, 59
3, 268783, Note_on_c, 1, 37, 0
3, 268812, Note_on_c, 1, 38, 64
3, 270268, Note_on_c, 1, 54, 69
3, 271225, Note_on_c, 1, 50, 64
3, 271234, Note_on_c, 1, 54, 0
3, 271695, Note_on_c, 1, 38, 0
3, 272001, Note_on_c, 1, 38, 57
3, 272090, Note_on_c, 1, 38, 0
3, 272131, Note_on_c, 1, 50, 0
3, 272164, Note_on_c, 1, 42, 55
3, 272520, Note_on_c, 1, 37, 25
3, 272604, Note_on_c, 1, 42, 0
3, 272637, Note_on_c, 1, 37, 0
3, 272649, Note_on_c, 1, 38, 64
3, 273418, Note_on_c, 1, 32, 36
3, 273561, Note_on_c, 1, 32, 0
3, 273598, Note_on_c, 1, 45, 64
3, 273826, Note_on_c, 1, 38, 0
3, 274399, Note_on_c, 1, 44, 62
3, 274429, Note_on_c, 1, 45, 0
3, 274520, Note_on_c, 1, 44, 0
3, 274574, Note_on_c, 1, 43, 50
3, 274651, Note_on_c, 1, 43, 0
3, 274894, Note_on_c, 1, 38, 33
3, 274957, Note_on_c, 1, 38, 0
3, 275052, Note_on_c, 1, 31, 55
3, 276332, Note_on_c, 1, 38, 49
3, 276412, Note_on_c, 1, 31, 0
3, 276468, Note_on_c, 1, 38, 0
3, 276499, Note_on_c, 1, 37, 71
3, 277416, Note_on_c, 1, 37, 0
3, 277483, Note_on_c, 1, 37, 60
3, 278425, Note_on_c, 1, 42, 74
3, 278480, Note_on_c, 1, 37, 0
3, 279704, Note_on_c, 1, 34, 48
3, 279715, Note_on_c, 1, 42, 0
3, 279817, Note_on_c, 1, 34, 0
3, 279847, Note_on_c, 1, 35, 49
3, 280221, Note_on_c, 1, 34, 30
3, 280299, Note_on_c, 1, 35, 0
3, 280303, Note_on_c, 1, 34, 0
3, 280333, Note_on_c, 1, 36, 45
3, 281657, Note_on_c, 1, 43, 71
3, 281866, Note_on_c, 1, 43, 0
3, 281980, Note_on_c, 1, 42, 62
3, 282253, Note_on_c, 1, 36, 0
3, 282281, Note_on_c, 1, 42, 0
3, 282329, Note_on_c, 1, 41, 64
3, 283716, Note_on_c, 1, 35, 66
3, 283933, Note_on_c, 1, 41, 0
3, 284187, Note_on_c, 1, 36, 73
3, 284197, Note_on_c, 1, 35, 0
3, 287067, Note_on_c, 1, 43, 67
3, 287126, Note_on_c, 1, 36, 0
3, 287412, Note_on_c, 1, 36, 72
3, 287484, Note_on_c, 1, 43, 0
3, 287978, Note_on_c, 1, 36, 0
3, 288040, Note_on_c, 1, 37, 67
3, 289317, Note_on_c, 1, 53, 46
3, 289531, Note_on_c, 1, 53, 0
3, 289644, Note_on_c, 1, 52, 55
3, 289935, Note_on_c, 1, 52, 0
3, 290019, Note_on_c, 1, 53, 58
3, 291123, Note_on_c, 1, 37, 0
3, 291377, Note_on_c, 1, 37, 60
3, 291680, Note_on_c, 1, 32, 43
3, 291708, Note_on_c, 1, 37, 0
3, 291822, Note_on_c, 1, 32, 0
3, 291846, Note_on_c, 1, 53, 0
3, 291862, Note_on_c, 1, 31, 58
3, 292838, Note_on_c, 1, 31, 0
3, 292844, Note_on_c, 1, 43, 76
3, 293806, Note_on_c, 1, 43, 0
3, 293813, Note_on_c, 1, 38, 60
3, 294773, Note_on_c, 1, 35, 68
3, 294778, Note_on_c, 1, 38, 0
3, 295591, Note_on_c, 1, 34, 29
3, 295693, Note_on_c, 1, 35, 0
3, 295722, Note_on_c, 1, 34, 0
3, 295728, Note_on_c, 1, 36, 50
3, 296574, Note_on_c, 1, 34, 21
3, 296637, Note_on_c, 1, 36, 0
3, 296665, Note_on_c, 1, 34, 0
3, 296683, Note_on_c, 1, 38, 46
3, 297551, Note_on_c, 1, 38, 0
3, 297604, Note_on_c, 1, 39, 53
3, 298564, Note_on_c, 1, 36, 51
3, 298569, Note_on_c, 1, 39, 0
3, 299067, Note_on_c, 1, 36, 0
3, 299095, Note_on_c, 1, 51, 74
3, 299428, Note_on_c, 1, 36, 36
3, 299465, Note_on_c, 1, 51, 0
3, 299537, Note_on_c, 1, 36, 0
3, 299555, Note_on_c, 1, 50, 65
3, 299991, Note_on_c, 1, 50, 0
3, 300022, Note_on_c, 1, 47, 49
3, 300464, Note_on_c, 1, 47, 0
3, 300510, Note_on_c, 1, 43, 44
3, 301317, Note_on_c, 1, 35, 38
3, 301402, Note_on_c, 1, 35, 0
3, 301489, Note_on_c, 1, 38, 49
3, 301541, Note_on_c, 1, 38, 0
3, 301760, Note_on_c, 1, 43, 0
3, 301969, Note_on_c, 1, 35, 55
3, 302919, Note_on_c, 1, 38, 58
3, 302952, Note_on_c, 1, 35, 0
3, 303238, Note_on_c, 1, 35, 31
3, 303251, Note_on_c, 1, 38, 0
3, 303337, Note_on_c, 1, 35, 0
3, 303414, Note_on_c, 1, 34, 61
3, 305071, Note_on_c, 1, 34, 0
3, 305144, Note_on_c, 1, 34, 48
3, 305279, Note_on_c, 1, 34, 0
3, 305330, Note_on_c, 1, 33, 70
3, 306119, Note_on_c, 1, 36, 42
3, 306228, Note_on_c, 1, 36, 0
3, 306233, Note_on_c, 1, 33, 0
3, 306255, Note_on_c, 1, 45, 81
3, 307085, Note_on_c, 1, 33, 44
3, 307139, Note_on_c, 1, 33, 0
3, 307205, Note_on_c, 1, 45, 0
3, 307236, Note_on_c, 1, 44, 69
3, 308035, Note_on_c, 1, 38, 25
3, 308073, Note_on_c, 1, 38, 0
3, 308162, Note_on_c, 1, 44, 0
3, 308179, Note_on_c, 1, 43, 63
3, 309133, Note_on_c, 1, 43, 0
3, 309165, Note_on_c, 1, 42, 55
3, 309508, Note_on_c, 1, 37, 37
3, 309529, Note_on_c, 1, 42, 0
3, 309607, Note_on_c, 1, 37, 0
3, 309656, Note_on_c, 1, 30, 51
3, 311026, Note_on_c, 1, 30, 0
3, 311086, Note_on_c, 1, 29, 69
3, 312360, Note_on_c, 1, 36, 41
3, 312420, Note_on_c, 1, 36, 0
3, 312513, Note_on_c, 1, 44, 72
3, 312950, Note_on_c, 1, 44, 0
3, 312997, Note_on_c, 1, 29, 0
3, 312999, Note_on_c, 1, 43, 71
3, 313947, Note_on_c, 1, 43, 0
3, 313950, Note_on_c, 1, 31, 66
3, 314881, Note_on_c, 1, 31, 0
3, 314906, Note_on_c, 1, 32, 71
3, 316351, Note_on_c, 1, 44, 69
3, 316411, Note_on_c, 1, 32, 0
3, 316668, Note_on_c, 1, 32, 52
3, 316713, Note_on_c, 1, 44, 0
3, 316783, Note_on_c, 1, 32, 0
3, 316846, Note_on_c, 1, 42, 69
3, 317819, Note_on_c, 1, 30, 60
3, 317848, Note_on_c, 1, 42, 0
3, 318678, Note_on_c, 1, 30, 0
3, 318731, Note_on_c, 1, 29, 58
3, 320515, Note_on_c, 1, 30, 67
3, 320572, Note_on_c, 1, 29, 0
3, 320628, Note_on_c, 1, 30, 0
3, 320676, Note_on_c, 1, 31, 48
3, 320681, Note_on_c, 1, 29, 62
3, 320715, Note_on_c, 1, 29, 0
3, 321622, Note_on_c, 1, 31, 0
3, 321640, Note_on_c, 1, 35, 71
3, 322429, Note_on_c, 1, 31, 38
3, 322463, Note_on_c, 1, 35, 0
3, 322549, Note_on_c, 1, 31, 0
3, 322584, Note_on_c, 1, 36, 66
3, 323501, Note_on_c, 1, 34, 25
3, 323565, Note_on_c, 1, 48, 87
3, 323604, Note_on_c, 1, 34, 0
3, 323752, Note_on_c, 1, 36, 0
3, 324357, Note_on_c, 1, 34, 35
3, 324441, Note_on_c, 1, 34, 0
3, 324525, Note_on_c, 1, 36, 47
3, 324939, Note_on_c, 1, 34, 28
3, 324968, Note_on_c, 1, 36, 0
3, 324989, Note_on_c, 1, 34, 0
3, 325013, Note_on_c, 1, 36, 60
3, 325034, Note_on_c, 1, 48, 0
3, 325924, Note_on_c, 1, 36, 0
3, 325949, Note_on_c, 1, 48, 75
3, 326296, Note_on_c, 1, 34, 21
3, 326359, Note_on_c, 1, 48, 0
3, 326385, Note_on_c, 1, 34, 0
3, 326420, Note_on_c, 1, 47, 66
3, 326897, Note_on_c, 1, 35, 64
3, 326900, Note_on_c, 1, 47, 0
3, 328298, Note_on_c, 1, 35, 0
3, 328362, Note_on_c, 1, 35, 63
3, 330243, Note_on_c, 1, 35, 0
3, 330277, Note_on_c, 1, 34, 67
3, 331523, Note_on_c, 1, 34, 0
3, 331581, Note_on_c, 1, 34, 55
3, 331668, Note_on_c, 1, 34, 0
3, 331707, Note_on_c, 1, 46, 81
3, 332156, Note_on_c, 1, 46, 0
3, 332191, Note_on_c, 1, 45, 71
3, 333142, Note_on_c, 1, 33, 71
3, 333146, Note_on_c, 1, 45, 0
3, 334032, Note_on_c, 1, 33, 0
3, 334082, Note_on_c, 1, 32, 63
3, 335838, Note_on_c, 1, 44, 67
3, 335987, Note_on_c, 1, 44, 0
3, 336016, Note_on_c, 1, 43, 60
3, 336019, Note_on_c, 1, 32, 0
3, 336452, Note_on_c, 1, 31, 57
3, 336863, Note_on_c, 1, 43, 0
3, 336912, Note_on_c, 1, 31, 0
3, 336937, Note_on_c, 1, 30, 59
3, 337889, Note_on_c, 1, 30, 0
3, 337927, Note_on_c, 1, 29, 62
3, 339843, Note_on_c, 1, 34, 70
3, 339844, Note_on_c, 1, 29, 0
3, 341230, Note_on_c, 1, 34, 0
3, 341298, Note_on_c, 1, 34, 62
3, 341557, Note_on_c, 1, 34, 0
3, 341622, Note_on_c, 1, 34, 45
3, 341742, Note_on_c, 1, 34, 0
3, 341774, Note_on_c, 1, 28, 49
3, 342554, Note_on_c, 1, 35, 34
3, 342601, Note_on_c, 1, 35, 0
3, 342727, Note_on_c, 1, 44, 45
3, 344498, Note_on_c, 1, 35, 49
3, 344571, Note_on_c, 1, 35, 0
3, 344688, Note_on_c, 1, 35, 44
3, 344798, Note_on_c, 1, 28, 0
3, 345137, Note_on_c, 1, 35, 0
3, 345170, Note_on_c, 1, 28, 51
3, 345630, Note_on_c, 1, 39, 73
3, 345662, Note_on_c, 1, 28, 0
3, 345694, Note_on_c, 1, 44, 0
3, 347549, Note_on_c, 1, 39, 0
3, 347563, Note_on_c, 1, 34, 55
3, 348816, Note_on_c, 1, 32, 46
3, 348879, Note_on_c, 1, 34, 0
3, 348937, Note_on_c, 1, 32, 0
3, 348979, Note_on_c, 1, 38, 51
3, 349429, Note_on_c, 1, 38, 0
3, 349464, Note_on_c, 1, 39, 62
3, 350478, Note_on_c, 1, 46, 37
3, 351329, Note_on_c, 1, 37, 20
3, 351420, Note_on_c, 1, 55, 43
3, 351442, Note_on_c, 1, 39, 0
3, 351472, Note_on_c, 1, 37, 0
3, 352078, Note_on_c, 1, 46, 0
3, 352192, Note_on_c, 1, 46, 46
3, 352302, Note_on_c, 1, 46, 0
3, 352371, Note_on_c, 1, 46, 35
3, 352830, Note_on_c, 1, 39, 47
3, 353253, Note_on_c, 1, 39, 0
3, 353313, Note_on_c, 1, 39, 64
3, 353658, Note_on_c, 1, 46, 0
3, 354029, Note_on_c, 1, 55, 0
3, 354288, Note_on_c, 1, 47, 74
3, 355164, Note_on_c, 1, 47, 0
3, 355215, Note_on_c, 1, 55, 82
3, 355575, Note_on_c, 1, 47, 46
3, 356090, Note_on_c, 1, 47, 0
3, 356219, Note_on_c, 1, 47, 60
3, 356338, Note_on_c, 1, 39, 0
3, 356542, Note_on_c, 1, 39, 69
3, 356716, Note_on_c, 1, 39, 0
3, 356858, Note_on_c, 1, 40, 57
3, 357023, Note_on_c, 1, 55, 0
3, 357054, Note_on_c, 1, 47, 0
3, 357136, Note_on_c, 1, 40, 0
3, 357164, Note_on_c, 1, 41, 63
3, 358138, Note_on_c, 1, 36, 62
3, 358172, Note_on_c, 1, 41, 0
3, 358892, Note_on_c, 1, 36, 0
3, 358898, Note_on_c, 1, 35, 53
3, 359094, Note_on_c, 1, 35, 0
3, 359101, Note_on_c, 1, 34, 56
3, 360068, Note_on_c, 1, 41, 60
3, 360094, Note_on_c, 1, 34, 0
3, 360863, Note_on_c, 1, 38, 38
3, 360897, Note_on_c, 1, 41, 0
3, 360985, Note_on_c, 1, 38, 0
3, 361043, Note_on_c, 1, 39, 47
3, 361824, Note_on_c, 1, 37, 36
3, 361941, Note_on_c, 1, 39, 0
3, 361960, Note_on_c, 1, 51, 72
3, 361970, Note_on_c, 1, 37, 0
3, 362962, Note_on_c, 1, 46, 56
3, 362971, Note_on_c, 1, 51, 0
3, 363034, Note_on_c, 1, 46, 0
3, 363251, Note_on_c, 1, 39, 58
3, 363327, Note_on_c, 1, 39, 0
3, 363393, Note_on_c, 1, 39, 42
3, 363883, Note_on_c, 1, 32, 67
3, 363893, Note_on_c, 1, 39, 0
3, 364299, Note_on_c, 1, 32, 0
3, 364355, Note_on_c, 1, 32, 63
3, 364836, Note_on_c, 1, 32, 0
3, 364839, Note_on_c, 1, 33, 71
3, 366248, Note_on_c, 1, 39, 62
3, 366753, Note_on_c, 1, 51, 81
3, 367286, Note_on_c, 1, 39, 0
3, 367538, Note_on_c, 1, 39, 33
3, 367577, Note_on_c, 1, 39, 0
3, 367723, Note_on_c, 1, 45, 57
3, 367739, Note_on_c, 1, 33, 0
3, 368175, Note_on_c, 1, 39, 52
3, 368186, Note_on_c, 1, 51, 0
3, 368188, Note_on_c, 1, 45, 0
3, 368660, Note_on_c, 1, 39, 0
3, 368663, Note_on_c, 1, 38, 64
3, 369929, Note_on_c, 1, 33, 43
3, 369991, Note_on_c, 1, 38, 0
3, 370039, Note_on_c, 1, 33, 0
3, 370129, Note_on_c, 1, 30, 47
3, 371057, Note_on_c, 1, 42, 68
3, 371134, Note_on_c, 1, 30, 0
3, 371866, Note_on_c, 1, 38, 46
3, 372329, Note_on_c, 1, 30, 37
3, 372395, Note_on_c, 1, 30, 0
3, 372420, Note_on_c, 1, 42, 0
3, 372445, Note_on_c, 1, 38, 0
3, 372492, Note_on_c, 1, 39, 59
3, 374228, Note_on_c, 1, 45, 38
3, 374274, Note_on_c, 1, 45, 0
3, 374388, Note_on_c, 1, 51, 62
3, 374728, Note_on_c, 1, 51, 0
3, 374757, Note_on_c, 1, 49, 23
3, 374843, Note_on_c, 1, 49, 0
3, 374895, Note_on_c, 1, 51, 50
3, 375372, Note_on_c, 1, 39, 0
3, 375679, Note_on_c, 1, 39, 51
3, 375969, Note_on_c, 1, 39, 0
3, 375998, Note_on_c, 1, 34, 55
3, 376297, Note_on_c, 1, 34, 0
3, 376322, Note_on_c, 1, 33, 65
3, 376357, Note_on_c, 1, 51, 0
3, 377794, Note_on_c, 1, 39, 58
3, 377871, Note_on_c, 1, 33, 0
3, 378135, Note_on_c, 1, 37, 37
3, 378157, Note_on_c, 1, 39, 0
3, 378280, Note_on_c, 1, 37, 0
3, 378295, Note_on_c, 1, 38, 59
3, 380171, Note_on_c, 1, 38, 0
3, 380195, Note_on_c, 1, 33, 64
3, 381015, Note_on_c, 1, 40, 24
3, 381084, Note_on_c, 1, 40, 0
3, 381208, Note_on_c, 1, 51, 68
3, 383070, Note_on_c, 1, 33, 0
3, 383081, Note_on_c, 1, 39, 76
3, 383743, Note_on_c, 1, 39, 0
3, 383779, Note_on_c, 1, 36, 50
3, 383865, Note_on_c, 1, 36, 0
3, 383884, Note_on_c, 1, 51, 0
3, 383935, Note_on_c, 1, 37, 55
3, 384047, Note_on_c, 1, 37, 0
3, 384095, Note_on_c, 1, 38, 65
3, 385949, Note_on_c, 1, 45, 80
3, 385966, Note_on_c, 1, 38, 0
3, 386316, Note_on_c, 1, 34, 21
3, 386393, Note_on_c, 1, 45, 0
3, 386422, Note_on_c, 1, 42, 44
3, 386428, Note_on_c, 1, 34, 0
3, 386865, Note_on_c, 1, 42, 0
3, 386890, Note_on_c, 1, 44, 49
3, 387403, Note_on_c, 1, 32, 51
3, 387469, Note_on_c, 1, 32, 0
3, 387721, Note_on_c, 1, 37, 59
3, 387818, Note_on_c, 1, 44, 0
3, 387876, Note_on_c, 1, 37, 0
3, 387892, Note_on_c, 1, 38, 61
3, 389132, Note_on_c, 1, 33, 53
3, 389219, Note_on_c, 1, 38, 0
3, 389412, Note_on_c, 1, 33, 0
3, 389440, Note_on_c, 1, 32, 62
3, 389766, Note_on_c, 1, 31, 64
3, 389797, Note_on_c, 1, 32, 0
3, 391217, Note_on_c, 1, 43, 69
3, 391260, Note_on_c, 1, 31, 0
3, 391709, Note_on_c, 1, 42, 79
3, 391758, Note_on_c, 1, 43, 0
3, 394123, Note_on_c, 1, 30, 46
3, 395051, Note_on_c, 1, 42, 0
3, 395068, Note_on_c, 1, 35, 58
3, 395176, Note_on_c, 1, 30, 0
3, 395553, Note_on_c, 1, 36, 76
3, 395563, Note_on_c, 1, 35, 0
3, 397490, Note_on_c, 1, 36, 0
3, 397493, Note_on_c, 1, 41, 75
3, 399415, Note_on_c, 1, 41, 0
3, 399451, Note_on_c, 1, 36, 82
3, 399915, Note_on_c, 1, 36, 0
3, 399915, End_track
4, 0, Start_track
4, 0, Title_t, "Bowed Bass"
4, 0, Program_c, 2, 42
4, 0, Control_c, 2, 7, 60
4, 26, Note_on_c, 2, 54, 27
4, 2851, Note_on_c, 2, 53, 21
4, 2857, Note_on_c, 2, 54, 0
4, 5756, Note_on_c, 2, 52, 17
4, 5813, Note_on_c, 2, 53, 0
4, 8724, Note_on_c, 2, 51, 18
4, 8758, Note_on_c, 2, 52, 0
4, 11562, Note_on_c, 2, 50, 29
4, 11602, Note_on_c, 2, 51, 0
4, 14501, Note_on_c, 2, 50, 0
4, 15817, Note_on_c, 2, 51, 19
4, 16817, Note_on_c, 2, 47, 19
4, 16983, Note_on_c, 2, 51, 0
4, 17411, Note_on_c, 2, 48, 31
4, 17673, Note_on_c, 2, 47, 0
4, 17951, Note_on_c, 2, 48, 0
4, 18166, Note_on_c, 2, 44, 29
4, 19050, Note_on_c, 2, 44, 0
4, 19080, Note_on_c, 2, 49, 25
4, 21649, Note_on_c, 2, 50, 33
4, 21757, Note_on_c, 2, 49, 0
4, 24083, Note_on_c, 2, 50, 0
4, 24085, Note_on_c, 2, 43, 32
4, 28663, Note_on_c, 2, 43, 0
4, 401737, Note_on_c, 2, 51, 42
4, 402296, Note_on_c, 2, 50, 64
4, 402297, Note_on_c, 2, 51, 0
4, 403087, Note_on_c, 2, 48, 50
4, 403257, Note_on_c, 2, 50, 0
4, 405249, Note_on_c, 2, 48, 0
4, 405324, Note_on_c, 2, 44, 35
4, 406024, Note_on_c, 2, 44, 0
4, 406210, Note_on_c, 2, 37, 46
4, 409782, Note_on_c, 2, 37, 0
4, 410134, Note_on_c, 2, 38, 53
4, 413424, Note_on_c, 2, 31, 48
4, 413434, Note_on_c, 2, 38, 0
4, 417876, Note_on_c, 2, 31, 0
4, 418560, Note_on_c, 2, 36, 61
4, 423860, Note_on_c, 2, 36, 0
4, 423930, Note_on_c, 2, 29, 34
4, 429544, Note_on_c, 2, 29, 0
4, 429544, End_track
5, 0, Start_track
5, 0, Title_t, "Brushes"
5, 0, Program_c, 9, 40
5, 0, Control_c, 9, 7, 55
5, 13, Note_on_c, 9, 81, 52
5, 160, Note_on_c, 9, 81, 0
5, 2921, Note_on_c, 9, 81, 33
5, 3088, Note_on_c, 9, 81, 0
5, 3849, Note_on_c, 9, 81, 22
5, 3966, Note_on_c, 9, 81, 0
5, 5778, Note_on_c, 9, 81, 25
5, 5965, Note_on_c, 9, 81, 0
5, 6731, Note_on_c, 9, 81, 24
5, 6849, Note_on_c, 9, 81, 0
5, 8706, Note_on_c, 9, 81, 29
5, 8821, Note_on_c, 9, 81, 0
5, 11570, Note_on_c, 9, 81, 24
5, 11723, Note_on_c, 9, 81, 0
5, 12543, Note_on_c, 9, 81, 27
5, 12632, Note_on_c, 9, 81, 0
5, 13955, Note_on_c, 9, 81, 24
5, 14036, Note_on_c, 9, 81, 0
5, 19103, Note_on_c, 9, 81, 50
5, 20063, Note_on_c, 9, 81, 0
5, 21642, Note_on_c, 9, 81, 49
5, 21891, Note_on_c, 9, 81, 0
5, 24064, Note_on_c, 9, 81, 40
5, 24403, Note_on_c, 9, 81, 0
5, 30730, Note_on_c, 9, 81, 40
5, 30873, Note_on_c, 9, 81, 0
5, 31829, Note_on_c, 9, 81, 48
5, 31935, Note_on_c, 9, 81, 0
5, 34604, Note_on_c, 9, 81, 46
5, 34833, Note_on_c, 9, 81, 0
5, 35583, Note_on_c, 9, 81, 42
5, 35800, Note_on_c, 9, 81, 0
5, 38448, Note_on_c, 9, 81, 62
5, 38655, Note_on_c, 9, 81, 0
5, 39458, Note_on_c, 9, 81, 41
5, 39703, Note_on_c, 9, 81, 0
5, 42246, Note_on_c, 9, 81, 44
5, 42381, Note_on_c, 9, 81, 0
5, 43253, Note_on_c, 9, 81, 40
5, 43392, Note_on_c, 9, 81, 0
5, 46102, Note_on_c, 9, 81, 58
5, 46233, Note_on_c, 9, 81, 0
5, 73904, Note_on_c, 9, 81, 55
5, 74058, Note_on_c, 9, 81, 0
5, 76831, Note_on_c, 9, 81, 49
5, 77121, Note_on_c, 9, 81, 0
5, 77328, Note_on_c, 9, 81, 34
5, 77605, Note_on_c, 9, 81, 0
5, 77801, Note_on_c, 9, 81, 35
5, 80043, Note_on_c, 9, 81, 0
5, 80658, Note_on_c, 9, 81, 30
5, 81214, Note_on_c, 9, 81, 0
5, 81690, Note_on_c, 9, 81, 35
5, 83938, Note_on_c, 9, 81, 0
5, 84516, Note_on_c, 9, 81, 47
5, 85119, Note_on_c, 9, 81, 0
5, 85503, Note_on_c, 9, 81, 36
5, 87439, Note_on_c, 9, 81, 0
5, 87788, Note_on_c, 9, 81, 34
5, 87868, Note_on_c, 9, 81, 0
5, 88253, Note_on_c, 9, 81, 31
5, 88834, Note_on_c, 9, 81, 0
5, 89331, Note_on_c, 9, 81, 32
5, 89682, Note_on_c, 9, 81, 0
5, 234247, Note_on_c, 9, 40, 14
5, 234664, Note_on_c, 9, 40, 0
5, 234700, Note_on_c, 9, 44, 42
5, 234726, Note_on_c, 9, 40, 19
5, 234800, Note_on_c, 9, 44, 0
5, 235092, Note_on_c, 9, 40, 0
5, 235193, Note_on_c, 9, 40, 16
5, 235608, Note_on_c, 9, 40, 0
5, 235636, Note_on_c, 9, 44, 31
5, 235636, Note_on_c, 9, 40, 12
5, 235796, Note_on_c, 9, 44, 0
5, 236008, Note_on_c, 9, 40, 0
5, 236160, Note_on_c, 9, 40, 18
5, 236640, Note_on_c, 9, 40, 0
5, 236640, Note_on_c, 9, 40, 14
5, 236640, Note_on_c, 9, 44, 31
5, 236800, Note_on_c, 9, 44, 0
5, 236960, Note_on_c, 9, 40, 0
5, 237120, Note_on_c, 9, 40, 26
5, 237120, Note_on_c, 9, 36, 24
5, 237440, Note_on_c, 9, 40, 0
5, 237440, Note_on_c, 9, 38, 48
5, 237600, Note_on_c, 9, 38, 0
5, 237600, Note_on_c, 9, 36, 0
5, 237600, Note_on_c, 9, 40, 18
5, 237600, Note_on_c, 9, 46, 31
5, 237920, Note_on_c, 9, 40, 0
5, 237920, Note_on_c, 9, 36, 24
5, 238080, Note_on_c, 9, 36, 0
5, 238080, Note_on_c, 9, 46, 0
5, 238080, Note_on_c, 9, 40, 19
5, 238400, Note_on_c, 9, 40, 0
5, 238560, Note_on_c, 9, 40, 18
5, 238560, Note_on_c, 9, 44, 29
5, 238720, Note_on_c, 9, 44, 0
5, 238880, Note_on_c, 9, 40, 0
5, 239040, Note_on_c, 9, 40, 19
5, 239360, Note_on_c, 9, 40, 0
5, 239360, Note_on_c, 9, 38, 46
5, 239520, Note_on_c, 9, 38, 0
5, 239520, Note_on_c, 9, 40, 19
5, 239520, Note_on_c, 9, 44, 25
5, 239680, Note_on_c, 9, 44, 0
5, 239840, Note_on_c, 9, 40, 0
5, 240000, Note_on_c, 9, 40, 17
5, 240320, Note_on_c, 9, 40, 0
5, 240480, Note_on_c, 9, 40, 21
5, 240480, Note_on_c, 9, 44, 25
5, 240640, Note_on_c, 9, 44, 0
5, 240800, Note_on_c, 9, 40, 0
5, 240960, Note_on_c, 9, 40, 20
5, 240960, Note_on_c, 9, 47, 53
5, 241280, Note_on_c, 9, 47, 0
5, 241280, Note_on_c, 9, 40, 0
5, 241440, Note_on_c, 9, 40, 21
5, 241440, Note_on_c, 9, 46, 34
5, 241440, Note_on_c, 9, 47, 51
5, 241760, Note_on_c, 9, 47, 0
5, 241760, Note_on_c, 9, 46, 0
5, 241760, Note_on_c, 9, 40, 0
5, 241760, Note_on_c, 9, 38, 46
5, 241760, Note_on_c, 9, 45, 36
5, 241920, Note_on_c, 9, 45, 0
5, 241920, Note_on_c, 9, 38, 0
5, 241929, Note_on_c, 9, 40, 19
5, 242325, Note_on_c, 9, 40, 0
5, 242400, Note_on_c, 9, 40, 22
5, 242400, Note_on_c, 9, 44, 25
5, 242465, Note_on_c, 9, 44, 0
5, 242687, Note_on_c, 9, 40, 0
5, 242760, Note_on_c, 9, 40, 27
5, 242813, Note_on_c, 9, 40, 0
5, 242884, Note_on_c, 9, 40, 19
5, 242927, Note_on_c, 9, 36, 34
5, 243016, Note_on_c, 9, 36, 0
5, 243257, Note_on_c, 9, 40, 0
5, 243338, Note_on_c, 9, 40, 18
5, 243360, Note_on_c, 9, 44, 29
5, 243498, Note_on_c, 9, 44, 0
5, 243745, Note_on_c, 9, 40, 0
5, 243829, Note_on_c, 9, 40, 21
5, 244151, Note_on_c, 9, 38, 38
5, 244182, Note_on_c, 9, 40, 0
5, 244275, Note_on_c, 9, 38, 0
5, 244311, Note_on_c, 9, 40, 20
5, 244320, Note_on_c, 9, 44, 29
5, 244482, Note_on_c, 9, 44, 0
5, 244666, Note_on_c, 9, 47, 54
5, 244716, Note_on_c, 9, 40, 0
5, 244771, Note_on_c, 9, 47, 0
5, 244809, Note_on_c, 9, 40, 20
5, 244857, Note_on_c, 9, 45, 31
5, 244898, Note_on_c, 9, 45, 0
5, 245136, Note_on_c, 9, 36, 44
5, 245195, Note_on_c, 9, 40, 0
5, 245260, Note_on_c, 9, 36, 0
5, 245280, Note_on_c, 9, 44, 35
5, 245294, Note_on_c, 9, 40, 19
5, 245347, Note_on_c, 9, 36, 39
5, 245425, Note_on_c, 9, 44, 0
5, 245596, Note_on_c, 9, 40, 0
5, 245623, Note_on_c, 9, 36, 0
5, 245677, Note_on_c, 9, 40, 19
5, 245752, Note_on_c, 9, 40, 0
5, 245815, Note_on_c, 9, 40, 16
5, 245837, Note_on_c, 9, 36, 31
5, 246026, Note_on_c, 9, 36, 0
5, 246189, Note_on_c, 9, 40, 0
5, 246240, Note_on_c, 9, 44, 31
5, 246276, Note_on_c, 9, 40, 18
5, 246390, Note_on_c, 9, 44, 0
5, 246594, Note_on_c, 9, 40, 0
5, 246729, Note_on_c, 9, 40, 19
5, 247032, Note_on_c, 9, 40, 0
5, 247200, Note_on_c, 9, 44, 23
5, 247228, Note_on_c, 9, 40, 16
5, 247386, Note_on_c, 9, 44, 0
5, 247532, Note_on_c, 9, 40, 0
5, 247588, Note_on_c, 9, 40, 36
5, 248037, Note_on_c, 9, 40, 0
5, 248101, Note_on_c, 9, 40, 33
5, 248145, Note_on_c, 9, 40, 0
5, 248160, Note_on_c, 9, 44, 25
5, 248225, Note_on_c, 9, 40, 19
5, 248338, Note_on_c, 9, 44, 0
5, 248584, Note_on_c, 9, 36, 30
5, 248596, Note_on_c, 9, 40, 0
5, 248666, Note_on_c, 9, 36, 0
5, 248679, Note_on_c, 9, 40, 23
5, 248997, Note_on_c, 9, 40, 0
5, 249077, Note_on_c, 9, 40, 21
5, 249120, Note_on_c, 9, 46, 32
5, 249127, Note_on_c, 9, 40, 0
5, 249183, Note_on_c, 9, 40, 15
5, 249262, Note_on_c, 9, 46, 0
5, 249506, Note_on_c, 9, 40, 0
5, 249514, Note_on_c, 9, 38, 37
5, 249532, Note_on_c, 9, 36, 38
5, 249581, Note_on_c, 9, 38, 0
5, 249582, Note_on_c, 9, 36, 0
5, 249666, Note_on_c, 9, 40, 16
5, 250057, Note_on_c, 9, 40, 0
5, 250080, Note_on_c, 9, 44, 25
5, 250129, Note_on_c, 9, 40, 21
5, 250220, Note_on_c, 9, 44, 0
5, 250516, Note_on_c, 9, 40, 0
5, 250608, Note_on_c, 9, 40, 22
5, 250919, Note_on_c, 9, 40, 0
5, 251040, Note_on_c, 9, 44, 25
5, 251066, Note_on_c, 9, 40, 19
5, 251141, Note_on_c, 9, 44, 0
5, 251323, Note_on_c, 9, 40, 0
5, 251410, Note_on_c, 9, 40, 19
5, 251456, Note_on_c, 9, 40, 0
5, 251539, Note_on_c, 9, 40, 21
5, 251913, Note_on_c, 9, 40, 0
5, 251997, Note_on_c, 9, 40, 21
5, 252000, Note_on_c, 9, 44, 48
5, 252127, Note_on_c, 9, 44, 0
5, 252339, Note_on_c, 9, 38, 46
5, 252356, Note_on_c, 9, 40, 0
5, 252433, Note_on_c, 9, 38, 0
5, 252485, Note_on_c, 9, 45, 36
5, 252498, Note_on_c, 9, 40, 14
5, 252792, Note_on_c, 9, 45, 0
5, 252865, Note_on_c, 9, 38, 24
5, 252869, Note_on_c, 9, 40, 0
5, 252910, Note_on_c, 9, 38, 0
5, 252960, Note_on_c, 9, 44, 28
5, 252970, Note_on_c, 9, 40, 23
5, 252982, Note_on_c, 9, 45, 30
5, 253129, Note_on_c, 9, 44, 0
5, 253216, Note_on_c, 9, 45, 0
5, 253267, Note_on_c, 9, 38, 49
5, 253296, Note_on_c, 9, 36, 24
5, 253309, Note_on_c, 9, 40, 0
5, 253356, Note_on_c, 9, 38, 0
5, 253389, Note_on_c, 9, 36, 0
5, 253423, Note_on_c, 9, 40, 18
5, 253484, Note_on_c, 9, 36, 34
5, 253747, Note_on_c, 9, 36, 0
5, 253801, Note_on_c, 9, 40, 0
5, 253893, Note_on_c, 9, 40, 19
5, 253920, Note_on_c, 9, 44, 26
5, 254075, Note_on_c, 9, 44, 0
5, 254287, Note_on_c, 9, 40, 0
5, 254376, Note_on_c, 9, 40, 21
5, 254717, Note_on_c, 9, 38, 40
5, 254719, Note_on_c, 9, 40, 0
5, 254801, Note_on_c, 9, 38, 0
5, 254880, Note_on_c, 9, 44, 32
5, 254892, Note_on_c, 9, 40, 18
5, 255062, Note_on_c, 9, 44, 0
5, 255289, Note_on_c, 9, 40, 0
5, 255359, Note_on_c, 9, 40, 16
5, 255611, Note_on_c, 9, 40, 0
5, 255682, Note_on_c, 9, 40, 26
5, 255778, Note_on_c, 9, 40, 0
5, 255840, Note_on_c, 9, 44, 33
5, 255899, Note_on_c, 9, 40, 5
5, 256014, Note_on_c, 9, 44, 0
5, 256156, Note_on_c, 9, 40, 0
5, 256169, Note_on_c, 9, 38, 36
5, 256270, Note_on_c, 9, 38, 0
5, 256419, Note_on_c, 9, 40, 3
5, 256642, Note_on_c, 9, 40, 0
5, 256664, Note_on_c, 9, 38, 39
5, 256707, Note_on_c, 9, 36, 27
5, 256744, Note_on_c, 9, 36, 0
5, 256758, Note_on_c, 9, 38, 0
5, 256800, Note_on_c, 9, 44, 34
5, 256828, Note_on_c, 9, 40, 25
5, 256968, Note_on_c, 9, 44, 0
5, 257128, Note_on_c, 9, 40, 0
5, 257139, Note_on_c, 9, 38, 38
5, 257154, Note_on_c, 9, 36, 35
5, 257198, Note_on_c, 9, 38, 0
5, 257221, Note_on_c, 9, 36, 0
5, 257289, Note_on_c, 9, 40, 21
5, 257317, Note_on_c, 9, 36, 26
5, 257492, Note_on_c, 9, 36, 0
5, 257662, Note_on_c, 9, 40, 0
5, 257758, Note_on_c, 9, 40, 21
5, 257760, Note_on_c, 9, 44, 33
5, 257903, Note_on_c, 9, 44, 0
5, 258122, Note_on_c, 9, 40, 0
5, 258241, Note_on_c, 9, 40, 20
5, 258557, Note_on_c, 9, 38, 47
5, 258577, Note_on_c, 9, 40, 0
5, 258658, Note_on_c, 9, 38, 0
5, 258720, Note_on_c, 9, 44, 32
5, 258737, Note_on_c, 9, 40, 17
5, 258756, Note_on_c, 9, 39, 32
5, 258797, Note_on_c, 9, 39, 0
5, 258867, Note_on_c, 9, 39, 43
5, 258875, Note_on_c, 9, 44, 0
5, 258939, Note_on_c, 9, 39, 0
5, 259059, Note_on_c, 9, 36, 34
5, 259103, Note_on_c, 9, 40, 0
5, 259185, Note_on_c, 9, 36, 0
5, 259193, Note_on_c, 9, 40, 19
5, 259561, Note_on_c, 9, 40, 0
5, 259667, Note_on_c, 9, 40, 18
5, 259680, Note_on_c, 9, 44, 34
5, 259832, Note_on_c, 9, 44, 0
5, 260003, Note_on_c, 9, 38, 46
5, 260063, Note_on_c, 9, 38, 0
5, 260075, Note_on_c, 9, 40, 0
5, 260178, Note_on_c, 9, 40, 19
5, 260178, Note_on_c, 9, 39, 33
5, 260215, Note_on_c, 9, 39, 0
5, 260494, Note_on_c, 9, 39, 57
5, 260526, Note_on_c, 9, 39, 0
5, 260557, Note_on_c, 9, 40, 0
5, 260636, Note_on_c, 9, 40, 28
5, 260640, Note_on_c, 9, 44, 31
5, 260668, Note_on_c, 9, 39, 42
5, 260741, Note_on_c, 9, 39, 0
5, 260808, Note_on_c, 9, 44, 0
5, 260960, Note_on_c, 9, 36, 31
5, 261024, Note_on_c, 9, 36, 0
5, 261036, Note_on_c, 9, 40, 0
5, 261144, Note_on_c, 9, 40, 18
5, 261148, Note_on_c, 9, 36, 27
5, 261301, Note_on_c, 9, 36, 0
5, 261488, Note_on_c, 9, 40, 0
5, 261600, Note_on_c, 9, 44, 34
5, 261635, Note_on_c, 9, 40, 16
5, 261736, Note_on_c, 9, 44, 0
5, 261930, Note_on_c, 9, 40, 0
5, 262085, Note_on_c, 9, 40, 21
5, 262417, Note_on_c, 9, 40, 0
5, 262431, Note_on_c, 9, 39, 54
5, 262519, Note_on_c, 9, 39, 0
5, 262560, Note_on_c, 9, 44, 33
5, 262585, Note_on_c, 9, 40, 15
5, 262718, Note_on_c, 9, 44, 0
5, 262879, Note_on_c, 9, 40, 0
5, 262899, Note_on_c, 9, 38, 48
5, 263000, Note_on_c, 9, 38, 0
5, 263074, Note_on_c, 9, 40, 19
5, 263396, Note_on_c, 9, 40, 0
5, 263405, Note_on_c, 9, 45, 80
5, 263450, Note_on_c, 9, 45, 0
5, 263520, Note_on_c, 9, 44, 31
5, 263544, Note_on_c, 9, 40, 21
5, 263651, Note_on_c, 9, 44, 0
5, 263866, Note_on_c, 9, 40, 0
5, 263871, Note_on_c, 9, 38, 48
5, 263895, Note_on_c, 9, 36, 34
5, 263936, Note_on_c, 9, 36, 0
5, 263976, Note_on_c, 9, 38, 0
5, 264041, Note_on_c, 9, 40, 16
5, 264051, Note_on_c, 9, 43, 85
5, 264293, Note_on_c, 9, 43, 0
5, 264322, Note_on_c, 9, 40, 0
5, 264345, Note_on_c, 9, 38, 44
5, 264446, Note_on_c, 9, 38, 0
5, 264480, Note_on_c, 9, 44, 33
5, 264516, Note_on_c, 9, 40, 16
5, 264516, Note_on_c, 9, 39, 35
5, 264555, Note_on_c, 9, 39, 0
5, 264652, Note_on_c, 9, 44, 0
5, 264798, Note_on_c, 9, 40, 0
5, 264808, Note_on_c, 9, 38, 40
5, 264812, Note_on_c, 9, 36, 69
5, 264882, Note_on_c, 9, 38, 0
5, 264893, Note_on_c, 9, 36, 0
5, 264952, Note_on_c, 9, 57, 22
5, 264973, Note_on_c, 9, 40, 18
5, 265050, Note_on_c, 9, 57, 0
5, 265317, Note_on_c, 9, 40, 0
5, 265420, Note_on_c, 9, 40, 19
5, 265440, Note_on_c, 9, 44, 33
5, 265581, Note_on_c, 9, 44, 0
5, 265695, Note_on_c, 9, 40, 0
5, 265770, Note_on_c, 9, 40, 23
5, 265872, Note_on_c, 9, 40, 0
5, 265927, Note_on_c, 9, 40, 19
5, 266309, Note_on_c, 9, 40, 0
5, 266394, Note_on_c, 9, 40, 26
5, 266400, Note_on_c, 9, 44, 36
5, 266541, Note_on_c, 9, 44, 0
5, 266690, Note_on_c, 9, 40, 0
5, 266739, Note_on_c, 9, 40, 15
5, 266809, Note_on_c, 9, 40, 0
5, 266881, Note_on_c, 9, 40, 18
5, 267271, Note_on_c, 9, 40, 0
5, 267360, Note_on_c, 9, 40, 22
5, 267360, Note_on_c, 9, 44, 40
5, 267529, Note_on_c, 9, 44, 0
5, 267673, Note_on_c, 9, 40, 0
5, 267746, Note_on_c, 9, 40, 14
5, 267811, Note_on_c, 9, 40, 0
5, 267869, Note_on_c, 9, 40, 14
5, 268185, Note_on_c, 9, 40, 0
5, 268185, Note_on_c, 9, 45, 49
5, 268243, Note_on_c, 9, 45, 0
5, 268248, Note_on_c, 9, 38, 15
5, 268312, Note_on_c, 9, 38, 0
5, 268320, Note_on_c, 9, 44, 33
5, 268333, Note_on_c, 9, 40, 24
5, 268374, Note_on_c, 9, 45, 25
5, 268427, Note_on_c, 9, 44, 0
5, 268576, Note_on_c, 9, 45, 0
5, 268665, Note_on_c, 9, 40, 0
5, 268673, Note_on_c, 9, 39, 43
5, 268673, Note_on_c, 9, 36, 26
5, 268737, Note_on_c, 9, 39, 0
5, 268743, Note_on_c, 9, 36, 0
5, 268853, Note_on_c, 9, 36, 33
5, 269127, Note_on_c, 9, 36, 0
5, 269146, Note_on_c, 9, 40, 31
5, 269260, Note_on_c, 9, 40, 0
5, 269280, Note_on_c, 9, 44, 31
5, 269305, Note_on_c, 9, 40, 16
5, 269410, Note_on_c, 9, 44, 0
5, 269583, Note_on_c, 9, 40, 0
5, 269605, Note_on_c, 9, 39, 31
5, 269641, Note_on_c, 9, 39, 0
5, 269765, Note_on_c, 9, 40, 20
5, 270132, Note_on_c, 9, 40, 0
5, 270235, Note_on_c, 9, 40, 22
5, 270240, Note_on_c, 9, 46, 26
5, 270242, Note_on_c, 9, 39, 44
5, 270299, Note_on_c, 9, 39, 0
5, 270366, Note_on_c, 9, 46, 0
5, 270402, Note_on_c, 9, 39, 35
5, 270435, Note_on_c, 9, 39, 0
5, 270568, Note_on_c, 9, 40, 0
5, 270704, Note_on_c, 9, 40, 27
5, 271050, Note_on_c, 9, 36, 36
5, 271095, Note_on_c, 9, 40, 0
5, 271136, Note_on_c, 9, 36, 0
5, 271200, Note_on_c, 9, 44, 33
5, 271214, Note_on_c, 9, 40, 20
5, 271227, Note_on_c, 9, 39, 38
5, 271322, Note_on_c, 9, 44, 0
5, 271415, Note_on_c, 9, 39, 0
5, 271538, Note_on_c, 9, 39, 71
5, 271554, Note_on_c, 9, 38, 49
5, 271572, Note_on_c, 9, 40, 0
5, 271631, Note_on_c, 9, 38, 0
5, 271722, Note_on_c, 9, 40, 15
5, 271752, Note_on_c, 9, 39, 0
5, 271849, Note_on_c, 9, 39, 63
5, 271958, Note_on_c, 9, 40, 0
5, 272015, Note_on_c, 9, 39, 0
5, 272021, Note_on_c, 9, 40, 33
5, 272116, Note_on_c, 9, 40, 0
5, 272160, Note_on_c, 9, 44, 37
5, 272177, Note_on_c, 9, 40, 25
5, 272192, Note_on_c, 9, 39, 71
5, 272321, Note_on_c, 9, 44, 0
5, 272426, Note_on_c, 9, 39, 0
5, 272478, Note_on_c, 9, 38, 42
5, 272482, Note_on_c, 9, 36, 56
5, 272488, Note_on_c, 9, 40, 0
5, 272544, Note_on_c, 9, 36, 0
5, 272553, Note_on_c, 9, 38, 0
5, 272641, Note_on_c, 9, 40, 21
5, 272646, Note_on_c, 9, 36, 43
5, 272821, Note_on_c, 9, 36, 0
5, 272995, Note_on_c, 9, 40, 0
5, 273088, Note_on_c, 9, 40, 19
5, 273120, Note_on_c, 9, 44, 28
5, 273259, Note_on_c, 9, 44, 0
5, 273360, Note_on_c, 9, 40, 0
5, 273449, Note_on_c, 9, 40, 18
5, 273498, Note_on_c, 9, 40, 0
5, 273580, Note_on_c, 9, 40, 17
5, 273929, Note_on_c, 9, 40, 0
5, 274054, Note_on_c, 9, 40, 18
5, 274080, Note_on_c, 9, 44, 35
5, 274225, Note_on_c, 9, 44, 0
5, 274314, Note_on_c, 9, 40, 0
5, 274419, Note_on_c, 9, 40, 14
5, 274466, Note_on_c, 9, 40, 0
5, 274528, Note_on_c, 9, 40, 16
5, 274868, Note_on_c, 9, 38, 58
5, 274903, Note_on_c, 9, 40, 0
5, 274948, Note_on_c, 9, 38, 0
5, 275040, Note_on_c, 9, 44, 35
5, 275053, Note_on_c, 9, 40, 11
5, 275216, Note_on_c, 9, 44, 0
5, 275380, Note_on_c, 9, 40, 0
5, 275389, Note_on_c, 9, 38, 27
5, 275430, Note_on_c, 9, 38, 0
5, 275524, Note_on_c, 9, 40, 26
5, 275705, Note_on_c, 9, 39, 42
5, 275739, Note_on_c, 9, 39, 0
5, 275823, Note_on_c, 9, 40, 0
5, 275842, Note_on_c, 9, 39, 59
5, 275870, Note_on_c, 9, 39, 46
5, 275912, Note_on_c, 9, 39, 0
5, 276000, Note_on_c, 9, 44, 37
5, 276002, Note_on_c, 9, 39, 0
5, 276029, Note_on_c, 9, 39, 61
5, 276088, Note_on_c, 9, 40, 2
5, 276095, Note_on_c, 9, 39, 0
5, 276159, Note_on_c, 9, 44, 0
5, 276265, Note_on_c, 9, 40, 0
5, 276309, Note_on_c, 9, 39, 71
5, 276334, Note_on_c, 9, 36, 33
5, 276375, Note_on_c, 9, 36, 0
5, 276409, Note_on_c, 9, 39, 0
5, 276491, Note_on_c, 9, 36, 39
5, 276492, Note_on_c, 9, 40, 16
5, 276551, Note_on_c, 9, 36, 0
5, 276748, Note_on_c, 9, 40, 0
5, 276819, Note_on_c, 9, 40, 20
5, 276886, Note_on_c, 9, 40, 0
5, 276960, Note_on_c, 9, 44, 35
5, 276979, Note_on_c, 9, 40, 21
5, 277110, Note_on_c, 9, 44, 0
5, 277284, Note_on_c, 9, 40, 0
5, 277286, Note_on_c, 9, 39, 48
5, 277295, Note_on_c, 9, 36, 41
5, 277346, Note_on_c, 9, 39, 0
5, 277348, Note_on_c, 9, 36, 0
5, 277454, Note_on_c, 9, 40, 14
5, 277724, Note_on_c, 9, 40, 0
5, 277757, Note_on_c, 9, 39, 46
5, 277790, Note_on_c, 9, 39, 0
5, 277920, Note_on_c, 9, 44, 35
5, 277935, Note_on_c, 9, 40, 16
5, 278079, Note_on_c, 9, 44, 0
5, 278153, Note_on_c, 9, 40, 0
5, 278229, Note_on_c, 9, 40, 26
5, 278305, Note_on_c, 9, 40, 0
5, 278389, Note_on_c, 9, 40, 23
5, 278705, Note_on_c, 9, 40, 0
5, 278786, Note_on_c, 9, 40, 19
5, 278828, Note_on_c, 9, 40, 0
5, 278880, Note_on_c, 9, 44, 35
5, 278906, Note_on_c, 9, 40, 20
5, 279021, Note_on_c, 9, 44, 0
5, 279257, Note_on_c, 9, 40, 0
5, 279354, Note_on_c, 9, 40, 21
5, 279390, Note_on_c, 9, 45, 41
5, 279626, Note_on_c, 9, 40, 0
5, 279640, Note_on_c, 9, 45, 0
5, 279700, Note_on_c, 9, 40, 30
5, 279778, Note_on_c, 9, 40, 0
5, 279840, Note_on_c, 9, 44, 36
5, 279854, Note_on_c, 9, 47, 54
5, 279871, Note_on_c, 9, 40, 16
5, 279977, Note_on_c, 9, 44, 0
5, 280060, Note_on_c, 9, 47, 0
5, 280144, Note_on_c, 9, 40, 0
5, 280168, Note_on_c, 9, 39, 39
5, 280202, Note_on_c, 9, 39, 0
5, 280339, Note_on_c, 9, 40, 21
5, 280353, Note_on_c, 9, 36, 40
5, 280467, Note_on_c, 9, 36, 0
5, 280695, Note_on_c, 9, 40, 0
5, 280800, Note_on_c, 9, 44, 37
5, 280819, Note_on_c, 9, 40, 21
5, 280971, Note_on_c, 9, 44, 0
5, 281104, Note_on_c, 9, 40, 0
5, 281189, Note_on_c, 9, 40, 15
5, 281237, Note_on_c, 9, 40, 0
5, 281314, Note_on_c, 9, 40, 17
5, 281642, Note_on_c, 9, 39, 36
5, 281679, Note_on_c, 9, 39, 0
5, 281704, Note_on_c, 9, 40, 0
5, 281760, Note_on_c, 9, 44, 40
5, 281791, Note_on_c, 9, 40, 22
5, 281903, Note_on_c, 9, 44, 0
5, 282125, Note_on_c, 9, 38, 52
5, 282139, Note_on_c, 9, 40, 0
5, 282181, Note_on_c, 9, 38, 0
5, 282292, Note_on_c, 9, 40, 15
5, 282672, Note_on_c, 9, 40, 0
5, 282720, Note_on_c, 9, 44, 36
5, 282744, Note_on_c, 9, 40, 19
5, 282784, Note_on_c, 9, 39, 18
5, 282840, Note_on_c, 9, 44, 0
5, 283012, Note_on_c, 9, 39, 0
5, 283066, Note_on_c, 9, 39, 50
5, 283128, Note_on_c, 9, 39, 0
5, 283147, Note_on_c, 9, 40, 0
5, 283230, Note_on_c, 9, 40, 19
5, 283254, Note_on_c, 9, 36, 29
5, 283383, Note_on_c, 9, 36, 0
5, 283577, Note_on_c, 9, 36, 44
5, 283664, Note_on_c, 9, 40, 0
5, 283680, Note_on_c, 9, 46, 29
5, 283726, Note_on_c, 9, 40, 14
5, 283822, Note_on_c, 9, 46, 0
5, 283862, Note_on_c, 9, 36, 0
5, 284032, Note_on_c, 9, 40, 0
5, 284047, Note_on_c, 9, 39, 39
5, 284083, Note_on_c, 9, 39, 0
5, 284186, Note_on_c, 9, 40, 17
5, 284608, Note_on_c, 9, 40, 0
5, 284640, Note_on_c, 9, 44, 39
5, 284691, Note_on_c, 9, 40, 18
5, 284801, Note_on_c, 9, 44, 0
5, 285014, Note_on_c, 9, 36, 37
5, 285071, Note_on_c, 9, 36, 0
5, 285168, Note_on_c, 9, 39, 34
5, 285212, Note_on_c, 9, 39, 0
5, 285306, Note_on_c, 9, 39, 31
5, 285352, Note_on_c, 9, 39, 0
5, 285424, Note_on_c, 9, 40, 0
5, 285491, Note_on_c, 9, 40, 21
5, 285530, Note_on_c, 9, 36, 35
5, 285542, Note_on_c, 9, 40, 0
5, 285577, Note_on_c, 9, 36, 0
5, 285600, Note_on_c, 9, 44, 33
5, 285637, Note_on_c, 9, 40, 15
5, 285679, Note_on_c, 9, 39, 46
5, 285743, Note_on_c, 9, 44, 0
5, 285882, Note_on_c, 9, 39, 0
5, 285946, Note_on_c, 9, 39, 35
5, 285961, Note_on_c, 9, 40, 0
5, 285983, Note_on_c, 9, 39, 45
5, 285985, Note_on_c, 9, 39, 0
5, 286036, Note_on_c, 9, 39, 0
5, 286120, Note_on_c, 9, 40, 15
5, 286465, Note_on_c, 9, 36, 33
5, 286498, Note_on_c, 9, 40, 0
5, 286513, Note_on_c, 9, 36, 0
5, 286560, Note_on_c, 9, 44, 39
5, 286587, Note_on_c, 9, 40, 22
5, 286735, Note_on_c, 9, 44, 0
5, 286901, Note_on_c, 9, 38, 45
5, 286957, Note_on_c, 9, 40, 0
5, 286972, Note_on_c, 9, 38, 0
5, 287051, Note_on_c, 9, 40, 22
5, 287462, Note_on_c, 9, 40, 0
5, 287520, Note_on_c, 9, 44, 27
5, 287534, Note_on_c, 9, 40, 23
5, 287538, Note_on_c, 9, 39, 37
5, 287638, Note_on_c, 9, 44, 0
5, 287734, Note_on_c, 9, 39, 0
5, 287826, Note_on_c, 9, 40, 0
5, 287897, Note_on_c, 9, 40, 18
5, 287945, Note_on_c, 9, 40, 0
5, 288029, Note_on_c, 9, 40, 18
5, 288065, Note_on_c, 9, 36, 29
5, 288214, Note_on_c, 9, 36, 0
5, 288428, Note_on_c, 9, 40, 0
5, 288480, Note_on_c, 9, 44, 33
5, 288514, Note_on_c, 9, 40, 21
5, 288608, Note_on_c, 9, 44, 0
5, 289244, Note_on_c, 9, 40, 0
5, 289308, Note_on_c, 9, 39, 55
5, 289318, Note_on_c, 9, 40, 22
5, 289384, Note_on_c, 9, 40, 0
5, 289406, Note_on_c, 9, 39, 0
5, 289440, Note_on_c, 9, 44, 36
5, 289485, Note_on_c, 9, 40, 21
5, 289486, Note_on_c, 9, 39, 25
5, 289583, Note_on_c, 9, 44, 0
5, 289652, Note_on_c, 9, 39, 0
5, 289803, Note_on_c, 9, 36, 37
5, 289854, Note_on_c, 9, 36, 0
5, 290185, Note_on_c, 9, 40, 0
5, 290265, Note_on_c, 9, 40, 21
5, 290340, Note_on_c, 9, 40, 0
5, 290400, Note_on_c, 9, 44, 37
5, 290426, Note_on_c, 9, 40, 22
5, 290539, Note_on_c, 9, 44, 0
5, 290788, Note_on_c, 9, 36, 29
5, 290804, Note_on_c, 9, 40, 0
5, 290837, Note_on_c, 9, 36, 0
5, 290928, Note_on_c, 9, 40, 12
5, 291253, Note_on_c, 9, 40, 0
5, 291256, Note_on_c, 9, 38, 50
5, 291307, Note_on_c, 9, 38, 0
5, 291360, Note_on_c, 9, 46, 27
5, 291395, Note_on_c, 9, 40, 21
5, 291414, Note_on_c, 9, 39, 49
5, 291475, Note_on_c, 9, 46, 0
5, 291511, Note_on_c, 9, 39, 0
5, 291689, Note_on_c, 9, 40, 0
5, 291750, Note_on_c, 9, 40, 18
5, 291804, Note_on_c, 9, 40, 0
5, 291880, Note_on_c, 9, 36, 40
5, 291893, Note_on_c, 9, 40, 21
5, 291957, Note_on_c, 9, 36, 0
5, 292239, Note_on_c, 9, 40, 0
5, 292320, Note_on_c, 9, 44, 31
5, 292331, Note_on_c, 9, 40, 21
5, 292490, Note_on_c, 9, 44, 0
5, 292666, Note_on_c, 9, 40, 0
5, 292807, Note_on_c, 9, 40, 19
5, 293117, Note_on_c, 9, 40, 0
5, 293184, Note_on_c, 9, 40, 15
5, 293230, Note_on_c, 9, 40, 0
5, 293280, Note_on_c, 9, 44, 35
5, 293331, Note_on_c, 9, 40, 16
5, 293563, Note_on_c, 9, 44, 0
5, 293694, Note_on_c, 9, 40, 0
5, 293792, Note_on_c, 9, 40, 21
5, 294110, Note_on_c, 9, 40, 0
5, 294169, Note_on_c, 9, 40, 20
5, 294216, Note_on_c, 9, 40, 0
5, 294240, Note_on_c, 9, 44, 36
5, 294300, Note_on_c, 9, 40, 17
5, 294405, Note_on_c, 9, 44, 0
5, 294625, Note_on_c, 9, 39, 34
5, 294626, Note_on_c, 9, 40, 0
5, 294628, Note_on_c, 9, 39, 75
5, 294661, Note_on_c, 9, 39, 0
5, 294733, Note_on_c, 9, 39, 0
5, 294794, Note_on_c, 9, 40, 16
5, 295093, Note_on_c, 9, 40, 0
5, 295094, Note_on_c, 9, 39, 36
5, 295097, Note_on_c, 9, 39, 65
5, 295150, Note_on_c, 9, 39, 0
5, 295200, Note_on_c, 9, 44, 33
5, 295211, Note_on_c, 9, 39, 0
5, 295256, Note_on_c, 9, 40, 24
5, 295375, Note_on_c, 9, 44, 0
5, 295541, Note_on_c, 9, 40, 0
5, 295547, Note_on_c, 9, 39, 68
5, 295588, Note_on_c, 9, 39, 40
5, 295622, Note_on_c, 9, 39, 0
5, 295665, Note_on_c, 9, 39, 0
5, 295734, Note_on_c, 9, 40, 31
5, 296007, Note_on_c, 9, 40, 0
5, 296160, Note_on_c, 9, 44, 36
5, 296197, Note_on_c, 9, 40, 18
5, 296289, Note_on_c, 9, 44, 0
5, 296530, Note_on_c, 9, 40, 0
5, 296685, Note_on_c, 9, 40, 18
5, 297047, Note_on_c, 9, 40, 0
5, 297120, Note_on_c, 9, 44, 37
5, 297149, Note_on_c, 9, 40, 21
5, 297245, Note_on_c, 9, 44, 0
5, 297429, Note_on_c, 9, 40, 0
5, 297509, Note_on_c, 9, 40, 16
5, 297562, Note_on_c, 9, 40, 0
5, 297638, Note_on_c, 9, 40, 20
5, 298023, Note_on_c, 9, 40, 0
5, 298080, Note_on_c, 9, 44, 33
5, 298105, Note_on_c, 9, 40, 20
5, 298202, Note_on_c, 9, 44, 0
5, 298835, Note_on_c, 9, 40, 0
5, 298877, Note_on_c, 9, 40, 18
5, 298951, Note_on_c, 9, 40, 0
5, 299034, Note_on_c, 9, 40, 23
5, 299040, Note_on_c, 9, 44, 34
5, 299157, Note_on_c, 9, 44, 0
5, 299410, Note_on_c, 9, 40, 0
5, 299496, Note_on_c, 9, 40, 23
5, 299828, Note_on_c, 9, 39, 53
5, 299850, Note_on_c, 9, 40, 0
5, 299899, Note_on_c, 9, 39, 0
5, 299985, Note_on_c, 9, 40, 18
5, 300000, Note_on_c, 9, 44, 33
5, 300130, Note_on_c, 9, 44, 0
5, 300322, Note_on_c, 9, 45, 41
5, 300359, Note_on_c, 9, 40, 0
5, 300403, Note_on_c, 9, 45, 0
5, 300478, Note_on_c, 9, 40, 20
5, 300499, Note_on_c, 9, 45, 37
5, 300557, Note_on_c, 9, 45, 0
5, 300796, Note_on_c, 9, 39, 31
5, 300809, Note_on_c, 9, 38, 51
5, 300859, Note_on_c, 9, 39, 0
5, 300861, Note_on_c, 9, 38, 0
5, 300960, Note_on_c, 9, 44, 37
5, 300986, Note_on_c, 9, 38, 39
5, 301102, Note_on_c, 9, 44, 0
5, 301240, Note_on_c, 9, 38, 0
5, 301240, Note_on_c, 9, 40, 0
5, 301305, Note_on_c, 9, 40, 20
5, 301391, Note_on_c, 9, 40, 0
5, 301453, Note_on_c, 9, 40, 19
5, 301768, Note_on_c, 9, 38, 61
5, 301875, Note_on_c, 9, 38, 0
5, 301920, Note_on_c, 9, 44, 32
5, 302065, Note_on_c, 9, 44, 0
5, 302225, Note_on_c, 9, 40, 0
5, 302232, Note_on_c, 9, 38, 62
5, 302319, Note_on_c, 9, 38, 0
5, 302387, Note_on_c, 9, 40, 15
5, 302721, Note_on_c, 9, 40, 0
5, 302730, Note_on_c, 9, 38, 44
5, 302743, Note_on_c, 9, 39, 42
5, 302795, Note_on_c, 9, 39, 0
5, 302841, Note_on_c, 9, 38, 0
5, 302880, Note_on_c, 9, 46, 32
5, 302881, Note_on_c, 9, 40, 14
5, 302929, Note_on_c, 9, 39, 28
5, 302995, Note_on_c, 9, 46, 0
5, 303136, Note_on_c, 9, 39, 0
5, 303211, Note_on_c, 9, 40, 0
5, 303212, Note_on_c, 9, 38, 62
5, 303220, Note_on_c, 9, 36, 42
5, 303277, Note_on_c, 9, 36, 0
5, 303316, Note_on_c, 9, 38, 0
5, 303363, Note_on_c, 9, 40, 20
5, 303421, Note_on_c, 9, 36, 26
5, 303615, Note_on_c, 9, 36, 0
5, 303746, Note_on_c, 9, 40, 0
5, 303834, Note_on_c, 9, 40, 19
5, 303840, Note_on_c, 9, 44, 43
5, 303991, Note_on_c, 9, 44, 0
5, 304115, Note_on_c, 9, 40, 0
5, 304191, Note_on_c, 9, 40, 19
5, 304244, Note_on_c, 9, 40, 0
5, 304330, Note_on_c, 9, 40, 18
5, 304630, Note_on_c, 9, 39, 53
5, 304646, Note_on_c, 9, 38, 57
5, 304697, Note_on_c, 9, 40, 0
5, 304738, Note_on_c, 9, 38, 0
5, 304754, Note_on_c, 9, 39, 0
5, 304800, Note_on_c, 9, 40, 21
5, 304800, Note_on_c, 9, 44, 35
5, 304868, Note_on_c, 9, 36, 18
5, 304954, Note_on_c, 9, 36, 0
5, 304968, Note_on_c, 9, 44, 0
5, 305125, Note_on_c, 9, 36, 38
5, 305209, Note_on_c, 9, 40, 0
5, 305293, Note_on_c, 9, 40, 22
5, 305299, Note_on_c, 9, 36, 0
5, 305618, Note_on_c, 9, 38, 28
5, 305662, Note_on_c, 9, 40, 0
5, 305711, Note_on_c, 9, 38, 0
5, 305760, Note_on_c, 9, 44, 36
5, 305766, Note_on_c, 9, 40, 18
5, 305943, Note_on_c, 9, 44, 0
5, 306081, Note_on_c, 9, 38, 37
5, 306111, Note_on_c, 9, 40, 0
5, 306135, Note_on_c, 9, 38, 0
5, 306230, Note_on_c, 9, 40, 18
5, 306653, Note_on_c, 9, 40, 0
5, 306720, Note_on_c, 9, 44, 46
5, 306737, Note_on_c, 9, 40, 23
5, 306868, Note_on_c, 9, 44, 0
5, 307038, Note_on_c, 9, 39, 52
5, 307053, Note_on_c, 9, 40, 0
5, 307101, Note_on_c, 9, 39, 0
5, 307187, Note_on_c, 9, 40, 10
5, 307503, Note_on_c, 9, 40, 0
5, 307676, Note_on_c, 9, 40, 30
5, 307680, Note_on_c, 9, 44, 37
5, 307862, Note_on_c, 9, 44, 0
5, 308019, Note_on_c, 9, 38, 20
5, 308036, Note_on_c, 9, 40, 0
5, 308064, Note_on_c, 9, 38, 0
5, 308155, Note_on_c, 9, 40, 19
5, 308173, Note_on_c, 9, 45, 62
5, 308253, Note_on_c, 9, 45, 0
5, 308339, Note_on_c, 9, 45, 53
5, 308376, Note_on_c, 9, 45, 0
5, 308435, Note_on_c, 9, 40, 0
5, 308501, Note_on_c, 9, 40, 28
5, 308578, Note_on_c, 9, 40, 0
5, 308640, Note_on_c, 9, 44, 37
5, 308655, Note_on_c, 9, 40, 16
5, 308658, Note_on_c, 9, 45, 55
5, 308701, Note_on_c, 9, 45, 0
5, 308860, Note_on_c, 9, 44, 0
5, 309000, Note_on_c, 9, 40, 0
5, 309103, Note_on_c, 9, 40, 22
5, 309600, Note_on_c, 9, 44, 36
5, 309847, Note_on_c, 9, 44, 0
5, 309905, Note_on_c, 9, 38, 54
5, 309923, Note_on_c, 9, 39, 59
5, 309957, Note_on_c, 9, 40, 0
5, 309994, Note_on_c, 9, 38, 0
5, 310029, Note_on_c, 9, 39, 0
5, 310045, Note_on_c, 9, 40, 24
5, 310095, Note_on_c, 9, 39, 55
5, 310356, Note_on_c, 9, 39, 0
5, 310389, Note_on_c, 9, 38, 46
5, 310395, Note_on_c, 9, 36, 53
5, 310409, Note_on_c, 9, 40, 0
5, 310457, Note_on_c, 9, 38, 0
5, 310478, Note_on_c, 9, 36, 0
5, 310524, Note_on_c, 9, 40, 19
5, 310560, Note_on_c, 9, 44, 31
5, 310590, Note_on_c, 9, 36, 36
5, 310737, Note_on_c, 9, 44, 0
5, 310775, Note_on_c, 9, 36, 0
5, 310855, Note_on_c, 9, 36, 56
5, 310936, Note_on_c, 9, 40, 0
5, 311016, Note_on_c, 9, 40, 21
5, 311364, Note_on_c, 9, 39, 49
5, 311383, Note_on_c, 9, 40, 0
5, 311464, Note_on_c, 9, 39, 0
5, 311518, Note_on_c, 9, 36, 0
5, 311520, Note_on_c, 9, 44, 44
5, 311527, Note_on_c, 9, 40, 21
5, 311672, Note_on_c, 9, 44, 0
5, 311951, Note_on_c, 9, 40, 0
5, 312024, Note_on_c, 9, 40, 19
5, 312404, Note_on_c, 9, 40, 0
5, 312480, Note_on_c, 9, 44, 35
5, 312496, Note_on_c, 9, 40, 20
5, 312615, Note_on_c, 9, 44, 0
5, 312807, Note_on_c, 9, 40, 0
5, 312818, Note_on_c, 9, 38, 53
5, 312902, Note_on_c, 9, 38, 0
5, 312995, Note_on_c, 9, 40, 15
5, 313328, Note_on_c, 9, 39, 42
5, 313376, Note_on_c, 9, 39, 0
5, 313383, Note_on_c, 9, 40, 0
5, 313440, Note_on_c, 9, 44, 30
5, 313479, Note_on_c, 9, 40, 21
5, 313592, Note_on_c, 9, 44, 0
5, 313769, Note_on_c, 9, 40, 0
5, 313808, Note_on_c, 9, 36, 29
5, 313827, Note_on_c, 9, 40, 19
5, 313871, Note_on_c, 9, 36, 0
5, 313875, Note_on_c, 9, 40, 0
5, 313954, Note_on_c, 9, 59, 41
5, 313965, Note_on_c, 9, 40, 18
5, 314219, Note_on_c, 9, 59, 0
5, 314360, Note_on_c, 9, 40, 0
5, 314400, Note_on_c, 9, 44, 34
5, 314443, Note_on_c, 9, 40, 21
5, 314470, Note_on_c, 9, 59, 83
5, 314542, Note_on_c, 9, 44, 0
5, 314649, Note_on_c, 9, 59, 0
5, 314741, Note_on_c, 9, 40, 0
5, 314778, Note_on_c, 9, 39, 38
5, 314826, Note_on_c, 9, 39, 0
5, 314923, Note_on_c, 9, 40, 14
5, 314964, Note_on_c, 9, 39, 32
5, 315016, Note_on_c, 9, 39, 0
5, 315248, Note_on_c, 9, 38, 49
5, 315255, Note_on_c, 9, 40, 0
5, 315256, Note_on_c, 9, 36, 51
5, 315348, Note_on_c, 9, 36, 0
5, 315354, Note_on_c, 9, 38, 0
5, 315360, Note_on_c, 9, 44, 34
5, 315419, Note_on_c, 9, 40, 14
5, 315511, Note_on_c, 9, 44, 0
5, 315813, Note_on_c, 9, 40, 0
5, 315875, Note_on_c, 9, 40, 19
5, 316222, Note_on_c, 9, 40, 0
5, 316320, Note_on_c, 9, 44, 34
5, 316348, Note_on_c, 9, 40, 21
5, 316473, Note_on_c, 9, 44, 0
5, 316636, Note_on_c, 9, 40, 0
5, 316688, Note_on_c, 9, 39, 32
5, 316751, Note_on_c, 9, 39, 0
5, 316838, Note_on_c, 9, 40, 26
5, 316864, Note_on_c, 9, 39, 32
5, 316941, Note_on_c, 9, 39, 0
5, 317154, Note_on_c, 9, 36, 45
5, 317213, Note_on_c, 9, 40, 0
5, 317243, Note_on_c, 9, 36, 0
5, 317280, Note_on_c, 9, 44, 38
5, 317309, Note_on_c, 9, 40, 21
5, 317486, Note_on_c, 9, 44, 0
5, 317707, Note_on_c, 9, 40, 0
5, 317787, Note_on_c, 9, 40, 21
5, 318117, Note_on_c, 9, 38, 66
5, 318150, Note_on_c, 9, 40, 0
5, 318204, Note_on_c, 9, 38, 0
5, 318240, Note_on_c, 9, 44, 36
5, 318260, Note_on_c, 9, 40, 18
5, 318413, Note_on_c, 9, 44, 0
5, 318624, Note_on_c, 9, 40, 0
5, 318736, Note_on_c, 9, 40, 23
5, 319107, Note_on_c, 9, 40, 0
5, 319200, Note_on_c, 9, 44, 38
5, 319232, Note_on_c, 9, 40, 21
5, 319338, Note_on_c, 9, 44, 0
5, 319550, Note_on_c, 9, 59, 52
5, 319554, Note_on_c, 9, 39, 57
5, 319556, Note_on_c, 9, 40, 0
5, 319587, Note_on_c, 9, 59, 0
5, 319624, Note_on_c, 9, 39, 0
5, 319817, Note_on_c, 9, 40, 2
5, 319986, Note_on_c, 9, 40, 0
5, 320029, Note_on_c, 9, 59, 64
5, 320031, Note_on_c, 9, 40, 45
5, 320036, Note_on_c, 9, 39, 32
5, 320067, Note_on_c, 9, 59, 0
5, 320070, Note_on_c, 9, 39, 0
5, 320160, Note_on_c, 9, 46, 25
5, 320246, Note_on_c, 9, 46, 0
5, 320468, Note_on_c, 9, 40, 0
5, 320501, Note_on_c, 9, 39, 57
5, 320525, Note_on_c, 9, 39, 36
5, 320563, Note_on_c, 9, 39, 0
5, 320571, Note_on_c, 9, 39, 0
5, 320663, Note_on_c, 9, 40, 22
5, 320670, Note_on_c, 9, 59, 41
5, 320864, Note_on_c, 9, 59, 0
5, 320959, Note_on_c, 9, 40, 0
5, 320995, Note_on_c, 9, 59, 52
5, 321034, Note_on_c, 9, 59, 0
5, 321120, Note_on_c, 9, 44, 36
5, 321144, Note_on_c, 9, 40, 24
5, 321275, Note_on_c, 9, 44, 0
5, 321446, Note_on_c, 9, 40, 0
5, 321450, Note_on_c, 9, 39, 53
5, 321479, Note_on_c, 9, 39, 46
5, 321525, Note_on_c, 9, 39, 0
5, 321530, Note_on_c, 9, 39, 0
5, 321627, Note_on_c, 9, 40, 18
5, 321897, Note_on_c, 9, 45, 78
5, 321908, Note_on_c, 9, 47, 63
5, 321916, Note_on_c, 9, 40, 0
5, 321947, Note_on_c, 9, 38, 35
5, 321973, Note_on_c, 9, 47, 0
5, 321993, Note_on_c, 9, 38, 0
5, 321996, Note_on_c, 9, 45, 0
5, 322066, Note_on_c, 9, 40, 19
5, 322080, Note_on_c, 9, 44, 40
5, 322125, Note_on_c, 9, 43, 24
5, 322174, Note_on_c, 9, 43, 0
5, 322209, Note_on_c, 9, 44, 0
5, 322351, Note_on_c, 9, 40, 0
5, 322381, Note_on_c, 9, 39, 48
5, 322411, Note_on_c, 9, 40, 32
5, 322485, Note_on_c, 9, 39, 0
5, 322499, Note_on_c, 9, 40, 0
5, 322562, Note_on_c, 9, 59, 64
5, 322579, Note_on_c, 9, 40, 22
5, 322582, Note_on_c, 9, 36, 43
5, 322596, Note_on_c, 9, 59, 0
5, 322705, Note_on_c, 9, 36, 0
5, 322917, Note_on_c, 9, 40, 0
5, 322918, Note_on_c, 9, 38, 25
5, 322989, Note_on_c, 9, 38, 0
5, 323040, Note_on_c, 9, 44, 35
5, 323057, Note_on_c, 9, 40, 18
5, 323177, Note_on_c, 9, 44, 0
5, 323410, Note_on_c, 9, 40, 0
5, 323503, Note_on_c, 9, 40, 19
5, 323886, Note_on_c, 9, 40, 0
5, 323988, Note_on_c, 9, 40, 19
5, 324000, Note_on_c, 9, 44, 37
5, 324128, Note_on_c, 9, 44, 0
5, 324266, Note_on_c, 9, 40, 0
5, 324333, Note_on_c, 9, 40, 18
5, 324382, Note_on_c, 9, 40, 0
5, 324470, Note_on_c, 9, 40, 21
5, 324830, Note_on_c, 9, 40, 0
5, 324948, Note_on_c, 9, 40, 25
5, 324960, Note_on_c, 9, 44, 36
5, 325096, Note_on_c, 9, 44, 0
5, 325428, Note_on_c, 9, 40, 0
5, 325502, Note_on_c, 9, 40, 19
5, 325578, Note_on_c, 9, 40, 0
5, 325768, Note_on_c, 9, 40, 34
5, 325820, Note_on_c, 9, 39, 29
5, 325856, Note_on_c, 9, 39, 0
5, 325920, Note_on_c, 9, 44, 44
5, 326057, Note_on_c, 9, 44, 0
5, 326112, Note_on_c, 9, 39, 55
5, 326190, Note_on_c, 9, 40, 0
5, 326191, Note_on_c, 9, 39, 0
5, 326249, Note_on_c, 9, 39, 62
5, 326258, Note_on_c, 9, 40, 19
5, 326304, Note_on_c, 9, 39, 0
5, 326310, Note_on_c, 9, 40, 0
5, 326421, Note_on_c, 9, 40, 26
5, 326473, Note_on_c, 9, 36, 24
5, 326523, Note_on_c, 9, 36, 0
5, 326802, Note_on_c, 9, 40, 0
5, 326880, Note_on_c, 9, 44, 34
5, 326883, Note_on_c, 9, 40, 21
5, 327011, Note_on_c, 9, 44, 0
5, 327133, Note_on_c, 9, 40, 0
5, 327205, Note_on_c, 9, 40, 32
5, 327619, Note_on_c, 9, 40, 0
5, 327672, Note_on_c, 9, 38, 53
5, 327757, Note_on_c, 9, 38, 0
5, 327836, Note_on_c, 9, 40, 21
5, 327840, Note_on_c, 9, 44, 34
5, 327974, Note_on_c, 9, 44, 0
5, 328179, Note_on_c, 9, 39, 33
5, 328217, Note_on_c, 9, 40, 0
5, 328220, Note_on_c, 9, 39, 0
5, 328328, Note_on_c, 9, 45, 63
5, 328351, Note_on_c, 9, 40, 7
5, 328537, Note_on_c, 9, 40, 0
5, 328557, Note_on_c, 9, 45, 0
5, 328629, Note_on_c, 9, 45, 63
5, 328636, Note_on_c, 9, 40, 27
5, 328727, Note_on_c, 9, 45, 0
5, 328799, Note_on_c, 9, 43, 28
5, 328800, Note_on_c, 9, 44, 36
5, 328837, Note_on_c, 9, 43, 0
5, 328941, Note_on_c, 9, 44, 0
5, 329051, Note_on_c, 9, 40, 0
5, 329100, Note_on_c, 9, 39, 48
5, 329136, Note_on_c, 9, 40, 19
5, 329183, Note_on_c, 9, 40, 0
5, 329186, Note_on_c, 9, 39, 0
5, 329295, Note_on_c, 9, 40, 28
5, 329588, Note_on_c, 9, 39, 64
5, 329690, Note_on_c, 9, 40, 0
5, 329703, Note_on_c, 9, 39, 0
5, 329760, Note_on_c, 9, 44, 38
5, 329773, Note_on_c, 9, 40, 16
5, 329791, Note_on_c, 9, 57, 8
5, 329809, Note_on_c, 9, 39, 20
5, 329826, Note_on_c, 9, 57, 0
5, 329850, Note_on_c, 9, 39, 0
5, 329891, Note_on_c, 9, 44, 0
5, 329992, Note_on_c, 9, 40, 0
5, 330080, Note_on_c, 9, 40, 30
5, 330236, Note_on_c, 9, 36, 43
5, 330264, Note_on_c, 9, 59, 37
5, 330414, Note_on_c, 9, 59, 0
5, 330502, Note_on_c, 9, 40, 0
5, 330591, Note_on_c, 9, 40, 14
5, 330629, Note_on_c, 9, 40, 0
5, 330720, Note_on_c, 9, 44, 40
5, 330736, Note_on_c, 9, 40, 23
5, 330780, Note_on_c, 9, 36, 0
5, 330842, Note_on_c, 9, 44, 0
5, 331049, Note_on_c, 9, 36, 38
5, 331052, Note_on_c, 9, 39, 56
5, 331055, Note_on_c, 9, 40, 0
5, 331099, Note_on_c, 9, 36, 0
5, 331125, Note_on_c, 9, 39, 0
5, 331213, Note_on_c, 9, 40, 21
5, 331576, Note_on_c, 9, 40, 0
5, 331680, Note_on_c, 9, 46, 37
5, 331696, Note_on_c, 9, 40, 22
5, 331813, Note_on_c, 9, 46, 0
5, 332039, Note_on_c, 9, 36, 30
5, 332060, Note_on_c, 9, 40, 0
5, 332094, Note_on_c, 9, 36, 0
5, 332186, Note_on_c, 9, 40, 21
5, 332202, Note_on_c, 9, 36, 24
5, 332538, Note_on_c, 9, 36, 0
5, 332555, Note_on_c, 9, 40, 0
5, 332640, Note_on_c, 9, 44, 36
5, 332657, Note_on_c, 9, 40, 21
5, 332790, Note_on_c, 9, 44, 0
5, 332929, Note_on_c, 9, 40, 0
5, 333001, Note_on_c, 9, 40, 14
5, 333073, Note_on_c, 9, 40, 0
5, 333147, Note_on_c, 9, 40, 20
5, 333472, Note_on_c, 9, 39, 43
5, 333506, Note_on_c, 9, 39, 0
5, 333515, Note_on_c, 9, 40, 0
5, 333600, Note_on_c, 9, 44, 37
5, 333612, Note_on_c, 9, 40, 21
5, 333650, Note_on_c, 9, 39, 42
5, 333683, Note_on_c, 9, 39, 0
5, 333737, Note_on_c, 9, 44, 0
5, 333944, Note_on_c, 9, 38, 48
5, 333946, Note_on_c, 9, 36, 31
5, 333959, Note_on_c, 9, 40, 0
5, 334010, Note_on_c, 9, 38, 0
5, 334011, Note_on_c, 9, 36, 0
5, 334100, Note_on_c, 9, 40, 22
5, 334472, Note_on_c, 9, 40, 0
5, 334560, Note_on_c, 9, 44, 33
5, 334561, Note_on_c, 9, 40, 24
5, 334681, Note_on_c, 9, 44, 0
5, 334937, Note_on_c, 9, 40, 0
5, 335050, Note_on_c, 9, 40, 25
5, 335324, Note_on_c, 9, 40, 0
5, 335388, Note_on_c, 9, 39, 42
5, 335411, Note_on_c, 9, 40, 16
5, 335420, Note_on_c, 9, 39, 0
5, 335463, Note_on_c, 9, 40, 0
5, 335520, Note_on_c, 9, 44, 37
5, 335571, Note_on_c, 9, 40, 12
5, 335651, Note_on_c, 9, 44, 0
5, 335821, Note_on_c, 9, 40, 0
5, 335862, Note_on_c, 9, 38, 44
5, 335881, Note_on_c, 9, 40, 36
5, 335905, Note_on_c, 9, 38, 0
5, 336316, Note_on_c, 9, 39, 34
5, 336333, Note_on_c, 9, 40, 0
5, 336362, Note_on_c, 9, 39, 0
5, 336367, Note_on_c, 9, 40, 14
5, 336435, Note_on_c, 9, 40, 0
5, 336480, Note_on_c, 9, 44, 36
5, 336506, Note_on_c, 9, 40, 28
5, 336606, Note_on_c, 9, 44, 0
5, 336839, Note_on_c, 9, 38, 15
5, 336866, Note_on_c, 9, 40, 0
5, 336948, Note_on_c, 9, 38, 0
5, 336955, Note_on_c, 9, 40, 25
5, 336999, Note_on_c, 9, 39, 35
5, 337169, Note_on_c, 9, 39, 0
5, 337319, Note_on_c, 9, 38, 22
5, 337331, Note_on_c, 9, 40, 0
5, 337389, Note_on_c, 9, 38, 0
5, 337416, Note_on_c, 9, 40, 30
5, 337440, Note_on_c, 9, 46, 28
5, 337604, Note_on_c, 9, 46, 0
5, 337713, Note_on_c, 9, 40, 0
5, 337741, Note_on_c, 9, 39, 50
5, 337782, Note_on_c, 9, 39, 0
5, 337787, Note_on_c, 9, 40, 16
5, 337853, Note_on_c, 9, 40, 0
5, 337902, Note_on_c, 9, 40, 17
5, 338213, Note_on_c, 9, 36, 50
5, 338258, Note_on_c, 9, 36, 0
5, 338290, Note_on_c, 9, 40, 0
5, 338380, Note_on_c, 9, 40, 22
5, 338400, Note_on_c, 9, 44, 35
5, 338560, Note_on_c, 9, 44, 0
5, 338688, Note_on_c, 9, 39, 48
5, 338699, Note_on_c, 9, 40, 0
5, 338764, Note_on_c, 9, 39, 0
5, 338771, Note_on_c, 9, 40, 18
5, 338831, Note_on_c, 9, 40, 0
5, 338895, Note_on_c, 9, 40, 19
5, 339198, Note_on_c, 9, 39, 62
5, 339205, Note_on_c, 9, 36, 36
5, 339233, Note_on_c, 9, 40, 0
5, 339249, Note_on_c, 9, 36, 0
5, 339279, Note_on_c, 9, 39, 0
5, 339359, Note_on_c, 9, 40, 23
5, 339360, Note_on_c, 9, 44, 37
5, 339379, Note_on_c, 9, 39, 32
5, 339553, Note_on_c, 9, 44, 0
5, 339599, Note_on_c, 9, 39, 0
5, 339765, Note_on_c, 9, 40, 0
5, 339840, Note_on_c, 9, 40, 30
5, 340167, Note_on_c, 9, 39, 50
5, 340208, Note_on_c, 9, 40, 0
5, 340254, Note_on_c, 9, 39, 0
5, 340311, Note_on_c, 9, 40, 27
5, 340320, Note_on_c, 9, 44, 34
5, 340474, Note_on_c, 9, 44, 0
5, 340582, Note_on_c, 9, 40, 0
5, 340646, Note_on_c, 9, 39, 46
5, 340669, Note_on_c, 9, 40, 14
5, 340705, Note_on_c, 9, 40, 0
5, 340712, Note_on_c, 9, 39, 0
5, 340787, Note_on_c, 9, 40, 26
5, 340832, Note_on_c, 9, 59, 55
5, 340919, Note_on_c, 9, 59, 0
5, 341129, Note_on_c, 9, 39, 48
5, 341135, Note_on_c, 9, 38, 43
5, 341136, Note_on_c, 9, 40, 0
5, 341192, Note_on_c, 9, 38, 0
5, 341211, Note_on_c, 9, 39, 0
5, 341277, Note_on_c, 9, 40, 25
5, 341280, Note_on_c, 9, 44, 33
5, 341326, Note_on_c, 9, 59, 76
5, 341426, Note_on_c, 9, 44, 0
5, 341512, Note_on_c, 9, 59, 0
5, 341622, Note_on_c, 9, 36, 36
5, 341632, Note_on_c, 9, 38, 24
5, 341634, Note_on_c, 9, 40, 0
5, 341680, Note_on_c, 9, 36, 0
5, 341694, Note_on_c, 9, 38, 0
5, 341748, Note_on_c, 9, 40, 22
5, 341796, Note_on_c, 9, 36, 49
5, 342046, Note_on_c, 9, 40, 0
5, 342061, Note_on_c, 9, 36, 0
5, 342240, Note_on_c, 9, 44, 26
5, 342255, Note_on_c, 9, 40, 26
5, 342398, Note_on_c, 9, 44, 0
5, 342593, Note_on_c, 9, 40, 0
5, 342618, Note_on_c, 9, 36, 24
5, 342650, Note_on_c, 9, 36, 0
5, 342694, Note_on_c, 9, 40, 25
5, 342973, Note_on_c, 9, 40, 0
5, 343049, Note_on_c, 9, 40, 14
5, 343097, Note_on_c, 9, 40, 0
5, 343179, Note_on_c, 9, 40, 25
5, 343200, Note_on_c, 9, 44, 31
5, 343384, Note_on_c, 9, 44, 0
5, 343498, Note_on_c, 9, 38, 54
5, 343563, Note_on_c, 9, 38, 0
5, 343597, Note_on_c, 9, 40, 0
5, 343664, Note_on_c, 9, 40, 32
5, 343906, Note_on_c, 9, 40, 0
5, 343977, Note_on_c, 9, 40, 34
5, 344160, Note_on_c, 9, 44, 44
5, 344316, Note_on_c, 9, 44, 0
5, 344447, Note_on_c, 9, 38, 48
5, 344473, Note_on_c, 9, 40, 0
5, 344493, Note_on_c, 9, 38, 0
5, 344498, Note_on_c, 9, 45, 50
5, 344583, Note_on_c, 9, 45, 0
5, 344603, Note_on_c, 9, 40, 19
5, 344944, Note_on_c, 9, 40, 0
5, 344950, Note_on_c, 9, 38, 29
5, 344954, Note_on_c, 9, 45, 32
5, 344994, Note_on_c, 9, 38, 0
5, 345076, Note_on_c, 9, 40, 25
5, 345077, Note_on_c, 9, 45, 0
5, 345120, Note_on_c, 9, 44, 44
5, 345294, Note_on_c, 9, 44, 0
5, 345332, Note_on_c, 9, 40, 0
5, 345431, Note_on_c, 9, 40, 16
5, 345441, Note_on_c, 9, 43, 47
5, 345482, Note_on_c, 9, 43, 0
5, 345510, Note_on_c, 9, 40, 0
5, 345604, Note_on_c, 9, 40, 19
5, 345676, Note_on_c, 9, 36, 25
5, 345973, Note_on_c, 9, 36, 0
5, 346080, Note_on_c, 9, 44, 32
5, 346236, Note_on_c, 9, 44, 0
5, 346366, Note_on_c, 9, 40, 0
5, 346416, Note_on_c, 9, 40, 16
5, 346470, Note_on_c, 9, 40, 0
5, 346580, Note_on_c, 9, 40, 27
5, 347040, Note_on_c, 9, 44, 35
5, 347186, Note_on_c, 9, 44, 0
5, 347313, Note_on_c, 9, 40, 0
5, 347392, Note_on_c, 9, 40, 27
5, 347403, Note_on_c, 9, 38, 25
5, 347448, Note_on_c, 9, 38, 0
5, 347449, Note_on_c, 9, 40, 0
5, 347554, Note_on_c, 9, 40, 23
5, 347871, Note_on_c, 9, 38, 51
5, 347885, Note_on_c, 9, 40, 0
5, 347975, Note_on_c, 9, 38, 0
5, 348000, Note_on_c, 9, 44, 34
5, 348033, Note_on_c, 9, 40, 11
5, 348158, Note_on_c, 9, 44, 0
5, 348332, Note_on_c, 9, 40, 0
5, 348392, Note_on_c, 9, 38, 32
5, 348452, Note_on_c, 9, 38, 0
5, 348523, Note_on_c, 9, 39, 31
5, 348528, Note_on_c, 9, 40, 21
5, 348822, Note_on_c, 9, 39, 0
5, 348833, Note_on_c, 9, 39, 63
5, 348892, Note_on_c, 9, 39, 0
5, 348960, Note_on_c, 9, 44, 29
5, 348978, Note_on_c, 9, 39, 52
5, 348997, Note_on_c, 9, 39, 57
5, 349081, Note_on_c, 9, 44, 0
5, 349244, Note_on_c, 9, 40, 0
5, 349253, Note_on_c, 9, 39, 0
5, 349283, Note_on_c, 9, 39, 0
5, 349320, Note_on_c, 9, 40, 21
5, 349323, Note_on_c, 9, 36, 33
5, 349380, Note_on_c, 9, 36, 0
5, 349400, Note_on_c, 9, 40, 0
5, 349476, Note_on_c, 9, 40, 23
5, 349489, Note_on_c, 9, 36, 34
5, 349703, Note_on_c, 9, 36, 0
5, 349812, Note_on_c, 9, 40, 0
5, 349813, Note_on_c, 9, 39, 56
5, 349895, Note_on_c, 9, 39, 0
5, 349920, Note_on_c, 9, 44, 31
5, 349960, Note_on_c, 9, 40, 19
5, 350054, Note_on_c, 9, 44, 0
5, 350196, Note_on_c, 9, 40, 0
5, 350295, Note_on_c, 9, 40, 22
5, 350351, Note_on_c, 9, 40, 0
5, 350441, Note_on_c, 9, 40, 26
5, 350763, Note_on_c, 9, 39, 49
5, 350804, Note_on_c, 9, 40, 0
5, 350806, Note_on_c, 9, 39, 0
5, 350880, Note_on_c, 9, 44, 33
5, 350915, Note_on_c, 9, 40, 18
5, 351064, Note_on_c, 9, 44, 0
5, 351172, Note_on_c, 9, 40, 0
5, 351250, Note_on_c, 9, 40, 30
5, 351295, Note_on_c, 9, 40, 0
5, 351405, Note_on_c, 9, 40, 22
5, 351721, Note_on_c, 9, 40, 0
5, 351741, Note_on_c, 9, 39, 34
5, 351782, Note_on_c, 9, 39, 0
5, 351840, Note_on_c, 9, 44, 25
5, 351885, Note_on_c, 9, 40, 19
5, 351975, Note_on_c, 9, 44, 0
5, 352149, Note_on_c, 9, 40, 0
5, 352208, Note_on_c, 9, 38, 53
5, 352303, Note_on_c, 9, 38, 0
5, 352388, Note_on_c, 9, 40, 10
5, 352657, Note_on_c, 9, 40, 0
5, 352693, Note_on_c, 9, 38, 51
5, 352753, Note_on_c, 9, 38, 0
5, 352800, Note_on_c, 9, 46, 29
5, 352829, Note_on_c, 9, 40, 21
5, 352865, Note_on_c, 9, 53, 45
5, 353102, Note_on_c, 9, 53, 0
5, 353128, Note_on_c, 9, 40, 0
5, 353151, Note_on_c, 9, 38, 49
5, 353173, Note_on_c, 9, 53, 54
5, 353187, Note_on_c, 9, 38, 0
5, 353221, Note_on_c, 9, 53, 0
5, 353333, Note_on_c, 9, 40, 21
5, 353676, Note_on_c, 9, 46, 0
5, 353728, Note_on_c, 9, 40, 0
5, 353760, Note_on_c, 9, 44, 42
5, 353807, Note_on_c, 9, 40, 23
5, 353878, Note_on_c, 9, 36, 29
5, 353920, Note_on_c, 9, 44, 0
5, 354024, Note_on_c, 9, 36, 0
5, 354063, Note_on_c, 9, 40, 0
5, 354132, Note_on_c, 9, 40, 22
5, 354156, Note_on_c, 9, 36, 42
5, 354178, Note_on_c, 9, 40, 0
5, 354216, Note_on_c, 9, 36, 0
5, 354292, Note_on_c, 9, 40, 14
5, 354590, Note_on_c, 9, 40, 0
5, 354592, Note_on_c, 9, 39, 59
5, 354648, Note_on_c, 9, 39, 0
5, 354720, Note_on_c, 9, 44, 28
5, 354762, Note_on_c, 9, 40, 19
5, 354788, Note_on_c, 9, 53, 30
5, 354807, Note_on_c, 9, 40, 0
5, 354882, Note_on_c, 9, 40, 22
5, 354926, Note_on_c, 9, 44, 0
5, 354965, Note_on_c, 9, 40, 0
5, 355018, Note_on_c, 9, 53, 0
5, 355067, Note_on_c, 9, 39, 51
5, 355088, Note_on_c, 9, 53, 59
5, 355113, Note_on_c, 9, 39, 0
5, 355181, Note_on_c, 9, 53, 0
5, 355229, Note_on_c, 9, 40, 26
5, 355349, Note_on_c, 9, 40, 0
5, 355661, Note_on_c, 9, 40, 34
5, 355680, Note_on_c, 9, 44, 26
5, 355721, Note_on_c, 9, 36, 34
5, 355923, Note_on_c, 9, 44, 0
5, 355929, Note_on_c, 9, 36, 0
5, 356044, Note_on_c, 9, 36, 31
5, 356132, Note_on_c, 9, 36, 0
5, 356152, Note_on_c, 9, 40, 0
5, 356277, Note_on_c, 9, 40, 16
5, 356546, Note_on_c, 9, 40, 0
5, 356600, Note_on_c, 9, 40, 29
5, 356640, Note_on_c, 9, 44, 28
5, 356888, Note_on_c, 9, 44, 0
5, 356943, Note_on_c, 9, 38, 59
5, 356945, Note_on_c, 9, 40, 0
5, 357030, Note_on_c, 9, 38, 0
5, 357098, Note_on_c, 9, 40, 19
5, 357574, Note_on_c, 9, 40, 0
5, 357600, Note_on_c, 9, 44, 27
5, 357639, Note_on_c, 9, 40, 21
5, 357821, Note_on_c, 9, 44, 0
5, 357896, Note_on_c, 9, 40, 0
5, 357980, Note_on_c, 9, 40, 18
5, 358027, Note_on_c, 9, 40, 0
5, 358108, Note_on_c, 9, 40, 21
5, 358442, Note_on_c, 9, 53, 20
5, 358480, Note_on_c, 9, 40, 0
5, 358527, Note_on_c, 9, 53, 0
5, 358560, Note_on_c, 9, 44, 30
5, 358562, Note_on_c, 9, 40, 24
5, 358799, Note_on_c, 9, 44, 0
5, 358893, Note_on_c, 9, 39, 60
5, 358916, Note_on_c, 9, 40, 0
5, 358969, Note_on_c, 9, 39, 0
5, 359043, Note_on_c, 9, 40, 19
5, 359451, Note_on_c, 9, 40, 0
5, 359520, Note_on_c, 9, 44, 27
5, 359523, Note_on_c, 9, 40, 21
5, 359728, Note_on_c, 9, 44, 0
5, 359858, Note_on_c, 9, 53, 44
5, 359898, Note_on_c, 9, 53, 0
5, 359930, Note_on_c, 9, 40, 0
5, 360018, Note_on_c, 9, 40, 23
5, 360349, Note_on_c, 9, 38, 59
5, 360377, Note_on_c, 9, 40, 0
5, 360396, Note_on_c, 9, 36, 24
5, 360434, Note_on_c, 9, 36, 0
5, 360434, Note_on_c, 9, 38, 0
5, 360480, Note_on_c, 9, 44, 37
5, 360512, Note_on_c, 9, 40, 19
5, 360675, Note_on_c, 9, 44, 0
5, 360904, Note_on_c, 9, 40, 0
5, 360987, Note_on_c, 9, 40, 26
5, 361387, Note_on_c, 9, 40, 0
5, 361440, Note_on_c, 9, 44, 34
5, 361491, Note_on_c, 9, 40, 19
5, 361512, Note_on_c, 9, 39, 57
5, 361586, Note_on_c, 9, 39, 0
5, 361622, Note_on_c, 9, 44, 0
5, 361755, Note_on_c, 9, 40, 0
5, 361834, Note_on_c, 9, 39, 83
5, 361837, Note_on_c, 9, 40, 21
5, 361893, Note_on_c, 9, 40, 0
5, 361903, Note_on_c, 9, 39, 0
5, 361966, Note_on_c, 9, 40, 18
5, 362308, Note_on_c, 9, 36, 28
5, 362325, Note_on_c, 9, 40, 0
5, 362351, Note_on_c, 9, 36, 0
5, 362400, Note_on_c, 9, 44, 33
5, 362430, Note_on_c, 9, 40, 22
5, 362483, Note_on_c, 9, 45, 24
5, 362521, Note_on_c, 9, 45, 0
5, 362628, Note_on_c, 9, 44, 0
5, 362767, Note_on_c, 9, 38, 53
5, 362775, Note_on_c, 9, 40, 0
5, 362853, Note_on_c, 9, 38, 0
5, 362905, Note_on_c, 9, 40, 21
5, 362939, Note_on_c, 9, 47, 63
5, 363182, Note_on_c, 9, 47, 0
5, 363299, Note_on_c, 9, 40, 0
5, 363360, Note_on_c, 9, 44, 35
5, 363399, Note_on_c, 9, 40, 22
5, 363411, Note_on_c, 9, 47, 76
5, 363506, Note_on_c, 9, 44, 0
5, 363676, Note_on_c, 9, 47, 0
5, 363710, Note_on_c, 9, 40, 0
5, 363730, Note_on_c, 9, 38, 38
5, 363779, Note_on_c, 9, 38, 0
5, 363862, Note_on_c, 9, 40, 19
5, 364190, Note_on_c, 9, 39, 74
5, 364205, Note_on_c, 9, 45, 66
5, 364208, Note_on_c, 9, 40, 0
5, 364289, Note_on_c, 9, 45, 0
5, 364296, Note_on_c, 9, 39, 0
5, 364320, Note_on_c, 9, 46, 32
5, 364350, Note_on_c, 9, 40, 27
5, 364422, Note_on_c, 9, 46, 0
5, 364671, Note_on_c, 9, 38, 71
5, 364677, Note_on_c, 9, 40, 0
5, 364786, Note_on_c, 9, 38, 0
5, 364822, Note_on_c, 9, 53, 62
5, 364826, Note_on_c, 9, 40, 19
5, 364840, Note_on_c, 9, 36, 51
5, 364842, Note_on_c, 9, 59, 45
5, 364919, Note_on_c, 9, 53, 0
5, 364923, Note_on_c, 9, 59, 0
5, 365122, Note_on_c, 9, 36, 0
5, 365203, Note_on_c, 9, 40, 0
5, 365280, Note_on_c, 9, 44, 37
5, 365296, Note_on_c, 9, 40, 21
5, 365422, Note_on_c, 9, 44, 0
5, 365676, Note_on_c, 9, 40, 0
5, 365778, Note_on_c, 9, 40, 22
5, 366055, Note_on_c, 9, 40, 0
5, 366129, Note_on_c, 9, 40, 15
5, 366178, Note_on_c, 9, 40, 0
5, 366240, Note_on_c, 9, 44, 35
5, 366260, Note_on_c, 9, 40, 21
5, 366473, Note_on_c, 9, 44, 0
5, 366604, Note_on_c, 9, 40, 0
5, 366701, Note_on_c, 9, 40, 23
5, 367058, Note_on_c, 9, 40, 0
5, 367168, Note_on_c, 9, 40, 23
5, 367200, Note_on_c, 9, 44, 30
5, 367401, Note_on_c, 9, 44, 0
5, 367458, Note_on_c, 9, 40, 0
5, 367509, Note_on_c, 9, 39, 55
5, 367525, Note_on_c, 9, 40, 17
5, 367542, Note_on_c, 9, 39, 0
5, 367551, Note_on_c, 9, 38, 18
5, 367575, Note_on_c, 9, 40, 0
5, 367591, Note_on_c, 9, 38, 0
5, 367650, Note_on_c, 9, 40, 24
5, 367701, Note_on_c, 9, 39, 63
5, 367755, Note_on_c, 9, 39, 0
5, 367991, Note_on_c, 9, 39, 72
5, 368004, Note_on_c, 9, 36, 34
5, 368042, Note_on_c, 9, 40, 0
5, 368056, Note_on_c, 9, 36, 0
5, 368084, Note_on_c, 9, 39, 0
5, 368138, Note_on_c, 9, 40, 20
5, 368160, Note_on_c, 9, 44, 25
5, 368318, Note_on_c, 9, 44, 0
5, 368466, Note_on_c, 9, 38, 64
5, 368470, Note_on_c, 9, 40, 0
5, 368561, Note_on_c, 9, 38, 0
5, 368614, Note_on_c, 9, 40, 23
5, 369018, Note_on_c, 9, 40, 0
5, 369102, Note_on_c, 9, 40, 24
5, 369120, Note_on_c, 9, 44, 31
5, 369158, Note_on_c, 9, 47, 39
5, 369208, Note_on_c, 9, 47, 0
5, 369277, Note_on_c, 9, 44, 0
5, 369303, Note_on_c, 9, 47, 42
5, 369342, Note_on_c, 9, 47, 0
5, 369499, Note_on_c, 9, 40, 0
5, 369594, Note_on_c, 9, 40, 21
5, 369876, Note_on_c, 9, 40, 0
5, 369956, Note_on_c, 9, 40, 16
5, 370003, Note_on_c, 9, 40, 0
5, 370080, Note_on_c, 9, 44, 33
5, 370081, Note_on_c, 9, 40, 30
5, 370297, Note_on_c, 9, 44, 0
5, 370408, Note_on_c, 9, 45, 55
5, 370498, Note_on_c, 9, 45, 0
5, 370509, Note_on_c, 9, 40, 0
5, 370585, Note_on_c, 9, 45, 35
5, 370789, Note_on_c, 9, 45, 0
5, 370868, Note_on_c, 9, 40, 28
5, 370899, Note_on_c, 9, 36, 31
5, 370944, Note_on_c, 9, 36, 0
5, 370960, Note_on_c, 9, 40, 0
5, 371040, Note_on_c, 9, 44, 34
5, 371052, Note_on_c, 9, 40, 29
5, 371234, Note_on_c, 9, 44, 0
5, 371379, Note_on_c, 9, 47, 58
5, 371409, Note_on_c, 9, 40, 0
5, 371451, Note_on_c, 9, 47, 0
5, 371512, Note_on_c, 9, 40, 26
5, 371533, Note_on_c, 9, 47, 43
5, 371729, Note_on_c, 9, 47, 0
5, 371800, Note_on_c, 9, 40, 0
5, 371862, Note_on_c, 9, 36, 37
5, 371912, Note_on_c, 9, 36, 0
5, 372000, Note_on_c, 9, 44, 32
5, 372007, Note_on_c, 9, 40, 31
5, 372208, Note_on_c, 9, 44, 0
5, 372330, Note_on_c, 9, 38, 57
5, 372332, Note_on_c, 9, 40, 0
5, 372356, Note_on_c, 9, 36, 29
5, 372406, Note_on_c, 9, 36, 0
5, 372439, Note_on_c, 9, 38, 0
5, 372506, Note_on_c, 9, 36, 45
5, 372508, Note_on_c, 9, 40, 14
5, 372643, Note_on_c, 9, 36, 0
5, 372880, Note_on_c, 9, 40, 0
5, 372960, Note_on_c, 9, 44, 29
5, 372966, Note_on_c, 9, 40, 22
5, 373004, Note_on_c, 9, 59, 61
5, 373008, Note_on_c, 9, 36, 46
5, 373171, Note_on_c, 9, 44, 0
5, 373251, Note_on_c, 9, 40, 0
5, 373272, Note_on_c, 9, 59, 0
5, 373317, Note_on_c, 9, 36, 0
5, 373326, Note_on_c, 9, 40, 15
5, 373374, Note_on_c, 9, 40, 0
5, 373468, Note_on_c, 9, 40, 22
5, 373811, Note_on_c, 9, 40, 0
5, 373920, Note_on_c, 9, 44, 32
5, 373938, Note_on_c, 9, 40, 24
5, 373966, Note_on_c, 9, 59, 58
5, 374161, Note_on_c, 9, 44, 0
5, 374186, Note_on_c, 9, 59, 0
5, 374224, Note_on_c, 9, 40, 0
5, 374302, Note_on_c, 9, 40, 13
5, 374341, Note_on_c, 9, 40, 0
5, 374420, Note_on_c, 9, 40, 31
5, 374451, Note_on_c, 9, 59, 66
5, 374619, Note_on_c, 9, 59, 0
5, 374720, Note_on_c, 9, 39, 77
5, 374737, Note_on_c, 9, 40, 0
5, 374817, Note_on_c, 9, 39, 0
5, 374880, Note_on_c, 9, 44, 38
5, 374901, Note_on_c, 9, 40, 18
5, 375122, Note_on_c, 9, 44, 0
5, 375214, Note_on_c, 9, 39, 70
5, 375232, Note_on_c, 9, 40, 0
5, 375290, Note_on_c, 9, 39, 0
5, 375361, Note_on_c, 9, 40, 31
5, 375671, Note_on_c, 9, 59, 68
5, 375687, Note_on_c, 9, 36, 50
5, 375693, Note_on_c, 9, 40, 0
5, 375770, Note_on_c, 9, 59, 0
5, 375832, Note_on_c, 9, 40, 27
5, 375840, Note_on_c, 9, 44, 39
5, 375845, Note_on_c, 9, 36, 0
5, 376026, Note_on_c, 9, 44, 0
5, 376158, Note_on_c, 9, 38, 62
5, 376161, Note_on_c, 9, 36, 36
5, 376203, Note_on_c, 9, 40, 0
5, 376208, Note_on_c, 9, 36, 0
5, 376245, Note_on_c, 9, 38, 0
5, 376290, Note_on_c, 9, 40, 24
5, 376335, Note_on_c, 9, 59, 62
5, 376349, Note_on_c, 9, 36, 52
5, 376560, Note_on_c, 9, 36, 0
5, 376581, Note_on_c, 9, 59, 0
5, 376720, Note_on_c, 9, 40, 0
5, 376789, Note_on_c, 9, 40, 23
5, 376800, Note_on_c, 9, 44, 36
5, 376982, Note_on_c, 9, 44, 0
5, 377141, Note_on_c, 9, 40, 0
5, 377149, Note_on_c, 9, 36, 25
5, 377182, Note_on_c, 9, 36, 0
5, 377226, Note_on_c, 9, 40, 27
5, 377528, Note_on_c, 9, 40, 0
5, 377585, Note_on_c, 9, 40, 21
5, 377630, Note_on_c, 9, 40, 0
5, 377709, Note_on_c, 9, 40, 24
5, 377760, Note_on_c, 9, 44, 38
5, 377923, Note_on_c, 9, 44, 0
5, 378113, Note_on_c, 9, 40, 0
5, 378208, Note_on_c, 9, 40, 24
5, 378224, Note_on_c, 9, 51, 59
5, 378242, Note_on_c, 9, 36, 54
5, 378449, Note_on_c, 9, 40, 0
5, 378456, Note_on_c, 9, 36, 0
5, 378463, Note_on_c, 9, 51, 0
5, 378539, Note_on_c, 9, 40, 25
5, 378720, Note_on_c, 9, 44, 36
5, 378751, Note_on_c, 9, 51, 64
5, 378876, Note_on_c, 9, 44, 0
5, 378989, Note_on_c, 9, 40, 0
5, 379017, Note_on_c, 9, 51, 0
5, 379071, Note_on_c, 9, 40, 18
5, 379113, Note_on_c, 9, 40, 0
5, 379216, Note_on_c, 9, 40, 31
5, 379564, Note_on_c, 9, 36, 49
5, 379612, Note_on_c, 9, 36, 0
5, 379628, Note_on_c, 9, 40, 0
5, 379680, Note_on_c, 9, 44, 31
5, 379708, Note_on_c, 9, 40, 20
5, 379816, Note_on_c, 9, 44, 0
5, 379945, Note_on_c, 9, 40, 0
5, 380043, Note_on_c, 9, 40, 27
5, 380151, Note_on_c, 9, 40, 0
5, 380228, Note_on_c, 9, 40, 16
5, 380228, Note_on_c, 9, 36, 32
5, 380382, Note_on_c, 9, 36, 0
5, 380512, Note_on_c, 9, 40, 0
5, 380528, Note_on_c, 9, 38, 50
5, 380626, Note_on_c, 9, 38, 0
5, 380640, Note_on_c, 9, 46, 35
5, 380661, Note_on_c, 9, 40, 20
5, 380744, Note_on_c, 9, 46, 0
5, 381037, Note_on_c, 9, 40, 0
5, 381150, Note_on_c, 9, 40, 20
5, 381472, Note_on_c, 9, 40, 0
5, 381494, Note_on_c, 9, 38, 57
5, 381597, Note_on_c, 9, 38, 0
5, 381600, Note_on_c, 9, 44, 38
5, 381642, Note_on_c, 9, 40, 14
5, 381787, Note_on_c, 9, 44, 0
5, 381944, Note_on_c, 9, 40, 0
5, 381972, Note_on_c, 9, 38, 58
5, 381973, Note_on_c, 9, 45, 44
5, 382018, Note_on_c, 9, 45, 0
5, 382069, Note_on_c, 9, 38, 0
5, 382139, Note_on_c, 9, 40, 17
5, 382285, Note_on_c, 9, 45, 55
5, 382328, Note_on_c, 9, 45, 0
5, 382488, Note_on_c, 9, 38, 32
5, 382495, Note_on_c, 9, 40, 0
5, 382537, Note_on_c, 9, 38, 0
5, 382560, Note_on_c, 9, 44, 37
5, 382627, Note_on_c, 9, 40, 17
5, 382642, Note_on_c, 9, 45, 52
5, 382742, Note_on_c, 9, 45, 0
5, 382765, Note_on_c, 9, 44, 0
5, 382919, Note_on_c, 9, 38, 37
5, 382945, Note_on_c, 9, 40, 0
5, 382979, Note_on_c, 9, 38, 0
5, 382980, Note_on_c, 9, 36, 30
5, 383032, Note_on_c, 9, 36, 0
5, 383095, Note_on_c, 9, 40, 21
5, 383136, Note_on_c, 9, 36, 34
5, 383405, Note_on_c, 9, 40, 0
5, 383406, Note_on_c, 9, 38, 33
5, 383455, Note_on_c, 9, 38, 0
5, 383520, Note_on_c, 9, 44, 33
5, 383522, Note_on_c, 9, 36, 0
5, 383559, Note_on_c, 9, 40, 23
5, 383667, Note_on_c, 9, 44, 0
5, 383828, Note_on_c, 9, 40, 0
5, 383897, Note_on_c, 9, 40, 16
5, 383969, Note_on_c, 9, 40, 0
5, 384055, Note_on_c, 9, 40, 21
5, 384480, Note_on_c, 9, 44, 33
5, 384642, Note_on_c, 9, 44, 0
5, 384730, Note_on_c, 9, 40, 0
5, 384816, Note_on_c, 9, 40, 21
5, 384956, Note_on_c, 9, 40, 0
5, 385017, Note_on_c, 9, 40, 21
5, 385435, Note_on_c, 9, 40, 0
5, 385440, Note_on_c, 9, 44, 36
5, 385496, Note_on_c, 9, 40, 19
5, 385597, Note_on_c, 9, 44, 0
5, 385740, Note_on_c, 9, 40, 0
5, 385800, Note_on_c, 9, 40, 37
5, 386191, Note_on_c, 9, 40, 0
5, 386242, Note_on_c, 9, 40, 18
5, 386284, Note_on_c, 9, 38, 24
5, 386303, Note_on_c, 9, 40, 0
5, 386347, Note_on_c, 9, 38, 0
5, 386400, Note_on_c, 9, 44, 32
5, 386411, Note_on_c, 9, 40, 27
5, 386452, Note_on_c, 9, 39, 42
5, 386505, Note_on_c, 9, 39, 0
5, 386579, Note_on_c, 9, 44, 0
5, 386584, Note_on_c, 9, 39, 36
5, 386620, Note_on_c, 9, 39, 0
5, 386821, Note_on_c, 9, 40, 0
5, 386896, Note_on_c, 9, 40, 22
5, 386912, Note_on_c, 9, 39, 56
5, 386961, Note_on_c, 9, 39, 0
5, 387171, Note_on_c, 9, 40, 0
5, 387223, Note_on_c, 9, 39, 50
5, 387240, Note_on_c, 9, 40, 28
5, 387256, Note_on_c, 9, 38, 24
5, 387257, Note_on_c, 9, 39, 0
5, 387309, Note_on_c, 9, 38, 0
5, 387329, Note_on_c, 9, 40, 0
5, 387360, Note_on_c, 9, 44, 33
5, 387401, Note_on_c, 9, 40, 20
5, 387507, Note_on_c, 9, 44, 0
5, 387562, Note_on_c, 9, 39, 43
5, 387601, Note_on_c, 9, 39, 0
5, 387692, Note_on_c, 9, 40, 0
5, 387712, Note_on_c, 9, 38, 35
5, 387712, Note_on_c, 9, 39, 58
5, 387780, Note_on_c, 9, 39, 0
5, 387797, Note_on_c, 9, 38, 0
5, 387867, Note_on_c, 9, 40, 25
5, 387911, Note_on_c, 9, 36, 48
5, 388075, Note_on_c, 9, 36, 0
5, 388296, Note_on_c, 9, 40, 0
5, 388320, Note_on_c, 9, 44, 36
5, 388363, Note_on_c, 9, 40, 33
5, 388495, Note_on_c, 9, 44, 0
5, 389088, Note_on_c, 9, 40, 0
5, 389152, Note_on_c, 9, 40, 31
5, 389162, Note_on_c, 9, 39, 53
5, 389242, Note_on_c, 9, 39, 0
5, 389257, Note_on_c, 9, 40, 0
5, 389280, Note_on_c, 9, 44, 43
5, 389328, Note_on_c, 9, 40, 28
5, 389334, Note_on_c, 9, 39, 34
5, 389469, Note_on_c, 9, 44, 0
5, 389547, Note_on_c, 9, 39, 0
5, 389618, Note_on_c, 9, 53, 62
5, 389638, Note_on_c, 9, 40, 0
5, 389646, Note_on_c, 9, 36, 34
5, 389671, Note_on_c, 9, 53, 0
5, 389737, Note_on_c, 9, 36, 0
5, 389781, Note_on_c, 9, 40, 28
5, 390240, Note_on_c, 9, 44, 36
5, 390399, Note_on_c, 9, 44, 0
5, 390502, Note_on_c, 9, 40, 0
5, 390563, Note_on_c, 9, 40, 22
5, 390577, Note_on_c, 9, 39, 63
5, 390645, Note_on_c, 9, 40, 0
5, 390665, Note_on_c, 9, 39, 0
5, 390736, Note_on_c, 9, 40, 27
5, 391064, Note_on_c, 9, 39, 52
5, 391170, Note_on_c, 9, 39, 0
5, 391200, Note_on_c, 9, 44, 38
5, 391356, Note_on_c, 9, 44, 0
5, 391420, Note_on_c, 9, 40, 0
5, 391512, Note_on_c, 9, 40, 21
5, 391626, Note_on_c, 9, 40, 0
5, 391690, Note_on_c, 9, 40, 18
5, 391696, Note_on_c, 9, 59, 36
5, 391714, Note_on_c, 9, 36, 27
5, 392009, Note_on_c, 9, 38, 45
5, 392038, Note_on_c, 9, 40, 0
5, 392100, Note_on_c, 9, 38, 0
5, 392160, Note_on_c, 9, 44, 39
5, 392175, Note_on_c, 9, 40, 22
5, 392240, Note_on_c, 9, 36, 0
5, 392342, Note_on_c, 9, 44, 0
5, 392446, Note_on_c, 9, 59, 0
5, 392538, Note_on_c, 9, 40, 0
5, 392652, Note_on_c, 9, 40, 21
5, 393031, Note_on_c, 9, 40, 0
5, 393120, Note_on_c, 9, 44, 39
5, 393121, Note_on_c, 9, 40, 19
5, 393273, Note_on_c, 9, 44, 0
5, 393400, Note_on_c, 9, 40, 0
5, 393456, Note_on_c, 9, 40, 25
5, 393889, Note_on_c, 9, 40, 0
5, 393948, Note_on_c, 9, 40, 16
5, 393991, Note_on_c, 9, 39, 51
5, 394011, Note_on_c, 9, 40, 0
5, 394073, Note_on_c, 9, 39, 0
5, 394080, Note_on_c, 9, 44, 40
5, 394093, Note_on_c, 9, 40, 23
5, 394252, Note_on_c, 9, 44, 0
5, 394431, Note_on_c, 9, 39, 56
5, 394445, Note_on_c, 9, 38, 48
5, 394464, Note_on_c, 9, 40, 0
5, 394500, Note_on_c, 9, 38, 0
5, 394521, Note_on_c, 9, 39, 0
5, 394595, Note_on_c, 9, 40, 21
5, 394900, Note_on_c, 9, 40, 0
5, 394916, Note_on_c, 9, 39, 62
5, 394917, Note_on_c, 9, 38, 35
5, 395024, Note_on_c, 9, 38, 0
5, 395039, Note_on_c, 9, 39, 0
5, 395040, Note_on_c, 9, 44, 38
5, 395090, Note_on_c, 9, 40, 20
5, 395218, Note_on_c, 9, 44, 0
5, 395313, Note_on_c, 9, 40, 0
5, 395381, Note_on_c, 9, 38, 47
5, 395384, Note_on_c, 9, 39, 44
5, 395440, Note_on_c, 9, 38, 0
5, 395444, Note_on_c, 9, 39, 0
5, 395562, Note_on_c, 9, 40, 24
5, 395583, Note_on_c, 9, 59, 49
5, 395584, Note_on_c, 9, 36, 49
5, 396000, Note_on_c, 9, 44, 37
5, 396109, Note_on_c, 9, 36, 0
5, 396141, Note_on_c, 9, 44, 0
5, 396206, Note_on_c, 9, 59, 0
5, 396244, Note_on_c, 9, 40, 0
5, 396329, Note_on_c, 9, 40, 28
5, 396405, Note_on_c, 9, 40, 0
5, 396485, Note_on_c, 9, 40, 26
5, 396960, Note_on_c, 9, 44, 35
5, 397119, Note_on_c, 9, 44, 0
5, 397177, Note_on_c, 9, 40, 0
5, 397277, Note_on_c, 9, 40, 22
5, 397345, Note_on_c, 9, 40, 0
5, 397441, Note_on_c, 9, 40, 28
5, 397920, Note_on_c, 9, 44, 42
5, 398060, Note_on_c, 9, 44, 0
5, 398194, Note_on_c, 9, 40, 0
5, 398226, Note_on_c, 9, 39, 50
5, 398264, Note_on_c, 9, 40, 18
5, 398294, Note_on_c, 9, 39, 0
5, 398321, Note_on_c, 9, 40, 0
5, 398415, Note_on_c, 9, 39, 37
5, 398416, Note_on_c, 9, 40, 25
5, 398880, Note_on_c, 9, 46, 40
5, 398974, Note_on_c, 9, 39, 0
5, 399099, Note_on_c, 9, 46, 0
5, 399112, Note_on_c, 9, 40, 0
5, 399170, Note_on_c, 9, 39, 44
5, 399212, Note_on_c, 9, 40, 21
5, 399228, Note_on_c, 9, 39, 0
5, 399293, Note_on_c, 9, 40, 0
5, 399376, Note_on_c, 9, 53, 50
5, 399385, Note_on_c, 9, 40, 27
5, 399388, Note_on_c, 9, 36, 59
5, 399406, Note_on_c, 9, 57, 16
5, 399969, Note_on_c, 9, 57, 0
5, 400101, Note_on_c, 9, 53, 0
5, 400160, Note_on_c, 9, 36, 0
5, 400605, Note_on_c, 9, 40, 0
5, 401760, Note_on_c, 9, 81, 60
5, 402240, Note_on_c, 9, 81, 0
5, 402296, Note_on_c, 9, 81, 50
5, 402776, Note_on_c, 9, 81, 0
5, 403110, Note_on_c, 9, 81, 60
5, 403590, Note_on_c, 9, 81, 0
5, 405360, Note_on_c, 9, 81, 30
5, 405840, Note_on_c, 9, 81, 0
5, 406278, Note_on_c, 9, 81, 40
5, 406758, Note_on_c, 9, 81, 0
5, 410256, Note_on_c, 9, 81, 100
5, 410736, Note_on_c, 9, 81, 0
5, 413514, Note_on_c, 9, 81, 100
5, 413994, Note_on_c, 9, 81, 0
5, 418710, Note_on_c, 9, 81, 100
5, 419190, Note_on_c, 9, 81, 0
5, 423960, Note_on_c, 9, 81, 100
5, 424440, Note_on_c, 9, 81, 0
5, 424440, End_track
0, 0, End_of_file
