0, 0, Header, 1, 5, 120
1, 0, Start_track
1, 0, Title_t, "Make Someone Happy (Styne-Greene-Conden)"
1, 0, Text_t, "dougmck@pipeline.com.au. This was recorded at least 3 times by Bill Evans (once with Tony Bennet) - usually as done here - beginning rubato - then in tempo - then rubato to finish.\012"
1, 0, Time_signature, 4, 2, 24, 8
1, 0, Key_signature, -2, "major"
1, 0, Tempo, 319149
1, 180, Marker_t, "First Chorus Rubato piano only"
1, 49440, Marker_t, "LH plays Root and a rising 5th bar by bar beginning on the b5 thru 5th thru #5th thru 6th to b7th on the fifth bar of the song"
1, 68760, Marker_t, "A whole step/half step diminished scale over the Bb chords"
1, 111120, Marker_t, "'So what' type chords descend with the  top note playing down a Bb scale."
1, 111120, End_track
2, 0, Start_track
2, 0, Title_t, ""
2, 127, Note_on_c, 0, 74, 75
2, 128, Note_on_c, 0, 46, 43
2, 190, Control_c, 0, 64, 127
2, 284, Note_on_c, 0, 74, 0
2, 318, Note_on_c, 0, 52, 35
2, 505, Note_on_c, 0, 61, 34
2, 516, Note_on_c, 0, 55, 34
2, 517, Note_on_c, 0, 64, 46
2, 721, Note_on_c, 0, 67, 38
2, 808, Note_on_c, 0, 64, 0
2, 825, Note_on_c, 0, 46, 0
2, 836, Note_on_c, 0, 55, 0
2, 842, Note_on_c, 0, 61, 0
2, 944, Note_on_c, 0, 67, 0
2, 966, Note_on_c, 0, 52, 0
2, 974, Note_on_c, 0, 62, 33
2, 975, Note_on_c, 0, 65, 43
2, 979, Control_c, 0, 64, 0
2, 980, Note_on_c, 0, 46, 29
2, 983, Note_on_c, 0, 53, 32
2, 1025, Control_c, 0, 64, 127
2, 1067, Note_on_c, 0, 65, 0
2, 1115, Note_on_c, 0, 62, 0
2, 1295, Note_on_c, 0, 74, 76
2, 1304, Note_on_c, 0, 65, 67
2, 1387, Note_on_c, 0, 74, 0
2, 1411, Note_on_c, 0, 65, 0
2, 1591, Note_on_c, 0, 72, 57
2, 1598, Note_on_c, 0, 64, 46
2, 1652, Note_on_c, 0, 72, 0
2, 1680, Note_on_c, 0, 64, 0
2, 1746, Note_on_c, 0, 70, 59
2, 1753, Note_on_c, 0, 62, 49
2, 1796, Note_on_c, 0, 70, 0
2, 1810, Note_on_c, 0, 62, 0
2, 1838, Note_on_c, 0, 53, 0
2, 1855, Note_on_c, 0, 46, 0
2, 1907, Note_on_c, 0, 69, 59
2, 1911, Note_on_c, 0, 46, 31
2, 1912, Note_on_c, 0, 60, 55
2, 1929, Control_c, 0, 64, 0
2, 1966, Control_c, 0, 64, 127
2, 2001, Note_on_c, 0, 60, 0
2, 2010, Note_on_c, 0, 69, 0
2, 2077, Note_on_c, 0, 58, 56
2, 2077, Note_on_c, 0, 67, 57
2, 2085, Note_on_c, 0, 53, 28
2, 2109, Note_on_c, 0, 58, 0
2, 2131, Note_on_c, 0, 67, 0
2, 2195, Note_on_c, 0, 46, 0
2, 2240, Note_on_c, 0, 53, 0
2, 2296, Note_on_c, 0, 54, 37
2, 2297, Note_on_c, 0, 74, 56
2, 2299, Note_on_c, 0, 66, 44
2, 2301, Note_on_c, 0, 46, 32
2, 2307, Note_on_c, 0, 62, 34
2, 2313, Control_c, 0, 64, 0
2, 2397, Control_c, 0, 64, 127
2, 2456, Note_on_c, 0, 54, 0
2, 2500, Note_on_c, 0, 62, 0
2, 2535, Note_on_c, 0, 66, 0
2, 2575, Note_on_c, 0, 62, 22
2, 2666, Note_on_c, 0, 62, 0
2, 2701, Note_on_c, 0, 46, 0
2, 2745, Note_on_c, 0, 62, 26
2, 2750, Note_on_c, 0, 66, 33
2, 2859, Note_on_c, 0, 54, 25
2, 2885, Note_on_c, 0, 46, 14
2, 2928, Note_on_c, 0, 62, 0
2, 2977, Note_on_c, 0, 46, 0
2, 2978, Note_on_c, 0, 66, 0
2, 2995, Note_on_c, 0, 74, 0
2, 3001, Note_on_c, 0, 54, 0
2, 3004, Note_on_c, 0, 67, 42
2, 3004, Note_on_c, 0, 62, 33
2, 3008, Note_on_c, 0, 55, 32
2, 3009, Note_on_c, 0, 46, 19
2, 3030, Control_c, 0, 64, 0
2, 3068, Note_on_c, 0, 62, 0
2, 3079, Control_c, 0, 64, 127
2, 3131, Note_on_c, 0, 67, 0
2, 3151, Note_on_c, 0, 65, 58
2, 3153, Note_on_c, 0, 74, 62
2, 3208, Note_on_c, 0, 55, 0
2, 3209, Note_on_c, 0, 74, 0
2, 3213, Note_on_c, 0, 65, 0
2, 3285, Note_on_c, 0, 72, 54
2, 3290, Note_on_c, 0, 63, 47
2, 3298, Note_on_c, 0, 55, 32
2, 3360, Note_on_c, 0, 72, 0
2, 3366, Note_on_c, 0, 63, 0
2, 3390, Note_on_c, 0, 70, 62
2, 3401, Note_on_c, 0, 62, 26
2, 3438, Note_on_c, 0, 46, 0
2, 3440, Note_on_c, 0, 62, 0
2, 3459, Note_on_c, 0, 70, 0
2, 3490, Note_on_c, 0, 55, 0
2, 3504, Note_on_c, 0, 46, 27
2, 3507, Note_on_c, 0, 69, 54
2, 3510, Control_c, 0, 64, 0
2, 3510, Note_on_c, 0, 60, 34
2, 3551, Control_c, 0, 64, 127
2, 3552, Note_on_c, 0, 60, 0
2, 3600, Note_on_c, 0, 69, 0
2, 3625, Note_on_c, 0, 55, 47
2, 3626, Note_on_c, 0, 67, 51
2, 3629, Note_on_c, 0, 60, 30
2, 3660, Note_on_c, 0, 60, 0
2, 3670, Note_on_c, 0, 55, 0
2, 3673, Note_on_c, 0, 67, 0
2, 3707, Note_on_c, 0, 46, 0
2, 3854, Note_on_c, 0, 72, 57
2, 3854, Note_on_c, 0, 63, 57
2, 3861, Note_on_c, 0, 46, 48
2, 3879, Control_c, 0, 64, 0
2, 3963, Control_c, 0, 64, 127
2, 3999, Note_on_c, 0, 56, 50
2, 4004, Note_on_c, 0, 63, 0
2, 4101, Note_on_c, 0, 72, 0
2, 4152, Note_on_c, 0, 60, 61
2, 4153, Note_on_c, 0, 68, 51
2, 4154, Note_on_c, 0, 63, 46
2, 4222, Note_on_c, 0, 56, 0
2, 4290, Note_on_c, 0, 60, 0
2, 4315, Note_on_c, 0, 56, 50
2, 4325, Note_on_c, 0, 63, 0
2, 4333, Note_on_c, 0, 46, 0
2, 4338, Note_on_c, 0, 68, 0
2, 4358, Note_on_c, 0, 56, 0
2, 4494, Note_on_c, 0, 63, 64
2, 4657, Note_on_c, 0, 63, 0
2, 4740, Note_on_c, 0, 72, 66
2, 4849, Note_on_c, 0, 72, 0
2, 4889, Note_on_c, 0, 70, 65
2, 4961, Note_on_c, 0, 70, 0
2, 5030, Note_on_c, 0, 68, 59
2, 5116, Note_on_c, 0, 68, 0
2, 5353, Note_on_c, 0, 67, 44
2, 5361, Note_on_c, 0, 46, 31
2, 5366, Note_on_c, 0, 60, 34
2, 5367, Note_on_c, 0, 63, 28
2, 5367, Note_on_c, 0, 56, 25
2, 5381, Control_c, 0, 64, 0
2, 5426, Control_c, 0, 64, 127
2, 5499, Note_on_c, 0, 67, 0
2, 5502, Note_on_c, 0, 56, 0
2, 5539, Note_on_c, 0, 65, 47
2, 5548, Note_on_c, 0, 46, 0
2, 5548, Note_on_c, 0, 60, 0
2, 5578, Note_on_c, 0, 63, 0
2, 5654, Note_on_c, 0, 65, 0
2, 5806, Note_on_c, 0, 72, 9
2, 5820, Note_on_c, 0, 73, 31
2, 5837, Note_on_c, 0, 72, 0
2, 5845, Note_on_c, 0, 74, 62
2, 5878, Note_on_c, 0, 74, 0
2, 5882, Note_on_c, 0, 75, 62
2, 5884, Note_on_c, 0, 73, 0
2, 5887, Note_on_c, 0, 63, 35
2, 5893, Note_on_c, 0, 57, 39
2, 5893, Note_on_c, 0, 68, 25
2, 5899, Control_c, 0, 64, 0
2, 5983, Control_c, 0, 64, 127
2, 6041, Note_on_c, 0, 68, 0
2, 6047, Note_on_c, 0, 57, 0
2, 6058, Note_on_c, 0, 63, 0
2, 6286, Note_on_c, 0, 35, 38
2, 6308, Note_on_c, 0, 35, 0
2, 6795, Note_on_c, 0, 75, 0
2, 7077, Control_c, 0, 64, 0
2, 7080, Note_on_c, 0, 34, 38
2, 7082, Note_on_c, 0, 77, 53
2, 7126, Control_c, 0, 64, 127
2, 7153, Note_on_c, 0, 34, 0
2, 7438, Note_on_c, 0, 68, 31
2, 7449, Note_on_c, 0, 72, 30
2, 7451, Note_on_c, 0, 63, 27
2, 7458, Note_on_c, 0, 60, 32
2, 7728, Note_on_c, 0, 60, 0
2, 7741, Note_on_c, 0, 63, 0
2, 7760, Note_on_c, 0, 77, 0
2, 7773, Note_on_c, 0, 72, 0
2, 7783, Note_on_c, 0, 68, 0
2, 7911, Note_on_c, 0, 52, 37
2, 7956, Note_on_c, 0, 56, 28
2, 7960, Note_on_c, 0, 66, 37
2, 7980, Note_on_c, 0, 62, 38
2, 7986, Note_on_c, 0, 70, 38
2, 8006, Note_on_c, 0, 73, 33
2, 8023, Note_on_c, 0, 78, 47
2, 8025, Control_c, 0, 64, 0
2, 8098, Control_c, 0, 64, 127
2, 8260, Note_on_c, 0, 52, 0
2, 8275, Note_on_c, 0, 62, 0
2, 8276, Note_on_c, 0, 56, 0
2, 8558, Note_on_c, 0, 78, 0
2, 8636, Note_on_c, 0, 66, 0
2, 8647, Note_on_c, 0, 78, 46
2, 8663, Note_on_c, 0, 73, 0
2, 8686, Note_on_c, 0, 70, 0
2, 8777, Note_on_c, 0, 78, 0
2, 9076, Note_on_c, 0, 79, 62
2, 9079, Note_on_c, 0, 51, 42
2, 9104, Control_c, 0, 64, 0
2, 9131, Control_c, 0, 64, 127
2, 9244, Note_on_c, 0, 67, 53
2, 9245, Note_on_c, 0, 71, 58
2, 9247, Note_on_c, 0, 59, 43
2, 9395, Note_on_c, 0, 71, 0
2, 9424, Note_on_c, 0, 67, 0
2, 9453, Note_on_c, 0, 59, 0
2, 9454, Note_on_c, 0, 79, 0
2, 9458, Note_on_c, 0, 72, 50
2, 9459, Note_on_c, 0, 67, 42
2, 9470, Note_on_c, 0, 60, 32
2, 9474, Control_c, 0, 64, 0
2, 9516, Control_c, 0, 64, 127
2, 9587, Note_on_c, 0, 67, 0
2, 9713, Note_on_c, 0, 79, 72
2, 9867, Note_on_c, 0, 79, 0
2, 9872, Note_on_c, 0, 72, 0
2, 9902, Note_on_c, 0, 77, 66
2, 9905, Note_on_c, 0, 70, 53
2, 10004, Note_on_c, 0, 70, 0
2, 10005, Note_on_c, 0, 77, 0
2, 10081, Note_on_c, 0, 75, 56
2, 10192, Note_on_c, 0, 51, 0
2, 10193, Note_on_c, 0, 75, 0
2, 10266, Note_on_c, 0, 60, 0
2, 10271, Note_on_c, 0, 74, 61
2, 10271, Note_on_c, 0, 51, 32
2, 10325, Note_on_c, 0, 74, 0
2, 10446, Note_on_c, 0, 72, 53
2, 10458, Note_on_c, 0, 63, 35
2, 10459, Note_on_c, 0, 62, 32
2, 10485, Note_on_c, 0, 62, 0
2, 10492, Note_on_c, 0, 63, 0
2, 10509, Note_on_c, 0, 72, 0
2, 10545, Note_on_c, 0, 51, 0
2, 10636, Note_on_c, 0, 78, 35
2, 10641, Note_on_c, 0, 51, 45
2, 10648, Note_on_c, 0, 70, 50
2, 10667, Control_c, 0, 64, 0
2, 10716, Control_c, 0, 64, 127
2, 10782, Note_on_c, 0, 58, 37
2, 10796, Control_c, 0, 64, 0
2, 10830, Control_c, 0, 64, 127
2, 10837, Note_on_c, 0, 70, 0
2, 10879, Note_on_c, 0, 58, 0
2, 10895, Note_on_c, 0, 59, 47
2, 10903, Note_on_c, 0, 66, 28
2, 10904, Note_on_c, 0, 70, 43
2, 10906, Control_c, 0, 64, 0
2, 11001, Control_c, 0, 64, 127
2, 11017, Note_on_c, 0, 59, 0
2, 11030, Note_on_c, 0, 60, 59
2, 11086, Note_on_c, 0, 70, 0
2, 11110, Note_on_c, 0, 66, 0
2, 11139, Note_on_c, 0, 60, 0
2, 11145, Note_on_c, 0, 78, 0
2, 11165, Note_on_c, 0, 78, 20
2, 11169, Note_on_c, 0, 66, 37
2, 11174, Note_on_c, 0, 60, 53
2, 11175, Note_on_c, 0, 70, 48
2, 11185, Control_c, 0, 64, 0
2, 11264, Control_c, 0, 64, 127
2, 11272, Note_on_c, 0, 60, 0
2, 11322, Note_on_c, 0, 59, 40
2, 11441, Note_on_c, 0, 66, 0
2, 11451, Note_on_c, 0, 70, 0
2, 11489, Note_on_c, 0, 59, 0
2, 11494, Note_on_c, 0, 58, 49
2, 11516, Note_on_c, 0, 51, 0
2, 11634, Note_on_c, 0, 51, 45
2, 11673, Note_on_c, 0, 51, 0
2, 11674, Note_on_c, 0, 58, 0
2, 11733, Note_on_c, 0, 78, 0
2, 11810, Note_on_c, 0, 78, 56
2, 11821, Note_on_c, 0, 58, 37
2, 11821, Note_on_c, 0, 70, 70
2, 11822, Note_on_c, 0, 48, 40
2, 11828, Control_c, 0, 64, 0
2, 11908, Control_c, 0, 64, 127
2, 11916, Note_on_c, 0, 48, 0
2, 11970, Note_on_c, 0, 48, 55
2, 11988, Note_on_c, 0, 58, 0
2, 12007, Note_on_c, 0, 78, 0
2, 12046, Note_on_c, 0, 70, 0
2, 12113, Note_on_c, 0, 77, 66
2, 12121, Note_on_c, 0, 58, 47
2, 12268, Note_on_c, 0, 48, 0
2, 12269, Note_on_c, 0, 77, 0
2, 12279, Note_on_c, 0, 75, 59
2, 12340, Note_on_c, 0, 58, 0
2, 12418, Note_on_c, 0, 75, 0
2, 12801, Note_on_c, 0, 73, 33
2, 12804, Note_on_c, 0, 51, 38
2, 12808, Note_on_c, 0, 69, 52
2, 12815, Note_on_c, 0, 57, 42
2, 12816, Note_on_c, 0, 65, 36
2, 12827, Control_c, 0, 64, 0
2, 12892, Control_c, 0, 64, 127
2, 12937, Note_on_c, 0, 57, 0
2, 12949, Note_on_c, 0, 51, 0
2, 13155, Note_on_c, 0, 29, 35
2, 13193, Note_on_c, 0, 29, 0
2, 13281, Note_on_c, 0, 69, 0
2, 13296, Note_on_c, 0, 65, 0
2, 13317, Note_on_c, 0, 73, 0
2, 13615, Note_on_c, 0, 57, 46
2, 13618, Note_on_c, 0, 72, 45
2, 13620, Note_on_c, 0, 63, 33
2, 13622, Note_on_c, 0, 51, 32
2, 13625, Note_on_c, 0, 68, 35
2, 13699, Note_on_c, 0, 57, 0
2, 13706, Note_on_c, 0, 63, 0
2, 13751, Note_on_c, 0, 72, 0
2, 13775, Note_on_c, 0, 68, 0
2, 13826, Note_on_c, 0, 51, 0
2, 13832, Note_on_c, 0, 74, 64
2, 13838, Note_on_c, 0, 65, 74
2, 13839, Note_on_c, 0, 50, 48
2, 13842, Note_on_c, 0, 58, 30
2, 13848, Control_c, 0, 64, 0
2, 13921, Control_c, 0, 64, 127
2, 14064, Note_on_c, 0, 50, 0
2, 14074, Note_on_c, 0, 58, 0
2, 14098, Note_on_c, 0, 74, 0
2, 14116, Note_on_c, 0, 65, 0
2, 14374, Note_on_c, 0, 70, 57
2, 14379, Note_on_c, 0, 26, 46
2, 14379, Note_on_c, 0, 65, 60
2, 14380, Note_on_c, 0, 38, 36
2, 14381, Note_on_c, 0, 60, 55
2, 14386, Control_c, 0, 64, 0
2, 14492, Control_c, 0, 64, 127
2, 14627, Note_on_c, 0, 60, 0
2, 14646, Note_on_c, 0, 26, 0
2, 14649, Note_on_c, 0, 65, 0
2, 14681, Note_on_c, 0, 38, 0
2, 14710, Note_on_c, 0, 70, 0
2, 15005, Note_on_c, 0, 77, 81
2, 15007, Note_on_c, 0, 81, 77
2, 15007, Note_on_c, 0, 69, 72
2, 15008, Note_on_c, 0, 72, 80
2, 15022, Control_c, 0, 64, 0
2, 15067, Control_c, 0, 64, 127
2, 15110, Note_on_c, 0, 69, 0
2, 15189, Note_on_c, 0, 72, 0
2, 15367, Note_on_c, 0, 81, 0
2, 15371, Note_on_c, 0, 77, 0
2, 15693, Note_on_c, 0, 77, 45
2, 15696, Note_on_c, 0, 68, 26
2, 15697, Note_on_c, 0, 71, 43
2, 15709, Note_on_c, 0, 74, 36
2, 15715, Note_on_c, 0, 65, 20
2, 15716, Note_on_c, 0, 55, 32
2, 15719, Control_c, 0, 64, 0
2, 15818, Control_c, 0, 64, 127
2, 15897, Note_on_c, 0, 65, 0
2, 15913, Note_on_c, 0, 55, 0
2, 15995, Note_on_c, 0, 74, 0
2, 16001, Note_on_c, 0, 77, 0
2, 16003, Note_on_c, 0, 71, 0
2, 16008, Note_on_c, 0, 68, 0
2, 16246, Note_on_c, 0, 63, 43
2, 16247, Note_on_c, 0, 58, 36
2, 16248, Note_on_c, 0, 59, 37
2, 16250, Note_on_c, 0, 67, 44
2, 16252, Note_on_c, 0, 53, 33
2, 16257, Control_c, 0, 64, 0
2, 16264, Note_on_c, 0, 49, 21
2, 16318, Control_c, 0, 64, 127
2, 16352, Note_on_c, 0, 59, 0
2, 16358, Note_on_c, 0, 58, 0
2, 16377, Note_on_c, 0, 53, 0
2, 16397, Note_on_c, 0, 63, 0
2, 16449, Note_on_c, 0, 49, 0
2, 16559, Note_on_c, 0, 67, 0
2, 16678, Note_on_c, 0, 63, 37
2, 16680, Control_c, 0, 64, 0
2, 16684, Note_on_c, 0, 62, 33
2, 16684, Note_on_c, 0, 58, 26
2, 16686, Note_on_c, 0, 60, 18
2, 16688, Note_on_c, 0, 55, 34
2, 16690, Note_on_c, 0, 48, 28
2, 16741, Control_c, 0, 64, 127
2, 16753, Note_on_c, 0, 62, 0
2, 16755, Note_on_c, 0, 63, 0
2, 16776, Note_on_c, 0, 60, 0
2, 16891, Note_on_c, 0, 74, 89
2, 17011, Note_on_c, 0, 74, 0
2, 17036, Note_on_c, 0, 74, 70
2, 17091, Note_on_c, 0, 48, 0
2, 17093, Note_on_c, 0, 55, 0
2, 17112, Note_on_c, 0, 74, 0
2, 17113, Note_on_c, 0, 58, 0
2, 17150, Note_on_c, 0, 74, 57
2, 17220, Note_on_c, 0, 74, 0
2, 17265, Note_on_c, 0, 74, 41
2, 17271, Note_on_c, 0, 65, 25
2, 17271, Note_on_c, 0, 50, 36
2, 17276, Note_on_c, 0, 69, 42
2, 17282, Control_c, 0, 64, 0
2, 17282, Note_on_c, 0, 60, 27
2, 17373, Control_c, 0, 64, 127
2, 17416, Note_on_c, 0, 57, 40
2, 17468, Note_on_c, 0, 60, 0
2, 17475, Note_on_c, 0, 65, 0
2, 17584, Note_on_c, 0, 65, 41
2, 17592, Note_on_c, 0, 60, 28
2, 17621, Note_on_c, 0, 69, 0
2, 17650, Note_on_c, 0, 74, 0
2, 17683, Note_on_c, 0, 65, 0
2, 17750, Note_on_c, 0, 79, 74
2, 17759, Note_on_c, 0, 50, 0
2, 17796, Note_on_c, 0, 60, 0
2, 17797, Note_on_c, 0, 57, 0
2, 17856, Note_on_c, 0, 79, 0
2, 18011, Note_on_c, 0, 70, 51
2, 18019, Note_on_c, 0, 65, 35
2, 18030, Note_on_c, 0, 51, 30
2, 18040, Control_c, 0, 64, 0
2, 18132, Control_c, 0, 64, 127
2, 18166, Note_on_c, 0, 58, 35
2, 18284, Note_on_c, 0, 65, 0
2, 18317, Note_on_c, 0, 62, 44
2, 18465, Note_on_c, 0, 70, 0
2, 18471, Note_on_c, 0, 74, 61
2, 18487, Note_on_c, 0, 51, 0
2, 18516, Note_on_c, 0, 58, 0
2, 18536, Note_on_c, 0, 62, 0
2, 18647, Note_on_c, 0, 74, 0
2, 18656, Note_on_c, 0, 70, 39
2, 18657, Note_on_c, 0, 67, 32
2, 18659, Note_on_c, 0, 63, 33
2, 18665, Note_on_c, 0, 53, 25
2, 18674, Note_on_c, 0, 58, 25
2, 18677, Control_c, 0, 64, 0
2, 18749, Control_c, 0, 64, 127
2, 18855, Note_on_c, 0, 60, 36
2, 18876, Note_on_c, 0, 63, 0
2, 19101, Note_on_c, 0, 72, 54
2, 19106, Note_on_c, 0, 63, 25
2, 19129, Note_on_c, 0, 53, 0
2, 19195, Note_on_c, 0, 63, 0
2, 19323, Note_on_c, 0, 67, 0
2, 19351, Note_on_c, 0, 72, 0
2, 19355, Note_on_c, 0, 70, 0
2, 19390, Note_on_c, 0, 53, 28
2, 19495, Note_on_c, 0, 60, 0
2, 19548, Note_on_c, 0, 53, 0
2, 19552, Note_on_c, 0, 74, 70
2, 19553, Note_on_c, 0, 58, 0
2, 19627, Note_on_c, 0, 74, 0
2, 19649, Note_on_c, 0, 75, 65
2, 19717, Note_on_c, 0, 75, 0
2, 19791, Note_on_c, 0, 46, 45
2, 19803, Note_on_c, 0, 74, 79
2, 19820, Control_c, 0, 64, 0
2, 19888, Control_c, 0, 64, 127
2, 19917, Note_on_c, 0, 52, 51
2, 20042, Note_on_c, 0, 52, 0
2, 20050, Note_on_c, 0, 64, 62
2, 20056, Note_on_c, 0, 55, 55
2, 20062, Note_on_c, 0, 46, 0
2, 20188, Note_on_c, 0, 55, 0
2, 20188, Note_on_c, 0, 64, 0
2, 20188, Note_on_c, 0, 58, 53
2, 20227, Note_on_c, 0, 74, 0
2, 20319, Note_on_c, 0, 70, 38
2, 20325, Note_on_c, 0, 61, 45
2, 20329, Note_on_c, 0, 73, 34
2, 20478, Note_on_c, 0, 79, 55
2, 20485, Note_on_c, 0, 61, 0
2, 20485, Note_on_c, 0, 64, 29
2, 20611, Note_on_c, 0, 70, 0
2, 20640, Note_on_c, 0, 79, 0
2, 20661, Note_on_c, 0, 70, 27
2, 20665, Note_on_c, 0, 61, 39
2, 20669, Note_on_c, 0, 76, 36
2, 20680, Note_on_c, 0, 64, 0
2, 20704, Note_on_c, 0, 58, 0
2, 20721, Note_on_c, 0, 76, 0
2, 20733, Note_on_c, 0, 70, 0
2, 20750, Note_on_c, 0, 73, 0
2, 20845, Note_on_c, 0, 74, 59
2, 20859, Note_on_c, 0, 58, 34
2, 20879, Note_on_c, 0, 61, 0
2, 20925, Note_on_c, 0, 58, 0
2, 20992, Note_on_c, 0, 74, 0
2, 21168, Note_on_c, 0, 74, 60
2, 21176, Note_on_c, 0, 53, 41
2, 21178, Note_on_c, 0, 65, 43
2, 21181, Note_on_c, 0, 46, 29
2, 21203, Control_c, 0, 64, 0
2, 21268, Control_c, 0, 64, 127
2, 21332, Note_on_c, 0, 46, 0
2, 21358, Note_on_c, 0, 74, 0
2, 21361, Note_on_c, 0, 46, 46
2, 21385, Note_on_c, 0, 65, 0
2, 21463, Note_on_c, 0, 53, 0
2, 21509, Note_on_c, 0, 72, 50
2, 21510, Note_on_c, 0, 63, 58
2, 21566, Note_on_c, 0, 72, 0
2, 21595, Note_on_c, 0, 63, 0
2, 21615, Note_on_c, 0, 70, 69
2, 21617, Note_on_c, 0, 62, 61
2, 21674, Note_on_c, 0, 70, 0
2, 21676, Note_on_c, 0, 62, 0
2, 21720, Note_on_c, 0, 69, 74
2, 21721, Note_on_c, 0, 53, 40
2, 21725, Control_c, 0, 64, 0
2, 21727, Note_on_c, 0, 60, 64
2, 21779, Note_on_c, 0, 60, 0
2, 21779, Control_c, 0, 64, 127
2, 21797, Note_on_c, 0, 69, 0
2, 21829, Note_on_c, 0, 46, 0
2, 21857, Note_on_c, 0, 67, 62
2, 21867, Note_on_c, 0, 46, 30
2, 21912, Note_on_c, 0, 67, 0
2, 21940, Note_on_c, 0, 53, 0
2, 21963, Note_on_c, 0, 46, 0
2, 22056, Note_on_c, 0, 66, 65
2, 22058, Note_on_c, 0, 74, 66
2, 22061, Note_on_c, 0, 62, 57
2, 22066, Note_on_c, 0, 46, 39
2, 22069, Note_on_c, 0, 54, 34
2, 22080, Control_c, 0, 64, 0
2, 22156, Note_on_c, 0, 54, 0
2, 22167, Control_c, 0, 64, 127
2, 22217, Note_on_c, 0, 54, 53
2, 22231, Note_on_c, 0, 62, 0
2, 22246, Note_on_c, 0, 66, 0
2, 22373, Note_on_c, 0, 46, 0
2, 22373, Note_on_c, 0, 66, 54
2, 22378, Note_on_c, 0, 62, 54
2, 22380, Note_on_c, 0, 57, 64
2, 22387, Note_on_c, 0, 54, 0
2, 22388, Control_c, 0, 64, 0
2, 22434, Control_c, 0, 64, 127
2, 22516, Note_on_c, 0, 57, 0
2, 22545, Note_on_c, 0, 57, 71
2, 22579, Note_on_c, 0, 62, 0
2, 22682, Note_on_c, 0, 57, 0
2, 22687, Note_on_c, 0, 66, 0
2, 22729, Note_on_c, 0, 67, 65
2, 22730, Note_on_c, 0, 62, 50
2, 22737, Note_on_c, 0, 55, 62
2, 22754, Control_c, 0, 64, 0
2, 22807, Control_c, 0, 64, 127
2, 22830, Note_on_c, 0, 74, 0
2, 22870, Note_on_c, 0, 72, 64
2, 22955, Note_on_c, 0, 72, 0
2, 22989, Note_on_c, 0, 46, 39
2, 22993, Note_on_c, 0, 70, 67
2, 23001, Control_c, 0, 64, 0
2, 23089, Control_c, 0, 64, 127
2, 23119, Note_on_c, 0, 70, 0
2, 23121, Note_on_c, 0, 69, 67
2, 23179, Note_on_c, 0, 55, 0
2, 23248, Note_on_c, 0, 67, 0
2, 23259, Note_on_c, 0, 62, 0
2, 23313, Note_on_c, 0, 69, 0
2, 23330, Note_on_c, 0, 67, 49
2, 23337, Note_on_c, 0, 62, 36
2, 23338, Note_on_c, 0, 55, 39
2, 23570, Note_on_c, 0, 67, 0
2, 23571, Note_on_c, 0, 55, 0
2, 23581, Note_on_c, 0, 62, 0
2, 23759, Note_on_c, 0, 68, 56
2, 23761, Note_on_c, 0, 63, 42
2, 23764, Note_on_c, 0, 72, 30
2, 23767, Note_on_c, 0, 56, 35
2, 23771, Control_c, 0, 64, 0
2, 23786, Note_on_c, 0, 46, 0
2, 23836, Control_c, 0, 64, 127
2, 23886, Note_on_c, 0, 63, 0
2, 23897, Note_on_c, 0, 46, 44
2, 23902, Note_on_c, 0, 72, 0
2, 23908, Note_on_c, 0, 68, 0
2, 23917, Note_on_c, 0, 56, 0
2, 23931, Note_on_c, 0, 46, 0
2, 24063, Note_on_c, 0, 63, 42
2, 24198, Note_on_c, 0, 79, 55
2, 24204, Note_on_c, 0, 67, 47
2, 24208, Note_on_c, 0, 75, 39
2, 24209, Note_on_c, 0, 72, 35
2, 24211, Note_on_c, 0, 68, 26
2, 24262, Note_on_c, 0, 79, 0
2, 24268, Note_on_c, 0, 67, 0
2, 24281, Note_on_c, 0, 72, 0
2, 24284, Note_on_c, 0, 75, 0
2, 24314, Note_on_c, 0, 68, 0
2, 24322, Note_on_c, 0, 63, 0
2, 24372, Note_on_c, 0, 75, 40
2, 24381, Note_on_c, 0, 65, 38
2, 24382, Note_on_c, 0, 68, 33
2, 24383, Note_on_c, 0, 72, 37
2, 24451, Note_on_c, 0, 72, 0
2, 24458, Note_on_c, 0, 75, 0
2, 24469, Note_on_c, 0, 68, 0
2, 24479, Note_on_c, 0, 65, 0
2, 24537, Note_on_c, 0, 60, 36
2, 24561, Note_on_c, 0, 60, 0
2, 24668, Note_on_c, 0, 63, 45
2, 24675, Note_on_c, 0, 56, 30
2, 24678, Note_on_c, 0, 68, 37
2, 24679, Note_on_c, 0, 65, 45
2, 24684, Note_on_c, 0, 72, 20
2, 24726, Note_on_c, 0, 72, 0
2, 24751, Note_on_c, 0, 65, 0
2, 24754, Note_on_c, 0, 68, 0
2, 24758, Note_on_c, 0, 63, 0
2, 24784, Note_on_c, 0, 53, 39
2, 24913, Note_on_c, 0, 68, 42
2, 24914, Note_on_c, 0, 63, 48
2, 24917, Note_on_c, 0, 60, 50
2, 24918, Control_c, 0, 64, 0
2, 24919, Note_on_c, 0, 53, 0
2, 24921, Note_on_c, 0, 46, 35
2, 24924, Note_on_c, 0, 65, 36
2, 24968, Control_c, 0, 64, 127
2, 25003, Note_on_c, 0, 60, 0
2, 25010, Note_on_c, 0, 65, 0
2, 25014, Note_on_c, 0, 46, 0
2, 25020, Note_on_c, 0, 68, 0
2, 25032, Note_on_c, 0, 63, 0
2, 25112, Note_on_c, 0, 46, 47
2, 25115, Note_on_c, 0, 72, 55
2, 25115, Note_on_c, 0, 63, 69
2, 25118, Note_on_c, 0, 68, 59
2, 25126, Note_on_c, 0, 56, 0
2, 25235, Note_on_c, 0, 63, 0
2, 25251, Note_on_c, 0, 68, 0
2, 25333, Note_on_c, 0, 72, 0
2, 25395, Note_on_c, 0, 46, 0
2, 25489, Note_on_c, 0, 70, 59
2, 25491, Note_on_c, 0, 46, 35
2, 25500, Note_on_c, 0, 65, 49
2, 25508, Note_on_c, 0, 60, 22
2, 25524, Control_c, 0, 64, 0
2, 25544, Control_c, 0, 64, 127
2, 25558, Note_on_c, 0, 65, 0
2, 25567, Note_on_c, 0, 60, 0
2, 25570, Note_on_c, 0, 70, 0
2, 25585, Note_on_c, 0, 46, 0
2, 25628, Note_on_c, 0, 68, 52
2, 25629, Note_on_c, 0, 63, 56
2, 25633, Note_on_c, 0, 46, 26
2, 25639, Control_c, 0, 64, 0
2, 25661, Control_c, 0, 64, 127
2, 25669, Note_on_c, 0, 63, 0
2, 25670, Note_on_c, 0, 68, 0
2, 25691, Note_on_c, 0, 46, 0
2, 25788, Note_on_c, 0, 67, 50
2, 25788, Note_on_c, 0, 56, 32
2, 25793, Note_on_c, 0, 46, 27
2, 25797, Note_on_c, 0, 60, 48
2, 25800, Note_on_c, 0, 63, 30
2, 25810, Control_c, 0, 64, 0
2, 25811, Note_on_c, 0, 55, 30
2, 25875, Control_c, 0, 64, 127
2, 25949, Note_on_c, 0, 55, 0
2, 26131, Note_on_c, 0, 56, 0
2, 26141, Note_on_c, 0, 60, 0
2, 26153, Note_on_c, 0, 46, 0
2, 26221, Note_on_c, 0, 63, 0
2, 26225, Note_on_c, 0, 67, 0
2, 26259, Note_on_c, 0, 65, 35
2, 26336, Note_on_c, 0, 65, 0
2, 26496, Control_c, 0, 64, 0
2, 26497, Note_on_c, 0, 75, 59
2, 26506, Note_on_c, 0, 47, 43
2, 26524, Note_on_c, 0, 47, 0
2, 26542, Control_c, 0, 64, 127
2, 26743, Note_on_c, 0, 68, 31
2, 26748, Note_on_c, 0, 63, 33
2, 26751, Note_on_c, 0, 57, 36
2, 27166, Note_on_c, 0, 75, 0
2, 27270, Note_on_c, 0, 74, 64
2, 27353, Note_on_c, 0, 74, 0
2, 27353, Note_on_c, 0, 68, 0
2, 27362, Note_on_c, 0, 57, 0
2, 27374, Note_on_c, 0, 75, 72
2, 27452, Note_on_c, 0, 75, 0
2, 27471, Note_on_c, 0, 76, 75
2, 27475, Note_on_c, 0, 63, 0
2, 27534, Note_on_c, 0, 76, 0
2, 27574, Note_on_c, 0, 77, 60
2, 27641, Note_on_c, 0, 77, 0
2, 27691, Note_on_c, 0, 77, 57
2, 27766, Note_on_c, 0, 77, 0
2, 27832, Note_on_c, 0, 77, 55
2, 27835, Note_on_c, 0, 63, 25
2, 27837, Note_on_c, 0, 56, 20
2, 27838, Control_c, 0, 64, 0
2, 27844, Note_on_c, 0, 67, 26
2, 27847, Note_on_c, 0, 60, 38
2, 27891, Control_c, 0, 64, 127
2, 27906, Note_on_c, 0, 60, 0
2, 27911, Note_on_c, 0, 67, 0
2, 27918, Note_on_c, 0, 63, 0
2, 27945, Note_on_c, 0, 56, 0
2, 28102, Note_on_c, 0, 34, 40
2, 28136, Note_on_c, 0, 34, 0
2, 28521, Note_on_c, 0, 77, 0
2, 28646, Note_on_c, 0, 56, 35
2, 28689, Note_on_c, 0, 66, 31
2, 28704, Note_on_c, 0, 62, 27
2, 28714, Note_on_c, 0, 70, 37
2, 28726, Note_on_c, 0, 73, 38
2, 28740, Note_on_c, 0, 78, 60
2, 28749, Control_c, 0, 64, 0
2, 28786, Control_c, 0, 64, 127
2, 29031, Note_on_c, 0, 62, 0
2, 29094, Note_on_c, 0, 56, 0
2, 29165, Note_on_c, 0, 66, 0
2, 29204, Note_on_c, 0, 70, 0
2, 29206, Note_on_c, 0, 73, 0
2, 29225, Note_on_c, 0, 78, 0
2, 29488, Note_on_c, 0, 79, 66
2, 29494, Note_on_c, 0, 51, 31
2, 29503, Note_on_c, 0, 59, 38
2, 29514, Control_c, 0, 64, 0
2, 29567, Control_c, 0, 64, 127
2, 29673, Note_on_c, 0, 62, 45
2, 29791, Note_on_c, 0, 62, 0
2, 29848, Note_on_c, 0, 59, 0
2, 29861, Note_on_c, 0, 72, 37
2, 29862, Note_on_c, 0, 67, 45
2, 29872, Note_on_c, 0, 60, 28
2, 29880, Control_c, 0, 64, 0
2, 29945, Control_c, 0, 64, 127
2, 30068, Note_on_c, 0, 51, 0
2, 30109, Note_on_c, 0, 51, 37
2, 30240, Note_on_c, 0, 79, 0
2, 30260, Note_on_c, 0, 67, 0
2, 30302, Note_on_c, 0, 72, 0
2, 30312, Note_on_c, 0, 60, 0
2, 30411, Note_on_c, 0, 77, 65
2, 30414, Note_on_c, 0, 70, 68
2, 30418, Note_on_c, 0, 67, 66
2, 30419, Note_on_c, 0, 74, 57
2, 30421, Note_on_c, 0, 60, 50
2, 30429, Control_c, 0, 64, 0
2, 30486, Control_c, 0, 64, 127
2, 30604, Note_on_c, 0, 77, 0
2, 30609, Note_on_c, 0, 51, 0
2, 30617, Note_on_c, 0, 74, 0
2, 30641, Note_on_c, 0, 75, 69
2, 30644, Note_on_c, 0, 51, 45
2, 30775, Note_on_c, 0, 60, 0
2, 30789, Note_on_c, 0, 75, 0
2, 30809, Note_on_c, 0, 67, 0
2, 30813, Note_on_c, 0, 70, 0
2, 30835, Note_on_c, 0, 70, 34
2, 30836, Note_on_c, 0, 74, 67
2, 30837, Note_on_c, 0, 67, 61
2, 30846, Note_on_c, 0, 60, 40
2, 30962, Note_on_c, 0, 51, 0
2, 30989, Note_on_c, 0, 67, 0
2, 31001, Note_on_c, 0, 74, 0
2, 31012, Note_on_c, 0, 67, 32
2, 31017, Note_on_c, 0, 51, 51
2, 31018, Note_on_c, 0, 72, 51
2, 31059, Note_on_c, 0, 67, 0
2, 31070, Note_on_c, 0, 72, 0
2, 31074, Note_on_c, 0, 60, 0
2, 31134, Note_on_c, 0, 70, 0
2, 31134, Note_on_c, 0, 51, 0
2, 31208, Note_on_c, 0, 66, 51
2, 31208, Note_on_c, 0, 73, 39
2, 31209, Note_on_c, 0, 70, 51
2, 31209, Note_on_c, 0, 51, 51
2, 31210, Note_on_c, 0, 78, 51
2, 31237, Control_c, 0, 64, 0
2, 31322, Note_on_c, 0, 58, 36
2, 31390, Note_on_c, 0, 58, 0
2, 31418, Note_on_c, 0, 59, 30
2, 31442, Control_c, 0, 64, 127
2, 31496, Control_c, 0, 64, 0
2, 31518, Note_on_c, 0, 59, 0
2, 31531, Note_on_c, 0, 60, 51
2, 31542, Control_c, 0, 64, 127
2, 31628, Note_on_c, 0, 60, 0
2, 31662, Note_on_c, 0, 60, 57
2, 31683, Control_c, 0, 64, 0
2, 31694, Control_c, 0, 64, 127
2, 31745, Note_on_c, 0, 60, 0
2, 31786, Control_c, 0, 64, 0
2, 31794, Note_on_c, 0, 59, 43
2, 31808, Control_c, 0, 64, 127
2, 31888, Note_on_c, 0, 59, 0
2, 31911, Note_on_c, 0, 58, 39
2, 31912, Note_on_c, 0, 66, 0
2, 31927, Note_on_c, 0, 51, 0
2, 31940, Note_on_c, 0, 73, 0
2, 31941, Note_on_c, 0, 58, 0
2, 31946, Note_on_c, 0, 70, 0
2, 31979, Note_on_c, 0, 78, 0
2, 32034, Note_on_c, 0, 75, 69
2, 32037, Note_on_c, 0, 78, 62
2, 32038, Note_on_c, 0, 70, 63
2, 32038, Note_on_c, 0, 48, 60
2, 32060, Control_c, 0, 64, 0
2, 32147, Control_c, 0, 64, 127
2, 32161, Note_on_c, 0, 48, 0
2, 32163, Note_on_c, 0, 58, 34
2, 32201, Note_on_c, 0, 58, 0
2, 32286, Note_on_c, 0, 63, 30
2, 32394, Note_on_c, 0, 70, 0
2, 32395, Note_on_c, 0, 78, 0
2, 32421, Note_on_c, 0, 70, 27
2, 32423, Note_on_c, 0, 65, 44
2, 32426, Note_on_c, 0, 77, 56
2, 32444, Note_on_c, 0, 75, 0
2, 32446, Note_on_c, 0, 65, 0
2, 32454, Note_on_c, 0, 63, 0
2, 32552, Note_on_c, 0, 75, 50
2, 32583, Note_on_c, 0, 77, 0
2, 32640, Note_on_c, 0, 70, 0
2, 32678, Note_on_c, 0, 75, 0
2, 32698, Note_on_c, 0, 63, 33
2, 32702, Note_on_c, 0, 73, 30
2, 32704, Note_on_c, 0, 69, 45
2, 32708, Note_on_c, 0, 53, 26
2, 32721, Note_on_c, 0, 58, 20
2, 32723, Control_c, 0, 64, 0
2, 32799, Control_c, 0, 64, 127
2, 32869, Note_on_c, 0, 63, 0
2, 32877, Note_on_c, 0, 60, 34
2, 32922, Note_on_c, 0, 58, 0
2, 32967, Note_on_c, 0, 69, 0
2, 33038, Note_on_c, 0, 73, 0
2, 33062, Note_on_c, 0, 63, 27
2, 33062, Note_on_c, 0, 72, 40
2, 33064, Note_on_c, 0, 69, 42
2, 33083, Note_on_c, 0, 53, 0
2, 33135, Note_on_c, 0, 63, 0
2, 33152, Note_on_c, 0, 72, 0
2, 33231, Note_on_c, 0, 69, 0
2, 33244, Note_on_c, 0, 74, 76
2, 33248, Note_on_c, 0, 53, 40
2, 33260, Note_on_c, 0, 60, 0
2, 33289, Note_on_c, 0, 53, 0
2, 33355, Note_on_c, 0, 74, 0
2, 33431, Note_on_c, 0, 74, 72
2, 33437, Note_on_c, 0, 58, 31
2, 33438, Note_on_c, 0, 50, 35
2, 33440, Note_on_c, 0, 62, 49
2, 33455, Control_c, 0, 64, 0
2, 33519, Control_c, 0, 64, 127
2, 33569, Note_on_c, 0, 58, 0
2, 33625, Note_on_c, 0, 62, 0
2, 33857, Note_on_c, 0, 74, 0
2, 33915, Note_on_c, 0, 70, 54
2, 33917, Note_on_c, 0, 62, 59
2, 33923, Note_on_c, 0, 65, 57
2, 33924, Note_on_c, 0, 58, 31
2, 33980, Note_on_c, 0, 65, 0
2, 33981, Note_on_c, 0, 62, 0
2, 34007, Note_on_c, 0, 70, 0
2, 34009, Note_on_c, 0, 50, 0
2, 34022, Note_on_c, 0, 58, 0
2, 34181, Note_on_c, 0, 69, 68
2, 34183, Note_on_c, 0, 81, 71
2, 34183, Note_on_c, 0, 74, 66
2, 34187, Note_on_c, 0, 39, 56
2, 34192, Note_on_c, 0, 46, 48
2, 34198, Control_c, 0, 64, 0
2, 34254, Note_on_c, 0, 39, 0
2, 34266, Control_c, 0, 64, 127
2, 34390, Note_on_c, 0, 46, 0
2, 34392, Note_on_c, 0, 55, 44
2, 34440, Note_on_c, 0, 69, 0
2, 34486, Note_on_c, 0, 74, 0
2, 34491, Note_on_c, 0, 81, 0
2, 34606, Note_on_c, 0, 55, 0
2, 34609, Note_on_c, 0, 58, 38
2, 34802, Note_on_c, 0, 62, 34
2, 34808, Note_on_c, 0, 70, 35
2, 34808, Note_on_c, 0, 65, 47
2, 34809, Note_on_c, 0, 77, 47
2, 34812, Note_on_c, 0, 74, 44
2, 34902, Note_on_c, 0, 62, 0
2, 34957, Note_on_c, 0, 65, 0
2, 34966, Note_on_c, 0, 58, 0
2, 34981, Note_on_c, 0, 74, 0
2, 35005, Note_on_c, 0, 70, 0
2, 35044, Note_on_c, 0, 77, 0
2, 35178, Note_on_c, 0, 50, 62
2, 35185, Control_c, 0, 64, 0
2, 35223, Control_c, 0, 64, 127
2, 35230, Note_on_c, 0, 50, 0
2, 35393, Note_on_c, 0, 81, 81
2, 35394, Note_on_c, 0, 54, 70
2, 35394, Note_on_c, 0, 72, 85
2, 35394, Note_on_c, 0, 60, 73
2, 35395, Note_on_c, 0, 77, 80
2, 35396, Note_on_c, 0, 65, 74
2, 35400, Control_c, 0, 64, 0
2, 35430, Control_c, 0, 64, 127
2, 35498, Note_on_c, 0, 81, 0
2, 35506, Note_on_c, 0, 77, 0
2, 35521, Note_on_c, 0, 72, 0
2, 35529, Note_on_c, 0, 65, 0
2, 35533, Note_on_c, 0, 60, 0
2, 35538, Note_on_c, 0, 54, 0
2, 35573, Note_on_c, 0, 77, 62
2, 35578, Note_on_c, 0, 54, 47
2, 35580, Note_on_c, 0, 69, 50
2, 35581, Note_on_c, 0, 72, 50
2, 35582, Note_on_c, 0, 65, 54
2, 35590, Note_on_c, 0, 60, 46
2, 35641, Note_on_c, 0, 69, 0
2, 35652, Note_on_c, 0, 72, 0
2, 35665, Note_on_c, 0, 77, 0
2, 35670, Note_on_c, 0, 60, 0
2, 35677, Note_on_c, 0, 65, 0
2, 35688, Note_on_c, 0, 54, 0
2, 35744, Note_on_c, 0, 81, 66
2, 35748, Note_on_c, 0, 54, 42
2, 35749, Note_on_c, 0, 72, 48
2, 35751, Note_on_c, 0, 77, 51
2, 35757, Note_on_c, 0, 65, 39
2, 35762, Control_c, 0, 64, 0
2, 35765, Note_on_c, 0, 60, 37
2, 35777, Control_c, 0, 64, 127
2, 35793, Note_on_c, 0, 77, 0
2, 35794, Note_on_c, 0, 81, 0
2, 35814, Note_on_c, 0, 72, 0
2, 35831, Note_on_c, 0, 60, 0
2, 35834, Note_on_c, 0, 65, 0
2, 35863, Note_on_c, 0, 54, 0
2, 35918, Note_on_c, 0, 54, 37
2, 35918, Note_on_c, 0, 77, 38
2, 35929, Note_on_c, 0, 65, 29
2, 35935, Note_on_c, 0, 67, 20
2, 35938, Note_on_c, 0, 60, 30
2, 35958, Note_on_c, 0, 67, 0
2, 35979, Note_on_c, 0, 60, 0
2, 35991, Note_on_c, 0, 77, 0
2, 35992, Note_on_c, 0, 65, 0
2, 36050, Note_on_c, 0, 54, 0
2, 36145, Note_on_c, 0, 53, 37
2, 36147, Control_c, 0, 64, 0
2, 36148, Note_on_c, 0, 72, 43
2, 36151, Note_on_c, 0, 81, 47
2, 36156, Note_on_c, 0, 64, 29
2, 36157, Note_on_c, 0, 77, 40
2, 36159, Note_on_c, 0, 59, 40
2, 36208, Control_c, 0, 64, 127
2, 36246, Note_on_c, 0, 64, 0
2, 36255, Note_on_c, 0, 59, 0
2, 36270, Note_on_c, 0, 53, 0
2, 36368, Note_on_c, 0, 81, 0
2, 36395, Note_on_c, 0, 43, 38
2, 36396, Note_on_c, 0, 77, 0
2, 36406, Note_on_c, 0, 72, 0
2, 36436, Note_on_c, 0, 43, 0
2, 36703, Note_on_c, 0, 68, 37
2, 36708, Note_on_c, 0, 71, 46
2, 36709, Note_on_c, 0, 77, 33
2, 36710, Note_on_c, 0, 65, 33
2, 36716, Note_on_c, 0, 74, 44
2, 36738, Control_c, 0, 64, 0
2, 36783, Control_c, 0, 64, 127
2, 36899, Note_on_c, 0, 74, 0
2, 36900, Note_on_c, 0, 65, 0
2, 36914, Note_on_c, 0, 71, 0
2, 36922, Note_on_c, 0, 68, 0
2, 36925, Note_on_c, 0, 77, 0
2, 37050, Note_on_c, 0, 68, 27
2, 37050, Note_on_c, 0, 71, 39
2, 37052, Note_on_c, 0, 65, 27
2, 37058, Note_on_c, 0, 59, 32
2, 37143, Note_on_c, 0, 59, 0
2, 37185, Note_on_c, 0, 71, 0
2, 37215, Note_on_c, 0, 65, 0
2, 37239, Note_on_c, 0, 68, 0
2, 37378, Note_on_c, 0, 63, 27
2, 37382, Note_on_c, 0, 67, 45
2, 37383, Note_on_c, 0, 48, 33
2, 37389, Control_c, 0, 64, 0
2, 37395, Note_on_c, 0, 58, 17
2, 37427, Control_c, 0, 64, 127
2, 37486, Note_on_c, 0, 67, 0
2, 37490, Note_on_c, 0, 63, 0
2, 37619, Note_on_c, 0, 58, 0
2, 37623, Note_on_c, 0, 55, 37
2, 37625, Note_on_c, 0, 82, 74
2, 37796, Note_on_c, 0, 82, 0
2, 37815, Note_on_c, 0, 70, 38
2, 37824, Note_on_c, 0, 58, 18
2, 37937, Note_on_c, 0, 48, 0
2, 37942, Note_on_c, 0, 55, 0
2, 37947, Note_on_c, 0, 82, 68
2, 37967, Note_on_c, 0, 58, 0
2, 38018, Note_on_c, 0, 82, 0
2, 38023, Note_on_c, 0, 70, 0
2, 38068, Note_on_c, 0, 50, 50
2, 38069, Note_on_c, 0, 82, 59
2, 38098, Control_c, 0, 64, 0
2, 38159, Control_c, 0, 64, 127
2, 38198, Note_on_c, 0, 57, 31
2, 38317, Note_on_c, 0, 70, 35
2, 38363, Note_on_c, 0, 82, 0
2, 38423, Note_on_c, 0, 70, 0
2, 38429, Note_on_c, 0, 82, 62
2, 38445, Note_on_c, 0, 60, 34
2, 38458, Note_on_c, 0, 50, 0
2, 38485, Note_on_c, 0, 57, 0
2, 38504, Note_on_c, 0, 82, 0
2, 38578, Note_on_c, 0, 82, 52
2, 38581, Note_on_c, 0, 60, 0
2, 38583, Note_on_c, 0, 75, 40
2, 38584, Note_on_c, 0, 51, 36
2, 38586, Note_on_c, 0, 79, 43
2, 38588, Note_on_c, 0, 70, 27
2, 38593, Control_c, 0, 64, 0
2, 38658, Control_c, 0, 64, 127
2, 38718, Note_on_c, 0, 79, 0
2, 38732, Note_on_c, 0, 58, 28
2, 38757, Note_on_c, 0, 82, 0
2, 38852, Note_on_c, 0, 70, 0
2, 38870, Note_on_c, 0, 70, 25
2, 38870, Note_on_c, 0, 81, 68
2, 38885, Note_on_c, 0, 60, 24
2, 38961, Note_on_c, 0, 51, 0
2, 38984, Note_on_c, 0, 81, 0
2, 39016, Note_on_c, 0, 79, 60
2, 39026, Note_on_c, 0, 51, 44
2, 39037, Note_on_c, 0, 75, 0
2, 39053, Note_on_c, 0, 70, 0
2, 39058, Note_on_c, 0, 79, 0
2, 39076, Note_on_c, 0, 60, 0
2, 39097, Note_on_c, 0, 58, 0
2, 39103, Note_on_c, 0, 51, 0
2, 39199, Note_on_c, 0, 77, 62
2, 39202, Note_on_c, 0, 51, 49
2, 39202, Note_on_c, 0, 69, 57
2, 39209, Note_on_c, 0, 60, 43
2, 39211, Note_on_c, 0, 72, 36
2, 39215, Control_c, 0, 64, 0
2, 39283, Control_c, 0, 64, 127
2, 39361, Note_on_c, 0, 51, 0
2, 39398, Note_on_c, 0, 72, 0
2, 39398, Note_on_c, 0, 51, 33
2, 39432, Note_on_c, 0, 77, 0
2, 39433, Note_on_c, 0, 60, 0
2, 39437, Note_on_c, 0, 69, 0
2, 39584, Note_on_c, 0, 65, 42
2, 39587, Note_on_c, 0, 69, 49
2, 39589, Note_on_c, 0, 57, 34
2, 39591, Note_on_c, 0, 60, 26
2, 39830, Note_on_c, 0, 75, 67
2, 39935, Note_on_c, 0, 69, 0
2, 39937, Note_on_c, 0, 65, 0
2, 39956, Note_on_c, 0, 57, 0
2, 39960, Note_on_c, 0, 75, 0
2, 39967, Note_on_c, 0, 51, 0
2, 39970, Note_on_c, 0, 60, 0
2, 40120, Note_on_c, 0, 81, 82
2, 40120, Note_on_c, 0, 50, 55
2, 40129, Control_c, 0, 64, 0
2, 40179, Control_c, 0, 64, 127
2, 40228, Note_on_c, 0, 81, 0
2, 40260, Note_on_c, 0, 60, 47
2, 40376, Note_on_c, 0, 65, 58
2, 40426, Note_on_c, 0, 50, 0
2, 40430, Note_on_c, 0, 65, 0
2, 40513, Note_on_c, 0, 72, 70
2, 40527, Note_on_c, 0, 60, 0
2, 40557, Note_on_c, 0, 72, 0
2, 40677, Note_on_c, 0, 81, 74
2, 40678, Note_on_c, 0, 51, 42
2, 40689, Control_c, 0, 64, 0
2, 40758, Control_c, 0, 64, 127
2, 40842, Note_on_c, 0, 58, 23
2, 40973, Note_on_c, 0, 81, 0
2, 40994, Note_on_c, 0, 74, 38
2, 41002, Note_on_c, 0, 67, 36
2, 41003, Note_on_c, 0, 69, 36
2, 41011, Note_on_c, 0, 62, 24
2, 41138, Note_on_c, 0, 67, 0
2, 41143, Note_on_c, 0, 69, 0
2, 41172, Note_on_c, 0, 81, 65
2, 41218, Note_on_c, 0, 51, 0
2, 41227, Note_on_c, 0, 74, 0
2, 41232, Note_on_c, 0, 58, 0
2, 41233, Note_on_c, 0, 62, 0
2, 41313, Note_on_c, 0, 81, 0
2, 41371, Note_on_c, 0, 81, 78
2, 41372, Note_on_c, 0, 71, 76
2, 41373, Note_on_c, 0, 76, 74
2, 41379, Control_c, 0, 64, 0
2, 41379, Note_on_c, 0, 65, 66
2, 41432, Control_c, 0, 64, 127
2, 41512, Note_on_c, 0, 81, 0
2, 41530, Note_on_c, 0, 76, 0
2, 41538, Note_on_c, 0, 71, 0
2, 41564, Note_on_c, 0, 79, 62
2, 41567, Note_on_c, 0, 74, 66
2, 41568, Note_on_c, 0, 65, 0
2, 41569, Note_on_c, 0, 71, 62
2, 41572, Note_on_c, 0, 64, 54
2, 41585, Control_c, 0, 64, 0
2, 41623, Control_c, 0, 64, 127
2, 41647, Note_on_c, 0, 79, 0
2, 41650, Note_on_c, 0, 74, 0
2, 41680, Note_on_c, 0, 71, 0
2, 41730, Note_on_c, 0, 64, 0
2, 41735, Note_on_c, 0, 77, 60
2, 41739, Note_on_c, 0, 72, 49
2, 41739, Note_on_c, 0, 69, 56
2, 41743, Note_on_c, 0, 62, 46
2, 41764, Control_c, 0, 64, 0
2, 41787, Control_c, 0, 64, 127
2, 41799, Note_on_c, 0, 72, 0
2, 41825, Note_on_c, 0, 69, 0
2, 41837, Note_on_c, 0, 77, 0
2, 41913, Note_on_c, 0, 75, 52
2, 41916, Note_on_c, 0, 71, 54
2, 41919, Note_on_c, 0, 65, 44
2, 41922, Note_on_c, 0, 62, 0
2, 41928, Control_c, 0, 64, 0
2, 41930, Note_on_c, 0, 59, 33
2, 41973, Control_c, 0, 64, 127
2, 42036, Note_on_c, 0, 71, 0
2, 42043, Note_on_c, 0, 75, 0
2, 42085, Note_on_c, 0, 65, 0
2, 42142, Note_on_c, 0, 59, 0
2, 42153, Note_on_c, 0, 71, 36
2, 42156, Note_on_c, 0, 65, 46
2, 42159, Note_on_c, 0, 74, 50
2, 42160, Note_on_c, 0, 68, 30
2, 42172, Control_c, 0, 64, 0
2, 42182, Note_on_c, 0, 55, 30
2, 42221, Control_c, 0, 64, 127
2, 42260, Note_on_c, 0, 55, 0
2, 42263, Note_on_c, 0, 71, 0
2, 42274, Note_on_c, 0, 74, 0
2, 42275, Note_on_c, 0, 68, 0
2, 42290, Note_on_c, 0, 65, 0
2, 42456, Note_on_c, 0, 58, 42
2, 42456, Note_on_c, 0, 53, 32
2, 42464, Note_on_c, 0, 65, 45
2, 42464, Note_on_c, 0, 62, 44
2, 42484, Control_c, 0, 64, 0
2, 42537, Control_c, 0, 64, 127
2, 42570, Note_on_c, 0, 62, 0
2, 42625, Note_on_c, 0, 58, 0
2, 42655, Note_on_c, 0, 65, 0
2, 42695, Note_on_c, 0, 56, 31
2, 42704, Note_on_c, 0, 62, 46
2, 42706, Note_on_c, 0, 53, 0
2, 42706, Note_on_c, 0, 59, 44
2, 42708, Note_on_c, 0, 43, 38
2, 42766, Note_on_c, 0, 43, 0
2, 42825, Note_on_c, 0, 59, 0
2, 42856, Note_on_c, 0, 62, 0
2, 42861, Note_on_c, 0, 56, 0
2, 43043, Note_on_c, 0, 63, 37
2, 43043, Control_c, 0, 64, 0
2, 43043, Note_on_c, 0, 24, 34
2, 43043, Note_on_c, 0, 55, 33
2, 43043, Note_on_c, 0, 58, 33
2, 43043, Note_on_c, 0, 36, 28
2, 43090, Control_c, 0, 64, 127
2, 43098, Note_on_c, 0, 55, 0
2, 43119, Note_on_c, 0, 24, 0
2, 43124, Note_on_c, 0, 58, 0
2, 43125, Note_on_c, 0, 63, 0
2, 43143, Note_on_c, 0, 36, 0
2, 43479, Note_on_c, 0, 79, 67
2, 43495, Note_on_c, 0, 48, 24
2, 43556, Note_on_c, 0, 79, 0
2, 43635, Note_on_c, 0, 67, 48
2, 43643, Note_on_c, 0, 58, 27
2, 43685, Note_on_c, 0, 48, 0
2, 43703, Note_on_c, 0, 58, 0
2, 43783, Note_on_c, 0, 67, 0
2, 43807, Note_on_c, 0, 77, 63
2, 43813, Note_on_c, 0, 50, 45
2, 43837, Control_c, 0, 64, 0
2, 43886, Control_c, 0, 64, 127
2, 43966, Note_on_c, 0, 65, 50
2, 44090, Note_on_c, 0, 77, 0
2, 44127, Note_on_c, 0, 75, 61
2, 44135, Note_on_c, 0, 60, 38
2, 44224, Note_on_c, 0, 50, 0
2, 44237, Note_on_c, 0, 65, 0
2, 44300, Note_on_c, 0, 50, 16
2, 44308, Note_on_c, 0, 65, 26
2, 44318, Note_on_c, 0, 75, 0
2, 44327, Note_on_c, 0, 65, 0
2, 44337, Note_on_c, 0, 50, 0
2, 44348, Note_on_c, 0, 60, 0
2, 44498, Note_on_c, 0, 74, 48
2, 44502, Note_on_c, 0, 62, 33
2, 44506, Note_on_c, 0, 70, 34
2, 44510, Note_on_c, 0, 67, 29
2, 44514, Note_on_c, 0, 51, 35
2, 44527, Control_c, 0, 64, 0
2, 44618, Control_c, 0, 64, 127
2, 44701, Note_on_c, 0, 58, 23
2, 44723, Note_on_c, 0, 62, 0
2, 44728, Note_on_c, 0, 67, 0
2, 44870, Note_on_c, 0, 62, 37
2, 44871, Note_on_c, 0, 70, 0
2, 44912, Note_on_c, 0, 62, 0
2, 44915, Note_on_c, 0, 74, 0
2, 45057, Note_on_c, 0, 79, 68
2, 45084, Note_on_c, 0, 51, 0
2, 45110, Note_on_c, 0, 58, 0
2, 45152, Note_on_c, 0, 79, 0
2, 45276, Note_on_c, 0, 77, 50
2, 45284, Note_on_c, 0, 70, 42
2, 45288, Note_on_c, 0, 63, 35
2, 45292, Note_on_c, 0, 67, 42
2, 45293, Note_on_c, 0, 53, 22
2, 45296, Control_c, 0, 64, 0
2, 45299, Note_on_c, 0, 58, 25
2, 45339, Control_c, 0, 64, 127
2, 45350, Note_on_c, 0, 67, 0
2, 45363, Note_on_c, 0, 70, 0
2, 45384, Note_on_c, 0, 77, 0
2, 45470, Note_on_c, 0, 89, 66
2, 45471, Note_on_c, 0, 77, 54
2, 45485, Note_on_c, 0, 63, 0
2, 45494, Note_on_c, 0, 60, 36
2, 45504, Note_on_c, 0, 77, 0
2, 45505, Note_on_c, 0, 89, 0
2, 45700, Note_on_c, 0, 60, 0
2, 45710, Note_on_c, 0, 63, 30
2, 45716, Note_on_c, 0, 89, 31
2, 45720, Note_on_c, 0, 101, 63
2, 45856, Note_on_c, 0, 53, 0
2, 45920, Note_on_c, 0, 63, 0
2, 46001, Note_on_c, 0, 101, 0
2, 46038, Note_on_c, 0, 89, 0
2, 46273, Note_on_c, 0, 84, 72
2, 46371, Note_on_c, 0, 58, 0
2, 46424, Note_on_c, 0, 84, 0
2, 46547, Note_on_c, 0, 81, 58
2, 46558, Note_on_c, 0, 46, 31
2, 46573, Control_c, 0, 64, 0
2, 46618, Control_c, 0, 64, 127
2, 46714, Note_on_c, 0, 46, 0
2, 46734, Note_on_c, 0, 57, 35
2, 46874, Note_on_c, 0, 57, 0
2, 46892, Note_on_c, 0, 58, 45
2, 46953, Note_on_c, 0, 81, 0
2, 47026, Note_on_c, 0, 61, 42
2, 47159, Note_on_c, 0, 64, 33
2, 47171, Note_on_c, 0, 69, 47
2, 47173, Note_on_c, 0, 61, 0
2, 47176, Note_on_c, 0, 58, 0
2, 47295, Note_on_c, 0, 69, 0
2, 47304, Note_on_c, 0, 64, 0
2, 47305, Note_on_c, 0, 67, 38
2, 47309, Note_on_c, 0, 73, 39
2, 47431, Note_on_c, 0, 73, 0
2, 47437, Note_on_c, 0, 67, 0
2, 47452, Note_on_c, 0, 76, 47
2, 47455, Note_on_c, 0, 69, 32
2, 47618, Note_on_c, 0, 76, 0
2, 47628, Note_on_c, 0, 82, 48
2, 47632, Note_on_c, 0, 70, 19
2, 47635, Note_on_c, 0, 69, 0
2, 47801, Note_on_c, 0, 82, 0
2, 47803, Note_on_c, 0, 79, 36
2, 47804, Note_on_c, 0, 73, 28
2, 47860, Note_on_c, 0, 70, 0
2, 47937, Note_on_c, 0, 79, 0
2, 47966, Note_on_c, 0, 73, 0
2, 47967, Note_on_c, 0, 88, 57
2, 47971, Note_on_c, 0, 76, 31
2, 48126, Note_on_c, 0, 88, 0
2, 48134, Note_on_c, 0, 79, 35
2, 48135, Note_on_c, 0, 85, 39
2, 48156, Note_on_c, 0, 76, 0
2, 48165, Note_on_c, 0, 85, 0
2, 48309, Note_on_c, 0, 79, 0
2, 48374, Note_on_c, 0, 94, 47
2, 48380, Note_on_c, 0, 82, 37
2, 48541, Note_on_c, 0, 94, 0
2, 48554, Note_on_c, 0, 91, 39
2, 48562, Note_on_c, 0, 82, 0
2, 48564, Note_on_c, 0, 84, 24
2, 48693, Note_on_c, 0, 91, 0
2, 48732, Note_on_c, 0, 103, 44
2, 48740, Note_on_c, 0, 85, 31
2, 48761, Note_on_c, 0, 84, 0
2, 48970, Note_on_c, 0, 103, 0
2, 48975, Note_on_c, 0, 100, 37
2, 48980, Note_on_c, 0, 88, 30
2, 49197, Note_on_c, 0, 88, 0
2, 49321, Note_on_c, 0, 100, 0
2, 49376, Note_on_c, 0, 85, 0
2, 49452, Note_on_c, 0, 74, 83
2, 49622, Control_c, 0, 64, 0
2, 49689, Note_on_c, 0, 46, 33
2, 49692, Note_on_c, 0, 52, 32
2, 49861, Note_on_c, 0, 46, 0
2, 49931, Note_on_c, 0, 46, 33
2, 49933, Note_on_c, 0, 52, 0
2, 49937, Note_on_c, 0, 53, 49
2, 49989, Note_on_c, 0, 74, 0
2, 50017, Note_on_c, 0, 72, 60
2, 50062, Note_on_c, 0, 72, 0
2, 50071, Note_on_c, 0, 70, 50
2, 50131, Note_on_c, 0, 70, 0
2, 50147, Note_on_c, 0, 69, 54
2, 50186, Note_on_c, 0, 69, 0
2, 50250, Note_on_c, 0, 67, 56
2, 50328, Note_on_c, 0, 46, 0
2, 50370, Note_on_c, 0, 67, 0
2, 50395, Note_on_c, 0, 53, 0
2, 50403, Note_on_c, 0, 66, 49
2, 50407, Note_on_c, 0, 62, 44
2, 50408, Note_on_c, 0, 54, 33
2, 50409, Note_on_c, 0, 46, 28
2, 50439, Control_c, 0, 64, 127
2, 50531, Note_on_c, 0, 62, 0
2, 50571, Note_on_c, 0, 66, 0
2, 50642, Note_on_c, 0, 66, 52
2, 50643, Note_on_c, 0, 74, 62
2, 50646, Note_on_c, 0, 62, 58
2, 50647, Note_on_c, 0, 57, 56
2, 50648, Note_on_c, 0, 69, 55
2, 50666, Control_c, 0, 64, 0
2, 50688, Note_on_c, 0, 69, 0
2, 50690, Note_on_c, 0, 66, 0
2, 50691, Note_on_c, 0, 57, 0
2, 50693, Note_on_c, 0, 62, 0
2, 50696, Note_on_c, 0, 74, 0
2, 50714, Note_on_c, 0, 74, 46
2, 50717, Note_on_c, 0, 66, 42
2, 50718, Note_on_c, 0, 62, 48
2, 50721, Note_on_c, 0, 57, 45
2, 50721, Note_on_c, 0, 69, 45
2, 50743, Note_on_c, 0, 69, 0
2, 50744, Note_on_c, 0, 66, 0
2, 50749, Note_on_c, 0, 62, 0
2, 50769, Note_on_c, 0, 66, 28
2, 50771, Note_on_c, 0, 62, 20
2, 50772, Note_on_c, 0, 69, 43
2, 50796, Note_on_c, 0, 57, 0
2, 50798, Note_on_c, 0, 69, 0
2, 50800, Control_c, 0, 64, 127
2, 50805, Note_on_c, 0, 66, 0
2, 50805, Note_on_c, 0, 62, 0
2, 50809, Note_on_c, 0, 74, 0
2, 50809, Control_c, 0, 64, 0
2, 50816, Note_on_c, 0, 46, 0
2, 50818, Note_on_c, 0, 54, 0
2, 50838, Note_on_c, 0, 74, 57
2, 50838, Note_on_c, 0, 54, 25
2, 50840, Note_on_c, 0, 46, 32
2, 50840, Note_on_c, 0, 66, 53
2, 50841, Note_on_c, 0, 62, 61
2, 50845, Note_on_c, 0, 57, 39
2, 50847, Note_on_c, 0, 69, 42
2, 50858, Note_on_c, 0, 57, 0
2, 50861, Note_on_c, 0, 69, 0
2, 50863, Note_on_c, 0, 62, 0
2, 50864, Note_on_c, 0, 66, 0
2, 50867, Note_on_c, 0, 74, 0
2, 50869, Note_on_c, 0, 54, 0
2, 50876, Note_on_c, 0, 46, 0
2, 50956, Note_on_c, 0, 72, 59
2, 50956, Note_on_c, 0, 46, 50
2, 50957, Note_on_c, 0, 67, 68
2, 50958, Note_on_c, 0, 62, 62
2, 50960, Note_on_c, 0, 55, 48
2, 50970, Note_on_c, 0, 62, 0
2, 50973, Note_on_c, 0, 55, 0
2, 50974, Note_on_c, 0, 67, 0
2, 50981, Note_on_c, 0, 72, 0
2, 50985, Note_on_c, 0, 46, 0
2, 51069, Note_on_c, 0, 46, 45
2, 51070, Note_on_c, 0, 70, 62
2, 51071, Note_on_c, 0, 67, 62
2, 51072, Note_on_c, 0, 55, 49
2, 51073, Note_on_c, 0, 62, 59
2, 51106, Note_on_c, 0, 67, 0
2, 51115, Note_on_c, 0, 62, 0
2, 51122, Control_c, 0, 64, 127
2, 51145, Note_on_c, 0, 70, 0
2, 51151, Note_on_c, 0, 55, 0
2, 51152, Note_on_c, 0, 69, 59
2, 51162, Note_on_c, 0, 62, 14
2, 51204, Note_on_c, 0, 69, 0
2, 51220, Note_on_c, 0, 62, 0
2, 51222, Control_c, 0, 64, 0
2, 51244, Note_on_c, 0, 67, 58
2, 51245, Note_on_c, 0, 62, 33
2, 51253, Control_c, 0, 64, 127
2, 51271, Note_on_c, 0, 67, 0
2, 51285, Note_on_c, 0, 62, 0
2, 51299, Note_on_c, 0, 46, 0
2, 51369, Note_on_c, 0, 46, 31
2, 51370, Note_on_c, 0, 60, 36
2, 51371, Note_on_c, 0, 63, 32
2, 51373, Control_c, 0, 64, 0
2, 51374, Note_on_c, 0, 56, 25
2, 51436, Control_c, 0, 64, 127
2, 51452, Note_on_c, 0, 60, 0
2, 51454, Note_on_c, 0, 46, 0
2, 51466, Note_on_c, 0, 56, 0
2, 51467, Note_on_c, 0, 63, 0
2, 51678, Note_on_c, 0, 56, 36
2, 51678, Note_on_c, 0, 84, 58
2, 51679, Note_on_c, 0, 67, 50
2, 51679, Note_on_c, 0, 72, 40
2, 51680, Note_on_c, 0, 80, 35
2, 51680, Note_on_c, 0, 77, 49
2, 51682, Note_on_c, 0, 63, 42
2, 51686, Note_on_c, 0, 60, 50
2, 51700, Note_on_c, 0, 72, 0
2, 51701, Note_on_c, 0, 60, 0
2, 51702, Note_on_c, 0, 77, 0
2, 51702, Control_c, 0, 64, 0
2, 51704, Note_on_c, 0, 67, 0
2, 51704, Note_on_c, 0, 84, 0
2, 51707, Note_on_c, 0, 80, 0
2, 51710, Note_on_c, 0, 63, 0
2, 51711, Note_on_c, 0, 56, 0
2, 51764, Note_on_c, 0, 84, 63
2, 51764, Note_on_c, 0, 72, 48
2, 51765, Note_on_c, 0, 67, 49
2, 51765, Note_on_c, 0, 80, 37
2, 51766, Note_on_c, 0, 56, 34
2, 51766, Note_on_c, 0, 63, 37
2, 51766, Note_on_c, 0, 77, 41
2, 51770, Note_on_c, 0, 60, 48
2, 51786, Note_on_c, 0, 72, 0
2, 51789, Note_on_c, 0, 67, 0
2, 51792, Note_on_c, 0, 77, 0
2, 51793, Note_on_c, 0, 60, 0
2, 51793, Note_on_c, 0, 84, 0
2, 51794, Note_on_c, 0, 80, 0
2, 51795, Note_on_c, 0, 56, 0
2, 51800, Note_on_c, 0, 63, 0
2, 51836, Control_c, 0, 64, 127
2, 51851, Note_on_c, 0, 84, 58
2, 51853, Note_on_c, 0, 80, 37
2, 51853, Note_on_c, 0, 56, 38
2, 51854, Note_on_c, 0, 77, 51
2, 51855, Note_on_c, 0, 67, 43
2, 51855, Note_on_c, 0, 72, 34
2, 51860, Note_on_c, 0, 63, 31
2, 51863, Note_on_c, 0, 60, 45
2, 51940, Note_on_c, 0, 84, 0
2, 51947, Note_on_c, 0, 80, 0
2, 51956, Note_on_c, 0, 72, 0
2, 51960, Note_on_c, 0, 77, 0
2, 51964, Note_on_c, 0, 82, 46
2, 51979, Note_on_c, 0, 67, 0
2, 51979, Note_on_c, 0, 60, 0
2, 51981, Note_on_c, 0, 63, 0
2, 51986, Note_on_c, 0, 56, 0
2, 52001, Note_on_c, 0, 82, 0
2, 52035, Note_on_c, 0, 80, 68
2, 52036, Note_on_c, 0, 56, 49
2, 52036, Note_on_c, 0, 67, 59
2, 52039, Note_on_c, 0, 63, 42
2, 52043, Note_on_c, 0, 60, 54
2, 52066, Control_c, 0, 64, 0
2, 52076, Note_on_c, 0, 80, 0
2, 52106, Note_on_c, 0, 79, 33
2, 52175, Note_on_c, 0, 79, 0
2, 52175, Note_on_c, 0, 77, 50
2, 52187, Note_on_c, 0, 67, 0
2, 52191, Control_c, 0, 64, 127
2, 52199, Note_on_c, 0, 60, 0
2, 52207, Note_on_c, 0, 63, 0
2, 52215, Note_on_c, 0, 56, 0
2, 52234, Note_on_c, 0, 77, 0
2, 52327, Note_on_c, 0, 68, 34
2, 52331, Note_on_c, 0, 63, 37
2, 52332, Note_on_c, 0, 87, 56
2, 52335, Note_on_c, 0, 57, 43
2, 52336, Note_on_c, 0, 75, 38
2, 52340, Control_c, 0, 64, 0
2, 52360, Control_c, 0, 64, 127
2, 52482, Note_on_c, 0, 75, 0
2, 52482, Note_on_c, 0, 87, 0
2, 52485, Note_on_c, 0, 57, 0
2, 52487, Note_on_c, 0, 63, 0
2, 52499, Note_on_c, 0, 68, 0
2, 52568, Note_on_c, 0, 89, 54
2, 52572, Note_on_c, 0, 77, 33
2, 52573, Note_on_c, 0, 68, 30
2, 52575, Control_c, 0, 64, 0
2, 52576, Note_on_c, 0, 57, 39
2, 52584, Note_on_c, 0, 63, 29
2, 52604, Control_c, 0, 64, 127
2, 52696, Note_on_c, 0, 57, 0
2, 52702, Note_on_c, 0, 68, 0
2, 52743, Note_on_c, 0, 63, 0
2, 52801, Note_on_c, 0, 56, 34
2, 52804, Note_on_c, 0, 67, 35
2, 52808, Control_c, 0, 64, 0
2, 52815, Note_on_c, 0, 62, 40
2, 52910, Control_c, 0, 64, 127
2, 52944, Note_on_c, 0, 89, 0
2, 52953, Note_on_c, 0, 67, 0
2, 52953, Note_on_c, 0, 77, 0
2, 52961, Note_on_c, 0, 56, 0
2, 52969, Note_on_c, 0, 62, 0
2, 53008, Note_on_c, 0, 56, 62
2, 53009, Note_on_c, 0, 66, 64
2, 53012, Note_on_c, 0, 90, 73
2, 53013, Note_on_c, 0, 78, 73
2, 53013, Note_on_c, 0, 62, 53
2, 53023, Control_c, 0, 64, 0
2, 53049, Note_on_c, 0, 66, 0
2, 53057, Note_on_c, 0, 78, 0
2, 53057, Note_on_c, 0, 90, 0
2, 53064, Control_c, 0, 64, 127
2, 53070, Note_on_c, 0, 66, 55
2, 53080, Note_on_c, 0, 91, 62
2, 53081, Note_on_c, 0, 79, 55
2, 53120, Note_on_c, 0, 79, 0
2, 53120, Note_on_c, 0, 91, 0
2, 53126, Note_on_c, 0, 66, 0
2, 53129, Note_on_c, 0, 56, 0
2, 53157, Control_c, 0, 64, 0
2, 53167, Note_on_c, 0, 56, 52
2, 53167, Note_on_c, 0, 66, 48
2, 53170, Note_on_c, 0, 92, 73
2, 53174, Note_on_c, 0, 80, 48
2, 53180, Control_c, 0, 64, 127
2, 53216, Note_on_c, 0, 92, 0
2, 53218, Note_on_c, 0, 66, 0
2, 53226, Note_on_c, 0, 56, 0
2, 53234, Note_on_c, 0, 80, 0
2, 53256, Control_c, 0, 64, 0
2, 53257, Note_on_c, 0, 91, 62
2, 53259, Note_on_c, 0, 79, 48
2, 53261, Note_on_c, 0, 65, 34
2, 53263, Note_on_c, 0, 55, 50
2, 53263, Note_on_c, 0, 86, 57
2, 53267, Note_on_c, 0, 60, 35
2, 53326, Control_c, 0, 64, 127
2, 53388, Note_on_c, 0, 65, 0
2, 53390, Note_on_c, 0, 60, 0
2, 53395, Note_on_c, 0, 62, 0
2, 53395, Note_on_c, 0, 86, 0
2, 53399, Note_on_c, 0, 91, 0
2, 53407, Note_on_c, 0, 55, 0
2, 53425, Note_on_c, 0, 79, 0
2, 53529, Note_on_c, 0, 51, 37
2, 53539, Note_on_c, 0, 59, 32
2, 53552, Control_c, 0, 64, 0
2, 53704, Note_on_c, 0, 51, 0
2, 53727, Note_on_c, 0, 59, 0
2, 53729, Note_on_c, 0, 51, 28
2, 53737, Note_on_c, 0, 60, 40
2, 53845, Note_on_c, 0, 77, 73
2, 53882, Note_on_c, 0, 77, 0
2, 53897, Note_on_c, 0, 75, 59
2, 53966, Note_on_c, 0, 60, 0
2, 53980, Note_on_c, 0, 75, 0
2, 53988, Note_on_c, 0, 51, 0
2, 54002, Note_on_c, 0, 51, 18
2, 54008, Note_on_c, 0, 74, 63
2, 54015, Note_on_c, 0, 59, 26
2, 54063, Note_on_c, 0, 74, 0
2, 54078, Note_on_c, 0, 75, 34
2, 54096, Note_on_c, 0, 74, 39
2, 54112, Note_on_c, 0, 75, 0
2, 54133, Note_on_c, 0, 72, 20
2, 54140, Note_on_c, 0, 74, 0
2, 54190, Note_on_c, 0, 51, 0
2, 54227, Note_on_c, 0, 72, 0
2, 54229, Note_on_c, 0, 59, 0
2, 54251, Note_on_c, 0, 51, 21
2, 54254, Note_on_c, 0, 58, 28
2, 54414, Note_on_c, 0, 51, 0
2, 54429, Note_on_c, 0, 58, 0
2, 54485, Note_on_c, 0, 78, 64
2, 54486, Note_on_c, 0, 70, 63
2, 54490, Note_on_c, 0, 73, 30
2, 54492, Note_on_c, 0, 65, 53
2, 54503, Note_on_c, 0, 73, 0
2, 54503, Note_on_c, 0, 70, 0
2, 54514, Note_on_c, 0, 65, 0
2, 54518, Note_on_c, 0, 78, 0
2, 54727, Note_on_c, 0, 78, 70
2, 54729, Note_on_c, 0, 66, 76
2, 54730, Note_on_c, 0, 70, 65
2, 54732, Note_on_c, 0, 65, 65
2, 54733, Note_on_c, 0, 73, 34
2, 54751, Note_on_c, 0, 66, 0
2, 54768, Note_on_c, 0, 70, 0
2, 54771, Note_on_c, 0, 65, 0
2, 54772, Note_on_c, 0, 78, 0
2, 54777, Note_on_c, 0, 73, 0
2, 54807, Note_on_c, 0, 78, 58
2, 54813, Note_on_c, 0, 66, 33
2, 54814, Note_on_c, 0, 70, 43
2, 54815, Note_on_c, 0, 65, 47
2, 54821, Note_on_c, 0, 73, 20
2, 54825, Note_on_c, 0, 65, 0
2, 54831, Note_on_c, 0, 66, 0
2, 54833, Note_on_c, 0, 70, 0
2, 54836, Note_on_c, 0, 73, 0
2, 54844, Note_on_c, 0, 78, 0
2, 54864, Note_on_c, 0, 77, 62
2, 54903, Note_on_c, 0, 77, 0
2, 54930, Note_on_c, 0, 75, 69
2, 54931, Note_on_c, 0, 58, 49
2, 54932, Note_on_c, 0, 48, 48
2, 54942, Note_on_c, 0, 48, 0
2, 54954, Note_on_c, 0, 58, 0
2, 54966, Note_on_c, 0, 75, 0
2, 55003, Note_on_c, 0, 73, 30
2, 55062, Note_on_c, 0, 73, 0
2, 55065, Note_on_c, 0, 51, 39
2, 55070, Note_on_c, 0, 62, 34
2, 55086, Note_on_c, 0, 72, 44
2, 55087, Note_on_c, 0, 62, 0
2, 55088, Note_on_c, 0, 51, 0
2, 55183, Note_on_c, 0, 72, 0
2, 55205, Note_on_c, 0, 73, 47
2, 55210, Note_on_c, 0, 65, 40
2, 55218, Note_on_c, 0, 62, 36
2, 55222, Note_on_c, 0, 60, 40
2, 55230, Note_on_c, 0, 73, 0
2, 55234, Note_on_c, 0, 74, 49
2, 55272, Note_on_c, 0, 74, 0
2, 55289, Note_on_c, 0, 65, 0
2, 55292, Note_on_c, 0, 74, 65
2, 55320, Note_on_c, 0, 74, 0
2, 55344, Note_on_c, 0, 74, 48
2, 55353, Note_on_c, 0, 62, 0
2, 55354, Note_on_c, 0, 60, 0
2, 55380, Note_on_c, 0, 74, 0
2, 55409, Note_on_c, 0, 74, 74
2, 55436, Note_on_c, 0, 74, 0
2, 55464, Note_on_c, 0, 51, 32
2, 55471, Note_on_c, 0, 58, 35
2, 55473, Note_on_c, 0, 55, 41
2, 55474, Note_on_c, 0, 73, 21
2, 55480, Note_on_c, 0, 74, 69
2, 55512, Note_on_c, 0, 73, 0
2, 55551, Note_on_c, 0, 62, 1
2, 55557, Note_on_c, 0, 74, 0
2, 55568, Note_on_c, 0, 70, 47
2, 55579, Note_on_c, 0, 55, 0
2, 55612, Note_on_c, 0, 62, 0
2, 55628, Note_on_c, 0, 51, 0
2, 55632, Note_on_c, 0, 70, 0
2, 55637, Note_on_c, 0, 58, 0
2, 55683, Note_on_c, 0, 78, 60
2, 55688, Note_on_c, 0, 69, 61
2, 55690, Note_on_c, 0, 50, 36
2, 55690, Note_on_c, 0, 60, 44
2, 55692, Note_on_c, 0, 81, 55
2, 55693, Control_c, 0, 64, 127
2, 55695, Note_on_c, 0, 57, 43
2, 55723, Note_on_c, 0, 78, 0
2, 55811, Note_on_c, 0, 57, 0
2, 55814, Note_on_c, 0, 50, 0
2, 55836, Note_on_c, 0, 60, 0
2, 55861, Note_on_c, 0, 81, 0
2, 55874, Note_on_c, 0, 69, 0
2, 55927, Note_on_c, 0, 77, 38
2, 55929, Note_on_c, 0, 72, 38
2, 55930, Note_on_c, 0, 64, 40
2, 55933, Note_on_c, 0, 65, 42
2, 55934, Note_on_c, 0, 53, 24
2, 55934, Note_on_c, 0, 59, 49
2, 55946, Control_c, 0, 64, 0
2, 56024, Control_c, 0, 64, 127
2, 56044, Note_on_c, 0, 53, 0
2, 56045, Note_on_c, 0, 59, 0
2, 56057, Note_on_c, 0, 64, 0
2, 56066, Note_on_c, 0, 72, 0
2, 56067, Note_on_c, 0, 77, 0
2, 56072, Note_on_c, 0, 65, 0
2, 56162, Note_on_c, 0, 74, 80
2, 56164, Control_c, 0, 64, 0
2, 56167, Note_on_c, 0, 67, 85
2, 56171, Note_on_c, 0, 63, 48
2, 56172, Note_on_c, 0, 58, 49
2, 56174, Note_on_c, 0, 62, 63
2, 56210, Control_c, 0, 64, 127
2, 56236, Note_on_c, 0, 74, 0
2, 56250, Note_on_c, 0, 62, 0
2, 56255, Note_on_c, 0, 72, 28
2, 56259, Note_on_c, 0, 67, 0
2, 56259, Note_on_c, 0, 63, 0
2, 56271, Note_on_c, 0, 58, 0
2, 56275, Note_on_c, 0, 72, 0
2, 56294, Note_on_c, 0, 74, 60
2, 56302, Note_on_c, 0, 72, 36
2, 56333, Note_on_c, 0, 74, 0
2, 56341, Note_on_c, 0, 72, 0
2, 56411, Control_c, 0, 64, 0
2, 56412, Note_on_c, 0, 65, 34
2, 56413, Note_on_c, 0, 50, 34
2, 56413, Note_on_c, 0, 57, 43
2, 56449, Note_on_c, 0, 60, 18
2, 56527, Control_c, 0, 64, 127
2, 56532, Note_on_c, 0, 50, 0
2, 56537, Note_on_c, 0, 57, 0
2, 56554, Note_on_c, 0, 60, 0
2, 56611, Note_on_c, 0, 65, 0
2, 56638, Control_c, 0, 64, 0
2, 56646, Note_on_c, 0, 51, 37
2, 56650, Note_on_c, 0, 62, 34
2, 56651, Note_on_c, 0, 67, 47
2, 56657, Note_on_c, 0, 58, 29
2, 56696, Control_c, 0, 64, 127
2, 56732, Note_on_c, 0, 62, 0
2, 56736, Note_on_c, 0, 67, 0
2, 56739, Note_on_c, 0, 51, 0
2, 56752, Note_on_c, 0, 58, 0
2, 56844, Note_on_c, 0, 63, 49
2, 56847, Note_on_c, 0, 60, 48
2, 56849, Note_on_c, 0, 53, 36
2, 56854, Note_on_c, 0, 58, 34
2, 56856, Control_c, 0, 64, 0
2, 56899, Control_c, 0, 64, 127
2, 56987, Note_on_c, 0, 60, 0
2, 56988, Note_on_c, 0, 53, 0
2, 56995, Note_on_c, 0, 58, 0
2, 56997, Note_on_c, 0, 63, 0
2, 57129, Note_on_c, 0, 64, 35
2, 57130, Note_on_c, 0, 57, 36
2, 57137, Note_on_c, 0, 61, 31
2, 57138, Control_c, 0, 64, 0
2, 57256, Note_on_c, 0, 85, 75
2, 57277, Note_on_c, 0, 85, 0
2, 57335, Note_on_c, 0, 88, 80
2, 57359, Note_on_c, 0, 88, 0
2, 57382, Note_on_c, 0, 64, 0
2, 57384, Note_on_c, 0, 61, 0
2, 57395, Note_on_c, 0, 85, 55
2, 57414, Note_on_c, 0, 85, 0
2, 57484, Control_c, 0, 64, 127
2, 57489, Note_on_c, 0, 57, 0
2, 57567, Note_on_c, 0, 86, 90
2, 57571, Note_on_c, 0, 65, 44
2, 57576, Note_on_c, 0, 60, 41
2, 57576, Note_on_c, 0, 62, 47
2, 57589, Control_c, 0, 64, 0
2, 57591, Note_on_c, 0, 86, 0
2, 57649, Note_on_c, 0, 89, 77
2, 57661, Note_on_c, 0, 65, 0
2, 57678, Note_on_c, 0, 89, 0
2, 57727, Note_on_c, 0, 53, 51
2, 57731, Control_c, 0, 64, 127
2, 57734, Note_on_c, 0, 86, 80
2, 57743, Control_c, 0, 64, 0
2, 57754, Note_on_c, 0, 86, 0
2, 57809, Note_on_c, 0, 60, 0
2, 57814, Note_on_c, 0, 62, 0
2, 57839, Control_c, 0, 64, 127
2, 57942, Note_on_c, 0, 53, 0
2, 57961, Control_c, 0, 64, 0
2, 57963, Note_on_c, 0, 90, 79
2, 57998, Note_on_c, 0, 90, 0
2, 58043, Note_on_c, 0, 66, 59
2, 58045, Note_on_c, 0, 93, 92
2, 58048, Note_on_c, 0, 57, 44
2, 58053, Note_on_c, 0, 62, 44
2, 58064, Note_on_c, 0, 57, 0
2, 58071, Note_on_c, 0, 66, 0
2, 58076, Note_on_c, 0, 93, 0
2, 58089, Note_on_c, 0, 62, 0
2, 58112, Note_on_c, 0, 90, 56
2, 58152, Note_on_c, 0, 90, 0
2, 58197, Control_c, 0, 64, 127
2, 58280, Note_on_c, 0, 66, 60
2, 58291, Note_on_c, 0, 62, 35
2, 58296, Note_on_c, 0, 66, 0
2, 58306, Note_on_c, 0, 62, 0
2, 58307, Control_c, 0, 64, 0
2, 58401, Note_on_c, 0, 81, 45
2, 58417, Note_on_c, 0, 81, 0
2, 58432, Control_c, 0, 64, 127
2, 58453, Note_on_c, 0, 86, 48
2, 58466, Note_on_c, 0, 86, 0
2, 58524, Note_on_c, 0, 93, 90
2, 58530, Note_on_c, 0, 62, 53
2, 58554, Note_on_c, 0, 93, 0
2, 58563, Control_c, 0, 64, 0
2, 58575, Note_on_c, 0, 89, 66
2, 58577, Note_on_c, 0, 55, 49
2, 58582, Note_on_c, 0, 60, 31
2, 58635, Note_on_c, 0, 60, 0
2, 58638, Note_on_c, 0, 89, 0
2, 58648, Note_on_c, 0, 55, 0
2, 58681, Note_on_c, 0, 62, 0
2, 58753, Note_on_c, 0, 65, 47
2, 58759, Note_on_c, 0, 62, 32
2, 58767, Note_on_c, 0, 60, 37
2, 58767, Note_on_c, 0, 55, 40
2, 58773, Note_on_c, 0, 65, 0
2, 58783, Note_on_c, 0, 55, 0
2, 58784, Note_on_c, 0, 60, 0
2, 58797, Note_on_c, 0, 84, 83
2, 58804, Control_c, 0, 64, 127
2, 58809, Note_on_c, 0, 62, 0
2, 58813, Control_c, 0, 64, 0
2, 58851, Control_c, 0, 64, 127
2, 58852, Note_on_c, 0, 84, 0
2, 58871, Control_c, 0, 64, 0
2, 58872, Note_on_c, 0, 82, 63
2, 58875, Note_on_c, 0, 62, 54
2, 58880, Note_on_c, 0, 65, 41
2, 58884, Note_on_c, 0, 60, 38
2, 58893, Note_on_c, 0, 65, 0
2, 58905, Note_on_c, 0, 82, 0
2, 58905, Note_on_c, 0, 62, 0
2, 58912, Note_on_c, 0, 60, 0
2, 58921, Control_c, 0, 64, 127
2, 58934, Note_on_c, 0, 81, 33
2, 58988, Note_on_c, 0, 81, 0
2, 59001, Note_on_c, 0, 79, 60
2, 59023, Note_on_c, 0, 79, 0
2, 59037, Control_c, 0, 64, 0
2, 59042, Note_on_c, 0, 63, 35
2, 59044, Note_on_c, 0, 56, 30
2, 59046, Note_on_c, 0, 67, 30
2, 59049, Note_on_c, 0, 80, 53
2, 59051, Note_on_c, 0, 60, 46
2, 59113, Note_on_c, 0, 80, 0
2, 59122, Note_on_c, 0, 84, 73
2, 59149, Note_on_c, 0, 84, 0
2, 59155, Note_on_c, 0, 67, 0
2, 59162, Control_c, 0, 64, 127
2, 59166, Note_on_c, 0, 56, 0
2, 59168, Note_on_c, 0, 60, 0
2, 59173, Note_on_c, 0, 77, 39
2, 59174, Control_c, 0, 64, 0
2, 59175, Note_on_c, 0, 63, 0
2, 59245, Note_on_c, 0, 77, 0
2, 59275, Note_on_c, 0, 72, 33
2, 59278, Control_c, 0, 64, 127
2, 59356, Note_on_c, 0, 72, 0
2, 59378, Control_c, 0, 64, 0
2, 59405, Note_on_c, 0, 68, 42
2, 59482, Note_on_c, 0, 68, 0
2, 59492, Note_on_c, 0, 67, 40
2, 59505, Note_on_c, 0, 67, 0
2, 59532, Note_on_c, 0, 68, 50
2, 59544, Note_on_c, 0, 63, 30
2, 59545, Note_on_c, 0, 56, 29
2, 59548, Note_on_c, 0, 60, 25
2, 59570, Note_on_c, 0, 60, 0
2, 59577, Note_on_c, 0, 56, 0
2, 59579, Note_on_c, 0, 63, 0
2, 59579, Note_on_c, 0, 68, 0
2, 59603, Note_on_c, 0, 70, 33
2, 59618, Note_on_c, 0, 68, 35
2, 59639, Note_on_c, 0, 70, 0
2, 59654, Note_on_c, 0, 68, 0
2, 59655, Note_on_c, 0, 67, 33
2, 59718, Note_on_c, 0, 67, 0
2, 59732, Note_on_c, 0, 66, 45
2, 59760, Note_on_c, 0, 66, 0
2, 59770, Control_c, 0, 64, 127
2, 59773, Control_c, 0, 64, 0
2, 59773, Note_on_c, 0, 67, 51
2, 59846, Note_on_c, 0, 68, 53
2, 59846, Note_on_c, 0, 63, 31
2, 59847, Note_on_c, 0, 67, 0
2, 59853, Note_on_c, 0, 56, 21
2, 59870, Note_on_c, 0, 63, 0
2, 59876, Note_on_c, 0, 56, 0
2, 59877, Note_on_c, 0, 68, 0
2, 59900, Note_on_c, 0, 69, 36
2, 59950, Note_on_c, 0, 69, 0
2, 59968, Note_on_c, 0, 70, 63
2, 59971, Note_on_c, 0, 68, 43
2, 59974, Note_on_c, 0, 57, 41
2, 59975, Note_on_c, 0, 63, 38
2, 60002, Note_on_c, 0, 70, 0
2, 60026, Note_on_c, 0, 68, 0
2, 60026, Note_on_c, 0, 71, 53
2, 60053, Note_on_c, 0, 63, 0
2, 60079, Note_on_c, 0, 71, 0
2, 60087, Note_on_c, 0, 63, 18
2, 60087, Note_on_c, 0, 72, 43
2, 60108, Note_on_c, 0, 57, 0
2, 60120, Note_on_c, 0, 63, 0
2, 60124, Note_on_c, 0, 72, 0
2, 60141, Note_on_c, 0, 74, 52
2, 60182, Note_on_c, 0, 74, 0
2, 60201, Note_on_c, 0, 63, 51
2, 60202, Note_on_c, 0, 75, 70
2, 60204, Note_on_c, 0, 68, 43
2, 60211, Note_on_c, 0, 57, 35
2, 60217, Note_on_c, 0, 68, 0
2, 60230, Note_on_c, 0, 57, 0
2, 60234, Note_on_c, 0, 63, 0
2, 60235, Note_on_c, 0, 75, 0
2, 60262, Note_on_c, 0, 77, 40
2, 60300, Note_on_c, 0, 77, 0
2, 60322, Note_on_c, 0, 78, 57
2, 60323, Note_on_c, 0, 68, 49
2, 60323, Note_on_c, 0, 63, 45
2, 60324, Note_on_c, 0, 57, 46
2, 60339, Note_on_c, 0, 78, 0
2, 60340, Note_on_c, 0, 57, 0
2, 60352, Note_on_c, 0, 68, 0
2, 60355, Control_c, 0, 64, 127
2, 60372, Note_on_c, 0, 63, 0
2, 60379, Note_on_c, 0, 79, 41
2, 60418, Note_on_c, 0, 79, 0
2, 60430, Control_c, 0, 64, 0
2, 60445, Note_on_c, 0, 63, 47
2, 60446, Note_on_c, 0, 67, 66
2, 60450, Note_on_c, 0, 80, 60
2, 60450, Note_on_c, 0, 56, 37
2, 60455, Note_on_c, 0, 60, 48
2, 60485, Control_c, 0, 64, 127
2, 60587, Note_on_c, 0, 80, 0
2, 60594, Note_on_c, 0, 60, 0
2, 60616, Note_on_c, 0, 67, 0
2, 60620, Note_on_c, 0, 56, 0
2, 60635, Note_on_c, 0, 63, 0
2, 60689, Note_on_c, 0, 82, 75
2, 60696, Note_on_c, 0, 63, 43
2, 60698, Note_on_c, 0, 67, 47
2, 60706, Control_c, 0, 64, 0
2, 60711, Note_on_c, 0, 67, 0
2, 60719, Note_on_c, 0, 82, 0
2, 60735, Note_on_c, 0, 80, 55
2, 60740, Note_on_c, 0, 63, 0
2, 60757, Note_on_c, 0, 80, 0
2, 60821, Note_on_c, 0, 85, 80
2, 60822, Note_on_c, 0, 73, 49
2, 60825, Note_on_c, 0, 62, 61
2, 60828, Note_on_c, 0, 75, 38
2, 60830, Note_on_c, 0, 56, 29
2, 60837, Note_on_c, 0, 75, 0
2, 60838, Note_on_c, 0, 62, 0
2, 60839, Note_on_c, 0, 73, 0
2, 60843, Note_on_c, 0, 85, 0
2, 60843, Note_on_c, 0, 56, 0
2, 60863, Control_c, 0, 64, 127
2, 60877, Note_on_c, 0, 56, 40
2, 60879, Note_on_c, 0, 86, 68
2, 60879, Note_on_c, 0, 66, 36
2, 60881, Note_on_c, 0, 74, 48
2, 60881, Control_c, 0, 64, 0
2, 60889, Note_on_c, 0, 86, 0
2, 60892, Note_on_c, 0, 66, 0
2, 60895, Note_on_c, 0, 74, 0
2, 60898, Control_c, 0, 64, 127
2, 60902, Note_on_c, 0, 56, 0
2, 60939, Control_c, 0, 64, 0
2, 60943, Note_on_c, 0, 66, 56
2, 60945, Note_on_c, 0, 56, 40
2, 60948, Note_on_c, 0, 87, 55
2, 60948, Note_on_c, 0, 75, 61
2, 60953, Note_on_c, 0, 62, 32
2, 60958, Note_on_c, 0, 75, 0
2, 60958, Note_on_c, 0, 87, 0
2, 60968, Note_on_c, 0, 66, 0
2, 60979, Note_on_c, 0, 56, 0
2, 61003, Note_on_c, 0, 65, 46
2, 61005, Note_on_c, 0, 90, 57
2, 61005, Note_on_c, 0, 75, 51
2, 61013, Note_on_c, 0, 55, 39
2, 61024, Note_on_c, 0, 90, 0
2, 61025, Note_on_c, 0, 91, 62
2, 61026, Note_on_c, 0, 75, 0
2, 61041, Note_on_c, 0, 76, 16
2, 61055, Note_on_c, 0, 91, 0
2, 61057, Note_on_c, 0, 76, 0
2, 61059, Note_on_c, 0, 55, 0
2, 61060, Note_on_c, 0, 65, 0
2, 61073, Note_on_c, 0, 62, 0
2, 61094, Note_on_c, 0, 65, 48
2, 61099, Note_on_c, 0, 86, 66
2, 61102, Note_on_c, 0, 62, 25
2, 61103, Note_on_c, 0, 55, 36
2, 61103, Note_on_c, 0, 74, 60
2, 61120, Note_on_c, 0, 65, 0
2, 61121, Note_on_c, 0, 55, 0
2, 61126, Note_on_c, 0, 62, 0
2, 61130, Note_on_c, 0, 74, 0
2, 61131, Note_on_c, 0, 86, 0
2, 61210, Note_on_c, 0, 82, 58
2, 61213, Note_on_c, 0, 65, 40
2, 61213, Note_on_c, 0, 70, 45
2, 61216, Note_on_c, 0, 62, 36
2, 61217, Note_on_c, 0, 55, 40
2, 61220, Note_on_c, 0, 60, 44
2, 61230, Control_c, 0, 64, 127
2, 61287, Note_on_c, 0, 82, 0
2, 61291, Note_on_c, 0, 70, 0
2, 61306, Note_on_c, 0, 79, 36
2, 61344, Note_on_c, 0, 60, 0
2, 61346, Note_on_c, 0, 79, 0
2, 61347, Note_on_c, 0, 55, 0
2, 61348, Note_on_c, 0, 65, 0
2, 61357, Note_on_c, 0, 62, 0
2, 61401, Control_c, 0, 64, 0
2, 61411, Note_on_c, 0, 82, 62
2, 61413, Note_on_c, 0, 70, 69
2, 61415, Note_on_c, 0, 65, 57
2, 61415, Note_on_c, 0, 62, 57
2, 61425, Note_on_c, 0, 65, 0
2, 61428, Note_on_c, 0, 62, 0
2, 61430, Note_on_c, 0, 70, 0
2, 61435, Note_on_c, 0, 82, 0
2, 61529, Note_on_c, 0, 51, 37
2, 61533, Note_on_c, 0, 58, 40
2, 61533, Note_on_c, 0, 62, 49
2, 61542, Note_on_c, 0, 55, 30
2, 61546, Note_on_c, 0, 62, 0
2, 61552, Note_on_c, 0, 58, 0
2, 61554, Note_on_c, 0, 55, 0
2, 61562, Note_on_c, 0, 51, 0
2, 61562, Control_c, 0, 64, 127
2, 61564, Control_c, 0, 64, 0
2, 61649, Note_on_c, 0, 74, 72
2, 61649, Note_on_c, 0, 63, 67
2, 61650, Note_on_c, 0, 67, 68
2, 61651, Note_on_c, 0, 62, 75
2, 61653, Note_on_c, 0, 70, 44
2, 61762, Note_on_c, 0, 70, 0
2, 61766, Note_on_c, 0, 67, 0
2, 61771, Note_on_c, 0, 63, 0
2, 61775, Note_on_c, 0, 74, 0
2, 61775, Note_on_c, 0, 62, 0
2, 61783, Note_on_c, 0, 60, 40
2, 61799, Note_on_c, 0, 60, 0
2, 61803, Control_c, 0, 64, 127
2, 61813, Note_on_c, 0, 63, 55
2, 61815, Note_on_c, 0, 74, 50
2, 61817, Note_on_c, 0, 67, 54
2, 61819, Note_on_c, 0, 70, 47
2, 61822, Note_on_c, 0, 62, 47
2, 61829, Control_c, 0, 64, 0
2, 61849, Control_c, 0, 64, 127
2, 61852, Control_c, 0, 64, 0
2, 61865, Note_on_c, 0, 74, 0
2, 61874, Note_on_c, 0, 62, 0
2, 61876, Note_on_c, 0, 67, 0
2, 61900, Note_on_c, 0, 63, 0
2, 61901, Note_on_c, 0, 70, 0
2, 61932, Note_on_c, 0, 73, 42
2, 61936, Note_on_c, 0, 61, 49
2, 61936, Note_on_c, 0, 66, 48
2, 61936, Note_on_c, 0, 63, 35
2, 61939, Note_on_c, 0, 70, 36
2, 62041, Control_c, 0, 64, 127
2, 62098, Note_on_c, 0, 61, 0
2, 62110, Note_on_c, 0, 63, 0
2, 62139, Note_on_c, 0, 66, 0
2, 62153, Note_on_c, 0, 70, 0
2, 62161, Note_on_c, 0, 73, 0
2, 62168, Note_on_c, 0, 61, 30
2, 62174, Note_on_c, 0, 51, 25
2, 62180, Note_on_c, 0, 54, 25
2, 62242, Note_on_c, 0, 54, 0
2, 62245, Note_on_c, 0, 51, 0
2, 62252, Note_on_c, 0, 61, 0
2, 62372, Note_on_c, 0, 61, 46
2, 62375, Note_on_c, 0, 94, 79
2, 62377, Note_on_c, 0, 54, 35
2, 62379, Note_on_c, 0, 65, 39
2, 62380, Note_on_c, 0, 58, 37
2, 62381, Control_c, 0, 64, 0
2, 62410, Note_on_c, 0, 94, 0
2, 62437, Note_on_c, 0, 96, 19
2, 62454, Note_on_c, 0, 61, 0
2, 62459, Note_on_c, 0, 94, 55
2, 62462, Note_on_c, 0, 96, 0
2, 62469, Note_on_c, 0, 61, 17
2, 62483, Note_on_c, 0, 65, 0
2, 62491, Note_on_c, 0, 94, 0
2, 62492, Note_on_c, 0, 92, 52
2, 62503, Note_on_c, 0, 92, 0
2, 62508, Note_on_c, 0, 54, 0
2, 62517, Note_on_c, 0, 90, 56
2, 62536, Note_on_c, 0, 58, 0
2, 62539, Note_on_c, 0, 61, 0
2, 62559, Note_on_c, 0, 90, 0
2, 62562, Note_on_c, 0, 89, 57
2, 62597, Note_on_c, 0, 89, 0
2, 62631, Note_on_c, 0, 87, 67
2, 62635, Note_on_c, 0, 65, 56
2, 62637, Note_on_c, 0, 61, 38
2, 62647, Note_on_c, 0, 65, 0
2, 62657, Note_on_c, 0, 87, 0
2, 62671, Note_on_c, 0, 61, 0
2, 62690, Note_on_c, 0, 85, 44
2, 62728, Note_on_c, 0, 85, 0
2, 62749, Note_on_c, 0, 84, 74
2, 62756, Note_on_c, 0, 61, 36
2, 62769, Note_on_c, 0, 84, 0
2, 62783, Note_on_c, 0, 61, 0
2, 62795, Note_on_c, 0, 82, 42
2, 62833, Note_on_c, 0, 82, 0
2, 62870, Note_on_c, 0, 81, 50
2, 62883, Note_on_c, 0, 81, 0
2, 62891, Note_on_c, 0, 65, 15
2, 62898, Note_on_c, 0, 62, 29
2, 62903, Note_on_c, 0, 60, 32
2, 62910, Note_on_c, 0, 82, 57
2, 62927, Note_on_c, 0, 65, 0
2, 62942, Note_on_c, 0, 82, 0
2, 62975, Note_on_c, 0, 84, 59
2, 62999, Note_on_c, 0, 84, 0
2, 63007, Control_c, 0, 64, 127
2, 63009, Note_on_c, 0, 53, 19
2, 63018, Control_c, 0, 64, 0
2, 63024, Note_on_c, 0, 86, 73
2, 63038, Note_on_c, 0, 84, 26
2, 63056, Note_on_c, 0, 84, 0
2, 63057, Note_on_c, 0, 60, 0
2, 63067, Note_on_c, 0, 86, 0
2, 63072, Note_on_c, 0, 62, 0
2, 63120, Control_c, 0, 64, 127
2, 63132, Note_on_c, 0, 86, 68
2, 63135, Note_on_c, 0, 53, 0
2, 63138, Note_on_c, 0, 74, 48
2, 63203, Note_on_c, 0, 50, 51
2, 63207, Control_c, 0, 64, 0
2, 63237, Note_on_c, 0, 50, 0
2, 63237, Control_c, 0, 64, 127
2, 63291, Note_on_c, 0, 74, 0
2, 63307, Note_on_c, 0, 86, 0
2, 63326, Note_on_c, 0, 82, 29
2, 63339, Note_on_c, 0, 82, 0
2, 63362, Control_c, 0, 64, 0
2, 63429, Note_on_c, 0, 80, 44
2, 63433, Note_on_c, 0, 92, 33
2, 63439, Note_on_c, 0, 51, 46
2, 63441, Note_on_c, 0, 62, 58
2, 63442, Note_on_c, 0, 58, 50
2, 63445, Note_on_c, 0, 55, 68
2, 63447, Note_on_c, 0, 93, 54
2, 63449, Note_on_c, 0, 80, 0
2, 63453, Note_on_c, 0, 92, 0
2, 63467, Note_on_c, 0, 81, 13
2, 63490, Control_c, 0, 64, 127
2, 63598, Note_on_c, 0, 91, 1
2, 63623, Note_on_c, 0, 93, 0
2, 63633, Note_on_c, 0, 91, 0
2, 63643, Note_on_c, 0, 62, 0
2, 63646, Note_on_c, 0, 55, 0
2, 63647, Note_on_c, 0, 81, 0
2, 63652, Note_on_c, 0, 51, 0
2, 63653, Note_on_c, 0, 58, 0
2, 63687, Note_on_c, 0, 89, 60
2, 63687, Control_c, 0, 64, 0
2, 63691, Note_on_c, 0, 77, 44
2, 63694, Note_on_c, 0, 58, 42
2, 63695, Note_on_c, 0, 51, 35
2, 63705, Note_on_c, 0, 55, 34
2, 63705, Note_on_c, 0, 62, 29
2, 63751, Note_on_c, 0, 55, 0
2, 63751, Control_c, 0, 64, 127
2, 63758, Note_on_c, 0, 51, 0
2, 63761, Note_on_c, 0, 77, 0
2, 63768, Note_on_c, 0, 89, 0
2, 63771, Note_on_c, 0, 58, 0
2, 63782, Note_on_c, 0, 62, 0
2, 63847, Control_c, 0, 64, 0
2, 63848, Note_on_c, 0, 54, 38
2, 63850, Note_on_c, 0, 65, 46
2, 63851, Note_on_c, 0, 93, 60
2, 63856, Note_on_c, 0, 81, 33
2, 63857, Note_on_c, 0, 88, 33
2, 63859, Note_on_c, 0, 60, 39
2, 63872, Note_on_c, 0, 88, 0
2, 63874, Note_on_c, 0, 60, 0
2, 63875, Note_on_c, 0, 65, 0
2, 63876, Note_on_c, 0, 81, 0
2, 63879, Note_on_c, 0, 93, 0
2, 63884, Note_on_c, 0, 54, 0
2, 63963, Note_on_c, 0, 54, 35
2, 63966, Note_on_c, 0, 65, 40
2, 63967, Note_on_c, 0, 93, 60
2, 63969, Note_on_c, 0, 81, 42
2, 63971, Note_on_c, 0, 88, 40
2, 63975, Note_on_c, 0, 60, 41
2, 63998, Note_on_c, 0, 60, 0
2, 64000, Note_on_c, 0, 65, 0
2, 64000, Note_on_c, 0, 88, 0
2, 64001, Note_on_c, 0, 93, 0
2, 64007, Note_on_c, 0, 81, 0
2, 64007, Note_on_c, 0, 54, 0
2, 64071, Control_c, 0, 64, 127
2, 64085, Note_on_c, 0, 54, 42
2, 64086, Note_on_c, 0, 93, 61
2, 64089, Note_on_c, 0, 65, 36
2, 64090, Note_on_c, 0, 81, 33
2, 64094, Note_on_c, 0, 88, 33
2, 64099, Note_on_c, 0, 60, 33
2, 64135, Note_on_c, 0, 88, 0
2, 64138, Note_on_c, 0, 65, 0
2, 64140, Note_on_c, 0, 60, 0
2, 64145, Note_on_c, 0, 54, 0
2, 64153, Note_on_c, 0, 81, 0
2, 64156, Note_on_c, 0, 93, 0
2, 64176, Note_on_c, 0, 89, 46
2, 64179, Note_on_c, 0, 54, 34
2, 64181, Note_on_c, 0, 65, 29
2, 64182, Control_c, 0, 64, 0
2, 64188, Note_on_c, 0, 89, 0
2, 64194, Note_on_c, 0, 65, 0
2, 64223, Note_on_c, 0, 54, 0
2, 64286, Note_on_c, 0, 93, 68
2, 64288, Note_on_c, 0, 64, 33
2, 64289, Note_on_c, 0, 81, 48
2, 64289, Note_on_c, 0, 53, 32
2, 64292, Note_on_c, 0, 59, 40
2, 64293, Note_on_c, 0, 88, 44
2, 64316, Control_c, 0, 64, 127
2, 64437, Note_on_c, 0, 88, 0
2, 64442, Note_on_c, 0, 93, 0
2, 64452, Note_on_c, 0, 64, 0
2, 64464, Note_on_c, 0, 81, 0
2, 64473, Note_on_c, 0, 59, 0
2, 64484, Note_on_c, 0, 53, 0
2, 64528, Note_on_c, 0, 92, 81
2, 64531, Note_on_c, 0, 53, 48
2, 64536, Note_on_c, 0, 62, 43
2, 64539, Note_on_c, 0, 59, 28
2, 64543, Note_on_c, 0, 87, 25
2, 64552, Note_on_c, 0, 87, 0
2, 64554, Control_c, 0, 64, 0
2, 64561, Note_on_c, 0, 92, 0
2, 64597, Note_on_c, 0, 89, 38
2, 64646, Note_on_c, 0, 59, 0
2, 64648, Note_on_c, 0, 89, 0
2, 64650, Note_on_c, 0, 86, 66
2, 64660, Note_on_c, 0, 53, 0
2, 64683, Note_on_c, 0, 62, 0
2, 64684, Note_on_c, 0, 86, 0
2, 64688, Control_c, 0, 64, 127
2, 64696, Control_c, 0, 64, 0
2, 64697, Note_on_c, 0, 83, 36
2, 64729, Control_c, 0, 64, 127
2, 64738, Note_on_c, 0, 83, 0
2, 64777, Note_on_c, 0, 79, 39
2, 64787, Control_c, 0, 64, 0
2, 64796, Note_on_c, 0, 79, 0
2, 64809, Note_on_c, 0, 67, 24
2, 64816, Note_on_c, 0, 63, 23
2, 64817, Note_on_c, 0, 58, 29
2, 64819, Note_on_c, 0, 82, 68
2, 64827, Note_on_c, 0, 62, 25
2, 64877, Note_on_c, 0, 82, 0
2, 64923, Control_c, 0, 64, 127
2, 64924, Note_on_c, 0, 67, 0
2, 64934, Note_on_c, 0, 79, 66
2, 64935, Control_c, 0, 64, 0
2, 64951, Note_on_c, 0, 63, 0
2, 64956, Note_on_c, 0, 62, 0
2, 64976, Note_on_c, 0, 79, 0
2, 65004, Note_on_c, 0, 75, 55
2, 65019, Note_on_c, 0, 63, 19
2, 65043, Control_c, 0, 64, 127
2, 65045, Note_on_c, 0, 63, 0
2, 65053, Note_on_c, 0, 75, 0
2, 65054, Control_c, 0, 64, 0
2, 65067, Note_on_c, 0, 74, 24
2, 65107, Note_on_c, 0, 74, 0
2, 65124, Note_on_c, 0, 77, 61
2, 65131, Note_on_c, 0, 67, 47
2, 65142, Note_on_c, 0, 63, 20
2, 65147, Note_on_c, 0, 67, 0
2, 65159, Note_on_c, 0, 77, 0
2, 65169, Note_on_c, 0, 63, 0
2, 65172, Note_on_c, 0, 58, 0
2, 65177, Note_on_c, 0, 75, 46
2, 65222, Note_on_c, 0, 75, 0
2, 65287, Control_c, 0, 64, 127
2, 65291, Note_on_c, 0, 74, 74
2, 65293, Note_on_c, 0, 63, 33
2, 65296, Control_c, 0, 64, 0
2, 65296, Note_on_c, 0, 57, 29
2, 65342, Note_on_c, 0, 74, 0
2, 65361, Note_on_c, 0, 75, 39
2, 65373, Note_on_c, 0, 74, 42
2, 65398, Note_on_c, 0, 63, 0
2, 65402, Note_on_c, 0, 75, 0
2, 65418, Note_on_c, 0, 57, 0
2, 65420, Note_on_c, 0, 74, 0
2, 65422, Note_on_c, 0, 72, 25
2, 65485, Note_on_c, 0, 72, 0
2, 65496, Note_on_c, 0, 70, 56
2, 65518, Note_on_c, 0, 70, 0
2, 65575, Note_on_c, 0, 69, 47
2, 65635, Note_on_c, 0, 69, 0
2, 65660, Note_on_c, 0, 72, 49
2, 65739, Note_on_c, 0, 65, 48
2, 65745, Note_on_c, 0, 60, 31
2, 65748, Note_on_c, 0, 72, 0
2, 65759, Note_on_c, 0, 60, 0
2, 65792, Note_on_c, 0, 65, 0
2, 65819, Note_on_c, 0, 64, 43
2, 65888, Note_on_c, 0, 64, 0
2, 65901, Note_on_c, 0, 67, 53
2, 65949, Note_on_c, 0, 67, 0
2, 65972, Note_on_c, 0, 65, 57
2, 66021, Note_on_c, 0, 65, 0
2, 66043, Note_on_c, 0, 60, 42
2, 66094, Note_on_c, 0, 60, 0
2, 66097, Note_on_c, 0, 50, 24
2, 66115, Note_on_c, 0, 50, 0
2, 66131, Note_on_c, 0, 60, 39
2, 66201, Note_on_c, 0, 43, 51
2, 66298, Note_on_c, 0, 60, 0
2, 66319, Note_on_c, 0, 58, 60
2, 66325, Note_on_c, 0, 53, 26
2, 66354, Note_on_c, 0, 53, 0
2, 66363, Note_on_c, 0, 58, 0
2, 66374, Note_on_c, 0, 59, 51
2, 66418, Note_on_c, 0, 59, 0
2, 66433, Note_on_c, 0, 60, 75
2, 66441, Note_on_c, 0, 53, 48
2, 66460, Note_on_c, 0, 53, 0
2, 66462, Note_on_c, 0, 60, 0
2, 66490, Note_on_c, 0, 61, 74
2, 66536, Note_on_c, 0, 61, 0
2, 66556, Note_on_c, 0, 62, 73
2, 66562, Note_on_c, 0, 53, 42
2, 66564, Note_on_c, 0, 43, 0
2, 66585, Note_on_c, 0, 53, 0
2, 66593, Note_on_c, 0, 62, 0
2, 66613, Note_on_c, 0, 65, 29
2, 66632, Note_on_c, 0, 65, 0
2, 66681, Note_on_c, 0, 55, 40
2, 66688, Note_on_c, 0, 74, 75
2, 66703, Note_on_c, 0, 55, 0
2, 66741, Note_on_c, 0, 48, 34
2, 66741, Note_on_c, 0, 58, 35
2, 66742, Note_on_c, 0, 74, 0
2, 66745, Note_on_c, 0, 70, 42
2, 66760, Note_on_c, 0, 62, 19
2, 66804, Note_on_c, 0, 48, 0
2, 66808, Note_on_c, 0, 70, 0
2, 66810, Note_on_c, 0, 58, 0
2, 66821, Note_on_c, 0, 62, 0
2, 66837, Control_c, 0, 64, 127
2, 66843, Note_on_c, 0, 48, 24
2, 66845, Note_on_c, 0, 70, 51
2, 66846, Note_on_c, 0, 62, 27
2, 66848, Note_on_c, 0, 58, 31
2, 66855, Note_on_c, 0, 67, 24
2, 66873, Note_on_c, 0, 48, 0
2, 66876, Note_on_c, 0, 67, 0
2, 66883, Note_on_c, 0, 62, 0
2, 66894, Note_on_c, 0, 70, 0
2, 66894, Note_on_c, 0, 58, 0
2, 67046, Note_on_c, 0, 77, 66
2, 67069, Control_c, 0, 64, 0
2, 67083, Note_on_c, 0, 77, 0
2, 67101, Note_on_c, 0, 72, 45
2, 67105, Note_on_c, 0, 50, 34
2, 67107, Note_on_c, 0, 65, 33
2, 67111, Note_on_c, 0, 57, 29
2, 67112, Note_on_c, 0, 60, 24
2, 67113, Control_c, 0, 64, 127
2, 67168, Note_on_c, 0, 65, 0
2, 67170, Note_on_c, 0, 72, 0
2, 67188, Note_on_c, 0, 72, 57
2, 67192, Note_on_c, 0, 57, 0
2, 67194, Note_on_c, 0, 50, 0
2, 67209, Note_on_c, 0, 60, 0
2, 67212, Note_on_c, 0, 72, 0
2, 67291, Note_on_c, 0, 79, 73
2, 67292, Note_on_c, 0, 51, 52
2, 67296, Control_c, 0, 64, 0
2, 67301, Note_on_c, 0, 62, 32
2, 67304, Note_on_c, 0, 58, 26
2, 67335, Note_on_c, 0, 79, 0
2, 67347, Note_on_c, 0, 74, 38
2, 67348, Note_on_c, 0, 67, 37
2, 67349, Control_c, 0, 64, 127
2, 67400, Note_on_c, 0, 67, 0
2, 67401, Note_on_c, 0, 74, 0
2, 67421, Note_on_c, 0, 51, 0
2, 67423, Note_on_c, 0, 74, 55
2, 67428, Note_on_c, 0, 58, 0
2, 67432, Note_on_c, 0, 67, 44
2, 67435, Note_on_c, 0, 62, 0
2, 67451, Note_on_c, 0, 74, 0
2, 67453, Note_on_c, 0, 67, 0
2, 67524, Note_on_c, 0, 63, 49
2, 67524, Note_on_c, 0, 77, 63
2, 67532, Note_on_c, 0, 60, 34
2, 67533, Note_on_c, 0, 53, 22
2, 67535, Note_on_c, 0, 65, 38
2, 67538, Control_c, 0, 64, 0
2, 67543, Note_on_c, 0, 58, 25
2, 67547, Note_on_c, 0, 60, 0
2, 67549, Note_on_c, 0, 65, 0
2, 67560, Note_on_c, 0, 63, 0
2, 67566, Note_on_c, 0, 77, 0
2, 67588, Note_on_c, 0, 58, 0
2, 67589, Note_on_c, 0, 74, 34
2, 67593, Control_c, 0, 64, 127
2, 67609, Note_on_c, 0, 53, 0
2, 67637, Note_on_c, 0, 74, 0
2, 67683, Control_c, 0, 64, 0
2, 67685, Note_on_c, 0, 74, 50
2, 67687, Note_on_c, 0, 65, 42
2, 67687, Note_on_c, 0, 69, 44
2, 67693, Note_on_c, 0, 70, 46
2, 67704, Note_on_c, 0, 60, 32
2, 67709, Note_on_c, 0, 62, 29
2, 67729, Note_on_c, 0, 65, 0
2, 67763, Note_on_c, 0, 69, 0
2, 67764, Note_on_c, 0, 70, 0
2, 67774, Control_c, 0, 64, 127
2, 67776, Note_on_c, 0, 53, 29
2, 67788, Note_on_c, 0, 74, 0
2, 67860, Note_on_c, 0, 60, 0
2, 67869, Note_on_c, 0, 62, 0
2, 67925, Note_on_c, 0, 65, 55
2, 67928, Note_on_c, 0, 84, 84
2, 67929, Note_on_c, 0, 62, 40
2, 67932, Note_on_c, 0, 60, 40
2, 67977, Note_on_c, 0, 65, 0
2, 67983, Note_on_c, 0, 84, 0
2, 67994, Note_on_c, 0, 53, 0
2, 68015, Note_on_c, 0, 60, 0
2, 68021, Control_c, 0, 64, 0
2, 68032, Control_c, 0, 64, 127
2, 68037, Note_on_c, 0, 53, 32
2, 68041, Note_on_c, 0, 62, 0
2, 68050, Note_on_c, 0, 82, 44
2, 68099, Note_on_c, 0, 82, 0
2, 68124, Note_on_c, 0, 84, 77
2, 68126, Note_on_c, 0, 63, 43
2, 68128, Note_on_c, 0, 65, 60
2, 68129, Note_on_c, 0, 58, 36
2, 68134, Control_c, 0, 64, 0
2, 68247, Note_on_c, 0, 86, 61
2, 68249, Note_on_c, 0, 84, 0
2, 68250, Note_on_c, 0, 41, 52
2, 68263, Note_on_c, 0, 86, 0
2, 68267, Note_on_c, 0, 63, 0
2, 68268, Control_c, 0, 64, 127
2, 68277, Note_on_c, 0, 58, 0
2, 68294, Note_on_c, 0, 87, 61
2, 68307, Note_on_c, 0, 65, 0
2, 68321, Note_on_c, 0, 53, 0
2, 68345, Note_on_c, 0, 87, 0
2, 68363, Note_on_c, 0, 53, 47
2, 68365, Note_on_c, 0, 89, 70
2, 68375, Control_c, 0, 64, 0
2, 68403, Note_on_c, 0, 89, 0
2, 68410, Control_c, 0, 64, 127
2, 68432, Note_on_c, 0, 91, 42
2, 68451, Note_on_c, 0, 91, 0
2, 68480, Control_c, 0, 64, 0
2, 68485, Note_on_c, 0, 41, 0
2, 68494, Note_on_c, 0, 93, 39
2, 68496, Note_on_c, 0, 95, 44
2, 68506, Note_on_c, 0, 95, 0
2, 68507, Note_on_c, 0, 93, 0
2, 68510, Note_on_c, 0, 53, 0
2, 68536, Note_on_c, 0, 94, 33
2, 68560, Note_on_c, 0, 94, 0
2, 68613, Note_on_c, 0, 96, 64
2, 68632, Note_on_c, 0, 96, 0
2, 68647, Note_on_c, 0, 46, 28
2, 68652, Note_on_c, 0, 53, 20
2, 68757, Note_on_c, 0, 53, 0
2, 68773, Note_on_c, 0, 60, 85
2, 68790, Note_on_c, 0, 46, 0
2, 68844, Note_on_c, 0, 60, 0
2, 68856, Note_on_c, 0, 57, 42
2, 68883, Note_on_c, 0, 57, 0
2, 68903, Note_on_c, 0, 58, 25
2, 68958, Note_on_c, 0, 58, 0
2, 68972, Note_on_c, 0, 60, 29
2, 69080, Note_on_c, 0, 61, 79
2, 69096, Note_on_c, 0, 60, 0
2, 69126, Note_on_c, 0, 61, 0
2, 69151, Note_on_c, 0, 63, 53
2, 69192, Note_on_c, 0, 63, 0
2, 69204, Note_on_c, 0, 64, 67
2, 69223, Note_on_c, 0, 54, 27
2, 69243, Note_on_c, 0, 64, 0
2, 69249, Note_on_c, 0, 54, 0
2, 69262, Note_on_c, 0, 66, 36
2, 69303, Note_on_c, 0, 66, 0
2, 69320, Note_on_c, 0, 67, 59
2, 69353, Note_on_c, 0, 67, 0
2, 69376, Note_on_c, 0, 69, 63
2, 69420, Note_on_c, 0, 69, 0
2, 69452, Note_on_c, 0, 70, 62
2, 69475, Note_on_c, 0, 70, 0
2, 69500, Note_on_c, 0, 72, 72
2, 69543, Note_on_c, 0, 72, 0
2, 69571, Note_on_c, 0, 74, 87
2, 69588, Note_on_c, 0, 46, 35
2, 69594, Note_on_c, 0, 55, 32
2, 69607, Note_on_c, 0, 55, 0
2, 69611, Note_on_c, 0, 46, 0
2, 69619, Note_on_c, 0, 74, 0
2, 69673, Note_on_c, 0, 69, 75
2, 69720, Note_on_c, 0, 69, 0
2, 69751, Note_on_c, 0, 69, 74
2, 69803, Note_on_c, 0, 69, 0
2, 69822, Note_on_c, 0, 66, 60
2, 69824, Note_on_c, 0, 54, 32
2, 69833, Note_on_c, 0, 46, 30
2, 69869, Note_on_c, 0, 66, 0
2, 69891, Note_on_c, 0, 66, 55
2, 69903, Note_on_c, 0, 46, 0
2, 69914, Note_on_c, 0, 54, 0
2, 69958, Note_on_c, 0, 66, 0
2, 69973, Note_on_c, 0, 62, 35
2, 70045, Note_on_c, 0, 62, 0
2, 70085, Note_on_c, 0, 46, 25
2, 70090, Note_on_c, 0, 55, 28
2, 70142, Note_on_c, 0, 46, 0
2, 70145, Note_on_c, 0, 55, 0
2, 70287, Note_on_c, 0, 55, 53
2, 70290, Note_on_c, 0, 46, 32
2, 70302, Note_on_c, 0, 55, 0
2, 70311, Note_on_c, 0, 46, 0
2, 70410, Note_on_c, 0, 65, 47
2, 70423, Note_on_c, 0, 65, 0
2, 70456, Note_on_c, 0, 67, 67
2, 70500, Note_on_c, 0, 67, 0
2, 70523, Note_on_c, 0, 68, 86
2, 70532, Note_on_c, 0, 63, 55
2, 70534, Note_on_c, 0, 56, 44
2, 70535, Note_on_c, 0, 60, 57
2, 70556, Note_on_c, 0, 60, 0
2, 70562, Note_on_c, 0, 68, 0
2, 70566, Note_on_c, 0, 56, 0
2, 70577, Note_on_c, 0, 63, 0
2, 70580, Note_on_c, 0, 70, 76
2, 70630, Note_on_c, 0, 70, 0
2, 70645, Note_on_c, 0, 72, 83
2, 70653, Note_on_c, 0, 67, 64
2, 70653, Note_on_c, 0, 63, 40
2, 70660, Note_on_c, 0, 60, 32
2, 70663, Note_on_c, 0, 67, 0
2, 70673, Note_on_c, 0, 60, 0
2, 70680, Note_on_c, 0, 72, 0
2, 70682, Note_on_c, 0, 63, 0
2, 70702, Note_on_c, 0, 74, 78
2, 70743, Note_on_c, 0, 74, 0
2, 70765, Note_on_c, 0, 75, 92
2, 70765, Note_on_c, 0, 67, 85
2, 70765, Note_on_c, 0, 63, 59
2, 70765, Note_on_c, 0, 60, 78
2, 70768, Note_on_c, 0, 56, 59
2, 70809, Note_on_c, 0, 75, 0
2, 70833, Note_on_c, 0, 79, 89
2, 70879, Note_on_c, 0, 63, 0
2, 70903, Note_on_c, 0, 63, 23
2, 70919, Note_on_c, 0, 79, 0
2, 70937, Note_on_c, 0, 77, 74
2, 70959, Note_on_c, 0, 63, 0
2, 70964, Note_on_c, 0, 67, 0
2, 70992, Note_on_c, 0, 77, 0
2, 70994, Note_on_c, 0, 60, 0
2, 71013, Note_on_c, 0, 75, 55
2, 71013, Note_on_c, 0, 67, 45
2, 71014, Note_on_c, 0, 63, 38
2, 71021, Note_on_c, 0, 60, 22
2, 71072, Note_on_c, 0, 63, 0
2, 71140, Note_on_c, 0, 67, 0
2, 71160, Note_on_c, 0, 75, 0
2, 71163, Note_on_c, 0, 72, 30
2, 71170, Note_on_c, 0, 56, 0
2, 71176, Note_on_c, 0, 60, 0
2, 71249, Note_on_c, 0, 67, 36
2, 71251, Note_on_c, 0, 63, 36
2, 71254, Note_on_c, 0, 56, 25
2, 71255, Note_on_c, 0, 60, 43
2, 71291, Note_on_c, 0, 72, 0
2, 71391, Note_on_c, 0, 60, 0
2, 71400, Note_on_c, 0, 67, 0
2, 71416, Note_on_c, 0, 56, 0
2, 71436, Note_on_c, 0, 63, 0
2, 71485, Note_on_c, 0, 68, 50
2, 71490, Note_on_c, 0, 63, 34
2, 71493, Note_on_c, 0, 61, 37
2, 71494, Note_on_c, 0, 57, 39
2, 71695, Note_on_c, 0, 63, 0
2, 71719, Note_on_c, 0, 79, 78
2, 71737, Note_on_c, 0, 68, 0
2, 71752, Note_on_c, 0, 79, 0
2, 71753, Note_on_c, 0, 77, 68
2, 71783, Note_on_c, 0, 77, 0
2, 71788, Note_on_c, 0, 61, 0
2, 71793, Note_on_c, 0, 57, 0
2, 71798, Note_on_c, 0, 82, 81
2, 71846, Note_on_c, 0, 82, 0
2, 71853, Note_on_c, 0, 80, 69
2, 71875, Note_on_c, 0, 80, 0
2, 71973, Note_on_c, 0, 85, 83
2, 71984, Note_on_c, 0, 68, 35
2, 71992, Note_on_c, 0, 61, 18
2, 71996, Note_on_c, 0, 68, 0
2, 72003, Note_on_c, 0, 61, 0
2, 72005, Note_on_c, 0, 85, 0
2, 72013, Note_on_c, 0, 83, 68
2, 72036, Note_on_c, 0, 83, 0
2, 72066, Note_on_c, 0, 88, 90
2, 72094, Note_on_c, 0, 88, 0
2, 72145, Note_on_c, 0, 86, 87
2, 72149, Note_on_c, 0, 67, 56
2, 72156, Note_on_c, 0, 56, 25
2, 72158, Note_on_c, 0, 62, 41
2, 72171, Note_on_c, 0, 67, 0
2, 72173, Note_on_c, 0, 86, 0
2, 72173, Note_on_c, 0, 62, 0
2, 72177, Note_on_c, 0, 56, 0
2, 72334, Note_on_c, 0, 67, 53
2, 72335, Note_on_c, 0, 56, 37
2, 72340, Note_on_c, 0, 62, 35
2, 72346, Note_on_c, 0, 67, 0
2, 72362, Note_on_c, 0, 62, 0
2, 72369, Note_on_c, 0, 56, 0
2, 72447, Note_on_c, 0, 62, 52
2, 72447, Note_on_c, 0, 65, 58
2, 72452, Note_on_c, 0, 60, 44
2, 72452, Note_on_c, 0, 83, 43
2, 72455, Note_on_c, 0, 81, 54
2, 72457, Note_on_c, 0, 65, 0
2, 72465, Note_on_c, 0, 81, 0
2, 72467, Note_on_c, 0, 83, 0
2, 72469, Note_on_c, 0, 60, 0
2, 72475, Note_on_c, 0, 62, 0
2, 72506, Note_on_c, 0, 78, 77
2, 72506, Note_on_c, 0, 90, 74
2, 72560, Note_on_c, 0, 78, 0
2, 72561, Note_on_c, 0, 90, 0
2, 72567, Note_on_c, 0, 79, 42
2, 72592, Note_on_c, 0, 79, 0
2, 72634, Note_on_c, 0, 87, 55
2, 72636, Note_on_c, 0, 75, 62
2, 72692, Note_on_c, 0, 87, 0
2, 72695, Note_on_c, 0, 75, 0
2, 72741, Note_on_c, 0, 85, 57
2, 72741, Note_on_c, 0, 73, 36
2, 72761, Note_on_c, 0, 86, 59
2, 72774, Note_on_c, 0, 73, 0
2, 72774, Note_on_c, 0, 85, 0
2, 72776, Note_on_c, 0, 74, 57
2, 72807, Note_on_c, 0, 74, 0
2, 72807, Note_on_c, 0, 65, 24
2, 72813, Note_on_c, 0, 86, 0
2, 72816, Note_on_c, 0, 65, 0
2, 72928, Note_on_c, 0, 65, 45
2, 72940, Note_on_c, 0, 62, 25
2, 72942, Note_on_c, 0, 60, 30
2, 72958, Note_on_c, 0, 65, 0
2, 72959, Note_on_c, 0, 60, 0
2, 72966, Note_on_c, 0, 62, 0
2, 73170, Note_on_c, 0, 65, 51
2, 73171, Note_on_c, 0, 62, 48
2, 73176, Note_on_c, 0, 60, 38
2, 73181, Note_on_c, 0, 65, 0
2, 73188, Note_on_c, 0, 60, 0
2, 73188, Note_on_c, 0, 62, 0
2, 73209, Note_on_c, 0, 77, 82
2, 73218, Note_on_c, 0, 76, 32
2, 73229, Note_on_c, 0, 76, 0
2, 73266, Note_on_c, 0, 77, 0
2, 73284, Note_on_c, 0, 75, 78
2, 73285, Note_on_c, 0, 65, 60
2, 73287, Note_on_c, 0, 62, 51
2, 73296, Note_on_c, 0, 60, 34
2, 73297, Note_on_c, 0, 65, 0
2, 73308, Note_on_c, 0, 60, 0
2, 73308, Note_on_c, 0, 62, 0
2, 73329, Note_on_c, 0, 75, 0
2, 73340, Note_on_c, 0, 73, 34
2, 73399, Note_on_c, 0, 73, 0
2, 73416, Note_on_c, 0, 65, 58
2, 73419, Note_on_c, 0, 61, 38
2, 73427, Note_on_c, 0, 65, 0
2, 73434, Note_on_c, 0, 61, 0
2, 73456, Note_on_c, 0, 77, 83
2, 73519, Note_on_c, 0, 77, 0
2, 73528, Note_on_c, 0, 61, 31
2, 73543, Note_on_c, 0, 61, 0
2, 73570, Note_on_c, 0, 66, 69
2, 73650, Note_on_c, 0, 66, 0
2, 73655, Note_on_c, 0, 61, 25
2, 73660, Note_on_c, 0, 65, 37
2, 73669, Note_on_c, 0, 61, 0
2, 73676, Note_on_c, 0, 65, 0
2, 73694, Note_on_c, 0, 70, 74
2, 73763, Note_on_c, 0, 70, 0
2, 73769, Note_on_c, 0, 61, 36
2, 73797, Note_on_c, 0, 61, 0
2, 73889, Note_on_c, 0, 66, 79
2, 73896, Note_on_c, 0, 61, 44
2, 73930, Note_on_c, 0, 61, 0
2, 73968, Note_on_c, 0, 66, 0
2, 73983, Note_on_c, 0, 68, 31
2, 74000, Note_on_c, 0, 66, 48
2, 74012, Note_on_c, 0, 68, 0
2, 74031, Note_on_c, 0, 66, 0
2, 74031, Note_on_c, 0, 65, 51
2, 74046, Note_on_c, 0, 65, 0
2, 74068, Note_on_c, 0, 66, 71
2, 74232, Note_on_c, 0, 66, 0
2, 74250, Note_on_c, 0, 65, 66
2, 74254, Note_on_c, 0, 58, 36
2, 74257, Note_on_c, 0, 60, 36
2, 74259, Note_on_c, 0, 54, 21
2, 74268, Note_on_c, 0, 60, 0
2, 74282, Note_on_c, 0, 58, 0
2, 74283, Note_on_c, 0, 54, 0
2, 74287, Note_on_c, 0, 65, 0
2, 74300, Note_on_c, 0, 63, 35
2, 74370, Note_on_c, 0, 61, 49
2, 74386, Note_on_c, 0, 63, 0
2, 74396, Note_on_c, 0, 61, 0
2, 74425, Note_on_c, 0, 62, 71
2, 74502, Note_on_c, 0, 65, 88
2, 74517, Note_on_c, 0, 62, 0
2, 74552, Note_on_c, 0, 65, 0
2, 74568, Note_on_c, 0, 57, 51
2, 74636, Note_on_c, 0, 57, 0
2, 74665, Note_on_c, 0, 57, 60
2, 74731, Note_on_c, 0, 57, 0
2, 74744, Note_on_c, 0, 60, 67
2, 74770, Note_on_c, 0, 60, 0
2, 74794, Note_on_c, 0, 57, 34
2, 74862, Note_on_c, 0, 57, 0
2, 75085, Note_on_c, 0, 60, 61
2, 75087, Note_on_c, 0, 57, 48
2, 75095, Note_on_c, 0, 60, 0
2, 75110, Note_on_c, 0, 57, 0
2, 75123, Note_on_c, 0, 64, 63
2, 75170, Note_on_c, 0, 64, 0
2, 75199, Note_on_c, 0, 65, 65
2, 75221, Note_on_c, 0, 65, 0
2, 75244, Note_on_c, 0, 69, 92
2, 75299, Note_on_c, 0, 69, 0
2, 75321, Note_on_c, 0, 72, 84
2, 75358, Note_on_c, 0, 72, 0
2, 75376, Note_on_c, 0, 70, 56
2, 75430, Note_on_c, 0, 70, 0
2, 75453, Note_on_c, 0, 58, 31
2, 75454, Note_on_c, 0, 67, 60
2, 75465, Note_on_c, 0, 58, 0
2, 75490, Note_on_c, 0, 67, 0
2, 75496, Note_on_c, 0, 63, 35
2, 75567, Note_on_c, 0, 54, 33
2, 75569, Note_on_c, 0, 63, 0
2, 75591, Note_on_c, 0, 54, 0
2, 75610, Note_on_c, 0, 69, 76
2, 75682, Note_on_c, 0, 69, 0
2, 75690, Note_on_c, 0, 65, 57
2, 75719, Note_on_c, 0, 65, 0
2, 75741, Note_on_c, 0, 62, 28
2, 75810, Note_on_c, 0, 62, 0
2, 75822, Note_on_c, 0, 58, 34
2, 75834, Note_on_c, 0, 55, 24
2, 75845, Note_on_c, 0, 55, 0
2, 75850, Note_on_c, 0, 67, 82
2, 75854, Note_on_c, 0, 58, 0
2, 75930, Note_on_c, 0, 67, 0
2, 75931, Note_on_c, 0, 63, 37
2, 75984, Note_on_c, 0, 63, 0
2, 75984, Note_on_c, 0, 60, 25
2, 76033, Note_on_c, 0, 60, 0
2, 76069, Note_on_c, 0, 58, 23
2, 76092, Note_on_c, 0, 65, 88
2, 76106, Note_on_c, 0, 58, 0
2, 76173, Note_on_c, 0, 64, 79
2, 76180, Note_on_c, 0, 65, 0
2, 76210, Note_on_c, 0, 64, 0
2, 76218, Note_on_c, 0, 61, 62
2, 76299, Note_on_c, 0, 54, 23
2, 76318, Note_on_c, 0, 54, 0
2, 76526, Note_on_c, 0, 53, 46
2, 76527, Note_on_c, 0, 46, 35
2, 76545, Note_on_c, 0, 53, 0
2, 76555, Note_on_c, 0, 46, 0
2, 76664, Note_on_c, 0, 61, 0
2, 76687, Note_on_c, 0, 57, 71
2, 76757, Note_on_c, 0, 57, 0
2, 76887, Note_on_c, 0, 53, 47
2, 76888, Note_on_c, 0, 46, 30
2, 76901, Note_on_c, 0, 53, 0
2, 76918, Note_on_c, 0, 46, 0
2, 76927, Note_on_c, 0, 60, 85
2, 76992, Note_on_c, 0, 60, 0
2, 77060, Note_on_c, 0, 58, 42
2, 77109, Note_on_c, 0, 58, 0
2, 77124, Note_on_c, 0, 60, 68
2, 77127, Note_on_c, 0, 53, 44
2, 77137, Note_on_c, 0, 46, 20
2, 77153, Note_on_c, 0, 46, 0
2, 77158, Note_on_c, 0, 60, 0
2, 77164, Note_on_c, 0, 53, 0
2, 77187, Note_on_c, 0, 62, 35
2, 77242, Note_on_c, 0, 54, 52
2, 77243, Note_on_c, 0, 46, 40
2, 77244, Note_on_c, 0, 66, 75
2, 77256, Note_on_c, 0, 62, 0
2, 77263, Note_on_c, 0, 54, 0
2, 77268, Note_on_c, 0, 66, 0
2, 77271, Note_on_c, 0, 46, 0
2, 77299, Note_on_c, 0, 69, 37
2, 77303, Note_on_c, 0, 71, 35
2, 77328, Note_on_c, 0, 69, 0
2, 77334, Note_on_c, 0, 71, 0
2, 77342, Note_on_c, 0, 74, 62
2, 77373, Note_on_c, 0, 74, 0
2, 77374, Note_on_c, 0, 78, 59
2, 77410, Note_on_c, 0, 78, 0
2, 77422, Note_on_c, 0, 81, 75
2, 77457, Note_on_c, 0, 78, 57
2, 77464, Note_on_c, 0, 81, 0
2, 77487, Note_on_c, 0, 78, 0
2, 77611, Note_on_c, 0, 54, 42
2, 77616, Note_on_c, 0, 46, 32
2, 77725, Note_on_c, 0, 46, 0
2, 77754, Note_on_c, 0, 54, 0
2, 77764, Note_on_c, 0, 46, 27
2, 77765, Note_on_c, 0, 55, 45
2, 77889, Note_on_c, 0, 81, 85
2, 77891, Note_on_c, 0, 55, 0
2, 77897, Note_on_c, 0, 46, 0
2, 77929, Note_on_c, 0, 82, 58
2, 77936, Note_on_c, 0, 81, 0
2, 77944, Note_on_c, 0, 83, 71
2, 77955, Note_on_c, 0, 82, 0
2, 77975, Note_on_c, 0, 83, 0
2, 77993, Note_on_c, 0, 84, 38
2, 77993, Note_on_c, 0, 86, 54
2, 78005, Note_on_c, 0, 86, 0
2, 78022, Note_on_c, 0, 84, 0
2, 78063, Note_on_c, 0, 77, 73
2, 78075, Note_on_c, 0, 55, 54
2, 78076, Note_on_c, 0, 46, 29
2, 78095, Note_on_c, 0, 55, 0
2, 78098, Note_on_c, 0, 46, 0
2, 78123, Note_on_c, 0, 79, 32
2, 78139, Note_on_c, 0, 80, 42
2, 78143, Note_on_c, 0, 77, 0
2, 78167, Note_on_c, 0, 79, 0
2, 78180, Note_on_c, 0, 81, 72
2, 78195, Note_on_c, 0, 80, 0
2, 78218, Note_on_c, 0, 81, 0
2, 78232, Note_on_c, 0, 74, 68
2, 78303, Note_on_c, 0, 75, 42
2, 78311, Note_on_c, 0, 74, 0
2, 78322, Note_on_c, 0, 76, 59
2, 78346, Note_on_c, 0, 77, 64
2, 78354, Note_on_c, 0, 67, 44
2, 78355, Note_on_c, 0, 76, 0
2, 78356, Note_on_c, 0, 75, 0
2, 78361, Note_on_c, 0, 63, 33
2, 78366, Note_on_c, 0, 67, 0
2, 78376, Note_on_c, 0, 77, 0
2, 78377, Note_on_c, 0, 60, 22
2, 78387, Note_on_c, 0, 60, 0
2, 78395, Note_on_c, 0, 63, 0
2, 78396, Note_on_c, 0, 67, 59
2, 78423, Note_on_c, 0, 69, 6
2, 78466, Note_on_c, 0, 69, 0
2, 78470, Note_on_c, 0, 67, 0
2, 78578, Note_on_c, 0, 67, 61
2, 78578, Note_on_c, 0, 63, 50
2, 78583, Note_on_c, 0, 60, 47
2, 78588, Note_on_c, 0, 56, 25
2, 78749, Note_on_c, 0, 67, 0
2, 78756, Note_on_c, 0, 56, 0
2, 78762, Note_on_c, 0, 60, 0
2, 78777, Note_on_c, 0, 63, 0
2, 78807, Note_on_c, 0, 63, 38
2, 78812, Note_on_c, 0, 56, 39
2, 78815, Note_on_c, 0, 67, 43
2, 78819, Note_on_c, 0, 60, 46
2, 78829, Note_on_c, 0, 67, 0
2, 78915, Note_on_c, 0, 63, 0
2, 78932, Note_on_c, 0, 63, 12
2, 78977, Note_on_c, 0, 56, 0
2, 78987, Note_on_c, 0, 60, 0
2, 78988, Note_on_c, 0, 63, 0
2, 79048, Note_on_c, 0, 56, 48
2, 79050, Note_on_c, 0, 63, 51
2, 79054, Note_on_c, 0, 67, 40
2, 79146, Note_on_c, 0, 67, 0
2, 79155, Note_on_c, 0, 56, 0
2, 79179, Note_on_c, 0, 63, 0
2, 79212, Note_on_c, 0, 63, 35
2, 79214, Note_on_c, 0, 68, 36
2, 79214, Note_on_c, 0, 57, 48
2, 79215, Note_on_c, 0, 61, 38
2, 79294, Note_on_c, 0, 68, 0
2, 79296, Note_on_c, 0, 61, 0
2, 79296, Note_on_c, 0, 57, 0
2, 79338, Note_on_c, 0, 63, 0
2, 79408, Note_on_c, 0, 68, 56
2, 79411, Note_on_c, 0, 63, 48
2, 79415, Note_on_c, 0, 61, 35
2, 79416, Note_on_c, 0, 57, 40
2, 79562, Note_on_c, 0, 68, 0
2, 79568, Note_on_c, 0, 57, 0
2, 79613, Note_on_c, 0, 61, 0
2, 79616, Note_on_c, 0, 63, 0
2, 79644, Note_on_c, 0, 63, 42
2, 79644, Note_on_c, 0, 67, 60
2, 79648, Note_on_c, 0, 56, 40
2, 79649, Note_on_c, 0, 60, 55
2, 79809, Note_on_c, 0, 67, 0
2, 79818, Note_on_c, 0, 56, 0
2, 79830, Note_on_c, 0, 63, 0
2, 79842, Note_on_c, 0, 60, 0
2, 79885, Note_on_c, 0, 66, 60
2, 79892, Note_on_c, 0, 62, 48
2, 79893, Note_on_c, 0, 56, 39
2, 79901, Note_on_c, 0, 60, 31
2, 80028, Note_on_c, 0, 66, 0
2, 80050, Note_on_c, 0, 86, 115
2, 80063, Note_on_c, 0, 60, 0
2, 80081, Note_on_c, 0, 56, 0
2, 80119, Note_on_c, 0, 86, 0
2, 80124, Note_on_c, 0, 89, 66
2, 80153, Note_on_c, 0, 86, 46
2, 80154, Note_on_c, 0, 89, 0
2, 80180, Note_on_c, 0, 62, 0
2, 80190, Note_on_c, 0, 82, 40
2, 80193, Note_on_c, 0, 86, 0
2, 80221, Note_on_c, 0, 82, 0
2, 80380, Note_on_c, 0, 65, 57
2, 80387, Note_on_c, 0, 62, 32
2, 80390, Note_on_c, 0, 65, 0
2, 80402, Note_on_c, 0, 62, 0
2, 80605, Note_on_c, 0, 65, 55
2, 80605, Note_on_c, 0, 62, 57
2, 80606, Note_on_c, 0, 60, 55
2, 80615, Note_on_c, 0, 65, 0
2, 80629, Note_on_c, 0, 62, 0
2, 80632, Note_on_c, 0, 60, 0
2, 80645, Note_on_c, 0, 83, 101
2, 80700, Note_on_c, 0, 83, 0
2, 80722, Note_on_c, 0, 62, 35
2, 80723, Note_on_c, 0, 84, 62
2, 80745, Note_on_c, 0, 84, 0
2, 80752, Note_on_c, 0, 62, 0
2, 80769, Note_on_c, 0, 86, 101
2, 80830, Note_on_c, 0, 86, 0
2, 80891, Note_on_c, 0, 84, 84
2, 80933, Note_on_c, 0, 84, 0
2, 80955, Note_on_c, 0, 62, 48
2, 80957, Note_on_c, 0, 65, 38
2, 80963, Note_on_c, 0, 60, 32
2, 80964, Note_on_c, 0, 79, 53
2, 80969, Note_on_c, 0, 65, 0
2, 80977, Note_on_c, 0, 60, 0
2, 80982, Note_on_c, 0, 62, 0
2, 80991, Note_on_c, 0, 79, 0
2, 81014, Note_on_c, 0, 75, 39
2, 81091, Note_on_c, 0, 61, 33
2, 81095, Note_on_c, 0, 74, 43
2, 81097, Note_on_c, 0, 75, 0
2, 81112, Note_on_c, 0, 74, 0
2, 81121, Note_on_c, 0, 61, 0
2, 81134, Note_on_c, 0, 78, 74
2, 81178, Note_on_c, 0, 78, 0
2, 81211, Note_on_c, 0, 77, 72
2, 81217, Note_on_c, 0, 61, 46
2, 81219, Note_on_c, 0, 65, 52
2, 81222, Note_on_c, 0, 54, 34
2, 81222, Note_on_c, 0, 58, 35
2, 81243, Note_on_c, 0, 77, 0
2, 81268, Note_on_c, 0, 75, 38
2, 81280, Note_on_c, 0, 65, 0
2, 81293, Note_on_c, 0, 61, 0
2, 81299, Note_on_c, 0, 75, 0
2, 81330, Note_on_c, 0, 77, 43
2, 81334, Note_on_c, 0, 61, 23
2, 81339, Note_on_c, 0, 75, 56
2, 81347, Note_on_c, 0, 77, 0
2, 81348, Note_on_c, 0, 54, 0
2, 81375, Note_on_c, 0, 58, 0
2, 81379, Note_on_c, 0, 75, 0
2, 81380, Note_on_c, 0, 73, 37
2, 81415, Note_on_c, 0, 61, 0
2, 81423, Note_on_c, 0, 73, 0
2, 81451, Note_on_c, 0, 72, 80
2, 81456, Note_on_c, 0, 61, 46
2, 81471, Note_on_c, 0, 58, 21
2, 81489, Note_on_c, 0, 58, 0
2, 81491, Note_on_c, 0, 61, 0
2, 81499, Note_on_c, 0, 72, 0
2, 81505, Note_on_c, 0, 73, 33
2, 81540, Note_on_c, 0, 73, 0
2, 81540, Note_on_c, 0, 72, 26
2, 81575, Note_on_c, 0, 72, 0
2, 81575, Note_on_c, 0, 70, 46
2, 81584, Note_on_c, 0, 61, 29
2, 81594, Note_on_c, 0, 58, 20
2, 81606, Note_on_c, 0, 61, 0
2, 81606, Note_on_c, 0, 70, 0
2, 81621, Note_on_c, 0, 58, 0
2, 81633, Note_on_c, 0, 70, 25
2, 81638, Note_on_c, 0, 69, 46
2, 81650, Note_on_c, 0, 69, 0
2, 81659, Note_on_c, 0, 70, 0
2, 81806, Note_on_c, 0, 65, 49
2, 81810, Note_on_c, 0, 60, 44
2, 81817, Note_on_c, 0, 65, 0
2, 81830, Note_on_c, 0, 60, 0
2, 81861, Note_on_c, 0, 69, 34
2, 81887, Note_on_c, 0, 70, 55
2, 81888, Note_on_c, 0, 69, 0
2, 81915, Note_on_c, 0, 70, 0
2, 81919, Note_on_c, 0, 71, 55
2, 81942, Note_on_c, 0, 71, 0
2, 81946, Note_on_c, 0, 65, 38
2, 81946, Note_on_c, 0, 72, 59
2, 81948, Note_on_c, 0, 54, 29
2, 81953, Note_on_c, 0, 60, 48
2, 81958, Note_on_c, 0, 65, 0
2, 81971, Note_on_c, 0, 60, 0
2, 81979, Note_on_c, 0, 72, 0
2, 81987, Note_on_c, 0, 54, 0
2, 81994, Note_on_c, 0, 69, 57
2, 82045, Note_on_c, 0, 69, 0
2, 82059, Note_on_c, 0, 65, 66
2, 82059, Note_on_c, 0, 58, 34
2, 82061, Note_on_c, 0, 50, 35
2, 82088, Note_on_c, 0, 58, 0
2, 82090, Note_on_c, 0, 65, 0
2, 82118, Note_on_c, 0, 62, 48
2, 82134, Note_on_c, 0, 50, 0
2, 82181, Note_on_c, 0, 62, 0
2, 82181, Note_on_c, 0, 50, 24
2, 82201, Note_on_c, 0, 50, 0
2, 82210, Note_on_c, 0, 62, 50
2, 82283, Note_on_c, 0, 62, 0
2, 82286, Note_on_c, 0, 61, 67
2, 82292, Note_on_c, 0, 58, 32
2, 82303, Note_on_c, 0, 50, 22
2, 82307, Note_on_c, 0, 58, 0
2, 82316, Note_on_c, 0, 61, 0
2, 82323, Note_on_c, 0, 50, 0
2, 82344, Note_on_c, 0, 62, 24
2, 82397, Note_on_c, 0, 62, 0
2, 82407, Note_on_c, 0, 58, 38
2, 82409, Note_on_c, 0, 63, 56
2, 82433, Note_on_c, 0, 63, 0
2, 82434, Note_on_c, 0, 58, 0
2, 82461, Note_on_c, 0, 65, 43
2, 82511, Note_on_c, 0, 65, 0
2, 82527, Note_on_c, 0, 62, 60
2, 82527, Note_on_c, 0, 67, 75
2, 82531, Note_on_c, 0, 51, 28
2, 82535, Note_on_c, 0, 58, 37
2, 82537, Note_on_c, 0, 55, 50
2, 82539, Note_on_c, 0, 62, 0
2, 82552, Note_on_c, 0, 51, 0
2, 82559, Note_on_c, 0, 55, 0
2, 82566, Note_on_c, 0, 58, 0
2, 82569, Note_on_c, 0, 67, 0
2, 82588, Note_on_c, 0, 70, 57
2, 82635, Note_on_c, 0, 70, 0
2, 82655, Note_on_c, 0, 74, 72
2, 82694, Note_on_c, 0, 74, 0
2, 82709, Note_on_c, 0, 77, 57
2, 82750, Note_on_c, 0, 77, 0
2, 82764, Note_on_c, 0, 62, 52
2, 82770, Note_on_c, 0, 58, 32
2, 82774, Note_on_c, 0, 81, 67
2, 82776, Note_on_c, 0, 62, 0
2, 82776, Note_on_c, 0, 55, 34
2, 82797, Note_on_c, 0, 81, 0
2, 82799, Note_on_c, 0, 55, 0
2, 82801, Note_on_c, 0, 58, 0
2, 82826, Note_on_c, 0, 74, 79
2, 82827, Note_on_c, 0, 86, 89
2, 82895, Note_on_c, 0, 58, 34
2, 82896, Note_on_c, 0, 86, 0
2, 82899, Note_on_c, 0, 74, 0
2, 82904, Note_on_c, 0, 55, 30
2, 82918, Note_on_c, 0, 55, 0
2, 82926, Note_on_c, 0, 58, 0
2, 82931, Note_on_c, 0, 86, 84
2, 82933, Note_on_c, 0, 74, 74
2, 82997, Note_on_c, 0, 86, 0
2, 83008, Note_on_c, 0, 74, 0
2, 83037, Note_on_c, 0, 54, 64
2, 83039, Note_on_c, 0, 65, 71
2, 83041, Note_on_c, 0, 60, 64
2, 83045, Note_on_c, 0, 86, 94
2, 83046, Note_on_c, 0, 81, 74
2, 83046, Note_on_c, 0, 74, 71
2, 83250, Note_on_c, 0, 86, 0
2, 83253, Note_on_c, 0, 65, 0
2, 83258, Note_on_c, 0, 81, 0
2, 83258, Note_on_c, 0, 60, 0
2, 83263, Note_on_c, 0, 54, 0
2, 83271, Note_on_c, 0, 74, 0
2, 83287, Note_on_c, 0, 54, 70
2, 83291, Note_on_c, 0, 65, 75
2, 83292, Note_on_c, 0, 60, 66
2, 83293, Note_on_c, 0, 84, 80
2, 83295, Note_on_c, 0, 72, 67
2, 83297, Note_on_c, 0, 79, 64
2, 83337, Note_on_c, 0, 79, 0
2, 83339, Note_on_c, 0, 84, 0
2, 83352, Note_on_c, 0, 72, 0
2, 83355, Note_on_c, 0, 65, 0
2, 83357, Note_on_c, 0, 60, 0
2, 83371, Note_on_c, 0, 54, 0
2, 83411, Note_on_c, 0, 82, 74
2, 83413, Note_on_c, 0, 54, 72
2, 83413, Note_on_c, 0, 70, 76
2, 83414, Note_on_c, 0, 65, 74
2, 83416, Note_on_c, 0, 60, 69
2, 83417, Note_on_c, 0, 75, 56
2, 83426, Note_on_c, 0, 75, 0
2, 83468, Note_on_c, 0, 65, 0
2, 83471, Note_on_c, 0, 70, 0
2, 83472, Note_on_c, 0, 82, 0
2, 83473, Note_on_c, 0, 60, 0
2, 83495, Note_on_c, 0, 54, 0
2, 83532, Note_on_c, 0, 82, 72
2, 83532, Note_on_c, 0, 70, 84
2, 83533, Note_on_c, 0, 53, 80
2, 83534, Note_on_c, 0, 64, 74
2, 83535, Note_on_c, 0, 59, 64
2, 83541, Note_on_c, 0, 83, 66
2, 83553, Note_on_c, 0, 70, 0
2, 83554, Note_on_c, 0, 71, 68
2, 83571, Note_on_c, 0, 82, 0
2, 83596, Note_on_c, 0, 83, 0
2, 83604, Note_on_c, 0, 71, 0
2, 83617, Note_on_c, 0, 64, 0
2, 83618, Note_on_c, 0, 53, 0
2, 83626, Note_on_c, 0, 59, 0
2, 83653, Note_on_c, 0, 80, 58
2, 83654, Note_on_c, 0, 53, 65
2, 83655, Note_on_c, 0, 59, 55
2, 83655, Note_on_c, 0, 64, 66
2, 83656, Note_on_c, 0, 68, 71
2, 83662, Note_on_c, 0, 78, 37
2, 83717, Note_on_c, 0, 80, 0
2, 83725, Note_on_c, 0, 64, 0
2, 83725, Note_on_c, 0, 53, 0
2, 83729, Note_on_c, 0, 68, 0
2, 83730, Note_on_c, 0, 78, 0
2, 83733, Note_on_c, 0, 59, 0
2, 83773, Note_on_c, 0, 79, 72
2, 83774, Note_on_c, 0, 53, 62
2, 83776, Note_on_c, 0, 64, 60
2, 83777, Note_on_c, 0, 59, 64
2, 83777, Note_on_c, 0, 67, 71
2, 83812, Note_on_c, 0, 64, 0
2, 83819, Note_on_c, 0, 67, 0
2, 83826, Note_on_c, 0, 79, 0
2, 83843, Note_on_c, 0, 77, 64
2, 83854, Note_on_c, 0, 64, 46
2, 83868, Note_on_c, 0, 53, 0
2, 83870, Note_on_c, 0, 59, 0
2, 83881, Note_on_c, 0, 77, 0
2, 83892, Note_on_c, 0, 64, 0
2, 83897, Note_on_c, 0, 75, 53
2, 83952, Note_on_c, 0, 75, 0
2, 83968, Note_on_c, 0, 74, 88
2, 83972, Note_on_c, 0, 75, 42
2, 83976, Note_on_c, 0, 63, 46
2, 83979, Note_on_c, 0, 67, 56
2, 83980, Note_on_c, 0, 62, 48
2, 83982, Note_on_c, 0, 75, 0
2, 83982, Note_on_c, 0, 58, 40
2, 84012, Note_on_c, 0, 74, 0
2, 84046, Note_on_c, 0, 72, 52
2, 84099, Note_on_c, 0, 72, 0
2, 84138, Note_on_c, 0, 67, 0
2, 84138, Note_on_c, 0, 72, 74
2, 84157, Note_on_c, 0, 63, 0
2, 84166, Note_on_c, 0, 62, 0
2, 84201, Note_on_c, 0, 72, 0
2, 84217, Note_on_c, 0, 63, 19
2, 84246, Note_on_c, 0, 63, 0
2, 84268, Note_on_c, 0, 58, 0
2, 84272, Note_on_c, 0, 72, 68
2, 84330, Note_on_c, 0, 72, 0
2, 84331, Note_on_c, 0, 67, 43
2, 84335, Note_on_c, 0, 63, 34
2, 84337, Note_on_c, 0, 58, 29
2, 84339, Note_on_c, 0, 62, 30
2, 84345, Note_on_c, 0, 67, 0
2, 84356, Note_on_c, 0, 62, 0
2, 84370, Note_on_c, 0, 72, 76
2, 84371, Note_on_c, 0, 58, 0
2, 84372, Note_on_c, 0, 63, 0
2, 84426, Note_on_c, 0, 72, 0
2, 84445, Note_on_c, 0, 71, 38
2, 84486, Note_on_c, 0, 67, 38
2, 84487, Note_on_c, 0, 63, 30
2, 84494, Note_on_c, 0, 72, 49
2, 84500, Note_on_c, 0, 57, 27
2, 84524, Note_on_c, 0, 71, 0
2, 84547, Note_on_c, 0, 72, 0
2, 84568, Note_on_c, 0, 77, 60
2, 84582, Note_on_c, 0, 67, 0
2, 84595, Note_on_c, 0, 77, 0
2, 84604, Note_on_c, 0, 57, 0
2, 84606, Note_on_c, 0, 63, 0
2, 84804, Note_on_c, 0, 61, 69
2, 84806, Note_on_c, 0, 65, 68
2, 84810, Note_on_c, 0, 55, 57
2, 84817, Note_on_c, 0, 65, 0
2, 84822, Note_on_c, 0, 55, 0
2, 84830, Note_on_c, 0, 61, 0
2, 84935, Note_on_c, 0, 57, 56
2, 84935, Note_on_c, 0, 60, 57
2, 84937, Note_on_c, 0, 53, 41
2, 84945, Note_on_c, 0, 60, 0
2, 84945, Note_on_c, 0, 57, 0
2, 84953, Note_on_c, 0, 53, 0
2, 84973, Note_on_c, 0, 75, 60
2, 84974, Note_on_c, 0, 67, 88
2, 84975, Note_on_c, 0, 79, 75
2, 84977, Note_on_c, 0, 50, 62
2, 84980, Note_on_c, 0, 73, 36
2, 84981, Note_on_c, 0, 53, 51
2, 84984, Note_on_c, 0, 57, 68
2, 84987, Note_on_c, 0, 78, 26
2, 84989, Note_on_c, 0, 60, 36
2, 84991, Note_on_c, 0, 51, 29
2, 84994, Note_on_c, 0, 73, 0
2, 84999, Note_on_c, 0, 60, 0
2, 84999, Note_on_c, 0, 78, 0
2, 85001, Note_on_c, 0, 51, 0
2, 85028, Note_on_c, 0, 76, 55
2, 85039, Note_on_c, 0, 75, 0
2, 85054, Note_on_c, 0, 67, 0
2, 85057, Note_on_c, 0, 53, 0
2, 85057, Note_on_c, 0, 76, 0
2, 85058, Note_on_c, 0, 57, 0
2, 85060, Note_on_c, 0, 50, 0
2, 85067, Note_on_c, 0, 79, 0
2, 85093, Note_on_c, 0, 50, 60
2, 85094, Note_on_c, 0, 75, 72
2, 85095, Note_on_c, 0, 79, 53
2, 85097, Note_on_c, 0, 67, 80
2, 85097, Note_on_c, 0, 60, 71
2, 85100, Note_on_c, 0, 53, 54
2, 85100, Note_on_c, 0, 57, 62
2, 85103, Note_on_c, 0, 73, 33
2, 85115, Note_on_c, 0, 73, 0
2, 85137, Note_on_c, 0, 76, 62
2, 85143, Note_on_c, 0, 75, 0
2, 85149, Note_on_c, 0, 76, 0
2, 85151, Note_on_c, 0, 67, 0
2, 85159, Note_on_c, 0, 79, 0
2, 85161, Note_on_c, 0, 60, 0
2, 85162, Note_on_c, 0, 50, 0
2, 85164, Note_on_c, 0, 57, 0
2, 85168, Note_on_c, 0, 53, 0
2, 85182, Note_on_c, 0, 77, 62
2, 85185, Note_on_c, 0, 65, 60
2, 85187, Note_on_c, 0, 50, 44
2, 85190, Note_on_c, 0, 60, 50
2, 85192, Note_on_c, 0, 57, 40
2, 85196, Note_on_c, 0, 65, 0
2, 85197, Note_on_c, 0, 53, 31
2, 85204, Note_on_c, 0, 60, 0
2, 85206, Note_on_c, 0, 57, 0
2, 85208, Note_on_c, 0, 77, 0
2, 85229, Note_on_c, 0, 60, 71
2, 85233, Note_on_c, 0, 79, 66
2, 85235, Note_on_c, 0, 76, 64
2, 85235, Note_on_c, 0, 57, 68
2, 85235, Note_on_c, 0, 67, 70
2, 85278, Note_on_c, 0, 67, 0
2, 85282, Note_on_c, 0, 79, 0
2, 85284, Note_on_c, 0, 76, 0
2, 85289, Note_on_c, 0, 60, 0
2, 85290, Note_on_c, 0, 57, 0
2, 85296, Note_on_c, 0, 50, 0
2, 85300, Note_on_c, 0, 53, 0
2, 85327, Note_on_c, 0, 77, 60
2, 85328, Note_on_c, 0, 50, 34
2, 85329, Note_on_c, 0, 65, 58
2, 85330, Note_on_c, 0, 60, 58
2, 85334, Note_on_c, 0, 57, 49
2, 85338, Note_on_c, 0, 53, 24
2, 85340, Note_on_c, 0, 74, 33
2, 85341, Note_on_c, 0, 50, 0
2, 85346, Note_on_c, 0, 57, 0
2, 85348, Note_on_c, 0, 65, 0
2, 85350, Note_on_c, 0, 53, 0
2, 85351, Note_on_c, 0, 60, 0
2, 85354, Note_on_c, 0, 74, 0
2, 85364, Note_on_c, 0, 77, 0
2, 85415, Note_on_c, 0, 59, 66
2, 85415, Note_on_c, 0, 53, 64
2, 85416, Note_on_c, 0, 67, 77
2, 85416, Note_on_c, 0, 76, 70
2, 85417, Note_on_c, 0, 79, 64
2, 85419, Note_on_c, 0, 64, 55
2, 85426, Note_on_c, 0, 67, 0
2, 85426, Note_on_c, 0, 53, 0
2, 85429, Note_on_c, 0, 64, 0
2, 85434, Note_on_c, 0, 59, 0
2, 85438, Note_on_c, 0, 76, 0
2, 85442, Note_on_c, 0, 79, 0
2, 85527, Note_on_c, 0, 68, 85
2, 85528, Note_on_c, 0, 75, 78
2, 85528, Note_on_c, 0, 80, 77
2, 85534, Note_on_c, 0, 53, 88
2, 85535, Note_on_c, 0, 59, 80
2, 85536, Note_on_c, 0, 64, 83
2, 85613, Control_c, 0, 64, 127
2, 85653, Note_on_c, 0, 53, 0
2, 85654, Note_on_c, 0, 64, 0
2, 85658, Note_on_c, 0, 80, 0
2, 85658, Note_on_c, 0, 75, 0
2, 85662, Note_on_c, 0, 68, 0
2, 85667, Note_on_c, 0, 59, 0
2, 85667, Control_c, 0, 64, 0
2, 85690, Note_on_c, 0, 53, 55
2, 85690, Note_on_c, 0, 64, 62
2, 85691, Note_on_c, 0, 59, 68
2, 85691, Note_on_c, 0, 79, 65
2, 85693, Note_on_c, 0, 74, 64
2, 85695, Note_on_c, 0, 67, 51
2, 85705, Note_on_c, 0, 77, 27
2, 85719, Note_on_c, 0, 64, 0
2, 85724, Note_on_c, 0, 74, 0
2, 85726, Note_on_c, 0, 67, 0
2, 85728, Note_on_c, 0, 77, 0
2, 85730, Note_on_c, 0, 79, 0
2, 85731, Note_on_c, 0, 53, 0
2, 85733, Note_on_c, 0, 59, 0
2, 85803, Note_on_c, 0, 59, 61
2, 85804, Note_on_c, 0, 53, 61
2, 85805, Note_on_c, 0, 77, 66
2, 85805, Note_on_c, 0, 64, 53
2, 85809, Note_on_c, 0, 72, 59
2, 85809, Note_on_c, 0, 65, 71
2, 85815, Note_on_c, 0, 59, 0
2, 85816, Note_on_c, 0, 64, 0
2, 85830, Note_on_c, 0, 53, 0
2, 85831, Note_on_c, 0, 65, 0
2, 85832, Note_on_c, 0, 77, 0
2, 85833, Note_on_c, 0, 72, 0
2, 85929, Note_on_c, 0, 48, 48
2, 85931, Note_on_c, 0, 75, 58
2, 85932, Note_on_c, 0, 58, 46
2, 85932, Note_on_c, 0, 55, 55
2, 85935, Control_c, 0, 64, 127
2, 85936, Note_on_c, 0, 63, 48
2, 85936, Note_on_c, 0, 51, 36
2, 85936, Note_on_c, 0, 70, 57
2, 86019, Note_on_c, 0, 48, 0
2, 86027, Note_on_c, 0, 55, 0
2, 86048, Note_on_c, 0, 58, 0
2, 86053, Note_on_c, 0, 51, 0
2, 86055, Note_on_c, 0, 63, 0
2, 86062, Note_on_c, 0, 70, 0
2, 86069, Note_on_c, 0, 75, 0
2, 86161, Control_c, 0, 64, 0
2, 86169, Note_on_c, 0, 50, 39
2, 86171, Note_on_c, 0, 60, 52
2, 86171, Note_on_c, 0, 57, 37
2, 86172, Note_on_c, 0, 72, 57
2, 86172, Note_on_c, 0, 77, 63
2, 86174, Note_on_c, 0, 65, 58
2, 86175, Note_on_c, 0, 53, 40
2, 86263, Control_c, 0, 64, 127
2, 86282, Note_on_c, 0, 53, 0
2, 86287, Note_on_c, 0, 57, 0
2, 86288, Note_on_c, 0, 50, 0
2, 86292, Note_on_c, 0, 65, 0
2, 86298, Note_on_c, 0, 72, 0
2, 86312, Note_on_c, 0, 60, 0
2, 86316, Note_on_c, 0, 77, 0
2, 86395, Control_c, 0, 64, 0
2, 86412, Note_on_c, 0, 79, 60
2, 86412, Note_on_c, 0, 51, 38
2, 86414, Note_on_c, 0, 74, 60
2, 86415, Note_on_c, 0, 67, 53
2, 86416, Note_on_c, 0, 62, 36
2, 86416, Note_on_c, 0, 58, 39
2, 86421, Note_on_c, 0, 55, 39
2, 86467, Control_c, 0, 64, 127
2, 86504, Note_on_c, 0, 67, 0
2, 86510, Note_on_c, 0, 79, 0
2, 86521, Note_on_c, 0, 74, 0
2, 86532, Note_on_c, 0, 62, 0
2, 86532, Note_on_c, 0, 51, 0
2, 86539, Note_on_c, 0, 55, 0
2, 86556, Note_on_c, 0, 58, 0
2, 86600, Control_c, 0, 64, 0
2, 86600, Note_on_c, 0, 52, 62
2, 86603, Note_on_c, 0, 61, 57
2, 86604, Note_on_c, 0, 58, 53
2, 86604, Note_on_c, 0, 81, 70
2, 86605, Note_on_c, 0, 69, 69
2, 86621, Note_on_c, 0, 69, 0
2, 86624, Note_on_c, 0, 61, 0
2, 86629, Note_on_c, 0, 81, 0
2, 86634, Note_on_c, 0, 52, 0
2, 86638, Note_on_c, 0, 58, 0
2, 86730, Note_on_c, 0, 53, 49
2, 86732, Note_on_c, 0, 82, 71
2, 86732, Note_on_c, 0, 63, 52
2, 86733, Note_on_c, 0, 70, 69
2, 86735, Note_on_c, 0, 60, 53
2, 86737, Note_on_c, 0, 58, 44
2, 86787, Control_c, 0, 64, 127
2, 86808, Note_on_c, 0, 60, 0
2, 86811, Note_on_c, 0, 53, 0
2, 86823, Note_on_c, 0, 58, 0
2, 86827, Note_on_c, 0, 63, 0
2, 86839, Note_on_c, 0, 82, 0
2, 86842, Note_on_c, 0, 70, 0
2, 86895, Control_c, 0, 64, 0
2, 86901, Note_on_c, 0, 81, 65
2, 86903, Note_on_c, 0, 65, 53
2, 86905, Note_on_c, 0, 69, 49
2, 86906, Note_on_c, 0, 74, 44
2, 86914, Note_on_c, 0, 62, 43
2, 86915, Note_on_c, 0, 60, 36
2, 86916, Note_on_c, 0, 77, 41
2, 86962, Note_on_c, 0, 65, 0
2, 87008, Note_on_c, 0, 53, 51
2, 87013, Control_c, 0, 64, 127
2, 87017, Note_on_c, 0, 69, 0
2, 87028, Note_on_c, 0, 74, 0
2, 87060, Note_on_c, 0, 77, 0
2, 87071, Note_on_c, 0, 81, 0
2, 87085, Note_on_c, 0, 60, 0
2, 87105, Note_on_c, 0, 62, 0
2, 87205, Note_on_c, 0, 65, 62
2, 87205, Note_on_c, 0, 89, 77
2, 87208, Note_on_c, 0, 62, 50
2, 87209, Note_on_c, 0, 60, 46
2, 87213, Note_on_c, 0, 81, 71
2, 87262, Note_on_c, 0, 60, 0
2, 87273, Note_on_c, 0, 65, 0
2, 87287, Note_on_c, 0, 62, 0
2, 87320, Note_on_c, 0, 89, 0
2, 87323, Note_on_c, 0, 81, 0
2, 87368, Control_c, 0, 64, 0
2, 87368, Note_on_c, 0, 87, 67
2, 87373, Note_on_c, 0, 63, 42
2, 87374, Note_on_c, 0, 82, 43
2, 87374, Note_on_c, 0, 79, 53
2, 87376, Note_on_c, 0, 58, 33
2, 87377, Note_on_c, 0, 65, 38
2, 87467, Control_c, 0, 64, 127
2, 87480, Note_on_c, 0, 87, 0
2, 87491, Note_on_c, 0, 82, 0
2, 87500, Note_on_c, 0, 79, 0
2, 87506, Note_on_c, 0, 58, 0
2, 87511, Note_on_c, 0, 63, 0
2, 87529, Note_on_c, 0, 65, 0
2, 87543, Note_on_c, 0, 53, 0
2, 87572, Note_on_c, 0, 53, 60
2, 87600, Control_c, 0, 64, 0
2, 87607, Note_on_c, 0, 53, 0
2, 87637, Note_on_c, 0, 53, 58
2, 87651, Control_c, 0, 64, 127
2, 87726, Control_c, 0, 64, 0
2, 87741, Note_on_c, 0, 63, 27
2, 87741, Note_on_c, 0, 65, 35
2, 87744, Note_on_c, 0, 78, 39
2, 87748, Note_on_c, 0, 74, 47
2, 87750, Note_on_c, 0, 69, 37
2, 87764, Note_on_c, 0, 69, 0
2, 87764, Note_on_c, 0, 74, 0
2, 87767, Note_on_c, 0, 65, 0
2, 87770, Note_on_c, 0, 63, 0
2, 87775, Note_on_c, 0, 78, 0
2, 87797, Note_on_c, 0, 53, 0
2, 87820, Control_c, 0, 64, 127
2, 87885, Control_c, 0, 64, 0
2, 87896, Note_on_c, 0, 46, 42
2, 88026, Control_c, 0, 64, 127
2, 88055, Note_on_c, 0, 53, 34
2, 88217, Note_on_c, 0, 62, 32
2, 88226, Note_on_c, 0, 69, 36
2, 88228, Note_on_c, 0, 57, 28
2, 88243, Note_on_c, 0, 74, 51
2, 88582, Note_on_c, 0, 46, 0
2, 88596, Note_on_c, 0, 62, 0
2, 88605, Note_on_c, 0, 74, 0
2, 88613, Note_on_c, 0, 69, 0
2, 88619, Note_on_c, 0, 57, 0
2, 88632, Note_on_c, 0, 53, 0
2, 88656, Note_on_c, 0, 46, 48
2, 88697, Note_on_c, 0, 62, 60
2, 88708, Note_on_c, 0, 54, 64
2, 88709, Note_on_c, 0, 69, 66
2, 88716, Note_on_c, 0, 57, 68
2, 88720, Control_c, 0, 64, 0
2, 88727, Note_on_c, 0, 74, 75
2, 88808, Control_c, 0, 64, 127
2, 88871, Note_on_c, 0, 74, 0
2, 88896, Note_on_c, 0, 72, 65
2, 88970, Note_on_c, 0, 69, 0
2, 88988, Note_on_c, 0, 62, 0
2, 89005, Note_on_c, 0, 70, 69
2, 89121, Note_on_c, 0, 72, 0
2, 89133, Note_on_c, 0, 69, 78
2, 89148, Note_on_c, 0, 70, 0
2, 89315, Note_on_c, 0, 67, 58
2, 89339, Note_on_c, 0, 69, 0
2, 89380, Note_on_c, 0, 57, 0
2, 89418, Note_on_c, 0, 46, 0
2, 89436, Note_on_c, 0, 67, 0
2, 89453, Note_on_c, 0, 54, 0
2, 89476, Note_on_c, 0, 66, 56
2, 89480, Note_on_c, 0, 74, 69
2, 89487, Note_on_c, 0, 46, 33
2, 89494, Control_c, 0, 64, 0
2, 89585, Control_c, 0, 64, 127
2, 89589, Note_on_c, 0, 54, 49
2, 89645, Note_on_c, 0, 66, 0
2, 89679, Note_on_c, 0, 66, 35
2, 89681, Note_on_c, 0, 74, 0
2, 89688, Note_on_c, 0, 62, 53
2, 89693, Note_on_c, 0, 57, 26
2, 89745, Note_on_c, 0, 46, 0
2, 89771, Note_on_c, 0, 62, 0
2, 89784, Note_on_c, 0, 74, 55
2, 89826, Note_on_c, 0, 66, 0
2, 89840, Note_on_c, 0, 57, 0
2, 89844, Note_on_c, 0, 74, 0
2, 89885, Note_on_c, 0, 46, 1
2, 89902, Note_on_c, 0, 54, 0
2, 89909, Note_on_c, 0, 74, 48
2, 89911, Note_on_c, 0, 67, 45
2, 89920, Control_c, 0, 64, 0
2, 89921, Note_on_c, 0, 62, 34
2, 89929, Note_on_c, 0, 55, 25
2, 90016, Control_c, 0, 64, 127
2, 90037, Note_on_c, 0, 74, 0
2, 90085, Note_on_c, 0, 72, 45
2, 90172, Note_on_c, 0, 72, 0
2, 90201, Note_on_c, 0, 70, 53
2, 90324, Note_on_c, 0, 70, 0
2, 90335, Note_on_c, 0, 69, 53
2, 90353, Note_on_c, 0, 67, 0
2, 90433, Note_on_c, 0, 62, 0
2, 90451, Note_on_c, 0, 67, 56
2, 90454, Note_on_c, 0, 69, 0
2, 90455, Note_on_c, 0, 55, 0
2, 90471, Note_on_c, 0, 46, 0
2, 90478, Note_on_c, 0, 67, 0
2, 90608, Note_on_c, 0, 63, 29
2, 90611, Control_c, 0, 64, 0
2, 90611, Note_on_c, 0, 46, 26
2, 90613, Note_on_c, 0, 60, 32
2, 90613, Note_on_c, 0, 56, 20
2, 90668, Control_c, 0, 64, 127
2, 90710, Note_on_c, 0, 60, 0
2, 90724, Note_on_c, 0, 46, 0
2, 90727, Note_on_c, 0, 68, 47
2, 90735, Note_on_c, 0, 63, 0
2, 90739, Note_on_c, 0, 56, 0
2, 90755, Note_on_c, 0, 68, 0
2, 90862, Note_on_c, 0, 84, 79
2, 91005, Note_on_c, 0, 77, 47
2, 91008, Note_on_c, 0, 72, 31
2, 91014, Note_on_c, 0, 68, 21
2, 91019, Note_on_c, 0, 63, 26
2, 91033, Note_on_c, 0, 60, 20
2, 91143, Note_on_c, 0, 77, 0
2, 91181, Note_on_c, 0, 72, 0
2, 91215, Note_on_c, 0, 77, 44
2, 91218, Note_on_c, 0, 84, 0
2, 91226, Note_on_c, 0, 72, 15
2, 91369, Note_on_c, 0, 84, 80
2, 91385, Note_on_c, 0, 72, 0
2, 91427, Note_on_c, 0, 68, 0
2, 91430, Note_on_c, 0, 77, 0
2, 91459, Note_on_c, 0, 60, 0
2, 91475, Note_on_c, 0, 84, 0
2, 91503, Note_on_c, 0, 63, 0
2, 91546, Note_on_c, 0, 84, 88
2, 91553, Note_on_c, 0, 56, 34
2, 91557, Note_on_c, 0, 67, 31
2, 91557, Note_on_c, 0, 62, 34
2, 91559, Control_c, 0, 64, 0
2, 91624, Control_c, 0, 64, 127
2, 91695, Note_on_c, 0, 67, 0
2, 91715, Note_on_c, 0, 62, 0
2, 91733, Note_on_c, 0, 56, 0
2, 91885, Note_on_c, 0, 34, 42
2, 91912, Note_on_c, 0, 34, 0
2, 92150, Note_on_c, 0, 84, 0
2, 92177, Note_on_c, 0, 82, 69
2, 92263, Note_on_c, 0, 82, 0
2, 92280, Note_on_c, 0, 80, 77
2, 92286, Note_on_c, 0, 82, 46
2, 92332, Note_on_c, 0, 82, 0
2, 92353, Note_on_c, 0, 80, 0
2, 92387, Note_on_c, 0, 79, 77
2, 92471, Note_on_c, 0, 79, 0
2, 92495, Note_on_c, 0, 77, 79
2, 92609, Note_on_c, 0, 77, 0
2, 92626, Note_on_c, 0, 75, 74
2, 92630, Note_on_c, 0, 63, 43
2, 92633, Note_on_c, 0, 57, 54
2, 92634, Note_on_c, 0, 68, 43
2, 92657, Control_c, 0, 64, 0
2, 92733, Control_c, 0, 64, 127
2, 92769, Note_on_c, 0, 75, 0
2, 92831, Note_on_c, 0, 87, 49
2, 92849, Note_on_c, 0, 88, 27
2, 92862, Note_on_c, 0, 88, 0
2, 93019, Note_on_c, 0, 75, 36
2, 93093, Note_on_c, 0, 87, 0
2, 93173, Note_on_c, 0, 57, 0
2, 93180, Note_on_c, 0, 87, 49
2, 93228, Note_on_c, 0, 68, 0
2, 93248, Note_on_c, 0, 63, 0
2, 93257, Note_on_c, 0, 75, 0
2, 93270, Note_on_c, 0, 87, 0
2, 93378, Note_on_c, 0, 89, 48
2, 93382, Note_on_c, 0, 68, 30
2, 93385, Control_c, 0, 64, 0
2, 93388, Note_on_c, 0, 63, 30
2, 93388, Note_on_c, 0, 84, 38
2, 93390, Note_on_c, 0, 77, 27
2, 93393, Note_on_c, 0, 60, 28
2, 93423, Control_c, 0, 64, 127
2, 93479, Note_on_c, 0, 89, 0
2, 93488, Note_on_c, 0, 84, 0
2, 93529, Note_on_c, 0, 77, 0
2, 93556, Note_on_c, 0, 60, 0
2, 93572, Note_on_c, 0, 58, 35
2, 93576, Note_on_c, 0, 68, 0
2, 93593, Note_on_c, 0, 63, 0
2, 93612, Note_on_c, 0, 58, 0
2, 93916, Note_on_c, 0, 73, 25
2, 93920, Note_on_c, 0, 61, 29
2, 93926, Control_c, 0, 64, 0
2, 93928, Note_on_c, 0, 40, 31
2, 93930, Note_on_c, 0, 66, 34
2, 93931, Note_on_c, 0, 47, 25
2, 93932, Note_on_c, 0, 70, 36
2, 93935, Note_on_c, 0, 52, 20
2, 94040, Control_c, 0, 64, 127
2, 94213, Note_on_c, 0, 40, 0
2, 94215, Note_on_c, 0, 70, 0
2, 94216, Note_on_c, 0, 47, 0
2, 94219, Note_on_c, 0, 52, 0
2, 94222, Note_on_c, 0, 66, 0
2, 94223, Note_on_c, 0, 61, 0
2, 94226, Note_on_c, 0, 73, 0
2, 94440, Note_on_c, 0, 69, 30
2, 94448, Note_on_c, 0, 62, 38
2, 94449, Note_on_c, 0, 39, 30
2, 94451, Note_on_c, 0, 46, 28
2, 94456, Note_on_c, 0, 55, 27
2, 94458, Note_on_c, 0, 57, 24
2, 94463, Control_c, 0, 64, 0
2, 94550, Control_c, 0, 64, 127
2, 94590, Note_on_c, 0, 55, 0
2, 94599, Note_on_c, 0, 57, 0
2, 94636, Note_on_c, 0, 39, 0
2, 94636, Note_on_c, 0, 62, 0
2, 94655, Note_on_c, 0, 46, 0
2, 94687, Note_on_c, 0, 69, 0
2, 94832, Note_on_c, 0, 67, 95
2, 94944, Note_on_c, 0, 67, 0
2, 95017, Note_on_c, 0, 51, 56
2, 95018, Note_on_c, 0, 67, 92
2, 95023, Note_on_c, 0, 59, 45
2, 95042, Control_c, 0, 64, 0
2, 95122, Control_c, 0, 64, 127
2, 95128, Note_on_c, 0, 67, 0
2, 95153, Note_on_c, 0, 67, 74
2, 95210, Note_on_c, 0, 67, 0
2, 95223, Note_on_c, 0, 51, 0
2, 95271, Note_on_c, 0, 67, 75
2, 95277, Note_on_c, 0, 59, 0
2, 95278, Note_on_c, 0, 51, 25
2, 95284, Note_on_c, 0, 60, 46
2, 95290, Control_c, 0, 64, 0
2, 95393, Control_c, 0, 64, 127
2, 95421, Note_on_c, 0, 67, 0
2, 95432, Note_on_c, 0, 65, 58
2, 95530, Note_on_c, 0, 63, 34
2, 95538, Note_on_c, 0, 65, 0
2, 95612, Note_on_c, 0, 63, 0
2, 95630, Note_on_c, 0, 60, 0
2, 95635, Note_on_c, 0, 62, 44
2, 95740, Note_on_c, 0, 62, 0
2, 95749, Note_on_c, 0, 60, 28
2, 95754, Note_on_c, 0, 51, 0
2, 95809, Note_on_c, 0, 60, 0
2, 95888, Note_on_c, 0, 66, 45
2, 95892, Note_on_c, 0, 51, 37
2, 95893, Note_on_c, 0, 63, 35
2, 95900, Control_c, 0, 64, 0
2, 95976, Control_c, 0, 64, 127
2, 96026, Note_on_c, 0, 58, 32
2, 96136, Note_on_c, 0, 63, 0
2, 96140, Note_on_c, 0, 66, 0
2, 96161, Note_on_c, 0, 58, 0
2, 96171, Note_on_c, 0, 63, 54
2, 96171, Note_on_c, 0, 66, 60
2, 96176, Note_on_c, 0, 59, 40
2, 96193, Control_c, 0, 64, 0
2, 96254, Control_c, 0, 64, 127
2, 96265, Note_on_c, 0, 66, 0
2, 96281, Note_on_c, 0, 63, 0
2, 96293, Note_on_c, 0, 66, 65
2, 96349, Note_on_c, 0, 59, 0
2, 96366, Note_on_c, 0, 66, 0
2, 96418, Note_on_c, 0, 66, 64
2, 96420, Note_on_c, 0, 63, 64
2, 96422, Control_c, 0, 64, 0
2, 96424, Note_on_c, 0, 60, 43
2, 96482, Control_c, 0, 64, 127
2, 96541, Note_on_c, 0, 60, 0
2, 96544, Note_on_c, 0, 66, 0
2, 96552, Note_on_c, 0, 63, 0
2, 96563, Note_on_c, 0, 65, 62
2, 96578, Note_on_c, 0, 51, 0
2, 96670, Note_on_c, 0, 63, 35
2, 96784, Note_on_c, 0, 65, 0
2, 96812, Note_on_c, 0, 63, 0
2, 96835, Note_on_c, 0, 41, 39
2, 96835, Note_on_c, 0, 61, 40
2, 96843, Note_on_c, 0, 51, 20
2, 96860, Control_c, 0, 64, 0
2, 96947, Control_c, 0, 64, 127
2, 97102, Note_on_c, 0, 41, 0
2, 97135, Note_on_c, 0, 61, 0
2, 97162, Note_on_c, 0, 51, 0
2, 97189, Note_on_c, 0, 60, 53
2, 97215, Note_on_c, 0, 60, 0
2, 97411, Note_on_c, 0, 74, 67
2, 97417, Note_on_c, 0, 50, 47
2, 97422, Note_on_c, 0, 62, 64
2, 97424, Note_on_c, 0, 58, 27
2, 97428, Control_c, 0, 64, 0
2, 97504, Control_c, 0, 64, 127
2, 97510, Note_on_c, 0, 58, 0
2, 97562, Note_on_c, 0, 58, 46
2, 97572, Note_on_c, 0, 62, 0
2, 97665, Note_on_c, 0, 74, 0
2, 97686, Note_on_c, 0, 70, 57
2, 97690, Note_on_c, 0, 62, 50
2, 97723, Note_on_c, 0, 50, 0
2, 97786, Note_on_c, 0, 62, 0
2, 97788, Note_on_c, 0, 70, 0
2, 97817, Note_on_c, 0, 50, 43
2, 97840, Note_on_c, 0, 58, 0
2, 97860, Note_on_c, 0, 50, 0
2, 98003, Note_on_c, 0, 81, 55
2, 98006, Note_on_c, 0, 74, 48
2, 98007, Control_c, 0, 64, 0
2, 98008, Note_on_c, 0, 69, 36
2, 98009, Note_on_c, 0, 67, 43
2, 98013, Note_on_c, 0, 39, 35
2, 98122, Control_c, 0, 64, 127
2, 98161, Note_on_c, 0, 39, 0
2, 98179, Note_on_c, 0, 46, 38
2, 98186, Note_on_c, 0, 67, 0
2, 98215, Note_on_c, 0, 81, 0
2, 98222, Note_on_c, 0, 74, 0
2, 98226, Note_on_c, 0, 69, 0
2, 98353, Note_on_c, 0, 74, 48
2, 98359, Note_on_c, 0, 46, 0
2, 98360, Note_on_c, 0, 67, 40
2, 98363, Note_on_c, 0, 77, 36
2, 98371, Note_on_c, 0, 55, 33
2, 98521, Note_on_c, 0, 77, 0
2, 98570, Note_on_c, 0, 58, 32
2, 98574, Note_on_c, 0, 55, 0
2, 98575, Note_on_c, 0, 67, 0
2, 98617, Note_on_c, 0, 74, 0
2, 98668, Note_on_c, 0, 58, 0
2, 98822, Note_on_c, 0, 50, 70
2, 98830, Control_c, 0, 64, 0
2, 98859, Note_on_c, 0, 50, 0
2, 98861, Control_c, 0, 64, 127
2, 99015, Note_on_c, 0, 60, 68
2, 99015, Note_on_c, 0, 54, 67
2, 99016, Note_on_c, 0, 81, 80
2, 99017, Note_on_c, 0, 65, 75
2, 99017, Note_on_c, 0, 77, 79
2, 99018, Note_on_c, 0, 72, 79
2, 99040, Control_c, 0, 64, 0
2, 99098, Control_c, 0, 64, 127
2, 99235, Note_on_c, 0, 81, 0
2, 99287, Note_on_c, 0, 81, 65
2, 99416, Note_on_c, 0, 77, 0
2, 99530, Note_on_c, 0, 65, 0
2, 99546, Note_on_c, 0, 60, 0
2, 99566, Note_on_c, 0, 54, 0
2, 99599, Note_on_c, 0, 77, 48
2, 99695, Note_on_c, 0, 72, 0
2, 99707, Note_on_c, 0, 81, 0
2, 99748, Note_on_c, 0, 77, 0
2, 99826, Control_c, 0, 64, 0
2, 99829, Note_on_c, 0, 81, 66
2, 99832, Note_on_c, 0, 43, 44
2, 99856, Control_c, 0, 64, 127
2, 99876, Note_on_c, 0, 43, 0
2, 100137, Note_on_c, 0, 81, 0
2, 100172, Note_on_c, 0, 79, 34
2, 100225, Note_on_c, 0, 79, 0
2, 100232, Note_on_c, 0, 78, 21
2, 100272, Note_on_c, 0, 78, 0
2, 100287, Note_on_c, 0, 77, 31
2, 100298, Control_c, 0, 64, 0
2, 100310, Note_on_c, 0, 53, 20
2, 100311, Note_on_c, 0, 59, 29
2, 100313, Note_on_c, 0, 64, 17
2, 100397, Control_c, 0, 64, 127
2, 100723, Note_on_c, 0, 68, 29
2, 100769, Note_on_c, 0, 77, 0
2, 100778, Note_on_c, 0, 64, 0
2, 100796, Note_on_c, 0, 59, 0
2, 100823, Note_on_c, 0, 53, 0
2, 100861, Note_on_c, 0, 68, 0
2, 100967, Note_on_c, 0, 82, 49
2, 100983, Note_on_c, 0, 48, 30
2, 100992, Control_c, 0, 64, 0
2, 101053, Control_c, 0, 64, 127
2, 101125, Note_on_c, 0, 48, 0
2, 101214, Note_on_c, 0, 58, 37
2, 101381, Note_on_c, 0, 58, 0
2, 101392, Note_on_c, 0, 62, 48
2, 101545, Note_on_c, 0, 63, 56
2, 101555, Note_on_c, 0, 62, 0
2, 101606, Note_on_c, 0, 63, 0
2, 101707, Note_on_c, 0, 82, 0
2, 101763, Note_on_c, 0, 53, 46
2, 101764, Note_on_c, 0, 63, 38
2, 101769, Note_on_c, 0, 82, 48
2, 101770, Note_on_c, 0, 58, 55
2, 101776, Note_on_c, 0, 75, 61
2, 101777, Control_c, 0, 64, 0
2, 101785, Note_on_c, 0, 70, 47
2, 101853, Control_c, 0, 64, 127
2, 101972, Note_on_c, 0, 82, 0
2, 102038, Note_on_c, 0, 70, 0
2, 102041, Note_on_c, 0, 75, 0
2, 102063, Note_on_c, 0, 81, 67
2, 102070, Note_on_c, 0, 77, 61
2, 102077, Note_on_c, 0, 60, 30
2, 102182, Note_on_c, 0, 81, 0
2, 102187, Note_on_c, 0, 77, 0
2, 102197, Note_on_c, 0, 75, 64
2, 102198, Note_on_c, 0, 79, 64
2, 102203, Note_on_c, 0, 63, 0
2, 102213, Note_on_c, 0, 60, 0
2, 102223, Note_on_c, 0, 53, 0
2, 102225, Note_on_c, 0, 58, 0
2, 102272, Note_on_c, 0, 79, 0
2, 102293, Note_on_c, 0, 75, 0
2, 102483, Note_on_c, 0, 77, 55
2, 102487, Note_on_c, 0, 51, 38
2, 102495, Note_on_c, 0, 70, 31
2, 102497, Control_c, 0, 64, 0
2, 102500, Note_on_c, 0, 67, 36
2, 102510, Note_on_c, 0, 60, 24
2, 102565, Control_c, 0, 64, 127
2, 102638, Note_on_c, 0, 67, 0
2, 102655, Note_on_c, 0, 77, 0
2, 102692, Note_on_c, 0, 60, 0
2, 102762, Note_on_c, 0, 70, 0
2, 102817, Note_on_c, 0, 69, 47
2, 102825, Note_on_c, 0, 65, 31
2, 102829, Note_on_c, 0, 60, 24
2, 102875, Note_on_c, 0, 65, 0
2, 102893, Note_on_c, 0, 69, 0
2, 102994, Note_on_c, 0, 83, 66
2, 102995, Note_on_c, 0, 84, 64
2, 103045, Note_on_c, 0, 83, 0
2, 103124, Note_on_c, 0, 60, 0
2, 103154, Note_on_c, 0, 51, 0
2, 103169, Note_on_c, 0, 84, 0
2, 103188, Note_on_c, 0, 81, 66
2, 103192, Note_on_c, 0, 72, 29
2, 103196, Note_on_c, 0, 77, 36
2, 103200, Note_on_c, 0, 60, 31
2, 103201, Note_on_c, 0, 50, 29
2, 103206, Control_c, 0, 64, 0
2, 103290, Control_c, 0, 64, 127
2, 103323, Note_on_c, 0, 81, 0
2, 103329, Note_on_c, 0, 77, 0
2, 103332, Note_on_c, 0, 57, 48
2, 103341, Note_on_c, 0, 72, 0
2, 103441, Note_on_c, 0, 60, 0
2, 103468, Note_on_c, 0, 69, 80
2, 103469, Note_on_c, 0, 65, 73
2, 103471, Note_on_c, 0, 60, 38
2, 103574, Note_on_c, 0, 50, 0
2, 103586, Note_on_c, 0, 65, 0
2, 103597, Note_on_c, 0, 69, 0
2, 103636, Note_on_c, 0, 69, 60
2, 103643, Note_on_c, 0, 50, 46
2, 103652, Note_on_c, 0, 60, 0
2, 103659, Note_on_c, 0, 57, 0
2, 103705, Note_on_c, 0, 50, 0
2, 103713, Note_on_c, 0, 69, 0
2, 103839, Note_on_c, 0, 63, 44
2, 103848, Note_on_c, 0, 69, 40
2, 103849, Note_on_c, 0, 59, 36
2, 103856, Note_on_c, 0, 63, 0
2, 103856, Note_on_c, 0, 53, 45
2, 103859, Note_on_c, 0, 43, 44
2, 103860, Note_on_c, 0, 64, 58
2, 103861, Control_c, 0, 64, 0
2, 103965, Note_on_c, 0, 64, 0
2, 104006, Note_on_c, 0, 63, 43
2, 104017, Control_c, 0, 64, 127
2, 104147, Note_on_c, 0, 63, 0
2, 104156, Note_on_c, 0, 69, 0
2, 104161, Note_on_c, 0, 62, 57
2, 104174, Control_c, 0, 64, 0
2, 104235, Control_c, 0, 64, 127
2, 104303, Note_on_c, 0, 67, 60
2, 104389, Note_on_c, 0, 67, 0
2, 104408, Note_on_c, 0, 59, 0
2, 104410, Note_on_c, 0, 65, 58
2, 104454, Note_on_c, 0, 62, 0
2, 104457, Note_on_c, 0, 53, 0
2, 104463, Note_on_c, 0, 43, 0
2, 104530, Note_on_c, 0, 65, 0
2, 104566, Note_on_c, 0, 63, 34
2, 104567, Note_on_c, 0, 43, 31
2, 104571, Note_on_c, 0, 59, 31
2, 104578, Note_on_c, 0, 53, 29
2, 104585, Control_c, 0, 64, 0
2, 104707, Control_c, 0, 64, 127
2, 104965, Note_on_c, 0, 53, 0
2, 104971, Note_on_c, 0, 43, 0
2, 104989, Note_on_c, 0, 59, 0
2, 105103, Note_on_c, 0, 63, 0
2, 105105, Note_on_c, 0, 62, 40
2, 105444, Note_on_c, 0, 62, 0
2, 105639, Note_on_c, 0, 74, 50
2, 105643, Note_on_c, 0, 48, 32
2, 105648, Note_on_c, 0, 67, 40
2, 105649, Note_on_c, 0, 63, 33
2, 105653, Note_on_c, 0, 58, 20
2, 105656, Control_c, 0, 64, 0
2, 105744, Control_c, 0, 64, 127
2, 105796, Note_on_c, 0, 74, 0
2, 105840, Note_on_c, 0, 74, 38
2, 105861, Note_on_c, 0, 67, 0
2, 105868, Note_on_c, 0, 48, 0
2, 105876, Note_on_c, 0, 63, 0
2, 105906, Note_on_c, 0, 74, 0
2, 105922, Note_on_c, 0, 58, 0
2, 106250, Control_c, 0, 64, 127
2, 106333, Control_c, 0, 64, 0
2, 106496, Note_on_c, 0, 79, 44
2, 106513, Note_on_c, 0, 50, 31
2, 106517, Note_on_c, 0, 72, 24
2, 106517, Note_on_c, 0, 67, 37
2, 106518, Note_on_c, 0, 65, 37
2, 106523, Note_on_c, 0, 60, 26
2, 106524, Note_on_c, 0, 57, 35
2, 106525, Control_c, 0, 64, 0
2, 106632, Control_c, 0, 64, 127
2, 106685, Note_on_c, 0, 79, 0
2, 106731, Note_on_c, 0, 79, 54
2, 106754, Note_on_c, 0, 65, 0
2, 106770, Note_on_c, 0, 67, 0
2, 106795, Note_on_c, 0, 50, 0
2, 106812, Note_on_c, 0, 60, 0
2, 106827, Note_on_c, 0, 57, 0
2, 106842, Note_on_c, 0, 79, 0
2, 106847, Note_on_c, 0, 72, 0
2, 106979, Note_on_c, 0, 77, 49
2, 106986, Note_on_c, 0, 70, 31
2, 106990, Note_on_c, 0, 67, 32
2, 106995, Note_on_c, 0, 51, 29
2, 106998, Control_c, 0, 64, 0
2, 107005, Note_on_c, 0, 58, 23
2, 107012, Note_on_c, 0, 62, 32
2, 107089, Control_c, 0, 64, 127
2, 107271, Note_on_c, 0, 77, 0
2, 107297, Note_on_c, 0, 70, 0
2, 107302, Note_on_c, 0, 67, 0
2, 107309, Note_on_c, 0, 75, 73
2, 107475, Note_on_c, 0, 62, 0
2, 107485, Note_on_c, 0, 75, 0
2, 107492, Note_on_c, 0, 51, 0
2, 107506, Note_on_c, 0, 74, 68
2, 107511, Note_on_c, 0, 58, 0
2, 107699, Note_on_c, 0, 74, 0
2, 107908, Note_on_c, 0, 72, 40
2, 107913, Note_on_c, 0, 69, 42
2, 107914, Note_on_c, 0, 53, 24
2, 107915, Note_on_c, 0, 63, 18
2, 107915, Note_on_c, 0, 65, 27
2, 107917, Note_on_c, 0, 58, 25
2, 107931, Control_c, 0, 64, 0
2, 108061, Control_c, 0, 64, 127
2, 108199, Note_on_c, 0, 60, 24
2, 108346, Note_on_c, 0, 65, 0
2, 108374, Note_on_c, 0, 69, 0
2, 108402, Note_on_c, 0, 63, 0
2, 108659, Note_on_c, 0, 70, 39
2, 108671, Note_on_c, 0, 63, 11
2, 108692, Note_on_c, 0, 72, 0
2, 108830, Note_on_c, 0, 53, 0
2, 108835, Note_on_c, 0, 63, 0
2, 108845, Note_on_c, 0, 60, 0
2, 108884, Note_on_c, 0, 58, 0
2, 108947, Note_on_c, 0, 70, 0
2, 108962, Control_c, 0, 64, 127
2, 109158, Control_c, 0, 64, 0
2, 109244, Note_on_c, 0, 77, 54
2, 109262, Note_on_c, 0, 58, 31
2, 109433, Control_c, 0, 64, 127
2, 109445, Note_on_c, 0, 65, 33
2, 109582, Note_on_c, 0, 77, 0
2, 109616, Note_on_c, 0, 69, 22
2, 109635, Note_on_c, 0, 72, 14
2, 109661, Note_on_c, 0, 65, 0
2, 109736, Note_on_c, 0, 72, 0
2, 109747, Note_on_c, 0, 69, 0
2, 109773, Note_on_c, 0, 65, 19
2, 109876, Note_on_c, 0, 65, 0
2, 109928, Note_on_c, 0, 77, 33
2, 109935, Note_on_c, 0, 74, 37
2, 109940, Note_on_c, 0, 69, 31
2, 109941, Note_on_c, 0, 70, 25
2, 109959, Note_on_c, 0, 65, 15
2, 110070, Note_on_c, 0, 65, 0
2, 110185, Note_on_c, 0, 65, 20
2, 110454, Note_on_c, 0, 77, 0
2, 110504, Note_on_c, 0, 77, 43
2, 110656, Note_on_c, 0, 77, 0
2, 110711, Note_on_c, 0, 69, 0
2, 110723, Note_on_c, 0, 74, 0
2, 110725, Note_on_c, 0, 77, 43
2, 110738, Note_on_c, 0, 70, 0
2, 110767, Note_on_c, 0, 65, 0
2, 110784, Note_on_c, 0, 58, 0
2, 110935, Note_on_c, 0, 77, 0
2, 111142, Control_c, 0, 64, 0
2, 111149, Note_on_c, 0, 67, 47
2, 111154, Note_on_c, 0, 77, 48
2, 111155, Note_on_c, 0, 81, 58
2, 111159, Note_on_c, 0, 72, 36
2, 111176, Control_c, 0, 64, 127
2, 111223, Note_on_c, 0, 72, 0
2, 111237, Note_on_c, 0, 81, 0
2, 111274, Note_on_c, 0, 77, 0
2, 111288, Note_on_c, 0, 67, 0
2, 111298, Note_on_c, 0, 79, 44
2, 111299, Note_on_c, 0, 75, 47
2, 111304, Note_on_c, 0, 65, 31
2, 111307, Note_on_c, 0, 70, 25
2, 111389, Note_on_c, 0, 70, 0
2, 111391, Note_on_c, 0, 65, 0
2, 111395, Note_on_c, 0, 75, 0
2, 111401, Note_on_c, 0, 79, 0
2, 111475, Note_on_c, 0, 65, 33
2, 111475, Note_on_c, 0, 79, 46
2, 111481, Note_on_c, 0, 75, 32
2, 111481, Note_on_c, 0, 70, 27
2, 111516, Note_on_c, 0, 79, 0
2, 111540, Note_on_c, 0, 75, 0
2, 111553, Note_on_c, 0, 70, 0
2, 111603, Note_on_c, 0, 65, 0
2, 111621, Control_c, 0, 64, 0
2, 111623, Note_on_c, 0, 77, 53
2, 111633, Note_on_c, 0, 73, 26
2, 111662, Control_c, 0, 64, 127
2, 111704, Note_on_c, 0, 73, 0
2, 111725, Note_on_c, 0, 77, 0
2, 111785, Note_on_c, 0, 77, 35
2, 111792, Note_on_c, 0, 73, 31
2, 111793, Note_on_c, 0, 63, 23
2, 111794, Control_c, 0, 64, 0
2, 111795, Note_on_c, 0, 68, 25
2, 111828, Control_c, 0, 64, 127
2, 111933, Note_on_c, 0, 77, 0
2, 111944, Note_on_c, 0, 68, 0
2, 111948, Note_on_c, 0, 73, 0
2, 112001, Note_on_c, 0, 75, 42
2, 112005, Note_on_c, 0, 63, 0
2, 112012, Note_on_c, 0, 66, 25
2, 112012, Note_on_c, 0, 61, 33
2, 112017, Note_on_c, 0, 71, 46
2, 112039, Control_c, 0, 64, 0
2, 112130, Control_c, 0, 64, 127
2, 112217, Note_on_c, 0, 71, 0
2, 112218, Note_on_c, 0, 66, 0
2, 112224, Note_on_c, 0, 61, 0
2, 112242, Note_on_c, 0, 75, 0
2, 112283, Note_on_c, 0, 74, 66
2, 112285, Note_on_c, 0, 60, 48
2, 112286, Note_on_c, 0, 70, 57
2, 112288, Control_c, 0, 64, 0
2, 112288, Note_on_c, 0, 65, 54
2, 112326, Control_c, 0, 64, 127
2, 112336, Note_on_c, 0, 74, 0
2, 112353, Note_on_c, 0, 65, 0
2, 112366, Note_on_c, 0, 70, 0
2, 112416, Control_c, 0, 64, 0
2, 112424, Note_on_c, 0, 60, 0
2, 112424, Note_on_c, 0, 72, 47
2, 112426, Note_on_c, 0, 68, 56
2, 112429, Note_on_c, 0, 63, 42
2, 112430, Note_on_c, 0, 58, 43
2, 112446, Control_c, 0, 64, 127
2, 112517, Note_on_c, 0, 63, 0
2, 112531, Note_on_c, 0, 72, 0
2, 112536, Note_on_c, 0, 68, 0
2, 112573, Note_on_c, 0, 58, 0
2, 112764, Note_on_c, 0, 70, 50
2, 112769, Note_on_c, 0, 61, 34
2, 112770, Note_on_c, 0, 66, 43
2, 112772, Note_on_c, 0, 56, 33
2, 112778, Control_c, 0, 64, 0
2, 112820, Control_c, 0, 64, 127
2, 112926, Note_on_c, 0, 61, 0
2, 112945, Note_on_c, 0, 66, 0
2, 112952, Note_on_c, 0, 70, 0
2, 112976, Note_on_c, 0, 56, 0
2, 112997, Note_on_c, 0, 69, 52
2, 112998, Note_on_c, 0, 65, 49
2, 113004, Note_on_c, 0, 55, 27
2, 113005, Note_on_c, 0, 60, 37
2, 113008, Control_c, 0, 64, 0
2, 113069, Control_c, 0, 64, 127
2, 113087, Note_on_c, 0, 69, 0
2, 113116, Note_on_c, 0, 65, 0
2, 113134, Note_on_c, 0, 60, 0
2, 113199, Note_on_c, 0, 55, 0
2, 113212, Note_on_c, 0, 53, 32
2, 113213, Note_on_c, 0, 63, 36
2, 113215, Note_on_c, 0, 67, 37
2, 113219, Control_c, 0, 64, 0
2, 113222, Note_on_c, 0, 58, 17
2, 113264, Control_c, 0, 64, 127
2, 113269, Note_on_c, 0, 67, 0
2, 113308, Note_on_c, 0, 63, 0
2, 113321, Note_on_c, 0, 58, 0
2, 113405, Note_on_c, 0, 53, 0
2, 113408, Note_on_c, 0, 56, 31
2, 113410, Note_on_c, 0, 61, 43
2, 113412, Note_on_c, 0, 65, 52
2, 113416, Control_c, 0, 64, 0
2, 113416, Note_on_c, 0, 51, 25
2, 113461, Control_c, 0, 64, 127
2, 113512, Note_on_c, 0, 65, 0
2, 113545, Note_on_c, 0, 61, 0
2, 113551, Note_on_c, 0, 56, 0
2, 113606, Note_on_c, 0, 51, 0
2, 113868, Control_c, 0, 64, 0
2, 113882, Note_on_c, 0, 54, 25
2, 113883, Note_on_c, 0, 63, 34
2, 113888, Note_on_c, 0, 59, 37
2, 113893, Note_on_c, 0, 49, 28
2, 113928, Control_c, 0, 64, 127
2, 114009, Note_on_c, 0, 59, 0
2, 114063, Note_on_c, 0, 54, 0
2, 114072, Note_on_c, 0, 63, 0
2, 114122, Note_on_c, 0, 49, 0
2, 114292, Note_on_c, 0, 61, 26
2, 114300, Note_on_c, 0, 57, 36
2, 114301, Note_on_c, 0, 47, 26
2, 114302, Control_c, 0, 64, 0
2, 114304, Note_on_c, 0, 52, 22
2, 114407, Control_c, 0, 64, 127
2, 114535, Note_on_c, 0, 52, 0
2, 114535, Note_on_c, 0, 47, 0
2, 114571, Note_on_c, 0, 57, 0
2, 114669, Note_on_c, 0, 61, 0
2, 115377, Note_on_c, 0, 64, 34
2, 115381, Note_on_c, 0, 58, 29
2, 115384, Note_on_c, 0, 57, 22
2, 115386, Note_on_c, 0, 34, 25
2, 115389, Note_on_c, 0, 62, 35
2, 115399, Control_c, 0, 64, 0
2, 115459, Control_c, 0, 64, 127
2, 115479, Note_on_c, 0, 57, 0
2, 115497, Note_on_c, 0, 58, 0
2, 115508, Note_on_c, 0, 62, 0
2, 115524, Note_on_c, 0, 64, 0
2, 115536, Note_on_c, 0, 34, 0
2, 115665, Note_on_c, 0, 69, 24
2, 115931, Note_on_c, 0, 69, 0
2, 116106, Note_on_c, 0, 76, 51
2, 116232, Note_on_c, 0, 76, 0
2, 116232, Note_on_c, 0, 75, 50
2, 116297, Note_on_c, 0, 75, 0
2, 116316, Note_on_c, 0, 74, 38
2, 116369, Note_on_c, 0, 74, 0
2, 116400, Note_on_c, 0, 86, 70
2, 116423, Note_on_c, 0, 46, 21
2, 116444, Note_on_c, 0, 46, 0
2, 116493, Note_on_c, 0, 86, 0
2, 116498, Note_on_c, 0, 81, 34
2, 116558, Note_on_c, 0, 81, 0
2, 116583, Note_on_c, 0, 86, 50
2, 116599, Note_on_c, 0, 65, 27
2, 116601, Note_on_c, 0, 62, 26
2, 116615, Note_on_c, 0, 60, 29
2, 116646, Note_on_c, 0, 86, 0
2, 116695, Note_on_c, 0, 93, 64
2, 116788, Note_on_c, 0, 93, 0
2, 116790, Note_on_c, 0, 89, 35
2, 116804, Note_on_c, 0, 65, 0
2, 116834, Note_on_c, 0, 62, 0
2, 116838, Note_on_c, 0, 60, 0
2, 116879, Note_on_c, 0, 91, 40
2, 116881, Note_on_c, 0, 89, 0
2, 116954, Note_on_c, 0, 91, 0
2, 116957, Note_on_c, 0, 93, 51
2, 116982, Note_on_c, 0, 93, 0
2, 117038, Note_on_c, 0, 98, 53
2, 117079, Note_on_c, 0, 98, 0
2, 117138, Note_on_c, 0, 108, 57
2, 117232, Note_on_c, 0, 108, 0
2, 117259, Note_on_c, 0, 105, 35
2, 117328, Note_on_c, 0, 105, 0
2, 117386, Note_on_c, 0, 105, 24
2, 117394, Note_on_c, 0, 46, 21
2, 117398, Note_on_c, 0, 98, 24
2, 117452, Note_on_c, 0, 46, 0
2, 117554, Note_on_c, 0, 108, 45
2, 117650, Note_on_c, 0, 108, 0
2, 117728, Note_on_c, 0, 105, 0
2, 117740, Note_on_c, 0, 108, 40
2, 117743, Note_on_c, 0, 98, 0
2, 117750, Note_on_c, 0, 22, 31
2, 117806, Note_on_c, 0, 108, 0
2, 117873, Note_on_c, 0, 22, 0
2, 119645, Control_c, 0, 64, 0
2, 119645, End_track
3, 0, Start_track
3, 0, Title_t, ""
3, 0, Program_c, 1, 32
3, 49441, Note_on_c, 1, 46, 27
3, 49686, Note_on_c, 1, 34, 39
3, 49813, Note_on_c, 1, 46, 0
3, 50163, Note_on_c, 1, 40, 46
3, 50231, Note_on_c, 1, 40, 0
3, 50250, Note_on_c, 1, 41, 40
3, 50394, Note_on_c, 1, 41, 0
3, 50407, Note_on_c, 1, 42, 50
3, 50426, Note_on_c, 1, 34, 0
3, 50598, Note_on_c, 1, 34, 46
3, 50642, Note_on_c, 1, 42, 0
3, 50998, Note_on_c, 1, 43, 76
3, 51195, Note_on_c, 1, 43, 0
3, 51197, Note_on_c, 1, 42, 49
3, 51227, Note_on_c, 1, 42, 0
3, 51242, Note_on_c, 1, 43, 58
3, 51306, Note_on_c, 1, 43, 0
3, 51362, Note_on_c, 1, 44, 62
3, 51437, Note_on_c, 1, 34, 0
3, 51550, Note_on_c, 1, 34, 69
3, 51767, Note_on_c, 1, 44, 0
3, 51842, Note_on_c, 1, 44, 51
3, 51934, Note_on_c, 1, 44, 0
3, 51959, Note_on_c, 1, 44, 55
3, 52290, Note_on_c, 1, 34, 0
3, 52308, Note_on_c, 1, 44, 0
3, 52308, Note_on_c, 1, 41, 32
3, 52325, Note_on_c, 1, 41, 0
3, 52326, Note_on_c, 1, 47, 58
3, 52565, Note_on_c, 1, 42, 50
3, 52574, Note_on_c, 1, 47, 0
3, 52768, Note_on_c, 1, 35, 24
3, 52778, Note_on_c, 1, 42, 0
3, 52795, Note_on_c, 1, 35, 0
3, 52809, Note_on_c, 1, 46, 40
3, 53002, Note_on_c, 1, 37, 27
3, 53027, Note_on_c, 1, 46, 0
3, 53034, Note_on_c, 1, 37, 0
3, 53042, Note_on_c, 1, 40, 41
3, 53280, Note_on_c, 1, 40, 0
3, 53288, Note_on_c, 1, 39, 44
3, 53609, Note_on_c, 1, 46, 31
3, 53629, Note_on_c, 1, 46, 0
3, 53656, Note_on_c, 1, 47, 46
3, 53727, Note_on_c, 1, 47, 0
3, 53736, Note_on_c, 1, 48, 75
3, 53817, Note_on_c, 1, 39, 0
3, 53953, Note_on_c, 1, 48, 0
3, 53955, Note_on_c, 1, 47, 44
3, 53991, Note_on_c, 1, 47, 0
3, 54012, Note_on_c, 1, 46, 25
3, 54126, Note_on_c, 1, 39, 69
3, 54135, Note_on_c, 1, 46, 0
3, 54189, Note_on_c, 1, 39, 0
3, 54204, Note_on_c, 1, 39, 74
3, 54324, Note_on_c, 1, 46, 59
3, 54361, Note_on_c, 1, 46, 0
3, 54362, Note_on_c, 1, 39, 0
3, 54373, Note_on_c, 1, 47, 34
3, 54464, Note_on_c, 1, 39, 29
3, 54480, Note_on_c, 1, 47, 0
3, 54487, Note_on_c, 1, 39, 0
3, 54495, Note_on_c, 1, 48, 56
3, 54596, Note_on_c, 1, 48, 0
3, 54609, Note_on_c, 1, 47, 39
3, 54698, Note_on_c, 1, 47, 0
3, 54733, Note_on_c, 1, 46, 39
3, 54931, Note_on_c, 1, 39, 25
3, 54953, Note_on_c, 1, 46, 0
3, 54955, Note_on_c, 1, 39, 0
3, 54967, Note_on_c, 1, 41, 34
3, 55186, Note_on_c, 1, 41, 0
3, 55201, Note_on_c, 1, 34, 42
3, 55552, Note_on_c, 1, 34, 0
3, 55580, Note_on_c, 1, 39, 65
3, 55751, Note_on_c, 1, 39, 0
3, 55768, Note_on_c, 1, 38, 48
3, 55926, Note_on_c, 1, 38, 0
3, 55929, Note_on_c, 1, 31, 57
3, 56102, Note_on_c, 1, 36, 73
3, 56122, Note_on_c, 1, 31, 0
3, 56241, Note_on_c, 1, 32, 29
3, 56262, Note_on_c, 1, 36, 0
3, 56268, Note_on_c, 1, 32, 0
3, 56281, Note_on_c, 1, 38, 91
3, 56534, Note_on_c, 1, 39, 53
3, 56543, Note_on_c, 1, 38, 0
3, 56612, Note_on_c, 1, 39, 0
3, 56656, Note_on_c, 1, 39, 57
3, 56745, Note_on_c, 1, 39, 0
3, 56764, Note_on_c, 1, 40, 40
3, 56825, Note_on_c, 1, 40, 0
3, 56838, Note_on_c, 1, 41, 57
3, 56995, Note_on_c, 1, 41, 0
3, 57004, Note_on_c, 1, 33, 35
3, 57097, Note_on_c, 1, 33, 0
3, 57123, Note_on_c, 1, 34, 37
3, 57321, Note_on_c, 1, 40, 39
3, 57489, Note_on_c, 1, 40, 0
3, 57501, Note_on_c, 1, 41, 81
3, 57610, Note_on_c, 1, 34, 0
3, 57697, Note_on_c, 1, 34, 38
3, 57814, Note_on_c, 1, 41, 0
3, 57969, Note_on_c, 1, 42, 82
3, 58154, Note_on_c, 1, 34, 0
3, 58334, Note_on_c, 1, 34, 48
3, 58385, Note_on_c, 1, 34, 0
3, 58407, Note_on_c, 1, 34, 57
3, 58436, Note_on_c, 1, 42, 0
3, 58532, Note_on_c, 1, 43, 94
3, 58558, Note_on_c, 1, 34, 0
3, 58766, Note_on_c, 1, 34, 42
3, 58784, Note_on_c, 1, 34, 0
3, 58813, Note_on_c, 1, 34, 50
3, 58875, Note_on_c, 1, 34, 0
3, 58891, Note_on_c, 1, 34, 53
3, 58897, Note_on_c, 1, 43, 0
3, 59004, Note_on_c, 1, 44, 82
3, 59021, Note_on_c, 1, 34, 0
3, 59298, Note_on_c, 1, 44, 0
3, 59299, Note_on_c, 1, 34, 37
3, 59494, Note_on_c, 1, 46, 57
3, 59531, Note_on_c, 1, 46, 0
3, 59533, Note_on_c, 1, 34, 0
3, 59546, Note_on_c, 1, 44, 59
3, 59724, Note_on_c, 1, 34, 33
3, 59760, Note_on_c, 1, 34, 0
3, 59774, Note_on_c, 1, 41, 42
3, 59786, Note_on_c, 1, 44, 0
3, 59965, Note_on_c, 1, 35, 32
3, 59977, Note_on_c, 1, 41, 0
3, 59978, Note_on_c, 1, 35, 0
3, 60001, Note_on_c, 1, 47, 58
3, 60246, Note_on_c, 1, 47, 0
3, 60249, Note_on_c, 1, 42, 34
3, 60330, Note_on_c, 1, 35, 54
3, 60344, Note_on_c, 1, 42, 0
3, 60487, Note_on_c, 1, 35, 0
3, 60492, Note_on_c, 1, 34, 47
3, 60733, Note_on_c, 1, 52, 81
3, 60892, Note_on_c, 1, 34, 0
3, 60920, Note_on_c, 1, 38, 32
3, 60935, Note_on_c, 1, 38, 0
3, 60946, Note_on_c, 1, 52, 0
3, 60966, Note_on_c, 1, 51, 60
3, 61199, Note_on_c, 1, 51, 0
3, 61208, Note_on_c, 1, 47, 51
3, 61400, Note_on_c, 1, 47, 0
3, 61405, Note_on_c, 1, 46, 48
3, 61688, Note_on_c, 1, 39, 43
3, 61779, Note_on_c, 1, 39, 0
3, 61810, Note_on_c, 1, 39, 51
3, 61845, Note_on_c, 1, 46, 0
3, 62161, Note_on_c, 1, 42, 54
3, 62176, Note_on_c, 1, 39, 0
3, 62516, Note_on_c, 1, 42, 0
3, 62529, Note_on_c, 1, 44, 62
3, 62718, Note_on_c, 1, 41, 59
3, 62744, Note_on_c, 1, 44, 0
3, 62989, Note_on_c, 1, 41, 0
3, 63003, Note_on_c, 1, 50, 79
3, 63197, Note_on_c, 1, 38, 60
3, 63199, Note_on_c, 1, 50, 0
3, 63347, Note_on_c, 1, 38, 0
3, 63369, Note_on_c, 1, 39, 50
3, 63452, Note_on_c, 1, 39, 0
3, 63492, Note_on_c, 1, 39, 53
3, 63654, Note_on_c, 1, 39, 0
3, 63682, Note_on_c, 1, 36, 43
3, 63713, Note_on_c, 1, 36, 0
3, 63732, Note_on_c, 1, 37, 31
3, 63801, Note_on_c, 1, 37, 0
3, 63811, Note_on_c, 1, 38, 55
3, 64056, Note_on_c, 1, 54, 53
3, 64287, Note_on_c, 1, 42, 31
3, 64295, Note_on_c, 1, 38, 0
3, 64307, Note_on_c, 1, 54, 0
3, 64314, Note_on_c, 1, 42, 0
3, 64328, Note_on_c, 1, 55, 64
3, 64565, Note_on_c, 1, 47, 39
3, 64592, Note_on_c, 1, 55, 0
3, 64650, Note_on_c, 1, 47, 0
3, 64682, Note_on_c, 1, 50, 64
3, 64769, Note_on_c, 1, 50, 0
3, 64803, Note_on_c, 1, 48, 61
3, 65048, Note_on_c, 1, 38, 40
3, 65136, Note_on_c, 1, 48, 0
3, 65301, Note_on_c, 1, 38, 0
3, 65302, Note_on_c, 1, 39, 53
3, 65508, Note_on_c, 1, 39, 0
3, 65534, Note_on_c, 1, 41, 77
3, 65699, Note_on_c, 1, 41, 0
3, 65715, Note_on_c, 1, 39, 36
3, 65732, Note_on_c, 1, 39, 0
3, 65757, Note_on_c, 1, 38, 59
3, 66082, Note_on_c, 1, 48, 67
3, 66093, Note_on_c, 1, 38, 0
3, 66099, Note_on_c, 1, 48, 0
3, 66170, Note_on_c, 1, 45, 54
3, 66188, Note_on_c, 1, 45, 0
3, 66245, Note_on_c, 1, 47, 51
3, 66403, Note_on_c, 1, 47, 0
3, 66425, Note_on_c, 1, 44, 46
3, 66465, Note_on_c, 1, 44, 0
3, 66479, Note_on_c, 1, 43, 49
3, 66541, Note_on_c, 1, 43, 0
3, 66552, Note_on_c, 1, 38, 58
3, 66580, Note_on_c, 1, 38, 0
3, 66599, Note_on_c, 1, 35, 39
3, 66705, Note_on_c, 1, 35, 0
3, 66725, Note_on_c, 1, 36, 48
3, 66952, Note_on_c, 1, 36, 0
3, 66963, Note_on_c, 1, 38, 54
3, 67202, Note_on_c, 1, 39, 55
3, 67223, Note_on_c, 1, 38, 0
3, 67395, Note_on_c, 1, 41, 75
3, 67403, Note_on_c, 1, 39, 0
3, 67571, Note_on_c, 1, 41, 0
3, 67894, Note_on_c, 1, 58, 51
3, 67914, Note_on_c, 1, 58, 0
3, 68017, Note_on_c, 1, 58, 52
3, 68372, Note_on_c, 1, 53, 46
3, 68375, Note_on_c, 1, 58, 0
3, 68591, Note_on_c, 1, 53, 0
3, 68604, Note_on_c, 1, 51, 28
3, 68626, Note_on_c, 1, 51, 0
3, 68642, Note_on_c, 1, 50, 33
3, 68846, Note_on_c, 1, 50, 0
3, 68898, Note_on_c, 1, 46, 12
3, 68992, Note_on_c, 1, 46, 0
3, 69010, Note_on_c, 1, 53, 36
3, 69090, Note_on_c, 1, 53, 0
3, 69129, Note_on_c, 1, 58, 49
3, 69234, Note_on_c, 1, 58, 0
3, 69253, Note_on_c, 1, 60, 49
3, 69355, Note_on_c, 1, 60, 0
3, 69367, Note_on_c, 1, 58, 43
3, 69495, Note_on_c, 1, 48, 55
3, 69503, Note_on_c, 1, 58, 0
3, 69579, Note_on_c, 1, 48, 0
3, 69606, Note_on_c, 1, 46, 32
3, 69722, Note_on_c, 1, 50, 50
3, 69742, Note_on_c, 1, 46, 0
3, 69802, Note_on_c, 1, 46, 34
3, 69818, Note_on_c, 1, 50, 0
3, 69827, Note_on_c, 1, 46, 0
3, 69840, Note_on_c, 1, 53, 32
3, 69948, Note_on_c, 1, 53, 0
3, 69964, Note_on_c, 1, 54, 36
3, 70076, Note_on_c, 1, 54, 0
3, 70080, Note_on_c, 1, 57, 54
3, 70183, Note_on_c, 1, 57, 0
3, 70193, Note_on_c, 1, 54, 38
3, 70308, Note_on_c, 1, 54, 0
3, 70326, Note_on_c, 1, 55, 60
3, 70407, Note_on_c, 1, 46, 21
3, 70418, Note_on_c, 1, 46, 0
3, 70428, Note_on_c, 1, 55, 0
3, 70446, Note_on_c, 1, 53, 51
3, 70552, Note_on_c, 1, 53, 0
3, 70552, Note_on_c, 1, 46, 53
3, 70673, Note_on_c, 1, 46, 0
3, 70678, Note_on_c, 1, 41, 44
3, 70792, Note_on_c, 1, 41, 0
3, 70797, Note_on_c, 1, 34, 45
3, 70890, Note_on_c, 1, 40, 35
3, 70904, Note_on_c, 1, 40, 0
3, 70912, Note_on_c, 1, 34, 0
3, 70920, Note_on_c, 1, 43, 49
3, 71046, Note_on_c, 1, 43, 0
3, 71048, Note_on_c, 1, 44, 52
3, 71164, Note_on_c, 1, 34, 62
3, 71170, Note_on_c, 1, 44, 0
3, 71287, Note_on_c, 1, 44, 64
3, 71298, Note_on_c, 1, 34, 0
3, 71389, Note_on_c, 1, 44, 0
3, 71403, Note_on_c, 1, 46, 67
3, 71519, Note_on_c, 1, 46, 0
3, 71523, Note_on_c, 1, 47, 55
3, 71645, Note_on_c, 1, 47, 0
3, 71650, Note_on_c, 1, 35, 63
3, 71776, Note_on_c, 1, 47, 60
3, 71793, Note_on_c, 1, 35, 0
3, 71877, Note_on_c, 1, 47, 0
3, 71895, Note_on_c, 1, 47, 74
3, 72008, Note_on_c, 1, 47, 0
3, 72011, Note_on_c, 1, 46, 53
3, 72113, Note_on_c, 1, 46, 0
3, 72128, Note_on_c, 1, 34, 46
3, 72244, Note_on_c, 1, 34, 0
3, 72248, Note_on_c, 1, 40, 82
3, 72367, Note_on_c, 1, 40, 0
3, 72370, Note_on_c, 1, 33, 43
3, 72457, Note_on_c, 1, 33, 0
3, 72458, Note_on_c, 1, 34, 47
3, 72482, Note_on_c, 1, 34, 0
3, 72494, Note_on_c, 1, 39, 67
3, 72585, Note_on_c, 1, 39, 0
3, 72606, Note_on_c, 1, 39, 55
3, 72703, Note_on_c, 1, 39, 0
3, 72733, Note_on_c, 1, 41, 35
3, 72744, Note_on_c, 1, 39, 57
3, 72747, Note_on_c, 1, 41, 0
3, 72843, Note_on_c, 1, 39, 0
3, 72849, Note_on_c, 1, 46, 74
3, 72942, Note_on_c, 1, 39, 29
3, 72950, Note_on_c, 1, 46, 0
3, 72960, Note_on_c, 1, 39, 0
3, 72966, Note_on_c, 1, 47, 64
3, 73054, Note_on_c, 1, 39, 20
3, 73065, Note_on_c, 1, 47, 0
3, 73086, Note_on_c, 1, 39, 0
3, 73086, Note_on_c, 1, 47, 70
3, 73190, Note_on_c, 1, 47, 0
3, 73201, Note_on_c, 1, 48, 69
3, 73287, Note_on_c, 1, 47, 56
3, 73301, Note_on_c, 1, 48, 0
3, 73321, Note_on_c, 1, 47, 0
3, 73338, Note_on_c, 1, 46, 29
3, 73405, Note_on_c, 1, 39, 74
3, 73414, Note_on_c, 1, 46, 0
3, 73568, Note_on_c, 1, 42, 39
3, 73571, Note_on_c, 1, 39, 0
3, 73643, Note_on_c, 1, 39, 33
3, 73654, Note_on_c, 1, 42, 0
3, 73672, Note_on_c, 1, 39, 0
3, 73680, Note_on_c, 1, 46, 39
3, 73783, Note_on_c, 1, 46, 0
3, 73798, Note_on_c, 1, 47, 41
3, 73878, Note_on_c, 1, 39, 31
3, 73885, Note_on_c, 1, 47, 0
3, 73906, Note_on_c, 1, 39, 0
3, 73911, Note_on_c, 1, 48, 57
3, 74023, Note_on_c, 1, 48, 0
3, 74035, Note_on_c, 1, 42, 45
3, 74147, Note_on_c, 1, 42, 0
3, 74158, Note_on_c, 1, 41, 49
3, 74273, Note_on_c, 1, 41, 0
3, 74280, Note_on_c, 1, 39, 39
3, 74393, Note_on_c, 1, 39, 0
3, 74400, Note_on_c, 1, 38, 36
3, 74507, Note_on_c, 1, 38, 0
3, 74528, Note_on_c, 1, 38, 49
3, 74637, Note_on_c, 1, 38, 0
3, 74647, Note_on_c, 1, 39, 51
3, 74743, Note_on_c, 1, 39, 0
3, 74765, Note_on_c, 1, 39, 60
3, 74873, Note_on_c, 1, 39, 0
3, 74884, Note_on_c, 1, 38, 40
3, 74997, Note_on_c, 1, 38, 0
3, 75001, Note_on_c, 1, 32, 71
3, 75105, Note_on_c, 1, 32, 0
3, 75117, Note_on_c, 1, 31, 58
3, 75159, Note_on_c, 1, 31, 0
3, 75198, Note_on_c, 1, 34, 64
3, 75226, Note_on_c, 1, 34, 0
3, 75238, Note_on_c, 1, 35, 70
3, 75344, Note_on_c, 1, 35, 0
3, 75361, Note_on_c, 1, 36, 36
3, 75444, Note_on_c, 1, 34, 37
3, 75445, Note_on_c, 1, 36, 0
3, 75482, Note_on_c, 1, 34, 0
3, 75485, Note_on_c, 1, 38, 51
3, 75600, Note_on_c, 1, 38, 0
3, 75604, Note_on_c, 1, 39, 45
3, 75711, Note_on_c, 1, 39, 0
3, 75724, Note_on_c, 1, 40, 55
3, 75831, Note_on_c, 1, 40, 0
3, 75848, Note_on_c, 1, 41, 48
3, 75965, Note_on_c, 1, 29, 62
3, 75983, Note_on_c, 1, 41, 0
3, 76080, Note_on_c, 1, 29, 0
3, 76083, Note_on_c, 1, 33, 58
3, 76189, Note_on_c, 1, 33, 0
3, 76203, Note_on_c, 1, 38, 70
3, 76317, Note_on_c, 1, 38, 0
3, 76327, Note_on_c, 1, 34, 57
3, 76433, Note_on_c, 1, 34, 0
3, 76449, Note_on_c, 1, 34, 71
3, 76636, Note_on_c, 1, 40, 59
3, 76650, Note_on_c, 1, 34, 0
3, 76760, Note_on_c, 1, 34, 26
3, 76784, Note_on_c, 1, 40, 0
3, 76798, Note_on_c, 1, 34, 0
3, 76802, Note_on_c, 1, 41, 58
3, 76906, Note_on_c, 1, 41, 0
3, 76923, Note_on_c, 1, 43, 58
3, 77038, Note_on_c, 1, 43, 0
3, 77043, Note_on_c, 1, 41, 54
3, 77135, Note_on_c, 1, 34, 64
3, 77138, Note_on_c, 1, 41, 0
3, 77368, Note_on_c, 1, 42, 82
3, 77540, Note_on_c, 1, 34, 0
3, 77593, Note_on_c, 1, 34, 39
3, 77610, Note_on_c, 1, 42, 0
3, 77628, Note_on_c, 1, 34, 0
3, 77637, Note_on_c, 1, 45, 73
3, 77715, Note_on_c, 1, 45, 0
3, 77717, Note_on_c, 1, 42, 39
3, 77741, Note_on_c, 1, 42, 0
3, 77761, Note_on_c, 1, 43, 60
3, 77840, Note_on_c, 1, 34, 51
3, 77970, Note_on_c, 1, 43, 0
3, 78012, Note_on_c, 1, 38, 20
3, 78063, Note_on_c, 1, 38, 0
3, 78077, Note_on_c, 1, 41, 46
3, 78103, Note_on_c, 1, 41, 0
3, 78118, Note_on_c, 1, 43, 67
3, 78124, Note_on_c, 1, 34, 0
3, 78192, Note_on_c, 1, 34, 42
3, 78211, Note_on_c, 1, 43, 0
3, 78218, Note_on_c, 1, 34, 0
3, 78234, Note_on_c, 1, 44, 79
3, 78360, Note_on_c, 1, 43, 65
3, 78469, Note_on_c, 1, 43, 0
3, 78472, Note_on_c, 1, 44, 0
3, 78481, Note_on_c, 1, 41, 51
3, 78563, Note_on_c, 1, 41, 0
3, 78570, Note_on_c, 1, 39, 64
3, 78722, Note_on_c, 1, 39, 0
3, 78732, Note_on_c, 1, 36, 34
3, 78840, Note_on_c, 1, 36, 0
3, 78849, Note_on_c, 1, 35, 57
3, 78962, Note_on_c, 1, 35, 0
3, 78967, Note_on_c, 1, 34, 58
3, 79068, Note_on_c, 1, 34, 0
3, 79085, Note_on_c, 1, 38, 57
3, 79202, Note_on_c, 1, 38, 0
3, 79207, Note_on_c, 1, 47, 60
3, 79290, Note_on_c, 1, 38, 31
3, 79305, Note_on_c, 1, 38, 0
3, 79307, Note_on_c, 1, 47, 0
3, 79326, Note_on_c, 1, 47, 67
3, 79423, Note_on_c, 1, 47, 0
3, 79438, Note_on_c, 1, 35, 44
3, 79560, Note_on_c, 1, 47, 66
3, 79569, Note_on_c, 1, 35, 0
3, 79666, Note_on_c, 1, 47, 0
3, 79681, Note_on_c, 1, 46, 51
3, 79800, Note_on_c, 1, 46, 0
3, 79800, Note_on_c, 1, 39, 52
3, 79917, Note_on_c, 1, 39, 0
3, 79926, Note_on_c, 1, 40, 57
3, 80046, Note_on_c, 1, 40, 0
3, 80049, Note_on_c, 1, 35, 48
3, 80147, Note_on_c, 1, 35, 0
3, 80168, Note_on_c, 1, 34, 62
3, 80266, Note_on_c, 1, 34, 0
3, 80279, Note_on_c, 1, 39, 52
3, 80400, Note_on_c, 1, 39, 0
3, 80403, Note_on_c, 1, 47, 81
3, 80484, Note_on_c, 1, 39, 15
3, 80503, Note_on_c, 1, 47, 0
3, 80518, Note_on_c, 1, 47, 55
3, 80523, Note_on_c, 1, 39, 0
3, 80616, Note_on_c, 1, 47, 0
3, 80641, Note_on_c, 1, 48, 65
3, 80745, Note_on_c, 1, 48, 0
3, 80763, Note_on_c, 1, 47, 59
3, 80882, Note_on_c, 1, 47, 0
3, 80892, Note_on_c, 1, 46, 40
3, 80985, Note_on_c, 1, 46, 0
3, 81006, Note_on_c, 1, 39, 74
3, 81319, Note_on_c, 1, 42, 60
3, 81389, Note_on_c, 1, 39, 0
3, 81444, Note_on_c, 1, 39, 38
3, 81464, Note_on_c, 1, 42, 0
3, 81474, Note_on_c, 1, 39, 0
3, 81482, Note_on_c, 1, 46, 55
3, 81578, Note_on_c, 1, 46, 0
3, 81605, Note_on_c, 1, 47, 44
3, 81680, Note_on_c, 1, 39, 20
3, 81695, Note_on_c, 1, 47, 0
3, 81702, Note_on_c, 1, 39, 0
3, 81722, Note_on_c, 1, 48, 67
3, 81806, Note_on_c, 1, 48, 0
3, 81842, Note_on_c, 1, 42, 55
3, 81935, Note_on_c, 1, 42, 0
3, 81960, Note_on_c, 1, 41, 51
3, 82077, Note_on_c, 1, 34, 47
3, 82078, Note_on_c, 1, 41, 0
3, 82174, Note_on_c, 1, 34, 0
3, 82198, Note_on_c, 1, 34, 52
3, 82320, Note_on_c, 1, 34, 0
3, 82321, Note_on_c, 1, 37, 57
3, 82432, Note_on_c, 1, 37, 0
3, 82437, Note_on_c, 1, 38, 45
3, 82556, Note_on_c, 1, 38, 0
3, 82557, Note_on_c, 1, 39, 48
3, 82682, Note_on_c, 1, 46, 57
3, 82696, Note_on_c, 1, 39, 0
3, 82787, Note_on_c, 1, 46, 0
3, 82799, Note_on_c, 1, 51, 60
3, 82889, Note_on_c, 1, 39, 30
3, 82902, Note_on_c, 1, 51, 0
3, 82915, Note_on_c, 1, 39, 0
3, 82922, Note_on_c, 1, 49, 54
3, 83029, Note_on_c, 1, 49, 0
3, 83040, Note_on_c, 1, 50, 57
3, 83158, Note_on_c, 1, 50, 0
3, 83161, Note_on_c, 1, 45, 48
3, 83269, Note_on_c, 1, 45, 0
3, 83280, Note_on_c, 1, 42, 46
3, 83370, Note_on_c, 1, 42, 0
3, 83399, Note_on_c, 1, 44, 59
3, 83470, Note_on_c, 1, 42, 45
3, 83472, Note_on_c, 1, 44, 0
3, 83508, Note_on_c, 1, 42, 0
3, 83524, Note_on_c, 1, 43, 35
3, 83591, Note_on_c, 1, 43, 0
3, 83601, Note_on_c, 1, 38, 57
3, 83625, Note_on_c, 1, 38, 0
3, 83642, Note_on_c, 1, 35, 45
3, 83742, Note_on_c, 1, 35, 0
3, 83761, Note_on_c, 1, 37, 57
3, 83846, Note_on_c, 1, 37, 0
3, 83873, Note_on_c, 1, 35, 54
3, 83988, Note_on_c, 1, 35, 0
3, 83997, Note_on_c, 1, 36, 43
3, 84095, Note_on_c, 1, 36, 0
3, 84120, Note_on_c, 1, 38, 50
3, 84227, Note_on_c, 1, 38, 0
3, 84237, Note_on_c, 1, 39, 48
3, 84346, Note_on_c, 1, 39, 0
3, 84353, Note_on_c, 1, 40, 55
3, 84462, Note_on_c, 1, 40, 0
3, 84474, Note_on_c, 1, 41, 62
3, 84583, Note_on_c, 1, 41, 0
3, 84603, Note_on_c, 1, 41, 71
3, 84718, Note_on_c, 1, 41, 0
3, 84727, Note_on_c, 1, 39, 46
3, 84820, Note_on_c, 1, 39, 0
3, 84842, Note_on_c, 1, 39, 50
3, 84955, Note_on_c, 1, 39, 0
3, 84964, Note_on_c, 1, 38, 44
3, 85077, Note_on_c, 1, 53, 68
3, 85165, Note_on_c, 1, 38, 0
3, 85187, Note_on_c, 1, 53, 0
3, 85199, Note_on_c, 1, 52, 51
3, 85321, Note_on_c, 1, 52, 0
3, 85321, Note_on_c, 1, 42, 48
3, 85435, Note_on_c, 1, 42, 0
3, 85440, Note_on_c, 1, 43, 49
3, 85560, Note_on_c, 1, 43, 0
3, 85560, Note_on_c, 1, 38, 50
3, 85669, Note_on_c, 1, 38, 0
3, 85682, Note_on_c, 1, 35, 49
3, 85774, Note_on_c, 1, 35, 0
3, 85799, Note_on_c, 1, 35, 66
3, 85905, Note_on_c, 1, 35, 0
3, 85922, Note_on_c, 1, 36, 47
3, 86133, Note_on_c, 1, 36, 0
3, 86136, Note_on_c, 1, 34, 25
3, 86160, Note_on_c, 1, 34, 0
3, 86164, Note_on_c, 1, 38, 57
3, 86398, Note_on_c, 1, 38, 0
3, 86398, Note_on_c, 1, 39, 53
3, 86576, Note_on_c, 1, 39, 0
3, 86893, Note_on_c, 1, 58, 62
3, 87144, Note_on_c, 1, 46, 39
3, 87164, Note_on_c, 1, 58, 0
3, 87384, Note_on_c, 1, 58, 48
3, 87427, Note_on_c, 1, 58, 0
3, 87498, Note_on_c, 1, 60, 60
3, 87533, Note_on_c, 1, 60, 0
3, 87623, Note_on_c, 1, 46, 0
3, 87629, Note_on_c, 1, 58, 45
3, 87739, Note_on_c, 1, 58, 0
3, 87747, Note_on_c, 1, 45, 51
3, 87858, Note_on_c, 1, 45, 0
3, 87876, Note_on_c, 1, 46, 39
3, 88711, Note_on_c, 1, 46, 0
3, 88711, End_track
4, 0, Start_track
4, 0, Title_t, ""
4, 0, Program_c, 9, 32
4, 0, Control_c, 9, 7, 108
4, 49600, Note_on_c, 9, 44, 40
4, 49640, Note_on_c, 9, 44, 0
4, 49920, Note_on_c, 9, 59, 73
4, 49932, Note_on_c, 9, 59, 0
4, 50040, Note_on_c, 9, 44, 49
4, 50080, Note_on_c, 9, 44, 0
4, 50171, Note_on_c, 9, 59, 74
4, 50183, Note_on_c, 9, 59, 0
4, 50279, Note_on_c, 9, 37, 47
4, 50280, Note_on_c, 9, 44, 44
4, 50309, Note_on_c, 9, 37, 0
4, 50320, Note_on_c, 9, 44, 0
4, 50523, Note_on_c, 9, 36, 33
4, 50569, Note_on_c, 9, 36, 0
4, 50726, Note_on_c, 9, 59, 54
4, 50737, Note_on_c, 9, 59, 0
4, 50773, Note_on_c, 9, 59, 47
4, 50800, Note_on_c, 9, 44, 38
4, 50812, Note_on_c, 9, 59, 0
4, 50838, Note_on_c, 9, 59, 81
4, 50840, Note_on_c, 9, 44, 0
4, 50864, Note_on_c, 9, 59, 0
4, 51000, Note_on_c, 9, 44, 36
4, 51011, Note_on_c, 9, 59, 96
4, 51080, Note_on_c, 9, 44, 0
4, 51120, Note_on_c, 9, 40, 32
4, 51135, Note_on_c, 9, 40, 0
4, 51201, Note_on_c, 9, 40, 43
4, 51223, Note_on_c, 9, 40, 0
4, 51223, Note_on_c, 9, 59, 0
4, 51240, Note_on_c, 9, 44, 37
4, 51256, Note_on_c, 9, 36, 24
4, 51280, Note_on_c, 9, 44, 0
4, 51288, Note_on_c, 9, 36, 0
4, 51323, Note_on_c, 9, 36, 40
4, 51324, Note_on_c, 9, 59, 58
4, 51335, Note_on_c, 9, 59, 0
4, 51354, Note_on_c, 9, 36, 0
4, 51366, Note_on_c, 9, 59, 66
4, 51374, Note_on_c, 9, 36, 38
4, 51404, Note_on_c, 9, 36, 0
4, 51428, Note_on_c, 9, 59, 0
4, 51450, Note_on_c, 9, 59, 35
4, 51462, Note_on_c, 9, 59, 0
4, 51567, Note_on_c, 9, 59, 95
4, 51593, Note_on_c, 9, 59, 0
4, 51613, Note_on_c, 9, 59, 70
4, 51673, Note_on_c, 9, 59, 0
4, 51808, Note_on_c, 9, 59, 69
4, 51831, Note_on_c, 9, 59, 0
4, 51848, Note_on_c, 9, 59, 85
4, 51901, Note_on_c, 9, 59, 0
4, 51967, Note_on_c, 9, 38, 27
4, 51971, Note_on_c, 9, 59, 101
4, 51983, Note_on_c, 9, 38, 0
4, 52025, Note_on_c, 9, 59, 0
4, 52040, Note_on_c, 9, 38, 32
4, 52066, Note_on_c, 9, 38, 0
4, 52087, Note_on_c, 9, 59, 108
4, 52087, Note_on_c, 9, 38, 48
4, 52096, Note_on_c, 9, 38, 0
4, 52146, Note_on_c, 9, 59, 0
4, 52159, Note_on_c, 9, 36, 58
4, 52173, Note_on_c, 9, 59, 60
4, 52188, Note_on_c, 9, 36, 0
4, 52194, Note_on_c, 9, 59, 0
4, 52210, Note_on_c, 9, 36, 40
4, 52211, Note_on_c, 9, 59, 84
4, 52235, Note_on_c, 9, 59, 0
4, 52260, Note_on_c, 9, 36, 0
4, 52288, Note_on_c, 9, 59, 103
4, 52308, Note_on_c, 9, 59, 0
4, 52332, Note_on_c, 9, 59, 92
4, 52398, Note_on_c, 9, 59, 0
4, 52451, Note_on_c, 9, 59, 101
4, 52506, Note_on_c, 9, 59, 0
4, 52572, Note_on_c, 9, 59, 96
4, 52637, Note_on_c, 9, 59, 0
4, 52680, Note_on_c, 9, 44, 44
4, 52692, Note_on_c, 9, 59, 69
4, 52720, Note_on_c, 9, 59, 0
4, 52720, Note_on_c, 9, 44, 0
4, 52721, Note_on_c, 9, 38, 26
4, 52732, Note_on_c, 9, 38, 0
4, 52769, Note_on_c, 9, 59, 76
4, 52782, Note_on_c, 9, 59, 0
4, 52800, Note_on_c, 9, 44, 38
4, 52813, Note_on_c, 9, 59, 89
4, 52817, Note_on_c, 9, 38, 47
4, 52829, Note_on_c, 9, 38, 0
4, 52880, Note_on_c, 9, 44, 0
4, 52885, Note_on_c, 9, 59, 0
4, 53127, Note_on_c, 9, 59, 73
4, 53147, Note_on_c, 9, 59, 0
4, 53160, Note_on_c, 9, 44, 50
4, 53164, Note_on_c, 9, 59, 88
4, 53175, Note_on_c, 9, 38, 23
4, 53186, Note_on_c, 9, 38, 0
4, 53199, Note_on_c, 9, 59, 0
4, 53206, Note_on_c, 9, 38, 24
4, 53217, Note_on_c, 9, 38, 0
4, 53240, Note_on_c, 9, 44, 0
4, 53244, Note_on_c, 9, 59, 105
4, 53284, Note_on_c, 9, 38, 53
4, 53317, Note_on_c, 9, 59, 0
4, 53329, Note_on_c, 9, 38, 0
4, 53351, Note_on_c, 9, 38, 27
4, 53362, Note_on_c, 9, 38, 0
4, 53400, Note_on_c, 9, 44, 37
4, 53480, Note_on_c, 9, 44, 0
4, 53493, Note_on_c, 9, 59, 54
4, 53506, Note_on_c, 9, 59, 0
4, 53535, Note_on_c, 9, 59, 80
4, 53603, Note_on_c, 9, 59, 0
4, 53732, Note_on_c, 9, 38, 26
4, 53741, Note_on_c, 9, 59, 62
4, 53749, Note_on_c, 9, 38, 0
4, 53754, Note_on_c, 9, 59, 0
4, 53778, Note_on_c, 9, 59, 77
4, 53779, Note_on_c, 9, 38, 22
4, 53795, Note_on_c, 9, 38, 0
4, 53825, Note_on_c, 9, 59, 0
4, 53880, Note_on_c, 9, 44, 42
4, 53960, Note_on_c, 9, 44, 0
4, 53975, Note_on_c, 9, 59, 51
4, 53988, Note_on_c, 9, 59, 0
4, 54014, Note_on_c, 9, 59, 72
4, 54078, Note_on_c, 9, 59, 0
4, 54095, Note_on_c, 9, 38, 29
4, 54107, Note_on_c, 9, 38, 0
4, 54146, Note_on_c, 9, 38, 16
4, 54174, Note_on_c, 9, 38, 0
4, 54212, Note_on_c, 9, 53, 72
4, 54212, Note_on_c, 9, 38, 43
4, 54222, Note_on_c, 9, 38, 0
4, 54230, Note_on_c, 9, 53, 0
4, 54264, Note_on_c, 9, 59, 49
4, 54328, Note_on_c, 9, 59, 0
4, 54360, Note_on_c, 9, 44, 38
4, 54375, Note_on_c, 9, 59, 58
4, 54420, Note_on_c, 9, 59, 0
4, 54440, Note_on_c, 9, 44, 0
4, 54480, Note_on_c, 9, 44, 29
4, 54497, Note_on_c, 9, 59, 78
4, 54560, Note_on_c, 9, 44, 0
4, 54585, Note_on_c, 9, 59, 0
4, 54600, Note_on_c, 9, 46, 37
4, 54640, Note_on_c, 9, 46, 0
4, 54693, Note_on_c, 9, 51, 51
4, 54697, Note_on_c, 9, 53, 46
4, 54709, Note_on_c, 9, 53, 0
4, 54720, Note_on_c, 9, 51, 0
4, 54736, Note_on_c, 9, 59, 53
4, 54774, Note_on_c, 9, 59, 0
4, 54858, Note_on_c, 9, 59, 42
4, 54883, Note_on_c, 9, 59, 0
4, 54965, Note_on_c, 9, 59, 75
4, 55010, Note_on_c, 9, 59, 0
4, 55053, Note_on_c, 9, 59, 57
4, 55075, Note_on_c, 9, 59, 0
4, 55093, Note_on_c, 9, 59, 68
4, 55124, Note_on_c, 9, 38, 39
4, 55133, Note_on_c, 9, 38, 0
4, 55138, Note_on_c, 9, 59, 0
4, 55167, Note_on_c, 9, 51, 86
4, 55196, Note_on_c, 9, 51, 0
4, 55211, Note_on_c, 9, 59, 58
4, 55275, Note_on_c, 9, 59, 0
4, 55320, Note_on_c, 9, 44, 36
4, 55330, Note_on_c, 9, 59, 76
4, 55360, Note_on_c, 9, 44, 0
4, 55392, Note_on_c, 9, 59, 0
4, 55568, Note_on_c, 9, 59, 57
4, 55579, Note_on_c, 9, 59, 0
4, 55646, Note_on_c, 9, 59, 92
4, 55744, Note_on_c, 9, 59, 0
4, 55769, Note_on_c, 9, 59, 45
4, 55792, Note_on_c, 9, 59, 0
4, 55800, Note_on_c, 9, 44, 39
4, 55818, Note_on_c, 9, 59, 89
4, 55840, Note_on_c, 9, 44, 0
4, 55883, Note_on_c, 9, 59, 0
4, 55890, Note_on_c, 9, 38, 43
4, 55898, Note_on_c, 9, 38, 0
4, 55931, Note_on_c, 9, 36, 26
4, 55932, Note_on_c, 9, 59, 58
4, 55943, Note_on_c, 9, 59, 0
4, 55984, Note_on_c, 9, 36, 0
4, 56009, Note_on_c, 9, 36, 43
4, 56013, Note_on_c, 9, 59, 103
4, 56036, Note_on_c, 9, 36, 0
4, 56040, Note_on_c, 9, 44, 40
4, 56080, Note_on_c, 9, 44, 0
4, 56101, Note_on_c, 9, 59, 0
4, 56135, Note_on_c, 9, 59, 51
4, 56148, Note_on_c, 9, 59, 0
4, 56181, Note_on_c, 9, 59, 92
4, 56231, Note_on_c, 9, 59, 0
4, 56280, Note_on_c, 9, 44, 46
4, 56304, Note_on_c, 9, 59, 38
4, 56315, Note_on_c, 9, 59, 0
4, 56320, Note_on_c, 9, 44, 0
4, 56364, Note_on_c, 9, 38, 48
4, 56374, Note_on_c, 9, 59, 99
4, 56384, Note_on_c, 9, 38, 0
4, 56410, Note_on_c, 9, 36, 35
4, 56412, Note_on_c, 9, 59, 0
4, 56424, Note_on_c, 9, 36, 0
4, 56493, Note_on_c, 9, 59, 44
4, 56496, Note_on_c, 9, 36, 25
4, 56507, Note_on_c, 9, 36, 0
4, 56507, Note_on_c, 9, 59, 0
4, 56520, Note_on_c, 9, 46, 36
4, 56538, Note_on_c, 9, 59, 91
4, 56560, Note_on_c, 9, 46, 0
4, 56594, Note_on_c, 9, 59, 0
4, 56615, Note_on_c, 9, 59, 58
4, 56641, Note_on_c, 9, 59, 0
4, 56660, Note_on_c, 9, 59, 66
4, 56685, Note_on_c, 9, 59, 0
4, 56738, Note_on_c, 9, 59, 103
4, 56760, Note_on_c, 9, 46, 30
4, 56800, Note_on_c, 9, 46, 0
4, 56835, Note_on_c, 9, 59, 0
4, 56848, Note_on_c, 9, 38, 52
4, 56856, Note_on_c, 9, 59, 58
4, 56869, Note_on_c, 9, 59, 0
4, 56874, Note_on_c, 9, 38, 0
4, 56897, Note_on_c, 9, 59, 83
4, 56946, Note_on_c, 9, 59, 0
4, 56963, Note_on_c, 9, 38, 50
4, 56969, Note_on_c, 9, 59, 59
4, 56991, Note_on_c, 9, 59, 0
4, 56996, Note_on_c, 9, 38, 0
4, 57013, Note_on_c, 9, 59, 58
4, 57037, Note_on_c, 9, 59, 0
4, 57077, Note_on_c, 9, 51, 77
4, 57080, Note_on_c, 9, 53, 76
4, 57082, Note_on_c, 9, 38, 55
4, 57102, Note_on_c, 9, 38, 0
4, 57105, Note_on_c, 9, 53, 0
4, 57109, Note_on_c, 9, 51, 0
4, 57125, Note_on_c, 9, 59, 60
4, 57125, Note_on_c, 9, 36, 54
4, 57129, Note_on_c, 9, 57, 51
4, 57138, Note_on_c, 9, 57, 0
4, 57146, Note_on_c, 9, 36, 0
4, 57193, Note_on_c, 9, 59, 0
4, 57240, Note_on_c, 9, 44, 42
4, 57247, Note_on_c, 9, 59, 73
4, 57280, Note_on_c, 9, 44, 0
4, 57288, Note_on_c, 9, 59, 0
4, 57360, Note_on_c, 9, 44, 38
4, 57362, Note_on_c, 9, 59, 71
4, 57399, Note_on_c, 9, 59, 0
4, 57400, Note_on_c, 9, 44, 0
4, 57435, Note_on_c, 9, 38, 56
4, 57446, Note_on_c, 9, 51, 62
4, 57447, Note_on_c, 9, 49, 59
4, 57447, Note_on_c, 9, 53, 76
4, 57453, Note_on_c, 9, 38, 0
4, 57465, Note_on_c, 9, 51, 0
4, 57467, Note_on_c, 9, 53, 0
4, 57472, Note_on_c, 9, 49, 0
4, 57476, Note_on_c, 9, 57, 51
4, 57481, Note_on_c, 9, 36, 46
4, 57485, Note_on_c, 9, 57, 0
4, 57496, Note_on_c, 9, 36, 0
4, 57603, Note_on_c, 9, 59, 58
4, 57619, Note_on_c, 9, 59, 0
4, 57720, Note_on_c, 9, 44, 40
4, 57728, Note_on_c, 9, 59, 68
4, 57750, Note_on_c, 9, 59, 0
4, 57760, Note_on_c, 9, 44, 0
4, 57810, Note_on_c, 9, 59, 80
4, 57831, Note_on_c, 9, 59, 0
4, 57960, Note_on_c, 9, 44, 44
4, 58000, Note_on_c, 9, 44, 0
4, 58295, Note_on_c, 9, 59, 60
4, 58312, Note_on_c, 9, 59, 0
4, 58312, Note_on_c, 9, 38, 25
4, 58323, Note_on_c, 9, 38, 0
4, 58334, Note_on_c, 9, 59, 66
4, 58392, Note_on_c, 9, 59, 0
4, 58394, Note_on_c, 9, 38, 40
4, 58403, Note_on_c, 9, 38, 0
4, 58450, Note_on_c, 9, 36, 20
4, 58479, Note_on_c, 9, 36, 0
4, 58480, Note_on_c, 9, 44, 43
4, 58520, Note_on_c, 9, 44, 0
4, 58530, Note_on_c, 9, 59, 50
4, 58555, Note_on_c, 9, 59, 0
4, 58573, Note_on_c, 9, 59, 64
4, 58625, Note_on_c, 9, 59, 0
4, 58879, Note_on_c, 9, 59, 70
4, 58901, Note_on_c, 9, 59, 0
4, 58920, Note_on_c, 9, 44, 46
4, 58921, Note_on_c, 9, 59, 71
4, 58960, Note_on_c, 9, 44, 0
4, 58965, Note_on_c, 9, 59, 0
4, 59057, Note_on_c, 9, 59, 96
4, 59182, Note_on_c, 9, 59, 0
4, 59247, Note_on_c, 9, 59, 55
4, 59259, Note_on_c, 9, 59, 0
4, 59290, Note_on_c, 9, 59, 73
4, 59349, Note_on_c, 9, 59, 0
4, 59360, Note_on_c, 9, 44, 44
4, 59440, Note_on_c, 9, 44, 0
4, 59650, Note_on_c, 9, 59, 71
4, 59682, Note_on_c, 9, 59, 0
4, 59732, Note_on_c, 9, 59, 68
4, 59749, Note_on_c, 9, 59, 0
4, 59773, Note_on_c, 9, 59, 74
4, 59836, Note_on_c, 9, 59, 0
4, 59855, Note_on_c, 9, 59, 70
4, 59877, Note_on_c, 9, 59, 0
4, 59968, Note_on_c, 9, 38, 35
4, 59978, Note_on_c, 9, 38, 0
4, 59987, Note_on_c, 9, 59, 42
4, 59999, Note_on_c, 9, 59, 0
4, 60019, Note_on_c, 9, 59, 68
4, 60082, Note_on_c, 9, 59, 0
4, 60120, Note_on_c, 9, 44, 49
4, 60132, Note_on_c, 9, 59, 80
4, 60160, Note_on_c, 9, 44, 0
4, 60190, Note_on_c, 9, 59, 0
4, 60221, Note_on_c, 9, 59, 60
4, 60232, Note_on_c, 9, 59, 0
4, 60254, Note_on_c, 9, 59, 76
4, 60321, Note_on_c, 9, 59, 0
4, 60360, Note_on_c, 9, 44, 43
4, 60370, Note_on_c, 9, 59, 87
4, 60400, Note_on_c, 9, 44, 0
4, 60458, Note_on_c, 9, 59, 0
4, 60563, Note_on_c, 9, 38, 32
4, 60570, Note_on_c, 9, 59, 48
4, 60573, Note_on_c, 9, 38, 0
4, 60584, Note_on_c, 9, 59, 0
4, 60600, Note_on_c, 9, 46, 38
4, 60606, Note_on_c, 9, 59, 76
4, 60640, Note_on_c, 9, 46, 0
4, 60681, Note_on_c, 9, 59, 0
4, 60691, Note_on_c, 9, 36, 19
4, 60700, Note_on_c, 9, 36, 0
4, 60729, Note_on_c, 9, 59, 80
4, 60797, Note_on_c, 9, 59, 0
4, 60929, Note_on_c, 9, 54, 63
4, 60940, Note_on_c, 9, 38, 55
4, 60949, Note_on_c, 9, 38, 0
4, 60949, Note_on_c, 9, 54, 0
4, 61057, Note_on_c, 9, 36, 19
4, 61066, Note_on_c, 9, 36, 0
4, 61080, Note_on_c, 9, 44, 40
4, 61089, Note_on_c, 9, 59, 78
4, 61120, Note_on_c, 9, 44, 0
4, 61145, Note_on_c, 9, 59, 0
4, 61292, Note_on_c, 9, 53, 39
4, 61305, Note_on_c, 9, 53, 0
4, 61320, Note_on_c, 9, 44, 37
4, 61331, Note_on_c, 9, 59, 80
4, 61379, Note_on_c, 9, 59, 0
4, 61400, Note_on_c, 9, 44, 0
4, 61533, Note_on_c, 9, 51, 34
4, 61533, Note_on_c, 9, 53, 43
4, 61544, Note_on_c, 9, 53, 0
4, 61555, Note_on_c, 9, 51, 0
4, 61560, Note_on_c, 9, 44, 43
4, 61573, Note_on_c, 9, 38, 19
4, 61583, Note_on_c, 9, 38, 0
4, 61600, Note_on_c, 9, 44, 0
4, 61605, Note_on_c, 9, 38, 30
4, 61616, Note_on_c, 9, 38, 0
4, 61768, Note_on_c, 9, 53, 69
4, 61771, Note_on_c, 9, 36, 26
4, 61781, Note_on_c, 9, 36, 0
4, 61789, Note_on_c, 9, 53, 0
4, 61808, Note_on_c, 9, 59, 62
4, 61852, Note_on_c, 9, 59, 0
4, 61883, Note_on_c, 9, 51, 77
4, 61886, Note_on_c, 9, 53, 80
4, 61915, Note_on_c, 9, 53, 0
4, 61928, Note_on_c, 9, 59, 65
4, 61929, Note_on_c, 9, 51, 0
4, 61935, Note_on_c, 9, 36, 34
4, 61954, Note_on_c, 9, 36, 0
4, 61999, Note_on_c, 9, 59, 0
4, 62040, Note_on_c, 9, 44, 39
4, 62052, Note_on_c, 9, 59, 65
4, 62080, Note_on_c, 9, 44, 0
4, 62139, Note_on_c, 9, 59, 0
4, 62248, Note_on_c, 9, 51, 48
4, 62273, Note_on_c, 9, 51, 0
4, 62280, Note_on_c, 9, 44, 37
4, 62320, Note_on_c, 9, 44, 0
4, 62486, Note_on_c, 9, 51, 37
4, 62507, Note_on_c, 9, 51, 0
4, 62564, Note_on_c, 9, 59, 58
4, 62581, Note_on_c, 9, 59, 0
4, 62640, Note_on_c, 9, 44, 48
4, 62643, Note_on_c, 9, 38, 25
4, 62655, Note_on_c, 9, 59, 78
4, 62657, Note_on_c, 9, 38, 0
4, 62679, Note_on_c, 9, 38, 29
4, 62680, Note_on_c, 9, 44, 0
4, 62687, Note_on_c, 9, 59, 0
4, 62689, Note_on_c, 9, 38, 0
4, 62744, Note_on_c, 9, 59, 44
4, 62757, Note_on_c, 9, 59, 0
4, 62805, Note_on_c, 9, 59, 64
4, 62823, Note_on_c, 9, 59, 0
4, 62842, Note_on_c, 9, 59, 84
4, 62855, Note_on_c, 9, 38, 38
4, 62865, Note_on_c, 9, 38, 0
4, 62869, Note_on_c, 9, 59, 0
4, 62891, Note_on_c, 9, 59, 78
4, 62899, Note_on_c, 9, 38, 27
4, 62920, Note_on_c, 9, 38, 0
4, 62934, Note_on_c, 9, 59, 0
4, 63000, Note_on_c, 9, 44, 46
4, 63040, Note_on_c, 9, 44, 0
4, 63055, Note_on_c, 9, 59, 51
4, 63066, Note_on_c, 9, 59, 0
4, 63094, Note_on_c, 9, 59, 89
4, 63154, Note_on_c, 9, 59, 0
4, 63182, Note_on_c, 9, 59, 33
4, 63203, Note_on_c, 9, 59, 0
4, 63223, Note_on_c, 9, 59, 72
4, 63240, Note_on_c, 9, 44, 42
4, 63243, Note_on_c, 9, 59, 0
4, 63272, Note_on_c, 9, 59, 87
4, 63280, Note_on_c, 9, 44, 0
4, 63326, Note_on_c, 9, 38, 28
4, 63337, Note_on_c, 9, 38, 0
4, 63345, Note_on_c, 9, 59, 0
4, 63384, Note_on_c, 9, 59, 32
4, 63405, Note_on_c, 9, 59, 0
4, 63427, Note_on_c, 9, 59, 58
4, 63439, Note_on_c, 9, 59, 0
4, 63461, Note_on_c, 9, 59, 91
4, 63480, Note_on_c, 9, 44, 44
4, 63520, Note_on_c, 9, 44, 0
4, 63520, Note_on_c, 9, 59, 0
4, 63543, Note_on_c, 9, 59, 43
4, 63557, Note_on_c, 9, 59, 0
4, 63577, Note_on_c, 9, 59, 74
4, 63600, Note_on_c, 9, 59, 0
4, 63618, Note_on_c, 9, 59, 80
4, 63695, Note_on_c, 9, 59, 0
4, 63720, Note_on_c, 9, 44, 43
4, 63732, Note_on_c, 9, 59, 68
4, 63745, Note_on_c, 9, 59, 0
4, 63760, Note_on_c, 9, 44, 0
4, 63803, Note_on_c, 9, 59, 80
4, 63828, Note_on_c, 9, 59, 0
4, 63846, Note_on_c, 9, 59, 81
4, 63912, Note_on_c, 9, 59, 0
4, 63960, Note_on_c, 9, 44, 42
4, 63965, Note_on_c, 9, 59, 79
4, 64000, Note_on_c, 9, 44, 0
4, 64014, Note_on_c, 9, 59, 0
4, 64042, Note_on_c, 9, 51, 71
4, 64043, Note_on_c, 9, 38, 38
4, 64054, Note_on_c, 9, 38, 0
4, 64076, Note_on_c, 9, 51, 0
4, 64086, Note_on_c, 9, 38, 20
4, 64114, Note_on_c, 9, 38, 0
4, 64167, Note_on_c, 9, 38, 39
4, 64177, Note_on_c, 9, 38, 0
4, 64200, Note_on_c, 9, 44, 38
4, 64200, Note_on_c, 9, 59, 84
4, 64245, Note_on_c, 9, 59, 0
4, 64280, Note_on_c, 9, 44, 0
4, 64410, Note_on_c, 9, 59, 44
4, 64422, Note_on_c, 9, 59, 0
4, 64440, Note_on_c, 9, 46, 36
4, 64480, Note_on_c, 9, 46, 0
4, 64524, Note_on_c, 9, 59, 92
4, 64529, Note_on_c, 9, 38, 34
4, 64540, Note_on_c, 9, 38, 0
4, 64549, Note_on_c, 9, 59, 0
4, 64579, Note_on_c, 9, 59, 71
4, 64610, Note_on_c, 9, 59, 0
4, 64643, Note_on_c, 9, 38, 61
4, 64662, Note_on_c, 9, 38, 0
4, 64680, Note_on_c, 9, 44, 43
4, 64689, Note_on_c, 9, 59, 61
4, 64715, Note_on_c, 9, 59, 0
4, 64720, Note_on_c, 9, 44, 0
4, 64757, Note_on_c, 9, 36, 37
4, 64767, Note_on_c, 9, 36, 0
4, 64779, Note_on_c, 9, 59, 69
4, 64789, Note_on_c, 9, 59, 0
4, 64804, Note_on_c, 9, 38, 27
4, 64815, Note_on_c, 9, 59, 73
4, 64816, Note_on_c, 9, 38, 0
4, 64881, Note_on_c, 9, 59, 0
4, 64920, Note_on_c, 9, 44, 44
4, 64960, Note_on_c, 9, 44, 0
4, 65009, Note_on_c, 9, 59, 67
4, 65035, Note_on_c, 9, 59, 0
4, 65059, Note_on_c, 9, 59, 80
4, 65104, Note_on_c, 9, 59, 0
4, 65160, Note_on_c, 9, 44, 42
4, 65240, Note_on_c, 9, 44, 0
4, 65248, Note_on_c, 9, 38, 35
4, 65252, Note_on_c, 9, 59, 54
4, 65267, Note_on_c, 9, 59, 0
4, 65270, Note_on_c, 9, 38, 0
4, 65291, Note_on_c, 9, 59, 71
4, 65336, Note_on_c, 9, 59, 0
4, 65497, Note_on_c, 9, 51, 62
4, 65499, Note_on_c, 9, 53, 70
4, 65512, Note_on_c, 9, 53, 0
4, 65517, Note_on_c, 9, 51, 0
4, 65542, Note_on_c, 9, 59, 51
4, 65596, Note_on_c, 9, 59, 0
4, 65617, Note_on_c, 9, 51, 56
4, 65619, Note_on_c, 9, 53, 58
4, 65627, Note_on_c, 9, 51, 0
4, 65629, Note_on_c, 9, 53, 0
4, 65652, Note_on_c, 9, 59, 72
4, 65657, Note_on_c, 9, 37, 53
4, 65677, Note_on_c, 9, 37, 0
4, 65724, Note_on_c, 9, 59, 0
4, 65738, Note_on_c, 9, 51, 74
4, 65740, Note_on_c, 9, 53, 73
4, 65758, Note_on_c, 9, 53, 0
4, 65762, Note_on_c, 9, 51, 0
4, 65793, Note_on_c, 9, 59, 53
4, 65843, Note_on_c, 9, 59, 0
4, 65895, Note_on_c, 9, 59, 71
4, 65932, Note_on_c, 9, 59, 0
4, 65984, Note_on_c, 9, 59, 38
4, 65996, Note_on_c, 9, 59, 0
4, 66015, Note_on_c, 9, 59, 70
4, 66064, Note_on_c, 9, 59, 0
4, 66120, Note_on_c, 9, 44, 42
4, 66160, Note_on_c, 9, 44, 0
4, 66212, Note_on_c, 9, 59, 57
4, 66217, Note_on_c, 9, 38, 20
4, 66227, Note_on_c, 9, 38, 0
4, 66230, Note_on_c, 9, 59, 0
4, 66249, Note_on_c, 9, 59, 71
4, 66303, Note_on_c, 9, 59, 0
4, 66328, Note_on_c, 9, 38, 36
4, 66338, Note_on_c, 9, 38, 0
4, 66366, Note_on_c, 9, 59, 88
4, 66372, Note_on_c, 9, 38, 26
4, 66395, Note_on_c, 9, 38, 0
4, 66438, Note_on_c, 9, 59, 0
4, 66576, Note_on_c, 9, 59, 63
4, 66595, Note_on_c, 9, 59, 0
4, 66600, Note_on_c, 9, 44, 50
4, 66616, Note_on_c, 9, 59, 79
4, 66640, Note_on_c, 9, 44, 0
4, 66661, Note_on_c, 9, 59, 0
4, 66682, Note_on_c, 9, 37, 53
4, 66698, Note_on_c, 9, 37, 0
4, 66726, Note_on_c, 9, 38, 31
4, 66728, Note_on_c, 9, 59, 92
4, 66740, Note_on_c, 9, 38, 0
4, 66798, Note_on_c, 9, 59, 0
4, 66840, Note_on_c, 9, 44, 44
4, 66849, Note_on_c, 9, 38, 16
4, 66850, Note_on_c, 9, 59, 83
4, 66880, Note_on_c, 9, 44, 0
4, 66891, Note_on_c, 9, 38, 0
4, 66906, Note_on_c, 9, 59, 0
4, 66930, Note_on_c, 9, 38, 44
4, 66940, Note_on_c, 9, 38, 0
4, 66942, Note_on_c, 9, 59, 71
4, 66955, Note_on_c, 9, 59, 0
4, 66969, Note_on_c, 9, 38, 28
4, 67000, Note_on_c, 9, 38, 0
4, 67054, Note_on_c, 9, 38, 20
4, 67068, Note_on_c, 9, 38, 0
4, 67080, Note_on_c, 9, 46, 32
4, 67120, Note_on_c, 9, 46, 0
4, 67166, Note_on_c, 9, 38, 46
4, 67168, Note_on_c, 9, 59, 55
4, 67181, Note_on_c, 9, 59, 0
4, 67192, Note_on_c, 9, 38, 0
4, 67207, Note_on_c, 9, 59, 70
4, 67210, Note_on_c, 9, 38, 24
4, 67233, Note_on_c, 9, 38, 0
4, 67264, Note_on_c, 9, 59, 0
4, 67291, Note_on_c, 9, 59, 69
4, 67292, Note_on_c, 9, 38, 26
4, 67304, Note_on_c, 9, 38, 0
4, 67313, Note_on_c, 9, 59, 0
4, 67320, Note_on_c, 9, 44, 48
4, 67360, Note_on_c, 9, 44, 0
4, 67416, Note_on_c, 9, 38, 38
4, 67428, Note_on_c, 9, 38, 0
4, 67445, Note_on_c, 9, 59, 66
4, 67475, Note_on_c, 9, 59, 0
4, 67524, Note_on_c, 9, 59, 65
4, 67525, Note_on_c, 9, 36, 40
4, 67535, Note_on_c, 9, 36, 0
4, 67540, Note_on_c, 9, 59, 0
4, 67560, Note_on_c, 9, 44, 46
4, 67560, Note_on_c, 9, 46, 34
4, 67567, Note_on_c, 9, 59, 62
4, 67578, Note_on_c, 9, 59, 0
4, 67600, Note_on_c, 9, 46, 0
4, 67600, Note_on_c, 9, 44, 0
4, 67646, Note_on_c, 9, 59, 92
4, 67656, Note_on_c, 9, 38, 38
4, 67669, Note_on_c, 9, 38, 0
4, 67695, Note_on_c, 9, 38, 34
4, 67711, Note_on_c, 9, 38, 0
4, 67750, Note_on_c, 9, 59, 0
4, 67763, Note_on_c, 9, 38, 40
4, 67773, Note_on_c, 9, 59, 53
4, 67784, Note_on_c, 9, 59, 0
4, 67784, Note_on_c, 9, 38, 0
4, 67787, Note_on_c, 9, 59, 59
4, 67800, Note_on_c, 9, 44, 56
4, 67800, Note_on_c, 9, 46, 38
4, 67809, Note_on_c, 9, 59, 71
4, 67817, Note_on_c, 9, 59, 0
4, 67840, Note_on_c, 9, 44, 0
4, 67840, Note_on_c, 9, 46, 0
4, 67881, Note_on_c, 9, 59, 0
4, 67929, Note_on_c, 9, 59, 77
4, 68008, Note_on_c, 9, 38, 20
4, 68018, Note_on_c, 9, 38, 0
4, 68040, Note_on_c, 9, 46, 49
4, 68040, Note_on_c, 9, 44, 46
4, 68043, Note_on_c, 9, 59, 0
4, 68054, Note_on_c, 9, 38, 30
4, 68064, Note_on_c, 9, 38, 0
4, 68080, Note_on_c, 9, 44, 0
4, 68080, Note_on_c, 9, 46, 0
4, 68129, Note_on_c, 9, 59, 46
4, 68131, Note_on_c, 9, 38, 76
4, 68145, Note_on_c, 9, 59, 0
4, 68148, Note_on_c, 9, 38, 0
4, 68172, Note_on_c, 9, 59, 56
4, 68207, Note_on_c, 9, 59, 0
4, 68252, Note_on_c, 9, 59, 71
4, 68280, Note_on_c, 9, 44, 58
4, 68280, Note_on_c, 9, 46, 45
4, 68320, Note_on_c, 9, 46, 0
4, 68320, Note_on_c, 9, 44, 0
4, 68371, Note_on_c, 9, 38, 55
4, 68377, Note_on_c, 9, 59, 0
4, 68390, Note_on_c, 9, 38, 0
4, 68420, Note_on_c, 9, 59, 49
4, 68464, Note_on_c, 9, 59, 0
4, 68485, Note_on_c, 9, 38, 58
4, 68500, Note_on_c, 9, 59, 66
4, 68505, Note_on_c, 9, 38, 0
4, 68520, Note_on_c, 9, 44, 46
4, 68522, Note_on_c, 9, 59, 0
4, 68541, Note_on_c, 9, 59, 68
4, 68560, Note_on_c, 9, 44, 0
4, 68591, Note_on_c, 9, 59, 0
4, 68613, Note_on_c, 9, 59, 53
4, 68626, Note_on_c, 9, 59, 0
4, 68649, Note_on_c, 9, 59, 69
4, 68726, Note_on_c, 9, 59, 0
4, 68766, Note_on_c, 9, 59, 80
4, 68826, Note_on_c, 9, 59, 0
4, 68889, Note_on_c, 9, 59, 58
4, 68945, Note_on_c, 9, 59, 0
4, 69006, Note_on_c, 9, 59, 80
4, 69062, Note_on_c, 9, 59, 0
4, 69100, Note_on_c, 9, 59, 44
4, 69113, Note_on_c, 9, 59, 0
4, 69134, Note_on_c, 9, 59, 68
4, 69206, Note_on_c, 9, 59, 0
4, 69257, Note_on_c, 9, 59, 85
4, 69328, Note_on_c, 9, 59, 0
4, 69377, Note_on_c, 9, 59, 71
4, 69438, Note_on_c, 9, 59, 0
4, 69495, Note_on_c, 9, 59, 74
4, 69566, Note_on_c, 9, 59, 0
4, 69573, Note_on_c, 9, 53, 77
4, 69609, Note_on_c, 9, 53, 0
4, 69616, Note_on_c, 9, 59, 52
4, 69693, Note_on_c, 9, 59, 0
4, 69731, Note_on_c, 9, 59, 50
4, 69793, Note_on_c, 9, 59, 0
4, 69849, Note_on_c, 9, 59, 60
4, 69906, Note_on_c, 9, 59, 0
4, 69926, Note_on_c, 9, 51, 64
4, 69927, Note_on_c, 9, 53, 71
4, 69960, Note_on_c, 9, 53, 0
4, 69984, Note_on_c, 9, 51, 0
4, 70085, Note_on_c, 9, 53, 82
4, 70150, Note_on_c, 9, 53, 0
4, 70205, Note_on_c, 9, 53, 65
4, 70247, Note_on_c, 9, 53, 0
4, 70296, Note_on_c, 9, 53, 35
4, 70310, Note_on_c, 9, 53, 0
4, 70333, Note_on_c, 9, 53, 68
4, 70398, Note_on_c, 9, 53, 0
4, 70412, Note_on_c, 9, 59, 80
4, 70438, Note_on_c, 9, 44, 52
4, 70486, Note_on_c, 9, 44, 0
4, 70534, Note_on_c, 9, 59, 0
4, 70571, Note_on_c, 9, 59, 81
4, 70644, Note_on_c, 9, 59, 0
4, 70680, Note_on_c, 9, 44, 47
4, 70685, Note_on_c, 9, 59, 73
4, 70734, Note_on_c, 9, 44, 0
4, 70743, Note_on_c, 9, 59, 0
4, 70806, Note_on_c, 9, 59, 68
4, 70878, Note_on_c, 9, 59, 0
4, 70882, Note_on_c, 9, 51, 57
4, 70915, Note_on_c, 9, 51, 0
4, 70923, Note_on_c, 9, 59, 56
4, 71007, Note_on_c, 9, 59, 0
4, 71039, Note_on_c, 9, 59, 60
4, 71110, Note_on_c, 9, 59, 0
4, 71163, Note_on_c, 9, 59, 66
4, 71231, Note_on_c, 9, 59, 0
4, 71284, Note_on_c, 9, 59, 72
4, 71343, Note_on_c, 9, 59, 0
4, 71405, Note_on_c, 9, 59, 83
4, 71457, Note_on_c, 9, 59, 0
4, 71495, Note_on_c, 9, 59, 59
4, 71508, Note_on_c, 9, 59, 0
4, 71528, Note_on_c, 9, 59, 79
4, 71591, Note_on_c, 9, 59, 0
4, 71645, Note_on_c, 9, 59, 91
4, 71701, Note_on_c, 9, 59, 0
4, 71740, Note_on_c, 9, 59, 58
4, 71751, Note_on_c, 9, 59, 0
4, 71768, Note_on_c, 9, 59, 79
4, 71830, Note_on_c, 9, 59, 0
4, 71887, Note_on_c, 9, 59, 101
4, 71903, Note_on_c, 9, 38, 24
4, 71917, Note_on_c, 9, 38, 0
4, 71954, Note_on_c, 9, 59, 0
4, 72008, Note_on_c, 9, 59, 84
4, 72066, Note_on_c, 9, 59, 0
4, 72092, Note_on_c, 9, 59, 55
4, 72108, Note_on_c, 9, 59, 0
4, 72129, Note_on_c, 9, 59, 81
4, 72210, Note_on_c, 9, 59, 0
4, 72250, Note_on_c, 9, 59, 85
4, 72309, Note_on_c, 9, 59, 0
4, 72343, Note_on_c, 9, 38, 77
4, 72364, Note_on_c, 9, 38, 0
4, 72367, Note_on_c, 9, 59, 90
4, 72424, Note_on_c, 9, 59, 0
4, 72457, Note_on_c, 9, 38, 87
4, 72461, Note_on_c, 9, 57, 87
4, 72461, Note_on_c, 9, 59, 59
4, 72471, Note_on_c, 9, 59, 0
4, 72484, Note_on_c, 9, 57, 0
4, 72493, Note_on_c, 9, 38, 0
4, 72493, Note_on_c, 9, 59, 80
4, 72556, Note_on_c, 9, 59, 0
4, 72605, Note_on_c, 9, 59, 99
4, 72658, Note_on_c, 9, 59, 0
4, 72696, Note_on_c, 9, 59, 70
4, 72711, Note_on_c, 9, 59, 0
4, 72732, Note_on_c, 9, 59, 88
4, 72808, Note_on_c, 9, 59, 0
4, 72826, Note_on_c, 9, 38, 62
4, 72849, Note_on_c, 9, 59, 91
4, 72853, Note_on_c, 9, 38, 0
4, 72873, Note_on_c, 9, 57, 88
4, 72877, Note_on_c, 9, 36, 89
4, 72898, Note_on_c, 9, 57, 0
4, 72914, Note_on_c, 9, 36, 0
4, 72921, Note_on_c, 9, 59, 0
4, 72970, Note_on_c, 9, 59, 95
4, 73039, Note_on_c, 9, 59, 0
4, 73087, Note_on_c, 9, 59, 87
4, 73142, Note_on_c, 9, 59, 0
4, 73174, Note_on_c, 9, 59, 57
4, 73188, Note_on_c, 9, 59, 0
4, 73207, Note_on_c, 9, 59, 85
4, 73284, Note_on_c, 9, 59, 0
4, 73331, Note_on_c, 9, 59, 92
4, 73386, Note_on_c, 9, 59, 0
4, 73414, Note_on_c, 9, 59, 53
4, 73427, Note_on_c, 9, 59, 0
4, 73449, Note_on_c, 9, 59, 79
4, 73518, Note_on_c, 9, 59, 0
4, 73561, Note_on_c, 9, 44, 50
4, 73564, Note_on_c, 9, 59, 90
4, 73616, Note_on_c, 9, 44, 0
4, 73627, Note_on_c, 9, 59, 0
4, 73650, Note_on_c, 9, 59, 47
4, 73662, Note_on_c, 9, 59, 0
4, 73687, Note_on_c, 9, 59, 76
4, 73745, Note_on_c, 9, 59, 0
4, 73797, Note_on_c, 9, 59, 91
4, 73800, Note_on_c, 9, 44, 45
4, 73859, Note_on_c, 9, 59, 0
4, 73868, Note_on_c, 9, 44, 0
4, 73922, Note_on_c, 9, 59, 80
4, 73972, Note_on_c, 9, 59, 0
4, 74044, Note_on_c, 9, 59, 89
4, 74105, Note_on_c, 9, 59, 0
4, 74168, Note_on_c, 9, 59, 90
4, 74228, Note_on_c, 9, 59, 0
4, 74292, Note_on_c, 9, 59, 89
4, 74374, Note_on_c, 9, 59, 0
4, 74410, Note_on_c, 9, 59, 66
4, 74423, Note_on_c, 9, 59, 0
4, 74443, Note_on_c, 9, 59, 83
4, 74481, Note_on_c, 9, 59, 0
4, 74537, Note_on_c, 9, 59, 81
4, 74610, Note_on_c, 9, 59, 0
4, 74657, Note_on_c, 9, 59, 72
4, 74716, Note_on_c, 9, 59, 0
4, 74770, Note_on_c, 9, 59, 87
4, 74821, Note_on_c, 9, 59, 0
4, 74851, Note_on_c, 9, 59, 59
4, 74874, Note_on_c, 9, 59, 0
4, 74890, Note_on_c, 9, 59, 80
4, 74891, Note_on_c, 9, 38, 54
4, 74903, Note_on_c, 9, 38, 0
4, 74954, Note_on_c, 9, 59, 0
4, 75006, Note_on_c, 9, 38, 94
4, 75007, Note_on_c, 9, 59, 88
4, 75033, Note_on_c, 9, 38, 0
4, 75062, Note_on_c, 9, 59, 0
4, 75091, Note_on_c, 9, 59, 55
4, 75104, Note_on_c, 9, 59, 0
4, 75125, Note_on_c, 9, 59, 76
4, 75191, Note_on_c, 9, 59, 0
4, 75248, Note_on_c, 9, 59, 96
4, 75251, Note_on_c, 9, 38, 52
4, 75273, Note_on_c, 9, 38, 0
4, 75305, Note_on_c, 9, 59, 0
4, 75324, Note_on_c, 9, 38, 80
4, 75339, Note_on_c, 9, 59, 51
4, 75349, Note_on_c, 9, 59, 0
4, 75361, Note_on_c, 9, 38, 0
4, 75371, Note_on_c, 9, 59, 75
4, 75440, Note_on_c, 9, 59, 0
4, 75489, Note_on_c, 9, 59, 94
4, 75562, Note_on_c, 9, 59, 0
4, 75605, Note_on_c, 9, 59, 79
4, 75668, Note_on_c, 9, 59, 0
4, 75692, Note_on_c, 9, 59, 57
4, 75704, Note_on_c, 9, 59, 0
4, 75725, Note_on_c, 9, 59, 85
4, 75807, Note_on_c, 9, 59, 0
4, 75843, Note_on_c, 9, 59, 87
4, 75906, Note_on_c, 9, 59, 0
4, 75924, Note_on_c, 9, 59, 74
4, 75949, Note_on_c, 9, 59, 0
4, 76044, Note_on_c, 9, 59, 108
4, 76067, Note_on_c, 9, 40, 49
4, 76081, Note_on_c, 9, 40, 0
4, 76139, Note_on_c, 9, 59, 0
4, 76166, Note_on_c, 9, 59, 57
4, 76178, Note_on_c, 9, 40, 73
4, 76181, Note_on_c, 9, 59, 0
4, 76195, Note_on_c, 9, 40, 0
4, 76212, Note_on_c, 9, 59, 94
4, 76279, Note_on_c, 9, 59, 0
4, 76286, Note_on_c, 9, 40, 63
4, 76292, Note_on_c, 9, 59, 80
4, 76309, Note_on_c, 9, 40, 0
4, 76321, Note_on_c, 9, 36, 75
4, 76321, Note_on_c, 9, 57, 83
4, 76348, Note_on_c, 9, 57, 0
4, 76351, Note_on_c, 9, 36, 0
4, 76367, Note_on_c, 9, 59, 0
4, 76403, Note_on_c, 9, 59, 39
4, 76416, Note_on_c, 9, 59, 0
4, 76446, Note_on_c, 9, 59, 90
4, 76530, Note_on_c, 9, 59, 0
4, 76563, Note_on_c, 9, 59, 87
4, 76633, Note_on_c, 9, 59, 0
4, 76655, Note_on_c, 9, 40, 66
4, 76682, Note_on_c, 9, 40, 0
4, 76686, Note_on_c, 9, 59, 85
4, 76688, Note_on_c, 9, 57, 80
4, 76703, Note_on_c, 9, 36, 63
4, 76715, Note_on_c, 9, 57, 0
4, 76737, Note_on_c, 9, 36, 0
4, 76741, Note_on_c, 9, 59, 0
4, 76773, Note_on_c, 9, 59, 48
4, 76786, Note_on_c, 9, 59, 0
4, 76805, Note_on_c, 9, 59, 81
4, 76877, Note_on_c, 9, 59, 0
4, 76922, Note_on_c, 9, 59, 90
4, 76980, Note_on_c, 9, 59, 0
4, 77008, Note_on_c, 9, 59, 45
4, 77026, Note_on_c, 9, 59, 0
4, 77045, Note_on_c, 9, 59, 76
4, 77111, Note_on_c, 9, 59, 0
4, 77168, Note_on_c, 9, 59, 92
4, 77231, Note_on_c, 9, 59, 0
4, 77293, Note_on_c, 9, 59, 94
4, 77345, Note_on_c, 9, 59, 0
4, 77409, Note_on_c, 9, 59, 90
4, 77462, Note_on_c, 9, 59, 0
4, 77493, Note_on_c, 9, 59, 54
4, 77506, Note_on_c, 9, 59, 0
4, 77529, Note_on_c, 9, 59, 80
4, 77593, Note_on_c, 9, 59, 0
4, 77645, Note_on_c, 9, 59, 91
4, 77694, Note_on_c, 9, 59, 0
4, 77726, Note_on_c, 9, 59, 56
4, 77739, Note_on_c, 9, 59, 0
4, 77760, Note_on_c, 9, 59, 80
4, 77822, Note_on_c, 9, 59, 0
4, 77882, Note_on_c, 9, 59, 101
4, 77938, Note_on_c, 9, 59, 0
4, 77965, Note_on_c, 9, 59, 54
4, 77978, Note_on_c, 9, 59, 0
4, 78000, Note_on_c, 9, 59, 76
4, 78053, Note_on_c, 9, 59, 0
4, 78125, Note_on_c, 9, 59, 105
4, 78168, Note_on_c, 9, 59, 0
4, 78203, Note_on_c, 9, 59, 71
4, 78222, Note_on_c, 9, 59, 0
4, 78240, Note_on_c, 9, 59, 77
4, 78275, Note_on_c, 9, 59, 0
4, 78324, Note_on_c, 9, 59, 101
4, 78426, Note_on_c, 9, 59, 0
4, 78454, Note_on_c, 9, 59, 27
4, 78464, Note_on_c, 9, 59, 0
4, 78484, Note_on_c, 9, 59, 89
4, 78558, Note_on_c, 9, 59, 0
4, 78588, Note_on_c, 9, 40, 46
4, 78602, Note_on_c, 9, 59, 60
4, 78611, Note_on_c, 9, 40, 0
4, 78622, Note_on_c, 9, 59, 0
4, 78677, Note_on_c, 9, 59, 101
4, 78713, Note_on_c, 9, 40, 58
4, 78730, Note_on_c, 9, 40, 0
4, 78771, Note_on_c, 9, 59, 0
4, 78804, Note_on_c, 9, 59, 41
4, 78813, Note_on_c, 9, 40, 65
4, 78817, Note_on_c, 9, 59, 0
4, 78827, Note_on_c, 9, 40, 0
4, 78844, Note_on_c, 9, 59, 82
4, 78909, Note_on_c, 9, 59, 0
4, 78929, Note_on_c, 9, 40, 49
4, 78944, Note_on_c, 9, 40, 0
4, 78967, Note_on_c, 9, 59, 87
4, 78975, Note_on_c, 9, 40, 55
4, 79028, Note_on_c, 9, 59, 0
4, 79033, Note_on_c, 9, 40, 0
4, 79081, Note_on_c, 9, 59, 88
4, 79136, Note_on_c, 9, 59, 0
4, 79169, Note_on_c, 9, 59, 49
4, 79182, Note_on_c, 9, 59, 0
4, 79203, Note_on_c, 9, 59, 80
4, 79261, Note_on_c, 9, 59, 0
4, 79324, Note_on_c, 9, 59, 90
4, 79381, Note_on_c, 9, 59, 0
4, 79409, Note_on_c, 9, 59, 47
4, 79423, Note_on_c, 9, 59, 0
4, 79446, Note_on_c, 9, 59, 71
4, 79510, Note_on_c, 9, 59, 0
4, 79568, Note_on_c, 9, 59, 91
4, 79624, Note_on_c, 9, 59, 0
4, 79647, Note_on_c, 9, 59, 56
4, 79660, Note_on_c, 9, 59, 0
4, 79688, Note_on_c, 9, 59, 68
4, 79689, Note_on_c, 9, 40, 40
4, 79707, Note_on_c, 9, 40, 0
4, 79715, Note_on_c, 9, 59, 0
4, 79764, Note_on_c, 9, 40, 62
4, 79772, Note_on_c, 9, 59, 115
4, 79782, Note_on_c, 9, 40, 0
4, 79818, Note_on_c, 9, 40, 41
4, 79840, Note_on_c, 9, 40, 0
4, 79891, Note_on_c, 9, 59, 0
4, 79935, Note_on_c, 9, 59, 91
4, 80009, Note_on_c, 9, 40, 68
4, 80025, Note_on_c, 9, 59, 0
4, 80031, Note_on_c, 9, 40, 0
4, 80050, Note_on_c, 9, 59, 64
4, 80070, Note_on_c, 9, 59, 0
4, 80115, Note_on_c, 9, 40, 65
4, 80121, Note_on_c, 9, 59, 82
4, 80142, Note_on_c, 9, 59, 0
4, 80142, Note_on_c, 9, 40, 0
4, 80164, Note_on_c, 9, 59, 71
4, 80169, Note_on_c, 9, 57, 70
4, 80174, Note_on_c, 9, 36, 57
4, 80190, Note_on_c, 9, 57, 0
4, 80194, Note_on_c, 9, 36, 0
4, 80235, Note_on_c, 9, 59, 0
4, 80289, Note_on_c, 9, 59, 89
4, 80342, Note_on_c, 9, 59, 0
4, 80371, Note_on_c, 9, 59, 49
4, 80390, Note_on_c, 9, 59, 0
4, 80409, Note_on_c, 9, 59, 71
4, 80460, Note_on_c, 9, 59, 0
4, 80490, Note_on_c, 9, 40, 53
4, 80506, Note_on_c, 9, 40, 0
4, 80525, Note_on_c, 9, 57, 71
4, 80525, Note_on_c, 9, 59, 87
4, 80536, Note_on_c, 9, 36, 66
4, 80540, Note_on_c, 9, 57, 0
4, 80567, Note_on_c, 9, 36, 0
4, 80584, Note_on_c, 9, 59, 0
4, 80615, Note_on_c, 9, 59, 44
4, 80628, Note_on_c, 9, 59, 0
4, 80649, Note_on_c, 9, 59, 65
4, 80712, Note_on_c, 9, 59, 0
4, 80722, Note_on_c, 9, 53, 79
4, 80775, Note_on_c, 9, 59, 32
4, 80797, Note_on_c, 9, 59, 0
4, 80893, Note_on_c, 9, 59, 58
4, 80951, Note_on_c, 9, 59, 0
4, 80973, Note_on_c, 9, 53, 0
4, 81016, Note_on_c, 9, 59, 84
4, 81069, Note_on_c, 9, 59, 0
4, 81083, Note_on_c, 9, 59, 71
4, 81107, Note_on_c, 9, 59, 0
4, 81205, Note_on_c, 9, 59, 70
4, 81231, Note_on_c, 9, 59, 0
4, 81255, Note_on_c, 9, 59, 59
4, 81291, Note_on_c, 9, 59, 0
4, 81325, Note_on_c, 9, 53, 64
4, 81329, Note_on_c, 9, 52, 73
4, 81339, Note_on_c, 9, 52, 0
4, 81370, Note_on_c, 9, 59, 39
4, 81435, Note_on_c, 9, 59, 0
4, 81484, Note_on_c, 9, 59, 71
4, 81501, Note_on_c, 9, 53, 0
4, 81540, Note_on_c, 9, 59, 0
4, 81562, Note_on_c, 9, 59, 58
4, 81576, Note_on_c, 9, 59, 0
4, 81599, Note_on_c, 9, 59, 73
4, 81669, Note_on_c, 9, 59, 0
4, 81678, Note_on_c, 9, 53, 78
4, 81840, Note_on_c, 9, 59, 74
4, 81907, Note_on_c, 9, 59, 0
4, 81929, Note_on_c, 9, 53, 0
4, 81957, Note_on_c, 9, 59, 76
4, 82008, Note_on_c, 9, 59, 0
4, 82051, Note_on_c, 9, 59, 39
4, 82064, Note_on_c, 9, 59, 0
4, 82078, Note_on_c, 9, 59, 48
4, 82140, Note_on_c, 9, 59, 0
4, 82200, Note_on_c, 9, 59, 69
4, 82245, Note_on_c, 9, 59, 0
4, 82294, Note_on_c, 9, 59, 24
4, 82305, Note_on_c, 9, 59, 0
4, 82323, Note_on_c, 9, 59, 49
4, 82367, Note_on_c, 9, 59, 0
4, 82436, Note_on_c, 9, 59, 80
4, 82440, Note_on_c, 9, 53, 72
4, 82491, Note_on_c, 9, 53, 0
4, 82491, Note_on_c, 9, 59, 0
4, 82546, Note_on_c, 9, 59, 33
4, 82569, Note_on_c, 9, 59, 0
4, 82591, Note_on_c, 9, 59, 34
4, 82624, Note_on_c, 9, 59, 0
4, 82681, Note_on_c, 9, 59, 36
4, 82684, Note_on_c, 9, 40, 68
4, 82701, Note_on_c, 9, 59, 0
4, 82702, Note_on_c, 9, 40, 0
4, 82755, Note_on_c, 9, 59, 49
4, 82786, Note_on_c, 9, 59, 0
4, 82805, Note_on_c, 9, 59, 71
4, 82807, Note_on_c, 9, 53, 77
4, 82809, Note_on_c, 9, 40, 68
4, 82833, Note_on_c, 9, 40, 0
4, 82861, Note_on_c, 9, 53, 0
4, 82866, Note_on_c, 9, 59, 0
4, 82878, Note_on_c, 9, 40, 57
4, 82892, Note_on_c, 9, 40, 0
4, 82923, Note_on_c, 9, 59, 47
4, 82931, Note_on_c, 9, 36, 45
4, 82958, Note_on_c, 9, 36, 0
4, 82964, Note_on_c, 9, 59, 0
4, 83008, Note_on_c, 9, 59, 50
4, 83021, Note_on_c, 9, 59, 0
4, 83021, Note_on_c, 9, 36, 54
4, 83053, Note_on_c, 9, 59, 55
4, 83062, Note_on_c, 9, 36, 0
4, 83118, Note_on_c, 9, 59, 0
4, 83163, Note_on_c, 9, 59, 75
4, 83166, Note_on_c, 9, 53, 70
4, 83203, Note_on_c, 9, 53, 0
4, 83227, Note_on_c, 9, 59, 0
4, 83256, Note_on_c, 9, 59, 34
4, 83274, Note_on_c, 9, 59, 0
4, 83292, Note_on_c, 9, 59, 48
4, 83363, Note_on_c, 9, 59, 0
4, 83410, Note_on_c, 9, 59, 68
4, 83462, Note_on_c, 9, 59, 0
4, 83490, Note_on_c, 9, 59, 40
4, 83506, Note_on_c, 9, 59, 0
4, 83530, Note_on_c, 9, 59, 68
4, 83580, Note_on_c, 9, 59, 0
4, 83646, Note_on_c, 9, 59, 51
4, 83688, Note_on_c, 9, 59, 0
4, 83728, Note_on_c, 9, 40, 58
4, 83761, Note_on_c, 9, 40, 0
4, 83766, Note_on_c, 9, 59, 88
4, 83819, Note_on_c, 9, 59, 0
4, 83845, Note_on_c, 9, 59, 42
4, 83848, Note_on_c, 9, 40, 64
4, 83862, Note_on_c, 9, 59, 0
4, 83877, Note_on_c, 9, 40, 0
4, 83889, Note_on_c, 9, 59, 48
4, 83917, Note_on_c, 9, 59, 0
4, 83962, Note_on_c, 9, 59, 77
4, 83965, Note_on_c, 9, 40, 66
4, 83965, Note_on_c, 9, 53, 71
4, 83990, Note_on_c, 9, 53, 0
4, 84000, Note_on_c, 9, 40, 0
4, 84013, Note_on_c, 9, 59, 0
4, 84020, Note_on_c, 9, 36, 60
4, 84020, Note_on_c, 9, 57, 60
4, 84033, Note_on_c, 9, 57, 0
4, 84050, Note_on_c, 9, 36, 0
4, 84127, Note_on_c, 9, 59, 38
4, 84158, Note_on_c, 9, 59, 0
4, 84203, Note_on_c, 9, 59, 64
4, 84219, Note_on_c, 9, 59, 0
4, 84244, Note_on_c, 9, 59, 62
4, 84271, Note_on_c, 9, 59, 0
4, 84331, Note_on_c, 9, 40, 62
4, 84352, Note_on_c, 9, 40, 0
4, 84363, Note_on_c, 9, 59, 99
4, 84368, Note_on_c, 9, 57, 60
4, 84381, Note_on_c, 9, 57, 0
4, 84384, Note_on_c, 9, 36, 55
4, 84408, Note_on_c, 9, 36, 0
4, 84413, Note_on_c, 9, 59, 0
4, 84455, Note_on_c, 9, 59, 31
4, 84470, Note_on_c, 9, 59, 0
4, 84495, Note_on_c, 9, 59, 66
4, 84518, Note_on_c, 9, 59, 0
4, 84598, Note_on_c, 9, 59, 94
4, 84651, Note_on_c, 9, 59, 0
4, 84693, Note_on_c, 9, 59, 42
4, 84706, Note_on_c, 9, 59, 0
4, 84733, Note_on_c, 9, 59, 45
4, 84749, Note_on_c, 9, 59, 0
4, 84850, Note_on_c, 9, 59, 101
4, 84906, Note_on_c, 9, 59, 0
4, 85041, Note_on_c, 9, 59, 71
4, 85062, Note_on_c, 9, 59, 0
4, 85083, Note_on_c, 9, 59, 75
4, 85155, Note_on_c, 9, 59, 0
4, 85206, Note_on_c, 9, 59, 81
4, 85264, Note_on_c, 9, 59, 0
4, 85324, Note_on_c, 9, 59, 79
4, 85373, Note_on_c, 9, 59, 0
4, 85409, Note_on_c, 9, 59, 47
4, 85422, Note_on_c, 9, 59, 0
4, 85445, Note_on_c, 9, 59, 74
4, 85504, Note_on_c, 9, 59, 0
4, 85521, Note_on_c, 9, 40, 31
4, 85539, Note_on_c, 9, 40, 0
4, 85562, Note_on_c, 9, 59, 88
4, 85571, Note_on_c, 9, 44, 64
4, 85608, Note_on_c, 9, 44, 0
4, 85612, Note_on_c, 9, 59, 0
4, 85689, Note_on_c, 9, 59, 91
4, 85755, Note_on_c, 9, 59, 0
4, 85810, Note_on_c, 9, 59, 88
4, 85822, Note_on_c, 9, 44, 50
4, 85839, Note_on_c, 9, 44, 0
4, 85884, Note_on_c, 9, 59, 0
4, 85935, Note_on_c, 9, 59, 84
4, 85992, Note_on_c, 9, 59, 0
4, 86053, Note_on_c, 9, 40, 46
4, 86055, Note_on_c, 9, 59, 90
4, 86071, Note_on_c, 9, 40, 0
4, 86118, Note_on_c, 9, 59, 0
4, 86169, Note_on_c, 9, 59, 73
4, 86229, Note_on_c, 9, 59, 0
4, 86247, Note_on_c, 9, 51, 71
4, 86250, Note_on_c, 9, 53, 69
4, 86260, Note_on_c, 9, 40, 64
4, 86262, Note_on_c, 9, 53, 0
4, 86267, Note_on_c, 9, 51, 0
4, 86276, Note_on_c, 9, 40, 0
4, 86297, Note_on_c, 9, 59, 72
4, 86357, Note_on_c, 9, 59, 0
4, 86378, Note_on_c, 9, 40, 46
4, 86393, Note_on_c, 9, 40, 0
4, 86409, Note_on_c, 9, 59, 76
4, 86419, Note_on_c, 9, 40, 55
4, 86449, Note_on_c, 9, 40, 0
4, 86457, Note_on_c, 9, 59, 0
4, 86521, Note_on_c, 9, 59, 80
4, 86553, Note_on_c, 9, 59, 0
4, 86603, Note_on_c, 9, 40, 57
4, 86617, Note_on_c, 9, 40, 0
4, 86715, Note_on_c, 9, 40, 49
4, 86719, Note_on_c, 9, 59, 65
4, 86729, Note_on_c, 9, 40, 0
4, 86746, Note_on_c, 9, 59, 0
4, 86763, Note_on_c, 9, 44, 56
4, 86771, Note_on_c, 9, 59, 53
4, 86785, Note_on_c, 9, 44, 0
4, 86815, Note_on_c, 9, 59, 0
4, 86880, Note_on_c, 9, 59, 64
4, 86891, Note_on_c, 9, 57, 60
4, 86922, Note_on_c, 9, 59, 0
4, 87011, Note_on_c, 9, 59, 63
4, 87065, Note_on_c, 9, 59, 0
4, 87197, Note_on_c, 9, 59, 54
4, 87216, Note_on_c, 9, 59, 0
4, 87252, Note_on_c, 9, 59, 50
4, 87267, Note_on_c, 9, 59, 0
4, 87329, Note_on_c, 9, 59, 80
4, 87354, Note_on_c, 9, 59, 0
4, 87442, Note_on_c, 9, 59, 80
4, 87471, Note_on_c, 9, 59, 0
4, 87513, Note_on_c, 9, 57, 0
4, 87561, Note_on_c, 9, 59, 71
4, 87579, Note_on_c, 9, 59, 0
4, 87607, Note_on_c, 9, 59, 70
4, 87651, Note_on_c, 9, 59, 0
4, 87736, Note_on_c, 9, 59, 76
4, 87767, Note_on_c, 9, 59, 0
4, 87855, Note_on_c, 9, 59, 77
4, 87863, Note_on_c, 9, 57, 62
4, 87883, Note_on_c, 9, 59, 0
4, 87941, Note_on_c, 9, 57, 0
4, 87941, End_track
5, 0, Start_track
5, 0, Title_t, ""
5, 0, End_track
0, 0, End_of_file
