0, 0, Header, 1, 4, 960
1, 0, Start_track
1, 0, Title_t, "My Man's Gone Now"
1, 0, Text_t, "George Gershwin"
1, 0, Text_t, "dougmck@tpg.com.au - Played in real time - there are lots of variations on the form of this - as well as the harmonic scheme\012"
1, 0, Time_signature, 3, 2, 24, 8
1, 0, Key_signature, -1, "major"
1, 0, Tempo, 681818
1, 2072, Marker_t, "Rubato start on Bridge section"
1, 86400, Marker_t, "Vamp here is Dm7, G13/D, D7#9, A13/D"
1, 109440, Marker_t, "Same chords on first 4 bars of main theme"
1, 121072, Marker_t, "Descending chords aginst melody (Dm,C,Bm7b5,BbMaj7,Am11,Ab7#11,G9,F9,Eb9,Dm)"
1, 129616, Marker_t, "Vamp this time is Dorian (Dm7 G7/D)"
1, 141120, Marker_t, "Back to main theme - this time chords are 4ths"
1, 161280, Marker_t, "More D dorian vamp"
1, 172800, Marker_t, "Bridge"
1, 195864, Marker_t, "Ebm11, Ab7"
1, 198720, Marker_t, "G7alt"
1, 201644, Marker_t, "F#m11, B13"
1, 204512, Marker_t, "E7alt"
1, 207376, Marker_t, "Abm11, Db7alt"
1, 210240, Marker_t, "Bm11, e7alt"
1, 213196, Marker_t, "F7sus,F7"
1, 227544, Marker_t, "D Dorian vamp"
1, 239040, Marker_t, "Back to main theme"
1, 357160, Marker_t, "Final Vamp is Dm, E/D (or Ddim), Eb/D (or Edim/D), Dm"
1, 383040, Marker_t, "RH alternates between note pairs of an E triad."
1, 385576, Marker_t, "Same thing now on an Eb triad"
1, 385576, End_track
2, 0, Start_track
2, 0, Title_t, "Track 1"
2, 0, End_track
3, 0, Start_track
3, 0, Title_t, "Track 2"
3, 2358, Note_on_c, 0, 68, 61
3, 2364, Note_on_c, 0, 39, 47
3, 2367, Note_on_c, 0, 61, 67
3, 2388, Note_on_c, 0, 54, 38
3, 2394, Note_on_c, 0, 65, 57
3, 2401, Control_c, 0, 64, 0
3, 2696, Control_c, 0, 64, 127
3, 2991, Note_on_c, 0, 39, 0
3, 2996, Note_on_c, 0, 68, 0
3, 3002, Note_on_c, 0, 46, 62
3, 3033, Note_on_c, 0, 54, 0
3, 3313, Note_on_c, 0, 61, 0
3, 3340, Note_on_c, 0, 65, 0
3, 3733, Note_on_c, 0, 68, 48
3, 3751, Note_on_c, 0, 63, 46
3, 3754, Note_on_c, 0, 60, 40
3, 3758, Control_c, 0, 64, 0
3, 3765, Note_on_c, 0, 54, 44
3, 3855, Note_on_c, 0, 46, 0
3, 4334, Control_c, 0, 64, 127
3, 5074, Note_on_c, 0, 44, 44
3, 6053, Note_on_c, 0, 54, 0
3, 6160, Note_on_c, 0, 44, 0
3, 6266, Note_on_c, 0, 68, 0
3, 6415, Note_on_c, 0, 68, 63
3, 6468, Note_on_c, 0, 60, 0
3, 6544, Note_on_c, 0, 63, 0
3, 6637, Note_on_c, 0, 68, 0
3, 7108, Note_on_c, 0, 70, 64
3, 7122, Note_on_c, 0, 65, 64
3, 7126, Note_on_c, 0, 60, 58
3, 7141, Control_c, 0, 64, 0
3, 7157, Note_on_c, 0, 37, 50
3, 7554, Note_on_c, 0, 44, 65
3, 7664, Control_c, 0, 64, 127
3, 7928, Note_on_c, 0, 37, 0
3, 7951, Note_on_c, 0, 48, 72
3, 7988, Note_on_c, 0, 44, 0
3, 8255, Note_on_c, 0, 70, 0
3, 8272, Note_on_c, 0, 65, 0
3, 8341, Note_on_c, 0, 60, 0
3, 8356, Note_on_c, 0, 49, 71
3, 8411, Note_on_c, 0, 50, 44
3, 8420, Note_on_c, 0, 48, 0
3, 8568, Note_on_c, 0, 50, 0
3, 8625, Control_c, 0, 64, 0
3, 8810, Note_on_c, 0, 56, 67
3, 8825, Note_on_c, 0, 53, 45
3, 8977, Control_c, 0, 64, 127
3, 9144, Note_on_c, 0, 56, 0
3, 9187, Note_on_c, 0, 56, 33
3, 9204, Note_on_c, 0, 53, 0
3, 9215, Note_on_c, 0, 58, 54
3, 9277, Note_on_c, 0, 49, 0
3, 9456, Note_on_c, 0, 56, 0
3, 9463, Note_on_c, 0, 58, 0
3, 9581, Note_on_c, 0, 60, 45
3, 9612, Note_on_c, 0, 56, 14
3, 9850, Note_on_c, 0, 60, 0
3, 9929, Note_on_c, 0, 63, 35
3, 10232, Note_on_c, 0, 63, 0
3, 10335, Note_on_c, 0, 60, 35
3, 10346, Note_on_c, 0, 65, 51
3, 10675, Note_on_c, 0, 65, 0
3, 10681, Note_on_c, 0, 66, 51
3, 10706, Note_on_c, 0, 60, 0
3, 10792, Note_on_c, 0, 56, 0
3, 10919, Note_on_c, 0, 66, 0
3, 10935, Note_on_c, 0, 67, 62
3, 11053, Note_on_c, 0, 67, 0
3, 11112, Note_on_c, 0, 68, 58
3, 11232, Note_on_c, 0, 68, 0
3, 11274, Note_on_c, 0, 69, 41
3, 11444, Note_on_c, 0, 70, 61
3, 11485, Note_on_c, 0, 69, 0
3, 11637, Note_on_c, 0, 71, 74
3, 11640, Note_on_c, 0, 70, 0
3, 11646, Note_on_c, 0, 62, 54
3, 11658, Control_c, 0, 64, 0
3, 11660, Note_on_c, 0, 52, 47
3, 12012, Control_c, 0, 64, 127
3, 12162, Note_on_c, 0, 71, 0
3, 12228, Note_on_c, 0, 59, 55
3, 12230, Note_on_c, 0, 62, 0
3, 12741, Note_on_c, 0, 83, 82
3, 12745, Note_on_c, 0, 76, 85
3, 12752, Note_on_c, 0, 62, 53
3, 13083, Note_on_c, 0, 62, 0
3, 13163, Note_on_c, 0, 59, 0
3, 13170, Note_on_c, 0, 52, 0
3, 13217, Note_on_c, 0, 83, 0
3, 13268, Note_on_c, 0, 79, 60
3, 13282, Note_on_c, 0, 71, 64
3, 13794, Note_on_c, 0, 71, 0
3, 13798, Note_on_c, 0, 76, 0
3, 13846, Control_c, 0, 64, 0
3, 13859, Note_on_c, 0, 79, 0
3, 13863, Note_on_c, 0, 33, 58
3, 13976, Note_on_c, 0, 33, 0
3, 14015, Control_c, 0, 64, 127
3, 14702, Note_on_c, 0, 83, 55
3, 14709, Note_on_c, 0, 71, 55
3, 14716, Note_on_c, 0, 76, 50
3, 14719, Note_on_c, 0, 61, 32
3, 14738, Note_on_c, 0, 66, 43
3, 14739, Note_on_c, 0, 55, 42
3, 16192, Note_on_c, 0, 66, 0
3, 16246, Note_on_c, 0, 55, 0
3, 16262, Note_on_c, 0, 71, 0
3, 16272, Note_on_c, 0, 61, 0
3, 16313, Note_on_c, 0, 76, 0
3, 16385, Note_on_c, 0, 83, 0
3, 16809, Control_c, 0, 64, 0
3, 16831, Note_on_c, 0, 84, 52
3, 16855, Note_on_c, 0, 72, 41
3, 16858, Note_on_c, 0, 77, 53
3, 16889, Note_on_c, 0, 50, 34
3, 17049, Control_c, 0, 64, 127
3, 17062, Note_on_c, 0, 84, 0
3, 17113, Note_on_c, 0, 77, 0
3, 17173, Note_on_c, 0, 72, 0
3, 17551, Note_on_c, 0, 61, 46
3, 17555, Note_on_c, 0, 76, 47
3, 17570, Note_on_c, 0, 65, 44
3, 17576, Note_on_c, 0, 69, 44
3, 18049, Note_on_c, 0, 69, 0
3, 18051, Note_on_c, 0, 65, 0
3, 18145, Note_on_c, 0, 61, 0
3, 18151, Control_c, 0, 64, 0
3, 18155, Note_on_c, 0, 76, 0
3, 18166, Note_on_c, 0, 74, 50
3, 18194, Note_on_c, 0, 65, 45
3, 18217, Note_on_c, 0, 69, 36
3, 18231, Note_on_c, 0, 60, 35
3, 18305, Control_c, 0, 64, 127
3, 18432, Note_on_c, 0, 50, 0
3, 18436, Note_on_c, 0, 65, 0
3, 18452, Note_on_c, 0, 69, 0
3, 18536, Note_on_c, 0, 74, 0
3, 18621, Note_on_c, 0, 60, 0
3, 18846, Note_on_c, 0, 72, 55
3, 18849, Note_on_c, 0, 79, 57
3, 18857, Control_c, 0, 64, 0
3, 18859, Note_on_c, 0, 64, 44
3, 18869, Note_on_c, 0, 69, 56
3, 18887, Note_on_c, 0, 62, 24
3, 18933, Note_on_c, 0, 62, 0
3, 19097, Control_c, 0, 64, 127
3, 19366, Note_on_c, 0, 69, 0
3, 19378, Note_on_c, 0, 79, 0
3, 19418, Note_on_c, 0, 72, 0
3, 19630, Note_on_c, 0, 77, 47
3, 19640, Note_on_c, 0, 69, 31
3, 19647, Note_on_c, 0, 72, 38
3, 19691, Note_on_c, 0, 64, 0
3, 19708, Note_on_c, 0, 62, 25
3, 20247, Note_on_c, 0, 69, 0
3, 20271, Note_on_c, 0, 72, 0
3, 20461, Note_on_c, 0, 77, 0
3, 20544, Note_on_c, 0, 76, 26
3, 20557, Note_on_c, 0, 61, 39
3, 20558, Note_on_c, 0, 62, 0
3, 20562, Note_on_c, 0, 72, 33
3, 20577, Note_on_c, 0, 69, 26
3, 21113, Note_on_c, 0, 61, 0
3, 21127, Note_on_c, 0, 60, 39
3, 21182, Note_on_c, 0, 72, 0
3, 21454, Note_on_c, 0, 69, 0
3, 21552, Note_on_c, 0, 76, 0
3, 21700, Note_on_c, 0, 73, 29
3, 21720, Note_on_c, 0, 69, 41
3, 21737, Note_on_c, 0, 54, 28
3, 21763, Control_c, 0, 64, 0
3, 21765, Note_on_c, 0, 60, 0
3, 22089, Control_c, 0, 64, 127
3, 22421, Note_on_c, 0, 61, 32
3, 23187, Note_on_c, 0, 66, 35
3, 23208, Note_on_c, 0, 63, 47
3, 23215, Note_on_c, 0, 61, 0
3, 23764, Note_on_c, 0, 63, 0
3, 23874, Note_on_c, 0, 73, 0
3, 23919, Note_on_c, 0, 66, 0
3, 23919, Note_on_c, 0, 69, 0
3, 23933, Note_on_c, 0, 73, 32
3, 23939, Note_on_c, 0, 54, 0
3, 24378, Note_on_c, 0, 73, 0
3, 24584, Note_on_c, 0, 73, 35
3, 24601, Control_c, 0, 64, 0
3, 24610, Note_on_c, 0, 57, 36
3, 24612, Note_on_c, 0, 47, 33
3, 24617, Note_on_c, 0, 66, 51
3, 24625, Note_on_c, 0, 63, 37
3, 24812, Control_c, 0, 64, 127
3, 24847, Note_on_c, 0, 47, 0
3, 24872, Note_on_c, 0, 57, 0
3, 24927, Note_on_c, 0, 73, 0
3, 25058, Note_on_c, 0, 63, 0
3, 25069, Note_on_c, 0, 73, 40
3, 25307, Note_on_c, 0, 73, 0
3, 25324, Note_on_c, 0, 66, 0
3, 25479, Note_on_c, 0, 40, 22
3, 25490, Control_c, 0, 64, 0
3, 25505, Note_on_c, 0, 74, 57
3, 25527, Note_on_c, 0, 67, 57
3, 25559, Note_on_c, 0, 55, 29
3, 25659, Control_c, 0, 64, 127
3, 25723, Note_on_c, 0, 67, 0
3, 25823, Note_on_c, 0, 74, 0
3, 26025, Note_on_c, 0, 86, 73
3, 26040, Note_on_c, 0, 47, 47
3, 26044, Note_on_c, 0, 55, 0
3, 26430, Note_on_c, 0, 86, 0
3, 26473, Note_on_c, 0, 40, 0
3, 26532, Note_on_c, 0, 47, 0
3, 26576, Note_on_c, 0, 86, 64
3, 26601, Note_on_c, 0, 74, 51
3, 26603, Note_on_c, 0, 79, 53
3, 26610, Note_on_c, 0, 55, 32
3, 26696, Note_on_c, 0, 55, 0
3, 27055, Note_on_c, 0, 86, 0
3, 27110, Note_on_c, 0, 79, 0
3, 27160, Note_on_c, 0, 74, 0
3, 27169, Note_on_c, 0, 59, 33
3, 27805, Note_on_c, 0, 62, 39
3, 28482, Note_on_c, 0, 64, 53
3, 28922, Note_on_c, 0, 59, 0
3, 28979, Note_on_c, 0, 62, 0
3, 29063, Note_on_c, 0, 64, 0
3, 30002, Note_on_c, 0, 69, 73
3, 30013, Note_on_c, 0, 58, 77
3, 30020, Note_on_c, 0, 62, 72
3, 30021, Note_on_c, 0, 64, 68
3, 30043, Note_on_c, 0, 57, 62
3, 30062, Control_c, 0, 64, 0
3, 30428, Control_c, 0, 64, 127
3, 30565, Note_on_c, 0, 69, 0
3, 30641, Control_c, 0, 64, 0
3, 30673, Note_on_c, 0, 67, 34
3, 30689, Note_on_c, 0, 45, 47
3, 30732, Note_on_c, 0, 62, 0
3, 30810, Control_c, 0, 64, 127
3, 30820, Note_on_c, 0, 64, 0
3, 31079, Note_on_c, 0, 57, 0
3, 31090, Note_on_c, 0, 58, 0
3, 31186, Note_on_c, 0, 67, 0
3, 31455, Note_on_c, 0, 61, 47
3, 31456, Note_on_c, 0, 58, 51
3, 31458, Note_on_c, 0, 55, 37
3, 31459, Note_on_c, 0, 69, 44
3, 31463, Control_c, 0, 64, 0
3, 31484, Note_on_c, 0, 64, 48
3, 31870, Control_c, 0, 64, 127
3, 32040, Note_on_c, 0, 69, 0
3, 32084, Control_c, 0, 64, 0
3, 32164, Note_on_c, 0, 67, 55
3, 32211, Control_c, 0, 64, 127
3, 32318, Note_on_c, 0, 64, 0
3, 32394, Note_on_c, 0, 45, 0
3, 32774, Control_c, 0, 64, 0
3, 32792, Note_on_c, 0, 65, 48
3, 32801, Note_on_c, 0, 45, 39
3, 32973, Control_c, 0, 64, 127
3, 33203, Note_on_c, 0, 55, 0
3, 33351, Note_on_c, 0, 45, 0
3, 33586, Note_on_c, 0, 45, 56
3, 33593, Control_c, 0, 64, 0
3, 33706, Control_c, 0, 64, 127
3, 33816, Note_on_c, 0, 67, 0
3, 33819, Note_on_c, 0, 45, 0
3, 33851, Note_on_c, 0, 58, 0
3, 33872, Note_on_c, 0, 65, 0
3, 33927, Note_on_c, 0, 61, 0
3, 34399, Control_c, 0, 64, 0
3, 34407, Note_on_c, 0, 26, 57
3, 34588, Note_on_c, 0, 26, 0
3, 34596, Control_c, 0, 64, 127
3, 35435, Note_on_c, 0, 76, 44
3, 35449, Note_on_c, 0, 65, 38
3, 35449, Note_on_c, 0, 61, 62
3, 35456, Note_on_c, 0, 69, 48
3, 36215, Note_on_c, 0, 69, 0
3, 36225, Note_on_c, 0, 61, 0
3, 36242, Note_on_c, 0, 65, 0
3, 36338, Note_on_c, 0, 76, 0
3, 36360, Note_on_c, 0, 74, 54
3, 36371, Note_on_c, 0, 65, 54
3, 36381, Note_on_c, 0, 69, 53
3, 36394, Note_on_c, 0, 60, 48
3, 36417, Control_c, 0, 64, 0
3, 36557, Control_c, 0, 64, 127
3, 37073, Note_on_c, 0, 60, 0
3, 37157, Note_on_c, 0, 57, 95
3, 37919, Note_on_c, 0, 53, 72
3, 38001, Note_on_c, 0, 57, 0
3, 38220, Note_on_c, 0, 53, 0
3, 38629, Note_on_c, 0, 65, 0
3, 38650, Note_on_c, 0, 69, 0
3, 38676, Note_on_c, 0, 74, 0
3, 38723, Note_on_c, 0, 38, 70
3, 38927, Note_on_c, 0, 38, 0
3, 39592, Control_c, 0, 64, 0
3, 39686, Note_on_c, 0, 27, 69
3, 39694, Note_on_c, 0, 39, 69
3, 39846, Control_c, 0, 64, 127
3, 39946, Note_on_c, 0, 27, 0
3, 40008, Note_on_c, 0, 39, 0
3, 42247, Note_on_c, 0, 68, 51
3, 42248, Note_on_c, 0, 61, 42
3, 42258, Note_on_c, 0, 58, 46
3, 42270, Note_on_c, 0, 65, 57
3, 42281, Note_on_c, 0, 56, 53
3, 42302, Note_on_c, 0, 54, 34
3, 42737, Note_on_c, 0, 56, 0
3, 42743, Note_on_c, 0, 61, 0
3, 42764, Note_on_c, 0, 58, 0
3, 42786, Note_on_c, 0, 65, 0
3, 42913, Note_on_c, 0, 54, 0
3, 43048, Note_on_c, 0, 68, 0
3, 43393, Note_on_c, 0, 68, 46
3, 43409, Note_on_c, 0, 58, 46
3, 43417, Note_on_c, 0, 65, 54
3, 43428, Note_on_c, 0, 54, 35
3, 43428, Note_on_c, 0, 60, 43
3, 43455, Note_on_c, 0, 56, 38
3, 43472, Control_c, 0, 64, 0
3, 43713, Control_c, 0, 64, 127
3, 43948, Note_on_c, 0, 60, 0
3, 43951, Note_on_c, 0, 65, 0
3, 43962, Note_on_c, 0, 58, 0
3, 44014, Note_on_c, 0, 56, 0
3, 44039, Note_on_c, 0, 54, 0
3, 44239, Note_on_c, 0, 68, 0
3, 44503, Control_c, 0, 64, 0
3, 44511, Note_on_c, 0, 43, 35
3, 44529, Note_on_c, 0, 59, 48
3, 44532, Note_on_c, 0, 63, 42
3, 44534, Note_on_c, 0, 70, 45
3, 44535, Note_on_c, 0, 53, 35
3, 44539, Note_on_c, 0, 67, 51
3, 44734, Control_c, 0, 64, 127
3, 44749, Note_on_c, 0, 43, 0
3, 44790, Note_on_c, 0, 59, 0
3, 44829, Note_on_c, 0, 53, 0
3, 44860, Note_on_c, 0, 67, 0
3, 44863, Note_on_c, 0, 63, 0
3, 44924, Note_on_c, 0, 70, 0
3, 45504, Note_on_c, 0, 63, 56
3, 45509, Note_on_c, 0, 82, 69
3, 45514, Note_on_c, 0, 75, 65
3, 45528, Note_on_c, 0, 59, 40
3, 45529, Note_on_c, 0, 53, 49
3, 45531, Note_on_c, 0, 71, 61
3, 45533, Note_on_c, 0, 79, 52
3, 45970, Note_on_c, 0, 63, 0
3, 46018, Note_on_c, 0, 53, 0
3, 46042, Note_on_c, 0, 79, 0
3, 46120, Note_on_c, 0, 71, 0
3, 46130, Note_on_c, 0, 75, 0
3, 46139, Note_on_c, 0, 59, 0
3, 46215, Note_on_c, 0, 82, 0
3, 46391, Note_on_c, 0, 75, 55
3, 46408, Note_on_c, 0, 63, 48
3, 46412, Note_on_c, 0, 71, 51
3, 46426, Note_on_c, 0, 59, 37
3, 46439, Note_on_c, 0, 53, 37
3, 46605, Note_on_c, 0, 75, 0
3, 46644, Note_on_c, 0, 63, 0
3, 46651, Note_on_c, 0, 71, 0
3, 46678, Note_on_c, 0, 53, 0
3, 46684, Note_on_c, 0, 59, 0
3, 47286, Control_c, 0, 64, 0
3, 47357, Note_on_c, 0, 42, 38
3, 47361, Note_on_c, 0, 30, 67
3, 47455, Control_c, 0, 64, 127
3, 47517, Note_on_c, 0, 30, 0
3, 47585, Note_on_c, 0, 42, 0
3, 48220, Note_on_c, 0, 71, 74
3, 48232, Note_on_c, 0, 68, 73
3, 48237, Note_on_c, 0, 61, 63
3, 48245, Note_on_c, 0, 59, 60
3, 48247, Note_on_c, 0, 57, 62
3, 48249, Note_on_c, 0, 64, 78
3, 48278, Control_c, 0, 64, 0
3, 48363, Control_c, 0, 64, 127
3, 48655, Note_on_c, 0, 61, 0
3, 48786, Note_on_c, 0, 64, 0
3, 48817, Note_on_c, 0, 57, 0
3, 48928, Note_on_c, 0, 59, 0
3, 48969, Note_on_c, 0, 71, 0
3, 49020, Note_on_c, 0, 68, 0
3, 49210, Control_c, 0, 64, 0
3, 49211, Note_on_c, 0, 71, 66
3, 49215, Note_on_c, 0, 68, 67
3, 49221, Note_on_c, 0, 59, 52
3, 49222, Note_on_c, 0, 61, 62
3, 49224, Note_on_c, 0, 63, 69
3, 49241, Note_on_c, 0, 57, 51
3, 49383, Control_c, 0, 64, 127
3, 49486, Note_on_c, 0, 57, 0
3, 49510, Note_on_c, 0, 59, 0
3, 49593, Note_on_c, 0, 61, 0
3, 49662, Note_on_c, 0, 63, 0
3, 49938, Note_on_c, 0, 68, 0
3, 49960, Note_on_c, 0, 71, 0
3, 50225, Note_on_c, 0, 72, 70
3, 50230, Control_c, 0, 64, 0
3, 50237, Note_on_c, 0, 56, 62
3, 50239, Note_on_c, 0, 67, 79
3, 50240, Note_on_c, 0, 64, 81
3, 50250, Note_on_c, 0, 62, 69
3, 50261, Note_on_c, 0, 52, 59
3, 50498, Control_c, 0, 64, 127
3, 50560, Note_on_c, 0, 62, 0
3, 50622, Note_on_c, 0, 56, 0
3, 50657, Note_on_c, 0, 52, 0
3, 51092, Note_on_c, 0, 72, 0
3, 51186, Note_on_c, 0, 64, 0
3, 51208, Note_on_c, 0, 67, 0
3, 51268, Note_on_c, 0, 28, 59
3, 51484, Note_on_c, 0, 28, 0
3, 52606, Note_on_c, 0, 72, 37
3, 52618, Note_on_c, 0, 64, 36
3, 52620, Note_on_c, 0, 67, 43
3, 52647, Note_on_c, 0, 62, 30
3, 52655, Note_on_c, 0, 56, 32
3, 53405, Note_on_c, 0, 56, 0
3, 53473, Note_on_c, 0, 64, 0
3, 53521, Note_on_c, 0, 62, 0
3, 53565, Note_on_c, 0, 67, 0
3, 53652, Note_on_c, 0, 72, 0
3, 54280, Note_on_c, 0, 73, 67
3, 54281, Note_on_c, 0, 63, 73
3, 54284, Note_on_c, 0, 66, 85
3, 54287, Note_on_c, 0, 70, 74
3, 54290, Note_on_c, 0, 61, 67
3, 54297, Note_on_c, 0, 59, 63
3, 54322, Control_c, 0, 64, 0
3, 54590, Control_c, 0, 64, 127
3, 54985, Note_on_c, 0, 70, 0
3, 54992, Note_on_c, 0, 66, 0
3, 55026, Note_on_c, 0, 73, 0
3, 55036, Note_on_c, 0, 63, 0
3, 55044, Note_on_c, 0, 61, 0
3, 55061, Note_on_c, 0, 59, 0
3, 55592, Control_c, 0, 64, 0
3, 55595, Note_on_c, 0, 73, 43
3, 55601, Note_on_c, 0, 63, 47
3, 55602, Note_on_c, 0, 65, 59
3, 55617, Note_on_c, 0, 70, 53
3, 55622, Note_on_c, 0, 61, 50
3, 55646, Note_on_c, 0, 59, 36
3, 55875, Control_c, 0, 64, 127
3, 56558, Note_on_c, 0, 61, 0
3, 56581, Note_on_c, 0, 65, 0
3, 56588, Note_on_c, 0, 59, 0
3, 56626, Note_on_c, 0, 70, 0
3, 56761, Note_on_c, 0, 63, 0
3, 57382, Note_on_c, 0, 73, 0
3, 57613, Note_on_c, 0, 63, 25
3, 57631, Note_on_c, 0, 73, 29
3, 57653, Note_on_c, 0, 70, 38
3, 57666, Note_on_c, 0, 61, 19
3, 57669, Note_on_c, 0, 65, 30
3, 57687, Note_on_c, 0, 59, 22
3, 57783, Note_on_c, 0, 65, 0
3, 57797, Note_on_c, 0, 70, 0
3, 57798, Note_on_c, 0, 63, 0
3, 57815, Note_on_c, 0, 61, 0
3, 57821, Note_on_c, 0, 73, 0
3, 57851, Note_on_c, 0, 59, 0
3, 57993, Note_on_c, 0, 73, 52
3, 57993, Note_on_c, 0, 63, 49
3, 58010, Note_on_c, 0, 70, 55
3, 58011, Note_on_c, 0, 61, 46
3, 58012, Note_on_c, 0, 65, 59
3, 58024, Note_on_c, 0, 59, 28
3, 58100, Note_on_c, 0, 65, 0
3, 58114, Note_on_c, 0, 59, 0
3, 58148, Note_on_c, 0, 70, 0
3, 58152, Note_on_c, 0, 61, 0
3, 58159, Note_on_c, 0, 63, 0
3, 58183, Note_on_c, 0, 73, 0
3, 58493, Note_on_c, 0, 76, 78
3, 58494, Note_on_c, 0, 66, 69
3, 58495, Note_on_c, 0, 73, 60
3, 58498, Note_on_c, 0, 69, 79
3, 58508, Note_on_c, 0, 64, 75
3, 58515, Note_on_c, 0, 62, 73
3, 58532, Note_on_c, 0, 74, 57
3, 58542, Control_c, 0, 64, 0
3, 58583, Note_on_c, 0, 74, 0
3, 58811, Control_c, 0, 64, 127
3, 59316, Note_on_c, 0, 69, 0
3, 59346, Note_on_c, 0, 76, 0
3, 59357, Note_on_c, 0, 62, 0
3, 59373, Note_on_c, 0, 64, 0
3, 59388, Note_on_c, 0, 66, 0
3, 59753, Note_on_c, 0, 73, 0
3, 59994, Note_on_c, 0, 68, 50
3, 59999, Note_on_c, 0, 76, 50
3, 60002, Note_on_c, 0, 66, 34
3, 60015, Note_on_c, 0, 73, 33
3, 60022, Note_on_c, 0, 64, 44
3, 60039, Note_on_c, 0, 62, 36
3, 60095, Control_c, 0, 64, 0
3, 60264, Control_c, 0, 64, 127
3, 60676, Note_on_c, 0, 66, 0
3, 60835, Note_on_c, 0, 64, 0
3, 60882, Note_on_c, 0, 62, 0
3, 61601, Note_on_c, 0, 52, 33
3, 62691, Note_on_c, 0, 68, 0
3, 62708, Note_on_c, 0, 76, 0
3, 62718, Note_on_c, 0, 52, 0
3, 62766, Note_on_c, 0, 73, 0
3, 63594, Control_c, 0, 64, 0
3, 63597, Note_on_c, 0, 77, 52
3, 63609, Note_on_c, 0, 63, 32
3, 63619, Note_on_c, 0, 70, 38
3, 63643, Note_on_c, 0, 67, 35
3, 63654, Note_on_c, 0, 53, 30
3, 63918, Control_c, 0, 64, 127
3, 64153, Note_on_c, 0, 77, 0
3, 64203, Note_on_c, 0, 75, 56
3, 64225, Note_on_c, 0, 63, 0
3, 64248, Note_on_c, 0, 67, 0
3, 64270, Note_on_c, 0, 60, 31
3, 64326, Note_on_c, 0, 70, 0
3, 64534, Note_on_c, 0, 75, 0
3, 64798, Note_on_c, 0, 63, 31
3, 64800, Note_on_c, 0, 70, 46
3, 64802, Note_on_c, 0, 77, 55
3, 64838, Note_on_c, 0, 67, 38
3, 64940, Note_on_c, 0, 60, 0
3, 65416, Note_on_c, 0, 77, 0
3, 65451, Note_on_c, 0, 63, 0
3, 65469, Note_on_c, 0, 75, 45
3, 65672, Note_on_c, 0, 67, 0
3, 65737, Note_on_c, 0, 53, 0
3, 65809, Note_on_c, 0, 75, 0
3, 65941, Note_on_c, 0, 70, 0
3, 66438, Note_on_c, 0, 73, 26
3, 66453, Note_on_c, 0, 61, 28
3, 66460, Note_on_c, 0, 53, 33
3, 66470, Note_on_c, 0, 65, 27
3, 66479, Note_on_c, 0, 69, 28
3, 66515, Control_c, 0, 64, 0
3, 66770, Control_c, 0, 64, 127
3, 67145, Note_on_c, 0, 61, 0
3, 67184, Note_on_c, 0, 53, 0
3, 67373, Note_on_c, 0, 69, 0
3, 67477, Note_on_c, 0, 65, 0
3, 67481, Note_on_c, 0, 73, 0
3, 68792, Note_on_c, 0, 70, 34
3, 68830, Control_c, 0, 64, 0
3, 68833, Note_on_c, 0, 46, 23
3, 68834, Note_on_c, 0, 65, 36
3, 68843, Note_on_c, 0, 60, 25
3, 68843, Note_on_c, 0, 53, 27
3, 68862, Note_on_c, 0, 62, 24
3, 69306, Note_on_c, 0, 54, 46
3, 69316, Note_on_c, 0, 53, 0
3, 69465, Control_c, 0, 64, 127
3, 69552, Note_on_c, 0, 62, 0
3, 69741, Note_on_c, 0, 60, 0
3, 69820, Note_on_c, 0, 65, 0
3, 69827, Note_on_c, 0, 54, 0
3, 69899, Note_on_c, 0, 55, 32
3, 69917, Control_c, 0, 64, 0
3, 70186, Control_c, 0, 64, 127
3, 70454, Control_c, 0, 64, 0
3, 70497, Note_on_c, 0, 54, 42
3, 70499, Note_on_c, 0, 55, 0
3, 70679, Control_c, 0, 64, 127
3, 71173, Control_c, 0, 64, 0
3, 71218, Note_on_c, 0, 54, 0
3, 71252, Note_on_c, 0, 65, 39
3, 71255, Note_on_c, 0, 53, 31
3, 71274, Note_on_c, 0, 62, 28
3, 71281, Note_on_c, 0, 60, 29
3, 71293, Note_on_c, 0, 46, 0
3, 71412, Control_c, 0, 64, 127
3, 71564, Note_on_c, 0, 65, 0
3, 71571, Note_on_c, 0, 70, 0
3, 71700, Note_on_c, 0, 62, 0
3, 71742, Note_on_c, 0, 60, 0
3, 71866, Control_c, 0, 64, 0
3, 71980, Control_c, 0, 64, 127
3, 72007, Note_on_c, 0, 59, 54
3, 72018, Note_on_c, 0, 44, 28
3, 72049, Control_c, 0, 64, 0
3, 72218, Control_c, 0, 64, 127
3, 72687, Note_on_c, 0, 44, 0
3, 72698, Control_c, 0, 64, 0
3, 72719, Note_on_c, 0, 59, 0
3, 72794, Note_on_c, 0, 53, 0
3, 72824, Note_on_c, 0, 72, 36
3, 72849, Note_on_c, 0, 65, 60
3, 72869, Control_c, 0, 64, 0
3, 72871, Note_on_c, 0, 43, 42
3, 72880, Note_on_c, 0, 58, 34
3, 72894, Note_on_c, 0, 53, 41
3, 73180, Control_c, 0, 64, 127
3, 73443, Note_on_c, 0, 72, 0
3, 73613, Note_on_c, 0, 58, 0
3, 73673, Note_on_c, 0, 70, 49
3, 73713, Note_on_c, 0, 43, 0
3, 73837, Note_on_c, 0, 65, 0
3, 73850, Note_on_c, 0, 53, 0
3, 74243, Note_on_c, 0, 70, 0
3, 74371, Note_on_c, 0, 72, 56
3, 74823, Note_on_c, 0, 72, 0
3, 74923, Note_on_c, 0, 70, 72
3, 75150, Note_on_c, 0, 70, 0
3, 75596, Note_on_c, 0, 68, 56
3, 75599, Note_on_c, 0, 36, 32
3, 75610, Note_on_c, 0, 61, 36
3, 75614, Note_on_c, 0, 58, 56
3, 75621, Control_c, 0, 64, 0
3, 75634, Note_on_c, 0, 52, 40
3, 75904, Control_c, 0, 64, 127
3, 76229, Note_on_c, 0, 52, 0
3, 76311, Note_on_c, 0, 42, 66
3, 76466, Note_on_c, 0, 36, 0
3, 76536, Note_on_c, 0, 58, 0
3, 76550, Note_on_c, 0, 42, 0
3, 76563, Note_on_c, 0, 68, 0
3, 76881, Note_on_c, 0, 61, 0
3, 77098, Note_on_c, 0, 65, 64
3, 77101, Note_on_c, 0, 41, 55
3, 77118, Note_on_c, 0, 60, 62
3, 77124, Note_on_c, 0, 57, 44
3, 77132, Control_c, 0, 64, 0
3, 77133, Note_on_c, 0, 55, 40
3, 77256, Note_on_c, 0, 55, 0
3, 77746, Note_on_c, 0, 48, 85
3, 77805, Note_on_c, 0, 60, 0
3, 77823, Control_c, 0, 64, 127
3, 77992, Note_on_c, 0, 57, 0
3, 78118, Note_on_c, 0, 65, 0
3, 78353, Note_on_c, 0, 50, 75
3, 78360, Control_c, 0, 64, 0
3, 78361, Note_on_c, 0, 57, 59
3, 78375, Note_on_c, 0, 48, 0
3, 78375, Note_on_c, 0, 53, 52
3, 78378, Note_on_c, 0, 60, 55
3, 78405, Note_on_c, 0, 41, 0
3, 78671, Control_c, 0, 64, 127
3, 78896, Control_c, 0, 64, 0
3, 78931, Note_on_c, 0, 53, 0
3, 78955, Note_on_c, 0, 52, 79
3, 79026, Note_on_c, 0, 50, 0
3, 79065, Control_c, 0, 64, 127
3, 79079, Note_on_c, 0, 57, 0
3, 79091, Note_on_c, 0, 60, 0
3, 79611, Note_on_c, 0, 67, 71
3, 79613, Note_on_c, 0, 55, 72
3, 79619, Note_on_c, 0, 60, 68
3, 79630, Note_on_c, 0, 57, 69
3, 79642, Control_c, 0, 64, 0
3, 79644, Note_on_c, 0, 52, 0
3, 79940, Control_c, 0, 64, 127
3, 80303, Note_on_c, 0, 54, 71
3, 80475, Note_on_c, 0, 55, 0
3, 80555, Note_on_c, 0, 57, 0
3, 80559, Note_on_c, 0, 60, 0
3, 80568, Note_on_c, 0, 54, 0
3, 80615, Note_on_c, 0, 67, 0
3, 80656, Note_on_c, 0, 53, 54
3, 81055, Control_c, 0, 64, 0
3, 81126, Note_on_c, 0, 69, 64
3, 81128, Note_on_c, 0, 53, 0
3, 81132, Note_on_c, 0, 52, 64
3, 81134, Note_on_c, 0, 58, 59
3, 81136, Note_on_c, 0, 62, 64
3, 81153, Note_on_c, 0, 64, 57
3, 81547, Control_c, 0, 64, 127
3, 81759, Note_on_c, 0, 69, 0
3, 81885, Note_on_c, 0, 67, 61
3, 81974, Note_on_c, 0, 52, 0
3, 82123, Note_on_c, 0, 62, 0
3, 82159, Note_on_c, 0, 64, 0
3, 82275, Note_on_c, 0, 58, 0
3, 82395, Note_on_c, 0, 67, 0
3, 82750, Note_on_c, 0, 61, 38
3, 82751, Note_on_c, 0, 58, 47
3, 82763, Control_c, 0, 64, 0
3, 82764, Note_on_c, 0, 69, 43
3, 82785, Note_on_c, 0, 64, 48
3, 82789, Note_on_c, 0, 45, 42
3, 82798, Note_on_c, 0, 55, 33
3, 83423, Note_on_c, 0, 69, 0
3, 83568, Note_on_c, 0, 67, 57
3, 83671, Note_on_c, 0, 64, 0
3, 83865, Note_on_c, 0, 58, 0
3, 84080, Note_on_c, 0, 61, 0
3, 84352, Control_c, 0, 64, 127
3, 84576, Note_on_c, 0, 33, 30
3, 84608, Note_on_c, 0, 67, 0
3, 84627, Note_on_c, 0, 65, 58
3, 84822, Note_on_c, 0, 45, 0
3, 84870, Note_on_c, 0, 55, 0
3, 86064, Control_c, 0, 64, 0
3, 86194, Note_on_c, 0, 45, 29
3, 86352, Note_on_c, 0, 65, 0
3, 86496, Note_on_c, 0, 33, 0
3, 86604, Note_on_c, 0, 38, 49
3, 86653, Note_on_c, 0, 45, 0
3, 86664, Note_on_c, 0, 38, 0
3, 86688, Control_c, 0, 64, 127
3, 87571, Note_on_c, 0, 69, 41
3, 87573, Note_on_c, 0, 76, 42
3, 87585, Note_on_c, 0, 65, 40
3, 87587, Note_on_c, 0, 50, 24
3, 87597, Note_on_c, 0, 55, 33
3, 87601, Note_on_c, 0, 60, 22
3, 87624, Control_c, 0, 64, 0
3, 88200, Control_c, 0, 64, 127
3, 88604, Note_on_c, 0, 60, 0
3, 88636, Note_on_c, 0, 55, 0
3, 88686, Note_on_c, 0, 50, 0
3, 89280, Control_c, 0, 64, 0
3, 89406, Note_on_c, 0, 65, 0
3, 89425, Note_on_c, 0, 69, 0
3, 89463, Note_on_c, 0, 38, 84
3, 89599, Note_on_c, 0, 76, 0
3, 89605, Control_c, 0, 64, 127
3, 89713, Note_on_c, 0, 38, 0
3, 90430, Note_on_c, 0, 50, 53
3, 90439, Note_on_c, 0, 71, 64
3, 90441, Note_on_c, 0, 74, 66
3, 90445, Note_on_c, 0, 67, 75
3, 90453, Note_on_c, 0, 62, 74
3, 90458, Note_on_c, 0, 59, 61
3, 90459, Note_on_c, 0, 55, 60
3, 90490, Note_on_c, 0, 72, 31
3, 90506, Control_c, 0, 64, 0
3, 90646, Note_on_c, 0, 72, 0
3, 90650, Control_c, 0, 64, 127
3, 91404, Note_on_c, 0, 55, 0
3, 91433, Note_on_c, 0, 59, 0
3, 91511, Note_on_c, 0, 50, 0
3, 91751, Note_on_c, 0, 71, 0
3, 91793, Note_on_c, 0, 74, 0
3, 91833, Note_on_c, 0, 67, 0
3, 92040, Note_on_c, 0, 62, 0
3, 92341, Note_on_c, 0, 38, 88
3, 92356, Control_c, 0, 64, 0
3, 92382, Note_on_c, 0, 45, 62
3, 92424, Note_on_c, 0, 45, 0
3, 92585, Control_c, 0, 64, 127
3, 93334, Note_on_c, 0, 65, 62
3, 93344, Note_on_c, 0, 60, 58
3, 93345, Note_on_c, 0, 54, 48
3, 93362, Note_on_c, 0, 45, 43
3, 93381, Control_c, 0, 64, 0
3, 93650, Control_c, 0, 64, 127
3, 94453, Note_on_c, 0, 45, 0
3, 94755, Control_c, 0, 64, 0
3, 94885, Note_on_c, 0, 45, 61
3, 94921, Control_c, 0, 64, 127
3, 94976, Note_on_c, 0, 38, 0
3, 95100, Control_c, 0, 64, 0
3, 95137, Note_on_c, 0, 54, 0
3, 95201, Note_on_c, 0, 60, 0
3, 95217, Note_on_c, 0, 65, 0
3, 95248, Note_on_c, 0, 38, 64
3, 95255, Note_on_c, 0, 45, 0
3, 95383, Control_c, 0, 64, 127
3, 96153, Note_on_c, 0, 66, 46
3, 96154, Note_on_c, 0, 61, 33
3, 96168, Note_on_c, 0, 55, 42
3, 96172, Note_on_c, 0, 45, 32
3, 96178, Control_c, 0, 64, 0
3, 96421, Control_c, 0, 64, 127
3, 97287, Note_on_c, 0, 45, 0
3, 97754, Note_on_c, 0, 45, 53
3, 97820, Note_on_c, 0, 38, 0
3, 97962, Note_on_c, 0, 61, 0
3, 97980, Note_on_c, 0, 66, 0
3, 98001, Control_c, 0, 64, 0
3, 98102, Note_on_c, 0, 55, 0
3, 98110, Note_on_c, 0, 38, 48
3, 98203, Note_on_c, 0, 45, 0
3, 98231, Control_c, 0, 64, 127
3, 98695, Note_on_c, 0, 38, 0
3, 98768, Note_on_c, 0, 45, 40
3, 99053, Control_c, 0, 64, 0
3, 99123, Note_on_c, 0, 52, 40
3, 99126, Note_on_c, 0, 64, 44
3, 99130, Note_on_c, 0, 57, 41
3, 99145, Note_on_c, 0, 53, 24
3, 99158, Note_on_c, 0, 60, 34
3, 99309, Control_c, 0, 64, 127
3, 100210, Note_on_c, 0, 45, 0
3, 100460, Note_on_c, 0, 52, 0
3, 100598, Note_on_c, 0, 45, 44
3, 100617, Control_c, 0, 64, 0
3, 100680, Note_on_c, 0, 45, 0
3, 100785, Control_c, 0, 64, 127
3, 100805, Note_on_c, 0, 45, 62
3, 100990, Control_c, 0, 64, 0
3, 101000, Note_on_c, 0, 64, 0
3, 101008, Note_on_c, 0, 53, 0
3, 101027, Note_on_c, 0, 57, 0
3, 101029, Note_on_c, 0, 45, 0
3, 101060, Note_on_c, 0, 60, 0
3, 101068, Note_on_c, 0, 38, 79
3, 101233, Control_c, 0, 64, 127
3, 101645, Note_on_c, 0, 45, 44
3, 101703, Note_on_c, 0, 45, 0
3, 101875, Control_c, 0, 64, 0
3, 101965, Note_on_c, 0, 57, 55
3, 101966, Note_on_c, 0, 62, 57
3, 101969, Note_on_c, 0, 52, 43
3, 102953, Control_c, 0, 64, 127
3, 103217, Note_on_c, 0, 45, 47
3, 103235, Control_c, 0, 64, 0
3, 103349, Note_on_c, 0, 45, 0
3, 103425, Note_on_c, 0, 45, 26
3, 103474, Note_on_c, 0, 38, 0
3, 103492, Control_c, 0, 64, 127
3, 103566, Note_on_c, 0, 45, 0
3, 103596, Note_on_c, 0, 45, 28
3, 103786, Control_c, 0, 64, 0
3, 103888, Note_on_c, 0, 45, 0
3, 103922, Note_on_c, 0, 38, 80
3, 103932, Note_on_c, 0, 52, 0
3, 103982, Note_on_c, 0, 57, 0
3, 103985, Note_on_c, 0, 62, 0
3, 104461, Note_on_c, 0, 45, 57
3, 104816, Note_on_c, 0, 65, 69
3, 104818, Note_on_c, 0, 54, 74
3, 104822, Note_on_c, 0, 60, 65
3, 105802, Control_c, 0, 64, 127
3, 106047, Note_on_c, 0, 45, 0
3, 106250, Control_c, 0, 64, 0
3, 106398, Note_on_c, 0, 45, 54
3, 106457, Note_on_c, 0, 38, 0
3, 106752, Note_on_c, 0, 45, 0
3, 106757, Note_on_c, 0, 38, 55
3, 106766, Note_on_c, 0, 65, 0
3, 106801, Note_on_c, 0, 60, 0
3, 106802, Note_on_c, 0, 54, 0
3, 106878, Control_c, 0, 64, 127
3, 107395, Note_on_c, 0, 66, 49
3, 107400, Note_on_c, 0, 61, 38
3, 107409, Note_on_c, 0, 55, 36
3, 107415, Note_on_c, 0, 45, 43
3, 107443, Control_c, 0, 64, 0
3, 107495, Control_c, 0, 64, 127
3, 107641, Note_on_c, 0, 38, 0
3, 107647, Note_on_c, 0, 45, 0
3, 107981, Note_on_c, 0, 55, 0
3, 108160, Note_on_c, 0, 66, 0
3, 108173, Note_on_c, 0, 61, 0
3, 108782, Note_on_c, 0, 74, 101
3, 109052, Note_on_c, 0, 74, 0
3, 109075, Note_on_c, 0, 73, 31
3, 109191, Note_on_c, 0, 73, 0
3, 109334, Note_on_c, 0, 74, 76
3, 109522, Control_c, 0, 64, 0
3, 109622, Note_on_c, 0, 50, 47
3, 109714, Control_c, 0, 64, 127
3, 109866, Note_on_c, 0, 74, 0
3, 110250, Note_on_c, 0, 77, 51
3, 110281, Note_on_c, 0, 57, 38
3, 110282, Note_on_c, 0, 65, 52
3, 110299, Note_on_c, 0, 62, 35
3, 111765, Note_on_c, 0, 65, 0
3, 111803, Note_on_c, 0, 50, 0
3, 112019, Note_on_c, 0, 77, 0
3, 112160, Note_on_c, 0, 65, 35
3, 112252, Note_on_c, 0, 65, 0
3, 112469, Note_on_c, 0, 62, 0
3, 112485, Control_c, 0, 64, 0
3, 112519, Note_on_c, 0, 77, 68
3, 112520, Note_on_c, 0, 50, 49
3, 112530, Note_on_c, 0, 57, 0
3, 112679, Control_c, 0, 64, 127
3, 113557, Note_on_c, 0, 74, 62
3, 113564, Note_on_c, 0, 59, 42
3, 113571, Note_on_c, 0, 62, 50
3, 113572, Note_on_c, 0, 65, 44
3, 113591, Note_on_c, 0, 71, 33
3, 113614, Control_c, 0, 64, 0
3, 113846, Control_c, 0, 64, 127
3, 114094, Note_on_c, 0, 77, 0
3, 114620, Note_on_c, 0, 50, 0
3, 114650, Note_on_c, 0, 59, 0
3, 114679, Note_on_c, 0, 62, 0
3, 114691, Note_on_c, 0, 65, 0
3, 114888, Note_on_c, 0, 71, 0
3, 114962, Note_on_c, 0, 74, 0
3, 115016, Note_on_c, 0, 50, 44
3, 115085, Note_on_c, 0, 50, 0
3, 115411, Note_on_c, 0, 74, 113
3, 115429, Note_on_c, 0, 54, 80
3, 115436, Note_on_c, 0, 65, 81
3, 115441, Note_on_c, 0, 60, 66
3, 115461, Control_c, 0, 64, 0
3, 115847, Control_c, 0, 64, 127
3, 116022, Note_on_c, 0, 72, 58
3, 116026, Note_on_c, 0, 74, 0
3, 116147, Note_on_c, 0, 72, 0
3, 116377, Note_on_c, 0, 74, 83
3, 116828, Note_on_c, 0, 60, 0
3, 116849, Note_on_c, 0, 65, 0
3, 117255, Note_on_c, 0, 54, 0
3, 117881, Note_on_c, 0, 72, 45
3, 118181, Control_c, 0, 64, 0
3, 118183, Note_on_c, 0, 74, 0
3, 118233, Note_on_c, 0, 72, 0
3, 118252, Note_on_c, 0, 69, 43
3, 118253, Note_on_c, 0, 61, 44
3, 118270, Note_on_c, 0, 66, 37
3, 118272, Note_on_c, 0, 55, 30
3, 118413, Control_c, 0, 64, 127
3, 118435, Note_on_c, 0, 66, 0
3, 118465, Note_on_c, 0, 61, 0
3, 118486, Note_on_c, 0, 55, 0
3, 119218, Note_on_c, 0, 26, 32
3, 119237, Note_on_c, 0, 38, 47
3, 119571, Note_on_c, 0, 26, 0
3, 119637, Note_on_c, 0, 38, 0
3, 120398, Note_on_c, 0, 69, 0
3, 121069, Control_c, 0, 64, 0
3, 121116, Note_on_c, 0, 65, 53
3, 121120, Note_on_c, 0, 50, 45
3, 121123, Note_on_c, 0, 69, 40
3, 121124, Note_on_c, 0, 60, 45
3, 121312, Control_c, 0, 64, 127
3, 121486, Note_on_c, 0, 60, 0
3, 121776, Note_on_c, 0, 69, 0
3, 121818, Note_on_c, 0, 50, 0
3, 121895, Note_on_c, 0, 65, 0
3, 122103, Note_on_c, 0, 67, 64
3, 122110, Note_on_c, 0, 57, 58
3, 122111, Note_on_c, 0, 62, 62
3, 122122, Note_on_c, 0, 48, 52
3, 122147, Control_c, 0, 64, 0
3, 122403, Control_c, 0, 64, 127
3, 122433, Note_on_c, 0, 48, 0
3, 122599, Note_on_c, 0, 57, 0
3, 122646, Note_on_c, 0, 67, 0
3, 122809, Note_on_c, 0, 62, 0
3, 123057, Control_c, 0, 64, 0
3, 123109, Note_on_c, 0, 47, 44
3, 123116, Note_on_c, 0, 65, 56
3, 123117, Note_on_c, 0, 62, 52
3, 123122, Note_on_c, 0, 57, 54
3, 123276, Control_c, 0, 64, 127
3, 123446, Note_on_c, 0, 47, 0
3, 123461, Note_on_c, 0, 57, 0
3, 123625, Note_on_c, 0, 65, 0
3, 123708, Note_on_c, 0, 62, 0
3, 124019, Control_c, 0, 64, 0
3, 124048, Note_on_c, 0, 62, 58
3, 124051, Note_on_c, 0, 46, 42
3, 124053, Note_on_c, 0, 65, 58
3, 124063, Note_on_c, 0, 56, 33
3, 124251, Control_c, 0, 64, 127
3, 124508, Note_on_c, 0, 56, 0
3, 124517, Note_on_c, 0, 62, 0
3, 124553, Note_on_c, 0, 65, 0
3, 124634, Note_on_c, 0, 46, 0
3, 124944, Control_c, 0, 64, 0
3, 124985, Note_on_c, 0, 55, 37
3, 124996, Note_on_c, 0, 45, 50
3, 125000, Note_on_c, 0, 62, 45
3, 125008, Note_on_c, 0, 60, 36
3, 125187, Control_c, 0, 64, 127
3, 125409, Note_on_c, 0, 62, 0
3, 125443, Note_on_c, 0, 45, 0
3, 125473, Note_on_c, 0, 60, 0
3, 125516, Note_on_c, 0, 55, 0
3, 125866, Control_c, 0, 64, 0
3, 125893, Note_on_c, 0, 54, 33
3, 125911, Note_on_c, 0, 44, 32
3, 125916, Note_on_c, 0, 51, 28
3, 125933, Note_on_c, 0, 58, 47
3, 125951, Note_on_c, 0, 60, 38
3, 126137, Control_c, 0, 64, 127
3, 126312, Note_on_c, 0, 44, 0
3, 126373, Note_on_c, 0, 54, 0
3, 126393, Note_on_c, 0, 51, 0
3, 126394, Note_on_c, 0, 58, 0
3, 126430, Note_on_c, 0, 60, 0
3, 126869, Control_c, 0, 64, 0
3, 127226, Note_on_c, 0, 43, 55
3, 127228, Note_on_c, 0, 69, 58
3, 127232, Note_on_c, 0, 59, 63
3, 127236, Note_on_c, 0, 64, 62
3, 127250, Note_on_c, 0, 53, 36
3, 127347, Note_on_c, 0, 53, 0
3, 127363, Note_on_c, 0, 59, 0
3, 127373, Note_on_c, 0, 64, 0
3, 127396, Note_on_c, 0, 69, 0
3, 127408, Note_on_c, 0, 43, 0
3, 127408, Control_c, 0, 64, 127
3, 127740, Control_c, 0, 64, 0
3, 127843, Note_on_c, 0, 67, 60
3, 127849, Note_on_c, 0, 63, 56
3, 127853, Note_on_c, 0, 41, 49
3, 127857, Note_on_c, 0, 57, 55
3, 127866, Note_on_c, 0, 48, 37
3, 128036, Control_c, 0, 64, 127
3, 128131, Note_on_c, 0, 67, 0
3, 128169, Note_on_c, 0, 57, 0
3, 128173, Note_on_c, 0, 48, 0
3, 128218, Note_on_c, 0, 41, 0
3, 128243, Note_on_c, 0, 63, 0
3, 128510, Control_c, 0, 64, 0
3, 128524, Note_on_c, 0, 65, 53
3, 128534, Note_on_c, 0, 55, 37
3, 128545, Note_on_c, 0, 60, 50
3, 128547, Note_on_c, 0, 39, 39
3, 128551, Note_on_c, 0, 46, 37
3, 128780, Control_c, 0, 64, 127
3, 128967, Note_on_c, 0, 39, 0
3, 129020, Note_on_c, 0, 46, 0
3, 129028, Note_on_c, 0, 60, 0
3, 129074, Note_on_c, 0, 65, 0
3, 129095, Note_on_c, 0, 55, 0
3, 129665, Control_c, 0, 64, 0
3, 129705, Note_on_c, 0, 38, 53
3, 130028, Note_on_c, 0, 38, 0
3, 130325, Note_on_c, 0, 45, 45
3, 130477, Note_on_c, 0, 45, 0
3, 130661, Note_on_c, 0, 57, 40
3, 130665, Note_on_c, 0, 53, 27
3, 130681, Note_on_c, 0, 62, 39
3, 131141, Control_c, 0, 64, 127
3, 132594, Note_on_c, 0, 53, 0
3, 132603, Control_c, 0, 64, 0
3, 132606, Note_on_c, 0, 57, 0
3, 132667, Note_on_c, 0, 40, 27
3, 132668, Note_on_c, 0, 38, 33
3, 132996, Note_on_c, 0, 40, 0
3, 133212, Note_on_c, 0, 47, 36
3, 133296, Control_c, 0, 64, 127
3, 133328, Note_on_c, 0, 62, 0
3, 133347, Control_c, 0, 64, 0
3, 133580, Note_on_c, 0, 50, 42
3, 133581, Note_on_c, 0, 55, 35
3, 133582, Note_on_c, 0, 62, 32
3, 133594, Note_on_c, 0, 59, 35
3, 133619, Note_on_c, 0, 38, 0
3, 133627, Note_on_c, 0, 47, 0
3, 133642, Control_c, 0, 64, 127
3, 133754, Note_on_c, 0, 50, 0
3, 133842, Note_on_c, 0, 55, 0
3, 134041, Note_on_c, 0, 59, 0
3, 134143, Note_on_c, 0, 62, 0
3, 134209, Note_on_c, 0, 55, 39
3, 134549, Note_on_c, 0, 59, 41
3, 134852, Note_on_c, 0, 67, 39
3, 134910, Note_on_c, 0, 67, 0
3, 134966, Note_on_c, 0, 55, 0
3, 135157, Note_on_c, 0, 74, 81
3, 135353, Note_on_c, 0, 74, 0
3, 135451, Control_c, 0, 64, 0
3, 135470, Note_on_c, 0, 59, 0
3, 135481, Note_on_c, 0, 77, 77
3, 135491, Note_on_c, 0, 50, 43
3, 135766, Note_on_c, 0, 77, 0
3, 135784, Control_c, 0, 64, 127
3, 135798, Note_on_c, 0, 74, 31
3, 135804, Note_on_c, 0, 57, 33
3, 135881, Note_on_c, 0, 50, 0
3, 135932, Note_on_c, 0, 74, 0
3, 136086, Note_on_c, 0, 76, 63
3, 136110, Note_on_c, 0, 64, 46
3, 136415, Note_on_c, 0, 74, 52
3, 136551, Note_on_c, 0, 76, 0
3, 136574, Note_on_c, 0, 64, 0
3, 136633, Note_on_c, 0, 74, 0
3, 136716, Note_on_c, 0, 76, 55
3, 136740, Note_on_c, 0, 69, 58
3, 136766, Note_on_c, 0, 74, 22
3, 136872, Note_on_c, 0, 74, 0
3, 137019, Note_on_c, 0, 69, 0
3, 137020, Note_on_c, 0, 76, 0
3, 137055, Note_on_c, 0, 65, 51
3, 137399, Note_on_c, 0, 62, 33
3, 138010, Note_on_c, 0, 50, 44
3, 138025, Note_on_c, 0, 62, 0
3, 138176, Note_on_c, 0, 65, 0
3, 138188, Note_on_c, 0, 57, 0
3, 138226, Note_on_c, 0, 50, 0
3, 138390, Note_on_c, 0, 71, 42
3, 138401, Control_c, 0, 64, 0
3, 138403, Note_on_c, 0, 67, 47
3, 138416, Note_on_c, 0, 62, 41
3, 138417, Note_on_c, 0, 50, 43
3, 138436, Note_on_c, 0, 59, 36
3, 138672, Control_c, 0, 64, 127
3, 139013, Note_on_c, 0, 62, 0
3, 139034, Note_on_c, 0, 67, 0
3, 139057, Note_on_c, 0, 59, 0
3, 139324, Note_on_c, 0, 59, 29
3, 139327, Note_on_c, 0, 67, 38
3, 139341, Note_on_c, 0, 62, 33
3, 139385, Note_on_c, 0, 55, 17
3, 140074, Note_on_c, 0, 62, 0
3, 140161, Note_on_c, 0, 67, 0
3, 140210, Note_on_c, 0, 59, 0
3, 140255, Note_on_c, 0, 55, 0
3, 140320, Note_on_c, 0, 50, 0
3, 140780, Note_on_c, 0, 71, 0
3, 140933, Note_on_c, 0, 45, 80
3, 141148, Control_c, 0, 64, 0
3, 141215, Note_on_c, 0, 45, 0
3, 141280, Note_on_c, 0, 38, 71
3, 141340, Control_c, 0, 64, 127
3, 141381, Note_on_c, 0, 38, 0
3, 141920, Note_on_c, 0, 50, 71
3, 141925, Note_on_c, 0, 55, 71
3, 141927, Note_on_c, 0, 60, 75
3, 142329, Note_on_c, 0, 86, 83
3, 142334, Note_on_c, 0, 74, 85
3, 142339, Note_on_c, 0, 81, 79
3, 142372, Note_on_c, 0, 76, 30
3, 142610, Note_on_c, 0, 74, 0
3, 142617, Note_on_c, 0, 76, 0
3, 142643, Note_on_c, 0, 81, 0
3, 142656, Note_on_c, 0, 86, 0
3, 142958, Note_on_c, 0, 89, 78
3, 142967, Note_on_c, 0, 77, 76
3, 142972, Note_on_c, 0, 84, 75
3, 143003, Note_on_c, 0, 60, 0
3, 143135, Note_on_c, 0, 55, 0
3, 143198, Note_on_c, 0, 50, 0
3, 143862, Note_on_c, 0, 45, 72
3, 144137, Control_c, 0, 64, 0
3, 144154, Note_on_c, 0, 45, 0
3, 144222, Note_on_c, 0, 38, 68
3, 144316, Control_c, 0, 64, 127
3, 144321, Note_on_c, 0, 38, 0
3, 144835, Note_on_c, 0, 53, 78
3, 144836, Note_on_c, 0, 59, 79
3, 144841, Note_on_c, 0, 64, 90
3, 145274, Note_on_c, 0, 89, 0
3, 145335, Note_on_c, 0, 84, 0
3, 145434, Note_on_c, 0, 77, 0
3, 146151, Note_on_c, 0, 64, 0
3, 146199, Note_on_c, 0, 86, 62
3, 146209, Note_on_c, 0, 74, 52
3, 146212, Note_on_c, 0, 59, 0
3, 146221, Note_on_c, 0, 81, 54
3, 146288, Note_on_c, 0, 53, 0
3, 146714, Note_on_c, 0, 45, 66
3, 146972, Control_c, 0, 64, 0
3, 146993, Note_on_c, 0, 45, 0
3, 147059, Note_on_c, 0, 38, 69
3, 147094, Note_on_c, 0, 74, 0
3, 147152, Control_c, 0, 64, 127
3, 147166, Note_on_c, 0, 38, 0
3, 147459, Note_on_c, 0, 86, 0
3, 147466, Note_on_c, 0, 81, 0
3, 147649, Note_on_c, 0, 65, 81
3, 147653, Note_on_c, 0, 60, 72
3, 147656, Note_on_c, 0, 54, 74
3, 148501, Note_on_c, 0, 86, 78
3, 148515, Note_on_c, 0, 74, 73
3, 148520, Note_on_c, 0, 81, 70
3, 148609, Note_on_c, 0, 74, 0
3, 148631, Note_on_c, 0, 81, 0
3, 148639, Note_on_c, 0, 86, 0
3, 148775, Note_on_c, 0, 72, 36
3, 148782, Note_on_c, 0, 84, 31
3, 148848, Note_on_c, 0, 72, 0
3, 148904, Note_on_c, 0, 84, 0
3, 149042, Note_on_c, 0, 65, 0
3, 149059, Note_on_c, 0, 86, 77
3, 149070, Note_on_c, 0, 74, 76
3, 149072, Note_on_c, 0, 81, 74
3, 149086, Note_on_c, 0, 60, 0
3, 149136, Note_on_c, 0, 54, 0
3, 149280, Note_on_c, 0, 86, 0
3, 149283, Note_on_c, 0, 81, 0
3, 149326, Note_on_c, 0, 74, 0
3, 149525, Note_on_c, 0, 84, 63
3, 149548, Note_on_c, 0, 79, 57
3, 149550, Note_on_c, 0, 72, 57
3, 149642, Note_on_c, 0, 79, 0
3, 149659, Note_on_c, 0, 84, 0
3, 149795, Note_on_c, 0, 72, 0
3, 149818, Note_on_c, 0, 77, 28
3, 149822, Control_c, 0, 64, 0
3, 149854, Note_on_c, 0, 38, 53
3, 149869, Note_on_c, 0, 77, 0
3, 149927, Note_on_c, 0, 77, 32
3, 149941, Note_on_c, 0, 83, 22
3, 150014, Control_c, 0, 64, 127
3, 150020, Note_on_c, 0, 38, 0
3, 150052, Note_on_c, 0, 83, 0
3, 150060, Note_on_c, 0, 77, 0
3, 150485, Note_on_c, 0, 69, 50
3, 150494, Note_on_c, 0, 81, 51
3, 150496, Note_on_c, 0, 61, 62
3, 150504, Note_on_c, 0, 76, 54
3, 150509, Note_on_c, 0, 66, 74
3, 150514, Note_on_c, 0, 55, 59
3, 150542, Note_on_c, 0, 78, 26
3, 150564, Control_c, 0, 64, 0
3, 150769, Control_c, 0, 64, 127
3, 150807, Note_on_c, 0, 78, 0
3, 151788, Note_on_c, 0, 66, 0
3, 151900, Note_on_c, 0, 81, 0
3, 151913, Note_on_c, 0, 76, 0
3, 151990, Note_on_c, 0, 69, 0
3, 152044, Note_on_c, 0, 61, 0
3, 152092, Note_on_c, 0, 55, 0
3, 152840, Note_on_c, 0, 69, 37
3, 152849, Control_c, 0, 64, 0
3, 152850, Note_on_c, 0, 65, 48
3, 152851, Note_on_c, 0, 60, 37
3, 153137, Note_on_c, 0, 50, 43
3, 153371, Note_on_c, 0, 50, 0
3, 153409, Note_on_c, 0, 60, 0
3, 153452, Control_c, 0, 64, 127
3, 153484, Note_on_c, 0, 49, 46
3, 153531, Note_on_c, 0, 65, 0
3, 153603, Note_on_c, 0, 69, 0
3, 153759, Control_c, 0, 64, 0
3, 153801, Note_on_c, 0, 69, 38
3, 153811, Note_on_c, 0, 57, 49
3, 153813, Note_on_c, 0, 49, 0
3, 153827, Note_on_c, 0, 65, 42
3, 153831, Note_on_c, 0, 62, 45
3, 153841, Note_on_c, 0, 48, 33
3, 154017, Control_c, 0, 64, 127
3, 154381, Note_on_c, 0, 57, 0
3, 154432, Note_on_c, 0, 62, 0
3, 154445, Note_on_c, 0, 69, 0
3, 154554, Note_on_c, 0, 65, 0
3, 154773, Control_c, 0, 64, 0
3, 154780, Note_on_c, 0, 67, 44
3, 154783, Note_on_c, 0, 48, 0
3, 154785, Note_on_c, 0, 57, 40
3, 154797, Note_on_c, 0, 62, 50
3, 154800, Note_on_c, 0, 47, 41
3, 155017, Control_c, 0, 64, 127
3, 155061, Note_on_c, 0, 47, 0
3, 155181, Note_on_c, 0, 57, 0
3, 155317, Note_on_c, 0, 62, 0
3, 155509, Note_on_c, 0, 67, 0
3, 155684, Control_c, 0, 64, 0
3, 155728, Note_on_c, 0, 65, 56
3, 155730, Note_on_c, 0, 56, 38
3, 155733, Note_on_c, 0, 62, 45
3, 155734, Note_on_c, 0, 60, 39
3, 155735, Note_on_c, 0, 46, 40
3, 155931, Control_c, 0, 64, 127
3, 156110, Note_on_c, 0, 65, 0
3, 156144, Note_on_c, 0, 60, 0
3, 156183, Note_on_c, 0, 56, 0
3, 156192, Note_on_c, 0, 62, 0
3, 156359, Note_on_c, 0, 46, 0
3, 156649, Control_c, 0, 64, 0
3, 156684, Note_on_c, 0, 45, 46
3, 156688, Note_on_c, 0, 60, 50
3, 156691, Note_on_c, 0, 52, 34
3, 156693, Note_on_c, 0, 62, 47
3, 156695, Note_on_c, 0, 55, 38
3, 156842, Control_c, 0, 64, 127
3, 156949, Note_on_c, 0, 55, 0
3, 157033, Note_on_c, 0, 60, 0
3, 157060, Note_on_c, 0, 62, 0
3, 157139, Note_on_c, 0, 45, 0
3, 157201, Note_on_c, 0, 52, 0
3, 157631, Note_on_c, 0, 44, 59
3, 157633, Note_on_c, 0, 70, 69
3, 157636, Note_on_c, 0, 54, 58
3, 157640, Control_c, 0, 64, 0
3, 157641, Note_on_c, 0, 65, 72
3, 157648, Note_on_c, 0, 60, 61
3, 157881, Control_c, 0, 64, 127
3, 158133, Note_on_c, 0, 54, 0
3, 158148, Note_on_c, 0, 44, 0
3, 158174, Note_on_c, 0, 70, 0
3, 158298, Note_on_c, 0, 60, 0
3, 158337, Note_on_c, 0, 65, 0
3, 158600, Note_on_c, 0, 43, 49
3, 158606, Note_on_c, 0, 64, 60
3, 158610, Note_on_c, 0, 69, 55
3, 158613, Control_c, 0, 64, 0
3, 158615, Note_on_c, 0, 59, 57
3, 158623, Note_on_c, 0, 53, 43
3, 158857, Control_c, 0, 64, 127
3, 158962, Note_on_c, 0, 53, 0
3, 158975, Note_on_c, 0, 43, 0
3, 159047, Note_on_c, 0, 59, 0
3, 159065, Note_on_c, 0, 64, 0
3, 159331, Note_on_c, 0, 69, 0
3, 159498, Control_c, 0, 64, 0
3, 159511, Note_on_c, 0, 67, 58
3, 159514, Note_on_c, 0, 57, 53
3, 159514, Note_on_c, 0, 63, 48
3, 159525, Note_on_c, 0, 41, 51
3, 159533, Note_on_c, 0, 51, 40
3, 159754, Control_c, 0, 64, 127
3, 159876, Note_on_c, 0, 67, 0
3, 159948, Note_on_c, 0, 41, 0
3, 159952, Note_on_c, 0, 63, 0
3, 159958, Note_on_c, 0, 51, 0
3, 159963, Note_on_c, 0, 57, 0
3, 160409, Control_c, 0, 64, 0
3, 160433, Note_on_c, 0, 61, 44
3, 160437, Note_on_c, 0, 65, 46
3, 160439, Note_on_c, 0, 39, 39
3, 160456, Note_on_c, 0, 46, 34
3, 160563, Control_c, 0, 64, 127
3, 160745, Note_on_c, 0, 65, 0
3, 160752, Note_on_c, 0, 39, 0
3, 160776, Note_on_c, 0, 46, 0
3, 161404, Note_on_c, 0, 45, 91
3, 161409, Control_c, 0, 64, 0
3, 161412, Note_on_c, 0, 38, 87
3, 161817, Note_on_c, 0, 45, 0
3, 161843, Note_on_c, 0, 38, 0
3, 161896, Note_on_c, 0, 45, 72
3, 161904, Note_on_c, 0, 38, 65
3, 162394, Note_on_c, 0, 64, 71
3, 162400, Note_on_c, 0, 57, 74
3, 162409, Note_on_c, 0, 61, 0
3, 162413, Note_on_c, 0, 60, 60
3, 162414, Note_on_c, 0, 53, 65
3, 163359, Control_c, 0, 64, 127
3, 163556, Note_on_c, 0, 38, 0
3, 163634, Note_on_c, 0, 45, 0
3, 164270, Control_c, 0, 64, 0
3, 164789, Note_on_c, 0, 38, 55
3, 164814, Note_on_c, 0, 57, 0
3, 164842, Note_on_c, 0, 53, 0
3, 164848, Control_c, 0, 64, 127
3, 165102, Note_on_c, 0, 60, 0
3, 165105, Control_c, 0, 64, 0
3, 165137, Note_on_c, 0, 64, 0
3, 165287, Note_on_c, 0, 55, 33
3, 165289, Note_on_c, 0, 62, 20
3, 165290, Note_on_c, 0, 47, 32
3, 165293, Note_on_c, 0, 50, 38
3, 165294, Note_on_c, 0, 59, 36
3, 165425, Note_on_c, 0, 55, 0
3, 165438, Control_c, 0, 64, 127
3, 165527, Note_on_c, 0, 59, 0
3, 165548, Note_on_c, 0, 62, 0
3, 165785, Note_on_c, 0, 74, 71
3, 165787, Note_on_c, 0, 67, 56
3, 165850, Note_on_c, 0, 38, 0
3, 165897, Note_on_c, 0, 47, 0
3, 165966, Note_on_c, 0, 50, 0
3, 166152, Note_on_c, 0, 74, 0
3, 166257, Note_on_c, 0, 71, 41
3, 166401, Note_on_c, 0, 67, 0
3, 166468, Note_on_c, 0, 71, 0
3, 166705, Note_on_c, 0, 72, 58
3, 166707, Note_on_c, 0, 79, 60
3, 166876, Note_on_c, 0, 79, 0
3, 166888, Note_on_c, 0, 72, 0
3, 167163, Note_on_c, 0, 76, 43
3, 167171, Control_c, 0, 64, 0
3, 167172, Note_on_c, 0, 69, 32
3, 167187, Note_on_c, 0, 50, 37
3, 167452, Control_c, 0, 64, 127
3, 167680, Note_on_c, 0, 57, 40
3, 167713, Note_on_c, 0, 50, 0
3, 167792, Note_on_c, 0, 69, 0
3, 168197, Note_on_c, 0, 69, 32
3, 168200, Note_on_c, 0, 64, 41
3, 168208, Note_on_c, 0, 65, 35
3, 168693, Note_on_c, 0, 57, 0
3, 168937, Note_on_c, 0, 65, 0
3, 169064, Note_on_c, 0, 69, 0
3, 169143, Note_on_c, 0, 65, 31
3, 169148, Note_on_c, 0, 69, 15
3, 169518, Note_on_c, 0, 64, 0
3, 169594, Note_on_c, 0, 76, 0
3, 169612, Note_on_c, 0, 69, 0
3, 169653, Note_on_c, 0, 57, 33
3, 169667, Note_on_c, 0, 65, 0
3, 170019, Control_c, 0, 64, 0
3, 170055, Note_on_c, 0, 71, 33
3, 170084, Note_on_c, 0, 50, 36
3, 170087, Note_on_c, 0, 67, 44
3, 170088, Note_on_c, 0, 62, 39
3, 170211, Control_c, 0, 64, 127
3, 170378, Note_on_c, 0, 57, 0
3, 170573, Note_on_c, 0, 50, 0
3, 170771, Note_on_c, 0, 71, 0
3, 170803, Note_on_c, 0, 62, 0
3, 170894, Note_on_c, 0, 67, 0
3, 171687, Note_on_c, 0, 61, 37
3, 171692, Note_on_c, 0, 45, 51
3, 171694, Note_on_c, 0, 70, 57
3, 171698, Note_on_c, 0, 66, 59
3, 171712, Control_c, 0, 64, 0
3, 171722, Note_on_c, 0, 55, 31
3, 171931, Control_c, 0, 64, 127
3, 172094, Note_on_c, 0, 45, 0
3, 172104, Note_on_c, 0, 55, 0
3, 172359, Note_on_c, 0, 70, 0
3, 172398, Note_on_c, 0, 61, 0
3, 172461, Note_on_c, 0, 66, 0
3, 172474, Note_on_c, 0, 69, 54
3, 172705, Note_on_c, 0, 69, 0
3, 172735, Note_on_c, 0, 65, 44
3, 172899, Note_on_c, 0, 65, 0
3, 172995, Control_c, 0, 64, 0
3, 172997, Note_on_c, 0, 39, 45
3, 173013, Note_on_c, 0, 68, 46
3, 173018, Note_on_c, 0, 61, 42
3, 173032, Note_on_c, 0, 54, 30
3, 173047, Note_on_c, 0, 65, 34
3, 173252, Control_c, 0, 64, 127
3, 173411, Note_on_c, 0, 39, 0
3, 173601, Note_on_c, 0, 54, 0
3, 173696, Note_on_c, 0, 65, 0
3, 173740, Note_on_c, 0, 61, 0
3, 173923, Note_on_c, 0, 68, 0
3, 174023, Note_on_c, 0, 68, 46
3, 174041, Note_on_c, 0, 61, 60
3, 174044, Note_on_c, 0, 65, 64
3, 174547, Note_on_c, 0, 61, 0
3, 174585, Note_on_c, 0, 65, 0
3, 174623, Note_on_c, 0, 44, 72
3, 174752, Note_on_c, 0, 68, 0
3, 174944, Control_c, 0, 64, 0
3, 174985, Note_on_c, 0, 68, 68
3, 174988, Note_on_c, 0, 65, 75
3, 174995, Note_on_c, 0, 54, 63
3, 175002, Note_on_c, 0, 60, 68
3, 175176, Control_c, 0, 64, 127
3, 175432, Note_on_c, 0, 44, 0
3, 175532, Note_on_c, 0, 60, 0
3, 175556, Note_on_c, 0, 44, 39
3, 175577, Note_on_c, 0, 54, 0
3, 175583, Note_on_c, 0, 65, 0
3, 175786, Note_on_c, 0, 44, 0
3, 175795, Note_on_c, 0, 68, 0
3, 175856, Control_c, 0, 64, 0
3, 175898, Note_on_c, 0, 70, 59
3, 175909, Note_on_c, 0, 65, 68
3, 175914, Note_on_c, 0, 60, 55
3, 175927, Note_on_c, 0, 49, 59
3, 175929, Note_on_c, 0, 56, 53
3, 176060, Control_c, 0, 64, 127
3, 176087, Note_on_c, 0, 60, 0
3, 176169, Note_on_c, 0, 65, 0
3, 176233, Note_on_c, 0, 56, 0
3, 176247, Note_on_c, 0, 49, 0
3, 176249, Note_on_c, 0, 70, 0
3, 176814, Note_on_c, 0, 82, 62
3, 176828, Note_on_c, 0, 72, 55
3, 176835, Note_on_c, 0, 75, 67
3, 176837, Note_on_c, 0, 63, 75
3, 177095, Note_on_c, 0, 82, 0
3, 177114, Note_on_c, 0, 63, 0
3, 177146, Note_on_c, 0, 75, 0
3, 177168, Note_on_c, 0, 72, 0
3, 177747, Note_on_c, 0, 70, 51
3, 177754, Note_on_c, 0, 63, 52
3, 177756, Note_on_c, 0, 60, 57
3, 177778, Note_on_c, 0, 65, 45
3, 177781, Note_on_c, 0, 56, 51
3, 178171, Note_on_c, 0, 60, 0
3, 178198, Note_on_c, 0, 56, 0
3, 178207, Note_on_c, 0, 65, 0
3, 178257, Note_on_c, 0, 70, 0
3, 178322, Note_on_c, 0, 63, 0
3, 178614, Control_c, 0, 64, 0
3, 178689, Note_on_c, 0, 71, 55
3, 178696, Note_on_c, 0, 67, 60
3, 178700, Note_on_c, 0, 52, 57
3, 178701, Note_on_c, 0, 59, 51
3, 178704, Note_on_c, 0, 62, 61
3, 178816, Note_on_c, 0, 62, 0
3, 178846, Control_c, 0, 64, 127
3, 178899, Note_on_c, 0, 67, 0
3, 178924, Note_on_c, 0, 71, 0
3, 179221, Note_on_c, 0, 83, 75
3, 179230, Note_on_c, 0, 76, 75
3, 179244, Note_on_c, 0, 62, 48
3, 179477, Note_on_c, 0, 83, 0
3, 179488, Note_on_c, 0, 76, 0
3, 179712, Note_on_c, 0, 76, 85
3, 179715, Note_on_c, 0, 83, 84
3, 179726, Note_on_c, 0, 52, 0
3, 179753, Note_on_c, 0, 59, 0
3, 179857, Note_on_c, 0, 62, 0
3, 180060, Note_on_c, 0, 76, 0
3, 180103, Note_on_c, 0, 83, 0
3, 180181, Note_on_c, 0, 79, 60
3, 180193, Note_on_c, 0, 71, 51
3, 180470, Note_on_c, 0, 71, 0
3, 180535, Note_on_c, 0, 79, 0
3, 180612, Note_on_c, 0, 61, 27
3, 180613, Note_on_c, 0, 66, 36
3, 180617, Control_c, 0, 64, 0
3, 180634, Note_on_c, 0, 76, 59
3, 180639, Note_on_c, 0, 55, 25
3, 180644, Note_on_c, 0, 83, 54
3, 180835, Control_c, 0, 64, 127
3, 181006, Note_on_c, 0, 55, 0
3, 181022, Note_on_c, 0, 83, 0
3, 181032, Note_on_c, 0, 66, 0
3, 181083, Note_on_c, 0, 61, 0
3, 181086, Note_on_c, 0, 71, 49
3, 181092, Note_on_c, 0, 79, 46
3, 181151, Note_on_c, 0, 76, 0
3, 181269, Note_on_c, 0, 71, 0
3, 181281, Note_on_c, 0, 79, 0
3, 181500, Control_c, 0, 64, 0
3, 181535, Note_on_c, 0, 84, 50
3, 181536, Note_on_c, 0, 50, 36
3, 181541, Note_on_c, 0, 77, 41
3, 181694, Control_c, 0, 64, 127
3, 181815, Note_on_c, 0, 84, 0
3, 181920, Note_on_c, 0, 77, 0
3, 181989, Note_on_c, 0, 50, 0
3, 182026, Note_on_c, 0, 57, 44
3, 182486, Note_on_c, 0, 57, 0
3, 182505, Note_on_c, 0, 76, 48
3, 182527, Control_c, 0, 64, 0
3, 182535, Note_on_c, 0, 69, 53
3, 182540, Note_on_c, 0, 72, 48
3, 182545, Note_on_c, 0, 64, 37
3, 182572, Note_on_c, 0, 65, 53
3, 182695, Control_c, 0, 64, 127
3, 183004, Note_on_c, 0, 62, 78
3, 183036, Note_on_c, 0, 64, 0
3, 183079, Note_on_c, 0, 65, 0
3, 183131, Note_on_c, 0, 72, 0
3, 183173, Note_on_c, 0, 69, 0
3, 183470, Note_on_c, 0, 72, 53
3, 183489, Note_on_c, 0, 65, 41
3, 183492, Note_on_c, 0, 69, 36
3, 183986, Note_on_c, 0, 60, 49
3, 184030, Note_on_c, 0, 62, 0
3, 184100, Note_on_c, 0, 60, 0
3, 184144, Note_on_c, 0, 69, 0
3, 184160, Note_on_c, 0, 65, 0
3, 184170, Note_on_c, 0, 72, 0
3, 184217, Note_on_c, 0, 76, 0
3, 184452, Control_c, 0, 64, 0
3, 184453, Note_on_c, 0, 73, 40
3, 184458, Note_on_c, 0, 69, 49
3, 184460, Note_on_c, 0, 64, 58
3, 184467, Note_on_c, 0, 59, 40
3, 184470, Note_on_c, 0, 57, 51
3, 184474, Note_on_c, 0, 61, 39
3, 184695, Control_c, 0, 64, 127
3, 184951, Note_on_c, 0, 61, 0
3, 184961, Note_on_c, 0, 57, 0
3, 184974, Note_on_c, 0, 59, 0
3, 185072, Note_on_c, 0, 64, 0
3, 185138, Note_on_c, 0, 69, 0
3, 185308, Note_on_c, 0, 73, 0
3, 185440, Control_c, 0, 64, 0
3, 185448, Note_on_c, 0, 73, 28
3, 185461, Note_on_c, 0, 63, 47
3, 185471, Note_on_c, 0, 69, 47
3, 185491, Note_on_c, 0, 57, 52
3, 185493, Note_on_c, 0, 47, 44
3, 185658, Control_c, 0, 64, 127
3, 185857, Note_on_c, 0, 69, 0
3, 185937, Note_on_c, 0, 63, 0
3, 185982, Note_on_c, 0, 73, 0
3, 186016, Note_on_c, 0, 57, 0
3, 186414, Note_on_c, 0, 66, 38
3, 186428, Note_on_c, 0, 63, 35
3, 186464, Note_on_c, 0, 59, 24
3, 186473, Note_on_c, 0, 47, 0
3, 186846, Note_on_c, 0, 59, 0
3, 186911, Note_on_c, 0, 66, 0
3, 186921, Note_on_c, 0, 63, 0
3, 186929, Note_on_c, 0, 47, 54
3, 187326, Control_c, 0, 64, 0
3, 187354, Note_on_c, 0, 40, 44
3, 187361, Note_on_c, 0, 47, 0
3, 187363, Note_on_c, 0, 74, 55
3, 187377, Note_on_c, 0, 67, 47
3, 187387, Note_on_c, 0, 62, 38
3, 187399, Note_on_c, 0, 55, 44
3, 187445, Note_on_c, 0, 62, 0
3, 187493, Control_c, 0, 64, 127
3, 187537, Note_on_c, 0, 67, 0
3, 187552, Note_on_c, 0, 40, 0
3, 187606, Note_on_c, 0, 74, 0
3, 187656, Note_on_c, 0, 55, 0
3, 188324, Note_on_c, 0, 86, 81
3, 188328, Note_on_c, 0, 74, 88
3, 188332, Note_on_c, 0, 59, 61
3, 188333, Note_on_c, 0, 79, 76
3, 188334, Note_on_c, 0, 83, 79
3, 188338, Note_on_c, 0, 52, 62
3, 188342, Note_on_c, 0, 55, 51
3, 188345, Note_on_c, 0, 62, 79
3, 188524, Note_on_c, 0, 74, 0
3, 188534, Note_on_c, 0, 62, 0
3, 188544, Note_on_c, 0, 86, 0
3, 188545, Note_on_c, 0, 83, 0
3, 188556, Note_on_c, 0, 79, 0
3, 188615, Note_on_c, 0, 86, 56
3, 188618, Note_on_c, 0, 62, 71
3, 188622, Control_c, 0, 64, 0
3, 188626, Note_on_c, 0, 74, 52
3, 188634, Note_on_c, 0, 79, 40
3, 188640, Note_on_c, 0, 83, 66
3, 188805, Note_on_c, 0, 74, 0
3, 188814, Note_on_c, 0, 62, 0
3, 188831, Note_on_c, 0, 79, 0
3, 188845, Note_on_c, 0, 83, 0
3, 188848, Note_on_c, 0, 55, 0
3, 188850, Note_on_c, 0, 59, 0
3, 188858, Note_on_c, 0, 86, 0
3, 188862, Note_on_c, 0, 52, 0
3, 189290, Note_on_c, 0, 86, 71
3, 189292, Note_on_c, 0, 62, 70
3, 189293, Note_on_c, 0, 55, 52
3, 189296, Note_on_c, 0, 59, 55
3, 189298, Note_on_c, 0, 79, 68
3, 189299, Note_on_c, 0, 83, 66
3, 189301, Note_on_c, 0, 74, 73
3, 189305, Control_c, 0, 64, 127
3, 189504, Note_on_c, 0, 86, 0
3, 189518, Note_on_c, 0, 83, 0
3, 189558, Note_on_c, 0, 79, 0
3, 189572, Note_on_c, 0, 74, 0
3, 189636, Note_on_c, 0, 62, 0
3, 189718, Note_on_c, 0, 59, 0
3, 189724, Note_on_c, 0, 55, 0
3, 189823, Note_on_c, 0, 55, 62
3, 190524, Note_on_c, 0, 55, 0
3, 190674, Control_c, 0, 64, 0
3, 190738, Note_on_c, 0, 69, 68
3, 190742, Note_on_c, 0, 62, 72
3, 190743, Note_on_c, 0, 58, 79
3, 190750, Note_on_c, 0, 57, 81
3, 190761, Note_on_c, 0, 64, 64
3, 191240, Control_c, 0, 64, 127
3, 191260, Note_on_c, 0, 45, 54
3, 191498, Note_on_c, 0, 57, 0
3, 191511, Note_on_c, 0, 62, 0
3, 191556, Note_on_c, 0, 58, 0
3, 191583, Note_on_c, 0, 69, 0
3, 191592, Note_on_c, 0, 64, 0
3, 191728, Control_c, 0, 64, 0
3, 191762, Note_on_c, 0, 64, 20
3, 191769, Note_on_c, 0, 58, 64
3, 191770, Note_on_c, 0, 57, 55
3, 191777, Note_on_c, 0, 61, 56
3, 191790, Note_on_c, 0, 67, 50
3, 191984, Control_c, 0, 64, 127
3, 192035, Note_on_c, 0, 45, 0
3, 192237, Note_on_c, 0, 45, 49
3, 192407, Note_on_c, 0, 57, 0
3, 192652, Note_on_c, 0, 58, 0
3, 192657, Note_on_c, 0, 67, 0
3, 192670, Note_on_c, 0, 64, 0
3, 192734, Note_on_c, 0, 57, 50
3, 192744, Note_on_c, 0, 61, 0
3, 192803, Note_on_c, 0, 57, 0
3, 193101, Note_on_c, 0, 45, 0
3, 193151, Control_c, 0, 64, 0
3, 193189, Note_on_c, 0, 62, 50
3, 193191, Note_on_c, 0, 53, 38
3, 193207, Note_on_c, 0, 60, 44
3, 193211, Note_on_c, 0, 57, 43
3, 193680, Note_on_c, 0, 52, 63
3, 194097, Note_on_c, 0, 53, 0
3, 194112, Note_on_c, 0, 52, 0
3, 194154, Note_on_c, 0, 50, 44
3, 194179, Note_on_c, 0, 57, 0
3, 194318, Note_on_c, 0, 60, 0
3, 194599, Note_on_c, 0, 50, 0
3, 194622, Note_on_c, 0, 52, 40
3, 194628, Note_on_c, 0, 53, 34
3, 194629, Note_on_c, 0, 57, 40
3, 194645, Note_on_c, 0, 60, 40
3, 195070, Note_on_c, 0, 52, 0
3, 195108, Note_on_c, 0, 50, 37
3, 195131, Note_on_c, 0, 53, 0
3, 195178, Control_c, 0, 64, 127
3, 195363, Note_on_c, 0, 57, 0
3, 195418, Note_on_c, 0, 60, 0
3, 195519, Note_on_c, 0, 62, 0
3, 195594, Note_on_c, 0, 50, 0
3, 195606, Note_on_c, 0, 52, 36
3, 195707, Note_on_c, 0, 52, 0
3, 196039, Control_c, 0, 64, 0
3, 196055, Note_on_c, 0, 61, 47
3, 196065, Note_on_c, 0, 54, 36
3, 196068, Note_on_c, 0, 68, 46
3, 196083, Note_on_c, 0, 65, 53
3, 196542, Note_on_c, 0, 46, 55
3, 196551, Note_on_c, 0, 54, 0
3, 196653, Control_c, 0, 64, 127
3, 196909, Control_c, 0, 64, 0
3, 196967, Note_on_c, 0, 39, 64
3, 196979, Note_on_c, 0, 46, 0
3, 196987, Control_c, 0, 64, 127
3, 197014, Note_on_c, 0, 61, 0
3, 197051, Note_on_c, 0, 65, 0
3, 197065, Note_on_c, 0, 39, 0
3, 197334, Note_on_c, 0, 68, 0
3, 197468, Note_on_c, 0, 44, 48
3, 197477, Note_on_c, 0, 68, 73
3, 197480, Note_on_c, 0, 54, 71
3, 197486, Note_on_c, 0, 65, 81
3, 197498, Note_on_c, 0, 60, 74
3, 197500, Control_c, 0, 64, 0
3, 197718, Control_c, 0, 64, 127
3, 197886, Note_on_c, 0, 68, 0
3, 197968, Note_on_c, 0, 68, 56
3, 198203, Note_on_c, 0, 44, 0
3, 198256, Note_on_c, 0, 68, 0
3, 198346, Note_on_c, 0, 60, 0
3, 198369, Note_on_c, 0, 54, 0
3, 198407, Note_on_c, 0, 44, 74
3, 198413, Note_on_c, 0, 65, 0
3, 198787, Note_on_c, 0, 44, 0
3, 198860, Control_c, 0, 64, 0
3, 198881, Note_on_c, 0, 70, 67
3, 198898, Note_on_c, 0, 63, 74
3, 198908, Note_on_c, 0, 59, 73
3, 198911, Note_on_c, 0, 67, 63
3, 198912, Note_on_c, 0, 43, 68
3, 198940, Note_on_c, 0, 60, 48
3, 198985, Note_on_c, 0, 60, 0
3, 199329, Note_on_c, 0, 43, 0
3, 199424, Note_on_c, 0, 54, 81
3, 199556, Control_c, 0, 64, 127
3, 199779, Note_on_c, 0, 59, 0
3, 199802, Note_on_c, 0, 70, 0
3, 199830, Note_on_c, 0, 54, 0
3, 199831, Note_on_c, 0, 63, 0
3, 199833, Note_on_c, 0, 67, 0
3, 199865, Control_c, 0, 64, 0
3, 199894, Note_on_c, 0, 70, 44
3, 199897, Note_on_c, 0, 55, 74
3, 199903, Note_on_c, 0, 63, 62
3, 199909, Note_on_c, 0, 59, 63
3, 199917, Note_on_c, 0, 67, 66
3, 200096, Control_c, 0, 64, 127
3, 200575, Note_on_c, 0, 67, 0
3, 200586, Note_on_c, 0, 59, 0
3, 200668, Note_on_c, 0, 63, 0
3, 200764, Note_on_c, 0, 70, 0
3, 200812, Note_on_c, 0, 63, 48
3, 200830, Note_on_c, 0, 67, 53
3, 200831, Note_on_c, 0, 59, 48
3, 201073, Note_on_c, 0, 59, 0
3, 201214, Note_on_c, 0, 55, 0
3, 201223, Note_on_c, 0, 63, 0
3, 201251, Note_on_c, 0, 67, 0
3, 201262, Note_on_c, 0, 43, 57
3, 201325, Note_on_c, 0, 43, 0
3, 202174, Control_c, 0, 64, 0
3, 202213, Note_on_c, 0, 71, 79
3, 202218, Note_on_c, 0, 68, 77
3, 202222, Note_on_c, 0, 61, 67
3, 202226, Note_on_c, 0, 64, 84
3, 202233, Note_on_c, 0, 59, 58
3, 202236, Note_on_c, 0, 57, 64
3, 202378, Control_c, 0, 64, 127
3, 202590, Note_on_c, 0, 61, 0
3, 202606, Note_on_c, 0, 64, 0
3, 202617, Note_on_c, 0, 57, 0
3, 202654, Note_on_c, 0, 68, 0
3, 202659, Note_on_c, 0, 71, 0
3, 202723, Note_on_c, 0, 61, 31
3, 202737, Note_on_c, 0, 68, 53
3, 202743, Note_on_c, 0, 64, 69
3, 202747, Note_on_c, 0, 71, 64
3, 202788, Note_on_c, 0, 57, 18
3, 202869, Note_on_c, 0, 61, 0
3, 202908, Note_on_c, 0, 57, 0
3, 202913, Note_on_c, 0, 71, 0
3, 202952, Note_on_c, 0, 59, 0
3, 203004, Note_on_c, 0, 68, 0
3, 203007, Note_on_c, 0, 64, 0
3, 203187, Control_c, 0, 64, 0
3, 203218, Note_on_c, 0, 71, 67
3, 203219, Note_on_c, 0, 68, 73
3, 203221, Note_on_c, 0, 63, 78
3, 203225, Note_on_c, 0, 61, 73
3, 203231, Note_on_c, 0, 59, 64
3, 203232, Note_on_c, 0, 57, 65
3, 203392, Control_c, 0, 64, 127
3, 203583, Note_on_c, 0, 63, 0
3, 203610, Note_on_c, 0, 71, 0
3, 203628, Note_on_c, 0, 68, 0
3, 203725, Note_on_c, 0, 63, 51
3, 203726, Note_on_c, 0, 71, 50
3, 203728, Note_on_c, 0, 68, 42
3, 203831, Note_on_c, 0, 61, 0
3, 203865, Note_on_c, 0, 57, 0
3, 203873, Note_on_c, 0, 63, 0
3, 203920, Note_on_c, 0, 71, 0
3, 203925, Note_on_c, 0, 68, 0
3, 203926, Note_on_c, 0, 59, 0
3, 204138, Note_on_c, 0, 61, 58
3, 204167, Note_on_c, 0, 59, 33
3, 204169, Note_on_c, 0, 71, 55
3, 204170, Note_on_c, 0, 63, 64
3, 204179, Note_on_c, 0, 68, 58
3, 204338, Note_on_c, 0, 59, 0
3, 204387, Note_on_c, 0, 63, 0
3, 204444, Note_on_c, 0, 61, 0
3, 204517, Note_on_c, 0, 71, 0
3, 204533, Note_on_c, 0, 68, 0
3, 204598, Control_c, 0, 64, 0
3, 204630, Note_on_c, 0, 72, 61
3, 204634, Note_on_c, 0, 64, 71
3, 204638, Note_on_c, 0, 56, 68
3, 204641, Note_on_c, 0, 67, 68
3, 204645, Note_on_c, 0, 62, 66
3, 204688, Note_on_c, 0, 71, 26
3, 204868, Control_c, 0, 64, 127
3, 205385, Note_on_c, 0, 64, 0
3, 205422, Note_on_c, 0, 67, 0
3, 205439, Note_on_c, 0, 72, 0
3, 205513, Note_on_c, 0, 71, 0
3, 205599, Control_c, 0, 64, 0
3, 205613, Note_on_c, 0, 72, 54
3, 205616, Note_on_c, 0, 64, 54
3, 205633, Note_on_c, 0, 52, 45
3, 205635, Note_on_c, 0, 67, 60
3, 205710, Note_on_c, 0, 56, 0
3, 205749, Note_on_c, 0, 62, 0
3, 205817, Control_c, 0, 64, 127
3, 206213, Note_on_c, 0, 64, 0
3, 206271, Note_on_c, 0, 67, 0
3, 206605, Note_on_c, 0, 67, 49
3, 206614, Note_on_c, 0, 64, 47
3, 206678, Note_on_c, 0, 52, 0
3, 206935, Note_on_c, 0, 64, 0
3, 207029, Note_on_c, 0, 67, 0
3, 207065, Note_on_c, 0, 72, 0
3, 207072, Note_on_c, 0, 52, 34
3, 207164, Note_on_c, 0, 52, 0
3, 207498, Control_c, 0, 64, 0
3, 207523, Note_on_c, 0, 63, 30
3, 207537, Note_on_c, 0, 61, 37
3, 207539, Note_on_c, 0, 73, 32
3, 207542, Note_on_c, 0, 66, 35
3, 207543, Note_on_c, 0, 70, 44
3, 207564, Note_on_c, 0, 59, 37
3, 207781, Note_on_c, 0, 66, 0
3, 207786, Note_on_c, 0, 70, 0
3, 207812, Note_on_c, 0, 59, 0
3, 207816, Note_on_c, 0, 73, 0
3, 207821, Note_on_c, 0, 63, 0
3, 207825, Note_on_c, 0, 61, 0
3, 208035, Note_on_c, 0, 63, 38
3, 208046, Note_on_c, 0, 66, 44
3, 208048, Note_on_c, 0, 61, 42
3, 208050, Control_c, 0, 64, 127
3, 208057, Note_on_c, 0, 73, 27
3, 208063, Note_on_c, 0, 70, 43
3, 208073, Note_on_c, 0, 59, 38
3, 208343, Note_on_c, 0, 66, 0
3, 208346, Note_on_c, 0, 63, 0
3, 208361, Note_on_c, 0, 70, 0
3, 208364, Note_on_c, 0, 61, 0
3, 208369, Note_on_c, 0, 59, 0
3, 208397, Note_on_c, 0, 73, 0
3, 208460, Control_c, 0, 64, 0
3, 208560, Note_on_c, 0, 63, 39
3, 208562, Note_on_c, 0, 73, 32
3, 208570, Note_on_c, 0, 65, 48
3, 208576, Note_on_c, 0, 61, 42
3, 208580, Note_on_c, 0, 70, 44
3, 208604, Note_on_c, 0, 59, 35
3, 208679, Control_c, 0, 64, 127
3, 209022, Note_on_c, 0, 63, 0
3, 209151, Note_on_c, 0, 59, 0
3, 209200, Note_on_c, 0, 70, 0
3, 209210, Note_on_c, 0, 61, 0
3, 209221, Note_on_c, 0, 65, 0
3, 209234, Note_on_c, 0, 73, 0
3, 209470, Note_on_c, 0, 63, 31
3, 209471, Note_on_c, 0, 61, 19
3, 209495, Note_on_c, 0, 73, 31
3, 209507, Note_on_c, 0, 70, 37
3, 209513, Note_on_c, 0, 65, 39
3, 209518, Note_on_c, 0, 59, 24
3, 209731, Note_on_c, 0, 59, 0
3, 209756, Note_on_c, 0, 61, 0
3, 209802, Note_on_c, 0, 63, 0
3, 209808, Note_on_c, 0, 65, 0
3, 209881, Note_on_c, 0, 70, 0
3, 209900, Note_on_c, 0, 73, 0
3, 210410, Control_c, 0, 64, 0
3, 210428, Note_on_c, 0, 76, 87
3, 210430, Note_on_c, 0, 73, 77
3, 210431, Note_on_c, 0, 66, 85
3, 210433, Note_on_c, 0, 69, 91
3, 210437, Note_on_c, 0, 64, 78
3, 210445, Note_on_c, 0, 62, 68
3, 210642, Control_c, 0, 64, 127
3, 211169, Note_on_c, 0, 69, 0
3, 211208, Note_on_c, 0, 66, 0
3, 211237, Note_on_c, 0, 62, 0
3, 211253, Note_on_c, 0, 64, 0
3, 211274, Note_on_c, 0, 76, 0
3, 211353, Note_on_c, 0, 73, 0
3, 211450, Note_on_c, 0, 73, 39
3, 211452, Note_on_c, 0, 68, 58
3, 211461, Note_on_c, 0, 76, 48
3, 211473, Note_on_c, 0, 64, 58
3, 211475, Control_c, 0, 64, 0
3, 211492, Note_on_c, 0, 62, 53
3, 211642, Control_c, 0, 64, 127
3, 211717, Note_on_c, 0, 64, 0
3, 211744, Note_on_c, 0, 62, 0
3, 211958, Note_on_c, 0, 68, 0
3, 212357, Note_on_c, 0, 73, 0
3, 212369, Note_on_c, 0, 76, 0
3, 212872, Note_on_c, 0, 64, 43
3, 213056, Note_on_c, 0, 64, 0
3, 213297, Control_c, 0, 64, 0
3, 213326, Note_on_c, 0, 41, 47
3, 213529, Control_c, 0, 64, 127
3, 213815, Note_on_c, 0, 53, 33
3, 213825, Note_on_c, 0, 41, 0
3, 213887, Note_on_c, 0, 53, 0
3, 214323, Note_on_c, 0, 77, 77
3, 214353, Note_on_c, 0, 62, 34
3, 214380, Note_on_c, 0, 57, 31
3, 214477, Note_on_c, 0, 57, 0
3, 214503, Note_on_c, 0, 62, 0
3, 214755, Note_on_c, 0, 77, 0
3, 214816, Note_on_c, 0, 75, 56
3, 214944, Note_on_c, 0, 61, 25
3, 215187, Note_on_c, 0, 61, 0
3, 215644, Note_on_c, 0, 75, 0
3, 215752, Note_on_c, 0, 73, 45
3, 216123, Note_on_c, 0, 73, 0
3, 216210, Note_on_c, 0, 65, 32
3, 216217, Note_on_c, 0, 70, 37
3, 216236, Control_c, 0, 64, 0
3, 216249, Note_on_c, 0, 60, 29
3, 216256, Note_on_c, 0, 62, 32
3, 216547, Note_on_c, 0, 65, 0
3, 216562, Note_on_c, 0, 70, 0
3, 216563, Note_on_c, 0, 72, 48
3, 216650, Note_on_c, 0, 70, 32
3, 216695, Note_on_c, 0, 72, 0
3, 216763, Note_on_c, 0, 69, 38
3, 216796, Note_on_c, 0, 70, 0
3, 216901, Note_on_c, 0, 69, 0
3, 216942, Note_on_c, 0, 70, 69
3, 217005, Control_c, 0, 64, 127
3, 217006, Note_on_c, 0, 53, 38
3, 217061, Note_on_c, 0, 70, 0
3, 217491, Note_on_c, 0, 74, 70
3, 217563, Note_on_c, 0, 53, 0
3, 217641, Note_on_c, 0, 62, 0
3, 217642, Note_on_c, 0, 60, 0
3, 217645, Note_on_c, 0, 74, 0
3, 217764, Note_on_c, 0, 77, 71
3, 217948, Note_on_c, 0, 77, 0
3, 218034, Note_on_c, 0, 84, 82
3, 218230, Note_on_c, 0, 84, 0
3, 218359, Note_on_c, 0, 84, 71
3, 218537, Note_on_c, 0, 84, 0
3, 218624, Note_on_c, 0, 82, 61
3, 218860, Note_on_c, 0, 82, 0
3, 218929, Control_c, 0, 64, 0
3, 218944, Note_on_c, 0, 65, 41
3, 218948, Note_on_c, 0, 84, 62
3, 218951, Note_on_c, 0, 61, 26
3, 218953, Note_on_c, 0, 55, 30
3, 219161, Control_c, 0, 64, 127
3, 219338, Note_on_c, 0, 65, 0
3, 219378, Note_on_c, 0, 61, 0
3, 219383, Note_on_c, 0, 55, 0
3, 219936, Note_on_c, 0, 84, 0
3, 219981, Control_c, 0, 64, 0
3, 219984, Note_on_c, 0, 48, 48
3, 220007, Note_on_c, 0, 82, 56
3, 220008, Note_on_c, 0, 58, 35
3, 220149, Control_c, 0, 64, 127
3, 220176, Note_on_c, 0, 58, 0
3, 220201, Note_on_c, 0, 48, 0
3, 220401, Note_on_c, 0, 82, 0
3, 220929, Note_on_c, 0, 48, 25
3, 220942, Note_on_c, 0, 80, 43
3, 220954, Note_on_c, 0, 70, 36
3, 220977, Note_on_c, 0, 73, 26
3, 220995, Note_on_c, 0, 76, 33
3, 221253, Note_on_c, 0, 70, 0
3, 221269, Note_on_c, 0, 76, 0
3, 221288, Note_on_c, 0, 80, 0
3, 221454, Note_on_c, 0, 73, 0
3, 221855, Control_c, 0, 64, 0
3, 221881, Note_on_c, 0, 41, 26
3, 221891, Note_on_c, 0, 77, 35
3, 221907, Note_on_c, 0, 72, 32
3, 221928, Note_on_c, 0, 67, 28
3, 221945, Note_on_c, 0, 57, 35
3, 222034, Control_c, 0, 64, 127
3, 222161, Note_on_c, 0, 77, 0
3, 222197, Note_on_c, 0, 72, 0
3, 222288, Note_on_c, 0, 67, 0
3, 222313, Note_on_c, 0, 57, 0
3, 222453, Note_on_c, 0, 41, 0
3, 222902, Note_on_c, 0, 67, 42
3, 222917, Note_on_c, 0, 62, 38
3, 223003, Note_on_c, 0, 48, 0
3, 224036, Control_c, 0, 64, 0
3, 224192, Note_on_c, 0, 57, 58
3, 224234, Note_on_c, 0, 67, 0
3, 224292, Control_c, 0, 64, 127
3, 224356, Note_on_c, 0, 57, 0
3, 224375, Note_on_c, 0, 62, 0
3, 224473, Note_on_c, 0, 56, 43
3, 224665, Control_c, 0, 64, 0
3, 224787, Note_on_c, 0, 56, 0
3, 224799, Note_on_c, 0, 58, 49
3, 224805, Note_on_c, 0, 62, 52
3, 224809, Note_on_c, 0, 57, 55
3, 224810, Note_on_c, 0, 69, 43
3, 224831, Note_on_c, 0, 64, 44
3, 224972, Control_c, 0, 64, 127
3, 225640, Note_on_c, 0, 69, 0
3, 225729, Note_on_c, 0, 57, 0
3, 225753, Note_on_c, 0, 67, 59
3, 225822, Note_on_c, 0, 58, 0
3, 225863, Note_on_c, 0, 64, 0
3, 225865, Note_on_c, 0, 62, 0
3, 225986, Note_on_c, 0, 67, 0
3, 226585, Control_c, 0, 64, 0
3, 226614, Control_c, 0, 64, 127
3, 226615, Note_on_c, 0, 61, 35
3, 226617, Note_on_c, 0, 65, 47
3, 226626, Note_on_c, 0, 58, 42
3, 226644, Note_on_c, 0, 55, 26
3, 226663, Note_on_c, 0, 49, 25
3, 226942, Note_on_c, 0, 65, 0
3, 227051, Note_on_c, 0, 49, 0
3, 227150, Note_on_c, 0, 65, 53
3, 227548, Note_on_c, 0, 65, 0
3, 227641, Control_c, 0, 64, 0
3, 227673, Note_on_c, 0, 38, 44
3, 227783, Note_on_c, 0, 55, 0
3, 227855, Note_on_c, 0, 58, 0
3, 227892, Note_on_c, 0, 61, 0
3, 228119, Note_on_c, 0, 38, 0
3, 228196, Note_on_c, 0, 45, 40
3, 228547, Note_on_c, 0, 45, 0
3, 228633, Note_on_c, 0, 64, 40
3, 228639, Control_c, 0, 64, 127
3, 228650, Note_on_c, 0, 53, 29
3, 228652, Note_on_c, 0, 57, 39
3, 228688, Note_on_c, 0, 60, 24
3, 228976, Note_on_c, 0, 53, 0
3, 228987, Note_on_c, 0, 57, 0
3, 228991, Note_on_c, 0, 64, 0
3, 228999, Note_on_c, 0, 60, 0
3, 229937, Control_c, 0, 64, 0
3, 230078, Control_c, 0, 64, 127
3, 230426, Control_c, 0, 64, 0
3, 230510, Note_on_c, 0, 38, 41
3, 231006, Note_on_c, 0, 47, 24
3, 231091, Control_c, 0, 64, 127
3, 231336, Control_c, 0, 64, 0
3, 231376, Note_on_c, 0, 47, 0
3, 231461, Note_on_c, 0, 55, 37
3, 231468, Note_on_c, 0, 50, 32
3, 231479, Note_on_c, 0, 62, 48
3, 231493, Note_on_c, 0, 59, 35
3, 231588, Note_on_c, 0, 55, 0
3, 231593, Control_c, 0, 64, 127
3, 231653, Note_on_c, 0, 59, 0
3, 231728, Note_on_c, 0, 62, 0
3, 231972, Note_on_c, 0, 76, 66
3, 232105, Note_on_c, 0, 38, 0
3, 232277, Note_on_c, 0, 50, 0
3, 232437, Note_on_c, 0, 67, 35
3, 232828, Note_on_c, 0, 76, 0
3, 232864, Note_on_c, 0, 67, 0
3, 232945, Note_on_c, 0, 74, 58
3, 233365, Note_on_c, 0, 65, 40
3, 233388, Control_c, 0, 64, 0
3, 233407, Note_on_c, 0, 50, 33
3, 233534, Note_on_c, 0, 74, 0
3, 233683, Control_c, 0, 64, 127
3, 233841, Note_on_c, 0, 65, 0
3, 233882, Note_on_c, 0, 67, 52
3, 233891, Note_on_c, 0, 57, 35
3, 234307, Note_on_c, 0, 67, 0
3, 234417, Note_on_c, 0, 62, 22
3, 234663, Note_on_c, 0, 57, 0
3, 234881, Note_on_c, 0, 57, 55
3, 235679, Note_on_c, 0, 50, 0
3, 235827, Note_on_c, 0, 50, 36
3, 236142, Note_on_c, 0, 50, 0
3, 236160, Note_on_c, 0, 50, 37
3, 236288, Control_c, 0, 64, 0
3, 236426, Note_on_c, 0, 57, 0
3, 236581, Note_on_c, 0, 62, 0
3, 236808, Note_on_c, 0, 50, 56
3, 237136, Note_on_c, 0, 59, 45
3, 237150, Note_on_c, 0, 55, 34
3, 237283, Note_on_c, 0, 50, 0
3, 237403, Control_c, 0, 64, 127
3, 237704, Note_on_c, 0, 59, 0
3, 237738, Note_on_c, 0, 55, 0
3, 238080, Note_on_c, 0, 55, 34
3, 238080, Note_on_c, 0, 59, 45
3, 238507, Control_c, 0, 64, 127
3, 238630, Note_on_c, 0, 45, 47
3, 238648, Note_on_c, 0, 59, 0
3, 238668, Note_on_c, 0, 55, 0
3, 238840, Note_on_c, 0, 45, 0
3, 238866, Note_on_c, 0, 50, 0
3, 238958, Control_c, 0, 64, 0
3, 239040, Note_on_c, 0, 38, 58
3, 239170, Control_c, 0, 64, 127
3, 239182, Note_on_c, 0, 38, 0
3, 240059, Note_on_c, 0, 57, 47
3, 240083, Note_on_c, 0, 53, 40
3, 240086, Note_on_c, 0, 62, 20
3, 240636, Note_on_c, 0, 74, 113
3, 240888, Note_on_c, 0, 74, 0
3, 241271, Note_on_c, 0, 77, 101
3, 241464, Note_on_c, 0, 62, 0
3, 241540, Note_on_c, 0, 77, 0
3, 241579, Note_on_c, 0, 74, 64
3, 241596, Note_on_c, 0, 53, 0
3, 241692, Note_on_c, 0, 74, 0
3, 241841, Note_on_c, 0, 57, 0
3, 241882, Control_c, 0, 64, 0
3, 241906, Note_on_c, 0, 77, 94
3, 241919, Note_on_c, 0, 50, 56
3, 242074, Note_on_c, 0, 50, 0
3, 242093, Control_c, 0, 64, 127
3, 242572, Note_on_c, 0, 77, 0
3, 242597, Note_on_c, 0, 74, 65
3, 242599, Note_on_c, 0, 59, 40
3, 242623, Note_on_c, 0, 64, 49
3, 242635, Note_on_c, 0, 53, 40
3, 242741, Control_c, 0, 64, 0
3, 242954, Control_c, 0, 64, 127
3, 243958, Note_on_c, 0, 64, 0
3, 244010, Note_on_c, 0, 59, 0
3, 244081, Note_on_c, 0, 53, 0
3, 244497, Note_on_c, 0, 74, 0
3, 244525, Note_on_c, 0, 72, 47
3, 244639, Note_on_c, 0, 72, 0
3, 244776, Control_c, 0, 64, 0
3, 244870, Note_on_c, 0, 38, 54
3, 244887, Note_on_c, 0, 74, 79
3, 244959, Control_c, 0, 64, 127
3, 244995, Note_on_c, 0, 38, 0
3, 245199, Control_c, 0, 64, 0
3, 245240, Control_c, 0, 64, 127
3, 245504, Note_on_c, 0, 72, 81
3, 245554, Note_on_c, 0, 74, 0
3, 245774, Note_on_c, 0, 72, 0
3, 245879, Note_on_c, 0, 74, 103
3, 245889, Note_on_c, 0, 60, 73
3, 245891, Note_on_c, 0, 65, 81
3, 245896, Note_on_c, 0, 54, 77
3, 245947, Control_c, 0, 64, 0
3, 246200, Control_c, 0, 64, 127
3, 246393, Note_on_c, 0, 74, 0
3, 246492, Note_on_c, 0, 74, 80
3, 246833, Note_on_c, 0, 74, 0
3, 246835, Note_on_c, 0, 65, 0
3, 246895, Note_on_c, 0, 60, 0
3, 246903, Note_on_c, 0, 72, 67
3, 246952, Note_on_c, 0, 54, 0
3, 247521, Note_on_c, 0, 45, 30
3, 247585, Note_on_c, 0, 45, 0
3, 247723, Note_on_c, 0, 72, 0
3, 247739, Control_c, 0, 64, 0
3, 247794, Note_on_c, 0, 50, 27
3, 247800, Note_on_c, 0, 69, 69
3, 247813, Note_on_c, 0, 36, 34
3, 247820, Note_on_c, 0, 38, 33
3, 247876, Note_on_c, 0, 36, 0
3, 247929, Note_on_c, 0, 38, 0
3, 247937, Control_c, 0, 64, 127
3, 248045, Note_on_c, 0, 50, 0
3, 248673, Note_on_c, 0, 61, 47
3, 248679, Note_on_c, 0, 55, 66
3, 248688, Note_on_c, 0, 66, 86
3, 248755, Control_c, 0, 64, 0
3, 249050, Control_c, 0, 64, 127
3, 249626, Note_on_c, 0, 66, 0
3, 249687, Note_on_c, 0, 55, 0
3, 249688, Note_on_c, 0, 61, 0
3, 249975, Note_on_c, 0, 69, 0
3, 250533, Control_c, 0, 64, 0
3, 250567, Note_on_c, 0, 64, 68
3, 250572, Note_on_c, 0, 69, 42
3, 250575, Note_on_c, 0, 60, 63
3, 250581, Note_on_c, 0, 57, 62
3, 250585, Note_on_c, 0, 65, 66
3, 250671, Note_on_c, 0, 60, 0
3, 250689, Note_on_c, 0, 64, 0
3, 250702, Note_on_c, 0, 65, 0
3, 250727, Note_on_c, 0, 69, 0
3, 250972, Note_on_c, 0, 57, 0
3, 251072, Control_c, 0, 64, 127
3, 251141, Note_on_c, 0, 50, 38
3, 251468, Note_on_c, 0, 50, 0
3, 251497, Control_c, 0, 64, 0
3, 251541, Note_on_c, 0, 57, 50
3, 251554, Note_on_c, 0, 69, 34
3, 251556, Note_on_c, 0, 62, 51
3, 251564, Note_on_c, 0, 65, 50
3, 251573, Note_on_c, 0, 48, 35
3, 251751, Control_c, 0, 64, 127
3, 252304, Note_on_c, 0, 57, 0
3, 252358, Note_on_c, 0, 62, 0
3, 252401, Note_on_c, 0, 69, 0
3, 252411, Note_on_c, 0, 48, 0
3, 252449, Note_on_c, 0, 65, 0
3, 252513, Control_c, 0, 64, 0
3, 252536, Note_on_c, 0, 47, 61
3, 252549, Note_on_c, 0, 67, 67
3, 252558, Note_on_c, 0, 62, 73
3, 252562, Note_on_c, 0, 57, 67
3, 252767, Control_c, 0, 64, 127
3, 252973, Note_on_c, 0, 47, 0
3, 252976, Note_on_c, 0, 57, 0
3, 253101, Note_on_c, 0, 67, 0
3, 253212, Note_on_c, 0, 62, 0
3, 253459, Control_c, 0, 64, 0
3, 253504, Note_on_c, 0, 46, 55
3, 253523, Note_on_c, 0, 65, 96
3, 253525, Note_on_c, 0, 56, 83
3, 253526, Note_on_c, 0, 62, 108
3, 253754, Control_c, 0, 64, 127
3, 254098, Note_on_c, 0, 62, 0
3, 254113, Note_on_c, 0, 56, 0
3, 254287, Note_on_c, 0, 65, 0
3, 254361, Note_on_c, 0, 46, 0
3, 254489, Control_c, 0, 64, 0
3, 254502, Note_on_c, 0, 62, 77
3, 254505, Note_on_c, 0, 60, 72
3, 254510, Note_on_c, 0, 55, 69
3, 254523, Note_on_c, 0, 45, 70
3, 254813, Control_c, 0, 64, 127
3, 255033, Note_on_c, 0, 55, 0
3, 255034, Note_on_c, 0, 62, 0
3, 255082, Note_on_c, 0, 60, 0
3, 255126, Note_on_c, 0, 45, 0
3, 255420, Control_c, 0, 64, 0
3, 255426, Note_on_c, 0, 54, 53
3, 255437, Note_on_c, 0, 60, 54
3, 255447, Note_on_c, 0, 58, 65
3, 255451, Note_on_c, 0, 44, 51
3, 255457, Note_on_c, 0, 51, 48
3, 255717, Control_c, 0, 64, 127
3, 255993, Note_on_c, 0, 54, 0
3, 255995, Note_on_c, 0, 60, 0
3, 256000, Note_on_c, 0, 44, 0
3, 256009, Note_on_c, 0, 51, 0
3, 256224, Note_on_c, 0, 58, 0
3, 256296, Control_c, 0, 64, 0
3, 256399, Note_on_c, 0, 50, 55
3, 256403, Note_on_c, 0, 43, 51
3, 256406, Note_on_c, 0, 59, 66
3, 256432, Note_on_c, 0, 53, 54
3, 256521, Control_c, 0, 64, 127
3, 256682, Note_on_c, 0, 50, 0
3, 256701, Note_on_c, 0, 43, 0
3, 256725, Note_on_c, 0, 53, 0
3, 256794, Note_on_c, 0, 59, 0
3, 256903, Note_on_c, 0, 49, 21
3, 256974, Note_on_c, 0, 49, 0
3, 257312, Control_c, 0, 64, 0
3, 257349, Note_on_c, 0, 41, 64
3, 257353, Note_on_c, 0, 69, 71
3, 257355, Note_on_c, 0, 63, 81
3, 257356, Note_on_c, 0, 51, 71
3, 257360, Note_on_c, 0, 57, 85
3, 257362, Note_on_c, 0, 65, 79
3, 257611, Control_c, 0, 64, 127
3, 257676, Note_on_c, 0, 69, 0
3, 257783, Note_on_c, 0, 65, 0
3, 257825, Note_on_c, 0, 57, 0
3, 257864, Note_on_c, 0, 41, 0
3, 257866, Note_on_c, 0, 63, 0
3, 257869, Note_on_c, 0, 67, 69
3, 257931, Note_on_c, 0, 51, 0
3, 258170, Note_on_c, 0, 67, 0
3, 258260, Control_c, 0, 64, 0
3, 258311, Note_on_c, 0, 61, 37
3, 258315, Note_on_c, 0, 55, 53
3, 258321, Note_on_c, 0, 65, 59
3, 258328, Note_on_c, 0, 39, 56
3, 258333, Note_on_c, 0, 46, 50
3, 258529, Control_c, 0, 64, 127
3, 258630, Note_on_c, 0, 39, 0
3, 258701, Note_on_c, 0, 65, 0
3, 258739, Note_on_c, 0, 61, 0
3, 258751, Note_on_c, 0, 55, 0
3, 258761, Note_on_c, 0, 46, 0
3, 259220, Control_c, 0, 64, 0
3, 259222, Note_on_c, 0, 38, 83
3, 259586, Note_on_c, 0, 38, 0
3, 259674, Note_on_c, 0, 45, 60
3, 259798, Note_on_c, 0, 45, 0
3, 260109, Note_on_c, 0, 64, 48
3, 260116, Note_on_c, 0, 57, 47
3, 260152, Note_on_c, 0, 53, 18
3, 260157, Note_on_c, 0, 60, 34
3, 260458, Note_on_c, 0, 60, 0
3, 260476, Note_on_c, 0, 64, 0
3, 260500, Note_on_c, 0, 53, 0
3, 260513, Note_on_c, 0, 57, 0
3, 260576, Note_on_c, 0, 45, 55
3, 260692, Note_on_c, 0, 45, 0
3, 261031, Note_on_c, 0, 64, 45
3, 261039, Note_on_c, 0, 57, 55
3, 261044, Note_on_c, 0, 53, 34
3, 261062, Note_on_c, 0, 60, 46
3, 261493, Note_on_c, 0, 57, 0
3, 261501, Note_on_c, 0, 53, 0
3, 261508, Note_on_c, 0, 60, 0
3, 261539, Note_on_c, 0, 45, 41
3, 261662, Control_c, 0, 64, 127
3, 261666, Note_on_c, 0, 64, 0
3, 261825, Note_on_c, 0, 45, 0
3, 261845, Control_c, 0, 64, 0
3, 262471, Note_on_c, 0, 64, 48
3, 262484, Note_on_c, 0, 59, 46
3, 262492, Note_on_c, 0, 53, 32
3, 262750, Note_on_c, 0, 53, 0
3, 262777, Note_on_c, 0, 64, 0
3, 262828, Note_on_c, 0, 59, 0
3, 262964, Note_on_c, 0, 59, 47
3, 262968, Note_on_c, 0, 64, 43
3, 262994, Note_on_c, 0, 53, 22
3, 263448, Note_on_c, 0, 38, 53
3, 263938, Note_on_c, 0, 47, 80
3, 264330, Note_on_c, 0, 47, 0
3, 264400, Control_c, 0, 64, 127
3, 264407, Note_on_c, 0, 47, 53
3, 264513, Control_c, 0, 64, 0
3, 264527, Control_c, 0, 64, 127
3, 264696, Note_on_c, 0, 38, 0
3, 264697, Note_on_c, 0, 53, 0
3, 264752, Control_c, 0, 64, 0
3, 264807, Note_on_c, 0, 59, 0
3, 264828, Note_on_c, 0, 64, 0
3, 264841, Note_on_c, 0, 47, 0
3, 264886, Note_on_c, 0, 38, 80
3, 265368, Note_on_c, 0, 38, 0
3, 265415, Control_c, 0, 64, 127
3, 265420, Note_on_c, 0, 45, 61
3, 265715, Note_on_c, 0, 45, 0
3, 265862, Note_on_c, 0, 64, 46
3, 265873, Note_on_c, 0, 57, 50
3, 265907, Note_on_c, 0, 60, 40
3, 266007, Note_on_c, 0, 57, 0
3, 266105, Note_on_c, 0, 60, 0
3, 266149, Note_on_c, 0, 64, 0
3, 266394, Note_on_c, 0, 57, 56
3, 266890, Note_on_c, 0, 69, 52
3, 267157, Note_on_c, 0, 57, 0
3, 267358, Note_on_c, 0, 76, 49
3, 267473, Note_on_c, 0, 69, 0
3, 267694, Note_on_c, 0, 76, 0
3, 267787, Control_c, 0, 64, 0
3, 267822, Note_on_c, 0, 67, 37
3, 267841, Note_on_c, 0, 74, 47
3, 267868, Note_on_c, 0, 59, 24
3, 267872, Note_on_c, 0, 50, 30
3, 268124, Control_c, 0, 64, 127
3, 268213, Note_on_c, 0, 74, 0
3, 268238, Note_on_c, 0, 59, 0
3, 268264, Note_on_c, 0, 67, 0
3, 268345, Note_on_c, 0, 59, 20
3, 268789, Note_on_c, 0, 67, 51
3, 268821, Note_on_c, 0, 62, 36
3, 269148, Note_on_c, 0, 67, 0
3, 269282, Note_on_c, 0, 71, 64
3, 269390, Note_on_c, 0, 71, 0
3, 269766, Note_on_c, 0, 86, 90
3, 270039, Note_on_c, 0, 59, 0
3, 270070, Note_on_c, 0, 86, 0
3, 270135, Note_on_c, 0, 50, 0
3, 270249, Note_on_c, 0, 89, 96
3, 270607, Note_on_c, 0, 89, 0
3, 270694, Note_on_c, 0, 62, 0
3, 270708, Control_c, 0, 64, 0
3, 270711, Note_on_c, 0, 86, 96
3, 270731, Note_on_c, 0, 50, 58
3, 271033, Control_c, 0, 64, 127
3, 271201, Note_on_c, 0, 57, 49
3, 271326, Note_on_c, 0, 86, 0
3, 271692, Note_on_c, 0, 89, 84
3, 271709, Note_on_c, 0, 62, 42
3, 271735, Note_on_c, 0, 77, 74
3, 271943, Note_on_c, 0, 89, 0
3, 271999, Note_on_c, 0, 77, 0
3, 272053, Note_on_c, 0, 86, 57
3, 272132, Note_on_c, 0, 62, 0
3, 272237, Note_on_c, 0, 86, 0
3, 272386, Note_on_c, 0, 89, 80
3, 272408, Note_on_c, 0, 77, 80
3, 272555, Note_on_c, 0, 62, 31
3, 272640, Note_on_c, 0, 77, 0
3, 272713, Note_on_c, 0, 89, 0
3, 272798, Note_on_c, 0, 86, 36
3, 272909, Note_on_c, 0, 86, 0
3, 273057, Note_on_c, 0, 89, 77
3, 273078, Note_on_c, 0, 77, 76
3, 273231, Note_on_c, 0, 50, 0
3, 273243, Note_on_c, 0, 77, 0
3, 273275, Note_on_c, 0, 89, 0
3, 273372, Note_on_c, 0, 86, 58
3, 273575, Note_on_c, 0, 86, 0
3, 273628, Control_c, 0, 64, 0
3, 273664, Note_on_c, 0, 50, 48
3, 273680, Note_on_c, 0, 89, 79
3, 273697, Note_on_c, 0, 77, 74
3, 273725, Note_on_c, 0, 62, 0
3, 273755, Note_on_c, 0, 57, 0
3, 273792, Note_on_c, 0, 50, 0
3, 273813, Control_c, 0, 64, 127
3, 274207, Note_on_c, 0, 89, 0
3, 274218, Note_on_c, 0, 86, 68
3, 274239, Note_on_c, 0, 59, 47
3, 274252, Note_on_c, 0, 64, 55
3, 274273, Note_on_c, 0, 53, 41
3, 274348, Control_c, 0, 64, 0
3, 274418, Note_on_c, 0, 77, 0
3, 274476, Control_c, 0, 64, 127
3, 274538, Note_on_c, 0, 86, 0
3, 274574, Note_on_c, 0, 77, 24
3, 274643, Note_on_c, 0, 77, 0
3, 274986, Note_on_c, 0, 86, 74
3, 275324, Note_on_c, 0, 86, 0
3, 275577, Note_on_c, 0, 86, 74
3, 275788, Note_on_c, 0, 64, 0
3, 275861, Note_on_c, 0, 59, 0
3, 275925, Note_on_c, 0, 53, 0
3, 276158, Note_on_c, 0, 86, 0
3, 276164, Note_on_c, 0, 77, 57
3, 276578, Control_c, 0, 64, 0
3, 276584, Note_on_c, 0, 38, 54
3, 276717, Note_on_c, 0, 38, 0
3, 276733, Control_c, 0, 64, 127
3, 276986, Note_on_c, 0, 77, 0
3, 277258, Note_on_c, 0, 65, 85
3, 277258, Note_on_c, 0, 89, 85
3, 277261, Note_on_c, 0, 58, 75
3, 277262, Note_on_c, 0, 60, 68
3, 277264, Note_on_c, 0, 84, 88
3, 277265, Note_on_c, 0, 77, 94
3, 277278, Note_on_c, 0, 54, 72
3, 277937, Note_on_c, 0, 89, 0
3, 277999, Note_on_c, 0, 84, 0
3, 278068, Note_on_c, 0, 77, 0
3, 278086, Note_on_c, 0, 60, 0
3, 278097, Note_on_c, 0, 58, 0
3, 278145, Note_on_c, 0, 65, 0
3, 278199, Note_on_c, 0, 54, 0
3, 278527, Control_c, 0, 64, 0
3, 278569, Note_on_c, 0, 80, 75
3, 278572, Note_on_c, 0, 86, 75
3, 278577, Note_on_c, 0, 74, 72
3, 278584, Note_on_c, 0, 54, 59
3, 278586, Note_on_c, 0, 65, 69
3, 278597, Note_on_c, 0, 58, 61
3, 278599, Note_on_c, 0, 60, 54
3, 278724, Note_on_c, 0, 80, 0
3, 278738, Note_on_c, 0, 81, 48
3, 278766, Control_c, 0, 64, 127
3, 278935, Note_on_c, 0, 81, 0
3, 278966, Note_on_c, 0, 86, 0
3, 279032, Note_on_c, 0, 74, 0
3, 279118, Note_on_c, 0, 60, 0
3, 279194, Note_on_c, 0, 65, 0
3, 279265, Note_on_c, 0, 54, 0
3, 279376, Note_on_c, 0, 58, 0
3, 279457, Control_c, 0, 64, 0
3, 279500, Note_on_c, 0, 76, 54
3, 279501, Note_on_c, 0, 81, 54
3, 279512, Note_on_c, 0, 61, 45
3, 279514, Note_on_c, 0, 69, 43
3, 279517, Note_on_c, 0, 66, 61
3, 279533, Note_on_c, 0, 55, 38
3, 279717, Control_c, 0, 64, 127
3, 280018, Note_on_c, 0, 76, 0
3, 280111, Note_on_c, 0, 69, 0
3, 280112, Note_on_c, 0, 66, 0
3, 280194, Note_on_c, 0, 81, 0
3, 280435, Control_c, 0, 64, 0
3, 280436, Note_on_c, 0, 81, 60
3, 280447, Note_on_c, 0, 65, 49
3, 280449, Note_on_c, 0, 73, 39
3, 280451, Note_on_c, 0, 69, 43
3, 280651, Control_c, 0, 64, 127
3, 281277, Note_on_c, 0, 81, 0
3, 281422, Note_on_c, 0, 65, 0
3, 281464, Note_on_c, 0, 73, 0
3, 281465, Note_on_c, 0, 69, 0
3, 281541, Note_on_c, 0, 61, 0
3, 281599, Note_on_c, 0, 55, 0
3, 282175, Control_c, 0, 64, 0
3, 282238, Note_on_c, 0, 69, 42
3, 282240, Note_on_c, 0, 65, 46
3, 282245, Note_on_c, 0, 62, 46
3, 282265, Note_on_c, 0, 57, 33
3, 282697, Control_c, 0, 64, 127
3, 282768, Note_on_c, 0, 50, 41
3, 282773, Note_on_c, 0, 62, 0
3, 282890, Note_on_c, 0, 65, 0
3, 282955, Note_on_c, 0, 57, 0
3, 282973, Note_on_c, 0, 50, 0
3, 283122, Note_on_c, 0, 69, 0
3, 283246, Control_c, 0, 64, 0
3, 283265, Note_on_c, 0, 69, 45
3, 283284, Note_on_c, 0, 57, 59
3, 283287, Note_on_c, 0, 48, 48
3, 283290, Note_on_c, 0, 62, 55
3, 283529, Control_c, 0, 64, 127
3, 283731, Note_on_c, 0, 57, 0
3, 283860, Note_on_c, 0, 62, 0
3, 283864, Note_on_c, 0, 48, 0
3, 283888, Note_on_c, 0, 69, 0
3, 284122, Control_c, 0, 64, 0
3, 284198, Note_on_c, 0, 57, 54
3, 284201, Note_on_c, 0, 47, 47
3, 284205, Note_on_c, 0, 62, 49
3, 284212, Note_on_c, 0, 67, 36
3, 284418, Control_c, 0, 64, 127
3, 284754, Note_on_c, 0, 57, 0
3, 284784, Note_on_c, 0, 47, 0
3, 284870, Note_on_c, 0, 62, 0
3, 285018, Note_on_c, 0, 67, 0
3, 285111, Control_c, 0, 64, 0
3, 285150, Note_on_c, 0, 46, 37
3, 285157, Note_on_c, 0, 62, 49
3, 285161, Note_on_c, 0, 65, 49
3, 285180, Note_on_c, 0, 56, 23
3, 285351, Control_c, 0, 64, 127
3, 285658, Note_on_c, 0, 56, 0
3, 285684, Note_on_c, 0, 62, 0
3, 285793, Note_on_c, 0, 46, 0
3, 285872, Note_on_c, 0, 65, 0
3, 286013, Control_c, 0, 64, 0
3, 286088, Note_on_c, 0, 45, 40
3, 286096, Note_on_c, 0, 62, 37
3, 286107, Note_on_c, 0, 55, 26
3, 286117, Note_on_c, 0, 60, 37
3, 286234, Note_on_c, 0, 62, 0
3, 286238, Control_c, 0, 64, 127
3, 286376, Note_on_c, 0, 60, 0
3, 286607, Note_on_c, 0, 74, 68
3, 286676, Note_on_c, 0, 45, 0
3, 286678, Note_on_c, 0, 55, 0
3, 286858, Note_on_c, 0, 74, 0
3, 287044, Control_c, 0, 64, 0
3, 287101, Note_on_c, 0, 54, 43
3, 287103, Note_on_c, 0, 44, 43
3, 287121, Note_on_c, 0, 72, 35
3, 287189, Note_on_c, 0, 72, 0
3, 287285, Control_c, 0, 64, 127
3, 287834, Note_on_c, 0, 54, 0
3, 287934, Control_c, 0, 64, 0
3, 287959, Note_on_c, 0, 44, 0
3, 288024, Note_on_c, 0, 64, 55
3, 288028, Note_on_c, 0, 69, 47
3, 288032, Note_on_c, 0, 59, 47
3, 288042, Note_on_c, 0, 43, 39
3, 288060, Note_on_c, 0, 53, 29
3, 288172, Control_c, 0, 64, 127
3, 288511, Note_on_c, 0, 43, 0
3, 288526, Note_on_c, 0, 59, 0
3, 288528, Note_on_c, 0, 53, 0
3, 288549, Note_on_c, 0, 64, 0
3, 288663, Note_on_c, 0, 69, 0
3, 288922, Control_c, 0, 64, 0
3, 288997, Note_on_c, 0, 67, 50
3, 289006, Note_on_c, 0, 41, 44
3, 289014, Note_on_c, 0, 57, 40
3, 289021, Note_on_c, 0, 51, 33
3, 289026, Note_on_c, 0, 63, 37
3, 289161, Control_c, 0, 64, 127
3, 289233, Note_on_c, 0, 41, 0
3, 289316, Note_on_c, 0, 67, 0
3, 289330, Note_on_c, 0, 51, 0
3, 289458, Note_on_c, 0, 63, 0
3, 289461, Note_on_c, 0, 57, 0
3, 289823, Control_c, 0, 64, 0
3, 289894, Note_on_c, 0, 39, 47
3, 289933, Note_on_c, 0, 61, 38
3, 289950, Note_on_c, 0, 65, 44
3, 290048, Control_c, 0, 64, 127
3, 290181, Note_on_c, 0, 65, 0
3, 290227, Note_on_c, 0, 39, 0
3, 290268, Note_on_c, 0, 61, 0
3, 290826, Control_c, 0, 64, 0
3, 290873, Note_on_c, 0, 53, 31
3, 290876, Note_on_c, 0, 57, 42
3, 290895, Note_on_c, 0, 62, 44
3, 290902, Note_on_c, 0, 60, 36
3, 291176, Note_on_c, 0, 44, 32
3, 291385, Note_on_c, 0, 44, 0
3, 291470, Note_on_c, 0, 45, 44
3, 291808, Note_on_c, 0, 45, 0
3, 291845, Note_on_c, 0, 38, 53
3, 291870, Control_c, 0, 64, 127
3, 292298, Note_on_c, 0, 53, 0
3, 292305, Note_on_c, 0, 57, 0
3, 292336, Note_on_c, 0, 60, 0
3, 292835, Note_on_c, 0, 57, 34
3, 292849, Note_on_c, 0, 53, 20
3, 292873, Note_on_c, 0, 60, 29
3, 293664, Note_on_c, 0, 53, 0
3, 293673, Note_on_c, 0, 38, 0
3, 293737, Note_on_c, 0, 57, 0
3, 294144, Note_on_c, 0, 60, 0
3, 294234, Note_on_c, 0, 38, 54
3, 294416, Note_on_c, 0, 62, 0
3, 294692, Control_c, 0, 64, 0
3, 294737, Note_on_c, 0, 59, 71
3, 294738, Note_on_c, 0, 62, 74
3, 294741, Note_on_c, 0, 55, 68
3, 295248, Note_on_c, 0, 50, 90
3, 295635, Note_on_c, 0, 50, 0
3, 295703, Note_on_c, 0, 50, 80
3, 296006, Control_c, 0, 64, 127
3, 296170, Note_on_c, 0, 45, 71
3, 296235, Note_on_c, 0, 38, 0
3, 296438, Note_on_c, 0, 45, 0
3, 296613, Control_c, 0, 64, 0
3, 296641, Note_on_c, 0, 38, 92
3, 296663, Note_on_c, 0, 59, 0
3, 296694, Note_on_c, 0, 55, 0
3, 297153, Note_on_c, 0, 62, 0
3, 297162, Note_on_c, 0, 45, 36
3, 297359, Note_on_c, 0, 45, 0
3, 297594, Note_on_c, 0, 62, 71
3, 297597, Note_on_c, 0, 57, 70
3, 297609, Note_on_c, 0, 53, 52
3, 298037, Control_c, 0, 64, 127
3, 298898, Note_on_c, 0, 38, 0
3, 299131, Note_on_c, 0, 57, 0
3, 299237, Note_on_c, 0, 53, 0
3, 299519, Control_c, 0, 64, 0
3, 299568, Note_on_c, 0, 38, 62
3, 299888, Control_c, 0, 64, 127
3, 299990, Note_on_c, 0, 38, 0
3, 300086, Note_on_c, 0, 38, 47
3, 300211, Note_on_c, 0, 50, 0
3, 300251, Note_on_c, 0, 62, 0
3, 300437, Control_c, 0, 64, 0
3, 300565, Note_on_c, 0, 62, 46
3, 300575, Note_on_c, 0, 55, 40
3, 300579, Note_on_c, 0, 59, 45
3, 300582, Note_on_c, 0, 50, 40
3, 300634, Control_c, 0, 64, 127
3, 301172, Note_on_c, 0, 55, 0
3, 301173, Note_on_c, 0, 38, 0
3, 301262, Note_on_c, 0, 50, 0
3, 301517, Note_on_c, 0, 59, 0
3, 301594, Note_on_c, 0, 62, 0
3, 302257, Control_c, 0, 64, 0
3, 302344, Note_on_c, 0, 39, 51
3, 302370, Note_on_c, 0, 54, 35
3, 302484, Control_c, 0, 64, 127
3, 302544, Note_on_c, 0, 39, 0
3, 302668, Note_on_c, 0, 54, 0
3, 303341, Note_on_c, 0, 65, 43
3, 303360, Note_on_c, 0, 54, 23
3, 303361, Note_on_c, 0, 61, 26
3, 303381, Note_on_c, 0, 58, 43
3, 303386, Control_c, 0, 64, 0
3, 303668, Control_c, 0, 64, 127
3, 303812, Note_on_c, 0, 80, 69
3, 303997, Note_on_c, 0, 61, 0
3, 304035, Note_on_c, 0, 80, 0
3, 304054, Note_on_c, 0, 65, 0
3, 304100, Note_on_c, 0, 77, 35
3, 304169, Note_on_c, 0, 54, 0
3, 304178, Note_on_c, 0, 77, 0
3, 304261, Note_on_c, 0, 58, 0
3, 304317, Control_c, 0, 64, 0
3, 304340, Note_on_c, 0, 65, 51
3, 304352, Note_on_c, 0, 78, 57
3, 304371, Note_on_c, 0, 54, 26
3, 304373, Note_on_c, 0, 60, 34
3, 304487, Note_on_c, 0, 65, 0
3, 304520, Note_on_c, 0, 78, 0
3, 304530, Control_c, 0, 64, 127
3, 304538, Note_on_c, 0, 60, 0
3, 304600, Note_on_c, 0, 54, 0
3, 304611, Note_on_c, 0, 80, 67
3, 304785, Note_on_c, 0, 80, 0
3, 304835, Note_on_c, 0, 82, 55
3, 305017, Note_on_c, 0, 82, 0
3, 305100, Note_on_c, 0, 83, 64
3, 305255, Note_on_c, 0, 83, 0
3, 305263, Control_c, 0, 64, 0
3, 305300, Note_on_c, 0, 37, 47
3, 305307, Note_on_c, 0, 49, 31
3, 305360, Note_on_c, 0, 84, 52
3, 305498, Note_on_c, 0, 37, 0
3, 305518, Control_c, 0, 64, 127
3, 305566, Note_on_c, 0, 84, 0
3, 305577, Note_on_c, 0, 49, 0
3, 305641, Note_on_c, 0, 85, 70
3, 305807, Note_on_c, 0, 85, 0
3, 305860, Note_on_c, 0, 85, 56
3, 306042, Note_on_c, 0, 85, 0
3, 306104, Note_on_c, 0, 85, 57
3, 306307, Control_c, 0, 64, 0
3, 306314, Note_on_c, 0, 84, 60
3, 306329, Note_on_c, 0, 63, 37
3, 306333, Note_on_c, 0, 56, 44
3, 306336, Note_on_c, 0, 60, 32
3, 306394, Note_on_c, 0, 53, 25
3, 306453, Note_on_c, 0, 84, 0
3, 306484, Note_on_c, 0, 85, 0
3, 306521, Control_c, 0, 64, 127
3, 306588, Note_on_c, 0, 85, 67
3, 306742, Note_on_c, 0, 85, 0
3, 306768, Note_on_c, 0, 63, 0
3, 306816, Note_on_c, 0, 85, 43
3, 306908, Note_on_c, 0, 60, 0
3, 306916, Note_on_c, 0, 56, 0
3, 306998, Note_on_c, 0, 85, 0
3, 307044, Note_on_c, 0, 85, 49
3, 307178, Note_on_c, 0, 63, 31
3, 307211, Note_on_c, 0, 60, 25
3, 307223, Note_on_c, 0, 56, 31
3, 307243, Note_on_c, 0, 85, 0
3, 307251, Note_on_c, 0, 84, 61
3, 307274, Note_on_c, 0, 63, 0
3, 307402, Note_on_c, 0, 84, 0
3, 307495, Note_on_c, 0, 85, 76
3, 307496, Note_on_c, 0, 60, 0
3, 307519, Note_on_c, 0, 53, 0
3, 307667, Note_on_c, 0, 85, 0
3, 307671, Note_on_c, 0, 56, 0
3, 307715, Note_on_c, 0, 84, 61
3, 307974, Note_on_c, 0, 84, 0
3, 308133, Note_on_c, 0, 83, 72
3, 308164, Note_on_c, 0, 62, 43
3, 308165, Note_on_c, 0, 59, 34
3, 308172, Note_on_c, 0, 52, 32
3, 308185, Control_c, 0, 64, 0
3, 308188, Note_on_c, 0, 55, 33
3, 308468, Control_c, 0, 64, 127
3, 308704, Note_on_c, 0, 79, 40
3, 308713, Note_on_c, 0, 83, 0
3, 308723, Note_on_c, 0, 62, 0
3, 308768, Note_on_c, 0, 55, 0
3, 308776, Note_on_c, 0, 59, 0
3, 308900, Note_on_c, 0, 79, 0
3, 309109, Note_on_c, 0, 76, 62
3, 309128, Note_on_c, 0, 62, 26
3, 309152, Note_on_c, 0, 59, 19
3, 309158, Note_on_c, 0, 55, 18
3, 309335, Note_on_c, 0, 52, 0
3, 309337, Note_on_c, 0, 55, 0
3, 309354, Note_on_c, 0, 59, 0
3, 309442, Note_on_c, 0, 76, 0
3, 309458, Note_on_c, 0, 62, 0
3, 309583, Note_on_c, 0, 69, 35
3, 309760, Note_on_c, 0, 69, 0
3, 309977, Control_c, 0, 64, 0
3, 310005, Note_on_c, 0, 75, 63
3, 310014, Note_on_c, 0, 73, 59
3, 310022, Note_on_c, 0, 61, 51
3, 310029, Note_on_c, 0, 65, 57
3, 310032, Note_on_c, 0, 55, 47
3, 310331, Control_c, 0, 64, 127
3, 310464, Note_on_c, 0, 73, 0
3, 310480, Note_on_c, 0, 65, 0
3, 310498, Note_on_c, 0, 75, 0
3, 310511, Note_on_c, 0, 76, 66
3, 310533, Note_on_c, 0, 74, 64
3, 310538, Note_on_c, 0, 55, 0
3, 310550, Note_on_c, 0, 61, 0
3, 310756, Note_on_c, 0, 76, 0
3, 310767, Note_on_c, 0, 74, 0
3, 310936, Control_c, 0, 64, 0
3, 311001, Note_on_c, 0, 77, 64
3, 311004, Note_on_c, 0, 72, 60
3, 311021, Note_on_c, 0, 69, 54
3, 311267, Note_on_c, 0, 77, 0
3, 311271, Note_on_c, 0, 72, 0
3, 311320, Note_on_c, 0, 64, 60
3, 311333, Note_on_c, 0, 69, 0
3, 311580, Note_on_c, 0, 64, 0
3, 311613, Note_on_c, 0, 63, 62
3, 311899, Note_on_c, 0, 63, 0
3, 311934, Note_on_c, 0, 76, 54
3, 311946, Note_on_c, 0, 69, 53
3, 311947, Note_on_c, 0, 65, 42
3, 311958, Note_on_c, 0, 62, 48
3, 312148, Note_on_c, 0, 76, 0
3, 312160, Note_on_c, 0, 69, 0
3, 312192, Note_on_c, 0, 62, 0
3, 312216, Note_on_c, 0, 65, 0
3, 312243, Note_on_c, 0, 61, 37
3, 312495, Note_on_c, 0, 61, 0
3, 312554, Note_on_c, 0, 72, 49
3, 312557, Note_on_c, 0, 65, 61
3, 312561, Note_on_c, 0, 60, 49
3, 312814, Note_on_c, 0, 65, 0
3, 312837, Note_on_c, 0, 60, 0
3, 312864, Note_on_c, 0, 72, 0
3, 312906, Note_on_c, 0, 65, 39
3, 312917, Note_on_c, 0, 62, 53
3, 312928, Note_on_c, 0, 69, 46
3, 312941, Control_c, 0, 64, 127
3, 312957, Note_on_c, 0, 57, 56
3, 313380, Note_on_c, 0, 62, 0
3, 313386, Note_on_c, 0, 57, 0
3, 313393, Note_on_c, 0, 69, 0
3, 313434, Note_on_c, 0, 53, 41
3, 313465, Note_on_c, 0, 65, 0
3, 313507, Note_on_c, 0, 53, 0
3, 313845, Control_c, 0, 64, 0
3, 313930, Note_on_c, 0, 42, 69
3, 314042, Control_c, 0, 64, 127
3, 314058, Note_on_c, 0, 42, 0
3, 315398, Note_on_c, 0, 61, 62
3, 315402, Note_on_c, 0, 73, 63
3, 315416, Note_on_c, 0, 69, 73
3, 315426, Note_on_c, 0, 64, 80
3, 315428, Note_on_c, 0, 59, 46
3, 315437, Note_on_c, 0, 57, 43
3, 315512, Note_on_c, 0, 57, 0
3, 315581, Note_on_c, 0, 59, 0
3, 315588, Note_on_c, 0, 61, 0
3, 315599, Note_on_c, 0, 64, 0
3, 315639, Note_on_c, 0, 69, 0
3, 315736, Note_on_c, 0, 73, 0
3, 316289, Note_on_c, 0, 73, 45
3, 316296, Note_on_c, 0, 66, 74
3, 316305, Note_on_c, 0, 59, 55
3, 316309, Note_on_c, 0, 63, 59
3, 316313, Note_on_c, 0, 54, 42
3, 316430, Note_on_c, 0, 54, 0
3, 316433, Note_on_c, 0, 59, 0
3, 316541, Note_on_c, 0, 63, 0
3, 316616, Note_on_c, 0, 66, 0
3, 316651, Note_on_c, 0, 73, 0
3, 316778, Control_c, 0, 64, 0
3, 316861, Note_on_c, 0, 74, 66
3, 316871, Note_on_c, 0, 52, 57
3, 316876, Note_on_c, 0, 67, 64
3, 316888, Note_on_c, 0, 62, 57
3, 317047, Control_c, 0, 64, 127
3, 317192, Note_on_c, 0, 62, 0
3, 317288, Note_on_c, 0, 67, 0
3, 317348, Note_on_c, 0, 74, 0
3, 317348, Note_on_c, 0, 59, 49
3, 317838, Note_on_c, 0, 71, 63
3, 317845, Note_on_c, 0, 79, 57
3, 317855, Note_on_c, 0, 67, 55
3, 317872, Note_on_c, 0, 62, 44
3, 318393, Note_on_c, 0, 79, 0
3, 318486, Note_on_c, 0, 71, 0
3, 318614, Note_on_c, 0, 67, 0
3, 318639, Note_on_c, 0, 62, 0
3, 318701, Note_on_c, 0, 59, 0
3, 319094, Control_c, 0, 64, 0
3, 319152, Note_on_c, 0, 57, 44
3, 319156, Note_on_c, 0, 52, 0
3, 319163, Note_on_c, 0, 69, 53
3, 319180, Note_on_c, 0, 58, 46
3, 319202, Note_on_c, 0, 62, 48
3, 319242, Note_on_c, 0, 64, 35
3, 319390, Note_on_c, 0, 62, 0
3, 319391, Note_on_c, 0, 64, 0
3, 319405, Note_on_c, 0, 69, 0
3, 319435, Note_on_c, 0, 57, 0
3, 319440, Note_on_c, 0, 58, 0
3, 319477, Note_on_c, 0, 55, 30
3, 319616, Control_c, 0, 64, 127
3, 319674, Note_on_c, 0, 55, 0
3, 319688, Note_on_c, 0, 58, 50
3, 319697, Note_on_c, 0, 62, 54
3, 319704, Note_on_c, 0, 69, 31
3, 319707, Note_on_c, 0, 57, 57
3, 319708, Note_on_c, 0, 64, 46
3, 319745, Note_on_c, 0, 62, 0
3, 319763, Note_on_c, 0, 64, 0
3, 319790, Note_on_c, 0, 69, 0
3, 319811, Note_on_c, 0, 58, 0
3, 319905, Note_on_c, 0, 57, 0
3, 320161, Note_on_c, 0, 72, 59
3, 320167, Note_on_c, 0, 60, 69
3, 320171, Note_on_c, 0, 65, 76
3, 320181, Note_on_c, 0, 61, 74
3, 320318, Note_on_c, 0, 60, 0
3, 320320, Note_on_c, 0, 72, 0
3, 320330, Note_on_c, 0, 65, 0
3, 320437, Note_on_c, 0, 61, 0
3, 320591, Control_c, 0, 64, 0
3, 320674, Note_on_c, 0, 57, 59
3, 320675, Note_on_c, 0, 69, 54
3, 320679, Note_on_c, 0, 58, 58
3, 320681, Note_on_c, 0, 61, 51
3, 320717, Note_on_c, 0, 64, 47
3, 320885, Control_c, 0, 64, 127
3, 321064, Note_on_c, 0, 57, 0
3, 321072, Note_on_c, 0, 58, 0
3, 321077, Note_on_c, 0, 69, 0
3, 321133, Note_on_c, 0, 61, 0
3, 321134, Note_on_c, 0, 64, 0
3, 321198, Note_on_c, 0, 67, 57
3, 321200, Note_on_c, 0, 61, 32
3, 321202, Note_on_c, 0, 58, 42
3, 321206, Note_on_c, 0, 55, 51
3, 321513, Note_on_c, 0, 58, 0
3, 321583, Note_on_c, 0, 55, 0
3, 321617, Note_on_c, 0, 61, 0
3, 321635, Note_on_c, 0, 67, 0
3, 321697, Note_on_c, 0, 65, 60
3, 322016, Note_on_c, 0, 65, 0
3, 322134, Note_on_c, 0, 45, 74
3, 322559, Note_on_c, 0, 45, 0
3, 322580, Control_c, 0, 64, 0
3, 322644, Note_on_c, 0, 38, 81
3, 323138, Note_on_c, 0, 45, 75
3, 323605, Note_on_c, 0, 52, 78
3, 323612, Note_on_c, 0, 64, 82
3, 323615, Note_on_c, 0, 57, 84
3, 323626, Note_on_c, 0, 60, 68
3, 323629, Note_on_c, 0, 53, 84
3, 324581, Note_on_c, 0, 52, 0
3, 324584, Note_on_c, 0, 38, 0
3, 324587, Note_on_c, 0, 53, 0
3, 324612, Note_on_c, 0, 57, 0
3, 324626, Note_on_c, 0, 60, 0
3, 324661, Note_on_c, 0, 45, 0
3, 324672, Control_c, 0, 64, 127
3, 324737, Note_on_c, 0, 64, 0
3, 324933, Note_on_c, 0, 62, 66
3, 324940, Note_on_c, 0, 53, 62
3, 324941, Note_on_c, 0, 57, 64
3, 325005, Note_on_c, 0, 53, 0
3, 325054, Note_on_c, 0, 57, 0
3, 325108, Note_on_c, 0, 62, 0
3, 325437, Note_on_c, 0, 61, 83
3, 325440, Note_on_c, 0, 68, 74
3, 325440, Control_c, 0, 64, 0
3, 325444, Note_on_c, 0, 58, 69
3, 325446, Note_on_c, 0, 65, 79
3, 325461, Note_on_c, 0, 54, 54
3, 325468, Note_on_c, 0, 56, 57
3, 326421, Control_c, 0, 64, 127
3, 326454, Note_on_c, 0, 56, 0
3, 326457, Note_on_c, 0, 58, 0
3, 326491, Note_on_c, 0, 54, 0
3, 326595, Note_on_c, 0, 61, 0
3, 326700, Note_on_c, 0, 65, 0
3, 326823, Note_on_c, 0, 68, 0
3, 327353, Control_c, 0, 64, 0
3, 327382, Note_on_c, 0, 54, 44
3, 327396, Note_on_c, 0, 65, 53
3, 327398, Note_on_c, 0, 68, 40
3, 327399, Note_on_c, 0, 44, 44
3, 327413, Note_on_c, 0, 60, 43
3, 327851, Note_on_c, 0, 65, 0
3, 327855, Note_on_c, 0, 60, 0
3, 327867, Note_on_c, 0, 54, 0
3, 327895, Note_on_c, 0, 44, 0
3, 328089, Note_on_c, 0, 68, 0
3, 328143, Control_c, 0, 64, 127
3, 328268, Control_c, 0, 64, 0
3, 328321, Note_on_c, 0, 59, 42
3, 328324, Note_on_c, 0, 70, 43
3, 328326, Note_on_c, 0, 63, 38
3, 328333, Note_on_c, 0, 67, 4
3, 328341, Note_on_c, 0, 43, 38
3, 328378, Note_on_c, 0, 53, 32
3, 328526, Control_c, 0, 64, 127
3, 328558, Note_on_c, 0, 59, 0
3, 328590, Note_on_c, 0, 43, 0
3, 328626, Note_on_c, 0, 67, 0
3, 328644, Note_on_c, 0, 63, 0
3, 328679, Note_on_c, 0, 53, 0
3, 328704, Note_on_c, 0, 70, 0
3, 329311, Note_on_c, 0, 82, 62
3, 329349, Note_on_c, 0, 63, 33
3, 329368, Note_on_c, 0, 75, 51
3, 329382, Note_on_c, 0, 79, 42
3, 329383, Note_on_c, 0, 59, 30
3, 329389, Note_on_c, 0, 53, 32
3, 329498, Note_on_c, 0, 71, 10
3, 330055, Note_on_c, 0, 79, 0
3, 330059, Note_on_c, 0, 75, 0
3, 330141, Note_on_c, 0, 71, 0
3, 330284, Note_on_c, 0, 71, 37
3, 330294, Note_on_c, 0, 75, 36
3, 330598, Note_on_c, 0, 82, 0
3, 330674, Note_on_c, 0, 53, 0
3, 330781, Note_on_c, 0, 59, 0
3, 330787, Note_on_c, 0, 63, 0
3, 330795, Note_on_c, 0, 75, 0
3, 330802, Note_on_c, 0, 71, 0
3, 331770, Note_on_c, 0, 71, 81
3, 331774, Note_on_c, 0, 68, 83
3, 331782, Note_on_c, 0, 64, 89
3, 331784, Note_on_c, 0, 61, 58
3, 331788, Control_c, 0, 64, 0
3, 331788, Note_on_c, 0, 59, 53
3, 331805, Note_on_c, 0, 57, 64
3, 332029, Control_c, 0, 64, 127
3, 332129, Note_on_c, 0, 71, 0
3, 332213, Note_on_c, 0, 61, 0
3, 332303, Note_on_c, 0, 64, 0
3, 332305, Note_on_c, 0, 57, 0
3, 332324, Note_on_c, 0, 71, 65
3, 332326, Note_on_c, 0, 59, 0
3, 332623, Note_on_c, 0, 68, 0
3, 332648, Note_on_c, 0, 71, 0
3, 332817, Note_on_c, 0, 71, 52
3, 332819, Note_on_c, 0, 63, 61
3, 332823, Control_c, 0, 64, 0
3, 332830, Note_on_c, 0, 47, 55
3, 332833, Note_on_c, 0, 68, 51
3, 332992, Note_on_c, 0, 47, 0
3, 333048, Control_c, 0, 64, 127
3, 333127, Note_on_c, 0, 71, 0
3, 333249, Note_on_c, 0, 63, 0
3, 333276, Note_on_c, 0, 71, 45
3, 333313, Note_on_c, 0, 68, 0
3, 333600, Note_on_c, 0, 71, 0
3, 333697, Control_c, 0, 64, 0
3, 333746, Note_on_c, 0, 72, 49
3, 333760, Note_on_c, 0, 62, 46
3, 333763, Note_on_c, 0, 64, 44
3, 333765, Note_on_c, 0, 67, 50
3, 333770, Note_on_c, 0, 56, 44
3, 333839, Note_on_c, 0, 64, 0
3, 333884, Note_on_c, 0, 72, 0
3, 333887, Note_on_c, 0, 62, 0
3, 333889, Note_on_c, 0, 67, 0
3, 333914, Note_on_c, 0, 56, 0
3, 334239, Note_on_c, 0, 72, 49
3, 334246, Note_on_c, 0, 62, 46
3, 334255, Note_on_c, 0, 67, 50
3, 334265, Note_on_c, 0, 56, 34
3, 334266, Note_on_c, 0, 64, 37
3, 334329, Note_on_c, 0, 64, 0
3, 334359, Note_on_c, 0, 56, 0
3, 334367, Note_on_c, 0, 67, 0
3, 334369, Note_on_c, 0, 72, 0
3, 334370, Note_on_c, 0, 62, 0
3, 334700, Control_c, 0, 64, 127
3, 334746, Note_on_c, 0, 72, 54
3, 334750, Note_on_c, 0, 67, 55
3, 334757, Note_on_c, 0, 62, 51
3, 334763, Note_on_c, 0, 64, 49
3, 334766, Note_on_c, 0, 56, 42
3, 334939, Control_c, 0, 64, 0
3, 335178, Control_c, 0, 64, 127
3, 335450, Note_on_c, 0, 62, 0
3, 335461, Note_on_c, 0, 64, 0
3, 335484, Note_on_c, 0, 56, 0
3, 335512, Note_on_c, 0, 67, 0
3, 335522, Note_on_c, 0, 72, 0
3, 335684, Note_on_c, 0, 72, 53
3, 335685, Note_on_c, 0, 56, 61
3, 335692, Note_on_c, 0, 62, 56
3, 335698, Note_on_c, 0, 67, 68
3, 335709, Note_on_c, 0, 64, 66
3, 335913, Note_on_c, 0, 64, 0
3, 335933, Note_on_c, 0, 62, 0
3, 335946, Note_on_c, 0, 72, 0
3, 335958, Note_on_c, 0, 67, 0
3, 335998, Note_on_c, 0, 56, 0
3, 336154, Note_on_c, 0, 72, 59
3, 336160, Note_on_c, 0, 67, 74
3, 336171, Note_on_c, 0, 62, 55
3, 336188, Note_on_c, 0, 64, 56
3, 336241, Note_on_c, 0, 64, 0
3, 336250, Note_on_c, 0, 62, 0
3, 336286, Note_on_c, 0, 72, 0
3, 336306, Note_on_c, 0, 67, 0
3, 337074, Note_on_c, 0, 73, 73
3, 337076, Note_on_c, 0, 66, 94
3, 337078, Note_on_c, 0, 63, 83
3, 337079, Note_on_c, 0, 70, 82
3, 337085, Note_on_c, 0, 59, 73
3, 337088, Note_on_c, 0, 61, 64
3, 337113, Control_c, 0, 64, 0
3, 337452, Control_c, 0, 64, 127
3, 337742, Note_on_c, 0, 66, 0
3, 337786, Note_on_c, 0, 70, 0
3, 337797, Note_on_c, 0, 59, 0
3, 337811, Note_on_c, 0, 63, 0
3, 337837, Note_on_c, 0, 73, 0
3, 337842, Note_on_c, 0, 61, 0
3, 337959, Control_c, 0, 64, 0
3, 337975, Note_on_c, 0, 63, 72
3, 337976, Note_on_c, 0, 73, 60
3, 337982, Note_on_c, 0, 66, 80
3, 337983, Note_on_c, 0, 70, 76
3, 337984, Note_on_c, 0, 61, 70
3, 337996, Note_on_c, 0, 59, 67
3, 338170, Control_c, 0, 64, 127
3, 338869, Note_on_c, 0, 63, 0
3, 338949, Note_on_c, 0, 66, 0
3, 338963, Note_on_c, 0, 59, 0
3, 338971, Note_on_c, 0, 61, 0
3, 339080, Note_on_c, 0, 70, 0
3, 339162, Note_on_c, 0, 73, 0
3, 339430, Note_on_c, 0, 63, 44
3, 339439, Note_on_c, 0, 73, 42
3, 339440, Note_on_c, 0, 61, 44
3, 339452, Note_on_c, 0, 70, 50
3, 339469, Note_on_c, 0, 66, 35
3, 339526, Note_on_c, 0, 66, 0
3, 339574, Note_on_c, 0, 61, 0
3, 339577, Note_on_c, 0, 63, 0
3, 339578, Note_on_c, 0, 70, 0
3, 339594, Note_on_c, 0, 73, 0
3, 340332, Control_c, 0, 64, 0
3, 340387, Note_on_c, 0, 76, 60
3, 340392, Note_on_c, 0, 66, 48
3, 340395, Note_on_c, 0, 69, 54
3, 340401, Note_on_c, 0, 73, 31
3, 340408, Note_on_c, 0, 64, 51
3, 340423, Note_on_c, 0, 62, 48
3, 340465, Note_on_c, 0, 69, 0
3, 340471, Note_on_c, 0, 64, 0
3, 340479, Note_on_c, 0, 73, 0
3, 340494, Note_on_c, 0, 62, 0
3, 340502, Note_on_c, 0, 66, 0
3, 340506, Note_on_c, 0, 76, 0
3, 340937, Control_c, 0, 64, 127
3, 340938, Note_on_c, 0, 76, 53
3, 340943, Note_on_c, 0, 73, 29
3, 340964, Note_on_c, 0, 69, 35
3, 340969, Note_on_c, 0, 66, 27
3, 340972, Note_on_c, 0, 64, 38
3, 340991, Note_on_c, 0, 62, 41
3, 341345, Note_on_c, 0, 62, 0
3, 341457, Note_on_c, 0, 64, 0
3, 341481, Note_on_c, 0, 66, 0
3, 341483, Note_on_c, 0, 73, 0
3, 341506, Note_on_c, 0, 76, 0
3, 341507, Note_on_c, 0, 69, 0
3, 341804, Note_on_c, 0, 66, 36
3, 341820, Note_on_c, 0, 76, 36
3, 341835, Note_on_c, 0, 73, 26
3, 341842, Note_on_c, 0, 64, 28
3, 341844, Note_on_c, 0, 69, 32
3, 341878, Note_on_c, 0, 62, 33
3, 341927, Note_on_c, 0, 64, 0
3, 341994, Note_on_c, 0, 66, 0
3, 342006, Note_on_c, 0, 62, 0
3, 342072, Note_on_c, 0, 69, 0
3, 342103, Note_on_c, 0, 76, 0
3, 342172, Note_on_c, 0, 73, 0
3, 342773, Control_c, 0, 64, 0
3, 342789, Note_on_c, 0, 63, 25
3, 342794, Note_on_c, 0, 70, 37
3, 342797, Note_on_c, 0, 77, 49
3, 342807, Note_on_c, 0, 67, 43
3, 342827, Note_on_c, 0, 53, 24
3, 342836, Note_on_c, 0, 58, 29
3, 342896, Note_on_c, 0, 58, 0
3, 343039, Control_c, 0, 64, 127
3, 343566, Note_on_c, 0, 53, 0
3, 343609, Note_on_c, 0, 63, 0
3, 343859, Note_on_c, 0, 67, 0
3, 343887, Note_on_c, 0, 77, 0
3, 343995, Note_on_c, 0, 70, 0
3, 344290, Note_on_c, 0, 75, 50
3, 344309, Note_on_c, 0, 65, 45
3, 344313, Note_on_c, 0, 62, 32
3, 344329, Note_on_c, 0, 69, 41
3, 344333, Note_on_c, 0, 51, 18
3, 344339, Control_c, 0, 64, 0
3, 344343, Note_on_c, 0, 57, 43
3, 344564, Control_c, 0, 64, 127
3, 344565, Note_on_c, 0, 75, 0
3, 344598, Note_on_c, 0, 69, 0
3, 344681, Note_on_c, 0, 62, 0
3, 344718, Note_on_c, 0, 57, 0
3, 344879, Note_on_c, 0, 65, 0
3, 344898, Note_on_c, 0, 51, 0
3, 344933, Note_on_c, 0, 73, 58
3, 345126, Note_on_c, 0, 73, 0
3, 345645, Note_on_c, 0, 60, 29
3, 345647, Note_on_c, 0, 70, 33
3, 345651, Control_c, 0, 64, 0
3, 345654, Note_on_c, 0, 65, 44
3, 345683, Note_on_c, 0, 46, 29
3, 345688, Note_on_c, 0, 55, 28
3, 346061, Control_c, 0, 64, 127
3, 346186, Note_on_c, 0, 55, 0
3, 346265, Note_on_c, 0, 52, 56
3, 346272, Control_c, 0, 64, 0
3, 346568, Control_c, 0, 64, 127
3, 346845, Note_on_c, 0, 65, 0
3, 346869, Note_on_c, 0, 52, 0
3, 346894, Control_c, 0, 64, 0
3, 346979, Note_on_c, 0, 53, 68
3, 347134, Control_c, 0, 64, 127
3, 347142, Note_on_c, 0, 60, 0
3, 347570, Control_c, 0, 64, 0
3, 347601, Note_on_c, 0, 65, 55
3, 347605, Note_on_c, 0, 60, 41
3, 347632, Note_on_c, 0, 53, 0
3, 347769, Control_c, 0, 64, 127
3, 348069, Note_on_c, 0, 60, 0
3, 348080, Note_on_c, 0, 54, 75
3, 348271, Note_on_c, 0, 65, 0
3, 348291, Note_on_c, 0, 70, 0
3, 348343, Note_on_c, 0, 46, 0
3, 348530, Control_c, 0, 64, 0
3, 348553, Note_on_c, 0, 65, 73
3, 348557, Note_on_c, 0, 72, 65
3, 348559, Note_on_c, 0, 61, 68
3, 348578, Note_on_c, 0, 55, 68
3, 348591, Note_on_c, 0, 54, 0
3, 348854, Control_c, 0, 64, 127
3, 349002, Note_on_c, 0, 72, 0
3, 349089, Note_on_c, 0, 70, 59
3, 349094, Note_on_c, 0, 43, 50
3, 349453, Note_on_c, 0, 70, 0
3, 349543, Note_on_c, 0, 72, 59
3, 349862, Note_on_c, 0, 72, 0
3, 349978, Note_on_c, 0, 61, 0
3, 350026, Note_on_c, 0, 70, 53
3, 350123, Note_on_c, 0, 65, 0
3, 350171, Note_on_c, 0, 70, 0
3, 350216, Note_on_c, 0, 43, 0
3, 350300, Note_on_c, 0, 55, 0
3, 350464, Control_c, 0, 64, 0
3, 350479, Note_on_c, 0, 48, 40
3, 350488, Note_on_c, 0, 58, 49
3, 350500, Note_on_c, 0, 68, 36
3, 350503, Note_on_c, 0, 61, 53
3, 350537, Note_on_c, 0, 64, 53
3, 350704, Control_c, 0, 64, 127
3, 350859, Note_on_c, 0, 68, 0
3, 350861, Note_on_c, 0, 58, 0
3, 350862, Note_on_c, 0, 64, 0
3, 351123, Note_on_c, 0, 61, 0
3, 351424, Control_c, 0, 64, 0
3, 351442, Note_on_c, 0, 48, 0
3, 351484, Note_on_c, 0, 57, 31
3, 351498, Note_on_c, 0, 65, 35
3, 351518, Note_on_c, 0, 60, 33
3, 351525, Note_on_c, 0, 62, 37
3, 351538, Note_on_c, 0, 41, 24
3, 351977, Note_on_c, 0, 47, 33
3, 352419, Note_on_c, 0, 47, 0
3, 352464, Note_on_c, 0, 48, 42
3, 352581, Control_c, 0, 64, 127
3, 352804, Note_on_c, 0, 62, 0
3, 352873, Note_on_c, 0, 60, 0
3, 352988, Note_on_c, 0, 57, 0
3, 353384, Note_on_c, 0, 57, 31
3, 353399, Note_on_c, 0, 60, 25
3, 353425, Note_on_c, 0, 41, 0
3, 353501, Note_on_c, 0, 48, 0
3, 353695, Note_on_c, 0, 57, 0
3, 353720, Note_on_c, 0, 60, 0
3, 353739, Note_on_c, 0, 65, 0
3, 354262, Note_on_c, 0, 58, 46
3, 354272, Note_on_c, 0, 69, 36
3, 354276, Control_c, 0, 64, 0
3, 354288, Note_on_c, 0, 57, 49
3, 354291, Note_on_c, 0, 62, 50
3, 354334, Note_on_c, 0, 64, 41
3, 354528, Control_c, 0, 64, 127
3, 355200, Note_on_c, 0, 57, 0
3, 355216, Note_on_c, 0, 69, 0
3, 355285, Note_on_c, 0, 58, 0
3, 355314, Note_on_c, 0, 62, 0
3, 355545, Note_on_c, 0, 64, 0
3, 355841, Control_c, 0, 64, 0
3, 355870, Note_on_c, 0, 58, 35
3, 355883, Note_on_c, 0, 61, 32
3, 355884, Note_on_c, 0, 64, 40
3, 355886, Note_on_c, 0, 67, 41
3, 355900, Note_on_c, 0, 55, 30
3, 356094, Control_c, 0, 64, 127
3, 356155, Note_on_c, 0, 55, 0
3, 356969, Note_on_c, 0, 67, 0
3, 356970, Note_on_c, 0, 58, 0
3, 357066, Note_on_c, 0, 64, 0
3, 357121, Note_on_c, 0, 61, 0
3, 357191, Note_on_c, 0, 45, 74
3, 357195, Control_c, 0, 64, 0
3, 357198, Note_on_c, 0, 38, 72
3, 358817, Note_on_c, 0, 64, 43
3, 358831, Note_on_c, 0, 57, 40
3, 358844, Note_on_c, 0, 53, 29
3, 358862, Note_on_c, 0, 60, 34
3, 359255, Control_c, 0, 64, 127
3, 359538, Note_on_c, 0, 38, 0
3, 359585, Note_on_c, 0, 45, 0
3, 359725, Note_on_c, 0, 38, 58
3, 360007, Note_on_c, 0, 38, 0
3, 360089, Control_c, 0, 64, 0
3, 360131, Note_on_c, 0, 38, 63
3, 360183, Note_on_c, 0, 57, 0
3, 360186, Note_on_c, 0, 64, 0
3, 360206, Note_on_c, 0, 53, 0
3, 360215, Note_on_c, 0, 60, 0
3, 360320, Control_c, 0, 64, 127
3, 360320, Control_c, 0, 64, 0
3, 360638, Control_c, 0, 64, 127
3, 361048, Note_on_c, 0, 64, 87
3, 361055, Note_on_c, 0, 59, 80
3, 361057, Note_on_c, 0, 56, 86
3, 361069, Note_on_c, 0, 52, 70
3, 361091, Control_c, 0, 64, 0
3, 362064, Control_c, 0, 64, 127
3, 362303, Note_on_c, 0, 45, 62
3, 362418, Control_c, 0, 64, 0
3, 362420, Note_on_c, 0, 38, 0
3, 362448, Note_on_c, 0, 52, 0
3, 362547, Note_on_c, 0, 45, 0
3, 362596, Note_on_c, 0, 38, 72
3, 362601, Control_c, 0, 64, 127
3, 362830, Note_on_c, 0, 45, 24
3, 362834, Note_on_c, 0, 38, 0
3, 362886, Note_on_c, 0, 45, 0
3, 362912, Control_c, 0, 64, 0
3, 362964, Note_on_c, 0, 38, 72
3, 363053, Note_on_c, 0, 59, 0
3, 363054, Note_on_c, 0, 56, 0
3, 363106, Note_on_c, 0, 64, 0
3, 363123, Control_c, 0, 64, 127
3, 363831, Note_on_c, 0, 63, 86
3, 363835, Note_on_c, 0, 58, 92
3, 363837, Note_on_c, 0, 55, 84
3, 363842, Control_c, 0, 64, 0
3, 364479, Note_on_c, 0, 45, 75
3, 364710, Note_on_c, 0, 45, 0
3, 365058, Note_on_c, 0, 45, 44
3, 365142, Control_c, 0, 64, 127
3, 365200, Note_on_c, 0, 45, 0
3, 365387, Note_on_c, 0, 45, 59
3, 365522, Note_on_c, 0, 38, 0
3, 365538, Note_on_c, 0, 55, 0
3, 365552, Note_on_c, 0, 63, 0
3, 365598, Note_on_c, 0, 58, 0
3, 365721, Control_c, 0, 64, 0
3, 365742, Note_on_c, 0, 45, 0
3, 365746, Note_on_c, 0, 57, 49
3, 365752, Note_on_c, 0, 53, 29
3, 365753, Note_on_c, 0, 62, 54
3, 365769, Note_on_c, 0, 38, 50
3, 366143, Control_c, 0, 64, 127
3, 366209, Note_on_c, 0, 53, 0
3, 366368, Note_on_c, 0, 57, 0
3, 366394, Note_on_c, 0, 62, 0
3, 366729, Note_on_c, 0, 38, 0
3, 366730, Note_on_c, 0, 45, 48
3, 366933, Note_on_c, 0, 45, 0
3, 367212, Note_on_c, 0, 65, 40
3, 367483, Note_on_c, 0, 65, 0
3, 367665, Note_on_c, 0, 69, 48
3, 367755, Note_on_c, 0, 69, 0
3, 368158, Note_on_c, 0, 77, 45
3, 368282, Note_on_c, 0, 77, 0
3, 368640, Control_c, 0, 64, 0
3, 368646, Note_on_c, 0, 50, 65
3, 369025, Control_c, 0, 64, 127
3, 369194, Note_on_c, 0, 57, 25
3, 369635, Note_on_c, 0, 62, 34
3, 370121, Note_on_c, 0, 65, 48
3, 370450, Note_on_c, 0, 65, 0
3, 370589, Note_on_c, 0, 69, 44
3, 370706, Note_on_c, 0, 69, 0
3, 371060, Note_on_c, 0, 77, 74
3, 371061, Note_on_c, 0, 50, 0
3, 371124, Note_on_c, 0, 62, 0
3, 371416, Note_on_c, 0, 77, 0
3, 371509, Control_c, 0, 64, 0
3, 371529, Note_on_c, 0, 50, 38
3, 371536, Note_on_c, 0, 76, 57
3, 371564, Note_on_c, 0, 57, 0
3, 371723, Control_c, 0, 64, 127
3, 372037, Note_on_c, 0, 74, 52
3, 372044, Note_on_c, 0, 56, 34
3, 373059, Note_on_c, 0, 65, 54
3, 373075, Note_on_c, 0, 59, 29
3, 373676, Note_on_c, 0, 50, 0
3, 373990, Note_on_c, 0, 50, 45
3, 374198, Note_on_c, 0, 50, 0
3, 374460, Control_c, 0, 64, 0
3, 374485, Note_on_c, 0, 50, 57
3, 374497, Note_on_c, 0, 59, 0
3, 374518, Note_on_c, 0, 56, 0
3, 374629, Control_c, 0, 64, 127
3, 374650, Note_on_c, 0, 74, 0
3, 374685, Note_on_c, 0, 76, 0
3, 374794, Note_on_c, 0, 65, 0
3, 375020, Note_on_c, 0, 58, 42
3, 375064, Note_on_c, 0, 55, 35
3, 375151, Control_c, 0, 64, 0
3, 375463, Note_on_c, 0, 60, 36
3, 375492, Control_c, 0, 64, 127
3, 375605, Note_on_c, 0, 60, 0
3, 375643, Note_on_c, 0, 61, 61
3, 375746, Control_c, 0, 64, 0
3, 375793, Note_on_c, 0, 61, 0
3, 375833, Note_on_c, 0, 63, 60
3, 375934, Note_on_c, 0, 63, 0
3, 375964, Note_on_c, 0, 64, 67
3, 376089, Note_on_c, 0, 64, 0
3, 376121, Note_on_c, 0, 66, 59
3, 376226, Note_on_c, 0, 66, 0
3, 376271, Note_on_c, 0, 67, 59
3, 376324, Control_c, 0, 64, 127
3, 376409, Note_on_c, 0, 67, 0
3, 376413, Note_on_c, 0, 69, 55
3, 376558, Note_on_c, 0, 70, 56
3, 376559, Note_on_c, 0, 69, 0
3, 376619, Note_on_c, 0, 70, 0
3, 376717, Note_on_c, 0, 72, 60
3, 376816, Note_on_c, 0, 55, 0
3, 376841, Note_on_c, 0, 58, 0
3, 376845, Note_on_c, 0, 73, 37
3, 376848, Note_on_c, 0, 72, 0
3, 376961, Note_on_c, 0, 73, 0
3, 376962, Note_on_c, 0, 50, 0
3, 376996, Note_on_c, 0, 75, 45
3, 377116, Note_on_c, 0, 76, 54
3, 377120, Note_on_c, 0, 75, 0
3, 377279, Note_on_c, 0, 79, 60
3, 377293, Note_on_c, 0, 76, 0
3, 377313, Control_c, 0, 64, 0
3, 377390, Note_on_c, 0, 50, 33
3, 377438, Note_on_c, 0, 77, 55
3, 377506, Note_on_c, 0, 79, 0
3, 377646, Note_on_c, 0, 77, 0
3, 377786, Note_on_c, 0, 76, 54
3, 377911, Note_on_c, 0, 76, 0
3, 378084, Note_on_c, 0, 73, 39
3, 378191, Note_on_c, 0, 73, 0
3, 378232, Note_on_c, 0, 57, 36
3, 378301, Note_on_c, 0, 76, 52
3, 378493, Note_on_c, 0, 76, 0
3, 378529, Note_on_c, 0, 74, 65
3, 378683, Note_on_c, 0, 74, 0
3, 378763, Note_on_c, 0, 69, 42
3, 378868, Note_on_c, 0, 69, 0
3, 378974, Note_on_c, 0, 67, 55
3, 379161, Note_on_c, 0, 62, 28
3, 379202, Note_on_c, 0, 65, 44
3, 379204, Note_on_c, 0, 67, 0
3, 379247, Control_c, 0, 64, 127
3, 379318, Note_on_c, 0, 62, 0
3, 379447, Note_on_c, 0, 65, 0
3, 379451, Note_on_c, 0, 64, 63
3, 379547, Note_on_c, 0, 64, 0
3, 379661, Note_on_c, 0, 67, 50
3, 379787, Note_on_c, 0, 50, 0
3, 379868, Note_on_c, 0, 67, 0
3, 379905, Note_on_c, 0, 64, 61
3, 380023, Note_on_c, 0, 64, 0
3, 380092, Control_c, 0, 64, 0
3, 380103, Note_on_c, 0, 50, 35
3, 380108, Note_on_c, 0, 65, 57
3, 380174, Note_on_c, 0, 57, 0
3, 380389, Control_c, 0, 64, 127
3, 380658, Note_on_c, 0, 57, 30
3, 380659, Note_on_c, 0, 62, 40
3, 380759, Note_on_c, 0, 57, 0
3, 381121, Note_on_c, 0, 65, 0
3, 381133, Note_on_c, 0, 62, 0
3, 381135, Note_on_c, 0, 57, 46
3, 381290, Note_on_c, 0, 57, 0
3, 381676, Note_on_c, 0, 57, 32
3, 381993, Note_on_c, 0, 50, 0
3, 382608, Note_on_c, 0, 50, 36
3, 382739, Note_on_c, 0, 57, 0
3, 383084, Control_c, 0, 64, 0
3, 383108, Note_on_c, 0, 80, 76
3, 383116, Note_on_c, 0, 59, 27
3, 383119, Note_on_c, 0, 88, 74
3, 383145, Note_on_c, 0, 56, 28
3, 383309, Control_c, 0, 64, 127
3, 383326, Note_on_c, 0, 88, 0
3, 383402, Note_on_c, 0, 83, 64
3, 383415, Note_on_c, 0, 76, 45
3, 383487, Note_on_c, 0, 80, 0
3, 383635, Note_on_c, 0, 76, 0
3, 383689, Note_on_c, 0, 83, 0
3, 383732, Note_on_c, 0, 80, 45
3, 383758, Note_on_c, 0, 88, 63
3, 383988, Note_on_c, 0, 88, 0
3, 384064, Note_on_c, 0, 76, 39
3, 384080, Note_on_c, 0, 83, 33
3, 384151, Note_on_c, 0, 80, 0
3, 384277, Note_on_c, 0, 76, 0
3, 384306, Note_on_c, 0, 83, 0
3, 384361, Note_on_c, 0, 80, 29
3, 384409, Note_on_c, 0, 88, 59
3, 384577, Note_on_c, 0, 88, 0
3, 384675, Note_on_c, 0, 83, 45
3, 384685, Note_on_c, 0, 76, 40
3, 384772, Note_on_c, 0, 80, 0
3, 384871, Note_on_c, 0, 50, 0
3, 384909, Note_on_c, 0, 76, 0
3, 384950, Note_on_c, 0, 83, 0
3, 385009, Note_on_c, 0, 50, 41
3, 385030, Note_on_c, 0, 80, 40
3, 385052, Note_on_c, 0, 88, 61
3, 385235, Note_on_c, 0, 50, 0
3, 385244, Note_on_c, 0, 88, 0
3, 385327, Note_on_c, 0, 83, 48
3, 385364, Note_on_c, 0, 76, 46
3, 385454, Note_on_c, 0, 80, 0
3, 385541, Note_on_c, 0, 83, 0
3, 385585, Note_on_c, 0, 76, 0
3, 385640, Control_c, 0, 64, 0
3, 385651, Note_on_c, 0, 50, 39
3, 385687, Note_on_c, 0, 87, 59
3, 385690, Note_on_c, 0, 79, 36
3, 385725, Note_on_c, 0, 59, 0
3, 385742, Note_on_c, 0, 82, 23
3, 385773, Note_on_c, 0, 56, 0
3, 385790, Note_on_c, 0, 82, 0
3, 385879, Control_c, 0, 64, 127
3, 385948, Note_on_c, 0, 87, 0
3, 385975, Note_on_c, 0, 82, 46
3, 385983, Note_on_c, 0, 75, 33
3, 386042, Note_on_c, 0, 79, 0
3, 386210, Note_on_c, 0, 75, 0
3, 386249, Note_on_c, 0, 82, 0
3, 386324, Note_on_c, 0, 58, 30
3, 386325, Note_on_c, 0, 79, 34
3, 386328, Note_on_c, 0, 87, 59
3, 386345, Control_c, 0, 64, 0
3, 386372, Note_on_c, 0, 55, 28
3, 386486, Control_c, 0, 64, 127
3, 386555, Note_on_c, 0, 87, 0
3, 386586, Note_on_c, 0, 75, 44
3, 386603, Note_on_c, 0, 82, 47
3, 386663, Note_on_c, 0, 79, 0
3, 386825, Note_on_c, 0, 75, 0
3, 386880, Note_on_c, 0, 82, 0
3, 386932, Note_on_c, 0, 87, 62
3, 386943, Note_on_c, 0, 79, 37
3, 386995, Note_on_c, 0, 50, 0
3, 387133, Note_on_c, 0, 87, 0
3, 387205, Note_on_c, 0, 75, 51
3, 387235, Note_on_c, 0, 82, 37
3, 387302, Note_on_c, 0, 79, 0
3, 387369, Note_on_c, 0, 82, 0
3, 387373, Note_on_c, 0, 75, 0
3, 387485, Note_on_c, 0, 50, 46
3, 387521, Note_on_c, 0, 79, 44
3, 387525, Note_on_c, 0, 87, 62
3, 387729, Note_on_c, 0, 87, 0
3, 387799, Note_on_c, 0, 75, 38
3, 387847, Note_on_c, 0, 58, 0
3, 387850, Note_on_c, 0, 82, 29
3, 387944, Note_on_c, 0, 79, 0
3, 388033, Note_on_c, 0, 75, 0
3, 388044, Note_on_c, 0, 82, 0
3, 388130, Note_on_c, 0, 79, 51
3, 388132, Note_on_c, 0, 87, 64
3, 388174, Note_on_c, 0, 50, 0
3, 388285, Note_on_c, 0, 87, 0
3, 388418, Note_on_c, 0, 82, 46
3, 388418, Note_on_c, 0, 75, 35
3, 388523, Note_on_c, 0, 79, 0
3, 388594, Note_on_c, 0, 75, 0
3, 388622, Note_on_c, 0, 82, 0
3, 388701, Note_on_c, 0, 50, 40
3, 388723, Note_on_c, 0, 55, 0
3, 388743, Note_on_c, 0, 86, 64
3, 388753, Note_on_c, 0, 77, 58
3, 388757, Control_c, 0, 64, 0
3, 388955, Control_c, 0, 64, 127
3, 388996, Note_on_c, 0, 86, 0
3, 389040, Note_on_c, 0, 77, 0
3, 389350, Control_c, 0, 64, 0
3, 389367, Note_on_c, 0, 86, 57
3, 389378, Note_on_c, 0, 77, 36
3, 389413, Note_on_c, 0, 57, 33
3, 389434, Note_on_c, 0, 62, 20
3, 389520, Control_c, 0, 64, 127
3, 389633, Note_on_c, 0, 77, 0
3, 389665, Note_on_c, 0, 86, 0
3, 389712, Note_on_c, 0, 74, 25
3, 390042, Note_on_c, 0, 74, 0
3, 390248, Note_on_c, 0, 62, 0
3, 390804, Note_on_c, 0, 69, 24
3, 390822, Note_on_c, 0, 62, 22
3, 390980, Note_on_c, 0, 57, 0
3, 391287, Note_on_c, 0, 57, 29
3, 391532, Note_on_c, 0, 50, 0
3, 391769, Note_on_c, 0, 50, 31
3, 391805, Control_c, 0, 64, 0
3, 391876, Note_on_c, 0, 57, 0
3, 392018, Control_c, 0, 64, 127
3, 392211, Note_on_c, 0, 69, 0
3, 392306, Note_on_c, 0, 57, 28
3, 392406, Note_on_c, 0, 62, 0
3, 392773, Note_on_c, 0, 76, 46
3, 392875, Note_on_c, 0, 76, 0
3, 392880, Control_c, 0, 64, 0
3, 393036, Note_on_c, 0, 77, 59
3, 393212, Note_on_c, 0, 77, 0
3, 393312, Note_on_c, 0, 74, 62
3, 393358, Control_c, 0, 64, 127
3, 393562, Note_on_c, 0, 74, 0
3, 393564, Note_on_c, 0, 57, 0
3, 393584, Note_on_c, 0, 62, 1
3, 393603, Note_on_c, 0, 76, 53
3, 393636, Note_on_c, 0, 57, 15
3, 393843, Note_on_c, 0, 76, 0
3, 393907, Note_on_c, 0, 69, 36
3, 394052, Note_on_c, 0, 50, 0
3, 394114, Note_on_c, 0, 69, 0
3, 394247, Note_on_c, 0, 69, 31
3, 394272, Note_on_c, 0, 50, 32
3, 394409, Note_on_c, 0, 69, 0
3, 394433, Note_on_c, 0, 50, 0
3, 394597, Note_on_c, 0, 50, 24
3, 394618, Note_on_c, 0, 69, 37
3, 394640, Note_on_c, 0, 62, 0
3, 394656, Control_c, 0, 64, 0
3, 394672, Note_on_c, 0, 57, 0
3, 394854, Control_c, 0, 64, 127
3, 395166, Note_on_c, 0, 56, 34
3, 395169, Note_on_c, 0, 59, 27
3, 396004, Note_on_c, 0, 56, 0
3, 396066, Note_on_c, 0, 59, 0
3, 396583, Note_on_c, 0, 56, 32
3, 396625, Note_on_c, 0, 59, 22
3, 396647, Note_on_c, 0, 50, 0
3, 397475, Note_on_c, 0, 50, 32
3, 397494, Control_c, 0, 64, 0
3, 397513, Note_on_c, 0, 59, 0
3, 397537, Note_on_c, 0, 56, 0
3, 397705, Control_c, 0, 64, 127
3, 398419, Note_on_c, 0, 51, 39
3, 398431, Note_on_c, 0, 58, 26
3, 398433, Note_on_c, 0, 69, 0
3, 398438, Control_c, 0, 64, 0
3, 398450, Note_on_c, 0, 55, 34
3, 398764, Control_c, 0, 64, 127
3, 398924, Note_on_c, 0, 62, 45
3, 399194, Note_on_c, 0, 55, 0
3, 399255, Note_on_c, 0, 58, 0
3, 399287, Note_on_c, 0, 62, 0
3, 399387, Note_on_c, 0, 63, 67
3, 399410, Note_on_c, 0, 58, 35
3, 399441, Control_c, 0, 64, 0
3, 399470, Note_on_c, 0, 55, 24
3, 399696, Control_c, 0, 64, 127
3, 399738, Note_on_c, 0, 50, 0
3, 399773, Note_on_c, 0, 63, 0
3, 399863, Note_on_c, 0, 50, 41
3, 399866, Note_on_c, 0, 65, 79
3, 400173, Note_on_c, 0, 50, 0
3, 400226, Note_on_c, 0, 51, 0
3, 400233, Note_on_c, 0, 65, 0
3, 400256, Note_on_c, 0, 55, 0
3, 400321, Note_on_c, 0, 50, 40
3, 400325, Note_on_c, 0, 58, 0
3, 400345, Control_c, 0, 64, 0
3, 400348, Note_on_c, 0, 65, 70
3, 400753, Control_c, 0, 64, 127
3, 400849, Note_on_c, 0, 67, 57
3, 400914, Note_on_c, 0, 65, 0
3, 401261, Control_c, 0, 64, 0
3, 401315, Note_on_c, 0, 62, 42
3, 401318, Note_on_c, 0, 57, 31
3, 401475, Note_on_c, 0, 67, 0
3, 401558, Control_c, 0, 64, 127
3, 401723, Note_on_c, 0, 62, 0
3, 401761, Note_on_c, 0, 65, 49
3, 401909, Note_on_c, 0, 65, 0
3, 402236, Note_on_c, 0, 69, 40
3, 402267, Note_on_c, 0, 62, 20
3, 402369, Note_on_c, 0, 69, 0
3, 402719, Note_on_c, 0, 76, 82
3, 402774, Note_on_c, 0, 50, 0
3, 403162, Note_on_c, 0, 50, 33
3, 403182, Control_c, 0, 64, 0
3, 403207, Note_on_c, 0, 74, 47
3, 403247, Note_on_c, 0, 57, 0
3, 403331, Note_on_c, 0, 76, 0
3, 403356, Note_on_c, 0, 62, 0
3, 403463, Control_c, 0, 64, 127
3, 403661, Note_on_c, 0, 74, 0
3, 403775, Note_on_c, 0, 57, 20
3, 404173, Note_on_c, 0, 81, 62
3, 404196, Note_on_c, 0, 62, 32
3, 404315, Note_on_c, 0, 57, 0
3, 404591, Note_on_c, 0, 81, 0
3, 404626, Note_on_c, 0, 74, 26
3, 405014, Note_on_c, 0, 74, 0
3, 405112, Note_on_c, 0, 77, 39
3, 405114, Note_on_c, 0, 57, 33
3, 405128, Control_c, 0, 64, 0
3, 405228, Control_c, 0, 64, 127
3, 405235, Note_on_c, 0, 50, 0
3, 405421, Note_on_c, 0, 77, 0
3, 405602, Note_on_c, 0, 50, 38
3, 405839, Note_on_c, 0, 50, 0
3, 405995, Note_on_c, 0, 62, 0
3, 406084, Note_on_c, 0, 50, 41
3, 406112, Note_on_c, 0, 57, 0
3, 406144, Control_c, 0, 64, 0
3, 406286, Control_c, 0, 64, 127
3, 406633, Note_on_c, 0, 53, 40
3, 406644, Note_on_c, 0, 56, 30
3, 406646, Note_on_c, 0, 59, 33
3, 406978, Control_c, 0, 64, 0
3, 407120, Note_on_c, 0, 77, 62
3, 407221, Note_on_c, 0, 80, 58
3, 407410, Note_on_c, 0, 80, 0
3, 407414, Control_c, 0, 64, 127
3, 407427, Note_on_c, 0, 77, 0
3, 407445, Note_on_c, 0, 74, 62
3, 407579, Note_on_c, 0, 74, 0
3, 407596, Note_on_c, 0, 56, 0
3, 407599, Note_on_c, 0, 73, 45
3, 407756, Note_on_c, 0, 72, 53
3, 407801, Note_on_c, 0, 59, 0
3, 407827, Note_on_c, 0, 73, 0
3, 407886, Note_on_c, 0, 72, 0
3, 407937, Note_on_c, 0, 71, 50
3, 408069, Note_on_c, 0, 71, 0
3, 408076, Note_on_c, 0, 70, 37
3, 408272, Note_on_c, 0, 70, 0
3, 408304, Note_on_c, 0, 69, 37
3, 408332, Control_c, 0, 64, 0
3, 408411, Note_on_c, 0, 59, 22
3, 408421, Note_on_c, 0, 68, 58
3, 408429, Note_on_c, 0, 56, 19
3, 408451, Note_on_c, 0, 69, 0
3, 408672, Control_c, 0, 64, 127
3, 408787, Note_on_c, 0, 50, 0
3, 408821, Note_on_c, 0, 68, 0
3, 409070, Note_on_c, 0, 53, 0
3, 409122, Control_c, 0, 64, 0
3, 409124, Note_on_c, 0, 50, 50
3, 409215, Note_on_c, 0, 59, 0
3, 409278, Control_c, 0, 64, 127
3, 409280, Note_on_c, 0, 56, 0
3, 410049, Note_on_c, 0, 70, 83
3, 410070, Note_on_c, 0, 51, 44
3, 410082, Control_c, 0, 64, 0
3, 410088, Note_on_c, 0, 58, 31
3, 410104, Note_on_c, 0, 55, 36
3, 410350, Control_c, 0, 64, 127
3, 410434, Note_on_c, 0, 70, 0
3, 410476, Note_on_c, 0, 73, 57
3, 410887, Note_on_c, 0, 73, 0
3, 410921, Note_on_c, 0, 67, 47
3, 411251, Note_on_c, 0, 50, 0
3, 411301, Note_on_c, 0, 67, 0
3, 411497, Note_on_c, 0, 50, 53
3, 411809, Note_on_c, 0, 50, 0
3, 411810, Note_on_c, 0, 51, 0
3, 411921, Note_on_c, 0, 55, 0
3, 411931, Control_c, 0, 64, 0
3, 411933, Note_on_c, 0, 58, 0
3, 411957, Note_on_c, 0, 50, 33
3, 412171, Control_c, 0, 64, 127
3, 412461, Note_on_c, 0, 57, 44
3, 412909, Note_on_c, 0, 62, 47
3, 412924, Note_on_c, 0, 50, 0
3, 413248, Note_on_c, 0, 62, 0
3, 413365, Note_on_c, 0, 65, 34
3, 413372, Note_on_c, 0, 64, 44
3, 413386, Note_on_c, 0, 69, 28
3, 413629, Note_on_c, 0, 65, 0
3, 413680, Note_on_c, 0, 69, 0
3, 413890, Note_on_c, 0, 76, 77
3, 413901, Note_on_c, 0, 79, 63
3, 413909, Note_on_c, 0, 74, 49
3, 413969, Note_on_c, 0, 74, 0
3, 414191, Note_on_c, 0, 64, 0
3, 414315, Note_on_c, 0, 76, 0
3, 414329, Note_on_c, 0, 79, 0
3, 414344, Note_on_c, 0, 77, 46
3, 414366, Note_on_c, 0, 74, 53
3, 414391, Note_on_c, 0, 64, 37
3, 414558, Note_on_c, 0, 64, 0
3, 414691, Note_on_c, 0, 77, 0
3, 414758, Note_on_c, 0, 74, 0
3, 414782, Control_c, 0, 64, 0
3, 414832, Note_on_c, 0, 50, 32
3, 414849, Note_on_c, 0, 76, 39
3, 414853, Note_on_c, 0, 79, 40
3, 414933, Note_on_c, 0, 57, 0
3, 415163, Control_c, 0, 64, 127
3, 415310, Note_on_c, 0, 57, 28
3, 415557, Note_on_c, 0, 50, 0
3, 415662, Note_on_c, 0, 76, 0
3, 415681, Note_on_c, 0, 79, 0
3, 415744, Note_on_c, 0, 77, 48
3, 415758, Note_on_c, 0, 64, 34
3, 416019, Note_on_c, 0, 77, 0
3, 416117, Note_on_c, 0, 64, 0
3, 416642, Note_on_c, 0, 69, 30
3, 416651, Note_on_c, 0, 65, 31
3, 417089, Note_on_c, 0, 50, 30
3, 417379, Note_on_c, 0, 50, 0
3, 417632, Control_c, 0, 64, 0
3, 417659, Note_on_c, 0, 50, 33
3, 417684, Note_on_c, 0, 65, 0
3, 417712, Note_on_c, 0, 57, 0
3, 417735, Note_on_c, 0, 69, 0
3, 418162, Note_on_c, 0, 56, 37
3, 418267, Control_c, 0, 64, 127
3, 418685, Note_on_c, 0, 64, 36
3, 418694, Note_on_c, 0, 68, 35
3, 418747, Note_on_c, 0, 59, 17
3, 419202, Note_on_c, 0, 76, 57
3, 419526, Note_on_c, 0, 76, 0
3, 419712, Note_on_c, 0, 76, 52
3, 420238, Note_on_c, 0, 50, 0
3, 420593, Note_on_c, 0, 50, 55
3, 420610, Control_c, 0, 64, 0
3, 420611, Note_on_c, 0, 59, 0
3, 420626, Note_on_c, 0, 76, 0
3, 420631, Note_on_c, 0, 56, 0
3, 420790, Note_on_c, 0, 64, 0
3, 420823, Control_c, 0, 64, 127
3, 421099, Note_on_c, 0, 68, 0
3, 421545, Note_on_c, 0, 58, 36
3, 421548, Note_on_c, 0, 67, 41
3, 421556, Control_c, 0, 64, 0
3, 421558, Note_on_c, 0, 64, 35
3, 421575, Note_on_c, 0, 55, 29
3, 421782, Control_c, 0, 64, 127
3, 421973, Note_on_c, 0, 58, 0
3, 421989, Note_on_c, 0, 55, 0
3, 421994, Note_on_c, 0, 50, 0
3, 422604, Note_on_c, 0, 50, 44
3, 422701, Note_on_c, 0, 67, 0
3, 422756, Note_on_c, 0, 50, 0
3, 422921, Note_on_c, 0, 64, 0
3, 423695, Note_on_c, 0, 38, 25
3, 423701, Note_on_c, 0, 53, 39
3, 423712, Note_on_c, 0, 26, 32
3, 423716, Control_c, 0, 64, 0
3, 423955, Control_c, 0, 64, 127
3, 424188, Note_on_c, 0, 53, 0
3, 424208, Note_on_c, 0, 26, 0
3, 424306, Note_on_c, 0, 38, 0
3, 426780, Note_on_c, 0, 88, 45
3, 426880, Note_on_c, 0, 85, 46
3, 426974, Note_on_c, 0, 81, 54
3, 427007, Note_on_c, 0, 88, 0
3, 427015, Note_on_c, 0, 85, 0
3, 427078, Note_on_c, 0, 77, 50
3, 427147, Note_on_c, 0, 81, 0
3, 427178, Note_on_c, 0, 77, 0
3, 427216, Note_on_c, 0, 73, 27
3, 427364, Note_on_c, 0, 100, 69
3, 427466, Note_on_c, 0, 100, 0
3, 428855, Note_on_c, 0, 73, 0
3, 429882, Control_c, 0, 64, 0
3, 429882, End_track
4, 0, Start_track
4, 0, Title_t, "Track 3"
4, 0, End_track
0, 0, End_of_file
