0, 0, Header, 1, 6, 120
1, 0, Start_track
1, 0, Title_t, "untitled"
1, 0, Time_signature, 4, 2, 24, 8
1, 0, Key_signature, -3, "major"
1, 0, Tempo, 333333
1, 0, Marker_t, "Manteca"
1, 0, Marker_t, "dougmck@deakin.edu.au\012"
1, 0, Marker_t, "Dizzy Gillespie\012"
1, 0, Marker_t, "Salsa feel\012"
1, 0, Marker_t, "Sequence by DougMcKenzie  dougmck@deakin.edu.au"
1, 0, End_track
2, 0, Start_track
2, 0, Title_t, "'Manteca'  by"
2, 0, Program_c, 0, 0
2, 0, Control_c, 0, 7, 127
2, 0, Control_c, 0, 10, 63
2, 476, Note_on_c, 0, 65, 62
2, 477, Note_on_c, 0, 53, 59
2, 558, Note_on_c, 0, 65, 0
2, 591, Note_on_c, 0, 53, 0
2, 596, Note_on_c, 0, 68, 80
2, 602, Note_on_c, 0, 56, 57
2, 621, Note_on_c, 0, 68, 0
2, 624, Note_on_c, 0, 56, 0
2, 714, Note_on_c, 0, 68, 62
2, 719, Note_on_c, 0, 56, 55
2, 782, Note_on_c, 0, 56, 0
2, 784, Note_on_c, 0, 70, 75
2, 787, Note_on_c, 0, 68, 0
2, 791, Note_on_c, 0, 58, 64
2, 809, Note_on_c, 0, 70, 0
2, 819, Note_on_c, 0, 58, 0
2, 902, Note_on_c, 0, 70, 99
2, 905, Note_on_c, 0, 58, 98
2, 1018, Note_on_c, 0, 56, 70
2, 1020, Note_on_c, 0, 58, 0
2, 1023, Note_on_c, 0, 70, 0
2, 1025, Note_on_c, 0, 68, 71
2, 1061, Note_on_c, 0, 68, 0
2, 1068, Note_on_c, 0, 56, 0
2, 1083, Note_on_c, 0, 65, 44
2, 1091, Note_on_c, 0, 53, 52
2, 1109, Note_on_c, 0, 65, 0
2, 1129, Note_on_c, 0, 53, 0
2, 1142, Note_on_c, 0, 70, 91
2, 1145, Note_on_c, 0, 58, 77
2, 1253, Note_on_c, 0, 70, 0
2, 1255, Note_on_c, 0, 58, 0
2, 1263, Note_on_c, 0, 56, 87
2, 1266, Note_on_c, 0, 68, 98
2, 1418, Note_on_c, 0, 68, 0
2, 1428, Note_on_c, 0, 56, 0
2, 1443, Note_on_c, 0, 65, 53
2, 1445, Note_on_c, 0, 53, 58
2, 1490, Note_on_c, 0, 65, 0
2, 1503, Note_on_c, 0, 53, 0
2, 1626, Note_on_c, 0, 56, 66
2, 1628, Note_on_c, 0, 68, 73
2, 1646, Note_on_c, 0, 68, 0
2, 1647, Note_on_c, 0, 56, 0
2, 1694, Note_on_c, 0, 68, 68
2, 1696, Note_on_c, 0, 56, 58
2, 1759, Note_on_c, 0, 70, 68
2, 1760, Note_on_c, 0, 56, 0
2, 1760, Note_on_c, 0, 68, 0
2, 1763, Note_on_c, 0, 58, 64
2, 1776, Note_on_c, 0, 70, 0
2, 1782, Note_on_c, 0, 58, 0
2, 1864, Note_on_c, 0, 70, 97
2, 1868, Note_on_c, 0, 58, 95
2, 1975, Note_on_c, 0, 58, 0
2, 1975, Note_on_c, 0, 56, 73
2, 1976, Note_on_c, 0, 70, 0
2, 1983, Note_on_c, 0, 68, 70
2, 2013, Note_on_c, 0, 68, 0
2, 2033, Note_on_c, 0, 56, 0
2, 2098, Note_on_c, 0, 65, 58
2, 2112, Note_on_c, 0, 53, 47
2, 2114, Note_on_c, 0, 65, 0
2, 2136, Note_on_c, 0, 53, 0
2, 2156, Note_on_c, 0, 70, 76
2, 2161, Note_on_c, 0, 58, 77
2, 2241, Note_on_c, 0, 70, 0
2, 2261, Note_on_c, 0, 58, 0
2, 2279, Note_on_c, 0, 56, 83
2, 2281, Note_on_c, 0, 68, 95
2, 2351, Note_on_c, 0, 68, 0
2, 2367, Note_on_c, 0, 56, 0
2, 2521, Note_on_c, 0, 65, 97
2, 2521, Note_on_c, 0, 56, 71
2, 2528, Note_on_c, 0, 62, 70
2, 2672, Note_on_c, 0, 65, 0
2, 2685, Note_on_c, 0, 56, 0
2, 2699, Note_on_c, 0, 56, 49
2, 2700, Note_on_c, 0, 68, 93
2, 2758, Note_on_c, 0, 68, 0
2, 2760, Note_on_c, 0, 56, 0
2, 2774, Note_on_c, 0, 62, 0
2, 2824, Note_on_c, 0, 56, 89
2, 2825, Note_on_c, 0, 67, 90
2, 2826, Note_on_c, 0, 70, 101
2, 2826, Note_on_c, 0, 62, 86
2, 2949, Note_on_c, 0, 67, 0
2, 2949, Note_on_c, 0, 68, 76
2, 2959, Note_on_c, 0, 70, 0
2, 2988, Note_on_c, 0, 68, 0
2, 3025, Note_on_c, 0, 56, 0
2, 3028, Note_on_c, 0, 62, 0
2, 3066, Note_on_c, 0, 70, 87
2, 3067, Note_on_c, 0, 56, 75
2, 3067, Note_on_c, 0, 62, 69
2, 3077, Note_on_c, 0, 67, 44
2, 3087, Note_on_c, 0, 67, 0
2, 3093, Note_on_c, 0, 70, 0
2, 3096, Note_on_c, 0, 62, 0
2, 3096, Note_on_c, 0, 56, 0
2, 3186, Note_on_c, 0, 68, 91
2, 3189, Note_on_c, 0, 56, 70
2, 3189, Note_on_c, 0, 62, 75
2, 3191, Note_on_c, 0, 67, 60
2, 3204, Note_on_c, 0, 67, 0
2, 3205, Note_on_c, 0, 62, 0
2, 3208, Note_on_c, 0, 68, 0
2, 3215, Note_on_c, 0, 56, 0
2, 3307, Note_on_c, 0, 70, 113
2, 3308, Note_on_c, 0, 67, 110
2, 3308, Note_on_c, 0, 62, 100
2, 3308, Note_on_c, 0, 56, 100
2, 3416, Note_on_c, 0, 67, 0
2, 3420, Note_on_c, 0, 70, 0
2, 3427, Note_on_c, 0, 68, 58
2, 3453, Note_on_c, 0, 62, 0
2, 3467, Note_on_c, 0, 68, 0
2, 3480, Note_on_c, 0, 65, 64
2, 3497, Note_on_c, 0, 65, 0
2, 3517, Note_on_c, 0, 56, 0
2, 3543, Note_on_c, 0, 70, 110
2, 3545, Note_on_c, 0, 65, 102
2, 3547, Note_on_c, 0, 60, 98
2, 3548, Note_on_c, 0, 54, 97
2, 3665, Note_on_c, 0, 68, 66
2, 3670, Note_on_c, 0, 70, 0
2, 3717, Note_on_c, 0, 60, 0
2, 3736, Note_on_c, 0, 68, 0
2, 3755, Note_on_c, 0, 65, 0
2, 3761, Note_on_c, 0, 54, 0
2, 3786, Note_on_c, 0, 63, 113
2, 3789, Note_on_c, 0, 70, 113
2, 3790, Note_on_c, 0, 53, 103
2, 3793, Note_on_c, 0, 59, 97
2, 3905, Note_on_c, 0, 68, 67
2, 3932, Note_on_c, 0, 70, 0
2, 3942, Note_on_c, 0, 59, 0
2, 3958, Note_on_c, 0, 53, 0
2, 3962, Note_on_c, 0, 65, 55
2, 3974, Note_on_c, 0, 63, 0
2, 3990, Note_on_c, 0, 68, 0
2, 3996, Note_on_c, 0, 65, 0
2, 4025, Note_on_c, 0, 63, 98
2, 4026, Note_on_c, 0, 70, 95
2, 4026, Note_on_c, 0, 68, 84
2, 4026, Note_on_c, 0, 58, 83
2, 4031, Note_on_c, 0, 52, 75
2, 4042, Note_on_c, 0, 52, 0
2, 4047, Note_on_c, 0, 68, 0
2, 4065, Note_on_c, 0, 58, 0
2, 4066, Note_on_c, 0, 63, 0
2, 4069, Note_on_c, 0, 70, 0
2, 4141, Note_on_c, 0, 68, 101
2, 4144, Note_on_c, 0, 62, 94
2, 4146, Note_on_c, 0, 51, 94
2, 4147, Note_on_c, 0, 58, 82
2, 4273, Note_on_c, 0, 51, 0
2, 4282, Note_on_c, 0, 62, 0
2, 4297, Note_on_c, 0, 58, 0
2, 4324, Note_on_c, 0, 65, 80
2, 4324, Note_on_c, 0, 58, 68
2, 4328, Note_on_c, 0, 53, 66
2, 4334, Note_on_c, 0, 68, 0
2, 4339, Note_on_c, 0, 53, 0
2, 4347, Note_on_c, 0, 65, 0
2, 4350, Note_on_c, 0, 58, 0
2, 4442, Note_on_c, 0, 68, 75
2, 4478, Note_on_c, 0, 68, 0
2, 4562, Note_on_c, 0, 68, 75
2, 4626, Note_on_c, 0, 70, 77
2, 4633, Note_on_c, 0, 63, 57
2, 4636, Note_on_c, 0, 67, 56
2, 4637, Note_on_c, 0, 68, 0
2, 4641, Note_on_c, 0, 56, 46
2, 4645, Note_on_c, 0, 60, 48
2, 4655, Note_on_c, 0, 67, 0
2, 4660, Note_on_c, 0, 60, 0
2, 4664, Note_on_c, 0, 63, 0
2, 4669, Note_on_c, 0, 56, 0
2, 4671, Note_on_c, 0, 70, 0
2, 4740, Note_on_c, 0, 70, 105
2, 4741, Note_on_c, 0, 64, 90
2, 4743, Note_on_c, 0, 67, 95
2, 4743, Note_on_c, 0, 56, 82
2, 4745, Note_on_c, 0, 60, 80
2, 4855, Note_on_c, 0, 67, 0
2, 4867, Note_on_c, 0, 70, 0
2, 4870, Note_on_c, 0, 68, 58
2, 4880, Note_on_c, 0, 64, 0
2, 4918, Note_on_c, 0, 65, 49
2, 4934, Note_on_c, 0, 68, 0
2, 4944, Note_on_c, 0, 56, 0
2, 4964, Note_on_c, 0, 65, 0
2, 4970, Note_on_c, 0, 60, 0
2, 4986, Note_on_c, 0, 63, 85
2, 4990, Note_on_c, 0, 60, 59
2, 4990, Note_on_c, 0, 70, 93
2, 4993, Note_on_c, 0, 56, 69
2, 5042, Note_on_c, 0, 63, 0
2, 5060, Note_on_c, 0, 60, 0
2, 5064, Note_on_c, 0, 56, 0
2, 5088, Note_on_c, 0, 70, 0
2, 5110, Note_on_c, 0, 63, 78
2, 5112, Note_on_c, 0, 68, 90
2, 5114, Note_on_c, 0, 56, 65
2, 5115, Note_on_c, 0, 60, 61
2, 5120, Note_on_c, 0, 63, 0
2, 5126, Note_on_c, 0, 62, 74
2, 5248, Note_on_c, 0, 60, 0
2, 5249, Note_on_c, 0, 62, 0
2, 5250, Note_on_c, 0, 56, 0
2, 5272, Note_on_c, 0, 68, 0
2, 5276, Note_on_c, 0, 62, 55
2, 5281, Note_on_c, 0, 65, 60
2, 5284, Note_on_c, 0, 60, 58
2, 5287, Note_on_c, 0, 56, 45
2, 5303, Note_on_c, 0, 60, 0
2, 5305, Note_on_c, 0, 65, 0
2, 5310, Note_on_c, 0, 62, 0
2, 5315, Note_on_c, 0, 56, 0
2, 5465, Note_on_c, 0, 63, 66
2, 5466, Note_on_c, 0, 68, 91
2, 5471, Note_on_c, 0, 56, 51
2, 5472, Note_on_c, 0, 60, 54
2, 5484, Note_on_c, 0, 60, 0
2, 5484, Note_on_c, 0, 63, 0
2, 5486, Note_on_c, 0, 56, 0
2, 5490, Note_on_c, 0, 68, 0
2, 5529, Note_on_c, 0, 63, 58
2, 5530, Note_on_c, 0, 56, 54
2, 5533, Note_on_c, 0, 68, 79
2, 5538, Note_on_c, 0, 60, 52
2, 5557, Note_on_c, 0, 60, 0
2, 5560, Note_on_c, 0, 63, 0
2, 5563, Note_on_c, 0, 56, 0
2, 5586, Note_on_c, 0, 68, 0
2, 5602, Note_on_c, 0, 70, 80
2, 5603, Note_on_c, 0, 63, 56
2, 5627, Note_on_c, 0, 70, 0
2, 5635, Note_on_c, 0, 63, 0
2, 5701, Note_on_c, 0, 64, 88
2, 5702, Note_on_c, 0, 67, 88
2, 5703, Note_on_c, 0, 70, 97
2, 5705, Note_on_c, 0, 60, 70
2, 5707, Note_on_c, 0, 56, 64
2, 5726, Note_on_c, 0, 67, 0
2, 5739, Note_on_c, 0, 70, 0
2, 5740, Note_on_c, 0, 64, 0
2, 5745, Note_on_c, 0, 56, 0
2, 5747, Note_on_c, 0, 60, 0
2, 5821, Note_on_c, 0, 64, 82
2, 5821, Note_on_c, 0, 70, 95
2, 5823, Note_on_c, 0, 67, 83
2, 5826, Note_on_c, 0, 60, 68
2, 5830, Note_on_c, 0, 56, 53
2, 5863, Note_on_c, 0, 67, 0
2, 5869, Note_on_c, 0, 70, 0
2, 5879, Note_on_c, 0, 64, 0
2, 5886, Note_on_c, 0, 68, 52
2, 5898, Note_on_c, 0, 60, 0
2, 5903, Note_on_c, 0, 56, 0
2, 5942, Note_on_c, 0, 68, 0
2, 5942, Note_on_c, 0, 65, 64
2, 5969, Note_on_c, 0, 65, 0
2, 5998, Note_on_c, 0, 63, 76
2, 6003, Note_on_c, 0, 56, 64
2, 6004, Note_on_c, 0, 60, 72
2, 6004, Note_on_c, 0, 70, 93
2, 6049, Note_on_c, 0, 60, 0
2, 6050, Note_on_c, 0, 56, 0
2, 6053, Note_on_c, 0, 63, 0
2, 6067, Note_on_c, 0, 70, 0
2, 6122, Note_on_c, 0, 63, 79
2, 6123, Note_on_c, 0, 68, 98
2, 6128, Note_on_c, 0, 56, 67
2, 6130, Note_on_c, 0, 60, 73
2, 6194, Note_on_c, 0, 63, 0
2, 6195, Note_on_c, 0, 56, 0
2, 6197, Note_on_c, 0, 60, 0
2, 6222, Note_on_c, 0, 68, 0
2, 6249, Note_on_c, 0, 65, 75
2, 6253, Note_on_c, 0, 60, 60
2, 6256, Note_on_c, 0, 62, 76
2, 6276, Note_on_c, 0, 62, 0
2, 6287, Note_on_c, 0, 65, 0
2, 6293, Note_on_c, 0, 60, 0
2, 6358, Note_on_c, 0, 68, 84
2, 6360, Note_on_c, 0, 63, 68
2, 6366, Note_on_c, 0, 60, 65
2, 6368, Note_on_c, 0, 56, 48
2, 6404, Note_on_c, 0, 60, 0
2, 6405, Note_on_c, 0, 68, 0
2, 6406, Note_on_c, 0, 56, 0
2, 6410, Note_on_c, 0, 63, 0
2, 6476, Note_on_c, 0, 63, 66
2, 6479, Note_on_c, 0, 68, 94
2, 6482, Note_on_c, 0, 56, 57
2, 6491, Note_on_c, 0, 63, 0
2, 6510, Note_on_c, 0, 56, 0
2, 6533, Note_on_c, 0, 68, 0
2, 6547, Note_on_c, 0, 70, 89
2, 6574, Note_on_c, 0, 70, 0
2, 6661, Note_on_c, 0, 70, 101
2, 6733, Note_on_c, 0, 70, 0
2, 6787, Note_on_c, 0, 68, 87
2, 6826, Note_on_c, 0, 68, 0
2, 6845, Note_on_c, 0, 65, 75
2, 6859, Note_on_c, 0, 65, 0
2, 6908, Note_on_c, 0, 70, 111
2, 6966, Note_on_c, 0, 70, 0
2, 7029, Note_on_c, 0, 68, 106
2, 7038, Note_on_c, 0, 63, 55
2, 7051, Note_on_c, 0, 60, 49
2, 7063, Note_on_c, 0, 60, 0
2, 7065, Note_on_c, 0, 63, 0
2, 7068, Note_on_c, 0, 68, 0
2, 7141, Note_on_c, 0, 56, 90
2, 7141, Note_on_c, 0, 70, 113
2, 7143, Note_on_c, 0, 63, 93
2, 7145, Note_on_c, 0, 67, 99
2, 7145, Note_on_c, 0, 60, 89
2, 7269, Note_on_c, 0, 68, 79
2, 7277, Note_on_c, 0, 67, 0
2, 7283, Note_on_c, 0, 70, 0
2, 7303, Note_on_c, 0, 63, 0
2, 7304, Note_on_c, 0, 60, 0
2, 7317, Note_on_c, 0, 68, 0
2, 7325, Note_on_c, 0, 65, 73
2, 7330, Note_on_c, 0, 56, 0
2, 7344, Note_on_c, 0, 65, 0
2, 7393, Note_on_c, 0, 70, 113
2, 7395, Note_on_c, 0, 60, 96
2, 7395, Note_on_c, 0, 58, 90
2, 7395, Note_on_c, 0, 54, 99
2, 7395, Note_on_c, 0, 65, 108
2, 7515, Note_on_c, 0, 68, 82
2, 7541, Note_on_c, 0, 70, 0
2, 7557, Note_on_c, 0, 68, 0
2, 7560, Note_on_c, 0, 60, 0
2, 7588, Note_on_c, 0, 65, 0
2, 7610, Note_on_c, 0, 58, 0
2, 7611, Note_on_c, 0, 54, 0
2, 7633, Note_on_c, 0, 70, 113
2, 7635, Note_on_c, 0, 53, 99
2, 7635, Note_on_c, 0, 64, 104
2, 7636, Note_on_c, 0, 59, 97
2, 7740, Note_on_c, 0, 68, 84
2, 7758, Note_on_c, 0, 70, 0
2, 7759, Note_on_c, 0, 64, 0
2, 7771, Note_on_c, 0, 53, 0
2, 7783, Note_on_c, 0, 68, 0
2, 7786, Note_on_c, 0, 59, 0
2, 7795, Note_on_c, 0, 65, 57
2, 7811, Note_on_c, 0, 65, 0
2, 7863, Note_on_c, 0, 63, 80
2, 7864, Note_on_c, 0, 70, 111
2, 7872, Note_on_c, 0, 56, 52
2, 7873, Note_on_c, 0, 59, 48
2, 7874, Note_on_c, 0, 63, 0
2, 7883, Note_on_c, 0, 56, 0
2, 7884, Note_on_c, 0, 59, 0
2, 7931, Note_on_c, 0, 70, 0
2, 7989, Note_on_c, 0, 68, 101
2, 8001, Note_on_c, 0, 70, 47
2, 8014, Note_on_c, 0, 70, 0
2, 8073, Note_on_c, 0, 68, 0
2, 8107, Note_on_c, 0, 70, 105
2, 8469, Note_on_c, 0, 63, 65
2, 8474, Note_on_c, 0, 54, 62
2, 8477, Note_on_c, 0, 59, 61
2, 8477, Note_on_c, 0, 58, 55
2, 8596, Note_on_c, 0, 63, 0
2, 8608, Note_on_c, 0, 59, 0
2, 8609, Note_on_c, 0, 54, 0
2, 8637, Note_on_c, 0, 63, 77
2, 8642, Note_on_c, 0, 53, 78
2, 8648, Note_on_c, 0, 59, 67
2, 8798, Note_on_c, 0, 59, 0
2, 8798, Note_on_c, 0, 63, 0
2, 8803, Note_on_c, 0, 53, 0
2, 8811, Note_on_c, 0, 70, 0
2, 8816, Note_on_c, 0, 58, 0
2, 8829, Note_on_c, 0, 63, 87
2, 8830, Note_on_c, 0, 68, 111
2, 8831, Note_on_c, 0, 59, 85
2, 8833, Note_on_c, 0, 53, 88
2, 8834, Note_on_c, 0, 58, 48
2, 8917, Note_on_c, 0, 68, 0
2, 8941, Note_on_c, 0, 68, 71
2, 8988, Note_on_c, 0, 68, 0
2, 9005, Note_on_c, 0, 66, 75
2, 9007, Note_on_c, 0, 59, 0
2, 9014, Note_on_c, 0, 63, 0
2, 9022, Note_on_c, 0, 58, 0
2, 9039, Note_on_c, 0, 66, 0
2, 9048, Note_on_c, 0, 53, 0
2, 9069, Note_on_c, 0, 66, 67
2, 9107, Note_on_c, 0, 66, 0
2, 9129, Note_on_c, 0, 58, 51
2, 9130, Note_on_c, 0, 61, 45
2, 9132, Note_on_c, 0, 65, 52
2, 9133, Note_on_c, 0, 51, 50
2, 9134, Note_on_c, 0, 56, 50
2, 9231, Note_on_c, 0, 65, 0
2, 9243, Note_on_c, 0, 77, 101
2, 9281, Note_on_c, 0, 77, 0
2, 9307, Note_on_c, 0, 58, 0
2, 9311, Note_on_c, 0, 77, 73
2, 9328, Note_on_c, 0, 61, 0
2, 9335, Note_on_c, 0, 56, 0
2, 9354, Note_on_c, 0, 77, 0
2, 9371, Note_on_c, 0, 51, 0
2, 9423, Note_on_c, 0, 72, 72
2, 9427, Note_on_c, 0, 61, 54
2, 9432, Note_on_c, 0, 56, 56
2, 9433, Note_on_c, 0, 58, 54
2, 9499, Note_on_c, 0, 56, 0
2, 9501, Note_on_c, 0, 58, 0
2, 9514, Note_on_c, 0, 61, 0
2, 9530, Note_on_c, 0, 72, 0
2, 9592, Note_on_c, 0, 61, 75
2, 9593, Note_on_c, 0, 51, 70
2, 9597, Note_on_c, 0, 58, 57
2, 9599, Note_on_c, 0, 56, 52
2, 9616, Note_on_c, 0, 61, 0
2, 9623, Note_on_c, 0, 51, 0
2, 9629, Note_on_c, 0, 58, 0
2, 9632, Note_on_c, 0, 56, 0
2, 9775, Note_on_c, 0, 61, 79
2, 9780, Note_on_c, 0, 58, 58
2, 9786, Note_on_c, 0, 56, 46
2, 9796, Note_on_c, 0, 61, 0
2, 9802, Note_on_c, 0, 56, 0
2, 9809, Note_on_c, 0, 58, 0
2, 9902, Note_on_c, 0, 87, 105
2, 9904, Note_on_c, 0, 75, 107
2, 9905, Note_on_c, 0, 61, 102
2, 9906, Note_on_c, 0, 82, 95
2, 9907, Note_on_c, 0, 58, 83
2, 9909, Note_on_c, 0, 51, 82
2, 9911, Note_on_c, 0, 56, 63
2, 9918, Note_on_c, 0, 75, 0
2, 9919, Note_on_c, 0, 82, 0
2, 9919, Note_on_c, 0, 51, 0
2, 9922, Note_on_c, 0, 58, 0
2, 9922, Note_on_c, 0, 56, 0
2, 9926, Note_on_c, 0, 61, 0
2, 9930, Note_on_c, 0, 87, 0
2, 10020, Note_on_c, 0, 87, 92
2, 10021, Note_on_c, 0, 75, 97
2, 10023, Note_on_c, 0, 82, 80
2, 10034, Note_on_c, 0, 82, 0
2, 10040, Note_on_c, 0, 75, 0
2, 10043, Note_on_c, 0, 87, 0
2, 10076, Note_on_c, 0, 66, 76
2, 10077, Note_on_c, 0, 62, 66
2, 10077, Note_on_c, 0, 56, 71
2, 10081, Note_on_c, 0, 82, 68
2, 10082, Note_on_c, 0, 76, 85
2, 10083, Note_on_c, 0, 88, 75
2, 10096, Note_on_c, 0, 82, 0
2, 10105, Note_on_c, 0, 76, 0
2, 10107, Note_on_c, 0, 88, 0
2, 10111, Note_on_c, 0, 66, 0
2, 10115, Note_on_c, 0, 56, 0
2, 10126, Note_on_c, 0, 62, 0
2, 10141, Note_on_c, 0, 88, 79
2, 10143, Note_on_c, 0, 76, 75
2, 10144, Note_on_c, 0, 66, 60
2, 10148, Note_on_c, 0, 62, 52
2, 10151, Note_on_c, 0, 56, 43
2, 10159, Note_on_c, 0, 76, 0
2, 10163, Note_on_c, 0, 66, 0
2, 10166, Note_on_c, 0, 56, 0
2, 10168, Note_on_c, 0, 88, 0
2, 10170, Note_on_c, 0, 62, 0
2, 10200, Note_on_c, 0, 56, 72
2, 10200, Note_on_c, 0, 77, 71
2, 10202, Note_on_c, 0, 66, 71
2, 10203, Note_on_c, 0, 89, 86
2, 10205, Note_on_c, 0, 84, 78
2, 10205, Note_on_c, 0, 62, 56
2, 10209, Control_c, 0, 64, 127
2, 10209, Note_on_c, 0, 79, 52
2, 10221, Note_on_c, 0, 79, 0
2, 10274, Note_on_c, 0, 77, 0
2, 10279, Note_on_c, 0, 89, 0
2, 10285, Note_on_c, 0, 66, 0
2, 10286, Note_on_c, 0, 56, 0
2, 10286, Note_on_c, 0, 84, 0
2, 10304, Note_on_c, 0, 62, 0
2, 10329, Note_on_c, 0, 87, 94
2, 10330, Note_on_c, 0, 56, 82
2, 10330, Note_on_c, 0, 84, 91
2, 10331, Note_on_c, 0, 66, 88
2, 10332, Note_on_c, 0, 91, 95
2, 10334, Note_on_c, 0, 79, 88
2, 10334, Note_on_c, 0, 62, 88
2, 10397, Note_on_c, 0, 91, 0
2, 10398, Note_on_c, 0, 79, 0
2, 10411, Note_on_c, 0, 84, 0
2, 10419, Note_on_c, 0, 56, 0
2, 10421, Note_on_c, 0, 66, 0
2, 10430, Note_on_c, 0, 87, 0
2, 10433, Note_on_c, 0, 62, 0
2, 10446, Note_on_c, 0, 56, 82
2, 10448, Note_on_c, 0, 66, 73
2, 10451, Note_on_c, 0, 80, 87
2, 10453, Note_on_c, 0, 62, 59
2, 10454, Note_on_c, 0, 92, 97
2, 10459, Note_on_c, 0, 84, 59
2, 10462, Note_on_c, 0, 87, 43
2, 10470, Note_on_c, 0, 84, 0
2, 10471, Note_on_c, 0, 62, 0
2, 10482, Note_on_c, 0, 87, 0
2, 10490, Note_on_c, 0, 66, 0
2, 10502, Note_on_c, 0, 80, 0
2, 10511, Note_on_c, 0, 92, 0
2, 10523, Note_on_c, 0, 56, 0
2, 10556, Control_c, 0, 64, 0
2, 10562, Note_on_c, 0, 93, 99
2, 10564, Note_on_c, 0, 61, 82
2, 10565, Note_on_c, 0, 55, 91
2, 10565, Note_on_c, 0, 88, 95
2, 10565, Note_on_c, 0, 81, 94
2, 10566, Note_on_c, 0, 65, 87
2, 10575, Note_on_c, 0, 91, 49
2, 10587, Note_on_c, 0, 91, 0
2, 10602, Control_c, 0, 64, 127
2, 10603, Note_on_c, 0, 55, 0
2, 10603, Note_on_c, 0, 81, 0
2, 10609, Note_on_c, 0, 93, 0
2, 10612, Note_on_c, 0, 65, 0
2, 10621, Note_on_c, 0, 88, 0
2, 10629, Note_on_c, 0, 61, 0
2, 10651, Note_on_c, 0, 61, 74
2, 10653, Note_on_c, 0, 88, 88
2, 10653, Note_on_c, 0, 94, 98
2, 10655, Note_on_c, 0, 65, 87
2, 10655, Note_on_c, 0, 82, 88
2, 10658, Note_on_c, 0, 55, 76
2, 10658, Note_on_c, 0, 60, 77
2, 10663, Note_on_c, 0, 58, 56
2, 10688, Note_on_c, 0, 88, 0
2, 10691, Note_on_c, 0, 82, 0
2, 10701, Note_on_c, 0, 60, 0
2, 10703, Note_on_c, 0, 65, 0
2, 10705, Note_on_c, 0, 94, 0
2, 10707, Note_on_c, 0, 61, 0
2, 10708, Note_on_c, 0, 55, 0
2, 10719, Note_on_c, 0, 58, 0
2, 10760, Note_on_c, 0, 61, 97
2, 10761, Note_on_c, 0, 96, 105
2, 10762, Note_on_c, 0, 91, 97
2, 10763, Note_on_c, 0, 84, 103
2, 10763, Note_on_c, 0, 55, 100
2, 10764, Note_on_c, 0, 65, 95
2, 10765, Control_c, 0, 64, 0
2, 10796, Control_c, 0, 64, 127
2, 10803, Note_on_c, 0, 84, 0
2, 10808, Note_on_c, 0, 91, 0
2, 10809, Note_on_c, 0, 65, 0
2, 10814, Note_on_c, 0, 55, 0
2, 10816, Note_on_c, 0, 96, 0
2, 10823, Note_on_c, 0, 61, 0
2, 10875, Note_on_c, 0, 97, 96
2, 10877, Note_on_c, 0, 91, 96
2, 10877, Note_on_c, 0, 85, 97
2, 10878, Note_on_c, 0, 55, 99
2, 10878, Note_on_c, 0, 61, 96
2, 10880, Note_on_c, 0, 65, 92
2, 10886, Note_on_c, 0, 94, 54
2, 10896, Note_on_c, 0, 94, 0
2, 10900, Note_on_c, 0, 65, 0
2, 10910, Note_on_c, 0, 85, 0
2, 10913, Note_on_c, 0, 55, 0
2, 10913, Note_on_c, 0, 91, 0
2, 10920, Note_on_c, 0, 61, 0
2, 10924, Note_on_c, 0, 97, 0
2, 11007, Note_on_c, 0, 99, 103
2, 11008, Note_on_c, 0, 87, 114
2, 11013, Note_on_c, 0, 97, 91
2, 11016, Note_on_c, 0, 60, 98
2, 11017, Note_on_c, 0, 53, 97
2, 11021, Note_on_c, 0, 63, 89
2, 11023, Note_on_c, 0, 97, 0
2, 11032, Control_c, 0, 64, 0
2, 11140, Control_c, 0, 64, 127
2, 11162, Note_on_c, 0, 63, 0
2, 11178, Note_on_c, 0, 60, 0
2, 11183, Note_on_c, 0, 99, 0
2, 11184, Note_on_c, 0, 53, 0
2, 11194, Note_on_c, 0, 87, 0
2, 11227, Note_on_c, 0, 99, 106
2, 11228, Note_on_c, 0, 87, 112
2, 11228, Note_on_c, 0, 63, 104
2, 11230, Note_on_c, 0, 60, 94
2, 11232, Note_on_c, 0, 53, 98
2, 11232, Note_on_c, 0, 58, 83
2, 11247, Control_c, 0, 64, 0
2, 11273, Note_on_c, 0, 99, 0
2, 11274, Control_c, 0, 64, 127
2, 11284, Note_on_c, 0, 53, 0
2, 11286, Note_on_c, 0, 63, 0
2, 11289, Note_on_c, 0, 87, 0
2, 11298, Note_on_c, 0, 58, 0
2, 11303, Note_on_c, 0, 60, 0
2, 11351, Note_on_c, 0, 53, 88
2, 11352, Note_on_c, 0, 60, 88
2, 11352, Note_on_c, 0, 63, 94
2, 11353, Note_on_c, 0, 96, 103
2, 11356, Note_on_c, 0, 84, 100
2, 11357, Note_on_c, 0, 58, 69
2, 11363, Note_on_c, 0, 86, 72
2, 11375, Note_on_c, 0, 86, 0
2, 11384, Note_on_c, 0, 96, 0
2, 11388, Note_on_c, 0, 84, 0
2, 11412, Note_on_c, 0, 94, 85
2, 11427, Note_on_c, 0, 58, 0
2, 11437, Note_on_c, 0, 53, 0
2, 11442, Note_on_c, 0, 60, 0
2, 11442, Note_on_c, 0, 63, 0
2, 11452, Note_on_c, 0, 94, 0
2, 11471, Note_on_c, 0, 92, 97
2, 11474, Note_on_c, 0, 63, 73
2, 11474, Note_on_c, 0, 94, 62
2, 11477, Note_on_c, 0, 60, 64
2, 11479, Note_on_c, 0, 53, 65
2, 11483, Note_on_c, 0, 58, 55
2, 11486, Note_on_c, 0, 94, 0
2, 11494, Note_on_c, 0, 53, 0
2, 11497, Note_on_c, 0, 63, 0
2, 11505, Note_on_c, 0, 58, 0
2, 11509, Note_on_c, 0, 60, 0
2, 11510, Note_on_c, 0, 92, 0
2, 11537, Note_on_c, 0, 90, 90
2, 11540, Note_on_c, 0, 63, 84
2, 11541, Note_on_c, 0, 60, 74
2, 11543, Note_on_c, 0, 58, 58
2, 11544, Note_on_c, 0, 53, 82
2, 11550, Control_c, 0, 64, 0
2, 11554, Note_on_c, 0, 91, 86
2, 11605, Note_on_c, 0, 91, 0
2, 11607, Note_on_c, 0, 90, 0
2, 11622, Control_c, 0, 64, 127
2, 11635, Note_on_c, 0, 63, 0
2, 11635, Note_on_c, 0, 87, 77
2, 11654, Note_on_c, 0, 60, 0
2, 11660, Note_on_c, 0, 58, 0
2, 11667, Note_on_c, 0, 53, 0
2, 11688, Note_on_c, 0, 87, 0
2, 11709, Note_on_c, 0, 63, 95
2, 11710, Note_on_c, 0, 53, 78
2, 11712, Note_on_c, 0, 89, 110
2, 11713, Note_on_c, 0, 60, 87
2, 11713, Note_on_c, 0, 58, 72
2, 11720, Control_c, 0, 64, 0
2, 11759, Control_c, 0, 64, 127
2, 11792, Note_on_c, 0, 60, 0
2, 11799, Note_on_c, 0, 58, 0
2, 11804, Note_on_c, 0, 53, 0
2, 11832, Note_on_c, 0, 89, 0
2, 11839, Note_on_c, 0, 87, 103
2, 11842, Note_on_c, 0, 60, 69
2, 11848, Note_on_c, 0, 58, 59
2, 11864, Control_c, 0, 64, 0
2, 11876, Note_on_c, 0, 87, 0
2, 11884, Note_on_c, 0, 60, 0
2, 11891, Control_c, 0, 64, 127
2, 11900, Note_on_c, 0, 63, 0
2, 11928, Note_on_c, 0, 58, 0
2, 11957, Note_on_c, 0, 54, 94
2, 11957, Note_on_c, 0, 58, 79
2, 11957, Note_on_c, 0, 63, 99
2, 11960, Note_on_c, 0, 59, 99
2, 11961, Note_on_c, 0, 87, 100
2, 11964, Note_on_c, 0, 99, 110
2, 11980, Control_c, 0, 64, 0
2, 12019, Control_c, 0, 64, 127
2, 12093, Note_on_c, 0, 59, 0
2, 12093, Note_on_c, 0, 63, 0
2, 12107, Note_on_c, 0, 58, 0
2, 12109, Note_on_c, 0, 54, 0
2, 12133, Note_on_c, 0, 63, 101
2, 12135, Note_on_c, 0, 58, 74
2, 12136, Note_on_c, 0, 59, 100
2, 12161, Control_c, 0, 64, 0
2, 12243, Control_c, 0, 64, 127
2, 12250, Note_on_c, 0, 54, 91
2, 12259, Note_on_c, 0, 87, 0
2, 12263, Note_on_c, 0, 99, 0
2, 12294, Note_on_c, 0, 54, 0
2, 12315, Note_on_c, 0, 54, 85
2, 12315, Control_c, 0, 64, 0
2, 12349, Control_c, 0, 64, 127
2, 12374, Note_on_c, 0, 54, 0
2, 12402, Note_on_c, 0, 58, 0
2, 12406, Note_on_c, 0, 63, 0
2, 12409, Control_c, 0, 64, 0
2, 12421, Note_on_c, 0, 53, 100
2, 12458, Control_c, 0, 64, 127
2, 12491, Note_on_c, 0, 59, 0
2, 12542, Note_on_c, 0, 63, 90
2, 12543, Note_on_c, 0, 59, 80
2, 12544, Note_on_c, 0, 76, 110
2, 12546, Note_on_c, 0, 58, 60
2, 12549, Note_on_c, 0, 75, 83
2, 12549, Control_c, 0, 64, 0
2, 12575, Note_on_c, 0, 75, 0
2, 12606, Control_c, 0, 64, 127
2, 12654, Control_c, 0, 64, 0
2, 12659, Note_on_c, 0, 59, 0
2, 12685, Note_on_c, 0, 59, 34
2, 12700, Control_c, 0, 64, 127
2, 12741, Note_on_c, 0, 59, 0
2, 12744, Note_on_c, 0, 63, 0
2, 12784, Note_on_c, 0, 63, 88
2, 12785, Note_on_c, 0, 74, 102
2, 12790, Note_on_c, 0, 59, 74
2, 12803, Note_on_c, 0, 76, 0
2, 12809, Control_c, 0, 64, 0
2, 12823, Note_on_c, 0, 63, 0
2, 12842, Note_on_c, 0, 74, 0
2, 12850, Note_on_c, 0, 63, 53
2, 12854, Note_on_c, 0, 73, 84
2, 12857, Control_c, 0, 64, 127
2, 12884, Note_on_c, 0, 59, 0
2, 12885, Note_on_c, 0, 58, 0
2, 12887, Note_on_c, 0, 53, 0
2, 12888, Note_on_c, 0, 63, 0
2, 12928, Note_on_c, 0, 73, 0
2, 12965, Note_on_c, 0, 54, 70
2, 12967, Note_on_c, 0, 63, 51
2, 12968, Note_on_c, 0, 70, 77
2, 12969, Note_on_c, 0, 61, 71
2, 12981, Control_c, 0, 64, 0
2, 12981, Note_on_c, 0, 58, 48
2, 13060, Control_c, 0, 64, 127
2, 13063, Note_on_c, 0, 63, 0
2, 13082, Note_on_c, 0, 54, 0
2, 13082, Note_on_c, 0, 58, 0
2, 13092, Note_on_c, 0, 61, 0
2, 13116, Note_on_c, 0, 70, 0
2, 13143, Note_on_c, 0, 63, 76
2, 13143, Note_on_c, 0, 66, 97
2, 13145, Note_on_c, 0, 54, 74
2, 13147, Note_on_c, 0, 61, 66
2, 13152, Note_on_c, 0, 58, 56
2, 13184, Note_on_c, 0, 63, 0
2, 13193, Note_on_c, 0, 54, 0
2, 13197, Note_on_c, 0, 61, 0
2, 13199, Note_on_c, 0, 58, 0
2, 13208, Note_on_c, 0, 66, 0
2, 13265, Note_on_c, 0, 68, 91
2, 13266, Note_on_c, 0, 54, 75
2, 13268, Note_on_c, 0, 61, 66
2, 13271, Note_on_c, 0, 58, 59
2, 13281, Control_c, 0, 64, 0
2, 13288, Note_on_c, 0, 61, 0
2, 13295, Note_on_c, 0, 68, 0
2, 13296, Note_on_c, 0, 58, 0
2, 13305, Control_c, 0, 64, 127
2, 13307, Note_on_c, 0, 54, 0
2, 13386, Note_on_c, 0, 69, 97
2, 13387, Control_c, 0, 64, 0
2, 13387, Note_on_c, 0, 61, 91
2, 13388, Note_on_c, 0, 57, 93
2, 13388, Note_on_c, 0, 64, 91
2, 13436, Control_c, 0, 64, 127
2, 13507, Note_on_c, 0, 53, 68
2, 13514, Control_c, 0, 64, 0
2, 13518, Note_on_c, 0, 53, 0
2, 13536, Control_c, 0, 64, 127
2, 13542, Note_on_c, 0, 64, 0
2, 13566, Note_on_c, 0, 57, 0
2, 13577, Note_on_c, 0, 69, 0
2, 13585, Note_on_c, 0, 61, 0
2, 13626, Note_on_c, 0, 53, 97
2, 13627, Note_on_c, 0, 65, 97
2, 13628, Note_on_c, 0, 61, 94
2, 13631, Note_on_c, 0, 57, 97
2, 13638, Control_c, 0, 64, 0
2, 13683, Note_on_c, 0, 61, 0
2, 13684, Note_on_c, 0, 57, 0
2, 13684, Control_c, 0, 64, 127
2, 13698, Note_on_c, 0, 65, 0
2, 13713, Note_on_c, 0, 53, 0
2, 13744, Control_c, 0, 64, 0
2, 13748, Note_on_c, 0, 66, 92
2, 13750, Note_on_c, 0, 61, 97
2, 13750, Note_on_c, 0, 54, 90
2, 13753, Note_on_c, 0, 57, 91
2, 13793, Note_on_c, 0, 57, 0
2, 13793, Control_c, 0, 64, 127
2, 13810, Note_on_c, 0, 61, 0
2, 13847, Note_on_c, 0, 66, 0
2, 13858, Note_on_c, 0, 55, 77
2, 13867, Note_on_c, 0, 54, 0
2, 13869, Note_on_c, 0, 68, 101
2, 13871, Note_on_c, 0, 56, 95
2, 13871, Note_on_c, 0, 63, 102
2, 13872, Note_on_c, 0, 55, 0
2, 13873, Note_on_c, 0, 60, 97
2, 13875, Control_c, 0, 64, 0
2, 13920, Control_c, 0, 64, 127
2, 13930, Note_on_c, 0, 63, 0
2, 13952, Note_on_c, 0, 60, 0
2, 13973, Note_on_c, 0, 68, 0
2, 13974, Note_on_c, 0, 56, 0
2, 13987, Note_on_c, 0, 63, 78
2, 13991, Note_on_c, 0, 60, 85
2, 14001, Note_on_c, 0, 53, 78
2, 14002, Control_c, 0, 64, 0
2, 14035, Control_c, 0, 64, 127
2, 14041, Note_on_c, 0, 53, 0
2, 14065, Note_on_c, 0, 60, 0
2, 14088, Note_on_c, 0, 63, 0
2, 14104, Note_on_c, 0, 52, 76
2, 14115, Note_on_c, 0, 52, 0
2, 14116, Control_c, 0, 64, 0
2, 14141, Control_c, 0, 64, 127
2, 14234, Note_on_c, 0, 69, 115
2, 14237, Note_on_c, 0, 57, 86
2, 14259, Control_c, 0, 64, 0
2, 14264, Note_on_c, 0, 69, 0
2, 14277, Note_on_c, 0, 57, 0
2, 14290, Control_c, 0, 64, 127
2, 14291, Note_on_c, 0, 58, 81
2, 14293, Note_on_c, 0, 70, 54
2, 14302, Note_on_c, 0, 70, 0
2, 14308, Note_on_c, 0, 58, 0
2, 14400, Note_on_c, 0, 82, 100
2, 14401, Note_on_c, 0, 77, 98
2, 14402, Note_on_c, 0, 66, 97
2, 14405, Note_on_c, 0, 74, 96
2, 14406, Note_on_c, 0, 56, 89
2, 14407, Control_c, 0, 64, 0
2, 14409, Note_on_c, 0, 62, 77
2, 14420, Note_on_c, 0, 62, 0
2, 14445, Note_on_c, 0, 62, 37
2, 14489, Control_c, 0, 64, 127
2, 14503, Note_on_c, 0, 82, 0
2, 14503, Note_on_c, 0, 77, 0
2, 14506, Note_on_c, 0, 66, 0
2, 14507, Note_on_c, 0, 74, 0
2, 14525, Note_on_c, 0, 56, 0
2, 14538, Note_on_c, 0, 62, 0
2, 14584, Note_on_c, 0, 80, 87
2, 14588, Note_on_c, 0, 75, 93
2, 14589, Note_on_c, 0, 70, 92
2, 14590, Note_on_c, 0, 66, 91
2, 14592, Note_on_c, 0, 56, 83
2, 14595, Note_on_c, 0, 62, 73
2, 14601, Control_c, 0, 64, 0
2, 14606, Note_on_c, 0, 62, 0
2, 14637, Control_c, 0, 64, 127
2, 14645, Note_on_c, 0, 75, 0
2, 14648, Note_on_c, 0, 66, 0
2, 14648, Note_on_c, 0, 80, 0
2, 14649, Note_on_c, 0, 70, 0
2, 14655, Note_on_c, 0, 56, 0
2, 14752, Note_on_c, 0, 78, 94
2, 14753, Note_on_c, 0, 66, 97
2, 14754, Note_on_c, 0, 70, 95
2, 14755, Note_on_c, 0, 73, 84
2, 14755, Note_on_c, 0, 61, 76
2, 14755, Note_on_c, 0, 65, 90
2, 14756, Note_on_c, 0, 58, 72
2, 14757, Note_on_c, 0, 54, 80
2, 14769, Control_c, 0, 64, 0
2, 14835, Control_c, 0, 64, 127
2, 14882, Note_on_c, 0, 65, 0
2, 14889, Note_on_c, 0, 54, 0
2, 14906, Note_on_c, 0, 58, 0
2, 14911, Note_on_c, 0, 61, 0
2, 14952, Note_on_c, 0, 54, 75
2, 14952, Note_on_c, 0, 61, 77
2, 14953, Note_on_c, 0, 58, 66
2, 14953, Note_on_c, 0, 65, 77
2, 14972, Control_c, 0, 64, 0
2, 14973, Note_on_c, 0, 65, 0
2, 14980, Note_on_c, 0, 54, 0
2, 14992, Note_on_c, 0, 61, 0
2, 14994, Note_on_c, 0, 58, 0
2, 15118, Control_c, 0, 64, 127
2, 15124, Note_on_c, 0, 61, 77
2, 15124, Note_on_c, 0, 54, 84
2, 15125, Note_on_c, 0, 58, 69
2, 15125, Note_on_c, 0, 65, 86
2, 15150, Note_on_c, 0, 65, 0
2, 15211, Note_on_c, 0, 54, 0
2, 15213, Note_on_c, 0, 66, 0
2, 15215, Note_on_c, 0, 58, 0
2, 15222, Note_on_c, 0, 70, 0
2, 15223, Note_on_c, 0, 61, 0
2, 15244, Note_on_c, 0, 73, 0
2, 15310, Note_on_c, 0, 68, 92
2, 15311, Note_on_c, 0, 64, 88
2, 15312, Note_on_c, 0, 61, 73
2, 15313, Note_on_c, 0, 57, 75
2, 15321, Control_c, 0, 64, 0
2, 15350, Note_on_c, 0, 57, 0
2, 15356, Note_on_c, 0, 64, 0
2, 15356, Note_on_c, 0, 68, 0
2, 15368, Note_on_c, 0, 61, 0
2, 15475, Note_on_c, 0, 63, 81
2, 15475, Note_on_c, 0, 68, 94
2, 15477, Note_on_c, 0, 57, 86
2, 15478, Note_on_c, 0, 61, 68
2, 15566, Control_c, 0, 64, 127
2, 15588, Note_on_c, 0, 57, 0
2, 15597, Note_on_c, 0, 63, 0
2, 15598, Note_on_c, 0, 68, 0
2, 15599, Note_on_c, 0, 78, 0
2, 15607, Note_on_c, 0, 61, 0
2, 15654, Note_on_c, 0, 68, 91
2, 15657, Note_on_c, 0, 57, 81
2, 15661, Note_on_c, 0, 63, 68
2, 15661, Note_on_c, 0, 61, 54
2, 15704, Note_on_c, 0, 68, 0
2, 15727, Note_on_c, 0, 57, 0
2, 15787, Note_on_c, 0, 63, 0
2, 15795, Note_on_c, 0, 61, 0
2, 15836, Note_on_c, 0, 63, 54
2, 15838, Note_on_c, 0, 65, 66
2, 15841, Note_on_c, 0, 56, 54
2, 15843, Note_on_c, 0, 60, 58
2, 15847, Control_c, 0, 64, 0
2, 15876, Note_on_c, 0, 65, 0
2, 15877, Note_on_c, 0, 60, 0
2, 15880, Note_on_c, 0, 63, 0
2, 15886, Note_on_c, 0, 56, 0
2, 16015, Note_on_c, 0, 68, 71
2, 16023, Note_on_c, 0, 56, 43
2, 16028, Note_on_c, 0, 63, 41
2, 16028, Note_on_c, 0, 60, 40
2, 16039, Note_on_c, 0, 68, 0
2, 16041, Note_on_c, 0, 60, 0
2, 16043, Note_on_c, 0, 63, 0
2, 16051, Note_on_c, 0, 56, 0
2, 16079, Note_on_c, 0, 68, 73
2, 16080, Note_on_c, 0, 56, 54
2, 16084, Note_on_c, 0, 63, 53
2, 16087, Note_on_c, 0, 60, 54
2, 16104, Control_c, 0, 64, 127
2, 16110, Note_on_c, 0, 60, 0
2, 16116, Note_on_c, 0, 63, 0
2, 16116, Note_on_c, 0, 56, 0
2, 16128, Note_on_c, 0, 68, 0
2, 16134, Control_c, 0, 64, 0
2, 16147, Note_on_c, 0, 70, 70
2, 16148, Note_on_c, 0, 63, 45
2, 16149, Note_on_c, 0, 67, 48
2, 16164, Note_on_c, 0, 67, 0
2, 16166, Note_on_c, 0, 70, 0
2, 16171, Note_on_c, 0, 63, 0
2, 16195, Control_c, 0, 64, 127
2, 16246, Control_c, 0, 64, 0
2, 16262, Note_on_c, 0, 67, 84
2, 16263, Note_on_c, 0, 63, 68
2, 16264, Note_on_c, 0, 60, 69
2, 16265, Note_on_c, 0, 70, 95
2, 16266, Note_on_c, 0, 56, 57
2, 16287, Note_on_c, 0, 67, 0
2, 16298, Note_on_c, 0, 70, 0
2, 16300, Note_on_c, 0, 63, 0
2, 16301, Note_on_c, 0, 60, 0
2, 16302, Note_on_c, 0, 56, 0
2, 16379, Note_on_c, 0, 68, 81
2, 16385, Note_on_c, 0, 63, 54
2, 16386, Note_on_c, 0, 60, 59
2, 16390, Note_on_c, 0, 56, 49
2, 16401, Note_on_c, 0, 60, 0
2, 16405, Note_on_c, 0, 63, 0
2, 16413, Note_on_c, 0, 56, 0
2, 16417, Note_on_c, 0, 68, 0
2, 16439, Note_on_c, 0, 65, 64
2, 16461, Note_on_c, 0, 65, 0
2, 16464, Control_c, 0, 64, 127
2, 16491, Control_c, 0, 64, 0
2, 16506, Note_on_c, 0, 68, 91
2, 16508, Note_on_c, 0, 63, 71
2, 16513, Note_on_c, 0, 56, 52
2, 16515, Note_on_c, 0, 60, 57
2, 16526, Note_on_c, 0, 60, 0
2, 16529, Note_on_c, 0, 68, 0
2, 16530, Note_on_c, 0, 56, 0
2, 16536, Note_on_c, 0, 63, 0
2, 16552, Control_c, 0, 64, 127
2, 16610, Control_c, 0, 64, 0
2, 16624, Note_on_c, 0, 63, 91
2, 16625, Note_on_c, 0, 70, 104
2, 16625, Note_on_c, 0, 61, 87
2, 16627, Note_on_c, 0, 57, 93
2, 16679, Control_c, 0, 64, 127
2, 16758, Note_on_c, 0, 57, 0
2, 16778, Note_on_c, 0, 61, 0
2, 16793, Note_on_c, 0, 70, 0
2, 16800, Control_c, 0, 64, 0
2, 16814, Note_on_c, 0, 56, 51
2, 16814, Note_on_c, 0, 60, 61
2, 16826, Note_on_c, 0, 60, 0
2, 16837, Note_on_c, 0, 56, 0
2, 16843, Note_on_c, 0, 63, 0
2, 16916, Note_on_c, 0, 65, 81
2, 16918, Note_on_c, 0, 63, 57
2, 16925, Note_on_c, 0, 60, 53
2, 16942, Note_on_c, 0, 60, 0
2, 16948, Note_on_c, 0, 65, 0
2, 16954, Note_on_c, 0, 63, 0
2, 17030, Control_c, 0, 64, 127
2, 17034, Note_on_c, 0, 68, 83
2, 17034, Note_on_c, 0, 63, 55
2, 17039, Note_on_c, 0, 60, 52
2, 17044, Note_on_c, 0, 56, 39
2, 17058, Note_on_c, 0, 56, 0
2, 17059, Note_on_c, 0, 60, 0
2, 17067, Note_on_c, 0, 63, 0
2, 17068, Note_on_c, 0, 68, 0
2, 17076, Control_c, 0, 64, 0
2, 17106, Note_on_c, 0, 70, 85
2, 17113, Note_on_c, 0, 63, 56
2, 17116, Note_on_c, 0, 56, 49
2, 17119, Note_on_c, 0, 60, 54
2, 17130, Note_on_c, 0, 60, 0
2, 17136, Note_on_c, 0, 63, 0
2, 17137, Note_on_c, 0, 56, 0
2, 17137, Note_on_c, 0, 70, 0
2, 17139, Control_c, 0, 64, 127
2, 17197, Control_c, 0, 64, 0
2, 17217, Note_on_c, 0, 63, 70
2, 17220, Note_on_c, 0, 70, 94
2, 17222, Note_on_c, 0, 60, 65
2, 17224, Note_on_c, 0, 56, 55
2, 17245, Control_c, 0, 64, 127
2, 17255, Note_on_c, 0, 70, 0
2, 17257, Note_on_c, 0, 60, 0
2, 17264, Note_on_c, 0, 56, 0
2, 17268, Note_on_c, 0, 63, 0
2, 17339, Note_on_c, 0, 73, 91
2, 17340, Note_on_c, 0, 76, 92
2, 17342, Note_on_c, 0, 64, 91
2, 17345, Note_on_c, 0, 56, 84
2, 17345, Note_on_c, 0, 60, 90
2, 17352, Control_c, 0, 64, 0
2, 17360, Note_on_c, 0, 72, 71
2, 17375, Note_on_c, 0, 73, 0
2, 17397, Control_c, 0, 64, 127
2, 17409, Note_on_c, 0, 72, 0
2, 17423, Note_on_c, 0, 76, 0
2, 17433, Note_on_c, 0, 56, 0
2, 17435, Note_on_c, 0, 64, 0
2, 17442, Control_c, 0, 64, 0
2, 17446, Note_on_c, 0, 60, 0
2, 17457, Note_on_c, 0, 79, 95
2, 17460, Note_on_c, 0, 56, 58
2, 17460, Note_on_c, 0, 67, 96
2, 17460, Note_on_c, 0, 76, 76
2, 17460, Note_on_c, 0, 72, 99
2, 17460, Note_on_c, 0, 64, 93
2, 17462, Note_on_c, 0, 60, 51
2, 17463, Note_on_c, 0, 68, 91
2, 17466, Note_on_c, 0, 77, 74
2, 17497, Control_c, 0, 64, 127
2, 17502, Note_on_c, 0, 77, 0
2, 17502, Note_on_c, 0, 72, 0
2, 17502, Note_on_c, 0, 67, 0
2, 17506, Note_on_c, 0, 79, 0
2, 17507, Note_on_c, 0, 68, 0
2, 17510, Note_on_c, 0, 64, 0
2, 17517, Note_on_c, 0, 76, 0
2, 17546, Note_on_c, 0, 56, 0
2, 17551, Note_on_c, 0, 60, 0
2, 17584, Note_on_c, 0, 80, 87
2, 17587, Note_on_c, 0, 75, 99
2, 17588, Note_on_c, 0, 68, 98
2, 17590, Note_on_c, 0, 56, 67
2, 17591, Note_on_c, 0, 60, 86
2, 17591, Note_on_c, 0, 65, 98
2, 17592, Control_c, 0, 64, 0
2, 17599, Note_on_c, 0, 63, 57
2, 17610, Note_on_c, 0, 63, 0
2, 17620, Note_on_c, 0, 65, 0
2, 17625, Control_c, 0, 64, 127
2, 17627, Note_on_c, 0, 68, 0
2, 17638, Note_on_c, 0, 75, 0
2, 17646, Note_on_c, 0, 80, 0
2, 17648, Note_on_c, 0, 56, 0
2, 17664, Note_on_c, 0, 60, 0
2, 17696, Note_on_c, 0, 82, 98
2, 17699, Note_on_c, 0, 70, 98
2, 17700, Note_on_c, 0, 75, 94
2, 17702, Note_on_c, 0, 65, 92
2, 17705, Note_on_c, 0, 56, 72
2, 17705, Note_on_c, 0, 60, 73
2, 17708, Note_on_c, 0, 63, 65
2, 17728, Note_on_c, 0, 65, 0
2, 17734, Note_on_c, 0, 56, 0
2, 17741, Note_on_c, 0, 75, 0
2, 17741, Note_on_c, 0, 70, 0
2, 17743, Note_on_c, 0, 60, 0
2, 17743, Note_on_c, 0, 63, 0
2, 17746, Note_on_c, 0, 82, 0
2, 17770, Note_on_c, 0, 63, 64
2, 17771, Note_on_c, 0, 78, 33
2, 17772, Note_on_c, 0, 77, 72
2, 17773, Control_c, 0, 64, 0
2, 17773, Note_on_c, 0, 60, 67
2, 17773, Note_on_c, 0, 67, 79
2, 17776, Note_on_c, 0, 56, 59
2, 17779, Note_on_c, 0, 80, 46
2, 17783, Note_on_c, 0, 78, 0
2, 17789, Note_on_c, 0, 80, 0
2, 17795, Note_on_c, 0, 67, 0
2, 17799, Note_on_c, 0, 77, 0
2, 17811, Note_on_c, 0, 60, 0
2, 17817, Note_on_c, 0, 63, 0
2, 17819, Note_on_c, 0, 56, 0
2, 17891, Control_c, 0, 64, 127
2, 17944, Note_on_c, 0, 65, 71
2, 17954, Note_on_c, 0, 63, 55
2, 17955, Note_on_c, 0, 60, 59
2, 17966, Note_on_c, 0, 65, 0
2, 17969, Note_on_c, 0, 60, 0
2, 17969, Control_c, 0, 64, 0
2, 17978, Note_on_c, 0, 63, 0
2, 18006, Control_c, 0, 64, 127
2, 18007, Note_on_c, 0, 63, 55
2, 18010, Note_on_c, 0, 56, 49
2, 18010, Note_on_c, 0, 68, 75
2, 18041, Note_on_c, 0, 56, 0
2, 18046, Note_on_c, 0, 68, 0
2, 18046, Note_on_c, 0, 63, 0
2, 18072, Control_c, 0, 64, 0
2, 18074, Note_on_c, 0, 70, 89
2, 18081, Note_on_c, 0, 63, 65
2, 18085, Note_on_c, 0, 56, 55
2, 18086, Note_on_c, 0, 60, 65
2, 18100, Note_on_c, 0, 60, 0
2, 18104, Note_on_c, 0, 70, 0
2, 18108, Note_on_c, 0, 56, 0
2, 18108, Note_on_c, 0, 63, 0
2, 18127, Control_c, 0, 64, 127
2, 18172, Control_c, 0, 64, 0
2, 18184, Note_on_c, 0, 70, 106
2, 18189, Note_on_c, 0, 63, 82
2, 18189, Note_on_c, 0, 60, 83
2, 18189, Note_on_c, 0, 67, 96
2, 18191, Note_on_c, 0, 56, 84
2, 18230, Control_c, 0, 64, 127
2, 18235, Note_on_c, 0, 67, 0
2, 18262, Note_on_c, 0, 60, 0
2, 18262, Note_on_c, 0, 56, 0
2, 18264, Note_on_c, 0, 63, 0
2, 18294, Note_on_c, 0, 70, 0
2, 18304, Note_on_c, 0, 68, 81
2, 18306, Note_on_c, 0, 63, 59
2, 18317, Note_on_c, 0, 60, 44
2, 18330, Note_on_c, 0, 60, 0
2, 18332, Note_on_c, 0, 63, 0
2, 18339, Control_c, 0, 64, 0
2, 18347, Note_on_c, 0, 68, 0
2, 18360, Control_c, 0, 64, 127
2, 18361, Note_on_c, 0, 63, 43
2, 18362, Note_on_c, 0, 65, 66
2, 18378, Note_on_c, 0, 65, 0
2, 18382, Note_on_c, 0, 63, 0
2, 18424, Control_c, 0, 64, 0
2, 18469, Control_c, 0, 64, 127
2, 18523, Control_c, 0, 64, 0
2, 18537, Note_on_c, 0, 68, 97
2, 18544, Note_on_c, 0, 56, 59
2, 18544, Note_on_c, 0, 63, 64
2, 18545, Note_on_c, 0, 60, 63
2, 18556, Note_on_c, 0, 63, 0
2, 18558, Note_on_c, 0, 60, 0
2, 18561, Note_on_c, 0, 68, 0
2, 18571, Note_on_c, 0, 56, 0
2, 18584, Control_c, 0, 64, 127
2, 18665, Note_on_c, 0, 94, 103
2, 18665, Note_on_c, 0, 82, 103
2, 18669, Note_on_c, 0, 56, 94
2, 18673, Note_on_c, 0, 62, 96
2, 18673, Note_on_c, 0, 67, 95
2, 18675, Control_c, 0, 64, 0
2, 18679, Note_on_c, 0, 65, 82
2, 18689, Note_on_c, 0, 65, 0
2, 18695, Note_on_c, 0, 67, 0
2, 18711, Control_c, 0, 64, 127
2, 18720, Note_on_c, 0, 62, 0
2, 18725, Note_on_c, 0, 56, 0
2, 18739, Note_on_c, 0, 94, 0
2, 18747, Note_on_c, 0, 82, 0
2, 18785, Note_on_c, 0, 91, 77
2, 18797, Note_on_c, 0, 62, 53
2, 18810, Note_on_c, 0, 62, 0
2, 18812, Note_on_c, 0, 91, 0
2, 18836, Control_c, 0, 64, 0
2, 18839, Note_on_c, 0, 56, 57
2, 18857, Control_c, 0, 64, 127
2, 18867, Note_on_c, 0, 56, 0
2, 18896, Control_c, 0, 64, 0
2, 18912, Note_on_c, 0, 82, 101
2, 18913, Note_on_c, 0, 94, 103
2, 18914, Note_on_c, 0, 65, 101
2, 18914, Note_on_c, 0, 54, 97
2, 18917, Note_on_c, 0, 60, 88
2, 18919, Note_on_c, 0, 58, 66
2, 18947, Control_c, 0, 64, 127
2, 18974, Note_on_c, 0, 58, 0
2, 18974, Note_on_c, 0, 65, 0
2, 18982, Note_on_c, 0, 54, 0
2, 18983, Note_on_c, 0, 94, 0
2, 18984, Note_on_c, 0, 60, 0
2, 18992, Note_on_c, 0, 82, 0
2, 19035, Note_on_c, 0, 80, 72
2, 19036, Note_on_c, 0, 92, 71
2, 19038, Note_on_c, 0, 65, 75
2, 19038, Note_on_c, 0, 60, 66
2, 19045, Note_on_c, 0, 58, 45
2, 19050, Note_on_c, 0, 65, 0
2, 19052, Note_on_c, 0, 80, 0
2, 19053, Note_on_c, 0, 92, 0
2, 19059, Note_on_c, 0, 58, 0
2, 19068, Note_on_c, 0, 60, 0
2, 19068, Control_c, 0, 64, 0
2, 19084, Note_on_c, 0, 54, 45
2, 19092, Control_c, 0, 64, 127
2, 19096, Note_on_c, 0, 60, 40
2, 19096, Note_on_c, 0, 77, 56
2, 19097, Note_on_c, 0, 58, 38
2, 19108, Note_on_c, 0, 77, 0
2, 19110, Note_on_c, 0, 60, 0
2, 19122, Note_on_c, 0, 58, 0
2, 19126, Note_on_c, 0, 54, 0
2, 19148, Control_c, 0, 64, 0
2, 19157, Note_on_c, 0, 59, 94
2, 19158, Note_on_c, 0, 82, 99
2, 19158, Note_on_c, 0, 64, 101
2, 19160, Note_on_c, 0, 94, 98
2, 19161, Note_on_c, 0, 53, 91
2, 19184, Note_on_c, 0, 94, 0
2, 19186, Control_c, 0, 64, 127
2, 19195, Note_on_c, 0, 64, 0
2, 19199, Note_on_c, 0, 82, 0
2, 19201, Note_on_c, 0, 53, 0
2, 19208, Note_on_c, 0, 59, 0
2, 19266, Note_on_c, 0, 92, 88
2, 19266, Note_on_c, 0, 80, 82
2, 19271, Note_on_c, 0, 64, 88
2, 19271, Note_on_c, 0, 59, 82
2, 19271, Note_on_c, 0, 53, 86
2, 19286, Note_on_c, 0, 80, 0
2, 19288, Note_on_c, 0, 64, 0
2, 19290, Note_on_c, 0, 92, 0
2, 19305, Note_on_c, 0, 59, 0
2, 19308, Note_on_c, 0, 53, 0
2, 19328, Note_on_c, 0, 90, 53
2, 19339, Note_on_c, 0, 90, 0
2, 19387, Control_c, 0, 64, 0
2, 19388, Note_on_c, 0, 63, 94
2, 19388, Note_on_c, 0, 58, 87
2, 19390, Note_on_c, 0, 82, 97
2, 19392, Note_on_c, 0, 94, 85
2, 19392, Note_on_c, 0, 56, 65
2, 19402, Note_on_c, 0, 94, 0
2, 19406, Note_on_c, 0, 63, 0
2, 19411, Note_on_c, 0, 82, 0
2, 19417, Control_c, 0, 64, 127
2, 19418, Note_on_c, 0, 58, 0
2, 19418, Note_on_c, 0, 56, 0
2, 19497, Note_on_c, 0, 92, 91
2, 19500, Note_on_c, 0, 80, 87
2, 19502, Note_on_c, 0, 87, 89
2, 19503, Note_on_c, 0, 62, 96
2, 19503, Note_on_c, 0, 51, 93
2, 19504, Note_on_c, 0, 57, 91
2, 19505, Control_c, 0, 64, 0
2, 19507, Note_on_c, 0, 82, 62
2, 19517, Note_on_c, 0, 82, 0
2, 19538, Note_on_c, 0, 57, 0
2, 19542, Control_c, 0, 64, 127
2, 19544, Note_on_c, 0, 51, 0
2, 19572, Note_on_c, 0, 62, 0
2, 19591, Note_on_c, 0, 87, 0
2, 19602, Note_on_c, 0, 92, 0
2, 19645, Note_on_c, 0, 80, 0
2, 19683, Note_on_c, 0, 63, 62
2, 19685, Note_on_c, 0, 67, 74
2, 19686, Note_on_c, 0, 60, 62
2, 19686, Note_on_c, 0, 56, 63
2, 19687, Note_on_c, 0, 89, 77
2, 19691, Note_on_c, 0, 77, 60
2, 19693, Control_c, 0, 64, 0
2, 19744, Note_on_c, 0, 89, 0
2, 19777, Note_on_c, 0, 77, 0
2, 19790, Control_c, 0, 64, 127
2, 19839, Note_on_c, 0, 63, 0
2, 19877, Note_on_c, 0, 63, 45
2, 19903, Note_on_c, 0, 67, 0
2, 19919, Note_on_c, 0, 79, 121
2, 19920, Note_on_c, 0, 63, 0
2, 19963, Note_on_c, 0, 79, 0
2, 19982, Note_on_c, 0, 63, 65
2, 19995, Note_on_c, 0, 75, 39
2, 19996, Control_c, 0, 64, 0
2, 20011, Note_on_c, 0, 63, 0
2, 20021, Note_on_c, 0, 56, 0
2, 20022, Note_on_c, 0, 75, 0
2, 20040, Note_on_c, 0, 72, 56
2, 20083, Note_on_c, 0, 60, 0
2, 20093, Note_on_c, 0, 72, 0
2, 20103, Note_on_c, 0, 68, 91
2, 20106, Note_on_c, 0, 63, 59
2, 20110, Note_on_c, 0, 56, 53
2, 20119, Note_on_c, 0, 60, 36
2, 20133, Note_on_c, 0, 68, 0
2, 20147, Note_on_c, 0, 63, 0
2, 20160, Note_on_c, 0, 67, 46
2, 20205, Note_on_c, 0, 67, 0
2, 20219, Note_on_c, 0, 70, 98
2, 20223, Note_on_c, 0, 63, 59
2, 20261, Note_on_c, 0, 70, 0
2, 20272, Note_on_c, 0, 63, 0
2, 20278, Note_on_c, 0, 68, 76
2, 20317, Note_on_c, 0, 60, 0
2, 20323, Note_on_c, 0, 68, 0
2, 20342, Note_on_c, 0, 56, 0
2, 20348, Note_on_c, 0, 65, 62
2, 20362, Note_on_c, 0, 65, 0
2, 20389, Control_c, 0, 64, 127
2, 20401, Note_on_c, 0, 67, 94
2, 20449, Note_on_c, 0, 67, 0
2, 20471, Note_on_c, 0, 64, 68
2, 20477, Control_c, 0, 64, 0
2, 20488, Note_on_c, 0, 64, 0
2, 20519, Control_c, 0, 64, 127
2, 20529, Note_on_c, 0, 65, 66
2, 20581, Note_on_c, 0, 65, 0
2, 20598, Note_on_c, 0, 60, 56
2, 20600, Note_on_c, 0, 41, 77
2, 20600, Note_on_c, 0, 51, 66
2, 20609, Note_on_c, 0, 51, 0
2, 20611, Note_on_c, 0, 60, 0
2, 20613, Note_on_c, 0, 41, 0
2, 20628, Control_c, 0, 64, 0
2, 20640, Note_on_c, 0, 63, 84
2, 20676, Control_c, 0, 64, 127
2, 20704, Control_c, 0, 64, 0
2, 20715, Note_on_c, 0, 56, 67
2, 20729, Note_on_c, 0, 56, 0
2, 20751, Note_on_c, 0, 63, 0
2, 20763, Note_on_c, 0, 60, 58
2, 20768, Control_c, 0, 64, 127
2, 20807, Note_on_c, 0, 60, 0
2, 20862, Control_c, 0, 64, 0
2, 20885, Control_c, 0, 64, 127
2, 20950, Note_on_c, 0, 48, 76
2, 20952, Control_c, 0, 64, 0
2, 20960, Note_on_c, 0, 48, 0
2, 21009, Control_c, 0, 64, 127
2, 21058, Control_c, 0, 64, 0
2, 21071, Note_on_c, 0, 52, 125
2, 21082, Note_on_c, 0, 58, 73
2, 21093, Note_on_c, 0, 58, 0
2, 21180, Note_on_c, 0, 52, 0
2, 21187, Note_on_c, 0, 56, 74
2, 21195, Note_on_c, 0, 60, 73
2, 21202, Note_on_c, 0, 58, 53
2, 21221, Note_on_c, 0, 60, 0
2, 21249, Note_on_c, 0, 48, 79
2, 21283, Note_on_c, 0, 48, 0
2, 21291, Note_on_c, 0, 56, 0
2, 21292, Note_on_c, 0, 58, 0
2, 21315, Note_on_c, 0, 49, 98
2, 21366, Note_on_c, 0, 49, 0
2, 21376, Control_c, 0, 64, 127
2, 21376, Note_on_c, 0, 50, 85
2, 21388, Control_c, 0, 64, 0
2, 21428, Note_on_c, 0, 50, 0
2, 21438, Note_on_c, 0, 41, 86
2, 21471, Note_on_c, 0, 41, 0
2, 21492, Note_on_c, 0, 56, 64
2, 21495, Note_on_c, 0, 60, 64
2, 21509, Note_on_c, 0, 58, 48
2, 21514, Note_on_c, 0, 60, 0
2, 21519, Note_on_c, 0, 56, 0
2, 21520, Note_on_c, 0, 58, 0
2, 21556, Note_on_c, 0, 56, 93
2, 21559, Note_on_c, 0, 60, 93
2, 21564, Note_on_c, 0, 41, 79
2, 21570, Note_on_c, 0, 60, 0
2, 21576, Note_on_c, 0, 56, 0
2, 21590, Note_on_c, 0, 41, 0
2, 21673, Note_on_c, 0, 67, 92
2, 21674, Note_on_c, 0, 63, 84
2, 21675, Note_on_c, 0, 60, 94
2, 21691, Note_on_c, 0, 60, 0
2, 21694, Control_c, 0, 64, 127
2, 21701, Note_on_c, 0, 63, 0
2, 21707, Note_on_c, 0, 67, 0
2, 21781, Control_c, 0, 64, 0
2, 21785, Note_on_c, 0, 63, 78
2, 21785, Note_on_c, 0, 60, 75
2, 21786, Note_on_c, 0, 79, 96
2, 21786, Note_on_c, 0, 67, 102
2, 21786, Note_on_c, 0, 53, 68
2, 21791, Note_on_c, 0, 56, 58
2, 21792, Note_on_c, 0, 78, 70
2, 21806, Control_c, 0, 64, 127
2, 21810, Note_on_c, 0, 53, 0
2, 21813, Note_on_c, 0, 63, 0
2, 21821, Note_on_c, 0, 60, 0
2, 21823, Note_on_c, 0, 79, 0
2, 21827, Note_on_c, 0, 67, 0
2, 21843, Note_on_c, 0, 56, 0
2, 21853, Note_on_c, 0, 78, 0
2, 21905, Note_on_c, 0, 63, 88
2, 21906, Note_on_c, 0, 80, 92
2, 21906, Note_on_c, 0, 68, 101
2, 21907, Note_on_c, 0, 60, 80
2, 21908, Note_on_c, 0, 75, 91
2, 21912, Note_on_c, 0, 56, 55
2, 21913, Note_on_c, 0, 53, 65
2, 21926, Note_on_c, 0, 53, 0
2, 21929, Note_on_c, 0, 68, 0
2, 21930, Note_on_c, 0, 63, 0
2, 21942, Note_on_c, 0, 60, 0
2, 21946, Note_on_c, 0, 75, 0
2, 21956, Note_on_c, 0, 80, 0
2, 21963, Note_on_c, 0, 56, 0
2, 22018, Control_c, 0, 64, 0
2, 22020, Note_on_c, 0, 63, 94
2, 22021, Note_on_c, 0, 82, 100
2, 22022, Note_on_c, 0, 60, 88
2, 22023, Note_on_c, 0, 70, 101
2, 22025, Note_on_c, 0, 75, 87
2, 22026, Note_on_c, 0, 53, 77
2, 22026, Note_on_c, 0, 56, 60
2, 22049, Control_c, 0, 64, 127
2, 22050, Note_on_c, 0, 75, 0
2, 22052, Note_on_c, 0, 63, 0
2, 22055, Note_on_c, 0, 70, 0
2, 22056, Note_on_c, 0, 53, 0
2, 22063, Note_on_c, 0, 82, 0
2, 22068, Note_on_c, 0, 60, 0
2, 22082, Note_on_c, 0, 56, 0
2, 22136, Note_on_c, 0, 84, 100
2, 22137, Note_on_c, 0, 63, 94
2, 22137, Control_c, 0, 64, 0
2, 22138, Note_on_c, 0, 60, 89
2, 22141, Note_on_c, 0, 56, 65
2, 22141, Note_on_c, 0, 53, 84
2, 22142, Note_on_c, 0, 79, 84
2, 22142, Note_on_c, 0, 72, 79
2, 22164, Control_c, 0, 64, 127
2, 22167, Note_on_c, 0, 72, 0
2, 22171, Note_on_c, 0, 63, 0
2, 22174, Note_on_c, 0, 53, 0
2, 22175, Note_on_c, 0, 84, 0
2, 22184, Note_on_c, 0, 60, 0
2, 22184, Note_on_c, 0, 79, 0
2, 22196, Note_on_c, 0, 56, 0
2, 22254, Note_on_c, 0, 86, 91
2, 22254, Note_on_c, 0, 60, 91
2, 22255, Note_on_c, 0, 82, 84
2, 22255, Note_on_c, 0, 79, 91
2, 22256, Note_on_c, 0, 63, 89
2, 22256, Note_on_c, 0, 74, 92
2, 22258, Note_on_c, 0, 56, 68
2, 22258, Note_on_c, 0, 53, 82
2, 22259, Control_c, 0, 64, 0
2, 22283, Note_on_c, 0, 74, 0
2, 22286, Note_on_c, 0, 63, 0
2, 22286, Control_c, 0, 64, 127
2, 22293, Note_on_c, 0, 53, 0
2, 22294, Note_on_c, 0, 79, 0
2, 22302, Note_on_c, 0, 86, 0
2, 22304, Note_on_c, 0, 60, 0
2, 22306, Note_on_c, 0, 82, 0
2, 22311, Note_on_c, 0, 56, 0
2, 22382, Note_on_c, 0, 60, 91
2, 22383, Note_on_c, 0, 63, 92
2, 22383, Note_on_c, 0, 87, 97
2, 22384, Note_on_c, 0, 75, 97
2, 22384, Note_on_c, 0, 53, 88
2, 22386, Note_on_c, 0, 56, 59
2, 22387, Note_on_c, 0, 82, 82
2, 22398, Note_on_c, 0, 82, 0
2, 22398, Note_on_c, 0, 53, 0
2, 22401, Note_on_c, 0, 75, 0
2, 22404, Note_on_c, 0, 63, 0
2, 22408, Note_on_c, 0, 87, 0
2, 22409, Note_on_c, 0, 60, 0
2, 22409, Control_c, 0, 64, 0
2, 22423, Control_c, 0, 64, 127
2, 22436, Note_on_c, 0, 53, 80
2, 22436, Note_on_c, 0, 63, 76
2, 22436, Note_on_c, 0, 60, 79
2, 22439, Note_on_c, 0, 89, 100
2, 22440, Note_on_c, 0, 77, 91
2, 22441, Note_on_c, 0, 85, 81
2, 22449, Note_on_c, 0, 79, 67
2, 22461, Note_on_c, 0, 79, 0
2, 22463, Note_on_c, 0, 85, 0
2, 22467, Note_on_c, 0, 53, 0
2, 22474, Note_on_c, 0, 60, 0
2, 22485, Note_on_c, 0, 56, 0
2, 22487, Note_on_c, 0, 77, 0
2, 22495, Note_on_c, 0, 89, 0
2, 22502, Note_on_c, 0, 63, 0
2, 22559, Note_on_c, 0, 63, 84
2, 22560, Note_on_c, 0, 91, 100
2, 22560, Note_on_c, 0, 56, 84
2, 22561, Note_on_c, 0, 79, 96
2, 22561, Note_on_c, 0, 87, 87
2, 22561, Note_on_c, 0, 67, 98
2, 22562, Note_on_c, 0, 84, 100
2, 22563, Note_on_c, 0, 60, 80
2, 22581, Control_c, 0, 64, 0
2, 22660, Control_c, 0, 64, 127
2, 22669, Note_on_c, 0, 79, 0
2, 22671, Note_on_c, 0, 91, 0
2, 22690, Note_on_c, 0, 84, 0
2, 22695, Note_on_c, 0, 87, 0
2, 22704, Note_on_c, 0, 56, 0
2, 22704, Note_on_c, 0, 67, 0
2, 22711, Note_on_c, 0, 60, 0
2, 22720, Note_on_c, 0, 63, 0
2, 22747, Note_on_c, 0, 87, 89
2, 22749, Note_on_c, 0, 63, 70
2, 22751, Note_on_c, 0, 56, 83
2, 22752, Note_on_c, 0, 67, 91
2, 22752, Note_on_c, 0, 75, 78
2, 22752, Note_on_c, 0, 60, 74
2, 22755, Note_on_c, 0, 82, 77
2, 22813, Note_on_c, 0, 82, 0
2, 22822, Note_on_c, 0, 87, 0
2, 22824, Note_on_c, 0, 67, 0
2, 22828, Note_on_c, 0, 75, 0
2, 22847, Note_on_c, 0, 56, 0
2, 22848, Note_on_c, 0, 60, 0
2, 22855, Note_on_c, 0, 63, 0
2, 22909, Note_on_c, 0, 56, 80
2, 22912, Note_on_c, 0, 63, 77
2, 22913, Note_on_c, 0, 65, 89
2, 22915, Note_on_c, 0, 89, 100
2, 22915, Note_on_c, 0, 60, 74
2, 22917, Note_on_c, 0, 84, 101
2, 22917, Note_on_c, 0, 77, 96
2, 22924, Control_c, 0, 64, 0
2, 22971, Note_on_c, 0, 89, 0
2, 22985, Note_on_c, 0, 84, 0
2, 22988, Control_c, 0, 64, 127
2, 23008, Note_on_c, 0, 77, 0
2, 23047, Note_on_c, 0, 65, 0
2, 23049, Note_on_c, 0, 56, 0
2, 23057, Note_on_c, 0, 63, 0
2, 23058, Note_on_c, 0, 60, 0
2, 23095, Note_on_c, 0, 56, 85
2, 23096, Note_on_c, 0, 63, 82
2, 23097, Note_on_c, 0, 65, 88
2, 23101, Note_on_c, 0, 60, 73
2, 23106, Control_c, 0, 64, 0
2, 23144, Control_c, 0, 64, 127
2, 23228, Note_on_c, 0, 91, 115
2, 23234, Control_c, 0, 64, 0
2, 23270, Control_c, 0, 64, 127
2, 23271, Note_on_c, 0, 91, 0
2, 23292, Note_on_c, 0, 87, 69
2, 23317, Note_on_c, 0, 87, 0
2, 23346, Note_on_c, 0, 84, 100
2, 23352, Control_c, 0, 64, 0
2, 23373, Control_c, 0, 64, 127
2, 23376, Note_on_c, 0, 84, 0
2, 23384, Note_on_c, 0, 60, 0
2, 23387, Note_on_c, 0, 56, 0
2, 23403, Note_on_c, 0, 80, 69
2, 23406, Note_on_c, 0, 65, 0
2, 23437, Note_on_c, 0, 80, 0
2, 23463, Note_on_c, 0, 79, 65
2, 23467, Note_on_c, 0, 63, 0
2, 23479, Note_on_c, 0, 79, 0
2, 23506, Control_c, 0, 64, 0
2, 23519, Note_on_c, 0, 63, 65
2, 23521, Note_on_c, 0, 82, 102
2, 23522, Note_on_c, 0, 56, 69
2, 23524, Note_on_c, 0, 67, 71
2, 23528, Note_on_c, 0, 60, 71
2, 23559, Note_on_c, 0, 67, 0
2, 23616, Note_on_c, 0, 82, 0
2, 23645, Note_on_c, 0, 80, 84
2, 23669, Note_on_c, 0, 80, 0
2, 23682, Note_on_c, 0, 82, 75
2, 23684, Note_on_c, 0, 63, 0
2, 23695, Note_on_c, 0, 60, 0
2, 23707, Note_on_c, 0, 80, 73
2, 23732, Note_on_c, 0, 82, 0
2, 23738, Note_on_c, 0, 56, 0
2, 23748, Note_on_c, 0, 80, 0
2, 23753, Note_on_c, 0, 79, 69
2, 23799, Note_on_c, 0, 79, 0
2, 23828, Note_on_c, 0, 77, 87
2, 23856, Note_on_c, 0, 77, 0
2, 23884, Note_on_c, 0, 75, 76
2, 23933, Note_on_c, 0, 75, 0
2, 23945, Note_on_c, 0, 72, 73
2, 23959, Note_on_c, 0, 72, 0
2, 24004, Note_on_c, 0, 64, 64
2, 24006, Note_on_c, 0, 56, 57
2, 24006, Note_on_c, 0, 67, 64
2, 24007, Note_on_c, 0, 76, 98
2, 24011, Note_on_c, 0, 60, 67
2, 24103, Note_on_c, 0, 76, 0
2, 24120, Note_on_c, 0, 79, 91
2, 24125, Note_on_c, 0, 67, 0
2, 24130, Note_on_c, 0, 64, 0
2, 24132, Note_on_c, 0, 60, 0
2, 24155, Note_on_c, 0, 56, 0
2, 24157, Note_on_c, 0, 79, 0
2, 24291, Note_on_c, 0, 67, 89
2, 24291, Note_on_c, 0, 63, 77
2, 24292, Note_on_c, 0, 75, 100
2, 24293, Note_on_c, 0, 56, 72
2, 24297, Note_on_c, 0, 60, 73
2, 24348, Note_on_c, 0, 75, 0
2, 24369, Note_on_c, 0, 72, 69
2, 24426, Note_on_c, 0, 67, 0
2, 24428, Note_on_c, 0, 56, 0
2, 24434, Note_on_c, 0, 72, 0
2, 24436, Note_on_c, 0, 63, 0
2, 24438, Note_on_c, 0, 60, 0
2, 24550, Note_on_c, 0, 56, 69
2, 24550, Note_on_c, 0, 62, 84
2, 24553, Note_on_c, 0, 60, 65
2, 24554, Note_on_c, 0, 67, 80
2, 24632, Note_on_c, 0, 67, 0
2, 24636, Note_on_c, 0, 56, 0
2, 24637, Note_on_c, 0, 62, 0
2, 24643, Note_on_c, 0, 60, 0
2, 24724, Note_on_c, 0, 62, 87
2, 24725, Note_on_c, 0, 67, 91
2, 24726, Note_on_c, 0, 56, 74
2, 24730, Note_on_c, 0, 60, 77
2, 24798, Note_on_c, 0, 62, 0
2, 24802, Note_on_c, 0, 67, 0
2, 24803, Note_on_c, 0, 56, 0
2, 24807, Note_on_c, 0, 60, 0
2, 24900, Note_on_c, 0, 56, 82
2, 24902, Note_on_c, 0, 63, 89
2, 24904, Note_on_c, 0, 67, 94
2, 24905, Note_on_c, 0, 60, 75
2, 24987, Note_on_c, 0, 67, 0
2, 24990, Note_on_c, 0, 63, 0
2, 25009, Note_on_c, 0, 63, 57
2, 25032, Note_on_c, 0, 88, 69
2, 25045, Note_on_c, 0, 88, 0
2, 25084, Note_on_c, 0, 91, 103
2, 25087, Note_on_c, 0, 79, 97
2, 25095, Note_on_c, 0, 63, 0
2, 25127, Note_on_c, 0, 56, 0
2, 25129, Note_on_c, 0, 60, 0
2, 25130, Note_on_c, 0, 91, 0
2, 25147, Note_on_c, 0, 90, 88
2, 25155, Note_on_c, 0, 79, 0
2, 25156, Note_on_c, 0, 63, 63
2, 25165, Note_on_c, 0, 90, 0
2, 25165, Note_on_c, 0, 67, 53
2, 25172, Note_on_c, 0, 89, 58
2, 25173, Note_on_c, 0, 60, 38
2, 25186, Note_on_c, 0, 67, 0
2, 25215, Note_on_c, 0, 89, 0
2, 25221, Note_on_c, 0, 88, 85
2, 25236, Note_on_c, 0, 63, 0
2, 25239, Note_on_c, 0, 88, 0
2, 25242, Note_on_c, 0, 60, 0
2, 25281, Note_on_c, 0, 64, 88
2, 25283, Note_on_c, 0, 60, 71
2, 25283, Note_on_c, 0, 67, 86
2, 25283, Note_on_c, 0, 56, 66
2, 25442, Note_on_c, 0, 67, 0
2, 25447, Note_on_c, 0, 56, 0
2, 25450, Note_on_c, 0, 64, 0
2, 25455, Note_on_c, 0, 60, 0
2, 25495, Note_on_c, 0, 64, 76
2, 25496, Note_on_c, 0, 67, 79
2, 25496, Note_on_c, 0, 56, 70
2, 25499, Note_on_c, 0, 60, 61
2, 25501, Note_on_c, 0, 91, 107
2, 25502, Note_on_c, 0, 79, 108
2, 25551, Note_on_c, 0, 79, 0
2, 25575, Note_on_c, 0, 60, 0
2, 25582, Note_on_c, 0, 56, 0
2, 25583, Note_on_c, 0, 67, 0
2, 25584, Note_on_c, 0, 89, 68
2, 25588, Note_on_c, 0, 91, 0
2, 25591, Note_on_c, 0, 64, 0
2, 25609, Note_on_c, 0, 88, 38
2, 25620, Note_on_c, 0, 84, 83
2, 25625, Note_on_c, 0, 89, 0
2, 25631, Note_on_c, 0, 88, 0
2, 25636, Note_on_c, 0, 90, 56
2, 25642, Note_on_c, 0, 84, 0
2, 25646, Note_on_c, 0, 90, 0
2, 25688, Note_on_c, 0, 67, 93
2, 25689, Note_on_c, 0, 60, 82
2, 25689, Note_on_c, 0, 56, 72
2, 25691, Note_on_c, 0, 91, 114
2, 25692, Note_on_c, 0, 63, 80
2, 25733, Note_on_c, 0, 91, 0
2, 25759, Note_on_c, 0, 90, 87
2, 25774, Note_on_c, 0, 63, 0
2, 25777, Note_on_c, 0, 90, 0
2, 25785, Note_on_c, 0, 89, 59
2, 25800, Note_on_c, 0, 67, 0
2, 25819, Note_on_c, 0, 56, 0
2, 25831, Note_on_c, 0, 60, 0
2, 25833, Note_on_c, 0, 89, 0
2, 25871, Note_on_c, 0, 63, 79
2, 25873, Note_on_c, 0, 67, 88
2, 25873, Note_on_c, 0, 56, 79
2, 25876, Note_on_c, 0, 60, 74
2, 25878, Note_on_c, 0, 87, 105
2, 25964, Note_on_c, 0, 63, 0
2, 25964, Note_on_c, 0, 86, 83
2, 25977, Note_on_c, 0, 67, 0
2, 25984, Note_on_c, 0, 87, 0
2, 25988, Note_on_c, 0, 85, 73
2, 25994, Note_on_c, 0, 63, 45
2, 25996, Note_on_c, 0, 60, 0
2, 26000, Note_on_c, 0, 86, 0
2, 26010, Note_on_c, 0, 56, 0
2, 26024, Note_on_c, 0, 84, 77
2, 26025, Note_on_c, 0, 85, 0
2, 26051, Note_on_c, 0, 63, 0
2, 26062, Note_on_c, 0, 84, 0
2, 26094, Note_on_c, 0, 67, 67
2, 26094, Note_on_c, 0, 63, 55
2, 26095, Note_on_c, 0, 82, 78
2, 26096, Note_on_c, 0, 56, 60
2, 26109, Note_on_c, 0, 60, 44
2, 26134, Note_on_c, 0, 67, 0
2, 26137, Note_on_c, 0, 82, 0
2, 26174, Note_on_c, 0, 80, 46
2, 26177, Note_on_c, 0, 63, 0
2, 26210, Note_on_c, 0, 60, 0
2, 26217, Note_on_c, 0, 80, 0
2, 26229, Note_on_c, 0, 77, 55
2, 26243, Note_on_c, 0, 63, 41
2, 26245, Note_on_c, 0, 77, 0
2, 26256, Note_on_c, 0, 60, 31
2, 26263, Note_on_c, 0, 56, 0
2, 26280, Note_on_c, 0, 80, 91
2, 26288, Note_on_c, 0, 63, 0
2, 26318, Note_on_c, 0, 60, 0
2, 26336, Note_on_c, 0, 80, 0
2, 26367, Note_on_c, 0, 63, 50
2, 26379, Note_on_c, 0, 60, 44
2, 26408, Note_on_c, 0, 79, 96
2, 26412, Note_on_c, 0, 63, 0
2, 26422, Note_on_c, 0, 60, 0
2, 26467, Note_on_c, 0, 77, 91
2, 26478, Note_on_c, 0, 67, 60
2, 26479, Note_on_c, 0, 56, 58
2, 26480, Note_on_c, 0, 63, 53
2, 26481, Note_on_c, 0, 79, 0
2, 26489, Note_on_c, 0, 60, 49
2, 26500, Note_on_c, 0, 77, 0
2, 26526, Note_on_c, 0, 75, 57
2, 26533, Note_on_c, 0, 67, 0
2, 26553, Note_on_c, 0, 63, 0
2, 26571, Note_on_c, 0, 75, 0
2, 26582, Note_on_c, 0, 60, 0
2, 26584, Note_on_c, 0, 72, 82
2, 26599, Note_on_c, 0, 63, 55
2, 26604, Note_on_c, 0, 67, 47
2, 26611, Note_on_c, 0, 60, 35
2, 26615, Note_on_c, 0, 72, 0
2, 26616, Note_on_c, 0, 67, 0
2, 26674, Note_on_c, 0, 56, 0
2, 26676, Note_on_c, 0, 63, 0
2, 26677, Note_on_c, 0, 60, 0
2, 26707, Note_on_c, 0, 65, 80
2, 26720, Note_on_c, 0, 56, 43
2, 26720, Note_on_c, 0, 63, 45
2, 26727, Note_on_c, 0, 65, 0
2, 26730, Note_on_c, 0, 60, 49
2, 26762, Note_on_c, 0, 56, 0
2, 26766, Note_on_c, 0, 67, 63
2, 26770, Control_c, 0, 64, 127
2, 26786, Note_on_c, 0, 60, 0
2, 26794, Note_on_c, 0, 63, 0
2, 26810, Note_on_c, 0, 67, 0
2, 26832, Note_on_c, 0, 68, 99
2, 26834, Note_on_c, 0, 56, 66
2, 26835, Note_on_c, 0, 63, 57
2, 26836, Note_on_c, 0, 60, 65
2, 26837, Note_on_c, 0, 67, 55
2, 26846, Control_c, 0, 64, 0
2, 26862, Note_on_c, 0, 67, 0
2, 26876, Control_c, 0, 64, 127
2, 26907, Note_on_c, 0, 56, 0
2, 26910, Note_on_c, 0, 60, 0
2, 26925, Note_on_c, 0, 63, 0
2, 26937, Note_on_c, 0, 68, 0
2, 26949, Note_on_c, 0, 63, 83
2, 26950, Note_on_c, 0, 70, 91
2, 26950, Note_on_c, 0, 56, 76
2, 26955, Note_on_c, 0, 67, 70
2, 26957, Note_on_c, 0, 60, 71
2, 26983, Note_on_c, 0, 67, 0
2, 26996, Note_on_c, 0, 70, 0
2, 27017, Note_on_c, 0, 60, 0
2, 27024, Note_on_c, 0, 71, 98
2, 27051, Note_on_c, 0, 56, 0
2, 27067, Note_on_c, 0, 63, 0
2, 27070, Note_on_c, 0, 71, 0
2, 27091, Control_c, 0, 64, 0
2, 27114, Note_on_c, 0, 63, 75
2, 27116, Note_on_c, 0, 73, 100
2, 27121, Note_on_c, 0, 56, 73
2, 27122, Note_on_c, 0, 67, 76
2, 27125, Note_on_c, 0, 60, 68
2, 27128, Control_c, 0, 64, 127
2, 27142, Note_on_c, 0, 67, 0
2, 27171, Note_on_c, 0, 60, 0
2, 27180, Note_on_c, 0, 63, 0
2, 27185, Note_on_c, 0, 73, 0
2, 27191, Note_on_c, 0, 56, 0
2, 27200, Control_c, 0, 64, 0
2, 27206, Note_on_c, 0, 75, 98
2, 27237, Control_c, 0, 64, 127
2, 27272, Note_on_c, 0, 75, 0
2, 27286, Note_on_c, 0, 77, 103
2, 27303, Note_on_c, 0, 63, 93
2, 27304, Note_on_c, 0, 59, 92
2, 27304, Note_on_c, 0, 58, 77
2, 27307, Note_on_c, 0, 54, 76
2, 27343, Control_c, 0, 64, 0
2, 27361, Note_on_c, 0, 77, 0
2, 27379, Control_c, 0, 64, 127
2, 27383, Note_on_c, 0, 78, 98
2, 27397, Note_on_c, 0, 63, 0
2, 27428, Note_on_c, 0, 59, 0
2, 27449, Note_on_c, 0, 78, 0
2, 27457, Control_c, 0, 64, 0
2, 27466, Note_on_c, 0, 63, 76
2, 27471, Note_on_c, 0, 80, 95
2, 27472, Note_on_c, 0, 59, 82
2, 27489, Note_on_c, 0, 63, 0
2, 27491, Control_c, 0, 64, 127
2, 27520, Note_on_c, 0, 54, 0
2, 27525, Note_on_c, 0, 80, 0
2, 27534, Note_on_c, 0, 59, 0
2, 27543, Note_on_c, 0, 58, 0
2, 27558, Note_on_c, 0, 82, 95
2, 27561, Note_on_c, 0, 63, 89
2, 27562, Note_on_c, 0, 59, 85
2, 27563, Control_c, 0, 64, 0
2, 27565, Note_on_c, 0, 58, 59
2, 27566, Note_on_c, 0, 54, 70
2, 27571, Note_on_c, 0, 71, 64
2, 27576, Note_on_c, 0, 72, 49
2, 27587, Note_on_c, 0, 72, 0
2, 27593, Note_on_c, 0, 71, 0
2, 27616, Control_c, 0, 64, 127
2, 27628, Note_on_c, 0, 82, 0
2, 27633, Note_on_c, 0, 63, 0
2, 27643, Note_on_c, 0, 83, 92
2, 27647, Note_on_c, 0, 71, 97
2, 27653, Note_on_c, 0, 59, 0
2, 27681, Note_on_c, 0, 71, 0
2, 27683, Note_on_c, 0, 83, 0
2, 27706, Control_c, 0, 64, 0
2, 27720, Note_on_c, 0, 63, 75
2, 27729, Note_on_c, 0, 59, 71
2, 27735, Note_on_c, 0, 73, 88
2, 27735, Note_on_c, 0, 85, 98
2, 27736, Control_c, 0, 64, 127
2, 27750, Note_on_c, 0, 63, 0
2, 27767, Note_on_c, 0, 73, 0
2, 27776, Note_on_c, 0, 85, 0
2, 27780, Note_on_c, 0, 59, 0
2, 27781, Note_on_c, 0, 54, 0
2, 27793, Note_on_c, 0, 58, 0
2, 27811, Note_on_c, 0, 58, 53
2, 27817, Note_on_c, 0, 63, 80
2, 27818, Control_c, 0, 64, 0
2, 27819, Note_on_c, 0, 75, 97
2, 27819, Note_on_c, 0, 59, 85
2, 27819, Note_on_c, 0, 87, 100
2, 27821, Note_on_c, 0, 53, 84
2, 27822, Note_on_c, 0, 82, 87
2, 27854, Control_c, 0, 64, 127
2, 27867, Note_on_c, 0, 82, 0
2, 27871, Note_on_c, 0, 53, 0
2, 27872, Note_on_c, 0, 75, 0
2, 27877, Note_on_c, 0, 87, 0
2, 27880, Note_on_c, 0, 63, 0
2, 27885, Note_on_c, 0, 59, 0
2, 27896, Note_on_c, 0, 58, 0
2, 27927, Control_c, 0, 64, 0
2, 27928, Note_on_c, 0, 89, 92
2, 27929, Note_on_c, 0, 63, 81
2, 27931, Note_on_c, 0, 59, 85
2, 27931, Note_on_c, 0, 77, 92
2, 27931, Note_on_c, 0, 58, 56
2, 27932, Note_on_c, 0, 84, 93
2, 27934, Note_on_c, 0, 53, 78
2, 27963, Control_c, 0, 64, 127
2, 27965, Note_on_c, 0, 63, 0
2, 27971, Note_on_c, 0, 77, 0
2, 27973, Note_on_c, 0, 53, 0
2, 27974, Note_on_c, 0, 84, 0
2, 27974, Note_on_c, 0, 89, 0
2, 27977, Note_on_c, 0, 59, 0
2, 27986, Note_on_c, 0, 58, 0
2, 28036, Control_c, 0, 64, 0
2, 28039, Note_on_c, 0, 63, 84
2, 28039, Note_on_c, 0, 90, 92
2, 28042, Note_on_c, 0, 78, 77
2, 28043, Note_on_c, 0, 58, 57
2, 28043, Note_on_c, 0, 59, 85
2, 28043, Note_on_c, 0, 84, 90
2, 28044, Note_on_c, 0, 53, 74
2, 28050, Note_on_c, 0, 87, 55
2, 28057, Note_on_c, 0, 53, 0
2, 28065, Note_on_c, 0, 63, 0
2, 28067, Control_c, 0, 64, 127
2, 28072, Note_on_c, 0, 84, 0
2, 28075, Note_on_c, 0, 78, 0
2, 28080, Note_on_c, 0, 87, 0
2, 28082, Note_on_c, 0, 59, 0
2, 28083, Note_on_c, 0, 90, 0
2, 28095, Note_on_c, 0, 58, 0
2, 28154, Note_on_c, 0, 58, 51
2, 28154, Note_on_c, 0, 59, 78
2, 28154, Note_on_c, 0, 53, 77
2, 28154, Control_c, 0, 64, 0
2, 28154, Note_on_c, 0, 63, 79
2, 28154, Note_on_c, 0, 80, 89
2, 28154, Note_on_c, 0, 92, 94
2, 28182, Note_on_c, 0, 63, 0
2, 28182, Control_c, 0, 64, 127
2, 28183, Note_on_c, 0, 80, 0
2, 28185, Note_on_c, 0, 59, 0
2, 28185, Note_on_c, 0, 92, 0
2, 28191, Note_on_c, 0, 58, 0
2, 28198, Note_on_c, 0, 53, 0
2, 28251, Note_on_c, 0, 61, 97
2, 28252, Note_on_c, 0, 94, 95
2, 28254, Note_on_c, 0, 82, 91
2, 28255, Note_on_c, 0, 58, 83
2, 28256, Note_on_c, 0, 51, 84
2, 28257, Note_on_c, 0, 56, 73
2, 28278, Control_c, 0, 64, 0
2, 28289, Note_on_c, 0, 94, 0
2, 28291, Note_on_c, 0, 82, 0
2, 28321, Control_c, 0, 64, 127
2, 28327, Note_on_c, 0, 94, 87
2, 28328, Note_on_c, 0, 82, 76
2, 28373, Note_on_c, 0, 94, 0
2, 28375, Note_on_c, 0, 82, 0
2, 28390, Note_on_c, 0, 61, 0
2, 28395, Note_on_c, 0, 51, 0
2, 28399, Note_on_c, 0, 56, 0
2, 28401, Note_on_c, 0, 58, 0
2, 28424, Control_c, 0, 64, 0
2, 28430, Control_c, 0, 64, 127
2, 28431, Note_on_c, 0, 61, 73
2, 28435, Note_on_c, 0, 92, 78
2, 28437, Note_on_c, 0, 80, 78
2, 28438, Note_on_c, 0, 51, 54
2, 28438, Note_on_c, 0, 58, 51
2, 28442, Note_on_c, 0, 56, 45
2, 28467, Note_on_c, 0, 80, 0
2, 28471, Note_on_c, 0, 92, 0
2, 28476, Note_on_c, 0, 61, 0
2, 28477, Note_on_c, 0, 51, 0
2, 28487, Note_on_c, 0, 56, 0
2, 28490, Note_on_c, 0, 58, 0
2, 28508, Note_on_c, 0, 90, 67
2, 28513, Note_on_c, 0, 78, 71
2, 28515, Note_on_c, 0, 61, 63
2, 28518, Control_c, 0, 64, 0
2, 28522, Note_on_c, 0, 58, 56
2, 28524, Note_on_c, 0, 56, 47
2, 28525, Note_on_c, 0, 51, 53
2, 28533, Control_c, 0, 64, 127
2, 28544, Note_on_c, 0, 78, 0
2, 28546, Note_on_c, 0, 90, 0
2, 28554, Note_on_c, 0, 61, 0
2, 28557, Note_on_c, 0, 51, 0
2, 28566, Note_on_c, 0, 56, 0
2, 28566, Note_on_c, 0, 58, 0
2, 28624, Note_on_c, 0, 87, 73
2, 28626, Note_on_c, 0, 61, 76
2, 28627, Note_on_c, 0, 51, 71
2, 28630, Note_on_c, 0, 75, 75
2, 28631, Note_on_c, 0, 58, 59
2, 28635, Note_on_c, 0, 56, 53
2, 28639, Control_c, 0, 64, 0
2, 28657, Control_c, 0, 64, 127
2, 28669, Note_on_c, 0, 75, 0
2, 28671, Note_on_c, 0, 87, 0
2, 28683, Note_on_c, 0, 51, 0
2, 28686, Note_on_c, 0, 61, 0
2, 28688, Note_on_c, 0, 56, 0
2, 28691, Note_on_c, 0, 58, 0
2, 28751, Note_on_c, 0, 85, 69
2, 28752, Note_on_c, 0, 61, 75
2, 28754, Note_on_c, 0, 51, 70
2, 28755, Note_on_c, 0, 73, 72
2, 28757, Control_c, 0, 64, 0
2, 28759, Note_on_c, 0, 58, 57
2, 28760, Note_on_c, 0, 56, 53
2, 28787, Control_c, 0, 64, 127
2, 28788, Note_on_c, 0, 73, 0
2, 28789, Note_on_c, 0, 85, 0
2, 28804, Note_on_c, 0, 51, 0
2, 28810, Note_on_c, 0, 58, 0
2, 28811, Note_on_c, 0, 56, 0
2, 28811, Note_on_c, 0, 61, 0
2, 28867, Note_on_c, 0, 82, 73
2, 28871, Note_on_c, 0, 61, 72
2, 28874, Note_on_c, 0, 70, 57
2, 28879, Note_on_c, 0, 58, 57
2, 28879, Control_c, 0, 64, 0
2, 28881, Note_on_c, 0, 51, 48
2, 28883, Note_on_c, 0, 56, 49
2, 28911, Control_c, 0, 64, 127
2, 28933, Note_on_c, 0, 56, 0
2, 28937, Note_on_c, 0, 51, 0
2, 28938, Note_on_c, 0, 58, 0
2, 28947, Note_on_c, 0, 70, 0
2, 28954, Note_on_c, 0, 82, 0
2, 28990, Note_on_c, 0, 51, 80
2, 29000, Note_on_c, 0, 61, 0
2, 29027, Note_on_c, 0, 51, 0
2, 29029, Control_c, 0, 64, 0
2, 29059, Note_on_c, 0, 61, 98
2, 29060, Note_on_c, 0, 51, 89
2, 29061, Note_on_c, 0, 58, 76
2, 29066, Control_c, 0, 64, 127
2, 29071, Note_on_c, 0, 58, 0
2, 29075, Note_on_c, 0, 60, 54
2, 29080, Note_on_c, 0, 59, 48
2, 29082, Note_on_c, 0, 57, 49
2, 29091, Note_on_c, 0, 59, 0
2, 29096, Note_on_c, 0, 60, 0
2, 29112, Note_on_c, 0, 57, 0
2, 29145, Control_c, 0, 64, 0
2, 29163, Note_on_c, 0, 51, 0
2, 29166, Control_c, 0, 64, 127
2, 29170, Note_on_c, 0, 82, 108
2, 29176, Note_on_c, 0, 61, 0
2, 29225, Note_on_c, 0, 82, 0
2, 29266, Control_c, 0, 64, 0
2, 29281, Note_on_c, 0, 82, 106
2, 29283, Note_on_c, 0, 62, 77
2, 29284, Note_on_c, 0, 66, 83
2, 29285, Note_on_c, 0, 56, 79
2, 29353, Note_on_c, 0, 78, 60
2, 29370, Note_on_c, 0, 82, 0
2, 29388, Note_on_c, 0, 78, 0
2, 29392, Note_on_c, 0, 66, 0
2, 29392, Note_on_c, 0, 74, 69
2, 29394, Control_c, 0, 64, 127
2, 29431, Note_on_c, 0, 74, 0
2, 29437, Note_on_c, 0, 56, 0
2, 29440, Note_on_c, 0, 62, 0
2, 29444, Control_c, 0, 64, 0
2, 29468, Note_on_c, 0, 74, 86
2, 29496, Note_on_c, 0, 74, 0
2, 29505, Control_c, 0, 64, 127
2, 29525, Note_on_c, 0, 74, 91
2, 29532, Note_on_c, 0, 66, 72
2, 29536, Note_on_c, 0, 62, 66
2, 29538, Note_on_c, 0, 56, 65
2, 29571, Control_c, 0, 64, 0
2, 29616, Note_on_c, 0, 62, 0
2, 29626, Control_c, 0, 64, 127
2, 29646, Note_on_c, 0, 66, 0
2, 29680, Note_on_c, 0, 56, 0
2, 29681, Note_on_c, 0, 74, 0
2, 29710, Note_on_c, 0, 65, 88
2, 29713, Note_on_c, 0, 61, 70
2, 29714, Note_on_c, 0, 55, 80
2, 29723, Control_c, 0, 64, 0
2, 29759, Control_c, 0, 64, 127
2, 29820, Note_on_c, 0, 65, 0
2, 29823, Note_on_c, 0, 66, 95
2, 29838, Control_c, 0, 64, 0
2, 29879, Note_on_c, 0, 66, 0
2, 29889, Note_on_c, 0, 71, 84
2, 29893, Control_c, 0, 64, 127
2, 29913, Note_on_c, 0, 55, 0
2, 29926, Control_c, 0, 64, 0
2, 29927, Note_on_c, 0, 71, 0
2, 29927, Note_on_c, 0, 61, 0
2, 29947, Note_on_c, 0, 76, 86
2, 29956, Note_on_c, 0, 61, 69
2, 29956, Note_on_c, 0, 65, 65
2, 29969, Note_on_c, 0, 65, 0
2, 29984, Note_on_c, 0, 76, 0
2, 29987, Note_on_c, 0, 61, 0
2, 30006, Note_on_c, 0, 78, 101
2, 30007, Note_on_c, 0, 66, 97
2, 30008, Control_c, 0, 64, 127
2, 30009, Note_on_c, 0, 61, 79
2, 30011, Note_on_c, 0, 55, 91
2, 30014, Note_on_c, 0, 65, 84
2, 30055, Note_on_c, 0, 78, 0
2, 30064, Note_on_c, 0, 61, 0
2, 30065, Control_c, 0, 64, 0
2, 30071, Note_on_c, 0, 66, 0
2, 30076, Note_on_c, 0, 76, 65
2, 30086, Note_on_c, 0, 61, 55
2, 30097, Note_on_c, 0, 76, 0
2, 30104, Note_on_c, 0, 65, 0
2, 30122, Note_on_c, 0, 55, 0
2, 30124, Note_on_c, 0, 78, 99
2, 30125, Control_c, 0, 64, 127
2, 30127, Note_on_c, 0, 66, 91
2, 30136, Note_on_c, 0, 61, 0
2, 30192, Note_on_c, 0, 66, 0
2, 30205, Note_on_c, 0, 78, 0
2, 30243, Note_on_c, 0, 75, 74
2, 30244, Note_on_c, 0, 63, 57
2, 30244, Control_c, 0, 64, 0
2, 30248, Note_on_c, 0, 60, 63
2, 30249, Note_on_c, 0, 67, 52
2, 30250, Note_on_c, 0, 58, 51
2, 30254, Note_on_c, 0, 72, 60
2, 30256, Note_on_c, 0, 53, 47
2, 30318, Note_on_c, 0, 72, 0
2, 30322, Note_on_c, 0, 63, 0
2, 30330, Note_on_c, 0, 75, 0
2, 30337, Note_on_c, 0, 67, 0
2, 30344, Control_c, 0, 64, 127
2, 30350, Note_on_c, 0, 60, 0
2, 30370, Note_on_c, 0, 58, 0
2, 30513, Note_on_c, 0, 53, 0
2, 30540, Control_c, 0, 64, 0
2, 30550, Note_on_c, 0, 53, 90
2, 30589, Control_c, 0, 64, 127
2, 30712, Note_on_c, 0, 53, 0
2, 30712, Note_on_c, 0, 51, 87
2, 30727, Control_c, 0, 64, 0
2, 30749, Note_on_c, 0, 53, 67
2, 30752, Note_on_c, 0, 51, 0
2, 30776, Note_on_c, 0, 55, 71
2, 30781, Note_on_c, 0, 53, 0
2, 30809, Note_on_c, 0, 55, 0
2, 30809, Note_on_c, 0, 58, 84
2, 30846, Note_on_c, 0, 58, 0
2, 30850, Note_on_c, 0, 55, 80
2, 30878, Note_on_c, 0, 55, 0
2, 30884, Note_on_c, 0, 56, 63
2, 30911, Note_on_c, 0, 56, 0
2, 30916, Note_on_c, 0, 58, 67
2, 30928, Note_on_c, 0, 58, 0
2, 30948, Note_on_c, 0, 60, 86
2, 30966, Note_on_c, 0, 60, 0
2, 30982, Note_on_c, 0, 63, 50
2, 31005, Note_on_c, 0, 63, 0
2, 31024, Note_on_c, 0, 65, 69
2, 31040, Note_on_c, 0, 66, 56
2, 31046, Note_on_c, 0, 65, 0
2, 31051, Note_on_c, 0, 66, 0
2, 31057, Note_on_c, 0, 67, 57
2, 31083, Note_on_c, 0, 67, 0
2, 31086, Note_on_c, 0, 68, 51
2, 31113, Note_on_c, 0, 68, 0
2, 31145, Note_on_c, 0, 70, 84
2, 31154, Note_on_c, 0, 70, 0
2, 31163, Note_on_c, 0, 71, 53
2, 31177, Note_on_c, 0, 71, 0
2, 31182, Note_on_c, 0, 72, 95
2, 31191, Note_on_c, 0, 70, 48
2, 31201, Note_on_c, 0, 63, 59
2, 31202, Note_on_c, 0, 70, 0
2, 31204, Note_on_c, 0, 54, 57
2, 31208, Note_on_c, 0, 59, 65
2, 31211, Note_on_c, 0, 58, 50
2, 31215, Control_c, 0, 64, 127
2, 31217, Note_on_c, 0, 70, 96
2, 31221, Control_c, 0, 64, 0
2, 31228, Note_on_c, 0, 72, 0
2, 31268, Note_on_c, 0, 59, 0
2, 31299, Note_on_c, 0, 63, 0
2, 31300, Control_c, 0, 64, 127
2, 31307, Note_on_c, 0, 59, 52
2, 31308, Note_on_c, 0, 66, 75
2, 31328, Note_on_c, 0, 59, 0
2, 31367, Control_c, 0, 64, 0
2, 31372, Note_on_c, 0, 58, 0
2, 31374, Note_on_c, 0, 70, 0
2, 31377, Note_on_c, 0, 66, 0
2, 31384, Note_on_c, 0, 65, 91
2, 31391, Note_on_c, 0, 63, 64
2, 31393, Note_on_c, 0, 58, 33
2, 31399, Note_on_c, 0, 59, 62
2, 31415, Control_c, 0, 64, 127
2, 31418, Note_on_c, 0, 54, 0
2, 31503, Control_c, 0, 64, 0
2, 31505, Note_on_c, 0, 54, 83
2, 31532, Note_on_c, 0, 65, 0
2, 31545, Control_c, 0, 64, 127
2, 31574, Note_on_c, 0, 63, 0
2, 31585, Note_on_c, 0, 54, 0
2, 31590, Note_on_c, 0, 59, 0
2, 31599, Note_on_c, 0, 58, 0
2, 31624, Control_c, 0, 64, 0
2, 31629, Note_on_c, 0, 58, 57
2, 31629, Note_on_c, 0, 59, 73
2, 31629, Note_on_c, 0, 63, 78
2, 31632, Note_on_c, 0, 53, 80
2, 31670, Control_c, 0, 64, 127
2, 31689, Note_on_c, 0, 53, 0
2, 31700, Note_on_c, 0, 63, 0
2, 31708, Note_on_c, 0, 59, 0
2, 31714, Note_on_c, 0, 58, 0
2, 31742, Control_c, 0, 64, 0
2, 31745, Note_on_c, 0, 63, 85
2, 31746, Note_on_c, 0, 92, 100
2, 31746, Note_on_c, 0, 80, 100
2, 31747, Note_on_c, 0, 59, 88
2, 31748, Note_on_c, 0, 87, 95
2, 31748, Note_on_c, 0, 58, 56
2, 31749, Note_on_c, 0, 53, 88
2, 31772, Control_c, 0, 64, 127
2, 31792, Note_on_c, 0, 63, 0
2, 31796, Note_on_c, 0, 53, 0
2, 31806, Note_on_c, 0, 80, 0
2, 31807, Note_on_c, 0, 59, 0
2, 31814, Note_on_c, 0, 58, 0
2, 31817, Note_on_c, 0, 92, 0
2, 31817, Note_on_c, 0, 87, 0
2, 31865, Note_on_c, 0, 63, 94
2, 31865, Note_on_c, 0, 59, 93
2, 31866, Note_on_c, 0, 94, 101
2, 31866, Note_on_c, 0, 82, 99
2, 31867, Note_on_c, 0, 87, 98
2, 31867, Note_on_c, 0, 58, 67
2, 31869, Note_on_c, 0, 53, 84
2, 31869, Control_c, 0, 64, 0
2, 31903, Control_c, 0, 64, 127
2, 31911, Note_on_c, 0, 82, 0
2, 31912, Note_on_c, 0, 87, 0
2, 31922, Note_on_c, 0, 53, 0
2, 31923, Note_on_c, 0, 63, 0
2, 31929, Note_on_c, 0, 94, 0
2, 31934, Note_on_c, 0, 59, 0
2, 31938, Note_on_c, 0, 58, 0
2, 31986, Note_on_c, 0, 97, 96
2, 31987, Note_on_c, 0, 63, 91
2, 31988, Note_on_c, 0, 59, 86
2, 31989, Note_on_c, 0, 85, 91
2, 31990, Note_on_c, 0, 53, 82
2, 31991, Note_on_c, 0, 92, 88
2, 31993, Note_on_c, 0, 58, 62
2, 32008, Control_c, 0, 64, 0
2, 32029, Control_c, 0, 64, 127
2, 32043, Note_on_c, 0, 59, 0
2, 32044, Note_on_c, 0, 97, 0
2, 32045, Note_on_c, 0, 85, 0
2, 32047, Note_on_c, 0, 92, 0
2, 32050, Note_on_c, 0, 63, 0
2, 32050, Note_on_c, 0, 58, 0
2, 32065, Note_on_c, 0, 53, 0
2, 32158, Note_on_c, 0, 61, 80
2, 32161, Note_on_c, 0, 90, 76
2, 32162, Note_on_c, 0, 58, 66
2, 32163, Note_on_c, 0, 51, 67
2, 32165, Note_on_c, 0, 78, 65
2, 32166, Note_on_c, 0, 56, 57
2, 32169, Note_on_c, 0, 85, 71
2, 32172, Control_c, 0, 64, 0
2, 32183, Note_on_c, 0, 85, 0
2, 32195, Note_on_c, 0, 78, 0
2, 32196, Note_on_c, 0, 51, 0
2, 32196, Note_on_c, 0, 61, 0
2, 32201, Note_on_c, 0, 56, 0
2, 32203, Note_on_c, 0, 90, 0
2, 32204, Note_on_c, 0, 58, 0
2, 32280, Note_on_c, 0, 61, 76
2, 32280, Control_c, 0, 64, 127
2, 32281, Note_on_c, 0, 90, 80
2, 32284, Note_on_c, 0, 78, 67
2, 32284, Note_on_c, 0, 51, 62
2, 32285, Note_on_c, 0, 58, 59
2, 32288, Note_on_c, 0, 85, 72
2, 32289, Note_on_c, 0, 56, 52
2, 32328, Note_on_c, 0, 85, 0
2, 32328, Note_on_c, 0, 51, 0
2, 32332, Note_on_c, 0, 90, 0
2, 32333, Note_on_c, 0, 78, 0
2, 32334, Note_on_c, 0, 61, 0
2, 32335, Note_on_c, 0, 56, 0
2, 32339, Note_on_c, 0, 58, 0
2, 32342, Control_c, 0, 64, 0
2, 32387, Control_c, 0, 64, 127
2, 32401, Note_on_c, 0, 89, 75
2, 32407, Note_on_c, 0, 61, 74
2, 32408, Note_on_c, 0, 77, 65
2, 32411, Note_on_c, 0, 58, 60
2, 32411, Note_on_c, 0, 51, 59
2, 32414, Note_on_c, 0, 56, 53
2, 32441, Note_on_c, 0, 89, 0
2, 32444, Note_on_c, 0, 61, 0
2, 32446, Note_on_c, 0, 77, 0
2, 32457, Note_on_c, 0, 58, 0
2, 32459, Note_on_c, 0, 56, 0
2, 32496, Note_on_c, 0, 61, 71
2, 32507, Note_on_c, 0, 58, 45
2, 32510, Note_on_c, 0, 51, 0
2, 32518, Note_on_c, 0, 58, 0
2, 32532, Note_on_c, 0, 61, 0
2, 32590, Note_on_c, 0, 61, 69
2, 32590, Note_on_c, 0, 64, 80
2, 32592, Note_on_c, 0, 54, 65
2, 32593, Control_c, 0, 64, 0
2, 32594, Note_on_c, 0, 57, 66
2, 32596, Note_on_c, 0, 75, 72
2, 32598, Note_on_c, 0, 87, 91
2, 32613, Note_on_c, 0, 88, 47
2, 32623, Note_on_c, 0, 88, 0
2, 32628, Note_on_c, 0, 75, 0
2, 32632, Control_c, 0, 64, 127
2, 32661, Note_on_c, 0, 64, 0
2, 32669, Note_on_c, 0, 87, 0
2, 32673, Note_on_c, 0, 54, 0
2, 32673, Note_on_c, 0, 57, 0
2, 32683, Note_on_c, 0, 61, 0
2, 32716, Note_on_c, 0, 61, 72
2, 32718, Note_on_c, 0, 54, 62
2, 32718, Note_on_c, 0, 73, 72
2, 32719, Note_on_c, 0, 64, 84
2, 32726, Control_c, 0, 64, 0
2, 32733, Note_on_c, 0, 54, 0
2, 32734, Note_on_c, 0, 73, 0
2, 32740, Note_on_c, 0, 64, 0
2, 32744, Control_c, 0, 64, 127
2, 32750, Note_on_c, 0, 61, 0
2, 32826, Note_on_c, 0, 66, 91
2, 32827, Note_on_c, 0, 85, 90
2, 32828, Note_on_c, 0, 57, 80
2, 32829, Control_c, 0, 64, 0
2, 32830, Note_on_c, 0, 73, 89
2, 32831, Note_on_c, 0, 61, 71
2, 32831, Note_on_c, 0, 63, 69
2, 32842, Note_on_c, 0, 80, 53
2, 32859, Note_on_c, 0, 80, 0
2, 32866, Control_c, 0, 64, 127
2, 32881, Note_on_c, 0, 73, 0
2, 32884, Note_on_c, 0, 61, 0
2, 32889, Note_on_c, 0, 57, 0
2, 32889, Note_on_c, 0, 85, 0
2, 32889, Note_on_c, 0, 63, 0
2, 32892, Note_on_c, 0, 66, 0
2, 32949, Note_on_c, 0, 57, 73
2, 32951, Note_on_c, 0, 66, 84
2, 32952, Note_on_c, 0, 73, 57
2, 32955, Note_on_c, 0, 63, 68
2, 32962, Control_c, 0, 64, 0
2, 32972, Note_on_c, 0, 73, 0
2, 32979, Note_on_c, 0, 57, 0
2, 32983, Control_c, 0, 64, 127
2, 32992, Note_on_c, 0, 66, 0
2, 33034, Note_on_c, 0, 63, 0
2, 33059, Note_on_c, 0, 63, 71
2, 33061, Control_c, 0, 64, 0
2, 33062, Note_on_c, 0, 67, 90
2, 33063, Note_on_c, 0, 56, 75
2, 33065, Note_on_c, 0, 84, 103
2, 33066, Note_on_c, 0, 72, 90
2, 33067, Note_on_c, 0, 80, 73
2, 33068, Note_on_c, 0, 60, 75
2, 33069, Note_on_c, 0, 77, 82
2, 33101, Control_c, 0, 64, 127
2, 33107, Note_on_c, 0, 77, 0
2, 33121, Note_on_c, 0, 72, 0
2, 33138, Note_on_c, 0, 84, 0
2, 33145, Note_on_c, 0, 80, 0
2, 33186, Note_on_c, 0, 82, 94
2, 33207, Control_c, 0, 64, 0
2, 33228, Note_on_c, 0, 82, 0
2, 33234, Control_c, 0, 64, 127
2, 33241, Note_on_c, 0, 67, 0
2, 33280, Note_on_c, 0, 63, 0
2, 33314, Note_on_c, 0, 63, 45
2, 33323, Note_on_c, 0, 76, 44
2, 33333, Note_on_c, 0, 76, 0
2, 33337, Control_c, 0, 64, 0
2, 33353, Note_on_c, 0, 56, 0
2, 33353, Control_c, 0, 64, 127
2, 33366, Note_on_c, 0, 80, 98
2, 33396, Note_on_c, 0, 60, 0
2, 33406, Note_on_c, 0, 63, 0
2, 33417, Note_on_c, 0, 80, 0
2, 33430, Note_on_c, 0, 79, 84
2, 33432, Note_on_c, 0, 63, 66
2, 33438, Note_on_c, 0, 67, 53
2, 33438, Note_on_c, 0, 56, 57
2, 33438, Control_c, 0, 64, 0
2, 33439, Note_on_c, 0, 60, 57
2, 33452, Note_on_c, 0, 67, 0
2, 33470, Note_on_c, 0, 79, 0
2, 33470, Control_c, 0, 64, 127
2, 33485, Note_on_c, 0, 78, 65
2, 33492, Note_on_c, 0, 63, 0
2, 33494, Note_on_c, 0, 56, 0
2, 33516, Note_on_c, 0, 60, 0
2, 33523, Note_on_c, 0, 78, 0
2, 33549, Note_on_c, 0, 77, 85
2, 33550, Note_on_c, 0, 62, 82
2, 33552, Control_c, 0, 64, 0
2, 33554, Note_on_c, 0, 66, 75
2, 33559, Note_on_c, 0, 56, 56
2, 33591, Control_c, 0, 64, 127
2, 33625, Note_on_c, 0, 66, 0
2, 33627, Note_on_c, 0, 56, 0
2, 33634, Note_on_c, 0, 62, 0
2, 33653, Note_on_c, 0, 77, 0
2, 33668, Note_on_c, 0, 74, 84
2, 33671, Note_on_c, 0, 62, 68
2, 33672, Note_on_c, 0, 66, 76
2, 33674, Control_c, 0, 64, 0
2, 33675, Note_on_c, 0, 56, 72
2, 33704, Control_c, 0, 64, 127
2, 33710, Note_on_c, 0, 66, 0
2, 33724, Note_on_c, 0, 74, 0
2, 33728, Note_on_c, 0, 56, 0
2, 33730, Note_on_c, 0, 62, 0
2, 33785, Control_c, 0, 64, 0
2, 33789, Note_on_c, 0, 70, 50
2, 33790, Note_on_c, 0, 66, 79
2, 33790, Note_on_c, 0, 62, 74
2, 33791, Note_on_c, 0, 56, 74
2, 33806, Note_on_c, 0, 70, 0
2, 33812, Control_c, 0, 64, 127
2, 33813, Note_on_c, 0, 66, 0
2, 33825, Note_on_c, 0, 62, 0
2, 33829, Note_on_c, 0, 56, 0
2, 33851, Note_on_c, 0, 56, 69
2, 33852, Note_on_c, 0, 62, 48
2, 33852, Note_on_c, 0, 66, 73
2, 33856, Note_on_c, 0, 70, 71
2, 33923, Note_on_c, 0, 66, 0
2, 33933, Note_on_c, 0, 70, 0
2, 33944, Note_on_c, 0, 62, 0
2, 33958, Note_on_c, 0, 56, 0
2, 33992, Note_on_c, 0, 61, 53
2, 34005, Note_on_c, 0, 61, 0
2, 34033, Note_on_c, 0, 77, 101
2, 34034, Note_on_c, 0, 65, 96
2, 34034, Note_on_c, 0, 61, 75
2, 34034, Note_on_c, 0, 54, 84
2, 34036, Note_on_c, 0, 58, 79
2, 34042, Control_c, 0, 64, 0
2, 34076, Control_c, 0, 64, 127
2, 34104, Note_on_c, 0, 65, 0
2, 34108, Note_on_c, 0, 77, 0
2, 34109, Note_on_c, 0, 54, 0
2, 34118, Note_on_c, 0, 61, 0
2, 34120, Note_on_c, 0, 58, 0
2, 34146, Note_on_c, 0, 75, 92
2, 34148, Note_on_c, 0, 61, 71
2, 34149, Note_on_c, 0, 65, 86
2, 34149, Note_on_c, 0, 54, 79
2, 34149, Note_on_c, 0, 58, 63
2, 34154, Control_c, 0, 64, 0
2, 34173, Control_c, 0, 64, 127
2, 34175, Note_on_c, 0, 65, 0
2, 34199, Note_on_c, 0, 54, 0
2, 34202, Note_on_c, 0, 61, 0
2, 34204, Note_on_c, 0, 58, 0
2, 34211, Note_on_c, 0, 75, 0
2, 34254, Note_on_c, 0, 73, 87
2, 34257, Note_on_c, 0, 61, 77
2, 34257, Note_on_c, 0, 58, 67
2, 34258, Note_on_c, 0, 65, 78
2, 34258, Note_on_c, 0, 54, 68
2, 34271, Note_on_c, 0, 65, 0
2, 34279, Control_c, 0, 64, 0
2, 34286, Note_on_c, 0, 54, 0
2, 34289, Note_on_c, 0, 61, 0
2, 34290, Note_on_c, 0, 58, 0
2, 34301, Note_on_c, 0, 73, 0
2, 34315, Control_c, 0, 64, 127
2, 34320, Note_on_c, 0, 66, 72
2, 34321, Note_on_c, 0, 61, 71
2, 34323, Note_on_c, 0, 54, 67
2, 34324, Note_on_c, 0, 58, 63
2, 34363, Note_on_c, 0, 66, 0
2, 34384, Note_on_c, 0, 54, 0
2, 34388, Note_on_c, 0, 58, 0
2, 34393, Note_on_c, 0, 61, 0
2, 34463, Note_on_c, 0, 54, 43
2, 34492, Note_on_c, 0, 54, 0
2, 34511, Note_on_c, 0, 68, 91
2, 34513, Note_on_c, 0, 57, 102
2, 34514, Note_on_c, 0, 64, 94
2, 34514, Note_on_c, 0, 61, 89
2, 34516, Note_on_c, 0, 56, 102
2, 34521, Control_c, 0, 64, 0
2, 34522, Note_on_c, 0, 66, 58
2, 34534, Note_on_c, 0, 66, 0
2, 34569, Control_c, 0, 64, 127
2, 34627, Control_c, 0, 64, 0
2, 34632, Note_on_c, 0, 57, 0
2, 34640, Note_on_c, 0, 64, 0
2, 34643, Note_on_c, 0, 68, 0
2, 34661, Note_on_c, 0, 54, 54
2, 34663, Control_c, 0, 64, 127
2, 34667, Note_on_c, 0, 66, 67
2, 34676, Note_on_c, 0, 57, 42
2, 34687, Note_on_c, 0, 56, 0
2, 34702, Note_on_c, 0, 57, 0
2, 34707, Note_on_c, 0, 66, 0
2, 34710, Note_on_c, 0, 61, 0
2, 34715, Note_on_c, 0, 54, 0
2, 34740, Note_on_c, 0, 62, 91
2, 34743, Note_on_c, 0, 57, 82
2, 34748, Control_c, 0, 64, 0
2, 34763, Note_on_c, 0, 56, 45
2, 34775, Note_on_c, 0, 56, 0
2, 34787, Control_c, 0, 64, 127
2, 34843, Note_on_c, 0, 57, 0
2, 34863, Note_on_c, 0, 53, 104
2, 34879, Control_c, 0, 64, 0
2, 34899, Note_on_c, 0, 62, 0
2, 34903, Control_c, 0, 64, 127
2, 34930, Note_on_c, 0, 53, 0
2, 34932, Note_on_c, 0, 57, 55
2, 34948, Note_on_c, 0, 57, 0
2, 35013, Note_on_c, 0, 51, 64
2, 35019, Note_on_c, 0, 50, 49
2, 35032, Note_on_c, 0, 50, 0
2, 35042, Control_c, 0, 64, 0
2, 35043, Note_on_c, 0, 51, 0
2, 35047, Note_on_c, 0, 54, 75
2, 35049, Note_on_c, 0, 65, 68
2, 35049, Note_on_c, 0, 58, 75
2, 35050, Note_on_c, 0, 53, 78
2, 35053, Note_on_c, 0, 61, 70
2, 35102, Note_on_c, 0, 65, 0
2, 35104, Note_on_c, 0, 58, 0
2, 35105, Note_on_c, 0, 54, 0
2, 35107, Note_on_c, 0, 61, 0
2, 35114, Note_on_c, 0, 53, 0
2, 35222, Note_on_c, 0, 56, 94
2, 35224, Note_on_c, 0, 60, 92
2, 35224, Note_on_c, 0, 67, 99
2, 35225, Note_on_c, 0, 63, 80
2, 35229, Note_on_c, 0, 55, 98
2, 35326, Note_on_c, 0, 56, 0
2, 35337, Note_on_c, 0, 67, 0
2, 35339, Note_on_c, 0, 56, 57
2, 35343, Note_on_c, 0, 65, 82
2, 35351, Note_on_c, 0, 53, 73
2, 35352, Note_on_c, 0, 55, 0
2, 35375, Control_c, 0, 64, 127
2, 35377, Note_on_c, 0, 60, 0
2, 35383, Note_on_c, 0, 63, 0
2, 35425, Note_on_c, 0, 56, 0
2, 35433, Note_on_c, 0, 53, 0
2, 35439, Note_on_c, 0, 65, 0
2, 35457, Note_on_c, 0, 56, 72
2, 35457, Note_on_c, 0, 63, 76
2, 35459, Note_on_c, 0, 60, 87
2, 35459, Control_c, 0, 64, 0
2, 35466, Note_on_c, 0, 51, 78
2, 35502, Control_c, 0, 64, 127
2, 35515, Note_on_c, 0, 60, 0
2, 35538, Note_on_c, 0, 56, 0
2, 35543, Note_on_c, 0, 51, 0
2, 35564, Note_on_c, 0, 63, 0
2, 35580, Note_on_c, 0, 60, 77
2, 35580, Note_on_c, 0, 48, 79
2, 35581, Note_on_c, 0, 56, 64
2, 35592, Control_c, 0, 64, 0
2, 35606, Note_on_c, 0, 56, 0
2, 35611, Note_on_c, 0, 48, 0
2, 35614, Note_on_c, 0, 60, 0
2, 35635, Note_on_c, 0, 56, 59
2, 35639, Note_on_c, 0, 63, 75
2, 35640, Note_on_c, 0, 60, 78
2, 35642, Note_on_c, 0, 51, 66
2, 35680, Note_on_c, 0, 60, 0
2, 35680, Note_on_c, 0, 56, 0
2, 35684, Control_c, 0, 64, 127
2, 35697, Note_on_c, 0, 51, 0
2, 35706, Note_on_c, 0, 63, 0
2, 35716, Note_on_c, 0, 48, 58
2, 35726, Control_c, 0, 64, 0
2, 35746, Note_on_c, 0, 48, 0
2, 35759, Note_on_c, 0, 50, 68
2, 35765, Note_on_c, 0, 56, 74
2, 35765, Note_on_c, 0, 62, 84
2, 35777, Control_c, 0, 64, 127
2, 35809, Note_on_c, 0, 56, 0
2, 35817, Note_on_c, 0, 62, 0
2, 35832, Note_on_c, 0, 51, 84
2, 35832, Note_on_c, 0, 63, 89
2, 35835, Note_on_c, 0, 56, 70
2, 35838, Note_on_c, 0, 50, 0
2, 35838, Control_c, 0, 64, 0
2, 35860, Note_on_c, 0, 56, 0
2, 35886, Note_on_c, 0, 65, 88
2, 35886, Note_on_c, 0, 56, 75
2, 35887, Note_on_c, 0, 51, 0
2, 35890, Note_on_c, 0, 53, 84
2, 35890, Note_on_c, 0, 60, 79
2, 35893, Control_c, 0, 64, 127
2, 35948, Note_on_c, 0, 65, 0
2, 35954, Control_c, 0, 64, 0
2, 35961, Note_on_c, 0, 60, 0
2, 35962, Note_on_c, 0, 53, 0
2, 35963, Note_on_c, 0, 63, 0
2, 35964, Note_on_c, 0, 56, 0
2, 36005, Note_on_c, 0, 63, 91
2, 36006, Note_on_c, 0, 60, 66
2, 36006, Note_on_c, 0, 56, 72
2, 36008, Control_c, 0, 64, 127
2, 36032, Note_on_c, 0, 50, 44
2, 36049, Note_on_c, 0, 50, 0
2, 36063, Note_on_c, 0, 56, 0
2, 36063, Control_c, 0, 64, 0
2, 36087, Note_on_c, 0, 60, 0
2, 36107, Note_on_c, 0, 56, 54
2, 36109, Note_on_c, 0, 48, 64
2, 36111, Control_c, 0, 64, 127
2, 36155, Note_on_c, 0, 56, 0
2, 36164, Note_on_c, 0, 63, 0
2, 36171, Control_c, 0, 64, 0
2, 36173, Note_on_c, 0, 48, 0
2, 36181, Note_on_c, 0, 56, 73
2, 36184, Note_on_c, 0, 62, 82
2, 36191, Note_on_c, 0, 50, 70
2, 36220, Control_c, 0, 64, 127
2, 36259, Note_on_c, 0, 50, 0
2, 36290, Control_c, 0, 64, 0
2, 36309, Note_on_c, 0, 46, 97
2, 36318, Note_on_c, 0, 34, 80
2, 36328, Note_on_c, 0, 34, 0
2, 36351, Control_c, 0, 64, 127
2, 36394, Note_on_c, 0, 56, 0
2, 36432, Note_on_c, 0, 34, 95
2, 36433, Note_on_c, 0, 62, 0
2, 36463, Note_on_c, 0, 34, 0
2, 36464, Note_on_c, 0, 46, 0
2, 36660, Note_on_c, 0, 63, 82
2, 36661, Note_on_c, 0, 67, 99
2, 36662, Note_on_c, 0, 56, 83
2, 36664, Note_on_c, 0, 60, 81
2, 36674, Control_c, 0, 64, 0
2, 36702, Control_c, 0, 64, 127
2, 36785, Note_on_c, 0, 79, 119
2, 36808, Note_on_c, 0, 67, 0
2, 36816, Note_on_c, 0, 79, 0
2, 36823, Note_on_c, 0, 60, 0
2, 36825, Note_on_c, 0, 63, 0
2, 36838, Note_on_c, 0, 56, 0
2, 36847, Note_on_c, 0, 75, 81
2, 36901, Note_on_c, 0, 75, 0
2, 36916, Note_on_c, 0, 72, 103
2, 36916, Note_on_c, 0, 63, 85
2, 36918, Note_on_c, 0, 60, 80
2, 36923, Note_on_c, 0, 56, 64
2, 36923, Note_on_c, 0, 53, 70
2, 36923, Control_c, 0, 64, 0
2, 36924, Note_on_c, 0, 75, 55
2, 36961, Control_c, 0, 64, 127
2, 36970, Note_on_c, 0, 75, 0
2, 36987, Note_on_c, 0, 53, 0
2, 36996, Note_on_c, 0, 63, 0
2, 36999, Note_on_c, 0, 60, 0
2, 37003, Note_on_c, 0, 56, 0
2, 37028, Note_on_c, 0, 72, 0
2, 37034, Note_on_c, 0, 68, 102
2, 37037, Note_on_c, 0, 63, 75
2, 37038, Note_on_c, 0, 53, 73
2, 37039, Note_on_c, 0, 60, 70
2, 37044, Note_on_c, 0, 56, 52
2, 37064, Note_on_c, 0, 63, 0
2, 37069, Note_on_c, 0, 68, 0
2, 37077, Note_on_c, 0, 60, 0
2, 37094, Note_on_c, 0, 63, 58
2, 37097, Note_on_c, 0, 60, 54
2, 37099, Note_on_c, 0, 67, 70
2, 37168, Note_on_c, 0, 53, 0
2, 37174, Note_on_c, 0, 60, 0
2, 37174, Note_on_c, 0, 63, 0
2, 37183, Note_on_c, 0, 56, 0
2, 37190, Note_on_c, 0, 67, 0
2, 37269, Note_on_c, 0, 63, 75
2, 37270, Control_c, 0, 64, 0
2, 37271, Note_on_c, 0, 60, 74
2, 37273, Note_on_c, 0, 53, 70
2, 37276, Note_on_c, 0, 56, 56
2, 37309, Control_c, 0, 64, 127
2, 37327, Note_on_c, 0, 53, 0
2, 37335, Note_on_c, 0, 63, 0
2, 37337, Note_on_c, 0, 60, 0
2, 37339, Note_on_c, 0, 56, 0
2, 37379, Note_on_c, 0, 56, 69
2, 37386, Note_on_c, 0, 60, 66
2, 37399, Note_on_c, 0, 60, 0
2, 37425, Control_c, 0, 64, 0
2, 37435, Note_on_c, 0, 75, 97
2, 37437, Note_on_c, 0, 72, 101
2, 37438, Note_on_c, 0, 63, 84
2, 37439, Note_on_c, 0, 60, 68
2, 37457, Note_on_c, 0, 72, 0
2, 37463, Note_on_c, 0, 75, 0
2, 37467, Control_c, 0, 64, 127
2, 37472, Note_on_c, 0, 75, 45
2, 37475, Note_on_c, 0, 72, 86
2, 37493, Note_on_c, 0, 63, 0
2, 37499, Note_on_c, 0, 72, 0
2, 37501, Note_on_c, 0, 56, 0
2, 37508, Note_on_c, 0, 60, 0
2, 37510, Note_on_c, 0, 75, 0
2, 37519, Note_on_c, 0, 53, 75
2, 37524, Control_c, 0, 64, 0
2, 37532, Note_on_c, 0, 70, 103
2, 37534, Note_on_c, 0, 74, 102
2, 37538, Note_on_c, 0, 63, 66
2, 37550, Note_on_c, 0, 60, 34
2, 37561, Note_on_c, 0, 70, 0
2, 37563, Note_on_c, 0, 74, 0
2, 37569, Note_on_c, 0, 60, 0
2, 37576, Note_on_c, 0, 63, 0
2, 37579, Control_c, 0, 64, 127
2, 37582, Note_on_c, 0, 70, 74
2, 37582, Note_on_c, 0, 74, 81
2, 37613, Note_on_c, 0, 74, 0
2, 37615, Note_on_c, 0, 70, 0
2, 37619, Note_on_c, 0, 53, 0
2, 37622, Control_c, 0, 64, 0
2, 37635, Note_on_c, 0, 72, 97
2, 37637, Note_on_c, 0, 63, 77
2, 37638, Note_on_c, 0, 68, 90
2, 37642, Note_on_c, 0, 60, 73
2, 37649, Note_on_c, 0, 56, 41
2, 37660, Note_on_c, 0, 68, 0
2, 37660, Note_on_c, 0, 72, 0
2, 37672, Note_on_c, 0, 63, 0
2, 37678, Note_on_c, 0, 68, 73
2, 37679, Control_c, 0, 64, 127
2, 37681, Note_on_c, 0, 72, 86
2, 37682, Note_on_c, 0, 60, 0
2, 37700, Note_on_c, 0, 68, 0
2, 37708, Note_on_c, 0, 72, 0
2, 37713, Control_c, 0, 64, 0
2, 37726, Note_on_c, 0, 70, 98
2, 37728, Note_on_c, 0, 67, 97
2, 37728, Note_on_c, 0, 63, 72
2, 37732, Note_on_c, 0, 60, 73
2, 37755, Note_on_c, 0, 67, 0
2, 37773, Control_c, 0, 64, 127
2, 37775, Note_on_c, 0, 63, 0
2, 37783, Note_on_c, 0, 60, 0
2, 37791, Note_on_c, 0, 70, 0
2, 37812, Control_c, 0, 64, 0
2, 37819, Note_on_c, 0, 68, 101
2, 37822, Note_on_c, 0, 65, 89
2, 37827, Note_on_c, 0, 63, 79
2, 37831, Note_on_c, 0, 60, 75
2, 37855, Note_on_c, 0, 63, 0
2, 37855, Note_on_c, 0, 65, 0
2, 37864, Note_on_c, 0, 68, 0
2, 37871, Note_on_c, 0, 60, 0
2, 37885, Control_c, 0, 64, 127
2, 37893, Note_on_c, 0, 56, 0
2, 37894, Control_c, 0, 64, 0
2, 37903, Note_on_c, 0, 67, 94
2, 37904, Note_on_c, 0, 63, 95
2, 37908, Note_on_c, 0, 56, 38
2, 37912, Note_on_c, 0, 60, 67
2, 37919, Note_on_c, 0, 53, 67
2, 37951, Note_on_c, 0, 67, 0
2, 37954, Note_on_c, 0, 53, 0
2, 37964, Note_on_c, 0, 60, 0
2, 37964, Control_c, 0, 64, 127
2, 37970, Note_on_c, 0, 63, 0
2, 37981, Note_on_c, 0, 56, 0
2, 37994, Control_c, 0, 64, 0
2, 37997, Note_on_c, 0, 65, 94
2, 37998, Note_on_c, 0, 62, 88
2, 38005, Note_on_c, 0, 56, 66
2, 38011, Note_on_c, 0, 53, 70
2, 38029, Note_on_c, 0, 65, 0
2, 38030, Note_on_c, 0, 62, 0
2, 38040, Note_on_c, 0, 53, 0
2, 38051, Control_c, 0, 64, 127
2, 38052, Note_on_c, 0, 56, 0
2, 38096, Control_c, 0, 64, 0
2, 38099, Note_on_c, 0, 63, 99
2, 38102, Note_on_c, 0, 60, 92
2, 38103, Note_on_c, 0, 56, 83
2, 38104, Note_on_c, 0, 53, 89
2, 38128, Note_on_c, 0, 60, 0
2, 38136, Note_on_c, 0, 63, 0
2, 38137, Note_on_c, 0, 56, 0
2, 38141, Note_on_c, 0, 53, 0
2, 38151, Control_c, 0, 64, 127
2, 38220, Note_on_c, 0, 58, 94
2, 38221, Note_on_c, 0, 62, 99
2, 38242, Control_c, 0, 64, 0
2, 38253, Note_on_c, 0, 58, 0
2, 38270, Note_on_c, 0, 62, 0
2, 38288, Note_on_c, 0, 60, 71
2, 38296, Control_c, 0, 64, 127
2, 38305, Note_on_c, 0, 48, 66
2, 38320, Note_on_c, 0, 60, 0
2, 38337, Note_on_c, 0, 48, 0
2, 38357, Note_on_c, 0, 41, 71
2, 38381, Note_on_c, 0, 41, 0
2, 38403, Note_on_c, 0, 60, 90
2, 38403, Control_c, 0, 64, 0
2, 38406, Note_on_c, 0, 53, 91
2, 38407, Note_on_c, 0, 56, 82
2, 38408, Note_on_c, 0, 51, 78
2, 38520, Control_c, 0, 64, 127
2, 38563, Note_on_c, 0, 53, 0
2, 38574, Note_on_c, 0, 56, 0
2, 38575, Note_on_c, 0, 60, 0
2, 38578, Note_on_c, 0, 51, 0
2, 38584, Control_c, 0, 64, 0
2, 38590, Note_on_c, 0, 53, 91
2, 38590, Note_on_c, 0, 56, 91
2, 38592, Note_on_c, 0, 60, 94
2, 38597, Note_on_c, 0, 51, 94
2, 38623, Note_on_c, 0, 53, 0
2, 38633, Note_on_c, 0, 56, 0
2, 38640, Note_on_c, 0, 60, 0
2, 38654, Control_c, 0, 64, 127
2, 38684, Control_c, 0, 64, 0
2, 38700, Note_on_c, 0, 60, 86
2, 38709, Note_on_c, 0, 56, 69
2, 38723, Note_on_c, 0, 48, 58
2, 38740, Note_on_c, 0, 48, 0
2, 38742, Note_on_c, 0, 60, 0
2, 38752, Note_on_c, 0, 53, 55
2, 38757, Control_c, 0, 64, 127
2, 38778, Note_on_c, 0, 56, 0
2, 38784, Note_on_c, 0, 53, 0
2, 38796, Control_c, 0, 64, 0
2, 38814, Note_on_c, 0, 51, 0
2, 38814, Note_on_c, 0, 48, 53
2, 38849, Note_on_c, 0, 48, 0
2, 38868, Note_on_c, 0, 41, 77
2, 38877, Note_on_c, 0, 60, 96
2, 38877, Note_on_c, 0, 56, 101
2, 38880, Note_on_c, 0, 53, 103
2, 38890, Control_c, 0, 64, 127
2, 38921, Control_c, 0, 64, 0
2, 38928, Note_on_c, 0, 53, 0
2, 38945, Note_on_c, 0, 56, 0
2, 38954, Note_on_c, 0, 60, 0
2, 39001, Note_on_c, 0, 56, 80
2, 39003, Note_on_c, 0, 60, 86
2, 39004, Note_on_c, 0, 53, 84
2, 39008, Control_c, 0, 64, 127
2, 39031, Note_on_c, 0, 53, 0
2, 39035, Control_c, 0, 64, 0
2, 39044, Note_on_c, 0, 56, 0
2, 39051, Note_on_c, 0, 60, 0
2, 39083, Note_on_c, 0, 48, 48
2, 39108, Control_c, 0, 64, 127
2, 39114, Note_on_c, 0, 48, 0
2, 39118, Note_on_c, 0, 60, 84
2, 39120, Note_on_c, 0, 56, 82
2, 39124, Note_on_c, 0, 53, 84
2, 39148, Note_on_c, 0, 53, 0
2, 39160, Note_on_c, 0, 56, 0
2, 39169, Note_on_c, 0, 60, 0
2, 39169, Control_c, 0, 64, 0
2, 39187, Note_on_c, 0, 62, 81
2, 39189, Note_on_c, 0, 51, 65
2, 39192, Note_on_c, 0, 56, 49
2, 39194, Note_on_c, 0, 41, 0
2, 39198, Note_on_c, 0, 53, 44
2, 39202, Control_c, 0, 64, 127
2, 39208, Note_on_c, 0, 56, 0
2, 39209, Note_on_c, 0, 53, 0
2, 39221, Note_on_c, 0, 51, 0
2, 39235, Note_on_c, 0, 62, 0
2, 39280, Control_c, 0, 64, 0
2, 39288, Note_on_c, 0, 63, 84
2, 39291, Note_on_c, 0, 56, 91
2, 39292, Note_on_c, 0, 60, 88
2, 39297, Note_on_c, 0, 53, 84
2, 39320, Control_c, 0, 64, 127
2, 39329, Note_on_c, 0, 60, 0
2, 39331, Note_on_c, 0, 56, 0
2, 39342, Note_on_c, 0, 63, 0
2, 39370, Note_on_c, 0, 53, 0
2, 39414, Control_c, 0, 64, 0
2, 39414, Note_on_c, 0, 65, 84
2, 39415, Note_on_c, 0, 55, 91
2, 39415, Note_on_c, 0, 56, 87
2, 39416, Note_on_c, 0, 63, 76
2, 39416, Note_on_c, 0, 60, 90
2, 39444, Note_on_c, 0, 65, 0
2, 39447, Control_c, 0, 64, 127
2, 39459, Note_on_c, 0, 60, 0
2, 39466, Note_on_c, 0, 63, 0
2, 39475, Note_on_c, 0, 56, 0
2, 39518, Note_on_c, 0, 55, 0
2, 39528, Control_c, 0, 64, 0
2, 39529, Note_on_c, 0, 63, 84
2, 39530, Note_on_c, 0, 56, 94
2, 39534, Note_on_c, 0, 60, 88
2, 39534, Note_on_c, 0, 67, 78
2, 39555, Note_on_c, 0, 60, 0
2, 39561, Note_on_c, 0, 67, 0
2, 39563, Control_c, 0, 64, 127
2, 39578, Note_on_c, 0, 63, 0
2, 39648, Note_on_c, 0, 68, 91
2, 39650, Note_on_c, 0, 56, 0
2, 39650, Note_on_c, 0, 63, 89
2, 39653, Control_c, 0, 64, 0
2, 39653, Note_on_c, 0, 65, 80
2, 39656, Note_on_c, 0, 58, 90
2, 39657, Note_on_c, 0, 60, 89
2, 39690, Note_on_c, 0, 60, 0
2, 39690, Control_c, 0, 64, 127
2, 39696, Note_on_c, 0, 68, 0
2, 39699, Note_on_c, 0, 65, 0
2, 39719, Note_on_c, 0, 63, 0
2, 39725, Note_on_c, 0, 58, 0
2, 39765, Note_on_c, 0, 63, 97
2, 39766, Note_on_c, 0, 70, 97
2, 39770, Note_on_c, 0, 60, 95
2, 39770, Note_on_c, 0, 56, 87
2, 39774, Control_c, 0, 64, 0
2, 39775, Note_on_c, 0, 65, 66
2, 39782, Note_on_c, 0, 68, 47
2, 39792, Note_on_c, 0, 65, 0
2, 39795, Note_on_c, 0, 68, 0
2, 39807, Note_on_c, 0, 60, 0
2, 39810, Control_c, 0, 64, 127
2, 39812, Note_on_c, 0, 63, 0
2, 39818, Note_on_c, 0, 70, 0
2, 39867, Note_on_c, 0, 56, 0
2, 39896, Note_on_c, 0, 68, 89
2, 39897, Note_on_c, 0, 65, 98
2, 39897, Note_on_c, 0, 72, 99
2, 39898, Note_on_c, 0, 60, 96
2, 39902, Control_c, 0, 64, 0
2, 39903, Note_on_c, 0, 56, 94
2, 39927, Note_on_c, 0, 60, 0
2, 39932, Note_on_c, 0, 65, 0
2, 39938, Control_c, 0, 64, 127
2, 39946, Note_on_c, 0, 72, 0
2, 39948, Note_on_c, 0, 68, 0
2, 40011, Note_on_c, 0, 56, 0
2, 40016, Control_c, 0, 64, 0
2, 40017, Note_on_c, 0, 70, 99
2, 40017, Note_on_c, 0, 74, 98
2, 40019, Note_on_c, 0, 65, 96
2, 40020, Note_on_c, 0, 58, 90
2, 40052, Note_on_c, 0, 65, 0
2, 40056, Control_c, 0, 64, 127
2, 40057, Note_on_c, 0, 74, 0
2, 40068, Note_on_c, 0, 70, 0
2, 40134, Control_c, 0, 64, 0
2, 40135, Note_on_c, 0, 75, 92
2, 40138, Note_on_c, 0, 68, 96
2, 40140, Note_on_c, 0, 65, 94
2, 40142, Note_on_c, 0, 72, 76
2, 40146, Note_on_c, 0, 60, 98
2, 40164, Note_on_c, 0, 72, 0
2, 40165, Control_c, 0, 64, 127
2, 40168, Note_on_c, 0, 65, 0
2, 40169, Note_on_c, 0, 58, 0
2, 40171, Note_on_c, 0, 68, 0
2, 40184, Note_on_c, 0, 75, 0
2, 40232, Note_on_c, 0, 60, 0
2, 40255, Note_on_c, 0, 77, 95
2, 40257, Note_on_c, 0, 72, 94
2, 40258, Note_on_c, 0, 67, 89
2, 40261, Control_c, 0, 64, 0
2, 40264, Note_on_c, 0, 62, 101
2, 40266, Note_on_c, 0, 75, 51
2, 40276, Note_on_c, 0, 75, 0
2, 40300, Control_c, 0, 64, 127
2, 40302, Note_on_c, 0, 67, 0
2, 40303, Note_on_c, 0, 77, 0
2, 40309, Note_on_c, 0, 72, 0
2, 40374, Note_on_c, 0, 79, 95
2, 40377, Note_on_c, 0, 75, 89
2, 40377, Control_c, 0, 64, 0
2, 40378, Note_on_c, 0, 72, 99
2, 40379, Note_on_c, 0, 63, 103
2, 40382, Note_on_c, 0, 67, 88
2, 40395, Note_on_c, 0, 62, 0
2, 40413, Control_c, 0, 64, 127
2, 40417, Note_on_c, 0, 67, 0
2, 40423, Note_on_c, 0, 79, 0
2, 40434, Note_on_c, 0, 75, 0
2, 40435, Note_on_c, 0, 72, 0
2, 40494, Note_on_c, 0, 72, 95
2, 40495, Note_on_c, 0, 80, 87
2, 40496, Note_on_c, 0, 75, 84
2, 40497, Control_c, 0, 64, 0
2, 40498, Note_on_c, 0, 68, 92
2, 40500, Note_on_c, 0, 65, 98
2, 40521, Note_on_c, 0, 63, 0
2, 40524, Control_c, 0, 64, 127
2, 40528, Note_on_c, 0, 72, 0
2, 40541, Note_on_c, 0, 68, 0
2, 40542, Note_on_c, 0, 75, 0
2, 40546, Note_on_c, 0, 80, 0
2, 40550, Note_on_c, 0, 65, 0
2, 40615, Note_on_c, 0, 67, 101
2, 40618, Note_on_c, 0, 82, 97
2, 40621, Note_on_c, 0, 70, 100
2, 40627, Control_c, 0, 64, 0
2, 40646, Note_on_c, 0, 67, 0
2, 40652, Control_c, 0, 64, 127
2, 40657, Note_on_c, 0, 70, 0
2, 40666, Note_on_c, 0, 82, 0
2, 40731, Note_on_c, 0, 67, 100
2, 40732, Note_on_c, 0, 84, 110
2, 40732, Note_on_c, 0, 80, 87
2, 40733, Note_on_c, 0, 72, 102
2, 40735, Note_on_c, 0, 63, 69
2, 40735, Note_on_c, 0, 77, 98
2, 40735, Note_on_c, 0, 56, 81
2, 40739, Note_on_c, 0, 78, 54
2, 40741, Note_on_c, 0, 60, 73
2, 40749, Note_on_c, 0, 78, 0
2, 40758, Control_c, 0, 64, 0
2, 40769, Note_on_c, 0, 72, 0
2, 40772, Note_on_c, 0, 67, 0
2, 40781, Note_on_c, 0, 84, 0
2, 40781, Note_on_c, 0, 77, 0
2, 40782, Note_on_c, 0, 60, 0
2, 40785, Note_on_c, 0, 56, 0
2, 40788, Note_on_c, 0, 63, 0
2, 40789, Note_on_c, 0, 80, 0
2, 40791, Control_c, 0, 64, 127
2, 40805, Note_on_c, 0, 56, 67
2, 40808, Note_on_c, 0, 84, 91
2, 40808, Note_on_c, 0, 67, 69
2, 40809, Note_on_c, 0, 63, 71
2, 40809, Note_on_c, 0, 80, 81
2, 40812, Note_on_c, 0, 77, 87
2, 40813, Note_on_c, 0, 72, 88
2, 40814, Note_on_c, 0, 60, 81
2, 40862, Note_on_c, 0, 72, 0
2, 40869, Note_on_c, 0, 84, 0
2, 40873, Note_on_c, 0, 67, 0
2, 40876, Note_on_c, 0, 56, 0
2, 40881, Note_on_c, 0, 60, 0
2, 40882, Note_on_c, 0, 77, 0
2, 40891, Note_on_c, 0, 63, 0
2, 40892, Note_on_c, 0, 80, 0
2, 40911, Note_on_c, 0, 63, 75
2, 40912, Note_on_c, 0, 67, 78
2, 40913, Note_on_c, 0, 80, 78
2, 40914, Note_on_c, 0, 74, 88
2, 40915, Note_on_c, 0, 56, 70
2, 40916, Note_on_c, 0, 77, 80
2, 40917, Note_on_c, 0, 60, 64
2, 40919, Note_on_c, 0, 86, 88
2, 40919, Note_on_c, 0, 84, 86
2, 40919, Note_on_c, 0, 78, 55
2, 40940, Note_on_c, 0, 77, 0
2, 40942, Note_on_c, 0, 67, 0
2, 40949, Note_on_c, 0, 56, 0
2, 40953, Note_on_c, 0, 74, 0
2, 40954, Note_on_c, 0, 60, 0
2, 40954, Note_on_c, 0, 80, 0
2, 40957, Note_on_c, 0, 84, 0
2, 40959, Note_on_c, 0, 86, 0
2, 40965, Note_on_c, 0, 63, 0
2, 40970, Note_on_c, 0, 78, 0
2, 40985, Control_c, 0, 64, 0
2, 40987, Note_on_c, 0, 78, 47
2, 40989, Note_on_c, 0, 63, 67
2, 40990, Note_on_c, 0, 80, 66
2, 40992, Note_on_c, 0, 74, 79
2, 40993, Note_on_c, 0, 56, 70
2, 40994, Note_on_c, 0, 86, 69
2, 40996, Note_on_c, 0, 84, 71
2, 40996, Note_on_c, 0, 60, 70
2, 41021, Control_c, 0, 64, 127
2, 41023, Note_on_c, 0, 74, 0
2, 41023, Note_on_c, 0, 80, 0
2, 41023, Note_on_c, 0, 78, 0
2, 41025, Note_on_c, 0, 84, 0
2, 41034, Note_on_c, 0, 86, 0
2, 41036, Note_on_c, 0, 56, 0
2, 41040, Note_on_c, 0, 60, 0
2, 41059, Note_on_c, 0, 63, 0
2, 41091, Note_on_c, 0, 87, 97
2, 41094, Note_on_c, 0, 75, 94
2, 41094, Note_on_c, 0, 56, 77
2, 41095, Note_on_c, 0, 63, 73
2, 41095, Note_on_c, 0, 67, 94
2, 41097, Note_on_c, 0, 60, 78
2, 41097, Note_on_c, 0, 82, 82
2, 41119, Note_on_c, 0, 67, 0
2, 41122, Note_on_c, 0, 75, 0
2, 41129, Note_on_c, 0, 87, 0
2, 41129, Note_on_c, 0, 56, 0
2, 41133, Note_on_c, 0, 60, 0
2, 41138, Note_on_c, 0, 82, 0
2, 41138, Note_on_c, 0, 63, 0
2, 41152, Note_on_c, 0, 87, 77
2, 41154, Note_on_c, 0, 67, 77
2, 41155, Note_on_c, 0, 63, 48
2, 41156, Note_on_c, 0, 56, 69
2, 41157, Note_on_c, 0, 82, 67
2, 41157, Note_on_c, 0, 75, 74
2, 41160, Note_on_c, 0, 60, 57
2, 41193, Note_on_c, 0, 75, 0
2, 41200, Note_on_c, 0, 87, 0
2, 41200, Note_on_c, 0, 67, 0
2, 41203, Note_on_c, 0, 82, 0
2, 41204, Note_on_c, 0, 56, 0
2, 41211, Note_on_c, 0, 60, 0
2, 41218, Note_on_c, 0, 63, 0
2, 41231, Control_c, 0, 64, 0
2, 41247, Note_on_c, 0, 63, 78
2, 41249, Control_c, 0, 64, 127
2, 41250, Note_on_c, 0, 77, 95
2, 41250, Note_on_c, 0, 67, 94
2, 41250, Note_on_c, 0, 89, 95
2, 41251, Note_on_c, 0, 84, 99
2, 41251, Note_on_c, 0, 60, 82
2, 41254, Note_on_c, 0, 56, 76
2, 41291, Note_on_c, 0, 77, 0
2, 41292, Note_on_c, 0, 67, 0
2, 41297, Note_on_c, 0, 56, 0
2, 41300, Note_on_c, 0, 84, 0
2, 41301, Note_on_c, 0, 89, 0
2, 41303, Note_on_c, 0, 60, 0
2, 41313, Note_on_c, 0, 63, 0
2, 41331, Control_c, 0, 64, 0
2, 41342, Note_on_c, 0, 63, 68
2, 41345, Note_on_c, 0, 56, 77
2, 41346, Note_on_c, 0, 89, 97
2, 41347, Note_on_c, 0, 60, 78
2, 41348, Note_on_c, 0, 77, 86
2, 41348, Note_on_c, 0, 84, 86
2, 41358, Control_c, 0, 64, 127
2, 41379, Note_on_c, 0, 77, 0
2, 41391, Note_on_c, 0, 56, 0
2, 41392, Note_on_c, 0, 84, 0
2, 41395, Note_on_c, 0, 89, 0
2, 41395, Note_on_c, 0, 60, 0
2, 41409, Note_on_c, 0, 63, 0
2, 41448, Note_on_c, 0, 63, 94
2, 41449, Note_on_c, 0, 87, 90
2, 41449, Note_on_c, 0, 79, 99
2, 41449, Note_on_c, 0, 84, 100
2, 41450, Note_on_c, 0, 91, 99
2, 41451, Note_on_c, 0, 60, 91
2, 41451, Note_on_c, 0, 67, 97
2, 41453, Control_c, 0, 64, 0
2, 41501, Control_c, 0, 64, 127
2, 41502, Note_on_c, 0, 67, 0
2, 41502, Note_on_c, 0, 60, 0
2, 41507, Note_on_c, 0, 79, 0
2, 41508, Note_on_c, 0, 84, 0
2, 41512, Note_on_c, 0, 91, 0
2, 41516, Note_on_c, 0, 87, 0
2, 41520, Note_on_c, 0, 63, 0
2, 41542, Note_on_c, 0, 63, 79
2, 41547, Note_on_c, 0, 91, 88
2, 41547, Note_on_c, 0, 67, 92
2, 41548, Note_on_c, 0, 79, 92
2, 41548, Note_on_c, 0, 87, 82
2, 41550, Note_on_c, 0, 60, 86
2, 41550, Note_on_c, 0, 84, 95
2, 41579, Note_on_c, 0, 91, 0
2, 41589, Note_on_c, 0, 67, 0
2, 41592, Note_on_c, 0, 79, 0
2, 41602, Note_on_c, 0, 84, 0
2, 41604, Note_on_c, 0, 60, 0
2, 41606, Note_on_c, 0, 87, 0
2, 41611, Note_on_c, 0, 63, 0
2, 41631, Control_c, 0, 64, 0
2, 41638, Note_on_c, 0, 63, 66
2, 41642, Note_on_c, 0, 60, 74
2, 41642, Note_on_c, 0, 67, 84
2, 41643, Control_c, 0, 64, 127
2, 41643, Note_on_c, 0, 84, 100
2, 41645, Note_on_c, 0, 92, 93
2, 41646, Note_on_c, 0, 87, 81
2, 41647, Note_on_c, 0, 80, 71
2, 41653, Note_on_c, 0, 56, 62
2, 41674, Note_on_c, 0, 67, 0
2, 41676, Note_on_c, 0, 80, 0
2, 41679, Note_on_c, 0, 60, 0
2, 41685, Note_on_c, 0, 92, 0
2, 41685, Note_on_c, 0, 84, 0
2, 41688, Note_on_c, 0, 56, 0
2, 41695, Note_on_c, 0, 87, 0
2, 41696, Note_on_c, 0, 63, 0
2, 41719, Control_c, 0, 64, 0
2, 41720, Note_on_c, 0, 63, 74
2, 41722, Note_on_c, 0, 92, 93
2, 41723, Note_on_c, 0, 87, 73
2, 41724, Note_on_c, 0, 80, 76
2, 41725, Note_on_c, 0, 67, 88
2, 41725, Note_on_c, 0, 56, 83
2, 41726, Note_on_c, 0, 84, 88
2, 41729, Note_on_c, 0, 60, 82
2, 41744, Control_c, 0, 64, 127
2, 41754, Note_on_c, 0, 84, 0
2, 41765, Note_on_c, 0, 67, 0
2, 41766, Note_on_c, 0, 87, 0
2, 41768, Note_on_c, 0, 80, 0
2, 41773, Note_on_c, 0, 60, 0
2, 41775, Note_on_c, 0, 92, 0
2, 41776, Note_on_c, 0, 56, 0
2, 41786, Note_on_c, 0, 63, 0
2, 41831, Note_on_c, 0, 63, 79
2, 41831, Note_on_c, 0, 56, 83
2, 41832, Note_on_c, 0, 67, 92
2, 41834, Note_on_c, 0, 82, 97
2, 41835, Note_on_c, 0, 94, 97
2, 41835, Note_on_c, 0, 60, 82
2, 41836, Note_on_c, 0, 87, 91
2, 41862, Note_on_c, 0, 67, 0
2, 41865, Note_on_c, 0, 87, 0
2, 41865, Control_c, 0, 64, 0
2, 41870, Note_on_c, 0, 82, 0
2, 41871, Note_on_c, 0, 56, 0
2, 41871, Note_on_c, 0, 60, 0
2, 41874, Note_on_c, 0, 94, 0
2, 41881, Note_on_c, 0, 63, 0
2, 41895, Note_on_c, 0, 56, 77
2, 41896, Note_on_c, 0, 94, 89
2, 41897, Control_c, 0, 64, 127
2, 41897, Note_on_c, 0, 67, 75
2, 41897, Note_on_c, 0, 82, 67
2, 41899, Note_on_c, 0, 63, 66
2, 41900, Note_on_c, 0, 87, 84
2, 41903, Note_on_c, 0, 60, 82
2, 41941, Note_on_c, 0, 67, 0
2, 41945, Note_on_c, 0, 94, 0
2, 41947, Note_on_c, 0, 82, 0
2, 41949, Note_on_c, 0, 87, 0
2, 41950, Note_on_c, 0, 56, 0
2, 41950, Note_on_c, 0, 60, 0
2, 41962, Note_on_c, 0, 63, 0
2, 41996, Control_c, 0, 64, 0
2, 42004, Note_on_c, 0, 92, 94
2, 42005, Note_on_c, 0, 63, 83
2, 42007, Note_on_c, 0, 80, 91
2, 42007, Note_on_c, 0, 67, 96
2, 42008, Note_on_c, 0, 56, 83
2, 42010, Note_on_c, 0, 60, 82
2, 42010, Note_on_c, 0, 87, 92
2, 42029, Control_c, 0, 64, 127
2, 42038, Control_c, 0, 64, 0
2, 42089, Control_c, 0, 64, 127
2, 42095, Note_on_c, 0, 87, 0
2, 42116, Note_on_c, 0, 92, 0
2, 42117, Note_on_c, 0, 80, 0
2, 42119, Note_on_c, 0, 67, 0
2, 42125, Note_on_c, 0, 56, 0
2, 42133, Note_on_c, 0, 60, 0
2, 42157, Note_on_c, 0, 63, 0
2, 42184, Note_on_c, 0, 63, 73
2, 42186, Note_on_c, 0, 67, 100
2, 42186, Note_on_c, 0, 56, 84
2, 42190, Note_on_c, 0, 79, 104
2, 42191, Note_on_c, 0, 91, 100
2, 42191, Note_on_c, 0, 60, 80
2, 42193, Control_c, 0, 64, 0
2, 42196, Note_on_c, 0, 89, 78
2, 42208, Note_on_c, 0, 89, 0
2, 42248, Note_on_c, 0, 79, 0
2, 42252, Note_on_c, 0, 91, 0
2, 42296, Note_on_c, 0, 89, 98
2, 42323, Note_on_c, 0, 67, 0
2, 42333, Note_on_c, 0, 89, 0
2, 42377, Note_on_c, 0, 87, 49
2, 42389, Note_on_c, 0, 63, 0
2, 42400, Note_on_c, 0, 60, 0
2, 42402, Note_on_c, 0, 87, 0
2, 42423, Note_on_c, 0, 63, 66
2, 42424, Note_on_c, 0, 84, 101
2, 42435, Note_on_c, 0, 60, 61
2, 42466, Note_on_c, 0, 84, 0
2, 42475, Note_on_c, 0, 80, 69
2, 42479, Note_on_c, 0, 56, 0
2, 42520, Note_on_c, 0, 80, 0
2, 42522, Note_on_c, 0, 63, 0
2, 42527, Note_on_c, 0, 60, 0
2, 42542, Note_on_c, 0, 79, 77
2, 42550, Note_on_c, 0, 63, 63
2, 42555, Note_on_c, 0, 56, 64
2, 42559, Note_on_c, 0, 67, 49
2, 42562, Note_on_c, 0, 60, 53
2, 42574, Note_on_c, 0, 67, 0
2, 42579, Note_on_c, 0, 79, 0
2, 42600, Note_on_c, 0, 56, 0
2, 42602, Note_on_c, 0, 82, 95
2, 42638, Note_on_c, 0, 63, 0
2, 42646, Note_on_c, 0, 60, 0
2, 42664, Note_on_c, 0, 80, 92
2, 42687, Note_on_c, 0, 82, 0
2, 42696, Note_on_c, 0, 63, 47
2, 42704, Note_on_c, 0, 80, 0
2, 42717, Note_on_c, 0, 60, 36
2, 42724, Note_on_c, 0, 79, 97
2, 42743, Note_on_c, 0, 63, 0
2, 42763, Note_on_c, 0, 60, 0
2, 42765, Note_on_c, 0, 79, 0
2, 42779, Note_on_c, 0, 80, 53
2, 42803, Note_on_c, 0, 79, 70
2, 42826, Note_on_c, 0, 80, 0
2, 42838, Note_on_c, 0, 79, 0
2, 42842, Note_on_c, 0, 77, 75
2, 42885, Note_on_c, 0, 77, 0
2, 42905, Note_on_c, 0, 75, 85
2, 42910, Note_on_c, 0, 63, 57
2, 42910, Note_on_c, 0, 67, 56
2, 42915, Note_on_c, 0, 60, 55
2, 42923, Note_on_c, 0, 67, 0
2, 42932, Note_on_c, 0, 60, 0
2, 42945, Note_on_c, 0, 63, 0
2, 42949, Note_on_c, 0, 75, 0
2, 42968, Note_on_c, 0, 72, 69
2, 43025, Note_on_c, 0, 72, 0
2, 43027, Note_on_c, 0, 68, 89
2, 43062, Note_on_c, 0, 68, 0
2, 43089, Note_on_c, 0, 67, 53
2, 43160, Note_on_c, 0, 67, 0
2, 43263, Note_on_c, 0, 63, 77
2, 43264, Note_on_c, 0, 53, 80
2, 43270, Note_on_c, 0, 58, 65
2, 43315, Note_on_c, 0, 53, 0
2, 43325, Note_on_c, 0, 58, 0
2, 43329, Note_on_c, 0, 63, 0
2, 43444, Note_on_c, 0, 55, 83
2, 43444, Note_on_c, 0, 65, 82
2, 43448, Note_on_c, 0, 60, 77
2, 43532, Note_on_c, 0, 60, 0
2, 43534, Note_on_c, 0, 55, 0
2, 43549, Note_on_c, 0, 65, 0
2, 43618, Note_on_c, 0, 57, 87
2, 43618, Note_on_c, 0, 63, 80
2, 43620, Note_on_c, 0, 68, 88
2, 43622, Note_on_c, 0, 61, 75
2, 43774, Note_on_c, 0, 57, 0
2, 43782, Note_on_c, 0, 68, 0
2, 43790, Note_on_c, 0, 61, 0
2, 43799, Note_on_c, 0, 84, 123
2, 43845, Note_on_c, 0, 63, 0
2, 43847, Note_on_c, 0, 84, 0
2, 43866, Note_on_c, 0, 82, 93
2, 43867, Note_on_c, 0, 63, 64
2, 43871, Note_on_c, 0, 67, 76
2, 43872, Note_on_c, 0, 56, 66
2, 43876, Note_on_c, 0, 60, 64
2, 43957, Note_on_c, 0, 82, 0
2, 43986, Note_on_c, 0, 80, 88
2, 43997, Note_on_c, 0, 82, 50
2, 44014, Note_on_c, 0, 82, 0
2, 44027, Note_on_c, 0, 80, 0
2, 44041, Note_on_c, 0, 67, 0
2, 44045, Note_on_c, 0, 77, 80
2, 44074, Note_on_c, 0, 56, 0
2, 44077, Note_on_c, 0, 63, 0
2, 44082, Note_on_c, 0, 60, 0
2, 44082, Note_on_c, 0, 77, 0
2, 44109, Note_on_c, 0, 63, 57
2, 44110, Note_on_c, 0, 75, 87
2, 44116, Note_on_c, 0, 67, 52
2, 44116, Note_on_c, 0, 60, 51
2, 44120, Note_on_c, 0, 56, 45
2, 44129, Note_on_c, 0, 67, 0
2, 44145, Note_on_c, 0, 56, 0
2, 44160, Note_on_c, 0, 75, 0
2, 44166, Note_on_c, 0, 63, 0
2, 44168, Note_on_c, 0, 60, 0
2, 44226, Note_on_c, 0, 63, 66
2, 44227, Note_on_c, 0, 72, 80
2, 44238, Note_on_c, 0, 63, 0
2, 44263, Note_on_c, 0, 72, 0
2, 44295, Note_on_c, 0, 70, 50
2, 44331, Note_on_c, 0, 70, 0
2, 44347, Note_on_c, 0, 68, 63
2, 44357, Note_on_c, 0, 68, 0
2, 44401, Note_on_c, 0, 70, 99
2, 44466, Note_on_c, 0, 70, 0
2, 44521, Note_on_c, 0, 68, 89
2, 44558, Note_on_c, 0, 68, 0
2, 44590, Note_on_c, 0, 70, 55
2, 44601, Note_on_c, 0, 68, 73
2, 44618, Note_on_c, 0, 70, 0
2, 44636, Note_on_c, 0, 65, 71
2, 44647, Note_on_c, 0, 68, 0
2, 44650, Note_on_c, 0, 65, 0
2, 44712, Note_on_c, 0, 68, 93
2, 44745, Note_on_c, 0, 68, 0
2, 44830, Note_on_c, 0, 65, 97
2, 44910, Note_on_c, 0, 65, 0
2, 44950, Note_on_c, 0, 65, 91
2, 44986, Note_on_c, 0, 65, 0
2, 45020, Note_on_c, 0, 63, 41
2, 45044, Note_on_c, 0, 63, 0
2, 45075, Note_on_c, 0, 63, 80
2, 45126, Note_on_c, 0, 63, 0
2, 45133, Note_on_c, 0, 60, 82
2, 45195, Note_on_c, 0, 60, 0
2, 45232, Note_on_c, 0, 60, 78
2, 45272, Note_on_c, 0, 60, 0
2, 45306, Note_on_c, 0, 63, 103
2, 45431, Note_on_c, 0, 60, 60
2, 45443, Note_on_c, 0, 63, 0
2, 45444, Note_on_c, 0, 60, 0
2, 45482, Note_on_c, 0, 62, 107
2, 45779, Note_on_c, 0, 62, 0
2, 45784, Note_on_c, 0, 58, 103
2, 45785, Note_on_c, 0, 46, 84
2, 45895, Note_on_c, 0, 58, 0
2, 45911, Note_on_c, 0, 57, 73
2, 45914, Note_on_c, 0, 46, 0
2, 45942, Note_on_c, 0, 57, 0
2, 45969, Note_on_c, 0, 58, 98
2, 45971, Note_on_c, 0, 46, 92
2, 46079, Control_c, 0, 64, 127
2, 46132, Note_on_c, 0, 58, 0
2, 46141, Note_on_c, 0, 60, 96
2, 46149, Note_on_c, 0, 48, 87
2, 46153, Note_on_c, 0, 46, 0
2, 46167, Control_c, 0, 64, 0
2, 46188, Note_on_c, 0, 60, 0
2, 46195, Control_c, 0, 64, 127
2, 46196, Note_on_c, 0, 48, 0
2, 46205, Note_on_c, 0, 62, 74
2, 46250, Note_on_c, 0, 62, 0
2, 46256, Control_c, 0, 64, 0
2, 46264, Note_on_c, 0, 63, 94
2, 46312, Note_on_c, 0, 63, 0
2, 46330, Note_on_c, 0, 65, 79
2, 46375, Note_on_c, 0, 65, 0
2, 46387, Note_on_c, 0, 66, 83
2, 46423, Note_on_c, 0, 66, 0
2, 46442, Note_on_c, 0, 68, 77
2, 46484, Note_on_c, 0, 68, 0
2, 46508, Note_on_c, 0, 70, 80
2, 46544, Note_on_c, 0, 70, 0
2, 46564, Note_on_c, 0, 63, 57
2, 46567, Note_on_c, 0, 71, 59
2, 46572, Note_on_c, 0, 54, 54
2, 46575, Note_on_c, 0, 58, 53
2, 46578, Note_on_c, 0, 59, 58
2, 46625, Note_on_c, 0, 71, 0
2, 46637, Note_on_c, 0, 73, 81
2, 46680, Note_on_c, 0, 73, 0
2, 46681, Note_on_c, 0, 59, 0
2, 46686, Note_on_c, 0, 63, 0
2, 46698, Note_on_c, 0, 58, 0
2, 46705, Note_on_c, 0, 75, 69
2, 46741, Note_on_c, 0, 75, 0
2, 46752, Note_on_c, 0, 77, 85
2, 46788, Note_on_c, 0, 77, 0
2, 46805, Note_on_c, 0, 78, 70
2, 46835, Note_on_c, 0, 78, 0
2, 46860, Note_on_c, 0, 80, 92
2, 46873, Note_on_c, 0, 63, 62
2, 46887, Note_on_c, 0, 59, 49
2, 46889, Note_on_c, 0, 80, 0
2, 46892, Note_on_c, 0, 63, 0
2, 46905, Note_on_c, 0, 59, 0
2, 46922, Note_on_c, 0, 82, 77
2, 46956, Note_on_c, 0, 82, 0
2, 46958, Note_on_c, 0, 54, 0
2, 46980, Note_on_c, 0, 82, 73
2, 46985, Note_on_c, 0, 70, 91
2, 46993, Note_on_c, 0, 63, 74
2, 46994, Note_on_c, 0, 59, 72
2, 46997, Note_on_c, 0, 58, 47
2, 47001, Note_on_c, 0, 53, 62
2, 47034, Note_on_c, 0, 70, 0
2, 47040, Note_on_c, 0, 71, 64
2, 47061, Note_on_c, 0, 71, 0
2, 47067, Note_on_c, 0, 82, 0
2, 47073, Note_on_c, 0, 63, 0
2, 47074, Note_on_c, 0, 59, 0
2, 47082, Note_on_c, 0, 58, 0
2, 47090, Note_on_c, 0, 53, 0
2, 47151, Note_on_c, 0, 63, 67
2, 47156, Note_on_c, 0, 82, 94
2, 47157, Note_on_c, 0, 59, 73
2, 47158, Note_on_c, 0, 70, 91
2, 47159, Note_on_c, 0, 58, 49
2, 47161, Note_on_c, 0, 53, 55
2, 47264, Note_on_c, 0, 63, 0
2, 47279, Note_on_c, 0, 53, 0
2, 47285, Note_on_c, 0, 59, 0
2, 47292, Note_on_c, 0, 58, 0
2, 47294, Note_on_c, 0, 82, 0
2, 47299, Note_on_c, 0, 70, 0
2, 47341, Note_on_c, 0, 80, 72
2, 47342, Note_on_c, 0, 63, 69
2, 47346, Note_on_c, 0, 68, 84
2, 47349, Note_on_c, 0, 59, 66
2, 47350, Note_on_c, 0, 58, 46
2, 47351, Note_on_c, 0, 53, 50
2, 47402, Control_c, 0, 64, 127
2, 47431, Note_on_c, 0, 59, 0
2, 47439, Note_on_c, 0, 58, 0
2, 47442, Note_on_c, 0, 63, 0
2, 47450, Note_on_c, 0, 53, 0
2, 47460, Note_on_c, 0, 80, 0
2, 47461, Note_on_c, 0, 68, 0
2, 47523, Note_on_c, 0, 61, 65
2, 47526, Note_on_c, 0, 77, 78
2, 47527, Note_on_c, 0, 58, 55
2, 47527, Note_on_c, 0, 51, 55
2, 47530, Note_on_c, 0, 65, 71
2, 47534, Note_on_c, 0, 56, 52
2, 47548, Control_c, 0, 64, 0
2, 47560, Note_on_c, 0, 61, 0
2, 47561, Note_on_c, 0, 65, 0
2, 47562, Note_on_c, 0, 51, 0
2, 47562, Note_on_c, 0, 77, 0
2, 47566, Note_on_c, 0, 56, 0
2, 47567, Note_on_c, 0, 58, 0
2, 47639, Note_on_c, 0, 61, 67
2, 47642, Note_on_c, 0, 51, 57
2, 47643, Note_on_c, 0, 77, 82
2, 47644, Note_on_c, 0, 65, 72
2, 47646, Note_on_c, 0, 58, 57
2, 47648, Note_on_c, 0, 56, 53
2, 47686, Note_on_c, 0, 65, 0
2, 47691, Note_on_c, 0, 77, 0
2, 47725, Note_on_c, 0, 58, 0
2, 47762, Note_on_c, 0, 73, 72
2, 47791, Note_on_c, 0, 61, 0
2, 47798, Note_on_c, 0, 73, 0
2, 47814, Note_on_c, 0, 56, 0
2, 47827, Note_on_c, 0, 73, 60
2, 47830, Note_on_c, 0, 61, 53
2, 47841, Note_on_c, 0, 58, 43
2, 47878, Note_on_c, 0, 73, 0
2, 47887, Note_on_c, 0, 65, 55
2, 47905, Note_on_c, 0, 61, 0
2, 47908, Note_on_c, 0, 58, 0
2, 47922, Note_on_c, 0, 65, 0
2, 47954, Note_on_c, 0, 65, 69
2, 47956, Note_on_c, 0, 61, 54
2, 47986, Note_on_c, 0, 61, 0
2, 47987, Note_on_c, 0, 65, 0
2, 47994, Note_on_c, 0, 51, 0
2, 48066, Note_on_c, 0, 61, 71
2, 48074, Note_on_c, 0, 58, 55
2, 48078, Note_on_c, 0, 51, 39
2, 48079, Note_on_c, 0, 56, 48
2, 48094, Note_on_c, 0, 51, 0
2, 48097, Note_on_c, 0, 61, 0
2, 48100, Note_on_c, 0, 58, 0
2, 48104, Note_on_c, 0, 56, 0
2, 48240, Note_on_c, 0, 61, 71
2, 48245, Note_on_c, 0, 58, 57
2, 48252, Note_on_c, 0, 56, 46
2, 48268, Note_on_c, 0, 61, 0
2, 48269, Note_on_c, 0, 56, 0
2, 48274, Note_on_c, 0, 58, 0
2, 48373, Note_on_c, 0, 61, 83
2, 48376, Note_on_c, 0, 58, 67
2, 48380, Note_on_c, 0, 51, 54
2, 48381, Note_on_c, 0, 56, 53
2, 48394, Note_on_c, 0, 51, 0
2, 48413, Note_on_c, 0, 61, 0
2, 48413, Note_on_c, 0, 58, 0
2, 48414, Note_on_c, 0, 56, 0
2, 48548, Note_on_c, 0, 66, 79
2, 48550, Note_on_c, 0, 56, 69
2, 48553, Note_on_c, 0, 62, 67
2, 48565, Note_on_c, 0, 62, 0
2, 48571, Note_on_c, 0, 66, 0
2, 48583, Note_on_c, 0, 56, 0
2, 48721, Note_on_c, 0, 56, 76
2, 48721, Note_on_c, 0, 66, 80
2, 48724, Note_on_c, 0, 62, 69
2, 48801, Note_on_c, 0, 62, 0
2, 48844, Note_on_c, 0, 66, 0
2, 48874, Note_on_c, 0, 56, 0
2, 48901, Note_on_c, 0, 60, 66
2, 48902, Note_on_c, 0, 61, 71
2, 48903, Note_on_c, 0, 65, 78
2, 48909, Note_on_c, 0, 55, 74
2, 48912, Note_on_c, 0, 58, 52
2, 49023, Note_on_c, 0, 96, 123
2, 49051, Note_on_c, 0, 65, 0
2, 49088, Note_on_c, 0, 61, 0
2, 49130, Note_on_c, 0, 96, 0
2, 49139, Note_on_c, 0, 95, 82
2, 49143, Note_on_c, 0, 55, 0
2, 49150, Note_on_c, 0, 95, 0
2, 49151, Note_on_c, 0, 94, 90
2, 49190, Note_on_c, 0, 94, 0
2, 49198, Note_on_c, 0, 61, 56
2, 49200, Note_on_c, 0, 93, 75
2, 49200, Note_on_c, 0, 55, 37
2, 49231, Note_on_c, 0, 93, 0
2, 49250, Note_on_c, 0, 61, 0
2, 49250, Note_on_c, 0, 55, 0
2, 49252, Note_on_c, 0, 60, 0
2, 49262, Note_on_c, 0, 58, 0
2, 49270, Note_on_c, 0, 89, 103
2, 49274, Note_on_c, 0, 61, 70
2, 49276, Note_on_c, 0, 55, 52
2, 49280, Note_on_c, 0, 65, 74
2, 49284, Note_on_c, 0, 58, 35
2, 49302, Note_on_c, 0, 65, 0
2, 49305, Note_on_c, 0, 89, 0
2, 49325, Note_on_c, 0, 87, 67
2, 49331, Note_on_c, 0, 55, 0
2, 49337, Note_on_c, 0, 58, 0
2, 49345, Note_on_c, 0, 61, 0
2, 49388, Note_on_c, 0, 87, 0
2, 49392, Note_on_c, 0, 84, 69
2, 49408, Note_on_c, 0, 84, 0
2, 49441, Note_on_c, 0, 63, 72
2, 49442, Note_on_c, 0, 87, 102
2, 49444, Note_on_c, 0, 58, 53
2, 49448, Note_on_c, 0, 60, 64
2, 49451, Note_on_c, 0, 53, 59
2, 49563, Note_on_c, 0, 60, 0
2, 49574, Note_on_c, 0, 53, 0
2, 49580, Note_on_c, 0, 63, 0
2, 49583, Note_on_c, 0, 58, 0
2, 49603, Note_on_c, 0, 87, 0
2, 49625, Note_on_c, 0, 63, 69
2, 49631, Note_on_c, 0, 60, 73
2, 49633, Note_on_c, 0, 58, 52
2, 49640, Note_on_c, 0, 53, 48
2, 49691, Note_on_c, 0, 60, 0
2, 49800, Note_on_c, 0, 63, 0
2, 49813, Note_on_c, 0, 58, 0
2, 49858, Note_on_c, 0, 53, 0
2, 49862, Note_on_c, 0, 63, 43
2, 49864, Note_on_c, 0, 60, 58
2, 49871, Note_on_c, 0, 58, 43
2, 49873, Note_on_c, 0, 63, 0
2, 49913, Note_on_c, 0, 80, 91
2, 49917, Note_on_c, 0, 53, 37
2, 49941, Note_on_c, 0, 60, 0
2, 49955, Note_on_c, 0, 80, 0
2, 49958, Note_on_c, 0, 72, 78
2, 49963, Note_on_c, 0, 58, 0
2, 49971, Note_on_c, 0, 72, 0
2, 49993, Note_on_c, 0, 75, 65
2, 50011, Note_on_c, 0, 60, 44
2, 50025, Note_on_c, 0, 75, 0
2, 50025, Note_on_c, 0, 77, 70
2, 50041, Note_on_c, 0, 77, 0
2, 50059, Note_on_c, 0, 60, 0
2, 50080, Note_on_c, 0, 53, 0
2, 50125, Note_on_c, 0, 63, 76
2, 50126, Note_on_c, 0, 60, 77
2, 50130, Note_on_c, 0, 53, 60
2, 50132, Note_on_c, 0, 58, 63
2, 50197, Note_on_c, 0, 63, 0
2, 50208, Note_on_c, 0, 60, 0
2, 50241, Note_on_c, 0, 63, 77
2, 50241, Note_on_c, 0, 77, 99
2, 50246, Note_on_c, 0, 60, 60
2, 50271, Note_on_c, 0, 77, 0
2, 50273, Note_on_c, 0, 53, 0
2, 50284, Note_on_c, 0, 60, 0
2, 50297, Note_on_c, 0, 63, 0
2, 50298, Note_on_c, 0, 79, 74
2, 50321, Note_on_c, 0, 79, 0
2, 50334, Note_on_c, 0, 80, 70
2, 50359, Note_on_c, 0, 80, 0
2, 50365, Note_on_c, 0, 58, 0
2, 50370, Note_on_c, 0, 82, 94
2, 50394, Note_on_c, 0, 63, 68
2, 50403, Note_on_c, 0, 59, 77
2, 50405, Note_on_c, 0, 58, 38
2, 50406, Note_on_c, 0, 54, 50
2, 50408, Note_on_c, 0, 82, 0
2, 50427, Note_on_c, 0, 70, 82
2, 50428, Note_on_c, 0, 82, 85
2, 50450, Note_on_c, 0, 63, 0
2, 50452, Note_on_c, 0, 59, 0
2, 50469, Note_on_c, 0, 70, 0
2, 50473, Note_on_c, 0, 82, 0
2, 50476, Note_on_c, 0, 71, 62
2, 50501, Note_on_c, 0, 71, 0
2, 50501, Note_on_c, 0, 63, 39
2, 50510, Note_on_c, 0, 59, 66
2, 50519, Note_on_c, 0, 63, 0
2, 50529, Note_on_c, 0, 59, 0
2, 50572, Note_on_c, 0, 54, 0
2, 50574, Note_on_c, 0, 58, 0
2, 50598, Note_on_c, 0, 82, 97
2, 50598, Note_on_c, 0, 70, 105
2, 50600, Note_on_c, 0, 63, 71
2, 50606, Note_on_c, 0, 58, 45
2, 50608, Note_on_c, 0, 59, 71
2, 50623, Note_on_c, 0, 70, 0
2, 50627, Note_on_c, 0, 63, 0
2, 50633, Note_on_c, 0, 82, 0
2, 50640, Note_on_c, 0, 54, 22
2, 50667, Note_on_c, 0, 82, 80
2, 50667, Note_on_c, 0, 70, 87
2, 50670, Note_on_c, 0, 59, 0
2, 50680, Note_on_c, 0, 58, 0
2, 50701, Note_on_c, 0, 70, 0
2, 50705, Note_on_c, 0, 54, 0
2, 50720, Note_on_c, 0, 76, 44
2, 50726, Note_on_c, 0, 63, 66
2, 50729, Note_on_c, 0, 54, 46
2, 50731, Note_on_c, 0, 82, 0
2, 50739, Note_on_c, 0, 76, 0
2, 50742, Note_on_c, 0, 59, 66
2, 50745, Note_on_c, 0, 58, 40
2, 50754, Note_on_c, 0, 63, 0
2, 50762, Note_on_c, 0, 82, 55
2, 50764, Note_on_c, 0, 70, 80
2, 50767, Note_on_c, 0, 59, 0
2, 50783, Note_on_c, 0, 82, 0
2, 50784, Note_on_c, 0, 70, 0
2, 50786, Note_on_c, 0, 54, 0
2, 50791, Note_on_c, 0, 58, 0
2, 50828, Note_on_c, 0, 82, 97
2, 50829, Note_on_c, 0, 70, 101
2, 50829, Note_on_c, 0, 63, 67
2, 50830, Note_on_c, 0, 58, 51
2, 50831, Note_on_c, 0, 59, 80
2, 50835, Note_on_c, 0, 53, 60
2, 50873, Note_on_c, 0, 70, 0
2, 50881, Note_on_c, 0, 59, 0
2, 50881, Note_on_c, 0, 82, 0
2, 50884, Note_on_c, 0, 63, 0
2, 50904, Note_on_c, 0, 82, 71
2, 50909, Note_on_c, 0, 70, 89
2, 50925, Note_on_c, 0, 63, 58
2, 50932, Note_on_c, 0, 59, 69
2, 50941, Note_on_c, 0, 76, 34
2, 50954, Note_on_c, 0, 70, 0
2, 50965, Note_on_c, 0, 63, 0
2, 50977, Note_on_c, 0, 82, 0
2, 50986, Note_on_c, 0, 76, 0
2, 50999, Note_on_c, 0, 82, 76
2, 51007, Note_on_c, 0, 70, 93
2, 51010, Note_on_c, 0, 59, 0
2, 51019, Note_on_c, 0, 58, 0
2, 51020, Note_on_c, 0, 53, 0
2, 51039, Note_on_c, 0, 82, 0
2, 51040, Note_on_c, 0, 70, 0
2, 51062, Note_on_c, 0, 63, 66
2, 51067, Note_on_c, 0, 80, 73
2, 51070, Note_on_c, 0, 68, 88
2, 51070, Note_on_c, 0, 59, 70
2, 51073, Note_on_c, 0, 58, 49
2, 51075, Note_on_c, 0, 63, 0
2, 51111, Note_on_c, 0, 68, 0
2, 51115, Note_on_c, 0, 80, 0
2, 51135, Note_on_c, 0, 59, 0
2, 51144, Note_on_c, 0, 58, 0
2, 51149, Note_on_c, 0, 78, 57
2, 51155, Note_on_c, 0, 66, 77
2, 51189, Note_on_c, 0, 66, 0
2, 51197, Note_on_c, 0, 78, 0
2, 51207, Note_on_c, 0, 59, 56
2, 51209, Note_on_c, 0, 58, 46
2, 51224, Note_on_c, 0, 59, 0
2, 51234, Note_on_c, 0, 78, 57
2, 51240, Note_on_c, 0, 66, 87
2, 51247, Note_on_c, 0, 58, 0
2, 51294, Note_on_c, 0, 78, 0
2, 51296, Note_on_c, 0, 66, 0
2, 51319, Note_on_c, 0, 77, 80
2, 51324, Note_on_c, 0, 65, 77
2, 51325, Note_on_c, 0, 61, 59
2, 51325, Note_on_c, 0, 58, 60
2, 51327, Note_on_c, 0, 51, 58
2, 51330, Note_on_c, 0, 56, 54
2, 51330, Note_on_c, 0, 75, 45
2, 51463, Note_on_c, 0, 76, 25
2, 51471, Control_c, 0, 64, 127
2, 51489, Note_on_c, 0, 56, 0
2, 51490, Note_on_c, 0, 58, 0
2, 51496, Note_on_c, 0, 65, 0
2, 51497, Note_on_c, 0, 61, 0
2, 51499, Note_on_c, 0, 76, 0
2, 51508, Note_on_c, 0, 75, 0
2, 51509, Note_on_c, 0, 77, 0
2, 51511, Note_on_c, 0, 51, 0
2, 51534, Note_on_c, 0, 75, 80
2, 51535, Note_on_c, 0, 61, 75
2, 51536, Note_on_c, 0, 65, 77
2, 51538, Note_on_c, 0, 51, 50
2, 51539, Note_on_c, 0, 58, 67
2, 51541, Control_c, 0, 64, 0
2, 51546, Note_on_c, 0, 56, 58
2, 51560, Note_on_c, 0, 51, 0
2, 51568, Control_c, 0, 64, 127
2, 51579, Note_on_c, 0, 61, 0
2, 51593, Note_on_c, 0, 56, 0
2, 51596, Note_on_c, 0, 58, 0
2, 51605, Note_on_c, 0, 65, 0
2, 51625, Note_on_c, 0, 75, 0
2, 51657, Note_on_c, 0, 68, 84
2, 51657, Note_on_c, 0, 58, 71
2, 51657, Note_on_c, 0, 61, 72
2, 51660, Note_on_c, 0, 51, 69
2, 51662, Note_on_c, 0, 56, 55
2, 51677, Note_on_c, 0, 61, 0
2, 51677, Control_c, 0, 64, 0
2, 51699, Note_on_c, 0, 58, 0
2, 51703, Note_on_c, 0, 68, 0
2, 51705, Note_on_c, 0, 56, 0
2, 51716, Control_c, 0, 64, 127
2, 51727, Note_on_c, 0, 65, 44
2, 51737, Note_on_c, 0, 65, 0
2, 51787, Note_on_c, 0, 54, 58
2, 51801, Note_on_c, 0, 55, 57
2, 51802, Note_on_c, 0, 51, 0
2, 51815, Note_on_c, 0, 55, 0
2, 51829, Note_on_c, 0, 54, 0
2, 51830, Note_on_c, 0, 68, 85
2, 51832, Note_on_c, 0, 56, 87
2, 51833, Note_on_c, 0, 61, 80
2, 51835, Control_c, 0, 64, 0
2, 51835, Note_on_c, 0, 64, 84
2, 51835, Note_on_c, 0, 57, 84
2, 51882, Note_on_c, 0, 57, 0
2, 51895, Note_on_c, 0, 64, 0
2, 51900, Note_on_c, 0, 68, 0
2, 51903, Note_on_c, 0, 61, 0
2, 51904, Note_on_c, 0, 56, 0
2, 51907, Note_on_c, 0, 54, 70
2, 51955, Note_on_c, 0, 56, 68
2, 51957, Note_on_c, 0, 54, 0
2, 51959, Note_on_c, 0, 61, 78
2, 51961, Note_on_c, 0, 68, 81
2, 51964, Note_on_c, 0, 64, 73
2, 51964, Note_on_c, 0, 57, 85
2, 52005, Note_on_c, 0, 57, 0
2, 52007, Note_on_c, 0, 64, 0
2, 52025, Note_on_c, 0, 61, 0
2, 52026, Note_on_c, 0, 68, 0
2, 52037, Note_on_c, 0, 56, 0
2, 52051, Note_on_c, 0, 54, 52
2, 52069, Note_on_c, 0, 54, 0
2, 52081, Note_on_c, 0, 56, 70
2, 52084, Note_on_c, 0, 68, 82
2, 52086, Note_on_c, 0, 61, 72
2, 52087, Note_on_c, 0, 63, 67
2, 52089, Note_on_c, 0, 57, 83
2, 52120, Note_on_c, 0, 57, 0
2, 52122, Note_on_c, 0, 63, 0
2, 52133, Note_on_c, 0, 68, 0
2, 52146, Note_on_c, 0, 66, 71
2, 52146, Note_on_c, 0, 54, 67
2, 52148, Note_on_c, 0, 56, 0
2, 52192, Note_on_c, 0, 61, 0
2, 52194, Note_on_c, 0, 66, 0
2, 52194, Note_on_c, 0, 54, 0
2, 52203, Note_on_c, 0, 51, 63
2, 52204, Note_on_c, 0, 57, 57
2, 52217, Note_on_c, 0, 57, 0
2, 52258, Note_on_c, 0, 51, 0
2, 52260, Note_on_c, 0, 67, 94
2, 52262, Note_on_c, 0, 56, 92
2, 52265, Note_on_c, 0, 60, 87
2, 52266, Note_on_c, 0, 63, 67
2, 52270, Note_on_c, 0, 55, 84
2, 52319, Note_on_c, 0, 67, 0
2, 52350, Note_on_c, 0, 56, 0
2, 52350, Note_on_c, 0, 60, 0
2, 52376, Note_on_c, 0, 55, 0
2, 52376, Note_on_c, 0, 66, 82
2, 52378, Note_on_c, 0, 56, 67
2, 52379, Note_on_c, 0, 54, 72
2, 52386, Note_on_c, 0, 60, 56
2, 52413, Note_on_c, 0, 60, 0
2, 52417, Note_on_c, 0, 63, 0
2, 52417, Note_on_c, 0, 54, 0
2, 52430, Note_on_c, 0, 66, 0
2, 52434, Note_on_c, 0, 53, 63
2, 52446, Note_on_c, 0, 60, 45
2, 52454, Note_on_c, 0, 65, 44
2, 52464, Note_on_c, 0, 65, 0
2, 52471, Note_on_c, 0, 56, 0
2, 52496, Note_on_c, 0, 53, 0
2, 52503, Note_on_c, 0, 60, 0
2, 52551, Note_on_c, 0, 65, 85
2, 52557, Note_on_c, 0, 56, 82
2, 52557, Note_on_c, 0, 60, 85
2, 52557, Note_on_c, 0, 53, 80
2, 52596, Note_on_c, 0, 65, 0
2, 52600, Note_on_c, 0, 56, 0
2, 52601, Note_on_c, 0, 60, 0
2, 52619, Note_on_c, 0, 51, 72
2, 52621, Note_on_c, 0, 63, 75
2, 52622, Note_on_c, 0, 53, 0
2, 52669, Note_on_c, 0, 63, 0
2, 52676, Note_on_c, 0, 51, 0
2, 52753, Note_on_c, 0, 73, 97
2, 52755, Note_on_c, 0, 62, 97
2, 52756, Note_on_c, 0, 66, 84
2, 52761, Note_on_c, 0, 70, 64
2, 52761, Note_on_c, 0, 61, 94
2, 52771, Note_on_c, 0, 70, 0
2, 52792, Note_on_c, 0, 61, 0
2, 52815, Note_on_c, 0, 66, 0
2, 52819, Note_on_c, 0, 73, 0
2, 52824, Note_on_c, 0, 62, 0
2, 52868, Note_on_c, 0, 70, 93
2, 52870, Note_on_c, 0, 66, 93
2, 52872, Note_on_c, 0, 62, 91
2, 52875, Note_on_c, 0, 58, 79
2, 52900, Note_on_c, 0, 66, 0
2, 52908, Note_on_c, 0, 70, 0
2, 52913, Note_on_c, 0, 62, 0
2, 52919, Note_on_c, 0, 58, 0
2, 52984, Note_on_c, 0, 67, 90
2, 52986, Note_on_c, 0, 55, 91
2, 52991, Note_on_c, 0, 58, 69
2, 52999, Note_on_c, 0, 62, 58
2, 53017, Note_on_c, 0, 62, 0
2, 53019, Note_on_c, 0, 58, 0
2, 53044, Note_on_c, 0, 67, 0
2, 53064, Note_on_c, 0, 55, 0
2, 53095, Note_on_c, 0, 65, 80
2, 53097, Note_on_c, 0, 62, 80
2, 53103, Note_on_c, 0, 50, 81
2, 53127, Note_on_c, 0, 62, 0
2, 53138, Note_on_c, 0, 65, 0
2, 53148, Note_on_c, 0, 56, 50
2, 53167, Note_on_c, 0, 56, 0
2, 53176, Note_on_c, 0, 50, 0
2, 53205, Note_on_c, 0, 49, 60
2, 53258, Note_on_c, 0, 49, 0
2, 53269, Note_on_c, 0, 65, 89
2, 53270, Note_on_c, 0, 53, 88
2, 53272, Note_on_c, 0, 58, 87
2, 53275, Note_on_c, 0, 61, 72
2, 53276, Note_on_c, 0, 54, 77
2, 53349, Note_on_c, 0, 65, 0
2, 53361, Note_on_c, 0, 54, 0
2, 53366, Note_on_c, 0, 61, 0
2, 53372, Note_on_c, 0, 58, 0
2, 53389, Note_on_c, 0, 63, 52
2, 53390, Note_on_c, 0, 53, 0
2, 53394, Note_on_c, 0, 51, 64
2, 53430, Note_on_c, 0, 63, 0
2, 53462, Note_on_c, 0, 54, 88
2, 53463, Note_on_c, 0, 58, 78
2, 53463, Note_on_c, 0, 61, 79
2, 53468, Note_on_c, 0, 65, 63
2, 53472, Note_on_c, 0, 53, 82
2, 53478, Note_on_c, 0, 51, 0
2, 53479, Note_on_c, 0, 65, 0
2, 53483, Note_on_c, 0, 54, 0
2, 53490, Note_on_c, 0, 58, 0
2, 53497, Note_on_c, 0, 61, 0
2, 53503, Control_c, 0, 64, 127
2, 53519, Note_on_c, 0, 53, 0
2, 53580, Note_on_c, 0, 68, 89
2, 53582, Note_on_c, 0, 61, 91
2, 53582, Control_c, 0, 64, 0
2, 53583, Note_on_c, 0, 57, 97
2, 53584, Note_on_c, 0, 64, 88
2, 53592, Note_on_c, 0, 54, 82
2, 53596, Note_on_c, 0, 66, 48
2, 53612, Control_c, 0, 64, 127
2, 53614, Note_on_c, 0, 57, 0
2, 53617, Note_on_c, 0, 54, 0
2, 53633, Note_on_c, 0, 64, 0
2, 53641, Note_on_c, 0, 61, 0
2, 53641, Note_on_c, 0, 66, 0
2, 53646, Note_on_c, 0, 68, 0
2, 53707, Note_on_c, 0, 69, 99
2, 53711, Note_on_c, 0, 60, 90
2, 53712, Note_on_c, 0, 65, 91
2, 53716, Note_on_c, 0, 54, 77
2, 53718, Control_c, 0, 64, 0
2, 53745, Note_on_c, 0, 60, 0
2, 53752, Control_c, 0, 64, 127
2, 53756, Note_on_c, 0, 65, 0
2, 53759, Note_on_c, 0, 54, 0
2, 53765, Note_on_c, 0, 69, 0
2, 53824, Control_c, 0, 64, 0
2, 53826, Note_on_c, 0, 72, 97
2, 53826, Note_on_c, 0, 64, 102
2, 53829, Note_on_c, 0, 66, 84
2, 53832, Note_on_c, 0, 56, 84
2, 53849, Note_on_c, 0, 66, 0
2, 53852, Note_on_c, 0, 64, 0
2, 53857, Control_c, 0, 64, 127
2, 53860, Note_on_c, 0, 72, 0
2, 53931, Control_c, 0, 64, 0
2, 53940, Note_on_c, 0, 59, 89
2, 53941, Note_on_c, 0, 68, 99
2, 53944, Note_on_c, 0, 77, 82
2, 53945, Note_on_c, 0, 73, 77
2, 53956, Note_on_c, 0, 73, 0
2, 53966, Control_c, 0, 64, 127
2, 53967, Note_on_c, 0, 77, 0
2, 53982, Note_on_c, 0, 68, 0
2, 54054, Note_on_c, 0, 77, 109
2, 54057, Note_on_c, 0, 62, 92
2, 54057, Control_c, 0, 64, 0
2, 54061, Note_on_c, 0, 59, 0
2, 54070, Note_on_c, 0, 56, 0
2, 54093, Control_c, 0, 64, 127
2, 54106, Note_on_c, 0, 77, 0
2, 54119, Note_on_c, 0, 62, 0
2, 54157, Control_c, 0, 64, 0
2, 54178, Note_on_c, 0, 56, 96
2, 54181, Note_on_c, 0, 67, 97
2, 54182, Note_on_c, 0, 62, 88
2, 54192, Note_on_c, 0, 74, 110
2, 54268, Note_on_c, 0, 62, 0
2, 54292, Note_on_c, 0, 74, 0
2, 54308, Note_on_c, 0, 76, 86
2, 54313, Note_on_c, 0, 62, 49
2, 54338, Note_on_c, 0, 76, 0
2, 54358, Note_on_c, 0, 77, 110
2, 54359, Note_on_c, 0, 67, 0
2, 54380, Note_on_c, 0, 62, 0
2, 54436, Note_on_c, 0, 76, 94
2, 54449, Note_on_c, 0, 77, 0
2, 54449, Note_on_c, 0, 62, 53
2, 54462, Note_on_c, 0, 75, 78
2, 54469, Note_on_c, 0, 76, 0
2, 54490, Note_on_c, 0, 74, 73
2, 54491, Note_on_c, 0, 75, 0
2, 54523, Note_on_c, 0, 62, 0
2, 54526, Note_on_c, 0, 56, 0
2, 54532, Note_on_c, 0, 74, 0
2, 54556, Note_on_c, 0, 72, 100
2, 54560, Note_on_c, 0, 62, 57
2, 54563, Note_on_c, 0, 56, 53
2, 54563, Note_on_c, 0, 67, 48
2, 54578, Note_on_c, 0, 72, 0
2, 54579, Note_on_c, 0, 67, 0
2, 54612, Note_on_c, 0, 68, 73
2, 54623, Note_on_c, 0, 62, 0
2, 54659, Note_on_c, 0, 68, 0
2, 54672, Note_on_c, 0, 65, 67
2, 54687, Note_on_c, 0, 62, 55
2, 54689, Note_on_c, 0, 65, 0
2, 54723, Note_on_c, 0, 62, 0
2, 54730, Note_on_c, 0, 67, 105
2, 54733, Note_on_c, 0, 56, 0
2, 54790, Note_on_c, 0, 67, 0
2, 54793, Note_on_c, 0, 68, 82
2, 54797, Note_on_c, 0, 62, 54
2, 54802, Note_on_c, 0, 56, 51
2, 54827, Note_on_c, 0, 68, 0
2, 54841, Note_on_c, 0, 56, 0
2, 54846, Note_on_c, 0, 62, 0
2, 54846, Note_on_c, 0, 67, 55
2, 54886, Note_on_c, 0, 67, 0
2, 54912, Note_on_c, 0, 64, 74
2, 54986, Note_on_c, 0, 64, 0
2, 55014, Note_on_c, 0, 67, 100
2, 55020, Note_on_c, 0, 56, 71
2, 55026, Note_on_c, 0, 62, 53
2, 55038, Note_on_c, 0, 62, 0
2, 55062, Note_on_c, 0, 56, 0
2, 55076, Note_on_c, 0, 66, 70
2, 55081, Note_on_c, 0, 67, 0
2, 55128, Note_on_c, 0, 66, 0
2, 55146, Note_on_c, 0, 64, 63
2, 55172, Note_on_c, 0, 64, 0
2, 55197, Note_on_c, 0, 65, 94
2, 55256, Note_on_c, 0, 65, 0
2, 55377, Note_on_c, 0, 46, 76
2, 55382, Note_on_c, 0, 56, 69
2, 55401, Note_on_c, 0, 56, 0
2, 55404, Note_on_c, 0, 46, 0
2, 55507, Note_on_c, 0, 56, 70
2, 55508, Note_on_c, 0, 67, 88
2, 55509, Note_on_c, 0, 63, 74
2, 55514, Note_on_c, 0, 60, 74
2, 55690, Note_on_c, 0, 67, 0
2, 55690, Note_on_c, 0, 56, 0
2, 55725, Note_on_c, 0, 60, 0
2, 55728, Note_on_c, 0, 63, 0
2, 55749, Note_on_c, 0, 56, 80
2, 55750, Note_on_c, 0, 63, 80
2, 55751, Note_on_c, 0, 75, 106
2, 55753, Note_on_c, 0, 67, 72
2, 55759, Note_on_c, 0, 73, 62
2, 55760, Note_on_c, 0, 60, 73
2, 55764, Note_on_c, 0, 67, 0
2, 55769, Note_on_c, 0, 73, 0
2, 55807, Note_on_c, 0, 74, 77
2, 55811, Note_on_c, 0, 63, 0
2, 55820, Note_on_c, 0, 56, 0
2, 55823, Note_on_c, 0, 60, 0
2, 55832, Note_on_c, 0, 75, 0
2, 55838, Note_on_c, 0, 73, 54
2, 55846, Note_on_c, 0, 74, 0
2, 55882, Note_on_c, 0, 73, 0
2, 55886, Note_on_c, 0, 72, 67
2, 55887, Note_on_c, 0, 63, 58
2, 55901, Note_on_c, 0, 72, 0
2, 55904, Note_on_c, 0, 60, 44
2, 55926, Note_on_c, 0, 79, 105
2, 55955, Note_on_c, 0, 60, 0
2, 55978, Note_on_c, 0, 63, 0
2, 55980, Note_on_c, 0, 79, 0
2, 55981, Note_on_c, 0, 78, 69
2, 56005, Note_on_c, 0, 77, 71
2, 56025, Note_on_c, 0, 63, 34
2, 56029, Note_on_c, 0, 78, 0
2, 56047, Note_on_c, 0, 76, 71
2, 56048, Note_on_c, 0, 77, 0
2, 56076, Note_on_c, 0, 63, 0
2, 56077, Note_on_c, 0, 76, 0
2, 56101, Note_on_c, 0, 75, 97
2, 56104, Note_on_c, 0, 63, 68
2, 56113, Note_on_c, 0, 56, 49
2, 56114, Note_on_c, 0, 60, 54
2, 56134, Note_on_c, 0, 56, 0
2, 56154, Note_on_c, 0, 60, 0
2, 56154, Note_on_c, 0, 63, 0
2, 56162, Note_on_c, 0, 75, 0
2, 56214, Note_on_c, 0, 72, 91
2, 56217, Note_on_c, 0, 63, 76
2, 56221, Note_on_c, 0, 60, 64
2, 56226, Note_on_c, 0, 56, 48
2, 56247, Note_on_c, 0, 72, 0
2, 56266, Note_on_c, 0, 56, 0
2, 56268, Note_on_c, 0, 68, 55
2, 56271, Note_on_c, 0, 60, 0
2, 56273, Note_on_c, 0, 63, 0
2, 56286, Note_on_c, 0, 68, 0
2, 56334, Note_on_c, 0, 67, 60
2, 56335, Note_on_c, 0, 56, 48
2, 56353, Note_on_c, 0, 67, 0
2, 56365, Note_on_c, 0, 56, 0
2, 56388, Note_on_c, 0, 70, 93
2, 56427, Note_on_c, 0, 70, 0
2, 56497, Note_on_c, 0, 63, 52
2, 56520, Note_on_c, 0, 63, 0
2, 56532, Note_on_c, 0, 68, 96
2, 56552, Note_on_c, 0, 68, 0
2, 56558, Note_on_c, 0, 70, 85
2, 56590, Note_on_c, 0, 68, 60
2, 56602, Note_on_c, 0, 70, 0
2, 56613, Note_on_c, 0, 63, 52
2, 56617, Note_on_c, 0, 68, 0
2, 56621, Note_on_c, 0, 65, 59
2, 56633, Note_on_c, 0, 65, 0
2, 56659, Note_on_c, 0, 67, 82
2, 56663, Note_on_c, 0, 63, 0
2, 56685, Note_on_c, 0, 67, 0
2, 56692, Note_on_c, 0, 68, 72
2, 56714, Note_on_c, 0, 67, 55
2, 56728, Note_on_c, 0, 68, 0
2, 56729, Note_on_c, 0, 67, 0
2, 56742, Note_on_c, 0, 56, 46
2, 56743, Note_on_c, 0, 63, 73
2, 56744, Note_on_c, 0, 60, 49
2, 56756, Note_on_c, 0, 60, 0
2, 56762, Note_on_c, 0, 56, 0
2, 56767, Note_on_c, 0, 63, 0
2, 56778, Note_on_c, 0, 65, 86
2, 56804, Note_on_c, 0, 67, 61
2, 56816, Note_on_c, 0, 67, 0
2, 56835, Note_on_c, 0, 65, 0
2, 56847, Note_on_c, 0, 62, 66
2, 56856, Note_on_c, 0, 56, 55
2, 56872, Note_on_c, 0, 62, 0
2, 56874, Note_on_c, 0, 56, 0
2, 56875, Note_on_c, 0, 63, 84
2, 56901, Note_on_c, 0, 63, 0
2, 56903, Note_on_c, 0, 65, 85
2, 56925, Note_on_c, 0, 63, 53
2, 56929, Note_on_c, 0, 65, 0
2, 56957, Note_on_c, 0, 63, 0
2, 56961, Note_on_c, 0, 60, 65
2, 56987, Note_on_c, 0, 60, 0
2, 56993, Note_on_c, 0, 53, 47
2, 56997, Note_on_c, 0, 62, 71
2, 57010, Note_on_c, 0, 53, 0
2, 57024, Note_on_c, 0, 63, 79
2, 57037, Note_on_c, 0, 62, 0
2, 57065, Note_on_c, 0, 63, 0
2, 57086, Note_on_c, 0, 58, 79
2, 57091, Note_on_c, 0, 53, 70
2, 57108, Note_on_c, 0, 58, 0
2, 57109, Note_on_c, 0, 53, 0
2, 57116, Note_on_c, 0, 60, 88
2, 57142, Note_on_c, 0, 60, 0
2, 57142, Note_on_c, 0, 62, 82
2, 57171, Note_on_c, 0, 60, 73
2, 57173, Note_on_c, 0, 62, 0
2, 57193, Note_on_c, 0, 60, 0
2, 57199, Note_on_c, 0, 57, 77
2, 57216, Note_on_c, 0, 53, 63
2, 57221, Note_on_c, 0, 57, 0
2, 57233, Note_on_c, 0, 53, 0
2, 57248, Note_on_c, 0, 60, 73
2, 57294, Note_on_c, 0, 60, 0
2, 57294, Note_on_c, 0, 58, 66
2, 57304, Note_on_c, 0, 58, 0
2, 57314, Note_on_c, 0, 55, 72
2, 57326, Note_on_c, 0, 53, 52
2, 57338, Note_on_c, 0, 53, 0
2, 57338, Note_on_c, 0, 55, 0
2, 57346, Note_on_c, 0, 54, 66
2, 57357, Note_on_c, 0, 54, 0
2, 57381, Note_on_c, 0, 58, 69
2, 57405, Note_on_c, 0, 58, 0
2, 57473, Note_on_c, 0, 53, 71
2, 57502, Note_on_c, 0, 53, 0
2, 57508, Note_on_c, 0, 55, 91
2, 57551, Note_on_c, 0, 56, 83
2, 57552, Note_on_c, 0, 55, 0
2, 57576, Note_on_c, 0, 58, 75
2, 57586, Note_on_c, 0, 56, 0
2, 57596, Note_on_c, 0, 58, 0
2, 57615, Note_on_c, 0, 60, 91
2, 57709, Note_on_c, 0, 53, 58
2, 57720, Note_on_c, 0, 62, 91
2, 57722, Note_on_c, 0, 53, 0
2, 57723, Note_on_c, 0, 60, 0
2, 57785, Note_on_c, 0, 63, 92
2, 57787, Note_on_c, 0, 62, 0
2, 57892, Note_on_c, 0, 63, 0
2, 57903, Note_on_c, 0, 65, 94
2, 57908, Note_on_c, 0, 56, 52
2, 57909, Note_on_c, 0, 63, 69
2, 57914, Note_on_c, 0, 60, 67
2, 57974, Note_on_c, 0, 63, 0
2, 57988, Note_on_c, 0, 60, 0
2, 58016, Note_on_c, 0, 65, 0
2, 58027, Note_on_c, 0, 67, 102
2, 58033, Note_on_c, 0, 63, 75
2, 58039, Note_on_c, 0, 60, 76
2, 58060, Note_on_c, 0, 63, 0
2, 58079, Note_on_c, 0, 60, 0
2, 58084, Control_c, 0, 64, 127
2, 58103, Note_on_c, 0, 56, 0
2, 58140, Note_on_c, 0, 67, 0
2, 58158, Note_on_c, 0, 68, 96
2, 58159, Note_on_c, 0, 63, 76
2, 58162, Note_on_c, 0, 56, 64
2, 58163, Note_on_c, 0, 60, 74
2, 58182, Note_on_c, 0, 63, 0
2, 58196, Note_on_c, 0, 60, 0
2, 58219, Note_on_c, 0, 56, 0
2, 58257, Note_on_c, 0, 68, 0
2, 58271, Note_on_c, 0, 70, 103
2, 58275, Note_on_c, 0, 63, 80
2, 58275, Note_on_c, 0, 56, 74
2, 58276, Note_on_c, 0, 60, 85
2, 58277, Control_c, 0, 64, 0
2, 58283, Note_on_c, 0, 68, 46
2, 58293, Note_on_c, 0, 68, 0
2, 58293, Note_on_c, 0, 63, 0
2, 58308, Control_c, 0, 64, 127
2, 58312, Note_on_c, 0, 60, 0
2, 58330, Note_on_c, 0, 56, 0
2, 58360, Note_on_c, 0, 70, 0
2, 58382, Note_on_c, 0, 72, 92
2, 58385, Note_on_c, 0, 60, 94
2, 58386, Note_on_c, 0, 56, 75
2, 58401, Control_c, 0, 64, 0
2, 58415, Note_on_c, 0, 60, 0
2, 58415, Note_on_c, 0, 72, 0
2, 58424, Note_on_c, 0, 56, 0
2, 58437, Control_c, 0, 64, 127
2, 58449, Note_on_c, 0, 56, 70
2, 58457, Note_on_c, 0, 60, 72
2, 58460, Note_on_c, 0, 75, 99
2, 58461, Note_on_c, 0, 63, 87
2, 58466, Note_on_c, 0, 68, 57
2, 58477, Note_on_c, 0, 68, 0
2, 58493, Note_on_c, 0, 60, 0
2, 58501, Note_on_c, 0, 63, 0
2, 58504, Note_on_c, 0, 75, 0
2, 58519, Note_on_c, 0, 56, 0
2, 58537, Control_c, 0, 64, 0
2, 58543, Note_on_c, 0, 77, 92
2, 58545, Note_on_c, 0, 65, 92
2, 58545, Note_on_c, 0, 72, 88
2, 58546, Note_on_c, 0, 60, 69
2, 58550, Note_on_c, 0, 63, 70
2, 58550, Note_on_c, 0, 56, 47
2, 58554, Note_on_c, 0, 53, 63
2, 58568, Control_c, 0, 64, 127
2, 58580, Note_on_c, 0, 65, 0
2, 58583, Note_on_c, 0, 63, 0
2, 58589, Note_on_c, 0, 77, 0
2, 58590, Note_on_c, 0, 53, 0
2, 58597, Note_on_c, 0, 60, 0
2, 58597, Note_on_c, 0, 72, 0
2, 58605, Note_on_c, 0, 56, 0
2, 58622, Control_c, 0, 64, 0
2, 58641, Note_on_c, 0, 75, 85
2, 58642, Note_on_c, 0, 72, 91
2, 58643, Note_on_c, 0, 79, 91
2, 58644, Note_on_c, 0, 67, 91
2, 58645, Note_on_c, 0, 53, 64
2, 58645, Note_on_c, 0, 56, 58
2, 58646, Note_on_c, 0, 63, 69
2, 58646, Note_on_c, 0, 60, 78
2, 58655, Control_c, 0, 64, 127
2, 58668, Note_on_c, 0, 63, 0
2, 58671, Note_on_c, 0, 67, 0
2, 58681, Note_on_c, 0, 53, 0
2, 58684, Note_on_c, 0, 60, 0
2, 58687, Note_on_c, 0, 79, 0
2, 58691, Note_on_c, 0, 72, 0
2, 58698, Note_on_c, 0, 56, 0
2, 58711, Note_on_c, 0, 75, 0
2, 58740, Control_c, 0, 64, 0
2, 58745, Note_on_c, 0, 60, 83
2, 58745, Note_on_c, 0, 80, 80
2, 58746, Note_on_c, 0, 63, 84
2, 58748, Note_on_c, 0, 53, 77
2, 58748, Note_on_c, 0, 56, 62
2, 58750, Note_on_c, 0, 72, 78
2, 58750, Note_on_c, 0, 75, 56
2, 58751, Note_on_c, 0, 68, 82
2, 58758, Control_c, 0, 64, 127
2, 58764, Note_on_c, 0, 72, 0
2, 58774, Note_on_c, 0, 63, 0
2, 58782, Note_on_c, 0, 68, 0
2, 58783, Note_on_c, 0, 75, 0
2, 58784, Note_on_c, 0, 60, 0
2, 58786, Note_on_c, 0, 53, 0
2, 58800, Note_on_c, 0, 56, 0
2, 58801, Note_on_c, 0, 80, 0
2, 58830, Note_on_c, 0, 82, 99
2, 58830, Note_on_c, 0, 70, 97
2, 58833, Note_on_c, 0, 63, 78
2, 58833, Note_on_c, 0, 60, 80
2, 58836, Note_on_c, 0, 53, 69
2, 58841, Note_on_c, 0, 56, 54
2, 58847, Control_c, 0, 64, 0
2, 58854, Note_on_c, 0, 63, 0
2, 58862, Note_on_c, 0, 53, 0
2, 58864, Note_on_c, 0, 70, 0
2, 58868, Note_on_c, 0, 60, 0
2, 58869, Note_on_c, 0, 82, 0
2, 58877, Note_on_c, 0, 56, 0
2, 58880, Control_c, 0, 64, 127
2, 58901, Note_on_c, 0, 60, 73
2, 58905, Note_on_c, 0, 53, 63
2, 58906, Note_on_c, 0, 84, 100
2, 58907, Note_on_c, 0, 72, 88
2, 58909, Note_on_c, 0, 56, 59
2, 58937, Note_on_c, 0, 72, 0
2, 58940, Note_on_c, 0, 84, 0
2, 58944, Note_on_c, 0, 53, 0
2, 58951, Note_on_c, 0, 60, 0
2, 58956, Note_on_c, 0, 56, 0
2, 58973, Control_c, 0, 64, 0
2, 58984, Note_on_c, 0, 56, 57
2, 58984, Note_on_c, 0, 53, 68
2, 58986, Note_on_c, 0, 60, 67
2, 58987, Note_on_c, 0, 64, 84
2, 58991, Note_on_c, 0, 86, 97
2, 58992, Note_on_c, 0, 74, 98
2, 58992, Note_on_c, 0, 82, 84
2, 58994, Note_on_c, 0, 79, 84
2, 59005, Control_c, 0, 64, 127
2, 59033, Note_on_c, 0, 64, 0
2, 59037, Note_on_c, 0, 74, 0
2, 59042, Note_on_c, 0, 86, 0
2, 59043, Note_on_c, 0, 53, 0
2, 59046, Note_on_c, 0, 60, 0
2, 59047, Note_on_c, 0, 79, 0
2, 59057, Note_on_c, 0, 56, 0
2, 59061, Note_on_c, 0, 82, 0
2, 59098, Note_on_c, 0, 56, 58
2, 59100, Note_on_c, 0, 87, 91
2, 59101, Note_on_c, 0, 53, 81
2, 59101, Note_on_c, 0, 64, 92
2, 59101, Note_on_c, 0, 60, 80
2, 59102, Note_on_c, 0, 75, 87
2, 59105, Note_on_c, 0, 79, 66
2, 59109, Note_on_c, 0, 82, 56
2, 59115, Note_on_c, 0, 85, 45
2, 59116, Note_on_c, 0, 79, 0
2, 59124, Note_on_c, 0, 82, 0
2, 59128, Note_on_c, 0, 85, 0
2, 59131, Note_on_c, 0, 64, 0
2, 59146, Note_on_c, 0, 53, 0
2, 59152, Note_on_c, 0, 75, 0
2, 59154, Note_on_c, 0, 60, 0
2, 59166, Note_on_c, 0, 87, 0
2, 59168, Note_on_c, 0, 56, 0
2, 59208, Control_c, 0, 64, 0
2, 59213, Note_on_c, 0, 88, 95
2, 59213, Note_on_c, 0, 56, 67
2, 59215, Note_on_c, 0, 64, 97
2, 59216, Note_on_c, 0, 76, 89
2, 59216, Note_on_c, 0, 53, 88
2, 59217, Note_on_c, 0, 60, 75
2, 59220, Note_on_c, 0, 82, 73
2, 59239, Control_c, 0, 64, 127
2, 59246, Note_on_c, 0, 76, 0
2, 59253, Note_on_c, 0, 64, 0
2, 59254, Note_on_c, 0, 88, 0
2, 59258, Note_on_c, 0, 82, 0
2, 59260, Note_on_c, 0, 60, 0
2, 59262, Note_on_c, 0, 53, 0
2, 59277, Note_on_c, 0, 56, 0
2, 59331, Note_on_c, 0, 56, 70
2, 59332, Note_on_c, 0, 89, 93
2, 59334, Note_on_c, 0, 65, 99
2, 59334, Note_on_c, 0, 60, 91
2, 59336, Note_on_c, 0, 77, 83
2, 59337, Note_on_c, 0, 84, 92
2, 59337, Note_on_c, 0, 53, 81
2, 59341, Control_c, 0, 64, 0
2, 59361, Note_on_c, 0, 77, 0
2, 59366, Note_on_c, 0, 89, 0
2, 59370, Note_on_c, 0, 65, 0
2, 59377, Note_on_c, 0, 53, 0
2, 59377, Note_on_c, 0, 84, 0
2, 59377, Control_c, 0, 64, 127
2, 59386, Note_on_c, 0, 60, 0
2, 59396, Note_on_c, 0, 56, 0
2, 59409, Note_on_c, 0, 56, 51
2, 59409, Note_on_c, 0, 91, 100
2, 59410, Note_on_c, 0, 53, 89
2, 59411, Note_on_c, 0, 65, 91
2, 59411, Note_on_c, 0, 84, 91
2, 59411, Note_on_c, 0, 87, 88
2, 59412, Note_on_c, 0, 60, 86
2, 59413, Note_on_c, 0, 79, 90
2, 59454, Note_on_c, 0, 79, 0
2, 59462, Note_on_c, 0, 91, 0
2, 59469, Note_on_c, 0, 84, 0
2, 59469, Note_on_c, 0, 65, 0
2, 59471, Note_on_c, 0, 60, 0
2, 59482, Note_on_c, 0, 53, 0
2, 59482, Note_on_c, 0, 87, 0
2, 59486, Note_on_c, 0, 56, 0
2, 59512, Note_on_c, 0, 53, 82
2, 59513, Note_on_c, 0, 92, 98
2, 59513, Note_on_c, 0, 56, 76
2, 59514, Note_on_c, 0, 65, 86
2, 59516, Note_on_c, 0, 80, 83
2, 59516, Note_on_c, 0, 60, 88
2, 59518, Note_on_c, 0, 84, 86
2, 59521, Note_on_c, 0, 87, 60
2, 59530, Note_on_c, 0, 84, 0
2, 59535, Note_on_c, 0, 65, 0
2, 59550, Note_on_c, 0, 87, 0
2, 59554, Note_on_c, 0, 80, 0
2, 59555, Note_on_c, 0, 53, 0
2, 59556, Note_on_c, 0, 60, 0
2, 59564, Note_on_c, 0, 92, 0
2, 59564, Note_on_c, 0, 56, 0
2, 59597, Control_c, 0, 64, 0
2, 59605, Note_on_c, 0, 94, 95
2, 59606, Note_on_c, 0, 60, 80
2, 59607, Note_on_c, 0, 53, 72
2, 59607, Note_on_c, 0, 82, 93
2, 59608, Note_on_c, 0, 56, 58
2, 59622, Control_c, 0, 64, 127
2, 59645, Note_on_c, 0, 82, 0
2, 59647, Note_on_c, 0, 60, 0
2, 59649, Note_on_c, 0, 94, 0
2, 59652, Note_on_c, 0, 53, 0
2, 59658, Note_on_c, 0, 56, 0
2, 59710, Note_on_c, 0, 96, 90
2, 59711, Note_on_c, 0, 56, 67
2, 59712, Note_on_c, 0, 53, 83
2, 59712, Note_on_c, 0, 60, 86
2, 59715, Note_on_c, 0, 84, 87
2, 59715, Note_on_c, 0, 91, 85
2, 59717, Note_on_c, 0, 64, 82
2, 59721, Control_c, 0, 64, 0
2, 59732, Note_on_c, 0, 64, 0
2, 59737, Note_on_c, 0, 60, 0
2, 59743, Control_c, 0, 64, 127
2, 59747, Note_on_c, 0, 84, 0
2, 59751, Note_on_c, 0, 53, 0
2, 59757, Note_on_c, 0, 96, 0
2, 59757, Note_on_c, 0, 91, 0
2, 59763, Note_on_c, 0, 56, 0
2, 59826, Note_on_c, 0, 98, 94
2, 59826, Note_on_c, 0, 63, 99
2, 59828, Note_on_c, 0, 86, 94
2, 59828, Note_on_c, 0, 53, 94
2, 59828, Control_c, 0, 64, 0
2, 59829, Note_on_c, 0, 58, 82
2, 59829, Note_on_c, 0, 93, 92
2, 59856, Control_c, 0, 64, 127
2, 59866, Note_on_c, 0, 86, 0
2, 59872, Note_on_c, 0, 98, 0
2, 59873, Note_on_c, 0, 93, 0
2, 59876, Note_on_c, 0, 53, 0
2, 59914, Note_on_c, 0, 63, 0
2, 59921, Note_on_c, 0, 58, 0
2, 59941, Note_on_c, 0, 99, 94
2, 59941, Note_on_c, 0, 94, 96
2, 59942, Note_on_c, 0, 54, 92
2, 59942, Note_on_c, 0, 64, 101
2, 59943, Note_on_c, 0, 87, 97
2, 59945, Note_on_c, 0, 59, 91
2, 59950, Control_c, 0, 64, 0
2, 59974, Control_c, 0, 64, 127
2, 60005, Note_on_c, 0, 87, 0
2, 60008, Note_on_c, 0, 64, 0
2, 60008, Note_on_c, 0, 94, 0
2, 60012, Note_on_c, 0, 54, 0
2, 60013, Note_on_c, 0, 59, 0
2, 60018, Note_on_c, 0, 99, 0
2, 60059, Note_on_c, 0, 55, 98
2, 60059, Note_on_c, 0, 100, 98
2, 60059, Note_on_c, 0, 95, 101
2, 60059, Note_on_c, 0, 66, 101
2, 60060, Note_on_c, 0, 88, 98
2, 60062, Control_c, 0, 64, 0
2, 60063, Note_on_c, 0, 61, 82
2, 60093, Control_c, 0, 64, 127
2, 60108, Note_on_c, 0, 88, 0
2, 60114, Note_on_c, 0, 95, 0
2, 60119, Note_on_c, 0, 55, 0
2, 60125, Note_on_c, 0, 100, 0
2, 60143, Note_on_c, 0, 66, 0
2, 60159, Note_on_c, 0, 61, 0
2, 60169, Control_c, 0, 64, 0
2, 60176, Note_on_c, 0, 96, 109
2, 60177, Note_on_c, 0, 101, 102
2, 60177, Note_on_c, 0, 89, 105
2, 60178, Note_on_c, 0, 67, 104
2, 60180, Note_on_c, 0, 62, 89
2, 60180, Note_on_c, 0, 56, 97
2, 60202, Control_c, 0, 64, 127
2, 60227, Note_on_c, 0, 89, 0
2, 60229, Note_on_c, 0, 56, 0
2, 60235, Note_on_c, 0, 96, 0
2, 60241, Note_on_c, 0, 101, 0
2, 60242, Note_on_c, 0, 67, 0
2, 60249, Note_on_c, 0, 62, 0
2, 60278, Control_c, 0, 64, 0
2, 60294, Note_on_c, 0, 68, 106
2, 60295, Note_on_c, 0, 57, 107
2, 60296, Note_on_c, 0, 102, 98
2, 60296, Note_on_c, 0, 63, 89
2, 60297, Note_on_c, 0, 90, 96
2, 60299, Note_on_c, 0, 58, 40
2, 60299, Note_on_c, 0, 96, 95
2, 60305, Note_on_c, 0, 99, 60
2, 60316, Note_on_c, 0, 99, 0
2, 60334, Note_on_c, 0, 96, 0
2, 60336, Note_on_c, 0, 90, 0
2, 60337, Note_on_c, 0, 57, 0
2, 60340, Note_on_c, 0, 58, 0
2, 60344, Note_on_c, 0, 102, 0
2, 60346, Note_on_c, 0, 68, 0
2, 60351, Note_on_c, 0, 63, 0
2, 60363, Note_on_c, 0, 103, 87
2, 60363, Note_on_c, 0, 91, 91
2, 60364, Note_on_c, 0, 99, 78
2, 60365, Note_on_c, 0, 96, 82
2, 60365, Note_on_c, 0, 69, 91
2, 60367, Note_on_c, 0, 101, 88
2, 60369, Note_on_c, 0, 64, 94
2, 60370, Note_on_c, 0, 61, 74
2, 60370, Note_on_c, 0, 67, 94
2, 60372, Note_on_c, 0, 58, 82
2, 60380, Note_on_c, 0, 67, 0
2, 60417, Note_on_c, 0, 96, 0
2, 60438, Note_on_c, 0, 91, 0
2, 60444, Note_on_c, 0, 103, 0
2, 60445, Note_on_c, 0, 101, 0
2, 60447, Note_on_c, 0, 58, 0
2, 60450, Note_on_c, 0, 69, 0
2, 60451, Note_on_c, 0, 61, 0
2, 60453, Note_on_c, 0, 99, 0
2, 60456, Note_on_c, 0, 64, 0
2, 60487, Note_on_c, 0, 69, 100
2, 60488, Note_on_c, 0, 104, 90
2, 60489, Note_on_c, 0, 92, 91
2, 60491, Note_on_c, 0, 64, 74
2, 60491, Note_on_c, 0, 99, 91
2, 60491, Note_on_c, 0, 65, 82
2, 60492, Note_on_c, 0, 58, 90
2, 60501, Note_on_c, 0, 64, 0
2, 60551, Note_on_c, 0, 65, 0
2, 60557, Note_on_c, 0, 69, 0
2, 60566, Note_on_c, 0, 92, 0
2, 60572, Note_on_c, 0, 99, 0
2, 60573, Note_on_c, 0, 104, 0
2, 60577, Note_on_c, 0, 58, 0
2, 60615, Note_on_c, 0, 106, 102
2, 60615, Note_on_c, 0, 94, 87
2, 60615, Note_on_c, 0, 99, 93
2, 60616, Note_on_c, 0, 67, 102
2, 60618, Note_on_c, 0, 56, 96
2, 60619, Note_on_c, 0, 62, 102
2, 60677, Note_on_c, 0, 106, 0
2, 60684, Note_on_c, 0, 99, 0
2, 60687, Note_on_c, 0, 67, 0
2, 60688, Note_on_c, 0, 94, 0
2, 60694, Note_on_c, 0, 62, 0
2, 60695, Note_on_c, 0, 56, 0
2, 60796, Note_on_c, 0, 67, 103
2, 60797, Note_on_c, 0, 62, 92
2, 60797, Note_on_c, 0, 56, 97
2, 60845, Note_on_c, 0, 62, 0
2, 60857, Note_on_c, 0, 56, 0
2, 60862, Note_on_c, 0, 67, 0
2, 60954, Note_on_c, 0, 63, 87
2, 60955, Note_on_c, 0, 68, 101
2, 60957, Note_on_c, 0, 57, 88
2, 61140, Note_on_c, 0, 91, 123
2, 61153, Note_on_c, 0, 68, 0
2, 61178, Note_on_c, 0, 91, 0
2, 61200, Note_on_c, 0, 90, 93
2, 61226, Note_on_c, 0, 57, 0
2, 61232, Note_on_c, 0, 90, 0
2, 61241, Note_on_c, 0, 63, 0
2, 61257, Note_on_c, 0, 89, 94
2, 61259, Note_on_c, 0, 57, 70
2, 61261, Note_on_c, 0, 63, 70
2, 61269, Note_on_c, 0, 68, 58
2, 61279, Note_on_c, 0, 68, 0
2, 61300, Note_on_c, 0, 89, 0
2, 61305, Note_on_c, 0, 57, 0
2, 61319, Note_on_c, 0, 84, 80
2, 61343, Note_on_c, 0, 84, 0
2, 61379, Note_on_c, 0, 80, 84
2, 61408, Note_on_c, 0, 80, 0
2, 61429, Note_on_c, 0, 67, 77
2, 61430, Note_on_c, 0, 56, 69
2, 61434, Note_on_c, 0, 60, 49
2, 61442, Note_on_c, 0, 79, 68
2, 61540, Note_on_c, 0, 60, 0
2, 61547, Note_on_c, 0, 67, 0
2, 61551, Note_on_c, 0, 56, 0
2, 61568, Note_on_c, 0, 79, 0
2, 61582, Note_on_c, 0, 63, 0
2, 61614, Note_on_c, 0, 63, 74
2, 61616, Note_on_c, 0, 67, 86
2, 61617, Note_on_c, 0, 56, 77
2, 61622, Note_on_c, 0, 60, 72
2, 61743, Note_on_c, 0, 82, 113
2, 61744, Note_on_c, 0, 86, 105
2, 61750, Note_on_c, 0, 80, 73
2, 61761, Note_on_c, 0, 80, 0
2, 61769, Note_on_c, 0, 67, 0
2, 61782, Note_on_c, 0, 82, 0
2, 61787, Note_on_c, 0, 86, 0
2, 61802, Note_on_c, 0, 84, 75
2, 61811, Note_on_c, 0, 80, 66
2, 61841, Note_on_c, 0, 63, 0
2, 61857, Note_on_c, 0, 80, 0
2, 61859, Note_on_c, 0, 84, 0
2, 61871, Note_on_c, 0, 82, 98
2, 61872, Note_on_c, 0, 79, 95
2, 61875, Note_on_c, 0, 63, 60
2, 61878, Note_on_c, 0, 67, 68
2, 61913, Note_on_c, 0, 67, 0
2, 61917, Note_on_c, 0, 79, 0
2, 61924, Note_on_c, 0, 82, 0
2, 61945, Note_on_c, 0, 80, 93
2, 61948, Note_on_c, 0, 63, 0
2, 61949, Note_on_c, 0, 77, 86
2, 61971, Note_on_c, 0, 63, 45
2, 61974, Note_on_c, 0, 67, 57
2, 61992, Note_on_c, 0, 67, 0
2, 61999, Note_on_c, 0, 77, 0
2, 62008, Note_on_c, 0, 56, 0
2, 62013, Note_on_c, 0, 80, 0
2, 62034, Note_on_c, 0, 75, 75
2, 62035, Note_on_c, 0, 79, 88
2, 62070, Note_on_c, 0, 79, 0
2, 62070, Note_on_c, 0, 82, 43
2, 62091, Note_on_c, 0, 75, 0
2, 62093, Note_on_c, 0, 63, 0
2, 62097, Note_on_c, 0, 82, 0
2, 62111, Note_on_c, 0, 74, 88
2, 62112, Note_on_c, 0, 56, 70
2, 62115, Note_on_c, 0, 77, 89
2, 62115, Note_on_c, 0, 67, 71
2, 62115, Note_on_c, 0, 63, 54
2, 62156, Note_on_c, 0, 77, 0
2, 62158, Note_on_c, 0, 67, 0
2, 62174, Note_on_c, 0, 74, 0
2, 62176, Note_on_c, 0, 60, 0
2, 62176, Note_on_c, 0, 63, 0
2, 62178, Note_on_c, 0, 56, 0
2, 62348, Note_on_c, 0, 77, 119
2, 62349, Note_on_c, 0, 80, 102
2, 62355, Note_on_c, 0, 56, 80
2, 62355, Note_on_c, 0, 67, 91
2, 62355, Note_on_c, 0, 63, 75
2, 62359, Note_on_c, 0, 60, 70
2, 62388, Note_on_c, 0, 67, 0
2, 62403, Note_on_c, 0, 77, 0
2, 62414, Note_on_c, 0, 75, 88
2, 62417, Note_on_c, 0, 79, 89
2, 62469, Note_on_c, 0, 63, 0
2, 62470, Note_on_c, 0, 75, 0
2, 62488, Note_on_c, 0, 67, 76
2, 62489, Note_on_c, 0, 77, 95
2, 62490, Note_on_c, 0, 63, 55
2, 62491, Note_on_c, 0, 74, 89
2, 62508, Note_on_c, 0, 79, 0
2, 62517, Note_on_c, 0, 67, 0
2, 62525, Note_on_c, 0, 77, 0
2, 62529, Note_on_c, 0, 56, 0
2, 62533, Note_on_c, 0, 74, 0
2, 62533, Note_on_c, 0, 80, 0
2, 62535, Note_on_c, 0, 60, 0
2, 62544, Note_on_c, 0, 63, 0
2, 62590, Note_on_c, 0, 75, 97
2, 62592, Note_on_c, 0, 63, 84
2, 62594, Note_on_c, 0, 56, 82
2, 62595, Note_on_c, 0, 67, 78
2, 62595, Note_on_c, 0, 72, 95
2, 62603, Note_on_c, 0, 60, 49
2, 62611, Note_on_c, 0, 67, 0
2, 62616, Note_on_c, 0, 60, 0
2, 62626, Note_on_c, 0, 63, 0
2, 62631, Note_on_c, 0, 72, 0
2, 62638, Note_on_c, 0, 56, 0
2, 62649, Note_on_c, 0, 75, 0
2, 62706, Note_on_c, 0, 70, 91
2, 62707, Note_on_c, 0, 63, 70
2, 62707, Note_on_c, 0, 74, 96
2, 62709, Note_on_c, 0, 60, 67
2, 62715, Note_on_c, 0, 56, 49
2, 62718, Note_on_c, 0, 53, 54
2, 62742, Note_on_c, 0, 63, 0
2, 62742, Note_on_c, 0, 70, 0
2, 62766, Note_on_c, 0, 60, 0
2, 62772, Note_on_c, 0, 53, 0
2, 62774, Note_on_c, 0, 74, 0
2, 62792, Note_on_c, 0, 56, 0
2, 62822, Note_on_c, 0, 68, 92
2, 62824, Note_on_c, 0, 63, 79
2, 62825, Note_on_c, 0, 72, 92
2, 62828, Note_on_c, 0, 60, 71
2, 62831, Note_on_c, 0, 53, 55
2, 62836, Note_on_c, 0, 56, 53
2, 62856, Note_on_c, 0, 72, 0
2, 62863, Note_on_c, 0, 63, 0
2, 62868, Note_on_c, 0, 68, 0
2, 62872, Note_on_c, 0, 60, 0
2, 62883, Note_on_c, 0, 53, 0
2, 62896, Note_on_c, 0, 56, 0
2, 62942, Note_on_c, 0, 70, 98
2, 62945, Note_on_c, 0, 67, 94
2, 62947, Note_on_c, 0, 63, 76
2, 62950, Note_on_c, 0, 60, 69
2, 62950, Note_on_c, 0, 56, 57
2, 62954, Note_on_c, 0, 53, 56
2, 62983, Note_on_c, 0, 67, 0
2, 62987, Note_on_c, 0, 63, 0
2, 62992, Note_on_c, 0, 53, 0
2, 62994, Note_on_c, 0, 70, 0
2, 63003, Note_on_c, 0, 60, 0
2, 63021, Note_on_c, 0, 56, 0
2, 63063, Note_on_c, 0, 68, 85
2, 63064, Note_on_c, 0, 65, 83
2, 63067, Note_on_c, 0, 63, 79
2, 63071, Note_on_c, 0, 60, 73
2, 63076, Note_on_c, 0, 53, 54
2, 63077, Note_on_c, 0, 56, 52
2, 63087, Note_on_c, 0, 65, 0
2, 63092, Note_on_c, 0, 63, 0
2, 63096, Note_on_c, 0, 53, 0
2, 63108, Note_on_c, 0, 68, 0
2, 63127, Note_on_c, 0, 53, 25
2, 63128, Note_on_c, 0, 67, 87
2, 63133, Note_on_c, 0, 63, 75
2, 63187, Note_on_c, 0, 63, 0
2, 63190, Note_on_c, 0, 60, 0
2, 63214, Note_on_c, 0, 67, 0
2, 63239, Note_on_c, 0, 68, 89
2, 63241, Note_on_c, 0, 65, 87
2, 63246, Note_on_c, 0, 63, 70
2, 63247, Note_on_c, 0, 60, 63
2, 63304, Note_on_c, 0, 63, 0
2, 63308, Note_on_c, 0, 65, 0
2, 63311, Note_on_c, 0, 60, 0
2, 63333, Note_on_c, 0, 68, 0
2, 63344, Note_on_c, 0, 53, 0
2, 63360, Note_on_c, 0, 63, 75
2, 63361, Note_on_c, 0, 67, 102
2, 63362, Note_on_c, 0, 70, 94
2, 63364, Note_on_c, 0, 60, 73
2, 63396, Note_on_c, 0, 63, 0
2, 63402, Note_on_c, 0, 70, 0
2, 63404, Note_on_c, 0, 67, 0
2, 63409, Control_c, 0, 64, 127
2, 63417, Control_c, 0, 64, 0
2, 63423, Note_on_c, 0, 60, 0
2, 63423, Note_on_c, 0, 70, 72
2, 63427, Note_on_c, 0, 67, 82
2, 63466, Note_on_c, 0, 67, 0
2, 63466, Note_on_c, 0, 70, 0
2, 63473, Note_on_c, 0, 63, 59
2, 63481, Note_on_c, 0, 60, 60
2, 63487, Control_c, 0, 64, 127
2, 63501, Note_on_c, 0, 63, 0
2, 63525, Note_on_c, 0, 60, 0
2, 63544, Note_on_c, 0, 68, 94
2, 63547, Note_on_c, 0, 65, 88
2, 63550, Control_c, 0, 64, 0
2, 63552, Note_on_c, 0, 63, 64
2, 63557, Note_on_c, 0, 60, 68
2, 63584, Note_on_c, 0, 65, 0
2, 63594, Note_on_c, 0, 63, 0
2, 63602, Control_c, 0, 64, 127
2, 63618, Note_on_c, 0, 68, 0
2, 63630, Note_on_c, 0, 60, 0
2, 63663, Note_on_c, 0, 63, 76
2, 63667, Note_on_c, 0, 67, 85
2, 63672, Control_c, 0, 64, 0
2, 63674, Note_on_c, 0, 60, 64
2, 63680, Note_on_c, 0, 53, 62
2, 63705, Control_c, 0, 64, 127
2, 63714, Note_on_c, 0, 53, 0
2, 63724, Note_on_c, 0, 63, 0
2, 63743, Note_on_c, 0, 67, 0
2, 63769, Note_on_c, 0, 60, 0
2, 63780, Control_c, 0, 64, 0
2, 63784, Note_on_c, 0, 68, 100
2, 63786, Note_on_c, 0, 65, 101
2, 63786, Note_on_c, 0, 63, 84
2, 63790, Note_on_c, 0, 60, 44
2, 63825, Note_on_c, 0, 63, 0
2, 63826, Control_c, 0, 64, 127
2, 63833, Note_on_c, 0, 65, 0
2, 63849, Note_on_c, 0, 60, 0
2, 63856, Note_on_c, 0, 56, 0
2, 63859, Note_on_c, 0, 68, 0
2, 63902, Note_on_c, 0, 62, 91
2, 63906, Note_on_c, 0, 67, 89
2, 63908, Control_c, 0, 64, 0
2, 63909, Note_on_c, 0, 60, 68
2, 63912, Note_on_c, 0, 53, 71
2, 63913, Note_on_c, 0, 56, 56
2, 63933, Note_on_c, 0, 60, 0
2, 63933, Note_on_c, 0, 62, 0
2, 63941, Control_c, 0, 64, 127
2, 63945, Note_on_c, 0, 67, 0
2, 63964, Note_on_c, 0, 56, 0
2, 63970, Note_on_c, 0, 53, 0
2, 64021, Note_on_c, 0, 63, 91
2, 64022, Control_c, 0, 64, 0
2, 64025, Note_on_c, 0, 53, 84
2, 64026, Note_on_c, 0, 60, 74
2, 64027, Note_on_c, 0, 56, 66
2, 64056, Note_on_c, 0, 56, 0
2, 64056, Note_on_c, 0, 60, 0
2, 64056, Note_on_c, 0, 63, 0
2, 64058, Note_on_c, 0, 53, 0
2, 64059, Control_c, 0, 64, 127
2, 64138, Control_c, 0, 64, 0
2, 64144, Note_on_c, 0, 60, 98
2, 64149, Note_on_c, 0, 41, 80
2, 64152, Note_on_c, 0, 48, 74
2, 64169, Note_on_c, 0, 48, 0
2, 64177, Note_on_c, 0, 60, 0
2, 64179, Note_on_c, 0, 41, 0
2, 64180, Control_c, 0, 64, 127
2, 64268, Control_c, 0, 64, 0
2, 64269, Note_on_c, 0, 55, 109
2, 64270, Note_on_c, 0, 60, 100
2, 64270, Note_on_c, 0, 56, 103
2, 64271, Note_on_c, 0, 67, 94
2, 64272, Note_on_c, 0, 63, 75
2, 64310, Control_c, 0, 64, 127
2, 64378, Note_on_c, 0, 56, 0
2, 64380, Note_on_c, 0, 67, 0
2, 64385, Note_on_c, 0, 60, 0
2, 64394, Note_on_c, 0, 55, 0
2, 64394, Note_on_c, 0, 51, 66
2, 64396, Note_on_c, 0, 63, 0
2, 64423, Control_c, 0, 64, 0
2, 64435, Note_on_c, 0, 51, 0
2, 64449, Note_on_c, 0, 53, 98
2, 64450, Note_on_c, 0, 56, 93
2, 64451, Note_on_c, 0, 65, 88
2, 64454, Note_on_c, 0, 60, 93
2, 64457, Note_on_c, 0, 63, 66
2, 64533, Note_on_c, 0, 63, 0
2, 64542, Note_on_c, 0, 60, 0
2, 64547, Note_on_c, 0, 56, 0
2, 64565, Note_on_c, 0, 65, 0
2, 64565, Control_c, 0, 64, 127
2, 64570, Note_on_c, 0, 63, 52
2, 64573, Note_on_c, 0, 51, 72
2, 64574, Note_on_c, 0, 53, 0
2, 64611, Note_on_c, 0, 63, 0
2, 64629, Control_c, 0, 64, 0
2, 64640, Note_on_c, 0, 65, 86
2, 64640, Note_on_c, 0, 56, 82
2, 64641, Note_on_c, 0, 63, 80
2, 64646, Note_on_c, 0, 60, 82
2, 64647, Note_on_c, 0, 53, 89
2, 64656, Note_on_c, 0, 51, 0
2, 64671, Control_c, 0, 64, 127
2, 64743, Control_c, 0, 64, 0
2, 64744, Note_on_c, 0, 51, 107
2, 64759, Note_on_c, 0, 53, 0
2, 64794, Control_c, 0, 64, 127
2, 64819, Note_on_c, 0, 56, 0
2, 64821, Note_on_c, 0, 60, 0
2, 64832, Note_on_c, 0, 63, 0
2, 64847, Note_on_c, 0, 65, 0
2, 64861, Note_on_c, 0, 63, 69
2, 64864, Note_on_c, 0, 56, 89
2, 64867, Note_on_c, 0, 60, 91
2, 64870, Control_c, 0, 64, 0
2, 64873, Note_on_c, 0, 53, 91
2, 64892, Note_on_c, 0, 51, 0
2, 64907, Control_c, 0, 64, 127
2, 64931, Note_on_c, 0, 60, 0
2, 64933, Note_on_c, 0, 56, 0
2, 64956, Note_on_c, 0, 63, 0
2, 64977, Control_c, 0, 64, 0
2, 64979, Note_on_c, 0, 56, 93
2, 64981, Note_on_c, 0, 63, 76
2, 64983, Note_on_c, 0, 65, 81
2, 64983, Note_on_c, 0, 60, 86
2, 64999, Note_on_c, 0, 56, 0
2, 65005, Note_on_c, 0, 60, 0
2, 65006, Control_c, 0, 64, 127
2, 65022, Note_on_c, 0, 65, 0
2, 65022, Note_on_c, 0, 63, 0
2, 65079, Control_c, 0, 64, 0
2, 65102, Note_on_c, 0, 65, 74
2, 65112, Note_on_c, 0, 53, 0
2, 65122, Note_on_c, 0, 65, 0
2, 65158, Note_on_c, 0, 66, 56
2, 65208, Note_on_c, 0, 66, 0
2, 65230, Note_on_c, 0, 68, 78
2, 65271, Note_on_c, 0, 68, 0
2, 65283, Note_on_c, 0, 63, 62
2, 65289, Note_on_c, 0, 54, 53
2, 65292, Note_on_c, 0, 70, 73
2, 65295, Note_on_c, 0, 59, 63
2, 65298, Note_on_c, 0, 58, 49
2, 65690, Note_on_c, 0, 59, 0
2, 65727, Note_on_c, 0, 63, 0
2, 65742, Note_on_c, 0, 54, 0
2, 65756, Note_on_c, 0, 63, 66
2, 65758, Note_on_c, 0, 70, 0
2, 65775, Note_on_c, 0, 63, 67
2, 65779, Note_on_c, 0, 54, 67
2, 65780, Note_on_c, 0, 58, 66
2, 65780, Note_on_c, 0, 59, 85
2, 65923, Note_on_c, 0, 63, 0
2, 65944, Note_on_c, 0, 65, 88
2, 65997, Note_on_c, 0, 65, 0
2, 66006, Note_on_c, 0, 66, 68
2, 66067, Note_on_c, 0, 68, 89
2, 66081, Note_on_c, 0, 66, 0
2, 66123, Note_on_c, 0, 68, 0
2, 66130, Note_on_c, 0, 70, 68
2, 66174, Note_on_c, 0, 70, 0
2, 66184, Note_on_c, 0, 71, 85
2, 66212, Note_on_c, 0, 59, 0
2, 66213, Note_on_c, 0, 63, 0
2, 66220, Note_on_c, 0, 58, 0
2, 66235, Note_on_c, 0, 71, 0
2, 66238, Note_on_c, 0, 54, 0
2, 66245, Note_on_c, 0, 73, 85
2, 66301, Note_on_c, 0, 73, 0
2, 66304, Note_on_c, 0, 75, 81
2, 66305, Note_on_c, 0, 63, 65
2, 66306, Note_on_c, 0, 58, 54
2, 66309, Note_on_c, 0, 59, 62
2, 66312, Note_on_c, 0, 53, 54
2, 66358, Note_on_c, 0, 75, 0
2, 66366, Note_on_c, 0, 77, 63
2, 66377, Note_on_c, 0, 58, 0
2, 66396, Note_on_c, 0, 63, 0
2, 66399, Note_on_c, 0, 59, 0
2, 66399, Note_on_c, 0, 53, 0
2, 66399, Note_on_c, 0, 77, 0
2, 66407, Note_on_c, 0, 58, 0
2, 66418, Note_on_c, 0, 63, 73
2, 66420, Note_on_c, 0, 78, 94
2, 66423, Note_on_c, 0, 58, 51
2, 66423, Note_on_c, 0, 59, 69
2, 66439, Note_on_c, 0, 63, 0
2, 66442, Note_on_c, 0, 78, 0
2, 66443, Note_on_c, 0, 59, 0
2, 66449, Note_on_c, 0, 58, 0
2, 66480, Note_on_c, 0, 63, 77
2, 66481, Note_on_c, 0, 80, 90
2, 66482, Note_on_c, 0, 59, 84
2, 66483, Note_on_c, 0, 58, 57
2, 66489, Note_on_c, 0, 53, 59
2, 66531, Note_on_c, 0, 63, 0
2, 66544, Note_on_c, 0, 63, 50
2, 66545, Note_on_c, 0, 82, 87
2, 66562, Note_on_c, 0, 80, 0
2, 66567, Note_on_c, 0, 63, 0
2, 66578, Note_on_c, 0, 59, 0
2, 66589, Note_on_c, 0, 82, 0
2, 66598, Note_on_c, 0, 63, 66
2, 66602, Note_on_c, 0, 59, 65
2, 66602, Note_on_c, 0, 84, 101
2, 66603, Note_on_c, 0, 72, 88
2, 66624, Note_on_c, 0, 53, 0
2, 66633, Note_on_c, 0, 59, 0
2, 66635, Note_on_c, 0, 63, 0
2, 66640, Note_on_c, 0, 72, 0
2, 66643, Note_on_c, 0, 84, 0
2, 66666, Note_on_c, 0, 82, 66
2, 66668, Note_on_c, 0, 53, 54
2, 66677, Note_on_c, 0, 58, 0
2, 66682, Note_on_c, 0, 53, 0
2, 66682, Note_on_c, 0, 82, 0
2, 66721, Note_on_c, 0, 61, 75
2, 66723, Note_on_c, 0, 58, 58
2, 66724, Note_on_c, 0, 51, 56
2, 66725, Note_on_c, 0, 73, 84
2, 66729, Note_on_c, 0, 56, 53
2, 66730, Note_on_c, 0, 85, 54
2, 66736, Note_on_c, 0, 86, 51
2, 66743, Note_on_c, 0, 86, 0
2, 66755, Note_on_c, 0, 85, 0
2, 66808, Note_on_c, 0, 73, 0
2, 66836, Note_on_c, 0, 82, 80
2, 66839, Note_on_c, 0, 70, 75
2, 66854, Note_on_c, 0, 58, 0
2, 66858, Note_on_c, 0, 56, 0
2, 66861, Note_on_c, 0, 61, 0
2, 66871, Note_on_c, 0, 82, 0
2, 66872, Note_on_c, 0, 70, 0
2, 66875, Note_on_c, 0, 51, 0
2, 66902, Note_on_c, 0, 61, 66
2, 66906, Note_on_c, 0, 66, 78
2, 66906, Note_on_c, 0, 51, 54
2, 66906, Note_on_c, 0, 78, 66
2, 66909, Note_on_c, 0, 58, 54
2, 66911, Note_on_c, 0, 56, 51
2, 66962, Note_on_c, 0, 78, 0
2, 66964, Note_on_c, 0, 56, 0
2, 66965, Note_on_c, 0, 58, 0
2, 66966, Note_on_c, 0, 61, 0
2, 66967, Note_on_c, 0, 51, 0
2, 66969, Note_on_c, 0, 66, 0
2, 67014, Note_on_c, 0, 61, 67
2, 67015, Note_on_c, 0, 51, 56
2, 67017, Note_on_c, 0, 77, 82
2, 67017, Note_on_c, 0, 58, 58
2, 67017, Note_on_c, 0, 65, 65
2, 67021, Note_on_c, 0, 56, 53
2, 67118, Note_on_c, 0, 77, 0
2, 67139, Note_on_c, 0, 75, 77
2, 67228, Note_on_c, 0, 58, 0
2, 67228, Note_on_c, 0, 61, 0
2, 67247, Note_on_c, 0, 65, 0
2, 67255, Note_on_c, 0, 75, 0
2, 67257, Note_on_c, 0, 61, 53
2, 67259, Note_on_c, 0, 70, 76
2, 67261, Note_on_c, 0, 58, 49
2, 67312, Note_on_c, 0, 70, 0
2, 67322, Note_on_c, 0, 73, 84
2, 67458, Note_on_c, 0, 58, 0
2, 67467, Note_on_c, 0, 61, 0
2, 67491, Note_on_c, 0, 73, 0
2, 67495, Note_on_c, 0, 73, 102
2, 67497, Note_on_c, 0, 61, 78
2, 67500, Note_on_c, 0, 58, 68
2, 67556, Note_on_c, 0, 51, 0
2, 67558, Note_on_c, 0, 58, 0
2, 67561, Note_on_c, 0, 56, 0
2, 67569, Note_on_c, 0, 61, 0
2, 67679, Note_on_c, 0, 66, 72
2, 67681, Note_on_c, 0, 62, 65
2, 67682, Note_on_c, 0, 56, 58
2, 67693, Note_on_c, 0, 73, 0
2, 67838, Note_on_c, 0, 62, 0
2, 67865, Note_on_c, 0, 62, 40
2, 67883, Note_on_c, 0, 66, 0
2, 67922, Note_on_c, 0, 66, 69
2, 67923, Note_on_c, 0, 86, 119
2, 67941, Note_on_c, 0, 66, 0
2, 67966, Note_on_c, 0, 86, 0
2, 67979, Note_on_c, 0, 66, 68
2, 67986, Note_on_c, 0, 82, 87
2, 68032, Note_on_c, 0, 82, 0
2, 68032, Note_on_c, 0, 62, 0
2, 68042, Note_on_c, 0, 78, 46
2, 68051, Note_on_c, 0, 66, 0
2, 68066, Note_on_c, 0, 78, 0
2, 68091, Note_on_c, 0, 56, 0
2, 68101, Note_on_c, 0, 61, 77
2, 68102, Note_on_c, 0, 84, 119
2, 68102, Note_on_c, 0, 65, 77
2, 68103, Note_on_c, 0, 55, 82
2, 68104, Note_on_c, 0, 60, 67
2, 68109, Note_on_c, 0, 58, 55
2, 68192, Note_on_c, 0, 83, 82
2, 68201, Note_on_c, 0, 84, 0
2, 68207, Note_on_c, 0, 65, 0
2, 68216, Note_on_c, 0, 82, 76
2, 68221, Note_on_c, 0, 83, 0
2, 68241, Note_on_c, 0, 82, 0
2, 68248, Note_on_c, 0, 81, 55
2, 68259, Note_on_c, 0, 61, 0
2, 68261, Note_on_c, 0, 81, 0
2, 68280, Note_on_c, 0, 60, 0
2, 68312, Note_on_c, 0, 55, 0
2, 68316, Note_on_c, 0, 58, 0
2, 68347, Note_on_c, 0, 61, 75
2, 68349, Note_on_c, 0, 77, 109
2, 68349, Note_on_c, 0, 65, 81
2, 68350, Note_on_c, 0, 60, 73
2, 68350, Note_on_c, 0, 55, 72
2, 68353, Note_on_c, 0, 58, 39
2, 68400, Note_on_c, 0, 65, 0
2, 68409, Note_on_c, 0, 77, 0
2, 68414, Note_on_c, 0, 75, 84
2, 68437, Note_on_c, 0, 61, 0
2, 68438, Note_on_c, 0, 60, 0
2, 68443, Note_on_c, 0, 75, 0
2, 68459, Note_on_c, 0, 73, 98
2, 68462, Note_on_c, 0, 61, 55
2, 68463, Note_on_c, 0, 65, 69
2, 68464, Note_on_c, 0, 60, 49
2, 68494, Note_on_c, 0, 65, 0
2, 68498, Note_on_c, 0, 73, 0
2, 68501, Note_on_c, 0, 60, 0
2, 68520, Note_on_c, 0, 55, 0
2, 68520, Note_on_c, 0, 72, 56
2, 68528, Note_on_c, 0, 58, 0
2, 68539, Note_on_c, 0, 61, 0
2, 68559, Note_on_c, 0, 72, 0
2, 68576, Note_on_c, 0, 70, 62
2, 68610, Note_on_c, 0, 70, 0
2, 68627, Note_on_c, 0, 70, 45
2, 68629, Note_on_c, 0, 63, 52
2, 68634, Note_on_c, 0, 70, 0
2, 68635, Note_on_c, 0, 60, 52
2, 68636, Note_on_c, 0, 58, 39
2, 68641, Note_on_c, 0, 53, 52
2, 68645, Note_on_c, 0, 69, 66
2, 68655, Note_on_c, 0, 69, 0
2, 68698, Note_on_c, 0, 60, 0
2, 68773, Note_on_c, 0, 63, 0
2, 68796, Note_on_c, 0, 58, 0
2, 68813, Note_on_c, 0, 53, 0
2, 68820, Note_on_c, 0, 60, 56
2, 68823, Note_on_c, 0, 58, 54
2, 68834, Note_on_c, 0, 60, 0
2, 68867, Note_on_c, 0, 53, 21
2, 68877, Note_on_c, 0, 65, 88
2, 68899, Note_on_c, 0, 65, 0
2, 68914, Note_on_c, 0, 60, 49
2, 68931, Note_on_c, 0, 60, 0
2, 68946, Note_on_c, 0, 61, 57
2, 68975, Note_on_c, 0, 61, 0
2, 68977, Note_on_c, 0, 58, 0
2, 68977, Note_on_c, 0, 63, 62
2, 69008, Note_on_c, 0, 63, 0
2, 69008, Note_on_c, 0, 58, 21
2, 69014, Note_on_c, 0, 65, 48
2, 69027, Note_on_c, 0, 65, 0
2, 69047, Note_on_c, 0, 62, 44
2, 69061, Note_on_c, 0, 62, 0
2, 69062, Note_on_c, 0, 63, 67
2, 69090, Note_on_c, 0, 63, 0
2, 69097, Note_on_c, 0, 65, 60
2, 69117, Note_on_c, 0, 65, 0
2, 69125, Note_on_c, 0, 67, 70
2, 69143, Note_on_c, 0, 67, 0
2, 69188, Note_on_c, 0, 65, 44
2, 69213, Note_on_c, 0, 67, 60
2, 69215, Note_on_c, 0, 65, 0
2, 69225, Note_on_c, 0, 67, 0
2, 69234, Note_on_c, 0, 53, 0
2, 69237, Note_on_c, 0, 68, 79
2, 69243, Note_on_c, 0, 60, 40
2, 69264, Note_on_c, 0, 68, 0
2, 69268, Note_on_c, 0, 65, 56
2, 69291, Note_on_c, 0, 65, 0
2, 69301, Note_on_c, 0, 67, 40
2, 69309, Note_on_c, 0, 60, 0
2, 69312, Note_on_c, 0, 58, 0
2, 69324, Note_on_c, 0, 68, 77
2, 69327, Note_on_c, 0, 67, 0
2, 69348, Note_on_c, 0, 68, 0
2, 69354, Note_on_c, 0, 70, 89
2, 69354, Note_on_c, 0, 63, 62
2, 69364, Note_on_c, 0, 60, 50
2, 69367, Note_on_c, 0, 63, 0
2, 69368, Note_on_c, 0, 58, 38
2, 69380, Note_on_c, 0, 60, 0
2, 69383, Note_on_c, 0, 70, 0
2, 69389, Note_on_c, 0, 67, 58
2, 69412, Note_on_c, 0, 67, 0
2, 69416, Note_on_c, 0, 58, 0
2, 69421, Note_on_c, 0, 68, 66
2, 69446, Note_on_c, 0, 68, 0
2, 69452, Note_on_c, 0, 70, 80
2, 69471, Note_on_c, 0, 70, 0
2, 69480, Note_on_c, 0, 72, 81
2, 69486, Note_on_c, 0, 63, 49
2, 69493, Note_on_c, 0, 60, 46
2, 69495, Note_on_c, 0, 58, 40
2, 69501, Note_on_c, 0, 72, 0
2, 69515, Note_on_c, 0, 74, 86
2, 69521, Note_on_c, 0, 60, 0
2, 69535, Note_on_c, 0, 74, 0
2, 69544, Note_on_c, 0, 75, 83
2, 69551, Note_on_c, 0, 63, 0
2, 69566, Note_on_c, 0, 75, 0
2, 69567, Note_on_c, 0, 58, 0
2, 69573, Note_on_c, 0, 77, 88
2, 69589, Note_on_c, 0, 63, 59
2, 69600, Note_on_c, 0, 54, 48
2, 69600, Note_on_c, 0, 59, 52
2, 69602, Note_on_c, 0, 58, 33
2, 69602, Note_on_c, 0, 78, 80
2, 69603, Note_on_c, 0, 77, 0
2, 69636, Note_on_c, 0, 78, 0
2, 69636, Note_on_c, 0, 80, 82
2, 69654, Note_on_c, 0, 80, 0
2, 69655, Note_on_c, 0, 59, 0
2, 69657, Note_on_c, 0, 63, 0
2, 69667, Note_on_c, 0, 82, 73
2, 69691, Note_on_c, 0, 82, 0
2, 69718, Note_on_c, 0, 63, 38
2, 69729, Note_on_c, 0, 83, 92
2, 69731, Note_on_c, 0, 71, 73
2, 69755, Note_on_c, 0, 83, 0
2, 69757, Note_on_c, 0, 63, 0
2, 69761, Note_on_c, 0, 71, 0
2, 69789, Note_on_c, 0, 63, 65
2, 69790, Note_on_c, 0, 73, 87
2, 69790, Note_on_c, 0, 85, 97
2, 69799, Note_on_c, 0, 59, 64
2, 69811, Note_on_c, 0, 73, 0
2, 69821, Note_on_c, 0, 85, 0
2, 69824, Note_on_c, 0, 59, 0
2, 69829, Note_on_c, 0, 63, 0
2, 69848, Note_on_c, 0, 75, 70
2, 69852, Note_on_c, 0, 63, 51
2, 69860, Note_on_c, 0, 59, 54
2, 69864, Note_on_c, 0, 87, 91
2, 69872, Note_on_c, 0, 75, 0
2, 69877, Note_on_c, 0, 59, 0
2, 69883, Note_on_c, 0, 75, 39
2, 69886, Note_on_c, 0, 87, 0
2, 69902, Note_on_c, 0, 63, 0
2, 69907, Note_on_c, 0, 87, 71
2, 69913, Note_on_c, 0, 75, 0
2, 69917, Note_on_c, 0, 58, 0
2, 69922, Note_on_c, 0, 87, 0
2, 69961, Note_on_c, 0, 63, 67
2, 69962, Note_on_c, 0, 73, 79
2, 69963, Note_on_c, 0, 85, 85
2, 69966, Note_on_c, 0, 54, 0
2, 69969, Note_on_c, 0, 59, 68
2, 69971, Note_on_c, 0, 58, 46
2, 69977, Note_on_c, 0, 73, 0
2, 69978, Note_on_c, 0, 85, 0
2, 70008, Note_on_c, 0, 59, 0
2, 70016, Note_on_c, 0, 63, 0
2, 70017, Note_on_c, 0, 58, 0
2, 70030, Note_on_c, 0, 63, 40
2, 70031, Note_on_c, 0, 54, 81
2, 70061, Note_on_c, 0, 63, 0
2, 70066, Note_on_c, 0, 54, 0
2, 70141, Note_on_c, 0, 63, 79
2, 70141, Note_on_c, 0, 58, 55
2, 70143, Note_on_c, 0, 59, 82
2, 70144, Note_on_c, 0, 53, 77
2, 70221, Note_on_c, 0, 53, 0
2, 70223, Note_on_c, 0, 59, 0
2, 70236, Note_on_c, 0, 63, 0
2, 70238, Note_on_c, 0, 58, 0
2, 70262, Note_on_c, 0, 53, 73
2, 70262, Note_on_c, 0, 58, 50
2, 70263, Note_on_c, 0, 59, 73
2, 70285, Note_on_c, 0, 53, 0
2, 70289, Note_on_c, 0, 59, 0
2, 70295, Note_on_c, 0, 58, 0
2, 70314, Note_on_c, 0, 63, 88
2, 70316, Note_on_c, 0, 58, 59
2, 70316, Note_on_c, 0, 59, 78
2, 70317, Note_on_c, 0, 88, 112
2, 70318, Note_on_c, 0, 53, 84
2, 70319, Note_on_c, 0, 76, 110
2, 70355, Note_on_c, 0, 88, 0
2, 70357, Note_on_c, 0, 63, 0
2, 70365, Note_on_c, 0, 76, 0
2, 70369, Note_on_c, 0, 59, 0
2, 70377, Note_on_c, 0, 63, 76
2, 70379, Note_on_c, 0, 59, 51
2, 70380, Note_on_c, 0, 86, 98
2, 70381, Note_on_c, 0, 74, 96
2, 70416, Note_on_c, 0, 63, 0
2, 70420, Note_on_c, 0, 86, 0
2, 70425, Note_on_c, 0, 74, 0
2, 70429, Note_on_c, 0, 59, 0
2, 70441, Note_on_c, 0, 63, 53
2, 70443, Note_on_c, 0, 85, 77
2, 70458, Note_on_c, 0, 63, 0
2, 70462, Note_on_c, 0, 58, 0
2, 70470, Note_on_c, 0, 53, 0
2, 70480, Note_on_c, 0, 85, 0
2, 70502, Note_on_c, 0, 85, 87
2, 70503, Note_on_c, 0, 61, 82
2, 70504, Note_on_c, 0, 73, 91
2, 70505, Note_on_c, 0, 51, 74
2, 70506, Note_on_c, 0, 58, 67
2, 70507, Note_on_c, 0, 56, 64
2, 70587, Note_on_c, 0, 85, 0
2, 70599, Note_on_c, 0, 73, 0
2, 70607, Note_on_c, 0, 51, 0
2, 70607, Note_on_c, 0, 61, 0
2, 70611, Note_on_c, 0, 58, 0
2, 70617, Note_on_c, 0, 82, 78
2, 70620, Note_on_c, 0, 51, 58
2, 70620, Note_on_c, 0, 70, 71
2, 70621, Note_on_c, 0, 61, 80
2, 70624, Note_on_c, 0, 58, 46
2, 70652, Note_on_c, 0, 82, 0
2, 70653, Note_on_c, 0, 70, 0
2, 70656, Note_on_c, 0, 61, 0
2, 70666, Note_on_c, 0, 58, 0
2, 70678, Note_on_c, 0, 61, 59
2, 70679, Note_on_c, 0, 78, 58
2, 70679, Note_on_c, 0, 66, 70
2, 70683, Note_on_c, 0, 58, 46
2, 70712, Note_on_c, 0, 66, 0
2, 70714, Note_on_c, 0, 51, 0
2, 70715, Note_on_c, 0, 58, 0
2, 70717, Note_on_c, 0, 78, 0
2, 70722, Note_on_c, 0, 56, 0
2, 70725, Note_on_c, 0, 61, 0
2, 70736, Note_on_c, 0, 51, 57
2, 70762, Note_on_c, 0, 51, 0
2, 70797, Note_on_c, 0, 61, 58
2, 70798, Note_on_c, 0, 51, 53
2, 70798, Note_on_c, 0, 78, 70
2, 70802, Note_on_c, 0, 66, 55
2, 70808, Note_on_c, 0, 58, 45
2, 70820, Note_on_c, 0, 51, 0
2, 70822, Note_on_c, 0, 58, 0
2, 70824, Note_on_c, 0, 61, 0
2, 70844, Note_on_c, 0, 66, 0
2, 70860, Note_on_c, 0, 61, 73
2, 70862, Note_on_c, 0, 51, 64
2, 70865, Note_on_c, 0, 58, 62
2, 70868, Note_on_c, 0, 78, 0
2, 70870, Note_on_c, 0, 56, 48
2, 70886, Note_on_c, 0, 51, 0
2, 70889, Note_on_c, 0, 56, 0
2, 70891, Note_on_c, 0, 58, 0
2, 70895, Note_on_c, 0, 61, 0
2, 70924, Note_on_c, 0, 58, 48
2, 70935, Note_on_c, 0, 58, 0
2, 70976, Note_on_c, 0, 61, 82
2, 70977, Note_on_c, 0, 64, 96
2, 70979, Note_on_c, 0, 54, 73
2, 70980, Note_on_c, 0, 57, 80
2, 71098, Note_on_c, 0, 80, 108
2, 71138, Note_on_c, 0, 57, 0
2, 71148, Note_on_c, 0, 80, 0
2, 71152, Note_on_c, 0, 54, 0
2, 71154, Note_on_c, 0, 76, 69
2, 71161, Note_on_c, 0, 61, 0
2, 71196, Note_on_c, 0, 64, 0
2, 71203, Note_on_c, 0, 76, 0
2, 71214, Note_on_c, 0, 69, 67
2, 71250, Note_on_c, 0, 69, 0
2, 71276, Note_on_c, 0, 68, 72
2, 71278, Note_on_c, 0, 78, 99
2, 71279, Note_on_c, 0, 57, 62
2, 71281, Note_on_c, 0, 63, 55
2, 71286, Note_on_c, 0, 61, 43
2, 71343, Note_on_c, 0, 75, 66
2, 71367, Note_on_c, 0, 68, 0
2, 71378, Note_on_c, 0, 75, 0
2, 71392, Note_on_c, 0, 57, 0
2, 71396, Note_on_c, 0, 78, 0
2, 71400, Note_on_c, 0, 72, 56
2, 71423, Note_on_c, 0, 72, 0
2, 71432, Note_on_c, 0, 61, 0
2, 71457, Note_on_c, 0, 68, 101
2, 71458, Note_on_c, 0, 67, 82
2, 71460, Note_on_c, 0, 56, 69
2, 71462, Note_on_c, 0, 60, 67
2, 71510, Note_on_c, 0, 67, 0
2, 71514, Note_on_c, 0, 68, 0
2, 71535, Note_on_c, 0, 70, 57
2, 71542, Note_on_c, 0, 63, 0
2, 71560, Note_on_c, 0, 68, 64
2, 71572, Note_on_c, 0, 70, 0
2, 71584, Note_on_c, 0, 68, 0
2, 71586, Note_on_c, 0, 67, 78
2, 71604, Note_on_c, 0, 67, 0
2, 71622, Note_on_c, 0, 60, 0
2, 71628, Note_on_c, 0, 63, 66
2, 71629, Note_on_c, 0, 67, 68
2, 71632, Note_on_c, 0, 68, 102
2, 71636, Note_on_c, 0, 60, 61
2, 71648, Note_on_c, 0, 67, 0
2, 71671, Note_on_c, 0, 56, 0
2, 71674, Note_on_c, 0, 60, 0
2, 71678, Note_on_c, 0, 63, 0
2, 71686, Note_on_c, 0, 68, 0
2, 71694, Note_on_c, 0, 70, 97
2, 71694, Note_on_c, 0, 63, 70
2, 71695, Note_on_c, 0, 56, 68
2, 71697, Note_on_c, 0, 67, 74
2, 71700, Note_on_c, 0, 60, 67
2, 71714, Note_on_c, 0, 67, 0
2, 71731, Note_on_c, 0, 56, 0
2, 71738, Note_on_c, 0, 60, 0
2, 71740, Note_on_c, 0, 63, 0
2, 71743, Note_on_c, 0, 70, 0
2, 71754, Note_on_c, 0, 62, 74
2, 71755, Note_on_c, 0, 56, 48
2, 71756, Note_on_c, 0, 67, 68
2, 71799, Note_on_c, 0, 67, 0
2, 71801, Note_on_c, 0, 62, 0
2, 71805, Note_on_c, 0, 56, 0
2, 71820, Note_on_c, 0, 67, 76
2, 71824, Note_on_c, 0, 56, 59
2, 71825, Note_on_c, 0, 62, 51
2, 71842, Note_on_c, 0, 62, 0
2, 71854, Note_on_c, 0, 56, 0
2, 71870, Note_on_c, 0, 67, 0
2, 71878, Note_on_c, 0, 62, 58
2, 71881, Note_on_c, 0, 56, 47
2, 71906, Note_on_c, 0, 56, 0
2, 71951, Note_on_c, 0, 56, 50
2, 71967, Note_on_c, 0, 56, 0
2, 72064, Note_on_c, 0, 56, 82
2, 72129, Note_on_c, 0, 56, 0
2, 72173, Note_on_c, 0, 56, 80
2, 72187, Note_on_c, 0, 62, 0
2, 72298, Note_on_c, 0, 62, 80
2, 72299, Note_on_c, 0, 65, 119
2, 72341, Note_on_c, 0, 56, 0
2, 72361, Note_on_c, 0, 67, 87
2, 72364, Note_on_c, 0, 56, 51
2, 72371, Note_on_c, 0, 65, 0
2, 72387, Note_on_c, 0, 56, 0
2, 72406, Note_on_c, 0, 67, 0
2, 72419, Note_on_c, 0, 56, 77
2, 72424, Note_on_c, 0, 68, 100
2, 72431, Note_on_c, 0, 62, 0
2, 72458, Note_on_c, 0, 56, 0
2, 72482, Note_on_c, 0, 68, 0
2, 72482, Note_on_c, 0, 61, 70
2, 72484, Note_on_c, 0, 66, 81
2, 72485, Note_on_c, 0, 54, 67
2, 72487, Note_on_c, 0, 58, 56
2, 72591, Note_on_c, 0, 66, 0
2, 72592, Note_on_c, 0, 65, 49
2, 72631, Note_on_c, 0, 65, 0
2, 72631, Note_on_c, 0, 54, 0
2, 72642, Note_on_c, 0, 58, 0
2, 72648, Note_on_c, 0, 61, 0
2, 72659, Note_on_c, 0, 54, 58
2, 72662, Note_on_c, 0, 66, 92
2, 72663, Note_on_c, 0, 61, 66
2, 72665, Note_on_c, 0, 58, 64
2, 72666, Note_on_c, 0, 65, 73
2, 72690, Control_c, 0, 64, 127
2, 72717, Note_on_c, 0, 65, 0
2, 72735, Note_on_c, 0, 54, 0
2, 72743, Note_on_c, 0, 58, 0
2, 72749, Note_on_c, 0, 61, 0
2, 72764, Note_on_c, 0, 66, 0
2, 72770, Note_on_c, 0, 68, 93
2, 72773, Note_on_c, 0, 54, 83
2, 72775, Note_on_c, 0, 65, 73
2, 72775, Note_on_c, 0, 61, 60
2, 72777, Note_on_c, 0, 58, 65
2, 72825, Note_on_c, 0, 65, 0
2, 72859, Note_on_c, 0, 54, 0
2, 72867, Note_on_c, 0, 58, 0
2, 72880, Note_on_c, 0, 61, 0
2, 72891, Note_on_c, 0, 68, 0
2, 72895, Note_on_c, 0, 61, 80
2, 72895, Note_on_c, 0, 69, 114
2, 72897, Note_on_c, 0, 64, 98
2, 72897, Note_on_c, 0, 54, 79
2, 72898, Note_on_c, 0, 57, 88
2, 72903, Control_c, 0, 64, 0
2, 72957, Note_on_c, 0, 64, 0
2, 72977, Note_on_c, 0, 61, 0
2, 72987, Control_c, 0, 64, 127
2, 73002, Note_on_c, 0, 69, 0
2, 73012, Note_on_c, 0, 61, 82
2, 73012, Note_on_c, 0, 70, 101
2, 73014, Note_on_c, 0, 64, 95
2, 73021, Note_on_c, 0, 69, 69
2, 73050, Note_on_c, 0, 69, 0
2, 73052, Note_on_c, 0, 57, 0
2, 73058, Note_on_c, 0, 54, 0
2, 73071, Note_on_c, 0, 61, 0
2, 73106, Note_on_c, 0, 64, 0
2, 73115, Note_on_c, 0, 70, 0
2, 73136, Note_on_c, 0, 71, 111
2, 73139, Note_on_c, 0, 57, 85
2, 73140, Note_on_c, 0, 63, 79
2, 73140, Note_on_c, 0, 66, 82
2, 73141, Note_on_c, 0, 61, 73
2, 73175, Note_on_c, 0, 66, 0
2, 73179, Note_on_c, 0, 63, 0
2, 73179, Note_on_c, 0, 57, 0
2, 73181, Control_c, 0, 64, 0
2, 73182, Note_on_c, 0, 61, 0
2, 73190, Note_on_c, 0, 71, 0
2, 73197, Note_on_c, 0, 66, 69
2, 73199, Note_on_c, 0, 63, 59
2, 73200, Note_on_c, 0, 73, 89
2, 73200, Note_on_c, 0, 57, 71
2, 73203, Note_on_c, 0, 61, 56
2, 73209, Control_c, 0, 64, 127
2, 73233, Note_on_c, 0, 57, 0
2, 73240, Note_on_c, 0, 66, 0
2, 73245, Note_on_c, 0, 63, 0
2, 73250, Note_on_c, 0, 61, 0
2, 73251, Note_on_c, 0, 73, 0
2, 73260, Note_on_c, 0, 66, 79
2, 73261, Note_on_c, 0, 74, 98
2, 73263, Note_on_c, 0, 57, 76
2, 73263, Note_on_c, 0, 63, 76
2, 73265, Note_on_c, 0, 61, 43
2, 73288, Note_on_c, 0, 66, 0
2, 73289, Note_on_c, 0, 57, 0
2, 73298, Note_on_c, 0, 63, 0
2, 73305, Note_on_c, 0, 61, 0
2, 73306, Note_on_c, 0, 74, 0
2, 73316, Note_on_c, 0, 66, 73
2, 73317, Note_on_c, 0, 57, 68
2, 73320, Note_on_c, 0, 63, 50
2, 73320, Note_on_c, 0, 75, 76
2, 73337, Note_on_c, 0, 66, 0
2, 73346, Note_on_c, 0, 57, 0
2, 73346, Note_on_c, 0, 63, 0
2, 73361, Note_on_c, 0, 75, 0
2, 73378, Note_on_c, 0, 66, 71
2, 73379, Note_on_c, 0, 76, 87
2, 73381, Note_on_c, 0, 63, 59
2, 73383, Note_on_c, 0, 57, 48
2, 73394, Note_on_c, 0, 57, 0
2, 73404, Note_on_c, 0, 66, 0
2, 73405, Note_on_c, 0, 76, 0
2, 73419, Note_on_c, 0, 63, 0
2, 73424, Control_c, 0, 64, 0
2, 73433, Note_on_c, 0, 63, 51
2, 73437, Note_on_c, 0, 56, 68
2, 73438, Note_on_c, 0, 75, 72
2, 73438, Note_on_c, 0, 79, 86
2, 73438, Note_on_c, 0, 72, 78
2, 73441, Note_on_c, 0, 67, 73
2, 73442, Note_on_c, 0, 60, 73
2, 73451, Control_c, 0, 64, 127
2, 73480, Note_on_c, 0, 72, 0
2, 73480, Note_on_c, 0, 75, 0
2, 73484, Note_on_c, 0, 56, 0
2, 73484, Note_on_c, 0, 67, 0
2, 73485, Note_on_c, 0, 60, 0
2, 73497, Note_on_c, 0, 75, 82
2, 73502, Note_on_c, 0, 56, 46
2, 73504, Note_on_c, 0, 79, 0
2, 73514, Note_on_c, 0, 60, 44
2, 73525, Note_on_c, 0, 60, 0
2, 73526, Note_on_c, 0, 56, 0
2, 73531, Note_on_c, 0, 63, 0
2, 73551, Note_on_c, 0, 75, 0
2, 73558, Note_on_c, 0, 67, 79
2, 73567, Note_on_c, 0, 67, 0
2, 73621, Note_on_c, 0, 80, 97
2, 73622, Note_on_c, 0, 68, 97
2, 73622, Note_on_c, 0, 56, 80
2, 73622, Note_on_c, 0, 63, 83
2, 73623, Note_on_c, 0, 72, 96
2, 73623, Note_on_c, 0, 75, 87
2, 73625, Note_on_c, 0, 60, 79
2, 73625, Note_on_c, 0, 67, 88
2, 73634, Control_c, 0, 64, 0
2, 73660, Control_c, 0, 64, 127
2, 73692, Note_on_c, 0, 75, 0
2, 73694, Note_on_c, 0, 56, 0
2, 73696, Note_on_c, 0, 67, 0
2, 73696, Note_on_c, 0, 60, 0
2, 73699, Note_on_c, 0, 72, 0
2, 73706, Note_on_c, 0, 63, 0
2, 73713, Note_on_c, 0, 68, 0
2, 73730, Note_on_c, 0, 78, 59
2, 73744, Note_on_c, 0, 75, 76
2, 73758, Note_on_c, 0, 72, 74
2, 73759, Note_on_c, 0, 80, 0
2, 73775, Note_on_c, 0, 78, 0
2, 73779, Control_c, 0, 64, 0
2, 73783, Note_on_c, 0, 63, 48
2, 73786, Note_on_c, 0, 75, 0
2, 73787, Note_on_c, 0, 68, 79
2, 73788, Note_on_c, 0, 72, 0
2, 73791, Control_c, 0, 64, 127
2, 73806, Note_on_c, 0, 68, 0
2, 73807, Note_on_c, 0, 63, 0
2, 73818, Control_c, 0, 64, 0
2, 73877, Note_on_c, 0, 82, 114
2, 73877, Note_on_c, 0, 56, 87
2, 73878, Note_on_c, 0, 70, 117
2, 73878, Note_on_c, 0, 75, 106
2, 73879, Note_on_c, 0, 63, 83
2, 73879, Note_on_c, 0, 67, 101
2, 73880, Note_on_c, 0, 60, 80
2, 73881, Note_on_c, 0, 79, 83
2, 73937, Note_on_c, 0, 79, 0
2, 73937, Control_c, 0, 64, 127
2, 73945, Control_c, 0, 64, 0
2, 73953, Note_on_c, 0, 75, 0
2, 73959, Note_on_c, 0, 60, 0
2, 73960, Note_on_c, 0, 63, 0
2, 73965, Note_on_c, 0, 56, 0
2, 73966, Note_on_c, 0, 70, 0
2, 73980, Note_on_c, 0, 79, 78
2, 73993, Note_on_c, 0, 75, 91
2, 73996, Note_on_c, 0, 82, 0
2, 74002, Note_on_c, 0, 67, 0
2, 74014, Note_on_c, 0, 79, 0
2, 74018, Note_on_c, 0, 70, 84
2, 74019, Note_on_c, 0, 63, 52
2, 74024, Note_on_c, 0, 75, 0
2, 74033, Note_on_c, 0, 70, 0
2, 74036, Note_on_c, 0, 63, 0
2, 74114, Note_on_c, 0, 63, 87
2, 74115, Note_on_c, 0, 56, 90
2, 74115, Note_on_c, 0, 84, 115
2, 74115, Note_on_c, 0, 80, 97
2, 74115, Note_on_c, 0, 65, 101
2, 74116, Note_on_c, 0, 77, 114
2, 74117, Note_on_c, 0, 72, 114
2, 74120, Note_on_c, 0, 60, 69
2, 74127, Note_on_c, 0, 60, 0
2, 74138, Note_on_c, 0, 60, 42
2, 74167, Note_on_c, 0, 84, 0
2, 74169, Note_on_c, 0, 77, 0
2, 74174, Note_on_c, 0, 60, 0
2, 74175, Note_on_c, 0, 65, 0
2, 74175, Note_on_c, 0, 56, 0
2, 74176, Note_on_c, 0, 63, 0
2, 74176, Note_on_c, 0, 80, 0
2, 74197, Note_on_c, 0, 72, 0
2, 74224, Note_on_c, 0, 82, 95
2, 74226, Note_on_c, 0, 56, 84
2, 74226, Note_on_c, 0, 63, 89
2, 74227, Note_on_c, 0, 70, 87
2, 74228, Note_on_c, 0, 75, 89
2, 74228, Note_on_c, 0, 65, 95
2, 74229, Note_on_c, 0, 60, 82
2, 74234, Note_on_c, 0, 75, 0
2, 74242, Note_on_c, 0, 70, 0
2, 74242, Note_on_c, 0, 65, 0
2, 74252, Note_on_c, 0, 82, 0
2, 74254, Note_on_c, 0, 60, 0
2, 74257, Note_on_c, 0, 56, 0
2, 74258, Note_on_c, 0, 63, 0
2, 74341, Note_on_c, 0, 56, 79
2, 74341, Note_on_c, 0, 63, 87
2, 74342, Note_on_c, 0, 87, 94
2, 74342, Note_on_c, 0, 79, 105
2, 74342, Note_on_c, 0, 91, 107
2, 74343, Note_on_c, 0, 84, 108
2, 74344, Note_on_c, 0, 67, 97
2, 74344, Note_on_c, 0, 60, 80
2, 74349, Note_on_c, 0, 89, 47
2, 74356, Note_on_c, 0, 89, 0
2, 74382, Note_on_c, 0, 91, 0
2, 74382, Note_on_c, 0, 79, 0
2, 74385, Note_on_c, 0, 67, 0
2, 74388, Note_on_c, 0, 87, 0
2, 74389, Note_on_c, 0, 84, 0
2, 74391, Note_on_c, 0, 56, 0
2, 74394, Note_on_c, 0, 63, 0
2, 74394, Note_on_c, 0, 60, 0
2, 74403, Note_on_c, 0, 89, 94
2, 74403, Note_on_c, 0, 84, 97
2, 74404, Note_on_c, 0, 56, 69
2, 74405, Note_on_c, 0, 65, 94
2, 74406, Note_on_c, 0, 77, 87
2, 74406, Note_on_c, 0, 63, 84
2, 74410, Note_on_c, 0, 60, 91
2, 74452, Note_on_c, 0, 89, 0
2, 74457, Note_on_c, 0, 84, 0
2, 74467, Note_on_c, 0, 77, 0
2, 74468, Note_on_c, 0, 56, 0
2, 74472, Note_on_c, 0, 65, 0
2, 74472, Note_on_c, 0, 60, 0
2, 74477, Note_on_c, 0, 63, 0
2, 74517, Note_on_c, 0, 87, 99
2, 74518, Note_on_c, 0, 63, 69
2, 74518, Note_on_c, 0, 75, 93
2, 74518, Note_on_c, 0, 56, 73
2, 74519, Note_on_c, 0, 65, 87
2, 74520, Note_on_c, 0, 82, 92
2, 74521, Note_on_c, 0, 60, 71
2, 74552, Control_c, 0, 64, 127
2, 74562, Note_on_c, 0, 82, 0
2, 74565, Note_on_c, 0, 87, 0
2, 74571, Note_on_c, 0, 75, 0
2, 74588, Note_on_c, 0, 60, 0
2, 74589, Note_on_c, 0, 65, 0
2, 74591, Note_on_c, 0, 63, 0
2, 74595, Note_on_c, 0, 56, 0
2, 74618, Control_c, 0, 64, 0
2, 74640, Note_on_c, 0, 77, 85
2, 74640, Note_on_c, 0, 56, 79
2, 74640, Note_on_c, 0, 63, 74
2, 74641, Note_on_c, 0, 80, 69
2, 74641, Note_on_c, 0, 84, 94
2, 74643, Note_on_c, 0, 65, 86
2, 74644, Note_on_c, 0, 72, 80
2, 74646, Note_on_c, 0, 60, 73
2, 74674, Note_on_c, 0, 77, 0
2, 74677, Note_on_c, 0, 72, 0
2, 74678, Note_on_c, 0, 65, 0
2, 74682, Note_on_c, 0, 60, 0
2, 74682, Note_on_c, 0, 84, 0
2, 74682, Control_c, 0, 64, 127
2, 74683, Note_on_c, 0, 80, 0
2, 74683, Note_on_c, 0, 56, 0
2, 74685, Note_on_c, 0, 63, 0
2, 74701, Note_on_c, 0, 84, 67
2, 74703, Note_on_c, 0, 63, 70
2, 74703, Note_on_c, 0, 56, 72
2, 74705, Note_on_c, 0, 65, 54
2, 74705, Note_on_c, 0, 72, 64
2, 74706, Note_on_c, 0, 80, 52
2, 74707, Note_on_c, 0, 77, 80
2, 74712, Note_on_c, 0, 60, 47
2, 74716, Note_on_c, 0, 84, 0
2, 74718, Note_on_c, 0, 65, 0
2, 74720, Note_on_c, 0, 60, 0
2, 74724, Note_on_c, 0, 63, 0
2, 74730, Note_on_c, 0, 56, 0
2, 74736, Note_on_c, 0, 77, 0
2, 74741, Note_on_c, 0, 72, 0
2, 74747, Note_on_c, 0, 80, 0
2, 74754, Control_c, 0, 64, 0
2, 74758, Note_on_c, 0, 61, 58
2, 74763, Note_on_c, 0, 63, 72
2, 74768, Note_on_c, 0, 60, 64
2, 74773, Note_on_c, 0, 53, 51
2, 74776, Note_on_c, 0, 61, 0
2, 74777, Note_on_c, 0, 60, 0
2, 74784, Note_on_c, 0, 53, 0
2, 74786, Note_on_c, 0, 63, 0
2, 74804, Control_c, 0, 64, 127
2, 74824, Control_c, 0, 64, 0
2, 74827, Note_on_c, 0, 79, 91
2, 74829, Note_on_c, 0, 67, 87
2, 74829, Note_on_c, 0, 75, 66
2, 74831, Note_on_c, 0, 72, 84
2, 74831, Note_on_c, 0, 63, 78
2, 74831, Note_on_c, 0, 60, 78
2, 74834, Note_on_c, 0, 56, 66
2, 74835, Note_on_c, 0, 53, 58
2, 74848, Note_on_c, 0, 53, 0
2, 74856, Note_on_c, 0, 67, 0
2, 74857, Note_on_c, 0, 63, 0
2, 74857, Note_on_c, 0, 60, 0
2, 74859, Note_on_c, 0, 72, 0
2, 74860, Note_on_c, 0, 79, 0
2, 74864, Note_on_c, 0, 75, 0
2, 74869, Note_on_c, 0, 56, 0
2, 74883, Control_c, 0, 64, 127
2, 74940, Note_on_c, 0, 68, 67
2, 74940, Note_on_c, 0, 72, 89
2, 74942, Note_on_c, 0, 63, 64
2, 74943, Note_on_c, 0, 60, 66
2, 74946, Note_on_c, 0, 53, 50
2, 74946, Note_on_c, 0, 56, 58
2, 74947, Control_c, 0, 64, 0
2, 74977, Note_on_c, 0, 60, 0
2, 74982, Note_on_c, 0, 68, 0
2, 74982, Control_c, 0, 64, 127
2, 74986, Note_on_c, 0, 72, 0
2, 74989, Note_on_c, 0, 63, 0
2, 74999, Note_on_c, 0, 56, 0
2, 75024, Note_on_c, 0, 53, 0
2, 75057, Note_on_c, 0, 70, 83
2, 75057, Note_on_c, 0, 77, 85
2, 75057, Note_on_c, 0, 74, 92
2, 75059, Note_on_c, 0, 62, 77
2, 75060, Note_on_c, 0, 58, 71
2, 75060, Note_on_c, 0, 53, 65
2, 75063, Control_c, 0, 64, 0
2, 75098, Control_c, 0, 64, 127
2, 75101, Note_on_c, 0, 74, 0
2, 75103, Note_on_c, 0, 77, 0
2, 75107, Note_on_c, 0, 70, 0
2, 75120, Note_on_c, 0, 58, 0
2, 75128, Note_on_c, 0, 62, 0
2, 75142, Note_on_c, 0, 53, 0
2, 75175, Note_on_c, 0, 70, 88
2, 75178, Note_on_c, 0, 65, 79
2, 75179, Note_on_c, 0, 74, 88
2, 75180, Note_on_c, 0, 53, 78
2, 75182, Note_on_c, 0, 62, 82
2, 75182, Note_on_c, 0, 58, 74
2, 75190, Control_c, 0, 64, 0
2, 75218, Note_on_c, 0, 74, 0
2, 75222, Control_c, 0, 64, 127
2, 75224, Note_on_c, 0, 65, 0
2, 75229, Note_on_c, 0, 70, 0
2, 75233, Note_on_c, 0, 53, 0
2, 75238, Note_on_c, 0, 58, 0
2, 75249, Note_on_c, 0, 62, 0
2, 75297, Note_on_c, 0, 63, 103
2, 75298, Note_on_c, 0, 60, 86
2, 75298, Note_on_c, 0, 68, 97
2, 75299, Note_on_c, 0, 56, 71
2, 75299, Note_on_c, 0, 53, 84
2, 75300, Note_on_c, 0, 72, 94
2, 75309, Control_c, 0, 64, 0
2, 75333, Note_on_c, 0, 60, 0
2, 75338, Note_on_c, 0, 72, 0
2, 75341, Control_c, 0, 64, 127
2, 75348, Note_on_c, 0, 56, 0
2, 75348, Note_on_c, 0, 63, 0
2, 75349, Note_on_c, 0, 68, 0
2, 75350, Note_on_c, 0, 53, 0
2, 75413, Control_c, 0, 64, 0
2, 75416, Note_on_c, 0, 68, 91
2, 75416, Note_on_c, 0, 56, 93
2, 75416, Note_on_c, 0, 63, 99
2, 75418, Note_on_c, 0, 60, 91
2, 75464, Note_on_c, 0, 56, 0
2, 75471, Note_on_c, 0, 53, 68
2, 75473, Note_on_c, 0, 68, 0
2, 75484, Note_on_c, 0, 63, 0
2, 75512, Note_on_c, 0, 60, 0
2, 75518, Note_on_c, 0, 53, 0
2, 75540, Note_on_c, 0, 46, 74
2, 75564, Control_c, 0, 64, 127
2, 75581, Note_on_c, 0, 46, 0
2, 75587, Control_c, 0, 64, 0
2, 75598, Note_on_c, 0, 60, 94
2, 75598, Note_on_c, 0, 55, 84
2, 75598, Note_on_c, 0, 56, 94
2, 75598, Note_on_c, 0, 67, 94
2, 75599, Note_on_c, 0, 63, 75
2, 75627, Note_on_c, 0, 67, 0
2, 75644, Note_on_c, 0, 60, 0
2, 75649, Note_on_c, 0, 63, 0
2, 75649, Note_on_c, 0, 56, 0
2, 75650, Note_on_c, 0, 55, 0
2, 75663, Note_on_c, 0, 56, 95
2, 75663, Note_on_c, 0, 66, 92
2, 75665, Note_on_c, 0, 60, 84
2, 75666, Note_on_c, 0, 63, 82
2, 75701, Note_on_c, 0, 66, 0
2, 75709, Note_on_c, 0, 56, 0
2, 75713, Note_on_c, 0, 60, 0
2, 75713, Note_on_c, 0, 63, 0
2, 75722, Note_on_c, 0, 56, 63
2, 75723, Note_on_c, 0, 60, 56
2, 75726, Note_on_c, 0, 65, 69
2, 75726, Note_on_c, 0, 53, 79
2, 75754, Note_on_c, 0, 65, 0
2, 75767, Note_on_c, 0, 56, 0
2, 75767, Note_on_c, 0, 60, 0
2, 75771, Note_on_c, 0, 53, 0
2, 75790, Note_on_c, 0, 48, 75
2, 75818, Note_on_c, 0, 48, 0
2, 75840, Note_on_c, 0, 51, 84
2, 75844, Note_on_c, 0, 60, 95
2, 75844, Note_on_c, 0, 63, 90
2, 75844, Note_on_c, 0, 56, 88
2, 75890, Note_on_c, 0, 56, 0
2, 75897, Note_on_c, 0, 60, 0
2, 75905, Note_on_c, 0, 51, 0
2, 75909, Note_on_c, 0, 63, 0
2, 75966, Note_on_c, 0, 48, 62
2, 75977, Note_on_c, 0, 48, 0
2, 76026, Note_on_c, 0, 51, 94
2, 76026, Note_on_c, 0, 56, 93
2, 76026, Note_on_c, 0, 60, 102
2, 76027, Note_on_c, 0, 63, 92
2, 76109, Note_on_c, 0, 60, 0
2, 76115, Note_on_c, 0, 56, 0
2, 76144, Note_on_c, 0, 56, 64
2, 76144, Note_on_c, 0, 60, 80
2, 76144, Note_on_c, 0, 48, 76
2, 76164, Note_on_c, 0, 51, 0
2, 76174, Note_on_c, 0, 56, 0
2, 76189, Note_on_c, 0, 60, 0
2, 76192, Note_on_c, 0, 63, 0
2, 76252, Note_on_c, 0, 48, 0
2, 76261, Note_on_c, 0, 56, 93
2, 76261, Note_on_c, 0, 51, 97
2, 76261, Note_on_c, 0, 63, 91
2, 76262, Note_on_c, 0, 60, 98
2, 76358, Note_on_c, 0, 60, 0
2, 76370, Note_on_c, 0, 56, 0
2, 76384, Note_on_c, 0, 51, 0
2, 76386, Note_on_c, 0, 48, 67
2, 76387, Note_on_c, 0, 63, 0
2, 76387, Note_on_c, 0, 60, 42
2, 76400, Note_on_c, 0, 60, 0
2, 76429, Note_on_c, 0, 48, 0
2, 76439, Note_on_c, 0, 51, 76
2, 76442, Note_on_c, 0, 56, 79
2, 76443, Note_on_c, 0, 63, 80
2, 76443, Note_on_c, 0, 60, 82
2, 76474, Note_on_c, 0, 56, 0
2, 76475, Note_on_c, 0, 60, 0
2, 76494, Note_on_c, 0, 51, 0
2, 76508, Note_on_c, 0, 48, 68
2, 76534, Note_on_c, 0, 63, 0
2, 76558, Note_on_c, 0, 48, 0
2, 76559, Note_on_c, 0, 56, 94
2, 76560, Note_on_c, 0, 62, 99
2, 76561, Note_on_c, 0, 50, 92
2, 76654, Note_on_c, 0, 56, 0
2, 76680, Note_on_c, 0, 62, 0
2, 76687, Note_on_c, 0, 46, 88
2, 76687, Note_on_c, 0, 56, 82
2, 76688, Note_on_c, 0, 58, 88
2, 76697, Note_on_c, 0, 50, 0
2, 76727, Note_on_c, 0, 56, 0
2, 76730, Note_on_c, 0, 58, 0
2, 76742, Note_on_c, 0, 46, 0
2, 76802, Note_on_c, 0, 56, 94
2, 76803, Note_on_c, 0, 58, 94
2, 76804, Note_on_c, 0, 46, 91
2, 76849, Note_on_c, 0, 56, 0
2, 76852, Note_on_c, 0, 58, 0
2, 76854, Note_on_c, 0, 46, 0
2, 76978, Note_on_c, 0, 58, 92
2, 76978, Note_on_c, 0, 56, 89
2, 76980, Note_on_c, 0, 46, 89
2, 77152, Note_on_c, 0, 56, 0
2, 77154, Note_on_c, 0, 58, 0
2, 77164, Note_on_c, 0, 46, 0
2, 77454, Note_on_c, 0, 79, 91
2, 77454, Note_on_c, 0, 75, 76
2, 77455, Note_on_c, 0, 67, 95
2, 77455, Note_on_c, 0, 72, 78
2, 77459, Note_on_c, 0, 68, 47
2, 77471, Note_on_c, 0, 68, 0
2, 77475, Note_on_c, 0, 72, 0
2, 77481, Note_on_c, 0, 79, 0
2, 77481, Note_on_c, 0, 75, 0
2, 77486, Note_on_c, 0, 67, 0
2, 77517, Note_on_c, 0, 79, 91
2, 77519, Note_on_c, 0, 75, 82
2, 77519, Note_on_c, 0, 67, 89
2, 77520, Note_on_c, 0, 72, 86
2, 77522, Note_on_c, 0, 68, 43
2, 77612, Note_on_c, 0, 68, 0
2, 77620, Note_on_c, 0, 72, 0
2, 77624, Note_on_c, 0, 79, 0
2, 77630, Note_on_c, 0, 77, 84
2, 77632, Note_on_c, 0, 68, 62
2, 77634, Note_on_c, 0, 67, 0
2, 77634, Note_on_c, 0, 72, 44
2, 77636, Note_on_c, 0, 65, 78
2, 77669, Note_on_c, 0, 77, 0
2, 77672, Note_on_c, 0, 72, 0
2, 77672, Note_on_c, 0, 65, 0
2, 77676, Note_on_c, 0, 75, 0
2, 77679, Note_on_c, 0, 68, 0
2, 77753, Note_on_c, 0, 75, 76
2, 77753, Note_on_c, 0, 72, 73
2, 77753, Note_on_c, 0, 68, 65
2, 77755, Note_on_c, 0, 65, 72
2, 77756, Note_on_c, 0, 63, 59
2, 77836, Note_on_c, 0, 72, 0
2, 77856, Note_on_c, 0, 65, 0
2, 77859, Note_on_c, 0, 68, 0
2, 77868, Note_on_c, 0, 75, 0
2, 77871, Note_on_c, 0, 65, 44
2, 77871, Note_on_c, 0, 72, 65
2, 77877, Note_on_c, 0, 63, 0
2, 77877, Note_on_c, 0, 68, 47
2, 77877, Note_on_c, 0, 60, 53
2, 77895, Control_c, 0, 64, 127
2, 77898, Note_on_c, 0, 72, 0
2, 77916, Note_on_c, 0, 68, 0
2, 77917, Note_on_c, 0, 65, 0
2, 77941, Note_on_c, 0, 74, 81
2, 77943, Note_on_c, 0, 65, 53
2, 77943, Note_on_c, 0, 70, 77
2, 77944, Control_c, 0, 64, 0
2, 77946, Note_on_c, 0, 62, 68
2, 77948, Note_on_c, 0, 60, 0
2, 77979, Control_c, 0, 64, 127
2, 78011, Note_on_c, 0, 70, 0
2, 78032, Note_on_c, 0, 65, 0
2, 78060, Note_on_c, 0, 74, 0
2, 78062, Note_on_c, 0, 70, 70
2, 78063, Note_on_c, 0, 65, 51
2, 78066, Note_on_c, 0, 58, 57
2, 78067, Control_c, 0, 64, 0
2, 78075, Note_on_c, 0, 62, 0
2, 78094, Control_c, 0, 64, 127
2, 78127, Note_on_c, 0, 58, 0
2, 78150, Note_on_c, 0, 70, 0
2, 78154, Note_on_c, 0, 65, 0
2, 78415, Note_on_c, 0, 67, 91
2, 78415, Note_on_c, 0, 53, 91
2, 78416, Note_on_c, 0, 63, 76
2, 78416, Note_on_c, 0, 56, 85
2, 78417, Note_on_c, 0, 60, 89
2, 78418, Note_on_c, 0, 55, 96
2, 78419, Note_on_c, 0, 51, 78
2, 78420, Control_c, 0, 64, 0
2, 78425, Note_on_c, 0, 51, 0
2, 78431, Note_on_c, 0, 53, 0
2, 78526, Note_on_c, 0, 56, 0
2, 78527, Note_on_c, 0, 60, 0
2, 78531, Note_on_c, 0, 63, 0
2, 78532, Note_on_c, 0, 67, 0
2, 78539, Note_on_c, 0, 63, 41
2, 78539, Note_on_c, 0, 56, 62
2, 78541, Note_on_c, 0, 53, 75
2, 78542, Note_on_c, 0, 65, 74
2, 78542, Note_on_c, 0, 60, 78
2, 78549, Note_on_c, 0, 55, 0
2, 78626, Note_on_c, 0, 60, 0
2, 78629, Note_on_c, 0, 63, 0
2, 78635, Note_on_c, 0, 56, 0
2, 78660, Note_on_c, 0, 65, 0
2, 78660, Note_on_c, 0, 56, 68
2, 78660, Note_on_c, 0, 63, 66
2, 78663, Note_on_c, 0, 51, 69
2, 78663, Note_on_c, 0, 60, 74
2, 78667, Note_on_c, 0, 53, 0
2, 78764, Note_on_c, 0, 56, 0
2, 78765, Note_on_c, 0, 60, 0
2, 78776, Note_on_c, 0, 51, 0
2, 78781, Note_on_c, 0, 63, 0
2, 78781, Note_on_c, 0, 56, 47
2, 78784, Note_on_c, 0, 48, 48
2, 78791, Note_on_c, 0, 60, 38
2, 78799, Note_on_c, 0, 60, 0
2, 78800, Note_on_c, 0, 56, 0
2, 78828, Note_on_c, 0, 48, 0
2, 78835, Note_on_c, 0, 51, 73
2, 78836, Note_on_c, 0, 56, 71
2, 78838, Note_on_c, 0, 63, 67
2, 78839, Note_on_c, 0, 60, 77
2, 78883, Note_on_c, 0, 56, 0
2, 78891, Note_on_c, 0, 60, 0
2, 78901, Note_on_c, 0, 63, 0
2, 78903, Note_on_c, 0, 56, 50
2, 78904, Note_on_c, 0, 51, 0
2, 78908, Note_on_c, 0, 48, 58
2, 78915, Note_on_c, 0, 56, 0
2, 78956, Note_on_c, 0, 48, 0
2, 78956, Note_on_c, 0, 51, 69
2, 78956, Note_on_c, 0, 63, 69
2, 78956, Note_on_c, 0, 56, 70
2, 78968, Note_on_c, 0, 60, 40
2, 78977, Note_on_c, 0, 56, 0
2, 78978, Note_on_c, 0, 51, 0
2, 78982, Note_on_c, 0, 60, 0
2, 78986, Note_on_c, 0, 63, 0
2, 78990, Note_on_c, 0, 65, 81
2, 78993, Note_on_c, 0, 56, 55
2, 78997, Note_on_c, 0, 53, 71
2, 79005, Note_on_c, 0, 53, 0
2, 79009, Note_on_c, 0, 56, 0
2, 79009, Note_on_c, 0, 65, 0
2, 79025, Note_on_c, 0, 51, 55
2, 79025, Note_on_c, 0, 63, 68
2, 79025, Note_on_c, 0, 56, 53
2, 79030, Note_on_c, 0, 60, 72
2, 79054, Note_on_c, 0, 60, 0
2, 79062, Note_on_c, 0, 56, 0
2, 79074, Note_on_c, 0, 63, 0
2, 79075, Note_on_c, 0, 51, 0
2, 79079, Note_on_c, 0, 56, 64
2, 79080, Note_on_c, 0, 62, 75
2, 79083, Note_on_c, 0, 50, 69
2, 79128, Note_on_c, 0, 56, 0
2, 79137, Note_on_c, 0, 62, 0
2, 79143, Note_on_c, 0, 56, 66
2, 79145, Note_on_c, 0, 50, 0
2, 79145, Note_on_c, 0, 58, 74
2, 79146, Note_on_c, 0, 46, 70
2, 79156, Note_on_c, 0, 56, 0
2, 79158, Note_on_c, 0, 58, 0
2, 79162, Note_on_c, 0, 46, 0
2, 79376, Note_on_c, 0, 58, 98
2, 79376, Note_on_c, 0, 63, 93
2, 79377, Note_on_c, 0, 70, 100
2, 79378, Note_on_c, 0, 60, 95
2, 79378, Note_on_c, 0, 65, 93
2, 79487, Note_on_c, 0, 60, 0
2, 79488, Note_on_c, 0, 63, 0
2, 79492, Note_on_c, 0, 65, 0
2, 79492, Note_on_c, 0, 70, 0
2, 79502, Note_on_c, 0, 68, 69
2, 79502, Note_on_c, 0, 60, 75
2, 79502, Note_on_c, 0, 56, 82
2, 79503, Note_on_c, 0, 63, 71
2, 79505, Note_on_c, 0, 58, 0
2, 79505, Note_on_c, 0, 65, 67
2, 79569, Control_c, 0, 64, 127
2, 79650, Note_on_c, 0, 68, 0
2, 79651, Note_on_c, 0, 65, 0
2, 79654, Note_on_c, 0, 56, 0
2, 79656, Note_on_c, 0, 63, 0
2, 79659, Note_on_c, 0, 60, 0
2, 79736, Note_on_c, 0, 63, 79
2, 79737, Note_on_c, 0, 60, 87
2, 79737, Note_on_c, 0, 56, 80
2, 79737, Note_on_c, 0, 67, 84
2, 79738, Note_on_c, 0, 55, 91
2, 79744, Control_c, 0, 64, 0
2, 79836, Note_on_c, 0, 60, 0
2, 79840, Note_on_c, 0, 63, 0
2, 79840, Note_on_c, 0, 56, 0
2, 79841, Note_on_c, 0, 67, 0
2, 79855, Note_on_c, 0, 63, 79
2, 79855, Note_on_c, 0, 56, 71
2, 79856, Note_on_c, 0, 65, 82
2, 79858, Note_on_c, 0, 60, 75
2, 79859, Note_on_c, 0, 53, 82
2, 79866, Note_on_c, 0, 55, 0
2, 79907, Note_on_c, 0, 65, 0
2, 79907, Control_c, 0, 64, 127
2, 79909, Note_on_c, 0, 53, 0
2, 79912, Note_on_c, 0, 60, 0
2, 79914, Note_on_c, 0, 63, 0
2, 79924, Note_on_c, 0, 56, 0
2, 79957, Control_c, 0, 64, 0
2, 79979, Note_on_c, 0, 51, 72
2, 79979, Note_on_c, 0, 56, 80
2, 79979, Note_on_c, 0, 63, 87
2, 79981, Note_on_c, 0, 53, 80
2, 80021, Note_on_c, 0, 53, 0
2, 80025, Note_on_c, 0, 63, 0
2, 80026, Note_on_c, 0, 56, 0
2, 80036, Note_on_c, 0, 51, 0
2, 80040, Note_on_c, 0, 48, 70
2, 80042, Note_on_c, 0, 60, 71
2, 80042, Note_on_c, 0, 56, 41
2, 80043, Note_on_c, 0, 53, 42
2, 80066, Note_on_c, 0, 53, 0
2, 80086, Note_on_c, 0, 60, 0
2, 80088, Note_on_c, 0, 56, 0
2, 80093, Note_on_c, 0, 48, 0
2, 80107, Note_on_c, 0, 41, 37
2, 80114, Note_on_c, 0, 41, 0
2, 80153, Note_on_c, 0, 56, 70
2, 80155, Note_on_c, 0, 51, 66
2, 80155, Note_on_c, 0, 63, 67
2, 80155, Note_on_c, 0, 53, 82
2, 80156, Note_on_c, 0, 60, 69
2, 80239, Note_on_c, 0, 60, 0
2, 80251, Note_on_c, 0, 53, 0
2, 80261, Note_on_c, 0, 56, 0
2, 80272, Note_on_c, 0, 63, 0
2, 80277, Note_on_c, 0, 60, 61
2, 80278, Note_on_c, 0, 48, 69
2, 80278, Note_on_c, 0, 53, 57
2, 80279, Note_on_c, 0, 56, 48
2, 80280, Note_on_c, 0, 51, 0
2, 80331, Note_on_c, 0, 60, 0
2, 80345, Note_on_c, 0, 56, 0
2, 80350, Note_on_c, 0, 53, 0
2, 80370, Note_on_c, 0, 46, 45
2, 80386, Note_on_c, 0, 48, 0
2, 80393, Note_on_c, 0, 53, 78
2, 80393, Note_on_c, 0, 58, 71
2, 80395, Note_on_c, 0, 46, 0
2, 80397, Note_on_c, 0, 62, 61
2, 80397, Note_on_c, 0, 50, 74
2, 80436, Note_on_c, 0, 58, 0
2, 80448, Note_on_c, 0, 53, 0
2, 80462, Note_on_c, 0, 50, 0
2, 80464, Note_on_c, 0, 62, 0
2, 80518, Note_on_c, 0, 53, 65
2, 80519, Note_on_c, 0, 56, 59
2, 80520, Note_on_c, 0, 44, 63
2, 80565, Note_on_c, 0, 53, 0
2, 80567, Note_on_c, 0, 56, 0
2, 80576, Note_on_c, 0, 44, 0
2, 80585, Note_on_c, 0, 46, 75
2, 80585, Note_on_c, 0, 58, 72
2, 80585, Note_on_c, 0, 53, 70
2, 80591, Note_on_c, 0, 56, 51
2, 80601, Note_on_c, 0, 56, 0
2, 80619, Note_on_c, 0, 53, 0
2, 80622, Note_on_c, 0, 58, 0
2, 80622, Note_on_c, 0, 46, 0
2, 80701, Note_on_c, 0, 53, 78
2, 80702, Note_on_c, 0, 58, 66
2, 80702, Note_on_c, 0, 46, 73
2, 80753, Note_on_c, 0, 53, 0
2, 80765, Note_on_c, 0, 58, 0
2, 80767, Note_on_c, 0, 46, 0
2, 80813, Note_on_c, 0, 44, 72
2, 80814, Note_on_c, 0, 56, 59
2, 80819, Note_on_c, 0, 53, 58
2, 80829, Note_on_c, 0, 53, 0
2, 80842, Note_on_c, 0, 56, 0
2, 80860, Note_on_c, 0, 44, 0
2, 80878, Note_on_c, 0, 46, 62
2, 80879, Control_c, 0, 64, 127
2, 80879, Note_on_c, 0, 58, 64
2, 80885, Note_on_c, 0, 58, 0
2, 80885, Note_on_c, 0, 46, 0
2, 80941, Note_on_c, 0, 54, 87
2, 80941, Note_on_c, 0, 80, 83
2, 80942, Control_c, 0, 64, 0
2, 80942, Note_on_c, 0, 68, 94
2, 80942, Note_on_c, 0, 75, 93
2, 80944, Note_on_c, 0, 65, 76
2, 80945, Note_on_c, 0, 60, 77
2, 80945, Note_on_c, 0, 58, 80
2, 80947, Note_on_c, 0, 64, 59
2, 80950, Control_c, 0, 64, 127
2, 80954, Note_on_c, 0, 64, 0
2, 80970, Note_on_c, 0, 65, 0
2, 80972, Note_on_c, 0, 60, 0
2, 80976, Note_on_c, 0, 54, 0
2, 80976, Control_c, 0, 64, 0
2, 80979, Note_on_c, 0, 68, 0
2, 80982, Note_on_c, 0, 80, 0
2, 80984, Note_on_c, 0, 58, 0
2, 80986, Note_on_c, 0, 75, 0
2, 80995, Note_on_c, 0, 81, 80
2, 80997, Note_on_c, 0, 76, 88
2, 80997, Note_on_c, 0, 66, 89
2, 80997, Note_on_c, 0, 58, 53
2, 80999, Note_on_c, 0, 69, 82
2, 81000, Note_on_c, 0, 61, 73
2, 81001, Note_on_c, 0, 55, 64
2, 81002, Note_on_c, 0, 78, 45
2, 81004, Note_on_c, 0, 56, 51
2, 81022, Note_on_c, 0, 78, 0
2, 81026, Note_on_c, 0, 81, 0
2, 81028, Note_on_c, 0, 69, 0
2, 81030, Note_on_c, 0, 55, 0
2, 81033, Note_on_c, 0, 56, 0
2, 81035, Note_on_c, 0, 76, 0
2, 81044, Note_on_c, 0, 58, 0
2, 81046, Note_on_c, 0, 66, 0
2, 81048, Note_on_c, 0, 61, 0
2, 81059, Note_on_c, 0, 82, 91
2, 81059, Note_on_c, 0, 56, 94
2, 81060, Note_on_c, 0, 77, 96
2, 81060, Note_on_c, 0, 62, 81
2, 81060, Note_on_c, 0, 67, 93
2, 81062, Note_on_c, 0, 70, 88
2, 81103, Note_on_c, 0, 82, 0
2, 81105, Note_on_c, 0, 77, 0
2, 81107, Note_on_c, 0, 67, 0
2, 81107, Note_on_c, 0, 70, 0
2, 81108, Note_on_c, 0, 62, 0
2, 81112, Note_on_c, 0, 56, 0
2, 81235, Note_on_c, 0, 63, 55
2, 81236, Note_on_c, 0, 56, 52
2, 81238, Note_on_c, 0, 60, 69
2, 81240, Note_on_c, 0, 55, 53
2, 81274, Note_on_c, 0, 60, 0
2, 81277, Note_on_c, 0, 56, 0
2, 81279, Note_on_c, 0, 63, 0
2, 81282, Note_on_c, 0, 55, 0
2, 81352, Note_on_c, 0, 56, 63
2, 81355, Note_on_c, 0, 63, 59
2, 81357, Note_on_c, 0, 60, 64
2, 81358, Note_on_c, 0, 55, 68
2, 81456, Note_on_c, 0, 56, 0
2, 81469, Note_on_c, 0, 60, 0
2, 81476, Note_on_c, 0, 56, 53
2, 81482, Note_on_c, 0, 55, 0
2, 81483, Note_on_c, 0, 53, 49
2, 81488, Control_c, 0, 64, 127
2, 81491, Note_on_c, 0, 56, 0
2, 81499, Note_on_c, 0, 63, 0
2, 81507, Control_c, 0, 64, 0
2, 81538, Note_on_c, 0, 53, 0
2, 81539, Note_on_c, 0, 56, 59
2, 81541, Note_on_c, 0, 55, 70
2, 81541, Note_on_c, 0, 63, 66
2, 81542, Note_on_c, 0, 60, 72
2, 81652, Note_on_c, 0, 56, 0
2, 81657, Note_on_c, 0, 60, 0
2, 81664, Note_on_c, 0, 63, 0
2, 81664, Note_on_c, 0, 62, 80
2, 81664, Note_on_c, 0, 56, 56
2, 81668, Note_on_c, 0, 55, 0
2, 81669, Note_on_c, 0, 53, 74
2, 81701, Control_c, 0, 64, 127
2, 81713, Note_on_c, 0, 56, 0
2, 81721, Note_on_c, 0, 53, 0
2, 81724, Note_on_c, 0, 62, 0
2, 81821, Control_c, 0, 64, 0
2, 81832, Note_on_c, 0, 80, 98
2, 81833, Note_on_c, 0, 75, 101
2, 81833, Note_on_c, 0, 68, 106
2, 81833, Note_on_c, 0, 54, 96
2, 81834, Note_on_c, 0, 60, 91
2, 81835, Note_on_c, 0, 65, 94
2, 81835, Note_on_c, 0, 58, 79
2, 81872, Note_on_c, 0, 68, 0
2, 81873, Note_on_c, 0, 65, 0
2, 81875, Note_on_c, 0, 75, 0
2, 81878, Note_on_c, 0, 54, 0
2, 81878, Note_on_c, 0, 58, 0
2, 81879, Note_on_c, 0, 60, 0
2, 81880, Note_on_c, 0, 80, 0
2, 81899, Note_on_c, 0, 80, 84
2, 81900, Note_on_c, 0, 68, 93
2, 81900, Note_on_c, 0, 54, 80
2, 81901, Note_on_c, 0, 75, 87
2, 81902, Note_on_c, 0, 60, 71
2, 81902, Note_on_c, 0, 65, 69
2, 81903, Note_on_c, 0, 58, 75
2, 81906, Note_on_c, 0, 78, 47
2, 81916, Note_on_c, 0, 65, 0
2, 81922, Note_on_c, 0, 54, 0
2, 81923, Note_on_c, 0, 60, 0
2, 81925, Note_on_c, 0, 68, 0
2, 81933, Note_on_c, 0, 75, 0
2, 81933, Note_on_c, 0, 80, 0
2, 81933, Note_on_c, 0, 58, 0
2, 81944, Note_on_c, 0, 78, 0
2, 81955, Note_on_c, 0, 66, 84
2, 81955, Note_on_c, 0, 81, 80
2, 81956, Note_on_c, 0, 75, 77
2, 81958, Note_on_c, 0, 61, 67
2, 81958, Note_on_c, 0, 55, 71
2, 81959, Note_on_c, 0, 56, 34
2, 81959, Note_on_c, 0, 69, 75
2, 81979, Note_on_c, 0, 81, 0
2, 81981, Note_on_c, 0, 69, 0
2, 81990, Note_on_c, 0, 55, 0
2, 81991, Note_on_c, 0, 75, 0
2, 81999, Note_on_c, 0, 56, 0
2, 82009, Note_on_c, 0, 66, 0
2, 82013, Note_on_c, 0, 61, 0
2, 82024, Note_on_c, 0, 62, 86
2, 82024, Note_on_c, 0, 56, 89
2, 82024, Note_on_c, 0, 82, 91
2, 82025, Note_on_c, 0, 77, 94
2, 82025, Note_on_c, 0, 70, 88
2, 82025, Note_on_c, 0, 67, 96
2, 82057, Note_on_c, 0, 67, 0
2, 82057, Note_on_c, 0, 82, 0
2, 82058, Note_on_c, 0, 77, 0
2, 82064, Note_on_c, 0, 62, 0
2, 82065, Note_on_c, 0, 70, 0
2, 82073, Note_on_c, 0, 56, 0
2, 82142, Note_on_c, 0, 56, 73
2, 82143, Note_on_c, 0, 63, 71
2, 82143, Note_on_c, 0, 60, 78
2, 82145, Note_on_c, 0, 55, 76
2, 82148, Note_on_c, 0, 53, 44
2, 82155, Note_on_c, 0, 53, 0
2, 82350, Note_on_c, 0, 63, 0
2, 82359, Note_on_c, 0, 60, 0
2, 82360, Note_on_c, 0, 56, 0
2, 82364, Note_on_c, 0, 55, 0
2, 82377, Note_on_c, 0, 56, 83
2, 82378, Note_on_c, 0, 67, 91
2, 82378, Note_on_c, 0, 60, 80
2, 82378, Note_on_c, 0, 55, 81
2, 82380, Note_on_c, 0, 63, 74
2, 82478, Note_on_c, 0, 60, 0
2, 82479, Note_on_c, 0, 55, 0
2, 82481, Note_on_c, 0, 56, 0
2, 82483, Note_on_c, 0, 63, 0
2, 82484, Note_on_c, 0, 67, 0
2, 82492, Note_on_c, 0, 51, 50
2, 82497, Note_on_c, 0, 56, 63
2, 82499, Note_on_c, 0, 65, 80
2, 82500, Note_on_c, 0, 53, 80
2, 82500, Note_on_c, 0, 60, 77
2, 82500, Note_on_c, 0, 63, 71
2, 82510, Note_on_c, 0, 51, 0
2, 82586, Note_on_c, 0, 63, 0
2, 82599, Note_on_c, 0, 60, 0
2, 82600, Note_on_c, 0, 56, 0
2, 82614, Note_on_c, 0, 65, 0
2, 82618, Note_on_c, 0, 56, 77
2, 82619, Note_on_c, 0, 63, 80
2, 82620, Note_on_c, 0, 60, 84
2, 82620, Note_on_c, 0, 51, 84
2, 82625, Note_on_c, 0, 53, 0
2, 82648, Note_on_c, 0, 60, 0
2, 82664, Note_on_c, 0, 56, 0
2, 82679, Note_on_c, 0, 48, 80
2, 82680, Note_on_c, 0, 60, 57
2, 82693, Note_on_c, 0, 51, 0
2, 82697, Note_on_c, 0, 63, 0
2, 82701, Note_on_c, 0, 60, 0
2, 82720, Note_on_c, 0, 48, 0
2, 82733, Control_c, 0, 64, 127
2, 82739, Note_on_c, 0, 46, 72
2, 82751, Note_on_c, 0, 46, 0
2, 82763, Control_c, 0, 64, 0
2, 82797, Note_on_c, 0, 54, 90
2, 82797, Note_on_c, 0, 60, 84
2, 82797, Note_on_c, 0, 75, 89
2, 82797, Note_on_c, 0, 80, 88
2, 82797, Note_on_c, 0, 68, 91
2, 82799, Note_on_c, 0, 65, 74
2, 82802, Note_on_c, 0, 64, 77
2, 82807, Note_on_c, 0, 64, 0
2, 82835, Note_on_c, 0, 65, 0
2, 82837, Note_on_c, 0, 54, 0
2, 82837, Note_on_c, 0, 60, 0
2, 82840, Note_on_c, 0, 75, 0
2, 82842, Note_on_c, 0, 68, 0
2, 82845, Note_on_c, 0, 80, 0
2, 82866, Note_on_c, 0, 75, 87
2, 82867, Note_on_c, 0, 66, 87
2, 82868, Note_on_c, 0, 55, 80
2, 82868, Note_on_c, 0, 81, 89
2, 82870, Note_on_c, 0, 69, 76
2, 82870, Note_on_c, 0, 61, 73
2, 82872, Note_on_c, 0, 78, 55
2, 82906, Note_on_c, 0, 55, 0
2, 82911, Note_on_c, 0, 69, 0
2, 82911, Note_on_c, 0, 78, 0
2, 82913, Note_on_c, 0, 81, 0
2, 82923, Note_on_c, 0, 75, 0
2, 82923, Note_on_c, 0, 66, 0
2, 82928, Note_on_c, 0, 61, 0
2, 82976, Note_on_c, 0, 82, 89
2, 82977, Note_on_c, 0, 67, 89
2, 82978, Note_on_c, 0, 56, 82
2, 82978, Note_on_c, 0, 62, 83
2, 82978, Note_on_c, 0, 77, 89
2, 82978, Note_on_c, 0, 70, 79
2, 83023, Note_on_c, 0, 67, 0
2, 83023, Note_on_c, 0, 82, 0
2, 83026, Note_on_c, 0, 77, 0
2, 83028, Note_on_c, 0, 62, 0
2, 83033, Note_on_c, 0, 70, 0
2, 83040, Note_on_c, 0, 56, 0
2, 83097, Note_on_c, 0, 54, 70
2, 83104, Note_on_c, 0, 55, 94
2, 83104, Note_on_c, 0, 67, 88
2, 83105, Note_on_c, 0, 56, 84
2, 83105, Note_on_c, 0, 60, 91
2, 83106, Note_on_c, 0, 54, 0
2, 83106, Note_on_c, 0, 63, 64
2, 83322, Note_on_c, 0, 60, 0
2, 83323, Note_on_c, 0, 56, 0
2, 83326, Note_on_c, 0, 67, 0
2, 83328, Note_on_c, 0, 63, 0
2, 83334, Note_on_c, 0, 56, 55
2, 83338, Note_on_c, 0, 65, 80
2, 83338, Note_on_c, 0, 53, 73
2, 83339, Note_on_c, 0, 55, 0
2, 83340, Note_on_c, 0, 60, 52
2, 83376, Note_on_c, 0, 60, 0
2, 83382, Note_on_c, 0, 56, 0
2, 83385, Note_on_c, 0, 53, 0
2, 83389, Note_on_c, 0, 65, 0
2, 83392, Note_on_c, 0, 51, 57
2, 83402, Note_on_c, 0, 63, 57
2, 83409, Note_on_c, 0, 60, 38
2, 83423, Note_on_c, 0, 60, 0
2, 83448, Note_on_c, 0, 51, 0
2, 83461, Note_on_c, 0, 56, 50
2, 83462, Note_on_c, 0, 48, 58
2, 83464, Note_on_c, 0, 63, 0
2, 83478, Note_on_c, 0, 56, 0
2, 83504, Note_on_c, 0, 48, 0
2, 83521, Note_on_c, 0, 56, 72
2, 83521, Note_on_c, 0, 60, 82
2, 83522, Note_on_c, 0, 51, 76
2, 83522, Note_on_c, 0, 63, 76
2, 83587, Note_on_c, 0, 60, 0
2, 83612, Note_on_c, 0, 56, 0
2, 83636, Note_on_c, 0, 51, 0
2, 83636, Note_on_c, 0, 48, 50
2, 83636, Note_on_c, 0, 60, 56
2, 83636, Note_on_c, 0, 56, 37
2, 83661, Note_on_c, 0, 60, 0
2, 83663, Note_on_c, 0, 56, 0
2, 83681, Note_on_c, 0, 63, 0
2, 83697, Note_on_c, 0, 56, 70
2, 83701, Note_on_c, 0, 62, 75
2, 83703, Note_on_c, 0, 50, 73
2, 83706, Note_on_c, 0, 48, 0
2, 83792, Note_on_c, 0, 56, 0
2, 83818, Note_on_c, 0, 56, 55
2, 83820, Note_on_c, 0, 58, 70
2, 83822, Note_on_c, 0, 46, 66
2, 83825, Note_on_c, 0, 50, 0
2, 83854, Note_on_c, 0, 56, 0
2, 83855, Note_on_c, 0, 58, 0
2, 83856, Note_on_c, 0, 62, 0
2, 83939, Note_on_c, 0, 56, 99
2, 83940, Note_on_c, 0, 51, 94
2, 83940, Note_on_c, 0, 63, 94
2, 83941, Note_on_c, 0, 60, 87
2, 83942, Note_on_c, 0, 46, 0
2, 84043, Note_on_c, 0, 60, 0
2, 84044, Note_on_c, 0, 56, 0
2, 84060, Note_on_c, 0, 60, 74
2, 84061, Note_on_c, 0, 56, 64
2, 84063, Note_on_c, 0, 48, 80
2, 84086, Note_on_c, 0, 51, 0
2, 84143, Note_on_c, 0, 60, 0
2, 84151, Note_on_c, 0, 56, 0
2, 84160, Note_on_c, 0, 63, 0
2, 84178, Note_on_c, 0, 56, 79
2, 84180, Note_on_c, 0, 58, 79
2, 84181, Note_on_c, 0, 62, 84
2, 84184, Note_on_c, 0, 50, 83
2, 84188, Note_on_c, 0, 48, 0
2, 84273, Note_on_c, 0, 56, 0
2, 84297, Note_on_c, 0, 56, 78
2, 84297, Note_on_c, 0, 46, 71
2, 84308, Note_on_c, 0, 50, 0
2, 84352, Note_on_c, 0, 58, 0
2, 84382, Note_on_c, 0, 56, 0
2, 84386, Note_on_c, 0, 62, 0
2, 84420, Note_on_c, 0, 56, 94
2, 84420, Note_on_c, 0, 51, 77
2, 84422, Note_on_c, 0, 63, 84
2, 84423, Note_on_c, 0, 60, 86
2, 84425, Note_on_c, 0, 46, 0
2, 84429, Note_on_c, 0, 60, 0
2, 84433, Note_on_c, 0, 56, 0
2, 84438, Note_on_c, 0, 63, 0
2, 84440, Note_on_c, 0, 51, 0
2, 84477, Note_on_c, 0, 51, 82
2, 84479, Note_on_c, 0, 56, 89
2, 84479, Note_on_c, 0, 63, 84
2, 84480, Note_on_c, 0, 60, 88
2, 84575, Note_on_c, 0, 56, 0
2, 84588, Note_on_c, 0, 60, 0
2, 84596, Note_on_c, 0, 51, 0
2, 84596, Note_on_c, 0, 56, 51
2, 84596, Note_on_c, 0, 48, 69
2, 84627, Note_on_c, 0, 56, 0
2, 84644, Note_on_c, 0, 63, 0
2, 84657, Note_on_c, 0, 56, 79
2, 84659, Note_on_c, 0, 62, 79
2, 84661, Note_on_c, 0, 50, 83
2, 84668, Note_on_c, 0, 48, 0
2, 84711, Control_c, 0, 64, 127
2, 84731, Note_on_c, 0, 56, 0
2, 84763, Note_on_c, 0, 62, 0
2, 84770, Note_on_c, 0, 50, 0
2, 84775, Note_on_c, 0, 56, 80
2, 84778, Note_on_c, 0, 60, 81
2, 84779, Note_on_c, 0, 46, 60
2, 84779, Control_c, 0, 64, 0
2, 84824, Control_c, 0, 64, 127
2, 84880, Note_on_c, 0, 60, 0
2, 84913, Note_on_c, 0, 56, 0
2, 84951, Control_c, 0, 64, 0
2, 84957, Note_on_c, 0, 46, 0
2, 84957, Note_on_c, 0, 54, 80
2, 84957, Note_on_c, 0, 44, 75
2, 84958, Note_on_c, 0, 59, 85
2, 85137, Note_on_c, 0, 63, 72
2, 85161, Note_on_c, 0, 63, 0
2, 85198, Note_on_c, 0, 63, 76
2, 85248, Note_on_c, 0, 54, 0
2, 85262, Note_on_c, 0, 54, 68
2, 85310, Note_on_c, 0, 44, 0
2, 85310, Control_c, 0, 64, 127
2, 85365, Note_on_c, 0, 54, 0
2, 85380, Note_on_c, 0, 53, 87
2, 85385, Control_c, 0, 64, 0
2, 85388, Note_on_c, 0, 37, 54
2, 85551, Control_c, 0, 64, 127
2, 85573, Note_on_c, 0, 53, 0
2, 85573, Note_on_c, 0, 63, 0
2, 85575, Note_on_c, 0, 59, 0
2, 85592, Control_c, 0, 64, 0
2, 85617, Note_on_c, 0, 53, 71
2, 85620, Note_on_c, 0, 59, 67
2, 85620, Note_on_c, 0, 63, 58
2, 85629, Note_on_c, 0, 53, 0
2, 85631, Note_on_c, 0, 63, 0
2, 85633, Note_on_c, 0, 59, 0
2, 85681, Note_on_c, 0, 59, 77
2, 85681, Note_on_c, 0, 63, 73
2, 85682, Note_on_c, 0, 53, 77
2, 85684, Note_on_c, 0, 48, 52
2, 85691, Note_on_c, 0, 48, 0
2, 85724, Note_on_c, 0, 53, 0
2, 85743, Note_on_c, 0, 48, 71
2, 85794, Note_on_c, 0, 37, 0
2, 85798, Note_on_c, 0, 53, 64
2, 85837, Note_on_c, 0, 53, 0
2, 85842, Note_on_c, 0, 63, 0
2, 85847, Note_on_c, 0, 59, 0
2, 85855, Note_on_c, 0, 37, 67
2, 85895, Note_on_c, 0, 37, 0
2, 85897, Note_on_c, 0, 48, 0
2, 85916, Note_on_c, 0, 53, 100
2, 85917, Note_on_c, 0, 42, 71
2, 85979, Note_on_c, 0, 61, 71
2, 85983, Note_on_c, 0, 58, 63
2, 85998, Note_on_c, 0, 53, 0
2, 86025, Note_on_c, 0, 61, 0
2, 86028, Note_on_c, 0, 58, 0
2, 86041, Note_on_c, 0, 53, 76
2, 86062, Note_on_c, 0, 53, 0
2, 86095, Note_on_c, 0, 42, 0
2, 86098, Note_on_c, 0, 51, 94
2, 86217, Note_on_c, 0, 61, 60
2, 86219, Note_on_c, 0, 58, 55
2, 86239, Note_on_c, 0, 51, 0
2, 86277, Note_on_c, 0, 53, 100
2, 86280, Note_on_c, 0, 61, 0
2, 86325, Note_on_c, 0, 53, 0
2, 86341, Note_on_c, 0, 53, 91
2, 86385, Note_on_c, 0, 58, 0
2, 86455, Note_on_c, 0, 61, 72
2, 86457, Note_on_c, 0, 58, 68
2, 86481, Note_on_c, 0, 53, 0
2, 86517, Note_on_c, 0, 51, 85
2, 86550, Note_on_c, 0, 51, 0
2, 86582, Note_on_c, 0, 51, 94
2, 86608, Note_on_c, 0, 61, 0
2, 86648, Control_c, 0, 64, 127
2, 86660, Note_on_c, 0, 58, 0
2, 86692, Note_on_c, 0, 51, 0
2, 86700, Note_on_c, 0, 58, 82
2, 86701, Note_on_c, 0, 61, 82
2, 86758, Note_on_c, 0, 51, 79
2, 86763, Note_on_c, 0, 51, 0
2, 86768, Note_on_c, 0, 58, 0
2, 86777, Note_on_c, 0, 61, 0
2, 86866, Control_c, 0, 64, 0
2, 86875, Note_on_c, 0, 56, 62
2, 86881, Note_on_c, 0, 56, 0
2, 86938, Control_c, 0, 64, 127
2, 86972, Control_c, 0, 64, 0
2, 86999, Control_c, 0, 64, 127
2, 87054, Note_on_c, 0, 67, 96
2, 87054, Note_on_c, 0, 60, 94
2, 87054, Note_on_c, 0, 64, 97
2, 87055, Note_on_c, 0, 56, 91
2, 87093, Note_on_c, 0, 60, 0
2, 87094, Note_on_c, 0, 64, 0
2, 87094, Control_c, 0, 64, 0
2, 87099, Note_on_c, 0, 67, 0
2, 87100, Note_on_c, 0, 56, 0
2, 87114, Note_on_c, 0, 56, 75
2, 87115, Note_on_c, 0, 67, 80
2, 87116, Note_on_c, 0, 60, 70
2, 87117, Note_on_c, 0, 64, 85
2, 87133, Control_c, 0, 64, 127
2, 87158, Note_on_c, 0, 56, 0
2, 87159, Note_on_c, 0, 64, 0
2, 87159, Note_on_c, 0, 60, 0
2, 87164, Note_on_c, 0, 67, 0
2, 87185, Note_on_c, 0, 56, 82
2, 87185, Note_on_c, 0, 67, 73
2, 87186, Note_on_c, 0, 60, 73
2, 87186, Note_on_c, 0, 64, 84
2, 87215, Note_on_c, 0, 60, 0
2, 87217, Note_on_c, 0, 56, 0
2, 87223, Note_on_c, 0, 64, 0
2, 87228, Note_on_c, 0, 67, 0
2, 87300, Note_on_c, 0, 60, 74
2, 87300, Note_on_c, 0, 61, 74
2, 87300, Note_on_c, 0, 65, 102
2, 87300, Note_on_c, 0, 69, 101
2, 87301, Note_on_c, 0, 72, 100
2, 87301, Control_c, 0, 64, 0
2, 87302, Note_on_c, 0, 55, 77
2, 87327, Control_c, 0, 64, 127
2, 87338, Note_on_c, 0, 65, 0
2, 87340, Note_on_c, 0, 60, 0
2, 87341, Note_on_c, 0, 55, 0
2, 87344, Note_on_c, 0, 61, 0
2, 87344, Note_on_c, 0, 69, 0
2, 87346, Note_on_c, 0, 72, 0
2, 87413, Note_on_c, 0, 61, 83
2, 87414, Note_on_c, 0, 77, 100
2, 87415, Note_on_c, 0, 84, 109
2, 87415, Note_on_c, 0, 55, 93
2, 87416, Note_on_c, 0, 65, 85
2, 87419, Note_on_c, 0, 81, 79
2, 87422, Control_c, 0, 64, 0
2, 87425, Note_on_c, 0, 81, 0
2, 87448, Note_on_c, 0, 65, 0
2, 87451, Note_on_c, 0, 55, 0
2, 87454, Note_on_c, 0, 77, 0
2, 87454, Control_c, 0, 64, 127
2, 87457, Note_on_c, 0, 84, 0
2, 87461, Note_on_c, 0, 61, 0
2, 87467, Note_on_c, 0, 55, 59
2, 87469, Note_on_c, 0, 65, 60
2, 87470, Note_on_c, 0, 61, 62
2, 87470, Note_on_c, 0, 81, 84
2, 87472, Note_on_c, 0, 72, 75
2, 87479, Control_c, 0, 64, 0
2, 87497, Note_on_c, 0, 81, 0
2, 87501, Note_on_c, 0, 65, 0
2, 87502, Note_on_c, 0, 55, 0
2, 87506, Note_on_c, 0, 72, 0
2, 87509, Note_on_c, 0, 61, 0
2, 87589, Note_on_c, 0, 77, 68
2, 87592, Note_on_c, 0, 61, 72
2, 87593, Note_on_c, 0, 65, 67
2, 87593, Note_on_c, 0, 69, 53
2, 87594, Note_on_c, 0, 55, 71
2, 87594, Note_on_c, 0, 72, 70
2, 87620, Note_on_c, 0, 77, 0
2, 87624, Note_on_c, 0, 72, 0
2, 87628, Note_on_c, 0, 65, 0
2, 87629, Note_on_c, 0, 55, 0
2, 87634, Note_on_c, 0, 69, 0
2, 87634, Note_on_c, 0, 61, 0
2, 87712, Note_on_c, 0, 61, 64
2, 87714, Note_on_c, 0, 64, 69
2, 87715, Note_on_c, 0, 55, 68
2, 87715, Note_on_c, 0, 72, 73
2, 87715, Note_on_c, 0, 69, 82
2, 87717, Control_c, 0, 64, 127
2, 87742, Note_on_c, 0, 61, 0
2, 87743, Note_on_c, 0, 55, 0
2, 87747, Note_on_c, 0, 72, 0
2, 87749, Note_on_c, 0, 69, 0
2, 87758, Note_on_c, 0, 64, 0
2, 87831, Note_on_c, 0, 70, 84
2, 87831, Note_on_c, 0, 63, 87
2, 87832, Control_c, 0, 64, 0
2, 87833, Note_on_c, 0, 67, 80
2, 87833, Note_on_c, 0, 58, 90
2, 87834, Note_on_c, 0, 60, 82
2, 87889, Note_on_c, 0, 67, 0
2, 87891, Note_on_c, 0, 60, 0
2, 87892, Note_on_c, 0, 70, 0
2, 87896, Control_c, 0, 64, 127
2, 87901, Note_on_c, 0, 58, 0
2, 87901, Note_on_c, 0, 68, 75
2, 87902, Note_on_c, 0, 56, 73
2, 87905, Note_on_c, 0, 60, 40
2, 87927, Note_on_c, 0, 60, 0
2, 87938, Note_on_c, 0, 63, 0
2, 87941, Note_on_c, 0, 68, 0
2, 87946, Note_on_c, 0, 56, 0
2, 87949, Control_c, 0, 64, 0
2, 87955, Control_c, 0, 64, 127
2, 87960, Note_on_c, 0, 55, 58
2, 87985, Note_on_c, 0, 55, 0
2, 88018, Note_on_c, 0, 63, 60
2, 88018, Note_on_c, 0, 55, 75
2, 88019, Note_on_c, 0, 60, 70
2, 88019, Note_on_c, 0, 67, 63
2, 88023, Note_on_c, 0, 51, 64
2, 88024, Control_c, 0, 64, 0
2, 88065, Control_c, 0, 64, 127
2, 88090, Note_on_c, 0, 63, 0
2, 88102, Note_on_c, 0, 55, 0
2, 88102, Note_on_c, 0, 60, 0
2, 88135, Note_on_c, 0, 67, 0
2, 88141, Note_on_c, 0, 63, 57
2, 88142, Note_on_c, 0, 55, 66
2, 88144, Note_on_c, 0, 44, 56
2, 88146, Note_on_c, 0, 60, 64
2, 88155, Note_on_c, 0, 51, 0
2, 88161, Control_c, 0, 64, 0
2, 88168, Note_on_c, 0, 55, 0
2, 88170, Note_on_c, 0, 60, 0
2, 88186, Note_on_c, 0, 63, 0
2, 88215, Control_c, 0, 64, 127
2, 88256, Control_c, 0, 64, 0
2, 88259, Note_on_c, 0, 68, 93
2, 88261, Note_on_c, 0, 63, 76
2, 88262, Note_on_c, 0, 60, 82
2, 88263, Note_on_c, 0, 55, 82
2, 88282, Note_on_c, 0, 55, 0
2, 88291, Note_on_c, 0, 60, 0
2, 88293, Note_on_c, 0, 68, 0
2, 88295, Note_on_c, 0, 63, 0
2, 88379, Note_on_c, 0, 67, 85
2, 88380, Note_on_c, 0, 56, 72
2, 88380, Note_on_c, 0, 63, 73
2, 88381, Note_on_c, 0, 60, 82
2, 88383, Note_on_c, 0, 53, 80
2, 88425, Note_on_c, 0, 63, 0
2, 88430, Note_on_c, 0, 67, 0
2, 88437, Note_on_c, 0, 53, 0
2, 88438, Note_on_c, 0, 51, 72
2, 88440, Note_on_c, 0, 65, 75
2, 88445, Note_on_c, 0, 44, 0
2, 88447, Note_on_c, 0, 63, 34
2, 88478, Note_on_c, 0, 56, 0
2, 88486, Note_on_c, 0, 60, 0
2, 88493, Note_on_c, 0, 63, 0
2, 88499, Note_on_c, 0, 44, 60
2, 88501, Note_on_c, 0, 65, 0
2, 88503, Note_on_c, 0, 51, 0
2, 88504, Control_c, 0, 64, 127
2, 88540, Control_c, 0, 64, 0
2, 88556, Note_on_c, 0, 56, 58
2, 88558, Note_on_c, 0, 63, 70
2, 88561, Note_on_c, 0, 60, 67
2, 88561, Note_on_c, 0, 53, 64
2, 88611, Note_on_c, 0, 60, 0
2, 88621, Control_c, 0, 64, 127
2, 88646, Note_on_c, 0, 56, 0
2, 88657, Note_on_c, 0, 53, 0
2, 88677, Note_on_c, 0, 51, 50
2, 88678, Note_on_c, 0, 44, 0
2, 88678, Note_on_c, 0, 56, 56
2, 88680, Note_on_c, 0, 60, 67
2, 88715, Note_on_c, 0, 56, 0
2, 88728, Note_on_c, 0, 60, 0
2, 88734, Note_on_c, 0, 63, 0
2, 88734, Note_on_c, 0, 56, 50
2, 88755, Note_on_c, 0, 56, 0
2, 88795, Note_on_c, 0, 54, 115
2, 88797, Note_on_c, 0, 51, 0
2, 88797, Control_c, 0, 64, 0
2, 88799, Note_on_c, 0, 44, 79
2, 88856, Note_on_c, 0, 63, 63
2, 88865, Note_on_c, 0, 59, 51
2, 88878, Note_on_c, 0, 54, 0
2, 88907, Note_on_c, 0, 63, 0
2, 88918, Note_on_c, 0, 59, 0
2, 88922, Note_on_c, 0, 51, 87
2, 88933, Note_on_c, 0, 63, 31
2, 88954, Note_on_c, 0, 51, 0
2, 88970, Note_on_c, 0, 63, 0
2, 88984, Note_on_c, 0, 52, 76
2, 89020, Note_on_c, 0, 52, 0
2, 89045, Note_on_c, 0, 53, 82
2, 89081, Note_on_c, 0, 44, 0
2, 89102, Note_on_c, 0, 44, 63
2, 89121, Note_on_c, 0, 44, 0
2, 89149, Note_on_c, 0, 53, 0
2, 89163, Note_on_c, 0, 53, 57
2, 89206, Note_on_c, 0, 53, 0
2, 89220, Note_on_c, 0, 53, 94
2, 89224, Note_on_c, 0, 37, 70
2, 89342, Note_on_c, 0, 59, 80
2, 89342, Note_on_c, 0, 63, 73
2, 89343, Note_on_c, 0, 44, 53
2, 89363, Note_on_c, 0, 44, 0
2, 89377, Note_on_c, 0, 53, 0
2, 89398, Note_on_c, 0, 59, 0
2, 89407, Note_on_c, 0, 63, 0
2, 89460, Note_on_c, 0, 53, 84
2, 89460, Note_on_c, 0, 44, 53
2, 89483, Note_on_c, 0, 44, 0
2, 89485, Note_on_c, 0, 53, 0
2, 89521, Note_on_c, 0, 53, 83
2, 89523, Note_on_c, 0, 44, 53
2, 89564, Control_c, 0, 64, 127
2, 89629, Note_on_c, 0, 53, 0
2, 89631, Note_on_c, 0, 44, 0
2, 89642, Note_on_c, 0, 63, 68
2, 89643, Note_on_c, 0, 53, 49
2, 89644, Note_on_c, 0, 59, 72
2, 89650, Note_on_c, 0, 44, 35
2, 89658, Note_on_c, 0, 53, 0
2, 89663, Note_on_c, 0, 44, 0
2, 89688, Note_on_c, 0, 63, 0
2, 89694, Note_on_c, 0, 59, 0
2, 89696, Note_on_c, 0, 44, 60
2, 89698, Note_on_c, 0, 53, 69
2, 89712, Note_on_c, 0, 53, 0
2, 89712, Control_c, 0, 64, 0
2, 89742, Note_on_c, 0, 44, 0
2, 89742, Note_on_c, 0, 37, 0
2, 89760, Note_on_c, 0, 61, 101
2, 89760, Note_on_c, 0, 53, 104
2, 89760, Note_on_c, 0, 42, 75
2, 89760, Note_on_c, 0, 58, 92
2, 89791, Note_on_c, 0, 53, 0
2, 89814, Note_on_c, 0, 58, 0
2, 89821, Note_on_c, 0, 50, 79
2, 89823, Note_on_c, 0, 58, 40
2, 89844, Note_on_c, 0, 50, 0
2, 89866, Note_on_c, 0, 61, 0
2, 89870, Note_on_c, 0, 58, 0
2, 89880, Note_on_c, 0, 51, 75
2, 89890, Note_on_c, 0, 61, 34
2, 89905, Note_on_c, 0, 42, 0
2, 89919, Note_on_c, 0, 51, 0
2, 89929, Note_on_c, 0, 61, 0
2, 89943, Note_on_c, 0, 42, 70
2, 89943, Note_on_c, 0, 61, 45
2, 89946, Note_on_c, 0, 52, 48
2, 89946, Note_on_c, 0, 53, 63
2, 89952, Note_on_c, 0, 58, 52
2, 89956, Note_on_c, 0, 52, 0
2, 90007, Note_on_c, 0, 53, 0
2, 90064, Control_c, 0, 64, 127
2, 90066, Note_on_c, 0, 50, 97
2, 90070, Control_c, 0, 64, 0
2, 90085, Note_on_c, 0, 50, 0
2, 90109, Note_on_c, 0, 61, 0
2, 90111, Note_on_c, 0, 42, 0
2, 90121, Note_on_c, 0, 58, 0
2, 90124, Note_on_c, 0, 51, 84
2, 90127, Note_on_c, 0, 61, 69
2, 90128, Note_on_c, 0, 58, 38
2, 90130, Note_on_c, 0, 42, 57
2, 90173, Control_c, 0, 64, 127
2, 90179, Note_on_c, 0, 42, 0
2, 90199, Note_on_c, 0, 51, 0
2, 90214, Note_on_c, 0, 58, 0
2, 90224, Note_on_c, 0, 61, 0
2, 90234, Control_c, 0, 64, 0
2, 90240, Note_on_c, 0, 61, 75
2, 90241, Note_on_c, 0, 54, 91
2, 90241, Note_on_c, 0, 42, 82
2, 90242, Note_on_c, 0, 57, 91
2, 90298, Control_c, 0, 64, 127
2, 90333, Note_on_c, 0, 42, 0
2, 90337, Note_on_c, 0, 57, 0
2, 90345, Note_on_c, 0, 54, 0
2, 90353, Note_on_c, 0, 61, 0
2, 90419, Note_on_c, 0, 66, 92
2, 90421, Note_on_c, 0, 63, 80
2, 90421, Note_on_c, 0, 61, 82
2, 90422, Note_on_c, 0, 57, 88
2, 90423, Note_on_c, 0, 54, 80
2, 90423, Note_on_c, 0, 47, 84
2, 90424, Control_c, 0, 64, 0
2, 90496, Control_c, 0, 64, 127
2, 90508, Note_on_c, 0, 54, 0
2, 90516, Note_on_c, 0, 57, 0
2, 90519, Note_on_c, 0, 61, 0
2, 90522, Note_on_c, 0, 66, 0
2, 90527, Note_on_c, 0, 63, 0
2, 90531, Note_on_c, 0, 47, 0
2, 90542, Note_on_c, 0, 65, 89
2, 90542, Note_on_c, 0, 57, 88
2, 90543, Note_on_c, 0, 61, 80
2, 90543, Note_on_c, 0, 47, 51
2, 90543, Note_on_c, 0, 54, 82
2, 90544, Note_on_c, 0, 63, 56
2, 90581, Note_on_c, 0, 54, 0
2, 90589, Note_on_c, 0, 47, 0
2, 90596, Note_on_c, 0, 63, 0
2, 90598, Note_on_c, 0, 57, 0
2, 90622, Note_on_c, 0, 61, 0
2, 90651, Note_on_c, 0, 65, 0
2, 90663, Note_on_c, 0, 56, 80
2, 90663, Note_on_c, 0, 63, 80
2, 90665, Note_on_c, 0, 60, 84
2, 90665, Control_c, 0, 64, 0
2, 90665, Note_on_c, 0, 41, 76
2, 90666, Note_on_c, 0, 51, 73
2, 90696, Control_c, 0, 64, 127
2, 90697, Note_on_c, 0, 56, 0
2, 90699, Note_on_c, 0, 41, 0
2, 90703, Note_on_c, 0, 60, 0
2, 90708, Note_on_c, 0, 51, 0
2, 90712, Note_on_c, 0, 63, 0
2, 90782, Note_on_c, 0, 75, 76
2, 90782, Note_on_c, 0, 79, 83
2, 90784, Note_on_c, 0, 60, 59
2, 90784, Note_on_c, 0, 67, 79
2, 90786, Note_on_c, 0, 53, 54
2, 90786, Note_on_c, 0, 63, 56
2, 90787, Note_on_c, 0, 56, 59
2, 90807, Control_c, 0, 64, 0
2, 90808, Note_on_c, 0, 67, 0
2, 90811, Note_on_c, 0, 53, 0
2, 90811, Note_on_c, 0, 79, 0
2, 90811, Note_on_c, 0, 63, 0
2, 90814, Note_on_c, 0, 60, 0
2, 90815, Note_on_c, 0, 56, 0
2, 90823, Note_on_c, 0, 75, 0
2, 90835, Note_on_c, 0, 63, 69
2, 90837, Note_on_c, 0, 80, 75
2, 90837, Note_on_c, 0, 75, 58
2, 90837, Note_on_c, 0, 60, 52
2, 90840, Note_on_c, 0, 56, 50
2, 90842, Note_on_c, 0, 68, 50
2, 90847, Note_on_c, 0, 68, 0
2, 90849, Note_on_c, 0, 63, 0
2, 90851, Note_on_c, 0, 60, 0
2, 90854, Note_on_c, 0, 80, 0
2, 90854, Note_on_c, 0, 75, 0
2, 90858, Note_on_c, 0, 56, 0
2, 90899, Note_on_c, 0, 82, 79
2, 90900, Note_on_c, 0, 75, 71
2, 90901, Note_on_c, 0, 70, 62
2, 90902, Note_on_c, 0, 63, 56
2, 90902, Note_on_c, 0, 60, 58
2, 90903, Note_on_c, 0, 56, 60
2, 90903, Note_on_c, 0, 53, 56
2, 90904, Note_on_c, 0, 77, 68
2, 90956, Control_c, 0, 64, 127
2, 91033, Note_on_c, 0, 82, 0
2, 91041, Note_on_c, 0, 77, 0
2, 91042, Note_on_c, 0, 63, 0
2, 91045, Note_on_c, 0, 60, 0
2, 91047, Note_on_c, 0, 75, 0
2, 91047, Note_on_c, 0, 70, 0
2, 91049, Note_on_c, 0, 53, 0
2, 91062, Note_on_c, 0, 56, 0
2, 91134, Control_c, 0, 64, 0
2, 91136, Note_on_c, 0, 66, 68
2, 91136, Note_on_c, 0, 74, 78
2, 91137, Note_on_c, 0, 70, 70
2, 91137, Note_on_c, 0, 62, 67
2, 91138, Note_on_c, 0, 56, 74
2, 91141, Note_on_c, 0, 46, 62
2, 91147, Note_on_c, 0, 62, 0
2, 91148, Note_on_c, 0, 66, 0
2, 91151, Note_on_c, 0, 70, 0
2, 91151, Note_on_c, 0, 74, 0
2, 91151, Note_on_c, 0, 46, 0
2, 91152, Note_on_c, 0, 56, 0
2, 91196, Note_on_c, 0, 70, 63
2, 91196, Note_on_c, 0, 66, 60
2, 91196, Note_on_c, 0, 74, 82
2, 91198, Note_on_c, 0, 56, 75
2, 91198, Note_on_c, 0, 62, 69
2, 91199, Note_on_c, 0, 46, 69
2, 91255, Control_c, 0, 64, 127
2, 91319, Note_on_c, 0, 56, 0
2, 91321, Note_on_c, 0, 70, 0
2, 91326, Note_on_c, 0, 62, 0
2, 91326, Note_on_c, 0, 46, 0
2, 91327, Note_on_c, 0, 66, 0
2, 91332, Note_on_c, 0, 74, 0
2, 91377, Note_on_c, 0, 62, 65
2, 91378, Note_on_c, 0, 66, 73
2, 91379, Note_on_c, 0, 56, 66
2, 91380, Note_on_c, 0, 46, 58
2, 91383, Control_c, 0, 64, 0
2, 91414, Control_c, 0, 64, 127
2, 91485, Note_on_c, 0, 62, 0
2, 91509, Note_on_c, 0, 56, 0
2, 91526, Note_on_c, 0, 66, 0
2, 91572, Note_on_c, 0, 46, 0
2, 91617, Note_on_c, 0, 65, 96
2, 91617, Note_on_c, 0, 58, 93
2, 91617, Note_on_c, 0, 54, 95
2, 91618, Note_on_c, 0, 61, 89
2, 91619, Note_on_c, 0, 53, 105
2, 91628, Control_c, 0, 64, 0
2, 91655, Note_on_c, 0, 65, 0
2, 91661, Note_on_c, 0, 54, 0
2, 91663, Note_on_c, 0, 58, 0
2, 91665, Note_on_c, 0, 53, 0
2, 91667, Note_on_c, 0, 61, 0
2, 91679, Note_on_c, 0, 58, 70
2, 91679, Note_on_c, 0, 54, 78
2, 91679, Note_on_c, 0, 61, 76
2, 91679, Note_on_c, 0, 65, 83
2, 91679, Note_on_c, 0, 53, 83
2, 91771, Note_on_c, 0, 58, 0
2, 91772, Note_on_c, 0, 54, 0
2, 91777, Note_on_c, 0, 61, 0
2, 91778, Note_on_c, 0, 65, 0
2, 91797, Note_on_c, 0, 58, 69
2, 91797, Note_on_c, 0, 63, 74
2, 91797, Note_on_c, 0, 54, 63
2, 91799, Note_on_c, 0, 51, 71
2, 91802, Note_on_c, 0, 53, 0
2, 91804, Note_on_c, 0, 61, 46
2, 91870, Note_on_c, 0, 61, 0
2, 91883, Note_on_c, 0, 54, 0
2, 91898, Note_on_c, 0, 58, 0
2, 91902, Note_on_c, 0, 49, 37
2, 91903, Note_on_c, 0, 63, 0
2, 91906, Note_on_c, 0, 51, 0
2, 91911, Note_on_c, 0, 49, 0
2, 91916, Note_on_c, 0, 58, 45
2, 91918, Note_on_c, 0, 50, 74
2, 91918, Note_on_c, 0, 54, 58
2, 91920, Note_on_c, 0, 62, 56
2, 91953, Control_c, 0, 64, 127
2, 91958, Note_on_c, 0, 54, 0
2, 91958, Note_on_c, 0, 58, 0
2, 91959, Note_on_c, 0, 62, 0
2, 91985, Note_on_c, 0, 50, 0
2, 91986, Note_on_c, 0, 54, 70
2, 91987, Note_on_c, 0, 58, 72
2, 91987, Note_on_c, 0, 51, 77
2, 91987, Note_on_c, 0, 63, 73
2, 92012, Note_on_c, 0, 51, 0
2, 92013, Note_on_c, 0, 54, 0
2, 92016, Note_on_c, 0, 58, 0
2, 92020, Note_on_c, 0, 63, 0
2, 92097, Note_on_c, 0, 68, 103
2, 92098, Note_on_c, 0, 42, 79
2, 92098, Note_on_c, 0, 61, 101
2, 92099, Note_on_c, 0, 57, 100
2, 92102, Note_on_c, 0, 52, 89
2, 92102, Control_c, 0, 64, 0
2, 92133, Control_c, 0, 64, 127
2, 92196, Note_on_c, 0, 52, 0
2, 92198, Note_on_c, 0, 57, 0
2, 92203, Note_on_c, 0, 68, 0
2, 92205, Note_on_c, 0, 61, 0
2, 92216, Note_on_c, 0, 66, 90
2, 92217, Note_on_c, 0, 57, 83
2, 92217, Note_on_c, 0, 61, 87
2, 92220, Note_on_c, 0, 52, 77
2, 92228, Control_c, 0, 64, 0
2, 92244, Note_on_c, 0, 42, 0
2, 92249, Control_c, 0, 64, 127
2, 92284, Note_on_c, 0, 66, 0
2, 92287, Note_on_c, 0, 57, 0
2, 92288, Note_on_c, 0, 61, 0
2, 92289, Note_on_c, 0, 52, 0
2, 92338, Note_on_c, 0, 47, 86
2, 92338, Note_on_c, 0, 65, 89
2, 92339, Control_c, 0, 64, 0
2, 92339, Note_on_c, 0, 54, 77
2, 92339, Note_on_c, 0, 61, 85
2, 92340, Note_on_c, 0, 57, 90
2, 92386, Control_c, 0, 64, 127
2, 92414, Note_on_c, 0, 54, 0
2, 92414, Note_on_c, 0, 47, 0
2, 92420, Note_on_c, 0, 57, 0
2, 92421, Note_on_c, 0, 61, 0
2, 92431, Note_on_c, 0, 65, 0
2, 92463, Control_c, 0, 64, 0
2, 92463, Note_on_c, 0, 61, 89
2, 92463, Note_on_c, 0, 57, 88
2, 92464, Note_on_c, 0, 63, 81
2, 92465, Note_on_c, 0, 54, 75
2, 92465, Note_on_c, 0, 47, 80
2, 92500, Control_c, 0, 64, 127
2, 92518, Note_on_c, 0, 47, 0
2, 92522, Note_on_c, 0, 57, 0
2, 92544, Note_on_c, 0, 54, 0
2, 92561, Note_on_c, 0, 61, 0
2, 92571, Note_on_c, 0, 63, 0
2, 92581, Note_on_c, 0, 56, 94
2, 92581, Note_on_c, 0, 60, 100
2, 92582, Note_on_c, 0, 53, 93
2, 92583, Note_on_c, 0, 46, 82
2, 92589, Control_c, 0, 64, 0
2, 92622, Control_c, 0, 64, 127
2, 92634, Note_on_c, 0, 56, 0
2, 92641, Note_on_c, 0, 60, 0
2, 92642, Note_on_c, 0, 53, 0
2, 92642, Note_on_c, 0, 46, 0
2, 92922, Control_c, 0, 64, 0
2, 92939, Note_on_c, 0, 80, 89
2, 92939, Note_on_c, 0, 92, 94
2, 92939, Note_on_c, 0, 87, 92
2, 92941, Note_on_c, 0, 60, 85
2, 92941, Note_on_c, 0, 54, 88
2, 92942, Note_on_c, 0, 58, 80
2, 92942, Note_on_c, 0, 65, 89
2, 92968, Note_on_c, 0, 65, 0
2, 92971, Note_on_c, 0, 60, 0
2, 92974, Note_on_c, 0, 54, 0
2, 92974, Note_on_c, 0, 87, 0
2, 92978, Note_on_c, 0, 80, 0
2, 92980, Note_on_c, 0, 92, 0
2, 92981, Note_on_c, 0, 58, 0
2, 92997, Note_on_c, 0, 87, 80
2, 92999, Note_on_c, 0, 66, 84
2, 93000, Note_on_c, 0, 81, 81
2, 93000, Note_on_c, 0, 93, 87
2, 93001, Note_on_c, 0, 61, 76
2, 93002, Note_on_c, 0, 58, 51
2, 93003, Note_on_c, 0, 90, 55
2, 93003, Note_on_c, 0, 55, 62
2, 93017, Note_on_c, 0, 90, 0
2, 93026, Note_on_c, 0, 93, 0
2, 93029, Note_on_c, 0, 81, 0
2, 93031, Note_on_c, 0, 55, 0
2, 93040, Note_on_c, 0, 87, 0
2, 93043, Note_on_c, 0, 58, 0
2, 93043, Note_on_c, 0, 61, 0
2, 93044, Note_on_c, 0, 66, 0
2, 93061, Note_on_c, 0, 63, 67
2, 93062, Note_on_c, 0, 56, 69
2, 93063, Note_on_c, 0, 67, 74
2, 93064, Note_on_c, 0, 89, 91
2, 93064, Note_on_c, 0, 82, 80
2, 93064, Note_on_c, 0, 94, 87
2, 93064, Note_on_c, 0, 60, 74
2, 93132, Note_on_c, 0, 67, 0
2, 93139, Note_on_c, 0, 63, 0
2, 93139, Note_on_c, 0, 60, 0
2, 93142, Note_on_c, 0, 89, 0
2, 93145, Note_on_c, 0, 56, 0
2, 93145, Note_on_c, 0, 94, 0
2, 93150, Note_on_c, 0, 82, 0
2, 93182, Note_on_c, 0, 61, 70
2, 93182, Note_on_c, 0, 92, 79
2, 93184, Note_on_c, 0, 58, 67
2, 93184, Note_on_c, 0, 65, 83
2, 93184, Note_on_c, 0, 80, 62
2, 93184, Note_on_c, 0, 87, 87
2, 93185, Note_on_c, 0, 54, 76
2, 93197, Note_on_c, 0, 60, 46
2, 93228, Note_on_c, 0, 60, 0
2, 93230, Note_on_c, 0, 80, 0
2, 93231, Note_on_c, 0, 61, 0
2, 93232, Note_on_c, 0, 92, 0
2, 93232, Note_on_c, 0, 65, 0
2, 93232, Note_on_c, 0, 87, 0
2, 93234, Note_on_c, 0, 58, 0
2, 93238, Note_on_c, 0, 54, 0
2, 93298, Note_on_c, 0, 92, 89
2, 93298, Note_on_c, 0, 87, 87
2, 93299, Note_on_c, 0, 58, 70
2, 93300, Note_on_c, 0, 54, 77
2, 93300, Note_on_c, 0, 65, 86
2, 93300, Note_on_c, 0, 60, 76
2, 93300, Note_on_c, 0, 80, 72
2, 93334, Note_on_c, 0, 60, 0
2, 93340, Note_on_c, 0, 54, 0
2, 93340, Note_on_c, 0, 65, 0
2, 93345, Note_on_c, 0, 58, 0
2, 93346, Note_on_c, 0, 80, 0
2, 93346, Note_on_c, 0, 87, 0
2, 93352, Note_on_c, 0, 92, 0
2, 93412, Note_on_c, 0, 61, 84
2, 93413, Note_on_c, 0, 66, 89
2, 93415, Note_on_c, 0, 55, 85
2, 93415, Note_on_c, 0, 87, 87
2, 93415, Note_on_c, 0, 93, 87
2, 93418, Note_on_c, 0, 81, 82
2, 93439, Note_on_c, 0, 55, 0
2, 93440, Note_on_c, 0, 81, 0
2, 93441, Note_on_c, 0, 93, 0
2, 93451, Note_on_c, 0, 61, 0
2, 93452, Note_on_c, 0, 87, 0
2, 93454, Note_on_c, 0, 66, 0
2, 93539, Note_on_c, 0, 63, 79
2, 93540, Note_on_c, 0, 82, 96
2, 93540, Note_on_c, 0, 94, 97
2, 93541, Note_on_c, 0, 67, 97
2, 93542, Note_on_c, 0, 56, 83
2, 93542, Note_on_c, 0, 89, 91
2, 93542, Note_on_c, 0, 60, 84
2, 93577, Note_on_c, 0, 82, 0
2, 93578, Note_on_c, 0, 94, 0
2, 93580, Note_on_c, 0, 89, 0
2, 93582, Note_on_c, 0, 56, 0
2, 93583, Note_on_c, 0, 67, 0
2, 93585, Note_on_c, 0, 60, 0
2, 93587, Note_on_c, 0, 63, 0
2, 93603, Note_on_c, 0, 63, 65
2, 93603, Note_on_c, 0, 94, 81
2, 93604, Note_on_c, 0, 82, 72
2, 93604, Note_on_c, 0, 67, 84
2, 93605, Note_on_c, 0, 60, 72
2, 93606, Note_on_c, 0, 89, 94
2, 93606, Note_on_c, 0, 56, 77
2, 93719, Control_c, 0, 64, 127
2, 93740, Note_on_c, 0, 56, 0
2, 93741, Note_on_c, 0, 60, 0
2, 93744, Note_on_c, 0, 67, 0
2, 93747, Note_on_c, 0, 82, 0
2, 93747, Note_on_c, 0, 94, 0
2, 93747, Note_on_c, 0, 89, 0
2, 93748, Note_on_c, 0, 63, 0
2, 93775, Note_on_c, 0, 94, 91
2, 93777, Note_on_c, 0, 63, 82
2, 93777, Note_on_c, 0, 56, 82
2, 93777, Note_on_c, 0, 82, 84
2, 93777, Note_on_c, 0, 89, 95
2, 93779, Note_on_c, 0, 60, 77
2, 93779, Note_on_c, 0, 67, 85
2, 93784, Control_c, 0, 64, 0
2, 93814, Control_c, 0, 64, 127
2, 93828, Note_on_c, 0, 94, 0
2, 93838, Note_on_c, 0, 89, 0
2, 93854, Note_on_c, 0, 82, 0
2, 93866, Note_on_c, 0, 67, 0
2, 93872, Note_on_c, 0, 60, 0
2, 93876, Note_on_c, 0, 63, 0
2, 93880, Note_on_c, 0, 56, 0
2, 94264, Note_on_c, 0, 48, 53
2, 94272, Note_on_c, 0, 48, 0
2, 94277, Control_c, 0, 64, 0
2, 94315, Note_on_c, 0, 63, 83
2, 94315, Note_on_c, 0, 51, 79
2, 94315, Note_on_c, 0, 56, 91
2, 94319, Note_on_c, 0, 60, 67
2, 94360, Note_on_c, 0, 63, 0
2, 94369, Note_on_c, 0, 60, 0
2, 94370, Note_on_c, 0, 56, 0
2, 94376, Note_on_c, 0, 51, 0
2, 94385, Note_on_c, 0, 48, 54
2, 94394, Note_on_c, 0, 48, 0
2, 94437, Note_on_c, 0, 51, 66
2, 94438, Note_on_c, 0, 56, 75
2, 94439, Note_on_c, 0, 63, 75
2, 94441, Note_on_c, 0, 60, 69
2, 94471, Note_on_c, 0, 63, 0
2, 94474, Note_on_c, 0, 56, 0
2, 94475, Note_on_c, 0, 60, 0
2, 94488, Note_on_c, 0, 51, 0
2, 94505, Note_on_c, 0, 48, 47
2, 94543, Note_on_c, 0, 48, 0
2, 94556, Note_on_c, 0, 51, 70
2, 94558, Note_on_c, 0, 63, 67
2, 94558, Note_on_c, 0, 56, 68
2, 94559, Note_on_c, 0, 60, 69
2, 94598, Note_on_c, 0, 51, 0
2, 94599, Note_on_c, 0, 63, 0
2, 94600, Note_on_c, 0, 60, 0
2, 94604, Note_on_c, 0, 56, 0
2, 94620, Note_on_c, 0, 56, 54
2, 94621, Note_on_c, 0, 53, 63
2, 94622, Note_on_c, 0, 60, 59
2, 94623, Note_on_c, 0, 65, 78
2, 94653, Note_on_c, 0, 65, 0
2, 94662, Note_on_c, 0, 56, 0
2, 94663, Note_on_c, 0, 60, 0
2, 94667, Note_on_c, 0, 53, 0
2, 94678, Note_on_c, 0, 56, 38
2, 94678, Note_on_c, 0, 63, 47
2, 94681, Note_on_c, 0, 51, 56
2, 94714, Note_on_c, 0, 56, 0
2, 94715, Note_on_c, 0, 63, 0
2, 94737, Note_on_c, 0, 51, 0
2, 94738, Note_on_c, 0, 58, 68
2, 94740, Note_on_c, 0, 62, 67
2, 94741, Note_on_c, 0, 56, 54
2, 94742, Note_on_c, 0, 50, 66
2, 94798, Note_on_c, 0, 56, 0
2, 94805, Note_on_c, 0, 58, 0
2, 94842, Note_on_c, 0, 62, 0
2, 94859, Note_on_c, 0, 58, 67
2, 94861, Note_on_c, 0, 53, 72
2, 94863, Note_on_c, 0, 50, 0
2, 94863, Note_on_c, 0, 46, 54
2, 94897, Note_on_c, 0, 46, 0
2, 94898, Note_on_c, 0, 53, 0
2, 94908, Note_on_c, 0, 58, 0
2, 94973, Note_on_c, 0, 56, 98
2, 94975, Note_on_c, 0, 63, 99
2, 94976, Note_on_c, 0, 60, 96
2, 94976, Note_on_c, 0, 51, 98
2, 95074, Note_on_c, 0, 60, 0
2, 95082, Note_on_c, 0, 56, 0
2, 95098, Note_on_c, 0, 56, 55
2, 95099, Note_on_c, 0, 60, 71
2, 95100, Note_on_c, 0, 48, 80
2, 95124, Note_on_c, 0, 51, 0
2, 95171, Note_on_c, 0, 60, 0
2, 95175, Note_on_c, 0, 63, 0
2, 95187, Note_on_c, 0, 56, 0
2, 95209, Note_on_c, 0, 46, 52
2, 95217, Note_on_c, 0, 56, 87
2, 95219, Note_on_c, 0, 62, 88
2, 95220, Note_on_c, 0, 50, 88
2, 95226, Note_on_c, 0, 48, 0
2, 95234, Note_on_c, 0, 46, 0
2, 95292, Note_on_c, 0, 56, 0
2, 95341, Note_on_c, 0, 46, 71
2, 95343, Note_on_c, 0, 55, 73
2, 95344, Note_on_c, 0, 58, 60
2, 95345, Note_on_c, 0, 62, 0
2, 95349, Note_on_c, 0, 50, 0
2, 95352, Note_on_c, 0, 55, 0
2, 95360, Note_on_c, 0, 58, 0
2, 95377, Note_on_c, 0, 46, 0
2, 95401, Note_on_c, 0, 41, 56
2, 95410, Note_on_c, 0, 41, 0
2, 95461, Note_on_c, 0, 63, 96
2, 95461, Note_on_c, 0, 56, 98
2, 95462, Note_on_c, 0, 60, 94
2, 95463, Note_on_c, 0, 51, 101
2, 95567, Note_on_c, 0, 60, 0
2, 95571, Note_on_c, 0, 56, 0
2, 95586, Note_on_c, 0, 56, 65
2, 95587, Note_on_c, 0, 60, 67
2, 95588, Note_on_c, 0, 48, 82
2, 95598, Note_on_c, 0, 51, 0
2, 95660, Note_on_c, 0, 60, 0
2, 95672, Note_on_c, 0, 56, 0
2, 95681, Note_on_c, 0, 63, 0
2, 95687, Note_on_c, 0, 46, 58
2, 95700, Note_on_c, 0, 56, 78
2, 95701, Note_on_c, 0, 62, 86
2, 95702, Note_on_c, 0, 58, 77
2, 95703, Note_on_c, 0, 50, 94
2, 95708, Note_on_c, 0, 48, 0
2, 95713, Note_on_c, 0, 46, 0
2, 95800, Note_on_c, 0, 56, 0
2, 95822, Note_on_c, 0, 56, 64
2, 95824, Note_on_c, 0, 41, 64
2, 95830, Note_on_c, 0, 58, 0
2, 95831, Note_on_c, 0, 50, 0
2, 95836, Note_on_c, 0, 56, 0
2, 95849, Note_on_c, 0, 62, 0
2, 95866, Note_on_c, 0, 41, 0
2, 95876, Note_on_c, 0, 56, 89
2, 95877, Note_on_c, 0, 51, 91
2, 95878, Note_on_c, 0, 63, 82
2, 95879, Note_on_c, 0, 60, 88
2, 95897, Note_on_c, 0, 56, 0
2, 95902, Note_on_c, 0, 60, 0
2, 95908, Note_on_c, 0, 51, 0
2, 95911, Note_on_c, 0, 63, 0
2, 95940, Note_on_c, 0, 51, 87
2, 95940, Note_on_c, 0, 56, 75
2, 95941, Note_on_c, 0, 60, 85
2, 95941, Note_on_c, 0, 63, 79
2, 96043, Note_on_c, 0, 56, 0
2, 96051, Note_on_c, 0, 60, 0
2, 96057, Note_on_c, 0, 63, 0
2, 96057, Note_on_c, 0, 56, 70
2, 96059, Note_on_c, 0, 62, 80
2, 96061, Note_on_c, 0, 48, 82
2, 96073, Note_on_c, 0, 51, 0
2, 96155, Note_on_c, 0, 56, 0
2, 96155, Note_on_c, 0, 62, 0
2, 96156, Note_on_c, 0, 48, 0
2, 96178, Note_on_c, 0, 56, 77
2, 96179, Note_on_c, 0, 62, 82
2, 96182, Note_on_c, 0, 48, 84
2, 96263, Control_c, 0, 64, 127
2, 96282, Note_on_c, 0, 56, 0
2, 96299, Note_on_c, 0, 41, 69
2, 96326, Note_on_c, 0, 41, 0
2, 96360, Note_on_c, 0, 62, 0
2, 96414, Note_on_c, 0, 48, 0
2, 96417, Note_on_c, 0, 41, 58
2, 96421, Control_c, 0, 64, 0
2, 96437, Note_on_c, 0, 41, 0
2, 96473, Note_on_c, 0, 58, 85
2, 96477, Note_on_c, 0, 46, 70
2, 96492, Note_on_c, 0, 58, 0
2, 96495, Note_on_c, 0, 46, 0
2, 96592, Note_on_c, 0, 62, 80
2, 96594, Note_on_c, 0, 50, 71
2, 96616, Note_on_c, 0, 50, 0
2, 96616, Note_on_c, 0, 62, 0
2, 96713, Note_on_c, 0, 53, 66
2, 96714, Note_on_c, 0, 41, 68
2, 96757, Note_on_c, 0, 53, 0
2, 96760, Note_on_c, 0, 41, 0
2, 96779, Note_on_c, 0, 56, 62
2, 96781, Note_on_c, 0, 44, 62
2, 96826, Note_on_c, 0, 44, 0
2, 96852, Note_on_c, 0, 56, 0
2, 96905, Note_on_c, 0, 58, 84
2, 96906, Note_on_c, 0, 46, 84
2, 96943, Note_on_c, 0, 46, 0
2, 96951, Note_on_c, 0, 58, 0
2, 97023, Note_on_c, 0, 62, 94
2, 97025, Note_on_c, 0, 50, 89
2, 97073, Note_on_c, 0, 50, 0
2, 97075, Note_on_c, 0, 62, 0
2, 97137, Note_on_c, 0, 53, 95
2, 97137, Note_on_c, 0, 41, 91
2, 97179, Note_on_c, 0, 53, 0
2, 97180, Note_on_c, 0, 41, 0
2, 97193, Note_on_c, 0, 41, 75
2, 97193, Note_on_c, 0, 53, 84
2, 97304, Note_on_c, 0, 53, 0
2, 97309, Note_on_c, 0, 41, 0
2, 97312, Note_on_c, 0, 44, 67
2, 97314, Note_on_c, 0, 56, 66
2, 97360, Note_on_c, 0, 56, 0
2, 97361, Note_on_c, 0, 44, 0
2, 97377, Note_on_c, 0, 41, 60
2, 97382, Note_on_c, 0, 53, 45
2, 97389, Note_on_c, 0, 53, 0
2, 97401, Note_on_c, 0, 41, 0
2, 97435, Note_on_c, 0, 58, 75
2, 97436, Note_on_c, 0, 46, 75
2, 97474, Note_on_c, 0, 46, 0
2, 97492, Note_on_c, 0, 58, 0
2, 97561, Note_on_c, 0, 62, 82
2, 97562, Note_on_c, 0, 50, 78
2, 97608, Note_on_c, 0, 50, 0
2, 97608, Note_on_c, 0, 62, 0
2, 97695, Note_on_c, 0, 53, 69
2, 97695, Note_on_c, 0, 41, 66
2, 97727, Note_on_c, 0, 41, 0
2, 97730, Note_on_c, 0, 53, 0
2, 97739, Note_on_c, 0, 44, 70
2, 97742, Note_on_c, 0, 56, 66
2, 97790, Note_on_c, 0, 44, 0
2, 97799, Note_on_c, 0, 56, 0
2, 97859, Note_on_c, 0, 46, 84
2, 97859, Note_on_c, 0, 58, 89
2, 97902, Note_on_c, 0, 46, 0
2, 97906, Note_on_c, 0, 58, 0
2, 97982, Note_on_c, 0, 62, 99
2, 97983, Note_on_c, 0, 50, 93
2, 98026, Note_on_c, 0, 50, 0
2, 98030, Note_on_c, 0, 62, 0
2, 98096, Note_on_c, 0, 41, 89
2, 98099, Note_on_c, 0, 53, 100
2, 98138, Note_on_c, 0, 41, 0
2, 98145, Note_on_c, 0, 53, 0
2, 98159, Note_on_c, 0, 53, 93
2, 98160, Note_on_c, 0, 41, 89
2, 98235, Note_on_c, 0, 41, 0
2, 98264, Note_on_c, 0, 53, 0
2, 98276, Note_on_c, 0, 44, 97
2, 98278, Note_on_c, 0, 56, 90
2, 98324, Note_on_c, 0, 56, 0
2, 98334, Note_on_c, 0, 32, 76
2, 98351, Note_on_c, 0, 32, 0
2, 98357, Note_on_c, 0, 44, 0
2, 98395, Note_on_c, 0, 34, 78
2, 98395, Note_on_c, 0, 58, 87
2, 98395, Note_on_c, 0, 46, 76
2, 98422, Note_on_c, 0, 34, 0
2, 98426, Note_on_c, 0, 58, 0
2, 98429, Note_on_c, 0, 46, 0
2, 98513, Note_on_c, 0, 50, 78
2, 98514, Note_on_c, 0, 62, 90
2, 98543, Note_on_c, 0, 62, 0
2, 98549, Note_on_c, 0, 50, 0
2, 98695, Note_on_c, 0, 53, 88
2, 98695, Note_on_c, 0, 41, 80
2, 98737, Note_on_c, 0, 53, 0
2, 98742, Note_on_c, 0, 41, 0
2, 98756, Note_on_c, 0, 44, 63
2, 98758, Note_on_c, 0, 56, 48
2, 98809, Note_on_c, 0, 56, 0
2, 98817, Note_on_c, 0, 58, 87
2, 98817, Note_on_c, 0, 46, 81
2, 98819, Note_on_c, 0, 44, 0
2, 98881, Note_on_c, 0, 46, 0
2, 98882, Note_on_c, 0, 58, 0
2, 98940, Note_on_c, 0, 62, 104
2, 98941, Note_on_c, 0, 50, 97
2, 99001, Note_on_c, 0, 50, 0
2, 99004, Note_on_c, 0, 62, 0
2, 99056, Note_on_c, 0, 53, 100
2, 99056, Note_on_c, 0, 41, 94
2, 99101, Note_on_c, 0, 41, 0
2, 99103, Note_on_c, 0, 53, 0
2, 99115, Note_on_c, 0, 53, 93
2, 99117, Note_on_c, 0, 41, 80
2, 99227, Note_on_c, 0, 53, 0
2, 99232, Note_on_c, 0, 41, 0
2, 99237, Note_on_c, 0, 44, 77
2, 99237, Note_on_c, 0, 56, 87
2, 99288, Note_on_c, 0, 44, 0
2, 99289, Note_on_c, 0, 56, 0
2, 99298, Note_on_c, 0, 41, 71
2, 99320, Note_on_c, 0, 41, 0
2, 99357, Note_on_c, 0, 46, 82
2, 99357, Note_on_c, 0, 58, 88
2, 99384, Note_on_c, 0, 46, 0
2, 99388, Note_on_c, 0, 58, 0
2, 99477, Note_on_c, 0, 62, 99
2, 99478, Note_on_c, 0, 50, 86
2, 99518, Note_on_c, 0, 50, 0
2, 99534, Note_on_c, 0, 62, 0
2, 99595, Note_on_c, 0, 41, 77
2, 99595, Note_on_c, 0, 53, 83
2, 99653, Note_on_c, 0, 53, 0
2, 99653, Note_on_c, 0, 41, 0
2, 99658, Note_on_c, 0, 44, 71
2, 99662, Note_on_c, 0, 56, 67
2, 99729, Note_on_c, 0, 56, 0
2, 99753, Note_on_c, 0, 44, 0
2, 99779, Note_on_c, 0, 46, 82
2, 99779, Note_on_c, 0, 58, 90
2, 99839, Note_on_c, 0, 58, 0
2, 99902, Note_on_c, 0, 62, 104
2, 99902, Note_on_c, 0, 50, 95
2, 99912, Note_on_c, 0, 46, 0
2, 99926, Note_on_c, 0, 62, 0
2, 99933, Note_on_c, 0, 50, 0
2, 99950, Note_on_c, 0, 50, 34
2, 100017, Note_on_c, 0, 50, 0
2, 100017, Note_on_c, 0, 53, 107
2, 100020, Note_on_c, 0, 41, 91
2, 100142, Note_on_c, 0, 56, 96
2, 100143, Note_on_c, 0, 41, 0
2, 100144, Note_on_c, 0, 46, 77
2, 100186, Note_on_c, 0, 46, 0
2, 100258, Note_on_c, 0, 39, 65
2, 100272, Note_on_c, 0, 39, 0
2, 100281, Note_on_c, 0, 53, 0
2, 100315, Note_on_c, 0, 51, 98
2, 100365, Note_on_c, 0, 56, 0
2, 100431, Note_on_c, 0, 51, 0
2, 100437, Note_on_c, 0, 56, 68
2, 100439, Note_on_c, 0, 60, 76
2, 100458, Note_on_c, 0, 60, 0
2, 100462, Note_on_c, 0, 56, 0
2, 100494, Note_on_c, 0, 48, 66
2, 100521, Note_on_c, 0, 48, 0
2, 100555, Note_on_c, 0, 50, 68
2, 100598, Note_on_c, 0, 50, 0
2, 100616, Note_on_c, 0, 50, 70
2, 100630, Note_on_c, 0, 50, 0
2, 100737, Note_on_c, 0, 63, 99
2, 100739, Note_on_c, 0, 58, 82
2, 100858, Note_on_c, 0, 72, 83
2, 100859, Note_on_c, 0, 68, 79
2, 100863, Note_on_c, 0, 63, 0
2, 100892, Note_on_c, 0, 72, 0
2, 100896, Note_on_c, 0, 68, 0
2, 100920, Note_on_c, 0, 60, 47
2, 100924, Note_on_c, 0, 68, 40
2, 100932, Note_on_c, 0, 60, 0
2, 100940, Note_on_c, 0, 68, 0
2, 100979, Note_on_c, 0, 61, 80
2, 100985, Note_on_c, 0, 53, 49
2, 100997, Note_on_c, 0, 53, 0
2, 101015, Note_on_c, 0, 61, 0
2, 101039, Note_on_c, 0, 62, 70
2, 101099, Note_on_c, 0, 46, 77
2, 101103, Note_on_c, 0, 62, 0
2, 101161, Note_on_c, 0, 62, 51
2, 101173, Note_on_c, 0, 62, 0
2, 101191, Note_on_c, 0, 46, 0
2, 101202, Note_on_c, 0, 58, 0
2, 101215, Note_on_c, 0, 63, 93
2, 101219, Note_on_c, 0, 53, 82
2, 101255, Note_on_c, 0, 63, 0
2, 101260, Note_on_c, 0, 53, 0
2, 101277, Note_on_c, 0, 53, 65
2, 101279, Note_on_c, 0, 63, 85
2, 101395, Note_on_c, 0, 72, 70
2, 101397, Note_on_c, 0, 68, 49
2, 101444, Note_on_c, 0, 63, 0
2, 101457, Note_on_c, 0, 62, 76
2, 101459, Note_on_c, 0, 58, 56
2, 101509, Note_on_c, 0, 72, 0
2, 101512, Note_on_c, 0, 53, 0
2, 101569, Note_on_c, 0, 68, 0
2, 101578, Note_on_c, 0, 72, 91
2, 101578, Note_on_c, 0, 68, 52
2, 101579, Note_on_c, 0, 46, 67
2, 101598, Note_on_c, 0, 46, 0
2, 101623, Note_on_c, 0, 58, 0
2, 101644, Note_on_c, 0, 62, 0
2, 101695, Note_on_c, 0, 68, 0
2, 101696, Note_on_c, 0, 63, 110
2, 101699, Note_on_c, 0, 68, 41
2, 101708, Note_on_c, 0, 68, 0
2, 101734, Note_on_c, 0, 72, 0
2, 101816, Note_on_c, 0, 58, 67
2, 101817, Note_on_c, 0, 68, 79
2, 101819, Note_on_c, 0, 63, 0
2, 101819, Note_on_c, 0, 72, 83
2, 101829, Note_on_c, 0, 58, 0
2, 101853, Note_on_c, 0, 68, 0
2, 101864, Note_on_c, 0, 72, 0
2, 101903, Note_on_c, 0, 60, 73
2, 101903, Note_on_c, 0, 60, 0
2, 101903, Note_on_c, 0, 68, 47
2, 101903, Note_on_c, 0, 72, 34
2, 101919, Note_on_c, 0, 68, 0
2, 101940, Note_on_c, 0, 68, 68
2, 101940, Note_on_c, 0, 61, 73
2, 101977, Note_on_c, 0, 72, 0
2, 101978, Note_on_c, 0, 68, 0
2, 101982, Note_on_c, 0, 61, 0
2, 102001, Note_on_c, 0, 62, 73
2, 102006, Note_on_c, 0, 68, 41
2, 102025, Note_on_c, 0, 68, 0
2, 102038, Note_on_c, 0, 62, 0
2, 102063, Note_on_c, 0, 58, 76
2, 102079, Note_on_c, 0, 58, 0
2, 102118, Note_on_c, 0, 46, 57
2, 102127, Note_on_c, 0, 46, 0
2, 102180, Note_on_c, 0, 68, 98
2, 102180, Note_on_c, 0, 63, 94
2, 102180, Note_on_c, 0, 72, 94
2, 102183, Note_on_c, 0, 58, 84
2, 102281, Note_on_c, 0, 58, 0
2, 102283, Note_on_c, 0, 63, 0
2, 102296, Note_on_c, 0, 58, 57
2, 102298, Note_on_c, 0, 72, 0
2, 102298, Note_on_c, 0, 63, 55
2, 102301, Note_on_c, 0, 68, 0
2, 102311, Note_on_c, 0, 63, 0
2, 102333, Note_on_c, 0, 58, 0
2, 102360, Note_on_c, 0, 63, 75
2, 102362, Note_on_c, 0, 68, 72
2, 102363, Note_on_c, 0, 58, 40
2, 102364, Note_on_c, 0, 72, 68
2, 102381, Note_on_c, 0, 63, 0
2, 102385, Note_on_c, 0, 72, 0
2, 102386, Note_on_c, 0, 58, 0
2, 102386, Note_on_c, 0, 68, 0
2, 102417, Note_on_c, 0, 60, 78
2, 102424, Note_on_c, 0, 58, 52
2, 102436, Note_on_c, 0, 58, 0
2, 102439, Note_on_c, 0, 60, 0
2, 102478, Note_on_c, 0, 62, 66
2, 102481, Note_on_c, 0, 72, 72
2, 102481, Note_on_c, 0, 68, 67
2, 102520, Note_on_c, 0, 72, 0
2, 102523, Note_on_c, 0, 68, 0
2, 102523, Note_on_c, 0, 62, 0
2, 102541, Note_on_c, 0, 68, 73
2, 102541, Note_on_c, 0, 62, 74
2, 102552, Note_on_c, 0, 62, 0
2, 102555, Note_on_c, 0, 68, 0
2, 102597, Note_on_c, 0, 46, 54
2, 102605, Note_on_c, 0, 46, 0
2, 102660, Note_on_c, 0, 63, 105
2, 102667, Note_on_c, 0, 58, 69
2, 102783, Note_on_c, 0, 68, 77
2, 102784, Note_on_c, 0, 72, 82
2, 102786, Note_on_c, 0, 58, 0
2, 102795, Note_on_c, 0, 63, 0
2, 102809, Note_on_c, 0, 72, 0
2, 102814, Note_on_c, 0, 68, 0
2, 102842, Note_on_c, 0, 60, 69
2, 102860, Note_on_c, 0, 60, 0
2, 102898, Note_on_c, 0, 61, 90
2, 102933, Note_on_c, 0, 61, 0
2, 102960, Note_on_c, 0, 62, 58
2, 103016, Note_on_c, 0, 53, 97
2, 103029, Note_on_c, 0, 62, 0
2, 103065, Note_on_c, 0, 53, 0
2, 103078, Note_on_c, 0, 62, 61
2, 103092, Note_on_c, 0, 62, 0
2, 103136, Note_on_c, 0, 63, 99
2, 103136, Note_on_c, 0, 58, 80
2, 103180, Note_on_c, 0, 63, 0
2, 103184, Note_on_c, 0, 58, 0
2, 103194, Note_on_c, 0, 58, 43
2, 103197, Note_on_c, 0, 63, 80
2, 103247, Note_on_c, 0, 58, 0
2, 103262, Note_on_c, 0, 68, 71
2, 103264, Note_on_c, 0, 72, 69
2, 103279, Note_on_c, 0, 63, 0
2, 103289, Note_on_c, 0, 72, 0
2, 103295, Note_on_c, 0, 68, 0
2, 103319, Note_on_c, 0, 60, 65
2, 103340, Note_on_c, 0, 60, 0
2, 103377, Note_on_c, 0, 61, 84
2, 103421, Note_on_c, 0, 61, 0
2, 103436, Note_on_c, 0, 62, 78
2, 103500, Note_on_c, 0, 68, 49
2, 103501, Note_on_c, 0, 72, 69
2, 103517, Note_on_c, 0, 62, 0
2, 103541, Note_on_c, 0, 68, 0
2, 103545, Note_on_c, 0, 72, 0
2, 103564, Note_on_c, 0, 60, 56
2, 103579, Note_on_c, 0, 60, 0
2, 103620, Note_on_c, 0, 60, 80
2, 103734, Note_on_c, 0, 68, 74
2, 103737, Note_on_c, 0, 72, 74
2, 103800, Note_on_c, 0, 60, 0
2, 103861, Note_on_c, 0, 61, 63
2, 103862, Note_on_c, 0, 63, 70
2, 103880, Note_on_c, 0, 61, 0
2, 103935, Control_c, 0, 64, 127
2, 103948, Note_on_c, 0, 63, 0
2, 103968, Note_on_c, 0, 72, 0
2, 103968, Note_on_c, 0, 68, 0
2, 103980, Note_on_c, 0, 60, 87
2, 103984, Note_on_c, 0, 68, 45
2, 103992, Control_c, 0, 64, 0
2, 104004, Note_on_c, 0, 60, 0
2, 104011, Note_on_c, 0, 72, 22
2, 104027, Note_on_c, 0, 68, 0
2, 104032, Note_on_c, 0, 72, 0
2, 104038, Note_on_c, 0, 61, 100
2, 104071, Control_c, 0, 64, 127
2, 104093, Note_on_c, 0, 61, 0
2, 104160, Note_on_c, 0, 68, 81
2, 104160, Note_on_c, 0, 63, 55
2, 104162, Control_c, 0, 64, 0
2, 104164, Note_on_c, 0, 58, 54
2, 104164, Note_on_c, 0, 54, 52
2, 104165, Note_on_c, 0, 59, 67
2, 104284, Control_c, 0, 64, 127
2, 104296, Note_on_c, 0, 59, 0
2, 104303, Note_on_c, 0, 63, 0
2, 104322, Note_on_c, 0, 58, 0
2, 104341, Note_on_c, 0, 63, 73
2, 104344, Note_on_c, 0, 70, 89
2, 104345, Note_on_c, 0, 58, 48
2, 104347, Note_on_c, 0, 59, 68
2, 104352, Control_c, 0, 64, 0
2, 104358, Note_on_c, 0, 68, 0
2, 104383, Control_c, 0, 64, 127
2, 104396, Note_on_c, 0, 70, 0
2, 104400, Note_on_c, 0, 59, 0
2, 104403, Note_on_c, 0, 63, 0
2, 104407, Note_on_c, 0, 58, 0
2, 104455, Note_on_c, 0, 63, 73
2, 104459, Note_on_c, 0, 83, 94
2, 104460, Note_on_c, 0, 71, 88
2, 104462, Note_on_c, 0, 59, 69
2, 104463, Note_on_c, 0, 58, 52
2, 104471, Control_c, 0, 64, 0
2, 104492, Control_c, 0, 64, 127
2, 104511, Note_on_c, 0, 71, 0
2, 104516, Note_on_c, 0, 63, 0
2, 104517, Note_on_c, 0, 83, 0
2, 104518, Note_on_c, 0, 59, 0
2, 104521, Note_on_c, 0, 58, 0
2, 104531, Note_on_c, 0, 54, 0
2, 104577, Note_on_c, 0, 63, 72
2, 104577, Control_c, 0, 64, 0
2, 104579, Note_on_c, 0, 85, 89
2, 104579, Note_on_c, 0, 59, 74
2, 104580, Note_on_c, 0, 73, 77
2, 104581, Note_on_c, 0, 58, 53
2, 104582, Note_on_c, 0, 53, 67
2, 104754, Control_c, 0, 64, 127
2, 104764, Note_on_c, 0, 53, 0
2, 104768, Note_on_c, 0, 85, 0
2, 104780, Note_on_c, 0, 73, 0
2, 104780, Note_on_c, 0, 59, 0
2, 104781, Note_on_c, 0, 58, 0
2, 104782, Note_on_c, 0, 63, 0
2, 104812, Note_on_c, 0, 53, 76
2, 104829, Note_on_c, 0, 53, 0
2, 104861, Control_c, 0, 64, 0
2, 104874, Note_on_c, 0, 63, 52
2, 104875, Note_on_c, 0, 59, 65
2, 104875, Note_on_c, 0, 58, 49
2, 104877, Note_on_c, 0, 53, 51
2, 104915, Note_on_c, 0, 53, 0
2, 104918, Note_on_c, 0, 63, 0
2, 104923, Note_on_c, 0, 58, 0
2, 104923, Note_on_c, 0, 59, 0
2, 104936, Note_on_c, 0, 70, 88
2, 104936, Note_on_c, 0, 71, 104
2, 104941, Note_on_c, 0, 63, 82
2, 104942, Note_on_c, 0, 59, 85
2, 104942, Note_on_c, 0, 58, 65
2, 104943, Note_on_c, 0, 53, 78
2, 104947, Note_on_c, 0, 70, 0
2, 104950, Control_c, 0, 64, 127
2, 104979, Control_c, 0, 64, 0
2, 104991, Control_c, 0, 64, 127
2, 104996, Note_on_c, 0, 70, 81
2, 105004, Note_on_c, 0, 63, 0
2, 105006, Note_on_c, 0, 59, 0
2, 105008, Note_on_c, 0, 71, 0
2, 105010, Note_on_c, 0, 58, 0
2, 105017, Note_on_c, 0, 53, 0
2, 105051, Control_c, 0, 64, 0
2, 105053, Note_on_c, 0, 70, 0
2, 105059, Note_on_c, 0, 68, 82
2, 105059, Note_on_c, 0, 61, 69
2, 105061, Note_on_c, 0, 58, 62
2, 105063, Note_on_c, 0, 56, 57
2, 105064, Note_on_c, 0, 51, 59
2, 105182, Note_on_c, 0, 65, 80
2, 105183, Note_on_c, 0, 68, 0
2, 105242, Control_c, 0, 64, 127
2, 105252, Note_on_c, 0, 61, 0
2, 105261, Note_on_c, 0, 58, 0
2, 105264, Note_on_c, 0, 56, 0
2, 105275, Note_on_c, 0, 51, 0
2, 105397, Note_on_c, 0, 65, 0
2, 105418, Note_on_c, 0, 51, 50
2, 105421, Note_on_c, 0, 65, 73
2, 105421, Note_on_c, 0, 58, 73
2, 105421, Note_on_c, 0, 53, 83
2, 105421, Note_on_c, 0, 54, 76
2, 105422, Note_on_c, 0, 61, 71
2, 105426, Note_on_c, 0, 51, 0
2, 105431, Control_c, 0, 64, 0
2, 105461, Note_on_c, 0, 65, 0
2, 105462, Note_on_c, 0, 61, 0
2, 105467, Note_on_c, 0, 54, 0
2, 105468, Note_on_c, 0, 53, 0
2, 105471, Note_on_c, 0, 51, 54
2, 105476, Note_on_c, 0, 63, 58
2, 105480, Note_on_c, 0, 54, 32
2, 105501, Note_on_c, 0, 54, 0
2, 105525, Note_on_c, 0, 58, 0
2, 105531, Note_on_c, 0, 63, 0
2, 105531, Note_on_c, 0, 51, 0
2, 105537, Note_on_c, 0, 54, 56
2, 105542, Note_on_c, 0, 49, 50
2, 105546, Note_on_c, 0, 54, 0
2, 105586, Note_on_c, 0, 49, 0
2, 105593, Note_on_c, 0, 54, 75
2, 105595, Note_on_c, 0, 61, 67
2, 105595, Note_on_c, 0, 58, 70
2, 105595, Note_on_c, 0, 65, 69
2, 105596, Note_on_c, 0, 53, 70
2, 105689, Note_on_c, 0, 54, 0
2, 105693, Note_on_c, 0, 65, 0
2, 105697, Note_on_c, 0, 58, 0
2, 105704, Note_on_c, 0, 61, 0
2, 105715, Note_on_c, 0, 58, 57
2, 105715, Note_on_c, 0, 54, 71
2, 105716, Note_on_c, 0, 51, 66
2, 105716, Note_on_c, 0, 63, 69
2, 105717, Note_on_c, 0, 53, 0
2, 105717, Note_on_c, 0, 61, 47
2, 105769, Note_on_c, 0, 61, 0
2, 105799, Note_on_c, 0, 54, 0
2, 105820, Note_on_c, 0, 49, 43
2, 105823, Note_on_c, 0, 63, 0
2, 105823, Note_on_c, 0, 51, 0
2, 105825, Note_on_c, 0, 58, 0
2, 105831, Note_on_c, 0, 49, 0
2, 105834, Note_on_c, 0, 58, 35
2, 105838, Note_on_c, 0, 62, 60
2, 105839, Note_on_c, 0, 50, 60
2, 105839, Note_on_c, 0, 54, 54
2, 105858, Control_c, 0, 64, 127
2, 105882, Note_on_c, 0, 54, 0
2, 105886, Note_on_c, 0, 62, 0
2, 105903, Note_on_c, 0, 54, 78
2, 105903, Note_on_c, 0, 63, 84
2, 105905, Note_on_c, 0, 51, 80
2, 105915, Note_on_c, 0, 50, 0
2, 105931, Note_on_c, 0, 54, 0
2, 105942, Note_on_c, 0, 51, 0
2, 105942, Note_on_c, 0, 58, 0
2, 105951, Note_on_c, 0, 63, 0
2, 106070, Control_c, 0, 64, 0
2, 106073, Note_on_c, 0, 61, 94
2, 106074, Note_on_c, 0, 72, 107
2, 106074, Note_on_c, 0, 67, 107
2, 106074, Note_on_c, 0, 55, 95
2, 106074, Note_on_c, 0, 64, 105
2, 106099, Control_c, 0, 64, 127
2, 106111, Note_on_c, 0, 64, 0
2, 106114, Note_on_c, 0, 67, 0
2, 106117, Note_on_c, 0, 72, 0
2, 106125, Note_on_c, 0, 61, 0
2, 106128, Note_on_c, 0, 55, 0
2, 106257, Note_on_c, 0, 76, 95
2, 106257, Note_on_c, 0, 72, 88
2, 106257, Note_on_c, 0, 61, 73
2, 106257, Note_on_c, 0, 55, 84
2, 106257, Control_c, 0, 64, 0
2, 106258, Note_on_c, 0, 67, 83
2, 106280, Control_c, 0, 64, 127
2, 106294, Note_on_c, 0, 76, 0
2, 106296, Note_on_c, 0, 72, 0
2, 106296, Note_on_c, 0, 67, 0
2, 106304, Note_on_c, 0, 55, 0
2, 106305, Note_on_c, 0, 61, 0
2, 106323, Note_on_c, 0, 72, 88
2, 106323, Note_on_c, 0, 79, 96
2, 106324, Note_on_c, 0, 61, 72
2, 106324, Control_c, 0, 64, 0
2, 106325, Note_on_c, 0, 55, 71
2, 106339, Control_c, 0, 64, 127
2, 106366, Note_on_c, 0, 55, 0
2, 106366, Note_on_c, 0, 61, 0
2, 106371, Note_on_c, 0, 72, 0
2, 106377, Note_on_c, 0, 79, 0
2, 106389, Control_c, 0, 64, 0
2, 106390, Note_on_c, 0, 61, 70
2, 106390, Note_on_c, 0, 72, 74
2, 106391, Note_on_c, 0, 76, 84
2, 106394, Note_on_c, 0, 67, 64
2, 106395, Note_on_c, 0, 55, 65
2, 106408, Control_c, 0, 64, 127
2, 106412, Note_on_c, 0, 55, 0
2, 106417, Note_on_c, 0, 67, 0
2, 106422, Note_on_c, 0, 61, 0
2, 106426, Note_on_c, 0, 72, 0
2, 106434, Note_on_c, 0, 76, 0
2, 106498, Note_on_c, 0, 61, 78
2, 106499, Control_c, 0, 64, 0
2, 106500, Note_on_c, 0, 55, 84
2, 106500, Note_on_c, 0, 72, 98
2, 106500, Note_on_c, 0, 81, 102
2, 106501, Note_on_c, 0, 77, 90
2, 106502, Note_on_c, 0, 65, 82
2, 106508, Note_on_c, 0, 65, 0
2, 106533, Control_c, 0, 64, 127
2, 106536, Note_on_c, 0, 81, 0
2, 106539, Note_on_c, 0, 55, 0
2, 106539, Note_on_c, 0, 77, 0
2, 106543, Note_on_c, 0, 72, 0
2, 106546, Note_on_c, 0, 61, 0
2, 106563, Control_c, 0, 64, 0
2, 106615, Note_on_c, 0, 77, 86
2, 106615, Note_on_c, 0, 55, 75
2, 106616, Note_on_c, 0, 65, 68
2, 106616, Note_on_c, 0, 61, 70
2, 106616, Note_on_c, 0, 69, 76
2, 106617, Note_on_c, 0, 72, 78
2, 106650, Control_c, 0, 64, 127
2, 106670, Note_on_c, 0, 65, 0
2, 106671, Note_on_c, 0, 77, 0
2, 106678, Note_on_c, 0, 72, 0
2, 106679, Note_on_c, 0, 55, 0
2, 106685, Note_on_c, 0, 69, 0
2, 106698, Note_on_c, 0, 61, 0
2, 106735, Note_on_c, 0, 72, 75
2, 106735, Note_on_c, 0, 61, 71
2, 106735, Note_on_c, 0, 65, 81
2, 106736, Note_on_c, 0, 55, 70
2, 106752, Note_on_c, 0, 55, 0
2, 106759, Note_on_c, 0, 61, 0
2, 106763, Note_on_c, 0, 65, 0
2, 106774, Note_on_c, 0, 72, 0
2, 106783, Control_c, 0, 64, 0
2, 106795, Note_on_c, 0, 69, 80
2, 106795, Note_on_c, 0, 65, 66
2, 106796, Note_on_c, 0, 60, 58
2, 106800, Note_on_c, 0, 61, 65
2, 106801, Note_on_c, 0, 55, 68
2, 106826, Control_c, 0, 64, 127
2, 106846, Note_on_c, 0, 61, 0
2, 106855, Note_on_c, 0, 55, 0
2, 106862, Note_on_c, 0, 60, 0
2, 106862, Note_on_c, 0, 65, 0
2, 106875, Control_c, 0, 64, 0
2, 106906, Note_on_c, 0, 69, 0
2, 106911, Note_on_c, 0, 55, 81
2, 106912, Note_on_c, 0, 65, 75
2, 106912, Note_on_c, 0, 61, 53
2, 106912, Control_c, 0, 64, 127
2, 106914, Note_on_c, 0, 60, 65
2, 106921, Note_on_c, 0, 61, 0
2, 106931, Note_on_c, 0, 55, 0
2, 106937, Note_on_c, 0, 65, 0
2, 106941, Note_on_c, 0, 60, 0
2, 107006, Note_on_c, 0, 49, 50
2, 107016, Note_on_c, 0, 50, 62
2, 107018, Control_c, 0, 64, 0
2, 107025, Note_on_c, 0, 50, 0
2, 107025, Note_on_c, 0, 49, 0
2, 107027, Note_on_c, 0, 51, 74
2, 107030, Note_on_c, 0, 60, 71
2, 107030, Note_on_c, 0, 58, 66
2, 107031, Note_on_c, 0, 55, 72
2, 107031, Note_on_c, 0, 63, 67
2, 107111, Note_on_c, 0, 60, 0
2, 107127, Note_on_c, 0, 55, 0
2, 107146, Note_on_c, 0, 51, 0
2, 107146, Note_on_c, 0, 63, 0
2, 107150, Note_on_c, 0, 60, 68
2, 107150, Note_on_c, 0, 55, 57
2, 107151, Note_on_c, 0, 48, 61
2, 107195, Note_on_c, 0, 58, 0
2, 107196, Note_on_c, 0, 55, 0
2, 107209, Note_on_c, 0, 60, 0
2, 107217, Note_on_c, 0, 61, 77
2, 107217, Note_on_c, 0, 55, 75
2, 107217, Note_on_c, 0, 58, 66
2, 107218, Note_on_c, 0, 48, 0
2, 107220, Note_on_c, 0, 49, 60
2, 107366, Note_on_c, 0, 55, 0
2, 107382, Note_on_c, 0, 58, 0
2, 107398, Note_on_c, 0, 55, 70
2, 107398, Note_on_c, 0, 63, 71
2, 107399, Note_on_c, 0, 58, 53
2, 107399, Note_on_c, 0, 51, 59
2, 107401, Note_on_c, 0, 49, 0
2, 107492, Note_on_c, 0, 55, 0
2, 107501, Note_on_c, 0, 58, 0
2, 107504, Note_on_c, 0, 61, 0
2, 107510, Note_on_c, 0, 63, 0
2, 107515, Note_on_c, 0, 55, 68
2, 107518, Note_on_c, 0, 60, 77
2, 107520, Note_on_c, 0, 51, 0
2, 107522, Note_on_c, 0, 48, 68
2, 107607, Note_on_c, 0, 55, 0
2, 107634, Note_on_c, 0, 55, 60
2, 107635, Note_on_c, 0, 48, 0
2, 107639, Note_on_c, 0, 44, 52
2, 107677, Note_on_c, 0, 60, 0
2, 107683, Note_on_c, 0, 55, 0
2, 107698, Note_on_c, 0, 56, 73
2, 107705, Note_on_c, 0, 46, 59
2, 107708, Note_on_c, 0, 44, 0
2, 107767, Control_c, 0, 64, 127
2, 107807, Note_on_c, 0, 46, 0
2, 107807, Note_on_c, 0, 56, 0
2, 107815, Note_on_c, 0, 58, 75
2, 107820, Note_on_c, 0, 46, 41
2, 107842, Control_c, 0, 64, 0
2, 107860, Note_on_c, 0, 46, 0
2, 107871, Note_on_c, 0, 60, 73
2, 107881, Control_c, 0, 64, 127
2, 107901, Note_on_c, 0, 58, 0
2, 107902, Note_on_c, 0, 60, 0
2, 107905, Control_c, 0, 64, 0
2, 107934, Note_on_c, 0, 61, 65
2, 107936, Control_c, 0, 64, 127
2, 107941, Note_on_c, 0, 46, 46
2, 107951, Note_on_c, 0, 46, 0
2, 107958, Control_c, 0, 64, 0
2, 107963, Note_on_c, 0, 61, 0
2, 107993, Note_on_c, 0, 63, 64
2, 107993, Note_on_c, 0, 54, 70
2, 107995, Note_on_c, 0, 59, 74
2, 108094, Note_on_c, 0, 54, 0
2, 108117, Note_on_c, 0, 54, 54
2, 108190, Note_on_c, 0, 54, 0
2, 108243, Note_on_c, 0, 54, 67
2, 108261, Note_on_c, 0, 63, 0
2, 108275, Note_on_c, 0, 59, 0
2, 108301, Note_on_c, 0, 63, 55
2, 108307, Note_on_c, 0, 59, 54
2, 108327, Note_on_c, 0, 54, 0
2, 108360, Note_on_c, 0, 54, 59
2, 108407, Note_on_c, 0, 54, 0
2, 108419, Note_on_c, 0, 53, 79
2, 108423, Note_on_c, 0, 63, 0
2, 108475, Control_c, 0, 64, 127
2, 108479, Note_on_c, 0, 59, 0
2, 108513, Note_on_c, 0, 53, 0
2, 108541, Note_on_c, 0, 37, 63
2, 108547, Note_on_c, 0, 37, 0
2, 108657, Note_on_c, 0, 53, 75
2, 108668, Note_on_c, 0, 53, 0
2, 108713, Control_c, 0, 64, 0
2, 108717, Note_on_c, 0, 70, 92
2, 108718, Note_on_c, 0, 63, 95
2, 108718, Note_on_c, 0, 67, 86
2, 108721, Note_on_c, 0, 59, 94
2, 108722, Note_on_c, 0, 53, 91
2, 108753, Control_c, 0, 64, 127
2, 108766, Note_on_c, 0, 70, 0
2, 108769, Note_on_c, 0, 67, 0
2, 108779, Note_on_c, 0, 68, 88
2, 108818, Note_on_c, 0, 68, 0
2, 108842, Note_on_c, 0, 63, 0
2, 108847, Note_on_c, 0, 59, 0
2, 108852, Note_on_c, 0, 53, 0
2, 108897, Note_on_c, 0, 59, 64
2, 108914, Note_on_c, 0, 59, 0
2, 108958, Note_on_c, 0, 58, 74
2, 108958, Note_on_c, 0, 65, 82
2, 108958, Control_c, 0, 64, 0
2, 108960, Note_on_c, 0, 61, 69
2, 108961, Note_on_c, 0, 54, 67
2, 108963, Note_on_c, 0, 53, 65
2, 109055, Note_on_c, 0, 54, 0
2, 109057, Note_on_c, 0, 58, 0
2, 109063, Note_on_c, 0, 65, 0
2, 109066, Note_on_c, 0, 61, 0
2, 109074, Note_on_c, 0, 63, 64
2, 109074, Note_on_c, 0, 54, 58
2, 109077, Note_on_c, 0, 58, 55
2, 109078, Note_on_c, 0, 51, 59
2, 109078, Note_on_c, 0, 61, 43
2, 109079, Note_on_c, 0, 53, 0
2, 109093, Control_c, 0, 64, 127
2, 109105, Note_on_c, 0, 61, 0
2, 109111, Note_on_c, 0, 58, 0
2, 109121, Note_on_c, 0, 54, 0
2, 109131, Note_on_c, 0, 51, 0
2, 109144, Note_on_c, 0, 63, 0
2, 109144, Note_on_c, 0, 61, 76
2, 109144, Note_on_c, 0, 54, 69
2, 109146, Note_on_c, 0, 58, 62
2, 109146, Note_on_c, 0, 51, 62
2, 109154, Control_c, 0, 64, 0
2, 109185, Control_c, 0, 64, 127
2, 109187, Note_on_c, 0, 51, 0
2, 109209, Note_on_c, 0, 58, 0
2, 109213, Note_on_c, 0, 54, 0
2, 109235, Note_on_c, 0, 61, 0
2, 109255, Note_on_c, 0, 54, 69
2, 109255, Note_on_c, 0, 63, 70
2, 109255, Note_on_c, 0, 58, 71
2, 109257, Note_on_c, 0, 51, 65
2, 109280, Note_on_c, 0, 51, 0
2, 109282, Control_c, 0, 64, 0
2, 109300, Note_on_c, 0, 58, 0
2, 109301, Note_on_c, 0, 54, 0
2, 109310, Control_c, 0, 64, 127
2, 109324, Note_on_c, 0, 63, 0
2, 109378, Note_on_c, 0, 66, 83
2, 109379, Note_on_c, 0, 57, 88
2, 109379, Note_on_c, 0, 61, 79
2, 109380, Note_on_c, 0, 42, 69
2, 109381, Control_c, 0, 64, 0
2, 109384, Note_on_c, 0, 53, 46
2, 109447, Control_c, 0, 64, 127
2, 109456, Note_on_c, 0, 42, 0
2, 109485, Note_on_c, 0, 53, 0
2, 109498, Note_on_c, 0, 42, 71
2, 109501, Note_on_c, 0, 61, 0
2, 109523, Control_c, 0, 64, 0
2, 109525, Note_on_c, 0, 57, 0
2, 109554, Note_on_c, 0, 42, 0
2, 109565, Control_c, 0, 64, 127
2, 109591, Control_c, 0, 64, 0
2, 109615, Note_on_c, 0, 57, 68
2, 109617, Control_c, 0, 64, 127
2, 109619, Note_on_c, 0, 61, 37
2, 109634, Note_on_c, 0, 57, 0
2, 109655, Note_on_c, 0, 61, 0
2, 109664, Control_c, 0, 64, 0
2, 109667, Note_on_c, 0, 66, 0
2, 109677, Note_on_c, 0, 47, 52
2, 109686, Note_on_c, 0, 47, 0
2, 109694, Control_c, 0, 64, 127
2, 109722, Control_c, 0, 64, 0
2, 109740, Note_on_c, 0, 66, 79
2, 109742, Note_on_c, 0, 57, 79
2, 109742, Note_on_c, 0, 54, 71
2, 109742, Note_on_c, 0, 63, 70
2, 109743, Note_on_c, 0, 61, 67
2, 109802, Control_c, 0, 64, 127
2, 109857, Note_on_c, 0, 47, 64
2, 109863, Note_on_c, 0, 54, 0
2, 109864, Note_on_c, 0, 47, 0
2, 109874, Control_c, 0, 64, 0
2, 109913, Note_on_c, 0, 57, 0
2, 109982, Note_on_c, 0, 61, 0
2, 109986, Note_on_c, 0, 57, 51
2, 109996, Control_c, 0, 64, 127
2, 110008, Note_on_c, 0, 57, 0
2, 110019, Control_c, 0, 64, 0
2, 110044, Note_on_c, 0, 63, 0
2, 110068, Note_on_c, 0, 66, 0
2, 110101, Note_on_c, 0, 67, 86
2, 110101, Note_on_c, 0, 63, 70
2, 110102, Note_on_c, 0, 60, 78
2, 110102, Note_on_c, 0, 56, 71
2, 110103, Note_on_c, 0, 51, 63
2, 110114, Note_on_c, 0, 51, 0
2, 110120, Note_on_c, 0, 56, 0
2, 110123, Note_on_c, 0, 60, 0
2, 110123, Note_on_c, 0, 67, 0
2, 110126, Note_on_c, 0, 63, 0
2, 110163, Note_on_c, 0, 51, 62
2, 110165, Note_on_c, 0, 63, 63
2, 110165, Note_on_c, 0, 67, 78
2, 110166, Note_on_c, 0, 60, 69
2, 110166, Note_on_c, 0, 56, 65
2, 110178, Control_c, 0, 64, 127
2, 110212, Note_on_c, 0, 56, 0
2, 110213, Note_on_c, 0, 60, 0
2, 110216, Note_on_c, 0, 63, 0
2, 110217, Note_on_c, 0, 67, 0
2, 110219, Note_on_c, 0, 51, 0
2, 110230, Note_on_c, 0, 56, 58
2, 110231, Note_on_c, 0, 41, 63
2, 110233, Note_on_c, 0, 65, 73
2, 110236, Note_on_c, 0, 60, 51
2, 110236, Note_on_c, 0, 63, 51
2, 110239, Control_c, 0, 64, 0
2, 110240, Note_on_c, 0, 41, 0
2, 110243, Note_on_c, 0, 60, 0
2, 110246, Note_on_c, 0, 56, 0
2, 110254, Note_on_c, 0, 63, 0
2, 110255, Note_on_c, 0, 65, 0
2, 110286, Control_c, 0, 64, 127
2, 110340, Note_on_c, 0, 66, 90
2, 110341, Note_on_c, 0, 62, 86
2, 110341, Note_on_c, 0, 70, 82
2, 110342, Note_on_c, 0, 74, 90
2, 110343, Note_on_c, 0, 46, 72
2, 110343, Control_c, 0, 64, 0
2, 110343, Note_on_c, 0, 56, 80
2, 110387, Control_c, 0, 64, 127
2, 110423, Note_on_c, 0, 70, 0
2, 110425, Note_on_c, 0, 56, 0
2, 110426, Note_on_c, 0, 62, 0
2, 110427, Note_on_c, 0, 66, 0
2, 110441, Note_on_c, 0, 74, 0
2, 110461, Note_on_c, 0, 70, 53
2, 110463, Note_on_c, 0, 66, 76
2, 110463, Note_on_c, 0, 62, 67
2, 110464, Note_on_c, 0, 56, 71
2, 110464, Note_on_c, 0, 71, 86
2, 110465, Control_c, 0, 64, 0
2, 110484, Note_on_c, 0, 71, 0
2, 110499, Control_c, 0, 64, 127
2, 110533, Note_on_c, 0, 56, 0
2, 110542, Note_on_c, 0, 66, 0
2, 110551, Note_on_c, 0, 62, 0
2, 110575, Note_on_c, 0, 62, 65
2, 110577, Note_on_c, 0, 56, 63
2, 110577, Note_on_c, 0, 66, 85
2, 110581, Control_c, 0, 64, 0
2, 110614, Control_c, 0, 64, 127
2, 110650, Note_on_c, 0, 46, 0
2, 110654, Note_on_c, 0, 62, 0
2, 110675, Note_on_c, 0, 56, 0
2, 110700, Note_on_c, 0, 62, 85
2, 110704, Note_on_c, 0, 56, 55
2, 110705, Note_on_c, 0, 46, 52
2, 110728, Note_on_c, 0, 56, 0
2, 110742, Note_on_c, 0, 66, 0
2, 110744, Note_on_c, 0, 70, 0
2, 110752, Note_on_c, 0, 62, 0
2, 110778, Note_on_c, 0, 46, 0
2, 110820, Note_on_c, 0, 65, 96
2, 110821, Note_on_c, 0, 54, 87
2, 110821, Note_on_c, 0, 58, 84
2, 110822, Control_c, 0, 64, 0
2, 110822, Note_on_c, 0, 61, 76
2, 110824, Note_on_c, 0, 53, 85
2, 111032, Note_on_c, 0, 58, 0
2, 111032, Note_on_c, 0, 54, 0
2, 111039, Note_on_c, 0, 65, 0
2, 111049, Note_on_c, 0, 61, 0
2, 111059, Note_on_c, 0, 63, 75
2, 111060, Note_on_c, 0, 51, 76
2, 111060, Note_on_c, 0, 54, 75
2, 111062, Note_on_c, 0, 58, 70
2, 111064, Note_on_c, 0, 61, 63
2, 111067, Note_on_c, 0, 53, 0
2, 111092, Note_on_c, 0, 54, 0
2, 111097, Note_on_c, 0, 61, 0
2, 111110, Note_on_c, 0, 58, 0
2, 111112, Note_on_c, 0, 63, 0
2, 111119, Note_on_c, 0, 51, 0
2, 111122, Note_on_c, 0, 54, 45
2, 111124, Note_on_c, 0, 50, 64
2, 111125, Note_on_c, 0, 58, 31
2, 111128, Note_on_c, 0, 62, 44
2, 111161, Note_on_c, 0, 58, 0
2, 111162, Note_on_c, 0, 54, 0
2, 111166, Note_on_c, 0, 62, 0
2, 111187, Note_on_c, 0, 54, 67
2, 111189, Note_on_c, 0, 63, 71
2, 111189, Note_on_c, 0, 58, 68
2, 111189, Note_on_c, 0, 51, 69
2, 111196, Note_on_c, 0, 50, 0
2, 111211, Note_on_c, 0, 54, 0
2, 111215, Control_c, 0, 64, 127
2, 111216, Note_on_c, 0, 58, 0
2, 111221, Note_on_c, 0, 63, 0
2, 111287, Note_on_c, 0, 51, 0
2, 111292, Control_c, 0, 64, 0
2, 111297, Note_on_c, 0, 56, 95
2, 111298, Note_on_c, 0, 61, 92
2, 111299, Note_on_c, 0, 64, 87
2, 111299, Note_on_c, 0, 68, 92
2, 111301, Note_on_c, 0, 57, 94
2, 111392, Note_on_c, 0, 64, 0
2, 111404, Note_on_c, 0, 61, 0
2, 111405, Note_on_c, 0, 57, 0
2, 111409, Note_on_c, 0, 68, 0
2, 111419, Note_on_c, 0, 54, 81
2, 111421, Note_on_c, 0, 66, 85
2, 111422, Note_on_c, 0, 57, 87
2, 111422, Note_on_c, 0, 61, 72
2, 111424, Note_on_c, 0, 56, 0
2, 111462, Note_on_c, 0, 57, 0
2, 111481, Control_c, 0, 64, 127
2, 111487, Note_on_c, 0, 66, 0
2, 111488, Note_on_c, 0, 54, 0
2, 111507, Note_on_c, 0, 61, 0
2, 111535, Note_on_c, 0, 56, 82
2, 111538, Note_on_c, 0, 60, 84
2, 111538, Note_on_c, 0, 65, 82
2, 111541, Note_on_c, 0, 63, 64
2, 111542, Note_on_c, 0, 46, 65
2, 111542, Note_on_c, 0, 53, 72
2, 111545, Control_c, 0, 64, 0
2, 111588, Control_c, 0, 64, 127
2, 111601, Note_on_c, 0, 53, 0
2, 111607, Note_on_c, 0, 46, 0
2, 111615, Note_on_c, 0, 63, 0
2, 111616, Note_on_c, 0, 60, 0
2, 111629, Note_on_c, 0, 56, 0
2, 111648, Note_on_c, 0, 65, 0
2, 111659, Note_on_c, 0, 56, 77
2, 111660, Note_on_c, 0, 63, 75
2, 111660, Note_on_c, 0, 46, 73
2, 111661, Note_on_c, 0, 60, 82
2, 111675, Control_c, 0, 64, 0
2, 111706, Control_c, 0, 64, 127
2, 111737, Note_on_c, 0, 46, 0
2, 111774, Note_on_c, 0, 60, 0
2, 111784, Note_on_c, 0, 46, 59
2, 111796, Note_on_c, 0, 63, 0
2, 111807, Note_on_c, 0, 56, 0
2, 111815, Note_on_c, 0, 46, 0
2, 111837, Note_on_c, 0, 46, 59
2, 111838, Note_on_c, 0, 56, 67
2, 111841, Control_c, 0, 64, 0
2, 111841, Note_on_c, 0, 53, 56
2, 111841, Note_on_c, 0, 65, 70
2, 111844, Note_on_c, 0, 62, 50
2, 111853, Note_on_c, 0, 62, 0
2, 111853, Note_on_c, 0, 53, 0
2, 111855, Note_on_c, 0, 56, 0
2, 111864, Note_on_c, 0, 65, 0
2, 111952, Note_on_c, 0, 68, 69
2, 111953, Note_on_c, 0, 56, 60
2, 111954, Note_on_c, 0, 60, 74
2, 111956, Note_on_c, 0, 63, 58
2, 111958, Note_on_c, 0, 65, 51
2, 111961, Note_on_c, 0, 60, 0
2, 111967, Note_on_c, 0, 65, 0
2, 111968, Note_on_c, 0, 63, 0
2, 111970, Note_on_c, 0, 68, 0
2, 111972, Note_on_c, 0, 56, 0
2, 112063, Control_c, 0, 64, 127
2, 112069, Note_on_c, 0, 68, 65
2, 112071, Note_on_c, 0, 56, 50
2, 112072, Note_on_c, 0, 63, 56
2, 112074, Note_on_c, 0, 60, 56
2, 112076, Note_on_c, 0, 65, 49
2, 112090, Note_on_c, 0, 60, 0
2, 112093, Note_on_c, 0, 65, 0
2, 112097, Note_on_c, 0, 63, 0
2, 112104, Note_on_c, 0, 56, 0
2, 112107, Note_on_c, 0, 68, 0
2, 112142, Note_on_c, 0, 63, 63
2, 112144, Note_on_c, 0, 60, 68
2, 112144, Note_on_c, 0, 70, 69
2, 112145, Note_on_c, 0, 65, 62
2, 112145, Note_on_c, 0, 58, 57
2, 112157, Control_c, 0, 64, 0
2, 112194, Control_c, 0, 64, 127
2, 112227, Note_on_c, 0, 60, 0
2, 112231, Note_on_c, 0, 65, 0
2, 112232, Note_on_c, 0, 70, 0
2, 112242, Note_on_c, 0, 63, 0
2, 112244, Note_on_c, 0, 58, 0
2, 112250, Note_on_c, 0, 46, 0
2, 112381, Note_on_c, 0, 92, 106
2, 112381, Note_on_c, 0, 80, 101
2, 112382, Note_on_c, 0, 87, 104
2, 112382, Note_on_c, 0, 65, 104
2, 112382, Note_on_c, 0, 54, 97
2, 112382, Note_on_c, 0, 58, 87
2, 112383, Note_on_c, 0, 60, 93
2, 112394, Control_c, 0, 64, 0
2, 112414, Control_c, 0, 64, 127
2, 112497, Note_on_c, 0, 60, 0
2, 112504, Note_on_c, 0, 87, 0
2, 112504, Note_on_c, 0, 65, 0
2, 112510, Note_on_c, 0, 58, 0
2, 112510, Note_on_c, 0, 80, 0
2, 112514, Note_on_c, 0, 54, 0
2, 112517, Note_on_c, 0, 92, 0
2, 112553, Note_on_c, 0, 93, 102
2, 112553, Note_on_c, 0, 87, 101
2, 112555, Note_on_c, 0, 55, 98
2, 112555, Note_on_c, 0, 81, 96
2, 112556, Control_c, 0, 64, 0
2, 112556, Note_on_c, 0, 66, 98
2, 112557, Note_on_c, 0, 61, 89
2, 112604, Control_c, 0, 64, 127
2, 112659, Note_on_c, 0, 55, 0
2, 112669, Note_on_c, 0, 81, 0
2, 112671, Note_on_c, 0, 66, 0
2, 112673, Note_on_c, 0, 93, 0
2, 112674, Note_on_c, 0, 61, 0
2, 112680, Note_on_c, 0, 87, 0
2, 112739, Note_on_c, 0, 63, 77
2, 112741, Note_on_c, 0, 56, 78
2, 112741, Note_on_c, 0, 82, 81
2, 112741, Note_on_c, 0, 67, 88
2, 112741, Note_on_c, 0, 94, 93
2, 112742, Note_on_c, 0, 89, 92
2, 112743, Note_on_c, 0, 60, 77
2, 112755, Control_c, 0, 64, 0
2, 112788, Control_c, 0, 64, 127
2, 112817, Note_on_c, 0, 94, 0
2, 112818, Note_on_c, 0, 67, 0
2, 112821, Note_on_c, 0, 89, 0
2, 112827, Note_on_c, 0, 63, 0
2, 112828, Note_on_c, 0, 60, 0
2, 112832, Note_on_c, 0, 82, 0
2, 112843, Note_on_c, 0, 56, 0
2, 113098, Note_on_c, 0, 60, 52
2, 113099, Note_on_c, 0, 65, 62
2, 113100, Note_on_c, 0, 53, 59
2, 113115, Control_c, 0, 64, 0
2, 113116, Note_on_c, 0, 60, 0
2, 113126, Note_on_c, 0, 65, 0
2, 113142, Note_on_c, 0, 53, 0
2, 113159, Note_on_c, 0, 56, 51
2, 113168, Note_on_c, 0, 56, 0
2, 113219, Note_on_c, 0, 65, 64
2, 113219, Note_on_c, 0, 60, 64
2, 113219, Note_on_c, 0, 68, 67
2, 113220, Note_on_c, 0, 63, 55
2, 113223, Note_on_c, 0, 58, 54
2, 113227, Note_on_c, 0, 60, 0
2, 113229, Note_on_c, 0, 65, 0
2, 113231, Note_on_c, 0, 63, 0
2, 113231, Note_on_c, 0, 58, 0
2, 113234, Note_on_c, 0, 68, 0
2, 113337, Note_on_c, 0, 63, 72
2, 113338, Note_on_c, 0, 60, 77
2, 113339, Note_on_c, 0, 70, 78
2, 113339, Note_on_c, 0, 58, 71
2, 113340, Note_on_c, 0, 65, 68
2, 113376, Note_on_c, 0, 70, 0
2, 113379, Note_on_c, 0, 65, 0
2, 113384, Note_on_c, 0, 58, 0
2, 113392, Note_on_c, 0, 56, 60
2, 113395, Note_on_c, 0, 68, 54
2, 113409, Note_on_c, 0, 60, 0
2, 113420, Note_on_c, 0, 63, 0
2, 113427, Note_on_c, 0, 68, 0
2, 113431, Note_on_c, 0, 56, 0
2, 113463, Note_on_c, 0, 53, 40
2, 113471, Note_on_c, 0, 53, 0
2, 113515, Note_on_c, 0, 63, 58
2, 113518, Note_on_c, 0, 60, 71
2, 113518, Note_on_c, 0, 70, 69
2, 113519, Note_on_c, 0, 58, 60
2, 113520, Note_on_c, 0, 65, 64
2, 113564, Note_on_c, 0, 70, 0
2, 113570, Note_on_c, 0, 65, 0
2, 113575, Note_on_c, 0, 58, 0
2, 113578, Note_on_c, 0, 68, 63
2, 113579, Note_on_c, 0, 56, 63
2, 113610, Note_on_c, 0, 60, 0
2, 113616, Note_on_c, 0, 63, 0
2, 113635, Note_on_c, 0, 56, 0
2, 113639, Note_on_c, 0, 53, 51
2, 113641, Note_on_c, 0, 68, 0
2, 113641, Note_on_c, 0, 60, 50
2, 113645, Note_on_c, 0, 53, 0
2, 113652, Note_on_c, 0, 60, 0
2, 113753, Note_on_c, 0, 63, 56
2, 113753, Note_on_c, 0, 56, 57
2, 113755, Note_on_c, 0, 67, 61
2, 113756, Note_on_c, 0, 60, 71
2, 113756, Note_on_c, 0, 55, 64
2, 113783, Note_on_c, 0, 67, 0
2, 113803, Note_on_c, 0, 60, 0
2, 113806, Note_on_c, 0, 56, 0
2, 113807, Note_on_c, 0, 63, 0
2, 113819, Note_on_c, 0, 56, 55
2, 113820, Note_on_c, 0, 66, 65
2, 113822, Note_on_c, 0, 55, 0
2, 113826, Note_on_c, 0, 54, 59
2, 113826, Note_on_c, 0, 63, 45
2, 113827, Note_on_c, 0, 60, 49
2, 113850, Note_on_c, 0, 66, 0
2, 113851, Note_on_c, 0, 60, 0
2, 113863, Note_on_c, 0, 56, 0
2, 113867, Note_on_c, 0, 63, 0
2, 113872, Note_on_c, 0, 54, 0
2, 113876, Note_on_c, 0, 56, 38
2, 113880, Note_on_c, 0, 60, 51
2, 113880, Note_on_c, 0, 65, 60
2, 113881, Note_on_c, 0, 53, 60
2, 113899, Note_on_c, 0, 65, 0
2, 113912, Note_on_c, 0, 60, 0
2, 113913, Note_on_c, 0, 56, 0
2, 113933, Note_on_c, 0, 53, 0
2, 113941, Note_on_c, 0, 46, 56
2, 113961, Note_on_c, 0, 46, 0
2, 113995, Note_on_c, 0, 56, 54
2, 113997, Note_on_c, 0, 63, 60
2, 114000, Note_on_c, 0, 60, 66
2, 114000, Note_on_c, 0, 53, 60
2, 114073, Note_on_c, 0, 60, 0
2, 114093, Note_on_c, 0, 56, 0
2, 114117, Note_on_c, 0, 56, 45
2, 114118, Note_on_c, 0, 46, 53
2, 114122, Note_on_c, 0, 60, 56
2, 114126, Note_on_c, 0, 53, 0
2, 114131, Note_on_c, 0, 60, 0
2, 114135, Note_on_c, 0, 56, 0
2, 114145, Note_on_c, 0, 63, 0
2, 114180, Note_on_c, 0, 46, 0
2, 114182, Note_on_c, 0, 56, 85
2, 114183, Note_on_c, 0, 60, 91
2, 114183, Note_on_c, 0, 63, 88
2, 114186, Note_on_c, 0, 53, 84
2, 114263, Note_on_c, 0, 60, 0
2, 114285, Note_on_c, 0, 56, 0
2, 114307, Note_on_c, 0, 46, 59
2, 114309, Note_on_c, 0, 56, 52
2, 114309, Note_on_c, 0, 60, 72
2, 114319, Note_on_c, 0, 53, 0
2, 114371, Note_on_c, 0, 60, 0
2, 114379, Note_on_c, 0, 56, 0
2, 114403, Note_on_c, 0, 63, 0
2, 114423, Note_on_c, 0, 56, 69
2, 114423, Note_on_c, 0, 62, 82
2, 114424, Note_on_c, 0, 58, 70
2, 114427, Note_on_c, 0, 53, 66
2, 114471, Note_on_c, 0, 53, 0
2, 114485, Note_on_c, 0, 46, 0
2, 114493, Control_c, 0, 64, 127
2, 114524, Note_on_c, 0, 58, 0
2, 114525, Note_on_c, 0, 56, 0
2, 114543, Note_on_c, 0, 56, 64
2, 114543, Note_on_c, 0, 58, 70
2, 114546, Note_on_c, 0, 46, 50
2, 114563, Note_on_c, 0, 46, 0
2, 114563, Control_c, 0, 64, 0
2, 114596, Control_c, 0, 64, 127
2, 114636, Control_c, 0, 64, 0
2, 114649, Note_on_c, 0, 34, 67
2, 114651, Control_c, 0, 64, 127
2, 114663, Note_on_c, 0, 34, 0
2, 114663, Note_on_c, 0, 58, 0
2, 114673, Note_on_c, 0, 56, 0
2, 114677, Note_on_c, 0, 62, 0
2, 114717, Control_c, 0, 64, 0
2, 114717, Note_on_c, 0, 56, 103
2, 114718, Note_on_c, 0, 63, 101
2, 114719, Note_on_c, 0, 60, 93
2, 114720, Note_on_c, 0, 46, 99
2, 114862, Note_on_c, 0, 56, 0
2, 114866, Note_on_c, 0, 60, 0
2, 114866, Control_c, 0, 64, 127
2, 114868, Note_on_c, 0, 46, 0
2, 114879, Note_on_c, 0, 63, 0
2, 114892, Control_c, 0, 64, 0
2, 114898, Note_on_c, 0, 46, 96
2, 114898, Note_on_c, 0, 63, 89
2, 114898, Note_on_c, 0, 60, 100
2, 114898, Note_on_c, 0, 56, 88
2, 114998, Control_c, 0, 64, 127
2, 115054, Note_on_c, 0, 56, 0
2, 115057, Control_c, 0, 64, 0
2, 115071, Note_on_c, 0, 60, 0
2, 115077, Note_on_c, 0, 56, 39
2, 115081, Note_on_c, 0, 63, 0
2, 115083, Note_on_c, 0, 41, 37
2, 115092, Note_on_c, 0, 41, 0
2, 115092, Note_on_c, 0, 46, 0
2, 115094, Note_on_c, 0, 56, 0
2, 115141, Note_on_c, 0, 46, 71
2, 115141, Note_on_c, 0, 56, 77
2, 115141, Note_on_c, 0, 63, 79
2, 115141, Note_on_c, 0, 60, 86
2, 115260, Note_on_c, 0, 34, 54
2, 115282, Note_on_c, 0, 34, 0
2, 115308, Note_on_c, 0, 56, 0
2, 115320, Note_on_c, 0, 34, 56
2, 115328, Note_on_c, 0, 60, 0
2, 115340, Note_on_c, 0, 46, 0
2, 115363, Note_on_c, 0, 63, 0
2, 115379, Note_on_c, 0, 62, 70
2, 115379, Note_on_c, 0, 56, 57
2, 115380, Note_on_c, 0, 58, 65
2, 115381, Note_on_c, 0, 46, 59
2, 115434, Note_on_c, 0, 34, 0
2, 115502, Note_on_c, 0, 34, 81
2, 115560, Note_on_c, 0, 62, 0
2, 115560, Note_on_c, 0, 56, 0
2, 115562, Note_on_c, 0, 58, 0
2, 115680, Note_on_c, 0, 34, 0
2, 115680, Note_on_c, 0, 46, 0
2, 115680, End_track
3, 0, Start_track
3, 0, Title_t, "Dizzy Gillespie"
3, 0, Program_c, 1, 32
3, 0, Control_c, 1, 7, 127
3, 0, Control_c, 1, 10, 64
3, 476, Note_on_c, 1, 34, 50
3, 677, Note_on_c, 1, 46, 67
3, 703, Note_on_c, 1, 34, 0
3, 881, Note_on_c, 1, 34, 57
3, 899, Note_on_c, 1, 46, 0
3, 1136, Note_on_c, 1, 46, 77
3, 1265, Note_on_c, 1, 34, 0
3, 1332, Note_on_c, 1, 41, 29
3, 1349, Note_on_c, 1, 41, 0
3, 1448, Note_on_c, 1, 34, 67
3, 1537, Note_on_c, 1, 46, 0
3, 1626, Note_on_c, 1, 46, 77
3, 1648, Note_on_c, 1, 34, 0
3, 1861, Note_on_c, 1, 34, 61
3, 1878, Note_on_c, 1, 46, 0
3, 2102, Note_on_c, 1, 44, 83
3, 2103, Note_on_c, 1, 34, 0
3, 2213, Note_on_c, 1, 44, 0
3, 2221, Note_on_c, 1, 33, 68
3, 2286, Note_on_c, 1, 33, 0
3, 2286, Note_on_c, 1, 45, 65
3, 2343, Note_on_c, 1, 34, 67
3, 2355, Note_on_c, 1, 45, 0
3, 2377, Note_on_c, 1, 34, 0
3, 2405, Note_on_c, 1, 46, 82
3, 2416, Note_on_c, 1, 47, 49
3, 2426, Note_on_c, 1, 47, 0
3, 2584, Note_on_c, 1, 34, 71
3, 2693, Note_on_c, 1, 46, 0
3, 2728, Note_on_c, 1, 41, 36
3, 2744, Note_on_c, 1, 41, 0
3, 2760, Note_on_c, 1, 34, 0
3, 2762, Note_on_c, 1, 46, 78
3, 2948, Note_on_c, 1, 41, 66
3, 2951, Note_on_c, 1, 46, 0
3, 3116, Note_on_c, 1, 44, 63
3, 3127, Note_on_c, 1, 41, 0
3, 3179, Note_on_c, 1, 44, 0
3, 3237, Note_on_c, 1, 45, 39
3, 3261, Note_on_c, 1, 45, 0
3, 3309, Note_on_c, 1, 46, 81
3, 3540, Note_on_c, 1, 46, 0
3, 3546, Note_on_c, 1, 44, 85
3, 3791, Note_on_c, 1, 43, 85
3, 3832, Note_on_c, 1, 44, 0
3, 4021, Note_on_c, 1, 42, 90
3, 4038, Note_on_c, 1, 43, 0
3, 4191, Note_on_c, 1, 41, 68
3, 4194, Note_on_c, 1, 42, 0
3, 4309, Note_on_c, 1, 41, 0
3, 4313, Note_on_c, 1, 34, 76
3, 4508, Note_on_c, 1, 46, 84
3, 4580, Note_on_c, 1, 34, 0
3, 4620, Note_on_c, 1, 46, 0
3, 4631, Note_on_c, 1, 41, 46
3, 4644, Note_on_c, 1, 41, 0
3, 4681, Note_on_c, 1, 44, 79
3, 4768, Note_on_c, 1, 44, 0
3, 4794, Note_on_c, 1, 46, 77
3, 4983, Note_on_c, 1, 46, 0
3, 5111, Note_on_c, 1, 44, 82
3, 5171, Note_on_c, 1, 32, 50
3, 5181, Note_on_c, 1, 32, 0
3, 5182, Note_on_c, 1, 44, 0
3, 5221, Note_on_c, 1, 45, 71
3, 5243, Note_on_c, 1, 45, 0
3, 5285, Note_on_c, 1, 46, 83
3, 5470, Note_on_c, 1, 41, 54
3, 5473, Note_on_c, 1, 46, 0
3, 5641, Note_on_c, 1, 41, 0
3, 5642, Note_on_c, 1, 34, 64
3, 5832, Note_on_c, 1, 34, 0
3, 5872, Note_on_c, 1, 32, 71
3, 6039, Note_on_c, 1, 32, 0
3, 6054, Note_on_c, 1, 33, 74
3, 6220, Note_on_c, 1, 33, 0
3, 6236, Note_on_c, 1, 34, 54
3, 6403, Note_on_c, 1, 34, 0
3, 6415, Note_on_c, 1, 41, 47
3, 6456, Note_on_c, 1, 41, 0
3, 6478, Note_on_c, 1, 46, 77
3, 6625, Note_on_c, 1, 46, 0
3, 6655, Note_on_c, 1, 46, 73
3, 6780, Note_on_c, 1, 46, 0
3, 6787, Note_on_c, 1, 41, 44
3, 6813, Note_on_c, 1, 41, 0
3, 6848, Note_on_c, 1, 44, 82
3, 6987, Note_on_c, 1, 44, 0
3, 7011, Note_on_c, 1, 45, 74
3, 7147, Note_on_c, 1, 45, 0
3, 7159, Note_on_c, 1, 41, 24
3, 7176, Note_on_c, 1, 41, 0
3, 7199, Note_on_c, 1, 46, 74
3, 7370, Note_on_c, 1, 46, 0
3, 7392, Note_on_c, 1, 60, 62
3, 7394, Note_on_c, 1, 44, 71
3, 7548, Note_on_c, 1, 44, 0
3, 7585, Note_on_c, 1, 60, 0
3, 7593, Note_on_c, 1, 58, 29
3, 7602, Note_on_c, 1, 43, 55
3, 7603, Note_on_c, 1, 58, 0
3, 7613, Note_on_c, 1, 43, 0
3, 7761, Note_on_c, 1, 58, 65
3, 7765, Note_on_c, 1, 42, 58
3, 7878, Note_on_c, 1, 39, 35
3, 7888, Note_on_c, 1, 58, 0
3, 7911, Note_on_c, 1, 39, 0
3, 7911, Note_on_c, 1, 42, 0
3, 7915, Note_on_c, 1, 57, 57
3, 7916, Note_on_c, 1, 41, 66
3, 7985, Note_on_c, 1, 41, 0
3, 8023, Note_on_c, 1, 44, 74
3, 8030, Note_on_c, 1, 57, 0
3, 8052, Note_on_c, 1, 44, 0
3, 8052, Note_on_c, 1, 43, 40
3, 8104, Note_on_c, 1, 43, 0
3, 8112, Note_on_c, 1, 44, 83
3, 8343, Note_on_c, 1, 39, 64
3, 8349, Note_on_c, 1, 44, 0
3, 8505, Note_on_c, 1, 39, 0
3, 8517, Note_on_c, 1, 37, 69
3, 8829, Note_on_c, 1, 44, 74
3, 8844, Note_on_c, 1, 37, 0
3, 8976, Note_on_c, 1, 44, 0
3, 9000, Note_on_c, 1, 42, 53
3, 9301, Note_on_c, 1, 37, 60
3, 9337, Note_on_c, 1, 42, 0
3, 9475, Note_on_c, 1, 30, 64
3, 9487, Note_on_c, 1, 37, 0
3, 9774, Note_on_c, 1, 30, 0
3, 9777, Note_on_c, 1, 37, 73
3, 9960, Note_on_c, 1, 34, 65
3, 9965, Note_on_c, 1, 37, 0
3, 10263, Note_on_c, 1, 46, 77
3, 10409, Note_on_c, 1, 34, 0
3, 10440, Note_on_c, 1, 46, 0
3, 10440, Note_on_c, 1, 39, 69
3, 10734, Note_on_c, 1, 46, 72
3, 10766, Note_on_c, 1, 39, 0
3, 10915, Note_on_c, 1, 44, 72
3, 10920, Note_on_c, 1, 46, 0
3, 11213, Note_on_c, 1, 39, 67
3, 11216, Note_on_c, 1, 44, 0
3, 11397, Note_on_c, 1, 32, 60
3, 11409, Note_on_c, 1, 39, 0
3, 11699, Note_on_c, 1, 39, 67
3, 11714, Note_on_c, 1, 32, 0
3, 11875, Note_on_c, 1, 44, 77
3, 11889, Note_on_c, 1, 39, 0
3, 12183, Note_on_c, 1, 39, 68
3, 12187, Note_on_c, 1, 44, 0
3, 12349, Note_on_c, 1, 39, 0
3, 12355, Note_on_c, 1, 37, 71
3, 12666, Note_on_c, 1, 44, 68
3, 12695, Note_on_c, 1, 37, 0
3, 12839, Note_on_c, 1, 42, 67
3, 12850, Note_on_c, 1, 44, 0
3, 13110, Note_on_c, 1, 42, 0
3, 13151, Note_on_c, 1, 42, 67
3, 13285, Note_on_c, 1, 42, 0
3, 13321, Note_on_c, 1, 42, 67
3, 13618, Note_on_c, 1, 35, 65
3, 13620, Note_on_c, 1, 42, 0
3, 13790, Note_on_c, 1, 35, 0
3, 13792, Note_on_c, 1, 41, 87
3, 14197, Note_on_c, 1, 41, 0
3, 14263, Note_on_c, 1, 34, 65
3, 14579, Note_on_c, 1, 46, 74
3, 14678, Note_on_c, 1, 34, 0
3, 14695, Note_on_c, 1, 46, 0
3, 14702, Note_on_c, 1, 41, 50
3, 14720, Note_on_c, 1, 41, 0
3, 14756, Note_on_c, 1, 44, 70
3, 14864, Note_on_c, 1, 44, 0
3, 14875, Note_on_c, 1, 42, 67
3, 15046, Note_on_c, 1, 42, 0
3, 15062, Note_on_c, 1, 39, 55
3, 15233, Note_on_c, 1, 39, 0
3, 15242, Note_on_c, 1, 42, 72
3, 15531, Note_on_c, 1, 35, 66
3, 15534, Note_on_c, 1, 42, 0
3, 15675, Note_on_c, 1, 35, 0
3, 15712, Note_on_c, 1, 33, 60
3, 15827, Note_on_c, 1, 33, 0
3, 15836, Note_on_c, 1, 34, 59
3, 16027, Note_on_c, 1, 46, 36
3, 16123, Note_on_c, 1, 46, 0
3, 16197, Note_on_c, 1, 46, 63
3, 16225, Note_on_c, 1, 34, 0
3, 16380, Note_on_c, 1, 46, 0
3, 16387, Note_on_c, 1, 32, 74
3, 16593, Note_on_c, 1, 32, 0
3, 16623, Note_on_c, 1, 32, 52
3, 16625, Note_on_c, 1, 48, 70
3, 16652, Note_on_c, 1, 48, 0
3, 16674, Note_on_c, 1, 32, 0
3, 16676, Note_on_c, 1, 49, 60
3, 16684, Note_on_c, 1, 33, 60
3, 16777, Note_on_c, 1, 49, 0
3, 16801, Note_on_c, 1, 33, 0
3, 16806, Note_on_c, 1, 34, 67
3, 16988, Note_on_c, 1, 46, 69
3, 17069, Note_on_c, 1, 34, 0
3, 17077, Note_on_c, 1, 46, 0
3, 17161, Note_on_c, 1, 34, 79
3, 17346, Note_on_c, 1, 46, 64
3, 17366, Note_on_c, 1, 34, 0
3, 17418, Note_on_c, 1, 46, 0
3, 17459, Note_on_c, 1, 34, 59
3, 17489, Note_on_c, 1, 34, 0
3, 17523, Note_on_c, 1, 32, 65
3, 17552, Note_on_c, 1, 32, 0
3, 17583, Note_on_c, 1, 32, 64
3, 17635, Note_on_c, 1, 32, 0
3, 17641, Note_on_c, 1, 33, 64
3, 17756, Note_on_c, 1, 33, 0
3, 17767, Note_on_c, 1, 34, 57
3, 17949, Note_on_c, 1, 46, 84
3, 17986, Note_on_c, 1, 34, 0
3, 18116, Note_on_c, 1, 34, 78
3, 18136, Note_on_c, 1, 46, 0
3, 18306, Note_on_c, 1, 46, 84
3, 18448, Note_on_c, 1, 46, 0
3, 18455, Note_on_c, 1, 34, 0
3, 18545, Note_on_c, 1, 32, 69
3, 18579, Note_on_c, 1, 32, 0
3, 18604, Note_on_c, 1, 33, 55
3, 18636, Note_on_c, 1, 33, 0
3, 18722, Note_on_c, 1, 46, 82
3, 18878, Note_on_c, 1, 46, 0
3, 18909, Note_on_c, 1, 44, 84
3, 19073, Note_on_c, 1, 44, 0
3, 19094, Note_on_c, 1, 43, 85
3, 19274, Note_on_c, 1, 42, 87
3, 19290, Note_on_c, 1, 43, 0
3, 19436, Note_on_c, 1, 42, 0
3, 19446, Note_on_c, 1, 41, 67
3, 19502, Note_on_c, 1, 41, 0
3, 19511, Note_on_c, 1, 32, 72
3, 19540, Note_on_c, 1, 32, 0
3, 19569, Note_on_c, 1, 33, 78
3, 19621, Note_on_c, 1, 33, 0
3, 19680, Note_on_c, 1, 46, 100
3, 19800, Note_on_c, 1, 46, 0
3, 19867, Note_on_c, 1, 41, 77
3, 20028, Note_on_c, 1, 41, 0
3, 20032, Note_on_c, 1, 34, 69
3, 20332, Note_on_c, 1, 41, 70
3, 20335, Note_on_c, 1, 34, 0
3, 20524, Note_on_c, 1, 41, 0
3, 20528, Note_on_c, 1, 46, 81
3, 20834, Note_on_c, 1, 41, 82
3, 20844, Note_on_c, 1, 46, 0
3, 21007, Note_on_c, 1, 34, 71
3, 21013, Note_on_c, 1, 41, 0
3, 21178, Note_on_c, 1, 33, 25
3, 21201, Note_on_c, 1, 33, 0
3, 21203, Note_on_c, 1, 34, 0
3, 21239, Note_on_c, 1, 32, 69
3, 21400, Note_on_c, 1, 32, 0
3, 21421, Note_on_c, 1, 34, 74
3, 21785, Note_on_c, 1, 41, 69
3, 21873, Note_on_c, 1, 34, 0
3, 21955, Note_on_c, 1, 41, 0
3, 21959, Note_on_c, 1, 46, 84
3, 22262, Note_on_c, 1, 41, 74
3, 22265, Note_on_c, 1, 46, 0
3, 22436, Note_on_c, 1, 34, 74
3, 22445, Note_on_c, 1, 41, 0
3, 22742, Note_on_c, 1, 41, 79
3, 22751, Note_on_c, 1, 34, 0
3, 22915, Note_on_c, 1, 41, 0
3, 22920, Note_on_c, 1, 46, 80
3, 23225, Note_on_c, 1, 41, 74
3, 23238, Note_on_c, 1, 46, 0
3, 23394, Note_on_c, 1, 34, 75
3, 23406, Note_on_c, 1, 41, 0
3, 23699, Note_on_c, 1, 41, 68
3, 23733, Note_on_c, 1, 34, 0
3, 23873, Note_on_c, 1, 46, 75
3, 23886, Note_on_c, 1, 41, 0
3, 24181, Note_on_c, 1, 41, 74
3, 24191, Note_on_c, 1, 46, 0
3, 24347, Note_on_c, 1, 34, 71
3, 24355, Note_on_c, 1, 41, 0
3, 24657, Note_on_c, 1, 41, 80
3, 24679, Note_on_c, 1, 34, 0
3, 24833, Note_on_c, 1, 41, 0
3, 24837, Note_on_c, 1, 46, 83
3, 25147, Note_on_c, 1, 41, 82
3, 25157, Note_on_c, 1, 46, 0
3, 25321, Note_on_c, 1, 34, 77
3, 25333, Note_on_c, 1, 41, 0
3, 25620, Note_on_c, 1, 41, 82
3, 25634, Note_on_c, 1, 34, 0
3, 25800, Note_on_c, 1, 46, 73
3, 25813, Note_on_c, 1, 41, 0
3, 26089, Note_on_c, 1, 41, 80
3, 26104, Note_on_c, 1, 46, 0
3, 26280, Note_on_c, 1, 34, 71
3, 26282, Note_on_c, 1, 41, 0
3, 26576, Note_on_c, 1, 41, 74
3, 26596, Note_on_c, 1, 34, 0
3, 26760, Note_on_c, 1, 46, 83
3, 26779, Note_on_c, 1, 41, 0
3, 27051, Note_on_c, 1, 41, 73
3, 27054, Note_on_c, 1, 46, 0
3, 27241, Note_on_c, 1, 44, 83
3, 27245, Note_on_c, 1, 41, 0
3, 27527, Note_on_c, 1, 39, 74
3, 27547, Note_on_c, 1, 44, 0
3, 27714, Note_on_c, 1, 39, 0
3, 27725, Note_on_c, 1, 37, 70
3, 28017, Note_on_c, 1, 37, 0
3, 28030, Note_on_c, 1, 42, 63
3, 28158, Note_on_c, 1, 42, 0
3, 28192, Note_on_c, 1, 42, 77
3, 28500, Note_on_c, 1, 37, 70
3, 28515, Note_on_c, 1, 42, 0
3, 28671, Note_on_c, 1, 30, 70
3, 28680, Note_on_c, 1, 37, 0
3, 28985, Note_on_c, 1, 37, 71
3, 29014, Note_on_c, 1, 30, 0
3, 29165, Note_on_c, 1, 34, 69
3, 29168, Note_on_c, 1, 37, 0
3, 29467, Note_on_c, 1, 46, 81
3, 29613, Note_on_c, 1, 34, 0
3, 29634, Note_on_c, 1, 46, 0
3, 29641, Note_on_c, 1, 39, 74
3, 29950, Note_on_c, 1, 51, 71
3, 29986, Note_on_c, 1, 39, 0
3, 30098, Note_on_c, 1, 51, 0
3, 30112, Note_on_c, 1, 44, 81
3, 30420, Note_on_c, 1, 39, 73
3, 30427, Note_on_c, 1, 44, 0
3, 30599, Note_on_c, 1, 32, 76
3, 30602, Note_on_c, 1, 39, 0
3, 30904, Note_on_c, 1, 39, 77
3, 30921, Note_on_c, 1, 32, 0
3, 31083, Note_on_c, 1, 44, 83
3, 31108, Note_on_c, 1, 39, 0
3, 31391, Note_on_c, 1, 47, 80
3, 31432, Note_on_c, 1, 44, 0
3, 31539, Note_on_c, 1, 39, 25
3, 31544, Note_on_c, 1, 47, 0
3, 31552, Note_on_c, 1, 39, 0
3, 31563, Note_on_c, 1, 49, 78
3, 31817, Note_on_c, 1, 37, 18
3, 31829, Note_on_c, 1, 37, 0
3, 31871, Note_on_c, 1, 44, 77
3, 31893, Note_on_c, 1, 49, 0
3, 32038, Note_on_c, 1, 44, 0
3, 32043, Note_on_c, 1, 42, 79
3, 32344, Note_on_c, 1, 37, 74
3, 32355, Note_on_c, 1, 42, 0
3, 32518, Note_on_c, 1, 42, 80
3, 32534, Note_on_c, 1, 37, 0
3, 32827, Note_on_c, 1, 35, 77
3, 32837, Note_on_c, 1, 42, 0
3, 32998, Note_on_c, 1, 41, 87
3, 33013, Note_on_c, 1, 35, 0
3, 33310, Note_on_c, 1, 36, 83
3, 33328, Note_on_c, 1, 41, 0
3, 33462, Note_on_c, 1, 36, 0
3, 33476, Note_on_c, 1, 34, 69
3, 33782, Note_on_c, 1, 46, 83
3, 33900, Note_on_c, 1, 34, 0
3, 33950, Note_on_c, 1, 46, 0
3, 33961, Note_on_c, 1, 39, 74
3, 34263, Note_on_c, 1, 46, 81
3, 34286, Note_on_c, 1, 39, 0
3, 34429, Note_on_c, 1, 46, 0
3, 34436, Note_on_c, 1, 42, 78
3, 34740, Note_on_c, 1, 42, 0
3, 34742, Note_on_c, 1, 47, 66
3, 34871, Note_on_c, 1, 42, 49
3, 34880, Note_on_c, 1, 47, 0
3, 34904, Note_on_c, 1, 42, 0
3, 34930, Note_on_c, 1, 45, 82
3, 35007, Note_on_c, 1, 45, 0
3, 35045, Note_on_c, 1, 46, 72
3, 35224, Note_on_c, 1, 34, 71
3, 35333, Note_on_c, 1, 34, 0
3, 35403, Note_on_c, 1, 34, 75
3, 35577, Note_on_c, 1, 46, 0
3, 35699, Note_on_c, 1, 46, 83
3, 35823, Note_on_c, 1, 34, 0
3, 35860, Note_on_c, 1, 46, 0
3, 35880, Note_on_c, 1, 46, 76
3, 36182, Note_on_c, 1, 41, 74
3, 36186, Note_on_c, 1, 46, 0
3, 36366, Note_on_c, 1, 34, 69
3, 36381, Note_on_c, 1, 41, 0
3, 36662, Note_on_c, 1, 41, 74
3, 36680, Note_on_c, 1, 34, 0
3, 36847, Note_on_c, 1, 46, 79
3, 36853, Note_on_c, 1, 41, 0
3, 37138, Note_on_c, 1, 41, 75
3, 37143, Note_on_c, 1, 46, 0
3, 37313, Note_on_c, 1, 41, 0
3, 37317, Note_on_c, 1, 34, 75
3, 37618, Note_on_c, 1, 41, 79
3, 37641, Note_on_c, 1, 34, 0
3, 37804, Note_on_c, 1, 46, 87
3, 37821, Note_on_c, 1, 41, 0
3, 38231, Note_on_c, 1, 41, 78
3, 38237, Note_on_c, 1, 46, 0
3, 38513, Note_on_c, 1, 34, 60
3, 38526, Note_on_c, 1, 41, 0
3, 38649, Note_on_c, 1, 34, 0
3, 38712, Note_on_c, 1, 32, 65
3, 38749, Note_on_c, 1, 32, 0
3, 38764, Note_on_c, 1, 33, 67
3, 38806, Note_on_c, 1, 33, 0
3, 38880, Note_on_c, 1, 46, 100
3, 39000, Note_on_c, 1, 46, 0
3, 39060, Note_on_c, 1, 41, 77
3, 39221, Note_on_c, 1, 41, 0
3, 39225, Note_on_c, 1, 34, 69
3, 39525, Note_on_c, 1, 41, 70
3, 39528, Note_on_c, 1, 34, 0
3, 39717, Note_on_c, 1, 41, 0
3, 39721, Note_on_c, 1, 46, 81
3, 40027, Note_on_c, 1, 41, 82
3, 40037, Note_on_c, 1, 46, 0
3, 40200, Note_on_c, 1, 34, 71
3, 40206, Note_on_c, 1, 41, 0
3, 40371, Note_on_c, 1, 33, 25
3, 40394, Note_on_c, 1, 33, 0
3, 40396, Note_on_c, 1, 34, 0
3, 40432, Note_on_c, 1, 32, 69
3, 40593, Note_on_c, 1, 32, 0
3, 40614, Note_on_c, 1, 34, 74
3, 40978, Note_on_c, 1, 41, 69
3, 41066, Note_on_c, 1, 34, 0
3, 41148, Note_on_c, 1, 41, 0
3, 41152, Note_on_c, 1, 46, 84
3, 41455, Note_on_c, 1, 41, 74
3, 41458, Note_on_c, 1, 46, 0
3, 41629, Note_on_c, 1, 34, 74
3, 41638, Note_on_c, 1, 41, 0
3, 41935, Note_on_c, 1, 41, 79
3, 41944, Note_on_c, 1, 34, 0
3, 42108, Note_on_c, 1, 41, 0
3, 42113, Note_on_c, 1, 46, 80
3, 42418, Note_on_c, 1, 41, 74
3, 42431, Note_on_c, 1, 46, 0
3, 42587, Note_on_c, 1, 34, 75
3, 42599, Note_on_c, 1, 41, 0
3, 42892, Note_on_c, 1, 41, 68
3, 42926, Note_on_c, 1, 34, 0
3, 43066, Note_on_c, 1, 46, 75
3, 43079, Note_on_c, 1, 41, 0
3, 43374, Note_on_c, 1, 41, 74
3, 43384, Note_on_c, 1, 46, 0
3, 43540, Note_on_c, 1, 34, 71
3, 43548, Note_on_c, 1, 41, 0
3, 43850, Note_on_c, 1, 41, 80
3, 43872, Note_on_c, 1, 34, 0
3, 44026, Note_on_c, 1, 41, 0
3, 44030, Note_on_c, 1, 46, 83
3, 44340, Note_on_c, 1, 41, 82
3, 44350, Note_on_c, 1, 46, 0
3, 44514, Note_on_c, 1, 34, 77
3, 44526, Note_on_c, 1, 41, 0
3, 44813, Note_on_c, 1, 41, 82
3, 44827, Note_on_c, 1, 34, 0
3, 44993, Note_on_c, 1, 46, 73
3, 45006, Note_on_c, 1, 41, 0
3, 45282, Note_on_c, 1, 41, 80
3, 45297, Note_on_c, 1, 46, 0
3, 45473, Note_on_c, 1, 34, 71
3, 45475, Note_on_c, 1, 41, 0
3, 45769, Note_on_c, 1, 41, 74
3, 45789, Note_on_c, 1, 34, 0
3, 45953, Note_on_c, 1, 46, 83
3, 45972, Note_on_c, 1, 41, 0
3, 46244, Note_on_c, 1, 41, 73
3, 46247, Note_on_c, 1, 46, 0
3, 46434, Note_on_c, 1, 44, 83
3, 46438, Note_on_c, 1, 41, 0
3, 46720, Note_on_c, 1, 39, 74
3, 46740, Note_on_c, 1, 44, 0
3, 46907, Note_on_c, 1, 39, 0
3, 46918, Note_on_c, 1, 37, 70
3, 47210, Note_on_c, 1, 37, 0
3, 47223, Note_on_c, 1, 42, 63
3, 47351, Note_on_c, 1, 42, 0
3, 47385, Note_on_c, 1, 42, 77
3, 47693, Note_on_c, 1, 37, 70
3, 47708, Note_on_c, 1, 42, 0
3, 47864, Note_on_c, 1, 30, 70
3, 47873, Note_on_c, 1, 37, 0
3, 48178, Note_on_c, 1, 37, 71
3, 48207, Note_on_c, 1, 30, 0
3, 48358, Note_on_c, 1, 34, 69
3, 48361, Note_on_c, 1, 37, 0
3, 48660, Note_on_c, 1, 46, 81
3, 48806, Note_on_c, 1, 34, 0
3, 48827, Note_on_c, 1, 46, 0
3, 48834, Note_on_c, 1, 39, 74
3, 49143, Note_on_c, 1, 51, 71
3, 49179, Note_on_c, 1, 39, 0
3, 49291, Note_on_c, 1, 51, 0
3, 49305, Note_on_c, 1, 44, 81
3, 49613, Note_on_c, 1, 39, 73
3, 49620, Note_on_c, 1, 44, 0
3, 49792, Note_on_c, 1, 32, 76
3, 49795, Note_on_c, 1, 39, 0
3, 50097, Note_on_c, 1, 39, 77
3, 50114, Note_on_c, 1, 32, 0
3, 50276, Note_on_c, 1, 44, 83
3, 50301, Note_on_c, 1, 39, 0
3, 50584, Note_on_c, 1, 47, 80
3, 50625, Note_on_c, 1, 44, 0
3, 50732, Note_on_c, 1, 39, 25
3, 50737, Note_on_c, 1, 47, 0
3, 50745, Note_on_c, 1, 39, 0
3, 50756, Note_on_c, 1, 49, 78
3, 51010, Note_on_c, 1, 37, 18
3, 51022, Note_on_c, 1, 37, 0
3, 51064, Note_on_c, 1, 44, 77
3, 51086, Note_on_c, 1, 49, 0
3, 51231, Note_on_c, 1, 44, 0
3, 51236, Note_on_c, 1, 42, 79
3, 51537, Note_on_c, 1, 37, 74
3, 51548, Note_on_c, 1, 42, 0
3, 51711, Note_on_c, 1, 42, 80
3, 51727, Note_on_c, 1, 37, 0
3, 52020, Note_on_c, 1, 35, 77
3, 52030, Note_on_c, 1, 42, 0
3, 52191, Note_on_c, 1, 41, 87
3, 52206, Note_on_c, 1, 35, 0
3, 52503, Note_on_c, 1, 36, 83
3, 52521, Note_on_c, 1, 41, 0
3, 52655, Note_on_c, 1, 36, 0
3, 52669, Note_on_c, 1, 34, 69
3, 52975, Note_on_c, 1, 46, 83
3, 53093, Note_on_c, 1, 34, 0
3, 53143, Note_on_c, 1, 46, 0
3, 53154, Note_on_c, 1, 39, 74
3, 53456, Note_on_c, 1, 46, 81
3, 53479, Note_on_c, 1, 39, 0
3, 53622, Note_on_c, 1, 46, 0
3, 53629, Note_on_c, 1, 42, 78
3, 53933, Note_on_c, 1, 42, 0
3, 53935, Note_on_c, 1, 47, 66
3, 54064, Note_on_c, 1, 42, 49
3, 54073, Note_on_c, 1, 47, 0
3, 54097, Note_on_c, 1, 42, 0
3, 54123, Note_on_c, 1, 45, 82
3, 54200, Note_on_c, 1, 45, 0
3, 54238, Note_on_c, 1, 46, 72
3, 54417, Note_on_c, 1, 34, 71
3, 54526, Note_on_c, 1, 34, 0
3, 54596, Note_on_c, 1, 34, 75
3, 54770, Note_on_c, 1, 46, 0
3, 54892, Note_on_c, 1, 46, 83
3, 55016, Note_on_c, 1, 34, 0
3, 55053, Note_on_c, 1, 46, 0
3, 55073, Note_on_c, 1, 46, 76
3, 55375, Note_on_c, 1, 41, 74
3, 55379, Note_on_c, 1, 46, 0
3, 55559, Note_on_c, 1, 34, 69
3, 55574, Note_on_c, 1, 41, 0
3, 55855, Note_on_c, 1, 41, 74
3, 55873, Note_on_c, 1, 34, 0
3, 56040, Note_on_c, 1, 46, 79
3, 56046, Note_on_c, 1, 41, 0
3, 56331, Note_on_c, 1, 41, 75
3, 56336, Note_on_c, 1, 46, 0
3, 56506, Note_on_c, 1, 41, 0
3, 56510, Note_on_c, 1, 34, 75
3, 56811, Note_on_c, 1, 41, 79
3, 56834, Note_on_c, 1, 34, 0
3, 56997, Note_on_c, 1, 46, 87
3, 57014, Note_on_c, 1, 41, 0
3, 57424, Note_on_c, 1, 41, 78
3, 57430, Note_on_c, 1, 46, 0
3, 57706, Note_on_c, 1, 34, 60
3, 57719, Note_on_c, 1, 41, 0
3, 57842, Note_on_c, 1, 34, 0
3, 57905, Note_on_c, 1, 32, 65
3, 57942, Note_on_c, 1, 32, 0
3, 57957, Note_on_c, 1, 33, 67
3, 57999, Note_on_c, 1, 33, 0
3, 58080, Note_on_c, 1, 46, 100
3, 58200, Note_on_c, 1, 46, 0
3, 58260, Note_on_c, 1, 41, 77
3, 58421, Note_on_c, 1, 41, 0
3, 58425, Note_on_c, 1, 34, 69
3, 58725, Note_on_c, 1, 41, 70
3, 58728, Note_on_c, 1, 34, 0
3, 58917, Note_on_c, 1, 41, 0
3, 58921, Note_on_c, 1, 46, 81
3, 59227, Note_on_c, 1, 41, 82
3, 59237, Note_on_c, 1, 46, 0
3, 59400, Note_on_c, 1, 34, 71
3, 59406, Note_on_c, 1, 41, 0
3, 59571, Note_on_c, 1, 33, 25
3, 59594, Note_on_c, 1, 33, 0
3, 59596, Note_on_c, 1, 34, 0
3, 59632, Note_on_c, 1, 32, 69
3, 59793, Note_on_c, 1, 32, 0
3, 59814, Note_on_c, 1, 34, 74
3, 60178, Note_on_c, 1, 41, 69
3, 60266, Note_on_c, 1, 34, 0
3, 60348, Note_on_c, 1, 41, 0
3, 60352, Note_on_c, 1, 46, 84
3, 60655, Note_on_c, 1, 41, 74
3, 60658, Note_on_c, 1, 46, 0
3, 60829, Note_on_c, 1, 34, 74
3, 60838, Note_on_c, 1, 41, 0
3, 61135, Note_on_c, 1, 41, 79
3, 61144, Note_on_c, 1, 34, 0
3, 61308, Note_on_c, 1, 41, 0
3, 61313, Note_on_c, 1, 46, 80
3, 61618, Note_on_c, 1, 41, 74
3, 61631, Note_on_c, 1, 46, 0
3, 61787, Note_on_c, 1, 34, 75
3, 61799, Note_on_c, 1, 41, 0
3, 62092, Note_on_c, 1, 41, 68
3, 62126, Note_on_c, 1, 34, 0
3, 62266, Note_on_c, 1, 46, 75
3, 62279, Note_on_c, 1, 41, 0
3, 62574, Note_on_c, 1, 41, 74
3, 62584, Note_on_c, 1, 46, 0
3, 62740, Note_on_c, 1, 34, 71
3, 62748, Note_on_c, 1, 41, 0
3, 63050, Note_on_c, 1, 41, 80
3, 63072, Note_on_c, 1, 34, 0
3, 63226, Note_on_c, 1, 41, 0
3, 63230, Note_on_c, 1, 46, 83
3, 63540, Note_on_c, 1, 41, 82
3, 63550, Note_on_c, 1, 46, 0
3, 63714, Note_on_c, 1, 34, 77
3, 63726, Note_on_c, 1, 41, 0
3, 64013, Note_on_c, 1, 41, 82
3, 64027, Note_on_c, 1, 34, 0
3, 64193, Note_on_c, 1, 46, 73
3, 64206, Note_on_c, 1, 41, 0
3, 64482, Note_on_c, 1, 41, 80
3, 64497, Note_on_c, 1, 46, 0
3, 64673, Note_on_c, 1, 34, 71
3, 64675, Note_on_c, 1, 41, 0
3, 64969, Note_on_c, 1, 41, 74
3, 64989, Note_on_c, 1, 34, 0
3, 65153, Note_on_c, 1, 46, 83
3, 65172, Note_on_c, 1, 41, 0
3, 65444, Note_on_c, 1, 41, 73
3, 65447, Note_on_c, 1, 46, 0
3, 65634, Note_on_c, 1, 44, 83
3, 65638, Note_on_c, 1, 41, 0
3, 65920, Note_on_c, 1, 39, 74
3, 65940, Note_on_c, 1, 44, 0
3, 66107, Note_on_c, 1, 39, 0
3, 66118, Note_on_c, 1, 37, 70
3, 66410, Note_on_c, 1, 37, 0
3, 66423, Note_on_c, 1, 42, 63
3, 66551, Note_on_c, 1, 42, 0
3, 66585, Note_on_c, 1, 42, 77
3, 66893, Note_on_c, 1, 37, 70
3, 66908, Note_on_c, 1, 42, 0
3, 67064, Note_on_c, 1, 30, 70
3, 67073, Note_on_c, 1, 37, 0
3, 67378, Note_on_c, 1, 37, 71
3, 67407, Note_on_c, 1, 30, 0
3, 67558, Note_on_c, 1, 34, 69
3, 67561, Note_on_c, 1, 37, 0
3, 67860, Note_on_c, 1, 46, 81
3, 68006, Note_on_c, 1, 34, 0
3, 68027, Note_on_c, 1, 46, 0
3, 68034, Note_on_c, 1, 39, 74
3, 68343, Note_on_c, 1, 51, 71
3, 68379, Note_on_c, 1, 39, 0
3, 68491, Note_on_c, 1, 51, 0
3, 68505, Note_on_c, 1, 44, 81
3, 68813, Note_on_c, 1, 39, 73
3, 68820, Note_on_c, 1, 44, 0
3, 68992, Note_on_c, 1, 32, 76
3, 68995, Note_on_c, 1, 39, 0
3, 69297, Note_on_c, 1, 39, 77
3, 69314, Note_on_c, 1, 32, 0
3, 69476, Note_on_c, 1, 44, 83
3, 69501, Note_on_c, 1, 39, 0
3, 69784, Note_on_c, 1, 47, 80
3, 69825, Note_on_c, 1, 44, 0
3, 69932, Note_on_c, 1, 39, 25
3, 69937, Note_on_c, 1, 47, 0
3, 69945, Note_on_c, 1, 39, 0
3, 69956, Note_on_c, 1, 49, 78
3, 70210, Note_on_c, 1, 37, 18
3, 70222, Note_on_c, 1, 37, 0
3, 70264, Note_on_c, 1, 44, 77
3, 70286, Note_on_c, 1, 49, 0
3, 70431, Note_on_c, 1, 44, 0
3, 70436, Note_on_c, 1, 42, 79
3, 70737, Note_on_c, 1, 37, 74
3, 70748, Note_on_c, 1, 42, 0
3, 70911, Note_on_c, 1, 42, 80
3, 70927, Note_on_c, 1, 37, 0
3, 71220, Note_on_c, 1, 35, 77
3, 71230, Note_on_c, 1, 42, 0
3, 71391, Note_on_c, 1, 41, 87
3, 71406, Note_on_c, 1, 35, 0
3, 71703, Note_on_c, 1, 36, 83
3, 71721, Note_on_c, 1, 41, 0
3, 71855, Note_on_c, 1, 36, 0
3, 71869, Note_on_c, 1, 34, 69
3, 72175, Note_on_c, 1, 46, 83
3, 72293, Note_on_c, 1, 34, 0
3, 72343, Note_on_c, 1, 46, 0
3, 72354, Note_on_c, 1, 39, 74
3, 72656, Note_on_c, 1, 46, 81
3, 72679, Note_on_c, 1, 39, 0
3, 72822, Note_on_c, 1, 46, 0
3, 72829, Note_on_c, 1, 42, 78
3, 73133, Note_on_c, 1, 42, 0
3, 73135, Note_on_c, 1, 47, 66
3, 73264, Note_on_c, 1, 42, 49
3, 73273, Note_on_c, 1, 47, 0
3, 73297, Note_on_c, 1, 42, 0
3, 73323, Note_on_c, 1, 45, 82
3, 73400, Note_on_c, 1, 45, 0
3, 73438, Note_on_c, 1, 46, 72
3, 73617, Note_on_c, 1, 34, 71
3, 73726, Note_on_c, 1, 34, 0
3, 73796, Note_on_c, 1, 34, 75
3, 73970, Note_on_c, 1, 46, 0
3, 74092, Note_on_c, 1, 46, 83
3, 74216, Note_on_c, 1, 34, 0
3, 74253, Note_on_c, 1, 46, 0
3, 74273, Note_on_c, 1, 46, 76
3, 74575, Note_on_c, 1, 41, 74
3, 74579, Note_on_c, 1, 46, 0
3, 74759, Note_on_c, 1, 34, 69
3, 74774, Note_on_c, 1, 41, 0
3, 75055, Note_on_c, 1, 41, 74
3, 75073, Note_on_c, 1, 34, 0
3, 75240, Note_on_c, 1, 46, 79
3, 75246, Note_on_c, 1, 41, 0
3, 75531, Note_on_c, 1, 41, 75
3, 75536, Note_on_c, 1, 46, 0
3, 75706, Note_on_c, 1, 41, 0
3, 75710, Note_on_c, 1, 34, 75
3, 76011, Note_on_c, 1, 41, 79
3, 76034, Note_on_c, 1, 34, 0
3, 76197, Note_on_c, 1, 46, 87
3, 76214, Note_on_c, 1, 41, 0
3, 76624, Note_on_c, 1, 41, 78
3, 76630, Note_on_c, 1, 46, 0
3, 76906, Note_on_c, 1, 34, 60
3, 76919, Note_on_c, 1, 41, 0
3, 77042, Note_on_c, 1, 34, 0
3, 77105, Note_on_c, 1, 32, 65
3, 77142, Note_on_c, 1, 32, 0
3, 77157, Note_on_c, 1, 33, 67
3, 77199, Note_on_c, 1, 33, 0
3, 77280, Note_on_c, 1, 46, 100
3, 77460, Note_on_c, 1, 46, 0
3, 77460, Note_on_c, 1, 41, 77
3, 77621, Note_on_c, 1, 41, 0
3, 77625, Note_on_c, 1, 34, 69
3, 77925, Note_on_c, 1, 41, 70
3, 77928, Note_on_c, 1, 34, 0
3, 78117, Note_on_c, 1, 41, 0
3, 78121, Note_on_c, 1, 46, 81
3, 78427, Note_on_c, 1, 41, 82
3, 78437, Note_on_c, 1, 46, 0
3, 78600, Note_on_c, 1, 34, 71
3, 78606, Note_on_c, 1, 41, 0
3, 78771, Note_on_c, 1, 33, 25
3, 78794, Note_on_c, 1, 33, 0
3, 78796, Note_on_c, 1, 34, 0
3, 78832, Note_on_c, 1, 32, 69
3, 78993, Note_on_c, 1, 32, 0
3, 79014, Note_on_c, 1, 34, 74
3, 79378, Note_on_c, 1, 41, 69
3, 79466, Note_on_c, 1, 34, 0
3, 79548, Note_on_c, 1, 41, 0
3, 79552, Note_on_c, 1, 46, 84
3, 79855, Note_on_c, 1, 41, 74
3, 79858, Note_on_c, 1, 46, 0
3, 80029, Note_on_c, 1, 34, 74
3, 80038, Note_on_c, 1, 41, 0
3, 80335, Note_on_c, 1, 41, 79
3, 80344, Note_on_c, 1, 34, 0
3, 80508, Note_on_c, 1, 41, 0
3, 80513, Note_on_c, 1, 46, 80
3, 80818, Note_on_c, 1, 41, 74
3, 80831, Note_on_c, 1, 46, 0
3, 80987, Note_on_c, 1, 34, 75
3, 80999, Note_on_c, 1, 41, 0
3, 81292, Note_on_c, 1, 41, 68
3, 81326, Note_on_c, 1, 34, 0
3, 81466, Note_on_c, 1, 46, 75
3, 81479, Note_on_c, 1, 41, 0
3, 81774, Note_on_c, 1, 41, 74
3, 81784, Note_on_c, 1, 46, 0
3, 81940, Note_on_c, 1, 34, 71
3, 81948, Note_on_c, 1, 41, 0
3, 82250, Note_on_c, 1, 41, 80
3, 82272, Note_on_c, 1, 34, 0
3, 82426, Note_on_c, 1, 41, 0
3, 82430, Note_on_c, 1, 46, 83
3, 82740, Note_on_c, 1, 41, 82
3, 82750, Note_on_c, 1, 46, 0
3, 82914, Note_on_c, 1, 34, 77
3, 82926, Note_on_c, 1, 41, 0
3, 83213, Note_on_c, 1, 41, 82
3, 83227, Note_on_c, 1, 34, 0
3, 83393, Note_on_c, 1, 46, 73
3, 83406, Note_on_c, 1, 41, 0
3, 83682, Note_on_c, 1, 41, 80
3, 83697, Note_on_c, 1, 46, 0
3, 83873, Note_on_c, 1, 34, 71
3, 83875, Note_on_c, 1, 41, 0
3, 84169, Note_on_c, 1, 41, 74
3, 84189, Note_on_c, 1, 34, 0
3, 84353, Note_on_c, 1, 46, 83
3, 84372, Note_on_c, 1, 41, 0
3, 84644, Note_on_c, 1, 41, 73
3, 84647, Note_on_c, 1, 46, 0
3, 84834, Note_on_c, 1, 44, 83
3, 84838, Note_on_c, 1, 41, 0
3, 85120, Note_on_c, 1, 39, 74
3, 85140, Note_on_c, 1, 44, 0
3, 85307, Note_on_c, 1, 39, 0
3, 85318, Note_on_c, 1, 37, 70
3, 85610, Note_on_c, 1, 37, 0
3, 85623, Note_on_c, 1, 42, 63
3, 85751, Note_on_c, 1, 42, 0
3, 85785, Note_on_c, 1, 42, 77
3, 86093, Note_on_c, 1, 37, 70
3, 86108, Note_on_c, 1, 42, 0
3, 86264, Note_on_c, 1, 30, 70
3, 86273, Note_on_c, 1, 37, 0
3, 86578, Note_on_c, 1, 37, 71
3, 86607, Note_on_c, 1, 30, 0
3, 86758, Note_on_c, 1, 34, 69
3, 86761, Note_on_c, 1, 37, 0
3, 87060, Note_on_c, 1, 46, 81
3, 87206, Note_on_c, 1, 34, 0
3, 87227, Note_on_c, 1, 46, 0
3, 87234, Note_on_c, 1, 39, 74
3, 87543, Note_on_c, 1, 51, 71
3, 87579, Note_on_c, 1, 39, 0
3, 87691, Note_on_c, 1, 51, 0
3, 87705, Note_on_c, 1, 44, 81
3, 88013, Note_on_c, 1, 39, 73
3, 88020, Note_on_c, 1, 44, 0
3, 88192, Note_on_c, 1, 32, 76
3, 88195, Note_on_c, 1, 39, 0
3, 88497, Note_on_c, 1, 39, 77
3, 88514, Note_on_c, 1, 32, 0
3, 88676, Note_on_c, 1, 44, 83
3, 88701, Note_on_c, 1, 39, 0
3, 88984, Note_on_c, 1, 47, 80
3, 89025, Note_on_c, 1, 44, 0
3, 89132, Note_on_c, 1, 39, 25
3, 89137, Note_on_c, 1, 47, 0
3, 89145, Note_on_c, 1, 39, 0
3, 89156, Note_on_c, 1, 49, 78
3, 89410, Note_on_c, 1, 37, 18
3, 89422, Note_on_c, 1, 37, 0
3, 89464, Note_on_c, 1, 44, 77
3, 89486, Note_on_c, 1, 49, 0
3, 89631, Note_on_c, 1, 44, 0
3, 89636, Note_on_c, 1, 42, 79
3, 89937, Note_on_c, 1, 37, 74
3, 89948, Note_on_c, 1, 42, 0
3, 90111, Note_on_c, 1, 42, 80
3, 90127, Note_on_c, 1, 37, 0
3, 90420, Note_on_c, 1, 35, 77
3, 90430, Note_on_c, 1, 42, 0
3, 90591, Note_on_c, 1, 41, 87
3, 90606, Note_on_c, 1, 35, 0
3, 90903, Note_on_c, 1, 36, 83
3, 90921, Note_on_c, 1, 41, 0
3, 91055, Note_on_c, 1, 36, 0
3, 91069, Note_on_c, 1, 34, 69
3, 91375, Note_on_c, 1, 46, 83
3, 91493, Note_on_c, 1, 34, 0
3, 91543, Note_on_c, 1, 46, 0
3, 91554, Note_on_c, 1, 39, 74
3, 91856, Note_on_c, 1, 46, 81
3, 91879, Note_on_c, 1, 39, 0
3, 92022, Note_on_c, 1, 46, 0
3, 92029, Note_on_c, 1, 42, 78
3, 92333, Note_on_c, 1, 42, 0
3, 92335, Note_on_c, 1, 47, 66
3, 92464, Note_on_c, 1, 42, 49
3, 92473, Note_on_c, 1, 47, 0
3, 92497, Note_on_c, 1, 42, 0
3, 92523, Note_on_c, 1, 45, 82
3, 92600, Note_on_c, 1, 45, 0
3, 92638, Note_on_c, 1, 46, 72
3, 92817, Note_on_c, 1, 34, 71
3, 92926, Note_on_c, 1, 34, 0
3, 92996, Note_on_c, 1, 34, 75
3, 93170, Note_on_c, 1, 46, 0
3, 93292, Note_on_c, 1, 46, 83
3, 93416, Note_on_c, 1, 34, 0
3, 93453, Note_on_c, 1, 46, 0
3, 93473, Note_on_c, 1, 46, 76
3, 93775, Note_on_c, 1, 41, 74
3, 93779, Note_on_c, 1, 46, 0
3, 93959, Note_on_c, 1, 34, 69
3, 93974, Note_on_c, 1, 41, 0
3, 94255, Note_on_c, 1, 41, 74
3, 94273, Note_on_c, 1, 34, 0
3, 94440, Note_on_c, 1, 46, 79
3, 94446, Note_on_c, 1, 41, 0
3, 94731, Note_on_c, 1, 41, 75
3, 94736, Note_on_c, 1, 46, 0
3, 94906, Note_on_c, 1, 41, 0
3, 94910, Note_on_c, 1, 34, 75
3, 95211, Note_on_c, 1, 41, 79
3, 95234, Note_on_c, 1, 34, 0
3, 95397, Note_on_c, 1, 46, 87
3, 95414, Note_on_c, 1, 41, 0
3, 95824, Note_on_c, 1, 41, 78
3, 95830, Note_on_c, 1, 46, 0
3, 96106, Note_on_c, 1, 34, 60
3, 96119, Note_on_c, 1, 41, 0
3, 96242, Note_on_c, 1, 34, 0
3, 96305, Note_on_c, 1, 32, 65
3, 96342, Note_on_c, 1, 32, 0
3, 96357, Note_on_c, 1, 33, 67
3, 96399, Note_on_c, 1, 33, 0
3, 96480, Note_on_c, 1, 46, 100
3, 96660, Note_on_c, 1, 46, 0
3, 96660, Note_on_c, 1, 41, 77
3, 96821, Note_on_c, 1, 41, 0
3, 96825, Note_on_c, 1, 34, 69
3, 97125, Note_on_c, 1, 41, 70
3, 97128, Note_on_c, 1, 34, 0
3, 97317, Note_on_c, 1, 41, 0
3, 97321, Note_on_c, 1, 46, 81
3, 97627, Note_on_c, 1, 41, 82
3, 97637, Note_on_c, 1, 46, 0
3, 97800, Note_on_c, 1, 34, 71
3, 97806, Note_on_c, 1, 41, 0
3, 97971, Note_on_c, 1, 33, 25
3, 97994, Note_on_c, 1, 33, 0
3, 97996, Note_on_c, 1, 34, 0
3, 98032, Note_on_c, 1, 32, 69
3, 98193, Note_on_c, 1, 32, 0
3, 98214, Note_on_c, 1, 34, 74
3, 98578, Note_on_c, 1, 41, 69
3, 98666, Note_on_c, 1, 34, 0
3, 98748, Note_on_c, 1, 41, 0
3, 98752, Note_on_c, 1, 46, 84
3, 99055, Note_on_c, 1, 41, 74
3, 99058, Note_on_c, 1, 46, 0
3, 99229, Note_on_c, 1, 34, 74
3, 99238, Note_on_c, 1, 41, 0
3, 99535, Note_on_c, 1, 41, 79
3, 99544, Note_on_c, 1, 34, 0
3, 99708, Note_on_c, 1, 41, 0
3, 99713, Note_on_c, 1, 46, 80
3, 100018, Note_on_c, 1, 41, 74
3, 100031, Note_on_c, 1, 46, 0
3, 100187, Note_on_c, 1, 34, 75
3, 100199, Note_on_c, 1, 41, 0
3, 100492, Note_on_c, 1, 41, 68
3, 100526, Note_on_c, 1, 34, 0
3, 100666, Note_on_c, 1, 46, 75
3, 100679, Note_on_c, 1, 41, 0
3, 100974, Note_on_c, 1, 41, 74
3, 100984, Note_on_c, 1, 46, 0
3, 101140, Note_on_c, 1, 34, 71
3, 101148, Note_on_c, 1, 41, 0
3, 101450, Note_on_c, 1, 41, 80
3, 101472, Note_on_c, 1, 34, 0
3, 101626, Note_on_c, 1, 41, 0
3, 101630, Note_on_c, 1, 46, 83
3, 101940, Note_on_c, 1, 41, 82
3, 101950, Note_on_c, 1, 46, 0
3, 102114, Note_on_c, 1, 34, 77
3, 102126, Note_on_c, 1, 41, 0
3, 102413, Note_on_c, 1, 41, 82
3, 102427, Note_on_c, 1, 34, 0
3, 102593, Note_on_c, 1, 46, 73
3, 102606, Note_on_c, 1, 41, 0
3, 102882, Note_on_c, 1, 41, 80
3, 102897, Note_on_c, 1, 46, 0
3, 103073, Note_on_c, 1, 34, 71
3, 103075, Note_on_c, 1, 41, 0
3, 103369, Note_on_c, 1, 41, 74
3, 103389, Note_on_c, 1, 34, 0
3, 103553, Note_on_c, 1, 46, 83
3, 103572, Note_on_c, 1, 41, 0
3, 103844, Note_on_c, 1, 41, 73
3, 103847, Note_on_c, 1, 46, 0
3, 104034, Note_on_c, 1, 44, 83
3, 104038, Note_on_c, 1, 41, 0
3, 104320, Note_on_c, 1, 39, 74
3, 104340, Note_on_c, 1, 44, 0
3, 104507, Note_on_c, 1, 39, 0
3, 104518, Note_on_c, 1, 37, 70
3, 104810, Note_on_c, 1, 37, 0
3, 104823, Note_on_c, 1, 42, 63
3, 104951, Note_on_c, 1, 42, 0
3, 104985, Note_on_c, 1, 42, 77
3, 105293, Note_on_c, 1, 37, 70
3, 105308, Note_on_c, 1, 42, 0
3, 105464, Note_on_c, 1, 30, 70
3, 105473, Note_on_c, 1, 37, 0
3, 105778, Note_on_c, 1, 37, 71
3, 105807, Note_on_c, 1, 30, 0
3, 105958, Note_on_c, 1, 34, 69
3, 105961, Note_on_c, 1, 37, 0
3, 106260, Note_on_c, 1, 46, 81
3, 106406, Note_on_c, 1, 34, 0
3, 106427, Note_on_c, 1, 46, 0
3, 106434, Note_on_c, 1, 39, 74
3, 106743, Note_on_c, 1, 51, 71
3, 106779, Note_on_c, 1, 39, 0
3, 106891, Note_on_c, 1, 51, 0
3, 106905, Note_on_c, 1, 44, 81
3, 107213, Note_on_c, 1, 39, 73
3, 107220, Note_on_c, 1, 44, 0
3, 107392, Note_on_c, 1, 32, 76
3, 107395, Note_on_c, 1, 39, 0
3, 107697, Note_on_c, 1, 39, 77
3, 107714, Note_on_c, 1, 32, 0
3, 107876, Note_on_c, 1, 44, 83
3, 107901, Note_on_c, 1, 39, 0
3, 108184, Note_on_c, 1, 47, 80
3, 108225, Note_on_c, 1, 44, 0
3, 108332, Note_on_c, 1, 39, 25
3, 108337, Note_on_c, 1, 47, 0
3, 108345, Note_on_c, 1, 39, 0
3, 108356, Note_on_c, 1, 49, 78
3, 108610, Note_on_c, 1, 37, 18
3, 108622, Note_on_c, 1, 37, 0
3, 108664, Note_on_c, 1, 44, 77
3, 108686, Note_on_c, 1, 49, 0
3, 108831, Note_on_c, 1, 44, 0
3, 108836, Note_on_c, 1, 42, 79
3, 109137, Note_on_c, 1, 37, 74
3, 109148, Note_on_c, 1, 42, 0
3, 109311, Note_on_c, 1, 42, 80
3, 109327, Note_on_c, 1, 37, 0
3, 109620, Note_on_c, 1, 35, 77
3, 109630, Note_on_c, 1, 42, 0
3, 109791, Note_on_c, 1, 41, 87
3, 109806, Note_on_c, 1, 35, 0
3, 110103, Note_on_c, 1, 36, 83
3, 110121, Note_on_c, 1, 41, 0
3, 110255, Note_on_c, 1, 36, 0
3, 110269, Note_on_c, 1, 34, 69
3, 110575, Note_on_c, 1, 46, 83
3, 110693, Note_on_c, 1, 34, 0
3, 110743, Note_on_c, 1, 46, 0
3, 110754, Note_on_c, 1, 39, 74
3, 111056, Note_on_c, 1, 46, 81
3, 111079, Note_on_c, 1, 39, 0
3, 111222, Note_on_c, 1, 46, 0
3, 111229, Note_on_c, 1, 42, 78
3, 111533, Note_on_c, 1, 42, 0
3, 111535, Note_on_c, 1, 47, 66
3, 111664, Note_on_c, 1, 42, 49
3, 111673, Note_on_c, 1, 47, 0
3, 111697, Note_on_c, 1, 42, 0
3, 111723, Note_on_c, 1, 45, 82
3, 111800, Note_on_c, 1, 45, 0
3, 111838, Note_on_c, 1, 46, 72
3, 112017, Note_on_c, 1, 34, 71
3, 112126, Note_on_c, 1, 34, 0
3, 112196, Note_on_c, 1, 34, 75
3, 112370, Note_on_c, 1, 46, 0
3, 112492, Note_on_c, 1, 46, 83
3, 112616, Note_on_c, 1, 34, 0
3, 112653, Note_on_c, 1, 46, 0
3, 112673, Note_on_c, 1, 46, 76
3, 112975, Note_on_c, 1, 41, 74
3, 112979, Note_on_c, 1, 46, 0
3, 113159, Note_on_c, 1, 34, 69
3, 113174, Note_on_c, 1, 41, 0
3, 113455, Note_on_c, 1, 41, 74
3, 113473, Note_on_c, 1, 34, 0
3, 113640, Note_on_c, 1, 46, 79
3, 113646, Note_on_c, 1, 41, 0
3, 113931, Note_on_c, 1, 41, 75
3, 113936, Note_on_c, 1, 46, 0
3, 114106, Note_on_c, 1, 41, 0
3, 114110, Note_on_c, 1, 34, 75
3, 114411, Note_on_c, 1, 41, 79
3, 114434, Note_on_c, 1, 34, 0
3, 114597, Note_on_c, 1, 46, 87
3, 114614, Note_on_c, 1, 41, 0
3, 115024, Note_on_c, 1, 41, 78
3, 115030, Note_on_c, 1, 46, 0
3, 115306, Note_on_c, 1, 34, 60
3, 115319, Note_on_c, 1, 41, 0
3, 115442, Note_on_c, 1, 34, 0
3, 115505, Note_on_c, 1, 32, 65
3, 115542, Note_on_c, 1, 32, 0
3, 115557, Note_on_c, 1, 33, 67
3, 115599, Note_on_c, 1, 33, 0
3, 115599, End_track
4, 0, Start_track
4, 0, Program_c, 2, 11
4, 0, Control_c, 2, 7, 127
4, 78183, Note_on_c, 2, 75, 86
4, 78187, Note_on_c, 2, 76, 105
4, 78202, Note_on_c, 2, 75, 0
4, 78205, Note_on_c, 2, 77, 92
4, 78225, Note_on_c, 2, 76, 0
4, 78251, Note_on_c, 2, 77, 0
4, 78288, Note_on_c, 2, 77, 105
4, 78361, Note_on_c, 2, 77, 0
4, 78381, Note_on_c, 2, 77, 106
4, 78446, Note_on_c, 2, 77, 0
4, 78466, Note_on_c, 2, 76, 90
4, 78476, Note_on_c, 2, 77, 88
4, 78500, Note_on_c, 2, 76, 0
4, 78552, Note_on_c, 2, 77, 0
4, 78558, Note_on_c, 2, 75, 93
4, 78638, Note_on_c, 2, 75, 0
4, 78672, Note_on_c, 2, 72, 101
4, 78739, Note_on_c, 2, 72, 0
4, 78784, Note_on_c, 2, 68, 94
4, 78835, Note_on_c, 2, 68, 0
4, 78846, Note_on_c, 2, 67, 73
4, 78903, Note_on_c, 2, 67, 0
4, 78903, Note_on_c, 2, 65, 78
4, 78934, Note_on_c, 2, 65, 0
4, 78965, Note_on_c, 2, 70, 99
4, 79023, Note_on_c, 2, 68, 86
4, 79050, Note_on_c, 2, 70, 0
4, 79069, Note_on_c, 2, 68, 0
4, 79078, Note_on_c, 2, 67, 71
4, 79129, Note_on_c, 2, 67, 0
4, 79143, Note_on_c, 2, 65, 82
4, 79177, Note_on_c, 2, 65, 0
4, 79206, Note_on_c, 2, 63, 74
4, 79308, Note_on_c, 2, 60, 59
4, 79309, Note_on_c, 2, 63, 0
4, 79376, Note_on_c, 2, 60, 0
4, 79388, Note_on_c, 2, 62, 76
4, 79502, Note_on_c, 2, 62, 0
4, 79507, Note_on_c, 2, 58, 78
4, 79630, Note_on_c, 2, 58, 0
4, 79630, Note_on_c, 2, 60, 80
4, 79750, Note_on_c, 2, 56, 62
4, 79759, Note_on_c, 2, 60, 0
4, 79879, Note_on_c, 2, 58, 77
4, 79891, Note_on_c, 2, 56, 0
4, 80164, Note_on_c, 2, 58, 0
4, 80839, Note_on_c, 2, 73, 100
4, 80841, Note_on_c, 2, 74, 107
4, 80860, Note_on_c, 2, 73, 0
4, 80905, Note_on_c, 2, 74, 0
4, 80934, Note_on_c, 2, 73, 101
4, 80937, Note_on_c, 2, 74, 101
4, 80958, Note_on_c, 2, 73, 0
4, 81016, Note_on_c, 2, 74, 0
4, 81190, Note_on_c, 2, 73, 99
4, 81198, Note_on_c, 2, 74, 110
4, 81216, Note_on_c, 2, 73, 0
4, 81256, Note_on_c, 2, 74, 0
4, 81284, Note_on_c, 2, 73, 93
4, 81291, Note_on_c, 2, 74, 100
4, 81320, Note_on_c, 2, 73, 0
4, 81357, Note_on_c, 2, 74, 0
4, 81391, Note_on_c, 2, 73, 93
4, 81401, Note_on_c, 2, 74, 84
4, 81437, Note_on_c, 2, 73, 0
4, 81471, Note_on_c, 2, 74, 0
4, 81484, Note_on_c, 2, 72, 93
4, 81542, Note_on_c, 2, 72, 0
4, 81571, Note_on_c, 2, 68, 90
4, 81774, Note_on_c, 2, 68, 0
4, 81908, Note_on_c, 2, 73, 103
4, 81916, Note_on_c, 2, 74, 103
4, 81928, Note_on_c, 2, 73, 0
4, 81971, Note_on_c, 2, 74, 0
4, 81998, Note_on_c, 2, 73, 102
4, 82010, Note_on_c, 2, 74, 94
4, 82032, Note_on_c, 2, 73, 0
4, 82075, Note_on_c, 2, 74, 0
4, 82084, Note_on_c, 2, 73, 93
4, 82104, Note_on_c, 2, 74, 89
4, 82122, Note_on_c, 2, 73, 0
4, 82158, Note_on_c, 2, 74, 0
4, 82184, Note_on_c, 2, 72, 101
4, 82243, Note_on_c, 2, 72, 0
4, 82267, Note_on_c, 2, 68, 101
4, 82378, Note_on_c, 2, 65, 93
4, 82415, Note_on_c, 2, 68, 0
4, 82479, Note_on_c, 2, 65, 0
4, 82494, Note_on_c, 2, 70, 106
4, 82619, Note_on_c, 2, 68, 94
4, 82660, Note_on_c, 2, 70, 0
4, 82671, Note_on_c, 2, 68, 0
4, 82685, Note_on_c, 2, 67, 73
4, 82734, Note_on_c, 2, 67, 0
4, 82746, Note_on_c, 2, 65, 90
4, 82788, Note_on_c, 2, 65, 0
4, 82808, Note_on_c, 2, 63, 80
4, 82910, Note_on_c, 2, 63, 0
4, 82922, Note_on_c, 2, 62, 73
4, 82980, Note_on_c, 2, 62, 0
4, 82992, Note_on_c, 2, 65, 100
4, 83113, Note_on_c, 2, 63, 83
4, 83209, Note_on_c, 2, 65, 0
4, 83216, Note_on_c, 2, 63, 0
4, 83231, Note_on_c, 2, 62, 91
4, 83709, Note_on_c, 2, 62, 0
4, 83952, Note_on_c, 2, 53, 71
4, 83967, Note_on_c, 2, 53, 0
4, 84007, Note_on_c, 2, 58, 66
4, 84066, Note_on_c, 2, 58, 0
4, 84069, Note_on_c, 2, 63, 85
4, 84111, Note_on_c, 2, 63, 0
4, 84131, Note_on_c, 2, 60, 59
4, 84181, Note_on_c, 2, 60, 0
4, 84193, Note_on_c, 2, 65, 67
4, 84226, Note_on_c, 2, 65, 0
4, 84247, Note_on_c, 2, 70, 93
4, 84313, Note_on_c, 2, 70, 0
4, 84314, Note_on_c, 2, 67, 71
4, 84359, Note_on_c, 2, 67, 0
4, 84371, Note_on_c, 2, 68, 83
4, 84415, Note_on_c, 2, 68, 0
4, 84426, Note_on_c, 2, 70, 93
4, 84465, Note_on_c, 2, 70, 0
4, 84491, Note_on_c, 2, 72, 82
4, 84528, Note_on_c, 2, 72, 0
4, 84546, Note_on_c, 2, 74, 95
4, 84593, Note_on_c, 2, 74, 0
4, 84605, Note_on_c, 2, 75, 78
4, 84656, Note_on_c, 2, 75, 0
4, 84663, Note_on_c, 2, 77, 96
4, 84725, Note_on_c, 2, 78, 87
4, 84731, Note_on_c, 2, 77, 0
4, 84772, Note_on_c, 2, 78, 0
4, 84787, Note_on_c, 2, 80, 90
4, 84828, Note_on_c, 2, 80, 0
4, 84843, Note_on_c, 2, 82, 94
4, 84885, Note_on_c, 2, 82, 0
4, 84907, Note_on_c, 2, 83, 107
4, 84913, Note_on_c, 2, 71, 97
4, 84915, Note_on_c, 2, 82, 71
4, 84915, Note_on_c, 2, 72, 94
4, 84924, Note_on_c, 2, 82, 0
4, 84925, Note_on_c, 2, 72, 0
4, 85006, Note_on_c, 2, 83, 0
4, 85025, Note_on_c, 2, 71, 0
4, 85034, Note_on_c, 2, 82, 104
4, 85136, Note_on_c, 2, 82, 0
4, 85157, Note_on_c, 2, 80, 102
4, 85266, Note_on_c, 2, 80, 0
4, 85273, Note_on_c, 2, 78, 100
4, 85382, Note_on_c, 2, 78, 0
4, 85388, Note_on_c, 2, 77, 100
4, 85499, Note_on_c, 2, 77, 0
4, 85513, Note_on_c, 2, 75, 94
4, 85626, Note_on_c, 2, 73, 97
4, 85644, Note_on_c, 2, 75, 0
4, 85719, Note_on_c, 2, 73, 0
4, 85754, Note_on_c, 2, 71, 80
4, 85851, Note_on_c, 2, 71, 0
4, 85864, Note_on_c, 2, 70, 86
4, 85988, Note_on_c, 2, 68, 83
4, 85998, Note_on_c, 2, 70, 0
4, 86022, Note_on_c, 2, 68, 0
4, 86166, Note_on_c, 2, 70, 78
4, 86232, Note_on_c, 2, 70, 0
4, 86234, Note_on_c, 2, 66, 55
4, 86258, Note_on_c, 2, 66, 0
4, 86286, Note_on_c, 2, 68, 80
4, 86483, Note_on_c, 2, 65, 36
4, 86497, Note_on_c, 2, 68, 0
4, 86642, Note_on_c, 2, 65, 0
4, 86821, Note_on_c, 2, 55, 74
4, 86864, Note_on_c, 2, 55, 0
4, 86881, Note_on_c, 2, 56, 60
4, 86939, Note_on_c, 2, 58, 84
4, 86952, Note_on_c, 2, 56, 0
4, 86984, Note_on_c, 2, 58, 0
4, 86997, Note_on_c, 2, 59, 73
4, 87055, Note_on_c, 2, 59, 0
4, 87063, Note_on_c, 2, 61, 86
4, 87118, Note_on_c, 2, 61, 0
4, 87129, Note_on_c, 2, 62, 69
4, 87186, Note_on_c, 2, 62, 0
4, 87187, Note_on_c, 2, 63, 78
4, 87233, Note_on_c, 2, 63, 0
4, 87245, Note_on_c, 2, 64, 71
4, 87299, Note_on_c, 2, 64, 0
4, 87304, Note_on_c, 2, 66, 96
4, 87353, Note_on_c, 2, 66, 0
4, 87364, Note_on_c, 2, 67, 85
4, 87415, Note_on_c, 2, 67, 0
4, 87425, Note_on_c, 2, 69, 100
4, 87475, Note_on_c, 2, 69, 0
4, 87482, Note_on_c, 2, 70, 101
4, 87535, Note_on_c, 2, 70, 0
4, 87544, Note_on_c, 2, 72, 101
4, 87595, Note_on_c, 2, 72, 0
4, 87601, Note_on_c, 2, 73, 103
4, 87606, Note_on_c, 2, 72, 40
4, 87618, Note_on_c, 2, 72, 0
4, 87653, Note_on_c, 2, 73, 0
4, 87658, Note_on_c, 2, 75, 88
4, 87666, Note_on_c, 2, 73, 36
4, 87701, Note_on_c, 2, 73, 0
4, 87718, Note_on_c, 2, 75, 0
4, 87720, Note_on_c, 2, 76, 101
4, 87770, Note_on_c, 2, 76, 0
4, 87783, Note_on_c, 2, 79, 100
4, 87844, Note_on_c, 2, 79, 0
4, 87849, Note_on_c, 2, 77, 78
4, 87852, Note_on_c, 2, 78, 51
4, 87895, Note_on_c, 2, 78, 0
4, 87908, Note_on_c, 2, 75, 86
4, 87926, Note_on_c, 2, 77, 0
4, 87948, Note_on_c, 2, 75, 0
4, 87966, Note_on_c, 2, 72, 78
4, 88008, Note_on_c, 2, 72, 0
4, 88025, Note_on_c, 2, 68, 71
4, 88059, Note_on_c, 2, 68, 0
4, 88084, Note_on_c, 2, 67, 66
4, 88183, Note_on_c, 2, 67, 0
4, 88203, Note_on_c, 2, 70, 104
4, 88267, Note_on_c, 2, 70, 0
4, 88278, Note_on_c, 2, 67, 110
4, 88285, Note_on_c, 2, 68, 72
4, 88295, Note_on_c, 2, 68, 0
4, 88379, Note_on_c, 2, 67, 0
4, 88394, Note_on_c, 2, 68, 96
4, 88445, Note_on_c, 2, 68, 0
4, 88461, Note_on_c, 2, 65, 95
4, 88543, Note_on_c, 2, 65, 0
4, 88569, Note_on_c, 2, 67, 104
4, 88635, Note_on_c, 2, 67, 0
4, 88635, Note_on_c, 2, 63, 99
4, 88715, Note_on_c, 2, 63, 0
4, 88738, Note_on_c, 2, 65, 103
4, 88787, Note_on_c, 2, 65, 0
4, 88801, Note_on_c, 2, 59, 88
4, 88892, Note_on_c, 2, 59, 0
4, 88922, Note_on_c, 2, 59, 90
4, 89005, Note_on_c, 2, 59, 0
4, 89051, Note_on_c, 2, 59, 93
4, 89105, Note_on_c, 2, 59, 0
4, 89110, Note_on_c, 2, 58, 83
4, 89144, Note_on_c, 2, 58, 0
4, 89166, Note_on_c, 2, 59, 81
4, 89230, Note_on_c, 2, 59, 0
4, 89528, Note_on_c, 2, 59, 64
4, 89528, Note_on_c, 2, 60, 76
4, 89538, Note_on_c, 2, 59, 0
4, 89544, Note_on_c, 2, 60, 0
4, 89554, Note_on_c, 2, 58, 84
4, 89573, Note_on_c, 2, 58, 0
4, 89586, Note_on_c, 2, 59, 84
4, 89616, Note_on_c, 2, 59, 0
4, 89622, Note_on_c, 2, 61, 83
4, 89686, Note_on_c, 2, 61, 0
4, 89702, Note_on_c, 2, 63, 93
4, 89741, Note_on_c, 2, 63, 0
4, 89762, Note_on_c, 2, 65, 96
4, 89805, Note_on_c, 2, 65, 0
4, 89817, Note_on_c, 2, 66, 92
4, 89849, Note_on_c, 2, 66, 0
4, 89864, Note_on_c, 2, 68, 90
4, 89892, Note_on_c, 2, 68, 0
4, 89913, Note_on_c, 2, 70, 94
4, 89942, Note_on_c, 2, 70, 0
4, 89961, Note_on_c, 2, 71, 89
4, 89991, Note_on_c, 2, 71, 0
4, 90006, Note_on_c, 2, 73, 90
4, 90041, Note_on_c, 2, 73, 0
4, 90055, Note_on_c, 2, 75, 81
4, 90083, Note_on_c, 2, 75, 0
4, 90098, Note_on_c, 2, 77, 89
4, 90131, Note_on_c, 2, 77, 0
4, 90143, Note_on_c, 2, 78, 76
4, 90171, Note_on_c, 2, 78, 0
4, 90190, Note_on_c, 2, 80, 85
4, 90225, Note_on_c, 2, 80, 0
4, 90233, Note_on_c, 2, 81, 91
4, 90540, Note_on_c, 2, 81, 0
4, 90735, Note_on_c, 2, 91, 111
4, 90791, Note_on_c, 2, 90, 93
4, 90797, Note_on_c, 2, 91, 0
4, 90840, Note_on_c, 2, 90, 0
4, 90853, Note_on_c, 2, 89, 66
4, 90887, Note_on_c, 2, 89, 0
4, 90910, Note_on_c, 2, 87, 94
4, 90944, Note_on_c, 2, 87, 0
4, 90971, Note_on_c, 2, 84, 85
4, 91026, Note_on_c, 2, 84, 0
4, 91027, Note_on_c, 2, 80, 80
4, 91068, Note_on_c, 2, 80, 0
4, 91086, Note_on_c, 2, 79, 49
4, 91124, Note_on_c, 2, 79, 0
4, 91143, Note_on_c, 2, 82, 99
4, 91246, Note_on_c, 2, 82, 0
4, 91264, Note_on_c, 2, 80, 100
4, 91345, Note_on_c, 2, 80, 0
4, 91381, Note_on_c, 2, 79, 110
4, 91449, Note_on_c, 2, 79, 0
4, 91496, Note_on_c, 2, 78, 96
4, 91545, Note_on_c, 2, 78, 0
4, 91552, Note_on_c, 2, 77, 70
4, 91601, Note_on_c, 2, 77, 0
4, 91744, Note_on_c, 2, 60, 88
4, 91770, Note_on_c, 2, 60, 0
4, 91816, Note_on_c, 2, 61, 95
4, 91862, Note_on_c, 2, 61, 0
4, 91875, Note_on_c, 2, 65, 82
4, 91921, Note_on_c, 2, 65, 0
4, 91931, Note_on_c, 2, 62, 76
4, 91985, Note_on_c, 2, 63, 93
4, 91999, Note_on_c, 2, 62, 0
4, 92041, Note_on_c, 2, 66, 76
4, 92088, Note_on_c, 2, 63, 0
4, 92094, Note_on_c, 2, 66, 0
4, 92100, Note_on_c, 2, 64, 78
4, 92162, Note_on_c, 2, 64, 0
4, 92163, Note_on_c, 2, 65, 85
4, 92214, Note_on_c, 2, 65, 0
4, 92226, Note_on_c, 2, 68, 87
4, 92279, Note_on_c, 2, 68, 0
4, 92287, Note_on_c, 2, 65, 56
4, 92338, Note_on_c, 2, 65, 0
4, 92348, Note_on_c, 2, 66, 88
4, 92401, Note_on_c, 2, 66, 0
4, 92413, Note_on_c, 2, 67, 82
4, 92470, Note_on_c, 2, 68, 85
4, 92483, Note_on_c, 2, 67, 0
4, 92504, Note_on_c, 2, 68, 0
4, 92529, Note_on_c, 2, 69, 87
4, 92561, Note_on_c, 2, 69, 0
4, 92589, Note_on_c, 2, 70, 104
4, 92626, Note_on_c, 2, 70, 0
4, 92649, Note_on_c, 2, 70, 94
4, 92759, Note_on_c, 2, 70, 0
4, 92762, Note_on_c, 2, 68, 85
4, 92801, Note_on_c, 2, 68, 0
4, 92826, Note_on_c, 2, 69, 111
4, 92894, Note_on_c, 2, 69, 0
4, 92946, Note_on_c, 2, 70, 110
4, 93040, Note_on_c, 2, 70, 0
4, 93071, Note_on_c, 2, 68, 109
4, 93151, Note_on_c, 2, 68, 0
4, 93191, Note_on_c, 2, 69, 117
4, 93279, Note_on_c, 2, 69, 0
4, 93312, Note_on_c, 2, 70, 108
4, 93378, Note_on_c, 2, 70, 0
4, 93424, Note_on_c, 2, 73, 101
4, 93435, Note_on_c, 2, 74, 90
4, 93461, Note_on_c, 2, 73, 0
4, 93487, Note_on_c, 2, 74, 0
4, 93519, Note_on_c, 2, 73, 100
4, 93522, Note_on_c, 2, 74, 100
4, 93545, Note_on_c, 2, 73, 0
4, 93587, Note_on_c, 2, 74, 0
4, 93610, Note_on_c, 2, 73, 85
4, 93615, Note_on_c, 2, 74, 95
4, 93641, Note_on_c, 2, 73, 0
4, 93702, Note_on_c, 2, 74, 0
4, 93722, Note_on_c, 2, 70, 87
4, 93781, Note_on_c, 2, 70, 0
4, 93800, Note_on_c, 2, 70, 88
4, 94187, Note_on_c, 2, 70, 0
4, 94328, Note_on_c, 2, 68, 102
4, 94388, Note_on_c, 2, 68, 0
4, 94395, Note_on_c, 2, 64, 70
4, 94424, Note_on_c, 2, 64, 0
4, 94447, Note_on_c, 2, 67, 104
4, 94505, Note_on_c, 2, 67, 0
4, 94515, Note_on_c, 2, 65, 96
4, 94615, Note_on_c, 2, 65, 0
4, 94627, Note_on_c, 2, 60, 93
4, 94742, Note_on_c, 2, 60, 0
4, 94742, Note_on_c, 2, 63, 103
4, 94869, Note_on_c, 2, 63, 0
4, 94871, Note_on_c, 2, 58, 94
4, 94971, Note_on_c, 2, 58, 0
4, 94990, Note_on_c, 2, 60, 94
4, 95099, Note_on_c, 2, 60, 0
4, 95108, Note_on_c, 2, 56, 73
4, 95156, Note_on_c, 2, 56, 0
4, 95531, Note_on_c, 2, 76, 99
4, 95549, Note_on_c, 2, 76, 0
4, 95563, Note_on_c, 2, 77, 95
4, 95599, Note_on_c, 2, 77, 0
4, 95648, Note_on_c, 2, 77, 106
4, 95746, Note_on_c, 2, 77, 0
4, 95765, Note_on_c, 2, 76, 84
4, 95778, Note_on_c, 2, 76, 0
4, 95796, Note_on_c, 2, 77, 103
4, 95865, Note_on_c, 2, 77, 0
4, 95888, Note_on_c, 2, 77, 96
4, 95989, Note_on_c, 2, 77, 0
4, 96009, Note_on_c, 2, 75, 91
4, 96074, Note_on_c, 2, 75, 0
4, 96075, Note_on_c, 2, 72, 71
4, 96104, Note_on_c, 2, 72, 0
4, 96191, Note_on_c, 2, 75, 104
4, 96310, Note_on_c, 2, 72, 80
4, 96317, Note_on_c, 2, 75, 0
4, 96339, Note_on_c, 2, 72, 0
4, 96368, Note_on_c, 2, 73, 81
4, 96434, Note_on_c, 2, 74, 87
4, 96469, Note_on_c, 2, 73, 0
4, 96671, Note_on_c, 2, 72, 82
4, 96678, Note_on_c, 2, 74, 0
4, 96702, Note_on_c, 2, 72, 0
4, 96789, Note_on_c, 2, 68, 91
4, 96899, Note_on_c, 2, 65, 81
4, 96918, Note_on_c, 2, 68, 0
4, 97034, Note_on_c, 2, 65, 0
4, 97034, End_track
5, 0, Start_track
5, 0, Title_t, "Salsa feel"
5, 0, Program_c, 9, 40
5, 0, Control_c, 9, 7, 127
5, 0, Control_c, 9, 10, 64
5, 0, Control_c, 9, 7, 127
5, 0, Control_c, 9, 10, 64
5, 0, Control_c, 9, 7, 127
5, 0, Control_c, 9, 10, 64
5, 0, Note_on_c, 9, 42, 100
5, 0, Control_c, 9, 7, 127
5, 0, Control_c, 9, 10, 64
5, 0, Control_c, 9, 7, 127
5, 0, Control_c, 9, 10, 64
5, 0, Control_c, 9, 7, 127
5, 0, Control_c, 9, 10, 64
5, 0, Control_c, 9, 7, 127
5, 0, Control_c, 9, 10, 64
5, 0, Control_c, 9, 7, 127
5, 0, Control_c, 9, 10, 64
5, 0, Control_c, 9, 7, 127
5, 0, Control_c, 9, 10, 64
5, 0, Control_c, 9, 7, 127
5, 0, Control_c, 9, 10, 64
5, 0, Control_c, 9, 7, 127
5, 0, Control_c, 9, 10, 64
5, 0, Control_c, 9, 7, 127
5, 0, Control_c, 9, 10, 64
5, 0, Control_c, 9, 7, 127
5, 0, Control_c, 9, 10, 64
5, 0, Control_c, 9, 7, 127
5, 0, Control_c, 9, 10, 64
5, 0, Control_c, 9, 7, 127
5, 0, Control_c, 9, 10, 64
5, 0, Control_c, 9, 7, 127
5, 0, Control_c, 9, 10, 64
5, 0, Control_c, 9, 7, 127
5, 0, Control_c, 9, 10, 64
5, 0, Control_c, 9, 7, 127
5, 0, Control_c, 9, 10, 64
5, 0, Control_c, 9, 7, 127
5, 0, Control_c, 9, 10, 64
5, 0, Control_c, 9, 7, 127
5, 0, Control_c, 9, 10, 64
5, 0, Control_c, 9, 7, 127
5, 0, Control_c, 9, 10, 64
5, 0, Control_c, 9, 7, 127
5, 0, Control_c, 9, 10, 64
5, 0, Control_c, 9, 7, 127
5, 0, Control_c, 9, 10, 64
5, 15, Note_on_c, 9, 42, 0
5, 120, Note_on_c, 9, 42, 100
5, 135, Note_on_c, 9, 42, 0
5, 240, Note_on_c, 9, 42, 100
5, 255, Note_on_c, 9, 42, 0
5, 360, Note_on_c, 9, 42, 100
5, 375, Note_on_c, 9, 42, 0
5, 480, Note_on_c, 9, 70, 80
5, 480, Note_on_c, 9, 60, 50
5, 480, Note_on_c, 9, 56, 70
5, 494, Note_on_c, 9, 70, 0
5, 495, Note_on_c, 9, 60, 0
5, 496, Note_on_c, 9, 56, 0
5, 539, Note_on_c, 9, 62, 57
5, 539, Note_on_c, 9, 70, 60
5, 554, Note_on_c, 9, 70, 0
5, 554, Note_on_c, 9, 62, 0
5, 569, Note_on_c, 9, 70, 70
5, 584, Note_on_c, 9, 70, 0
5, 599, Note_on_c, 9, 62, 120
5, 599, Note_on_c, 9, 70, 80
5, 614, Note_on_c, 9, 70, 0
5, 614, Note_on_c, 9, 62, 0
5, 659, Note_on_c, 9, 36, 60
5, 659, Note_on_c, 9, 56, 48
5, 659, Note_on_c, 9, 60, 50
5, 659, Note_on_c, 9, 70, 60
5, 674, Note_on_c, 9, 70, 0
5, 674, Note_on_c, 9, 36, 0
5, 674, Note_on_c, 9, 56, 0
5, 674, Note_on_c, 9, 60, 0
5, 719, Note_on_c, 9, 56, 70
5, 719, Note_on_c, 9, 61, 50
5, 719, Note_on_c, 9, 70, 80
5, 734, Note_on_c, 9, 70, 0
5, 734, Note_on_c, 9, 61, 0
5, 734, Note_on_c, 9, 56, 0
5, 779, Note_on_c, 9, 61, 50
5, 779, Note_on_c, 9, 70, 60
5, 794, Note_on_c, 9, 70, 0
5, 794, Note_on_c, 9, 61, 0
5, 839, Note_on_c, 9, 36, 60
5, 839, Note_on_c, 9, 64, 120
5, 839, Note_on_c, 9, 70, 80
5, 854, Note_on_c, 9, 70, 0
5, 854, Note_on_c, 9, 64, 0
5, 854, Note_on_c, 9, 36, 0
5, 899, Note_on_c, 9, 56, 48
5, 899, Note_on_c, 9, 64, 120
5, 899, Note_on_c, 9, 70, 60
5, 914, Note_on_c, 9, 70, 0
5, 914, Note_on_c, 9, 64, 0
5, 914, Note_on_c, 9, 56, 0
5, 959, Note_on_c, 9, 56, 70
5, 959, Note_on_c, 9, 60, 50
5, 959, Note_on_c, 9, 70, 80
5, 974, Note_on_c, 9, 70, 0
5, 974, Note_on_c, 9, 60, 0
5, 974, Note_on_c, 9, 56, 0
5, 1019, Note_on_c, 9, 62, 57
5, 1019, Note_on_c, 9, 70, 60
5, 1034, Note_on_c, 9, 70, 0
5, 1034, Note_on_c, 9, 62, 0
5, 1049, Note_on_c, 9, 70, 70
5, 1064, Note_on_c, 9, 70, 0
5, 1079, Note_on_c, 9, 62, 120
5, 1079, Note_on_c, 9, 70, 60
5, 1094, Note_on_c, 9, 70, 0
5, 1094, Note_on_c, 9, 62, 0
5, 1139, Note_on_c, 9, 36, 60
5, 1139, Note_on_c, 9, 56, 48
5, 1139, Note_on_c, 9, 61, 50
5, 1139, Note_on_c, 9, 70, 60
5, 1154, Note_on_c, 9, 70, 0
5, 1154, Note_on_c, 9, 36, 0
5, 1154, Note_on_c, 9, 56, 0
5, 1154, Note_on_c, 9, 61, 0
5, 1199, Note_on_c, 9, 56, 70
5, 1199, Note_on_c, 9, 60, 50
5, 1199, Note_on_c, 9, 70, 80
5, 1214, Note_on_c, 9, 70, 0
5, 1214, Note_on_c, 9, 60, 0
5, 1214, Note_on_c, 9, 56, 0
5, 1259, Note_on_c, 9, 60, 50
5, 1259, Note_on_c, 9, 70, 60
5, 1274, Note_on_c, 9, 70, 0
5, 1274, Note_on_c, 9, 60, 0
5, 1319, Note_on_c, 9, 36, 60
5, 1319, Note_on_c, 9, 64, 120
5, 1319, Note_on_c, 9, 70, 80
5, 1334, Note_on_c, 9, 70, 0
5, 1334, Note_on_c, 9, 64, 0
5, 1334, Note_on_c, 9, 36, 0
5, 1379, Note_on_c, 9, 56, 48
5, 1379, Note_on_c, 9, 64, 120
5, 1379, Note_on_c, 9, 70, 60
5, 1394, Note_on_c, 9, 70, 0
5, 1394, Note_on_c, 9, 64, 0
5, 1394, Note_on_c, 9, 56, 0
5, 1440, Note_on_c, 9, 70, 80
5, 1440, Note_on_c, 9, 60, 50
5, 1440, Note_on_c, 9, 56, 70
5, 1454, Note_on_c, 9, 56, 0
5, 1454, Note_on_c, 9, 60, 0
5, 1454, Note_on_c, 9, 70, 0
5, 1499, Note_on_c, 9, 62, 57
5, 1499, Note_on_c, 9, 70, 60
5, 1513, Note_on_c, 9, 70, 0
5, 1514, Note_on_c, 9, 62, 0
5, 1529, Note_on_c, 9, 70, 70
5, 1544, Note_on_c, 9, 70, 0
5, 1559, Note_on_c, 9, 62, 120
5, 1559, Note_on_c, 9, 70, 80
5, 1574, Note_on_c, 9, 70, 0
5, 1574, Note_on_c, 9, 62, 0
5, 1619, Note_on_c, 9, 36, 60
5, 1619, Note_on_c, 9, 56, 48
5, 1619, Note_on_c, 9, 60, 50
5, 1619, Note_on_c, 9, 70, 60
5, 1634, Note_on_c, 9, 70, 0
5, 1634, Note_on_c, 9, 36, 0
5, 1634, Note_on_c, 9, 56, 0
5, 1634, Note_on_c, 9, 60, 0
5, 1679, Note_on_c, 9, 56, 70
5, 1679, Note_on_c, 9, 61, 50
5, 1679, Note_on_c, 9, 70, 80
5, 1694, Note_on_c, 9, 70, 0
5, 1694, Note_on_c, 9, 61, 0
5, 1694, Note_on_c, 9, 56, 0
5, 1739, Note_on_c, 9, 61, 50
5, 1739, Note_on_c, 9, 70, 60
5, 1754, Note_on_c, 9, 70, 0
5, 1754, Note_on_c, 9, 61, 0
5, 1799, Note_on_c, 9, 36, 60
5, 1799, Note_on_c, 9, 64, 120
5, 1799, Note_on_c, 9, 70, 80
5, 1814, Note_on_c, 9, 70, 0
5, 1814, Note_on_c, 9, 64, 0
5, 1814, Note_on_c, 9, 36, 0
5, 1859, Note_on_c, 9, 56, 48
5, 1859, Note_on_c, 9, 64, 120
5, 1859, Note_on_c, 9, 70, 60
5, 1874, Note_on_c, 9, 70, 0
5, 1874, Note_on_c, 9, 64, 0
5, 1874, Note_on_c, 9, 56, 0
5, 1919, Note_on_c, 9, 56, 70
5, 1919, Note_on_c, 9, 60, 50
5, 1919, Note_on_c, 9, 70, 80
5, 1934, Note_on_c, 9, 70, 0
5, 1934, Note_on_c, 9, 60, 0
5, 1934, Note_on_c, 9, 56, 0
5, 1979, Note_on_c, 9, 62, 57
5, 1979, Note_on_c, 9, 70, 60
5, 1994, Note_on_c, 9, 70, 0
5, 1994, Note_on_c, 9, 62, 0
5, 2009, Note_on_c, 9, 70, 70
5, 2024, Note_on_c, 9, 70, 0
5, 2039, Note_on_c, 9, 62, 120
5, 2039, Note_on_c, 9, 70, 60
5, 2054, Note_on_c, 9, 70, 0
5, 2054, Note_on_c, 9, 62, 0
5, 2099, Note_on_c, 9, 36, 60
5, 2099, Note_on_c, 9, 56, 48
5, 2099, Note_on_c, 9, 61, 50
5, 2099, Note_on_c, 9, 70, 60
5, 2114, Note_on_c, 9, 70, 0
5, 2114, Note_on_c, 9, 36, 0
5, 2114, Note_on_c, 9, 56, 0
5, 2114, Note_on_c, 9, 61, 0
5, 2159, Note_on_c, 9, 56, 70
5, 2159, Note_on_c, 9, 60, 50
5, 2159, Note_on_c, 9, 70, 80
5, 2173, Note_on_c, 9, 56, 0
5, 2174, Note_on_c, 9, 70, 0
5, 2174, Note_on_c, 9, 60, 0
5, 2219, Note_on_c, 9, 60, 50
5, 2219, Note_on_c, 9, 70, 60
5, 2234, Note_on_c, 9, 70, 0
5, 2234, Note_on_c, 9, 60, 0
5, 2279, Note_on_c, 9, 36, 60
5, 2279, Note_on_c, 9, 64, 120
5, 2279, Note_on_c, 9, 70, 80
5, 2294, Note_on_c, 9, 70, 0
5, 2294, Note_on_c, 9, 64, 0
5, 2294, Note_on_c, 9, 36, 0
5, 2339, Note_on_c, 9, 56, 48
5, 2339, Note_on_c, 9, 64, 120
5, 2339, Note_on_c, 9, 70, 60
5, 2354, Note_on_c, 9, 70, 0
5, 2354, Note_on_c, 9, 64, 0
5, 2354, Note_on_c, 9, 56, 0
5, 2356, Note_on_c, 9, 53, 22
5, 2368, Note_on_c, 9, 53, 0
5, 2400, Note_on_c, 9, 70, 80
5, 2400, Note_on_c, 9, 56, 70
5, 2400, Program_c, 9, 0
5, 2401, Note_on_c, 9, 60, 50
5, 2414, Note_on_c, 9, 70, 0
5, 2415, Note_on_c, 9, 60, 0
5, 2415, Note_on_c, 9, 56, 0
5, 2419, Note_on_c, 9, 53, 35
5, 2435, Note_on_c, 9, 53, 0
5, 2459, Note_on_c, 9, 62, 57
5, 2459, Note_on_c, 9, 70, 60
5, 2474, Note_on_c, 9, 70, 0
5, 2474, Note_on_c, 9, 62, 0
5, 2489, Note_on_c, 9, 70, 70
5, 2504, Note_on_c, 9, 70, 0
5, 2519, Note_on_c, 9, 62, 120
5, 2519, Note_on_c, 9, 70, 80
5, 2534, Note_on_c, 9, 70, 0
5, 2534, Note_on_c, 9, 62, 0
5, 2579, Note_on_c, 9, 36, 60
5, 2579, Note_on_c, 9, 56, 48
5, 2579, Note_on_c, 9, 60, 50
5, 2579, Note_on_c, 9, 70, 60
5, 2594, Note_on_c, 9, 70, 0
5, 2594, Note_on_c, 9, 36, 0
5, 2594, Note_on_c, 9, 56, 0
5, 2594, Note_on_c, 9, 60, 0
5, 2639, Note_on_c, 9, 56, 70
5, 2639, Note_on_c, 9, 61, 50
5, 2639, Note_on_c, 9, 70, 80
5, 2654, Note_on_c, 9, 70, 0
5, 2654, Note_on_c, 9, 61, 0
5, 2654, Note_on_c, 9, 56, 0
5, 2699, Note_on_c, 9, 61, 50
5, 2699, Note_on_c, 9, 70, 60
5, 2714, Note_on_c, 9, 70, 0
5, 2714, Note_on_c, 9, 61, 0
5, 2759, Note_on_c, 9, 36, 60
5, 2759, Note_on_c, 9, 64, 120
5, 2759, Note_on_c, 9, 70, 80
5, 2774, Note_on_c, 9, 70, 0
5, 2774, Note_on_c, 9, 64, 0
5, 2774, Note_on_c, 9, 36, 0
5, 2819, Note_on_c, 9, 56, 48
5, 2819, Note_on_c, 9, 64, 120
5, 2819, Note_on_c, 9, 70, 60
5, 2825, Note_on_c, 9, 59, 17
5, 2834, Note_on_c, 9, 70, 0
5, 2834, Note_on_c, 9, 56, 0
5, 2834, Note_on_c, 9, 64, 0
5, 2839, Note_on_c, 9, 59, 0
5, 2879, Note_on_c, 9, 56, 70
5, 2879, Note_on_c, 9, 60, 50
5, 2879, Note_on_c, 9, 70, 80
5, 2894, Note_on_c, 9, 70, 0
5, 2894, Note_on_c, 9, 60, 0
5, 2894, Note_on_c, 9, 56, 0
5, 2939, Note_on_c, 9, 62, 57
5, 2939, Note_on_c, 9, 70, 60
5, 2954, Note_on_c, 9, 70, 0
5, 2954, Note_on_c, 9, 62, 0
5, 2969, Note_on_c, 9, 70, 70
5, 2984, Note_on_c, 9, 70, 0
5, 2999, Note_on_c, 9, 62, 120
5, 2999, Note_on_c, 9, 70, 60
5, 3014, Note_on_c, 9, 70, 0
5, 3014, Note_on_c, 9, 62, 0
5, 3059, Note_on_c, 9, 36, 60
5, 3059, Note_on_c, 9, 56, 48
5, 3059, Note_on_c, 9, 61, 50
5, 3059, Note_on_c, 9, 70, 60
5, 3060, Note_on_c, 9, 59, 34
5, 3070, Note_on_c, 9, 59, 0
5, 3074, Note_on_c, 9, 61, 0
5, 3074, Note_on_c, 9, 36, 0
5, 3074, Note_on_c, 9, 56, 0
5, 3074, Note_on_c, 9, 70, 0
5, 3119, Note_on_c, 9, 56, 70
5, 3119, Note_on_c, 9, 60, 50
5, 3119, Note_on_c, 9, 70, 80
5, 3134, Note_on_c, 9, 70, 0
5, 3134, Note_on_c, 9, 60, 0
5, 3134, Note_on_c, 9, 56, 0
5, 3179, Note_on_c, 9, 60, 50
5, 3179, Note_on_c, 9, 70, 60
5, 3194, Note_on_c, 9, 70, 0
5, 3194, Note_on_c, 9, 60, 0
5, 3239, Note_on_c, 9, 36, 60
5, 3239, Note_on_c, 9, 64, 120
5, 3239, Note_on_c, 9, 70, 80
5, 3254, Note_on_c, 9, 70, 0
5, 3254, Note_on_c, 9, 64, 0
5, 3254, Note_on_c, 9, 36, 0
5, 3299, Note_on_c, 9, 56, 48
5, 3299, Note_on_c, 9, 64, 120
5, 3299, Note_on_c, 9, 70, 60
5, 3304, Note_on_c, 9, 59, 34
5, 3305, Note_on_c, 9, 57, 32
5, 3314, Note_on_c, 9, 70, 0
5, 3314, Note_on_c, 9, 56, 0
5, 3314, Note_on_c, 9, 64, 0
5, 3319, Note_on_c, 9, 59, 0
5, 3319, Note_on_c, 9, 57, 0
5, 3360, Note_on_c, 9, 70, 80
5, 3360, Note_on_c, 9, 60, 50
5, 3360, Note_on_c, 9, 56, 70
5, 3374, Note_on_c, 9, 56, 0
5, 3374, Note_on_c, 9, 60, 0
5, 3374, Note_on_c, 9, 70, 0
5, 3419, Note_on_c, 9, 62, 57
5, 3419, Note_on_c, 9, 70, 60
5, 3434, Note_on_c, 9, 70, 0
5, 3434, Note_on_c, 9, 62, 0
5, 3449, Note_on_c, 9, 70, 70
5, 3464, Note_on_c, 9, 70, 0
5, 3479, Note_on_c, 9, 62, 120
5, 3479, Note_on_c, 9, 70, 80
5, 3493, Note_on_c, 9, 70, 0
5, 3494, Note_on_c, 9, 62, 0
5, 3539, Note_on_c, 9, 36, 60
5, 3539, Note_on_c, 9, 56, 48
5, 3539, Note_on_c, 9, 60, 50
5, 3539, Note_on_c, 9, 70, 60
5, 3550, Note_on_c, 9, 57, 20
5, 3554, Note_on_c, 9, 70, 0
5, 3554, Note_on_c, 9, 60, 0
5, 3554, Note_on_c, 9, 36, 0
5, 3554, Note_on_c, 9, 56, 0
5, 3564, Note_on_c, 9, 57, 0
5, 3599, Note_on_c, 9, 56, 70
5, 3599, Note_on_c, 9, 61, 50
5, 3599, Note_on_c, 9, 70, 80
5, 3614, Note_on_c, 9, 70, 0
5, 3614, Note_on_c, 9, 61, 0
5, 3614, Note_on_c, 9, 56, 0
5, 3659, Note_on_c, 9, 61, 50
5, 3659, Note_on_c, 9, 70, 60
5, 3674, Note_on_c, 9, 70, 0
5, 3674, Note_on_c, 9, 61, 0
5, 3719, Note_on_c, 9, 36, 60
5, 3719, Note_on_c, 9, 64, 120
5, 3719, Note_on_c, 9, 70, 80
5, 3734, Note_on_c, 9, 70, 0
5, 3734, Note_on_c, 9, 64, 0
5, 3734, Note_on_c, 9, 36, 0
5, 3779, Note_on_c, 9, 56, 48
5, 3779, Note_on_c, 9, 64, 120
5, 3779, Note_on_c, 9, 70, 60
5, 3789, Note_on_c, 9, 57, 12
5, 3794, Note_on_c, 9, 70, 0
5, 3794, Note_on_c, 9, 56, 0
5, 3794, Note_on_c, 9, 64, 0
5, 3804, Note_on_c, 9, 57, 0
5, 3839, Note_on_c, 9, 56, 70
5, 3839, Note_on_c, 9, 60, 50
5, 3839, Note_on_c, 9, 70, 80
5, 3854, Note_on_c, 9, 70, 0
5, 3854, Note_on_c, 9, 60, 0
5, 3854, Note_on_c, 9, 56, 0
5, 3899, Note_on_c, 9, 62, 57
5, 3899, Note_on_c, 9, 70, 60
5, 3914, Note_on_c, 9, 70, 0
5, 3914, Note_on_c, 9, 62, 0
5, 3929, Note_on_c, 9, 70, 70
5, 3944, Note_on_c, 9, 70, 0
5, 3959, Note_on_c, 9, 62, 120
5, 3959, Note_on_c, 9, 70, 60
5, 3974, Note_on_c, 9, 70, 0
5, 3974, Note_on_c, 9, 62, 0
5, 4019, Note_on_c, 9, 36, 60
5, 4019, Note_on_c, 9, 56, 48
5, 4019, Note_on_c, 9, 61, 50
5, 4019, Note_on_c, 9, 70, 60
5, 4021, Note_on_c, 9, 57, 17
5, 4034, Note_on_c, 9, 70, 0
5, 4034, Note_on_c, 9, 61, 0
5, 4034, Note_on_c, 9, 36, 0
5, 4034, Note_on_c, 9, 56, 0
5, 4036, Note_on_c, 9, 57, 0
5, 4079, Note_on_c, 9, 56, 70
5, 4079, Note_on_c, 9, 60, 50
5, 4079, Note_on_c, 9, 70, 80
5, 4094, Note_on_c, 9, 70, 0
5, 4094, Note_on_c, 9, 60, 0
5, 4094, Note_on_c, 9, 56, 0
5, 4139, Note_on_c, 9, 70, 60
5, 4139, Note_on_c, 9, 60, 50
5, 4153, Note_on_c, 9, 70, 0
5, 4154, Note_on_c, 9, 60, 0
5, 4199, Note_on_c, 9, 70, 80
5, 4199, Note_on_c, 9, 64, 120
5, 4199, Note_on_c, 9, 36, 60
5, 4214, Note_on_c, 9, 36, 0
5, 4214, Note_on_c, 9, 64, 0
5, 4214, Note_on_c, 9, 70, 0
5, 4259, Note_on_c, 9, 70, 60
5, 4259, Note_on_c, 9, 64, 120
5, 4259, Note_on_c, 9, 56, 48
5, 4263, Note_on_c, 9, 59, 39
5, 4274, Note_on_c, 9, 56, 0
5, 4274, Note_on_c, 9, 70, 0
5, 4274, Note_on_c, 9, 64, 0
5, 4275, Note_on_c, 9, 59, 0
5, 4320, Program_c, 9, 0
5, 4321, Note_on_c, 9, 70, 80
5, 4321, Note_on_c, 9, 60, 50
5, 4321, Note_on_c, 9, 56, 70
5, 4324, Note_on_c, 9, 59, 69
5, 4335, Note_on_c, 9, 60, 0
5, 4335, Note_on_c, 9, 70, 0
5, 4336, Note_on_c, 9, 56, 0
5, 4356, Note_on_c, 9, 59, 0
5, 4379, Note_on_c, 9, 70, 60
5, 4379, Note_on_c, 9, 62, 57
5, 4394, Note_on_c, 9, 62, 0
5, 4394, Note_on_c, 9, 70, 0
5, 4409, Note_on_c, 9, 70, 70
5, 4424, Note_on_c, 9, 70, 0
5, 4439, Note_on_c, 9, 70, 80
5, 4439, Note_on_c, 9, 62, 120
5, 4454, Note_on_c, 9, 62, 0
5, 4454, Note_on_c, 9, 70, 0
5, 4499, Note_on_c, 9, 70, 60
5, 4499, Note_on_c, 9, 60, 50
5, 4499, Note_on_c, 9, 56, 48
5, 4499, Note_on_c, 9, 36, 60
5, 4514, Note_on_c, 9, 36, 0
5, 4514, Note_on_c, 9, 70, 0
5, 4514, Note_on_c, 9, 60, 0
5, 4514, Note_on_c, 9, 56, 0
5, 4559, Note_on_c, 9, 70, 80
5, 4559, Note_on_c, 9, 61, 50
5, 4559, Note_on_c, 9, 56, 70
5, 4574, Note_on_c, 9, 56, 0
5, 4574, Note_on_c, 9, 61, 0
5, 4574, Note_on_c, 9, 70, 0
5, 4619, Note_on_c, 9, 70, 60
5, 4619, Note_on_c, 9, 61, 50
5, 4634, Note_on_c, 9, 61, 0
5, 4634, Note_on_c, 9, 70, 0
5, 4638, Note_on_c, 9, 53, 47
5, 4664, Note_on_c, 9, 53, 0
5, 4679, Note_on_c, 9, 70, 80
5, 4679, Note_on_c, 9, 64, 120
5, 4679, Note_on_c, 9, 36, 60
5, 4694, Note_on_c, 9, 36, 0
5, 4694, Note_on_c, 9, 64, 0
5, 4694, Note_on_c, 9, 70, 0
5, 4739, Note_on_c, 9, 70, 60
5, 4739, Note_on_c, 9, 64, 120
5, 4739, Note_on_c, 9, 56, 48
5, 4754, Note_on_c, 9, 56, 0
5, 4754, Note_on_c, 9, 64, 0
5, 4754, Note_on_c, 9, 70, 0
5, 4799, Note_on_c, 9, 70, 80
5, 4799, Note_on_c, 9, 60, 50
5, 4799, Note_on_c, 9, 56, 70
5, 4813, Note_on_c, 9, 56, 0
5, 4814, Note_on_c, 9, 60, 0
5, 4814, Note_on_c, 9, 70, 0
5, 4820, Note_on_c, 9, 53, 50
5, 4844, Note_on_c, 9, 53, 0
5, 4859, Note_on_c, 9, 70, 60
5, 4859, Note_on_c, 9, 62, 57
5, 4874, Note_on_c, 9, 62, 0
5, 4874, Note_on_c, 9, 70, 0
5, 4889, Note_on_c, 9, 70, 70
5, 4904, Note_on_c, 9, 70, 0
5, 4919, Note_on_c, 9, 70, 60
5, 4919, Note_on_c, 9, 62, 120
5, 4934, Note_on_c, 9, 62, 0
5, 4934, Note_on_c, 9, 70, 0
5, 4979, Note_on_c, 9, 70, 60
5, 4979, Note_on_c, 9, 61, 50
5, 4979, Note_on_c, 9, 56, 48
5, 4979, Note_on_c, 9, 36, 60
5, 4994, Note_on_c, 9, 36, 0
5, 4994, Note_on_c, 9, 70, 0
5, 4994, Note_on_c, 9, 61, 0
5, 4994, Note_on_c, 9, 56, 0
5, 4998, Note_on_c, 9, 53, 43
5, 5024, Note_on_c, 9, 53, 0
5, 5039, Note_on_c, 9, 70, 80
5, 5039, Note_on_c, 9, 60, 50
5, 5039, Note_on_c, 9, 56, 70
5, 5054, Note_on_c, 9, 56, 0
5, 5054, Note_on_c, 9, 60, 0
5, 5054, Note_on_c, 9, 70, 0
5, 5099, Note_on_c, 9, 70, 60
5, 5099, Note_on_c, 9, 60, 50
5, 5114, Note_on_c, 9, 60, 0
5, 5114, Note_on_c, 9, 70, 0
5, 5159, Note_on_c, 9, 70, 80
5, 5159, Note_on_c, 9, 64, 120
5, 5159, Note_on_c, 9, 36, 60
5, 5165, Note_on_c, 9, 53, 48
5, 5174, Note_on_c, 9, 36, 0
5, 5174, Note_on_c, 9, 70, 0
5, 5174, Note_on_c, 9, 64, 0
5, 5176, Note_on_c, 9, 53, 0
5, 5219, Note_on_c, 9, 70, 60
5, 5219, Note_on_c, 9, 64, 120
5, 5219, Note_on_c, 9, 56, 48
5, 5234, Note_on_c, 9, 56, 0
5, 5234, Note_on_c, 9, 64, 0
5, 5234, Note_on_c, 9, 70, 0
5, 5278, Note_on_c, 9, 59, 51
5, 5280, Note_on_c, 9, 60, 50
5, 5280, Note_on_c, 9, 70, 80
5, 5281, Note_on_c, 9, 56, 70
5, 5294, Note_on_c, 9, 70, 0
5, 5294, Note_on_c, 9, 59, 0
5, 5294, Note_on_c, 9, 60, 0
5, 5295, Note_on_c, 9, 56, 0
5, 5339, Note_on_c, 9, 70, 60
5, 5339, Note_on_c, 9, 62, 57
5, 5354, Note_on_c, 9, 62, 0
5, 5354, Note_on_c, 9, 70, 0
5, 5369, Note_on_c, 9, 70, 70
5, 5384, Note_on_c, 9, 70, 0
5, 5399, Note_on_c, 9, 70, 80
5, 5399, Note_on_c, 9, 62, 120
5, 5414, Note_on_c, 9, 62, 0
5, 5414, Note_on_c, 9, 70, 0
5, 5459, Note_on_c, 9, 70, 60
5, 5459, Note_on_c, 9, 60, 50
5, 5459, Note_on_c, 9, 56, 48
5, 5459, Note_on_c, 9, 36, 60
5, 5473, Note_on_c, 9, 36, 0
5, 5473, Note_on_c, 9, 56, 0
5, 5474, Note_on_c, 9, 60, 0
5, 5474, Note_on_c, 9, 70, 0
5, 5519, Note_on_c, 9, 70, 80
5, 5519, Note_on_c, 9, 61, 50
5, 5519, Note_on_c, 9, 56, 70
5, 5534, Note_on_c, 9, 56, 0
5, 5534, Note_on_c, 9, 61, 0
5, 5534, Note_on_c, 9, 70, 0
5, 5579, Note_on_c, 9, 70, 60
5, 5579, Note_on_c, 9, 61, 50
5, 5594, Note_on_c, 9, 61, 0
5, 5594, Note_on_c, 9, 70, 0
5, 5639, Note_on_c, 9, 70, 80
5, 5639, Note_on_c, 9, 64, 120
5, 5639, Note_on_c, 9, 36, 60
5, 5654, Note_on_c, 9, 36, 0
5, 5654, Note_on_c, 9, 64, 0
5, 5654, Note_on_c, 9, 70, 0
5, 5699, Note_on_c, 9, 70, 60
5, 5699, Note_on_c, 9, 64, 120
5, 5699, Note_on_c, 9, 56, 48
5, 5714, Note_on_c, 9, 56, 0
5, 5714, Note_on_c, 9, 64, 0
5, 5714, Note_on_c, 9, 70, 0
5, 5759, Note_on_c, 9, 70, 80
5, 5759, Note_on_c, 9, 60, 50
5, 5759, Note_on_c, 9, 56, 70
5, 5774, Note_on_c, 9, 56, 0
5, 5774, Note_on_c, 9, 60, 0
5, 5774, Note_on_c, 9, 70, 0
5, 5819, Note_on_c, 9, 70, 60
5, 5819, Note_on_c, 9, 62, 57
5, 5834, Note_on_c, 9, 62, 0
5, 5834, Note_on_c, 9, 70, 0
5, 5849, Note_on_c, 9, 70, 70
5, 5864, Note_on_c, 9, 70, 0
5, 5879, Note_on_c, 9, 70, 60
5, 5879, Note_on_c, 9, 62, 120
5, 5894, Note_on_c, 9, 62, 0
5, 5894, Note_on_c, 9, 70, 0
5, 5930, Note_on_c, 9, 53, 30
5, 5939, Note_on_c, 9, 70, 60
5, 5939, Note_on_c, 9, 61, 50
5, 5939, Note_on_c, 9, 56, 48
5, 5939, Note_on_c, 9, 36, 60
5, 5941, Note_on_c, 9, 53, 0
5, 5954, Note_on_c, 9, 56, 0
5, 5954, Note_on_c, 9, 70, 0
5, 5954, Note_on_c, 9, 61, 0
5, 5954, Note_on_c, 9, 36, 0
5, 5997, Note_on_c, 9, 53, 24
5, 5999, Note_on_c, 9, 70, 80
5, 5999, Note_on_c, 9, 60, 50
5, 5999, Note_on_c, 9, 56, 70
5, 6014, Note_on_c, 9, 56, 0
5, 6014, Note_on_c, 9, 60, 0
5, 6014, Note_on_c, 9, 70, 0
5, 6016, Note_on_c, 9, 53, 0
5, 6059, Note_on_c, 9, 70, 60
5, 6059, Note_on_c, 9, 60, 50
5, 6074, Note_on_c, 9, 60, 0
5, 6074, Note_on_c, 9, 70, 0
5, 6119, Note_on_c, 9, 70, 80
5, 6119, Note_on_c, 9, 64, 120
5, 6119, Note_on_c, 9, 36, 60
5, 6134, Note_on_c, 9, 36, 0
5, 6134, Note_on_c, 9, 64, 0
5, 6134, Note_on_c, 9, 70, 0
5, 6179, Note_on_c, 9, 70, 60
5, 6179, Note_on_c, 9, 64, 120
5, 6179, Note_on_c, 9, 56, 48
5, 6190, Note_on_c, 9, 53, 31
5, 6194, Note_on_c, 9, 56, 0
5, 6194, Note_on_c, 9, 70, 0
5, 6194, Note_on_c, 9, 64, 0
5, 6202, Note_on_c, 9, 53, 0
5, 6240, Program_c, 9, 0
5, 6241, Note_on_c, 9, 70, 80
5, 6241, Note_on_c, 9, 60, 50
5, 6241, Note_on_c, 9, 56, 70
5, 6255, Note_on_c, 9, 60, 0
5, 6255, Note_on_c, 9, 70, 0
5, 6255, Note_on_c, 9, 53, 16
5, 6256, Note_on_c, 9, 56, 0
5, 6267, Note_on_c, 9, 53, 0
5, 6269, Note_on_c, 9, 65, 37
5, 6299, Note_on_c, 9, 70, 60
5, 6299, Note_on_c, 9, 62, 57
5, 6302, Note_on_c, 9, 65, 0
5, 6314, Note_on_c, 9, 62, 0
5, 6314, Note_on_c, 9, 70, 0
5, 6329, Note_on_c, 9, 70, 70
5, 6344, Note_on_c, 9, 70, 0
5, 6359, Note_on_c, 9, 70, 80
5, 6359, Note_on_c, 9, 62, 120
5, 6374, Note_on_c, 9, 62, 0
5, 6374, Note_on_c, 9, 70, 0
5, 6419, Note_on_c, 9, 70, 60
5, 6419, Note_on_c, 9, 60, 50
5, 6419, Note_on_c, 9, 56, 48
5, 6419, Note_on_c, 9, 36, 60
5, 6434, Note_on_c, 9, 36, 0
5, 6434, Note_on_c, 9, 70, 0
5, 6434, Note_on_c, 9, 60, 0
5, 6434, Note_on_c, 9, 56, 0
5, 6434, Note_on_c, 9, 53, 17
5, 6448, Note_on_c, 9, 53, 0
5, 6479, Note_on_c, 9, 70, 80
5, 6479, Note_on_c, 9, 61, 50
5, 6479, Note_on_c, 9, 56, 70
5, 6494, Note_on_c, 9, 56, 0
5, 6494, Note_on_c, 9, 61, 0
5, 6494, Note_on_c, 9, 70, 0
5, 6539, Note_on_c, 9, 70, 60
5, 6539, Note_on_c, 9, 61, 50
5, 6554, Note_on_c, 9, 61, 0
5, 6554, Note_on_c, 9, 70, 0
5, 6599, Note_on_c, 9, 70, 80
5, 6599, Note_on_c, 9, 64, 120
5, 6599, Note_on_c, 9, 36, 60
5, 6614, Note_on_c, 9, 36, 0
5, 6614, Note_on_c, 9, 64, 0
5, 6614, Note_on_c, 9, 70, 0
5, 6659, Note_on_c, 9, 70, 60
5, 6659, Note_on_c, 9, 64, 120
5, 6659, Note_on_c, 9, 56, 48
5, 6661, Note_on_c, 9, 51, 27
5, 6674, Note_on_c, 9, 56, 0
5, 6674, Note_on_c, 9, 70, 0
5, 6674, Note_on_c, 9, 64, 0
5, 6678, Note_on_c, 9, 51, 0
5, 6719, Note_on_c, 9, 70, 80
5, 6719, Note_on_c, 9, 60, 50
5, 6719, Note_on_c, 9, 56, 70
5, 6734, Note_on_c, 9, 56, 0
5, 6734, Note_on_c, 9, 60, 0
5, 6734, Note_on_c, 9, 70, 0
5, 6779, Note_on_c, 9, 70, 60
5, 6779, Note_on_c, 9, 62, 57
5, 6793, Note_on_c, 9, 62, 0
5, 6793, Note_on_c, 9, 70, 0
5, 6809, Note_on_c, 9, 70, 70
5, 6824, Note_on_c, 9, 70, 0
5, 6839, Note_on_c, 9, 70, 60
5, 6839, Note_on_c, 9, 62, 120
5, 6854, Note_on_c, 9, 62, 0
5, 6854, Note_on_c, 9, 70, 0
5, 6899, Note_on_c, 9, 70, 60
5, 6899, Note_on_c, 9, 61, 50
5, 6899, Note_on_c, 9, 56, 48
5, 6899, Note_on_c, 9, 36, 60
5, 6899, Note_on_c, 9, 51, 36
5, 6914, Note_on_c, 9, 36, 0
5, 6914, Note_on_c, 9, 56, 0
5, 6914, Note_on_c, 9, 70, 0
5, 6914, Note_on_c, 9, 61, 0
5, 6917, Note_on_c, 9, 51, 0
5, 6959, Note_on_c, 9, 70, 80
5, 6959, Note_on_c, 9, 60, 50
5, 6959, Note_on_c, 9, 56, 70
5, 6974, Note_on_c, 9, 56, 0
5, 6974, Note_on_c, 9, 60, 0
5, 6974, Note_on_c, 9, 70, 0
5, 7019, Note_on_c, 9, 70, 60
5, 7019, Note_on_c, 9, 60, 50
5, 7034, Note_on_c, 9, 60, 0
5, 7034, Note_on_c, 9, 70, 0
5, 7079, Note_on_c, 9, 70, 80
5, 7079, Note_on_c, 9, 64, 120
5, 7079, Note_on_c, 9, 36, 60
5, 7094, Note_on_c, 9, 36, 0
5, 7094, Note_on_c, 9, 64, 0
5, 7094, Note_on_c, 9, 70, 0
5, 7139, Note_on_c, 9, 70, 60
5, 7139, Note_on_c, 9, 64, 120
5, 7139, Note_on_c, 9, 56, 48
5, 7152, Note_on_c, 9, 53, 59
5, 7154, Note_on_c, 9, 56, 0
5, 7154, Note_on_c, 9, 70, 0
5, 7154, Note_on_c, 9, 64, 0
5, 7187, Note_on_c, 9, 53, 0
5, 7200, Note_on_c, 9, 60, 50
5, 7200, Note_on_c, 9, 70, 80
5, 7201, Note_on_c, 9, 56, 70
5, 7214, Note_on_c, 9, 70, 0
5, 7214, Note_on_c, 9, 60, 0
5, 7215, Note_on_c, 9, 56, 0
5, 7259, Note_on_c, 9, 70, 60
5, 7259, Note_on_c, 9, 62, 57
5, 7274, Note_on_c, 9, 62, 0
5, 7274, Note_on_c, 9, 70, 0
5, 7289, Note_on_c, 9, 70, 70
5, 7289, Note_on_c, 9, 66, 42
5, 7303, Note_on_c, 9, 66, 0
5, 7304, Note_on_c, 9, 70, 0
5, 7319, Note_on_c, 9, 70, 80
5, 7319, Note_on_c, 9, 62, 120
5, 7334, Note_on_c, 9, 62, 0
5, 7334, Note_on_c, 9, 70, 0
5, 7379, Note_on_c, 9, 70, 60
5, 7379, Note_on_c, 9, 60, 50
5, 7379, Note_on_c, 9, 56, 48
5, 7379, Note_on_c, 9, 36, 60
5, 7380, Note_on_c, 9, 53, 66
5, 7384, Note_on_c, 9, 46, 48
5, 7394, Note_on_c, 9, 36, 0
5, 7394, Note_on_c, 9, 56, 0
5, 7394, Note_on_c, 9, 70, 0
5, 7394, Note_on_c, 9, 60, 0
5, 7403, Note_on_c, 9, 53, 0
5, 7422, Note_on_c, 9, 46, 0
5, 7439, Note_on_c, 9, 70, 80
5, 7439, Note_on_c, 9, 61, 50
5, 7439, Note_on_c, 9, 56, 70
5, 7453, Note_on_c, 9, 56, 0
5, 7454, Note_on_c, 9, 61, 0
5, 7454, Note_on_c, 9, 70, 0
5, 7499, Note_on_c, 9, 70, 60
5, 7499, Note_on_c, 9, 61, 50
5, 7514, Note_on_c, 9, 61, 0
5, 7514, Note_on_c, 9, 70, 0
5, 7559, Note_on_c, 9, 70, 80
5, 7559, Note_on_c, 9, 64, 120
5, 7559, Note_on_c, 9, 36, 60
5, 7574, Note_on_c, 9, 36, 0
5, 7574, Note_on_c, 9, 64, 0
5, 7574, Note_on_c, 9, 70, 0
5, 7619, Note_on_c, 9, 70, 60
5, 7619, Note_on_c, 9, 64, 120
5, 7619, Note_on_c, 9, 56, 48
5, 7634, Note_on_c, 9, 56, 0
5, 7634, Note_on_c, 9, 64, 0
5, 7634, Note_on_c, 9, 70, 0
5, 7637, Note_on_c, 9, 53, 76
5, 7637, Note_on_c, 9, 46, 48
5, 7658, Note_on_c, 9, 53, 0
5, 7660, Note_on_c, 9, 46, 0
5, 7679, Note_on_c, 9, 70, 80
5, 7679, Note_on_c, 9, 60, 50
5, 7679, Note_on_c, 9, 56, 70
5, 7694, Note_on_c, 9, 56, 0
5, 7694, Note_on_c, 9, 60, 0
5, 7694, Note_on_c, 9, 70, 0
5, 7739, Note_on_c, 9, 70, 60
5, 7739, Note_on_c, 9, 62, 57
5, 7754, Note_on_c, 9, 62, 0
5, 7754, Note_on_c, 9, 70, 0
5, 7769, Note_on_c, 9, 70, 70
5, 7769, Note_on_c, 9, 65, 39
5, 7784, Note_on_c, 9, 70, 0
5, 7792, Note_on_c, 9, 65, 0
5, 7799, Note_on_c, 9, 70, 60
5, 7799, Note_on_c, 9, 66, 50
5, 7799, Note_on_c, 9, 62, 120
5, 7814, Note_on_c, 9, 62, 0
5, 7814, Note_on_c, 9, 70, 0
5, 7817, Note_on_c, 9, 66, 0
5, 7859, Note_on_c, 9, 70, 60
5, 7859, Note_on_c, 9, 61, 50
5, 7859, Note_on_c, 9, 56, 48
5, 7859, Note_on_c, 9, 36, 60
5, 7874, Note_on_c, 9, 36, 0
5, 7874, Note_on_c, 9, 70, 0
5, 7874, Note_on_c, 9, 61, 0
5, 7874, Note_on_c, 9, 56, 0
5, 7874, Note_on_c, 9, 53, 80
5, 7894, Note_on_c, 9, 53, 0
5, 7919, Note_on_c, 9, 70, 80
5, 7919, Note_on_c, 9, 60, 50
5, 7919, Note_on_c, 9, 56, 70
5, 7934, Note_on_c, 9, 56, 0
5, 7934, Note_on_c, 9, 60, 0
5, 7934, Note_on_c, 9, 70, 0
5, 7979, Note_on_c, 9, 70, 60
5, 7979, Note_on_c, 9, 60, 50
5, 7983, Note_on_c, 9, 53, 78
5, 7994, Note_on_c, 9, 60, 0
5, 7994, Note_on_c, 9, 70, 0
5, 8004, Note_on_c, 9, 53, 0
5, 8039, Note_on_c, 9, 70, 80
5, 8039, Note_on_c, 9, 64, 120
5, 8039, Note_on_c, 9, 36, 60
5, 8054, Note_on_c, 9, 36, 0
5, 8054, Note_on_c, 9, 64, 0
5, 8054, Note_on_c, 9, 70, 0
5, 8099, Note_on_c, 9, 70, 60
5, 8099, Note_on_c, 9, 64, 120
5, 8099, Note_on_c, 9, 56, 48
5, 8106, Note_on_c, 9, 53, 45
5, 8113, Note_on_c, 9, 56, 0
5, 8114, Note_on_c, 9, 70, 0
5, 8114, Note_on_c, 9, 64, 0
5, 8119, Note_on_c, 9, 53, 0
5, 8160, Program_c, 9, 0
5, 8161, Note_on_c, 9, 70, 80
5, 8161, Note_on_c, 9, 60, 50
5, 8161, Note_on_c, 9, 56, 70
5, 8169, Note_on_c, 9, 53, 28
5, 8175, Note_on_c, 9, 60, 0
5, 8175, Note_on_c, 9, 70, 0
5, 8176, Note_on_c, 9, 56, 0
5, 8180, Note_on_c, 9, 53, 0
5, 8219, Note_on_c, 9, 62, 57
5, 8219, Note_on_c, 9, 65, 32
5, 8219, Note_on_c, 9, 70, 60
5, 8234, Note_on_c, 9, 70, 0
5, 8234, Note_on_c, 9, 62, 0
5, 8241, Note_on_c, 9, 65, 0
5, 8249, Note_on_c, 9, 70, 70
5, 8264, Note_on_c, 9, 70, 0
5, 8279, Note_on_c, 9, 62, 120
5, 8279, Note_on_c, 9, 66, 55
5, 8279, Note_on_c, 9, 70, 80
5, 8294, Note_on_c, 9, 70, 0
5, 8294, Note_on_c, 9, 62, 0
5, 8299, Note_on_c, 9, 66, 0
5, 8339, Note_on_c, 9, 36, 60
5, 8339, Note_on_c, 9, 56, 48
5, 8339, Note_on_c, 9, 60, 50
5, 8339, Note_on_c, 9, 70, 60
5, 8352, Note_on_c, 9, 53, 32
5, 8354, Note_on_c, 9, 70, 0
5, 8354, Note_on_c, 9, 60, 0
5, 8354, Note_on_c, 9, 36, 0
5, 8354, Note_on_c, 9, 56, 0
5, 8364, Note_on_c, 9, 53, 0
5, 8399, Note_on_c, 9, 56, 70
5, 8399, Note_on_c, 9, 61, 50
5, 8399, Note_on_c, 9, 70, 80
5, 8414, Note_on_c, 9, 70, 0
5, 8414, Note_on_c, 9, 61, 0
5, 8414, Note_on_c, 9, 56, 0
5, 8459, Note_on_c, 9, 61, 50
5, 8459, Note_on_c, 9, 70, 60
5, 8474, Note_on_c, 9, 70, 0
5, 8474, Note_on_c, 9, 61, 0
5, 8519, Note_on_c, 9, 36, 60
5, 8519, Note_on_c, 9, 64, 120
5, 8519, Note_on_c, 9, 70, 80
5, 8534, Note_on_c, 9, 70, 0
5, 8534, Note_on_c, 9, 64, 0
5, 8534, Note_on_c, 9, 36, 0
5, 8579, Note_on_c, 9, 56, 48
5, 8579, Note_on_c, 9, 64, 120
5, 8579, Note_on_c, 9, 70, 60
5, 8591, Note_on_c, 9, 53, 28
5, 8594, Note_on_c, 9, 70, 0
5, 8594, Note_on_c, 9, 56, 0
5, 8594, Note_on_c, 9, 64, 0
5, 8604, Note_on_c, 9, 53, 0
5, 8639, Note_on_c, 9, 56, 70
5, 8639, Note_on_c, 9, 60, 50
5, 8639, Note_on_c, 9, 70, 80
5, 8654, Note_on_c, 9, 70, 0
5, 8654, Note_on_c, 9, 60, 0
5, 8654, Note_on_c, 9, 56, 0
5, 8699, Note_on_c, 9, 62, 57
5, 8699, Note_on_c, 9, 70, 60
5, 8714, Note_on_c, 9, 70, 0
5, 8714, Note_on_c, 9, 62, 0
5, 8729, Note_on_c, 9, 70, 70
5, 8744, Note_on_c, 9, 70, 0
5, 8759, Note_on_c, 9, 62, 120
5, 8759, Note_on_c, 9, 70, 60
5, 8773, Note_on_c, 9, 70, 0
5, 8774, Note_on_c, 9, 62, 0
5, 8819, Note_on_c, 9, 36, 60
5, 8819, Note_on_c, 9, 56, 48
5, 8819, Note_on_c, 9, 61, 50
5, 8819, Note_on_c, 9, 70, 60
5, 8834, Note_on_c, 9, 70, 0
5, 8834, Note_on_c, 9, 36, 0
5, 8834, Note_on_c, 9, 56, 0
5, 8834, Note_on_c, 9, 61, 0
5, 8836, Note_on_c, 9, 53, 13
5, 8851, Note_on_c, 9, 53, 0
5, 8879, Note_on_c, 9, 56, 70
5, 8879, Note_on_c, 9, 60, 50
5, 8879, Note_on_c, 9, 70, 80
5, 8894, Note_on_c, 9, 70, 0
5, 8894, Note_on_c, 9, 60, 0
5, 8894, Note_on_c, 9, 56, 0
5, 8939, Note_on_c, 9, 60, 50
5, 8939, Note_on_c, 9, 70, 60
5, 8954, Note_on_c, 9, 70, 0
5, 8954, Note_on_c, 9, 60, 0
5, 8999, Note_on_c, 9, 36, 60
5, 8999, Note_on_c, 9, 64, 120
5, 8999, Note_on_c, 9, 70, 80
5, 9014, Note_on_c, 9, 70, 0
5, 9014, Note_on_c, 9, 64, 0
5, 9014, Note_on_c, 9, 36, 0
5, 9059, Note_on_c, 9, 56, 48
5, 9059, Note_on_c, 9, 64, 120
5, 9059, Note_on_c, 9, 70, 60
5, 9074, Note_on_c, 9, 70, 0
5, 9074, Note_on_c, 9, 64, 0
5, 9074, Note_on_c, 9, 56, 0
5, 9120, Note_on_c, 9, 70, 80
5, 9120, Note_on_c, 9, 60, 50
5, 9121, Note_on_c, 9, 56, 70
5, 9134, Note_on_c, 9, 60, 0
5, 9134, Note_on_c, 9, 70, 0
5, 9135, Note_on_c, 9, 56, 0
5, 9179, Note_on_c, 9, 62, 57
5, 9179, Note_on_c, 9, 65, 32
5, 9179, Note_on_c, 9, 70, 60
5, 9194, Note_on_c, 9, 70, 0
5, 9194, Note_on_c, 9, 62, 0
5, 9209, Note_on_c, 9, 70, 70
5, 9210, Note_on_c, 9, 65, 0
5, 9224, Note_on_c, 9, 70, 0
5, 9239, Note_on_c, 9, 62, 120
5, 9239, Note_on_c, 9, 66, 54
5, 9239, Note_on_c, 9, 70, 80
5, 9254, Note_on_c, 9, 70, 0
5, 9254, Note_on_c, 9, 62, 0
5, 9260, Note_on_c, 9, 66, 0
5, 9299, Note_on_c, 9, 36, 60
5, 9299, Note_on_c, 9, 56, 48
5, 9299, Note_on_c, 9, 60, 50
5, 9299, Note_on_c, 9, 70, 60
5, 9314, Note_on_c, 9, 70, 0
5, 9314, Note_on_c, 9, 36, 0
5, 9314, Note_on_c, 9, 56, 0
5, 9314, Note_on_c, 9, 60, 0
5, 9359, Note_on_c, 9, 56, 70
5, 9359, Note_on_c, 9, 61, 50
5, 9359, Note_on_c, 9, 70, 80
5, 9374, Note_on_c, 9, 70, 0
5, 9374, Note_on_c, 9, 61, 0
5, 9374, Note_on_c, 9, 56, 0
5, 9419, Note_on_c, 9, 61, 50
5, 9419, Note_on_c, 9, 70, 60
5, 9434, Note_on_c, 9, 70, 0
5, 9434, Note_on_c, 9, 61, 0
5, 9479, Note_on_c, 9, 36, 60
5, 9479, Note_on_c, 9, 64, 120
5, 9479, Note_on_c, 9, 70, 80
5, 9489, Note_on_c, 9, 79, 11
5, 9494, Note_on_c, 9, 70, 0
5, 9494, Note_on_c, 9, 36, 0
5, 9494, Note_on_c, 9, 64, 0
5, 9504, Note_on_c, 9, 79, 0
5, 9539, Note_on_c, 9, 56, 48
5, 9539, Note_on_c, 9, 64, 120
5, 9539, Note_on_c, 9, 70, 60
5, 9542, Note_on_c, 9, 79, 41
5, 9554, Note_on_c, 9, 70, 0
5, 9554, Note_on_c, 9, 56, 0
5, 9554, Note_on_c, 9, 64, 0
5, 9570, Note_on_c, 9, 79, 0
5, 9599, Note_on_c, 9, 56, 70
5, 9599, Note_on_c, 9, 60, 50
5, 9599, Note_on_c, 9, 70, 80
5, 9614, Note_on_c, 9, 70, 0
5, 9614, Note_on_c, 9, 60, 0
5, 9614, Note_on_c, 9, 56, 0
5, 9659, Note_on_c, 9, 62, 57
5, 9659, Note_on_c, 9, 70, 60
5, 9674, Note_on_c, 9, 70, 0
5, 9674, Note_on_c, 9, 62, 0
5, 9689, Note_on_c, 9, 70, 70
5, 9704, Note_on_c, 9, 70, 0
5, 9712, Note_on_c, 9, 78, 41
5, 9719, Note_on_c, 9, 62, 120
5, 9719, Note_on_c, 9, 70, 60
5, 9734, Note_on_c, 9, 70, 0
5, 9734, Note_on_c, 9, 62, 0
5, 9745, Note_on_c, 9, 78, 0
5, 9774, Note_on_c, 9, 78, 32
5, 9779, Note_on_c, 9, 36, 60
5, 9779, Note_on_c, 9, 56, 48
5, 9779, Note_on_c, 9, 61, 50
5, 9779, Note_on_c, 9, 70, 60
5, 9794, Note_on_c, 9, 70, 0
5, 9794, Note_on_c, 9, 56, 0
5, 9794, Note_on_c, 9, 61, 0
5, 9794, Note_on_c, 9, 36, 0
5, 9805, Note_on_c, 9, 78, 0
5, 9839, Note_on_c, 9, 56, 70
5, 9839, Note_on_c, 9, 60, 50
5, 9839, Note_on_c, 9, 70, 80
5, 9854, Note_on_c, 9, 70, 0
5, 9854, Note_on_c, 9, 60, 0
5, 9854, Note_on_c, 9, 56, 0
5, 9887, Note_on_c, 9, 53, 16
5, 9899, Note_on_c, 9, 60, 50
5, 9899, Note_on_c, 9, 70, 60
5, 9901, Note_on_c, 9, 53, 0
5, 9914, Note_on_c, 9, 70, 0
5, 9914, Note_on_c, 9, 60, 0
5, 9957, Note_on_c, 9, 79, 31
5, 9959, Note_on_c, 9, 36, 60
5, 9959, Note_on_c, 9, 64, 120
5, 9959, Note_on_c, 9, 70, 80
5, 9973, Note_on_c, 9, 79, 0
5, 9974, Note_on_c, 9, 36, 0
5, 9974, Note_on_c, 9, 64, 0
5, 9974, Note_on_c, 9, 70, 0
5, 10019, Note_on_c, 9, 56, 48
5, 10019, Note_on_c, 9, 64, 120
5, 10019, Note_on_c, 9, 70, 60
5, 10023, Note_on_c, 9, 79, 45
5, 10034, Note_on_c, 9, 70, 0
5, 10034, Note_on_c, 9, 56, 0
5, 10034, Note_on_c, 9, 64, 0
5, 10047, Note_on_c, 9, 79, 0
5, 10080, Program_c, 9, 0
5, 10081, Note_on_c, 9, 56, 70
5, 10081, Note_on_c, 9, 60, 50
5, 10081, Note_on_c, 9, 70, 80
5, 10095, Note_on_c, 9, 70, 0
5, 10095, Note_on_c, 9, 60, 0
5, 10096, Note_on_c, 9, 56, 0
5, 10139, Note_on_c, 9, 62, 57
5, 10139, Note_on_c, 9, 70, 60
5, 10154, Note_on_c, 9, 70, 0
5, 10154, Note_on_c, 9, 62, 0
5, 10169, Note_on_c, 9, 70, 70
5, 10184, Note_on_c, 9, 70, 0
5, 10199, Note_on_c, 9, 62, 120
5, 10199, Note_on_c, 9, 70, 80
5, 10214, Note_on_c, 9, 70, 0
5, 10214, Note_on_c, 9, 62, 0
5, 10259, Note_on_c, 9, 36, 60
5, 10259, Note_on_c, 9, 56, 48
5, 10259, Note_on_c, 9, 60, 50
5, 10259, Note_on_c, 9, 70, 60
5, 10274, Note_on_c, 9, 70, 0
5, 10274, Note_on_c, 9, 36, 0
5, 10274, Note_on_c, 9, 56, 0
5, 10274, Note_on_c, 9, 60, 0
5, 10319, Note_on_c, 9, 56, 70
5, 10319, Note_on_c, 9, 61, 50
5, 10319, Note_on_c, 9, 70, 80
5, 10334, Note_on_c, 9, 70, 0
5, 10334, Note_on_c, 9, 61, 0
5, 10334, Note_on_c, 9, 56, 0
5, 10379, Note_on_c, 9, 61, 50
5, 10379, Note_on_c, 9, 70, 60
5, 10394, Note_on_c, 9, 70, 0
5, 10394, Note_on_c, 9, 61, 0
5, 10439, Note_on_c, 9, 78, 2
5, 10439, Note_on_c, 9, 36, 60
5, 10439, Note_on_c, 9, 64, 120
5, 10439, Note_on_c, 9, 70, 80
5, 10454, Note_on_c, 9, 70, 0
5, 10454, Note_on_c, 9, 64, 0
5, 10454, Note_on_c, 9, 36, 0
5, 10461, Note_on_c, 9, 78, 0
5, 10499, Note_on_c, 9, 56, 48
5, 10499, Note_on_c, 9, 64, 120
5, 10499, Note_on_c, 9, 70, 60
5, 10506, Note_on_c, 9, 78, 17
5, 10514, Note_on_c, 9, 70, 0
5, 10514, Note_on_c, 9, 56, 0
5, 10514, Note_on_c, 9, 64, 0
5, 10524, Note_on_c, 9, 78, 0
5, 10559, Note_on_c, 9, 56, 70
5, 10559, Note_on_c, 9, 60, 50
5, 10559, Note_on_c, 9, 70, 80
5, 10574, Note_on_c, 9, 70, 0
5, 10574, Note_on_c, 9, 60, 0
5, 10574, Note_on_c, 9, 56, 0
5, 10619, Note_on_c, 9, 53, 10
5, 10619, Note_on_c, 9, 62, 57
5, 10619, Note_on_c, 9, 70, 60
5, 10634, Note_on_c, 9, 70, 0
5, 10634, Note_on_c, 9, 62, 0
5, 10634, Note_on_c, 9, 53, 0
5, 10649, Note_on_c, 9, 70, 70
5, 10664, Note_on_c, 9, 70, 0
5, 10674, Note_on_c, 9, 79, 27
5, 10679, Note_on_c, 9, 62, 120
5, 10679, Note_on_c, 9, 70, 60
5, 10687, Note_on_c, 9, 79, 0
5, 10694, Note_on_c, 9, 70, 0
5, 10694, Note_on_c, 9, 62, 0
5, 10739, Note_on_c, 9, 36, 60
5, 10739, Note_on_c, 9, 56, 48
5, 10739, Note_on_c, 9, 61, 50
5, 10739, Note_on_c, 9, 70, 60
5, 10742, Note_on_c, 9, 79, 52
5, 10753, Note_on_c, 9, 56, 0
5, 10753, Note_on_c, 9, 36, 0
5, 10754, Note_on_c, 9, 70, 0
5, 10754, Note_on_c, 9, 61, 0
5, 10777, Note_on_c, 9, 79, 0
5, 10799, Note_on_c, 9, 56, 70
5, 10799, Note_on_c, 9, 60, 50
5, 10799, Note_on_c, 9, 70, 80
5, 10814, Note_on_c, 9, 70, 0
5, 10814, Note_on_c, 9, 60, 0
5, 10814, Note_on_c, 9, 56, 0
5, 10859, Note_on_c, 9, 60, 50
5, 10859, Note_on_c, 9, 70, 60
5, 10863, Note_on_c, 9, 53, 12
5, 10874, Note_on_c, 9, 70, 0
5, 10874, Note_on_c, 9, 60, 0
5, 10877, Note_on_c, 9, 53, 0
5, 10906, Note_on_c, 9, 78, 33
5, 10919, Note_on_c, 9, 36, 60
5, 10919, Note_on_c, 9, 64, 120
5, 10919, Note_on_c, 9, 70, 80
5, 10934, Note_on_c, 9, 70, 0
5, 10934, Note_on_c, 9, 64, 0
5, 10934, Note_on_c, 9, 36, 0
5, 10945, Note_on_c, 9, 78, 0
5, 10973, Note_on_c, 9, 78, 29
5, 10979, Note_on_c, 9, 56, 48
5, 10979, Note_on_c, 9, 64, 120
5, 10979, Note_on_c, 9, 70, 60
5, 10994, Note_on_c, 9, 70, 0
5, 10994, Note_on_c, 9, 64, 0
5, 10994, Note_on_c, 9, 56, 0
5, 11007, Note_on_c, 9, 78, 0
5, 11040, Note_on_c, 9, 70, 80
5, 11040, Note_on_c, 9, 60, 50
5, 11040, Note_on_c, 9, 56, 70
5, 11054, Note_on_c, 9, 56, 0
5, 11054, Note_on_c, 9, 60, 0
5, 11054, Note_on_c, 9, 70, 0
5, 11099, Note_on_c, 9, 62, 57
5, 11099, Note_on_c, 9, 70, 60
5, 11114, Note_on_c, 9, 70, 0
5, 11114, Note_on_c, 9, 62, 0
5, 11115, Note_on_c, 9, 53, 15
5, 11129, Note_on_c, 9, 53, 0
5, 11129, Note_on_c, 9, 70, 70
5, 11144, Note_on_c, 9, 70, 0
5, 11159, Note_on_c, 9, 62, 120
5, 11159, Note_on_c, 9, 70, 80
5, 11167, Note_on_c, 9, 79, 21
5, 11174, Note_on_c, 9, 70, 0
5, 11174, Note_on_c, 9, 62, 0
5, 11180, Note_on_c, 9, 79, 0
5, 11219, Note_on_c, 9, 36, 60
5, 11219, Note_on_c, 9, 56, 48
5, 11219, Note_on_c, 9, 60, 50
5, 11219, Note_on_c, 9, 70, 60
5, 11234, Note_on_c, 9, 70, 0
5, 11234, Note_on_c, 9, 36, 0
5, 11234, Note_on_c, 9, 56, 0
5, 11234, Note_on_c, 9, 60, 0
5, 11242, Note_on_c, 9, 79, 20
5, 11256, Note_on_c, 9, 79, 0
5, 11279, Note_on_c, 9, 56, 70
5, 11279, Note_on_c, 9, 61, 50
5, 11279, Note_on_c, 9, 70, 80
5, 11294, Note_on_c, 9, 70, 0
5, 11294, Note_on_c, 9, 61, 0
5, 11294, Note_on_c, 9, 56, 0
5, 11339, Note_on_c, 9, 61, 50
5, 11339, Note_on_c, 9, 70, 60
5, 11354, Note_on_c, 9, 70, 0
5, 11354, Note_on_c, 9, 61, 0
5, 11399, Note_on_c, 9, 36, 60
5, 11399, Note_on_c, 9, 64, 120
5, 11399, Note_on_c, 9, 70, 80
5, 11413, Note_on_c, 9, 36, 0
5, 11414, Note_on_c, 9, 70, 0
5, 11414, Note_on_c, 9, 64, 0
5, 11459, Note_on_c, 9, 56, 48
5, 11459, Note_on_c, 9, 64, 120
5, 11459, Note_on_c, 9, 70, 60
5, 11474, Note_on_c, 9, 70, 0
5, 11474, Note_on_c, 9, 64, 0
5, 11474, Note_on_c, 9, 56, 0
5, 11519, Note_on_c, 9, 56, 70
5, 11519, Note_on_c, 9, 60, 50
5, 11519, Note_on_c, 9, 70, 80
5, 11534, Note_on_c, 9, 70, 0
5, 11534, Note_on_c, 9, 60, 0
5, 11534, Note_on_c, 9, 56, 0
5, 11579, Note_on_c, 9, 62, 57
5, 11579, Note_on_c, 9, 70, 60
5, 11591, Note_on_c, 9, 53, 9
5, 11594, Note_on_c, 9, 70, 0
5, 11594, Note_on_c, 9, 62, 0
5, 11605, Note_on_c, 9, 53, 0
5, 11609, Note_on_c, 9, 70, 70
5, 11624, Note_on_c, 9, 70, 0
5, 11639, Note_on_c, 9, 62, 120
5, 11639, Note_on_c, 9, 70, 60
5, 11641, Note_on_c, 9, 79, 32
5, 11654, Note_on_c, 9, 70, 0
5, 11654, Note_on_c, 9, 62, 0
5, 11661, Note_on_c, 9, 79, 0
5, 11699, Note_on_c, 9, 36, 60
5, 11699, Note_on_c, 9, 56, 48
5, 11699, Note_on_c, 9, 61, 50
5, 11699, Note_on_c, 9, 70, 60
5, 11705, Note_on_c, 9, 79, 48
5, 11714, Note_on_c, 9, 70, 0
5, 11714, Note_on_c, 9, 61, 0
5, 11714, Note_on_c, 9, 36, 0
5, 11714, Note_on_c, 9, 56, 0
5, 11730, Note_on_c, 9, 79, 0
5, 11759, Note_on_c, 9, 56, 70
5, 11759, Note_on_c, 9, 60, 50
5, 11759, Note_on_c, 9, 70, 80
5, 11774, Note_on_c, 9, 70, 0
5, 11774, Note_on_c, 9, 60, 0
5, 11774, Note_on_c, 9, 56, 0
5, 11819, Note_on_c, 9, 60, 50
5, 11819, Note_on_c, 9, 70, 60
5, 11826, Note_on_c, 9, 53, 7
5, 11834, Note_on_c, 9, 70, 0
5, 11834, Note_on_c, 9, 60, 0
5, 11838, Note_on_c, 9, 53, 0
5, 11874, Note_on_c, 9, 53, 25
5, 11879, Note_on_c, 9, 36, 60
5, 11879, Note_on_c, 9, 64, 120
5, 11879, Note_on_c, 9, 70, 80
5, 11889, Note_on_c, 9, 53, 0
5, 11894, Note_on_c, 9, 36, 0
5, 11894, Note_on_c, 9, 64, 0
5, 11894, Note_on_c, 9, 70, 0
5, 11939, Note_on_c, 9, 56, 48
5, 11939, Note_on_c, 9, 64, 120
5, 11939, Note_on_c, 9, 70, 60
5, 11948, Note_on_c, 9, 53, 37
5, 11954, Note_on_c, 9, 70, 0
5, 11954, Note_on_c, 9, 56, 0
5, 11954, Note_on_c, 9, 64, 0
5, 11961, Note_on_c, 9, 53, 0
5, 12000, Program_c, 9, 0
5, 12001, Note_on_c, 9, 56, 70
5, 12001, Note_on_c, 9, 60, 50
5, 12001, Note_on_c, 9, 70, 80
5, 12015, Note_on_c, 9, 70, 0
5, 12015, Note_on_c, 9, 60, 0
5, 12015, Note_on_c, 9, 56, 0
5, 12059, Note_on_c, 9, 62, 57
5, 12059, Note_on_c, 9, 70, 60
5, 12073, Note_on_c, 9, 70, 0
5, 12073, Note_on_c, 9, 62, 0
5, 12089, Note_on_c, 9, 70, 70
5, 12104, Note_on_c, 9, 70, 0
5, 12119, Note_on_c, 9, 62, 120
5, 12119, Note_on_c, 9, 70, 80
5, 12134, Note_on_c, 9, 70, 0
5, 12134, Note_on_c, 9, 62, 0
5, 12179, Note_on_c, 9, 36, 60
5, 12179, Note_on_c, 9, 56, 48
5, 12179, Note_on_c, 9, 60, 50
5, 12179, Note_on_c, 9, 70, 60
5, 12194, Note_on_c, 9, 70, 0
5, 12194, Note_on_c, 9, 36, 0
5, 12194, Note_on_c, 9, 56, 0
5, 12194, Note_on_c, 9, 60, 0
5, 12201, Note_on_c, 9, 53, 23
5, 12214, Note_on_c, 9, 53, 0
5, 12239, Note_on_c, 9, 56, 70
5, 12239, Note_on_c, 9, 61, 50
5, 12239, Note_on_c, 9, 70, 80
5, 12254, Note_on_c, 9, 70, 0
5, 12254, Note_on_c, 9, 61, 0
5, 12254, Note_on_c, 9, 56, 0
5, 12299, Note_on_c, 9, 70, 60
5, 12299, Note_on_c, 9, 61, 50
5, 12314, Note_on_c, 9, 61, 0
5, 12314, Note_on_c, 9, 70, 0
5, 12359, Note_on_c, 9, 70, 80
5, 12359, Note_on_c, 9, 64, 120
5, 12359, Note_on_c, 9, 36, 60
5, 12374, Note_on_c, 9, 36, 0
5, 12374, Note_on_c, 9, 64, 0
5, 12374, Note_on_c, 9, 70, 0
5, 12419, Note_on_c, 9, 70, 60
5, 12419, Note_on_c, 9, 64, 120
5, 12419, Note_on_c, 9, 56, 48
5, 12434, Note_on_c, 9, 56, 0
5, 12434, Note_on_c, 9, 64, 0
5, 12434, Note_on_c, 9, 70, 0
5, 12449, Note_on_c, 9, 53, 1
5, 12461, Note_on_c, 9, 53, 0
5, 12479, Note_on_c, 9, 70, 80
5, 12479, Note_on_c, 9, 60, 50
5, 12479, Note_on_c, 9, 56, 70
5, 12494, Note_on_c, 9, 56, 0
5, 12494, Note_on_c, 9, 60, 0
5, 12494, Note_on_c, 9, 70, 0
5, 12539, Note_on_c, 9, 70, 60
5, 12539, Note_on_c, 9, 62, 57
5, 12554, Note_on_c, 9, 62, 0
5, 12554, Note_on_c, 9, 70, 0
5, 12557, Note_on_c, 9, 53, 8
5, 12569, Note_on_c, 9, 70, 70
5, 12573, Note_on_c, 9, 53, 0
5, 12584, Note_on_c, 9, 70, 0
5, 12599, Note_on_c, 9, 70, 60
5, 12599, Note_on_c, 9, 62, 120
5, 12614, Note_on_c, 9, 62, 0
5, 12614, Note_on_c, 9, 70, 0
5, 12659, Note_on_c, 9, 70, 60
5, 12659, Note_on_c, 9, 61, 50
5, 12659, Note_on_c, 9, 56, 48
5, 12659, Note_on_c, 9, 36, 60
5, 12674, Note_on_c, 9, 36, 0
5, 12674, Note_on_c, 9, 70, 0
5, 12674, Note_on_c, 9, 61, 0
5, 12674, Note_on_c, 9, 56, 0
5, 12675, Note_on_c, 9, 53, 6
5, 12688, Note_on_c, 9, 53, 0
5, 12719, Note_on_c, 9, 70, 80
5, 12719, Note_on_c, 9, 60, 50
5, 12719, Note_on_c, 9, 56, 70
5, 12733, Note_on_c, 9, 56, 0
5, 12733, Note_on_c, 9, 70, 0
5, 12734, Note_on_c, 9, 60, 0
5, 12779, Note_on_c, 9, 70, 60
5, 12779, Note_on_c, 9, 60, 50
5, 12794, Note_on_c, 9, 60, 0
5, 12794, Note_on_c, 9, 70, 0
5, 12839, Note_on_c, 9, 70, 80
5, 12839, Note_on_c, 9, 64, 120
5, 12839, Note_on_c, 9, 36, 60
5, 12854, Note_on_c, 9, 36, 0
5, 12854, Note_on_c, 9, 64, 0
5, 12854, Note_on_c, 9, 70, 0
5, 12899, Note_on_c, 9, 70, 60
5, 12899, Note_on_c, 9, 64, 120
5, 12899, Note_on_c, 9, 56, 48
5, 12914, Note_on_c, 9, 56, 0
5, 12914, Note_on_c, 9, 64, 0
5, 12914, Note_on_c, 9, 70, 0
5, 12960, Note_on_c, 9, 56, 70
5, 12960, Note_on_c, 9, 60, 50
5, 12960, Note_on_c, 9, 70, 80
5, 12974, Note_on_c, 9, 70, 0
5, 12974, Note_on_c, 9, 60, 0
5, 12974, Note_on_c, 9, 56, 0
5, 13019, Note_on_c, 9, 70, 60
5, 13019, Note_on_c, 9, 62, 57
5, 13034, Note_on_c, 9, 62, 0
5, 13034, Note_on_c, 9, 70, 0
5, 13049, Note_on_c, 9, 70, 70
5, 13049, Note_on_c, 9, 65, 69
5, 13064, Note_on_c, 9, 70, 0
5, 13074, Note_on_c, 9, 65, 0
5, 13079, Note_on_c, 9, 70, 80
5, 13079, Note_on_c, 9, 62, 120
5, 13094, Note_on_c, 9, 62, 0
5, 13094, Note_on_c, 9, 70, 0
5, 13139, Note_on_c, 9, 70, 60
5, 13139, Note_on_c, 9, 60, 50
5, 13139, Note_on_c, 9, 56, 48
5, 13139, Note_on_c, 9, 36, 60
5, 13154, Note_on_c, 9, 36, 0
5, 13154, Note_on_c, 9, 70, 0
5, 13154, Note_on_c, 9, 60, 0
5, 13154, Note_on_c, 9, 56, 0
5, 13199, Note_on_c, 9, 70, 80
5, 13199, Note_on_c, 9, 61, 50
5, 13199, Note_on_c, 9, 56, 70
5, 13214, Note_on_c, 9, 56, 0
5, 13214, Note_on_c, 9, 61, 0
5, 13214, Note_on_c, 9, 70, 0
5, 13259, Note_on_c, 9, 70, 60
5, 13259, Note_on_c, 9, 65, 69
5, 13259, Note_on_c, 9, 61, 50
5, 13263, Note_on_c, 9, 53, 41
5, 13274, Note_on_c, 9, 61, 0
5, 13274, Note_on_c, 9, 70, 0
5, 13275, Note_on_c, 9, 53, 0
5, 13287, Note_on_c, 9, 65, 0
5, 13319, Note_on_c, 9, 70, 80
5, 13319, Note_on_c, 9, 64, 120
5, 13319, Note_on_c, 9, 36, 60
5, 13327, Note_on_c, 9, 53, 31
5, 13334, Note_on_c, 9, 36, 0
5, 13334, Note_on_c, 9, 70, 0
5, 13334, Note_on_c, 9, 64, 0
5, 13338, Note_on_c, 9, 53, 0
5, 13379, Note_on_c, 9, 70, 60
5, 13379, Note_on_c, 9, 64, 120
5, 13379, Note_on_c, 9, 56, 48
5, 13388, Note_on_c, 9, 53, 71
5, 13394, Note_on_c, 9, 56, 0
5, 13394, Note_on_c, 9, 70, 0
5, 13394, Note_on_c, 9, 64, 0
5, 13413, Note_on_c, 9, 53, 0
5, 13439, Note_on_c, 9, 70, 80
5, 13439, Note_on_c, 9, 65, 76
5, 13439, Note_on_c, 9, 60, 50
5, 13439, Note_on_c, 9, 56, 70
5, 13454, Note_on_c, 9, 56, 0
5, 13454, Note_on_c, 9, 60, 0
5, 13454, Note_on_c, 9, 70, 0
5, 13468, Note_on_c, 9, 65, 0
5, 13499, Note_on_c, 9, 70, 60
5, 13499, Note_on_c, 9, 62, 57
5, 13514, Note_on_c, 9, 62, 0
5, 13514, Note_on_c, 9, 70, 0
5, 13529, Note_on_c, 9, 70, 70
5, 13544, Note_on_c, 9, 70, 0
5, 13559, Note_on_c, 9, 70, 60
5, 13559, Note_on_c, 9, 62, 120
5, 13574, Note_on_c, 9, 62, 0
5, 13574, Note_on_c, 9, 70, 0
5, 13619, Note_on_c, 9, 70, 60
5, 13619, Note_on_c, 9, 66, 55
5, 13619, Note_on_c, 9, 61, 50
5, 13619, Note_on_c, 9, 56, 48
5, 13619, Note_on_c, 9, 36, 60
5, 13634, Note_on_c, 9, 36, 0
5, 13634, Note_on_c, 9, 61, 0
5, 13634, Note_on_c, 9, 56, 0
5, 13634, Note_on_c, 9, 70, 0
5, 13635, Note_on_c, 9, 53, 8
5, 13643, Note_on_c, 9, 66, 0
5, 13649, Note_on_c, 9, 53, 0
5, 13679, Note_on_c, 9, 70, 80
5, 13679, Note_on_c, 9, 60, 50
5, 13679, Note_on_c, 9, 56, 70
5, 13694, Note_on_c, 9, 56, 0
5, 13694, Note_on_c, 9, 60, 0
5, 13694, Note_on_c, 9, 70, 0
5, 13739, Note_on_c, 9, 70, 60
5, 13739, Note_on_c, 9, 65, 76
5, 13739, Note_on_c, 9, 60, 50
5, 13754, Note_on_c, 9, 60, 0
5, 13754, Note_on_c, 9, 70, 0
5, 13765, Note_on_c, 9, 65, 0
5, 13799, Note_on_c, 9, 70, 80
5, 13799, Note_on_c, 9, 64, 120
5, 13799, Note_on_c, 9, 36, 60
5, 13814, Note_on_c, 9, 36, 0
5, 13814, Note_on_c, 9, 64, 0
5, 13814, Note_on_c, 9, 70, 0
5, 13859, Note_on_c, 9, 70, 60
5, 13859, Note_on_c, 9, 64, 120
5, 13859, Note_on_c, 9, 56, 48
5, 13871, Note_on_c, 9, 53, 6
5, 13874, Note_on_c, 9, 56, 0
5, 13874, Note_on_c, 9, 70, 0
5, 13874, Note_on_c, 9, 64, 0
5, 13888, Note_on_c, 9, 53, 0
5, 13913, Note_on_c, 9, 77, 33
5, 13920, Program_c, 9, 0
5, 13921, Note_on_c, 9, 70, 80
5, 13921, Note_on_c, 9, 60, 50
5, 13921, Note_on_c, 9, 56, 70
5, 13927, Note_on_c, 9, 77, 0
5, 13935, Note_on_c, 9, 70, 0
5, 13935, Note_on_c, 9, 60, 0
5, 13935, Note_on_c, 9, 56, 0
5, 13979, Note_on_c, 9, 70, 60
5, 13979, Note_on_c, 9, 62, 57
5, 13994, Note_on_c, 9, 62, 0
5, 13994, Note_on_c, 9, 70, 0
5, 14009, Note_on_c, 9, 70, 70
5, 14024, Note_on_c, 9, 70, 0
5, 14039, Note_on_c, 9, 70, 80
5, 14039, Note_on_c, 9, 62, 120
5, 14044, Note_on_c, 9, 77, 50
5, 14053, Note_on_c, 9, 62, 0
5, 14053, Note_on_c, 9, 70, 0
5, 14074, Note_on_c, 9, 77, 0
5, 14099, Note_on_c, 9, 70, 60
5, 14099, Note_on_c, 9, 60, 50
5, 14099, Note_on_c, 9, 56, 48
5, 14099, Note_on_c, 9, 36, 60
5, 14114, Note_on_c, 9, 36, 0
5, 14114, Note_on_c, 9, 70, 0
5, 14114, Note_on_c, 9, 60, 0
5, 14114, Note_on_c, 9, 56, 0
5, 14123, Note_on_c, 9, 53, 12
5, 14137, Note_on_c, 9, 53, 0
5, 14159, Note_on_c, 9, 70, 80
5, 14159, Note_on_c, 9, 61, 50
5, 14159, Note_on_c, 9, 56, 70
5, 14173, Note_on_c, 9, 76, 25
5, 14174, Note_on_c, 9, 56, 0
5, 14174, Note_on_c, 9, 70, 0
5, 14174, Note_on_c, 9, 61, 0
5, 14196, Note_on_c, 9, 76, 0
5, 14219, Note_on_c, 9, 70, 60
5, 14219, Note_on_c, 9, 61, 50
5, 14229, Note_on_c, 9, 76, 36
5, 14234, Note_on_c, 9, 61, 0
5, 14234, Note_on_c, 9, 70, 0
5, 14250, Note_on_c, 9, 76, 0
5, 14279, Note_on_c, 9, 70, 80
5, 14279, Note_on_c, 9, 64, 120
5, 14279, Note_on_c, 9, 36, 60
5, 14285, Note_on_c, 9, 76, 31
5, 14294, Note_on_c, 9, 36, 0
5, 14294, Note_on_c, 9, 70, 0
5, 14294, Note_on_c, 9, 64, 0
5, 14302, Note_on_c, 9, 76, 0
5, 14339, Note_on_c, 9, 70, 60
5, 14339, Note_on_c, 9, 64, 120
5, 14339, Note_on_c, 9, 56, 48
5, 14354, Note_on_c, 9, 56, 0
5, 14354, Note_on_c, 9, 64, 0
5, 14354, Note_on_c, 9, 70, 0
5, 14399, Note_on_c, 9, 70, 80
5, 14399, Note_on_c, 9, 60, 50
5, 14399, Note_on_c, 9, 56, 70
5, 14412, Note_on_c, 9, 77, 43
5, 14414, Note_on_c, 9, 56, 0
5, 14414, Note_on_c, 9, 70, 0
5, 14414, Note_on_c, 9, 60, 0
5, 14428, Note_on_c, 9, 77, 0
5, 14459, Note_on_c, 9, 70, 60
5, 14459, Note_on_c, 9, 62, 57
5, 14474, Note_on_c, 9, 62, 0
5, 14474, Note_on_c, 9, 70, 0
5, 14489, Note_on_c, 9, 70, 70
5, 14504, Note_on_c, 9, 70, 0
5, 14519, Note_on_c, 9, 70, 60
5, 14519, Note_on_c, 9, 62, 120
5, 14534, Note_on_c, 9, 62, 0
5, 14534, Note_on_c, 9, 70, 0
5, 14579, Note_on_c, 9, 70, 60
5, 14579, Note_on_c, 9, 61, 50
5, 14579, Note_on_c, 9, 56, 48
5, 14579, Note_on_c, 9, 36, 60
5, 14590, Note_on_c, 9, 53, 36
5, 14594, Note_on_c, 9, 36, 0
5, 14594, Note_on_c, 9, 56, 0
5, 14594, Note_on_c, 9, 70, 0
5, 14594, Note_on_c, 9, 61, 0
5, 14602, Note_on_c, 9, 53, 0
5, 14639, Note_on_c, 9, 70, 80
5, 14639, Note_on_c, 9, 60, 50
5, 14639, Note_on_c, 9, 56, 70
5, 14652, Note_on_c, 9, 53, 48
5, 14654, Note_on_c, 9, 56, 0
5, 14654, Note_on_c, 9, 70, 0
5, 14654, Note_on_c, 9, 60, 0
5, 14680, Note_on_c, 9, 53, 0
5, 14699, Note_on_c, 9, 70, 60
5, 14699, Note_on_c, 9, 60, 50
5, 14713, Note_on_c, 9, 60, 0
5, 14713, Note_on_c, 9, 70, 0
5, 14759, Note_on_c, 9, 70, 80
5, 14759, Note_on_c, 9, 64, 120
5, 14759, Note_on_c, 9, 36, 60
5, 14774, Note_on_c, 9, 36, 0
5, 14774, Note_on_c, 9, 64, 0
5, 14774, Note_on_c, 9, 70, 0
5, 14819, Note_on_c, 9, 70, 60
5, 14819, Note_on_c, 9, 64, 120
5, 14819, Note_on_c, 9, 56, 48
5, 14834, Note_on_c, 9, 56, 0
5, 14834, Note_on_c, 9, 64, 0
5, 14834, Note_on_c, 9, 70, 0
5, 14835, Note_on_c, 9, 53, 31
5, 14847, Note_on_c, 9, 53, 0
5, 14880, Note_on_c, 9, 60, 50
5, 14880, Note_on_c, 9, 70, 80
5, 14881, Note_on_c, 9, 56, 70
5, 14894, Note_on_c, 9, 70, 0
5, 14894, Note_on_c, 9, 60, 0
5, 14895, Note_on_c, 9, 56, 0
5, 14939, Note_on_c, 9, 70, 60
5, 14939, Note_on_c, 9, 62, 57
5, 14954, Note_on_c, 9, 62, 0
5, 14954, Note_on_c, 9, 70, 0
5, 14969, Note_on_c, 9, 70, 70
5, 14984, Note_on_c, 9, 70, 0
5, 14999, Note_on_c, 9, 70, 80
5, 14999, Note_on_c, 9, 62, 120
5, 15014, Note_on_c, 9, 62, 0
5, 15014, Note_on_c, 9, 70, 0
5, 15059, Note_on_c, 9, 70, 60
5, 15059, Note_on_c, 9, 60, 50
5, 15059, Note_on_c, 9, 56, 48
5, 15059, Note_on_c, 9, 36, 60
5, 15070, Note_on_c, 9, 53, 28
5, 15074, Note_on_c, 9, 36, 0
5, 15074, Note_on_c, 9, 56, 0
5, 15074, Note_on_c, 9, 70, 0
5, 15074, Note_on_c, 9, 60, 0
5, 15083, Note_on_c, 9, 53, 0
5, 15119, Note_on_c, 9, 70, 80
5, 15119, Note_on_c, 9, 61, 50
5, 15119, Note_on_c, 9, 56, 70
5, 15134, Note_on_c, 9, 56, 0
5, 15134, Note_on_c, 9, 61, 0
5, 15134, Note_on_c, 9, 70, 0
5, 15179, Note_on_c, 9, 70, 60
5, 15179, Note_on_c, 9, 61, 50
5, 15194, Note_on_c, 9, 61, 0
5, 15194, Note_on_c, 9, 70, 0
5, 15239, Note_on_c, 9, 70, 80
5, 15239, Note_on_c, 9, 64, 120
5, 15239, Note_on_c, 9, 36, 60
5, 15254, Note_on_c, 9, 36, 0
5, 15254, Note_on_c, 9, 64, 0
5, 15254, Note_on_c, 9, 70, 0
5, 15299, Note_on_c, 9, 70, 60
5, 15299, Note_on_c, 9, 64, 120
5, 15299, Note_on_c, 9, 56, 48
5, 15312, Note_on_c, 9, 53, 24
5, 15314, Note_on_c, 9, 56, 0
5, 15314, Note_on_c, 9, 70, 0
5, 15314, Note_on_c, 9, 64, 0
5, 15324, Note_on_c, 9, 53, 0
5, 15359, Note_on_c, 9, 70, 80
5, 15359, Note_on_c, 9, 60, 50
5, 15359, Note_on_c, 9, 56, 70
5, 15374, Note_on_c, 9, 56, 0
5, 15374, Note_on_c, 9, 60, 0
5, 15374, Note_on_c, 9, 70, 0
5, 15419, Note_on_c, 9, 70, 60
5, 15419, Note_on_c, 9, 62, 57
5, 15434, Note_on_c, 9, 62, 0
5, 15434, Note_on_c, 9, 70, 0
5, 15449, Note_on_c, 9, 70, 70
5, 15464, Note_on_c, 9, 70, 0
5, 15479, Note_on_c, 9, 70, 60
5, 15479, Note_on_c, 9, 62, 120
5, 15494, Note_on_c, 9, 62, 0
5, 15494, Note_on_c, 9, 70, 0
5, 15539, Note_on_c, 9, 70, 60
5, 15539, Note_on_c, 9, 61, 50
5, 15539, Note_on_c, 9, 56, 48
5, 15539, Note_on_c, 9, 36, 60
5, 15554, Note_on_c, 9, 36, 0
5, 15554, Note_on_c, 9, 70, 0
5, 15554, Note_on_c, 9, 61, 0
5, 15554, Note_on_c, 9, 56, 0
5, 15599, Note_on_c, 9, 70, 80
5, 15599, Note_on_c, 9, 60, 50
5, 15599, Note_on_c, 9, 56, 70
5, 15614, Note_on_c, 9, 56, 0
5, 15614, Note_on_c, 9, 60, 0
5, 15614, Note_on_c, 9, 70, 0
5, 15659, Note_on_c, 9, 70, 60
5, 15659, Note_on_c, 9, 60, 50
5, 15664, Note_on_c, 9, 29, 41
5, 15674, Note_on_c, 9, 60, 0
5, 15674, Note_on_c, 9, 70, 0
5, 15719, Note_on_c, 9, 70, 80
5, 15719, Note_on_c, 9, 64, 120
5, 15719, Note_on_c, 9, 36, 60
5, 15733, Note_on_c, 9, 36, 0
5, 15734, Note_on_c, 9, 64, 0
5, 15734, Note_on_c, 9, 70, 0
5, 15779, Note_on_c, 9, 70, 60
5, 15779, Note_on_c, 9, 64, 120
5, 15779, Note_on_c, 9, 56, 48
5, 15794, Note_on_c, 9, 56, 0
5, 15794, Note_on_c, 9, 64, 0
5, 15794, Note_on_c, 9, 70, 0
5, 15832, Note_on_c, 9, 29, 0
5, 15840, Program_c, 9, 0
5, 15841, Note_on_c, 9, 70, 80
5, 15841, Note_on_c, 9, 60, 50
5, 15841, Note_on_c, 9, 56, 70
5, 15845, Note_on_c, 9, 57, 87
5, 15855, Note_on_c, 9, 56, 0
5, 15855, Note_on_c, 9, 70, 0
5, 15855, Note_on_c, 9, 60, 0
5, 15872, Note_on_c, 9, 57, 0
5, 15899, Note_on_c, 9, 70, 60
5, 15899, Note_on_c, 9, 62, 57
5, 15914, Note_on_c, 9, 62, 0
5, 15914, Note_on_c, 9, 70, 0
5, 15929, Note_on_c, 9, 70, 70
5, 15944, Note_on_c, 9, 70, 0
5, 15959, Note_on_c, 9, 70, 80
5, 15959, Note_on_c, 9, 62, 120
5, 15974, Note_on_c, 9, 62, 0
5, 15974, Note_on_c, 9, 70, 0
5, 16019, Note_on_c, 9, 70, 60
5, 16019, Note_on_c, 9, 60, 50
5, 16019, Note_on_c, 9, 56, 48
5, 16019, Note_on_c, 9, 36, 60
5, 16033, Note_on_c, 9, 56, 0
5, 16034, Note_on_c, 9, 70, 0
5, 16034, Note_on_c, 9, 60, 0
5, 16034, Note_on_c, 9, 36, 0
5, 16079, Note_on_c, 9, 70, 80
5, 16079, Note_on_c, 9, 61, 50
5, 16079, Note_on_c, 9, 56, 70
5, 16094, Note_on_c, 9, 56, 0
5, 16094, Note_on_c, 9, 61, 0
5, 16094, Note_on_c, 9, 70, 0
5, 16139, Note_on_c, 9, 70, 60
5, 16139, Note_on_c, 9, 61, 50
5, 16154, Note_on_c, 9, 61, 0
5, 16154, Note_on_c, 9, 70, 0
5, 16199, Note_on_c, 9, 70, 80
5, 16199, Note_on_c, 9, 64, 120
5, 16199, Note_on_c, 9, 36, 60
5, 16214, Note_on_c, 9, 36, 0
5, 16214, Note_on_c, 9, 64, 0
5, 16214, Note_on_c, 9, 70, 0
5, 16259, Note_on_c, 9, 70, 60
5, 16259, Note_on_c, 9, 64, 120
5, 16259, Note_on_c, 9, 56, 48
5, 16274, Note_on_c, 9, 56, 0
5, 16274, Note_on_c, 9, 64, 0
5, 16274, Note_on_c, 9, 70, 0
5, 16319, Note_on_c, 9, 70, 80
5, 16319, Note_on_c, 9, 60, 50
5, 16319, Note_on_c, 9, 56, 70
5, 16334, Note_on_c, 9, 56, 0
5, 16334, Note_on_c, 9, 60, 0
5, 16334, Note_on_c, 9, 70, 0
5, 16379, Note_on_c, 9, 62, 57
5, 16379, Note_on_c, 9, 70, 60
5, 16394, Note_on_c, 9, 70, 0
5, 16394, Note_on_c, 9, 62, 0
5, 16409, Note_on_c, 9, 70, 70
5, 16424, Note_on_c, 9, 70, 0
5, 16439, Note_on_c, 9, 62, 120
5, 16439, Note_on_c, 9, 70, 60
5, 16454, Note_on_c, 9, 70, 0
5, 16454, Note_on_c, 9, 62, 0
5, 16499, Note_on_c, 9, 36, 60
5, 16499, Note_on_c, 9, 56, 48
5, 16499, Note_on_c, 9, 61, 50
5, 16499, Note_on_c, 9, 70, 60
5, 16514, Note_on_c, 9, 70, 0
5, 16514, Note_on_c, 9, 36, 0
5, 16514, Note_on_c, 9, 56, 0
5, 16514, Note_on_c, 9, 61, 0
5, 16559, Note_on_c, 9, 56, 70
5, 16559, Note_on_c, 9, 60, 50
5, 16559, Note_on_c, 9, 70, 80
5, 16574, Note_on_c, 9, 70, 0
5, 16574, Note_on_c, 9, 60, 0
5, 16574, Note_on_c, 9, 56, 0
5, 16619, Note_on_c, 9, 60, 50
5, 16619, Note_on_c, 9, 70, 60
5, 16634, Note_on_c, 9, 70, 0
5, 16634, Note_on_c, 9, 60, 0
5, 16679, Note_on_c, 9, 36, 60
5, 16679, Note_on_c, 9, 64, 120
5, 16679, Note_on_c, 9, 70, 80
5, 16693, Note_on_c, 9, 36, 0
5, 16694, Note_on_c, 9, 70, 0
5, 16694, Note_on_c, 9, 64, 0
5, 16739, Note_on_c, 9, 56, 48
5, 16739, Note_on_c, 9, 64, 120
5, 16739, Note_on_c, 9, 70, 60
5, 16746, Note_on_c, 9, 53, 21
5, 16754, Note_on_c, 9, 70, 0
5, 16754, Note_on_c, 9, 56, 0
5, 16754, Note_on_c, 9, 64, 0
5, 16758, Note_on_c, 9, 53, 0
5, 16800, Note_on_c, 9, 70, 80
5, 16800, Note_on_c, 9, 60, 50
5, 16800, Note_on_c, 9, 53, 15
5, 16801, Note_on_c, 9, 56, 70
5, 16814, Note_on_c, 9, 53, 0
5, 16814, Note_on_c, 9, 70, 0
5, 16814, Note_on_c, 9, 60, 0
5, 16815, Note_on_c, 9, 56, 0
5, 16859, Note_on_c, 9, 62, 57
5, 16859, Note_on_c, 9, 70, 60
5, 16874, Note_on_c, 9, 70, 0
5, 16874, Note_on_c, 9, 62, 0
5, 16889, Note_on_c, 9, 70, 70
5, 16904, Note_on_c, 9, 70, 0
5, 16919, Note_on_c, 9, 62, 120
5, 16919, Note_on_c, 9, 70, 80
5, 16934, Note_on_c, 9, 70, 0
5, 16934, Note_on_c, 9, 62, 0
5, 16979, Note_on_c, 9, 36, 60
5, 16979, Note_on_c, 9, 56, 48
5, 16979, Note_on_c, 9, 60, 50
5, 16979, Note_on_c, 9, 70, 60
5, 16994, Note_on_c, 9, 70, 0
5, 16994, Note_on_c, 9, 36, 0
5, 16994, Note_on_c, 9, 56, 0
5, 16994, Note_on_c, 9, 60, 0
5, 17039, Note_on_c, 9, 56, 70
5, 17039, Note_on_c, 9, 61, 50
5, 17039, Note_on_c, 9, 70, 80
5, 17054, Note_on_c, 9, 70, 0
5, 17054, Note_on_c, 9, 61, 0
5, 17054, Note_on_c, 9, 56, 0
5, 17099, Note_on_c, 9, 61, 50
5, 17099, Note_on_c, 9, 70, 60
5, 17114, Note_on_c, 9, 70, 0
5, 17114, Note_on_c, 9, 61, 0
5, 17159, Note_on_c, 9, 36, 60
5, 17159, Note_on_c, 9, 64, 120
5, 17159, Note_on_c, 9, 70, 80
5, 17174, Note_on_c, 9, 70, 0
5, 17174, Note_on_c, 9, 64, 0
5, 17174, Note_on_c, 9, 36, 0
5, 17206, Note_on_c, 9, 34, 14
5, 17219, Note_on_c, 9, 34, 0
5, 17219, Note_on_c, 9, 56, 48
5, 17219, Note_on_c, 9, 64, 120
5, 17219, Note_on_c, 9, 70, 60
5, 17234, Note_on_c, 9, 70, 0
5, 17234, Note_on_c, 9, 64, 0
5, 17234, Note_on_c, 9, 56, 0
5, 17277, Note_on_c, 9, 34, 14
5, 17279, Note_on_c, 9, 56, 70
5, 17279, Note_on_c, 9, 60, 50
5, 17279, Note_on_c, 9, 70, 80
5, 17294, Note_on_c, 9, 70, 0
5, 17294, Note_on_c, 9, 60, 0
5, 17294, Note_on_c, 9, 56, 0
5, 17296, Note_on_c, 9, 34, 0
5, 17339, Note_on_c, 9, 62, 57
5, 17339, Note_on_c, 9, 70, 60
5, 17354, Note_on_c, 9, 70, 0
5, 17354, Note_on_c, 9, 62, 0
5, 17369, Note_on_c, 9, 70, 70
5, 17384, Note_on_c, 9, 70, 0
5, 17399, Note_on_c, 9, 62, 120
5, 17399, Note_on_c, 9, 70, 60
5, 17414, Note_on_c, 9, 70, 0
5, 17414, Note_on_c, 9, 62, 0
5, 17459, Note_on_c, 9, 36, 60
5, 17459, Note_on_c, 9, 56, 48
5, 17459, Note_on_c, 9, 61, 50
5, 17459, Note_on_c, 9, 70, 60
5, 17467, Note_on_c, 9, 34, 55
5, 17474, Note_on_c, 9, 70, 0
5, 17474, Note_on_c, 9, 61, 0
5, 17474, Note_on_c, 9, 36, 0
5, 17474, Note_on_c, 9, 56, 0
5, 17501, Note_on_c, 9, 34, 0
5, 17519, Note_on_c, 9, 56, 70
5, 17519, Note_on_c, 9, 60, 50
5, 17519, Note_on_c, 9, 70, 80
5, 17534, Note_on_c, 9, 70, 0
5, 17534, Note_on_c, 9, 60, 0
5, 17534, Note_on_c, 9, 56, 0
5, 17579, Note_on_c, 9, 60, 50
5, 17579, Note_on_c, 9, 70, 60
5, 17590, Note_on_c, 9, 34, 58
5, 17594, Note_on_c, 9, 70, 0
5, 17594, Note_on_c, 9, 60, 0
5, 17633, Note_on_c, 9, 34, 0
5, 17639, Note_on_c, 9, 36, 60
5, 17639, Note_on_c, 9, 64, 120
5, 17639, Note_on_c, 9, 70, 80
5, 17654, Note_on_c, 9, 70, 0
5, 17654, Note_on_c, 9, 64, 0
5, 17654, Note_on_c, 9, 36, 0
5, 17699, Note_on_c, 9, 56, 48
5, 17699, Note_on_c, 9, 64, 120
5, 17699, Note_on_c, 9, 70, 60
5, 17714, Note_on_c, 9, 70, 0
5, 17714, Note_on_c, 9, 64, 0
5, 17714, Note_on_c, 9, 56, 0
5, 17716, Note_on_c, 9, 34, 48
5, 17749, Note_on_c, 9, 34, 0
5, 17760, Note_on_c, 9, 56, 70
5, 17760, Program_c, 9, 0
5, 17761, Note_on_c, 9, 60, 50
5, 17761, Note_on_c, 9, 70, 80
5, 17775, Note_on_c, 9, 70, 0
5, 17775, Note_on_c, 9, 60, 0
5, 17775, Note_on_c, 9, 56, 0
5, 17819, Note_on_c, 9, 62, 57
5, 17819, Note_on_c, 9, 70, 60
5, 17834, Note_on_c, 9, 70, 0
5, 17834, Note_on_c, 9, 62, 0
5, 17849, Note_on_c, 9, 70, 70
5, 17864, Note_on_c, 9, 70, 0
5, 17879, Note_on_c, 9, 62, 120
5, 17879, Note_on_c, 9, 70, 80
5, 17894, Note_on_c, 9, 70, 0
5, 17894, Note_on_c, 9, 62, 0
5, 17939, Note_on_c, 9, 36, 60
5, 17939, Note_on_c, 9, 56, 48
5, 17939, Note_on_c, 9, 60, 50
5, 17939, Note_on_c, 9, 70, 60
5, 17954, Note_on_c, 9, 70, 0
5, 17954, Note_on_c, 9, 36, 0
5, 17954, Note_on_c, 9, 56, 0
5, 17954, Note_on_c, 9, 60, 0
5, 17999, Note_on_c, 9, 56, 70
5, 17999, Note_on_c, 9, 61, 50
5, 17999, Note_on_c, 9, 70, 80
5, 18014, Note_on_c, 9, 70, 0
5, 18014, Note_on_c, 9, 61, 0
5, 18014, Note_on_c, 9, 56, 0
5, 18059, Note_on_c, 9, 61, 50
5, 18059, Note_on_c, 9, 70, 60
5, 18074, Note_on_c, 9, 70, 0
5, 18074, Note_on_c, 9, 61, 0
5, 18119, Note_on_c, 9, 36, 60
5, 18119, Note_on_c, 9, 64, 120
5, 18119, Note_on_c, 9, 70, 80
5, 18134, Note_on_c, 9, 70, 0
5, 18134, Note_on_c, 9, 64, 0
5, 18134, Note_on_c, 9, 36, 0
5, 18179, Note_on_c, 9, 56, 48
5, 18179, Note_on_c, 9, 64, 120
5, 18179, Note_on_c, 9, 70, 60
5, 18194, Note_on_c, 9, 70, 0
5, 18194, Note_on_c, 9, 64, 0
5, 18194, Note_on_c, 9, 56, 0
5, 18239, Note_on_c, 9, 56, 70
5, 18239, Note_on_c, 9, 60, 50
5, 18239, Note_on_c, 9, 70, 80
5, 18254, Note_on_c, 9, 70, 0
5, 18254, Note_on_c, 9, 60, 0
5, 18254, Note_on_c, 9, 56, 0
5, 18299, Note_on_c, 9, 62, 57
5, 18299, Note_on_c, 9, 70, 60
5, 18314, Note_on_c, 9, 70, 0
5, 18314, Note_on_c, 9, 62, 0
5, 18329, Note_on_c, 9, 70, 70
5, 18344, Note_on_c, 9, 70, 0
5, 18359, Note_on_c, 9, 62, 120
5, 18359, Note_on_c, 9, 70, 60
5, 18374, Note_on_c, 9, 70, 0
5, 18374, Note_on_c, 9, 62, 0
5, 18406, Note_on_c, 9, 57, 23
5, 18419, Note_on_c, 9, 36, 60
5, 18419, Note_on_c, 9, 56, 48
5, 18419, Note_on_c, 9, 61, 50
5, 18419, Note_on_c, 9, 70, 60
5, 18420, Note_on_c, 9, 57, 0
5, 18434, Note_on_c, 9, 61, 0
5, 18434, Note_on_c, 9, 36, 0
5, 18434, Note_on_c, 9, 56, 0
5, 18434, Note_on_c, 9, 70, 0
5, 18479, Note_on_c, 9, 56, 70
5, 18479, Note_on_c, 9, 60, 50
5, 18479, Note_on_c, 9, 70, 80
5, 18494, Note_on_c, 9, 70, 0
5, 18494, Note_on_c, 9, 60, 0
5, 18494, Note_on_c, 9, 56, 0
5, 18539, Note_on_c, 9, 60, 50
5, 18539, Note_on_c, 9, 70, 60
5, 18554, Note_on_c, 9, 70, 0
5, 18554, Note_on_c, 9, 60, 0
5, 18599, Note_on_c, 9, 36, 60
5, 18599, Note_on_c, 9, 64, 120
5, 18599, Note_on_c, 9, 70, 80
5, 18614, Note_on_c, 9, 70, 0
5, 18614, Note_on_c, 9, 64, 0
5, 18614, Note_on_c, 9, 36, 0
5, 18659, Note_on_c, 9, 56, 48
5, 18659, Note_on_c, 9, 64, 120
5, 18659, Note_on_c, 9, 70, 60
5, 18668, Note_on_c, 9, 34, 3
5, 18674, Note_on_c, 9, 70, 0
5, 18674, Note_on_c, 9, 56, 0
5, 18674, Note_on_c, 9, 64, 0
5, 18680, Note_on_c, 9, 34, 0
5, 18720, Note_on_c, 9, 70, 80
5, 18720, Note_on_c, 9, 60, 50
5, 18721, Note_on_c, 9, 56, 70
5, 18723, Note_on_c, 9, 53, 37
5, 18734, Note_on_c, 9, 60, 0
5, 18734, Note_on_c, 9, 70, 0
5, 18735, Note_on_c, 9, 56, 0
5, 18740, Note_on_c, 9, 53, 0
5, 18779, Note_on_c, 9, 62, 57
5, 18779, Note_on_c, 9, 66, 54
5, 18779, Note_on_c, 9, 70, 60
5, 18794, Note_on_c, 9, 70, 0
5, 18794, Note_on_c, 9, 62, 0
5, 18802, Note_on_c, 9, 66, 0
5, 18809, Note_on_c, 9, 70, 70
5, 18824, Note_on_c, 9, 70, 0
5, 18839, Note_on_c, 9, 62, 120
5, 18839, Note_on_c, 9, 70, 80
5, 18854, Note_on_c, 9, 70, 0
5, 18854, Note_on_c, 9, 62, 0
5, 18899, Note_on_c, 9, 36, 60
5, 18899, Note_on_c, 9, 56, 48
5, 18899, Note_on_c, 9, 60, 50
5, 18899, Note_on_c, 9, 70, 60
5, 18914, Note_on_c, 9, 70, 0
5, 18914, Note_on_c, 9, 36, 0
5, 18914, Note_on_c, 9, 56, 0
5, 18914, Note_on_c, 9, 60, 0
5, 18915, Note_on_c, 9, 53, 40
5, 18927, Note_on_c, 9, 53, 0
5, 18959, Note_on_c, 9, 56, 70
5, 18959, Note_on_c, 9, 61, 50
5, 18959, Note_on_c, 9, 66, 51
5, 18959, Note_on_c, 9, 70, 80
5, 18974, Note_on_c, 9, 70, 0
5, 18974, Note_on_c, 9, 56, 0
5, 18974, Note_on_c, 9, 61, 0
5, 18978, Note_on_c, 9, 66, 0
5, 19019, Note_on_c, 9, 61, 50
5, 19019, Note_on_c, 9, 66, 55
5, 19019, Note_on_c, 9, 70, 60
5, 19034, Note_on_c, 9, 70, 0
5, 19034, Note_on_c, 9, 61, 0
5, 19048, Note_on_c, 9, 66, 0
5, 19079, Note_on_c, 9, 36, 60
5, 19079, Note_on_c, 9, 64, 120
5, 19079, Note_on_c, 9, 70, 80
5, 19094, Note_on_c, 9, 70, 0
5, 19094, Note_on_c, 9, 64, 0
5, 19094, Note_on_c, 9, 36, 0
5, 19139, Note_on_c, 9, 56, 48
5, 19139, Note_on_c, 9, 64, 120
5, 19139, Note_on_c, 9, 70, 60
5, 19142, Note_on_c, 9, 53, 51
5, 19154, Note_on_c, 9, 53, 0
5, 19154, Note_on_c, 9, 56, 0
5, 19154, Note_on_c, 9, 64, 0
5, 19154, Note_on_c, 9, 70, 0
5, 19199, Note_on_c, 9, 56, 70
5, 19199, Note_on_c, 9, 60, 50
5, 19199, Note_on_c, 9, 70, 80
5, 19214, Note_on_c, 9, 70, 0
5, 19214, Note_on_c, 9, 60, 0
5, 19214, Note_on_c, 9, 56, 0
5, 19259, Note_on_c, 9, 62, 57
5, 19259, Note_on_c, 9, 65, 76
5, 19259, Note_on_c, 9, 70, 60
5, 19274, Note_on_c, 9, 70, 0
5, 19274, Note_on_c, 9, 62, 0
5, 19289, Note_on_c, 9, 70, 70
5, 19290, Note_on_c, 9, 65, 0
5, 19304, Note_on_c, 9, 70, 0
5, 19319, Note_on_c, 9, 62, 120
5, 19319, Note_on_c, 9, 70, 60
5, 19333, Note_on_c, 9, 70, 0
5, 19333, Note_on_c, 9, 62, 0
5, 19379, Note_on_c, 9, 36, 60
5, 19379, Note_on_c, 9, 56, 48
5, 19379, Note_on_c, 9, 61, 50
5, 19379, Note_on_c, 9, 65, 76
5, 19379, Note_on_c, 9, 70, 60
5, 19385, Note_on_c, 9, 53, 31
5, 19394, Note_on_c, 9, 70, 0
5, 19394, Note_on_c, 9, 61, 0
5, 19394, Note_on_c, 9, 36, 0
5, 19394, Note_on_c, 9, 56, 0
5, 19397, Note_on_c, 9, 53, 0
5, 19414, Note_on_c, 9, 65, 0
5, 19438, Note_on_c, 9, 53, 36
5, 19439, Note_on_c, 9, 56, 70
5, 19439, Note_on_c, 9, 60, 50
5, 19439, Note_on_c, 9, 70, 80
5, 19454, Note_on_c, 9, 70, 0
5, 19454, Note_on_c, 9, 60, 0
5, 19454, Note_on_c, 9, 56, 0
5, 19471, Note_on_c, 9, 53, 0
5, 19499, Note_on_c, 9, 60, 50
5, 19499, Note_on_c, 9, 70, 60
5, 19514, Note_on_c, 9, 70, 0
5, 19514, Note_on_c, 9, 60, 0
5, 19559, Note_on_c, 9, 36, 60
5, 19559, Note_on_c, 9, 64, 120
5, 19559, Note_on_c, 9, 70, 80
5, 19574, Note_on_c, 9, 70, 0
5, 19574, Note_on_c, 9, 64, 0
5, 19574, Note_on_c, 9, 36, 0
5, 19619, Note_on_c, 9, 56, 48
5, 19619, Note_on_c, 9, 64, 120
5, 19619, Note_on_c, 9, 70, 60
5, 19634, Note_on_c, 9, 70, 0
5, 19634, Note_on_c, 9, 64, 0
5, 19634, Note_on_c, 9, 56, 0
5, 19637, Note_on_c, 9, 53, 15
5, 19651, Note_on_c, 9, 53, 0
5, 19680, Program_c, 9, 0
5, 19681, Note_on_c, 9, 53, 23
5, 19681, Note_on_c, 9, 56, 70
5, 19681, Note_on_c, 9, 60, 50
5, 19681, Note_on_c, 9, 70, 80
5, 19695, Note_on_c, 9, 70, 0
5, 19695, Note_on_c, 9, 60, 0
5, 19695, Note_on_c, 9, 56, 0
5, 19703, Note_on_c, 9, 53, 0
5, 19739, Note_on_c, 9, 62, 57
5, 19739, Note_on_c, 9, 70, 60
5, 19754, Note_on_c, 9, 70, 0
5, 19754, Note_on_c, 9, 62, 0
5, 19769, Note_on_c, 9, 70, 70
5, 19784, Note_on_c, 9, 70, 0
5, 19798, Note_on_c, 9, 62, 120
5, 19799, Note_on_c, 9, 70, 80
5, 19814, Note_on_c, 9, 70, 0
5, 19814, Note_on_c, 9, 62, 0
5, 19859, Note_on_c, 9, 36, 60
5, 19859, Note_on_c, 9, 56, 48
5, 19859, Note_on_c, 9, 60, 50
5, 19859, Note_on_c, 9, 70, 60
5, 19874, Note_on_c, 9, 70, 0
5, 19874, Note_on_c, 9, 36, 0
5, 19874, Note_on_c, 9, 56, 0
5, 19874, Note_on_c, 9, 60, 0
5, 19919, Note_on_c, 9, 56, 70
5, 19919, Note_on_c, 9, 61, 50
5, 19919, Note_on_c, 9, 70, 80
5, 19934, Note_on_c, 9, 70, 0
5, 19934, Note_on_c, 9, 61, 0
5, 19934, Note_on_c, 9, 56, 0
5, 19979, Note_on_c, 9, 61, 50
5, 19979, Note_on_c, 9, 70, 60
5, 19993, Note_on_c, 9, 70, 0
5, 19993, Note_on_c, 9, 61, 0
5, 20039, Note_on_c, 9, 36, 60
5, 20039, Note_on_c, 9, 64, 120
5, 20039, Note_on_c, 9, 70, 80
5, 20054, Note_on_c, 9, 70, 0
5, 20054, Note_on_c, 9, 64, 0
5, 20054, Note_on_c, 9, 36, 0
5, 20099, Note_on_c, 9, 56, 48
5, 20099, Note_on_c, 9, 64, 120
5, 20099, Note_on_c, 9, 70, 60
5, 20106, Note_on_c, 9, 77, 28
5, 20114, Note_on_c, 9, 70, 0
5, 20114, Note_on_c, 9, 56, 0
5, 20114, Note_on_c, 9, 64, 0
5, 20120, Note_on_c, 9, 77, 0
5, 20159, Note_on_c, 9, 56, 70
5, 20159, Note_on_c, 9, 60, 50
5, 20159, Note_on_c, 9, 70, 80
5, 20164, Note_on_c, 9, 77, 34
5, 20174, Note_on_c, 9, 70, 0
5, 20174, Note_on_c, 9, 56, 0
5, 20174, Note_on_c, 9, 60, 0
5, 20187, Note_on_c, 9, 77, 0
5, 20219, Note_on_c, 9, 62, 57
5, 20219, Note_on_c, 9, 70, 60
5, 20234, Note_on_c, 9, 70, 0
5, 20234, Note_on_c, 9, 62, 0
5, 20249, Note_on_c, 9, 70, 70
5, 20264, Note_on_c, 9, 70, 0
5, 20279, Note_on_c, 9, 62, 120
5, 20279, Note_on_c, 9, 70, 60
5, 20294, Note_on_c, 9, 70, 0
5, 20294, Note_on_c, 9, 62, 0
5, 20339, Note_on_c, 9, 76, 41
5, 20339, Note_on_c, 9, 36, 60
5, 20339, Note_on_c, 9, 56, 48
5, 20339, Note_on_c, 9, 61, 50
5, 20339, Note_on_c, 9, 70, 60
5, 20351, Note_on_c, 9, 76, 0
5, 20354, Note_on_c, 9, 61, 0
5, 20354, Note_on_c, 9, 36, 0
5, 20354, Note_on_c, 9, 56, 0
5, 20354, Note_on_c, 9, 70, 0
5, 20399, Note_on_c, 9, 56, 70
5, 20399, Note_on_c, 9, 60, 50
5, 20399, Note_on_c, 9, 70, 80
5, 20402, Note_on_c, 9, 76, 28
5, 20414, Note_on_c, 9, 70, 0
5, 20414, Note_on_c, 9, 56, 0
5, 20414, Note_on_c, 9, 60, 0
5, 20421, Note_on_c, 9, 76, 0
5, 20459, Note_on_c, 9, 70, 60
5, 20459, Note_on_c, 9, 60, 50
5, 20474, Note_on_c, 9, 60, 0
5, 20474, Note_on_c, 9, 70, 0
5, 20519, Note_on_c, 9, 70, 80
5, 20519, Note_on_c, 9, 64, 120
5, 20519, Note_on_c, 9, 36, 60
5, 20534, Note_on_c, 9, 36, 0
5, 20534, Note_on_c, 9, 64, 0
5, 20534, Note_on_c, 9, 70, 0
5, 20579, Note_on_c, 9, 70, 60
5, 20579, Note_on_c, 9, 64, 120
5, 20579, Note_on_c, 9, 56, 48
5, 20594, Note_on_c, 9, 56, 0
5, 20594, Note_on_c, 9, 64, 0
5, 20594, Note_on_c, 9, 70, 0
5, 20640, Note_on_c, 9, 60, 50
5, 20640, Note_on_c, 9, 70, 80
5, 20641, Note_on_c, 9, 56, 70
5, 20654, Note_on_c, 9, 70, 0
5, 20654, Note_on_c, 9, 60, 0
5, 20655, Note_on_c, 9, 56, 0
5, 20699, Note_on_c, 9, 70, 60
5, 20699, Note_on_c, 9, 62, 57
5, 20714, Note_on_c, 9, 62, 0
5, 20714, Note_on_c, 9, 70, 0
5, 20729, Note_on_c, 9, 70, 70
5, 20743, Note_on_c, 9, 70, 0
5, 20759, Note_on_c, 9, 70, 80
5, 20759, Note_on_c, 9, 62, 120
5, 20773, Note_on_c, 9, 70, 0
5, 20774, Note_on_c, 9, 62, 0
5, 20810, Note_on_c, 9, 76, 29
5, 20819, Note_on_c, 9, 70, 60
5, 20819, Note_on_c, 9, 60, 50
5, 20819, Note_on_c, 9, 56, 48
5, 20819, Note_on_c, 9, 36, 60
5, 20824, Note_on_c, 9, 76, 0
5, 20834, Note_on_c, 9, 56, 0
5, 20834, Note_on_c, 9, 70, 0
5, 20834, Note_on_c, 9, 60, 0
5, 20834, Note_on_c, 9, 36, 0
5, 20879, Note_on_c, 9, 70, 80
5, 20879, Note_on_c, 9, 61, 50
5, 20879, Note_on_c, 9, 56, 70
5, 20883, Note_on_c, 9, 76, 24
5, 20894, Note_on_c, 9, 56, 0
5, 20894, Note_on_c, 9, 70, 0
5, 20894, Note_on_c, 9, 61, 0
5, 20899, Note_on_c, 9, 76, 0
5, 20939, Note_on_c, 9, 70, 60
5, 20939, Note_on_c, 9, 61, 50
5, 20954, Note_on_c, 9, 61, 0
5, 20954, Note_on_c, 9, 70, 0
5, 20999, Note_on_c, 9, 70, 80
5, 20999, Note_on_c, 9, 64, 120
5, 20999, Note_on_c, 9, 36, 60
5, 21014, Note_on_c, 9, 36, 0
5, 21014, Note_on_c, 9, 64, 0
5, 21014, Note_on_c, 9, 70, 0
5, 21056, Note_on_c, 9, 77, 29
5, 21059, Note_on_c, 9, 70, 60
5, 21059, Note_on_c, 9, 64, 120
5, 21059, Note_on_c, 9, 56, 48
5, 21074, Note_on_c, 9, 56, 0
5, 21074, Note_on_c, 9, 64, 0
5, 21074, Note_on_c, 9, 70, 0
5, 21083, Note_on_c, 9, 77, 0
5, 21119, Note_on_c, 9, 70, 80
5, 21119, Note_on_c, 9, 60, 50
5, 21119, Note_on_c, 9, 56, 70
5, 21134, Note_on_c, 9, 56, 0
5, 21134, Note_on_c, 9, 60, 0
5, 21134, Note_on_c, 9, 70, 0
5, 21179, Note_on_c, 9, 70, 60
5, 21179, Note_on_c, 9, 62, 57
5, 21194, Note_on_c, 9, 62, 0
5, 21194, Note_on_c, 9, 70, 0
5, 21209, Note_on_c, 9, 70, 70
5, 21224, Note_on_c, 9, 70, 0
5, 21239, Note_on_c, 9, 70, 60
5, 21239, Note_on_c, 9, 62, 120
5, 21254, Note_on_c, 9, 62, 0
5, 21254, Note_on_c, 9, 70, 0
5, 21299, Note_on_c, 9, 70, 60
5, 21299, Note_on_c, 9, 61, 50
5, 21299, Note_on_c, 9, 56, 48
5, 21299, Note_on_c, 9, 36, 60
5, 21305, Note_on_c, 9, 76, 10
5, 21314, Note_on_c, 9, 36, 0
5, 21314, Note_on_c, 9, 56, 0
5, 21314, Note_on_c, 9, 70, 0
5, 21314, Note_on_c, 9, 61, 0
5, 21320, Note_on_c, 9, 76, 0
5, 21359, Note_on_c, 9, 70, 80
5, 21359, Note_on_c, 9, 60, 50
5, 21359, Note_on_c, 9, 56, 70
5, 21364, Note_on_c, 9, 76, 28
5, 21374, Note_on_c, 9, 56, 0
5, 21374, Note_on_c, 9, 70, 0
5, 21374, Note_on_c, 9, 60, 0
5, 21394, Note_on_c, 9, 76, 0
5, 21419, Note_on_c, 9, 70, 60
5, 21419, Note_on_c, 9, 60, 50
5, 21434, Note_on_c, 9, 60, 0
5, 21434, Note_on_c, 9, 70, 0
5, 21479, Note_on_c, 9, 70, 80
5, 21479, Note_on_c, 9, 64, 120
5, 21479, Note_on_c, 9, 36, 60
5, 21494, Note_on_c, 9, 36, 0
5, 21494, Note_on_c, 9, 64, 0
5, 21494, Note_on_c, 9, 70, 0
5, 21539, Note_on_c, 9, 70, 60
5, 21539, Note_on_c, 9, 64, 120
5, 21539, Note_on_c, 9, 56, 48
5, 21539, Note_on_c, 9, 77, 43
5, 21554, Note_on_c, 9, 56, 0
5, 21554, Note_on_c, 9, 70, 0
5, 21554, Note_on_c, 9, 64, 0
5, 21571, Note_on_c, 9, 77, 0
5, 21600, Program_c, 9, 0
5, 21601, Note_on_c, 9, 70, 80
5, 21601, Note_on_c, 9, 60, 50
5, 21601, Note_on_c, 9, 56, 70
5, 21615, Note_on_c, 9, 60, 0
5, 21615, Note_on_c, 9, 70, 0
5, 21616, Note_on_c, 9, 56, 0
5, 21659, Note_on_c, 9, 70, 60
5, 21659, Note_on_c, 9, 62, 57
5, 21674, Note_on_c, 9, 62, 0
5, 21674, Note_on_c, 9, 70, 0
5, 21689, Note_on_c, 9, 70, 70
5, 21704, Note_on_c, 9, 70, 0
5, 21719, Note_on_c, 9, 70, 80
5, 21719, Note_on_c, 9, 62, 120
5, 21734, Note_on_c, 9, 62, 0
5, 21734, Note_on_c, 9, 70, 0
5, 21779, Note_on_c, 9, 70, 60
5, 21779, Note_on_c, 9, 60, 50
5, 21779, Note_on_c, 9, 56, 48
5, 21779, Note_on_c, 9, 36, 60
5, 21792, Note_on_c, 9, 76, 31
5, 21794, Note_on_c, 9, 36, 0
5, 21794, Note_on_c, 9, 56, 0
5, 21794, Note_on_c, 9, 70, 0
5, 21794, Note_on_c, 9, 60, 0
5, 21809, Note_on_c, 9, 76, 0
5, 21839, Note_on_c, 9, 70, 80
5, 21839, Note_on_c, 9, 61, 50
5, 21839, Note_on_c, 9, 56, 70
5, 21851, Note_on_c, 9, 76, 24
5, 21854, Note_on_c, 9, 56, 0
5, 21854, Note_on_c, 9, 70, 0
5, 21854, Note_on_c, 9, 61, 0
5, 21875, Note_on_c, 9, 76, 0
5, 21899, Note_on_c, 9, 70, 60
5, 21899, Note_on_c, 9, 61, 50
5, 21914, Note_on_c, 9, 61, 0
5, 21914, Note_on_c, 9, 70, 0
5, 21959, Note_on_c, 9, 70, 80
5, 21959, Note_on_c, 9, 64, 120
5, 21959, Note_on_c, 9, 36, 60
5, 21973, Note_on_c, 9, 36, 0
5, 21974, Note_on_c, 9, 64, 0
5, 21974, Note_on_c, 9, 70, 0
5, 22019, Note_on_c, 9, 70, 60
5, 22019, Note_on_c, 9, 64, 120
5, 22019, Note_on_c, 9, 56, 48
5, 22022, Note_on_c, 9, 77, 57
5, 22034, Note_on_c, 9, 56, 0
5, 22034, Note_on_c, 9, 70, 0
5, 22034, Note_on_c, 9, 64, 0
5, 22044, Note_on_c, 9, 77, 0
5, 22079, Note_on_c, 9, 70, 80
5, 22079, Note_on_c, 9, 60, 50
5, 22079, Note_on_c, 9, 56, 70
5, 22080, Note_on_c, 9, 77, 50
5, 22094, Note_on_c, 9, 56, 0
5, 22094, Note_on_c, 9, 70, 0
5, 22094, Note_on_c, 9, 60, 0
5, 22112, Note_on_c, 9, 77, 0
5, 22139, Note_on_c, 9, 70, 60
5, 22139, Note_on_c, 9, 62, 57
5, 22154, Note_on_c, 9, 62, 0
5, 22154, Note_on_c, 9, 70, 0
5, 22169, Note_on_c, 9, 70, 70
5, 22184, Note_on_c, 9, 70, 0
5, 22199, Note_on_c, 9, 70, 60
5, 22199, Note_on_c, 9, 62, 120
5, 22214, Note_on_c, 9, 62, 0
5, 22214, Note_on_c, 9, 70, 0
5, 22259, Note_on_c, 9, 70, 60
5, 22259, Note_on_c, 9, 61, 50
5, 22259, Note_on_c, 9, 56, 48
5, 22259, Note_on_c, 9, 36, 60
5, 22261, Note_on_c, 9, 76, 45
5, 22274, Note_on_c, 9, 36, 0
5, 22274, Note_on_c, 9, 56, 0
5, 22274, Note_on_c, 9, 70, 0
5, 22274, Note_on_c, 9, 61, 0
5, 22286, Note_on_c, 9, 76, 0
5, 22319, Note_on_c, 9, 70, 80
5, 22319, Note_on_c, 9, 60, 50
5, 22319, Note_on_c, 9, 56, 70
5, 22334, Note_on_c, 9, 56, 0
5, 22334, Note_on_c, 9, 60, 0
5, 22334, Note_on_c, 9, 70, 0
5, 22379, Note_on_c, 9, 70, 60
5, 22379, Note_on_c, 9, 60, 50
5, 22394, Note_on_c, 9, 60, 0
5, 22394, Note_on_c, 9, 70, 0
5, 22439, Note_on_c, 9, 70, 80
5, 22439, Note_on_c, 9, 64, 120
5, 22439, Note_on_c, 9, 36, 60
5, 22454, Note_on_c, 9, 36, 0
5, 22454, Note_on_c, 9, 64, 0
5, 22454, Note_on_c, 9, 70, 0
5, 22488, Note_on_c, 9, 77, 42
5, 22499, Note_on_c, 9, 70, 60
5, 22499, Note_on_c, 9, 64, 120
5, 22499, Note_on_c, 9, 56, 48
5, 22504, Note_on_c, 9, 77, 0
5, 22514, Note_on_c, 9, 70, 0
5, 22514, Note_on_c, 9, 64, 0
5, 22514, Note_on_c, 9, 56, 0
5, 22555, Note_on_c, 9, 77, 55
5, 22560, Note_on_c, 9, 60, 50
5, 22560, Note_on_c, 9, 70, 80
5, 22561, Note_on_c, 9, 56, 70
5, 22574, Note_on_c, 9, 70, 0
5, 22574, Note_on_c, 9, 60, 0
5, 22575, Note_on_c, 9, 56, 0
5, 22591, Note_on_c, 9, 77, 0
5, 22619, Note_on_c, 9, 70, 60
5, 22619, Note_on_c, 9, 62, 57
5, 22633, Note_on_c, 9, 70, 0
5, 22634, Note_on_c, 9, 62, 0
5, 22649, Note_on_c, 9, 70, 70
5, 22664, Note_on_c, 9, 70, 0
5, 22679, Note_on_c, 9, 70, 80
5, 22679, Note_on_c, 9, 62, 120
5, 22694, Note_on_c, 9, 62, 0
5, 22694, Note_on_c, 9, 70, 0
5, 22739, Note_on_c, 9, 70, 60
5, 22739, Note_on_c, 9, 60, 50
5, 22739, Note_on_c, 9, 56, 48
5, 22739, Note_on_c, 9, 36, 60
5, 22748, Note_on_c, 9, 76, 25
5, 22754, Note_on_c, 9, 36, 0
5, 22754, Note_on_c, 9, 56, 0
5, 22754, Note_on_c, 9, 70, 0
5, 22754, Note_on_c, 9, 60, 0
5, 22768, Note_on_c, 9, 76, 0
5, 22799, Note_on_c, 9, 70, 80
5, 22799, Note_on_c, 9, 61, 50
5, 22799, Note_on_c, 9, 56, 70
5, 22803, Note_on_c, 9, 76, 27
5, 22814, Note_on_c, 9, 56, 0
5, 22814, Note_on_c, 9, 70, 0
5, 22814, Note_on_c, 9, 61, 0
5, 22824, Note_on_c, 9, 76, 0
5, 22859, Note_on_c, 9, 70, 60
5, 22859, Note_on_c, 9, 61, 50
5, 22874, Note_on_c, 9, 61, 0
5, 22874, Note_on_c, 9, 70, 0
5, 22899, Note_on_c, 9, 77, 40
5, 22911, Note_on_c, 9, 77, 0
5, 22919, Note_on_c, 9, 70, 80
5, 22919, Note_on_c, 9, 64, 120
5, 22919, Note_on_c, 9, 36, 60
5, 22934, Note_on_c, 9, 36, 0
5, 22934, Note_on_c, 9, 64, 0
5, 22934, Note_on_c, 9, 70, 0
5, 22976, Note_on_c, 9, 77, 54
5, 22979, Note_on_c, 9, 70, 60
5, 22979, Note_on_c, 9, 64, 120
5, 22979, Note_on_c, 9, 56, 48
5, 22994, Note_on_c, 9, 56, 0
5, 22994, Note_on_c, 9, 64, 0
5, 22994, Note_on_c, 9, 70, 0
5, 23002, Note_on_c, 9, 77, 0
5, 23039, Note_on_c, 9, 70, 80
5, 23039, Note_on_c, 9, 60, 50
5, 23039, Note_on_c, 9, 56, 70
5, 23054, Note_on_c, 9, 56, 0
5, 23054, Note_on_c, 9, 60, 0
5, 23054, Note_on_c, 9, 70, 0
5, 23099, Note_on_c, 9, 70, 60
5, 23099, Note_on_c, 9, 62, 57
5, 23114, Note_on_c, 9, 62, 0
5, 23114, Note_on_c, 9, 70, 0
5, 23129, Note_on_c, 9, 70, 70
5, 23144, Note_on_c, 9, 70, 0
5, 23159, Note_on_c, 9, 70, 60
5, 23159, Note_on_c, 9, 62, 120
5, 23174, Note_on_c, 9, 62, 0
5, 23174, Note_on_c, 9, 70, 0
5, 23219, Note_on_c, 9, 70, 60
5, 23219, Note_on_c, 9, 61, 50
5, 23219, Note_on_c, 9, 56, 48
5, 23219, Note_on_c, 9, 36, 60
5, 23221, Note_on_c, 9, 76, 39
5, 23234, Note_on_c, 9, 36, 0
5, 23234, Note_on_c, 9, 56, 0
5, 23234, Note_on_c, 9, 70, 0
5, 23234, Note_on_c, 9, 61, 0
5, 23235, Note_on_c, 9, 76, 0
5, 23279, Note_on_c, 9, 70, 80
5, 23279, Note_on_c, 9, 60, 50
5, 23279, Note_on_c, 9, 56, 70
5, 23281, Note_on_c, 9, 76, 40
5, 23294, Note_on_c, 9, 56, 0
5, 23294, Note_on_c, 9, 70, 0
5, 23294, Note_on_c, 9, 60, 0
5, 23309, Note_on_c, 9, 76, 0
5, 23339, Note_on_c, 9, 70, 60
5, 23339, Note_on_c, 9, 60, 50
5, 23354, Note_on_c, 9, 60, 0
5, 23354, Note_on_c, 9, 70, 0
5, 23399, Note_on_c, 9, 70, 80
5, 23399, Note_on_c, 9, 64, 120
5, 23399, Note_on_c, 9, 36, 60
5, 23403, Note_on_c, 9, 77, 37
5, 23414, Note_on_c, 9, 36, 0
5, 23414, Note_on_c, 9, 70, 0
5, 23414, Note_on_c, 9, 64, 0
5, 23437, Note_on_c, 9, 77, 0
5, 23459, Note_on_c, 9, 70, 60
5, 23459, Note_on_c, 9, 64, 120
5, 23459, Note_on_c, 9, 56, 48
5, 23468, Note_on_c, 9, 77, 46
5, 23474, Note_on_c, 9, 56, 0
5, 23474, Note_on_c, 9, 70, 0
5, 23474, Note_on_c, 9, 64, 0
5, 23513, Note_on_c, 9, 77, 0
5, 23520, Program_c, 9, 0
5, 23521, Note_on_c, 9, 70, 80
5, 23521, Note_on_c, 9, 60, 50
5, 23521, Note_on_c, 9, 56, 70
5, 23535, Note_on_c, 9, 60, 0
5, 23535, Note_on_c, 9, 70, 0
5, 23536, Note_on_c, 9, 56, 0
5, 23579, Note_on_c, 9, 70, 60
5, 23579, Note_on_c, 9, 62, 57
5, 23594, Note_on_c, 9, 62, 0
5, 23594, Note_on_c, 9, 70, 0
5, 23609, Note_on_c, 9, 70, 70
5, 23624, Note_on_c, 9, 70, 0
5, 23639, Note_on_c, 9, 70, 80
5, 23639, Note_on_c, 9, 62, 120
5, 23654, Note_on_c, 9, 62, 0
5, 23654, Note_on_c, 9, 70, 0
5, 23699, Note_on_c, 9, 70, 60
5, 23699, Note_on_c, 9, 60, 50
5, 23699, Note_on_c, 9, 56, 48
5, 23699, Note_on_c, 9, 36, 60
5, 23706, Note_on_c, 9, 76, 51
5, 23714, Note_on_c, 9, 36, 0
5, 23714, Note_on_c, 9, 56, 0
5, 23714, Note_on_c, 9, 70, 0
5, 23714, Note_on_c, 9, 60, 0
5, 23732, Note_on_c, 9, 76, 0
5, 23759, Note_on_c, 9, 70, 80
5, 23759, Note_on_c, 9, 61, 50
5, 23759, Note_on_c, 9, 56, 70
5, 23759, Note_on_c, 9, 76, 39
5, 23774, Note_on_c, 9, 56, 0
5, 23774, Note_on_c, 9, 70, 0
5, 23774, Note_on_c, 9, 61, 0
5, 23788, Note_on_c, 9, 76, 0
5, 23819, Note_on_c, 9, 70, 60
5, 23819, Note_on_c, 9, 61, 50
5, 23834, Note_on_c, 9, 61, 0
5, 23834, Note_on_c, 9, 70, 0
5, 23879, Note_on_c, 9, 70, 80
5, 23879, Note_on_c, 9, 64, 120
5, 23879, Note_on_c, 9, 36, 60
5, 23894, Note_on_c, 9, 36, 0
5, 23894, Note_on_c, 9, 64, 0
5, 23894, Note_on_c, 9, 70, 0
5, 23939, Note_on_c, 9, 70, 60
5, 23939, Note_on_c, 9, 64, 120
5, 23939, Note_on_c, 9, 56, 48
5, 23945, Note_on_c, 9, 77, 43
5, 23953, Note_on_c, 9, 56, 0
5, 23954, Note_on_c, 9, 70, 0
5, 23954, Note_on_c, 9, 64, 0
5, 23971, Note_on_c, 9, 77, 0
5, 23999, Note_on_c, 9, 70, 80
5, 23999, Note_on_c, 9, 60, 50
5, 23999, Note_on_c, 9, 56, 70
5, 24002, Note_on_c, 9, 77, 34
5, 24014, Note_on_c, 9, 56, 0
5, 24014, Note_on_c, 9, 70, 0
5, 24014, Note_on_c, 9, 60, 0
5, 24035, Note_on_c, 9, 77, 0
5, 24059, Note_on_c, 9, 70, 60
5, 24059, Note_on_c, 9, 62, 57
5, 24074, Note_on_c, 9, 62, 0
5, 24074, Note_on_c, 9, 70, 0
5, 24089, Note_on_c, 9, 70, 70
5, 24104, Note_on_c, 9, 70, 0
5, 24119, Note_on_c, 9, 70, 60
5, 24119, Note_on_c, 9, 62, 120
5, 24134, Note_on_c, 9, 62, 0
5, 24134, Note_on_c, 9, 70, 0
5, 24179, Note_on_c, 9, 70, 60
5, 24179, Note_on_c, 9, 61, 50
5, 24179, Note_on_c, 9, 56, 48
5, 24179, Note_on_c, 9, 36, 60
5, 24188, Note_on_c, 9, 76, 42
5, 24194, Note_on_c, 9, 36, 0
5, 24194, Note_on_c, 9, 56, 0
5, 24194, Note_on_c, 9, 70, 0
5, 24194, Note_on_c, 9, 61, 0
5, 24202, Note_on_c, 9, 76, 0
5, 24239, Note_on_c, 9, 70, 80
5, 24239, Note_on_c, 9, 60, 50
5, 24239, Note_on_c, 9, 56, 70
5, 24254, Note_on_c, 9, 56, 0
5, 24254, Note_on_c, 9, 60, 0
5, 24254, Note_on_c, 9, 70, 0
5, 24299, Note_on_c, 9, 70, 60
5, 24299, Note_on_c, 9, 60, 50
5, 24314, Note_on_c, 9, 60, 0
5, 24314, Note_on_c, 9, 70, 0
5, 24359, Note_on_c, 9, 70, 80
5, 24359, Note_on_c, 9, 64, 120
5, 24359, Note_on_c, 9, 36, 60
5, 24361, Note_on_c, 9, 77, 52
5, 24374, Note_on_c, 9, 36, 0
5, 24374, Note_on_c, 9, 70, 0
5, 24374, Note_on_c, 9, 64, 0
5, 24397, Note_on_c, 9, 77, 0
5, 24419, Note_on_c, 9, 70, 60
5, 24419, Note_on_c, 9, 64, 120
5, 24419, Note_on_c, 9, 56, 48
5, 24422, Note_on_c, 9, 77, 49
5, 24434, Note_on_c, 9, 56, 0
5, 24434, Note_on_c, 9, 70, 0
5, 24434, Note_on_c, 9, 64, 0
5, 24465, Note_on_c, 9, 77, 0
5, 24480, Note_on_c, 9, 60, 50
5, 24480, Note_on_c, 9, 70, 80
5, 24481, Note_on_c, 9, 56, 70
5, 24494, Note_on_c, 9, 70, 0
5, 24494, Note_on_c, 9, 60, 0
5, 24495, Note_on_c, 9, 56, 0
5, 24539, Note_on_c, 9, 62, 57
5, 24539, Note_on_c, 9, 70, 60
5, 24554, Note_on_c, 9, 70, 0
5, 24554, Note_on_c, 9, 62, 0
5, 24569, Note_on_c, 9, 70, 70
5, 24584, Note_on_c, 9, 70, 0
5, 24599, Note_on_c, 9, 62, 120
5, 24599, Note_on_c, 9, 70, 80
5, 24613, Note_on_c, 9, 70, 0
5, 24613, Note_on_c, 9, 62, 0
5, 24655, Note_on_c, 9, 76, 40
5, 24659, Note_on_c, 9, 36, 60
5, 24659, Note_on_c, 9, 56, 48
5, 24659, Note_on_c, 9, 60, 50
5, 24659, Note_on_c, 9, 70, 60
5, 24672, Note_on_c, 9, 76, 0
5, 24674, Note_on_c, 9, 60, 0
5, 24674, Note_on_c, 9, 36, 0
5, 24674, Note_on_c, 9, 56, 0
5, 24674, Note_on_c, 9, 70, 0
5, 24714, Note_on_c, 9, 76, 24
5, 24719, Note_on_c, 9, 56, 70
5, 24719, Note_on_c, 9, 61, 50
5, 24719, Note_on_c, 9, 70, 80
5, 24734, Note_on_c, 9, 70, 0
5, 24734, Note_on_c, 9, 61, 0
5, 24734, Note_on_c, 9, 56, 0
5, 24735, Note_on_c, 9, 76, 0
5, 24779, Note_on_c, 9, 61, 50
5, 24779, Note_on_c, 9, 70, 60
5, 24794, Note_on_c, 9, 70, 0
5, 24794, Note_on_c, 9, 61, 0
5, 24831, Note_on_c, 9, 77, 48
5, 24839, Note_on_c, 9, 36, 60
5, 24839, Note_on_c, 9, 64, 120
5, 24839, Note_on_c, 9, 70, 80
5, 24854, Note_on_c, 9, 70, 0
5, 24854, Note_on_c, 9, 64, 0
5, 24854, Note_on_c, 9, 36, 0
5, 24859, Note_on_c, 9, 77, 0
5, 24899, Note_on_c, 9, 56, 48
5, 24899, Note_on_c, 9, 64, 120
5, 24899, Note_on_c, 9, 70, 60
5, 24900, Note_on_c, 9, 77, 47
5, 24914, Note_on_c, 9, 70, 0
5, 24914, Note_on_c, 9, 56, 0
5, 24914, Note_on_c, 9, 64, 0
5, 24929, Note_on_c, 9, 77, 0
5, 24959, Note_on_c, 9, 56, 70
5, 24959, Note_on_c, 9, 60, 50
5, 24959, Note_on_c, 9, 70, 80
5, 24974, Note_on_c, 9, 70, 0
5, 24974, Note_on_c, 9, 60, 0
5, 24974, Note_on_c, 9, 56, 0
5, 25019, Note_on_c, 9, 62, 57
5, 25019, Note_on_c, 9, 70, 60
5, 25034, Note_on_c, 9, 70, 0
5, 25034, Note_on_c, 9, 62, 0
5, 25049, Note_on_c, 9, 70, 70
5, 25064, Note_on_c, 9, 70, 0
5, 25079, Note_on_c, 9, 62, 120
5, 25079, Note_on_c, 9, 70, 60
5, 25094, Note_on_c, 9, 70, 0
5, 25094, Note_on_c, 9, 62, 0
5, 25139, Note_on_c, 9, 36, 60
5, 25139, Note_on_c, 9, 56, 48
5, 25139, Note_on_c, 9, 61, 50
5, 25139, Note_on_c, 9, 70, 60
5, 25143, Note_on_c, 9, 76, 45
5, 25154, Note_on_c, 9, 70, 0
5, 25154, Note_on_c, 9, 61, 0
5, 25154, Note_on_c, 9, 36, 0
5, 25154, Note_on_c, 9, 56, 0
5, 25166, Note_on_c, 9, 76, 0
5, 25199, Note_on_c, 9, 56, 70
5, 25199, Note_on_c, 9, 60, 50
5, 25199, Note_on_c, 9, 70, 80
5, 25214, Note_on_c, 9, 70, 0
5, 25214, Note_on_c, 9, 60, 0
5, 25214, Note_on_c, 9, 56, 0
5, 25259, Note_on_c, 9, 60, 50
5, 25259, Note_on_c, 9, 70, 60
5, 25273, Note_on_c, 9, 70, 0
5, 25273, Note_on_c, 9, 60, 0
5, 25319, Note_on_c, 9, 36, 60
5, 25319, Note_on_c, 9, 64, 120
5, 25319, Note_on_c, 9, 70, 80
5, 25323, Note_on_c, 9, 77, 57
5, 25334, Note_on_c, 9, 70, 0
5, 25334, Note_on_c, 9, 36, 0
5, 25334, Note_on_c, 9, 64, 0
5, 25367, Note_on_c, 9, 77, 0
5, 25379, Note_on_c, 9, 56, 48
5, 25379, Note_on_c, 9, 64, 120
5, 25379, Note_on_c, 9, 70, 60
5, 25394, Note_on_c, 9, 70, 0
5, 25394, Note_on_c, 9, 64, 0
5, 25394, Note_on_c, 9, 56, 0
5, 25440, Program_c, 9, 0
5, 25441, Note_on_c, 9, 56, 70
5, 25441, Note_on_c, 9, 60, 50
5, 25441, Note_on_c, 9, 70, 80
5, 25455, Note_on_c, 9, 70, 0
5, 25455, Note_on_c, 9, 60, 0
5, 25456, Note_on_c, 9, 56, 0
5, 25499, Note_on_c, 9, 62, 57
5, 25499, Note_on_c, 9, 70, 60
5, 25514, Note_on_c, 9, 70, 0
5, 25514, Note_on_c, 9, 62, 0
5, 25529, Note_on_c, 9, 63, 100
5, 25529, Note_on_c, 9, 64, 100
5, 25529, Note_on_c, 9, 70, 70
5, 25543, Note_on_c, 9, 64, 0
5, 25544, Note_on_c, 9, 70, 0
5, 25548, Note_on_c, 9, 63, 0
5, 25559, Note_on_c, 9, 62, 120
5, 25559, Note_on_c, 9, 70, 80
5, 25574, Note_on_c, 9, 70, 0
5, 25574, Note_on_c, 9, 62, 0
5, 25617, Note_on_c, 9, 76, 36
5, 25619, Note_on_c, 9, 36, 60
5, 25619, Note_on_c, 9, 56, 48
5, 25619, Note_on_c, 9, 60, 50
5, 25619, Note_on_c, 9, 70, 60
5, 25629, Note_on_c, 9, 76, 0
5, 25634, Note_on_c, 9, 60, 0
5, 25634, Note_on_c, 9, 36, 0
5, 25634, Note_on_c, 9, 56, 0
5, 25634, Note_on_c, 9, 70, 0
5, 25679, Note_on_c, 9, 56, 70
5, 25679, Note_on_c, 9, 61, 50
5, 25679, Note_on_c, 9, 70, 80
5, 25680, Note_on_c, 9, 76, 43
5, 25694, Note_on_c, 9, 70, 0
5, 25694, Note_on_c, 9, 56, 0
5, 25694, Note_on_c, 9, 61, 0
5, 25711, Note_on_c, 9, 76, 0
5, 25739, Note_on_c, 9, 61, 50
5, 25739, Note_on_c, 9, 70, 60
5, 25754, Note_on_c, 9, 70, 0
5, 25754, Note_on_c, 9, 61, 0
5, 25799, Note_on_c, 9, 77, 47
5, 25799, Note_on_c, 9, 36, 60
5, 25799, Note_on_c, 9, 64, 120
5, 25799, Note_on_c, 9, 70, 80
5, 25814, Note_on_c, 9, 70, 0
5, 25814, Note_on_c, 9, 64, 0
5, 25814, Note_on_c, 9, 36, 0
5, 25835, Note_on_c, 9, 77, 0
5, 25859, Note_on_c, 9, 56, 48
5, 25859, Note_on_c, 9, 64, 120
5, 25859, Note_on_c, 9, 70, 60
5, 25874, Note_on_c, 9, 70, 0
5, 25874, Note_on_c, 9, 64, 0
5, 25874, Note_on_c, 9, 56, 0
5, 25919, Note_on_c, 9, 56, 70
5, 25919, Note_on_c, 9, 60, 50
5, 25919, Note_on_c, 9, 70, 80
5, 25934, Note_on_c, 9, 70, 0
5, 25934, Note_on_c, 9, 60, 0
5, 25934, Note_on_c, 9, 56, 0
5, 25979, Note_on_c, 9, 62, 57
5, 25979, Note_on_c, 9, 70, 60
5, 25994, Note_on_c, 9, 70, 0
5, 25994, Note_on_c, 9, 62, 0
5, 26009, Note_on_c, 9, 70, 70
5, 26024, Note_on_c, 9, 70, 0
5, 26039, Note_on_c, 9, 62, 120
5, 26039, Note_on_c, 9, 70, 60
5, 26054, Note_on_c, 9, 70, 0
5, 26054, Note_on_c, 9, 62, 0
5, 26098, Note_on_c, 9, 76, 44
5, 26099, Note_on_c, 9, 36, 60
5, 26099, Note_on_c, 9, 56, 48
5, 26099, Note_on_c, 9, 61, 50
5, 26099, Note_on_c, 9, 70, 60
5, 26114, Note_on_c, 9, 70, 0
5, 26114, Note_on_c, 9, 56, 0
5, 26114, Note_on_c, 9, 76, 0
5, 26114, Note_on_c, 9, 36, 0
5, 26114, Note_on_c, 9, 61, 0
5, 26159, Note_on_c, 9, 56, 70
5, 26159, Note_on_c, 9, 60, 50
5, 26159, Note_on_c, 9, 70, 80
5, 26174, Note_on_c, 9, 70, 0
5, 26174, Note_on_c, 9, 60, 0
5, 26174, Note_on_c, 9, 56, 0
5, 26219, Note_on_c, 9, 60, 50
5, 26219, Note_on_c, 9, 70, 60
5, 26234, Note_on_c, 9, 70, 0
5, 26234, Note_on_c, 9, 60, 0
5, 26279, Note_on_c, 9, 36, 60
5, 26279, Note_on_c, 9, 64, 120
5, 26279, Note_on_c, 9, 70, 80
5, 26280, Note_on_c, 9, 77, 38
5, 26294, Note_on_c, 9, 70, 0
5, 26294, Note_on_c, 9, 36, 0
5, 26294, Note_on_c, 9, 64, 0
5, 26317, Note_on_c, 9, 77, 0
5, 26339, Note_on_c, 9, 56, 48
5, 26339, Note_on_c, 9, 64, 120
5, 26339, Note_on_c, 9, 70, 60
5, 26354, Note_on_c, 9, 70, 0
5, 26354, Note_on_c, 9, 64, 0
5, 26354, Note_on_c, 9, 56, 0
5, 26400, Note_on_c, 9, 70, 80
5, 26400, Note_on_c, 9, 60, 50
5, 26401, Note_on_c, 9, 56, 70
5, 26414, Note_on_c, 9, 60, 0
5, 26414, Note_on_c, 9, 70, 0
5, 26415, Note_on_c, 9, 56, 0
5, 26459, Note_on_c, 9, 62, 57
5, 26459, Note_on_c, 9, 63, 93
5, 26459, Note_on_c, 9, 70, 60
5, 26472, Note_on_c, 9, 63, 0
5, 26474, Note_on_c, 9, 70, 0
5, 26474, Note_on_c, 9, 62, 0
5, 26489, Note_on_c, 9, 62, 100
5, 26489, Note_on_c, 9, 70, 70
5, 26504, Note_on_c, 9, 70, 0
5, 26519, Note_on_c, 9, 62, 120
5, 26519, Note_on_c, 9, 70, 80
5, 26520, Note_on_c, 9, 62, 0
5, 26534, Note_on_c, 9, 70, 0
5, 26534, Note_on_c, 9, 62, 0
5, 26579, Note_on_c, 9, 36, 60
5, 26579, Note_on_c, 9, 56, 48
5, 26579, Note_on_c, 9, 60, 50
5, 26579, Note_on_c, 9, 70, 60
5, 26582, Note_on_c, 9, 76, 31
5, 26593, Note_on_c, 9, 56, 0
5, 26594, Note_on_c, 9, 70, 0
5, 26594, Note_on_c, 9, 36, 0
5, 26594, Note_on_c, 9, 60, 0
5, 26598, Note_on_c, 9, 76, 0
5, 26639, Note_on_c, 9, 56, 70
5, 26639, Note_on_c, 9, 61, 50
5, 26639, Note_on_c, 9, 63, 97
5, 26639, Note_on_c, 9, 70, 80
5, 26648, Note_on_c, 9, 76, 23
5, 26652, Note_on_c, 9, 63, 0
5, 26654, Note_on_c, 9, 70, 0
5, 26654, Note_on_c, 9, 56, 0
5, 26654, Note_on_c, 9, 61, 0
5, 26669, Note_on_c, 9, 62, 100
5, 26673, Note_on_c, 9, 76, 0
5, 26699, Note_on_c, 9, 62, 0
5, 26699, Note_on_c, 9, 61, 50
5, 26699, Note_on_c, 9, 70, 60
5, 26714, Note_on_c, 9, 70, 0
5, 26714, Note_on_c, 9, 61, 0
5, 26759, Note_on_c, 9, 36, 60
5, 26759, Note_on_c, 9, 64, 120
5, 26759, Note_on_c, 9, 70, 80
5, 26774, Note_on_c, 9, 70, 0
5, 26774, Note_on_c, 9, 64, 0
5, 26774, Note_on_c, 9, 36, 0
5, 26819, Note_on_c, 9, 56, 48
5, 26819, Note_on_c, 9, 64, 120
5, 26819, Note_on_c, 9, 70, 60
5, 26827, Note_on_c, 9, 77, 41
5, 26834, Note_on_c, 9, 70, 0
5, 26834, Note_on_c, 9, 56, 0
5, 26834, Note_on_c, 9, 64, 0
5, 26859, Note_on_c, 9, 77, 0
5, 26879, Note_on_c, 9, 56, 70
5, 26879, Note_on_c, 9, 60, 50
5, 26879, Note_on_c, 9, 70, 80
5, 26888, Note_on_c, 9, 77, 33
5, 26894, Note_on_c, 9, 70, 0
5, 26894, Note_on_c, 9, 56, 0
5, 26894, Note_on_c, 9, 60, 0
5, 26918, Note_on_c, 9, 77, 0
5, 26939, Note_on_c, 9, 62, 57
5, 26939, Note_on_c, 9, 70, 60
5, 26954, Note_on_c, 9, 70, 0
5, 26954, Note_on_c, 9, 62, 0
5, 26969, Note_on_c, 9, 70, 70
5, 26984, Note_on_c, 9, 70, 0
5, 26999, Note_on_c, 9, 62, 120
5, 26999, Note_on_c, 9, 70, 60
5, 27014, Note_on_c, 9, 70, 0
5, 27014, Note_on_c, 9, 62, 0
5, 27059, Note_on_c, 9, 36, 60
5, 27059, Note_on_c, 9, 56, 48
5, 27059, Note_on_c, 9, 61, 50
5, 27059, Note_on_c, 9, 70, 60
5, 27072, Note_on_c, 9, 76, 33
5, 27074, Note_on_c, 9, 70, 0
5, 27074, Note_on_c, 9, 61, 0
5, 27074, Note_on_c, 9, 36, 0
5, 27074, Note_on_c, 9, 56, 0
5, 27085, Note_on_c, 9, 76, 0
5, 27119, Note_on_c, 9, 56, 70
5, 27119, Note_on_c, 9, 60, 50
5, 27119, Note_on_c, 9, 70, 80
5, 27133, Note_on_c, 9, 76, 29
5, 27134, Note_on_c, 9, 70, 0
5, 27134, Note_on_c, 9, 56, 0
5, 27134, Note_on_c, 9, 60, 0
5, 27149, Note_on_c, 9, 76, 0
5, 27179, Note_on_c, 9, 60, 50
5, 27179, Note_on_c, 9, 65, 76
5, 27179, Note_on_c, 9, 70, 60
5, 27194, Note_on_c, 9, 70, 0
5, 27194, Note_on_c, 9, 60, 0
5, 27212, Note_on_c, 9, 65, 0
5, 27239, Note_on_c, 9, 36, 60
5, 27239, Note_on_c, 9, 64, 120
5, 27239, Note_on_c, 9, 70, 80
5, 27254, Note_on_c, 9, 70, 0
5, 27254, Note_on_c, 9, 64, 0
5, 27254, Note_on_c, 9, 36, 0
5, 27299, Note_on_c, 9, 56, 48
5, 27299, Note_on_c, 9, 64, 120
5, 27299, Note_on_c, 9, 65, 76
5, 27299, Note_on_c, 9, 70, 60
5, 27314, Note_on_c, 9, 70, 0
5, 27314, Note_on_c, 9, 56, 0
5, 27314, Note_on_c, 9, 64, 0
5, 27317, Note_on_c, 9, 77, 32
5, 27328, Note_on_c, 9, 65, 0
5, 27331, Note_on_c, 9, 77, 0
5, 27360, Program_c, 9, 0
5, 27361, Note_on_c, 9, 56, 70
5, 27361, Note_on_c, 9, 60, 50
5, 27361, Note_on_c, 9, 70, 80
5, 27375, Note_on_c, 9, 70, 0
5, 27375, Note_on_c, 9, 60, 0
5, 27376, Note_on_c, 9, 56, 0
5, 27377, Note_on_c, 9, 77, 35
5, 27391, Note_on_c, 9, 77, 0
5, 27419, Note_on_c, 9, 62, 57
5, 27419, Note_on_c, 9, 70, 60
5, 27434, Note_on_c, 9, 70, 0
5, 27434, Note_on_c, 9, 62, 0
5, 27449, Note_on_c, 9, 66, 55
5, 27449, Note_on_c, 9, 70, 70
5, 27464, Note_on_c, 9, 70, 0
5, 27468, Note_on_c, 9, 66, 0
5, 27479, Note_on_c, 9, 62, 120
5, 27479, Note_on_c, 9, 70, 80
5, 27494, Note_on_c, 9, 70, 0
5, 27494, Note_on_c, 9, 62, 0
5, 27539, Note_on_c, 9, 36, 60
5, 27539, Note_on_c, 9, 56, 48
5, 27539, Note_on_c, 9, 60, 50
5, 27539, Note_on_c, 9, 70, 60
5, 27554, Note_on_c, 9, 70, 0
5, 27554, Note_on_c, 9, 36, 0
5, 27554, Note_on_c, 9, 56, 0
5, 27554, Note_on_c, 9, 60, 0
5, 27554, Note_on_c, 9, 76, 21
5, 27567, Note_on_c, 9, 76, 0
5, 27599, Note_on_c, 9, 56, 70
5, 27599, Note_on_c, 9, 61, 50
5, 27599, Note_on_c, 9, 70, 80
5, 27612, Note_on_c, 9, 76, 13
5, 27614, Note_on_c, 9, 70, 0
5, 27614, Note_on_c, 9, 56, 0
5, 27614, Note_on_c, 9, 61, 0
5, 27628, Note_on_c, 9, 76, 0
5, 27659, Note_on_c, 9, 61, 50
5, 27659, Note_on_c, 9, 70, 60
5, 27674, Note_on_c, 9, 70, 0
5, 27674, Note_on_c, 9, 61, 0
5, 27719, Note_on_c, 9, 36, 60
5, 27719, Note_on_c, 9, 64, 120
5, 27719, Note_on_c, 9, 70, 80
5, 27734, Note_on_c, 9, 70, 0
5, 27734, Note_on_c, 9, 64, 0
5, 27734, Note_on_c, 9, 36, 0
5, 27779, Note_on_c, 9, 56, 48
5, 27779, Note_on_c, 9, 64, 120
5, 27779, Note_on_c, 9, 70, 60
5, 27792, Note_on_c, 9, 77, 39
5, 27794, Note_on_c, 9, 70, 0
5, 27794, Note_on_c, 9, 56, 0
5, 27794, Note_on_c, 9, 64, 0
5, 27807, Note_on_c, 9, 77, 0
5, 27839, Note_on_c, 9, 56, 70
5, 27839, Note_on_c, 9, 60, 50
5, 27839, Note_on_c, 9, 70, 80
5, 27850, Note_on_c, 9, 77, 32
5, 27854, Note_on_c, 9, 70, 0
5, 27854, Note_on_c, 9, 56, 0
5, 27854, Note_on_c, 9, 60, 0
5, 27866, Note_on_c, 9, 77, 0
5, 27899, Note_on_c, 9, 62, 57
5, 27899, Note_on_c, 9, 65, 48
5, 27899, Note_on_c, 9, 70, 60
5, 27913, Note_on_c, 9, 70, 0
5, 27913, Note_on_c, 9, 62, 0
5, 27929, Note_on_c, 9, 65, 0
5, 27929, Note_on_c, 9, 70, 70
5, 27944, Note_on_c, 9, 70, 0
5, 27959, Note_on_c, 9, 62, 120
5, 27959, Note_on_c, 9, 66, 62
5, 27959, Note_on_c, 9, 70, 60
5, 27974, Note_on_c, 9, 70, 0
5, 27974, Note_on_c, 9, 62, 0
5, 27983, Note_on_c, 9, 66, 0
5, 28019, Note_on_c, 9, 36, 60
5, 28019, Note_on_c, 9, 56, 48
5, 28019, Note_on_c, 9, 61, 50
5, 28019, Note_on_c, 9, 70, 60
5, 28030, Note_on_c, 9, 76, 45
5, 28034, Note_on_c, 9, 70, 0
5, 28034, Note_on_c, 9, 61, 0
5, 28034, Note_on_c, 9, 36, 0
5, 28034, Note_on_c, 9, 56, 0
5, 28045, Note_on_c, 9, 76, 0
5, 28079, Note_on_c, 9, 56, 70
5, 28079, Note_on_c, 9, 60, 50
5, 28079, Note_on_c, 9, 70, 80
5, 28094, Note_on_c, 9, 70, 0
5, 28094, Note_on_c, 9, 60, 0
5, 28094, Note_on_c, 9, 56, 0
5, 28139, Note_on_c, 9, 60, 50
5, 28139, Note_on_c, 9, 66, 62
5, 28139, Note_on_c, 9, 70, 60
5, 28154, Note_on_c, 9, 70, 0
5, 28154, Note_on_c, 9, 60, 0
5, 28166, Note_on_c, 9, 66, 0
5, 28199, Note_on_c, 9, 36, 60
5, 28199, Note_on_c, 9, 64, 120
5, 28199, Note_on_c, 9, 70, 80
5, 28214, Note_on_c, 9, 70, 0
5, 28214, Note_on_c, 9, 64, 0
5, 28214, Note_on_c, 9, 36, 0
5, 28259, Note_on_c, 9, 56, 48
5, 28259, Note_on_c, 9, 64, 120
5, 28259, Note_on_c, 9, 70, 60
5, 28274, Note_on_c, 9, 70, 0
5, 28274, Note_on_c, 9, 64, 0
5, 28274, Note_on_c, 9, 56, 0
5, 28279, Note_on_c, 9, 77, 29
5, 28293, Note_on_c, 9, 77, 0
5, 28320, Note_on_c, 9, 70, 80
5, 28320, Note_on_c, 9, 60, 50
5, 28320, Note_on_c, 9, 56, 70
5, 28334, Note_on_c, 9, 56, 0
5, 28334, Note_on_c, 9, 60, 0
5, 28334, Note_on_c, 9, 70, 0
5, 28379, Note_on_c, 9, 62, 57
5, 28379, Note_on_c, 9, 65, 64
5, 28379, Note_on_c, 9, 70, 60
5, 28394, Note_on_c, 9, 70, 0
5, 28394, Note_on_c, 9, 62, 0
5, 28407, Note_on_c, 9, 65, 0
5, 28409, Note_on_c, 9, 70, 70
5, 28424, Note_on_c, 9, 70, 0
5, 28439, Note_on_c, 9, 62, 120
5, 28439, Note_on_c, 9, 70, 80
5, 28454, Note_on_c, 9, 70, 0
5, 28454, Note_on_c, 9, 62, 0
5, 28499, Note_on_c, 9, 36, 60
5, 28499, Note_on_c, 9, 56, 48
5, 28499, Note_on_c, 9, 60, 50
5, 28499, Note_on_c, 9, 65, 76
5, 28499, Note_on_c, 9, 70, 60
5, 28514, Note_on_c, 9, 70, 0
5, 28514, Note_on_c, 9, 36, 0
5, 28514, Note_on_c, 9, 60, 0
5, 28514, Note_on_c, 9, 56, 0
5, 28523, Note_on_c, 9, 65, 0
5, 28559, Note_on_c, 9, 56, 70
5, 28559, Note_on_c, 9, 61, 50
5, 28559, Note_on_c, 9, 70, 80
5, 28574, Note_on_c, 9, 70, 0
5, 28574, Note_on_c, 9, 61, 0
5, 28574, Note_on_c, 9, 56, 0
5, 28619, Note_on_c, 9, 70, 60
5, 28619, Note_on_c, 9, 61, 50
5, 28634, Note_on_c, 9, 61, 0
5, 28634, Note_on_c, 9, 70, 0
5, 28679, Note_on_c, 9, 70, 80
5, 28679, Note_on_c, 9, 64, 120
5, 28679, Note_on_c, 9, 36, 60
5, 28694, Note_on_c, 9, 36, 0
5, 28694, Note_on_c, 9, 64, 0
5, 28694, Note_on_c, 9, 70, 0
5, 28739, Note_on_c, 9, 70, 60
5, 28739, Note_on_c, 9, 64, 120
5, 28739, Note_on_c, 9, 56, 48
5, 28754, Note_on_c, 9, 56, 0
5, 28754, Note_on_c, 9, 64, 0
5, 28754, Note_on_c, 9, 70, 0
5, 28799, Note_on_c, 9, 70, 80
5, 28799, Note_on_c, 9, 60, 50
5, 28799, Note_on_c, 9, 56, 70
5, 28814, Note_on_c, 9, 56, 0
5, 28814, Note_on_c, 9, 60, 0
5, 28814, Note_on_c, 9, 70, 0
5, 28859, Note_on_c, 9, 70, 60
5, 28859, Note_on_c, 9, 65, 48
5, 28859, Note_on_c, 9, 62, 57
5, 28874, Note_on_c, 9, 62, 0
5, 28874, Note_on_c, 9, 70, 0
5, 28885, Note_on_c, 9, 65, 0
5, 28889, Note_on_c, 9, 70, 70
5, 28904, Note_on_c, 9, 70, 0
5, 28919, Note_on_c, 9, 70, 60
5, 28919, Note_on_c, 9, 66, 62
5, 28919, Note_on_c, 9, 62, 120
5, 28934, Note_on_c, 9, 62, 0
5, 28934, Note_on_c, 9, 70, 0
5, 28944, Note_on_c, 9, 66, 0
5, 28977, Note_on_c, 9, 77, 23
5, 28979, Note_on_c, 9, 70, 60
5, 28979, Note_on_c, 9, 61, 50
5, 28979, Note_on_c, 9, 56, 48
5, 28979, Note_on_c, 9, 36, 60
5, 28992, Note_on_c, 9, 77, 0
5, 28994, Note_on_c, 9, 56, 0
5, 28994, Note_on_c, 9, 70, 0
5, 28994, Note_on_c, 9, 61, 0
5, 28994, Note_on_c, 9, 36, 0
5, 29039, Note_on_c, 9, 70, 80
5, 29039, Note_on_c, 9, 66, 62
5, 29039, Note_on_c, 9, 60, 50
5, 29039, Note_on_c, 9, 56, 70
5, 29045, Note_on_c, 9, 77, 39
5, 29054, Note_on_c, 9, 56, 0
5, 29054, Note_on_c, 9, 60, 0
5, 29054, Note_on_c, 9, 70, 0
5, 29064, Note_on_c, 9, 66, 0
5, 29077, Note_on_c, 9, 77, 0
5, 29099, Note_on_c, 9, 70, 60
5, 29099, Note_on_c, 9, 60, 50
5, 29114, Note_on_c, 9, 60, 0
5, 29114, Note_on_c, 9, 70, 0
5, 29159, Note_on_c, 9, 70, 80
5, 29159, Note_on_c, 9, 64, 120
5, 29159, Note_on_c, 9, 36, 60
5, 29174, Note_on_c, 9, 36, 0
5, 29174, Note_on_c, 9, 64, 0
5, 29174, Note_on_c, 9, 70, 0
5, 29219, Note_on_c, 9, 70, 60
5, 29219, Note_on_c, 9, 64, 120
5, 29219, Note_on_c, 9, 56, 48
5, 29226, Note_on_c, 9, 76, 22
5, 29233, Note_on_c, 9, 56, 0
5, 29233, Note_on_c, 9, 70, 0
5, 29234, Note_on_c, 9, 64, 0
5, 29240, Note_on_c, 9, 76, 0
5, 29280, Program_c, 9, 0
5, 29281, Note_on_c, 9, 70, 80
5, 29281, Note_on_c, 9, 60, 50
5, 29281, Note_on_c, 9, 56, 70
5, 29283, Note_on_c, 9, 76, 13
5, 29295, Note_on_c, 9, 60, 0
5, 29295, Note_on_c, 9, 70, 0
5, 29296, Note_on_c, 9, 56, 0
5, 29305, Note_on_c, 9, 76, 0
5, 29339, Note_on_c, 9, 70, 60
5, 29339, Note_on_c, 9, 62, 57
5, 29354, Note_on_c, 9, 62, 0
5, 29354, Note_on_c, 9, 70, 0
5, 29369, Note_on_c, 9, 70, 70
5, 29384, Note_on_c, 9, 70, 0
5, 29399, Note_on_c, 9, 70, 80
5, 29399, Note_on_c, 9, 62, 120
5, 29414, Note_on_c, 9, 62, 0
5, 29414, Note_on_c, 9, 70, 0
5, 29459, Note_on_c, 9, 70, 60
5, 29459, Note_on_c, 9, 60, 50
5, 29459, Note_on_c, 9, 56, 48
5, 29459, Note_on_c, 9, 36, 60
5, 29474, Note_on_c, 9, 36, 0
5, 29474, Note_on_c, 9, 70, 0
5, 29474, Note_on_c, 9, 60, 0
5, 29474, Note_on_c, 9, 56, 0
5, 29477, Note_on_c, 9, 77, 37
5, 29490, Note_on_c, 9, 77, 0
5, 29519, Note_on_c, 9, 70, 80
5, 29519, Note_on_c, 9, 61, 50
5, 29519, Note_on_c, 9, 56, 70
5, 29534, Note_on_c, 9, 56, 0
5, 29534, Note_on_c, 9, 61, 0
5, 29534, Note_on_c, 9, 70, 0
5, 29579, Note_on_c, 9, 70, 60
5, 29579, Note_on_c, 9, 61, 50
5, 29594, Note_on_c, 9, 61, 0
5, 29594, Note_on_c, 9, 70, 0
5, 29639, Note_on_c, 9, 70, 80
5, 29639, Note_on_c, 9, 64, 120
5, 29639, Note_on_c, 9, 36, 60
5, 29654, Note_on_c, 9, 36, 0
5, 29654, Note_on_c, 9, 64, 0
5, 29654, Note_on_c, 9, 70, 0
5, 29699, Note_on_c, 9, 70, 60
5, 29699, Note_on_c, 9, 64, 120
5, 29699, Note_on_c, 9, 56, 48
5, 29702, Note_on_c, 9, 76, 15
5, 29714, Note_on_c, 9, 56, 0
5, 29714, Note_on_c, 9, 70, 0
5, 29714, Note_on_c, 9, 64, 0
5, 29719, Note_on_c, 9, 76, 0
5, 29759, Note_on_c, 9, 70, 80
5, 29759, Note_on_c, 9, 60, 50
5, 29759, Note_on_c, 9, 56, 70
5, 29774, Note_on_c, 9, 56, 0
5, 29774, Note_on_c, 9, 60, 0
5, 29774, Note_on_c, 9, 70, 0
5, 29819, Note_on_c, 9, 70, 60
5, 29819, Note_on_c, 9, 62, 57
5, 29834, Note_on_c, 9, 62, 0
5, 29834, Note_on_c, 9, 70, 0
5, 29849, Note_on_c, 9, 70, 70
5, 29864, Note_on_c, 9, 70, 0
5, 29879, Note_on_c, 9, 70, 60
5, 29879, Note_on_c, 9, 62, 120
5, 29893, Note_on_c, 9, 62, 0
5, 29893, Note_on_c, 9, 70, 0
5, 29932, Note_on_c, 9, 77, 16
5, 29939, Note_on_c, 9, 70, 60
5, 29939, Note_on_c, 9, 61, 50
5, 29939, Note_on_c, 9, 56, 48
5, 29939, Note_on_c, 9, 36, 60
5, 29948, Note_on_c, 9, 77, 0
5, 29954, Note_on_c, 9, 56, 0
5, 29954, Note_on_c, 9, 70, 0
5, 29954, Note_on_c, 9, 61, 0
5, 29954, Note_on_c, 9, 36, 0
5, 29999, Note_on_c, 9, 70, 80
5, 29999, Note_on_c, 9, 60, 50
5, 29999, Note_on_c, 9, 56, 70
5, 30004, Note_on_c, 9, 77, 1
5, 30014, Note_on_c, 9, 56, 0
5, 30014, Note_on_c, 9, 70, 0
5, 30014, Note_on_c, 9, 60, 0
5, 30016, Note_on_c, 9, 77, 0
5, 30059, Note_on_c, 9, 70, 60
5, 30059, Note_on_c, 9, 60, 50
5, 30074, Note_on_c, 9, 60, 0
5, 30074, Note_on_c, 9, 70, 0
5, 30119, Note_on_c, 9, 70, 80
5, 30119, Note_on_c, 9, 64, 120
5, 30119, Note_on_c, 9, 36, 60
5, 30134, Note_on_c, 9, 36, 0
5, 30134, Note_on_c, 9, 64, 0
5, 30134, Note_on_c, 9, 70, 0
5, 30174, Note_on_c, 9, 76, 23
5, 30179, Note_on_c, 9, 70, 60
5, 30179, Note_on_c, 9, 64, 120
5, 30179, Note_on_c, 9, 56, 48
5, 30189, Note_on_c, 9, 76, 0
5, 30194, Note_on_c, 9, 70, 0
5, 30194, Note_on_c, 9, 64, 0
5, 30194, Note_on_c, 9, 56, 0
5, 30240, Note_on_c, 9, 60, 50
5, 30240, Note_on_c, 9, 70, 80
5, 30241, Note_on_c, 9, 56, 70
5, 30252, Note_on_c, 9, 76, 2
5, 30254, Note_on_c, 9, 70, 0
5, 30254, Note_on_c, 9, 60, 0
5, 30255, Note_on_c, 9, 56, 0
5, 30264, Note_on_c, 9, 76, 0
5, 30299, Note_on_c, 9, 70, 60
5, 30299, Note_on_c, 9, 62, 57
5, 30314, Note_on_c, 9, 62, 0
5, 30314, Note_on_c, 9, 70, 0
5, 30329, Note_on_c, 9, 70, 70
5, 30344, Note_on_c, 9, 70, 0
5, 30359, Note_on_c, 9, 70, 80
5, 30359, Note_on_c, 9, 62, 120
5, 30374, Note_on_c, 9, 62, 0
5, 30374, Note_on_c, 9, 70, 0
5, 30419, Note_on_c, 9, 70, 60
5, 30419, Note_on_c, 9, 60, 50
5, 30419, Note_on_c, 9, 56, 48
5, 30419, Note_on_c, 9, 36, 60
5, 30434, Note_on_c, 9, 36, 0
5, 30434, Note_on_c, 9, 70, 0
5, 30434, Note_on_c, 9, 60, 0
5, 30434, Note_on_c, 9, 56, 0
5, 30435, Note_on_c, 9, 77, 19
5, 30449, Note_on_c, 9, 77, 0
5, 30479, Note_on_c, 9, 70, 80
5, 30479, Note_on_c, 9, 61, 50
5, 30479, Note_on_c, 9, 56, 70
5, 30494, Note_on_c, 9, 56, 0
5, 30494, Note_on_c, 9, 61, 0
5, 30494, Note_on_c, 9, 70, 0
5, 30539, Note_on_c, 9, 70, 60
5, 30539, Note_on_c, 9, 61, 50
5, 30554, Note_on_c, 9, 61, 0
5, 30554, Note_on_c, 9, 70, 0
5, 30599, Note_on_c, 9, 70, 80
5, 30599, Note_on_c, 9, 64, 120
5, 30599, Note_on_c, 9, 36, 60
5, 30614, Note_on_c, 9, 36, 0
5, 30614, Note_on_c, 9, 64, 0
5, 30614, Note_on_c, 9, 70, 0
5, 30659, Note_on_c, 9, 70, 60
5, 30659, Note_on_c, 9, 64, 120
5, 30659, Note_on_c, 9, 56, 48
5, 30669, Note_on_c, 9, 76, 8
5, 30674, Note_on_c, 9, 56, 0
5, 30674, Note_on_c, 9, 70, 0
5, 30674, Note_on_c, 9, 64, 0
5, 30682, Note_on_c, 9, 76, 0
5, 30719, Note_on_c, 9, 70, 80
5, 30719, Note_on_c, 9, 60, 50
5, 30719, Note_on_c, 9, 56, 70
5, 30728, Note_on_c, 9, 76, 10
5, 30734, Note_on_c, 9, 56, 0
5, 30734, Note_on_c, 9, 70, 0
5, 30734, Note_on_c, 9, 60, 0
5, 30747, Note_on_c, 9, 76, 0
5, 30779, Note_on_c, 9, 70, 60
5, 30779, Note_on_c, 9, 62, 57
5, 30794, Note_on_c, 9, 62, 0
5, 30794, Note_on_c, 9, 70, 0
5, 30809, Note_on_c, 9, 70, 70
5, 30824, Note_on_c, 9, 70, 0
5, 30839, Note_on_c, 9, 70, 60
5, 30839, Note_on_c, 9, 62, 120
5, 30854, Note_on_c, 9, 62, 0
5, 30854, Note_on_c, 9, 70, 0
5, 30899, Note_on_c, 9, 70, 60
5, 30899, Note_on_c, 9, 61, 50
5, 30899, Note_on_c, 9, 56, 48
5, 30899, Note_on_c, 9, 36, 60
5, 30899, Note_on_c, 9, 58, 33
5, 30914, Note_on_c, 9, 36, 0
5, 30914, Note_on_c, 9, 56, 0
5, 30914, Note_on_c, 9, 70, 0
5, 30914, Note_on_c, 9, 61, 0
5, 30959, Note_on_c, 9, 70, 80
5, 30959, Note_on_c, 9, 60, 50
5, 30959, Note_on_c, 9, 56, 70
5, 30974, Note_on_c, 9, 56, 0
5, 30974, Note_on_c, 9, 60, 0
5, 30974, Note_on_c, 9, 70, 0
5, 31019, Note_on_c, 9, 70, 60
5, 31019, Note_on_c, 9, 60, 50
5, 31034, Note_on_c, 9, 60, 0
5, 31034, Note_on_c, 9, 70, 0
5, 31079, Note_on_c, 9, 70, 80
5, 31079, Note_on_c, 9, 64, 120
5, 31079, Note_on_c, 9, 36, 60
5, 31094, Note_on_c, 9, 36, 0
5, 31094, Note_on_c, 9, 64, 0
5, 31094, Note_on_c, 9, 70, 0
5, 31139, Note_on_c, 9, 70, 60
5, 31139, Note_on_c, 9, 64, 120
5, 31139, Note_on_c, 9, 56, 48
5, 31151, Note_on_c, 9, 58, 0
5, 31154, Note_on_c, 9, 70, 0
5, 31154, Note_on_c, 9, 64, 0
5, 31154, Note_on_c, 9, 56, 0
5, 31165, Note_on_c, 9, 76, 1
5, 31177, Note_on_c, 9, 76, 0
5, 31200, Program_c, 9, 0
5, 31201, Note_on_c, 9, 70, 80
5, 31201, Note_on_c, 9, 60, 50
5, 31201, Note_on_c, 9, 56, 70
5, 31215, Note_on_c, 9, 56, 0
5, 31215, Note_on_c, 9, 60, 0
5, 31215, Note_on_c, 9, 70, 0
5, 31259, Note_on_c, 9, 70, 60
5, 31259, Note_on_c, 9, 62, 57
5, 31274, Note_on_c, 9, 62, 0
5, 31274, Note_on_c, 9, 70, 0
5, 31289, Note_on_c, 9, 70, 70
5, 31304, Note_on_c, 9, 70, 0
5, 31319, Note_on_c, 9, 70, 80
5, 31319, Note_on_c, 9, 62, 120
5, 31334, Note_on_c, 9, 62, 0
5, 31334, Note_on_c, 9, 70, 0
5, 31379, Note_on_c, 9, 70, 60
5, 31379, Note_on_c, 9, 60, 50
5, 31379, Note_on_c, 9, 56, 48
5, 31379, Note_on_c, 9, 36, 60
5, 31394, Note_on_c, 9, 36, 0
5, 31394, Note_on_c, 9, 70, 0
5, 31394, Note_on_c, 9, 60, 0
5, 31394, Note_on_c, 9, 56, 0
5, 31439, Note_on_c, 9, 70, 80
5, 31439, Note_on_c, 9, 61, 50
5, 31439, Note_on_c, 9, 56, 70
5, 31453, Note_on_c, 9, 77, 26
5, 31454, Note_on_c, 9, 56, 0
5, 31454, Note_on_c, 9, 70, 0
5, 31454, Note_on_c, 9, 61, 0
5, 31475, Note_on_c, 9, 77, 0
5, 31499, Note_on_c, 9, 70, 60
5, 31499, Note_on_c, 9, 61, 50
5, 31514, Note_on_c, 9, 61, 0
5, 31514, Note_on_c, 9, 70, 0
5, 31559, Note_on_c, 9, 70, 80
5, 31559, Note_on_c, 9, 64, 120
5, 31559, Note_on_c, 9, 36, 60
5, 31574, Note_on_c, 9, 36, 0
5, 31574, Note_on_c, 9, 64, 0
5, 31574, Note_on_c, 9, 70, 0
5, 31619, Note_on_c, 9, 70, 60
5, 31619, Note_on_c, 9, 64, 120
5, 31619, Note_on_c, 9, 56, 48
5, 31626, Note_on_c, 9, 76, 29
5, 31634, Note_on_c, 9, 56, 0
5, 31634, Note_on_c, 9, 70, 0
5, 31634, Note_on_c, 9, 64, 0
5, 31646, Note_on_c, 9, 76, 0
5, 31679, Note_on_c, 9, 70, 80
5, 31679, Note_on_c, 9, 60, 50
5, 31679, Note_on_c, 9, 56, 70
5, 31694, Note_on_c, 9, 56, 0
5, 31694, Note_on_c, 9, 60, 0
5, 31694, Note_on_c, 9, 70, 0
5, 31739, Note_on_c, 9, 70, 60
5, 31739, Note_on_c, 9, 65, 64
5, 31739, Note_on_c, 9, 62, 57
5, 31754, Note_on_c, 9, 62, 0
5, 31754, Note_on_c, 9, 70, 0
5, 31769, Note_on_c, 9, 65, 0
5, 31769, Note_on_c, 9, 70, 70
5, 31784, Note_on_c, 9, 70, 0
5, 31799, Note_on_c, 9, 70, 60
5, 31799, Note_on_c, 9, 65, 49
5, 31799, Note_on_c, 9, 62, 120
5, 31814, Note_on_c, 9, 62, 0
5, 31814, Note_on_c, 9, 70, 0
5, 31827, Note_on_c, 9, 65, 0
5, 31859, Note_on_c, 9, 70, 60
5, 31859, Note_on_c, 9, 65, 76
5, 31859, Note_on_c, 9, 61, 50
5, 31859, Note_on_c, 9, 56, 48
5, 31859, Note_on_c, 9, 36, 60
5, 31874, Note_on_c, 9, 36, 0
5, 31874, Note_on_c, 9, 61, 0
5, 31874, Note_on_c, 9, 56, 0
5, 31874, Note_on_c, 9, 70, 0
5, 31895, Note_on_c, 9, 65, 0
5, 31919, Note_on_c, 9, 70, 80
5, 31919, Note_on_c, 9, 60, 50
5, 31919, Note_on_c, 9, 56, 70
5, 31927, Note_on_c, 9, 76, 13
5, 31934, Note_on_c, 9, 56, 0
5, 31934, Note_on_c, 9, 70, 0
5, 31934, Note_on_c, 9, 60, 0
5, 31943, Note_on_c, 9, 76, 0
5, 31979, Note_on_c, 9, 70, 60
5, 31979, Note_on_c, 9, 65, 76
5, 31979, Note_on_c, 9, 60, 50
5, 31994, Note_on_c, 9, 60, 0
5, 31994, Note_on_c, 9, 70, 0
5, 32022, Note_on_c, 9, 65, 0
5, 32039, Note_on_c, 9, 70, 80
5, 32039, Note_on_c, 9, 64, 120
5, 32039, Note_on_c, 9, 36, 60
5, 32052, Note_on_c, 9, 77, 37
5, 32054, Note_on_c, 9, 36, 0
5, 32054, Note_on_c, 9, 70, 0
5, 32054, Note_on_c, 9, 64, 0
5, 32081, Note_on_c, 9, 77, 0
5, 32099, Note_on_c, 9, 70, 60
5, 32099, Note_on_c, 9, 66, 58
5, 32099, Note_on_c, 9, 64, 120
5, 32099, Note_on_c, 9, 56, 48
5, 32114, Note_on_c, 9, 56, 0
5, 32114, Note_on_c, 9, 64, 0
5, 32114, Note_on_c, 9, 70, 0
5, 32132, Note_on_c, 9, 66, 0
5, 32160, Note_on_c, 9, 60, 50
5, 32160, Note_on_c, 9, 70, 80
5, 32161, Note_on_c, 9, 56, 70
5, 32174, Note_on_c, 9, 70, 0
5, 32174, Note_on_c, 9, 60, 0
5, 32175, Note_on_c, 9, 56, 0
5, 32219, Note_on_c, 9, 70, 60
5, 32219, Note_on_c, 9, 66, 62
5, 32219, Note_on_c, 9, 62, 57
5, 32234, Note_on_c, 9, 62, 0
5, 32234, Note_on_c, 9, 70, 0
5, 32249, Note_on_c, 9, 70, 70
5, 32252, Note_on_c, 9, 66, 0
5, 32264, Note_on_c, 9, 70, 0
5, 32279, Note_on_c, 9, 70, 80
5, 32279, Note_on_c, 9, 62, 120
5, 32287, Note_on_c, 9, 76, 11
5, 32294, Note_on_c, 9, 62, 0
5, 32294, Note_on_c, 9, 70, 0
5, 32302, Note_on_c, 9, 76, 0
5, 32339, Note_on_c, 9, 70, 60
5, 32339, Note_on_c, 9, 66, 62
5, 32339, Note_on_c, 9, 60, 50
5, 32339, Note_on_c, 9, 56, 48
5, 32339, Note_on_c, 9, 36, 60
5, 32351, Note_on_c, 9, 76, 36
5, 32354, Note_on_c, 9, 36, 0
5, 32354, Note_on_c, 9, 56, 0
5, 32354, Note_on_c, 9, 60, 0
5, 32354, Note_on_c, 9, 70, 0
5, 32377, Note_on_c, 9, 66, 0
5, 32383, Note_on_c, 9, 76, 0
5, 32399, Note_on_c, 9, 70, 80
5, 32399, Note_on_c, 9, 61, 50
5, 32399, Note_on_c, 9, 56, 70
5, 32414, Note_on_c, 9, 56, 0
5, 32414, Note_on_c, 9, 61, 0
5, 32414, Note_on_c, 9, 70, 0
5, 32459, Note_on_c, 9, 70, 60
5, 32459, Note_on_c, 9, 65, 76
5, 32459, Note_on_c, 9, 61, 50
5, 32474, Note_on_c, 9, 61, 0
5, 32474, Note_on_c, 9, 70, 0
5, 32485, Note_on_c, 9, 65, 0
5, 32519, Note_on_c, 9, 70, 80
5, 32519, Note_on_c, 9, 66, 62
5, 32519, Note_on_c, 9, 64, 120
5, 32519, Note_on_c, 9, 36, 60
5, 32526, Note_on_c, 9, 77, 56
5, 32534, Note_on_c, 9, 36, 0
5, 32534, Note_on_c, 9, 64, 0
5, 32534, Note_on_c, 9, 70, 0
5, 32546, Note_on_c, 9, 66, 0
5, 32556, Note_on_c, 9, 77, 0
5, 32579, Note_on_c, 9, 70, 60
5, 32579, Note_on_c, 9, 64, 120
5, 32579, Note_on_c, 9, 56, 48
5, 32594, Note_on_c, 9, 56, 0
5, 32594, Note_on_c, 9, 64, 0
5, 32594, Note_on_c, 9, 70, 0
5, 32639, Note_on_c, 9, 70, 80
5, 32639, Note_on_c, 9, 60, 50
5, 32639, Note_on_c, 9, 56, 70
5, 32654, Note_on_c, 9, 56, 0
5, 32654, Note_on_c, 9, 60, 0
5, 32654, Note_on_c, 9, 70, 0
5, 32699, Note_on_c, 9, 62, 57
5, 32699, Note_on_c, 9, 70, 60
5, 32714, Note_on_c, 9, 70, 0
5, 32714, Note_on_c, 9, 62, 0
5, 32729, Note_on_c, 9, 70, 70
5, 32744, Note_on_c, 9, 70, 0
5, 32748, Note_on_c, 9, 76, 23
5, 32759, Note_on_c, 9, 62, 120
5, 32759, Note_on_c, 9, 70, 60
5, 32764, Note_on_c, 9, 76, 0
5, 32774, Note_on_c, 9, 70, 0
5, 32774, Note_on_c, 9, 62, 0
5, 32818, Note_on_c, 9, 76, 43
5, 32819, Note_on_c, 9, 36, 60
5, 32819, Note_on_c, 9, 56, 48
5, 32819, Note_on_c, 9, 61, 50
5, 32819, Note_on_c, 9, 70, 60
5, 32834, Note_on_c, 9, 70, 0
5, 32834, Note_on_c, 9, 56, 0
5, 32834, Note_on_c, 9, 61, 0
5, 32834, Note_on_c, 9, 36, 0
5, 32837, Note_on_c, 9, 76, 0
5, 32879, Note_on_c, 9, 56, 70
5, 32879, Note_on_c, 9, 60, 50
5, 32879, Note_on_c, 9, 70, 80
5, 32894, Note_on_c, 9, 70, 0
5, 32894, Note_on_c, 9, 60, 0
5, 32894, Note_on_c, 9, 56, 0
5, 32939, Note_on_c, 9, 60, 50
5, 32939, Note_on_c, 9, 70, 60
5, 32954, Note_on_c, 9, 70, 0
5, 32954, Note_on_c, 9, 60, 0
5, 32999, Note_on_c, 9, 36, 60
5, 32999, Note_on_c, 9, 64, 120
5, 32999, Note_on_c, 9, 70, 80
5, 33000, Note_on_c, 9, 77, 41
5, 33014, Note_on_c, 9, 70, 0
5, 33014, Note_on_c, 9, 36, 0
5, 33014, Note_on_c, 9, 64, 0
5, 33021, Note_on_c, 9, 77, 0
5, 33059, Note_on_c, 9, 56, 48
5, 33059, Note_on_c, 9, 64, 120
5, 33059, Note_on_c, 9, 70, 60
5, 33060, Note_on_c, 9, 77, 31
5, 33074, Note_on_c, 9, 70, 0
5, 33074, Note_on_c, 9, 56, 0
5, 33074, Note_on_c, 9, 64, 0
5, 33083, Note_on_c, 9, 77, 0
5, 33120, Program_c, 9, 0
5, 33121, Note_on_c, 9, 56, 70
5, 33121, Note_on_c, 9, 60, 50
5, 33121, Note_on_c, 9, 70, 80
5, 33135, Note_on_c, 9, 70, 0
5, 33135, Note_on_c, 9, 60, 0
5, 33135, Note_on_c, 9, 56, 0
5, 33179, Note_on_c, 9, 62, 57
5, 33179, Note_on_c, 9, 70, 60
5, 33193, Note_on_c, 9, 70, 0
5, 33193, Note_on_c, 9, 62, 0
5, 33209, Note_on_c, 9, 70, 70
5, 33224, Note_on_c, 9, 70, 0
5, 33239, Note_on_c, 9, 62, 120
5, 33239, Note_on_c, 9, 70, 80
5, 33254, Note_on_c, 9, 70, 0
5, 33254, Note_on_c, 9, 62, 0
5, 33299, Note_on_c, 9, 36, 60
5, 33299, Note_on_c, 9, 56, 48
5, 33299, Note_on_c, 9, 60, 50
5, 33299, Note_on_c, 9, 70, 60
5, 33314, Note_on_c, 9, 70, 0
5, 33314, Note_on_c, 9, 36, 0
5, 33314, Note_on_c, 9, 56, 0
5, 33314, Note_on_c, 9, 60, 0
5, 33359, Note_on_c, 9, 56, 70
5, 33359, Note_on_c, 9, 61, 50
5, 33359, Note_on_c, 9, 70, 80
5, 33374, Note_on_c, 9, 70, 0
5, 33374, Note_on_c, 9, 61, 0
5, 33374, Note_on_c, 9, 56, 0
5, 33419, Note_on_c, 9, 61, 50
5, 33419, Note_on_c, 9, 70, 60
5, 33434, Note_on_c, 9, 70, 0
5, 33434, Note_on_c, 9, 61, 0
5, 33479, Note_on_c, 9, 36, 60
5, 33479, Note_on_c, 9, 64, 120
5, 33479, Note_on_c, 9, 70, 80
5, 33484, Note_on_c, 9, 77, 6
5, 33494, Note_on_c, 9, 70, 0
5, 33494, Note_on_c, 9, 36, 0
5, 33494, Note_on_c, 9, 64, 0
5, 33496, Note_on_c, 9, 77, 0
5, 33539, Note_on_c, 9, 56, 48
5, 33539, Note_on_c, 9, 64, 120
5, 33539, Note_on_c, 9, 70, 60
5, 33550, Note_on_c, 9, 76, 9
5, 33554, Note_on_c, 9, 70, 0
5, 33554, Note_on_c, 9, 56, 0
5, 33554, Note_on_c, 9, 64, 0
5, 33564, Note_on_c, 9, 76, 0
5, 33599, Note_on_c, 9, 56, 70
5, 33599, Note_on_c, 9, 60, 50
5, 33599, Note_on_c, 9, 70, 80
5, 33614, Note_on_c, 9, 70, 0
5, 33614, Note_on_c, 9, 60, 0
5, 33614, Note_on_c, 9, 56, 0
5, 33659, Note_on_c, 9, 62, 57
5, 33659, Note_on_c, 9, 70, 60
5, 33674, Note_on_c, 9, 70, 0
5, 33674, Note_on_c, 9, 62, 0
5, 33689, Note_on_c, 9, 70, 70
5, 33704, Note_on_c, 9, 70, 0
5, 33719, Note_on_c, 9, 62, 120
5, 33719, Note_on_c, 9, 70, 60
5, 33734, Note_on_c, 9, 70, 0
5, 33734, Note_on_c, 9, 62, 0
5, 33779, Note_on_c, 9, 36, 60
5, 33779, Note_on_c, 9, 56, 48
5, 33779, Note_on_c, 9, 61, 50
5, 33779, Note_on_c, 9, 70, 60
5, 33794, Note_on_c, 9, 70, 0
5, 33794, Note_on_c, 9, 36, 0
5, 33794, Note_on_c, 9, 56, 0
5, 33794, Note_on_c, 9, 61, 0
5, 33839, Note_on_c, 9, 56, 70
5, 33839, Note_on_c, 9, 60, 50
5, 33839, Note_on_c, 9, 70, 80
5, 33850, Note_on_c, 9, 77, 41
5, 33853, Note_on_c, 9, 70, 0
5, 33853, Note_on_c, 9, 56, 0
5, 33853, Note_on_c, 9, 60, 0
5, 33879, Note_on_c, 9, 77, 0
5, 33899, Note_on_c, 9, 60, 50
5, 33899, Note_on_c, 9, 70, 60
5, 33914, Note_on_c, 9, 70, 0
5, 33914, Note_on_c, 9, 60, 0
5, 33959, Note_on_c, 9, 36, 60
5, 33959, Note_on_c, 9, 64, 120
5, 33959, Note_on_c, 9, 70, 80
5, 33968, Note_on_c, 9, 76, 49
5, 33974, Note_on_c, 9, 70, 0
5, 33974, Note_on_c, 9, 36, 0
5, 33974, Note_on_c, 9, 64, 0
5, 33998, Note_on_c, 9, 76, 0
5, 34019, Note_on_c, 9, 56, 48
5, 34019, Note_on_c, 9, 64, 120
5, 34019, Note_on_c, 9, 70, 60
5, 34034, Note_on_c, 9, 70, 0
5, 34034, Note_on_c, 9, 64, 0
5, 34034, Note_on_c, 9, 56, 0
5, 34080, Note_on_c, 9, 70, 80
5, 34080, Note_on_c, 9, 60, 50
5, 34081, Note_on_c, 9, 56, 70
5, 34094, Note_on_c, 9, 60, 0
5, 34094, Note_on_c, 9, 70, 0
5, 34095, Note_on_c, 9, 56, 0
5, 34139, Note_on_c, 9, 62, 57
5, 34139, Note_on_c, 9, 70, 60
5, 34154, Note_on_c, 9, 70, 0
5, 34154, Note_on_c, 9, 62, 0
5, 34169, Note_on_c, 9, 70, 70
5, 34184, Note_on_c, 9, 70, 0
5, 34199, Note_on_c, 9, 62, 120
5, 34199, Note_on_c, 9, 70, 80
5, 34214, Note_on_c, 9, 70, 0
5, 34214, Note_on_c, 9, 62, 0
5, 34259, Note_on_c, 9, 36, 60
5, 34259, Note_on_c, 9, 56, 48
5, 34259, Note_on_c, 9, 60, 50
5, 34259, Note_on_c, 9, 70, 60
5, 34260, Note_on_c, 9, 76, 28
5, 34274, Note_on_c, 9, 76, 0
5, 34274, Note_on_c, 9, 60, 0
5, 34274, Note_on_c, 9, 36, 0
5, 34274, Note_on_c, 9, 56, 0
5, 34274, Note_on_c, 9, 70, 0
5, 34319, Note_on_c, 9, 56, 70
5, 34319, Note_on_c, 9, 61, 50
5, 34319, Note_on_c, 9, 70, 80
5, 34333, Note_on_c, 9, 76, 7
5, 34334, Note_on_c, 9, 70, 0
5, 34334, Note_on_c, 9, 56, 0
5, 34334, Note_on_c, 9, 61, 0
5, 34346, Note_on_c, 9, 76, 0
5, 34379, Note_on_c, 9, 61, 50
5, 34379, Note_on_c, 9, 70, 60
5, 34394, Note_on_c, 9, 70, 0
5, 34394, Note_on_c, 9, 61, 0
5, 34439, Note_on_c, 9, 36, 60
5, 34439, Note_on_c, 9, 64, 120
5, 34439, Note_on_c, 9, 70, 80
5, 34448, Note_on_c, 9, 77, 47
5, 34454, Note_on_c, 9, 70, 0
5, 34454, Note_on_c, 9, 36, 0
5, 34454, Note_on_c, 9, 64, 0
5, 34467, Note_on_c, 9, 77, 0
5, 34499, Note_on_c, 9, 56, 48
5, 34499, Note_on_c, 9, 64, 120
5, 34499, Note_on_c, 9, 70, 60
5, 34514, Note_on_c, 9, 70, 0
5, 34514, Note_on_c, 9, 64, 0
5, 34514, Note_on_c, 9, 56, 0
5, 34559, Note_on_c, 9, 56, 70
5, 34559, Note_on_c, 9, 60, 50
5, 34559, Note_on_c, 9, 70, 80
5, 34574, Note_on_c, 9, 70, 0
5, 34574, Note_on_c, 9, 60, 0
5, 34574, Note_on_c, 9, 56, 0
5, 34619, Note_on_c, 9, 62, 57
5, 34619, Note_on_c, 9, 70, 60
5, 34634, Note_on_c, 9, 70, 0
5, 34634, Note_on_c, 9, 62, 0
5, 34649, Note_on_c, 9, 70, 70
5, 34664, Note_on_c, 9, 70, 0
5, 34679, Note_on_c, 9, 62, 120
5, 34679, Note_on_c, 9, 70, 60
5, 34694, Note_on_c, 9, 70, 0
5, 34694, Note_on_c, 9, 62, 0
5, 34739, Note_on_c, 9, 36, 60
5, 34739, Note_on_c, 9, 56, 48
5, 34739, Note_on_c, 9, 61, 50
5, 34739, Note_on_c, 9, 70, 60
5, 34741, Note_on_c, 9, 76, 41
5, 34754, Note_on_c, 9, 70, 0
5, 34754, Note_on_c, 9, 61, 0
5, 34754, Note_on_c, 9, 36, 0
5, 34754, Note_on_c, 9, 56, 0
5, 34755, Note_on_c, 9, 76, 0
5, 34799, Note_on_c, 9, 56, 70
5, 34799, Note_on_c, 9, 60, 50
5, 34799, Note_on_c, 9, 70, 80
5, 34814, Note_on_c, 9, 70, 0
5, 34814, Note_on_c, 9, 60, 0
5, 34814, Note_on_c, 9, 56, 0
5, 34859, Note_on_c, 9, 60, 50
5, 34859, Note_on_c, 9, 70, 60
5, 34874, Note_on_c, 9, 70, 0
5, 34874, Note_on_c, 9, 60, 0
5, 34913, Note_on_c, 9, 77, 37
5, 34919, Note_on_c, 9, 36, 60
5, 34919, Note_on_c, 9, 64, 120
5, 34919, Note_on_c, 9, 70, 80
5, 34927, Note_on_c, 9, 77, 0
5, 34934, Note_on_c, 9, 36, 0
5, 34934, Note_on_c, 9, 64, 0
5, 34934, Note_on_c, 9, 70, 0
5, 34979, Note_on_c, 9, 56, 48
5, 34979, Note_on_c, 9, 64, 120
5, 34979, Note_on_c, 9, 70, 60
5, 34983, Note_on_c, 9, 77, 26
5, 34994, Note_on_c, 9, 70, 0
5, 34994, Note_on_c, 9, 56, 0
5, 34994, Note_on_c, 9, 64, 0
5, 34997, Note_on_c, 9, 77, 0
5, 35040, Note_on_c, 9, 56, 70
5, 35040, Program_c, 9, 0
5, 35041, Note_on_c, 9, 60, 50
5, 35041, Note_on_c, 9, 70, 80
5, 35055, Note_on_c, 9, 70, 0
5, 35055, Note_on_c, 9, 60, 0
5, 35055, Note_on_c, 9, 56, 0
5, 35099, Note_on_c, 9, 62, 57
5, 35099, Note_on_c, 9, 70, 60
5, 35114, Note_on_c, 9, 70, 0
5, 35114, Note_on_c, 9, 62, 0
5, 35129, Note_on_c, 9, 70, 70
5, 35144, Note_on_c, 9, 70, 0
5, 35158, Note_on_c, 9, 62, 120
5, 35159, Note_on_c, 9, 70, 80
5, 35165, Note_on_c, 9, 76, 14
5, 35173, Note_on_c, 9, 70, 0
5, 35173, Note_on_c, 9, 62, 0
5, 35182, Note_on_c, 9, 76, 0
5, 35219, Note_on_c, 9, 36, 60
5, 35219, Note_on_c, 9, 56, 48
5, 35219, Note_on_c, 9, 60, 50
5, 35219, Note_on_c, 9, 70, 60
5, 35233, Note_on_c, 9, 76, 28
5, 35234, Note_on_c, 9, 70, 0
5, 35234, Note_on_c, 9, 60, 0
5, 35234, Note_on_c, 9, 36, 0
5, 35234, Note_on_c, 9, 56, 0
5, 35250, Note_on_c, 9, 76, 0
5, 35279, Note_on_c, 9, 56, 70
5, 35279, Note_on_c, 9, 61, 50
5, 35279, Note_on_c, 9, 70, 80
5, 35294, Note_on_c, 9, 70, 0
5, 35294, Note_on_c, 9, 61, 0
5, 35294, Note_on_c, 9, 56, 0
5, 35339, Note_on_c, 9, 61, 50
5, 35339, Note_on_c, 9, 70, 60
5, 35354, Note_on_c, 9, 70, 0
5, 35354, Note_on_c, 9, 61, 0
5, 35399, Note_on_c, 9, 36, 60
5, 35399, Note_on_c, 9, 64, 120
5, 35399, Note_on_c, 9, 70, 80
5, 35404, Note_on_c, 9, 77, 34
5, 35414, Note_on_c, 9, 70, 0
5, 35414, Note_on_c, 9, 36, 0
5, 35414, Note_on_c, 9, 64, 0
5, 35418, Note_on_c, 9, 77, 0
5, 35459, Note_on_c, 9, 56, 48
5, 35459, Note_on_c, 9, 64, 120
5, 35459, Note_on_c, 9, 70, 60
5, 35468, Note_on_c, 9, 77, 43
5, 35474, Note_on_c, 9, 70, 0
5, 35474, Note_on_c, 9, 56, 0
5, 35474, Note_on_c, 9, 64, 0
5, 35496, Note_on_c, 9, 77, 0
5, 35519, Note_on_c, 9, 56, 70
5, 35519, Note_on_c, 9, 60, 50
5, 35519, Note_on_c, 9, 70, 80
5, 35534, Note_on_c, 9, 70, 0
5, 35534, Note_on_c, 9, 60, 0
5, 35534, Note_on_c, 9, 56, 0
5, 35579, Note_on_c, 9, 62, 57
5, 35579, Note_on_c, 9, 70, 60
5, 35594, Note_on_c, 9, 70, 0
5, 35594, Note_on_c, 9, 62, 0
5, 35609, Note_on_c, 9, 70, 70
5, 35624, Note_on_c, 9, 70, 0
5, 35635, Note_on_c, 9, 76, 30
5, 35639, Note_on_c, 9, 62, 120
5, 35639, Note_on_c, 9, 70, 60
5, 35653, Note_on_c, 9, 76, 0
5, 35654, Note_on_c, 9, 70, 0
5, 35654, Note_on_c, 9, 62, 0
5, 35699, Note_on_c, 9, 36, 60
5, 35699, Note_on_c, 9, 56, 48
5, 35699, Note_on_c, 9, 61, 50
5, 35699, Note_on_c, 9, 70, 60
5, 35706, Note_on_c, 9, 76, 50
5, 35714, Note_on_c, 9, 70, 0
5, 35714, Note_on_c, 9, 61, 0
5, 35714, Note_on_c, 9, 36, 0
5, 35714, Note_on_c, 9, 56, 0
5, 35731, Note_on_c, 9, 76, 0
5, 35759, Note_on_c, 9, 56, 70
5, 35759, Note_on_c, 9, 60, 50
5, 35759, Note_on_c, 9, 70, 80
5, 35774, Note_on_c, 9, 70, 0
5, 35774, Note_on_c, 9, 60, 0
5, 35774, Note_on_c, 9, 56, 0
5, 35819, Note_on_c, 9, 60, 50
5, 35819, Note_on_c, 9, 70, 60
5, 35833, Note_on_c, 9, 70, 0
5, 35833, Note_on_c, 9, 60, 0
5, 35879, Note_on_c, 9, 36, 60
5, 35879, Note_on_c, 9, 64, 120
5, 35879, Note_on_c, 9, 70, 80
5, 35882, Note_on_c, 9, 77, 34
5, 35894, Note_on_c, 9, 70, 0
5, 35894, Note_on_c, 9, 36, 0
5, 35894, Note_on_c, 9, 64, 0
5, 35896, Note_on_c, 9, 77, 0
5, 35939, Note_on_c, 9, 56, 48
5, 35939, Note_on_c, 9, 64, 120
5, 35939, Note_on_c, 9, 70, 60
5, 35949, Note_on_c, 9, 77, 49
5, 35954, Note_on_c, 9, 70, 0
5, 35954, Note_on_c, 9, 56, 0
5, 35954, Note_on_c, 9, 64, 0
5, 35979, Note_on_c, 9, 77, 0
5, 36000, Note_on_c, 9, 70, 80
5, 36000, Note_on_c, 9, 60, 50
5, 36001, Note_on_c, 9, 56, 70
5, 36014, Note_on_c, 9, 60, 0
5, 36014, Note_on_c, 9, 70, 0
5, 36015, Note_on_c, 9, 56, 0
5, 36059, Note_on_c, 9, 62, 57
5, 36059, Note_on_c, 9, 70, 60
5, 36074, Note_on_c, 9, 70, 0
5, 36074, Note_on_c, 9, 62, 0
5, 36089, Note_on_c, 9, 70, 70
5, 36104, Note_on_c, 9, 70, 0
5, 36119, Note_on_c, 9, 62, 120
5, 36119, Note_on_c, 9, 70, 80
5, 36131, Note_on_c, 9, 76, 29
5, 36134, Note_on_c, 9, 70, 0
5, 36134, Note_on_c, 9, 62, 0
5, 36145, Note_on_c, 9, 76, 0
5, 36179, Note_on_c, 9, 36, 60
5, 36179, Note_on_c, 9, 56, 48
5, 36179, Note_on_c, 9, 60, 50
5, 36179, Note_on_c, 9, 70, 60
5, 36194, Note_on_c, 9, 70, 0
5, 36194, Note_on_c, 9, 36, 0
5, 36194, Note_on_c, 9, 56, 0
5, 36194, Note_on_c, 9, 60, 0
5, 36197, Note_on_c, 9, 76, 57
5, 36226, Note_on_c, 9, 76, 0
5, 36239, Note_on_c, 9, 56, 70
5, 36239, Note_on_c, 9, 61, 50
5, 36239, Note_on_c, 9, 70, 80
5, 36254, Note_on_c, 9, 70, 0
5, 36254, Note_on_c, 9, 61, 0
5, 36254, Note_on_c, 9, 56, 0
5, 36299, Note_on_c, 9, 61, 50
5, 36299, Note_on_c, 9, 70, 60
5, 36314, Note_on_c, 9, 70, 0
5, 36314, Note_on_c, 9, 61, 0
5, 36359, Note_on_c, 9, 36, 60
5, 36359, Note_on_c, 9, 64, 120
5, 36359, Note_on_c, 9, 70, 80
5, 36364, Note_on_c, 9, 77, 14
5, 36374, Note_on_c, 9, 70, 0
5, 36374, Note_on_c, 9, 36, 0
5, 36374, Note_on_c, 9, 64, 0
5, 36379, Note_on_c, 9, 77, 0
5, 36419, Note_on_c, 9, 56, 48
5, 36419, Note_on_c, 9, 64, 120
5, 36419, Note_on_c, 9, 70, 60
5, 36428, Note_on_c, 9, 77, 48
5, 36434, Note_on_c, 9, 70, 0
5, 36434, Note_on_c, 9, 56, 0
5, 36434, Note_on_c, 9, 64, 0
5, 36460, Note_on_c, 9, 77, 0
5, 36479, Note_on_c, 9, 56, 70
5, 36479, Note_on_c, 9, 60, 50
5, 36479, Note_on_c, 9, 70, 80
5, 36494, Note_on_c, 9, 70, 0
5, 36494, Note_on_c, 9, 60, 0
5, 36494, Note_on_c, 9, 56, 0
5, 36539, Note_on_c, 9, 62, 57
5, 36539, Note_on_c, 9, 70, 60
5, 36554, Note_on_c, 9, 70, 0
5, 36554, Note_on_c, 9, 62, 0
5, 36569, Note_on_c, 9, 70, 70
5, 36572, Note_on_c, 9, 76, 8
5, 36584, Note_on_c, 9, 70, 0
5, 36587, Note_on_c, 9, 76, 0
5, 36599, Note_on_c, 9, 62, 120
5, 36599, Note_on_c, 9, 70, 60
5, 36614, Note_on_c, 9, 70, 0
5, 36614, Note_on_c, 9, 62, 0
5, 36622, Note_on_c, 9, 76, 25
5, 36639, Note_on_c, 9, 76, 0
5, 36659, Note_on_c, 9, 36, 60
5, 36659, Note_on_c, 9, 56, 48
5, 36659, Note_on_c, 9, 61, 50
5, 36659, Note_on_c, 9, 70, 60
5, 36674, Note_on_c, 9, 70, 0
5, 36674, Note_on_c, 9, 36, 0
5, 36674, Note_on_c, 9, 56, 0
5, 36674, Note_on_c, 9, 61, 0
5, 36719, Note_on_c, 9, 56, 70
5, 36719, Note_on_c, 9, 60, 50
5, 36719, Note_on_c, 9, 70, 80
5, 36734, Note_on_c, 9, 70, 0
5, 36734, Note_on_c, 9, 60, 0
5, 36734, Note_on_c, 9, 56, 0
5, 36779, Note_on_c, 9, 70, 60
5, 36779, Note_on_c, 9, 60, 50
5, 36790, Note_on_c, 9, 77, 28
5, 36794, Note_on_c, 9, 60, 0
5, 36794, Note_on_c, 9, 70, 0
5, 36805, Note_on_c, 9, 77, 0
5, 36839, Note_on_c, 9, 70, 80
5, 36839, Note_on_c, 9, 64, 120
5, 36839, Note_on_c, 9, 36, 60
5, 36847, Note_on_c, 9, 77, 35
5, 36854, Note_on_c, 9, 36, 0
5, 36854, Note_on_c, 9, 70, 0
5, 36854, Note_on_c, 9, 64, 0
5, 36889, Note_on_c, 9, 77, 0
5, 36899, Note_on_c, 9, 70, 60
5, 36899, Note_on_c, 9, 64, 120
5, 36899, Note_on_c, 9, 56, 48
5, 36914, Note_on_c, 9, 56, 0
5, 36914, Note_on_c, 9, 64, 0
5, 36914, Note_on_c, 9, 70, 0
5, 36960, Program_c, 9, 0
5, 36961, Note_on_c, 9, 70, 80
5, 36961, Note_on_c, 9, 60, 50
5, 36961, Note_on_c, 9, 56, 70
5, 36975, Note_on_c, 9, 60, 0
5, 36975, Note_on_c, 9, 70, 0
5, 36976, Note_on_c, 9, 56, 0
5, 37019, Note_on_c, 9, 70, 60
5, 37019, Note_on_c, 9, 62, 57
5, 37034, Note_on_c, 9, 62, 0
5, 37034, Note_on_c, 9, 70, 0
5, 37049, Note_on_c, 9, 70, 70
5, 37064, Note_on_c, 9, 70, 0
5, 37078, Note_on_c, 9, 76, 21
5, 37078, Note_on_c, 9, 62, 120
5, 37079, Note_on_c, 9, 70, 80
5, 37094, Note_on_c, 9, 70, 0
5, 37094, Note_on_c, 9, 62, 0
5, 37095, Note_on_c, 9, 76, 0
5, 37139, Note_on_c, 9, 70, 60
5, 37139, Note_on_c, 9, 60, 50
5, 37139, Note_on_c, 9, 56, 48
5, 37139, Note_on_c, 9, 36, 60
5, 37148, Note_on_c, 9, 76, 31
5, 37154, Note_on_c, 9, 36, 0
5, 37154, Note_on_c, 9, 56, 0
5, 37154, Note_on_c, 9, 70, 0
5, 37154, Note_on_c, 9, 60, 0
5, 37165, Note_on_c, 9, 76, 0
5, 37199, Note_on_c, 9, 70, 80
5, 37199, Note_on_c, 9, 61, 50
5, 37199, Note_on_c, 9, 56, 70
5, 37214, Note_on_c, 9, 56, 0
5, 37214, Note_on_c, 9, 61, 0
5, 37214, Note_on_c, 9, 70, 0
5, 37259, Note_on_c, 9, 70, 60
5, 37259, Note_on_c, 9, 61, 50
5, 37268, Note_on_c, 9, 77, 23
5, 37274, Note_on_c, 9, 61, 0
5, 37274, Note_on_c, 9, 70, 0
5, 37282, Note_on_c, 9, 77, 0
5, 37319, Note_on_c, 9, 70, 80
5, 37319, Note_on_c, 9, 64, 120
5, 37319, Note_on_c, 9, 36, 60
5, 37328, Note_on_c, 9, 77, 51
5, 37334, Note_on_c, 9, 36, 0
5, 37334, Note_on_c, 9, 70, 0
5, 37334, Note_on_c, 9, 64, 0
5, 37372, Note_on_c, 9, 77, 0
5, 37379, Note_on_c, 9, 70, 60
5, 37379, Note_on_c, 9, 64, 120
5, 37379, Note_on_c, 9, 56, 48
5, 37394, Note_on_c, 9, 56, 0
5, 37394, Note_on_c, 9, 64, 0
5, 37394, Note_on_c, 9, 70, 0
5, 37439, Note_on_c, 9, 70, 80
5, 37439, Note_on_c, 9, 60, 50
5, 37439, Note_on_c, 9, 56, 70
5, 37454, Note_on_c, 9, 56, 0
5, 37454, Note_on_c, 9, 60, 0
5, 37454, Note_on_c, 9, 70, 0
5, 37499, Note_on_c, 9, 70, 60
5, 37499, Note_on_c, 9, 62, 57
5, 37514, Note_on_c, 9, 62, 0
5, 37514, Note_on_c, 9, 70, 0
5, 37529, Note_on_c, 9, 70, 70
5, 37529, Note_on_c, 9, 65, 65
5, 37544, Note_on_c, 9, 70, 0
5, 37557, Note_on_c, 9, 65, 0
5, 37559, Note_on_c, 9, 70, 60
5, 37559, Note_on_c, 9, 62, 120
5, 37565, Note_on_c, 9, 76, 13
5, 37574, Note_on_c, 9, 62, 0
5, 37574, Note_on_c, 9, 70, 0
5, 37583, Note_on_c, 9, 76, 0
5, 37617, Note_on_c, 9, 76, 29
5, 37619, Note_on_c, 9, 70, 60
5, 37619, Note_on_c, 9, 65, 23
5, 37619, Note_on_c, 9, 61, 50
5, 37619, Note_on_c, 9, 56, 48
5, 37619, Note_on_c, 9, 36, 60
5, 37629, Note_on_c, 9, 65, 0
5, 37634, Note_on_c, 9, 70, 0
5, 37634, Note_on_c, 9, 61, 0
5, 37634, Note_on_c, 9, 56, 0
5, 37634, Note_on_c, 9, 36, 0
5, 37645, Note_on_c, 9, 76, 0
5, 37679, Note_on_c, 9, 70, 80
5, 37679, Note_on_c, 9, 60, 50
5, 37679, Note_on_c, 9, 56, 70
5, 37694, Note_on_c, 9, 56, 0
5, 37694, Note_on_c, 9, 60, 0
5, 37694, Note_on_c, 9, 70, 0
5, 37739, Note_on_c, 9, 70, 60
5, 37739, Note_on_c, 9, 60, 50
5, 37754, Note_on_c, 9, 60, 0
5, 37754, Note_on_c, 9, 70, 0
5, 37781, Note_on_c, 9, 77, 45
5, 37799, Note_on_c, 9, 70, 80
5, 37799, Note_on_c, 9, 64, 120
5, 37799, Note_on_c, 9, 36, 60
5, 37811, Note_on_c, 9, 77, 0
5, 37813, Note_on_c, 9, 36, 0
5, 37814, Note_on_c, 9, 64, 0
5, 37814, Note_on_c, 9, 70, 0
5, 37859, Note_on_c, 9, 70, 60
5, 37859, Note_on_c, 9, 64, 120
5, 37859, Note_on_c, 9, 56, 48
5, 37874, Note_on_c, 9, 56, 0
5, 37874, Note_on_c, 9, 64, 0
5, 37874, Note_on_c, 9, 70, 0
5, 37920, Note_on_c, 9, 60, 50
5, 37920, Note_on_c, 9, 70, 80
5, 37921, Note_on_c, 9, 56, 70
5, 37934, Note_on_c, 9, 70, 0
5, 37934, Note_on_c, 9, 60, 0
5, 37935, Note_on_c, 9, 56, 0
5, 37979, Note_on_c, 9, 70, 60
5, 37979, Note_on_c, 9, 66, 31
5, 37979, Note_on_c, 9, 62, 57
5, 37994, Note_on_c, 9, 62, 0
5, 37994, Note_on_c, 9, 66, 0
5, 37994, Note_on_c, 9, 70, 0
5, 38009, Note_on_c, 9, 70, 70
5, 38023, Note_on_c, 9, 70, 0
5, 38039, Note_on_c, 9, 70, 80
5, 38039, Note_on_c, 9, 66, 55
5, 38039, Note_on_c, 9, 62, 120
5, 38043, Note_on_c, 9, 76, 37
5, 38054, Note_on_c, 9, 62, 0
5, 38054, Note_on_c, 9, 70, 0
5, 38060, Note_on_c, 9, 76, 0
5, 38064, Note_on_c, 9, 66, 0
5, 38099, Note_on_c, 9, 70, 60
5, 38099, Note_on_c, 9, 60, 50
5, 38099, Note_on_c, 9, 56, 48
5, 38099, Note_on_c, 9, 36, 60
5, 38107, Note_on_c, 9, 76, 24
5, 38114, Note_on_c, 9, 36, 0
5, 38114, Note_on_c, 9, 56, 0
5, 38114, Note_on_c, 9, 70, 0
5, 38114, Note_on_c, 9, 60, 0
5, 38122, Note_on_c, 9, 76, 0
5, 38159, Note_on_c, 9, 70, 80
5, 38159, Note_on_c, 9, 66, 59
5, 38159, Note_on_c, 9, 61, 50
5, 38159, Note_on_c, 9, 56, 70
5, 38174, Note_on_c, 9, 56, 0
5, 38174, Note_on_c, 9, 61, 0
5, 38174, Note_on_c, 9, 70, 0
5, 38186, Note_on_c, 9, 66, 0
5, 38219, Note_on_c, 9, 70, 60
5, 38219, Note_on_c, 9, 61, 50
5, 38234, Note_on_c, 9, 61, 0
5, 38234, Note_on_c, 9, 70, 0
5, 38279, Note_on_c, 9, 70, 80
5, 38279, Note_on_c, 9, 65, 36
5, 38279, Note_on_c, 9, 64, 120
5, 38279, Note_on_c, 9, 36, 60
5, 38286, Note_on_c, 9, 77, 39
5, 38294, Note_on_c, 9, 36, 0
5, 38294, Note_on_c, 9, 64, 0
5, 38294, Note_on_c, 9, 70, 0
5, 38295, Note_on_c, 9, 65, 0
5, 38302, Note_on_c, 9, 77, 0
5, 38339, Note_on_c, 9, 70, 60
5, 38339, Note_on_c, 9, 65, 76
5, 38339, Note_on_c, 9, 64, 120
5, 38339, Note_on_c, 9, 56, 48
5, 38354, Note_on_c, 9, 56, 0
5, 38354, Note_on_c, 9, 64, 0
5, 38354, Note_on_c, 9, 70, 0
5, 38373, Note_on_c, 9, 65, 0
5, 38399, Note_on_c, 9, 70, 80
5, 38399, Note_on_c, 9, 60, 50
5, 38399, Note_on_c, 9, 56, 70
5, 38414, Note_on_c, 9, 56, 0
5, 38414, Note_on_c, 9, 60, 0
5, 38414, Note_on_c, 9, 70, 0
5, 38459, Note_on_c, 9, 70, 60
5, 38459, Note_on_c, 9, 66, 62
5, 38459, Note_on_c, 9, 62, 57
5, 38474, Note_on_c, 9, 62, 0
5, 38474, Note_on_c, 9, 70, 0
5, 38483, Note_on_c, 9, 66, 0
5, 38489, Note_on_c, 9, 70, 70
5, 38504, Note_on_c, 9, 70, 0
5, 38519, Note_on_c, 9, 70, 60
5, 38519, Note_on_c, 9, 62, 120
5, 38525, Note_on_c, 9, 76, 39
5, 38534, Note_on_c, 9, 62, 0
5, 38534, Note_on_c, 9, 70, 0
5, 38537, Note_on_c, 9, 76, 0
5, 38579, Note_on_c, 9, 70, 60
5, 38579, Note_on_c, 9, 65, 76
5, 38579, Note_on_c, 9, 61, 50
5, 38579, Note_on_c, 9, 56, 48
5, 38579, Note_on_c, 9, 36, 60
5, 38594, Note_on_c, 9, 36, 0
5, 38594, Note_on_c, 9, 61, 0
5, 38594, Note_on_c, 9, 56, 0
5, 38594, Note_on_c, 9, 70, 0
5, 38609, Note_on_c, 9, 65, 0
5, 38639, Note_on_c, 9, 70, 80
5, 38639, Note_on_c, 9, 60, 50
5, 38639, Note_on_c, 9, 56, 70
5, 38654, Note_on_c, 9, 56, 0
5, 38654, Note_on_c, 9, 60, 0
5, 38654, Note_on_c, 9, 70, 0
5, 38699, Note_on_c, 9, 70, 60
5, 38699, Note_on_c, 9, 60, 50
5, 38714, Note_on_c, 9, 60, 0
5, 38714, Note_on_c, 9, 70, 0
5, 38759, Note_on_c, 9, 70, 80
5, 38759, Note_on_c, 9, 64, 120
5, 38759, Note_on_c, 9, 36, 60
5, 38774, Note_on_c, 9, 36, 0
5, 38774, Note_on_c, 9, 64, 0
5, 38774, Note_on_c, 9, 70, 0
5, 38817, Note_on_c, 9, 71, 13
5, 38819, Note_on_c, 9, 70, 60
5, 38819, Note_on_c, 9, 64, 120
5, 38819, Note_on_c, 9, 56, 48
5, 38834, Note_on_c, 9, 56, 0
5, 38834, Note_on_c, 9, 64, 0
5, 38834, Note_on_c, 9, 70, 0
5, 38835, Note_on_c, 9, 71, 0
5, 38880, Program_c, 9, 0
5, 38881, Note_on_c, 9, 70, 80
5, 38881, Note_on_c, 9, 60, 50
5, 38881, Note_on_c, 9, 56, 70
5, 38884, Note_on_c, 9, 71, 31
5, 38895, Note_on_c, 9, 60, 0
5, 38895, Note_on_c, 9, 70, 0
5, 38896, Note_on_c, 9, 56, 0
5, 38904, Note_on_c, 9, 71, 0
5, 38939, Note_on_c, 9, 70, 60
5, 38939, Note_on_c, 9, 62, 57
5, 38954, Note_on_c, 9, 62, 0
5, 38954, Note_on_c, 9, 70, 0
5, 38969, Note_on_c, 9, 70, 70
5, 38984, Note_on_c, 9, 70, 0
5, 38999, Note_on_c, 9, 70, 80
5, 38999, Note_on_c, 9, 62, 120
5, 39014, Note_on_c, 9, 62, 0
5, 39014, Note_on_c, 9, 70, 0
5, 39014, Note_on_c, 9, 72, 42
5, 39059, Note_on_c, 9, 70, 60
5, 39059, Note_on_c, 9, 60, 50
5, 39059, Note_on_c, 9, 56, 48
5, 39059, Note_on_c, 9, 36, 60
5, 39074, Note_on_c, 9, 36, 0
5, 39074, Note_on_c, 9, 60, 0
5, 39074, Note_on_c, 9, 56, 0
5, 39074, Note_on_c, 9, 70, 0
5, 39119, Note_on_c, 9, 70, 80
5, 39119, Note_on_c, 9, 61, 50
5, 39119, Note_on_c, 9, 56, 70
5, 39134, Note_on_c, 9, 56, 0
5, 39134, Note_on_c, 9, 61, 0
5, 39134, Note_on_c, 9, 70, 0
5, 39179, Note_on_c, 9, 70, 60
5, 39179, Note_on_c, 9, 61, 50
5, 39194, Note_on_c, 9, 61, 0
5, 39194, Note_on_c, 9, 70, 0
5, 39211, Note_on_c, 9, 72, 0
5, 39235, Note_on_c, 9, 71, 15
5, 39239, Note_on_c, 9, 70, 80
5, 39239, Note_on_c, 9, 64, 120
5, 39239, Note_on_c, 9, 36, 60
5, 39254, Note_on_c, 9, 36, 0
5, 39254, Note_on_c, 9, 64, 0
5, 39254, Note_on_c, 9, 70, 0
5, 39260, Note_on_c, 9, 71, 0
5, 39299, Note_on_c, 9, 70, 60
5, 39299, Note_on_c, 9, 64, 120
5, 39299, Note_on_c, 9, 56, 48
5, 39300, Note_on_c, 9, 71, 24
5, 39314, Note_on_c, 9, 56, 0
5, 39314, Note_on_c, 9, 70, 0
5, 39314, Note_on_c, 9, 64, 0
5, 39318, Note_on_c, 9, 71, 0
5, 39359, Note_on_c, 9, 70, 80
5, 39359, Note_on_c, 9, 60, 50
5, 39359, Note_on_c, 9, 56, 70
5, 39374, Note_on_c, 9, 56, 0
5, 39374, Note_on_c, 9, 60, 0
5, 39374, Note_on_c, 9, 70, 0
5, 39419, Note_on_c, 9, 70, 60
5, 39419, Note_on_c, 9, 62, 57
5, 39434, Note_on_c, 9, 62, 0
5, 39434, Note_on_c, 9, 70, 0
5, 39449, Note_on_c, 9, 70, 70
5, 39464, Note_on_c, 9, 70, 0
5, 39479, Note_on_c, 9, 70, 60
5, 39479, Note_on_c, 9, 62, 120
5, 39494, Note_on_c, 9, 62, 0
5, 39494, Note_on_c, 9, 70, 0
5, 39539, Note_on_c, 9, 70, 60
5, 39539, Note_on_c, 9, 61, 50
5, 39539, Note_on_c, 9, 56, 48
5, 39539, Note_on_c, 9, 36, 60
5, 39554, Note_on_c, 9, 36, 0
5, 39554, Note_on_c, 9, 70, 0
5, 39554, Note_on_c, 9, 61, 0
5, 39554, Note_on_c, 9, 56, 0
5, 39599, Note_on_c, 9, 70, 80
5, 39599, Note_on_c, 9, 60, 50
5, 39599, Note_on_c, 9, 56, 70
5, 39614, Note_on_c, 9, 56, 0
5, 39614, Note_on_c, 9, 60, 0
5, 39614, Note_on_c, 9, 70, 0
5, 39659, Note_on_c, 9, 70, 60
5, 39659, Note_on_c, 9, 60, 50
5, 39674, Note_on_c, 9, 60, 0
5, 39674, Note_on_c, 9, 70, 0
5, 39719, Note_on_c, 9, 70, 80
5, 39719, Note_on_c, 9, 64, 120
5, 39719, Note_on_c, 9, 36, 60
5, 39734, Note_on_c, 9, 36, 0
5, 39734, Note_on_c, 9, 64, 0
5, 39734, Note_on_c, 9, 70, 0
5, 39779, Note_on_c, 9, 70, 60
5, 39779, Note_on_c, 9, 64, 120
5, 39779, Note_on_c, 9, 56, 48
5, 39794, Note_on_c, 9, 56, 0
5, 39794, Note_on_c, 9, 64, 0
5, 39794, Note_on_c, 9, 70, 0
5, 39840, Note_on_c, 9, 60, 50
5, 39840, Note_on_c, 9, 70, 80
5, 39841, Note_on_c, 9, 56, 70
5, 39854, Note_on_c, 9, 70, 0
5, 39854, Note_on_c, 9, 60, 0
5, 39855, Note_on_c, 9, 56, 0
5, 39899, Note_on_c, 9, 70, 60
5, 39899, Note_on_c, 9, 62, 57
5, 39914, Note_on_c, 9, 62, 0
5, 39914, Note_on_c, 9, 70, 0
5, 39929, Note_on_c, 9, 70, 70
5, 39944, Note_on_c, 9, 70, 0
5, 39959, Note_on_c, 9, 70, 80
5, 39959, Note_on_c, 9, 62, 120
5, 39974, Note_on_c, 9, 62, 0
5, 39974, Note_on_c, 9, 70, 0
5, 40019, Note_on_c, 9, 70, 60
5, 40019, Note_on_c, 9, 60, 50
5, 40019, Note_on_c, 9, 56, 48
5, 40019, Note_on_c, 9, 36, 60
5, 40034, Note_on_c, 9, 36, 0
5, 40034, Note_on_c, 9, 70, 0
5, 40034, Note_on_c, 9, 60, 0
5, 40034, Note_on_c, 9, 56, 0
5, 40079, Note_on_c, 9, 70, 80
5, 40079, Note_on_c, 9, 61, 50
5, 40079, Note_on_c, 9, 56, 70
5, 40094, Note_on_c, 9, 56, 0
5, 40094, Note_on_c, 9, 61, 0
5, 40094, Note_on_c, 9, 70, 0
5, 40139, Note_on_c, 9, 70, 60
5, 40139, Note_on_c, 9, 61, 50
5, 40154, Note_on_c, 9, 61, 0
5, 40154, Note_on_c, 9, 70, 0
5, 40199, Note_on_c, 9, 70, 80
5, 40199, Note_on_c, 9, 64, 120
5, 40199, Note_on_c, 9, 36, 60
5, 40214, Note_on_c, 9, 36, 0
5, 40214, Note_on_c, 9, 64, 0
5, 40214, Note_on_c, 9, 70, 0
5, 40259, Note_on_c, 9, 70, 60
5, 40259, Note_on_c, 9, 64, 120
5, 40259, Note_on_c, 9, 56, 48
5, 40274, Note_on_c, 9, 56, 0
5, 40274, Note_on_c, 9, 64, 0
5, 40274, Note_on_c, 9, 70, 0
5, 40319, Note_on_c, 9, 70, 80
5, 40319, Note_on_c, 9, 60, 50
5, 40319, Note_on_c, 9, 56, 70
5, 40334, Note_on_c, 9, 56, 0
5, 40334, Note_on_c, 9, 60, 0
5, 40334, Note_on_c, 9, 70, 0
5, 40379, Note_on_c, 9, 70, 60
5, 40379, Note_on_c, 9, 62, 57
5, 40394, Note_on_c, 9, 62, 0
5, 40394, Note_on_c, 9, 70, 0
5, 40409, Note_on_c, 9, 70, 70
5, 40424, Note_on_c, 9, 70, 0
5, 40439, Note_on_c, 9, 70, 60
5, 40439, Note_on_c, 9, 62, 120
5, 40453, Note_on_c, 9, 62, 0
5, 40453, Note_on_c, 9, 70, 0
5, 40499, Note_on_c, 9, 70, 60
5, 40499, Note_on_c, 9, 61, 50
5, 40499, Note_on_c, 9, 56, 48
5, 40499, Note_on_c, 9, 36, 60
5, 40514, Note_on_c, 9, 36, 0
5, 40514, Note_on_c, 9, 70, 0
5, 40514, Note_on_c, 9, 61, 0
5, 40514, Note_on_c, 9, 56, 0
5, 40559, Note_on_c, 9, 70, 80
5, 40559, Note_on_c, 9, 60, 50
5, 40559, Note_on_c, 9, 56, 70
5, 40574, Note_on_c, 9, 56, 0
5, 40574, Note_on_c, 9, 60, 0
5, 40574, Note_on_c, 9, 70, 0
5, 40619, Note_on_c, 9, 70, 60
5, 40619, Note_on_c, 9, 60, 50
5, 40634, Note_on_c, 9, 60, 0
5, 40634, Note_on_c, 9, 70, 0
5, 40679, Note_on_c, 9, 70, 80
5, 40679, Note_on_c, 9, 64, 120
5, 40679, Note_on_c, 9, 36, 60
5, 40694, Note_on_c, 9, 36, 0
5, 40694, Note_on_c, 9, 64, 0
5, 40694, Note_on_c, 9, 70, 0
5, 40739, Note_on_c, 9, 70, 60
5, 40739, Note_on_c, 9, 64, 120
5, 40739, Note_on_c, 9, 56, 48
5, 40740, Note_on_c, 9, 80, 38
5, 40754, Note_on_c, 9, 56, 0
5, 40754, Note_on_c, 9, 70, 0
5, 40754, Note_on_c, 9, 64, 0
5, 40764, Note_on_c, 9, 80, 0
5, 40800, Program_c, 9, 0
5, 40801, Note_on_c, 9, 70, 80
5, 40801, Note_on_c, 9, 60, 50
5, 40801, Note_on_c, 9, 56, 70
5, 40803, Note_on_c, 9, 80, 34
5, 40815, Note_on_c, 9, 60, 0
5, 40815, Note_on_c, 9, 70, 0
5, 40816, Note_on_c, 9, 56, 0
5, 40859, Note_on_c, 9, 62, 57
5, 40859, Note_on_c, 9, 70, 60
5, 40874, Note_on_c, 9, 70, 0
5, 40874, Note_on_c, 9, 62, 0
5, 40880, Note_on_c, 9, 80, 0
5, 40889, Note_on_c, 9, 70, 70
5, 40904, Note_on_c, 9, 70, 0
5, 40919, Note_on_c, 9, 62, 120
5, 40919, Note_on_c, 9, 70, 80
5, 40933, Note_on_c, 9, 79, 19
5, 40934, Note_on_c, 9, 70, 0
5, 40934, Note_on_c, 9, 62, 0
5, 40951, Note_on_c, 9, 79, 0
5, 40979, Note_on_c, 9, 36, 60
5, 40979, Note_on_c, 9, 56, 48
5, 40979, Note_on_c, 9, 60, 50
5, 40979, Note_on_c, 9, 70, 60
5, 40994, Note_on_c, 9, 70, 0
5, 40994, Note_on_c, 9, 36, 0
5, 40994, Note_on_c, 9, 56, 0
5, 40994, Note_on_c, 9, 60, 0
5, 41039, Note_on_c, 9, 56, 70
5, 41039, Note_on_c, 9, 61, 50
5, 41039, Note_on_c, 9, 70, 80
5, 41054, Note_on_c, 9, 70, 0
5, 41054, Note_on_c, 9, 61, 0
5, 41054, Note_on_c, 9, 56, 0
5, 41099, Note_on_c, 9, 61, 50
5, 41099, Note_on_c, 9, 70, 60
5, 41113, Note_on_c, 9, 70, 0
5, 41113, Note_on_c, 9, 61, 0
5, 41159, Note_on_c, 9, 36, 60
5, 41159, Note_on_c, 9, 64, 120
5, 41159, Note_on_c, 9, 70, 80
5, 41174, Note_on_c, 9, 70, 0
5, 41174, Note_on_c, 9, 64, 0
5, 41174, Note_on_c, 9, 36, 0
5, 41219, Note_on_c, 9, 56, 48
5, 41219, Note_on_c, 9, 64, 120
5, 41219, Note_on_c, 9, 70, 60
5, 41234, Note_on_c, 9, 70, 0
5, 41234, Note_on_c, 9, 64, 0
5, 41234, Note_on_c, 9, 56, 0
5, 41279, Note_on_c, 9, 56, 70
5, 41279, Note_on_c, 9, 60, 50
5, 41279, Note_on_c, 9, 70, 80
5, 41294, Note_on_c, 9, 70, 0
5, 41294, Note_on_c, 9, 60, 0
5, 41294, Note_on_c, 9, 56, 0
5, 41339, Note_on_c, 9, 62, 57
5, 41339, Note_on_c, 9, 70, 60
5, 41354, Note_on_c, 9, 70, 0
5, 41354, Note_on_c, 9, 62, 0
5, 41369, Note_on_c, 9, 70, 70
5, 41384, Note_on_c, 9, 70, 0
5, 41399, Note_on_c, 9, 62, 120
5, 41399, Note_on_c, 9, 70, 60
5, 41414, Note_on_c, 9, 70, 0
5, 41414, Note_on_c, 9, 62, 0
5, 41459, Note_on_c, 9, 36, 60
5, 41459, Note_on_c, 9, 56, 48
5, 41459, Note_on_c, 9, 61, 50
5, 41459, Note_on_c, 9, 70, 60
5, 41474, Note_on_c, 9, 70, 0
5, 41474, Note_on_c, 9, 36, 0
5, 41474, Note_on_c, 9, 56, 0
5, 41474, Note_on_c, 9, 61, 0
5, 41519, Note_on_c, 9, 56, 70
5, 41519, Note_on_c, 9, 60, 50
5, 41519, Note_on_c, 9, 70, 80
5, 41534, Note_on_c, 9, 70, 0
5, 41534, Note_on_c, 9, 60, 0
5, 41534, Note_on_c, 9, 56, 0
5, 41579, Note_on_c, 9, 60, 50
5, 41579, Note_on_c, 9, 70, 60
5, 41594, Note_on_c, 9, 70, 0
5, 41594, Note_on_c, 9, 60, 0
5, 41639, Note_on_c, 9, 36, 60
5, 41639, Note_on_c, 9, 64, 120
5, 41639, Note_on_c, 9, 70, 80
5, 41654, Note_on_c, 9, 70, 0
5, 41654, Note_on_c, 9, 64, 0
5, 41654, Note_on_c, 9, 36, 0
5, 41655, Note_on_c, 9, 79, 44
5, 41667, Note_on_c, 9, 79, 0
5, 41699, Note_on_c, 9, 56, 48
5, 41699, Note_on_c, 9, 64, 120
5, 41699, Note_on_c, 9, 70, 60
5, 41714, Note_on_c, 9, 70, 0
5, 41714, Note_on_c, 9, 64, 0
5, 41714, Note_on_c, 9, 56, 0
5, 41721, Note_on_c, 9, 79, 60
5, 41760, Note_on_c, 9, 70, 80
5, 41760, Note_on_c, 9, 60, 50
5, 41761, Note_on_c, 9, 56, 70
5, 41774, Note_on_c, 9, 60, 0
5, 41774, Note_on_c, 9, 70, 0
5, 41775, Note_on_c, 9, 56, 0
5, 41789, Note_on_c, 9, 79, 0
5, 41819, Note_on_c, 9, 62, 57
5, 41819, Note_on_c, 9, 70, 60
5, 41834, Note_on_c, 9, 70, 0
5, 41834, Note_on_c, 9, 62, 0
5, 41849, Note_on_c, 9, 70, 70
5, 41864, Note_on_c, 9, 70, 0
5, 41879, Note_on_c, 9, 62, 120
5, 41879, Note_on_c, 9, 70, 80
5, 41894, Note_on_c, 9, 70, 0
5, 41894, Note_on_c, 9, 62, 0
5, 41897, Note_on_c, 9, 78, 3
5, 41909, Note_on_c, 9, 78, 0
5, 41939, Note_on_c, 9, 36, 60
5, 41939, Note_on_c, 9, 56, 48
5, 41939, Note_on_c, 9, 60, 50
5, 41939, Note_on_c, 9, 70, 60
5, 41954, Note_on_c, 9, 70, 0
5, 41954, Note_on_c, 9, 36, 0
5, 41954, Note_on_c, 9, 56, 0
5, 41954, Note_on_c, 9, 60, 0
5, 41963, Note_on_c, 9, 78, 37
5, 41981, Note_on_c, 9, 78, 0
5, 41999, Note_on_c, 9, 56, 70
5, 41999, Note_on_c, 9, 61, 50
5, 41999, Note_on_c, 9, 70, 80
5, 42014, Note_on_c, 9, 70, 0
5, 42014, Note_on_c, 9, 61, 0
5, 42014, Note_on_c, 9, 56, 0
5, 42059, Note_on_c, 9, 61, 50
5, 42059, Note_on_c, 9, 70, 60
5, 42074, Note_on_c, 9, 70, 0
5, 42074, Note_on_c, 9, 61, 0
5, 42119, Note_on_c, 9, 36, 60
5, 42119, Note_on_c, 9, 64, 120
5, 42119, Note_on_c, 9, 70, 80
5, 42134, Note_on_c, 9, 70, 0
5, 42134, Note_on_c, 9, 64, 0
5, 42134, Note_on_c, 9, 36, 0
5, 42179, Note_on_c, 9, 56, 48
5, 42179, Note_on_c, 9, 64, 120
5, 42179, Note_on_c, 9, 70, 60
5, 42194, Note_on_c, 9, 70, 0
5, 42194, Note_on_c, 9, 64, 0
5, 42194, Note_on_c, 9, 56, 0
5, 42239, Note_on_c, 9, 56, 70
5, 42239, Note_on_c, 9, 60, 50
5, 42239, Note_on_c, 9, 70, 80
5, 42254, Note_on_c, 9, 70, 0
5, 42254, Note_on_c, 9, 60, 0
5, 42254, Note_on_c, 9, 56, 0
5, 42299, Note_on_c, 9, 62, 57
5, 42299, Note_on_c, 9, 70, 60
5, 42314, Note_on_c, 9, 70, 0
5, 42314, Note_on_c, 9, 62, 0
5, 42329, Note_on_c, 9, 70, 70
5, 42344, Note_on_c, 9, 70, 0
5, 42356, Note_on_c, 9, 78, 27
5, 42359, Note_on_c, 9, 62, 120
5, 42359, Note_on_c, 9, 70, 60
5, 42374, Note_on_c, 9, 70, 0
5, 42374, Note_on_c, 9, 62, 0
5, 42379, Note_on_c, 9, 78, 0
5, 42419, Note_on_c, 9, 36, 60
5, 42419, Note_on_c, 9, 56, 48
5, 42419, Note_on_c, 9, 61, 50
5, 42419, Note_on_c, 9, 70, 60
5, 42423, Note_on_c, 9, 78, 41
5, 42434, Note_on_c, 9, 70, 0
5, 42434, Note_on_c, 9, 61, 0
5, 42434, Note_on_c, 9, 36, 0
5, 42434, Note_on_c, 9, 56, 0
5, 42463, Note_on_c, 9, 78, 0
5, 42479, Note_on_c, 9, 56, 70
5, 42479, Note_on_c, 9, 60, 50
5, 42479, Note_on_c, 9, 70, 80
5, 42494, Note_on_c, 9, 70, 0
5, 42494, Note_on_c, 9, 60, 0
5, 42494, Note_on_c, 9, 56, 0
5, 42539, Note_on_c, 9, 60, 50
5, 42539, Note_on_c, 9, 70, 60
5, 42554, Note_on_c, 9, 70, 0
5, 42554, Note_on_c, 9, 60, 0
5, 42599, Note_on_c, 9, 36, 60
5, 42599, Note_on_c, 9, 64, 120
5, 42599, Note_on_c, 9, 70, 80
5, 42614, Note_on_c, 9, 70, 0
5, 42614, Note_on_c, 9, 64, 0
5, 42614, Note_on_c, 9, 36, 0
5, 42659, Note_on_c, 9, 56, 48
5, 42659, Note_on_c, 9, 64, 120
5, 42659, Note_on_c, 9, 70, 60
5, 42674, Note_on_c, 9, 70, 0
5, 42674, Note_on_c, 9, 64, 0
5, 42674, Note_on_c, 9, 56, 0
5, 42720, Program_c, 9, 0
5, 42721, Note_on_c, 9, 56, 70
5, 42721, Note_on_c, 9, 60, 50
5, 42721, Note_on_c, 9, 70, 80
5, 42735, Note_on_c, 9, 70, 0
5, 42735, Note_on_c, 9, 60, 0
5, 42736, Note_on_c, 9, 56, 0
5, 42779, Note_on_c, 9, 62, 57
5, 42779, Note_on_c, 9, 70, 60
5, 42794, Note_on_c, 9, 70, 0
5, 42794, Note_on_c, 9, 62, 0
5, 42809, Note_on_c, 9, 70, 70
5, 42824, Note_on_c, 9, 70, 0
5, 42831, Note_on_c, 9, 78, 24
5, 42839, Note_on_c, 9, 62, 120
5, 42839, Note_on_c, 9, 70, 80
5, 42854, Note_on_c, 9, 70, 0
5, 42854, Note_on_c, 9, 62, 0
5, 42857, Note_on_c, 9, 78, 0
5, 42899, Note_on_c, 9, 36, 60
5, 42899, Note_on_c, 9, 56, 48
5, 42899, Note_on_c, 9, 60, 50
5, 42899, Note_on_c, 9, 70, 60
5, 42904, Note_on_c, 9, 78, 26
5, 42914, Note_on_c, 9, 70, 0
5, 42914, Note_on_c, 9, 60, 0
5, 42914, Note_on_c, 9, 36, 0
5, 42914, Note_on_c, 9, 56, 0
5, 42930, Note_on_c, 9, 78, 0
5, 42959, Note_on_c, 9, 56, 70
5, 42959, Note_on_c, 9, 61, 50
5, 42959, Note_on_c, 9, 70, 80
5, 42974, Note_on_c, 9, 70, 0
5, 42974, Note_on_c, 9, 61, 0
5, 42974, Note_on_c, 9, 56, 0
5, 43019, Note_on_c, 9, 61, 50
5, 43019, Note_on_c, 9, 70, 60
5, 43034, Note_on_c, 9, 70, 0
5, 43034, Note_on_c, 9, 61, 0
5, 43071, Note_on_c, 9, 79, 36
5, 43079, Note_on_c, 9, 36, 60
5, 43079, Note_on_c, 9, 64, 120
5, 43079, Note_on_c, 9, 70, 80
5, 43093, Note_on_c, 9, 36, 0
5, 43094, Note_on_c, 9, 70, 0
5, 43094, Note_on_c, 9, 64, 0
5, 43105, Note_on_c, 9, 79, 0
5, 43139, Note_on_c, 9, 56, 48
5, 43139, Note_on_c, 9, 64, 120
5, 43139, Note_on_c, 9, 70, 60
5, 43148, Note_on_c, 9, 79, 47
5, 43154, Note_on_c, 9, 70, 0
5, 43154, Note_on_c, 9, 56, 0
5, 43154, Note_on_c, 9, 64, 0
5, 43188, Note_on_c, 9, 79, 0
5, 43199, Note_on_c, 9, 56, 70
5, 43199, Note_on_c, 9, 60, 50
5, 43199, Note_on_c, 9, 70, 80
5, 43214, Note_on_c, 9, 70, 0
5, 43214, Note_on_c, 9, 60, 0
5, 43214, Note_on_c, 9, 56, 0
5, 43259, Note_on_c, 9, 62, 57
5, 43259, Note_on_c, 9, 70, 60
5, 43268, Note_on_c, 9, 72, 1
5, 43274, Note_on_c, 9, 70, 0
5, 43274, Note_on_c, 9, 62, 0
5, 43281, Note_on_c, 9, 72, 0
5, 43289, Note_on_c, 9, 70, 70
5, 43304, Note_on_c, 9, 70, 0
5, 43312, Note_on_c, 9, 78, 23
5, 43319, Note_on_c, 9, 62, 120
5, 43319, Note_on_c, 9, 70, 60
5, 43334, Note_on_c, 9, 70, 0
5, 43334, Note_on_c, 9, 62, 0
5, 43349, Note_on_c, 9, 78, 0
5, 43379, Note_on_c, 9, 36, 60
5, 43379, Note_on_c, 9, 56, 48
5, 43379, Note_on_c, 9, 61, 50
5, 43379, Note_on_c, 9, 70, 60
5, 43382, Note_on_c, 9, 78, 24
5, 43394, Note_on_c, 9, 70, 0
5, 43394, Note_on_c, 9, 61, 0
5, 43394, Note_on_c, 9, 36, 0
5, 43394, Note_on_c, 9, 56, 0
5, 43426, Note_on_c, 9, 78, 0
5, 43439, Note_on_c, 9, 56, 70
5, 43439, Note_on_c, 9, 60, 50
5, 43439, Note_on_c, 9, 70, 80
5, 43454, Note_on_c, 9, 70, 0
5, 43454, Note_on_c, 9, 60, 0
5, 43454, Note_on_c, 9, 56, 0
5, 43499, Note_on_c, 9, 60, 50
5, 43499, Note_on_c, 9, 70, 60
5, 43514, Note_on_c, 9, 70, 0
5, 43514, Note_on_c, 9, 60, 0
5, 43558, Note_on_c, 9, 79, 39
5, 43559, Note_on_c, 9, 36, 60
5, 43559, Note_on_c, 9, 64, 120
5, 43559, Note_on_c, 9, 70, 80
5, 43574, Note_on_c, 9, 70, 0
5, 43574, Note_on_c, 9, 64, 0
5, 43574, Note_on_c, 9, 36, 0
5, 43598, Note_on_c, 9, 79, 0
5, 43619, Note_on_c, 9, 56, 48
5, 43619, Note_on_c, 9, 64, 120
5, 43619, Note_on_c, 9, 70, 60
5, 43631, Note_on_c, 9, 79, 39
5, 43634, Note_on_c, 9, 70, 0
5, 43634, Note_on_c, 9, 56, 0
5, 43634, Note_on_c, 9, 64, 0
5, 43669, Note_on_c, 9, 79, 0
5, 43680, Note_on_c, 9, 70, 80
5, 43680, Note_on_c, 9, 60, 50
5, 43681, Note_on_c, 9, 56, 70
5, 43694, Note_on_c, 9, 60, 0
5, 43694, Note_on_c, 9, 70, 0
5, 43695, Note_on_c, 9, 56, 0
5, 43739, Note_on_c, 9, 62, 57
5, 43739, Note_on_c, 9, 70, 60
5, 43751, Note_on_c, 9, 72, 10
5, 43753, Note_on_c, 9, 70, 0
5, 43753, Note_on_c, 9, 62, 0
5, 43764, Note_on_c, 9, 72, 0
5, 43769, Note_on_c, 9, 70, 70
5, 43784, Note_on_c, 9, 70, 0
5, 43790, Note_on_c, 9, 78, 31
5, 43799, Note_on_c, 9, 62, 120
5, 43799, Note_on_c, 9, 70, 80
5, 43814, Note_on_c, 9, 70, 0
5, 43814, Note_on_c, 9, 62, 0
5, 43830, Note_on_c, 9, 78, 0
5, 43857, Note_on_c, 9, 78, 27
5, 43859, Note_on_c, 9, 36, 60
5, 43859, Note_on_c, 9, 56, 48
5, 43859, Note_on_c, 9, 60, 50
5, 43859, Note_on_c, 9, 70, 60
5, 43874, Note_on_c, 9, 70, 0
5, 43874, Note_on_c, 9, 56, 0
5, 43874, Note_on_c, 9, 60, 0
5, 43874, Note_on_c, 9, 36, 0
5, 43897, Note_on_c, 9, 78, 0
5, 43919, Note_on_c, 9, 56, 70
5, 43919, Note_on_c, 9, 61, 50
5, 43919, Note_on_c, 9, 70, 80
5, 43934, Note_on_c, 9, 70, 0
5, 43934, Note_on_c, 9, 61, 0
5, 43934, Note_on_c, 9, 56, 0
5, 43979, Note_on_c, 9, 61, 50
5, 43979, Note_on_c, 9, 70, 60
5, 43994, Note_on_c, 9, 70, 0
5, 43994, Note_on_c, 9, 61, 0
5, 44029, Note_on_c, 9, 79, 40
5, 44039, Note_on_c, 9, 36, 60
5, 44039, Note_on_c, 9, 64, 120
5, 44039, Note_on_c, 9, 70, 80
5, 44053, Note_on_c, 9, 79, 0
5, 44054, Note_on_c, 9, 36, 0
5, 44054, Note_on_c, 9, 64, 0
5, 44054, Note_on_c, 9, 70, 0
5, 44099, Note_on_c, 9, 56, 48
5, 44099, Note_on_c, 9, 64, 120
5, 44099, Note_on_c, 9, 70, 60
5, 44108, Note_on_c, 9, 79, 42
5, 44114, Note_on_c, 9, 70, 0
5, 44114, Note_on_c, 9, 56, 0
5, 44114, Note_on_c, 9, 64, 0
5, 44145, Note_on_c, 9, 79, 0
5, 44159, Note_on_c, 9, 56, 70
5, 44159, Note_on_c, 9, 60, 50
5, 44159, Note_on_c, 9, 70, 80
5, 44174, Note_on_c, 9, 70, 0
5, 44174, Note_on_c, 9, 60, 0
5, 44174, Note_on_c, 9, 56, 0
5, 44219, Note_on_c, 9, 62, 57
5, 44219, Note_on_c, 9, 70, 60
5, 44234, Note_on_c, 9, 70, 0
5, 44234, Note_on_c, 9, 62, 0
5, 44235, Note_on_c, 9, 72, 19
5, 44248, Note_on_c, 9, 72, 0
5, 44249, Note_on_c, 9, 70, 70
5, 44255, Note_on_c, 9, 78, 15
5, 44264, Note_on_c, 9, 70, 0
5, 44279, Note_on_c, 9, 62, 120
5, 44279, Note_on_c, 9, 70, 60
5, 44285, Note_on_c, 9, 78, 0
5, 44294, Note_on_c, 9, 70, 0
5, 44294, Note_on_c, 9, 62, 0
5, 44329, Note_on_c, 9, 78, 34
5, 44339, Note_on_c, 9, 36, 60
5, 44339, Note_on_c, 9, 56, 48
5, 44339, Note_on_c, 9, 61, 50
5, 44339, Note_on_c, 9, 70, 60
5, 44354, Note_on_c, 9, 70, 0
5, 44354, Note_on_c, 9, 56, 0
5, 44354, Note_on_c, 9, 61, 0
5, 44354, Note_on_c, 9, 36, 0
5, 44377, Note_on_c, 9, 78, 0
5, 44399, Note_on_c, 9, 56, 70
5, 44399, Note_on_c, 9, 60, 50
5, 44399, Note_on_c, 9, 70, 80
5, 44413, Note_on_c, 9, 70, 0
5, 44413, Note_on_c, 9, 56, 0
5, 44414, Note_on_c, 9, 60, 0
5, 44459, Note_on_c, 9, 60, 50
5, 44459, Note_on_c, 9, 70, 60
5, 44463, Note_on_c, 9, 72, 37
5, 44474, Note_on_c, 9, 70, 0
5, 44474, Note_on_c, 9, 60, 0
5, 44480, Note_on_c, 9, 72, 0
5, 44510, Note_on_c, 9, 78, 29
5, 44519, Note_on_c, 9, 36, 60
5, 44519, Note_on_c, 9, 64, 120
5, 44519, Note_on_c, 9, 70, 80
5, 44534, Note_on_c, 9, 70, 0
5, 44534, Note_on_c, 9, 64, 0
5, 44534, Note_on_c, 9, 36, 0
5, 44553, Note_on_c, 9, 78, 0
5, 44579, Note_on_c, 9, 56, 48
5, 44579, Note_on_c, 9, 64, 120
5, 44579, Note_on_c, 9, 70, 60
5, 44590, Note_on_c, 9, 78, 37
5, 44594, Note_on_c, 9, 70, 0
5, 44594, Note_on_c, 9, 56, 0
5, 44594, Note_on_c, 9, 64, 0
5, 44627, Note_on_c, 9, 78, 0
5, 44640, Program_c, 9, 0
5, 44641, Note_on_c, 9, 56, 70
5, 44641, Note_on_c, 9, 60, 50
5, 44641, Note_on_c, 9, 70, 80
5, 44655, Note_on_c, 9, 70, 0
5, 44655, Note_on_c, 9, 60, 0
5, 44656, Note_on_c, 9, 56, 0
5, 44699, Note_on_c, 9, 62, 57
5, 44699, Note_on_c, 9, 70, 60
5, 44712, Note_on_c, 9, 79, 55
5, 44714, Note_on_c, 9, 70, 0
5, 44714, Note_on_c, 9, 62, 0
5, 44729, Note_on_c, 9, 70, 70
5, 44744, Note_on_c, 9, 70, 0
5, 44747, Note_on_c, 9, 79, 0
5, 44759, Note_on_c, 9, 62, 120
5, 44759, Note_on_c, 9, 70, 80
5, 44774, Note_on_c, 9, 70, 0
5, 44774, Note_on_c, 9, 62, 0
5, 44819, Note_on_c, 9, 36, 60
5, 44819, Note_on_c, 9, 56, 48
5, 44819, Note_on_c, 9, 60, 50
5, 44819, Note_on_c, 9, 70, 60
5, 44834, Note_on_c, 9, 70, 0
5, 44834, Note_on_c, 9, 36, 0
5, 44834, Note_on_c, 9, 56, 0
5, 44834, Note_on_c, 9, 60, 0
5, 44879, Note_on_c, 9, 56, 70
5, 44879, Note_on_c, 9, 61, 50
5, 44879, Note_on_c, 9, 70, 80
5, 44894, Note_on_c, 9, 70, 0
5, 44894, Note_on_c, 9, 61, 0
5, 44894, Note_on_c, 9, 56, 0
5, 44939, Note_on_c, 9, 70, 60
5, 44939, Note_on_c, 9, 61, 50
5, 44954, Note_on_c, 9, 61, 0
5, 44954, Note_on_c, 9, 70, 0
5, 44996, Note_on_c, 9, 78, 25
5, 44999, Note_on_c, 9, 70, 80
5, 44999, Note_on_c, 9, 64, 120
5, 44999, Note_on_c, 9, 36, 60
5, 45014, Note_on_c, 9, 36, 0
5, 45014, Note_on_c, 9, 64, 0
5, 45014, Note_on_c, 9, 70, 0
5, 45035, Note_on_c, 9, 78, 0
5, 45059, Note_on_c, 9, 70, 60
5, 45059, Note_on_c, 9, 64, 120
5, 45059, Note_on_c, 9, 56, 48
5, 45070, Note_on_c, 9, 78, 29
5, 45074, Note_on_c, 9, 56, 0
5, 45074, Note_on_c, 9, 70, 0
5, 45074, Note_on_c, 9, 64, 0
5, 45111, Note_on_c, 9, 78, 0
5, 45119, Note_on_c, 9, 70, 80
5, 45119, Note_on_c, 9, 60, 50
5, 45119, Note_on_c, 9, 56, 70
5, 45134, Note_on_c, 9, 56, 0
5, 45134, Note_on_c, 9, 60, 0
5, 45134, Note_on_c, 9, 70, 0
5, 45179, Note_on_c, 9, 70, 60
5, 45179, Note_on_c, 9, 62, 57
5, 45194, Note_on_c, 9, 62, 0
5, 45194, Note_on_c, 9, 70, 0
5, 45209, Note_on_c, 9, 70, 70
5, 45209, Note_on_c, 9, 66, 54
5, 45224, Note_on_c, 9, 70, 0
5, 45234, Note_on_c, 9, 79, 41
5, 45235, Note_on_c, 9, 66, 0
5, 45239, Note_on_c, 9, 70, 60
5, 45239, Note_on_c, 9, 62, 120
5, 45254, Note_on_c, 9, 62, 0
5, 45254, Note_on_c, 9, 70, 0
5, 45274, Note_on_c, 9, 79, 0
5, 45299, Note_on_c, 9, 70, 60
5, 45299, Note_on_c, 9, 61, 50
5, 45299, Note_on_c, 9, 56, 48
5, 45299, Note_on_c, 9, 36, 60
5, 45307, Note_on_c, 9, 79, 41
5, 45314, Note_on_c, 9, 36, 0
5, 45314, Note_on_c, 9, 56, 0
5, 45314, Note_on_c, 9, 70, 0
5, 45314, Note_on_c, 9, 61, 0
5, 45342, Note_on_c, 9, 79, 0
5, 45359, Note_on_c, 9, 70, 80
5, 45359, Note_on_c, 9, 60, 50
5, 45359, Note_on_c, 9, 56, 70
5, 45374, Note_on_c, 9, 56, 0
5, 45374, Note_on_c, 9, 60, 0
5, 45374, Note_on_c, 9, 70, 0
5, 45419, Note_on_c, 9, 70, 60
5, 45419, Note_on_c, 9, 60, 50
5, 45434, Note_on_c, 9, 60, 0
5, 45434, Note_on_c, 9, 70, 0
5, 45476, Note_on_c, 9, 78, 39
5, 45479, Note_on_c, 9, 70, 80
5, 45479, Note_on_c, 9, 64, 120
5, 45479, Note_on_c, 9, 36, 60
5, 45494, Note_on_c, 9, 36, 0
5, 45494, Note_on_c, 9, 64, 0
5, 45494, Note_on_c, 9, 70, 0
5, 45513, Note_on_c, 9, 78, 0
5, 45539, Note_on_c, 9, 70, 60
5, 45539, Note_on_c, 9, 64, 120
5, 45539, Note_on_c, 9, 56, 48
5, 45541, Note_on_c, 9, 78, 36
5, 45554, Note_on_c, 9, 56, 0
5, 45554, Note_on_c, 9, 70, 0
5, 45554, Note_on_c, 9, 64, 0
5, 45581, Note_on_c, 9, 78, 0
5, 45600, Note_on_c, 9, 56, 70
5, 45600, Note_on_c, 9, 60, 50
5, 45600, Note_on_c, 9, 70, 80
5, 45614, Note_on_c, 9, 70, 0
5, 45614, Note_on_c, 9, 60, 0
5, 45614, Note_on_c, 9, 56, 0
5, 45659, Note_on_c, 9, 70, 60
5, 45659, Note_on_c, 9, 65, 40
5, 45659, Note_on_c, 9, 62, 57
5, 45674, Note_on_c, 9, 62, 0
5, 45674, Note_on_c, 9, 70, 0
5, 45688, Note_on_c, 9, 65, 0
5, 45689, Note_on_c, 9, 70, 70
5, 45704, Note_on_c, 9, 70, 0
5, 45718, Note_on_c, 9, 79, 48
5, 45719, Note_on_c, 9, 70, 80
5, 45719, Note_on_c, 9, 66, 54
5, 45719, Note_on_c, 9, 62, 120
5, 45733, Note_on_c, 9, 62, 0
5, 45733, Note_on_c, 9, 70, 0
5, 45747, Note_on_c, 9, 66, 0
5, 45760, Note_on_c, 9, 79, 0
5, 45779, Note_on_c, 9, 70, 60
5, 45779, Note_on_c, 9, 60, 50
5, 45779, Note_on_c, 9, 56, 48
5, 45779, Note_on_c, 9, 36, 60
5, 45783, Note_on_c, 9, 79, 44
5, 45794, Note_on_c, 9, 36, 0
5, 45794, Note_on_c, 9, 56, 0
5, 45794, Note_on_c, 9, 70, 0
5, 45794, Note_on_c, 9, 60, 0
5, 45817, Note_on_c, 9, 79, 0
5, 45839, Note_on_c, 9, 70, 80
5, 45839, Note_on_c, 9, 66, 58
5, 45839, Note_on_c, 9, 61, 50
5, 45839, Note_on_c, 9, 56, 70
5, 45854, Note_on_c, 9, 56, 0
5, 45854, Note_on_c, 9, 61, 0
5, 45854, Note_on_c, 9, 70, 0
5, 45864, Note_on_c, 9, 66, 0
5, 45899, Note_on_c, 9, 70, 60
5, 45899, Note_on_c, 9, 61, 50
5, 45914, Note_on_c, 9, 61, 0
5, 45914, Note_on_c, 9, 70, 0
5, 45959, Note_on_c, 9, 70, 80
5, 45959, Note_on_c, 9, 64, 120
5, 45959, Note_on_c, 9, 36, 60
5, 45960, Note_on_c, 9, 78, 29
5, 45974, Note_on_c, 9, 36, 0
5, 45974, Note_on_c, 9, 70, 0
5, 45974, Note_on_c, 9, 64, 0
5, 45993, Note_on_c, 9, 78, 0
5, 46019, Note_on_c, 9, 70, 60
5, 46019, Note_on_c, 9, 64, 120
5, 46019, Note_on_c, 9, 56, 48
5, 46022, Note_on_c, 9, 78, 22
5, 46034, Note_on_c, 9, 56, 0
5, 46034, Note_on_c, 9, 70, 0
5, 46034, Note_on_c, 9, 64, 0
5, 46056, Note_on_c, 9, 78, 0
5, 46079, Note_on_c, 9, 70, 80
5, 46079, Note_on_c, 9, 60, 50
5, 46079, Note_on_c, 9, 56, 70
5, 46094, Note_on_c, 9, 56, 0
5, 46094, Note_on_c, 9, 60, 0
5, 46094, Note_on_c, 9, 70, 0
5, 46139, Note_on_c, 9, 70, 60
5, 46139, Note_on_c, 9, 65, 43
5, 46139, Note_on_c, 9, 62, 57
5, 46154, Note_on_c, 9, 62, 0
5, 46154, Note_on_c, 9, 70, 0
5, 46168, Note_on_c, 9, 65, 0
5, 46169, Note_on_c, 9, 70, 70
5, 46184, Note_on_c, 9, 70, 0
5, 46199, Note_on_c, 9, 70, 60
5, 46199, Note_on_c, 9, 66, 62
5, 46199, Note_on_c, 9, 62, 120
5, 46202, Note_on_c, 9, 79, 30
5, 46214, Note_on_c, 9, 62, 0
5, 46214, Note_on_c, 9, 70, 0
5, 46225, Note_on_c, 9, 79, 0
5, 46227, Note_on_c, 9, 66, 0
5, 46259, Note_on_c, 9, 70, 60
5, 46259, Note_on_c, 9, 61, 50
5, 46259, Note_on_c, 9, 56, 48
5, 46259, Note_on_c, 9, 36, 60
5, 46264, Note_on_c, 9, 79, 35
5, 46274, Note_on_c, 9, 36, 0
5, 46274, Note_on_c, 9, 56, 0
5, 46274, Note_on_c, 9, 70, 0
5, 46274, Note_on_c, 9, 61, 0
5, 46300, Note_on_c, 9, 79, 0
5, 46319, Note_on_c, 9, 70, 80
5, 46319, Note_on_c, 9, 60, 50
5, 46319, Note_on_c, 9, 56, 70
5, 46334, Note_on_c, 9, 56, 0
5, 46334, Note_on_c, 9, 60, 0
5, 46334, Note_on_c, 9, 70, 0
5, 46379, Note_on_c, 9, 70, 60
5, 46379, Note_on_c, 9, 65, 53
5, 46379, Note_on_c, 9, 60, 50
5, 46393, Note_on_c, 9, 70, 0
5, 46394, Note_on_c, 9, 60, 0
5, 46404, Note_on_c, 9, 65, 0
5, 46439, Note_on_c, 9, 70, 80
5, 46439, Note_on_c, 9, 66, 59
5, 46439, Note_on_c, 9, 64, 120
5, 46439, Note_on_c, 9, 36, 60
5, 46454, Note_on_c, 9, 36, 0
5, 46454, Note_on_c, 9, 64, 0
5, 46454, Note_on_c, 9, 70, 0
5, 46464, Note_on_c, 9, 66, 0
5, 46499, Note_on_c, 9, 70, 60
5, 46499, Note_on_c, 9, 64, 120
5, 46499, Note_on_c, 9, 56, 48
5, 46505, Note_on_c, 9, 57, 57
5, 46514, Note_on_c, 9, 56, 0
5, 46514, Note_on_c, 9, 70, 0
5, 46514, Note_on_c, 9, 64, 0
5, 46529, Note_on_c, 9, 57, 0
5, 46560, Program_c, 9, 0
5, 46561, Note_on_c, 9, 70, 80
5, 46561, Note_on_c, 9, 60, 50
5, 46561, Note_on_c, 9, 56, 70
5, 46575, Note_on_c, 9, 56, 0
5, 46575, Note_on_c, 9, 60, 0
5, 46575, Note_on_c, 9, 70, 0
5, 46619, Note_on_c, 9, 70, 60
5, 46619, Note_on_c, 9, 65, 45
5, 46619, Note_on_c, 9, 62, 57
5, 46634, Note_on_c, 9, 62, 0
5, 46634, Note_on_c, 9, 70, 0
5, 46644, Note_on_c, 9, 65, 0
5, 46649, Note_on_c, 9, 70, 70
5, 46664, Note_on_c, 9, 70, 0
5, 46679, Note_on_c, 9, 70, 80
5, 46679, Note_on_c, 9, 66, 59
5, 46679, Note_on_c, 9, 62, 120
5, 46694, Note_on_c, 9, 62, 0
5, 46694, Note_on_c, 9, 70, 0
5, 46703, Note_on_c, 9, 66, 0
5, 46739, Note_on_c, 9, 70, 60
5, 46739, Note_on_c, 9, 60, 50
5, 46739, Note_on_c, 9, 56, 48
5, 46739, Note_on_c, 9, 36, 60
5, 46754, Note_on_c, 9, 36, 0
5, 46754, Note_on_c, 9, 70, 0
5, 46754, Note_on_c, 9, 60, 0
5, 46754, Note_on_c, 9, 56, 0
5, 46760, Note_on_c, 9, 78, 15
5, 46771, Note_on_c, 9, 78, 0
5, 46799, Note_on_c, 9, 70, 80
5, 46799, Note_on_c, 9, 61, 50
5, 46799, Note_on_c, 9, 56, 70
5, 46814, Note_on_c, 9, 56, 0
5, 46814, Note_on_c, 9, 61, 0
5, 46814, Note_on_c, 9, 70, 0
5, 46859, Note_on_c, 9, 70, 60
5, 46859, Note_on_c, 9, 65, 41
5, 46859, Note_on_c, 9, 61, 50
5, 46874, Note_on_c, 9, 61, 0
5, 46874, Note_on_c, 9, 70, 0
5, 46884, Note_on_c, 9, 65, 0
5, 46919, Note_on_c, 9, 70, 80
5, 46919, Note_on_c, 9, 66, 59
5, 46919, Note_on_c, 9, 64, 120
5, 46919, Note_on_c, 9, 36, 60
5, 46923, Note_on_c, 9, 79, 15
5, 46934, Note_on_c, 9, 36, 0
5, 46934, Note_on_c, 9, 64, 0
5, 46934, Note_on_c, 9, 70, 0
5, 46940, Note_on_c, 9, 79, 0
5, 46943, Note_on_c, 9, 66, 0
5, 46975, Note_on_c, 9, 79, 32
5, 46979, Note_on_c, 9, 70, 60
5, 46979, Note_on_c, 9, 64, 120
5, 46979, Note_on_c, 9, 56, 48
5, 46994, Note_on_c, 9, 56, 0
5, 46994, Note_on_c, 9, 64, 0
5, 46994, Note_on_c, 9, 70, 0
5, 47004, Note_on_c, 9, 79, 0
5, 47039, Note_on_c, 9, 70, 80
5, 47039, Note_on_c, 9, 60, 50
5, 47039, Note_on_c, 9, 56, 70
5, 47053, Note_on_c, 9, 56, 0
5, 47054, Note_on_c, 9, 60, 0
5, 47054, Note_on_c, 9, 70, 0
5, 47099, Note_on_c, 9, 70, 60
5, 47099, Note_on_c, 9, 65, 56
5, 47099, Note_on_c, 9, 62, 57
5, 47114, Note_on_c, 9, 62, 0
5, 47114, Note_on_c, 9, 70, 0
5, 47128, Note_on_c, 9, 65, 0
5, 47129, Note_on_c, 9, 70, 70
5, 47144, Note_on_c, 9, 70, 0
5, 47156, Note_on_c, 9, 78, 13
5, 47159, Note_on_c, 9, 70, 60
5, 47159, Note_on_c, 9, 66, 59
5, 47159, Note_on_c, 9, 62, 120
5, 47174, Note_on_c, 9, 62, 0
5, 47174, Note_on_c, 9, 70, 0
5, 47180, Note_on_c, 9, 78, 0
5, 47186, Note_on_c, 9, 66, 0
5, 47219, Note_on_c, 9, 70, 60
5, 47219, Note_on_c, 9, 61, 50
5, 47219, Note_on_c, 9, 56, 48
5, 47219, Note_on_c, 9, 36, 60
5, 47221, Note_on_c, 9, 78, 24
5, 47234, Note_on_c, 9, 36, 0
5, 47234, Note_on_c, 9, 56, 0
5, 47234, Note_on_c, 9, 70, 0
5, 47234, Note_on_c, 9, 61, 0
5, 47251, Note_on_c, 9, 78, 0
5, 47279, Note_on_c, 9, 70, 80
5, 47279, Note_on_c, 9, 60, 50
5, 47279, Note_on_c, 9, 56, 70
5, 47294, Note_on_c, 9, 56, 0
5, 47294, Note_on_c, 9, 60, 0
5, 47294, Note_on_c, 9, 70, 0
5, 47339, Note_on_c, 9, 70, 60
5, 47339, Note_on_c, 9, 65, 43
5, 47339, Note_on_c, 9, 60, 50
5, 47354, Note_on_c, 9, 60, 0
5, 47354, Note_on_c, 9, 70, 0
5, 47367, Note_on_c, 9, 65, 0
5, 47399, Note_on_c, 9, 70, 80
5, 47399, Note_on_c, 9, 66, 59
5, 47399, Note_on_c, 9, 64, 120
5, 47399, Note_on_c, 9, 36, 60
5, 47402, Note_on_c, 9, 79, 26
5, 47414, Note_on_c, 9, 36, 0
5, 47414, Note_on_c, 9, 64, 0
5, 47414, Note_on_c, 9, 70, 0
5, 47425, Note_on_c, 9, 66, 0
5, 47432, Note_on_c, 9, 79, 0
5, 47459, Note_on_c, 9, 70, 60
5, 47459, Note_on_c, 9, 64, 120
5, 47459, Note_on_c, 9, 56, 48
5, 47474, Note_on_c, 9, 56, 0
5, 47474, Note_on_c, 9, 64, 0
5, 47474, Note_on_c, 9, 70, 0
5, 47520, Note_on_c, 9, 60, 50
5, 47520, Note_on_c, 9, 70, 80
5, 47521, Note_on_c, 9, 56, 70
5, 47534, Note_on_c, 9, 70, 0
5, 47534, Note_on_c, 9, 60, 0
5, 47535, Note_on_c, 9, 56, 0
5, 47579, Note_on_c, 9, 70, 60
5, 47579, Note_on_c, 9, 62, 57
5, 47594, Note_on_c, 9, 62, 0
5, 47594, Note_on_c, 9, 70, 0
5, 47609, Note_on_c, 9, 70, 70
5, 47624, Note_on_c, 9, 70, 0
5, 47639, Note_on_c, 9, 70, 80
5, 47639, Note_on_c, 9, 62, 120
5, 47644, Note_on_c, 9, 78, 21
5, 47654, Note_on_c, 9, 62, 0
5, 47654, Note_on_c, 9, 70, 0
5, 47661, Note_on_c, 9, 78, 0
5, 47699, Note_on_c, 9, 70, 60
5, 47699, Note_on_c, 9, 60, 50
5, 47699, Note_on_c, 9, 56, 48
5, 47699, Note_on_c, 9, 36, 60
5, 47705, Note_on_c, 9, 78, 25
5, 47714, Note_on_c, 9, 36, 0
5, 47714, Note_on_c, 9, 56, 0
5, 47714, Note_on_c, 9, 70, 0
5, 47714, Note_on_c, 9, 60, 0
5, 47728, Note_on_c, 9, 78, 0
5, 47759, Note_on_c, 9, 70, 80
5, 47759, Note_on_c, 9, 61, 50
5, 47759, Note_on_c, 9, 56, 70
5, 47774, Note_on_c, 9, 56, 0
5, 47774, Note_on_c, 9, 61, 0
5, 47774, Note_on_c, 9, 70, 0
5, 47819, Note_on_c, 9, 70, 60
5, 47819, Note_on_c, 9, 61, 50
5, 47834, Note_on_c, 9, 61, 0
5, 47834, Note_on_c, 9, 70, 0
5, 47879, Note_on_c, 9, 70, 80
5, 47879, Note_on_c, 9, 64, 120
5, 47879, Note_on_c, 9, 36, 60
5, 47881, Note_on_c, 9, 79, 34
5, 47894, Note_on_c, 9, 36, 0
5, 47894, Note_on_c, 9, 70, 0
5, 47894, Note_on_c, 9, 64, 0
5, 47902, Note_on_c, 9, 79, 0
5, 47939, Note_on_c, 9, 70, 60
5, 47939, Note_on_c, 9, 64, 120
5, 47939, Note_on_c, 9, 56, 48
5, 47952, Note_on_c, 9, 79, 1
5, 47954, Note_on_c, 9, 56, 0
5, 47954, Note_on_c, 9, 70, 0
5, 47954, Note_on_c, 9, 64, 0
5, 47969, Note_on_c, 9, 79, 0
5, 47999, Note_on_c, 9, 70, 80
5, 47999, Note_on_c, 9, 60, 50
5, 47999, Note_on_c, 9, 56, 70
5, 48014, Note_on_c, 9, 56, 0
5, 48014, Note_on_c, 9, 60, 0
5, 48014, Note_on_c, 9, 70, 0
5, 48059, Note_on_c, 9, 70, 60
5, 48059, Note_on_c, 9, 62, 57
5, 48074, Note_on_c, 9, 62, 0
5, 48074, Note_on_c, 9, 70, 0
5, 48089, Note_on_c, 9, 70, 70
5, 48089, Note_on_c, 9, 65, 76
5, 48104, Note_on_c, 9, 70, 0
5, 48119, Note_on_c, 9, 70, 60
5, 48119, Note_on_c, 9, 62, 120
5, 48120, Note_on_c, 9, 65, 0
5, 48122, Note_on_c, 9, 78, 14
5, 48134, Note_on_c, 9, 62, 0
5, 48134, Note_on_c, 9, 70, 0
5, 48138, Note_on_c, 9, 78, 0
5, 48179, Note_on_c, 9, 70, 60
5, 48179, Note_on_c, 9, 65, 76
5, 48179, Note_on_c, 9, 61, 50
5, 48179, Note_on_c, 9, 56, 48
5, 48179, Note_on_c, 9, 36, 60
5, 48185, Note_on_c, 9, 78, 23
5, 48194, Note_on_c, 9, 36, 0
5, 48194, Note_on_c, 9, 56, 0
5, 48194, Note_on_c, 9, 61, 0
5, 48194, Note_on_c, 9, 70, 0
5, 48210, Note_on_c, 9, 78, 0
5, 48223, Note_on_c, 9, 65, 0
5, 48239, Note_on_c, 9, 70, 80
5, 48239, Note_on_c, 9, 60, 50
5, 48239, Note_on_c, 9, 56, 70
5, 48254, Note_on_c, 9, 56, 0
5, 48254, Note_on_c, 9, 60, 0
5, 48254, Note_on_c, 9, 70, 0
5, 48299, Note_on_c, 9, 70, 60
5, 48299, Note_on_c, 9, 60, 50
5, 48314, Note_on_c, 9, 60, 0
5, 48314, Note_on_c, 9, 70, 0
5, 48349, Note_on_c, 9, 79, 31
5, 48359, Note_on_c, 9, 70, 80
5, 48359, Note_on_c, 9, 64, 120
5, 48359, Note_on_c, 9, 36, 60
5, 48373, Note_on_c, 9, 36, 0
5, 48374, Note_on_c, 9, 64, 0
5, 48374, Note_on_c, 9, 70, 0
5, 48376, Note_on_c, 9, 79, 0
5, 48419, Note_on_c, 9, 70, 60
5, 48419, Note_on_c, 9, 64, 120
5, 48419, Note_on_c, 9, 56, 48
5, 48420, Note_on_c, 9, 79, 30
5, 48434, Note_on_c, 9, 56, 0
5, 48434, Note_on_c, 9, 70, 0
5, 48434, Note_on_c, 9, 64, 0
5, 48451, Note_on_c, 9, 79, 0
5, 48480, Program_c, 9, 0
5, 48480, Note_on_c, 9, 56, 70
5, 48480, Note_on_c, 9, 60, 50
5, 48480, Note_on_c, 9, 70, 80
5, 48494, Note_on_c, 9, 70, 0
5, 48495, Note_on_c, 9, 60, 0
5, 48496, Note_on_c, 9, 56, 0
5, 48539, Note_on_c, 9, 70, 60
5, 48539, Note_on_c, 9, 62, 57
5, 48554, Note_on_c, 9, 62, 0
5, 48554, Note_on_c, 9, 70, 0
5, 48569, Note_on_c, 9, 70, 70
5, 48584, Note_on_c, 9, 70, 0
5, 48599, Note_on_c, 9, 70, 80
5, 48599, Note_on_c, 9, 62, 120
5, 48609, Note_on_c, 9, 78, 10
5, 48614, Note_on_c, 9, 62, 0
5, 48614, Note_on_c, 9, 70, 0
5, 48623, Note_on_c, 9, 78, 0
5, 48659, Note_on_c, 9, 70, 60
5, 48659, Note_on_c, 9, 60, 50
5, 48659, Note_on_c, 9, 56, 48
5, 48659, Note_on_c, 9, 36, 60
5, 48669, Note_on_c, 9, 78, 39
5, 48674, Note_on_c, 9, 36, 0
5, 48674, Note_on_c, 9, 56, 0
5, 48674, Note_on_c, 9, 70, 0
5, 48674, Note_on_c, 9, 60, 0
5, 48692, Note_on_c, 9, 78, 0
5, 48719, Note_on_c, 9, 70, 80
5, 48719, Note_on_c, 9, 61, 50
5, 48719, Note_on_c, 9, 56, 70
5, 48734, Note_on_c, 9, 56, 0
5, 48734, Note_on_c, 9, 61, 0
5, 48734, Note_on_c, 9, 70, 0
5, 48779, Note_on_c, 9, 70, 60
5, 48779, Note_on_c, 9, 61, 50
5, 48794, Note_on_c, 9, 61, 0
5, 48794, Note_on_c, 9, 70, 0
5, 48838, Note_on_c, 9, 79, 17
5, 48839, Note_on_c, 9, 70, 80
5, 48839, Note_on_c, 9, 64, 120
5, 48839, Note_on_c, 9, 36, 60
5, 48854, Note_on_c, 9, 36, 0
5, 48854, Note_on_c, 9, 64, 0
5, 48854, Note_on_c, 9, 70, 0
5, 48866, Note_on_c, 9, 79, 0
5, 48899, Note_on_c, 9, 70, 60
5, 48899, Note_on_c, 9, 64, 120
5, 48899, Note_on_c, 9, 56, 48
5, 48910, Note_on_c, 9, 79, 35
5, 48914, Note_on_c, 9, 56, 0
5, 48914, Note_on_c, 9, 70, 0
5, 48914, Note_on_c, 9, 64, 0
5, 48946, Note_on_c, 9, 79, 0
5, 48959, Note_on_c, 9, 70, 80
5, 48959, Note_on_c, 9, 60, 50
5, 48959, Note_on_c, 9, 56, 70
5, 48974, Note_on_c, 9, 56, 0
5, 48974, Note_on_c, 9, 60, 0
5, 48974, Note_on_c, 9, 70, 0
5, 49019, Note_on_c, 9, 62, 57
5, 49019, Note_on_c, 9, 70, 60
5, 49033, Note_on_c, 9, 70, 0
5, 49033, Note_on_c, 9, 62, 0
5, 49049, Note_on_c, 9, 70, 70
5, 49064, Note_on_c, 9, 70, 0
5, 49079, Note_on_c, 9, 62, 120
5, 49079, Note_on_c, 9, 70, 60
5, 49094, Note_on_c, 9, 70, 0
5, 49094, Note_on_c, 9, 62, 0
5, 49139, Note_on_c, 9, 36, 60
5, 49139, Note_on_c, 9, 56, 48
5, 49139, Note_on_c, 9, 61, 50
5, 49139, Note_on_c, 9, 70, 60
5, 49141, Note_on_c, 9, 78, 31
5, 49154, Note_on_c, 9, 70, 0
5, 49154, Note_on_c, 9, 61, 0
5, 49154, Note_on_c, 9, 36, 0
5, 49154, Note_on_c, 9, 56, 0
5, 49160, Note_on_c, 9, 78, 0
5, 49199, Note_on_c, 9, 56, 70
5, 49199, Note_on_c, 9, 60, 50
5, 49199, Note_on_c, 9, 70, 80
5, 49214, Note_on_c, 9, 70, 0
5, 49214, Note_on_c, 9, 60, 0
5, 49214, Note_on_c, 9, 56, 0
5, 49259, Note_on_c, 9, 60, 50
5, 49259, Note_on_c, 9, 70, 60
5, 49274, Note_on_c, 9, 70, 0
5, 49274, Note_on_c, 9, 60, 0
5, 49319, Note_on_c, 9, 36, 60
5, 49319, Note_on_c, 9, 64, 120
5, 49319, Note_on_c, 9, 70, 80
5, 49328, Note_on_c, 9, 79, 31
5, 49334, Note_on_c, 9, 70, 0
5, 49334, Note_on_c, 9, 36, 0
5, 49334, Note_on_c, 9, 64, 0
5, 49361, Note_on_c, 9, 79, 0
5, 49379, Note_on_c, 9, 56, 48
5, 49379, Note_on_c, 9, 64, 120
5, 49379, Note_on_c, 9, 70, 60
5, 49391, Note_on_c, 9, 79, 33
5, 49394, Note_on_c, 9, 70, 0
5, 49394, Note_on_c, 9, 56, 0
5, 49394, Note_on_c, 9, 64, 0
5, 49420, Note_on_c, 9, 79, 0
5, 49440, Note_on_c, 9, 70, 80
5, 49440, Note_on_c, 9, 60, 50
5, 49441, Note_on_c, 9, 56, 70
5, 49454, Note_on_c, 9, 60, 0
5, 49454, Note_on_c, 9, 70, 0
5, 49455, Note_on_c, 9, 56, 0
5, 49499, Note_on_c, 9, 62, 57
5, 49499, Note_on_c, 9, 70, 60
5, 49514, Note_on_c, 9, 70, 0
5, 49514, Note_on_c, 9, 62, 0
5, 49529, Note_on_c, 9, 70, 70
5, 49544, Note_on_c, 9, 70, 0
5, 49559, Note_on_c, 9, 62, 120
5, 49559, Note_on_c, 9, 70, 80
5, 49574, Note_on_c, 9, 70, 0
5, 49574, Note_on_c, 9, 62, 0
5, 49616, Note_on_c, 9, 78, 19
5, 49619, Note_on_c, 9, 36, 60
5, 49619, Note_on_c, 9, 56, 48
5, 49619, Note_on_c, 9, 60, 50
5, 49619, Note_on_c, 9, 70, 60
5, 49627, Note_on_c, 9, 78, 0
5, 49634, Note_on_c, 9, 60, 0
5, 49634, Note_on_c, 9, 36, 0
5, 49634, Note_on_c, 9, 56, 0
5, 49634, Note_on_c, 9, 70, 0
5, 49679, Note_on_c, 9, 56, 70
5, 49679, Note_on_c, 9, 61, 50
5, 49679, Note_on_c, 9, 70, 80
5, 49681, Note_on_c, 9, 78, 16
5, 49694, Note_on_c, 9, 70, 0
5, 49694, Note_on_c, 9, 56, 0
5, 49694, Note_on_c, 9, 61, 0
5, 49720, Note_on_c, 9, 78, 0
5, 49739, Note_on_c, 9, 61, 50
5, 49739, Note_on_c, 9, 70, 60
5, 49754, Note_on_c, 9, 70, 0
5, 49754, Note_on_c, 9, 61, 0
5, 49799, Note_on_c, 9, 36, 60
5, 49799, Note_on_c, 9, 64, 120
5, 49799, Note_on_c, 9, 70, 80
5, 49814, Note_on_c, 9, 70, 0
5, 49814, Note_on_c, 9, 64, 0
5, 49814, Note_on_c, 9, 36, 0
5, 49859, Note_on_c, 9, 56, 48
5, 49859, Note_on_c, 9, 64, 120
5, 49859, Note_on_c, 9, 70, 60
5, 49865, Note_on_c, 9, 79, 43
5, 49874, Note_on_c, 9, 70, 0
5, 49874, Note_on_c, 9, 56, 0
5, 49874, Note_on_c, 9, 64, 0
5, 49897, Note_on_c, 9, 79, 0
5, 49919, Note_on_c, 9, 56, 70
5, 49919, Note_on_c, 9, 60, 50
5, 49919, Note_on_c, 9, 70, 80
5, 49934, Note_on_c, 9, 70, 0
5, 49934, Note_on_c, 9, 60, 0
5, 49934, Note_on_c, 9, 56, 0
5, 49979, Note_on_c, 9, 62, 57
5, 49979, Note_on_c, 9, 70, 60
5, 49994, Note_on_c, 9, 70, 0
5, 49994, Note_on_c, 9, 62, 0
5, 50009, Note_on_c, 9, 70, 70
5, 50024, Note_on_c, 9, 70, 0
5, 50039, Note_on_c, 9, 62, 120
5, 50039, Note_on_c, 9, 70, 60
5, 50054, Note_on_c, 9, 70, 0
5, 50054, Note_on_c, 9, 62, 0
5, 50099, Note_on_c, 9, 36, 60
5, 50099, Note_on_c, 9, 56, 48
5, 50099, Note_on_c, 9, 61, 50
5, 50099, Note_on_c, 9, 70, 60
5, 50100, Note_on_c, 9, 78, 16
5, 50113, Note_on_c, 9, 78, 0
5, 50114, Note_on_c, 9, 61, 0
5, 50114, Note_on_c, 9, 36, 0
5, 50114, Note_on_c, 9, 56, 0
5, 50114, Note_on_c, 9, 70, 0
5, 50155, Note_on_c, 9, 78, 5
5, 50159, Note_on_c, 9, 56, 70
5, 50159, Note_on_c, 9, 60, 50
5, 50159, Note_on_c, 9, 70, 80
5, 50174, Note_on_c, 9, 70, 0
5, 50174, Note_on_c, 9, 78, 0
5, 50174, Note_on_c, 9, 56, 0
5, 50174, Note_on_c, 9, 60, 0
5, 50219, Note_on_c, 9, 60, 50
5, 50219, Note_on_c, 9, 70, 60
5, 50234, Note_on_c, 9, 70, 0
5, 50234, Note_on_c, 9, 60, 0
5, 50279, Note_on_c, 9, 36, 60
5, 50279, Note_on_c, 9, 64, 120
5, 50279, Note_on_c, 9, 70, 80
5, 50280, Note_on_c, 9, 79, 28
5, 50294, Note_on_c, 9, 70, 0
5, 50294, Note_on_c, 9, 36, 0
5, 50294, Note_on_c, 9, 64, 0
5, 50317, Note_on_c, 9, 79, 0
5, 50339, Note_on_c, 9, 56, 48
5, 50339, Note_on_c, 9, 64, 120
5, 50339, Note_on_c, 9, 70, 60
5, 50346, Note_on_c, 9, 79, 35
5, 50353, Note_on_c, 9, 56, 0
5, 50354, Note_on_c, 9, 64, 0
5, 50354, Note_on_c, 9, 70, 0
5, 50380, Note_on_c, 9, 79, 0
5, 50400, Note_on_c, 9, 70, 80
5, 50400, Note_on_c, 9, 56, 70
5, 50400, Program_c, 9, 0
5, 50401, Note_on_c, 9, 60, 50
5, 50414, Note_on_c, 9, 70, 0
5, 50415, Note_on_c, 9, 60, 0
5, 50415, Note_on_c, 9, 56, 0
5, 50459, Note_on_c, 9, 62, 57
5, 50459, Note_on_c, 9, 70, 60
5, 50474, Note_on_c, 9, 70, 0
5, 50474, Note_on_c, 9, 62, 0
5, 50489, Note_on_c, 9, 70, 70
5, 50504, Note_on_c, 9, 70, 0
5, 50519, Note_on_c, 9, 62, 120
5, 50519, Note_on_c, 9, 70, 80
5, 50534, Note_on_c, 9, 70, 0
5, 50534, Note_on_c, 9, 62, 0
5, 50579, Note_on_c, 9, 36, 60
5, 50579, Note_on_c, 9, 56, 48
5, 50579, Note_on_c, 9, 60, 50
5, 50579, Note_on_c, 9, 70, 60
5, 50585, Note_on_c, 9, 78, 23
5, 50594, Note_on_c, 9, 70, 0
5, 50594, Note_on_c, 9, 60, 0
5, 50594, Note_on_c, 9, 36, 0
5, 50594, Note_on_c, 9, 56, 0
5, 50605, Note_on_c, 9, 78, 0
5, 50639, Note_on_c, 9, 56, 70
5, 50639, Note_on_c, 9, 61, 50
5, 50639, Note_on_c, 9, 70, 80
5, 50648, Note_on_c, 9, 78, 16
5, 50654, Note_on_c, 9, 70, 0
5, 50654, Note_on_c, 9, 56, 0
5, 50654, Note_on_c, 9, 61, 0
5, 50669, Note_on_c, 9, 78, 0
5, 50699, Note_on_c, 9, 61, 50
5, 50699, Note_on_c, 9, 70, 60
5, 50714, Note_on_c, 9, 70, 0
5, 50714, Note_on_c, 9, 61, 0
5, 50759, Note_on_c, 9, 36, 60
5, 50759, Note_on_c, 9, 64, 120
5, 50759, Note_on_c, 9, 70, 80
5, 50774, Note_on_c, 9, 70, 0
5, 50774, Note_on_c, 9, 64, 0
5, 50774, Note_on_c, 9, 36, 0
5, 50819, Note_on_c, 9, 56, 48
5, 50819, Note_on_c, 9, 64, 120
5, 50819, Note_on_c, 9, 70, 60
5, 50824, Note_on_c, 9, 79, 31
5, 50834, Note_on_c, 9, 70, 0
5, 50834, Note_on_c, 9, 56, 0
5, 50834, Note_on_c, 9, 64, 0
5, 50838, Note_on_c, 9, 79, 0
5, 50879, Note_on_c, 9, 56, 70
5, 50879, Note_on_c, 9, 60, 50
5, 50879, Note_on_c, 9, 70, 80
5, 50894, Note_on_c, 9, 70, 0
5, 50894, Note_on_c, 9, 60, 0
5, 50894, Note_on_c, 9, 56, 0
5, 50939, Note_on_c, 9, 62, 57
5, 50939, Note_on_c, 9, 70, 60
5, 50954, Note_on_c, 9, 70, 0
5, 50954, Note_on_c, 9, 62, 0
5, 50969, Note_on_c, 9, 70, 70
5, 50984, Note_on_c, 9, 70, 0
5, 50999, Note_on_c, 9, 62, 120
5, 50999, Note_on_c, 9, 70, 60
5, 51013, Note_on_c, 9, 70, 0
5, 51014, Note_on_c, 9, 62, 0
5, 51059, Note_on_c, 9, 36, 60
5, 51059, Note_on_c, 9, 56, 48
5, 51059, Note_on_c, 9, 61, 50
5, 51059, Note_on_c, 9, 70, 60
5, 51065, Note_on_c, 9, 78, 20
5, 51074, Note_on_c, 9, 70, 0
5, 51074, Note_on_c, 9, 61, 0
5, 51074, Note_on_c, 9, 36, 0
5, 51074, Note_on_c, 9, 56, 0
5, 51080, Note_on_c, 9, 78, 0
5, 51119, Note_on_c, 9, 56, 70
5, 51119, Note_on_c, 9, 60, 50
5, 51119, Note_on_c, 9, 70, 80
5, 51121, Note_on_c, 9, 78, 23
5, 51134, Note_on_c, 9, 70, 0
5, 51134, Note_on_c, 9, 56, 0
5, 51134, Note_on_c, 9, 60, 0
5, 51158, Note_on_c, 9, 78, 0
5, 51179, Note_on_c, 9, 60, 50
5, 51179, Note_on_c, 9, 70, 60
5, 51194, Note_on_c, 9, 70, 0
5, 51194, Note_on_c, 9, 60, 0
5, 51239, Note_on_c, 9, 36, 60
5, 51239, Note_on_c, 9, 64, 120
5, 51239, Note_on_c, 9, 70, 80
5, 51241, Note_on_c, 9, 79, 51
5, 51254, Note_on_c, 9, 70, 0
5, 51254, Note_on_c, 9, 36, 0
5, 51254, Note_on_c, 9, 64, 0
5, 51299, Note_on_c, 9, 56, 48
5, 51299, Note_on_c, 9, 64, 120
5, 51299, Note_on_c, 9, 70, 60
5, 51301, Note_on_c, 9, 79, 0
5, 51314, Note_on_c, 9, 56, 0
5, 51314, Note_on_c, 9, 64, 0
5, 51314, Note_on_c, 9, 70, 0
5, 51360, Note_on_c, 9, 70, 80
5, 51360, Note_on_c, 9, 60, 50
5, 51361, Note_on_c, 9, 56, 70
5, 51374, Note_on_c, 9, 60, 0
5, 51374, Note_on_c, 9, 70, 0
5, 51375, Note_on_c, 9, 56, 0
5, 51419, Note_on_c, 9, 62, 57
5, 51419, Note_on_c, 9, 70, 60
5, 51434, Note_on_c, 9, 70, 0
5, 51434, Note_on_c, 9, 62, 0
5, 51449, Note_on_c, 9, 70, 70
5, 51464, Note_on_c, 9, 70, 0
5, 51479, Note_on_c, 9, 62, 120
5, 51479, Note_on_c, 9, 70, 80
5, 51494, Note_on_c, 9, 70, 0
5, 51494, Note_on_c, 9, 62, 0
5, 51538, Note_on_c, 9, 78, 27
5, 51539, Note_on_c, 9, 36, 60
5, 51539, Note_on_c, 9, 56, 48
5, 51539, Note_on_c, 9, 60, 50
5, 51539, Note_on_c, 9, 70, 60
5, 51554, Note_on_c, 9, 70, 0
5, 51554, Note_on_c, 9, 56, 0
5, 51554, Note_on_c, 9, 78, 0
5, 51554, Note_on_c, 9, 36, 0
5, 51554, Note_on_c, 9, 60, 0
5, 51599, Note_on_c, 9, 56, 70
5, 51599, Note_on_c, 9, 61, 50
5, 51599, Note_on_c, 9, 70, 80
5, 51600, Note_on_c, 9, 78, 32
5, 51614, Note_on_c, 9, 70, 0
5, 51614, Note_on_c, 9, 56, 0
5, 51614, Note_on_c, 9, 61, 0
5, 51631, Note_on_c, 9, 78, 0
5, 51659, Note_on_c, 9, 61, 50
5, 51659, Note_on_c, 9, 70, 60
5, 51673, Note_on_c, 9, 70, 0
5, 51674, Note_on_c, 9, 61, 0
5, 51712, Note_on_c, 9, 79, 41
5, 51719, Note_on_c, 9, 36, 60
5, 51719, Note_on_c, 9, 64, 120
5, 51719, Note_on_c, 9, 70, 80
5, 51734, Note_on_c, 9, 70, 0
5, 51734, Note_on_c, 9, 64, 0
5, 51734, Note_on_c, 9, 36, 0
5, 51749, Note_on_c, 9, 79, 0
5, 51777, Note_on_c, 9, 79, 37
5, 51779, Note_on_c, 9, 56, 48
5, 51779, Note_on_c, 9, 64, 120
5, 51779, Note_on_c, 9, 70, 60
5, 51794, Note_on_c, 9, 70, 0
5, 51794, Note_on_c, 9, 64, 0
5, 51794, Note_on_c, 9, 56, 0
5, 51809, Note_on_c, 9, 79, 0
5, 51839, Note_on_c, 9, 56, 70
5, 51839, Note_on_c, 9, 60, 50
5, 51839, Note_on_c, 9, 70, 80
5, 51854, Note_on_c, 9, 70, 0
5, 51854, Note_on_c, 9, 60, 0
5, 51854, Note_on_c, 9, 56, 0
5, 51899, Note_on_c, 9, 62, 57
5, 51899, Note_on_c, 9, 70, 60
5, 51914, Note_on_c, 9, 70, 0
5, 51914, Note_on_c, 9, 62, 0
5, 51929, Note_on_c, 9, 70, 70
5, 51944, Note_on_c, 9, 70, 0
5, 51959, Note_on_c, 9, 62, 120
5, 51959, Note_on_c, 9, 70, 60
5, 51974, Note_on_c, 9, 70, 0
5, 51974, Note_on_c, 9, 62, 0
5, 52018, Note_on_c, 9, 78, 13
5, 52019, Note_on_c, 9, 36, 60
5, 52019, Note_on_c, 9, 56, 48
5, 52019, Note_on_c, 9, 61, 50
5, 52019, Note_on_c, 9, 70, 60
5, 52032, Note_on_c, 9, 78, 0
5, 52034, Note_on_c, 9, 61, 0
5, 52034, Note_on_c, 9, 36, 0
5, 52034, Note_on_c, 9, 56, 0
5, 52034, Note_on_c, 9, 70, 0
5, 52079, Note_on_c, 9, 78, 26
5, 52079, Note_on_c, 9, 56, 70
5, 52079, Note_on_c, 9, 60, 50
5, 52079, Note_on_c, 9, 70, 80
5, 52094, Note_on_c, 9, 70, 0
5, 52094, Note_on_c, 9, 60, 0
5, 52094, Note_on_c, 9, 56, 0
5, 52107, Note_on_c, 9, 78, 0
5, 52139, Note_on_c, 9, 60, 50
5, 52139, Note_on_c, 9, 70, 60
5, 52154, Note_on_c, 9, 70, 0
5, 52154, Note_on_c, 9, 60, 0
5, 52199, Note_on_c, 9, 36, 60
5, 52199, Note_on_c, 9, 64, 120
5, 52199, Note_on_c, 9, 70, 80
5, 52214, Note_on_c, 9, 70, 0
5, 52214, Note_on_c, 9, 64, 0
5, 52214, Note_on_c, 9, 36, 0
5, 52259, Note_on_c, 9, 56, 48
5, 52259, Note_on_c, 9, 64, 120
5, 52259, Note_on_c, 9, 70, 60
5, 52274, Note_on_c, 9, 70, 0
5, 52274, Note_on_c, 9, 64, 0
5, 52274, Note_on_c, 9, 56, 0
5, 52320, Program_c, 9, 0
5, 52379, Note_on_c, 9, 70, 60
5, 52394, Note_on_c, 9, 70, 0
5, 52394, Note_on_c, 9, 72, 7
5, 52406, Note_on_c, 9, 72, 0
5, 52409, Note_on_c, 9, 70, 70
5, 52424, Note_on_c, 9, 70, 0
5, 52439, Note_on_c, 9, 70, 80
5, 52448, Note_on_c, 9, 79, 23
5, 52454, Note_on_c, 9, 70, 0
5, 52470, Note_on_c, 9, 79, 0
5, 52499, Note_on_c, 9, 70, 60
5, 52514, Note_on_c, 9, 70, 0
5, 52559, Note_on_c, 9, 70, 80
5, 52574, Note_on_c, 9, 70, 0
5, 52619, Note_on_c, 9, 70, 60
5, 52634, Note_on_c, 9, 70, 0
5, 52679, Note_on_c, 9, 65, 75
5, 52679, Note_on_c, 9, 70, 80
5, 52694, Note_on_c, 9, 70, 0
5, 52694, Note_on_c, 9, 65, 0
5, 52739, Note_on_c, 9, 70, 60
5, 52754, Note_on_c, 9, 70, 0
5, 52799, Note_on_c, 9, 56, 70
5, 52799, Note_on_c, 9, 60, 50
5, 52799, Note_on_c, 9, 70, 80
5, 52814, Note_on_c, 9, 70, 0
5, 52814, Note_on_c, 9, 60, 0
5, 52814, Note_on_c, 9, 56, 0
5, 52859, Note_on_c, 9, 62, 90
5, 52859, Note_on_c, 9, 70, 60
5, 52874, Note_on_c, 9, 70, 0
5, 52874, Note_on_c, 9, 62, 0
5, 52876, Note_on_c, 9, 72, 9
5, 52889, Note_on_c, 9, 70, 70
5, 52891, Note_on_c, 9, 72, 0
5, 52904, Note_on_c, 9, 70, 0
5, 52919, Note_on_c, 9, 62, 120
5, 52919, Note_on_c, 9, 70, 60
5, 52934, Note_on_c, 9, 70, 0
5, 52934, Note_on_c, 9, 62, 0
5, 52979, Note_on_c, 9, 36, 60
5, 52979, Note_on_c, 9, 56, 48
5, 52979, Note_on_c, 9, 61, 50
5, 52979, Note_on_c, 9, 70, 60
5, 52993, Note_on_c, 9, 70, 0
5, 52993, Note_on_c, 9, 36, 0
5, 52993, Note_on_c, 9, 56, 0
5, 52993, Note_on_c, 9, 61, 0
5, 53039, Note_on_c, 9, 56, 70
5, 53039, Note_on_c, 9, 60, 50
5, 53039, Note_on_c, 9, 70, 80
5, 53051, Note_on_c, 9, 72, 35
5, 53054, Note_on_c, 9, 70, 0
5, 53054, Note_on_c, 9, 56, 0
5, 53054, Note_on_c, 9, 60, 0
5, 53099, Note_on_c, 9, 70, 60
5, 53099, Note_on_c, 9, 60, 50
5, 53114, Note_on_c, 9, 60, 0
5, 53114, Note_on_c, 9, 70, 0
5, 53159, Note_on_c, 9, 70, 80
5, 53159, Note_on_c, 9, 64, 120
5, 53159, Note_on_c, 9, 36, 60
5, 53174, Note_on_c, 9, 36, 0
5, 53174, Note_on_c, 9, 64, 0
5, 53174, Note_on_c, 9, 70, 0
5, 53198, Note_on_c, 9, 72, 0
5, 53219, Note_on_c, 9, 70, 60
5, 53219, Note_on_c, 9, 64, 120
5, 53219, Note_on_c, 9, 56, 48
5, 53224, Note_on_c, 9, 72, 9
5, 53234, Note_on_c, 9, 56, 0
5, 53234, Note_on_c, 9, 70, 0
5, 53234, Note_on_c, 9, 64, 0
5, 53239, Note_on_c, 9, 72, 0
5, 53280, Note_on_c, 9, 60, 50
5, 53280, Note_on_c, 9, 70, 80
5, 53281, Note_on_c, 9, 56, 70
5, 53294, Note_on_c, 9, 70, 0
5, 53294, Note_on_c, 9, 60, 0
5, 53295, Note_on_c, 9, 56, 0
5, 53339, Note_on_c, 9, 70, 60
5, 53339, Note_on_c, 9, 62, 90
5, 53354, Note_on_c, 9, 62, 0
5, 53354, Note_on_c, 9, 70, 0
5, 53369, Note_on_c, 9, 70, 70
5, 53384, Note_on_c, 9, 70, 0
5, 53399, Note_on_c, 9, 70, 80
5, 53399, Note_on_c, 9, 62, 120
5, 53414, Note_on_c, 9, 62, 0
5, 53414, Note_on_c, 9, 70, 0
5, 53459, Note_on_c, 9, 70, 60
5, 53459, Note_on_c, 9, 60, 50
5, 53459, Note_on_c, 9, 56, 48
5, 53459, Note_on_c, 9, 36, 60
5, 53473, Note_on_c, 9, 56, 0
5, 53474, Note_on_c, 9, 70, 0
5, 53474, Note_on_c, 9, 60, 0
5, 53474, Note_on_c, 9, 36, 0
5, 53519, Note_on_c, 9, 70, 80
5, 53519, Note_on_c, 9, 61, 50
5, 53519, Note_on_c, 9, 56, 70
5, 53532, Note_on_c, 9, 72, 49
5, 53534, Note_on_c, 9, 56, 0
5, 53534, Note_on_c, 9, 70, 0
5, 53534, Note_on_c, 9, 61, 0
5, 53579, Note_on_c, 9, 70, 60
5, 53579, Note_on_c, 9, 61, 50
5, 53594, Note_on_c, 9, 61, 0
5, 53594, Note_on_c, 9, 70, 0
5, 53639, Note_on_c, 9, 70, 80
5, 53639, Note_on_c, 9, 64, 120
5, 53639, Note_on_c, 9, 36, 60
5, 53654, Note_on_c, 9, 36, 0
5, 53654, Note_on_c, 9, 64, 0
5, 53654, Note_on_c, 9, 70, 0
5, 53658, Note_on_c, 9, 72, 0
5, 53699, Note_on_c, 9, 70, 60
5, 53699, Note_on_c, 9, 64, 120
5, 53699, Note_on_c, 9, 56, 48
5, 53713, Note_on_c, 9, 56, 0
5, 53714, Note_on_c, 9, 64, 0
5, 53714, Note_on_c, 9, 70, 0
5, 53759, Note_on_c, 9, 70, 80
5, 53759, Note_on_c, 9, 60, 50
5, 53759, Note_on_c, 9, 56, 70
5, 53773, Note_on_c, 9, 56, 0
5, 53774, Note_on_c, 9, 60, 0
5, 53774, Note_on_c, 9, 70, 0
5, 53819, Note_on_c, 9, 70, 60
5, 53819, Note_on_c, 9, 62, 90
5, 53825, Note_on_c, 9, 72, 31
5, 53834, Note_on_c, 9, 62, 0
5, 53834, Note_on_c, 9, 70, 0
5, 53836, Note_on_c, 9, 72, 0
5, 53849, Note_on_c, 9, 70, 70
5, 53864, Note_on_c, 9, 70, 0
5, 53879, Note_on_c, 9, 70, 60
5, 53879, Note_on_c, 9, 62, 120
5, 53894, Note_on_c, 9, 62, 0
5, 53894, Note_on_c, 9, 70, 0
5, 53898, Note_on_c, 9, 72, 49
5, 53939, Note_on_c, 9, 70, 60
5, 53939, Note_on_c, 9, 61, 50
5, 53939, Note_on_c, 9, 56, 48
5, 53939, Note_on_c, 9, 36, 60
5, 53954, Note_on_c, 9, 36, 0
5, 53954, Note_on_c, 9, 61, 0
5, 53954, Note_on_c, 9, 56, 0
5, 53954, Note_on_c, 9, 70, 0
5, 53999, Note_on_c, 9, 70, 80
5, 53999, Note_on_c, 9, 60, 50
5, 53999, Note_on_c, 9, 56, 70
5, 54009, Note_on_c, 9, 72, 0
5, 54014, Note_on_c, 9, 70, 0
5, 54014, Note_on_c, 9, 60, 0
5, 54014, Note_on_c, 9, 56, 0
5, 54059, Note_on_c, 9, 70, 60
5, 54059, Note_on_c, 9, 60, 50
5, 54074, Note_on_c, 9, 60, 0
5, 54074, Note_on_c, 9, 70, 0
5, 54085, Note_on_c, 9, 72, 43
5, 54097, Note_on_c, 9, 72, 0
5, 54119, Note_on_c, 9, 70, 80
5, 54119, Note_on_c, 9, 65, 24
5, 54119, Note_on_c, 9, 64, 120
5, 54119, Note_on_c, 9, 55, 100
5, 54119, Note_on_c, 9, 36, 100
5, 54119, Note_on_c, 9, 36, 60
5, 54134, Note_on_c, 9, 36, 0
5, 54134, Note_on_c, 9, 65, 0
5, 54134, Note_on_c, 9, 70, 0
5, 54134, Note_on_c, 9, 64, 0
5, 54149, Note_on_c, 9, 55, 0
5, 54151, Note_on_c, 9, 36, 0
5, 54179, Note_on_c, 9, 70, 60
5, 54179, Note_on_c, 9, 64, 120
5, 54182, Note_on_c, 9, 72, 43
5, 54193, Note_on_c, 9, 72, 0
5, 54194, Note_on_c, 9, 64, 0
5, 54194, Note_on_c, 9, 70, 0
5, 54240, Program_c, 9, 0
5, 54241, Note_on_c, 9, 70, 80
5, 54241, Note_on_c, 9, 60, 50
5, 54241, Note_on_c, 9, 56, 70
5, 54254, Note_on_c, 9, 70, 0
5, 54255, Note_on_c, 9, 56, 0
5, 54255, Note_on_c, 9, 60, 0
5, 54299, Note_on_c, 9, 70, 60
5, 54299, Note_on_c, 9, 62, 57
5, 54313, Note_on_c, 9, 62, 0
5, 54313, Note_on_c, 9, 70, 0
5, 54329, Note_on_c, 9, 70, 70
5, 54344, Note_on_c, 9, 70, 0
5, 54358, Note_on_c, 9, 62, 120
5, 54359, Note_on_c, 9, 70, 80
5, 54361, Note_on_c, 9, 78, 21
5, 54374, Note_on_c, 9, 70, 0
5, 54374, Note_on_c, 9, 62, 0
5, 54382, Note_on_c, 9, 78, 0
5, 54419, Note_on_c, 9, 70, 60
5, 54419, Note_on_c, 9, 60, 50
5, 54419, Note_on_c, 9, 56, 48
5, 54419, Note_on_c, 9, 36, 60
5, 54427, Note_on_c, 9, 78, 35
5, 54434, Note_on_c, 9, 36, 0
5, 54434, Note_on_c, 9, 56, 0
5, 54434, Note_on_c, 9, 70, 0
5, 54434, Note_on_c, 9, 60, 0
5, 54462, Note_on_c, 9, 78, 0
5, 54479, Note_on_c, 9, 70, 80
5, 54479, Note_on_c, 9, 61, 50
5, 54479, Note_on_c, 9, 56, 70
5, 54494, Note_on_c, 9, 56, 0
5, 54494, Note_on_c, 9, 61, 0
5, 54494, Note_on_c, 9, 70, 0
5, 54539, Note_on_c, 9, 70, 60
5, 54539, Note_on_c, 9, 61, 50
5, 54554, Note_on_c, 9, 61, 0
5, 54554, Note_on_c, 9, 70, 0
5, 54593, Note_on_c, 9, 79, 31
5, 54599, Note_on_c, 9, 70, 80
5, 54599, Note_on_c, 9, 64, 120
5, 54599, Note_on_c, 9, 36, 60
5, 54609, Note_on_c, 9, 79, 0
5, 54614, Note_on_c, 9, 70, 0
5, 54614, Note_on_c, 9, 64, 0
5, 54614, Note_on_c, 9, 36, 0
5, 54659, Note_on_c, 9, 70, 60
5, 54659, Note_on_c, 9, 64, 120
5, 54659, Note_on_c, 9, 56, 48
5, 54660, Note_on_c, 9, 79, 51
5, 54674, Note_on_c, 9, 56, 0
5, 54674, Note_on_c, 9, 70, 0
5, 54674, Note_on_c, 9, 64, 0
5, 54706, Note_on_c, 9, 79, 0
5, 54719, Note_on_c, 9, 70, 80
5, 54719, Note_on_c, 9, 60, 50
5, 54719, Note_on_c, 9, 56, 70
5, 54734, Note_on_c, 9, 56, 0
5, 54734, Note_on_c, 9, 60, 0
5, 54734, Note_on_c, 9, 70, 0
5, 54779, Note_on_c, 9, 70, 60
5, 54779, Note_on_c, 9, 62, 57
5, 54794, Note_on_c, 9, 62, 0
5, 54794, Note_on_c, 9, 70, 0
5, 54809, Note_on_c, 9, 70, 70
5, 54824, Note_on_c, 9, 70, 0
5, 54838, Note_on_c, 9, 78, 5
5, 54839, Note_on_c, 9, 70, 60
5, 54839, Note_on_c, 9, 62, 120
5, 54853, Note_on_c, 9, 78, 0
5, 54854, Note_on_c, 9, 62, 0
5, 54854, Note_on_c, 9, 70, 0
5, 54898, Note_on_c, 9, 78, 30
5, 54899, Note_on_c, 9, 70, 60
5, 54899, Note_on_c, 9, 61, 50
5, 54899, Note_on_c, 9, 56, 48
5, 54899, Note_on_c, 9, 36, 60
5, 54914, Note_on_c, 9, 36, 0
5, 54914, Note_on_c, 9, 61, 0
5, 54914, Note_on_c, 9, 56, 0
5, 54914, Note_on_c, 9, 70, 0
5, 54927, Note_on_c, 9, 78, 0
5, 54959, Note_on_c, 9, 70, 80
5, 54959, Note_on_c, 9, 60, 50
5, 54959, Note_on_c, 9, 56, 70
5, 54973, Note_on_c, 9, 56, 0
5, 54973, Note_on_c, 9, 70, 0
5, 54974, Note_on_c, 9, 60, 0
5, 55019, Note_on_c, 9, 70, 60
5, 55019, Note_on_c, 9, 60, 50
5, 55034, Note_on_c, 9, 60, 0
5, 55034, Note_on_c, 9, 70, 0
5, 55079, Note_on_c, 9, 70, 80
5, 55079, Note_on_c, 9, 64, 120
5, 55079, Note_on_c, 9, 36, 60
5, 55079, Note_on_c, 9, 79, 47
5, 55094, Note_on_c, 9, 36, 0
5, 55094, Note_on_c, 9, 70, 0
5, 55094, Note_on_c, 9, 64, 0
5, 55117, Note_on_c, 9, 79, 0
5, 55139, Note_on_c, 9, 70, 60
5, 55139, Note_on_c, 9, 64, 120
5, 55139, Note_on_c, 9, 56, 48
5, 55154, Note_on_c, 9, 56, 0
5, 55154, Note_on_c, 9, 64, 0
5, 55154, Note_on_c, 9, 70, 0
5, 55200, Note_on_c, 9, 60, 50
5, 55200, Note_on_c, 9, 70, 80
5, 55201, Note_on_c, 9, 56, 70
5, 55214, Note_on_c, 9, 70, 0
5, 55214, Note_on_c, 9, 60, 0
5, 55215, Note_on_c, 9, 56, 0
5, 55259, Note_on_c, 9, 70, 60
5, 55259, Note_on_c, 9, 62, 57
5, 55274, Note_on_c, 9, 62, 0
5, 55274, Note_on_c, 9, 70, 0
5, 55289, Note_on_c, 9, 70, 70
5, 55303, Note_on_c, 9, 70, 0
5, 55319, Note_on_c, 9, 70, 80
5, 55319, Note_on_c, 9, 62, 120
5, 55323, Note_on_c, 9, 78, 4
5, 55334, Note_on_c, 9, 62, 0
5, 55334, Note_on_c, 9, 70, 0
5, 55345, Note_on_c, 9, 78, 0
5, 55379, Note_on_c, 9, 70, 60
5, 55379, Note_on_c, 9, 60, 50
5, 55379, Note_on_c, 9, 56, 48
5, 55379, Note_on_c, 9, 36, 60
5, 55382, Note_on_c, 9, 78, 17
5, 55394, Note_on_c, 9, 36, 0
5, 55394, Note_on_c, 9, 56, 0
5, 55394, Note_on_c, 9, 70, 0
5, 55394, Note_on_c, 9, 60, 0
5, 55410, Note_on_c, 9, 78, 0
5, 55439, Note_on_c, 9, 70, 80
5, 55439, Note_on_c, 9, 61, 50
5, 55439, Note_on_c, 9, 56, 70
5, 55454, Note_on_c, 9, 56, 0
5, 55454, Note_on_c, 9, 61, 0
5, 55454, Note_on_c, 9, 70, 0
5, 55499, Note_on_c, 9, 70, 60
5, 55499, Note_on_c, 9, 61, 50
5, 55514, Note_on_c, 9, 61, 0
5, 55514, Note_on_c, 9, 70, 0
5, 55558, Note_on_c, 9, 79, 30
5, 55559, Note_on_c, 9, 70, 80
5, 55559, Note_on_c, 9, 64, 120
5, 55559, Note_on_c, 9, 36, 60
5, 55574, Note_on_c, 9, 36, 0
5, 55574, Note_on_c, 9, 64, 0
5, 55574, Note_on_c, 9, 70, 0
5, 55579, Note_on_c, 9, 79, 0
5, 55619, Note_on_c, 9, 70, 60
5, 55619, Note_on_c, 9, 64, 120
5, 55619, Note_on_c, 9, 56, 48
5, 55624, Note_on_c, 9, 79, 20
5, 55634, Note_on_c, 9, 56, 0
5, 55634, Note_on_c, 9, 70, 0
5, 55634, Note_on_c, 9, 64, 0
5, 55644, Note_on_c, 9, 79, 0
5, 55679, Note_on_c, 9, 70, 80
5, 55679, Note_on_c, 9, 60, 50
5, 55679, Note_on_c, 9, 56, 70
5, 55694, Note_on_c, 9, 56, 0
5, 55694, Note_on_c, 9, 60, 0
5, 55694, Note_on_c, 9, 70, 0
5, 55739, Note_on_c, 9, 70, 60
5, 55739, Note_on_c, 9, 62, 57
5, 55754, Note_on_c, 9, 62, 0
5, 55754, Note_on_c, 9, 70, 0
5, 55769, Note_on_c, 9, 70, 70
5, 55784, Note_on_c, 9, 70, 0
5, 55799, Note_on_c, 9, 70, 60
5, 55799, Note_on_c, 9, 62, 120
5, 55814, Note_on_c, 9, 62, 0
5, 55814, Note_on_c, 9, 70, 0
5, 55852, Note_on_c, 9, 78, 14
5, 55859, Note_on_c, 9, 70, 60
5, 55859, Note_on_c, 9, 61, 50
5, 55859, Note_on_c, 9, 56, 48
5, 55859, Note_on_c, 9, 36, 60
5, 55865, Note_on_c, 9, 78, 0
5, 55874, Note_on_c, 9, 56, 0
5, 55874, Note_on_c, 9, 70, 0
5, 55874, Note_on_c, 9, 61, 0
5, 55874, Note_on_c, 9, 36, 0
5, 55917, Note_on_c, 9, 78, 10
5, 55919, Note_on_c, 9, 70, 80
5, 55919, Note_on_c, 9, 60, 50
5, 55919, Note_on_c, 9, 56, 70
5, 55932, Note_on_c, 9, 78, 0
5, 55934, Note_on_c, 9, 70, 0
5, 55934, Note_on_c, 9, 60, 0
5, 55934, Note_on_c, 9, 56, 0
5, 55979, Note_on_c, 9, 70, 60
5, 55979, Note_on_c, 9, 60, 50
5, 55994, Note_on_c, 9, 60, 0
5, 55994, Note_on_c, 9, 70, 0
5, 56039, Note_on_c, 9, 70, 80
5, 56039, Note_on_c, 9, 64, 120
5, 56039, Note_on_c, 9, 36, 60
5, 56054, Note_on_c, 9, 36, 0
5, 56054, Note_on_c, 9, 64, 0
5, 56054, Note_on_c, 9, 70, 0
5, 56099, Note_on_c, 9, 70, 60
5, 56099, Note_on_c, 9, 64, 120
5, 56099, Note_on_c, 9, 56, 48
5, 56114, Note_on_c, 9, 56, 0
5, 56114, Note_on_c, 9, 64, 0
5, 56114, Note_on_c, 9, 70, 0
5, 56118, Note_on_c, 9, 78, 17
5, 56130, Note_on_c, 9, 78, 0
5, 56160, Program_c, 9, 0
5, 56161, Note_on_c, 9, 70, 80
5, 56161, Note_on_c, 9, 60, 50
5, 56161, Note_on_c, 9, 56, 70
5, 56175, Note_on_c, 9, 60, 0
5, 56175, Note_on_c, 9, 70, 0
5, 56176, Note_on_c, 9, 56, 0
5, 56219, Note_on_c, 9, 70, 60
5, 56219, Note_on_c, 9, 65, 61
5, 56219, Note_on_c, 9, 62, 57
5, 56234, Note_on_c, 9, 62, 0
5, 56234, Note_on_c, 9, 70, 0
5, 56249, Note_on_c, 9, 65, 0
5, 56249, Note_on_c, 9, 70, 70
5, 56264, Note_on_c, 9, 70, 0
5, 56278, Note_on_c, 9, 62, 120
5, 56279, Note_on_c, 9, 70, 80
5, 56293, Note_on_c, 9, 70, 0
5, 56294, Note_on_c, 9, 62, 0
5, 56331, Note_on_c, 9, 34, 36
5, 56339, Note_on_c, 9, 70, 60
5, 56339, Note_on_c, 9, 60, 50
5, 56339, Note_on_c, 9, 56, 48
5, 56339, Note_on_c, 9, 36, 60
5, 56354, Note_on_c, 9, 36, 0
5, 56354, Note_on_c, 9, 60, 0
5, 56354, Note_on_c, 9, 56, 0
5, 56354, Note_on_c, 9, 70, 0
5, 56355, Note_on_c, 9, 34, 0
5, 56392, Note_on_c, 9, 34, 46
5, 56399, Note_on_c, 9, 70, 80
5, 56399, Note_on_c, 9, 65, 76
5, 56399, Note_on_c, 9, 61, 50
5, 56399, Note_on_c, 9, 56, 70
5, 56414, Note_on_c, 9, 56, 0
5, 56414, Note_on_c, 9, 70, 0
5, 56414, Note_on_c, 9, 61, 0
5, 56425, Note_on_c, 9, 34, 0
5, 56428, Note_on_c, 9, 65, 0
5, 56459, Note_on_c, 9, 70, 60
5, 56459, Note_on_c, 9, 61, 50
5, 56474, Note_on_c, 9, 61, 0
5, 56474, Note_on_c, 9, 70, 0
5, 56519, Note_on_c, 9, 70, 80
5, 56519, Note_on_c, 9, 64, 120
5, 56519, Note_on_c, 9, 36, 60
5, 56534, Note_on_c, 9, 36, 0
5, 56534, Note_on_c, 9, 64, 0
5, 56534, Note_on_c, 9, 70, 0
5, 56579, Note_on_c, 9, 70, 60
5, 56579, Note_on_c, 9, 66, 59
5, 56579, Note_on_c, 9, 64, 120
5, 56579, Note_on_c, 9, 56, 48
5, 56579, Note_on_c, 9, 34, 41
5, 56594, Note_on_c, 9, 56, 0
5, 56594, Note_on_c, 9, 64, 0
5, 56594, Note_on_c, 9, 70, 0
5, 56604, Note_on_c, 9, 34, 0
5, 56608, Note_on_c, 9, 66, 0
5, 56639, Note_on_c, 9, 70, 80
5, 56639, Note_on_c, 9, 60, 50
5, 56639, Note_on_c, 9, 56, 70
5, 56647, Note_on_c, 9, 34, 46
5, 56654, Note_on_c, 9, 56, 0
5, 56654, Note_on_c, 9, 70, 0
5, 56654, Note_on_c, 9, 60, 0
5, 56681, Note_on_c, 9, 34, 0
5, 56699, Note_on_c, 9, 70, 60
5, 56699, Note_on_c, 9, 66, 55
5, 56699, Note_on_c, 9, 62, 57
5, 56714, Note_on_c, 9, 62, 0
5, 56714, Note_on_c, 9, 70, 0
5, 56720, Note_on_c, 9, 66, 0
5, 56729, Note_on_c, 9, 70, 70
5, 56744, Note_on_c, 9, 70, 0
5, 56759, Note_on_c, 9, 70, 60
5, 56759, Note_on_c, 9, 62, 120
5, 56774, Note_on_c, 9, 62, 0
5, 56774, Note_on_c, 9, 70, 0
5, 56819, Note_on_c, 9, 70, 60
5, 56819, Note_on_c, 9, 61, 50
5, 56819, Note_on_c, 9, 56, 48
5, 56819, Note_on_c, 9, 36, 60
5, 56828, Note_on_c, 9, 34, 44
5, 56834, Note_on_c, 9, 36, 0
5, 56834, Note_on_c, 9, 56, 0
5, 56834, Note_on_c, 9, 70, 0
5, 56834, Note_on_c, 9, 61, 0
5, 56849, Note_on_c, 9, 65, 76
5, 56859, Note_on_c, 9, 34, 0
5, 56879, Note_on_c, 9, 65, 0
5, 56879, Note_on_c, 9, 70, 80
5, 56879, Note_on_c, 9, 60, 50
5, 56879, Note_on_c, 9, 56, 70
5, 56894, Note_on_c, 9, 56, 0
5, 56894, Note_on_c, 9, 60, 0
5, 56894, Note_on_c, 9, 70, 0
5, 56939, Note_on_c, 9, 70, 60
5, 56939, Note_on_c, 9, 65, 76
5, 56939, Note_on_c, 9, 60, 50
5, 56953, Note_on_c, 9, 70, 0
5, 56954, Note_on_c, 9, 60, 0
5, 56968, Note_on_c, 9, 65, 0
5, 56999, Note_on_c, 9, 70, 80
5, 56999, Note_on_c, 9, 64, 120
5, 56999, Note_on_c, 9, 36, 60
5, 57014, Note_on_c, 9, 36, 0
5, 57014, Note_on_c, 9, 64, 0
5, 57014, Note_on_c, 9, 70, 0
5, 57029, Note_on_c, 9, 66, 62
5, 57056, Note_on_c, 9, 66, 0
5, 57059, Note_on_c, 9, 70, 60
5, 57059, Note_on_c, 9, 64, 120
5, 57059, Note_on_c, 9, 56, 48
5, 57066, Note_on_c, 9, 34, 13
5, 57074, Note_on_c, 9, 56, 0
5, 57074, Note_on_c, 9, 70, 0
5, 57074, Note_on_c, 9, 64, 0
5, 57079, Note_on_c, 9, 34, 0
5, 57120, Note_on_c, 9, 60, 50
5, 57120, Note_on_c, 9, 70, 80
5, 57121, Note_on_c, 9, 56, 70
5, 57134, Note_on_c, 9, 70, 0
5, 57134, Note_on_c, 9, 60, 0
5, 57135, Note_on_c, 9, 56, 0
5, 57179, Note_on_c, 9, 62, 57
5, 57179, Note_on_c, 9, 70, 60
5, 57194, Note_on_c, 9, 70, 0
5, 57194, Note_on_c, 9, 62, 0
5, 57209, Note_on_c, 9, 65, 68
5, 57209, Note_on_c, 9, 70, 70
5, 57224, Note_on_c, 9, 70, 0
5, 57232, Note_on_c, 9, 65, 0
5, 57239, Note_on_c, 9, 62, 120
5, 57239, Note_on_c, 9, 66, 62
5, 57239, Note_on_c, 9, 70, 80
5, 57254, Note_on_c, 9, 70, 0
5, 57254, Note_on_c, 9, 62, 0
5, 57264, Note_on_c, 9, 66, 0
5, 57299, Note_on_c, 9, 36, 60
5, 57299, Note_on_c, 9, 56, 48
5, 57299, Note_on_c, 9, 60, 50
5, 57299, Note_on_c, 9, 70, 60
5, 57314, Note_on_c, 9, 70, 0
5, 57314, Note_on_c, 9, 36, 0
5, 57314, Note_on_c, 9, 56, 0
5, 57314, Note_on_c, 9, 60, 0
5, 57359, Note_on_c, 9, 56, 70
5, 57359, Note_on_c, 9, 61, 50
5, 57359, Note_on_c, 9, 70, 80
5, 57374, Note_on_c, 9, 70, 0
5, 57374, Note_on_c, 9, 61, 0
5, 57374, Note_on_c, 9, 56, 0
5, 57419, Note_on_c, 9, 61, 50
5, 57419, Note_on_c, 9, 70, 60
5, 57429, Note_on_c, 9, 34, 2
5, 57434, Note_on_c, 9, 70, 0
5, 57434, Note_on_c, 9, 61, 0
5, 57441, Note_on_c, 9, 34, 0
5, 57478, Note_on_c, 9, 78, 11
5, 57479, Note_on_c, 9, 36, 60
5, 57479, Note_on_c, 9, 64, 120
5, 57479, Note_on_c, 9, 70, 80
5, 57494, Note_on_c, 9, 70, 0
5, 57494, Note_on_c, 9, 64, 0
5, 57494, Note_on_c, 9, 36, 0
5, 57510, Note_on_c, 9, 78, 0
5, 57539, Note_on_c, 9, 56, 48
5, 57539, Note_on_c, 9, 64, 120
5, 57539, Note_on_c, 9, 70, 60
5, 57546, Note_on_c, 9, 78, 23
5, 57554, Note_on_c, 9, 70, 0
5, 57554, Note_on_c, 9, 56, 0
5, 57554, Note_on_c, 9, 64, 0
5, 57584, Note_on_c, 9, 78, 0
5, 57599, Note_on_c, 9, 56, 70
5, 57599, Note_on_c, 9, 60, 50
5, 57599, Note_on_c, 9, 70, 80
5, 57600, Note_on_c, 9, 42, 100
5, 57614, Note_on_c, 9, 70, 0
5, 57614, Note_on_c, 9, 56, 0
5, 57614, Note_on_c, 9, 60, 0
5, 57615, Note_on_c, 9, 42, 0
5, 57659, Note_on_c, 9, 62, 57
5, 57659, Note_on_c, 9, 65, 41
5, 57659, Note_on_c, 9, 70, 60
5, 57674, Note_on_c, 9, 70, 0
5, 57674, Note_on_c, 9, 62, 0
5, 57685, Note_on_c, 9, 65, 0
5, 57689, Note_on_c, 9, 70, 70
5, 57704, Note_on_c, 9, 70, 0
5, 57719, Note_on_c, 9, 62, 120
5, 57719, Note_on_c, 9, 66, 59
5, 57719, Note_on_c, 9, 70, 60
5, 57720, Note_on_c, 9, 42, 100
5, 57734, Note_on_c, 9, 70, 0
5, 57734, Note_on_c, 9, 62, 0
5, 57735, Note_on_c, 9, 42, 0
5, 57749, Note_on_c, 9, 66, 0
5, 57779, Note_on_c, 9, 36, 60
5, 57779, Note_on_c, 9, 56, 48
5, 57779, Note_on_c, 9, 61, 50
5, 57779, Note_on_c, 9, 70, 60
5, 57794, Note_on_c, 9, 70, 0
5, 57794, Note_on_c, 9, 36, 0
5, 57794, Note_on_c, 9, 56, 0
5, 57794, Note_on_c, 9, 61, 0
5, 57839, Note_on_c, 9, 56, 70
5, 57839, Note_on_c, 9, 60, 50
5, 57839, Note_on_c, 9, 70, 80
5, 57840, Note_on_c, 9, 42, 100
5, 57854, Note_on_c, 9, 70, 0
5, 57854, Note_on_c, 9, 56, 0
5, 57854, Note_on_c, 9, 60, 0
5, 57855, Note_on_c, 9, 42, 0
5, 57899, Note_on_c, 9, 60, 50
5, 57899, Note_on_c, 9, 65, 53
5, 57899, Note_on_c, 9, 70, 60
5, 57914, Note_on_c, 9, 70, 0
5, 57914, Note_on_c, 9, 60, 0
5, 57923, Note_on_c, 9, 65, 0
5, 57929, Note_on_c, 9, 66, 62
5, 57958, Note_on_c, 9, 66, 0
5, 57959, Note_on_c, 9, 78, 10
5, 57959, Note_on_c, 9, 36, 60
5, 57959, Note_on_c, 9, 64, 120
5, 57959, Note_on_c, 9, 70, 80
5, 57960, Note_on_c, 9, 42, 100
5, 57974, Note_on_c, 9, 70, 0
5, 57974, Note_on_c, 9, 64, 0
5, 57974, Note_on_c, 9, 36, 0
5, 57975, Note_on_c, 9, 78, 0
5, 57975, Note_on_c, 9, 42, 0
5, 58019, Note_on_c, 9, 56, 48
5, 58019, Note_on_c, 9, 64, 120
5, 58019, Note_on_c, 9, 70, 60
5, 58033, Note_on_c, 9, 78, 17
5, 58034, Note_on_c, 9, 70, 0
5, 58034, Note_on_c, 9, 56, 0
5, 58034, Note_on_c, 9, 64, 0
5, 58071, Note_on_c, 9, 78, 0
5, 58080, Note_on_c, 9, 70, 80
5, 58080, Note_on_c, 9, 60, 50
5, 58080, Note_on_c, 9, 56, 70
5, 58080, Program_c, 9, 0
5, 58094, Note_on_c, 9, 70, 0
5, 58095, Note_on_c, 9, 60, 0
5, 58096, Note_on_c, 9, 56, 0
5, 58139, Note_on_c, 9, 62, 57
5, 58139, Note_on_c, 9, 70, 60
5, 58154, Note_on_c, 9, 70, 0
5, 58154, Note_on_c, 9, 62, 0
5, 58169, Note_on_c, 9, 70, 70
5, 58184, Note_on_c, 9, 70, 0
5, 58199, Note_on_c, 9, 62, 120
5, 58199, Note_on_c, 9, 70, 80
5, 58214, Note_on_c, 9, 70, 0
5, 58214, Note_on_c, 9, 62, 0
5, 58259, Note_on_c, 9, 36, 60
5, 58259, Note_on_c, 9, 56, 48
5, 58259, Note_on_c, 9, 60, 50
5, 58259, Note_on_c, 9, 70, 60
5, 58274, Note_on_c, 9, 70, 0
5, 58274, Note_on_c, 9, 36, 0
5, 58274, Note_on_c, 9, 56, 0
5, 58274, Note_on_c, 9, 60, 0
5, 58319, Note_on_c, 9, 56, 70
5, 58319, Note_on_c, 9, 61, 50
5, 58319, Note_on_c, 9, 70, 80
5, 58334, Note_on_c, 9, 70, 0
5, 58334, Note_on_c, 9, 61, 0
5, 58334, Note_on_c, 9, 56, 0
5, 58379, Note_on_c, 9, 61, 50
5, 58379, Note_on_c, 9, 70, 60
5, 58394, Note_on_c, 9, 70, 0
5, 58394, Note_on_c, 9, 61, 0
5, 58439, Note_on_c, 9, 36, 60
5, 58439, Note_on_c, 9, 64, 120
5, 58439, Note_on_c, 9, 70, 80
5, 58454, Note_on_c, 9, 70, 0
5, 58454, Note_on_c, 9, 64, 0
5, 58454, Note_on_c, 9, 36, 0
5, 58499, Note_on_c, 9, 56, 48
5, 58499, Note_on_c, 9, 64, 120
5, 58499, Note_on_c, 9, 70, 60
5, 58514, Note_on_c, 9, 70, 0
5, 58514, Note_on_c, 9, 64, 0
5, 58514, Note_on_c, 9, 56, 0
5, 58559, Note_on_c, 9, 56, 70
5, 58559, Note_on_c, 9, 60, 50
5, 58559, Note_on_c, 9, 70, 80
5, 58574, Note_on_c, 9, 70, 0
5, 58574, Note_on_c, 9, 60, 0
5, 58574, Note_on_c, 9, 56, 0
5, 58578, Note_on_c, 9, 69, 2
5, 58590, Note_on_c, 9, 69, 0
5, 58619, Note_on_c, 9, 62, 57
5, 58619, Note_on_c, 9, 70, 60
5, 58634, Note_on_c, 9, 70, 0
5, 58634, Note_on_c, 9, 62, 0
5, 58649, Note_on_c, 9, 70, 70
5, 58664, Note_on_c, 9, 70, 0
5, 58679, Note_on_c, 9, 62, 120
5, 58679, Note_on_c, 9, 70, 60
5, 58694, Note_on_c, 9, 70, 0
5, 58694, Note_on_c, 9, 62, 0
5, 58739, Note_on_c, 9, 36, 60
5, 58739, Note_on_c, 9, 56, 48
5, 58739, Note_on_c, 9, 61, 50
5, 58739, Note_on_c, 9, 70, 60
5, 58754, Note_on_c, 9, 70, 0
5, 58754, Note_on_c, 9, 36, 0
5, 58754, Note_on_c, 9, 56, 0
5, 58754, Note_on_c, 9, 61, 0
5, 58799, Note_on_c, 9, 56, 70
5, 58799, Note_on_c, 9, 60, 50
5, 58799, Note_on_c, 9, 70, 80
5, 58814, Note_on_c, 9, 70, 0
5, 58814, Note_on_c, 9, 60, 0
5, 58814, Note_on_c, 9, 56, 0
5, 58859, Note_on_c, 9, 60, 50
5, 58859, Note_on_c, 9, 70, 60
5, 58874, Note_on_c, 9, 70, 0
5, 58874, Note_on_c, 9, 60, 0
5, 58919, Note_on_c, 9, 36, 60
5, 58919, Note_on_c, 9, 64, 120
5, 58919, Note_on_c, 9, 70, 80
5, 58934, Note_on_c, 9, 70, 0
5, 58934, Note_on_c, 9, 64, 0
5, 58934, Note_on_c, 9, 36, 0
5, 58979, Note_on_c, 9, 56, 48
5, 58979, Note_on_c, 9, 64, 120
5, 58979, Note_on_c, 9, 70, 60
5, 58994, Note_on_c, 9, 70, 0
5, 58994, Note_on_c, 9, 64, 0
5, 58994, Note_on_c, 9, 56, 0
5, 59040, Note_on_c, 9, 70, 80
5, 59040, Note_on_c, 9, 60, 50
5, 59040, Note_on_c, 9, 56, 70
5, 59052, Note_on_c, 9, 68, 34
5, 59054, Note_on_c, 9, 56, 0
5, 59054, Note_on_c, 9, 70, 0
5, 59054, Note_on_c, 9, 60, 0
5, 59066, Note_on_c, 9, 68, 0
5, 59099, Note_on_c, 9, 62, 57
5, 59099, Note_on_c, 9, 70, 60
5, 59113, Note_on_c, 9, 70, 0
5, 59114, Note_on_c, 9, 62, 0
5, 59129, Note_on_c, 9, 70, 70
5, 59144, Note_on_c, 9, 70, 0
5, 59159, Note_on_c, 9, 62, 120
5, 59159, Note_on_c, 9, 70, 80
5, 59164, Note_on_c, 9, 67, 44
5, 59174, Note_on_c, 9, 70, 0
5, 59174, Note_on_c, 9, 62, 0
5, 59180, Note_on_c, 9, 67, 0
5, 59219, Note_on_c, 9, 36, 60
5, 59219, Note_on_c, 9, 56, 48
5, 59219, Note_on_c, 9, 60, 50
5, 59219, Note_on_c, 9, 70, 60
5, 59234, Note_on_c, 9, 70, 0
5, 59234, Note_on_c, 9, 36, 0
5, 59234, Note_on_c, 9, 56, 0
5, 59234, Note_on_c, 9, 60, 0
5, 59279, Note_on_c, 9, 56, 70
5, 59279, Note_on_c, 9, 61, 50
5, 59279, Note_on_c, 9, 70, 80
5, 59282, Note_on_c, 9, 68, 44
5, 59294, Note_on_c, 9, 70, 0
5, 59294, Note_on_c, 9, 56, 0
5, 59294, Note_on_c, 9, 61, 0
5, 59319, Note_on_c, 9, 68, 0
5, 59339, Note_on_c, 9, 61, 50
5, 59339, Note_on_c, 9, 70, 60
5, 59354, Note_on_c, 9, 70, 0
5, 59354, Note_on_c, 9, 61, 0
5, 59399, Note_on_c, 9, 36, 60
5, 59399, Note_on_c, 9, 64, 120
5, 59399, Note_on_c, 9, 70, 80
5, 59408, Note_on_c, 9, 67, 37
5, 59414, Note_on_c, 9, 70, 0
5, 59414, Note_on_c, 9, 36, 0
5, 59414, Note_on_c, 9, 64, 0
5, 59433, Note_on_c, 9, 67, 0
5, 59459, Note_on_c, 9, 56, 48
5, 59459, Note_on_c, 9, 64, 120
5, 59459, Note_on_c, 9, 70, 60
5, 59474, Note_on_c, 9, 70, 0
5, 59474, Note_on_c, 9, 64, 0
5, 59474, Note_on_c, 9, 56, 0
5, 59519, Note_on_c, 9, 56, 70
5, 59519, Note_on_c, 9, 60, 50
5, 59519, Note_on_c, 9, 70, 80
5, 59529, Note_on_c, 9, 68, 49
5, 59534, Note_on_c, 9, 70, 0
5, 59534, Note_on_c, 9, 56, 0
5, 59534, Note_on_c, 9, 60, 0
5, 59558, Note_on_c, 9, 68, 0
5, 59579, Note_on_c, 9, 62, 57
5, 59579, Note_on_c, 9, 70, 60
5, 59594, Note_on_c, 9, 70, 0
5, 59594, Note_on_c, 9, 62, 0
5, 59609, Note_on_c, 9, 70, 70
5, 59624, Note_on_c, 9, 70, 0
5, 59639, Note_on_c, 9, 62, 120
5, 59639, Note_on_c, 9, 70, 60
5, 59648, Note_on_c, 9, 67, 26
5, 59654, Note_on_c, 9, 70, 0
5, 59654, Note_on_c, 9, 62, 0
5, 59660, Note_on_c, 9, 67, 0
5, 59699, Note_on_c, 9, 36, 60
5, 59699, Note_on_c, 9, 56, 48
5, 59699, Note_on_c, 9, 61, 50
5, 59699, Note_on_c, 9, 70, 60
5, 59713, Note_on_c, 9, 67, 37
5, 59714, Note_on_c, 9, 70, 0
5, 59714, Note_on_c, 9, 61, 0
5, 59714, Note_on_c, 9, 36, 0
5, 59714, Note_on_c, 9, 56, 0
5, 59739, Note_on_c, 9, 67, 0
5, 59759, Note_on_c, 9, 56, 70
5, 59759, Note_on_c, 9, 60, 50
5, 59759, Note_on_c, 9, 70, 80
5, 59773, Note_on_c, 9, 56, 0
5, 59774, Note_on_c, 9, 70, 0
5, 59774, Note_on_c, 9, 60, 0
5, 59819, Note_on_c, 9, 60, 50
5, 59819, Note_on_c, 9, 70, 60
5, 59834, Note_on_c, 9, 70, 0
5, 59834, Note_on_c, 9, 60, 0
5, 59879, Note_on_c, 9, 36, 60
5, 59879, Note_on_c, 9, 64, 120
5, 59879, Note_on_c, 9, 70, 80
5, 59894, Note_on_c, 9, 70, 0
5, 59894, Note_on_c, 9, 64, 0
5, 59894, Note_on_c, 9, 36, 0
5, 59939, Note_on_c, 9, 56, 48
5, 59939, Note_on_c, 9, 64, 120
5, 59939, Note_on_c, 9, 70, 60
5, 59954, Note_on_c, 9, 70, 0
5, 59954, Note_on_c, 9, 64, 0
5, 59954, Note_on_c, 9, 56, 0
5, 60000, Note_on_c, 9, 70, 80
5, 60000, Note_on_c, 9, 56, 70
5, 60000, Program_c, 9, 0
5, 60001, Note_on_c, 9, 60, 50
5, 60014, Note_on_c, 9, 70, 0
5, 60015, Note_on_c, 9, 60, 0
5, 60015, Note_on_c, 9, 56, 0
5, 60059, Note_on_c, 9, 62, 57
5, 60059, Note_on_c, 9, 70, 60
5, 60074, Note_on_c, 9, 70, 0
5, 60074, Note_on_c, 9, 62, 0
5, 60089, Note_on_c, 9, 70, 70
5, 60104, Note_on_c, 9, 70, 0
5, 60118, Note_on_c, 9, 67, 27
5, 60119, Note_on_c, 9, 62, 120
5, 60119, Note_on_c, 9, 70, 80
5, 60134, Note_on_c, 9, 70, 0
5, 60134, Note_on_c, 9, 62, 0
5, 60140, Note_on_c, 9, 67, 0
5, 60179, Note_on_c, 9, 36, 60
5, 60179, Note_on_c, 9, 56, 48
5, 60179, Note_on_c, 9, 60, 50
5, 60179, Note_on_c, 9, 70, 60
5, 60189, Note_on_c, 9, 67, 35
5, 60194, Note_on_c, 9, 70, 0
5, 60194, Note_on_c, 9, 60, 0
5, 60194, Note_on_c, 9, 36, 0
5, 60194, Note_on_c, 9, 56, 0
5, 60221, Note_on_c, 9, 67, 0
5, 60239, Note_on_c, 9, 56, 70
5, 60239, Note_on_c, 9, 61, 50
5, 60239, Note_on_c, 9, 70, 80
5, 60254, Note_on_c, 9, 70, 0
5, 60254, Note_on_c, 9, 61, 0
5, 60254, Note_on_c, 9, 56, 0
5, 60299, Note_on_c, 9, 61, 50
5, 60299, Note_on_c, 9, 70, 60
5, 60314, Note_on_c, 9, 70, 0
5, 60314, Note_on_c, 9, 61, 0
5, 60353, Note_on_c, 9, 68, 38
5, 60359, Note_on_c, 9, 36, 60
5, 60359, Note_on_c, 9, 64, 120
5, 60359, Note_on_c, 9, 70, 80
5, 60374, Note_on_c, 9, 70, 0
5, 60374, Note_on_c, 9, 64, 0
5, 60374, Note_on_c, 9, 36, 0
5, 60390, Note_on_c, 9, 68, 0
5, 60417, Note_on_c, 9, 68, 26
5, 60419, Note_on_c, 9, 56, 48
5, 60419, Note_on_c, 9, 64, 120
5, 60419, Note_on_c, 9, 70, 60
5, 60434, Note_on_c, 9, 70, 0
5, 60434, Note_on_c, 9, 64, 0
5, 60434, Note_on_c, 9, 56, 0
5, 60452, Note_on_c, 9, 68, 0
5, 60479, Note_on_c, 9, 56, 70
5, 60479, Note_on_c, 9, 60, 50
5, 60479, Note_on_c, 9, 70, 80
5, 60494, Note_on_c, 9, 70, 0
5, 60494, Note_on_c, 9, 60, 0
5, 60494, Note_on_c, 9, 56, 0
5, 60539, Note_on_c, 9, 62, 57
5, 60539, Note_on_c, 9, 70, 60
5, 60554, Note_on_c, 9, 70, 0
5, 60554, Note_on_c, 9, 62, 0
5, 60569, Note_on_c, 9, 70, 70
5, 60584, Note_on_c, 9, 70, 0
5, 60599, Note_on_c, 9, 62, 120
5, 60599, Note_on_c, 9, 70, 60
5, 60611, Note_on_c, 9, 67, 19
5, 60614, Note_on_c, 9, 70, 0
5, 60614, Note_on_c, 9, 62, 0
5, 60646, Note_on_c, 9, 67, 0
5, 60659, Note_on_c, 9, 36, 60
5, 60659, Note_on_c, 9, 56, 48
5, 60659, Note_on_c, 9, 61, 50
5, 60659, Note_on_c, 9, 70, 60
5, 60674, Note_on_c, 9, 70, 0
5, 60674, Note_on_c, 9, 36, 0
5, 60674, Note_on_c, 9, 56, 0
5, 60674, Note_on_c, 9, 61, 0
5, 60675, Note_on_c, 9, 67, 32
5, 60699, Note_on_c, 9, 67, 0
5, 60719, Note_on_c, 9, 56, 70
5, 60719, Note_on_c, 9, 60, 50
5, 60719, Note_on_c, 9, 70, 80
5, 60734, Note_on_c, 9, 70, 0
5, 60734, Note_on_c, 9, 60, 0
5, 60734, Note_on_c, 9, 56, 0
5, 60779, Note_on_c, 9, 60, 50
5, 60779, Note_on_c, 9, 70, 60
5, 60794, Note_on_c, 9, 70, 0
5, 60794, Note_on_c, 9, 60, 0
5, 60839, Note_on_c, 9, 36, 60
5, 60839, Note_on_c, 9, 64, 120
5, 60839, Note_on_c, 9, 70, 80
5, 60843, Note_on_c, 9, 68, 31
5, 60854, Note_on_c, 9, 70, 0
5, 60854, Note_on_c, 9, 36, 0
5, 60854, Note_on_c, 9, 64, 0
5, 60877, Note_on_c, 9, 68, 0
5, 60899, Note_on_c, 9, 56, 48
5, 60899, Note_on_c, 9, 64, 120
5, 60899, Note_on_c, 9, 70, 60
5, 60910, Note_on_c, 9, 68, 39
5, 60914, Note_on_c, 9, 70, 0
5, 60914, Note_on_c, 9, 56, 0
5, 60914, Note_on_c, 9, 64, 0
5, 60945, Note_on_c, 9, 68, 0
5, 60960, Note_on_c, 9, 70, 80
5, 60960, Note_on_c, 9, 60, 50
5, 60960, Note_on_c, 9, 56, 70
5, 60974, Note_on_c, 9, 56, 0
5, 60974, Note_on_c, 9, 60, 0
5, 60974, Note_on_c, 9, 70, 0
5, 61019, Note_on_c, 9, 62, 57
5, 61019, Note_on_c, 9, 70, 60
5, 61034, Note_on_c, 9, 70, 0
5, 61034, Note_on_c, 9, 62, 0
5, 61049, Note_on_c, 9, 70, 70
5, 61064, Note_on_c, 9, 70, 0
5, 61079, Note_on_c, 9, 62, 120
5, 61079, Note_on_c, 9, 70, 80
5, 61089, Note_on_c, 9, 67, 25
5, 61093, Note_on_c, 9, 70, 0
5, 61094, Note_on_c, 9, 62, 0
5, 61110, Note_on_c, 9, 67, 0
5, 61139, Note_on_c, 9, 36, 60
5, 61139, Note_on_c, 9, 56, 48
5, 61139, Note_on_c, 9, 60, 50
5, 61139, Note_on_c, 9, 70, 60
5, 61151, Note_on_c, 9, 67, 27
5, 61154, Note_on_c, 9, 70, 0
5, 61154, Note_on_c, 9, 60, 0
5, 61154, Note_on_c, 9, 36, 0
5, 61154, Note_on_c, 9, 56, 0
5, 61189, Note_on_c, 9, 67, 0
5, 61199, Note_on_c, 9, 56, 70
5, 61199, Note_on_c, 9, 61, 50
5, 61199, Note_on_c, 9, 70, 80
5, 61214, Note_on_c, 9, 70, 0
5, 61214, Note_on_c, 9, 61, 0
5, 61214, Note_on_c, 9, 56, 0
5, 61259, Note_on_c, 9, 70, 60
5, 61259, Note_on_c, 9, 61, 50
5, 61274, Note_on_c, 9, 61, 0
5, 61274, Note_on_c, 9, 70, 0
5, 61308, Note_on_c, 9, 68, 41
5, 61319, Note_on_c, 9, 70, 80
5, 61319, Note_on_c, 9, 64, 120
5, 61319, Note_on_c, 9, 36, 60
5, 61334, Note_on_c, 9, 36, 0
5, 61334, Note_on_c, 9, 64, 0
5, 61334, Note_on_c, 9, 70, 0
5, 61339, Note_on_c, 9, 68, 0
5, 61377, Note_on_c, 9, 68, 39
5, 61379, Note_on_c, 9, 70, 60
5, 61379, Note_on_c, 9, 64, 120
5, 61379, Note_on_c, 9, 56, 48
5, 61394, Note_on_c, 9, 56, 0
5, 61394, Note_on_c, 9, 64, 0
5, 61394, Note_on_c, 9, 70, 0
5, 61414, Note_on_c, 9, 68, 0
5, 61439, Note_on_c, 9, 70, 80
5, 61439, Note_on_c, 9, 60, 50
5, 61439, Note_on_c, 9, 56, 70
5, 61454, Note_on_c, 9, 56, 0
5, 61454, Note_on_c, 9, 60, 0
5, 61454, Note_on_c, 9, 70, 0
5, 61499, Note_on_c, 9, 70, 60
5, 61499, Note_on_c, 9, 62, 57
5, 61514, Note_on_c, 9, 62, 0
5, 61514, Note_on_c, 9, 70, 0
5, 61529, Note_on_c, 9, 70, 70
5, 61544, Note_on_c, 9, 70, 0
5, 61559, Note_on_c, 9, 70, 60
5, 61559, Note_on_c, 9, 62, 120
5, 61564, Note_on_c, 9, 67, 23
5, 61574, Note_on_c, 9, 62, 0
5, 61574, Note_on_c, 9, 70, 0
5, 61595, Note_on_c, 9, 67, 0
5, 61619, Note_on_c, 9, 70, 60
5, 61619, Note_on_c, 9, 61, 50
5, 61619, Note_on_c, 9, 56, 48
5, 61619, Note_on_c, 9, 36, 60
5, 61626, Note_on_c, 9, 67, 37
5, 61634, Note_on_c, 9, 36, 0
5, 61634, Note_on_c, 9, 56, 0
5, 61634, Note_on_c, 9, 70, 0
5, 61634, Note_on_c, 9, 61, 0
5, 61659, Note_on_c, 9, 67, 0
5, 61679, Note_on_c, 9, 70, 80
5, 61679, Note_on_c, 9, 60, 50
5, 61679, Note_on_c, 9, 56, 70
5, 61694, Note_on_c, 9, 56, 0
5, 61694, Note_on_c, 9, 60, 0
5, 61694, Note_on_c, 9, 70, 0
5, 61739, Note_on_c, 9, 70, 60
5, 61739, Note_on_c, 9, 60, 50
5, 61753, Note_on_c, 9, 70, 0
5, 61754, Note_on_c, 9, 60, 0
5, 61799, Note_on_c, 9, 70, 80
5, 61799, Note_on_c, 9, 64, 120
5, 61799, Note_on_c, 9, 36, 60
5, 61800, Note_on_c, 9, 68, 41
5, 61814, Note_on_c, 9, 36, 0
5, 61814, Note_on_c, 9, 70, 0
5, 61814, Note_on_c, 9, 64, 0
5, 61831, Note_on_c, 9, 68, 0
5, 61859, Note_on_c, 9, 70, 60
5, 61859, Note_on_c, 9, 64, 120
5, 61859, Note_on_c, 9, 56, 48
5, 61864, Note_on_c, 9, 68, 48
5, 61874, Note_on_c, 9, 56, 0
5, 61874, Note_on_c, 9, 70, 0
5, 61874, Note_on_c, 9, 64, 0
5, 61903, Note_on_c, 9, 68, 0
5, 61920, Program_c, 9, 0
5, 61921, Note_on_c, 9, 70, 80
5, 61921, Note_on_c, 9, 60, 50
5, 61921, Note_on_c, 9, 56, 70
5, 61935, Note_on_c, 9, 60, 0
5, 61935, Note_on_c, 9, 70, 0
5, 61936, Note_on_c, 9, 56, 0
5, 61979, Note_on_c, 9, 70, 60
5, 61979, Note_on_c, 9, 62, 57
5, 61994, Note_on_c, 9, 62, 0
5, 61994, Note_on_c, 9, 70, 0
5, 62009, Note_on_c, 9, 70, 70
5, 62024, Note_on_c, 9, 70, 0
5, 62039, Note_on_c, 9, 70, 80
5, 62039, Note_on_c, 9, 62, 120
5, 62050, Note_on_c, 9, 67, 16
5, 62054, Note_on_c, 9, 62, 0
5, 62054, Note_on_c, 9, 70, 0
5, 62074, Note_on_c, 9, 67, 0
5, 62099, Note_on_c, 9, 70, 60
5, 62099, Note_on_c, 9, 60, 50
5, 62099, Note_on_c, 9, 56, 48
5, 62099, Note_on_c, 9, 36, 60
5, 62111, Note_on_c, 9, 67, 41
5, 62114, Note_on_c, 9, 36, 0
5, 62114, Note_on_c, 9, 56, 0
5, 62114, Note_on_c, 9, 70, 0
5, 62114, Note_on_c, 9, 60, 0
5, 62149, Note_on_c, 9, 67, 0
5, 62159, Note_on_c, 9, 70, 80
5, 62159, Note_on_c, 9, 61, 50
5, 62159, Note_on_c, 9, 56, 70
5, 62174, Note_on_c, 9, 56, 0
5, 62174, Note_on_c, 9, 61, 0
5, 62174, Note_on_c, 9, 70, 0
5, 62219, Note_on_c, 9, 70, 60
5, 62219, Note_on_c, 9, 61, 50
5, 62234, Note_on_c, 9, 61, 0
5, 62234, Note_on_c, 9, 70, 0
5, 62279, Note_on_c, 9, 70, 80
5, 62279, Note_on_c, 9, 64, 120
5, 62279, Note_on_c, 9, 36, 60
5, 62279, Note_on_c, 9, 68, 33
5, 62294, Note_on_c, 9, 36, 0
5, 62294, Note_on_c, 9, 70, 0
5, 62294, Note_on_c, 9, 64, 0
5, 62306, Note_on_c, 9, 68, 0
5, 62339, Note_on_c, 9, 70, 60
5, 62339, Note_on_c, 9, 64, 120
5, 62339, Note_on_c, 9, 56, 48
5, 62347, Note_on_c, 9, 68, 62
5, 62354, Note_on_c, 9, 56, 0
5, 62354, Note_on_c, 9, 70, 0
5, 62354, Note_on_c, 9, 64, 0
5, 62393, Note_on_c, 9, 68, 0
5, 62399, Note_on_c, 9, 70, 80
5, 62399, Note_on_c, 9, 60, 50
5, 62399, Note_on_c, 9, 56, 70
5, 62413, Note_on_c, 9, 56, 0
5, 62414, Note_on_c, 9, 60, 0
5, 62414, Note_on_c, 9, 70, 0
5, 62459, Note_on_c, 9, 70, 60
5, 62459, Note_on_c, 9, 62, 57
5, 62474, Note_on_c, 9, 62, 0
5, 62474, Note_on_c, 9, 70, 0
5, 62489, Note_on_c, 9, 70, 70
5, 62504, Note_on_c, 9, 70, 0
5, 62519, Note_on_c, 9, 70, 60
5, 62519, Note_on_c, 9, 62, 120
5, 62530, Note_on_c, 9, 67, 3
5, 62534, Note_on_c, 9, 62, 0
5, 62534, Note_on_c, 9, 70, 0
5, 62546, Note_on_c, 9, 67, 0
5, 62579, Note_on_c, 9, 70, 60
5, 62579, Note_on_c, 9, 61, 50
5, 62579, Note_on_c, 9, 56, 48
5, 62579, Note_on_c, 9, 36, 60
5, 62594, Note_on_c, 9, 36, 0
5, 62594, Note_on_c, 9, 70, 0
5, 62594, Note_on_c, 9, 61, 0
5, 62594, Note_on_c, 9, 56, 0
5, 62594, Note_on_c, 9, 67, 47
5, 62626, Note_on_c, 9, 67, 0
5, 62639, Note_on_c, 9, 70, 80
5, 62639, Note_on_c, 9, 60, 50
5, 62639, Note_on_c, 9, 56, 70
5, 62654, Note_on_c, 9, 56, 0
5, 62654, Note_on_c, 9, 60, 0
5, 62654, Note_on_c, 9, 70, 0
5, 62699, Note_on_c, 9, 70, 60
5, 62699, Note_on_c, 9, 60, 50
5, 62714, Note_on_c, 9, 60, 0
5, 62714, Note_on_c, 9, 70, 0
5, 62759, Note_on_c, 9, 70, 80
5, 62759, Note_on_c, 9, 64, 120
5, 62759, Note_on_c, 9, 36, 60
5, 62760, Note_on_c, 9, 68, 58
5, 62774, Note_on_c, 9, 36, 0
5, 62774, Note_on_c, 9, 70, 0
5, 62774, Note_on_c, 9, 64, 0
5, 62796, Note_on_c, 9, 68, 0
5, 62819, Note_on_c, 9, 70, 60
5, 62819, Note_on_c, 9, 64, 120
5, 62819, Note_on_c, 9, 56, 48
5, 62826, Note_on_c, 9, 68, 53
5, 62834, Note_on_c, 9, 56, 0
5, 62834, Note_on_c, 9, 70, 0
5, 62834, Note_on_c, 9, 64, 0
5, 62880, Note_on_c, 9, 60, 50
5, 62880, Note_on_c, 9, 70, 80
5, 62881, Note_on_c, 9, 56, 70
5, 62882, Note_on_c, 9, 68, 0
5, 62894, Note_on_c, 9, 60, 0
5, 62894, Note_on_c, 9, 70, 0
5, 62895, Note_on_c, 9, 56, 0
5, 62939, Note_on_c, 9, 70, 60
5, 62939, Note_on_c, 9, 62, 57
5, 62954, Note_on_c, 9, 62, 0
5, 62954, Note_on_c, 9, 70, 0
5, 62969, Note_on_c, 9, 70, 70
5, 62984, Note_on_c, 9, 70, 0
5, 62999, Note_on_c, 9, 70, 80
5, 62999, Note_on_c, 9, 62, 120
5, 63001, Note_on_c, 9, 67, 17
5, 63014, Note_on_c, 9, 62, 0
5, 63014, Note_on_c, 9, 70, 0
5, 63030, Note_on_c, 9, 67, 0
5, 63059, Note_on_c, 9, 70, 60
5, 63059, Note_on_c, 9, 60, 50
5, 63059, Note_on_c, 9, 56, 48
5, 63059, Note_on_c, 9, 36, 60
5, 63063, Note_on_c, 9, 67, 31
5, 63073, Note_on_c, 9, 36, 0
5, 63073, Note_on_c, 9, 56, 0
5, 63074, Note_on_c, 9, 70, 0
5, 63074, Note_on_c, 9, 60, 0
5, 63099, Note_on_c, 9, 67, 0
5, 63119, Note_on_c, 9, 70, 80
5, 63119, Note_on_c, 9, 61, 50
5, 63119, Note_on_c, 9, 56, 70
5, 63134, Note_on_c, 9, 56, 0
5, 63134, Note_on_c, 9, 61, 0
5, 63134, Note_on_c, 9, 70, 0
5, 63179, Note_on_c, 9, 70, 60
5, 63179, Note_on_c, 9, 61, 50
5, 63194, Note_on_c, 9, 61, 0
5, 63194, Note_on_c, 9, 70, 0
5, 63238, Note_on_c, 9, 68, 60
5, 63239, Note_on_c, 9, 70, 80
5, 63239, Note_on_c, 9, 64, 120
5, 63239, Note_on_c, 9, 36, 60
5, 63254, Note_on_c, 9, 36, 0
5, 63254, Note_on_c, 9, 64, 0
5, 63254, Note_on_c, 9, 70, 0
5, 63255, Note_on_c, 9, 70, 2
5, 63267, Note_on_c, 9, 70, 0
5, 63299, Note_on_c, 9, 70, 60
5, 63299, Note_on_c, 9, 64, 120
5, 63299, Note_on_c, 9, 56, 48
5, 63303, Note_on_c, 9, 68, 0
5, 63314, Note_on_c, 9, 70, 0
5, 63314, Note_on_c, 9, 64, 0
5, 63314, Note_on_c, 9, 56, 0
5, 63359, Note_on_c, 9, 70, 80
5, 63359, Note_on_c, 9, 60, 50
5, 63359, Note_on_c, 9, 56, 70
5, 63374, Note_on_c, 9, 56, 0
5, 63374, Note_on_c, 9, 60, 0
5, 63374, Note_on_c, 9, 70, 0
5, 63419, Note_on_c, 9, 70, 60
5, 63419, Note_on_c, 9, 62, 57
5, 63434, Note_on_c, 9, 62, 0
5, 63434, Note_on_c, 9, 70, 0
5, 63449, Note_on_c, 9, 70, 70
5, 63464, Note_on_c, 9, 70, 0
5, 63479, Note_on_c, 9, 70, 60
5, 63479, Note_on_c, 9, 62, 120
5, 63479, Note_on_c, 9, 67, 17
5, 63494, Note_on_c, 9, 62, 0
5, 63494, Note_on_c, 9, 70, 0
5, 63501, Note_on_c, 9, 67, 0
5, 63539, Note_on_c, 9, 70, 60
5, 63539, Note_on_c, 9, 61, 50
5, 63539, Note_on_c, 9, 56, 48
5, 63539, Note_on_c, 9, 36, 60
5, 63542, Note_on_c, 9, 67, 43
5, 63554, Note_on_c, 9, 36, 0
5, 63554, Note_on_c, 9, 56, 0
5, 63554, Note_on_c, 9, 70, 0
5, 63554, Note_on_c, 9, 61, 0
5, 63593, Note_on_c, 9, 67, 0
5, 63599, Note_on_c, 9, 70, 80
5, 63599, Note_on_c, 9, 60, 50
5, 63599, Note_on_c, 9, 56, 70
5, 63614, Note_on_c, 9, 56, 0
5, 63614, Note_on_c, 9, 60, 0
5, 63614, Note_on_c, 9, 70, 0
5, 63659, Note_on_c, 9, 70, 60
5, 63659, Note_on_c, 9, 60, 50
5, 63674, Note_on_c, 9, 60, 0
5, 63674, Note_on_c, 9, 70, 0
5, 63719, Note_on_c, 9, 70, 80
5, 63719, Note_on_c, 9, 64, 120
5, 63719, Note_on_c, 9, 36, 60
5, 63726, Note_on_c, 9, 68, 42
5, 63734, Note_on_c, 9, 36, 0
5, 63734, Note_on_c, 9, 70, 0
5, 63734, Note_on_c, 9, 64, 0
5, 63756, Note_on_c, 9, 68, 0
5, 63779, Note_on_c, 9, 70, 60
5, 63779, Note_on_c, 9, 64, 120
5, 63779, Note_on_c, 9, 56, 48
5, 63787, Note_on_c, 9, 68, 41
5, 63794, Note_on_c, 9, 56, 0
5, 63794, Note_on_c, 9, 70, 0
5, 63794, Note_on_c, 9, 64, 0
5, 63838, Note_on_c, 9, 68, 0
5, 63840, Program_c, 9, 0
5, 63841, Note_on_c, 9, 70, 80
5, 63841, Note_on_c, 9, 60, 50
5, 63841, Note_on_c, 9, 56, 70
5, 63855, Note_on_c, 9, 60, 0
5, 63855, Note_on_c, 9, 70, 0
5, 63856, Note_on_c, 9, 56, 0
5, 63869, Note_on_c, 9, 65, 42
5, 63899, Note_on_c, 9, 70, 60
5, 63899, Note_on_c, 9, 62, 57
5, 63902, Note_on_c, 9, 65, 0
5, 63914, Note_on_c, 9, 62, 0
5, 63914, Note_on_c, 9, 70, 0
5, 63929, Note_on_c, 9, 70, 70
5, 63944, Note_on_c, 9, 70, 0
5, 63958, Note_on_c, 9, 67, 32
5, 63959, Note_on_c, 9, 70, 80
5, 63959, Note_on_c, 9, 62, 120
5, 63974, Note_on_c, 9, 62, 0
5, 63974, Note_on_c, 9, 70, 0
5, 63976, Note_on_c, 9, 67, 0
5, 64019, Note_on_c, 9, 70, 60
5, 64019, Note_on_c, 9, 60, 50
5, 64019, Note_on_c, 9, 56, 48
5, 64019, Note_on_c, 9, 36, 60
5, 64027, Note_on_c, 9, 67, 35
5, 64034, Note_on_c, 9, 36, 0
5, 64034, Note_on_c, 9, 56, 0
5, 64034, Note_on_c, 9, 70, 0
5, 64034, Note_on_c, 9, 60, 0
5, 64067, Note_on_c, 9, 67, 0
5, 64079, Note_on_c, 9, 70, 80
5, 64079, Note_on_c, 9, 61, 50
5, 64079, Note_on_c, 9, 56, 70
5, 64094, Note_on_c, 9, 56, 0
5, 64094, Note_on_c, 9, 61, 0
5, 64094, Note_on_c, 9, 70, 0
5, 64139, Note_on_c, 9, 70, 60
5, 64139, Note_on_c, 9, 61, 50
5, 64154, Note_on_c, 9, 61, 0
5, 64154, Note_on_c, 9, 70, 0
5, 64199, Note_on_c, 9, 70, 80
5, 64199, Note_on_c, 9, 64, 120
5, 64199, Note_on_c, 9, 36, 60
5, 64207, Note_on_c, 9, 68, 46
5, 64214, Note_on_c, 9, 36, 0
5, 64214, Note_on_c, 9, 70, 0
5, 64214, Note_on_c, 9, 64, 0
5, 64243, Note_on_c, 9, 68, 0
5, 64259, Note_on_c, 9, 70, 60
5, 64259, Note_on_c, 9, 64, 120
5, 64259, Note_on_c, 9, 56, 48
5, 64265, Note_on_c, 9, 68, 37
5, 64274, Note_on_c, 9, 56, 0
5, 64274, Note_on_c, 9, 70, 0
5, 64274, Note_on_c, 9, 64, 0
5, 64304, Note_on_c, 9, 68, 0
5, 64319, Note_on_c, 9, 70, 80
5, 64319, Note_on_c, 9, 60, 50
5, 64319, Note_on_c, 9, 56, 70
5, 64334, Note_on_c, 9, 56, 0
5, 64334, Note_on_c, 9, 60, 0
5, 64334, Note_on_c, 9, 70, 0
5, 64379, Note_on_c, 9, 70, 60
5, 64379, Note_on_c, 9, 62, 57
5, 64393, Note_on_c, 9, 62, 0
5, 64393, Note_on_c, 9, 70, 0
5, 64409, Note_on_c, 9, 70, 70
5, 64424, Note_on_c, 9, 70, 0
5, 64439, Note_on_c, 9, 70, 60
5, 64439, Note_on_c, 9, 62, 120
5, 64454, Note_on_c, 9, 62, 0
5, 64454, Note_on_c, 9, 70, 0
5, 64455, Note_on_c, 9, 67, 22
5, 64488, Note_on_c, 9, 67, 0
5, 64499, Note_on_c, 9, 70, 60
5, 64499, Note_on_c, 9, 61, 50
5, 64499, Note_on_c, 9, 56, 48
5, 64499, Note_on_c, 9, 36, 60
5, 64514, Note_on_c, 9, 36, 0
5, 64514, Note_on_c, 9, 70, 0
5, 64514, Note_on_c, 9, 61, 0
5, 64514, Note_on_c, 9, 56, 0
5, 64515, Note_on_c, 9, 67, 46
5, 64550, Note_on_c, 9, 67, 0
5, 64559, Note_on_c, 9, 70, 80
5, 64559, Note_on_c, 9, 60, 50
5, 64559, Note_on_c, 9, 56, 70
5, 64574, Note_on_c, 9, 56, 0
5, 64574, Note_on_c, 9, 60, 0
5, 64574, Note_on_c, 9, 70, 0
5, 64619, Note_on_c, 9, 70, 60
5, 64619, Note_on_c, 9, 60, 50
5, 64634, Note_on_c, 9, 60, 0
5, 64634, Note_on_c, 9, 70, 0
5, 64679, Note_on_c, 9, 70, 80
5, 64679, Note_on_c, 9, 64, 120
5, 64679, Note_on_c, 9, 36, 60
5, 64686, Note_on_c, 9, 68, 44
5, 64694, Note_on_c, 9, 36, 0
5, 64694, Note_on_c, 9, 70, 0
5, 64694, Note_on_c, 9, 64, 0
5, 64719, Note_on_c, 9, 68, 0
5, 64739, Note_on_c, 9, 70, 60
5, 64739, Note_on_c, 9, 64, 120
5, 64739, Note_on_c, 9, 56, 48
5, 64750, Note_on_c, 9, 68, 29
5, 64754, Note_on_c, 9, 56, 0
5, 64754, Note_on_c, 9, 70, 0
5, 64754, Note_on_c, 9, 64, 0
5, 64781, Note_on_c, 9, 68, 0
5, 64800, Note_on_c, 9, 60, 50
5, 64800, Note_on_c, 9, 70, 80
5, 64801, Note_on_c, 9, 56, 70
5, 64814, Note_on_c, 9, 70, 0
5, 64814, Note_on_c, 9, 60, 0
5, 64815, Note_on_c, 9, 56, 0
5, 64859, Note_on_c, 9, 70, 60
5, 64859, Note_on_c, 9, 62, 57
5, 64874, Note_on_c, 9, 62, 0
5, 64874, Note_on_c, 9, 70, 0
5, 64889, Note_on_c, 9, 70, 70
5, 64889, Note_on_c, 9, 66, 59
5, 64903, Note_on_c, 9, 66, 0
5, 64904, Note_on_c, 9, 70, 0
5, 64919, Note_on_c, 9, 70, 80
5, 64919, Note_on_c, 9, 62, 120
5, 64923, Note_on_c, 9, 67, 27
5, 64934, Note_on_c, 9, 62, 0
5, 64934, Note_on_c, 9, 70, 0
5, 64948, Note_on_c, 9, 67, 0
5, 64979, Note_on_c, 9, 70, 60
5, 64979, Note_on_c, 9, 60, 50
5, 64979, Note_on_c, 9, 56, 48
5, 64979, Note_on_c, 9, 36, 60
5, 64979, Note_on_c, 9, 67, 28
5, 64994, Note_on_c, 9, 36, 0
5, 64994, Note_on_c, 9, 56, 0
5, 64994, Note_on_c, 9, 70, 0
5, 64994, Note_on_c, 9, 60, 0
5, 65008, Note_on_c, 9, 67, 0
5, 65039, Note_on_c, 9, 70, 80
5, 65039, Note_on_c, 9, 61, 50
5, 65039, Note_on_c, 9, 56, 70
5, 65053, Note_on_c, 9, 56, 0
5, 65054, Note_on_c, 9, 61, 0
5, 65054, Note_on_c, 9, 70, 0
5, 65099, Note_on_c, 9, 70, 60
5, 65099, Note_on_c, 9, 61, 50
5, 65114, Note_on_c, 9, 61, 0
5, 65114, Note_on_c, 9, 70, 0
5, 65151, Note_on_c, 9, 68, 36
5, 65159, Note_on_c, 9, 70, 80
5, 65159, Note_on_c, 9, 64, 120
5, 65159, Note_on_c, 9, 36, 60
5, 65174, Note_on_c, 9, 36, 0
5, 65174, Note_on_c, 9, 68, 0
5, 65174, Note_on_c, 9, 70, 0
5, 65174, Note_on_c, 9, 64, 0
5, 65216, Note_on_c, 9, 68, 52
5, 65219, Note_on_c, 9, 70, 60
5, 65219, Note_on_c, 9, 64, 120
5, 65219, Note_on_c, 9, 56, 48
5, 65234, Note_on_c, 9, 56, 0
5, 65234, Note_on_c, 9, 64, 0
5, 65234, Note_on_c, 9, 70, 0
5, 65276, Note_on_c, 9, 68, 0
5, 65279, Note_on_c, 9, 70, 80
5, 65279, Note_on_c, 9, 60, 50
5, 65279, Note_on_c, 9, 56, 70
5, 65294, Note_on_c, 9, 56, 0
5, 65294, Note_on_c, 9, 60, 0
5, 65294, Note_on_c, 9, 70, 0
5, 65339, Note_on_c, 9, 62, 57
5, 65339, Note_on_c, 9, 70, 60
5, 65354, Note_on_c, 9, 70, 0
5, 65354, Note_on_c, 9, 62, 0
5, 65369, Note_on_c, 9, 65, 44
5, 65369, Note_on_c, 9, 70, 70
5, 65384, Note_on_c, 9, 70, 0
5, 65392, Note_on_c, 9, 65, 0
5, 65399, Note_on_c, 9, 62, 120
5, 65399, Note_on_c, 9, 66, 67
5, 65399, Note_on_c, 9, 70, 60
5, 65400, Note_on_c, 9, 67, 21
5, 65414, Note_on_c, 9, 70, 0
5, 65414, Note_on_c, 9, 62, 0
5, 65417, Note_on_c, 9, 66, 0
5, 65418, Note_on_c, 9, 67, 0
5, 65459, Note_on_c, 9, 36, 60
5, 65459, Note_on_c, 9, 56, 48
5, 65459, Note_on_c, 9, 61, 50
5, 65459, Note_on_c, 9, 70, 60
5, 65471, Note_on_c, 9, 67, 39
5, 65474, Note_on_c, 9, 70, 0
5, 65474, Note_on_c, 9, 61, 0
5, 65474, Note_on_c, 9, 36, 0
5, 65474, Note_on_c, 9, 56, 0
5, 65510, Note_on_c, 9, 67, 0
5, 65519, Note_on_c, 9, 56, 70
5, 65519, Note_on_c, 9, 60, 50
5, 65519, Note_on_c, 9, 70, 80
5, 65534, Note_on_c, 9, 70, 0
5, 65534, Note_on_c, 9, 60, 0
5, 65534, Note_on_c, 9, 56, 0
5, 65579, Note_on_c, 9, 60, 50
5, 65579, Note_on_c, 9, 70, 60
5, 65589, Note_on_c, 9, 67, 20
5, 65594, Note_on_c, 9, 70, 0
5, 65594, Note_on_c, 9, 60, 0
5, 65607, Note_on_c, 9, 67, 0
5, 65639, Note_on_c, 9, 36, 60
5, 65639, Note_on_c, 9, 64, 120
5, 65639, Note_on_c, 9, 70, 80
5, 65649, Note_on_c, 9, 68, 21
5, 65654, Note_on_c, 9, 70, 0
5, 65654, Note_on_c, 9, 36, 0
5, 65654, Note_on_c, 9, 64, 0
5, 65665, Note_on_c, 9, 68, 0
5, 65699, Note_on_c, 9, 56, 48
5, 65699, Note_on_c, 9, 64, 120
5, 65699, Note_on_c, 9, 70, 60
5, 65713, Note_on_c, 9, 56, 0
5, 65714, Note_on_c, 9, 70, 0
5, 65714, Note_on_c, 9, 64, 0
5, 65760, Program_c, 9, 0
5, 65761, Note_on_c, 9, 56, 70
5, 65761, Note_on_c, 9, 60, 50
5, 65761, Note_on_c, 9, 70, 80
5, 65775, Note_on_c, 9, 70, 0
5, 65775, Note_on_c, 9, 60, 0
5, 65776, Note_on_c, 9, 56, 0
5, 65819, Note_on_c, 9, 62, 57
5, 65819, Note_on_c, 9, 65, 37
5, 65819, Note_on_c, 9, 70, 60
5, 65834, Note_on_c, 9, 70, 0
5, 65834, Note_on_c, 9, 62, 0
5, 65841, Note_on_c, 9, 65, 0
5, 65849, Note_on_c, 9, 70, 70
5, 65864, Note_on_c, 9, 70, 0
5, 65879, Note_on_c, 9, 62, 120
5, 65879, Note_on_c, 9, 66, 72
5, 65879, Note_on_c, 9, 70, 80
5, 65894, Note_on_c, 9, 70, 0
5, 65894, Note_on_c, 9, 62, 0
5, 65899, Note_on_c, 9, 66, 0
5, 65939, Note_on_c, 9, 36, 60
5, 65939, Note_on_c, 9, 56, 48
5, 65939, Note_on_c, 9, 60, 50
5, 65939, Note_on_c, 9, 70, 60
5, 65954, Note_on_c, 9, 70, 0
5, 65954, Note_on_c, 9, 36, 0
5, 65954, Note_on_c, 9, 56, 0
5, 65954, Note_on_c, 9, 60, 0
5, 65999, Note_on_c, 9, 56, 70
5, 65999, Note_on_c, 9, 61, 50
5, 65999, Note_on_c, 9, 70, 80
5, 66014, Note_on_c, 9, 70, 0
5, 66014, Note_on_c, 9, 61, 0
5, 66014, Note_on_c, 9, 56, 0
5, 66059, Note_on_c, 9, 61, 50
5, 66059, Note_on_c, 9, 70, 60
5, 66074, Note_on_c, 9, 70, 0
5, 66074, Note_on_c, 9, 61, 0
5, 66119, Note_on_c, 9, 36, 60
5, 66119, Note_on_c, 9, 64, 120
5, 66119, Note_on_c, 9, 70, 80
5, 66134, Note_on_c, 9, 70, 0
5, 66134, Note_on_c, 9, 64, 0
5, 66134, Note_on_c, 9, 36, 0
5, 66179, Note_on_c, 9, 56, 48
5, 66179, Note_on_c, 9, 64, 120
5, 66179, Note_on_c, 9, 70, 60
5, 66194, Note_on_c, 9, 70, 0
5, 66194, Note_on_c, 9, 64, 0
5, 66194, Note_on_c, 9, 56, 0
5, 66235, Note_on_c, 9, 59, 39
5, 66239, Note_on_c, 9, 56, 70
5, 66239, Note_on_c, 9, 60, 50
5, 66239, Note_on_c, 9, 70, 80
5, 66246, Note_on_c, 9, 59, 0
5, 66254, Note_on_c, 9, 56, 0
5, 66254, Note_on_c, 9, 60, 0
5, 66254, Note_on_c, 9, 70, 0
5, 66299, Note_on_c, 9, 62, 57
5, 66299, Note_on_c, 9, 70, 60
5, 66314, Note_on_c, 9, 70, 0
5, 66314, Note_on_c, 9, 62, 0
5, 66329, Note_on_c, 9, 70, 70
5, 66344, Note_on_c, 9, 70, 0
5, 66356, Note_on_c, 9, 59, 57
5, 66359, Note_on_c, 9, 62, 120
5, 66359, Note_on_c, 9, 70, 60
5, 66368, Note_on_c, 9, 59, 0
5, 66373, Note_on_c, 9, 70, 0
5, 66374, Note_on_c, 9, 62, 0
5, 66419, Note_on_c, 9, 36, 60
5, 66419, Note_on_c, 9, 56, 48
5, 66419, Note_on_c, 9, 61, 50
5, 66419, Note_on_c, 9, 70, 60
5, 66434, Note_on_c, 9, 70, 0
5, 66434, Note_on_c, 9, 36, 0
5, 66434, Note_on_c, 9, 56, 0
5, 66434, Note_on_c, 9, 61, 0
5, 66475, Note_on_c, 9, 59, 44
5, 66479, Note_on_c, 9, 56, 70
5, 66479, Note_on_c, 9, 60, 50
5, 66479, Note_on_c, 9, 70, 80
5, 66487, Note_on_c, 9, 59, 0
5, 66494, Note_on_c, 9, 56, 0
5, 66494, Note_on_c, 9, 60, 0
5, 66494, Note_on_c, 9, 70, 0
5, 66537, Note_on_c, 9, 59, 48
5, 66539, Note_on_c, 9, 60, 50
5, 66539, Note_on_c, 9, 70, 60
5, 66554, Note_on_c, 9, 70, 0
5, 66554, Note_on_c, 9, 60, 0
5, 66555, Note_on_c, 9, 59, 0
5, 66599, Note_on_c, 9, 36, 60
5, 66599, Note_on_c, 9, 64, 120
5, 66599, Note_on_c, 9, 70, 80
5, 66614, Note_on_c, 9, 70, 0
5, 66614, Note_on_c, 9, 64, 0
5, 66614, Note_on_c, 9, 36, 0
5, 66659, Note_on_c, 9, 56, 48
5, 66659, Note_on_c, 9, 64, 120
5, 66659, Note_on_c, 9, 70, 60
5, 66668, Note_on_c, 9, 59, 64
5, 66674, Note_on_c, 9, 70, 0
5, 66674, Note_on_c, 9, 56, 0
5, 66674, Note_on_c, 9, 64, 0
5, 66690, Note_on_c, 9, 59, 0
5, 66720, Note_on_c, 9, 70, 80
5, 66720, Note_on_c, 9, 60, 50
5, 66721, Note_on_c, 9, 56, 70
5, 66734, Note_on_c, 9, 60, 0
5, 66734, Note_on_c, 9, 70, 0
5, 66735, Note_on_c, 9, 56, 0
5, 66779, Note_on_c, 9, 62, 57
5, 66779, Note_on_c, 9, 65, 37
5, 66779, Note_on_c, 9, 70, 60
5, 66789, Note_on_c, 9, 59, 43
5, 66794, Note_on_c, 9, 70, 0
5, 66794, Note_on_c, 9, 62, 0
5, 66802, Note_on_c, 9, 59, 0
5, 66809, Note_on_c, 9, 70, 70
5, 66810, Note_on_c, 9, 65, 0
5, 66824, Note_on_c, 9, 70, 0
5, 66839, Note_on_c, 9, 62, 120
5, 66839, Note_on_c, 9, 66, 71
5, 66839, Note_on_c, 9, 70, 80
5, 66854, Note_on_c, 9, 70, 0
5, 66854, Note_on_c, 9, 62, 0
5, 66860, Note_on_c, 9, 66, 0
5, 66899, Note_on_c, 9, 36, 60
5, 66899, Note_on_c, 9, 56, 48
5, 66899, Note_on_c, 9, 60, 50
5, 66899, Note_on_c, 9, 70, 60
5, 66911, Note_on_c, 9, 53, 50
5, 66914, Note_on_c, 9, 70, 0
5, 66914, Note_on_c, 9, 60, 0
5, 66914, Note_on_c, 9, 36, 0
5, 66914, Note_on_c, 9, 56, 0
5, 66922, Note_on_c, 9, 53, 0
5, 66959, Note_on_c, 9, 56, 70
5, 66959, Note_on_c, 9, 61, 50
5, 66959, Note_on_c, 9, 70, 80
5, 66970, Note_on_c, 9, 53, 37
5, 66974, Note_on_c, 9, 70, 0
5, 66974, Note_on_c, 9, 56, 0
5, 66974, Note_on_c, 9, 61, 0
5, 66996, Note_on_c, 9, 53, 0
5, 67019, Note_on_c, 9, 61, 50
5, 67019, Note_on_c, 9, 70, 60
5, 67034, Note_on_c, 9, 70, 0
5, 67034, Note_on_c, 9, 61, 0
5, 67079, Note_on_c, 9, 36, 60
5, 67079, Note_on_c, 9, 64, 120
5, 67079, Note_on_c, 9, 70, 80
5, 67094, Note_on_c, 9, 70, 0
5, 67094, Note_on_c, 9, 64, 0
5, 67094, Note_on_c, 9, 36, 0
5, 67139, Note_on_c, 9, 56, 48
5, 67139, Note_on_c, 9, 64, 120
5, 67139, Note_on_c, 9, 70, 60
5, 67154, Note_on_c, 9, 70, 0
5, 67154, Note_on_c, 9, 64, 0
5, 67154, Note_on_c, 9, 56, 0
5, 67154, Note_on_c, 9, 53, 47
5, 67166, Note_on_c, 9, 53, 0
5, 67199, Note_on_c, 9, 56, 70
5, 67199, Note_on_c, 9, 60, 50
5, 67199, Note_on_c, 9, 70, 80
5, 67214, Note_on_c, 9, 70, 0
5, 67214, Note_on_c, 9, 60, 0
5, 67214, Note_on_c, 9, 56, 0
5, 67259, Note_on_c, 9, 62, 57
5, 67259, Note_on_c, 9, 70, 60
5, 67274, Note_on_c, 9, 70, 0
5, 67274, Note_on_c, 9, 62, 0
5, 67277, Note_on_c, 9, 53, 43
5, 67289, Note_on_c, 9, 53, 0
5, 67289, Note_on_c, 9, 70, 70
5, 67304, Note_on_c, 9, 70, 0
5, 67319, Note_on_c, 9, 62, 120
5, 67319, Note_on_c, 9, 70, 60
5, 67334, Note_on_c, 9, 70, 0
5, 67334, Note_on_c, 9, 62, 0
5, 67379, Note_on_c, 9, 36, 60
5, 67379, Note_on_c, 9, 56, 48
5, 67379, Note_on_c, 9, 61, 50
5, 67379, Note_on_c, 9, 70, 60
5, 67389, Note_on_c, 9, 53, 55
5, 67394, Note_on_c, 9, 70, 0
5, 67394, Note_on_c, 9, 61, 0
5, 67394, Note_on_c, 9, 36, 0
5, 67394, Note_on_c, 9, 56, 0
5, 67401, Note_on_c, 9, 53, 0
5, 67439, Note_on_c, 9, 56, 70
5, 67439, Note_on_c, 9, 60, 50
5, 67439, Note_on_c, 9, 70, 80
5, 67449, Note_on_c, 9, 53, 48
5, 67454, Note_on_c, 9, 70, 0
5, 67454, Note_on_c, 9, 56, 0
5, 67454, Note_on_c, 9, 60, 0
5, 67461, Note_on_c, 9, 53, 0
5, 67499, Note_on_c, 9, 60, 50
5, 67499, Note_on_c, 9, 70, 60
5, 67514, Note_on_c, 9, 70, 0
5, 67514, Note_on_c, 9, 60, 0
5, 67559, Note_on_c, 9, 36, 60
5, 67559, Note_on_c, 9, 64, 120
5, 67559, Note_on_c, 9, 70, 80
5, 67561, Note_on_c, 9, 51, 40
5, 67574, Note_on_c, 9, 70, 0
5, 67574, Note_on_c, 9, 36, 0
5, 67574, Note_on_c, 9, 64, 0
5, 67585, Note_on_c, 9, 51, 0
5, 67619, Note_on_c, 9, 56, 48
5, 67619, Note_on_c, 9, 64, 120
5, 67619, Note_on_c, 9, 70, 60
5, 67634, Note_on_c, 9, 70, 0
5, 67634, Note_on_c, 9, 64, 0
5, 67634, Note_on_c, 9, 56, 0
5, 67680, Program_c, 9, 0
5, 67681, Note_on_c, 9, 56, 70
5, 67681, Note_on_c, 9, 60, 50
5, 67681, Note_on_c, 9, 70, 80
5, 67695, Note_on_c, 9, 70, 0
5, 67695, Note_on_c, 9, 60, 0
5, 67696, Note_on_c, 9, 56, 0
5, 67739, Note_on_c, 9, 62, 57
5, 67739, Note_on_c, 9, 70, 60
5, 67754, Note_on_c, 9, 70, 0
5, 67754, Note_on_c, 9, 62, 0
5, 67769, Note_on_c, 9, 70, 70
5, 67784, Note_on_c, 9, 70, 0
5, 67799, Note_on_c, 9, 62, 120
5, 67799, Note_on_c, 9, 70, 80
5, 67814, Note_on_c, 9, 70, 0
5, 67814, Note_on_c, 9, 62, 0
5, 67859, Note_on_c, 9, 36, 60
5, 67859, Note_on_c, 9, 56, 48
5, 67859, Note_on_c, 9, 60, 50
5, 67859, Note_on_c, 9, 70, 60
5, 67863, Note_on_c, 9, 51, 31
5, 67874, Note_on_c, 9, 70, 0
5, 67874, Note_on_c, 9, 60, 0
5, 67874, Note_on_c, 9, 36, 0
5, 67874, Note_on_c, 9, 56, 0
5, 67875, Note_on_c, 9, 51, 0
5, 67919, Note_on_c, 9, 56, 70
5, 67919, Note_on_c, 9, 61, 50
5, 67919, Note_on_c, 9, 70, 80
5, 67925, Note_on_c, 9, 51, 45
5, 67934, Note_on_c, 9, 70, 0
5, 67934, Note_on_c, 9, 56, 0
5, 67934, Note_on_c, 9, 61, 0
5, 67952, Note_on_c, 9, 51, 0
5, 67979, Note_on_c, 9, 61, 50
5, 67979, Note_on_c, 9, 70, 60
5, 67994, Note_on_c, 9, 70, 0
5, 67994, Note_on_c, 9, 61, 0
5, 68039, Note_on_c, 9, 36, 60
5, 68039, Note_on_c, 9, 64, 120
5, 68039, Note_on_c, 9, 70, 80
5, 68054, Note_on_c, 9, 70, 0
5, 68054, Note_on_c, 9, 64, 0
5, 68054, Note_on_c, 9, 36, 0
5, 68099, Note_on_c, 9, 56, 48
5, 68099, Note_on_c, 9, 64, 120
5, 68099, Note_on_c, 9, 70, 60
5, 68114, Note_on_c, 9, 70, 0
5, 68114, Note_on_c, 9, 64, 0
5, 68114, Note_on_c, 9, 56, 0
5, 68118, Note_on_c, 9, 51, 46
5, 68139, Note_on_c, 9, 51, 0
5, 68159, Note_on_c, 9, 56, 70
5, 68159, Note_on_c, 9, 60, 50
5, 68159, Note_on_c, 9, 70, 80
5, 68174, Note_on_c, 9, 70, 0
5, 68174, Note_on_c, 9, 60, 0
5, 68174, Note_on_c, 9, 56, 0
5, 68176, Note_on_c, 9, 51, 50
5, 68200, Note_on_c, 9, 51, 0
5, 68219, Note_on_c, 9, 62, 57
5, 68219, Note_on_c, 9, 70, 60
5, 68234, Note_on_c, 9, 70, 0
5, 68234, Note_on_c, 9, 62, 0
5, 68249, Note_on_c, 9, 70, 70
5, 68264, Note_on_c, 9, 70, 0
5, 68279, Note_on_c, 9, 62, 120
5, 68279, Note_on_c, 9, 70, 60
5, 68294, Note_on_c, 9, 70, 0
5, 68294, Note_on_c, 9, 62, 0
5, 68339, Note_on_c, 9, 36, 60
5, 68339, Note_on_c, 9, 56, 48
5, 68339, Note_on_c, 9, 61, 50
5, 68339, Note_on_c, 9, 70, 60
5, 68352, Note_on_c, 9, 53, 59
5, 68353, Note_on_c, 9, 56, 0
5, 68353, Note_on_c, 9, 36, 0
5, 68354, Note_on_c, 9, 70, 0
5, 68354, Note_on_c, 9, 61, 0
5, 68376, Note_on_c, 9, 53, 0
5, 68399, Note_on_c, 9, 56, 70
5, 68399, Note_on_c, 9, 60, 50
5, 68399, Note_on_c, 9, 70, 80
5, 68414, Note_on_c, 9, 70, 0
5, 68414, Note_on_c, 9, 60, 0
5, 68414, Note_on_c, 9, 56, 0
5, 68459, Note_on_c, 9, 60, 50
5, 68459, Note_on_c, 9, 70, 60
5, 68469, Note_on_c, 9, 51, 37
5, 68474, Note_on_c, 9, 70, 0
5, 68474, Note_on_c, 9, 60, 0
5, 68484, Note_on_c, 9, 51, 0
5, 68519, Note_on_c, 9, 36, 60
5, 68519, Note_on_c, 9, 64, 120
5, 68519, Note_on_c, 9, 70, 80
5, 68528, Note_on_c, 9, 51, 39
5, 68534, Note_on_c, 9, 70, 0
5, 68534, Note_on_c, 9, 36, 0
5, 68534, Note_on_c, 9, 64, 0
5, 68545, Note_on_c, 9, 51, 0
5, 68579, Note_on_c, 9, 56, 48
5, 68579, Note_on_c, 9, 64, 120
5, 68579, Note_on_c, 9, 70, 60
5, 68594, Note_on_c, 9, 70, 0
5, 68594, Note_on_c, 9, 64, 0
5, 68594, Note_on_c, 9, 56, 0
5, 68640, Note_on_c, 9, 70, 80
5, 68640, Note_on_c, 9, 60, 50
5, 68640, Note_on_c, 9, 56, 70
5, 68644, Note_on_c, 9, 51, 59
5, 68654, Note_on_c, 9, 56, 0
5, 68654, Note_on_c, 9, 70, 0
5, 68654, Note_on_c, 9, 60, 0
5, 68669, Note_on_c, 9, 51, 0
5, 68699, Note_on_c, 9, 62, 57
5, 68699, Note_on_c, 9, 70, 60
5, 68714, Note_on_c, 9, 70, 0
5, 68714, Note_on_c, 9, 62, 0
5, 68729, Note_on_c, 9, 70, 70
5, 68744, Note_on_c, 9, 70, 0
5, 68759, Note_on_c, 9, 62, 120
5, 68759, Note_on_c, 9, 70, 80
5, 68774, Note_on_c, 9, 70, 0
5, 68774, Note_on_c, 9, 62, 0
5, 68819, Note_on_c, 9, 36, 60
5, 68819, Note_on_c, 9, 56, 48
5, 68819, Note_on_c, 9, 60, 50
5, 68819, Note_on_c, 9, 70, 60
5, 68822, Note_on_c, 9, 51, 44
5, 68834, Note_on_c, 9, 70, 0
5, 68834, Note_on_c, 9, 60, 0
5, 68834, Note_on_c, 9, 36, 0
5, 68834, Note_on_c, 9, 56, 0
5, 68836, Note_on_c, 9, 51, 0
5, 68879, Note_on_c, 9, 56, 70
5, 68879, Note_on_c, 9, 61, 50
5, 68879, Note_on_c, 9, 70, 80
5, 68883, Note_on_c, 9, 51, 50
5, 68894, Note_on_c, 9, 70, 0
5, 68894, Note_on_c, 9, 56, 0
5, 68894, Note_on_c, 9, 61, 0
5, 68907, Note_on_c, 9, 51, 0
5, 68939, Note_on_c, 9, 61, 50
5, 68939, Note_on_c, 9, 70, 60
5, 68954, Note_on_c, 9, 70, 0
5, 68954, Note_on_c, 9, 61, 0
5, 68999, Note_on_c, 9, 36, 60
5, 68999, Note_on_c, 9, 64, 120
5, 68999, Note_on_c, 9, 70, 80
5, 69013, Note_on_c, 9, 36, 0
5, 69014, Note_on_c, 9, 70, 0
5, 69014, Note_on_c, 9, 64, 0
5, 69059, Note_on_c, 9, 56, 48
5, 69059, Note_on_c, 9, 64, 120
5, 69059, Note_on_c, 9, 70, 60
5, 69068, Note_on_c, 9, 51, 54
5, 69074, Note_on_c, 9, 70, 0
5, 69074, Note_on_c, 9, 56, 0
5, 69074, Note_on_c, 9, 64, 0
5, 69090, Note_on_c, 9, 51, 0
5, 69119, Note_on_c, 9, 56, 70
5, 69119, Note_on_c, 9, 60, 50
5, 69119, Note_on_c, 9, 70, 80
5, 69134, Note_on_c, 9, 70, 0
5, 69134, Note_on_c, 9, 60, 0
5, 69134, Note_on_c, 9, 56, 0
5, 69179, Note_on_c, 9, 62, 57
5, 69179, Note_on_c, 9, 70, 60
5, 69194, Note_on_c, 9, 70, 0
5, 69194, Note_on_c, 9, 62, 0
5, 69209, Note_on_c, 9, 70, 70
5, 69224, Note_on_c, 9, 70, 0
5, 69239, Note_on_c, 9, 62, 120
5, 69239, Note_on_c, 9, 70, 60
5, 69254, Note_on_c, 9, 70, 0
5, 69254, Note_on_c, 9, 62, 0
5, 69299, Note_on_c, 9, 51, 19
5, 69299, Note_on_c, 9, 36, 60
5, 69299, Note_on_c, 9, 56, 48
5, 69299, Note_on_c, 9, 61, 50
5, 69299, Note_on_c, 9, 70, 60
5, 69311, Note_on_c, 9, 51, 0
5, 69314, Note_on_c, 9, 61, 0
5, 69314, Note_on_c, 9, 36, 0
5, 69314, Note_on_c, 9, 56, 0
5, 69314, Note_on_c, 9, 70, 0
5, 69354, Note_on_c, 9, 53, 15
5, 69359, Note_on_c, 9, 56, 70
5, 69359, Note_on_c, 9, 60, 50
5, 69359, Note_on_c, 9, 70, 80
5, 69368, Note_on_c, 9, 53, 0
5, 69374, Note_on_c, 9, 56, 0
5, 69374, Note_on_c, 9, 60, 0
5, 69374, Note_on_c, 9, 70, 0
5, 69419, Note_on_c, 9, 70, 60
5, 69419, Note_on_c, 9, 60, 50
5, 69434, Note_on_c, 9, 60, 0
5, 69434, Note_on_c, 9, 70, 0
5, 69479, Note_on_c, 9, 70, 80
5, 69479, Note_on_c, 9, 64, 120
5, 69479, Note_on_c, 9, 36, 60
5, 69494, Note_on_c, 9, 36, 0
5, 69494, Note_on_c, 9, 64, 0
5, 69494, Note_on_c, 9, 70, 0
5, 69539, Note_on_c, 9, 70, 60
5, 69539, Note_on_c, 9, 64, 120
5, 69539, Note_on_c, 9, 56, 48
5, 69544, Note_on_c, 9, 53, 35
5, 69554, Note_on_c, 9, 56, 0
5, 69554, Note_on_c, 9, 70, 0
5, 69554, Note_on_c, 9, 64, 0
5, 69555, Note_on_c, 9, 53, 0
5, 69595, Note_on_c, 9, 53, 51
5, 69600, Program_c, 9, 0
5, 69601, Note_on_c, 9, 70, 80
5, 69601, Note_on_c, 9, 60, 50
5, 69601, Note_on_c, 9, 56, 70
5, 69615, Note_on_c, 9, 56, 0
5, 69615, Note_on_c, 9, 60, 0
5, 69615, Note_on_c, 9, 70, 0
5, 69633, Note_on_c, 9, 53, 0
5, 69659, Note_on_c, 9, 70, 60
5, 69659, Note_on_c, 9, 62, 57
5, 69673, Note_on_c, 9, 62, 0
5, 69673, Note_on_c, 9, 70, 0
5, 69689, Note_on_c, 9, 70, 70
5, 69704, Note_on_c, 9, 70, 0
5, 69719, Note_on_c, 9, 70, 80
5, 69719, Note_on_c, 9, 62, 120
5, 69734, Note_on_c, 9, 62, 0
5, 69734, Note_on_c, 9, 70, 0
5, 69779, Note_on_c, 9, 70, 60
5, 69779, Note_on_c, 9, 60, 50
5, 69779, Note_on_c, 9, 56, 48
5, 69779, Note_on_c, 9, 36, 60
5, 69788, Note_on_c, 9, 53, 47
5, 69794, Note_on_c, 9, 36, 0
5, 69794, Note_on_c, 9, 56, 0
5, 69794, Note_on_c, 9, 70, 0
5, 69794, Note_on_c, 9, 60, 0
5, 69800, Note_on_c, 9, 53, 0
5, 69839, Note_on_c, 9, 70, 80
5, 69839, Note_on_c, 9, 61, 50
5, 69839, Note_on_c, 9, 56, 70
5, 69854, Note_on_c, 9, 56, 0
5, 69854, Note_on_c, 9, 61, 0
5, 69854, Note_on_c, 9, 70, 0
5, 69899, Note_on_c, 9, 70, 60
5, 69899, Note_on_c, 9, 61, 50
5, 69914, Note_on_c, 9, 61, 0
5, 69914, Note_on_c, 9, 70, 0
5, 69959, Note_on_c, 9, 70, 80
5, 69959, Note_on_c, 9, 64, 120
5, 69959, Note_on_c, 9, 36, 60
5, 69963, Note_on_c, 9, 53, 61
5, 69974, Note_on_c, 9, 36, 0
5, 69974, Note_on_c, 9, 70, 0
5, 69974, Note_on_c, 9, 64, 0
5, 69990, Note_on_c, 9, 53, 0
5, 70019, Note_on_c, 9, 70, 60
5, 70019, Note_on_c, 9, 64, 120
5, 70019, Note_on_c, 9, 56, 48
5, 70034, Note_on_c, 9, 56, 0
5, 70034, Note_on_c, 9, 64, 0
5, 70034, Note_on_c, 9, 70, 0
5, 70079, Note_on_c, 9, 70, 80
5, 70079, Note_on_c, 9, 60, 50
5, 70079, Note_on_c, 9, 56, 70
5, 70094, Note_on_c, 9, 56, 0
5, 70094, Note_on_c, 9, 60, 0
5, 70094, Note_on_c, 9, 70, 0
5, 70139, Note_on_c, 9, 70, 60
5, 70139, Note_on_c, 9, 62, 57
5, 70154, Note_on_c, 9, 62, 0
5, 70154, Note_on_c, 9, 70, 0
5, 70169, Note_on_c, 9, 70, 70
5, 70184, Note_on_c, 9, 70, 0
5, 70199, Note_on_c, 9, 70, 60
5, 70199, Note_on_c, 9, 62, 120
5, 70214, Note_on_c, 9, 62, 0
5, 70214, Note_on_c, 9, 70, 0
5, 70259, Note_on_c, 9, 70, 60
5, 70259, Note_on_c, 9, 61, 50
5, 70259, Note_on_c, 9, 56, 48
5, 70259, Note_on_c, 9, 36, 60
5, 70267, Note_on_c, 9, 53, 28
5, 70274, Note_on_c, 9, 36, 0
5, 70274, Note_on_c, 9, 56, 0
5, 70274, Note_on_c, 9, 70, 0
5, 70274, Note_on_c, 9, 61, 0
5, 70280, Note_on_c, 9, 53, 0
5, 70319, Note_on_c, 9, 70, 80
5, 70319, Note_on_c, 9, 60, 50
5, 70319, Note_on_c, 9, 56, 70
5, 70328, Note_on_c, 9, 53, 46
5, 70333, Note_on_c, 9, 56, 0
5, 70333, Note_on_c, 9, 70, 0
5, 70334, Note_on_c, 9, 60, 0
5, 70361, Note_on_c, 9, 53, 0
5, 70379, Note_on_c, 9, 70, 60
5, 70379, Note_on_c, 9, 60, 50
5, 70394, Note_on_c, 9, 60, 0
5, 70394, Note_on_c, 9, 70, 0
5, 70439, Note_on_c, 9, 70, 80
5, 70439, Note_on_c, 9, 64, 120
5, 70439, Note_on_c, 9, 36, 60
5, 70440, Note_on_c, 9, 51, 41
5, 70454, Note_on_c, 9, 36, 0
5, 70454, Note_on_c, 9, 70, 0
5, 70454, Note_on_c, 9, 64, 0
5, 70494, Note_on_c, 9, 51, 0
5, 70499, Note_on_c, 9, 70, 60
5, 70499, Note_on_c, 9, 64, 120
5, 70499, Note_on_c, 9, 56, 48
5, 70514, Note_on_c, 9, 56, 0
5, 70514, Note_on_c, 9, 64, 0
5, 70514, Note_on_c, 9, 70, 0
5, 70560, Note_on_c, 9, 56, 70
5, 70560, Note_on_c, 9, 60, 50
5, 70560, Note_on_c, 9, 70, 80
5, 70574, Note_on_c, 9, 70, 0
5, 70574, Note_on_c, 9, 60, 0
5, 70574, Note_on_c, 9, 56, 0
5, 70619, Note_on_c, 9, 70, 60
5, 70619, Note_on_c, 9, 62, 57
5, 70634, Note_on_c, 9, 62, 0
5, 70634, Note_on_c, 9, 70, 0
5, 70649, Note_on_c, 9, 70, 70
5, 70649, Note_on_c, 9, 65, 74
5, 70664, Note_on_c, 9, 70, 0
5, 70674, Note_on_c, 9, 65, 0
5, 70679, Note_on_c, 9, 70, 80
5, 70679, Note_on_c, 9, 62, 120
5, 70694, Note_on_c, 9, 62, 0
5, 70694, Note_on_c, 9, 70, 0
5, 70730, Note_on_c, 9, 53, 42
5, 70739, Note_on_c, 9, 70, 60
5, 70739, Note_on_c, 9, 60, 50
5, 70739, Note_on_c, 9, 56, 48
5, 70739, Note_on_c, 9, 36, 60
5, 70752, Note_on_c, 9, 53, 0
5, 70754, Note_on_c, 9, 56, 0
5, 70754, Note_on_c, 9, 70, 0
5, 70754, Note_on_c, 9, 60, 0
5, 70754, Note_on_c, 9, 36, 0
5, 70792, Note_on_c, 9, 53, 41
5, 70799, Note_on_c, 9, 70, 80
5, 70799, Note_on_c, 9, 61, 50
5, 70799, Note_on_c, 9, 56, 70
5, 70814, Note_on_c, 9, 56, 0
5, 70814, Note_on_c, 9, 61, 0
5, 70814, Note_on_c, 9, 70, 0
5, 70833, Note_on_c, 9, 53, 0
5, 70859, Note_on_c, 9, 70, 60
5, 70859, Note_on_c, 9, 65, 74
5, 70859, Note_on_c, 9, 61, 50
5, 70874, Note_on_c, 9, 61, 0
5, 70874, Note_on_c, 9, 70, 0
5, 70887, Note_on_c, 9, 65, 0
5, 70919, Note_on_c, 9, 70, 80
5, 70919, Note_on_c, 9, 64, 120
5, 70919, Note_on_c, 9, 36, 60
5, 70934, Note_on_c, 9, 36, 0
5, 70934, Note_on_c, 9, 64, 0
5, 70934, Note_on_c, 9, 70, 0
5, 70979, Note_on_c, 9, 70, 60
5, 70979, Note_on_c, 9, 64, 120
5, 70979, Note_on_c, 9, 56, 48
5, 70986, Note_on_c, 9, 53, 37
5, 70994, Note_on_c, 9, 56, 0
5, 70994, Note_on_c, 9, 70, 0
5, 70994, Note_on_c, 9, 64, 0
5, 70998, Note_on_c, 9, 53, 0
5, 71039, Note_on_c, 9, 70, 80
5, 71039, Note_on_c, 9, 65, 81
5, 71039, Note_on_c, 9, 60, 50
5, 71039, Note_on_c, 9, 56, 70
5, 71042, Note_on_c, 9, 53, 45
5, 71054, Note_on_c, 9, 56, 0
5, 71054, Note_on_c, 9, 60, 0
5, 71054, Note_on_c, 9, 70, 0
5, 71068, Note_on_c, 9, 65, 0
5, 71078, Note_on_c, 9, 53, 0
5, 71099, Note_on_c, 9, 70, 60
5, 71099, Note_on_c, 9, 62, 57
5, 71114, Note_on_c, 9, 62, 0
5, 71114, Note_on_c, 9, 70, 0
5, 71129, Note_on_c, 9, 70, 70
5, 71144, Note_on_c, 9, 70, 0
5, 71159, Note_on_c, 9, 70, 60
5, 71159, Note_on_c, 9, 62, 120
5, 71174, Note_on_c, 9, 62, 0
5, 71174, Note_on_c, 9, 70, 0
5, 71219, Note_on_c, 9, 70, 60
5, 71219, Note_on_c, 9, 66, 72
5, 71219, Note_on_c, 9, 61, 50
5, 71219, Note_on_c, 9, 56, 48
5, 71219, Note_on_c, 9, 36, 60
5, 71223, Note_on_c, 9, 53, 44
5, 71234, Note_on_c, 9, 36, 0
5, 71234, Note_on_c, 9, 56, 0
5, 71234, Note_on_c, 9, 61, 0
5, 71234, Note_on_c, 9, 70, 0
5, 71239, Note_on_c, 9, 53, 0
5, 71243, Note_on_c, 9, 66, 0
5, 71279, Note_on_c, 9, 70, 80
5, 71279, Note_on_c, 9, 60, 50
5, 71279, Note_on_c, 9, 56, 70
5, 71280, Note_on_c, 9, 53, 27
5, 71294, Note_on_c, 9, 56, 0
5, 71294, Note_on_c, 9, 70, 0
5, 71294, Note_on_c, 9, 60, 0
5, 71298, Note_on_c, 9, 53, 0
5, 71339, Note_on_c, 9, 70, 60
5, 71339, Note_on_c, 9, 65, 81
5, 71339, Note_on_c, 9, 60, 50
5, 71354, Note_on_c, 9, 60, 0
5, 71354, Note_on_c, 9, 70, 0
5, 71365, Note_on_c, 9, 65, 0
5, 71399, Note_on_c, 9, 70, 80
5, 71399, Note_on_c, 9, 64, 120
5, 71399, Note_on_c, 9, 36, 60
5, 71403, Note_on_c, 9, 51, 46
5, 71414, Note_on_c, 9, 36, 0
5, 71414, Note_on_c, 9, 70, 0
5, 71414, Note_on_c, 9, 64, 0
5, 71430, Note_on_c, 9, 51, 0
5, 71459, Note_on_c, 9, 70, 60
5, 71459, Note_on_c, 9, 64, 120
5, 71459, Note_on_c, 9, 56, 48
5, 71474, Note_on_c, 9, 56, 0
5, 71474, Note_on_c, 9, 64, 0
5, 71474, Note_on_c, 9, 70, 0
5, 71520, Program_c, 9, 0
5, 71521, Note_on_c, 9, 70, 80
5, 71521, Note_on_c, 9, 60, 50
5, 71521, Note_on_c, 9, 56, 70
5, 71535, Note_on_c, 9, 56, 0
5, 71535, Note_on_c, 9, 60, 0
5, 71535, Note_on_c, 9, 70, 0
5, 71579, Note_on_c, 9, 70, 60
5, 71579, Note_on_c, 9, 62, 57
5, 71587, Note_on_c, 9, 53, 30
5, 71594, Note_on_c, 9, 62, 0
5, 71594, Note_on_c, 9, 70, 0
5, 71600, Note_on_c, 9, 53, 0
5, 71609, Note_on_c, 9, 70, 70
5, 71624, Note_on_c, 9, 70, 0
5, 71639, Note_on_c, 9, 70, 80
5, 71639, Note_on_c, 9, 62, 120
5, 71648, Note_on_c, 9, 53, 43
5, 71653, Note_on_c, 9, 62, 0
5, 71653, Note_on_c, 9, 70, 0
5, 71667, Note_on_c, 9, 53, 0
5, 71699, Note_on_c, 9, 70, 60
5, 71699, Note_on_c, 9, 60, 50
5, 71699, Note_on_c, 9, 56, 48
5, 71699, Note_on_c, 9, 36, 60
5, 71714, Note_on_c, 9, 36, 0
5, 71714, Note_on_c, 9, 70, 0
5, 71714, Note_on_c, 9, 60, 0
5, 71714, Note_on_c, 9, 56, 0
5, 71759, Note_on_c, 9, 70, 80
5, 71759, Note_on_c, 9, 61, 50
5, 71759, Note_on_c, 9, 56, 70
5, 71774, Note_on_c, 9, 56, 0
5, 71774, Note_on_c, 9, 61, 0
5, 71774, Note_on_c, 9, 70, 0
5, 71819, Note_on_c, 9, 70, 60
5, 71819, Note_on_c, 9, 61, 50
5, 71821, Note_on_c, 9, 53, 42
5, 71834, Note_on_c, 9, 53, 0
5, 71834, Note_on_c, 9, 61, 0
5, 71834, Note_on_c, 9, 70, 0
5, 71879, Note_on_c, 9, 70, 80
5, 71879, Note_on_c, 9, 64, 120
5, 71879, Note_on_c, 9, 36, 60
5, 71894, Note_on_c, 9, 36, 0
5, 71894, Note_on_c, 9, 64, 0
5, 71894, Note_on_c, 9, 70, 0
5, 71939, Note_on_c, 9, 70, 60
5, 71939, Note_on_c, 9, 64, 120
5, 71939, Note_on_c, 9, 56, 48
5, 71954, Note_on_c, 9, 56, 0
5, 71954, Note_on_c, 9, 64, 0
5, 71954, Note_on_c, 9, 70, 0
5, 71999, Note_on_c, 9, 70, 80
5, 71999, Note_on_c, 9, 60, 50
5, 71999, Note_on_c, 9, 56, 70
5, 72014, Note_on_c, 9, 56, 0
5, 72014, Note_on_c, 9, 60, 0
5, 72014, Note_on_c, 9, 70, 0
5, 72059, Note_on_c, 9, 70, 60
5, 72059, Note_on_c, 9, 62, 57
5, 72074, Note_on_c, 9, 62, 0
5, 72074, Note_on_c, 9, 70, 0
5, 72075, Note_on_c, 9, 53, 32
5, 72087, Note_on_c, 9, 53, 0
5, 72089, Note_on_c, 9, 70, 70
5, 72104, Note_on_c, 9, 70, 0
5, 72119, Note_on_c, 9, 70, 60
5, 72119, Note_on_c, 9, 62, 120
5, 72134, Note_on_c, 9, 62, 0
5, 72134, Note_on_c, 9, 70, 0
5, 72179, Note_on_c, 9, 70, 60
5, 72179, Note_on_c, 9, 61, 50
5, 72179, Note_on_c, 9, 56, 48
5, 72179, Note_on_c, 9, 36, 60
5, 72194, Note_on_c, 9, 36, 0
5, 72194, Note_on_c, 9, 70, 0
5, 72194, Note_on_c, 9, 61, 0
5, 72194, Note_on_c, 9, 56, 0
5, 72194, Note_on_c, 9, 53, 44
5, 72206, Note_on_c, 9, 53, 0
5, 72239, Note_on_c, 9, 70, 80
5, 72239, Note_on_c, 9, 60, 50
5, 72239, Note_on_c, 9, 56, 70
5, 72250, Note_on_c, 9, 53, 46
5, 72254, Note_on_c, 9, 56, 0
5, 72254, Note_on_c, 9, 70, 0
5, 72254, Note_on_c, 9, 60, 0
5, 72281, Note_on_c, 9, 53, 0
5, 72299, Note_on_c, 9, 70, 60
5, 72299, Note_on_c, 9, 60, 50
5, 72313, Note_on_c, 9, 60, 0
5, 72313, Note_on_c, 9, 70, 0
5, 72359, Note_on_c, 9, 70, 80
5, 72359, Note_on_c, 9, 64, 120
5, 72359, Note_on_c, 9, 36, 60
5, 72374, Note_on_c, 9, 36, 0
5, 72374, Note_on_c, 9, 64, 0
5, 72374, Note_on_c, 9, 70, 0
5, 72416, Note_on_c, 9, 53, 49
5, 72419, Note_on_c, 9, 70, 60
5, 72419, Note_on_c, 9, 64, 120
5, 72419, Note_on_c, 9, 56, 48
5, 72428, Note_on_c, 9, 53, 0
5, 72434, Note_on_c, 9, 70, 0
5, 72434, Note_on_c, 9, 64, 0
5, 72434, Note_on_c, 9, 56, 0
5, 72480, Note_on_c, 9, 60, 50
5, 72480, Note_on_c, 9, 70, 80
5, 72481, Note_on_c, 9, 56, 70
5, 72494, Note_on_c, 9, 70, 0
5, 72494, Note_on_c, 9, 60, 0
5, 72495, Note_on_c, 9, 56, 0
5, 72535, Note_on_c, 9, 53, 40
5, 72539, Note_on_c, 9, 70, 60
5, 72539, Note_on_c, 9, 62, 57
5, 72547, Note_on_c, 9, 53, 0
5, 72554, Note_on_c, 9, 62, 0
5, 72554, Note_on_c, 9, 70, 0
5, 72569, Note_on_c, 9, 70, 70
5, 72584, Note_on_c, 9, 70, 0
5, 72597, Note_on_c, 9, 53, 41
5, 72599, Note_on_c, 9, 70, 80
5, 72599, Note_on_c, 9, 62, 120
5, 72609, Note_on_c, 9, 53, 0
5, 72614, Note_on_c, 9, 62, 0
5, 72614, Note_on_c, 9, 70, 0
5, 72659, Note_on_c, 9, 70, 60
5, 72659, Note_on_c, 9, 60, 50
5, 72659, Note_on_c, 9, 56, 48
5, 72659, Note_on_c, 9, 36, 60
5, 72674, Note_on_c, 9, 36, 0
5, 72674, Note_on_c, 9, 70, 0
5, 72674, Note_on_c, 9, 60, 0
5, 72674, Note_on_c, 9, 56, 0
5, 72719, Note_on_c, 9, 70, 80
5, 72719, Note_on_c, 9, 61, 50
5, 72719, Note_on_c, 9, 56, 70
5, 72734, Note_on_c, 9, 56, 0
5, 72734, Note_on_c, 9, 61, 0
5, 72734, Note_on_c, 9, 70, 0
5, 72776, Note_on_c, 9, 53, 45
5, 72779, Note_on_c, 9, 70, 60
5, 72779, Note_on_c, 9, 61, 50
5, 72794, Note_on_c, 9, 61, 0
5, 72794, Note_on_c, 9, 70, 0
5, 72806, Note_on_c, 9, 53, 0
5, 72839, Note_on_c, 9, 70, 80
5, 72839, Note_on_c, 9, 64, 120
5, 72839, Note_on_c, 9, 36, 60
5, 72854, Note_on_c, 9, 36, 0
5, 72854, Note_on_c, 9, 64, 0
5, 72854, Note_on_c, 9, 70, 0
5, 72899, Note_on_c, 9, 70, 60
5, 72899, Note_on_c, 9, 64, 120
5, 72899, Note_on_c, 9, 56, 48
5, 72902, Note_on_c, 9, 53, 40
5, 72914, Note_on_c, 9, 53, 0
5, 72914, Note_on_c, 9, 70, 0
5, 72914, Note_on_c, 9, 64, 0
5, 72914, Note_on_c, 9, 56, 0
5, 72956, Note_on_c, 9, 53, 51
5, 72959, Note_on_c, 9, 70, 80
5, 72959, Note_on_c, 9, 60, 50
5, 72959, Note_on_c, 9, 56, 70
5, 72974, Note_on_c, 9, 56, 0
5, 72974, Note_on_c, 9, 60, 0
5, 72974, Note_on_c, 9, 70, 0
5, 73000, Note_on_c, 9, 53, 0
5, 73019, Note_on_c, 9, 70, 60
5, 73019, Note_on_c, 9, 62, 57
5, 73034, Note_on_c, 9, 62, 0
5, 73034, Note_on_c, 9, 70, 0
5, 73049, Note_on_c, 9, 70, 70
5, 73064, Note_on_c, 9, 70, 0
5, 73079, Note_on_c, 9, 70, 60
5, 73079, Note_on_c, 9, 62, 120
5, 73094, Note_on_c, 9, 62, 0
5, 73094, Note_on_c, 9, 70, 0
5, 73137, Note_on_c, 9, 53, 51
5, 73139, Note_on_c, 9, 70, 60
5, 73139, Note_on_c, 9, 61, 50
5, 73139, Note_on_c, 9, 56, 48
5, 73139, Note_on_c, 9, 36, 60
5, 73154, Note_on_c, 9, 36, 0
5, 73154, Note_on_c, 9, 61, 0
5, 73154, Note_on_c, 9, 56, 0
5, 73154, Note_on_c, 9, 70, 0
5, 73166, Note_on_c, 9, 53, 0
5, 73197, Note_on_c, 9, 53, 41
5, 73199, Note_on_c, 9, 70, 80
5, 73199, Note_on_c, 9, 60, 50
5, 73199, Note_on_c, 9, 56, 70
5, 73214, Note_on_c, 9, 56, 0
5, 73214, Note_on_c, 9, 60, 0
5, 73214, Note_on_c, 9, 70, 0
5, 73259, Note_on_c, 9, 70, 60
5, 73259, Note_on_c, 9, 60, 50
5, 73274, Note_on_c, 9, 60, 0
5, 73274, Note_on_c, 9, 70, 0
5, 73288, Note_on_c, 9, 53, 0
5, 73319, Note_on_c, 9, 70, 80
5, 73319, Note_on_c, 9, 64, 120
5, 73319, Note_on_c, 9, 36, 60
5, 73333, Note_on_c, 9, 36, 0
5, 73334, Note_on_c, 9, 64, 0
5, 73334, Note_on_c, 9, 70, 0
5, 73379, Note_on_c, 9, 70, 60
5, 73379, Note_on_c, 9, 64, 120
5, 73379, Note_on_c, 9, 56, 48
5, 73394, Note_on_c, 9, 56, 0
5, 73394, Note_on_c, 9, 64, 0
5, 73394, Note_on_c, 9, 70, 0
5, 73440, Program_c, 9, 0
5, 73441, Note_on_c, 9, 70, 80
5, 73441, Note_on_c, 9, 60, 50
5, 73441, Note_on_c, 9, 56, 70
5, 73455, Note_on_c, 9, 56, 0
5, 73455, Note_on_c, 9, 60, 0
5, 73455, Note_on_c, 9, 70, 0
5, 73499, Note_on_c, 9, 62, 57
5, 73499, Note_on_c, 9, 70, 60
5, 73514, Note_on_c, 9, 70, 0
5, 73514, Note_on_c, 9, 62, 0
5, 73529, Note_on_c, 9, 70, 70
5, 73544, Note_on_c, 9, 70, 0
5, 73559, Note_on_c, 9, 62, 120
5, 73559, Note_on_c, 9, 70, 80
5, 73574, Note_on_c, 9, 70, 0
5, 73574, Note_on_c, 9, 62, 0
5, 73619, Note_on_c, 9, 36, 60
5, 73619, Note_on_c, 9, 56, 48
5, 73619, Note_on_c, 9, 60, 50
5, 73619, Note_on_c, 9, 70, 60
5, 73633, Note_on_c, 9, 56, 0
5, 73634, Note_on_c, 9, 36, 0
5, 73634, Note_on_c, 9, 60, 0
5, 73634, Note_on_c, 9, 70, 0
5, 73679, Note_on_c, 9, 56, 70
5, 73679, Note_on_c, 9, 61, 50
5, 73679, Note_on_c, 9, 70, 80
5, 73694, Note_on_c, 9, 70, 0
5, 73694, Note_on_c, 9, 61, 0
5, 73694, Note_on_c, 9, 56, 0
5, 73694, Note_on_c, 9, 79, 43
5, 73705, Note_on_c, 9, 79, 0
5, 73739, Note_on_c, 9, 61, 50
5, 73739, Note_on_c, 9, 70, 60
5, 73754, Note_on_c, 9, 70, 0
5, 73754, Note_on_c, 9, 61, 0
5, 73799, Note_on_c, 9, 36, 60
5, 73799, Note_on_c, 9, 64, 120
5, 73799, Note_on_c, 9, 70, 80
5, 73814, Note_on_c, 9, 70, 0
5, 73814, Note_on_c, 9, 64, 0
5, 73814, Note_on_c, 9, 36, 0
5, 73859, Note_on_c, 9, 56, 48
5, 73859, Note_on_c, 9, 64, 120
5, 73859, Note_on_c, 9, 70, 60
5, 73874, Note_on_c, 9, 70, 0
5, 73874, Note_on_c, 9, 64, 0
5, 73874, Note_on_c, 9, 56, 0
5, 73919, Note_on_c, 9, 56, 70
5, 73919, Note_on_c, 9, 60, 50
5, 73919, Note_on_c, 9, 70, 80
5, 73921, Note_on_c, 9, 77, 42
5, 73933, Note_on_c, 9, 77, 0
5, 73934, Note_on_c, 9, 56, 0
5, 73934, Note_on_c, 9, 60, 0
5, 73934, Note_on_c, 9, 70, 0
5, 73979, Note_on_c, 9, 62, 57
5, 73979, Note_on_c, 9, 70, 60
5, 73994, Note_on_c, 9, 70, 0
5, 73994, Note_on_c, 9, 62, 0
5, 74009, Note_on_c, 9, 70, 70
5, 74024, Note_on_c, 9, 70, 0
5, 74039, Note_on_c, 9, 62, 120
5, 74039, Note_on_c, 9, 70, 60
5, 74054, Note_on_c, 9, 70, 0
5, 74054, Note_on_c, 9, 62, 0
5, 74099, Note_on_c, 9, 76, 43
5, 74099, Note_on_c, 9, 36, 60
5, 74099, Note_on_c, 9, 56, 48
5, 74099, Note_on_c, 9, 61, 50
5, 74099, Note_on_c, 9, 70, 60
5, 74114, Note_on_c, 9, 70, 0
5, 74114, Note_on_c, 9, 56, 0
5, 74114, Note_on_c, 9, 61, 0
5, 74114, Note_on_c, 9, 36, 0
5, 74115, Note_on_c, 9, 76, 0
5, 74159, Note_on_c, 9, 56, 70
5, 74159, Note_on_c, 9, 60, 50
5, 74159, Note_on_c, 9, 70, 80
5, 74174, Note_on_c, 9, 70, 0
5, 74174, Note_on_c, 9, 60, 0
5, 74174, Note_on_c, 9, 56, 0
5, 74219, Note_on_c, 9, 60, 50
5, 74219, Note_on_c, 9, 70, 60
5, 74234, Note_on_c, 9, 70, 0
5, 74234, Note_on_c, 9, 60, 0
5, 74279, Note_on_c, 9, 36, 60
5, 74279, Note_on_c, 9, 64, 120
5, 74279, Note_on_c, 9, 70, 80
5, 74293, Note_on_c, 9, 36, 0
5, 74294, Note_on_c, 9, 70, 0
5, 74294, Note_on_c, 9, 64, 0
5, 74339, Note_on_c, 9, 56, 48
5, 74339, Note_on_c, 9, 64, 120
5, 74339, Note_on_c, 9, 70, 60
5, 74354, Note_on_c, 9, 70, 0
5, 74354, Note_on_c, 9, 64, 0
5, 74354, Note_on_c, 9, 56, 0
5, 74400, Note_on_c, 9, 70, 80
5, 74400, Note_on_c, 9, 60, 50
5, 74401, Note_on_c, 9, 56, 70
5, 74414, Note_on_c, 9, 60, 0
5, 74414, Note_on_c, 9, 70, 0
5, 74415, Note_on_c, 9, 56, 0
5, 74459, Note_on_c, 9, 62, 57
5, 74459, Note_on_c, 9, 70, 60
5, 74474, Note_on_c, 9, 70, 0
5, 74474, Note_on_c, 9, 62, 0
5, 74489, Note_on_c, 9, 70, 70
5, 74504, Note_on_c, 9, 70, 0
5, 74519, Note_on_c, 9, 62, 120
5, 74519, Note_on_c, 9, 70, 80
5, 74529, Note_on_c, 9, 76, 37
5, 74534, Note_on_c, 9, 70, 0
5, 74534, Note_on_c, 9, 62, 0
5, 74542, Note_on_c, 9, 76, 0
5, 74579, Note_on_c, 9, 36, 60
5, 74579, Note_on_c, 9, 56, 48
5, 74579, Note_on_c, 9, 60, 50
5, 74579, Note_on_c, 9, 70, 60
5, 74589, Note_on_c, 9, 76, 48
5, 74594, Note_on_c, 9, 70, 0
5, 74594, Note_on_c, 9, 60, 0
5, 74594, Note_on_c, 9, 36, 0
5, 74594, Note_on_c, 9, 56, 0
5, 74616, Note_on_c, 9, 76, 0
5, 74639, Note_on_c, 9, 56, 70
5, 74639, Note_on_c, 9, 61, 50
5, 74639, Note_on_c, 9, 70, 80
5, 74654, Note_on_c, 9, 70, 0
5, 74654, Note_on_c, 9, 61, 0
5, 74654, Note_on_c, 9, 56, 0
5, 74699, Note_on_c, 9, 61, 50
5, 74699, Note_on_c, 9, 70, 60
5, 74714, Note_on_c, 9, 70, 0
5, 74714, Note_on_c, 9, 61, 0
5, 74759, Note_on_c, 9, 36, 60
5, 74759, Note_on_c, 9, 64, 120
5, 74759, Note_on_c, 9, 70, 80
5, 74774, Note_on_c, 9, 70, 0
5, 74774, Note_on_c, 9, 64, 0
5, 74774, Note_on_c, 9, 36, 0
5, 74819, Note_on_c, 9, 56, 48
5, 74819, Note_on_c, 9, 64, 120
5, 74819, Note_on_c, 9, 70, 60
5, 74834, Note_on_c, 9, 70, 0
5, 74834, Note_on_c, 9, 64, 0
5, 74834, Note_on_c, 9, 56, 0
5, 74879, Note_on_c, 9, 56, 70
5, 74879, Note_on_c, 9, 60, 50
5, 74879, Note_on_c, 9, 70, 80
5, 74894, Note_on_c, 9, 70, 0
5, 74894, Note_on_c, 9, 60, 0
5, 74894, Note_on_c, 9, 56, 0
5, 74939, Note_on_c, 9, 62, 57
5, 74939, Note_on_c, 9, 70, 60
5, 74954, Note_on_c, 9, 70, 0
5, 74954, Note_on_c, 9, 62, 0
5, 74969, Note_on_c, 9, 70, 70
5, 74984, Note_on_c, 9, 70, 0
5, 74999, Note_on_c, 9, 62, 120
5, 74999, Note_on_c, 9, 70, 60
5, 75014, Note_on_c, 9, 70, 0
5, 75014, Note_on_c, 9, 62, 0
5, 75059, Note_on_c, 9, 36, 60
5, 75059, Note_on_c, 9, 56, 48
5, 75059, Note_on_c, 9, 61, 50
5, 75059, Note_on_c, 9, 70, 60
5, 75074, Note_on_c, 9, 70, 0
5, 75074, Note_on_c, 9, 36, 0
5, 75074, Note_on_c, 9, 56, 0
5, 75074, Note_on_c, 9, 61, 0
5, 75119, Note_on_c, 9, 56, 70
5, 75119, Note_on_c, 9, 60, 50
5, 75119, Note_on_c, 9, 70, 80
5, 75134, Note_on_c, 9, 70, 0
5, 75134, Note_on_c, 9, 60, 0
5, 75134, Note_on_c, 9, 56, 0
5, 75179, Note_on_c, 9, 60, 50
5, 75179, Note_on_c, 9, 70, 60
5, 75194, Note_on_c, 9, 70, 0
5, 75194, Note_on_c, 9, 60, 0
5, 75239, Note_on_c, 9, 36, 60
5, 75239, Note_on_c, 9, 64, 120
5, 75239, Note_on_c, 9, 70, 80
5, 75254, Note_on_c, 9, 70, 0
5, 75254, Note_on_c, 9, 64, 0
5, 75254, Note_on_c, 9, 36, 0
5, 75299, Note_on_c, 9, 56, 48
5, 75299, Note_on_c, 9, 64, 120
5, 75299, Note_on_c, 9, 70, 60
5, 75302, Note_on_c, 9, 77, 51
5, 75314, Note_on_c, 9, 70, 0
5, 75314, Note_on_c, 9, 56, 0
5, 75314, Note_on_c, 9, 64, 0
5, 75344, Note_on_c, 9, 77, 0
5, 75360, Note_on_c, 9, 56, 70
5, 75360, Program_c, 9, 0
5, 75361, Note_on_c, 9, 60, 50
5, 75361, Note_on_c, 9, 70, 80
5, 75375, Note_on_c, 9, 70, 0
5, 75375, Note_on_c, 9, 60, 0
5, 75375, Note_on_c, 9, 56, 0
5, 75419, Note_on_c, 9, 62, 57
5, 75419, Note_on_c, 9, 70, 60
5, 75434, Note_on_c, 9, 70, 0
5, 75434, Note_on_c, 9, 62, 0
5, 75449, Note_on_c, 9, 70, 70
5, 75464, Note_on_c, 9, 70, 0
5, 75476, Note_on_c, 9, 76, 31
5, 75479, Note_on_c, 9, 62, 120
5, 75479, Note_on_c, 9, 70, 80
5, 75494, Note_on_c, 9, 70, 0
5, 75494, Note_on_c, 9, 62, 0
5, 75496, Note_on_c, 9, 76, 0
5, 75539, Note_on_c, 9, 36, 60
5, 75539, Note_on_c, 9, 56, 48
5, 75539, Note_on_c, 9, 60, 50
5, 75539, Note_on_c, 9, 70, 60
5, 75545, Note_on_c, 9, 76, 57
5, 75554, Note_on_c, 9, 70, 0
5, 75554, Note_on_c, 9, 60, 0
5, 75554, Note_on_c, 9, 36, 0
5, 75554, Note_on_c, 9, 56, 0
5, 75583, Note_on_c, 9, 76, 0
5, 75599, Note_on_c, 9, 56, 70
5, 75599, Note_on_c, 9, 61, 50
5, 75599, Note_on_c, 9, 70, 80
5, 75614, Note_on_c, 9, 70, 0
5, 75614, Note_on_c, 9, 61, 0
5, 75614, Note_on_c, 9, 56, 0
5, 75659, Note_on_c, 9, 61, 50
5, 75659, Note_on_c, 9, 70, 60
5, 75674, Note_on_c, 9, 70, 0
5, 75674, Note_on_c, 9, 61, 0
5, 75719, Note_on_c, 9, 36, 60
5, 75719, Note_on_c, 9, 64, 120
5, 75719, Note_on_c, 9, 70, 80
5, 75722, Note_on_c, 9, 77, 24
5, 75734, Note_on_c, 9, 70, 0
5, 75734, Note_on_c, 9, 36, 0
5, 75734, Note_on_c, 9, 64, 0
5, 75736, Note_on_c, 9, 77, 0
5, 75779, Note_on_c, 9, 56, 48
5, 75779, Note_on_c, 9, 64, 120
5, 75779, Note_on_c, 9, 70, 60
5, 75789, Note_on_c, 9, 77, 64
5, 75794, Note_on_c, 9, 70, 0
5, 75794, Note_on_c, 9, 56, 0
5, 75794, Note_on_c, 9, 64, 0
5, 75839, Note_on_c, 9, 77, 0
5, 75839, Note_on_c, 9, 56, 70
5, 75839, Note_on_c, 9, 60, 50
5, 75839, Note_on_c, 9, 70, 80
5, 75854, Note_on_c, 9, 70, 0
5, 75854, Note_on_c, 9, 60, 0
5, 75854, Note_on_c, 9, 56, 0
5, 75899, Note_on_c, 9, 62, 57
5, 75899, Note_on_c, 9, 70, 60
5, 75914, Note_on_c, 9, 70, 0
5, 75914, Note_on_c, 9, 62, 0
5, 75929, Note_on_c, 9, 70, 70
5, 75944, Note_on_c, 9, 70, 0
5, 75959, Note_on_c, 9, 76, 31
5, 75959, Note_on_c, 9, 62, 120
5, 75959, Note_on_c, 9, 70, 60
5, 75974, Note_on_c, 9, 70, 0
5, 75974, Note_on_c, 9, 62, 0
5, 75976, Note_on_c, 9, 76, 0
5, 76019, Note_on_c, 9, 36, 60
5, 76019, Note_on_c, 9, 56, 48
5, 76019, Note_on_c, 9, 61, 50
5, 76019, Note_on_c, 9, 70, 60
5, 76028, Note_on_c, 9, 76, 78
5, 76034, Note_on_c, 9, 70, 0
5, 76034, Note_on_c, 9, 61, 0
5, 76034, Note_on_c, 9, 36, 0
5, 76034, Note_on_c, 9, 56, 0
5, 76079, Note_on_c, 9, 76, 0
5, 76079, Note_on_c, 9, 56, 70
5, 76079, Note_on_c, 9, 60, 50
5, 76079, Note_on_c, 9, 70, 80
5, 76094, Note_on_c, 9, 70, 0
5, 76094, Note_on_c, 9, 60, 0
5, 76094, Note_on_c, 9, 56, 0
5, 76139, Note_on_c, 9, 60, 50
5, 76139, Note_on_c, 9, 70, 60
5, 76154, Note_on_c, 9, 70, 0
5, 76154, Note_on_c, 9, 60, 0
5, 76199, Note_on_c, 9, 36, 60
5, 76199, Note_on_c, 9, 64, 120
5, 76199, Note_on_c, 9, 70, 80
5, 76201, Note_on_c, 9, 77, 32
5, 76214, Note_on_c, 9, 77, 0
5, 76214, Note_on_c, 9, 36, 0
5, 76214, Note_on_c, 9, 64, 0
5, 76214, Note_on_c, 9, 70, 0
5, 76259, Note_on_c, 9, 56, 48
5, 76259, Note_on_c, 9, 64, 120
5, 76259, Note_on_c, 9, 70, 60
5, 76271, Note_on_c, 9, 77, 78
5, 76274, Note_on_c, 9, 70, 0
5, 76274, Note_on_c, 9, 56, 0
5, 76274, Note_on_c, 9, 64, 0
5, 76320, Note_on_c, 9, 70, 80
5, 76320, Note_on_c, 9, 60, 50
5, 76321, Note_on_c, 9, 56, 70
5, 76322, Note_on_c, 9, 77, 0
5, 76334, Note_on_c, 9, 70, 0
5, 76334, Note_on_c, 9, 60, 0
5, 76335, Note_on_c, 9, 56, 0
5, 76379, Note_on_c, 9, 62, 57
5, 76379, Note_on_c, 9, 66, 71
5, 76379, Note_on_c, 9, 70, 60
5, 76394, Note_on_c, 9, 70, 0
5, 76394, Note_on_c, 9, 62, 0
5, 76402, Note_on_c, 9, 66, 0
5, 76409, Note_on_c, 9, 70, 70
5, 76424, Note_on_c, 9, 70, 0
5, 76433, Note_on_c, 9, 76, 27
5, 76439, Note_on_c, 9, 62, 120
5, 76439, Note_on_c, 9, 70, 80
5, 76447, Note_on_c, 9, 76, 0
5, 76454, Note_on_c, 9, 70, 0
5, 76454, Note_on_c, 9, 62, 0
5, 76499, Note_on_c, 9, 36, 60
5, 76499, Note_on_c, 9, 56, 48
5, 76499, Note_on_c, 9, 60, 50
5, 76499, Note_on_c, 9, 70, 60
5, 76503, Note_on_c, 9, 76, 73
5, 76514, Note_on_c, 9, 70, 0
5, 76514, Note_on_c, 9, 60, 0
5, 76514, Note_on_c, 9, 36, 0
5, 76514, Note_on_c, 9, 56, 0
5, 76552, Note_on_c, 9, 76, 0
5, 76559, Note_on_c, 9, 56, 70
5, 76559, Note_on_c, 9, 61, 50
5, 76559, Note_on_c, 9, 66, 68
5, 76559, Note_on_c, 9, 70, 80
5, 76574, Note_on_c, 9, 70, 0
5, 76574, Note_on_c, 9, 56, 0
5, 76574, Note_on_c, 9, 61, 0
5, 76578, Note_on_c, 9, 66, 0
5, 76619, Note_on_c, 9, 61, 50
5, 76619, Note_on_c, 9, 66, 72
5, 76619, Note_on_c, 9, 70, 60
5, 76634, Note_on_c, 9, 70, 0
5, 76634, Note_on_c, 9, 61, 0
5, 76641, Note_on_c, 9, 77, 45
5, 76648, Note_on_c, 9, 66, 0
5, 76660, Note_on_c, 9, 77, 0
5, 76679, Note_on_c, 9, 36, 60
5, 76679, Note_on_c, 9, 64, 120
5, 76679, Note_on_c, 9, 70, 80
5, 76688, Note_on_c, 9, 77, 57
5, 76694, Note_on_c, 9, 70, 0
5, 76694, Note_on_c, 9, 36, 0
5, 76694, Note_on_c, 9, 64, 0
5, 76736, Note_on_c, 9, 77, 0
5, 76739, Note_on_c, 9, 56, 48
5, 76739, Note_on_c, 9, 64, 120
5, 76739, Note_on_c, 9, 70, 60
5, 76754, Note_on_c, 9, 70, 0
5, 76754, Note_on_c, 9, 64, 0
5, 76754, Note_on_c, 9, 56, 0
5, 76799, Note_on_c, 9, 56, 70
5, 76799, Note_on_c, 9, 60, 50
5, 76799, Note_on_c, 9, 70, 80
5, 76805, Note_on_c, 9, 77, 67
5, 76814, Note_on_c, 9, 70, 0
5, 76814, Note_on_c, 9, 56, 0
5, 76814, Note_on_c, 9, 60, 0
5, 76849, Note_on_c, 9, 77, 0
5, 76859, Note_on_c, 9, 62, 57
5, 76859, Note_on_c, 9, 65, 81
5, 76859, Note_on_c, 9, 70, 60
5, 76874, Note_on_c, 9, 70, 0
5, 76874, Note_on_c, 9, 62, 0
5, 76889, Note_on_c, 9, 70, 70
5, 76890, Note_on_c, 9, 65, 0
5, 76904, Note_on_c, 9, 70, 0
5, 76919, Note_on_c, 9, 62, 120
5, 76919, Note_on_c, 9, 70, 60
5, 76928, Note_on_c, 9, 76, 24
5, 76933, Note_on_c, 9, 70, 0
5, 76933, Note_on_c, 9, 62, 0
5, 76946, Note_on_c, 9, 76, 0
5, 76979, Note_on_c, 9, 36, 60
5, 76979, Note_on_c, 9, 56, 48
5, 76979, Note_on_c, 9, 61, 50
5, 76979, Note_on_c, 9, 65, 81
5, 76979, Note_on_c, 9, 70, 60
5, 76990, Note_on_c, 9, 76, 65
5, 76994, Note_on_c, 9, 70, 0
5, 76994, Note_on_c, 9, 61, 0
5, 76994, Note_on_c, 9, 36, 0
5, 76994, Note_on_c, 9, 56, 0
5, 77014, Note_on_c, 9, 65, 0
5, 77039, Note_on_c, 9, 56, 70
5, 77039, Note_on_c, 9, 60, 50
5, 77039, Note_on_c, 9, 70, 80
5, 77048, Note_on_c, 9, 76, 0
5, 77054, Note_on_c, 9, 56, 0
5, 77054, Note_on_c, 9, 60, 0
5, 77054, Note_on_c, 9, 70, 0
5, 77099, Note_on_c, 9, 60, 50
5, 77099, Note_on_c, 9, 70, 60
5, 77114, Note_on_c, 9, 70, 0
5, 77114, Note_on_c, 9, 60, 0
5, 77152, Note_on_c, 9, 77, 49
5, 77159, Note_on_c, 9, 36, 60
5, 77159, Note_on_c, 9, 64, 120
5, 77159, Note_on_c, 9, 70, 80
5, 77174, Note_on_c, 9, 70, 0
5, 77174, Note_on_c, 9, 64, 0
5, 77174, Note_on_c, 9, 36, 0
5, 77180, Note_on_c, 9, 77, 0
5, 77219, Note_on_c, 9, 56, 48
5, 77219, Note_on_c, 9, 64, 120
5, 77219, Note_on_c, 9, 70, 60
5, 77228, Note_on_c, 9, 77, 73
5, 77234, Note_on_c, 9, 70, 0
5, 77234, Note_on_c, 9, 56, 0
5, 77234, Note_on_c, 9, 64, 0
5, 77280, Note_on_c, 9, 77, 0
5, 77280, Program_c, 9, 0
5, 77281, Note_on_c, 9, 56, 70
5, 77281, Note_on_c, 9, 60, 50
5, 77281, Note_on_c, 9, 70, 80
5, 77295, Note_on_c, 9, 70, 0
5, 77295, Note_on_c, 9, 60, 0
5, 77295, Note_on_c, 9, 56, 0
5, 77339, Note_on_c, 9, 62, 57
5, 77339, Note_on_c, 9, 70, 60
5, 77354, Note_on_c, 9, 70, 0
5, 77354, Note_on_c, 9, 62, 0
5, 77369, Note_on_c, 9, 70, 70
5, 77384, Note_on_c, 9, 70, 0
5, 77398, Note_on_c, 9, 62, 120
5, 77399, Note_on_c, 9, 70, 80
5, 77402, Note_on_c, 9, 76, 13
5, 77414, Note_on_c, 9, 70, 0
5, 77414, Note_on_c, 9, 62, 0
5, 77419, Note_on_c, 9, 76, 0
5, 77459, Note_on_c, 9, 36, 60
5, 77459, Note_on_c, 9, 56, 48
5, 77459, Note_on_c, 9, 60, 50
5, 77459, Note_on_c, 9, 70, 60
5, 77464, Note_on_c, 9, 76, 51
5, 77474, Note_on_c, 9, 70, 0
5, 77474, Note_on_c, 9, 60, 0
5, 77474, Note_on_c, 9, 36, 0
5, 77474, Note_on_c, 9, 56, 0
5, 77519, Note_on_c, 9, 76, 0
5, 77519, Note_on_c, 9, 56, 70
5, 77519, Note_on_c, 9, 61, 50
5, 77519, Note_on_c, 9, 70, 80
5, 77534, Note_on_c, 9, 70, 0
5, 77534, Note_on_c, 9, 61, 0
5, 77534, Note_on_c, 9, 56, 0
5, 77579, Note_on_c, 9, 70, 60
5, 77579, Note_on_c, 9, 61, 50
5, 77593, Note_on_c, 9, 61, 0
5, 77593, Note_on_c, 9, 70, 0
5, 77639, Note_on_c, 9, 70, 80
5, 77639, Note_on_c, 9, 64, 120
5, 77639, Note_on_c, 9, 36, 60
5, 77645, Note_on_c, 9, 77, 38
5, 77654, Note_on_c, 9, 36, 0
5, 77654, Note_on_c, 9, 70, 0
5, 77654, Note_on_c, 9, 64, 0
5, 77657, Note_on_c, 9, 77, 0
5, 77699, Note_on_c, 9, 70, 60
5, 77699, Note_on_c, 9, 64, 120
5, 77699, Note_on_c, 9, 56, 48
5, 77707, Note_on_c, 9, 77, 73
5, 77714, Note_on_c, 9, 56, 0
5, 77714, Note_on_c, 9, 70, 0
5, 77714, Note_on_c, 9, 64, 0
5, 77759, Note_on_c, 9, 70, 80
5, 77759, Note_on_c, 9, 60, 50
5, 77759, Note_on_c, 9, 56, 70
5, 77767, Note_on_c, 9, 77, 0
5, 77774, Note_on_c, 9, 70, 0
5, 77774, Note_on_c, 9, 60, 0
5, 77774, Note_on_c, 9, 56, 0
5, 77819, Note_on_c, 9, 70, 60
5, 77819, Note_on_c, 9, 62, 57
5, 77834, Note_on_c, 9, 62, 0
5, 77834, Note_on_c, 9, 70, 0
5, 77849, Note_on_c, 9, 70, 70
5, 77864, Note_on_c, 9, 70, 0
5, 77875, Note_on_c, 9, 76, 48
5, 77879, Note_on_c, 9, 70, 60
5, 77879, Note_on_c, 9, 62, 120
5, 77894, Note_on_c, 9, 62, 0
5, 77894, Note_on_c, 9, 70, 0
5, 77927, Note_on_c, 9, 76, 0
5, 77939, Note_on_c, 9, 70, 60
5, 77939, Note_on_c, 9, 61, 50
5, 77939, Note_on_c, 9, 56, 48
5, 77939, Note_on_c, 9, 36, 60
5, 77954, Note_on_c, 9, 36, 0
5, 77954, Note_on_c, 9, 70, 0
5, 77954, Note_on_c, 9, 61, 0
5, 77954, Note_on_c, 9, 56, 0
5, 77999, Note_on_c, 9, 70, 80
5, 77999, Note_on_c, 9, 60, 50
5, 77999, Note_on_c, 9, 56, 70
5, 78014, Note_on_c, 9, 56, 0
5, 78014, Note_on_c, 9, 60, 0
5, 78014, Note_on_c, 9, 70, 0
5, 78059, Note_on_c, 9, 70, 60
5, 78059, Note_on_c, 9, 60, 50
5, 78074, Note_on_c, 9, 60, 0
5, 78074, Note_on_c, 9, 70, 0
5, 78119, Note_on_c, 9, 70, 80
5, 78119, Note_on_c, 9, 64, 120
5, 78119, Note_on_c, 9, 36, 60
5, 78119, Note_on_c, 9, 77, 41
5, 78134, Note_on_c, 9, 36, 0
5, 78134, Note_on_c, 9, 70, 0
5, 78134, Note_on_c, 9, 64, 0
5, 78141, Note_on_c, 9, 77, 0
5, 78179, Note_on_c, 9, 70, 60
5, 78179, Note_on_c, 9, 64, 120
5, 78179, Note_on_c, 9, 56, 48
5, 78182, Note_on_c, 9, 77, 68
5, 78194, Note_on_c, 9, 56, 0
5, 78194, Note_on_c, 9, 70, 0
5, 78194, Note_on_c, 9, 64, 0
5, 78240, Note_on_c, 9, 60, 50
5, 78240, Note_on_c, 9, 70, 80
5, 78241, Note_on_c, 9, 77, 0
5, 78241, Note_on_c, 9, 56, 70
5, 78254, Note_on_c, 9, 70, 0
5, 78254, Note_on_c, 9, 60, 0
5, 78255, Note_on_c, 9, 56, 0
5, 78299, Note_on_c, 9, 70, 60
5, 78299, Note_on_c, 9, 62, 57
5, 78306, Note_on_c, 9, 76, 28
5, 78314, Note_on_c, 9, 62, 0
5, 78314, Note_on_c, 9, 70, 0
5, 78325, Note_on_c, 9, 76, 0
5, 78329, Note_on_c, 9, 70, 70
5, 78343, Note_on_c, 9, 70, 0
5, 78357, Note_on_c, 9, 76, 31
5, 78359, Note_on_c, 9, 70, 80
5, 78359, Note_on_c, 9, 62, 120
5, 78373, Note_on_c, 9, 70, 0
5, 78374, Note_on_c, 9, 62, 0
5, 78396, Note_on_c, 9, 76, 0
5, 78419, Note_on_c, 9, 70, 60
5, 78419, Note_on_c, 9, 60, 50
5, 78419, Note_on_c, 9, 56, 48
5, 78419, Note_on_c, 9, 36, 60
5, 78434, Note_on_c, 9, 36, 0
5, 78434, Note_on_c, 9, 70, 0
5, 78434, Note_on_c, 9, 60, 0
5, 78434, Note_on_c, 9, 56, 0
5, 78479, Note_on_c, 9, 70, 80
5, 78479, Note_on_c, 9, 61, 50
5, 78479, Note_on_c, 9, 56, 70
5, 78494, Note_on_c, 9, 56, 0
5, 78494, Note_on_c, 9, 61, 0
5, 78494, Note_on_c, 9, 70, 0
5, 78539, Note_on_c, 9, 70, 60
5, 78539, Note_on_c, 9, 61, 50
5, 78554, Note_on_c, 9, 61, 0
5, 78554, Note_on_c, 9, 70, 0
5, 78599, Note_on_c, 9, 70, 80
5, 78599, Note_on_c, 9, 64, 120
5, 78599, Note_on_c, 9, 36, 60
5, 78614, Note_on_c, 9, 36, 0
5, 78614, Note_on_c, 9, 64, 0
5, 78614, Note_on_c, 9, 70, 0
5, 78659, Note_on_c, 9, 70, 60
5, 78659, Note_on_c, 9, 64, 120
5, 78659, Note_on_c, 9, 56, 48
5, 78660, Note_on_c, 9, 77, 47
5, 78674, Note_on_c, 9, 56, 0
5, 78674, Note_on_c, 9, 70, 0
5, 78674, Note_on_c, 9, 64, 0
5, 78719, Note_on_c, 9, 70, 80
5, 78719, Note_on_c, 9, 60, 50
5, 78719, Note_on_c, 9, 56, 70
5, 78722, Note_on_c, 9, 77, 0
5, 78734, Note_on_c, 9, 70, 0
5, 78734, Note_on_c, 9, 60, 0
5, 78734, Note_on_c, 9, 56, 0
5, 78779, Note_on_c, 9, 70, 60
5, 78779, Note_on_c, 9, 62, 57
5, 78794, Note_on_c, 9, 62, 0
5, 78794, Note_on_c, 9, 70, 0
5, 78809, Note_on_c, 9, 70, 70
5, 78824, Note_on_c, 9, 70, 0
5, 78839, Note_on_c, 9, 70, 60
5, 78839, Note_on_c, 9, 62, 120
5, 78839, Note_on_c, 9, 76, 56
5, 78854, Note_on_c, 9, 62, 0
5, 78854, Note_on_c, 9, 70, 0
5, 78892, Note_on_c, 9, 76, 0
5, 78899, Note_on_c, 9, 70, 60
5, 78899, Note_on_c, 9, 61, 50
5, 78899, Note_on_c, 9, 56, 48
5, 78899, Note_on_c, 9, 36, 60
5, 78914, Note_on_c, 9, 36, 0
5, 78914, Note_on_c, 9, 70, 0
5, 78914, Note_on_c, 9, 61, 0
5, 78914, Note_on_c, 9, 56, 0
5, 78959, Note_on_c, 9, 70, 80
5, 78959, Note_on_c, 9, 60, 50
5, 78959, Note_on_c, 9, 56, 70
5, 78974, Note_on_c, 9, 56, 0
5, 78974, Note_on_c, 9, 60, 0
5, 78974, Note_on_c, 9, 70, 0
5, 79013, Note_on_c, 9, 77, 56
5, 79019, Note_on_c, 9, 70, 60
5, 79019, Note_on_c, 9, 60, 50
5, 79034, Note_on_c, 9, 60, 0
5, 79034, Note_on_c, 9, 70, 0
5, 79054, Note_on_c, 9, 77, 0
5, 79079, Note_on_c, 9, 70, 80
5, 79079, Note_on_c, 9, 64, 120
5, 79079, Note_on_c, 9, 36, 60
5, 79094, Note_on_c, 9, 36, 0
5, 79094, Note_on_c, 9, 64, 0
5, 79094, Note_on_c, 9, 70, 0
5, 79139, Note_on_c, 9, 70, 60
5, 79139, Note_on_c, 9, 64, 120
5, 79139, Note_on_c, 9, 56, 48
5, 79154, Note_on_c, 9, 56, 0
5, 79154, Note_on_c, 9, 64, 0
5, 79154, Note_on_c, 9, 70, 0
5, 79189, Note_on_c, 9, 77, 46
5, 79200, Program_c, 9, 0
5, 79201, Note_on_c, 9, 70, 80
5, 79201, Note_on_c, 9, 60, 50
5, 79201, Note_on_c, 9, 56, 70
5, 79215, Note_on_c, 9, 60, 0
5, 79215, Note_on_c, 9, 70, 0
5, 79216, Note_on_c, 9, 56, 0
5, 79235, Note_on_c, 9, 77, 0
5, 79259, Note_on_c, 9, 70, 60
5, 79259, Note_on_c, 9, 62, 57
5, 79274, Note_on_c, 9, 62, 0
5, 79274, Note_on_c, 9, 70, 0
5, 79289, Note_on_c, 9, 70, 70
5, 79304, Note_on_c, 9, 70, 0
5, 79319, Note_on_c, 9, 70, 80
5, 79319, Note_on_c, 9, 62, 120
5, 79334, Note_on_c, 9, 62, 0
5, 79334, Note_on_c, 9, 70, 0
5, 79374, Note_on_c, 9, 76, 51
5, 79379, Note_on_c, 9, 70, 60
5, 79379, Note_on_c, 9, 60, 50
5, 79379, Note_on_c, 9, 56, 48
5, 79379, Note_on_c, 9, 36, 60
5, 79394, Note_on_c, 9, 36, 0
5, 79394, Note_on_c, 9, 60, 0
5, 79394, Note_on_c, 9, 56, 0
5, 79394, Note_on_c, 9, 70, 0
5, 79417, Note_on_c, 9, 76, 0
5, 79439, Note_on_c, 9, 70, 80
5, 79439, Note_on_c, 9, 61, 50
5, 79439, Note_on_c, 9, 56, 70
5, 79454, Note_on_c, 9, 56, 0
5, 79454, Note_on_c, 9, 61, 0
5, 79454, Note_on_c, 9, 70, 0
5, 79499, Note_on_c, 9, 70, 60
5, 79499, Note_on_c, 9, 61, 50
5, 79514, Note_on_c, 9, 61, 0
5, 79514, Note_on_c, 9, 70, 0
5, 79559, Note_on_c, 9, 70, 80
5, 79559, Note_on_c, 9, 64, 120
5, 79559, Note_on_c, 9, 36, 60
5, 79571, Note_on_c, 9, 77, 46
5, 79573, Note_on_c, 9, 36, 0
5, 79574, Note_on_c, 9, 70, 0
5, 79574, Note_on_c, 9, 64, 0
5, 79612, Note_on_c, 9, 77, 0
5, 79619, Note_on_c, 9, 70, 60
5, 79619, Note_on_c, 9, 64, 120
5, 79619, Note_on_c, 9, 56, 48
5, 79634, Note_on_c, 9, 56, 0
5, 79634, Note_on_c, 9, 64, 0
5, 79634, Note_on_c, 9, 70, 0
5, 79679, Note_on_c, 9, 70, 80
5, 79679, Note_on_c, 9, 60, 50
5, 79679, Note_on_c, 9, 56, 70
5, 79694, Note_on_c, 9, 56, 0
5, 79694, Note_on_c, 9, 60, 0
5, 79694, Note_on_c, 9, 70, 0
5, 79739, Note_on_c, 9, 70, 60
5, 79739, Note_on_c, 9, 62, 57
5, 79754, Note_on_c, 9, 62, 0
5, 79754, Note_on_c, 9, 70, 0
5, 79769, Note_on_c, 9, 70, 70
5, 79784, Note_on_c, 9, 70, 0
5, 79799, Note_on_c, 9, 70, 60
5, 79799, Note_on_c, 9, 62, 120
5, 79814, Note_on_c, 9, 62, 0
5, 79814, Note_on_c, 9, 70, 0
5, 79859, Note_on_c, 9, 70, 60
5, 79859, Note_on_c, 9, 61, 50
5, 79859, Note_on_c, 9, 56, 48
5, 79859, Note_on_c, 9, 36, 60
5, 79874, Note_on_c, 9, 36, 0
5, 79874, Note_on_c, 9, 70, 0
5, 79874, Note_on_c, 9, 61, 0
5, 79874, Note_on_c, 9, 56, 0
5, 79919, Note_on_c, 9, 70, 80
5, 79919, Note_on_c, 9, 60, 50
5, 79919, Note_on_c, 9, 56, 70
5, 79934, Note_on_c, 9, 56, 0
5, 79934, Note_on_c, 9, 60, 0
5, 79934, Note_on_c, 9, 70, 0
5, 79979, Note_on_c, 9, 70, 60
5, 79979, Note_on_c, 9, 60, 50
5, 79994, Note_on_c, 9, 60, 0
5, 79994, Note_on_c, 9, 70, 0
5, 80039, Note_on_c, 9, 70, 80
5, 80039, Note_on_c, 9, 64, 120
5, 80039, Note_on_c, 9, 36, 60
5, 80054, Note_on_c, 9, 36, 0
5, 80054, Note_on_c, 9, 64, 0
5, 80054, Note_on_c, 9, 70, 0
5, 80093, Note_on_c, 9, 76, 34
5, 80099, Note_on_c, 9, 70, 60
5, 80099, Note_on_c, 9, 64, 120
5, 80099, Note_on_c, 9, 56, 48
5, 80105, Note_on_c, 9, 76, 0
5, 80114, Note_on_c, 9, 70, 0
5, 80114, Note_on_c, 9, 64, 0
5, 80114, Note_on_c, 9, 56, 0
5, 80160, Note_on_c, 9, 60, 50
5, 80160, Note_on_c, 9, 70, 80
5, 80161, Note_on_c, 9, 56, 70
5, 80174, Note_on_c, 9, 70, 0
5, 80174, Note_on_c, 9, 60, 0
5, 80175, Note_on_c, 9, 56, 0
5, 80219, Note_on_c, 9, 70, 60
5, 80219, Note_on_c, 9, 62, 57
5, 80233, Note_on_c, 9, 70, 0
5, 80234, Note_on_c, 9, 62, 0
5, 80249, Note_on_c, 9, 70, 70
5, 80264, Note_on_c, 9, 70, 0
5, 80279, Note_on_c, 9, 70, 80
5, 80279, Note_on_c, 9, 62, 120
5, 80294, Note_on_c, 9, 62, 0
5, 80294, Note_on_c, 9, 70, 0
5, 80339, Note_on_c, 9, 70, 60
5, 80339, Note_on_c, 9, 60, 50
5, 80339, Note_on_c, 9, 56, 48
5, 80339, Note_on_c, 9, 36, 60
5, 80354, Note_on_c, 9, 36, 0
5, 80354, Note_on_c, 9, 70, 0
5, 80354, Note_on_c, 9, 60, 0
5, 80354, Note_on_c, 9, 56, 0
5, 80399, Note_on_c, 9, 70, 80
5, 80399, Note_on_c, 9, 61, 50
5, 80399, Note_on_c, 9, 56, 70
5, 80414, Note_on_c, 9, 56, 0
5, 80414, Note_on_c, 9, 61, 0
5, 80414, Note_on_c, 9, 70, 0
5, 80459, Note_on_c, 9, 70, 60
5, 80459, Note_on_c, 9, 61, 50
5, 80466, Note_on_c, 9, 77, 46
5, 80474, Note_on_c, 9, 61, 0
5, 80474, Note_on_c, 9, 70, 0
5, 80486, Note_on_c, 9, 77, 0
5, 80519, Note_on_c, 9, 70, 80
5, 80519, Note_on_c, 9, 64, 120
5, 80519, Note_on_c, 9, 36, 60
5, 80534, Note_on_c, 9, 36, 0
5, 80534, Note_on_c, 9, 64, 0
5, 80534, Note_on_c, 9, 70, 0
5, 80579, Note_on_c, 9, 70, 60
5, 80579, Note_on_c, 9, 64, 120
5, 80579, Note_on_c, 9, 56, 48
5, 80594, Note_on_c, 9, 56, 0
5, 80594, Note_on_c, 9, 64, 0
5, 80594, Note_on_c, 9, 70, 0
5, 80639, Note_on_c, 9, 70, 80
5, 80639, Note_on_c, 9, 60, 50
5, 80639, Note_on_c, 9, 56, 70
5, 80654, Note_on_c, 9, 56, 0
5, 80654, Note_on_c, 9, 60, 0
5, 80654, Note_on_c, 9, 70, 0
5, 80699, Note_on_c, 9, 70, 60
5, 80699, Note_on_c, 9, 62, 57
5, 80714, Note_on_c, 9, 62, 0
5, 80714, Note_on_c, 9, 70, 0
5, 80729, Note_on_c, 9, 70, 70
5, 80744, Note_on_c, 9, 70, 0
5, 80759, Note_on_c, 9, 70, 60
5, 80759, Note_on_c, 9, 62, 120
5, 80774, Note_on_c, 9, 62, 0
5, 80774, Note_on_c, 9, 70, 0
5, 80819, Note_on_c, 9, 70, 60
5, 80819, Note_on_c, 9, 61, 50
5, 80819, Note_on_c, 9, 56, 48
5, 80819, Note_on_c, 9, 36, 60
5, 80828, Note_on_c, 9, 76, 38
5, 80834, Note_on_c, 9, 36, 0
5, 80834, Note_on_c, 9, 56, 0
5, 80834, Note_on_c, 9, 70, 0
5, 80834, Note_on_c, 9, 61, 0
5, 80840, Note_on_c, 9, 76, 0
5, 80879, Note_on_c, 9, 70, 80
5, 80879, Note_on_c, 9, 60, 50
5, 80879, Note_on_c, 9, 56, 70
5, 80894, Note_on_c, 9, 56, 0
5, 80894, Note_on_c, 9, 60, 0
5, 80894, Note_on_c, 9, 70, 0
5, 80939, Note_on_c, 9, 70, 60
5, 80939, Note_on_c, 9, 60, 50
5, 80954, Note_on_c, 9, 60, 0
5, 80954, Note_on_c, 9, 70, 0
5, 80999, Note_on_c, 9, 70, 80
5, 80999, Note_on_c, 9, 64, 120
5, 80999, Note_on_c, 9, 36, 60
5, 81014, Note_on_c, 9, 36, 0
5, 81014, Note_on_c, 9, 64, 0
5, 81014, Note_on_c, 9, 70, 0
5, 81059, Note_on_c, 9, 70, 60
5, 81059, Note_on_c, 9, 64, 120
5, 81059, Note_on_c, 9, 56, 48
5, 81074, Note_on_c, 9, 56, 0
5, 81074, Note_on_c, 9, 64, 0
5, 81074, Note_on_c, 9, 70, 0
5, 81120, Program_c, 9, 0
5, 81121, Note_on_c, 9, 70, 80
5, 81121, Note_on_c, 9, 60, 50
5, 81121, Note_on_c, 9, 56, 70
5, 81135, Note_on_c, 9, 60, 0
5, 81135, Note_on_c, 9, 70, 0
5, 81136, Note_on_c, 9, 56, 0
5, 81179, Note_on_c, 9, 70, 60
5, 81179, Note_on_c, 9, 62, 57
5, 81194, Note_on_c, 9, 62, 0
5, 81194, Note_on_c, 9, 70, 0
5, 81209, Note_on_c, 9, 70, 70
5, 81224, Note_on_c, 9, 70, 0
5, 81239, Note_on_c, 9, 70, 80
5, 81239, Note_on_c, 9, 62, 120
5, 81254, Note_on_c, 9, 62, 0
5, 81254, Note_on_c, 9, 70, 0
5, 81294, Note_on_c, 9, 78, 40
5, 81299, Note_on_c, 9, 70, 60
5, 81299, Note_on_c, 9, 60, 50
5, 81299, Note_on_c, 9, 56, 48
5, 81299, Note_on_c, 9, 36, 60
5, 81309, Note_on_c, 9, 78, 0
5, 81314, Note_on_c, 9, 56, 0
5, 81314, Note_on_c, 9, 70, 0
5, 81314, Note_on_c, 9, 60, 0
5, 81314, Note_on_c, 9, 36, 0
5, 81359, Note_on_c, 9, 70, 80
5, 81359, Note_on_c, 9, 61, 50
5, 81359, Note_on_c, 9, 56, 70
5, 81374, Note_on_c, 9, 56, 0
5, 81374, Note_on_c, 9, 61, 0
5, 81374, Note_on_c, 9, 70, 0
5, 81419, Note_on_c, 9, 70, 60
5, 81419, Note_on_c, 9, 61, 50
5, 81434, Note_on_c, 9, 61, 0
5, 81434, Note_on_c, 9, 70, 0
5, 81472, Note_on_c, 9, 79, 36
5, 81479, Note_on_c, 9, 70, 80
5, 81479, Note_on_c, 9, 64, 120
5, 81479, Note_on_c, 9, 36, 60
5, 81494, Note_on_c, 9, 36, 0
5, 81494, Note_on_c, 9, 64, 0
5, 81494, Note_on_c, 9, 70, 0
5, 81513, Note_on_c, 9, 79, 0
5, 81539, Note_on_c, 9, 70, 60
5, 81539, Note_on_c, 9, 64, 120
5, 81539, Note_on_c, 9, 56, 48
5, 81541, Note_on_c, 9, 79, 34
5, 81553, Note_on_c, 9, 56, 0
5, 81554, Note_on_c, 9, 70, 0
5, 81554, Note_on_c, 9, 64, 0
5, 81571, Note_on_c, 9, 79, 0
5, 81599, Note_on_c, 9, 70, 80
5, 81599, Note_on_c, 9, 60, 50
5, 81599, Note_on_c, 9, 56, 70
5, 81614, Note_on_c, 9, 56, 0
5, 81614, Note_on_c, 9, 60, 0
5, 81614, Note_on_c, 9, 70, 0
5, 81659, Note_on_c, 9, 62, 57
5, 81659, Note_on_c, 9, 70, 60
5, 81674, Note_on_c, 9, 70, 0
5, 81674, Note_on_c, 9, 62, 0
5, 81689, Note_on_c, 9, 70, 70
5, 81704, Note_on_c, 9, 70, 0
5, 81719, Note_on_c, 9, 62, 120
5, 81719, Note_on_c, 9, 70, 60
5, 81726, Note_on_c, 9, 78, 13
5, 81734, Note_on_c, 9, 70, 0
5, 81734, Note_on_c, 9, 62, 0
5, 81757, Note_on_c, 9, 78, 0
5, 81779, Note_on_c, 9, 36, 60
5, 81779, Note_on_c, 9, 56, 48
5, 81779, Note_on_c, 9, 61, 50
5, 81779, Note_on_c, 9, 70, 60
5, 81788, Note_on_c, 9, 78, 12
5, 81794, Note_on_c, 9, 70, 0
5, 81794, Note_on_c, 9, 61, 0
5, 81794, Note_on_c, 9, 36, 0
5, 81794, Note_on_c, 9, 56, 0
5, 81822, Note_on_c, 9, 78, 0
5, 81839, Note_on_c, 9, 56, 70
5, 81839, Note_on_c, 9, 60, 50
5, 81839, Note_on_c, 9, 70, 80
5, 81854, Note_on_c, 9, 70, 0
5, 81854, Note_on_c, 9, 60, 0
5, 81854, Note_on_c, 9, 56, 0
5, 81899, Note_on_c, 9, 60, 50
5, 81899, Note_on_c, 9, 70, 60
5, 81914, Note_on_c, 9, 70, 0
5, 81914, Note_on_c, 9, 60, 0
5, 81959, Note_on_c, 9, 36, 60
5, 81959, Note_on_c, 9, 64, 120
5, 81959, Note_on_c, 9, 70, 80
5, 81961, Note_on_c, 9, 79, 45
5, 81974, Note_on_c, 9, 70, 0
5, 81974, Note_on_c, 9, 36, 0
5, 81974, Note_on_c, 9, 64, 0
5, 82015, Note_on_c, 9, 79, 0
5, 82019, Note_on_c, 9, 56, 48
5, 82019, Note_on_c, 9, 64, 120
5, 82019, Note_on_c, 9, 70, 60
5, 82034, Note_on_c, 9, 70, 0
5, 82034, Note_on_c, 9, 64, 0
5, 82034, Note_on_c, 9, 56, 0
5, 82080, Note_on_c, 9, 70, 80
5, 82080, Note_on_c, 9, 60, 50
5, 82081, Note_on_c, 9, 56, 70
5, 82094, Note_on_c, 9, 60, 0
5, 82094, Note_on_c, 9, 70, 0
5, 82095, Note_on_c, 9, 56, 0
5, 82139, Note_on_c, 9, 62, 57
5, 82139, Note_on_c, 9, 70, 60
5, 82154, Note_on_c, 9, 70, 0
5, 82154, Note_on_c, 9, 62, 0
5, 82169, Note_on_c, 9, 70, 70
5, 82184, Note_on_c, 9, 70, 0
5, 82192, Note_on_c, 9, 78, 17
5, 82199, Note_on_c, 9, 62, 120
5, 82199, Note_on_c, 9, 70, 80
5, 82213, Note_on_c, 9, 70, 0
5, 82213, Note_on_c, 9, 62, 0
5, 82223, Note_on_c, 9, 78, 0
5, 82258, Note_on_c, 9, 78, 15
5, 82259, Note_on_c, 9, 36, 60
5, 82259, Note_on_c, 9, 56, 48
5, 82259, Note_on_c, 9, 60, 50
5, 82259, Note_on_c, 9, 70, 60
5, 82274, Note_on_c, 9, 70, 0
5, 82274, Note_on_c, 9, 56, 0
5, 82274, Note_on_c, 9, 60, 0
5, 82274, Note_on_c, 9, 36, 0
5, 82294, Note_on_c, 9, 78, 0
5, 82319, Note_on_c, 9, 56, 70
5, 82319, Note_on_c, 9, 61, 50
5, 82319, Note_on_c, 9, 70, 80
5, 82334, Note_on_c, 9, 70, 0
5, 82334, Note_on_c, 9, 61, 0
5, 82334, Note_on_c, 9, 56, 0
5, 82370, Note_on_c, 9, 79, 28
5, 82379, Note_on_c, 9, 61, 50
5, 82379, Note_on_c, 9, 70, 60
5, 82394, Note_on_c, 9, 70, 0
5, 82394, Note_on_c, 9, 61, 0
5, 82397, Note_on_c, 9, 79, 0
5, 82435, Note_on_c, 9, 79, 29
5, 82439, Note_on_c, 9, 36, 60
5, 82439, Note_on_c, 9, 64, 120
5, 82439, Note_on_c, 9, 70, 80
5, 82454, Note_on_c, 9, 70, 0
5, 82454, Note_on_c, 9, 79, 0
5, 82454, Note_on_c, 9, 36, 0
5, 82454, Note_on_c, 9, 64, 0
5, 82499, Note_on_c, 9, 56, 48
5, 82499, Note_on_c, 9, 64, 120
5, 82499, Note_on_c, 9, 70, 60
5, 82509, Note_on_c, 9, 79, 71
5, 82514, Note_on_c, 9, 70, 0
5, 82514, Note_on_c, 9, 56, 0
5, 82514, Note_on_c, 9, 64, 0
5, 82558, Note_on_c, 9, 79, 0
5, 82559, Note_on_c, 9, 56, 70
5, 82559, Note_on_c, 9, 60, 50
5, 82559, Note_on_c, 9, 70, 80
5, 82574, Note_on_c, 9, 70, 0
5, 82574, Note_on_c, 9, 60, 0
5, 82574, Note_on_c, 9, 56, 0
5, 82619, Note_on_c, 9, 62, 57
5, 82619, Note_on_c, 9, 70, 60
5, 82634, Note_on_c, 9, 70, 0
5, 82634, Note_on_c, 9, 62, 0
5, 82649, Note_on_c, 9, 70, 70
5, 82664, Note_on_c, 9, 70, 0
5, 82668, Note_on_c, 9, 78, 16
5, 82679, Note_on_c, 9, 62, 120
5, 82679, Note_on_c, 9, 70, 60
5, 82694, Note_on_c, 9, 70, 0
5, 82694, Note_on_c, 9, 62, 0
5, 82700, Note_on_c, 9, 78, 0
5, 82739, Note_on_c, 9, 36, 60
5, 82739, Note_on_c, 9, 56, 48
5, 82739, Note_on_c, 9, 61, 50
5, 82739, Note_on_c, 9, 70, 60
5, 82743, Note_on_c, 9, 78, 21
5, 82754, Note_on_c, 9, 70, 0
5, 82754, Note_on_c, 9, 61, 0
5, 82754, Note_on_c, 9, 36, 0
5, 82754, Note_on_c, 9, 56, 0
5, 82762, Note_on_c, 9, 78, 0
5, 82799, Note_on_c, 9, 56, 70
5, 82799, Note_on_c, 9, 60, 50
5, 82799, Note_on_c, 9, 70, 80
5, 82814, Note_on_c, 9, 70, 0
5, 82814, Note_on_c, 9, 60, 0
5, 82814, Note_on_c, 9, 56, 0
5, 82858, Note_on_c, 9, 79, 58
5, 82859, Note_on_c, 9, 60, 50
5, 82859, Note_on_c, 9, 70, 60
5, 82873, Note_on_c, 9, 70, 0
5, 82873, Note_on_c, 9, 60, 0
5, 82905, Note_on_c, 9, 79, 0
5, 82919, Note_on_c, 9, 36, 60
5, 82919, Note_on_c, 9, 64, 120
5, 82919, Note_on_c, 9, 70, 80
5, 82934, Note_on_c, 9, 70, 0
5, 82934, Note_on_c, 9, 64, 0
5, 82934, Note_on_c, 9, 36, 0
5, 82979, Note_on_c, 9, 56, 48
5, 82979, Note_on_c, 9, 64, 120
5, 82979, Note_on_c, 9, 70, 60
5, 82984, Note_on_c, 9, 79, 42
5, 82994, Note_on_c, 9, 70, 0
5, 82994, Note_on_c, 9, 56, 0
5, 82994, Note_on_c, 9, 64, 0
5, 82998, Note_on_c, 9, 79, 0
5, 83039, Note_on_c, 9, 79, 53
5, 83040, Program_c, 9, 0
5, 83041, Note_on_c, 9, 56, 70
5, 83041, Note_on_c, 9, 60, 50
5, 83041, Note_on_c, 9, 70, 80
5, 83055, Note_on_c, 9, 70, 0
5, 83055, Note_on_c, 9, 60, 0
5, 83056, Note_on_c, 9, 56, 0
5, 83089, Note_on_c, 9, 79, 0
5, 83099, Note_on_c, 9, 62, 57
5, 83099, Note_on_c, 9, 70, 60
5, 83114, Note_on_c, 9, 70, 0
5, 83114, Note_on_c, 9, 62, 0
5, 83129, Note_on_c, 9, 63, 100
5, 83129, Note_on_c, 9, 64, 100
5, 83129, Note_on_c, 9, 70, 70
5, 83143, Note_on_c, 9, 64, 0
5, 83144, Note_on_c, 9, 70, 0
5, 83148, Note_on_c, 9, 63, 0
5, 83159, Note_on_c, 9, 62, 120
5, 83159, Note_on_c, 9, 70, 80
5, 83174, Note_on_c, 9, 70, 0
5, 83174, Note_on_c, 9, 62, 0
5, 83219, Note_on_c, 9, 36, 60
5, 83219, Note_on_c, 9, 56, 48
5, 83219, Note_on_c, 9, 60, 50
5, 83219, Note_on_c, 9, 70, 60
5, 83221, Note_on_c, 9, 78, 34
5, 83234, Note_on_c, 9, 70, 0
5, 83234, Note_on_c, 9, 60, 0
5, 83234, Note_on_c, 9, 36, 0
5, 83234, Note_on_c, 9, 56, 0
5, 83247, Note_on_c, 9, 78, 0
5, 83279, Note_on_c, 9, 56, 70
5, 83279, Note_on_c, 9, 61, 50
5, 83279, Note_on_c, 9, 70, 80
5, 83294, Note_on_c, 9, 70, 0
5, 83294, Note_on_c, 9, 61, 0
5, 83294, Note_on_c, 9, 56, 0
5, 83339, Note_on_c, 9, 61, 50
5, 83339, Note_on_c, 9, 70, 60
5, 83354, Note_on_c, 9, 70, 0
5, 83354, Note_on_c, 9, 61, 0
5, 83399, Note_on_c, 9, 36, 60
5, 83399, Note_on_c, 9, 64, 120
5, 83399, Note_on_c, 9, 70, 80
5, 83404, Note_on_c, 9, 79, 58
5, 83414, Note_on_c, 9, 70, 0
5, 83414, Note_on_c, 9, 36, 0
5, 83414, Note_on_c, 9, 64, 0
5, 83445, Note_on_c, 9, 79, 0
5, 83459, Note_on_c, 9, 56, 48
5, 83459, Note_on_c, 9, 64, 120
5, 83459, Note_on_c, 9, 70, 60
5, 83474, Note_on_c, 9, 70, 0
5, 83474, Note_on_c, 9, 64, 0
5, 83474, Note_on_c, 9, 56, 0
5, 83519, Note_on_c, 9, 56, 70
5, 83519, Note_on_c, 9, 60, 50
5, 83519, Note_on_c, 9, 70, 80
5, 83534, Note_on_c, 9, 70, 0
5, 83534, Note_on_c, 9, 60, 0
5, 83534, Note_on_c, 9, 56, 0
5, 83579, Note_on_c, 9, 62, 57
5, 83579, Note_on_c, 9, 70, 60
5, 83590, Note_on_c, 9, 78, 44
5, 83594, Note_on_c, 9, 70, 0
5, 83594, Note_on_c, 9, 62, 0
5, 83609, Note_on_c, 9, 70, 70
5, 83611, Note_on_c, 9, 78, 0
5, 83624, Note_on_c, 9, 70, 0
5, 83639, Note_on_c, 9, 62, 120
5, 83639, Note_on_c, 9, 70, 60
5, 83641, Note_on_c, 9, 78, 30
5, 83654, Note_on_c, 9, 70, 0
5, 83654, Note_on_c, 9, 62, 0
5, 83667, Note_on_c, 9, 78, 0
5, 83699, Note_on_c, 9, 36, 60
5, 83699, Note_on_c, 9, 56, 48
5, 83699, Note_on_c, 9, 61, 50
5, 83699, Note_on_c, 9, 70, 60
5, 83708, Note_on_c, 9, 78, 57
5, 83714, Note_on_c, 9, 70, 0
5, 83714, Note_on_c, 9, 61, 0
5, 83714, Note_on_c, 9, 36, 0
5, 83714, Note_on_c, 9, 56, 0
5, 83743, Note_on_c, 9, 78, 0
5, 83759, Note_on_c, 9, 56, 70
5, 83759, Note_on_c, 9, 60, 50
5, 83759, Note_on_c, 9, 70, 80
5, 83774, Note_on_c, 9, 70, 0
5, 83774, Note_on_c, 9, 60, 0
5, 83774, Note_on_c, 9, 56, 0
5, 83819, Note_on_c, 9, 79, 54
5, 83819, Note_on_c, 9, 60, 50
5, 83819, Note_on_c, 9, 70, 60
5, 83834, Note_on_c, 9, 70, 0
5, 83834, Note_on_c, 9, 60, 0
5, 83857, Note_on_c, 9, 79, 0
5, 83879, Note_on_c, 9, 36, 60
5, 83879, Note_on_c, 9, 64, 120
5, 83879, Note_on_c, 9, 70, 80
5, 83894, Note_on_c, 9, 70, 0
5, 83894, Note_on_c, 9, 64, 0
5, 83894, Note_on_c, 9, 36, 0
5, 83939, Note_on_c, 9, 56, 48
5, 83939, Note_on_c, 9, 64, 120
5, 83939, Note_on_c, 9, 70, 60
5, 83944, Note_on_c, 9, 79, 57
5, 83954, Note_on_c, 9, 70, 0
5, 83954, Note_on_c, 9, 56, 0
5, 83954, Note_on_c, 9, 64, 0
5, 83981, Note_on_c, 9, 79, 0
5, 84000, Note_on_c, 9, 70, 80
5, 84000, Note_on_c, 9, 60, 50
5, 84001, Note_on_c, 9, 56, 70
5, 84014, Note_on_c, 9, 60, 0
5, 84014, Note_on_c, 9, 70, 0
5, 84015, Note_on_c, 9, 56, 0
5, 84059, Note_on_c, 9, 78, 24
5, 84059, Note_on_c, 9, 62, 57
5, 84059, Note_on_c, 9, 63, 93
5, 84059, Note_on_c, 9, 70, 60
5, 84072, Note_on_c, 9, 63, 0
5, 84074, Note_on_c, 9, 78, 0
5, 84074, Note_on_c, 9, 62, 0
5, 84074, Note_on_c, 9, 70, 0
5, 84089, Note_on_c, 9, 62, 100
5, 84089, Note_on_c, 9, 70, 70
5, 84104, Note_on_c, 9, 70, 0
5, 84115, Note_on_c, 9, 79, 51
5, 84119, Note_on_c, 9, 62, 120
5, 84119, Note_on_c, 9, 70, 80
5, 84120, Note_on_c, 9, 62, 0
5, 84134, Note_on_c, 9, 70, 0
5, 84134, Note_on_c, 9, 62, 0
5, 84150, Note_on_c, 9, 79, 0
5, 84179, Note_on_c, 9, 36, 60
5, 84179, Note_on_c, 9, 56, 48
5, 84179, Note_on_c, 9, 60, 50
5, 84179, Note_on_c, 9, 70, 60
5, 84193, Note_on_c, 9, 56, 0
5, 84194, Note_on_c, 9, 36, 0
5, 84194, Note_on_c, 9, 60, 0
5, 84194, Note_on_c, 9, 70, 0
5, 84239, Note_on_c, 9, 56, 70
5, 84239, Note_on_c, 9, 61, 50
5, 84239, Note_on_c, 9, 63, 97
5, 84239, Note_on_c, 9, 70, 80
5, 84252, Note_on_c, 9, 63, 0
5, 84254, Note_on_c, 9, 56, 0
5, 84254, Note_on_c, 9, 61, 0
5, 84254, Note_on_c, 9, 70, 0
5, 84269, Note_on_c, 9, 62, 100
5, 84299, Note_on_c, 9, 62, 0
5, 84299, Note_on_c, 9, 61, 50
5, 84299, Note_on_c, 9, 70, 60
5, 84314, Note_on_c, 9, 70, 0
5, 84314, Note_on_c, 9, 61, 0
5, 84359, Note_on_c, 9, 36, 60
5, 84359, Note_on_c, 9, 64, 120
5, 84359, Note_on_c, 9, 70, 80
5, 84374, Note_on_c, 9, 70, 0
5, 84374, Note_on_c, 9, 64, 0
5, 84374, Note_on_c, 9, 36, 0
5, 84412, Note_on_c, 9, 78, 28
5, 84419, Note_on_c, 9, 56, 48
5, 84419, Note_on_c, 9, 64, 120
5, 84419, Note_on_c, 9, 70, 60
5, 84423, Note_on_c, 9, 78, 0
5, 84434, Note_on_c, 9, 56, 0
5, 84434, Note_on_c, 9, 64, 0
5, 84434, Note_on_c, 9, 70, 0
5, 84479, Note_on_c, 9, 56, 70
5, 84479, Note_on_c, 9, 60, 50
5, 84479, Note_on_c, 9, 70, 80
5, 84480, Note_on_c, 9, 78, 40
5, 84494, Note_on_c, 9, 70, 0
5, 84494, Note_on_c, 9, 56, 0
5, 84494, Note_on_c, 9, 60, 0
5, 84512, Note_on_c, 9, 78, 0
5, 84539, Note_on_c, 9, 62, 57
5, 84539, Note_on_c, 9, 70, 60
5, 84554, Note_on_c, 9, 70, 0
5, 84554, Note_on_c, 9, 62, 0
5, 84569, Note_on_c, 9, 70, 70
5, 84584, Note_on_c, 9, 70, 0
5, 84599, Note_on_c, 9, 62, 120
5, 84599, Note_on_c, 9, 70, 60
5, 84614, Note_on_c, 9, 70, 0
5, 84614, Note_on_c, 9, 62, 0
5, 84659, Note_on_c, 9, 36, 60
5, 84659, Note_on_c, 9, 56, 48
5, 84659, Note_on_c, 9, 61, 50
5, 84659, Note_on_c, 9, 70, 60
5, 84666, Note_on_c, 9, 78, 37
5, 84674, Note_on_c, 9, 70, 0
5, 84674, Note_on_c, 9, 61, 0
5, 84674, Note_on_c, 9, 36, 0
5, 84674, Note_on_c, 9, 56, 0
5, 84692, Note_on_c, 9, 78, 0
5, 84719, Note_on_c, 9, 56, 70
5, 84719, Note_on_c, 9, 60, 50
5, 84719, Note_on_c, 9, 70, 80
5, 84734, Note_on_c, 9, 70, 0
5, 84734, Note_on_c, 9, 60, 0
5, 84734, Note_on_c, 9, 56, 0
5, 84773, Note_on_c, 9, 57, 51
5, 84779, Note_on_c, 9, 60, 50
5, 84779, Note_on_c, 9, 65, 81
5, 84779, Note_on_c, 9, 70, 60
5, 84794, Note_on_c, 9, 70, 0
5, 84794, Note_on_c, 9, 60, 0
5, 84796, Note_on_c, 9, 57, 0
5, 84812, Note_on_c, 9, 65, 0
5, 84839, Note_on_c, 9, 36, 60
5, 84839, Note_on_c, 9, 64, 120
5, 84839, Note_on_c, 9, 70, 80
5, 84854, Note_on_c, 9, 70, 0
5, 84854, Note_on_c, 9, 64, 0
5, 84854, Note_on_c, 9, 36, 0
5, 84894, Note_on_c, 9, 57, 60
5, 84899, Note_on_c, 9, 56, 48
5, 84899, Note_on_c, 9, 64, 120
5, 84899, Note_on_c, 9, 65, 81
5, 84899, Note_on_c, 9, 70, 60
5, 84914, Note_on_c, 9, 70, 0
5, 84914, Note_on_c, 9, 64, 0
5, 84914, Note_on_c, 9, 56, 0
5, 84918, Note_on_c, 9, 57, 0
5, 84928, Note_on_c, 9, 65, 0
5, 84956, Note_on_c, 9, 78, 28
5, 84960, Program_c, 9, 0
5, 84961, Note_on_c, 9, 56, 70
5, 84961, Note_on_c, 9, 60, 50
5, 84961, Note_on_c, 9, 70, 80
5, 84975, Note_on_c, 9, 70, 0
5, 84975, Note_on_c, 9, 60, 0
5, 84976, Note_on_c, 9, 56, 0
5, 85009, Note_on_c, 9, 78, 0
5, 85019, Note_on_c, 9, 62, 57
5, 85019, Note_on_c, 9, 70, 60
5, 85034, Note_on_c, 9, 70, 0
5, 85034, Note_on_c, 9, 62, 0
5, 85049, Note_on_c, 9, 66, 72
5, 85049, Note_on_c, 9, 70, 70
5, 85064, Note_on_c, 9, 70, 0
5, 85068, Note_on_c, 9, 66, 0
5, 85079, Note_on_c, 9, 62, 120
5, 85079, Note_on_c, 9, 70, 80
5, 85094, Note_on_c, 9, 70, 0
5, 85094, Note_on_c, 9, 62, 0
5, 85139, Note_on_c, 9, 36, 60
5, 85139, Note_on_c, 9, 56, 48
5, 85139, Note_on_c, 9, 60, 50
5, 85139, Note_on_c, 9, 70, 60
5, 85148, Note_on_c, 9, 78, 23
5, 85154, Note_on_c, 9, 70, 0
5, 85154, Note_on_c, 9, 60, 0
5, 85154, Note_on_c, 9, 36, 0
5, 85154, Note_on_c, 9, 56, 0
5, 85162, Note_on_c, 9, 78, 0
5, 85199, Note_on_c, 9, 56, 70
5, 85199, Note_on_c, 9, 61, 50
5, 85199, Note_on_c, 9, 70, 80
5, 85202, Note_on_c, 9, 78, 37
5, 85214, Note_on_c, 9, 70, 0
5, 85214, Note_on_c, 9, 56, 0
5, 85214, Note_on_c, 9, 61, 0
5, 85242, Note_on_c, 9, 78, 0
5, 85259, Note_on_c, 9, 61, 50
5, 85259, Note_on_c, 9, 70, 60
5, 85274, Note_on_c, 9, 70, 0
5, 85274, Note_on_c, 9, 61, 0
5, 85313, Note_on_c, 9, 79, 41
5, 85319, Note_on_c, 9, 36, 60
5, 85319, Note_on_c, 9, 64, 120
5, 85319, Note_on_c, 9, 70, 80
5, 85334, Note_on_c, 9, 70, 0
5, 85334, Note_on_c, 9, 64, 0
5, 85334, Note_on_c, 9, 36, 0
5, 85346, Note_on_c, 9, 79, 0
5, 85379, Note_on_c, 9, 56, 48
5, 85379, Note_on_c, 9, 64, 120
5, 85379, Note_on_c, 9, 70, 60
5, 85394, Note_on_c, 9, 70, 0
5, 85394, Note_on_c, 9, 64, 0
5, 85394, Note_on_c, 9, 56, 0
5, 85439, Note_on_c, 9, 56, 70
5, 85439, Note_on_c, 9, 60, 50
5, 85439, Note_on_c, 9, 70, 80
5, 85454, Note_on_c, 9, 70, 0
5, 85454, Note_on_c, 9, 60, 0
5, 85454, Note_on_c, 9, 56, 0
5, 85499, Note_on_c, 9, 62, 57
5, 85499, Note_on_c, 9, 65, 53
5, 85499, Note_on_c, 9, 70, 60
5, 85513, Note_on_c, 9, 70, 0
5, 85513, Note_on_c, 9, 62, 0
5, 85529, Note_on_c, 9, 65, 0
5, 85529, Note_on_c, 9, 70, 70
5, 85544, Note_on_c, 9, 70, 0
5, 85559, Note_on_c, 9, 62, 120
5, 85559, Note_on_c, 9, 66, 79
5, 85559, Note_on_c, 9, 70, 60
5, 85562, Note_on_c, 9, 78, 30
5, 85574, Note_on_c, 9, 70, 0
5, 85574, Note_on_c, 9, 62, 0
5, 85583, Note_on_c, 9, 66, 0
5, 85595, Note_on_c, 9, 78, 0
5, 85619, Note_on_c, 9, 78, 23
5, 85619, Note_on_c, 9, 36, 60
5, 85619, Note_on_c, 9, 56, 48
5, 85619, Note_on_c, 9, 61, 50
5, 85619, Note_on_c, 9, 70, 60
5, 85634, Note_on_c, 9, 70, 0
5, 85634, Note_on_c, 9, 56, 0
5, 85634, Note_on_c, 9, 61, 0
5, 85634, Note_on_c, 9, 36, 0
5, 85664, Note_on_c, 9, 78, 0
5, 85679, Note_on_c, 9, 56, 70
5, 85679, Note_on_c, 9, 60, 50
5, 85679, Note_on_c, 9, 70, 80
5, 85694, Note_on_c, 9, 70, 0
5, 85694, Note_on_c, 9, 60, 0
5, 85694, Note_on_c, 9, 56, 0
5, 85739, Note_on_c, 9, 70, 60
5, 85739, Note_on_c, 9, 66, 79
5, 85739, Note_on_c, 9, 60, 50
5, 85754, Note_on_c, 9, 60, 0
5, 85754, Note_on_c, 9, 70, 0
5, 85766, Note_on_c, 9, 66, 0
5, 85799, Note_on_c, 9, 70, 80
5, 85799, Note_on_c, 9, 64, 120
5, 85799, Note_on_c, 9, 36, 60
5, 85806, Note_on_c, 9, 79, 28
5, 85814, Note_on_c, 9, 36, 0
5, 85814, Note_on_c, 9, 70, 0
5, 85814, Note_on_c, 9, 64, 0
5, 85845, Note_on_c, 9, 79, 0
5, 85859, Note_on_c, 9, 70, 60
5, 85859, Note_on_c, 9, 64, 120
5, 85859, Note_on_c, 9, 56, 48
5, 85874, Note_on_c, 9, 56, 0
5, 85874, Note_on_c, 9, 64, 0
5, 85874, Note_on_c, 9, 70, 0
5, 85874, Note_on_c, 9, 79, 39
5, 85915, Note_on_c, 9, 79, 0
5, 85920, Note_on_c, 9, 56, 70
5, 85920, Note_on_c, 9, 60, 50
5, 85920, Note_on_c, 9, 70, 80
5, 85934, Note_on_c, 9, 70, 0
5, 85934, Note_on_c, 9, 60, 0
5, 85934, Note_on_c, 9, 56, 0
5, 85979, Note_on_c, 9, 70, 60
5, 85979, Note_on_c, 9, 65, 69
5, 85979, Note_on_c, 9, 62, 57
5, 85994, Note_on_c, 9, 62, 0
5, 85994, Note_on_c, 9, 70, 0
5, 86007, Note_on_c, 9, 65, 0
5, 86009, Note_on_c, 9, 70, 70
5, 86024, Note_on_c, 9, 70, 0
5, 86038, Note_on_c, 9, 78, 19
5, 86039, Note_on_c, 9, 70, 80
5, 86039, Note_on_c, 9, 62, 120
5, 86054, Note_on_c, 9, 62, 0
5, 86054, Note_on_c, 9, 70, 0
5, 86065, Note_on_c, 9, 78, 0
5, 86099, Note_on_c, 9, 70, 60
5, 86099, Note_on_c, 9, 65, 81
5, 86099, Note_on_c, 9, 60, 50
5, 86099, Note_on_c, 9, 56, 48
5, 86099, Note_on_c, 9, 36, 60
5, 86100, Note_on_c, 9, 78, 37
5, 86114, Note_on_c, 9, 36, 0
5, 86114, Note_on_c, 9, 56, 0
5, 86114, Note_on_c, 9, 60, 0
5, 86114, Note_on_c, 9, 70, 0
5, 86123, Note_on_c, 9, 65, 0
5, 86134, Note_on_c, 9, 78, 0
5, 86159, Note_on_c, 9, 70, 80
5, 86159, Note_on_c, 9, 61, 50
5, 86159, Note_on_c, 9, 56, 70
5, 86174, Note_on_c, 9, 56, 0
5, 86174, Note_on_c, 9, 61, 0
5, 86174, Note_on_c, 9, 70, 0
5, 86219, Note_on_c, 9, 70, 60
5, 86219, Note_on_c, 9, 61, 50
5, 86225, Note_on_c, 9, 79, 35
5, 86234, Note_on_c, 9, 61, 0
5, 86234, Note_on_c, 9, 70, 0
5, 86245, Note_on_c, 9, 79, 0
5, 86279, Note_on_c, 9, 70, 80
5, 86279, Note_on_c, 9, 64, 120
5, 86279, Note_on_c, 9, 36, 60
5, 86279, Note_on_c, 9, 79, 31
5, 86294, Note_on_c, 9, 36, 0
5, 86294, Note_on_c, 9, 70, 0
5, 86294, Note_on_c, 9, 64, 0
5, 86330, Note_on_c, 9, 79, 0
5, 86339, Note_on_c, 9, 70, 60
5, 86339, Note_on_c, 9, 64, 120
5, 86339, Note_on_c, 9, 56, 48
5, 86354, Note_on_c, 9, 56, 0
5, 86354, Note_on_c, 9, 64, 0
5, 86354, Note_on_c, 9, 70, 0
5, 86399, Note_on_c, 9, 70, 80
5, 86399, Note_on_c, 9, 60, 50
5, 86399, Note_on_c, 9, 56, 70
5, 86414, Note_on_c, 9, 56, 0
5, 86414, Note_on_c, 9, 60, 0
5, 86414, Note_on_c, 9, 70, 0
5, 86459, Note_on_c, 9, 70, 60
5, 86459, Note_on_c, 9, 65, 53
5, 86459, Note_on_c, 9, 62, 57
5, 86474, Note_on_c, 9, 62, 0
5, 86474, Note_on_c, 9, 70, 0
5, 86485, Note_on_c, 9, 65, 0
5, 86489, Note_on_c, 9, 70, 70
5, 86504, Note_on_c, 9, 70, 0
5, 86505, Note_on_c, 9, 78, 16
5, 86519, Note_on_c, 9, 70, 60
5, 86519, Note_on_c, 9, 66, 79
5, 86519, Note_on_c, 9, 62, 120
5, 86524, Note_on_c, 9, 78, 0
5, 86534, Note_on_c, 9, 70, 0
5, 86534, Note_on_c, 9, 62, 0
5, 86544, Note_on_c, 9, 66, 0
5, 86579, Note_on_c, 9, 70, 60
5, 86579, Note_on_c, 9, 61, 50
5, 86579, Note_on_c, 9, 56, 48
5, 86579, Note_on_c, 9, 36, 60
5, 86581, Note_on_c, 9, 78, 21
5, 86594, Note_on_c, 9, 36, 0
5, 86594, Note_on_c, 9, 56, 0
5, 86594, Note_on_c, 9, 70, 0
5, 86594, Note_on_c, 9, 61, 0
5, 86639, Note_on_c, 9, 70, 80
5, 86639, Note_on_c, 9, 66, 79
5, 86639, Note_on_c, 9, 60, 50
5, 86639, Note_on_c, 9, 56, 70
5, 86654, Note_on_c, 9, 56, 0
5, 86654, Note_on_c, 9, 70, 0
5, 86654, Note_on_c, 9, 60, 0
5, 86664, Note_on_c, 9, 66, 0
5, 86666, Note_on_c, 9, 78, 0
5, 86699, Note_on_c, 9, 70, 60
5, 86699, Note_on_c, 9, 60, 50
5, 86714, Note_on_c, 9, 60, 0
5, 86714, Note_on_c, 9, 70, 0
5, 86755, Note_on_c, 9, 79, 38
5, 86756, Note_on_c, 9, 72, 31
5, 86759, Note_on_c, 9, 70, 80
5, 86759, Note_on_c, 9, 64, 120
5, 86759, Note_on_c, 9, 36, 60
5, 86774, Note_on_c, 9, 36, 0
5, 86774, Note_on_c, 9, 70, 0
5, 86774, Note_on_c, 9, 64, 0
5, 86798, Note_on_c, 9, 72, 0
5, 86819, Note_on_c, 9, 70, 60
5, 86819, Note_on_c, 9, 64, 120
5, 86819, Note_on_c, 9, 56, 48
5, 86833, Note_on_c, 9, 56, 0
5, 86833, Note_on_c, 9, 70, 0
5, 86834, Note_on_c, 9, 64, 0
5, 86880, Program_c, 9, 0
5, 86881, Note_on_c, 9, 70, 80
5, 86881, Note_on_c, 9, 60, 50
5, 86881, Note_on_c, 9, 56, 70
5, 86895, Note_on_c, 9, 60, 0
5, 86895, Note_on_c, 9, 70, 0
5, 86896, Note_on_c, 9, 56, 0
5, 86913, Note_on_c, 9, 79, 0
5, 86939, Note_on_c, 9, 70, 60
5, 86939, Note_on_c, 9, 62, 57
5, 86951, Note_on_c, 9, 78, 22
5, 86954, Note_on_c, 9, 62, 0
5, 86954, Note_on_c, 9, 70, 0
5, 86967, Note_on_c, 9, 78, 0
5, 86969, Note_on_c, 9, 70, 70
5, 86984, Note_on_c, 9, 70, 0
5, 86999, Note_on_c, 9, 70, 80
5, 86999, Note_on_c, 9, 62, 120
5, 87002, Note_on_c, 9, 78, 12
5, 87014, Note_on_c, 9, 62, 0
5, 87014, Note_on_c, 9, 70, 0
5, 87030, Note_on_c, 9, 78, 0
5, 87059, Note_on_c, 9, 70, 60
5, 87059, Note_on_c, 9, 60, 50
5, 87059, Note_on_c, 9, 56, 48
5, 87059, Note_on_c, 9, 36, 60
5, 87074, Note_on_c, 9, 36, 0
5, 87074, Note_on_c, 9, 70, 0
5, 87074, Note_on_c, 9, 60, 0
5, 87074, Note_on_c, 9, 56, 0
5, 87119, Note_on_c, 9, 70, 80
5, 87119, Note_on_c, 9, 61, 50
5, 87119, Note_on_c, 9, 56, 70
5, 87134, Note_on_c, 9, 56, 0
5, 87134, Note_on_c, 9, 61, 0
5, 87134, Note_on_c, 9, 70, 0
5, 87179, Note_on_c, 9, 70, 60
5, 87179, Note_on_c, 9, 61, 50
5, 87186, Note_on_c, 9, 79, 44
5, 87194, Note_on_c, 9, 61, 0
5, 87194, Note_on_c, 9, 70, 0
5, 87233, Note_on_c, 9, 79, 0
5, 87239, Note_on_c, 9, 70, 80
5, 87239, Note_on_c, 9, 64, 120
5, 87239, Note_on_c, 9, 36, 60
5, 87254, Note_on_c, 9, 36, 0
5, 87254, Note_on_c, 9, 64, 0
5, 87254, Note_on_c, 9, 70, 0
5, 87295, Note_on_c, 9, 78, 14
5, 87299, Note_on_c, 9, 70, 60
5, 87299, Note_on_c, 9, 64, 120
5, 87299, Note_on_c, 9, 56, 48
5, 87309, Note_on_c, 9, 78, 0
5, 87314, Note_on_c, 9, 70, 0
5, 87314, Note_on_c, 9, 64, 0
5, 87314, Note_on_c, 9, 56, 0
5, 87359, Note_on_c, 9, 70, 80
5, 87359, Note_on_c, 9, 60, 50
5, 87359, Note_on_c, 9, 56, 70
5, 87364, Note_on_c, 9, 79, 39
5, 87374, Note_on_c, 9, 56, 0
5, 87374, Note_on_c, 9, 70, 0
5, 87374, Note_on_c, 9, 60, 0
5, 87406, Note_on_c, 9, 79, 0
5, 87419, Note_on_c, 9, 70, 60
5, 87419, Note_on_c, 9, 62, 57
5, 87434, Note_on_c, 9, 62, 0
5, 87434, Note_on_c, 9, 70, 0
5, 87449, Note_on_c, 9, 70, 70
5, 87464, Note_on_c, 9, 70, 0
5, 87479, Note_on_c, 9, 70, 60
5, 87479, Note_on_c, 9, 62, 120
5, 87493, Note_on_c, 9, 62, 0
5, 87493, Note_on_c, 9, 70, 0
5, 87539, Note_on_c, 9, 70, 60
5, 87539, Note_on_c, 9, 61, 50
5, 87539, Note_on_c, 9, 56, 48
5, 87539, Note_on_c, 9, 36, 60
5, 87554, Note_on_c, 9, 36, 0
5, 87554, Note_on_c, 9, 70, 0
5, 87554, Note_on_c, 9, 61, 0
5, 87554, Note_on_c, 9, 56, 0
5, 87599, Note_on_c, 9, 70, 80
5, 87599, Note_on_c, 9, 60, 50
5, 87599, Note_on_c, 9, 56, 70
5, 87614, Note_on_c, 9, 56, 0
5, 87614, Note_on_c, 9, 60, 0
5, 87614, Note_on_c, 9, 70, 0
5, 87659, Note_on_c, 9, 70, 60
5, 87659, Note_on_c, 9, 60, 50
5, 87664, Note_on_c, 9, 78, 31
5, 87674, Note_on_c, 9, 60, 0
5, 87674, Note_on_c, 9, 70, 0
5, 87690, Note_on_c, 9, 78, 0
5, 87719, Note_on_c, 9, 70, 80
5, 87719, Note_on_c, 9, 64, 120
5, 87719, Note_on_c, 9, 36, 60
5, 87734, Note_on_c, 9, 36, 0
5, 87734, Note_on_c, 9, 64, 0
5, 87734, Note_on_c, 9, 70, 0
5, 87770, Note_on_c, 9, 78, 37
5, 87779, Note_on_c, 9, 70, 60
5, 87779, Note_on_c, 9, 64, 120
5, 87779, Note_on_c, 9, 56, 48
5, 87794, Note_on_c, 9, 56, 0
5, 87794, Note_on_c, 9, 64, 0
5, 87794, Note_on_c, 9, 70, 0
5, 87795, Note_on_c, 9, 78, 0
5, 87838, Note_on_c, 9, 78, 48
5, 87840, Note_on_c, 9, 60, 50
5, 87840, Note_on_c, 9, 70, 80
5, 87841, Note_on_c, 9, 56, 70
5, 87854, Note_on_c, 9, 70, 0
5, 87854, Note_on_c, 9, 60, 0
5, 87855, Note_on_c, 9, 56, 0
5, 87896, Note_on_c, 9, 78, 0
5, 87899, Note_on_c, 9, 70, 60
5, 87899, Note_on_c, 9, 62, 57
5, 87914, Note_on_c, 9, 62, 0
5, 87914, Note_on_c, 9, 70, 0
5, 87929, Note_on_c, 9, 70, 70
5, 87944, Note_on_c, 9, 70, 0
5, 87959, Note_on_c, 9, 70, 80
5, 87959, Note_on_c, 9, 62, 120
5, 87974, Note_on_c, 9, 62, 0
5, 87974, Note_on_c, 9, 70, 0
5, 88015, Note_on_c, 9, 79, 39
5, 88019, Note_on_c, 9, 70, 60
5, 88019, Note_on_c, 9, 60, 50
5, 88019, Note_on_c, 9, 56, 48
5, 88019, Note_on_c, 9, 36, 60
5, 88034, Note_on_c, 9, 36, 0
5, 88034, Note_on_c, 9, 60, 0
5, 88034, Note_on_c, 9, 56, 0
5, 88034, Note_on_c, 9, 70, 0
5, 88045, Note_on_c, 9, 79, 0
5, 88079, Note_on_c, 9, 70, 80
5, 88079, Note_on_c, 9, 61, 50
5, 88079, Note_on_c, 9, 56, 70
5, 88094, Note_on_c, 9, 56, 0
5, 88094, Note_on_c, 9, 61, 0
5, 88094, Note_on_c, 9, 70, 0
5, 88139, Note_on_c, 9, 70, 60
5, 88139, Note_on_c, 9, 61, 50
5, 88154, Note_on_c, 9, 61, 0
5, 88154, Note_on_c, 9, 70, 0
5, 88199, Note_on_c, 9, 70, 80
5, 88199, Note_on_c, 9, 64, 120
5, 88199, Note_on_c, 9, 36, 60
5, 88199, Note_on_c, 9, 71, 24
5, 88214, Note_on_c, 9, 36, 0
5, 88214, Note_on_c, 9, 70, 0
5, 88214, Note_on_c, 9, 64, 0
5, 88231, Note_on_c, 9, 71, 0
5, 88259, Note_on_c, 9, 70, 60
5, 88259, Note_on_c, 9, 64, 120
5, 88259, Note_on_c, 9, 56, 48
5, 88268, Note_on_c, 9, 71, 18
5, 88274, Note_on_c, 9, 56, 0
5, 88274, Note_on_c, 9, 70, 0
5, 88274, Note_on_c, 9, 64, 0
5, 88314, Note_on_c, 9, 71, 0
5, 88319, Note_on_c, 9, 70, 80
5, 88319, Note_on_c, 9, 60, 50
5, 88319, Note_on_c, 9, 56, 70
5, 88334, Note_on_c, 9, 56, 0
5, 88334, Note_on_c, 9, 60, 0
5, 88334, Note_on_c, 9, 70, 0
5, 88379, Note_on_c, 9, 70, 60
5, 88379, Note_on_c, 9, 62, 57
5, 88391, Note_on_c, 9, 72, 27
5, 88394, Note_on_c, 9, 62, 0
5, 88394, Note_on_c, 9, 70, 0
5, 88406, Note_on_c, 9, 72, 0
5, 88409, Note_on_c, 9, 70, 70
5, 88424, Note_on_c, 9, 70, 0
5, 88439, Note_on_c, 9, 70, 60
5, 88439, Note_on_c, 9, 62, 120
5, 88449, Note_on_c, 9, 72, 30
5, 88454, Note_on_c, 9, 62, 0
5, 88454, Note_on_c, 9, 70, 0
5, 88494, Note_on_c, 9, 72, 0
5, 88499, Note_on_c, 9, 70, 60
5, 88499, Note_on_c, 9, 61, 50
5, 88499, Note_on_c, 9, 56, 48
5, 88499, Note_on_c, 9, 36, 60
5, 88514, Note_on_c, 9, 36, 0
5, 88514, Note_on_c, 9, 70, 0
5, 88514, Note_on_c, 9, 61, 0
5, 88514, Note_on_c, 9, 56, 0
5, 88559, Note_on_c, 9, 70, 80
5, 88559, Note_on_c, 9, 60, 50
5, 88559, Note_on_c, 9, 56, 70
5, 88574, Note_on_c, 9, 56, 0
5, 88574, Note_on_c, 9, 60, 0
5, 88574, Note_on_c, 9, 70, 0
5, 88619, Note_on_c, 9, 70, 60
5, 88619, Note_on_c, 9, 60, 50
5, 88623, Note_on_c, 9, 71, 36
5, 88634, Note_on_c, 9, 60, 0
5, 88634, Note_on_c, 9, 70, 0
5, 88657, Note_on_c, 9, 71, 0
5, 88679, Note_on_c, 9, 70, 80
5, 88679, Note_on_c, 9, 64, 120
5, 88679, Note_on_c, 9, 36, 60
5, 88694, Note_on_c, 9, 36, 0
5, 88694, Note_on_c, 9, 64, 0
5, 88694, Note_on_c, 9, 70, 0
5, 88739, Note_on_c, 9, 70, 60
5, 88739, Note_on_c, 9, 64, 120
5, 88739, Note_on_c, 9, 56, 48
5, 88745, Note_on_c, 9, 71, 51
5, 88754, Note_on_c, 9, 56, 0
5, 88754, Note_on_c, 9, 70, 0
5, 88754, Note_on_c, 9, 64, 0
5, 88756, Note_on_c, 9, 71, 0
5, 88799, Note_on_c, 9, 78, 22
5, 88800, Program_c, 9, 0
5, 88801, Note_on_c, 9, 70, 80
5, 88801, Note_on_c, 9, 60, 50
5, 88801, Note_on_c, 9, 56, 70
5, 88815, Note_on_c, 9, 56, 0
5, 88815, Note_on_c, 9, 60, 0
5, 88815, Note_on_c, 9, 70, 0
5, 88859, Note_on_c, 9, 70, 60
5, 88859, Note_on_c, 9, 62, 57
5, 88874, Note_on_c, 9, 62, 0
5, 88874, Note_on_c, 9, 70, 0
5, 88879, Note_on_c, 9, 78, 0
5, 88889, Note_on_c, 9, 70, 70
5, 88904, Note_on_c, 9, 70, 0
5, 88919, Note_on_c, 9, 70, 80
5, 88919, Note_on_c, 9, 62, 120
5, 88922, Note_on_c, 9, 78, 34
5, 88934, Note_on_c, 9, 62, 0
5, 88934, Note_on_c, 9, 70, 0
5, 88962, Note_on_c, 9, 78, 0
5, 88979, Note_on_c, 9, 70, 60
5, 88979, Note_on_c, 9, 60, 50
5, 88979, Note_on_c, 9, 56, 48
5, 88979, Note_on_c, 9, 36, 60
5, 88994, Note_on_c, 9, 36, 0
5, 88994, Note_on_c, 9, 70, 0
5, 88994, Note_on_c, 9, 60, 0
5, 88994, Note_on_c, 9, 56, 0
5, 89039, Note_on_c, 9, 70, 80
5, 89039, Note_on_c, 9, 61, 50
5, 89039, Note_on_c, 9, 56, 70
5, 89041, Note_on_c, 9, 79, 34
5, 89054, Note_on_c, 9, 56, 0
5, 89054, Note_on_c, 9, 70, 0
5, 89054, Note_on_c, 9, 61, 0
5, 89075, Note_on_c, 9, 79, 0
5, 89099, Note_on_c, 9, 70, 60
5, 89099, Note_on_c, 9, 61, 50
5, 89103, Note_on_c, 9, 79, 35
5, 89114, Note_on_c, 9, 61, 0
5, 89114, Note_on_c, 9, 70, 0
5, 89134, Note_on_c, 9, 79, 0
5, 89159, Note_on_c, 9, 70, 80
5, 89159, Note_on_c, 9, 64, 120
5, 89159, Note_on_c, 9, 36, 60
5, 89174, Note_on_c, 9, 36, 0
5, 89174, Note_on_c, 9, 64, 0
5, 89174, Note_on_c, 9, 70, 0
5, 89219, Note_on_c, 9, 70, 60
5, 89219, Note_on_c, 9, 64, 120
5, 89219, Note_on_c, 9, 56, 48
5, 89225, Note_on_c, 9, 78, 38
5, 89234, Note_on_c, 9, 56, 0
5, 89234, Note_on_c, 9, 70, 0
5, 89234, Note_on_c, 9, 64, 0
5, 89259, Note_on_c, 9, 78, 0
5, 89279, Note_on_c, 9, 70, 80
5, 89279, Note_on_c, 9, 60, 50
5, 89279, Note_on_c, 9, 56, 70
5, 89294, Note_on_c, 9, 56, 0
5, 89294, Note_on_c, 9, 60, 0
5, 89294, Note_on_c, 9, 70, 0
5, 89339, Note_on_c, 9, 70, 60
5, 89339, Note_on_c, 9, 65, 69
5, 89339, Note_on_c, 9, 62, 57
5, 89344, Note_on_c, 9, 79, 45
5, 89354, Note_on_c, 9, 62, 0
5, 89354, Note_on_c, 9, 70, 0
5, 89369, Note_on_c, 9, 65, 0
5, 89369, Note_on_c, 9, 70, 70
5, 89374, Note_on_c, 9, 79, 0
5, 89384, Note_on_c, 9, 70, 0
5, 89399, Note_on_c, 9, 70, 60
5, 89399, Note_on_c, 9, 65, 54
5, 89399, Note_on_c, 9, 62, 120
5, 89414, Note_on_c, 9, 62, 0
5, 89414, Note_on_c, 9, 70, 0
5, 89427, Note_on_c, 9, 65, 0
5, 89459, Note_on_c, 9, 70, 60
5, 89459, Note_on_c, 9, 65, 81
5, 89459, Note_on_c, 9, 61, 50
5, 89459, Note_on_c, 9, 56, 48
5, 89459, Note_on_c, 9, 36, 60
5, 89460, Note_on_c, 9, 79, 50
5, 89474, Note_on_c, 9, 36, 0
5, 89474, Note_on_c, 9, 56, 0
5, 89474, Note_on_c, 9, 61, 0
5, 89474, Note_on_c, 9, 70, 0
5, 89495, Note_on_c, 9, 65, 0
5, 89513, Note_on_c, 9, 79, 0
5, 89519, Note_on_c, 9, 70, 80
5, 89519, Note_on_c, 9, 60, 50
5, 89519, Note_on_c, 9, 56, 70
5, 89534, Note_on_c, 9, 56, 0
5, 89534, Note_on_c, 9, 60, 0
5, 89534, Note_on_c, 9, 70, 0
5, 89579, Note_on_c, 9, 70, 60
5, 89579, Note_on_c, 9, 65, 81
5, 89579, Note_on_c, 9, 60, 50
5, 89581, Note_on_c, 9, 78, 45
5, 89594, Note_on_c, 9, 60, 0
5, 89594, Note_on_c, 9, 70, 0
5, 89612, Note_on_c, 9, 78, 0
5, 89622, Note_on_c, 9, 65, 0
5, 89638, Note_on_c, 9, 78, 27
5, 89639, Note_on_c, 9, 70, 80
5, 89639, Note_on_c, 9, 64, 120
5, 89639, Note_on_c, 9, 36, 60
5, 89654, Note_on_c, 9, 36, 0
5, 89654, Note_on_c, 9, 64, 0
5, 89654, Note_on_c, 9, 70, 0
5, 89696, Note_on_c, 9, 78, 0
5, 89699, Note_on_c, 9, 70, 60
5, 89699, Note_on_c, 9, 66, 75
5, 89699, Note_on_c, 9, 64, 120
5, 89699, Note_on_c, 9, 56, 48
5, 89714, Note_on_c, 9, 56, 0
5, 89714, Note_on_c, 9, 64, 0
5, 89714, Note_on_c, 9, 70, 0
5, 89732, Note_on_c, 9, 66, 0
5, 89760, Note_on_c, 9, 60, 50
5, 89760, Note_on_c, 9, 70, 80
5, 89761, Note_on_c, 9, 56, 70
5, 89774, Note_on_c, 9, 70, 0
5, 89774, Note_on_c, 9, 60, 0
5, 89775, Note_on_c, 9, 56, 0
5, 89819, Note_on_c, 9, 62, 57
5, 89819, Note_on_c, 9, 66, 79
5, 89819, Note_on_c, 9, 70, 60
5, 89834, Note_on_c, 9, 70, 0
5, 89834, Note_on_c, 9, 62, 0
5, 89849, Note_on_c, 9, 70, 70
5, 89852, Note_on_c, 9, 66, 0
5, 89864, Note_on_c, 9, 70, 0
5, 89879, Note_on_c, 9, 62, 120
5, 89879, Note_on_c, 9, 70, 80
5, 89894, Note_on_c, 9, 70, 0
5, 89894, Note_on_c, 9, 62, 0
5, 89939, Note_on_c, 9, 36, 60
5, 89939, Note_on_c, 9, 56, 48
5, 89939, Note_on_c, 9, 60, 50
5, 89939, Note_on_c, 9, 66, 79
5, 89939, Note_on_c, 9, 70, 60
5, 89951, Note_on_c, 9, 78, 22
5, 89954, Note_on_c, 9, 70, 0
5, 89954, Note_on_c, 9, 60, 0
5, 89954, Note_on_c, 9, 36, 0
5, 89954, Note_on_c, 9, 56, 0
5, 89964, Note_on_c, 9, 78, 0
5, 89977, Note_on_c, 9, 66, 0
5, 89999, Note_on_c, 9, 56, 70
5, 89999, Note_on_c, 9, 61, 50
5, 89999, Note_on_c, 9, 70, 80
5, 90011, Note_on_c, 9, 78, 46
5, 90014, Note_on_c, 9, 70, 0
5, 90014, Note_on_c, 9, 56, 0
5, 90014, Note_on_c, 9, 61, 0
5, 90056, Note_on_c, 9, 78, 0
5, 90059, Note_on_c, 9, 61, 50
5, 90059, Note_on_c, 9, 65, 81
5, 90059, Note_on_c, 9, 70, 60
5, 90074, Note_on_c, 9, 70, 0
5, 90074, Note_on_c, 9, 61, 0
5, 90085, Note_on_c, 9, 65, 0
5, 90119, Note_on_c, 9, 36, 60
5, 90119, Note_on_c, 9, 64, 120
5, 90119, Note_on_c, 9, 66, 79
5, 90119, Note_on_c, 9, 70, 80
5, 90126, Note_on_c, 9, 79, 33
5, 90134, Note_on_c, 9, 70, 0
5, 90134, Note_on_c, 9, 64, 0
5, 90134, Note_on_c, 9, 36, 0
5, 90146, Note_on_c, 9, 66, 0
5, 90161, Note_on_c, 9, 79, 0
5, 90179, Note_on_c, 9, 56, 48
5, 90179, Note_on_c, 9, 64, 120
5, 90179, Note_on_c, 9, 70, 60
5, 90191, Note_on_c, 9, 79, 44
5, 90194, Note_on_c, 9, 70, 0
5, 90194, Note_on_c, 9, 56, 0
5, 90194, Note_on_c, 9, 64, 0
5, 90229, Note_on_c, 9, 79, 0
5, 90239, Note_on_c, 9, 56, 70
5, 90239, Note_on_c, 9, 60, 50
5, 90239, Note_on_c, 9, 70, 80
5, 90254, Note_on_c, 9, 70, 0
5, 90254, Note_on_c, 9, 60, 0
5, 90254, Note_on_c, 9, 56, 0
5, 90299, Note_on_c, 9, 62, 57
5, 90299, Note_on_c, 9, 70, 60
5, 90311, Note_on_c, 9, 78, 47
5, 90314, Note_on_c, 9, 70, 0
5, 90314, Note_on_c, 9, 62, 0
5, 90329, Note_on_c, 9, 70, 70
5, 90344, Note_on_c, 9, 70, 0
5, 90350, Note_on_c, 9, 78, 0
5, 90359, Note_on_c, 9, 62, 120
5, 90359, Note_on_c, 9, 70, 60
5, 90374, Note_on_c, 9, 70, 0
5, 90374, Note_on_c, 9, 62, 0
5, 90419, Note_on_c, 9, 36, 60
5, 90419, Note_on_c, 9, 56, 48
5, 90419, Note_on_c, 9, 61, 50
5, 90419, Note_on_c, 9, 70, 60
5, 90421, Note_on_c, 9, 78, 48
5, 90434, Note_on_c, 9, 70, 0
5, 90434, Note_on_c, 9, 61, 0
5, 90434, Note_on_c, 9, 36, 0
5, 90434, Note_on_c, 9, 56, 0
5, 90466, Note_on_c, 9, 78, 0
5, 90479, Note_on_c, 9, 56, 70
5, 90479, Note_on_c, 9, 60, 50
5, 90479, Note_on_c, 9, 70, 80
5, 90494, Note_on_c, 9, 70, 0
5, 90494, Note_on_c, 9, 60, 0
5, 90494, Note_on_c, 9, 56, 0
5, 90539, Note_on_c, 9, 60, 50
5, 90539, Note_on_c, 9, 70, 60
5, 90543, Note_on_c, 9, 78, 42
5, 90554, Note_on_c, 9, 70, 0
5, 90554, Note_on_c, 9, 60, 0
5, 90573, Note_on_c, 9, 78, 0
5, 90599, Note_on_c, 9, 36, 60
5, 90599, Note_on_c, 9, 64, 120
5, 90599, Note_on_c, 9, 70, 80
5, 90603, Note_on_c, 9, 79, 40
5, 90614, Note_on_c, 9, 70, 0
5, 90614, Note_on_c, 9, 36, 0
5, 90614, Note_on_c, 9, 64, 0
5, 90649, Note_on_c, 9, 79, 0
5, 90659, Note_on_c, 9, 56, 48
5, 90659, Note_on_c, 9, 64, 120
5, 90659, Note_on_c, 9, 70, 60
5, 90670, Note_on_c, 9, 79, 53
5, 90674, Note_on_c, 9, 70, 0
5, 90674, Note_on_c, 9, 56, 0
5, 90674, Note_on_c, 9, 64, 0
5, 90708, Note_on_c, 9, 79, 0
5, 90720, Program_c, 9, 0
5, 90721, Note_on_c, 9, 56, 70
5, 90721, Note_on_c, 9, 60, 50
5, 90721, Note_on_c, 9, 70, 80
5, 90735, Note_on_c, 9, 70, 0
5, 90735, Note_on_c, 9, 60, 0
5, 90735, Note_on_c, 9, 56, 0
5, 90779, Note_on_c, 9, 62, 57
5, 90779, Note_on_c, 9, 70, 60
5, 90793, Note_on_c, 9, 70, 0
5, 90793, Note_on_c, 9, 62, 0
5, 90809, Note_on_c, 9, 70, 70
5, 90824, Note_on_c, 9, 70, 0
5, 90839, Note_on_c, 9, 62, 120
5, 90839, Note_on_c, 9, 70, 80
5, 90854, Note_on_c, 9, 70, 0
5, 90854, Note_on_c, 9, 62, 0
5, 90892, Note_on_c, 9, 78, 31
5, 90899, Note_on_c, 9, 36, 60
5, 90899, Note_on_c, 9, 56, 48
5, 90899, Note_on_c, 9, 60, 50
5, 90899, Note_on_c, 9, 70, 60
5, 90907, Note_on_c, 9, 78, 0
5, 90914, Note_on_c, 9, 60, 0
5, 90914, Note_on_c, 9, 36, 0
5, 90914, Note_on_c, 9, 56, 0
5, 90914, Note_on_c, 9, 70, 0
5, 90959, Note_on_c, 9, 56, 70
5, 90959, Note_on_c, 9, 61, 50
5, 90959, Note_on_c, 9, 70, 80
5, 90962, Note_on_c, 9, 78, 54
5, 90974, Note_on_c, 9, 70, 0
5, 90974, Note_on_c, 9, 56, 0
5, 90974, Note_on_c, 9, 61, 0
5, 91019, Note_on_c, 9, 61, 50
5, 91019, Note_on_c, 9, 70, 60
5, 91034, Note_on_c, 9, 70, 0
5, 91034, Note_on_c, 9, 61, 0
5, 91040, Note_on_c, 9, 78, 0
5, 91076, Note_on_c, 9, 79, 22
5, 91079, Note_on_c, 9, 36, 60
5, 91079, Note_on_c, 9, 64, 120
5, 91079, Note_on_c, 9, 70, 80
5, 91094, Note_on_c, 9, 70, 0
5, 91094, Note_on_c, 9, 79, 0
5, 91094, Note_on_c, 9, 36, 0
5, 91094, Note_on_c, 9, 64, 0
5, 91139, Note_on_c, 9, 56, 48
5, 91139, Note_on_c, 9, 64, 120
5, 91139, Note_on_c, 9, 70, 60
5, 91146, Note_on_c, 9, 79, 57
5, 91154, Note_on_c, 9, 70, 0
5, 91154, Note_on_c, 9, 56, 0
5, 91154, Note_on_c, 9, 64, 0
5, 91185, Note_on_c, 9, 79, 0
5, 91199, Note_on_c, 9, 56, 70
5, 91199, Note_on_c, 9, 60, 50
5, 91199, Note_on_c, 9, 70, 80
5, 91214, Note_on_c, 9, 70, 0
5, 91214, Note_on_c, 9, 60, 0
5, 91214, Note_on_c, 9, 56, 0
5, 91259, Note_on_c, 9, 62, 57
5, 91259, Note_on_c, 9, 70, 60
5, 91263, Note_on_c, 9, 78, 48
5, 91274, Note_on_c, 9, 70, 0
5, 91274, Note_on_c, 9, 62, 0
5, 91289, Note_on_c, 9, 78, 0
5, 91289, Note_on_c, 9, 70, 70
5, 91304, Note_on_c, 9, 70, 0
5, 91319, Note_on_c, 9, 62, 120
5, 91319, Note_on_c, 9, 70, 60
5, 91332, Note_on_c, 9, 78, 58
5, 91334, Note_on_c, 9, 70, 0
5, 91334, Note_on_c, 9, 62, 0
5, 91379, Note_on_c, 9, 36, 60
5, 91379, Note_on_c, 9, 56, 48
5, 91379, Note_on_c, 9, 61, 50
5, 91379, Note_on_c, 9, 70, 60
5, 91394, Note_on_c, 9, 70, 0
5, 91394, Note_on_c, 9, 56, 0
5, 91394, Note_on_c, 9, 78, 0
5, 91394, Note_on_c, 9, 36, 0
5, 91394, Note_on_c, 9, 61, 0
5, 91438, Note_on_c, 9, 79, 35
5, 91439, Note_on_c, 9, 56, 70
5, 91439, Note_on_c, 9, 60, 50
5, 91439, Note_on_c, 9, 70, 80
5, 91453, Note_on_c, 9, 70, 0
5, 91453, Note_on_c, 9, 60, 0
5, 91453, Note_on_c, 9, 56, 0
5, 91468, Note_on_c, 9, 79, 0
5, 91499, Note_on_c, 9, 60, 50
5, 91499, Note_on_c, 9, 70, 60
5, 91512, Note_on_c, 9, 79, 51
5, 91514, Note_on_c, 9, 70, 0
5, 91514, Note_on_c, 9, 60, 0
5, 91555, Note_on_c, 9, 79, 0
5, 91559, Note_on_c, 9, 36, 60
5, 91559, Note_on_c, 9, 64, 120
5, 91559, Note_on_c, 9, 70, 80
5, 91574, Note_on_c, 9, 70, 0
5, 91574, Note_on_c, 9, 64, 0
5, 91574, Note_on_c, 9, 36, 0
5, 91619, Note_on_c, 9, 56, 48
5, 91619, Note_on_c, 9, 64, 120
5, 91619, Note_on_c, 9, 70, 60
5, 91630, Note_on_c, 9, 79, 55
5, 91634, Note_on_c, 9, 70, 0
5, 91634, Note_on_c, 9, 56, 0
5, 91634, Note_on_c, 9, 64, 0
5, 91665, Note_on_c, 9, 79, 0
5, 91680, Note_on_c, 9, 70, 80
5, 91680, Note_on_c, 9, 60, 50
5, 91681, Note_on_c, 9, 56, 70
5, 91694, Note_on_c, 9, 60, 0
5, 91694, Note_on_c, 9, 70, 0
5, 91695, Note_on_c, 9, 56, 0
5, 91739, Note_on_c, 9, 62, 57
5, 91739, Note_on_c, 9, 70, 60
5, 91745, Note_on_c, 9, 78, 55
5, 91754, Note_on_c, 9, 70, 0
5, 91754, Note_on_c, 9, 62, 0
5, 91769, Note_on_c, 9, 70, 70
5, 91784, Note_on_c, 9, 70, 0
5, 91799, Note_on_c, 9, 62, 120
5, 91799, Note_on_c, 9, 70, 80
5, 91814, Note_on_c, 9, 70, 0
5, 91814, Note_on_c, 9, 62, 0
5, 91822, Note_on_c, 9, 78, 0
5, 91858, Note_on_c, 9, 78, 20
5, 91859, Note_on_c, 9, 36, 60
5, 91859, Note_on_c, 9, 56, 48
5, 91859, Note_on_c, 9, 60, 50
5, 91859, Note_on_c, 9, 70, 60
5, 91874, Note_on_c, 9, 70, 0
5, 91874, Note_on_c, 9, 56, 0
5, 91874, Note_on_c, 9, 60, 0
5, 91874, Note_on_c, 9, 36, 0
5, 91881, Note_on_c, 9, 78, 0
5, 91919, Note_on_c, 9, 56, 70
5, 91919, Note_on_c, 9, 61, 50
5, 91919, Note_on_c, 9, 70, 80
5, 91923, Note_on_c, 9, 78, 49
5, 91934, Note_on_c, 9, 70, 0
5, 91934, Note_on_c, 9, 56, 0
5, 91934, Note_on_c, 9, 61, 0
5, 91979, Note_on_c, 9, 61, 50
5, 91979, Note_on_c, 9, 70, 60
5, 91994, Note_on_c, 9, 70, 0
5, 91994, Note_on_c, 9, 61, 0
5, 92028, Note_on_c, 9, 78, 0
5, 92039, Note_on_c, 9, 36, 60
5, 92039, Note_on_c, 9, 64, 120
5, 92039, Note_on_c, 9, 70, 80
5, 92041, Note_on_c, 9, 79, 36
5, 92054, Note_on_c, 9, 70, 0
5, 92054, Note_on_c, 9, 36, 0
5, 92054, Note_on_c, 9, 64, 0
5, 92091, Note_on_c, 9, 79, 0
5, 92099, Note_on_c, 9, 56, 48
5, 92099, Note_on_c, 9, 64, 120
5, 92099, Note_on_c, 9, 70, 60
5, 92114, Note_on_c, 9, 70, 0
5, 92114, Note_on_c, 9, 64, 0
5, 92114, Note_on_c, 9, 56, 0
5, 92159, Note_on_c, 9, 56, 70
5, 92159, Note_on_c, 9, 60, 50
5, 92159, Note_on_c, 9, 70, 80
5, 92174, Note_on_c, 9, 70, 0
5, 92174, Note_on_c, 9, 60, 0
5, 92174, Note_on_c, 9, 56, 0
5, 92219, Note_on_c, 9, 62, 57
5, 92219, Note_on_c, 9, 70, 60
5, 92234, Note_on_c, 9, 70, 0
5, 92234, Note_on_c, 9, 62, 0
5, 92239, Note_on_c, 9, 79, 42
5, 92249, Note_on_c, 9, 70, 70
5, 92264, Note_on_c, 9, 70, 0
5, 92268, Note_on_c, 9, 79, 0
5, 92279, Note_on_c, 9, 62, 120
5, 92279, Note_on_c, 9, 70, 60
5, 92294, Note_on_c, 9, 70, 0
5, 92294, Note_on_c, 9, 62, 0
5, 92339, Note_on_c, 9, 36, 60
5, 92339, Note_on_c, 9, 56, 48
5, 92339, Note_on_c, 9, 61, 50
5, 92339, Note_on_c, 9, 70, 60
5, 92342, Note_on_c, 9, 78, 54
5, 92354, Note_on_c, 9, 70, 0
5, 92354, Note_on_c, 9, 61, 0
5, 92354, Note_on_c, 9, 36, 0
5, 92354, Note_on_c, 9, 56, 0
5, 92374, Note_on_c, 9, 78, 0
5, 92399, Note_on_c, 9, 56, 70
5, 92399, Note_on_c, 9, 60, 50
5, 92399, Note_on_c, 9, 70, 80
5, 92414, Note_on_c, 9, 70, 0
5, 92414, Note_on_c, 9, 60, 0
5, 92414, Note_on_c, 9, 56, 0
5, 92458, Note_on_c, 9, 78, 53
5, 92459, Note_on_c, 9, 60, 50
5, 92459, Note_on_c, 9, 70, 60
5, 92474, Note_on_c, 9, 70, 0
5, 92474, Note_on_c, 9, 60, 0
5, 92483, Note_on_c, 9, 78, 0
5, 92519, Note_on_c, 9, 36, 60
5, 92519, Note_on_c, 9, 64, 120
5, 92519, Note_on_c, 9, 70, 80
5, 92534, Note_on_c, 9, 70, 0
5, 92534, Note_on_c, 9, 64, 0
5, 92534, Note_on_c, 9, 36, 0
5, 92574, Note_on_c, 9, 67, 46
5, 92579, Note_on_c, 9, 56, 48
5, 92579, Note_on_c, 9, 64, 120
5, 92579, Note_on_c, 9, 70, 60
5, 92589, Note_on_c, 9, 67, 0
5, 92594, Note_on_c, 9, 56, 0
5, 92594, Note_on_c, 9, 64, 0
5, 92594, Note_on_c, 9, 70, 0
5, 92640, Note_on_c, 9, 56, 70
5, 92640, Program_c, 9, 0
5, 92641, Note_on_c, 9, 67, 60
5, 92641, Note_on_c, 9, 60, 50
5, 92641, Note_on_c, 9, 70, 80
5, 92655, Note_on_c, 9, 70, 0
5, 92655, Note_on_c, 9, 60, 0
5, 92655, Note_on_c, 9, 56, 0
5, 92685, Note_on_c, 9, 67, 0
5, 92699, Note_on_c, 9, 62, 57
5, 92699, Note_on_c, 9, 70, 60
5, 92714, Note_on_c, 9, 70, 0
5, 92714, Note_on_c, 9, 62, 0
5, 92729, Note_on_c, 9, 70, 70
5, 92744, Note_on_c, 9, 70, 0
5, 92757, Note_on_c, 9, 68, 54
5, 92758, Note_on_c, 9, 62, 120
5, 92759, Note_on_c, 9, 70, 80
5, 92773, Note_on_c, 9, 70, 0
5, 92773, Note_on_c, 9, 62, 0
5, 92803, Note_on_c, 9, 68, 0
5, 92819, Note_on_c, 9, 36, 60
5, 92819, Note_on_c, 9, 56, 48
5, 92819, Note_on_c, 9, 60, 50
5, 92819, Note_on_c, 9, 70, 60
5, 92834, Note_on_c, 9, 70, 0
5, 92834, Note_on_c, 9, 36, 0
5, 92834, Note_on_c, 9, 56, 0
5, 92834, Note_on_c, 9, 60, 0
5, 92879, Note_on_c, 9, 56, 70
5, 92879, Note_on_c, 9, 61, 50
5, 92879, Note_on_c, 9, 70, 80
5, 92884, Note_on_c, 9, 67, 48
5, 92894, Note_on_c, 9, 70, 0
5, 92894, Note_on_c, 9, 56, 0
5, 92894, Note_on_c, 9, 61, 0
5, 92928, Note_on_c, 9, 67, 0
5, 92939, Note_on_c, 9, 61, 50
5, 92939, Note_on_c, 9, 70, 60
5, 92954, Note_on_c, 9, 70, 0
5, 92954, Note_on_c, 9, 61, 0
5, 92999, Note_on_c, 9, 36, 60
5, 92999, Note_on_c, 9, 64, 120
5, 92999, Note_on_c, 9, 70, 80
5, 93014, Note_on_c, 9, 70, 0
5, 93014, Note_on_c, 9, 64, 0
5, 93014, Note_on_c, 9, 36, 0
5, 93059, Note_on_c, 9, 56, 48
5, 93059, Note_on_c, 9, 64, 120
5, 93059, Note_on_c, 9, 70, 60
5, 93071, Note_on_c, 9, 67, 60
5, 93074, Note_on_c, 9, 70, 0
5, 93074, Note_on_c, 9, 56, 0
5, 93074, Note_on_c, 9, 64, 0
5, 93101, Note_on_c, 9, 67, 0
5, 93119, Note_on_c, 9, 56, 70
5, 93119, Note_on_c, 9, 60, 50
5, 93119, Note_on_c, 9, 70, 80
5, 93134, Note_on_c, 9, 70, 0
5, 93134, Note_on_c, 9, 60, 0
5, 93134, Note_on_c, 9, 56, 0
5, 93179, Note_on_c, 9, 62, 57
5, 93179, Note_on_c, 9, 70, 60
5, 93189, Note_on_c, 9, 67, 58
5, 93194, Note_on_c, 9, 70, 0
5, 93194, Note_on_c, 9, 62, 0
5, 93209, Note_on_c, 9, 70, 70
5, 93224, Note_on_c, 9, 70, 0
5, 93226, Note_on_c, 9, 67, 0
5, 93239, Note_on_c, 9, 62, 120
5, 93239, Note_on_c, 9, 70, 60
5, 93254, Note_on_c, 9, 70, 0
5, 93254, Note_on_c, 9, 62, 0
5, 93299, Note_on_c, 9, 36, 60
5, 93299, Note_on_c, 9, 56, 48
5, 93299, Note_on_c, 9, 61, 50
5, 93299, Note_on_c, 9, 70, 60
5, 93302, Note_on_c, 9, 68, 56
5, 93314, Note_on_c, 9, 70, 0
5, 93314, Note_on_c, 9, 61, 0
5, 93314, Note_on_c, 9, 36, 0
5, 93314, Note_on_c, 9, 56, 0
5, 93359, Note_on_c, 9, 56, 70
5, 93359, Note_on_c, 9, 60, 50
5, 93359, Note_on_c, 9, 70, 80
5, 93371, Note_on_c, 9, 68, 0
5, 93374, Note_on_c, 9, 56, 0
5, 93374, Note_on_c, 9, 60, 0
5, 93374, Note_on_c, 9, 70, 0
5, 93419, Note_on_c, 9, 60, 50
5, 93419, Note_on_c, 9, 70, 60
5, 93427, Note_on_c, 9, 68, 60
5, 93433, Note_on_c, 9, 70, 0
5, 93433, Note_on_c, 9, 60, 0
5, 93479, Note_on_c, 9, 36, 60
5, 93479, Note_on_c, 9, 64, 120
5, 93479, Note_on_c, 9, 70, 80
5, 93481, Note_on_c, 9, 68, 0
5, 93494, Note_on_c, 9, 36, 0
5, 93494, Note_on_c, 9, 64, 0
5, 93494, Note_on_c, 9, 70, 0
5, 93539, Note_on_c, 9, 56, 48
5, 93539, Note_on_c, 9, 64, 120
5, 93539, Note_on_c, 9, 70, 60
5, 93554, Note_on_c, 9, 70, 0
5, 93554, Note_on_c, 9, 64, 0
5, 93554, Note_on_c, 9, 56, 0
5, 93600, Note_on_c, 9, 70, 80
5, 93600, Note_on_c, 9, 60, 50
5, 93601, Note_on_c, 9, 56, 70
5, 93609, Note_on_c, 9, 67, 39
5, 93614, Note_on_c, 9, 60, 0
5, 93614, Note_on_c, 9, 70, 0
5, 93615, Note_on_c, 9, 56, 0
5, 93655, Note_on_c, 9, 67, 0
5, 93659, Note_on_c, 9, 62, 57
5, 93659, Note_on_c, 9, 70, 60
5, 93674, Note_on_c, 9, 70, 0
5, 93674, Note_on_c, 9, 62, 0
5, 93689, Note_on_c, 9, 70, 70
5, 93704, Note_on_c, 9, 70, 0
5, 93719, Note_on_c, 9, 62, 120
5, 93719, Note_on_c, 9, 70, 80
5, 93730, Note_on_c, 9, 67, 54
5, 93734, Note_on_c, 9, 70, 0
5, 93734, Note_on_c, 9, 62, 0
5, 93779, Note_on_c, 9, 36, 60
5, 93779, Note_on_c, 9, 56, 48
5, 93779, Note_on_c, 9, 60, 50
5, 93779, Note_on_c, 9, 70, 60
5, 93783, Note_on_c, 9, 67, 0
5, 93794, Note_on_c, 9, 60, 0
5, 93794, Note_on_c, 9, 36, 0
5, 93794, Note_on_c, 9, 56, 0
5, 93794, Note_on_c, 9, 70, 0
5, 93839, Note_on_c, 9, 56, 70
5, 93839, Note_on_c, 9, 61, 50
5, 93839, Note_on_c, 9, 70, 80
5, 93848, Note_on_c, 9, 68, 50
5, 93854, Note_on_c, 9, 70, 0
5, 93854, Note_on_c, 9, 56, 0
5, 93854, Note_on_c, 9, 61, 0
5, 93899, Note_on_c, 9, 70, 60
5, 93899, Note_on_c, 9, 61, 50
5, 93906, Note_on_c, 9, 68, 0
5, 93914, Note_on_c, 9, 61, 0
5, 93914, Note_on_c, 9, 70, 0
5, 93959, Note_on_c, 9, 70, 80
5, 93959, Note_on_c, 9, 64, 120
5, 93959, Note_on_c, 9, 36, 60
5, 93974, Note_on_c, 9, 36, 0
5, 93974, Note_on_c, 9, 64, 0
5, 93974, Note_on_c, 9, 70, 0
5, 94019, Note_on_c, 9, 70, 60
5, 94019, Note_on_c, 9, 64, 120
5, 94019, Note_on_c, 9, 56, 48
5, 94034, Note_on_c, 9, 56, 0
5, 94034, Note_on_c, 9, 64, 0
5, 94034, Note_on_c, 9, 70, 0
5, 94079, Note_on_c, 9, 70, 80
5, 94079, Note_on_c, 9, 60, 50
5, 94079, Note_on_c, 9, 56, 70
5, 94094, Note_on_c, 9, 56, 0
5, 94094, Note_on_c, 9, 60, 0
5, 94094, Note_on_c, 9, 70, 0
5, 94139, Note_on_c, 9, 70, 60
5, 94139, Note_on_c, 9, 62, 57
5, 94154, Note_on_c, 9, 62, 0
5, 94154, Note_on_c, 9, 70, 0
5, 94169, Note_on_c, 9, 70, 70
5, 94184, Note_on_c, 9, 70, 0
5, 94199, Note_on_c, 9, 70, 60
5, 94199, Note_on_c, 9, 62, 120
5, 94214, Note_on_c, 9, 62, 0
5, 94214, Note_on_c, 9, 70, 0
5, 94259, Note_on_c, 9, 70, 60
5, 94259, Note_on_c, 9, 61, 50
5, 94259, Note_on_c, 9, 56, 48
5, 94259, Note_on_c, 9, 36, 60
5, 94274, Note_on_c, 9, 36, 0
5, 94274, Note_on_c, 9, 70, 0
5, 94274, Note_on_c, 9, 61, 0
5, 94274, Note_on_c, 9, 56, 0
5, 94319, Note_on_c, 9, 70, 80
5, 94319, Note_on_c, 9, 60, 50
5, 94319, Note_on_c, 9, 56, 70
5, 94334, Note_on_c, 9, 56, 0
5, 94334, Note_on_c, 9, 60, 0
5, 94334, Note_on_c, 9, 70, 0
5, 94379, Note_on_c, 9, 70, 60
5, 94379, Note_on_c, 9, 60, 50
5, 94394, Note_on_c, 9, 60, 0
5, 94394, Note_on_c, 9, 70, 0
5, 94437, Note_on_c, 9, 68, 31
5, 94439, Note_on_c, 9, 70, 80
5, 94439, Note_on_c, 9, 64, 120
5, 94439, Note_on_c, 9, 36, 60
5, 94453, Note_on_c, 9, 68, 0
5, 94454, Note_on_c, 9, 70, 0
5, 94454, Note_on_c, 9, 64, 0
5, 94454, Note_on_c, 9, 36, 0
5, 94499, Note_on_c, 9, 70, 60
5, 94499, Note_on_c, 9, 64, 120
5, 94499, Note_on_c, 9, 56, 48
5, 94505, Note_on_c, 9, 68, 47
5, 94514, Note_on_c, 9, 56, 0
5, 94514, Note_on_c, 9, 70, 0
5, 94514, Note_on_c, 9, 64, 0
5, 94560, Program_c, 9, 0
5, 94561, Note_on_c, 9, 70, 80
5, 94561, Note_on_c, 9, 60, 50
5, 94561, Note_on_c, 9, 56, 70
5, 94564, Note_on_c, 9, 68, 0
5, 94575, Note_on_c, 9, 70, 0
5, 94575, Note_on_c, 9, 60, 0
5, 94576, Note_on_c, 9, 56, 0
5, 94619, Note_on_c, 9, 70, 60
5, 94619, Note_on_c, 9, 62, 57
5, 94634, Note_on_c, 9, 62, 0
5, 94634, Note_on_c, 9, 70, 0
5, 94649, Note_on_c, 9, 70, 70
5, 94664, Note_on_c, 9, 70, 0
5, 94678, Note_on_c, 9, 62, 120
5, 94679, Note_on_c, 9, 70, 80
5, 94679, Note_on_c, 9, 67, 24
5, 94694, Note_on_c, 9, 70, 0
5, 94694, Note_on_c, 9, 62, 0
5, 94702, Note_on_c, 9, 67, 0
5, 94739, Note_on_c, 9, 70, 60
5, 94739, Note_on_c, 9, 60, 50
5, 94739, Note_on_c, 9, 56, 48
5, 94739, Note_on_c, 9, 36, 60
5, 94745, Note_on_c, 9, 67, 46
5, 94754, Note_on_c, 9, 36, 0
5, 94754, Note_on_c, 9, 56, 0
5, 94754, Note_on_c, 9, 70, 0
5, 94754, Note_on_c, 9, 60, 0
5, 94799, Note_on_c, 9, 70, 80
5, 94799, Note_on_c, 9, 61, 50
5, 94799, Note_on_c, 9, 56, 70
5, 94814, Note_on_c, 9, 56, 0
5, 94814, Note_on_c, 9, 61, 0
5, 94814, Note_on_c, 9, 70, 0
5, 94829, Note_on_c, 9, 67, 0
5, 94859, Note_on_c, 9, 70, 60
5, 94859, Note_on_c, 9, 61, 50
5, 94874, Note_on_c, 9, 61, 0
5, 94874, Note_on_c, 9, 70, 0
5, 94913, Note_on_c, 9, 68, 40
5, 94919, Note_on_c, 9, 70, 80
5, 94919, Note_on_c, 9, 64, 120
5, 94919, Note_on_c, 9, 36, 60
5, 94934, Note_on_c, 9, 36, 0
5, 94934, Note_on_c, 9, 64, 0
5, 94934, Note_on_c, 9, 70, 0
5, 94938, Note_on_c, 9, 68, 0
5, 94979, Note_on_c, 9, 70, 60
5, 94979, Note_on_c, 9, 64, 120
5, 94979, Note_on_c, 9, 56, 48
5, 94986, Note_on_c, 9, 68, 55
5, 94994, Note_on_c, 9, 56, 0
5, 94994, Note_on_c, 9, 70, 0
5, 94994, Note_on_c, 9, 64, 0
5, 95039, Note_on_c, 9, 70, 80
5, 95039, Note_on_c, 9, 60, 50
5, 95039, Note_on_c, 9, 56, 70
5, 95053, Note_on_c, 9, 68, 0
5, 95054, Note_on_c, 9, 70, 0
5, 95054, Note_on_c, 9, 60, 0
5, 95054, Note_on_c, 9, 56, 0
5, 95099, Note_on_c, 9, 70, 60
5, 95099, Note_on_c, 9, 62, 57
5, 95108, Note_on_c, 9, 67, 29
5, 95114, Note_on_c, 9, 62, 0
5, 95114, Note_on_c, 9, 70, 0
5, 95128, Note_on_c, 9, 67, 0
5, 95129, Note_on_c, 9, 70, 70
5, 95129, Note_on_c, 9, 65, 70
5, 95144, Note_on_c, 9, 70, 0
5, 95157, Note_on_c, 9, 65, 0
5, 95159, Note_on_c, 9, 70, 60
5, 95159, Note_on_c, 9, 62, 120
5, 95174, Note_on_c, 9, 62, 0
5, 95174, Note_on_c, 9, 70, 0
5, 95175, Note_on_c, 9, 67, 4
5, 95190, Note_on_c, 9, 67, 0
5, 95219, Note_on_c, 9, 70, 60
5, 95219, Note_on_c, 9, 65, 28
5, 95219, Note_on_c, 9, 61, 50
5, 95219, Note_on_c, 9, 56, 48
5, 95219, Note_on_c, 9, 36, 60
5, 95229, Note_on_c, 9, 65, 0
5, 95229, Note_on_c, 9, 67, 57
5, 95234, Note_on_c, 9, 56, 0
5, 95234, Note_on_c, 9, 36, 0
5, 95234, Note_on_c, 9, 70, 0
5, 95234, Note_on_c, 9, 61, 0
5, 95279, Note_on_c, 9, 70, 80
5, 95279, Note_on_c, 9, 60, 50
5, 95279, Note_on_c, 9, 56, 70
5, 95294, Note_on_c, 9, 56, 0
5, 95294, Note_on_c, 9, 60, 0
5, 95294, Note_on_c, 9, 70, 0
5, 95339, Note_on_c, 9, 70, 60
5, 95339, Note_on_c, 9, 60, 50
5, 95354, Note_on_c, 9, 60, 0
5, 95354, Note_on_c, 9, 70, 0
5, 95356, Note_on_c, 9, 67, 0
5, 95399, Note_on_c, 9, 70, 80
5, 95399, Note_on_c, 9, 64, 120
5, 95399, Note_on_c, 9, 36, 60
5, 95401, Note_on_c, 9, 68, 28
5, 95413, Note_on_c, 9, 36, 0
5, 95414, Note_on_c, 9, 70, 0
5, 95414, Note_on_c, 9, 64, 0
5, 95429, Note_on_c, 9, 68, 0
5, 95459, Note_on_c, 9, 70, 60
5, 95459, Note_on_c, 9, 64, 120
5, 95459, Note_on_c, 9, 56, 48
5, 95465, Note_on_c, 9, 68, 50
5, 95474, Note_on_c, 9, 56, 0
5, 95474, Note_on_c, 9, 70, 0
5, 95474, Note_on_c, 9, 64, 0
5, 95520, Note_on_c, 9, 60, 50
5, 95520, Note_on_c, 9, 70, 80
5, 95521, Note_on_c, 9, 56, 70
5, 95534, Note_on_c, 9, 70, 0
5, 95534, Note_on_c, 9, 60, 0
5, 95535, Note_on_c, 9, 56, 0
5, 95579, Note_on_c, 9, 70, 60
5, 95579, Note_on_c, 9, 66, 48
5, 95579, Note_on_c, 9, 62, 57
5, 95587, Note_on_c, 9, 68, 0
5, 95594, Note_on_c, 9, 70, 0
5, 95594, Note_on_c, 9, 66, 0
5, 95594, Note_on_c, 9, 62, 0
5, 95609, Note_on_c, 9, 70, 70
5, 95623, Note_on_c, 9, 70, 0
5, 95639, Note_on_c, 9, 70, 80
5, 95639, Note_on_c, 9, 66, 72
5, 95639, Note_on_c, 9, 62, 120
5, 95644, Note_on_c, 9, 67, 30
5, 95654, Note_on_c, 9, 62, 0
5, 95654, Note_on_c, 9, 70, 0
5, 95664, Note_on_c, 9, 66, 0
5, 95671, Note_on_c, 9, 67, 0
5, 95699, Note_on_c, 9, 70, 60
5, 95699, Note_on_c, 9, 60, 50
5, 95699, Note_on_c, 9, 56, 48
5, 95699, Note_on_c, 9, 36, 60
5, 95704, Note_on_c, 9, 67, 39
5, 95714, Note_on_c, 9, 36, 0
5, 95714, Note_on_c, 9, 56, 0
5, 95714, Note_on_c, 9, 70, 0
5, 95714, Note_on_c, 9, 60, 0
5, 95759, Note_on_c, 9, 70, 80
5, 95759, Note_on_c, 9, 66, 76
5, 95759, Note_on_c, 9, 61, 50
5, 95759, Note_on_c, 9, 56, 70
5, 95774, Note_on_c, 9, 56, 0
5, 95774, Note_on_c, 9, 70, 0
5, 95774, Note_on_c, 9, 61, 0
5, 95786, Note_on_c, 9, 66, 0
5, 95819, Note_on_c, 9, 70, 60
5, 95819, Note_on_c, 9, 61, 50
5, 95821, Note_on_c, 9, 67, 0
5, 95834, Note_on_c, 9, 61, 0
5, 95834, Note_on_c, 9, 70, 0
5, 95876, Note_on_c, 9, 68, 52
5, 95879, Note_on_c, 9, 70, 80
5, 95879, Note_on_c, 9, 65, 41
5, 95879, Note_on_c, 9, 64, 120
5, 95879, Note_on_c, 9, 36, 60
5, 95894, Note_on_c, 9, 36, 0
5, 95894, Note_on_c, 9, 70, 0
5, 95894, Note_on_c, 9, 64, 0
5, 95895, Note_on_c, 9, 65, 0
5, 95922, Note_on_c, 9, 68, 0
5, 95939, Note_on_c, 9, 70, 60
5, 95939, Note_on_c, 9, 65, 81
5, 95939, Note_on_c, 9, 64, 120
5, 95939, Note_on_c, 9, 56, 48
5, 95949, Note_on_c, 9, 68, 39
5, 95954, Note_on_c, 9, 56, 0
5, 95954, Note_on_c, 9, 64, 0
5, 95954, Note_on_c, 9, 70, 0
5, 95973, Note_on_c, 9, 65, 0
5, 95999, Note_on_c, 9, 68, 0
5, 95999, Note_on_c, 9, 70, 80
5, 95999, Note_on_c, 9, 60, 50
5, 95999, Note_on_c, 9, 56, 70
5, 96014, Note_on_c, 9, 56, 0
5, 96014, Note_on_c, 9, 60, 0
5, 96014, Note_on_c, 9, 70, 0
5, 96059, Note_on_c, 9, 70, 60
5, 96059, Note_on_c, 9, 66, 79
5, 96059, Note_on_c, 9, 62, 57
5, 96074, Note_on_c, 9, 62, 0
5, 96074, Note_on_c, 9, 70, 0
5, 96083, Note_on_c, 9, 66, 0
5, 96089, Note_on_c, 9, 70, 70
5, 96104, Note_on_c, 9, 70, 0
5, 96119, Note_on_c, 9, 70, 60
5, 96119, Note_on_c, 9, 62, 120
5, 96128, Note_on_c, 9, 67, 53
5, 96134, Note_on_c, 9, 62, 0
5, 96134, Note_on_c, 9, 70, 0
5, 96179, Note_on_c, 9, 70, 60
5, 96179, Note_on_c, 9, 65, 81
5, 96179, Note_on_c, 9, 61, 50
5, 96179, Note_on_c, 9, 56, 48
5, 96179, Note_on_c, 9, 36, 60
5, 96183, Note_on_c, 9, 67, 0
5, 96194, Note_on_c, 9, 56, 0
5, 96194, Note_on_c, 9, 61, 0
5, 96194, Note_on_c, 9, 70, 0
5, 96194, Note_on_c, 9, 36, 0
5, 96209, Note_on_c, 9, 65, 0
5, 96239, Note_on_c, 9, 70, 80
5, 96239, Note_on_c, 9, 60, 50
5, 96239, Note_on_c, 9, 56, 70
5, 96254, Note_on_c, 9, 56, 0
5, 96254, Note_on_c, 9, 60, 0
5, 96254, Note_on_c, 9, 70, 0
5, 96299, Note_on_c, 9, 70, 60
5, 96299, Note_on_c, 9, 60, 50
5, 96314, Note_on_c, 9, 60, 0
5, 96314, Note_on_c, 9, 70, 0
5, 96359, Note_on_c, 9, 70, 80
5, 96359, Note_on_c, 9, 64, 120
5, 96359, Note_on_c, 9, 36, 60
5, 96367, Note_on_c, 9, 68, 38
5, 96374, Note_on_c, 9, 36, 0
5, 96374, Note_on_c, 9, 70, 0
5, 96374, Note_on_c, 9, 64, 0
5, 96393, Note_on_c, 9, 68, 0
5, 96419, Note_on_c, 9, 70, 60
5, 96419, Note_on_c, 9, 64, 120
5, 96419, Note_on_c, 9, 56, 48
5, 96428, Note_on_c, 9, 68, 52
5, 96434, Note_on_c, 9, 56, 0
5, 96434, Note_on_c, 9, 70, 0
5, 96434, Note_on_c, 9, 64, 0
5, 96480, Program_c, 9, 0
5, 96481, Note_on_c, 9, 70, 80
5, 96481, Note_on_c, 9, 60, 50
5, 96481, Note_on_c, 9, 56, 70
5, 96484, Note_on_c, 9, 68, 0
5, 96495, Note_on_c, 9, 70, 0
5, 96495, Note_on_c, 9, 60, 0
5, 96496, Note_on_c, 9, 56, 0
5, 96539, Note_on_c, 9, 70, 60
5, 96539, Note_on_c, 9, 62, 57
5, 96554, Note_on_c, 9, 62, 0
5, 96554, Note_on_c, 9, 70, 0
5, 96569, Note_on_c, 9, 70, 70
5, 96584, Note_on_c, 9, 70, 0
5, 96598, Note_on_c, 9, 67, 41
5, 96599, Note_on_c, 9, 70, 80
5, 96599, Note_on_c, 9, 62, 120
5, 96614, Note_on_c, 9, 62, 0
5, 96614, Note_on_c, 9, 70, 0
5, 96630, Note_on_c, 9, 67, 0
5, 96659, Note_on_c, 9, 70, 60
5, 96659, Note_on_c, 9, 60, 50
5, 96659, Note_on_c, 9, 56, 48
5, 96659, Note_on_c, 9, 36, 60
5, 96664, Note_on_c, 9, 67, 43
5, 96674, Note_on_c, 9, 36, 0
5, 96674, Note_on_c, 9, 56, 0
5, 96674, Note_on_c, 9, 70, 0
5, 96674, Note_on_c, 9, 60, 0
5, 96699, Note_on_c, 9, 67, 0
5, 96719, Note_on_c, 9, 70, 80
5, 96719, Note_on_c, 9, 61, 50
5, 96719, Note_on_c, 9, 56, 70
5, 96734, Note_on_c, 9, 56, 0
5, 96734, Note_on_c, 9, 61, 0
5, 96734, Note_on_c, 9, 70, 0
5, 96779, Note_on_c, 9, 70, 60
5, 96779, Note_on_c, 9, 61, 50
5, 96787, Note_on_c, 9, 68, 42
5, 96794, Note_on_c, 9, 61, 0
5, 96794, Note_on_c, 9, 70, 0
5, 96810, Note_on_c, 9, 68, 0
5, 96839, Note_on_c, 9, 70, 80
5, 96839, Note_on_c, 9, 64, 120
5, 96839, Note_on_c, 9, 36, 60
5, 96848, Note_on_c, 9, 68, 67
5, 96854, Note_on_c, 9, 36, 0
5, 96854, Note_on_c, 9, 70, 0
5, 96854, Note_on_c, 9, 64, 0
5, 96899, Note_on_c, 9, 70, 60
5, 96899, Note_on_c, 9, 64, 120
5, 96899, Note_on_c, 9, 56, 48
5, 96914, Note_on_c, 9, 56, 0
5, 96914, Note_on_c, 9, 64, 0
5, 96914, Note_on_c, 9, 70, 0
5, 96918, Note_on_c, 9, 68, 0
5, 96959, Note_on_c, 9, 70, 80
5, 96959, Note_on_c, 9, 60, 50
5, 96959, Note_on_c, 9, 56, 70
5, 96974, Note_on_c, 9, 56, 0
5, 96974, Note_on_c, 9, 60, 0
5, 96974, Note_on_c, 9, 70, 0
5, 97019, Note_on_c, 9, 70, 60
5, 97019, Note_on_c, 9, 62, 57
5, 97034, Note_on_c, 9, 62, 0
5, 97034, Note_on_c, 9, 70, 0
5, 97049, Note_on_c, 9, 70, 70
5, 97064, Note_on_c, 9, 70, 0
5, 97074, Note_on_c, 9, 67, 26
5, 97079, Note_on_c, 9, 70, 60
5, 97079, Note_on_c, 9, 62, 120
5, 97094, Note_on_c, 9, 62, 0
5, 97094, Note_on_c, 9, 70, 0
5, 97099, Note_on_c, 9, 67, 0
5, 97135, Note_on_c, 9, 67, 49
5, 97139, Note_on_c, 9, 70, 60
5, 97139, Note_on_c, 9, 61, 50
5, 97139, Note_on_c, 9, 56, 48
5, 97139, Note_on_c, 9, 36, 60
5, 97154, Note_on_c, 9, 36, 0
5, 97154, Note_on_c, 9, 61, 0
5, 97154, Note_on_c, 9, 56, 0
5, 97154, Note_on_c, 9, 70, 0
5, 97199, Note_on_c, 9, 70, 80
5, 97199, Note_on_c, 9, 60, 50
5, 97199, Note_on_c, 9, 56, 70
5, 97213, Note_on_c, 9, 67, 0
5, 97214, Note_on_c, 9, 70, 0
5, 97214, Note_on_c, 9, 60, 0
5, 97214, Note_on_c, 9, 56, 0
5, 97259, Note_on_c, 9, 70, 60
5, 97259, Note_on_c, 9, 60, 50
5, 97270, Note_on_c, 9, 68, 64
5, 97274, Note_on_c, 9, 60, 0
5, 97274, Note_on_c, 9, 70, 0
5, 97319, Note_on_c, 9, 70, 80
5, 97319, Note_on_c, 9, 64, 120
5, 97319, Note_on_c, 9, 36, 60
5, 97328, Note_on_c, 9, 68, 0
5, 97334, Note_on_c, 9, 70, 0
5, 97334, Note_on_c, 9, 64, 0
5, 97334, Note_on_c, 9, 36, 0
5, 97379, Note_on_c, 9, 70, 60
5, 97379, Note_on_c, 9, 64, 120
5, 97379, Note_on_c, 9, 56, 48
5, 97382, Note_on_c, 9, 68, 60
5, 97394, Note_on_c, 9, 56, 0
5, 97394, Note_on_c, 9, 70, 0
5, 97394, Note_on_c, 9, 64, 0
5, 97439, Note_on_c, 9, 68, 0
5, 97440, Note_on_c, 9, 60, 50
5, 97440, Note_on_c, 9, 70, 80
5, 97441, Note_on_c, 9, 56, 70
5, 97454, Note_on_c, 9, 70, 0
5, 97454, Note_on_c, 9, 60, 0
5, 97455, Note_on_c, 9, 56, 0
5, 97499, Note_on_c, 9, 70, 60
5, 97499, Note_on_c, 9, 62, 57
5, 97505, Note_on_c, 9, 67, 42
5, 97514, Note_on_c, 9, 62, 0
5, 97514, Note_on_c, 9, 70, 0
5, 97529, Note_on_c, 9, 70, 70
5, 97533, Note_on_c, 9, 67, 0
5, 97544, Note_on_c, 9, 70, 0
5, 97555, Note_on_c, 9, 67, 47
5, 97559, Note_on_c, 9, 70, 80
5, 97559, Note_on_c, 9, 62, 120
5, 97574, Note_on_c, 9, 62, 0
5, 97574, Note_on_c, 9, 70, 0
5, 97606, Note_on_c, 9, 67, 0
5, 97619, Note_on_c, 9, 70, 60
5, 97619, Note_on_c, 9, 60, 50
5, 97619, Note_on_c, 9, 56, 48
5, 97619, Note_on_c, 9, 36, 60
5, 97634, Note_on_c, 9, 36, 0
5, 97634, Note_on_c, 9, 70, 0
5, 97634, Note_on_c, 9, 60, 0
5, 97634, Note_on_c, 9, 56, 0
5, 97679, Note_on_c, 9, 70, 80
5, 97679, Note_on_c, 9, 61, 50
5, 97679, Note_on_c, 9, 56, 70
5, 97679, Note_on_c, 9, 67, 64
5, 97694, Note_on_c, 9, 56, 0
5, 97694, Note_on_c, 9, 70, 0
5, 97694, Note_on_c, 9, 61, 0
5, 97724, Note_on_c, 9, 67, 0
5, 97739, Note_on_c, 9, 70, 60
5, 97739, Note_on_c, 9, 61, 50
5, 97754, Note_on_c, 9, 61, 0
5, 97754, Note_on_c, 9, 70, 0
5, 97799, Note_on_c, 9, 70, 80
5, 97799, Note_on_c, 9, 64, 120
5, 97799, Note_on_c, 9, 36, 60
5, 97799, Note_on_c, 9, 68, 54
5, 97814, Note_on_c, 9, 36, 0
5, 97814, Note_on_c, 9, 70, 0
5, 97814, Note_on_c, 9, 64, 0
5, 97851, Note_on_c, 9, 68, 0
5, 97859, Note_on_c, 9, 70, 60
5, 97859, Note_on_c, 9, 64, 120
5, 97859, Note_on_c, 9, 56, 48
5, 97874, Note_on_c, 9, 56, 0
5, 97874, Note_on_c, 9, 64, 0
5, 97874, Note_on_c, 9, 70, 0
5, 97919, Note_on_c, 9, 70, 80
5, 97919, Note_on_c, 9, 60, 50
5, 97919, Note_on_c, 9, 56, 70
5, 97934, Note_on_c, 9, 56, 0
5, 97934, Note_on_c, 9, 60, 0
5, 97934, Note_on_c, 9, 70, 0
5, 97979, Note_on_c, 9, 62, 57
5, 97979, Note_on_c, 9, 70, 60
5, 97994, Note_on_c, 9, 70, 0
5, 97994, Note_on_c, 9, 62, 0
5, 98009, Note_on_c, 9, 70, 70
5, 98024, Note_on_c, 9, 70, 0
5, 98039, Note_on_c, 9, 62, 120
5, 98039, Note_on_c, 9, 70, 60
5, 98053, Note_on_c, 9, 70, 0
5, 98053, Note_on_c, 9, 62, 0
5, 98089, Note_on_c, 9, 67, 47
5, 98099, Note_on_c, 9, 36, 60
5, 98099, Note_on_c, 9, 56, 48
5, 98099, Note_on_c, 9, 61, 50
5, 98099, Note_on_c, 9, 70, 60
5, 98114, Note_on_c, 9, 70, 0
5, 98114, Note_on_c, 9, 56, 0
5, 98114, Note_on_c, 9, 61, 0
5, 98114, Note_on_c, 9, 36, 0
5, 98129, Note_on_c, 9, 67, 0
5, 98159, Note_on_c, 9, 56, 70
5, 98159, Note_on_c, 9, 60, 50
5, 98159, Note_on_c, 9, 70, 80
5, 98174, Note_on_c, 9, 70, 0
5, 98174, Note_on_c, 9, 60, 0
5, 98174, Note_on_c, 9, 56, 0
5, 98219, Note_on_c, 9, 60, 50
5, 98219, Note_on_c, 9, 70, 60
5, 98221, Note_on_c, 9, 67, 39
5, 98233, Note_on_c, 9, 67, 0
5, 98234, Note_on_c, 9, 70, 0
5, 98234, Note_on_c, 9, 60, 0
5, 98279, Note_on_c, 9, 36, 60
5, 98279, Note_on_c, 9, 64, 120
5, 98279, Note_on_c, 9, 70, 80
5, 98284, Note_on_c, 9, 68, 56
5, 98294, Note_on_c, 9, 70, 0
5, 98294, Note_on_c, 9, 36, 0
5, 98294, Note_on_c, 9, 64, 0
5, 98321, Note_on_c, 9, 68, 0
5, 98339, Note_on_c, 9, 56, 48
5, 98339, Note_on_c, 9, 64, 120
5, 98339, Note_on_c, 9, 70, 60
5, 98347, Note_on_c, 9, 68, 45
5, 98354, Note_on_c, 9, 70, 0
5, 98354, Note_on_c, 9, 56, 0
5, 98354, Note_on_c, 9, 64, 0
5, 98400, Program_c, 9, 0
5, 98401, Note_on_c, 9, 56, 70
5, 98401, Note_on_c, 9, 60, 50
5, 98401, Note_on_c, 9, 70, 80
5, 98403, Note_on_c, 9, 68, 0
5, 98415, Note_on_c, 9, 70, 0
5, 98415, Note_on_c, 9, 60, 0
5, 98416, Note_on_c, 9, 56, 0
5, 98459, Note_on_c, 9, 62, 57
5, 98459, Note_on_c, 9, 70, 60
5, 98474, Note_on_c, 9, 70, 0
5, 98474, Note_on_c, 9, 62, 0
5, 98489, Note_on_c, 9, 70, 70
5, 98504, Note_on_c, 9, 70, 0
5, 98518, Note_on_c, 9, 67, 33
5, 98519, Note_on_c, 9, 62, 120
5, 98519, Note_on_c, 9, 70, 80
5, 98534, Note_on_c, 9, 70, 0
5, 98534, Note_on_c, 9, 62, 0
5, 98549, Note_on_c, 9, 67, 0
5, 98579, Note_on_c, 9, 36, 60
5, 98579, Note_on_c, 9, 56, 48
5, 98579, Note_on_c, 9, 60, 50
5, 98579, Note_on_c, 9, 70, 60
5, 98587, Note_on_c, 9, 67, 47
5, 98594, Note_on_c, 9, 70, 0
5, 98594, Note_on_c, 9, 60, 0
5, 98594, Note_on_c, 9, 36, 0
5, 98594, Note_on_c, 9, 56, 0
5, 98622, Note_on_c, 9, 67, 0
5, 98639, Note_on_c, 9, 56, 70
5, 98639, Note_on_c, 9, 61, 50
5, 98639, Note_on_c, 9, 70, 80
5, 98654, Note_on_c, 9, 70, 0
5, 98654, Note_on_c, 9, 61, 0
5, 98654, Note_on_c, 9, 56, 0
5, 98699, Note_on_c, 9, 61, 50
5, 98699, Note_on_c, 9, 70, 60
5, 98713, Note_on_c, 9, 70, 0
5, 98713, Note_on_c, 9, 61, 0
5, 98759, Note_on_c, 9, 36, 60
5, 98759, Note_on_c, 9, 64, 120
5, 98759, Note_on_c, 9, 70, 80
5, 98760, Note_on_c, 9, 68, 54
5, 98774, Note_on_c, 9, 70, 0
5, 98774, Note_on_c, 9, 36, 0
5, 98774, Note_on_c, 9, 64, 0
5, 98815, Note_on_c, 9, 68, 0
5, 98819, Note_on_c, 9, 56, 48
5, 98819, Note_on_c, 9, 64, 120
5, 98819, Note_on_c, 9, 70, 60
5, 98834, Note_on_c, 9, 70, 0
5, 98834, Note_on_c, 9, 64, 0
5, 98834, Note_on_c, 9, 56, 0
5, 98879, Note_on_c, 9, 56, 70
5, 98879, Note_on_c, 9, 60, 50
5, 98879, Note_on_c, 9, 70, 80
5, 98894, Note_on_c, 9, 70, 0
5, 98894, Note_on_c, 9, 60, 0
5, 98894, Note_on_c, 9, 56, 0
5, 98939, Note_on_c, 9, 62, 57
5, 98939, Note_on_c, 9, 70, 60
5, 98954, Note_on_c, 9, 70, 0
5, 98954, Note_on_c, 9, 62, 0
5, 98969, Note_on_c, 9, 70, 70
5, 98984, Note_on_c, 9, 70, 0
5, 98997, Note_on_c, 9, 67, 37
5, 98999, Note_on_c, 9, 62, 120
5, 98999, Note_on_c, 9, 70, 60
5, 99014, Note_on_c, 9, 70, 0
5, 99014, Note_on_c, 9, 62, 0
5, 99025, Note_on_c, 9, 67, 0
5, 99058, Note_on_c, 9, 67, 45
5, 99059, Note_on_c, 9, 36, 60
5, 99059, Note_on_c, 9, 56, 48
5, 99059, Note_on_c, 9, 61, 50
5, 99059, Note_on_c, 9, 70, 60
5, 99074, Note_on_c, 9, 70, 0
5, 99074, Note_on_c, 9, 56, 0
5, 99074, Note_on_c, 9, 61, 0
5, 99074, Note_on_c, 9, 36, 0
5, 99119, Note_on_c, 9, 56, 70
5, 99119, Note_on_c, 9, 60, 50
5, 99119, Note_on_c, 9, 70, 80
5, 99126, Note_on_c, 9, 67, 0
5, 99134, Note_on_c, 9, 56, 0
5, 99134, Note_on_c, 9, 60, 0
5, 99134, Note_on_c, 9, 70, 0
5, 99179, Note_on_c, 9, 60, 50
5, 99179, Note_on_c, 9, 70, 60
5, 99194, Note_on_c, 9, 70, 0
5, 99194, Note_on_c, 9, 60, 0
5, 99239, Note_on_c, 9, 36, 60
5, 99239, Note_on_c, 9, 64, 120
5, 99239, Note_on_c, 9, 70, 80
5, 99254, Note_on_c, 9, 70, 0
5, 99254, Note_on_c, 9, 64, 0
5, 99254, Note_on_c, 9, 36, 0
5, 99256, Note_on_c, 9, 68, 60
5, 99299, Note_on_c, 9, 56, 48
5, 99299, Note_on_c, 9, 64, 120
5, 99299, Note_on_c, 9, 70, 60
5, 99310, Note_on_c, 9, 68, 0
5, 99314, Note_on_c, 9, 56, 0
5, 99314, Note_on_c, 9, 64, 0
5, 99314, Note_on_c, 9, 70, 0
5, 99360, Note_on_c, 9, 70, 80
5, 99360, Note_on_c, 9, 60, 50
5, 99361, Note_on_c, 9, 56, 70
5, 99374, Note_on_c, 9, 60, 0
5, 99374, Note_on_c, 9, 70, 0
5, 99375, Note_on_c, 9, 56, 0
5, 99419, Note_on_c, 9, 62, 57
5, 99419, Note_on_c, 9, 70, 60
5, 99434, Note_on_c, 9, 70, 0
5, 99434, Note_on_c, 9, 62, 0
5, 99449, Note_on_c, 9, 70, 70
5, 99464, Note_on_c, 9, 70, 0
5, 99479, Note_on_c, 9, 62, 120
5, 99479, Note_on_c, 9, 70, 80
5, 99482, Note_on_c, 9, 67, 30
5, 99494, Note_on_c, 9, 70, 0
5, 99494, Note_on_c, 9, 62, 0
5, 99500, Note_on_c, 9, 67, 0
5, 99539, Note_on_c, 9, 36, 60
5, 99539, Note_on_c, 9, 56, 48
5, 99539, Note_on_c, 9, 60, 50
5, 99539, Note_on_c, 9, 70, 60
5, 99543, Note_on_c, 9, 67, 50
5, 99554, Note_on_c, 9, 70, 0
5, 99554, Note_on_c, 9, 60, 0
5, 99554, Note_on_c, 9, 36, 0
5, 99554, Note_on_c, 9, 56, 0
5, 99599, Note_on_c, 9, 56, 70
5, 99599, Note_on_c, 9, 61, 50
5, 99599, Note_on_c, 9, 70, 80
5, 99614, Note_on_c, 9, 70, 0
5, 99614, Note_on_c, 9, 61, 0
5, 99614, Note_on_c, 9, 56, 0
5, 99638, Note_on_c, 9, 67, 0
5, 99659, Note_on_c, 9, 61, 50
5, 99659, Note_on_c, 9, 70, 60
5, 99674, Note_on_c, 9, 70, 0
5, 99674, Note_on_c, 9, 61, 0
5, 99719, Note_on_c, 9, 36, 60
5, 99719, Note_on_c, 9, 64, 120
5, 99719, Note_on_c, 9, 70, 80
5, 99726, Note_on_c, 9, 68, 42
5, 99734, Note_on_c, 9, 70, 0
5, 99734, Note_on_c, 9, 36, 0
5, 99734, Note_on_c, 9, 64, 0
5, 99752, Note_on_c, 9, 68, 0
5, 99779, Note_on_c, 9, 56, 48
5, 99779, Note_on_c, 9, 64, 120
5, 99779, Note_on_c, 9, 70, 60
5, 99788, Note_on_c, 9, 68, 46
5, 99794, Note_on_c, 9, 70, 0
5, 99794, Note_on_c, 9, 56, 0
5, 99794, Note_on_c, 9, 64, 0
5, 99839, Note_on_c, 9, 56, 70
5, 99839, Note_on_c, 9, 60, 50
5, 99839, Note_on_c, 9, 70, 80
5, 99854, Note_on_c, 9, 70, 0
5, 99854, Note_on_c, 9, 60, 0
5, 99854, Note_on_c, 9, 56, 0
5, 99899, Note_on_c, 9, 62, 57
5, 99899, Note_on_c, 9, 70, 60
5, 99914, Note_on_c, 9, 70, 0
5, 99914, Note_on_c, 9, 62, 0
5, 99929, Note_on_c, 9, 70, 70
5, 99933, Note_on_c, 9, 68, 0
5, 99944, Note_on_c, 9, 70, 0
5, 99959, Note_on_c, 9, 62, 120
5, 99959, Note_on_c, 9, 70, 60
5, 99960, Note_on_c, 9, 67, 27
5, 99974, Note_on_c, 9, 70, 0
5, 99974, Note_on_c, 9, 62, 0
5, 99980, Note_on_c, 9, 67, 0
5, 100016, Note_on_c, 9, 67, 41
5, 100019, Note_on_c, 9, 36, 60
5, 100019, Note_on_c, 9, 56, 48
5, 100019, Note_on_c, 9, 61, 50
5, 100019, Note_on_c, 9, 70, 60
5, 100034, Note_on_c, 9, 70, 0
5, 100034, Note_on_c, 9, 56, 0
5, 100034, Note_on_c, 9, 61, 0
5, 100034, Note_on_c, 9, 36, 0
5, 100079, Note_on_c, 9, 56, 70
5, 100079, Note_on_c, 9, 60, 50
5, 100079, Note_on_c, 9, 70, 80
5, 100094, Note_on_c, 9, 70, 0
5, 100094, Note_on_c, 9, 60, 0
5, 100094, Note_on_c, 9, 56, 0
5, 100102, Note_on_c, 9, 67, 0
5, 100139, Note_on_c, 9, 60, 50
5, 100139, Note_on_c, 9, 70, 60
5, 100144, Note_on_c, 9, 68, 45
5, 100154, Note_on_c, 9, 70, 0
5, 100154, Note_on_c, 9, 60, 0
5, 100164, Note_on_c, 9, 68, 0
5, 100199, Note_on_c, 9, 36, 60
5, 100199, Note_on_c, 9, 64, 120
5, 100199, Note_on_c, 9, 70, 80
5, 100214, Note_on_c, 9, 70, 0
5, 100214, Note_on_c, 9, 64, 0
5, 100214, Note_on_c, 9, 36, 0
5, 100259, Note_on_c, 9, 56, 48
5, 100259, Note_on_c, 9, 64, 120
5, 100259, Note_on_c, 9, 70, 60
5, 100274, Note_on_c, 9, 70, 0
5, 100274, Note_on_c, 9, 64, 0
5, 100274, Note_on_c, 9, 56, 0
5, 100320, Program_c, 9, 0
5, 100321, Note_on_c, 9, 56, 70
5, 100321, Note_on_c, 9, 60, 50
5, 100321, Note_on_c, 9, 70, 80
5, 100328, Note_on_c, 9, 77, 30
5, 100335, Note_on_c, 9, 70, 0
5, 100335, Note_on_c, 9, 60, 0
5, 100336, Note_on_c, 9, 56, 0
5, 100341, Note_on_c, 9, 77, 0
5, 100379, Note_on_c, 9, 62, 57
5, 100379, Note_on_c, 9, 70, 60
5, 100394, Note_on_c, 9, 70, 0
5, 100394, Note_on_c, 9, 62, 0
5, 100409, Note_on_c, 9, 70, 70
5, 100424, Note_on_c, 9, 70, 0
5, 100439, Note_on_c, 9, 62, 120
5, 100439, Note_on_c, 9, 70, 80
5, 100449, Note_on_c, 9, 76, 39
5, 100454, Note_on_c, 9, 70, 0
5, 100454, Note_on_c, 9, 62, 0
5, 100471, Note_on_c, 9, 76, 0
5, 100499, Note_on_c, 9, 36, 60
5, 100499, Note_on_c, 9, 56, 48
5, 100499, Note_on_c, 9, 60, 50
5, 100499, Note_on_c, 9, 70, 60
5, 100509, Note_on_c, 9, 76, 35
5, 100514, Note_on_c, 9, 70, 0
5, 100514, Note_on_c, 9, 60, 0
5, 100514, Note_on_c, 9, 36, 0
5, 100514, Note_on_c, 9, 56, 0
5, 100538, Note_on_c, 9, 76, 0
5, 100559, Note_on_c, 9, 56, 70
5, 100559, Note_on_c, 9, 61, 50
5, 100559, Note_on_c, 9, 70, 80
5, 100574, Note_on_c, 9, 70, 0
5, 100574, Note_on_c, 9, 61, 0
5, 100574, Note_on_c, 9, 56, 0
5, 100619, Note_on_c, 9, 61, 50
5, 100619, Note_on_c, 9, 70, 60
5, 100634, Note_on_c, 9, 70, 0
5, 100634, Note_on_c, 9, 61, 0
5, 100679, Note_on_c, 9, 36, 60
5, 100679, Note_on_c, 9, 64, 120
5, 100679, Note_on_c, 9, 70, 80
5, 100688, Note_on_c, 9, 77, 22
5, 100693, Note_on_c, 9, 36, 0
5, 100694, Note_on_c, 9, 64, 0
5, 100694, Note_on_c, 9, 70, 0
5, 100703, Note_on_c, 9, 77, 0
5, 100739, Note_on_c, 9, 56, 48
5, 100739, Note_on_c, 9, 64, 120
5, 100739, Note_on_c, 9, 70, 60
5, 100752, Note_on_c, 9, 77, 40
5, 100754, Note_on_c, 9, 70, 0
5, 100754, Note_on_c, 9, 56, 0
5, 100754, Note_on_c, 9, 64, 0
5, 100786, Note_on_c, 9, 77, 0
5, 100799, Note_on_c, 9, 56, 70
5, 100799, Note_on_c, 9, 60, 50
5, 100799, Note_on_c, 9, 70, 80
5, 100814, Note_on_c, 9, 70, 0
5, 100814, Note_on_c, 9, 60, 0
5, 100814, Note_on_c, 9, 56, 0
5, 100859, Note_on_c, 9, 62, 57
5, 100859, Note_on_c, 9, 70, 60
5, 100874, Note_on_c, 9, 70, 0
5, 100874, Note_on_c, 9, 62, 0
5, 100889, Note_on_c, 9, 70, 70
5, 100904, Note_on_c, 9, 70, 0
5, 100919, Note_on_c, 9, 62, 120
5, 100919, Note_on_c, 9, 70, 60
5, 100926, Note_on_c, 9, 76, 10
5, 100934, Note_on_c, 9, 70, 0
5, 100934, Note_on_c, 9, 62, 0
5, 100949, Note_on_c, 9, 76, 0
5, 100979, Note_on_c, 9, 36, 60
5, 100979, Note_on_c, 9, 56, 48
5, 100979, Note_on_c, 9, 61, 50
5, 100979, Note_on_c, 9, 70, 60
5, 100994, Note_on_c, 9, 70, 0
5, 100994, Note_on_c, 9, 36, 0
5, 100994, Note_on_c, 9, 56, 0
5, 100994, Note_on_c, 9, 61, 0
5, 101039, Note_on_c, 9, 56, 70
5, 101039, Note_on_c, 9, 60, 50
5, 101039, Note_on_c, 9, 70, 80
5, 101054, Note_on_c, 9, 70, 0
5, 101054, Note_on_c, 9, 60, 0
5, 101054, Note_on_c, 9, 56, 0
5, 101099, Note_on_c, 9, 60, 50
5, 101099, Note_on_c, 9, 70, 60
5, 101114, Note_on_c, 9, 70, 0
5, 101114, Note_on_c, 9, 60, 0
5, 101114, Note_on_c, 9, 77, 48
5, 101139, Note_on_c, 9, 77, 0
5, 101159, Note_on_c, 9, 36, 60
5, 101159, Note_on_c, 9, 64, 120
5, 101159, Note_on_c, 9, 70, 80
5, 101160, Note_on_c, 9, 77, 48
5, 101174, Note_on_c, 9, 70, 0
5, 101174, Note_on_c, 9, 36, 0
5, 101174, Note_on_c, 9, 64, 0
5, 101219, Note_on_c, 9, 56, 48
5, 101219, Note_on_c, 9, 64, 120
5, 101219, Note_on_c, 9, 70, 60
5, 101231, Note_on_c, 9, 77, 0
5, 101234, Note_on_c, 9, 56, 0
5, 101234, Note_on_c, 9, 64, 0
5, 101234, Note_on_c, 9, 70, 0
5, 101280, Note_on_c, 9, 70, 80
5, 101280, Note_on_c, 9, 60, 50
5, 101281, Note_on_c, 9, 77, 50
5, 101281, Note_on_c, 9, 56, 70
5, 101294, Note_on_c, 9, 60, 0
5, 101294, Note_on_c, 9, 70, 0
5, 101295, Note_on_c, 9, 56, 0
5, 101326, Note_on_c, 9, 77, 0
5, 101339, Note_on_c, 9, 62, 57
5, 101339, Note_on_c, 9, 70, 60
5, 101353, Note_on_c, 9, 70, 0
5, 101353, Note_on_c, 9, 62, 0
5, 101369, Note_on_c, 9, 70, 70
5, 101384, Note_on_c, 9, 70, 0
5, 101399, Note_on_c, 9, 62, 120
5, 101399, Note_on_c, 9, 70, 80
5, 101408, Note_on_c, 9, 76, 9
5, 101414, Note_on_c, 9, 70, 0
5, 101414, Note_on_c, 9, 62, 0
5, 101430, Note_on_c, 9, 76, 0
5, 101459, Note_on_c, 9, 36, 60
5, 101459, Note_on_c, 9, 56, 48
5, 101459, Note_on_c, 9, 60, 50
5, 101459, Note_on_c, 9, 70, 60
5, 101468, Note_on_c, 9, 76, 30
5, 101474, Note_on_c, 9, 70, 0
5, 101474, Note_on_c, 9, 60, 0
5, 101474, Note_on_c, 9, 36, 0
5, 101474, Note_on_c, 9, 56, 0
5, 101502, Note_on_c, 9, 76, 0
5, 101519, Note_on_c, 9, 56, 70
5, 101519, Note_on_c, 9, 61, 50
5, 101519, Note_on_c, 9, 70, 80
5, 101534, Note_on_c, 9, 70, 0
5, 101534, Note_on_c, 9, 61, 0
5, 101534, Note_on_c, 9, 56, 0
5, 101579, Note_on_c, 9, 61, 50
5, 101579, Note_on_c, 9, 70, 60
5, 101594, Note_on_c, 9, 70, 0
5, 101594, Note_on_c, 9, 61, 0
5, 101595, Note_on_c, 9, 77, 42
5, 101615, Note_on_c, 9, 77, 0
5, 101639, Note_on_c, 9, 36, 60
5, 101639, Note_on_c, 9, 64, 120
5, 101639, Note_on_c, 9, 70, 80
5, 101654, Note_on_c, 9, 70, 0
5, 101654, Note_on_c, 9, 64, 0
5, 101654, Note_on_c, 9, 36, 0
5, 101699, Note_on_c, 9, 56, 48
5, 101699, Note_on_c, 9, 64, 120
5, 101699, Note_on_c, 9, 70, 60
5, 101714, Note_on_c, 9, 70, 0
5, 101714, Note_on_c, 9, 64, 0
5, 101714, Note_on_c, 9, 56, 0
5, 101759, Note_on_c, 9, 56, 70
5, 101759, Note_on_c, 9, 60, 50
5, 101759, Note_on_c, 9, 70, 80
5, 101774, Note_on_c, 9, 70, 0
5, 101774, Note_on_c, 9, 60, 0
5, 101774, Note_on_c, 9, 56, 0
5, 101819, Note_on_c, 9, 62, 57
5, 101819, Note_on_c, 9, 70, 60
5, 101833, Note_on_c, 9, 76, 41
5, 101834, Note_on_c, 9, 70, 0
5, 101834, Note_on_c, 9, 62, 0
5, 101849, Note_on_c, 9, 70, 70
5, 101858, Note_on_c, 9, 76, 0
5, 101864, Note_on_c, 9, 70, 0
5, 101879, Note_on_c, 9, 62, 120
5, 101879, Note_on_c, 9, 70, 60
5, 101894, Note_on_c, 9, 70, 0
5, 101894, Note_on_c, 9, 62, 0
5, 101939, Note_on_c, 9, 36, 60
5, 101939, Note_on_c, 9, 56, 48
5, 101939, Note_on_c, 9, 61, 50
5, 101939, Note_on_c, 9, 70, 60
5, 101944, Note_on_c, 9, 76, 45
5, 101954, Note_on_c, 9, 70, 0
5, 101954, Note_on_c, 9, 61, 0
5, 101954, Note_on_c, 9, 36, 0
5, 101954, Note_on_c, 9, 56, 0
5, 101977, Note_on_c, 9, 76, 0
5, 101999, Note_on_c, 9, 56, 70
5, 101999, Note_on_c, 9, 60, 50
5, 101999, Note_on_c, 9, 70, 80
5, 102013, Note_on_c, 9, 70, 0
5, 102013, Note_on_c, 9, 56, 0
5, 102014, Note_on_c, 9, 60, 0
5, 102059, Note_on_c, 9, 70, 60
5, 102059, Note_on_c, 9, 60, 50
5, 102061, Note_on_c, 9, 77, 37
5, 102074, Note_on_c, 9, 60, 0
5, 102074, Note_on_c, 9, 70, 0
5, 102076, Note_on_c, 9, 77, 0
5, 102119, Note_on_c, 9, 70, 80
5, 102119, Note_on_c, 9, 64, 120
5, 102119, Note_on_c, 9, 36, 60
5, 102128, Note_on_c, 9, 77, 31
5, 102134, Note_on_c, 9, 36, 0
5, 102134, Note_on_c, 9, 70, 0
5, 102134, Note_on_c, 9, 64, 0
5, 102144, Note_on_c, 9, 77, 0
5, 102179, Note_on_c, 9, 70, 60
5, 102179, Note_on_c, 9, 64, 120
5, 102179, Note_on_c, 9, 56, 48
5, 102186, Note_on_c, 9, 77, 39
5, 102194, Note_on_c, 9, 56, 0
5, 102194, Note_on_c, 9, 70, 0
5, 102194, Note_on_c, 9, 64, 0
5, 102213, Note_on_c, 9, 77, 0
5, 102240, Program_c, 9, 0
5, 102241, Note_on_c, 9, 70, 80
5, 102241, Note_on_c, 9, 60, 50
5, 102241, Note_on_c, 9, 56, 70
5, 102248, Note_on_c, 9, 77, 46
5, 102255, Note_on_c, 9, 60, 0
5, 102255, Note_on_c, 9, 70, 0
5, 102256, Note_on_c, 9, 56, 0
5, 102290, Note_on_c, 9, 77, 0
5, 102299, Note_on_c, 9, 70, 60
5, 102299, Note_on_c, 9, 62, 57
5, 102314, Note_on_c, 9, 62, 0
5, 102314, Note_on_c, 9, 70, 0
5, 102329, Note_on_c, 9, 70, 70
5, 102344, Note_on_c, 9, 70, 0
5, 102359, Note_on_c, 9, 70, 80
5, 102359, Note_on_c, 9, 62, 120
5, 102374, Note_on_c, 9, 62, 0
5, 102374, Note_on_c, 9, 70, 0
5, 102419, Note_on_c, 9, 70, 60
5, 102419, Note_on_c, 9, 60, 50
5, 102419, Note_on_c, 9, 56, 48
5, 102419, Note_on_c, 9, 36, 60
5, 102429, Note_on_c, 9, 76, 45
5, 102434, Note_on_c, 9, 36, 0
5, 102434, Note_on_c, 9, 56, 0
5, 102434, Note_on_c, 9, 70, 0
5, 102434, Note_on_c, 9, 60, 0
5, 102458, Note_on_c, 9, 76, 0
5, 102479, Note_on_c, 9, 70, 80
5, 102479, Note_on_c, 9, 61, 50
5, 102479, Note_on_c, 9, 56, 70
5, 102487, Note_on_c, 9, 76, 37
5, 102494, Note_on_c, 9, 56, 0
5, 102494, Note_on_c, 9, 70, 0
5, 102494, Note_on_c, 9, 61, 0
5, 102521, Note_on_c, 9, 76, 0
5, 102539, Note_on_c, 9, 70, 60
5, 102539, Note_on_c, 9, 61, 50
5, 102547, Note_on_c, 9, 76, 38
5, 102554, Note_on_c, 9, 61, 0
5, 102554, Note_on_c, 9, 70, 0
5, 102578, Note_on_c, 9, 76, 0
5, 102599, Note_on_c, 9, 70, 80
5, 102599, Note_on_c, 9, 64, 120
5, 102599, Note_on_c, 9, 36, 60
5, 102614, Note_on_c, 9, 36, 0
5, 102614, Note_on_c, 9, 64, 0
5, 102614, Note_on_c, 9, 70, 0
5, 102622, Note_on_c, 9, 76, 50
5, 102659, Note_on_c, 9, 70, 60
5, 102659, Note_on_c, 9, 64, 120
5, 102659, Note_on_c, 9, 56, 48
5, 102670, Note_on_c, 9, 76, 0
5, 102674, Note_on_c, 9, 70, 0
5, 102674, Note_on_c, 9, 64, 0
5, 102674, Note_on_c, 9, 56, 0
5, 102719, Note_on_c, 9, 70, 80
5, 102719, Note_on_c, 9, 60, 50
5, 102719, Note_on_c, 9, 56, 70
5, 102734, Note_on_c, 9, 56, 0
5, 102734, Note_on_c, 9, 60, 0
5, 102734, Note_on_c, 9, 70, 0
5, 102779, Note_on_c, 9, 70, 60
5, 102779, Note_on_c, 9, 62, 57
5, 102794, Note_on_c, 9, 62, 0
5, 102794, Note_on_c, 9, 70, 0
5, 102798, Note_on_c, 9, 77, 50
5, 102809, Note_on_c, 9, 70, 70
5, 102809, Note_on_c, 9, 66, 71
5, 102819, Note_on_c, 9, 77, 0
5, 102824, Note_on_c, 9, 70, 0
5, 102835, Note_on_c, 9, 66, 0
5, 102839, Note_on_c, 9, 70, 60
5, 102839, Note_on_c, 9, 62, 120
5, 102854, Note_on_c, 9, 62, 0
5, 102854, Note_on_c, 9, 70, 0
5, 102899, Note_on_c, 9, 70, 60
5, 102899, Note_on_c, 9, 61, 50
5, 102899, Note_on_c, 9, 56, 48
5, 102899, Note_on_c, 9, 36, 60
5, 102905, Note_on_c, 9, 77, 52
5, 102914, Note_on_c, 9, 36, 0
5, 102914, Note_on_c, 9, 56, 0
5, 102914, Note_on_c, 9, 70, 0
5, 102914, Note_on_c, 9, 61, 0
5, 102931, Note_on_c, 9, 77, 0
5, 102959, Note_on_c, 9, 70, 80
5, 102959, Note_on_c, 9, 60, 50
5, 102959, Note_on_c, 9, 56, 70
5, 102974, Note_on_c, 9, 56, 0
5, 102974, Note_on_c, 9, 60, 0
5, 102974, Note_on_c, 9, 70, 0
5, 102974, Note_on_c, 9, 77, 57
5, 103019, Note_on_c, 9, 70, 60
5, 103019, Note_on_c, 9, 60, 50
5, 103027, Note_on_c, 9, 77, 0
5, 103034, Note_on_c, 9, 60, 0
5, 103034, Note_on_c, 9, 70, 0
5, 103079, Note_on_c, 9, 70, 80
5, 103079, Note_on_c, 9, 64, 120
5, 103079, Note_on_c, 9, 36, 60
5, 103094, Note_on_c, 9, 36, 0
5, 103094, Note_on_c, 9, 64, 0
5, 103094, Note_on_c, 9, 70, 0
5, 103139, Note_on_c, 9, 70, 60
5, 103139, Note_on_c, 9, 64, 120
5, 103139, Note_on_c, 9, 56, 48
5, 103148, Note_on_c, 9, 76, 60
5, 103154, Note_on_c, 9, 56, 0
5, 103154, Note_on_c, 9, 70, 0
5, 103154, Note_on_c, 9, 64, 0
5, 103195, Note_on_c, 9, 76, 0
5, 103200, Note_on_c, 9, 56, 70
5, 103200, Note_on_c, 9, 60, 50
5, 103200, Note_on_c, 9, 70, 80
5, 103214, Note_on_c, 9, 70, 0
5, 103214, Note_on_c, 9, 60, 0
5, 103214, Note_on_c, 9, 56, 0
5, 103259, Note_on_c, 9, 70, 60
5, 103259, Note_on_c, 9, 65, 45
5, 103259, Note_on_c, 9, 62, 57
5, 103265, Note_on_c, 9, 76, 58
5, 103274, Note_on_c, 9, 62, 0
5, 103274, Note_on_c, 9, 70, 0
5, 103288, Note_on_c, 9, 65, 0
5, 103289, Note_on_c, 9, 70, 70
5, 103304, Note_on_c, 9, 70, 0
5, 103314, Note_on_c, 9, 76, 0
5, 103319, Note_on_c, 9, 70, 80
5, 103319, Note_on_c, 9, 66, 71
5, 103319, Note_on_c, 9, 62, 120
5, 103333, Note_on_c, 9, 62, 0
5, 103333, Note_on_c, 9, 70, 0
5, 103347, Note_on_c, 9, 66, 0
5, 103379, Note_on_c, 9, 70, 60
5, 103379, Note_on_c, 9, 60, 50
5, 103379, Note_on_c, 9, 56, 48
5, 103379, Note_on_c, 9, 36, 60
5, 103383, Note_on_c, 9, 76, 49
5, 103394, Note_on_c, 9, 36, 0
5, 103394, Note_on_c, 9, 56, 0
5, 103394, Note_on_c, 9, 70, 0
5, 103394, Note_on_c, 9, 60, 0
5, 103410, Note_on_c, 9, 76, 0
5, 103439, Note_on_c, 9, 70, 80
5, 103439, Note_on_c, 9, 66, 75
5, 103439, Note_on_c, 9, 61, 50
5, 103439, Note_on_c, 9, 56, 70
5, 103452, Note_on_c, 9, 77, 59
5, 103454, Note_on_c, 9, 56, 0
5, 103454, Note_on_c, 9, 61, 0
5, 103454, Note_on_c, 9, 70, 0
5, 103464, Note_on_c, 9, 66, 0
5, 103499, Note_on_c, 9, 70, 60
5, 103499, Note_on_c, 9, 61, 50
5, 103504, Note_on_c, 9, 77, 0
5, 103514, Note_on_c, 9, 61, 0
5, 103514, Note_on_c, 9, 70, 0
5, 103559, Note_on_c, 9, 70, 80
5, 103559, Note_on_c, 9, 64, 120
5, 103559, Note_on_c, 9, 36, 60
5, 103574, Note_on_c, 9, 36, 0
5, 103574, Note_on_c, 9, 64, 0
5, 103574, Note_on_c, 9, 70, 0
5, 103619, Note_on_c, 9, 70, 60
5, 103619, Note_on_c, 9, 64, 120
5, 103619, Note_on_c, 9, 56, 48
5, 103622, Note_on_c, 9, 77, 49
5, 103634, Note_on_c, 9, 56, 0
5, 103634, Note_on_c, 9, 70, 0
5, 103634, Note_on_c, 9, 64, 0
5, 103655, Note_on_c, 9, 77, 0
5, 103679, Note_on_c, 9, 70, 80
5, 103679, Note_on_c, 9, 60, 50
5, 103679, Note_on_c, 9, 56, 70
5, 103694, Note_on_c, 9, 56, 0
5, 103694, Note_on_c, 9, 60, 0
5, 103694, Note_on_c, 9, 70, 0
5, 103739, Note_on_c, 9, 70, 60
5, 103739, Note_on_c, 9, 65, 48
5, 103739, Note_on_c, 9, 62, 57
5, 103742, Note_on_c, 9, 76, 62
5, 103754, Note_on_c, 9, 62, 0
5, 103754, Note_on_c, 9, 70, 0
5, 103768, Note_on_c, 9, 65, 0
5, 103769, Note_on_c, 9, 70, 70
5, 103773, Note_on_c, 9, 76, 0
5, 103784, Note_on_c, 9, 70, 0
5, 103799, Note_on_c, 9, 70, 60
5, 103799, Note_on_c, 9, 66, 79
5, 103799, Note_on_c, 9, 62, 120
5, 103814, Note_on_c, 9, 62, 0
5, 103814, Note_on_c, 9, 70, 0
5, 103827, Note_on_c, 9, 66, 0
5, 103859, Note_on_c, 9, 70, 60
5, 103859, Note_on_c, 9, 61, 50
5, 103859, Note_on_c, 9, 56, 48
5, 103859, Note_on_c, 9, 36, 60
5, 103863, Note_on_c, 9, 76, 67
5, 103874, Note_on_c, 9, 36, 0
5, 103874, Note_on_c, 9, 56, 0
5, 103874, Note_on_c, 9, 70, 0
5, 103874, Note_on_c, 9, 61, 0
5, 103915, Note_on_c, 9, 76, 0
5, 103919, Note_on_c, 9, 70, 80
5, 103919, Note_on_c, 9, 60, 50
5, 103919, Note_on_c, 9, 56, 70
5, 103934, Note_on_c, 9, 56, 0
5, 103934, Note_on_c, 9, 60, 0
5, 103934, Note_on_c, 9, 70, 0
5, 103979, Note_on_c, 9, 70, 60
5, 103979, Note_on_c, 9, 65, 58
5, 103979, Note_on_c, 9, 60, 50
5, 103991, Note_on_c, 9, 76, 65
5, 103993, Note_on_c, 9, 70, 0
5, 103994, Note_on_c, 9, 60, 0
5, 104004, Note_on_c, 9, 65, 0
5, 104019, Note_on_c, 9, 76, 0
5, 104039, Note_on_c, 9, 70, 80
5, 104039, Note_on_c, 9, 66, 76
5, 104039, Note_on_c, 9, 64, 120
5, 104039, Note_on_c, 9, 36, 60
5, 104041, Note_on_c, 9, 76, 54
5, 104054, Note_on_c, 9, 36, 0
5, 104054, Note_on_c, 9, 64, 0
5, 104054, Note_on_c, 9, 70, 0
5, 104064, Note_on_c, 9, 66, 0
5, 104075, Note_on_c, 9, 76, 0
5, 104099, Note_on_c, 9, 70, 60
5, 104099, Note_on_c, 9, 64, 120
5, 104099, Note_on_c, 9, 56, 48
5, 104104, Note_on_c, 9, 76, 37
5, 104114, Note_on_c, 9, 56, 0
5, 104114, Note_on_c, 9, 70, 0
5, 104114, Note_on_c, 9, 64, 0
5, 104136, Note_on_c, 9, 76, 0
5, 104160, Program_c, 9, 0
5, 104161, Note_on_c, 9, 70, 80
5, 104161, Note_on_c, 9, 60, 50
5, 104161, Note_on_c, 9, 56, 70
5, 104175, Note_on_c, 9, 56, 0
5, 104175, Note_on_c, 9, 60, 0
5, 104175, Note_on_c, 9, 70, 0
5, 104175, Note_on_c, 9, 77, 57
5, 104209, Note_on_c, 9, 77, 0
5, 104219, Note_on_c, 9, 70, 60
5, 104219, Note_on_c, 9, 65, 50
5, 104219, Note_on_c, 9, 62, 57
5, 104234, Note_on_c, 9, 62, 0
5, 104234, Note_on_c, 9, 70, 0
5, 104244, Note_on_c, 9, 65, 0
5, 104249, Note_on_c, 9, 70, 70
5, 104264, Note_on_c, 9, 70, 0
5, 104279, Note_on_c, 9, 70, 80
5, 104279, Note_on_c, 9, 66, 76
5, 104279, Note_on_c, 9, 62, 120
5, 104294, Note_on_c, 9, 62, 0
5, 104294, Note_on_c, 9, 70, 0
5, 104303, Note_on_c, 9, 66, 0
5, 104339, Note_on_c, 9, 70, 60
5, 104339, Note_on_c, 9, 60, 50
5, 104339, Note_on_c, 9, 56, 48
5, 104339, Note_on_c, 9, 36, 60
5, 104354, Note_on_c, 9, 36, 0
5, 104354, Note_on_c, 9, 70, 0
5, 104354, Note_on_c, 9, 60, 0
5, 104354, Note_on_c, 9, 56, 0
5, 104399, Note_on_c, 9, 70, 80
5, 104399, Note_on_c, 9, 61, 50
5, 104399, Note_on_c, 9, 56, 70
5, 104414, Note_on_c, 9, 56, 0
5, 104414, Note_on_c, 9, 61, 0
5, 104414, Note_on_c, 9, 70, 0
5, 104459, Note_on_c, 9, 70, 60
5, 104459, Note_on_c, 9, 65, 46
5, 104459, Note_on_c, 9, 61, 50
5, 104461, Note_on_c, 9, 76, 33
5, 104474, Note_on_c, 9, 61, 0
5, 104474, Note_on_c, 9, 70, 0
5, 104475, Note_on_c, 9, 76, 0
5, 104484, Note_on_c, 9, 65, 0
5, 104519, Note_on_c, 9, 70, 80
5, 104519, Note_on_c, 9, 66, 76
5, 104519, Note_on_c, 9, 64, 120
5, 104519, Note_on_c, 9, 36, 60
5, 104534, Note_on_c, 9, 36, 0
5, 104534, Note_on_c, 9, 64, 0
5, 104534, Note_on_c, 9, 70, 0
5, 104543, Note_on_c, 9, 66, 0
5, 104579, Note_on_c, 9, 70, 60
5, 104579, Note_on_c, 9, 64, 120
5, 104579, Note_on_c, 9, 56, 48
5, 104586, Note_on_c, 9, 76, 57
5, 104594, Note_on_c, 9, 56, 0
5, 104594, Note_on_c, 9, 70, 0
5, 104594, Note_on_c, 9, 64, 0
5, 104615, Note_on_c, 9, 76, 0
5, 104639, Note_on_c, 9, 70, 80
5, 104639, Note_on_c, 9, 60, 50
5, 104639, Note_on_c, 9, 56, 70
5, 104653, Note_on_c, 9, 56, 0
5, 104654, Note_on_c, 9, 60, 0
5, 104654, Note_on_c, 9, 70, 0
5, 104699, Note_on_c, 9, 70, 60
5, 104699, Note_on_c, 9, 65, 61
5, 104699, Note_on_c, 9, 62, 57
5, 104713, Note_on_c, 9, 76, 55
5, 104714, Note_on_c, 9, 62, 0
5, 104714, Note_on_c, 9, 70, 0
5, 104728, Note_on_c, 9, 65, 0
5, 104729, Note_on_c, 9, 70, 70
5, 104744, Note_on_c, 9, 70, 0
5, 104748, Note_on_c, 9, 76, 0
5, 104759, Note_on_c, 9, 70, 60
5, 104759, Note_on_c, 9, 66, 76
5, 104759, Note_on_c, 9, 62, 120
5, 104774, Note_on_c, 9, 62, 0
5, 104774, Note_on_c, 9, 70, 0
5, 104786, Note_on_c, 9, 66, 0
5, 104806, Note_on_c, 9, 76, 45
5, 104819, Note_on_c, 9, 70, 60
5, 104819, Note_on_c, 9, 61, 50
5, 104819, Note_on_c, 9, 56, 48
5, 104819, Note_on_c, 9, 36, 60
5, 104834, Note_on_c, 9, 36, 0
5, 104834, Note_on_c, 9, 61, 0
5, 104834, Note_on_c, 9, 56, 0
5, 104834, Note_on_c, 9, 70, 0
5, 104848, Note_on_c, 9, 76, 0
5, 104879, Note_on_c, 9, 70, 80
5, 104879, Note_on_c, 9, 60, 50
5, 104879, Note_on_c, 9, 56, 70
5, 104894, Note_on_c, 9, 56, 0
5, 104894, Note_on_c, 9, 60, 0
5, 104894, Note_on_c, 9, 70, 0
5, 104933, Note_on_c, 9, 76, 45
5, 104939, Note_on_c, 9, 70, 60
5, 104939, Note_on_c, 9, 65, 48
5, 104939, Note_on_c, 9, 60, 50
5, 104954, Note_on_c, 9, 60, 0
5, 104954, Note_on_c, 9, 70, 0
5, 104959, Note_on_c, 9, 76, 0
5, 104967, Note_on_c, 9, 65, 0
5, 104999, Note_on_c, 9, 70, 80
5, 104999, Note_on_c, 9, 66, 76
5, 104999, Note_on_c, 9, 64, 120
5, 104999, Note_on_c, 9, 36, 60
5, 104999, Note_on_c, 9, 77, 51
5, 105014, Note_on_c, 9, 36, 0
5, 105014, Note_on_c, 9, 64, 0
5, 105014, Note_on_c, 9, 70, 0
5, 105025, Note_on_c, 9, 66, 0
5, 105059, Note_on_c, 9, 70, 60
5, 105059, Note_on_c, 9, 64, 120
5, 105059, Note_on_c, 9, 56, 48
5, 105069, Note_on_c, 9, 77, 0
5, 105074, Note_on_c, 9, 70, 0
5, 105074, Note_on_c, 9, 64, 0
5, 105074, Note_on_c, 9, 56, 0
5, 105120, Note_on_c, 9, 60, 50
5, 105120, Note_on_c, 9, 70, 80
5, 105121, Note_on_c, 9, 56, 70
5, 105134, Note_on_c, 9, 70, 0
5, 105134, Note_on_c, 9, 60, 0
5, 105135, Note_on_c, 9, 56, 0
5, 105179, Note_on_c, 9, 70, 60
5, 105179, Note_on_c, 9, 62, 57
5, 105194, Note_on_c, 9, 62, 0
5, 105194, Note_on_c, 9, 70, 0
5, 105209, Note_on_c, 9, 70, 70
5, 105224, Note_on_c, 9, 70, 0
5, 105238, Note_on_c, 9, 76, 36
5, 105239, Note_on_c, 9, 70, 80
5, 105239, Note_on_c, 9, 62, 120
5, 105254, Note_on_c, 9, 62, 0
5, 105254, Note_on_c, 9, 70, 0
5, 105261, Note_on_c, 9, 76, 0
5, 105299, Note_on_c, 9, 70, 60
5, 105299, Note_on_c, 9, 60, 50
5, 105299, Note_on_c, 9, 56, 48
5, 105299, Note_on_c, 9, 36, 60
5, 105302, Note_on_c, 9, 76, 37
5, 105314, Note_on_c, 9, 36, 0
5, 105314, Note_on_c, 9, 56, 0
5, 105314, Note_on_c, 9, 70, 0
5, 105314, Note_on_c, 9, 60, 0
5, 105335, Note_on_c, 9, 76, 0
5, 105359, Note_on_c, 9, 70, 80
5, 105359, Note_on_c, 9, 61, 50
5, 105359, Note_on_c, 9, 56, 70
5, 105374, Note_on_c, 9, 56, 0
5, 105374, Note_on_c, 9, 61, 0
5, 105374, Note_on_c, 9, 70, 0
5, 105419, Note_on_c, 9, 70, 60
5, 105419, Note_on_c, 9, 61, 50
5, 105426, Note_on_c, 9, 76, 52
5, 105434, Note_on_c, 9, 61, 0
5, 105434, Note_on_c, 9, 70, 0
5, 105463, Note_on_c, 9, 76, 0
5, 105479, Note_on_c, 9, 70, 80
5, 105479, Note_on_c, 9, 64, 120
5, 105479, Note_on_c, 9, 36, 60
5, 105494, Note_on_c, 9, 36, 0
5, 105494, Note_on_c, 9, 64, 0
5, 105494, Note_on_c, 9, 70, 0
5, 105539, Note_on_c, 9, 70, 60
5, 105539, Note_on_c, 9, 64, 120
5, 105539, Note_on_c, 9, 56, 48
5, 105545, Note_on_c, 9, 76, 57
5, 105554, Note_on_c, 9, 56, 0
5, 105554, Note_on_c, 9, 70, 0
5, 105554, Note_on_c, 9, 64, 0
5, 105592, Note_on_c, 9, 76, 0
5, 105599, Note_on_c, 9, 70, 80
5, 105599, Note_on_c, 9, 60, 50
5, 105599, Note_on_c, 9, 56, 70
5, 105614, Note_on_c, 9, 56, 0
5, 105614, Note_on_c, 9, 60, 0
5, 105614, Note_on_c, 9, 70, 0
5, 105659, Note_on_c, 9, 70, 60
5, 105659, Note_on_c, 9, 62, 57
5, 105670, Note_on_c, 9, 76, 53
5, 105674, Note_on_c, 9, 62, 0
5, 105674, Note_on_c, 9, 70, 0
5, 105689, Note_on_c, 9, 70, 70
5, 105689, Note_on_c, 9, 65, 81
5, 105704, Note_on_c, 9, 70, 0
5, 105705, Note_on_c, 9, 76, 0
5, 105719, Note_on_c, 9, 70, 60
5, 105719, Note_on_c, 9, 62, 120
5, 105720, Note_on_c, 9, 65, 0
5, 105734, Note_on_c, 9, 62, 0
5, 105734, Note_on_c, 9, 70, 0
5, 105779, Note_on_c, 9, 70, 60
5, 105779, Note_on_c, 9, 65, 81
5, 105779, Note_on_c, 9, 61, 50
5, 105779, Note_on_c, 9, 56, 48
5, 105779, Note_on_c, 9, 36, 60
5, 105783, Note_on_c, 9, 76, 50
5, 105794, Note_on_c, 9, 36, 0
5, 105794, Note_on_c, 9, 56, 0
5, 105794, Note_on_c, 9, 61, 0
5, 105794, Note_on_c, 9, 70, 0
5, 105802, Note_on_c, 9, 76, 0
5, 105823, Note_on_c, 9, 65, 0
5, 105839, Note_on_c, 9, 70, 80
5, 105839, Note_on_c, 9, 60, 50
5, 105839, Note_on_c, 9, 56, 70
5, 105844, Note_on_c, 9, 76, 45
5, 105854, Note_on_c, 9, 56, 0
5, 105854, Note_on_c, 9, 70, 0
5, 105854, Note_on_c, 9, 60, 0
5, 105899, Note_on_c, 9, 70, 60
5, 105899, Note_on_c, 9, 60, 50
5, 105914, Note_on_c, 9, 60, 0
5, 105914, Note_on_c, 9, 70, 0
5, 105931, Note_on_c, 9, 76, 0
5, 105959, Note_on_c, 9, 70, 80
5, 105959, Note_on_c, 9, 64, 120
5, 105959, Note_on_c, 9, 36, 60
5, 105962, Note_on_c, 9, 77, 39
5, 105973, Note_on_c, 9, 36, 0
5, 105974, Note_on_c, 9, 70, 0
5, 105974, Note_on_c, 9, 64, 0
5, 105997, Note_on_c, 9, 77, 0
5, 106019, Note_on_c, 9, 70, 60
5, 106019, Note_on_c, 9, 64, 120
5, 106019, Note_on_c, 9, 56, 48
5, 106028, Note_on_c, 9, 77, 43
5, 106034, Note_on_c, 9, 56, 0
5, 106034, Note_on_c, 9, 70, 0
5, 106034, Note_on_c, 9, 64, 0
5, 106077, Note_on_c, 9, 77, 0
5, 106080, Program_c, 9, 0
5, 106080, Note_on_c, 9, 56, 70
5, 106080, Note_on_c, 9, 60, 50
5, 106080, Note_on_c, 9, 70, 80
5, 106094, Note_on_c, 9, 70, 0
5, 106095, Note_on_c, 9, 60, 0
5, 106096, Note_on_c, 9, 56, 0
5, 106139, Note_on_c, 9, 62, 57
5, 106139, Note_on_c, 9, 70, 60
5, 106154, Note_on_c, 9, 70, 0
5, 106154, Note_on_c, 9, 62, 0
5, 106169, Note_on_c, 9, 70, 70
5, 106184, Note_on_c, 9, 70, 0
5, 106199, Note_on_c, 9, 62, 120
5, 106199, Note_on_c, 9, 70, 80
5, 106214, Note_on_c, 9, 70, 0
5, 106214, Note_on_c, 9, 62, 0
5, 106259, Note_on_c, 9, 36, 60
5, 106259, Note_on_c, 9, 56, 48
5, 106259, Note_on_c, 9, 60, 50
5, 106259, Note_on_c, 9, 70, 60
5, 106260, Note_on_c, 9, 76, 38
5, 106274, Note_on_c, 9, 70, 0
5, 106274, Note_on_c, 9, 60, 0
5, 106274, Note_on_c, 9, 36, 0
5, 106274, Note_on_c, 9, 56, 0
5, 106280, Note_on_c, 9, 76, 0
5, 106319, Note_on_c, 9, 56, 70
5, 106319, Note_on_c, 9, 61, 50
5, 106319, Note_on_c, 9, 70, 80
5, 106324, Note_on_c, 9, 76, 47
5, 106334, Note_on_c, 9, 70, 0
5, 106334, Note_on_c, 9, 56, 0
5, 106334, Note_on_c, 9, 61, 0
5, 106379, Note_on_c, 9, 61, 50
5, 106379, Note_on_c, 9, 70, 60
5, 106384, Note_on_c, 9, 76, 0
5, 106394, Note_on_c, 9, 70, 0
5, 106394, Note_on_c, 9, 61, 0
5, 106439, Note_on_c, 9, 36, 60
5, 106439, Note_on_c, 9, 64, 120
5, 106439, Note_on_c, 9, 70, 80
5, 106440, Note_on_c, 9, 77, 32
5, 106454, Note_on_c, 9, 70, 0
5, 106454, Note_on_c, 9, 36, 0
5, 106454, Note_on_c, 9, 64, 0
5, 106467, Note_on_c, 9, 77, 0
5, 106499, Note_on_c, 9, 56, 48
5, 106499, Note_on_c, 9, 64, 120
5, 106499, Note_on_c, 9, 70, 60
5, 106505, Note_on_c, 9, 77, 43
5, 106514, Note_on_c, 9, 70, 0
5, 106514, Note_on_c, 9, 56, 0
5, 106514, Note_on_c, 9, 64, 0
5, 106553, Note_on_c, 9, 77, 0
5, 106559, Note_on_c, 9, 56, 70
5, 106559, Note_on_c, 9, 60, 50
5, 106559, Note_on_c, 9, 70, 80
5, 106574, Note_on_c, 9, 70, 0
5, 106574, Note_on_c, 9, 60, 0
5, 106574, Note_on_c, 9, 56, 0
5, 106619, Note_on_c, 9, 62, 57
5, 106619, Note_on_c, 9, 70, 60
5, 106633, Note_on_c, 9, 70, 0
5, 106633, Note_on_c, 9, 62, 0
5, 106649, Note_on_c, 9, 70, 70
5, 106664, Note_on_c, 9, 70, 0
5, 106679, Note_on_c, 9, 62, 120
5, 106679, Note_on_c, 9, 70, 60
5, 106694, Note_on_c, 9, 70, 0
5, 106694, Note_on_c, 9, 62, 0
5, 106739, Note_on_c, 9, 36, 60
5, 106739, Note_on_c, 9, 56, 48
5, 106739, Note_on_c, 9, 61, 50
5, 106739, Note_on_c, 9, 70, 60
5, 106754, Note_on_c, 9, 70, 0
5, 106754, Note_on_c, 9, 36, 0
5, 106754, Note_on_c, 9, 56, 0
5, 106754, Note_on_c, 9, 61, 0
5, 106799, Note_on_c, 9, 56, 70
5, 106799, Note_on_c, 9, 60, 50
5, 106799, Note_on_c, 9, 70, 80
5, 106814, Note_on_c, 9, 70, 0
5, 106814, Note_on_c, 9, 60, 0
5, 106814, Note_on_c, 9, 56, 0
5, 106859, Note_on_c, 9, 60, 50
5, 106859, Note_on_c, 9, 70, 60
5, 106874, Note_on_c, 9, 70, 0
5, 106874, Note_on_c, 9, 60, 0
5, 106916, Note_on_c, 9, 76, 45
5, 106919, Note_on_c, 9, 36, 60
5, 106919, Note_on_c, 9, 64, 120
5, 106919, Note_on_c, 9, 70, 80
5, 106934, Note_on_c, 9, 70, 0
5, 106934, Note_on_c, 9, 64, 0
5, 106934, Note_on_c, 9, 36, 0
5, 106949, Note_on_c, 9, 76, 0
5, 106979, Note_on_c, 9, 76, 43
5, 106979, Note_on_c, 9, 56, 48
5, 106979, Note_on_c, 9, 64, 120
5, 106979, Note_on_c, 9, 70, 60
5, 106994, Note_on_c, 9, 70, 0
5, 106994, Note_on_c, 9, 64, 0
5, 106994, Note_on_c, 9, 56, 0
5, 107031, Note_on_c, 9, 76, 0
5, 107040, Note_on_c, 9, 70, 80
5, 107040, Note_on_c, 9, 60, 50
5, 107041, Note_on_c, 9, 56, 70
5, 107054, Note_on_c, 9, 60, 0
5, 107054, Note_on_c, 9, 70, 0
5, 107055, Note_on_c, 9, 56, 0
5, 107099, Note_on_c, 9, 62, 57
5, 107099, Note_on_c, 9, 70, 60
5, 107110, Note_on_c, 9, 77, 47
5, 107114, Note_on_c, 9, 70, 0
5, 107114, Note_on_c, 9, 62, 0
5, 107129, Note_on_c, 9, 70, 70
5, 107144, Note_on_c, 9, 70, 0
5, 107151, Note_on_c, 9, 77, 0
5, 107159, Note_on_c, 9, 62, 120
5, 107159, Note_on_c, 9, 70, 80
5, 107174, Note_on_c, 9, 70, 0
5, 107174, Note_on_c, 9, 62, 0
5, 107219, Note_on_c, 9, 76, 47
5, 107219, Note_on_c, 9, 36, 60
5, 107219, Note_on_c, 9, 56, 48
5, 107219, Note_on_c, 9, 60, 50
5, 107219, Note_on_c, 9, 70, 60
5, 107234, Note_on_c, 9, 70, 0
5, 107234, Note_on_c, 9, 56, 0
5, 107234, Note_on_c, 9, 60, 0
5, 107234, Note_on_c, 9, 36, 0
5, 107262, Note_on_c, 9, 76, 0
5, 107279, Note_on_c, 9, 56, 70
5, 107279, Note_on_c, 9, 61, 50
5, 107279, Note_on_c, 9, 70, 80
5, 107294, Note_on_c, 9, 70, 0
5, 107294, Note_on_c, 9, 61, 0
5, 107294, Note_on_c, 9, 56, 0
5, 107339, Note_on_c, 9, 61, 50
5, 107339, Note_on_c, 9, 70, 60
5, 107344, Note_on_c, 9, 76, 45
5, 107354, Note_on_c, 9, 70, 0
5, 107354, Note_on_c, 9, 61, 0
5, 107372, Note_on_c, 9, 76, 0
5, 107399, Note_on_c, 9, 36, 60
5, 107399, Note_on_c, 9, 64, 120
5, 107399, Note_on_c, 9, 70, 80
5, 107414, Note_on_c, 9, 70, 0
5, 107414, Note_on_c, 9, 64, 0
5, 107414, Note_on_c, 9, 36, 0
5, 107459, Note_on_c, 9, 56, 48
5, 107459, Note_on_c, 9, 64, 120
5, 107459, Note_on_c, 9, 70, 60
5, 107461, Note_on_c, 9, 76, 38
5, 107474, Note_on_c, 9, 70, 0
5, 107474, Note_on_c, 9, 56, 0
5, 107474, Note_on_c, 9, 64, 0
5, 107493, Note_on_c, 9, 76, 0
5, 107519, Note_on_c, 9, 56, 70
5, 107519, Note_on_c, 9, 60, 50
5, 107519, Note_on_c, 9, 70, 80
5, 107525, Note_on_c, 9, 76, 35
5, 107534, Note_on_c, 9, 70, 0
5, 107534, Note_on_c, 9, 56, 0
5, 107534, Note_on_c, 9, 60, 0
5, 107579, Note_on_c, 9, 62, 57
5, 107579, Note_on_c, 9, 70, 60
5, 107594, Note_on_c, 9, 70, 0
5, 107594, Note_on_c, 9, 62, 0
5, 107602, Note_on_c, 9, 76, 0
5, 107609, Note_on_c, 9, 70, 70
5, 107624, Note_on_c, 9, 70, 0
5, 107639, Note_on_c, 9, 62, 120
5, 107639, Note_on_c, 9, 70, 60
5, 107641, Note_on_c, 9, 77, 19
5, 107654, Note_on_c, 9, 70, 0
5, 107654, Note_on_c, 9, 62, 0
5, 107656, Note_on_c, 9, 77, 0
5, 107699, Note_on_c, 9, 36, 60
5, 107699, Note_on_c, 9, 56, 48
5, 107699, Note_on_c, 9, 61, 50
5, 107699, Note_on_c, 9, 70, 60
5, 107707, Note_on_c, 9, 77, 42
5, 107714, Note_on_c, 9, 70, 0
5, 107714, Note_on_c, 9, 61, 0
5, 107714, Note_on_c, 9, 36, 0
5, 107714, Note_on_c, 9, 56, 0
5, 107751, Note_on_c, 9, 77, 0
5, 107759, Note_on_c, 9, 56, 70
5, 107759, Note_on_c, 9, 60, 50
5, 107759, Note_on_c, 9, 70, 80
5, 107774, Note_on_c, 9, 70, 0
5, 107774, Note_on_c, 9, 60, 0
5, 107774, Note_on_c, 9, 56, 0
5, 107819, Note_on_c, 9, 60, 50
5, 107819, Note_on_c, 9, 70, 60
5, 107824, Note_on_c, 9, 77, 41
5, 107834, Note_on_c, 9, 70, 0
5, 107834, Note_on_c, 9, 60, 0
5, 107856, Note_on_c, 9, 77, 0
5, 107879, Note_on_c, 9, 36, 60
5, 107879, Note_on_c, 9, 64, 120
5, 107879, Note_on_c, 9, 70, 80
5, 107880, Note_on_c, 9, 76, 27
5, 107894, Note_on_c, 9, 70, 0
5, 107894, Note_on_c, 9, 36, 0
5, 107894, Note_on_c, 9, 64, 0
5, 107903, Note_on_c, 9, 76, 0
5, 107939, Note_on_c, 9, 56, 48
5, 107939, Note_on_c, 9, 64, 120
5, 107939, Note_on_c, 9, 70, 60
5, 107953, Note_on_c, 9, 56, 0
5, 107954, Note_on_c, 9, 70, 0
5, 107954, Note_on_c, 9, 64, 0
5, 108000, Note_on_c, 9, 70, 80
5, 108000, Note_on_c, 9, 56, 70
5, 108000, Program_c, 9, 0
5, 108001, Note_on_c, 9, 60, 50
5, 108008, Note_on_c, 9, 57, 50
5, 108014, Note_on_c, 9, 70, 0
5, 108015, Note_on_c, 9, 56, 0
5, 108015, Note_on_c, 9, 60, 0
5, 108023, Note_on_c, 9, 57, 0
5, 108059, Note_on_c, 9, 62, 57
5, 108059, Note_on_c, 9, 70, 60
5, 108074, Note_on_c, 9, 70, 0
5, 108074, Note_on_c, 9, 62, 0
5, 108089, Note_on_c, 9, 70, 70
5, 108104, Note_on_c, 9, 70, 0
5, 108119, Note_on_c, 9, 62, 120
5, 108119, Note_on_c, 9, 70, 80
5, 108134, Note_on_c, 9, 70, 0
5, 108134, Note_on_c, 9, 62, 0
5, 108179, Note_on_c, 9, 36, 60
5, 108179, Note_on_c, 9, 56, 48
5, 108179, Note_on_c, 9, 60, 50
5, 108179, Note_on_c, 9, 70, 60
5, 108194, Note_on_c, 9, 70, 0
5, 108194, Note_on_c, 9, 36, 0
5, 108194, Note_on_c, 9, 56, 0
5, 108194, Note_on_c, 9, 60, 0
5, 108239, Note_on_c, 9, 56, 70
5, 108239, Note_on_c, 9, 61, 50
5, 108239, Note_on_c, 9, 70, 80
5, 108254, Note_on_c, 9, 70, 0
5, 108254, Note_on_c, 9, 61, 0
5, 108254, Note_on_c, 9, 56, 0
5, 108299, Note_on_c, 9, 61, 50
5, 108299, Note_on_c, 9, 70, 60
5, 108314, Note_on_c, 9, 70, 0
5, 108314, Note_on_c, 9, 61, 0
5, 108354, Note_on_c, 9, 76, 21
5, 108359, Note_on_c, 9, 36, 60
5, 108359, Note_on_c, 9, 64, 120
5, 108359, Note_on_c, 9, 70, 80
5, 108374, Note_on_c, 9, 70, 0
5, 108374, Note_on_c, 9, 64, 0
5, 108374, Note_on_c, 9, 36, 0
5, 108376, Note_on_c, 9, 76, 0
5, 108419, Note_on_c, 9, 56, 48
5, 108419, Note_on_c, 9, 64, 120
5, 108419, Note_on_c, 9, 70, 60
5, 108428, Note_on_c, 9, 76, 35
5, 108434, Note_on_c, 9, 70, 0
5, 108434, Note_on_c, 9, 56, 0
5, 108434, Note_on_c, 9, 64, 0
5, 108449, Note_on_c, 9, 76, 0
5, 108479, Note_on_c, 9, 56, 70
5, 108479, Note_on_c, 9, 60, 50
5, 108479, Note_on_c, 9, 70, 80
5, 108494, Note_on_c, 9, 70, 0
5, 108494, Note_on_c, 9, 60, 0
5, 108494, Note_on_c, 9, 56, 0
5, 108539, Note_on_c, 9, 62, 57
5, 108539, Note_on_c, 9, 70, 60
5, 108554, Note_on_c, 9, 70, 0
5, 108554, Note_on_c, 9, 62, 0
5, 108569, Note_on_c, 9, 70, 70
5, 108584, Note_on_c, 9, 70, 0
5, 108599, Note_on_c, 9, 62, 120
5, 108599, Note_on_c, 9, 70, 60
5, 108613, Note_on_c, 9, 70, 0
5, 108614, Note_on_c, 9, 62, 0
5, 108659, Note_on_c, 9, 36, 60
5, 108659, Note_on_c, 9, 56, 48
5, 108659, Note_on_c, 9, 61, 50
5, 108659, Note_on_c, 9, 70, 60
5, 108674, Note_on_c, 9, 70, 0
5, 108674, Note_on_c, 9, 36, 0
5, 108674, Note_on_c, 9, 56, 0
5, 108674, Note_on_c, 9, 61, 0
5, 108719, Note_on_c, 9, 56, 70
5, 108719, Note_on_c, 9, 60, 50
5, 108719, Note_on_c, 9, 70, 80
5, 108734, Note_on_c, 9, 70, 0
5, 108734, Note_on_c, 9, 60, 0
5, 108734, Note_on_c, 9, 56, 0
5, 108779, Note_on_c, 9, 60, 50
5, 108779, Note_on_c, 9, 70, 60
5, 108794, Note_on_c, 9, 70, 0
5, 108794, Note_on_c, 9, 60, 0
5, 108839, Note_on_c, 9, 36, 60
5, 108839, Note_on_c, 9, 64, 120
5, 108839, Note_on_c, 9, 70, 80
5, 108854, Note_on_c, 9, 70, 0
5, 108854, Note_on_c, 9, 64, 0
5, 108854, Note_on_c, 9, 36, 0
5, 108899, Note_on_c, 9, 56, 48
5, 108899, Note_on_c, 9, 64, 120
5, 108899, Note_on_c, 9, 70, 60
5, 108908, Note_on_c, 9, 76, 50
5, 108914, Note_on_c, 9, 70, 0
5, 108914, Note_on_c, 9, 56, 0
5, 108914, Note_on_c, 9, 64, 0
5, 108935, Note_on_c, 9, 76, 0
5, 108960, Note_on_c, 9, 70, 80
5, 108960, Note_on_c, 9, 60, 50
5, 108961, Note_on_c, 9, 56, 70
5, 108974, Note_on_c, 9, 60, 0
5, 108974, Note_on_c, 9, 70, 0
5, 108975, Note_on_c, 9, 56, 0
5, 109019, Note_on_c, 9, 62, 57
5, 109019, Note_on_c, 9, 70, 60
5, 109034, Note_on_c, 9, 70, 0
5, 109034, Note_on_c, 9, 62, 0
5, 109049, Note_on_c, 9, 70, 70
5, 109064, Note_on_c, 9, 70, 0
5, 109070, Note_on_c, 9, 77, 25
5, 109079, Note_on_c, 9, 62, 120
5, 109079, Note_on_c, 9, 70, 80
5, 109094, Note_on_c, 9, 70, 0
5, 109094, Note_on_c, 9, 62, 0
5, 109094, Note_on_c, 9, 77, 0
5, 109137, Note_on_c, 9, 77, 33
5, 109139, Note_on_c, 9, 36, 60
5, 109139, Note_on_c, 9, 56, 48
5, 109139, Note_on_c, 9, 60, 50
5, 109139, Note_on_c, 9, 70, 60
5, 109154, Note_on_c, 9, 70, 0
5, 109154, Note_on_c, 9, 56, 0
5, 109154, Note_on_c, 9, 60, 0
5, 109154, Note_on_c, 9, 36, 0
5, 109166, Note_on_c, 9, 77, 0
5, 109199, Note_on_c, 9, 56, 70
5, 109199, Note_on_c, 9, 61, 50
5, 109199, Note_on_c, 9, 70, 80
5, 109214, Note_on_c, 9, 70, 0
5, 109214, Note_on_c, 9, 61, 0
5, 109214, Note_on_c, 9, 56, 0
5, 109259, Note_on_c, 9, 61, 50
5, 109259, Note_on_c, 9, 70, 60
5, 109273, Note_on_c, 9, 70, 0
5, 109274, Note_on_c, 9, 61, 0
5, 109319, Note_on_c, 9, 36, 60
5, 109319, Note_on_c, 9, 64, 120
5, 109319, Note_on_c, 9, 70, 80
5, 109334, Note_on_c, 9, 70, 0
5, 109334, Note_on_c, 9, 64, 0
5, 109334, Note_on_c, 9, 36, 0
5, 109379, Note_on_c, 9, 56, 48
5, 109379, Note_on_c, 9, 64, 120
5, 109379, Note_on_c, 9, 70, 60
5, 109394, Note_on_c, 9, 70, 0
5, 109394, Note_on_c, 9, 64, 0
5, 109394, Note_on_c, 9, 56, 0
5, 109439, Note_on_c, 9, 56, 70
5, 109439, Note_on_c, 9, 60, 50
5, 109439, Note_on_c, 9, 70, 80
5, 109454, Note_on_c, 9, 70, 0
5, 109454, Note_on_c, 9, 60, 0
5, 109454, Note_on_c, 9, 56, 0
5, 109499, Note_on_c, 9, 62, 57
5, 109499, Note_on_c, 9, 70, 60
5, 109514, Note_on_c, 9, 70, 0
5, 109514, Note_on_c, 9, 62, 0
5, 109529, Note_on_c, 9, 70, 70
5, 109544, Note_on_c, 9, 70, 0
5, 109559, Note_on_c, 9, 62, 120
5, 109559, Note_on_c, 9, 70, 60
5, 109561, Note_on_c, 9, 76, 23
5, 109574, Note_on_c, 9, 70, 0
5, 109574, Note_on_c, 9, 62, 0
5, 109580, Note_on_c, 9, 76, 0
5, 109619, Note_on_c, 9, 36, 60
5, 109619, Note_on_c, 9, 56, 48
5, 109619, Note_on_c, 9, 61, 50
5, 109619, Note_on_c, 9, 70, 60
5, 109634, Note_on_c, 9, 70, 0
5, 109634, Note_on_c, 9, 36, 0
5, 109634, Note_on_c, 9, 56, 0
5, 109634, Note_on_c, 9, 61, 0
5, 109634, Note_on_c, 9, 76, 42
5, 109660, Note_on_c, 9, 76, 0
5, 109679, Note_on_c, 9, 56, 70
5, 109679, Note_on_c, 9, 60, 50
5, 109679, Note_on_c, 9, 70, 80
5, 109694, Note_on_c, 9, 70, 0
5, 109694, Note_on_c, 9, 60, 0
5, 109694, Note_on_c, 9, 56, 0
5, 109739, Note_on_c, 9, 60, 50
5, 109739, Note_on_c, 9, 70, 60
5, 109754, Note_on_c, 9, 70, 0
5, 109754, Note_on_c, 9, 60, 0
5, 109796, Note_on_c, 9, 77, 25
5, 109799, Note_on_c, 9, 36, 60
5, 109799, Note_on_c, 9, 64, 120
5, 109799, Note_on_c, 9, 70, 80
5, 109814, Note_on_c, 9, 70, 0
5, 109814, Note_on_c, 9, 64, 0
5, 109814, Note_on_c, 9, 36, 0
5, 109815, Note_on_c, 9, 77, 0
5, 109859, Note_on_c, 9, 56, 48
5, 109859, Note_on_c, 9, 64, 120
5, 109859, Note_on_c, 9, 70, 60
5, 109872, Note_on_c, 9, 77, 38
5, 109874, Note_on_c, 9, 70, 0
5, 109874, Note_on_c, 9, 56, 0
5, 109874, Note_on_c, 9, 64, 0
5, 109907, Note_on_c, 9, 77, 0
5, 109920, Program_c, 9, 0
5, 109979, Note_on_c, 9, 70, 60
5, 109994, Note_on_c, 9, 70, 0
5, 110009, Note_on_c, 9, 70, 70
5, 110024, Note_on_c, 9, 70, 0
5, 110039, Note_on_c, 9, 70, 80
5, 110054, Note_on_c, 9, 70, 0
5, 110090, Note_on_c, 9, 76, 20
5, 110099, Note_on_c, 9, 70, 60
5, 110114, Note_on_c, 9, 70, 0
5, 110117, Note_on_c, 9, 76, 0
5, 110157, Note_on_c, 9, 76, 31
5, 110159, Note_on_c, 9, 70, 80
5, 110174, Note_on_c, 9, 70, 0
5, 110203, Note_on_c, 9, 76, 0
5, 110219, Note_on_c, 9, 70, 60
5, 110234, Note_on_c, 9, 70, 0
5, 110279, Note_on_c, 9, 70, 80
5, 110279, Note_on_c, 9, 65, 80
5, 110294, Note_on_c, 9, 65, 0
5, 110294, Note_on_c, 9, 70, 0
5, 110335, Note_on_c, 9, 77, 31
5, 110339, Note_on_c, 9, 70, 60
5, 110352, Note_on_c, 9, 77, 0
5, 110354, Note_on_c, 9, 70, 0
5, 110399, Note_on_c, 9, 70, 80
5, 110399, Note_on_c, 9, 60, 50
5, 110399, Note_on_c, 9, 56, 70
5, 110408, Note_on_c, 9, 77, 22
5, 110414, Note_on_c, 9, 56, 0
5, 110414, Note_on_c, 9, 70, 0
5, 110414, Note_on_c, 9, 60, 0
5, 110447, Note_on_c, 9, 77, 0
5, 110459, Note_on_c, 9, 70, 60
5, 110459, Note_on_c, 9, 62, 90
5, 110474, Note_on_c, 9, 62, 0
5, 110474, Note_on_c, 9, 70, 0
5, 110489, Note_on_c, 9, 70, 70
5, 110504, Note_on_c, 9, 70, 0
5, 110519, Note_on_c, 9, 70, 60
5, 110519, Note_on_c, 9, 62, 120
5, 110534, Note_on_c, 9, 62, 0
5, 110534, Note_on_c, 9, 70, 0
5, 110579, Note_on_c, 9, 70, 60
5, 110579, Note_on_c, 9, 61, 50
5, 110579, Note_on_c, 9, 56, 48
5, 110579, Note_on_c, 9, 36, 60
5, 110590, Note_on_c, 9, 76, 12
5, 110593, Note_on_c, 9, 36, 0
5, 110593, Note_on_c, 9, 56, 0
5, 110593, Note_on_c, 9, 70, 0
5, 110593, Note_on_c, 9, 61, 0
5, 110607, Note_on_c, 9, 76, 0
5, 110639, Note_on_c, 9, 70, 80
5, 110639, Note_on_c, 9, 60, 50
5, 110639, Note_on_c, 9, 56, 70
5, 110644, Note_on_c, 9, 76, 23
5, 110654, Note_on_c, 9, 56, 0
5, 110654, Note_on_c, 9, 70, 0
5, 110654, Note_on_c, 9, 60, 0
5, 110684, Note_on_c, 9, 76, 0
5, 110699, Note_on_c, 9, 70, 60
5, 110699, Note_on_c, 9, 60, 50
5, 110714, Note_on_c, 9, 60, 0
5, 110714, Note_on_c, 9, 70, 0
5, 110759, Note_on_c, 9, 70, 80
5, 110759, Note_on_c, 9, 64, 120
5, 110759, Note_on_c, 9, 36, 60
5, 110774, Note_on_c, 9, 36, 0
5, 110774, Note_on_c, 9, 64, 0
5, 110774, Note_on_c, 9, 70, 0
5, 110819, Note_on_c, 9, 70, 60
5, 110819, Note_on_c, 9, 64, 120
5, 110819, Note_on_c, 9, 56, 48
5, 110828, Note_on_c, 9, 77, 41
5, 110834, Note_on_c, 9, 56, 0
5, 110834, Note_on_c, 9, 70, 0
5, 110834, Note_on_c, 9, 64, 0
5, 110876, Note_on_c, 9, 77, 0
5, 110880, Note_on_c, 9, 60, 50
5, 110880, Note_on_c, 9, 70, 80
5, 110881, Note_on_c, 9, 56, 70
5, 110894, Note_on_c, 9, 70, 0
5, 110894, Note_on_c, 9, 60, 0
5, 110895, Note_on_c, 9, 56, 0
5, 110939, Note_on_c, 9, 70, 60
5, 110939, Note_on_c, 9, 62, 90
5, 110954, Note_on_c, 9, 62, 0
5, 110954, Note_on_c, 9, 70, 0
5, 110969, Note_on_c, 9, 70, 70
5, 110984, Note_on_c, 9, 70, 0
5, 110999, Note_on_c, 9, 70, 80
5, 110999, Note_on_c, 9, 62, 120
5, 111014, Note_on_c, 9, 62, 0
5, 111014, Note_on_c, 9, 70, 0
5, 111059, Note_on_c, 9, 70, 60
5, 111059, Note_on_c, 9, 60, 50
5, 111059, Note_on_c, 9, 56, 48
5, 111059, Note_on_c, 9, 36, 60
5, 111071, Note_on_c, 9, 76, 33
5, 111073, Note_on_c, 9, 56, 0
5, 111074, Note_on_c, 9, 36, 0
5, 111074, Note_on_c, 9, 70, 0
5, 111074, Note_on_c, 9, 60, 0
5, 111095, Note_on_c, 9, 76, 0
5, 111119, Note_on_c, 9, 70, 80
5, 111119, Note_on_c, 9, 61, 50
5, 111119, Note_on_c, 9, 56, 70
5, 111125, Note_on_c, 9, 76, 34
5, 111134, Note_on_c, 9, 56, 0
5, 111134, Note_on_c, 9, 70, 0
5, 111134, Note_on_c, 9, 61, 0
5, 111174, Note_on_c, 9, 76, 0
5, 111179, Note_on_c, 9, 70, 60
5, 111179, Note_on_c, 9, 61, 50
5, 111194, Note_on_c, 9, 61, 0
5, 111194, Note_on_c, 9, 70, 0
5, 111239, Note_on_c, 9, 70, 80
5, 111239, Note_on_c, 9, 64, 120
5, 111239, Note_on_c, 9, 36, 60
5, 111254, Note_on_c, 9, 36, 0
5, 111254, Note_on_c, 9, 64, 0
5, 111254, Note_on_c, 9, 70, 0
5, 111299, Note_on_c, 9, 70, 60
5, 111299, Note_on_c, 9, 64, 120
5, 111299, Note_on_c, 9, 56, 48
5, 111309, Note_on_c, 9, 77, 40
5, 111313, Note_on_c, 9, 56, 0
5, 111314, Note_on_c, 9, 70, 0
5, 111314, Note_on_c, 9, 64, 0
5, 111357, Note_on_c, 9, 77, 0
5, 111359, Note_on_c, 9, 70, 80
5, 111359, Note_on_c, 9, 60, 50
5, 111359, Note_on_c, 9, 56, 70
5, 111373, Note_on_c, 9, 56, 0
5, 111374, Note_on_c, 9, 60, 0
5, 111374, Note_on_c, 9, 70, 0
5, 111419, Note_on_c, 9, 70, 60
5, 111419, Note_on_c, 9, 62, 90
5, 111434, Note_on_c, 9, 62, 0
5, 111434, Note_on_c, 9, 70, 0
5, 111449, Note_on_c, 9, 70, 70
5, 111464, Note_on_c, 9, 70, 0
5, 111472, Note_on_c, 9, 76, 44
5, 111479, Note_on_c, 9, 70, 60
5, 111479, Note_on_c, 9, 62, 120
5, 111494, Note_on_c, 9, 62, 0
5, 111494, Note_on_c, 9, 70, 0
5, 111528, Note_on_c, 9, 76, 0
5, 111539, Note_on_c, 9, 70, 60
5, 111539, Note_on_c, 9, 61, 50
5, 111539, Note_on_c, 9, 56, 48
5, 111539, Note_on_c, 9, 36, 60
5, 111554, Note_on_c, 9, 36, 0
5, 111554, Note_on_c, 9, 70, 0
5, 111554, Note_on_c, 9, 61, 0
5, 111554, Note_on_c, 9, 56, 0
5, 111599, Note_on_c, 9, 70, 80
5, 111599, Note_on_c, 9, 60, 50
5, 111599, Note_on_c, 9, 56, 70
5, 111614, Note_on_c, 9, 56, 0
5, 111614, Note_on_c, 9, 60, 0
5, 111614, Note_on_c, 9, 70, 0
5, 111659, Note_on_c, 9, 70, 60
5, 111659, Note_on_c, 9, 60, 50
5, 111674, Note_on_c, 9, 60, 0
5, 111674, Note_on_c, 9, 70, 0
5, 111719, Note_on_c, 9, 70, 80
5, 111719, Note_on_c, 9, 65, 29
5, 111719, Note_on_c, 9, 64, 120
5, 111719, Note_on_c, 9, 36, 100
5, 111719, Note_on_c, 9, 36, 60
5, 111719, Note_on_c, 9, 77, 27
5, 111734, Note_on_c, 9, 36, 0
5, 111734, Note_on_c, 9, 64, 0
5, 111734, Note_on_c, 9, 70, 0
5, 111734, Note_on_c, 9, 65, 0
5, 111751, Note_on_c, 9, 36, 0
5, 111753, Note_on_c, 9, 77, 0
5, 111779, Note_on_c, 9, 70, 60
5, 111779, Note_on_c, 9, 64, 120
5, 111786, Note_on_c, 9, 77, 49
5, 111794, Note_on_c, 9, 64, 0
5, 111794, Note_on_c, 9, 70, 0
5, 111840, Program_c, 9, 0
5, 111841, Note_on_c, 9, 70, 80
5, 111841, Note_on_c, 9, 60, 50
5, 111841, Note_on_c, 9, 56, 70
5, 111843, Note_on_c, 9, 77, 0
5, 111854, Note_on_c, 9, 70, 0
5, 111855, Note_on_c, 9, 60, 0
5, 111855, Note_on_c, 9, 56, 0
5, 111899, Note_on_c, 9, 70, 60
5, 111899, Note_on_c, 9, 62, 57
5, 111913, Note_on_c, 9, 62, 0
5, 111913, Note_on_c, 9, 70, 0
5, 111929, Note_on_c, 9, 70, 70
5, 111944, Note_on_c, 9, 70, 0
5, 111958, Note_on_c, 9, 62, 120
5, 111959, Note_on_c, 9, 70, 80
5, 111974, Note_on_c, 9, 70, 0
5, 111974, Note_on_c, 9, 62, 0
5, 112019, Note_on_c, 9, 70, 60
5, 112019, Note_on_c, 9, 60, 50
5, 112019, Note_on_c, 9, 56, 48
5, 112019, Note_on_c, 9, 36, 60
5, 112034, Note_on_c, 9, 36, 0
5, 112034, Note_on_c, 9, 70, 0
5, 112034, Note_on_c, 9, 60, 0
5, 112034, Note_on_c, 9, 56, 0
5, 112079, Note_on_c, 9, 70, 80
5, 112079, Note_on_c, 9, 61, 50
5, 112079, Note_on_c, 9, 56, 70
5, 112086, Note_on_c, 9, 76, 32
5, 112094, Note_on_c, 9, 56, 0
5, 112094, Note_on_c, 9, 70, 0
5, 112094, Note_on_c, 9, 61, 0
5, 112105, Note_on_c, 9, 76, 0
5, 112139, Note_on_c, 9, 70, 60
5, 112139, Note_on_c, 9, 61, 50
5, 112154, Note_on_c, 9, 61, 0
5, 112154, Note_on_c, 9, 70, 0
5, 112199, Note_on_c, 9, 70, 80
5, 112199, Note_on_c, 9, 64, 120
5, 112199, Note_on_c, 9, 36, 60
5, 112214, Note_on_c, 9, 36, 0
5, 112214, Note_on_c, 9, 64, 0
5, 112214, Note_on_c, 9, 70, 0
5, 112254, Note_on_c, 9, 77, 32
5, 112259, Note_on_c, 9, 70, 60
5, 112259, Note_on_c, 9, 64, 120
5, 112259, Note_on_c, 9, 56, 48
5, 112274, Note_on_c, 9, 56, 0
5, 112274, Note_on_c, 9, 64, 0
5, 112274, Note_on_c, 9, 70, 0
5, 112291, Note_on_c, 9, 77, 0
5, 112319, Note_on_c, 9, 70, 80
5, 112319, Note_on_c, 9, 60, 50
5, 112319, Note_on_c, 9, 56, 70
5, 112334, Note_on_c, 9, 56, 0
5, 112334, Note_on_c, 9, 60, 0
5, 112334, Note_on_c, 9, 70, 0
5, 112379, Note_on_c, 9, 70, 60
5, 112379, Note_on_c, 9, 62, 57
5, 112394, Note_on_c, 9, 62, 0
5, 112394, Note_on_c, 9, 70, 0
5, 112409, Note_on_c, 9, 70, 70
5, 112424, Note_on_c, 9, 70, 0
5, 112439, Note_on_c, 9, 70, 60
5, 112439, Note_on_c, 9, 62, 120
5, 112454, Note_on_c, 9, 62, 0
5, 112454, Note_on_c, 9, 70, 0
5, 112499, Note_on_c, 9, 70, 60
5, 112499, Note_on_c, 9, 61, 50
5, 112499, Note_on_c, 9, 56, 48
5, 112499, Note_on_c, 9, 36, 60
5, 112499, Note_on_c, 9, 76, 32
5, 112514, Note_on_c, 9, 36, 0
5, 112514, Note_on_c, 9, 56, 0
5, 112514, Note_on_c, 9, 70, 0
5, 112514, Note_on_c, 9, 61, 0
5, 112526, Note_on_c, 9, 76, 0
5, 112559, Note_on_c, 9, 70, 80
5, 112559, Note_on_c, 9, 60, 50
5, 112559, Note_on_c, 9, 56, 70
5, 112566, Note_on_c, 9, 76, 27
5, 112573, Note_on_c, 9, 56, 0
5, 112573, Note_on_c, 9, 70, 0
5, 112574, Note_on_c, 9, 60, 0
5, 112598, Note_on_c, 9, 76, 0
5, 112619, Note_on_c, 9, 70, 60
5, 112619, Note_on_c, 9, 60, 50
5, 112634, Note_on_c, 9, 60, 0
5, 112634, Note_on_c, 9, 70, 0
5, 112679, Note_on_c, 9, 70, 80
5, 112679, Note_on_c, 9, 64, 120
5, 112679, Note_on_c, 9, 36, 60
5, 112682, Note_on_c, 9, 77, 15
5, 112694, Note_on_c, 9, 36, 0
5, 112694, Note_on_c, 9, 70, 0
5, 112694, Note_on_c, 9, 64, 0
5, 112700, Note_on_c, 9, 77, 0
5, 112739, Note_on_c, 9, 70, 60
5, 112739, Note_on_c, 9, 64, 120
5, 112739, Note_on_c, 9, 56, 48
5, 112745, Note_on_c, 9, 77, 57
5, 112754, Note_on_c, 9, 56, 0
5, 112754, Note_on_c, 9, 70, 0
5, 112754, Note_on_c, 9, 64, 0
5, 112800, Note_on_c, 9, 60, 50
5, 112800, Note_on_c, 9, 70, 80
5, 112801, Note_on_c, 9, 56, 70
5, 112804, Note_on_c, 9, 77, 0
5, 112814, Note_on_c, 9, 60, 0
5, 112814, Note_on_c, 9, 70, 0
5, 112815, Note_on_c, 9, 56, 0
5, 112859, Note_on_c, 9, 70, 60
5, 112859, Note_on_c, 9, 62, 57
5, 112874, Note_on_c, 9, 62, 0
5, 112874, Note_on_c, 9, 70, 0
5, 112889, Note_on_c, 9, 70, 70
5, 112903, Note_on_c, 9, 70, 0
5, 112919, Note_on_c, 9, 70, 80
5, 112919, Note_on_c, 9, 62, 120
5, 112934, Note_on_c, 9, 62, 0
5, 112934, Note_on_c, 9, 70, 0
5, 112968, Note_on_c, 9, 76, 18
5, 112979, Note_on_c, 9, 70, 60
5, 112979, Note_on_c, 9, 60, 50
5, 112979, Note_on_c, 9, 56, 48
5, 112979, Note_on_c, 9, 36, 60
5, 112992, Note_on_c, 9, 76, 0
5, 112994, Note_on_c, 9, 56, 0
5, 112994, Note_on_c, 9, 70, 0
5, 112994, Note_on_c, 9, 60, 0
5, 112994, Note_on_c, 9, 36, 0
5, 113039, Note_on_c, 9, 70, 80
5, 113039, Note_on_c, 9, 61, 50
5, 113039, Note_on_c, 9, 56, 70
5, 113039, Note_on_c, 9, 76, 26
5, 113054, Note_on_c, 9, 56, 0
5, 113054, Note_on_c, 9, 70, 0
5, 113054, Note_on_c, 9, 61, 0
5, 113076, Note_on_c, 9, 76, 0
5, 113099, Note_on_c, 9, 70, 60
5, 113099, Note_on_c, 9, 61, 50
5, 113114, Note_on_c, 9, 61, 0
5, 113114, Note_on_c, 9, 70, 0
5, 113159, Note_on_c, 9, 70, 80
5, 113159, Note_on_c, 9, 64, 120
5, 113159, Note_on_c, 9, 36, 60
5, 113174, Note_on_c, 9, 36, 0
5, 113174, Note_on_c, 9, 64, 0
5, 113174, Note_on_c, 9, 70, 0
5, 113219, Note_on_c, 9, 70, 60
5, 113219, Note_on_c, 9, 64, 120
5, 113219, Note_on_c, 9, 56, 48
5, 113220, Note_on_c, 9, 77, 19
5, 113234, Note_on_c, 9, 56, 0
5, 113234, Note_on_c, 9, 70, 0
5, 113234, Note_on_c, 9, 64, 0
5, 113242, Note_on_c, 9, 77, 0
5, 113279, Note_on_c, 9, 70, 80
5, 113279, Note_on_c, 9, 60, 50
5, 113279, Note_on_c, 9, 56, 70
5, 113280, Note_on_c, 9, 77, 26
5, 113294, Note_on_c, 9, 56, 0
5, 113294, Note_on_c, 9, 70, 0
5, 113294, Note_on_c, 9, 60, 0
5, 113322, Note_on_c, 9, 77, 0
5, 113339, Note_on_c, 9, 70, 60
5, 113339, Note_on_c, 9, 62, 57
5, 113354, Note_on_c, 9, 62, 0
5, 113354, Note_on_c, 9, 70, 0
5, 113369, Note_on_c, 9, 70, 70
5, 113384, Note_on_c, 9, 70, 0
5, 113399, Note_on_c, 9, 70, 60
5, 113399, Note_on_c, 9, 62, 120
5, 113414, Note_on_c, 9, 62, 0
5, 113414, Note_on_c, 9, 70, 0
5, 113459, Note_on_c, 9, 70, 60
5, 113459, Note_on_c, 9, 61, 50
5, 113459, Note_on_c, 9, 56, 48
5, 113459, Note_on_c, 9, 36, 60
5, 113460, Note_on_c, 9, 76, 30
5, 113474, Note_on_c, 9, 36, 0
5, 113474, Note_on_c, 9, 56, 0
5, 113474, Note_on_c, 9, 70, 0
5, 113474, Note_on_c, 9, 61, 0
5, 113484, Note_on_c, 9, 76, 0
5, 113519, Note_on_c, 9, 70, 80
5, 113519, Note_on_c, 9, 60, 50
5, 113519, Note_on_c, 9, 56, 70
5, 113519, Note_on_c, 9, 76, 29
5, 113534, Note_on_c, 9, 56, 0
5, 113534, Note_on_c, 9, 70, 0
5, 113534, Note_on_c, 9, 60, 0
5, 113564, Note_on_c, 9, 76, 0
5, 113579, Note_on_c, 9, 70, 60
5, 113579, Note_on_c, 9, 60, 50
5, 113594, Note_on_c, 9, 60, 0
5, 113594, Note_on_c, 9, 70, 0
5, 113636, Note_on_c, 9, 77, 16
5, 113639, Note_on_c, 9, 70, 80
5, 113639, Note_on_c, 9, 64, 120
5, 113639, Note_on_c, 9, 36, 60
5, 113653, Note_on_c, 9, 77, 0
5, 113654, Note_on_c, 9, 70, 0
5, 113654, Note_on_c, 9, 64, 0
5, 113654, Note_on_c, 9, 36, 0
5, 113699, Note_on_c, 9, 70, 60
5, 113699, Note_on_c, 9, 64, 120
5, 113699, Note_on_c, 9, 56, 48
5, 113711, Note_on_c, 9, 77, 67
5, 113714, Note_on_c, 9, 56, 0
5, 113714, Note_on_c, 9, 70, 0
5, 113714, Note_on_c, 9, 64, 0
5, 113756, Note_on_c, 9, 77, 0
5, 113760, Program_c, 9, 0
5, 113761, Note_on_c, 9, 70, 80
5, 113761, Note_on_c, 9, 60, 50
5, 113761, Note_on_c, 9, 56, 70
5, 113775, Note_on_c, 9, 60, 0
5, 113775, Note_on_c, 9, 70, 0
5, 113776, Note_on_c, 9, 56, 0
5, 113819, Note_on_c, 9, 70, 60
5, 113819, Note_on_c, 9, 65, 66
5, 113819, Note_on_c, 9, 62, 57
5, 113834, Note_on_c, 9, 62, 0
5, 113834, Note_on_c, 9, 70, 0
5, 113849, Note_on_c, 9, 65, 0
5, 113849, Note_on_c, 9, 70, 70
5, 113864, Note_on_c, 9, 70, 0
5, 113878, Note_on_c, 9, 62, 120
5, 113879, Note_on_c, 9, 70, 80
5, 113893, Note_on_c, 9, 70, 0
5, 113894, Note_on_c, 9, 62, 0
5, 113939, Note_on_c, 9, 70, 60
5, 113939, Note_on_c, 9, 60, 50
5, 113939, Note_on_c, 9, 56, 48
5, 113939, Note_on_c, 9, 36, 60
5, 113954, Note_on_c, 9, 36, 0
5, 113954, Note_on_c, 9, 70, 0
5, 113954, Note_on_c, 9, 60, 0
5, 113954, Note_on_c, 9, 56, 0
5, 113989, Note_on_c, 9, 69, 57
5, 113999, Note_on_c, 9, 70, 80
5, 113999, Note_on_c, 9, 65, 81
5, 113999, Note_on_c, 9, 61, 50
5, 113999, Note_on_c, 9, 56, 70
5, 114014, Note_on_c, 9, 56, 0
5, 114014, Note_on_c, 9, 70, 0
5, 114014, Note_on_c, 9, 61, 0
5, 114025, Note_on_c, 9, 69, 0
5, 114028, Note_on_c, 9, 65, 0
5, 114059, Note_on_c, 9, 70, 60
5, 114059, Note_on_c, 9, 61, 50
5, 114074, Note_on_c, 9, 61, 0
5, 114074, Note_on_c, 9, 70, 0
5, 114119, Note_on_c, 9, 70, 80
5, 114119, Note_on_c, 9, 64, 120
5, 114119, Note_on_c, 9, 36, 60
5, 114134, Note_on_c, 9, 36, 0
5, 114134, Note_on_c, 9, 64, 0
5, 114134, Note_on_c, 9, 70, 0
5, 114179, Note_on_c, 9, 70, 60
5, 114179, Note_on_c, 9, 66, 76
5, 114179, Note_on_c, 9, 64, 120
5, 114179, Note_on_c, 9, 56, 48
5, 114194, Note_on_c, 9, 56, 0
5, 114194, Note_on_c, 9, 64, 0
5, 114194, Note_on_c, 9, 70, 0
5, 114208, Note_on_c, 9, 66, 0
5, 114239, Note_on_c, 9, 70, 80
5, 114239, Note_on_c, 9, 60, 50
5, 114239, Note_on_c, 9, 56, 70
5, 114254, Note_on_c, 9, 56, 0
5, 114254, Note_on_c, 9, 60, 0
5, 114254, Note_on_c, 9, 70, 0
5, 114299, Note_on_c, 9, 62, 57
5, 114299, Note_on_c, 9, 66, 72
5, 114299, Note_on_c, 9, 70, 60
5, 114314, Note_on_c, 9, 70, 0
5, 114314, Note_on_c, 9, 62, 0
5, 114320, Note_on_c, 9, 66, 0
5, 114329, Note_on_c, 9, 70, 70
5, 114344, Note_on_c, 9, 70, 0
5, 114359, Note_on_c, 9, 62, 120
5, 114359, Note_on_c, 9, 70, 60
5, 114374, Note_on_c, 9, 70, 0
5, 114374, Note_on_c, 9, 62, 0
5, 114419, Note_on_c, 9, 36, 60
5, 114419, Note_on_c, 9, 56, 48
5, 114419, Note_on_c, 9, 61, 50
5, 114419, Note_on_c, 9, 70, 60
5, 114434, Note_on_c, 9, 70, 0
5, 114434, Note_on_c, 9, 36, 0
5, 114434, Note_on_c, 9, 56, 0
5, 114434, Note_on_c, 9, 61, 0
5, 114449, Note_on_c, 9, 65, 81
5, 114479, Note_on_c, 9, 65, 0
5, 114479, Note_on_c, 9, 56, 70
5, 114479, Note_on_c, 9, 60, 50
5, 114479, Note_on_c, 9, 70, 80
5, 114494, Note_on_c, 9, 70, 0
5, 114494, Note_on_c, 9, 60, 0
5, 114494, Note_on_c, 9, 56, 0
5, 114539, Note_on_c, 9, 60, 50
5, 114539, Note_on_c, 9, 65, 81
5, 114539, Note_on_c, 9, 70, 60
5, 114553, Note_on_c, 9, 70, 0
5, 114554, Note_on_c, 9, 60, 0
5, 114568, Note_on_c, 9, 65, 0
5, 114599, Note_on_c, 9, 36, 60
5, 114599, Note_on_c, 9, 64, 120
5, 114599, Note_on_c, 9, 70, 80
5, 114614, Note_on_c, 9, 70, 0
5, 114614, Note_on_c, 9, 64, 0
5, 114614, Note_on_c, 9, 36, 0
5, 114629, Note_on_c, 9, 66, 79
5, 114656, Note_on_c, 9, 66, 0
5, 114659, Note_on_c, 9, 56, 48
5, 114659, Note_on_c, 9, 64, 120
5, 114659, Note_on_c, 9, 70, 60
5, 114674, Note_on_c, 9, 70, 0
5, 114674, Note_on_c, 9, 64, 0
5, 114674, Note_on_c, 9, 56, 0
5, 114720, Note_on_c, 9, 70, 80
5, 114720, Note_on_c, 9, 60, 50
5, 114721, Note_on_c, 9, 56, 70
5, 114734, Note_on_c, 9, 60, 0
5, 114734, Note_on_c, 9, 70, 0
5, 114735, Note_on_c, 9, 56, 0
5, 114744, Note_on_c, 9, 57, 28
5, 114756, Note_on_c, 9, 57, 0
5, 114779, Note_on_c, 9, 62, 57
5, 114779, Note_on_c, 9, 70, 60
5, 114794, Note_on_c, 9, 70, 0
5, 114794, Note_on_c, 9, 62, 0
5, 114809, Note_on_c, 9, 65, 73
5, 114809, Note_on_c, 9, 70, 70
5, 114824, Note_on_c, 9, 70, 0
5, 114832, Note_on_c, 9, 65, 0
5, 114839, Note_on_c, 9, 62, 120
5, 114839, Note_on_c, 9, 66, 79
5, 114839, Note_on_c, 9, 70, 80
5, 114854, Note_on_c, 9, 70, 0
5, 114854, Note_on_c, 9, 62, 0
5, 114864, Note_on_c, 9, 66, 0
5, 114899, Note_on_c, 9, 36, 60
5, 114899, Note_on_c, 9, 56, 48
5, 114899, Note_on_c, 9, 60, 50
5, 114899, Note_on_c, 9, 70, 60
5, 114914, Note_on_c, 9, 70, 0
5, 114914, Note_on_c, 9, 36, 0
5, 114914, Note_on_c, 9, 56, 0
5, 114914, Note_on_c, 9, 60, 0
5, 114959, Note_on_c, 9, 56, 70
5, 114959, Note_on_c, 9, 61, 50
5, 114959, Note_on_c, 9, 70, 80
5, 114974, Note_on_c, 9, 70, 0
5, 114974, Note_on_c, 9, 61, 0
5, 114974, Note_on_c, 9, 56, 0
5, 115019, Note_on_c, 9, 61, 50
5, 115019, Note_on_c, 9, 70, 60
5, 115034, Note_on_c, 9, 70, 0
5, 115034, Note_on_c, 9, 61, 0
5, 115079, Note_on_c, 9, 36, 60
5, 115079, Note_on_c, 9, 64, 120
5, 115079, Note_on_c, 9, 70, 80
5, 115094, Note_on_c, 9, 70, 0
5, 115094, Note_on_c, 9, 64, 0
5, 115094, Note_on_c, 9, 36, 0
5, 115139, Note_on_c, 9, 56, 48
5, 115139, Note_on_c, 9, 64, 120
5, 115139, Note_on_c, 9, 70, 60
5, 115154, Note_on_c, 9, 70, 0
5, 115154, Note_on_c, 9, 64, 0
5, 115154, Note_on_c, 9, 56, 0
5, 115199, Note_on_c, 9, 56, 70
5, 115199, Note_on_c, 9, 60, 50
5, 115199, Note_on_c, 9, 70, 80
5, 115214, Note_on_c, 9, 70, 0
5, 115214, Note_on_c, 9, 60, 0
5, 115214, Note_on_c, 9, 56, 0
5, 115259, Note_on_c, 9, 62, 57
5, 115259, Note_on_c, 9, 65, 46
5, 115259, Note_on_c, 9, 70, 60
5, 115274, Note_on_c, 9, 70, 0
5, 115274, Note_on_c, 9, 62, 0
5, 115285, Note_on_c, 9, 65, 0
5, 115289, Note_on_c, 9, 70, 70
5, 115304, Note_on_c, 9, 70, 0
5, 115319, Note_on_c, 9, 62, 120
5, 115319, Note_on_c, 9, 66, 76
5, 115319, Note_on_c, 9, 70, 60
5, 115334, Note_on_c, 9, 70, 0
5, 115334, Note_on_c, 9, 62, 0
5, 115349, Note_on_c, 9, 66, 0
5, 115379, Note_on_c, 9, 36, 60
5, 115379, Note_on_c, 9, 56, 48
5, 115379, Note_on_c, 9, 61, 50
5, 115379, Note_on_c, 9, 70, 60
5, 115394, Note_on_c, 9, 70, 0
5, 115394, Note_on_c, 9, 36, 0
5, 115394, Note_on_c, 9, 56, 0
5, 115394, Note_on_c, 9, 61, 0
5, 115439, Note_on_c, 9, 56, 70
5, 115439, Note_on_c, 9, 60, 50
5, 115439, Note_on_c, 9, 70, 80
5, 115454, Note_on_c, 9, 70, 0
5, 115454, Note_on_c, 9, 60, 0
5, 115454, Note_on_c, 9, 56, 0
5, 115499, Note_on_c, 9, 60, 50
5, 115499, Note_on_c, 9, 65, 58
5, 115499, Note_on_c, 9, 70, 60
5, 115514, Note_on_c, 9, 70, 0
5, 115514, Note_on_c, 9, 60, 0
5, 115523, Note_on_c, 9, 65, 0
5, 115529, Note_on_c, 9, 66, 79
5, 115558, Note_on_c, 9, 66, 0
5, 115559, Note_on_c, 9, 36, 60
5, 115559, Note_on_c, 9, 64, 120
5, 115559, Note_on_c, 9, 70, 80
5, 115574, Note_on_c, 9, 70, 0
5, 115574, Note_on_c, 9, 64, 0
5, 115574, Note_on_c, 9, 36, 0
5, 115619, Note_on_c, 9, 56, 48
5, 115619, Note_on_c, 9, 64, 120
5, 115619, Note_on_c, 9, 70, 60
5, 115634, Note_on_c, 9, 70, 0
5, 115634, Note_on_c, 9, 64, 0
5, 115634, Note_on_c, 9, 56, 0
5, 115634, End_track
6, 0, Start_track
6, 0, End_track
0, 0, End_of_file
