0, 0, Header, 1, 5, 480
1, 0, Start_track
1, 0, Title_t, "B.Y.T."
1, 0, System_exclusive, 10, 65, 16, 66, 18, 64, 0, 127, 0, 65, 247
1, 0, Time_signature, 4, 2, 24, 8
1, 0, Key_signature, 0, "major"
1, 0, Tempo, 272727
1, 0, End_track
2, 0, Start_track
2, 0, Title_t, ""
2, 482, Program_c, 0, 3
2, 483, Control_c, 0, 7, 97
2, 3830, Note_on_c, 0, 54, 53
2, 3850, Note_on_c, 0, 66, 36
2, 3852, Note_on_c, 0, 67, 73
2, 3864, Note_on_c, 0, 55, 75
2, 3909, Note_on_c, 0, 66, 0
2, 3981, Note_on_c, 0, 54, 0
2, 5525, Note_on_c, 0, 67, 0
2, 5567, Note_on_c, 0, 55, 0
2, 5596, Note_on_c, 0, 65, 58
2, 5613, Note_on_c, 0, 53, 44
2, 5760, Note_on_c, 0, 65, 0
2, 5771, Note_on_c, 0, 53, 0
2, 5834, Note_on_c, 0, 64, 40
2, 5848, Note_on_c, 0, 52, 28
2, 6052, Note_on_c, 0, 64, 0
2, 6072, Note_on_c, 0, 52, 0
2, 6117, Note_on_c, 0, 48, 50
2, 6126, Note_on_c, 0, 60, 51
2, 6655, Note_on_c, 0, 48, 0
2, 6745, Note_on_c, 0, 50, 42
2, 6753, Note_on_c, 0, 62, 49
2, 6823, Note_on_c, 0, 60, 0
2, 7057, Note_on_c, 0, 62, 0
2, 7120, Note_on_c, 0, 50, 0
2, 7235, Note_on_c, 0, 64, 55
2, 7413, Note_on_c, 0, 64, 0
2, 7736, Note_on_c, 0, 55, 36
2, 7851, Note_on_c, 0, 55, 0
2, 8672, Note_on_c, 0, 52, 34
2, 8681, Note_on_c, 0, 43, 28
2, 8684, Note_on_c, 0, 62, 22
2, 8709, Note_on_c, 0, 59, 24
2, 8776, Note_on_c, 0, 43, 0
2, 8779, Note_on_c, 0, 52, 0
2, 8795, Note_on_c, 0, 59, 0
2, 8870, Note_on_c, 0, 62, 0
2, 9247, Note_on_c, 0, 62, 19
2, 9329, Note_on_c, 0, 62, 0
2, 9628, Note_on_c, 0, 62, 45
2, 9631, Note_on_c, 0, 64, 36
2, 9645, Note_on_c, 0, 52, 29
2, 9652, Note_on_c, 0, 43, 30
2, 9658, Note_on_c, 0, 57, 26
2, 9660, Note_on_c, 0, 59, 44
2, 9740, Note_on_c, 0, 43, 0
2, 9746, Note_on_c, 0, 59, 0
2, 9767, Note_on_c, 0, 52, 0
2, 9769, Note_on_c, 0, 57, 0
2, 9783, Note_on_c, 0, 64, 0
2, 9823, Note_on_c, 0, 62, 0
2, 10330, Note_on_c, 0, 62, 40
2, 10333, Note_on_c, 0, 43, 34
2, 10340, Note_on_c, 0, 64, 33
2, 10353, Note_on_c, 0, 52, 28
2, 10362, Note_on_c, 0, 59, 40
2, 10364, Note_on_c, 0, 57, 19
2, 10431, Note_on_c, 0, 59, 0
2, 10444, Note_on_c, 0, 57, 0
2, 10463, Note_on_c, 0, 52, 0
2, 10465, Note_on_c, 0, 64, 0
2, 10466, Note_on_c, 0, 43, 0
2, 10503, Note_on_c, 0, 62, 0
2, 11035, Note_on_c, 0, 57, 25
2, 11041, Note_on_c, 0, 52, 24
2, 11046, Note_on_c, 0, 43, 28
2, 11049, Note_on_c, 0, 64, 26
2, 11050, Note_on_c, 0, 59, 39
2, 11055, Note_on_c, 0, 62, 32
2, 12141, Note_on_c, 0, 57, 0
2, 12164, Control_c, 0, 64, 127
2, 12323, Note_on_c, 0, 59, 0
2, 12376, Note_on_c, 0, 55, 57
2, 12382, Note_on_c, 0, 52, 0
2, 12452, Note_on_c, 0, 64, 0
2, 12458, Note_on_c, 0, 55, 0
2, 12465, Note_on_c, 0, 62, 0
2, 12493, Control_c, 0, 64, 0
2, 12512, Note_on_c, 0, 43, 0
2, 12587, Note_on_c, 0, 48, 73
2, 12588, Note_on_c, 0, 60, 91
2, 13169, Control_c, 0, 64, 127
2, 13224, Note_on_c, 0, 60, 0
2, 13298, Note_on_c, 0, 62, 1
2, 13361, Note_on_c, 0, 48, 0
2, 13383, Note_on_c, 0, 50, 55
2, 13413, Control_c, 0, 64, 0
2, 13526, Note_on_c, 0, 62, 0
2, 13604, Note_on_c, 0, 64, 70
2, 13630, Note_on_c, 0, 50, 0
2, 13653, Note_on_c, 0, 55, 70
2, 13666, Note_on_c, 0, 52, 66
2, 13672, Note_on_c, 0, 58, 50
2, 13738, Note_on_c, 0, 61, 26
2, 14036, Note_on_c, 0, 64, 0
2, 14173, Control_c, 0, 64, 127
2, 14176, Note_on_c, 0, 61, 0
2, 14205, Note_on_c, 0, 58, 0
2, 14217, Note_on_c, 0, 55, 0
2, 14249, Note_on_c, 0, 52, 0
2, 14322, Note_on_c, 0, 65, 66
2, 14335, Note_on_c, 0, 58, 30
2, 14388, Note_on_c, 0, 53, 49
2, 14389, Note_on_c, 0, 61, 25
2, 14437, Note_on_c, 0, 61, 0
2, 14454, Note_on_c, 0, 58, 0
2, 14461, Note_on_c, 0, 65, 0
2, 14468, Note_on_c, 0, 53, 0
2, 14489, Control_c, 0, 64, 0
2, 14580, Note_on_c, 0, 67, 66
2, 14615, Note_on_c, 0, 55, 59
2, 14624, Note_on_c, 0, 66, 36
2, 14753, Note_on_c, 0, 67, 0
2, 14763, Control_c, 0, 64, 127
2, 14792, Control_c, 0, 64, 0
2, 14804, Note_on_c, 0, 66, 0
2, 14912, Note_on_c, 0, 69, 66
2, 14990, Note_on_c, 0, 55, 0
2, 14993, Control_c, 0, 64, 127
2, 15084, Note_on_c, 0, 69, 0
2, 15194, Control_c, 0, 64, 0
2, 15280, Note_on_c, 0, 62, 55
2, 15283, Note_on_c, 0, 60, 44
2, 15360, Note_on_c, 0, 60, 0
2, 15423, Note_on_c, 0, 62, 0
2, 16328, Note_on_c, 0, 74, 46
2, 16333, Note_on_c, 0, 65, 50
2, 16340, Note_on_c, 0, 86, 41
2, 16365, Note_on_c, 0, 55, 33
2, 16368, Note_on_c, 0, 81, 40
2, 16385, Note_on_c, 0, 60, 32
2, 16396, Note_on_c, 0, 57, 37
2, 16437, Note_on_c, 0, 81, 0
2, 16460, Note_on_c, 0, 74, 0
2, 16502, Note_on_c, 0, 86, 0
2, 16505, Note_on_c, 0, 57, 0
2, 16508, Note_on_c, 0, 60, 0
2, 16511, Note_on_c, 0, 65, 0
2, 16513, Note_on_c, 0, 55, 0
2, 17298, Note_on_c, 0, 65, 51
2, 17310, Note_on_c, 0, 86, 50
2, 17324, Note_on_c, 0, 55, 31
2, 17325, Note_on_c, 0, 74, 39
2, 17335, Note_on_c, 0, 60, 51
2, 17373, Note_on_c, 0, 81, 32
2, 17433, Note_on_c, 0, 60, 0
2, 17435, Note_on_c, 0, 65, 0
2, 17436, Note_on_c, 0, 81, 0
2, 17439, Note_on_c, 0, 55, 0
2, 17445, Note_on_c, 0, 74, 0
2, 17477, Note_on_c, 0, 86, 0
2, 17984, Note_on_c, 0, 86, 43
2, 17997, Note_on_c, 0, 74, 38
2, 18004, Note_on_c, 0, 65, 56
2, 18011, Note_on_c, 0, 80, 45
2, 18014, Note_on_c, 0, 55, 45
2, 18026, Note_on_c, 0, 60, 48
2, 18134, Note_on_c, 0, 65, 0
2, 18147, Note_on_c, 0, 60, 0
2, 18178, Note_on_c, 0, 74, 0
2, 18180, Note_on_c, 0, 80, 0
2, 18183, Note_on_c, 0, 55, 0
2, 18260, Note_on_c, 0, 86, 0
2, 18684, Note_on_c, 0, 74, 48
2, 18687, Note_on_c, 0, 86, 50
2, 18700, Note_on_c, 0, 80, 43
2, 18701, Note_on_c, 0, 64, 41
2, 18728, Note_on_c, 0, 59, 33
2, 18762, Note_on_c, 0, 53, 25
2, 19016, Note_on_c, 0, 86, 0
2, 19019, Note_on_c, 0, 80, 0
2, 19095, Note_on_c, 0, 74, 0
2, 19143, Note_on_c, 0, 64, 0
2, 19162, Note_on_c, 0, 59, 0
2, 19258, Note_on_c, 0, 53, 0
2, 21124, Note_on_c, 0, 65, 110
2, 21140, Note_on_c, 0, 53, 80
2, 21824, Note_on_c, 0, 65, 0
2, 21872, Note_on_c, 0, 53, 0
2, 21923, Note_on_c, 0, 64, 67
2, 21936, Note_on_c, 0, 52, 49
2, 22128, Note_on_c, 0, 64, 0
2, 22155, Note_on_c, 0, 50, 40
2, 22158, Note_on_c, 0, 52, 0
2, 22168, Note_on_c, 0, 62, 57
2, 22359, Note_on_c, 0, 50, 0
2, 22368, Note_on_c, 0, 62, 0
2, 22448, Note_on_c, 0, 59, 41
2, 22473, Note_on_c, 0, 47, 46
2, 22562, Note_on_c, 0, 59, 0
2, 22594, Note_on_c, 0, 47, 0
2, 22668, Note_on_c, 0, 48, 31
2, 22698, Note_on_c, 0, 60, 20
2, 22805, Note_on_c, 0, 48, 0
2, 22878, Note_on_c, 0, 50, 32
2, 22912, Note_on_c, 0, 62, 60
2, 22943, Note_on_c, 0, 60, 0
2, 22995, Note_on_c, 0, 50, 0
2, 23032, Note_on_c, 0, 62, 0
2, 23129, Note_on_c, 0, 55, 66
2, 23205, Note_on_c, 0, 43, 40
2, 23376, Note_on_c, 0, 43, 0
2, 23391, Note_on_c, 0, 55, 0
2, 24035, Note_on_c, 0, 67, 46
2, 24052, Note_on_c, 0, 60, 50
2, 24054, Note_on_c, 0, 57, 48
2, 24057, Note_on_c, 0, 55, 47
2, 24060, Note_on_c, 0, 65, 49
2, 24149, Note_on_c, 0, 57, 0
2, 24173, Note_on_c, 0, 55, 0
2, 24215, Note_on_c, 0, 65, 0
2, 24226, Note_on_c, 0, 60, 0
2, 24304, Note_on_c, 0, 57, 48
2, 24327, Note_on_c, 0, 60, 24
2, 24339, Note_on_c, 0, 55, 46
2, 24341, Note_on_c, 0, 65, 25
2, 24413, Note_on_c, 0, 57, 0
2, 24441, Note_on_c, 0, 55, 0
2, 24442, Note_on_c, 0, 60, 0
2, 24487, Note_on_c, 0, 67, 0
2, 24502, Note_on_c, 0, 65, 0
2, 24992, Note_on_c, 0, 67, 39
2, 24995, Note_on_c, 0, 55, 48
2, 25006, Note_on_c, 0, 57, 44
2, 25009, Note_on_c, 0, 60, 36
2, 25012, Note_on_c, 0, 65, 44
2, 25072, Note_on_c, 0, 55, 0
2, 25077, Note_on_c, 0, 57, 0
2, 25112, Note_on_c, 0, 60, 0
2, 25123, Note_on_c, 0, 67, 0
2, 25129, Note_on_c, 0, 65, 0
2, 25696, Note_on_c, 0, 57, 37
2, 25705, Note_on_c, 0, 67, 24
2, 25710, Note_on_c, 0, 65, 36
2, 25711, Note_on_c, 0, 60, 40
2, 25716, Note_on_c, 0, 55, 39
2, 25794, Note_on_c, 0, 57, 0
2, 25801, Note_on_c, 0, 55, 0
2, 25822, Note_on_c, 0, 67, 0
2, 25824, Note_on_c, 0, 60, 0
2, 25923, Note_on_c, 0, 65, 0
2, 26388, Note_on_c, 0, 55, 40
2, 26391, Note_on_c, 0, 56, 35
2, 26406, Note_on_c, 0, 67, 25
2, 26408, Note_on_c, 0, 65, 44
2, 26409, Note_on_c, 0, 60, 50
2, 26872, Note_on_c, 0, 65, 0
2, 26907, Note_on_c, 0, 56, 0
2, 27004, Note_on_c, 0, 60, 0
2, 27220, Note_on_c, 0, 67, 0
2, 28091, Note_on_c, 0, 55, 0
2, 28156, Note_on_c, 0, 67, 49
2, 28174, Note_on_c, 0, 43, 41
2, 28257, Note_on_c, 0, 67, 0
2, 28311, Note_on_c, 0, 43, 0
2, 28459, Note_on_c, 0, 71, 72
2, 28470, Note_on_c, 0, 47, 34
2, 28715, Note_on_c, 0, 71, 0
2, 28766, Note_on_c, 0, 47, 0
2, 28769, Note_on_c, 0, 72, 82
2, 28798, Note_on_c, 0, 48, 71
2, 28987, Note_on_c, 0, 72, 0
2, 29070, Note_on_c, 0, 74, 83
2, 29078, Note_on_c, 0, 48, 0
2, 29095, Note_on_c, 0, 50, 69
2, 29284, Note_on_c, 0, 50, 0
2, 29295, Note_on_c, 0, 74, 0
2, 29407, Note_on_c, 0, 76, 74
2, 29422, Note_on_c, 0, 52, 60
2, 29669, Note_on_c, 0, 76, 0
2, 29685, Note_on_c, 0, 52, 0
2, 29766, Note_on_c, 0, 72, 45
2, 29782, Note_on_c, 0, 48, 39
2, 30044, Note_on_c, 0, 72, 0
2, 30072, Note_on_c, 0, 48, 0
2, 30155, Note_on_c, 0, 74, 36
2, 30200, Note_on_c, 0, 50, 30
2, 30415, Note_on_c, 0, 74, 0
2, 30492, Note_on_c, 0, 50, 0
2, 30536, Note_on_c, 0, 72, 40
2, 30574, Note_on_c, 0, 48, 36
2, 31410, Note_on_c, 0, 48, 0
2, 31501, Note_on_c, 0, 72, 0
2, 31702, Note_on_c, 0, 70, 59
2, 31708, Note_on_c, 0, 61, 54
2, 31711, Note_on_c, 0, 66, 54
2, 31728, Note_on_c, 0, 57, 60
2, 32584, Note_on_c, 0, 66, 0
2, 32593, Note_on_c, 0, 61, 0
2, 32633, Note_on_c, 0, 57, 0
2, 32682, Note_on_c, 0, 56, 45
2, 32689, Note_on_c, 0, 65, 53
2, 32703, Note_on_c, 0, 60, 38
2, 32762, Note_on_c, 0, 70, 0
2, 32781, Note_on_c, 0, 69, 52
2, 33220, Note_on_c, 0, 69, 0
2, 33259, Note_on_c, 0, 65, 0
2, 33271, Note_on_c, 0, 60, 0
2, 33397, Note_on_c, 0, 68, 55
2, 33406, Note_on_c, 0, 64, 59
2, 33429, Note_on_c, 0, 59, 35
2, 33440, Note_on_c, 0, 56, 0
2, 33441, Note_on_c, 0, 55, 54
2, 33780, Note_on_c, 0, 64, 0
2, 33884, Note_on_c, 0, 68, 0
2, 33916, Note_on_c, 0, 59, 0
2, 34047, Note_on_c, 0, 55, 0
2, 34101, Note_on_c, 0, 67, 47
2, 34116, Note_on_c, 0, 57, 34
2, 34125, Note_on_c, 0, 52, 42
2, 34127, Note_on_c, 0, 62, 44
2, 35588, Note_on_c, 0, 67, 0
2, 35610, Note_on_c, 0, 62, 0
2, 35752, Note_on_c, 0, 57, 0
2, 35842, Note_on_c, 0, 65, 74
2, 35861, Note_on_c, 0, 60, 73
2, 35868, Note_on_c, 0, 57, 55
2, 35883, Note_on_c, 0, 52, 0
2, 35889, Note_on_c, 0, 50, 54
2, 36312, Note_on_c, 0, 60, 0
2, 36332, Note_on_c, 0, 65, 0
2, 36362, Note_on_c, 0, 57, 0
2, 36491, Note_on_c, 0, 50, 0
2, 36496, Note_on_c, 0, 48, 55
2, 36510, Note_on_c, 0, 64, 58
2, 36522, Note_on_c, 0, 55, 44
2, 36534, Note_on_c, 0, 59, 44
2, 36568, Note_on_c, 0, 48, 0
2, 36590, Note_on_c, 0, 55, 0
2, 36604, Note_on_c, 0, 59, 0
2, 36636, Note_on_c, 0, 64, 0
2, 37230, Note_on_c, 0, 60, 60
2, 37254, Note_on_c, 0, 55, 47
2, 37260, Note_on_c, 0, 45, 44
2, 37263, Note_on_c, 0, 52, 34
2, 37304, Note_on_c, 0, 60, 0
2, 37329, Note_on_c, 0, 52, 0
2, 37340, Note_on_c, 0, 55, 0
2, 37467, Note_on_c, 0, 45, 0
2, 37506, Note_on_c, 0, 62, 63
2, 37527, Note_on_c, 0, 47, 53
2, 37536, Note_on_c, 0, 56, 36
2, 37558, Note_on_c, 0, 53, 22
2, 37652, Note_on_c, 0, 53, 0
2, 37676, Note_on_c, 0, 62, 0
2, 37748, Note_on_c, 0, 56, 0
2, 37854, Note_on_c, 0, 64, 53
2, 37864, Note_on_c, 0, 47, 0
2, 37865, Note_on_c, 0, 55, 33
2, 37880, Note_on_c, 0, 48, 39
2, 37919, Note_on_c, 0, 55, 0
2, 37937, Note_on_c, 0, 64, 0
2, 37971, Note_on_c, 0, 48, 0
2, 38392, Note_on_c, 0, 55, 70
2, 38503, Note_on_c, 0, 55, 0
2, 39368, Note_on_c, 0, 79, 52
2, 39378, Note_on_c, 0, 74, 55
2, 39379, Note_on_c, 0, 64, 61
2, 39382, Note_on_c, 0, 69, 53
2, 39548, Note_on_c, 0, 69, 0
2, 39577, Note_on_c, 0, 74, 0
2, 39578, Note_on_c, 0, 79, 0
2, 39653, Note_on_c, 0, 79, 27
2, 39654, Note_on_c, 0, 64, 0
2, 39675, Note_on_c, 0, 69, 43
2, 39681, Note_on_c, 0, 74, 44
2, 39747, Note_on_c, 0, 69, 0
2, 39756, Note_on_c, 0, 74, 0
2, 39803, Note_on_c, 0, 79, 0
2, 40333, Note_on_c, 0, 79, 52
2, 40337, Note_on_c, 0, 69, 53
2, 40343, Note_on_c, 0, 74, 45
2, 40350, Note_on_c, 0, 64, 45
2, 40402, Note_on_c, 0, 79, 0
2, 40405, Note_on_c, 0, 69, 0
2, 40420, Note_on_c, 0, 74, 0
2, 40428, Note_on_c, 0, 64, 0
2, 41030, Note_on_c, 0, 79, 48
2, 41039, Note_on_c, 0, 69, 54
2, 41046, Note_on_c, 0, 74, 48
2, 41081, Note_on_c, 0, 64, 33
2, 41132, Note_on_c, 0, 69, 0
2, 41148, Note_on_c, 0, 74, 0
2, 41156, Note_on_c, 0, 64, 0
2, 41164, Note_on_c, 0, 79, 0
2, 41703, Note_on_c, 0, 69, 60
2, 41708, Note_on_c, 0, 79, 46
2, 41712, Note_on_c, 0, 74, 50
2, 41725, Note_on_c, 0, 64, 39
2, 41782, Note_on_c, 0, 79, 0
2, 41792, Note_on_c, 0, 64, 0
2, 41801, Note_on_c, 0, 69, 0
2, 41805, Note_on_c, 0, 74, 0
2, 42602, Note_on_c, 0, 55, 55
2, 42610, Note_on_c, 0, 43, 44
2, 42651, Note_on_c, 0, 55, 0
2, 42693, Note_on_c, 0, 43, 0
2, 42766, Note_on_c, 0, 48, 64
2, 42790, Note_on_c, 0, 60, 79
2, 43442, Note_on_c, 0, 60, 0
2, 43518, Note_on_c, 0, 62, 87
2, 43524, Note_on_c, 0, 48, 0
2, 43548, Note_on_c, 0, 50, 77
2, 44200, Note_on_c, 0, 62, 0
2, 44231, Note_on_c, 0, 64, 60
2, 44237, Note_on_c, 0, 52, 56
2, 44238, Note_on_c, 0, 50, 0
2, 44412, Note_on_c, 0, 52, 0
2, 44429, Note_on_c, 0, 64, 0
2, 44702, Note_on_c, 0, 53, 55
2, 44706, Note_on_c, 0, 65, 65
2, 44813, Note_on_c, 0, 65, 0
2, 44951, Note_on_c, 0, 53, 0
2, 45146, Note_on_c, 0, 67, 62
2, 45185, Note_on_c, 0, 49, 49
2, 45190, Note_on_c, 0, 58, 49
2, 45191, Note_on_c, 0, 61, 40
2, 45229, Note_on_c, 0, 64, 37
2, 45274, Note_on_c, 0, 67, 0
2, 45428, Note_on_c, 0, 61, 0
2, 45469, Note_on_c, 0, 58, 0
2, 45503, Note_on_c, 0, 64, 0
2, 45667, Note_on_c, 0, 55, 34
2, 45670, Note_on_c, 0, 61, 38
2, 45680, Note_on_c, 0, 69, 58
2, 45740, Note_on_c, 0, 55, 0
2, 45790, Note_on_c, 0, 61, 0
2, 45948, Note_on_c, 0, 69, 0
2, 46058, Note_on_c, 0, 49, 0
2, 46148, Note_on_c, 0, 62, 48
2, 46160, Note_on_c, 0, 50, 36
2, 46161, Note_on_c, 0, 60, 48
2, 46302, Note_on_c, 0, 60, 0
2, 46323, Note_on_c, 0, 50, 0
2, 46360, Note_on_c, 0, 62, 0
2, 47361, Note_on_c, 0, 79, 42
2, 47365, Note_on_c, 0, 72, 51
2, 47367, Note_on_c, 0, 55, 34
2, 47373, Note_on_c, 0, 65, 43
2, 47374, Note_on_c, 0, 60, 34
2, 47390, Note_on_c, 0, 77, 31
2, 47423, Note_on_c, 0, 72, 0
2, 47437, Note_on_c, 0, 65, 0
2, 47459, Note_on_c, 0, 55, 0
2, 47471, Note_on_c, 0, 60, 0
2, 47477, Note_on_c, 0, 77, 0
2, 47480, Note_on_c, 0, 79, 0
2, 48023, Note_on_c, 0, 65, 51
2, 48026, Note_on_c, 0, 79, 54
2, 48037, Note_on_c, 0, 61, 38
2, 48041, Note_on_c, 0, 56, 37
2, 48058, Note_on_c, 0, 55, 24
2, 48126, Note_on_c, 0, 55, 0
2, 48136, Note_on_c, 0, 65, 0
2, 48189, Note_on_c, 0, 79, 0
2, 48190, Note_on_c, 0, 56, 0
2, 48192, Note_on_c, 0, 61, 0
2, 48737, Note_on_c, 0, 79, 47
2, 48756, Note_on_c, 0, 67, 38
2, 48759, Note_on_c, 0, 65, 51
2, 48766, Note_on_c, 0, 61, 35
2, 48769, Note_on_c, 0, 56, 34
2, 48816, Note_on_c, 0, 77, 19
2, 48834, Note_on_c, 0, 65, 0
2, 48837, Note_on_c, 0, 67, 0
2, 48886, Note_on_c, 0, 77, 0
2, 48888, Note_on_c, 0, 79, 0
2, 48894, Note_on_c, 0, 61, 0
2, 48931, Note_on_c, 0, 56, 0
2, 49432, Note_on_c, 0, 56, 35
2, 49438, Note_on_c, 0, 79, 55
2, 49441, Note_on_c, 0, 61, 37
2, 49442, Note_on_c, 0, 65, 60
2, 49444, Note_on_c, 0, 67, 64
2, 49490, Note_on_c, 0, 77, 26
2, 49528, Note_on_c, 0, 65, 0
2, 49530, Note_on_c, 0, 67, 0
2, 49558, Note_on_c, 0, 79, 0
2, 49565, Note_on_c, 0, 77, 0
2, 49596, Note_on_c, 0, 61, 0
2, 49641, Note_on_c, 0, 56, 0
2, 50827, Note_on_c, 0, 52, 73
2, 50894, Note_on_c, 0, 65, 75
2, 50898, Note_on_c, 0, 53, 63
2, 50899, Note_on_c, 0, 60, 74
2, 50905, Note_on_c, 0, 62, 62
2, 50910, Note_on_c, 0, 57, 68
2, 50970, Note_on_c, 0, 52, 0
2, 51053, Note_on_c, 0, 53, 0
2, 51060, Note_on_c, 0, 57, 0
2, 51071, Note_on_c, 0, 62, 0
2, 51082, Note_on_c, 0, 65, 0
2, 51083, Note_on_c, 0, 60, 0
2, 51607, Note_on_c, 0, 64, 57
2, 51629, Note_on_c, 0, 60, 64
2, 51634, Note_on_c, 0, 52, 63
2, 51635, Note_on_c, 0, 59, 48
2, 51641, Note_on_c, 0, 55, 41
2, 51693, Note_on_c, 0, 59, 0
2, 51729, Note_on_c, 0, 55, 0
2, 51760, Note_on_c, 0, 60, 0
2, 51767, Note_on_c, 0, 64, 0
2, 51824, Note_on_c, 0, 52, 0
2, 51904, Note_on_c, 0, 62, 50
2, 51918, Note_on_c, 0, 50, 41
2, 52097, Note_on_c, 0, 50, 0
2, 52111, Note_on_c, 0, 62, 0
2, 52634, Note_on_c, 0, 59, 61
2, 52640, Note_on_c, 0, 47, 60
2, 52655, Note_on_c, 0, 56, 49
2, 52671, Note_on_c, 0, 53, 55
2, 52809, Note_on_c, 0, 53, 0
2, 52886, Note_on_c, 0, 56, 0
2, 52916, Note_on_c, 0, 59, 0
2, 52956, Note_on_c, 0, 47, 0
2, 52987, Note_on_c, 0, 60, 57
2, 53035, Note_on_c, 0, 48, 35
2, 53052, Note_on_c, 0, 53, 33
2, 53053, Note_on_c, 0, 56, 26
2, 53101, Note_on_c, 0, 60, 0
2, 53175, Note_on_c, 0, 48, 0
2, 53216, Note_on_c, 0, 53, 0
2, 53259, Note_on_c, 0, 56, 0
2, 53314, Note_on_c, 0, 62, 63
2, 53320, Note_on_c, 0, 56, 19
2, 53322, Note_on_c, 0, 50, 55
2, 53433, Note_on_c, 0, 50, 0
2, 53466, Note_on_c, 0, 62, 0
2, 53482, Note_on_c, 0, 56, 0
2, 53780, Note_on_c, 0, 55, 53
2, 53854, Note_on_c, 0, 43, 20
2, 53886, Note_on_c, 0, 55, 0
2, 53907, Note_on_c, 0, 43, 0
2, 54726, Note_on_c, 0, 55, 46
2, 54737, Note_on_c, 0, 72, 39
2, 54739, Note_on_c, 0, 79, 33
2, 54751, Note_on_c, 0, 65, 51
2, 54766, Note_on_c, 0, 60, 42
2, 54783, Note_on_c, 0, 77, 31
2, 54842, Note_on_c, 0, 65, 0
2, 54889, Note_on_c, 0, 60, 0
2, 54908, Note_on_c, 0, 72, 0
2, 54929, Note_on_c, 0, 79, 0
2, 54978, Note_on_c, 0, 77, 0
2, 55021, Note_on_c, 0, 65, 20
2, 55048, Note_on_c, 0, 79, 36
2, 55086, Note_on_c, 0, 72, 34
2, 55089, Note_on_c, 0, 67, 22
2, 55103, Note_on_c, 0, 77, 19
2, 55138, Note_on_c, 0, 67, 0
2, 55144, Note_on_c, 0, 72, 0
2, 55150, Note_on_c, 0, 65, 0
2, 55194, Note_on_c, 0, 55, 0
2, 55207, Note_on_c, 0, 79, 0
2, 55236, Note_on_c, 0, 77, 0
2, 55779, Note_on_c, 0, 79, 36
2, 55782, Note_on_c, 0, 67, 42
2, 55785, Note_on_c, 0, 65, 44
2, 55796, Note_on_c, 0, 72, 38
2, 55800, Note_on_c, 0, 77, 36
2, 55805, Note_on_c, 0, 55, 37
2, 55808, Note_on_c, 0, 60, 40
2, 55862, Note_on_c, 0, 67, 0
2, 55866, Note_on_c, 0, 72, 0
2, 55889, Note_on_c, 0, 65, 0
2, 55896, Note_on_c, 0, 60, 0
2, 55900, Note_on_c, 0, 77, 0
2, 55913, Note_on_c, 0, 79, 0
2, 55917, Note_on_c, 0, 55, 0
2, 56484, Note_on_c, 0, 79, 39
2, 56486, Note_on_c, 0, 75, 33
2, 56489, Note_on_c, 0, 67, 43
2, 56501, Note_on_c, 0, 64, 33
2, 56510, Note_on_c, 0, 59, 34
2, 56544, Note_on_c, 0, 53, 18
2, 56576, Note_on_c, 0, 67, 0
2, 56601, Note_on_c, 0, 64, 0
2, 56602, Note_on_c, 0, 53, 0
2, 56604, Note_on_c, 0, 59, 0
2, 56633, Note_on_c, 0, 75, 0
2, 56645, Note_on_c, 0, 79, 0
2, 57199, Note_on_c, 0, 75, 46
2, 57200, Note_on_c, 0, 79, 49
2, 57202, Note_on_c, 0, 64, 51
2, 57203, Note_on_c, 0, 67, 67
2, 57257, Note_on_c, 0, 53, 20
2, 57262, Note_on_c, 0, 59, 29
2, 57323, Note_on_c, 0, 67, 0
2, 57355, Note_on_c, 0, 79, 0
2, 57377, Note_on_c, 0, 75, 0
2, 57386, Note_on_c, 0, 59, 0
2, 57395, Note_on_c, 0, 53, 0
2, 57397, Note_on_c, 0, 64, 0
2, 59539, Note_on_c, 0, 59, 73
2, 59553, Note_on_c, 0, 47, 57
2, 59686, Note_on_c, 0, 59, 0
2, 59743, Note_on_c, 0, 47, 0
2, 60004, Note_on_c, 0, 60, 84
2, 60012, Note_on_c, 0, 48, 79
2, 60241, Note_on_c, 0, 60, 0
2, 60387, Note_on_c, 0, 48, 0
2, 60434, Note_on_c, 0, 62, 76
2, 60448, Note_on_c, 0, 50, 58
2, 60619, Note_on_c, 0, 50, 0
2, 60671, Note_on_c, 0, 62, 0
2, 60746, Note_on_c, 0, 64, 58
2, 60875, Note_on_c, 0, 64, 0
2, 60952, Note_on_c, 0, 48, 36
2, 60986, Note_on_c, 0, 60, 40
2, 61197, Note_on_c, 0, 60, 0
2, 61233, Note_on_c, 0, 48, 0
2, 61244, Note_on_c, 0, 62, 54
2, 61289, Note_on_c, 0, 50, 24
2, 61338, Note_on_c, 0, 50, 0
2, 61399, Note_on_c, 0, 62, 0
2, 61436, Note_on_c, 0, 48, 35
2, 61467, Note_on_c, 0, 60, 48
2, 61756, Note_on_c, 0, 48, 0
2, 61767, Note_on_c, 0, 60, 0
2, 62409, Note_on_c, 0, 67, 38
2, 62418, Note_on_c, 0, 62, 44
2, 62427, Note_on_c, 0, 57, 39
2, 62437, Note_on_c, 0, 52, 44
2, 62495, Note_on_c, 0, 57, 0
2, 62519, Note_on_c, 0, 52, 0
2, 62527, Note_on_c, 0, 62, 0
2, 62553, Note_on_c, 0, 67, 0
2, 63389, Note_on_c, 0, 62, 66
2, 63420, Note_on_c, 0, 57, 50
2, 63424, Note_on_c, 0, 47, 46
2, 63434, Note_on_c, 0, 69, 35
2, 63470, Note_on_c, 0, 62, 0
2, 63503, Note_on_c, 0, 57, 0
2, 63511, Note_on_c, 0, 47, 0
2, 63555, Note_on_c, 0, 69, 0
2, 64134, Note_on_c, 0, 71, 51
2, 64140, Note_on_c, 0, 74, 47
2, 64143, Note_on_c, 0, 68, 45
2, 64144, Note_on_c, 0, 64, 60
2, 64147, Note_on_c, 0, 56, 55
2, 65136, Note_on_c, 0, 64, 0
2, 65219, Note_on_c, 0, 71, 0
2, 65231, Note_on_c, 0, 74, 0
2, 65304, Control_c, 0, 64, 127
2, 65305, Note_on_c, 0, 68, 0
2, 65317, Note_on_c, 0, 72, 50
2, 65337, Note_on_c, 0, 57, 45
2, 65351, Note_on_c, 0, 56, 0
2, 65469, Note_on_c, 0, 57, 0
2, 65786, Note_on_c, 0, 72, 0
2, 66308, Note_on_c, 0, 64, 49
2, 66325, Note_on_c, 0, 57, 41
2, 66348, Note_on_c, 0, 60, 39
2, 66946, Note_on_c, 0, 64, 0
2, 67051, Note_on_c, 0, 57, 0
2, 67057, Note_on_c, 0, 60, 0
2, 67104, Note_on_c, 0, 83, 69
2, 67115, Note_on_c, 0, 71, 64
2, 67227, Note_on_c, 0, 71, 0
2, 67252, Note_on_c, 0, 83, 0
2, 67315, Note_on_c, 0, 81, 64
2, 67332, Note_on_c, 0, 64, 44
2, 67339, Note_on_c, 0, 54, 46
2, 67356, Note_on_c, 0, 60, 36
2, 67372, Control_c, 0, 64, 0
2, 67745, Control_c, 0, 64, 127
2, 68078, Note_on_c, 0, 78, 56
2, 68103, Note_on_c, 0, 64, 0
2, 68106, Note_on_c, 0, 81, 0
2, 68252, Note_on_c, 0, 78, 0
2, 68261, Note_on_c, 0, 64, 37
2, 68284, Note_on_c, 0, 79, 55
2, 68650, Note_on_c, 0, 79, 0
2, 68699, Note_on_c, 0, 64, 0
2, 68727, Note_on_c, 0, 60, 0
2, 68753, Note_on_c, 0, 81, 38
2, 68811, Note_on_c, 0, 81, 0
2, 68862, Note_on_c, 0, 54, 0
2, 69175, Note_on_c, 0, 83, 55
2, 69182, Note_on_c, 0, 62, 36
2, 69188, Note_on_c, 0, 59, 36
2, 69196, Control_c, 0, 64, 0
2, 69197, Note_on_c, 0, 71, 45
2, 69219, Note_on_c, 0, 54, 28
2, 69650, Note_on_c, 0, 83, 0
2, 69756, Note_on_c, 0, 71, 0
2, 69856, Note_on_c, 0, 62, 0
2, 69911, Note_on_c, 0, 54, 0
2, 70100, Note_on_c, 0, 79, 44
2, 70119, Note_on_c, 0, 62, 41
2, 70120, Note_on_c, 0, 67, 42
2, 70127, Note_on_c, 0, 74, 46
2, 70137, Note_on_c, 0, 54, 31
2, 70606, Note_on_c, 0, 79, 0
2, 70617, Note_on_c, 0, 74, 0
2, 70746, Note_on_c, 0, 67, 0
2, 70849, Note_on_c, 0, 62, 0
2, 70972, Note_on_c, 0, 54, 0
2, 71019, Note_on_c, 0, 59, 0
2, 71114, Note_on_c, 0, 62, 47
2, 71133, Note_on_c, 0, 59, 11
2, 71144, Note_on_c, 0, 54, 28
2, 71147, Note_on_c, 0, 74, 29
2, 71239, Note_on_c, 0, 62, 0
2, 71284, Note_on_c, 0, 54, 0
2, 71296, Note_on_c, 0, 74, 0
2, 71307, Note_on_c, 0, 59, 0
2, 71900, Note_on_c, 0, 66, 48
2, 71907, Note_on_c, 0, 62, 44
2, 71972, Note_on_c, 0, 59, 28
2, 71998, Note_on_c, 0, 54, 18
2, 72029, Note_on_c, 0, 62, 0
2, 72047, Note_on_c, 0, 66, 0
2, 72060, Note_on_c, 0, 59, 0
2, 72095, Note_on_c, 0, 54, 0
2, 73012, Note_on_c, 0, 62, 76
2, 73018, Note_on_c, 0, 70, 77
2, 73034, Note_on_c, 0, 65, 80
2, 73035, Note_on_c, 0, 55, 78
2, 73576, Control_c, 0, 64, 127
2, 73713, Note_on_c, 0, 65, 0
2, 73767, Note_on_c, 0, 70, 0
2, 73805, Note_on_c, 0, 62, 0
2, 74002, Note_on_c, 0, 55, 0
2, 74041, Note_on_c, 0, 69, 68
2, 74042, Note_on_c, 0, 60, 65
2, 74052, Note_on_c, 0, 53, 53
2, 74054, Note_on_c, 0, 64, 59
2, 74108, Control_c, 0, 64, 0
2, 74395, Control_c, 0, 64, 127
2, 74440, Note_on_c, 0, 64, 0
2, 74489, Note_on_c, 0, 69, 0
2, 74553, Note_on_c, 0, 60, 0
2, 74807, Note_on_c, 0, 53, 0
2, 74825, Control_c, 0, 64, 0
2, 74827, Note_on_c, 0, 58, 56
2, 74831, Note_on_c, 0, 67, 47
2, 74839, Note_on_c, 0, 64, 55
2, 74862, Note_on_c, 0, 61, 39
2, 74871, Note_on_c, 0, 52, 43
2, 75069, Control_c, 0, 64, 127
2, 75156, Control_c, 0, 64, 0
2, 75278, Note_on_c, 0, 67, 0
2, 75325, Note_on_c, 0, 64, 0
2, 75343, Control_c, 0, 64, 127
2, 75415, Note_on_c, 0, 58, 0
2, 75417, Note_on_c, 0, 61, 0
2, 75447, Note_on_c, 0, 52, 0
2, 75732, Note_on_c, 0, 64, 55
2, 75764, Note_on_c, 0, 49, 50
2, 75767, Note_on_c, 0, 55, 53
2, 75768, Note_on_c, 0, 58, 47
2, 75782, Note_on_c, 0, 61, 36
2, 75859, Control_c, 0, 64, 0
2, 75865, Note_on_c, 0, 64, 0
2, 75888, Note_on_c, 0, 55, 0
2, 75956, Note_on_c, 0, 61, 0
2, 76054, Note_on_c, 0, 49, 0
2, 76060, Note_on_c, 0, 50, 54
2, 76064, Note_on_c, 0, 55, 38
2, 76076, Note_on_c, 0, 65, 55
2, 76233, Note_on_c, 0, 65, 0
2, 76268, Note_on_c, 0, 58, 0
2, 76299, Note_on_c, 0, 55, 0
2, 76446, Note_on_c, 0, 50, 0
2, 76477, Note_on_c, 0, 67, 53
2, 76488, Note_on_c, 0, 52, 53
2, 76509, Note_on_c, 0, 55, 19
2, 76595, Note_on_c, 0, 55, 0
2, 76640, Note_on_c, 0, 67, 0
2, 76661, Note_on_c, 0, 52, 0
2, 76939, Note_on_c, 0, 60, 50
2, 76945, Note_on_c, 0, 64, 53
2, 76953, Note_on_c, 0, 69, 44
2, 76970, Note_on_c, 0, 53, 61
2, 77119, Note_on_c, 0, 53, 0
2, 77311, Note_on_c, 0, 53, 9
2, 77425, Control_c, 0, 64, 127
2, 77545, Note_on_c, 0, 64, 0
2, 77603, Note_on_c, 0, 69, 0
2, 77658, Note_on_c, 0, 60, 0
2, 78138, Note_on_c, 0, 53, 0
2, 78691, Note_on_c, 0, 68, 50
2, 78694, Note_on_c, 0, 56, 44
2, 78715, Note_on_c, 0, 60, 38
2, 78732, Control_c, 0, 64, 0
2, 78734, Note_on_c, 0, 63, 33
2, 79147, Control_c, 0, 64, 127
2, 79227, Note_on_c, 0, 60, 0
2, 79275, Note_on_c, 0, 56, 0
2, 79700, Note_on_c, 0, 56, 36
2, 79716, Note_on_c, 0, 46, 40
2, 79780, Control_c, 0, 64, 0
2, 79800, Note_on_c, 0, 63, 0
2, 79923, Note_on_c, 0, 68, 0
2, 79980, Control_c, 0, 64, 127
2, 80128, Note_on_c, 0, 46, 0
2, 80197, Note_on_c, 0, 56, 0
2, 80986, Control_c, 0, 64, 0
2, 81029, Control_c, 0, 64, 127
2, 81635, Note_on_c, 0, 79, 71
2, 81639, Note_on_c, 0, 69, 65
2, 81641, Note_on_c, 0, 74, 84
2, 81653, Note_on_c, 0, 58, 55
2, 81655, Note_on_c, 0, 64, 54
2, 81705, Control_c, 0, 64, 0
2, 82005, Control_c, 0, 64, 127
2, 82262, Note_on_c, 0, 79, 0
2, 82302, Note_on_c, 0, 74, 0
2, 82360, Note_on_c, 0, 69, 0
2, 82406, Note_on_c, 0, 77, 63
2, 82414, Note_on_c, 0, 64, 0
2, 82494, Note_on_c, 0, 58, 0
2, 82590, Note_on_c, 0, 77, 0
2, 82649, Note_on_c, 0, 68, 63
2, 82660, Note_on_c, 0, 57, 65
2, 82661, Note_on_c, 0, 76, 75
2, 82672, Note_on_c, 0, 63, 46
2, 82681, Control_c, 0, 64, 0
2, 83082, Control_c, 0, 64, 127
2, 83413, Control_c, 0, 64, 0
2, 83417, Note_on_c, 0, 72, 44
2, 83519, Note_on_c, 0, 72, 0
2, 83563, Note_on_c, 0, 76, 0
2, 83663, Note_on_c, 0, 74, 54
2, 83993, Note_on_c, 0, 76, 49
2, 84030, Control_c, 0, 64, 127
2, 84058, Note_on_c, 0, 74, 0
2, 84150, Note_on_c, 0, 57, 0
2, 84190, Note_on_c, 0, 68, 0
2, 84353, Note_on_c, 0, 76, 0
2, 84393, Note_on_c, 0, 63, 0
2, 84519, Note_on_c, 0, 67, 34
2, 84523, Note_on_c, 0, 56, 34
2, 84527, Note_on_c, 0, 79, 32
2, 84543, Note_on_c, 0, 62, 37
2, 84548, Control_c, 0, 64, 0
2, 84921, Control_c, 0, 64, 127
2, 85130, Note_on_c, 0, 67, 0
2, 85172, Note_on_c, 0, 62, 0
2, 85202, Note_on_c, 0, 56, 0
2, 85424, Control_c, 0, 64, 0
2, 85448, Note_on_c, 0, 67, 43
2, 85453, Note_on_c, 0, 56, 32
2, 85459, Note_on_c, 0, 62, 51
2, 85840, Control_c, 0, 64, 127
2, 85869, Note_on_c, 0, 62, 0
2, 85882, Note_on_c, 0, 67, 0
2, 86083, Note_on_c, 0, 56, 0
2, 86198, Control_c, 0, 64, 0
2, 86254, Note_on_c, 0, 65, 50
2, 86260, Note_on_c, 0, 55, 45
2, 86263, Note_on_c, 0, 61, 45
2, 86860, Control_c, 0, 64, 127
2, 86937, Note_on_c, 0, 79, 0
2, 87198, Note_on_c, 0, 65, 0
2, 87215, Note_on_c, 0, 61, 0
2, 87241, Note_on_c, 0, 55, 0
2, 87395, Note_on_c, 0, 65, 38
2, 87412, Note_on_c, 0, 55, 39
2, 87414, Note_on_c, 0, 61, 39
2, 87563, Note_on_c, 0, 65, 0
2, 87578, Control_c, 0, 64, 0
2, 87735, Note_on_c, 0, 61, 0
2, 87793, Note_on_c, 0, 55, 0
2, 87879, Control_c, 0, 64, 127
2, 88626, Control_c, 0, 64, 0
2, 88666, Note_on_c, 0, 62, 66
2, 88683, Note_on_c, 0, 50, 53
2, 88684, Note_on_c, 0, 53, 65
2, 88696, Note_on_c, 0, 57, 57
2, 88796, Note_on_c, 0, 53, 0
2, 88806, Note_on_c, 0, 62, 0
2, 88823, Note_on_c, 0, 57, 0
2, 88948, Note_on_c, 0, 50, 0
2, 89074, Note_on_c, 0, 64, 71
2, 89091, Note_on_c, 0, 55, 62
2, 89101, Note_on_c, 0, 52, 68
2, 89165, Note_on_c, 0, 55, 0
2, 89207, Note_on_c, 0, 64, 0
2, 89377, Note_on_c, 0, 52, 0
2, 89391, Note_on_c, 0, 67, 57
2, 89393, Note_on_c, 0, 53, 64
2, 89425, Note_on_c, 0, 62, 54
2, 89474, Control_c, 0, 64, 127
2, 89519, Note_on_c, 0, 67, 0
2, 89538, Note_on_c, 0, 53, 0
2, 89542, Note_on_c, 0, 62, 0
2, 89588, Control_c, 0, 64, 0
2, 89707, Note_on_c, 0, 69, 73
2, 89715, Note_on_c, 0, 55, 55
2, 89724, Note_on_c, 0, 60, 62
2, 89751, Note_on_c, 0, 64, 30
2, 89797, Note_on_c, 0, 55, 0
2, 89803, Note_on_c, 0, 64, 0
2, 89809, Note_on_c, 0, 60, 0
2, 89824, Note_on_c, 0, 69, 0
2, 90259, Note_on_c, 0, 67, 50
2, 90271, Note_on_c, 0, 55, 57
2, 90282, Note_on_c, 0, 64, 44
2, 90285, Note_on_c, 0, 57, 41
2, 90296, Note_on_c, 0, 60, 42
2, 90321, Note_on_c, 0, 55, 0
2, 90341, Note_on_c, 0, 57, 0
2, 90351, Note_on_c, 0, 60, 0
2, 90376, Note_on_c, 0, 64, 0
2, 90388, Note_on_c, 0, 67, 0
2, 90838, Control_c, 0, 64, 127
2, 90990, Note_on_c, 0, 43, 37
2, 91096, Control_c, 0, 64, 0
2, 91201, Note_on_c, 0, 53, 57
2, 91207, Note_on_c, 0, 62, 54
2, 91241, Note_on_c, 0, 56, 32
2, 91327, Control_c, 0, 64, 127
2, 91427, Control_c, 0, 64, 0
2, 91477, Note_on_c, 0, 62, 0
2, 91478, Note_on_c, 0, 53, 0
2, 91540, Note_on_c, 0, 64, 64
2, 91630, Note_on_c, 0, 56, 0
2, 91691, Note_on_c, 0, 43, 0
2, 91989, Note_on_c, 0, 64, 0
2, 92141, Note_on_c, 0, 55, 45
2, 92154, Note_on_c, 0, 60, 51
2, 92192, Note_on_c, 0, 55, 0
2, 92194, Note_on_c, 0, 57, 24
2, 92229, Note_on_c, 0, 60, 0
2, 92241, Note_on_c, 0, 57, 0
2, 93157, Note_on_c, 0, 55, 36
2, 93180, Note_on_c, 0, 31, 28
2, 93195, Note_on_c, 0, 43, 16
2, 93496, Note_on_c, 0, 55, 0
2, 93562, Note_on_c, 0, 43, 0
2, 93595, Note_on_c, 0, 31, 0
2, 94117, Note_on_c, 0, 55, 34
2, 94143, Note_on_c, 0, 31, 22
2, 94145, Note_on_c, 0, 43, 20
2, 94225, Note_on_c, 0, 55, 0
2, 94366, Note_on_c, 0, 55, 24
2, 94487, Note_on_c, 0, 55, 0
2, 94523, Note_on_c, 0, 43, 0
2, 94550, Note_on_c, 0, 31, 0
2, 95010, Note_on_c, 0, 55, 38
2, 95015, Note_on_c, 0, 43, 25
2, 95084, Note_on_c, 0, 55, 0
2, 95164, Note_on_c, 0, 43, 0
2, 95929, Note_on_c, 0, 67, 94
2, 96184, Note_on_c, 0, 67, 0
2, 96417, Note_on_c, 0, 59, 35
2, 96597, Note_on_c, 0, 59, 0
2, 96884, Note_on_c, 0, 62, 54
2, 97752, Note_on_c, 0, 62, 0
2, 97760, Note_on_c, 0, 60, 55
2, 97925, Note_on_c, 0, 60, 0
2, 97977, Note_on_c, 0, 59, 35
2, 98264, Note_on_c, 0, 59, 0
2, 98283, Note_on_c, 0, 55, 61
2, 98441, Note_on_c, 0, 55, 0
2, 98959, Note_on_c, 0, 55, 39
2, 99151, Note_on_c, 0, 55, 0
2, 100809, Note_on_c, 0, 62, 43
2, 100813, Note_on_c, 0, 57, 51
2, 100910, Note_on_c, 0, 57, 0
2, 100942, Note_on_c, 0, 62, 0
2, 101283, Note_on_c, 0, 53, 55
2, 101285, Note_on_c, 0, 64, 55
2, 101308, Note_on_c, 0, 59, 57
2, 101408, Note_on_c, 0, 53, 0
2, 101415, Note_on_c, 0, 64, 0
2, 101442, Note_on_c, 0, 59, 0
2, 101777, Note_on_c, 0, 55, 48
2, 101800, Note_on_c, 0, 65, 53
2, 101806, Note_on_c, 0, 60, 57
2, 102531, Note_on_c, 0, 65, 0
2, 102545, Note_on_c, 0, 55, 0
2, 102586, Note_on_c, 0, 60, 0
2, 102778, Note_on_c, 0, 64, 42
2, 102791, Note_on_c, 0, 59, 39
2, 102834, Note_on_c, 0, 53, 31
2, 103322, Note_on_c, 0, 59, 0
2, 103404, Note_on_c, 0, 64, 0
2, 103479, Note_on_c, 0, 53, 0
2, 103536, Note_on_c, 0, 71, 79
2, 103668, Note_on_c, 0, 71, 0
2, 103677, Note_on_c, 0, 62, 40
2, 103720, Note_on_c, 0, 57, 44
2, 103751, Note_on_c, 0, 74, 85
2, 103760, Note_on_c, 0, 52, 18
2, 103839, Note_on_c, 0, 52, 0
2, 103859, Note_on_c, 0, 62, 0
2, 103875, Note_on_c, 0, 57, 0
2, 103940, Note_on_c, 0, 74, 0
2, 104034, Note_on_c, 0, 72, 67
2, 104190, Note_on_c, 0, 72, 0
2, 104236, Note_on_c, 0, 71, 40
2, 104402, Note_on_c, 0, 71, 0
2, 104495, Note_on_c, 0, 67, 60
2, 104633, Note_on_c, 0, 67, 0
2, 104717, Note_on_c, 0, 64, 34
2, 104975, Note_on_c, 0, 64, 0
2, 105129, Note_on_c, 0, 64, 47
2, 105277, Note_on_c, 0, 64, 0
2, 105638, Note_on_c, 0, 61, 36
2, 105639, Note_on_c, 0, 55, 48
2, 105652, Note_on_c, 0, 65, 44
2, 105745, Note_on_c, 0, 65, 0
2, 105770, Note_on_c, 0, 55, 0
2, 105857, Note_on_c, 0, 61, 0
2, 106435, Note_on_c, 0, 65, 48
2, 106444, Note_on_c, 0, 61, 34
2, 106455, Note_on_c, 0, 55, 33
2, 106501, Note_on_c, 0, 65, 0
2, 106530, Note_on_c, 0, 55, 0
2, 106643, Note_on_c, 0, 61, 0
2, 106887, Note_on_c, 0, 76, 71
2, 107011, Note_on_c, 0, 76, 0
2, 107114, Note_on_c, 0, 79, 83
2, 107279, Note_on_c, 0, 79, 0
2, 107385, Note_on_c, 0, 77, 65
2, 107445, Note_on_c, 0, 60, 53
2, 107449, Note_on_c, 0, 50, 40
2, 107494, Note_on_c, 0, 60, 0
2, 107506, Note_on_c, 0, 57, 40
2, 107566, Note_on_c, 0, 77, 0
2, 107577, Note_on_c, 0, 50, 0
2, 107600, Note_on_c, 0, 73, 36
2, 107601, Note_on_c, 0, 57, 0
2, 107789, Note_on_c, 0, 73, 0
2, 107859, Note_on_c, 0, 76, 62
2, 108045, Note_on_c, 0, 76, 0
2, 108084, Note_on_c, 0, 74, 34
2, 108277, Note_on_c, 0, 74, 0
2, 108356, Note_on_c, 0, 69, 51
2, 108413, Note_on_c, 0, 69, 0
2, 108457, Note_on_c, 0, 60, 39
2, 108496, Note_on_c, 0, 57, 34
2, 108512, Note_on_c, 0, 60, 0
2, 108543, Note_on_c, 0, 72, 63
2, 108559, Note_on_c, 0, 57, 0
2, 108697, Note_on_c, 0, 72, 0
2, 108800, Note_on_c, 0, 74, 51
2, 108867, Note_on_c, 0, 72, 52
2, 108937, Note_on_c, 0, 74, 0
2, 109015, Note_on_c, 0, 72, 0
2, 109040, Note_on_c, 0, 69, 37
2, 109218, Note_on_c, 0, 69, 0
2, 109275, Note_on_c, 0, 70, 58
2, 109321, Note_on_c, 0, 65, 55
2, 109376, Note_on_c, 0, 65, 0
2, 109405, Note_on_c, 0, 70, 0
2, 109531, Note_on_c, 0, 71, 25
2, 109719, Note_on_c, 0, 71, 0
2, 109789, Note_on_c, 0, 83, 70
2, 109926, Note_on_c, 0, 83, 0
2, 110476, Note_on_c, 0, 64, 38
2, 110512, Note_on_c, 0, 59, 35
2, 110590, Note_on_c, 0, 64, 0
2, 110597, Note_on_c, 0, 59, 0
2, 112412, Note_on_c, 0, 60, 50
2, 112463, Note_on_c, 0, 60, 0
2, 113136, Note_on_c, 0, 65, 48
2, 113159, Note_on_c, 0, 60, 41
2, 113170, Note_on_c, 0, 55, 29
2, 113199, Note_on_c, 0, 65, 0
2, 113229, Note_on_c, 0, 60, 0
2, 113248, Note_on_c, 0, 55, 0
2, 113806, Note_on_c, 0, 65, 54
2, 113809, Note_on_c, 0, 56, 36
2, 113824, Note_on_c, 0, 61, 33
2, 113889, Note_on_c, 0, 65, 0
2, 113922, Note_on_c, 0, 61, 0
2, 113984, Note_on_c, 0, 56, 0
2, 114297, Note_on_c, 0, 91, 95
2, 114460, Note_on_c, 0, 91, 0
2, 114560, Note_on_c, 0, 89, 72
2, 114767, Note_on_c, 0, 89, 0
2, 114794, Note_on_c, 0, 84, 53
2, 114999, Note_on_c, 0, 84, 0
2, 115055, Note_on_c, 0, 80, 48
2, 115090, Note_on_c, 0, 61, 40
2, 115109, Note_on_c, 0, 65, 44
2, 115165, Note_on_c, 0, 65, 0
2, 115204, Note_on_c, 0, 80, 0
2, 115271, Note_on_c, 0, 79, 31
2, 115294, Note_on_c, 0, 61, 0
2, 115465, Note_on_c, 0, 79, 0
2, 115527, Note_on_c, 0, 87, 74
2, 115712, Note_on_c, 0, 87, 0
2, 116219, Note_on_c, 0, 65, 59
2, 116223, Note_on_c, 0, 61, 37
2, 116256, Note_on_c, 0, 56, 30
2, 116329, Note_on_c, 0, 65, 0
2, 116388, Note_on_c, 0, 56, 0
2, 116404, Note_on_c, 0, 61, 0
2, 117002, Note_on_c, 0, 61, 53
2, 117003, Note_on_c, 0, 65, 66
2, 117038, Note_on_c, 0, 56, 27
2, 117052, Note_on_c, 0, 65, 0
2, 117144, Note_on_c, 0, 61, 0
2, 117146, Note_on_c, 0, 56, 0
2, 117177, Note_on_c, 0, 86, 90
2, 117377, Note_on_c, 0, 86, 0
2, 117455, Note_on_c, 0, 87, 76
2, 117605, Note_on_c, 0, 87, 0
2, 117658, Note_on_c, 0, 88, 58
2, 117841, Note_on_c, 0, 88, 0
2, 117950, Note_on_c, 0, 89, 80
2, 117967, Note_on_c, 0, 61, 40
2, 117976, Note_on_c, 0, 65, 50
2, 118029, Note_on_c, 0, 65, 0
2, 118114, Note_on_c, 0, 89, 0
2, 118116, Note_on_c, 0, 61, 0
2, 118200, Note_on_c, 0, 82, 42
2, 118407, Note_on_c, 0, 82, 0
2, 118604, Note_on_c, 0, 82, 56
2, 118950, Note_on_c, 0, 82, 0
2, 118997, Note_on_c, 0, 61, 32
2, 119001, Note_on_c, 0, 65, 28
2, 119051, Note_on_c, 0, 65, 0
2, 119111, Note_on_c, 0, 61, 0
2, 119815, Note_on_c, 0, 65, 64
2, 119853, Note_on_c, 0, 61, 26
2, 119863, Note_on_c, 0, 65, 0
2, 119870, Note_on_c, 0, 56, 20
2, 119912, Note_on_c, 0, 61, 0
2, 119929, Note_on_c, 0, 56, 0
2, 120016, Note_on_c, 0, 79, 84
2, 120314, Note_on_c, 0, 80, 63
2, 120334, Note_on_c, 0, 61, 35
2, 120365, Note_on_c, 0, 79, 0
2, 120390, Note_on_c, 0, 61, 0
2, 120480, Note_on_c, 0, 80, 0
2, 120526, Note_on_c, 0, 82, 73
2, 120706, Note_on_c, 0, 82, 0
2, 120795, Note_on_c, 0, 79, 70
2, 120821, Note_on_c, 0, 61, 42
2, 120832, Note_on_c, 0, 65, 52
2, 120850, Note_on_c, 0, 56, 25
2, 120886, Note_on_c, 0, 65, 0
2, 120944, Note_on_c, 0, 79, 0
2, 120999, Note_on_c, 0, 61, 0
2, 121015, Note_on_c, 0, 56, 0
2, 121061, Note_on_c, 0, 75, 37
2, 121313, Note_on_c, 0, 75, 0
2, 121463, Note_on_c, 0, 75, 60
2, 121686, Note_on_c, 0, 75, 0
2, 121931, Note_on_c, 0, 77, 74
2, 122127, Note_on_c, 0, 77, 0
2, 122215, Note_on_c, 0, 75, 54
2, 122258, Note_on_c, 0, 59, 46
2, 122304, Note_on_c, 0, 64, 24
2, 122370, Note_on_c, 0, 53, 17
2, 122372, Note_on_c, 0, 75, 0
2, 122488, Note_on_c, 0, 71, 45
2, 122524, Note_on_c, 0, 64, 0
2, 122533, Note_on_c, 0, 59, 0
2, 122625, Note_on_c, 0, 53, 0
2, 122650, Note_on_c, 0, 71, 0
2, 122716, Note_on_c, 0, 74, 71
2, 122793, Note_on_c, 0, 62, 48
2, 122852, Note_on_c, 0, 62, 0
2, 122879, Note_on_c, 0, 52, 17
2, 122938, Note_on_c, 0, 74, 0
2, 122948, Note_on_c, 0, 72, 47
2, 122977, Note_on_c, 0, 52, 0
2, 123137, Note_on_c, 0, 72, 0
2, 123203, Note_on_c, 0, 67, 63
2, 123287, Note_on_c, 0, 55, 32
2, 123321, Note_on_c, 0, 54, 29
2, 123327, Note_on_c, 0, 67, 0
2, 123459, Note_on_c, 0, 54, 0
2, 123710, Note_on_c, 0, 64, 43
2, 123801, Note_on_c, 0, 64, 0
2, 123890, Note_on_c, 0, 66, 60
2, 124145, Note_on_c, 0, 66, 0
2, 124217, Note_on_c, 0, 55, 0
2, 124370, Note_on_c, 0, 62, 47
2, 124595, Note_on_c, 0, 62, 0
2, 124632, Note_on_c, 0, 66, 62
2, 124873, Note_on_c, 0, 64, 52
2, 124876, Note_on_c, 0, 66, 0
2, 125067, Note_on_c, 0, 64, 0
2, 125133, Note_on_c, 0, 59, 67
2, 125148, Note_on_c, 0, 43, 51
2, 125185, Note_on_c, 0, 42, 30
2, 125233, Note_on_c, 0, 42, 0
2, 125251, Note_on_c, 0, 59, 0
2, 125368, Note_on_c, 0, 54, 36
2, 125538, Note_on_c, 0, 54, 0
2, 125653, Note_on_c, 0, 52, 24
2, 125684, Note_on_c, 0, 42, 25
2, 125707, Note_on_c, 0, 52, 0
2, 125760, Note_on_c, 0, 42, 0
2, 125809, Note_on_c, 0, 43, 0
2, 125813, Note_on_c, 0, 57, 55
2, 126004, Note_on_c, 0, 57, 0
2, 126102, Note_on_c, 0, 52, 54
2, 126200, Note_on_c, 0, 52, 0
2, 126371, Note_on_c, 0, 53, 24
2, 126457, Note_on_c, 0, 53, 0
2, 126575, Note_on_c, 0, 54, 69
2, 126784, Note_on_c, 0, 54, 0
2, 126791, Note_on_c, 0, 55, 72
2, 127457, Note_on_c, 0, 55, 0
2, 127705, Note_on_c, 0, 55, 90
2, 127971, Note_on_c, 0, 55, 0
2, 128040, Note_on_c, 0, 57, 74
2, 128239, Note_on_c, 0, 55, 50
2, 128242, Note_on_c, 0, 57, 0
2, 128593, Note_on_c, 0, 55, 0
2, 129996, Note_on_c, 0, 59, 51
2, 130022, Note_on_c, 0, 53, 31
2, 130037, Note_on_c, 0, 64, 30
2, 130103, Note_on_c, 0, 64, 0
2, 130132, Note_on_c, 0, 59, 0
2, 130169, Note_on_c, 0, 53, 0
2, 130610, Note_on_c, 0, 62, 45
2, 130633, Note_on_c, 0, 57, 50
2, 130652, Note_on_c, 0, 52, 35
2, 131093, Note_on_c, 0, 67, 108
2, 131371, Note_on_c, 0, 67, 0
2, 131411, Note_on_c, 0, 66, 54
2, 131457, Note_on_c, 0, 70, 25
2, 131464, Note_on_c, 0, 62, 0
2, 131514, Note_on_c, 0, 70, 0
2, 131552, Note_on_c, 0, 66, 0
2, 131600, Note_on_c, 0, 67, 40
2, 131752, Note_on_c, 0, 57, 0
2, 131807, Note_on_c, 0, 67, 0
2, 131987, Note_on_c, 0, 74, 60
2, 131991, Note_on_c, 0, 72, 53
2, 132044, Note_on_c, 0, 74, 0
2, 132053, Note_on_c, 0, 72, 0
2, 132462, Note_on_c, 0, 57, 32
2, 132538, Note_on_c, 0, 57, 0
2, 132563, Note_on_c, 0, 67, 82
2, 132577, Note_on_c, 0, 52, 0
2, 132775, Note_on_c, 0, 67, 0
2, 132844, Note_on_c, 0, 66, 43
2, 132983, Note_on_c, 0, 66, 0
2, 133061, Note_on_c, 0, 67, 40
2, 133242, Note_on_c, 0, 67, 0
2, 133342, Note_on_c, 0, 76, 81
2, 133428, Note_on_c, 0, 57, 29
2, 133491, Note_on_c, 0, 57, 0
2, 133526, Note_on_c, 0, 76, 0
2, 133840, Note_on_c, 0, 57, 55
2, 133901, Note_on_c, 0, 57, 0
2, 133994, Note_on_c, 0, 67, 66
2, 134218, Note_on_c, 0, 67, 0
2, 134276, Note_on_c, 0, 66, 32
2, 134414, Note_on_c, 0, 66, 0
2, 134488, Note_on_c, 0, 67, 30
2, 134579, Note_on_c, 0, 67, 0
2, 134763, Note_on_c, 0, 81, 72
2, 134868, Note_on_c, 0, 81, 0
2, 135823, Note_on_c, 0, 67, 75
2, 135863, Note_on_c, 0, 70, 33
2, 135911, Note_on_c, 0, 70, 0
2, 136049, Note_on_c, 0, 67, 0
2, 136134, Note_on_c, 0, 66, 28
2, 136312, Note_on_c, 0, 66, 0
2, 136377, Note_on_c, 0, 67, 27
2, 136509, Note_on_c, 0, 67, 0
2, 136665, Note_on_c, 0, 65, 61
2, 136681, Note_on_c, 0, 61, 34
2, 136685, Note_on_c, 0, 84, 80
2, 136721, Note_on_c, 0, 55, 28
2, 136722, Note_on_c, 0, 58, 32
2, 137196, Note_on_c, 0, 84, 0
2, 137320, Note_on_c, 0, 65, 0
2, 137329, Note_on_c, 0, 82, 71
2, 137480, Note_on_c, 0, 55, 0
2, 137512, Note_on_c, 0, 82, 0
2, 137514, Note_on_c, 0, 61, 0
2, 137557, Note_on_c, 0, 58, 0
2, 137626, Note_on_c, 0, 81, 64
2, 137657, Note_on_c, 0, 55, 36
2, 137673, Note_on_c, 0, 61, 34
2, 137752, Note_on_c, 0, 55, 0
2, 137772, Note_on_c, 0, 81, 0
2, 137838, Note_on_c, 0, 79, 29
2, 137865, Note_on_c, 0, 61, 0
2, 138033, Note_on_c, 0, 79, 0
2, 138122, Note_on_c, 0, 76, 50
2, 138216, Note_on_c, 0, 76, 0
2, 138322, Note_on_c, 0, 77, 60
2, 138538, Note_on_c, 0, 77, 0
2, 138644, Note_on_c, 0, 73, 26
2, 138714, Note_on_c, 0, 73, 0
2, 138800, Note_on_c, 0, 76, 60
2, 139032, Note_on_c, 0, 76, 0
2, 139095, Note_on_c, 0, 73, 30
2, 139175, Note_on_c, 0, 73, 0
2, 139293, Note_on_c, 0, 74, 69
2, 139497, Note_on_c, 0, 74, 0
2, 139605, Note_on_c, 0, 69, 49
2, 139677, Note_on_c, 0, 69, 0
2, 140245, Note_on_c, 0, 65, 37
2, 140279, Note_on_c, 0, 60, 29
2, 140312, Note_on_c, 0, 65, 0
2, 140347, Note_on_c, 0, 60, 0
2, 141032, Note_on_c, 0, 65, 47
2, 141087, Note_on_c, 0, 65, 0
2, 141664, Note_on_c, 0, 79, 64
2, 141949, Note_on_c, 0, 80, 59
2, 141969, Note_on_c, 0, 79, 0
2, 141972, Note_on_c, 0, 61, 40
2, 141995, Note_on_c, 0, 65, 33
2, 142049, Note_on_c, 0, 65, 0
2, 142100, Note_on_c, 0, 80, 0
2, 142103, Note_on_c, 0, 61, 0
2, 142204, Note_on_c, 0, 84, 43
2, 142350, Note_on_c, 0, 84, 0
2, 142433, Note_on_c, 0, 87, 83
2, 142475, Note_on_c, 0, 61, 51
2, 142489, Note_on_c, 0, 65, 52
2, 142501, Note_on_c, 0, 56, 30
2, 142593, Note_on_c, 0, 87, 0
2, 142607, Note_on_c, 0, 55, 12
2, 142633, Note_on_c, 0, 65, 0
2, 142665, Note_on_c, 0, 84, 49
2, 142771, Note_on_c, 0, 55, 0
2, 142894, Note_on_c, 0, 84, 0
2, 142913, Note_on_c, 0, 80, 48
2, 143063, Note_on_c, 0, 55, 1
2, 143223, Note_on_c, 0, 55, 0
2, 143291, Note_on_c, 0, 61, 0
2, 143294, Note_on_c, 0, 56, 0
2, 143328, Note_on_c, 0, 80, 0
2, 143403, Note_on_c, 0, 61, 26
2, 143552, Note_on_c, 0, 61, 0
2, 144053, Note_on_c, 0, 59, 54
2, 144056, Note_on_c, 0, 64, 53
2, 144073, Note_on_c, 0, 53, 30
2, 144128, Note_on_c, 0, 64, 0
2, 144131, Note_on_c, 0, 53, 0
2, 144168, Note_on_c, 0, 59, 0
2, 144821, Note_on_c, 0, 63, 59
2, 144841, Note_on_c, 0, 53, 47
2, 144860, Note_on_c, 0, 58, 40
2, 144942, Note_on_c, 0, 53, 0
2, 144953, Note_on_c, 0, 63, 0
2, 144969, Note_on_c, 0, 58, 0
2, 145356, Note_on_c, 0, 86, 63
2, 145460, Note_on_c, 0, 86, 0
2, 145586, Note_on_c, 0, 87, 91
2, 145745, Note_on_c, 0, 87, 0
2, 145847, Note_on_c, 0, 89, 88
2, 145912, Note_on_c, 0, 53, 34
2, 145984, Note_on_c, 0, 53, 0
2, 146000, Note_on_c, 0, 89, 0
2, 146089, Note_on_c, 0, 87, 78
2, 146238, Note_on_c, 0, 87, 0
2, 146331, Note_on_c, 0, 86, 53
2, 146468, Note_on_c, 0, 86, 0
2, 146586, Note_on_c, 0, 82, 62
2, 146722, Note_on_c, 0, 82, 0
2, 146835, Note_on_c, 0, 84, 76
2, 147007, Note_on_c, 0, 84, 0
2, 147072, Note_on_c, 0, 82, 59
2, 147293, Note_on_c, 0, 80, 61
2, 147295, Note_on_c, 0, 82, 0
2, 147329, Note_on_c, 0, 63, 39
2, 147349, Note_on_c, 0, 58, 35
2, 147455, Note_on_c, 0, 80, 0
2, 147538, Note_on_c, 0, 79, 17
2, 147625, Note_on_c, 0, 53, 1
2, 147717, Note_on_c, 0, 79, 0
2, 147776, Note_on_c, 0, 53, 0
2, 147862, Note_on_c, 0, 80, 65
2, 147891, Note_on_c, 0, 63, 0
2, 147965, Note_on_c, 0, 80, 0
2, 147995, Note_on_c, 0, 58, 0
2, 148271, Note_on_c, 0, 64, 54
2, 148290, Note_on_c, 0, 54, 34
2, 148304, Note_on_c, 0, 59, 51
2, 148888, Note_on_c, 0, 79, 83
2, 149103, Note_on_c, 0, 79, 0
2, 149149, Note_on_c, 0, 78, 62
2, 149300, Note_on_c, 0, 78, 0
2, 149400, Note_on_c, 0, 77, 29
2, 149587, Note_on_c, 0, 77, 0
2, 149796, Note_on_c, 0, 59, 0
2, 149881, Note_on_c, 0, 64, 0
2, 149891, Note_on_c, 0, 54, 0
2, 150142, Note_on_c, 0, 65, 54
2, 150151, Note_on_c, 0, 55, 39
2, 150162, Note_on_c, 0, 60, 47
2, 150973, Note_on_c, 0, 60, 0
2, 151144, Note_on_c, 0, 60, 17
2, 151591, Note_on_c, 0, 76, 64
2, 151649, Note_on_c, 0, 65, 0
2, 151669, Note_on_c, 0, 76, 0
2, 151783, Note_on_c, 0, 79, 63
2, 152019, Note_on_c, 0, 78, 62
2, 152027, Note_on_c, 0, 79, 0
2, 152110, Note_on_c, 0, 60, 0
2, 152138, Note_on_c, 0, 78, 0
2, 152241, Note_on_c, 0, 77, 17
2, 152353, Note_on_c, 0, 77, 0
2, 152497, Note_on_c, 0, 75, 47
2, 152551, Note_on_c, 0, 75, 0
2, 152674, Note_on_c, 0, 55, 0
2, 152679, Note_on_c, 0, 77, 54
2, 152878, Note_on_c, 0, 77, 0
2, 152945, Note_on_c, 0, 75, 47
2, 153054, Note_on_c, 0, 75, 0
2, 153141, Note_on_c, 0, 76, 57
2, 153375, Note_on_c, 0, 76, 0
2, 153435, Note_on_c, 0, 72, 62
2, 153505, Note_on_c, 0, 58, 25
2, 153553, Note_on_c, 0, 72, 0
2, 153665, Note_on_c, 0, 58, 0
2, 153676, Note_on_c, 0, 67, 33
2, 153836, Note_on_c, 0, 67, 0
2, 153917, Note_on_c, 0, 65, 57
2, 154091, Note_on_c, 0, 65, 0
2, 154200, Note_on_c, 0, 64, 14
2, 154395, Note_on_c, 0, 64, 0
2, 154595, Note_on_c, 0, 64, 47
2, 154925, Note_on_c, 0, 64, 0
2, 155054, Note_on_c, 0, 65, 62
2, 155080, Note_on_c, 0, 52, 29
2, 155258, Note_on_c, 0, 65, 0
2, 155364, Note_on_c, 0, 52, 0
2, 155558, Note_on_c, 0, 67, 66
2, 155566, Note_on_c, 0, 57, 68
2, 155577, Note_on_c, 0, 62, 58
2, 155598, Note_on_c, 0, 52, 53
2, 155761, Note_on_c, 0, 67, 0
2, 155775, Note_on_c, 0, 57, 0
2, 155778, Note_on_c, 0, 62, 0
2, 155893, Note_on_c, 0, 52, 0
2, 156057, Note_on_c, 0, 66, 49
2, 156082, Note_on_c, 0, 56, 45
2, 156084, Note_on_c, 0, 61, 49
2, 156099, Note_on_c, 0, 51, 33
2, 156260, Note_on_c, 0, 56, 0
2, 156263, Note_on_c, 0, 66, 0
2, 156356, Note_on_c, 0, 61, 0
2, 156388, Note_on_c, 0, 57, 54
2, 156397, Note_on_c, 0, 67, 54
2, 156398, Note_on_c, 0, 62, 45
2, 156412, Note_on_c, 0, 52, 46
2, 156414, Note_on_c, 0, 51, 0
2, 157010, Control_c, 0, 64, 127
2, 157124, Note_on_c, 0, 52, 0
2, 157399, Note_on_c, 0, 57, 0
2, 157425, Note_on_c, 0, 62, 0
2, 157525, Note_on_c, 0, 67, 0
2, 157571, Control_c, 0, 64, 0
2, 157983, Note_on_c, 0, 45, 64
2, 158516, Note_on_c, 0, 45, 0
2, 158766, Note_on_c, 0, 72, 79
2, 158915, Note_on_c, 0, 72, 0
2, 159140, Note_on_c, 0, 71, 68
2, 159338, Note_on_c, 0, 71, 0
2, 159473, Note_on_c, 0, 69, 64
2, 159488, Note_on_c, 0, 54, 38
2, 159494, Note_on_c, 0, 60, 42
2, 160356, Control_c, 0, 64, 127
2, 160521, Note_on_c, 0, 69, 0
2, 160785, Note_on_c, 0, 60, 0
2, 161052, Note_on_c, 0, 54, 0
2, 161304, Note_on_c, 0, 78, 77
2, 161332, Control_c, 0, 64, 0
2, 161358, Note_on_c, 0, 59, 33
2, 161371, Note_on_c, 0, 64, 34
2, 161398, Note_on_c, 0, 54, 28
2, 161475, Note_on_c, 0, 78, 0
2, 161523, Note_on_c, 0, 79, 62
2, 161592, Note_on_c, 0, 81, 50
2, 161646, Note_on_c, 0, 79, 0
2, 161838, Note_on_c, 0, 81, 0
2, 162226, Note_on_c, 0, 78, 58
2, 162251, Note_on_c, 0, 64, 0
2, 162371, Note_on_c, 0, 78, 0
2, 162403, Note_on_c, 0, 59, 0
2, 162441, Note_on_c, 0, 54, 0
2, 162484, Note_on_c, 0, 74, 60
2, 162606, Note_on_c, 0, 74, 0
2, 162729, Note_on_c, 0, 71, 45
2, 162822, Note_on_c, 0, 71, 0
2, 163726, Note_on_c, 0, 64, 44
2, 163771, Note_on_c, 0, 59, 35
2, 163838, Note_on_c, 0, 64, 0
2, 163844, Note_on_c, 0, 59, 0
2, 164222, Note_on_c, 0, 66, 71
2, 164465, Note_on_c, 0, 66, 0
2, 164533, Note_on_c, 0, 62, 52
2, 164639, Note_on_c, 0, 54, 25
2, 164662, Note_on_c, 0, 62, 0
2, 164762, Note_on_c, 0, 63, 36
2, 164820, Note_on_c, 0, 54, 0
2, 164951, Note_on_c, 0, 63, 0
2, 165017, Note_on_c, 0, 64, 77
2, 165150, Note_on_c, 0, 64, 0
2, 165164, Note_on_c, 0, 53, 17
2, 165219, Note_on_c, 0, 65, 83
2, 165272, Note_on_c, 0, 53, 0
2, 165559, Note_on_c, 0, 65, 0
2, 165662, Note_on_c, 0, 62, 58
2, 165942, Note_on_c, 0, 62, 0
2, 165974, Note_on_c, 0, 58, 51
2, 166127, Note_on_c, 0, 58, 0
2, 166283, Note_on_c, 0, 55, 6
2, 166381, Note_on_c, 0, 55, 0
2, 167140, Note_on_c, 0, 52, 46
2, 167157, Note_on_c, 0, 58, 36
2, 167197, Note_on_c, 0, 52, 0
2, 167332, Note_on_c, 0, 58, 0
2, 167897, Note_on_c, 0, 52, 32
2, 167960, Note_on_c, 0, 52, 0
2, 168082, Note_on_c, 0, 75, 68
2, 168228, Note_on_c, 0, 73, 34
2, 168285, Note_on_c, 0, 75, 0
2, 168366, Note_on_c, 0, 68, 59
2, 168469, Note_on_c, 0, 73, 0
2, 168601, Note_on_c, 0, 64, 39
2, 168604, Note_on_c, 0, 68, 0
2, 168761, Note_on_c, 0, 64, 0
2, 169316, Note_on_c, 0, 73, 49
2, 169330, Note_on_c, 0, 58, 57
2, 169394, Note_on_c, 0, 68, 31
2, 169451, Note_on_c, 0, 68, 0
2, 169477, Note_on_c, 0, 73, 0
2, 169511, Note_on_c, 0, 58, 0
2, 169517, Note_on_c, 0, 72, 40
2, 169558, Note_on_c, 0, 57, 49
2, 169634, Note_on_c, 0, 72, 0
2, 169757, Note_on_c, 0, 57, 0
2, 170456, Note_on_c, 0, 57, 62
2, 170459, Note_on_c, 0, 60, 67
2, 170460, Note_on_c, 0, 69, 57
2, 170471, Note_on_c, 0, 64, 60
2, 170565, Note_on_c, 0, 69, 0
2, 170576, Note_on_c, 0, 60, 0
2, 170596, Note_on_c, 0, 57, 0
2, 170635, Note_on_c, 0, 64, 0
2, 170920, Note_on_c, 0, 53, 34
2, 170980, Note_on_c, 0, 53, 0
2, 171402, Note_on_c, 0, 58, 70
2, 171411, Note_on_c, 0, 68, 55
2, 171427, Note_on_c, 0, 60, 68
2, 171428, Note_on_c, 0, 63, 46
2, 171435, Note_on_c, 0, 66, 34
2, 171479, Note_on_c, 0, 63, 0
2, 171517, Note_on_c, 0, 60, 0
2, 171551, Note_on_c, 0, 66, 0
2, 171560, Note_on_c, 0, 58, 0
2, 171573, Note_on_c, 0, 68, 0
2, 171743, Note_on_c, 0, 56, 42
2, 171876, Note_on_c, 0, 56, 0
2, 171988, Note_on_c, 0, 62, 44
2, 171991, Note_on_c, 0, 56, 55
2, 171992, Note_on_c, 0, 70, 46
2, 172005, Note_on_c, 0, 65, 60
2, 172014, Note_on_c, 0, 67, 43
2, 172270, Note_on_c, 0, 56, 0
2, 172273, Note_on_c, 0, 62, 0
2, 172292, Note_on_c, 0, 65, 0
2, 172304, Note_on_c, 0, 67, 0
2, 172307, Note_on_c, 0, 70, 0
2, 172401, Note_on_c, 0, 54, 32
2, 172693, Note_on_c, 0, 67, 59
2, 172705, Note_on_c, 0, 62, 59
2, 172718, Note_on_c, 0, 57, 55
2, 172724, Note_on_c, 0, 54, 0
2, 172753, Note_on_c, 0, 55, 51
2, 173281, Control_c, 0, 64, 127
2, 173467, Note_on_c, 0, 57, 0
2, 173579, Note_on_c, 0, 55, 0
2, 173632, Note_on_c, 0, 67, 0
2, 173646, Note_on_c, 0, 62, 0
2, 174329, Control_c, 0, 64, 0
2, 174334, Note_on_c, 0, 74, 83
2, 174346, Note_on_c, 0, 67, 80
2, 174349, Note_on_c, 0, 64, 87
2, 174351, Note_on_c, 0, 59, 80
2, 174354, Note_on_c, 0, 71, 66
2, 174718, Control_c, 0, 64, 127
2, 174922, Note_on_c, 0, 74, 0
2, 174939, Note_on_c, 0, 71, 0
2, 174953, Note_on_c, 0, 64, 0
2, 174961, Note_on_c, 0, 67, 0
2, 175104, Control_c, 0, 64, 0
2, 175116, Note_on_c, 0, 72, 68
2, 175120, Note_on_c, 0, 57, 71
2, 175125, Note_on_c, 0, 64, 70
2, 175127, Note_on_c, 0, 67, 58
2, 175142, Note_on_c, 0, 59, 0
2, 175349, Control_c, 0, 64, 127
2, 175439, Note_on_c, 0, 72, 0
2, 175448, Note_on_c, 0, 67, 0
2, 175538, Note_on_c, 0, 64, 0
2, 175780, Control_c, 0, 64, 0
2, 175801, Note_on_c, 0, 68, 62
2, 175810, Note_on_c, 0, 62, 63
2, 175815, Note_on_c, 0, 56, 52
2, 175817, Note_on_c, 0, 71, 59
2, 175867, Note_on_c, 0, 57, 0
2, 176088, Note_on_c, 0, 62, 0
2, 176148, Note_on_c, 0, 71, 0
2, 176153, Note_on_c, 0, 68, 0
2, 176231, Note_on_c, 0, 56, 0
2, 176250, Note_on_c, 0, 55, 60
2, 176251, Note_on_c, 0, 69, 58
2, 176278, Note_on_c, 0, 62, 40
2, 176282, Control_c, 0, 64, 127
2, 176387, Note_on_c, 0, 62, 0
2, 176404, Note_on_c, 0, 55, 0
2, 176414, Note_on_c, 0, 69, 0
2, 176722, Note_on_c, 0, 67, 67
2, 176732, Note_on_c, 0, 62, 69
2, 176741, Control_c, 0, 64, 0
2, 176746, Note_on_c, 0, 52, 69
2, 176757, Note_on_c, 0, 58, 50
2, 177072, Control_c, 0, 64, 127
2, 177345, Note_on_c, 0, 62, 0
2, 177345, Control_c, 0, 64, 0
2, 177448, Note_on_c, 0, 67, 0
2, 177571, Note_on_c, 0, 62, 66
2, 177686, Note_on_c, 0, 62, 0
2, 177763, Note_on_c, 0, 52, 0
2, 177823, Note_on_c, 0, 67, 71
2, 177828, Note_on_c, 0, 58, 0
2, 177983, Note_on_c, 0, 67, 0
2, 178063, Note_on_c, 0, 70, 72
2, 178143, Note_on_c, 0, 70, 0
2, 178276, Note_on_c, 0, 72, 68
2, 178459, Note_on_c, 0, 72, 0
2, 178559, Note_on_c, 0, 74, 40
2, 178621, Note_on_c, 0, 74, 0
2, 178719, Note_on_c, 0, 77, 55
2, 178905, Note_on_c, 0, 77, 0
2, 178957, Note_on_c, 0, 82, 64
2, 179117, Note_on_c, 0, 82, 0
2, 179264, Note_on_c, 0, 84, 44
2, 179363, Note_on_c, 0, 84, 0
2, 179444, Note_on_c, 0, 85, 83
2, 179499, Note_on_c, 0, 66, 50
2, 179519, Note_on_c, 0, 61, 47
2, 179583, Note_on_c, 0, 55, 35
2, 179626, Note_on_c, 0, 85, 0
2, 179653, Note_on_c, 0, 84, 40
2, 179924, Note_on_c, 0, 84, 0
2, 179962, Note_on_c, 0, 82, 59
2, 180100, Note_on_c, 0, 82, 0
2, 180255, Note_on_c, 0, 81, 15
2, 180384, Note_on_c, 0, 81, 0
2, 180440, Note_on_c, 0, 66, 0
2, 180607, Note_on_c, 0, 81, 64
2, 180681, Note_on_c, 0, 55, 0
2, 180753, Note_on_c, 0, 81, 0
2, 181048, Note_on_c, 0, 81, 71
2, 181211, Note_on_c, 0, 81, 0
2, 181334, Note_on_c, 0, 81, 58
2, 181434, Note_on_c, 0, 61, 0
2, 181455, Note_on_c, 0, 81, 0
2, 181515, Note_on_c, 0, 81, 36
2, 181715, Note_on_c, 0, 81, 0
2, 182002, Note_on_c, 0, 81, 75
2, 182142, Note_on_c, 0, 81, 0
2, 182277, Note_on_c, 0, 81, 51
2, 182356, Note_on_c, 0, 81, 0
2, 182476, Note_on_c, 0, 81, 50
2, 182582, Note_on_c, 0, 81, 0
2, 182768, Note_on_c, 0, 91, 68
2, 182797, Note_on_c, 0, 64, 51
2, 182823, Note_on_c, 0, 59, 38
2, 182875, Note_on_c, 0, 91, 0
2, 182878, Note_on_c, 0, 64, 0
2, 182895, Note_on_c, 0, 59, 0
2, 183450, Note_on_c, 0, 64, 49
2, 183468, Note_on_c, 0, 91, 62
2, 183471, Note_on_c, 0, 59, 40
2, 183474, Note_on_c, 0, 79, 54
2, 183485, Note_on_c, 0, 53, 29
2, 183522, Note_on_c, 0, 91, 0
2, 183562, Note_on_c, 0, 79, 0
2, 183580, Note_on_c, 0, 53, 0
2, 183631, Note_on_c, 0, 64, 0
2, 183653, Note_on_c, 0, 59, 0
2, 184372, Note_on_c, 0, 84, 69
2, 184485, Note_on_c, 0, 84, 0
2, 184684, Note_on_c, 0, 55, 74
2, 185758, Note_on_c, 0, 43, 60
2, 186131, Note_on_c, 0, 55, 0
2, 186604, Note_on_c, 0, 68, 49
2, 186618, Note_on_c, 0, 65, 55
2, 186624, Note_on_c, 0, 63, 42
2, 186627, Note_on_c, 0, 59, 45
2, 186630, Note_on_c, 0, 53, 44
2, 187116, Note_on_c, 0, 68, 0
2, 187120, Note_on_c, 0, 59, 0
2, 187148, Note_on_c, 0, 53, 0
2, 187164, Note_on_c, 0, 63, 0
2, 187211, Note_on_c, 0, 65, 0
2, 187260, Note_on_c, 0, 63, 53
2, 187268, Note_on_c, 0, 65, 22
2, 187269, Note_on_c, 0, 53, 44
2, 187270, Note_on_c, 0, 59, 38
2, 187282, Note_on_c, 0, 70, 57
2, 187369, Control_c, 0, 64, 127
2, 187641, Note_on_c, 0, 70, 0
2, 187655, Note_on_c, 0, 65, 0
2, 187758, Note_on_c, 0, 59, 0
2, 187899, Note_on_c, 0, 53, 0
2, 187939, Note_on_c, 0, 63, 0
2, 188044, Note_on_c, 0, 50, 24
2, 188128, Note_on_c, 0, 50, 0
2, 188201, Note_on_c, 0, 52, 39
2, 188219, Note_on_c, 0, 62, 53
2, 188222, Note_on_c, 0, 67, 48
2, 188230, Control_c, 0, 64, 0
2, 188231, Note_on_c, 0, 57, 47
2, 188300, Note_on_c, 0, 43, 0
2, 188310, Note_on_c, 0, 57, 0
2, 188351, Note_on_c, 0, 62, 0
2, 188354, Note_on_c, 0, 67, 0
2, 188451, Note_on_c, 0, 52, 0
2, 188706, Note_on_c, 0, 67, 64
2, 188904, Note_on_c, 0, 67, 0
2, 189003, Note_on_c, 0, 65, 44
2, 189089, Note_on_c, 0, 65, 0
2, 189190, Note_on_c, 0, 67, 50
2, 189713, Note_on_c, 0, 55, 53
2, 189746, Note_on_c, 0, 67, 0
2, 191541, Note_on_c, 0, 55, 0
2, 191913, Note_on_c, 0, 52, 32
2, 191936, Note_on_c, 0, 50, 35
2, 191977, Note_on_c, 0, 52, 0
2, 191993, Note_on_c, 0, 50, 0
2, 192099, Note_on_c, 0, 67, 94
2, 192275, Note_on_c, 0, 67, 0
2, 192403, Note_on_c, 0, 66, 44
2, 192484, Note_on_c, 0, 66, 0
2, 192600, Note_on_c, 0, 67, 51
2, 192752, Note_on_c, 0, 67, 0
2, 192847, Note_on_c, 0, 66, 62
2, 193091, Note_on_c, 0, 62, 52
2, 193210, Note_on_c, 0, 66, 0
2, 193246, Note_on_c, 0, 62, 0
2, 193343, Note_on_c, 0, 59, 49
2, 193417, Note_on_c, 0, 59, 0
2, 193521, Note_on_c, 0, 54, 40
2, 193776, Note_on_c, 0, 54, 0
2, 193833, Note_on_c, 0, 52, 27
2, 193896, Note_on_c, 0, 52, 0
2, 193993, Note_on_c, 0, 57, 58
2, 194715, Note_on_c, 0, 50, 49
2, 194744, Note_on_c, 0, 57, 0
2, 194767, Note_on_c, 0, 50, 0
2, 194809, Note_on_c, 0, 52, 56
2, 194960, Note_on_c, 0, 52, 0
2, 195044, Note_on_c, 0, 54, 35
2, 195208, Note_on_c, 0, 54, 0
2, 195270, Note_on_c, 0, 55, 54
2, 195417, Note_on_c, 0, 55, 0
2, 195480, Note_on_c, 0, 56, 31
2, 195679, Note_on_c, 0, 56, 0
2, 195749, Note_on_c, 0, 57, 44
2, 195923, Note_on_c, 0, 57, 0
2, 196874, Note_on_c, 0, 62, 85
2, 197143, Note_on_c, 0, 62, 0
2, 197230, Note_on_c, 0, 59, 32
2, 197335, Note_on_c, 0, 59, 0
2, 197487, Note_on_c, 0, 60, 31
2, 197707, Note_on_c, 0, 60, 0
2, 197718, Note_on_c, 0, 62, 61
2, 197903, Note_on_c, 0, 62, 0
2, 197967, Note_on_c, 0, 63, 39
2, 198097, Note_on_c, 0, 63, 0
2, 198715, Note_on_c, 0, 64, 54
2, 198732, Note_on_c, 0, 60, 47
2, 198768, Note_on_c, 0, 54, 23
2, 198844, Note_on_c, 0, 64, 0
2, 198861, Note_on_c, 0, 60, 0
2, 198976, Note_on_c, 0, 54, 0
2, 199305, Note_on_c, 0, 63, 53
2, 199334, Note_on_c, 0, 53, 40
2, 199445, Note_on_c, 0, 53, 0
2, 199509, Note_on_c, 0, 63, 0
2, 200118, Note_on_c, 0, 64, 44
2, 200144, Note_on_c, 0, 56, 36
2, 200165, Note_on_c, 0, 60, 32
2, 200216, Note_on_c, 0, 64, 0
2, 200231, Note_on_c, 0, 60, 0
2, 200323, Note_on_c, 0, 56, 0
2, 200704, Note_on_c, 0, 64, 50
2, 200717, Note_on_c, 0, 56, 35
2, 200724, Note_on_c, 0, 53, 39
2, 200728, Note_on_c, 0, 60, 49
2, 200809, Note_on_c, 0, 60, 0
2, 200810, Note_on_c, 0, 64, 0
2, 200811, Note_on_c, 0, 53, 0
2, 200937, Note_on_c, 0, 56, 0
2, 201474, Note_on_c, 0, 58, 39
2, 201523, Note_on_c, 0, 58, 0
2, 201695, Note_on_c, 0, 72, 46
2, 201881, Note_on_c, 0, 72, 0
2, 201947, Note_on_c, 0, 53, 57
2, 201952, Note_on_c, 0, 64, 65
2, 201955, Note_on_c, 0, 59, 51
2, 202639, Note_on_c, 0, 79, 80
2, 202644, Note_on_c, 0, 67, 77
2, 202882, Note_on_c, 0, 67, 0
2, 202902, Note_on_c, 0, 79, 0
2, 202952, Note_on_c, 0, 77, 62
2, 203164, Note_on_c, 0, 77, 0
2, 203383, Note_on_c, 0, 59, 0
2, 203406, Note_on_c, 0, 64, 0
2, 203513, Note_on_c, 0, 53, 0
2, 203900, Note_on_c, 0, 64, 46
2, 203927, Note_on_c, 0, 60, 38
2, 203953, Note_on_c, 0, 53, 28
2, 203960, Note_on_c, 0, 56, 25
2, 204241, Note_on_c, 0, 56, 0
2, 204245, Note_on_c, 0, 64, 0
2, 204246, Note_on_c, 0, 53, 0
2, 204251, Note_on_c, 0, 60, 0
2, 205517, Note_on_c, 0, 65, 52
2, 205523, Note_on_c, 0, 56, 38
2, 205524, Note_on_c, 0, 55, 33
2, 205531, Note_on_c, 0, 60, 57
2, 206316, Note_on_c, 0, 84, 92
2, 206480, Note_on_c, 0, 84, 0
2, 206559, Note_on_c, 0, 82, 71
2, 206804, Note_on_c, 0, 82, 0
2, 207125, Note_on_c, 0, 65, 0
2, 207128, Note_on_c, 0, 55, 0
2, 207135, Note_on_c, 0, 60, 0
2, 207176, Note_on_c, 0, 56, 0
2, 207336, Note_on_c, 0, 65, 53
2, 207337, Note_on_c, 0, 60, 45
2, 207342, Note_on_c, 0, 56, 33
2, 207365, Note_on_c, 0, 55, 35
2, 208421, Note_on_c, 0, 84, 88
2, 208668, Note_on_c, 0, 84, 0
2, 208716, Note_on_c, 0, 82, 68
2, 208909, Note_on_c, 0, 82, 0
2, 208957, Note_on_c, 0, 80, 38
2, 209140, Note_on_c, 0, 80, 0
2, 209204, Note_on_c, 0, 83, 71
2, 209221, Note_on_c, 0, 65, 0
2, 209266, Note_on_c, 0, 60, 0
2, 209375, Note_on_c, 0, 55, 0
2, 209404, Note_on_c, 0, 83, 0
2, 209427, Note_on_c, 0, 82, 46
2, 209515, Note_on_c, 0, 56, 0
2, 209679, Note_on_c, 0, 80, 67
2, 209728, Note_on_c, 0, 64, 39
2, 209740, Note_on_c, 0, 59, 45
2, 209742, Note_on_c, 0, 54, 29
2, 209747, Note_on_c, 0, 82, 0
2, 209868, Note_on_c, 0, 80, 0
2, 209945, Note_on_c, 0, 76, 22
2, 210132, Note_on_c, 0, 76, 0
2, 210351, Note_on_c, 0, 80, 73
2, 210589, Note_on_c, 0, 80, 0
2, 210641, Note_on_c, 0, 78, 60
2, 210804, Note_on_c, 0, 78, 0
2, 210939, Note_on_c, 0, 76, 17
2, 211033, Note_on_c, 0, 76, 0
2, 211125, Note_on_c, 0, 73, 36
2, 211205, Note_on_c, 0, 73, 0
2, 211323, Note_on_c, 0, 76, 79
2, 211570, Note_on_c, 0, 76, 0
2, 211584, Note_on_c, 0, 73, 52
2, 211726, Note_on_c, 0, 64, 0
2, 211743, Note_on_c, 0, 73, 0
2, 211841, Note_on_c, 0, 71, 36
2, 211995, Note_on_c, 0, 71, 0
2, 212070, Note_on_c, 0, 73, 49
2, 212119, Note_on_c, 0, 59, 0
2, 212159, Note_on_c, 0, 54, 0
2, 212203, Note_on_c, 0, 73, 0
2, 212306, Note_on_c, 0, 71, 55
2, 212488, Note_on_c, 0, 71, 0
2, 212568, Note_on_c, 0, 63, 54
2, 212591, Note_on_c, 0, 53, 43
2, 212603, Note_on_c, 0, 58, 39
2, 212998, Note_on_c, 0, 66, 38
2, 213006, Note_on_c, 0, 53, 0
2, 213075, Note_on_c, 0, 63, 0
2, 213147, Note_on_c, 0, 66, 0
2, 213236, Note_on_c, 0, 62, 44
2, 213239, Note_on_c, 0, 58, 0
2, 213245, Note_on_c, 0, 74, 74
2, 213297, Note_on_c, 0, 52, 33
2, 213311, Note_on_c, 0, 57, 33
2, 213404, Note_on_c, 0, 62, 0
2, 213428, Note_on_c, 0, 74, 0
2, 213482, Note_on_c, 0, 73, 49
2, 213485, Note_on_c, 0, 57, 0
2, 213637, Note_on_c, 0, 73, 0
2, 213656, Note_on_c, 0, 52, 0
2, 213929, Note_on_c, 0, 70, 71
2, 213950, Note_on_c, 0, 54, 60
2, 213997, Note_on_c, 0, 55, 60
2, 214049, Note_on_c, 0, 70, 0
2, 214120, Note_on_c, 0, 71, 48
2, 214121, Note_on_c, 0, 54, 0
2, 214328, Note_on_c, 0, 71, 0
2, 214413, Note_on_c, 0, 67, 66
2, 214501, Note_on_c, 0, 43, 24
2, 214525, Note_on_c, 0, 67, 0
2, 214539, Note_on_c, 0, 55, 0
2, 214640, Note_on_c, 0, 64, 29
2, 214751, Note_on_c, 0, 64, 0
2, 214951, Note_on_c, 0, 50, 48
2, 215052, Note_on_c, 0, 50, 0
2, 215098, Note_on_c, 0, 67, 46
2, 215129, Note_on_c, 0, 52, 40
2, 215130, Note_on_c, 0, 62, 51
2, 215151, Note_on_c, 0, 57, 24
2, 215232, Note_on_c, 0, 67, 0
2, 215313, Note_on_c, 0, 57, 0
2, 215315, Note_on_c, 0, 62, 0
2, 215531, Note_on_c, 0, 52, 0
2, 215565, Note_on_c, 0, 66, 46
2, 215576, Note_on_c, 0, 56, 42
2, 215579, Note_on_c, 0, 61, 46
2, 215605, Note_on_c, 0, 51, 26
2, 215764, Note_on_c, 0, 66, 0
2, 215796, Note_on_c, 0, 56, 0
2, 215817, Note_on_c, 0, 61, 0
2, 215860, Note_on_c, 0, 67, 67
2, 215885, Note_on_c, 0, 51, 0
2, 215896, Note_on_c, 0, 62, 47
2, 215908, Note_on_c, 0, 52, 49
2, 215959, Note_on_c, 0, 62, 0
2, 215971, Note_on_c, 0, 43, 0
2, 216009, Note_on_c, 0, 67, 0
2, 216063, Note_on_c, 0, 52, 0
2, 216082, Note_on_c, 0, 43, 58
2, 216470, Note_on_c, 0, 55, 47
2, 216478, Note_on_c, 0, 60, 38
2, 216533, Note_on_c, 0, 64, 20
2, 216827, Note_on_c, 0, 43, 0
2, 216991, Note_on_c, 0, 43, 44
2, 217454, Note_on_c, 0, 60, 0
2, 217495, Note_on_c, 0, 55, 0
2, 217706, Note_on_c, 0, 64, 0
2, 217769, Note_on_c, 0, 58, 57
2, 217773, Note_on_c, 0, 55, 53
2, 217795, Note_on_c, 0, 53, 44
2, 217798, Control_c, 0, 64, 127
2, 217893, Note_on_c, 0, 55, 0
2, 218077, Note_on_c, 0, 58, 0
2, 218180, Note_on_c, 0, 53, 0
2, 218200, Control_c, 0, 64, 0
2, 218280, Note_on_c, 0, 50, 51
2, 218372, Control_c, 0, 64, 127
2, 218715, Note_on_c, 0, 50, 0
2, 218846, Control_c, 0, 64, 0
2, 218904, Note_on_c, 0, 52, 39
2, 219205, Control_c, 0, 64, 127
2, 219304, Note_on_c, 0, 43, 0
2, 219385, Note_on_c, 0, 52, 0
2, 220854, Note_on_c, 0, 50, 54
2, 220857, Note_on_c, 0, 55, 62
2, 220865, Note_on_c, 0, 86, 68
2, 220869, Note_on_c, 0, 74, 59
2, 220872, Note_on_c, 0, 60, 55
2, 220883, Note_on_c, 0, 81, 57
2, 220985, Control_c, 0, 64, 0
2, 221077, Note_on_c, 0, 55, 0
2, 221098, Note_on_c, 0, 50, 0
2, 221131, Note_on_c, 0, 60, 0
2, 221141, Note_on_c, 0, 74, 0
2, 221187, Control_c, 0, 64, 127
2, 221189, Note_on_c, 0, 81, 0
2, 221216, Note_on_c, 0, 86, 0
2, 221830, Note_on_c, 0, 96, 90
2, 221839, Note_on_c, 0, 84, 80
2, 221853, Note_on_c, 0, 60, 68
2, 221857, Note_on_c, 0, 65, 78
2, 221862, Note_on_c, 0, 55, 70
2, 221876, Control_c, 0, 64, 0
2, 221885, Note_on_c, 0, 57, 47
2, 222091, Control_c, 0, 64, 127
2, 222163, Note_on_c, 0, 65, 0
2, 222177, Note_on_c, 0, 60, 0
2, 222188, Note_on_c, 0, 96, 0
2, 222204, Note_on_c, 0, 57, 0
2, 222251, Note_on_c, 0, 55, 0
2, 222317, Note_on_c, 0, 84, 0
2, 222738, Control_c, 0, 64, 0
2, 222794, Note_on_c, 0, 83, 48
2, 222796, Note_on_c, 0, 62, 56
2, 222798, Note_on_c, 0, 95, 64
2, 222799, Note_on_c, 0, 57, 50
2, 222811, Note_on_c, 0, 52, 53
2, 222818, Note_on_c, 0, 91, 41
2, 222821, Note_on_c, 0, 88, 48
2, 223025, Control_c, 0, 64, 127
2, 223139, Note_on_c, 0, 95, 0
2, 223151, Note_on_c, 0, 91, 0
2, 223171, Note_on_c, 0, 88, 0
2, 223260, Note_on_c, 0, 83, 0
2, 223262, Note_on_c, 0, 52, 0
2, 223300, Note_on_c, 0, 62, 0
2, 223315, Note_on_c, 0, 57, 0
2, 223537, Note_on_c, 0, 91, 51
2, 223541, Control_c, 0, 64, 0
2, 223550, Note_on_c, 0, 79, 38
2, 223563, Note_on_c, 0, 86, 51
2, 223574, Note_on_c, 0, 62, 54
2, 223589, Note_on_c, 0, 57, 50
2, 223592, Note_on_c, 0, 52, 46
2, 223758, Control_c, 0, 64, 127
2, 224097, Note_on_c, 0, 52, 0
2, 224102, Note_on_c, 0, 57, 0
2, 224131, Note_on_c, 0, 62, 0
2, 224245, Note_on_c, 0, 91, 0
2, 224332, Note_on_c, 0, 86, 0
2, 224409, Note_on_c, 0, 79, 0
2, 225566, Control_c, 0, 64, 0
2, 225663, Note_on_c, 0, 61, 59
2, 225665, Note_on_c, 0, 77, 74
2, 225668, Note_on_c, 0, 65, 77
2, 225672, Note_on_c, 0, 82, 67
2, 225678, Note_on_c, 0, 55, 61
2, 225680, Note_on_c, 0, 58, 46
2, 225681, Note_on_c, 0, 85, 60
2, 225683, Note_on_c, 0, 89, 60
2, 225720, Note_on_c, 0, 65, 0
2, 225729, Note_on_c, 0, 55, 0
2, 225735, Note_on_c, 0, 77, 0
2, 225738, Note_on_c, 0, 89, 0
2, 225740, Note_on_c, 0, 85, 0
2, 225741, Note_on_c, 0, 82, 0
2, 225764, Note_on_c, 0, 58, 0
2, 225774, Note_on_c, 0, 61, 0
2, 226133, Note_on_c, 0, 61, 54
2, 226142, Note_on_c, 0, 77, 66
2, 226147, Note_on_c, 0, 89, 68
2, 226149, Note_on_c, 0, 55, 63
2, 226155, Note_on_c, 0, 65, 60
2, 226156, Note_on_c, 0, 85, 53
2, 226165, Note_on_c, 0, 58, 37
2, 226202, Note_on_c, 0, 65, 0
2, 226209, Note_on_c, 0, 55, 0
2, 226258, Note_on_c, 0, 61, 0
2, 226259, Note_on_c, 0, 89, 0
2, 226275, Note_on_c, 0, 85, 0
2, 226290, Note_on_c, 0, 58, 0
2, 226302, Note_on_c, 0, 77, 0
2, 226625, Note_on_c, 0, 76, 54
2, 226627, Note_on_c, 0, 88, 64
2, 226628, Note_on_c, 0, 62, 62
2, 226640, Note_on_c, 0, 52, 53
2, 226648, Note_on_c, 0, 57, 52
2, 226650, Note_on_c, 0, 83, 48
2, 226866, Control_c, 0, 64, 127
2, 226935, Note_on_c, 0, 88, 0
2, 226972, Note_on_c, 0, 83, 0
2, 227081, Note_on_c, 0, 76, 0
2, 227193, Note_on_c, 0, 52, 0
2, 227226, Note_on_c, 0, 62, 0
2, 227229, Note_on_c, 0, 57, 0
2, 227512, Control_c, 0, 64, 0
2, 227565, Note_on_c, 0, 84, 56
2, 227588, Note_on_c, 0, 79, 40
2, 227590, Note_on_c, 0, 72, 42
2, 227593, Note_on_c, 0, 62, 58
2, 227605, Note_on_c, 0, 57, 46
2, 227608, Note_on_c, 0, 52, 46
2, 227773, Note_on_c, 0, 52, 0
2, 227807, Note_on_c, 0, 57, 0
2, 227829, Control_c, 0, 64, 127
2, 227840, Note_on_c, 0, 84, 0
2, 227869, Note_on_c, 0, 62, 0
2, 227877, Note_on_c, 0, 72, 0
2, 227913, Note_on_c, 0, 79, 0
2, 228507, Note_on_c, 0, 55, 60
2, 228513, Note_on_c, 0, 66, 49
2, 228523, Note_on_c, 0, 61, 38
2, 228532, Note_on_c, 0, 82, 64
2, 228541, Note_on_c, 0, 78, 55
2, 228542, Note_on_c, 0, 70, 62
2, 228546, Control_c, 0, 64, 0
2, 228776, Control_c, 0, 64, 127
2, 228838, Note_on_c, 0, 70, 0
2, 228891, Note_on_c, 0, 82, 0
2, 228894, Note_on_c, 0, 55, 0
2, 228911, Note_on_c, 0, 78, 0
2, 228933, Note_on_c, 0, 66, 0
2, 229080, Note_on_c, 0, 61, 0
2, 229466, Control_c, 0, 64, 0
2, 229467, Note_on_c, 0, 65, 69
2, 229470, Note_on_c, 0, 55, 62
2, 229472, Note_on_c, 0, 61, 47
2, 229487, Note_on_c, 0, 88, 76
2, 229494, Note_on_c, 0, 82, 60
2, 229497, Note_on_c, 0, 76, 51
2, 229767, Control_c, 0, 64, 127
2, 229918, Note_on_c, 0, 88, 0
2, 229973, Note_on_c, 0, 65, 0
2, 229985, Note_on_c, 0, 55, 0
2, 230016, Note_on_c, 0, 76, 0
2, 230059, Note_on_c, 0, 82, 0
2, 230079, Note_on_c, 0, 61, 0
2, 230399, Control_c, 0, 64, 0
2, 230442, Note_on_c, 0, 64, 50
2, 230445, Note_on_c, 0, 53, 31
2, 230455, Note_on_c, 0, 60, 38
2, 230458, Note_on_c, 0, 74, 51
2, 230461, Note_on_c, 0, 86, 55
2, 230474, Note_on_c, 0, 81, 47
2, 230488, Note_on_c, 0, 57, 38
2, 230773, Control_c, 0, 64, 127
2, 230832, Note_on_c, 0, 86, 0
2, 230843, Note_on_c, 0, 81, 0
2, 230912, Note_on_c, 0, 74, 0
2, 230979, Note_on_c, 0, 57, 0
2, 231010, Note_on_c, 0, 64, 0
2, 231016, Note_on_c, 0, 53, 0
2, 231035, Note_on_c, 0, 60, 0
2, 231260, Note_on_c, 0, 81, 52
2, 231276, Control_c, 0, 64, 0
2, 231285, Note_on_c, 0, 69, 33
2, 231287, Note_on_c, 0, 64, 45
2, 231314, Note_on_c, 0, 60, 44
2, 231325, Note_on_c, 0, 76, 25
2, 231337, Note_on_c, 0, 53, 22
2, 231339, Note_on_c, 0, 57, 43
2, 231648, Control_c, 0, 64, 127
2, 231807, Note_on_c, 0, 81, 0
2, 231849, Note_on_c, 0, 64, 0
2, 231861, Note_on_c, 0, 76, 0
2, 231863, Note_on_c, 0, 60, 0
2, 231915, Note_on_c, 0, 57, 0
2, 231961, Note_on_c, 0, 69, 0
2, 232110, Note_on_c, 0, 53, 0
2, 232858, Note_on_c, 0, 55, 66
2, 232869, Note_on_c, 0, 69, 64
2, 232877, Note_on_c, 0, 64, 63
2, 232898, Control_c, 0, 64, 0
2, 232901, Note_on_c, 0, 59, 47
2, 233287, Note_on_c, 0, 69, 0
2, 233375, Note_on_c, 0, 59, 0
2, 233384, Note_on_c, 0, 55, 0
2, 233409, Note_on_c, 0, 64, 0
2, 233594, Note_on_c, 0, 54, 55
2, 233596, Note_on_c, 0, 68, 53
2, 233607, Note_on_c, 0, 63, 46
2, 233633, Note_on_c, 0, 59, 28
2, 234020, Note_on_c, 0, 59, 0
2, 234028, Note_on_c, 0, 68, 0
2, 234144, Note_on_c, 0, 54, 0
2, 234152, Note_on_c, 0, 63, 0
2, 234260, Note_on_c, 0, 67, 49
2, 234270, Note_on_c, 0, 62, 41
2, 234274, Note_on_c, 0, 57, 41
2, 234295, Note_on_c, 0, 53, 35
2, 234406, Note_on_c, 0, 57, 0
2, 234419, Note_on_c, 0, 62, 0
2, 234441, Note_on_c, 0, 67, 0
2, 234464, Note_on_c, 0, 53, 0
2, 234630, Note_on_c, 0, 43, 58
2, 235223, Note_on_c, 0, 43, 0
2, 235237, Note_on_c, 0, 65, 64
2, 235241, Note_on_c, 0, 57, 64
2, 235248, Note_on_c, 0, 60, 60
2, 235251, Note_on_c, 0, 53, 49
2, 235261, Note_on_c, 0, 62, 39
2, 235329, Note_on_c, 0, 62, 0
2, 235332, Note_on_c, 0, 57, 0
2, 235334, Note_on_c, 0, 65, 0
2, 235335, Note_on_c, 0, 60, 0
2, 235411, Note_on_c, 0, 53, 0
2, 235712, Note_on_c, 0, 65, 62
2, 235727, Note_on_c, 0, 57, 58
2, 235732, Note_on_c, 0, 53, 57
2, 235738, Note_on_c, 0, 60, 59
2, 235739, Note_on_c, 0, 62, 44
2, 235804, Note_on_c, 0, 60, 0
2, 235821, Note_on_c, 0, 57, 0
2, 235822, Note_on_c, 0, 53, 0
2, 235824, Note_on_c, 0, 65, 0
2, 235848, Note_on_c, 0, 62, 0
2, 236197, Note_on_c, 0, 53, 66
2, 236228, Note_on_c, 0, 57, 58
2, 236230, Note_on_c, 0, 60, 57
2, 236231, Note_on_c, 0, 65, 50
2, 236237, Note_on_c, 0, 62, 40
2, 236320, Note_on_c, 0, 65, 0
2, 236369, Note_on_c, 0, 62, 0
2, 236380, Note_on_c, 0, 57, 0
2, 236382, Note_on_c, 0, 60, 0
2, 236391, Note_on_c, 0, 53, 0
2, 236669, Note_on_c, 0, 64, 52
2, 236673, Note_on_c, 0, 60, 58
2, 236678, Note_on_c, 0, 57, 51
2, 236683, Note_on_c, 0, 52, 53
2, 236738, Note_on_c, 0, 60, 0
2, 236743, Note_on_c, 0, 64, 0
2, 236812, Note_on_c, 0, 57, 0
2, 236826, Note_on_c, 0, 52, 0
2, 237154, Note_on_c, 0, 62, 54
2, 237168, Note_on_c, 0, 53, 52
2, 237173, Note_on_c, 0, 57, 38
2, 237181, Note_on_c, 0, 50, 36
2, 237380, Note_on_c, 0, 57, 0
2, 237408, Note_on_c, 0, 53, 0
2, 237471, Note_on_c, 0, 62, 0
2, 237519, Note_on_c, 0, 50, 0
2, 237537, Note_on_c, 0, 43, 37
2, 237723, Note_on_c, 0, 43, 0
2, 238116, Note_on_c, 0, 55, 67
2, 238279, Note_on_c, 0, 55, 0
2, 239080, Note_on_c, 0, 53, 60
2, 239098, Note_on_c, 0, 67, 41
2, 239103, Note_on_c, 0, 57, 54
2, 239113, Note_on_c, 0, 64, 33
2, 239116, Note_on_c, 0, 60, 58
2, 239196, Note_on_c, 0, 53, 0
2, 239204, Note_on_c, 0, 57, 0
2, 239209, Note_on_c, 0, 60, 0
2, 239250, Note_on_c, 0, 67, 0
2, 239275, Note_on_c, 0, 64, 0
2, 239587, Note_on_c, 0, 65, 64
2, 239601, Note_on_c, 0, 57, 58
2, 239607, Note_on_c, 0, 52, 55
2, 239608, Note_on_c, 0, 60, 65
2, 239696, Note_on_c, 0, 57, 0
2, 239725, Note_on_c, 0, 60, 0
2, 239726, Note_on_c, 0, 65, 0
2, 239742, Note_on_c, 0, 52, 0
2, 240065, Note_on_c, 0, 50, 54
2, 240085, Note_on_c, 0, 64, 48
2, 240086, Note_on_c, 0, 60, 58
2, 240098, Note_on_c, 0, 57, 51
2, 240326, Note_on_c, 0, 60, 0
2, 240346, Note_on_c, 0, 57, 0
2, 240395, Note_on_c, 0, 50, 0
2, 240396, Note_on_c, 0, 64, 0
2, 240400, Note_on_c, 0, 62, 54
2, 240452, Note_on_c, 0, 62, 0
2, 240876, Note_on_c, 0, 53, 53
2, 240879, Note_on_c, 0, 60, 62
2, 240883, Note_on_c, 0, 57, 55
2, 240910, Note_on_c, 0, 43, 40
2, 241192, Note_on_c, 0, 53, 0
2, 241486, Control_c, 0, 64, 127
2, 241506, Note_on_c, 0, 55, 85
2, 241540, Note_on_c, 0, 57, 0
2, 241604, Note_on_c, 0, 43, 0
2, 241606, Note_on_c, 0, 60, 0
2, 241661, Note_on_c, 0, 55, 0
2, 242306, Note_on_c, 0, 79, 59
2, 242311, Note_on_c, 0, 75, 55
2, 242312, Note_on_c, 0, 55, 41
2, 242316, Note_on_c, 0, 56, 47
2, 242325, Note_on_c, 0, 67, 55
2, 242331, Note_on_c, 0, 72, 46
2, 242334, Note_on_c, 0, 61, 47
2, 242360, Control_c, 0, 64, 0
2, 242374, Note_on_c, 0, 67, 0
2, 242649, Control_c, 0, 64, 127
2, 242758, Note_on_c, 0, 61, 0
2, 242769, Note_on_c, 0, 55, 0
2, 242781, Note_on_c, 0, 56, 0
2, 242783, Note_on_c, 0, 72, 0
2, 242795, Note_on_c, 0, 79, 0
2, 242863, Note_on_c, 0, 75, 0
2, 242952, Note_on_c, 0, 79, 40
2, 242961, Note_on_c, 0, 56, 29
2, 242968, Note_on_c, 0, 61, 37
2, 242975, Note_on_c, 0, 75, 48
2, 242978, Note_on_c, 0, 65, 55
2, 243007, Note_on_c, 0, 72, 36
2, 243010, Note_on_c, 0, 67, 31
2, 243012, Note_on_c, 0, 55, 31
2, 243036, Control_c, 0, 64, 0
2, 243260, Note_on_c, 0, 67, 0
2, 243276, Note_on_c, 0, 72, 0
2, 243294, Control_c, 0, 64, 127
2, 243300, Note_on_c, 0, 79, 0
2, 243400, Note_on_c, 0, 65, 0
2, 243412, Note_on_c, 0, 75, 0
2, 243434, Note_on_c, 0, 61, 0
2, 243477, Note_on_c, 0, 55, 0
2, 243568, Note_on_c, 0, 56, 0
2, 243738, Note_on_c, 0, 80, 55
2, 243743, Note_on_c, 0, 75, 56
2, 243746, Note_on_c, 0, 64, 48
2, 243749, Note_on_c, 0, 59, 49
2, 243766, Note_on_c, 0, 68, 37
2, 243786, Note_on_c, 0, 53, 50
2, 243811, Control_c, 0, 64, 0
2, 243999, Control_c, 0, 64, 127
2, 244056, Note_on_c, 0, 53, 0
2, 244075, Note_on_c, 0, 64, 0
2, 244115, Note_on_c, 0, 68, 0
2, 244184, Note_on_c, 0, 59, 0
2, 244187, Note_on_c, 0, 80, 0
2, 244211, Note_on_c, 0, 75, 0
2, 244402, Note_on_c, 0, 82, 65
2, 244404, Note_on_c, 0, 75, 61
2, 244411, Note_on_c, 0, 70, 44
2, 244413, Note_on_c, 0, 63, 60
2, 244430, Note_on_c, 0, 53, 48
2, 244442, Note_on_c, 0, 59, 46
2, 244454, Note_on_c, 0, 56, 30
2, 244459, Control_c, 0, 64, 0
2, 244702, Control_c, 0, 64, 127
2, 244791, Note_on_c, 0, 53, 0
2, 244806, Note_on_c, 0, 63, 0
2, 244889, Note_on_c, 0, 59, 0
2, 244895, Note_on_c, 0, 56, 0
2, 244898, Note_on_c, 0, 70, 0
2, 244944, Note_on_c, 0, 75, 0
2, 244951, Note_on_c, 0, 82, 0
2, 245196, Note_on_c, 0, 83, 58
2, 245198, Note_on_c, 0, 53, 55
2, 245204, Control_c, 0, 64, 0
2, 245207, Note_on_c, 0, 59, 50
2, 245209, Note_on_c, 0, 63, 46
2, 245210, Note_on_c, 0, 76, 47
2, 245216, Note_on_c, 0, 71, 31
2, 245230, Note_on_c, 0, 79, 36
2, 245246, Note_on_c, 0, 56, 30
2, 245416, Note_on_c, 0, 59, 0
2, 245421, Control_c, 0, 64, 127
2, 245422, Note_on_c, 0, 79, 0
2, 245431, Note_on_c, 0, 83, 0
2, 245435, Note_on_c, 0, 76, 0
2, 245442, Note_on_c, 0, 63, 0
2, 245518, Note_on_c, 0, 53, 0
2, 245519, Note_on_c, 0, 71, 0
2, 245713, Note_on_c, 0, 56, 0
2, 245860, Note_on_c, 0, 62, 53
2, 245865, Note_on_c, 0, 79, 43
2, 245875, Note_on_c, 0, 74, 51
2, 245880, Note_on_c, 0, 67, 51
2, 245888, Note_on_c, 0, 52, 40
2, 245899, Note_on_c, 0, 57, 49
2, 245908, Control_c, 0, 64, 0
2, 246164, Note_on_c, 0, 79, 0
2, 246181, Control_c, 0, 64, 127
2, 246186, Note_on_c, 0, 74, 0
2, 246254, Note_on_c, 0, 67, 0
2, 246338, Note_on_c, 0, 62, 0
2, 246433, Note_on_c, 0, 57, 0
2, 246707, Note_on_c, 0, 52, 0
2, 246757, Note_on_c, 0, 74, 55
2, 246770, Note_on_c, 0, 64, 58
2, 246780, Note_on_c, 0, 67, 47
2, 246794, Note_on_c, 0, 57, 53
2, 246856, Control_c, 0, 64, 0
2, 247019, Note_on_c, 0, 64, 0
2, 247055, Note_on_c, 0, 67, 0
2, 247082, Note_on_c, 0, 74, 0
2, 247125, Note_on_c, 0, 57, 0
2, 247215, Note_on_c, 0, 52, 55
2, 247232, Note_on_c, 0, 72, 47
2, 247271, Note_on_c, 0, 52, 0
2, 247566, Note_on_c, 0, 72, 0
2, 247725, Note_on_c, 0, 64, 70
2, 247730, Note_on_c, 0, 74, 58
2, 247742, Note_on_c, 0, 71, 50
2, 247744, Note_on_c, 0, 65, 64
2, 247745, Note_on_c, 0, 69, 54
2, 248123, Control_c, 0, 64, 127
2, 248140, Note_on_c, 0, 64, 0
2, 248173, Note_on_c, 0, 69, 0
2, 248245, Note_on_c, 0, 65, 0
2, 248302, Note_on_c, 0, 71, 0
2, 248400, Note_on_c, 0, 74, 0
2, 248454, Control_c, 0, 64, 0
2, 248500, Note_on_c, 0, 68, 45
2, 248504, Note_on_c, 0, 71, 34
2, 248509, Note_on_c, 0, 64, 51
2, 248517, Note_on_c, 0, 62, 39
2, 248546, Note_on_c, 0, 56, 35
2, 248670, Control_c, 0, 64, 127
2, 248878, Note_on_c, 0, 64, 0
2, 248904, Note_on_c, 0, 56, 0
2, 248971, Note_on_c, 0, 68, 0
2, 248981, Note_on_c, 0, 62, 0
2, 249074, Note_on_c, 0, 71, 0
2, 249459, Control_c, 0, 64, 0
2, 249632, Note_on_c, 0, 64, 60
2, 249634, Note_on_c, 0, 83, 80
2, 249658, Note_on_c, 0, 60, 40
2, 249697, Note_on_c, 0, 59, 32
2, 249708, Note_on_c, 0, 55, 29
2, 249810, Note_on_c, 0, 55, 0
2, 249826, Note_on_c, 0, 64, 0
2, 249829, Note_on_c, 0, 83, 0
2, 249832, Note_on_c, 0, 59, 0
2, 249855, Note_on_c, 0, 60, 0
2, 249940, Note_on_c, 0, 86, 74
2, 250138, Note_on_c, 0, 86, 0
2, 250175, Note_on_c, 0, 84, 46
2, 250356, Note_on_c, 0, 84, 0
2, 250444, Note_on_c, 0, 80, 46
2, 250556, Note_on_c, 0, 80, 0
2, 250651, Note_on_c, 0, 83, 66
2, 250855, Note_on_c, 0, 83, 0
2, 250920, Note_on_c, 0, 81, 60
2, 251050, Note_on_c, 0, 81, 0
2, 251132, Note_on_c, 0, 76, 36
2, 251287, Note_on_c, 0, 76, 0
2, 251379, Note_on_c, 0, 74, 57
2, 251580, Note_on_c, 0, 74, 0
2, 251610, Note_on_c, 0, 72, 38
2, 251851, Note_on_c, 0, 72, 0
2, 252046, Note_on_c, 0, 71, 50
2, 252075, Note_on_c, 0, 64, 34
2, 252101, Note_on_c, 0, 54, 25
2, 252104, Note_on_c, 0, 60, 32
2, 252319, Note_on_c, 0, 71, 0
2, 252347, Note_on_c, 0, 64, 0
2, 252383, Note_on_c, 0, 60, 0
2, 252432, Note_on_c, 0, 54, 0
2, 252547, Note_on_c, 0, 69, 43
2, 252817, Note_on_c, 0, 64, 36
2, 252828, Note_on_c, 0, 54, 33
2, 252883, Note_on_c, 0, 64, 0
2, 252993, Note_on_c, 0, 54, 0
2, 253218, Note_on_c, 0, 69, 0
2, 253364, Note_on_c, 0, 59, 42
2, 253380, Note_on_c, 0, 62, 36
2, 253386, Note_on_c, 0, 54, 37
2, 253701, Note_on_c, 0, 59, 0
2, 253836, Note_on_c, 0, 69, 83
2, 253845, Note_on_c, 0, 59, 30
2, 253876, Note_on_c, 0, 62, 0
2, 253941, Note_on_c, 0, 59, 0
2, 253961, Note_on_c, 0, 69, 0
2, 254025, Note_on_c, 0, 54, 0
2, 254119, Note_on_c, 0, 69, 42
2, 254200, Note_on_c, 0, 69, 0
2, 254342, Note_on_c, 0, 71, 71
2, 254515, Note_on_c, 0, 71, 0
2, 254898, Note_on_c, 0, 54, 35
2, 254916, Note_on_c, 0, 66, 64
2, 254958, Note_on_c, 0, 43, 20
2, 255015, Note_on_c, 0, 54, 0
2, 255065, Note_on_c, 0, 43, 0
2, 255162, Note_on_c, 0, 66, 0
2, 255240, Note_on_c, 0, 50, 24
2, 255411, Note_on_c, 0, 66, 71
2, 255554, Note_on_c, 0, 50, 0
2, 256201, Note_on_c, 0, 62, 74
2, 256267, Note_on_c, 0, 50, 29
2, 256313, Note_on_c, 0, 66, 0
2, 256364, Note_on_c, 0, 62, 0
2, 256462, Note_on_c, 0, 63, 47
2, 256490, Note_on_c, 0, 50, 0
2, 256619, Note_on_c, 0, 63, 0
2, 256703, Note_on_c, 0, 64, 75
2, 256774, Note_on_c, 0, 54, 27
2, 256892, Note_on_c, 0, 54, 0
2, 256897, Note_on_c, 0, 64, 0
2, 256958, Note_on_c, 0, 62, 46
2, 257375, Note_on_c, 0, 62, 0
2, 257683, Note_on_c, 0, 53, 36
2, 257685, Note_on_c, 0, 43, 29
2, 257766, Note_on_c, 0, 43, 0
2, 257815, Note_on_c, 0, 53, 0
2, 258100, Note_on_c, 0, 57, 49
2, 258124, Note_on_c, 0, 50, 43
2, 258209, Note_on_c, 0, 57, 0
2, 258290, Note_on_c, 0, 60, 80
2, 258295, Note_on_c, 0, 50, 0
2, 258542, Note_on_c, 0, 60, 0
2, 258604, Note_on_c, 0, 57, 51
2, 258664, Note_on_c, 0, 57, 0
2, 258671, Note_on_c, 0, 53, 33
2, 258733, Note_on_c, 0, 53, 0
2, 258774, Note_on_c, 0, 58, 35
2, 258989, Note_on_c, 0, 58, 0
2, 259052, Note_on_c, 0, 60, 46
2, 259209, Note_on_c, 0, 60, 0
2, 259229, Note_on_c, 0, 61, 35
2, 259470, Note_on_c, 0, 61, 0
2, 259523, Note_on_c, 0, 63, 53
2, 259662, Note_on_c, 0, 63, 0
2, 259735, Note_on_c, 0, 64, 45
2, 259934, Note_on_c, 0, 64, 0
2, 259999, Note_on_c, 0, 66, 67
2, 260043, Note_on_c, 0, 58, 36
2, 260116, Note_on_c, 0, 66, 0
2, 260219, Note_on_c, 0, 69, 62
2, 260239, Note_on_c, 0, 52, 1
2, 260444, Note_on_c, 0, 69, 0
2, 260512, Note_on_c, 0, 52, 0
2, 260541, Note_on_c, 0, 66, 26
2, 260616, Note_on_c, 0, 58, 0
2, 260661, Note_on_c, 0, 66, 0
2, 260716, Note_on_c, 0, 67, 54
2, 260881, Note_on_c, 0, 67, 0
2, 260993, Note_on_c, 0, 69, 55
2, 261024, Note_on_c, 0, 63, 28
2, 261073, Note_on_c, 0, 63, 0
2, 261196, Note_on_c, 0, 69, 0
2, 261225, Note_on_c, 0, 70, 46
2, 261371, Note_on_c, 0, 70, 0
2, 261455, Note_on_c, 0, 71, 62
2, 261501, Note_on_c, 0, 60, 20
2, 261578, Note_on_c, 0, 60, 0
2, 261591, Note_on_c, 0, 71, 0
2, 261674, Note_on_c, 0, 72, 56
2, 261864, Note_on_c, 0, 72, 0
2, 261946, Note_on_c, 0, 76, 58
2, 261998, Note_on_c, 0, 64, 26
2, 262056, Note_on_c, 0, 64, 0
2, 262070, Note_on_c, 0, 76, 0
2, 262145, Note_on_c, 0, 79, 75
2, 262153, Note_on_c, 0, 67, 74
2, 262408, Note_on_c, 0, 78, 60
2, 262410, Note_on_c, 0, 79, 0
2, 262419, Note_on_c, 0, 67, 0
2, 262595, Note_on_c, 0, 78, 0
2, 262642, Note_on_c, 0, 77, 34
2, 262904, Note_on_c, 0, 76, 50
2, 262977, Note_on_c, 0, 77, 0
2, 263040, Note_on_c, 0, 76, 0
2, 263368, Note_on_c, 0, 68, 43
2, 263511, Note_on_c, 0, 68, 0
2, 263521, Note_on_c, 0, 63, 25
2, 263699, Note_on_c, 0, 63, 0
2, 263943, Note_on_c, 0, 68, 81
2, 263952, Note_on_c, 0, 62, 51
2, 263966, Note_on_c, 0, 56, 37
2, 264130, Note_on_c, 0, 56, 0
2, 264146, Note_on_c, 0, 62, 0
2, 264405, Note_on_c, 0, 62, 32
2, 264455, Note_on_c, 0, 68, 0
2, 264465, Note_on_c, 0, 62, 0
2, 264590, Note_on_c, 0, 67, 77
2, 264817, Note_on_c, 0, 67, 0
2, 264830, Note_on_c, 0, 68, 59
2, 264945, Note_on_c, 0, 67, 45
2, 264988, Note_on_c, 0, 68, 0
2, 264989, Note_on_c, 0, 57, 30
2, 265078, Note_on_c, 0, 67, 0
2, 265095, Note_on_c, 0, 66, 43
2, 265097, Note_on_c, 0, 57, 0
2, 265251, Note_on_c, 0, 66, 0
2, 265373, Note_on_c, 0, 67, 53
2, 265549, Note_on_c, 0, 67, 0
2, 265615, Note_on_c, 0, 64, 49
2, 265860, Note_on_c, 0, 64, 0
2, 266045, Note_on_c, 0, 64, 52
2, 266269, Note_on_c, 0, 64, 0
2, 266511, Note_on_c, 0, 64, 64
2, 266781, Note_on_c, 0, 64, 0
2, 266971, Note_on_c, 0, 64, 61
2, 267193, Note_on_c, 0, 64, 0
2, 267322, Note_on_c, 0, 63, 55
2, 267518, Note_on_c, 0, 64, 57
2, 267540, Note_on_c, 0, 63, 0
2, 267792, Note_on_c, 0, 64, 0
2, 267887, Note_on_c, 0, 69, 37
2, 267944, Note_on_c, 0, 69, 0
2, 268267, Note_on_c, 0, 57, 45
2, 268277, Note_on_c, 0, 62, 24
2, 268325, Note_on_c, 0, 62, 0
2, 268374, Note_on_c, 0, 57, 0
2, 268855, Note_on_c, 0, 57, 57
2, 268933, Note_on_c, 0, 57, 0
2, 269614, Note_on_c, 0, 58, 39
2, 269616, Note_on_c, 0, 62, 36
2, 269673, Note_on_c, 0, 62, 0
2, 269759, Note_on_c, 0, 58, 0
2, 269986, Note_on_c, 0, 72, 50
2, 270058, Note_on_c, 0, 70, 50
2, 270117, Note_on_c, 0, 72, 0
2, 270229, Note_on_c, 0, 70, 0
2, 270270, Note_on_c, 0, 69, 40
2, 270429, Note_on_c, 0, 69, 0
2, 270432, Note_on_c, 0, 70, 74
2, 270582, Note_on_c, 0, 70, 0
2, 270691, Note_on_c, 0, 72, 74
2, 270836, Note_on_c, 0, 72, 0
2, 270914, Note_on_c, 0, 77, 49
2, 271069, Note_on_c, 0, 77, 0
2, 271132, Note_on_c, 0, 81, 73
2, 271271, Note_on_c, 0, 81, 0
2, 271293, Note_on_c, 0, 66, 55
2, 271317, Note_on_c, 0, 61, 39
2, 271323, Note_on_c, 0, 84, 84
2, 271347, Note_on_c, 0, 55, 45
2, 271386, Note_on_c, 0, 66, 0
2, 271420, Note_on_c, 0, 55, 0
2, 271507, Note_on_c, 0, 84, 0
2, 271601, Note_on_c, 0, 82, 77
2, 271627, Note_on_c, 0, 55, 32
2, 271696, Note_on_c, 0, 55, 0
2, 271727, Note_on_c, 0, 61, 0
2, 271777, Note_on_c, 0, 82, 0
2, 271830, Note_on_c, 0, 81, 49
2, 271980, Note_on_c, 0, 81, 0
2, 272063, Note_on_c, 0, 79, 57
2, 272093, Note_on_c, 0, 61, 57
2, 272102, Note_on_c, 0, 55, 59
2, 272139, Note_on_c, 0, 65, 34
2, 272195, Note_on_c, 0, 65, 0
2, 272205, Note_on_c, 0, 79, 0
2, 272351, Note_on_c, 0, 77, 19
2, 272470, Note_on_c, 0, 77, 0
2, 272481, Note_on_c, 0, 55, 0
2, 272570, Note_on_c, 0, 72, 50
2, 272589, Note_on_c, 0, 61, 0
2, 272647, Note_on_c, 0, 72, 0
2, 272765, Note_on_c, 0, 79, 70
2, 272978, Note_on_c, 0, 79, 0
2, 273203, Note_on_c, 0, 78, 67
2, 273368, Note_on_c, 0, 78, 0
2, 273478, Note_on_c, 0, 77, 57
2, 273646, Note_on_c, 0, 77, 0
2, 273707, Note_on_c, 0, 73, 34
2, 273879, Note_on_c, 0, 73, 0
2, 273942, Note_on_c, 0, 76, 60
2, 274021, Note_on_c, 0, 65, 37
2, 274027, Note_on_c, 0, 55, 31
2, 274064, Note_on_c, 0, 60, 32
2, 274124, Note_on_c, 0, 65, 0
2, 274127, Note_on_c, 0, 74, 34
2, 274158, Note_on_c, 0, 76, 0
2, 274181, Note_on_c, 0, 60, 0
2, 274237, Note_on_c, 0, 55, 0
2, 274472, Note_on_c, 0, 74, 0
2, 274488, Note_on_c, 0, 69, 34
2, 274548, Note_on_c, 0, 69, 0
2, 274615, Note_on_c, 0, 64, 38
2, 274625, Note_on_c, 0, 59, 38
2, 274641, Note_on_c, 0, 53, 36
2, 274661, Note_on_c, 0, 72, 57
2, 275069, Note_on_c, 0, 72, 0
2, 275141, Note_on_c, 0, 69, 48
2, 275158, Note_on_c, 0, 64, 0
2, 275176, Note_on_c, 0, 59, 0
2, 275222, Note_on_c, 0, 53, 0
2, 275288, Note_on_c, 0, 69, 0
2, 275579, Note_on_c, 0, 63, 39
2, 275596, Note_on_c, 0, 59, 42
2, 275599, Note_on_c, 0, 53, 26
2, 275613, Note_on_c, 0, 71, 66
2, 275815, Note_on_c, 0, 71, 0
2, 275823, Note_on_c, 0, 59, 0
2, 275854, Note_on_c, 0, 63, 0
2, 275914, Note_on_c, 0, 72, 53
2, 275958, Note_on_c, 0, 53, 0
2, 276003, Note_on_c, 0, 72, 0
2, 276078, Note_on_c, 0, 74, 61
2, 276269, Note_on_c, 0, 74, 0
2, 276402, Note_on_c, 0, 72, 67
2, 276859, Note_on_c, 0, 72, 0
2, 277505, Note_on_c, 0, 67, 45
2, 277518, Note_on_c, 0, 62, 46
2, 277545, Note_on_c, 0, 52, 32
2, 277564, Note_on_c, 0, 43, 27
2, 277625, Note_on_c, 0, 52, 0
2, 277639, Note_on_c, 0, 67, 0
2, 277645, Note_on_c, 0, 43, 0
2, 277648, Note_on_c, 0, 62, 0
2, 277991, Note_on_c, 0, 67, 48
2, 277997, Note_on_c, 0, 62, 49
2, 278002, Note_on_c, 0, 57, 51
2, 278009, Note_on_c, 0, 43, 32
2, 278023, Note_on_c, 0, 52, 26
2, 278085, Note_on_c, 0, 57, 0
2, 278086, Note_on_c, 0, 43, 0
2, 278106, Note_on_c, 0, 67, 0
2, 278123, Note_on_c, 0, 52, 0
2, 278128, Note_on_c, 0, 62, 0
2, 278469, Note_on_c, 0, 67, 45
2, 278484, Note_on_c, 0, 55, 55
2, 278489, Note_on_c, 0, 57, 46
2, 278500, Note_on_c, 0, 65, 46
2, 278504, Note_on_c, 0, 60, 55
2, 278776, Note_on_c, 0, 43, 45
2, 279272, Note_on_c, 0, 43, 0
2, 279417, Note_on_c, 0, 43, 39
2, 279429, Control_c, 0, 64, 127
2, 279697, Note_on_c, 0, 57, 0
2, 279800, Note_on_c, 0, 60, 0
2, 279816, Control_c, 0, 64, 0
2, 279875, Control_c, 0, 64, 127
2, 279878, Note_on_c, 0, 67, 0
2, 279925, Note_on_c, 0, 65, 0
2, 279927, Note_on_c, 0, 55, 0
2, 279929, Note_on_c, 0, 57, 29
2, 279996, Note_on_c, 0, 57, 0
2, 280307, Note_on_c, 0, 50, 45
2, 280350, Note_on_c, 0, 43, 0
2, 280382, Note_on_c, 0, 50, 0
2, 280406, Control_c, 0, 64, 0
2, 280431, Note_on_c, 0, 67, 81
2, 280433, Note_on_c, 0, 57, 88
2, 280434, Note_on_c, 0, 62, 81
2, 280443, Note_on_c, 0, 52, 71
2, 280780, Control_c, 0, 64, 127
2, 281070, Note_on_c, 0, 67, 0
2, 281084, Note_on_c, 0, 62, 0
2, 281149, Note_on_c, 0, 57, 0
2, 281370, Note_on_c, 0, 65, 66
2, 281377, Note_on_c, 0, 57, 55
2, 281379, Note_on_c, 0, 52, 0
2, 281400, Note_on_c, 0, 60, 62
2, 281411, Control_c, 0, 64, 0
2, 281413, Note_on_c, 0, 50, 41
2, 281826, Control_c, 0, 64, 127
2, 281842, Note_on_c, 0, 65, 0
2, 281897, Note_on_c, 0, 60, 0
2, 281983, Note_on_c, 0, 57, 0
2, 282261, Note_on_c, 0, 50, 0
2, 282330, Control_c, 0, 64, 0
2, 282358, Note_on_c, 0, 60, 57
2, 282379, Note_on_c, 0, 64, 51
2, 282382, Note_on_c, 0, 48, 44
2, 282392, Note_on_c, 0, 55, 37
2, 282639, Note_on_c, 0, 64, 0
2, 282653, Note_on_c, 0, 60, 0
2, 282674, Control_c, 0, 64, 127
2, 282717, Note_on_c, 0, 48, 0
2, 282762, Note_on_c, 0, 55, 0
2, 283108, Note_on_c, 0, 60, 66
2, 283123, Note_on_c, 0, 52, 60
2, 283135, Note_on_c, 0, 55, 55
2, 283152, Note_on_c, 0, 45, 47
2, 283163, Control_c, 0, 64, 0
2, 283197, Note_on_c, 0, 55, 0
2, 283229, Note_on_c, 0, 60, 0
2, 283243, Note_on_c, 0, 52, 0
2, 283404, Note_on_c, 0, 45, 0
2, 283462, Note_on_c, 0, 53, 51
2, 283464, Note_on_c, 0, 47, 56
2, 283466, Note_on_c, 0, 62, 53
2, 283472, Note_on_c, 0, 56, 37
2, 283481, Note_on_c, 0, 58, 33
2, 283507, Control_c, 0, 64, 127
2, 283628, Note_on_c, 0, 53, 0
2, 283636, Control_c, 0, 64, 0
2, 283639, Note_on_c, 0, 62, 0
2, 283717, Note_on_c, 0, 56, 0
2, 283719, Note_on_c, 0, 58, 0
2, 283779, Note_on_c, 0, 47, 0
2, 283816, Note_on_c, 0, 64, 62
2, 283822, Note_on_c, 0, 48, 54
2, 283836, Note_on_c, 0, 55, 37
2, 283953, Note_on_c, 0, 55, 0
2, 283982, Control_c, 0, 64, 127
2, 283983, Note_on_c, 0, 48, 0
2, 284006, Note_on_c, 0, 64, 0
2, 284011, Control_c, 0, 64, 0
2, 284202, Note_on_c, 0, 55, 68
2, 284235, Note_on_c, 0, 43, 41
2, 284662, Note_on_c, 0, 55, 0
2, 284699, Control_c, 0, 64, 127
2, 285225, Note_on_c, 0, 79, 53
2, 285231, Control_c, 0, 64, 0
2, 285232, Note_on_c, 0, 67, 66
2, 285251, Note_on_c, 0, 55, 51
2, 285277, Note_on_c, 0, 67, 0
2, 285323, Note_on_c, 0, 43, 0
2, 285325, Note_on_c, 0, 55, 0
2, 285372, Note_on_c, 0, 79, 0
2, 286194, Note_on_c, 0, 91, 44
2, 286199, Note_on_c, 0, 79, 33
2, 286200, Note_on_c, 0, 64, 56
2, 286225, Note_on_c, 0, 55, 39
2, 286228, Note_on_c, 0, 86, 38
2, 286237, Note_on_c, 0, 60, 41
2, 286290, Note_on_c, 0, 86, 0
2, 286296, Note_on_c, 0, 60, 0
2, 286307, Note_on_c, 0, 55, 0
2, 286310, Note_on_c, 0, 79, 0
2, 286311, Note_on_c, 0, 64, 0
2, 286340, Note_on_c, 0, 91, 0
2, 286864, Note_on_c, 0, 91, 36
2, 286866, Note_on_c, 0, 79, 36
2, 286873, Note_on_c, 0, 55, 34
2, 286890, Note_on_c, 0, 64, 24
2, 286900, Note_on_c, 0, 60, 36
2, 286912, Note_on_c, 0, 86, 33
2, 286975, Note_on_c, 0, 86, 0
2, 286981, Note_on_c, 0, 60, 0
2, 286986, Note_on_c, 0, 55, 0
2, 286996, Note_on_c, 0, 64, 0
2, 287001, Note_on_c, 0, 79, 0
2, 287010, Note_on_c, 0, 91, 0
2, 287531, Note_on_c, 0, 91, 35
2, 287550, Note_on_c, 0, 55, 33
2, 287554, Note_on_c, 0, 64, 24
2, 287556, Note_on_c, 0, 79, 27
2, 287566, Note_on_c, 0, 60, 33
2, 288448, Control_c, 0, 64, 127
2, 288454, Note_on_c, 0, 91, 0
2, 288538, Note_on_c, 0, 64, 0
2, 288557, Note_on_c, 0, 79, 0
2, 288591, Note_on_c, 0, 60, 0
2, 288666, Note_on_c, 0, 55, 0
2, 289765, Note_on_c, 0, 43, 19
2, 289854, Note_on_c, 0, 43, 0
2, 289926, Control_c, 0, 64, 0
2, 289950, Note_on_c, 0, 48, 36
2, 289986, Note_on_c, 0, 60, 42
2, 290201, Note_on_c, 0, 60, 0
2, 290232, Note_on_c, 0, 48, 0
2, 290283, Note_on_c, 0, 62, 61
2, 290335, Note_on_c, 0, 50, 34
2, 290429, Note_on_c, 0, 62, 0
2, 290477, Note_on_c, 0, 50, 0
2, 290745, Note_on_c, 0, 64, 80
2, 290748, Note_on_c, 0, 52, 63
2, 290896, Note_on_c, 0, 52, 0
2, 290917, Note_on_c, 0, 64, 0
2, 291192, Note_on_c, 0, 53, 55
2, 291197, Note_on_c, 0, 65, 76
2, 291291, Note_on_c, 0, 65, 0
2, 291300, Note_on_c, 0, 53, 0
2, 291429, Note_on_c, 0, 67, 77
2, 291448, Note_on_c, 0, 55, 55
2, 291574, Note_on_c, 0, 67, 0
2, 291593, Note_on_c, 0, 55, 0
2, 291726, Note_on_c, 0, 69, 76
2, 291755, Note_on_c, 0, 57, 59
2, 291902, Note_on_c, 0, 57, 0
2, 291956, Note_on_c, 0, 69, 0
2, 292051, Note_on_c, 0, 62, 57
2, 292087, Note_on_c, 0, 50, 38
2, 292612, Control_c, 0, 64, 127
2, 292738, Note_on_c, 0, 50, 0
2, 292771, Note_on_c, 0, 62, 0
2, 293866, Note_on_c, 0, 55, 39
2, 293867, Note_on_c, 0, 72, 38
2, 293872, Note_on_c, 0, 65, 39
2, 293877, Control_c, 0, 64, 0
2, 293878, Note_on_c, 0, 79, 34
2, 293886, Note_on_c, 0, 60, 38
2, 293892, Note_on_c, 0, 76, 34
2, 293918, Note_on_c, 0, 67, 24
2, 293924, Note_on_c, 0, 69, 22
2, 294106, Control_c, 0, 64, 127
2, 294176, Note_on_c, 0, 67, 0
2, 294181, Note_on_c, 0, 69, 0
2, 294207, Note_on_c, 0, 72, 0
2, 294227, Note_on_c, 0, 79, 0
2, 294246, Note_on_c, 0, 65, 0
2, 294264, Note_on_c, 0, 76, 0
2, 294278, Note_on_c, 0, 60, 0
2, 294318, Note_on_c, 0, 55, 0
2, 294793, Note_on_c, 0, 71, 44
2, 294796, Note_on_c, 0, 75, 35
2, 294802, Note_on_c, 0, 83, 32
2, 294805, Note_on_c, 0, 53, 35
2, 294811, Note_on_c, 0, 64, 36
2, 294837, Control_c, 0, 64, 0
2, 294840, Note_on_c, 0, 59, 35
2, 294852, Note_on_c, 0, 78, 26
2, 295111, Control_c, 0, 64, 127
2, 295244, Note_on_c, 0, 83, 0
2, 295300, Note_on_c, 0, 53, 0
2, 295340, Note_on_c, 0, 59, 0
2, 295350, Note_on_c, 0, 71, 0
2, 295395, Note_on_c, 0, 75, 0
2, 295401, Note_on_c, 0, 64, 0
2, 295421, Note_on_c, 0, 78, 0
2, 295757, Control_c, 0, 64, 0
2, 297002, Note_on_c, 0, 67, 50
2, 297004, Note_on_c, 0, 77, 54
2, 297016, Note_on_c, 0, 72, 54
2, 297040, Note_on_c, 0, 62, 34
2, 297109, Note_on_c, 0, 72, 0
2, 297110, Note_on_c, 0, 67, 0
2, 297114, Note_on_c, 0, 62, 0
2, 297130, Note_on_c, 0, 77, 0
2, 297467, Note_on_c, 0, 76, 44
2, 297481, Note_on_c, 0, 60, 46
2, 297491, Note_on_c, 0, 71, 57
2, 297500, Note_on_c, 0, 65, 35
2, 297594, Note_on_c, 0, 76, 0
2, 297609, Note_on_c, 0, 71, 0
2, 297635, Note_on_c, 0, 65, 0
2, 297686, Note_on_c, 0, 60, 0
2, 297773, Note_on_c, 0, 74, 38
2, 297789, Note_on_c, 0, 59, 36
2, 297813, Note_on_c, 0, 69, 39
2, 297829, Note_on_c, 0, 64, 17
2, 297905, Note_on_c, 0, 64, 0
2, 297910, Note_on_c, 0, 69, 0
2, 297913, Note_on_c, 0, 59, 0
2, 297939, Note_on_c, 0, 74, 0
2, 298901, Note_on_c, 0, 71, 67
2, 299026, Note_on_c, 0, 71, 0
2, 299148, Note_on_c, 0, 72, 68
2, 299311, Note_on_c, 0, 72, 0
2, 299419, Note_on_c, 0, 74, 48
2, 299572, Note_on_c, 0, 74, 0
2, 299631, Note_on_c, 0, 67, 49
2, 299792, Note_on_c, 0, 67, 0
2, 300842, Note_on_c, 0, 79, 46
2, 300866, Note_on_c, 0, 87, 44
2, 300868, Note_on_c, 0, 65, 43
2, 300869, Note_on_c, 0, 91, 33
2, 300908, Note_on_c, 0, 55, 22
2, 300918, Note_on_c, 0, 60, 32
2, 300995, Note_on_c, 0, 55, 0
2, 301034, Note_on_c, 0, 65, 0
2, 301054, Note_on_c, 0, 79, 0
2, 301055, Note_on_c, 0, 60, 0
2, 301094, Note_on_c, 0, 87, 0
2, 301118, Note_on_c, 0, 88, 40
2, 301121, Note_on_c, 0, 91, 0
2, 301180, Note_on_c, 0, 88, 0
2, 301581, Note_on_c, 0, 65, 41
2, 301590, Note_on_c, 0, 91, 57
2, 301591, Note_on_c, 0, 79, 44
2, 301604, Note_on_c, 0, 87, 47
2, 301615, Note_on_c, 0, 57, 29
2, 301621, Note_on_c, 0, 55, 30
2, 301630, Note_on_c, 0, 60, 34
2, 301847, Note_on_c, 0, 79, 0
2, 301873, Note_on_c, 0, 91, 0
2, 301894, Note_on_c, 0, 87, 0
2, 301914, Note_on_c, 0, 65, 0
2, 301917, Note_on_c, 0, 60, 0
2, 301933, Note_on_c, 0, 88, 29
2, 301943, Note_on_c, 0, 55, 0
2, 301985, Note_on_c, 0, 57, 0
2, 302003, Note_on_c, 0, 88, 0
2, 302340, Note_on_c, 0, 64, 35
2, 302341, Note_on_c, 0, 79, 47
2, 302344, Note_on_c, 0, 59, 36
2, 302354, Note_on_c, 0, 91, 50
2, 302355, Note_on_c, 0, 87, 52
2, 302393, Note_on_c, 0, 53, 30
2, 302627, Note_on_c, 0, 53, 0
2, 302648, Note_on_c, 0, 87, 0
2, 302662, Note_on_c, 0, 59, 0
2, 302664, Note_on_c, 0, 64, 0
2, 302673, Note_on_c, 0, 88, 35
2, 302678, Note_on_c, 0, 79, 0
2, 302738, Note_on_c, 0, 88, 0
2, 302739, Note_on_c, 0, 91, 0
2, 303002, Note_on_c, 0, 64, 44
2, 303011, Note_on_c, 0, 59, 34
2, 303014, Note_on_c, 0, 79, 47
2, 303023, Note_on_c, 0, 87, 55
2, 303026, Note_on_c, 0, 91, 46
2, 303051, Note_on_c, 0, 53, 33
2, 303338, Note_on_c, 0, 87, 0
2, 303365, Note_on_c, 0, 88, 39
2, 303366, Note_on_c, 0, 91, 0
2, 303394, Note_on_c, 0, 64, 0
2, 303448, Note_on_c, 0, 88, 0
2, 303464, Note_on_c, 0, 59, 0
2, 303494, Note_on_c, 0, 53, 0
2, 303547, Note_on_c, 0, 79, 0
2, 304671, Note_on_c, 0, 79, 28
2, 304715, Note_on_c, 0, 57, 51
2, 304757, Note_on_c, 0, 79, 0
2, 304809, Note_on_c, 0, 57, 0
2, 304901, Note_on_c, 0, 83, 61
2, 304964, Note_on_c, 0, 59, 20
2, 305162, Note_on_c, 0, 83, 0
2, 305185, Note_on_c, 0, 59, 0
2, 305211, Note_on_c, 0, 84, 67
2, 305221, Note_on_c, 0, 60, 55
2, 305330, Note_on_c, 0, 60, 0
2, 305343, Note_on_c, 0, 84, 0
2, 305399, Note_on_c, 0, 86, 68
2, 305407, Note_on_c, 0, 62, 73
2, 305786, Note_on_c, 0, 86, 0
2, 305817, Note_on_c, 0, 62, 0
2, 305857, Note_on_c, 0, 64, 77
2, 305874, Note_on_c, 0, 88, 83
2, 306648, Note_on_c, 0, 84, 54
2, 306651, Note_on_c, 0, 64, 0
2, 306660, Note_on_c, 0, 88, 0
2, 306666, Note_on_c, 0, 60, 46
2, 306928, Note_on_c, 0, 84, 0
2, 306974, Note_on_c, 0, 60, 0
2, 307007, Note_on_c, 0, 62, 54
2, 307011, Note_on_c, 0, 86, 49
2, 307275, Note_on_c, 0, 86, 0
2, 307332, Note_on_c, 0, 62, 0
2, 307356, Note_on_c, 0, 60, 55
2, 307367, Note_on_c, 0, 84, 40
2, 307694, Note_on_c, 0, 84, 0
2, 307803, Note_on_c, 0, 60, 0
2, 308269, Note_on_c, 0, 70, 71
2, 308271, Note_on_c, 0, 61, 71
2, 308280, Note_on_c, 0, 66, 64
2, 308289, Note_on_c, 0, 55, 61
2, 309111, Note_on_c, 0, 70, 0
2, 309114, Note_on_c, 0, 61, 0
2, 309136, Note_on_c, 0, 66, 0
2, 309219, Note_on_c, 0, 54, 51
2, 309220, Note_on_c, 0, 69, 57
2, 309225, Note_on_c, 0, 55, 0
2, 309234, Note_on_c, 0, 65, 51
2, 309235, Note_on_c, 0, 60, 47
2, 309518, Control_c, 0, 64, 127
2, 309696, Note_on_c, 0, 69, 0
2, 309730, Note_on_c, 0, 65, 0
2, 309822, Note_on_c, 0, 60, 0
2, 309961, Note_on_c, 0, 68, 44
2, 309964, Control_c, 0, 64, 0
2, 309984, Note_on_c, 0, 64, 36
2, 309987, Note_on_c, 0, 59, 36
2, 310008, Note_on_c, 0, 54, 0
2, 310010, Note_on_c, 0, 53, 43
2, 310207, Control_c, 0, 64, 127
2, 310226, Note_on_c, 0, 64, 0
2, 310265, Note_on_c, 0, 68, 0
2, 310411, Note_on_c, 0, 59, 0
2, 310587, Note_on_c, 0, 53, 0
2, 310652, Note_on_c, 0, 57, 45
2, 310660, Note_on_c, 0, 62, 42
2, 310664, Note_on_c, 0, 67, 37
2, 310669, Control_c, 0, 64, 0
2, 310684, Note_on_c, 0, 52, 33
2, 311313, Control_c, 0, 64, 127
2, 312196, Note_on_c, 0, 62, 0
2, 312276, Note_on_c, 0, 67, 0
2, 312493, Note_on_c, 0, 57, 0
2, 312891, Note_on_c, 0, 65, 68
2, 312920, Note_on_c, 0, 60, 61
2, 312925, Note_on_c, 0, 55, 38
2, 312929, Note_on_c, 0, 52, 0
2, 312934, Note_on_c, 0, 50, 42
2, 312991, Note_on_c, 0, 65, 0
2, 313000, Note_on_c, 0, 55, 0
2, 313074, Note_on_c, 0, 60, 0
2, 313094, Control_c, 0, 64, 0
2, 313120, Note_on_c, 0, 50, 0
2, 313152, Note_on_c, 0, 48, 43
2, 313167, Note_on_c, 0, 64, 36
2, 313212, Note_on_c, 0, 60, 19
2, 313258, Note_on_c, 0, 55, 32
2, 313395, Note_on_c, 0, 60, 0
2, 313401, Note_on_c, 0, 55, 0
2, 313416, Note_on_c, 0, 64, 0
2, 313478, Note_on_c, 0, 48, 0
2, 313694, Note_on_c, 0, 61, 23
2, 313777, Note_on_c, 0, 61, 0
2, 314281, Note_on_c, 0, 60, 66
2, 314313, Note_on_c, 0, 45, 28
2, 314393, Note_on_c, 0, 45, 0
2, 314436, Note_on_c, 0, 60, 0
2, 314535, Note_on_c, 0, 62, 38
2, 314610, Note_on_c, 0, 62, 0
2, 314859, Note_on_c, 0, 65, 36
2, 314914, Note_on_c, 0, 65, 0
2, 315053, Note_on_c, 0, 55, 59
2, 315346, Note_on_c, 0, 55, 0
2, 315509, Note_on_c, 0, 55, 55
2, 315564, Note_on_c, 0, 55, 0
2, 315959, Note_on_c, 0, 79, 59
2, 316116, Note_on_c, 0, 79, 0
2, 316262, Note_on_c, 0, 67, 52
2, 316317, Note_on_c, 0, 67, 0
2, 316715, Note_on_c, 0, 93, 45
2, 316836, Note_on_c, 0, 93, 0
2, 316965, Note_on_c, 0, 79, 22
2, 317022, Note_on_c, 0, 79, 0
2, 317382, Note_on_c, 0, 103, 57
2, 317535, Note_on_c, 0, 103, 0
2, 317681, Note_on_c, 0, 91, 57
2, 317720, Note_on_c, 0, 65, 49
2, 317741, Note_on_c, 0, 61, 28
2, 317771, Note_on_c, 0, 56, 27
2, 317780, Note_on_c, 0, 91, 0
2, 317887, Note_on_c, 0, 65, 0
2, 317900, Note_on_c, 0, 61, 0
2, 317943, Note_on_c, 0, 56, 0
2, 319809, Note_on_c, 0, 72, 101
2, 319999, Note_on_c, 0, 72, 0
2, 320294, Note_on_c, 0, 74, 110
2, 320519, Note_on_c, 0, 74, 0
2, 320765, Note_on_c, 0, 76, 105
2, 320983, Note_on_c, 0, 76, 0
2, 321215, Note_on_c, 0, 61, 59
2, 321217, Note_on_c, 0, 55, 78
2, 321222, Note_on_c, 0, 58, 62
2, 321223, Note_on_c, 0, 65, 80
2, 321234, Note_on_c, 0, 77, 105
2, 321913, Note_on_c, 0, 77, 0
2, 321980, Note_on_c, 0, 79, 75
2, 322031, Note_on_c, 0, 77, 42
2, 322154, Note_on_c, 0, 77, 0
2, 322166, Note_on_c, 0, 79, 0
2, 322355, Note_on_c, 0, 81, 77
2, 322434, Note_on_c, 0, 65, 0
2, 322494, Note_on_c, 0, 81, 0
2, 322601, Note_on_c, 0, 55, 0
2, 322653, Note_on_c, 0, 61, 0
2, 322709, Note_on_c, 0, 58, 0
2, 322727, Note_on_c, 0, 72, 68
2, 322756, Note_on_c, 0, 74, 66
2, 322830, Note_on_c, 0, 72, 0
2, 322913, Note_on_c, 0, 74, 0
2, 322933, Note_on_c, 0, 72, 55
2, 323039, Note_on_c, 0, 74, 34
2, 323048, Note_on_c, 0, 72, 0
2, 323154, Note_on_c, 0, 72, 25
2, 323157, Note_on_c, 0, 74, 0
2, 323277, Note_on_c, 0, 72, 0
2, 324128, Note_on_c, 0, 65, 65
2, 324158, Note_on_c, 0, 60, 39
2, 324169, Note_on_c, 0, 57, 32
2, 324170, Note_on_c, 0, 55, 24
2, 324230, Note_on_c, 0, 55, 0
2, 324239, Note_on_c, 0, 65, 0
2, 324261, Note_on_c, 0, 60, 0
2, 324275, Note_on_c, 0, 57, 0
2, 324822, Note_on_c, 0, 64, 59
2, 324843, Note_on_c, 0, 59, 49
2, 324860, Note_on_c, 0, 53, 30
2, 324921, Note_on_c, 0, 53, 0
2, 324964, Note_on_c, 0, 64, 0
2, 324992, Note_on_c, 0, 59, 0
2, 325471, Note_on_c, 0, 63, 55
2, 325496, Note_on_c, 0, 59, 49
2, 325517, Note_on_c, 0, 53, 33
2, 325531, Note_on_c, 0, 56, 28
2, 326229, Note_on_c, 0, 59, 0
2, 326284, Note_on_c, 0, 63, 0
2, 326309, Note_on_c, 0, 53, 0
2, 326381, Note_on_c, 0, 56, 0
2, 327440, Note_on_c, 0, 77, 74
2, 327443, Note_on_c, 0, 62, 75
2, 327444, Note_on_c, 0, 69, 82
2, 327455, Note_on_c, 0, 73, 33
2, 327457, Note_on_c, 0, 72, 72
2, 327504, Note_on_c, 0, 73, 0
2, 327543, Note_on_c, 0, 69, 0
2, 327547, Note_on_c, 0, 72, 0
2, 327560, Note_on_c, 0, 62, 0
2, 327609, Note_on_c, 0, 77, 0
2, 327924, Note_on_c, 0, 76, 71
2, 327931, Note_on_c, 0, 67, 74
2, 327942, Note_on_c, 0, 60, 69
2, 327945, Note_on_c, 0, 71, 68
2, 328086, Note_on_c, 0, 67, 0
2, 328090, Note_on_c, 0, 71, 0
2, 328096, Note_on_c, 0, 60, 0
2, 328102, Note_on_c, 0, 76, 0
2, 328412, Note_on_c, 0, 74, 65
2, 328423, Note_on_c, 0, 59, 61
2, 328437, Note_on_c, 0, 65, 60
2, 328441, Note_on_c, 0, 69, 66
2, 328905, Control_c, 0, 64, 127
2, 328964, Note_on_c, 0, 59, 0
2, 329001, Note_on_c, 0, 65, 0
2, 329058, Note_on_c, 0, 69, 0
2, 329096, Note_on_c, 0, 74, 0
2, 329210, Note_on_c, 0, 71, 80
2, 329365, Note_on_c, 0, 71, 0
2, 329434, Control_c, 0, 64, 0
2, 329454, Note_on_c, 0, 72, 84
2, 329469, Note_on_c, 0, 71, 51
2, 329486, Note_on_c, 0, 64, 58
2, 329488, Note_on_c, 0, 59, 49
2, 329502, Note_on_c, 0, 53, 45
2, 329543, Note_on_c, 0, 71, 0
2, 329638, Note_on_c, 0, 64, 0
2, 329720, Note_on_c, 0, 59, 0
2, 329735, Note_on_c, 0, 72, 0
2, 329766, Control_c, 0, 64, 127
2, 329770, Note_on_c, 0, 74, 61
2, 329801, Note_on_c, 0, 53, 0
2, 329896, Note_on_c, 0, 74, 0
2, 330082, Control_c, 0, 64, 0
2, 330314, Note_on_c, 0, 65, 64
2, 330331, Note_on_c, 0, 57, 64
2, 330336, Note_on_c, 0, 67, 56
2, 330351, Note_on_c, 0, 55, 49
2, 330354, Note_on_c, 0, 60, 66
2, 330531, Note_on_c, 0, 55, 0
2, 330640, Note_on_c, 0, 43, 44
2, 331301, Note_on_c, 0, 55, 51
2, 331362, Note_on_c, 0, 43, 0
2, 331376, Note_on_c, 0, 55, 0
2, 331585, Note_on_c, 0, 43, 33
2, 331773, Note_on_c, 0, 60, 0
2, 331843, Note_on_c, 0, 57, 0
2, 331862, Control_c, 0, 64, 127
2, 332117, Note_on_c, 0, 67, 0
2, 332249, Note_on_c, 0, 65, 0
2, 332278, Note_on_c, 0, 56, 36
2, 332298, Note_on_c, 0, 55, 37
2, 332306, Note_on_c, 0, 63, 25
2, 332309, Control_c, 0, 64, 0
2, 332323, Note_on_c, 0, 67, 22
2, 332356, Note_on_c, 0, 59, 18
2, 332450, Note_on_c, 0, 56, 0
2, 332453, Note_on_c, 0, 59, 0
2, 332582, Note_on_c, 0, 55, 0
2, 332681, Control_c, 0, 64, 127
2, 332794, Note_on_c, 0, 63, 0
2, 332940, Control_c, 0, 64, 0
2, 332942, Note_on_c, 0, 63, 18
2, 332943, Note_on_c, 0, 56, 34
2, 332962, Note_on_c, 0, 59, 48
2, 332977, Note_on_c, 0, 55, 35
2, 333060, Note_on_c, 0, 56, 0
2, 333112, Note_on_c, 0, 59, 0
2, 333204, Note_on_c, 0, 55, 0
2, 333294, Note_on_c, 0, 63, 0
2, 333341, Control_c, 0, 64, 127
2, 333644, Control_c, 0, 64, 0
2, 333649, Note_on_c, 0, 56, 34
2, 333655, Note_on_c, 0, 63, 25
2, 333658, Note_on_c, 0, 55, 42
2, 333659, Note_on_c, 0, 59, 51
2, 334003, Control_c, 0, 64, 127
2, 334999, Note_on_c, 0, 56, 0
2, 335088, Note_on_c, 0, 59, 0
2, 335572, Note_on_c, 0, 67, 0
2, 335672, Note_on_c, 0, 43, 0
2, 335695, Note_on_c, 0, 55, 0
2, 335750, Note_on_c, 0, 63, 0
2, 338770, Control_c, 0, 64, 0
2, 338953, Note_on_c, 0, 57, 33
2, 338959, Note_on_c, 0, 67, 31
2, 338972, Note_on_c, 0, 62, 39
2, 338976, Note_on_c, 0, 59, 28
2, 338985, Note_on_c, 0, 52, 34
2, 338991, Note_on_c, 0, 43, 33
2, 339059, Note_on_c, 0, 59, 0
2, 339079, Note_on_c, 0, 57, 0
2, 339092, Note_on_c, 0, 52, 0
2, 339120, Note_on_c, 0, 62, 0
2, 339149, Note_on_c, 0, 67, 0
2, 339161, Note_on_c, 0, 43, 0
2, 339902, Note_on_c, 0, 67, 48
2, 339919, Note_on_c, 0, 62, 41
2, 339937, Note_on_c, 0, 52, 33
2, 340017, Note_on_c, 0, 62, 0
2, 340019, Note_on_c, 0, 52, 0
2, 340077, Note_on_c, 0, 67, 0
2, 340781, Control_c, 0, 64, 127
2, 340782, Note_on_c, 0, 70, 33
2, 340849, Note_on_c, 0, 70, 0
2, 341104, Note_on_c, 0, 76, 74
2, 341119, Note_on_c, 0, 65, 68
2, 341125, Note_on_c, 0, 69, 56
2, 341127, Note_on_c, 0, 64, 54
2, 341130, Note_on_c, 0, 72, 57
2, 341131, Note_on_c, 0, 71, 57
2, 341142, Note_on_c, 0, 62, 65
2, 341188, Note_on_c, 0, 62, 0
2, 341220, Note_on_c, 0, 64, 0
2, 341226, Note_on_c, 0, 65, 0
2, 341237, Note_on_c, 0, 69, 0
2, 341243, Note_on_c, 0, 72, 0
2, 341250, Note_on_c, 0, 71, 0
2, 341256, Note_on_c, 0, 76, 0
2, 341302, Control_c, 0, 64, 0
2, 341362, Note_on_c, 0, 72, 63
2, 341374, Note_on_c, 0, 56, 43
2, 341414, Note_on_c, 0, 64, 40
2, 341419, Note_on_c, 0, 68, 44
2, 341621, Note_on_c, 0, 72, 0
2, 341648, Note_on_c, 0, 64, 0
2, 341674, Note_on_c, 0, 68, 0
2, 341807, Note_on_c, 0, 68, 29
2, 341813, Note_on_c, 0, 56, 0
2, 341867, Note_on_c, 0, 67, 28
2, 341869, Note_on_c, 0, 64, 32
2, 341873, Note_on_c, 0, 57, 40
2, 341876, Note_on_c, 0, 68, 0
2, 341881, Note_on_c, 0, 72, 24
2, 341883, Note_on_c, 0, 69, 40
2, 341933, Note_on_c, 0, 57, 0
2, 342824, Note_on_c, 0, 55, 47
2, 342880, Note_on_c, 0, 55, 0
2, 343373, Note_on_c, 0, 69, 0
2, 343394, Note_on_c, 0, 64, 0
2, 343416, Note_on_c, 0, 67, 0
2, 343434, Note_on_c, 0, 72, 0
2, 343583, Note_on_c, 0, 71, 72
2, 343775, Note_on_c, 0, 64, 26
2, 343776, Note_on_c, 0, 54, 27
2, 343811, Note_on_c, 0, 71, 0
2, 343828, Note_on_c, 0, 60, 29
2, 343832, Note_on_c, 0, 69, 50
2, 344021, Note_on_c, 0, 69, 0
2, 344284, Note_on_c, 0, 64, 0
2, 344372, Note_on_c, 0, 60, 0
2, 344558, Note_on_c, 0, 66, 58
2, 344711, Note_on_c, 0, 66, 0
2, 344782, Note_on_c, 0, 67, 41
2, 344846, Note_on_c, 0, 54, 0
2, 344965, Note_on_c, 0, 67, 0
2, 345066, Note_on_c, 0, 69, 70
2, 345204, Note_on_c, 0, 69, 0
2, 345652, Note_on_c, 0, 62, 37
2, 345668, Note_on_c, 0, 54, 26
2, 345672, Note_on_c, 0, 70, 54
2, 345675, Note_on_c, 0, 59, 32
2, 345879, Note_on_c, 0, 70, 0
2, 345897, Note_on_c, 0, 71, 57
2, 346017, Note_on_c, 0, 59, 0
2, 346033, Note_on_c, 0, 71, 0
2, 346136, Note_on_c, 0, 59, 25
2, 346137, Note_on_c, 0, 62, 0
2, 346225, Note_on_c, 0, 66, 59
2, 346400, Note_on_c, 0, 67, 45
2, 346487, Note_on_c, 0, 66, 0
2, 346529, Note_on_c, 0, 67, 0
2, 346538, Note_on_c, 0, 59, 0
2, 346766, Note_on_c, 0, 54, 0
2, 347607, Note_on_c, 0, 62, 34
2, 347611, Note_on_c, 0, 54, 30
2, 347647, Note_on_c, 0, 59, 26
2, 347746, Note_on_c, 0, 59, 0
2, 347772, Note_on_c, 0, 54, 0
2, 347778, Note_on_c, 0, 62, 0
2, 348351, Note_on_c, 0, 59, 33
2, 348359, Note_on_c, 0, 54, 31
2, 348367, Note_on_c, 0, 62, 27
2, 348466, Note_on_c, 0, 62, 0
2, 348494, Note_on_c, 0, 59, 0
2, 348609, Note_on_c, 0, 54, 0
2, 349055, Note_on_c, 0, 58, 31
2, 349064, Note_on_c, 0, 62, 31
2, 349072, Note_on_c, 0, 53, 30
2, 349079, Note_on_c, 0, 57, 39
2, 349247, Note_on_c, 0, 62, 0
2, 349258, Note_on_c, 0, 53, 0
2, 349267, Note_on_c, 0, 58, 0
2, 349276, Note_on_c, 0, 57, 0
2, 349791, Note_on_c, 0, 62, 48
2, 349820, Note_on_c, 0, 58, 34
2, 349839, Note_on_c, 0, 53, 28
2, 349857, Note_on_c, 0, 57, 27
2, 349903, Note_on_c, 0, 57, 0
2, 349911, Note_on_c, 0, 53, 0
2, 349932, Note_on_c, 0, 62, 0
2, 349966, Note_on_c, 0, 58, 0
2, 350484, Note_on_c, 0, 62, 41
2, 350491, Note_on_c, 0, 58, 38
2, 350516, Note_on_c, 0, 57, 40
2, 350518, Note_on_c, 0, 53, 28
2, 350561, Note_on_c, 0, 62, 0
2, 350581, Note_on_c, 0, 57, 0
2, 350585, Note_on_c, 0, 53, 0
2, 350639, Note_on_c, 0, 58, 0
2, 350962, Note_on_c, 0, 70, 85
2, 350963, Note_on_c, 0, 67, 96
2, 351181, Note_on_c, 0, 67, 0
2, 351212, Note_on_c, 0, 70, 0
2, 351247, Note_on_c, 0, 69, 69
2, 351251, Note_on_c, 0, 65, 64
2, 351360, Note_on_c, 0, 65, 0
2, 351404, Note_on_c, 0, 69, 0
2, 351452, Note_on_c, 0, 64, 46
2, 351466, Note_on_c, 0, 67, 60
2, 351690, Note_on_c, 0, 67, 0
2, 351734, Note_on_c, 0, 64, 0
2, 352189, Note_on_c, 0, 64, 64
2, 352191, Note_on_c, 0, 60, 64
2, 352311, Note_on_c, 0, 60, 0
2, 352401, Note_on_c, 0, 64, 0
2, 352557, Note_on_c, 0, 65, 71
2, 352558, Note_on_c, 0, 62, 62
2, 352656, Note_on_c, 0, 58, 25
2, 352703, Note_on_c, 0, 62, 0
2, 352749, Note_on_c, 0, 58, 0
2, 352755, Note_on_c, 0, 65, 0
2, 352878, Note_on_c, 0, 67, 58
2, 352891, Note_on_c, 0, 64, 65
2, 353040, Note_on_c, 0, 64, 0
2, 353114, Note_on_c, 0, 67, 0
2, 353245, Note_on_c, 0, 69, 60
2, 353260, Note_on_c, 0, 64, 48
2, 353320, Note_on_c, 0, 60, 22
2, 353342, Note_on_c, 0, 53, 17
2, 353351, Note_on_c, 0, 57, 22
2, 353752, Control_c, 0, 64, 127
2, 353753, Note_on_c, 0, 64, 0
2, 353784, Note_on_c, 0, 69, 0
2, 353904, Note_on_c, 0, 60, 0
2, 354098, Note_on_c, 0, 57, 0
2, 354345, Note_on_c, 0, 60, 48
2, 354348, Note_on_c, 0, 64, 45
2, 354385, Note_on_c, 0, 57, 24
2, 354661, Note_on_c, 0, 64, 0
2, 354704, Note_on_c, 0, 53, 0
2, 354709, Note_on_c, 0, 57, 0
2, 354712, Note_on_c, 0, 60, 0
2, 354811, Note_on_c, 0, 84, 71
2, 354817, Note_on_c, 0, 72, 71
2, 354823, Note_on_c, 0, 79, 60
2, 354907, Note_on_c, 0, 72, 0
2, 354944, Note_on_c, 0, 79, 0
2, 354975, Note_on_c, 0, 84, 0
2, 355291, Note_on_c, 0, 80, 85
2, 355294, Note_on_c, 0, 63, 69
2, 355295, Note_on_c, 0, 56, 67
2, 355296, Note_on_c, 0, 92, 85
2, 355308, Note_on_c, 0, 67, 82
2, 355310, Note_on_c, 0, 87, 79
2, 355313, Note_on_c, 0, 60, 74
2, 355359, Control_c, 0, 64, 0
2, 355562, Control_c, 0, 64, 127
2, 355931, Note_on_c, 0, 67, 0
2, 356007, Note_on_c, 0, 63, 0
2, 356015, Note_on_c, 0, 80, 0
2, 356020, Note_on_c, 0, 56, 0
2, 356034, Note_on_c, 0, 87, 0
2, 356080, Note_on_c, 0, 92, 0
2, 356089, Note_on_c, 0, 60, 0
2, 356253, Note_on_c, 0, 82, 85
2, 356258, Note_on_c, 0, 66, 83
2, 356259, Note_on_c, 0, 94, 80
2, 356263, Note_on_c, 0, 62, 73
2, 356266, Note_on_c, 0, 56, 67
2, 356267, Note_on_c, 0, 87, 81
2, 356281, Note_on_c, 0, 60, 65
2, 356309, Note_on_c, 0, 92, 27
2, 356350, Control_c, 0, 64, 0
2, 356367, Note_on_c, 0, 92, 0
2, 356494, Control_c, 0, 64, 127
2, 356660, Note_on_c, 0, 62, 0
2, 356667, Note_on_c, 0, 60, 0
2, 356691, Note_on_c, 0, 66, 0
2, 356693, Note_on_c, 0, 94, 0
2, 356757, Note_on_c, 0, 82, 0
2, 356759, Note_on_c, 0, 56, 0
2, 356886, Note_on_c, 0, 87, 0
2, 357231, Note_on_c, 0, 62, 80
2, 357232, Note_on_c, 0, 59, 64
2, 357235, Note_on_c, 0, 91, 80
2, 357244, Note_on_c, 0, 79, 77
2, 357246, Note_on_c, 0, 86, 77
2, 357249, Note_on_c, 0, 55, 60
2, 357263, Note_on_c, 0, 52, 58
2, 357298, Control_c, 0, 64, 0
2, 357527, Control_c, 0, 64, 127
2, 358473, Note_on_c, 0, 91, 0
2, 358487, Note_on_c, 0, 86, 0
2, 358523, Note_on_c, 0, 52, 0
2, 358546, Note_on_c, 0, 55, 0
2, 358566, Note_on_c, 0, 79, 0
2, 358570, Note_on_c, 0, 62, 0
2, 358587, Note_on_c, 0, 59, 0
2, 358978, Note_on_c, 0, 89, 72
2, 358990, Note_on_c, 0, 77, 54
2, 359077, Note_on_c, 0, 89, 0
2, 359079, Note_on_c, 0, 77, 0
2, 359176, Note_on_c, 0, 62, 51
2, 359190, Note_on_c, 0, 88, 76
2, 359194, Note_on_c, 0, 76, 62
2, 359203, Note_on_c, 0, 59, 37
2, 359205, Note_on_c, 0, 52, 44
2, 359222, Control_c, 0, 64, 0
2, 359242, Note_on_c, 0, 55, 35
2, 359466, Note_on_c, 0, 85, 20
2, 359521, Note_on_c, 0, 85, 0
2, 359524, Control_c, 0, 64, 127
2, 359558, Note_on_c, 0, 88, 0
2, 359657, Note_on_c, 0, 76, 0
2, 359716, Note_on_c, 0, 52, 0
2, 359733, Note_on_c, 0, 55, 0
2, 359740, Note_on_c, 0, 62, 0
2, 359769, Note_on_c, 0, 59, 0
2, 359918, Note_on_c, 0, 84, 55
2, 359927, Note_on_c, 0, 72, 59
2, 360004, Note_on_c, 0, 72, 0
2, 360030, Note_on_c, 0, 84, 0
2, 360113, Control_c, 0, 64, 0
2, 360131, Note_on_c, 0, 62, 54
2, 360142, Note_on_c, 0, 74, 58
2, 360144, Note_on_c, 0, 86, 63
2, 360158, Note_on_c, 0, 59, 37
2, 360270, Note_on_c, 0, 62, 0
2, 360274, Note_on_c, 0, 74, 0
2, 360284, Note_on_c, 0, 86, 0
2, 360320, Note_on_c, 0, 59, 0
2, 360600, Note_on_c, 0, 62, 35
2, 360618, Note_on_c, 0, 76, 66
2, 360631, Note_on_c, 0, 88, 66
2, 360648, Note_on_c, 0, 55, 24
2, 360691, Note_on_c, 0, 62, 0
2, 360703, Control_c, 0, 64, 127
2, 360734, Note_on_c, 0, 76, 0
2, 360748, Note_on_c, 0, 55, 0
2, 360781, Note_on_c, 0, 88, 0
2, 360831, Control_c, 0, 64, 0
2, 361089, Control_c, 0, 64, 127
2, 361420, Control_c, 0, 64, 0
2, 361528, Note_on_c, 0, 58, 72
2, 361533, Note_on_c, 0, 62, 82
2, 361542, Note_on_c, 0, 79, 79
2, 361543, Note_on_c, 0, 91, 82
2, 361546, Note_on_c, 0, 52, 72
2, 361547, Note_on_c, 0, 86, 76
2, 361610, Control_c, 0, 64, 127
2, 361676, Note_on_c, 0, 52, 0
2, 361777, Note_on_c, 0, 62, 0
2, 361789, Note_on_c, 0, 58, 0
2, 361806, Note_on_c, 0, 79, 0
2, 361854, Note_on_c, 0, 91, 0
2, 361864, Note_on_c, 0, 86, 0
2, 362262, Note_on_c, 0, 94, 79
2, 362276, Note_on_c, 0, 82, 81
2, 362287, Note_on_c, 0, 62, 77
2, 362298, Note_on_c, 0, 67, 85
2, 362299, Note_on_c, 0, 56, 76
2, 362309, Note_on_c, 0, 95, 66
2, 362332, Control_c, 0, 64, 0
2, 362418, Control_c, 0, 64, 127
2, 362551, Note_on_c, 0, 95, 0
2, 362556, Note_on_c, 0, 82, 0
2, 362601, Note_on_c, 0, 94, 0
2, 362642, Note_on_c, 0, 67, 0
2, 362694, Note_on_c, 0, 62, 0
2, 362774, Note_on_c, 0, 56, 0
2, 362939, Note_on_c, 0, 55, 80
2, 362940, Note_on_c, 0, 66, 76
2, 362943, Note_on_c, 0, 96, 87
2, 362946, Note_on_c, 0, 61, 64
2, 362960, Note_on_c, 0, 93, 79
2, 362963, Note_on_c, 0, 84, 73
2, 362966, Control_c, 0, 64, 0
2, 362995, Note_on_c, 0, 92, 32
2, 363045, Note_on_c, 0, 92, 0
2, 363183, Control_c, 0, 64, 127
2, 363191, Note_on_c, 0, 93, 0
2, 363214, Note_on_c, 0, 96, 0
2, 363293, Note_on_c, 0, 84, 0
2, 363403, Note_on_c, 0, 55, 0
2, 363429, Note_on_c, 0, 66, 0
2, 363549, Note_on_c, 0, 61, 0
2, 363691, Note_on_c, 0, 93, 57
2, 363702, Note_on_c, 0, 61, 55
2, 363707, Note_on_c, 0, 85, 52
2, 363710, Note_on_c, 0, 81, 44
2, 363716, Note_on_c, 0, 65, 62
2, 363717, Note_on_c, 0, 55, 58
2, 363731, Note_on_c, 0, 88, 55
2, 363742, Control_c, 0, 64, 0
2, 363759, Note_on_c, 0, 91, 25
2, 363973, Control_c, 0, 64, 127
2, 364125, Note_on_c, 0, 93, 0
2, 364155, Note_on_c, 0, 91, 0
2, 364182, Note_on_c, 0, 88, 0
2, 364254, Note_on_c, 0, 85, 0
2, 364260, Note_on_c, 0, 65, 0
2, 364278, Note_on_c, 0, 81, 0
2, 364364, Note_on_c, 0, 61, 0
2, 364409, Note_on_c, 0, 55, 0
2, 365441, Note_on_c, 0, 62, 62
2, 365466, Note_on_c, 0, 53, 49
2, 365527, Note_on_c, 0, 57, 24
2, 365543, Note_on_c, 0, 53, 0
2, 365587, Note_on_c, 0, 57, 0
2, 365600, Note_on_c, 0, 62, 0
2, 365610, Control_c, 0, 64, 0
2, 365870, Note_on_c, 0, 64, 64
2, 365876, Note_on_c, 0, 55, 68
2, 365884, Note_on_c, 0, 48, 46
2, 365922, Note_on_c, 0, 59, 28
2, 365962, Note_on_c, 0, 55, 0
2, 365975, Note_on_c, 0, 48, 0
2, 365978, Note_on_c, 0, 59, 0
2, 366011, Note_on_c, 0, 64, 0
2, 366217, Note_on_c, 0, 65, 66
2, 366230, Note_on_c, 0, 57, 49
2, 366231, Note_on_c, 0, 50, 36
2, 366287, Note_on_c, 0, 57, 0
2, 366293, Note_on_c, 0, 50, 0
2, 366337, Note_on_c, 0, 65, 0
2, 366565, Note_on_c, 0, 69, 63
2, 366586, Control_c, 0, 64, 127
2, 366615, Note_on_c, 0, 69, 0
2, 366758, Control_c, 0, 64, 0
2, 366861, Note_on_c, 0, 67, 29
2, 366863, Note_on_c, 0, 57, 54
2, 366870, Note_on_c, 0, 62, 51
2, 367247, Control_c, 0, 64, 127
2, 367365, Note_on_c, 0, 43, 71
2, 367382, Note_on_c, 0, 57, 0
2, 367393, Note_on_c, 0, 62, 0
2, 367444, Note_on_c, 0, 67, 0
2, 367520, Control_c, 0, 64, 0
2, 367706, Control_c, 0, 64, 127
2, 368060, Note_on_c, 0, 55, 52
2, 368115, Note_on_c, 0, 55, 0
2, 368152, Control_c, 0, 64, 0
2, 368265, Note_on_c, 0, 62, 58
2, 368421, Note_on_c, 0, 62, 0
2, 368561, Note_on_c, 0, 64, 38
2, 368683, Note_on_c, 0, 43, 0
2, 368688, Note_on_c, 0, 64, 0
2, 368753, Note_on_c, 0, 60, 47
2, 369037, Note_on_c, 0, 60, 0
2, 369682, Note_on_c, 0, 57, 39
2, 369691, Note_on_c, 0, 55, 22
2, 369697, Note_on_c, 0, 43, 30
2, 369707, Note_on_c, 0, 52, 25
2, 369762, Note_on_c, 0, 57, 0
2, 369784, Note_on_c, 0, 55, 0
2, 369820, Note_on_c, 0, 43, 0
2, 369824, Note_on_c, 0, 52, 0
2, 370669, Note_on_c, 0, 43, 28
2, 370759, Note_on_c, 0, 43, 0
2, 371346, Note_on_c, 0, 55, 44
2, 371349, Note_on_c, 0, 43, 33
2, 371443, Note_on_c, 0, 55, 0
2, 371465, Note_on_c, 0, 43, 0
2, 372034, Note_on_c, 0, 43, 24
2, 372039, Note_on_c, 0, 31, 33
2, 372041, Note_on_c, 0, 55, 42
2, 372502, Control_c, 0, 64, 127
2, 372558, Note_on_c, 0, 55, 0
2, 372711, Note_on_c, 0, 31, 0
2, 372803, Note_on_c, 0, 43, 0
2, 377363, Note_on_c, 0, 65, 43
2, 377388, Note_on_c, 0, 91, 57
2, 377392, Note_on_c, 0, 79, 41
2, 377435, Note_on_c, 0, 65, 0
2, 377440, Note_on_c, 0, 91, 0
2, 377451, Note_on_c, 0, 79, 0
2, 377457, Control_c, 0, 64, 0
2, 378348, Note_on_c, 0, 65, 38
2, 378356, Note_on_c, 0, 91, 52
2, 378359, Note_on_c, 0, 79, 41
2, 378376, Note_on_c, 0, 60, 36
2, 378389, Note_on_c, 0, 55, 24
2, 378425, Note_on_c, 0, 79, 0
2, 378426, Note_on_c, 0, 91, 0
2, 378452, Note_on_c, 0, 60, 0
2, 378454, Note_on_c, 0, 65, 0
2, 378458, Note_on_c, 0, 55, 0
2, 379096, Note_on_c, 0, 65, 45
2, 379105, Note_on_c, 0, 91, 62
2, 379127, Note_on_c, 0, 79, 29
2, 379130, Note_on_c, 0, 60, 34
2, 379150, Note_on_c, 0, 55, 20
2, 379152, Note_on_c, 0, 65, 0
2, 379188, Note_on_c, 0, 60, 0
2, 379190, Note_on_c, 0, 79, 0
2, 379237, Note_on_c, 0, 91, 0
2, 379245, Note_on_c, 0, 55, 0
2, 379620, Note_on_c, 0, 93, 71
2, 379629, Note_on_c, 0, 57, 64
2, 379763, Note_on_c, 0, 57, 0
2, 379820, Note_on_c, 0, 93, 0
2, 379877, Note_on_c, 0, 91, 49
2, 379880, Note_on_c, 0, 55, 47
2, 380732, Note_on_c, 0, 55, 0
2, 381249, Note_on_c, 0, 79, 48
2, 381257, Note_on_c, 0, 43, 48
2, 381464, Note_on_c, 0, 79, 0
2, 381588, Note_on_c, 0, 79, 40
2, 381614, Note_on_c, 0, 91, 0
2, 381671, Note_on_c, 0, 79, 0
2, 381765, Note_on_c, 0, 43, 0
2, 385033, Note_on_c, 0, 31, 34
2, 385036, Note_on_c, 0, 55, 46
2, 385041, Note_on_c, 0, 43, 27
2, 385188, Note_on_c, 0, 55, 0
2, 385296, Note_on_c, 0, 55, 35
2, 385423, Note_on_c, 0, 55, 0
2, 385480, Note_on_c, 0, 43, 0
2, 385488, Note_on_c, 0, 31, 0
2, 385983, Note_on_c, 0, 55, 44
2, 385995, Note_on_c, 0, 43, 22
2, 385996, Note_on_c, 0, 31, 24
2, 386067, Note_on_c, 0, 55, 0
2, 386098, Note_on_c, 0, 43, 0
2, 386119, Note_on_c, 0, 31, 0
2, 386783, Note_on_c, 0, 43, 37
2, 386796, Note_on_c, 0, 31, 32
2, 386875, Note_on_c, 0, 43, 0
2, 386897, Note_on_c, 0, 31, 0
2, 387012, Note_on_c, 0, 66, 61
2, 387143, Note_on_c, 0, 66, 0
2, 387280, Note_on_c, 0, 67, 84
2, 387512, Note_on_c, 0, 66, 56
2, 387538, Note_on_c, 0, 67, 0
2, 387774, Note_on_c, 0, 62, 66
2, 387883, Note_on_c, 0, 66, 0
2, 387919, Note_on_c, 0, 62, 0
2, 388294, Note_on_c, 0, 54, 59
2, 388478, Note_on_c, 0, 54, 0
2, 388564, Note_on_c, 0, 52, 17
2, 388822, Note_on_c, 0, 52, 0
2, 388953, Note_on_c, 0, 54, 53
2, 389452, Note_on_c, 0, 50, 24
2, 389589, Note_on_c, 0, 50, 0
2, 389593, Note_on_c, 0, 54, 0
2, 392577, Note_on_c, 0, 38, 17
2, 392709, Note_on_c, 0, 43, 47
2, 392732, Note_on_c, 0, 55, 46
2, 392754, Note_on_c, 0, 31, 30
2, 392812, Note_on_c, 0, 38, 0
2, 392880, Note_on_c, 0, 55, 0
2, 392908, Note_on_c, 0, 43, 0
2, 392940, Note_on_c, 0, 31, 0
2, 393699, Note_on_c, 0, 31, 32
2, 393731, Note_on_c, 0, 43, 19
2, 393737, Note_on_c, 0, 55, 31
2, 393819, Note_on_c, 0, 55, 0
2, 393859, Note_on_c, 0, 43, 0
2, 393951, Note_on_c, 0, 31, 0
2, 394366, Note_on_c, 0, 31, 33
2, 394393, Note_on_c, 0, 43, 20
2, 394415, Note_on_c, 0, 55, 25
2, 394482, Note_on_c, 0, 55, 0
2, 394516, Note_on_c, 0, 43, 0
2, 394593, Note_on_c, 0, 31, 0
2, 395030, Note_on_c, 0, 31, 35
2, 395049, Note_on_c, 0, 43, 25
2, 395982, Note_on_c, 0, 60, 60
2, 396031, Note_on_c, 0, 60, 0
2, 396323, Note_on_c, 0, 64, 94
2, 396482, Note_on_c, 0, 64, 0
2, 396560, Note_on_c, 0, 65, 81
2, 396724, Note_on_c, 0, 65, 0
2, 396841, Note_on_c, 0, 64, 72
2, 396981, Note_on_c, 0, 64, 0
2, 397035, Note_on_c, 0, 60, 44
2, 397220, Note_on_c, 0, 60, 0
2, 397313, Note_on_c, 0, 55, 55
2, 397465, Note_on_c, 0, 55, 0
2, 397559, Note_on_c, 0, 53, 38
2, 397880, Note_on_c, 0, 53, 0
2, 397983, Note_on_c, 0, 52, 44
2, 398255, Note_on_c, 0, 52, 0
2, 398528, Note_on_c, 0, 43, 0
2, 398580, Note_on_c, 0, 31, 0
2, 400419, Note_on_c, 0, 31, 30
2, 400436, Note_on_c, 0, 43, 22
2, 400521, Note_on_c, 0, 43, 0
2, 400536, Note_on_c, 0, 31, 0
2, 401364, Note_on_c, 0, 31, 31
2, 401381, Note_on_c, 0, 43, 22
2, 401483, Note_on_c, 0, 43, 0
2, 401498, Note_on_c, 0, 31, 0
2, 402082, Note_on_c, 0, 31, 35
2, 402094, Note_on_c, 0, 43, 32
2, 402150, Note_on_c, 0, 31, 0
2, 402186, Note_on_c, 0, 43, 0
2, 402795, Note_on_c, 0, 67, 58
2, 402796, Note_on_c, 0, 56, 61
2, 402800, Note_on_c, 0, 60, 65
2, 402816, Note_on_c, 0, 55, 68
2, 402832, Note_on_c, 0, 63, 35
2, 403709, Note_on_c, 0, 67, 0
2, 403735, Note_on_c, 0, 65, 59
2, 403737, Note_on_c, 0, 55, 0
2, 403838, Note_on_c, 0, 60, 0
2, 403857, Note_on_c, 0, 63, 0
2, 403858, Note_on_c, 0, 56, 0
2, 403935, Note_on_c, 0, 65, 0
2, 404032, Note_on_c, 0, 60, 50
2, 404130, Note_on_c, 0, 60, 0
2, 404218, Note_on_c, 0, 56, 44
2, 404230, Note_on_c, 0, 67, 51
2, 404261, Note_on_c, 0, 60, 30
2, 404440, Note_on_c, 0, 67, 0
2, 404539, Note_on_c, 0, 65, 57
2, 404593, Note_on_c, 0, 60, 0
2, 404606, Note_on_c, 0, 65, 0
2, 404619, Note_on_c, 0, 56, 0
2, 405210, Note_on_c, 0, 67, 32
2, 405212, Note_on_c, 0, 56, 25
2, 405224, Note_on_c, 0, 55, 44
2, 405313, Note_on_c, 0, 55, 0
2, 405316, Note_on_c, 0, 56, 0
2, 405462, Note_on_c, 0, 67, 0
2, 405690, Note_on_c, 0, 65, 42
2, 405711, Note_on_c, 0, 53, 31
2, 405860, Note_on_c, 0, 65, 0
2, 405932, Note_on_c, 0, 53, 0
2, 406000, Note_on_c, 0, 67, 24
2, 406018, Note_on_c, 0, 55, 32
2, 406380, Note_on_c, 0, 67, 0
2, 406466, Note_on_c, 0, 55, 0
2, 406473, Note_on_c, 0, 65, 49
2, 406558, Note_on_c, 0, 53, 20
2, 406607, Note_on_c, 0, 53, 0
2, 406719, Note_on_c, 0, 65, 0
2, 408097, Note_on_c, 0, 43, 43
2, 408166, Note_on_c, 0, 43, 0
2, 409030, Note_on_c, 0, 43, 37
2, 409162, Note_on_c, 0, 43, 0
2, 409747, Note_on_c, 0, 43, 42
2, 409837, Note_on_c, 0, 43, 0
2, 410448, Note_on_c, 0, 36, 50
2, 411047, Note_on_c, 0, 48, 55
2, 411052, Note_on_c, 0, 36, 0
2, 411756, Note_on_c, 0, 48, 0
2, 411857, Note_on_c, 0, 43, 47
2, 413748, Note_on_c, 0, 43, 0
2, 415767, Note_on_c, 0, 67, 43
2, 415792, Note_on_c, 0, 57, 32
2, 415794, Note_on_c, 0, 65, 38
2, 415797, Note_on_c, 0, 55, 58
2, 415815, Note_on_c, 0, 60, 35
2, 415900, Note_on_c, 0, 55, 0
2, 415901, Note_on_c, 0, 57, 0
2, 415909, Note_on_c, 0, 60, 0
2, 416013, Note_on_c, 0, 57, 33
2, 416145, Note_on_c, 0, 57, 0
2, 416196, Note_on_c, 0, 65, 0
2, 416199, Note_on_c, 0, 67, 0
2, 416731, Note_on_c, 0, 67, 28
2, 416749, Note_on_c, 0, 60, 35
2, 416762, Note_on_c, 0, 55, 40
2, 416763, Note_on_c, 0, 65, 34
2, 416808, Note_on_c, 0, 60, 0
2, 416824, Note_on_c, 0, 55, 0
2, 416834, Note_on_c, 0, 67, 0
2, 416838, Note_on_c, 0, 65, 0
2, 417421, Note_on_c, 0, 67, 30
2, 417444, Note_on_c, 0, 55, 41
2, 417471, Note_on_c, 0, 65, 25
2, 417505, Note_on_c, 0, 55, 0
2, 417551, Note_on_c, 0, 67, 0
2, 417564, Note_on_c, 0, 65, 0
2, 417564, End_track
3, 0, Start_track
3, 0, Title_t, ""
3, 487, Program_c, 1, 32
3, 488, Control_c, 1, 7, 127
3, 8685, Note_on_c, 1, 31, 99
3, 9390, Note_on_c, 1, 31, 0
3, 9649, Note_on_c, 1, 31, 97
3, 10154, Note_on_c, 1, 31, 0
3, 10329, Note_on_c, 1, 31, 91
3, 10729, Note_on_c, 1, 31, 0
3, 11011, Note_on_c, 1, 31, 100
3, 16394, Note_on_c, 1, 43, 99
3, 17015, Note_on_c, 1, 43, 0
3, 17342, Note_on_c, 1, 43, 91
3, 17789, Note_on_c, 1, 43, 0
3, 18029, Note_on_c, 1, 43, 90
3, 18340, Note_on_c, 1, 43, 0
3, 18752, Note_on_c, 1, 43, 108
3, 19837, Note_on_c, 1, 31, 0
3, 23846, Note_on_c, 1, 43, 0
3, 24062, Note_on_c, 1, 43, 98
3, 24473, Note_on_c, 1, 43, 0
3, 24996, Note_on_c, 1, 43, 93
3, 25399, Note_on_c, 1, 43, 0
3, 25703, Note_on_c, 1, 43, 94
3, 25955, Note_on_c, 1, 43, 0
3, 26385, Note_on_c, 1, 31, 94
3, 31395, Note_on_c, 1, 31, 0
3, 31705, Note_on_c, 1, 31, 90
3, 32246, Note_on_c, 1, 31, 0
3, 32649, Note_on_c, 1, 31, 90
3, 33111, Note_on_c, 1, 31, 0
3, 33337, Note_on_c, 1, 31, 89
3, 33635, Note_on_c, 1, 31, 0
3, 33991, Note_on_c, 1, 31, 99
3, 38993, Note_on_c, 1, 31, 0
3, 39377, Note_on_c, 1, 31, 99
3, 39729, Note_on_c, 1, 31, 0
3, 40355, Note_on_c, 1, 31, 90
3, 40740, Note_on_c, 1, 31, 0
3, 41047, Note_on_c, 1, 31, 96
3, 41328, Note_on_c, 1, 31, 0
3, 41734, Note_on_c, 1, 31, 103
3, 46704, Note_on_c, 1, 31, 0
3, 47079, Note_on_c, 1, 31, 93
3, 47424, Note_on_c, 1, 31, 0
3, 48032, Note_on_c, 1, 31, 86
3, 48409, Note_on_c, 1, 31, 0
3, 48701, Note_on_c, 1, 31, 88
3, 48986, Note_on_c, 1, 31, 0
3, 49412, Note_on_c, 1, 31, 101
3, 54628, Note_on_c, 1, 31, 0
3, 54787, Note_on_c, 1, 31, 80
3, 54992, Note_on_c, 1, 31, 0
3, 55076, Note_on_c, 1, 31, 89
3, 55385, Note_on_c, 1, 31, 0
3, 55745, Note_on_c, 1, 31, 88
3, 56074, Note_on_c, 1, 31, 0
3, 56439, Note_on_c, 1, 31, 82
3, 56768, Note_on_c, 1, 31, 0
3, 57175, Note_on_c, 1, 31, 93
3, 62121, Note_on_c, 1, 31, 0
3, 62451, Note_on_c, 1, 31, 91
3, 62761, Note_on_c, 1, 31, 0
3, 63399, Note_on_c, 1, 31, 92
3, 64686, Note_on_c, 1, 31, 0
3, 64791, Note_on_c, 1, 39, 61
3, 65169, Note_on_c, 1, 39, 0
3, 65191, Note_on_c, 1, 40, 78
3, 65326, Note_on_c, 1, 40, 0
3, 65338, Note_on_c, 1, 33, 82
3, 66070, Note_on_c, 1, 33, 0
3, 66301, Note_on_c, 1, 40, 63
3, 66595, Note_on_c, 1, 40, 0
3, 66750, Note_on_c, 1, 36, 58
3, 67161, Note_on_c, 1, 36, 0
3, 67299, Note_on_c, 1, 38, 33
3, 67590, Note_on_c, 1, 38, 0
3, 67731, Note_on_c, 1, 38, 64
3, 68166, Note_on_c, 1, 38, 0
3, 68199, Note_on_c, 1, 45, 73
3, 68631, Note_on_c, 1, 45, 0
3, 68678, Note_on_c, 1, 42, 69
3, 69126, Note_on_c, 1, 42, 0
3, 69133, Note_on_c, 1, 43, 58
3, 69633, Note_on_c, 1, 50, 80
3, 69655, Note_on_c, 1, 43, 0
3, 70084, Note_on_c, 1, 50, 0
3, 70135, Note_on_c, 1, 47, 70
3, 70589, Note_on_c, 1, 47, 0
3, 70615, Note_on_c, 1, 43, 52
3, 71044, Note_on_c, 1, 43, 0
3, 71114, Note_on_c, 1, 47, 71
3, 71591, Note_on_c, 1, 42, 70
3, 71943, Note_on_c, 1, 42, 0
3, 72058, Note_on_c, 1, 43, 62
3, 72414, Note_on_c, 1, 43, 0
3, 72481, Note_on_c, 1, 47, 0
3, 72526, Note_on_c, 1, 42, 66
3, 72958, Note_on_c, 1, 42, 0
3, 73044, Note_on_c, 1, 43, 53
3, 73440, Note_on_c, 1, 43, 0
3, 73501, Note_on_c, 1, 38, 73
3, 73889, Note_on_c, 1, 38, 0
3, 73990, Note_on_c, 1, 34, 55
3, 74417, Note_on_c, 1, 34, 0
3, 74486, Note_on_c, 1, 35, 75
3, 74944, Note_on_c, 1, 35, 0
3, 74961, Note_on_c, 1, 36, 79
3, 75274, Note_on_c, 1, 36, 0
3, 75466, Note_on_c, 1, 36, 83
3, 75945, Note_on_c, 1, 45, 104
3, 75946, Note_on_c, 1, 36, 0
3, 76409, Note_on_c, 1, 45, 0
3, 76449, Note_on_c, 1, 43, 77
3, 76871, Note_on_c, 1, 43, 0
3, 76935, Note_on_c, 1, 41, 72
3, 77280, Note_on_c, 1, 41, 0
3, 77393, Note_on_c, 1, 41, 67
3, 77806, Note_on_c, 1, 41, 0
3, 77869, Note_on_c, 1, 36, 71
3, 78737, Note_on_c, 1, 36, 0
3, 78756, Note_on_c, 1, 29, 58
3, 79220, Note_on_c, 1, 41, 73
3, 79475, Note_on_c, 1, 29, 0
3, 79670, Note_on_c, 1, 41, 0
3, 79712, Note_on_c, 1, 34, 67
3, 80212, Note_on_c, 1, 46, 51
3, 80285, Note_on_c, 1, 46, 0
3, 80438, Note_on_c, 1, 34, 0
3, 80592, Note_on_c, 1, 35, 53
3, 80647, Note_on_c, 1, 35, 0
3, 80694, Note_on_c, 1, 36, 80
3, 81125, Note_on_c, 1, 36, 0
3, 81137, Note_on_c, 1, 36, 77
3, 81632, Note_on_c, 1, 45, 76
3, 81635, Note_on_c, 1, 36, 0
3, 82105, Note_on_c, 1, 45, 0
3, 82154, Note_on_c, 1, 43, 59
3, 82519, Note_on_c, 1, 43, 0
3, 82611, Note_on_c, 1, 50, 73
3, 83041, Note_on_c, 1, 50, 0
3, 83140, Note_on_c, 1, 48, 54
3, 83517, Note_on_c, 1, 48, 0
3, 83600, Note_on_c, 1, 43, 41
3, 83991, Note_on_c, 1, 43, 0
3, 84052, Note_on_c, 1, 39, 78
3, 84477, Note_on_c, 1, 39, 0
3, 84513, Note_on_c, 1, 40, 65
3, 85011, Note_on_c, 1, 40, 0
3, 85033, Note_on_c, 1, 46, 96
3, 85441, Note_on_c, 1, 46, 0
3, 85482, Note_on_c, 1, 34, 52
3, 85814, Note_on_c, 1, 34, 0
3, 85920, Note_on_c, 1, 32, 49
3, 86372, Note_on_c, 1, 32, 0
3, 86420, Note_on_c, 1, 33, 58
3, 86819, Note_on_c, 1, 33, 0
3, 86919, Note_on_c, 1, 36, 67
3, 87332, Note_on_c, 1, 36, 0
3, 87383, Note_on_c, 1, 37, 68
3, 87776, Note_on_c, 1, 37, 0
3, 87891, Note_on_c, 1, 37, 67
3, 88278, Note_on_c, 1, 37, 0
3, 88358, Note_on_c, 1, 38, 63
3, 88669, Note_on_c, 1, 38, 0
3, 88823, Note_on_c, 1, 40, 59
3, 89277, Note_on_c, 1, 40, 0
3, 89322, Note_on_c, 1, 41, 48
3, 89770, Note_on_c, 1, 42, 83
3, 89773, Note_on_c, 1, 41, 0
3, 90150, Note_on_c, 1, 42, 0
3, 90244, Note_on_c, 1, 43, 73
3, 90714, Note_on_c, 1, 31, 89
3, 91594, Note_on_c, 1, 31, 0
3, 91694, Note_on_c, 1, 31, 81
3, 92013, Note_on_c, 1, 31, 0
3, 92086, Note_on_c, 1, 43, 0
3, 93134, Note_on_c, 1, 31, 65
3, 93402, Note_on_c, 1, 31, 0
3, 94084, Note_on_c, 1, 31, 69
3, 94384, Note_on_c, 1, 31, 0
3, 94768, Note_on_c, 1, 31, 72
3, 94986, Note_on_c, 1, 31, 0
3, 95421, Note_on_c, 1, 31, 74
3, 95837, Note_on_c, 1, 31, 0
3, 95909, Note_on_c, 1, 36, 84
3, 96750, Note_on_c, 1, 34, 28
3, 96890, Note_on_c, 1, 38, 64
3, 96905, Note_on_c, 1, 34, 0
3, 96910, Note_on_c, 1, 36, 0
3, 97805, Note_on_c, 1, 38, 0
3, 97841, Note_on_c, 1, 36, 50
3, 97942, Note_on_c, 1, 36, 0
3, 97972, Note_on_c, 1, 40, 61
3, 98759, Note_on_c, 1, 40, 0
3, 98838, Note_on_c, 1, 38, 45
3, 99646, Note_on_c, 1, 38, 0
3, 99661, Note_on_c, 1, 34, 45
3, 99856, Note_on_c, 1, 34, 0
3, 99863, Note_on_c, 1, 36, 45
3, 100631, Note_on_c, 1, 34, 57
3, 100697, Note_on_c, 1, 36, 0
3, 100825, Note_on_c, 1, 34, 0
3, 100829, Note_on_c, 1, 45, 67
3, 101197, Note_on_c, 1, 45, 0
3, 101294, Note_on_c, 1, 44, 61
3, 101712, Note_on_c, 1, 44, 0
3, 101777, Note_on_c, 1, 43, 55
3, 102198, Note_on_c, 1, 43, 0
3, 102275, Note_on_c, 1, 40, 53
3, 102691, Note_on_c, 1, 40, 0
3, 102762, Note_on_c, 1, 41, 70
3, 103178, Note_on_c, 1, 41, 0
3, 103238, Note_on_c, 1, 39, 68
3, 103351, Note_on_c, 1, 38, 29
3, 103357, Note_on_c, 1, 39, 0
3, 103459, Note_on_c, 1, 38, 0
3, 103713, Note_on_c, 1, 40, 57
3, 104202, Note_on_c, 1, 38, 88
3, 104339, Note_on_c, 1, 40, 0
3, 104583, Note_on_c, 1, 38, 0
3, 104697, Note_on_c, 1, 36, 83
3, 105389, Note_on_c, 1, 36, 0
3, 105457, Note_on_c, 1, 34, 61
3, 105530, Note_on_c, 1, 34, 0
3, 105641, Note_on_c, 1, 33, 75
3, 106398, Note_on_c, 1, 37, 64
3, 106439, Note_on_c, 1, 33, 0
3, 106497, Note_on_c, 1, 37, 0
3, 106535, Note_on_c, 1, 40, 77
3, 107015, Note_on_c, 1, 40, 0
3, 107065, Note_on_c, 1, 37, 64
3, 107518, Note_on_c, 1, 37, 0
3, 107537, Note_on_c, 1, 38, 68
3, 107959, Note_on_c, 1, 37, 52
3, 108007, Note_on_c, 1, 38, 0
3, 108029, Note_on_c, 1, 48, 82
3, 108128, Note_on_c, 1, 37, 0
3, 108422, Note_on_c, 1, 48, 0
3, 108545, Note_on_c, 1, 45, 43
3, 108890, Note_on_c, 1, 42, 52
3, 108913, Note_on_c, 1, 45, 0
3, 108945, Note_on_c, 1, 42, 0
3, 109012, Note_on_c, 1, 52, 77
3, 109424, Note_on_c, 1, 52, 0
3, 109497, Note_on_c, 1, 50, 65
3, 109889, Note_on_c, 1, 50, 0
3, 109984, Note_on_c, 1, 48, 52
3, 110403, Note_on_c, 1, 48, 0
3, 110458, Note_on_c, 1, 47, 61
3, 110855, Note_on_c, 1, 47, 0
3, 110900, Note_on_c, 1, 45, 64
3, 111286, Note_on_c, 1, 45, 0
3, 111411, Note_on_c, 1, 41, 55
3, 111828, Note_on_c, 1, 41, 0
3, 111869, Note_on_c, 1, 38, 79
3, 112372, Note_on_c, 1, 45, 80
3, 112400, Note_on_c, 1, 38, 0
3, 112798, Note_on_c, 1, 45, 0
3, 112848, Note_on_c, 1, 41, 67
3, 113209, Note_on_c, 1, 41, 0
3, 113313, Note_on_c, 1, 45, 66
3, 113706, Note_on_c, 1, 45, 0
3, 113805, Note_on_c, 1, 44, 71
3, 114208, Note_on_c, 1, 44, 0
3, 114295, Note_on_c, 1, 43, 57
3, 114726, Note_on_c, 1, 43, 0
3, 114756, Note_on_c, 1, 38, 78
3, 115201, Note_on_c, 1, 38, 0
3, 115235, Note_on_c, 1, 31, 66
3, 115574, Note_on_c, 1, 31, 0
3, 115726, Note_on_c, 1, 31, 72
3, 116199, Note_on_c, 1, 50, 89
3, 116201, Note_on_c, 1, 31, 0
3, 116638, Note_on_c, 1, 50, 0
3, 116695, Note_on_c, 1, 45, 60
3, 117092, Note_on_c, 1, 45, 0
3, 117168, Note_on_c, 1, 41, 64
3, 117593, Note_on_c, 1, 41, 0
3, 117636, Note_on_c, 1, 42, 62
3, 118041, Note_on_c, 1, 42, 0
3, 118129, Note_on_c, 1, 43, 70
3, 118510, Note_on_c, 1, 43, 0
3, 118615, Note_on_c, 1, 43, 61
3, 119017, Note_on_c, 1, 43, 0
3, 119056, Note_on_c, 1, 50, 76
3, 119447, Note_on_c, 1, 50, 0
3, 119536, Note_on_c, 1, 49, 69
3, 120014, Note_on_c, 1, 49, 0
3, 120051, Note_on_c, 1, 48, 61
3, 120400, Note_on_c, 1, 48, 0
3, 120496, Note_on_c, 1, 45, 49
3, 120858, Note_on_c, 1, 45, 0
3, 120964, Note_on_c, 1, 48, 73
3, 121401, Note_on_c, 1, 48, 0
3, 121421, Note_on_c, 1, 45, 55
3, 121834, Note_on_c, 1, 45, 0
3, 121977, Note_on_c, 1, 47, 57
3, 122349, Note_on_c, 1, 47, 0
3, 122422, Note_on_c, 1, 50, 85
3, 122823, Note_on_c, 1, 50, 0
3, 122919, Note_on_c, 1, 48, 64
3, 123184, Note_on_c, 1, 48, 0
3, 123406, Note_on_c, 1, 43, 54
3, 123687, Note_on_c, 1, 43, 0
3, 123876, Note_on_c, 1, 45, 58
3, 124247, Note_on_c, 1, 45, 0
3, 124304, Note_on_c, 1, 39, 69
3, 124355, Note_on_c, 1, 38, 60
3, 124561, Note_on_c, 1, 39, 0
3, 124564, Note_on_c, 1, 38, 0
3, 124794, Note_on_c, 1, 38, 81
3, 125204, Note_on_c, 1, 38, 0
3, 125283, Note_on_c, 1, 45, 73
3, 125649, Note_on_c, 1, 45, 0
3, 125790, Note_on_c, 1, 43, 56
3, 126208, Note_on_c, 1, 43, 0
3, 126243, Note_on_c, 1, 35, 62
3, 126713, Note_on_c, 1, 35, 0
3, 126736, Note_on_c, 1, 36, 83
3, 127604, Note_on_c, 1, 34, 58
3, 127606, Note_on_c, 1, 36, 0
3, 127732, Note_on_c, 1, 38, 82
3, 127847, Note_on_c, 1, 34, 0
3, 128474, Note_on_c, 1, 37, 62
3, 128478, Note_on_c, 1, 38, 0
3, 128646, Note_on_c, 1, 37, 0
3, 128656, Note_on_c, 1, 40, 62
3, 129102, Note_on_c, 1, 40, 0
3, 129159, Note_on_c, 1, 47, 90
3, 129574, Note_on_c, 1, 47, 0
3, 129725, Note_on_c, 1, 43, 23
3, 130078, Note_on_c, 1, 43, 0
3, 130158, Note_on_c, 1, 45, 70
3, 130515, Note_on_c, 1, 45, 0
3, 130628, Note_on_c, 1, 43, 70
3, 131012, Note_on_c, 1, 43, 0
3, 131081, Note_on_c, 1, 40, 66
3, 131536, Note_on_c, 1, 40, 0
3, 131597, Note_on_c, 1, 50, 83
3, 132003, Note_on_c, 1, 50, 0
3, 132019, Note_on_c, 1, 48, 63
3, 132429, Note_on_c, 1, 48, 0
3, 132550, Note_on_c, 1, 47, 61
3, 133009, Note_on_c, 1, 43, 58
3, 133332, Note_on_c, 1, 40, 44
3, 133377, Note_on_c, 1, 43, 0
3, 133379, Note_on_c, 1, 47, 0
3, 133401, Note_on_c, 1, 40, 0
3, 133504, Note_on_c, 1, 45, 67
3, 133917, Note_on_c, 1, 45, 0
3, 133956, Note_on_c, 1, 38, 77
3, 134381, Note_on_c, 1, 38, 0
3, 134442, Note_on_c, 1, 43, 47
3, 134787, Note_on_c, 1, 43, 0
3, 134902, Note_on_c, 1, 40, 63
3, 135321, Note_on_c, 1, 40, 0
3, 135393, Note_on_c, 1, 36, 68
3, 135671, Note_on_c, 1, 36, 0
3, 135859, Note_on_c, 1, 34, 83
3, 136302, Note_on_c, 1, 34, 0
3, 136369, Note_on_c, 1, 33, 67
3, 136838, Note_on_c, 1, 40, 71
3, 136857, Note_on_c, 1, 33, 0
3, 137313, Note_on_c, 1, 40, 0
3, 137337, Note_on_c, 1, 36, 60
3, 137722, Note_on_c, 1, 36, 0
3, 137808, Note_on_c, 1, 37, 68
3, 138276, Note_on_c, 1, 38, 80
3, 138278, Note_on_c, 1, 37, 0
3, 138730, Note_on_c, 1, 40, 83
3, 138766, Note_on_c, 1, 38, 0
3, 139207, Note_on_c, 1, 40, 0
3, 139261, Note_on_c, 1, 41, 69
3, 139593, Note_on_c, 1, 38, 47
3, 139646, Note_on_c, 1, 41, 0
3, 139680, Note_on_c, 1, 38, 0
3, 139721, Note_on_c, 1, 42, 71
3, 140068, Note_on_c, 1, 38, 40
3, 140128, Note_on_c, 1, 42, 0
3, 140153, Note_on_c, 1, 38, 0
3, 140209, Note_on_c, 1, 43, 63
3, 140624, Note_on_c, 1, 31, 75
3, 140889, Note_on_c, 1, 43, 0
3, 141129, Note_on_c, 1, 55, 83
3, 141220, Note_on_c, 1, 31, 0
3, 141562, Note_on_c, 1, 55, 0
3, 141585, Note_on_c, 1, 38, 38
3, 141655, Note_on_c, 1, 53, 56
3, 141668, Note_on_c, 1, 38, 0
3, 142004, Note_on_c, 1, 53, 0
3, 142103, Note_on_c, 1, 52, 63
3, 142481, Note_on_c, 1, 52, 0
3, 142605, Note_on_c, 1, 49, 39
3, 143018, Note_on_c, 1, 49, 0
3, 143056, Note_on_c, 1, 50, 71
3, 143529, Note_on_c, 1, 50, 0
3, 143569, Note_on_c, 1, 45, 62
3, 143901, Note_on_c, 1, 45, 0
3, 144061, Note_on_c, 1, 48, 88
3, 144564, Note_on_c, 1, 45, 53
3, 144647, Note_on_c, 1, 48, 0
3, 144985, Note_on_c, 1, 45, 0
3, 145040, Note_on_c, 1, 47, 63
3, 145469, Note_on_c, 1, 47, 0
3, 145523, Note_on_c, 1, 39, 84
3, 145993, Note_on_c, 1, 38, 76
3, 146057, Note_on_c, 1, 39, 0
3, 146446, Note_on_c, 1, 38, 0
3, 146484, Note_on_c, 1, 45, 80
3, 146841, Note_on_c, 1, 45, 0
3, 146926, Note_on_c, 1, 41, 55
3, 147383, Note_on_c, 1, 41, 0
3, 147409, Note_on_c, 1, 42, 79
3, 147737, Note_on_c, 1, 42, 0
3, 147881, Note_on_c, 1, 43, 77
3, 148419, Note_on_c, 1, 38, 83
3, 148513, Note_on_c, 1, 38, 0
3, 148844, Note_on_c, 1, 37, 92
3, 148871, Note_on_c, 1, 43, 0
3, 149232, Note_on_c, 1, 37, 0
3, 149376, Note_on_c, 1, 37, 86
3, 149779, Note_on_c, 1, 37, 0
3, 149825, Note_on_c, 1, 38, 75
3, 150192, Note_on_c, 1, 38, 0
3, 150298, Note_on_c, 1, 38, 82
3, 150745, Note_on_c, 1, 38, 0
3, 150765, Note_on_c, 1, 41, 84
3, 151235, Note_on_c, 1, 41, 0
3, 151245, Note_on_c, 1, 42, 73
3, 151648, Note_on_c, 1, 42, 0
3, 151710, Note_on_c, 1, 43, 73
3, 152193, Note_on_c, 1, 31, 82
3, 152377, Note_on_c, 1, 43, 0
3, 152663, Note_on_c, 1, 31, 0
3, 152702, Note_on_c, 1, 33, 58
3, 153124, Note_on_c, 1, 33, 0
3, 153136, Note_on_c, 1, 35, 67
3, 153537, Note_on_c, 1, 35, 0
3, 153600, Note_on_c, 1, 36, 77
3, 154035, Note_on_c, 1, 36, 0
3, 154126, Note_on_c, 1, 36, 77
3, 154585, Note_on_c, 1, 40, 77
3, 154586, Note_on_c, 1, 36, 0
3, 155065, Note_on_c, 1, 40, 0
3, 155079, Note_on_c, 1, 36, 69
3, 155491, Note_on_c, 1, 36, 0
3, 155585, Note_on_c, 1, 35, 68
3, 155975, Note_on_c, 1, 35, 0
3, 156038, Note_on_c, 1, 39, 78
3, 156474, Note_on_c, 1, 39, 0
3, 156535, Note_on_c, 1, 40, 74
3, 156937, Note_on_c, 1, 40, 0
3, 156995, Note_on_c, 1, 34, 66
3, 157411, Note_on_c, 1, 34, 0
3, 157460, Note_on_c, 1, 33, 73
3, 157869, Note_on_c, 1, 33, 0
3, 157942, Note_on_c, 1, 35, 67
3, 158393, Note_on_c, 1, 35, 0
3, 158433, Note_on_c, 1, 36, 83
3, 158854, Note_on_c, 1, 36, 0
3, 158913, Note_on_c, 1, 33, 64
3, 159377, Note_on_c, 1, 33, 0
3, 159412, Note_on_c, 1, 38, 60
3, 159905, Note_on_c, 1, 45, 65
3, 159936, Note_on_c, 1, 38, 0
3, 160343, Note_on_c, 1, 45, 0
3, 160381, Note_on_c, 1, 52, 77
3, 160798, Note_on_c, 1, 52, 0
3, 160894, Note_on_c, 1, 47, 45
3, 161161, Note_on_c, 1, 47, 0
3, 161225, Note_on_c, 1, 38, 45
3, 161302, Note_on_c, 1, 38, 0
3, 161446, Note_on_c, 1, 43, 38
3, 161574, Note_on_c, 1, 43, 0
3, 161751, Note_on_c, 1, 38, 45
3, 161814, Note_on_c, 1, 42, 60
3, 161817, Note_on_c, 1, 38, 0
3, 162190, Note_on_c, 1, 42, 0
3, 162273, Note_on_c, 1, 38, 41
3, 162602, Note_on_c, 1, 38, 0
3, 162743, Note_on_c, 1, 38, 67
3, 163204, Note_on_c, 1, 38, 0
3, 163230, Note_on_c, 1, 35, 66
3, 163600, Note_on_c, 1, 35, 0
3, 163712, Note_on_c, 1, 35, 76
3, 164163, Note_on_c, 1, 35, 0
3, 164225, Note_on_c, 1, 31, 66
3, 164573, Note_on_c, 1, 31, 0
3, 164692, Note_on_c, 1, 31, 64
3, 165150, Note_on_c, 1, 46, 84
3, 165175, Note_on_c, 1, 31, 0
3, 165572, Note_on_c, 1, 46, 0
3, 165673, Note_on_c, 1, 45, 62
3, 166070, Note_on_c, 1, 45, 0
3, 166185, Note_on_c, 1, 43, 48
3, 166558, Note_on_c, 1, 43, 0
3, 166602, Note_on_c, 1, 35, 61
3, 167070, Note_on_c, 1, 35, 0
3, 167094, Note_on_c, 1, 36, 60
3, 167558, Note_on_c, 1, 36, 0
3, 167565, Note_on_c, 1, 38, 64
3, 167920, Note_on_c, 1, 38, 0
3, 168039, Note_on_c, 1, 40, 69
3, 168462, Note_on_c, 1, 40, 0
3, 168519, Note_on_c, 1, 36, 49
3, 168817, Note_on_c, 1, 36, 0
3, 168996, Note_on_c, 1, 43, 70
3, 169472, Note_on_c, 1, 40, 65
3, 169473, Note_on_c, 1, 43, 0
3, 169847, Note_on_c, 1, 40, 0
3, 169966, Note_on_c, 1, 36, 59
3, 170310, Note_on_c, 1, 36, 0
3, 170423, Note_on_c, 1, 33, 66
3, 170804, Note_on_c, 1, 33, 0
3, 170918, Note_on_c, 1, 29, 64
3, 171396, Note_on_c, 1, 46, 80
3, 171457, Note_on_c, 1, 29, 0
3, 171779, Note_on_c, 1, 46, 0
3, 171926, Note_on_c, 1, 44, 62
3, 172349, Note_on_c, 1, 44, 0
3, 172366, Note_on_c, 1, 38, 70
3, 172739, Note_on_c, 1, 38, 0
3, 172842, Note_on_c, 1, 36, 71
3, 173232, Note_on_c, 1, 36, 0
3, 173321, Note_on_c, 1, 36, 76
3, 173822, Note_on_c, 1, 36, 0
3, 173825, Note_on_c, 1, 38, 61
3, 174206, Note_on_c, 1, 38, 0
3, 174307, Note_on_c, 1, 38, 83
3, 174673, Note_on_c, 1, 38, 0
3, 174784, Note_on_c, 1, 40, 81
3, 175258, Note_on_c, 1, 43, 94
3, 175261, Note_on_c, 1, 40, 0
3, 175744, Note_on_c, 1, 40, 50
3, 175811, Note_on_c, 1, 43, 0
3, 176183, Note_on_c, 1, 40, 0
3, 176215, Note_on_c, 1, 39, 83
3, 176675, Note_on_c, 1, 40, 79
3, 176686, Note_on_c, 1, 39, 0
3, 177168, Note_on_c, 1, 43, 99
3, 177204, Note_on_c, 1, 40, 0
3, 177523, Note_on_c, 1, 43, 0
3, 177646, Note_on_c, 1, 46, 97
3, 178145, Note_on_c, 1, 34, 59
3, 178170, Note_on_c, 1, 46, 0
3, 178592, Note_on_c, 1, 34, 0
3, 178634, Note_on_c, 1, 33, 71
3, 179098, Note_on_c, 1, 33, 0
3, 179136, Note_on_c, 1, 35, 69
3, 179523, Note_on_c, 1, 35, 0
3, 179571, Note_on_c, 1, 36, 67
3, 180001, Note_on_c, 1, 36, 0
3, 180042, Note_on_c, 1, 37, 72
3, 180426, Note_on_c, 1, 37, 0
3, 180544, Note_on_c, 1, 38, 74
3, 180704, Note_on_c, 1, 38, 0
3, 180894, Note_on_c, 1, 38, 75
3, 181014, Note_on_c, 1, 38, 0
3, 181040, Note_on_c, 1, 40, 72
3, 181459, Note_on_c, 1, 40, 0
3, 181508, Note_on_c, 1, 41, 70
3, 181873, Note_on_c, 1, 41, 0
3, 181972, Note_on_c, 1, 42, 72
3, 182375, Note_on_c, 1, 42, 0
3, 182455, Note_on_c, 1, 43, 66
3, 182941, Note_on_c, 1, 31, 77
3, 182942, Note_on_c, 1, 43, 0
3, 183406, Note_on_c, 1, 31, 0
3, 183438, Note_on_c, 1, 33, 55
3, 183821, Note_on_c, 1, 33, 0
3, 183901, Note_on_c, 1, 35, 68
3, 184281, Note_on_c, 1, 35, 0
3, 184397, Note_on_c, 1, 36, 83
3, 185326, Note_on_c, 1, 43, 98
3, 185386, Note_on_c, 1, 36, 0
3, 186125, Note_on_c, 1, 38, 60
3, 186189, Note_on_c, 1, 38, 0
3, 186270, Note_on_c, 1, 43, 0
3, 186323, Note_on_c, 1, 31, 82
3, 187046, Note_on_c, 1, 31, 0
3, 187054, Note_on_c, 1, 34, 70
3, 187194, Note_on_c, 1, 34, 0
3, 187232, Note_on_c, 1, 35, 78
3, 187463, Note_on_c, 1, 35, 0
3, 187710, Note_on_c, 1, 38, 82
3, 188019, Note_on_c, 1, 38, 0
3, 188228, Note_on_c, 1, 36, 82
3, 188618, Note_on_c, 1, 36, 0
3, 188714, Note_on_c, 1, 36, 77
3, 189078, Note_on_c, 1, 36, 0
3, 189155, Note_on_c, 1, 38, 63
3, 189664, Note_on_c, 1, 38, 0
3, 189667, Note_on_c, 1, 39, 68
3, 190067, Note_on_c, 1, 39, 0
3, 190137, Note_on_c, 1, 40, 55
3, 190516, Note_on_c, 1, 40, 0
3, 190602, Note_on_c, 1, 43, 69
3, 191028, Note_on_c, 1, 43, 0
3, 191107, Note_on_c, 1, 41, 58
3, 191520, Note_on_c, 1, 41, 0
3, 191581, Note_on_c, 1, 45, 73
3, 191942, Note_on_c, 1, 45, 0
3, 192070, Note_on_c, 1, 43, 43
3, 192483, Note_on_c, 1, 38, 36
3, 192489, Note_on_c, 1, 43, 0
3, 192532, Note_on_c, 1, 50, 86
3, 192545, Note_on_c, 1, 38, 0
3, 192982, Note_on_c, 1, 50, 0
3, 193037, Note_on_c, 1, 48, 66
3, 193411, Note_on_c, 1, 48, 0
3, 193508, Note_on_c, 1, 47, 62
3, 193914, Note_on_c, 1, 47, 0
3, 194001, Note_on_c, 1, 45, 56
3, 194403, Note_on_c, 1, 45, 0
3, 194468, Note_on_c, 1, 43, 53
3, 194862, Note_on_c, 1, 43, 0
3, 194953, Note_on_c, 1, 41, 56
3, 195315, Note_on_c, 1, 41, 0
3, 195417, Note_on_c, 1, 40, 54
3, 195601, Note_on_c, 1, 40, 0
3, 195971, Note_on_c, 1, 38, 78
3, 196358, Note_on_c, 1, 38, 0
3, 196487, Note_on_c, 1, 36, 45
3, 196762, Note_on_c, 1, 36, 0
3, 196893, Note_on_c, 1, 36, 77
3, 197278, Note_on_c, 1, 36, 0
3, 197369, Note_on_c, 1, 35, 64
3, 197737, Note_on_c, 1, 35, 0
3, 197846, Note_on_c, 1, 36, 67
3, 198272, Note_on_c, 1, 36, 0
3, 198311, Note_on_c, 1, 35, 76
3, 198321, Note_on_c, 1, 33, 71
3, 198477, Note_on_c, 1, 35, 0
3, 198801, Note_on_c, 1, 40, 75
3, 198846, Note_on_c, 1, 33, 0
3, 199172, Note_on_c, 1, 40, 0
3, 199277, Note_on_c, 1, 37, 59
3, 199705, Note_on_c, 1, 37, 0
3, 199773, Note_on_c, 1, 38, 56
3, 200150, Note_on_c, 1, 38, 0
3, 200224, Note_on_c, 1, 48, 81
3, 200634, Note_on_c, 1, 48, 0
3, 200718, Note_on_c, 1, 45, 49
3, 201025, Note_on_c, 1, 45, 0
3, 201182, Note_on_c, 1, 41, 51
3, 201574, Note_on_c, 1, 41, 0
3, 201665, Note_on_c, 1, 42, 64
3, 202110, Note_on_c, 1, 42, 0
3, 202126, Note_on_c, 1, 43, 75
3, 202553, Note_on_c, 1, 43, 0
3, 202605, Note_on_c, 1, 31, 96
3, 203095, Note_on_c, 1, 45, 86
3, 203171, Note_on_c, 1, 31, 0
3, 203507, Note_on_c, 1, 45, 0
3, 203584, Note_on_c, 1, 43, 57
3, 204048, Note_on_c, 1, 31, 103
3, 204073, Note_on_c, 1, 43, 0
3, 204513, Note_on_c, 1, 45, 75
3, 204561, Note_on_c, 1, 31, 0
3, 205038, Note_on_c, 1, 44, 71
3, 205078, Note_on_c, 1, 45, 0
3, 205473, Note_on_c, 1, 44, 0
3, 205510, Note_on_c, 1, 43, 71
3, 205940, Note_on_c, 1, 43, 0
3, 205990, Note_on_c, 1, 38, 74
3, 206468, Note_on_c, 1, 38, 0
3, 206493, Note_on_c, 1, 33, 71
3, 206871, Note_on_c, 1, 33, 0
3, 206970, Note_on_c, 1, 32, 76
3, 207328, Note_on_c, 1, 32, 0
3, 207456, Note_on_c, 1, 31, 82
3, 207830, Note_on_c, 1, 31, 0
3, 207950, Note_on_c, 1, 45, 112
3, 208374, Note_on_c, 1, 45, 0
3, 208433, Note_on_c, 1, 43, 62
3, 208810, Note_on_c, 1, 43, 0
3, 208883, Note_on_c, 1, 31, 37
3, 208884, Note_on_c, 1, 50, 89
3, 208947, Note_on_c, 1, 31, 0
3, 209348, Note_on_c, 1, 50, 0
3, 209380, Note_on_c, 1, 48, 71
3, 209782, Note_on_c, 1, 38, 34
3, 209814, Note_on_c, 1, 48, 0
3, 209847, Note_on_c, 1, 38, 0
3, 209865, Note_on_c, 1, 45, 70
3, 210250, Note_on_c, 1, 45, 0
3, 210361, Note_on_c, 1, 41, 55
3, 210670, Note_on_c, 1, 38, 36
3, 210756, Note_on_c, 1, 38, 0
3, 210788, Note_on_c, 1, 42, 81
3, 210806, Note_on_c, 1, 41, 0
3, 211207, Note_on_c, 1, 42, 0
3, 211273, Note_on_c, 1, 43, 66
3, 211668, Note_on_c, 1, 43, 0
3, 211774, Note_on_c, 1, 57, 68
3, 211776, Note_on_c, 1, 55, 58
3, 211790, Note_on_c, 1, 54, 41
3, 211869, Note_on_c, 1, 55, 0
3, 211930, Note_on_c, 1, 54, 0
3, 212243, Note_on_c, 1, 55, 18
3, 212249, Note_on_c, 1, 38, 43
3, 212324, Note_on_c, 1, 38, 0
3, 212599, Note_on_c, 1, 57, 0
3, 212602, Note_on_c, 1, 55, 0
3, 212614, Note_on_c, 1, 38, 50
3, 212681, Note_on_c, 1, 38, 0
3, 212729, Note_on_c, 1, 53, 73
3, 213153, Note_on_c, 1, 53, 0
3, 213213, Note_on_c, 1, 52, 80
3, 213601, Note_on_c, 1, 52, 0
3, 213687, Note_on_c, 1, 50, 65
3, 214045, Note_on_c, 1, 50, 0
3, 214144, Note_on_c, 1, 48, 60
3, 214519, Note_on_c, 1, 48, 0
3, 214582, Note_on_c, 1, 47, 65
3, 215006, Note_on_c, 1, 47, 0
3, 215078, Note_on_c, 1, 50, 75
3, 215575, Note_on_c, 1, 48, 51
3, 215767, Note_on_c, 1, 50, 0
3, 215942, Note_on_c, 1, 48, 0
3, 216041, Note_on_c, 1, 45, 76
3, 216461, Note_on_c, 1, 45, 0
3, 216484, Note_on_c, 1, 44, 77
3, 216893, Note_on_c, 1, 44, 0
3, 216999, Note_on_c, 1, 43, 56
3, 217360, Note_on_c, 1, 31, 105
3, 217398, Note_on_c, 1, 43, 0
3, 217953, Note_on_c, 1, 31, 0
3, 217977, Note_on_c, 1, 33, 73
3, 218406, Note_on_c, 1, 33, 0
3, 218409, Note_on_c, 1, 35, 69
3, 218814, Note_on_c, 1, 35, 0
3, 218887, Note_on_c, 1, 36, 84
3, 219414, Note_on_c, 1, 36, 0
3, 219421, Note_on_c, 1, 45, 90
3, 219882, Note_on_c, 1, 45, 0
3, 219908, Note_on_c, 1, 43, 67
3, 220282, Note_on_c, 1, 43, 0
3, 220393, Note_on_c, 1, 31, 80
3, 220878, Note_on_c, 1, 31, 0
3, 220883, Note_on_c, 1, 45, 99
3, 221344, Note_on_c, 1, 45, 0
3, 221383, Note_on_c, 1, 43, 65
3, 221808, Note_on_c, 1, 43, 0
3, 221834, Note_on_c, 1, 36, 83
3, 222308, Note_on_c, 1, 45, 98
3, 222355, Note_on_c, 1, 36, 0
3, 222797, Note_on_c, 1, 45, 0
3, 222841, Note_on_c, 1, 43, 60
3, 223181, Note_on_c, 1, 43, 0
3, 223261, Note_on_c, 1, 31, 74
3, 223732, Note_on_c, 1, 31, 0
3, 223760, Note_on_c, 1, 45, 87
3, 224198, Note_on_c, 1, 45, 0
3, 224237, Note_on_c, 1, 43, 75
3, 224692, Note_on_c, 1, 43, 0
3, 224710, Note_on_c, 1, 36, 96
3, 225182, Note_on_c, 1, 45, 99
3, 225222, Note_on_c, 1, 36, 0
3, 225641, Note_on_c, 1, 45, 0
3, 225681, Note_on_c, 1, 43, 75
3, 226142, Note_on_c, 1, 43, 0
3, 226161, Note_on_c, 1, 31, 81
3, 226535, Note_on_c, 1, 31, 0
3, 227079, Note_on_c, 1, 45, 84
3, 227527, Note_on_c, 1, 45, 0
3, 227577, Note_on_c, 1, 43, 71
3, 227962, Note_on_c, 1, 43, 0
3, 228068, Note_on_c, 1, 36, 89
3, 228496, Note_on_c, 1, 36, 0
3, 228558, Note_on_c, 1, 43, 84
3, 228963, Note_on_c, 1, 43, 0
3, 229033, Note_on_c, 1, 40, 81
3, 229482, Note_on_c, 1, 40, 0
3, 229527, Note_on_c, 1, 36, 62
3, 229882, Note_on_c, 1, 36, 0
3, 229969, Note_on_c, 1, 37, 66
3, 230404, Note_on_c, 1, 37, 0
3, 230448, Note_on_c, 1, 38, 72
3, 230918, Note_on_c, 1, 38, 0
3, 230957, Note_on_c, 1, 43, 83
3, 231358, Note_on_c, 1, 43, 0
3, 231418, Note_on_c, 1, 42, 71
3, 231798, Note_on_c, 1, 42, 0
3, 231869, Note_on_c, 1, 41, 79
3, 232295, Note_on_c, 1, 41, 0
3, 232397, Note_on_c, 1, 40, 33
3, 232807, Note_on_c, 1, 40, 0
3, 232830, Note_on_c, 1, 39, 71
3, 233251, Note_on_c, 1, 39, 0
3, 233313, Note_on_c, 1, 38, 62
3, 233764, Note_on_c, 1, 38, 0
3, 233766, Note_on_c, 1, 35, 74
3, 234231, Note_on_c, 1, 35, 0
3, 234282, Note_on_c, 1, 31, 68
3, 234717, Note_on_c, 1, 40, 75
3, 234756, Note_on_c, 1, 31, 0
3, 235206, Note_on_c, 1, 40, 0
3, 235230, Note_on_c, 1, 38, 63
3, 235603, Note_on_c, 1, 31, 51
3, 235626, Note_on_c, 1, 38, 0
3, 235689, Note_on_c, 1, 31, 0
3, 235735, Note_on_c, 1, 45, 73
3, 236121, Note_on_c, 1, 45, 0
3, 236183, Note_on_c, 1, 41, 58
3, 236650, Note_on_c, 1, 41, 0
3, 236669, Note_on_c, 1, 52, 67
3, 237076, Note_on_c, 1, 52, 0
3, 237169, Note_on_c, 1, 50, 68
3, 237613, Note_on_c, 1, 50, 0
3, 237641, Note_on_c, 1, 48, 62
3, 238055, Note_on_c, 1, 48, 0
3, 238151, Note_on_c, 1, 47, 63
3, 238531, Note_on_c, 1, 47, 0
3, 238644, Note_on_c, 1, 45, 53
3, 238986, Note_on_c, 1, 45, 0
3, 239092, Note_on_c, 1, 43, 67
3, 239469, Note_on_c, 1, 43, 0
3, 239588, Note_on_c, 1, 43, 73
3, 240001, Note_on_c, 1, 43, 0
3, 240078, Note_on_c, 1, 40, 53
3, 240535, Note_on_c, 1, 39, 64
3, 240576, Note_on_c, 1, 40, 0
3, 241018, Note_on_c, 1, 39, 0
3, 241025, Note_on_c, 1, 38, 75
3, 241492, Note_on_c, 1, 48, 97
3, 241604, Note_on_c, 1, 38, 0
3, 241966, Note_on_c, 1, 48, 0
3, 241977, Note_on_c, 1, 45, 72
3, 242400, Note_on_c, 1, 45, 0
3, 242490, Note_on_c, 1, 38, 59
3, 242881, Note_on_c, 1, 38, 0
3, 242929, Note_on_c, 1, 32, 77
3, 243171, Note_on_c, 1, 32, 0
3, 243412, Note_on_c, 1, 32, 73
3, 243770, Note_on_c, 1, 32, 0
3, 243908, Note_on_c, 1, 31, 68
3, 244330, Note_on_c, 1, 31, 0
3, 244385, Note_on_c, 1, 33, 67
3, 244849, Note_on_c, 1, 33, 0
3, 244884, Note_on_c, 1, 34, 54
3, 245219, Note_on_c, 1, 34, 0
3, 245348, Note_on_c, 1, 35, 69
3, 245732, Note_on_c, 1, 35, 0
3, 245799, Note_on_c, 1, 36, 74
3, 246003, Note_on_c, 1, 36, 0
3, 246141, Note_on_c, 1, 38, 74
3, 246740, Note_on_c, 1, 35, 33
3, 246781, Note_on_c, 1, 40, 71
3, 246801, Note_on_c, 1, 38, 0
3, 246806, Note_on_c, 1, 35, 0
3, 247169, Note_on_c, 1, 40, 0
3, 247230, Note_on_c, 1, 43, 65
3, 247613, Note_on_c, 1, 43, 0
3, 247706, Note_on_c, 1, 40, 54
3, 248169, Note_on_c, 1, 38, 62
3, 248173, Note_on_c, 1, 40, 0
3, 248558, Note_on_c, 1, 38, 0
3, 248672, Note_on_c, 1, 47, 80
3, 248992, Note_on_c, 1, 47, 0
3, 249158, Note_on_c, 1, 40, 67
3, 249524, Note_on_c, 1, 40, 0
3, 249645, Note_on_c, 1, 33, 71
3, 250129, Note_on_c, 1, 40, 57
3, 250169, Note_on_c, 1, 33, 0
3, 250524, Note_on_c, 1, 40, 0
3, 250614, Note_on_c, 1, 47, 82
3, 251041, Note_on_c, 1, 47, 0
3, 251102, Note_on_c, 1, 45, 83
3, 251566, Note_on_c, 1, 45, 0
3, 251588, Note_on_c, 1, 38, 81
3, 252061, Note_on_c, 1, 50, 82
3, 252185, Note_on_c, 1, 38, 0
3, 252487, Note_on_c, 1, 50, 0
3, 252537, Note_on_c, 1, 48, 73
3, 252864, Note_on_c, 1, 48, 0
3, 253022, Note_on_c, 1, 46, 77
3, 253411, Note_on_c, 1, 46, 0
3, 253517, Note_on_c, 1, 47, 78
3, 254003, Note_on_c, 1, 42, 63
3, 254241, Note_on_c, 1, 47, 0
3, 254262, Note_on_c, 1, 42, 0
3, 254457, Note_on_c, 1, 38, 59
3, 254921, Note_on_c, 1, 38, 0
3, 254964, Note_on_c, 1, 33, 58
3, 255373, Note_on_c, 1, 33, 0
3, 255446, Note_on_c, 1, 35, 72
3, 255761, Note_on_c, 1, 35, 0
3, 255894, Note_on_c, 1, 35, 68
3, 256345, Note_on_c, 1, 35, 0
3, 256398, Note_on_c, 1, 31, 75
3, 256743, Note_on_c, 1, 31, 0
3, 256849, Note_on_c, 1, 33, 82
3, 257252, Note_on_c, 1, 33, 0
3, 257332, Note_on_c, 1, 34, 78
3, 257681, Note_on_c, 1, 34, 0
3, 257782, Note_on_c, 1, 34, 72
3, 258243, Note_on_c, 1, 34, 0
3, 258249, Note_on_c, 1, 31, 70
3, 258634, Note_on_c, 1, 31, 0
3, 258723, Note_on_c, 1, 35, 55
3, 259174, Note_on_c, 1, 35, 0
3, 259258, Note_on_c, 1, 36, 73
3, 259574, Note_on_c, 1, 36, 0
3, 259687, Note_on_c, 1, 36, 85
3, 260190, Note_on_c, 1, 50, 91
3, 260225, Note_on_c, 1, 36, 0
3, 260614, Note_on_c, 1, 50, 0
3, 260685, Note_on_c, 1, 48, 80
3, 261092, Note_on_c, 1, 48, 0
3, 261178, Note_on_c, 1, 45, 71
3, 261584, Note_on_c, 1, 45, 0
3, 261654, Note_on_c, 1, 41, 83
3, 262084, Note_on_c, 1, 41, 0
3, 262166, Note_on_c, 1, 36, 73
3, 262628, Note_on_c, 1, 29, 70
3, 262640, Note_on_c, 1, 36, 0
3, 262897, Note_on_c, 1, 29, 0
3, 263129, Note_on_c, 1, 44, 91
3, 263593, Note_on_c, 1, 44, 0
3, 263604, Note_on_c, 1, 41, 62
3, 264116, Note_on_c, 1, 46, 82
3, 264214, Note_on_c, 1, 41, 0
3, 264451, Note_on_c, 1, 46, 0
3, 264590, Note_on_c, 1, 44, 62
3, 264934, Note_on_c, 1, 44, 0
3, 265065, Note_on_c, 1, 48, 80
3, 265466, Note_on_c, 1, 48, 0
3, 265558, Note_on_c, 1, 43, 50
3, 265994, Note_on_c, 1, 43, 0
3, 266038, Note_on_c, 1, 40, 66
3, 266407, Note_on_c, 1, 40, 0
3, 266582, Note_on_c, 1, 38, 33
3, 266877, Note_on_c, 1, 38, 0
3, 266941, Note_on_c, 1, 38, 36
3, 267325, Note_on_c, 1, 38, 0
3, 267450, Note_on_c, 1, 36, 70
3, 267824, Note_on_c, 1, 36, 0
3, 267924, Note_on_c, 1, 36, 58
3, 268390, Note_on_c, 1, 35, 70
3, 268461, Note_on_c, 1, 36, 0
3, 268720, Note_on_c, 1, 35, 0
3, 268855, Note_on_c, 1, 33, 58
3, 269360, Note_on_c, 1, 40, 91
3, 269380, Note_on_c, 1, 33, 0
3, 269793, Note_on_c, 1, 40, 0
3, 269809, Note_on_c, 1, 34, 73
3, 270307, Note_on_c, 1, 46, 92
3, 270449, Note_on_c, 1, 34, 0
3, 270717, Note_on_c, 1, 46, 0
3, 270814, Note_on_c, 1, 45, 84
3, 271273, Note_on_c, 1, 40, 68
3, 271360, Note_on_c, 1, 45, 0
3, 271680, Note_on_c, 1, 40, 0
3, 271783, Note_on_c, 1, 36, 52
3, 272135, Note_on_c, 1, 36, 0
3, 272249, Note_on_c, 1, 37, 63
3, 272729, Note_on_c, 1, 37, 0
3, 272742, Note_on_c, 1, 38, 75
3, 272883, Note_on_c, 1, 38, 0
3, 273034, Note_on_c, 1, 38, 63
3, 273185, Note_on_c, 1, 38, 0
3, 273187, Note_on_c, 1, 40, 73
3, 273585, Note_on_c, 1, 40, 0
3, 273654, Note_on_c, 1, 38, 39
3, 273705, Note_on_c, 1, 41, 64
3, 273745, Note_on_c, 1, 38, 0
3, 274039, Note_on_c, 1, 41, 0
3, 274153, Note_on_c, 1, 42, 73
3, 274160, Note_on_c, 1, 38, 35
3, 274227, Note_on_c, 1, 38, 0
3, 274484, Note_on_c, 1, 42, 0
3, 274625, Note_on_c, 1, 43, 67
3, 275104, Note_on_c, 1, 31, 96
3, 275230, Note_on_c, 1, 43, 0
3, 275620, Note_on_c, 1, 33, 63
3, 275629, Note_on_c, 1, 31, 0
3, 276048, Note_on_c, 1, 33, 0
3, 276089, Note_on_c, 1, 35, 69
3, 276454, Note_on_c, 1, 35, 0
3, 276544, Note_on_c, 1, 36, 81
3, 277017, Note_on_c, 1, 36, 0
3, 277034, Note_on_c, 1, 45, 108
3, 277446, Note_on_c, 1, 45, 0
3, 277513, Note_on_c, 1, 43, 65
3, 277997, Note_on_c, 1, 31, 103
3, 278084, Note_on_c, 1, 43, 0
3, 278857, Note_on_c, 1, 31, 0
3, 279009, Note_on_c, 1, 31, 83
3, 279790, Note_on_c, 1, 31, 0
3, 279891, Note_on_c, 1, 31, 78
3, 284713, Note_on_c, 1, 31, 0
3, 285226, Note_on_c, 1, 31, 62
3, 285398, Note_on_c, 1, 31, 0
3, 285542, Note_on_c, 1, 31, 49
3, 285645, Note_on_c, 1, 31, 0
3, 286163, Note_on_c, 1, 31, 70
3, 286345, Note_on_c, 1, 31, 0
3, 286833, Note_on_c, 1, 31, 71
3, 287038, Note_on_c, 1, 31, 0
3, 287559, Note_on_c, 1, 31, 99
3, 292865, Note_on_c, 1, 31, 0
3, 292881, Note_on_c, 1, 43, 108
3, 292902, Note_on_c, 1, 31, 44
3, 293190, Note_on_c, 1, 43, 0
3, 293873, Note_on_c, 1, 43, 89
3, 294144, Note_on_c, 1, 43, 0
3, 294576, Note_on_c, 1, 43, 83
3, 294694, Note_on_c, 1, 43, 0
3, 295277, Note_on_c, 1, 43, 108
3, 297546, Note_on_c, 1, 31, 0
3, 300473, Note_on_c, 1, 43, 0
3, 300576, Note_on_c, 1, 43, 89
3, 300897, Note_on_c, 1, 43, 0
3, 301169, Note_on_c, 1, 43, 36
3, 301236, Note_on_c, 1, 43, 0
3, 301542, Note_on_c, 1, 43, 93
3, 301853, Note_on_c, 1, 43, 0
3, 302201, Note_on_c, 1, 43, 99
3, 302537, Note_on_c, 1, 43, 0
3, 302928, Note_on_c, 1, 43, 108
3, 307846, Note_on_c, 1, 43, 0
3, 308222, Note_on_c, 1, 43, 104
3, 308537, Note_on_c, 1, 43, 0
3, 309239, Note_on_c, 1, 43, 94
3, 309545, Note_on_c, 1, 43, 0
3, 309971, Note_on_c, 1, 43, 92
3, 310182, Note_on_c, 1, 43, 0
3, 310666, Note_on_c, 1, 43, 114
3, 315936, Note_on_c, 1, 31, 76
3, 316190, Note_on_c, 1, 31, 0
3, 316238, Note_on_c, 1, 31, 40
3, 316467, Note_on_c, 1, 31, 0
3, 316902, Note_on_c, 1, 31, 80
3, 317121, Note_on_c, 1, 31, 0
3, 317636, Note_on_c, 1, 31, 92
3, 317860, Note_on_c, 1, 31, 0
3, 317955, Note_on_c, 1, 43, 0
3, 318289, Note_on_c, 1, 31, 108
3, 323105, Note_on_c, 1, 31, 0
3, 323629, Note_on_c, 1, 31, 105
3, 323847, Note_on_c, 1, 31, 0
3, 324577, Note_on_c, 1, 31, 93
3, 324797, Note_on_c, 1, 31, 0
3, 325274, Note_on_c, 1, 31, 90
3, 325446, Note_on_c, 1, 31, 0
3, 325955, Note_on_c, 1, 31, 112
3, 330886, Note_on_c, 1, 31, 0
3, 331300, Note_on_c, 1, 31, 112
3, 331489, Note_on_c, 1, 31, 0
3, 332275, Note_on_c, 1, 31, 99
3, 332505, Note_on_c, 1, 31, 0
3, 332953, Note_on_c, 1, 31, 100
3, 333153, Note_on_c, 1, 31, 0
3, 333633, Note_on_c, 1, 31, 114
3, 338599, Note_on_c, 1, 31, 0
3, 338963, Note_on_c, 1, 31, 99
3, 339159, Note_on_c, 1, 31, 0
3, 339865, Note_on_c, 1, 31, 93
3, 340036, Note_on_c, 1, 31, 0
3, 340654, Note_on_c, 1, 35, 86
3, 340777, Note_on_c, 1, 35, 0
3, 340855, Note_on_c, 1, 41, 72
3, 340862, Note_on_c, 1, 40, 71
3, 341050, Note_on_c, 1, 41, 0
3, 341230, Note_on_c, 1, 40, 0
3, 341322, Note_on_c, 1, 34, 81
3, 341757, Note_on_c, 1, 34, 0
3, 341817, Note_on_c, 1, 33, 77
3, 342804, Note_on_c, 1, 35, 70
3, 342838, Note_on_c, 1, 33, 0
3, 343511, Note_on_c, 1, 35, 0
3, 343568, Note_on_c, 1, 36, 37
3, 343780, Note_on_c, 1, 38, 82
3, 343802, Note_on_c, 1, 36, 0
3, 344704, Note_on_c, 1, 38, 0
3, 344745, Note_on_c, 1, 33, 78
3, 345018, Note_on_c, 1, 33, 0
3, 345214, Note_on_c, 1, 30, 76
3, 345632, Note_on_c, 1, 30, 0
3, 345671, Note_on_c, 1, 31, 80
3, 346650, Note_on_c, 1, 31, 0
3, 346672, Note_on_c, 1, 35, 72
3, 347539, Note_on_c, 1, 35, 0
3, 347584, Note_on_c, 1, 38, 61
3, 348358, Note_on_c, 1, 34, 46
3, 348490, Note_on_c, 1, 38, 0
3, 348537, Note_on_c, 1, 34, 0
3, 348547, Note_on_c, 1, 47, 67
3, 349006, Note_on_c, 1, 47, 0
3, 349027, Note_on_c, 1, 43, 71
3, 349539, Note_on_c, 1, 42, 84
3, 349558, Note_on_c, 1, 43, 0
3, 350294, Note_on_c, 1, 42, 0
3, 350323, Note_on_c, 1, 43, 68
3, 350393, Note_on_c, 1, 43, 0
3, 350521, Note_on_c, 1, 38, 68
3, 350950, Note_on_c, 1, 38, 0
3, 351011, Note_on_c, 1, 35, 63
3, 351409, Note_on_c, 1, 35, 0
3, 351475, Note_on_c, 1, 36, 77
3, 352202, Note_on_c, 1, 36, 0
3, 352206, Note_on_c, 1, 38, 58
3, 352355, Note_on_c, 1, 38, 0
3, 352429, Note_on_c, 1, 40, 64
3, 352806, Note_on_c, 1, 40, 0
3, 352909, Note_on_c, 1, 43, 90
3, 353286, Note_on_c, 1, 43, 0
3, 353380, Note_on_c, 1, 41, 87
3, 354126, Note_on_c, 1, 36, 69
3, 354241, Note_on_c, 1, 36, 0
3, 354259, Note_on_c, 1, 41, 0
3, 354320, Note_on_c, 1, 33, 80
3, 354817, Note_on_c, 1, 41, 80
3, 354868, Note_on_c, 1, 33, 0
3, 355127, Note_on_c, 1, 41, 0
3, 355220, Note_on_c, 1, 33, 44
3, 355300, Note_on_c, 1, 33, 0
3, 355319, Note_on_c, 1, 46, 86
3, 356281, Note_on_c, 1, 41, 71
3, 356313, Note_on_c, 1, 46, 0
3, 356413, Note_on_c, 1, 41, 0
3, 356717, Note_on_c, 1, 35, 71
3, 357121, Note_on_c, 1, 35, 0
3, 357220, Note_on_c, 1, 36, 76
3, 358163, Note_on_c, 1, 36, 0
3, 358201, Note_on_c, 1, 35, 69
3, 359082, Note_on_c, 1, 35, 0
3, 359137, Note_on_c, 1, 33, 71
3, 360106, Note_on_c, 1, 31, 69
3, 360157, Note_on_c, 1, 33, 0
3, 360832, Note_on_c, 1, 33, 68
3, 360890, Note_on_c, 1, 31, 0
3, 360941, Note_on_c, 1, 33, 0
3, 361031, Note_on_c, 1, 40, 101
3, 361942, Note_on_c, 1, 40, 0
3, 361945, Note_on_c, 1, 34, 83
3, 362935, Note_on_c, 1, 33, 72
3, 362947, Note_on_c, 1, 34, 0
3, 363107, Note_on_c, 1, 33, 0
3, 363184, Note_on_c, 1, 45, 99
3, 363870, Note_on_c, 1, 45, 0
3, 363918, Note_on_c, 1, 40, 68
3, 364164, Note_on_c, 1, 40, 0
3, 364409, Note_on_c, 1, 39, 71
3, 364745, Note_on_c, 1, 39, 0
3, 364899, Note_on_c, 1, 38, 77
3, 365686, Note_on_c, 1, 40, 60
3, 365792, Note_on_c, 1, 38, 0
3, 365838, Note_on_c, 1, 40, 0
3, 365930, Note_on_c, 1, 41, 55
3, 366206, Note_on_c, 1, 41, 0
3, 366382, Note_on_c, 1, 42, 73
3, 366689, Note_on_c, 1, 42, 0
3, 366838, Note_on_c, 1, 43, 73
3, 367725, Note_on_c, 1, 31, 68
3, 367726, Note_on_c, 1, 43, 0
3, 369507, Note_on_c, 1, 31, 0
3, 369662, Note_on_c, 1, 31, 54
3, 369802, Note_on_c, 1, 31, 0
3, 370663, Note_on_c, 1, 31, 60
3, 370861, Note_on_c, 1, 31, 0
3, 371337, Note_on_c, 1, 31, 62
3, 371529, Note_on_c, 1, 31, 0
3, 372007, Note_on_c, 1, 31, 98
3, 376979, Note_on_c, 1, 31, 0
3, 377377, Note_on_c, 1, 31, 110
3, 377671, Note_on_c, 1, 31, 0
3, 378372, Note_on_c, 1, 31, 110
3, 378679, Note_on_c, 1, 31, 0
3, 379081, Note_on_c, 1, 31, 105
3, 379334, Note_on_c, 1, 31, 0
3, 379757, Note_on_c, 1, 31, 124
3, 385011, Note_on_c, 1, 43, 80
3, 385441, Note_on_c, 1, 43, 0
3, 386042, Note_on_c, 1, 43, 67
3, 386326, Note_on_c, 1, 43, 0
3, 386777, Note_on_c, 1, 43, 76
3, 386902, Note_on_c, 1, 43, 0
3, 387482, Note_on_c, 1, 43, 105
3, 389181, Note_on_c, 1, 31, 0
3, 392730, Note_on_c, 1, 31, 70
3, 392816, Note_on_c, 1, 43, 0
3, 392925, Note_on_c, 1, 31, 0
3, 393703, Note_on_c, 1, 31, 69
3, 393898, Note_on_c, 1, 31, 0
3, 394384, Note_on_c, 1, 31, 82
3, 394641, Note_on_c, 1, 31, 0
3, 395059, Note_on_c, 1, 31, 91
3, 395069, Note_on_c, 1, 33, 85
3, 395123, Note_on_c, 1, 33, 0
3, 399985, Note_on_c, 1, 31, 0
3, 400400, Note_on_c, 1, 31, 85
3, 400567, Note_on_c, 1, 31, 0
3, 401363, Note_on_c, 1, 31, 79
3, 401574, Note_on_c, 1, 31, 0
3, 402058, Note_on_c, 1, 31, 78
3, 402221, Note_on_c, 1, 31, 0
3, 402740, Note_on_c, 1, 31, 101
3, 407745, Note_on_c, 1, 31, 0
3, 408068, Note_on_c, 1, 31, 77
3, 408249, Note_on_c, 1, 31, 0
3, 409072, Note_on_c, 1, 31, 67
3, 409289, Note_on_c, 1, 31, 0
3, 409766, Note_on_c, 1, 31, 73
3, 410007, Note_on_c, 1, 31, 0
3, 410462, Note_on_c, 1, 31, 96
3, 415325, Note_on_c, 1, 31, 0
3, 415777, Note_on_c, 1, 31, 101
3, 416071, Note_on_c, 1, 31, 0
3, 416742, Note_on_c, 1, 31, 100
3, 417054, Note_on_c, 1, 31, 0
3, 417465, Note_on_c, 1, 31, 84
3, 417502, Note_on_c, 1, 33, 43
3, 417569, Note_on_c, 1, 33, 0
3, 418116, Note_on_c, 1, 31, 0
3, 418189, Note_on_c, 1, 36, 117
3, 421856, Note_on_c, 1, 36, 0
3, 421856, End_track
4, 0, Start_track
4, 0, Title_t, ""
4, 0, End_track
5, 0, Start_track
5, 0, Title_t, ""
5, 527, Program_c, 9, 40
5, 528, Control_c, 9, 7, 80
5, 528, Control_c, 9, 10, 64
5, 1920, Note_on_c, 9, 42, 100
5, 2060, Note_on_c, 9, 42, 0
5, 2400, Note_on_c, 9, 42, 100
5, 2540, Note_on_c, 9, 42, 0
5, 2900, Note_on_c, 9, 42, 100
5, 3040, Note_on_c, 9, 42, 0
5, 3360, Note_on_c, 9, 42, 100
5, 3500, Note_on_c, 9, 42, 0
5, 3840, Note_on_c, 9, 38, 54
5, 3840, Note_on_c, 9, 40, 54
5, 3840, Note_on_c, 9, 42, 10
5, 3948, Note_on_c, 9, 42, 0
5, 3948, Note_on_c, 9, 40, 0
5, 3948, Note_on_c, 9, 38, 0
5, 4288, Note_on_c, 9, 40, 50
5, 4320, Note_on_c, 9, 38, 103
5, 4332, Note_on_c, 9, 44, 126
5, 4508, Note_on_c, 9, 44, 0
5, 4580, Note_on_c, 9, 38, 0
5, 4616, Note_on_c, 9, 38, 49
5, 4716, Note_on_c, 9, 38, 0
5, 4764, Note_on_c, 9, 40, 0
5, 4798, Note_on_c, 9, 40, 41
5, 4800, Note_on_c, 9, 38, 67
5, 5040, Note_on_c, 9, 38, 0
5, 5248, Note_on_c, 9, 40, 37
5, 5274, Note_on_c, 9, 40, 0
5, 5280, Note_on_c, 9, 38, 107
5, 5292, Note_on_c, 9, 44, 105
5, 5480, Note_on_c, 9, 44, 0
5, 5556, Note_on_c, 9, 38, 0
5, 5576, Note_on_c, 9, 38, 49
5, 5628, Note_on_c, 9, 38, 0
5, 5724, Note_on_c, 9, 40, 0
5, 5728, Note_on_c, 9, 40, 46
5, 5760, Note_on_c, 9, 38, 72
5, 5988, Note_on_c, 9, 38, 0
5, 6204, Note_on_c, 9, 40, 0
5, 6208, Note_on_c, 9, 40, 50
5, 6240, Note_on_c, 9, 38, 105
5, 6252, Note_on_c, 9, 44, 107
5, 6424, Note_on_c, 9, 44, 0
5, 6504, Note_on_c, 9, 38, 0
5, 6536, Note_on_c, 9, 38, 45
5, 6600, Note_on_c, 9, 38, 0
5, 6684, Note_on_c, 9, 40, 0
5, 6688, Note_on_c, 9, 40, 41
5, 6720, Note_on_c, 9, 38, 72
5, 6940, Note_on_c, 9, 38, 0
5, 7020, Note_on_c, 9, 39, 110
5, 7128, Note_on_c, 9, 39, 0
5, 7164, Note_on_c, 9, 40, 0
5, 7168, Note_on_c, 9, 40, 37
5, 7200, Note_on_c, 9, 38, 109
5, 7212, Note_on_c, 9, 44, 114
5, 7416, Note_on_c, 9, 38, 0
5, 7420, Note_on_c, 9, 44, 0
5, 7496, Note_on_c, 9, 38, 63
5, 7592, Note_on_c, 9, 38, 0
5, 7644, Note_on_c, 9, 40, 0
5, 7648, Note_on_c, 9, 40, 46
5, 7680, Note_on_c, 9, 38, 71
5, 7836, Note_on_c, 9, 38, 0
5, 8124, Note_on_c, 9, 40, 0
5, 8128, Note_on_c, 9, 40, 50
5, 8160, Note_on_c, 9, 38, 113
5, 8172, Note_on_c, 9, 44, 113
5, 8364, Note_on_c, 9, 44, 0
5, 8568, Note_on_c, 9, 38, 0
5, 8604, Note_on_c, 9, 40, 0
5, 8608, Note_on_c, 9, 40, 41
5, 8640, Note_on_c, 9, 38, 57
5, 8784, Note_on_c, 9, 38, 0
5, 9084, Note_on_c, 9, 40, 0
5, 9088, Note_on_c, 9, 40, 37
5, 9120, Note_on_c, 9, 38, 109
5, 9132, Note_on_c, 9, 44, 110
5, 9308, Note_on_c, 9, 44, 0
5, 9408, Note_on_c, 9, 38, 0
5, 9416, Note_on_c, 9, 38, 56
5, 9476, Note_on_c, 9, 38, 0
5, 9564, Note_on_c, 9, 40, 0
5, 9568, Note_on_c, 9, 40, 46
5, 9600, Note_on_c, 9, 38, 55
5, 10040, Note_on_c, 9, 38, 0
5, 10044, Note_on_c, 9, 40, 0
5, 10048, Note_on_c, 9, 40, 50
5, 10080, Note_on_c, 9, 38, 97
5, 10092, Note_on_c, 9, 44, 115
5, 10268, Note_on_c, 9, 40, 0
5, 10304, Note_on_c, 9, 38, 0
5, 10376, Note_on_c, 9, 39, 113
5, 10496, Note_on_c, 9, 39, 0
5, 10520, Note_on_c, 9, 44, 0
5, 10528, Note_on_c, 9, 40, 41
5, 10560, Note_on_c, 9, 38, 81
5, 11004, Note_on_c, 9, 40, 0
5, 11008, Note_on_c, 9, 40, 37
5, 11040, Note_on_c, 9, 38, 103
5, 11052, Note_on_c, 9, 44, 115
5, 11120, Note_on_c, 9, 38, 0
5, 11228, Note_on_c, 9, 40, 0
5, 11276, Note_on_c, 9, 38, 0
5, 11336, Note_on_c, 9, 38, 55
5, 11456, Note_on_c, 9, 44, 0
5, 11488, Note_on_c, 9, 40, 46
5, 11520, Note_on_c, 9, 38, 0
5, 11520, Note_on_c, 9, 38, 63
5, 11964, Note_on_c, 9, 40, 0
5, 11968, Note_on_c, 9, 40, 50
5, 12000, Note_on_c, 9, 38, 117
5, 12012, Note_on_c, 9, 44, 114
5, 12020, Note_on_c, 9, 38, 0
5, 12188, Note_on_c, 9, 40, 0
5, 12256, Note_on_c, 9, 38, 0
5, 12296, Note_on_c, 9, 38, 50
5, 12384, Note_on_c, 9, 38, 0
5, 12432, Note_on_c, 9, 44, 0
5, 12448, Note_on_c, 9, 40, 41
5, 12480, Note_on_c, 9, 38, 62
5, 12924, Note_on_c, 9, 40, 0
5, 12928, Note_on_c, 9, 40, 37
5, 12960, Note_on_c, 9, 38, 105
5, 12972, Note_on_c, 9, 44, 110
5, 13024, Note_on_c, 9, 38, 0
5, 13148, Note_on_c, 9, 40, 0
5, 13232, Note_on_c, 9, 38, 0
5, 13256, Note_on_c, 9, 38, 36
5, 13380, Note_on_c, 9, 44, 0
5, 13408, Note_on_c, 9, 40, 46
5, 13440, Note_on_c, 9, 38, 0
5, 13440, Note_on_c, 9, 38, 69
5, 13884, Note_on_c, 9, 40, 0
5, 13888, Note_on_c, 9, 40, 50
5, 13920, Note_on_c, 9, 38, 93
5, 13932, Note_on_c, 9, 38, 0
5, 13932, Note_on_c, 9, 44, 110
5, 14108, Note_on_c, 9, 40, 0
5, 14148, Note_on_c, 9, 38, 0
5, 14216, Note_on_c, 9, 38, 63
5, 14296, Note_on_c, 9, 38, 0
5, 14352, Note_on_c, 9, 44, 0
5, 14368, Note_on_c, 9, 40, 41
5, 14400, Note_on_c, 9, 38, 64
5, 14844, Note_on_c, 9, 40, 0
5, 14848, Note_on_c, 9, 40, 37
5, 14880, Note_on_c, 9, 38, 107
5, 14892, Note_on_c, 9, 44, 110
5, 14928, Note_on_c, 9, 38, 0
5, 15068, Note_on_c, 9, 40, 0
5, 15132, Note_on_c, 9, 38, 0
5, 15176, Note_on_c, 9, 38, 54
5, 15256, Note_on_c, 9, 38, 0
5, 15304, Note_on_c, 9, 44, 0
5, 15328, Note_on_c, 9, 40, 46
5, 15360, Note_on_c, 9, 38, 71
5, 15804, Note_on_c, 9, 40, 0
5, 15808, Note_on_c, 9, 40, 50
5, 15840, Note_on_c, 9, 38, 109
5, 15852, Note_on_c, 9, 44, 107
5, 15868, Note_on_c, 9, 38, 0
5, 16028, Note_on_c, 9, 40, 0
5, 16092, Note_on_c, 9, 38, 0
5, 16136, Note_on_c, 9, 38, 52
5, 16240, Note_on_c, 9, 38, 0
5, 16260, Note_on_c, 9, 44, 0
5, 16288, Note_on_c, 9, 40, 41
5, 16320, Note_on_c, 9, 38, 66
5, 16764, Note_on_c, 9, 40, 0
5, 16768, Note_on_c, 9, 40, 37
5, 16772, Note_on_c, 9, 38, 0
5, 16800, Note_on_c, 9, 38, 101
5, 16812, Note_on_c, 9, 44, 110
5, 16988, Note_on_c, 9, 40, 0
5, 17036, Note_on_c, 9, 38, 0
5, 17096, Note_on_c, 9, 39, 82
5, 17184, Note_on_c, 9, 39, 0
5, 17236, Note_on_c, 9, 44, 0
5, 17248, Note_on_c, 9, 40, 46
5, 17280, Note_on_c, 9, 38, 70
5, 17724, Note_on_c, 9, 40, 0
5, 17728, Note_on_c, 9, 40, 50
5, 17760, Note_on_c, 9, 38, 103
5, 17772, Note_on_c, 9, 44, 106
5, 17852, Note_on_c, 9, 38, 0
5, 18200, Note_on_c, 9, 44, 0
5, 18204, Note_on_c, 9, 40, 0
5, 18208, Note_on_c, 9, 40, 41
5, 18240, Note_on_c, 9, 38, 69
5, 18244, Note_on_c, 9, 38, 0
5, 18492, Note_on_c, 9, 38, 0
5, 18540, Note_on_c, 9, 39, 120
5, 18684, Note_on_c, 9, 40, 0
5, 18720, Note_on_c, 9, 38, 63
5, 18732, Note_on_c, 9, 44, 104
5, 18760, Note_on_c, 9, 39, 0
5, 18964, Note_on_c, 9, 38, 0
5, 19020, Note_on_c, 9, 35, 100
5, 19128, Note_on_c, 9, 35, 0
5, 19160, Note_on_c, 9, 44, 0
5, 19168, Note_on_c, 9, 40, 46
5, 19360, Note_on_c, 9, 39, 60
5, 19388, Note_on_c, 9, 40, 0
5, 19516, Note_on_c, 9, 35, 70
5, 19572, Note_on_c, 9, 39, 0
5, 19624, Note_on_c, 9, 35, 0
5, 19648, Note_on_c, 9, 40, 50
5, 19692, Note_on_c, 9, 44, 102
5, 20112, Note_on_c, 9, 44, 0
5, 20124, Note_on_c, 9, 40, 0
5, 20128, Note_on_c, 9, 40, 41
5, 20160, Note_on_c, 9, 38, 66
5, 20576, Note_on_c, 9, 38, 0
5, 20604, Note_on_c, 9, 40, 0
5, 20608, Note_on_c, 9, 40, 37
5, 20640, Note_on_c, 9, 38, 119
5, 20652, Note_on_c, 9, 44, 89
5, 21084, Note_on_c, 9, 40, 0
5, 21088, Note_on_c, 9, 40, 46
5, 21096, Note_on_c, 9, 44, 0
5, 21120, Note_on_c, 9, 38, 0
5, 21120, Note_on_c, 9, 38, 66
5, 21556, Note_on_c, 9, 38, 0
5, 21564, Note_on_c, 9, 40, 0
5, 21568, Note_on_c, 9, 40, 50
5, 21600, Note_on_c, 9, 38, 115
5, 21612, Note_on_c, 9, 44, 100
5, 21788, Note_on_c, 9, 40, 0
5, 21836, Note_on_c, 9, 38, 0
5, 21896, Note_on_c, 9, 38, 59
5, 21972, Note_on_c, 9, 38, 0
5, 22040, Note_on_c, 9, 44, 0
5, 22048, Note_on_c, 9, 40, 41
5, 22080, Note_on_c, 9, 38, 73
5, 22524, Note_on_c, 9, 40, 0
5, 22528, Note_on_c, 9, 40, 37
5, 22560, Note_on_c, 9, 38, 117
5, 22572, Note_on_c, 9, 44, 89
5, 22588, Note_on_c, 9, 38, 0
5, 22744, Note_on_c, 9, 44, 0
5, 22748, Note_on_c, 9, 40, 0
5, 22776, Note_on_c, 9, 38, 0
5, 22800, Note_on_c, 9, 46, 65
5, 22856, Note_on_c, 9, 38, 64
5, 22960, Note_on_c, 9, 38, 0
5, 23008, Note_on_c, 9, 40, 46
5, 23040, Note_on_c, 9, 46, 0
5, 23040, Note_on_c, 9, 38, 50
5, 23484, Note_on_c, 9, 40, 0
5, 23488, Note_on_c, 9, 40, 50
5, 23520, Note_on_c, 9, 38, 111
5, 23532, Note_on_c, 9, 44, 106
5, 23560, Note_on_c, 9, 38, 0
5, 23708, Note_on_c, 9, 40, 0
5, 23800, Note_on_c, 9, 38, 0
5, 23816, Note_on_c, 9, 38, 52
5, 23892, Note_on_c, 9, 38, 0
5, 23964, Note_on_c, 9, 44, 0
5, 23968, Note_on_c, 9, 40, 41
5, 24000, Note_on_c, 9, 38, 55
5, 24444, Note_on_c, 9, 40, 0
5, 24448, Note_on_c, 9, 40, 37
5, 24472, Note_on_c, 9, 38, 0
5, 24480, Note_on_c, 9, 38, 113
5, 24492, Note_on_c, 9, 44, 107
5, 24668, Note_on_c, 9, 40, 0
5, 24760, Note_on_c, 9, 38, 0
5, 24776, Note_on_c, 9, 38, 44
5, 24856, Note_on_c, 9, 38, 0
5, 24928, Note_on_c, 9, 40, 46
5, 24932, Note_on_c, 9, 44, 0
5, 24960, Note_on_c, 9, 38, 66
5, 25376, Note_on_c, 9, 38, 0
5, 25404, Note_on_c, 9, 40, 0
5, 25408, Note_on_c, 9, 40, 50
5, 25440, Note_on_c, 9, 38, 109
5, 25452, Note_on_c, 9, 44, 111
5, 25776, Note_on_c, 9, 35, 74
5, 25844, Note_on_c, 9, 38, 0
5, 25876, Note_on_c, 9, 44, 0
5, 25884, Note_on_c, 9, 40, 0
5, 25884, Note_on_c, 9, 35, 0
5, 25888, Note_on_c, 9, 40, 41
5, 25920, Note_on_c, 9, 38, 62
5, 25932, Note_on_c, 9, 44, 91
5, 26084, Note_on_c, 9, 44, 0
5, 26108, Note_on_c, 9, 40, 0
5, 26136, Note_on_c, 9, 38, 0
5, 26160, Note_on_c, 9, 46, 90
5, 26216, Note_on_c, 9, 39, 117
5, 26356, Note_on_c, 9, 39, 0
5, 26368, Note_on_c, 9, 40, 37
5, 26400, Note_on_c, 9, 38, 57
5, 26520, Note_on_c, 9, 46, 0
5, 26700, Note_on_c, 9, 39, 110
5, 26700, Note_on_c, 9, 35, 110
5, 26728, Note_on_c, 9, 38, 0
5, 26808, Note_on_c, 9, 35, 0
5, 26844, Note_on_c, 9, 40, 0
5, 26848, Note_on_c, 9, 40, 46
5, 26880, Note_on_c, 9, 39, 0
5, 26880, Note_on_c, 9, 38, 80
5, 27324, Note_on_c, 9, 40, 0
5, 27328, Note_on_c, 9, 40, 50
5, 27360, Note_on_c, 9, 38, 113
5, 27372, Note_on_c, 9, 44, 127
5, 27400, Note_on_c, 9, 38, 0
5, 27548, Note_on_c, 9, 40, 0
5, 27640, Note_on_c, 9, 38, 0
5, 27656, Note_on_c, 9, 38, 50
5, 27744, Note_on_c, 9, 38, 0
5, 27768, Note_on_c, 9, 44, 0
5, 27808, Note_on_c, 9, 40, 41
5, 27840, Note_on_c, 9, 38, 52
5, 28284, Note_on_c, 9, 40, 0
5, 28288, Note_on_c, 9, 40, 37
5, 28296, Note_on_c, 9, 38, 0
5, 28320, Note_on_c, 9, 38, 117
5, 28332, Note_on_c, 9, 44, 107
5, 28508, Note_on_c, 9, 40, 0
5, 28600, Note_on_c, 9, 38, 0
5, 28616, Note_on_c, 9, 38, 41
5, 28676, Note_on_c, 9, 38, 0
5, 28764, Note_on_c, 9, 44, 0
5, 28768, Note_on_c, 9, 40, 46
5, 28800, Note_on_c, 9, 38, 67
5, 29232, Note_on_c, 9, 38, 0
5, 29244, Note_on_c, 9, 40, 0
5, 29248, Note_on_c, 9, 40, 50
5, 29280, Note_on_c, 9, 38, 115
5, 29292, Note_on_c, 9, 44, 98
5, 29468, Note_on_c, 9, 40, 0
5, 29524, Note_on_c, 9, 38, 0
5, 29576, Note_on_c, 9, 38, 50
5, 29676, Note_on_c, 9, 38, 0
5, 29724, Note_on_c, 9, 44, 0
5, 29728, Note_on_c, 9, 40, 41
5, 29760, Note_on_c, 9, 38, 71
5, 30160, Note_on_c, 9, 38, 0
5, 30204, Note_on_c, 9, 40, 0
5, 30208, Note_on_c, 9, 40, 37
5, 30240, Note_on_c, 9, 38, 121
5, 30252, Note_on_c, 9, 44, 102
5, 30424, Note_on_c, 9, 38, 65
5, 30428, Note_on_c, 9, 40, 0
5, 30564, Note_on_c, 9, 38, 0
5, 30688, Note_on_c, 9, 40, 46
5, 30704, Note_on_c, 9, 44, 0
5, 30704, Note_on_c, 9, 38, 0
5, 30720, Note_on_c, 9, 38, 82
5, 31136, Note_on_c, 9, 38, 0
5, 31164, Note_on_c, 9, 40, 0
5, 31168, Note_on_c, 9, 40, 50
5, 31200, Note_on_c, 9, 38, 115
5, 31212, Note_on_c, 9, 44, 107
5, 31388, Note_on_c, 9, 40, 0
5, 31420, Note_on_c, 9, 38, 0
5, 31496, Note_on_c, 9, 38, 60
5, 31608, Note_on_c, 9, 38, 0
5, 31648, Note_on_c, 9, 40, 41
5, 31652, Note_on_c, 9, 44, 0
5, 31680, Note_on_c, 9, 38, 63
5, 32124, Note_on_c, 9, 40, 0
5, 32128, Note_on_c, 9, 40, 37
5, 32160, Note_on_c, 9, 38, 115
5, 32172, Note_on_c, 9, 44, 89
5, 32188, Note_on_c, 9, 38, 0
5, 32560, Note_on_c, 9, 38, 0
5, 32596, Note_on_c, 9, 44, 0
5, 32604, Note_on_c, 9, 40, 0
5, 32608, Note_on_c, 9, 40, 46
5, 32720, Note_on_c, 9, 38, 30
5, 32780, Note_on_c, 9, 38, 0
5, 32800, Note_on_c, 9, 38, 66
5, 32828, Note_on_c, 9, 40, 0
5, 32860, Note_on_c, 9, 38, 0
5, 32880, Note_on_c, 9, 38, 82
5, 32940, Note_on_c, 9, 38, 0
5, 32960, Note_on_c, 9, 39, 120
5, 33020, Note_on_c, 9, 39, 0
5, 33040, Note_on_c, 9, 38, 70
5, 33100, Note_on_c, 9, 38, 0
5, 33120, Note_on_c, 9, 38, 72
5, 33180, Note_on_c, 9, 38, 0
5, 33200, Note_on_c, 9, 38, 66
5, 33280, Note_on_c, 9, 38, 51
5, 33440, Note_on_c, 9, 35, 74
5, 33500, Note_on_c, 9, 35, 0
5, 33516, Note_on_c, 9, 38, 0
5, 33520, Note_on_c, 9, 38, 34
5, 33580, Note_on_c, 9, 38, 0
5, 33596, Note_on_c, 9, 38, 0
5, 33600, Note_on_c, 9, 38, 95
5, 33660, Note_on_c, 9, 38, 0
5, 33680, Note_on_c, 9, 38, 32
5, 33740, Note_on_c, 9, 38, 0
5, 33760, Note_on_c, 9, 39, 110
5, 33820, Note_on_c, 9, 39, 0
5, 33840, Note_on_c, 9, 38, 36
5, 33900, Note_on_c, 9, 38, 0
5, 33920, Note_on_c, 9, 38, 74
5, 33980, Note_on_c, 9, 38, 0
5, 34000, Note_on_c, 9, 38, 23
5, 34060, Note_on_c, 9, 38, 0
5, 34080, Note_on_c, 9, 38, 22
5, 34140, Note_on_c, 9, 38, 0
5, 34240, Note_on_c, 9, 38, 62
5, 34380, Note_on_c, 9, 39, 127
5, 34440, Note_on_c, 9, 39, 0
5, 34528, Note_on_c, 9, 40, 46
5, 34556, Note_on_c, 9, 38, 0
5, 35004, Note_on_c, 9, 40, 0
5, 35008, Note_on_c, 9, 40, 50
5, 35040, Note_on_c, 9, 38, 119
5, 35052, Note_on_c, 9, 44, 127
5, 35228, Note_on_c, 9, 40, 0
5, 35280, Note_on_c, 9, 38, 0
5, 35336, Note_on_c, 9, 38, 56
5, 35432, Note_on_c, 9, 38, 0
5, 35452, Note_on_c, 9, 44, 0
5, 35488, Note_on_c, 9, 40, 41
5, 35520, Note_on_c, 9, 38, 99
5, 35688, Note_on_c, 9, 38, 0
5, 35708, Note_on_c, 9, 40, 0
5, 35968, Note_on_c, 9, 40, 37
5, 36000, Note_on_c, 9, 38, 117
5, 36000, Note_on_c, 9, 46, 110
5, 36188, Note_on_c, 9, 40, 0
5, 36236, Note_on_c, 9, 38, 0
5, 36296, Note_on_c, 9, 38, 52
5, 36364, Note_on_c, 9, 46, 0
5, 36420, Note_on_c, 9, 38, 0
5, 36448, Note_on_c, 9, 40, 46
5, 36480, Note_on_c, 9, 38, 78
5, 36904, Note_on_c, 9, 38, 0
5, 36924, Note_on_c, 9, 40, 0
5, 36928, Note_on_c, 9, 40, 50
5, 36960, Note_on_c, 9, 38, 121
5, 36972, Note_on_c, 9, 44, 114
5, 37148, Note_on_c, 9, 40, 0
5, 37184, Note_on_c, 9, 38, 0
5, 37256, Note_on_c, 9, 38, 55
5, 37332, Note_on_c, 9, 38, 0
5, 37384, Note_on_c, 9, 44, 0
5, 37408, Note_on_c, 9, 40, 41
5, 37440, Note_on_c, 9, 38, 65
5, 37628, Note_on_c, 9, 40, 0
5, 37684, Note_on_c, 9, 38, 0
5, 37736, Note_on_c, 9, 39, 97
5, 37736, Note_on_c, 9, 38, 68
5, 37796, Note_on_c, 9, 38, 0
5, 37824, Note_on_c, 9, 39, 0
5, 37888, Note_on_c, 9, 40, 37
5, 37932, Note_on_c, 9, 44, 115
5, 38108, Note_on_c, 9, 40, 0
5, 38216, Note_on_c, 9, 38, 61
5, 38328, Note_on_c, 9, 38, 0
5, 38360, Note_on_c, 9, 44, 0
5, 38368, Note_on_c, 9, 40, 46
5, 38400, Note_on_c, 9, 38, 73
5, 38788, Note_on_c, 9, 38, 0
5, 38844, Note_on_c, 9, 40, 0
5, 38848, Note_on_c, 9, 40, 50
5, 38880, Note_on_c, 9, 38, 119
5, 38892, Note_on_c, 9, 44, 111
5, 39068, Note_on_c, 9, 40, 0
5, 39080, Note_on_c, 9, 38, 0
5, 39176, Note_on_c, 9, 38, 67
5, 39236, Note_on_c, 9, 44, 0
5, 39280, Note_on_c, 9, 38, 0
5, 39328, Note_on_c, 9, 40, 41
5, 39360, Note_on_c, 9, 38, 62
5, 39504, Note_on_c, 9, 38, 0
5, 39548, Note_on_c, 9, 40, 0
5, 39656, Note_on_c, 9, 38, 76
5, 39808, Note_on_c, 9, 40, 37
5, 39820, Note_on_c, 9, 38, 0
5, 39852, Note_on_c, 9, 44, 126
5, 40264, Note_on_c, 9, 44, 0
5, 40284, Note_on_c, 9, 40, 0
5, 40288, Note_on_c, 9, 40, 46
5, 40320, Note_on_c, 9, 38, 80
5, 40736, Note_on_c, 9, 38, 0
5, 40764, Note_on_c, 9, 40, 0
5, 40768, Note_on_c, 9, 40, 50
5, 40800, Note_on_c, 9, 38, 121
5, 40812, Note_on_c, 9, 44, 114
5, 41232, Note_on_c, 9, 44, 0
5, 41244, Note_on_c, 9, 40, 0
5, 41248, Note_on_c, 9, 40, 41
5, 41280, Note_on_c, 9, 38, 43
5, 41316, Note_on_c, 9, 38, 0
5, 41724, Note_on_c, 9, 40, 0
5, 41728, Note_on_c, 9, 40, 37
5, 41760, Note_on_c, 9, 38, 121
5, 41772, Note_on_c, 9, 44, 111
5, 41876, Note_on_c, 9, 38, 0
5, 42168, Note_on_c, 9, 38, 0
5, 42180, Note_on_c, 9, 44, 0
5, 42204, Note_on_c, 9, 40, 0
5, 42208, Note_on_c, 9, 40, 46
5, 42240, Note_on_c, 9, 38, 41
5, 42240, Note_on_c, 9, 35, 110
5, 42684, Note_on_c, 9, 40, 0
5, 42688, Note_on_c, 9, 40, 50
5, 42720, Note_on_c, 9, 38, 111
5, 42732, Note_on_c, 9, 44, 119
5, 42756, Note_on_c, 9, 35, 0
5, 42800, Note_on_c, 9, 38, 0
5, 42908, Note_on_c, 9, 38, 0
5, 42908, Note_on_c, 9, 40, 0
5, 43016, Note_on_c, 9, 38, 95
5, 43096, Note_on_c, 9, 38, 0
5, 43156, Note_on_c, 9, 44, 0
5, 43168, Note_on_c, 9, 40, 41
5, 43200, Note_on_c, 9, 38, 81
5, 43596, Note_on_c, 9, 38, 0
5, 43644, Note_on_c, 9, 40, 0
5, 43648, Note_on_c, 9, 40, 37
5, 43680, Note_on_c, 9, 38, 105
5, 43692, Note_on_c, 9, 44, 123
5, 43844, Note_on_c, 9, 38, 0
5, 43868, Note_on_c, 9, 40, 0
5, 43976, Note_on_c, 9, 38, 69
5, 44052, Note_on_c, 9, 38, 0
5, 44104, Note_on_c, 9, 44, 0
5, 44128, Note_on_c, 9, 40, 46
5, 44160, Note_on_c, 9, 38, 69
5, 44532, Note_on_c, 9, 38, 0
5, 44604, Note_on_c, 9, 40, 0
5, 44608, Note_on_c, 9, 40, 50
5, 44640, Note_on_c, 9, 38, 101
5, 44652, Note_on_c, 9, 44, 111
5, 44828, Note_on_c, 9, 38, 0
5, 44828, Note_on_c, 9, 40, 0
5, 44936, Note_on_c, 9, 38, 105
5, 45040, Note_on_c, 9, 38, 0
5, 45048, Note_on_c, 9, 44, 0
5, 45088, Note_on_c, 9, 40, 41
5, 45120, Note_on_c, 9, 38, 87
5, 45508, Note_on_c, 9, 38, 0
5, 45564, Note_on_c, 9, 40, 0
5, 45568, Note_on_c, 9, 40, 37
5, 45600, Note_on_c, 9, 38, 97
5, 45612, Note_on_c, 9, 44, 114
5, 45780, Note_on_c, 9, 38, 0
5, 45788, Note_on_c, 9, 40, 0
5, 45896, Note_on_c, 9, 38, 105
5, 46000, Note_on_c, 9, 44, 0
5, 46008, Note_on_c, 9, 38, 0
5, 46048, Note_on_c, 9, 40, 46
5, 46080, Note_on_c, 9, 38, 61
5, 46524, Note_on_c, 9, 40, 0
5, 46528, Note_on_c, 9, 40, 50
5, 46536, Note_on_c, 9, 38, 0
5, 46560, Note_on_c, 9, 38, 121
5, 46572, Note_on_c, 9, 44, 120
5, 46976, Note_on_c, 9, 44, 0
5, 47004, Note_on_c, 9, 40, 0
5, 47008, Note_on_c, 9, 40, 41
5, 47040, Note_on_c, 9, 38, 71
5, 47096, Note_on_c, 9, 38, 0
5, 47228, Note_on_c, 9, 40, 0
5, 47240, Note_on_c, 9, 38, 0
5, 47336, Note_on_c, 9, 38, 105
5, 47440, Note_on_c, 9, 38, 0
5, 47488, Note_on_c, 9, 40, 37
5, 47532, Note_on_c, 9, 44, 127
5, 47920, Note_on_c, 9, 44, 0
5, 47964, Note_on_c, 9, 40, 0
5, 47968, Note_on_c, 9, 40, 46
5, 48000, Note_on_c, 9, 38, 73
5, 48188, Note_on_c, 9, 40, 0
5, 48196, Note_on_c, 9, 38, 0
5, 48296, Note_on_c, 9, 39, 117
5, 48400, Note_on_c, 9, 39, 0
5, 48448, Note_on_c, 9, 40, 50
5, 48480, Note_on_c, 9, 38, 50
5, 48492, Note_on_c, 9, 44, 96
5, 48924, Note_on_c, 9, 40, 0
5, 48928, Note_on_c, 9, 40, 41
5, 48960, Note_on_c, 9, 38, 85
5, 48996, Note_on_c, 9, 38, 0
5, 49076, Note_on_c, 9, 44, 0
5, 49116, Note_on_c, 9, 38, 0
5, 49148, Note_on_c, 9, 40, 0
5, 49256, Note_on_c, 9, 39, 115
5, 49360, Note_on_c, 9, 39, 0
5, 49408, Note_on_c, 9, 40, 37
5, 49440, Note_on_c, 9, 46, 85
5, 49628, Note_on_c, 9, 40, 0
5, 49736, Note_on_c, 9, 38, 92
5, 49804, Note_on_c, 9, 46, 0
5, 49816, Note_on_c, 9, 38, 0
5, 49888, Note_on_c, 9, 40, 46
5, 49920, Note_on_c, 9, 35, 110
5, 49920, Note_on_c, 9, 53, 80
5, 49932, Note_on_c, 9, 44, 76
5, 50276, Note_on_c, 9, 53, 0
5, 50364, Note_on_c, 9, 40, 0
5, 50368, Note_on_c, 9, 40, 50
5, 50400, Note_on_c, 9, 38, 107
5, 50412, Note_on_c, 9, 44, 127
5, 50436, Note_on_c, 9, 35, 0
5, 50496, Note_on_c, 9, 44, 0
5, 50796, Note_on_c, 9, 44, 0
5, 50844, Note_on_c, 9, 40, 0
5, 50848, Note_on_c, 9, 40, 41
5, 50880, Note_on_c, 9, 38, 67
5, 50960, Note_on_c, 9, 38, 0
5, 51320, Note_on_c, 9, 38, 0
5, 51324, Note_on_c, 9, 40, 0
5, 51328, Note_on_c, 9, 40, 37
5, 51360, Note_on_c, 9, 38, 113
5, 51372, Note_on_c, 9, 44, 127
5, 51548, Note_on_c, 9, 40, 0
5, 51588, Note_on_c, 9, 38, 0
5, 51656, Note_on_c, 9, 38, 86
5, 51756, Note_on_c, 9, 38, 0
5, 51792, Note_on_c, 9, 44, 0
5, 51808, Note_on_c, 9, 40, 46
5, 51840, Note_on_c, 9, 38, 83
5, 52284, Note_on_c, 9, 40, 0
5, 52288, Note_on_c, 9, 40, 50
5, 52320, Note_on_c, 9, 38, 113
5, 52332, Note_on_c, 9, 44, 102
5, 52340, Note_on_c, 9, 38, 0
5, 52760, Note_on_c, 9, 44, 0
5, 52764, Note_on_c, 9, 40, 0
5, 52768, Note_on_c, 9, 40, 41
5, 52800, Note_on_c, 9, 38, 63
5, 52924, Note_on_c, 9, 38, 0
5, 53100, Note_on_c, 9, 39, 110
5, 53208, Note_on_c, 9, 39, 0
5, 53208, Note_on_c, 9, 38, 0
5, 53244, Note_on_c, 9, 40, 0
5, 53248, Note_on_c, 9, 40, 37
5, 53280, Note_on_c, 9, 38, 113
5, 53292, Note_on_c, 9, 44, 126
5, 53468, Note_on_c, 9, 40, 0
5, 53500, Note_on_c, 9, 38, 0
5, 53576, Note_on_c, 9, 38, 77
5, 53664, Note_on_c, 9, 38, 0
5, 53704, Note_on_c, 9, 44, 0
5, 53728, Note_on_c, 9, 40, 46
5, 53760, Note_on_c, 9, 38, 69
5, 54124, Note_on_c, 9, 38, 0
5, 54204, Note_on_c, 9, 40, 0
5, 54208, Note_on_c, 9, 40, 50
5, 54240, Note_on_c, 9, 38, 111
5, 54252, Note_on_c, 9, 44, 113
5, 54656, Note_on_c, 9, 38, 0
5, 54672, Note_on_c, 9, 44, 0
5, 54684, Note_on_c, 9, 40, 0
5, 54688, Note_on_c, 9, 40, 41
5, 54720, Note_on_c, 9, 38, 71
5, 55128, Note_on_c, 9, 38, 0
5, 55164, Note_on_c, 9, 40, 0
5, 55168, Note_on_c, 9, 40, 37
5, 55200, Note_on_c, 9, 38, 95
5, 55212, Note_on_c, 9, 44, 113
5, 55388, Note_on_c, 9, 40, 0
5, 55436, Note_on_c, 9, 38, 0
5, 55496, Note_on_c, 9, 38, 107
5, 55584, Note_on_c, 9, 38, 0
5, 55632, Note_on_c, 9, 44, 0
5, 55648, Note_on_c, 9, 40, 46
5, 55680, Note_on_c, 9, 38, 93
5, 56092, Note_on_c, 9, 38, 0
5, 56124, Note_on_c, 9, 40, 0
5, 56128, Note_on_c, 9, 40, 50
5, 56160, Note_on_c, 9, 38, 99
5, 56172, Note_on_c, 9, 44, 118
5, 56336, Note_on_c, 9, 38, 0
5, 56348, Note_on_c, 9, 40, 0
5, 56456, Note_on_c, 9, 38, 89
5, 56532, Note_on_c, 9, 38, 0
5, 56580, Note_on_c, 9, 44, 0
5, 56608, Note_on_c, 9, 40, 41
5, 56640, Note_on_c, 9, 38, 73
5, 57084, Note_on_c, 9, 40, 0
5, 57088, Note_on_c, 9, 40, 37
5, 57120, Note_on_c, 9, 38, 97
5, 57124, Note_on_c, 9, 38, 0
5, 57132, Note_on_c, 9, 44, 119
5, 57284, Note_on_c, 9, 44, 0
5, 57308, Note_on_c, 9, 40, 0
5, 57324, Note_on_c, 9, 38, 0
5, 57416, Note_on_c, 9, 39, 120
5, 57512, Note_on_c, 9, 39, 0
5, 57568, Note_on_c, 9, 40, 46
5, 57600, Note_on_c, 9, 38, 45
5, 57964, Note_on_c, 9, 38, 0
5, 58044, Note_on_c, 9, 40, 0
5, 58048, Note_on_c, 9, 40, 50
5, 58080, Note_on_c, 9, 38, 107
5, 58092, Note_on_c, 9, 44, 123
5, 58460, Note_on_c, 9, 44, 0
5, 58504, Note_on_c, 9, 38, 0
5, 58524, Note_on_c, 9, 40, 0
5, 58528, Note_on_c, 9, 40, 41
5, 58560, Note_on_c, 9, 38, 64
5, 59004, Note_on_c, 9, 40, 0
5, 59008, Note_on_c, 9, 40, 37
5, 59040, Note_on_c, 9, 38, 111
5, 59052, Note_on_c, 9, 38, 0
5, 59052, Note_on_c, 9, 44, 118
5, 59228, Note_on_c, 9, 40, 0
5, 59260, Note_on_c, 9, 38, 0
5, 59336, Note_on_c, 9, 38, 68
5, 59436, Note_on_c, 9, 38, 0
5, 59440, Note_on_c, 9, 44, 0
5, 59488, Note_on_c, 9, 40, 46
5, 59520, Note_on_c, 9, 38, 71
5, 59956, Note_on_c, 9, 38, 0
5, 59964, Note_on_c, 9, 40, 0
5, 59968, Note_on_c, 9, 40, 50
5, 60000, Note_on_c, 9, 38, 117
5, 60012, Note_on_c, 9, 44, 115
5, 60424, Note_on_c, 9, 44, 0
5, 60444, Note_on_c, 9, 40, 0
5, 60448, Note_on_c, 9, 40, 41
5, 60480, Note_on_c, 9, 38, 63
5, 60496, Note_on_c, 9, 38, 0
5, 60924, Note_on_c, 9, 40, 0
5, 60928, Note_on_c, 9, 40, 37
5, 60960, Note_on_c, 9, 38, 107
5, 60964, Note_on_c, 9, 38, 0
5, 60972, Note_on_c, 9, 44, 127
5, 61148, Note_on_c, 9, 40, 0
5, 61180, Note_on_c, 9, 38, 0
5, 61256, Note_on_c, 9, 38, 87
5, 61344, Note_on_c, 9, 38, 0
5, 61376, Note_on_c, 9, 44, 0
5, 61408, Note_on_c, 9, 40, 46
5, 61440, Note_on_c, 9, 38, 75
5, 61740, Note_on_c, 9, 39, 110
5, 61820, Note_on_c, 9, 38, 0
5, 61848, Note_on_c, 9, 39, 0
5, 61884, Note_on_c, 9, 40, 0
5, 61888, Note_on_c, 9, 40, 50
5, 61920, Note_on_c, 9, 38, 111
5, 61932, Note_on_c, 9, 44, 123
5, 62328, Note_on_c, 9, 44, 0
5, 62332, Note_on_c, 9, 38, 0
5, 62364, Note_on_c, 9, 40, 0
5, 62368, Note_on_c, 9, 40, 41
5, 62400, Note_on_c, 9, 35, 110
5, 62764, Note_on_c, 9, 35, 0
5, 62844, Note_on_c, 9, 40, 0
5, 62848, Note_on_c, 9, 40, 37
5, 62880, Note_on_c, 9, 38, 119
5, 62892, Note_on_c, 9, 44, 115
5, 63068, Note_on_c, 9, 40, 0
5, 63104, Note_on_c, 9, 38, 0
5, 63176, Note_on_c, 9, 38, 68
5, 63180, Note_on_c, 9, 35, 90
5, 63228, Note_on_c, 9, 38, 0
5, 63280, Note_on_c, 9, 44, 0
5, 63288, Note_on_c, 9, 35, 0
5, 63328, Note_on_c, 9, 40, 46
5, 63804, Note_on_c, 9, 40, 0
5, 63808, Note_on_c, 9, 40, 50
5, 63852, Note_on_c, 9, 44, 127
5, 64140, Note_on_c, 9, 39, 110
5, 64248, Note_on_c, 9, 39, 0
5, 64252, Note_on_c, 9, 44, 0
5, 64284, Note_on_c, 9, 40, 0
5, 64288, Note_on_c, 9, 40, 41
5, 64620, Note_on_c, 9, 39, 110
5, 64728, Note_on_c, 9, 39, 0
5, 64764, Note_on_c, 9, 40, 0
5, 64768, Note_on_c, 9, 40, 37
5, 64812, Note_on_c, 9, 44, 123
5, 64940, Note_on_c, 9, 44, 0
5, 65244, Note_on_c, 9, 40, 0
5, 65280, Note_on_c, 9, 40, 54
5, 65290, Note_on_c, 9, 38, 54
5, 65290, Note_on_c, 9, 42, 10
5, 65388, Note_on_c, 9, 40, 0
5, 65398, Note_on_c, 9, 42, 0
5, 65398, Note_on_c, 9, 38, 0
5, 65738, Note_on_c, 9, 40, 50
5, 65770, Note_on_c, 9, 38, 103
5, 65782, Note_on_c, 9, 44, 126
5, 65958, Note_on_c, 9, 44, 0
5, 66030, Note_on_c, 9, 38, 0
5, 66066, Note_on_c, 9, 38, 49
5, 66166, Note_on_c, 9, 38, 0
5, 66214, Note_on_c, 9, 40, 0
5, 66248, Note_on_c, 9, 40, 41
5, 66250, Note_on_c, 9, 38, 67
5, 66490, Note_on_c, 9, 38, 0
5, 66698, Note_on_c, 9, 40, 37
5, 66724, Note_on_c, 9, 40, 0
5, 66730, Note_on_c, 9, 38, 107
5, 66742, Note_on_c, 9, 44, 105
5, 66930, Note_on_c, 9, 44, 0
5, 67006, Note_on_c, 9, 38, 0
5, 67026, Note_on_c, 9, 38, 49
5, 67078, Note_on_c, 9, 38, 0
5, 67174, Note_on_c, 9, 40, 0
5, 67178, Note_on_c, 9, 40, 46
5, 67210, Note_on_c, 9, 38, 72
5, 67438, Note_on_c, 9, 38, 0
5, 67654, Note_on_c, 9, 40, 0
5, 67658, Note_on_c, 9, 40, 50
5, 67690, Note_on_c, 9, 38, 105
5, 67702, Note_on_c, 9, 44, 107
5, 67874, Note_on_c, 9, 44, 0
5, 67954, Note_on_c, 9, 38, 0
5, 67986, Note_on_c, 9, 38, 45
5, 68050, Note_on_c, 9, 38, 0
5, 68134, Note_on_c, 9, 40, 0
5, 68138, Note_on_c, 9, 40, 41
5, 68170, Note_on_c, 9, 38, 72
5, 68390, Note_on_c, 9, 38, 0
5, 68470, Note_on_c, 9, 39, 110
5, 68578, Note_on_c, 9, 39, 0
5, 68614, Note_on_c, 9, 40, 0
5, 68618, Note_on_c, 9, 40, 37
5, 68650, Note_on_c, 9, 38, 109
5, 68662, Note_on_c, 9, 44, 114
5, 68866, Note_on_c, 9, 38, 0
5, 68870, Note_on_c, 9, 44, 0
5, 68946, Note_on_c, 9, 38, 63
5, 69042, Note_on_c, 9, 38, 0
5, 69094, Note_on_c, 9, 40, 0
5, 69098, Note_on_c, 9, 40, 46
5, 69130, Note_on_c, 9, 38, 71
5, 69286, Note_on_c, 9, 38, 0
5, 69574, Note_on_c, 9, 40, 0
5, 69578, Note_on_c, 9, 40, 50
5, 69610, Note_on_c, 9, 38, 113
5, 69622, Note_on_c, 9, 44, 113
5, 69814, Note_on_c, 9, 44, 0
5, 70018, Note_on_c, 9, 38, 0
5, 70054, Note_on_c, 9, 40, 0
5, 70058, Note_on_c, 9, 40, 41
5, 70090, Note_on_c, 9, 38, 57
5, 70234, Note_on_c, 9, 38, 0
5, 70534, Note_on_c, 9, 40, 0
5, 70538, Note_on_c, 9, 40, 37
5, 70570, Note_on_c, 9, 38, 109
5, 70582, Note_on_c, 9, 44, 110
5, 70758, Note_on_c, 9, 44, 0
5, 70858, Note_on_c, 9, 38, 0
5, 70866, Note_on_c, 9, 38, 56
5, 70926, Note_on_c, 9, 38, 0
5, 71014, Note_on_c, 9, 40, 0
5, 71018, Note_on_c, 9, 40, 46
5, 71050, Note_on_c, 9, 38, 55
5, 71490, Note_on_c, 9, 38, 0
5, 71494, Note_on_c, 9, 40, 0
5, 71498, Note_on_c, 9, 40, 50
5, 71530, Note_on_c, 9, 38, 97
5, 71542, Note_on_c, 9, 44, 115
5, 71718, Note_on_c, 9, 40, 0
5, 71754, Note_on_c, 9, 38, 0
5, 71826, Note_on_c, 9, 39, 113
5, 71946, Note_on_c, 9, 39, 0
5, 71970, Note_on_c, 9, 44, 0
5, 71978, Note_on_c, 9, 40, 41
5, 72010, Note_on_c, 9, 38, 81
5, 72454, Note_on_c, 9, 40, 0
5, 72458, Note_on_c, 9, 40, 37
5, 72490, Note_on_c, 9, 38, 103
5, 72502, Note_on_c, 9, 44, 115
5, 72570, Note_on_c, 9, 38, 0
5, 72678, Note_on_c, 9, 40, 0
5, 72726, Note_on_c, 9, 38, 0
5, 72786, Note_on_c, 9, 38, 55
5, 72906, Note_on_c, 9, 44, 0
5, 72938, Note_on_c, 9, 40, 46
5, 72970, Note_on_c, 9, 38, 0
5, 72970, Note_on_c, 9, 38, 63
5, 73414, Note_on_c, 9, 40, 0
5, 73418, Note_on_c, 9, 40, 50
5, 73450, Note_on_c, 9, 38, 117
5, 73462, Note_on_c, 9, 44, 114
5, 73470, Note_on_c, 9, 38, 0
5, 73638, Note_on_c, 9, 40, 0
5, 73706, Note_on_c, 9, 38, 0
5, 73746, Note_on_c, 9, 38, 50
5, 73834, Note_on_c, 9, 38, 0
5, 73882, Note_on_c, 9, 44, 0
5, 73898, Note_on_c, 9, 40, 41
5, 73930, Note_on_c, 9, 38, 62
5, 74374, Note_on_c, 9, 40, 0
5, 74378, Note_on_c, 9, 40, 37
5, 74410, Note_on_c, 9, 38, 105
5, 74422, Note_on_c, 9, 44, 110
5, 74474, Note_on_c, 9, 38, 0
5, 74598, Note_on_c, 9, 40, 0
5, 74682, Note_on_c, 9, 38, 0
5, 74706, Note_on_c, 9, 38, 36
5, 74830, Note_on_c, 9, 44, 0
5, 74858, Note_on_c, 9, 40, 46
5, 74890, Note_on_c, 9, 38, 0
5, 74890, Note_on_c, 9, 38, 69
5, 75334, Note_on_c, 9, 40, 0
5, 75338, Note_on_c, 9, 40, 50
5, 75370, Note_on_c, 9, 38, 93
5, 75382, Note_on_c, 9, 38, 0
5, 75382, Note_on_c, 9, 44, 110
5, 75558, Note_on_c, 9, 40, 0
5, 75598, Note_on_c, 9, 38, 0
5, 75666, Note_on_c, 9, 38, 63
5, 75746, Note_on_c, 9, 38, 0
5, 75802, Note_on_c, 9, 44, 0
5, 75818, Note_on_c, 9, 40, 41
5, 75850, Note_on_c, 9, 38, 64
5, 76294, Note_on_c, 9, 40, 0
5, 76298, Note_on_c, 9, 40, 37
5, 76330, Note_on_c, 9, 38, 107
5, 76342, Note_on_c, 9, 44, 110
5, 76378, Note_on_c, 9, 38, 0
5, 76518, Note_on_c, 9, 40, 0
5, 76582, Note_on_c, 9, 38, 0
5, 76626, Note_on_c, 9, 38, 54
5, 76706, Note_on_c, 9, 38, 0
5, 76754, Note_on_c, 9, 44, 0
5, 76778, Note_on_c, 9, 40, 46
5, 76810, Note_on_c, 9, 38, 71
5, 77254, Note_on_c, 9, 40, 0
5, 77258, Note_on_c, 9, 40, 50
5, 77290, Note_on_c, 9, 38, 109
5, 77302, Note_on_c, 9, 44, 107
5, 77318, Note_on_c, 9, 38, 0
5, 77478, Note_on_c, 9, 40, 0
5, 77542, Note_on_c, 9, 38, 0
5, 77586, Note_on_c, 9, 38, 52
5, 77690, Note_on_c, 9, 38, 0
5, 77710, Note_on_c, 9, 44, 0
5, 77738, Note_on_c, 9, 40, 41
5, 77770, Note_on_c, 9, 38, 66
5, 78214, Note_on_c, 9, 40, 0
5, 78218, Note_on_c, 9, 40, 37
5, 78222, Note_on_c, 9, 38, 0
5, 78250, Note_on_c, 9, 38, 101
5, 78262, Note_on_c, 9, 44, 110
5, 78438, Note_on_c, 9, 40, 0
5, 78486, Note_on_c, 9, 38, 0
5, 78546, Note_on_c, 9, 39, 82
5, 78634, Note_on_c, 9, 39, 0
5, 78686, Note_on_c, 9, 44, 0
5, 78698, Note_on_c, 9, 40, 46
5, 78730, Note_on_c, 9, 38, 70
5, 79174, Note_on_c, 9, 40, 0
5, 79178, Note_on_c, 9, 40, 50
5, 79210, Note_on_c, 9, 38, 103
5, 79222, Note_on_c, 9, 44, 106
5, 79302, Note_on_c, 9, 38, 0
5, 79650, Note_on_c, 9, 44, 0
5, 79654, Note_on_c, 9, 40, 0
5, 79658, Note_on_c, 9, 40, 41
5, 79690, Note_on_c, 9, 38, 69
5, 79694, Note_on_c, 9, 38, 0
5, 79942, Note_on_c, 9, 38, 0
5, 79990, Note_on_c, 9, 39, 120
5, 80134, Note_on_c, 9, 40, 0
5, 80170, Note_on_c, 9, 38, 63
5, 80182, Note_on_c, 9, 44, 104
5, 80210, Note_on_c, 9, 39, 0
5, 80414, Note_on_c, 9, 38, 0
5, 80470, Note_on_c, 9, 35, 100
5, 80578, Note_on_c, 9, 35, 0
5, 80610, Note_on_c, 9, 44, 0
5, 80618, Note_on_c, 9, 40, 46
5, 80810, Note_on_c, 9, 39, 60
5, 80838, Note_on_c, 9, 40, 0
5, 80966, Note_on_c, 9, 35, 70
5, 81022, Note_on_c, 9, 39, 0
5, 81074, Note_on_c, 9, 35, 0
5, 81098, Note_on_c, 9, 40, 50
5, 81142, Note_on_c, 9, 44, 102
5, 81562, Note_on_c, 9, 44, 0
5, 81574, Note_on_c, 9, 40, 0
5, 81578, Note_on_c, 9, 40, 41
5, 81610, Note_on_c, 9, 38, 66
5, 82026, Note_on_c, 9, 38, 0
5, 82054, Note_on_c, 9, 40, 0
5, 82058, Note_on_c, 9, 40, 37
5, 82090, Note_on_c, 9, 38, 119
5, 82102, Note_on_c, 9, 44, 89
5, 82534, Note_on_c, 9, 40, 0
5, 82538, Note_on_c, 9, 40, 46
5, 82546, Note_on_c, 9, 44, 0
5, 82570, Note_on_c, 9, 38, 0
5, 82570, Note_on_c, 9, 38, 66
5, 83006, Note_on_c, 9, 38, 0
5, 83014, Note_on_c, 9, 40, 0
5, 83018, Note_on_c, 9, 40, 50
5, 83050, Note_on_c, 9, 38, 115
5, 83062, Note_on_c, 9, 44, 100
5, 83238, Note_on_c, 9, 40, 0
5, 83286, Note_on_c, 9, 38, 0
5, 83346, Note_on_c, 9, 38, 59
5, 83422, Note_on_c, 9, 38, 0
5, 83490, Note_on_c, 9, 44, 0
5, 83498, Note_on_c, 9, 40, 41
5, 83530, Note_on_c, 9, 38, 73
5, 83974, Note_on_c, 9, 40, 0
5, 83978, Note_on_c, 9, 40, 37
5, 84010, Note_on_c, 9, 38, 117
5, 84022, Note_on_c, 9, 44, 89
5, 84038, Note_on_c, 9, 38, 0
5, 84194, Note_on_c, 9, 44, 0
5, 84198, Note_on_c, 9, 40, 0
5, 84226, Note_on_c, 9, 38, 0
5, 84250, Note_on_c, 9, 46, 65
5, 84306, Note_on_c, 9, 38, 64
5, 84410, Note_on_c, 9, 38, 0
5, 84458, Note_on_c, 9, 40, 46
5, 84490, Note_on_c, 9, 46, 0
5, 84490, Note_on_c, 9, 38, 50
5, 84934, Note_on_c, 9, 40, 0
5, 84938, Note_on_c, 9, 40, 50
5, 84970, Note_on_c, 9, 38, 111
5, 84982, Note_on_c, 9, 44, 106
5, 85010, Note_on_c, 9, 38, 0
5, 85158, Note_on_c, 9, 40, 0
5, 85250, Note_on_c, 9, 38, 0
5, 85266, Note_on_c, 9, 38, 52
5, 85342, Note_on_c, 9, 38, 0
5, 85414, Note_on_c, 9, 44, 0
5, 85418, Note_on_c, 9, 40, 41
5, 85450, Note_on_c, 9, 38, 55
5, 85894, Note_on_c, 9, 40, 0
5, 85898, Note_on_c, 9, 40, 37
5, 85922, Note_on_c, 9, 38, 0
5, 85930, Note_on_c, 9, 38, 113
5, 85942, Note_on_c, 9, 44, 107
5, 86118, Note_on_c, 9, 40, 0
5, 86210, Note_on_c, 9, 38, 0
5, 86226, Note_on_c, 9, 38, 44
5, 86306, Note_on_c, 9, 38, 0
5, 86378, Note_on_c, 9, 40, 46
5, 86382, Note_on_c, 9, 44, 0
5, 86410, Note_on_c, 9, 38, 66
5, 86826, Note_on_c, 9, 38, 0
5, 86854, Note_on_c, 9, 40, 0
5, 86858, Note_on_c, 9, 40, 50
5, 86890, Note_on_c, 9, 38, 109
5, 86902, Note_on_c, 9, 44, 111
5, 87226, Note_on_c, 9, 35, 74
5, 87294, Note_on_c, 9, 38, 0
5, 87326, Note_on_c, 9, 44, 0
5, 87334, Note_on_c, 9, 40, 0
5, 87334, Note_on_c, 9, 35, 0
5, 87338, Note_on_c, 9, 40, 41
5, 87370, Note_on_c, 9, 38, 62
5, 87382, Note_on_c, 9, 44, 91
5, 87534, Note_on_c, 9, 44, 0
5, 87558, Note_on_c, 9, 40, 0
5, 87586, Note_on_c, 9, 38, 0
5, 87610, Note_on_c, 9, 46, 90
5, 87666, Note_on_c, 9, 39, 117
5, 87806, Note_on_c, 9, 39, 0
5, 87818, Note_on_c, 9, 40, 37
5, 87850, Note_on_c, 9, 38, 57
5, 87970, Note_on_c, 9, 46, 0
5, 88150, Note_on_c, 9, 39, 110
5, 88150, Note_on_c, 9, 35, 110
5, 88178, Note_on_c, 9, 38, 0
5, 88258, Note_on_c, 9, 35, 0
5, 88294, Note_on_c, 9, 40, 0
5, 88298, Note_on_c, 9, 40, 46
5, 88330, Note_on_c, 9, 39, 0
5, 88330, Note_on_c, 9, 38, 80
5, 88774, Note_on_c, 9, 40, 0
5, 88778, Note_on_c, 9, 40, 50
5, 88810, Note_on_c, 9, 38, 113
5, 88822, Note_on_c, 9, 44, 127
5, 88850, Note_on_c, 9, 38, 0
5, 88998, Note_on_c, 9, 40, 0
5, 89090, Note_on_c, 9, 38, 0
5, 89106, Note_on_c, 9, 38, 50
5, 89194, Note_on_c, 9, 38, 0
5, 89218, Note_on_c, 9, 44, 0
5, 89258, Note_on_c, 9, 40, 41
5, 89290, Note_on_c, 9, 38, 52
5, 89734, Note_on_c, 9, 40, 0
5, 89738, Note_on_c, 9, 40, 37
5, 89746, Note_on_c, 9, 38, 0
5, 89770, Note_on_c, 9, 38, 117
5, 89782, Note_on_c, 9, 44, 107
5, 89958, Note_on_c, 9, 40, 0
5, 90050, Note_on_c, 9, 38, 0
5, 90066, Note_on_c, 9, 38, 41
5, 90126, Note_on_c, 9, 38, 0
5, 90214, Note_on_c, 9, 44, 0
5, 90218, Note_on_c, 9, 40, 46
5, 90250, Note_on_c, 9, 38, 67
5, 90682, Note_on_c, 9, 38, 0
5, 90694, Note_on_c, 9, 40, 0
5, 90698, Note_on_c, 9, 40, 50
5, 90730, Note_on_c, 9, 38, 115
5, 90742, Note_on_c, 9, 44, 98
5, 90918, Note_on_c, 9, 40, 0
5, 90974, Note_on_c, 9, 38, 0
5, 91026, Note_on_c, 9, 38, 50
5, 91126, Note_on_c, 9, 38, 0
5, 91174, Note_on_c, 9, 44, 0
5, 91178, Note_on_c, 9, 40, 41
5, 91210, Note_on_c, 9, 38, 71
5, 91610, Note_on_c, 9, 38, 0
5, 91654, Note_on_c, 9, 40, 0
5, 91658, Note_on_c, 9, 40, 37
5, 91690, Note_on_c, 9, 38, 121
5, 91702, Note_on_c, 9, 44, 102
5, 91874, Note_on_c, 9, 38, 65
5, 91878, Note_on_c, 9, 40, 0
5, 92014, Note_on_c, 9, 38, 0
5, 92138, Note_on_c, 9, 40, 46
5, 92154, Note_on_c, 9, 44, 0
5, 92154, Note_on_c, 9, 38, 0
5, 92170, Note_on_c, 9, 38, 82
5, 92586, Note_on_c, 9, 38, 0
5, 92614, Note_on_c, 9, 40, 0
5, 92618, Note_on_c, 9, 40, 50
5, 92650, Note_on_c, 9, 38, 115
5, 92662, Note_on_c, 9, 44, 107
5, 92838, Note_on_c, 9, 40, 0
5, 92870, Note_on_c, 9, 38, 0
5, 92946, Note_on_c, 9, 38, 60
5, 93058, Note_on_c, 9, 38, 0
5, 93098, Note_on_c, 9, 40, 41
5, 93102, Note_on_c, 9, 44, 0
5, 93130, Note_on_c, 9, 38, 63
5, 93574, Note_on_c, 9, 40, 0
5, 93578, Note_on_c, 9, 40, 37
5, 93610, Note_on_c, 9, 38, 115
5, 93622, Note_on_c, 9, 44, 89
5, 93638, Note_on_c, 9, 38, 0
5, 94010, Note_on_c, 9, 38, 0
5, 94046, Note_on_c, 9, 44, 0
5, 94054, Note_on_c, 9, 40, 0
5, 94058, Note_on_c, 9, 40, 46
5, 94170, Note_on_c, 9, 38, 30
5, 94230, Note_on_c, 9, 38, 0
5, 94250, Note_on_c, 9, 38, 66
5, 94278, Note_on_c, 9, 40, 0
5, 94310, Note_on_c, 9, 38, 0
5, 94330, Note_on_c, 9, 38, 82
5, 94390, Note_on_c, 9, 38, 0
5, 94410, Note_on_c, 9, 39, 120
5, 94470, Note_on_c, 9, 39, 0
5, 94490, Note_on_c, 9, 38, 70
5, 94550, Note_on_c, 9, 38, 0
5, 94570, Note_on_c, 9, 38, 72
5, 94630, Note_on_c, 9, 38, 0
5, 94650, Note_on_c, 9, 38, 66
5, 94730, Note_on_c, 9, 38, 51
5, 94890, Note_on_c, 9, 35, 74
5, 94950, Note_on_c, 9, 35, 0
5, 94966, Note_on_c, 9, 38, 0
5, 94970, Note_on_c, 9, 38, 34
5, 95030, Note_on_c, 9, 38, 0
5, 95046, Note_on_c, 9, 38, 0
5, 95050, Note_on_c, 9, 38, 95
5, 95110, Note_on_c, 9, 38, 0
5, 95130, Note_on_c, 9, 38, 32
5, 95190, Note_on_c, 9, 38, 0
5, 95210, Note_on_c, 9, 39, 110
5, 95270, Note_on_c, 9, 39, 0
5, 95290, Note_on_c, 9, 38, 36
5, 95350, Note_on_c, 9, 38, 0
5, 95370, Note_on_c, 9, 38, 74
5, 95430, Note_on_c, 9, 38, 0
5, 95450, Note_on_c, 9, 38, 23
5, 95510, Note_on_c, 9, 38, 0
5, 95530, Note_on_c, 9, 38, 22
5, 95590, Note_on_c, 9, 38, 0
5, 95690, Note_on_c, 9, 38, 62
5, 95830, Note_on_c, 9, 39, 127
5, 95890, Note_on_c, 9, 39, 0
5, 95978, Note_on_c, 9, 40, 46
5, 96006, Note_on_c, 9, 38, 0
5, 96454, Note_on_c, 9, 40, 0
5, 96458, Note_on_c, 9, 40, 50
5, 96490, Note_on_c, 9, 38, 119
5, 96502, Note_on_c, 9, 44, 127
5, 96678, Note_on_c, 9, 40, 0
5, 96730, Note_on_c, 9, 38, 0
5, 96786, Note_on_c, 9, 38, 56
5, 96882, Note_on_c, 9, 38, 0
5, 96902, Note_on_c, 9, 44, 0
5, 96938, Note_on_c, 9, 40, 41
5, 96970, Note_on_c, 9, 38, 99
5, 97138, Note_on_c, 9, 38, 0
5, 97158, Note_on_c, 9, 40, 0
5, 97418, Note_on_c, 9, 40, 37
5, 97450, Note_on_c, 9, 46, 110
5, 97450, Note_on_c, 9, 38, 117
5, 97638, Note_on_c, 9, 40, 0
5, 97686, Note_on_c, 9, 38, 0
5, 97746, Note_on_c, 9, 38, 52
5, 97814, Note_on_c, 9, 46, 0
5, 97870, Note_on_c, 9, 38, 0
5, 97898, Note_on_c, 9, 40, 46
5, 97930, Note_on_c, 9, 38, 78
5, 98354, Note_on_c, 9, 38, 0
5, 98374, Note_on_c, 9, 40, 0
5, 98378, Note_on_c, 9, 40, 50
5, 98410, Note_on_c, 9, 38, 121
5, 98422, Note_on_c, 9, 44, 114
5, 98598, Note_on_c, 9, 40, 0
5, 98634, Note_on_c, 9, 38, 0
5, 98706, Note_on_c, 9, 38, 55
5, 98782, Note_on_c, 9, 38, 0
5, 98834, Note_on_c, 9, 44, 0
5, 98858, Note_on_c, 9, 40, 41
5, 98890, Note_on_c, 9, 38, 65
5, 99078, Note_on_c, 9, 40, 0
5, 99134, Note_on_c, 9, 38, 0
5, 99186, Note_on_c, 9, 38, 68
5, 99186, Note_on_c, 9, 39, 97
5, 99246, Note_on_c, 9, 38, 0
5, 99274, Note_on_c, 9, 39, 0
5, 99338, Note_on_c, 9, 40, 37
5, 99382, Note_on_c, 9, 44, 115
5, 99558, Note_on_c, 9, 40, 0
5, 99666, Note_on_c, 9, 38, 61
5, 99778, Note_on_c, 9, 38, 0
5, 99810, Note_on_c, 9, 44, 0
5, 99818, Note_on_c, 9, 40, 46
5, 99850, Note_on_c, 9, 38, 73
5, 100238, Note_on_c, 9, 38, 0
5, 100294, Note_on_c, 9, 40, 0
5, 100298, Note_on_c, 9, 40, 50
5, 100330, Note_on_c, 9, 38, 119
5, 100342, Note_on_c, 9, 44, 111
5, 100518, Note_on_c, 9, 40, 0
5, 100530, Note_on_c, 9, 38, 0
5, 100626, Note_on_c, 9, 38, 67
5, 100686, Note_on_c, 9, 44, 0
5, 100730, Note_on_c, 9, 38, 0
5, 100778, Note_on_c, 9, 40, 41
5, 100810, Note_on_c, 9, 38, 62
5, 100954, Note_on_c, 9, 38, 0
5, 100998, Note_on_c, 9, 40, 0
5, 101106, Note_on_c, 9, 38, 76
5, 101258, Note_on_c, 9, 40, 37
5, 101270, Note_on_c, 9, 38, 0
5, 101302, Note_on_c, 9, 44, 126
5, 101714, Note_on_c, 9, 44, 0
5, 101734, Note_on_c, 9, 40, 0
5, 101738, Note_on_c, 9, 40, 46
5, 101770, Note_on_c, 9, 38, 80
5, 102186, Note_on_c, 9, 38, 0
5, 102214, Note_on_c, 9, 40, 0
5, 102218, Note_on_c, 9, 40, 50
5, 102250, Note_on_c, 9, 38, 121
5, 102262, Note_on_c, 9, 44, 114
5, 102682, Note_on_c, 9, 44, 0
5, 102694, Note_on_c, 9, 40, 0
5, 102698, Note_on_c, 9, 40, 41
5, 102730, Note_on_c, 9, 38, 43
5, 102766, Note_on_c, 9, 38, 0
5, 103174, Note_on_c, 9, 40, 0
5, 103178, Note_on_c, 9, 40, 37
5, 103210, Note_on_c, 9, 38, 121
5, 103222, Note_on_c, 9, 44, 111
5, 103326, Note_on_c, 9, 38, 0
5, 103618, Note_on_c, 9, 38, 0
5, 103630, Note_on_c, 9, 44, 0
5, 103654, Note_on_c, 9, 40, 0
5, 103658, Note_on_c, 9, 40, 46
5, 103690, Note_on_c, 9, 38, 41
5, 103690, Note_on_c, 9, 35, 110
5, 104134, Note_on_c, 9, 40, 0
5, 104138, Note_on_c, 9, 40, 50
5, 104170, Note_on_c, 9, 38, 111
5, 104182, Note_on_c, 9, 44, 119
5, 104206, Note_on_c, 9, 35, 0
5, 104250, Note_on_c, 9, 38, 0
5, 104358, Note_on_c, 9, 38, 0
5, 104358, Note_on_c, 9, 40, 0
5, 104466, Note_on_c, 9, 38, 95
5, 104546, Note_on_c, 9, 38, 0
5, 104606, Note_on_c, 9, 44, 0
5, 104618, Note_on_c, 9, 40, 41
5, 104650, Note_on_c, 9, 38, 81
5, 105046, Note_on_c, 9, 38, 0
5, 105094, Note_on_c, 9, 40, 0
5, 105098, Note_on_c, 9, 40, 37
5, 105130, Note_on_c, 9, 38, 105
5, 105142, Note_on_c, 9, 44, 123
5, 105294, Note_on_c, 9, 38, 0
5, 105318, Note_on_c, 9, 40, 0
5, 105426, Note_on_c, 9, 38, 69
5, 105502, Note_on_c, 9, 38, 0
5, 105554, Note_on_c, 9, 44, 0
5, 105578, Note_on_c, 9, 40, 46
5, 105610, Note_on_c, 9, 38, 69
5, 105982, Note_on_c, 9, 38, 0
5, 106054, Note_on_c, 9, 40, 0
5, 106058, Note_on_c, 9, 40, 50
5, 106090, Note_on_c, 9, 38, 101
5, 106102, Note_on_c, 9, 44, 111
5, 106278, Note_on_c, 9, 38, 0
5, 106278, Note_on_c, 9, 40, 0
5, 106386, Note_on_c, 9, 38, 105
5, 106490, Note_on_c, 9, 38, 0
5, 106498, Note_on_c, 9, 44, 0
5, 106538, Note_on_c, 9, 40, 41
5, 106570, Note_on_c, 9, 38, 87
5, 106958, Note_on_c, 9, 38, 0
5, 107014, Note_on_c, 9, 40, 0
5, 107018, Note_on_c, 9, 40, 37
5, 107050, Note_on_c, 9, 38, 97
5, 107062, Note_on_c, 9, 44, 114
5, 107230, Note_on_c, 9, 38, 0
5, 107238, Note_on_c, 9, 40, 0
5, 107346, Note_on_c, 9, 38, 105
5, 107450, Note_on_c, 9, 44, 0
5, 107458, Note_on_c, 9, 38, 0
5, 107498, Note_on_c, 9, 40, 46
5, 107530, Note_on_c, 9, 38, 61
5, 107974, Note_on_c, 9, 40, 0
5, 107978, Note_on_c, 9, 40, 50
5, 107986, Note_on_c, 9, 38, 0
5, 108010, Note_on_c, 9, 38, 121
5, 108022, Note_on_c, 9, 44, 120
5, 108426, Note_on_c, 9, 44, 0
5, 108454, Note_on_c, 9, 40, 0
5, 108458, Note_on_c, 9, 40, 41
5, 108490, Note_on_c, 9, 38, 71
5, 108546, Note_on_c, 9, 38, 0
5, 108678, Note_on_c, 9, 40, 0
5, 108690, Note_on_c, 9, 38, 0
5, 108786, Note_on_c, 9, 38, 105
5, 108890, Note_on_c, 9, 38, 0
5, 108938, Note_on_c, 9, 40, 37
5, 108982, Note_on_c, 9, 44, 127
5, 109370, Note_on_c, 9, 44, 0
5, 109414, Note_on_c, 9, 40, 0
5, 109418, Note_on_c, 9, 40, 46
5, 109450, Note_on_c, 9, 38, 73
5, 109638, Note_on_c, 9, 40, 0
5, 109646, Note_on_c, 9, 38, 0
5, 109746, Note_on_c, 9, 39, 117
5, 109850, Note_on_c, 9, 39, 0
5, 109898, Note_on_c, 9, 40, 50
5, 109930, Note_on_c, 9, 38, 50
5, 109942, Note_on_c, 9, 44, 96
5, 110374, Note_on_c, 9, 40, 0
5, 110378, Note_on_c, 9, 40, 41
5, 110410, Note_on_c, 9, 38, 85
5, 110446, Note_on_c, 9, 38, 0
5, 110526, Note_on_c, 9, 44, 0
5, 110566, Note_on_c, 9, 38, 0
5, 110598, Note_on_c, 9, 40, 0
5, 110706, Note_on_c, 9, 39, 115
5, 110810, Note_on_c, 9, 39, 0
5, 110858, Note_on_c, 9, 40, 37
5, 110890, Note_on_c, 9, 46, 85
5, 111078, Note_on_c, 9, 40, 0
5, 111186, Note_on_c, 9, 38, 92
5, 111254, Note_on_c, 9, 46, 0
5, 111266, Note_on_c, 9, 38, 0
5, 111338, Note_on_c, 9, 40, 46
5, 111370, Note_on_c, 9, 35, 110
5, 111370, Note_on_c, 9, 53, 80
5, 111382, Note_on_c, 9, 44, 76
5, 111726, Note_on_c, 9, 53, 0
5, 111814, Note_on_c, 9, 40, 0
5, 111818, Note_on_c, 9, 40, 50
5, 111850, Note_on_c, 9, 38, 107
5, 111862, Note_on_c, 9, 44, 127
5, 111886, Note_on_c, 9, 35, 0
5, 111946, Note_on_c, 9, 44, 0
5, 112246, Note_on_c, 9, 44, 0
5, 112294, Note_on_c, 9, 40, 0
5, 112298, Note_on_c, 9, 40, 41
5, 112330, Note_on_c, 9, 38, 67
5, 112410, Note_on_c, 9, 38, 0
5, 112770, Note_on_c, 9, 38, 0
5, 112774, Note_on_c, 9, 40, 0
5, 112778, Note_on_c, 9, 40, 37
5, 112810, Note_on_c, 9, 38, 113
5, 112822, Note_on_c, 9, 44, 127
5, 112998, Note_on_c, 9, 40, 0
5, 113038, Note_on_c, 9, 38, 0
5, 113106, Note_on_c, 9, 38, 86
5, 113206, Note_on_c, 9, 38, 0
5, 113242, Note_on_c, 9, 44, 0
5, 113258, Note_on_c, 9, 40, 46
5, 113290, Note_on_c, 9, 38, 83
5, 113734, Note_on_c, 9, 40, 0
5, 113738, Note_on_c, 9, 40, 50
5, 113770, Note_on_c, 9, 38, 113
5, 113782, Note_on_c, 9, 44, 102
5, 113790, Note_on_c, 9, 38, 0
5, 114210, Note_on_c, 9, 44, 0
5, 114214, Note_on_c, 9, 40, 0
5, 114218, Note_on_c, 9, 40, 41
5, 114250, Note_on_c, 9, 38, 63
5, 114374, Note_on_c, 9, 38, 0
5, 114550, Note_on_c, 9, 39, 110
5, 114658, Note_on_c, 9, 39, 0
5, 114658, Note_on_c, 9, 38, 0
5, 114694, Note_on_c, 9, 40, 0
5, 114698, Note_on_c, 9, 40, 37
5, 114730, Note_on_c, 9, 38, 113
5, 114742, Note_on_c, 9, 44, 126
5, 114918, Note_on_c, 9, 40, 0
5, 114950, Note_on_c, 9, 38, 0
5, 115026, Note_on_c, 9, 38, 77
5, 115114, Note_on_c, 9, 38, 0
5, 115154, Note_on_c, 9, 44, 0
5, 115178, Note_on_c, 9, 40, 46
5, 115210, Note_on_c, 9, 38, 69
5, 115574, Note_on_c, 9, 38, 0
5, 115654, Note_on_c, 9, 40, 0
5, 115658, Note_on_c, 9, 40, 50
5, 115690, Note_on_c, 9, 38, 111
5, 115702, Note_on_c, 9, 44, 113
5, 116106, Note_on_c, 9, 38, 0
5, 116122, Note_on_c, 9, 44, 0
5, 116134, Note_on_c, 9, 40, 0
5, 116138, Note_on_c, 9, 40, 41
5, 116170, Note_on_c, 9, 38, 71
5, 116578, Note_on_c, 9, 38, 0
5, 116614, Note_on_c, 9, 40, 0
5, 116618, Note_on_c, 9, 40, 37
5, 116650, Note_on_c, 9, 38, 95
5, 116662, Note_on_c, 9, 44, 113
5, 116838, Note_on_c, 9, 40, 0
5, 116886, Note_on_c, 9, 38, 0
5, 116946, Note_on_c, 9, 38, 107
5, 117034, Note_on_c, 9, 38, 0
5, 117082, Note_on_c, 9, 44, 0
5, 117098, Note_on_c, 9, 40, 46
5, 117130, Note_on_c, 9, 38, 93
5, 117542, Note_on_c, 9, 38, 0
5, 117574, Note_on_c, 9, 40, 0
5, 117578, Note_on_c, 9, 40, 50
5, 117610, Note_on_c, 9, 38, 99
5, 117622, Note_on_c, 9, 44, 118
5, 117786, Note_on_c, 9, 38, 0
5, 117798, Note_on_c, 9, 40, 0
5, 117906, Note_on_c, 9, 38, 89
5, 117982, Note_on_c, 9, 38, 0
5, 118030, Note_on_c, 9, 44, 0
5, 118058, Note_on_c, 9, 40, 41
5, 118090, Note_on_c, 9, 38, 73
5, 118534, Note_on_c, 9, 40, 0
5, 118538, Note_on_c, 9, 40, 37
5, 118570, Note_on_c, 9, 38, 97
5, 118574, Note_on_c, 9, 38, 0
5, 118582, Note_on_c, 9, 44, 119
5, 118734, Note_on_c, 9, 44, 0
5, 118758, Note_on_c, 9, 40, 0
5, 118774, Note_on_c, 9, 38, 0
5, 118866, Note_on_c, 9, 39, 120
5, 118962, Note_on_c, 9, 39, 0
5, 119018, Note_on_c, 9, 40, 46
5, 119050, Note_on_c, 9, 38, 45
5, 119414, Note_on_c, 9, 38, 0
5, 119494, Note_on_c, 9, 40, 0
5, 119498, Note_on_c, 9, 40, 50
5, 119530, Note_on_c, 9, 38, 107
5, 119542, Note_on_c, 9, 44, 123
5, 119910, Note_on_c, 9, 44, 0
5, 119954, Note_on_c, 9, 38, 0
5, 119974, Note_on_c, 9, 40, 0
5, 119978, Note_on_c, 9, 40, 41
5, 120010, Note_on_c, 9, 38, 64
5, 120454, Note_on_c, 9, 40, 0
5, 120458, Note_on_c, 9, 40, 37
5, 120490, Note_on_c, 9, 38, 111
5, 120502, Note_on_c, 9, 38, 0
5, 120502, Note_on_c, 9, 44, 118
5, 120678, Note_on_c, 9, 40, 0
5, 120710, Note_on_c, 9, 38, 0
5, 120786, Note_on_c, 9, 38, 68
5, 120886, Note_on_c, 9, 38, 0
5, 120890, Note_on_c, 9, 44, 0
5, 120938, Note_on_c, 9, 40, 46
5, 120970, Note_on_c, 9, 38, 71
5, 121406, Note_on_c, 9, 38, 0
5, 121414, Note_on_c, 9, 40, 0
5, 121418, Note_on_c, 9, 40, 50
5, 121450, Note_on_c, 9, 38, 117
5, 121462, Note_on_c, 9, 44, 115
5, 121874, Note_on_c, 9, 44, 0
5, 121894, Note_on_c, 9, 40, 0
5, 121898, Note_on_c, 9, 40, 41
5, 121930, Note_on_c, 9, 38, 63
5, 121946, Note_on_c, 9, 38, 0
5, 122374, Note_on_c, 9, 40, 0
5, 122378, Note_on_c, 9, 40, 37
5, 122410, Note_on_c, 9, 38, 107
5, 122414, Note_on_c, 9, 38, 0
5, 122422, Note_on_c, 9, 44, 127
5, 122598, Note_on_c, 9, 40, 0
5, 122630, Note_on_c, 9, 38, 0
5, 122706, Note_on_c, 9, 38, 87
5, 122794, Note_on_c, 9, 38, 0
5, 122826, Note_on_c, 9, 44, 0
5, 122858, Note_on_c, 9, 40, 46
5, 122890, Note_on_c, 9, 38, 75
5, 123190, Note_on_c, 9, 39, 110
5, 123270, Note_on_c, 9, 38, 0
5, 123298, Note_on_c, 9, 39, 0
5, 123334, Note_on_c, 9, 40, 0
5, 123338, Note_on_c, 9, 40, 50
5, 123370, Note_on_c, 9, 38, 111
5, 123382, Note_on_c, 9, 44, 123
5, 123778, Note_on_c, 9, 44, 0
5, 123782, Note_on_c, 9, 38, 0
5, 123814, Note_on_c, 9, 40, 0
5, 123818, Note_on_c, 9, 40, 41
5, 123850, Note_on_c, 9, 35, 110
5, 124214, Note_on_c, 9, 35, 0
5, 124294, Note_on_c, 9, 40, 0
5, 124298, Note_on_c, 9, 40, 37
5, 124330, Note_on_c, 9, 38, 119
5, 124342, Note_on_c, 9, 44, 115
5, 124518, Note_on_c, 9, 40, 0
5, 124554, Note_on_c, 9, 38, 0
5, 124626, Note_on_c, 9, 38, 68
5, 124630, Note_on_c, 9, 35, 90
5, 124678, Note_on_c, 9, 38, 0
5, 124730, Note_on_c, 9, 44, 0
5, 124738, Note_on_c, 9, 35, 0
5, 124778, Note_on_c, 9, 40, 46
5, 125254, Note_on_c, 9, 40, 0
5, 125258, Note_on_c, 9, 40, 50
5, 125302, Note_on_c, 9, 44, 127
5, 125590, Note_on_c, 9, 39, 110
5, 125698, Note_on_c, 9, 39, 0
5, 125702, Note_on_c, 9, 44, 0
5, 125734, Note_on_c, 9, 40, 0
5, 125738, Note_on_c, 9, 40, 41
5, 126070, Note_on_c, 9, 39, 110
5, 126178, Note_on_c, 9, 39, 0
5, 126214, Note_on_c, 9, 40, 0
5, 126218, Note_on_c, 9, 40, 37
5, 126262, Note_on_c, 9, 44, 123
5, 126390, Note_on_c, 9, 44, 0
5, 126694, Note_on_c, 9, 40, 0
5, 126731, Note_on_c, 9, 40, 54
5, 126741, Note_on_c, 9, 38, 54
5, 126741, Note_on_c, 9, 42, 10
5, 126839, Note_on_c, 9, 40, 0
5, 126849, Note_on_c, 9, 42, 0
5, 126849, Note_on_c, 9, 38, 0
5, 127189, Note_on_c, 9, 40, 50
5, 127221, Note_on_c, 9, 38, 103
5, 127233, Note_on_c, 9, 44, 126
5, 127409, Note_on_c, 9, 44, 0
5, 127481, Note_on_c, 9, 38, 0
5, 127517, Note_on_c, 9, 38, 49
5, 127617, Note_on_c, 9, 38, 0
5, 127665, Note_on_c, 9, 40, 0
5, 127699, Note_on_c, 9, 40, 41
5, 127701, Note_on_c, 9, 38, 67
5, 127941, Note_on_c, 9, 38, 0
5, 128149, Note_on_c, 9, 40, 37
5, 128175, Note_on_c, 9, 40, 0
5, 128181, Note_on_c, 9, 38, 107
5, 128193, Note_on_c, 9, 44, 105
5, 128381, Note_on_c, 9, 44, 0
5, 128457, Note_on_c, 9, 38, 0
5, 128477, Note_on_c, 9, 38, 49
5, 128529, Note_on_c, 9, 38, 0
5, 128625, Note_on_c, 9, 40, 0
5, 128629, Note_on_c, 9, 40, 46
5, 128661, Note_on_c, 9, 38, 72
5, 128889, Note_on_c, 9, 38, 0
5, 129105, Note_on_c, 9, 40, 0
5, 129109, Note_on_c, 9, 40, 50
5, 129141, Note_on_c, 9, 38, 105
5, 129153, Note_on_c, 9, 44, 107
5, 129325, Note_on_c, 9, 44, 0
5, 129405, Note_on_c, 9, 38, 0
5, 129437, Note_on_c, 9, 38, 45
5, 129501, Note_on_c, 9, 38, 0
5, 129585, Note_on_c, 9, 40, 0
5, 129589, Note_on_c, 9, 40, 41
5, 129621, Note_on_c, 9, 38, 72
5, 129841, Note_on_c, 9, 38, 0
5, 129921, Note_on_c, 9, 39, 110
5, 130029, Note_on_c, 9, 39, 0
5, 130065, Note_on_c, 9, 40, 0
5, 130069, Note_on_c, 9, 40, 37
5, 130101, Note_on_c, 9, 38, 109
5, 130113, Note_on_c, 9, 44, 114
5, 130317, Note_on_c, 9, 38, 0
5, 130321, Note_on_c, 9, 44, 0
5, 130397, Note_on_c, 9, 38, 63
5, 130493, Note_on_c, 9, 38, 0
5, 130545, Note_on_c, 9, 40, 0
5, 130549, Note_on_c, 9, 40, 46
5, 130581, Note_on_c, 9, 38, 71
5, 130737, Note_on_c, 9, 38, 0
5, 131025, Note_on_c, 9, 40, 0
5, 131029, Note_on_c, 9, 40, 50
5, 131061, Note_on_c, 9, 38, 113
5, 131073, Note_on_c, 9, 44, 113
5, 131265, Note_on_c, 9, 44, 0
5, 131469, Note_on_c, 9, 38, 0
5, 131505, Note_on_c, 9, 40, 0
5, 131509, Note_on_c, 9, 40, 41
5, 131541, Note_on_c, 9, 38, 57
5, 131685, Note_on_c, 9, 38, 0
5, 131985, Note_on_c, 9, 40, 0
5, 131989, Note_on_c, 9, 40, 37
5, 132021, Note_on_c, 9, 38, 109
5, 132033, Note_on_c, 9, 44, 110
5, 132209, Note_on_c, 9, 44, 0
5, 132309, Note_on_c, 9, 38, 0
5, 132317, Note_on_c, 9, 38, 56
5, 132377, Note_on_c, 9, 38, 0
5, 132465, Note_on_c, 9, 40, 0
5, 132469, Note_on_c, 9, 40, 46
5, 132501, Note_on_c, 9, 38, 55
5, 132941, Note_on_c, 9, 38, 0
5, 132945, Note_on_c, 9, 40, 0
5, 132949, Note_on_c, 9, 40, 50
5, 132981, Note_on_c, 9, 38, 97
5, 132993, Note_on_c, 9, 44, 115
5, 133169, Note_on_c, 9, 40, 0
5, 133205, Note_on_c, 9, 38, 0
5, 133277, Note_on_c, 9, 39, 113
5, 133397, Note_on_c, 9, 39, 0
5, 133421, Note_on_c, 9, 44, 0
5, 133429, Note_on_c, 9, 40, 41
5, 133461, Note_on_c, 9, 38, 81
5, 133905, Note_on_c, 9, 40, 0
5, 133909, Note_on_c, 9, 40, 37
5, 133941, Note_on_c, 9, 38, 103
5, 133953, Note_on_c, 9, 44, 115
5, 134021, Note_on_c, 9, 38, 0
5, 134129, Note_on_c, 9, 40, 0
5, 134177, Note_on_c, 9, 38, 0
5, 134237, Note_on_c, 9, 38, 55
5, 134357, Note_on_c, 9, 44, 0
5, 134389, Note_on_c, 9, 40, 46
5, 134421, Note_on_c, 9, 38, 0
5, 134421, Note_on_c, 9, 38, 63
5, 134865, Note_on_c, 9, 40, 0
5, 134869, Note_on_c, 9, 40, 50
5, 134901, Note_on_c, 9, 38, 117
5, 134913, Note_on_c, 9, 44, 114
5, 134921, Note_on_c, 9, 38, 0
5, 135089, Note_on_c, 9, 40, 0
5, 135157, Note_on_c, 9, 38, 0
5, 135197, Note_on_c, 9, 38, 50
5, 135285, Note_on_c, 9, 38, 0
5, 135333, Note_on_c, 9, 44, 0
5, 135349, Note_on_c, 9, 40, 41
5, 135381, Note_on_c, 9, 38, 62
5, 135825, Note_on_c, 9, 40, 0
5, 135829, Note_on_c, 9, 40, 37
5, 135861, Note_on_c, 9, 38, 105
5, 135873, Note_on_c, 9, 44, 110
5, 135925, Note_on_c, 9, 38, 0
5, 136049, Note_on_c, 9, 40, 0
5, 136133, Note_on_c, 9, 38, 0
5, 136157, Note_on_c, 9, 38, 36
5, 136281, Note_on_c, 9, 44, 0
5, 136309, Note_on_c, 9, 40, 46
5, 136341, Note_on_c, 9, 38, 0
5, 136341, Note_on_c, 9, 38, 69
5, 136785, Note_on_c, 9, 40, 0
5, 136789, Note_on_c, 9, 40, 50
5, 136821, Note_on_c, 9, 38, 93
5, 136833, Note_on_c, 9, 38, 0
5, 136833, Note_on_c, 9, 44, 110
5, 137009, Note_on_c, 9, 40, 0
5, 137049, Note_on_c, 9, 38, 0
5, 137117, Note_on_c, 9, 38, 63
5, 137197, Note_on_c, 9, 38, 0
5, 137253, Note_on_c, 9, 44, 0
5, 137269, Note_on_c, 9, 40, 41
5, 137301, Note_on_c, 9, 38, 64
5, 137745, Note_on_c, 9, 40, 0
5, 137749, Note_on_c, 9, 40, 37
5, 137781, Note_on_c, 9, 38, 107
5, 137793, Note_on_c, 9, 44, 110
5, 137829, Note_on_c, 9, 38, 0
5, 137969, Note_on_c, 9, 40, 0
5, 138033, Note_on_c, 9, 38, 0
5, 138077, Note_on_c, 9, 38, 54
5, 138157, Note_on_c, 9, 38, 0
5, 138205, Note_on_c, 9, 44, 0
5, 138229, Note_on_c, 9, 40, 46
5, 138261, Note_on_c, 9, 38, 71
5, 138705, Note_on_c, 9, 40, 0
5, 138709, Note_on_c, 9, 40, 50
5, 138741, Note_on_c, 9, 38, 109
5, 138753, Note_on_c, 9, 44, 107
5, 138769, Note_on_c, 9, 38, 0
5, 138929, Note_on_c, 9, 40, 0
5, 138993, Note_on_c, 9, 38, 0
5, 139037, Note_on_c, 9, 38, 52
5, 139141, Note_on_c, 9, 38, 0
5, 139161, Note_on_c, 9, 44, 0
5, 139189, Note_on_c, 9, 40, 41
5, 139221, Note_on_c, 9, 38, 66
5, 139665, Note_on_c, 9, 40, 0
5, 139669, Note_on_c, 9, 40, 37
5, 139673, Note_on_c, 9, 38, 0
5, 139701, Note_on_c, 9, 38, 101
5, 139713, Note_on_c, 9, 44, 110
5, 139889, Note_on_c, 9, 40, 0
5, 139937, Note_on_c, 9, 38, 0
5, 139997, Note_on_c, 9, 39, 82
5, 140085, Note_on_c, 9, 39, 0
5, 140137, Note_on_c, 9, 44, 0
5, 140149, Note_on_c, 9, 40, 46
5, 140181, Note_on_c, 9, 38, 70
5, 140625, Note_on_c, 9, 40, 0
5, 140629, Note_on_c, 9, 40, 50
5, 140661, Note_on_c, 9, 38, 103
5, 140673, Note_on_c, 9, 44, 106
5, 140753, Note_on_c, 9, 38, 0
5, 141101, Note_on_c, 9, 44, 0
5, 141105, Note_on_c, 9, 40, 0
5, 141109, Note_on_c, 9, 40, 41
5, 141141, Note_on_c, 9, 38, 69
5, 141145, Note_on_c, 9, 38, 0
5, 141393, Note_on_c, 9, 38, 0
5, 141441, Note_on_c, 9, 39, 120
5, 141585, Note_on_c, 9, 40, 0
5, 141621, Note_on_c, 9, 38, 63
5, 141633, Note_on_c, 9, 44, 104
5, 141661, Note_on_c, 9, 39, 0
5, 141865, Note_on_c, 9, 38, 0
5, 141921, Note_on_c, 9, 35, 100
5, 142029, Note_on_c, 9, 35, 0
5, 142061, Note_on_c, 9, 44, 0
5, 142069, Note_on_c, 9, 40, 46
5, 142261, Note_on_c, 9, 39, 60
5, 142289, Note_on_c, 9, 40, 0
5, 142417, Note_on_c, 9, 35, 70
5, 142473, Note_on_c, 9, 39, 0
5, 142525, Note_on_c, 9, 35, 0
5, 142549, Note_on_c, 9, 40, 50
5, 142593, Note_on_c, 9, 44, 102
5, 143013, Note_on_c, 9, 44, 0
5, 143025, Note_on_c, 9, 40, 0
5, 143029, Note_on_c, 9, 40, 41
5, 143061, Note_on_c, 9, 38, 66
5, 143477, Note_on_c, 9, 38, 0
5, 143505, Note_on_c, 9, 40, 0
5, 143509, Note_on_c, 9, 40, 37
5, 143541, Note_on_c, 9, 38, 119
5, 143553, Note_on_c, 9, 44, 89
5, 143985, Note_on_c, 9, 40, 0
5, 143989, Note_on_c, 9, 40, 46
5, 143997, Note_on_c, 9, 44, 0
5, 144021, Note_on_c, 9, 38, 0
5, 144021, Note_on_c, 9, 38, 66
5, 144457, Note_on_c, 9, 38, 0
5, 144465, Note_on_c, 9, 40, 0
5, 144469, Note_on_c, 9, 40, 50
5, 144501, Note_on_c, 9, 38, 115
5, 144513, Note_on_c, 9, 44, 100
5, 144689, Note_on_c, 9, 40, 0
5, 144737, Note_on_c, 9, 38, 0
5, 144797, Note_on_c, 9, 38, 59
5, 144873, Note_on_c, 9, 38, 0
5, 144941, Note_on_c, 9, 44, 0
5, 144949, Note_on_c, 9, 40, 41
5, 144981, Note_on_c, 9, 38, 73
5, 145425, Note_on_c, 9, 40, 0
5, 145429, Note_on_c, 9, 40, 37
5, 145461, Note_on_c, 9, 38, 117
5, 145473, Note_on_c, 9, 44, 89
5, 145489, Note_on_c, 9, 38, 0
5, 145645, Note_on_c, 9, 44, 0
5, 145649, Note_on_c, 9, 40, 0
5, 145677, Note_on_c, 9, 38, 0
5, 145701, Note_on_c, 9, 46, 65
5, 145757, Note_on_c, 9, 38, 64
5, 145861, Note_on_c, 9, 38, 0
5, 145909, Note_on_c, 9, 40, 46
5, 145941, Note_on_c, 9, 46, 0
5, 145941, Note_on_c, 9, 38, 50
5, 146385, Note_on_c, 9, 40, 0
5, 146389, Note_on_c, 9, 40, 50
5, 146421, Note_on_c, 9, 38, 111
5, 146433, Note_on_c, 9, 44, 106
5, 146461, Note_on_c, 9, 38, 0
5, 146609, Note_on_c, 9, 40, 0
5, 146701, Note_on_c, 9, 38, 0
5, 146717, Note_on_c, 9, 38, 52
5, 146793, Note_on_c, 9, 38, 0
5, 146865, Note_on_c, 9, 44, 0
5, 146869, Note_on_c, 9, 40, 41
5, 146901, Note_on_c, 9, 38, 55
5, 147345, Note_on_c, 9, 40, 0
5, 147349, Note_on_c, 9, 40, 37
5, 147373, Note_on_c, 9, 38, 0
5, 147381, Note_on_c, 9, 38, 113
5, 147393, Note_on_c, 9, 44, 107
5, 147569, Note_on_c, 9, 40, 0
5, 147661, Note_on_c, 9, 38, 0
5, 147677, Note_on_c, 9, 38, 44
5, 147757, Note_on_c, 9, 38, 0
5, 147829, Note_on_c, 9, 40, 46
5, 147833, Note_on_c, 9, 44, 0
5, 147861, Note_on_c, 9, 38, 66
5, 148277, Note_on_c, 9, 38, 0
5, 148305, Note_on_c, 9, 40, 0
5, 148309, Note_on_c, 9, 40, 50
5, 148341, Note_on_c, 9, 38, 109
5, 148353, Note_on_c, 9, 44, 111
5, 148677, Note_on_c, 9, 35, 74
5, 148745, Note_on_c, 9, 38, 0
5, 148777, Note_on_c, 9, 44, 0
5, 148785, Note_on_c, 9, 40, 0
5, 148785, Note_on_c, 9, 35, 0
5, 148789, Note_on_c, 9, 40, 41
5, 148821, Note_on_c, 9, 38, 62
5, 148833, Note_on_c, 9, 44, 91
5, 148985, Note_on_c, 9, 44, 0
5, 149009, Note_on_c, 9, 40, 0
5, 149037, Note_on_c, 9, 38, 0
5, 149061, Note_on_c, 9, 46, 90
5, 149117, Note_on_c, 9, 39, 117
5, 149257, Note_on_c, 9, 39, 0
5, 149269, Note_on_c, 9, 40, 37
5, 149301, Note_on_c, 9, 38, 57
5, 149421, Note_on_c, 9, 46, 0
5, 149601, Note_on_c, 9, 39, 110
5, 149601, Note_on_c, 9, 35, 110
5, 149629, Note_on_c, 9, 38, 0
5, 149709, Note_on_c, 9, 35, 0
5, 149745, Note_on_c, 9, 40, 0
5, 149749, Note_on_c, 9, 40, 46
5, 149781, Note_on_c, 9, 39, 0
5, 149781, Note_on_c, 9, 38, 80
5, 150225, Note_on_c, 9, 40, 0
5, 150229, Note_on_c, 9, 40, 50
5, 150261, Note_on_c, 9, 38, 113
5, 150273, Note_on_c, 9, 44, 127
5, 150301, Note_on_c, 9, 38, 0
5, 150449, Note_on_c, 9, 40, 0
5, 150541, Note_on_c, 9, 38, 0
5, 150557, Note_on_c, 9, 38, 50
5, 150645, Note_on_c, 9, 38, 0
5, 150669, Note_on_c, 9, 44, 0
5, 150709, Note_on_c, 9, 40, 41
5, 150741, Note_on_c, 9, 38, 52
5, 151185, Note_on_c, 9, 40, 0
5, 151189, Note_on_c, 9, 40, 37
5, 151197, Note_on_c, 9, 38, 0
5, 151221, Note_on_c, 9, 38, 117
5, 151233, Note_on_c, 9, 44, 107
5, 151409, Note_on_c, 9, 40, 0
5, 151501, Note_on_c, 9, 38, 0
5, 151517, Note_on_c, 9, 38, 41
5, 151577, Note_on_c, 9, 38, 0
5, 151665, Note_on_c, 9, 44, 0
5, 151669, Note_on_c, 9, 40, 46
5, 151701, Note_on_c, 9, 38, 67
5, 152133, Note_on_c, 9, 38, 0
5, 152145, Note_on_c, 9, 40, 0
5, 152149, Note_on_c, 9, 40, 50
5, 152181, Note_on_c, 9, 38, 115
5, 152193, Note_on_c, 9, 44, 98
5, 152369, Note_on_c, 9, 40, 0
5, 152425, Note_on_c, 9, 38, 0
5, 152477, Note_on_c, 9, 38, 50
5, 152577, Note_on_c, 9, 38, 0
5, 152625, Note_on_c, 9, 44, 0
5, 152629, Note_on_c, 9, 40, 41
5, 152661, Note_on_c, 9, 38, 71
5, 153061, Note_on_c, 9, 38, 0
5, 153105, Note_on_c, 9, 40, 0
5, 153109, Note_on_c, 9, 40, 37
5, 153141, Note_on_c, 9, 38, 121
5, 153153, Note_on_c, 9, 44, 102
5, 153325, Note_on_c, 9, 38, 65
5, 153329, Note_on_c, 9, 40, 0
5, 153465, Note_on_c, 9, 38, 0
5, 153589, Note_on_c, 9, 40, 46
5, 153605, Note_on_c, 9, 44, 0
5, 153605, Note_on_c, 9, 38, 0
5, 153621, Note_on_c, 9, 38, 82
5, 154037, Note_on_c, 9, 38, 0
5, 154065, Note_on_c, 9, 40, 0
5, 154069, Note_on_c, 9, 40, 50
5, 154101, Note_on_c, 9, 38, 115
5, 154113, Note_on_c, 9, 44, 107
5, 154289, Note_on_c, 9, 40, 0
5, 154321, Note_on_c, 9, 38, 0
5, 154397, Note_on_c, 9, 38, 60
5, 154509, Note_on_c, 9, 38, 0
5, 154549, Note_on_c, 9, 40, 41
5, 154553, Note_on_c, 9, 44, 0
5, 154581, Note_on_c, 9, 38, 63
5, 155025, Note_on_c, 9, 40, 0
5, 155029, Note_on_c, 9, 40, 37
5, 155061, Note_on_c, 9, 38, 115
5, 155073, Note_on_c, 9, 44, 89
5, 155089, Note_on_c, 9, 38, 0
5, 155461, Note_on_c, 9, 38, 0
5, 155497, Note_on_c, 9, 44, 0
5, 155505, Note_on_c, 9, 40, 0
5, 155509, Note_on_c, 9, 40, 46
5, 155621, Note_on_c, 9, 38, 30
5, 155681, Note_on_c, 9, 38, 0
5, 155701, Note_on_c, 9, 38, 66
5, 155729, Note_on_c, 9, 40, 0
5, 155761, Note_on_c, 9, 38, 0
5, 155781, Note_on_c, 9, 38, 82
5, 155841, Note_on_c, 9, 38, 0
5, 155861, Note_on_c, 9, 39, 120
5, 155921, Note_on_c, 9, 39, 0
5, 155941, Note_on_c, 9, 38, 70
5, 156001, Note_on_c, 9, 38, 0
5, 156021, Note_on_c, 9, 38, 72
5, 156081, Note_on_c, 9, 38, 0
5, 156101, Note_on_c, 9, 38, 66
5, 156181, Note_on_c, 9, 38, 51
5, 156341, Note_on_c, 9, 35, 74
5, 156401, Note_on_c, 9, 35, 0
5, 156417, Note_on_c, 9, 38, 0
5, 156421, Note_on_c, 9, 38, 34
5, 156481, Note_on_c, 9, 38, 0
5, 156497, Note_on_c, 9, 38, 0
5, 156501, Note_on_c, 9, 38, 95
5, 156561, Note_on_c, 9, 38, 0
5, 156581, Note_on_c, 9, 38, 32
5, 156641, Note_on_c, 9, 38, 0
5, 156661, Note_on_c, 9, 39, 110
5, 156721, Note_on_c, 9, 39, 0
5, 156741, Note_on_c, 9, 38, 36
5, 156801, Note_on_c, 9, 38, 0
5, 156821, Note_on_c, 9, 38, 74
5, 156881, Note_on_c, 9, 38, 0
5, 156901, Note_on_c, 9, 38, 23
5, 156961, Note_on_c, 9, 38, 0
5, 156981, Note_on_c, 9, 38, 22
5, 157041, Note_on_c, 9, 38, 0
5, 157141, Note_on_c, 9, 38, 62
5, 157281, Note_on_c, 9, 39, 127
5, 157341, Note_on_c, 9, 39, 0
5, 157429, Note_on_c, 9, 40, 46
5, 157457, Note_on_c, 9, 38, 0
5, 157905, Note_on_c, 9, 40, 0
5, 157909, Note_on_c, 9, 40, 50
5, 157941, Note_on_c, 9, 38, 119
5, 157953, Note_on_c, 9, 44, 127
5, 158129, Note_on_c, 9, 40, 0
5, 158181, Note_on_c, 9, 38, 0
5, 158237, Note_on_c, 9, 38, 56
5, 158333, Note_on_c, 9, 38, 0
5, 158353, Note_on_c, 9, 44, 0
5, 158389, Note_on_c, 9, 40, 41
5, 158421, Note_on_c, 9, 38, 99
5, 158589, Note_on_c, 9, 38, 0
5, 158609, Note_on_c, 9, 40, 0
5, 158869, Note_on_c, 9, 40, 37
5, 158901, Note_on_c, 9, 46, 110
5, 158901, Note_on_c, 9, 38, 117
5, 159089, Note_on_c, 9, 40, 0
5, 159137, Note_on_c, 9, 38, 0
5, 159197, Note_on_c, 9, 38, 52
5, 159265, Note_on_c, 9, 46, 0
5, 159321, Note_on_c, 9, 38, 0
5, 159349, Note_on_c, 9, 40, 46
5, 159381, Note_on_c, 9, 38, 78
5, 159805, Note_on_c, 9, 38, 0
5, 159825, Note_on_c, 9, 40, 0
5, 159829, Note_on_c, 9, 40, 50
5, 159861, Note_on_c, 9, 38, 121
5, 159873, Note_on_c, 9, 44, 114
5, 160049, Note_on_c, 9, 40, 0
5, 160085, Note_on_c, 9, 38, 0
5, 160157, Note_on_c, 9, 38, 55
5, 160233, Note_on_c, 9, 38, 0
5, 160285, Note_on_c, 9, 44, 0
5, 160309, Note_on_c, 9, 40, 41
5, 160341, Note_on_c, 9, 38, 65
5, 160529, Note_on_c, 9, 40, 0
5, 160585, Note_on_c, 9, 38, 0
5, 160637, Note_on_c, 9, 39, 97
5, 160637, Note_on_c, 9, 38, 68
5, 160697, Note_on_c, 9, 38, 0
5, 160725, Note_on_c, 9, 39, 0
5, 160789, Note_on_c, 9, 40, 37
5, 160833, Note_on_c, 9, 44, 115
5, 161009, Note_on_c, 9, 40, 0
5, 161117, Note_on_c, 9, 38, 61
5, 161229, Note_on_c, 9, 38, 0
5, 161261, Note_on_c, 9, 44, 0
5, 161269, Note_on_c, 9, 40, 46
5, 161301, Note_on_c, 9, 38, 73
5, 161689, Note_on_c, 9, 38, 0
5, 161745, Note_on_c, 9, 40, 0
5, 161749, Note_on_c, 9, 40, 50
5, 161781, Note_on_c, 9, 38, 119
5, 161793, Note_on_c, 9, 44, 111
5, 161969, Note_on_c, 9, 40, 0
5, 161981, Note_on_c, 9, 38, 0
5, 162077, Note_on_c, 9, 38, 67
5, 162137, Note_on_c, 9, 44, 0
5, 162181, Note_on_c, 9, 38, 0
5, 162229, Note_on_c, 9, 40, 41
5, 162261, Note_on_c, 9, 38, 62
5, 162405, Note_on_c, 9, 38, 0
5, 162449, Note_on_c, 9, 40, 0
5, 162557, Note_on_c, 9, 38, 76
5, 162709, Note_on_c, 9, 40, 37
5, 162721, Note_on_c, 9, 38, 0
5, 162753, Note_on_c, 9, 44, 126
5, 163165, Note_on_c, 9, 44, 0
5, 163185, Note_on_c, 9, 40, 0
5, 163189, Note_on_c, 9, 40, 46
5, 163221, Note_on_c, 9, 38, 80
5, 163637, Note_on_c, 9, 38, 0
5, 163665, Note_on_c, 9, 40, 0
5, 163669, Note_on_c, 9, 40, 50
5, 163701, Note_on_c, 9, 38, 121
5, 163713, Note_on_c, 9, 44, 114
5, 164133, Note_on_c, 9, 44, 0
5, 164145, Note_on_c, 9, 40, 0
5, 164149, Note_on_c, 9, 40, 41
5, 164181, Note_on_c, 9, 38, 43
5, 164217, Note_on_c, 9, 38, 0
5, 164625, Note_on_c, 9, 40, 0
5, 164629, Note_on_c, 9, 40, 37
5, 164661, Note_on_c, 9, 38, 121
5, 164673, Note_on_c, 9, 44, 111
5, 164777, Note_on_c, 9, 38, 0
5, 165069, Note_on_c, 9, 38, 0
5, 165081, Note_on_c, 9, 44, 0
5, 165105, Note_on_c, 9, 40, 0
5, 165109, Note_on_c, 9, 40, 46
5, 165141, Note_on_c, 9, 38, 41
5, 165141, Note_on_c, 9, 35, 110
5, 165585, Note_on_c, 9, 40, 0
5, 165589, Note_on_c, 9, 40, 50
5, 165621, Note_on_c, 9, 38, 111
5, 165633, Note_on_c, 9, 44, 119
5, 165657, Note_on_c, 9, 35, 0
5, 165701, Note_on_c, 9, 38, 0
5, 165809, Note_on_c, 9, 38, 0
5, 165809, Note_on_c, 9, 40, 0
5, 165917, Note_on_c, 9, 38, 95
5, 165997, Note_on_c, 9, 38, 0
5, 166057, Note_on_c, 9, 44, 0
5, 166069, Note_on_c, 9, 40, 41
5, 166101, Note_on_c, 9, 38, 81
5, 166497, Note_on_c, 9, 38, 0
5, 166545, Note_on_c, 9, 40, 0
5, 166549, Note_on_c, 9, 40, 37
5, 166581, Note_on_c, 9, 38, 105
5, 166593, Note_on_c, 9, 44, 123
5, 166745, Note_on_c, 9, 38, 0
5, 166769, Note_on_c, 9, 40, 0
5, 166877, Note_on_c, 9, 38, 69
5, 166953, Note_on_c, 9, 38, 0
5, 167005, Note_on_c, 9, 44, 0
5, 167029, Note_on_c, 9, 40, 46
5, 167061, Note_on_c, 9, 38, 69
5, 167433, Note_on_c, 9, 38, 0
5, 167505, Note_on_c, 9, 40, 0
5, 167509, Note_on_c, 9, 40, 50
5, 167541, Note_on_c, 9, 38, 101
5, 167553, Note_on_c, 9, 44, 111
5, 167729, Note_on_c, 9, 38, 0
5, 167729, Note_on_c, 9, 40, 0
5, 167837, Note_on_c, 9, 38, 105
5, 167941, Note_on_c, 9, 38, 0
5, 167949, Note_on_c, 9, 44, 0
5, 167989, Note_on_c, 9, 40, 41
5, 168021, Note_on_c, 9, 38, 87
5, 168409, Note_on_c, 9, 38, 0
5, 168465, Note_on_c, 9, 40, 0
5, 168469, Note_on_c, 9, 40, 37
5, 168501, Note_on_c, 9, 38, 97
5, 168513, Note_on_c, 9, 44, 114
5, 168681, Note_on_c, 9, 38, 0
5, 168689, Note_on_c, 9, 40, 0
5, 168797, Note_on_c, 9, 38, 105
5, 168901, Note_on_c, 9, 44, 0
5, 168909, Note_on_c, 9, 38, 0
5, 168949, Note_on_c, 9, 40, 46
5, 168981, Note_on_c, 9, 38, 61
5, 169425, Note_on_c, 9, 40, 0
5, 169429, Note_on_c, 9, 40, 50
5, 169437, Note_on_c, 9, 38, 0
5, 169461, Note_on_c, 9, 38, 121
5, 169473, Note_on_c, 9, 44, 120
5, 169877, Note_on_c, 9, 44, 0
5, 169905, Note_on_c, 9, 40, 0
5, 169909, Note_on_c, 9, 40, 41
5, 169941, Note_on_c, 9, 38, 71
5, 169997, Note_on_c, 9, 38, 0
5, 170129, Note_on_c, 9, 40, 0
5, 170141, Note_on_c, 9, 38, 0
5, 170237, Note_on_c, 9, 38, 105
5, 170341, Note_on_c, 9, 38, 0
5, 170389, Note_on_c, 9, 40, 37
5, 170433, Note_on_c, 9, 44, 127
5, 170821, Note_on_c, 9, 44, 0
5, 170865, Note_on_c, 9, 40, 0
5, 170869, Note_on_c, 9, 40, 46
5, 170901, Note_on_c, 9, 38, 73
5, 171089, Note_on_c, 9, 40, 0
5, 171097, Note_on_c, 9, 38, 0
5, 171197, Note_on_c, 9, 39, 117
5, 171301, Note_on_c, 9, 39, 0
5, 171349, Note_on_c, 9, 40, 50
5, 171381, Note_on_c, 9, 38, 50
5, 171393, Note_on_c, 9, 44, 96
5, 171825, Note_on_c, 9, 40, 0
5, 171829, Note_on_c, 9, 40, 41
5, 171861, Note_on_c, 9, 38, 85
5, 171897, Note_on_c, 9, 38, 0
5, 171977, Note_on_c, 9, 44, 0
5, 172017, Note_on_c, 9, 38, 0
5, 172049, Note_on_c, 9, 40, 0
5, 172157, Note_on_c, 9, 39, 115
5, 172261, Note_on_c, 9, 39, 0
5, 172309, Note_on_c, 9, 40, 37
5, 172341, Note_on_c, 9, 46, 85
5, 172529, Note_on_c, 9, 40, 0
5, 172637, Note_on_c, 9, 38, 92
5, 172705, Note_on_c, 9, 46, 0
5, 172717, Note_on_c, 9, 38, 0
5, 172789, Note_on_c, 9, 40, 46
5, 172821, Note_on_c, 9, 53, 80
5, 172821, Note_on_c, 9, 35, 110
5, 172833, Note_on_c, 9, 44, 76
5, 173177, Note_on_c, 9, 53, 0
5, 173265, Note_on_c, 9, 40, 0
5, 173269, Note_on_c, 9, 40, 50
5, 173301, Note_on_c, 9, 38, 107
5, 173313, Note_on_c, 9, 44, 127
5, 173337, Note_on_c, 9, 35, 0
5, 173397, Note_on_c, 9, 44, 0
5, 173697, Note_on_c, 9, 44, 0
5, 173745, Note_on_c, 9, 40, 0
5, 173749, Note_on_c, 9, 40, 41
5, 173781, Note_on_c, 9, 38, 67
5, 173861, Note_on_c, 9, 38, 0
5, 174221, Note_on_c, 9, 38, 0
5, 174225, Note_on_c, 9, 40, 0
5, 174229, Note_on_c, 9, 40, 37
5, 174261, Note_on_c, 9, 38, 113
5, 174273, Note_on_c, 9, 44, 127
5, 174449, Note_on_c, 9, 40, 0
5, 174489, Note_on_c, 9, 38, 0
5, 174557, Note_on_c, 9, 38, 86
5, 174657, Note_on_c, 9, 38, 0
5, 174693, Note_on_c, 9, 44, 0
5, 174709, Note_on_c, 9, 40, 46
5, 174741, Note_on_c, 9, 38, 83
5, 175185, Note_on_c, 9, 40, 0
5, 175189, Note_on_c, 9, 40, 50
5, 175221, Note_on_c, 9, 38, 113
5, 175233, Note_on_c, 9, 44, 102
5, 175241, Note_on_c, 9, 38, 0
5, 175661, Note_on_c, 9, 44, 0
5, 175665, Note_on_c, 9, 40, 0
5, 175669, Note_on_c, 9, 40, 41
5, 175701, Note_on_c, 9, 38, 63
5, 175825, Note_on_c, 9, 38, 0
5, 176001, Note_on_c, 9, 39, 110
5, 176109, Note_on_c, 9, 39, 0
5, 176109, Note_on_c, 9, 38, 0
5, 176145, Note_on_c, 9, 40, 0
5, 176149, Note_on_c, 9, 40, 37
5, 176181, Note_on_c, 9, 38, 113
5, 176193, Note_on_c, 9, 44, 126
5, 176369, Note_on_c, 9, 40, 0
5, 176401, Note_on_c, 9, 38, 0
5, 176477, Note_on_c, 9, 38, 77
5, 176565, Note_on_c, 9, 38, 0
5, 176605, Note_on_c, 9, 44, 0
5, 176629, Note_on_c, 9, 40, 46
5, 176661, Note_on_c, 9, 38, 69
5, 177025, Note_on_c, 9, 38, 0
5, 177105, Note_on_c, 9, 40, 0
5, 177109, Note_on_c, 9, 40, 50
5, 177141, Note_on_c, 9, 38, 111
5, 177153, Note_on_c, 9, 44, 113
5, 177557, Note_on_c, 9, 38, 0
5, 177573, Note_on_c, 9, 44, 0
5, 177585, Note_on_c, 9, 40, 0
5, 177589, Note_on_c, 9, 40, 41
5, 177621, Note_on_c, 9, 38, 71
5, 178029, Note_on_c, 9, 38, 0
5, 178065, Note_on_c, 9, 40, 0
5, 178069, Note_on_c, 9, 40, 37
5, 178101, Note_on_c, 9, 38, 95
5, 178113, Note_on_c, 9, 44, 113
5, 178289, Note_on_c, 9, 40, 0
5, 178337, Note_on_c, 9, 38, 0
5, 178397, Note_on_c, 9, 38, 107
5, 178485, Note_on_c, 9, 38, 0
5, 178533, Note_on_c, 9, 44, 0
5, 178549, Note_on_c, 9, 40, 46
5, 178581, Note_on_c, 9, 38, 93
5, 178993, Note_on_c, 9, 38, 0
5, 179025, Note_on_c, 9, 40, 0
5, 179029, Note_on_c, 9, 40, 50
5, 179061, Note_on_c, 9, 38, 99
5, 179073, Note_on_c, 9, 44, 118
5, 179237, Note_on_c, 9, 38, 0
5, 179249, Note_on_c, 9, 40, 0
5, 179357, Note_on_c, 9, 38, 89
5, 179433, Note_on_c, 9, 38, 0
5, 179481, Note_on_c, 9, 44, 0
5, 179509, Note_on_c, 9, 40, 41
5, 179541, Note_on_c, 9, 38, 73
5, 179985, Note_on_c, 9, 40, 0
5, 179989, Note_on_c, 9, 40, 37
5, 180021, Note_on_c, 9, 38, 97
5, 180025, Note_on_c, 9, 38, 0
5, 180033, Note_on_c, 9, 44, 119
5, 180185, Note_on_c, 9, 44, 0
5, 180209, Note_on_c, 9, 40, 0
5, 180225, Note_on_c, 9, 38, 0
5, 180317, Note_on_c, 9, 39, 120
5, 180413, Note_on_c, 9, 39, 0
5, 180469, Note_on_c, 9, 40, 46
5, 180501, Note_on_c, 9, 38, 45
5, 180865, Note_on_c, 9, 38, 0
5, 180945, Note_on_c, 9, 40, 0
5, 180949, Note_on_c, 9, 40, 50
5, 180981, Note_on_c, 9, 38, 107
5, 180993, Note_on_c, 9, 44, 123
5, 181361, Note_on_c, 9, 44, 0
5, 181405, Note_on_c, 9, 38, 0
5, 181425, Note_on_c, 9, 40, 0
5, 181429, Note_on_c, 9, 40, 41
5, 181461, Note_on_c, 9, 38, 64
5, 181905, Note_on_c, 9, 40, 0
5, 181909, Note_on_c, 9, 40, 37
5, 181941, Note_on_c, 9, 38, 111
5, 181953, Note_on_c, 9, 38, 0
5, 181953, Note_on_c, 9, 44, 118
5, 182129, Note_on_c, 9, 40, 0
5, 182161, Note_on_c, 9, 38, 0
5, 182237, Note_on_c, 9, 38, 68
5, 182337, Note_on_c, 9, 38, 0
5, 182341, Note_on_c, 9, 44, 0
5, 182389, Note_on_c, 9, 40, 46
5, 182421, Note_on_c, 9, 38, 71
5, 182857, Note_on_c, 9, 38, 0
5, 182865, Note_on_c, 9, 40, 0
5, 182869, Note_on_c, 9, 40, 50
5, 182901, Note_on_c, 9, 38, 117
5, 182913, Note_on_c, 9, 44, 115
5, 183325, Note_on_c, 9, 44, 0
5, 183345, Note_on_c, 9, 40, 0
5, 183349, Note_on_c, 9, 40, 41
5, 183381, Note_on_c, 9, 38, 63
5, 183397, Note_on_c, 9, 38, 0
5, 183825, Note_on_c, 9, 40, 0
5, 183829, Note_on_c, 9, 40, 37
5, 183861, Note_on_c, 9, 38, 107
5, 183865, Note_on_c, 9, 38, 0
5, 183873, Note_on_c, 9, 44, 127
5, 184049, Note_on_c, 9, 40, 0
5, 184081, Note_on_c, 9, 38, 0
5, 184157, Note_on_c, 9, 38, 87
5, 184245, Note_on_c, 9, 38, 0
5, 184277, Note_on_c, 9, 44, 0
5, 184309, Note_on_c, 9, 40, 46
5, 184341, Note_on_c, 9, 38, 75
5, 184641, Note_on_c, 9, 39, 110
5, 184721, Note_on_c, 9, 38, 0
5, 184749, Note_on_c, 9, 39, 0
5, 184785, Note_on_c, 9, 40, 0
5, 184789, Note_on_c, 9, 40, 50
5, 184821, Note_on_c, 9, 38, 111
5, 184833, Note_on_c, 9, 44, 123
5, 185229, Note_on_c, 9, 44, 0
5, 185233, Note_on_c, 9, 38, 0
5, 185265, Note_on_c, 9, 40, 0
5, 185269, Note_on_c, 9, 40, 41
5, 185301, Note_on_c, 9, 35, 110
5, 185665, Note_on_c, 9, 35, 0
5, 185745, Note_on_c, 9, 40, 0
5, 185749, Note_on_c, 9, 40, 37
5, 185781, Note_on_c, 9, 38, 119
5, 185793, Note_on_c, 9, 44, 115
5, 185969, Note_on_c, 9, 40, 0
5, 186005, Note_on_c, 9, 38, 0
5, 186077, Note_on_c, 9, 38, 68
5, 186081, Note_on_c, 9, 35, 90
5, 186129, Note_on_c, 9, 38, 0
5, 186181, Note_on_c, 9, 44, 0
5, 186189, Note_on_c, 9, 35, 0
5, 186229, Note_on_c, 9, 40, 46
5, 186705, Note_on_c, 9, 40, 0
5, 186709, Note_on_c, 9, 40, 50
5, 186753, Note_on_c, 9, 44, 127
5, 187041, Note_on_c, 9, 39, 110
5, 187149, Note_on_c, 9, 39, 0
5, 187153, Note_on_c, 9, 44, 0
5, 187185, Note_on_c, 9, 40, 0
5, 187189, Note_on_c, 9, 40, 41
5, 187521, Note_on_c, 9, 39, 110
5, 187629, Note_on_c, 9, 39, 0
5, 187665, Note_on_c, 9, 40, 0
5, 187669, Note_on_c, 9, 40, 37
5, 187713, Note_on_c, 9, 44, 123
5, 187841, Note_on_c, 9, 44, 0
5, 188145, Note_on_c, 9, 40, 0
5, 188182, Note_on_c, 9, 40, 54
5, 188192, Note_on_c, 9, 42, 10
5, 188192, Note_on_c, 9, 38, 54
5, 188290, Note_on_c, 9, 40, 0
5, 188300, Note_on_c, 9, 38, 0
5, 188300, Note_on_c, 9, 42, 0
5, 188640, Note_on_c, 9, 40, 50
5, 188672, Note_on_c, 9, 38, 103
5, 188684, Note_on_c, 9, 44, 126
5, 188860, Note_on_c, 9, 44, 0
5, 188932, Note_on_c, 9, 38, 0
5, 188968, Note_on_c, 9, 38, 49
5, 189068, Note_on_c, 9, 38, 0
5, 189116, Note_on_c, 9, 40, 0
5, 189150, Note_on_c, 9, 40, 41
5, 189152, Note_on_c, 9, 38, 67
5, 189392, Note_on_c, 9, 38, 0
5, 189600, Note_on_c, 9, 40, 37
5, 189626, Note_on_c, 9, 40, 0
5, 189632, Note_on_c, 9, 38, 107
5, 189644, Note_on_c, 9, 44, 105
5, 189832, Note_on_c, 9, 44, 0
5, 189908, Note_on_c, 9, 38, 0
5, 189928, Note_on_c, 9, 38, 49
5, 189980, Note_on_c, 9, 38, 0
5, 190076, Note_on_c, 9, 40, 0
5, 190080, Note_on_c, 9, 40, 46
5, 190112, Note_on_c, 9, 38, 72
5, 190340, Note_on_c, 9, 38, 0
5, 190556, Note_on_c, 9, 40, 0
5, 190560, Note_on_c, 9, 40, 50
5, 190592, Note_on_c, 9, 38, 105
5, 190604, Note_on_c, 9, 44, 107
5, 190776, Note_on_c, 9, 44, 0
5, 190856, Note_on_c, 9, 38, 0
5, 190888, Note_on_c, 9, 38, 45
5, 190952, Note_on_c, 9, 38, 0
5, 191036, Note_on_c, 9, 40, 0
5, 191040, Note_on_c, 9, 40, 41
5, 191072, Note_on_c, 9, 38, 72
5, 191292, Note_on_c, 9, 38, 0
5, 191372, Note_on_c, 9, 39, 110
5, 191480, Note_on_c, 9, 39, 0
5, 191516, Note_on_c, 9, 40, 0
5, 191520, Note_on_c, 9, 40, 37
5, 191552, Note_on_c, 9, 38, 109
5, 191564, Note_on_c, 9, 44, 114
5, 191768, Note_on_c, 9, 38, 0
5, 191772, Note_on_c, 9, 44, 0
5, 191848, Note_on_c, 9, 38, 63
5, 191944, Note_on_c, 9, 38, 0
5, 191996, Note_on_c, 9, 40, 0
5, 192000, Note_on_c, 9, 40, 46
5, 192032, Note_on_c, 9, 38, 71
5, 192188, Note_on_c, 9, 38, 0
5, 192476, Note_on_c, 9, 40, 0
5, 192480, Note_on_c, 9, 40, 50
5, 192512, Note_on_c, 9, 38, 113
5, 192524, Note_on_c, 9, 44, 113
5, 192716, Note_on_c, 9, 44, 0
5, 192920, Note_on_c, 9, 38, 0
5, 192956, Note_on_c, 9, 40, 0
5, 192960, Note_on_c, 9, 40, 41
5, 192992, Note_on_c, 9, 38, 57
5, 193136, Note_on_c, 9, 38, 0
5, 193436, Note_on_c, 9, 40, 0
5, 193440, Note_on_c, 9, 40, 37
5, 193472, Note_on_c, 9, 38, 109
5, 193484, Note_on_c, 9, 44, 110
5, 193660, Note_on_c, 9, 44, 0
5, 193760, Note_on_c, 9, 38, 0
5, 193768, Note_on_c, 9, 38, 56
5, 193828, Note_on_c, 9, 38, 0
5, 193916, Note_on_c, 9, 40, 0
5, 193920, Note_on_c, 9, 40, 46
5, 193952, Note_on_c, 9, 38, 55
5, 194392, Note_on_c, 9, 38, 0
5, 194396, Note_on_c, 9, 40, 0
5, 194400, Note_on_c, 9, 40, 50
5, 194432, Note_on_c, 9, 38, 97
5, 194444, Note_on_c, 9, 44, 115
5, 194620, Note_on_c, 9, 40, 0
5, 194656, Note_on_c, 9, 38, 0
5, 194728, Note_on_c, 9, 39, 113
5, 194848, Note_on_c, 9, 39, 0
5, 194872, Note_on_c, 9, 44, 0
5, 194880, Note_on_c, 9, 40, 41
5, 194912, Note_on_c, 9, 38, 81
5, 195356, Note_on_c, 9, 40, 0
5, 195360, Note_on_c, 9, 40, 37
5, 195392, Note_on_c, 9, 38, 103
5, 195404, Note_on_c, 9, 44, 115
5, 195472, Note_on_c, 9, 38, 0
5, 195580, Note_on_c, 9, 40, 0
5, 195628, Note_on_c, 9, 38, 0
5, 195688, Note_on_c, 9, 38, 55
5, 195808, Note_on_c, 9, 44, 0
5, 195840, Note_on_c, 9, 40, 46
5, 195872, Note_on_c, 9, 38, 0
5, 195872, Note_on_c, 9, 38, 63
5, 196316, Note_on_c, 9, 40, 0
5, 196320, Note_on_c, 9, 40, 50
5, 196352, Note_on_c, 9, 38, 117
5, 196364, Note_on_c, 9, 44, 114
5, 196372, Note_on_c, 9, 38, 0
5, 196540, Note_on_c, 9, 40, 0
5, 196608, Note_on_c, 9, 38, 0
5, 196648, Note_on_c, 9, 38, 50
5, 196736, Note_on_c, 9, 38, 0
5, 196784, Note_on_c, 9, 44, 0
5, 196800, Note_on_c, 9, 40, 41
5, 196832, Note_on_c, 9, 38, 62
5, 197276, Note_on_c, 9, 40, 0
5, 197280, Note_on_c, 9, 40, 37
5, 197312, Note_on_c, 9, 38, 105
5, 197324, Note_on_c, 9, 44, 110
5, 197376, Note_on_c, 9, 38, 0
5, 197500, Note_on_c, 9, 40, 0
5, 197584, Note_on_c, 9, 38, 0
5, 197608, Note_on_c, 9, 38, 36
5, 197732, Note_on_c, 9, 44, 0
5, 197760, Note_on_c, 9, 40, 46
5, 197792, Note_on_c, 9, 38, 0
5, 197792, Note_on_c, 9, 38, 69
5, 198236, Note_on_c, 9, 40, 0
5, 198240, Note_on_c, 9, 40, 50
5, 198272, Note_on_c, 9, 38, 93
5, 198284, Note_on_c, 9, 38, 0
5, 198284, Note_on_c, 9, 44, 110
5, 198460, Note_on_c, 9, 40, 0
5, 198500, Note_on_c, 9, 38, 0
5, 198568, Note_on_c, 9, 38, 63
5, 198648, Note_on_c, 9, 38, 0
5, 198704, Note_on_c, 9, 44, 0
5, 198720, Note_on_c, 9, 40, 41
5, 198752, Note_on_c, 9, 38, 64
5, 199196, Note_on_c, 9, 40, 0
5, 199200, Note_on_c, 9, 40, 37
5, 199232, Note_on_c, 9, 38, 107
5, 199244, Note_on_c, 9, 44, 110
5, 199280, Note_on_c, 9, 38, 0
5, 199420, Note_on_c, 9, 40, 0
5, 199484, Note_on_c, 9, 38, 0
5, 199528, Note_on_c, 9, 38, 54
5, 199608, Note_on_c, 9, 38, 0
5, 199656, Note_on_c, 9, 44, 0
5, 199680, Note_on_c, 9, 40, 46
5, 199712, Note_on_c, 9, 38, 71
5, 200156, Note_on_c, 9, 40, 0
5, 200160, Note_on_c, 9, 40, 50
5, 200192, Note_on_c, 9, 38, 109
5, 200204, Note_on_c, 9, 44, 107
5, 200220, Note_on_c, 9, 38, 0
5, 200380, Note_on_c, 9, 40, 0
5, 200444, Note_on_c, 9, 38, 0
5, 200488, Note_on_c, 9, 38, 52
5, 200592, Note_on_c, 9, 38, 0
5, 200612, Note_on_c, 9, 44, 0
5, 200640, Note_on_c, 9, 40, 41
5, 200672, Note_on_c, 9, 38, 66
5, 201116, Note_on_c, 9, 40, 0
5, 201120, Note_on_c, 9, 40, 37
5, 201124, Note_on_c, 9, 38, 0
5, 201152, Note_on_c, 9, 38, 101
5, 201164, Note_on_c, 9, 44, 110
5, 201340, Note_on_c, 9, 40, 0
5, 201388, Note_on_c, 9, 38, 0
5, 201448, Note_on_c, 9, 39, 82
5, 201536, Note_on_c, 9, 39, 0
5, 201588, Note_on_c, 9, 44, 0
5, 201600, Note_on_c, 9, 40, 46
5, 201632, Note_on_c, 9, 38, 70
5, 202076, Note_on_c, 9, 40, 0
5, 202080, Note_on_c, 9, 40, 50
5, 202112, Note_on_c, 9, 38, 103
5, 202124, Note_on_c, 9, 44, 106
5, 202204, Note_on_c, 9, 38, 0
5, 202552, Note_on_c, 9, 44, 0
5, 202556, Note_on_c, 9, 40, 0
5, 202560, Note_on_c, 9, 40, 41
5, 202592, Note_on_c, 9, 38, 69
5, 202596, Note_on_c, 9, 38, 0
5, 202844, Note_on_c, 9, 38, 0
5, 202892, Note_on_c, 9, 39, 120
5, 203036, Note_on_c, 9, 40, 0
5, 203072, Note_on_c, 9, 38, 63
5, 203084, Note_on_c, 9, 44, 104
5, 203112, Note_on_c, 9, 39, 0
5, 203316, Note_on_c, 9, 38, 0
5, 203372, Note_on_c, 9, 35, 100
5, 203480, Note_on_c, 9, 35, 0
5, 203512, Note_on_c, 9, 44, 0
5, 203520, Note_on_c, 9, 40, 46
5, 203712, Note_on_c, 9, 39, 60
5, 203740, Note_on_c, 9, 40, 0
5, 203868, Note_on_c, 9, 35, 70
5, 203924, Note_on_c, 9, 39, 0
5, 203976, Note_on_c, 9, 35, 0
5, 204000, Note_on_c, 9, 40, 50
5, 204044, Note_on_c, 9, 44, 102
5, 204464, Note_on_c, 9, 44, 0
5, 204476, Note_on_c, 9, 40, 0
5, 204480, Note_on_c, 9, 40, 41
5, 204512, Note_on_c, 9, 38, 66
5, 204928, Note_on_c, 9, 38, 0
5, 204956, Note_on_c, 9, 40, 0
5, 204960, Note_on_c, 9, 40, 37
5, 204992, Note_on_c, 9, 38, 119
5, 205004, Note_on_c, 9, 44, 89
5, 205436, Note_on_c, 9, 40, 0
5, 205440, Note_on_c, 9, 40, 46
5, 205448, Note_on_c, 9, 44, 0
5, 205472, Note_on_c, 9, 38, 0
5, 205472, Note_on_c, 9, 38, 66
5, 205908, Note_on_c, 9, 38, 0
5, 205916, Note_on_c, 9, 40, 0
5, 205920, Note_on_c, 9, 40, 50
5, 205952, Note_on_c, 9, 38, 115
5, 205964, Note_on_c, 9, 44, 100
5, 206140, Note_on_c, 9, 40, 0
5, 206188, Note_on_c, 9, 38, 0
5, 206248, Note_on_c, 9, 38, 59
5, 206324, Note_on_c, 9, 38, 0
5, 206392, Note_on_c, 9, 44, 0
5, 206400, Note_on_c, 9, 40, 41
5, 206432, Note_on_c, 9, 38, 73
5, 206876, Note_on_c, 9, 40, 0
5, 206880, Note_on_c, 9, 40, 37
5, 206912, Note_on_c, 9, 38, 117
5, 206924, Note_on_c, 9, 44, 89
5, 206940, Note_on_c, 9, 38, 0
5, 207096, Note_on_c, 9, 44, 0
5, 207100, Note_on_c, 9, 40, 0
5, 207128, Note_on_c, 9, 38, 0
5, 207152, Note_on_c, 9, 46, 65
5, 207208, Note_on_c, 9, 38, 64
5, 207312, Note_on_c, 9, 38, 0
5, 207360, Note_on_c, 9, 40, 46
5, 207392, Note_on_c, 9, 46, 0
5, 207392, Note_on_c, 9, 38, 50
5, 207836, Note_on_c, 9, 40, 0
5, 207840, Note_on_c, 9, 40, 50
5, 207872, Note_on_c, 9, 38, 111
5, 207884, Note_on_c, 9, 44, 106
5, 207912, Note_on_c, 9, 38, 0
5, 208060, Note_on_c, 9, 40, 0
5, 208152, Note_on_c, 9, 38, 0
5, 208168, Note_on_c, 9, 38, 52
5, 208244, Note_on_c, 9, 38, 0
5, 208316, Note_on_c, 9, 44, 0
5, 208320, Note_on_c, 9, 40, 41
5, 208352, Note_on_c, 9, 38, 55
5, 208796, Note_on_c, 9, 40, 0
5, 208800, Note_on_c, 9, 40, 37
5, 208824, Note_on_c, 9, 38, 0
5, 208832, Note_on_c, 9, 38, 113
5, 208844, Note_on_c, 9, 44, 107
5, 209020, Note_on_c, 9, 40, 0
5, 209112, Note_on_c, 9, 38, 0
5, 209128, Note_on_c, 9, 38, 44
5, 209208, Note_on_c, 9, 38, 0
5, 209280, Note_on_c, 9, 40, 46
5, 209284, Note_on_c, 9, 44, 0
5, 209312, Note_on_c, 9, 38, 66
5, 209728, Note_on_c, 9, 38, 0
5, 209756, Note_on_c, 9, 40, 0
5, 209760, Note_on_c, 9, 40, 50
5, 209792, Note_on_c, 9, 38, 109
5, 209804, Note_on_c, 9, 44, 111
5, 210128, Note_on_c, 9, 35, 74
5, 210196, Note_on_c, 9, 38, 0
5, 210228, Note_on_c, 9, 44, 0
5, 210236, Note_on_c, 9, 40, 0
5, 210236, Note_on_c, 9, 35, 0
5, 210240, Note_on_c, 9, 40, 41
5, 210272, Note_on_c, 9, 38, 62
5, 210284, Note_on_c, 9, 44, 91
5, 210436, Note_on_c, 9, 44, 0
5, 210460, Note_on_c, 9, 40, 0
5, 210488, Note_on_c, 9, 38, 0
5, 210512, Note_on_c, 9, 46, 90
5, 210568, Note_on_c, 9, 39, 117
5, 210708, Note_on_c, 9, 39, 0
5, 210720, Note_on_c, 9, 40, 37
5, 210752, Note_on_c, 9, 38, 57
5, 210872, Note_on_c, 9, 46, 0
5, 211052, Note_on_c, 9, 39, 110
5, 211052, Note_on_c, 9, 35, 110
5, 211080, Note_on_c, 9, 38, 0
5, 211160, Note_on_c, 9, 35, 0
5, 211196, Note_on_c, 9, 40, 0
5, 211200, Note_on_c, 9, 40, 46
5, 211232, Note_on_c, 9, 39, 0
5, 211232, Note_on_c, 9, 38, 80
5, 211676, Note_on_c, 9, 40, 0
5, 211680, Note_on_c, 9, 40, 50
5, 211712, Note_on_c, 9, 38, 113
5, 211724, Note_on_c, 9, 44, 127
5, 211752, Note_on_c, 9, 38, 0
5, 211900, Note_on_c, 9, 40, 0
5, 211992, Note_on_c, 9, 38, 0
5, 212008, Note_on_c, 9, 38, 50
5, 212096, Note_on_c, 9, 38, 0
5, 212120, Note_on_c, 9, 44, 0
5, 212160, Note_on_c, 9, 40, 41
5, 212192, Note_on_c, 9, 38, 52
5, 212636, Note_on_c, 9, 40, 0
5, 212640, Note_on_c, 9, 40, 37
5, 212648, Note_on_c, 9, 38, 0
5, 212672, Note_on_c, 9, 38, 117
5, 212684, Note_on_c, 9, 44, 107
5, 212860, Note_on_c, 9, 40, 0
5, 212952, Note_on_c, 9, 38, 0
5, 212968, Note_on_c, 9, 38, 41
5, 213028, Note_on_c, 9, 38, 0
5, 213116, Note_on_c, 9, 44, 0
5, 213120, Note_on_c, 9, 40, 46
5, 213152, Note_on_c, 9, 38, 67
5, 213584, Note_on_c, 9, 38, 0
5, 213596, Note_on_c, 9, 40, 0
5, 213600, Note_on_c, 9, 40, 50
5, 213632, Note_on_c, 9, 38, 115
5, 213644, Note_on_c, 9, 44, 98
5, 213820, Note_on_c, 9, 40, 0
5, 213876, Note_on_c, 9, 38, 0
5, 213928, Note_on_c, 9, 38, 50
5, 214028, Note_on_c, 9, 38, 0
5, 214076, Note_on_c, 9, 44, 0
5, 214080, Note_on_c, 9, 40, 41
5, 214112, Note_on_c, 9, 38, 71
5, 214512, Note_on_c, 9, 38, 0
5, 214556, Note_on_c, 9, 40, 0
5, 214560, Note_on_c, 9, 40, 37
5, 214592, Note_on_c, 9, 38, 121
5, 214604, Note_on_c, 9, 44, 102
5, 214776, Note_on_c, 9, 38, 65
5, 214780, Note_on_c, 9, 40, 0
5, 214916, Note_on_c, 9, 38, 0
5, 215040, Note_on_c, 9, 40, 46
5, 215056, Note_on_c, 9, 44, 0
5, 215056, Note_on_c, 9, 38, 0
5, 215072, Note_on_c, 9, 38, 82
5, 215488, Note_on_c, 9, 38, 0
5, 215516, Note_on_c, 9, 40, 0
5, 215520, Note_on_c, 9, 40, 50
5, 215552, Note_on_c, 9, 38, 115
5, 215564, Note_on_c, 9, 44, 107
5, 215740, Note_on_c, 9, 40, 0
5, 215772, Note_on_c, 9, 38, 0
5, 215848, Note_on_c, 9, 38, 60
5, 215960, Note_on_c, 9, 38, 0
5, 216000, Note_on_c, 9, 40, 41
5, 216004, Note_on_c, 9, 44, 0
5, 216032, Note_on_c, 9, 38, 63
5, 216476, Note_on_c, 9, 40, 0
5, 216480, Note_on_c, 9, 40, 37
5, 216512, Note_on_c, 9, 38, 115
5, 216524, Note_on_c, 9, 44, 89
5, 216540, Note_on_c, 9, 38, 0
5, 216912, Note_on_c, 9, 38, 0
5, 216948, Note_on_c, 9, 44, 0
5, 216956, Note_on_c, 9, 40, 0
5, 216960, Note_on_c, 9, 40, 46
5, 217072, Note_on_c, 9, 38, 30
5, 217132, Note_on_c, 9, 38, 0
5, 217152, Note_on_c, 9, 38, 66
5, 217180, Note_on_c, 9, 40, 0
5, 217212, Note_on_c, 9, 38, 0
5, 217232, Note_on_c, 9, 38, 82
5, 217292, Note_on_c, 9, 38, 0
5, 217312, Note_on_c, 9, 39, 120
5, 217372, Note_on_c, 9, 39, 0
5, 217392, Note_on_c, 9, 38, 70
5, 217452, Note_on_c, 9, 38, 0
5, 217472, Note_on_c, 9, 38, 72
5, 217532, Note_on_c, 9, 38, 0
5, 217552, Note_on_c, 9, 38, 66
5, 217632, Note_on_c, 9, 38, 51
5, 217792, Note_on_c, 9, 35, 74
5, 217852, Note_on_c, 9, 35, 0
5, 217868, Note_on_c, 9, 38, 0
5, 217872, Note_on_c, 9, 38, 34
5, 217932, Note_on_c, 9, 38, 0
5, 217948, Note_on_c, 9, 38, 0
5, 217952, Note_on_c, 9, 38, 95
5, 218012, Note_on_c, 9, 38, 0
5, 218032, Note_on_c, 9, 38, 32
5, 218092, Note_on_c, 9, 38, 0
5, 218112, Note_on_c, 9, 39, 110
5, 218172, Note_on_c, 9, 39, 0
5, 218192, Note_on_c, 9, 38, 36
5, 218252, Note_on_c, 9, 38, 0
5, 218272, Note_on_c, 9, 38, 74
5, 218332, Note_on_c, 9, 38, 0
5, 218352, Note_on_c, 9, 38, 23
5, 218412, Note_on_c, 9, 38, 0
5, 218432, Note_on_c, 9, 38, 22
5, 218492, Note_on_c, 9, 38, 0
5, 218592, Note_on_c, 9, 38, 62
5, 218732, Note_on_c, 9, 39, 127
5, 218792, Note_on_c, 9, 39, 0
5, 218880, Note_on_c, 9, 40, 46
5, 218908, Note_on_c, 9, 38, 0
5, 219356, Note_on_c, 9, 40, 0
5, 219360, Note_on_c, 9, 40, 50
5, 219392, Note_on_c, 9, 38, 119
5, 219404, Note_on_c, 9, 44, 127
5, 219580, Note_on_c, 9, 40, 0
5, 219632, Note_on_c, 9, 38, 0
5, 219688, Note_on_c, 9, 38, 56
5, 219784, Note_on_c, 9, 38, 0
5, 219804, Note_on_c, 9, 44, 0
5, 219840, Note_on_c, 9, 40, 41
5, 219872, Note_on_c, 9, 38, 99
5, 220040, Note_on_c, 9, 38, 0
5, 220060, Note_on_c, 9, 40, 0
5, 220320, Note_on_c, 9, 40, 37
5, 220352, Note_on_c, 9, 46, 110
5, 220352, Note_on_c, 9, 38, 117
5, 220540, Note_on_c, 9, 40, 0
5, 220588, Note_on_c, 9, 38, 0
5, 220648, Note_on_c, 9, 38, 52
5, 220716, Note_on_c, 9, 46, 0
5, 220772, Note_on_c, 9, 38, 0
5, 220800, Note_on_c, 9, 40, 46
5, 220832, Note_on_c, 9, 38, 78
5, 221256, Note_on_c, 9, 38, 0
5, 221276, Note_on_c, 9, 40, 0
5, 221280, Note_on_c, 9, 40, 50
5, 221312, Note_on_c, 9, 38, 121
5, 221324, Note_on_c, 9, 44, 114
5, 221500, Note_on_c, 9, 40, 0
5, 221536, Note_on_c, 9, 38, 0
5, 221608, Note_on_c, 9, 38, 55
5, 221684, Note_on_c, 9, 38, 0
5, 221736, Note_on_c, 9, 44, 0
5, 221760, Note_on_c, 9, 40, 41
5, 221792, Note_on_c, 9, 38, 65
5, 221980, Note_on_c, 9, 40, 0
5, 222036, Note_on_c, 9, 38, 0
5, 222088, Note_on_c, 9, 39, 97
5, 222088, Note_on_c, 9, 38, 68
5, 222148, Note_on_c, 9, 38, 0
5, 222176, Note_on_c, 9, 39, 0
5, 222240, Note_on_c, 9, 40, 37
5, 222284, Note_on_c, 9, 44, 115
5, 222460, Note_on_c, 9, 40, 0
5, 222568, Note_on_c, 9, 38, 61
5, 222680, Note_on_c, 9, 38, 0
5, 222712, Note_on_c, 9, 44, 0
5, 222720, Note_on_c, 9, 40, 46
5, 222752, Note_on_c, 9, 38, 73
5, 223140, Note_on_c, 9, 38, 0
5, 223196, Note_on_c, 9, 40, 0
5, 223200, Note_on_c, 9, 40, 50
5, 223232, Note_on_c, 9, 38, 119
5, 223244, Note_on_c, 9, 44, 111
5, 223420, Note_on_c, 9, 40, 0
5, 223432, Note_on_c, 9, 38, 0
5, 223528, Note_on_c, 9, 38, 67
5, 223588, Note_on_c, 9, 44, 0
5, 223632, Note_on_c, 9, 38, 0
5, 223680, Note_on_c, 9, 40, 41
5, 223712, Note_on_c, 9, 38, 62
5, 223856, Note_on_c, 9, 38, 0
5, 223900, Note_on_c, 9, 40, 0
5, 224008, Note_on_c, 9, 38, 76
5, 224160, Note_on_c, 9, 40, 37
5, 224172, Note_on_c, 9, 38, 0
5, 224204, Note_on_c, 9, 44, 126
5, 224616, Note_on_c, 9, 44, 0
5, 224636, Note_on_c, 9, 40, 0
5, 224640, Note_on_c, 9, 40, 46
5, 224672, Note_on_c, 9, 38, 80
5, 225088, Note_on_c, 9, 38, 0
5, 225116, Note_on_c, 9, 40, 0
5, 225120, Note_on_c, 9, 40, 50
5, 225152, Note_on_c, 9, 38, 121
5, 225164, Note_on_c, 9, 44, 114
5, 225584, Note_on_c, 9, 44, 0
5, 225596, Note_on_c, 9, 40, 0
5, 225600, Note_on_c, 9, 40, 41
5, 225632, Note_on_c, 9, 38, 43
5, 225668, Note_on_c, 9, 38, 0
5, 226076, Note_on_c, 9, 40, 0
5, 226080, Note_on_c, 9, 40, 37
5, 226112, Note_on_c, 9, 38, 121
5, 226124, Note_on_c, 9, 44, 111
5, 226228, Note_on_c, 9, 38, 0
5, 226520, Note_on_c, 9, 38, 0
5, 226532, Note_on_c, 9, 44, 0
5, 226556, Note_on_c, 9, 40, 0
5, 226560, Note_on_c, 9, 40, 46
5, 226592, Note_on_c, 9, 38, 41
5, 226592, Note_on_c, 9, 35, 110
5, 227036, Note_on_c, 9, 40, 0
5, 227040, Note_on_c, 9, 40, 50
5, 227072, Note_on_c, 9, 38, 111
5, 227084, Note_on_c, 9, 44, 119
5, 227108, Note_on_c, 9, 35, 0
5, 227152, Note_on_c, 9, 38, 0
5, 227260, Note_on_c, 9, 38, 0
5, 227260, Note_on_c, 9, 40, 0
5, 227368, Note_on_c, 9, 38, 95
5, 227448, Note_on_c, 9, 38, 0
5, 227508, Note_on_c, 9, 44, 0
5, 227520, Note_on_c, 9, 40, 41
5, 227552, Note_on_c, 9, 38, 81
5, 227948, Note_on_c, 9, 38, 0
5, 227996, Note_on_c, 9, 40, 0
5, 228000, Note_on_c, 9, 40, 37
5, 228032, Note_on_c, 9, 38, 105
5, 228044, Note_on_c, 9, 44, 123
5, 228196, Note_on_c, 9, 38, 0
5, 228220, Note_on_c, 9, 40, 0
5, 228328, Note_on_c, 9, 38, 69
5, 228404, Note_on_c, 9, 38, 0
5, 228456, Note_on_c, 9, 44, 0
5, 228480, Note_on_c, 9, 40, 46
5, 228512, Note_on_c, 9, 38, 69
5, 228884, Note_on_c, 9, 38, 0
5, 228956, Note_on_c, 9, 40, 0
5, 228960, Note_on_c, 9, 40, 50
5, 228992, Note_on_c, 9, 38, 101
5, 229004, Note_on_c, 9, 44, 111
5, 229180, Note_on_c, 9, 38, 0
5, 229180, Note_on_c, 9, 40, 0
5, 229288, Note_on_c, 9, 38, 105
5, 229392, Note_on_c, 9, 38, 0
5, 229400, Note_on_c, 9, 44, 0
5, 229440, Note_on_c, 9, 40, 41
5, 229472, Note_on_c, 9, 38, 87
5, 229860, Note_on_c, 9, 38, 0
5, 229916, Note_on_c, 9, 40, 0
5, 229920, Note_on_c, 9, 40, 37
5, 229952, Note_on_c, 9, 38, 97
5, 229964, Note_on_c, 9, 44, 114
5, 230132, Note_on_c, 9, 38, 0
5, 230140, Note_on_c, 9, 40, 0
5, 230248, Note_on_c, 9, 38, 105
5, 230352, Note_on_c, 9, 44, 0
5, 230360, Note_on_c, 9, 38, 0
5, 230400, Note_on_c, 9, 40, 46
5, 230432, Note_on_c, 9, 38, 61
5, 230876, Note_on_c, 9, 40, 0
5, 230880, Note_on_c, 9, 40, 50
5, 230888, Note_on_c, 9, 38, 0
5, 230912, Note_on_c, 9, 38, 121
5, 230924, Note_on_c, 9, 44, 120
5, 231328, Note_on_c, 9, 44, 0
5, 231356, Note_on_c, 9, 40, 0
5, 231360, Note_on_c, 9, 40, 41
5, 231392, Note_on_c, 9, 38, 71
5, 231448, Note_on_c, 9, 38, 0
5, 231580, Note_on_c, 9, 40, 0
5, 231592, Note_on_c, 9, 38, 0
5, 231688, Note_on_c, 9, 38, 105
5, 231792, Note_on_c, 9, 38, 0
5, 231840, Note_on_c, 9, 40, 37
5, 231884, Note_on_c, 9, 44, 127
5, 232272, Note_on_c, 9, 44, 0
5, 232316, Note_on_c, 9, 40, 0
5, 232320, Note_on_c, 9, 40, 46
5, 232352, Note_on_c, 9, 38, 73
5, 232540, Note_on_c, 9, 40, 0
5, 232548, Note_on_c, 9, 38, 0
5, 232648, Note_on_c, 9, 39, 117
5, 232752, Note_on_c, 9, 39, 0
5, 232800, Note_on_c, 9, 40, 50
5, 232832, Note_on_c, 9, 38, 50
5, 232844, Note_on_c, 9, 44, 96
5, 233276, Note_on_c, 9, 40, 0
5, 233280, Note_on_c, 9, 40, 41
5, 233312, Note_on_c, 9, 38, 85
5, 233348, Note_on_c, 9, 38, 0
5, 233428, Note_on_c, 9, 44, 0
5, 233468, Note_on_c, 9, 38, 0
5, 233500, Note_on_c, 9, 40, 0
5, 233608, Note_on_c, 9, 39, 115
5, 233712, Note_on_c, 9, 39, 0
5, 233760, Note_on_c, 9, 40, 37
5, 233792, Note_on_c, 9, 46, 85
5, 233980, Note_on_c, 9, 40, 0
5, 234088, Note_on_c, 9, 38, 92
5, 234156, Note_on_c, 9, 46, 0
5, 234168, Note_on_c, 9, 38, 0
5, 234240, Note_on_c, 9, 40, 46
5, 234272, Note_on_c, 9, 53, 80
5, 234272, Note_on_c, 9, 35, 110
5, 234284, Note_on_c, 9, 44, 76
5, 234628, Note_on_c, 9, 53, 0
5, 234716, Note_on_c, 9, 40, 0
5, 234720, Note_on_c, 9, 40, 50
5, 234752, Note_on_c, 9, 38, 107
5, 234764, Note_on_c, 9, 44, 127
5, 234788, Note_on_c, 9, 35, 0
5, 234848, Note_on_c, 9, 44, 0
5, 235148, Note_on_c, 9, 44, 0
5, 235196, Note_on_c, 9, 40, 0
5, 235200, Note_on_c, 9, 40, 41
5, 235232, Note_on_c, 9, 38, 67
5, 235312, Note_on_c, 9, 38, 0
5, 235672, Note_on_c, 9, 38, 0
5, 235676, Note_on_c, 9, 40, 0
5, 235680, Note_on_c, 9, 40, 37
5, 235712, Note_on_c, 9, 38, 113
5, 235724, Note_on_c, 9, 44, 127
5, 235900, Note_on_c, 9, 40, 0
5, 235940, Note_on_c, 9, 38, 0
5, 236008, Note_on_c, 9, 38, 86
5, 236108, Note_on_c, 9, 38, 0
5, 236144, Note_on_c, 9, 44, 0
5, 236160, Note_on_c, 9, 40, 46
5, 236192, Note_on_c, 9, 38, 83
5, 236636, Note_on_c, 9, 40, 0
5, 236640, Note_on_c, 9, 40, 50
5, 236672, Note_on_c, 9, 38, 113
5, 236684, Note_on_c, 9, 44, 102
5, 236692, Note_on_c, 9, 38, 0
5, 237112, Note_on_c, 9, 44, 0
5, 237116, Note_on_c, 9, 40, 0
5, 237120, Note_on_c, 9, 40, 41
5, 237152, Note_on_c, 9, 38, 63
5, 237276, Note_on_c, 9, 38, 0
5, 237452, Note_on_c, 9, 39, 110
5, 237560, Note_on_c, 9, 39, 0
5, 237560, Note_on_c, 9, 38, 0
5, 237596, Note_on_c, 9, 40, 0
5, 237600, Note_on_c, 9, 40, 37
5, 237632, Note_on_c, 9, 38, 113
5, 237644, Note_on_c, 9, 44, 126
5, 237820, Note_on_c, 9, 40, 0
5, 237852, Note_on_c, 9, 38, 0
5, 237928, Note_on_c, 9, 38, 77
5, 238016, Note_on_c, 9, 38, 0
5, 238056, Note_on_c, 9, 44, 0
5, 238080, Note_on_c, 9, 40, 46
5, 238112, Note_on_c, 9, 38, 69
5, 238476, Note_on_c, 9, 38, 0
5, 238556, Note_on_c, 9, 40, 0
5, 238560, Note_on_c, 9, 40, 50
5, 238592, Note_on_c, 9, 38, 111
5, 238604, Note_on_c, 9, 44, 113
5, 239008, Note_on_c, 9, 38, 0
5, 239024, Note_on_c, 9, 44, 0
5, 239036, Note_on_c, 9, 40, 0
5, 239040, Note_on_c, 9, 40, 41
5, 239072, Note_on_c, 9, 38, 71
5, 239480, Note_on_c, 9, 38, 0
5, 239516, Note_on_c, 9, 40, 0
5, 239520, Note_on_c, 9, 40, 37
5, 239552, Note_on_c, 9, 38, 95
5, 239564, Note_on_c, 9, 44, 113
5, 239740, Note_on_c, 9, 40, 0
5, 239788, Note_on_c, 9, 38, 0
5, 239848, Note_on_c, 9, 38, 107
5, 239936, Note_on_c, 9, 38, 0
5, 239984, Note_on_c, 9, 44, 0
5, 240000, Note_on_c, 9, 40, 46
5, 240032, Note_on_c, 9, 38, 93
5, 240444, Note_on_c, 9, 38, 0
5, 240476, Note_on_c, 9, 40, 0
5, 240480, Note_on_c, 9, 40, 50
5, 240512, Note_on_c, 9, 38, 99
5, 240524, Note_on_c, 9, 44, 118
5, 240688, Note_on_c, 9, 38, 0
5, 240700, Note_on_c, 9, 40, 0
5, 240808, Note_on_c, 9, 38, 89
5, 240884, Note_on_c, 9, 38, 0
5, 240932, Note_on_c, 9, 44, 0
5, 240960, Note_on_c, 9, 40, 41
5, 240992, Note_on_c, 9, 38, 73
5, 241436, Note_on_c, 9, 40, 0
5, 241440, Note_on_c, 9, 40, 37
5, 241472, Note_on_c, 9, 38, 97
5, 241476, Note_on_c, 9, 38, 0
5, 241484, Note_on_c, 9, 44, 119
5, 241636, Note_on_c, 9, 44, 0
5, 241660, Note_on_c, 9, 40, 0
5, 241676, Note_on_c, 9, 38, 0
5, 241768, Note_on_c, 9, 39, 120
5, 241864, Note_on_c, 9, 39, 0
5, 241920, Note_on_c, 9, 40, 46
5, 241952, Note_on_c, 9, 38, 45
5, 242316, Note_on_c, 9, 38, 0
5, 242396, Note_on_c, 9, 40, 0
5, 242400, Note_on_c, 9, 40, 50
5, 242432, Note_on_c, 9, 38, 107
5, 242444, Note_on_c, 9, 44, 123
5, 242812, Note_on_c, 9, 44, 0
5, 242856, Note_on_c, 9, 38, 0
5, 242876, Note_on_c, 9, 40, 0
5, 242880, Note_on_c, 9, 40, 41
5, 242912, Note_on_c, 9, 38, 64
5, 243356, Note_on_c, 9, 40, 0
5, 243360, Note_on_c, 9, 40, 37
5, 243392, Note_on_c, 9, 38, 111
5, 243404, Note_on_c, 9, 38, 0
5, 243404, Note_on_c, 9, 44, 118
5, 243580, Note_on_c, 9, 40, 0
5, 243612, Note_on_c, 9, 38, 0
5, 243688, Note_on_c, 9, 38, 68
5, 243788, Note_on_c, 9, 38, 0
5, 243792, Note_on_c, 9, 44, 0
5, 243840, Note_on_c, 9, 40, 46
5, 243872, Note_on_c, 9, 38, 71
5, 244308, Note_on_c, 9, 38, 0
5, 244316, Note_on_c, 9, 40, 0
5, 244320, Note_on_c, 9, 40, 50
5, 244352, Note_on_c, 9, 38, 117
5, 244364, Note_on_c, 9, 44, 115
5, 244776, Note_on_c, 9, 44, 0
5, 244796, Note_on_c, 9, 40, 0
5, 244800, Note_on_c, 9, 40, 41
5, 244832, Note_on_c, 9, 38, 63
5, 244848, Note_on_c, 9, 38, 0
5, 245276, Note_on_c, 9, 40, 0
5, 245280, Note_on_c, 9, 40, 37
5, 245312, Note_on_c, 9, 38, 107
5, 245316, Note_on_c, 9, 38, 0
5, 245324, Note_on_c, 9, 44, 127
5, 245500, Note_on_c, 9, 40, 0
5, 245532, Note_on_c, 9, 38, 0
5, 245608, Note_on_c, 9, 38, 87
5, 245696, Note_on_c, 9, 38, 0
5, 245728, Note_on_c, 9, 44, 0
5, 245760, Note_on_c, 9, 40, 46
5, 245792, Note_on_c, 9, 38, 75
5, 246092, Note_on_c, 9, 39, 110
5, 246172, Note_on_c, 9, 38, 0
5, 246200, Note_on_c, 9, 39, 0
5, 246236, Note_on_c, 9, 40, 0
5, 246240, Note_on_c, 9, 40, 50
5, 246272, Note_on_c, 9, 38, 111
5, 246284, Note_on_c, 9, 44, 123
5, 246680, Note_on_c, 9, 44, 0
5, 246684, Note_on_c, 9, 38, 0
5, 246716, Note_on_c, 9, 40, 0
5, 246720, Note_on_c, 9, 40, 41
5, 246752, Note_on_c, 9, 35, 110
5, 247116, Note_on_c, 9, 35, 0
5, 247196, Note_on_c, 9, 40, 0
5, 247200, Note_on_c, 9, 40, 37
5, 247232, Note_on_c, 9, 38, 119
5, 247244, Note_on_c, 9, 44, 115
5, 247420, Note_on_c, 9, 40, 0
5, 247456, Note_on_c, 9, 38, 0
5, 247528, Note_on_c, 9, 38, 68
5, 247532, Note_on_c, 9, 35, 90
5, 247580, Note_on_c, 9, 38, 0
5, 247632, Note_on_c, 9, 44, 0
5, 247640, Note_on_c, 9, 35, 0
5, 247680, Note_on_c, 9, 40, 46
5, 248156, Note_on_c, 9, 40, 0
5, 248160, Note_on_c, 9, 40, 50
5, 248204, Note_on_c, 9, 44, 127
5, 248492, Note_on_c, 9, 39, 110
5, 248600, Note_on_c, 9, 39, 0
5, 248604, Note_on_c, 9, 44, 0
5, 248636, Note_on_c, 9, 40, 0
5, 248640, Note_on_c, 9, 40, 41
5, 248972, Note_on_c, 9, 39, 110
5, 249080, Note_on_c, 9, 39, 0
5, 249116, Note_on_c, 9, 40, 0
5, 249120, Note_on_c, 9, 40, 37
5, 249164, Note_on_c, 9, 44, 123
5, 249292, Note_on_c, 9, 44, 0
5, 249596, Note_on_c, 9, 40, 0
5, 249633, Note_on_c, 9, 40, 54
5, 249643, Note_on_c, 9, 38, 54
5, 249643, Note_on_c, 9, 42, 10
5, 249741, Note_on_c, 9, 40, 0
5, 249751, Note_on_c, 9, 42, 0
5, 249751, Note_on_c, 9, 38, 0
5, 250091, Note_on_c, 9, 40, 50
5, 250123, Note_on_c, 9, 38, 103
5, 250135, Note_on_c, 9, 44, 126
5, 250311, Note_on_c, 9, 44, 0
5, 250383, Note_on_c, 9, 38, 0
5, 250419, Note_on_c, 9, 38, 49
5, 250519, Note_on_c, 9, 38, 0
5, 250567, Note_on_c, 9, 40, 0
5, 250601, Note_on_c, 9, 40, 41
5, 250603, Note_on_c, 9, 38, 67
5, 250843, Note_on_c, 9, 38, 0
5, 251051, Note_on_c, 9, 40, 37
5, 251077, Note_on_c, 9, 40, 0
5, 251083, Note_on_c, 9, 38, 107
5, 251095, Note_on_c, 9, 44, 105
5, 251283, Note_on_c, 9, 44, 0
5, 251359, Note_on_c, 9, 38, 0
5, 251379, Note_on_c, 9, 38, 49
5, 251431, Note_on_c, 9, 38, 0
5, 251527, Note_on_c, 9, 40, 0
5, 251531, Note_on_c, 9, 40, 46
5, 251563, Note_on_c, 9, 38, 72
5, 251791, Note_on_c, 9, 38, 0
5, 252007, Note_on_c, 9, 40, 0
5, 252011, Note_on_c, 9, 40, 50
5, 252043, Note_on_c, 9, 38, 105
5, 252055, Note_on_c, 9, 44, 107
5, 252227, Note_on_c, 9, 44, 0
5, 252307, Note_on_c, 9, 38, 0
5, 252339, Note_on_c, 9, 38, 45
5, 252403, Note_on_c, 9, 38, 0
5, 252487, Note_on_c, 9, 40, 0
5, 252491, Note_on_c, 9, 40, 41
5, 252523, Note_on_c, 9, 38, 72
5, 252743, Note_on_c, 9, 38, 0
5, 252823, Note_on_c, 9, 39, 110
5, 252931, Note_on_c, 9, 39, 0
5, 252967, Note_on_c, 9, 40, 0
5, 252971, Note_on_c, 9, 40, 37
5, 253003, Note_on_c, 9, 38, 109
5, 253015, Note_on_c, 9, 44, 114
5, 253219, Note_on_c, 9, 38, 0
5, 253223, Note_on_c, 9, 44, 0
5, 253299, Note_on_c, 9, 38, 63
5, 253395, Note_on_c, 9, 38, 0
5, 253447, Note_on_c, 9, 40, 0
5, 253451, Note_on_c, 9, 40, 46
5, 253483, Note_on_c, 9, 38, 71
5, 253639, Note_on_c, 9, 38, 0
5, 253927, Note_on_c, 9, 40, 0
5, 253931, Note_on_c, 9, 40, 50
5, 253963, Note_on_c, 9, 38, 113
5, 253975, Note_on_c, 9, 44, 113
5, 254167, Note_on_c, 9, 44, 0
5, 254371, Note_on_c, 9, 38, 0
5, 254407, Note_on_c, 9, 40, 0
5, 254411, Note_on_c, 9, 40, 41
5, 254443, Note_on_c, 9, 38, 57
5, 254587, Note_on_c, 9, 38, 0
5, 254887, Note_on_c, 9, 40, 0
5, 254891, Note_on_c, 9, 40, 37
5, 254923, Note_on_c, 9, 38, 109
5, 254935, Note_on_c, 9, 44, 110
5, 255111, Note_on_c, 9, 44, 0
5, 255211, Note_on_c, 9, 38, 0
5, 255219, Note_on_c, 9, 38, 56
5, 255279, Note_on_c, 9, 38, 0
5, 255367, Note_on_c, 9, 40, 0
5, 255371, Note_on_c, 9, 40, 46
5, 255403, Note_on_c, 9, 38, 55
5, 255843, Note_on_c, 9, 38, 0
5, 255847, Note_on_c, 9, 40, 0
5, 255851, Note_on_c, 9, 40, 50
5, 255883, Note_on_c, 9, 38, 97
5, 255895, Note_on_c, 9, 44, 115
5, 256071, Note_on_c, 9, 40, 0
5, 256107, Note_on_c, 9, 38, 0
5, 256179, Note_on_c, 9, 39, 113
5, 256299, Note_on_c, 9, 39, 0
5, 256323, Note_on_c, 9, 44, 0
5, 256331, Note_on_c, 9, 40, 41
5, 256363, Note_on_c, 9, 38, 81
5, 256807, Note_on_c, 9, 40, 0
5, 256811, Note_on_c, 9, 40, 37
5, 256843, Note_on_c, 9, 38, 103
5, 256855, Note_on_c, 9, 44, 115
5, 256923, Note_on_c, 9, 38, 0
5, 257031, Note_on_c, 9, 40, 0
5, 257079, Note_on_c, 9, 38, 0
5, 257139, Note_on_c, 9, 38, 55
5, 257259, Note_on_c, 9, 44, 0
5, 257291, Note_on_c, 9, 40, 46
5, 257323, Note_on_c, 9, 38, 0
5, 257323, Note_on_c, 9, 38, 63
5, 257767, Note_on_c, 9, 40, 0
5, 257771, Note_on_c, 9, 40, 50
5, 257803, Note_on_c, 9, 38, 117
5, 257815, Note_on_c, 9, 44, 114
5, 257823, Note_on_c, 9, 38, 0
5, 257991, Note_on_c, 9, 40, 0
5, 258059, Note_on_c, 9, 38, 0
5, 258099, Note_on_c, 9, 38, 50
5, 258187, Note_on_c, 9, 38, 0
5, 258235, Note_on_c, 9, 44, 0
5, 258251, Note_on_c, 9, 40, 41
5, 258283, Note_on_c, 9, 38, 62
5, 258727, Note_on_c, 9, 40, 0
5, 258731, Note_on_c, 9, 40, 37
5, 258763, Note_on_c, 9, 38, 105
5, 258775, Note_on_c, 9, 44, 110
5, 258827, Note_on_c, 9, 38, 0
5, 258951, Note_on_c, 9, 40, 0
5, 259035, Note_on_c, 9, 38, 0
5, 259059, Note_on_c, 9, 38, 36
5, 259183, Note_on_c, 9, 44, 0
5, 259211, Note_on_c, 9, 40, 46
5, 259243, Note_on_c, 9, 38, 0
5, 259243, Note_on_c, 9, 38, 69
5, 259687, Note_on_c, 9, 40, 0
5, 259691, Note_on_c, 9, 40, 50
5, 259723, Note_on_c, 9, 38, 93
5, 259735, Note_on_c, 9, 38, 0
5, 259735, Note_on_c, 9, 44, 110
5, 259911, Note_on_c, 9, 40, 0
5, 259951, Note_on_c, 9, 38, 0
5, 260019, Note_on_c, 9, 38, 63
5, 260099, Note_on_c, 9, 38, 0
5, 260155, Note_on_c, 9, 44, 0
5, 260171, Note_on_c, 9, 40, 41
5, 260203, Note_on_c, 9, 38, 64
5, 260647, Note_on_c, 9, 40, 0
5, 260651, Note_on_c, 9, 40, 37
5, 260683, Note_on_c, 9, 38, 107
5, 260695, Note_on_c, 9, 44, 110
5, 260731, Note_on_c, 9, 38, 0
5, 260871, Note_on_c, 9, 40, 0
5, 260935, Note_on_c, 9, 38, 0
5, 260979, Note_on_c, 9, 38, 54
5, 261059, Note_on_c, 9, 38, 0
5, 261107, Note_on_c, 9, 44, 0
5, 261131, Note_on_c, 9, 40, 46
5, 261163, Note_on_c, 9, 38, 71
5, 261607, Note_on_c, 9, 40, 0
5, 261611, Note_on_c, 9, 40, 50
5, 261643, Note_on_c, 9, 38, 109
5, 261655, Note_on_c, 9, 44, 107
5, 261671, Note_on_c, 9, 38, 0
5, 261831, Note_on_c, 9, 40, 0
5, 261895, Note_on_c, 9, 38, 0
5, 261939, Note_on_c, 9, 38, 52
5, 262043, Note_on_c, 9, 38, 0
5, 262063, Note_on_c, 9, 44, 0
5, 262091, Note_on_c, 9, 40, 41
5, 262123, Note_on_c, 9, 38, 66
5, 262567, Note_on_c, 9, 40, 0
5, 262571, Note_on_c, 9, 40, 37
5, 262575, Note_on_c, 9, 38, 0
5, 262603, Note_on_c, 9, 38, 101
5, 262615, Note_on_c, 9, 44, 110
5, 262791, Note_on_c, 9, 40, 0
5, 262839, Note_on_c, 9, 38, 0
5, 262899, Note_on_c, 9, 39, 82
5, 262987, Note_on_c, 9, 39, 0
5, 263039, Note_on_c, 9, 44, 0
5, 263051, Note_on_c, 9, 40, 46
5, 263083, Note_on_c, 9, 38, 70
5, 263527, Note_on_c, 9, 40, 0
5, 263531, Note_on_c, 9, 40, 50
5, 263563, Note_on_c, 9, 38, 103
5, 263575, Note_on_c, 9, 44, 106
5, 263655, Note_on_c, 9, 38, 0
5, 264003, Note_on_c, 9, 44, 0
5, 264007, Note_on_c, 9, 40, 0
5, 264011, Note_on_c, 9, 40, 41
5, 264043, Note_on_c, 9, 38, 69
5, 264047, Note_on_c, 9, 38, 0
5, 264295, Note_on_c, 9, 38, 0
5, 264343, Note_on_c, 9, 39, 120
5, 264487, Note_on_c, 9, 40, 0
5, 264523, Note_on_c, 9, 38, 63
5, 264535, Note_on_c, 9, 44, 104
5, 264563, Note_on_c, 9, 39, 0
5, 264767, Note_on_c, 9, 38, 0
5, 264823, Note_on_c, 9, 35, 100
5, 264931, Note_on_c, 9, 35, 0
5, 264963, Note_on_c, 9, 44, 0
5, 264971, Note_on_c, 9, 40, 46
5, 265163, Note_on_c, 9, 39, 60
5, 265191, Note_on_c, 9, 40, 0
5, 265319, Note_on_c, 9, 35, 70
5, 265375, Note_on_c, 9, 39, 0
5, 265427, Note_on_c, 9, 35, 0
5, 265451, Note_on_c, 9, 40, 50
5, 265495, Note_on_c, 9, 44, 102
5, 265915, Note_on_c, 9, 44, 0
5, 265927, Note_on_c, 9, 40, 0
5, 265931, Note_on_c, 9, 40, 41
5, 265963, Note_on_c, 9, 38, 66
5, 266379, Note_on_c, 9, 38, 0
5, 266407, Note_on_c, 9, 40, 0
5, 266411, Note_on_c, 9, 40, 37
5, 266443, Note_on_c, 9, 38, 119
5, 266455, Note_on_c, 9, 44, 89
5, 266887, Note_on_c, 9, 40, 0
5, 266891, Note_on_c, 9, 40, 46
5, 266899, Note_on_c, 9, 44, 0
5, 266923, Note_on_c, 9, 38, 0
5, 266923, Note_on_c, 9, 38, 66
5, 267359, Note_on_c, 9, 38, 0
5, 267367, Note_on_c, 9, 40, 0
5, 267371, Note_on_c, 9, 40, 50
5, 267403, Note_on_c, 9, 38, 115
5, 267415, Note_on_c, 9, 44, 100
5, 267591, Note_on_c, 9, 40, 0
5, 267639, Note_on_c, 9, 38, 0
5, 267699, Note_on_c, 9, 38, 59
5, 267775, Note_on_c, 9, 38, 0
5, 267843, Note_on_c, 9, 44, 0
5, 267851, Note_on_c, 9, 40, 41
5, 267883, Note_on_c, 9, 38, 73
5, 268327, Note_on_c, 9, 40, 0
5, 268331, Note_on_c, 9, 40, 37
5, 268363, Note_on_c, 9, 38, 117
5, 268375, Note_on_c, 9, 44, 89
5, 268391, Note_on_c, 9, 38, 0
5, 268547, Note_on_c, 9, 44, 0
5, 268551, Note_on_c, 9, 40, 0
5, 268579, Note_on_c, 9, 38, 0
5, 268603, Note_on_c, 9, 46, 65
5, 268659, Note_on_c, 9, 38, 64
5, 268763, Note_on_c, 9, 38, 0
5, 268811, Note_on_c, 9, 40, 46
5, 268843, Note_on_c, 9, 46, 0
5, 268843, Note_on_c, 9, 38, 50
5, 269287, Note_on_c, 9, 40, 0
5, 269291, Note_on_c, 9, 40, 50
5, 269323, Note_on_c, 9, 38, 111
5, 269335, Note_on_c, 9, 44, 106
5, 269363, Note_on_c, 9, 38, 0
5, 269511, Note_on_c, 9, 40, 0
5, 269603, Note_on_c, 9, 38, 0
5, 269619, Note_on_c, 9, 38, 52
5, 269695, Note_on_c, 9, 38, 0
5, 269767, Note_on_c, 9, 44, 0
5, 269771, Note_on_c, 9, 40, 41
5, 269803, Note_on_c, 9, 38, 55
5, 270247, Note_on_c, 9, 40, 0
5, 270251, Note_on_c, 9, 40, 37
5, 270275, Note_on_c, 9, 38, 0
5, 270283, Note_on_c, 9, 38, 113
5, 270295, Note_on_c, 9, 44, 107
5, 270471, Note_on_c, 9, 40, 0
5, 270563, Note_on_c, 9, 38, 0
5, 270579, Note_on_c, 9, 38, 44
5, 270659, Note_on_c, 9, 38, 0
5, 270731, Note_on_c, 9, 40, 46
5, 270735, Note_on_c, 9, 44, 0
5, 270763, Note_on_c, 9, 38, 66
5, 271179, Note_on_c, 9, 38, 0
5, 271207, Note_on_c, 9, 40, 0
5, 271211, Note_on_c, 9, 40, 50
5, 271243, Note_on_c, 9, 38, 109
5, 271255, Note_on_c, 9, 44, 111
5, 271579, Note_on_c, 9, 35, 74
5, 271647, Note_on_c, 9, 38, 0
5, 271679, Note_on_c, 9, 44, 0
5, 271687, Note_on_c, 9, 40, 0
5, 271687, Note_on_c, 9, 35, 0
5, 271691, Note_on_c, 9, 40, 41
5, 271723, Note_on_c, 9, 38, 62
5, 271735, Note_on_c, 9, 44, 91
5, 271887, Note_on_c, 9, 44, 0
5, 271911, Note_on_c, 9, 40, 0
5, 271939, Note_on_c, 9, 38, 0
5, 271963, Note_on_c, 9, 46, 90
5, 272019, Note_on_c, 9, 39, 117
5, 272159, Note_on_c, 9, 39, 0
5, 272171, Note_on_c, 9, 40, 37
5, 272203, Note_on_c, 9, 38, 57
5, 272323, Note_on_c, 9, 46, 0
5, 272503, Note_on_c, 9, 39, 110
5, 272503, Note_on_c, 9, 35, 110
5, 272531, Note_on_c, 9, 38, 0
5, 272611, Note_on_c, 9, 35, 0
5, 272647, Note_on_c, 9, 40, 0
5, 272651, Note_on_c, 9, 40, 46
5, 272683, Note_on_c, 9, 39, 0
5, 272683, Note_on_c, 9, 38, 80
5, 273127, Note_on_c, 9, 40, 0
5, 273131, Note_on_c, 9, 40, 50
5, 273163, Note_on_c, 9, 38, 113
5, 273175, Note_on_c, 9, 44, 127
5, 273203, Note_on_c, 9, 38, 0
5, 273351, Note_on_c, 9, 40, 0
5, 273443, Note_on_c, 9, 38, 0
5, 273459, Note_on_c, 9, 38, 50
5, 273547, Note_on_c, 9, 38, 0
5, 273571, Note_on_c, 9, 44, 0
5, 273611, Note_on_c, 9, 40, 41
5, 273643, Note_on_c, 9, 38, 52
5, 274087, Note_on_c, 9, 40, 0
5, 274091, Note_on_c, 9, 40, 37
5, 274099, Note_on_c, 9, 38, 0
5, 274123, Note_on_c, 9, 38, 117
5, 274135, Note_on_c, 9, 44, 107
5, 274311, Note_on_c, 9, 40, 0
5, 274403, Note_on_c, 9, 38, 0
5, 274419, Note_on_c, 9, 38, 41
5, 274479, Note_on_c, 9, 38, 0
5, 274567, Note_on_c, 9, 44, 0
5, 274571, Note_on_c, 9, 40, 46
5, 274603, Note_on_c, 9, 38, 67
5, 275035, Note_on_c, 9, 38, 0
5, 275047, Note_on_c, 9, 40, 0
5, 275051, Note_on_c, 9, 40, 50
5, 275083, Note_on_c, 9, 38, 115
5, 275095, Note_on_c, 9, 44, 98
5, 275271, Note_on_c, 9, 40, 0
5, 275327, Note_on_c, 9, 38, 0
5, 275379, Note_on_c, 9, 38, 50
5, 275479, Note_on_c, 9, 38, 0
5, 275527, Note_on_c, 9, 44, 0
5, 275531, Note_on_c, 9, 40, 41
5, 275563, Note_on_c, 9, 38, 71
5, 275963, Note_on_c, 9, 38, 0
5, 276007, Note_on_c, 9, 40, 0
5, 276011, Note_on_c, 9, 40, 37
5, 276043, Note_on_c, 9, 38, 121
5, 276055, Note_on_c, 9, 44, 102
5, 276227, Note_on_c, 9, 38, 65
5, 276231, Note_on_c, 9, 40, 0
5, 276367, Note_on_c, 9, 38, 0
5, 276491, Note_on_c, 9, 40, 46
5, 276507, Note_on_c, 9, 44, 0
5, 276507, Note_on_c, 9, 38, 0
5, 276523, Note_on_c, 9, 38, 82
5, 276939, Note_on_c, 9, 38, 0
5, 276967, Note_on_c, 9, 40, 0
5, 276971, Note_on_c, 9, 40, 50
5, 277003, Note_on_c, 9, 38, 115
5, 277015, Note_on_c, 9, 44, 107
5, 277191, Note_on_c, 9, 40, 0
5, 277223, Note_on_c, 9, 38, 0
5, 277299, Note_on_c, 9, 38, 60
5, 277411, Note_on_c, 9, 38, 0
5, 277451, Note_on_c, 9, 40, 41
5, 277455, Note_on_c, 9, 44, 0
5, 277483, Note_on_c, 9, 38, 63
5, 277927, Note_on_c, 9, 40, 0
5, 277931, Note_on_c, 9, 40, 37
5, 277963, Note_on_c, 9, 38, 115
5, 277975, Note_on_c, 9, 44, 89
5, 277991, Note_on_c, 9, 38, 0
5, 278363, Note_on_c, 9, 38, 0
5, 278399, Note_on_c, 9, 44, 0
5, 278407, Note_on_c, 9, 40, 0
5, 278411, Note_on_c, 9, 40, 46
5, 278523, Note_on_c, 9, 38, 30
5, 278583, Note_on_c, 9, 38, 0
5, 278603, Note_on_c, 9, 38, 66
5, 278631, Note_on_c, 9, 40, 0
5, 278663, Note_on_c, 9, 38, 0
5, 278683, Note_on_c, 9, 38, 82
5, 278743, Note_on_c, 9, 38, 0
5, 278763, Note_on_c, 9, 39, 120
5, 278823, Note_on_c, 9, 39, 0
5, 278843, Note_on_c, 9, 38, 70
5, 278903, Note_on_c, 9, 38, 0
5, 278923, Note_on_c, 9, 38, 72
5, 278983, Note_on_c, 9, 38, 0
5, 279003, Note_on_c, 9, 38, 66
5, 279083, Note_on_c, 9, 38, 51
5, 279243, Note_on_c, 9, 35, 74
5, 279303, Note_on_c, 9, 35, 0
5, 279319, Note_on_c, 9, 38, 0
5, 279323, Note_on_c, 9, 38, 34
5, 279383, Note_on_c, 9, 38, 0
5, 279399, Note_on_c, 9, 38, 0
5, 279403, Note_on_c, 9, 38, 95
5, 279463, Note_on_c, 9, 38, 0
5, 279483, Note_on_c, 9, 38, 32
5, 279543, Note_on_c, 9, 38, 0
5, 279563, Note_on_c, 9, 39, 110
5, 279623, Note_on_c, 9, 39, 0
5, 279643, Note_on_c, 9, 38, 36
5, 279703, Note_on_c, 9, 38, 0
5, 279723, Note_on_c, 9, 38, 74
5, 279783, Note_on_c, 9, 38, 0
5, 279803, Note_on_c, 9, 38, 23
5, 279863, Note_on_c, 9, 38, 0
5, 279883, Note_on_c, 9, 38, 22
5, 279943, Note_on_c, 9, 38, 0
5, 280043, Note_on_c, 9, 38, 62
5, 280183, Note_on_c, 9, 39, 127
5, 280243, Note_on_c, 9, 39, 0
5, 280331, Note_on_c, 9, 40, 46
5, 280359, Note_on_c, 9, 38, 0
5, 280807, Note_on_c, 9, 40, 0
5, 280811, Note_on_c, 9, 40, 50
5, 280843, Note_on_c, 9, 38, 119
5, 280855, Note_on_c, 9, 44, 127
5, 281031, Note_on_c, 9, 40, 0
5, 281083, Note_on_c, 9, 38, 0
5, 281139, Note_on_c, 9, 38, 56
5, 281235, Note_on_c, 9, 38, 0
5, 281255, Note_on_c, 9, 44, 0
5, 281291, Note_on_c, 9, 40, 41
5, 281323, Note_on_c, 9, 38, 99
5, 281491, Note_on_c, 9, 38, 0
5, 281511, Note_on_c, 9, 40, 0
5, 281771, Note_on_c, 9, 40, 37
5, 281803, Note_on_c, 9, 46, 110
5, 281803, Note_on_c, 9, 38, 117
5, 281991, Note_on_c, 9, 40, 0
5, 282039, Note_on_c, 9, 38, 0
5, 282099, Note_on_c, 9, 38, 52
5, 282167, Note_on_c, 9, 46, 0
5, 282223, Note_on_c, 9, 38, 0
5, 282251, Note_on_c, 9, 40, 46
5, 282283, Note_on_c, 9, 38, 78
5, 282707, Note_on_c, 9, 38, 0
5, 282727, Note_on_c, 9, 40, 0
5, 282731, Note_on_c, 9, 40, 50
5, 282763, Note_on_c, 9, 38, 121
5, 282775, Note_on_c, 9, 44, 114
5, 282951, Note_on_c, 9, 40, 0
5, 282987, Note_on_c, 9, 38, 0
5, 283059, Note_on_c, 9, 38, 55
5, 283135, Note_on_c, 9, 38, 0
5, 283187, Note_on_c, 9, 44, 0
5, 283211, Note_on_c, 9, 40, 41
5, 283243, Note_on_c, 9, 38, 65
5, 283431, Note_on_c, 9, 40, 0
5, 283487, Note_on_c, 9, 38, 0
5, 283539, Note_on_c, 9, 38, 68
5, 283539, Note_on_c, 9, 39, 97
5, 283599, Note_on_c, 9, 38, 0
5, 283627, Note_on_c, 9, 39, 0
5, 283691, Note_on_c, 9, 40, 37
5, 283735, Note_on_c, 9, 44, 115
5, 283911, Note_on_c, 9, 40, 0
5, 284019, Note_on_c, 9, 38, 61
5, 284131, Note_on_c, 9, 38, 0
5, 284163, Note_on_c, 9, 44, 0
5, 284171, Note_on_c, 9, 40, 46
5, 284203, Note_on_c, 9, 38, 73
5, 284591, Note_on_c, 9, 38, 0
5, 284647, Note_on_c, 9, 40, 0
5, 284651, Note_on_c, 9, 40, 50
5, 284683, Note_on_c, 9, 38, 119
5, 284695, Note_on_c, 9, 44, 111
5, 284871, Note_on_c, 9, 40, 0
5, 284883, Note_on_c, 9, 38, 0
5, 284979, Note_on_c, 9, 38, 67
5, 285039, Note_on_c, 9, 44, 0
5, 285083, Note_on_c, 9, 38, 0
5, 285131, Note_on_c, 9, 40, 41
5, 285163, Note_on_c, 9, 38, 62
5, 285307, Note_on_c, 9, 38, 0
5, 285351, Note_on_c, 9, 40, 0
5, 285459, Note_on_c, 9, 38, 76
5, 285611, Note_on_c, 9, 40, 37
5, 285623, Note_on_c, 9, 38, 0
5, 285655, Note_on_c, 9, 44, 126
5, 286067, Note_on_c, 9, 44, 0
5, 286087, Note_on_c, 9, 40, 0
5, 286091, Note_on_c, 9, 40, 46
5, 286123, Note_on_c, 9, 38, 80
5, 286539, Note_on_c, 9, 38, 0
5, 286567, Note_on_c, 9, 40, 0
5, 286571, Note_on_c, 9, 40, 50
5, 286603, Note_on_c, 9, 38, 121
5, 286615, Note_on_c, 9, 44, 114
5, 287035, Note_on_c, 9, 44, 0
5, 287047, Note_on_c, 9, 40, 0
5, 287051, Note_on_c, 9, 40, 41
5, 287083, Note_on_c, 9, 38, 43
5, 287119, Note_on_c, 9, 38, 0
5, 287527, Note_on_c, 9, 40, 0
5, 287531, Note_on_c, 9, 40, 37
5, 287563, Note_on_c, 9, 38, 121
5, 287575, Note_on_c, 9, 44, 111
5, 287679, Note_on_c, 9, 38, 0
5, 287971, Note_on_c, 9, 38, 0
5, 287983, Note_on_c, 9, 44, 0
5, 288007, Note_on_c, 9, 40, 0
5, 288011, Note_on_c, 9, 40, 46
5, 288043, Note_on_c, 9, 35, 110
5, 288043, Note_on_c, 9, 38, 41
5, 288487, Note_on_c, 9, 40, 0
5, 288491, Note_on_c, 9, 40, 50
5, 288523, Note_on_c, 9, 38, 111
5, 288535, Note_on_c, 9, 44, 119
5, 288559, Note_on_c, 9, 35, 0
5, 288603, Note_on_c, 9, 38, 0
5, 288711, Note_on_c, 9, 38, 0
5, 288711, Note_on_c, 9, 40, 0
5, 288819, Note_on_c, 9, 38, 95
5, 288899, Note_on_c, 9, 38, 0
5, 288959, Note_on_c, 9, 44, 0
5, 288971, Note_on_c, 9, 40, 41
5, 289003, Note_on_c, 9, 38, 81
5, 289399, Note_on_c, 9, 38, 0
5, 289447, Note_on_c, 9, 40, 0
5, 289451, Note_on_c, 9, 40, 37
5, 289483, Note_on_c, 9, 38, 105
5, 289495, Note_on_c, 9, 44, 123
5, 289647, Note_on_c, 9, 38, 0
5, 289671, Note_on_c, 9, 40, 0
5, 289779, Note_on_c, 9, 38, 69
5, 289855, Note_on_c, 9, 38, 0
5, 289907, Note_on_c, 9, 44, 0
5, 289931, Note_on_c, 9, 40, 46
5, 289963, Note_on_c, 9, 38, 69
5, 290335, Note_on_c, 9, 38, 0
5, 290407, Note_on_c, 9, 40, 0
5, 290411, Note_on_c, 9, 40, 50
5, 290443, Note_on_c, 9, 38, 101
5, 290455, Note_on_c, 9, 44, 111
5, 290631, Note_on_c, 9, 38, 0
5, 290631, Note_on_c, 9, 40, 0
5, 290739, Note_on_c, 9, 38, 105
5, 290843, Note_on_c, 9, 38, 0
5, 290851, Note_on_c, 9, 44, 0
5, 290891, Note_on_c, 9, 40, 41
5, 290923, Note_on_c, 9, 38, 87
5, 291311, Note_on_c, 9, 38, 0
5, 291367, Note_on_c, 9, 40, 0
5, 291371, Note_on_c, 9, 40, 37
5, 291403, Note_on_c, 9, 38, 97
5, 291415, Note_on_c, 9, 44, 114
5, 291583, Note_on_c, 9, 38, 0
5, 291591, Note_on_c, 9, 40, 0
5, 291699, Note_on_c, 9, 38, 105
5, 291803, Note_on_c, 9, 44, 0
5, 291811, Note_on_c, 9, 38, 0
5, 291851, Note_on_c, 9, 40, 46
5, 291883, Note_on_c, 9, 38, 61
5, 292327, Note_on_c, 9, 40, 0
5, 292331, Note_on_c, 9, 40, 50
5, 292339, Note_on_c, 9, 38, 0
5, 292363, Note_on_c, 9, 38, 121
5, 292375, Note_on_c, 9, 44, 120
5, 292779, Note_on_c, 9, 44, 0
5, 292807, Note_on_c, 9, 40, 0
5, 292811, Note_on_c, 9, 40, 41
5, 292843, Note_on_c, 9, 38, 71
5, 292899, Note_on_c, 9, 38, 0
5, 293031, Note_on_c, 9, 40, 0
5, 293043, Note_on_c, 9, 38, 0
5, 293139, Note_on_c, 9, 38, 105
5, 293243, Note_on_c, 9, 38, 0
5, 293291, Note_on_c, 9, 40, 37
5, 293335, Note_on_c, 9, 44, 127
5, 293723, Note_on_c, 9, 44, 0
5, 293767, Note_on_c, 9, 40, 0
5, 293771, Note_on_c, 9, 40, 46
5, 293803, Note_on_c, 9, 38, 73
5, 293991, Note_on_c, 9, 40, 0
5, 293999, Note_on_c, 9, 38, 0
5, 294099, Note_on_c, 9, 39, 117
5, 294203, Note_on_c, 9, 39, 0
5, 294251, Note_on_c, 9, 40, 50
5, 294283, Note_on_c, 9, 38, 50
5, 294295, Note_on_c, 9, 44, 96
5, 294727, Note_on_c, 9, 40, 0
5, 294731, Note_on_c, 9, 40, 41
5, 294763, Note_on_c, 9, 38, 85
5, 294799, Note_on_c, 9, 38, 0
5, 294879, Note_on_c, 9, 44, 0
5, 294919, Note_on_c, 9, 38, 0
5, 294951, Note_on_c, 9, 40, 0
5, 295059, Note_on_c, 9, 39, 115
5, 295163, Note_on_c, 9, 39, 0
5, 295211, Note_on_c, 9, 40, 37
5, 295243, Note_on_c, 9, 46, 85
5, 295431, Note_on_c, 9, 40, 0
5, 295539, Note_on_c, 9, 38, 92
5, 295607, Note_on_c, 9, 46, 0
5, 295619, Note_on_c, 9, 38, 0
5, 295691, Note_on_c, 9, 40, 46
5, 295723, Note_on_c, 9, 53, 80
5, 295723, Note_on_c, 9, 35, 110
5, 295735, Note_on_c, 9, 44, 76
5, 296079, Note_on_c, 9, 53, 0
5, 296167, Note_on_c, 9, 40, 0
5, 296171, Note_on_c, 9, 40, 50
5, 296203, Note_on_c, 9, 38, 107
5, 296215, Note_on_c, 9, 44, 127
5, 296239, Note_on_c, 9, 35, 0
5, 296299, Note_on_c, 9, 44, 0
5, 296599, Note_on_c, 9, 44, 0
5, 296647, Note_on_c, 9, 40, 0
5, 296651, Note_on_c, 9, 40, 41
5, 296683, Note_on_c, 9, 38, 67
5, 296763, Note_on_c, 9, 38, 0
5, 297123, Note_on_c, 9, 38, 0
5, 297127, Note_on_c, 9, 40, 0
5, 297131, Note_on_c, 9, 40, 37
5, 297163, Note_on_c, 9, 38, 113
5, 297175, Note_on_c, 9, 44, 127
5, 297351, Note_on_c, 9, 40, 0
5, 297391, Note_on_c, 9, 38, 0
5, 297459, Note_on_c, 9, 38, 86
5, 297559, Note_on_c, 9, 38, 0
5, 297595, Note_on_c, 9, 44, 0
5, 297611, Note_on_c, 9, 40, 46
5, 297643, Note_on_c, 9, 38, 83
5, 298087, Note_on_c, 9, 40, 0
5, 298091, Note_on_c, 9, 40, 50
5, 298123, Note_on_c, 9, 38, 113
5, 298135, Note_on_c, 9, 44, 102
5, 298143, Note_on_c, 9, 38, 0
5, 298563, Note_on_c, 9, 44, 0
5, 298567, Note_on_c, 9, 40, 0
5, 298571, Note_on_c, 9, 40, 41
5, 298603, Note_on_c, 9, 38, 63
5, 298727, Note_on_c, 9, 38, 0
5, 298903, Note_on_c, 9, 39, 110
5, 299011, Note_on_c, 9, 39, 0
5, 299011, Note_on_c, 9, 38, 0
5, 299047, Note_on_c, 9, 40, 0
5, 299051, Note_on_c, 9, 40, 37
5, 299083, Note_on_c, 9, 38, 113
5, 299095, Note_on_c, 9, 44, 126
5, 299271, Note_on_c, 9, 40, 0
5, 299303, Note_on_c, 9, 38, 0
5, 299379, Note_on_c, 9, 38, 77
5, 299467, Note_on_c, 9, 38, 0
5, 299507, Note_on_c, 9, 44, 0
5, 299531, Note_on_c, 9, 40, 46
5, 299563, Note_on_c, 9, 38, 69
5, 299927, Note_on_c, 9, 38, 0
5, 300007, Note_on_c, 9, 40, 0
5, 300011, Note_on_c, 9, 40, 50
5, 300043, Note_on_c, 9, 38, 111
5, 300055, Note_on_c, 9, 44, 113
5, 300459, Note_on_c, 9, 38, 0
5, 300475, Note_on_c, 9, 44, 0
5, 300487, Note_on_c, 9, 40, 0
5, 300491, Note_on_c, 9, 40, 41
5, 300523, Note_on_c, 9, 38, 71
5, 300931, Note_on_c, 9, 38, 0
5, 300967, Note_on_c, 9, 40, 0
5, 300971, Note_on_c, 9, 40, 37
5, 301003, Note_on_c, 9, 38, 95
5, 301015, Note_on_c, 9, 44, 113
5, 301191, Note_on_c, 9, 40, 0
5, 301239, Note_on_c, 9, 38, 0
5, 301299, Note_on_c, 9, 38, 107
5, 301387, Note_on_c, 9, 38, 0
5, 301435, Note_on_c, 9, 44, 0
5, 301451, Note_on_c, 9, 40, 46
5, 301483, Note_on_c, 9, 38, 93
5, 301895, Note_on_c, 9, 38, 0
5, 301927, Note_on_c, 9, 40, 0
5, 301931, Note_on_c, 9, 40, 50
5, 301963, Note_on_c, 9, 38, 99
5, 301975, Note_on_c, 9, 44, 118
5, 302139, Note_on_c, 9, 38, 0
5, 302151, Note_on_c, 9, 40, 0
5, 302259, Note_on_c, 9, 38, 89
5, 302335, Note_on_c, 9, 38, 0
5, 302383, Note_on_c, 9, 44, 0
5, 302411, Note_on_c, 9, 40, 41
5, 302443, Note_on_c, 9, 38, 73
5, 302887, Note_on_c, 9, 40, 0
5, 302891, Note_on_c, 9, 40, 37
5, 302923, Note_on_c, 9, 38, 97
5, 302927, Note_on_c, 9, 38, 0
5, 302935, Note_on_c, 9, 44, 119
5, 303087, Note_on_c, 9, 44, 0
5, 303111, Note_on_c, 9, 40, 0
5, 303127, Note_on_c, 9, 38, 0
5, 303219, Note_on_c, 9, 39, 120
5, 303315, Note_on_c, 9, 39, 0
5, 303371, Note_on_c, 9, 40, 46
5, 303403, Note_on_c, 9, 38, 45
5, 303767, Note_on_c, 9, 38, 0
5, 303847, Note_on_c, 9, 40, 0
5, 303851, Note_on_c, 9, 40, 50
5, 303883, Note_on_c, 9, 38, 107
5, 303895, Note_on_c, 9, 44, 123
5, 304263, Note_on_c, 9, 44, 0
5, 304307, Note_on_c, 9, 38, 0
5, 304327, Note_on_c, 9, 40, 0
5, 304331, Note_on_c, 9, 40, 41
5, 304363, Note_on_c, 9, 38, 64
5, 304807, Note_on_c, 9, 40, 0
5, 304811, Note_on_c, 9, 40, 37
5, 304843, Note_on_c, 9, 38, 111
5, 304855, Note_on_c, 9, 38, 0
5, 304855, Note_on_c, 9, 44, 118
5, 305031, Note_on_c, 9, 40, 0
5, 305063, Note_on_c, 9, 38, 0
5, 305139, Note_on_c, 9, 38, 68
5, 305239, Note_on_c, 9, 38, 0
5, 305243, Note_on_c, 9, 44, 0
5, 305291, Note_on_c, 9, 40, 46
5, 305323, Note_on_c, 9, 38, 71
5, 305759, Note_on_c, 9, 38, 0
5, 305767, Note_on_c, 9, 40, 0
5, 305771, Note_on_c, 9, 40, 50
5, 305803, Note_on_c, 9, 38, 117
5, 305815, Note_on_c, 9, 44, 115
5, 306227, Note_on_c, 9, 44, 0
5, 306247, Note_on_c, 9, 40, 0
5, 306251, Note_on_c, 9, 40, 41
5, 306283, Note_on_c, 9, 38, 63
5, 306299, Note_on_c, 9, 38, 0
5, 306727, Note_on_c, 9, 40, 0
5, 306731, Note_on_c, 9, 40, 37
5, 306763, Note_on_c, 9, 38, 107
5, 306767, Note_on_c, 9, 38, 0
5, 306775, Note_on_c, 9, 44, 127
5, 306951, Note_on_c, 9, 40, 0
5, 306983, Note_on_c, 9, 38, 0
5, 307059, Note_on_c, 9, 38, 87
5, 307147, Note_on_c, 9, 38, 0
5, 307179, Note_on_c, 9, 44, 0
5, 307211, Note_on_c, 9, 40, 46
5, 307243, Note_on_c, 9, 38, 75
5, 307543, Note_on_c, 9, 39, 110
5, 307623, Note_on_c, 9, 38, 0
5, 307651, Note_on_c, 9, 39, 0
5, 307687, Note_on_c, 9, 40, 0
5, 307691, Note_on_c, 9, 40, 50
5, 307723, Note_on_c, 9, 38, 111
5, 307735, Note_on_c, 9, 44, 123
5, 308131, Note_on_c, 9, 44, 0
5, 308135, Note_on_c, 9, 38, 0
5, 308167, Note_on_c, 9, 40, 0
5, 308171, Note_on_c, 9, 40, 41
5, 308203, Note_on_c, 9, 35, 110
5, 308567, Note_on_c, 9, 35, 0
5, 308647, Note_on_c, 9, 40, 0
5, 308651, Note_on_c, 9, 40, 37
5, 308683, Note_on_c, 9, 38, 119
5, 308695, Note_on_c, 9, 44, 115
5, 308871, Note_on_c, 9, 40, 0
5, 308907, Note_on_c, 9, 38, 0
5, 308979, Note_on_c, 9, 38, 68
5, 308983, Note_on_c, 9, 35, 90
5, 309031, Note_on_c, 9, 38, 0
5, 309083, Note_on_c, 9, 44, 0
5, 309091, Note_on_c, 9, 35, 0
5, 309131, Note_on_c, 9, 40, 46
5, 309607, Note_on_c, 9, 40, 0
5, 309611, Note_on_c, 9, 40, 50
5, 309655, Note_on_c, 9, 44, 127
5, 309943, Note_on_c, 9, 39, 110
5, 310051, Note_on_c, 9, 39, 0
5, 310055, Note_on_c, 9, 44, 0
5, 310087, Note_on_c, 9, 40, 0
5, 310091, Note_on_c, 9, 40, 41
5, 310423, Note_on_c, 9, 39, 110
5, 310531, Note_on_c, 9, 39, 0
5, 310567, Note_on_c, 9, 40, 0
5, 310571, Note_on_c, 9, 40, 37
5, 310615, Note_on_c, 9, 44, 123
5, 310743, Note_on_c, 9, 44, 0
5, 311047, Note_on_c, 9, 40, 0
5, 311084, Note_on_c, 9, 40, 54
5, 311094, Note_on_c, 9, 42, 10
5, 311094, Note_on_c, 9, 38, 54
5, 311192, Note_on_c, 9, 40, 0
5, 311202, Note_on_c, 9, 38, 0
5, 311202, Note_on_c, 9, 42, 0
5, 311542, Note_on_c, 9, 40, 50
5, 311574, Note_on_c, 9, 38, 103
5, 311586, Note_on_c, 9, 44, 126
5, 311762, Note_on_c, 9, 44, 0
5, 311834, Note_on_c, 9, 38, 0
5, 311870, Note_on_c, 9, 38, 49
5, 311970, Note_on_c, 9, 38, 0
5, 312018, Note_on_c, 9, 40, 0
5, 312052, Note_on_c, 9, 40, 41
5, 312054, Note_on_c, 9, 38, 67
5, 312294, Note_on_c, 9, 38, 0
5, 312502, Note_on_c, 9, 40, 37
5, 312528, Note_on_c, 9, 40, 0
5, 312534, Note_on_c, 9, 38, 107
5, 312546, Note_on_c, 9, 44, 105
5, 312734, Note_on_c, 9, 44, 0
5, 312810, Note_on_c, 9, 38, 0
5, 312830, Note_on_c, 9, 38, 49
5, 312882, Note_on_c, 9, 38, 0
5, 312978, Note_on_c, 9, 40, 0
5, 312982, Note_on_c, 9, 40, 46
5, 313014, Note_on_c, 9, 38, 72
5, 313242, Note_on_c, 9, 38, 0
5, 313458, Note_on_c, 9, 40, 0
5, 313462, Note_on_c, 9, 40, 50
5, 313494, Note_on_c, 9, 38, 105
5, 313506, Note_on_c, 9, 44, 107
5, 313678, Note_on_c, 9, 44, 0
5, 313758, Note_on_c, 9, 38, 0
5, 313790, Note_on_c, 9, 38, 45
5, 313854, Note_on_c, 9, 38, 0
5, 313938, Note_on_c, 9, 40, 0
5, 313942, Note_on_c, 9, 40, 41
5, 313974, Note_on_c, 9, 38, 72
5, 314194, Note_on_c, 9, 38, 0
5, 314274, Note_on_c, 9, 39, 110
5, 314382, Note_on_c, 9, 39, 0
5, 314418, Note_on_c, 9, 40, 0
5, 314422, Note_on_c, 9, 40, 37
5, 314454, Note_on_c, 9, 38, 109
5, 314466, Note_on_c, 9, 44, 114
5, 314670, Note_on_c, 9, 38, 0
5, 314674, Note_on_c, 9, 44, 0
5, 314750, Note_on_c, 9, 38, 63
5, 314846, Note_on_c, 9, 38, 0
5, 314898, Note_on_c, 9, 40, 0
5, 314902, Note_on_c, 9, 40, 46
5, 314934, Note_on_c, 9, 38, 71
5, 315090, Note_on_c, 9, 38, 0
5, 315378, Note_on_c, 9, 40, 0
5, 315382, Note_on_c, 9, 40, 50
5, 315414, Note_on_c, 9, 38, 113
5, 315426, Note_on_c, 9, 44, 113
5, 315618, Note_on_c, 9, 44, 0
5, 315822, Note_on_c, 9, 38, 0
5, 315858, Note_on_c, 9, 40, 0
5, 315862, Note_on_c, 9, 40, 41
5, 315894, Note_on_c, 9, 38, 57
5, 316038, Note_on_c, 9, 38, 0
5, 316338, Note_on_c, 9, 40, 0
5, 316342, Note_on_c, 9, 40, 37
5, 316374, Note_on_c, 9, 38, 109
5, 316386, Note_on_c, 9, 44, 110
5, 316562, Note_on_c, 9, 44, 0
5, 316662, Note_on_c, 9, 38, 0
5, 316670, Note_on_c, 9, 38, 56
5, 316730, Note_on_c, 9, 38, 0
5, 316818, Note_on_c, 9, 40, 0
5, 316822, Note_on_c, 9, 40, 46
5, 316854, Note_on_c, 9, 38, 55
5, 317294, Note_on_c, 9, 38, 0
5, 317298, Note_on_c, 9, 40, 0
5, 317302, Note_on_c, 9, 40, 50
5, 317334, Note_on_c, 9, 38, 97
5, 317346, Note_on_c, 9, 44, 115
5, 317522, Note_on_c, 9, 40, 0
5, 317558, Note_on_c, 9, 38, 0
5, 317630, Note_on_c, 9, 39, 113
5, 317750, Note_on_c, 9, 39, 0
5, 317774, Note_on_c, 9, 44, 0
5, 317782, Note_on_c, 9, 40, 41
5, 317814, Note_on_c, 9, 38, 81
5, 318258, Note_on_c, 9, 40, 0
5, 318262, Note_on_c, 9, 40, 37
5, 318294, Note_on_c, 9, 38, 103
5, 318306, Note_on_c, 9, 44, 115
5, 318374, Note_on_c, 9, 38, 0
5, 318482, Note_on_c, 9, 40, 0
5, 318530, Note_on_c, 9, 38, 0
5, 318590, Note_on_c, 9, 38, 55
5, 318710, Note_on_c, 9, 44, 0
5, 318742, Note_on_c, 9, 40, 46
5, 318774, Note_on_c, 9, 38, 0
5, 318774, Note_on_c, 9, 38, 63
5, 319218, Note_on_c, 9, 40, 0
5, 319222, Note_on_c, 9, 40, 50
5, 319254, Note_on_c, 9, 38, 117
5, 319266, Note_on_c, 9, 44, 114
5, 319274, Note_on_c, 9, 38, 0
5, 319442, Note_on_c, 9, 40, 0
5, 319510, Note_on_c, 9, 38, 0
5, 319550, Note_on_c, 9, 38, 50
5, 319638, Note_on_c, 9, 38, 0
5, 319686, Note_on_c, 9, 44, 0
5, 319702, Note_on_c, 9, 40, 41
5, 319734, Note_on_c, 9, 38, 62
5, 320178, Note_on_c, 9, 40, 0
5, 320182, Note_on_c, 9, 40, 37
5, 320214, Note_on_c, 9, 38, 105
5, 320226, Note_on_c, 9, 44, 110
5, 320278, Note_on_c, 9, 38, 0
5, 320402, Note_on_c, 9, 40, 0
5, 320486, Note_on_c, 9, 38, 0
5, 320510, Note_on_c, 9, 38, 36
5, 320634, Note_on_c, 9, 44, 0
5, 320662, Note_on_c, 9, 40, 46
5, 320694, Note_on_c, 9, 38, 0
5, 320694, Note_on_c, 9, 38, 69
5, 321138, Note_on_c, 9, 40, 0
5, 321142, Note_on_c, 9, 40, 50
5, 321174, Note_on_c, 9, 38, 93
5, 321186, Note_on_c, 9, 38, 0
5, 321186, Note_on_c, 9, 44, 110
5, 321362, Note_on_c, 9, 40, 0
5, 321402, Note_on_c, 9, 38, 0
5, 321470, Note_on_c, 9, 38, 63
5, 321550, Note_on_c, 9, 38, 0
5, 321606, Note_on_c, 9, 44, 0
5, 321622, Note_on_c, 9, 40, 41
5, 321654, Note_on_c, 9, 38, 64
5, 322098, Note_on_c, 9, 40, 0
5, 322102, Note_on_c, 9, 40, 37
5, 322134, Note_on_c, 9, 38, 107
5, 322146, Note_on_c, 9, 44, 110
5, 322182, Note_on_c, 9, 38, 0
5, 322322, Note_on_c, 9, 40, 0
5, 322386, Note_on_c, 9, 38, 0
5, 322430, Note_on_c, 9, 38, 54
5, 322510, Note_on_c, 9, 38, 0
5, 322558, Note_on_c, 9, 44, 0
5, 322582, Note_on_c, 9, 40, 46
5, 322614, Note_on_c, 9, 38, 71
5, 323058, Note_on_c, 9, 40, 0
5, 323062, Note_on_c, 9, 40, 50
5, 323094, Note_on_c, 9, 38, 109
5, 323106, Note_on_c, 9, 44, 107
5, 323122, Note_on_c, 9, 38, 0
5, 323282, Note_on_c, 9, 40, 0
5, 323346, Note_on_c, 9, 38, 0
5, 323390, Note_on_c, 9, 38, 52
5, 323494, Note_on_c, 9, 38, 0
5, 323514, Note_on_c, 9, 44, 0
5, 323542, Note_on_c, 9, 40, 41
5, 323574, Note_on_c, 9, 38, 66
5, 324018, Note_on_c, 9, 40, 0
5, 324022, Note_on_c, 9, 40, 37
5, 324026, Note_on_c, 9, 38, 0
5, 324054, Note_on_c, 9, 38, 101
5, 324066, Note_on_c, 9, 44, 110
5, 324242, Note_on_c, 9, 40, 0
5, 324290, Note_on_c, 9, 38, 0
5, 324350, Note_on_c, 9, 39, 82
5, 324438, Note_on_c, 9, 39, 0
5, 324490, Note_on_c, 9, 44, 0
5, 324502, Note_on_c, 9, 40, 46
5, 324534, Note_on_c, 9, 38, 70
5, 324978, Note_on_c, 9, 40, 0
5, 324982, Note_on_c, 9, 40, 50
5, 325014, Note_on_c, 9, 38, 103
5, 325026, Note_on_c, 9, 44, 106
5, 325106, Note_on_c, 9, 38, 0
5, 325454, Note_on_c, 9, 44, 0
5, 325458, Note_on_c, 9, 40, 0
5, 325462, Note_on_c, 9, 40, 41
5, 325494, Note_on_c, 9, 38, 69
5, 325498, Note_on_c, 9, 38, 0
5, 325746, Note_on_c, 9, 38, 0
5, 325794, Note_on_c, 9, 39, 120
5, 325938, Note_on_c, 9, 40, 0
5, 325974, Note_on_c, 9, 38, 63
5, 325986, Note_on_c, 9, 44, 104
5, 326014, Note_on_c, 9, 39, 0
5, 326218, Note_on_c, 9, 38, 0
5, 326274, Note_on_c, 9, 35, 100
5, 326382, Note_on_c, 9, 35, 0
5, 326414, Note_on_c, 9, 44, 0
5, 326422, Note_on_c, 9, 40, 46
5, 326614, Note_on_c, 9, 39, 60
5, 326642, Note_on_c, 9, 40, 0
5, 326770, Note_on_c, 9, 35, 70
5, 326826, Note_on_c, 9, 39, 0
5, 326878, Note_on_c, 9, 35, 0
5, 326902, Note_on_c, 9, 40, 50
5, 326946, Note_on_c, 9, 44, 102
5, 327366, Note_on_c, 9, 44, 0
5, 327378, Note_on_c, 9, 40, 0
5, 327382, Note_on_c, 9, 40, 41
5, 327414, Note_on_c, 9, 38, 66
5, 327830, Note_on_c, 9, 38, 0
5, 327858, Note_on_c, 9, 40, 0
5, 327862, Note_on_c, 9, 40, 37
5, 327894, Note_on_c, 9, 38, 119
5, 327906, Note_on_c, 9, 44, 89
5, 328338, Note_on_c, 9, 40, 0
5, 328342, Note_on_c, 9, 40, 46
5, 328350, Note_on_c, 9, 44, 0
5, 328374, Note_on_c, 9, 38, 0
5, 328374, Note_on_c, 9, 38, 66
5, 328810, Note_on_c, 9, 38, 0
5, 328818, Note_on_c, 9, 40, 0
5, 328822, Note_on_c, 9, 40, 50
5, 328854, Note_on_c, 9, 38, 115
5, 328866, Note_on_c, 9, 44, 100
5, 329042, Note_on_c, 9, 40, 0
5, 329090, Note_on_c, 9, 38, 0
5, 329150, Note_on_c, 9, 38, 59
5, 329226, Note_on_c, 9, 38, 0
5, 329294, Note_on_c, 9, 44, 0
5, 329302, Note_on_c, 9, 40, 41
5, 329334, Note_on_c, 9, 38, 73
5, 329778, Note_on_c, 9, 40, 0
5, 329782, Note_on_c, 9, 40, 37
5, 329814, Note_on_c, 9, 38, 117
5, 329826, Note_on_c, 9, 44, 89
5, 329842, Note_on_c, 9, 38, 0
5, 329998, Note_on_c, 9, 44, 0
5, 330002, Note_on_c, 9, 40, 0
5, 330030, Note_on_c, 9, 38, 0
5, 330054, Note_on_c, 9, 46, 65
5, 330110, Note_on_c, 9, 38, 64
5, 330214, Note_on_c, 9, 38, 0
5, 330262, Note_on_c, 9, 40, 46
5, 330294, Note_on_c, 9, 46, 0
5, 330294, Note_on_c, 9, 38, 50
5, 330738, Note_on_c, 9, 40, 0
5, 330742, Note_on_c, 9, 40, 50
5, 330774, Note_on_c, 9, 38, 111
5, 330786, Note_on_c, 9, 44, 106
5, 330814, Note_on_c, 9, 38, 0
5, 330962, Note_on_c, 9, 40, 0
5, 331054, Note_on_c, 9, 38, 0
5, 331070, Note_on_c, 9, 38, 52
5, 331146, Note_on_c, 9, 38, 0
5, 331218, Note_on_c, 9, 44, 0
5, 331222, Note_on_c, 9, 40, 41
5, 331254, Note_on_c, 9, 38, 55
5, 331698, Note_on_c, 9, 40, 0
5, 331702, Note_on_c, 9, 40, 37
5, 331726, Note_on_c, 9, 38, 0
5, 331734, Note_on_c, 9, 38, 113
5, 331746, Note_on_c, 9, 44, 107
5, 331922, Note_on_c, 9, 40, 0
5, 332014, Note_on_c, 9, 38, 0
5, 332030, Note_on_c, 9, 38, 44
5, 332110, Note_on_c, 9, 38, 0
5, 332182, Note_on_c, 9, 40, 46
5, 332186, Note_on_c, 9, 44, 0
5, 332214, Note_on_c, 9, 38, 66
5, 332630, Note_on_c, 9, 38, 0
5, 332658, Note_on_c, 9, 40, 0
5, 332662, Note_on_c, 9, 40, 50
5, 332694, Note_on_c, 9, 38, 109
5, 332706, Note_on_c, 9, 44, 111
5, 333030, Note_on_c, 9, 35, 74
5, 333098, Note_on_c, 9, 38, 0
5, 333130, Note_on_c, 9, 44, 0
5, 333138, Note_on_c, 9, 40, 0
5, 333138, Note_on_c, 9, 35, 0
5, 333142, Note_on_c, 9, 40, 41
5, 333174, Note_on_c, 9, 38, 62
5, 333186, Note_on_c, 9, 44, 91
5, 333338, Note_on_c, 9, 44, 0
5, 333362, Note_on_c, 9, 40, 0
5, 333390, Note_on_c, 9, 38, 0
5, 333414, Note_on_c, 9, 46, 90
5, 333470, Note_on_c, 9, 39, 117
5, 333610, Note_on_c, 9, 39, 0
5, 333622, Note_on_c, 9, 40, 37
5, 333654, Note_on_c, 9, 38, 57
5, 333774, Note_on_c, 9, 46, 0
5, 333954, Note_on_c, 9, 39, 110
5, 333954, Note_on_c, 9, 35, 110
5, 333982, Note_on_c, 9, 38, 0
5, 334062, Note_on_c, 9, 35, 0
5, 334098, Note_on_c, 9, 40, 0
5, 334102, Note_on_c, 9, 40, 46
5, 334134, Note_on_c, 9, 39, 0
5, 334134, Note_on_c, 9, 38, 80
5, 334578, Note_on_c, 9, 40, 0
5, 334582, Note_on_c, 9, 40, 50
5, 334614, Note_on_c, 9, 38, 113
5, 334626, Note_on_c, 9, 44, 127
5, 334654, Note_on_c, 9, 38, 0
5, 334802, Note_on_c, 9, 40, 0
5, 334894, Note_on_c, 9, 38, 0
5, 334910, Note_on_c, 9, 38, 50
5, 334998, Note_on_c, 9, 38, 0
5, 335022, Note_on_c, 9, 44, 0
5, 335062, Note_on_c, 9, 40, 41
5, 335094, Note_on_c, 9, 38, 52
5, 335538, Note_on_c, 9, 40, 0
5, 335542, Note_on_c, 9, 40, 37
5, 335550, Note_on_c, 9, 38, 0
5, 335574, Note_on_c, 9, 38, 117
5, 335586, Note_on_c, 9, 44, 107
5, 335762, Note_on_c, 9, 40, 0
5, 335854, Note_on_c, 9, 38, 0
5, 335870, Note_on_c, 9, 38, 41
5, 335930, Note_on_c, 9, 38, 0
5, 336018, Note_on_c, 9, 44, 0
5, 336022, Note_on_c, 9, 40, 46
5, 336054, Note_on_c, 9, 38, 67
5, 336486, Note_on_c, 9, 38, 0
5, 336498, Note_on_c, 9, 40, 0
5, 336502, Note_on_c, 9, 40, 50
5, 336534, Note_on_c, 9, 38, 115
5, 336546, Note_on_c, 9, 44, 98
5, 336722, Note_on_c, 9, 40, 0
5, 336778, Note_on_c, 9, 38, 0
5, 336830, Note_on_c, 9, 38, 50
5, 336930, Note_on_c, 9, 38, 0
5, 336978, Note_on_c, 9, 44, 0
5, 336982, Note_on_c, 9, 40, 41
5, 337014, Note_on_c, 9, 38, 71
5, 337414, Note_on_c, 9, 38, 0
5, 337458, Note_on_c, 9, 40, 0
5, 337462, Note_on_c, 9, 40, 37
5, 337494, Note_on_c, 9, 38, 121
5, 337506, Note_on_c, 9, 44, 102
5, 337678, Note_on_c, 9, 38, 65
5, 337682, Note_on_c, 9, 40, 0
5, 337818, Note_on_c, 9, 38, 0
5, 337942, Note_on_c, 9, 40, 46
5, 337958, Note_on_c, 9, 44, 0
5, 337958, Note_on_c, 9, 38, 0
5, 337974, Note_on_c, 9, 38, 82
5, 338390, Note_on_c, 9, 38, 0
5, 338418, Note_on_c, 9, 40, 0
5, 338422, Note_on_c, 9, 40, 50
5, 338454, Note_on_c, 9, 38, 115
5, 338466, Note_on_c, 9, 44, 107
5, 338642, Note_on_c, 9, 40, 0
5, 338674, Note_on_c, 9, 38, 0
5, 338750, Note_on_c, 9, 38, 60
5, 338862, Note_on_c, 9, 38, 0
5, 338902, Note_on_c, 9, 40, 41
5, 338906, Note_on_c, 9, 44, 0
5, 338934, Note_on_c, 9, 38, 63
5, 339378, Note_on_c, 9, 40, 0
5, 339382, Note_on_c, 9, 40, 37
5, 339414, Note_on_c, 9, 38, 115
5, 339426, Note_on_c, 9, 44, 89
5, 339442, Note_on_c, 9, 38, 0
5, 339814, Note_on_c, 9, 38, 0
5, 339850, Note_on_c, 9, 44, 0
5, 339858, Note_on_c, 9, 40, 0
5, 339862, Note_on_c, 9, 40, 46
5, 339974, Note_on_c, 9, 38, 30
5, 340034, Note_on_c, 9, 38, 0
5, 340054, Note_on_c, 9, 38, 66
5, 340082, Note_on_c, 9, 40, 0
5, 340114, Note_on_c, 9, 38, 0
5, 340134, Note_on_c, 9, 38, 82
5, 340194, Note_on_c, 9, 38, 0
5, 340214, Note_on_c, 9, 39, 120
5, 340274, Note_on_c, 9, 39, 0
5, 340294, Note_on_c, 9, 38, 70
5, 340354, Note_on_c, 9, 38, 0
5, 340374, Note_on_c, 9, 38, 72
5, 340434, Note_on_c, 9, 38, 0
5, 340454, Note_on_c, 9, 38, 66
5, 340534, Note_on_c, 9, 38, 51
5, 340694, Note_on_c, 9, 35, 74
5, 340754, Note_on_c, 9, 35, 0
5, 340770, Note_on_c, 9, 38, 0
5, 340774, Note_on_c, 9, 38, 34
5, 340834, Note_on_c, 9, 38, 0
5, 340850, Note_on_c, 9, 38, 0
5, 340854, Note_on_c, 9, 38, 95
5, 340914, Note_on_c, 9, 38, 0
5, 340934, Note_on_c, 9, 38, 32
5, 340994, Note_on_c, 9, 38, 0
5, 341014, Note_on_c, 9, 39, 110
5, 341074, Note_on_c, 9, 39, 0
5, 341094, Note_on_c, 9, 38, 36
5, 341154, Note_on_c, 9, 38, 0
5, 341174, Note_on_c, 9, 38, 74
5, 341234, Note_on_c, 9, 38, 0
5, 341254, Note_on_c, 9, 38, 23
5, 341314, Note_on_c, 9, 38, 0
5, 341334, Note_on_c, 9, 38, 22
5, 341394, Note_on_c, 9, 38, 0
5, 341494, Note_on_c, 9, 38, 62
5, 341634, Note_on_c, 9, 39, 127
5, 341694, Note_on_c, 9, 39, 0
5, 341782, Note_on_c, 9, 40, 46
5, 341810, Note_on_c, 9, 38, 0
5, 342258, Note_on_c, 9, 40, 0
5, 342262, Note_on_c, 9, 40, 50
5, 342294, Note_on_c, 9, 38, 119
5, 342306, Note_on_c, 9, 44, 127
5, 342482, Note_on_c, 9, 40, 0
5, 342534, Note_on_c, 9, 38, 0
5, 342590, Note_on_c, 9, 38, 56
5, 342686, Note_on_c, 9, 38, 0
5, 342706, Note_on_c, 9, 44, 0
5, 342742, Note_on_c, 9, 40, 41
5, 342774, Note_on_c, 9, 38, 99
5, 342942, Note_on_c, 9, 38, 0
5, 342962, Note_on_c, 9, 40, 0
5, 343222, Note_on_c, 9, 40, 37
5, 343254, Note_on_c, 9, 46, 110
5, 343254, Note_on_c, 9, 38, 117
5, 343442, Note_on_c, 9, 40, 0
5, 343490, Note_on_c, 9, 38, 0
5, 343550, Note_on_c, 9, 38, 52
5, 343618, Note_on_c, 9, 46, 0
5, 343674, Note_on_c, 9, 38, 0
5, 343702, Note_on_c, 9, 40, 46
5, 343734, Note_on_c, 9, 38, 78
5, 344158, Note_on_c, 9, 38, 0
5, 344178, Note_on_c, 9, 40, 0
5, 344182, Note_on_c, 9, 40, 50
5, 344214, Note_on_c, 9, 38, 121
5, 344226, Note_on_c, 9, 44, 114
5, 344402, Note_on_c, 9, 40, 0
5, 344438, Note_on_c, 9, 38, 0
5, 344510, Note_on_c, 9, 38, 55
5, 344586, Note_on_c, 9, 38, 0
5, 344638, Note_on_c, 9, 44, 0
5, 344662, Note_on_c, 9, 40, 41
5, 344694, Note_on_c, 9, 38, 65
5, 344882, Note_on_c, 9, 40, 0
5, 344938, Note_on_c, 9, 38, 0
5, 344990, Note_on_c, 9, 38, 68
5, 344990, Note_on_c, 9, 39, 97
5, 345050, Note_on_c, 9, 38, 0
5, 345078, Note_on_c, 9, 39, 0
5, 345142, Note_on_c, 9, 40, 37
5, 345186, Note_on_c, 9, 44, 115
5, 345362, Note_on_c, 9, 40, 0
5, 345470, Note_on_c, 9, 38, 61
5, 345582, Note_on_c, 9, 38, 0
5, 345614, Note_on_c, 9, 44, 0
5, 345622, Note_on_c, 9, 40, 46
5, 345654, Note_on_c, 9, 38, 73
5, 346042, Note_on_c, 9, 38, 0
5, 346098, Note_on_c, 9, 40, 0
5, 346102, Note_on_c, 9, 40, 50
5, 346134, Note_on_c, 9, 38, 119
5, 346146, Note_on_c, 9, 44, 111
5, 346322, Note_on_c, 9, 40, 0
5, 346334, Note_on_c, 9, 38, 0
5, 346430, Note_on_c, 9, 38, 67
5, 346490, Note_on_c, 9, 44, 0
5, 346534, Note_on_c, 9, 38, 0
5, 346582, Note_on_c, 9, 40, 41
5, 346614, Note_on_c, 9, 38, 62
5, 346758, Note_on_c, 9, 38, 0
5, 346802, Note_on_c, 9, 40, 0
5, 346910, Note_on_c, 9, 38, 76
5, 347062, Note_on_c, 9, 40, 37
5, 347074, Note_on_c, 9, 38, 0
5, 347106, Note_on_c, 9, 44, 126
5, 347518, Note_on_c, 9, 44, 0
5, 347538, Note_on_c, 9, 40, 0
5, 347542, Note_on_c, 9, 40, 46
5, 347574, Note_on_c, 9, 38, 80
5, 347990, Note_on_c, 9, 38, 0
5, 348018, Note_on_c, 9, 40, 0
5, 348022, Note_on_c, 9, 40, 50
5, 348054, Note_on_c, 9, 38, 121
5, 348066, Note_on_c, 9, 44, 114
5, 348486, Note_on_c, 9, 44, 0
5, 348498, Note_on_c, 9, 40, 0
5, 348502, Note_on_c, 9, 40, 41
5, 348534, Note_on_c, 9, 38, 43
5, 348570, Note_on_c, 9, 38, 0
5, 348978, Note_on_c, 9, 40, 0
5, 348982, Note_on_c, 9, 40, 37
5, 349014, Note_on_c, 9, 38, 121
5, 349026, Note_on_c, 9, 44, 111
5, 349130, Note_on_c, 9, 38, 0
5, 349422, Note_on_c, 9, 38, 0
5, 349434, Note_on_c, 9, 44, 0
5, 349458, Note_on_c, 9, 40, 0
5, 349462, Note_on_c, 9, 40, 46
5, 349494, Note_on_c, 9, 38, 41
5, 349494, Note_on_c, 9, 35, 110
5, 349938, Note_on_c, 9, 40, 0
5, 349942, Note_on_c, 9, 40, 50
5, 349974, Note_on_c, 9, 38, 111
5, 349986, Note_on_c, 9, 44, 119
5, 350010, Note_on_c, 9, 35, 0
5, 350054, Note_on_c, 9, 38, 0
5, 350162, Note_on_c, 9, 38, 0
5, 350162, Note_on_c, 9, 40, 0
5, 350270, Note_on_c, 9, 38, 95
5, 350350, Note_on_c, 9, 38, 0
5, 350410, Note_on_c, 9, 44, 0
5, 350422, Note_on_c, 9, 40, 41
5, 350454, Note_on_c, 9, 38, 81
5, 350850, Note_on_c, 9, 38, 0
5, 350898, Note_on_c, 9, 40, 0
5, 350902, Note_on_c, 9, 40, 37
5, 350934, Note_on_c, 9, 38, 105
5, 350946, Note_on_c, 9, 44, 123
5, 351098, Note_on_c, 9, 38, 0
5, 351122, Note_on_c, 9, 40, 0
5, 351230, Note_on_c, 9, 38, 69
5, 351306, Note_on_c, 9, 38, 0
5, 351358, Note_on_c, 9, 44, 0
5, 351382, Note_on_c, 9, 40, 46
5, 351414, Note_on_c, 9, 38, 69
5, 351786, Note_on_c, 9, 38, 0
5, 351858, Note_on_c, 9, 40, 0
5, 351862, Note_on_c, 9, 40, 50
5, 351894, Note_on_c, 9, 38, 101
5, 351906, Note_on_c, 9, 44, 111
5, 352082, Note_on_c, 9, 38, 0
5, 352082, Note_on_c, 9, 40, 0
5, 352190, Note_on_c, 9, 38, 105
5, 352294, Note_on_c, 9, 38, 0
5, 352302, Note_on_c, 9, 44, 0
5, 352342, Note_on_c, 9, 40, 41
5, 352374, Note_on_c, 9, 38, 87
5, 352762, Note_on_c, 9, 38, 0
5, 352818, Note_on_c, 9, 40, 0
5, 352822, Note_on_c, 9, 40, 37
5, 352854, Note_on_c, 9, 38, 97
5, 352866, Note_on_c, 9, 44, 114
5, 353034, Note_on_c, 9, 38, 0
5, 353042, Note_on_c, 9, 40, 0
5, 353150, Note_on_c, 9, 38, 105
5, 353254, Note_on_c, 9, 44, 0
5, 353262, Note_on_c, 9, 38, 0
5, 353302, Note_on_c, 9, 40, 46
5, 353334, Note_on_c, 9, 38, 61
5, 353778, Note_on_c, 9, 40, 0
5, 353782, Note_on_c, 9, 40, 50
5, 353790, Note_on_c, 9, 38, 0
5, 353814, Note_on_c, 9, 38, 121
5, 353826, Note_on_c, 9, 44, 120
5, 354230, Note_on_c, 9, 44, 0
5, 354258, Note_on_c, 9, 40, 0
5, 354262, Note_on_c, 9, 40, 41
5, 354294, Note_on_c, 9, 38, 71
5, 354350, Note_on_c, 9, 38, 0
5, 354482, Note_on_c, 9, 40, 0
5, 354494, Note_on_c, 9, 38, 0
5, 354590, Note_on_c, 9, 38, 105
5, 354694, Note_on_c, 9, 38, 0
5, 354742, Note_on_c, 9, 40, 37
5, 354786, Note_on_c, 9, 44, 127
5, 355174, Note_on_c, 9, 44, 0
5, 355218, Note_on_c, 9, 40, 0
5, 355222, Note_on_c, 9, 40, 46
5, 355254, Note_on_c, 9, 38, 73
5, 355442, Note_on_c, 9, 40, 0
5, 355450, Note_on_c, 9, 38, 0
5, 355550, Note_on_c, 9, 39, 117
5, 355654, Note_on_c, 9, 39, 0
5, 355702, Note_on_c, 9, 40, 50
5, 355734, Note_on_c, 9, 38, 50
5, 355746, Note_on_c, 9, 44, 96
5, 356178, Note_on_c, 9, 40, 0
5, 356182, Note_on_c, 9, 40, 41
5, 356214, Note_on_c, 9, 38, 85
5, 356250, Note_on_c, 9, 38, 0
5, 356330, Note_on_c, 9, 44, 0
5, 356370, Note_on_c, 9, 38, 0
5, 356402, Note_on_c, 9, 40, 0
5, 356510, Note_on_c, 9, 39, 115
5, 356614, Note_on_c, 9, 39, 0
5, 356662, Note_on_c, 9, 40, 37
5, 356694, Note_on_c, 9, 46, 85
5, 356882, Note_on_c, 9, 40, 0
5, 356990, Note_on_c, 9, 38, 92
5, 357058, Note_on_c, 9, 46, 0
5, 357070, Note_on_c, 9, 38, 0
5, 357142, Note_on_c, 9, 40, 46
5, 357174, Note_on_c, 9, 53, 80
5, 357174, Note_on_c, 9, 35, 110
5, 357186, Note_on_c, 9, 44, 76
5, 357530, Note_on_c, 9, 53, 0
5, 357618, Note_on_c, 9, 40, 0
5, 357622, Note_on_c, 9, 40, 50
5, 357654, Note_on_c, 9, 38, 107
5, 357666, Note_on_c, 9, 44, 127
5, 357690, Note_on_c, 9, 35, 0
5, 357750, Note_on_c, 9, 44, 0
5, 358050, Note_on_c, 9, 44, 0
5, 358098, Note_on_c, 9, 40, 0
5, 358102, Note_on_c, 9, 40, 41
5, 358134, Note_on_c, 9, 38, 67
5, 358214, Note_on_c, 9, 38, 0
5, 358574, Note_on_c, 9, 38, 0
5, 358578, Note_on_c, 9, 40, 0
5, 358582, Note_on_c, 9, 40, 37
5, 358614, Note_on_c, 9, 38, 113
5, 358626, Note_on_c, 9, 44, 127
5, 358802, Note_on_c, 9, 40, 0
5, 358842, Note_on_c, 9, 38, 0
5, 358910, Note_on_c, 9, 38, 86
5, 359010, Note_on_c, 9, 38, 0
5, 359046, Note_on_c, 9, 44, 0
5, 359062, Note_on_c, 9, 40, 46
5, 359094, Note_on_c, 9, 38, 83
5, 359538, Note_on_c, 9, 40, 0
5, 359542, Note_on_c, 9, 40, 50
5, 359574, Note_on_c, 9, 38, 113
5, 359586, Note_on_c, 9, 44, 102
5, 359594, Note_on_c, 9, 38, 0
5, 360014, Note_on_c, 9, 44, 0
5, 360018, Note_on_c, 9, 40, 0
5, 360022, Note_on_c, 9, 40, 41
5, 360054, Note_on_c, 9, 38, 63
5, 360178, Note_on_c, 9, 38, 0
5, 360354, Note_on_c, 9, 39, 110
5, 360462, Note_on_c, 9, 39, 0
5, 360462, Note_on_c, 9, 38, 0
5, 360498, Note_on_c, 9, 40, 0
5, 360502, Note_on_c, 9, 40, 37
5, 360534, Note_on_c, 9, 38, 113
5, 360546, Note_on_c, 9, 44, 126
5, 360722, Note_on_c, 9, 40, 0
5, 360754, Note_on_c, 9, 38, 0
5, 360830, Note_on_c, 9, 38, 77
5, 360918, Note_on_c, 9, 38, 0
5, 360958, Note_on_c, 9, 44, 0
5, 360982, Note_on_c, 9, 40, 46
5, 361014, Note_on_c, 9, 38, 69
5, 361378, Note_on_c, 9, 38, 0
5, 361458, Note_on_c, 9, 40, 0
5, 361462, Note_on_c, 9, 40, 50
5, 361494, Note_on_c, 9, 38, 111
5, 361506, Note_on_c, 9, 44, 113
5, 361910, Note_on_c, 9, 38, 0
5, 361926, Note_on_c, 9, 44, 0
5, 361938, Note_on_c, 9, 40, 0
5, 361942, Note_on_c, 9, 40, 41
5, 361974, Note_on_c, 9, 38, 71
5, 362382, Note_on_c, 9, 38, 0
5, 362418, Note_on_c, 9, 40, 0
5, 362422, Note_on_c, 9, 40, 37
5, 362454, Note_on_c, 9, 38, 95
5, 362466, Note_on_c, 9, 44, 113
5, 362642, Note_on_c, 9, 40, 0
5, 362690, Note_on_c, 9, 38, 0
5, 362750, Note_on_c, 9, 38, 107
5, 362838, Note_on_c, 9, 38, 0
5, 362886, Note_on_c, 9, 44, 0
5, 362902, Note_on_c, 9, 40, 46
5, 362934, Note_on_c, 9, 38, 93
5, 363346, Note_on_c, 9, 38, 0
5, 363378, Note_on_c, 9, 40, 0
5, 363382, Note_on_c, 9, 40, 50
5, 363414, Note_on_c, 9, 38, 99
5, 363426, Note_on_c, 9, 44, 118
5, 363590, Note_on_c, 9, 38, 0
5, 363602, Note_on_c, 9, 40, 0
5, 363710, Note_on_c, 9, 38, 89
5, 363786, Note_on_c, 9, 38, 0
5, 363834, Note_on_c, 9, 44, 0
5, 363862, Note_on_c, 9, 40, 41
5, 363894, Note_on_c, 9, 38, 73
5, 364338, Note_on_c, 9, 40, 0
5, 364342, Note_on_c, 9, 40, 37
5, 364374, Note_on_c, 9, 38, 97
5, 364378, Note_on_c, 9, 38, 0
5, 364386, Note_on_c, 9, 44, 119
5, 364538, Note_on_c, 9, 44, 0
5, 364562, Note_on_c, 9, 40, 0
5, 364578, Note_on_c, 9, 38, 0
5, 364670, Note_on_c, 9, 39, 120
5, 364766, Note_on_c, 9, 39, 0
5, 364822, Note_on_c, 9, 40, 46
5, 364854, Note_on_c, 9, 38, 45
5, 365218, Note_on_c, 9, 38, 0
5, 365298, Note_on_c, 9, 40, 0
5, 365302, Note_on_c, 9, 40, 50
5, 365334, Note_on_c, 9, 38, 107
5, 365346, Note_on_c, 9, 44, 123
5, 365714, Note_on_c, 9, 44, 0
5, 365758, Note_on_c, 9, 38, 0
5, 365778, Note_on_c, 9, 40, 0
5, 365782, Note_on_c, 9, 40, 41
5, 365814, Note_on_c, 9, 38, 64
5, 366258, Note_on_c, 9, 40, 0
5, 366262, Note_on_c, 9, 40, 37
5, 366294, Note_on_c, 9, 38, 111
5, 366306, Note_on_c, 9, 38, 0
5, 366306, Note_on_c, 9, 44, 118
5, 366482, Note_on_c, 9, 40, 0
5, 366514, Note_on_c, 9, 38, 0
5, 366590, Note_on_c, 9, 38, 68
5, 366690, Note_on_c, 9, 38, 0
5, 366694, Note_on_c, 9, 44, 0
5, 366742, Note_on_c, 9, 40, 46
5, 366774, Note_on_c, 9, 38, 71
5, 367210, Note_on_c, 9, 38, 0
5, 367218, Note_on_c, 9, 40, 0
5, 367222, Note_on_c, 9, 40, 50
5, 367254, Note_on_c, 9, 38, 117
5, 367266, Note_on_c, 9, 44, 115
5, 367678, Note_on_c, 9, 44, 0
5, 367698, Note_on_c, 9, 40, 0
5, 367702, Note_on_c, 9, 40, 41
5, 367734, Note_on_c, 9, 38, 63
5, 367750, Note_on_c, 9, 38, 0
5, 368178, Note_on_c, 9, 40, 0
5, 368182, Note_on_c, 9, 40, 37
5, 368214, Note_on_c, 9, 38, 107
5, 368218, Note_on_c, 9, 38, 0
5, 368226, Note_on_c, 9, 44, 127
5, 368402, Note_on_c, 9, 40, 0
5, 368434, Note_on_c, 9, 38, 0
5, 368510, Note_on_c, 9, 38, 87
5, 368598, Note_on_c, 9, 38, 0
5, 368630, Note_on_c, 9, 44, 0
5, 368662, Note_on_c, 9, 40, 46
5, 368694, Note_on_c, 9, 38, 75
5, 368994, Note_on_c, 9, 39, 110
5, 369074, Note_on_c, 9, 38, 0
5, 369102, Note_on_c, 9, 39, 0
5, 369138, Note_on_c, 9, 40, 0
5, 369142, Note_on_c, 9, 40, 50
5, 369174, Note_on_c, 9, 38, 111
5, 369186, Note_on_c, 9, 44, 123
5, 369582, Note_on_c, 9, 44, 0
5, 369586, Note_on_c, 9, 38, 0
5, 369618, Note_on_c, 9, 40, 0
5, 369622, Note_on_c, 9, 40, 41
5, 369654, Note_on_c, 9, 35, 110
5, 370018, Note_on_c, 9, 35, 0
5, 370098, Note_on_c, 9, 40, 0
5, 370102, Note_on_c, 9, 40, 37
5, 370134, Note_on_c, 9, 38, 119
5, 370146, Note_on_c, 9, 44, 115
5, 370322, Note_on_c, 9, 40, 0
5, 370358, Note_on_c, 9, 38, 0
5, 370430, Note_on_c, 9, 38, 68
5, 370434, Note_on_c, 9, 35, 90
5, 370482, Note_on_c, 9, 38, 0
5, 370534, Note_on_c, 9, 44, 0
5, 370542, Note_on_c, 9, 35, 0
5, 370582, Note_on_c, 9, 40, 46
5, 371058, Note_on_c, 9, 40, 0
5, 371062, Note_on_c, 9, 40, 50
5, 371106, Note_on_c, 9, 44, 127
5, 371394, Note_on_c, 9, 39, 110
5, 371502, Note_on_c, 9, 39, 0
5, 371506, Note_on_c, 9, 44, 0
5, 371538, Note_on_c, 9, 40, 0
5, 371542, Note_on_c, 9, 40, 41
5, 371874, Note_on_c, 9, 39, 110
5, 371982, Note_on_c, 9, 39, 0
5, 372018, Note_on_c, 9, 40, 0
5, 372022, Note_on_c, 9, 40, 37
5, 372066, Note_on_c, 9, 44, 123
5, 372194, Note_on_c, 9, 44, 0
5, 372498, Note_on_c, 9, 40, 0
5, 372535, Note_on_c, 9, 40, 54
5, 372545, Note_on_c, 9, 42, 10
5, 372545, Note_on_c, 9, 38, 54
5, 372643, Note_on_c, 9, 40, 0
5, 372653, Note_on_c, 9, 38, 0
5, 372653, Note_on_c, 9, 42, 0
5, 372993, Note_on_c, 9, 40, 50
5, 373025, Note_on_c, 9, 38, 103
5, 373037, Note_on_c, 9, 44, 126
5, 373213, Note_on_c, 9, 44, 0
5, 373285, Note_on_c, 9, 38, 0
5, 373321, Note_on_c, 9, 38, 49
5, 373421, Note_on_c, 9, 38, 0
5, 373469, Note_on_c, 9, 40, 0
5, 373503, Note_on_c, 9, 40, 41
5, 373505, Note_on_c, 9, 38, 67
5, 373745, Note_on_c, 9, 38, 0
5, 373953, Note_on_c, 9, 40, 37
5, 373979, Note_on_c, 9, 40, 0
5, 373985, Note_on_c, 9, 38, 107
5, 373997, Note_on_c, 9, 44, 105
5, 374185, Note_on_c, 9, 44, 0
5, 374261, Note_on_c, 9, 38, 0
5, 374281, Note_on_c, 9, 38, 49
5, 374333, Note_on_c, 9, 38, 0
5, 374429, Note_on_c, 9, 40, 0
5, 374433, Note_on_c, 9, 40, 46
5, 374465, Note_on_c, 9, 38, 72
5, 374693, Note_on_c, 9, 38, 0
5, 374909, Note_on_c, 9, 40, 0
5, 374913, Note_on_c, 9, 40, 50
5, 374945, Note_on_c, 9, 38, 105
5, 374957, Note_on_c, 9, 44, 107
5, 375129, Note_on_c, 9, 44, 0
5, 375209, Note_on_c, 9, 38, 0
5, 375241, Note_on_c, 9, 38, 45
5, 375305, Note_on_c, 9, 38, 0
5, 375389, Note_on_c, 9, 40, 0
5, 375393, Note_on_c, 9, 40, 41
5, 375425, Note_on_c, 9, 38, 72
5, 375645, Note_on_c, 9, 38, 0
5, 375725, Note_on_c, 9, 39, 110
5, 375833, Note_on_c, 9, 39, 0
5, 375869, Note_on_c, 9, 40, 0
5, 375873, Note_on_c, 9, 40, 37
5, 375905, Note_on_c, 9, 38, 109
5, 375917, Note_on_c, 9, 44, 114
5, 376121, Note_on_c, 9, 38, 0
5, 376125, Note_on_c, 9, 44, 0
5, 376201, Note_on_c, 9, 38, 63
5, 376297, Note_on_c, 9, 38, 0
5, 376349, Note_on_c, 9, 40, 0
5, 376353, Note_on_c, 9, 40, 46
5, 376385, Note_on_c, 9, 38, 71
5, 376541, Note_on_c, 9, 38, 0
5, 376829, Note_on_c, 9, 40, 0
5, 376833, Note_on_c, 9, 40, 50
5, 376865, Note_on_c, 9, 38, 113
5, 376877, Note_on_c, 9, 44, 113
5, 377069, Note_on_c, 9, 44, 0
5, 377273, Note_on_c, 9, 38, 0
5, 377309, Note_on_c, 9, 40, 0
5, 377313, Note_on_c, 9, 40, 41
5, 377345, Note_on_c, 9, 38, 57
5, 377489, Note_on_c, 9, 38, 0
5, 377789, Note_on_c, 9, 40, 0
5, 377793, Note_on_c, 9, 40, 37
5, 377825, Note_on_c, 9, 38, 109
5, 377837, Note_on_c, 9, 44, 110
5, 378013, Note_on_c, 9, 44, 0
5, 378113, Note_on_c, 9, 38, 0
5, 378121, Note_on_c, 9, 38, 56
5, 378181, Note_on_c, 9, 38, 0
5, 378269, Note_on_c, 9, 40, 0
5, 378273, Note_on_c, 9, 40, 46
5, 378305, Note_on_c, 9, 38, 55
5, 378745, Note_on_c, 9, 38, 0
5, 378749, Note_on_c, 9, 40, 0
5, 378753, Note_on_c, 9, 40, 50
5, 378785, Note_on_c, 9, 38, 97
5, 378797, Note_on_c, 9, 44, 115
5, 378973, Note_on_c, 9, 40, 0
5, 379009, Note_on_c, 9, 38, 0
5, 379081, Note_on_c, 9, 39, 113
5, 379201, Note_on_c, 9, 39, 0
5, 379225, Note_on_c, 9, 44, 0
5, 379233, Note_on_c, 9, 40, 41
5, 379265, Note_on_c, 9, 38, 81
5, 379709, Note_on_c, 9, 40, 0
5, 379713, Note_on_c, 9, 40, 37
5, 379745, Note_on_c, 9, 38, 103
5, 379757, Note_on_c, 9, 44, 115
5, 379825, Note_on_c, 9, 38, 0
5, 379933, Note_on_c, 9, 40, 0
5, 379981, Note_on_c, 9, 38, 0
5, 380041, Note_on_c, 9, 38, 55
5, 380161, Note_on_c, 9, 44, 0
5, 380193, Note_on_c, 9, 40, 46
5, 380225, Note_on_c, 9, 38, 0
5, 380225, Note_on_c, 9, 38, 63
5, 380669, Note_on_c, 9, 40, 0
5, 380673, Note_on_c, 9, 40, 50
5, 380705, Note_on_c, 9, 38, 117
5, 380717, Note_on_c, 9, 44, 114
5, 380725, Note_on_c, 9, 38, 0
5, 380893, Note_on_c, 9, 40, 0
5, 380961, Note_on_c, 9, 38, 0
5, 381001, Note_on_c, 9, 38, 50
5, 381089, Note_on_c, 9, 38, 0
5, 381137, Note_on_c, 9, 44, 0
5, 381153, Note_on_c, 9, 40, 41
5, 381185, Note_on_c, 9, 38, 62
5, 381629, Note_on_c, 9, 40, 0
5, 381633, Note_on_c, 9, 40, 37
5, 381665, Note_on_c, 9, 38, 105
5, 381677, Note_on_c, 9, 44, 110
5, 381729, Note_on_c, 9, 38, 0
5, 381853, Note_on_c, 9, 40, 0
5, 381937, Note_on_c, 9, 38, 0
5, 381961, Note_on_c, 9, 38, 36
5, 382085, Note_on_c, 9, 44, 0
5, 382113, Note_on_c, 9, 40, 46
5, 382145, Note_on_c, 9, 38, 0
5, 382145, Note_on_c, 9, 38, 69
5, 382589, Note_on_c, 9, 40, 0
5, 382593, Note_on_c, 9, 40, 50
5, 382625, Note_on_c, 9, 38, 93
5, 382637, Note_on_c, 9, 38, 0
5, 382637, Note_on_c, 9, 44, 110
5, 382813, Note_on_c, 9, 40, 0
5, 382853, Note_on_c, 9, 38, 0
5, 382921, Note_on_c, 9, 38, 63
5, 383001, Note_on_c, 9, 38, 0
5, 383057, Note_on_c, 9, 44, 0
5, 383073, Note_on_c, 9, 40, 41
5, 383105, Note_on_c, 9, 38, 64
5, 383549, Note_on_c, 9, 40, 0
5, 383553, Note_on_c, 9, 40, 37
5, 383585, Note_on_c, 9, 38, 107
5, 383597, Note_on_c, 9, 44, 110
5, 383633, Note_on_c, 9, 38, 0
5, 383773, Note_on_c, 9, 40, 0
5, 383837, Note_on_c, 9, 38, 0
5, 383881, Note_on_c, 9, 38, 54
5, 383961, Note_on_c, 9, 38, 0
5, 384009, Note_on_c, 9, 44, 0
5, 384033, Note_on_c, 9, 40, 46
5, 384065, Note_on_c, 9, 38, 71
5, 384509, Note_on_c, 9, 40, 0
5, 384513, Note_on_c, 9, 40, 50
5, 384545, Note_on_c, 9, 38, 109
5, 384557, Note_on_c, 9, 44, 107
5, 384573, Note_on_c, 9, 38, 0
5, 384733, Note_on_c, 9, 40, 0
5, 384797, Note_on_c, 9, 38, 0
5, 384841, Note_on_c, 9, 38, 52
5, 384945, Note_on_c, 9, 38, 0
5, 384965, Note_on_c, 9, 44, 0
5, 384993, Note_on_c, 9, 40, 41
5, 385025, Note_on_c, 9, 38, 66
5, 385469, Note_on_c, 9, 40, 0
5, 385473, Note_on_c, 9, 40, 37
5, 385477, Note_on_c, 9, 38, 0
5, 385505, Note_on_c, 9, 38, 101
5, 385517, Note_on_c, 9, 44, 110
5, 385693, Note_on_c, 9, 40, 0
5, 385741, Note_on_c, 9, 38, 0
5, 385801, Note_on_c, 9, 39, 82
5, 385889, Note_on_c, 9, 39, 0
5, 385941, Note_on_c, 9, 44, 0
5, 385953, Note_on_c, 9, 40, 46
5, 385985, Note_on_c, 9, 38, 70
5, 386429, Note_on_c, 9, 40, 0
5, 386433, Note_on_c, 9, 40, 50
5, 386465, Note_on_c, 9, 38, 103
5, 386477, Note_on_c, 9, 44, 106
5, 386557, Note_on_c, 9, 38, 0
5, 386905, Note_on_c, 9, 44, 0
5, 386909, Note_on_c, 9, 40, 0
5, 386913, Note_on_c, 9, 40, 41
5, 386945, Note_on_c, 9, 38, 69
5, 386949, Note_on_c, 9, 38, 0
5, 387197, Note_on_c, 9, 38, 0
5, 387245, Note_on_c, 9, 39, 120
5, 387389, Note_on_c, 9, 40, 0
5, 387425, Note_on_c, 9, 38, 63
5, 387437, Note_on_c, 9, 44, 104
5, 387465, Note_on_c, 9, 39, 0
5, 387669, Note_on_c, 9, 38, 0
5, 387725, Note_on_c, 9, 35, 100
5, 387833, Note_on_c, 9, 35, 0
5, 387865, Note_on_c, 9, 44, 0
5, 387873, Note_on_c, 9, 40, 46
5, 388065, Note_on_c, 9, 39, 60
5, 388093, Note_on_c, 9, 40, 0
5, 388221, Note_on_c, 9, 35, 70
5, 388277, Note_on_c, 9, 39, 0
5, 388329, Note_on_c, 9, 35, 0
5, 388353, Note_on_c, 9, 40, 50
5, 388397, Note_on_c, 9, 44, 102
5, 388817, Note_on_c, 9, 44, 0
5, 388829, Note_on_c, 9, 40, 0
5, 388833, Note_on_c, 9, 40, 41
5, 388865, Note_on_c, 9, 38, 66
5, 389281, Note_on_c, 9, 38, 0
5, 389309, Note_on_c, 9, 40, 0
5, 389313, Note_on_c, 9, 40, 37
5, 389345, Note_on_c, 9, 38, 119
5, 389357, Note_on_c, 9, 44, 89
5, 389789, Note_on_c, 9, 40, 0
5, 389793, Note_on_c, 9, 40, 46
5, 389801, Note_on_c, 9, 44, 0
5, 389825, Note_on_c, 9, 38, 0
5, 389825, Note_on_c, 9, 38, 66
5, 390261, Note_on_c, 9, 38, 0
5, 390269, Note_on_c, 9, 40, 0
5, 390273, Note_on_c, 9, 40, 50
5, 390305, Note_on_c, 9, 38, 115
5, 390317, Note_on_c, 9, 44, 100
5, 390493, Note_on_c, 9, 40, 0
5, 390541, Note_on_c, 9, 38, 0
5, 390601, Note_on_c, 9, 38, 59
5, 390677, Note_on_c, 9, 38, 0
5, 390745, Note_on_c, 9, 44, 0
5, 390753, Note_on_c, 9, 40, 41
5, 390785, Note_on_c, 9, 38, 73
5, 391229, Note_on_c, 9, 40, 0
5, 391233, Note_on_c, 9, 40, 37
5, 391265, Note_on_c, 9, 38, 117
5, 391277, Note_on_c, 9, 44, 89
5, 391293, Note_on_c, 9, 38, 0
5, 391449, Note_on_c, 9, 44, 0
5, 391453, Note_on_c, 9, 40, 0
5, 391481, Note_on_c, 9, 38, 0
5, 391505, Note_on_c, 9, 46, 65
5, 391561, Note_on_c, 9, 38, 64
5, 391665, Note_on_c, 9, 38, 0
5, 391713, Note_on_c, 9, 40, 46
5, 391745, Note_on_c, 9, 46, 0
5, 391745, Note_on_c, 9, 38, 50
5, 392189, Note_on_c, 9, 40, 0
5, 392193, Note_on_c, 9, 40, 50
5, 392225, Note_on_c, 9, 38, 111
5, 392237, Note_on_c, 9, 44, 106
5, 392265, Note_on_c, 9, 38, 0
5, 392413, Note_on_c, 9, 40, 0
5, 392505, Note_on_c, 9, 38, 0
5, 392521, Note_on_c, 9, 38, 52
5, 392597, Note_on_c, 9, 38, 0
5, 392669, Note_on_c, 9, 44, 0
5, 392673, Note_on_c, 9, 40, 41
5, 392705, Note_on_c, 9, 38, 55
5, 393149, Note_on_c, 9, 40, 0
5, 393153, Note_on_c, 9, 40, 37
5, 393177, Note_on_c, 9, 38, 0
5, 393185, Note_on_c, 9, 38, 113
5, 393197, Note_on_c, 9, 44, 107
5, 393373, Note_on_c, 9, 40, 0
5, 393465, Note_on_c, 9, 38, 0
5, 393481, Note_on_c, 9, 38, 44
5, 393561, Note_on_c, 9, 38, 0
5, 393633, Note_on_c, 9, 40, 46
5, 393637, Note_on_c, 9, 44, 0
5, 393665, Note_on_c, 9, 38, 66
5, 394081, Note_on_c, 9, 38, 0
5, 394109, Note_on_c, 9, 40, 0
5, 394113, Note_on_c, 9, 40, 50
5, 394145, Note_on_c, 9, 38, 109
5, 394157, Note_on_c, 9, 44, 111
5, 394481, Note_on_c, 9, 35, 74
5, 394549, Note_on_c, 9, 38, 0
5, 394581, Note_on_c, 9, 44, 0
5, 394589, Note_on_c, 9, 40, 0
5, 394589, Note_on_c, 9, 35, 0
5, 394593, Note_on_c, 9, 40, 41
5, 394625, Note_on_c, 9, 38, 62
5, 394637, Note_on_c, 9, 44, 91
5, 394789, Note_on_c, 9, 44, 0
5, 394813, Note_on_c, 9, 40, 0
5, 394841, Note_on_c, 9, 38, 0
5, 394865, Note_on_c, 9, 46, 90
5, 394921, Note_on_c, 9, 39, 117
5, 395061, Note_on_c, 9, 39, 0
5, 395073, Note_on_c, 9, 40, 37
5, 395105, Note_on_c, 9, 38, 57
5, 395225, Note_on_c, 9, 46, 0
5, 395405, Note_on_c, 9, 39, 110
5, 395405, Note_on_c, 9, 35, 110
5, 395433, Note_on_c, 9, 38, 0
5, 395513, Note_on_c, 9, 35, 0
5, 395549, Note_on_c, 9, 40, 0
5, 395553, Note_on_c, 9, 40, 46
5, 395585, Note_on_c, 9, 39, 0
5, 395585, Note_on_c, 9, 38, 80
5, 396029, Note_on_c, 9, 40, 0
5, 396033, Note_on_c, 9, 40, 50
5, 396065, Note_on_c, 9, 38, 113
5, 396077, Note_on_c, 9, 44, 127
5, 396105, Note_on_c, 9, 38, 0
5, 396253, Note_on_c, 9, 40, 0
5, 396345, Note_on_c, 9, 38, 0
5, 396361, Note_on_c, 9, 38, 50
5, 396449, Note_on_c, 9, 38, 0
5, 396473, Note_on_c, 9, 44, 0
5, 396513, Note_on_c, 9, 40, 41
5, 396545, Note_on_c, 9, 38, 52
5, 396989, Note_on_c, 9, 40, 0
5, 396993, Note_on_c, 9, 40, 37
5, 397001, Note_on_c, 9, 38, 0
5, 397025, Note_on_c, 9, 38, 117
5, 397037, Note_on_c, 9, 44, 107
5, 397213, Note_on_c, 9, 40, 0
5, 397305, Note_on_c, 9, 38, 0
5, 397321, Note_on_c, 9, 38, 41
5, 397381, Note_on_c, 9, 38, 0
5, 397469, Note_on_c, 9, 44, 0
5, 397473, Note_on_c, 9, 40, 46
5, 397505, Note_on_c, 9, 38, 67
5, 397937, Note_on_c, 9, 38, 0
5, 397949, Note_on_c, 9, 40, 0
5, 397953, Note_on_c, 9, 40, 50
5, 397985, Note_on_c, 9, 38, 115
5, 397997, Note_on_c, 9, 44, 98
5, 398173, Note_on_c, 9, 40, 0
5, 398229, Note_on_c, 9, 38, 0
5, 398281, Note_on_c, 9, 38, 50
5, 398381, Note_on_c, 9, 38, 0
5, 398429, Note_on_c, 9, 44, 0
5, 398433, Note_on_c, 9, 40, 41
5, 398465, Note_on_c, 9, 38, 71
5, 398865, Note_on_c, 9, 38, 0
5, 398909, Note_on_c, 9, 40, 0
5, 398913, Note_on_c, 9, 40, 37
5, 398945, Note_on_c, 9, 38, 121
5, 398957, Note_on_c, 9, 44, 102
5, 399129, Note_on_c, 9, 38, 65
5, 399133, Note_on_c, 9, 40, 0
5, 399269, Note_on_c, 9, 38, 0
5, 399393, Note_on_c, 9, 40, 46
5, 399409, Note_on_c, 9, 44, 0
5, 399409, Note_on_c, 9, 38, 0
5, 399425, Note_on_c, 9, 38, 82
5, 399841, Note_on_c, 9, 38, 0
5, 399869, Note_on_c, 9, 40, 0
5, 399873, Note_on_c, 9, 40, 50
5, 399905, Note_on_c, 9, 38, 115
5, 399917, Note_on_c, 9, 44, 107
5, 400093, Note_on_c, 9, 40, 0
5, 400125, Note_on_c, 9, 38, 0
5, 400201, Note_on_c, 9, 38, 60
5, 400313, Note_on_c, 9, 38, 0
5, 400353, Note_on_c, 9, 40, 41
5, 400357, Note_on_c, 9, 44, 0
5, 400385, Note_on_c, 9, 38, 63
5, 400829, Note_on_c, 9, 40, 0
5, 400833, Note_on_c, 9, 40, 37
5, 400865, Note_on_c, 9, 38, 115
5, 400877, Note_on_c, 9, 44, 89
5, 400893, Note_on_c, 9, 38, 0
5, 401265, Note_on_c, 9, 38, 0
5, 401301, Note_on_c, 9, 44, 0
5, 401309, Note_on_c, 9, 40, 0
5, 401313, Note_on_c, 9, 40, 46
5, 401425, Note_on_c, 9, 38, 30
5, 401485, Note_on_c, 9, 38, 0
5, 401505, Note_on_c, 9, 38, 66
5, 401533, Note_on_c, 9, 40, 0
5, 401565, Note_on_c, 9, 38, 0
5, 401585, Note_on_c, 9, 38, 82
5, 401645, Note_on_c, 9, 38, 0
5, 401665, Note_on_c, 9, 39, 120
5, 401725, Note_on_c, 9, 39, 0
5, 401745, Note_on_c, 9, 38, 70
5, 401805, Note_on_c, 9, 38, 0
5, 401825, Note_on_c, 9, 38, 72
5, 401885, Note_on_c, 9, 38, 0
5, 401905, Note_on_c, 9, 38, 66
5, 401985, Note_on_c, 9, 38, 51
5, 402145, Note_on_c, 9, 35, 74
5, 402205, Note_on_c, 9, 35, 0
5, 402221, Note_on_c, 9, 38, 0
5, 402225, Note_on_c, 9, 38, 34
5, 402285, Note_on_c, 9, 38, 0
5, 402301, Note_on_c, 9, 38, 0
5, 402305, Note_on_c, 9, 38, 95
5, 402365, Note_on_c, 9, 38, 0
5, 402385, Note_on_c, 9, 38, 32
5, 402445, Note_on_c, 9, 38, 0
5, 402465, Note_on_c, 9, 39, 110
5, 402525, Note_on_c, 9, 39, 0
5, 402545, Note_on_c, 9, 38, 36
5, 402605, Note_on_c, 9, 38, 0
5, 402625, Note_on_c, 9, 38, 74
5, 402685, Note_on_c, 9, 38, 0
5, 402705, Note_on_c, 9, 38, 23
5, 402765, Note_on_c, 9, 38, 0
5, 402785, Note_on_c, 9, 38, 22
5, 402845, Note_on_c, 9, 38, 0
5, 402945, Note_on_c, 9, 38, 62
5, 403085, Note_on_c, 9, 39, 127
5, 403145, Note_on_c, 9, 39, 0
5, 403233, Note_on_c, 9, 40, 46
5, 403261, Note_on_c, 9, 38, 0
5, 403709, Note_on_c, 9, 40, 0
5, 403713, Note_on_c, 9, 40, 50
5, 403745, Note_on_c, 9, 38, 119
5, 403757, Note_on_c, 9, 44, 127
5, 403933, Note_on_c, 9, 40, 0
5, 403985, Note_on_c, 9, 38, 0
5, 404041, Note_on_c, 9, 38, 56
5, 404137, Note_on_c, 9, 38, 0
5, 404157, Note_on_c, 9, 44, 0
5, 404193, Note_on_c, 9, 40, 41
5, 404225, Note_on_c, 9, 38, 99
5, 404393, Note_on_c, 9, 38, 0
5, 404413, Note_on_c, 9, 40, 0
5, 404673, Note_on_c, 9, 40, 37
5, 404705, Note_on_c, 9, 38, 117
5, 404705, Note_on_c, 9, 46, 110
5, 404893, Note_on_c, 9, 40, 0
5, 404941, Note_on_c, 9, 38, 0
5, 405001, Note_on_c, 9, 38, 52
5, 405069, Note_on_c, 9, 46, 0
5, 405125, Note_on_c, 9, 38, 0
5, 405153, Note_on_c, 9, 40, 46
5, 405185, Note_on_c, 9, 38, 78
5, 405609, Note_on_c, 9, 38, 0
5, 405629, Note_on_c, 9, 40, 0
5, 405633, Note_on_c, 9, 40, 50
5, 405665, Note_on_c, 9, 38, 121
5, 405677, Note_on_c, 9, 44, 114
5, 405853, Note_on_c, 9, 40, 0
5, 405889, Note_on_c, 9, 38, 0
5, 405961, Note_on_c, 9, 38, 55
5, 406037, Note_on_c, 9, 38, 0
5, 406089, Note_on_c, 9, 44, 0
5, 406113, Note_on_c, 9, 40, 41
5, 406145, Note_on_c, 9, 38, 65
5, 406333, Note_on_c, 9, 40, 0
5, 406389, Note_on_c, 9, 38, 0
5, 406441, Note_on_c, 9, 38, 68
5, 406441, Note_on_c, 9, 39, 97
5, 406501, Note_on_c, 9, 38, 0
5, 406529, Note_on_c, 9, 39, 0
5, 406593, Note_on_c, 9, 40, 37
5, 406637, Note_on_c, 9, 44, 115
5, 406813, Note_on_c, 9, 40, 0
5, 406921, Note_on_c, 9, 38, 61
5, 407033, Note_on_c, 9, 38, 0
5, 407065, Note_on_c, 9, 44, 0
5, 407073, Note_on_c, 9, 40, 46
5, 407105, Note_on_c, 9, 38, 73
5, 407493, Note_on_c, 9, 38, 0
5, 407549, Note_on_c, 9, 40, 0
5, 407553, Note_on_c, 9, 40, 50
5, 407585, Note_on_c, 9, 38, 119
5, 407597, Note_on_c, 9, 44, 111
5, 407773, Note_on_c, 9, 40, 0
5, 407785, Note_on_c, 9, 38, 0
5, 407881, Note_on_c, 9, 38, 67
5, 407941, Note_on_c, 9, 44, 0
5, 407985, Note_on_c, 9, 38, 0
5, 408033, Note_on_c, 9, 40, 41
5, 408065, Note_on_c, 9, 38, 62
5, 408209, Note_on_c, 9, 38, 0
5, 408253, Note_on_c, 9, 40, 0
5, 408361, Note_on_c, 9, 38, 76
5, 408513, Note_on_c, 9, 40, 37
5, 408525, Note_on_c, 9, 38, 0
5, 408557, Note_on_c, 9, 44, 126
5, 408969, Note_on_c, 9, 44, 0
5, 408989, Note_on_c, 9, 40, 0
5, 408993, Note_on_c, 9, 40, 46
5, 409025, Note_on_c, 9, 38, 80
5, 409441, Note_on_c, 9, 38, 0
5, 409469, Note_on_c, 9, 40, 0
5, 409473, Note_on_c, 9, 40, 50
5, 409505, Note_on_c, 9, 38, 121
5, 409517, Note_on_c, 9, 44, 114
5, 409937, Note_on_c, 9, 44, 0
5, 409949, Note_on_c, 9, 40, 0
5, 409953, Note_on_c, 9, 40, 41
5, 409985, Note_on_c, 9, 38, 43
5, 410021, Note_on_c, 9, 38, 0
5, 410429, Note_on_c, 9, 40, 0
5, 410433, Note_on_c, 9, 40, 37
5, 410465, Note_on_c, 9, 38, 121
5, 410477, Note_on_c, 9, 44, 111
5, 410581, Note_on_c, 9, 38, 0
5, 410873, Note_on_c, 9, 38, 0
5, 410885, Note_on_c, 9, 44, 0
5, 410909, Note_on_c, 9, 40, 0
5, 410913, Note_on_c, 9, 40, 46
5, 410945, Note_on_c, 9, 35, 110
5, 410945, Note_on_c, 9, 38, 41
5, 411389, Note_on_c, 9, 40, 0
5, 411393, Note_on_c, 9, 40, 50
5, 411425, Note_on_c, 9, 38, 111
5, 411437, Note_on_c, 9, 44, 119
5, 411461, Note_on_c, 9, 35, 0
5, 411505, Note_on_c, 9, 38, 0
5, 411613, Note_on_c, 9, 38, 0
5, 411613, Note_on_c, 9, 40, 0
5, 411721, Note_on_c, 9, 38, 95
5, 411801, Note_on_c, 9, 38, 0
5, 411861, Note_on_c, 9, 44, 0
5, 411873, Note_on_c, 9, 40, 41
5, 411905, Note_on_c, 9, 38, 81
5, 412301, Note_on_c, 9, 38, 0
5, 412349, Note_on_c, 9, 40, 0
5, 412353, Note_on_c, 9, 40, 37
5, 412385, Note_on_c, 9, 38, 105
5, 412397, Note_on_c, 9, 44, 123
5, 412549, Note_on_c, 9, 38, 0
5, 412573, Note_on_c, 9, 40, 0
5, 412681, Note_on_c, 9, 38, 69
5, 412757, Note_on_c, 9, 38, 0
5, 412809, Note_on_c, 9, 44, 0
5, 412833, Note_on_c, 9, 40, 46
5, 412865, Note_on_c, 9, 38, 69
5, 413237, Note_on_c, 9, 38, 0
5, 413309, Note_on_c, 9, 40, 0
5, 413313, Note_on_c, 9, 40, 50
5, 413345, Note_on_c, 9, 38, 101
5, 413357, Note_on_c, 9, 44, 111
5, 413533, Note_on_c, 9, 38, 0
5, 413533, Note_on_c, 9, 40, 0
5, 413641, Note_on_c, 9, 38, 105
5, 413745, Note_on_c, 9, 38, 0
5, 413753, Note_on_c, 9, 44, 0
5, 413793, Note_on_c, 9, 40, 41
5, 413825, Note_on_c, 9, 38, 87
5, 414213, Note_on_c, 9, 38, 0
5, 414269, Note_on_c, 9, 40, 0
5, 414273, Note_on_c, 9, 40, 37
5, 414305, Note_on_c, 9, 38, 97
5, 414317, Note_on_c, 9, 44, 114
5, 414485, Note_on_c, 9, 38, 0
5, 414493, Note_on_c, 9, 40, 0
5, 414601, Note_on_c, 9, 38, 105
5, 414705, Note_on_c, 9, 44, 0
5, 414713, Note_on_c, 9, 38, 0
5, 414753, Note_on_c, 9, 40, 46
5, 414785, Note_on_c, 9, 38, 61
5, 415229, Note_on_c, 9, 40, 0
5, 415233, Note_on_c, 9, 40, 50
5, 415241, Note_on_c, 9, 38, 0
5, 415265, Note_on_c, 9, 38, 121
5, 415277, Note_on_c, 9, 44, 120
5, 415681, Note_on_c, 9, 44, 0
5, 415709, Note_on_c, 9, 40, 0
5, 415713, Note_on_c, 9, 40, 41
5, 415745, Note_on_c, 9, 38, 71
5, 415801, Note_on_c, 9, 38, 0
5, 415933, Note_on_c, 9, 40, 0
5, 415945, Note_on_c, 9, 38, 0
5, 416041, Note_on_c, 9, 38, 105
5, 416145, Note_on_c, 9, 38, 0
5, 416193, Note_on_c, 9, 40, 37
5, 416237, Note_on_c, 9, 44, 127
5, 416625, Note_on_c, 9, 44, 0
5, 416669, Note_on_c, 9, 40, 0
5, 416673, Note_on_c, 9, 40, 46
5, 416705, Note_on_c, 9, 38, 73
5, 416893, Note_on_c, 9, 40, 0
5, 416901, Note_on_c, 9, 38, 0
5, 417001, Note_on_c, 9, 39, 117
5, 417105, Note_on_c, 9, 39, 0
5, 417153, Note_on_c, 9, 40, 50
5, 417185, Note_on_c, 9, 38, 50
5, 417197, Note_on_c, 9, 44, 96
5, 417629, Note_on_c, 9, 40, 0
5, 417633, Note_on_c, 9, 40, 41
5, 417665, Note_on_c, 9, 38, 85
5, 417701, Note_on_c, 9, 38, 0
5, 417781, Note_on_c, 9, 44, 0
5, 417821, Note_on_c, 9, 38, 0
5, 417853, Note_on_c, 9, 40, 0
5, 417961, Note_on_c, 9, 39, 115
5, 418065, Note_on_c, 9, 39, 0
5, 418113, Note_on_c, 9, 40, 37
5, 418145, Note_on_c, 9, 46, 85
5, 418333, Note_on_c, 9, 40, 0
5, 418441, Note_on_c, 9, 38, 92
5, 418509, Note_on_c, 9, 46, 0
5, 418521, Note_on_c, 9, 38, 0
5, 418593, Note_on_c, 9, 40, 46
5, 418625, Note_on_c, 9, 35, 110
5, 418625, Note_on_c, 9, 53, 80
5, 418637, Note_on_c, 9, 44, 76
5, 418981, Note_on_c, 9, 53, 0
5, 419069, Note_on_c, 9, 40, 0
5, 419073, Note_on_c, 9, 40, 50
5, 419105, Note_on_c, 9, 38, 107
5, 419117, Note_on_c, 9, 44, 127
5, 419141, Note_on_c, 9, 35, 0
5, 419201, Note_on_c, 9, 44, 0
5, 419501, Note_on_c, 9, 44, 0
5, 419549, Note_on_c, 9, 40, 0
5, 419553, Note_on_c, 9, 40, 41
5, 419585, Note_on_c, 9, 38, 67
5, 419665, Note_on_c, 9, 38, 0
5, 420025, Note_on_c, 9, 38, 0
5, 420029, Note_on_c, 9, 40, 0
5, 420033, Note_on_c, 9, 40, 37
5, 420065, Note_on_c, 9, 38, 113
5, 420077, Note_on_c, 9, 44, 127
5, 420253, Note_on_c, 9, 40, 0
5, 420293, Note_on_c, 9, 38, 0
5, 420361, Note_on_c, 9, 38, 86
5, 420461, Note_on_c, 9, 38, 0
5, 420497, Note_on_c, 9, 44, 0
5, 420513, Note_on_c, 9, 40, 46
5, 420545, Note_on_c, 9, 38, 83
5, 420989, Note_on_c, 9, 40, 0
5, 420993, Note_on_c, 9, 40, 50
5, 421025, Note_on_c, 9, 38, 113
5, 421037, Note_on_c, 9, 44, 102
5, 421045, Note_on_c, 9, 38, 0
5, 421465, Note_on_c, 9, 44, 0
5, 421469, Note_on_c, 9, 40, 0
5, 421473, Note_on_c, 9, 40, 41
5, 421505, Note_on_c, 9, 38, 63
5, 421629, Note_on_c, 9, 38, 0
5, 421805, Note_on_c, 9, 39, 110
5, 421913, Note_on_c, 9, 39, 0
5, 421913, Note_on_c, 9, 38, 0
5, 421949, Note_on_c, 9, 40, 0
5, 421953, Note_on_c, 9, 40, 37
5, 421985, Note_on_c, 9, 38, 113
5, 421997, Note_on_c, 9, 44, 126
5, 422173, Note_on_c, 9, 40, 0
5, 422205, Note_on_c, 9, 38, 0
5, 422281, Note_on_c, 9, 38, 77
5, 422369, Note_on_c, 9, 38, 0
5, 422409, Note_on_c, 9, 44, 0
5, 422433, Note_on_c, 9, 40, 46
5, 422465, Note_on_c, 9, 38, 69
5, 422829, Note_on_c, 9, 38, 0
5, 422909, Note_on_c, 9, 40, 0
5, 422913, Note_on_c, 9, 40, 50
5, 422945, Note_on_c, 9, 38, 111
5, 422957, Note_on_c, 9, 44, 113
5, 423361, Note_on_c, 9, 38, 0
5, 423377, Note_on_c, 9, 44, 0
5, 423389, Note_on_c, 9, 40, 0
5, 423393, Note_on_c, 9, 40, 41
5, 423425, Note_on_c, 9, 38, 71
5, 423833, Note_on_c, 9, 38, 0
5, 423869, Note_on_c, 9, 40, 0
5, 423873, Note_on_c, 9, 40, 37
5, 423905, Note_on_c, 9, 38, 95
5, 423917, Note_on_c, 9, 44, 113
5, 424093, Note_on_c, 9, 40, 0
5, 424141, Note_on_c, 9, 38, 0
5, 424201, Note_on_c, 9, 38, 107
5, 424289, Note_on_c, 9, 38, 0
5, 424337, Note_on_c, 9, 44, 0
5, 424353, Note_on_c, 9, 40, 46
5, 424385, Note_on_c, 9, 38, 93
5, 424797, Note_on_c, 9, 38, 0
5, 424829, Note_on_c, 9, 40, 0
5, 424833, Note_on_c, 9, 40, 50
5, 424865, Note_on_c, 9, 38, 99
5, 424877, Note_on_c, 9, 44, 118
5, 425041, Note_on_c, 9, 38, 0
5, 425053, Note_on_c, 9, 40, 0
5, 425161, Note_on_c, 9, 38, 89
5, 425237, Note_on_c, 9, 38, 0
5, 425285, Note_on_c, 9, 44, 0
5, 425313, Note_on_c, 9, 40, 41
5, 425345, Note_on_c, 9, 38, 73
5, 425789, Note_on_c, 9, 40, 0
5, 425793, Note_on_c, 9, 40, 37
5, 425825, Note_on_c, 9, 38, 97
5, 425829, Note_on_c, 9, 38, 0
5, 425837, Note_on_c, 9, 44, 119
5, 425989, Note_on_c, 9, 44, 0
5, 426013, Note_on_c, 9, 40, 0
5, 426029, Note_on_c, 9, 38, 0
5, 426121, Note_on_c, 9, 39, 120
5, 426217, Note_on_c, 9, 39, 0
5, 426273, Note_on_c, 9, 40, 46
5, 426305, Note_on_c, 9, 38, 45
5, 426669, Note_on_c, 9, 38, 0
5, 426749, Note_on_c, 9, 40, 0
5, 426753, Note_on_c, 9, 40, 50
5, 426785, Note_on_c, 9, 38, 107
5, 426797, Note_on_c, 9, 44, 123
5, 427165, Note_on_c, 9, 44, 0
5, 427209, Note_on_c, 9, 38, 0
5, 427229, Note_on_c, 9, 40, 0
5, 427233, Note_on_c, 9, 40, 41
5, 427265, Note_on_c, 9, 38, 64
5, 427709, Note_on_c, 9, 40, 0
5, 427713, Note_on_c, 9, 40, 37
5, 427745, Note_on_c, 9, 38, 111
5, 427757, Note_on_c, 9, 38, 0
5, 427757, Note_on_c, 9, 44, 118
5, 427933, Note_on_c, 9, 40, 0
5, 427965, Note_on_c, 9, 38, 0
5, 428041, Note_on_c, 9, 38, 68
5, 428141, Note_on_c, 9, 38, 0
5, 428145, Note_on_c, 9, 44, 0
5, 428193, Note_on_c, 9, 40, 46
5, 428225, Note_on_c, 9, 38, 71
5, 428661, Note_on_c, 9, 38, 0
5, 428669, Note_on_c, 9, 40, 0
5, 428673, Note_on_c, 9, 40, 50
5, 428705, Note_on_c, 9, 38, 117
5, 428717, Note_on_c, 9, 44, 115
5, 429129, Note_on_c, 9, 44, 0
5, 429149, Note_on_c, 9, 40, 0
5, 429153, Note_on_c, 9, 40, 41
5, 429185, Note_on_c, 9, 38, 63
5, 429201, Note_on_c, 9, 38, 0
5, 429629, Note_on_c, 9, 40, 0
5, 429633, Note_on_c, 9, 40, 37
5, 429665, Note_on_c, 9, 38, 107
5, 429669, Note_on_c, 9, 38, 0
5, 429677, Note_on_c, 9, 44, 127
5, 429853, Note_on_c, 9, 40, 0
5, 429885, Note_on_c, 9, 38, 0
5, 429961, Note_on_c, 9, 38, 87
5, 430049, Note_on_c, 9, 38, 0
5, 430081, Note_on_c, 9, 44, 0
5, 430113, Note_on_c, 9, 40, 46
5, 430145, Note_on_c, 9, 38, 75
5, 430445, Note_on_c, 9, 39, 110
5, 430525, Note_on_c, 9, 38, 0
5, 430553, Note_on_c, 9, 39, 0
5, 430589, Note_on_c, 9, 40, 0
5, 430593, Note_on_c, 9, 40, 50
5, 430625, Note_on_c, 9, 38, 111
5, 430637, Note_on_c, 9, 44, 123
5, 431033, Note_on_c, 9, 44, 0
5, 431037, Note_on_c, 9, 38, 0
5, 431069, Note_on_c, 9, 40, 0
5, 431073, Note_on_c, 9, 40, 41
5, 431105, Note_on_c, 9, 35, 110
5, 431469, Note_on_c, 9, 35, 0
5, 431549, Note_on_c, 9, 40, 0
5, 431553, Note_on_c, 9, 40, 37
5, 431585, Note_on_c, 9, 38, 119
5, 431597, Note_on_c, 9, 44, 115
5, 431773, Note_on_c, 9, 40, 0
5, 431809, Note_on_c, 9, 38, 0
5, 431881, Note_on_c, 9, 38, 68
5, 431885, Note_on_c, 9, 35, 90
5, 431933, Note_on_c, 9, 38, 0
5, 431985, Note_on_c, 9, 44, 0
5, 431993, Note_on_c, 9, 35, 0
5, 432033, Note_on_c, 9, 40, 46
5, 432509, Note_on_c, 9, 40, 0
5, 432513, Note_on_c, 9, 40, 50
5, 432557, Note_on_c, 9, 44, 127
5, 432845, Note_on_c, 9, 39, 110
5, 432953, Note_on_c, 9, 39, 0
5, 432957, Note_on_c, 9, 44, 0
5, 432989, Note_on_c, 9, 40, 0
5, 432993, Note_on_c, 9, 40, 41
5, 433325, Note_on_c, 9, 39, 110
5, 433433, Note_on_c, 9, 39, 0
5, 433469, Note_on_c, 9, 40, 0
5, 433473, Note_on_c, 9, 40, 37
5, 433517, Note_on_c, 9, 44, 123
5, 433645, Note_on_c, 9, 44, 0
5, 433949, Note_on_c, 9, 40, 0
5, 433949, End_track
0, 0, End_of_file
