0, 0, Header, 1, 9, 120
1, 0, Start_track
1, 0, Title_t, "The Peacocks"
1, 0, Text_t, "Jimmy Rowles"
1, 0, Text_t, "Doug McKenzie (dougmck@pipeline.com.au)\012"
1, 0, System_exclusive, 10, 65, 16, 66, 18, 64, 0, 127, 0, 65, 247
1, 0, Time_signature, 4, 2, 24, 8
1, 0, Key_signature, -3, "major"
1, 0, Tempo, 1000000
1, 0, End_track
2, 0, Start_track
2, 0, Title_t, "dougmck@pipeline.com.au"
2, 0, Control_c, 0, 64, 127
2, 123, Control_c, 0, 7, 110
2, 480, Note_on_c, 0, 74, 42
2, 482, Note_on_c, 0, 67, 47
2, 483, Control_c, 0, 64, 0
2, 483, Note_on_c, 0, 55, 34
2, 484, Note_on_c, 0, 48, 35
2, 490, Note_on_c, 0, 63, 15
2, 515, Control_c, 0, 64, 127
2, 533, Note_on_c, 0, 67, 0
2, 538, Note_on_c, 0, 74, 0
2, 538, Note_on_c, 0, 63, 0
2, 577, Note_on_c, 0, 77, 82
2, 598, Note_on_c, 0, 48, 0
2, 644, Note_on_c, 0, 62, 27
2, 648, Note_on_c, 0, 77, 0
2, 685, Note_on_c, 0, 62, 0
2, 703, Note_on_c, 0, 63, 23
2, 712, Note_on_c, 0, 63, 0
2, 721, Note_on_c, 0, 74, 40
2, 731, Note_on_c, 0, 74, 0
2, 740, Note_on_c, 0, 74, 32
2, 744, Note_on_c, 0, 48, 35
2, 748, Control_c, 0, 64, 0
2, 750, Note_on_c, 0, 55, 0
2, 781, Note_on_c, 0, 68, 46
2, 785, Note_on_c, 0, 56, 27
2, 787, Control_c, 0, 64, 127
2, 871, Note_on_c, 0, 62, 24
2, 919, Note_on_c, 0, 74, 0
2, 932, Note_on_c, 0, 48, 0
2, 934, Note_on_c, 0, 62, 0
2, 947, Note_on_c, 0, 68, 0
2, 949, Note_on_c, 0, 75, 78
2, 970, Note_on_c, 0, 75, 0
2, 976, Note_on_c, 0, 56, 0
2, 977, Note_on_c, 0, 74, 67
2, 977, Note_on_c, 0, 48, 51
2, 980, Control_c, 0, 64, 0
2, 1000, Control_c, 0, 64, 127
2, 1017, Note_on_c, 0, 74, 0
2, 1017, Note_on_c, 0, 67, 36
2, 1046, Note_on_c, 0, 74, 52
2, 1050, Note_on_c, 0, 67, 0
2, 1069, Note_on_c, 0, 74, 0
2, 1070, Note_on_c, 0, 67, 40
2, 1097, Note_on_c, 0, 74, 46
2, 1104, Note_on_c, 0, 67, 0
2, 1120, Note_on_c, 0, 74, 0
2, 1124, Note_on_c, 0, 67, 30
2, 1146, Note_on_c, 0, 74, 38
2, 1147, Note_on_c, 0, 67, 0
2, 1164, Note_on_c, 0, 74, 0
2, 1166, Note_on_c, 0, 67, 36
2, 1183, Note_on_c, 0, 67, 0
2, 1184, Note_on_c, 0, 48, 0
2, 1185, Note_on_c, 0, 74, 44
2, 1200, Note_on_c, 0, 74, 0
2, 1201, Note_on_c, 0, 67, 29
2, 1210, Note_on_c, 0, 67, 0
2, 1220, Note_on_c, 0, 48, 30
2, 1220, Note_on_c, 0, 74, 38
2, 1222, Note_on_c, 0, 56, 27
2, 1223, Note_on_c, 0, 60, 33
2, 1230, Control_c, 0, 64, 0
2, 1249, Note_on_c, 0, 68, 43
2, 1261, Control_c, 0, 64, 127
2, 1289, Note_on_c, 0, 60, 0
2, 1294, Note_on_c, 0, 56, 0
2, 1298, Note_on_c, 0, 68, 0
2, 1334, Note_on_c, 0, 63, 30
2, 1336, Note_on_c, 0, 56, 15
2, 1337, Note_on_c, 0, 60, 24
2, 1401, Note_on_c, 0, 56, 0
2, 1404, Note_on_c, 0, 60, 0
2, 1408, Note_on_c, 0, 68, 21
2, 1409, Note_on_c, 0, 48, 0
2, 1419, Note_on_c, 0, 56, 12
2, 1433, Note_on_c, 0, 63, 0
2, 1436, Note_on_c, 0, 74, 0
2, 1437, Note_on_c, 0, 68, 0
2, 1441, Note_on_c, 0, 56, 0
2, 1450, Note_on_c, 0, 67, 39
2, 1451, Note_on_c, 0, 63, 25
2, 1452, Note_on_c, 0, 55, 34
2, 1453, Note_on_c, 0, 48, 35
2, 1455, Control_c, 0, 64, 0
2, 1477, Control_c, 0, 64, 127
2, 1504, Note_on_c, 0, 67, 0
2, 1509, Note_on_c, 0, 63, 0
2, 1553, Note_on_c, 0, 74, 105
2, 1571, Note_on_c, 0, 74, 0
2, 1572, Note_on_c, 0, 48, 0
2, 1576, Note_on_c, 0, 55, 0
2, 1592, Note_on_c, 0, 77, 96
2, 1639, Note_on_c, 0, 63, 37
2, 1639, Note_on_c, 0, 71, 56
2, 1641, Note_on_c, 0, 59, 38
2, 1641, Control_c, 0, 64, 0
2, 1642, Note_on_c, 0, 67, 25
2, 1655, Control_c, 0, 64, 127
2, 1672, Note_on_c, 0, 67, 0
2, 1677, Note_on_c, 0, 59, 0
2, 1678, Note_on_c, 0, 63, 0
2, 1691, Note_on_c, 0, 71, 0
2, 1713, Note_on_c, 0, 70, 55
2, 1714, Note_on_c, 0, 61, 31
2, 1715, Note_on_c, 0, 65, 30
2, 1717, Note_on_c, 0, 56, 23
2, 1717, Control_c, 0, 64, 0
2, 1718, Note_on_c, 0, 60, 24
2, 1751, Control_c, 0, 64, 127
2, 1776, Note_on_c, 0, 65, 0
2, 1780, Note_on_c, 0, 60, 0
2, 1786, Note_on_c, 0, 61, 0
2, 1791, Note_on_c, 0, 56, 0
2, 1820, Note_on_c, 0, 63, 32
2, 1823, Note_on_c, 0, 58, 28
2, 1824, Note_on_c, 0, 59, 44
2, 1824, Control_c, 0, 64, 0
2, 1825, Note_on_c, 0, 54, 35
2, 1872, Control_c, 0, 64, 127
2, 1880, Note_on_c, 0, 77, 0
2, 1898, Note_on_c, 0, 63, 0
2, 1901, Note_on_c, 0, 59, 0
2, 1903, Note_on_c, 0, 70, 0
2, 1907, Note_on_c, 0, 58, 0
2, 1908, Note_on_c, 0, 75, 65
2, 1920, Note_on_c, 0, 54, 0
2, 1933, Note_on_c, 0, 75, 0
2, 1933, Note_on_c, 0, 55, 43
2, 1936, Note_on_c, 0, 74, 55
2, 1937, Control_c, 0, 64, 0
2, 1938, Note_on_c, 0, 58, 23
2, 1938, Note_on_c, 0, 62, 34
2, 1939, Note_on_c, 0, 53, 28
2, 1957, Note_on_c, 0, 74, 0
2, 1961, Note_on_c, 0, 67, 30
2, 1975, Note_on_c, 0, 67, 0
2, 1978, Note_on_c, 0, 74, 56
2, 1995, Control_c, 0, 64, 127
2, 1999, Note_on_c, 0, 74, 0
2, 2000, Note_on_c, 0, 67, 31
2, 2014, Note_on_c, 0, 67, 0
2, 2020, Note_on_c, 0, 74, 47
2, 2027, Note_on_c, 0, 62, 0
2, 2035, Note_on_c, 0, 58, 0
2, 2039, Note_on_c, 0, 74, 0
2, 2041, Note_on_c, 0, 67, 33
2, 2053, Note_on_c, 0, 67, 0
2, 2059, Note_on_c, 0, 62, 32
2, 2061, Note_on_c, 0, 74, 43
2, 2061, Note_on_c, 0, 58, 28
2, 2123, Note_on_c, 0, 62, 0
2, 2123, Note_on_c, 0, 53, 0
2, 2125, Note_on_c, 0, 55, 0
2, 2134, Note_on_c, 0, 58, 0
2, 2169, Note_on_c, 0, 63, 30
2, 2170, Control_c, 0, 64, 0
2, 2171, Note_on_c, 0, 52, 29
2, 2171, Note_on_c, 0, 58, 25
2, 2174, Note_on_c, 0, 56, 18
2, 2193, Control_c, 0, 64, 127
2, 2195, Note_on_c, 0, 74, 0
2, 2240, Note_on_c, 0, 87, 82
2, 2292, Note_on_c, 0, 85, 46
2, 2300, Note_on_c, 0, 87, 0
2, 2302, Control_c, 0, 64, 0
2, 2311, Note_on_c, 0, 82, 25
2, 2318, Note_on_c, 0, 80, 39
2, 2320, Note_on_c, 0, 85, 0
2, 2324, Note_on_c, 0, 82, 0
2, 2331, Note_on_c, 0, 63, 0
2, 2331, Note_on_c, 0, 80, 0
2, 2338, Note_on_c, 0, 76, 24
2, 2345, Note_on_c, 0, 76, 0
2, 2364, Note_on_c, 0, 75, 52
2, 2366, Note_on_c, 0, 63, 26
2, 2378, Note_on_c, 0, 75, 0
2, 2385, Note_on_c, 0, 73, 31
2, 2386, Note_on_c, 0, 52, 0
2, 2396, Note_on_c, 0, 73, 0
2, 2398, Note_on_c, 0, 58, 0
2, 2403, Note_on_c, 0, 72, 35
2, 2406, Note_on_c, 0, 63, 0
2, 2409, Note_on_c, 0, 72, 0
2, 2411, Note_on_c, 0, 56, 0
2, 2414, Control_c, 0, 64, 127
2, 2418, Note_on_c, 0, 70, 45
2, 2422, Note_on_c, 0, 63, 23
2, 2425, Note_on_c, 0, 60, 35
2, 2429, Note_on_c, 0, 53, 17
2, 2430, Control_c, 0, 64, 0
2, 2436, Note_on_c, 0, 70, 0
2, 2438, Note_on_c, 0, 68, 31
2, 2453, Note_on_c, 0, 68, 0
2, 2475, Note_on_c, 0, 70, 43
2, 2511, Note_on_c, 0, 67, 41
2, 2512, Note_on_c, 0, 70, 0
2, 2515, Control_c, 0, 64, 127
2, 2527, Note_on_c, 0, 67, 0
2, 2532, Note_on_c, 0, 70, 78
2, 2556, Note_on_c, 0, 65, 58
2, 2561, Note_on_c, 0, 70, 0
2, 2570, Note_on_c, 0, 65, 0
2, 2575, Note_on_c, 0, 63, 0
2, 2576, Note_on_c, 0, 67, 66
2, 2583, Note_on_c, 0, 56, 1
2, 2595, Note_on_c, 0, 63, 56
2, 2609, Note_on_c, 0, 63, 0
2, 2609, Note_on_c, 0, 67, 0
2, 2614, Note_on_c, 0, 65, 67
2, 2624, Note_on_c, 0, 53, 0
2, 2630, Note_on_c, 0, 60, 0
2, 2632, Note_on_c, 0, 56, 0
2, 2632, Note_on_c, 0, 65, 0
2, 2636, Note_on_c, 0, 62, 37
2, 2664, Note_on_c, 0, 60, 24
2, 2664, Note_on_c, 0, 56, 25
2, 2665, Note_on_c, 0, 53, 22
2, 2665, Control_c, 0, 64, 0
2, 2695, Control_c, 0, 64, 127
2, 2740, Note_on_c, 0, 60, 0
2, 2757, Note_on_c, 0, 62, 0
2, 2770, Note_on_c, 0, 60, 29
2, 2804, Note_on_c, 0, 60, 0
2, 2846, Note_on_c, 0, 53, 0
2, 2847, Note_on_c, 0, 56, 0
2, 2858, Note_on_c, 0, 60, 54
2, 2863, Note_on_c, 0, 60, 0
2, 2884, Note_on_c, 0, 53, 32
2, 2884, Note_on_c, 0, 60, 37
2, 2885, Note_on_c, 0, 63, 21
2, 2886, Note_on_c, 0, 56, 27
2, 2888, Control_c, 0, 64, 0
2, 2915, Control_c, 0, 64, 127
2, 2963, Note_on_c, 0, 67, 113
2, 2989, Note_on_c, 0, 67, 0
2, 2989, Note_on_c, 0, 63, 0
2, 2994, Note_on_c, 0, 70, 87
2, 3020, Note_on_c, 0, 70, 0
2, 3023, Note_on_c, 0, 63, 34
2, 3024, Note_on_c, 0, 65, 82
2, 3026, Control_c, 0, 64, 0
2, 3045, Note_on_c, 0, 67, 74
2, 3047, Note_on_c, 0, 65, 0
2, 3048, Control_c, 0, 64, 127
2, 3063, Note_on_c, 0, 67, 0
2, 3080, Note_on_c, 0, 53, 0
2, 3085, Note_on_c, 0, 63, 0
2, 3088, Note_on_c, 0, 65, 59
2, 3093, Note_on_c, 0, 60, 0
2, 3104, Note_on_c, 0, 56, 0
2, 3113, Note_on_c, 0, 62, 55
2, 3116, Control_c, 0, 64, 0
2, 3139, Control_c, 0, 64, 127
2, 3197, Note_on_c, 0, 62, 0
2, 3304, Note_on_c, 0, 60, 57
2, 3305, Note_on_c, 0, 56, 33
2, 3307, Control_c, 0, 64, 0
2, 3307, Note_on_c, 0, 51, 30
2, 3314, Control_c, 0, 64, 127
2, 3336, Note_on_c, 0, 56, 0
2, 3341, Note_on_c, 0, 60, 0
2, 3345, Note_on_c, 0, 65, 0
2, 3350, Note_on_c, 0, 51, 0
2, 3365, Control_c, 0, 64, 0
2, 3367, Note_on_c, 0, 60, 46
2, 3367, Note_on_c, 0, 54, 26
2, 3368, Note_on_c, 0, 50, 30
2, 3383, Control_c, 0, 64, 127
2, 3398, Note_on_c, 0, 54, 0
2, 3420, Note_on_c, 0, 60, 0
2, 3466, Note_on_c, 0, 60, 51
2, 3520, Note_on_c, 0, 62, 47
2, 3535, Note_on_c, 0, 62, 0
2, 3538, Note_on_c, 0, 63, 60
2, 3545, Note_on_c, 0, 63, 0
2, 3551, Note_on_c, 0, 65, 74
2, 3565, Note_on_c, 0, 67, 77
2, 3566, Note_on_c, 0, 65, 0
2, 3566, Note_on_c, 0, 50, 0
2, 3567, Note_on_c, 0, 60, 0
2, 3578, Note_on_c, 0, 68, 74
2, 3581, Note_on_c, 0, 67, 0
2, 3591, Note_on_c, 0, 68, 0
2, 3591, Note_on_c, 0, 70, 57
2, 3597, Note_on_c, 0, 70, 0
2, 3600, Note_on_c, 0, 72, 66
2, 3612, Note_on_c, 0, 74, 62
2, 3613, Note_on_c, 0, 72, 0
2, 3624, Note_on_c, 0, 75, 71
2, 3625, Note_on_c, 0, 74, 0
2, 3631, Note_on_c, 0, 75, 0
2, 3635, Note_on_c, 0, 77, 40
2, 3649, Note_on_c, 0, 79, 44
2, 3650, Note_on_c, 0, 77, 0
2, 3661, Note_on_c, 0, 80, 63
2, 3663, Note_on_c, 0, 79, 0
2, 3671, Note_on_c, 0, 80, 0
2, 3673, Note_on_c, 0, 59, 40
2, 3674, Note_on_c, 0, 64, 46
2, 3674, Note_on_c, 0, 82, 78
2, 3676, Note_on_c, 0, 53, 39
2, 3680, Control_c, 0, 64, 0
2, 3713, Control_c, 0, 64, 127
2, 3790, Note_on_c, 0, 64, 0
2, 3792, Note_on_c, 0, 59, 0
2, 3798, Note_on_c, 0, 53, 0
2, 3819, Note_on_c, 0, 82, 0
2, 3819, Note_on_c, 0, 80, 52
2, 3845, Note_on_c, 0, 80, 0
2, 3849, Note_on_c, 0, 79, 41
2, 3851, Note_on_c, 0, 51, 25
2, 3852, Note_on_c, 0, 57, 33
2, 3854, Note_on_c, 0, 62, 10
2, 3854, Control_c, 0, 64, 0
2, 3855, Note_on_c, 0, 55, 18
2, 3879, Control_c, 0, 64, 127
2, 3921, Note_on_c, 0, 57, 0
2, 3926, Note_on_c, 0, 62, 0
2, 3931, Note_on_c, 0, 55, 0
2, 3975, Note_on_c, 0, 62, 29
2, 3977, Note_on_c, 0, 59, 25
2, 3978, Note_on_c, 0, 55, 22
2, 4034, Note_on_c, 0, 59, 0
2, 4036, Note_on_c, 0, 55, 0
2, 4039, Note_on_c, 0, 51, 0
2, 4048, Note_on_c, 0, 62, 0
2, 4058, Note_on_c, 0, 79, 0
2, 4063, Note_on_c, 0, 67, 40
2, 4067, Note_on_c, 0, 67, 0
2, 4092, Note_on_c, 0, 82, 56
2, 4096, Note_on_c, 0, 79, 56
2, 4097, Note_on_c, 0, 59, 36
2, 4100, Note_on_c, 0, 64, 44
2, 4101, Note_on_c, 0, 53, 35
2, 4101, Note_on_c, 0, 75, 58
2, 4101, Control_c, 0, 64, 0
2, 4104, Note_on_c, 0, 70, 39
2, 4130, Control_c, 0, 64, 127
2, 4146, Note_on_c, 0, 79, 0
2, 4147, Note_on_c, 0, 70, 0
2, 4149, Note_on_c, 0, 82, 0
2, 4153, Note_on_c, 0, 75, 0
2, 4158, Note_on_c, 0, 80, 42
2, 4161, Note_on_c, 0, 75, 42
2, 4162, Note_on_c, 0, 68, 35
2, 4177, Note_on_c, 0, 64, 0
2, 4184, Note_on_c, 0, 53, 0
2, 4185, Note_on_c, 0, 75, 0
2, 4188, Note_on_c, 0, 59, 0
2, 4190, Note_on_c, 0, 68, 0
2, 4191, Note_on_c, 0, 80, 0
2, 4218, Note_on_c, 0, 79, 36
2, 4218, Note_on_c, 0, 59, 34
2, 4218, Note_on_c, 0, 75, 26
2, 4218, Note_on_c, 0, 67, 28
2, 4219, Note_on_c, 0, 63, 29
2, 4220, Note_on_c, 0, 71, 37
2, 4220, Control_c, 0, 64, 0
2, 4223, Note_on_c, 0, 53, 20
2, 4238, Control_c, 0, 64, 127
2, 4265, Note_on_c, 0, 53, 0
2, 4268, Note_on_c, 0, 59, 0
2, 4274, Note_on_c, 0, 71, 0
2, 4276, Note_on_c, 0, 63, 0
2, 4286, Note_on_c, 0, 75, 0
2, 4291, Note_on_c, 0, 67, 0
2, 4296, Note_on_c, 0, 79, 0
2, 4312, Note_on_c, 0, 71, 32
2, 4327, Note_on_c, 0, 71, 0
2, 4335, Note_on_c, 0, 67, 29
2, 4335, Note_on_c, 0, 63, 23
2, 4336, Note_on_c, 0, 62, 28
2, 4337, Note_on_c, 0, 60, 32
2, 4338, Note_on_c, 0, 74, 40
2, 4339, Control_c, 0, 64, 0
2, 4367, Note_on_c, 0, 74, 0
2, 4368, Note_on_c, 0, 77, 50
2, 4370, Control_c, 0, 64, 127
2, 4405, Note_on_c, 0, 62, 0
2, 4410, Note_on_c, 0, 67, 0
2, 4413, Note_on_c, 0, 63, 0
2, 4446, Note_on_c, 0, 67, 30
2, 4446, Note_on_c, 0, 63, 26
2, 4447, Note_on_c, 0, 62, 29
2, 4461, Note_on_c, 0, 62, 0
2, 4461, Note_on_c, 0, 67, 0
2, 4463, Note_on_c, 0, 63, 0
2, 4470, Note_on_c, 0, 60, 0
2, 4538, Note_on_c, 0, 55, 24
2, 4550, Note_on_c, 0, 55, 0
2, 4562, Note_on_c, 0, 56, 33
2, 4563, Note_on_c, 0, 51, 42
2, 4566, Note_on_c, 0, 48, 38
2, 4567, Control_c, 0, 64, 0
2, 4598, Control_c, 0, 64, 127
2, 4641, Note_on_c, 0, 56, 0
2, 4653, Note_on_c, 0, 77, 0
2, 4737, Note_on_c, 0, 75, 92
2, 4779, Note_on_c, 0, 51, 0
2, 4781, Note_on_c, 0, 75, 0
2, 4792, Note_on_c, 0, 48, 0
2, 4798, Note_on_c, 0, 74, 55
2, 4799, Note_on_c, 0, 63, 44
2, 4800, Note_on_c, 0, 55, 33
2, 4802, Note_on_c, 0, 48, 8
2, 4803, Note_on_c, 0, 67, 27
2, 4803, Control_c, 0, 64, 0
2, 4816, Note_on_c, 0, 67, 0
2, 4832, Control_c, 0, 64, 127
2, 4838, Note_on_c, 0, 74, 0
2, 4839, Note_on_c, 0, 67, 39
2, 4853, Note_on_c, 0, 48, 0
2, 4867, Note_on_c, 0, 74, 51
2, 4872, Note_on_c, 0, 63, 0
2, 4873, Note_on_c, 0, 67, 0
2, 4884, Note_on_c, 0, 55, 0
2, 4893, Note_on_c, 0, 74, 0
2, 4894, Note_on_c, 0, 63, 23
2, 4920, Note_on_c, 0, 74, 35
2, 4923, Note_on_c, 0, 63, 0
2, 4926, Note_on_c, 0, 62, 40
2, 4943, Note_on_c, 0, 63, 27
2, 4945, Note_on_c, 0, 74, 0
2, 4965, Note_on_c, 0, 67, 39
2, 4987, Note_on_c, 0, 74, 60
2, 4988, Note_on_c, 0, 62, 0
2, 4995, Note_on_c, 0, 63, 0
2, 5004, Note_on_c, 0, 67, 0
2, 5008, Note_on_c, 0, 63, 34
2, 5018, Note_on_c, 0, 74, 0
2, 5028, Note_on_c, 0, 67, 40
2, 5045, Note_on_c, 0, 67, 0
2, 5047, Note_on_c, 0, 74, 48
2, 5049, Note_on_c, 0, 56, 25
2, 5053, Note_on_c, 0, 48, 26
2, 5062, Control_c, 0, 64, 0
2, 5063, Note_on_c, 0, 63, 0
2, 5071, Note_on_c, 0, 63, 28
2, 5073, Note_on_c, 0, 68, 50
2, 5091, Control_c, 0, 64, 127
2, 5133, Note_on_c, 0, 68, 0
2, 5147, Note_on_c, 0, 56, 0
2, 5149, Note_on_c, 0, 63, 0
2, 5224, Note_on_c, 0, 68, 40
2, 5225, Note_on_c, 0, 74, 0
2, 5225, Note_on_c, 0, 48, 0
2, 5234, Note_on_c, 0, 63, 3
2, 5270, Note_on_c, 0, 63, 0
2, 5279, Note_on_c, 0, 68, 0
2, 5287, Note_on_c, 0, 67, 47
2, 5288, Note_on_c, 0, 48, 27
2, 5288, Note_on_c, 0, 55, 30
2, 5290, Note_on_c, 0, 60, 24
2, 5293, Control_c, 0, 64, 0
2, 5308, Control_c, 0, 64, 127
2, 5316, Note_on_c, 0, 67, 0
2, 5318, Note_on_c, 0, 74, 43
2, 5328, Note_on_c, 0, 74, 0
2, 5348, Note_on_c, 0, 77, 80
2, 5367, Note_on_c, 0, 48, 0
2, 5371, Note_on_c, 0, 55, 0
2, 5375, Note_on_c, 0, 60, 0
2, 5375, Note_on_c, 0, 77, 0
2, 5381, Note_on_c, 0, 77, 63
2, 5401, Note_on_c, 0, 77, 0
2, 5412, Note_on_c, 0, 77, 46
2, 5415, Note_on_c, 0, 71, 46
2, 5416, Note_on_c, 0, 59, 31
2, 5416, Note_on_c, 0, 67, 24
2, 5422, Note_on_c, 0, 67, 0
2, 5423, Control_c, 0, 64, 0
2, 5441, Control_c, 0, 64, 127
2, 5464, Note_on_c, 0, 59, 0
2, 5515, Note_on_c, 0, 71, 0
2, 5534, Note_on_c, 0, 67, 58
2, 5535, Note_on_c, 0, 62, 50
2, 5535, Note_on_c, 0, 58, 49
2, 5536, Note_on_c, 0, 63, 46
2, 5540, Control_c, 0, 64, 0
2, 5563, Control_c, 0, 64, 127
2, 5581, Note_on_c, 0, 62, 0
2, 5594, Note_on_c, 0, 67, 0
2, 5600, Note_on_c, 0, 63, 0
2, 5605, Note_on_c, 0, 58, 0
2, 5711, Note_on_c, 0, 63, 42
2, 5714, Control_c, 0, 64, 0
2, 5714, Note_on_c, 0, 58, 34
2, 5715, Note_on_c, 0, 59, 36
2, 5716, Note_on_c, 0, 54, 23
2, 5731, Control_c, 0, 64, 127
2, 5737, Note_on_c, 0, 59, 0
2, 5747, Note_on_c, 0, 58, 0
2, 5748, Note_on_c, 0, 77, 0
2, 5749, Note_on_c, 0, 63, 0
2, 5763, Note_on_c, 0, 54, 0
2, 5771, Note_on_c, 0, 74, 43
2, 5773, Note_on_c, 0, 55, 38
2, 5773, Note_on_c, 0, 62, 33
2, 5774, Note_on_c, 0, 58, 28
2, 5776, Note_on_c, 0, 53, 29
2, 5777, Control_c, 0, 64, 0
2, 5803, Note_on_c, 0, 67, 22
2, 5807, Note_on_c, 0, 74, 0
2, 5828, Note_on_c, 0, 74, 40
2, 5842, Control_c, 0, 64, 127
2, 5854, Note_on_c, 0, 55, 0
2, 5862, Note_on_c, 0, 58, 0
2, 5863, Note_on_c, 0, 62, 0
2, 5895, Note_on_c, 0, 62, 26
2, 5895, Note_on_c, 0, 55, 27
2, 5895, Note_on_c, 0, 58, 28
2, 5956, Note_on_c, 0, 62, 0
2, 5959, Note_on_c, 0, 55, 0
2, 5960, Note_on_c, 0, 53, 0
2, 5991, Note_on_c, 0, 74, 0
2, 5991, Note_on_c, 0, 58, 0
2, 5999, Note_on_c, 0, 67, 0
2, 6006, Note_on_c, 0, 67, 48
2, 6009, Note_on_c, 0, 63, 38
2, 6013, Note_on_c, 0, 58, 23
2, 6016, Note_on_c, 0, 52, 36
2, 6019, Control_c, 0, 64, 0
2, 6033, Note_on_c, 0, 67, 0
2, 6042, Note_on_c, 0, 74, 71
2, 6084, Note_on_c, 0, 67, 16
2, 6106, Control_c, 0, 64, 127
2, 6117, Note_on_c, 0, 63, 0
2, 6133, Note_on_c, 0, 63, 31
2, 6192, Note_on_c, 0, 52, 0
2, 6200, Note_on_c, 0, 58, 0
2, 6208, Note_on_c, 0, 63, 0
2, 6211, Note_on_c, 0, 67, 0
2, 6242, Note_on_c, 0, 63, 25
2, 6243, Note_on_c, 0, 65, 34
2, 6243, Note_on_c, 0, 68, 31
2, 6246, Note_on_c, 0, 60, 36
2, 6248, Control_c, 0, 64, 0
2, 6249, Note_on_c, 0, 56, 19
2, 6250, Note_on_c, 0, 53, 17
2, 6281, Control_c, 0, 64, 127
2, 6313, Note_on_c, 0, 60, 0
2, 6319, Note_on_c, 0, 63, 0
2, 6326, Note_on_c, 0, 56, 0
2, 6343, Note_on_c, 0, 74, 0
2, 6363, Note_on_c, 0, 68, 0
2, 6365, Note_on_c, 0, 65, 0
2, 6365, Note_on_c, 0, 63, 29
2, 6368, Note_on_c, 0, 60, 31
2, 6371, Note_on_c, 0, 56, 18
2, 6391, Note_on_c, 0, 67, 77
2, 6407, Note_on_c, 0, 67, 0
2, 6411, Note_on_c, 0, 70, 82
2, 6429, Note_on_c, 0, 70, 0
2, 6434, Note_on_c, 0, 65, 84
2, 6447, Note_on_c, 0, 65, 0
2, 6450, Note_on_c, 0, 67, 77
2, 6454, Note_on_c, 0, 63, 0
2, 6454, Control_c, 0, 64, 0
2, 6467, Note_on_c, 0, 60, 0
2, 6469, Note_on_c, 0, 67, 0
2, 6470, Note_on_c, 0, 63, 64
2, 6472, Control_c, 0, 64, 127
2, 6479, Note_on_c, 0, 60, 17
2, 6487, Note_on_c, 0, 63, 0
2, 6491, Note_on_c, 0, 65, 58
2, 6496, Control_c, 0, 64, 0
2, 6507, Note_on_c, 0, 65, 0
2, 6514, Note_on_c, 0, 62, 55
2, 6524, Control_c, 0, 64, 127
2, 6525, Note_on_c, 0, 60, 0
2, 6536, Note_on_c, 0, 62, 0
2, 6559, Note_on_c, 0, 60, 27
2, 6576, Note_on_c, 0, 60, 0
2, 6587, Note_on_c, 0, 79, 63
2, 6590, Note_on_c, 0, 72, 42
2, 6592, Note_on_c, 0, 56, 0
2, 6593, Note_on_c, 0, 68, 32
2, 6596, Note_on_c, 0, 64, 36
2, 6598, Control_c, 0, 64, 0
2, 6607, Note_on_c, 0, 64, 0
2, 6607, Control_c, 0, 64, 127
2, 6611, Note_on_c, 0, 79, 0
2, 6618, Control_c, 0, 64, 0
2, 6619, Note_on_c, 0, 77, 48
2, 6623, Note_on_c, 0, 63, 23
2, 6625, Control_c, 0, 64, 127
2, 6639, Note_on_c, 0, 72, 0
2, 6641, Note_on_c, 0, 77, 0
2, 6649, Note_on_c, 0, 68, 0
2, 6690, Note_on_c, 0, 63, 0
2, 6700, Note_on_c, 0, 72, 51
2, 6716, Note_on_c, 0, 72, 0
2, 6716, Note_on_c, 0, 53, 0
2, 6728, Note_on_c, 0, 63, 20
2, 6728, Note_on_c, 0, 60, 1
2, 6729, Note_on_c, 0, 72, 39
2, 6731, Control_c, 0, 64, 0
2, 6731, Note_on_c, 0, 56, 32
2, 6734, Note_on_c, 0, 53, 14
2, 6757, Control_c, 0, 64, 127
2, 6770, Note_on_c, 0, 72, 0
2, 6771, Note_on_c, 0, 65, 32
2, 6777, Note_on_c, 0, 65, 0
2, 6777, Note_on_c, 0, 63, 0
2, 6808, Note_on_c, 0, 60, 0
2, 6813, Note_on_c, 0, 56, 0
2, 6816, Note_on_c, 0, 79, 49
2, 6830, Note_on_c, 0, 79, 0
2, 6835, Note_on_c, 0, 82, 80
2, 6841, Note_on_c, 0, 63, 25
2, 6843, Note_on_c, 0, 60, 34
2, 6844, Note_on_c, 0, 56, 23
2, 6851, Control_c, 0, 64, 0
2, 6852, Note_on_c, 0, 82, 0
2, 6857, Note_on_c, 0, 77, 69
2, 6867, Control_c, 0, 64, 127
2, 6873, Note_on_c, 0, 77, 0
2, 6878, Note_on_c, 0, 79, 80
2, 6894, Note_on_c, 0, 79, 0
2, 6899, Note_on_c, 0, 75, 67
2, 6909, Note_on_c, 0, 63, 0
2, 6919, Note_on_c, 0, 75, 0
2, 6921, Note_on_c, 0, 77, 68
2, 6948, Note_on_c, 0, 60, 0
2, 6952, Note_on_c, 0, 53, 0
2, 6953, Note_on_c, 0, 56, 0
2, 6963, Note_on_c, 0, 77, 0
2, 6968, Note_on_c, 0, 74, 50
2, 6969, Note_on_c, 0, 60, 30
2, 6970, Note_on_c, 0, 56, 21
2, 6971, Control_c, 0, 64, 0
2, 6973, Note_on_c, 0, 53, 13
2, 6989, Control_c, 0, 64, 127
2, 7024, Note_on_c, 0, 53, 0
2, 7038, Note_on_c, 0, 60, 0
2, 7087, Note_on_c, 0, 65, 31
2, 7087, Note_on_c, 0, 68, 33
2, 7088, Note_on_c, 0, 60, 34
2, 7089, Note_on_c, 0, 51, 27
2, 7092, Control_c, 0, 64, 0
2, 7117, Control_c, 0, 64, 127
2, 7152, Note_on_c, 0, 56, 0
2, 7161, Note_on_c, 0, 51, 0
2, 7179, Note_on_c, 0, 60, 0
2, 7190, Note_on_c, 0, 65, 0
2, 7194, Note_on_c, 0, 74, 0
2, 7194, Note_on_c, 0, 68, 0
2, 7206, Note_on_c, 0, 60, 42
2, 7207, Note_on_c, 0, 50, 30
2, 7207, Note_on_c, 0, 56, 30
2, 7209, Control_c, 0, 64, 0
2, 7236, Control_c, 0, 64, 127
2, 7241, Note_on_c, 0, 60, 0
2, 7286, Note_on_c, 0, 56, 0
2, 7323, Note_on_c, 0, 56, 25
2, 7331, Control_c, 0, 64, 0
2, 7340, Control_c, 0, 64, 127
2, 7345, Note_on_c, 0, 60, 62
2, 7359, Note_on_c, 0, 60, 0
2, 7363, Note_on_c, 0, 62, 76
2, 7383, Note_on_c, 0, 62, 0
2, 7389, Note_on_c, 0, 63, 71
2, 7402, Control_c, 0, 64, 0
2, 7405, Note_on_c, 0, 63, 0
2, 7406, Note_on_c, 0, 50, 0
2, 7409, Note_on_c, 0, 65, 71
2, 7414, Note_on_c, 0, 56, 0
2, 7421, Note_on_c, 0, 65, 0
2, 7428, Note_on_c, 0, 67, 69
2, 7439, Note_on_c, 0, 67, 0
2, 7448, Note_on_c, 0, 68, 71
2, 7453, Note_on_c, 0, 59, 30
2, 7454, Note_on_c, 0, 64, 26
2, 7459, Note_on_c, 0, 53, 16
2, 7465, Note_on_c, 0, 68, 0
2, 7475, Note_on_c, 0, 70, 60
2, 7478, Control_c, 0, 64, 127
2, 7481, Note_on_c, 0, 64, 0
2, 7483, Note_on_c, 0, 59, 0
2, 7489, Note_on_c, 0, 53, 0
2, 7520, Note_on_c, 0, 63, 37
2, 7523, Note_on_c, 0, 59, 19
2, 7525, Note_on_c, 0, 53, 29
2, 7567, Note_on_c, 0, 70, 0
2, 7572, Note_on_c, 0, 43, 30
2, 7628, Note_on_c, 0, 43, 0
2, 7636, Note_on_c, 0, 63, 0
2, 7652, Note_on_c, 0, 62, 34
2, 7659, Note_on_c, 0, 59, 0
2, 7662, Note_on_c, 0, 53, 0
2, 7670, Note_on_c, 0, 62, 0
2, 7674, Note_on_c, 0, 67, 72
2, 7695, Note_on_c, 0, 67, 0
2, 7697, Note_on_c, 0, 55, 28
2, 7699, Control_c, 0, 64, 0
2, 7700, Note_on_c, 0, 48, 22
2, 7701, Note_on_c, 0, 58, 11
2, 7703, Note_on_c, 0, 67, 59
2, 7726, Note_on_c, 0, 67, 0
2, 7726, Note_on_c, 0, 62, 36
2, 7737, Note_on_c, 0, 62, 0
2, 7743, Note_on_c, 0, 65, 56
2, 7756, Note_on_c, 0, 65, 0
2, 7781, Note_on_c, 0, 58, 0
2, 7801, Control_c, 0, 64, 127
2, 7805, Note_on_c, 0, 55, 0
2, 7818, Note_on_c, 0, 55, 48
2, 7843, Note_on_c, 0, 55, 0
2, 7853, Note_on_c, 0, 60, 48
2, 7864, Note_on_c, 0, 60, 0
2, 7879, Note_on_c, 0, 63, 42
2, 7883, Note_on_c, 0, 63, 0
2, 7910, Note_on_c, 0, 67, 29
2, 7911, Note_on_c, 0, 69, 24
2, 7915, Note_on_c, 0, 69, 0
2, 7918, Note_on_c, 0, 67, 0
2, 7935, Note_on_c, 0, 74, 55
2, 7937, Note_on_c, 0, 67, 49
2, 7937, Note_on_c, 0, 63, 37
2, 7940, Note_on_c, 0, 59, 24
2, 7941, Control_c, 0, 64, 0
2, 7962, Control_c, 0, 64, 127
2, 8003, Note_on_c, 0, 59, 0
2, 8009, Note_on_c, 0, 63, 0
2, 8021, Note_on_c, 0, 67, 0
2, 8029, Note_on_c, 0, 74, 0
2, 8045, Note_on_c, 0, 63, 26
2, 8045, Control_c, 0, 64, 0
2, 8046, Note_on_c, 0, 58, 21
2, 8047, Note_on_c, 0, 72, 30
2, 8051, Control_c, 0, 64, 127
2, 8056, Note_on_c, 0, 63, 0
2, 8061, Note_on_c, 0, 72, 0
2, 8095, Note_on_c, 0, 58, 0
2, 8095, Note_on_c, 0, 48, 0
2, 8133, Note_on_c, 0, 79, 62
2, 8155, Note_on_c, 0, 79, 0
2, 8161, Note_on_c, 0, 56, 23
2, 8161, Note_on_c, 0, 50, 31
2, 8161, Note_on_c, 0, 77, 38
2, 8162, Note_on_c, 0, 60, 24
2, 8163, Control_c, 0, 64, 0
2, 8229, Note_on_c, 0, 80, 62
2, 8250, Control_c, 0, 64, 127
2, 8332, Note_on_c, 0, 50, 0
2, 8337, Note_on_c, 0, 56, 0
2, 8340, Note_on_c, 0, 60, 0
2, 8343, Note_on_c, 0, 80, 0
2, 8346, Note_on_c, 0, 77, 0
2, 8404, Note_on_c, 0, 88, 51
2, 8404, Note_on_c, 0, 76, 37
2, 8404, Note_on_c, 0, 59, 32
2, 8405, Note_on_c, 0, 64, 39
2, 8408, Control_c, 0, 64, 0
2, 8411, Note_on_c, 0, 53, 22
2, 8437, Control_c, 0, 64, 127
2, 8481, Note_on_c, 0, 53, 0
2, 8482, Note_on_c, 0, 64, 0
2, 8488, Note_on_c, 0, 59, 0
2, 8527, Note_on_c, 0, 63, 33
2, 8527, Note_on_c, 0, 59, 32
2, 8536, Note_on_c, 0, 88, 0
2, 8547, Note_on_c, 0, 76, 0
2, 8563, Note_on_c, 0, 87, 78
2, 8599, Note_on_c, 0, 63, 0
2, 8599, Note_on_c, 0, 59, 0
2, 8615, Note_on_c, 0, 87, 0
2, 8617, Note_on_c, 0, 83, 50
2, 8643, Note_on_c, 0, 86, 71
2, 8644, Note_on_c, 0, 83, 0
2, 8658, Note_on_c, 0, 55, 33
2, 8660, Note_on_c, 0, 60, 31
2, 8662, Control_c, 0, 64, 0
2, 8663, Note_on_c, 0, 48, 24
2, 8669, Note_on_c, 0, 86, 0
2, 8675, Note_on_c, 0, 85, 68
2, 8690, Control_c, 0, 64, 127
2, 8703, Note_on_c, 0, 85, 0
2, 8703, Note_on_c, 0, 82, 59
2, 8726, Control_c, 0, 64, 0
2, 8732, Note_on_c, 0, 82, 0
2, 8733, Note_on_c, 0, 81, 44
2, 8733, Control_c, 0, 64, 127
2, 8810, Note_on_c, 0, 84, 58
2, 8815, Note_on_c, 0, 81, 0
2, 8836, Note_on_c, 0, 84, 0
2, 8847, Note_on_c, 0, 83, 30
2, 8847, Note_on_c, 0, 84, 31
2, 8851, Note_on_c, 0, 84, 0
2, 8871, Note_on_c, 0, 83, 0
2, 8872, Note_on_c, 0, 80, 52
2, 8891, Note_on_c, 0, 80, 0
2, 8893, Note_on_c, 0, 79, 30
2, 8909, Control_c, 0, 64, 0
2, 8912, Note_on_c, 0, 82, 57
2, 8913, Control_c, 0, 64, 127
2, 8915, Note_on_c, 0, 79, 0
2, 8929, Note_on_c, 0, 82, 0
2, 8936, Note_on_c, 0, 81, 51
2, 8937, Note_on_c, 0, 48, 0
2, 8955, Note_on_c, 0, 55, 0
2, 8960, Note_on_c, 0, 60, 0
2, 8961, Note_on_c, 0, 81, 0
2, 9036, Note_on_c, 0, 63, 30
2, 9036, Note_on_c, 0, 67, 35
2, 9037, Note_on_c, 0, 60, 33
2, 9041, Note_on_c, 0, 57, 29
2, 9062, Note_on_c, 0, 57, 0
2, 9071, Note_on_c, 0, 60, 0
2, 9080, Note_on_c, 0, 67, 0
2, 9080, Note_on_c, 0, 63, 0
2, 9092, Note_on_c, 0, 51, 36
2, 9115, Note_on_c, 0, 51, 0
2, 9122, Note_on_c, 0, 67, 71
2, 9124, Note_on_c, 0, 56, 14
2, 9124, Note_on_c, 0, 60, 37
2, 9125, Note_on_c, 0, 50, 35
2, 9126, Control_c, 0, 64, 0
2, 9157, Note_on_c, 0, 67, 0
2, 9157, Control_c, 0, 64, 127
2, 9163, Note_on_c, 0, 68, 59
2, 9171, Note_on_c, 0, 68, 0
2, 9203, Note_on_c, 0, 78, 76
2, 9204, Note_on_c, 0, 66, 73
2, 9221, Control_c, 0, 64, 0
2, 9243, Control_c, 0, 64, 127
2, 9298, Note_on_c, 0, 50, 0
2, 9300, Note_on_c, 0, 56, 0
2, 9305, Note_on_c, 0, 60, 0
2, 9358, Note_on_c, 0, 78, 0
2, 9361, Note_on_c, 0, 66, 0
2, 9365, Note_on_c, 0, 65, 44
2, 9366, Note_on_c, 0, 59, 14
2, 9368, Note_on_c, 0, 62, 20
2, 9371, Note_on_c, 0, 53, 24
2, 9375, Control_c, 0, 64, 0
2, 9393, Control_c, 0, 64, 127
2, 9439, Note_on_c, 0, 53, 0
2, 9446, Note_on_c, 0, 62, 0
2, 9448, Note_on_c, 0, 59, 0
2, 9477, Note_on_c, 0, 59, 25
2, 9477, Note_on_c, 0, 62, 32
2, 9478, Note_on_c, 0, 65, 0
2, 9479, Note_on_c, 0, 53, 27
2, 9529, Note_on_c, 0, 77, 66
2, 9561, Note_on_c, 0, 77, 0
2, 9561, Note_on_c, 0, 73, 46
2, 9566, Note_on_c, 0, 62, 0
2, 9568, Note_on_c, 0, 59, 0
2, 9575, Note_on_c, 0, 53, 0
2, 9589, Note_on_c, 0, 73, 0
2, 9591, Note_on_c, 0, 76, 62
2, 9616, Note_on_c, 0, 76, 0
2, 9620, Note_on_c, 0, 55, 36
2, 9621, Note_on_c, 0, 48, 27
2, 9622, Note_on_c, 0, 75, 55
2, 9624, Control_c, 0, 64, 0
2, 9650, Note_on_c, 0, 72, 55
2, 9651, Note_on_c, 0, 75, 0
2, 9666, Control_c, 0, 64, 127
2, 9676, Note_on_c, 0, 72, 0
2, 9679, Note_on_c, 0, 71, 51
2, 9703, Note_on_c, 0, 71, 0
2, 9706, Note_on_c, 0, 74, 68
2, 9732, Control_c, 0, 64, 0
2, 9733, Note_on_c, 0, 73, 49
2, 9737, Control_c, 0, 64, 127
2, 9738, Note_on_c, 0, 60, 1
2, 9744, Note_on_c, 0, 74, 0
2, 9760, Note_on_c, 0, 70, 56
2, 9769, Note_on_c, 0, 73, 0
2, 9771, Note_on_c, 0, 48, 0
2, 9788, Note_on_c, 0, 69, 47
2, 9796, Note_on_c, 0, 70, 0
2, 9815, Note_on_c, 0, 69, 0
2, 9817, Note_on_c, 0, 72, 58
2, 9839, Note_on_c, 0, 72, 0
2, 9839, Note_on_c, 0, 60, 0
2, 9843, Note_on_c, 0, 55, 0
2, 9845, Note_on_c, 0, 71, 31
2, 9846, Control_c, 0, 64, 0
2, 9850, Note_on_c, 0, 48, 17
2, 9864, Control_c, 0, 64, 127
2, 9880, Note_on_c, 0, 55, 25
2, 9917, Note_on_c, 0, 55, 0
2, 9937, Note_on_c, 0, 55, 30
2, 9951, Note_on_c, 0, 55, 0
2, 9966, Note_on_c, 0, 63, 30
2, 9967, Note_on_c, 0, 59, 31
2, 9967, Note_on_c, 0, 67, 33
2, 9968, Note_on_c, 0, 55, 31
2, 9975, Control_c, 0, 64, 0
2, 9986, Control_c, 0, 64, 127
2, 10008, Note_on_c, 0, 48, 0
2, 10011, Note_on_c, 0, 63, 0
2, 10012, Note_on_c, 0, 59, 0
2, 10014, Note_on_c, 0, 55, 0
2, 10019, Note_on_c, 0, 67, 0
2, 10025, Note_on_c, 0, 63, 35
2, 10028, Note_on_c, 0, 71, 0
2, 10031, Note_on_c, 0, 63, 0
2, 10082, Note_on_c, 0, 63, 56
2, 10082, Note_on_c, 0, 59, 56
2, 10083, Note_on_c, 0, 82, 77
2, 10083, Note_on_c, 0, 70, 85
2, 10084, Note_on_c, 0, 56, 37
2, 10086, Control_c, 0, 64, 0
2, 10100, Note_on_c, 0, 53, 1
2, 10107, Control_c, 0, 64, 127
2, 10125, Note_on_c, 0, 63, 0
2, 10128, Note_on_c, 0, 70, 0
2, 10132, Note_on_c, 0, 82, 0
2, 10141, Note_on_c, 0, 63, 46
2, 10142, Note_on_c, 0, 83, 73
2, 10143, Note_on_c, 0, 71, 71
2, 10161, Note_on_c, 0, 71, 0
2, 10166, Note_on_c, 0, 63, 0
2, 10166, Note_on_c, 0, 83, 0
2, 10169, Note_on_c, 0, 53, 0
2, 10174, Note_on_c, 0, 59, 0
2, 10181, Note_on_c, 0, 56, 0
2, 10198, Note_on_c, 0, 93, 67
2, 10200, Note_on_c, 0, 63, 57
2, 10201, Note_on_c, 0, 56, 38
2, 10201, Note_on_c, 0, 59, 51
2, 10203, Note_on_c, 0, 81, 68
2, 10205, Control_c, 0, 64, 0
2, 10206, Note_on_c, 0, 53, 20
2, 10220, Control_c, 0, 64, 127
2, 10252, Note_on_c, 0, 53, 0
2, 10256, Note_on_c, 0, 59, 0
2, 10268, Note_on_c, 0, 56, 0
2, 10269, Note_on_c, 0, 63, 0
2, 10293, Note_on_c, 0, 81, 0
2, 10324, Note_on_c, 0, 62, 34
2, 10325, Note_on_c, 0, 67, 36
2, 10325, Note_on_c, 0, 80, 29
2, 10328, Note_on_c, 0, 56, 25
2, 10332, Control_c, 0, 64, 0
2, 10356, Control_c, 0, 64, 127
2, 10388, Note_on_c, 0, 67, 0
2, 10400, Note_on_c, 0, 93, 0
2, 10413, Note_on_c, 0, 56, 0
2, 10414, Note_on_c, 0, 80, 0
2, 10445, Note_on_c, 0, 66, 34
2, 10451, Note_on_c, 0, 56, 18
2, 10477, Note_on_c, 0, 92, 78
2, 10491, Note_on_c, 0, 62, 0
2, 10497, Note_on_c, 0, 66, 0
2, 10501, Note_on_c, 0, 92, 0
2, 10507, Note_on_c, 0, 88, 55
2, 10508, Note_on_c, 0, 56, 0
2, 10527, Note_on_c, 0, 88, 0
2, 10535, Note_on_c, 0, 91, 81
2, 10558, Note_on_c, 0, 91, 0
2, 10565, Note_on_c, 0, 90, 65
2, 10565, Note_on_c, 0, 54, 29
2, 10565, Note_on_c, 0, 65, 38
2, 10566, Note_on_c, 0, 61, 37
2, 10567, Note_on_c, 0, 58, 35
2, 10572, Control_c, 0, 64, 0
2, 10590, Control_c, 0, 64, 127
2, 10599, Note_on_c, 0, 87, 67
2, 10607, Note_on_c, 0, 90, 0
2, 10627, Note_on_c, 0, 87, 0
2, 10629, Note_on_c, 0, 86, 54
2, 10654, Note_on_c, 0, 86, 0
2, 10656, Note_on_c, 0, 89, 77
2, 10664, Note_on_c, 0, 65, 0
2, 10673, Note_on_c, 0, 61, 0
2, 10684, Note_on_c, 0, 61, 33
2, 10685, Note_on_c, 0, 65, 41
2, 10686, Note_on_c, 0, 88, 71
2, 10700, Note_on_c, 0, 89, 0
2, 10719, Note_on_c, 0, 85, 72
2, 10720, Note_on_c, 0, 88, 0
2, 10721, Note_on_c, 0, 89, 1
2, 10732, Note_on_c, 0, 89, 0
2, 10749, Note_on_c, 0, 85, 0
2, 10750, Note_on_c, 0, 84, 50
2, 10778, Note_on_c, 0, 87, 62
2, 10781, Note_on_c, 0, 65, 0
2, 10785, Note_on_c, 0, 61, 0
2, 10788, Note_on_c, 0, 58, 0
2, 10791, Note_on_c, 0, 54, 0
2, 10794, Note_on_c, 0, 84, 0
2, 10804, Note_on_c, 0, 87, 0
2, 10809, Note_on_c, 0, 86, 64
2, 10831, Control_c, 0, 64, 0
2, 10841, Note_on_c, 0, 51, 28
2, 10863, Control_c, 0, 64, 127
2, 10869, Note_on_c, 0, 54, 31
2, 10932, Note_on_c, 0, 62, 50
2, 10932, Note_on_c, 0, 58, 23
2, 10937, Note_on_c, 0, 86, 0
2, 10969, Note_on_c, 0, 85, 58
2, 10972, Note_on_c, 0, 73, 25
2, 10974, Note_on_c, 0, 51, 0
2, 10981, Note_on_c, 0, 54, 0
2, 10983, Note_on_c, 0, 58, 0
2, 10994, Note_on_c, 0, 85, 0
2, 10996, Note_on_c, 0, 62, 0
2, 10999, Note_on_c, 0, 73, 0
2, 11011, Note_on_c, 0, 84, 39
2, 11038, Note_on_c, 0, 84, 0
2, 11049, Note_on_c, 0, 63, 30
2, 11049, Note_on_c, 0, 83, 49
2, 11050, Note_on_c, 0, 59, 30
2, 11055, Control_c, 0, 64, 0
2, 11078, Note_on_c, 0, 83, 0
2, 11079, Control_c, 0, 64, 127
2, 11085, Note_on_c, 0, 74, 17
2, 11105, Note_on_c, 0, 75, 62
2, 11113, Note_on_c, 0, 74, 0
2, 11124, Note_on_c, 0, 75, 0
2, 11129, Note_on_c, 0, 84, 63
2, 11148, Note_on_c, 0, 84, 0
2, 11152, Note_on_c, 0, 75, 34
2, 11171, Note_on_c, 0, 75, 0
2, 11174, Note_on_c, 0, 76, 46
2, 11197, Note_on_c, 0, 85, 69
2, 11198, Note_on_c, 0, 76, 0
2, 11201, Control_c, 0, 64, 0
2, 11206, Control_c, 0, 64, 127
2, 11218, Note_on_c, 0, 85, 0
2, 11220, Note_on_c, 0, 76, 35
2, 11241, Note_on_c, 0, 76, 0
2, 11241, Note_on_c, 0, 77, 45
2, 11256, Note_on_c, 0, 77, 0
2, 11266, Note_on_c, 0, 86, 44
2, 11286, Note_on_c, 0, 86, 0
2, 11287, Note_on_c, 0, 77, 36
2, 11306, Note_on_c, 0, 78, 42
2, 11323, Note_on_c, 0, 77, 0
2, 11326, Note_on_c, 0, 78, 0
2, 11329, Note_on_c, 0, 87, 61
2, 11337, Note_on_c, 0, 79, 37
2, 11457, Note_on_c, 0, 79, 0
2, 11462, Note_on_c, 0, 87, 0
2, 11475, Note_on_c, 0, 86, 57
2, 11488, Note_on_c, 0, 59, 0
2, 11490, Note_on_c, 0, 63, 0
2, 11511, Note_on_c, 0, 86, 0
2, 11536, Control_c, 0, 64, 0
2, 11537, Note_on_c, 0, 80, 15
2, 11548, Control_c, 0, 64, 127
2, 11564, Note_on_c, 0, 80, 0
2, 11564, Note_on_c, 0, 71, 40
2, 11581, Note_on_c, 0, 71, 0
2, 11589, Note_on_c, 0, 73, 14
2, 11592, Note_on_c, 0, 72, 36
2, 11607, Note_on_c, 0, 72, 0
2, 11608, Note_on_c, 0, 73, 0
2, 11612, Note_on_c, 0, 80, 69
2, 11637, Note_on_c, 0, 71, 28
2, 11643, Note_on_c, 0, 71, 0
2, 11652, Note_on_c, 0, 80, 0
2, 11653, Note_on_c, 0, 73, 46
2, 11669, Note_on_c, 0, 73, 0
2, 11674, Control_c, 0, 64, 0
2, 11675, Note_on_c, 0, 82, 74
2, 11692, Note_on_c, 0, 82, 0
2, 11694, Control_c, 0, 64, 127
2, 11696, Note_on_c, 0, 72, 42
2, 11709, Note_on_c, 0, 72, 0
2, 11714, Note_on_c, 0, 73, 25
2, 11727, Note_on_c, 0, 73, 0
2, 11732, Note_on_c, 0, 82, 57
2, 11738, Note_on_c, 0, 83, 35
2, 11743, Note_on_c, 0, 83, 0
2, 11747, Note_on_c, 0, 82, 0
2, 11753, Note_on_c, 0, 74, 39
2, 11768, Note_on_c, 0, 74, 0
2, 11772, Note_on_c, 0, 77, 44
2, 11787, Note_on_c, 0, 77, 0
2, 11793, Note_on_c, 0, 84, 54
2, 11796, Control_c, 0, 64, 0
2, 11802, Control_c, 0, 64, 127
2, 11815, Note_on_c, 0, 84, 0
2, 11819, Note_on_c, 0, 74, 20
2, 11827, Note_on_c, 0, 74, 0
2, 11835, Note_on_c, 0, 85, 69
2, 11860, Note_on_c, 0, 85, 0
2, 11862, Note_on_c, 0, 64, 36
2, 11862, Note_on_c, 0, 86, 57
2, 11862, Note_on_c, 0, 59, 24
2, 11865, Note_on_c, 0, 53, 32
2, 11865, Control_c, 0, 64, 0
2, 11887, Control_c, 0, 64, 127
2, 11912, Note_on_c, 0, 53, 0
2, 11912, Note_on_c, 0, 64, 0
2, 11918, Note_on_c, 0, 59, 0
2, 11929, Note_on_c, 0, 59, 36
2, 11929, Note_on_c, 0, 63, 52
2, 11934, Control_c, 0, 64, 0
2, 11939, Note_on_c, 0, 53, 11
2, 11949, Control_c, 0, 64, 127
2, 11985, Note_on_c, 0, 59, 0
2, 11993, Note_on_c, 0, 63, 0
2, 11994, Note_on_c, 0, 53, 0
2, 12060, Control_c, 0, 64, 0
2, 12071, Control_c, 0, 64, 127
2, 12126, Control_c, 0, 64, 0
2, 12127, Note_on_c, 0, 62, 25
2, 12129, Note_on_c, 0, 57, 42
2, 12131, Note_on_c, 0, 51, 25
2, 12133, Note_on_c, 0, 55, 28
2, 12151, Control_c, 0, 64, 127
2, 12198, Note_on_c, 0, 57, 0
2, 12198, Note_on_c, 0, 62, 0
2, 12205, Note_on_c, 0, 55, 0
2, 12221, Note_on_c, 0, 86, 0
2, 12247, Note_on_c, 0, 62, 38
2, 12250, Note_on_c, 0, 57, 38
2, 12251, Note_on_c, 0, 55, 36
2, 12300, Note_on_c, 0, 86, 69
2, 12316, Note_on_c, 0, 86, 0
2, 12325, Note_on_c, 0, 89, 91
2, 12335, Note_on_c, 0, 62, 0
2, 12344, Note_on_c, 0, 57, 0
2, 12352, Note_on_c, 0, 87, 77
2, 12356, Note_on_c, 0, 89, 0
2, 12375, Note_on_c, 0, 87, 0
2, 12375, Note_on_c, 0, 57, 29
2, 12375, Note_on_c, 0, 62, 25
2, 12379, Note_on_c, 0, 79, 29
2, 12379, Note_on_c, 0, 77, 31
2, 12386, Note_on_c, 0, 77, 0
2, 12389, Note_on_c, 0, 57, 0
2, 12391, Note_on_c, 0, 55, 0
2, 12396, Note_on_c, 0, 62, 0
2, 12403, Note_on_c, 0, 79, 0
2, 12410, Note_on_c, 0, 86, 52
2, 12410, Note_on_c, 0, 80, 53
2, 12411, Note_on_c, 0, 62, 44
2, 12412, Note_on_c, 0, 56, 40
2, 12413, Control_c, 0, 64, 0
2, 12427, Control_c, 0, 64, 127
2, 12457, Note_on_c, 0, 62, 0
2, 12460, Note_on_c, 0, 56, 0
2, 12470, Note_on_c, 0, 86, 0
2, 12476, Note_on_c, 0, 80, 0
2, 12478, Note_on_c, 0, 51, 0
2, 12488, Note_on_c, 0, 86, 43
2, 12489, Note_on_c, 0, 57, 49
2, 12489, Note_on_c, 0, 74, 34
2, 12489, Note_on_c, 0, 62, 36
2, 12490, Note_on_c, 0, 79, 29
2, 12491, Note_on_c, 0, 51, 33
2, 12495, Control_c, 0, 64, 0
2, 12525, Control_c, 0, 64, 127
2, 12547, Note_on_c, 0, 85, 42
2, 12550, Note_on_c, 0, 79, 0
2, 12551, Note_on_c, 0, 84, 32
2, 12563, Note_on_c, 0, 74, 0
2, 12567, Note_on_c, 0, 62, 0
2, 12570, Note_on_c, 0, 85, 0
2, 12574, Note_on_c, 0, 79, 45
2, 12577, Note_on_c, 0, 57, 0
2, 12583, Note_on_c, 0, 86, 0
2, 12591, Note_on_c, 0, 84, 0
2, 12591, Note_on_c, 0, 79, 0
2, 12597, Note_on_c, 0, 74, 37
2, 12606, Note_on_c, 0, 62, 28
2, 12608, Note_on_c, 0, 57, 32
2, 12612, Note_on_c, 0, 74, 0
2, 12635, Note_on_c, 0, 69, 25
2, 12635, Note_on_c, 0, 67, 24
2, 12640, Note_on_c, 0, 69, 0
2, 12664, Note_on_c, 0, 74, 55
2, 12684, Note_on_c, 0, 62, 0
2, 12692, Note_on_c, 0, 63, 23
2, 12702, Note_on_c, 0, 63, 0
2, 12709, Note_on_c, 0, 67, 0
2, 12711, Note_on_c, 0, 57, 0
2, 12712, Note_on_c, 0, 63, 34
2, 12713, Note_on_c, 0, 74, 0
2, 12718, Note_on_c, 0, 51, 0
2, 12726, Note_on_c, 0, 63, 0
2, 12736, Note_on_c, 0, 56, 37
2, 12738, Note_on_c, 0, 68, 42
2, 12738, Note_on_c, 0, 48, 41
2, 12745, Control_c, 0, 64, 0
2, 12745, Note_on_c, 0, 64, 6
2, 12767, Control_c, 0, 64, 127
2, 12777, Note_on_c, 0, 64, 0
2, 12779, Note_on_c, 0, 68, 0
2, 12822, Note_on_c, 0, 56, 0
2, 12849, Note_on_c, 0, 56, 33
2, 12909, Note_on_c, 0, 48, 0
2, 12911, Note_on_c, 0, 56, 0
2, 12959, Note_on_c, 0, 61, 42
2, 12963, Note_on_c, 0, 55, 20
2, 12964, Note_on_c, 0, 58, 32
2, 12965, Note_on_c, 0, 61, 0
2, 12965, Note_on_c, 0, 48, 26
2, 12967, Note_on_c, 0, 62, 43
2, 12969, Control_c, 0, 64, 0
2, 13001, Note_on_c, 0, 65, 52
2, 13028, Control_c, 0, 64, 127
2, 13052, Note_on_c, 0, 55, 0
2, 13064, Note_on_c, 0, 58, 0
2, 13081, Note_on_c, 0, 48, 0
2, 13107, Note_on_c, 0, 62, 0
2, 13116, Note_on_c, 0, 65, 0
2, 13148, Note_on_c, 0, 57, 44
2, 13149, Note_on_c, 0, 47, 36
2, 13151, Control_c, 0, 64, 0
2, 13165, Control_c, 0, 64, 127
2, 13179, Note_on_c, 0, 47, 0
2, 13183, Note_on_c, 0, 57, 0
2, 13213, Note_on_c, 0, 56, 35
2, 13213, Note_on_c, 0, 63, 45
2, 13213, Note_on_c, 0, 67, 47
2, 13216, Note_on_c, 0, 46, 32
2, 13217, Control_c, 0, 64, 0
2, 13242, Control_c, 0, 64, 127
2, 13263, Note_on_c, 0, 67, 0
2, 13277, Note_on_c, 0, 56, 0
2, 13290, Note_on_c, 0, 46, 0
2, 13314, Note_on_c, 0, 63, 0
2, 13332, Note_on_c, 0, 65, 64
2, 13332, Note_on_c, 0, 54, 39
2, 13333, Note_on_c, 0, 63, 49
2, 13333, Note_on_c, 0, 44, 33
2, 13334, Note_on_c, 0, 59, 45
2, 13338, Control_c, 0, 64, 0
2, 13360, Control_c, 0, 64, 127
2, 13375, Note_on_c, 0, 63, 0
2, 13384, Note_on_c, 0, 65, 0
2, 13397, Note_on_c, 0, 54, 0
2, 13405, Note_on_c, 0, 59, 0
2, 13408, Note_on_c, 0, 44, 0
2, 13415, Note_on_c, 0, 63, 48
2, 13435, Note_on_c, 0, 63, 0
2, 13451, Note_on_c, 0, 62, 46
2, 13453, Note_on_c, 0, 58, 35
2, 13455, Note_on_c, 0, 43, 36
2, 13455, Note_on_c, 0, 53, 24
2, 13458, Control_c, 0, 64, 0
2, 13475, Note_on_c, 0, 58, 0
2, 13485, Note_on_c, 0, 53, 0
2, 13486, Note_on_c, 0, 58, 45
2, 13492, Note_on_c, 0, 62, 0
2, 13500, Control_c, 0, 64, 127
2, 13514, Note_on_c, 0, 58, 0
2, 13521, Note_on_c, 0, 55, 50
2, 13540, Note_on_c, 0, 55, 0
2, 13572, Note_on_c, 0, 55, 32
2, 13611, Note_on_c, 0, 43, 0
2, 13622, Note_on_c, 0, 55, 0
2, 13678, Note_on_c, 0, 63, 35
2, 13681, Note_on_c, 0, 58, 35
2, 13683, Note_on_c, 0, 52, 37
2, 13684, Control_c, 0, 64, 0
2, 13699, Control_c, 0, 64, 127
2, 13720, Note_on_c, 0, 87, 64
2, 13735, Note_on_c, 0, 87, 0
2, 13741, Control_c, 0, 64, 0
2, 13748, Note_on_c, 0, 76, 38
2, 13757, Note_on_c, 0, 76, 0
2, 13786, Note_on_c, 0, 73, 34
2, 13806, Note_on_c, 0, 73, 0
2, 13809, Note_on_c, 0, 72, 53
2, 13833, Control_c, 0, 64, 127
2, 13842, Note_on_c, 0, 72, 0
2, 13844, Note_on_c, 0, 70, 46
2, 13854, Note_on_c, 0, 63, 0
2, 13855, Control_c, 0, 64, 0
2, 13858, Note_on_c, 0, 70, 0
2, 13867, Note_on_c, 0, 65, 39
2, 13874, Note_on_c, 0, 58, 0
2, 13880, Note_on_c, 0, 52, 0
2, 13885, Note_on_c, 0, 65, 0
2, 13886, Control_c, 0, 64, 127
2, 13892, Control_c, 0, 64, 0
2, 13901, Note_on_c, 0, 61, 56
2, 13910, Control_c, 0, 64, 127
2, 13923, Note_on_c, 0, 61, 0
2, 13928, Control_c, 0, 64, 0
2, 13930, Note_on_c, 0, 60, 38
2, 13933, Note_on_c, 0, 48, 17
2, 13934, Note_on_c, 0, 41, 17
2, 13957, Note_on_c, 0, 60, 0
2, 13963, Note_on_c, 0, 58, 34
2, 13976, Note_on_c, 0, 58, 0
2, 13984, Note_on_c, 0, 56, 43
2, 13986, Note_on_c, 0, 58, 23
2, 14011, Note_on_c, 0, 56, 0
2, 14014, Note_on_c, 0, 58, 0
2, 14015, Control_c, 0, 64, 127
2, 14022, Note_on_c, 0, 56, 35
2, 14022, Note_on_c, 0, 58, 40
2, 14034, Note_on_c, 0, 58, 0
2, 14035, Note_on_c, 0, 56, 0
2, 14039, Control_c, 0, 64, 0
2, 14046, Note_on_c, 0, 58, 31
2, 14046, Note_on_c, 0, 56, 28
2, 14069, Control_c, 0, 64, 127
2, 14076, Note_on_c, 0, 53, 1
2, 14080, Note_on_c, 0, 56, 0
2, 14082, Note_on_c, 0, 55, 48
2, 14083, Note_on_c, 0, 58, 0
2, 14086, Note_on_c, 0, 55, 0
2, 14094, Note_on_c, 0, 41, 0
2, 14114, Note_on_c, 0, 48, 0
2, 14115, Note_on_c, 0, 53, 0
2, 14126, Note_on_c, 0, 67, 71
2, 14138, Note_on_c, 0, 67, 0
2, 14143, Note_on_c, 0, 70, 65
2, 14157, Note_on_c, 0, 70, 0
2, 14164, Note_on_c, 0, 65, 64
2, 14166, Note_on_c, 0, 60, 35
2, 14166, Note_on_c, 0, 56, 18
2, 14167, Note_on_c, 0, 53, 22
2, 14169, Control_c, 0, 64, 0
2, 14182, Note_on_c, 0, 65, 0
2, 14267, Note_on_c, 0, 65, 69
2, 14282, Note_on_c, 0, 65, 0
2, 14283, Note_on_c, 0, 67, 57
2, 14289, Control_c, 0, 64, 127
2, 14296, Note_on_c, 0, 67, 0
2, 14302, Note_on_c, 0, 63, 42
2, 14305, Control_c, 0, 64, 0
2, 14314, Note_on_c, 0, 63, 0
2, 14318, Note_on_c, 0, 65, 52
2, 14333, Note_on_c, 0, 65, 0
2, 14338, Note_on_c, 0, 62, 53
2, 14345, Control_c, 0, 64, 127
2, 14364, Note_on_c, 0, 53, 0
2, 14365, Note_on_c, 0, 62, 0
2, 14387, Note_on_c, 0, 53, 22
2, 14394, Note_on_c, 0, 56, 0
2, 14395, Note_on_c, 0, 60, 0
2, 14405, Note_on_c, 0, 53, 0
2, 14417, Note_on_c, 0, 53, 14
2, 14419, Note_on_c, 0, 60, 32
2, 14420, Note_on_c, 0, 56, 20
2, 14473, Note_on_c, 0, 79, 45
2, 14477, Note_on_c, 0, 67, 64
2, 14484, Note_on_c, 0, 60, 0
2, 14485, Note_on_c, 0, 67, 0
2, 14490, Note_on_c, 0, 79, 0
2, 14513, Note_on_c, 0, 70, 57
2, 14513, Note_on_c, 0, 82, 67
2, 14514, Note_on_c, 0, 60, 27
2, 14514, Note_on_c, 0, 65, 43
2, 14542, Note_on_c, 0, 70, 0
2, 14544, Note_on_c, 0, 82, 0
2, 14553, Note_on_c, 0, 77, 33
2, 14572, Note_on_c, 0, 77, 0
2, 14578, Note_on_c, 0, 79, 64
2, 14597, Note_on_c, 0, 79, 0
2, 14602, Note_on_c, 0, 75, 57
2, 14620, Note_on_c, 0, 75, 0
2, 14624, Note_on_c, 0, 65, 0
2, 14624, Note_on_c, 0, 77, 48
2, 14625, Note_on_c, 0, 53, 0
2, 14636, Note_on_c, 0, 56, 0
2, 14636, Note_on_c, 0, 60, 0
2, 14649, Note_on_c, 0, 72, 50
2, 14654, Note_on_c, 0, 60, 24
2, 14655, Note_on_c, 0, 56, 15
2, 14655, Control_c, 0, 64, 0
2, 14656, Note_on_c, 0, 53, 22
2, 14679, Control_c, 0, 64, 127
2, 14693, Note_on_c, 0, 74, 64
2, 14696, Note_on_c, 0, 72, 0
2, 14773, Note_on_c, 0, 63, 30
2, 14774, Note_on_c, 0, 68, 29
2, 14775, Note_on_c, 0, 72, 40
2, 14793, Note_on_c, 0, 53, 0
2, 14819, Note_on_c, 0, 63, 0
2, 14827, Note_on_c, 0, 60, 0
2, 14834, Note_on_c, 0, 56, 0
2, 14841, Note_on_c, 0, 68, 0
2, 14850, Note_on_c, 0, 72, 0
2, 14886, Control_c, 0, 64, 0
2, 14886, Note_on_c, 0, 60, 36
2, 14887, Note_on_c, 0, 77, 0
2, 14889, Note_on_c, 0, 54, 20
2, 14890, Note_on_c, 0, 74, 0
2, 14891, Note_on_c, 0, 50, 32
2, 14899, Control_c, 0, 64, 127
2, 14964, Note_on_c, 0, 62, 34
2, 14966, Note_on_c, 0, 60, 0
2, 14971, Note_on_c, 0, 62, 0
2, 14979, Note_on_c, 0, 63, 36
2, 14984, Note_on_c, 0, 63, 0
2, 14984, Control_c, 0, 64, 0
2, 14993, Note_on_c, 0, 65, 44
2, 14998, Note_on_c, 0, 65, 0
2, 15006, Note_on_c, 0, 67, 60
2, 15015, Note_on_c, 0, 67, 0
2, 15020, Note_on_c, 0, 68, 71
2, 15029, Note_on_c, 0, 60, 32
2, 15030, Note_on_c, 0, 68, 0
2, 15034, Note_on_c, 0, 70, 59
2, 15040, Note_on_c, 0, 70, 0
2, 15048, Note_on_c, 0, 72, 58
2, 15054, Note_on_c, 0, 72, 0
2, 15054, Note_on_c, 0, 50, 0
2, 15058, Note_on_c, 0, 60, 0
2, 15060, Note_on_c, 0, 54, 0
2, 15060, Note_on_c, 0, 74, 63
2, 15069, Note_on_c, 0, 74, 0
2, 15074, Note_on_c, 0, 75, 62
2, 15078, Control_c, 0, 64, 127
2, 15081, Note_on_c, 0, 75, 0
2, 15088, Note_on_c, 0, 77, 43
2, 15099, Note_on_c, 0, 77, 0
2, 15101, Note_on_c, 0, 79, 48
2, 15109, Note_on_c, 0, 79, 0
2, 15115, Note_on_c, 0, 80, 62
2, 15123, Note_on_c, 0, 80, 0
2, 15131, Note_on_c, 0, 82, 69
2, 15131, Note_on_c, 0, 59, 27
2, 15132, Note_on_c, 0, 64, 41
2, 15135, Control_c, 0, 64, 0
2, 15135, Note_on_c, 0, 53, 29
2, 15168, Control_c, 0, 64, 127
2, 15231, Note_on_c, 0, 80, 44
2, 15245, Note_on_c, 0, 82, 0
2, 15246, Note_on_c, 0, 80, 0
2, 15254, Note_on_c, 0, 75, 67
2, 15254, Control_c, 0, 64, 0
2, 15268, Note_on_c, 0, 75, 0
2, 15276, Note_on_c, 0, 71, 36
2, 15289, Control_c, 0, 64, 127
2, 15296, Note_on_c, 0, 71, 0
2, 15298, Note_on_c, 0, 70, 53
2, 15309, Note_on_c, 0, 64, 0
2, 15313, Note_on_c, 0, 59, 0
2, 15313, Control_c, 0, 64, 0
2, 15318, Note_on_c, 0, 68, 47
2, 15322, Note_on_c, 0, 53, 0
2, 15326, Note_on_c, 0, 70, 0
2, 15330, Note_on_c, 0, 68, 0
2, 15337, Note_on_c, 0, 67, 42
2, 15340, Control_c, 0, 64, 127
2, 15346, Note_on_c, 0, 67, 0
2, 15354, Note_on_c, 0, 65, 55
2, 15364, Control_c, 0, 64, 0
2, 15368, Note_on_c, 0, 65, 0
2, 15368, Note_on_c, 0, 55, 25
2, 15371, Note_on_c, 0, 48, 19
2, 15373, Note_on_c, 0, 63, 27
2, 15381, Note_on_c, 0, 63, 0
2, 15392, Note_on_c, 0, 62, 16
2, 15403, Note_on_c, 0, 62, 0
2, 15409, Note_on_c, 0, 65, 44
2, 15425, Note_on_c, 0, 65, 0
2, 15426, Note_on_c, 0, 63, 26
2, 15448, Control_c, 0, 64, 127
2, 15460, Note_on_c, 0, 55, 0
2, 15494, Note_on_c, 0, 60, 32
2, 15496, Note_on_c, 0, 55, 29
2, 15541, Note_on_c, 0, 60, 0
2, 15547, Note_on_c, 0, 55, 0
2, 15561, Note_on_c, 0, 48, 0
2, 15571, Note_on_c, 0, 63, 0
2, 15606, Note_on_c, 0, 63, 31
2, 15609, Note_on_c, 0, 59, 26
2, 15609, Note_on_c, 0, 43, 24
2, 15610, Control_c, 0, 64, 0
2, 15611, Note_on_c, 0, 56, 10
2, 15622, Note_on_c, 0, 53, 33
2, 15639, Control_c, 0, 64, 127
2, 15666, Note_on_c, 0, 53, 0
2, 15682, Note_on_c, 0, 56, 0
2, 15690, Note_on_c, 0, 59, 0
2, 15708, Note_on_c, 0, 63, 0
2, 15721, Note_on_c, 0, 62, 36
2, 15721, Note_on_c, 0, 56, 28
2, 15722, Note_on_c, 0, 59, 35
2, 15724, Control_c, 0, 64, 0
2, 15725, Control_c, 0, 64, 127
2, 15738, Note_on_c, 0, 59, 0
2, 15738, Note_on_c, 0, 56, 0
2, 15739, Note_on_c, 0, 43, 0
2, 15743, Note_on_c, 0, 62, 0
2, 15812, Note_on_c, 0, 67, 40
2, 15817, Note_on_c, 0, 67, 0
2, 15834, Note_on_c, 0, 74, 62
2, 15839, Note_on_c, 0, 48, 35
2, 15840, Control_c, 0, 64, 0
2, 15840, Note_on_c, 0, 55, 24
2, 15842, Note_on_c, 0, 74, 0
2, 15877, Note_on_c, 0, 72, 60
2, 15889, Note_on_c, 0, 72, 0
2, 15899, Note_on_c, 0, 67, 32
2, 15930, Note_on_c, 0, 67, 0
2, 15934, Control_c, 0, 64, 127
2, 15938, Note_on_c, 0, 63, 31
2, 15952, Note_on_c, 0, 63, 0
2, 15955, Control_c, 0, 64, 0
2, 15957, Note_on_c, 0, 62, 30
2, 15959, Note_on_c, 0, 60, 30
2, 15969, Control_c, 0, 64, 127
2, 16008, Note_on_c, 0, 48, 0
2, 16024, Note_on_c, 0, 63, 47
2, 16028, Note_on_c, 0, 62, 0
2, 16039, Note_on_c, 0, 63, 0
2, 16042, Note_on_c, 0, 55, 0
2, 16043, Note_on_c, 0, 68, 62
2, 16052, Note_on_c, 0, 60, 0
2, 16058, Note_on_c, 0, 68, 0
2, 16070, Note_on_c, 0, 72, 77
2, 16080, Note_on_c, 0, 56, 30
2, 16081, Note_on_c, 0, 60, 27
2, 16082, Control_c, 0, 64, 0
2, 16083, Note_on_c, 0, 48, 26
2, 16090, Note_on_c, 0, 72, 0
2, 16094, Note_on_c, 0, 75, 62
2, 16108, Note_on_c, 0, 75, 0
2, 16119, Note_on_c, 0, 80, 49
2, 16121, Control_c, 0, 64, 127
2, 16130, Note_on_c, 0, 80, 0
2, 16143, Note_on_c, 0, 84, 50
2, 16156, Note_on_c, 0, 84, 0
2, 16162, Note_on_c, 0, 87, 64
2, 16180, Note_on_c, 0, 87, 0
2, 16180, Note_on_c, 0, 92, 62
2, 16193, Note_on_c, 0, 92, 0
2, 16201, Note_on_c, 0, 87, 56
2, 16217, Note_on_c, 0, 87, 0
2, 16234, Note_on_c, 0, 48, 0
2, 16256, Note_on_c, 0, 48, 31
2, 16277, Note_on_c, 0, 48, 0
2, 16283, Note_on_c, 0, 60, 0
2, 16314, Note_on_c, 0, 63, 28
2, 16317, Note_on_c, 0, 69, 43
2, 16319, Note_on_c, 0, 57, 37
2, 16320, Control_c, 0, 64, 0
2, 16322, Note_on_c, 0, 56, 0
2, 16323, Note_on_c, 0, 48, 20
2, 16340, Control_c, 0, 64, 127
2, 16350, Note_on_c, 0, 63, 0
2, 16350, Note_on_c, 0, 69, 0
2, 16421, Note_on_c, 0, 69, 48
2, 16426, Note_on_c, 0, 69, 0
2, 16452, Note_on_c, 0, 79, 80
2, 16452, Note_on_c, 0, 74, 82
2, 16453, Note_on_c, 0, 76, 80
2, 16455, Control_c, 0, 64, 0
2, 16466, Note_on_c, 0, 76, 0
2, 16471, Note_on_c, 0, 75, 69
2, 16473, Note_on_c, 0, 74, 0
2, 16487, Note_on_c, 0, 79, 0
2, 16487, Note_on_c, 0, 75, 0
2, 16493, Note_on_c, 0, 74, 74
2, 16494, Note_on_c, 0, 79, 68
2, 16509, Note_on_c, 0, 79, 0
2, 16511, Note_on_c, 0, 74, 0
2, 16512, Control_c, 0, 64, 127
2, 16513, Note_on_c, 0, 75, 67
2, 16527, Note_on_c, 0, 75, 0
2, 16533, Note_on_c, 0, 74, 82
2, 16534, Note_on_c, 0, 79, 58
2, 16544, Note_on_c, 0, 48, 0
2, 16548, Note_on_c, 0, 79, 0
2, 16550, Note_on_c, 0, 74, 0
2, 16552, Note_on_c, 0, 75, 65
2, 16553, Note_on_c, 0, 79, 27
2, 16559, Note_on_c, 0, 57, 0
2, 16563, Note_on_c, 0, 79, 0
2, 16565, Note_on_c, 0, 75, 0
2, 16573, Note_on_c, 0, 74, 66
2, 16574, Note_on_c, 0, 56, 33
2, 16575, Note_on_c, 0, 48, 38
2, 16576, Note_on_c, 0, 79, 34
2, 16578, Control_c, 0, 64, 0
2, 16604, Note_on_c, 0, 74, 0
2, 16605, Note_on_c, 0, 72, 50
2, 16606, Control_c, 0, 64, 127
2, 16608, Note_on_c, 0, 79, 0
2, 16623, Note_on_c, 0, 72, 0
2, 16631, Note_on_c, 0, 68, 55
2, 16687, Note_on_c, 0, 60, 26
2, 16712, Note_on_c, 0, 48, 0
2, 16727, Note_on_c, 0, 64, 58
2, 16743, Note_on_c, 0, 68, 0
2, 16759, Note_on_c, 0, 60, 0
2, 16764, Note_on_c, 0, 64, 0
2, 16764, Note_on_c, 0, 63, 60
2, 16792, Note_on_c, 0, 56, 0
2, 16795, Note_on_c, 0, 63, 0
2, 16798, Note_on_c, 0, 55, 34
2, 16801, Note_on_c, 0, 62, 45
2, 16803, Note_on_c, 0, 58, 28
2, 16806, Control_c, 0, 64, 0
2, 16838, Control_c, 0, 64, 127
2, 16841, Note_on_c, 0, 59, 28
2, 16843, Note_on_c, 0, 62, 0
2, 16857, Control_c, 0, 64, 0
2, 16869, Note_on_c, 0, 59, 0
2, 16873, Note_on_c, 0, 60, 44
2, 16888, Control_c, 0, 64, 127
2, 16927, Note_on_c, 0, 55, 0
2, 16940, Note_on_c, 0, 58, 0
2, 16964, Control_c, 0, 64, 0
2, 16965, Note_on_c, 0, 47, 46
2, 16965, Note_on_c, 0, 57, 47
2, 16986, Control_c, 0, 64, 127
2, 17010, Note_on_c, 0, 47, 0
2, 17019, Note_on_c, 0, 57, 0
2, 17040, Note_on_c, 0, 60, 0
2, 17046, Note_on_c, 0, 56, 33
2, 17048, Note_on_c, 0, 46, 35
2, 17049, Control_c, 0, 64, 0
2, 17077, Control_c, 0, 64, 127
2, 17112, Note_on_c, 0, 56, 0
2, 17119, Note_on_c, 0, 46, 0
2, 17162, Note_on_c, 0, 54, 46
2, 17164, Note_on_c, 0, 44, 35
2, 17165, Control_c, 0, 64, 0
2, 17194, Control_c, 0, 64, 127
2, 17233, Note_on_c, 0, 54, 0
2, 17243, Note_on_c, 0, 44, 0
2, 17278, Note_on_c, 0, 62, 41
2, 17280, Note_on_c, 0, 57, 27
2, 17280, Note_on_c, 0, 53, 29
2, 17280, Note_on_c, 0, 58, 27
2, 17281, Note_on_c, 0, 43, 31
2, 17281, Control_c, 0, 64, 0
2, 17306, Control_c, 0, 64, 127
2, 17321, Note_on_c, 0, 43, 0
2, 17321, Note_on_c, 0, 57, 0
2, 17329, Note_on_c, 0, 53, 0
2, 17330, Note_on_c, 0, 58, 0
2, 17333, Note_on_c, 0, 62, 0
2, 17397, Note_on_c, 0, 62, 22
2, 17397, Note_on_c, 0, 57, 24
2, 17397, Note_on_c, 0, 58, 25
2, 17492, Note_on_c, 0, 62, 0
2, 17501, Control_c, 0, 64, 0
2, 17501, Note_on_c, 0, 66, 49
2, 17509, Note_on_c, 0, 66, 0
2, 17509, Note_on_c, 0, 67, 67
2, 17512, Note_on_c, 0, 58, 0
2, 17522, Note_on_c, 0, 66, 46
2, 17524, Note_on_c, 0, 67, 0
2, 17534, Note_on_c, 0, 62, 40
2, 17535, Note_on_c, 0, 66, 0
2, 17541, Note_on_c, 0, 62, 0
2, 17549, Note_on_c, 0, 65, 67
2, 17563, Note_on_c, 0, 65, 0
2, 17567, Note_on_c, 0, 62, 44
2, 17573, Note_on_c, 0, 62, 0
2, 17583, Note_on_c, 0, 63, 48
2, 17593, Note_on_c, 0, 63, 0
2, 17600, Note_on_c, 0, 64, 50
2, 17608, Note_on_c, 0, 57, 0
2, 17611, Note_on_c, 0, 64, 0
2, 17617, Note_on_c, 0, 67, 44
2, 17623, Note_on_c, 0, 67, 0
2, 17638, Note_on_c, 0, 70, 59
2, 17648, Note_on_c, 0, 70, 0
2, 17657, Note_on_c, 0, 63, 29
2, 17657, Note_on_c, 0, 58, 28
2, 17658, Note_on_c, 0, 72, 55
2, 17659, Note_on_c, 0, 52, 35
2, 17667, Note_on_c, 0, 72, 0
2, 17678, Note_on_c, 0, 75, 57
2, 17686, Note_on_c, 0, 75, 0
2, 17698, Note_on_c, 0, 76, 63
2, 17707, Note_on_c, 0, 76, 0
2, 17715, Note_on_c, 0, 79, 79
2, 17722, Note_on_c, 0, 52, 0
2, 17726, Note_on_c, 0, 79, 0
2, 17727, Note_on_c, 0, 58, 0
2, 17732, Note_on_c, 0, 63, 0
2, 17734, Note_on_c, 0, 76, 57
2, 17735, Control_c, 0, 64, 127
2, 17742, Note_on_c, 0, 76, 0
2, 17746, Control_c, 0, 64, 0
2, 17750, Note_on_c, 0, 77, 58
2, 17750, Note_on_c, 0, 60, 32
2, 17751, Note_on_c, 0, 56, 20
2, 17754, Note_on_c, 0, 53, 20
2, 17761, Note_on_c, 0, 77, 0
2, 17769, Note_on_c, 0, 72, 34
2, 17780, Note_on_c, 0, 72, 0
2, 17786, Note_on_c, 0, 68, 31
2, 17800, Note_on_c, 0, 68, 0
2, 17805, Note_on_c, 0, 67, 34
2, 17811, Note_on_c, 0, 67, 0
2, 17820, Note_on_c, 0, 70, 56
2, 17834, Note_on_c, 0, 70, 0
2, 17839, Note_on_c, 0, 68, 50
2, 17851, Note_on_c, 0, 68, 0
2, 17859, Note_on_c, 0, 64, 34
2, 17865, Note_on_c, 0, 64, 0
2, 17876, Note_on_c, 0, 67, 45
2, 17885, Note_on_c, 0, 67, 0
2, 17893, Note_on_c, 0, 64, 24
2, 17898, Note_on_c, 0, 64, 0
2, 17906, Note_on_c, 0, 60, 0
2, 17908, Note_on_c, 0, 65, 58
2, 17920, Note_on_c, 0, 65, 0
2, 17927, Note_on_c, 0, 60, 57
2, 17935, Note_on_c, 0, 56, 0
2, 17938, Note_on_c, 0, 60, 0
2, 17941, Note_on_c, 0, 53, 0
2, 17944, Note_on_c, 0, 56, 45
2, 17946, Control_c, 0, 64, 127
2, 17959, Note_on_c, 0, 56, 0
2, 17963, Note_on_c, 0, 55, 44
2, 17963, Control_c, 0, 64, 0
2, 17968, Note_on_c, 0, 55, 0
2, 17978, Note_on_c, 0, 58, 58
2, 17991, Note_on_c, 0, 58, 0
2, 17996, Note_on_c, 0, 55, 29
2, 18001, Note_on_c, 0, 55, 0
2, 18010, Note_on_c, 0, 56, 46
2, 18024, Note_on_c, 0, 56, 0
2, 18043, Note_on_c, 0, 55, 60
2, 18062, Note_on_c, 0, 52, 24
2, 18066, Note_on_c, 0, 55, 0
2, 18067, Note_on_c, 0, 52, 0
2, 18076, Note_on_c, 0, 53, 36
2, 18090, Note_on_c, 0, 53, 0
2, 18098, Note_on_c, 0, 48, 43
2, 18110, Note_on_c, 0, 48, 0
2, 18148, Control_c, 0, 64, 127
2, 18218, Note_on_c, 0, 72, 72
2, 18226, Note_on_c, 0, 72, 0
2, 18239, Note_on_c, 0, 78, 49
2, 18241, Note_on_c, 0, 64, 54
2, 18241, Note_on_c, 0, 66, 56
2, 18243, Note_on_c, 0, 60, 35
2, 18243, Control_c, 0, 64, 0
2, 18245, Note_on_c, 0, 64, 0
2, 18245, Note_on_c, 0, 56, 28
2, 18246, Note_on_c, 0, 53, 22
2, 18256, Note_on_c, 0, 78, 0
2, 18256, Note_on_c, 0, 66, 0
2, 18260, Note_on_c, 0, 67, 44
2, 18262, Note_on_c, 0, 60, 0
2, 18270, Note_on_c, 0, 67, 0
2, 18273, Note_on_c, 0, 79, 43
2, 18287, Control_c, 0, 64, 127
2, 18287, Note_on_c, 0, 67, 39
2, 18294, Note_on_c, 0, 79, 0
2, 18298, Note_on_c, 0, 67, 0
2, 18301, Control_c, 0, 64, 0
2, 18305, Note_on_c, 0, 77, 36
2, 18308, Note_on_c, 0, 65, 60
2, 18316, Note_on_c, 0, 65, 0
2, 18317, Note_on_c, 0, 77, 0
2, 18338, Control_c, 0, 64, 127
2, 18345, Note_on_c, 0, 56, 0
2, 18354, Note_on_c, 0, 56, 14
2, 18355, Note_on_c, 0, 53, 0
2, 18359, Note_on_c, 0, 60, 34
2, 18359, Note_on_c, 0, 64, 31
2, 18511, Note_on_c, 0, 64, 0
2, 18517, Note_on_c, 0, 68, 72
2, 18527, Note_on_c, 0, 68, 0
2, 18539, Note_on_c, 0, 60, 0
2, 18541, Note_on_c, 0, 72, 81
2, 18549, Note_on_c, 0, 56, 0
2, 18551, Note_on_c, 0, 72, 0
2, 18572, Note_on_c, 0, 76, 84
2, 18585, Note_on_c, 0, 76, 0
2, 18598, Note_on_c, 0, 79, 82
2, 18598, Note_on_c, 0, 51, 45
2, 18599, Note_on_c, 0, 67, 89
2, 18599, Note_on_c, 0, 56, 37
2, 18600, Control_c, 0, 64, 0
2, 18600, Note_on_c, 0, 60, 49
2, 18627, Note_on_c, 0, 79, 0
2, 18635, Note_on_c, 0, 78, 73
2, 18649, Note_on_c, 0, 67, 0
2, 18654, Note_on_c, 0, 78, 0
2, 18662, Note_on_c, 0, 77, 44
2, 18664, Control_c, 0, 64, 127
2, 18673, Note_on_c, 0, 56, 0
2, 18676, Control_c, 0, 64, 0
2, 18680, Note_on_c, 0, 77, 0
2, 18684, Control_c, 0, 64, 127
2, 18691, Note_on_c, 0, 51, 0
2, 18696, Note_on_c, 0, 72, 38
2, 18700, Note_on_c, 0, 60, 0
2, 18712, Note_on_c, 0, 72, 0
2, 18719, Control_c, 0, 64, 0
2, 18720, Note_on_c, 0, 60, 41
2, 18720, Note_on_c, 0, 66, 42
2, 18722, Note_on_c, 0, 54, 26
2, 18725, Note_on_c, 0, 50, 24
2, 18760, Note_on_c, 0, 66, 0
2, 18762, Note_on_c, 0, 65, 59
2, 18786, Control_c, 0, 64, 127
2, 18807, Note_on_c, 0, 65, 0
2, 18812, Note_on_c, 0, 60, 0
2, 18819, Note_on_c, 0, 62, 52
2, 18829, Note_on_c, 0, 62, 0
2, 18836, Note_on_c, 0, 63, 52
2, 18843, Note_on_c, 0, 63, 0
2, 18845, Control_c, 0, 64, 0
2, 18849, Note_on_c, 0, 65, 61
2, 18857, Note_on_c, 0, 65, 0
2, 18858, Note_on_c, 0, 60, 15
2, 18861, Note_on_c, 0, 66, 43
2, 18872, Note_on_c, 0, 66, 0
2, 18874, Note_on_c, 0, 68, 39
2, 18881, Note_on_c, 0, 68, 0
2, 18893, Note_on_c, 0, 72, 39
2, 18899, Note_on_c, 0, 72, 0
2, 18906, Note_on_c, 0, 74, 59
2, 18909, Note_on_c, 0, 50, 0
2, 18912, Note_on_c, 0, 54, 0
2, 18915, Note_on_c, 0, 60, 0
2, 18915, Note_on_c, 0, 74, 0
2, 18917, Note_on_c, 0, 75, 60
2, 18922, Note_on_c, 0, 75, 0
2, 18929, Note_on_c, 0, 77, 38
2, 18935, Note_on_c, 0, 77, 0
2, 18939, Note_on_c, 0, 78, 45
2, 18949, Note_on_c, 0, 78, 0
2, 18953, Note_on_c, 0, 80, 34
2, 18964, Note_on_c, 0, 82, 48
2, 18967, Note_on_c, 0, 80, 0
2, 18972, Note_on_c, 0, 82, 0
2, 18980, Note_on_c, 0, 84, 69
2, 18988, Note_on_c, 0, 84, 0
2, 19007, Note_on_c, 0, 82, 73
2, 19007, Note_on_c, 0, 63, 55
2, 19008, Note_on_c, 0, 59, 51
2, 19017, Note_on_c, 0, 53, 14
2, 19018, Note_on_c, 0, 82, 0
2, 19032, Note_on_c, 0, 80, 53
2, 19041, Note_on_c, 0, 80, 0
2, 19046, Note_on_c, 0, 75, 62
2, 19058, Note_on_c, 0, 75, 0
2, 19066, Note_on_c, 0, 71, 24
2, 19075, Note_on_c, 0, 71, 0
2, 19082, Note_on_c, 0, 70, 48
2, 19089, Note_on_c, 0, 63, 0
2, 19090, Note_on_c, 0, 70, 0
2, 19098, Note_on_c, 0, 68, 40
2, 19107, Note_on_c, 0, 68, 0
2, 19116, Note_on_c, 0, 67, 40
2, 19120, Note_on_c, 0, 67, 0
2, 19135, Note_on_c, 0, 65, 53
2, 19143, Note_on_c, 0, 65, 0
2, 19146, Note_on_c, 0, 59, 0
2, 19152, Note_on_c, 0, 63, 31
2, 19155, Note_on_c, 0, 53, 0
2, 19161, Note_on_c, 0, 63, 0
2, 19167, Note_on_c, 0, 62, 30
2, 19174, Note_on_c, 0, 62, 0
2, 19183, Note_on_c, 0, 65, 75
2, 19198, Note_on_c, 0, 65, 0
2, 19200, Note_on_c, 0, 55, 36
2, 19200, Note_on_c, 0, 63, 52
2, 19208, Note_on_c, 0, 48, 22
2, 19210, Note_on_c, 0, 55, 0
2, 19237, Note_on_c, 0, 55, 36
2, 19247, Note_on_c, 0, 55, 0
2, 19253, Note_on_c, 0, 63, 0
2, 19258, Note_on_c, 0, 60, 39
2, 19263, Note_on_c, 0, 60, 0
2, 19276, Note_on_c, 0, 62, 57
2, 19283, Note_on_c, 0, 62, 0
2, 19293, Note_on_c, 0, 63, 81
2, 19299, Note_on_c, 0, 55, 29
2, 19307, Note_on_c, 0, 63, 0
2, 19315, Note_on_c, 0, 62, 43
2, 19327, Note_on_c, 0, 62, 0
2, 19330, Note_on_c, 0, 55, 0
2, 19332, Note_on_c, 0, 63, 51
2, 19343, Note_on_c, 0, 63, 0
2, 19352, Note_on_c, 0, 62, 52
2, 19356, Note_on_c, 0, 55, 29
2, 19364, Note_on_c, 0, 62, 0
2, 19369, Note_on_c, 0, 55, 0
2, 19369, Note_on_c, 0, 63, 44
2, 19380, Note_on_c, 0, 63, 0
2, 19381, Note_on_c, 0, 55, 11
2, 19388, Note_on_c, 0, 62, 53
2, 19394, Control_c, 0, 64, 127
2, 19398, Note_on_c, 0, 55, 0
2, 19406, Note_on_c, 0, 48, 0
2, 19437, Note_on_c, 0, 43, 41
2, 19440, Control_c, 0, 64, 0
2, 19457, Note_on_c, 0, 62, 0
2, 19459, Note_on_c, 0, 55, 63
2, 19469, Note_on_c, 0, 55, 0
2, 19476, Note_on_c, 0, 56, 68
2, 19493, Note_on_c, 0, 56, 0
2, 19496, Note_on_c, 0, 58, 51
2, 19507, Note_on_c, 0, 58, 0
2, 19513, Note_on_c, 0, 53, 1
2, 19514, Note_on_c, 0, 59, 52
2, 19515, Control_c, 0, 64, 127
2, 19525, Note_on_c, 0, 59, 0
2, 19530, Note_on_c, 0, 43, 0
2, 19530, Control_c, 0, 64, 0
2, 19532, Note_on_c, 0, 61, 51
2, 19541, Note_on_c, 0, 61, 0
2, 19553, Note_on_c, 0, 70, 78
2, 19567, Note_on_c, 0, 70, 0
2, 19571, Note_on_c, 0, 68, 62
2, 19585, Note_on_c, 0, 68, 0
2, 19592, Note_on_c, 0, 63, 62
2, 19595, Note_on_c, 0, 43, 35
2, 19605, Note_on_c, 0, 63, 0
2, 19611, Note_on_c, 0, 59, 38
2, 19616, Note_on_c, 0, 53, 0
2, 19627, Note_on_c, 0, 59, 0
2, 19629, Note_on_c, 0, 58, 37
2, 19631, Note_on_c, 0, 43, 0
2, 19646, Note_on_c, 0, 58, 0
2, 19650, Note_on_c, 0, 56, 39
2, 19664, Note_on_c, 0, 56, 0
2, 19667, Note_on_c, 0, 55, 39
2, 19675, Note_on_c, 0, 55, 0
2, 19680, Control_c, 0, 64, 127
2, 19682, Note_on_c, 0, 53, 52
2, 19685, Note_on_c, 0, 36, 15
2, 19695, Control_c, 0, 64, 0
2, 19697, Note_on_c, 0, 53, 0
2, 19703, Note_on_c, 0, 51, 39
2, 19716, Note_on_c, 0, 51, 0
2, 19723, Note_on_c, 0, 50, 35
2, 19733, Note_on_c, 0, 50, 0
2, 19739, Note_on_c, 0, 53, 59
2, 19751, Note_on_c, 0, 53, 0
2, 19756, Note_on_c, 0, 50, 39
2, 19763, Note_on_c, 0, 50, 0
2, 19771, Note_on_c, 0, 51, 53
2, 19791, Note_on_c, 0, 51, 0
2, 19798, Note_on_c, 0, 45, 37
2, 19801, Note_on_c, 0, 36, 0
2, 19803, Note_on_c, 0, 45, 0
2, 19836, Note_on_c, 0, 24, 45
2, 19840, Note_on_c, 0, 24, 0
2, 19859, Control_c, 0, 64, 127
2, 19886, Note_on_c, 0, 63, 35
2, 19894, Note_on_c, 0, 63, 0
2, 19903, Note_on_c, 0, 67, 50
2, 19912, Note_on_c, 0, 67, 0
2, 19921, Note_on_c, 0, 71, 68
2, 19931, Note_on_c, 0, 71, 0
2, 19939, Note_on_c, 0, 72, 76
2, 19939, Control_c, 0, 64, 0
2, 19959, Note_on_c, 0, 72, 0
2, 19962, Note_on_c, 0, 68, 63
2, 19974, Control_c, 0, 64, 127
2, 19976, Note_on_c, 0, 68, 0
2, 19982, Note_on_c, 0, 64, 39
2, 19988, Note_on_c, 0, 64, 0
2, 20001, Note_on_c, 0, 75, 59
2, 20003, Note_on_c, 0, 56, 33
2, 20003, Note_on_c, 0, 68, 48
2, 20004, Control_c, 0, 64, 0
2, 20005, Note_on_c, 0, 48, 31
2, 20006, Note_on_c, 0, 60, 32
2, 20026, Note_on_c, 0, 68, 0
2, 20028, Note_on_c, 0, 75, 0
2, 20031, Note_on_c, 0, 63, 35
2, 20033, Note_on_c, 0, 72, 45
2, 20034, Note_on_c, 0, 68, 20
2, 20041, Control_c, 0, 64, 127
2, 20076, Note_on_c, 0, 60, 0
2, 20081, Note_on_c, 0, 56, 0
2, 20153, Note_on_c, 0, 56, 25
2, 20155, Note_on_c, 0, 48, 0
2, 20155, Note_on_c, 0, 72, 0
2, 20157, Note_on_c, 0, 63, 0
2, 20157, Note_on_c, 0, 68, 0
2, 20173, Note_on_c, 0, 56, 0
2, 20176, Note_on_c, 0, 63, 39
2, 20176, Note_on_c, 0, 57, 40
2, 20176, Note_on_c, 0, 75, 47
2, 20179, Note_on_c, 0, 48, 34
2, 20180, Control_c, 0, 64, 0
2, 20199, Control_c, 0, 64, 127
2, 20206, Note_on_c, 0, 63, 0
2, 20220, Note_on_c, 0, 75, 0
2, 20259, Note_on_c, 0, 57, 0
2, 20266, Note_on_c, 0, 85, 69
2, 20266, Note_on_c, 0, 73, 73
2, 20272, Note_on_c, 0, 57, 33
2, 20274, Control_c, 0, 64, 0
2, 20287, Note_on_c, 0, 85, 0
2, 20291, Note_on_c, 0, 73, 0
2, 20293, Note_on_c, 0, 74, 37
2, 20303, Note_on_c, 0, 74, 0
2, 20307, Note_on_c, 0, 86, 38
2, 20316, Note_on_c, 0, 86, 0
2, 20317, Note_on_c, 0, 74, 29
2, 20318, Control_c, 0, 64, 127
2, 20330, Note_on_c, 0, 86, 31
2, 20331, Note_on_c, 0, 74, 0
2, 20335, Note_on_c, 0, 57, 0
2, 20345, Note_on_c, 0, 74, 39
2, 20348, Note_on_c, 0, 86, 0
2, 20352, Note_on_c, 0, 57, 28
2, 20357, Note_on_c, 0, 74, 0
2, 20381, Note_on_c, 0, 57, 0
2, 20384, Note_on_c, 0, 48, 0
2, 20384, Note_on_c, 0, 84, 45
2, 20385, Note_on_c, 0, 72, 49
2, 20392, Note_on_c, 0, 72, 0
2, 20394, Note_on_c, 0, 84, 0
2, 20410, Note_on_c, 0, 56, 37
2, 20411, Note_on_c, 0, 48, 39
2, 20413, Note_on_c, 0, 86, 65
2, 20415, Control_c, 0, 64, 0
2, 20434, Note_on_c, 0, 86, 0
2, 20446, Note_on_c, 0, 84, 62
2, 20458, Note_on_c, 0, 84, 0
2, 20474, Note_on_c, 0, 80, 54
2, 20483, Note_on_c, 0, 80, 0
2, 20496, Note_on_c, 0, 75, 61
2, 20510, Note_on_c, 0, 75, 0
2, 20519, Note_on_c, 0, 72, 44
2, 20533, Note_on_c, 0, 72, 0
2, 20538, Control_c, 0, 64, 127
2, 20564, Control_c, 0, 64, 0
2, 20580, Note_on_c, 0, 75, 74
2, 20589, Note_on_c, 0, 75, 0
2, 20602, Note_on_c, 0, 72, 63
2, 20614, Note_on_c, 0, 72, 0
2, 20618, Control_c, 0, 64, 127
2, 20620, Note_on_c, 0, 68, 52
2, 20631, Note_on_c, 0, 68, 0
2, 20636, Control_c, 0, 64, 0
2, 20637, Note_on_c, 0, 63, 39
2, 20648, Note_on_c, 0, 48, 0
2, 20652, Note_on_c, 0, 63, 0
2, 20658, Note_on_c, 0, 62, 36
2, 20661, Note_on_c, 0, 56, 0
2, 20670, Note_on_c, 0, 62, 0
2, 20670, Note_on_c, 0, 55, 22
2, 20671, Note_on_c, 0, 48, 24
2, 20678, Note_on_c, 0, 65, 64
2, 20688, Note_on_c, 0, 48, 0
2, 20692, Note_on_c, 0, 65, 0
2, 20699, Note_on_c, 0, 62, 43
2, 20707, Note_on_c, 0, 62, 0
2, 20714, Note_on_c, 0, 63, 45
2, 20717, Note_on_c, 0, 48, 2
2, 20724, Note_on_c, 0, 55, 0
2, 20735, Note_on_c, 0, 55, 36
2, 20742, Note_on_c, 0, 55, 0
2, 20745, Note_on_c, 0, 48, 0
2, 20747, Note_on_c, 0, 63, 0
2, 20756, Note_on_c, 0, 60, 32
2, 20761, Note_on_c, 0, 60, 0
2, 20774, Note_on_c, 0, 62, 52
2, 20784, Note_on_c, 0, 62, 0
2, 20801, Note_on_c, 0, 62, 67
2, 20811, Note_on_c, 0, 62, 0
2, 20812, Note_on_c, 0, 63, 51
2, 20855, Note_on_c, 0, 57, 35
2, 20857, Note_on_c, 0, 47, 28
2, 20863, Control_c, 0, 64, 127
2, 20865, Note_on_c, 0, 47, 0
2, 20867, Note_on_c, 0, 57, 0
2, 20887, Control_c, 0, 64, 0
2, 20888, Note_on_c, 0, 56, 35
2, 20890, Note_on_c, 0, 46, 37
2, 20922, Control_c, 0, 64, 127
2, 20964, Note_on_c, 0, 56, 0
2, 20975, Note_on_c, 0, 46, 0
2, 20987, Note_on_c, 0, 63, 0
2, 21008, Control_c, 0, 64, 0
2, 21009, Note_on_c, 0, 54, 25
2, 21011, Note_on_c, 0, 44, 26
2, 21039, Control_c, 0, 64, 127
2, 21043, Control_c, 0, 64, 0
2, 21075, Note_on_c, 0, 92, 73
2, 21085, Note_on_c, 0, 92, 0
2, 21089, Note_on_c, 0, 94, 58
2, 21090, Note_on_c, 0, 44, 0
2, 21097, Note_on_c, 0, 54, 0
2, 21102, Note_on_c, 0, 92, 50
2, 21109, Note_on_c, 0, 94, 0
2, 21117, Note_on_c, 0, 90, 26
2, 21122, Note_on_c, 0, 92, 0
2, 21126, Note_on_c, 0, 90, 0
2, 21136, Note_on_c, 0, 89, 24
2, 21140, Note_on_c, 0, 89, 0
2, 21151, Note_on_c, 0, 87, 47
2, 21161, Note_on_c, 0, 87, 0
2, 21178, Note_on_c, 0, 86, 61
2, 21189, Note_on_c, 0, 86, 0
2, 21197, Note_on_c, 0, 89, 74
2, 21209, Note_on_c, 0, 89, 0
2, 21215, Note_on_c, 0, 86, 60
2, 21226, Note_on_c, 0, 86, 0
2, 21233, Note_on_c, 0, 82, 57
2, 21244, Note_on_c, 0, 82, 0
2, 21252, Note_on_c, 0, 81, 30
2, 21260, Note_on_c, 0, 81, 0
2, 21271, Note_on_c, 0, 86, 61
2, 21274, Note_on_c, 0, 62, 28
2, 21276, Note_on_c, 0, 55, 31
2, 21277, Note_on_c, 0, 58, 30
2, 21281, Note_on_c, 0, 86, 0
2, 21291, Note_on_c, 0, 85, 71
2, 21300, Note_on_c, 0, 85, 0
2, 21313, Note_on_c, 0, 82, 46
2, 21325, Note_on_c, 0, 82, 0
2, 21333, Note_on_c, 0, 62, 0
2, 21338, Note_on_c, 0, 55, 0
2, 21341, Note_on_c, 0, 78, 54
2, 21354, Note_on_c, 0, 78, 0
2, 21358, Note_on_c, 0, 58, 0
2, 21358, Note_on_c, 0, 77, 34
2, 21370, Note_on_c, 0, 77, 0
2, 21370, Note_on_c, 0, 63, 38
2, 21371, Note_on_c, 0, 58, 28
2, 21375, Note_on_c, 0, 56, 18
2, 21378, Note_on_c, 0, 75, 59
2, 21387, Note_on_c, 0, 75, 0
2, 21395, Note_on_c, 0, 76, 16
2, 21401, Note_on_c, 0, 76, 0
2, 21409, Note_on_c, 0, 73, 46
2, 21424, Note_on_c, 0, 73, 0
2, 21432, Note_on_c, 0, 72, 41
2, 21438, Note_on_c, 0, 52, 1
2, 21443, Note_on_c, 0, 72, 0
2, 21452, Note_on_c, 0, 70, 43
2, 21469, Note_on_c, 0, 70, 0
2, 21475, Note_on_c, 0, 68, 49
2, 21488, Control_c, 0, 64, 127
2, 21538, Note_on_c, 0, 63, 0
2, 21551, Note_on_c, 0, 56, 0
2, 21553, Note_on_c, 0, 68, 0
2, 21553, Note_on_c, 0, 52, 0
2, 21560, Note_on_c, 0, 58, 0
2, 21566, Note_on_c, 0, 67, 36
2, 21569, Note_on_c, 0, 58, 11
2, 21578, Note_on_c, 0, 67, 0
2, 21580, Note_on_c, 0, 58, 0
2, 21581, Note_on_c, 0, 65, 36
2, 21593, Note_on_c, 0, 65, 0
2, 21599, Control_c, 0, 64, 0
2, 21602, Note_on_c, 0, 63, 26
2, 21602, Note_on_c, 0, 60, 35
2, 21602, Note_on_c, 0, 70, 56
2, 21605, Note_on_c, 0, 53, 19
2, 21622, Note_on_c, 0, 70, 0
2, 21624, Note_on_c, 0, 67, 31
2, 21630, Note_on_c, 0, 67, 0
2, 21642, Note_on_c, 0, 68, 52
2, 21654, Note_on_c, 0, 63, 0
2, 21658, Note_on_c, 0, 68, 0
2, 21660, Note_on_c, 0, 56, 1
2, 21661, Note_on_c, 0, 64, 32
2, 21696, Note_on_c, 0, 64, 0
2, 21701, Note_on_c, 0, 67, 61
2, 21707, Control_c, 0, 64, 127
2, 21717, Note_on_c, 0, 60, 0
2, 21718, Note_on_c, 0, 67, 0
2, 21718, Control_c, 0, 64, 0
2, 21726, Note_on_c, 0, 65, 56
2, 21742, Note_on_c, 0, 56, 0
2, 21743, Note_on_c, 0, 53, 0
2, 21748, Note_on_c, 0, 65, 0
2, 21757, Control_c, 0, 64, 127
2, 21761, Note_on_c, 0, 60, 43
2, 21771, Note_on_c, 0, 60, 0
2, 21782, Note_on_c, 0, 56, 42
2, 21783, Control_c, 0, 64, 0
2, 21817, Note_on_c, 0, 56, 0
2, 21823, Note_on_c, 0, 55, 30
2, 21824, Note_on_c, 0, 48, 32
2, 21826, Control_c, 0, 64, 127
2, 21832, Note_on_c, 0, 55, 0
2, 21837, Note_on_c, 0, 48, 0
2, 21839, Control_c, 0, 64, 0
2, 21841, Note_on_c, 0, 56, 46
2, 21842, Note_on_c, 0, 51, 35
2, 21883, Note_on_c, 0, 51, 0
2, 21885, Note_on_c, 0, 56, 0
2, 21885, Control_c, 0, 64, 127
2, 21899, Control_c, 0, 64, 0
2, 21905, Note_on_c, 0, 58, 60
2, 21929, Control_c, 0, 64, 127
2, 21938, Note_on_c, 0, 58, 0
2, 21956, Control_c, 0, 64, 0
2, 21962, Note_on_c, 0, 51, 28
2, 21962, Note_on_c, 0, 60, 57
2, 21964, Note_on_c, 0, 56, 33
2, 21982, Control_c, 0, 64, 127
2, 21997, Note_on_c, 0, 56, 0
2, 22001, Note_on_c, 0, 60, 0
2, 22002, Note_on_c, 0, 51, 0
2, 22017, Control_c, 0, 64, 0
2, 22018, Note_on_c, 0, 63, 40
2, 22020, Note_on_c, 0, 51, 30
2, 22020, Note_on_c, 0, 56, 25
2, 22021, Note_on_c, 0, 60, 46
2, 22040, Control_c, 0, 64, 127
2, 22048, Note_on_c, 0, 60, 0
2, 22054, Note_on_c, 0, 63, 0
2, 22061, Note_on_c, 0, 51, 0
2, 22065, Note_on_c, 0, 56, 0
2, 22066, Note_on_c, 0, 46, 29
2, 22067, Note_on_c, 0, 49, 33
2, 22074, Note_on_c, 0, 46, 0
2, 22075, Note_on_c, 0, 49, 0
2, 22077, Control_c, 0, 64, 0
2, 22081, Note_on_c, 0, 65, 54
2, 22083, Note_on_c, 0, 56, 28
2, 22084, Note_on_c, 0, 60, 37
2, 22084, Note_on_c, 0, 63, 29
2, 22085, Note_on_c, 0, 52, 20
2, 22104, Note_on_c, 0, 65, 0
2, 22111, Control_c, 0, 64, 127
2, 22122, Note_on_c, 0, 52, 0
2, 22123, Note_on_c, 0, 60, 0
2, 22124, Note_on_c, 0, 51, 37
2, 22125, Note_on_c, 0, 56, 0
2, 22126, Note_on_c, 0, 63, 0
2, 22132, Note_on_c, 0, 51, 0
2, 22136, Note_on_c, 0, 55, 71
2, 22137, Control_c, 0, 64, 0
2, 22137, Note_on_c, 0, 63, 38
2, 22137, Note_on_c, 0, 60, 55
2, 22137, Note_on_c, 0, 56, 46
2, 22138, Note_on_c, 0, 67, 62
2, 22166, Control_c, 0, 64, 127
2, 22181, Note_on_c, 0, 56, 0
2, 22186, Note_on_c, 0, 60, 0
2, 22187, Note_on_c, 0, 67, 0
2, 22190, Control_c, 0, 64, 0
2, 22195, Note_on_c, 0, 55, 0
2, 22197, Note_on_c, 0, 53, 44
2, 22199, Note_on_c, 0, 65, 29
2, 22200, Note_on_c, 0, 63, 0
2, 22203, Note_on_c, 0, 65, 0
2, 22204, Control_c, 0, 64, 127
2, 22210, Note_on_c, 0, 53, 0
2, 22236, Note_on_c, 0, 58, 59
2, 22238, Note_on_c, 0, 70, 63
2, 22238, Note_on_c, 0, 63, 51
2, 22240, Note_on_c, 0, 67, 53
2, 22240, Note_on_c, 0, 60, 65
2, 22246, Control_c, 0, 64, 0
2, 22259, Note_on_c, 0, 67, 0
2, 22263, Control_c, 0, 64, 127
2, 22264, Note_on_c, 0, 60, 0
2, 22267, Note_on_c, 0, 63, 0
2, 22270, Note_on_c, 0, 70, 0
2, 22272, Note_on_c, 0, 58, 0
2, 22278, Note_on_c, 0, 56, 42
2, 22279, Note_on_c, 0, 68, 53
2, 22281, Note_on_c, 0, 63, 27
2, 22281, Note_on_c, 0, 60, 31
2, 22285, Note_on_c, 0, 60, 0
2, 22285, Note_on_c, 0, 63, 0
2, 22290, Note_on_c, 0, 56, 0
2, 22291, Note_on_c, 0, 68, 0
2, 22326, Note_on_c, 0, 79, 66
2, 22327, Note_on_c, 0, 72, 63
2, 22328, Note_on_c, 0, 68, 43
2, 22329, Control_c, 0, 64, 0
2, 22329, Note_on_c, 0, 56, 30
2, 22330, Note_on_c, 0, 64, 33
2, 22330, Note_on_c, 0, 60, 42
2, 22353, Control_c, 0, 64, 127
2, 22358, Note_on_c, 0, 79, 0
2, 22359, Note_on_c, 0, 75, 14
2, 22364, Note_on_c, 0, 75, 0
2, 22369, Note_on_c, 0, 78, 64
2, 22395, Note_on_c, 0, 78, 0
2, 22396, Note_on_c, 0, 64, 0
2, 22403, Note_on_c, 0, 60, 0
2, 22409, Note_on_c, 0, 68, 0
2, 22410, Note_on_c, 0, 77, 64
2, 22423, Note_on_c, 0, 72, 0
2, 22441, Note_on_c, 0, 77, 0
2, 22441, Note_on_c, 0, 56, 0
2, 22452, Note_on_c, 0, 56, 18
2, 22452, Note_on_c, 0, 77, 35
2, 22452, Note_on_c, 0, 51, 35
2, 22453, Note_on_c, 0, 60, 36
2, 22454, Control_c, 0, 64, 0
2, 22455, Note_on_c, 0, 72, 45
2, 22455, Note_on_c, 0, 68, 27
2, 22480, Control_c, 0, 64, 127
2, 22526, Note_on_c, 0, 56, 0
2, 22535, Note_on_c, 0, 60, 0
2, 22541, Note_on_c, 0, 51, 0
2, 22546, Note_on_c, 0, 68, 0
2, 22551, Note_on_c, 0, 72, 0
2, 22557, Note_on_c, 0, 77, 0
2, 22572, Note_on_c, 0, 66, 30
2, 22574, Note_on_c, 0, 60, 35
2, 22574, Note_on_c, 0, 77, 32
2, 22575, Control_c, 0, 64, 0
2, 22575, Note_on_c, 0, 54, 26
2, 22576, Note_on_c, 0, 72, 34
2, 22580, Note_on_c, 0, 50, 25
2, 22599, Control_c, 0, 64, 127
2, 22637, Note_on_c, 0, 72, 0
2, 22642, Note_on_c, 0, 77, 0
2, 22648, Note_on_c, 0, 60, 0
2, 22656, Note_on_c, 0, 54, 0
2, 22659, Note_on_c, 0, 66, 0
2, 22693, Note_on_c, 0, 54, 31
2, 22720, Note_on_c, 0, 60, 48
2, 22760, Note_on_c, 0, 60, 0
2, 22762, Note_on_c, 0, 61, 38
2, 22777, Note_on_c, 0, 61, 0
2, 22777, Note_on_c, 0, 62, 52
2, 22782, Control_c, 0, 64, 0
2, 22787, Note_on_c, 0, 62, 0
2, 22791, Note_on_c, 0, 63, 49
2, 22793, Note_on_c, 0, 50, 0
2, 22800, Note_on_c, 0, 63, 0
2, 22802, Note_on_c, 0, 54, 0
2, 22802, Note_on_c, 0, 64, 61
2, 22811, Note_on_c, 0, 64, 0
2, 22829, Note_on_c, 0, 65, 47
2, 22837, Note_on_c, 0, 65, 0
2, 22840, Note_on_c, 0, 66, 30
2, 22844, Note_on_c, 0, 66, 0
2, 22850, Note_on_c, 0, 67, 22
2, 22862, Note_on_c, 0, 67, 0
2, 22863, Note_on_c, 0, 68, 48
2, 22874, Note_on_c, 0, 69, 50
2, 22875, Note_on_c, 0, 68, 0
2, 22883, Note_on_c, 0, 69, 0
2, 22884, Note_on_c, 0, 59, 28
2, 22885, Note_on_c, 0, 64, 32
2, 22886, Note_on_c, 0, 70, 64
2, 22887, Note_on_c, 0, 53, 32
2, 22922, Control_c, 0, 64, 127
2, 22945, Note_on_c, 0, 64, 0
2, 22960, Note_on_c, 0, 68, 44
2, 22966, Note_on_c, 0, 59, 0
2, 22969, Control_c, 0, 64, 0
2, 22969, Note_on_c, 0, 63, 39
2, 22970, Note_on_c, 0, 70, 0
2, 22972, Note_on_c, 0, 68, 0
2, 22977, Note_on_c, 0, 53, 0
2, 22984, Note_on_c, 0, 59, 42
2, 22986, Note_on_c, 0, 63, 0
2, 23028, Note_on_c, 0, 59, 0
2, 23029, Note_on_c, 0, 70, 48
2, 23038, Note_on_c, 0, 68, 20
2, 23040, Note_on_c, 0, 70, 0
2, 23047, Note_on_c, 0, 67, 30
2, 23050, Note_on_c, 0, 68, 0
2, 23056, Note_on_c, 0, 63, 31
2, 23058, Note_on_c, 0, 67, 0
2, 23067, Note_on_c, 0, 63, 0
2, 23067, Note_on_c, 0, 62, 39
2, 23073, Note_on_c, 0, 55, 10
2, 23074, Note_on_c, 0, 62, 0
2, 23074, Note_on_c, 0, 58, 23
2, 23076, Note_on_c, 0, 48, 31
2, 23083, Note_on_c, 0, 67, 52
2, 23096, Note_on_c, 0, 67, 0
2, 23101, Note_on_c, 0, 62, 44
2, 23107, Note_on_c, 0, 62, 0
2, 23115, Note_on_c, 0, 65, 32
2, 23124, Note_on_c, 0, 65, 0
2, 23126, Note_on_c, 0, 58, 0
2, 23128, Note_on_c, 0, 62, 29
2, 23134, Note_on_c, 0, 62, 0
2, 23138, Note_on_c, 0, 63, 48
2, 23151, Note_on_c, 0, 63, 0
2, 23153, Note_on_c, 0, 59, 29
2, 23157, Note_on_c, 0, 59, 0
2, 23161, Note_on_c, 0, 62, 60
2, 23165, Note_on_c, 0, 55, 0
2, 23180, Note_on_c, 0, 55, 44
2, 23185, Note_on_c, 0, 55, 0
2, 23190, Control_c, 0, 64, 127
2, 23196, Note_on_c, 0, 62, 0
2, 23199, Note_on_c, 0, 55, 54
2, 23209, Note_on_c, 0, 55, 0
2, 23220, Note_on_c, 0, 55, 49
2, 23230, Note_on_c, 0, 55, 0
2, 23240, Note_on_c, 0, 55, 55
2, 23245, Note_on_c, 0, 48, 0
2, 23248, Note_on_c, 0, 55, 0
2, 23257, Note_on_c, 0, 55, 59
2, 23265, Note_on_c, 0, 55, 0
2, 23275, Note_on_c, 0, 55, 62
2, 23284, Control_c, 0, 64, 0
2, 23334, Note_on_c, 0, 55, 0
2, 23335, Note_on_c, 0, 62, 66
2, 23340, Note_on_c, 0, 62, 0
2, 23378, Note_on_c, 0, 63, 71
2, 23391, Note_on_c, 0, 63, 0
2, 23399, Note_on_c, 0, 62, 71
2, 23412, Note_on_c, 0, 62, 0
2, 23441, Note_on_c, 0, 60, 67
2, 23457, Note_on_c, 0, 60, 0
2, 23465, Note_on_c, 0, 55, 48
2, 23498, Control_c, 0, 64, 127
2, 23503, Note_on_c, 0, 39, 35
2, 23509, Note_on_c, 0, 39, 0
2, 23510, Note_on_c, 0, 55, 0
2, 23519, Control_c, 0, 64, 0
2, 23523, Note_on_c, 0, 56, 49
2, 23524, Note_on_c, 0, 50, 49
2, 23557, Control_c, 0, 64, 127
2, 23574, Note_on_c, 0, 50, 0
2, 23586, Note_on_c, 0, 56, 0
2, 23642, Note_on_c, 0, 56, 30
2, 23642, Note_on_c, 0, 60, 44
2, 23645, Note_on_c, 0, 50, 30
2, 23646, Control_c, 0, 64, 0
2, 23679, Control_c, 0, 64, 127
2, 23685, Note_on_c, 0, 65, 52
2, 23688, Note_on_c, 0, 65, 0
2, 23698, Control_c, 0, 64, 0
2, 23703, Note_on_c, 0, 68, 94
2, 23710, Note_on_c, 0, 50, 0
2, 23711, Control_c, 0, 64, 127
2, 23715, Note_on_c, 0, 56, 0
2, 23719, Note_on_c, 0, 60, 0
2, 23741, Note_on_c, 0, 68, 0
2, 23745, Note_on_c, 0, 75, 80
2, 23748, Note_on_c, 0, 59, 53
2, 23749, Note_on_c, 0, 64, 52
2, 23749, Control_c, 0, 64, 0
2, 23753, Note_on_c, 0, 53, 26
2, 23770, Note_on_c, 0, 75, 0
2, 23784, Note_on_c, 0, 75, 71
2, 23794, Note_on_c, 0, 75, 0
2, 23794, Note_on_c, 0, 76, 66
2, 23832, Note_on_c, 0, 76, 0
2, 23834, Note_on_c, 0, 71, 45
2, 23859, Control_c, 0, 64, 127
2, 23881, Control_c, 0, 64, 0
2, 23893, Note_on_c, 0, 68, 49
2, 23906, Note_on_c, 0, 64, 0
2, 23939, Control_c, 0, 64, 127
2, 23947, Note_on_c, 0, 59, 0
2, 23953, Note_on_c, 0, 53, 0
2, 23957, Note_on_c, 0, 71, 0
2, 23972, Note_on_c, 0, 68, 0
2, 23974, Note_on_c, 0, 67, 46
2, 23993, Note_on_c, 0, 67, 0
2, 23998, Control_c, 0, 64, 0
2, 24003, Note_on_c, 0, 65, 44
2, 24005, Note_on_c, 0, 55, 25
2, 24005, Note_on_c, 0, 48, 29
2, 24146, Note_on_c, 0, 63, 56
2, 24150, Note_on_c, 0, 65, 0
2, 24161, Note_on_c, 0, 63, 0
2, 24165, Note_on_c, 0, 59, 46
2, 24172, Note_on_c, 0, 59, 0
2, 24183, Note_on_c, 0, 62, 76
2, 24197, Note_on_c, 0, 62, 0
2, 24200, Note_on_c, 0, 59, 44
2, 24208, Note_on_c, 0, 59, 0
2, 24220, Note_on_c, 0, 60, 67
2, 24232, Note_on_c, 0, 60, 0
2, 24240, Note_on_c, 0, 62, 61
2, 24250, Note_on_c, 0, 62, 0
2, 24259, Note_on_c, 0, 63, 54
2, 24267, Note_on_c, 0, 63, 0
2, 24278, Note_on_c, 0, 67, 62
2, 24285, Note_on_c, 0, 67, 0
2, 24297, Note_on_c, 0, 71, 84
2, 24311, Note_on_c, 0, 71, 0
2, 24315, Note_on_c, 0, 74, 87
2, 24331, Note_on_c, 0, 74, 0
2, 24333, Note_on_c, 0, 71, 76
2, 24343, Note_on_c, 0, 48, 0
2, 24352, Note_on_c, 0, 72, 62
2, 24356, Note_on_c, 0, 71, 0
2, 24365, Note_on_c, 0, 72, 0
2, 24366, Note_on_c, 0, 55, 0
2, 24370, Note_on_c, 0, 74, 54
2, 24381, Note_on_c, 0, 74, 0
2, 24388, Note_on_c, 0, 75, 77
2, 24398, Note_on_c, 0, 75, 0
2, 24407, Note_on_c, 0, 79, 71
2, 24417, Note_on_c, 0, 79, 0
2, 24426, Note_on_c, 0, 83, 73
2, 24437, Note_on_c, 0, 83, 0
2, 24445, Note_on_c, 0, 86, 66
2, 24446, Control_c, 0, 64, 127
2, 24452, Note_on_c, 0, 86, 0
2, 24464, Note_on_c, 0, 89, 74
2, 24472, Note_on_c, 0, 89, 0
2, 24483, Control_c, 0, 64, 0
2, 24485, Note_on_c, 0, 56, 35
2, 24485, Note_on_c, 0, 90, 67
2, 24485, Note_on_c, 0, 60, 57
2, 24486, Note_on_c, 0, 78, 69
2, 24486, Note_on_c, 0, 50, 42
2, 24502, Note_on_c, 0, 91, 18
2, 24504, Note_on_c, 0, 90, 0
2, 24508, Note_on_c, 0, 78, 0
2, 24509, Note_on_c, 0, 79, 34
2, 24528, Note_on_c, 0, 91, 0
2, 24533, Note_on_c, 0, 79, 0
2, 24542, Note_on_c, 0, 89, 50
2, 24545, Note_on_c, 0, 77, 39
2, 24547, Control_c, 0, 64, 127
2, 24548, Note_on_c, 0, 50, 0
2, 24554, Note_on_c, 0, 56, 0
2, 24558, Note_on_c, 0, 60, 0
2, 24583, Note_on_c, 0, 89, 0
2, 24592, Note_on_c, 0, 77, 0
2, 24600, Note_on_c, 0, 87, 58
2, 24600, Note_on_c, 0, 65, 40
2, 24602, Control_c, 0, 64, 0
2, 24602, Note_on_c, 0, 60, 33
2, 24603, Note_on_c, 0, 54, 30
2, 24633, Control_c, 0, 64, 127
2, 24676, Note_on_c, 0, 60, 0
2, 24678, Note_on_c, 0, 65, 0
2, 24693, Note_on_c, 0, 84, 32
2, 24701, Note_on_c, 0, 87, 0
2, 24704, Note_on_c, 0, 84, 0
2, 24711, Note_on_c, 0, 54, 0
2, 24722, Control_c, 0, 64, 0
2, 24724, Note_on_c, 0, 64, 47
2, 24724, Note_on_c, 0, 59, 36
2, 24724, Note_on_c, 0, 90, 59
2, 24725, Note_on_c, 0, 78, 69
2, 24725, Note_on_c, 0, 53, 35
2, 24765, Note_on_c, 0, 78, 0
2, 24768, Note_on_c, 0, 90, 0
2, 24769, Note_on_c, 0, 89, 62
2, 24770, Note_on_c, 0, 77, 29
2, 24802, Control_c, 0, 64, 127
2, 24840, Note_on_c, 0, 89, 0
2, 24845, Control_c, 0, 64, 0
2, 24848, Note_on_c, 0, 87, 56
2, 24853, Note_on_c, 0, 77, 0
2, 24860, Control_c, 0, 64, 127
2, 24915, Note_on_c, 0, 64, 0
2, 24916, Note_on_c, 0, 59, 0
2, 24918, Note_on_c, 0, 53, 0
2, 24929, Note_on_c, 0, 87, 0
2, 24935, Note_on_c, 0, 83, 27
2, 24949, Note_on_c, 0, 83, 0
2, 24960, Control_c, 0, 64, 0
2, 24961, Note_on_c, 0, 62, 43
2, 24962, Note_on_c, 0, 86, 83
2, 24963, Note_on_c, 0, 51, 29
2, 24966, Note_on_c, 0, 57, 40
2, 24976, Note_on_c, 0, 86, 0
2, 24983, Note_on_c, 0, 84, 64
2, 24993, Note_on_c, 0, 84, 0
2, 25000, Note_on_c, 0, 79, 44
2, 25013, Note_on_c, 0, 79, 0
2, 25017, Note_on_c, 0, 78, 34
2, 25027, Note_on_c, 0, 78, 0
2, 25037, Note_on_c, 0, 77, 22
2, 25098, Control_c, 0, 64, 127
2, 25128, Note_on_c, 0, 57, 0
2, 25129, Note_on_c, 0, 51, 0
2, 25136, Note_on_c, 0, 62, 0
2, 25169, Note_on_c, 0, 77, 0
2, 25184, Note_on_c, 0, 75, 62
2, 25192, Note_on_c, 0, 75, 0
2, 25212, Control_c, 0, 64, 0
2, 25213, Note_on_c, 0, 63, 37
2, 25214, Note_on_c, 0, 67, 39
2, 25214, Note_on_c, 0, 59, 34
2, 25216, Note_on_c, 0, 75, 62
2, 25231, Note_on_c, 0, 75, 0
2, 25260, Note_on_c, 0, 74, 42
2, 25270, Note_on_c, 0, 74, 0
2, 25273, Note_on_c, 0, 72, 34
2, 25284, Note_on_c, 0, 72, 0
2, 25287, Note_on_c, 0, 71, 31
2, 25310, Note_on_c, 0, 71, 0
2, 25321, Note_on_c, 0, 74, 71
2, 25335, Note_on_c, 0, 74, 0
2, 25362, Note_on_c, 0, 73, 38
2, 25371, Note_on_c, 0, 73, 0
2, 25377, Note_on_c, 0, 67, 0
2, 25383, Control_c, 0, 64, 127
2, 25389, Note_on_c, 0, 71, 64
2, 25399, Note_on_c, 0, 71, 0
2, 25401, Note_on_c, 0, 63, 0
2, 25405, Note_on_c, 0, 59, 0
2, 25416, Note_on_c, 0, 70, 59
2, 25417, Control_c, 0, 64, 0
2, 25431, Note_on_c, 0, 70, 0
2, 25436, Note_on_c, 0, 68, 56
2, 25439, Control_c, 0, 64, 127
2, 25444, Note_on_c, 0, 59, 35
2, 25445, Control_c, 0, 64, 0
2, 25449, Note_on_c, 0, 56, 18
2, 25452, Note_on_c, 0, 68, 0
2, 25454, Note_on_c, 0, 63, 13
2, 25462, Note_on_c, 0, 65, 30
2, 25477, Note_on_c, 0, 65, 0
2, 25490, Note_on_c, 0, 71, 66
2, 25507, Note_on_c, 0, 71, 0
2, 25518, Note_on_c, 0, 53, 1
2, 25519, Note_on_c, 0, 63, 0
2, 25520, Note_on_c, 0, 70, 60
2, 25536, Note_on_c, 0, 70, 0
2, 25543, Note_on_c, 0, 59, 0
2, 25549, Note_on_c, 0, 68, 53
2, 25564, Note_on_c, 0, 68, 0
2, 25571, Note_on_c, 0, 63, 35
2, 25591, Control_c, 0, 64, 127
2, 25593, Note_on_c, 0, 59, 29
2, 25616, Note_on_c, 0, 56, 0
2, 25618, Note_on_c, 0, 53, 0
2, 25639, Note_on_c, 0, 59, 0
2, 25646, Note_on_c, 0, 63, 0
2, 25664, Control_c, 0, 64, 0
2, 25672, Control_c, 0, 64, 127
2, 25722, Note_on_c, 0, 82, 84
2, 25722, Note_on_c, 0, 62, 70
2, 25722, Note_on_c, 0, 75, 81
2, 25722, Note_on_c, 0, 66, 76
2, 25723, Note_on_c, 0, 71, 80
2, 25723, Note_on_c, 0, 56, 60
2, 25726, Control_c, 0, 64, 0
2, 25744, Control_c, 0, 64, 127
2, 25751, Note_on_c, 0, 71, 0
2, 25752, Note_on_c, 0, 75, 0
2, 25752, Note_on_c, 0, 56, 0
2, 25753, Note_on_c, 0, 82, 0
2, 25754, Note_on_c, 0, 66, 0
2, 25759, Note_on_c, 0, 75, 57
2, 25760, Note_on_c, 0, 80, 67
2, 25760, Note_on_c, 0, 71, 47
2, 25761, Note_on_c, 0, 56, 51
2, 25763, Control_c, 0, 64, 0
2, 25768, Control_c, 0, 64, 127
2, 25793, Note_on_c, 0, 71, 0
2, 25798, Note_on_c, 0, 56, 0
2, 25801, Note_on_c, 0, 80, 0
2, 25801, Note_on_c, 0, 75, 0
2, 25813, Note_on_c, 0, 69, 44
2, 25814, Note_on_c, 0, 81, 48
2, 25814, Note_on_c, 0, 66, 40
2, 25814, Note_on_c, 0, 74, 35
2, 25816, Note_on_c, 0, 56, 31
2, 25817, Note_on_c, 0, 71, 32
2, 25818, Control_c, 0, 64, 0
2, 25821, Note_on_c, 0, 71, 0
2, 25838, Control_c, 0, 64, 127
2, 25872, Note_on_c, 0, 62, 0
2, 25872, Note_on_c, 0, 66, 0
2, 25880, Note_on_c, 0, 81, 0
2, 25883, Note_on_c, 0, 56, 0
2, 25887, Note_on_c, 0, 69, 0
2, 25899, Note_on_c, 0, 74, 0
2, 25903, Note_on_c, 0, 80, 53
2, 25921, Note_on_c, 0, 80, 0
2, 25934, Note_on_c, 0, 62, 31
2, 25935, Note_on_c, 0, 58, 35
2, 25935, Note_on_c, 0, 81, 34
2, 25936, Control_c, 0, 64, 0
2, 25936, Note_on_c, 0, 54, 34
2, 25937, Note_on_c, 0, 51, 20
2, 25943, Note_on_c, 0, 81, 0
2, 25959, Control_c, 0, 64, 127
2, 26033, Note_on_c, 0, 62, 0
2, 26034, Note_on_c, 0, 58, 0
2, 26038, Note_on_c, 0, 54, 0
2, 26050, Note_on_c, 0, 62, 29
2, 26051, Note_on_c, 0, 58, 28
2, 26051, Note_on_c, 0, 54, 28
2, 26076, Note_on_c, 0, 77, 66
2, 26077, Note_on_c, 0, 73, 46
2, 26122, Note_on_c, 0, 73, 0
2, 26130, Note_on_c, 0, 75, 56
2, 26133, Note_on_c, 0, 72, 34
2, 26139, Note_on_c, 0, 62, 0
2, 26139, Note_on_c, 0, 77, 0
2, 26143, Note_on_c, 0, 58, 0
2, 26147, Note_on_c, 0, 72, 0
2, 26160, Note_on_c, 0, 75, 0
2, 26165, Note_on_c, 0, 70, 40
2, 26165, Note_on_c, 0, 74, 47
2, 26168, Note_on_c, 0, 62, 35
2, 26168, Note_on_c, 0, 58, 29
2, 26170, Control_c, 0, 64, 0
2, 26207, Note_on_c, 0, 75, 63
2, 26207, Control_c, 0, 64, 127
2, 26210, Note_on_c, 0, 74, 0
2, 26226, Note_on_c, 0, 70, 0
2, 26244, Note_on_c, 0, 62, 0
2, 26251, Note_on_c, 0, 58, 0
2, 26255, Note_on_c, 0, 75, 0
2, 26282, Note_on_c, 0, 70, 38
2, 26282, Note_on_c, 0, 62, 33
2, 26283, Note_on_c, 0, 73, 27
2, 26284, Control_c, 0, 64, 0
2, 26285, Note_on_c, 0, 58, 20
2, 26294, Control_c, 0, 64, 127
2, 26307, Note_on_c, 0, 70, 0
2, 26309, Note_on_c, 0, 51, 0
2, 26310, Note_on_c, 0, 62, 0
2, 26323, Note_on_c, 0, 51, 35
2, 26325, Note_on_c, 0, 66, 30
2, 26327, Control_c, 0, 64, 0
2, 26335, Control_c, 0, 64, 127
2, 26350, Note_on_c, 0, 54, 0
2, 26354, Note_on_c, 0, 51, 0
2, 26356, Note_on_c, 0, 58, 0
2, 26369, Note_on_c, 0, 66, 0
2, 26387, Note_on_c, 0, 73, 0
2, 26403, Note_on_c, 0, 59, 29
2, 26403, Note_on_c, 0, 61, 29
2, 26404, Note_on_c, 0, 65, 42
2, 26404, Note_on_c, 0, 71, 41
2, 26408, Control_c, 0, 64, 0
2, 26408, Note_on_c, 0, 57, 30
2, 26410, Note_on_c, 0, 53, 19
2, 26436, Control_c, 0, 64, 127
2, 26504, Note_on_c, 0, 65, 0
2, 26513, Note_on_c, 0, 71, 0
2, 26540, Note_on_c, 0, 61, 0
2, 26559, Note_on_c, 0, 62, 49
2, 26572, Note_on_c, 0, 62, 0
2, 26577, Note_on_c, 0, 63, 59
2, 26578, Note_on_c, 0, 62, 13
2, 26590, Note_on_c, 0, 62, 0
2, 26602, Note_on_c, 0, 63, 0
2, 26605, Note_on_c, 0, 72, 65
2, 26637, Note_on_c, 0, 63, 42
2, 26647, Control_c, 0, 64, 0
2, 26649, Note_on_c, 0, 72, 0
2, 26649, Control_c, 0, 64, 127
2, 26655, Note_on_c, 0, 63, 0
2, 26656, Note_on_c, 0, 64, 64
2, 26679, Note_on_c, 0, 73, 62
2, 26682, Control_c, 0, 64, 0
2, 26682, Note_on_c, 0, 61, 25
2, 26685, Note_on_c, 0, 64, 0
2, 26691, Control_c, 0, 64, 127
2, 26702, Note_on_c, 0, 64, 44
2, 26705, Note_on_c, 0, 73, 0
2, 26723, Note_on_c, 0, 65, 42
2, 26728, Note_on_c, 0, 64, 0
2, 26740, Note_on_c, 0, 65, 0
2, 26744, Note_on_c, 0, 74, 65
2, 26746, Control_c, 0, 64, 0
2, 26760, Control_c, 0, 64, 127
2, 26783, Note_on_c, 0, 66, 36
2, 26798, Note_on_c, 0, 74, 0
2, 26805, Note_on_c, 0, 66, 0
2, 26815, Note_on_c, 0, 67, 16
2, 26831, Note_on_c, 0, 75, 62
2, 26831, Control_c, 0, 64, 0
2, 26845, Control_c, 0, 64, 127
2, 26869, Note_on_c, 0, 57, 0
2, 26870, Note_on_c, 0, 59, 0
2, 26870, Note_on_c, 0, 53, 0
2, 26882, Note_on_c, 0, 61, 0
2, 26915, Note_on_c, 0, 67, 0
2, 26936, Note_on_c, 0, 66, 46
2, 26938, Note_on_c, 0, 54, 36
2, 26940, Note_on_c, 0, 60, 32
2, 26943, Control_c, 0, 64, 0
2, 26947, Note_on_c, 0, 75, 0
2, 26966, Control_c, 0, 64, 127
2, 27000, Note_on_c, 0, 60, 0
2, 27002, Note_on_c, 0, 66, 0
2, 27002, Note_on_c, 0, 72, 26
2, 27020, Note_on_c, 0, 72, 0
2, 27031, Note_on_c, 0, 54, 0
2, 27057, Note_on_c, 0, 65, 30
2, 27059, Note_on_c, 0, 60, 33
2, 27060, Note_on_c, 0, 54, 20
2, 27060, Note_on_c, 0, 58, 29
2, 27081, Note_on_c, 0, 58, 0
2, 27081, Note_on_c, 0, 65, 0
2, 27081, Note_on_c, 0, 60, 0
2, 27081, Note_on_c, 0, 54, 0
2, 27093, Note_on_c, 0, 89, 74
2, 27094, Note_on_c, 0, 65, 71
2, 27094, Note_on_c, 0, 84, 79
2, 27094, Note_on_c, 0, 60, 60
2, 27094, Note_on_c, 0, 54, 62
2, 27095, Note_on_c, 0, 58, 51
2, 27095, Note_on_c, 0, 77, 71
2, 27110, Note_on_c, 0, 77, 0
2, 27114, Note_on_c, 0, 84, 0
2, 27115, Note_on_c, 0, 89, 0
2, 27120, Note_on_c, 0, 65, 0
2, 27120, Note_on_c, 0, 54, 0
2, 27122, Note_on_c, 0, 58, 0
2, 27122, Note_on_c, 0, 60, 0
2, 27135, Note_on_c, 0, 92, 83
2, 27136, Note_on_c, 0, 80, 84
2, 27136, Note_on_c, 0, 58, 71
2, 27137, Note_on_c, 0, 65, 82
2, 27137, Note_on_c, 0, 54, 76
2, 27137, Note_on_c, 0, 60, 79
2, 27138, Note_on_c, 0, 87, 72
2, 27139, Control_c, 0, 64, 0
2, 27141, Note_on_c, 0, 87, 0
2, 27145, Control_c, 0, 64, 127
2, 27145, Note_on_c, 0, 87, 31
2, 27156, Note_on_c, 0, 87, 0
2, 27160, Note_on_c, 0, 60, 0
2, 27160, Note_on_c, 0, 80, 0
2, 27163, Note_on_c, 0, 65, 0
2, 27164, Note_on_c, 0, 92, 0
2, 27170, Note_on_c, 0, 54, 0
2, 27171, Note_on_c, 0, 58, 0
2, 27179, Note_on_c, 0, 64, 76
2, 27179, Note_on_c, 0, 59, 65
2, 27180, Note_on_c, 0, 53, 71
2, 27181, Note_on_c, 0, 94, 83
2, 27181, Note_on_c, 0, 82, 69
2, 27181, Note_on_c, 0, 87, 76
2, 27185, Control_c, 0, 64, 0
2, 27202, Control_c, 0, 64, 127
2, 27217, Note_on_c, 0, 94, 0
2, 27217, Note_on_c, 0, 53, 0
2, 27220, Note_on_c, 0, 87, 0
2, 27221, Note_on_c, 0, 82, 0
2, 27222, Note_on_c, 0, 64, 0
2, 27224, Note_on_c, 0, 59, 0
2, 27231, Note_on_c, 0, 92, 63
2, 27231, Note_on_c, 0, 80, 53
2, 27231, Note_on_c, 0, 64, 46
2, 27231, Note_on_c, 0, 87, 52
2, 27232, Note_on_c, 0, 59, 47
2, 27235, Note_on_c, 0, 53, 37
2, 27268, Note_on_c, 0, 87, 0
2, 27269, Note_on_c, 0, 92, 0
2, 27270, Note_on_c, 0, 53, 0
2, 27271, Note_on_c, 0, 80, 0
2, 27276, Note_on_c, 0, 64, 0
2, 27282, Note_on_c, 0, 59, 0
2, 27306, Note_on_c, 0, 63, 35
2, 27307, Note_on_c, 0, 87, 42
2, 27307, Note_on_c, 0, 79, 44
2, 27308, Note_on_c, 0, 91, 49
2, 27309, Note_on_c, 0, 59, 39
2, 27309, Note_on_c, 0, 56, 27
2, 27313, Control_c, 0, 64, 0
2, 27314, Note_on_c, 0, 53, 15
2, 27342, Control_c, 0, 64, 127
2, 27359, Note_on_c, 0, 59, 0
2, 27367, Note_on_c, 0, 53, 0
2, 27369, Note_on_c, 0, 63, 0
2, 27374, Note_on_c, 0, 56, 0
2, 27383, Note_on_c, 0, 91, 0
2, 27384, Note_on_c, 0, 87, 0
2, 27396, Note_on_c, 0, 79, 0
2, 27398, Note_on_c, 0, 86, 53
2, 27407, Note_on_c, 0, 86, 0
2, 27414, Note_on_c, 0, 89, 72
2, 27417, Control_c, 0, 64, 0
2, 27420, Note_on_c, 0, 62, 33
2, 27423, Note_on_c, 0, 51, 26
2, 27423, Note_on_c, 0, 57, 34
2, 27425, Note_on_c, 0, 55, 34
2, 27426, Note_on_c, 0, 89, 0
2, 27437, Note_on_c, 0, 87, 51
2, 27447, Note_on_c, 0, 87, 0
2, 27457, Note_on_c, 0, 79, 18
2, 27463, Note_on_c, 0, 79, 0
2, 27471, Note_on_c, 0, 86, 71
2, 27486, Note_on_c, 0, 86, 0
2, 27492, Note_on_c, 0, 84, 43
2, 27503, Note_on_c, 0, 84, 0
2, 27509, Note_on_c, 0, 76, 39
2, 27521, Note_on_c, 0, 76, 0
2, 27527, Note_on_c, 0, 79, 53
2, 27540, Note_on_c, 0, 79, 0
2, 27599, Note_on_c, 0, 67, 33
2, 27606, Note_on_c, 0, 67, 0
2, 27619, Note_on_c, 0, 74, 58
2, 27622, Note_on_c, 0, 57, 0
2, 27623, Note_on_c, 0, 62, 0
2, 27625, Note_on_c, 0, 55, 0
2, 27628, Note_on_c, 0, 74, 0
2, 27634, Note_on_c, 0, 51, 0
2, 27637, Note_on_c, 0, 75, 74
2, 27646, Note_on_c, 0, 75, 0
2, 27656, Note_on_c, 0, 75, 60
2, 27660, Control_c, 0, 64, 127
2, 27668, Note_on_c, 0, 75, 0
2, 27675, Control_c, 0, 64, 0
2, 27676, Note_on_c, 0, 56, 32
2, 27680, Note_on_c, 0, 48, 29
2, 27698, Note_on_c, 0, 72, 58
2, 27706, Note_on_c, 0, 72, 0
2, 27717, Note_on_c, 0, 68, 38
2, 27729, Note_on_c, 0, 68, 0
2, 27739, Note_on_c, 0, 64, 28
2, 27774, Note_on_c, 0, 64, 0
2, 27781, Note_on_c, 0, 63, 34
2, 27810, Control_c, 0, 64, 127
2, 27813, Note_on_c, 0, 56, 0
2, 27834, Note_on_c, 0, 56, 25
2, 27854, Note_on_c, 0, 48, 0
2, 27882, Note_on_c, 0, 48, 32
2, 27884, Note_on_c, 0, 60, 33
2, 27888, Note_on_c, 0, 48, 0
2, 27892, Note_on_c, 0, 60, 0
2, 27895, Note_on_c, 0, 63, 0
2, 27899, Note_on_c, 0, 56, 0
2, 27905, Control_c, 0, 64, 0
2, 27906, Note_on_c, 0, 62, 64
2, 27907, Note_on_c, 0, 55, 36
2, 27908, Note_on_c, 0, 48, 30
2, 27917, Note_on_c, 0, 62, 0
2, 27923, Note_on_c, 0, 63, 39
2, 27932, Note_on_c, 0, 62, 37
2, 27940, Note_on_c, 0, 63, 0
2, 27944, Note_on_c, 0, 62, 0
2, 27948, Note_on_c, 0, 60, 33
2, 27959, Note_on_c, 0, 60, 0
2, 27962, Note_on_c, 0, 59, 37
2, 28000, Note_on_c, 0, 59, 0
2, 28001, Note_on_c, 0, 62, 59
2, 28017, Note_on_c, 0, 62, 0
2, 28020, Note_on_c, 0, 55, 0
2, 28024, Note_on_c, 0, 60, 49
2, 28054, Note_on_c, 0, 60, 0
2, 28061, Note_on_c, 0, 55, 44
2, 28067, Control_c, 0, 64, 127
2, 28099, Note_on_c, 0, 48, 0
2, 28139, Control_c, 0, 64, 0
2, 28140, Note_on_c, 0, 55, 0
2, 28144, Note_on_c, 0, 56, 44
2, 28145, Note_on_c, 0, 48, 40
2, 28174, Note_on_c, 0, 56, 0
2, 28184, Note_on_c, 0, 60, 45
2, 28197, Note_on_c, 0, 60, 0
2, 28203, Note_on_c, 0, 56, 1
2, 28206, Note_on_c, 0, 63, 33
2, 28219, Note_on_c, 0, 63, 0
2, 28228, Note_on_c, 0, 68, 27
2, 28231, Note_on_c, 0, 68, 0
2, 28267, Note_on_c, 0, 60, 26
2, 28275, Note_on_c, 0, 60, 0
2, 28284, Control_c, 0, 64, 127
2, 28287, Note_on_c, 0, 72, 50
2, 28294, Note_on_c, 0, 56, 0
2, 28296, Note_on_c, 0, 72, 0
2, 28299, Note_on_c, 0, 75, 69
2, 28314, Note_on_c, 0, 75, 0
2, 28316, Control_c, 0, 64, 0
2, 28316, Note_on_c, 0, 56, 25
2, 28316, Note_on_c, 0, 80, 51
2, 28316, Note_on_c, 0, 60, 33
2, 28320, Note_on_c, 0, 80, 0
2, 28334, Control_c, 0, 64, 127
2, 28335, Note_on_c, 0, 84, 46
2, 28340, Note_on_c, 0, 84, 0
2, 28344, Note_on_c, 0, 48, 0
2, 28350, Note_on_c, 0, 87, 62
2, 28355, Note_on_c, 0, 56, 0
2, 28356, Note_on_c, 0, 60, 0
2, 28358, Note_on_c, 0, 87, 0
2, 28367, Note_on_c, 0, 92, 53
2, 28375, Note_on_c, 0, 92, 0
2, 28378, Note_on_c, 0, 55, 35
2, 28380, Control_c, 0, 64, 0
2, 28381, Note_on_c, 0, 60, 25
2, 28382, Note_on_c, 0, 48, 30
2, 28404, Note_on_c, 0, 95, 71
2, 28417, Note_on_c, 0, 95, 0
2, 28426, Note_on_c, 0, 98, 78
2, 28429, Note_on_c, 0, 96, 38
2, 28433, Note_on_c, 0, 96, 0
2, 28437, Note_on_c, 0, 98, 0
2, 28448, Note_on_c, 0, 95, 35
2, 28453, Note_on_c, 0, 95, 0
2, 28461, Note_on_c, 0, 96, 80
2, 28477, Note_on_c, 0, 96, 0
2, 28478, Note_on_c, 0, 91, 56
2, 28479, Control_c, 0, 64, 127
2, 28489, Note_on_c, 0, 91, 0
2, 28494, Note_on_c, 0, 89, 60
2, 28504, Note_on_c, 0, 89, 0
2, 28508, Note_on_c, 0, 60, 0
2, 28510, Note_on_c, 0, 87, 36
2, 28516, Note_on_c, 0, 55, 0
2, 28523, Note_on_c, 0, 48, 0
2, 28525, Note_on_c, 0, 87, 0
2, 28528, Note_on_c, 0, 86, 44
2, 28529, Control_c, 0, 64, 0
2, 28538, Note_on_c, 0, 86, 0
2, 28545, Note_on_c, 0, 89, 70
2, 28547, Note_on_c, 0, 57, 32
2, 28547, Note_on_c, 0, 47, 35
2, 28558, Note_on_c, 0, 89, 0
2, 28563, Note_on_c, 0, 86, 44
2, 28566, Control_c, 0, 64, 127
2, 28569, Note_on_c, 0, 86, 0
2, 28572, Note_on_c, 0, 47, 0
2, 28579, Note_on_c, 0, 87, 65
2, 28580, Note_on_c, 0, 57, 0
2, 28593, Note_on_c, 0, 87, 0
2, 28597, Note_on_c, 0, 85, 32
2, 28600, Note_on_c, 0, 85, 0
2, 28601, Note_on_c, 0, 84, 44
2, 28609, Note_on_c, 0, 84, 0
2, 28617, Control_c, 0, 64, 0
2, 28686, Control_c, 0, 64, 127
2, 28742, Note_on_c, 0, 54, 45
2, 28745, Control_c, 0, 64, 0
2, 28745, Note_on_c, 0, 44, 30
2, 28767, Note_on_c, 0, 54, 0
2, 28777, Note_on_c, 0, 54, 49
2, 28790, Note_on_c, 0, 54, 0
2, 28796, Note_on_c, 0, 56, 52
2, 28808, Note_on_c, 0, 56, 0
2, 28812, Note_on_c, 0, 44, 0
2, 28813, Note_on_c, 0, 58, 56
2, 28825, Control_c, 0, 64, 127
2, 28827, Note_on_c, 0, 58, 0
2, 28833, Note_on_c, 0, 44, 31
2, 28833, Note_on_c, 0, 59, 61
2, 28835, Note_on_c, 0, 54, 21
2, 28851, Note_on_c, 0, 54, 0
2, 28851, Note_on_c, 0, 59, 0
2, 28856, Control_c, 0, 64, 0
2, 28858, Note_on_c, 0, 44, 0
2, 28858, Note_on_c, 0, 58, 50
2, 28859, Note_on_c, 0, 53, 40
2, 28863, Note_on_c, 0, 43, 39
2, 28883, Control_c, 0, 64, 127
2, 28915, Note_on_c, 0, 43, 0
2, 28923, Note_on_c, 0, 53, 0
2, 28926, Note_on_c, 0, 58, 0
2, 28978, Note_on_c, 0, 62, 50
2, 28978, Note_on_c, 0, 58, 44
2, 28979, Note_on_c, 0, 57, 45
2, 28984, Control_c, 0, 64, 0
2, 28996, Control_c, 0, 64, 127
2, 29044, Note_on_c, 0, 62, 0
2, 29053, Note_on_c, 0, 57, 0
2, 29054, Note_on_c, 0, 58, 0
2, 29214, Control_c, 0, 64, 0
2, 29215, Note_on_c, 0, 58, 50
2, 29219, Note_on_c, 0, 48, 31
2, 29232, Note_on_c, 0, 48, 0
2, 29234, Control_c, 0, 64, 127
2, 29247, Note_on_c, 0, 58, 0
2, 29281, Control_c, 0, 64, 0
2, 29283, Note_on_c, 0, 60, 44
2, 29283, Note_on_c, 0, 53, 35
2, 29284, Note_on_c, 0, 56, 30
2, 29346, Control_c, 0, 64, 127
2, 29376, Note_on_c, 0, 60, 0
2, 29403, Note_on_c, 0, 63, 27
2, 29405, Note_on_c, 0, 60, 30
2, 29458, Note_on_c, 0, 67, 27
2, 29472, Note_on_c, 0, 67, 0
2, 29477, Note_on_c, 0, 68, 51
2, 29483, Note_on_c, 0, 60, 0
2, 29486, Note_on_c, 0, 68, 0
2, 29487, Note_on_c, 0, 63, 0
2, 29498, Note_on_c, 0, 60, 51
2, 29498, Note_on_c, 0, 72, 48
2, 29499, Note_on_c, 0, 71, 44
2, 29503, Note_on_c, 0, 71, 0
2, 29505, Note_on_c, 0, 72, 0
2, 29516, Note_on_c, 0, 53, 0
2, 29521, Note_on_c, 0, 60, 0
2, 29523, Control_c, 0, 64, 0
2, 29524, Note_on_c, 0, 79, 77
2, 29524, Note_on_c, 0, 72, 73
2, 29524, Note_on_c, 0, 68, 75
2, 29524, Note_on_c, 0, 64, 71
2, 29525, Note_on_c, 0, 75, 59
2, 29552, Control_c, 0, 64, 127
2, 29568, Note_on_c, 0, 64, 0
2, 29569, Note_on_c, 0, 68, 0
2, 29570, Note_on_c, 0, 79, 0
2, 29572, Note_on_c, 0, 72, 0
2, 29572, Note_on_c, 0, 75, 0
2, 29579, Control_c, 0, 64, 0
2, 29580, Note_on_c, 0, 68, 49
2, 29580, Note_on_c, 0, 63, 59
2, 29580, Note_on_c, 0, 77, 55
2, 29580, Note_on_c, 0, 72, 64
2, 29599, Control_c, 0, 64, 127
2, 29617, Note_on_c, 0, 72, 0
2, 29619, Note_on_c, 0, 77, 0
2, 29626, Note_on_c, 0, 68, 0
2, 29635, Note_on_c, 0, 63, 0
2, 29636, Note_on_c, 0, 56, 0
2, 29636, Note_on_c, 0, 75, 57
2, 29638, Note_on_c, 0, 68, 34
2, 29640, Control_c, 0, 64, 0
2, 29640, Note_on_c, 0, 65, 35
2, 29641, Note_on_c, 0, 60, 44
2, 29645, Note_on_c, 0, 72, 26
2, 29653, Control_c, 0, 64, 127
2, 29678, Note_on_c, 0, 72, 0
2, 29681, Note_on_c, 0, 65, 0
2, 29682, Note_on_c, 0, 68, 0
2, 29686, Note_on_c, 0, 75, 0
2, 29692, Control_c, 0, 64, 0
2, 29695, Note_on_c, 0, 72, 34
2, 29697, Note_on_c, 0, 65, 29
2, 29697, Note_on_c, 0, 68, 25
2, 29697, Note_on_c, 0, 56, 31
2, 29729, Control_c, 0, 64, 127
2, 29738, Note_on_c, 0, 68, 0
2, 29738, Note_on_c, 0, 65, 0
2, 29743, Note_on_c, 0, 56, 0
2, 29743, Note_on_c, 0, 60, 0
2, 29748, Control_c, 0, 64, 0
2, 29749, Note_on_c, 0, 72, 0
2, 29757, Note_on_c, 0, 68, 27
2, 29758, Note_on_c, 0, 60, 36
2, 29759, Note_on_c, 0, 65, 37
2, 29760, Note_on_c, 0, 53, 26
2, 29761, Note_on_c, 0, 63, 27
2, 29762, Note_on_c, 0, 56, 23
2, 29800, Control_c, 0, 64, 127
2, 29831, Note_on_c, 0, 63, 0
2, 29851, Note_on_c, 0, 60, 0
2, 29852, Note_on_c, 0, 56, 0
2, 29859, Note_on_c, 0, 65, 0
2, 29869, Note_on_c, 0, 68, 0
2, 29881, Note_on_c, 0, 68, 29
2, 29881, Note_on_c, 0, 63, 26
2, 29881, Note_on_c, 0, 60, 36
2, 29883, Control_c, 0, 64, 0
2, 29883, Note_on_c, 0, 65, 31
2, 29938, Control_c, 0, 64, 127
2, 29995, Control_c, 0, 64, 0
2, 30030, Control_c, 0, 64, 127
2, 30064, Note_on_c, 0, 63, 0
2, 30071, Note_on_c, 0, 56, 75
2, 30078, Note_on_c, 0, 60, 0
2, 30084, Note_on_c, 0, 53, 0
2, 30119, Note_on_c, 0, 56, 0
2, 30123, Note_on_c, 0, 51, 71
2, 30124, Note_on_c, 0, 60, 70
2, 30128, Control_c, 0, 64, 0
2, 30173, Control_c, 0, 64, 127
2, 30174, Note_on_c, 0, 65, 0
2, 30181, Note_on_c, 0, 68, 0
2, 30218, Note_on_c, 0, 60, 0
2, 30233, Note_on_c, 0, 51, 0
2, 30242, Control_c, 0, 64, 0
2, 30248, Note_on_c, 0, 60, 56
2, 30248, Note_on_c, 0, 50, 56
2, 30248, Note_on_c, 0, 56, 56
2, 30252, Note_on_c, 0, 50, 0
2, 30256, Note_on_c, 0, 60, 0
2, 30257, Note_on_c, 0, 56, 0
2, 30285, Note_on_c, 0, 65, 54
2, 30285, Note_on_c, 0, 70, 54
2, 30286, Note_on_c, 0, 77, 54
2, 30286, Note_on_c, 0, 66, 54
2, 30288, Note_on_c, 0, 72, 53
2, 30298, Note_on_c, 0, 66, 0
2, 30300, Note_on_c, 0, 70, 0
2, 30300, Note_on_c, 0, 72, 0
2, 30302, Note_on_c, 0, 77, 0
2, 30308, Note_on_c, 0, 65, 0
2, 30312, Note_on_c, 0, 63, 52
2, 30339, Note_on_c, 0, 63, 0
2, 30346, Note_on_c, 0, 70, 50
2, 30346, Note_on_c, 0, 66, 50
2, 30346, Note_on_c, 0, 65, 50
2, 30347, Note_on_c, 0, 77, 50
2, 30349, Note_on_c, 0, 72, 50
2, 30361, Note_on_c, 0, 72, 0
2, 30361, Note_on_c, 0, 66, 0
2, 30362, Note_on_c, 0, 70, 0
2, 30362, Note_on_c, 0, 77, 0
2, 30366, Note_on_c, 0, 65, 0
2, 30374, Note_on_c, 0, 63, 48
2, 30378, Note_on_c, 0, 66, 48
2, 30380, Note_on_c, 0, 75, 48
2, 30382, Note_on_c, 0, 70, 48
2, 30389, Note_on_c, 0, 70, 0
2, 30393, Note_on_c, 0, 66, 0
2, 30398, Note_on_c, 0, 75, 0
2, 30404, Control_c, 0, 64, 127
2, 30407, Note_on_c, 0, 65, 47
2, 30408, Note_on_c, 0, 66, 47
2, 30409, Control_c, 0, 64, 0
2, 30411, Note_on_c, 0, 65, 0
2, 30413, Note_on_c, 0, 63, 0
2, 30415, Note_on_c, 0, 66, 0
2, 30425, Control_c, 0, 64, 127
2, 30458, Note_on_c, 0, 43, 44
2, 30475, Control_c, 0, 64, 0
2, 30485, Note_on_c, 0, 55, 42
2, 30496, Note_on_c, 0, 55, 0
2, 30510, Note_on_c, 0, 56, 41
2, 30522, Note_on_c, 0, 56, 0
2, 30528, Note_on_c, 0, 58, 38
2, 30540, Note_on_c, 0, 58, 0
2, 30550, Note_on_c, 0, 59, 37
2, 30554, Note_on_c, 0, 59, 0
2, 30574, Note_on_c, 0, 60, 36
2, 30578, Note_on_c, 0, 60, 0
2, 30588, Note_on_c, 0, 62, 35
2, 30599, Note_on_c, 0, 62, 0
2, 30600, Note_on_c, 0, 63, 35
2, 30606, Note_on_c, 0, 63, 0
2, 30610, Note_on_c, 0, 65, 34
2, 30623, Note_on_c, 0, 65, 0
2, 30623, Note_on_c, 0, 67, 32
2, 30630, Note_on_c, 0, 68, 32
2, 30631, Note_on_c, 0, 43, 0
2, 30634, Note_on_c, 0, 67, 0
2, 30641, Note_on_c, 0, 68, 0
2, 30642, Note_on_c, 0, 70, 32
2, 30645, Note_on_c, 0, 70, 0
2, 30648, Control_c, 0, 64, 127
2, 30652, Note_on_c, 0, 72, 31
2, 30660, Control_c, 0, 64, 0
2, 30661, Note_on_c, 0, 72, 0
2, 30662, Note_on_c, 0, 74, 31
2, 30670, Note_on_c, 0, 74, 0
2, 30670, Note_on_c, 0, 75, 30
2, 30675, Note_on_c, 0, 75, 0
2, 30682, Note_on_c, 0, 77, 30
2, 30691, Note_on_c, 0, 77, 0
2, 30695, Note_on_c, 0, 79, 30
2, 30701, Note_on_c, 0, 79, 0
2, 30704, Note_on_c, 0, 80, 29
2, 30715, Note_on_c, 0, 80, 0
2, 30719, Note_on_c, 0, 82, 28
2, 30733, Note_on_c, 0, 82, 0
2, 30735, Note_on_c, 0, 83, 27
2, 30745, Note_on_c, 0, 83, 0
2, 30751, Note_on_c, 0, 62, 26
2, 30751, Note_on_c, 0, 86, 26
2, 30753, Note_on_c, 0, 51, 26
2, 30754, Note_on_c, 0, 57, 26
2, 30765, Note_on_c, 0, 86, 0
2, 30772, Note_on_c, 0, 83, 25
2, 30776, Note_on_c, 0, 83, 0
2, 30785, Note_on_c, 0, 84, 24
2, 30799, Note_on_c, 0, 84, 0
2, 30800, Note_on_c, 0, 79, 22
2, 30808, Note_on_c, 0, 79, 0
2, 30825, Note_on_c, 0, 75, 18
2, 30831, Note_on_c, 0, 75, 0
2, 30837, Note_on_c, 0, 74, 15
2, 30846, Note_on_c, 0, 74, 0
2, 30851, Note_on_c, 0, 77, 13
2, 30863, Note_on_c, 0, 77, 0
2, 30865, Note_on_c, 0, 74, 10
2, 30872, Note_on_c, 0, 74, 0
2, 30880, Note_on_c, 0, 75, 8
2, 30892, Note_on_c, 0, 75, 0
2, 30897, Note_on_c, 0, 67, 6
2, 30909, Note_on_c, 0, 67, 0
2, 30918, Note_on_c, 0, 67, 4
2, 30927, Note_on_c, 0, 67, 0
2, 30935, Control_c, 0, 64, 127
2, 30935, Note_on_c, 0, 67, 2
2, 30940, Note_on_c, 0, 67, 0
2, 30951, Note_on_c, 0, 67, 0
2, 30953, Note_on_c, 0, 57, 0
2, 30960, Note_on_c, 0, 67, 0
2, 30966, Note_on_c, 0, 51, 0
2, 30966, Note_on_c, 0, 62, 0
2, 30969, Note_on_c, 0, 67, 0
2, 31013, Note_on_c, 0, 63, 0
2, 31014, Control_c, 0, 64, 0
2, 31015, Note_on_c, 0, 59, 0
2, 31015, Note_on_c, 0, 53, 0
2, 31032, Control_c, 0, 64, 127
2, 31057, Note_on_c, 0, 63, 0
2, 31059, Note_on_c, 0, 59, 0
2, 31060, Note_on_c, 0, 53, 0
2, 31063, Note_on_c, 0, 67, 0
2, 31089, Note_on_c, 0, 70, 0
2, 31091, Note_on_c, 0, 53, 0
2, 31091, Note_on_c, 0, 63, 0
2, 31097, Control_c, 0, 64, 0
2, 31132, Note_on_c, 0, 63, 0
2, 31140, Note_on_c, 0, 70, 0
2, 31143, Note_on_c, 0, 68, 2
2, 31145, Note_on_c, 0, 53, 0
2, 31145, Note_on_c, 0, 43, 2
2, 31146, Note_on_c, 0, 59, 2
2, 31147, Note_on_c, 0, 63, 2
2, 31158, Note_on_c, 0, 59, 0
2, 31159, Note_on_c, 0, 63, 0
2, 31161, Note_on_c, 0, 43, 0
2, 31162, Note_on_c, 0, 68, 0
2, 31162, End_track
3, 0, Start_track
3, 0, Title_t, ""
3, 127, Program_c, 1, 32
3, 128, Control_c, 1, 7, 99
3, 482, Note_on_c, 1, 36, 110
3, 785, Note_on_c, 1, 48, 113
3, 922, Note_on_c, 1, 36, 0
3, 943, Note_on_c, 1, 35, 60
3, 967, Note_on_c, 1, 35, 0
3, 969, Note_on_c, 1, 36, 99
3, 975, Note_on_c, 1, 48, 0
3, 1298, Note_on_c, 1, 48, 89
3, 1319, Note_on_c, 1, 48, 0
3, 1337, Note_on_c, 1, 44, 83
3, 1351, Note_on_c, 1, 36, 0
3, 1427, Note_on_c, 1, 35, 39
3, 1444, Note_on_c, 1, 44, 0
3, 1449, Note_on_c, 1, 35, 0
3, 1451, Note_on_c, 1, 36, 99
3, 1624, Note_on_c, 1, 35, 99
3, 1630, Note_on_c, 1, 36, 0
3, 1678, Note_on_c, 1, 35, 0
3, 1683, Note_on_c, 1, 34, 90
3, 1804, Note_on_c, 1, 32, 83
3, 1812, Note_on_c, 1, 34, 0
3, 1917, Note_on_c, 1, 32, 0
3, 1926, Note_on_c, 1, 31, 96
3, 2203, Note_on_c, 1, 37, 93
3, 2209, Note_on_c, 1, 31, 0
3, 2234, Note_on_c, 1, 36, 94
3, 2237, Note_on_c, 1, 37, 0
3, 2285, Note_on_c, 1, 48, 127
3, 2293, Note_on_c, 1, 36, 0
3, 2382, Note_on_c, 1, 40, 85
3, 2388, Note_on_c, 1, 48, 0
3, 2408, Note_on_c, 1, 41, 95
3, 2409, Note_on_c, 1, 40, 0
3, 2473, Note_on_c, 1, 55, 81
3, 2519, Note_on_c, 1, 55, 0
3, 2523, Note_on_c, 1, 53, 79
3, 2786, Note_on_c, 1, 41, 0
3, 2787, Note_on_c, 1, 53, 0
3, 2791, Note_on_c, 1, 48, 87
3, 2799, Note_on_c, 1, 48, 0
3, 2823, Note_on_c, 1, 44, 83
3, 2831, Note_on_c, 1, 44, 0
3, 2853, Note_on_c, 1, 40, 78
3, 2880, Note_on_c, 1, 40, 0
3, 2881, Note_on_c, 1, 41, 96
3, 3218, Note_on_c, 1, 53, 115
3, 3246, Note_on_c, 1, 53, 0
3, 3253, Note_on_c, 1, 53, 95
3, 3334, Note_on_c, 1, 53, 0
3, 3340, Note_on_c, 1, 51, 83
3, 3347, Note_on_c, 1, 41, 0
3, 3368, Note_on_c, 1, 51, 0
3, 3372, Note_on_c, 1, 50, 76
3, 3388, Note_on_c, 1, 50, 0
3, 3404, Note_on_c, 1, 39, 76
3, 3429, Note_on_c, 1, 39, 0
3, 3431, Note_on_c, 1, 38, 78
3, 3638, Note_on_c, 1, 44, 93
3, 3647, Note_on_c, 1, 38, 0
3, 3665, Note_on_c, 1, 44, 0
3, 3667, Note_on_c, 1, 43, 81
3, 3699, Note_on_c, 1, 43, 0
3, 3700, Note_on_c, 1, 38, 66
3, 3722, Note_on_c, 1, 38, 0
3, 3725, Note_on_c, 1, 31, 89
3, 3803, Note_on_c, 1, 34, 55
3, 3804, Note_on_c, 1, 31, 0
3, 3812, Note_on_c, 1, 34, 0
3, 3821, Note_on_c, 1, 35, 72
3, 3835, Note_on_c, 1, 35, 0
3, 3840, Note_on_c, 1, 36, 94
3, 4022, Note_on_c, 1, 43, 101
3, 4029, Note_on_c, 1, 36, 0
3, 4139, Note_on_c, 1, 55, 108
3, 4140, Note_on_c, 1, 57, 81
3, 4143, Note_on_c, 1, 54, 34
3, 4144, Note_on_c, 1, 57, 0
3, 4146, Note_on_c, 1, 54, 0
3, 4189, Note_on_c, 1, 55, 0
3, 4200, Note_on_c, 1, 55, 95
3, 4219, Note_on_c, 1, 43, 0
3, 4260, Note_on_c, 1, 43, 66
3, 4317, Note_on_c, 1, 43, 0
3, 4317, Note_on_c, 1, 55, 0
3, 4318, Note_on_c, 1, 48, 101
3, 4321, Note_on_c, 1, 43, 22
3, 4326, Note_on_c, 1, 43, 0
3, 4497, Note_on_c, 1, 36, 88
3, 4499, Note_on_c, 1, 48, 0
3, 4717, Note_on_c, 1, 44, 81
3, 4718, Note_on_c, 1, 36, 0
3, 4740, Note_on_c, 1, 44, 0
3, 4744, Note_on_c, 1, 44, 80
3, 4777, Note_on_c, 1, 48, 103
3, 4799, Note_on_c, 1, 48, 0
3, 4806, Note_on_c, 1, 48, 94
3, 4809, Note_on_c, 1, 44, 0
3, 4978, Note_on_c, 1, 45, 89
3, 4986, Note_on_c, 1, 48, 0
3, 5136, Note_on_c, 1, 45, 0
3, 5136, Note_on_c, 1, 48, 103
3, 5161, Note_on_c, 1, 48, 0
3, 5164, Note_on_c, 1, 44, 85
3, 5256, Note_on_c, 1, 44, 0
3, 5258, Note_on_c, 1, 37, 73
3, 5278, Note_on_c, 1, 37, 0
3, 5283, Note_on_c, 1, 36, 89
3, 5380, Note_on_c, 1, 48, 90
3, 5403, Note_on_c, 1, 48, 0
3, 5407, Note_on_c, 1, 47, 89
3, 5410, Note_on_c, 1, 36, 0
3, 5527, Note_on_c, 1, 46, 83
3, 5529, Note_on_c, 1, 47, 0
3, 5744, Note_on_c, 1, 32, 71
3, 5753, Note_on_c, 1, 46, 0
3, 5768, Note_on_c, 1, 32, 0
3, 5768, Note_on_c, 1, 31, 70
3, 5973, Note_on_c, 1, 43, 57
3, 5983, Note_on_c, 1, 31, 0
3, 5997, Note_on_c, 1, 43, 0
3, 6001, Note_on_c, 1, 36, 74
3, 6147, Note_on_c, 1, 37, 64
3, 6150, Note_on_c, 1, 36, 0
3, 6166, Note_on_c, 1, 37, 0
3, 6167, Note_on_c, 1, 36, 65
3, 6188, Note_on_c, 1, 36, 0
3, 6218, Note_on_c, 1, 42, 74
3, 6234, Note_on_c, 1, 39, 60
3, 6235, Note_on_c, 1, 42, 0
3, 6245, Note_on_c, 1, 39, 0
3, 6252, Note_on_c, 1, 41, 74
3, 6292, Note_on_c, 1, 36, 74
3, 6295, Note_on_c, 1, 41, 0
3, 6313, Note_on_c, 1, 36, 0
3, 6317, Note_on_c, 1, 29, 78
3, 6402, Note_on_c, 1, 53, 79
3, 6423, Note_on_c, 1, 53, 0
3, 6431, Note_on_c, 1, 48, 69
3, 6451, Note_on_c, 1, 48, 0
3, 6464, Note_on_c, 1, 44, 72
3, 6488, Note_on_c, 1, 44, 0
3, 6492, Note_on_c, 1, 43, 55
3, 6574, Note_on_c, 1, 46, 63
3, 6578, Note_on_c, 1, 43, 0
3, 6588, Note_on_c, 1, 46, 0
3, 6590, Note_on_c, 1, 44, 64
3, 6603, Note_on_c, 1, 44, 0
3, 6610, Note_on_c, 1, 43, 66
3, 6615, Note_on_c, 1, 29, 0
3, 6662, Note_on_c, 1, 43, 0
3, 6665, Note_on_c, 1, 41, 73
3, 6719, Note_on_c, 1, 29, 84
3, 6721, Note_on_c, 1, 41, 0
3, 6962, Note_on_c, 1, 41, 76
3, 6968, Note_on_c, 1, 29, 0
3, 7174, Note_on_c, 1, 41, 0
3, 7176, Note_on_c, 1, 39, 83
3, 7198, Note_on_c, 1, 39, 0
3, 7202, Note_on_c, 1, 38, 81
3, 7261, Note_on_c, 1, 54, 90
3, 7383, Note_on_c, 1, 38, 0
3, 7396, Note_on_c, 1, 41, 71
3, 7406, Note_on_c, 1, 41, 0
3, 7411, Note_on_c, 1, 54, 0
3, 7418, Note_on_c, 1, 42, 81
3, 7428, Note_on_c, 1, 42, 0
3, 7440, Note_on_c, 1, 43, 64
3, 7441, Note_on_c, 1, 41, 66
3, 7444, Note_on_c, 1, 41, 0
3, 7459, Note_on_c, 1, 58, 67
3, 7470, Note_on_c, 1, 58, 0
3, 7482, Note_on_c, 1, 56, 68
3, 7500, Note_on_c, 1, 56, 0
3, 7504, Note_on_c, 1, 55, 81
3, 7632, Note_on_c, 1, 43, 0
3, 7660, Note_on_c, 1, 47, 64
3, 7666, Note_on_c, 1, 55, 0
3, 7678, Note_on_c, 1, 47, 0
3, 7681, Note_on_c, 1, 48, 92
3, 7860, Note_on_c, 1, 36, 96
3, 7957, Note_on_c, 1, 48, 0
3, 8074, Note_on_c, 1, 48, 83
3, 8084, Note_on_c, 1, 36, 0
3, 8088, Note_on_c, 1, 48, 0
3, 8099, Note_on_c, 1, 36, 57
3, 8122, Note_on_c, 1, 36, 0
3, 8134, Note_on_c, 1, 37, 84
3, 8156, Note_on_c, 1, 37, 0
3, 8160, Note_on_c, 1, 38, 81
3, 8219, Note_on_c, 1, 44, 92
3, 8273, Note_on_c, 1, 38, 0
3, 8384, Note_on_c, 1, 38, 30
3, 8388, Note_on_c, 1, 38, 0
3, 8403, Note_on_c, 1, 43, 69
3, 8405, Note_on_c, 1, 44, 0
3, 8463, Note_on_c, 1, 43, 0
3, 8463, Note_on_c, 1, 31, 85
3, 8617, Note_on_c, 1, 31, 0
3, 8618, Note_on_c, 1, 35, 58
3, 8637, Note_on_c, 1, 35, 0
3, 8640, Note_on_c, 1, 36, 103
3, 8643, Note_on_c, 1, 34, 50
3, 8646, Note_on_c, 1, 34, 0
3, 8945, Note_on_c, 1, 48, 113
3, 8962, Note_on_c, 1, 36, 0
3, 9123, Note_on_c, 1, 38, 94
3, 9129, Note_on_c, 1, 48, 0
3, 9241, Note_on_c, 1, 44, 102
3, 9251, Note_on_c, 1, 38, 0
3, 9416, Note_on_c, 1, 44, 0
3, 9419, Note_on_c, 1, 43, 85
3, 9422, Note_on_c, 1, 44, 54
3, 9425, Note_on_c, 1, 44, 0
3, 9479, Note_on_c, 1, 31, 89
3, 9483, Note_on_c, 1, 43, 0
3, 9538, Note_on_c, 1, 31, 0
3, 9543, Note_on_c, 1, 31, 87
3, 9659, Note_on_c, 1, 31, 0
3, 9661, Note_on_c, 1, 36, 101
3, 9720, Note_on_c, 1, 48, 123
3, 9741, Note_on_c, 1, 36, 0
3, 9774, Note_on_c, 1, 48, 0
3, 9780, Note_on_c, 1, 48, 96
3, 9938, Note_on_c, 1, 36, 63
3, 9945, Note_on_c, 1, 48, 0
3, 9958, Note_on_c, 1, 48, 95
3, 9961, Note_on_c, 1, 36, 0
3, 10041, Note_on_c, 1, 48, 0
3, 10043, Note_on_c, 1, 47, 71
3, 10048, Note_on_c, 1, 47, 0
3, 10060, Note_on_c, 1, 40, 71
3, 10079, Note_on_c, 1, 40, 0
3, 10081, Note_on_c, 1, 41, 99
3, 10291, Note_on_c, 1, 41, 0
3, 10296, Note_on_c, 1, 35, 83
3, 10322, Note_on_c, 1, 35, 0
3, 10328, Note_on_c, 1, 34, 90
3, 10387, Note_on_c, 1, 46, 90
3, 10496, Note_on_c, 1, 46, 0
3, 10503, Note_on_c, 1, 50, 89
3, 10544, Note_on_c, 1, 34, 0
3, 10561, Note_on_c, 1, 39, 84
3, 10564, Note_on_c, 1, 50, 0
3, 10777, Note_on_c, 1, 51, 94
3, 10804, Note_on_c, 1, 39, 0
3, 10806, Note_on_c, 1, 51, 0
3, 10809, Note_on_c, 1, 50, 83
3, 10865, Note_on_c, 1, 39, 87
3, 10870, Note_on_c, 1, 50, 0
3, 10993, Note_on_c, 1, 39, 0
3, 11005, Note_on_c, 1, 39, 71
3, 11018, Note_on_c, 1, 39, 0
3, 11023, Note_on_c, 1, 40, 79
3, 11041, Note_on_c, 1, 40, 0
3, 11045, Note_on_c, 1, 41, 103
3, 11338, Note_on_c, 1, 29, 78
3, 11517, Note_on_c, 1, 29, 0
3, 11517, Note_on_c, 1, 41, 0
3, 11521, Note_on_c, 1, 38, 96
3, 11694, Note_on_c, 1, 54, 90
3, 11943, Note_on_c, 1, 54, 0
3, 11943, Note_on_c, 1, 43, 95
3, 11949, Note_on_c, 1, 38, 0
3, 12000, Note_on_c, 1, 48, 127
3, 12003, Note_on_c, 1, 43, 0
3, 12064, Note_on_c, 1, 36, 113
3, 12069, Note_on_c, 1, 48, 0
3, 12364, Note_on_c, 1, 48, 105
3, 12412, Note_on_c, 1, 48, 0
3, 12424, Note_on_c, 1, 48, 110
3, 12455, Note_on_c, 1, 36, 0
3, 12470, Note_on_c, 1, 48, 0
3, 12482, Note_on_c, 1, 48, 105
3, 12525, Pitch_bend_c, 1, 8192
3, 12526, Pitch_bend_c, 1, 8192
3, 12527, Pitch_bend_c, 1, 8712
3, 12528, Pitch_bend_c, 1, 8842
3, 12529, Pitch_bend_c, 1, 9102
3, 12529, Pitch_bend_c, 1, 9232
3, 12530, Pitch_bend_c, 1, 9492
3, 12531, Pitch_bend_c, 1, 9622
3, 12531, Pitch_bend_c, 1, 9882
3, 12533, Pitch_bend_c, 1, 10142
3, 12534, Pitch_bend_c, 1, 10272
3, 12534, Pitch_bend_c, 1, 10402
3, 12535, Pitch_bend_c, 1, 10662
3, 12536, Pitch_bend_c, 1, 10792
3, 12537, Pitch_bend_c, 1, 10922
3, 12537, Pitch_bend_c, 1, 11052
3, 12538, Pitch_bend_c, 1, 11312
3, 12539, Pitch_bend_c, 1, 11442
3, 12539, Pitch_bend_c, 1, 11572
3, 12540, Pitch_bend_c, 1, 11702
3, 12541, Pitch_bend_c, 1, 11962
3, 12542, Pitch_bend_c, 1, 12092
3, 12544, Pitch_bend_c, 1, 12222
3, 12545, Pitch_bend_c, 1, 12352
3, 12548, Pitch_bend_c, 1, 12482
3, 12551, Pitch_bend_c, 1, 12352
3, 12553, Pitch_bend_c, 1, 12222
3, 12553, Pitch_bend_c, 1, 12092
3, 12555, Pitch_bend_c, 1, 11832
3, 12556, Pitch_bend_c, 1, 11702
3, 12556, Pitch_bend_c, 1, 11572
3, 12557, Pitch_bend_c, 1, 11442
3, 12558, Pitch_bend_c, 1, 11052
3, 12559, Pitch_bend_c, 1, 10922
3, 12560, Pitch_bend_c, 1, 10792
3, 12561, Pitch_bend_c, 1, 10662
3, 12561, Pitch_bend_c, 1, 10532
3, 12562, Pitch_bend_c, 1, 10272
3, 12563, Pitch_bend_c, 1, 10142
3, 12563, Pitch_bend_c, 1, 10012
3, 12564, Pitch_bend_c, 1, 9882
3, 12565, Pitch_bend_c, 1, 9622
3, 12566, Pitch_bend_c, 1, 9492
3, 12566, Pitch_bend_c, 1, 9232
3, 12567, Pitch_bend_c, 1, 9102
3, 12568, Pitch_bend_c, 1, 8972
3, 12568, Pitch_bend_c, 1, 8712
3, 12569, Pitch_bend_c, 1, 8192
3, 12570, Pitch_bend_c, 1, 8192
3, 12571, Pitch_bend_c, 1, 8192
3, 12778, Note_on_c, 1, 36, 95
3, 12789, Note_on_c, 1, 48, 0
3, 12966, Note_on_c, 1, 48, 123
3, 12980, Note_on_c, 1, 36, 0
3, 13090, Note_on_c, 1, 47, 96
3, 13093, Note_on_c, 1, 54, 49
3, 13094, Note_on_c, 1, 48, 0
3, 13096, Note_on_c, 1, 54, 0
3, 13208, Note_on_c, 1, 47, 0
3, 13209, Note_on_c, 1, 46, 94
3, 13325, Note_on_c, 1, 44, 93
3, 13333, Note_on_c, 1, 46, 0
3, 13434, Note_on_c, 1, 44, 0
3, 13438, Note_on_c, 1, 43, 92
3, 13601, Note_on_c, 1, 49, 106
3, 13623, Note_on_c, 1, 43, 0
3, 13657, Note_on_c, 1, 43, 54
3, 13662, Note_on_c, 1, 43, 0
3, 13677, Note_on_c, 1, 49, 0
3, 13681, Note_on_c, 1, 48, 88
3, 13721, Note_on_c, 1, 36, 77
3, 13728, Note_on_c, 1, 36, 0
3, 13729, Note_on_c, 1, 48, 0
3, 13744, Note_on_c, 1, 36, 95
3, 13839, Note_on_c, 1, 39, 74
3, 13841, Note_on_c, 1, 36, 0
3, 13851, Note_on_c, 1, 39, 0
3, 13859, Note_on_c, 1, 40, 87
3, 13904, Note_on_c, 1, 39, 27
3, 13904, Note_on_c, 1, 37, 29
3, 13907, Note_on_c, 1, 40, 0
3, 13914, Note_on_c, 1, 39, 0
3, 13917, Note_on_c, 1, 37, 0
3, 13917, Note_on_c, 1, 41, 89
3, 14219, Note_on_c, 1, 53, 105
3, 14247, Note_on_c, 1, 41, 0
3, 14379, Note_on_c, 1, 40, 57
3, 14394, Note_on_c, 1, 40, 0
3, 14401, Note_on_c, 1, 41, 99
3, 14526, Note_on_c, 1, 53, 0
3, 14581, Note_on_c, 1, 44, 94
3, 14594, Note_on_c, 1, 41, 0
3, 14704, Note_on_c, 1, 41, 108
3, 14714, Note_on_c, 1, 44, 0
3, 14813, Note_on_c, 1, 37, 14
3, 14818, Note_on_c, 1, 41, 0
3, 14819, Note_on_c, 1, 37, 0
3, 14822, Note_on_c, 1, 39, 85
3, 14877, Note_on_c, 1, 39, 0
3, 14883, Note_on_c, 1, 38, 85
3, 15093, Note_on_c, 1, 38, 0
3, 15099, Note_on_c, 1, 42, 90
3, 15119, Note_on_c, 1, 42, 0
3, 15122, Note_on_c, 1, 43, 90
3, 15161, Note_on_c, 1, 55, 91
3, 15242, Note_on_c, 1, 31, 88
3, 15252, Note_on_c, 1, 55, 0
3, 15358, Note_on_c, 1, 43, 0
3, 15361, Note_on_c, 1, 31, 0
3, 15367, Note_on_c, 1, 48, 105
3, 15542, Note_on_c, 1, 43, 94
3, 15547, Note_on_c, 1, 48, 0
3, 15661, Note_on_c, 1, 31, 96
3, 15668, Note_on_c, 1, 43, 0
3, 15755, Note_on_c, 1, 34, 65
3, 15760, Note_on_c, 1, 31, 0
3, 15768, Note_on_c, 1, 34, 0
3, 15775, Note_on_c, 1, 35, 85
3, 15836, Note_on_c, 1, 35, 0
3, 15837, Note_on_c, 1, 36, 90
3, 16055, Note_on_c, 1, 43, 39
3, 16064, Note_on_c, 1, 43, 0
3, 16076, Note_on_c, 1, 48, 89
3, 16079, Note_on_c, 1, 36, 0
3, 16118, Note_on_c, 1, 36, 36
3, 16122, Note_on_c, 1, 36, 0
3, 16130, Note_on_c, 1, 48, 0
3, 16138, Note_on_c, 1, 44, 90
3, 16321, Note_on_c, 1, 36, 105
3, 16323, Note_on_c, 1, 44, 0
3, 16623, Note_on_c, 1, 45, 118
3, 16645, Note_on_c, 1, 36, 0
3, 16719, Note_on_c, 1, 39, 71
3, 16724, Note_on_c, 1, 45, 0
3, 16728, Note_on_c, 1, 39, 0
3, 16740, Note_on_c, 1, 44, 97
3, 16782, Note_on_c, 1, 37, 37
3, 16786, Note_on_c, 1, 37, 0
3, 16792, Note_on_c, 1, 44, 0
3, 16801, Note_on_c, 1, 36, 90
3, 16858, Note_on_c, 1, 36, 0
3, 16863, Note_on_c, 1, 36, 103
3, 17022, Note_on_c, 1, 47, 115
3, 17042, Note_on_c, 1, 47, 0
3, 17046, Note_on_c, 1, 46, 94
3, 17049, Note_on_c, 1, 36, 0
3, 17104, Note_on_c, 1, 34, 87
3, 17118, Note_on_c, 1, 46, 0
3, 17152, Note_on_c, 1, 34, 0
3, 17156, Note_on_c, 1, 32, 75
3, 17160, Note_on_c, 1, 34, 28
3, 17163, Note_on_c, 1, 34, 0
3, 17257, Note_on_c, 1, 44, 92
3, 17262, Note_on_c, 1, 32, 0
3, 17272, Note_on_c, 1, 44, 0
3, 17277, Note_on_c, 1, 43, 74
3, 17426, Note_on_c, 1, 34, 59
3, 17433, Note_on_c, 1, 43, 0
3, 17439, Note_on_c, 1, 34, 0
3, 17444, Note_on_c, 1, 35, 77
3, 17461, Note_on_c, 1, 36, 95
3, 17467, Note_on_c, 1, 35, 0
3, 17576, Note_on_c, 1, 52, 78
3, 17679, Note_on_c, 1, 39, 48
3, 17680, Note_on_c, 1, 36, 0
3, 17689, Note_on_c, 1, 39, 0
3, 17693, Note_on_c, 1, 52, 0
3, 17696, Note_on_c, 1, 40, 77
3, 17752, Note_on_c, 1, 40, 0
3, 17756, Note_on_c, 1, 41, 74
3, 17998, Note_on_c, 1, 53, 96
3, 18077, Note_on_c, 1, 41, 0
3, 18118, Note_on_c, 1, 48, 68
3, 18124, Note_on_c, 1, 53, 0
3, 18126, Note_on_c, 1, 48, 0
3, 18162, Note_on_c, 1, 39, 57
3, 18169, Note_on_c, 1, 39, 0
3, 18183, Note_on_c, 1, 41, 92
3, 18581, Note_on_c, 1, 34, 43
3, 18595, Note_on_c, 1, 34, 0
3, 18600, Note_on_c, 1, 41, 0
3, 18600, Note_on_c, 1, 53, 115
3, 18642, Note_on_c, 1, 41, 52
3, 18648, Note_on_c, 1, 41, 0
3, 18656, Note_on_c, 1, 53, 0
3, 18661, Note_on_c, 1, 51, 90
3, 18713, Note_on_c, 1, 51, 0
3, 18719, Note_on_c, 1, 50, 84
3, 18818, Note_on_c, 1, 42, 78
3, 18828, Note_on_c, 1, 42, 0
3, 18839, Note_on_c, 1, 38, 94
3, 18843, Note_on_c, 1, 50, 0
3, 18918, Note_on_c, 1, 38, 0
3, 18921, Note_on_c, 1, 41, 58
3, 18925, Note_on_c, 1, 41, 0
3, 18939, Note_on_c, 1, 42, 81
3, 18948, Note_on_c, 1, 42, 0
3, 18960, Note_on_c, 1, 43, 89
3, 18997, Note_on_c, 1, 43, 0
3, 18998, Note_on_c, 1, 31, 76
3, 19015, Note_on_c, 1, 31, 0
3, 19019, Note_on_c, 1, 55, 101
3, 19117, Note_on_c, 1, 38, 48
3, 19125, Note_on_c, 1, 38, 0
3, 19134, Note_on_c, 1, 55, 0
3, 19138, Note_on_c, 1, 35, 80
3, 19196, Note_on_c, 1, 35, 0
3, 19200, Note_on_c, 1, 36, 84
3, 19281, Note_on_c, 1, 36, 0
3, 19301, Note_on_c, 1, 30, 62
3, 19311, Note_on_c, 1, 30, 0
3, 19321, Note_on_c, 1, 31, 68
3, 19330, Note_on_c, 1, 31, 0
3, 19359, Note_on_c, 1, 35, 74
3, 19371, Note_on_c, 1, 35, 0
3, 19378, Note_on_c, 1, 36, 94
3, 19477, Note_on_c, 1, 34, 37
3, 19488, Note_on_c, 1, 36, 0
3, 19492, Note_on_c, 1, 34, 0
3, 19494, Note_on_c, 1, 55, 101
3, 19555, Note_on_c, 1, 55, 0
3, 19555, Note_on_c, 1, 43, 84
3, 19617, Note_on_c, 1, 35, 77
3, 19618, Note_on_c, 1, 43, 0
3, 19676, Note_on_c, 1, 35, 0
3, 19680, Note_on_c, 1, 36, 91
3, 19800, Note_on_c, 1, 48, 110
3, 19806, Note_on_c, 1, 36, 0
3, 19862, Note_on_c, 1, 44, 92
3, 19866, Note_on_c, 1, 48, 0
3, 19919, Note_on_c, 1, 44, 0
3, 19925, Note_on_c, 1, 44, 92
3, 20146, Note_on_c, 1, 48, 96
3, 20154, Note_on_c, 1, 44, 0
3, 20166, Note_on_c, 1, 48, 0
3, 20171, Note_on_c, 1, 45, 79
3, 20202, Note_on_c, 1, 45, 0
3, 20206, Note_on_c, 1, 39, 67
3, 20223, Note_on_c, 1, 39, 0
3, 20227, Note_on_c, 1, 36, 87
3, 20382, Note_on_c, 1, 39, 28
3, 20389, Note_on_c, 1, 39, 0
3, 20401, Note_on_c, 1, 48, 110
3, 20407, Note_on_c, 1, 36, 0
3, 20481, Note_on_c, 1, 44, 68
3, 20483, Note_on_c, 1, 48, 0
3, 20488, Note_on_c, 1, 44, 0
3, 20498, Note_on_c, 1, 39, 73
3, 20513, Note_on_c, 1, 39, 0
3, 20519, Note_on_c, 1, 36, 87
3, 20599, Note_on_c, 1, 36, 0
3, 20619, Note_on_c, 1, 35, 75
3, 20635, Note_on_c, 1, 35, 0
3, 20640, Note_on_c, 1, 36, 96
3, 20797, Note_on_c, 1, 36, 0
3, 20801, Note_on_c, 1, 36, 50
3, 20815, Note_on_c, 1, 36, 0
3, 20821, Note_on_c, 1, 47, 105
3, 20865, Note_on_c, 1, 36, 36
3, 20871, Note_on_c, 1, 36, 0
3, 20874, Note_on_c, 1, 47, 0
3, 20880, Note_on_c, 1, 46, 94
3, 20980, Note_on_c, 1, 38, 41
3, 20985, Note_on_c, 1, 38, 0
3, 20995, Note_on_c, 1, 46, 0
3, 20999, Note_on_c, 1, 44, 90
3, 21121, Note_on_c, 1, 44, 0
3, 21127, Note_on_c, 1, 43, 66
3, 21130, Note_on_c, 1, 43, 0
3, 21147, Note_on_c, 1, 36, 64
3, 21153, Note_on_c, 1, 36, 0
3, 21165, Note_on_c, 1, 37, 72
3, 21179, Note_on_c, 1, 37, 0
3, 21185, Note_on_c, 1, 38, 64
3, 21218, Note_on_c, 1, 38, 0
3, 21220, Note_on_c, 1, 32, 70
3, 21233, Note_on_c, 1, 32, 0
3, 21239, Note_on_c, 1, 31, 71
3, 21296, Note_on_c, 1, 31, 0
3, 21296, Note_on_c, 1, 35, 78
3, 21351, Note_on_c, 1, 35, 0
3, 21354, Note_on_c, 1, 36, 92
3, 21474, Note_on_c, 1, 48, 115
3, 21482, Note_on_c, 1, 36, 0
3, 21599, Note_on_c, 1, 41, 80
3, 21605, Note_on_c, 1, 48, 0
3, 21638, Note_on_c, 1, 55, 78
3, 21653, Note_on_c, 1, 55, 0
3, 21662, Note_on_c, 1, 53, 92
3, 21899, Note_on_c, 1, 41, 0
3, 21900, Note_on_c, 1, 29, 74
3, 21903, Note_on_c, 1, 53, 0
3, 22022, Note_on_c, 1, 29, 0
3, 22022, Note_on_c, 1, 41, 103
3, 22074, Note_on_c, 1, 41, 0
3, 22082, Note_on_c, 1, 41, 88
3, 22193, Note_on_c, 1, 39, 26
3, 22207, Note_on_c, 1, 39, 0
3, 22207, Note_on_c, 1, 44, 93
3, 22218, Note_on_c, 1, 41, 0
3, 22326, Note_on_c, 1, 41, 105
3, 22332, Note_on_c, 1, 44, 0
3, 22530, Note_on_c, 1, 41, 0
3, 22533, Note_on_c, 1, 39, 77
3, 22548, Note_on_c, 1, 39, 0
3, 22555, Note_on_c, 1, 38, 80
3, 22601, Note_on_c, 1, 54, 81
3, 22757, Note_on_c, 1, 38, 0
3, 22778, Note_on_c, 1, 42, 78
3, 22793, Note_on_c, 1, 54, 0
3, 22795, Note_on_c, 1, 42, 0
3, 22800, Note_on_c, 1, 43, 72
3, 22837, Note_on_c, 1, 56, 94
3, 22856, Note_on_c, 1, 56, 0
3, 22856, Note_on_c, 1, 43, 0
3, 22861, Note_on_c, 1, 55, 89
3, 22952, Note_on_c, 1, 43, 60
3, 22955, Note_on_c, 1, 43, 0
3, 22958, Note_on_c, 1, 50, 78
3, 22961, Note_on_c, 1, 55, 0
3, 22972, Note_on_c, 1, 47, 75
3, 22974, Note_on_c, 1, 50, 0
3, 23019, Note_on_c, 1, 47, 0
3, 23037, Note_on_c, 1, 48, 78
3, 23210, Note_on_c, 1, 38, 38
3, 23210, Note_on_c, 1, 40, 56
3, 23214, Note_on_c, 1, 40, 0
3, 23216, Note_on_c, 1, 38, 0
3, 23228, Note_on_c, 1, 39, 83
3, 23317, Note_on_c, 1, 39, 0
3, 23321, Note_on_c, 1, 35, 55
3, 23337, Note_on_c, 1, 35, 0
3, 23341, Note_on_c, 1, 36, 89
3, 23342, Note_on_c, 1, 48, 0
3, 23436, Note_on_c, 1, 36, 0
3, 23438, Note_on_c, 1, 43, 70
3, 23453, Note_on_c, 1, 43, 0
3, 23458, Note_on_c, 1, 37, 87
3, 23512, Note_on_c, 1, 37, 0
3, 23517, Note_on_c, 1, 38, 88
3, 23699, Note_on_c, 1, 38, 0
3, 23700, Note_on_c, 1, 44, 83
3, 23709, Note_on_c, 1, 44, 0
3, 23740, Note_on_c, 1, 44, 80
3, 23751, Note_on_c, 1, 44, 0
3, 23762, Note_on_c, 1, 44, 85
3, 23801, Note_on_c, 1, 44, 0
3, 23801, Note_on_c, 1, 43, 71
3, 23823, Note_on_c, 1, 57, 92
3, 23878, Note_on_c, 1, 57, 0
3, 23881, Note_on_c, 1, 56, 84
3, 23938, Note_on_c, 1, 56, 0
3, 23941, Note_on_c, 1, 55, 84
3, 23956, Note_on_c, 1, 43, 0
3, 23982, Note_on_c, 1, 47, 60
3, 23989, Note_on_c, 1, 55, 0
3, 23995, Note_on_c, 1, 47, 0
3, 24001, Note_on_c, 1, 48, 92
3, 24141, Note_on_c, 1, 43, 64
3, 24142, Note_on_c, 1, 48, 0
3, 24149, Note_on_c, 1, 43, 0
3, 24160, Note_on_c, 1, 39, 67
3, 24173, Note_on_c, 1, 39, 0
3, 24179, Note_on_c, 1, 38, 75
3, 24231, Note_on_c, 1, 38, 0
3, 24234, Note_on_c, 1, 36, 81
3, 24357, Note_on_c, 1, 36, 0
3, 24360, Note_on_c, 1, 48, 92
3, 24405, Note_on_c, 1, 43, 25
3, 24410, Note_on_c, 1, 43, 0
3, 24411, Note_on_c, 1, 48, 0
3, 24418, Note_on_c, 1, 51, 84
3, 24459, Note_on_c, 1, 49, 53
3, 24460, Note_on_c, 1, 51, 0
3, 24469, Note_on_c, 1, 49, 0
3, 24478, Note_on_c, 1, 50, 80
3, 24517, Note_on_c, 1, 50, 0
3, 24518, Note_on_c, 1, 44, 53
3, 24530, Note_on_c, 1, 44, 0
3, 24538, Note_on_c, 1, 41, 83
3, 24616, Note_on_c, 1, 41, 0
3, 24619, Note_on_c, 1, 44, 64
3, 24626, Note_on_c, 1, 44, 0
3, 24638, Note_on_c, 1, 41, 68
3, 24650, Note_on_c, 1, 41, 0
3, 24660, Note_on_c, 1, 42, 87
3, 24694, Note_on_c, 1, 42, 0
3, 24699, Note_on_c, 1, 43, 80
3, 24755, Note_on_c, 1, 43, 0
3, 24759, Note_on_c, 1, 31, 89
3, 24878, Note_on_c, 1, 34, 69
3, 24880, Note_on_c, 1, 31, 0
3, 24890, Note_on_c, 1, 34, 0
3, 24897, Note_on_c, 1, 35, 79
3, 24953, Note_on_c, 1, 35, 0
3, 24957, Note_on_c, 1, 36, 84
3, 25201, Note_on_c, 1, 48, 108
3, 25210, Note_on_c, 1, 36, 0
3, 25300, Note_on_c, 1, 36, 66
3, 25306, Note_on_c, 1, 36, 0
3, 25318, Note_on_c, 1, 48, 0
3, 25320, Note_on_c, 1, 47, 90
3, 25362, Note_on_c, 1, 39, 59
3, 25365, Note_on_c, 1, 47, 0
3, 25373, Note_on_c, 1, 39, 0
3, 25381, Note_on_c, 1, 40, 84
3, 25433, Note_on_c, 1, 40, 0
3, 25439, Note_on_c, 1, 41, 90
3, 25543, Note_on_c, 1, 39, 28
3, 25562, Note_on_c, 1, 41, 0
3, 25563, Note_on_c, 1, 39, 0
3, 25563, Note_on_c, 1, 47, 101
3, 25639, Note_on_c, 1, 47, 0
3, 25641, Note_on_c, 1, 44, 74
3, 25651, Note_on_c, 1, 44, 0
3, 25660, Note_on_c, 1, 41, 75
3, 25668, Note_on_c, 1, 41, 0
3, 25683, Note_on_c, 1, 34, 83
3, 25803, Note_on_c, 1, 46, 98
3, 25809, Note_on_c, 1, 34, 0
3, 25843, Note_on_c, 1, 46, 0
3, 25845, Note_on_c, 1, 34, 52
3, 25854, Note_on_c, 1, 34, 0
3, 25862, Note_on_c, 1, 46, 92
3, 25917, Note_on_c, 1, 46, 0
3, 25920, Note_on_c, 1, 39, 79
3, 26137, Note_on_c, 1, 54, 93
3, 26161, Note_on_c, 1, 54, 0
3, 26164, Note_on_c, 1, 51, 76
3, 26171, Note_on_c, 1, 39, 0
3, 26200, Note_on_c, 1, 39, 39
3, 26208, Note_on_c, 1, 39, 0
3, 26220, Note_on_c, 1, 51, 0
3, 26224, Note_on_c, 1, 50, 87
3, 26316, Note_on_c, 1, 39, 33
3, 26326, Note_on_c, 1, 39, 0
3, 26377, Note_on_c, 1, 49, 76
3, 26380, Note_on_c, 1, 50, 0
3, 26403, Note_on_c, 1, 41, 91
3, 26404, Note_on_c, 1, 49, 0
3, 26582, Note_on_c, 1, 53, 105
3, 26783, Note_on_c, 1, 41, 0
3, 26818, Note_on_c, 1, 41, 91
3, 26863, Note_on_c, 1, 41, 0
3, 26876, Note_on_c, 1, 38, 101
3, 26885, Note_on_c, 1, 53, 0
3, 27055, Note_on_c, 1, 54, 83
3, 27242, Note_on_c, 1, 38, 0
3, 27244, Note_on_c, 1, 43, 92
3, 27248, Note_on_c, 1, 54, 0
3, 27305, Note_on_c, 1, 55, 108
3, 27312, Note_on_c, 1, 43, 0
3, 27341, Note_on_c, 1, 43, 75
3, 27355, Note_on_c, 1, 55, 0
3, 27362, Note_on_c, 1, 43, 0
3, 27365, Note_on_c, 1, 48, 91
3, 27460, Note_on_c, 1, 43, 43
3, 27476, Note_on_c, 1, 43, 0
3, 27483, Note_on_c, 1, 36, 96
3, 27488, Note_on_c, 1, 48, 0
3, 27539, Note_on_c, 1, 36, 0
3, 27543, Note_on_c, 1, 44, 92
3, 27785, Note_on_c, 1, 48, 105
3, 27793, Note_on_c, 1, 44, 0
3, 27824, Note_on_c, 1, 44, 57
3, 27827, Note_on_c, 1, 48, 0
3, 27842, Note_on_c, 1, 44, 0
3, 27847, Note_on_c, 1, 48, 108
3, 27880, Note_on_c, 1, 48, 0
3, 27884, Note_on_c, 1, 45, 74
3, 27902, Note_on_c, 1, 45, 0
3, 27906, Note_on_c, 1, 39, 81
3, 27958, Note_on_c, 1, 39, 0
3, 27962, Note_on_c, 1, 36, 89
3, 28060, Note_on_c, 1, 45, 33
3, 28064, Note_on_c, 1, 45, 0
3, 28078, Note_on_c, 1, 36, 0
3, 28079, Note_on_c, 1, 48, 118
3, 28257, Note_on_c, 1, 44, 83
3, 28265, Note_on_c, 1, 48, 0
3, 28376, Note_on_c, 1, 48, 110
3, 28385, Note_on_c, 1, 44, 0
3, 28478, Note_on_c, 1, 44, 58
3, 28486, Note_on_c, 1, 44, 0
3, 28492, Note_on_c, 1, 48, 0
3, 28497, Note_on_c, 1, 47, 91
3, 28551, Note_on_c, 1, 47, 0
3, 28559, Note_on_c, 1, 46, 91
3, 28681, Note_on_c, 1, 44, 83
3, 28683, Note_on_c, 1, 46, 0
3, 28783, Note_on_c, 1, 42, 46
3, 28790, Note_on_c, 1, 44, 0
3, 28798, Note_on_c, 1, 42, 0
3, 28801, Note_on_c, 1, 43, 77
3, 28861, Note_on_c, 1, 55, 105
3, 28914, Note_on_c, 1, 55, 0
3, 28918, Note_on_c, 1, 49, 91
3, 28945, Note_on_c, 1, 43, 0
3, 28979, Note_on_c, 1, 37, 83
3, 28984, Note_on_c, 1, 49, 0
3, 29032, Note_on_c, 1, 37, 0
3, 29039, Note_on_c, 1, 36, 90
3, 29141, Note_on_c, 1, 49, 99
3, 29160, Note_on_c, 1, 49, 0
3, 29163, Note_on_c, 1, 36, 0
3, 29164, Note_on_c, 1, 48, 74
3, 29203, Note_on_c, 1, 39, 57
3, 29204, Note_on_c, 1, 48, 0
3, 29215, Note_on_c, 1, 39, 0
3, 29221, Note_on_c, 1, 40, 85
3, 29275, Note_on_c, 1, 40, 0
3, 29279, Note_on_c, 1, 41, 88
3, 29402, Note_on_c, 1, 53, 103
3, 29440, Note_on_c, 1, 53, 0
3, 29444, Note_on_c, 1, 53, 80
3, 29532, Note_on_c, 1, 41, 0
3, 29620, Note_on_c, 1, 41, 60
3, 29625, Note_on_c, 1, 41, 0
3, 29634, Note_on_c, 1, 53, 0
3, 29640, Note_on_c, 1, 48, 72
3, 29640, Note_on_c, 1, 49, 25
3, 29643, Note_on_c, 1, 49, 0
3, 29680, Note_on_c, 1, 44, 69
3, 29686, Note_on_c, 1, 48, 0
3, 29692, Note_on_c, 1, 44, 0
3, 29703, Note_on_c, 1, 41, 92
3, 29822, Note_on_c, 1, 29, 94
3, 29892, Note_on_c, 1, 41, 0
3, 30054, Note_on_c, 1, 29, 0
3, 30062, Note_on_c, 1, 41, 101
3, 30122, Note_on_c, 1, 41, 0
3, 30123, Note_on_c, 1, 39, 87
3, 30239, Note_on_c, 1, 39, 0
3, 30244, Note_on_c, 1, 38, 68
3, 30246, Note_on_c, 1, 39, 68
3, 30251, Note_on_c, 1, 39, 0
3, 30306, Note_on_c, 1, 54, 65
3, 30479, Note_on_c, 1, 38, 0
3, 30486, Note_on_c, 1, 43, 58
3, 30497, Note_on_c, 1, 54, 0
3, 30554, Note_on_c, 1, 59, 54
3, 30699, Note_on_c, 1, 59, 0
3, 30702, Note_on_c, 1, 62, 44
3, 30727, Note_on_c, 1, 43, 0
3, 30729, Note_on_c, 1, 62, 0
3, 30730, Note_on_c, 1, 60, 41
3, 30766, Note_on_c, 1, 55, 39
3, 30767, Note_on_c, 1, 60, 0
3, 30791, Note_on_c, 1, 55, 0
3, 30796, Note_on_c, 1, 51, 34
3, 30935, Note_on_c, 1, 51, 0
3, 30946, Note_on_c, 1, 48, 26
3, 30961, Note_on_c, 1, 48, 0
3, 30966, Note_on_c, 1, 55, 25
3, 31065, Note_on_c, 1, 43, 18
3, 31075, Note_on_c, 1, 43, 0
3, 31084, Note_on_c, 1, 47, 17
3, 31134, Note_on_c, 1, 55, 0
3, 31138, Note_on_c, 1, 47, 0
3, 31141, Note_on_c, 1, 50, 14
3, 31182, Note_on_c, 1, 50, 0
3, 31182, End_track
4, 0, Start_track
4, 0, Title_t, "Brushes"
4, 167, Program_c, 9, 40
4, 168, Control_c, 9, 7, 89
4, 486, Note_on_c, 9, 59, 65
4, 495, Note_on_c, 9, 59, 0
4, 593, Note_on_c, 9, 59, 62
4, 599, Note_on_c, 9, 59, 0
4, 610, Note_on_c, 9, 59, 58
4, 627, Note_on_c, 9, 59, 0
4, 729, Note_on_c, 9, 59, 78
4, 737, Note_on_c, 9, 59, 0
4, 846, Note_on_c, 9, 59, 76
4, 855, Note_on_c, 9, 59, 0
4, 948, Note_on_c, 9, 59, 56
4, 955, Note_on_c, 9, 59, 0
4, 967, Note_on_c, 9, 59, 65
4, 989, Note_on_c, 9, 59, 0
4, 1087, Note_on_c, 9, 59, 80
4, 1095, Note_on_c, 9, 59, 0
4, 1189, Note_on_c, 9, 59, 54
4, 1196, Note_on_c, 9, 59, 0
4, 1206, Note_on_c, 9, 59, 66
4, 1232, Note_on_c, 9, 59, 0
4, 1264, Note_on_c, 9, 59, 94
4, 1303, Note_on_c, 9, 59, 0
4, 1326, Note_on_c, 9, 59, 45
4, 1347, Note_on_c, 9, 59, 0
4, 1383, Note_on_c, 9, 59, 96
4, 1416, Note_on_c, 9, 59, 0
4, 1443, Note_on_c, 9, 59, 51
4, 1466, Note_on_c, 9, 59, 0
4, 1545, Note_on_c, 9, 59, 53
4, 1552, Note_on_c, 9, 59, 0
4, 1564, Note_on_c, 9, 59, 61
4, 1592, Note_on_c, 9, 59, 0
4, 1665, Note_on_c, 9, 53, 46
4, 1669, Note_on_c, 9, 53, 0
4, 1685, Note_on_c, 9, 59, 64
4, 1715, Note_on_c, 9, 59, 0
4, 1805, Note_on_c, 9, 59, 74
4, 1814, Note_on_c, 9, 59, 0
4, 1913, Note_on_c, 9, 59, 46
4, 1918, Note_on_c, 9, 59, 0
4, 1932, Note_on_c, 9, 59, 58
4, 1943, Note_on_c, 9, 59, 0
4, 2051, Note_on_c, 9, 59, 64
4, 2058, Note_on_c, 9, 59, 0
4, 2173, Note_on_c, 9, 59, 72
4, 2177, Note_on_c, 9, 59, 0
4, 2230, Note_on_c, 9, 59, 70
4, 2240, Note_on_c, 9, 59, 0
4, 2348, Note_on_c, 9, 59, 71
4, 2356, Note_on_c, 9, 59, 0
4, 2408, Note_on_c, 9, 59, 74
4, 2419, Note_on_c, 9, 59, 0
4, 2530, Note_on_c, 9, 59, 70
4, 2534, Note_on_c, 9, 59, 0
4, 2635, Note_on_c, 9, 59, 50
4, 2640, Note_on_c, 9, 59, 0
4, 2652, Note_on_c, 9, 59, 66
4, 2665, Note_on_c, 9, 59, 0
4, 2768, Note_on_c, 9, 59, 75
4, 2777, Note_on_c, 9, 59, 0
4, 2865, Note_on_c, 9, 59, 50
4, 2869, Note_on_c, 9, 59, 0
4, 2884, Note_on_c, 9, 59, 92
4, 2897, Note_on_c, 9, 59, 0
4, 3007, Note_on_c, 9, 59, 79
4, 3015, Note_on_c, 9, 59, 0
4, 3107, Note_on_c, 9, 59, 55
4, 3113, Note_on_c, 9, 59, 0
4, 3125, Note_on_c, 9, 59, 66
4, 3137, Note_on_c, 9, 59, 0
4, 3180, Note_on_c, 9, 59, 88
4, 3190, Note_on_c, 9, 59, 0
4, 3302, Note_on_c, 9, 59, 77
4, 3311, Note_on_c, 9, 59, 0
4, 3363, Note_on_c, 9, 59, 89
4, 3372, Note_on_c, 9, 59, 0
4, 3487, Note_on_c, 9, 59, 77
4, 3498, Note_on_c, 9, 59, 0
4, 3606, Note_on_c, 9, 59, 78
4, 3607, Note_on_c, 9, 53, 74
4, 3612, Note_on_c, 9, 53, 0
4, 3615, Note_on_c, 9, 59, 0
4, 3733, Note_on_c, 9, 59, 66
4, 3741, Note_on_c, 9, 59, 0
4, 3829, Note_on_c, 9, 59, 54
4, 3834, Note_on_c, 9, 59, 0
4, 3848, Note_on_c, 9, 59, 67
4, 3864, Note_on_c, 9, 59, 0
4, 3966, Note_on_c, 9, 59, 65
4, 3970, Note_on_c, 9, 59, 0
4, 4068, Note_on_c, 9, 59, 47
4, 4073, Note_on_c, 9, 59, 0
4, 4086, Note_on_c, 9, 59, 73
4, 4128, Note_on_c, 9, 59, 0
4, 4210, Note_on_c, 9, 59, 70
4, 4219, Note_on_c, 9, 59, 0
4, 4331, Note_on_c, 9, 59, 72
4, 4340, Note_on_c, 9, 59, 0
4, 4448, Note_on_c, 9, 59, 58
4, 4452, Note_on_c, 9, 59, 0
4, 4626, Note_on_c, 9, 59, 83
4, 4672, Note_on_c, 9, 59, 0
4, 4687, Note_on_c, 9, 59, 48
4, 4718, Note_on_c, 9, 59, 0
4, 4746, Note_on_c, 9, 59, 80
4, 4757, Note_on_c, 9, 59, 0
4, 4802, Note_on_c, 9, 59, 79
4, 4825, Note_on_c, 9, 59, 0
4, 4862, Note_on_c, 9, 59, 74
4, 4892, Note_on_c, 9, 59, 0
4, 4925, Note_on_c, 9, 59, 57
4, 4935, Note_on_c, 9, 59, 0
4, 4961, Note_on_c, 9, 59, 59
4, 4965, Note_on_c, 9, 59, 0
4, 4984, Note_on_c, 9, 59, 91
4, 5024, Note_on_c, 9, 59, 0
4, 5043, Note_on_c, 9, 59, 56
4, 5053, Note_on_c, 9, 59, 0
4, 5102, Note_on_c, 9, 59, 88
4, 5124, Note_on_c, 9, 59, 0
4, 5215, Note_on_c, 9, 59, 67
4, 5220, Note_on_c, 9, 53, 63
4, 5228, Note_on_c, 9, 59, 0
4, 5236, Note_on_c, 9, 53, 0
4, 5342, Note_on_c, 9, 59, 63
4, 5361, Note_on_c, 9, 59, 0
4, 5402, Note_on_c, 9, 59, 74
4, 5436, Note_on_c, 9, 59, 0
4, 5467, Note_on_c, 9, 59, 43
4, 5474, Note_on_c, 9, 59, 0
4, 5528, Note_on_c, 9, 59, 79
4, 5552, Note_on_c, 9, 59, 0
4, 5591, Note_on_c, 9, 59, 31
4, 5605, Note_on_c, 9, 59, 0
4, 5651, Note_on_c, 9, 59, 46
4, 5661, Note_on_c, 9, 59, 0
4, 5747, Note_on_c, 9, 59, 48
4, 5756, Note_on_c, 9, 59, 0
4, 5769, Note_on_c, 9, 59, 55
4, 5796, Note_on_c, 9, 59, 0
4, 5860, Note_on_c, 9, 59, 28
4, 5868, Note_on_c, 9, 59, 0
4, 5884, Note_on_c, 9, 59, 44
4, 5897, Note_on_c, 9, 59, 0
4, 5981, Note_on_c, 9, 59, 40
4, 5988, Note_on_c, 9, 59, 0
4, 6001, Note_on_c, 9, 59, 41
4, 6011, Note_on_c, 9, 59, 0
4, 6058, Note_on_c, 9, 59, 96
4, 6071, Note_on_c, 9, 59, 0
4, 6158, Note_on_c, 9, 59, 33
4, 6165, Note_on_c, 9, 59, 0
4, 6180, Note_on_c, 9, 59, 50
4, 6184, Note_on_c, 9, 59, 0
4, 6299, Note_on_c, 9, 59, 55
4, 6321, Note_on_c, 9, 59, 0
4, 6360, Note_on_c, 9, 59, 60
4, 6380, Note_on_c, 9, 59, 0
4, 6487, Note_on_c, 9, 59, 64
4, 6498, Note_on_c, 9, 59, 0
4, 6588, Note_on_c, 9, 59, 43
4, 6602, Note_on_c, 9, 59, 0
4, 6610, Note_on_c, 9, 59, 61
4, 6633, Note_on_c, 9, 59, 0
4, 6706, Note_on_c, 9, 59, 51
4, 6712, Note_on_c, 9, 59, 0
4, 6726, Note_on_c, 9, 59, 51
4, 6746, Note_on_c, 9, 59, 0
4, 6843, Note_on_c, 9, 59, 68
4, 6850, Note_on_c, 9, 59, 0
4, 6942, Note_on_c, 9, 59, 42
4, 6947, Note_on_c, 9, 59, 0
4, 6960, Note_on_c, 9, 59, 52
4, 6969, Note_on_c, 9, 59, 0
4, 7018, Note_on_c, 9, 59, 99
4, 7036, Note_on_c, 9, 59, 0
4, 7085, Note_on_c, 9, 59, 27
4, 7091, Note_on_c, 9, 59, 0
4, 7121, Note_on_c, 9, 59, 50
4, 7128, Note_on_c, 9, 59, 0
4, 7139, Note_on_c, 9, 59, 68
4, 7167, Note_on_c, 9, 59, 0
4, 7200, Note_on_c, 9, 59, 80
4, 7214, Note_on_c, 9, 59, 0
4, 7323, Note_on_c, 9, 59, 74
4, 7333, Note_on_c, 9, 59, 0
4, 7446, Note_on_c, 9, 59, 64
4, 7454, Note_on_c, 9, 59, 0
4, 7548, Note_on_c, 9, 59, 48
4, 7554, Note_on_c, 9, 59, 0
4, 7567, Note_on_c, 9, 59, 59
4, 7585, Note_on_c, 9, 59, 0
4, 7682, Note_on_c, 9, 59, 79
4, 7692, Note_on_c, 9, 59, 0
4, 7742, Note_on_c, 9, 59, 76
4, 7758, Note_on_c, 9, 59, 0
4, 7863, Note_on_c, 9, 53, 72
4, 7864, Note_on_c, 9, 59, 71
4, 7872, Note_on_c, 9, 53, 0
4, 7883, Note_on_c, 9, 59, 0
4, 7982, Note_on_c, 9, 53, 72
4, 7984, Note_on_c, 9, 59, 72
4, 7992, Note_on_c, 9, 53, 0
4, 7999, Note_on_c, 9, 59, 0
4, 8078, Note_on_c, 9, 59, 45
4, 8088, Note_on_c, 9, 59, 0
4, 8099, Note_on_c, 9, 59, 59
4, 8120, Note_on_c, 9, 59, 0
4, 8157, Note_on_c, 9, 59, 89
4, 8168, Note_on_c, 9, 59, 0
4, 8220, Note_on_c, 9, 59, 82
4, 8239, Note_on_c, 9, 59, 0
4, 8322, Note_on_c, 9, 59, 25
4, 8329, Note_on_c, 9, 59, 0
4, 8340, Note_on_c, 9, 59, 74
4, 8366, Note_on_c, 9, 59, 0
4, 8401, Note_on_c, 9, 59, 79
4, 8417, Note_on_c, 9, 59, 0
4, 8522, Note_on_c, 9, 59, 80
4, 8533, Note_on_c, 9, 59, 0
4, 8583, Note_on_c, 9, 59, 80
4, 8593, Note_on_c, 9, 59, 0
4, 8702, Note_on_c, 9, 59, 68
4, 8718, Note_on_c, 9, 59, 0
4, 8764, Note_on_c, 9, 59, 81
4, 8774, Note_on_c, 9, 59, 0
4, 8873, Note_on_c, 9, 59, 53
4, 8880, Note_on_c, 9, 59, 0
4, 8891, Note_on_c, 9, 59, 62
4, 8912, Note_on_c, 9, 59, 0
4, 8947, Note_on_c, 9, 59, 84
4, 8961, Note_on_c, 9, 59, 0
4, 9010, Note_on_c, 9, 59, 47
4, 9018, Note_on_c, 9, 59, 0
4, 9043, Note_on_c, 9, 59, 69
4, 9048, Note_on_c, 9, 59, 0
4, 9066, Note_on_c, 9, 59, 88
4, 9095, Note_on_c, 9, 59, 0
4, 9119, Note_on_c, 9, 59, 83
4, 9143, Note_on_c, 9, 59, 0
4, 9219, Note_on_c, 9, 59, 54
4, 9226, Note_on_c, 9, 59, 0
4, 9238, Note_on_c, 9, 59, 66
4, 9265, Note_on_c, 9, 59, 0
4, 9336, Note_on_c, 9, 59, 56
4, 9343, Note_on_c, 9, 59, 0
4, 9357, Note_on_c, 9, 59, 64
4, 9380, Note_on_c, 9, 59, 0
4, 9480, Note_on_c, 9, 59, 75
4, 9492, Note_on_c, 9, 59, 0
4, 9582, Note_on_c, 9, 59, 48
4, 9588, Note_on_c, 9, 59, 0
4, 9601, Note_on_c, 9, 59, 66
4, 9624, Note_on_c, 9, 59, 0
4, 9723, Note_on_c, 9, 59, 80
4, 9733, Note_on_c, 9, 59, 0
4, 9846, Note_on_c, 9, 59, 71
4, 9853, Note_on_c, 9, 59, 0
4, 9886, Note_on_c, 9, 59, 53
4, 9890, Note_on_c, 9, 59, 0
4, 9905, Note_on_c, 9, 59, 80
4, 9937, Note_on_c, 9, 59, 0
4, 10000, Note_on_c, 9, 59, 51
4, 10007, Note_on_c, 9, 59, 0
4, 10022, Note_on_c, 9, 59, 78
4, 10048, Note_on_c, 9, 59, 0
4, 10080, Note_on_c, 9, 59, 74
4, 10094, Note_on_c, 9, 59, 0
4, 10263, Note_on_c, 9, 53, 62
4, 10263, Note_on_c, 9, 59, 60
4, 10289, Note_on_c, 9, 53, 0
4, 10294, Note_on_c, 9, 59, 0
4, 10361, Note_on_c, 9, 59, 39
4, 10367, Note_on_c, 9, 59, 0
4, 10386, Note_on_c, 9, 59, 81
4, 10407, Note_on_c, 9, 59, 0
4, 10448, Note_on_c, 9, 53, 50
4, 10450, Note_on_c, 9, 59, 32
4, 10467, Note_on_c, 9, 53, 0
4, 10473, Note_on_c, 9, 59, 0
4, 10504, Note_on_c, 9, 59, 72
4, 10506, Note_on_c, 9, 53, 58
4, 10511, Note_on_c, 9, 53, 0
4, 10524, Note_on_c, 9, 59, 0
4, 10567, Note_on_c, 9, 59, 52
4, 10573, Note_on_c, 9, 59, 0
4, 10605, Note_on_c, 9, 59, 62
4, 10612, Note_on_c, 9, 59, 0
4, 10663, Note_on_c, 9, 53, 52
4, 10667, Note_on_c, 9, 59, 41
4, 10669, Note_on_c, 9, 53, 0
4, 10673, Note_on_c, 9, 59, 0
4, 10687, Note_on_c, 9, 59, 65
4, 10689, Note_on_c, 9, 53, 65
4, 10701, Note_on_c, 9, 53, 0
4, 10712, Note_on_c, 9, 59, 0
4, 10742, Note_on_c, 9, 59, 36
4, 10749, Note_on_c, 9, 59, 0
4, 10780, Note_on_c, 9, 59, 81
4, 10793, Note_on_c, 9, 59, 0
4, 10901, Note_on_c, 9, 53, 47
4, 10905, Note_on_c, 9, 53, 0
4, 10923, Note_on_c, 9, 59, 68
4, 10956, Note_on_c, 9, 59, 0
4, 10984, Note_on_c, 9, 59, 66
4, 11003, Note_on_c, 9, 59, 0
4, 11031, Note_on_c, 9, 59, 55
4, 11038, Note_on_c, 9, 59, 0
4, 11050, Note_on_c, 9, 59, 71
4, 11078, Note_on_c, 9, 59, 0
4, 11197, Note_on_c, 9, 59, 28
4, 11203, Note_on_c, 9, 59, 0
4, 11213, Note_on_c, 9, 59, 38
4, 11220, Note_on_c, 9, 59, 0
4, 11229, Note_on_c, 9, 59, 74
4, 11239, Note_on_c, 9, 59, 0
4, 11267, Note_on_c, 9, 59, 67
4, 11276, Note_on_c, 9, 59, 0
4, 11377, Note_on_c, 9, 59, 51
4, 11384, Note_on_c, 9, 59, 0
4, 11397, Note_on_c, 9, 59, 59
4, 11429, Note_on_c, 9, 59, 0
4, 11492, Note_on_c, 9, 59, 51
4, 11497, Note_on_c, 9, 59, 0
4, 11506, Note_on_c, 9, 59, 62
4, 11517, Note_on_c, 9, 59, 0
4, 11524, Note_on_c, 9, 59, 72
4, 11536, Note_on_c, 9, 59, 0
4, 11581, Note_on_c, 9, 59, 64
4, 11594, Note_on_c, 9, 59, 0
4, 11681, Note_on_c, 9, 59, 28
4, 11687, Note_on_c, 9, 59, 0
4, 11700, Note_on_c, 9, 59, 50
4, 11715, Note_on_c, 9, 59, 0
4, 11793, Note_on_c, 9, 59, 46
4, 11799, Note_on_c, 9, 59, 0
4, 11817, Note_on_c, 9, 59, 22
4, 11829, Note_on_c, 9, 59, 0
4, 11871, Note_on_c, 9, 59, 75
4, 11889, Note_on_c, 9, 59, 0
4, 11966, Note_on_c, 9, 53, 52
4, 11971, Note_on_c, 9, 53, 0
4, 11993, Note_on_c, 9, 59, 63
4, 11993, Note_on_c, 9, 53, 65
4, 12005, Note_on_c, 9, 53, 0
4, 12016, Note_on_c, 9, 59, 0
4, 12125, Note_on_c, 9, 59, 62
4, 12134, Note_on_c, 9, 59, 0
4, 12227, Note_on_c, 9, 59, 39
4, 12232, Note_on_c, 9, 59, 0
4, 12344, Note_on_c, 9, 59, 53
4, 12349, Note_on_c, 9, 59, 0
4, 12366, Note_on_c, 9, 59, 64
4, 12389, Note_on_c, 9, 59, 0
4, 12465, Note_on_c, 9, 59, 37
4, 12470, Note_on_c, 9, 59, 0
4, 12485, Note_on_c, 9, 59, 39
4, 12499, Note_on_c, 9, 59, 0
4, 12585, Note_on_c, 9, 59, 31
4, 12590, Note_on_c, 9, 59, 0
4, 12603, Note_on_c, 9, 59, 44
4, 12614, Note_on_c, 9, 59, 0
4, 12661, Note_on_c, 9, 59, 82
4, 12677, Note_on_c, 9, 59, 0
4, 12768, Note_on_c, 9, 59, 46
4, 12774, Note_on_c, 9, 59, 0
4, 12786, Note_on_c, 9, 59, 71
4, 12817, Note_on_c, 9, 59, 0
4, 12901, Note_on_c, 9, 59, 74
4, 12916, Note_on_c, 9, 59, 0
4, 13022, Note_on_c, 9, 59, 71
4, 13050, Note_on_c, 9, 59, 0
4, 13081, Note_on_c, 9, 59, 78
4, 13097, Note_on_c, 9, 59, 0
4, 13188, Note_on_c, 9, 59, 47
4, 13193, Note_on_c, 9, 59, 0
4, 13206, Note_on_c, 9, 59, 44
4, 13227, Note_on_c, 9, 59, 0
4, 13328, Note_on_c, 9, 59, 74
4, 13338, Note_on_c, 9, 59, 0
4, 13449, Note_on_c, 9, 59, 73
4, 13458, Note_on_c, 9, 59, 0
4, 13568, Note_on_c, 9, 59, 57
4, 13572, Note_on_c, 9, 59, 0
4, 13663, Note_on_c, 9, 59, 54
4, 13668, Note_on_c, 9, 59, 0
4, 13681, Note_on_c, 9, 59, 66
4, 13703, Note_on_c, 9, 59, 0
4, 13738, Note_on_c, 9, 59, 103
4, 13768, Note_on_c, 9, 59, 0
4, 13803, Note_on_c, 9, 59, 45
4, 13811, Note_on_c, 9, 59, 0
4, 13839, Note_on_c, 9, 59, 49
4, 13847, Note_on_c, 9, 59, 0
4, 13859, Note_on_c, 9, 59, 59
4, 13883, Note_on_c, 9, 59, 0
4, 13917, Note_on_c, 9, 59, 79
4, 13927, Note_on_c, 9, 59, 0
4, 14039, Note_on_c, 9, 59, 64
4, 14046, Note_on_c, 9, 59, 0
4, 14160, Note_on_c, 9, 59, 68
4, 14165, Note_on_c, 9, 59, 0
4, 14222, Note_on_c, 9, 59, 82
4, 14236, Note_on_c, 9, 59, 0
4, 14290, Note_on_c, 9, 59, 24
4, 14294, Note_on_c, 9, 59, 0
4, 14340, Note_on_c, 9, 59, 76
4, 14356, Note_on_c, 9, 59, 0
4, 14402, Note_on_c, 9, 59, 79
4, 14414, Note_on_c, 9, 59, 0
4, 14523, Note_on_c, 9, 59, 71
4, 14532, Note_on_c, 9, 59, 0
4, 14626, Note_on_c, 9, 59, 47
4, 14632, Note_on_c, 9, 59, 0
4, 14644, Note_on_c, 9, 59, 54
4, 14657, Note_on_c, 9, 59, 0
4, 14766, Note_on_c, 9, 59, 71
4, 14776, Note_on_c, 9, 59, 0
4, 14885, Note_on_c, 9, 59, 76
4, 14894, Note_on_c, 9, 59, 0
4, 14943, Note_on_c, 9, 59, 80
4, 14953, Note_on_c, 9, 59, 0
4, 15102, Note_on_c, 9, 59, 58
4, 15111, Note_on_c, 9, 59, 0
4, 15121, Note_on_c, 9, 59, 67
4, 15144, Note_on_c, 9, 59, 0
4, 15181, Note_on_c, 9, 59, 80
4, 15193, Note_on_c, 9, 59, 0
4, 15344, Note_on_c, 9, 59, 49
4, 15350, Note_on_c, 9, 59, 0
4, 15363, Note_on_c, 9, 59, 52
4, 15383, Note_on_c, 9, 59, 0
4, 15426, Note_on_c, 9, 59, 83
4, 15443, Note_on_c, 9, 59, 0
4, 15490, Note_on_c, 9, 59, 80
4, 15508, Note_on_c, 9, 59, 0
4, 15591, Note_on_c, 9, 59, 50
4, 15596, Note_on_c, 9, 59, 0
4, 15609, Note_on_c, 9, 59, 62
4, 15629, Note_on_c, 9, 59, 0
4, 15705, Note_on_c, 9, 59, 26
4, 15710, Note_on_c, 9, 59, 0
4, 15720, Note_on_c, 9, 59, 62
4, 15742, Note_on_c, 9, 59, 0
4, 15818, Note_on_c, 9, 59, 55
4, 15823, Note_on_c, 9, 59, 0
4, 15836, Note_on_c, 9, 59, 62
4, 15858, Note_on_c, 9, 59, 0
4, 15894, Note_on_c, 9, 59, 76
4, 15905, Note_on_c, 9, 59, 0
4, 15957, Note_on_c, 9, 59, 73
4, 15967, Note_on_c, 9, 59, 0
4, 16065, Note_on_c, 9, 59, 38
4, 16073, Note_on_c, 9, 59, 0
4, 16082, Note_on_c, 9, 59, 45
4, 16097, Note_on_c, 9, 59, 0
4, 16141, Note_on_c, 9, 59, 71
4, 16154, Note_on_c, 9, 59, 0
4, 16188, Note_on_c, 9, 59, 42
4, 16193, Note_on_c, 9, 59, 0
4, 16204, Note_on_c, 9, 59, 64
4, 16220, Note_on_c, 9, 59, 0
4, 16303, Note_on_c, 9, 59, 36
4, 16313, Note_on_c, 9, 59, 0
4, 16319, Note_on_c, 9, 59, 43
4, 16332, Note_on_c, 9, 59, 0
4, 16382, Note_on_c, 9, 59, 76
4, 16399, Note_on_c, 9, 59, 0
4, 16431, Note_on_c, 9, 59, 36
4, 16437, Note_on_c, 9, 59, 0
4, 16484, Note_on_c, 9, 59, 41
4, 16489, Note_on_c, 9, 59, 0
4, 16504, Note_on_c, 9, 59, 71
4, 16535, Note_on_c, 9, 59, 0
4, 16612, Note_on_c, 9, 59, 34
4, 16618, Note_on_c, 9, 59, 0
4, 16630, Note_on_c, 9, 59, 62
4, 16662, Note_on_c, 9, 59, 0
4, 16687, Note_on_c, 9, 59, 30
4, 16692, Note_on_c, 9, 59, 0
4, 16725, Note_on_c, 9, 59, 36
4, 16731, Note_on_c, 9, 59, 0
4, 16743, Note_on_c, 9, 59, 63
4, 16769, Note_on_c, 9, 59, 0
4, 16803, Note_on_c, 9, 59, 71
4, 16816, Note_on_c, 9, 59, 0
4, 16865, Note_on_c, 9, 59, 62
4, 16878, Note_on_c, 9, 59, 0
4, 16909, Note_on_c, 9, 59, 42
4, 16920, Note_on_c, 9, 59, 0
4, 16925, Note_on_c, 9, 59, 36
4, 16946, Note_on_c, 9, 59, 0
4, 16983, Note_on_c, 9, 59, 82
4, 17064, Note_on_c, 9, 59, 0
4, 17083, Note_on_c, 9, 59, 50
4, 17089, Note_on_c, 9, 59, 0
4, 17103, Note_on_c, 9, 59, 72
4, 17141, Note_on_c, 9, 59, 0
4, 17165, Note_on_c, 9, 59, 57
4, 17182, Note_on_c, 9, 59, 0
4, 17221, Note_on_c, 9, 59, 83
4, 17236, Note_on_c, 9, 59, 0
4, 17281, Note_on_c, 9, 59, 74
4, 17292, Note_on_c, 9, 59, 0
4, 17342, Note_on_c, 9, 59, 64
4, 17355, Note_on_c, 9, 59, 0
4, 17402, Note_on_c, 9, 59, 62
4, 17415, Note_on_c, 9, 59, 0
4, 17521, Note_on_c, 9, 59, 66
4, 17532, Note_on_c, 9, 59, 0
4, 17623, Note_on_c, 9, 59, 60
4, 17630, Note_on_c, 9, 59, 0
4, 17640, Note_on_c, 9, 59, 70
4, 17655, Note_on_c, 9, 59, 0
4, 17732, Note_on_c, 9, 59, 56
4, 17739, Note_on_c, 9, 59, 0
4, 17752, Note_on_c, 9, 59, 54
4, 17771, Note_on_c, 9, 59, 0
4, 17874, Note_on_c, 9, 59, 74
4, 17884, Note_on_c, 9, 59, 0
4, 17998, Note_on_c, 9, 59, 71
4, 18006, Note_on_c, 9, 59, 0
4, 18102, Note_on_c, 9, 53, 53
4, 18106, Note_on_c, 9, 53, 0
4, 18123, Note_on_c, 9, 59, 53
4, 18141, Note_on_c, 9, 59, 0
4, 18180, Note_on_c, 9, 59, 68
4, 18204, Note_on_c, 9, 59, 0
4, 18244, Note_on_c, 9, 59, 75
4, 18260, Note_on_c, 9, 59, 0
4, 18459, Note_on_c, 9, 59, 54
4, 18464, Note_on_c, 9, 59, 0
4, 18479, Note_on_c, 9, 59, 59
4, 18499, Note_on_c, 9, 59, 0
4, 18578, Note_on_c, 9, 59, 63
4, 18584, Note_on_c, 9, 59, 0
4, 18598, Note_on_c, 9, 59, 45
4, 18606, Note_on_c, 9, 59, 0
4, 18638, Note_on_c, 9, 59, 75
4, 18642, Note_on_c, 9, 59, 0
4, 18660, Note_on_c, 9, 59, 88
4, 18692, Note_on_c, 9, 59, 0
4, 18721, Note_on_c, 9, 59, 37
4, 18729, Note_on_c, 9, 59, 0
4, 18755, Note_on_c, 9, 59, 55
4, 18759, Note_on_c, 9, 59, 0
4, 18777, Note_on_c, 9, 59, 88
4, 18811, Note_on_c, 9, 59, 0
4, 18839, Note_on_c, 9, 59, 42
4, 18845, Note_on_c, 9, 59, 0
4, 18876, Note_on_c, 9, 59, 87
4, 18911, Note_on_c, 9, 59, 0
4, 18936, Note_on_c, 9, 59, 22
4, 18941, Note_on_c, 9, 59, 0
4, 18957, Note_on_c, 9, 59, 84
4, 18989, Note_on_c, 9, 59, 0
4, 19023, Note_on_c, 9, 59, 40
4, 19028, Note_on_c, 9, 59, 0
4, 19062, Note_on_c, 9, 59, 85
4, 19076, Note_on_c, 9, 59, 0
4, 19120, Note_on_c, 9, 53, 57
4, 19124, Note_on_c, 9, 53, 0
4, 19145, Note_on_c, 9, 59, 82
4, 19146, Note_on_c, 9, 53, 72
4, 19163, Note_on_c, 9, 53, 0
4, 19175, Note_on_c, 9, 59, 0
4, 19201, Note_on_c, 9, 53, 49
4, 19205, Note_on_c, 9, 53, 0
4, 19241, Note_on_c, 9, 59, 78
4, 19241, Note_on_c, 9, 53, 77
4, 19255, Note_on_c, 9, 53, 0
4, 19263, Note_on_c, 9, 59, 0
4, 19306, Note_on_c, 9, 53, 24
4, 19311, Note_on_c, 9, 53, 0
4, 19331, Note_on_c, 9, 59, 81
4, 19331, Note_on_c, 9, 53, 72
4, 19349, Note_on_c, 9, 53, 0
4, 19358, Note_on_c, 9, 59, 0
4, 19381, Note_on_c, 9, 53, 59
4, 19386, Note_on_c, 9, 53, 0
4, 19416, Note_on_c, 9, 59, 88
4, 19438, Note_on_c, 9, 59, 0
4, 19479, Note_on_c, 9, 59, 42
4, 19485, Note_on_c, 9, 59, 0
4, 19498, Note_on_c, 9, 59, 67
4, 19514, Note_on_c, 9, 59, 0
4, 19537, Note_on_c, 9, 59, 75
4, 19552, Note_on_c, 9, 59, 0
4, 19596, Note_on_c, 9, 59, 51
4, 19602, Note_on_c, 9, 59, 0
4, 19616, Note_on_c, 9, 59, 50
4, 19629, Note_on_c, 9, 59, 0
4, 19653, Note_on_c, 9, 59, 45
4, 19659, Note_on_c, 9, 59, 0
4, 19677, Note_on_c, 9, 59, 67
4, 19678, Note_on_c, 9, 53, 49
4, 19683, Note_on_c, 9, 53, 0
4, 19686, Note_on_c, 9, 59, 0
4, 19780, Note_on_c, 9, 59, 36
4, 19786, Note_on_c, 9, 59, 0
4, 19901, Note_on_c, 9, 59, 54
4, 19905, Note_on_c, 9, 59, 0
4, 19924, Note_on_c, 9, 51, 51
4, 19925, Note_on_c, 9, 59, 64
4, 19931, Note_on_c, 9, 51, 0
4, 19933, Note_on_c, 9, 59, 0
4, 20092, Note_on_c, 9, 59, 46
4, 20098, Note_on_c, 9, 59, 0
4, 20115, Note_on_c, 9, 59, 89
4, 20155, Note_on_c, 9, 59, 0
4, 20270, Note_on_c, 9, 59, 36
4, 20276, Note_on_c, 9, 59, 0
4, 20288, Note_on_c, 9, 59, 45
4, 20313, Note_on_c, 9, 59, 0
4, 20384, Note_on_c, 9, 59, 50
4, 20389, Note_on_c, 9, 59, 0
4, 20406, Note_on_c, 9, 59, 63
4, 20428, Note_on_c, 9, 59, 0
4, 20466, Note_on_c, 9, 59, 83
4, 20516, Note_on_c, 9, 59, 0
4, 20563, Note_on_c, 9, 59, 31
4, 20568, Note_on_c, 9, 59, 0
4, 20582, Note_on_c, 9, 59, 60
4, 20602, Note_on_c, 9, 59, 0
4, 20619, Note_on_c, 9, 59, 90
4, 20636, Note_on_c, 9, 59, 0
4, 20653, Note_on_c, 9, 59, 82
4, 20680, Note_on_c, 9, 59, 0
4, 20706, Note_on_c, 9, 59, 71
4, 20741, Note_on_c, 9, 59, 0
4, 20768, Note_on_c, 9, 59, 71
4, 20796, Note_on_c, 9, 59, 0
4, 20886, Note_on_c, 9, 59, 80
4, 20899, Note_on_c, 9, 59, 0
4, 21007, Note_on_c, 9, 59, 64
4, 21015, Note_on_c, 9, 59, 0
4, 21127, Note_on_c, 9, 59, 73
4, 21134, Note_on_c, 9, 59, 0
4, 21189, Note_on_c, 9, 59, 74
4, 21198, Note_on_c, 9, 59, 0
4, 21341, Note_on_c, 9, 59, 50
4, 21346, Note_on_c, 9, 59, 0
4, 21360, Note_on_c, 9, 59, 74
4, 21389, Note_on_c, 9, 59, 0
4, 21514, Note_on_c, 9, 59, 35
4, 21519, Note_on_c, 9, 59, 0
4, 21536, Note_on_c, 9, 59, 62
4, 21555, Note_on_c, 9, 59, 0
4, 21580, Note_on_c, 9, 59, 103
4, 21600, Note_on_c, 9, 59, 0
4, 21613, Note_on_c, 9, 59, 62
4, 21639, Note_on_c, 9, 59, 0
4, 21667, Note_on_c, 9, 59, 46
4, 21684, Note_on_c, 9, 59, 0
4, 21724, Note_on_c, 9, 59, 64
4, 21739, Note_on_c, 9, 59, 0
4, 21840, Note_on_c, 9, 59, 31
4, 21846, Note_on_c, 9, 59, 0
4, 21901, Note_on_c, 9, 59, 54
4, 21927, Note_on_c, 9, 59, 0
4, 21967, Note_on_c, 9, 59, 24
4, 21973, Note_on_c, 9, 59, 0
4, 22001, Note_on_c, 9, 59, 57
4, 22007, Note_on_c, 9, 59, 0
4, 22023, Note_on_c, 9, 59, 68
4, 22051, Note_on_c, 9, 59, 0
4, 22085, Note_on_c, 9, 59, 35
4, 22090, Note_on_c, 9, 59, 0
4, 22122, Note_on_c, 9, 59, 58
4, 22128, Note_on_c, 9, 59, 0
4, 22144, Note_on_c, 9, 59, 68
4, 22169, Note_on_c, 9, 59, 0
4, 22205, Note_on_c, 9, 59, 48
4, 22209, Note_on_c, 9, 59, 0
4, 22240, Note_on_c, 9, 59, 48
4, 22245, Note_on_c, 9, 59, 0
4, 22260, Note_on_c, 9, 59, 76
4, 22292, Note_on_c, 9, 59, 0
4, 22366, Note_on_c, 9, 59, 38
4, 22371, Note_on_c, 9, 59, 0
4, 22383, Note_on_c, 9, 59, 62
4, 22400, Note_on_c, 9, 59, 0
4, 22483, Note_on_c, 9, 53, 54
4, 22488, Note_on_c, 9, 53, 0
4, 22506, Note_on_c, 9, 53, 45
4, 22507, Note_on_c, 9, 59, 61
4, 22535, Note_on_c, 9, 53, 0
4, 22540, Note_on_c, 9, 59, 0
4, 22606, Note_on_c, 9, 59, 37
4, 22613, Note_on_c, 9, 59, 0
4, 22628, Note_on_c, 9, 59, 77
4, 22663, Note_on_c, 9, 59, 0
4, 22684, Note_on_c, 9, 59, 71
4, 22703, Note_on_c, 9, 59, 0
4, 22843, Note_on_c, 9, 59, 54
4, 22848, Note_on_c, 9, 59, 0
4, 22861, Note_on_c, 9, 59, 54
4, 22872, Note_on_c, 9, 59, 0
4, 22901, Note_on_c, 9, 59, 68
4, 22915, Note_on_c, 9, 59, 0
4, 22942, Note_on_c, 9, 59, 30
4, 22950, Note_on_c, 9, 59, 0
4, 22959, Note_on_c, 9, 59, 63
4, 22964, Note_on_c, 9, 59, 0
4, 22980, Note_on_c, 9, 59, 81
4, 23013, Note_on_c, 9, 59, 0
4, 23103, Note_on_c, 9, 59, 38
4, 23109, Note_on_c, 9, 59, 0
4, 23142, Note_on_c, 9, 59, 59
4, 23147, Note_on_c, 9, 59, 0
4, 23260, Note_on_c, 9, 59, 44
4, 23268, Note_on_c, 9, 59, 0
4, 23280, Note_on_c, 9, 59, 58
4, 23297, Note_on_c, 9, 59, 0
4, 23383, Note_on_c, 9, 59, 47
4, 23388, Note_on_c, 9, 59, 0
4, 23441, Note_on_c, 9, 53, 37
4, 23448, Note_on_c, 9, 53, 0
4, 23499, Note_on_c, 9, 53, 34
4, 23504, Note_on_c, 9, 53, 0
4, 23524, Note_on_c, 9, 59, 32
4, 23542, Note_on_c, 9, 59, 0
4, 23560, Note_on_c, 9, 53, 47
4, 23565, Note_on_c, 9, 53, 0
4, 23585, Note_on_c, 9, 59, 30
4, 23594, Note_on_c, 9, 59, 0
4, 23622, Note_on_c, 9, 53, 56
4, 23626, Note_on_c, 9, 53, 0
4, 23646, Note_on_c, 9, 59, 24
4, 23663, Note_on_c, 9, 59, 0
4, 23681, Note_on_c, 9, 53, 64
4, 23687, Note_on_c, 9, 53, 0
4, 23703, Note_on_c, 9, 59, 41
4, 23719, Note_on_c, 9, 59, 0
4, 23742, Note_on_c, 9, 59, 51
4, 23747, Note_on_c, 9, 59, 0
4, 23763, Note_on_c, 9, 59, 78
4, 23795, Note_on_c, 9, 59, 0
4, 23944, Note_on_c, 9, 59, 35
4, 23953, Note_on_c, 9, 59, 0
4, 23983, Note_on_c, 9, 53, 39
4, 23990, Note_on_c, 9, 53, 0
4, 24003, Note_on_c, 9, 59, 29
4, 24032, Note_on_c, 9, 59, 0
4, 24040, Note_on_c, 9, 53, 42
4, 24053, Note_on_c, 9, 53, 0
4, 24066, Note_on_c, 9, 59, 32
4, 24078, Note_on_c, 9, 59, 0
4, 24100, Note_on_c, 9, 59, 84
4, 24114, Note_on_c, 9, 59, 0
4, 24126, Note_on_c, 9, 59, 90
4, 24158, Note_on_c, 9, 59, 0
4, 24221, Note_on_c, 9, 53, 32
4, 24232, Note_on_c, 9, 53, 0
4, 24280, Note_on_c, 9, 53, 28
4, 24285, Note_on_c, 9, 53, 0
4, 24299, Note_on_c, 9, 59, 42
4, 24310, Note_on_c, 9, 59, 0
4, 24317, Note_on_c, 9, 59, 50
4, 24328, Note_on_c, 9, 59, 0
4, 24337, Note_on_c, 9, 59, 78
4, 24355, Note_on_c, 9, 59, 0
4, 24383, Note_on_c, 9, 59, 46
4, 24393, Note_on_c, 9, 59, 0
4, 24402, Note_on_c, 9, 59, 60
4, 24408, Note_on_c, 9, 59, 0
4, 24422, Note_on_c, 9, 59, 85
4, 24452, Note_on_c, 9, 59, 0
4, 24519, Note_on_c, 9, 59, 83
4, 24543, Note_on_c, 9, 59, 0
4, 24578, Note_on_c, 9, 53, 36
4, 24582, Note_on_c, 9, 53, 0
4, 24641, Note_on_c, 9, 53, 29
4, 24646, Note_on_c, 9, 53, 0
4, 24660, Note_on_c, 9, 59, 36
4, 24667, Note_on_c, 9, 59, 0
4, 24677, Note_on_c, 9, 59, 57
4, 24689, Note_on_c, 9, 59, 0
4, 24697, Note_on_c, 9, 59, 80
4, 24713, Note_on_c, 9, 59, 0
4, 24750, Note_on_c, 9, 53, 55
4, 24754, Note_on_c, 9, 53, 0
4, 24773, Note_on_c, 9, 53, 66
4, 24779, Note_on_c, 9, 53, 0
4, 24827, Note_on_c, 9, 53, 52
4, 24831, Note_on_c, 9, 53, 0
4, 24884, Note_on_c, 9, 53, 30
4, 24889, Note_on_c, 9, 53, 0
4, 24937, Note_on_c, 9, 53, 43
4, 24942, Note_on_c, 9, 53, 0
4, 24964, Note_on_c, 9, 59, 34
4, 24972, Note_on_c, 9, 59, 0
4, 24988, Note_on_c, 9, 59, 50
4, 24996, Note_on_c, 9, 59, 0
4, 25023, Note_on_c, 9, 59, 79
4, 25035, Note_on_c, 9, 59, 0
4, 25061, Note_on_c, 9, 59, 77
4, 25074, Note_on_c, 9, 59, 0
4, 25182, Note_on_c, 9, 53, 53
4, 25187, Note_on_c, 9, 53, 0
4, 25202, Note_on_c, 9, 59, 44
4, 25216, Note_on_c, 9, 59, 0
4, 25224, Note_on_c, 9, 59, 79
4, 25233, Note_on_c, 9, 59, 0
4, 25265, Note_on_c, 9, 59, 85
4, 25295, Note_on_c, 9, 59, 0
4, 25308, Note_on_c, 9, 53, 46
4, 25312, Note_on_c, 9, 53, 0
4, 25330, Note_on_c, 9, 59, 44
4, 25335, Note_on_c, 9, 59, 0
4, 25344, Note_on_c, 9, 59, 72
4, 25357, Note_on_c, 9, 59, 0
4, 25386, Note_on_c, 9, 59, 81
4, 25422, Note_on_c, 9, 59, 0
4, 25546, Note_on_c, 9, 53, 51
4, 25550, Note_on_c, 9, 53, 0
4, 25568, Note_on_c, 9, 59, 51
4, 25597, Note_on_c, 9, 59, 0
4, 25623, Note_on_c, 9, 59, 74
4, 25658, Note_on_c, 9, 59, 0
4, 25686, Note_on_c, 9, 59, 70
4, 25719, Note_on_c, 9, 59, 0
4, 25746, Note_on_c, 9, 59, 68
4, 25777, Note_on_c, 9, 59, 0
4, 25807, Note_on_c, 9, 59, 59
4, 25833, Note_on_c, 9, 59, 0
4, 25866, Note_on_c, 9, 53, 68
4, 25887, Note_on_c, 9, 53, 0
4, 25929, Note_on_c, 9, 59, 31
4, 25935, Note_on_c, 9, 59, 0
4, 25965, Note_on_c, 9, 53, 49
4, 25970, Note_on_c, 9, 53, 0
4, 25985, Note_on_c, 9, 59, 77
4, 26025, Note_on_c, 9, 59, 0
4, 26048, Note_on_c, 9, 59, 26
4, 26056, Note_on_c, 9, 59, 0
4, 26085, Note_on_c, 9, 53, 44
4, 26091, Note_on_c, 9, 53, 0
4, 26102, Note_on_c, 9, 59, 76
4, 26139, Note_on_c, 9, 59, 0
4, 26202, Note_on_c, 9, 53, 43
4, 26207, Note_on_c, 9, 53, 0
4, 26221, Note_on_c, 9, 59, 55
4, 26247, Note_on_c, 9, 59, 0
4, 26265, Note_on_c, 9, 59, 78
4, 26288, Note_on_c, 9, 59, 0
4, 26303, Note_on_c, 9, 59, 75
4, 26329, Note_on_c, 9, 59, 0
4, 26345, Note_on_c, 9, 59, 80
4, 26369, Note_on_c, 9, 59, 0
4, 26384, Note_on_c, 9, 59, 74
4, 26395, Note_on_c, 9, 59, 0
4, 26404, Note_on_c, 9, 59, 66
4, 26429, Note_on_c, 9, 59, 0
4, 26559, Note_on_c, 9, 59, 41
4, 26564, Note_on_c, 9, 59, 0
4, 26584, Note_on_c, 9, 59, 60
4, 26589, Note_on_c, 9, 59, 0
4, 26601, Note_on_c, 9, 59, 62
4, 26610, Note_on_c, 9, 59, 0
4, 26642, Note_on_c, 9, 59, 88
4, 26669, Note_on_c, 9, 59, 0
4, 26687, Note_on_c, 9, 59, 74
4, 26703, Note_on_c, 9, 59, 0
4, 26726, Note_on_c, 9, 59, 49
4, 26731, Note_on_c, 9, 59, 0
4, 26739, Note_on_c, 9, 59, 69
4, 26749, Note_on_c, 9, 59, 0
4, 26760, Note_on_c, 9, 53, 68
4, 26773, Note_on_c, 9, 53, 0
4, 26805, Note_on_c, 9, 59, 51
4, 26809, Note_on_c, 9, 59, 0
4, 26838, Note_on_c, 9, 59, 53
4, 26844, Note_on_c, 9, 59, 0
4, 26855, Note_on_c, 9, 59, 71
4, 26868, Note_on_c, 9, 59, 0
4, 26982, Note_on_c, 9, 59, 44
4, 26987, Note_on_c, 9, 59, 0
4, 27004, Note_on_c, 9, 59, 51
4, 27009, Note_on_c, 9, 59, 0
4, 27040, Note_on_c, 9, 59, 103
4, 27091, Note_on_c, 9, 59, 0
4, 27161, Note_on_c, 9, 53, 58
4, 27165, Note_on_c, 9, 53, 0
4, 27187, Note_on_c, 9, 59, 36
4, 27192, Note_on_c, 9, 59, 0
4, 27229, Note_on_c, 9, 59, 28
4, 27234, Note_on_c, 9, 59, 0
4, 27282, Note_on_c, 9, 53, 63
4, 27293, Note_on_c, 9, 53, 0
4, 27345, Note_on_c, 9, 59, 56
4, 27349, Note_on_c, 9, 59, 0
4, 27366, Note_on_c, 9, 59, 82
4, 27402, Note_on_c, 9, 59, 0
4, 27466, Note_on_c, 9, 59, 50
4, 27472, Note_on_c, 9, 59, 0
4, 27488, Note_on_c, 9, 59, 57
4, 27509, Note_on_c, 9, 59, 0
4, 27586, Note_on_c, 9, 59, 29
4, 27592, Note_on_c, 9, 59, 0
4, 27661, Note_on_c, 9, 59, 43
4, 27673, Note_on_c, 9, 59, 0
4, 27697, Note_on_c, 9, 59, 88
4, 27716, Note_on_c, 9, 59, 0
4, 27734, Note_on_c, 9, 59, 63
4, 27751, Note_on_c, 9, 59, 0
4, 27778, Note_on_c, 9, 59, 57
4, 27788, Note_on_c, 9, 59, 0
4, 27821, Note_on_c, 9, 59, 47
4, 27827, Note_on_c, 9, 59, 0
4, 27843, Note_on_c, 9, 59, 52
4, 27867, Note_on_c, 9, 59, 0
4, 27968, Note_on_c, 9, 59, 60
4, 28000, Note_on_c, 9, 59, 0
4, 28123, Note_on_c, 9, 59, 45
4, 28128, Note_on_c, 9, 59, 0
4, 28143, Note_on_c, 9, 59, 53
4, 28170, Note_on_c, 9, 59, 0
4, 28246, Note_on_c, 9, 53, 34
4, 28251, Note_on_c, 9, 53, 0
4, 28265, Note_on_c, 9, 59, 28
4, 28273, Note_on_c, 9, 59, 0
4, 28302, Note_on_c, 9, 59, 90
4, 28313, Note_on_c, 9, 59, 0
4, 28325, Note_on_c, 9, 59, 80
4, 28358, Note_on_c, 9, 59, 0
4, 28383, Note_on_c, 9, 59, 68
4, 28406, Note_on_c, 9, 59, 0
4, 28440, Note_on_c, 9, 59, 71
4, 28465, Note_on_c, 9, 59, 0
4, 28555, Note_on_c, 9, 59, 87
4, 28630, Note_on_c, 9, 59, 0
4, 28680, Note_on_c, 9, 59, 67
4, 28696, Note_on_c, 9, 59, 0
4, 28803, Note_on_c, 9, 53, 31
4, 28805, Note_on_c, 9, 59, 71
4, 28808, Note_on_c, 9, 53, 0
4, 28815, Note_on_c, 9, 59, 0
4, 28913, Note_on_c, 9, 53, 42
4, 28918, Note_on_c, 9, 53, 0
4, 28921, Note_on_c, 9, 59, 66
4, 28933, Note_on_c, 9, 59, 0
4, 29024, Note_on_c, 9, 53, 48
4, 29028, Note_on_c, 9, 53, 0
4, 29042, Note_on_c, 9, 59, 69
4, 29058, Note_on_c, 9, 59, 0
4, 29163, Note_on_c, 9, 59, 85
4, 29173, Note_on_c, 9, 59, 0
4, 29222, Note_on_c, 9, 59, 88
4, 29251, Note_on_c, 9, 59, 0
4, 29282, Note_on_c, 9, 59, 65
4, 29298, Note_on_c, 9, 59, 0
4, 29383, Note_on_c, 9, 59, 48
4, 29390, Note_on_c, 9, 59, 0
4, 29402, Note_on_c, 9, 59, 59
4, 29428, Note_on_c, 9, 59, 0
4, 29521, Note_on_c, 9, 59, 82
4, 29529, Note_on_c, 9, 59, 0
4, 29643, Note_on_c, 9, 59, 68
4, 29656, Note_on_c, 9, 59, 0
4, 29755, Note_on_c, 9, 59, 57
4, 29765, Note_on_c, 9, 59, 0
4, 29920, Note_on_c, 9, 59, 33
4, 29926, Note_on_c, 9, 59, 0
4, 29943, Note_on_c, 9, 59, 20
4, 29954, Note_on_c, 9, 59, 0
4, 29981, Note_on_c, 9, 59, 92
4, 29990, Note_on_c, 9, 59, 0
4, 30006, Note_on_c, 9, 59, 91
4, 30032, Note_on_c, 9, 59, 0
4, 30102, Note_on_c, 9, 59, 38
4, 30107, Note_on_c, 9, 59, 0
4, 30124, Note_on_c, 9, 59, 82
4, 30129, Note_on_c, 9, 59, 0
4, 30163, Note_on_c, 9, 59, 78
4, 30170, Note_on_c, 9, 59, 0
4, 30189, Note_on_c, 9, 59, 72
4, 30194, Note_on_c, 9, 59, 0
4, 30226, Note_on_c, 9, 59, 69
4, 30236, Note_on_c, 9, 59, 0
4, 30255, Note_on_c, 9, 59, 67
4, 30275, Note_on_c, 9, 59, 0
4, 30306, Note_on_c, 9, 59, 65
4, 30325, Note_on_c, 9, 59, 0
4, 30368, Note_on_c, 9, 59, 58
4, 30432, Note_on_c, 9, 59, 0
4, 30467, Note_on_c, 9, 59, 50
4, 30473, Note_on_c, 9, 59, 0
4, 30490, Note_on_c, 9, 59, 46
4, 30506, Note_on_c, 9, 59, 0
4, 30524, Note_on_c, 9, 59, 43
4, 30536, Note_on_c, 9, 59, 0
4, 30550, Note_on_c, 9, 59, 42
4, 30581, Note_on_c, 9, 59, 0
4, 30642, Note_on_c, 9, 59, 36
4, 30647, Note_on_c, 9, 59, 0
4, 30664, Note_on_c, 9, 59, 34
4, 30674, Note_on_c, 9, 59, 0
4, 30702, Note_on_c, 9, 59, 32
4, 30713, Note_on_c, 9, 59, 0
4, 30728, Note_on_c, 9, 59, 31
4, 30762, Note_on_c, 9, 59, 0
4, 30793, Note_on_c, 9, 59, 27
4, 30799, Note_on_c, 9, 59, 0
4, 30851, Note_on_c, 9, 59, 24
4, 30863, Note_on_c, 9, 59, 0
4, 30947, Note_on_c, 9, 53, 15
4, 30952, Note_on_c, 9, 53, 0
4, 30969, Note_on_c, 9, 59, 13
4, 30990, Note_on_c, 9, 59, 0
4, 31066, Note_on_c, 9, 53, 8
4, 31071, Note_on_c, 9, 53, 0
4, 31087, Note_on_c, 9, 59, 7
4, 31102, Note_on_c, 9, 59, 0
4, 31142, Note_on_c, 9, 59, 3
4, 31153, Note_on_c, 9, 59, 0
4, 31201, Note_on_c, 9, 59, 3
4, 31206, Note_on_c, 9, 59, 0
4, 31206, End_track
5, 0, Start_track
5, 0, Title_t, "Hi Hat"
5, 603, Note_on_c, 9, 44, 87
5, 632, Note_on_c, 9, 44, 0
5, 849, Note_on_c, 9, 44, 83
5, 872, Note_on_c, 9, 44, 0
5, 1090, Note_on_c, 9, 44, 86
5, 1108, Note_on_c, 9, 44, 0
5, 1325, Note_on_c, 9, 46, 72
5, 1336, Note_on_c, 9, 46, 0
5, 1565, Note_on_c, 9, 44, 75
5, 1581, Note_on_c, 9, 44, 0
5, 1803, Note_on_c, 9, 44, 77
5, 1817, Note_on_c, 9, 44, 0
5, 2052, Note_on_c, 9, 44, 91
5, 2067, Note_on_c, 9, 44, 0
5, 2209, Note_on_c, 9, 44, 52
5, 2216, Note_on_c, 9, 44, 0
5, 2531, Note_on_c, 9, 44, 87
5, 2544, Note_on_c, 9, 44, 0
5, 2767, Note_on_c, 9, 44, 78
5, 2787, Note_on_c, 9, 44, 0
5, 3001, Note_on_c, 9, 44, 93
5, 3013, Note_on_c, 9, 44, 0
5, 3241, Note_on_c, 9, 44, 90
5, 3252, Note_on_c, 9, 44, 0
5, 3403, Note_on_c, 9, 44, 71
5, 3411, Note_on_c, 9, 44, 0
5, 3523, Note_on_c, 9, 44, 74
5, 3530, Note_on_c, 9, 44, 0
5, 3667, Note_on_c, 9, 44, 77
5, 3675, Note_on_c, 9, 44, 0
5, 3960, Note_on_c, 9, 44, 83
5, 3969, Note_on_c, 9, 44, 0
5, 4021, Note_on_c, 9, 46, 67
5, 4030, Note_on_c, 9, 46, 0
5, 4201, Note_on_c, 9, 44, 79
5, 4210, Note_on_c, 9, 44, 0
5, 4444, Note_on_c, 9, 44, 74
5, 4453, Note_on_c, 9, 44, 0
5, 4686, Note_on_c, 9, 44, 79
5, 4695, Note_on_c, 9, 44, 0
5, 4926, Note_on_c, 9, 44, 78
5, 4935, Note_on_c, 9, 44, 0
5, 5162, Note_on_c, 9, 44, 77
5, 5170, Note_on_c, 9, 44, 0
5, 5199, Note_on_c, 9, 46, 70
5, 5204, Note_on_c, 9, 46, 0
5, 5402, Note_on_c, 9, 44, 67
5, 5410, Note_on_c, 9, 44, 0
5, 5561, Note_on_c, 9, 44, 51
5, 5567, Note_on_c, 9, 44, 0
5, 5624, Note_on_c, 9, 44, 61
5, 5630, Note_on_c, 9, 44, 0
5, 5680, Note_on_c, 9, 44, 60
5, 5685, Note_on_c, 9, 44, 0
5, 5741, Note_on_c, 9, 44, 67
5, 5748, Note_on_c, 9, 44, 0
5, 5883, Note_on_c, 9, 44, 82
5, 5892, Note_on_c, 9, 44, 0
5, 6124, Note_on_c, 9, 46, 74
5, 6132, Note_on_c, 9, 46, 0
5, 6224, Note_on_c, 9, 44, 61
5, 6230, Note_on_c, 9, 44, 0
5, 6364, Note_on_c, 9, 44, 71
5, 6372, Note_on_c, 9, 44, 0
5, 6607, Note_on_c, 9, 44, 71
5, 6615, Note_on_c, 9, 44, 0
5, 6841, Note_on_c, 9, 44, 68
5, 6849, Note_on_c, 9, 44, 0
5, 7082, Note_on_c, 9, 44, 75
5, 7091, Note_on_c, 9, 44, 0
5, 7319, Note_on_c, 9, 44, 75
5, 7328, Note_on_c, 9, 44, 0
5, 7477, Note_on_c, 9, 44, 69
5, 7485, Note_on_c, 9, 44, 0
5, 7537, Note_on_c, 9, 44, 71
5, 7544, Note_on_c, 9, 44, 0
5, 7597, Note_on_c, 9, 44, 72
5, 7605, Note_on_c, 9, 44, 0
5, 7658, Note_on_c, 9, 44, 74
5, 7665, Note_on_c, 9, 44, 0
5, 7803, Note_on_c, 9, 44, 82
5, 7811, Note_on_c, 9, 44, 0
5, 8043, Note_on_c, 9, 46, 79
5, 8054, Note_on_c, 9, 46, 0
5, 8282, Note_on_c, 9, 44, 72
5, 8290, Note_on_c, 9, 44, 0
5, 8439, Note_on_c, 9, 44, 70
5, 8447, Note_on_c, 9, 44, 0
5, 8499, Note_on_c, 9, 44, 71
5, 8507, Note_on_c, 9, 44, 0
5, 8555, Note_on_c, 9, 44, 71
5, 8563, Note_on_c, 9, 44, 0
5, 8617, Note_on_c, 9, 44, 71
5, 8626, Note_on_c, 9, 44, 0
5, 8761, Note_on_c, 9, 44, 70
5, 8768, Note_on_c, 9, 44, 0
5, 8951, Note_on_c, 9, 44, 70
5, 8959, Note_on_c, 9, 44, 0
5, 9238, Note_on_c, 9, 44, 80
5, 9247, Note_on_c, 9, 44, 0
5, 9478, Note_on_c, 9, 46, 58
5, 9486, Note_on_c, 9, 46, 0
5, 9723, Note_on_c, 9, 46, 74
5, 9734, Note_on_c, 9, 46, 0
5, 9963, Note_on_c, 9, 46, 60
5, 9971, Note_on_c, 9, 46, 0
5, 10200, Note_on_c, 9, 44, 68
5, 10208, Note_on_c, 9, 44, 0
5, 10361, Note_on_c, 9, 44, 56
5, 10367, Note_on_c, 9, 44, 0
5, 10424, Note_on_c, 9, 44, 60
5, 10431, Note_on_c, 9, 44, 0
5, 10627, Note_on_c, 9, 44, 68
5, 10636, Note_on_c, 9, 44, 0
5, 10924, Note_on_c, 9, 44, 69
5, 10934, Note_on_c, 9, 44, 0
5, 11165, Note_on_c, 9, 44, 74
5, 11175, Note_on_c, 9, 44, 0
5, 11401, Note_on_c, 9, 44, 80
5, 11412, Note_on_c, 9, 44, 0
5, 11643, Note_on_c, 9, 44, 76
5, 11653, Note_on_c, 9, 44, 0
5, 11820, Note_on_c, 9, 46, 65
5, 11830, Note_on_c, 9, 46, 0
5, 12127, Note_on_c, 9, 44, 72
5, 12137, Note_on_c, 9, 44, 0
5, 12302, Note_on_c, 9, 44, 58
5, 12310, Note_on_c, 9, 44, 0
5, 12603, Note_on_c, 9, 44, 85
5, 12614, Note_on_c, 9, 44, 0
5, 12778, Note_on_c, 9, 44, 64
5, 12788, Note_on_c, 9, 44, 0
5, 12894, Note_on_c, 9, 44, 62
5, 12906, Note_on_c, 9, 44, 0
5, 13021, Note_on_c, 9, 44, 64
5, 13032, Note_on_c, 9, 44, 0
5, 13327, Note_on_c, 9, 46, 63
5, 13336, Note_on_c, 9, 46, 0
5, 13566, Note_on_c, 9, 44, 76
5, 13576, Note_on_c, 9, 44, 0
5, 13804, Note_on_c, 9, 44, 62
5, 13814, Note_on_c, 9, 44, 0
5, 14017, Note_on_c, 9, 44, 58
5, 14026, Note_on_c, 9, 44, 0
5, 14043, Note_on_c, 9, 46, 62
5, 14052, Note_on_c, 9, 46, 0
5, 14317, Note_on_c, 9, 44, 67
5, 14325, Note_on_c, 9, 44, 0
5, 14344, Note_on_c, 9, 46, 73
5, 14370, Note_on_c, 9, 46, 0
5, 14681, Note_on_c, 9, 44, 37
5, 14686, Note_on_c, 9, 44, 0
5, 14743, Note_on_c, 9, 44, 45
5, 14748, Note_on_c, 9, 44, 0
5, 14767, Note_on_c, 9, 46, 37
5, 14772, Note_on_c, 9, 46, 0
5, 14917, Note_on_c, 9, 44, 35
5, 14923, Note_on_c, 9, 44, 0
5, 14943, Note_on_c, 9, 44, 39
5, 14948, Note_on_c, 9, 44, 0
5, 15053, Note_on_c, 9, 46, 62
5, 15058, Note_on_c, 9, 46, 0
5, 15243, Note_on_c, 9, 44, 81
5, 15252, Note_on_c, 9, 44, 0
5, 15403, Note_on_c, 9, 44, 31
5, 15407, Note_on_c, 9, 44, 0
5, 15423, Note_on_c, 9, 44, 49
5, 15430, Note_on_c, 9, 44, 0
5, 15548, Note_on_c, 9, 44, 65
5, 15557, Note_on_c, 9, 44, 0
5, 15779, Note_on_c, 9, 46, 58
5, 15784, Note_on_c, 9, 46, 0
5, 15955, Note_on_c, 9, 44, 60
5, 15963, Note_on_c, 9, 44, 0
5, 16138, Note_on_c, 9, 44, 50
5, 16147, Note_on_c, 9, 44, 0
5, 16257, Note_on_c, 9, 44, 59
5, 16268, Note_on_c, 9, 44, 0
5, 16377, Note_on_c, 9, 44, 53
5, 16387, Note_on_c, 9, 44, 0
5, 16500, Note_on_c, 9, 46, 56
5, 16511, Note_on_c, 9, 46, 0
5, 16621, Note_on_c, 9, 44, 55
5, 16630, Note_on_c, 9, 44, 0
5, 16721, Note_on_c, 9, 44, 43
5, 16725, Note_on_c, 9, 44, 0
5, 16740, Note_on_c, 9, 44, 60
5, 16750, Note_on_c, 9, 44, 0
5, 16861, Note_on_c, 9, 44, 58
5, 16870, Note_on_c, 9, 44, 0
5, 16981, Note_on_c, 9, 46, 68
5, 16991, Note_on_c, 9, 46, 0
5, 17102, Note_on_c, 9, 44, 48
5, 17111, Note_on_c, 9, 44, 0
5, 17199, Note_on_c, 9, 44, 58
5, 17204, Note_on_c, 9, 44, 0
5, 17261, Note_on_c, 9, 44, 57
5, 17265, Note_on_c, 9, 44, 0
5, 17312, Note_on_c, 9, 44, 69
5, 17319, Note_on_c, 9, 44, 0
5, 17375, Note_on_c, 9, 44, 69
5, 17383, Note_on_c, 9, 44, 0
5, 17581, Note_on_c, 9, 44, 69
5, 17589, Note_on_c, 9, 44, 0
5, 17880, Note_on_c, 9, 44, 68
5, 17890, Note_on_c, 9, 44, 0
5, 18119, Note_on_c, 9, 44, 64
5, 18127, Note_on_c, 9, 44, 0
5, 18179, Note_on_c, 9, 46, 69
5, 18188, Note_on_c, 9, 46, 0
5, 18361, Note_on_c, 9, 44, 65
5, 18371, Note_on_c, 9, 44, 0
5, 18598, Note_on_c, 9, 44, 63
5, 18608, Note_on_c, 9, 44, 0
5, 18841, Note_on_c, 9, 44, 70
5, 18849, Note_on_c, 9, 44, 0
5, 18899, Note_on_c, 9, 46, 68
5, 18908, Note_on_c, 9, 46, 0
5, 19026, Note_on_c, 9, 44, 65
5, 19034, Note_on_c, 9, 44, 0
5, 19264, Note_on_c, 9, 44, 62
5, 19274, Note_on_c, 9, 44, 0
5, 19374, Note_on_c, 9, 44, 61
5, 19383, Note_on_c, 9, 44, 0
5, 19497, Note_on_c, 9, 44, 71
5, 19507, Note_on_c, 9, 44, 0
5, 19613, Note_on_c, 9, 46, 71
5, 19624, Note_on_c, 9, 46, 0
5, 19739, Note_on_c, 9, 44, 60
5, 19749, Note_on_c, 9, 44, 0
5, 20058, Note_on_c, 9, 44, 76
5, 20066, Note_on_c, 9, 44, 0
5, 20287, Note_on_c, 9, 44, 69
5, 20296, Note_on_c, 9, 44, 0
5, 20580, Note_on_c, 9, 46, 62
5, 20588, Note_on_c, 9, 46, 0
5, 20700, Note_on_c, 9, 44, 70
5, 20711, Note_on_c, 9, 44, 0
5, 20942, Note_on_c, 9, 44, 65
5, 20951, Note_on_c, 9, 44, 0
5, 21056, Note_on_c, 9, 46, 65
5, 21066, Note_on_c, 9, 46, 0
5, 21299, Note_on_c, 9, 44, 64
5, 21309, Note_on_c, 9, 44, 0
5, 21413, Note_on_c, 9, 44, 60
5, 21423, Note_on_c, 9, 44, 0
5, 21638, Note_on_c, 9, 44, 53
5, 21643, Note_on_c, 9, 44, 0
5, 21695, Note_on_c, 9, 44, 56
5, 21702, Note_on_c, 9, 44, 0
5, 21756, Note_on_c, 9, 44, 55
5, 21764, Note_on_c, 9, 44, 0
5, 21898, Note_on_c, 9, 44, 59
5, 21907, Note_on_c, 9, 44, 0
5, 21997, Note_on_c, 9, 44, 56
5, 22002, Note_on_c, 9, 44, 0
5, 22057, Note_on_c, 9, 46, 62
5, 22064, Note_on_c, 9, 46, 0
5, 22114, Note_on_c, 9, 44, 60
5, 22119, Note_on_c, 9, 44, 0
5, 22178, Note_on_c, 9, 46, 58
5, 22184, Note_on_c, 9, 46, 0
5, 22423, Note_on_c, 9, 44, 60
5, 22428, Note_on_c, 9, 44, 0
5, 22549, Note_on_c, 9, 44, 34
5, 22553, Note_on_c, 9, 44, 0
5, 22742, Note_on_c, 9, 44, 55
5, 22752, Note_on_c, 9, 44, 0
5, 22917, Note_on_c, 9, 44, 81
5, 22927, Note_on_c, 9, 44, 0
5, 23159, Note_on_c, 9, 44, 80
5, 23170, Note_on_c, 9, 44, 0
5, 23400, Note_on_c, 9, 44, 86
5, 23409, Note_on_c, 9, 44, 0
5, 23560, Note_on_c, 9, 44, 45
5, 23564, Note_on_c, 9, 44, 0
5, 23619, Note_on_c, 9, 44, 64
5, 23625, Note_on_c, 9, 44, 0
5, 23675, Note_on_c, 9, 44, 74
5, 23682, Note_on_c, 9, 44, 0
5, 23734, Note_on_c, 9, 44, 81
5, 23743, Note_on_c, 9, 44, 0
5, 23796, Note_on_c, 9, 44, 69
5, 23804, Note_on_c, 9, 44, 0
5, 23854, Note_on_c, 9, 46, 69
5, 23862, Note_on_c, 9, 46, 0
5, 23916, Note_on_c, 9, 46, 68
5, 23924, Note_on_c, 9, 46, 0
5, 24158, Note_on_c, 9, 44, 62
5, 24163, Note_on_c, 9, 44, 0
5, 24217, Note_on_c, 9, 44, 64
5, 24224, Note_on_c, 9, 44, 0
5, 24275, Note_on_c, 9, 44, 62
5, 24283, Note_on_c, 9, 44, 0
5, 24332, Note_on_c, 9, 44, 60
5, 24340, Note_on_c, 9, 44, 0
5, 24395, Note_on_c, 9, 46, 62
5, 24399, Note_on_c, 9, 46, 0
5, 24601, Note_on_c, 9, 44, 51
5, 24606, Note_on_c, 9, 44, 0
5, 24843, Note_on_c, 9, 44, 70
5, 24852, Note_on_c, 9, 44, 0
5, 25028, Note_on_c, 9, 44, 64
5, 25036, Note_on_c, 9, 44, 0
5, 25261, Note_on_c, 9, 44, 65
5, 25271, Note_on_c, 9, 44, 0
5, 25562, Note_on_c, 9, 44, 74
5, 25572, Note_on_c, 9, 44, 0
5, 25804, Note_on_c, 9, 44, 63
5, 25814, Note_on_c, 9, 44, 0
5, 26043, Note_on_c, 9, 44, 62
5, 26052, Note_on_c, 9, 44, 0
5, 26205, Note_on_c, 9, 44, 60
5, 26210, Note_on_c, 9, 44, 0
5, 26319, Note_on_c, 9, 44, 64
5, 26327, Note_on_c, 9, 44, 0
5, 26381, Note_on_c, 9, 44, 61
5, 26388, Note_on_c, 9, 44, 0
5, 26438, Note_on_c, 9, 44, 62
5, 26446, Note_on_c, 9, 44, 0
5, 26498, Note_on_c, 9, 44, 57
5, 26505, Note_on_c, 9, 44, 0
5, 26791, Note_on_c, 9, 44, 33
5, 26803, Note_on_c, 9, 44, 0
5, 26931, Note_on_c, 9, 44, 48
5, 26937, Note_on_c, 9, 44, 0
5, 26952, Note_on_c, 9, 44, 61
5, 26961, Note_on_c, 9, 44, 0
5, 26972, Note_on_c, 9, 46, 67
5, 26981, Note_on_c, 9, 46, 0
5, 27022, Note_on_c, 9, 44, 40
5, 27027, Note_on_c, 9, 44, 0
5, 27041, Note_on_c, 9, 44, 47
5, 27046, Note_on_c, 9, 44, 0
5, 27063, Note_on_c, 9, 46, 59
5, 27073, Note_on_c, 9, 46, 0
5, 27668, Note_on_c, 9, 44, 83
5, 27676, Note_on_c, 9, 44, 0
5, 27782, Note_on_c, 9, 44, 63
5, 27790, Note_on_c, 9, 44, 0
5, 27963, Note_on_c, 9, 44, 84
5, 27972, Note_on_c, 9, 44, 0
5, 28103, Note_on_c, 9, 44, 57
5, 28108, Note_on_c, 9, 44, 0
5, 28122, Note_on_c, 9, 44, 48
5, 28128, Note_on_c, 9, 44, 0
5, 28145, Note_on_c, 9, 46, 53
5, 28162, Note_on_c, 9, 46, 0
5, 28202, Note_on_c, 9, 44, 31
5, 28206, Note_on_c, 9, 44, 0
5, 28225, Note_on_c, 9, 44, 28
5, 28230, Note_on_c, 9, 44, 0
5, 28242, Note_on_c, 9, 46, 69
5, 28259, Note_on_c, 9, 46, 0
5, 28307, Note_on_c, 9, 44, 47
5, 28312, Note_on_c, 9, 44, 0
5, 28497, Note_on_c, 9, 44, 64
5, 28505, Note_on_c, 9, 44, 0
5, 28675, Note_on_c, 9, 44, 74
5, 28685, Note_on_c, 9, 44, 0
5, 28866, Note_on_c, 9, 44, 71
5, 28876, Note_on_c, 9, 44, 0
5, 29121, Note_on_c, 9, 44, 46
5, 29127, Note_on_c, 9, 44, 0
5, 29141, Note_on_c, 9, 46, 56
5, 29151, Note_on_c, 9, 46, 0
5, 29258, Note_on_c, 9, 44, 47
5, 29263, Note_on_c, 9, 44, 0
5, 29280, Note_on_c, 9, 44, 38
5, 29285, Note_on_c, 9, 44, 0
5, 29459, Note_on_c, 9, 44, 56
5, 29467, Note_on_c, 9, 44, 0
5, 29639, Note_on_c, 9, 44, 59
5, 29648, Note_on_c, 9, 44, 0
5, 29882, Note_on_c, 9, 44, 57
5, 29886, Note_on_c, 9, 44, 0
5, 29939, Note_on_c, 9, 46, 67
5, 29947, Note_on_c, 9, 46, 0
5, 30224, Note_on_c, 9, 44, 73
5, 30228, Note_on_c, 9, 44, 0
5, 30243, Note_on_c, 9, 44, 73
5, 30248, Note_on_c, 9, 44, 0
5, 30361, Note_on_c, 9, 46, 69
5, 30371, Note_on_c, 9, 46, 0
5, 30602, Note_on_c, 9, 46, 53
5, 30611, Note_on_c, 9, 46, 0
5, 30848, Note_on_c, 9, 46, 32
5, 30853, Note_on_c, 9, 46, 0
5, 31024, Note_on_c, 9, 44, 17
5, 31036, Note_on_c, 9, 44, 0
5, 31145, Note_on_c, 9, 44, 5
5, 31156, Note_on_c, 9, 44, 0
5, 31156, End_track
6, 0, Start_track
6, 0, Title_t, "drums"
6, 584, Note_on_c, 9, 38, 37
6, 590, Note_on_c, 9, 38, 0
6, 608, Note_on_c, 9, 38, 36
6, 618, Note_on_c, 9, 38, 0
6, 949, Note_on_c, 9, 38, 41
6, 962, Note_on_c, 9, 38, 0
6, 974, Note_on_c, 9, 36, 23
6, 994, Note_on_c, 9, 36, 0
6, 1010, Note_on_c, 9, 36, 38
6, 1024, Note_on_c, 9, 36, 0
6, 1276, Note_on_c, 9, 39, 34
6, 1286, Note_on_c, 9, 39, 0
6, 1296, Note_on_c, 9, 39, 27
6, 1302, Note_on_c, 9, 39, 0
6, 1358, Note_on_c, 9, 39, 51
6, 1367, Note_on_c, 9, 39, 0
6, 1375, Note_on_c, 9, 39, 55
6, 1386, Note_on_c, 9, 39, 0
6, 1418, Note_on_c, 9, 39, 45
6, 1426, Note_on_c, 9, 39, 0
6, 1436, Note_on_c, 9, 39, 40
6, 1445, Note_on_c, 9, 39, 0
6, 1458, Note_on_c, 9, 36, 31
6, 1472, Note_on_c, 9, 36, 0
6, 2050, Note_on_c, 9, 38, 35
6, 2056, Note_on_c, 9, 38, 0
6, 2178, Note_on_c, 9, 38, 34
6, 2190, Note_on_c, 9, 38, 0
6, 2215, Note_on_c, 9, 38, 74
6, 2224, Note_on_c, 9, 38, 0
6, 2243, Note_on_c, 9, 36, 27
6, 2271, Note_on_c, 9, 36, 0
6, 2389, Note_on_c, 9, 38, 72
6, 2398, Note_on_c, 9, 38, 0
6, 2414, Note_on_c, 9, 36, 26
6, 2443, Note_on_c, 9, 36, 0
6, 2460, Note_on_c, 9, 36, 27
6, 2471, Note_on_c, 9, 36, 0
6, 2533, Note_on_c, 9, 36, 22
6, 2540, Note_on_c, 9, 36, 0
6, 2870, Note_on_c, 9, 39, 59
6, 2875, Note_on_c, 9, 39, 0
6, 3246, Note_on_c, 9, 39, 45
6, 3257, Note_on_c, 9, 39, 0
6, 3280, Note_on_c, 9, 39, 54
6, 3289, Note_on_c, 9, 39, 0
6, 3313, Note_on_c, 9, 38, 46
6, 3320, Note_on_c, 9, 39, 43
6, 3321, Note_on_c, 9, 38, 0
6, 3333, Note_on_c, 9, 39, 0
6, 3348, Note_on_c, 9, 39, 57
6, 3357, Note_on_c, 9, 39, 0
6, 3375, Note_on_c, 9, 36, 20
6, 3386, Note_on_c, 9, 36, 0
6, 3409, Note_on_c, 9, 36, 26
6, 3415, Note_on_c, 9, 36, 0
6, 4026, Note_on_c, 9, 39, 46
6, 4030, Note_on_c, 9, 39, 0
6, 4069, Note_on_c, 9, 36, 18
6, 4073, Note_on_c, 9, 36, 0
6, 4126, Note_on_c, 9, 39, 47
6, 4130, Note_on_c, 9, 39, 0
6, 4151, Note_on_c, 9, 39, 37
6, 4156, Note_on_c, 9, 39, 0
6, 4191, Note_on_c, 9, 36, 30
6, 4196, Note_on_c, 9, 36, 0
6, 4248, Note_on_c, 9, 39, 54
6, 4254, Note_on_c, 9, 39, 0
6, 4269, Note_on_c, 9, 39, 53
6, 4278, Note_on_c, 9, 39, 0
6, 4307, Note_on_c, 9, 36, 22
6, 4311, Note_on_c, 9, 36, 0
6, 4704, Note_on_c, 9, 39, 26
6, 4711, Note_on_c, 9, 39, 0
6, 4715, Note_on_c, 9, 38, 40
6, 4726, Note_on_c, 9, 38, 0
6, 4727, Note_on_c, 9, 39, 47
6, 4738, Note_on_c, 9, 39, 0
6, 4740, Note_on_c, 9, 38, 45
6, 4746, Note_on_c, 9, 38, 0
6, 4785, Note_on_c, 9, 36, 26
6, 4792, Note_on_c, 9, 36, 0
6, 4806, Note_on_c, 9, 36, 31
6, 4826, Note_on_c, 9, 36, 0
6, 5164, Note_on_c, 9, 38, 41
6, 5177, Note_on_c, 9, 38, 0
6, 5182, Note_on_c, 9, 39, 39
6, 5198, Note_on_c, 9, 39, 0
6, 5203, Note_on_c, 9, 38, 59
6, 5215, Note_on_c, 9, 38, 0
6, 5257, Note_on_c, 9, 36, 28
6, 5269, Note_on_c, 9, 36, 0
6, 5281, Note_on_c, 9, 36, 27
6, 5293, Note_on_c, 9, 36, 0
6, 5686, Note_on_c, 9, 39, 77
6, 5694, Note_on_c, 9, 39, 0
6, 5709, Note_on_c, 9, 39, 64
6, 5717, Note_on_c, 9, 39, 0
6, 5745, Note_on_c, 9, 36, 27
6, 5752, Note_on_c, 9, 36, 0
6, 5768, Note_on_c, 9, 36, 28
6, 5790, Note_on_c, 9, 36, 0
6, 6041, Note_on_c, 9, 39, 53
6, 6045, Note_on_c, 9, 39, 0
6, 6123, Note_on_c, 9, 39, 58
6, 6128, Note_on_c, 9, 39, 0
6, 6159, Note_on_c, 9, 39, 71
6, 6166, Note_on_c, 9, 39, 0
6, 6183, Note_on_c, 9, 36, 32
6, 6196, Note_on_c, 9, 36, 0
6, 6219, Note_on_c, 9, 36, 31
6, 6224, Note_on_c, 9, 36, 0
6, 6336, Note_on_c, 9, 36, 26
6, 6342, Note_on_c, 9, 36, 0
6, 6824, Note_on_c, 9, 39, 43
6, 6834, Note_on_c, 9, 39, 0
6, 6847, Note_on_c, 9, 46, 47
6, 6850, Note_on_c, 9, 36, 25
6, 6852, Note_on_c, 9, 46, 0
6, 6860, Note_on_c, 9, 36, 0
6, 7000, Note_on_c, 9, 39, 49
6, 7009, Note_on_c, 9, 39, 0
6, 7021, Note_on_c, 9, 46, 40
6, 7024, Note_on_c, 9, 36, 31
6, 7034, Note_on_c, 9, 46, 0
6, 7039, Note_on_c, 9, 36, 0
6, 7342, Note_on_c, 9, 38, 53
6, 7347, Note_on_c, 9, 38, 0
6, 7362, Note_on_c, 9, 38, 47
6, 7367, Note_on_c, 9, 38, 0
6, 7384, Note_on_c, 9, 36, 26
6, 7392, Note_on_c, 9, 36, 0
6, 7435, Note_on_c, 9, 38, 43
6, 7442, Note_on_c, 9, 38, 0
6, 7454, Note_on_c, 9, 38, 49
6, 7461, Note_on_c, 9, 38, 0
6, 7598, Note_on_c, 9, 38, 45
6, 7603, Note_on_c, 9, 38, 0
6, 7622, Note_on_c, 9, 38, 36
6, 7627, Note_on_c, 9, 38, 0
6, 7660, Note_on_c, 9, 38, 55
6, 7664, Note_on_c, 9, 38, 0
6, 7742, Note_on_c, 9, 38, 31
6, 7747, Note_on_c, 9, 38, 0
6, 7782, Note_on_c, 9, 38, 29
6, 7787, Note_on_c, 9, 38, 0
6, 7840, Note_on_c, 9, 39, 57
6, 7852, Note_on_c, 9, 39, 0
6, 7864, Note_on_c, 9, 38, 37
6, 7871, Note_on_c, 9, 38, 0
6, 7986, Note_on_c, 9, 39, 28
6, 7991, Note_on_c, 9, 39, 0
6, 8023, Note_on_c, 9, 39, 55
6, 8027, Note_on_c, 9, 39, 0
6, 8049, Note_on_c, 9, 39, 54
6, 8054, Note_on_c, 9, 39, 0
6, 8085, Note_on_c, 9, 38, 56
6, 8093, Note_on_c, 9, 38, 0
6, 8114, Note_on_c, 9, 38, 29
6, 8118, Note_on_c, 9, 38, 0
6, 8165, Note_on_c, 9, 46, 35
6, 8169, Note_on_c, 9, 36, 42
6, 8171, Note_on_c, 9, 46, 0
6, 8179, Note_on_c, 9, 36, 0
6, 8539, Note_on_c, 9, 36, 33
6, 8545, Note_on_c, 9, 36, 0
6, 8558, Note_on_c, 9, 36, 28
6, 8563, Note_on_c, 9, 36, 0
6, 8586, Note_on_c, 9, 36, 41
6, 8590, Note_on_c, 9, 36, 0
6, 8825, Note_on_c, 9, 39, 56
6, 8836, Note_on_c, 9, 39, 0
6, 8844, Note_on_c, 9, 39, 59
6, 8856, Note_on_c, 9, 39, 0
6, 9010, Note_on_c, 9, 39, 54
6, 9020, Note_on_c, 9, 39, 0
6, 9029, Note_on_c, 9, 39, 47
6, 9042, Note_on_c, 9, 39, 0
6, 9053, Note_on_c, 9, 36, 40
6, 9061, Note_on_c, 9, 36, 0
6, 9072, Note_on_c, 9, 39, 45
6, 9078, Note_on_c, 9, 39, 0
6, 9090, Note_on_c, 9, 39, 42
6, 9100, Note_on_c, 9, 39, 0
6, 9113, Note_on_c, 9, 36, 35
6, 9118, Note_on_c, 9, 36, 0
6, 9132, Note_on_c, 9, 39, 42
6, 9144, Note_on_c, 9, 39, 0
6, 9225, Note_on_c, 9, 36, 30
6, 9232, Note_on_c, 9, 36, 0
6, 9249, Note_on_c, 9, 36, 23
6, 9256, Note_on_c, 9, 36, 0
6, 9845, Note_on_c, 9, 39, 52
6, 9858, Note_on_c, 9, 39, 0
6, 9875, Note_on_c, 9, 39, 52
6, 9889, Note_on_c, 9, 39, 0
6, 9911, Note_on_c, 9, 36, 15
6, 9921, Note_on_c, 9, 36, 0
6, 9936, Note_on_c, 9, 39, 44
6, 9952, Note_on_c, 9, 39, 0
6, 9965, Note_on_c, 9, 39, 37
6, 9983, Note_on_c, 9, 39, 0
6, 9997, Note_on_c, 9, 36, 23
6, 10004, Note_on_c, 9, 36, 0
6, 10021, Note_on_c, 9, 36, 26
6, 10033, Note_on_c, 9, 36, 0
6, 10054, Note_on_c, 9, 36, 33
6, 10060, Note_on_c, 9, 36, 0
6, 10084, Note_on_c, 9, 36, 40
6, 10105, Note_on_c, 9, 36, 0
6, 10301, Note_on_c, 9, 39, 30
6, 10312, Note_on_c, 9, 39, 0
6, 10325, Note_on_c, 9, 36, 38
6, 10375, Note_on_c, 9, 36, 0
6, 10561, Note_on_c, 9, 51, 42
6, 10563, Note_on_c, 9, 36, 31
6, 10568, Note_on_c, 9, 51, 0
6, 10569, Note_on_c, 9, 36, 0
6, 10781, Note_on_c, 9, 36, 33
6, 10787, Note_on_c, 9, 36, 0
6, 10803, Note_on_c, 9, 36, 33
6, 10827, Note_on_c, 9, 36, 0
6, 10962, Note_on_c, 9, 38, 55
6, 10966, Note_on_c, 9, 38, 0
6, 10986, Note_on_c, 9, 38, 50
6, 10991, Note_on_c, 9, 38, 0
6, 11023, Note_on_c, 9, 38, 80
6, 11030, Note_on_c, 9, 38, 0
6, 11092, Note_on_c, 9, 38, 25
6, 11097, Note_on_c, 9, 38, 0
6, 11112, Note_on_c, 9, 38, 38
6, 11117, Note_on_c, 9, 38, 0
6, 11144, Note_on_c, 9, 38, 84
6, 11155, Note_on_c, 9, 38, 0
6, 11199, Note_on_c, 9, 36, 20
6, 11203, Note_on_c, 9, 36, 0
6, 11223, Note_on_c, 9, 38, 36
6, 11229, Note_on_c, 9, 38, 0
6, 11258, Note_on_c, 9, 38, 50
6, 11263, Note_on_c, 9, 38, 0
6, 11404, Note_on_c, 9, 38, 48
6, 11417, Note_on_c, 9, 38, 0
6, 11421, Note_on_c, 9, 39, 56
6, 11431, Note_on_c, 9, 39, 0
6, 11441, Note_on_c, 9, 39, 52
6, 11457, Note_on_c, 9, 39, 0
6, 11483, Note_on_c, 9, 38, 42
6, 11497, Note_on_c, 9, 38, 0
6, 11502, Note_on_c, 9, 39, 62
6, 11516, Note_on_c, 9, 39, 0
6, 11525, Note_on_c, 9, 38, 36
6, 11530, Note_on_c, 9, 38, 0
6, 11706, Note_on_c, 9, 38, 50
6, 11720, Note_on_c, 9, 38, 0
6, 11725, Note_on_c, 9, 39, 45
6, 11731, Note_on_c, 9, 39, 0
6, 12017, Note_on_c, 9, 36, 18
6, 12022, Note_on_c, 9, 36, 0
6, 12106, Note_on_c, 9, 36, 26
6, 12113, Note_on_c, 9, 36, 0
6, 12127, Note_on_c, 9, 36, 36
6, 12142, Note_on_c, 9, 36, 0
6, 12465, Note_on_c, 9, 39, 60
6, 12469, Note_on_c, 9, 39, 0
6, 12491, Note_on_c, 9, 36, 18
6, 12504, Note_on_c, 9, 36, 0
6, 12945, Note_on_c, 9, 38, 50
6, 12949, Note_on_c, 9, 38, 0
6, 12968, Note_on_c, 9, 38, 28
6, 12974, Note_on_c, 9, 38, 0
6, 13119, Note_on_c, 9, 38, 47
6, 13128, Note_on_c, 9, 38, 0
6, 13143, Note_on_c, 9, 36, 26
6, 13170, Note_on_c, 9, 36, 0
6, 13183, Note_on_c, 9, 36, 30
6, 13188, Note_on_c, 9, 36, 0
6, 13664, Note_on_c, 9, 38, 40
6, 13671, Note_on_c, 9, 38, 0
6, 13685, Note_on_c, 9, 36, 35
6, 13687, Note_on_c, 9, 57, 27
6, 13693, Note_on_c, 9, 57, 0
6, 13695, Note_on_c, 9, 36, 0
6, 13899, Note_on_c, 9, 38, 31
6, 13906, Note_on_c, 9, 38, 0
6, 13922, Note_on_c, 9, 36, 20
6, 13938, Note_on_c, 9, 36, 0
6, 13962, Note_on_c, 9, 36, 36
6, 13968, Note_on_c, 9, 36, 0
6, 14277, Note_on_c, 9, 38, 42
6, 14288, Note_on_c, 9, 38, 0
6, 14298, Note_on_c, 9, 38, 47
6, 14305, Note_on_c, 9, 38, 0
6, 14381, Note_on_c, 9, 38, 35
6, 14386, Note_on_c, 9, 38, 0
6, 14402, Note_on_c, 9, 38, 38
6, 14414, Note_on_c, 9, 38, 0
6, 14742, Note_on_c, 9, 39, 68
6, 14751, Note_on_c, 9, 39, 0
6, 14765, Note_on_c, 9, 39, 74
6, 14780, Note_on_c, 9, 39, 0
6, 14801, Note_on_c, 9, 36, 35
6, 14806, Note_on_c, 9, 36, 0
6, 15040, Note_on_c, 9, 39, 48
6, 15045, Note_on_c, 9, 39, 0
6, 15223, Note_on_c, 9, 36, 20
6, 15227, Note_on_c, 9, 36, 0
6, 15252, Note_on_c, 9, 38, 11
6, 15260, Note_on_c, 9, 38, 0
6, 15265, Note_on_c, 9, 39, 59
6, 15280, Note_on_c, 9, 39, 0
6, 15285, Note_on_c, 9, 38, 68
6, 15295, Note_on_c, 9, 38, 0
6, 15311, Note_on_c, 9, 36, 17
6, 15318, Note_on_c, 9, 36, 0
6, 15426, Note_on_c, 9, 38, 30
6, 15435, Note_on_c, 9, 38, 0
6, 15445, Note_on_c, 9, 39, 51
6, 15459, Note_on_c, 9, 39, 0
6, 15465, Note_on_c, 9, 38, 68
6, 15473, Note_on_c, 9, 38, 0
6, 15544, Note_on_c, 9, 38, 34
6, 15557, Note_on_c, 9, 38, 0
6, 15564, Note_on_c, 9, 39, 45
6, 15576, Note_on_c, 9, 39, 0
6, 15583, Note_on_c, 9, 38, 61
6, 15591, Note_on_c, 9, 38, 0
6, 15815, Note_on_c, 9, 35, 38
6, 15826, Note_on_c, 9, 35, 0
6, 16059, Note_on_c, 9, 36, 27
6, 16065, Note_on_c, 9, 36, 0
6, 16083, Note_on_c, 9, 36, 12
6, 16088, Note_on_c, 9, 36, 0
6, 16296, Note_on_c, 9, 38, 55
6, 16302, Note_on_c, 9, 38, 0
6, 16317, Note_on_c, 9, 38, 48
6, 16330, Note_on_c, 9, 38, 0
6, 16416, Note_on_c, 9, 38, 69
6, 16424, Note_on_c, 9, 38, 0
6, 16438, Note_on_c, 9, 38, 35
6, 16461, Note_on_c, 9, 38, 0
6, 16477, Note_on_c, 9, 36, 27
6, 16483, Note_on_c, 9, 36, 0
6, 16533, Note_on_c, 9, 38, 64
6, 16542, Note_on_c, 9, 38, 0
6, 16555, Note_on_c, 9, 38, 48
6, 16564, Note_on_c, 9, 38, 0
6, 16596, Note_on_c, 9, 36, 27
6, 16602, Note_on_c, 9, 36, 0
6, 16654, Note_on_c, 9, 38, 40
6, 16659, Note_on_c, 9, 38, 0
6, 16673, Note_on_c, 9, 38, 54
6, 16681, Note_on_c, 9, 38, 0
6, 16739, Note_on_c, 9, 45, 69
6, 16743, Note_on_c, 9, 45, 0
6, 16776, Note_on_c, 9, 38, 65
6, 16780, Note_on_c, 9, 38, 0
6, 16809, Note_on_c, 9, 36, 16
6, 16813, Note_on_c, 9, 36, 0
6, 16843, Note_on_c, 9, 36, 20
6, 16847, Note_on_c, 9, 36, 0
6, 17167, Note_on_c, 9, 43, 45
6, 17172, Note_on_c, 9, 43, 0
6, 17182, Note_on_c, 9, 43, 53
6, 17190, Note_on_c, 9, 43, 0
6, 17210, Note_on_c, 9, 36, 20
6, 17214, Note_on_c, 9, 36, 0
6, 17454, Note_on_c, 9, 39, 35
6, 17460, Note_on_c, 9, 39, 0
6, 17491, Note_on_c, 9, 39, 78
6, 17504, Note_on_c, 9, 39, 0
6, 17513, Note_on_c, 9, 36, 26
6, 17522, Note_on_c, 9, 36, 0
6, 17639, Note_on_c, 9, 38, 40
6, 17644, Note_on_c, 9, 38, 0
6, 17675, Note_on_c, 9, 38, 73
6, 17684, Note_on_c, 9, 38, 0
6, 17695, Note_on_c, 9, 38, 46
6, 17701, Note_on_c, 9, 38, 0
6, 17713, Note_on_c, 9, 38, 52
6, 17720, Note_on_c, 9, 38, 0
6, 17736, Note_on_c, 9, 36, 43
6, 17746, Note_on_c, 9, 36, 0
6, 17895, Note_on_c, 9, 38, 55
6, 17900, Note_on_c, 9, 38, 0
6, 17912, Note_on_c, 9, 38, 64
6, 17916, Note_on_c, 9, 38, 0
6, 18096, Note_on_c, 9, 36, 27
6, 18101, Note_on_c, 9, 36, 0
6, 18140, Note_on_c, 9, 39, 55
6, 18154, Note_on_c, 9, 39, 0
6, 18159, Note_on_c, 9, 38, 45
6, 18164, Note_on_c, 9, 38, 0
6, 18181, Note_on_c, 9, 39, 32
6, 18190, Note_on_c, 9, 39, 0
6, 18220, Note_on_c, 9, 39, 62
6, 18228, Note_on_c, 9, 39, 0
6, 18426, Note_on_c, 9, 38, 37
6, 18439, Note_on_c, 9, 38, 0
6, 18445, Note_on_c, 9, 39, 58
6, 18459, Note_on_c, 9, 39, 0
6, 18463, Note_on_c, 9, 38, 65
6, 18475, Note_on_c, 9, 38, 0
6, 18537, Note_on_c, 9, 38, 39
6, 18548, Note_on_c, 9, 38, 0
6, 18555, Note_on_c, 9, 39, 51
6, 18568, Note_on_c, 9, 39, 0
6, 18576, Note_on_c, 9, 38, 55
6, 18580, Note_on_c, 9, 38, 0
6, 18648, Note_on_c, 9, 38, 36
6, 18655, Note_on_c, 9, 38, 0
6, 18669, Note_on_c, 9, 39, 55
6, 18685, Note_on_c, 9, 39, 0
6, 18690, Note_on_c, 9, 38, 68
6, 18694, Note_on_c, 9, 38, 0
6, 18750, Note_on_c, 9, 36, 23
6, 18754, Note_on_c, 9, 36, 0
6, 18777, Note_on_c, 9, 38, 36
6, 18788, Note_on_c, 9, 38, 0
6, 18800, Note_on_c, 9, 39, 57
6, 18814, Note_on_c, 9, 39, 0
6, 18820, Note_on_c, 9, 38, 57
6, 18829, Note_on_c, 9, 38, 0
6, 18869, Note_on_c, 9, 36, 26
6, 18875, Note_on_c, 9, 36, 0
6, 18894, Note_on_c, 9, 38, 45
6, 18902, Note_on_c, 9, 38, 0
6, 18916, Note_on_c, 9, 39, 64
6, 18932, Note_on_c, 9, 39, 0
6, 18935, Note_on_c, 9, 38, 71
6, 18943, Note_on_c, 9, 38, 0
6, 19183, Note_on_c, 9, 36, 26
6, 19189, Note_on_c, 9, 36, 0
6, 19205, Note_on_c, 9, 36, 22
6, 19216, Note_on_c, 9, 36, 0
6, 19446, Note_on_c, 9, 38, 39
6, 19453, Note_on_c, 9, 38, 0
6, 19460, Note_on_c, 9, 38, 44
6, 19471, Note_on_c, 9, 38, 0
6, 19479, Note_on_c, 9, 38, 71
6, 19488, Note_on_c, 9, 38, 0
6, 19497, Note_on_c, 9, 38, 74
6, 19510, Note_on_c, 9, 38, 0
6, 19596, Note_on_c, 9, 36, 32
6, 19601, Note_on_c, 9, 36, 0
6, 19616, Note_on_c, 9, 38, 39
6, 19623, Note_on_c, 9, 38, 0
6, 19634, Note_on_c, 9, 38, 50
6, 19646, Note_on_c, 9, 38, 0
6, 19653, Note_on_c, 9, 38, 80
6, 19666, Note_on_c, 9, 38, 0
6, 19677, Note_on_c, 9, 36, 37
6, 19690, Note_on_c, 9, 36, 0
6, 19862, Note_on_c, 9, 38, 33
6, 19869, Note_on_c, 9, 38, 0
6, 19878, Note_on_c, 9, 39, 35
6, 19894, Note_on_c, 9, 39, 0
6, 19900, Note_on_c, 9, 38, 54
6, 19904, Note_on_c, 9, 40, 28
6, 19908, Note_on_c, 9, 40, 0
6, 19917, Note_on_c, 9, 38, 0
6, 19988, Note_on_c, 9, 39, 49
6, 20004, Note_on_c, 9, 39, 0
6, 20010, Note_on_c, 9, 38, 48
6, 20015, Note_on_c, 9, 38, 0
6, 20033, Note_on_c, 9, 36, 32
6, 20039, Note_on_c, 9, 36, 0
6, 20560, Note_on_c, 9, 38, 52
6, 20566, Note_on_c, 9, 38, 0
6, 20585, Note_on_c, 9, 38, 43
6, 20589, Note_on_c, 9, 38, 0
6, 20624, Note_on_c, 9, 36, 28
6, 20630, Note_on_c, 9, 36, 0
6, 20646, Note_on_c, 9, 36, 28
6, 20655, Note_on_c, 9, 36, 0
6, 20885, Note_on_c, 9, 38, 27
6, 20893, Note_on_c, 9, 38, 0
6, 20985, Note_on_c, 9, 36, 20
6, 20989, Note_on_c, 9, 36, 0
6, 21338, Note_on_c, 9, 38, 46
6, 21342, Note_on_c, 9, 38, 0
6, 21461, Note_on_c, 9, 36, 26
6, 21467, Note_on_c, 9, 36, 0
6, 21485, Note_on_c, 9, 36, 18
6, 21492, Note_on_c, 9, 36, 0
6, 21576, Note_on_c, 9, 38, 31
6, 21581, Note_on_c, 9, 38, 0
6, 22058, Note_on_c, 9, 39, 57
6, 22065, Note_on_c, 9, 39, 0
6, 22083, Note_on_c, 9, 36, 20
6, 22091, Note_on_c, 9, 36, 0
6, 22118, Note_on_c, 9, 39, 59
6, 22126, Note_on_c, 9, 39, 0
6, 22144, Note_on_c, 9, 36, 17
6, 22150, Note_on_c, 9, 36, 0
6, 22176, Note_on_c, 9, 39, 55
6, 22182, Note_on_c, 9, 39, 0
6, 22489, Note_on_c, 9, 39, 46
6, 22494, Note_on_c, 9, 39, 0
6, 22514, Note_on_c, 9, 39, 47
6, 22518, Note_on_c, 9, 39, 0
6, 22551, Note_on_c, 9, 36, 31
6, 22558, Note_on_c, 9, 36, 0
6, 22573, Note_on_c, 9, 36, 31
6, 22580, Note_on_c, 9, 36, 0
6, 23359, Note_on_c, 9, 38, 32
6, 23366, Note_on_c, 9, 38, 0
6, 23377, Note_on_c, 9, 38, 45
6, 23382, Note_on_c, 9, 38, 0
6, 23433, Note_on_c, 9, 38, 46
6, 23438, Note_on_c, 9, 38, 0
6, 23449, Note_on_c, 9, 38, 50
6, 23454, Note_on_c, 9, 38, 0
6, 23496, Note_on_c, 9, 38, 51
6, 23501, Note_on_c, 9, 38, 0
6, 23617, Note_on_c, 9, 38, 55
6, 23621, Note_on_c, 9, 38, 0
6, 23640, Note_on_c, 9, 38, 34
6, 23646, Note_on_c, 9, 38, 0
6, 23679, Note_on_c, 9, 36, 20
6, 23683, Note_on_c, 9, 36, 0
6, 23705, Note_on_c, 9, 38, 32
6, 23710, Note_on_c, 9, 38, 0
6, 23736, Note_on_c, 9, 38, 66
6, 23743, Note_on_c, 9, 38, 0
6, 23759, Note_on_c, 9, 38, 66
6, 23764, Note_on_c, 9, 38, 0
6, 23799, Note_on_c, 9, 36, 27
6, 23804, Note_on_c, 9, 36, 0
6, 23859, Note_on_c, 9, 38, 66
6, 23864, Note_on_c, 9, 38, 0
6, 23881, Note_on_c, 9, 38, 56
6, 23885, Note_on_c, 9, 38, 0
6, 23918, Note_on_c, 9, 36, 35
6, 23922, Note_on_c, 9, 36, 0
6, 23945, Note_on_c, 9, 38, 38
6, 23950, Note_on_c, 9, 38, 0
6, 24039, Note_on_c, 9, 36, 33
6, 24044, Note_on_c, 9, 36, 0
6, 24063, Note_on_c, 9, 38, 24
6, 24067, Note_on_c, 9, 38, 0
6, 24098, Note_on_c, 9, 38, 45
6, 24103, Note_on_c, 9, 38, 0
6, 24164, Note_on_c, 9, 36, 20
6, 24168, Note_on_c, 9, 36, 0
6, 24219, Note_on_c, 9, 38, 74
6, 24226, Note_on_c, 9, 38, 0
6, 24241, Note_on_c, 9, 38, 66
6, 24248, Note_on_c, 9, 38, 0
6, 24275, Note_on_c, 9, 36, 43
6, 24279, Note_on_c, 9, 36, 0
6, 24301, Note_on_c, 9, 38, 36
6, 24306, Note_on_c, 9, 38, 0
6, 24331, Note_on_c, 9, 39, 71
6, 24342, Note_on_c, 9, 39, 0
6, 24393, Note_on_c, 9, 36, 32
6, 24397, Note_on_c, 9, 36, 0
6, 24418, Note_on_c, 9, 38, 24
6, 24422, Note_on_c, 9, 38, 0
6, 24581, Note_on_c, 9, 36, 18
6, 24585, Note_on_c, 9, 36, 0
6, 24639, Note_on_c, 9, 38, 47
6, 24642, Note_on_c, 9, 40, 24
6, 24644, Note_on_c, 9, 38, 0
6, 24646, Note_on_c, 9, 40, 0
6, 24684, Note_on_c, 9, 39, 59
6, 24691, Note_on_c, 9, 39, 0
6, 24702, Note_on_c, 9, 39, 58
6, 24716, Note_on_c, 9, 39, 0
6, 24722, Note_on_c, 9, 38, 45
6, 24728, Note_on_c, 9, 38, 0
6, 24762, Note_on_c, 9, 36, 22
6, 24766, Note_on_c, 9, 36, 0
6, 24779, Note_on_c, 9, 39, 64
6, 24785, Note_on_c, 9, 39, 0
6, 24799, Note_on_c, 9, 39, 61
6, 24812, Note_on_c, 9, 39, 0
6, 24817, Note_on_c, 9, 38, 64
6, 24822, Note_on_c, 9, 38, 0
6, 24866, Note_on_c, 9, 39, 64
6, 24875, Note_on_c, 9, 39, 0
6, 24883, Note_on_c, 9, 39, 63
6, 24898, Note_on_c, 9, 39, 0
6, 24903, Note_on_c, 9, 38, 58
6, 24907, Note_on_c, 9, 38, 0
6, 24942, Note_on_c, 9, 36, 33
6, 24947, Note_on_c, 9, 36, 0
6, 24962, Note_on_c, 9, 36, 30
6, 24974, Note_on_c, 9, 36, 0
6, 25122, Note_on_c, 9, 39, 61
6, 25134, Note_on_c, 9, 39, 0
6, 25146, Note_on_c, 9, 46, 53
6, 25146, Note_on_c, 9, 38, 36
6, 25152, Note_on_c, 9, 38, 0
6, 25152, Note_on_c, 9, 36, 42
6, 25153, Note_on_c, 9, 46, 0
6, 25165, Note_on_c, 9, 36, 0
6, 25306, Note_on_c, 9, 39, 45
6, 25317, Note_on_c, 9, 39, 0
6, 25327, Note_on_c, 9, 46, 51
6, 25328, Note_on_c, 9, 36, 35
6, 25332, Note_on_c, 9, 46, 0
6, 25335, Note_on_c, 9, 36, 0
6, 25425, Note_on_c, 9, 39, 48
6, 25439, Note_on_c, 9, 39, 0
6, 25783, Note_on_c, 9, 38, 41
6, 25790, Note_on_c, 9, 38, 0
6, 25804, Note_on_c, 9, 38, 45
6, 25816, Note_on_c, 9, 38, 0
6, 25845, Note_on_c, 9, 36, 42
6, 25850, Note_on_c, 9, 36, 0
6, 25866, Note_on_c, 9, 36, 40
6, 25870, Note_on_c, 9, 36, 0
6, 26095, Note_on_c, 9, 39, 55
6, 26101, Note_on_c, 9, 39, 0
6, 26116, Note_on_c, 9, 39, 43
6, 26121, Note_on_c, 9, 39, 0
6, 26220, Note_on_c, 9, 39, 42
6, 26224, Note_on_c, 9, 39, 0
6, 26238, Note_on_c, 9, 39, 39
6, 26246, Note_on_c, 9, 39, 0
6, 26288, Note_on_c, 9, 39, 26
6, 26292, Note_on_c, 9, 39, 0
6, 26304, Note_on_c, 9, 39, 30
6, 26309, Note_on_c, 9, 39, 0
6, 26389, Note_on_c, 9, 36, 30
6, 26394, Note_on_c, 9, 36, 0
6, 26860, Note_on_c, 9, 36, 37
6, 26865, Note_on_c, 9, 36, 0
6, 27343, Note_on_c, 9, 39, 56
6, 27350, Note_on_c, 9, 39, 0
6, 27366, Note_on_c, 9, 36, 36
6, 27399, Note_on_c, 9, 36, 0
6, 27586, Note_on_c, 9, 39, 55
6, 27596, Note_on_c, 9, 39, 0
6, 27608, Note_on_c, 9, 46, 53
6, 27611, Note_on_c, 9, 36, 30
6, 27615, Note_on_c, 9, 46, 0
6, 27618, Note_on_c, 9, 36, 0
6, 28027, Note_on_c, 9, 39, 38
6, 28031, Note_on_c, 9, 39, 0
6, 28046, Note_on_c, 9, 39, 42
6, 28050, Note_on_c, 9, 39, 0
6, 28178, Note_on_c, 9, 38, 50
6, 28183, Note_on_c, 9, 38, 0
6, 28205, Note_on_c, 9, 38, 33
6, 28211, Note_on_c, 9, 38, 0
6, 28239, Note_on_c, 9, 36, 32
6, 28244, Note_on_c, 9, 36, 0
6, 28261, Note_on_c, 9, 38, 27
6, 28268, Note_on_c, 9, 38, 0
6, 28298, Note_on_c, 9, 38, 50
6, 28303, Note_on_c, 9, 38, 0
6, 28319, Note_on_c, 9, 38, 51
6, 28323, Note_on_c, 9, 38, 0
6, 29016, Note_on_c, 9, 36, 33
6, 29021, Note_on_c, 9, 36, 0
6, 29036, Note_on_c, 9, 36, 30
6, 29048, Note_on_c, 9, 36, 0
6, 29201, Note_on_c, 9, 39, 57
6, 29208, Note_on_c, 9, 39, 0
6, 29221, Note_on_c, 9, 36, 32
6, 29237, Note_on_c, 9, 36, 0
6, 29261, Note_on_c, 9, 36, 46
6, 29274, Note_on_c, 9, 36, 0
6, 29282, Note_on_c, 9, 36, 27
6, 29299, Note_on_c, 9, 36, 0
6, 29735, Note_on_c, 9, 38, 58
6, 29740, Note_on_c, 9, 38, 0
6, 29795, Note_on_c, 9, 38, 62
6, 29800, Note_on_c, 9, 38, 0
6, 29855, Note_on_c, 9, 38, 62
6, 29859, Note_on_c, 9, 38, 0
6, 30161, Note_on_c, 9, 39, 67
6, 30169, Note_on_c, 9, 39, 0
6, 30189, Note_on_c, 9, 36, 20
6, 30197, Note_on_c, 9, 36, 0
6, 30223, Note_on_c, 9, 36, 32
6, 30229, Note_on_c, 9, 36, 0
6, 30246, Note_on_c, 9, 36, 67
6, 30257, Note_on_c, 9, 36, 0
6, 30466, Note_on_c, 9, 39, 55
6, 30476, Note_on_c, 9, 39, 0
6, 30487, Note_on_c, 9, 57, 54
6, 30489, Note_on_c, 9, 36, 54
6, 30491, Note_on_c, 9, 57, 0
6, 30495, Note_on_c, 9, 36, 0
6, 30711, Note_on_c, 9, 36, 34
6, 30722, Note_on_c, 9, 36, 0
6, 30734, Note_on_c, 9, 36, 33
6, 30743, Note_on_c, 9, 36, 0
6, 30890, Note_on_c, 9, 39, 23
6, 30894, Note_on_c, 9, 39, 0
6, 30908, Note_on_c, 9, 36, 20
6, 30915, Note_on_c, 9, 36, 0
6, 30946, Note_on_c, 9, 39, 18
6, 30951, Note_on_c, 9, 39, 0
6, 31068, Note_on_c, 9, 39, 8
6, 31073, Note_on_c, 9, 39, 0
6, 31128, Note_on_c, 9, 36, 6
6, 31132, Note_on_c, 9, 36, 0
6, 31188, Note_on_c, 9, 36, 1
6, 31192, Note_on_c, 9, 36, 0
6, 31192, End_track
7, 0, Start_track
7, 0, Title_t, ""
7, 0, End_track
8, 0, Start_track
8, 0, Title_t, "The Peacocks"
8, 0, End_track
9, 0, Start_track
9, 0, Title_t, "By Jimmy Rowles"
9, 0, End_track
0, 0, End_of_file
