0, 0, Header, 1, 6, 120
1, 0, Start_track
1, 0, Title_t, "I Should Care"
1, 0, Text_t, "Doug McKenzie (dougmck@pipeline.com.au)\012"
1, 0, System_exclusive, 10, 65, 16, 66, 18, 64, 0, 127, 0, 65, 247
1, 0, Time_signature, 4, 2, 24, 8
1, 0, Key_signature, 0, "major"
1, 0, Tempo, 428571
1, 0, End_track
2, 0, Start_track
2, 0, Title_t, ""
2, 0, Control_c, 0, 64, 127
2, 122, Program_c, 0, 0
2, 488, Note_on_c, 0, 70, 27
2, 498, Note_on_c, 0, 70, 0
2, 555, Control_c, 0, 64, 0
2, 559, Note_on_c, 0, 62, 67
2, 560, Note_on_c, 0, 72, 62
2, 560, Note_on_c, 0, 69, 59
2, 560, Note_on_c, 0, 65, 66
2, 562, Note_on_c, 0, 60, 65
2, 613, Control_c, 0, 64, 127
2, 661, Note_on_c, 0, 62, 0
2, 662, Note_on_c, 0, 65, 0
2, 668, Note_on_c, 0, 60, 0
2, 689, Note_on_c, 0, 72, 0
2, 690, Note_on_c, 0, 69, 0
2, 723, Control_c, 0, 64, 0
2, 724, Note_on_c, 0, 67, 55
2, 724, Note_on_c, 0, 71, 53
2, 724, Note_on_c, 0, 64, 36
2, 727, Note_on_c, 0, 59, 36
2, 731, Note_on_c, 0, 53, 24
2, 763, Control_c, 0, 64, 127
2, 780, Note_on_c, 0, 64, 0
2, 783, Note_on_c, 0, 59, 0
2, 792, Note_on_c, 0, 53, 0
2, 849, Note_on_c, 0, 67, 0
2, 852, Note_on_c, 0, 71, 0
2, 961, Note_on_c, 0, 62, 89
2, 961, Note_on_c, 0, 67, 78
2, 962, Note_on_c, 0, 71, 72
2, 968, Note_on_c, 0, 62, 0
2, 968, Control_c, 0, 64, 0
2, 972, Note_on_c, 0, 67, 0
2, 977, Note_on_c, 0, 71, 0
2, 1039, Note_on_c, 0, 40, 49
2, 1048, Note_on_c, 0, 40, 0
2, 1081, Note_on_c, 0, 47, 32
2, 1144, Note_on_c, 0, 47, 0
2, 1156, Note_on_c, 0, 67, 70
2, 1157, Note_on_c, 0, 55, 57
2, 1158, Note_on_c, 0, 62, 65
2, 1159, Note_on_c, 0, 59, 58
2, 1164, Note_on_c, 0, 55, 0
2, 1165, Note_on_c, 0, 62, 0
2, 1166, Note_on_c, 0, 59, 0
2, 1174, Note_on_c, 0, 67, 0
2, 1255, Note_on_c, 0, 70, 61
2, 1256, Note_on_c, 0, 66, 56
2, 1256, Note_on_c, 0, 61, 62
2, 1257, Note_on_c, 0, 55, 66
2, 1267, Control_c, 0, 64, 127
2, 1312, Note_on_c, 0, 55, 0
2, 1314, Note_on_c, 0, 61, 0
2, 1315, Note_on_c, 0, 66, 0
2, 1315, Note_on_c, 0, 70, 0
2, 1329, Control_c, 0, 64, 0
2, 1335, Note_on_c, 0, 70, 49
2, 1336, Note_on_c, 0, 61, 52
2, 1338, Note_on_c, 0, 55, 43
2, 1338, Note_on_c, 0, 66, 46
2, 1365, Control_c, 0, 64, 127
2, 1384, Note_on_c, 0, 66, 0
2, 1385, Note_on_c, 0, 70, 0
2, 1388, Note_on_c, 0, 61, 0
2, 1405, Note_on_c, 0, 55, 0
2, 1407, Control_c, 0, 64, 0
2, 1409, Note_on_c, 0, 60, 46
2, 1410, Note_on_c, 0, 53, 43
2, 1411, Note_on_c, 0, 65, 47
2, 1412, Note_on_c, 0, 69, 38
2, 1441, Control_c, 0, 64, 127
2, 1472, Note_on_c, 0, 60, 0
2, 1486, Note_on_c, 0, 65, 0
2, 1493, Note_on_c, 0, 69, 0
2, 1541, Note_on_c, 0, 53, 0
2, 1563, Note_on_c, 0, 71, 110
2, 1627, Note_on_c, 0, 71, 0
2, 1641, Note_on_c, 0, 64, 53
2, 1642, Note_on_c, 0, 59, 41
2, 1643, Note_on_c, 0, 69, 60
2, 1643, Note_on_c, 0, 72, 62
2, 1647, Note_on_c, 0, 53, 29
2, 1648, Control_c, 0, 64, 0
2, 1684, Control_c, 0, 64, 127
2, 1752, Note_on_c, 0, 72, 0
2, 1759, Note_on_c, 0, 69, 0
2, 1767, Note_on_c, 0, 71, 44
2, 1785, Note_on_c, 0, 64, 0
2, 1795, Note_on_c, 0, 59, 0
2, 1801, Note_on_c, 0, 71, 0
2, 1812, Note_on_c, 0, 69, 39
2, 1813, Note_on_c, 0, 53, 0
2, 1834, Note_on_c, 0, 69, 0
2, 1923, Note_on_c, 0, 71, 50
2, 1925, Note_on_c, 0, 66, 38
2, 1926, Note_on_c, 0, 63, 37
2, 1927, Control_c, 0, 64, 0
2, 1928, Note_on_c, 0, 59, 36
2, 1934, Note_on_c, 0, 55, 28
2, 1934, Note_on_c, 0, 48, 24
2, 1977, Control_c, 0, 64, 127
2, 2038, Note_on_c, 0, 59, 0
2, 2057, Note_on_c, 0, 66, 0
2, 2062, Note_on_c, 0, 63, 0
2, 2100, Note_on_c, 0, 71, 0
2, 2117, Note_on_c, 0, 67, 36
2, 2121, Note_on_c, 0, 64, 35
2, 2122, Note_on_c, 0, 62, 25
2, 2125, Note_on_c, 0, 59, 32
2, 2131, Control_c, 0, 64, 0
2, 2159, Control_c, 0, 64, 127
2, 2239, Note_on_c, 0, 48, 0
2, 2244, Note_on_c, 0, 55, 0
2, 2253, Note_on_c, 0, 64, 0
2, 2266, Note_on_c, 0, 62, 0
2, 2267, Note_on_c, 0, 59, 0
2, 2275, Note_on_c, 0, 67, 0
2, 2400, Note_on_c, 0, 70, 72
2, 2402, Control_c, 0, 64, 0
2, 2402, Note_on_c, 0, 58, 54
2, 2403, Note_on_c, 0, 67, 66
2, 2403, Note_on_c, 0, 62, 71
2, 2406, Note_on_c, 0, 52, 50
2, 2440, Control_c, 0, 64, 127
2, 2459, Note_on_c, 0, 62, 0
2, 2462, Note_on_c, 0, 70, 0
2, 2478, Note_on_c, 0, 72, 53
2, 2483, Note_on_c, 0, 62, 53
2, 2499, Note_on_c, 0, 72, 0
2, 2500, Note_on_c, 0, 67, 0
2, 2501, Note_on_c, 0, 62, 0
2, 2509, Note_on_c, 0, 58, 0
2, 2518, Control_c, 0, 64, 0
2, 2526, Note_on_c, 0, 58, 37
2, 2526, Note_on_c, 0, 70, 37
2, 2527, Note_on_c, 0, 62, 29
2, 2566, Note_on_c, 0, 52, 0
2, 2570, Note_on_c, 0, 62, 0
2, 2576, Note_on_c, 0, 58, 0
2, 2579, Note_on_c, 0, 70, 0
2, 2598, Note_on_c, 0, 58, 48
2, 2598, Note_on_c, 0, 70, 52
2, 2600, Note_on_c, 0, 72, 44
2, 2601, Note_on_c, 0, 62, 30
2, 2602, Note_on_c, 0, 67, 32
2, 2608, Note_on_c, 0, 72, 0
2, 2608, Note_on_c, 0, 52, 30
2, 2609, Note_on_c, 0, 67, 0
2, 2613, Note_on_c, 0, 62, 0
2, 2613, Note_on_c, 0, 58, 0
2, 2614, Note_on_c, 0, 70, 0
2, 2617, Note_on_c, 0, 52, 0
2, 2712, Note_on_c, 0, 49, 39
2, 2714, Note_on_c, 0, 58, 37
2, 2716, Note_on_c, 0, 61, 35
2, 2717, Note_on_c, 0, 64, 42
2, 2740, Note_on_c, 0, 61, 0
2, 2740, Note_on_c, 0, 58, 0
2, 2743, Note_on_c, 0, 64, 0
2, 2762, Note_on_c, 0, 58, 36
2, 2764, Note_on_c, 0, 49, 0
2, 2765, Note_on_c, 0, 52, 39
2, 2765, Note_on_c, 0, 67, 33
2, 2766, Note_on_c, 0, 61, 28
2, 2770, Note_on_c, 0, 64, 22
2, 2783, Note_on_c, 0, 64, 0
2, 2785, Note_on_c, 0, 67, 0
2, 2789, Note_on_c, 0, 58, 0
2, 2791, Control_c, 0, 64, 127
2, 2793, Note_on_c, 0, 61, 0
2, 2794, Note_on_c, 0, 52, 0
2, 2837, Note_on_c, 0, 61, 56
2, 2838, Note_on_c, 0, 57, 62
2, 2839, Note_on_c, 0, 65, 64
2, 2841, Note_on_c, 0, 69, 40
2, 2843, Control_c, 0, 64, 0
2, 2877, Control_c, 0, 64, 127
2, 2965, Note_on_c, 0, 57, 0
2, 2984, Note_on_c, 0, 65, 0
2, 2986, Note_on_c, 0, 45, 40
2, 2989, Control_c, 0, 64, 0
2, 2994, Control_c, 0, 64, 127
2, 2995, Note_on_c, 0, 61, 0
2, 2999, Note_on_c, 0, 69, 0
2, 3070, Note_on_c, 0, 61, 36
2, 3072, Note_on_c, 0, 64, 40
2, 3073, Note_on_c, 0, 58, 30
2, 3074, Control_c, 0, 64, 0
2, 3074, Note_on_c, 0, 55, 36
2, 3108, Control_c, 0, 64, 127
2, 3136, Note_on_c, 0, 45, 0
2, 3193, Note_on_c, 0, 45, 41
2, 3195, Note_on_c, 0, 58, 0
2, 3216, Note_on_c, 0, 45, 0
2, 3232, Note_on_c, 0, 61, 0
2, 3235, Note_on_c, 0, 64, 0
2, 3239, Note_on_c, 0, 55, 0
2, 3365, Note_on_c, 0, 76, 58
2, 3366, Note_on_c, 0, 73, 32
2, 3366, Note_on_c, 0, 70, 50
2, 3369, Note_on_c, 0, 64, 56
2, 3370, Note_on_c, 0, 65, 34
2, 3371, Control_c, 0, 64, 0
2, 3419, Control_c, 0, 64, 127
2, 3428, Note_on_c, 0, 65, 0
2, 3435, Note_on_c, 0, 76, 0
2, 3440, Note_on_c, 0, 64, 0
2, 3445, Note_on_c, 0, 63, 42
2, 3455, Note_on_c, 0, 73, 0
2, 3456, Note_on_c, 0, 70, 0
2, 3480, Note_on_c, 0, 63, 0
2, 3481, Control_c, 0, 64, 0
2, 3488, Note_on_c, 0, 69, 48
2, 3489, Note_on_c, 0, 77, 53
2, 3489, Note_on_c, 0, 65, 55
2, 3489, Note_on_c, 0, 62, 50
2, 3490, Note_on_c, 0, 72, 44
2, 3511, Control_c, 0, 64, 127
2, 3538, Note_on_c, 0, 65, 0
2, 3538, Note_on_c, 0, 69, 0
2, 3542, Note_on_c, 0, 72, 0
2, 3555, Note_on_c, 0, 77, 0
2, 3580, Note_on_c, 0, 62, 0
2, 3580, Note_on_c, 0, 79, 59
2, 3580, Note_on_c, 0, 67, 64
2, 3583, Note_on_c, 0, 61, 58
2, 3587, Note_on_c, 0, 76, 44
2, 3587, Note_on_c, 0, 72, 37
2, 3591, Control_c, 0, 64, 0
2, 3598, Note_on_c, 0, 72, 0
2, 3602, Note_on_c, 0, 76, 0
2, 3619, Control_c, 0, 64, 127
2, 3628, Note_on_c, 0, 79, 0
2, 3634, Note_on_c, 0, 67, 0
2, 3683, Note_on_c, 0, 65, 66
2, 3686, Note_on_c, 0, 74, 39
2, 3687, Note_on_c, 0, 60, 46
2, 3688, Control_c, 0, 64, 0
2, 3688, Note_on_c, 0, 69, 44
2, 3690, Note_on_c, 0, 61, 0
2, 3714, Control_c, 0, 64, 127
2, 3745, Note_on_c, 0, 74, 0
2, 3758, Note_on_c, 0, 76, 62
2, 3766, Note_on_c, 0, 69, 0
2, 3773, Note_on_c, 0, 65, 0
2, 3773, Note_on_c, 0, 60, 0
2, 3790, Note_on_c, 0, 76, 0
2, 3832, Control_c, 0, 64, 0
2, 3837, Note_on_c, 0, 63, 38
2, 3839, Note_on_c, 0, 77, 54
2, 3840, Note_on_c, 0, 60, 34
2, 3843, Note_on_c, 0, 72, 39
2, 3846, Note_on_c, 0, 53, 16
2, 3849, Note_on_c, 0, 56, 29
2, 3852, Control_c, 0, 64, 127
2, 3873, Note_on_c, 0, 72, 0
2, 3876, Note_on_c, 0, 77, 0
2, 3914, Note_on_c, 0, 67, 46
2, 3938, Note_on_c, 0, 67, 0
2, 3944, Control_c, 0, 64, 0
2, 3944, Note_on_c, 0, 68, 48
2, 3964, Note_on_c, 0, 68, 0
2, 3970, Note_on_c, 0, 60, 0
2, 3971, Note_on_c, 0, 53, 0
2, 3973, Note_on_c, 0, 70, 31
2, 3981, Note_on_c, 0, 70, 0
2, 3986, Note_on_c, 0, 63, 0
2, 3988, Note_on_c, 0, 56, 0
2, 4000, Note_on_c, 0, 72, 40
2, 4013, Note_on_c, 0, 72, 0
2, 4026, Note_on_c, 0, 74, 68
2, 4043, Note_on_c, 0, 74, 0
2, 4058, Note_on_c, 0, 75, 69
2, 4071, Note_on_c, 0, 75, 0
2, 4085, Note_on_c, 0, 77, 44
2, 4086, Note_on_c, 0, 56, 28
2, 4086, Note_on_c, 0, 67, 34
2, 4089, Note_on_c, 0, 62, 26
2, 4106, Note_on_c, 0, 77, 0
2, 4116, Note_on_c, 0, 79, 53
2, 4137, Control_c, 0, 64, 127
2, 4146, Note_on_c, 0, 79, 0
2, 4147, Note_on_c, 0, 80, 62
2, 4165, Note_on_c, 0, 80, 0
2, 4176, Note_on_c, 0, 82, 47
2, 4183, Note_on_c, 0, 82, 0
2, 4200, Note_on_c, 0, 83, 45
2, 4203, Control_c, 0, 64, 0
2, 4204, Note_on_c, 0, 62, 0
2, 4215, Note_on_c, 0, 83, 0
2, 4227, Note_on_c, 0, 84, 53
2, 4233, Note_on_c, 0, 56, 0
2, 4235, Note_on_c, 0, 67, 0
2, 4242, Note_on_c, 0, 84, 0
2, 4258, Note_on_c, 0, 86, 52
2, 4270, Note_on_c, 0, 86, 0
2, 4277, Control_c, 0, 64, 127
2, 4287, Note_on_c, 0, 87, 64
2, 4301, Control_c, 0, 64, 0
2, 4302, Note_on_c, 0, 87, 0
2, 4317, Note_on_c, 0, 67, 36
2, 4318, Note_on_c, 0, 88, 62
2, 4325, Note_on_c, 0, 62, 32
2, 4326, Note_on_c, 0, 64, 30
2, 4337, Control_c, 0, 64, 127
2, 4363, Note_on_c, 0, 67, 0
2, 4385, Note_on_c, 0, 88, 0
2, 4402, Note_on_c, 0, 89, 69
2, 4405, Note_on_c, 0, 55, 46
2, 4418, Control_c, 0, 64, 0
2, 4419, Note_on_c, 0, 89, 0
2, 4435, Note_on_c, 0, 64, 0
2, 4440, Note_on_c, 0, 62, 0
2, 4444, Note_on_c, 0, 88, 59
2, 4451, Note_on_c, 0, 88, 0
2, 4515, Note_on_c, 0, 67, 54
2, 4515, Note_on_c, 0, 89, 74
2, 4516, Note_on_c, 0, 62, 38
2, 4519, Note_on_c, 0, 64, 44
2, 4529, Note_on_c, 0, 89, 0
2, 4541, Note_on_c, 0, 67, 0
2, 4562, Note_on_c, 0, 88, 44
2, 4570, Note_on_c, 0, 88, 0
2, 4571, Note_on_c, 0, 55, 0
2, 4614, Control_c, 0, 64, 127
2, 4633, Note_on_c, 0, 89, 81
2, 4639, Note_on_c, 0, 55, 64
2, 4640, Control_c, 0, 64, 0
2, 4649, Note_on_c, 0, 89, 0
2, 4677, Note_on_c, 0, 62, 0
2, 4679, Note_on_c, 0, 88, 68
2, 4680, Note_on_c, 0, 64, 0
2, 4686, Note_on_c, 0, 88, 0
2, 4704, Control_c, 0, 64, 127
2, 4724, Note_on_c, 0, 55, 0
2, 4755, Note_on_c, 0, 89, 68
2, 4764, Note_on_c, 0, 89, 0
2, 4785, Control_c, 0, 64, 0
2, 4793, Note_on_c, 0, 76, 64
2, 4793, Note_on_c, 0, 88, 71
2, 4795, Note_on_c, 0, 62, 40
2, 4795, Note_on_c, 0, 57, 51
2, 4797, Note_on_c, 0, 66, 37
2, 4815, Control_c, 0, 64, 127
2, 4869, Note_on_c, 0, 88, 0
2, 4871, Note_on_c, 0, 57, 0
2, 4882, Note_on_c, 0, 76, 0
2, 4883, Note_on_c, 0, 66, 0
2, 4912, Note_on_c, 0, 66, 35
2, 4921, Note_on_c, 0, 57, 32
2, 4952, Note_on_c, 0, 57, 0
2, 4954, Note_on_c, 0, 66, 0
2, 4976, Note_on_c, 0, 62, 0
2, 4996, Note_on_c, 0, 76, 39
2, 4997, Note_on_c, 0, 62, 34
2, 4999, Note_on_c, 0, 67, 31
2, 4999, Note_on_c, 0, 56, 38
2, 5000, Note_on_c, 0, 72, 44
2, 5003, Control_c, 0, 64, 0
2, 5029, Control_c, 0, 64, 127
2, 5071, Note_on_c, 0, 72, 0
2, 5076, Note_on_c, 0, 67, 0
2, 5089, Note_on_c, 0, 56, 0
2, 5089, Note_on_c, 0, 76, 0
2, 5092, Note_on_c, 0, 62, 0
2, 5114, Note_on_c, 0, 71, 48
2, 5116, Note_on_c, 0, 64, 42
2, 5116, Note_on_c, 0, 68, 37
2, 5123, Note_on_c, 0, 62, 24
2, 5124, Note_on_c, 0, 56, 33
2, 5130, Note_on_c, 0, 62, 0
2, 5143, Note_on_c, 0, 56, 0
2, 5153, Note_on_c, 0, 71, 0
2, 5156, Note_on_c, 0, 68, 0
2, 5165, Note_on_c, 0, 64, 0
2, 5279, Note_on_c, 0, 61, 65
2, 5282, Control_c, 0, 64, 0
2, 5290, Note_on_c, 0, 62, 70
2, 5293, Note_on_c, 0, 61, 0
2, 5309, Note_on_c, 0, 62, 0
2, 5359, Note_on_c, 0, 65, 90
2, 5363, Note_on_c, 0, 53, 47
2, 5380, Note_on_c, 0, 53, 0
2, 5384, Note_on_c, 0, 65, 0
2, 5403, Note_on_c, 0, 62, 43
2, 5405, Note_on_c, 0, 55, 31
2, 5405, Note_on_c, 0, 58, 32
2, 5407, Note_on_c, 0, 50, 44
2, 5428, Control_c, 0, 64, 127
2, 5436, Note_on_c, 0, 62, 0
2, 5447, Note_on_c, 0, 55, 0
2, 5453, Note_on_c, 0, 58, 0
2, 5477, Note_on_c, 0, 50, 0
2, 5477, Note_on_c, 0, 61, 58
2, 5477, Note_on_c, 0, 64, 66
2, 5479, Note_on_c, 0, 58, 55
2, 5481, Control_c, 0, 64, 0
2, 5481, Note_on_c, 0, 55, 63
2, 5483, Note_on_c, 0, 52, 54
2, 5499, Note_on_c, 0, 55, 0
2, 5499, Control_c, 0, 64, 127
2, 5504, Note_on_c, 0, 52, 0
2, 5509, Note_on_c, 0, 58, 0
2, 5514, Note_on_c, 0, 61, 0
2, 5515, Note_on_c, 0, 64, 0
2, 5590, Note_on_c, 0, 75, 87
2, 5592, Note_on_c, 0, 68, 84
2, 5592, Note_on_c, 0, 64, 95
2, 5593, Note_on_c, 0, 63, 76
2, 5595, Note_on_c, 0, 72, 63
2, 5601, Note_on_c, 0, 65, 30
2, 5602, Note_on_c, 0, 72, 0
2, 5608, Note_on_c, 0, 65, 0
2, 5611, Control_c, 0, 64, 0
2, 5617, Note_on_c, 0, 68, 0
2, 5618, Note_on_c, 0, 64, 0
2, 5619, Note_on_c, 0, 75, 0
2, 5623, Note_on_c, 0, 63, 0
2, 5629, Note_on_c, 0, 61, 59
2, 5663, Note_on_c, 0, 61, 0
2, 5673, Note_on_c, 0, 64, 78
2, 5674, Note_on_c, 0, 68, 72
2, 5677, Note_on_c, 0, 72, 56
2, 5677, Note_on_c, 0, 58, 72
2, 5685, Note_on_c, 0, 72, 0
2, 5691, Note_on_c, 0, 64, 0
2, 5691, Note_on_c, 0, 68, 0
2, 5698, Note_on_c, 0, 58, 0
2, 5705, Control_c, 0, 64, 127
2, 5714, Note_on_c, 0, 56, 56
2, 5718, Note_on_c, 0, 58, 27
2, 5726, Note_on_c, 0, 58, 0
2, 5741, Control_c, 0, 64, 0
2, 5745, Note_on_c, 0, 56, 0
2, 5749, Note_on_c, 0, 67, 71
2, 5749, Note_on_c, 0, 72, 67
2, 5751, Note_on_c, 0, 62, 70
2, 5751, Note_on_c, 0, 57, 68
2, 5773, Control_c, 0, 64, 127
2, 5780, Note_on_c, 0, 72, 0
2, 5784, Note_on_c, 0, 67, 0
2, 5801, Note_on_c, 0, 62, 0
2, 5825, Note_on_c, 0, 57, 0
2, 5825, Note_on_c, 0, 69, 74
2, 5828, Note_on_c, 0, 60, 64
2, 5828, Note_on_c, 0, 64, 66
2, 5830, Note_on_c, 0, 53, 56
2, 5838, Control_c, 0, 64, 0
2, 5868, Control_c, 0, 64, 127
2, 5869, Note_on_c, 0, 64, 0
2, 5870, Note_on_c, 0, 69, 0
2, 5877, Note_on_c, 0, 60, 0
2, 5878, Note_on_c, 0, 53, 0
2, 5886, Control_c, 0, 64, 0
2, 5894, Note_on_c, 0, 64, 50
2, 5900, Note_on_c, 0, 60, 46
2, 5900, Note_on_c, 0, 52, 54
2, 5903, Note_on_c, 0, 57, 43
2, 5916, Control_c, 0, 64, 127
2, 5942, Note_on_c, 0, 60, 0
2, 5944, Note_on_c, 0, 57, 0
2, 5957, Note_on_c, 0, 64, 0
2, 5960, Note_on_c, 0, 52, 0
2, 5965, Note_on_c, 0, 67, 75
2, 5967, Note_on_c, 0, 55, 74
2, 5967, Note_on_c, 0, 60, 76
2, 5967, Note_on_c, 0, 57, 68
2, 5970, Control_c, 0, 64, 0
2, 6004, Control_c, 0, 64, 127
2, 6017, Note_on_c, 0, 67, 0
2, 6019, Note_on_c, 0, 60, 0
2, 6020, Note_on_c, 0, 57, 0
2, 6028, Control_c, 0, 64, 0
2, 6033, Note_on_c, 0, 55, 0
2, 6039, Note_on_c, 0, 65, 61
2, 6042, Note_on_c, 0, 60, 63
2, 6043, Note_on_c, 0, 53, 64
2, 6044, Note_on_c, 0, 57, 48
2, 6048, Control_c, 0, 64, 127
2, 6067, Note_on_c, 0, 60, 0
2, 6074, Note_on_c, 0, 65, 0
2, 6075, Note_on_c, 0, 57, 0
2, 6083, Note_on_c, 0, 53, 0
2, 6114, Control_c, 0, 64, 0
2, 6116, Note_on_c, 0, 64, 44
2, 6117, Note_on_c, 0, 60, 56
2, 6118, Note_on_c, 0, 57, 53
2, 6119, Note_on_c, 0, 52, 49
2, 6122, Note_on_c, 0, 53, 32
2, 6132, Control_c, 0, 64, 127
2, 6152, Note_on_c, 0, 53, 0
2, 6168, Note_on_c, 0, 57, 0
2, 6172, Note_on_c, 0, 60, 0
2, 6179, Note_on_c, 0, 64, 0
2, 6188, Note_on_c, 0, 52, 0
2, 6196, Note_on_c, 0, 62, 63
2, 6201, Control_c, 0, 64, 0
2, 6201, Note_on_c, 0, 57, 44
2, 6204, Note_on_c, 0, 47, 46
2, 6221, Control_c, 0, 64, 127
2, 6232, Note_on_c, 0, 57, 0
2, 6250, Note_on_c, 0, 47, 0
2, 6251, Note_on_c, 0, 62, 0
2, 6314, Note_on_c, 0, 74, 81
2, 6355, Note_on_c, 0, 65, 36
2, 6356, Note_on_c, 0, 62, 33
2, 6362, Note_on_c, 0, 57, 24
2, 6365, Control_c, 0, 64, 0
2, 6367, Note_on_c, 0, 65, 0
2, 6385, Control_c, 0, 64, 127
2, 6401, Note_on_c, 0, 74, 0
2, 6403, Note_on_c, 0, 76, 47
2, 6409, Note_on_c, 0, 57, 0
2, 6411, Note_on_c, 0, 62, 0
2, 6427, Note_on_c, 0, 74, 44
2, 6436, Note_on_c, 0, 76, 0
2, 6451, Note_on_c, 0, 73, 43
2, 6452, Note_on_c, 0, 74, 0
2, 6468, Note_on_c, 0, 73, 0
2, 6477, Control_c, 0, 64, 0
2, 6478, Note_on_c, 0, 62, 33
2, 6479, Note_on_c, 0, 74, 52
2, 6481, Note_on_c, 0, 65, 38
2, 6484, Note_on_c, 0, 56, 35
2, 6517, Note_on_c, 0, 76, 66
2, 6527, Note_on_c, 0, 74, 0
2, 6528, Control_c, 0, 64, 127
2, 6544, Note_on_c, 0, 76, 0
2, 6554, Note_on_c, 0, 65, 0
2, 6556, Note_on_c, 0, 77, 74
2, 6564, Note_on_c, 0, 62, 0
2, 6579, Note_on_c, 0, 56, 0
2, 6591, Note_on_c, 0, 77, 0
2, 6598, Control_c, 0, 64, 0
2, 6604, Note_on_c, 0, 62, 36
2, 6605, Note_on_c, 0, 65, 44
2, 6606, Note_on_c, 0, 76, 74
2, 6613, Note_on_c, 0, 56, 25
2, 6634, Control_c, 0, 64, 127
2, 6644, Note_on_c, 0, 62, 0
2, 6649, Note_on_c, 0, 65, 0
2, 6675, Note_on_c, 0, 76, 0
2, 6684, Note_on_c, 0, 74, 68
2, 6689, Note_on_c, 0, 56, 0
2, 6705, Note_on_c, 0, 74, 0
2, 6719, Note_on_c, 0, 57, 39
2, 6722, Note_on_c, 0, 64, 34
2, 6726, Control_c, 0, 64, 0
2, 6727, Note_on_c, 0, 60, 32
2, 6729, Note_on_c, 0, 72, 63
2, 6752, Note_on_c, 0, 72, 0
2, 6753, Note_on_c, 0, 74, 57
2, 6781, Note_on_c, 0, 72, 53
2, 6786, Note_on_c, 0, 64, 0
2, 6787, Note_on_c, 0, 74, 0
2, 6788, Control_c, 0, 64, 127
2, 6810, Note_on_c, 0, 72, 0
2, 6812, Note_on_c, 0, 57, 0
2, 6812, Note_on_c, 0, 71, 62
2, 6831, Note_on_c, 0, 71, 0
2, 6840, Note_on_c, 0, 56, 32
2, 6840, Control_c, 0, 64, 0
2, 6841, Note_on_c, 0, 64, 34
2, 6848, Note_on_c, 0, 74, 58
2, 6897, Control_c, 0, 64, 127
2, 6917, Note_on_c, 0, 64, 0
2, 6928, Note_on_c, 0, 71, 24
2, 6934, Note_on_c, 0, 74, 0
2, 6934, Note_on_c, 0, 60, 0
2, 6939, Note_on_c, 0, 56, 0
2, 6944, Note_on_c, 0, 71, 0
2, 6951, Control_c, 0, 64, 0
2, 6959, Note_on_c, 0, 72, 54
2, 6960, Note_on_c, 0, 60, 29
2, 6960, Note_on_c, 0, 55, 34
2, 6960, Note_on_c, 0, 64, 27
2, 6979, Control_c, 0, 64, 127
2, 7023, Note_on_c, 0, 55, 0
2, 7035, Note_on_c, 0, 64, 0
2, 7039, Note_on_c, 0, 60, 0
2, 7041, Note_on_c, 0, 76, 64
2, 7049, Note_on_c, 0, 72, 0
2, 7071, Note_on_c, 0, 76, 0
2, 7077, Note_on_c, 0, 79, 54
2, 7089, Control_c, 0, 64, 0
2, 7092, Note_on_c, 0, 79, 0
2, 7111, Control_c, 0, 64, 127
2, 7115, Note_on_c, 0, 83, 71
2, 7132, Note_on_c, 0, 83, 0
2, 7150, Note_on_c, 0, 84, 83
2, 7174, Note_on_c, 0, 84, 0
2, 7185, Control_c, 0, 64, 0
2, 7189, Note_on_c, 0, 57, 62
2, 7189, Note_on_c, 0, 64, 72
2, 7189, Note_on_c, 0, 60, 64
2, 7190, Note_on_c, 0, 55, 59
2, 7191, Note_on_c, 0, 86, 87
2, 7191, Note_on_c, 0, 74, 92
2, 7192, Note_on_c, 0, 83, 77
2, 7219, Control_c, 0, 64, 127
2, 7276, Note_on_c, 0, 55, 0
2, 7277, Note_on_c, 0, 74, 0
2, 7279, Note_on_c, 0, 86, 0
2, 7279, Note_on_c, 0, 64, 0
2, 7282, Note_on_c, 0, 57, 0
2, 7286, Note_on_c, 0, 60, 0
2, 7290, Note_on_c, 0, 83, 0
2, 7310, Control_c, 0, 64, 0
2, 7310, Note_on_c, 0, 88, 85
2, 7310, Note_on_c, 0, 55, 68
2, 7311, Note_on_c, 0, 64, 71
2, 7312, Note_on_c, 0, 76, 77
2, 7312, Note_on_c, 0, 60, 60
2, 7312, Note_on_c, 0, 57, 64
2, 7312, Note_on_c, 0, 84, 73
2, 7338, Control_c, 0, 64, 127
2, 7343, Note_on_c, 0, 84, 0
2, 7346, Note_on_c, 0, 88, 0
2, 7347, Note_on_c, 0, 76, 0
2, 7364, Note_on_c, 0, 55, 0
2, 7364, Note_on_c, 0, 64, 0
2, 7370, Note_on_c, 0, 57, 0
2, 7376, Note_on_c, 0, 60, 0
2, 7395, Note_on_c, 0, 60, 71
2, 7398, Note_on_c, 0, 64, 79
2, 7398, Note_on_c, 0, 54, 79
2, 7398, Note_on_c, 0, 84, 68
2, 7400, Note_on_c, 0, 79, 65
2, 7400, Control_c, 0, 64, 0
2, 7401, Note_on_c, 0, 72, 70
2, 7433, Control_c, 0, 64, 127
2, 7439, Note_on_c, 0, 72, 0
2, 7439, Note_on_c, 0, 79, 0
2, 7445, Note_on_c, 0, 64, 0
2, 7448, Note_on_c, 0, 84, 0
2, 7448, Note_on_c, 0, 54, 0
2, 7457, Note_on_c, 0, 60, 0
2, 7476, Note_on_c, 0, 86, 69
2, 7476, Note_on_c, 0, 54, 77
2, 7476, Note_on_c, 0, 60, 64
2, 7477, Note_on_c, 0, 74, 71
2, 7477, Note_on_c, 0, 81, 69
2, 7479, Note_on_c, 0, 64, 73
2, 7519, Note_on_c, 0, 74, 0
2, 7524, Note_on_c, 0, 81, 0
2, 7526, Note_on_c, 0, 64, 0
2, 7528, Note_on_c, 0, 86, 0
2, 7530, Note_on_c, 0, 54, 0
2, 7539, Note_on_c, 0, 60, 0
2, 7551, Control_c, 0, 64, 0
2, 7556, Note_on_c, 0, 54, 71
2, 7558, Note_on_c, 0, 88, 77
2, 7558, Note_on_c, 0, 60, 66
2, 7559, Note_on_c, 0, 76, 75
2, 7560, Note_on_c, 0, 64, 68
2, 7560, Note_on_c, 0, 83, 66
2, 7565, Note_on_c, 0, 85, 27
2, 7569, Control_c, 0, 64, 127
2, 7573, Note_on_c, 0, 85, 0
2, 7576, Note_on_c, 0, 76, 0
2, 7580, Note_on_c, 0, 83, 0
2, 7587, Note_on_c, 0, 88, 0
2, 7590, Note_on_c, 0, 54, 0
2, 7590, Note_on_c, 0, 60, 0
2, 7591, Note_on_c, 0, 64, 0
2, 7641, Note_on_c, 0, 55, 83
2, 7642, Note_on_c, 0, 60, 83
2, 7642, Note_on_c, 0, 57, 74
2, 7642, Note_on_c, 0, 93, 89
2, 7642, Note_on_c, 0, 65, 88
2, 7644, Note_on_c, 0, 81, 83
2, 7644, Note_on_c, 0, 88, 80
2, 7648, Control_c, 0, 64, 0
2, 7648, Note_on_c, 0, 90, 35
2, 7649, Note_on_c, 0, 58, 39
2, 7655, Note_on_c, 0, 58, 0
2, 7655, Note_on_c, 0, 90, 0
2, 7674, Control_c, 0, 64, 127
2, 7713, Note_on_c, 0, 93, 0
2, 7718, Note_on_c, 0, 55, 0
2, 7720, Note_on_c, 0, 81, 0
2, 7723, Note_on_c, 0, 65, 0
2, 7725, Note_on_c, 0, 57, 0
2, 7728, Note_on_c, 0, 88, 0
2, 7731, Note_on_c, 0, 60, 0
2, 7760, Note_on_c, 0, 95, 79
2, 7762, Note_on_c, 0, 88, 81
2, 7762, Note_on_c, 0, 60, 81
2, 7762, Note_on_c, 0, 65, 83
2, 7763, Note_on_c, 0, 83, 70
2, 7763, Note_on_c, 0, 55, 79
2, 7764, Note_on_c, 0, 57, 69
2, 7774, Control_c, 0, 64, 0
2, 7784, Note_on_c, 0, 83, 0
2, 7788, Note_on_c, 0, 65, 0
2, 7788, Note_on_c, 0, 95, 0
2, 7788, Note_on_c, 0, 55, 0
2, 7789, Note_on_c, 0, 88, 0
2, 7795, Note_on_c, 0, 57, 0
2, 7797, Note_on_c, 0, 60, 0
2, 7806, Note_on_c, 0, 65, 61
2, 7806, Note_on_c, 0, 55, 38
2, 7807, Note_on_c, 0, 60, 41
2, 7809, Note_on_c, 0, 57, 44
2, 7809, Note_on_c, 0, 79, 62
2, 7811, Note_on_c, 0, 91, 50
2, 7813, Control_c, 0, 64, 127
2, 7837, Note_on_c, 0, 79, 0
2, 7840, Note_on_c, 0, 65, 0
2, 7840, Note_on_c, 0, 91, 0
2, 7843, Note_on_c, 0, 60, 0
2, 7846, Note_on_c, 0, 55, 0
2, 7850, Note_on_c, 0, 57, 0
2, 7909, Control_c, 0, 64, 0
2, 7920, Note_on_c, 0, 59, 37
2, 7921, Note_on_c, 0, 64, 44
2, 7922, Note_on_c, 0, 93, 55
2, 7923, Note_on_c, 0, 81, 45
2, 7925, Note_on_c, 0, 88, 51
2, 7925, Note_on_c, 0, 53, 37
2, 7943, Note_on_c, 0, 53, 0
2, 7944, Note_on_c, 0, 81, 0
2, 7947, Note_on_c, 0, 88, 0
2, 7949, Note_on_c, 0, 64, 0
2, 7952, Note_on_c, 0, 93, 0
2, 7957, Note_on_c, 0, 59, 0
2, 8039, Note_on_c, 0, 95, 63
2, 8041, Note_on_c, 0, 59, 42
2, 8041, Note_on_c, 0, 64, 48
2, 8043, Note_on_c, 0, 88, 48
2, 8044, Note_on_c, 0, 83, 39
2, 8045, Note_on_c, 0, 53, 36
2, 8055, Note_on_c, 0, 88, 0
2, 8057, Note_on_c, 0, 95, 0
2, 8058, Note_on_c, 0, 53, 0
2, 8061, Note_on_c, 0, 64, 0
2, 8062, Note_on_c, 0, 83, 0
2, 8063, Note_on_c, 0, 59, 0
2, 8073, Control_c, 0, 64, 127
2, 8247, Note_on_c, 0, 72, 74
2, 8248, Note_on_c, 0, 64, 78
2, 8248, Note_on_c, 0, 69, 78
2, 8248, Note_on_c, 0, 58, 65
2, 8252, Note_on_c, 0, 54, 33
2, 8260, Note_on_c, 0, 69, 0
2, 8262, Note_on_c, 0, 54, 0
2, 8262, Note_on_c, 0, 64, 0
2, 8262, Control_c, 0, 64, 0
2, 8266, Note_on_c, 0, 72, 0
2, 8267, Note_on_c, 0, 58, 0
2, 8336, Note_on_c, 0, 64, 66
2, 8337, Note_on_c, 0, 58, 55
2, 8337, Note_on_c, 0, 72, 71
2, 8339, Note_on_c, 0, 54, 43
2, 8339, Note_on_c, 0, 69, 75
2, 8344, Control_c, 0, 64, 127
2, 8359, Note_on_c, 0, 69, 0
2, 8365, Note_on_c, 0, 64, 0
2, 8368, Note_on_c, 0, 72, 0
2, 8376, Note_on_c, 0, 54, 0
2, 8382, Note_on_c, 0, 58, 0
2, 8426, Control_c, 0, 64, 0
2, 8436, Control_c, 0, 64, 127
2, 8485, Control_c, 0, 64, 0
2, 8486, Note_on_c, 0, 72, 75
2, 8489, Note_on_c, 0, 63, 69
2, 8490, Note_on_c, 0, 67, 70
2, 8493, Note_on_c, 0, 53, 63
2, 8519, Control_c, 0, 64, 127
2, 8539, Note_on_c, 0, 72, 0
2, 8558, Note_on_c, 0, 67, 0
2, 8563, Note_on_c, 0, 71, 64
2, 8585, Note_on_c, 0, 53, 0
2, 8602, Note_on_c, 0, 63, 0
2, 8612, Note_on_c, 0, 71, 0
2, 8643, Control_c, 0, 64, 0
2, 8648, Note_on_c, 0, 71, 49
2, 8648, Note_on_c, 0, 52, 55
2, 8649, Note_on_c, 0, 62, 46
2, 8651, Note_on_c, 0, 67, 40
2, 8677, Control_c, 0, 64, 127
2, 8714, Note_on_c, 0, 67, 0
2, 8728, Note_on_c, 0, 59, 46
2, 8740, Note_on_c, 0, 59, 0
2, 8753, Note_on_c, 0, 52, 0
2, 8778, Note_on_c, 0, 62, 0
2, 8803, Note_on_c, 0, 67, 51
2, 8824, Note_on_c, 0, 71, 0
2, 8836, Note_on_c, 0, 62, 51
2, 8841, Note_on_c, 0, 67, 0
2, 8850, Note_on_c, 0, 62, 0
2, 8880, Note_on_c, 0, 66, 55
2, 8880, Note_on_c, 0, 61, 39
2, 8882, Control_c, 0, 64, 0
2, 8884, Note_on_c, 0, 45, 48
2, 8885, Note_on_c, 0, 55, 36
2, 8914, Control_c, 0, 64, 127
2, 8959, Note_on_c, 0, 70, 64
2, 8976, Note_on_c, 0, 45, 0
2, 8987, Note_on_c, 0, 55, 0
2, 9018, Note_on_c, 0, 61, 0
2, 9026, Note_on_c, 0, 70, 0
2, 9029, Note_on_c, 0, 66, 0
2, 9075, Note_on_c, 0, 69, 58
2, 9077, Note_on_c, 0, 60, 44
2, 9079, Note_on_c, 0, 50, 50
2, 9079, Note_on_c, 0, 65, 51
2, 9086, Control_c, 0, 64, 0
2, 9106, Control_c, 0, 64, 127
2, 9112, Note_on_c, 0, 60, 0
2, 9128, Note_on_c, 0, 69, 0
2, 9128, Note_on_c, 0, 65, 0
2, 9194, Note_on_c, 0, 57, 43
2, 9214, Note_on_c, 0, 50, 0
2, 9219, Note_on_c, 0, 57, 0
2, 9233, Note_on_c, 0, 71, 75
2, 9285, Note_on_c, 0, 71, 0
2, 9313, Note_on_c, 0, 72, 69
2, 9315, Note_on_c, 0, 65, 75
2, 9317, Note_on_c, 0, 64, 57
2, 9317, Note_on_c, 0, 59, 54
2, 9325, Note_on_c, 0, 64, 0
2, 9327, Control_c, 0, 64, 0
2, 9329, Note_on_c, 0, 65, 0
2, 9334, Note_on_c, 0, 59, 0
2, 9336, Note_on_c, 0, 72, 0
2, 9375, Control_c, 0, 64, 127
2, 9430, Note_on_c, 0, 71, 64
2, 9431, Note_on_c, 0, 43, 45
2, 9432, Note_on_c, 0, 68, 52
2, 9433, Control_c, 0, 64, 0
2, 9434, Note_on_c, 0, 63, 47
2, 9434, Note_on_c, 0, 59, 48
2, 9435, Note_on_c, 0, 53, 33
2, 9457, Control_c, 0, 64, 127
2, 9461, Note_on_c, 0, 43, 0
2, 9475, Note_on_c, 0, 53, 0
2, 9503, Note_on_c, 0, 71, 0
2, 9503, Note_on_c, 0, 59, 0
2, 9503, Note_on_c, 0, 68, 0
2, 9516, Note_on_c, 0, 69, 61
2, 9531, Note_on_c, 0, 63, 0
2, 9559, Note_on_c, 0, 69, 0
2, 9592, Note_on_c, 0, 71, 54
2, 9593, Note_on_c, 0, 67, 50
2, 9594, Note_on_c, 0, 62, 53
2, 9594, Note_on_c, 0, 52, 41
2, 9596, Control_c, 0, 64, 0
2, 9596, Note_on_c, 0, 64, 48
2, 9632, Control_c, 0, 64, 127
2, 9664, Note_on_c, 0, 52, 0
2, 9674, Note_on_c, 0, 36, 70
2, 9697, Note_on_c, 0, 67, 0
2, 9699, Note_on_c, 0, 64, 0
2, 9701, Note_on_c, 0, 71, 0
2, 9701, Note_on_c, 0, 62, 0
2, 9723, Note_on_c, 0, 43, 64
2, 9739, Note_on_c, 0, 36, 0
2, 9798, Note_on_c, 0, 62, 80
2, 9798, Note_on_c, 0, 52, 85
2, 9799, Note_on_c, 0, 59, 79
2, 9800, Note_on_c, 0, 57, 72
2, 9810, Control_c, 0, 64, 0
2, 9840, Control_c, 0, 64, 127
2, 9886, Note_on_c, 0, 43, 0
2, 9893, Note_on_c, 0, 52, 0
2, 9912, Note_on_c, 0, 43, 83
2, 9918, Note_on_c, 0, 57, 0
2, 9925, Note_on_c, 0, 59, 0
2, 9936, Note_on_c, 0, 62, 0
2, 9945, Note_on_c, 0, 43, 0
2, 10088, Note_on_c, 0, 62, 80
2, 10088, Note_on_c, 0, 82, 77
2, 10089, Note_on_c, 0, 56, 77
2, 10089, Note_on_c, 0, 67, 85
2, 10089, Note_on_c, 0, 70, 87
2, 10090, Control_c, 0, 64, 0
2, 10090, Note_on_c, 0, 79, 73
2, 10120, Control_c, 0, 64, 127
2, 10141, Note_on_c, 0, 82, 0
2, 10147, Note_on_c, 0, 67, 0
2, 10147, Note_on_c, 0, 56, 0
2, 10149, Note_on_c, 0, 62, 0
2, 10149, Note_on_c, 0, 70, 0
2, 10160, Note_on_c, 0, 79, 0
2, 10166, Note_on_c, 0, 67, 57
2, 10167, Note_on_c, 0, 82, 63
2, 10167, Note_on_c, 0, 56, 54
2, 10167, Note_on_c, 0, 62, 67
2, 10169, Note_on_c, 0, 70, 56
2, 10177, Note_on_c, 0, 79, 20
2, 10184, Note_on_c, 0, 67, 0
2, 10185, Note_on_c, 0, 56, 0
2, 10185, Note_on_c, 0, 79, 0
2, 10187, Note_on_c, 0, 70, 0
2, 10192, Note_on_c, 0, 62, 0
2, 10195, Note_on_c, 0, 82, 0
2, 10204, Control_c, 0, 64, 0
2, 10205, Note_on_c, 0, 67, 71
2, 10206, Note_on_c, 0, 62, 85
2, 10206, Note_on_c, 0, 56, 74
2, 10207, Note_on_c, 0, 84, 78
2, 10208, Note_on_c, 0, 72, 79
2, 10226, Control_c, 0, 64, 127
2, 10249, Note_on_c, 0, 84, 0
2, 10257, Note_on_c, 0, 72, 0
2, 10258, Note_on_c, 0, 56, 0
2, 10264, Note_on_c, 0, 67, 0
2, 10265, Note_on_c, 0, 62, 0
2, 10286, Note_on_c, 0, 62, 59
2, 10287, Note_on_c, 0, 56, 72
2, 10287, Note_on_c, 0, 67, 66
2, 10287, Note_on_c, 0, 82, 69
2, 10290, Note_on_c, 0, 70, 68
2, 10296, Control_c, 0, 64, 0
2, 10320, Control_c, 0, 64, 127
2, 10359, Note_on_c, 0, 70, 0
2, 10359, Note_on_c, 0, 67, 0
2, 10360, Note_on_c, 0, 62, 0
2, 10361, Note_on_c, 0, 82, 0
2, 10363, Note_on_c, 0, 56, 0
2, 10399, Note_on_c, 0, 62, 71
2, 10401, Note_on_c, 0, 84, 71
2, 10401, Note_on_c, 0, 56, 69
2, 10401, Note_on_c, 0, 67, 74
2, 10404, Note_on_c, 0, 72, 72
2, 10420, Control_c, 0, 64, 0
2, 10437, Note_on_c, 0, 84, 0
2, 10444, Control_c, 0, 64, 127
2, 10449, Note_on_c, 0, 72, 0
2, 10450, Note_on_c, 0, 67, 0
2, 10456, Note_on_c, 0, 62, 0
2, 10472, Note_on_c, 0, 56, 0
2, 10520, Note_on_c, 0, 81, 62
2, 10520, Note_on_c, 0, 61, 62
2, 10521, Note_on_c, 0, 76, 66
2, 10521, Note_on_c, 0, 66, 67
2, 10521, Note_on_c, 0, 55, 73
2, 10523, Note_on_c, 0, 69, 66
2, 10526, Note_on_c, 0, 79, 40
2, 10530, Control_c, 0, 64, 0
2, 10562, Control_c, 0, 64, 127
2, 10573, Note_on_c, 0, 69, 0
2, 10575, Note_on_c, 0, 76, 0
2, 10575, Note_on_c, 0, 55, 0
2, 10578, Note_on_c, 0, 79, 0
2, 10580, Note_on_c, 0, 81, 0
2, 10582, Note_on_c, 0, 61, 0
2, 10585, Note_on_c, 0, 66, 0
2, 10640, Note_on_c, 0, 76, 81
2, 10640, Note_on_c, 0, 84, 82
2, 10640, Note_on_c, 0, 73, 77
2, 10641, Note_on_c, 0, 79, 65
2, 10642, Note_on_c, 0, 72, 95
2, 10643, Note_on_c, 0, 82, 56
2, 10646, Control_c, 0, 64, 0
2, 10650, Control_c, 0, 64, 127
2, 10668, Note_on_c, 0, 84, 0
2, 10669, Note_on_c, 0, 79, 0
2, 10669, Note_on_c, 0, 76, 0
2, 10674, Note_on_c, 0, 82, 0
2, 10680, Note_on_c, 0, 72, 0
2, 10688, Note_on_c, 0, 73, 0
2, 10715, Note_on_c, 0, 81, 72
2, 10715, Note_on_c, 0, 69, 80
2, 10716, Note_on_c, 0, 70, 83
2, 10716, Note_on_c, 0, 73, 59
2, 10717, Note_on_c, 0, 76, 69
2, 10723, Note_on_c, 0, 79, 33
2, 10748, Note_on_c, 0, 79, 0
2, 10748, Note_on_c, 0, 81, 0
2, 10754, Note_on_c, 0, 76, 0
2, 10764, Note_on_c, 0, 73, 0
2, 10765, Note_on_c, 0, 70, 0
2, 10774, Note_on_c, 0, 69, 0
2, 10794, Note_on_c, 0, 78, 59
2, 10797, Note_on_c, 0, 66, 62
2, 10797, Note_on_c, 0, 70, 74
2, 10798, Note_on_c, 0, 67, 74
2, 10801, Note_on_c, 0, 73, 35
2, 10825, Note_on_c, 0, 73, 0
2, 10826, Note_on_c, 0, 78, 0
2, 10827, Note_on_c, 0, 70, 0
2, 10838, Note_on_c, 0, 67, 0
2, 10851, Note_on_c, 0, 66, 0
2, 10871, Note_on_c, 0, 75, 74
2, 10873, Note_on_c, 0, 63, 67
2, 10874, Note_on_c, 0, 70, 65
2, 10877, Control_c, 0, 64, 0
2, 10877, Note_on_c, 0, 64, 58
2, 10879, Note_on_c, 0, 65, 60
2, 10879, Note_on_c, 0, 67, 54
2, 10885, Note_on_c, 0, 65, 0
2, 10886, Note_on_c, 0, 67, 0
2, 10888, Note_on_c, 0, 75, 0
2, 10891, Control_c, 0, 64, 127
2, 10892, Note_on_c, 0, 70, 0
2, 10900, Note_on_c, 0, 63, 0
2, 10901, Note_on_c, 0, 64, 0
2, 10951, Note_on_c, 0, 61, 62
2, 10952, Note_on_c, 0, 72, 58
2, 10952, Note_on_c, 0, 64, 66
2, 10953, Note_on_c, 0, 67, 57
2, 10953, Note_on_c, 0, 60, 67
2, 10966, Note_on_c, 0, 70, 23
2, 10981, Note_on_c, 0, 72, 0
2, 10986, Note_on_c, 0, 64, 0
2, 10987, Note_on_c, 0, 67, 0
2, 10988, Note_on_c, 0, 70, 0
2, 10999, Note_on_c, 0, 61, 0
2, 11002, Note_on_c, 0, 60, 0
2, 11032, Control_c, 0, 64, 0
2, 11032, Note_on_c, 0, 57, 72
2, 11034, Note_on_c, 0, 60, 69
2, 11034, Note_on_c, 0, 64, 59
2, 11034, Note_on_c, 0, 69, 53
2, 11035, Note_on_c, 0, 67, 47
2, 11044, Control_c, 0, 64, 127
2, 11049, Note_on_c, 0, 67, 0
2, 11049, Note_on_c, 0, 64, 0
2, 11051, Note_on_c, 0, 69, 0
2, 11051, Note_on_c, 0, 57, 0
2, 11063, Note_on_c, 0, 60, 0
2, 11111, Note_on_c, 0, 64, 78
2, 11113, Note_on_c, 0, 52, 75
2, 11115, Note_on_c, 0, 57, 65
2, 11117, Note_on_c, 0, 60, 66
2, 11118, Control_c, 0, 64, 0
2, 11146, Control_c, 0, 64, 127
2, 11160, Note_on_c, 0, 60, 0
2, 11165, Note_on_c, 0, 57, 0
2, 11175, Note_on_c, 0, 64, 0
2, 11181, Note_on_c, 0, 52, 0
2, 11182, Control_c, 0, 64, 0
2, 11186, Note_on_c, 0, 67, 74
2, 11189, Note_on_c, 0, 57, 73
2, 11189, Note_on_c, 0, 55, 77
2, 11190, Note_on_c, 0, 60, 77
2, 11192, Note_on_c, 0, 64, 40
2, 11194, Control_c, 0, 64, 127
2, 11223, Note_on_c, 0, 64, 0
2, 11238, Note_on_c, 0, 60, 0
2, 11242, Note_on_c, 0, 67, 0
2, 11245, Note_on_c, 0, 57, 0
2, 11258, Note_on_c, 0, 55, 0
2, 11262, Control_c, 0, 64, 0
2, 11265, Note_on_c, 0, 65, 57
2, 11267, Note_on_c, 0, 57, 53
2, 11270, Note_on_c, 0, 60, 67
2, 11271, Note_on_c, 0, 53, 60
2, 11280, Control_c, 0, 64, 127
2, 11289, Note_on_c, 0, 60, 0
2, 11294, Note_on_c, 0, 65, 0
2, 11297, Note_on_c, 0, 53, 0
2, 11298, Note_on_c, 0, 57, 0
2, 11350, Note_on_c, 0, 60, 69
2, 11350, Note_on_c, 0, 48, 46
2, 11353, Note_on_c, 0, 53, 43
2, 11359, Control_c, 0, 64, 0
2, 11359, Note_on_c, 0, 62, 54
2, 11383, Control_c, 0, 64, 127
2, 11408, Note_on_c, 0, 53, 0
2, 11409, Note_on_c, 0, 60, 0
2, 11410, Note_on_c, 0, 48, 0
2, 11415, Note_on_c, 0, 62, 0
2, 11422, Note_on_c, 0, 64, 66
2, 11427, Note_on_c, 0, 50, 58
2, 11428, Note_on_c, 0, 53, 35
2, 11429, Note_on_c, 0, 57, 34
2, 11432, Note_on_c, 0, 62, 24
2, 11437, Note_on_c, 0, 53, 0
2, 11438, Note_on_c, 0, 57, 0
2, 11446, Note_on_c, 0, 62, 0
2, 11448, Note_on_c, 0, 50, 0
2, 11450, Note_on_c, 0, 64, 0
2, 11499, Control_c, 0, 64, 0
2, 11503, Note_on_c, 0, 65, 52
2, 11503, Note_on_c, 0, 56, 40
2, 11503, Note_on_c, 0, 41, 53
2, 11504, Note_on_c, 0, 51, 52
2, 11504, Note_on_c, 0, 63, 40
2, 11507, Note_on_c, 0, 60, 52
2, 11518, Control_c, 0, 64, 127
2, 11529, Note_on_c, 0, 60, 0
2, 11533, Note_on_c, 0, 65, 0
2, 11537, Note_on_c, 0, 56, 0
2, 11541, Note_on_c, 0, 63, 0
2, 11557, Note_on_c, 0, 55, 53
2, 11575, Note_on_c, 0, 55, 0
2, 11576, Note_on_c, 0, 56, 52
2, 11588, Control_c, 0, 64, 0
2, 11589, Note_on_c, 0, 58, 57
2, 11593, Note_on_c, 0, 56, 0
2, 11600, Note_on_c, 0, 58, 0
2, 11613, Note_on_c, 0, 60, 51
2, 11622, Note_on_c, 0, 41, 0
2, 11634, Note_on_c, 0, 60, 0
2, 11635, Note_on_c, 0, 62, 56
2, 11646, Note_on_c, 0, 63, 53
2, 11647, Note_on_c, 0, 62, 0
2, 11649, Note_on_c, 0, 51, 0
2, 11660, Note_on_c, 0, 63, 0
2, 11670, Note_on_c, 0, 65, 64
2, 11690, Note_on_c, 0, 65, 0
2, 11695, Note_on_c, 0, 67, 50
2, 11700, Note_on_c, 0, 68, 57
2, 11708, Note_on_c, 0, 67, 0
2, 11714, Note_on_c, 0, 70, 53
2, 11715, Note_on_c, 0, 68, 0
2, 11721, Note_on_c, 0, 70, 0
2, 11735, Note_on_c, 0, 72, 31
2, 11747, Note_on_c, 0, 72, 0
2, 11755, Note_on_c, 0, 74, 51
2, 11768, Note_on_c, 0, 74, 0
2, 11774, Note_on_c, 0, 75, 40
2, 11782, Control_c, 0, 64, 127
2, 11786, Note_on_c, 0, 75, 0
2, 11788, Note_on_c, 0, 76, 63
2, 11798, Control_c, 0, 64, 0
2, 11807, Note_on_c, 0, 62, 62
2, 11808, Note_on_c, 0, 67, 66
2, 11809, Note_on_c, 0, 77, 72
2, 11809, Note_on_c, 0, 56, 51
2, 11813, Note_on_c, 0, 76, 0
2, 11831, Note_on_c, 0, 77, 0
2, 11861, Note_on_c, 0, 74, 74
2, 11873, Control_c, 0, 64, 127
2, 11883, Note_on_c, 0, 67, 0
2, 11885, Note_on_c, 0, 74, 0
2, 11905, Note_on_c, 0, 70, 72
2, 11926, Note_on_c, 0, 70, 0
2, 11934, Note_on_c, 0, 62, 0
2, 11942, Note_on_c, 0, 67, 33
2, 11953, Note_on_c, 0, 67, 0
2, 11953, Note_on_c, 0, 56, 0
2, 11971, Note_on_c, 0, 79, 73
2, 12001, Note_on_c, 0, 79, 0
2, 12004, Note_on_c, 0, 77, 62
2, 12008, Note_on_c, 0, 67, 44
2, 12012, Note_on_c, 0, 62, 32
2, 12017, Note_on_c, 0, 64, 37
2, 12019, Control_c, 0, 64, 0
2, 12046, Note_on_c, 0, 67, 0
2, 12053, Control_c, 0, 64, 127
2, 12063, Note_on_c, 0, 76, 63
2, 12076, Note_on_c, 0, 77, 0
2, 12088, Note_on_c, 0, 76, 0
2, 12102, Note_on_c, 0, 72, 64
2, 12122, Note_on_c, 0, 72, 0
2, 12123, Control_c, 0, 64, 0
2, 12136, Note_on_c, 0, 55, 51
2, 12137, Control_c, 0, 64, 127
2, 12138, Note_on_c, 0, 67, 46
2, 12156, Note_on_c, 0, 62, 0
2, 12167, Note_on_c, 0, 64, 0
2, 12206, Note_on_c, 0, 67, 0
2, 12220, Note_on_c, 0, 62, 40
2, 12221, Note_on_c, 0, 67, 68
2, 12222, Note_on_c, 0, 64, 50
2, 12277, Note_on_c, 0, 67, 0
2, 12291, Note_on_c, 0, 55, 0
2, 12325, Note_on_c, 0, 55, 65
2, 12371, Note_on_c, 0, 55, 0
2, 12375, Note_on_c, 0, 64, 0
2, 12382, Note_on_c, 0, 62, 0
2, 12438, Note_on_c, 0, 62, 67
2, 12439, Note_on_c, 0, 79, 75
2, 12439, Note_on_c, 0, 57, 65
2, 12439, Note_on_c, 0, 65, 72
2, 12442, Note_on_c, 0, 69, 79
2, 12442, Note_on_c, 0, 74, 80
2, 12453, Control_c, 0, 64, 0
2, 12483, Control_c, 0, 64, 127
2, 12514, Note_on_c, 0, 57, 0
2, 12541, Note_on_c, 0, 69, 0
2, 12541, Note_on_c, 0, 62, 0
2, 12546, Note_on_c, 0, 74, 0
2, 12548, Note_on_c, 0, 65, 0
2, 12552, Note_on_c, 0, 79, 0
2, 12557, Note_on_c, 0, 57, 54
2, 12568, Note_on_c, 0, 57, 0
2, 12591, Control_c, 0, 64, 0
2, 12594, Note_on_c, 0, 79, 66
2, 12596, Note_on_c, 0, 74, 69
2, 12597, Note_on_c, 0, 69, 62
2, 12597, Note_on_c, 0, 57, 58
2, 12598, Note_on_c, 0, 65, 64
2, 12602, Note_on_c, 0, 62, 42
2, 12623, Control_c, 0, 64, 127
2, 12649, Note_on_c, 0, 57, 0
2, 12649, Note_on_c, 0, 69, 0
2, 12650, Note_on_c, 0, 74, 0
2, 12658, Note_on_c, 0, 79, 0
2, 12658, Note_on_c, 0, 65, 0
2, 12659, Note_on_c, 0, 62, 0
2, 12674, Note_on_c, 0, 79, 48
2, 12675, Note_on_c, 0, 62, 52
2, 12676, Note_on_c, 0, 69, 68
2, 12676, Note_on_c, 0, 74, 64
2, 12677, Note_on_c, 0, 56, 55
2, 12681, Control_c, 0, 64, 0
2, 12709, Control_c, 0, 64, 127
2, 12725, Note_on_c, 0, 74, 0
2, 12730, Note_on_c, 0, 79, 0
2, 12733, Note_on_c, 0, 69, 0
2, 12738, Note_on_c, 0, 56, 0
2, 12745, Note_on_c, 0, 62, 0
2, 12790, Note_on_c, 0, 77, 59
2, 12792, Note_on_c, 0, 68, 62
2, 12792, Note_on_c, 0, 74, 55
2, 12797, Note_on_c, 0, 62, 59
2, 12797, Note_on_c, 0, 56, 46
2, 12802, Control_c, 0, 64, 0
2, 12830, Control_c, 0, 64, 127
2, 12847, Note_on_c, 0, 62, 0
2, 12854, Note_on_c, 0, 77, 0
2, 12856, Note_on_c, 0, 74, 0
2, 12858, Note_on_c, 0, 68, 0
2, 12866, Note_on_c, 0, 56, 0
2, 12928, Note_on_c, 0, 56, 19
2, 12955, Note_on_c, 0, 56, 0
2, 12962, Note_on_c, 0, 71, 53
2, 12963, Note_on_c, 0, 68, 38
2, 12964, Note_on_c, 0, 64, 54
2, 12965, Note_on_c, 0, 60, 46
2, 12966, Note_on_c, 0, 59, 47
2, 12970, Control_c, 0, 64, 0
2, 13012, Note_on_c, 0, 68, 0
2, 13019, Note_on_c, 0, 60, 0
2, 13023, Note_on_c, 0, 64, 0
2, 13032, Control_c, 0, 64, 127
2, 13033, Note_on_c, 0, 71, 0
2, 13041, Note_on_c, 0, 59, 0
2, 13045, Note_on_c, 0, 56, 34
2, 13045, Note_on_c, 0, 68, 25
2, 13064, Control_c, 0, 64, 0
2, 13072, Note_on_c, 0, 68, 0
2, 13073, Note_on_c, 0, 56, 0
2, 13085, Note_on_c, 0, 57, 53
2, 13087, Note_on_c, 0, 69, 35
2, 13094, Control_c, 0, 64, 127
2, 13111, Note_on_c, 0, 69, 0
2, 13145, Note_on_c, 0, 57, 0
2, 13159, Note_on_c, 0, 74, 67
2, 13161, Note_on_c, 0, 64, 68
2, 13161, Note_on_c, 0, 71, 57
2, 13162, Note_on_c, 0, 67, 62
2, 13162, Note_on_c, 0, 59, 64
2, 13173, Control_c, 0, 64, 0
2, 13199, Control_c, 0, 64, 127
2, 13253, Note_on_c, 0, 71, 0
2, 13265, Note_on_c, 0, 67, 0
2, 13271, Note_on_c, 0, 74, 0
2, 13278, Note_on_c, 0, 71, 25
2, 13281, Note_on_c, 0, 59, 0
2, 13284, Note_on_c, 0, 64, 0
2, 13303, Note_on_c, 0, 71, 0
2, 13320, Note_on_c, 0, 72, 50
2, 13358, Note_on_c, 0, 72, 0
2, 13421, Control_c, 0, 64, 0
2, 13429, Control_c, 0, 64, 127
2, 13513, Note_on_c, 0, 74, 59
2, 13514, Note_on_c, 0, 66, 55
2, 13514, Note_on_c, 0, 62, 64
2, 13514, Note_on_c, 0, 50, 51
2, 13516, Note_on_c, 0, 38, 42
2, 13519, Note_on_c, 0, 69, 40
2, 13522, Control_c, 0, 64, 0
2, 13527, Note_on_c, 0, 69, 0
2, 13527, Note_on_c, 0, 66, 0
2, 13527, Note_on_c, 0, 62, 0
2, 13527, Note_on_c, 0, 50, 0
2, 13529, Note_on_c, 0, 38, 0
2, 13534, Note_on_c, 0, 74, 0
2, 13592, Control_c, 0, 64, 127
2, 13596, Note_on_c, 0, 74, 57
2, 13596, Note_on_c, 0, 66, 52
2, 13598, Note_on_c, 0, 38, 40
2, 13598, Note_on_c, 0, 62, 53
2, 13600, Note_on_c, 0, 50, 40
2, 13600, Note_on_c, 0, 69, 44
2, 13607, Note_on_c, 0, 38, 0
2, 13608, Note_on_c, 0, 62, 0
2, 13610, Note_on_c, 0, 50, 0
2, 13613, Note_on_c, 0, 66, 0
2, 13619, Note_on_c, 0, 69, 0
2, 13625, Note_on_c, 0, 74, 0
2, 13680, Control_c, 0, 64, 0
2, 13680, Note_on_c, 0, 66, 50
2, 13682, Note_on_c, 0, 74, 66
2, 13685, Note_on_c, 0, 63, 25
2, 13685, Note_on_c, 0, 51, 36
2, 13685, Note_on_c, 0, 39, 35
2, 13686, Note_on_c, 0, 69, 38
2, 13702, Control_c, 0, 64, 127
2, 13725, Note_on_c, 0, 39, 0
2, 13727, Note_on_c, 0, 69, 0
2, 13729, Note_on_c, 0, 51, 0
2, 13733, Note_on_c, 0, 66, 0
2, 13736, Note_on_c, 0, 63, 0
2, 13740, Note_on_c, 0, 74, 0
2, 13767, Note_on_c, 0, 51, 43
2, 13767, Note_on_c, 0, 63, 50
2, 13767, Note_on_c, 0, 72, 54
2, 13769, Note_on_c, 0, 66, 42
2, 13772, Note_on_c, 0, 69, 44
2, 13787, Note_on_c, 0, 51, 0
2, 13799, Note_on_c, 0, 63, 0
2, 13803, Note_on_c, 0, 72, 0
2, 13810, Note_on_c, 0, 69, 0
2, 13838, Note_on_c, 0, 66, 0
2, 13850, Note_on_c, 0, 69, 17
2, 13883, Note_on_c, 0, 69, 0
2, 13927, Note_on_c, 0, 72, 79
2, 13928, Note_on_c, 0, 69, 77
2, 13929, Note_on_c, 0, 62, 90
2, 13929, Note_on_c, 0, 65, 84
2, 13929, Note_on_c, 0, 60, 87
2, 13935, Control_c, 0, 64, 0
2, 13963, Control_c, 0, 64, 127
2, 13982, Note_on_c, 0, 72, 0
2, 13986, Note_on_c, 0, 62, 0
2, 13989, Note_on_c, 0, 60, 0
2, 13989, Note_on_c, 0, 65, 0
2, 13993, Note_on_c, 0, 69, 0
2, 14005, Note_on_c, 0, 60, 68
2, 14007, Note_on_c, 0, 72, 50
2, 14008, Note_on_c, 0, 62, 46
2, 14009, Note_on_c, 0, 65, 67
2, 14010, Note_on_c, 0, 69, 63
2, 14032, Note_on_c, 0, 62, 0
2, 14032, Note_on_c, 0, 72, 0
2, 14033, Note_on_c, 0, 65, 0
2, 14037, Note_on_c, 0, 69, 0
2, 14038, Note_on_c, 0, 60, 0
2, 14051, Note_on_c, 0, 57, 57
2, 14116, Note_on_c, 0, 57, 0
2, 14121, Note_on_c, 0, 62, 55
2, 14122, Note_on_c, 0, 60, 58
2, 14122, Note_on_c, 0, 65, 57
2, 14126, Note_on_c, 0, 53, 50
2, 14127, Control_c, 0, 64, 0
2, 14136, Note_on_c, 0, 53, 0
2, 14145, Control_c, 0, 64, 127
2, 14150, Note_on_c, 0, 65, 0
2, 14153, Note_on_c, 0, 62, 0
2, 14161, Note_on_c, 0, 60, 0
2, 14235, Note_on_c, 0, 60, 58
2, 14236, Note_on_c, 0, 57, 49
2, 14236, Note_on_c, 0, 43, 61
2, 14238, Note_on_c, 0, 55, 59
2, 14244, Control_c, 0, 64, 0
2, 14264, Control_c, 0, 64, 127
2, 14295, Note_on_c, 0, 57, 0
2, 14326, Note_on_c, 0, 60, 0
2, 14334, Note_on_c, 0, 43, 0
2, 14358, Note_on_c, 0, 55, 0
2, 14360, Note_on_c, 0, 43, 38
2, 14387, Note_on_c, 0, 43, 0
2, 14395, Note_on_c, 0, 43, 17
2, 14395, Note_on_c, 0, 63, 77
2, 14396, Note_on_c, 0, 71, 71
2, 14398, Note_on_c, 0, 59, 69
2, 14401, Note_on_c, 0, 53, 62
2, 14406, Control_c, 0, 64, 0
2, 14416, Note_on_c, 0, 64, 65
2, 14419, Note_on_c, 0, 63, 0
2, 14443, Note_on_c, 0, 43, 0
2, 14450, Control_c, 0, 64, 127
2, 14462, Control_c, 0, 64, 0
2, 14475, Note_on_c, 0, 43, 66
2, 14503, Control_c, 0, 64, 127
2, 14561, Note_on_c, 0, 53, 0
2, 14587, Note_on_c, 0, 64, 0
2, 14592, Note_on_c, 0, 59, 0
2, 14619, Note_on_c, 0, 71, 0
2, 14637, Control_c, 0, 64, 0
2, 14644, Note_on_c, 0, 69, 50
2, 14644, Note_on_c, 0, 59, 43
2, 14647, Note_on_c, 0, 53, 40
2, 14648, Note_on_c, 0, 64, 43
2, 14684, Note_on_c, 0, 64, 0
2, 14688, Note_on_c, 0, 43, 0
2, 14689, Note_on_c, 0, 59, 0
2, 14692, Note_on_c, 0, 69, 0
2, 14698, Note_on_c, 0, 53, 0
2, 14754, Note_on_c, 0, 43, 38
2, 14756, Note_on_c, 0, 71, 48
2, 14757, Note_on_c, 0, 64, 48
2, 14759, Note_on_c, 0, 59, 43
2, 14760, Note_on_c, 0, 53, 19
2, 14777, Control_c, 0, 64, 127
2, 14785, Note_on_c, 0, 59, 0
2, 14788, Note_on_c, 0, 64, 0
2, 14789, Note_on_c, 0, 53, 0
2, 14801, Note_on_c, 0, 71, 0
2, 14855, Note_on_c, 0, 43, 0
2, 14882, Note_on_c, 0, 62, 71
2, 14882, Note_on_c, 0, 72, 70
2, 14884, Control_c, 0, 64, 0
2, 14884, Note_on_c, 0, 67, 67
2, 14961, Note_on_c, 0, 52, 87
2, 15002, Control_c, 0, 64, 127
2, 15112, Note_on_c, 0, 62, 0
2, 15120, Note_on_c, 0, 52, 0
2, 15120, Note_on_c, 0, 67, 0
2, 15122, Note_on_c, 0, 72, 0
2, 15196, Control_c, 0, 64, 0
2, 15197, Note_on_c, 0, 74, 78
2, 15198, Note_on_c, 0, 67, 80
2, 15200, Note_on_c, 0, 63, 73
2, 15204, Note_on_c, 0, 53, 64
2, 15221, Control_c, 0, 64, 127
2, 15231, Note_on_c, 0, 53, 0
2, 15252, Note_on_c, 0, 74, 0
2, 15264, Note_on_c, 0, 67, 0
2, 15273, Note_on_c, 0, 63, 0
2, 15275, Note_on_c, 0, 72, 73
2, 15328, Note_on_c, 0, 72, 0
2, 15359, Control_c, 0, 64, 0
2, 15359, Note_on_c, 0, 58, 42
2, 15360, Note_on_c, 0, 67, 58
2, 15360, Note_on_c, 0, 62, 50
2, 15364, Note_on_c, 0, 52, 41
2, 15391, Control_c, 0, 64, 127
2, 15455, Note_on_c, 0, 52, 0
2, 15474, Note_on_c, 0, 62, 0
2, 15477, Note_on_c, 0, 58, 0
2, 15507, Note_on_c, 0, 67, 0
2, 15602, Note_on_c, 0, 66, 44
2, 15603, Note_on_c, 0, 61, 43
2, 15604, Control_c, 0, 64, 0
2, 15605, Note_on_c, 0, 55, 46
2, 15648, Control_c, 0, 64, 127
2, 15681, Note_on_c, 0, 76, 62
2, 15701, Note_on_c, 0, 76, 0
2, 15722, Note_on_c, 0, 79, 66
2, 15723, Note_on_c, 0, 55, 0
2, 15723, Note_on_c, 0, 66, 0
2, 15734, Note_on_c, 0, 61, 0
2, 15740, Control_c, 0, 64, 0
2, 15745, Note_on_c, 0, 79, 0
2, 15761, Note_on_c, 0, 77, 55
2, 15788, Note_on_c, 0, 77, 0
2, 15802, Note_on_c, 0, 73, 38
2, 15814, Note_on_c, 0, 60, 33
2, 15816, Note_on_c, 0, 50, 30
2, 15816, Note_on_c, 0, 57, 36
2, 15818, Note_on_c, 0, 53, 33
2, 15829, Note_on_c, 0, 73, 0
2, 15846, Note_on_c, 0, 76, 57
2, 15868, Note_on_c, 0, 76, 0
2, 15891, Note_on_c, 0, 74, 60
2, 15913, Note_on_c, 0, 74, 0
2, 15929, Note_on_c, 0, 69, 56
2, 15938, Note_on_c, 0, 69, 0
2, 15968, Note_on_c, 0, 72, 83
2, 15993, Note_on_c, 0, 72, 0
2, 16000, Note_on_c, 0, 74, 44
2, 16006, Note_on_c, 0, 53, 0
2, 16010, Note_on_c, 0, 57, 0
2, 16011, Note_on_c, 0, 50, 0
2, 16013, Note_on_c, 0, 72, 35
2, 16024, Note_on_c, 0, 74, 0
2, 16030, Note_on_c, 0, 60, 0
2, 16037, Note_on_c, 0, 72, 0
2, 16043, Note_on_c, 0, 69, 36
2, 16045, Control_c, 0, 64, 127
2, 16065, Note_on_c, 0, 69, 0
2, 16071, Note_on_c, 0, 70, 56
2, 16083, Control_c, 0, 64, 0
2, 16092, Note_on_c, 0, 70, 0
2, 16095, Note_on_c, 0, 64, 36
2, 16096, Note_on_c, 0, 59, 33
2, 16102, Note_on_c, 0, 71, 45
2, 16116, Note_on_c, 0, 53, 6
2, 16127, Note_on_c, 0, 71, 0
2, 16139, Note_on_c, 0, 82, 74
2, 16157, Control_c, 0, 64, 127
2, 16164, Note_on_c, 0, 82, 0
2, 16185, Control_c, 0, 64, 0
2, 16211, Control_c, 0, 64, 127
2, 16212, Note_on_c, 0, 80, 54
2, 16240, Note_on_c, 0, 59, 0
2, 16243, Note_on_c, 0, 80, 0
2, 16244, Note_on_c, 0, 64, 0
2, 16264, Note_on_c, 0, 53, 0
2, 16282, Note_on_c, 0, 79, 57
2, 16310, Control_c, 0, 64, 0
2, 16318, Note_on_c, 0, 58, 26
2, 16319, Note_on_c, 0, 52, 34
2, 16319, Note_on_c, 0, 62, 24
2, 16330, Control_c, 0, 64, 127
2, 16350, Note_on_c, 0, 52, 0
2, 16354, Note_on_c, 0, 58, 0
2, 16363, Note_on_c, 0, 62, 0
2, 16437, Note_on_c, 0, 62, 37
2, 16438, Control_c, 0, 64, 0
2, 16439, Note_on_c, 0, 67, 36
2, 16443, Note_on_c, 0, 56, 30
2, 16466, Control_c, 0, 64, 127
2, 16484, Note_on_c, 0, 62, 0
2, 16487, Note_on_c, 0, 67, 0
2, 16514, Note_on_c, 0, 56, 0
2, 16520, Note_on_c, 0, 79, 0
2, 16561, Note_on_c, 0, 65, 34
2, 16562, Note_on_c, 0, 55, 36
2, 16562, Note_on_c, 0, 61, 36
2, 16562, Control_c, 0, 64, 0
2, 16578, Note_on_c, 0, 65, 0
2, 16591, Note_on_c, 0, 61, 0
2, 16594, Note_on_c, 0, 55, 0
2, 16644, Note_on_c, 0, 81, 50
2, 16665, Note_on_c, 0, 81, 0
2, 16671, Note_on_c, 0, 39, 36
2, 16678, Note_on_c, 0, 84, 68
2, 16679, Note_on_c, 0, 72, 63
2, 16687, Control_c, 0, 64, 127
2, 16704, Note_on_c, 0, 39, 0
2, 16713, Control_c, 0, 64, 0
2, 16721, Control_c, 0, 64, 127
2, 16730, Note_on_c, 0, 72, 0
2, 16731, Note_on_c, 0, 84, 0
2, 16758, Note_on_c, 0, 38, 57
2, 16765, Note_on_c, 0, 84, 68
2, 16767, Note_on_c, 0, 72, 58
2, 16775, Control_c, 0, 64, 0
2, 16776, Note_on_c, 0, 38, 0
2, 16796, Note_on_c, 0, 53, 36
2, 16807, Control_c, 0, 64, 127
2, 16820, Note_on_c, 0, 53, 0
2, 16867, Note_on_c, 0, 72, 0
2, 16873, Note_on_c, 0, 84, 0
2, 16884, Note_on_c, 0, 81, 46
2, 16893, Note_on_c, 0, 81, 0
2, 16913, Control_c, 0, 64, 0
2, 16918, Note_on_c, 0, 57, 33
2, 16923, Note_on_c, 0, 53, 25
2, 16928, Note_on_c, 0, 57, 0
2, 16937, Note_on_c, 0, 53, 0
2, 16947, Control_c, 0, 64, 127
2, 16991, Note_on_c, 0, 43, 61
2, 16998, Note_on_c, 0, 43, 0
2, 17016, Control_c, 0, 64, 0
2, 17034, Note_on_c, 0, 59, 62
2, 17035, Note_on_c, 0, 53, 65
2, 17036, Note_on_c, 0, 84, 76
2, 17037, Note_on_c, 0, 81, 68
2, 17037, Note_on_c, 0, 72, 74
2, 17037, Note_on_c, 0, 65, 53
2, 17038, Note_on_c, 0, 64, 50
2, 17046, Note_on_c, 0, 65, 0
2, 17048, Control_c, 0, 64, 127
2, 17104, Note_on_c, 0, 53, 0
2, 17104, Note_on_c, 0, 81, 0
2, 17106, Note_on_c, 0, 59, 0
2, 17109, Note_on_c, 0, 64, 0
2, 17111, Note_on_c, 0, 84, 0
2, 17119, Note_on_c, 0, 72, 0
2, 17156, Control_c, 0, 64, 0
2, 17160, Note_on_c, 0, 83, 58
2, 17160, Note_on_c, 0, 63, 58
2, 17160, Note_on_c, 0, 59, 53
2, 17161, Note_on_c, 0, 53, 51
2, 17162, Note_on_c, 0, 79, 50
2, 17163, Note_on_c, 0, 71, 49
2, 17184, Control_c, 0, 64, 127
2, 17193, Note_on_c, 0, 59, 0
2, 17197, Note_on_c, 0, 83, 0
2, 17200, Note_on_c, 0, 79, 0
2, 17209, Note_on_c, 0, 63, 0
2, 17211, Note_on_c, 0, 71, 0
2, 17217, Note_on_c, 0, 53, 0
2, 17274, Control_c, 0, 64, 0
2, 17283, Note_on_c, 0, 62, 47
2, 17283, Note_on_c, 0, 79, 37
2, 17284, Note_on_c, 0, 74, 46
2, 17284, Note_on_c, 0, 67, 47
2, 17286, Note_on_c, 0, 52, 35
2, 17286, Note_on_c, 0, 57, 38
2, 17298, Control_c, 0, 64, 127
2, 17310, Note_on_c, 0, 79, 0
2, 17312, Note_on_c, 0, 74, 0
2, 17324, Note_on_c, 0, 67, 0
2, 17341, Note_on_c, 0, 62, 0
2, 17357, Note_on_c, 0, 57, 0
2, 17376, Note_on_c, 0, 52, 0
2, 17397, Note_on_c, 0, 63, 54
2, 17399, Control_c, 0, 64, 0
2, 17399, Note_on_c, 0, 62, 48
2, 17399, Note_on_c, 0, 71, 50
2, 17401, Note_on_c, 0, 66, 51
2, 17404, Note_on_c, 0, 57, 41
2, 17404, Note_on_c, 0, 52, 28
2, 17425, Control_c, 0, 64, 127
2, 17451, Note_on_c, 0, 62, 0
2, 17460, Note_on_c, 0, 63, 0
2, 17467, Note_on_c, 0, 71, 0
2, 17480, Note_on_c, 0, 66, 0
2, 17508, Note_on_c, 0, 57, 0
2, 17519, Control_c, 0, 64, 0
2, 17520, Note_on_c, 0, 62, 54
2, 17521, Note_on_c, 0, 67, 47
2, 17524, Note_on_c, 0, 59, 29
2, 17537, Control_c, 0, 64, 127
2, 17563, Note_on_c, 0, 52, 0
2, 17642, Note_on_c, 0, 62, 0
2, 17642, Note_on_c, 0, 52, 39
2, 17672, Note_on_c, 0, 67, 0
2, 17703, Note_on_c, 0, 52, 0
2, 17705, Note_on_c, 0, 59, 0
2, 17761, Note_on_c, 0, 70, 90
2, 17762, Note_on_c, 0, 58, 56
2, 17764, Note_on_c, 0, 62, 66
2, 17764, Note_on_c, 0, 67, 87
2, 17766, Note_on_c, 0, 52, 61
2, 17770, Control_c, 0, 64, 0
2, 17801, Note_on_c, 0, 69, 71
2, 17801, Note_on_c, 0, 72, 60
2, 17812, Note_on_c, 0, 67, 0
2, 17816, Note_on_c, 0, 70, 0
2, 17821, Note_on_c, 0, 72, 0
2, 17827, Note_on_c, 0, 69, 0
2, 17829, Note_on_c, 0, 62, 0
2, 17829, Note_on_c, 0, 70, 55
2, 17832, Note_on_c, 0, 74, 79
2, 17836, Control_c, 0, 64, 127
2, 17849, Note_on_c, 0, 58, 0
2, 17857, Note_on_c, 0, 70, 0
2, 17860, Note_on_c, 0, 74, 0
2, 17867, Note_on_c, 0, 72, 61
2, 17868, Note_on_c, 0, 69, 74
2, 17883, Note_on_c, 0, 62, 40
2, 17885, Note_on_c, 0, 58, 30
2, 17886, Control_c, 0, 64, 0
2, 17890, Note_on_c, 0, 69, 0
2, 17892, Note_on_c, 0, 72, 0
2, 17898, Note_on_c, 0, 67, 39
2, 17899, Note_on_c, 0, 70, 58
2, 17928, Note_on_c, 0, 70, 0
2, 17933, Note_on_c, 0, 67, 0
2, 17938, Note_on_c, 0, 58, 0
2, 17940, Note_on_c, 0, 62, 0
2, 17948, Note_on_c, 0, 52, 0
2, 18005, Note_on_c, 0, 62, 27
2, 18007, Note_on_c, 0, 58, 26
2, 18010, Note_on_c, 0, 52, 27
2, 18051, Note_on_c, 0, 52, 0
2, 18059, Note_on_c, 0, 62, 0
2, 18066, Note_on_c, 0, 58, 0
2, 18122, Note_on_c, 0, 58, 29
2, 18125, Note_on_c, 0, 62, 24
2, 18129, Note_on_c, 0, 52, 29
2, 18147, Control_c, 0, 64, 127
2, 18154, Note_on_c, 0, 52, 0
2, 18168, Note_on_c, 0, 58, 0
2, 18190, Note_on_c, 0, 62, 0
2, 18241, Control_c, 0, 64, 0
2, 18245, Note_on_c, 0, 55, 35
2, 18247, Note_on_c, 0, 61, 33
2, 18269, Control_c, 0, 64, 127
2, 18288, Note_on_c, 0, 55, 0
2, 18294, Note_on_c, 0, 61, 0
2, 18328, Note_on_c, 0, 76, 64
2, 18329, Note_on_c, 0, 73, 44
2, 18329, Note_on_c, 0, 81, 60
2, 18330, Note_on_c, 0, 69, 69
2, 18335, Note_on_c, 0, 79, 32
2, 18337, Note_on_c, 0, 69, 0
2, 18342, Note_on_c, 0, 73, 0
2, 18344, Note_on_c, 0, 76, 0
2, 18346, Note_on_c, 0, 79, 0
2, 18348, Note_on_c, 0, 81, 0
2, 18373, Note_on_c, 0, 73, 83
2, 18374, Control_c, 0, 64, 0
2, 18374, Note_on_c, 0, 71, 84
2, 18375, Note_on_c, 0, 84, 73
2, 18376, Note_on_c, 0, 76, 75
2, 18377, Note_on_c, 0, 82, 49
2, 18408, Control_c, 0, 64, 127
2, 18412, Note_on_c, 0, 76, 0
2, 18415, Note_on_c, 0, 71, 0
2, 18421, Note_on_c, 0, 84, 0
2, 18423, Note_on_c, 0, 82, 0
2, 18424, Note_on_c, 0, 73, 0
2, 18447, Note_on_c, 0, 73, 73
2, 18449, Note_on_c, 0, 84, 61
2, 18450, Note_on_c, 0, 76, 64
2, 18451, Note_on_c, 0, 72, 80
2, 18454, Note_on_c, 0, 82, 36
2, 18457, Note_on_c, 0, 79, 26
2, 18460, Note_on_c, 0, 76, 0
2, 18462, Note_on_c, 0, 82, 0
2, 18464, Note_on_c, 0, 84, 0
2, 18465, Note_on_c, 0, 79, 0
2, 18468, Note_on_c, 0, 72, 0
2, 18476, Note_on_c, 0, 73, 0
2, 18487, Note_on_c, 0, 82, 43
2, 18488, Control_c, 0, 64, 0
2, 18498, Note_on_c, 0, 69, 60
2, 18514, Note_on_c, 0, 82, 0
2, 18518, Control_c, 0, 64, 127
2, 18543, Note_on_c, 0, 69, 0
2, 18563, Note_on_c, 0, 81, 76
2, 18564, Note_on_c, 0, 70, 74
2, 18565, Note_on_c, 0, 69, 38
2, 18566, Note_on_c, 0, 76, 53
2, 18566, Note_on_c, 0, 73, 39
2, 18590, Note_on_c, 0, 81, 0
2, 18591, Note_on_c, 0, 76, 0
2, 18591, Note_on_c, 0, 70, 0
2, 18592, Note_on_c, 0, 73, 0
2, 18597, Note_on_c, 0, 69, 0
2, 18601, Control_c, 0, 64, 0
2, 18608, Note_on_c, 0, 70, 51
2, 18613, Note_on_c, 0, 73, 25
2, 18613, Note_on_c, 0, 79, 35
2, 18613, Note_on_c, 0, 76, 28
2, 18627, Note_on_c, 0, 79, 0
2, 18639, Control_c, 0, 64, 127
2, 18648, Note_on_c, 0, 73, 0
2, 18651, Note_on_c, 0, 70, 0
2, 18678, Note_on_c, 0, 70, 59
2, 18681, Note_on_c, 0, 73, 34
2, 18684, Note_on_c, 0, 61, 39
2, 18701, Note_on_c, 0, 70, 0
2, 18705, Note_on_c, 0, 76, 0
2, 18705, Note_on_c, 0, 73, 0
2, 18713, Control_c, 0, 64, 0
2, 18717, Note_on_c, 0, 61, 0
2, 18725, Note_on_c, 0, 69, 49
2, 18725, Note_on_c, 0, 79, 50
2, 18727, Note_on_c, 0, 64, 49
2, 18749, Control_c, 0, 64, 127
2, 18766, Note_on_c, 0, 64, 0
2, 18768, Note_on_c, 0, 69, 0
2, 18770, Note_on_c, 0, 79, 0
2, 18793, Note_on_c, 0, 79, 42
2, 18797, Note_on_c, 0, 69, 66
2, 18797, Note_on_c, 0, 64, 52
2, 18800, Note_on_c, 0, 72, 59
2, 18814, Note_on_c, 0, 79, 0
2, 18817, Note_on_c, 0, 69, 0
2, 18820, Note_on_c, 0, 72, 0
2, 18825, Control_c, 0, 64, 0
2, 18837, Note_on_c, 0, 64, 0
2, 18840, Note_on_c, 0, 62, 48
2, 18841, Note_on_c, 0, 77, 24
2, 18841, Note_on_c, 0, 69, 36
2, 18842, Note_on_c, 0, 72, 49
2, 18859, Control_c, 0, 64, 127
2, 18868, Note_on_c, 0, 72, 0
2, 18873, Note_on_c, 0, 62, 0
2, 18875, Note_on_c, 0, 69, 0
2, 18884, Note_on_c, 0, 77, 0
2, 18912, Note_on_c, 0, 77, 68
2, 18914, Note_on_c, 0, 69, 66
2, 18914, Note_on_c, 0, 62, 53
2, 18919, Note_on_c, 0, 72, 37
2, 18926, Note_on_c, 0, 72, 0
2, 18932, Note_on_c, 0, 69, 0
2, 18933, Note_on_c, 0, 77, 0
2, 18940, Note_on_c, 0, 62, 0
2, 18942, Control_c, 0, 64, 0
2, 18956, Note_on_c, 0, 76, 54
2, 18958, Note_on_c, 0, 65, 53
2, 18960, Note_on_c, 0, 69, 51
2, 18961, Note_on_c, 0, 61, 47
2, 18964, Control_c, 0, 64, 127
2, 18988, Note_on_c, 0, 69, 0
2, 18992, Note_on_c, 0, 65, 0
2, 18996, Note_on_c, 0, 76, 0
2, 18999, Note_on_c, 0, 61, 0
2, 19028, Note_on_c, 0, 76, 71
2, 19029, Note_on_c, 0, 61, 56
2, 19031, Note_on_c, 0, 65, 61
2, 19032, Note_on_c, 0, 69, 66
2, 19050, Note_on_c, 0, 65, 0
2, 19055, Note_on_c, 0, 69, 0
2, 19056, Control_c, 0, 64, 0
2, 19061, Note_on_c, 0, 76, 0
2, 19065, Note_on_c, 0, 61, 0
2, 19074, Control_c, 0, 64, 127
2, 19076, Note_on_c, 0, 60, 51
2, 19076, Note_on_c, 0, 69, 37
2, 19077, Note_on_c, 0, 74, 43
2, 19078, Note_on_c, 0, 65, 44
2, 19096, Note_on_c, 0, 69, 0
2, 19098, Note_on_c, 0, 60, 0
2, 19099, Note_on_c, 0, 65, 0
2, 19105, Note_on_c, 0, 74, 0
2, 19142, Note_on_c, 0, 60, 43
2, 19146, Note_on_c, 0, 74, 59
2, 19150, Note_on_c, 0, 69, 54
2, 19151, Note_on_c, 0, 65, 47
2, 19161, Note_on_c, 0, 69, 0
2, 19163, Note_on_c, 0, 65, 0
2, 19165, Note_on_c, 0, 60, 0
2, 19173, Note_on_c, 0, 74, 0
2, 19194, Control_c, 0, 64, 0
2, 19194, Note_on_c, 0, 63, 40
2, 19197, Note_on_c, 0, 60, 35
2, 19204, Note_on_c, 0, 56, 27
2, 19208, Note_on_c, 0, 53, 18
2, 19262, Control_c, 0, 64, 127
2, 19273, Note_on_c, 0, 67, 74
2, 19299, Note_on_c, 0, 67, 0
2, 19301, Control_c, 0, 64, 0
2, 19315, Note_on_c, 0, 68, 55
2, 19330, Note_on_c, 0, 60, 0
2, 19330, Note_on_c, 0, 53, 0
2, 19335, Note_on_c, 0, 68, 0
2, 19345, Note_on_c, 0, 56, 0
2, 19346, Note_on_c, 0, 63, 0
2, 19349, Note_on_c, 0, 70, 57
2, 19357, Control_c, 0, 64, 127
2, 19362, Note_on_c, 0, 70, 0
2, 19387, Note_on_c, 0, 72, 66
2, 19391, Note_on_c, 0, 67, 58
2, 19391, Note_on_c, 0, 56, 47
2, 19392, Note_on_c, 0, 62, 52
2, 19405, Control_c, 0, 64, 0
2, 19412, Note_on_c, 0, 72, 0
2, 19416, Note_on_c, 0, 67, 0
2, 19425, Note_on_c, 0, 62, 0
2, 19426, Note_on_c, 0, 56, 0
2, 19426, Note_on_c, 0, 75, 55
2, 19454, Note_on_c, 0, 75, 0
2, 19457, Control_c, 0, 64, 127
2, 19466, Note_on_c, 0, 72, 62
2, 19488, Note_on_c, 0, 72, 0
2, 19502, Note_on_c, 0, 74, 80
2, 19509, Note_on_c, 0, 66, 53
2, 19511, Note_on_c, 0, 62, 35
2, 19512, Note_on_c, 0, 56, 35
2, 19519, Control_c, 0, 64, 0
2, 19521, Note_on_c, 0, 62, 0
2, 19528, Note_on_c, 0, 66, 0
2, 19529, Note_on_c, 0, 74, 0
2, 19536, Note_on_c, 0, 56, 0
2, 19542, Note_on_c, 0, 75, 65
2, 19569, Note_on_c, 0, 75, 0
2, 19575, Control_c, 0, 64, 127
2, 19581, Note_on_c, 0, 76, 74
2, 19607, Note_on_c, 0, 76, 0
2, 19622, Note_on_c, 0, 77, 79
2, 19660, Control_c, 0, 64, 0
2, 19661, Note_on_c, 0, 78, 67
2, 19666, Note_on_c, 0, 67, 52
2, 19669, Note_on_c, 0, 77, 0
2, 19670, Note_on_c, 0, 64, 40
2, 19672, Note_on_c, 0, 62, 36
2, 19686, Note_on_c, 0, 78, 0
2, 19704, Note_on_c, 0, 79, 33
2, 19706, Note_on_c, 0, 67, 0
2, 19707, Note_on_c, 0, 81, 30
2, 19715, Note_on_c, 0, 81, 0
2, 19722, Note_on_c, 0, 79, 0
2, 19741, Note_on_c, 0, 83, 80
2, 19746, Control_c, 0, 64, 127
2, 19768, Note_on_c, 0, 83, 0
2, 19770, Control_c, 0, 64, 0
2, 19779, Note_on_c, 0, 86, 87
2, 19788, Note_on_c, 0, 55, 60
2, 19807, Note_on_c, 0, 86, 0
2, 19809, Note_on_c, 0, 64, 0
2, 19811, Note_on_c, 0, 62, 0
2, 19819, Note_on_c, 0, 84, 75
2, 19820, Control_c, 0, 64, 127
2, 19847, Note_on_c, 0, 84, 0
2, 19858, Note_on_c, 0, 83, 71
2, 19877, Note_on_c, 0, 83, 0
2, 19891, Note_on_c, 0, 67, 56
2, 19893, Note_on_c, 0, 79, 75
2, 19894, Note_on_c, 0, 62, 39
2, 19899, Note_on_c, 0, 64, 33
2, 19910, Control_c, 0, 64, 0
2, 19918, Note_on_c, 0, 79, 0
2, 19926, Note_on_c, 0, 67, 0
2, 19929, Note_on_c, 0, 76, 56
2, 19948, Control_c, 0, 64, 127
2, 19951, Note_on_c, 0, 76, 0
2, 19957, Note_on_c, 0, 55, 0
2, 19968, Note_on_c, 0, 74, 65
2, 19994, Note_on_c, 0, 74, 0
2, 20009, Note_on_c, 0, 69, 53
2, 20014, Note_on_c, 0, 55, 53
2, 20033, Control_c, 0, 64, 0
2, 20063, Control_c, 0, 64, 127
2, 20075, Note_on_c, 0, 55, 0
2, 20108, Note_on_c, 0, 62, 0
2, 20111, Note_on_c, 0, 55, 50
2, 20112, Note_on_c, 0, 64, 0
2, 20131, Note_on_c, 0, 55, 0
2, 20156, Note_on_c, 0, 57, 55
2, 20161, Control_c, 0, 64, 0
2, 20185, Control_c, 0, 64, 127
2, 20235, Note_on_c, 0, 74, 45
2, 20239, Note_on_c, 0, 65, 55
2, 20239, Note_on_c, 0, 62, 44
2, 20247, Note_on_c, 0, 69, 0
2, 20263, Note_on_c, 0, 74, 0
2, 20269, Control_c, 0, 64, 0
2, 20279, Note_on_c, 0, 76, 55
2, 20280, Note_on_c, 0, 57, 0
2, 20281, Note_on_c, 0, 69, 46
2, 20292, Note_on_c, 0, 69, 0
2, 20301, Note_on_c, 0, 76, 0
2, 20317, Control_c, 0, 64, 127
2, 20319, Note_on_c, 0, 74, 47
2, 20333, Note_on_c, 0, 74, 0
2, 20350, Note_on_c, 0, 57, 53
2, 20353, Note_on_c, 0, 76, 73
2, 20371, Note_on_c, 0, 57, 0
2, 20380, Note_on_c, 0, 76, 0
2, 20391, Note_on_c, 0, 75, 43
2, 20392, Note_on_c, 0, 65, 0
2, 20392, Control_c, 0, 64, 0
2, 20399, Note_on_c, 0, 68, 52
2, 20401, Note_on_c, 0, 75, 0
2, 20403, Note_on_c, 0, 56, 42
2, 20405, Note_on_c, 0, 74, 57
2, 20409, Note_on_c, 0, 62, 0
2, 20422, Control_c, 0, 64, 127
2, 20490, Note_on_c, 0, 68, 0
2, 20517, Note_on_c, 0, 65, 45
2, 20518, Note_on_c, 0, 68, 47
2, 20518, Note_on_c, 0, 62, 32
2, 20523, Note_on_c, 0, 72, 49
2, 20527, Note_on_c, 0, 65, 0
2, 20535, Note_on_c, 0, 62, 0
2, 20558, Note_on_c, 0, 74, 0
2, 20559, Note_on_c, 0, 56, 0
2, 20562, Note_on_c, 0, 72, 0
2, 20565, Note_on_c, 0, 68, 0
2, 20642, Note_on_c, 0, 62, 36
2, 20644, Control_c, 0, 64, 0
2, 20645, Note_on_c, 0, 57, 35
2, 20646, Note_on_c, 0, 58, 32
2, 20648, Note_on_c, 0, 70, 35
2, 20648, Note_on_c, 0, 65, 30
2, 20656, Note_on_c, 0, 65, 0
2, 20657, Note_on_c, 0, 70, 0
2, 20708, Note_on_c, 0, 70, 57
2, 20715, Note_on_c, 0, 62, 0
2, 20721, Control_c, 0, 64, 127
2, 20727, Note_on_c, 0, 69, 59
2, 20729, Note_on_c, 0, 70, 0
2, 20738, Note_on_c, 0, 62, 34
2, 20740, Note_on_c, 0, 69, 0
2, 20744, Note_on_c, 0, 67, 46
2, 20747, Control_c, 0, 64, 0
2, 20750, Note_on_c, 0, 62, 0
2, 20759, Note_on_c, 0, 67, 0
2, 20765, Note_on_c, 0, 57, 0
2, 20768, Note_on_c, 0, 69, 40
2, 20775, Note_on_c, 0, 58, 0
2, 20778, Note_on_c, 0, 69, 0
2, 20782, Note_on_c, 0, 70, 54
2, 20792, Note_on_c, 0, 70, 0
2, 20808, Note_on_c, 0, 72, 50
2, 20819, Note_on_c, 0, 72, 0
2, 20824, Note_on_c, 0, 73, 30
2, 20831, Control_c, 0, 64, 127
2, 20840, Note_on_c, 0, 75, 51
2, 20841, Note_on_c, 0, 73, 0
2, 20850, Note_on_c, 0, 75, 0
2, 20859, Note_on_c, 0, 76, 54
2, 20865, Control_c, 0, 64, 0
2, 20872, Note_on_c, 0, 63, 35
2, 20873, Note_on_c, 0, 58, 35
2, 20874, Note_on_c, 0, 76, 0
2, 20880, Note_on_c, 0, 52, 30
2, 20883, Note_on_c, 0, 78, 31
2, 20889, Note_on_c, 0, 78, 0
2, 20901, Note_on_c, 0, 79, 41
2, 20921, Note_on_c, 0, 79, 0
2, 20922, Note_on_c, 0, 63, 0
2, 20922, Note_on_c, 0, 81, 45
2, 20926, Note_on_c, 0, 58, 0
2, 20940, Note_on_c, 0, 81, 0
2, 20940, Note_on_c, 0, 82, 62
2, 20948, Note_on_c, 0, 82, 0
2, 20957, Control_c, 0, 64, 127
2, 20961, Note_on_c, 0, 84, 41
2, 20977, Note_on_c, 0, 84, 0
2, 20977, Note_on_c, 0, 85, 62
2, 20993, Note_on_c, 0, 63, 27
2, 20993, Control_c, 0, 64, 0
2, 20994, Note_on_c, 0, 85, 0
2, 20994, Note_on_c, 0, 87, 43
2, 20997, Note_on_c, 0, 58, 25
2, 21014, Note_on_c, 0, 87, 0
2, 21015, Note_on_c, 0, 88, 58
2, 21031, Note_on_c, 0, 88, 0
2, 21043, Note_on_c, 0, 91, 75
2, 21055, Note_on_c, 0, 52, 0
2, 21059, Note_on_c, 0, 91, 0
2, 21062, Note_on_c, 0, 58, 0
2, 21069, Note_on_c, 0, 63, 0
2, 21075, Note_on_c, 0, 89, 78
2, 21086, Control_c, 0, 64, 127
2, 21097, Note_on_c, 0, 89, 0
2, 21110, Note_on_c, 0, 85, 73
2, 21110, Note_on_c, 0, 64, 28
2, 21111, Note_on_c, 0, 60, 37
2, 21112, Note_on_c, 0, 57, 31
2, 21116, Control_c, 0, 64, 0
2, 21116, Note_on_c, 0, 53, 24
2, 21125, Note_on_c, 0, 85, 0
2, 21145, Note_on_c, 0, 88, 76
2, 21163, Note_on_c, 0, 88, 0
2, 21184, Note_on_c, 0, 86, 70
2, 21191, Note_on_c, 0, 64, 0
2, 21202, Note_on_c, 0, 60, 0
2, 21204, Note_on_c, 0, 86, 0
2, 21204, Control_c, 0, 64, 127
2, 21227, Note_on_c, 0, 81, 29
2, 21237, Note_on_c, 0, 81, 0
2, 21244, Note_on_c, 0, 60, 22
2, 21244, Note_on_c, 0, 64, 29
2, 21246, Control_c, 0, 64, 0
2, 21253, Note_on_c, 0, 86, 66
2, 21275, Note_on_c, 0, 86, 0
2, 21280, Control_c, 0, 64, 127
2, 21296, Note_on_c, 0, 86, 68
2, 21306, Note_on_c, 0, 64, 0
2, 21308, Note_on_c, 0, 60, 0
2, 21319, Note_on_c, 0, 86, 0
2, 21332, Note_on_c, 0, 84, 48
2, 21340, Note_on_c, 0, 57, 0
2, 21351, Note_on_c, 0, 84, 0
2, 21364, Note_on_c, 0, 60, 28
2, 21365, Note_on_c, 0, 64, 20
2, 21366, Control_c, 0, 64, 0
2, 21368, Note_on_c, 0, 57, 17
2, 21373, Note_on_c, 0, 81, 67
2, 21394, Control_c, 0, 64, 127
2, 21402, Note_on_c, 0, 81, 0
2, 21410, Note_on_c, 0, 77, 53
2, 21425, Note_on_c, 0, 53, 0
2, 21427, Note_on_c, 0, 77, 0
2, 21450, Note_on_c, 0, 57, 0
2, 21450, Note_on_c, 0, 53, 44
2, 21454, Note_on_c, 0, 72, 41
2, 21455, Note_on_c, 0, 64, 0
2, 21464, Note_on_c, 0, 60, 0
2, 21465, Note_on_c, 0, 72, 0
2, 21491, Control_c, 0, 64, 0
2, 21492, Note_on_c, 0, 79, 64
2, 21492, Note_on_c, 0, 72, 74
2, 21496, Note_on_c, 0, 67, 58
2, 21496, Note_on_c, 0, 64, 53
2, 21500, Note_on_c, 0, 57, 28
2, 21500, Note_on_c, 0, 69, 39
2, 21501, Note_on_c, 0, 77, 27
2, 21502, Note_on_c, 0, 60, 31
2, 21508, Note_on_c, 0, 69, 0
2, 21512, Note_on_c, 0, 77, 0
2, 21513, Note_on_c, 0, 67, 0
2, 21517, Note_on_c, 0, 53, 0
2, 21519, Note_on_c, 0, 72, 0
2, 21520, Note_on_c, 0, 79, 0
2, 21531, Control_c, 0, 64, 127
2, 21533, Note_on_c, 0, 77, 60
2, 21549, Note_on_c, 0, 57, 0
2, 21554, Note_on_c, 0, 64, 0
2, 21556, Note_on_c, 0, 60, 0
2, 21556, Note_on_c, 0, 77, 0
2, 21566, Note_on_c, 0, 53, 47
2, 21581, Note_on_c, 0, 53, 0
2, 21606, Note_on_c, 0, 74, 60
2, 21608, Note_on_c, 0, 71, 61
2, 21609, Note_on_c, 0, 65, 67
2, 21609, Note_on_c, 0, 69, 63
2, 21609, Control_c, 0, 64, 0
2, 21611, Note_on_c, 0, 64, 84
2, 21634, Note_on_c, 0, 65, 0
2, 21634, Note_on_c, 0, 74, 0
2, 21639, Note_on_c, 0, 71, 0
2, 21639, Note_on_c, 0, 69, 0
2, 21651, Note_on_c, 0, 76, 79
2, 21657, Control_c, 0, 64, 127
2, 21657, Note_on_c, 0, 65, 32
2, 21659, Note_on_c, 0, 69, 22
2, 21667, Note_on_c, 0, 69, 0
2, 21671, Note_on_c, 0, 65, 0
2, 21672, Note_on_c, 0, 64, 0
2, 21679, Note_on_c, 0, 76, 0
2, 21717, Control_c, 0, 64, 0
2, 21727, Note_on_c, 0, 74, 60
2, 21730, Note_on_c, 0, 65, 62
2, 21732, Note_on_c, 0, 64, 68
2, 21733, Note_on_c, 0, 71, 38
2, 21736, Note_on_c, 0, 69, 38
2, 21746, Note_on_c, 0, 69, 0
2, 21750, Note_on_c, 0, 65, 0
2, 21756, Note_on_c, 0, 71, 0
2, 21757, Note_on_c, 0, 74, 0
2, 21761, Control_c, 0, 64, 127
2, 21766, Note_on_c, 0, 76, 65
2, 21806, Note_on_c, 0, 76, 0
2, 21823, Note_on_c, 0, 64, 0
2, 21847, Note_on_c, 0, 74, 55
2, 21851, Note_on_c, 0, 71, 50
2, 21851, Note_on_c, 0, 64, 40
2, 21853, Note_on_c, 0, 68, 37
2, 21853, Note_on_c, 0, 56, 39
2, 21853, Note_on_c, 0, 62, 35
2, 21854, Control_c, 0, 64, 0
2, 21882, Control_c, 0, 64, 127
2, 21915, Note_on_c, 0, 64, 0
2, 21922, Note_on_c, 0, 74, 0
2, 21923, Note_on_c, 0, 68, 0
2, 21924, Note_on_c, 0, 71, 0
2, 21939, Note_on_c, 0, 62, 0
2, 21942, Note_on_c, 0, 56, 0
2, 21969, Note_on_c, 0, 64, 71
2, 21973, Note_on_c, 0, 56, 36
2, 21977, Note_on_c, 0, 62, 34
2, 21980, Control_c, 0, 64, 0
2, 21983, Note_on_c, 0, 64, 0
2, 21987, Note_on_c, 0, 65, 50
2, 21996, Note_on_c, 0, 65, 0
2, 22000, Note_on_c, 0, 67, 47
2, 22009, Note_on_c, 0, 67, 0
2, 22011, Note_on_c, 0, 62, 0
2, 22013, Note_on_c, 0, 69, 38
2, 22023, Note_on_c, 0, 69, 0
2, 22029, Note_on_c, 0, 71, 34
2, 22037, Note_on_c, 0, 71, 0
2, 22044, Note_on_c, 0, 72, 48
2, 22048, Note_on_c, 0, 56, 0
2, 22051, Note_on_c, 0, 72, 0
2, 22055, Note_on_c, 0, 74, 34
2, 22065, Note_on_c, 0, 74, 0
2, 22069, Note_on_c, 0, 76, 36
2, 22077, Note_on_c, 0, 76, 0
2, 22084, Note_on_c, 0, 77, 38
2, 22086, Control_c, 0, 64, 127
2, 22092, Note_on_c, 0, 77, 0
2, 22095, Note_on_c, 0, 79, 42
2, 22103, Note_on_c, 0, 79, 0
2, 22108, Note_on_c, 0, 81, 51
2, 22114, Note_on_c, 0, 81, 0
2, 22115, Note_on_c, 0, 83, 68
2, 22117, Note_on_c, 0, 64, 54
2, 22119, Note_on_c, 0, 60, 55
2, 22119, Note_on_c, 0, 55, 50
2, 22120, Note_on_c, 0, 57, 50
2, 22121, Control_c, 0, 64, 0
2, 22163, Control_c, 0, 64, 127
2, 22193, Note_on_c, 0, 64, 0
2, 22206, Note_on_c, 0, 60, 0
2, 22217, Note_on_c, 0, 55, 0
2, 22221, Note_on_c, 0, 83, 0
2, 22225, Note_on_c, 0, 80, 39
2, 22225, Note_on_c, 0, 60, 24
2, 22225, Note_on_c, 0, 64, 32
2, 22274, Note_on_c, 0, 64, 0
2, 22289, Note_on_c, 0, 57, 0
2, 22291, Note_on_c, 0, 80, 0
2, 22295, Note_on_c, 0, 81, 68
2, 22319, Control_c, 0, 64, 0
2, 22331, Note_on_c, 0, 56, 47
2, 22334, Note_on_c, 0, 58, 25
2, 22336, Note_on_c, 0, 64, 36
2, 22345, Control_c, 0, 64, 127
2, 22404, Note_on_c, 0, 60, 0
2, 22409, Note_on_c, 0, 64, 0
2, 22414, Note_on_c, 0, 56, 0
2, 22420, Note_on_c, 0, 58, 0
2, 22439, Control_c, 0, 64, 0
2, 22442, Note_on_c, 0, 81, 0
2, 22444, Note_on_c, 0, 55, 47
2, 22449, Note_on_c, 0, 64, 25
2, 22452, Note_on_c, 0, 60, 30
2, 22459, Control_c, 0, 64, 127
2, 22490, Note_on_c, 0, 64, 0
2, 22491, Note_on_c, 0, 55, 0
2, 22492, Note_on_c, 0, 60, 0
2, 22526, Note_on_c, 0, 86, 74
2, 22527, Note_on_c, 0, 64, 72
2, 22527, Note_on_c, 0, 74, 80
2, 22527, Note_on_c, 0, 81, 80
2, 22528, Note_on_c, 0, 60, 66
2, 22529, Note_on_c, 0, 57, 60
2, 22530, Note_on_c, 0, 55, 55
2, 22534, Control_c, 0, 64, 0
2, 22562, Control_c, 0, 64, 127
2, 22592, Note_on_c, 0, 86, 0
2, 22595, Note_on_c, 0, 55, 0
2, 22597, Note_on_c, 0, 74, 0
2, 22598, Note_on_c, 0, 64, 0
2, 22603, Note_on_c, 0, 60, 0
2, 22603, Note_on_c, 0, 57, 0
2, 22609, Note_on_c, 0, 81, 0
2, 22642, Note_on_c, 0, 88, 77
2, 22643, Note_on_c, 0, 64, 71
2, 22644, Note_on_c, 0, 55, 64
2, 22644, Note_on_c, 0, 76, 71
2, 22644, Note_on_c, 0, 57, 57
2, 22644, Note_on_c, 0, 60, 69
2, 22646, Note_on_c, 0, 81, 54
2, 22655, Note_on_c, 0, 81, 0
2, 22658, Note_on_c, 0, 88, 0
2, 22658, Note_on_c, 0, 76, 0
2, 22659, Note_on_c, 0, 64, 0
2, 22660, Note_on_c, 0, 55, 0
2, 22666, Note_on_c, 0, 60, 0
2, 22667, Note_on_c, 0, 57, 0
2, 22683, Control_c, 0, 64, 0
2, 22684, Note_on_c, 0, 55, 53
2, 22686, Note_on_c, 0, 64, 36
2, 22687, Note_on_c, 0, 84, 44
2, 22688, Note_on_c, 0, 57, 48
2, 22688, Note_on_c, 0, 60, 50
2, 22689, Note_on_c, 0, 72, 48
2, 22695, Control_c, 0, 64, 127
2, 22708, Note_on_c, 0, 64, 0
2, 22709, Note_on_c, 0, 72, 0
2, 22715, Note_on_c, 0, 55, 0
2, 22718, Note_on_c, 0, 84, 0
2, 22722, Note_on_c, 0, 57, 0
2, 22729, Note_on_c, 0, 60, 0
2, 22754, Note_on_c, 0, 60, 74
2, 22755, Control_c, 0, 64, 0
2, 22755, Note_on_c, 0, 86, 73
2, 22756, Note_on_c, 0, 74, 79
2, 22756, Note_on_c, 0, 83, 67
2, 22756, Note_on_c, 0, 64, 72
2, 22757, Note_on_c, 0, 80, 59
2, 22758, Note_on_c, 0, 54, 71
2, 22787, Control_c, 0, 64, 127
2, 22818, Note_on_c, 0, 64, 0
2, 22818, Note_on_c, 0, 86, 0
2, 22826, Note_on_c, 0, 83, 0
2, 22828, Note_on_c, 0, 74, 0
2, 22828, Note_on_c, 0, 54, 0
2, 22829, Note_on_c, 0, 60, 0
2, 22832, Note_on_c, 0, 80, 0
2, 22871, Note_on_c, 0, 80, 77
2, 22871, Note_on_c, 0, 83, 79
2, 22871, Note_on_c, 0, 88, 80
2, 22872, Note_on_c, 0, 76, 79
2, 22873, Note_on_c, 0, 60, 83
2, 22874, Note_on_c, 0, 54, 79
2, 22874, Note_on_c, 0, 64, 83
2, 22876, Note_on_c, 0, 86, 54
2, 22876, Note_on_c, 0, 58, 56
2, 22882, Control_c, 0, 64, 0
2, 22906, Control_c, 0, 64, 127
2, 22910, Note_on_c, 0, 88, 0
2, 22915, Note_on_c, 0, 64, 0
2, 22916, Note_on_c, 0, 86, 0
2, 22919, Note_on_c, 0, 83, 0
2, 22923, Note_on_c, 0, 60, 0
2, 22927, Note_on_c, 0, 80, 0
2, 22928, Note_on_c, 0, 76, 0
2, 22930, Note_on_c, 0, 58, 0
2, 22943, Note_on_c, 0, 54, 0
2, 23005, Note_on_c, 0, 53, 41
2, 23007, Note_on_c, 0, 54, 51
2, 23027, Note_on_c, 0, 53, 0
2, 23033, Note_on_c, 0, 55, 32
2, 23034, Control_c, 0, 64, 0
2, 23034, Note_on_c, 0, 69, 81
2, 23036, Note_on_c, 0, 57, 85
2, 23036, Note_on_c, 0, 65, 82
2, 23037, Note_on_c, 0, 60, 87
2, 23042, Note_on_c, 0, 55, 0
2, 23046, Note_on_c, 0, 54, 0
2, 23062, Control_c, 0, 64, 127
2, 23100, Note_on_c, 0, 60, 0
2, 23116, Note_on_c, 0, 57, 0
2, 23116, Note_on_c, 0, 65, 0
2, 23125, Note_on_c, 0, 69, 0
2, 23158, Control_c, 0, 64, 0
2, 23160, Note_on_c, 0, 71, 80
2, 23160, Note_on_c, 0, 59, 76
2, 23161, Note_on_c, 0, 67, 81
2, 23162, Note_on_c, 0, 62, 89
2, 23162, Note_on_c, 0, 65, 75
2, 23195, Control_c, 0, 64, 127
2, 23203, Note_on_c, 0, 62, 0
2, 23207, Note_on_c, 0, 59, 0
2, 23213, Note_on_c, 0, 65, 0
2, 23216, Note_on_c, 0, 67, 0
2, 23219, Note_on_c, 0, 71, 0
2, 23283, Note_on_c, 0, 65, 68
2, 23283, Control_c, 0, 64, 0
2, 23283, Note_on_c, 0, 69, 80
2, 23284, Note_on_c, 0, 72, 74
2, 23284, Note_on_c, 0, 57, 66
2, 23285, Note_on_c, 0, 60, 63
2, 23309, Control_c, 0, 64, 127
2, 23328, Note_on_c, 0, 65, 0
2, 23329, Note_on_c, 0, 60, 0
2, 23335, Note_on_c, 0, 69, 0
2, 23336, Note_on_c, 0, 72, 0
2, 23347, Note_on_c, 0, 57, 0
2, 23401, Note_on_c, 0, 63, 63
2, 23402, Note_on_c, 0, 74, 57
2, 23402, Note_on_c, 0, 68, 67
2, 23403, Note_on_c, 0, 59, 54
2, 23403, Note_on_c, 0, 71, 58
2, 23403, Control_c, 0, 64, 0
2, 23405, Note_on_c, 0, 53, 38
2, 23430, Control_c, 0, 64, 127
2, 23437, Note_on_c, 0, 53, 0
2, 23440, Note_on_c, 0, 59, 0
2, 23454, Note_on_c, 0, 63, 0
2, 23462, Note_on_c, 0, 74, 0
2, 23464, Note_on_c, 0, 71, 0
2, 23469, Note_on_c, 0, 68, 0
2, 23520, Note_on_c, 0, 76, 64
2, 23520, Control_c, 0, 64, 0
2, 23521, Note_on_c, 0, 54, 49
2, 23521, Note_on_c, 0, 72, 58
2, 23522, Note_on_c, 0, 60, 56
2, 23522, Note_on_c, 0, 69, 63
2, 23522, Note_on_c, 0, 64, 66
2, 23550, Control_c, 0, 64, 127
2, 23562, Note_on_c, 0, 60, 0
2, 23569, Note_on_c, 0, 72, 0
2, 23571, Note_on_c, 0, 69, 0
2, 23575, Note_on_c, 0, 76, 0
2, 23576, Note_on_c, 0, 54, 0
2, 23579, Note_on_c, 0, 64, 0
2, 23641, Control_c, 0, 64, 0
2, 23642, Note_on_c, 0, 72, 60
2, 23642, Note_on_c, 0, 69, 62
2, 23644, Note_on_c, 0, 49, 53
2, 23645, Note_on_c, 0, 65, 68
2, 23649, Note_on_c, 0, 60, 54
2, 23655, Control_c, 0, 64, 127
2, 23660, Note_on_c, 0, 49, 0
2, 23683, Note_on_c, 0, 69, 0
2, 23686, Note_on_c, 0, 72, 0
2, 23692, Note_on_c, 0, 65, 0
2, 23696, Note_on_c, 0, 60, 0
2, 23763, Note_on_c, 0, 71, 51
2, 23765, Note_on_c, 0, 59, 56
2, 23765, Note_on_c, 0, 64, 58
2, 23765, Note_on_c, 0, 67, 58
2, 23766, Control_c, 0, 64, 0
2, 23767, Note_on_c, 0, 53, 50
2, 23768, Note_on_c, 0, 43, 50
2, 23792, Control_c, 0, 64, 127
2, 23821, Note_on_c, 0, 71, 0
2, 23826, Note_on_c, 0, 67, 0
2, 23828, Note_on_c, 0, 53, 0
2, 23832, Note_on_c, 0, 64, 0
2, 23836, Note_on_c, 0, 59, 0
2, 23879, Note_on_c, 0, 53, 40
2, 23880, Control_c, 0, 64, 0
2, 23881, Note_on_c, 0, 69, 54
2, 23882, Note_on_c, 0, 43, 0
2, 23883, Note_on_c, 0, 64, 53
2, 23884, Note_on_c, 0, 59, 49
2, 23888, Control_c, 0, 64, 127
2, 23919, Note_on_c, 0, 64, 0
2, 23924, Note_on_c, 0, 53, 0
2, 23934, Note_on_c, 0, 59, 0
2, 23951, Note_on_c, 0, 69, 0
2, 23991, Note_on_c, 0, 40, 22
2, 24002, Control_c, 0, 64, 0
2, 24003, Note_on_c, 0, 67, 46
2, 24003, Note_on_c, 0, 62, 54
2, 24003, Note_on_c, 0, 47, 31
2, 24007, Note_on_c, 0, 55, 43
2, 24026, Control_c, 0, 64, 127
2, 24066, Note_on_c, 0, 40, 0
2, 24069, Note_on_c, 0, 47, 0
2, 24076, Note_on_c, 0, 55, 0
2, 24095, Note_on_c, 0, 62, 0
2, 24120, Note_on_c, 0, 46, 64
2, 24121, Note_on_c, 0, 67, 0
2, 24123, Note_on_c, 0, 56, 40
2, 24198, Note_on_c, 0, 56, 0
2, 24203, Note_on_c, 0, 46, 0
2, 24207, Note_on_c, 0, 66, 51
2, 24208, Note_on_c, 0, 61, 37
2, 24210, Note_on_c, 0, 55, 45
2, 24212, Note_on_c, 0, 45, 48
2, 24213, Control_c, 0, 64, 0
2, 24235, Control_c, 0, 64, 127
2, 24254, Note_on_c, 0, 45, 0
2, 24263, Note_on_c, 0, 61, 0
2, 24266, Note_on_c, 0, 55, 0
2, 24284, Note_on_c, 0, 66, 0
2, 24360, Note_on_c, 0, 61, 39
2, 24365, Note_on_c, 0, 65, 25
2, 24366, Note_on_c, 0, 58, 34
2, 24367, Note_on_c, 0, 55, 27
2, 24372, Note_on_c, 0, 65, 0
2, 24373, Control_c, 0, 64, 0
2, 24382, Note_on_c, 0, 61, 0
2, 24382, Note_on_c, 0, 55, 0
2, 24386, Note_on_c, 0, 58, 0
2, 24447, Note_on_c, 0, 81, 47
2, 24466, Note_on_c, 0, 81, 0
2, 24474, Note_on_c, 0, 84, 51
2, 24474, Note_on_c, 0, 50, 24
2, 24475, Note_on_c, 0, 60, 28
2, 24476, Note_on_c, 0, 72, 42
2, 24491, Note_on_c, 0, 50, 0
2, 24503, Note_on_c, 0, 60, 0
2, 24538, Note_on_c, 0, 72, 0
2, 24545, Note_on_c, 0, 84, 0
2, 24571, Note_on_c, 0, 81, 36
2, 24583, Note_on_c, 0, 81, 0
2, 24590, Note_on_c, 0, 60, 49
2, 24592, Note_on_c, 0, 65, 31
2, 24593, Note_on_c, 0, 84, 69
2, 24594, Note_on_c, 0, 54, 32
2, 24597, Note_on_c, 0, 72, 60
2, 24610, Note_on_c, 0, 65, 0
2, 24629, Note_on_c, 0, 60, 0
2, 24651, Note_on_c, 0, 84, 0
2, 24665, Note_on_c, 0, 54, 0
2, 24666, Note_on_c, 0, 72, 0
2, 24715, Note_on_c, 0, 64, 35
2, 24717, Note_on_c, 0, 83, 34
2, 24718, Note_on_c, 0, 59, 36
2, 24719, Note_on_c, 0, 71, 30
2, 24720, Note_on_c, 0, 53, 26
2, 24732, Note_on_c, 0, 64, 0
2, 24735, Note_on_c, 0, 59, 0
2, 24742, Note_on_c, 0, 71, 0
2, 24743, Note_on_c, 0, 83, 0
2, 24744, Note_on_c, 0, 53, 0
2, 24800, Note_on_c, 0, 43, 81
2, 24887, Control_c, 0, 64, 127
2, 24914, Note_on_c, 0, 43, 0
2, 24967, Note_on_c, 0, 63, 64
2, 24970, Note_on_c, 0, 57, 42
2, 24971, Control_c, 0, 64, 0
2, 24972, Note_on_c, 0, 62, 29
2, 24972, Note_on_c, 0, 52, 39
2, 24997, Note_on_c, 0, 63, 0
2, 24998, Note_on_c, 0, 64, 64
2, 25003, Control_c, 0, 64, 127
2, 25011, Note_on_c, 0, 62, 0
2, 25015, Note_on_c, 0, 52, 0
2, 25015, Note_on_c, 0, 57, 0
2, 25026, Note_on_c, 0, 64, 0
2, 25027, Note_on_c, 0, 68, 56
2, 25059, Note_on_c, 0, 68, 0
2, 25059, Note_on_c, 0, 71, 53
2, 25075, Note_on_c, 0, 71, 0
2, 25079, Note_on_c, 0, 53, 34
2, 25083, Control_c, 0, 64, 0
2, 25084, Note_on_c, 0, 63, 31
2, 25089, Note_on_c, 0, 67, 53
2, 25091, Note_on_c, 0, 58, 26
2, 25113, Control_c, 0, 64, 127
2, 25114, Note_on_c, 0, 67, 0
2, 25117, Note_on_c, 0, 68, 25
2, 25142, Note_on_c, 0, 72, 58
2, 25144, Note_on_c, 0, 68, 0
2, 25146, Note_on_c, 0, 53, 0
2, 25161, Note_on_c, 0, 58, 0
2, 25167, Note_on_c, 0, 63, 0
2, 25172, Note_on_c, 0, 76, 58
2, 25173, Note_on_c, 0, 72, 0
2, 25190, Note_on_c, 0, 65, 58
2, 25193, Note_on_c, 0, 76, 0
2, 25194, Note_on_c, 0, 55, 41
2, 25196, Note_on_c, 0, 71, 32
2, 25198, Control_c, 0, 64, 0
2, 25198, Note_on_c, 0, 60, 30
2, 25222, Control_c, 0, 64, 127
2, 25223, Note_on_c, 0, 72, 48
2, 25225, Note_on_c, 0, 71, 0
2, 25238, Note_on_c, 0, 65, 0
2, 25239, Note_on_c, 0, 55, 0
2, 25242, Note_on_c, 0, 60, 0
2, 25252, Note_on_c, 0, 76, 43
2, 25255, Note_on_c, 0, 72, 0
2, 25277, Note_on_c, 0, 79, 39
2, 25285, Note_on_c, 0, 76, 0
2, 25286, Note_on_c, 0, 79, 0
2, 25307, Note_on_c, 0, 75, 57
2, 25310, Note_on_c, 0, 63, 59
2, 25315, Note_on_c, 0, 58, 36
2, 25325, Note_on_c, 0, 53, 18
2, 25328, Control_c, 0, 64, 0
2, 25331, Note_on_c, 0, 75, 0
2, 25331, Note_on_c, 0, 76, 37
2, 25362, Control_c, 0, 64, 127
2, 25363, Note_on_c, 0, 53, 0
2, 25365, Note_on_c, 0, 80, 34
2, 25366, Note_on_c, 0, 76, 0
2, 25375, Note_on_c, 0, 63, 0
2, 25380, Note_on_c, 0, 58, 0
2, 25393, Note_on_c, 0, 80, 0
2, 25402, Note_on_c, 0, 83, 60
2, 25419, Note_on_c, 0, 83, 0
2, 25430, Note_on_c, 0, 62, 44
2, 25433, Note_on_c, 0, 82, 71
2, 25434, Note_on_c, 0, 58, 23
2, 25440, Note_on_c, 0, 57, 25
2, 25442, Control_c, 0, 64, 0
2, 25444, Note_on_c, 0, 52, 32
2, 25466, Note_on_c, 0, 79, 57
2, 25484, Note_on_c, 0, 79, 0
2, 25484, Note_on_c, 0, 82, 0
2, 25489, Note_on_c, 0, 62, 0
2, 25489, Note_on_c, 0, 58, 0
2, 25498, Note_on_c, 0, 74, 44
2, 25506, Note_on_c, 0, 57, 0
2, 25512, Control_c, 0, 64, 127
2, 25515, Note_on_c, 0, 74, 0
2, 25529, Note_on_c, 0, 70, 57
2, 25552, Note_on_c, 0, 62, 38
2, 25552, Note_on_c, 0, 57, 17
2, 25553, Control_c, 0, 64, 0
2, 25555, Note_on_c, 0, 70, 0
2, 25560, Note_on_c, 0, 67, 35
2, 25588, Note_on_c, 0, 67, 0
2, 25591, Control_c, 0, 64, 127
2, 25596, Note_on_c, 0, 57, 0
2, 25598, Note_on_c, 0, 62, 0
2, 25619, Note_on_c, 0, 52, 0
2, 25659, Control_c, 0, 64, 0
2, 25671, Note_on_c, 0, 62, 45
2, 25673, Note_on_c, 0, 58, 35
2, 25673, Note_on_c, 0, 57, 44
2, 25679, Note_on_c, 0, 52, 45
2, 25727, Control_c, 0, 64, 127
2, 25731, Note_on_c, 0, 58, 0
2, 25737, Note_on_c, 0, 62, 0
2, 25747, Note_on_c, 0, 98, 85
2, 25748, Note_on_c, 0, 96, 85
2, 25754, Note_on_c, 0, 57, 0
2, 25766, Note_on_c, 0, 98, 0
2, 25767, Control_c, 0, 64, 0
2, 25769, Note_on_c, 0, 96, 0
2, 25779, Note_on_c, 0, 94, 71
2, 25780, Note_on_c, 0, 57, 24
2, 25782, Note_on_c, 0, 62, 44
2, 25782, Note_on_c, 0, 58, 49
2, 25800, Note_on_c, 0, 94, 0
2, 25804, Note_on_c, 0, 57, 0
2, 25806, Note_on_c, 0, 52, 0
2, 25813, Note_on_c, 0, 89, 18
2, 25817, Note_on_c, 0, 62, 0
2, 25819, Note_on_c, 0, 58, 0
2, 25833, Note_on_c, 0, 85, 55
2, 25835, Note_on_c, 0, 89, 0
2, 25845, Note_on_c, 0, 85, 0
2, 25861, Note_on_c, 0, 84, 57
2, 25880, Note_on_c, 0, 84, 0
2, 25893, Note_on_c, 0, 82, 62
2, 25907, Note_on_c, 0, 82, 0
2, 25919, Note_on_c, 0, 61, 42
2, 25919, Note_on_c, 0, 66, 39
2, 25924, Note_on_c, 0, 55, 42
2, 25987, Note_on_c, 0, 55, 0
2, 26003, Note_on_c, 0, 66, 0
2, 26038, Note_on_c, 0, 65, 51
2, 26039, Note_on_c, 0, 55, 47
2, 26123, Note_on_c, 0, 65, 0
2, 26131, Note_on_c, 0, 55, 0
2, 26148, Note_on_c, 0, 61, 0
2, 26155, Note_on_c, 0, 61, 30
2, 26157, Note_on_c, 0, 64, 61
2, 26158, Note_on_c, 0, 55, 52
2, 26202, Note_on_c, 0, 94, 83
2, 26205, Note_on_c, 0, 55, 0
2, 26206, Note_on_c, 0, 64, 0
2, 26221, Note_on_c, 0, 94, 0
2, 26234, Note_on_c, 0, 92, 79
2, 26251, Note_on_c, 0, 61, 0
2, 26265, Note_on_c, 0, 87, 73
2, 26267, Note_on_c, 0, 66, 52
2, 26268, Note_on_c, 0, 61, 36
2, 26269, Note_on_c, 0, 92, 0
2, 26273, Note_on_c, 0, 55, 42
2, 26289, Note_on_c, 0, 87, 0
2, 26301, Note_on_c, 0, 81, 37
2, 26313, Note_on_c, 0, 66, 0
2, 26315, Note_on_c, 0, 55, 0
2, 26320, Note_on_c, 0, 81, 0
2, 26331, Note_on_c, 0, 82, 42
2, 26345, Note_on_c, 0, 82, 0
2, 26353, Note_on_c, 0, 61, 0
2, 26359, Note_on_c, 0, 78, 46
2, 26378, Note_on_c, 0, 78, 0
2, 26391, Note_on_c, 0, 74, 51
2, 26400, Note_on_c, 0, 74, 0
2, 26400, Note_on_c, 0, 50, 34
2, 26405, Note_on_c, 0, 60, 33
2, 26411, Note_on_c, 0, 57, 47
2, 26417, Note_on_c, 0, 84, 80
2, 26439, Note_on_c, 0, 60, 0
2, 26441, Note_on_c, 0, 84, 0
2, 26449, Note_on_c, 0, 81, 64
2, 26465, Note_on_c, 0, 57, 0
2, 26474, Note_on_c, 0, 77, 52
2, 26478, Note_on_c, 0, 81, 0
2, 26498, Note_on_c, 0, 77, 0
2, 26505, Note_on_c, 0, 72, 49
2, 26522, Note_on_c, 0, 57, 28
2, 26525, Note_on_c, 0, 60, 34
2, 26538, Note_on_c, 0, 72, 0
2, 26567, Note_on_c, 0, 50, 0
2, 26567, Note_on_c, 0, 57, 0
2, 26572, Note_on_c, 0, 76, 61
2, 26580, Note_on_c, 0, 60, 0
2, 26603, Note_on_c, 0, 74, 41
2, 26608, Control_c, 0, 64, 127
2, 26615, Note_on_c, 0, 76, 0
2, 26636, Note_on_c, 0, 74, 0
2, 26638, Note_on_c, 0, 69, 36
2, 26646, Note_on_c, 0, 69, 0
2, 26652, Control_c, 0, 64, 0
2, 26653, Note_on_c, 0, 60, 35
2, 26653, Note_on_c, 0, 65, 20
2, 26656, Note_on_c, 0, 55, 17
2, 26662, Note_on_c, 0, 72, 72
2, 26684, Note_on_c, 0, 72, 0
2, 26693, Note_on_c, 0, 74, 46
2, 26704, Note_on_c, 0, 65, 0
2, 26710, Note_on_c, 0, 60, 0
2, 26713, Note_on_c, 0, 72, 38
2, 26722, Note_on_c, 0, 74, 0
2, 26724, Control_c, 0, 64, 127
2, 26736, Note_on_c, 0, 72, 0
2, 26736, Note_on_c, 0, 69, 32
2, 26746, Note_on_c, 0, 55, 0
2, 26753, Note_on_c, 0, 69, 0
2, 26771, Note_on_c, 0, 72, 73
2, 26771, Note_on_c, 0, 55, 20
2, 26772, Note_on_c, 0, 65, 43
2, 26774, Control_c, 0, 64, 0
2, 26778, Note_on_c, 0, 60, 34
2, 26798, Note_on_c, 0, 65, 0
2, 26808, Note_on_c, 0, 60, 0
2, 26808, Note_on_c, 0, 72, 0
2, 26818, Note_on_c, 0, 55, 0
2, 26819, Note_on_c, 0, 69, 55
2, 26828, Control_c, 0, 64, 127
2, 26846, Note_on_c, 0, 69, 0
2, 26856, Note_on_c, 0, 68, 60
2, 26886, Note_on_c, 0, 68, 0
2, 26890, Note_on_c, 0, 63, 38
2, 26894, Note_on_c, 0, 75, 75
2, 26895, Note_on_c, 0, 60, 34
2, 26896, Control_c, 0, 64, 0
2, 26900, Note_on_c, 0, 56, 26
2, 26905, Note_on_c, 0, 53, 13
2, 26916, Note_on_c, 0, 75, 0
2, 26916, Note_on_c, 0, 63, 0
2, 26932, Note_on_c, 0, 72, 66
2, 26940, Note_on_c, 0, 60, 0
2, 26957, Note_on_c, 0, 56, 0
2, 26959, Control_c, 0, 64, 127
2, 26963, Note_on_c, 0, 53, 0
2, 26968, Note_on_c, 0, 68, 63
2, 26971, Note_on_c, 0, 72, 0
2, 26995, Note_on_c, 0, 68, 0
2, 27003, Note_on_c, 0, 60, 25
2, 27004, Note_on_c, 0, 53, 24
2, 27006, Note_on_c, 0, 56, 25
2, 27010, Note_on_c, 0, 60, 0
2, 27010, Note_on_c, 0, 65, 41
2, 27021, Note_on_c, 0, 65, 0
2, 27025, Note_on_c, 0, 56, 0
2, 27025, Note_on_c, 0, 53, 0
2, 27039, Control_c, 0, 64, 0
2, 27055, Control_c, 0, 64, 127
2, 27080, Note_on_c, 0, 60, 58
2, 27082, Note_on_c, 0, 53, 44
2, 27097, Note_on_c, 0, 60, 0
2, 27117, Control_c, 0, 64, 0
2, 27125, Note_on_c, 0, 62, 60
2, 27127, Note_on_c, 0, 59, 56
2, 27128, Note_on_c, 0, 53, 0
2, 27128, Note_on_c, 0, 56, 50
2, 27130, Note_on_c, 0, 46, 28
2, 27155, Control_c, 0, 64, 127
2, 27215, Note_on_c, 0, 53, 31
2, 27218, Note_on_c, 0, 59, 0
2, 27218, Note_on_c, 0, 62, 0
2, 27219, Note_on_c, 0, 56, 0
2, 27234, Note_on_c, 0, 53, 0
2, 27244, Note_on_c, 0, 66, 67
2, 27245, Control_c, 0, 64, 0
2, 27246, Note_on_c, 0, 59, 56
2, 27247, Note_on_c, 0, 56, 47
2, 27261, Control_c, 0, 64, 127
2, 27276, Note_on_c, 0, 56, 0
2, 27290, Note_on_c, 0, 59, 0
2, 27291, Note_on_c, 0, 66, 0
2, 27326, Note_on_c, 0, 67, 54
2, 27327, Note_on_c, 0, 62, 58
2, 27328, Note_on_c, 0, 46, 0
2, 27330, Note_on_c, 0, 57, 49
2, 27332, Note_on_c, 0, 52, 44
2, 27338, Control_c, 0, 64, 0
2, 27374, Control_c, 0, 64, 127
2, 27414, Note_on_c, 0, 67, 0
2, 27450, Note_on_c, 0, 62, 0
2, 27459, Note_on_c, 0, 57, 0
2, 27468, Note_on_c, 0, 52, 0
2, 27554, Note_on_c, 0, 64, 71
2, 27556, Note_on_c, 0, 48, 74
2, 27557, Note_on_c, 0, 59, 71
2, 27557, Note_on_c, 0, 55, 80
2, 27584, Note_on_c, 0, 55, 0
2, 27590, Note_on_c, 0, 64, 0
2, 27591, Note_on_c, 0, 59, 0
2, 27608, Control_c, 0, 64, 0
2, 27609, Note_on_c, 0, 48, 0
2, 27611, Note_on_c, 0, 65, 75
2, 27611, Note_on_c, 0, 60, 70
2, 27612, Note_on_c, 0, 57, 70
2, 27613, Note_on_c, 0, 50, 71
2, 27647, Control_c, 0, 64, 127
2, 27649, Note_on_c, 0, 65, 0
2, 27653, Note_on_c, 0, 60, 0
2, 27656, Note_on_c, 0, 57, 0
2, 27676, Note_on_c, 0, 50, 0
2, 27681, Note_on_c, 0, 48, 64
2, 27683, Note_on_c, 0, 64, 57
2, 27687, Note_on_c, 0, 55, 33
2, 27689, Note_on_c, 0, 59, 36
2, 27697, Note_on_c, 0, 55, 0
2, 27699, Control_c, 0, 64, 0
2, 27701, Note_on_c, 0, 64, 0
2, 27703, Note_on_c, 0, 59, 0
2, 27716, Note_on_c, 0, 48, 0
2, 27726, Note_on_c, 0, 50, 69
2, 27726, Note_on_c, 0, 65, 72
2, 27727, Control_c, 0, 64, 127
2, 27727, Note_on_c, 0, 60, 66
2, 27727, Note_on_c, 0, 57, 62
2, 27749, Note_on_c, 0, 60, 0
2, 27749, Note_on_c, 0, 50, 0
2, 27750, Note_on_c, 0, 57, 0
2, 27760, Note_on_c, 0, 65, 0
2, 27797, Control_c, 0, 64, 0
2, 27803, Note_on_c, 0, 67, 74
2, 27804, Note_on_c, 0, 47, 74
2, 27804, Note_on_c, 0, 62, 85
2, 27823, Control_c, 0, 64, 127
2, 27827, Note_on_c, 0, 62, 0
2, 27829, Note_on_c, 0, 47, 0
2, 27832, Note_on_c, 0, 67, 0
2, 27911, Note_on_c, 0, 79, 79
2, 27912, Note_on_c, 0, 74, 81
2, 27913, Note_on_c, 0, 62, 69
2, 27913, Note_on_c, 0, 57, 66
2, 27914, Note_on_c, 0, 69, 78
2, 27916, Note_on_c, 0, 65, 73
2, 27956, Note_on_c, 0, 65, 0
2, 27956, Note_on_c, 0, 69, 0
2, 27957, Note_on_c, 0, 74, 0
2, 27961, Note_on_c, 0, 57, 0
2, 27962, Note_on_c, 0, 79, 0
2, 27968, Note_on_c, 0, 62, 0
2, 27987, Note_on_c, 0, 79, 64
2, 27987, Note_on_c, 0, 57, 69
2, 27988, Note_on_c, 0, 74, 85
2, 27989, Note_on_c, 0, 65, 74
2, 27990, Note_on_c, 0, 69, 75
2, 27991, Note_on_c, 0, 62, 47
2, 28028, Note_on_c, 0, 74, 0
2, 28030, Note_on_c, 0, 57, 0
2, 28031, Note_on_c, 0, 79, 0
2, 28034, Note_on_c, 0, 65, 0
2, 28034, Note_on_c, 0, 69, 0
2, 28040, Note_on_c, 0, 62, 0
2, 28066, Control_c, 0, 64, 0
2, 28069, Note_on_c, 0, 77, 74
2, 28071, Note_on_c, 0, 67, 79
2, 28071, Note_on_c, 0, 62, 71
2, 28072, Note_on_c, 0, 72, 78
2, 28074, Note_on_c, 0, 56, 67
2, 28088, Control_c, 0, 64, 127
2, 28147, Note_on_c, 0, 72, 0
2, 28149, Note_on_c, 0, 77, 0
2, 28155, Note_on_c, 0, 67, 0
2, 28170, Note_on_c, 0, 62, 0
2, 28187, Note_on_c, 0, 56, 0
2, 28244, Note_on_c, 0, 71, 70
2, 28244, Note_on_c, 0, 56, 59
2, 28266, Note_on_c, 0, 71, 0
2, 28279, Note_on_c, 0, 74, 81
2, 28279, Note_on_c, 0, 71, 80
2, 28280, Note_on_c, 0, 68, 80
2, 28280, Note_on_c, 0, 59, 80
2, 28280, Note_on_c, 0, 64, 80
2, 28285, Note_on_c, 0, 72, 58
2, 28293, Note_on_c, 0, 72, 0
2, 28304, Note_on_c, 0, 56, 0
2, 28305, Note_on_c, 0, 71, 0
2, 28306, Note_on_c, 0, 74, 0
2, 28306, Note_on_c, 0, 64, 0
2, 28310, Note_on_c, 0, 68, 0
2, 28312, Note_on_c, 0, 59, 0
2, 28323, Note_on_c, 0, 57, 89
2, 28323, Note_on_c, 0, 69, 88
2, 28323, Note_on_c, 0, 72, 71
2, 28324, Note_on_c, 0, 64, 75
2, 28324, Control_c, 0, 64, 0
2, 28325, Note_on_c, 0, 67, 80
2, 28357, Control_c, 0, 64, 127
2, 28382, Note_on_c, 0, 69, 0
2, 28384, Note_on_c, 0, 67, 0
2, 28395, Note_on_c, 0, 72, 0
2, 28400, Note_on_c, 0, 64, 0
2, 28437, Note_on_c, 0, 57, 0
2, 28439, Control_c, 0, 64, 0
2, 28440, Note_on_c, 0, 68, 45
2, 28442, Note_on_c, 0, 56, 51
2, 28442, Note_on_c, 0, 60, 50
2, 28447, Note_on_c, 0, 64, 39
2, 28459, Control_c, 0, 64, 127
2, 28478, Note_on_c, 0, 64, 0
2, 28493, Note_on_c, 0, 60, 0
2, 28500, Note_on_c, 0, 68, 0
2, 28517, Note_on_c, 0, 56, 0
2, 28519, Note_on_c, 0, 60, 41
2, 28520, Note_on_c, 0, 64, 60
2, 28520, Note_on_c, 0, 71, 37
2, 28524, Note_on_c, 0, 57, 57
2, 28535, Control_c, 0, 64, 0
2, 28565, Control_c, 0, 64, 127
2, 28602, Note_on_c, 0, 64, 0
2, 28604, Note_on_c, 0, 60, 0
2, 28618, Note_on_c, 0, 71, 0
2, 28633, Note_on_c, 0, 69, 57
2, 28634, Note_on_c, 0, 57, 0
2, 28636, Note_on_c, 0, 60, 36
2, 28637, Note_on_c, 0, 55, 52
2, 28638, Note_on_c, 0, 64, 43
2, 28672, Note_on_c, 0, 60, 0
2, 28675, Note_on_c, 0, 64, 0
2, 28687, Note_on_c, 0, 69, 0
2, 28718, Note_on_c, 0, 55, 0
2, 28756, Note_on_c, 0, 64, 50
2, 28756, Note_on_c, 0, 71, 46
2, 28757, Note_on_c, 0, 68, 59
2, 28761, Note_on_c, 0, 60, 49
2, 28763, Note_on_c, 0, 54, 37
2, 28772, Control_c, 0, 64, 0
2, 28808, Control_c, 0, 64, 127
2, 28872, Note_on_c, 0, 60, 0
2, 28878, Note_on_c, 0, 50, 47
2, 28887, Note_on_c, 0, 50, 0
2, 28890, Note_on_c, 0, 54, 0
2, 28917, Note_on_c, 0, 71, 0
2, 28920, Note_on_c, 0, 68, 0
2, 28924, Note_on_c, 0, 64, 0
2, 28999, Note_on_c, 0, 74, 60
2, 28999, Note_on_c, 0, 66, 46
2, 29001, Note_on_c, 0, 63, 42
2, 29002, Note_on_c, 0, 69, 44
2, 29010, Control_c, 0, 64, 0
2, 29021, Note_on_c, 0, 39, 20
2, 29028, Note_on_c, 0, 54, 29
2, 29045, Control_c, 0, 64, 127
2, 29103, Note_on_c, 0, 54, 0
2, 29116, Note_on_c, 0, 63, 0
2, 29117, Note_on_c, 0, 69, 0
2, 29118, Note_on_c, 0, 74, 0
2, 29132, Note_on_c, 0, 66, 0
2, 29152, Note_on_c, 0, 73, 34
2, 29159, Note_on_c, 0, 39, 0
2, 29160, Note_on_c, 0, 54, 31
2, 29161, Note_on_c, 0, 66, 35
2, 29162, Note_on_c, 0, 63, 32
2, 29168, Note_on_c, 0, 69, 22
2, 29175, Note_on_c, 0, 73, 0
2, 29191, Note_on_c, 0, 54, 0
2, 29203, Note_on_c, 0, 63, 0
2, 29208, Note_on_c, 0, 69, 0
2, 29227, Note_on_c, 0, 66, 0
2, 29279, Note_on_c, 0, 69, 45
2, 29283, Note_on_c, 0, 65, 44
2, 29283, Control_c, 0, 64, 0
2, 29285, Note_on_c, 0, 55, 36
2, 29285, Note_on_c, 0, 60, 35
2, 29323, Control_c, 0, 64, 127
2, 29362, Note_on_c, 0, 43, 50
2, 29445, Note_on_c, 0, 43, 0
2, 29517, Note_on_c, 0, 60, 0
2, 29522, Note_on_c, 0, 43, 59
2, 29532, Note_on_c, 0, 65, 0
2, 29542, Note_on_c, 0, 69, 0
2, 29600, Note_on_c, 0, 69, 54
2, 29607, Note_on_c, 0, 43, 0
2, 29626, Note_on_c, 0, 69, 0
2, 29626, Note_on_c, 0, 55, 0
2, 29644, Note_on_c, 0, 72, 55
2, 29664, Note_on_c, 0, 72, 0
2, 29715, Note_on_c, 0, 59, 75
2, 29717, Note_on_c, 0, 60, 89
2, 29718, Note_on_c, 0, 76, 84
2, 29719, Note_on_c, 0, 72, 84
2, 29721, Note_on_c, 0, 65, 85
2, 29721, Note_on_c, 0, 69, 77
2, 29724, Control_c, 0, 64, 0
2, 29727, Note_on_c, 0, 59, 0
2, 29756, Control_c, 0, 64, 127
2, 29788, Note_on_c, 0, 76, 0
2, 29788, Note_on_c, 0, 69, 0
2, 29789, Note_on_c, 0, 72, 0
2, 29796, Note_on_c, 0, 65, 0
2, 29834, Note_on_c, 0, 72, 65
2, 29836, Note_on_c, 0, 60, 0
2, 29836, Note_on_c, 0, 69, 61
2, 29837, Note_on_c, 0, 57, 71
2, 29837, Note_on_c, 0, 65, 71
2, 29875, Note_on_c, 0, 57, 0
2, 29877, Note_on_c, 0, 72, 0
2, 29880, Note_on_c, 0, 69, 0
2, 29887, Note_on_c, 0, 65, 0
2, 29999, Note_on_c, 0, 65, 47
2, 30002, Note_on_c, 0, 69, 46
2, 30003, Note_on_c, 0, 43, 36
2, 30003, Note_on_c, 0, 53, 36
2, 30004, Control_c, 0, 64, 0
2, 30005, Note_on_c, 0, 59, 27
2, 30028, Control_c, 0, 64, 127
2, 30052, Note_on_c, 0, 65, 0
2, 30055, Note_on_c, 0, 59, 0
2, 30067, Note_on_c, 0, 69, 0
2, 30079, Note_on_c, 0, 53, 0
2, 30117, Note_on_c, 0, 68, 51
2, 30118, Control_c, 0, 64, 0
2, 30122, Note_on_c, 0, 63, 42
2, 30122, Note_on_c, 0, 53, 42
2, 30123, Note_on_c, 0, 59, 36
2, 30148, Control_c, 0, 64, 127
2, 30166, Note_on_c, 0, 53, 0
2, 30168, Note_on_c, 0, 59, 0
2, 30184, Note_on_c, 0, 68, 0
2, 30186, Note_on_c, 0, 63, 0
2, 30202, Note_on_c, 0, 67, 55
2, 30208, Note_on_c, 0, 62, 44
2, 30208, Note_on_c, 0, 57, 41
2, 30211, Note_on_c, 0, 52, 37
2, 30212, Control_c, 0, 64, 0
2, 30248, Control_c, 0, 64, 127
2, 30264, Note_on_c, 0, 43, 0
2, 30299, Note_on_c, 0, 57, 0
2, 30317, Note_on_c, 0, 43, 56
2, 30326, Note_on_c, 0, 62, 0
2, 30335, Note_on_c, 0, 52, 0
2, 30342, Note_on_c, 0, 43, 0
2, 30348, Note_on_c, 0, 67, 0
2, 30426, Note_on_c, 0, 74, 80
2, 30468, Note_on_c, 0, 74, 0
2, 30491, Note_on_c, 0, 41, 36
2, 30492, Note_on_c, 0, 72, 66
2, 30494, Note_on_c, 0, 63, 47
2, 30497, Note_on_c, 0, 57, 55
2, 30499, Note_on_c, 0, 67, 46
2, 30499, Control_c, 0, 64, 0
2, 30523, Control_c, 0, 64, 127
2, 30543, Note_on_c, 0, 67, 0
2, 30556, Note_on_c, 0, 41, 0
2, 30558, Note_on_c, 0, 57, 0
2, 30568, Note_on_c, 0, 63, 0
2, 30575, Note_on_c, 0, 72, 0
2, 30577, Note_on_c, 0, 67, 47
2, 30634, Note_on_c, 0, 67, 0
2, 30660, Note_on_c, 0, 63, 57
2, 30711, Note_on_c, 0, 63, 0
2, 30724, Note_on_c, 0, 40, 48
2, 30727, Note_on_c, 0, 62, 50
2, 30730, Control_c, 0, 64, 0
2, 30732, Note_on_c, 0, 55, 29
2, 30760, Control_c, 0, 64, 127
2, 30792, Note_on_c, 0, 40, 0
2, 30805, Note_on_c, 0, 71, 55
2, 30815, Note_on_c, 0, 55, 0
2, 30820, Note_on_c, 0, 62, 0
2, 30886, Note_on_c, 0, 67, 46
2, 30887, Note_on_c, 0, 71, 0
2, 30907, Note_on_c, 0, 67, 0
2, 30925, Note_on_c, 0, 69, 55
2, 30946, Note_on_c, 0, 69, 0
2, 30964, Control_c, 0, 64, 0
2, 30966, Note_on_c, 0, 66, 35
2, 30966, Note_on_c, 0, 61, 36
2, 30968, Note_on_c, 0, 55, 38
2, 30968, Note_on_c, 0, 70, 35
2, 31011, Control_c, 0, 64, 127
2, 31027, Note_on_c, 0, 70, 0
2, 31038, Note_on_c, 0, 72, 50
2, 31061, Note_on_c, 0, 72, 0
2, 31081, Note_on_c, 0, 74, 60
2, 31089, Control_c, 0, 64, 0
2, 31102, Note_on_c, 0, 74, 0
2, 31114, Note_on_c, 0, 66, 0
2, 31141, Control_c, 0, 64, 127
2, 31155, Note_on_c, 0, 76, 70
2, 31178, Note_on_c, 0, 76, 0
2, 31187, Control_c, 0, 64, 0
2, 31191, Note_on_c, 0, 55, 0
2, 31197, Note_on_c, 0, 61, 0
2, 31200, Note_on_c, 0, 79, 67
2, 31201, Note_on_c, 0, 69, 64
2, 31202, Note_on_c, 0, 64, 51
2, 31203, Note_on_c, 0, 72, 55
2, 31224, Note_on_c, 0, 72, 0
2, 31229, Control_c, 0, 64, 127
2, 31232, Note_on_c, 0, 69, 0
2, 31233, Note_on_c, 0, 79, 0
2, 31235, Control_c, 0, 64, 0
2, 31257, Note_on_c, 0, 64, 0
2, 31319, Note_on_c, 0, 77, 53
2, 31319, Note_on_c, 0, 62, 36
2, 31321, Note_on_c, 0, 72, 45
2, 31322, Note_on_c, 0, 69, 36
2, 31351, Note_on_c, 0, 77, 0
2, 31352, Note_on_c, 0, 72, 0
2, 31353, Note_on_c, 0, 69, 0
2, 31355, Control_c, 0, 64, 127
2, 31362, Note_on_c, 0, 62, 0
2, 31424, Control_c, 0, 64, 0
2, 31436, Note_on_c, 0, 76, 45
2, 31441, Note_on_c, 0, 72, 38
2, 31443, Note_on_c, 0, 65, 26
2, 31444, Note_on_c, 0, 69, 34
2, 31444, Note_on_c, 0, 60, 36
2, 31458, Control_c, 0, 64, 127
2, 31467, Note_on_c, 0, 69, 0
2, 31471, Note_on_c, 0, 72, 0
2, 31474, Note_on_c, 0, 65, 0
2, 31482, Note_on_c, 0, 76, 0
2, 31505, Note_on_c, 0, 60, 0
2, 31526, Note_on_c, 0, 71, 47
2, 31526, Note_on_c, 0, 57, 43
2, 31528, Note_on_c, 0, 68, 35
2, 31531, Note_on_c, 0, 65, 33
2, 31540, Note_on_c, 0, 65, 0
2, 31546, Note_on_c, 0, 68, 0
2, 31558, Note_on_c, 0, 71, 0
2, 31561, Note_on_c, 0, 57, 0
2, 31562, Control_c, 0, 64, 0
2, 31570, Note_on_c, 0, 74, 51
2, 31572, Note_on_c, 0, 68, 46
2, 31574, Note_on_c, 0, 65, 53
2, 31575, Note_on_c, 0, 59, 43
2, 31575, Note_on_c, 0, 71, 41
2, 31594, Note_on_c, 0, 71, 0
2, 31599, Note_on_c, 0, 65, 0
2, 31604, Note_on_c, 0, 74, 0
2, 31604, Control_c, 0, 64, 127
2, 31609, Note_on_c, 0, 68, 0
2, 31612, Note_on_c, 0, 59, 0
2, 31646, Note_on_c, 0, 72, 62
2, 31649, Note_on_c, 0, 67, 65
2, 31650, Note_on_c, 0, 59, 43
2, 31650, Control_c, 0, 64, 0
2, 31651, Note_on_c, 0, 62, 40
2, 31667, Note_on_c, 0, 67, 0
2, 31669, Note_on_c, 0, 72, 0
2, 31670, Note_on_c, 0, 59, 0
2, 31676, Note_on_c, 0, 62, 0
2, 31709, Note_on_c, 0, 57, 45
2, 31710, Note_on_c, 0, 71, 53
2, 31713, Note_on_c, 0, 67, 36
2, 31714, Note_on_c, 0, 62, 49
2, 31714, Control_c, 0, 64, 127
2, 31716, Note_on_c, 0, 64, 49
2, 31731, Note_on_c, 0, 67, 0
2, 31731, Note_on_c, 0, 57, 0
2, 31733, Note_on_c, 0, 71, 0
2, 31736, Note_on_c, 0, 64, 0
2, 31742, Note_on_c, 0, 62, 0
2, 31783, Control_c, 0, 64, 0
2, 31786, Note_on_c, 0, 67, 31
2, 31787, Note_on_c, 0, 62, 31
2, 31789, Note_on_c, 0, 59, 38
2, 31790, Note_on_c, 0, 64, 39
2, 31796, Note_on_c, 0, 52, 27
2, 31799, Control_c, 0, 64, 127
2, 31808, Note_on_c, 0, 62, 0
2, 31809, Note_on_c, 0, 59, 0
2, 31810, Note_on_c, 0, 64, 0
2, 31817, Note_on_c, 0, 67, 0
2, 31867, Note_on_c, 0, 52, 0
2, 31875, Note_on_c, 0, 61, 42
2, 31877, Note_on_c, 0, 64, 41
2, 31878, Note_on_c, 0, 58, 27
2, 31881, Note_on_c, 0, 55, 30
2, 31881, Note_on_c, 0, 45, 35
2, 31885, Control_c, 0, 64, 0
2, 31923, Control_c, 0, 64, 127
2, 31955, Note_on_c, 0, 45, 0
2, 31980, Note_on_c, 0, 55, 0
2, 31990, Note_on_c, 0, 45, 74
2, 32022, Note_on_c, 0, 58, 0
2, 32023, Note_on_c, 0, 64, 0
2, 32027, Note_on_c, 0, 45, 0
2, 32047, Note_on_c, 0, 61, 0
2, 32154, Note_on_c, 0, 76, 55
2, 32157, Note_on_c, 0, 61, 60
2, 32158, Control_c, 0, 64, 0
2, 32158, Note_on_c, 0, 73, 36
2, 32160, Note_on_c, 0, 70, 52
2, 32177, Note_on_c, 0, 70, 0
2, 32193, Note_on_c, 0, 76, 0
2, 32193, Note_on_c, 0, 61, 0
2, 32193, Note_on_c, 0, 79, 58
2, 32193, Note_on_c, 0, 70, 27
2, 32194, Note_on_c, 0, 64, 56
2, 32200, Control_c, 0, 64, 127
2, 32211, Note_on_c, 0, 73, 0
2, 32216, Note_on_c, 0, 79, 0
2, 32217, Note_on_c, 0, 70, 0
2, 32221, Note_on_c, 0, 64, 0
2, 32226, Control_c, 0, 64, 0
2, 32231, Note_on_c, 0, 77, 54
2, 32236, Note_on_c, 0, 62, 55
2, 32238, Note_on_c, 0, 69, 51
2, 32252, Note_on_c, 0, 69, 0
2, 32254, Note_on_c, 0, 77, 0
2, 32259, Note_on_c, 0, 62, 0
2, 32317, Note_on_c, 0, 72, 56
2, 32319, Note_on_c, 0, 57, 49
2, 32320, Note_on_c, 0, 65, 35
2, 32333, Note_on_c, 0, 65, 0
2, 32346, Note_on_c, 0, 57, 0
2, 32349, Note_on_c, 0, 72, 0
2, 32355, Note_on_c, 0, 76, 64
2, 32357, Note_on_c, 0, 60, 54
2, 32361, Note_on_c, 0, 65, 29
2, 32368, Control_c, 0, 64, 127
2, 32369, Note_on_c, 0, 69, 24
2, 32378, Note_on_c, 0, 69, 0
2, 32379, Note_on_c, 0, 65, 0
2, 32379, Note_on_c, 0, 76, 0
2, 32392, Control_c, 0, 64, 0
2, 32393, Note_on_c, 0, 60, 0
2, 32396, Note_on_c, 0, 74, 54
2, 32397, Note_on_c, 0, 65, 49
2, 32400, Note_on_c, 0, 59, 55
2, 32413, Note_on_c, 0, 65, 0
2, 32418, Note_on_c, 0, 59, 0
2, 32419, Note_on_c, 0, 74, 0
2, 32437, Control_c, 0, 64, 127
2, 32487, Control_c, 0, 64, 0
2, 32504, Note_on_c, 0, 68, 54
2, 32507, Note_on_c, 0, 62, 38
2, 32515, Control_c, 0, 64, 127
2, 32530, Note_on_c, 0, 62, 0
2, 32547, Note_on_c, 0, 71, 64
2, 32550, Note_on_c, 0, 62, 36
2, 32552, Note_on_c, 0, 70, 31
2, 32565, Note_on_c, 0, 70, 0
2, 32566, Note_on_c, 0, 62, 0
2, 32571, Note_on_c, 0, 71, 0
2, 32571, Note_on_c, 0, 68, 0
2, 32587, Note_on_c, 0, 69, 64
2, 32589, Control_c, 0, 64, 0
2, 32591, Note_on_c, 0, 53, 40
2, 32600, Note_on_c, 0, 53, 0
2, 32605, Note_on_c, 0, 69, 0
2, 32661, Control_c, 0, 64, 127
2, 32676, Note_on_c, 0, 59, 40
2, 32678, Note_on_c, 0, 43, 44
2, 32685, Note_on_c, 0, 50, 34
2, 32697, Note_on_c, 0, 50, 0
2, 32697, Note_on_c, 0, 59, 0
2, 32740, Note_on_c, 0, 43, 0
2, 32759, Control_c, 0, 64, 0
2, 32762, Note_on_c, 0, 43, 22
2, 32764, Note_on_c, 0, 57, 51
2, 32764, Note_on_c, 0, 64, 46
2, 32767, Note_on_c, 0, 52, 54
2, 32767, Note_on_c, 0, 67, 54
2, 32770, Note_on_c, 0, 62, 37
2, 32808, Note_on_c, 0, 43, 0
2, 32808, Control_c, 0, 64, 127
2, 32835, Note_on_c, 0, 57, 0
2, 32840, Note_on_c, 0, 67, 0
2, 32841, Note_on_c, 0, 62, 0
2, 32844, Note_on_c, 0, 64, 0
2, 32850, Note_on_c, 0, 67, 49
2, 32851, Note_on_c, 0, 57, 62
2, 32851, Note_on_c, 0, 43, 64
2, 32854, Note_on_c, 0, 64, 27
2, 32855, Note_on_c, 0, 62, 53
2, 32866, Control_c, 0, 64, 0
2, 32896, Control_c, 0, 64, 127
2, 32904, Note_on_c, 0, 67, 0
2, 32912, Note_on_c, 0, 64, 0
2, 32917, Note_on_c, 0, 57, 0
2, 32917, Note_on_c, 0, 62, 0
2, 32950, Note_on_c, 0, 52, 0
2, 32961, Note_on_c, 0, 66, 34
2, 32962, Note_on_c, 0, 56, 52
2, 32963, Note_on_c, 0, 51, 38
2, 32969, Note_on_c, 0, 61, 30
2, 32985, Note_on_c, 0, 61, 0
2, 32986, Note_on_c, 0, 66, 0
2, 32989, Note_on_c, 0, 56, 0
2, 32990, Control_c, 0, 64, 0
2, 33004, Note_on_c, 0, 51, 0
2, 33007, Note_on_c, 0, 67, 53
2, 33007, Note_on_c, 0, 57, 57
2, 33008, Note_on_c, 0, 52, 52
2, 33010, Note_on_c, 0, 43, 0
2, 33010, Note_on_c, 0, 62, 49
2, 33016, Control_c, 0, 64, 127
2, 33026, Note_on_c, 0, 52, 0
2, 33028, Note_on_c, 0, 57, 0
2, 33049, Note_on_c, 0, 62, 0
2, 33061, Note_on_c, 0, 67, 0
2, 33123, Note_on_c, 0, 62, 64
2, 33124, Control_c, 0, 64, 0
2, 33125, Note_on_c, 0, 70, 76
2, 33126, Note_on_c, 0, 58, 42
2, 33128, Note_on_c, 0, 57, 50
2, 33184, Note_on_c, 0, 58, 0
2, 33188, Note_on_c, 0, 57, 0
2, 33192, Note_on_c, 0, 62, 0
2, 33210, Note_on_c, 0, 67, 27
2, 33211, Note_on_c, 0, 70, 0
2, 33233, Note_on_c, 0, 67, 0
2, 33238, Note_on_c, 0, 62, 27
2, 33241, Note_on_c, 0, 57, 19
2, 33248, Note_on_c, 0, 69, 42
2, 33261, Note_on_c, 0, 62, 0
2, 33277, Note_on_c, 0, 57, 0
2, 33321, Note_on_c, 0, 70, 60
2, 33327, Note_on_c, 0, 69, 0
2, 33344, Note_on_c, 0, 70, 0
2, 33363, Note_on_c, 0, 62, 33
2, 33364, Note_on_c, 0, 74, 58
2, 33368, Note_on_c, 0, 58, 19
2, 33381, Note_on_c, 0, 62, 0
2, 33389, Note_on_c, 0, 58, 0
2, 33421, Note_on_c, 0, 74, 0
2, 33447, Note_on_c, 0, 81, 51
2, 33459, Note_on_c, 0, 81, 0
2, 33473, Note_on_c, 0, 62, 60
2, 33475, Note_on_c, 0, 58, 38
2, 33487, Note_on_c, 0, 84, 54
2, 33488, Note_on_c, 0, 71, 51
2, 33488, Note_on_c, 0, 83, 42
2, 33491, Note_on_c, 0, 72, 34
2, 33492, Note_on_c, 0, 82, 32
2, 33521, Note_on_c, 0, 84, 0
2, 33523, Note_on_c, 0, 83, 0
2, 33524, Note_on_c, 0, 72, 0
2, 33531, Note_on_c, 0, 71, 0
2, 33540, Note_on_c, 0, 62, 0
2, 33542, Note_on_c, 0, 82, 0
2, 33545, Note_on_c, 0, 58, 0
2, 33559, Note_on_c, 0, 72, 62
2, 33561, Note_on_c, 0, 81, 55
2, 33561, Note_on_c, 0, 84, 51
2, 33569, Note_on_c, 0, 83, 28
2, 33580, Note_on_c, 0, 83, 0
2, 33584, Note_on_c, 0, 72, 0
2, 33591, Note_on_c, 0, 66, 46
2, 33594, Note_on_c, 0, 61, 36
2, 33598, Note_on_c, 0, 81, 0
2, 33599, Note_on_c, 0, 84, 0
2, 33600, Note_on_c, 0, 55, 20
2, 33605, Note_on_c, 0, 72, 41
2, 33614, Note_on_c, 0, 55, 0
2, 33616, Note_on_c, 0, 66, 0
2, 33619, Note_on_c, 0, 84, 24
2, 33622, Note_on_c, 0, 72, 0
2, 33624, Note_on_c, 0, 61, 0
2, 33627, Note_on_c, 0, 81, 20
2, 33639, Note_on_c, 0, 81, 0
2, 33640, Note_on_c, 0, 72, 46
2, 33641, Note_on_c, 0, 84, 0
2, 33658, Note_on_c, 0, 72, 0
2, 33660, Note_on_c, 0, 84, 29
2, 33666, Note_on_c, 0, 81, 32
2, 33671, Note_on_c, 0, 77, 26
2, 33681, Note_on_c, 0, 72, 40
2, 33687, Note_on_c, 0, 81, 0
2, 33689, Note_on_c, 0, 84, 0
2, 33690, Note_on_c, 0, 77, 0
2, 33698, Note_on_c, 0, 72, 0
2, 33709, Note_on_c, 0, 65, 55
2, 33709, Note_on_c, 0, 55, 50
2, 33711, Note_on_c, 0, 61, 37
2, 33777, Note_on_c, 0, 65, 0
2, 33782, Note_on_c, 0, 55, 0
2, 33795, Note_on_c, 0, 73, 65
2, 33795, Note_on_c, 0, 69, 89
2, 33796, Note_on_c, 0, 61, 0
2, 33796, Note_on_c, 0, 76, 70
2, 33796, Note_on_c, 0, 81, 77
2, 33800, Note_on_c, 0, 71, 55
2, 33806, Note_on_c, 0, 79, 19
2, 33808, Note_on_c, 0, 71, 0
2, 33816, Note_on_c, 0, 79, 0
2, 33822, Note_on_c, 0, 81, 0
2, 33824, Note_on_c, 0, 76, 0
2, 33834, Note_on_c, 0, 61, 36
2, 33835, Note_on_c, 0, 69, 0
2, 33835, Note_on_c, 0, 73, 0
2, 33837, Note_on_c, 0, 55, 34
2, 33838, Note_on_c, 0, 64, 27
2, 33852, Note_on_c, 0, 64, 0
2, 33868, Note_on_c, 0, 61, 0
2, 33879, Note_on_c, 0, 75, 56
2, 33881, Note_on_c, 0, 63, 56
2, 33883, Note_on_c, 0, 55, 0
2, 33883, Control_c, 0, 64, 127
2, 33893, Note_on_c, 0, 72, 33
2, 33893, Note_on_c, 0, 69, 37
2, 33902, Note_on_c, 0, 63, 0
2, 33914, Note_on_c, 0, 75, 0
2, 33922, Note_on_c, 0, 72, 0
2, 33924, Note_on_c, 0, 69, 0
2, 33933, Control_c, 0, 64, 0
2, 33946, Note_on_c, 0, 55, 60
2, 33977, Control_c, 0, 64, 127
2, 33991, Note_on_c, 0, 55, 0
2, 34031, Note_on_c, 0, 65, 62
2, 34032, Note_on_c, 0, 72, 60
2, 34032, Note_on_c, 0, 69, 50
2, 34032, Note_on_c, 0, 60, 59
2, 34053, Control_c, 0, 64, 0
2, 34064, Note_on_c, 0, 50, 36
2, 34066, Note_on_c, 0, 57, 33
2, 34081, Control_c, 0, 64, 127
2, 34084, Note_on_c, 0, 60, 0
2, 34101, Note_on_c, 0, 65, 0
2, 34107, Note_on_c, 0, 69, 0
2, 34108, Note_on_c, 0, 72, 0
2, 34108, Note_on_c, 0, 57, 0
2, 34124, Note_on_c, 0, 50, 0
2, 34161, Note_on_c, 0, 76, 69
2, 34164, Note_on_c, 0, 65, 71
2, 34164, Note_on_c, 0, 72, 59
2, 34164, Note_on_c, 0, 69, 64
2, 34166, Note_on_c, 0, 60, 59
2, 34166, Note_on_c, 0, 62, 34
2, 34173, Note_on_c, 0, 62, 0
2, 34185, Note_on_c, 0, 65, 0
2, 34187, Control_c, 0, 64, 0
2, 34188, Note_on_c, 0, 60, 0
2, 34192, Note_on_c, 0, 69, 0
2, 34192, Note_on_c, 0, 72, 0
2, 34195, Note_on_c, 0, 76, 0
2, 34210, Note_on_c, 0, 60, 52
2, 34213, Note_on_c, 0, 74, 35
2, 34248, Control_c, 0, 64, 127
2, 34260, Note_on_c, 0, 74, 0
2, 34274, Note_on_c, 0, 60, 0
2, 34282, Control_c, 0, 64, 0
2, 34283, Note_on_c, 0, 62, 66
2, 34284, Note_on_c, 0, 76, 67
2, 34284, Note_on_c, 0, 72, 60
2, 34285, Note_on_c, 0, 65, 64
2, 34285, Note_on_c, 0, 69, 62
2, 34318, Control_c, 0, 64, 127
2, 34368, Note_on_c, 0, 65, 0
2, 34376, Note_on_c, 0, 69, 0
2, 34383, Note_on_c, 0, 76, 0
2, 34385, Note_on_c, 0, 72, 0
2, 34394, Note_on_c, 0, 62, 0
2, 34401, Note_on_c, 0, 74, 44
2, 34404, Note_on_c, 0, 65, 41
2, 34404, Note_on_c, 0, 60, 58
2, 34407, Note_on_c, 0, 69, 29
2, 34415, Note_on_c, 0, 69, 0
2, 34420, Note_on_c, 0, 74, 0
2, 34421, Note_on_c, 0, 65, 0
2, 34436, Control_c, 0, 64, 0
2, 34453, Note_on_c, 0, 60, 0
2, 34453, Note_on_c, 0, 57, 54
2, 34453, Note_on_c, 0, 65, 47
2, 34455, Note_on_c, 0, 72, 30
2, 34456, Note_on_c, 0, 69, 36
2, 34462, Note_on_c, 0, 57, 0
2, 34470, Control_c, 0, 64, 127
2, 34507, Note_on_c, 0, 65, 0
2, 34507, Note_on_c, 0, 72, 0
2, 34508, Note_on_c, 0, 69, 0
2, 34526, Note_on_c, 0, 48, 59
2, 34554, Note_on_c, 0, 48, 0
2, 34561, Control_c, 0, 64, 0
2, 34571, Note_on_c, 0, 70, 54
2, 34571, Note_on_c, 0, 67, 56
2, 34572, Note_on_c, 0, 63, 60
2, 34578, Note_on_c, 0, 60, 38
2, 34587, Note_on_c, 0, 60, 0
2, 34587, Control_c, 0, 64, 127
2, 34591, Note_on_c, 0, 67, 0
2, 34598, Note_on_c, 0, 70, 0
2, 34601, Note_on_c, 0, 63, 0
2, 34644, Note_on_c, 0, 60, 70
2, 34646, Note_on_c, 0, 56, 58
2, 34648, Note_on_c, 0, 41, 66
2, 34657, Control_c, 0, 64, 0
2, 34675, Note_on_c, 0, 56, 0
2, 34677, Note_on_c, 0, 41, 0
2, 34685, Control_c, 0, 64, 127
2, 34694, Note_on_c, 0, 60, 0
2, 34697, Note_on_c, 0, 58, 49
2, 34700, Note_on_c, 0, 62, 61
2, 34746, Note_on_c, 0, 58, 0
2, 34752, Note_on_c, 0, 62, 0
2, 34767, Note_on_c, 0, 46, 60
2, 34767, Note_on_c, 0, 63, 60
2, 34768, Note_on_c, 0, 56, 49
2, 34768, Note_on_c, 0, 60, 66
2, 34773, Control_c, 0, 64, 0
2, 34803, Control_c, 0, 64, 127
2, 34820, Note_on_c, 0, 56, 0
2, 34825, Note_on_c, 0, 60, 0
2, 34827, Note_on_c, 0, 63, 0
2, 34844, Note_on_c, 0, 62, 64
2, 34845, Note_on_c, 0, 65, 68
2, 34848, Note_on_c, 0, 60, 55
2, 34849, Note_on_c, 0, 56, 45
2, 34855, Note_on_c, 0, 60, 0
2, 34868, Note_on_c, 0, 62, 0
2, 34871, Note_on_c, 0, 65, 0
2, 34890, Note_on_c, 0, 56, 0
2, 34924, Control_c, 0, 64, 0
2, 34927, Note_on_c, 0, 67, 59
2, 34928, Note_on_c, 0, 63, 60
2, 34930, Note_on_c, 0, 56, 45
2, 34942, Control_c, 0, 64, 127
2, 34953, Note_on_c, 0, 46, 0
2, 34966, Note_on_c, 0, 56, 0
2, 34968, Note_on_c, 0, 67, 0
2, 34973, Note_on_c, 0, 63, 0
2, 35009, Note_on_c, 0, 48, 63
2, 35010, Control_c, 0, 64, 0
2, 35010, Note_on_c, 0, 55, 64
2, 35034, Control_c, 0, 64, 127
2, 35047, Note_on_c, 0, 48, 0
2, 35053, Note_on_c, 0, 55, 0
2, 35098, Note_on_c, 0, 66, 77
2, 35099, Note_on_c, 0, 69, 76
2, 35100, Note_on_c, 0, 52, 63
2, 35101, Note_on_c, 0, 57, 72
2, 35102, Note_on_c, 0, 62, 67
2, 35143, Note_on_c, 0, 69, 0
2, 35146, Note_on_c, 0, 66, 0
2, 35172, Note_on_c, 0, 71, 76
2, 35173, Note_on_c, 0, 67, 80
2, 35183, Note_on_c, 0, 57, 0
2, 35192, Note_on_c, 0, 52, 0
2, 35215, Note_on_c, 0, 67, 0
2, 35221, Note_on_c, 0, 62, 0
2, 35228, Note_on_c, 0, 71, 0
2, 35245, Note_on_c, 0, 72, 83
2, 35246, Note_on_c, 0, 69, 88
2, 35247, Note_on_c, 0, 54, 57
2, 35247, Note_on_c, 0, 59, 64
2, 35248, Control_c, 0, 64, 0
2, 35249, Note_on_c, 0, 64, 67
2, 35279, Control_c, 0, 64, 127
2, 35301, Note_on_c, 0, 72, 0
2, 35308, Note_on_c, 0, 69, 0
2, 35309, Note_on_c, 0, 59, 0
2, 35311, Note_on_c, 0, 64, 0
2, 35320, Note_on_c, 0, 74, 77
2, 35323, Note_on_c, 0, 71, 67
2, 35324, Note_on_c, 0, 69, 53
2, 35328, Note_on_c, 0, 54, 0
2, 35331, Note_on_c, 0, 69, 0
2, 35346, Note_on_c, 0, 71, 0
2, 35356, Note_on_c, 0, 74, 0
2, 35385, Control_c, 0, 64, 0
2, 35393, Note_on_c, 0, 76, 71
2, 35394, Note_on_c, 0, 62, 60
2, 35396, Note_on_c, 0, 57, 58
2, 35396, Note_on_c, 0, 72, 70
2, 35397, Note_on_c, 0, 52, 55
2, 35405, Control_c, 0, 64, 127
2, 35412, Note_on_c, 0, 62, 0
2, 35415, Note_on_c, 0, 57, 0
2, 35421, Note_on_c, 0, 72, 0
2, 35423, Note_on_c, 0, 52, 0
2, 35425, Note_on_c, 0, 76, 0
2, 35475, Control_c, 0, 64, 0
2, 35475, Note_on_c, 0, 47, 70
2, 35476, Note_on_c, 0, 77, 66
2, 35476, Note_on_c, 0, 74, 68
2, 35478, Note_on_c, 0, 57, 62
2, 35481, Note_on_c, 0, 65, 67
2, 35502, Note_on_c, 0, 65, 0
2, 35503, Note_on_c, 0, 47, 0
2, 35505, Control_c, 0, 64, 127
2, 35519, Note_on_c, 0, 57, 0
2, 35521, Note_on_c, 0, 74, 0
2, 35545, Note_on_c, 0, 77, 0
2, 35548, Note_on_c, 0, 74, 50
2, 35553, Note_on_c, 0, 69, 54
2, 35585, Note_on_c, 0, 74, 0
2, 35596, Note_on_c, 0, 69, 0
2, 35634, Note_on_c, 0, 79, 67
2, 35636, Control_c, 0, 64, 0
2, 35636, Note_on_c, 0, 65, 56
2, 35636, Note_on_c, 0, 72, 71
2, 35637, Note_on_c, 0, 62, 37
2, 35637, Note_on_c, 0, 57, 49
2, 35660, Control_c, 0, 64, 127
2, 35681, Note_on_c, 0, 72, 0
2, 35687, Note_on_c, 0, 57, 0
2, 35690, Note_on_c, 0, 65, 0
2, 35692, Note_on_c, 0, 79, 0
2, 35716, Note_on_c, 0, 76, 54
2, 35721, Note_on_c, 0, 56, 50
2, 35722, Note_on_c, 0, 72, 47
2, 35722, Note_on_c, 0, 67, 44
2, 35732, Control_c, 0, 64, 0
2, 35741, Note_on_c, 0, 67, 0
2, 35743, Note_on_c, 0, 72, 0
2, 35750, Control_c, 0, 64, 127
2, 35751, Note_on_c, 0, 62, 0
2, 35756, Note_on_c, 0, 76, 0
2, 35798, Note_on_c, 0, 79, 58
2, 35798, Note_on_c, 0, 67, 46
2, 35800, Note_on_c, 0, 62, 38
2, 35800, Note_on_c, 0, 86, 44
2, 35803, Note_on_c, 0, 84, 49
2, 35810, Note_on_c, 0, 84, 0
2, 35826, Note_on_c, 0, 79, 0
2, 35839, Note_on_c, 0, 86, 0
2, 35844, Note_on_c, 0, 67, 0
2, 35869, Note_on_c, 0, 56, 0
2, 35880, Note_on_c, 0, 84, 55
2, 35880, Note_on_c, 0, 65, 51
2, 35880, Note_on_c, 0, 56, 28
2, 35881, Note_on_c, 0, 78, 53
2, 35885, Control_c, 0, 64, 0
2, 35885, Note_on_c, 0, 72, 43
2, 35897, Control_c, 0, 64, 127
2, 35931, Note_on_c, 0, 56, 0
2, 35939, Note_on_c, 0, 72, 0
2, 35961, Note_on_c, 0, 56, 52
2, 35966, Note_on_c, 0, 65, 0
2, 35971, Note_on_c, 0, 62, 0
2, 35976, Note_on_c, 0, 84, 0
2, 35984, Note_on_c, 0, 78, 0
2, 35987, Note_on_c, 0, 56, 0
2, 36005, Control_c, 0, 64, 0
2, 36007, Note_on_c, 0, 62, 65
2, 36008, Note_on_c, 0, 57, 48
2, 36010, Note_on_c, 0, 58, 38
2, 36012, Note_on_c, 0, 53, 34
2, 36031, Control_c, 0, 64, 127
2, 36096, Note_on_c, 0, 53, 0
2, 36097, Note_on_c, 0, 62, 0
2, 36100, Note_on_c, 0, 58, 0
2, 36108, Note_on_c, 0, 57, 0
2, 36124, Note_on_c, 0, 84, 101
2, 36125, Note_on_c, 0, 62, 46
2, 36127, Note_on_c, 0, 58, 46
2, 36128, Note_on_c, 0, 57, 43
2, 36130, Note_on_c, 0, 53, 38
2, 36131, Control_c, 0, 64, 0
2, 36155, Note_on_c, 0, 84, 0
2, 36159, Control_c, 0, 64, 127
2, 36164, Note_on_c, 0, 81, 50
2, 36167, Note_on_c, 0, 57, 0
2, 36169, Note_on_c, 0, 62, 0
2, 36175, Note_on_c, 0, 53, 0
2, 36183, Note_on_c, 0, 81, 0
2, 36194, Note_on_c, 0, 82, 46
2, 36212, Note_on_c, 0, 58, 0
2, 36213, Note_on_c, 0, 82, 0
2, 36224, Note_on_c, 0, 84, 62
2, 36226, Control_c, 0, 64, 0
2, 36237, Note_on_c, 0, 63, 51
2, 36238, Note_on_c, 0, 58, 33
2, 36243, Note_on_c, 0, 56, 28
2, 36248, Note_on_c, 0, 52, 28
2, 36250, Note_on_c, 0, 84, 0
2, 36263, Note_on_c, 0, 85, 65
2, 36301, Note_on_c, 0, 85, 0
2, 36321, Note_on_c, 0, 63, 0
2, 36321, Note_on_c, 0, 58, 0
2, 36321, Note_on_c, 0, 87, 87
2, 36324, Note_on_c, 0, 56, 0
2, 36339, Note_on_c, 0, 52, 0
2, 36353, Note_on_c, 0, 87, 0
2, 36362, Note_on_c, 0, 63, 42
2, 36369, Note_on_c, 0, 58, 33
2, 36370, Note_on_c, 0, 85, 77
2, 36374, Note_on_c, 0, 56, 25
2, 36376, Note_on_c, 0, 52, 22
2, 36400, Note_on_c, 0, 85, 0
2, 36407, Note_on_c, 0, 84, 35
2, 36414, Note_on_c, 0, 52, 0
2, 36421, Note_on_c, 0, 84, 0
2, 36424, Note_on_c, 0, 56, 0
2, 36433, Note_on_c, 0, 58, 0
2, 36436, Note_on_c, 0, 63, 0
2, 36440, Note_on_c, 0, 82, 64
2, 36466, Note_on_c, 0, 82, 0
2, 36473, Note_on_c, 0, 60, 33
2, 36473, Note_on_c, 0, 64, 24
2, 36476, Note_on_c, 0, 53, 22
2, 36477, Note_on_c, 0, 57, 33
2, 36478, Note_on_c, 0, 80, 50
2, 36496, Note_on_c, 0, 80, 0
2, 36518, Note_on_c, 0, 81, 70
2, 36542, Note_on_c, 0, 81, 0
2, 36554, Note_on_c, 0, 64, 0
2, 36558, Note_on_c, 0, 60, 0
2, 36565, Note_on_c, 0, 76, 48
2, 36571, Note_on_c, 0, 57, 0
2, 36580, Note_on_c, 0, 76, 0
2, 36596, Note_on_c, 0, 79, 64
2, 36605, Note_on_c, 0, 64, 33
2, 36605, Note_on_c, 0, 60, 33
2, 36606, Note_on_c, 0, 57, 27
2, 36624, Note_on_c, 0, 79, 0
2, 36639, Note_on_c, 0, 64, 0
2, 36650, Note_on_c, 0, 72, 49
2, 36678, Note_on_c, 0, 72, 0
2, 36679, Note_on_c, 0, 60, 0
2, 36685, Note_on_c, 0, 57, 0
2, 36700, Note_on_c, 0, 74, 81
2, 36730, Note_on_c, 0, 74, 0
2, 36732, Note_on_c, 0, 62, 33
2, 36735, Note_on_c, 0, 60, 29
2, 36740, Note_on_c, 0, 57, 22
2, 36742, Note_on_c, 0, 69, 53
2, 36754, Note_on_c, 0, 62, 0
2, 36759, Note_on_c, 0, 69, 0
2, 36778, Note_on_c, 0, 60, 0
2, 36779, Note_on_c, 0, 72, 61
2, 36791, Note_on_c, 0, 57, 0
2, 36798, Note_on_c, 0, 72, 0
2, 36801, Control_c, 0, 64, 127
2, 36811, Note_on_c, 0, 67, 35
2, 36823, Note_on_c, 0, 67, 0
2, 36844, Note_on_c, 0, 69, 65
2, 36850, Note_on_c, 0, 60, 30
2, 36853, Control_c, 0, 64, 0
2, 36854, Note_on_c, 0, 57, 26
2, 36861, Note_on_c, 0, 53, 0
2, 36870, Note_on_c, 0, 60, 0
2, 36873, Note_on_c, 0, 69, 0
2, 36885, Note_on_c, 0, 62, 43
2, 36892, Control_c, 0, 64, 127
2, 36895, Note_on_c, 0, 68, 19
2, 36914, Note_on_c, 0, 68, 0
2, 36931, Note_on_c, 0, 62, 0
2, 36933, Note_on_c, 0, 57, 0
2, 36943, Note_on_c, 0, 53, 34
2, 36951, Note_on_c, 0, 53, 0
2, 36970, Control_c, 0, 64, 0
2, 36973, Note_on_c, 0, 47, 62
2, 36985, Note_on_c, 0, 47, 0
2, 36994, Control_c, 0, 64, 127
2, 37049, Note_on_c, 0, 74, 71
2, 37051, Note_on_c, 0, 71, 68
2, 37051, Note_on_c, 0, 64, 79
2, 37051, Note_on_c, 0, 65, 78
2, 37052, Note_on_c, 0, 69, 69
2, 37112, Note_on_c, 0, 65, 0
2, 37112, Note_on_c, 0, 74, 0
2, 37117, Note_on_c, 0, 69, 0
2, 37122, Note_on_c, 0, 71, 0
2, 37135, Note_on_c, 0, 76, 66
2, 37137, Note_on_c, 0, 69, 66
2, 37139, Note_on_c, 0, 65, 51
2, 37153, Note_on_c, 0, 65, 0
2, 37155, Note_on_c, 0, 69, 0
2, 37156, Note_on_c, 0, 76, 0
2, 37163, Note_on_c, 0, 64, 0
2, 37172, Note_on_c, 0, 74, 54
2, 37174, Note_on_c, 0, 62, 52
2, 37193, Note_on_c, 0, 62, 0
2, 37195, Note_on_c, 0, 74, 0
2, 37203, Control_c, 0, 64, 0
2, 37212, Note_on_c, 0, 76, 81
2, 37213, Note_on_c, 0, 72, 87
2, 37213, Note_on_c, 0, 56, 71
2, 37213, Note_on_c, 0, 62, 64
2, 37215, Note_on_c, 0, 67, 81
2, 37235, Control_c, 0, 64, 127
2, 37290, Note_on_c, 0, 72, 0
2, 37291, Note_on_c, 0, 67, 0
2, 37295, Note_on_c, 0, 76, 0
2, 37301, Note_on_c, 0, 62, 0
2, 37307, Note_on_c, 0, 56, 0
2, 37329, Note_on_c, 0, 74, 55
2, 37330, Note_on_c, 0, 71, 55
2, 37331, Note_on_c, 0, 56, 44
2, 37331, Note_on_c, 0, 62, 37
2, 37333, Control_c, 0, 64, 0
2, 37334, Note_on_c, 0, 64, 43
2, 37337, Note_on_c, 0, 68, 34
2, 37349, Control_c, 0, 64, 127
2, 37350, Note_on_c, 0, 62, 0
2, 37377, Note_on_c, 0, 64, 0
2, 37377, Note_on_c, 0, 56, 0
2, 37378, Note_on_c, 0, 71, 0
2, 37381, Note_on_c, 0, 74, 0
2, 37382, Note_on_c, 0, 68, 0
2, 37452, Control_c, 0, 64, 0
2, 37454, Note_on_c, 0, 72, 72
2, 37457, Note_on_c, 0, 67, 66
2, 37457, Note_on_c, 0, 62, 64
2, 37467, Note_on_c, 0, 62, 0
2, 37470, Note_on_c, 0, 67, 0
2, 37473, Note_on_c, 0, 72, 0
2, 37529, Note_on_c, 0, 68, 55
2, 37531, Note_on_c, 0, 56, 51
2, 37532, Note_on_c, 0, 60, 46
2, 37537, Note_on_c, 0, 64, 35
2, 37546, Note_on_c, 0, 64, 0
2, 37550, Note_on_c, 0, 60, 0
2, 37563, Note_on_c, 0, 68, 0
2, 37570, Note_on_c, 0, 56, 0
2, 37572, Note_on_c, 0, 71, 47
2, 37574, Note_on_c, 0, 68, 28
2, 37575, Note_on_c, 0, 60, 37
2, 37576, Note_on_c, 0, 59, 50
2, 37577, Note_on_c, 0, 64, 43
2, 37618, Note_on_c, 0, 64, 0
2, 37618, Note_on_c, 0, 60, 0
2, 37624, Control_c, 0, 64, 127
2, 37625, Note_on_c, 0, 59, 0
2, 37628, Note_on_c, 0, 71, 0
2, 37629, Note_on_c, 0, 68, 0
2, 37648, Note_on_c, 0, 69, 63
2, 37648, Control_c, 0, 64, 0
2, 37650, Note_on_c, 0, 60, 53
2, 37650, Note_on_c, 0, 64, 57
2, 37653, Note_on_c, 0, 57, 53
2, 37682, Control_c, 0, 64, 127
2, 37721, Note_on_c, 0, 64, 0
2, 37732, Note_on_c, 0, 60, 0
2, 37753, Note_on_c, 0, 57, 0
2, 37764, Note_on_c, 0, 64, 49
2, 37765, Note_on_c, 0, 60, 43
2, 37768, Note_on_c, 0, 52, 34
2, 37775, Control_c, 0, 64, 0
2, 37797, Control_c, 0, 64, 127
2, 37807, Note_on_c, 0, 52, 0
2, 37819, Note_on_c, 0, 60, 0
2, 37831, Note_on_c, 0, 64, 0
2, 37840, Note_on_c, 0, 69, 0
2, 37989, Control_c, 0, 64, 0
2, 37990, Note_on_c, 0, 45, 74
2, 38006, Note_on_c, 0, 45, 0
2, 38007, Control_c, 0, 64, 127
2, 38080, Note_on_c, 0, 64, 69
2, 38080, Note_on_c, 0, 74, 80
2, 38081, Note_on_c, 0, 71, 84
2, 38081, Note_on_c, 0, 62, 53
2, 38082, Note_on_c, 0, 67, 84
2, 38084, Note_on_c, 0, 60, 55
2, 38101, Note_on_c, 0, 67, 0
2, 38108, Note_on_c, 0, 71, 0
2, 38108, Note_on_c, 0, 64, 0
2, 38109, Note_on_c, 0, 74, 0
2, 38110, Note_on_c, 0, 62, 0
2, 38112, Note_on_c, 0, 60, 0
2, 38130, Control_c, 0, 64, 0
2, 38148, Note_on_c, 0, 64, 66
2, 38149, Note_on_c, 0, 62, 57
2, 38149, Note_on_c, 0, 74, 80
2, 38150, Note_on_c, 0, 71, 83
2, 38151, Note_on_c, 0, 67, 87
2, 38151, Note_on_c, 0, 60, 60
2, 38168, Note_on_c, 0, 64, 0
2, 38168, Control_c, 0, 64, 127
2, 38169, Note_on_c, 0, 62, 0
2, 38172, Note_on_c, 0, 67, 0
2, 38174, Note_on_c, 0, 60, 0
2, 38176, Note_on_c, 0, 71, 0
2, 38179, Note_on_c, 0, 74, 0
2, 38184, Control_c, 0, 64, 0
2, 38207, Note_on_c, 0, 74, 62
2, 38209, Note_on_c, 0, 71, 66
2, 38209, Note_on_c, 0, 54, 53
2, 38210, Note_on_c, 0, 64, 56
2, 38211, Note_on_c, 0, 60, 55
2, 38211, Note_on_c, 0, 68, 52
2, 38226, Control_c, 0, 64, 127
2, 38243, Note_on_c, 0, 64, 0
2, 38245, Note_on_c, 0, 68, 0
2, 38248, Note_on_c, 0, 54, 0
2, 38252, Note_on_c, 0, 74, 0
2, 38252, Note_on_c, 0, 71, 0
2, 38252, Note_on_c, 0, 60, 0
2, 38276, Note_on_c, 0, 74, 46
2, 38277, Note_on_c, 0, 71, 49
2, 38279, Note_on_c, 0, 68, 55
2, 38279, Note_on_c, 0, 54, 52
2, 38279, Note_on_c, 0, 64, 58
2, 38281, Note_on_c, 0, 60, 51
2, 38316, Note_on_c, 0, 64, 0
2, 38327, Note_on_c, 0, 68, 0
2, 38332, Note_on_c, 0, 54, 0
2, 38335, Note_on_c, 0, 71, 0
2, 38335, Note_on_c, 0, 60, 0
2, 38339, Note_on_c, 0, 74, 0
2, 38359, Note_on_c, 0, 72, 68
2, 38359, Note_on_c, 0, 60, 42
2, 38361, Control_c, 0, 64, 0
2, 38361, Note_on_c, 0, 69, 66
2, 38362, Note_on_c, 0, 65, 62
2, 38364, Note_on_c, 0, 57, 53
2, 38364, Note_on_c, 0, 53, 26
2, 38377, Control_c, 0, 64, 127
2, 38378, Note_on_c, 0, 65, 0
2, 38380, Note_on_c, 0, 53, 0
2, 38385, Note_on_c, 0, 69, 0
2, 38386, Note_on_c, 0, 57, 0
2, 38389, Note_on_c, 0, 72, 0
2, 38392, Note_on_c, 0, 60, 0
2, 38429, Control_c, 0, 64, 0
2, 38429, Note_on_c, 0, 79, 73
2, 38431, Note_on_c, 0, 64, 85
2, 38431, Note_on_c, 0, 76, 72
2, 38431, Note_on_c, 0, 69, 77
2, 38432, Note_on_c, 0, 72, 74
2, 38456, Control_c, 0, 64, 127
2, 38486, Note_on_c, 0, 72, 0
2, 38488, Note_on_c, 0, 79, 0
2, 38490, Note_on_c, 0, 69, 0
2, 38490, Note_on_c, 0, 76, 0
2, 38498, Note_on_c, 0, 64, 0
2, 38511, Note_on_c, 0, 77, 53
2, 38513, Note_on_c, 0, 69, 48
2, 38514, Note_on_c, 0, 72, 62
2, 38516, Note_on_c, 0, 62, 49
2, 38532, Note_on_c, 0, 72, 0
2, 38537, Note_on_c, 0, 69, 0
2, 38538, Note_on_c, 0, 77, 0
2, 38554, Note_on_c, 0, 62, 0
2, 38599, Note_on_c, 0, 76, 56
2, 38602, Note_on_c, 0, 72, 54
2, 38603, Note_on_c, 0, 69, 58
2, 38604, Note_on_c, 0, 60, 54
2, 38605, Note_on_c, 0, 65, 50
2, 38620, Control_c, 0, 64, 0
2, 38640, Control_c, 0, 64, 127
2, 38653, Note_on_c, 0, 69, 0
2, 38654, Note_on_c, 0, 72, 0
2, 38657, Note_on_c, 0, 65, 0
2, 38660, Note_on_c, 0, 76, 0
2, 38668, Note_on_c, 0, 60, 0
2, 38719, Note_on_c, 0, 74, 47
2, 38720, Note_on_c, 0, 64, 55
2, 38720, Note_on_c, 0, 68, 50
2, 38720, Note_on_c, 0, 71, 45
2, 38726, Control_c, 0, 64, 0
2, 38730, Note_on_c, 0, 59, 31
2, 38732, Note_on_c, 0, 53, 30
2, 38752, Note_on_c, 0, 59, 0
2, 38756, Control_c, 0, 64, 127
2, 38763, Note_on_c, 0, 53, 0
2, 38775, Note_on_c, 0, 71, 0
2, 38780, Note_on_c, 0, 64, 0
2, 38781, Note_on_c, 0, 68, 0
2, 38783, Note_on_c, 0, 74, 0
2, 38861, Control_c, 0, 64, 0
2, 38865, Note_on_c, 0, 42, 56
2, 38871, Control_c, 0, 64, 127
2, 38882, Note_on_c, 0, 42, 0
2, 38960, Note_on_c, 0, 68, 75
2, 38960, Note_on_c, 0, 54, 60
2, 38960, Note_on_c, 0, 72, 76
2, 38960, Note_on_c, 0, 64, 85
2, 38962, Note_on_c, 0, 58, 52
2, 38973, Control_c, 0, 64, 0
2, 38993, Control_c, 0, 64, 127
2, 39051, Note_on_c, 0, 64, 0
2, 39052, Note_on_c, 0, 54, 0
2, 39062, Note_on_c, 0, 58, 0
2, 39066, Note_on_c, 0, 68, 0
2, 39081, Note_on_c, 0, 72, 0
2, 39125, Control_c, 0, 64, 0
2, 39128, Note_on_c, 0, 72, 70
2, 39130, Note_on_c, 0, 67, 69
2, 39131, Note_on_c, 0, 63, 59
2, 39132, Note_on_c, 0, 60, 48
2, 39132, Note_on_c, 0, 53, 46
2, 39154, Control_c, 0, 64, 127
2, 39168, Note_on_c, 0, 72, 0
2, 39169, Note_on_c, 0, 60, 0
2, 39178, Note_on_c, 0, 53, 0
2, 39197, Note_on_c, 0, 63, 0
2, 39213, Note_on_c, 0, 74, 81
2, 39216, Note_on_c, 0, 73, 18
2, 39222, Note_on_c, 0, 70, 32
2, 39225, Note_on_c, 0, 73, 0
2, 39229, Note_on_c, 0, 70, 0
2, 39253, Note_on_c, 0, 67, 0
2, 39254, Note_on_c, 0, 74, 0
2, 39287, Note_on_c, 0, 72, 69
2, 39336, Note_on_c, 0, 72, 0
2, 39350, Control_c, 0, 64, 0
2, 39354, Note_on_c, 0, 40, 44
2, 39360, Note_on_c, 0, 67, 46
2, 39360, Note_on_c, 0, 62, 51
2, 39363, Note_on_c, 0, 55, 37
2, 39370, Note_on_c, 0, 40, 0
2, 39376, Control_c, 0, 64, 127
2, 39380, Note_on_c, 0, 62, 0
2, 39387, Note_on_c, 0, 55, 0
2, 39393, Note_on_c, 0, 67, 0
2, 39444, Note_on_c, 0, 76, 71
2, 39445, Note_on_c, 0, 67, 78
2, 39446, Note_on_c, 0, 63, 30
2, 39446, Note_on_c, 0, 72, 64
2, 39458, Note_on_c, 0, 63, 0
2, 39458, Note_on_c, 0, 62, 22
2, 39462, Note_on_c, 0, 67, 0
2, 39467, Note_on_c, 0, 72, 0
2, 39472, Note_on_c, 0, 76, 0
2, 39479, Note_on_c, 0, 62, 0
2, 39519, Note_on_c, 0, 79, 77
2, 39520, Note_on_c, 0, 62, 72
2, 39521, Note_on_c, 0, 56, 69
2, 39521, Note_on_c, 0, 67, 73
2, 39522, Note_on_c, 0, 74, 82
2, 39522, Control_c, 0, 64, 0
2, 39523, Note_on_c, 0, 68, 79
2, 39547, Control_c, 0, 64, 127
2, 39560, Note_on_c, 0, 67, 0
2, 39561, Note_on_c, 0, 74, 0
2, 39561, Note_on_c, 0, 62, 0
2, 39570, Note_on_c, 0, 68, 0
2, 39571, Note_on_c, 0, 79, 0
2, 39584, Note_on_c, 0, 56, 0
2, 39597, Note_on_c, 0, 67, 63
2, 39599, Note_on_c, 0, 55, 64
2, 39599, Note_on_c, 0, 77, 33
2, 39600, Note_on_c, 0, 66, 57
2, 39601, Note_on_c, 0, 72, 54
2, 39602, Note_on_c, 0, 61, 50
2, 39603, Control_c, 0, 64, 0
2, 39625, Control_c, 0, 64, 127
2, 39635, Note_on_c, 0, 67, 0
2, 39643, Note_on_c, 0, 72, 0
2, 39651, Note_on_c, 0, 77, 0
2, 39656, Note_on_c, 0, 55, 0
2, 39661, Note_on_c, 0, 66, 0
2, 39668, Note_on_c, 0, 61, 0
2, 39679, Note_on_c, 0, 55, 51
2, 39681, Note_on_c, 0, 86, 74
2, 39682, Note_on_c, 0, 61, 62
2, 39682, Note_on_c, 0, 79, 70
2, 39682, Note_on_c, 0, 65, 74
2, 39683, Note_on_c, 0, 84, 80
2, 39684, Note_on_c, 0, 77, 70
2, 39687, Control_c, 0, 64, 0
2, 39709, Note_on_c, 0, 79, 0
2, 39709, Control_c, 0, 64, 127
2, 39713, Note_on_c, 0, 86, 0
2, 39729, Note_on_c, 0, 77, 0
2, 39732, Note_on_c, 0, 65, 0
2, 39732, Note_on_c, 0, 84, 0
2, 39740, Note_on_c, 0, 55, 0
2, 39748, Note_on_c, 0, 61, 0
2, 39753, Note_on_c, 0, 83, 47
2, 39757, Note_on_c, 0, 55, 50
2, 39758, Note_on_c, 0, 61, 34
2, 39758, Note_on_c, 0, 77, 54
2, 39759, Note_on_c, 0, 64, 60
2, 39761, Note_on_c, 0, 72, 60
2, 39780, Note_on_c, 0, 72, 0
2, 39783, Note_on_c, 0, 77, 0
2, 39794, Note_on_c, 0, 83, 0
2, 39798, Note_on_c, 0, 55, 0
2, 39805, Note_on_c, 0, 64, 0
2, 39824, Note_on_c, 0, 61, 0
2, 39832, Note_on_c, 0, 71, 50
2, 39833, Note_on_c, 0, 64, 46
2, 39834, Note_on_c, 0, 80, 32
2, 39835, Note_on_c, 0, 54, 47
2, 39836, Control_c, 0, 64, 0
2, 39836, Note_on_c, 0, 76, 39
2, 39837, Note_on_c, 0, 60, 53
2, 39866, Control_c, 0, 64, 127
2, 39928, Note_on_c, 0, 64, 0
2, 39929, Note_on_c, 0, 71, 0
2, 39930, Note_on_c, 0, 54, 0
2, 39933, Note_on_c, 0, 76, 0
2, 39940, Note_on_c, 0, 60, 0
2, 39945, Note_on_c, 0, 80, 0
2, 39957, Note_on_c, 0, 54, 36
2, 39957, Note_on_c, 0, 64, 39
2, 39958, Control_c, 0, 64, 0
2, 39958, Note_on_c, 0, 60, 20
2, 39958, Note_on_c, 0, 81, 50
2, 39959, Note_on_c, 0, 71, 31
2, 39960, Note_on_c, 0, 76, 34
2, 39978, Control_c, 0, 64, 127
2, 39986, Note_on_c, 0, 71, 0
2, 39993, Note_on_c, 0, 76, 0
2, 39995, Note_on_c, 0, 60, 0
2, 40003, Note_on_c, 0, 64, 0
2, 40021, Note_on_c, 0, 81, 0
2, 40026, Note_on_c, 0, 54, 0
2, 40043, Note_on_c, 0, 83, 51
2, 40044, Note_on_c, 0, 64, 49
2, 40046, Note_on_c, 0, 75, 45
2, 40046, Note_on_c, 0, 53, 45
2, 40048, Note_on_c, 0, 79, 32
2, 40048, Control_c, 0, 64, 0
2, 40049, Note_on_c, 0, 71, 39
2, 40049, Note_on_c, 0, 59, 44
2, 40066, Note_on_c, 0, 71, 0
2, 40066, Note_on_c, 0, 64, 0
2, 40069, Note_on_c, 0, 59, 0
2, 40070, Note_on_c, 0, 75, 0
2, 40072, Note_on_c, 0, 79, 0
2, 40075, Note_on_c, 0, 83, 0
2, 40078, Note_on_c, 0, 53, 0
2, 40129, Control_c, 0, 64, 127
2, 40161, Note_on_c, 0, 43, 51
2, 40163, Note_on_c, 0, 53, 52
2, 40173, Control_c, 0, 64, 0
2, 40203, Control_c, 0, 64, 127
2, 40255, Note_on_c, 0, 53, 0
2, 40283, Note_on_c, 0, 50, 30
2, 40306, Note_on_c, 0, 50, 0
2, 40317, Note_on_c, 0, 62, 41
2, 40318, Note_on_c, 0, 67, 37
2, 40321, Control_c, 0, 64, 0
2, 40322, Note_on_c, 0, 52, 35
2, 40325, Note_on_c, 0, 59, 17
2, 40341, Note_on_c, 0, 67, 0
2, 40345, Note_on_c, 0, 59, 0
2, 40355, Note_on_c, 0, 62, 0
2, 40391, Note_on_c, 0, 52, 0
2, 40397, Control_c, 0, 64, 127
2, 40400, Note_on_c, 0, 51, 39
2, 40402, Note_on_c, 0, 66, 28
2, 40412, Control_c, 0, 64, 0
2, 40420, Note_on_c, 0, 66, 0
2, 40429, Note_on_c, 0, 51, 0
2, 40438, Note_on_c, 0, 67, 34
2, 40438, Note_on_c, 0, 62, 43
2, 40441, Note_on_c, 0, 52, 33
2, 40453, Note_on_c, 0, 62, 0
2, 40453, Note_on_c, 0, 43, 0
2, 40457, Note_on_c, 0, 67, 0
2, 40496, Control_c, 0, 64, 127
2, 40505, Note_on_c, 0, 52, 0
2, 40521, Note_on_c, 0, 41, 43
2, 40540, Control_c, 0, 64, 0
2, 40555, Note_on_c, 0, 74, 54
2, 40556, Note_on_c, 0, 63, 50
2, 40558, Note_on_c, 0, 67, 53
2, 40566, Note_on_c, 0, 57, 26
2, 40575, Note_on_c, 0, 63, 0
2, 40576, Note_on_c, 0, 67, 0
2, 40578, Note_on_c, 0, 74, 0
2, 40579, Note_on_c, 0, 57, 0
2, 40587, Note_on_c, 0, 41, 0
2, 40612, Control_c, 0, 64, 127
2, 40646, Note_on_c, 0, 48, 62
2, 40662, Control_c, 0, 64, 0
2, 40666, Note_on_c, 0, 48, 0
2, 40679, Note_on_c, 0, 74, 64
2, 40680, Note_on_c, 0, 63, 57
2, 40682, Note_on_c, 0, 67, 52
2, 40684, Note_on_c, 0, 57, 53
2, 40690, Note_on_c, 0, 67, 0
2, 40694, Note_on_c, 0, 57, 0
2, 40696, Note_on_c, 0, 63, 0
2, 40698, Note_on_c, 0, 74, 0
2, 40740, Control_c, 0, 64, 127
2, 40760, Note_on_c, 0, 48, 49
2, 40761, Note_on_c, 0, 74, 74
2, 40762, Note_on_c, 0, 63, 71
2, 40762, Note_on_c, 0, 67, 70
2, 40763, Note_on_c, 0, 57, 42
2, 40771, Note_on_c, 0, 57, 0
2, 40778, Note_on_c, 0, 48, 0
2, 40781, Note_on_c, 0, 74, 0
2, 40781, Note_on_c, 0, 67, 0
2, 40783, Control_c, 0, 64, 0
2, 40787, Note_on_c, 0, 63, 0
2, 40802, Note_on_c, 0, 70, 56
2, 40802, Note_on_c, 0, 67, 43
2, 40804, Note_on_c, 0, 40, 60
2, 40804, Note_on_c, 0, 62, 62
2, 40813, Control_c, 0, 64, 127
2, 40855, Note_on_c, 0, 62, 0
2, 40860, Note_on_c, 0, 67, 0
2, 40869, Note_on_c, 0, 70, 0
2, 40896, Note_on_c, 0, 40, 0
2, 40916, Note_on_c, 0, 55, 74
2, 40917, Note_on_c, 0, 70, 72
2, 40919, Control_c, 0, 64, 0
2, 40920, Note_on_c, 0, 67, 67
2, 40920, Note_on_c, 0, 62, 66
2, 40937, Control_c, 0, 64, 127
2, 40974, Note_on_c, 0, 55, 0
2, 40985, Note_on_c, 0, 62, 0
2, 40992, Note_on_c, 0, 57, 85
2, 40993, Note_on_c, 0, 67, 0
2, 41001, Note_on_c, 0, 70, 0
2, 41031, Control_c, 0, 64, 0
2, 41039, Note_on_c, 0, 57, 0
2, 41040, Note_on_c, 0, 70, 67
2, 41041, Note_on_c, 0, 62, 64
2, 41042, Note_on_c, 0, 67, 62
2, 41042, Note_on_c, 0, 58, 69
2, 41087, Control_c, 0, 64, 127
2, 41102, Note_on_c, 0, 58, 0
2, 41112, Note_on_c, 0, 57, 65
2, 41134, Note_on_c, 0, 57, 0
2, 41140, Control_c, 0, 64, 0
2, 41154, Note_on_c, 0, 67, 0
2, 41164, Control_c, 0, 64, 127
2, 41164, Note_on_c, 0, 55, 75
2, 41168, Note_on_c, 0, 70, 0
2, 41171, Note_on_c, 0, 62, 0
2, 41203, Note_on_c, 0, 55, 0
2, 41234, Note_on_c, 0, 58, 64
2, 41235, Note_on_c, 0, 67, 47
2, 41235, Note_on_c, 0, 61, 60
2, 41237, Note_on_c, 0, 64, 60
2, 41239, Note_on_c, 0, 45, 70
2, 41248, Control_c, 0, 64, 0
2, 41286, Control_c, 0, 64, 127
2, 41312, Control_c, 0, 64, 0
2, 41323, Note_on_c, 0, 52, 67
2, 41348, Note_on_c, 0, 52, 0
2, 41358, Note_on_c, 0, 45, 0
2, 41361, Note_on_c, 0, 53, 64
2, 41370, Control_c, 0, 64, 127
2, 41389, Note_on_c, 0, 53, 0
2, 41400, Control_c, 0, 64, 0
2, 41402, Note_on_c, 0, 54, 57
2, 41431, Note_on_c, 0, 54, 0
2, 41444, Note_on_c, 0, 55, 83
2, 41481, Control_c, 0, 64, 127
2, 41514, Note_on_c, 0, 55, 0
2, 41519, Control_c, 0, 64, 0
2, 41527, Note_on_c, 0, 56, 59
2, 41535, Note_on_c, 0, 58, 0
2, 41563, Control_c, 0, 64, 127
2, 41566, Note_on_c, 0, 56, 0
2, 41569, Note_on_c, 0, 57, 85
2, 41608, Note_on_c, 0, 61, 0
2, 41633, Note_on_c, 0, 57, 0
2, 41633, Control_c, 0, 64, 0
2, 41634, Note_on_c, 0, 64, 0
2, 41645, Note_on_c, 0, 58, 52
2, 41650, Note_on_c, 0, 67, 0
2, 41655, Control_c, 0, 64, 127
2, 41665, Control_c, 0, 64, 0
2, 41667, Note_on_c, 0, 58, 0
2, 41679, Control_c, 0, 64, 127
2, 41685, Note_on_c, 0, 59, 65
2, 41750, Note_on_c, 0, 59, 0
2, 41755, Control_c, 0, 64, 0
2, 41763, Note_on_c, 0, 60, 67
2, 41779, Control_c, 0, 64, 127
2, 41833, Note_on_c, 0, 50, 68
2, 41836, Note_on_c, 0, 60, 0
2, 41859, Note_on_c, 0, 50, 0
2, 41986, Control_c, 0, 64, 0
2, 41990, Note_on_c, 0, 76, 83
2, 41991, Note_on_c, 0, 72, 80
2, 41991, Note_on_c, 0, 65, 91
2, 41991, Note_on_c, 0, 69, 81
2, 41993, Note_on_c, 0, 64, 78
2, 42007, Note_on_c, 0, 65, 0
2, 42010, Note_on_c, 0, 69, 0
2, 42015, Note_on_c, 0, 72, 0
2, 42021, Note_on_c, 0, 76, 0
2, 42026, Note_on_c, 0, 64, 0
2, 42029, Note_on_c, 0, 63, 60
2, 42053, Note_on_c, 0, 63, 0
2, 42056, Control_c, 0, 64, 127
2, 42061, Note_on_c, 0, 62, 64
2, 42085, Note_on_c, 0, 62, 0
2, 42087, Note_on_c, 0, 61, 62
2, 42108, Control_c, 0, 64, 0
2, 42112, Note_on_c, 0, 61, 0
2, 42116, Note_on_c, 0, 72, 56
2, 42117, Note_on_c, 0, 65, 50
2, 42117, Note_on_c, 0, 69, 53
2, 42121, Note_on_c, 0, 60, 64
2, 42137, Note_on_c, 0, 69, 0
2, 42138, Note_on_c, 0, 72, 0
2, 42142, Control_c, 0, 64, 127
2, 42148, Note_on_c, 0, 65, 0
2, 42179, Note_on_c, 0, 60, 0
2, 42187, Note_on_c, 0, 69, 61
2, 42188, Note_on_c, 0, 57, 63
2, 42188, Note_on_c, 0, 62, 60
2, 42189, Note_on_c, 0, 65, 62
2, 42198, Note_on_c, 0, 65, 0
2, 42202, Note_on_c, 0, 62, 0
2, 42203, Note_on_c, 0, 69, 0
2, 42209, Note_on_c, 0, 57, 0
2, 42329, Note_on_c, 0, 56, 88
2, 42330, Note_on_c, 0, 60, 87
2, 42331, Note_on_c, 0, 67, 88
2, 42331, Note_on_c, 0, 63, 62
2, 42332, Note_on_c, 0, 53, 89
2, 42343, Control_c, 0, 64, 0
2, 42405, Note_on_c, 0, 53, 0
2, 42405, Note_on_c, 0, 52, 76
2, 42429, Note_on_c, 0, 52, 0
2, 42444, Note_on_c, 0, 51, 71
2, 42445, Control_c, 0, 64, 127
2, 42448, Note_on_c, 0, 60, 0
2, 42457, Note_on_c, 0, 63, 0
2, 42459, Note_on_c, 0, 56, 0
2, 42462, Note_on_c, 0, 67, 0
2, 42472, Note_on_c, 0, 51, 0
2, 42485, Control_c, 0, 64, 0
2, 42486, Note_on_c, 0, 50, 50
2, 42487, Note_on_c, 0, 56, 43
2, 42488, Note_on_c, 0, 65, 55
2, 42491, Note_on_c, 0, 63, 38
2, 42492, Note_on_c, 0, 60, 58
2, 42518, Control_c, 0, 64, 127
2, 42522, Note_on_c, 0, 50, 0
2, 42547, Note_on_c, 0, 56, 0
2, 42549, Note_on_c, 0, 60, 0
2, 42565, Note_on_c, 0, 46, 79
2, 42594, Control_c, 0, 64, 0
2, 42605, Note_on_c, 0, 63, 0
2, 42610, Control_c, 0, 64, 127
2, 42641, Note_on_c, 0, 65, 0
2, 42648, Note_on_c, 0, 46, 0
2, 42672, Note_on_c, 0, 46, 47
2, 42717, Note_on_c, 0, 64, 51
2, 42718, Note_on_c, 0, 52, 47
2, 42720, Control_c, 0, 64, 0
2, 42720, Note_on_c, 0, 55, 35
2, 42721, Note_on_c, 0, 59, 40
2, 42748, Note_on_c, 0, 59, 0
2, 42750, Control_c, 0, 64, 127
2, 42751, Note_on_c, 0, 55, 0
2, 42771, Note_on_c, 0, 52, 0
2, 42781, Note_on_c, 0, 64, 0
2, 42797, Note_on_c, 0, 65, 58
2, 42798, Note_on_c, 0, 53, 48
2, 42799, Note_on_c, 0, 57, 43
2, 42801, Note_on_c, 0, 60, 58
2, 42818, Note_on_c, 0, 57, 0
2, 42819, Note_on_c, 0, 53, 0
2, 42825, Note_on_c, 0, 60, 0
2, 42826, Note_on_c, 0, 65, 0
2, 42834, Control_c, 0, 64, 0
2, 42846, Note_on_c, 0, 64, 22
2, 42851, Note_on_c, 0, 52, 22
2, 42873, Note_on_c, 0, 46, 0
2, 42899, Note_on_c, 0, 64, 0
2, 42901, Control_c, 0, 64, 127
2, 42917, Control_c, 0, 64, 0
2, 42920, Note_on_c, 0, 52, 0
2, 42920, Note_on_c, 0, 57, 40
2, 42921, Note_on_c, 0, 62, 35
2, 42921, Note_on_c, 0, 65, 46
2, 42923, Note_on_c, 0, 60, 54
2, 42924, Note_on_c, 0, 53, 40
2, 42935, Note_on_c, 0, 57, 0
2, 42937, Note_on_c, 0, 60, 0
2, 42941, Note_on_c, 0, 62, 0
2, 42945, Note_on_c, 0, 65, 0
2, 42989, Control_c, 0, 64, 127
2, 43027, Note_on_c, 0, 53, 0
2, 43033, Note_on_c, 0, 64, 51
2, 43033, Note_on_c, 0, 52, 55
2, 43034, Note_on_c, 0, 59, 46
2, 43039, Control_c, 0, 64, 0
2, 43044, Note_on_c, 0, 59, 0
2, 43057, Note_on_c, 0, 64, 0
2, 43079, Control_c, 0, 64, 127
2, 43149, Note_on_c, 0, 67, 64
2, 43152, Note_on_c, 0, 62, 56
2, 43152, Note_on_c, 0, 57, 38
2, 43155, Note_on_c, 0, 47, 57
2, 43160, Note_on_c, 0, 57, 0
2, 43160, Note_on_c, 0, 62, 0
2, 43163, Note_on_c, 0, 52, 0
2, 43164, Note_on_c, 0, 47, 0
2, 43169, Note_on_c, 0, 67, 0
2, 43270, Note_on_c, 0, 74, 76
2, 43270, Note_on_c, 0, 79, 73
2, 43271, Note_on_c, 0, 69, 76
2, 43274, Note_on_c, 0, 62, 58
2, 43275, Note_on_c, 0, 65, 68
2, 43276, Note_on_c, 0, 57, 63
2, 43286, Control_c, 0, 64, 0
2, 43306, Control_c, 0, 64, 127
2, 43378, Note_on_c, 0, 79, 0
2, 43379, Note_on_c, 0, 74, 0
2, 43381, Note_on_c, 0, 57, 0
2, 43382, Note_on_c, 0, 65, 0
2, 43386, Note_on_c, 0, 69, 0
2, 43394, Note_on_c, 0, 62, 0
2, 43435, Note_on_c, 0, 77, 46
2, 43438, Note_on_c, 0, 62, 48
2, 43439, Note_on_c, 0, 72, 49
2, 43439, Note_on_c, 0, 67, 34
2, 43440, Control_c, 0, 64, 0
2, 43440, Note_on_c, 0, 56, 46
2, 43467, Note_on_c, 0, 67, 0
2, 43471, Note_on_c, 0, 72, 0
2, 43481, Note_on_c, 0, 56, 0
2, 43482, Note_on_c, 0, 62, 0
2, 43484, Note_on_c, 0, 77, 0
2, 43520, Control_c, 0, 64, 127
2, 43538, Control_c, 0, 64, 0
2, 43559, Note_on_c, 0, 76, 43
2, 43560, Note_on_c, 0, 62, 40
2, 43561, Note_on_c, 0, 67, 37
2, 43561, Note_on_c, 0, 56, 42
2, 43565, Note_on_c, 0, 72, 41
2, 43576, Control_c, 0, 64, 127
2, 43583, Note_on_c, 0, 62, 0
2, 43597, Note_on_c, 0, 76, 0
2, 43597, Note_on_c, 0, 72, 0
2, 43599, Note_on_c, 0, 67, 0
2, 43607, Note_on_c, 0, 56, 0
2, 43679, Control_c, 0, 64, 0
2, 43682, Note_on_c, 0, 71, 55
2, 43682, Note_on_c, 0, 68, 42
2, 43684, Note_on_c, 0, 60, 53
2, 43684, Note_on_c, 0, 64, 61
2, 43686, Note_on_c, 0, 59, 66
2, 43743, Note_on_c, 0, 58, 42
2, 43749, Note_on_c, 0, 59, 0
2, 43750, Note_on_c, 0, 60, 0
2, 43755, Note_on_c, 0, 64, 0
2, 43755, Control_c, 0, 64, 127
2, 43761, Note_on_c, 0, 68, 0
2, 43769, Note_on_c, 0, 58, 0
2, 43773, Note_on_c, 0, 57, 40
2, 43774, Note_on_c, 0, 71, 0
2, 43787, Note_on_c, 0, 57, 0
2, 43795, Note_on_c, 0, 56, 55
2, 43797, Control_c, 0, 64, 0
2, 43808, Note_on_c, 0, 68, 28
2, 43808, Note_on_c, 0, 60, 30
2, 43812, Note_on_c, 0, 64, 37
2, 43841, Control_c, 0, 64, 127
2, 43844, Note_on_c, 0, 64, 0
2, 43856, Note_on_c, 0, 60, 0
2, 43876, Note_on_c, 0, 56, 0
2, 43877, Note_on_c, 0, 71, 41
2, 43879, Note_on_c, 0, 59, 52
2, 43881, Note_on_c, 0, 60, 45
2, 43881, Note_on_c, 0, 64, 51
2, 43897, Note_on_c, 0, 68, 0
2, 43901, Control_c, 0, 64, 0
2, 43903, Note_on_c, 0, 60, 0
2, 43904, Note_on_c, 0, 59, 0
2, 43910, Note_on_c, 0, 71, 0
2, 43919, Control_c, 0, 64, 127
2, 43923, Note_on_c, 0, 57, 42
2, 43924, Note_on_c, 0, 69, 38
2, 43936, Note_on_c, 0, 64, 0
2, 43988, Note_on_c, 0, 69, 0
2, 43993, Note_on_c, 0, 57, 0
2, 43999, Note_on_c, 0, 64, 45
2, 44000, Note_on_c, 0, 60, 39
2, 44003, Note_on_c, 0, 50, 31
2, 44010, Control_c, 0, 64, 0
2, 44018, Note_on_c, 0, 60, 0
2, 44026, Control_c, 0, 64, 127
2, 44029, Note_on_c, 0, 64, 0
2, 44113, Note_on_c, 0, 64, 56
2, 44113, Note_on_c, 0, 74, 48
2, 44114, Note_on_c, 0, 68, 48
2, 44115, Note_on_c, 0, 71, 48
2, 44121, Note_on_c, 0, 60, 42
2, 44124, Control_c, 0, 64, 0
2, 44140, Note_on_c, 0, 60, 0
2, 44153, Note_on_c, 0, 50, 0
2, 44158, Control_c, 0, 64, 127
2, 44231, Note_on_c, 0, 38, 51
2, 44232, Note_on_c, 0, 71, 0
2, 44232, Note_on_c, 0, 50, 44
2, 44234, Control_c, 0, 64, 0
2, 44239, Note_on_c, 0, 38, 0
2, 44247, Note_on_c, 0, 68, 0
2, 44247, Note_on_c, 0, 50, 0
2, 44252, Control_c, 0, 64, 127
2, 44259, Note_on_c, 0, 64, 0
2, 44263, Note_on_c, 0, 74, 0
2, 44348, Note_on_c, 0, 74, 50
2, 44350, Note_on_c, 0, 39, 52
2, 44351, Note_on_c, 0, 63, 37
2, 44352, Note_on_c, 0, 66, 37
2, 44353, Note_on_c, 0, 69, 39
2, 44354, Note_on_c, 0, 51, 36
2, 44355, Control_c, 0, 64, 0
2, 44366, Note_on_c, 0, 63, 0
2, 44371, Note_on_c, 0, 66, 0
2, 44371, Note_on_c, 0, 39, 0
2, 44372, Note_on_c, 0, 69, 0
2, 44379, Note_on_c, 0, 51, 0
2, 44381, Note_on_c, 0, 74, 0
2, 44381, Control_c, 0, 64, 127
2, 44470, Note_on_c, 0, 74, 60
2, 44471, Note_on_c, 0, 78, 38
2, 44472, Note_on_c, 0, 86, 53
2, 44475, Note_on_c, 0, 84, 45
2, 44476, Note_on_c, 0, 81, 32
2, 44477, Note_on_c, 0, 63, 51
2, 44480, Note_on_c, 0, 60, 45
2, 44480, Note_on_c, 0, 54, 35
2, 44483, Note_on_c, 0, 84, 0
2, 44491, Control_c, 0, 64, 0
2, 44521, Control_c, 0, 64, 127
2, 44584, Note_on_c, 0, 60, 0
2, 44585, Note_on_c, 0, 86, 0
2, 44587, Note_on_c, 0, 54, 0
2, 44588, Note_on_c, 0, 63, 0
2, 44595, Note_on_c, 0, 74, 0
2, 44605, Note_on_c, 0, 81, 0
2, 44606, Note_on_c, 0, 78, 0
2, 44646, Note_on_c, 0, 84, 48
2, 44647, Note_on_c, 0, 65, 47
2, 44648, Note_on_c, 0, 55, 33
2, 44649, Note_on_c, 0, 81, 39
2, 44650, Control_c, 0, 64, 0
2, 44650, Note_on_c, 0, 60, 48
2, 44650, Note_on_c, 0, 72, 32
2, 44651, Note_on_c, 0, 77, 41
2, 44652, Note_on_c, 0, 57, 42
2, 44663, Note_on_c, 0, 72, 0
2, 44665, Note_on_c, 0, 65, 0
2, 44666, Note_on_c, 0, 77, 0
2, 44669, Note_on_c, 0, 55, 0
2, 44670, Note_on_c, 0, 81, 0
2, 44672, Note_on_c, 0, 57, 0
2, 44672, Note_on_c, 0, 60, 0
2, 44673, Note_on_c, 0, 84, 0
2, 44674, Control_c, 0, 64, 127
2, 44727, Note_on_c, 0, 55, 62
2, 44727, Note_on_c, 0, 65, 66
2, 44727, Note_on_c, 0, 84, 71
2, 44728, Note_on_c, 0, 57, 54
2, 44729, Note_on_c, 0, 60, 63
2, 44729, Note_on_c, 0, 72, 68
2, 44729, Note_on_c, 0, 77, 63
2, 44730, Note_on_c, 0, 81, 60
2, 44752, Note_on_c, 0, 55, 0
2, 44754, Note_on_c, 0, 65, 0
2, 44754, Note_on_c, 0, 72, 0
2, 44756, Note_on_c, 0, 77, 0
2, 44757, Note_on_c, 0, 57, 0
2, 44759, Note_on_c, 0, 84, 0
2, 44761, Note_on_c, 0, 81, 0
2, 44761, Note_on_c, 0, 60, 0
2, 44776, Note_on_c, 0, 84, 68
2, 44776, Note_on_c, 0, 72, 58
2, 44776, Note_on_c, 0, 55, 70
2, 44777, Note_on_c, 0, 65, 71
2, 44777, Note_on_c, 0, 81, 59
2, 44777, Note_on_c, 0, 57, 58
2, 44777, Note_on_c, 0, 60, 83
2, 44778, Note_on_c, 0, 77, 61
2, 44814, Note_on_c, 0, 55, 0
2, 44817, Note_on_c, 0, 77, 0
2, 44817, Note_on_c, 0, 84, 0
2, 44817, Note_on_c, 0, 72, 0
2, 44821, Note_on_c, 0, 81, 0
2, 44821, Note_on_c, 0, 65, 0
2, 44821, Note_on_c, 0, 57, 0
2, 44824, Note_on_c, 0, 60, 0
2, 44848, Note_on_c, 0, 84, 65
2, 44849, Note_on_c, 0, 60, 68
2, 44849, Note_on_c, 0, 55, 69
2, 44849, Note_on_c, 0, 65, 71
2, 44849, Note_on_c, 0, 72, 80
2, 44849, Note_on_c, 0, 57, 71
2, 44850, Note_on_c, 0, 77, 71
2, 44850, Note_on_c, 0, 81, 68
2, 44867, Note_on_c, 0, 55, 0
2, 44874, Note_on_c, 0, 72, 0
2, 44875, Note_on_c, 0, 65, 0
2, 44877, Note_on_c, 0, 84, 0
2, 44878, Note_on_c, 0, 77, 0
2, 44878, Note_on_c, 0, 57, 0
2, 44882, Note_on_c, 0, 60, 0
2, 44885, Note_on_c, 0, 81, 0
2, 44897, Note_on_c, 0, 77, 47
2, 44898, Note_on_c, 0, 72, 43
2, 44899, Note_on_c, 0, 84, 38
2, 44899, Note_on_c, 0, 60, 63
2, 44900, Note_on_c, 0, 65, 61
2, 44900, Note_on_c, 0, 57, 52
2, 44901, Note_on_c, 0, 55, 60
2, 44902, Note_on_c, 0, 81, 51
2, 44906, Note_on_c, 0, 72, 0
2, 44909, Note_on_c, 0, 77, 0
2, 44909, Note_on_c, 0, 55, 0
2, 44910, Note_on_c, 0, 81, 0
2, 44914, Note_on_c, 0, 65, 0
2, 44919, Note_on_c, 0, 84, 0
2, 44920, Note_on_c, 0, 60, 0
2, 44921, Note_on_c, 0, 57, 0
2, 44975, Note_on_c, 0, 96, 83
2, 44975, Note_on_c, 0, 57, 66
2, 44975, Note_on_c, 0, 55, 72
2, 44976, Note_on_c, 0, 60, 73
2, 44976, Note_on_c, 0, 84, 75
2, 44976, Note_on_c, 0, 93, 75
2, 44977, Note_on_c, 0, 65, 77
2, 44977, Note_on_c, 0, 89, 74
2, 44985, Control_c, 0, 64, 0
2, 45001, Control_c, 0, 64, 127
2, 45017, Note_on_c, 0, 93, 0
2, 45018, Note_on_c, 0, 65, 0
2, 45020, Note_on_c, 0, 89, 0
2, 45023, Note_on_c, 0, 60, 0
2, 45025, Note_on_c, 0, 96, 0
2, 45026, Note_on_c, 0, 55, 0
2, 45030, Note_on_c, 0, 57, 0
2, 45031, Note_on_c, 0, 84, 0
2, 45085, Note_on_c, 0, 95, 65
2, 45087, Note_on_c, 0, 64, 65
2, 45088, Control_c, 0, 64, 0
2, 45088, Note_on_c, 0, 83, 48
2, 45088, Note_on_c, 0, 91, 56
2, 45089, Note_on_c, 0, 59, 55
2, 45089, Note_on_c, 0, 53, 63
2, 45089, Note_on_c, 0, 88, 60
2, 45117, Control_c, 0, 64, 127
2, 45123, Note_on_c, 0, 64, 0
2, 45126, Note_on_c, 0, 59, 0
2, 45132, Note_on_c, 0, 53, 0
2, 45167, Note_on_c, 0, 95, 0
2, 45184, Note_on_c, 0, 88, 0
2, 45187, Note_on_c, 0, 91, 0
2, 45193, Note_on_c, 0, 83, 0
2, 45202, Note_on_c, 0, 55, 103
2, 45203, Note_on_c, 0, 43, 94
2, 45381, Note_on_c, 0, 55, 0
2, 45384, Note_on_c, 0, 43, 0
2, 45431, Note_on_c, 0, 53, 91
2, 45432, Note_on_c, 0, 41, 99
2, 45440, Control_c, 0, 64, 0
2, 45470, Control_c, 0, 64, 127
2, 45536, Note_on_c, 0, 53, 0
2, 45538, Note_on_c, 0, 41, 0
2, 45584, Control_c, 0, 64, 0
2, 45591, Note_on_c, 0, 40, 66
2, 45592, Note_on_c, 0, 52, 63
2, 45600, Control_c, 0, 64, 127
2, 45607, Note_on_c, 0, 40, 0
2, 45609, Note_on_c, 0, 52, 0
2, 45668, Note_on_c, 0, 57, 58
2, 45669, Note_on_c, 0, 62, 75
2, 45672, Note_on_c, 0, 58, 60
2, 45672, Note_on_c, 0, 79, 77
2, 45673, Note_on_c, 0, 67, 87
2, 45673, Note_on_c, 0, 52, 61
2, 45674, Note_on_c, 0, 74, 76
2, 45684, Control_c, 0, 64, 0
2, 45707, Note_on_c, 0, 79, 0
2, 45709, Note_on_c, 0, 52, 0
2, 45710, Note_on_c, 0, 62, 0
2, 45711, Note_on_c, 0, 67, 0
2, 45711, Note_on_c, 0, 74, 0
2, 45712, Note_on_c, 0, 57, 0
2, 45712, Note_on_c, 0, 58, 0
2, 45719, Control_c, 0, 64, 127
2, 45725, Note_on_c, 0, 79, 53
2, 45725, Note_on_c, 0, 62, 75
2, 45726, Note_on_c, 0, 74, 71
2, 45727, Note_on_c, 0, 67, 70
2, 45728, Note_on_c, 0, 57, 69
2, 45728, Note_on_c, 0, 58, 70
2, 45729, Note_on_c, 0, 52, 54
2, 45759, Note_on_c, 0, 52, 0
2, 45762, Note_on_c, 0, 67, 0
2, 45763, Note_on_c, 0, 57, 0
2, 45763, Note_on_c, 0, 62, 0
2, 45765, Note_on_c, 0, 74, 0
2, 45765, Note_on_c, 0, 58, 0
2, 45766, Note_on_c, 0, 79, 0
2, 45795, Note_on_c, 0, 62, 91
2, 45796, Note_on_c, 0, 79, 69
2, 45796, Note_on_c, 0, 58, 69
2, 45796, Note_on_c, 0, 57, 77
2, 45797, Note_on_c, 0, 67, 84
2, 45797, Note_on_c, 0, 74, 80
2, 45798, Note_on_c, 0, 52, 74
2, 45820, Note_on_c, 0, 52, 0
2, 45822, Note_on_c, 0, 67, 0
2, 45823, Note_on_c, 0, 79, 0
2, 45824, Note_on_c, 0, 62, 0
2, 45827, Note_on_c, 0, 57, 0
2, 45828, Note_on_c, 0, 74, 0
2, 45828, Note_on_c, 0, 58, 0
2, 45850, Note_on_c, 0, 74, 42
2, 45851, Note_on_c, 0, 62, 74
2, 45851, Note_on_c, 0, 67, 54
2, 45852, Note_on_c, 0, 58, 70
2, 45852, Note_on_c, 0, 79, 56
2, 45853, Note_on_c, 0, 57, 74
2, 45857, Note_on_c, 0, 52, 57
2, 45858, Note_on_c, 0, 67, 0
2, 45863, Note_on_c, 0, 74, 0
2, 45864, Note_on_c, 0, 52, 0
2, 45867, Note_on_c, 0, 62, 0
2, 45869, Note_on_c, 0, 57, 0
2, 45870, Note_on_c, 0, 79, 0
2, 45872, Note_on_c, 0, 58, 0
2, 45919, Note_on_c, 0, 62, 89
2, 45920, Note_on_c, 0, 57, 82
2, 45920, Note_on_c, 0, 58, 67
2, 45921, Note_on_c, 0, 74, 88
2, 45922, Note_on_c, 0, 86, 81
2, 45922, Note_on_c, 0, 81, 76
2, 45924, Note_on_c, 0, 52, 60
2, 45929, Note_on_c, 0, 81, 0
2, 45931, Note_on_c, 0, 62, 0
2, 45931, Note_on_c, 0, 52, 0
2, 45934, Note_on_c, 0, 74, 0
2, 45935, Note_on_c, 0, 57, 0
2, 45937, Note_on_c, 0, 58, 0
2, 45939, Note_on_c, 0, 86, 0
2, 45961, Control_c, 0, 64, 0
2, 45968, Note_on_c, 0, 58, 83
2, 45968, Note_on_c, 0, 62, 94
2, 45968, Note_on_c, 0, 93, 96
2, 45969, Note_on_c, 0, 57, 78
2, 45969, Note_on_c, 0, 52, 80
2, 45970, Note_on_c, 0, 81, 88
2, 45970, Note_on_c, 0, 88, 90
2, 45984, Control_c, 0, 64, 127
2, 45986, Note_on_c, 0, 57, 0
2, 45987, Note_on_c, 0, 52, 0
2, 45992, Note_on_c, 0, 62, 0
2, 45999, Note_on_c, 0, 58, 0
2, 45999, Note_on_c, 0, 81, 0
2, 46007, Note_on_c, 0, 88, 0
2, 46009, Note_on_c, 0, 93, 0
2, 46038, Note_on_c, 0, 55, 70
2, 46040, Note_on_c, 0, 61, 71
2, 46042, Note_on_c, 0, 66, 75
2, 46042, Note_on_c, 0, 94, 86
2, 46042, Note_on_c, 0, 82, 86
2, 46048, Control_c, 0, 64, 0
2, 46074, Control_c, 0, 64, 127
2, 46104, Note_on_c, 0, 55, 0
2, 46117, Note_on_c, 0, 82, 0
2, 46120, Note_on_c, 0, 61, 0
2, 46120, Note_on_c, 0, 66, 0
2, 46122, Note_on_c, 0, 94, 0
2, 46155, Note_on_c, 0, 96, 77
2, 46155, Note_on_c, 0, 84, 64
2, 46156, Note_on_c, 0, 66, 58
2, 46157, Note_on_c, 0, 61, 51
2, 46159, Note_on_c, 0, 55, 51
2, 46164, Control_c, 0, 64, 0
2, 46182, Control_c, 0, 64, 127
2, 46195, Note_on_c, 0, 96, 0
2, 46209, Note_on_c, 0, 84, 0
2, 46210, Note_on_c, 0, 66, 0
2, 46212, Note_on_c, 0, 55, 0
2, 46227, Note_on_c, 0, 61, 0
2, 46274, Note_on_c, 0, 61, 43
2, 46275, Note_on_c, 0, 93, 49
2, 46275, Note_on_c, 0, 65, 49
2, 46275, Note_on_c, 0, 55, 48
2, 46277, Note_on_c, 0, 81, 41
2, 46280, Note_on_c, 0, 88, 45
2, 46281, Control_c, 0, 64, 0
2, 46303, Control_c, 0, 64, 127
2, 46306, Note_on_c, 0, 88, 0
2, 46308, Note_on_c, 0, 93, 0
2, 46317, Note_on_c, 0, 81, 0
2, 46333, Note_on_c, 0, 65, 0
2, 46343, Note_on_c, 0, 55, 0
2, 46349, Note_on_c, 0, 61, 0
2, 46389, Note_on_c, 0, 76, 44
2, 46392, Note_on_c, 0, 83, 46
2, 46393, Note_on_c, 0, 61, 48
2, 46394, Note_on_c, 0, 55, 51
2, 46398, Note_on_c, 0, 65, 43
2, 46405, Control_c, 0, 64, 0
2, 46421, Control_c, 0, 64, 127
2, 46446, Note_on_c, 0, 55, 0
2, 46451, Note_on_c, 0, 83, 0
2, 46456, Note_on_c, 0, 61, 0
2, 46459, Note_on_c, 0, 65, 0
2, 46468, Note_on_c, 0, 76, 0
2, 46558, Note_on_c, 0, 80, 64
2, 46559, Control_c, 0, 64, 0
2, 46561, Note_on_c, 0, 88, 69
2, 46562, Note_on_c, 0, 77, 54
2, 46563, Note_on_c, 0, 69, 55
2, 46569, Note_on_c, 0, 81, 32
2, 46575, Note_on_c, 0, 80, 0
2, 46578, Note_on_c, 0, 81, 0
2, 46582, Note_on_c, 0, 69, 0
2, 46583, Note_on_c, 0, 77, 0
2, 46584, Note_on_c, 0, 88, 0
2, 46616, Control_c, 0, 64, 127
2, 46759, Note_on_c, 0, 72, 79
2, 46761, Note_on_c, 0, 88, 91
2, 46762, Note_on_c, 0, 77, 84
2, 46762, Note_on_c, 0, 81, 80
2, 46792, Note_on_c, 0, 88, 0
2, 46797, Note_on_c, 0, 77, 0
2, 46798, Note_on_c, 0, 81, 0
2, 46804, Note_on_c, 0, 72, 0
2, 46815, Note_on_c, 0, 86, 33
2, 46816, Note_on_c, 0, 77, 36
2, 46816, Note_on_c, 0, 69, 52
2, 46827, Note_on_c, 0, 86, 0
2, 46834, Note_on_c, 0, 77, 0
2, 46879, Note_on_c, 0, 69, 0
2, 46879, Note_on_c, 0, 84, 58
2, 46884, Note_on_c, 0, 77, 43
2, 46885, Note_on_c, 0, 74, 36
2, 46886, Note_on_c, 0, 65, 51
2, 46887, Note_on_c, 0, 72, 29
2, 46894, Control_c, 0, 64, 0
2, 46897, Note_on_c, 0, 84, 0
2, 46898, Note_on_c, 0, 77, 0
2, 46899, Note_on_c, 0, 72, 0
2, 46900, Note_on_c, 0, 74, 0
2, 46911, Note_on_c, 0, 65, 0
2, 46928, Note_on_c, 0, 81, 54
2, 46929, Control_c, 0, 64, 127
2, 46933, Note_on_c, 0, 72, 47
2, 46945, Note_on_c, 0, 72, 0
2, 46945, Note_on_c, 0, 81, 0
2, 46997, Note_on_c, 0, 77, 57
2, 47001, Note_on_c, 0, 55, 54
2, 47001, Note_on_c, 0, 72, 53
2, 47002, Note_on_c, 0, 69, 49
2, 47002, Note_on_c, 0, 74, 35
2, 47011, Note_on_c, 0, 74, 0
2, 47011, Note_on_c, 0, 72, 0
2, 47014, Note_on_c, 0, 55, 0
2, 47017, Note_on_c, 0, 69, 0
2, 47018, Note_on_c, 0, 77, 0
2, 47111, Control_c, 0, 64, 0
2, 47135, Control_c, 0, 64, 127
2, 47139, Note_on_c, 0, 70, 53
2, 47144, Note_on_c, 0, 53, 44
2, 47145, Note_on_c, 0, 43, 36
2, 47145, Note_on_c, 0, 59, 27
2, 47146, Note_on_c, 0, 66, 33
2, 47183, Note_on_c, 0, 43, 0
2, 47187, Note_on_c, 0, 53, 0
2, 47189, Note_on_c, 0, 66, 0
2, 47192, Note_on_c, 0, 59, 0
2, 47203, Note_on_c, 0, 70, 0
2, 47223, Note_on_c, 0, 68, 59
2, 47225, Note_on_c, 0, 63, 47
2, 47226, Note_on_c, 0, 59, 53
2, 47227, Note_on_c, 0, 43, 41
2, 47227, Note_on_c, 0, 66, 42
2, 47230, Control_c, 0, 64, 0
2, 47230, Note_on_c, 0, 53, 34
2, 47252, Control_c, 0, 64, 127
2, 47253, Note_on_c, 0, 53, 0
2, 47254, Note_on_c, 0, 43, 0
2, 47263, Note_on_c, 0, 68, 0
2, 47265, Note_on_c, 0, 63, 0
2, 47265, Note_on_c, 0, 59, 0
2, 47269, Note_on_c, 0, 66, 0
2, 47297, Note_on_c, 0, 43, 43
2, 47299, Note_on_c, 0, 53, 27
2, 47299, Note_on_c, 0, 67, 51
2, 47299, Note_on_c, 0, 59, 53
2, 47301, Note_on_c, 0, 63, 33
2, 47306, Note_on_c, 0, 53, 0
2, 47316, Note_on_c, 0, 43, 0
2, 47364, Note_on_c, 0, 42, 83
2, 47366, Note_on_c, 0, 30, 60
2, 47370, Note_on_c, 0, 32, 49
2, 47374, Note_on_c, 0, 67, 0
2, 47377, Note_on_c, 0, 32, 0
2, 47380, Note_on_c, 0, 30, 0
2, 47390, Note_on_c, 0, 63, 0
2, 47392, Control_c, 0, 64, 0
2, 47393, Note_on_c, 0, 42, 0
2, 47408, Control_c, 0, 64, 127
2, 47409, Note_on_c, 0, 59, 0
2, 47409, Note_on_c, 0, 43, 62
2, 47412, Note_on_c, 0, 31, 61
2, 47442, Note_on_c, 0, 31, 0
2, 47444, Note_on_c, 0, 43, 0
2, 47478, Control_c, 0, 64, 0
2, 47482, Note_on_c, 0, 32, 75
2, 47483, Note_on_c, 0, 54, 92
2, 47483, Note_on_c, 0, 44, 83
2, 47483, Note_on_c, 0, 65, 83
2, 47484, Note_on_c, 0, 61, 65
2, 47484, Note_on_c, 0, 58, 77
2, 47509, Note_on_c, 0, 54, 0
2, 47509, Control_c, 0, 64, 127
2, 47512, Note_on_c, 0, 32, 0
2, 47517, Note_on_c, 0, 58, 0
2, 47522, Note_on_c, 0, 44, 0
2, 47522, Note_on_c, 0, 61, 0
2, 47523, Note_on_c, 0, 65, 0
2, 47600, Note_on_c, 0, 77, 82
2, 47601, Note_on_c, 0, 66, 90
2, 47601, Note_on_c, 0, 65, 84
2, 47602, Note_on_c, 0, 73, 56
2, 47602, Note_on_c, 0, 70, 78
2, 47632, Note_on_c, 0, 66, 0
2, 47633, Note_on_c, 0, 70, 0
2, 47635, Note_on_c, 0, 77, 0
2, 47636, Note_on_c, 0, 65, 0
2, 47638, Note_on_c, 0, 73, 0
2, 47659, Note_on_c, 0, 77, 81
2, 47659, Note_on_c, 0, 66, 91
2, 47660, Note_on_c, 0, 70, 78
2, 47660, Note_on_c, 0, 73, 52
2, 47661, Note_on_c, 0, 65, 79
2, 47697, Note_on_c, 0, 66, 0
2, 47697, Note_on_c, 0, 77, 0
2, 47699, Note_on_c, 0, 70, 0
2, 47709, Note_on_c, 0, 73, 0
2, 47714, Note_on_c, 0, 65, 0
2, 47723, Note_on_c, 0, 75, 77
2, 47723, Note_on_c, 0, 73, 46
2, 47724, Note_on_c, 0, 66, 79
2, 47724, Note_on_c, 0, 63, 79
2, 47724, Note_on_c, 0, 70, 78
2, 47751, Note_on_c, 0, 66, 0
2, 47754, Note_on_c, 0, 70, 0
2, 47758, Note_on_c, 0, 75, 0
2, 47761, Note_on_c, 0, 73, 0
2, 47761, Note_on_c, 0, 63, 0
2, 47775, Note_on_c, 0, 75, 71
2, 47775, Note_on_c, 0, 63, 65
2, 47777, Note_on_c, 0, 66, 77
2, 47778, Note_on_c, 0, 70, 78
2, 47785, Note_on_c, 0, 73, 23
2, 47802, Note_on_c, 0, 73, 0
2, 47807, Note_on_c, 0, 66, 0
2, 47809, Note_on_c, 0, 75, 0
2, 47812, Note_on_c, 0, 70, 0
2, 47823, Note_on_c, 0, 63, 0
2, 47840, Note_on_c, 0, 73, 60
2, 47841, Note_on_c, 0, 70, 77
2, 47842, Note_on_c, 0, 66, 71
2, 47843, Note_on_c, 0, 61, 71
2, 47866, Note_on_c, 0, 66, 0
2, 47867, Note_on_c, 0, 61, 0
2, 47871, Note_on_c, 0, 70, 0
2, 47872, Note_on_c, 0, 73, 0
2, 47891, Note_on_c, 0, 61, 62
2, 47892, Note_on_c, 0, 70, 62
2, 47892, Note_on_c, 0, 73, 50
2, 47894, Note_on_c, 0, 66, 55
2, 47909, Note_on_c, 0, 61, 0
2, 47920, Note_on_c, 0, 70, 0
2, 47923, Note_on_c, 0, 66, 0
2, 47927, Note_on_c, 0, 73, 0
2, 47959, Note_on_c, 0, 60, 83
2, 47960, Note_on_c, 0, 68, 78
2, 47960, Note_on_c, 0, 72, 74
2, 47961, Note_on_c, 0, 65, 80
2, 47964, Control_c, 0, 64, 0
2, 47988, Note_on_c, 0, 65, 0
2, 47996, Control_c, 0, 64, 127
2, 47997, Note_on_c, 0, 60, 0
2, 47998, Note_on_c, 0, 72, 0
2, 48000, Note_on_c, 0, 68, 0
2, 48011, Note_on_c, 0, 68, 57
2, 48011, Note_on_c, 0, 72, 40
2, 48012, Note_on_c, 0, 65, 66
2, 48014, Note_on_c, 0, 60, 73
2, 48021, Note_on_c, 0, 72, 0
2, 48024, Note_on_c, 0, 68, 0
2, 48030, Note_on_c, 0, 65, 0
2, 48039, Note_on_c, 0, 60, 0
2, 48077, Note_on_c, 0, 68, 71
2, 48077, Note_on_c, 0, 65, 72
2, 48079, Note_on_c, 0, 56, 69
2, 48080, Note_on_c, 0, 60, 71
2, 48091, Control_c, 0, 64, 0
2, 48108, Note_on_c, 0, 60, 0
2, 48109, Note_on_c, 0, 56, 0
2, 48109, Note_on_c, 0, 65, 0
2, 48113, Note_on_c, 0, 68, 0
2, 48117, Control_c, 0, 64, 127
2, 48126, Note_on_c, 0, 68, 47
2, 48127, Note_on_c, 0, 56, 50
2, 48129, Note_on_c, 0, 65, 60
2, 48130, Note_on_c, 0, 60, 57
2, 48136, Note_on_c, 0, 65, 0
2, 48144, Note_on_c, 0, 68, 0
2, 48148, Note_on_c, 0, 56, 0
2, 48150, Note_on_c, 0, 60, 0
2, 48192, Note_on_c, 0, 44, 46
2, 48216, Note_on_c, 0, 44, 0
2, 48231, Control_c, 0, 64, 0
2, 48241, Control_c, 0, 64, 127
2, 48243, Note_on_c, 0, 54, 65
2, 48245, Note_on_c, 0, 44, 55
2, 48273, Note_on_c, 0, 44, 0
2, 48291, Note_on_c, 0, 54, 0
2, 48312, Note_on_c, 0, 65, 73
2, 48313, Note_on_c, 0, 58, 69
2, 48313, Note_on_c, 0, 54, 71
2, 48314, Note_on_c, 0, 44, 65
2, 48316, Note_on_c, 0, 61, 50
2, 48337, Control_c, 0, 64, 0
2, 48339, Note_on_c, 0, 44, 0
2, 48340, Note_on_c, 0, 65, 0
2, 48345, Note_on_c, 0, 61, 0
2, 48346, Note_on_c, 0, 54, 0
2, 48347, Note_on_c, 0, 58, 0
2, 48361, Note_on_c, 0, 44, 42
2, 48361, Control_c, 0, 64, 127
2, 48362, Note_on_c, 0, 63, 40
2, 48363, Note_on_c, 0, 58, 30
2, 48363, Note_on_c, 0, 54, 23
2, 48402, Note_on_c, 0, 54, 0
2, 48402, Note_on_c, 0, 63, 0
2, 48406, Note_on_c, 0, 58, 0
2, 48408, Note_on_c, 0, 44, 0
2, 48433, Note_on_c, 0, 64, 58
2, 48434, Note_on_c, 0, 60, 54
2, 48435, Note_on_c, 0, 43, 55
2, 48435, Note_on_c, 0, 53, 53
2, 48436, Note_on_c, 0, 57, 56
2, 48440, Control_c, 0, 64, 0
2, 48468, Control_c, 0, 64, 127
2, 48486, Note_on_c, 0, 53, 0
2, 48518, Note_on_c, 0, 57, 0
2, 48522, Note_on_c, 0, 60, 0
2, 48528, Note_on_c, 0, 64, 0
2, 48555, Note_on_c, 0, 64, 44
2, 48555, Note_on_c, 0, 60, 57
2, 48556, Note_on_c, 0, 57, 53
2, 48560, Note_on_c, 0, 55, 30
2, 48568, Note_on_c, 0, 55, 0
2, 48570, Note_on_c, 0, 57, 0
2, 48573, Note_on_c, 0, 64, 0
2, 48578, Note_on_c, 0, 60, 0
2, 48594, Control_c, 0, 64, 0
2, 48601, Note_on_c, 0, 60, 50
2, 48603, Note_on_c, 0, 64, 30
2, 48604, Note_on_c, 0, 55, 34
2, 48605, Note_on_c, 0, 57, 31
2, 48615, Note_on_c, 0, 55, 0
2, 48616, Note_on_c, 0, 57, 0
2, 48617, Note_on_c, 0, 64, 0
2, 48621, Note_on_c, 0, 60, 0
2, 48675, Note_on_c, 0, 57, 46
2, 48675, Note_on_c, 0, 60, 50
2, 48676, Note_on_c, 0, 55, 35
2, 48676, Note_on_c, 0, 64, 30
2, 48684, Note_on_c, 0, 55, 0
2, 48688, Note_on_c, 0, 64, 0
2, 48689, Note_on_c, 0, 57, 0
2, 48694, Note_on_c, 0, 60, 0
2, 48721, Note_on_c, 0, 64, 40
2, 48722, Note_on_c, 0, 60, 36
2, 48722, Note_on_c, 0, 57, 48
2, 48723, Note_on_c, 0, 55, 34
2, 48738, Note_on_c, 0, 57, 0
2, 48740, Note_on_c, 0, 64, 0
2, 48743, Note_on_c, 0, 55, 0
2, 48743, Note_on_c, 0, 60, 0
2, 48759, Note_on_c, 0, 43, 0
2, 48839, Note_on_c, 0, 43, 36
2, 48842, Note_on_c, 0, 57, 41
2, 48843, Note_on_c, 0, 64, 28
2, 48843, Note_on_c, 0, 60, 47
2, 48845, Note_on_c, 0, 55, 24
2, 48854, Note_on_c, 0, 55, 0
2, 48859, Note_on_c, 0, 57, 0
2, 48863, Note_on_c, 0, 43, 0
2, 48863, Note_on_c, 0, 60, 0
2, 48868, Note_on_c, 0, 64, 0
2, 48911, Control_c, 0, 64, 127
2, 48941, Control_c, 0, 64, 0
2, 48957, Note_on_c, 0, 63, 40
2, 48960, Note_on_c, 0, 59, 33
2, 48963, Note_on_c, 0, 67, 31
2, 48963, Note_on_c, 0, 53, 32
2, 48965, Note_on_c, 0, 43, 27
2, 48985, Note_on_c, 0, 63, 0
2, 48995, Note_on_c, 0, 64, 18
2, 49014, Note_on_c, 0, 43, 0
2, 49016, Note_on_c, 0, 59, 0
2, 49016, Note_on_c, 0, 67, 0
2, 49018, Note_on_c, 0, 53, 0
2, 49020, Note_on_c, 0, 64, 0
2, 49077, Note_on_c, 0, 59, 43
2, 49077, Note_on_c, 0, 63, 37
2, 49078, Note_on_c, 0, 67, 37
2, 49081, Note_on_c, 0, 43, 33
2, 49084, Note_on_c, 0, 53, 26
2, 49091, Note_on_c, 0, 63, 0
2, 49094, Note_on_c, 0, 64, 38
2, 49098, Note_on_c, 0, 59, 0
2, 49101, Note_on_c, 0, 43, 0
2, 49112, Note_on_c, 0, 53, 0
2, 49112, Note_on_c, 0, 64, 0
2, 49116, Control_c, 0, 64, 127
2, 49118, Note_on_c, 0, 67, 0
2, 49208, Control_c, 0, 64, 0
2, 49208, Note_on_c, 0, 82, 74
2, 49209, Note_on_c, 0, 70, 64
2, 49209, Note_on_c, 0, 56, 47
2, 49210, Note_on_c, 0, 62, 50
2, 49210, Note_on_c, 0, 67, 45
2, 49222, Control_c, 0, 64, 127
2, 49233, Note_on_c, 0, 67, 0
2, 49247, Note_on_c, 0, 62, 0
2, 49254, Note_on_c, 0, 56, 0
2, 49262, Note_on_c, 0, 70, 0
2, 49263, Note_on_c, 0, 82, 0
2, 49291, Note_on_c, 0, 68, 50
2, 49292, Control_c, 0, 64, 0
2, 49292, Note_on_c, 0, 78, 39
2, 49293, Note_on_c, 0, 57, 38
2, 49293, Note_on_c, 0, 83, 41
2, 49293, Note_on_c, 0, 71, 46
2, 49296, Note_on_c, 0, 63, 35
2, 49319, Note_on_c, 0, 71, 0
2, 49323, Control_c, 0, 64, 127
2, 49324, Note_on_c, 0, 57, 0
2, 49329, Note_on_c, 0, 83, 0
2, 49330, Note_on_c, 0, 78, 0
2, 49333, Note_on_c, 0, 63, 0
2, 49334, Note_on_c, 0, 68, 0
2, 49409, Control_c, 0, 64, 0
2, 49409, Note_on_c, 0, 84, 38
2, 49410, Note_on_c, 0, 79, 40
2, 49410, Note_on_c, 0, 64, 46
2, 49412, Note_on_c, 0, 72, 35
2, 49413, Note_on_c, 0, 69, 33
2, 49413, Note_on_c, 0, 58, 25
2, 49425, Note_on_c, 0, 72, 0
2, 49432, Note_on_c, 0, 69, 0
2, 49433, Note_on_c, 0, 79, 0
2, 49435, Control_c, 0, 64, 127
2, 49438, Note_on_c, 0, 64, 0
2, 49441, Control_c, 0, 64, 0
2, 49448, Note_on_c, 0, 84, 0
2, 49449, Note_on_c, 0, 58, 0
2, 49573, Note_on_c, 0, 87, 42
2, 49578, Note_on_c, 0, 102, 37
2, 49580, Note_on_c, 0, 52, 24
2, 49584, Note_on_c, 0, 40, 27
2, 49615, Note_on_c, 0, 52, 0
2, 49620, Note_on_c, 0, 40, 0
2, 49622, Note_on_c, 0, 87, 0
2, 49629, Note_on_c, 0, 102, 0
2, 49821, Note_on_c, 0, 26, 16
2, 49836, Note_on_c, 0, 26, 0
2, 49922, Note_on_c, 0, 41, 37
2, 49924, Note_on_c, 0, 101, 22
2, 49924, Note_on_c, 0, 29, 30
2, 49968, Note_on_c, 0, 41, 0
2, 49970, Note_on_c, 0, 29, 0
2, 49976, Note_on_c, 0, 101, 0
2, 50118, Note_on_c, 0, 42, 40
2, 50119, Note_on_c, 0, 30, 42
2, 50121, Note_on_c, 0, 102, 46
2, 50123, Note_on_c, 0, 90, 31
2, 50160, Note_on_c, 0, 90, 0
2, 50161, Note_on_c, 0, 102, 0
2, 50162, Note_on_c, 0, 30, 0
2, 50168, Note_on_c, 0, 42, 0
2, 50292, Note_on_c, 0, 103, 50
2, 50293, Note_on_c, 0, 43, 42
2, 50294, Note_on_c, 0, 31, 37
2, 50295, Note_on_c, 0, 91, 43
2, 50321, Note_on_c, 0, 103, 0
2, 50325, Note_on_c, 0, 31, 0
2, 50339, Note_on_c, 0, 43, 0
2, 50339, Note_on_c, 0, 91, 0
2, 50520, Note_on_c, 0, 78, 62
2, 50525, Note_on_c, 0, 54, 42
2, 50590, Note_on_c, 0, 78, 0
2, 50599, Note_on_c, 0, 54, 0
2, 50602, Note_on_c, 0, 79, 49
2, 50604, Note_on_c, 0, 55, 47
2, 50632, Note_on_c, 0, 79, 0
2, 50640, Note_on_c, 0, 55, 0
2, 50646, Note_on_c, 0, 76, 49
2, 50652, Note_on_c, 0, 52, 42
2, 50707, Note_on_c, 0, 52, 0
2, 50719, Note_on_c, 0, 76, 0
2, 50724, Note_on_c, 0, 47, 45
2, 50726, Note_on_c, 0, 71, 44
2, 50740, Note_on_c, 0, 71, 0
2, 50758, Note_on_c, 0, 47, 0
2, 50766, Note_on_c, 0, 74, 64
2, 50773, Note_on_c, 0, 50, 32
2, 50831, Note_on_c, 0, 74, 0
2, 50834, Note_on_c, 0, 50, 0
2, 50840, Note_on_c, 0, 72, 46
2, 50844, Note_on_c, 0, 48, 44
2, 50869, Control_c, 0, 64, 127
2, 50887, Note_on_c, 0, 48, 0
2, 50957, Note_on_c, 0, 72, 0
2, 51153, Note_on_c, 0, 24, 44
2, 51266, Note_on_c, 0, 24, 0
2, 51266, End_track
3, 0, Start_track
3, 0, Title_t, ""
3, 127, Program_c, 1, 32
3, 480, Note_on_c, 1, 55, 89
3, 554, Note_on_c, 1, 55, 0
3, 560, Note_on_c, 1, 43, 69
3, 838, Note_on_c, 1, 46, 12
3, 839, Note_on_c, 1, 57, 74
3, 840, Note_on_c, 1, 55, 80
3, 855, Note_on_c, 1, 43, 0
3, 877, Note_on_c, 1, 57, 0
3, 905, Note_on_c, 1, 55, 0
3, 915, Note_on_c, 1, 46, 0
3, 922, Note_on_c, 1, 55, 91
3, 1037, Note_on_c, 1, 43, 67
3, 1040, Note_on_c, 1, 55, 0
3, 1397, Note_on_c, 1, 43, 0
3, 1397, Note_on_c, 1, 55, 94
3, 1433, Note_on_c, 1, 55, 0
3, 1444, Note_on_c, 1, 55, 89
3, 1512, Note_on_c, 1, 60, 95
3, 1519, Note_on_c, 1, 55, 0
3, 1663, Note_on_c, 1, 60, 0
3, 1680, Note_on_c, 1, 59, 76
3, 1697, Note_on_c, 1, 59, 0
3, 1754, Note_on_c, 1, 57, 89
3, 1778, Note_on_c, 1, 57, 0
3, 1798, Note_on_c, 1, 55, 68
3, 1842, Note_on_c, 1, 55, 0
3, 1873, Note_on_c, 1, 53, 62
3, 1900, Note_on_c, 1, 53, 0
3, 1920, Note_on_c, 1, 52, 58
3, 2030, Note_on_c, 1, 52, 0
3, 2036, Note_on_c, 1, 50, 52
3, 2115, Note_on_c, 1, 50, 0
3, 2118, Note_on_c, 1, 48, 50
3, 2322, Note_on_c, 1, 50, 72
3, 2326, Note_on_c, 1, 48, 0
3, 2338, Note_on_c, 1, 50, 0
3, 2354, Note_on_c, 1, 51, 84
3, 2388, Note_on_c, 1, 51, 0
3, 2395, Note_on_c, 1, 52, 83
3, 2662, Note_on_c, 1, 52, 0
3, 2673, Note_on_c, 1, 55, 68
3, 2691, Note_on_c, 1, 55, 0
3, 2713, Note_on_c, 1, 58, 67
3, 2737, Note_on_c, 1, 58, 0
3, 2753, Note_on_c, 1, 60, 88
3, 2823, Note_on_c, 1, 60, 0
3, 2831, Note_on_c, 1, 58, 85
3, 2887, Note_on_c, 1, 58, 0
3, 2916, Note_on_c, 1, 57, 80
3, 2989, Note_on_c, 1, 57, 0
3, 3001, Note_on_c, 1, 55, 73
3, 3070, Note_on_c, 1, 55, 0
3, 3079, Note_on_c, 1, 52, 64
3, 3135, Note_on_c, 1, 52, 0
3, 3159, Note_on_c, 1, 49, 52
3, 3218, Note_on_c, 1, 49, 0
3, 3236, Note_on_c, 1, 45, 60
3, 3311, Note_on_c, 1, 45, 0
3, 3317, Note_on_c, 1, 50, 76
3, 3900, Note_on_c, 1, 50, 0
3, 3911, Note_on_c, 1, 48, 49
3, 3960, Note_on_c, 1, 48, 0
3, 3965, Note_on_c, 1, 55, 127
3, 4027, Note_on_c, 1, 55, 0
3, 4038, Note_on_c, 1, 54, 88
3, 4107, Note_on_c, 1, 54, 0
3, 4128, Note_on_c, 1, 53, 74
3, 4190, Note_on_c, 1, 53, 0
3, 4210, Note_on_c, 1, 46, 57
3, 4266, Note_on_c, 1, 46, 0
3, 4283, Note_on_c, 1, 47, 64
3, 4324, Note_on_c, 1, 47, 0
3, 4332, Note_on_c, 1, 48, 60
3, 4481, Note_on_c, 1, 57, 72
3, 4505, Note_on_c, 1, 57, 0
3, 4515, Note_on_c, 1, 55, 46
3, 4542, Note_on_c, 1, 55, 0
3, 4556, Note_on_c, 1, 57, 61
3, 4668, Note_on_c, 1, 57, 0
3, 4680, Note_on_c, 1, 55, 28
3, 4769, Note_on_c, 1, 55, 0
3, 4784, Note_on_c, 1, 48, 0
3, 4792, Note_on_c, 1, 47, 56
3, 5035, Note_on_c, 1, 47, 0
3, 5036, Note_on_c, 1, 52, 64
3, 5268, Note_on_c, 1, 52, 0
3, 5275, Note_on_c, 1, 55, 115
3, 5388, Note_on_c, 1, 55, 0
3, 5389, Note_on_c, 1, 43, 92
3, 5616, Note_on_c, 1, 43, 0
3, 5629, Note_on_c, 1, 36, 95
3, 5740, Note_on_c, 1, 36, 0
3, 5749, Note_on_c, 1, 41, 101
3, 5871, Note_on_c, 1, 55, 127
3, 6103, Note_on_c, 1, 55, 0
3, 6113, Note_on_c, 1, 53, 94
3, 6118, Note_on_c, 1, 41, 0
3, 6225, Note_on_c, 1, 53, 0
3, 6235, Note_on_c, 1, 47, 105
3, 6473, Note_on_c, 1, 47, 0
3, 6473, Note_on_c, 1, 52, 123
3, 6678, Note_on_c, 1, 47, 80
3, 6691, Note_on_c, 1, 47, 0
3, 6697, Note_on_c, 1, 52, 0
3, 6726, Note_on_c, 1, 45, 95
3, 6793, Note_on_c, 1, 59, 95
3, 6811, Note_on_c, 1, 45, 0
3, 6831, Note_on_c, 1, 59, 0
3, 6842, Note_on_c, 1, 57, 113
3, 7124, Note_on_c, 1, 57, 0
3, 7152, Note_on_c, 1, 56, 71
3, 7169, Note_on_c, 1, 56, 0
3, 7192, Note_on_c, 1, 57, 99
3, 7427, Note_on_c, 1, 57, 0
3, 7429, Note_on_c, 1, 50, 92
3, 7804, Note_on_c, 1, 55, 123
3, 7812, Note_on_c, 1, 50, 0
3, 8036, Note_on_c, 1, 43, 85
3, 8038, Note_on_c, 1, 55, 0
3, 8157, Note_on_c, 1, 54, 106
3, 8168, Note_on_c, 1, 43, 0
3, 8368, Note_on_c, 1, 42, 32
3, 8375, Note_on_c, 1, 42, 0
3, 8394, Note_on_c, 1, 54, 0
3, 8404, Note_on_c, 1, 53, 103
3, 8619, Note_on_c, 1, 53, 0
3, 8640, Note_on_c, 1, 52, 96
3, 8749, Note_on_c, 1, 52, 0
3, 8762, Note_on_c, 1, 40, 90
3, 8990, Note_on_c, 1, 40, 0
3, 8997, Note_on_c, 1, 45, 105
3, 9115, Note_on_c, 1, 45, 0
3, 9115, Note_on_c, 1, 50, 118
3, 9304, Note_on_c, 1, 57, 123
3, 9323, Note_on_c, 1, 50, 0
3, 9344, Note_on_c, 1, 57, 0
3, 9356, Note_on_c, 1, 55, 123
3, 9508, Note_on_c, 1, 55, 0
3, 9538, Note_on_c, 1, 53, 113
3, 9577, Note_on_c, 1, 53, 0
3, 9593, Note_on_c, 1, 52, 103
3, 9901, Note_on_c, 1, 52, 0
3, 9919, Note_on_c, 1, 53, 113
3, 10298, Note_on_c, 1, 53, 0
3, 10320, Note_on_c, 1, 52, 103
3, 10379, Note_on_c, 1, 52, 0
3, 10397, Note_on_c, 1, 46, 90
3, 10454, Note_on_c, 1, 46, 0
3, 10457, Note_on_c, 1, 58, 98
3, 10504, Note_on_c, 1, 58, 0
3, 10521, Note_on_c, 1, 58, 98
3, 10558, Note_on_c, 1, 58, 0
3, 10571, Note_on_c, 1, 57, 99
3, 10869, Note_on_c, 1, 45, 96
3, 11019, Note_on_c, 1, 45, 0
3, 11024, Note_on_c, 1, 57, 0
3, 11029, Note_on_c, 1, 38, 91
3, 11223, Note_on_c, 1, 45, 85
3, 11233, Note_on_c, 1, 38, 0
3, 11251, Note_on_c, 1, 45, 0
3, 11265, Note_on_c, 1, 41, 94
3, 11504, Note_on_c, 1, 55, 127
3, 11512, Note_on_c, 1, 41, 0
3, 11620, Note_on_c, 1, 55, 0
3, 11625, Note_on_c, 1, 53, 101
3, 11873, Note_on_c, 1, 53, 0
3, 11875, Note_on_c, 1, 46, 82
3, 11992, Note_on_c, 1, 46, 0
3, 11998, Note_on_c, 1, 48, 80
3, 12196, Note_on_c, 1, 57, 88
3, 12215, Note_on_c, 1, 48, 0
3, 12234, Note_on_c, 1, 57, 0
3, 12241, Note_on_c, 1, 55, 81
3, 12457, Note_on_c, 1, 55, 0
3, 12474, Note_on_c, 1, 47, 89
3, 12560, Note_on_c, 1, 53, 110
3, 12565, Note_on_c, 1, 47, 0
3, 12596, Note_on_c, 1, 53, 0
3, 12604, Note_on_c, 1, 52, 105
3, 12827, Note_on_c, 1, 40, 79
3, 12832, Note_on_c, 1, 52, 0
3, 12952, Note_on_c, 1, 40, 0
3, 12955, Note_on_c, 1, 45, 85
3, 13386, Note_on_c, 1, 45, 0
3, 13390, Note_on_c, 1, 52, 74
3, 13436, Note_on_c, 1, 52, 0
3, 13437, Note_on_c, 1, 50, 68
3, 13628, Note_on_c, 1, 50, 0
3, 13673, Note_on_c, 1, 51, 79
3, 13926, Note_on_c, 1, 51, 0
3, 14116, Note_on_c, 1, 50, 66
3, 14171, Note_on_c, 1, 50, 0
3, 14175, Note_on_c, 1, 60, 118
3, 14231, Note_on_c, 1, 60, 0
3, 14240, Note_on_c, 1, 60, 95
3, 14278, Note_on_c, 1, 60, 0
3, 14287, Note_on_c, 1, 57, 87
3, 14376, Note_on_c, 1, 57, 0
3, 14402, Note_on_c, 1, 59, 108
3, 14463, Note_on_c, 1, 59, 0
3, 14474, Note_on_c, 1, 59, 85
3, 14507, Note_on_c, 1, 59, 0
3, 14519, Note_on_c, 1, 55, 91
3, 14625, Note_on_c, 1, 55, 0
3, 14636, Note_on_c, 1, 43, 89
3, 14939, Note_on_c, 1, 43, 0
3, 14955, Note_on_c, 1, 55, 94
3, 14983, Note_on_c, 1, 55, 0
3, 15003, Note_on_c, 1, 53, 89
3, 15341, Note_on_c, 1, 53, 0
3, 15352, Note_on_c, 1, 52, 96
3, 15599, Note_on_c, 1, 52, 0
3, 15599, Note_on_c, 1, 45, 94
3, 15695, Note_on_c, 1, 45, 0
3, 15727, Note_on_c, 1, 38, 82
3, 15727, Note_on_c, 1, 39, 63
3, 15751, Note_on_c, 1, 38, 0
3, 15828, Note_on_c, 1, 39, 0
3, 15838, Note_on_c, 1, 38, 83
3, 16039, Note_on_c, 1, 45, 115
3, 16042, Note_on_c, 1, 38, 0
3, 16059, Note_on_c, 1, 45, 0
3, 16078, Note_on_c, 1, 43, 76
3, 16148, Note_on_c, 1, 43, 0
3, 16158, Note_on_c, 1, 38, 72
3, 16179, Note_on_c, 1, 38, 0
3, 16194, Note_on_c, 1, 31, 85
3, 16388, Note_on_c, 1, 38, 61
3, 16395, Note_on_c, 1, 38, 0
3, 16403, Note_on_c, 1, 31, 0
3, 16427, Note_on_c, 1, 40, 89
3, 16519, Note_on_c, 1, 40, 0
3, 16544, Note_on_c, 1, 45, 96
3, 16672, Note_on_c, 1, 33, 76
3, 16673, Note_on_c, 1, 45, 0
3, 16793, Note_on_c, 1, 33, 0
3, 16797, Note_on_c, 1, 38, 81
3, 16913, Note_on_c, 1, 48, 118
3, 16915, Note_on_c, 1, 38, 0
3, 17110, Note_on_c, 1, 38, 67
3, 17117, Note_on_c, 1, 38, 0
3, 17131, Note_on_c, 1, 48, 0
3, 17149, Note_on_c, 1, 47, 99
3, 17259, Note_on_c, 1, 47, 0
3, 17272, Note_on_c, 1, 50, 74
3, 17272, Note_on_c, 1, 52, 87
3, 17312, Note_on_c, 1, 52, 0
3, 17389, Note_on_c, 1, 50, 0
3, 17396, Note_on_c, 1, 48, 95
3, 17510, Note_on_c, 1, 48, 0
3, 17517, Note_on_c, 1, 47, 90
3, 17724, Note_on_c, 1, 39, 86
3, 17727, Note_on_c, 1, 47, 0
3, 17759, Note_on_c, 1, 39, 0
3, 17768, Note_on_c, 1, 40, 88
3, 17972, Note_on_c, 1, 39, 26
3, 17987, Note_on_c, 1, 39, 0
3, 17998, Note_on_c, 1, 50, 115
3, 18001, Note_on_c, 1, 40, 0
3, 18157, Note_on_c, 1, 50, 0
3, 18170, Note_on_c, 1, 46, 78
3, 18194, Note_on_c, 1, 46, 0
3, 18202, Note_on_c, 1, 43, 65
3, 18222, Note_on_c, 1, 43, 0
3, 18245, Note_on_c, 1, 45, 92
3, 18316, Note_on_c, 1, 45, 0
3, 18323, Note_on_c, 1, 40, 74
3, 18345, Note_on_c, 1, 40, 0
3, 18363, Note_on_c, 1, 33, 92
3, 18532, Note_on_c, 1, 33, 0
3, 18533, Note_on_c, 1, 35, 65
3, 18557, Note_on_c, 1, 35, 0
3, 18562, Note_on_c, 1, 36, 74
3, 18588, Note_on_c, 1, 36, 0
3, 18605, Note_on_c, 1, 37, 87
3, 18715, Note_on_c, 1, 37, 0
3, 18721, Note_on_c, 1, 38, 85
3, 18910, Note_on_c, 1, 40, 64
3, 18918, Note_on_c, 1, 38, 0
3, 18945, Note_on_c, 1, 40, 0
3, 18952, Note_on_c, 1, 41, 81
3, 19105, Note_on_c, 1, 41, 0
3, 19113, Note_on_c, 1, 39, 69
3, 19136, Note_on_c, 1, 39, 0
3, 19155, Note_on_c, 1, 40, 80
3, 19184, Note_on_c, 1, 40, 0
3, 19194, Note_on_c, 1, 41, 95
3, 19308, Note_on_c, 1, 41, 0
3, 19309, Note_on_c, 1, 48, 118
3, 19545, Note_on_c, 1, 48, 0
3, 19546, Note_on_c, 1, 46, 84
3, 19752, Note_on_c, 1, 44, 38
3, 19768, Note_on_c, 1, 46, 0
3, 19774, Note_on_c, 1, 44, 0
3, 19782, Note_on_c, 1, 48, 108
3, 19902, Note_on_c, 1, 48, 0
3, 19913, Note_on_c, 1, 43, 58
3, 20033, Note_on_c, 1, 43, 0
3, 20034, Note_on_c, 1, 36, 64
3, 20158, Note_on_c, 1, 47, 103
3, 20160, Note_on_c, 1, 36, 0
3, 20352, Note_on_c, 1, 47, 0
3, 20357, Note_on_c, 1, 41, 71
3, 20378, Note_on_c, 1, 41, 0
3, 20399, Note_on_c, 1, 40, 76
3, 20583, Note_on_c, 1, 40, 0
3, 20592, Note_on_c, 1, 30, 62
3, 20608, Note_on_c, 1, 30, 0
3, 20634, Note_on_c, 1, 31, 90
3, 20754, Note_on_c, 1, 46, 98
3, 20806, Note_on_c, 1, 31, 0
3, 20855, Note_on_c, 1, 46, 0
3, 20874, Note_on_c, 1, 48, 101
3, 20988, Note_on_c, 1, 48, 0
3, 21000, Note_on_c, 1, 36, 101
3, 21065, Note_on_c, 1, 36, 0
3, 21123, Note_on_c, 1, 29, 118
3, 21470, Note_on_c, 1, 29, 0
3, 21478, Note_on_c, 1, 38, 103
3, 21590, Note_on_c, 1, 38, 0
3, 21601, Note_on_c, 1, 35, 108
3, 21607, Note_on_c, 1, 38, 67
3, 21614, Note_on_c, 1, 38, 0
3, 21844, Note_on_c, 1, 35, 0
3, 21845, Note_on_c, 1, 40, 105
3, 21961, Note_on_c, 1, 28, 110
3, 21963, Note_on_c, 1, 40, 0
3, 22079, Note_on_c, 1, 28, 0
3, 22084, Note_on_c, 1, 33, 103
3, 22409, Note_on_c, 1, 36, 39
3, 22419, Note_on_c, 1, 36, 0
3, 22436, Note_on_c, 1, 33, 0
3, 22442, Note_on_c, 1, 40, 99
3, 22559, Note_on_c, 1, 40, 0
3, 22559, Note_on_c, 1, 38, 89
3, 22674, Note_on_c, 1, 50, 113
3, 22815, Note_on_c, 1, 38, 0
3, 22915, Note_on_c, 1, 38, 110
3, 22916, Note_on_c, 1, 50, 0
3, 23029, Note_on_c, 1, 38, 0
3, 23033, Note_on_c, 1, 43, 115
3, 23151, Note_on_c, 1, 43, 0
3, 23152, Note_on_c, 1, 31, 101
3, 23600, Note_on_c, 1, 38, 57
3, 23610, Note_on_c, 1, 38, 0
3, 23629, Note_on_c, 1, 31, 0
3, 23635, Note_on_c, 1, 48, 123
3, 23749, Note_on_c, 1, 48, 0
3, 23757, Note_on_c, 1, 47, 94
3, 23946, Note_on_c, 1, 47, 0
3, 23954, Note_on_c, 1, 43, 80
3, 23974, Note_on_c, 1, 43, 0
3, 23998, Note_on_c, 1, 40, 90
3, 24191, Note_on_c, 1, 40, 0
3, 24199, Note_on_c, 1, 32, 71
3, 24217, Note_on_c, 1, 32, 0
3, 24237, Note_on_c, 1, 33, 81
3, 24324, Note_on_c, 1, 45, 89
3, 24327, Note_on_c, 1, 33, 0
3, 24346, Note_on_c, 1, 45, 0
3, 24367, Note_on_c, 1, 37, 77
3, 24478, Note_on_c, 1, 37, 0
3, 24481, Note_on_c, 1, 38, 78
3, 24560, Note_on_c, 1, 37, 51
3, 24584, Note_on_c, 1, 38, 0
3, 24589, Note_on_c, 1, 37, 0
3, 24593, Note_on_c, 1, 48, 115
3, 24685, Note_on_c, 1, 38, 45
3, 24697, Note_on_c, 1, 38, 0
3, 24708, Note_on_c, 1, 48, 0
3, 24716, Note_on_c, 1, 47, 82
3, 24731, Note_on_c, 1, 47, 0
3, 24740, Note_on_c, 1, 47, 20
3, 24746, Note_on_c, 1, 48, 16
3, 24765, Note_on_c, 1, 48, 0
3, 24797, Note_on_c, 1, 38, 40
3, 24806, Note_on_c, 1, 38, 0
3, 24818, Note_on_c, 1, 47, 0
3, 24835, Note_on_c, 1, 43, 79
3, 24900, Note_on_c, 1, 43, 0
3, 24917, Note_on_c, 1, 35, 82
3, 24946, Note_on_c, 1, 35, 0
3, 24953, Note_on_c, 1, 36, 81
3, 25040, Note_on_c, 1, 35, 52
3, 25049, Note_on_c, 1, 36, 0
3, 25059, Note_on_c, 1, 35, 0
3, 25070, Note_on_c, 1, 38, 96
3, 25261, Note_on_c, 1, 38, 0
3, 25270, Note_on_c, 1, 38, 57
3, 25314, Note_on_c, 1, 39, 88
3, 25323, Note_on_c, 1, 38, 0
3, 25384, Note_on_c, 1, 38, 62
3, 25399, Note_on_c, 1, 38, 0
3, 25400, Note_on_c, 1, 39, 0
3, 25422, Note_on_c, 1, 40, 87
3, 25545, Note_on_c, 1, 46, 87
3, 25556, Note_on_c, 1, 40, 0
3, 25624, Note_on_c, 1, 40, 42
3, 25633, Note_on_c, 1, 40, 0
3, 25657, Note_on_c, 1, 46, 0
3, 25670, Note_on_c, 1, 43, 76
3, 25789, Note_on_c, 1, 43, 0
3, 25796, Note_on_c, 1, 33, 96
3, 26039, Note_on_c, 1, 45, 110
3, 26053, Note_on_c, 1, 33, 0
3, 26270, Note_on_c, 1, 45, 0
3, 26271, Note_on_c, 1, 37, 85
3, 26395, Note_on_c, 1, 37, 0
3, 26400, Note_on_c, 1, 38, 84
3, 26523, Note_on_c, 1, 40, 89
3, 26531, Note_on_c, 1, 38, 0
3, 26628, Note_on_c, 1, 40, 0
3, 26638, Note_on_c, 1, 41, 90
3, 26844, Note_on_c, 1, 48, 118
3, 26845, Note_on_c, 1, 41, 0
3, 26883, Note_on_c, 1, 48, 0
3, 26898, Note_on_c, 1, 44, 84
3, 27001, Note_on_c, 1, 44, 0
3, 27008, Note_on_c, 1, 41, 72
3, 27124, Note_on_c, 1, 41, 0
3, 27126, Note_on_c, 1, 34, 80
3, 27257, Note_on_c, 1, 34, 0
3, 27285, Note_on_c, 1, 34, 72
3, 27305, Note_on_c, 1, 34, 0
3, 27322, Note_on_c, 1, 35, 85
3, 27353, Note_on_c, 1, 35, 0
3, 27363, Note_on_c, 1, 36, 96
3, 27525, Note_on_c, 1, 45, 95
3, 27551, Note_on_c, 1, 45, 0
3, 27562, Note_on_c, 1, 43, 48
3, 27578, Note_on_c, 1, 43, 0
3, 27600, Note_on_c, 1, 50, 89
3, 27692, Note_on_c, 1, 36, 0
3, 27692, Note_on_c, 1, 34, 19
3, 27708, Note_on_c, 1, 50, 0
3, 27712, Note_on_c, 1, 34, 0
3, 27717, Note_on_c, 1, 48, 80
3, 27822, Note_on_c, 1, 48, 0
3, 27835, Note_on_c, 1, 35, 91
3, 28024, Note_on_c, 1, 35, 0
3, 28034, Note_on_c, 1, 47, 113
3, 28054, Note_on_c, 1, 47, 0
3, 28082, Note_on_c, 1, 40, 89
3, 28185, Note_on_c, 1, 40, 0
3, 28188, Note_on_c, 1, 34, 88
3, 28297, Note_on_c, 1, 34, 0
3, 28309, Note_on_c, 1, 33, 84
3, 28557, Note_on_c, 1, 40, 92
3, 28559, Note_on_c, 1, 33, 0
3, 28779, Note_on_c, 1, 40, 0
3, 28794, Note_on_c, 1, 38, 74
3, 28840, Note_on_c, 1, 52, 68
3, 28852, Note_on_c, 1, 52, 0
3, 28876, Note_on_c, 1, 53, 75
3, 28902, Note_on_c, 1, 53, 0
3, 28916, Note_on_c, 1, 54, 93
3, 28927, Note_on_c, 1, 55, 73
3, 28977, Note_on_c, 1, 55, 0
3, 29143, Note_on_c, 1, 38, 0
3, 29163, Note_on_c, 1, 39, 84
3, 29172, Note_on_c, 1, 54, 0
3, 29272, Note_on_c, 1, 39, 0
3, 29284, Note_on_c, 1, 38, 92
3, 29473, Note_on_c, 1, 48, 115
3, 29511, Note_on_c, 1, 48, 0
3, 29519, Note_on_c, 1, 38, 0
3, 29522, Note_on_c, 1, 45, 95
3, 29712, Note_on_c, 1, 38, 65
3, 29719, Note_on_c, 1, 38, 0
3, 29743, Note_on_c, 1, 45, 0
3, 29750, Note_on_c, 1, 43, 83
3, 29977, Note_on_c, 1, 43, 0
3, 29988, Note_on_c, 1, 31, 80
3, 30351, Note_on_c, 1, 31, 0
3, 30354, Note_on_c, 1, 43, 94
3, 30585, Note_on_c, 1, 43, 0
3, 30594, Note_on_c, 1, 41, 101
3, 30705, Note_on_c, 1, 41, 0
3, 30717, Note_on_c, 1, 40, 88
3, 30838, Note_on_c, 1, 40, 0
3, 30839, Note_on_c, 1, 52, 113
3, 30948, Note_on_c, 1, 52, 0
3, 30956, Note_on_c, 1, 45, 99
3, 31058, Note_on_c, 1, 45, 0
3, 31071, Note_on_c, 1, 37, 86
3, 31122, Note_on_c, 1, 37, 0
3, 31163, Note_on_c, 1, 37, 83
3, 31183, Note_on_c, 1, 37, 0
3, 31197, Note_on_c, 1, 38, 80
3, 31283, Note_on_c, 1, 37, 54
3, 31293, Note_on_c, 1, 38, 0
3, 31306, Note_on_c, 1, 37, 0
3, 31316, Note_on_c, 1, 40, 87
3, 31407, Note_on_c, 1, 38, 45
3, 31416, Note_on_c, 1, 40, 0
3, 31419, Note_on_c, 1, 38, 0
3, 31435, Note_on_c, 1, 42, 81
3, 31516, Note_on_c, 1, 38, 55
3, 31532, Note_on_c, 1, 38, 0
3, 31546, Note_on_c, 1, 42, 0
3, 31550, Note_on_c, 1, 43, 74
3, 31632, Note_on_c, 1, 38, 50
3, 31660, Note_on_c, 1, 38, 0
3, 31665, Note_on_c, 1, 43, 0
3, 31672, Note_on_c, 1, 40, 75
3, 31757, Note_on_c, 1, 37, 44
3, 31778, Note_on_c, 1, 40, 0
3, 31787, Note_on_c, 1, 50, 123
3, 31789, Note_on_c, 1, 37, 0
3, 31910, Note_on_c, 1, 50, 0
3, 31914, Note_on_c, 1, 45, 81
3, 31997, Note_on_c, 1, 44, 43
3, 32011, Note_on_c, 1, 45, 0
3, 32021, Note_on_c, 1, 44, 0
3, 32028, Note_on_c, 1, 49, 88
3, 32116, Note_on_c, 1, 41, 36
3, 32126, Note_on_c, 1, 41, 0
3, 32136, Note_on_c, 1, 49, 0
3, 32150, Note_on_c, 1, 50, 82
3, 32176, Note_on_c, 1, 50, 0
3, 32231, Note_on_c, 1, 45, 85
3, 32247, Note_on_c, 1, 45, 0
3, 32273, Note_on_c, 1, 38, 81
3, 32381, Note_on_c, 1, 38, 0
3, 32387, Note_on_c, 1, 31, 89
3, 32487, Note_on_c, 1, 31, 0
3, 32503, Note_on_c, 1, 31, 76
3, 32625, Note_on_c, 1, 31, 0
3, 32630, Note_on_c, 1, 36, 81
3, 32722, Note_on_c, 1, 34, 45
3, 32744, Note_on_c, 1, 36, 0
3, 32753, Note_on_c, 1, 41, 108
3, 32756, Note_on_c, 1, 34, 0
3, 32867, Note_on_c, 1, 41, 0
3, 32875, Note_on_c, 1, 40, 81
3, 32994, Note_on_c, 1, 40, 0
3, 32998, Note_on_c, 1, 36, 82
3, 33088, Note_on_c, 1, 34, 33
3, 33095, Note_on_c, 1, 36, 0
3, 33100, Note_on_c, 1, 34, 0
3, 33117, Note_on_c, 1, 40, 99
3, 33230, Note_on_c, 1, 40, 0
3, 33235, Note_on_c, 1, 34, 90
3, 33353, Note_on_c, 1, 46, 94
3, 33358, Note_on_c, 1, 34, 0
3, 33448, Note_on_c, 1, 46, 0
3, 33469, Note_on_c, 1, 46, 91
3, 33537, Note_on_c, 1, 46, 0
3, 33563, Note_on_c, 1, 34, 75
3, 33581, Note_on_c, 1, 34, 0
3, 33597, Note_on_c, 1, 33, 89
3, 33715, Note_on_c, 1, 45, 118
3, 33722, Note_on_c, 1, 33, 0
3, 33824, Note_on_c, 1, 45, 0
3, 33832, Note_on_c, 1, 40, 85
3, 33927, Note_on_c, 1, 40, 0
3, 33947, Note_on_c, 1, 33, 94
3, 34065, Note_on_c, 1, 33, 0
3, 34071, Note_on_c, 1, 38, 125
3, 34191, Note_on_c, 1, 33, 105
3, 34192, Note_on_c, 1, 38, 0
3, 34292, Note_on_c, 1, 33, 0
3, 34312, Note_on_c, 1, 29, 101
3, 34430, Note_on_c, 1, 29, 0
3, 34440, Note_on_c, 1, 29, 96
3, 34552, Note_on_c, 1, 29, 0
3, 34566, Note_on_c, 1, 29, 89
3, 34675, Note_on_c, 1, 29, 0
3, 34682, Note_on_c, 1, 31, 95
3, 34797, Note_on_c, 1, 34, 77
3, 34800, Note_on_c, 1, 31, 0
3, 34880, Note_on_c, 1, 31, 65
3, 34888, Note_on_c, 1, 31, 0
3, 34902, Note_on_c, 1, 34, 0
3, 34909, Note_on_c, 1, 32, 71
3, 34942, Note_on_c, 1, 32, 0
3, 34993, Note_on_c, 1, 35, 71
3, 34995, Note_on_c, 1, 33, 69
3, 35002, Note_on_c, 1, 33, 0
3, 35012, Note_on_c, 1, 35, 0
3, 35030, Note_on_c, 1, 36, 90
3, 35151, Note_on_c, 1, 38, 96
3, 35186, Note_on_c, 1, 36, 0
3, 35216, Note_on_c, 1, 36, 36
3, 35245, Note_on_c, 1, 38, 0
3, 35258, Note_on_c, 1, 36, 0
3, 35273, Note_on_c, 1, 40, 101
3, 35393, Note_on_c, 1, 36, 96
3, 35395, Note_on_c, 1, 40, 0
3, 35509, Note_on_c, 1, 47, 123
3, 35516, Note_on_c, 1, 36, 0
3, 35620, Note_on_c, 1, 47, 0
3, 35629, Note_on_c, 1, 41, 95
3, 35738, Note_on_c, 1, 41, 0
3, 35753, Note_on_c, 1, 40, 80
3, 35863, Note_on_c, 1, 40, 0
3, 35872, Note_on_c, 1, 35, 85
3, 35982, Note_on_c, 1, 35, 0
3, 35992, Note_on_c, 1, 31, 83
3, 36109, Note_on_c, 1, 45, 115
3, 36123, Note_on_c, 1, 31, 0
3, 36197, Note_on_c, 1, 31, 65
3, 36209, Note_on_c, 1, 45, 0
3, 36217, Note_on_c, 1, 31, 0
3, 36229, Note_on_c, 1, 50, 91
3, 36341, Note_on_c, 1, 50, 0
3, 36351, Note_on_c, 1, 48, 85
3, 36473, Note_on_c, 1, 48, 0
3, 36478, Note_on_c, 1, 41, 87
3, 36587, Note_on_c, 1, 41, 0
3, 36599, Note_on_c, 1, 36, 87
3, 36707, Note_on_c, 1, 36, 0
3, 36717, Note_on_c, 1, 33, 75
3, 36826, Note_on_c, 1, 33, 0
3, 36835, Note_on_c, 1, 29, 87
3, 36949, Note_on_c, 1, 29, 0
3, 36957, Note_on_c, 1, 35, 91
3, 37082, Note_on_c, 1, 47, 115
3, 37096, Note_on_c, 1, 35, 0
3, 37194, Note_on_c, 1, 47, 0
3, 37201, Note_on_c, 1, 40, 89
3, 37314, Note_on_c, 1, 40, 0
3, 37321, Note_on_c, 1, 32, 91
3, 37434, Note_on_c, 1, 32, 0
3, 37442, Note_on_c, 1, 33, 92
3, 37543, Note_on_c, 1, 33, 0
3, 37560, Note_on_c, 1, 33, 87
3, 37672, Note_on_c, 1, 33, 0
3, 37679, Note_on_c, 1, 38, 90
3, 37785, Note_on_c, 1, 38, 0
3, 37800, Note_on_c, 1, 36, 90
3, 37907, Note_on_c, 1, 36, 0
3, 37919, Note_on_c, 1, 33, 95
3, 38027, Note_on_c, 1, 33, 0
3, 38035, Note_on_c, 1, 39, 97
3, 38046, Note_on_c, 1, 30, 31
3, 38053, Note_on_c, 1, 30, 0
3, 38138, Note_on_c, 1, 39, 0
3, 38150, Note_on_c, 1, 38, 92
3, 38252, Note_on_c, 1, 38, 0
3, 38270, Note_on_c, 1, 38, 78
3, 38274, Note_on_c, 1, 36, 55
3, 38281, Note_on_c, 1, 36, 0
3, 38382, Note_on_c, 1, 38, 0
3, 38390, Note_on_c, 1, 31, 89
3, 38511, Note_on_c, 1, 43, 103
3, 38529, Note_on_c, 1, 31, 0
3, 38632, Note_on_c, 1, 31, 110
3, 38635, Note_on_c, 1, 43, 0
3, 38754, Note_on_c, 1, 43, 115
3, 38826, Note_on_c, 1, 31, 0
3, 38871, Note_on_c, 1, 31, 105
3, 38879, Note_on_c, 1, 43, 0
3, 38992, Note_on_c, 1, 43, 108
3, 39060, Note_on_c, 1, 31, 0
3, 39098, Note_on_c, 1, 43, 0
3, 39112, Note_on_c, 1, 30, 90
3, 39242, Note_on_c, 1, 41, 113
3, 39248, Note_on_c, 1, 30, 0
3, 39328, Note_on_c, 1, 35, 56
3, 39342, Note_on_c, 1, 41, 0
3, 39344, Note_on_c, 1, 35, 0
3, 39356, Note_on_c, 1, 40, 94
3, 39473, Note_on_c, 1, 40, 0
3, 39476, Note_on_c, 1, 34, 83
3, 39581, Note_on_c, 1, 34, 0
3, 39590, Note_on_c, 1, 33, 81
3, 39707, Note_on_c, 1, 45, 125
3, 39712, Note_on_c, 1, 33, 0
3, 39795, Note_on_c, 1, 37, 65
3, 39815, Note_on_c, 1, 45, 0
3, 39819, Note_on_c, 1, 37, 0
3, 39828, Note_on_c, 1, 38, 91
3, 39950, Note_on_c, 1, 45, 115
3, 39959, Note_on_c, 1, 38, 0
3, 39979, Note_on_c, 1, 45, 0
3, 39985, Note_on_c, 1, 44, 86
3, 40061, Note_on_c, 1, 44, 0
3, 40074, Note_on_c, 1, 43, 85
3, 40160, Note_on_c, 1, 31, 85
3, 40166, Note_on_c, 1, 43, 0
3, 40281, Note_on_c, 1, 35, 65
3, 40288, Note_on_c, 1, 31, 0
3, 40305, Note_on_c, 1, 35, 0
3, 40317, Note_on_c, 1, 36, 92
3, 40404, Note_on_c, 1, 34, 45
3, 40417, Note_on_c, 1, 36, 0
3, 40423, Note_on_c, 1, 34, 0
3, 40435, Note_on_c, 1, 38, 96
3, 40519, Note_on_c, 1, 36, 54
3, 40535, Note_on_c, 1, 38, 0
3, 40541, Note_on_c, 1, 36, 0
3, 40553, Note_on_c, 1, 40, 70
3, 40625, Note_on_c, 1, 36, 46
3, 40635, Note_on_c, 1, 36, 0
3, 40652, Note_on_c, 1, 40, 0
3, 40669, Note_on_c, 1, 43, 80
3, 40696, Note_on_c, 1, 43, 0
3, 40757, Note_on_c, 1, 39, 78
3, 40785, Note_on_c, 1, 39, 0
3, 40793, Note_on_c, 1, 40, 69
3, 40909, Note_on_c, 1, 46, 94
3, 40920, Note_on_c, 1, 40, 0
3, 41034, Note_on_c, 1, 34, 83
3, 41044, Note_on_c, 1, 46, 0
3, 41141, Note_on_c, 1, 50, 96
3, 41178, Note_on_c, 1, 34, 0
3, 41238, Note_on_c, 1, 34, 21
3, 41249, Note_on_c, 1, 34, 0
3, 41252, Note_on_c, 1, 50, 0
3, 41270, Note_on_c, 1, 49, 82
3, 41392, Note_on_c, 1, 49, 0
3, 41395, Note_on_c, 1, 33, 94
3, 41512, Note_on_c, 1, 45, 91
3, 41516, Note_on_c, 1, 33, 0
3, 41569, Note_on_c, 1, 45, 0
3, 41596, Note_on_c, 1, 40, 75
3, 41625, Note_on_c, 1, 40, 0
3, 41628, Note_on_c, 1, 39, 83
3, 41721, Note_on_c, 1, 37, 71
3, 41725, Note_on_c, 1, 39, 0
3, 41744, Note_on_c, 1, 37, 0
3, 41753, Note_on_c, 1, 38, 87
3, 41859, Note_on_c, 1, 38, 0
3, 41874, Note_on_c, 1, 41, 53
3, 41876, Note_on_c, 1, 40, 59
3, 41891, Note_on_c, 1, 40, 0
3, 41992, Note_on_c, 1, 41, 0
3, 41995, Note_on_c, 1, 48, 113
3, 42071, Note_on_c, 1, 41, 62
3, 42087, Note_on_c, 1, 41, 0
3, 42096, Note_on_c, 1, 48, 0
3, 42108, Note_on_c, 1, 45, 82
3, 42223, Note_on_c, 1, 45, 0
3, 42229, Note_on_c, 1, 41, 105
3, 42350, Note_on_c, 1, 46, 93
3, 42354, Note_on_c, 1, 41, 0
3, 42434, Note_on_c, 1, 41, 51
3, 42447, Note_on_c, 1, 41, 0
3, 42460, Note_on_c, 1, 46, 0
3, 42472, Note_on_c, 1, 44, 81
3, 42567, Note_on_c, 1, 34, 85
3, 42570, Note_on_c, 1, 44, 0
3, 42588, Note_on_c, 1, 34, 0
3, 42602, Note_on_c, 1, 35, 80
3, 42706, Note_on_c, 1, 35, 0
3, 42717, Note_on_c, 1, 36, 84
3, 42796, Note_on_c, 1, 34, 46
3, 42817, Note_on_c, 1, 36, 0
3, 42829, Note_on_c, 1, 41, 123
3, 42830, Note_on_c, 1, 34, 0
3, 42917, Note_on_c, 1, 36, 46
3, 42928, Note_on_c, 1, 36, 0
3, 42943, Note_on_c, 1, 41, 0
3, 42953, Note_on_c, 1, 40, 77
3, 43038, Note_on_c, 1, 40, 0
3, 43071, Note_on_c, 1, 36, 90
3, 43100, Note_on_c, 1, 36, 0
3, 43195, Note_on_c, 1, 35, 85
3, 43312, Note_on_c, 1, 35, 0
3, 43315, Note_on_c, 1, 47, 115
3, 43341, Note_on_c, 1, 47, 0
3, 43402, Note_on_c, 1, 39, 77
3, 43429, Note_on_c, 1, 39, 0
3, 43440, Note_on_c, 1, 40, 82
3, 43555, Note_on_c, 1, 52, 105
3, 43640, Note_on_c, 1, 39, 40
3, 43662, Note_on_c, 1, 40, 0
3, 43670, Note_on_c, 1, 52, 0
3, 43674, Note_on_c, 1, 48, 85
3, 43675, Note_on_c, 1, 39, 0
3, 43793, Note_on_c, 1, 45, 92
3, 43796, Note_on_c, 1, 48, 0
3, 43910, Note_on_c, 1, 45, 0
3, 43917, Note_on_c, 1, 40, 80
3, 44024, Note_on_c, 1, 40, 0
3, 44032, Note_on_c, 1, 36, 84
3, 44137, Note_on_c, 1, 36, 0
3, 44149, Note_on_c, 1, 38, 83
3, 44249, Note_on_c, 1, 38, 0
3, 44268, Note_on_c, 1, 42, 87
3, 44387, Note_on_c, 1, 48, 96
3, 44397, Note_on_c, 1, 42, 0
3, 44503, Note_on_c, 1, 48, 0
3, 44509, Note_on_c, 1, 42, 78
3, 44628, Note_on_c, 1, 42, 0
3, 44629, Note_on_c, 1, 43, 82
3, 44749, Note_on_c, 1, 31, 95
3, 44877, Note_on_c, 1, 43, 0
3, 45001, Note_on_c, 1, 31, 0
3, 45004, Note_on_c, 1, 43, 103
3, 45230, Note_on_c, 1, 43, 0
3, 45235, Note_on_c, 1, 31, 85
3, 45463, Note_on_c, 1, 31, 0
3, 45468, Note_on_c, 1, 43, 91
3, 45611, Note_on_c, 1, 43, 0
3, 45709, Note_on_c, 1, 40, 108
3, 45835, Note_on_c, 1, 50, 118
3, 45843, Note_on_c, 1, 40, 0
3, 45917, Note_on_c, 1, 40, 70
3, 45919, Note_on_c, 1, 50, 0
3, 45934, Note_on_c, 1, 40, 0
3, 45951, Note_on_c, 1, 46, 94
3, 46099, Note_on_c, 1, 46, 0
3, 46115, Note_on_c, 1, 45, 88
3, 46132, Note_on_c, 1, 45, 0
3, 46155, Note_on_c, 1, 40, 82
3, 46181, Note_on_c, 1, 40, 0
3, 46195, Note_on_c, 1, 34, 85
3, 46303, Note_on_c, 1, 34, 0
3, 46316, Note_on_c, 1, 33, 82
3, 46383, Note_on_c, 1, 33, 0
3, 46401, Note_on_c, 1, 35, 78
3, 46422, Note_on_c, 1, 35, 0
3, 46443, Note_on_c, 1, 36, 84
3, 46460, Note_on_c, 1, 36, 0
3, 46519, Note_on_c, 1, 37, 82
3, 46539, Note_on_c, 1, 37, 0
3, 46557, Note_on_c, 1, 38, 89
3, 46641, Note_on_c, 1, 37, 49
3, 46659, Note_on_c, 1, 38, 0
3, 46667, Note_on_c, 1, 37, 0
3, 46677, Note_on_c, 1, 40, 91
3, 46760, Note_on_c, 1, 38, 55
3, 46772, Note_on_c, 1, 40, 0
3, 46782, Note_on_c, 1, 38, 0
3, 46794, Note_on_c, 1, 41, 66
3, 46795, Note_on_c, 1, 40, 76
3, 46821, Note_on_c, 1, 40, 0
3, 46910, Note_on_c, 1, 41, 0
3, 46917, Note_on_c, 1, 45, 110
3, 46989, Note_on_c, 1, 38, 50
3, 46998, Note_on_c, 1, 38, 0
3, 47022, Note_on_c, 1, 45, 0
3, 47036, Note_on_c, 1, 43, 78
3, 47116, Note_on_c, 1, 31, 95
3, 47120, Note_on_c, 1, 43, 0
3, 47354, Note_on_c, 1, 34, 60
3, 47361, Note_on_c, 1, 31, 0
3, 47376, Note_on_c, 1, 34, 0
3, 47408, Note_on_c, 1, 35, 64
3, 47456, Note_on_c, 1, 35, 0
3, 47476, Note_on_c, 1, 36, 78
3, 47607, Note_on_c, 1, 36, 0
3, 47630, Note_on_c, 1, 34, 80
3, 47690, Note_on_c, 1, 34, 0
3, 47720, Note_on_c, 1, 34, 77
3, 47760, Note_on_c, 1, 34, 0
3, 47780, Note_on_c, 1, 35, 89
3, 48006, Note_on_c, 1, 35, 0
3, 48011, Note_on_c, 1, 36, 85
3, 48620, Note_on_c, 1, 36, 0
3, 48673, Note_on_c, 1, 43, 67
3, 48702, Note_on_c, 1, 43, 0
3, 48713, Note_on_c, 1, 31, 62
3, 48962, Note_on_c, 1, 43, 58
3, 48966, Note_on_c, 1, 31, 0
3, 49197, Note_on_c, 1, 31, 54
3, 49198, Note_on_c, 1, 43, 0
3, 49291, Note_on_c, 1, 43, 44
3, 49303, Note_on_c, 1, 43, 0
3, 49309, Note_on_c, 1, 31, 0
3, 49325, Note_on_c, 1, 43, 50
3, 49398, Note_on_c, 1, 43, 0
3, 49403, Note_on_c, 1, 36, 70
3, 49912, Note_on_c, 1, 36, 0
3, 49914, Note_on_c, 1, 45, 67
3, 49935, Note_on_c, 1, 45, 0
3, 49997, Note_on_c, 1, 42, 59
3, 50031, Note_on_c, 1, 42, 0
3, 50042, Note_on_c, 1, 43, 38
3, 50111, Note_on_c, 1, 43, 0
3, 50117, Note_on_c, 1, 36, 62
3, 50878, Note_on_c, 1, 36, 0
3, 50954, Note_on_c, 1, 34, 52
3, 50983, Note_on_c, 1, 34, 0
3, 51001, Note_on_c, 1, 35, 46
3, 51071, Note_on_c, 1, 35, 0
3, 51076, Note_on_c, 1, 36, 66
3, 51191, Note_on_c, 1, 36, 0
3, 51191, End_track
4, 0, Start_track
4, 0, Title_t, ""
4, 167, Program_c, 9, 40
4, 480, Note_on_c, 9, 38, 54
4, 480, Note_on_c, 9, 42, 10
4, 480, Note_on_c, 9, 40, 54
4, 507, Note_on_c, 9, 42, 0
4, 507, Note_on_c, 9, 38, 0
4, 600, Note_on_c, 9, 40, 0
4, 600, Note_on_c, 9, 38, 103
4, 600, Note_on_c, 9, 40, 50
4, 603, Note_on_c, 9, 44, 126
4, 647, Note_on_c, 9, 44, 0
4, 665, Note_on_c, 9, 38, 0
4, 674, Note_on_c, 9, 38, 49
4, 699, Note_on_c, 9, 38, 0
4, 720, Note_on_c, 9, 40, 0
4, 720, Note_on_c, 9, 38, 67
4, 720, Note_on_c, 9, 40, 41
4, 780, Note_on_c, 9, 38, 0
4, 840, Note_on_c, 9, 40, 0
4, 840, Note_on_c, 9, 38, 107
4, 840, Note_on_c, 9, 40, 37
4, 843, Note_on_c, 9, 44, 105
4, 890, Note_on_c, 9, 44, 0
4, 909, Note_on_c, 9, 38, 0
4, 914, Note_on_c, 9, 38, 49
4, 927, Note_on_c, 9, 38, 0
4, 960, Note_on_c, 9, 40, 0
4, 960, Note_on_c, 9, 38, 72
4, 960, Note_on_c, 9, 40, 46
4, 1017, Note_on_c, 9, 38, 0
4, 1080, Note_on_c, 9, 40, 0
4, 1080, Note_on_c, 9, 38, 105
4, 1080, Note_on_c, 9, 40, 50
4, 1083, Note_on_c, 9, 44, 107
4, 1126, Note_on_c, 9, 44, 0
4, 1146, Note_on_c, 9, 38, 0
4, 1154, Note_on_c, 9, 38, 45
4, 1170, Note_on_c, 9, 38, 0
4, 1200, Note_on_c, 9, 40, 0
4, 1200, Note_on_c, 9, 38, 72
4, 1200, Note_on_c, 9, 40, 41
4, 1255, Note_on_c, 9, 38, 0
4, 1275, Note_on_c, 9, 39, 110
4, 1302, Note_on_c, 9, 39, 0
4, 1320, Note_on_c, 9, 40, 0
4, 1320, Note_on_c, 9, 38, 109
4, 1320, Note_on_c, 9, 40, 37
4, 1323, Note_on_c, 9, 44, 114
4, 1374, Note_on_c, 9, 38, 0
4, 1375, Note_on_c, 9, 44, 0
4, 1394, Note_on_c, 9, 38, 63
4, 1418, Note_on_c, 9, 38, 0
4, 1440, Note_on_c, 9, 40, 0
4, 1440, Note_on_c, 9, 38, 71
4, 1440, Note_on_c, 9, 40, 46
4, 1479, Note_on_c, 9, 38, 0
4, 1560, Note_on_c, 9, 40, 0
4, 1560, Note_on_c, 9, 38, 113
4, 1560, Note_on_c, 9, 40, 50
4, 1563, Note_on_c, 9, 44, 113
4, 1611, Note_on_c, 9, 44, 0
4, 1662, Note_on_c, 9, 38, 0
4, 1680, Note_on_c, 9, 40, 0
4, 1680, Note_on_c, 9, 38, 57
4, 1680, Note_on_c, 9, 40, 41
4, 1716, Note_on_c, 9, 38, 0
4, 1800, Note_on_c, 9, 40, 0
4, 1800, Note_on_c, 9, 38, 109
4, 1800, Note_on_c, 9, 40, 37
4, 1803, Note_on_c, 9, 44, 110
4, 1847, Note_on_c, 9, 44, 0
4, 1872, Note_on_c, 9, 38, 0
4, 1874, Note_on_c, 9, 38, 56
4, 1889, Note_on_c, 9, 38, 0
4, 1920, Note_on_c, 9, 40, 0
4, 1920, Note_on_c, 9, 38, 55
4, 1920, Note_on_c, 9, 40, 46
4, 2030, Note_on_c, 9, 38, 0
4, 2040, Note_on_c, 9, 40, 0
4, 2040, Note_on_c, 9, 38, 97
4, 2040, Note_on_c, 9, 40, 50
4, 2043, Note_on_c, 9, 44, 115
4, 2096, Note_on_c, 9, 38, 0
4, 2114, Note_on_c, 9, 39, 113
4, 2144, Note_on_c, 9, 39, 0
4, 2150, Note_on_c, 9, 44, 0
4, 2160, Note_on_c, 9, 40, 0
4, 2160, Note_on_c, 9, 38, 81
4, 2160, Note_on_c, 9, 40, 41
4, 2280, Note_on_c, 9, 40, 0
4, 2280, Note_on_c, 9, 38, 103
4, 2280, Note_on_c, 9, 40, 37
4, 2283, Note_on_c, 9, 44, 115
4, 2300, Note_on_c, 9, 38, 0
4, 2339, Note_on_c, 9, 38, 0
4, 2354, Note_on_c, 9, 38, 55
4, 2384, Note_on_c, 9, 44, 0
4, 2400, Note_on_c, 9, 38, 0
4, 2400, Note_on_c, 9, 40, 0
4, 2400, Note_on_c, 9, 38, 63
4, 2400, Note_on_c, 9, 40, 46
4, 2520, Note_on_c, 9, 40, 0
4, 2520, Note_on_c, 9, 38, 117
4, 2520, Note_on_c, 9, 40, 50
4, 2523, Note_on_c, 9, 44, 114
4, 2525, Note_on_c, 9, 38, 0
4, 2584, Note_on_c, 9, 38, 0
4, 2594, Note_on_c, 9, 38, 50
4, 2616, Note_on_c, 9, 38, 0
4, 2628, Note_on_c, 9, 44, 0
4, 2640, Note_on_c, 9, 40, 0
4, 2640, Note_on_c, 9, 38, 62
4, 2640, Note_on_c, 9, 40, 41
4, 2760, Note_on_c, 9, 40, 0
4, 2760, Note_on_c, 9, 38, 105
4, 2760, Note_on_c, 9, 40, 37
4, 2763, Note_on_c, 9, 44, 110
4, 2776, Note_on_c, 9, 38, 0
4, 2828, Note_on_c, 9, 38, 0
4, 2834, Note_on_c, 9, 38, 36
4, 2865, Note_on_c, 9, 44, 0
4, 2880, Note_on_c, 9, 38, 0
4, 2880, Note_on_c, 9, 40, 0
4, 2880, Note_on_c, 9, 38, 69
4, 2880, Note_on_c, 9, 40, 46
4, 3000, Note_on_c, 9, 40, 0
4, 3000, Note_on_c, 9, 38, 93
4, 3000, Note_on_c, 9, 40, 50
4, 3003, Note_on_c, 9, 38, 0
4, 3003, Note_on_c, 9, 44, 110
4, 3057, Note_on_c, 9, 38, 0
4, 3074, Note_on_c, 9, 38, 63
4, 3094, Note_on_c, 9, 38, 0
4, 3108, Note_on_c, 9, 44, 0
4, 3120, Note_on_c, 9, 40, 0
4, 3120, Note_on_c, 9, 38, 64
4, 3120, Note_on_c, 9, 40, 41
4, 3240, Note_on_c, 9, 40, 0
4, 3240, Note_on_c, 9, 38, 107
4, 3240, Note_on_c, 9, 40, 37
4, 3243, Note_on_c, 9, 44, 110
4, 3252, Note_on_c, 9, 38, 0
4, 3303, Note_on_c, 9, 38, 0
4, 3314, Note_on_c, 9, 38, 54
4, 3334, Note_on_c, 9, 38, 0
4, 3346, Note_on_c, 9, 44, 0
4, 3360, Note_on_c, 9, 40, 0
4, 3360, Note_on_c, 9, 38, 71
4, 3360, Note_on_c, 9, 40, 46
4, 3480, Note_on_c, 9, 40, 0
4, 3480, Note_on_c, 9, 38, 109
4, 3480, Note_on_c, 9, 40, 50
4, 3483, Note_on_c, 9, 44, 107
4, 3487, Note_on_c, 9, 38, 0
4, 3543, Note_on_c, 9, 38, 0
4, 3554, Note_on_c, 9, 38, 52
4, 3580, Note_on_c, 9, 38, 0
4, 3585, Note_on_c, 9, 44, 0
4, 3600, Note_on_c, 9, 40, 0
4, 3600, Note_on_c, 9, 38, 66
4, 3600, Note_on_c, 9, 40, 41
4, 3713, Note_on_c, 9, 38, 0
4, 3720, Note_on_c, 9, 40, 0
4, 3720, Note_on_c, 9, 38, 101
4, 3720, Note_on_c, 9, 40, 37
4, 3723, Note_on_c, 9, 44, 110
4, 3779, Note_on_c, 9, 38, 0
4, 3794, Note_on_c, 9, 39, 82
4, 3816, Note_on_c, 9, 39, 0
4, 3829, Note_on_c, 9, 44, 0
4, 3840, Note_on_c, 9, 40, 0
4, 3840, Note_on_c, 9, 38, 70
4, 3840, Note_on_c, 9, 40, 46
4, 3960, Note_on_c, 9, 40, 0
4, 3960, Note_on_c, 9, 38, 103
4, 3960, Note_on_c, 9, 40, 50
4, 3963, Note_on_c, 9, 44, 106
4, 3983, Note_on_c, 9, 38, 0
4, 4070, Note_on_c, 9, 44, 0
4, 4080, Note_on_c, 9, 40, 0
4, 4080, Note_on_c, 9, 38, 69
4, 4080, Note_on_c, 9, 40, 41
4, 4081, Note_on_c, 9, 38, 0
4, 4143, Note_on_c, 9, 38, 0
4, 4155, Note_on_c, 9, 39, 120
4, 4200, Note_on_c, 9, 40, 0
4, 4200, Note_on_c, 9, 38, 63
4, 4203, Note_on_c, 9, 44, 104
4, 4210, Note_on_c, 9, 39, 0
4, 4261, Note_on_c, 9, 38, 0
4, 4275, Note_on_c, 9, 35, 100
4, 4302, Note_on_c, 9, 35, 0
4, 4310, Note_on_c, 9, 44, 0
4, 4320, Note_on_c, 9, 40, 46
4, 4360, Note_on_c, 9, 39, 60
4, 4399, Note_on_c, 9, 35, 70
4, 4413, Note_on_c, 9, 39, 0
4, 4426, Note_on_c, 9, 35, 0
4, 4440, Note_on_c, 9, 40, 0
4, 4440, Note_on_c, 9, 40, 50
4, 4443, Note_on_c, 9, 44, 102
4, 4548, Note_on_c, 9, 44, 0
4, 4560, Note_on_c, 9, 40, 0
4, 4560, Note_on_c, 9, 38, 66
4, 4560, Note_on_c, 9, 40, 41
4, 4664, Note_on_c, 9, 38, 0
4, 4680, Note_on_c, 9, 40, 0
4, 4680, Note_on_c, 9, 38, 119
4, 4680, Note_on_c, 9, 40, 37
4, 4683, Note_on_c, 9, 44, 89
4, 4794, Note_on_c, 9, 44, 0
4, 4800, Note_on_c, 9, 40, 0
4, 4800, Note_on_c, 9, 38, 0
4, 4800, Note_on_c, 9, 38, 66
4, 4800, Note_on_c, 9, 40, 46
4, 4909, Note_on_c, 9, 38, 0
4, 4920, Note_on_c, 9, 40, 0
4, 4920, Note_on_c, 9, 38, 115
4, 4920, Note_on_c, 9, 40, 50
4, 4923, Note_on_c, 9, 44, 100
4, 4979, Note_on_c, 9, 38, 0
4, 4994, Note_on_c, 9, 38, 59
4, 5013, Note_on_c, 9, 38, 0
4, 5030, Note_on_c, 9, 44, 0
4, 5040, Note_on_c, 9, 40, 0
4, 5040, Note_on_c, 9, 38, 73
4, 5040, Note_on_c, 9, 40, 41
4, 5160, Note_on_c, 9, 40, 0
4, 5160, Note_on_c, 9, 38, 117
4, 5160, Note_on_c, 9, 40, 37
4, 5163, Note_on_c, 9, 44, 89
4, 5167, Note_on_c, 9, 38, 0
4, 5206, Note_on_c, 9, 44, 0
4, 5214, Note_on_c, 9, 38, 0
4, 5220, Note_on_c, 9, 46, 65
4, 5234, Note_on_c, 9, 38, 64
4, 5260, Note_on_c, 9, 38, 0
4, 5280, Note_on_c, 9, 46, 0
4, 5280, Note_on_c, 9, 40, 0
4, 5280, Note_on_c, 9, 38, 50
4, 5280, Note_on_c, 9, 40, 46
4, 5400, Note_on_c, 9, 40, 0
4, 5400, Note_on_c, 9, 38, 111
4, 5400, Note_on_c, 9, 40, 50
4, 5403, Note_on_c, 9, 44, 106
4, 5410, Note_on_c, 9, 38, 0
4, 5470, Note_on_c, 9, 38, 0
4, 5474, Note_on_c, 9, 38, 52
4, 5493, Note_on_c, 9, 38, 0
4, 5511, Note_on_c, 9, 44, 0
4, 5520, Note_on_c, 9, 40, 0
4, 5520, Note_on_c, 9, 38, 55
4, 5520, Note_on_c, 9, 40, 41
4, 5638, Note_on_c, 9, 38, 0
4, 5640, Note_on_c, 9, 40, 0
4, 5640, Note_on_c, 9, 38, 113
4, 5640, Note_on_c, 9, 40, 37
4, 5643, Note_on_c, 9, 44, 107
4, 5710, Note_on_c, 9, 38, 0
4, 5714, Note_on_c, 9, 38, 44
4, 5734, Note_on_c, 9, 38, 0
4, 5753, Note_on_c, 9, 44, 0
4, 5760, Note_on_c, 9, 40, 0
4, 5760, Note_on_c, 9, 38, 66
4, 5760, Note_on_c, 9, 40, 46
4, 5864, Note_on_c, 9, 38, 0
4, 5880, Note_on_c, 9, 40, 0
4, 5880, Note_on_c, 9, 38, 109
4, 5880, Note_on_c, 9, 40, 50
4, 5883, Note_on_c, 9, 44, 111
4, 5964, Note_on_c, 9, 35, 74
4, 5981, Note_on_c, 9, 38, 0
4, 5989, Note_on_c, 9, 44, 0
4, 5991, Note_on_c, 9, 35, 0
4, 6000, Note_on_c, 9, 40, 0
4, 6000, Note_on_c, 9, 38, 62
4, 6000, Note_on_c, 9, 40, 41
4, 6003, Note_on_c, 9, 44, 91
4, 6041, Note_on_c, 9, 44, 0
4, 6054, Note_on_c, 9, 38, 0
4, 6060, Note_on_c, 9, 46, 90
4, 6074, Note_on_c, 9, 39, 117
4, 6109, Note_on_c, 9, 39, 0
4, 6120, Note_on_c, 9, 40, 0
4, 6120, Note_on_c, 9, 38, 57
4, 6120, Note_on_c, 9, 40, 37
4, 6150, Note_on_c, 9, 46, 0
4, 6195, Note_on_c, 9, 35, 110
4, 6195, Note_on_c, 9, 39, 110
4, 6202, Note_on_c, 9, 38, 0
4, 6222, Note_on_c, 9, 35, 0
4, 6240, Note_on_c, 9, 40, 0
4, 6240, Note_on_c, 9, 39, 0
4, 6240, Note_on_c, 9, 38, 80
4, 6240, Note_on_c, 9, 40, 46
4, 6360, Note_on_c, 9, 40, 0
4, 6360, Note_on_c, 9, 38, 113
4, 6360, Note_on_c, 9, 40, 50
4, 6363, Note_on_c, 9, 44, 127
4, 6370, Note_on_c, 9, 38, 0
4, 6430, Note_on_c, 9, 38, 0
4, 6434, Note_on_c, 9, 38, 50
4, 6456, Note_on_c, 9, 38, 0
4, 6462, Note_on_c, 9, 44, 0
4, 6480, Note_on_c, 9, 40, 0
4, 6480, Note_on_c, 9, 38, 52
4, 6480, Note_on_c, 9, 40, 41
4, 6594, Note_on_c, 9, 38, 0
4, 6600, Note_on_c, 9, 40, 0
4, 6600, Note_on_c, 9, 38, 117
4, 6600, Note_on_c, 9, 40, 37
4, 6603, Note_on_c, 9, 44, 107
4, 6670, Note_on_c, 9, 38, 0
4, 6674, Note_on_c, 9, 38, 41
4, 6689, Note_on_c, 9, 38, 0
4, 6711, Note_on_c, 9, 44, 0
4, 6720, Note_on_c, 9, 40, 0
4, 6720, Note_on_c, 9, 38, 67
4, 6720, Note_on_c, 9, 40, 46
4, 6828, Note_on_c, 9, 38, 0
4, 6840, Note_on_c, 9, 40, 0
4, 6840, Note_on_c, 9, 38, 115
4, 6840, Note_on_c, 9, 40, 50
4, 6843, Note_on_c, 9, 44, 98
4, 6901, Note_on_c, 9, 38, 0
4, 6914, Note_on_c, 9, 38, 50
4, 6939, Note_on_c, 9, 38, 0
4, 6951, Note_on_c, 9, 44, 0
4, 6960, Note_on_c, 9, 40, 0
4, 6960, Note_on_c, 9, 38, 71
4, 6960, Note_on_c, 9, 40, 41
4, 7060, Note_on_c, 9, 38, 0
4, 7080, Note_on_c, 9, 40, 0
4, 7080, Note_on_c, 9, 38, 121
4, 7080, Note_on_c, 9, 40, 37
4, 7083, Note_on_c, 9, 44, 102
4, 7126, Note_on_c, 9, 38, 65
4, 7161, Note_on_c, 9, 38, 0
4, 7196, Note_on_c, 9, 38, 0
4, 7196, Note_on_c, 9, 44, 0
4, 7200, Note_on_c, 9, 40, 0
4, 7200, Note_on_c, 9, 38, 82
4, 7200, Note_on_c, 9, 40, 46
4, 7304, Note_on_c, 9, 38, 0
4, 7320, Note_on_c, 9, 40, 0
4, 7320, Note_on_c, 9, 38, 115
4, 7320, Note_on_c, 9, 40, 50
4, 7323, Note_on_c, 9, 44, 107
4, 7375, Note_on_c, 9, 38, 0
4, 7394, Note_on_c, 9, 38, 60
4, 7422, Note_on_c, 9, 38, 0
4, 7433, Note_on_c, 9, 44, 0
4, 7440, Note_on_c, 9, 40, 0
4, 7440, Note_on_c, 9, 38, 63
4, 7440, Note_on_c, 9, 40, 41
4, 7560, Note_on_c, 9, 40, 0
4, 7560, Note_on_c, 9, 38, 115
4, 7560, Note_on_c, 9, 40, 37
4, 7563, Note_on_c, 9, 44, 89
4, 7567, Note_on_c, 9, 38, 0
4, 7660, Note_on_c, 9, 38, 0
4, 7669, Note_on_c, 9, 44, 0
4, 7680, Note_on_c, 9, 40, 0
4, 7680, Note_on_c, 9, 40, 46
4, 7700, Note_on_c, 9, 38, 30
4, 7715, Note_on_c, 9, 38, 0
4, 7720, Note_on_c, 9, 38, 66
4, 7735, Note_on_c, 9, 38, 0
4, 7740, Note_on_c, 9, 38, 82
4, 7755, Note_on_c, 9, 38, 0
4, 7760, Note_on_c, 9, 39, 120
4, 7775, Note_on_c, 9, 39, 0
4, 7780, Note_on_c, 9, 38, 70
4, 7795, Note_on_c, 9, 38, 0
4, 7800, Note_on_c, 9, 40, 0
4, 7800, Note_on_c, 9, 38, 72
4, 7815, Note_on_c, 9, 38, 0
4, 7820, Note_on_c, 9, 38, 66
4, 7840, Note_on_c, 9, 38, 51
4, 7880, Note_on_c, 9, 35, 74
4, 7895, Note_on_c, 9, 35, 0
4, 7899, Note_on_c, 9, 38, 0
4, 7900, Note_on_c, 9, 38, 34
4, 7915, Note_on_c, 9, 38, 0
4, 7919, Note_on_c, 9, 38, 0
4, 7920, Note_on_c, 9, 38, 95
4, 7935, Note_on_c, 9, 38, 0
4, 7940, Note_on_c, 9, 38, 32
4, 7955, Note_on_c, 9, 38, 0
4, 7960, Note_on_c, 9, 39, 110
4, 7975, Note_on_c, 9, 39, 0
4, 7980, Note_on_c, 9, 38, 36
4, 7995, Note_on_c, 9, 38, 0
4, 8000, Note_on_c, 9, 38, 74
4, 8015, Note_on_c, 9, 38, 0
4, 8020, Note_on_c, 9, 38, 23
4, 8035, Note_on_c, 9, 38, 0
4, 8040, Note_on_c, 9, 38, 22
4, 8055, Note_on_c, 9, 38, 0
4, 8080, Note_on_c, 9, 38, 62
4, 8115, Note_on_c, 9, 39, 127
4, 8130, Note_on_c, 9, 39, 0
4, 8159, Note_on_c, 9, 38, 0
4, 8160, Note_on_c, 9, 40, 46
4, 8280, Note_on_c, 9, 40, 0
4, 8280, Note_on_c, 9, 38, 119
4, 8280, Note_on_c, 9, 40, 50
4, 8283, Note_on_c, 9, 44, 127
4, 8340, Note_on_c, 9, 38, 0
4, 8354, Note_on_c, 9, 38, 56
4, 8378, Note_on_c, 9, 38, 0
4, 8383, Note_on_c, 9, 44, 0
4, 8400, Note_on_c, 9, 40, 0
4, 8400, Note_on_c, 9, 38, 99
4, 8400, Note_on_c, 9, 40, 41
4, 8442, Note_on_c, 9, 38, 0
4, 8520, Note_on_c, 9, 40, 0
4, 8520, Note_on_c, 9, 46, 110
4, 8520, Note_on_c, 9, 38, 117
4, 8520, Note_on_c, 9, 40, 37
4, 8579, Note_on_c, 9, 38, 0
4, 8594, Note_on_c, 9, 38, 52
4, 8611, Note_on_c, 9, 46, 0
4, 8625, Note_on_c, 9, 38, 0
4, 8640, Note_on_c, 9, 40, 0
4, 8640, Note_on_c, 9, 38, 78
4, 8640, Note_on_c, 9, 40, 46
4, 8746, Note_on_c, 9, 38, 0
4, 8760, Note_on_c, 9, 40, 0
4, 8760, Note_on_c, 9, 38, 121
4, 8760, Note_on_c, 9, 40, 50
4, 8763, Note_on_c, 9, 44, 114
4, 8816, Note_on_c, 9, 38, 0
4, 8834, Note_on_c, 9, 38, 55
4, 8853, Note_on_c, 9, 38, 0
4, 8866, Note_on_c, 9, 44, 0
4, 8880, Note_on_c, 9, 40, 0
4, 8880, Note_on_c, 9, 38, 65
4, 8880, Note_on_c, 9, 40, 41
4, 8941, Note_on_c, 9, 38, 0
4, 8954, Note_on_c, 9, 39, 97
4, 8954, Note_on_c, 9, 38, 68
4, 8969, Note_on_c, 9, 38, 0
4, 8976, Note_on_c, 9, 39, 0
4, 9000, Note_on_c, 9, 40, 0
4, 9000, Note_on_c, 9, 40, 37
4, 9003, Note_on_c, 9, 44, 115
4, 9074, Note_on_c, 9, 38, 61
4, 9102, Note_on_c, 9, 38, 0
4, 9110, Note_on_c, 9, 44, 0
4, 9120, Note_on_c, 9, 40, 0
4, 9120, Note_on_c, 9, 38, 73
4, 9120, Note_on_c, 9, 40, 46
4, 9217, Note_on_c, 9, 38, 0
4, 9240, Note_on_c, 9, 40, 0
4, 9240, Note_on_c, 9, 38, 119
4, 9240, Note_on_c, 9, 40, 50
4, 9243, Note_on_c, 9, 44, 111
4, 9290, Note_on_c, 9, 38, 0
4, 9314, Note_on_c, 9, 38, 67
4, 9329, Note_on_c, 9, 44, 0
4, 9340, Note_on_c, 9, 38, 0
4, 9360, Note_on_c, 9, 40, 0
4, 9360, Note_on_c, 9, 38, 62
4, 9360, Note_on_c, 9, 40, 41
4, 9396, Note_on_c, 9, 38, 0
4, 9434, Note_on_c, 9, 38, 76
4, 9475, Note_on_c, 9, 38, 0
4, 9480, Note_on_c, 9, 40, 0
4, 9480, Note_on_c, 9, 40, 37
4, 9483, Note_on_c, 9, 44, 126
4, 9586, Note_on_c, 9, 44, 0
4, 9600, Note_on_c, 9, 40, 0
4, 9600, Note_on_c, 9, 38, 80
4, 9600, Note_on_c, 9, 40, 46
4, 9704, Note_on_c, 9, 38, 0
4, 9720, Note_on_c, 9, 40, 0
4, 9720, Note_on_c, 9, 38, 121
4, 9720, Note_on_c, 9, 40, 50
4, 9723, Note_on_c, 9, 44, 114
4, 9828, Note_on_c, 9, 44, 0
4, 9840, Note_on_c, 9, 40, 0
4, 9840, Note_on_c, 9, 38, 43
4, 9840, Note_on_c, 9, 40, 41
4, 9849, Note_on_c, 9, 38, 0
4, 9960, Note_on_c, 9, 40, 0
4, 9960, Note_on_c, 9, 38, 121
4, 9960, Note_on_c, 9, 40, 37
4, 9963, Note_on_c, 9, 44, 111
4, 9989, Note_on_c, 9, 38, 0
4, 10062, Note_on_c, 9, 38, 0
4, 10065, Note_on_c, 9, 44, 0
4, 10080, Note_on_c, 9, 40, 0
4, 10080, Note_on_c, 9, 35, 110
4, 10080, Note_on_c, 9, 38, 41
4, 10080, Note_on_c, 9, 40, 46
4, 10200, Note_on_c, 9, 40, 0
4, 10200, Note_on_c, 9, 38, 111
4, 10200, Note_on_c, 9, 40, 50
4, 10203, Note_on_c, 9, 44, 119
4, 10209, Note_on_c, 9, 35, 0
4, 10220, Note_on_c, 9, 38, 0
4, 10247, Note_on_c, 9, 38, 0
4, 10274, Note_on_c, 9, 38, 95
4, 10294, Note_on_c, 9, 38, 0
4, 10309, Note_on_c, 9, 44, 0
4, 10320, Note_on_c, 9, 40, 0
4, 10320, Note_on_c, 9, 38, 81
4, 10320, Note_on_c, 9, 40, 41
4, 10419, Note_on_c, 9, 38, 0
4, 10440, Note_on_c, 9, 40, 0
4, 10440, Note_on_c, 9, 38, 105
4, 10440, Note_on_c, 9, 40, 37
4, 10443, Note_on_c, 9, 44, 123
4, 10481, Note_on_c, 9, 38, 0
4, 10514, Note_on_c, 9, 38, 69
4, 10533, Note_on_c, 9, 38, 0
4, 10546, Note_on_c, 9, 44, 0
4, 10560, Note_on_c, 9, 40, 0
4, 10560, Note_on_c, 9, 38, 69
4, 10560, Note_on_c, 9, 40, 46
4, 10653, Note_on_c, 9, 38, 0
4, 10680, Note_on_c, 9, 40, 0
4, 10680, Note_on_c, 9, 38, 101
4, 10680, Note_on_c, 9, 40, 50
4, 10683, Note_on_c, 9, 44, 111
4, 10727, Note_on_c, 9, 38, 0
4, 10754, Note_on_c, 9, 38, 105
4, 10780, Note_on_c, 9, 38, 0
4, 10782, Note_on_c, 9, 44, 0
4, 10800, Note_on_c, 9, 40, 0
4, 10800, Note_on_c, 9, 38, 87
4, 10800, Note_on_c, 9, 40, 41
4, 10897, Note_on_c, 9, 38, 0
4, 10920, Note_on_c, 9, 40, 0
4, 10920, Note_on_c, 9, 38, 97
4, 10920, Note_on_c, 9, 40, 37
4, 10923, Note_on_c, 9, 44, 114
4, 10965, Note_on_c, 9, 38, 0
4, 10994, Note_on_c, 9, 38, 105
4, 11020, Note_on_c, 9, 44, 0
4, 11022, Note_on_c, 9, 38, 0
4, 11040, Note_on_c, 9, 40, 0
4, 11040, Note_on_c, 9, 38, 61
4, 11040, Note_on_c, 9, 40, 46
4, 11154, Note_on_c, 9, 38, 0
4, 11160, Note_on_c, 9, 40, 0
4, 11160, Note_on_c, 9, 38, 121
4, 11160, Note_on_c, 9, 40, 50
4, 11163, Note_on_c, 9, 44, 120
4, 11264, Note_on_c, 9, 44, 0
4, 11280, Note_on_c, 9, 40, 0
4, 11280, Note_on_c, 9, 38, 71
4, 11280, Note_on_c, 9, 40, 41
4, 11294, Note_on_c, 9, 38, 0
4, 11330, Note_on_c, 9, 38, 0
4, 11354, Note_on_c, 9, 38, 105
4, 11380, Note_on_c, 9, 38, 0
4, 11400, Note_on_c, 9, 40, 0
4, 11400, Note_on_c, 9, 40, 37
4, 11403, Note_on_c, 9, 44, 127
4, 11500, Note_on_c, 9, 44, 0
4, 11520, Note_on_c, 9, 40, 0
4, 11520, Note_on_c, 9, 38, 73
4, 11520, Note_on_c, 9, 40, 46
4, 11569, Note_on_c, 9, 38, 0
4, 11594, Note_on_c, 9, 39, 117
4, 11620, Note_on_c, 9, 39, 0
4, 11640, Note_on_c, 9, 40, 0
4, 11640, Note_on_c, 9, 38, 50
4, 11640, Note_on_c, 9, 40, 50
4, 11643, Note_on_c, 9, 44, 96
4, 11760, Note_on_c, 9, 40, 0
4, 11760, Note_on_c, 9, 38, 85
4, 11760, Note_on_c, 9, 40, 41
4, 11769, Note_on_c, 9, 38, 0
4, 11789, Note_on_c, 9, 44, 0
4, 11799, Note_on_c, 9, 38, 0
4, 11834, Note_on_c, 9, 39, 115
4, 11860, Note_on_c, 9, 39, 0
4, 11880, Note_on_c, 9, 40, 0
4, 11880, Note_on_c, 9, 46, 85
4, 11880, Note_on_c, 9, 40, 37
4, 11954, Note_on_c, 9, 38, 92
4, 11971, Note_on_c, 9, 46, 0
4, 11974, Note_on_c, 9, 38, 0
4, 12000, Note_on_c, 9, 40, 0
4, 12000, Note_on_c, 9, 35, 110
4, 12000, Note_on_c, 9, 53, 80
4, 12000, Note_on_c, 9, 40, 46
4, 12003, Note_on_c, 9, 44, 76
4, 12089, Note_on_c, 9, 53, 0
4, 12120, Note_on_c, 9, 40, 0
4, 12120, Note_on_c, 9, 38, 107
4, 12120, Note_on_c, 9, 40, 50
4, 12123, Note_on_c, 9, 44, 127
4, 12129, Note_on_c, 9, 35, 0
4, 12144, Note_on_c, 9, 44, 0
4, 12219, Note_on_c, 9, 44, 0
4, 12240, Note_on_c, 9, 40, 0
4, 12240, Note_on_c, 9, 38, 67
4, 12240, Note_on_c, 9, 40, 41
4, 12260, Note_on_c, 9, 38, 0
4, 12350, Note_on_c, 9, 38, 0
4, 12360, Note_on_c, 9, 40, 0
4, 12360, Note_on_c, 9, 38, 113
4, 12360, Note_on_c, 9, 40, 37
4, 12363, Note_on_c, 9, 44, 127
4, 12417, Note_on_c, 9, 38, 0
4, 12434, Note_on_c, 9, 38, 86
4, 12459, Note_on_c, 9, 38, 0
4, 12468, Note_on_c, 9, 44, 0
4, 12480, Note_on_c, 9, 40, 0
4, 12480, Note_on_c, 9, 38, 83
4, 12480, Note_on_c, 9, 40, 46
4, 12600, Note_on_c, 9, 40, 0
4, 12600, Note_on_c, 9, 38, 113
4, 12600, Note_on_c, 9, 40, 50
4, 12603, Note_on_c, 9, 44, 102
4, 12605, Note_on_c, 9, 38, 0
4, 12710, Note_on_c, 9, 44, 0
4, 12720, Note_on_c, 9, 40, 0
4, 12720, Note_on_c, 9, 38, 63
4, 12720, Note_on_c, 9, 40, 41
4, 12751, Note_on_c, 9, 38, 0
4, 12795, Note_on_c, 9, 39, 110
4, 12822, Note_on_c, 9, 39, 0
4, 12822, Note_on_c, 9, 38, 0
4, 12840, Note_on_c, 9, 40, 0
4, 12840, Note_on_c, 9, 38, 113
4, 12840, Note_on_c, 9, 40, 37
4, 12843, Note_on_c, 9, 44, 126
4, 12895, Note_on_c, 9, 38, 0
4, 12914, Note_on_c, 9, 38, 77
4, 12936, Note_on_c, 9, 38, 0
4, 12946, Note_on_c, 9, 44, 0
4, 12960, Note_on_c, 9, 40, 0
4, 12960, Note_on_c, 9, 38, 69
4, 12960, Note_on_c, 9, 40, 46
4, 13051, Note_on_c, 9, 38, 0
4, 13080, Note_on_c, 9, 40, 0
4, 13080, Note_on_c, 9, 38, 111
4, 13080, Note_on_c, 9, 40, 50
4, 13083, Note_on_c, 9, 44, 113
4, 13184, Note_on_c, 9, 38, 0
4, 13188, Note_on_c, 9, 44, 0
4, 13200, Note_on_c, 9, 40, 0
4, 13200, Note_on_c, 9, 38, 71
4, 13200, Note_on_c, 9, 40, 41
4, 13302, Note_on_c, 9, 38, 0
4, 13320, Note_on_c, 9, 40, 0
4, 13320, Note_on_c, 9, 38, 95
4, 13320, Note_on_c, 9, 40, 37
4, 13323, Note_on_c, 9, 44, 113
4, 13379, Note_on_c, 9, 38, 0
4, 13394, Note_on_c, 9, 38, 107
4, 13416, Note_on_c, 9, 38, 0
4, 13428, Note_on_c, 9, 44, 0
4, 13440, Note_on_c, 9, 40, 0
4, 13440, Note_on_c, 9, 38, 93
4, 13440, Note_on_c, 9, 40, 46
4, 13543, Note_on_c, 9, 38, 0
4, 13560, Note_on_c, 9, 40, 0
4, 13560, Note_on_c, 9, 38, 99
4, 13560, Note_on_c, 9, 40, 50
4, 13563, Note_on_c, 9, 44, 118
4, 13604, Note_on_c, 9, 38, 0
4, 13634, Note_on_c, 9, 38, 89
4, 13653, Note_on_c, 9, 38, 0
4, 13665, Note_on_c, 9, 44, 0
4, 13680, Note_on_c, 9, 40, 0
4, 13680, Note_on_c, 9, 38, 73
4, 13680, Note_on_c, 9, 40, 41
4, 13800, Note_on_c, 9, 40, 0
4, 13800, Note_on_c, 9, 38, 97
4, 13800, Note_on_c, 9, 40, 37
4, 13801, Note_on_c, 9, 38, 0
4, 13803, Note_on_c, 9, 44, 119
4, 13841, Note_on_c, 9, 44, 0
4, 13851, Note_on_c, 9, 38, 0
4, 13874, Note_on_c, 9, 39, 120
4, 13898, Note_on_c, 9, 39, 0
4, 13920, Note_on_c, 9, 40, 0
4, 13920, Note_on_c, 9, 38, 45
4, 13920, Note_on_c, 9, 40, 46
4, 14011, Note_on_c, 9, 38, 0
4, 14040, Note_on_c, 9, 40, 0
4, 14040, Note_on_c, 9, 38, 107
4, 14040, Note_on_c, 9, 40, 50
4, 14043, Note_on_c, 9, 44, 123
4, 14135, Note_on_c, 9, 44, 0
4, 14146, Note_on_c, 9, 38, 0
4, 14160, Note_on_c, 9, 40, 0
4, 14160, Note_on_c, 9, 38, 64
4, 14160, Note_on_c, 9, 40, 41
4, 14280, Note_on_c, 9, 40, 0
4, 14280, Note_on_c, 9, 38, 111
4, 14280, Note_on_c, 9, 40, 37
4, 14283, Note_on_c, 9, 38, 0
4, 14283, Note_on_c, 9, 44, 118
4, 14335, Note_on_c, 9, 38, 0
4, 14354, Note_on_c, 9, 38, 68
4, 14379, Note_on_c, 9, 38, 0
4, 14380, Note_on_c, 9, 44, 0
4, 14400, Note_on_c, 9, 40, 0
4, 14400, Note_on_c, 9, 38, 71
4, 14400, Note_on_c, 9, 40, 46
4, 14509, Note_on_c, 9, 38, 0
4, 14520, Note_on_c, 9, 40, 0
4, 14520, Note_on_c, 9, 38, 117
4, 14520, Note_on_c, 9, 40, 50
4, 14523, Note_on_c, 9, 44, 115
4, 14626, Note_on_c, 9, 44, 0
4, 14640, Note_on_c, 9, 40, 0
4, 14640, Note_on_c, 9, 38, 63
4, 14640, Note_on_c, 9, 40, 41
4, 14644, Note_on_c, 9, 38, 0
4, 14760, Note_on_c, 9, 40, 0
4, 14760, Note_on_c, 9, 38, 107
4, 14760, Note_on_c, 9, 40, 37
4, 14761, Note_on_c, 9, 38, 0
4, 14763, Note_on_c, 9, 44, 127
4, 14815, Note_on_c, 9, 38, 0
4, 14834, Note_on_c, 9, 38, 87
4, 14856, Note_on_c, 9, 38, 0
4, 14864, Note_on_c, 9, 44, 0
4, 14880, Note_on_c, 9, 40, 0
4, 14880, Note_on_c, 9, 38, 75
4, 14880, Note_on_c, 9, 40, 46
4, 14955, Note_on_c, 9, 39, 110
4, 14975, Note_on_c, 9, 38, 0
4, 14982, Note_on_c, 9, 39, 0
4, 15000, Note_on_c, 9, 40, 0
4, 15000, Note_on_c, 9, 38, 111
4, 15000, Note_on_c, 9, 40, 50
4, 15003, Note_on_c, 9, 44, 123
4, 15102, Note_on_c, 9, 44, 0
4, 15103, Note_on_c, 9, 38, 0
4, 15120, Note_on_c, 9, 40, 0
4, 15120, Note_on_c, 9, 35, 110
4, 15120, Note_on_c, 9, 40, 41
4, 15211, Note_on_c, 9, 35, 0
4, 15240, Note_on_c, 9, 40, 0
4, 15240, Note_on_c, 9, 38, 119
4, 15240, Note_on_c, 9, 40, 37
4, 15243, Note_on_c, 9, 44, 115
4, 15296, Note_on_c, 9, 38, 0
4, 15314, Note_on_c, 9, 38, 68
4, 15315, Note_on_c, 9, 35, 90
4, 15327, Note_on_c, 9, 38, 0
4, 15340, Note_on_c, 9, 44, 0
4, 15342, Note_on_c, 9, 35, 0
4, 15360, Note_on_c, 9, 40, 0
4, 15360, Note_on_c, 9, 40, 46
4, 15480, Note_on_c, 9, 40, 0
4, 15480, Note_on_c, 9, 40, 50
4, 15483, Note_on_c, 9, 44, 127
4, 15555, Note_on_c, 9, 39, 110
4, 15582, Note_on_c, 9, 39, 0
4, 15583, Note_on_c, 9, 44, 0
4, 15600, Note_on_c, 9, 40, 0
4, 15600, Note_on_c, 9, 40, 41
4, 15675, Note_on_c, 9, 39, 110
4, 15702, Note_on_c, 9, 39, 0
4, 15720, Note_on_c, 9, 40, 0
4, 15720, Note_on_c, 9, 40, 37
4, 15723, Note_on_c, 9, 44, 123
4, 15755, Note_on_c, 9, 44, 0
4, 15840, Note_on_c, 9, 40, 0
4, 15840, Note_on_c, 9, 40, 54
4, 15842, Note_on_c, 9, 38, 54
4, 15842, Note_on_c, 9, 42, 10
4, 15869, Note_on_c, 9, 42, 0
4, 15869, Note_on_c, 9, 38, 0
4, 15960, Note_on_c, 9, 40, 0
4, 15960, Note_on_c, 9, 40, 50
4, 15962, Note_on_c, 9, 38, 103
4, 15965, Note_on_c, 9, 44, 126
4, 16009, Note_on_c, 9, 44, 0
4, 16027, Note_on_c, 9, 38, 0
4, 16036, Note_on_c, 9, 38, 49
4, 16061, Note_on_c, 9, 38, 0
4, 16080, Note_on_c, 9, 40, 0
4, 16080, Note_on_c, 9, 40, 41
4, 16082, Note_on_c, 9, 38, 67
4, 16142, Note_on_c, 9, 38, 0
4, 16200, Note_on_c, 9, 40, 0
4, 16200, Note_on_c, 9, 40, 37
4, 16202, Note_on_c, 9, 38, 107
4, 16205, Note_on_c, 9, 44, 105
4, 16252, Note_on_c, 9, 44, 0
4, 16271, Note_on_c, 9, 38, 0
4, 16276, Note_on_c, 9, 38, 49
4, 16289, Note_on_c, 9, 38, 0
4, 16320, Note_on_c, 9, 40, 0
4, 16320, Note_on_c, 9, 40, 46
4, 16322, Note_on_c, 9, 38, 72
4, 16379, Note_on_c, 9, 38, 0
4, 16440, Note_on_c, 9, 40, 0
4, 16440, Note_on_c, 9, 40, 50
4, 16442, Note_on_c, 9, 38, 105
4, 16445, Note_on_c, 9, 44, 107
4, 16488, Note_on_c, 9, 44, 0
4, 16508, Note_on_c, 9, 38, 0
4, 16516, Note_on_c, 9, 38, 45
4, 16532, Note_on_c, 9, 38, 0
4, 16560, Note_on_c, 9, 40, 0
4, 16560, Note_on_c, 9, 40, 41
4, 16562, Note_on_c, 9, 38, 72
4, 16617, Note_on_c, 9, 38, 0
4, 16637, Note_on_c, 9, 39, 110
4, 16664, Note_on_c, 9, 39, 0
4, 16680, Note_on_c, 9, 40, 0
4, 16680, Note_on_c, 9, 40, 37
4, 16682, Note_on_c, 9, 38, 109
4, 16685, Note_on_c, 9, 44, 114
4, 16736, Note_on_c, 9, 38, 0
4, 16737, Note_on_c, 9, 44, 0
4, 16756, Note_on_c, 9, 38, 63
4, 16780, Note_on_c, 9, 38, 0
4, 16800, Note_on_c, 9, 40, 0
4, 16800, Note_on_c, 9, 40, 46
4, 16802, Note_on_c, 9, 38, 71
4, 16841, Note_on_c, 9, 38, 0
4, 16920, Note_on_c, 9, 40, 0
4, 16920, Note_on_c, 9, 40, 50
4, 16922, Note_on_c, 9, 38, 113
4, 16925, Note_on_c, 9, 44, 113
4, 16973, Note_on_c, 9, 44, 0
4, 17024, Note_on_c, 9, 38, 0
4, 17040, Note_on_c, 9, 40, 0
4, 17040, Note_on_c, 9, 40, 41
4, 17042, Note_on_c, 9, 38, 57
4, 17078, Note_on_c, 9, 38, 0
4, 17160, Note_on_c, 9, 40, 0
4, 17160, Note_on_c, 9, 40, 37
4, 17162, Note_on_c, 9, 38, 109
4, 17165, Note_on_c, 9, 44, 110
4, 17209, Note_on_c, 9, 44, 0
4, 17234, Note_on_c, 9, 38, 0
4, 17236, Note_on_c, 9, 38, 56
4, 17251, Note_on_c, 9, 38, 0
4, 17280, Note_on_c, 9, 40, 0
4, 17280, Note_on_c, 9, 40, 46
4, 17282, Note_on_c, 9, 38, 55
4, 17392, Note_on_c, 9, 38, 0
4, 17400, Note_on_c, 9, 40, 0
4, 17400, Note_on_c, 9, 40, 50
4, 17402, Note_on_c, 9, 38, 97
4, 17405, Note_on_c, 9, 44, 115
4, 17458, Note_on_c, 9, 38, 0
4, 17476, Note_on_c, 9, 39, 113
4, 17506, Note_on_c, 9, 39, 0
4, 17512, Note_on_c, 9, 44, 0
4, 17520, Note_on_c, 9, 40, 0
4, 17520, Note_on_c, 9, 40, 41
4, 17522, Note_on_c, 9, 38, 81
4, 17640, Note_on_c, 9, 40, 0
4, 17640, Note_on_c, 9, 40, 37
4, 17642, Note_on_c, 9, 38, 103
4, 17645, Note_on_c, 9, 44, 115
4, 17662, Note_on_c, 9, 38, 0
4, 17701, Note_on_c, 9, 38, 0
4, 17716, Note_on_c, 9, 38, 55
4, 17746, Note_on_c, 9, 44, 0
4, 17760, Note_on_c, 9, 40, 0
4, 17760, Note_on_c, 9, 40, 46
4, 17762, Note_on_c, 9, 38, 0
4, 17762, Note_on_c, 9, 38, 63
4, 17880, Note_on_c, 9, 40, 0
4, 17880, Note_on_c, 9, 40, 50
4, 17882, Note_on_c, 9, 38, 117
4, 17885, Note_on_c, 9, 44, 114
4, 17887, Note_on_c, 9, 38, 0
4, 17946, Note_on_c, 9, 38, 0
4, 17956, Note_on_c, 9, 38, 50
4, 17978, Note_on_c, 9, 38, 0
4, 17990, Note_on_c, 9, 44, 0
4, 18000, Note_on_c, 9, 40, 0
4, 18000, Note_on_c, 9, 40, 41
4, 18002, Note_on_c, 9, 38, 62
4, 18120, Note_on_c, 9, 40, 0
4, 18120, Note_on_c, 9, 40, 37
4, 18122, Note_on_c, 9, 38, 105
4, 18125, Note_on_c, 9, 44, 110
4, 18138, Note_on_c, 9, 38, 0
4, 18190, Note_on_c, 9, 38, 0
4, 18196, Note_on_c, 9, 38, 36
4, 18227, Note_on_c, 9, 44, 0
4, 18240, Note_on_c, 9, 40, 0
4, 18240, Note_on_c, 9, 40, 46
4, 18242, Note_on_c, 9, 38, 0
4, 18242, Note_on_c, 9, 38, 69
4, 18360, Note_on_c, 9, 40, 0
4, 18360, Note_on_c, 9, 40, 50
4, 18362, Note_on_c, 9, 38, 93
4, 18365, Note_on_c, 9, 38, 0
4, 18365, Note_on_c, 9, 44, 110
4, 18419, Note_on_c, 9, 38, 0
4, 18436, Note_on_c, 9, 38, 63
4, 18456, Note_on_c, 9, 38, 0
4, 18470, Note_on_c, 9, 44, 0
4, 18480, Note_on_c, 9, 40, 0
4, 18480, Note_on_c, 9, 40, 41
4, 18482, Note_on_c, 9, 38, 64
4, 18600, Note_on_c, 9, 40, 0
4, 18600, Note_on_c, 9, 40, 37
4, 18602, Note_on_c, 9, 38, 107
4, 18605, Note_on_c, 9, 44, 110
4, 18614, Note_on_c, 9, 38, 0
4, 18665, Note_on_c, 9, 38, 0
4, 18676, Note_on_c, 9, 38, 54
4, 18696, Note_on_c, 9, 38, 0
4, 18708, Note_on_c, 9, 44, 0
4, 18720, Note_on_c, 9, 40, 0
4, 18720, Note_on_c, 9, 40, 46
4, 18722, Note_on_c, 9, 38, 71
4, 18840, Note_on_c, 9, 40, 0
4, 18840, Note_on_c, 9, 40, 50
4, 18842, Note_on_c, 9, 38, 109
4, 18845, Note_on_c, 9, 44, 107
4, 18849, Note_on_c, 9, 38, 0
4, 18905, Note_on_c, 9, 38, 0
4, 18916, Note_on_c, 9, 38, 52
4, 18942, Note_on_c, 9, 38, 0
4, 18947, Note_on_c, 9, 44, 0
4, 18960, Note_on_c, 9, 40, 0
4, 18960, Note_on_c, 9, 40, 41
4, 18962, Note_on_c, 9, 38, 66
4, 19075, Note_on_c, 9, 38, 0
4, 19080, Note_on_c, 9, 40, 0
4, 19080, Note_on_c, 9, 40, 37
4, 19082, Note_on_c, 9, 38, 101
4, 19085, Note_on_c, 9, 44, 110
4, 19141, Note_on_c, 9, 38, 0
4, 19156, Note_on_c, 9, 39, 82
4, 19178, Note_on_c, 9, 39, 0
4, 19191, Note_on_c, 9, 44, 0
4, 19200, Note_on_c, 9, 40, 0
4, 19200, Note_on_c, 9, 40, 46
4, 19202, Note_on_c, 9, 38, 70
4, 19320, Note_on_c, 9, 40, 0
4, 19320, Note_on_c, 9, 40, 50
4, 19322, Note_on_c, 9, 38, 103
4, 19325, Note_on_c, 9, 44, 106
4, 19345, Note_on_c, 9, 38, 0
4, 19432, Note_on_c, 9, 44, 0
4, 19440, Note_on_c, 9, 40, 0
4, 19440, Note_on_c, 9, 40, 41
4, 19442, Note_on_c, 9, 38, 69
4, 19443, Note_on_c, 9, 38, 0
4, 19505, Note_on_c, 9, 38, 0
4, 19517, Note_on_c, 9, 39, 120
4, 19560, Note_on_c, 9, 40, 0
4, 19562, Note_on_c, 9, 38, 63
4, 19565, Note_on_c, 9, 44, 104
4, 19572, Note_on_c, 9, 39, 0
4, 19623, Note_on_c, 9, 38, 0
4, 19637, Note_on_c, 9, 35, 100
4, 19664, Note_on_c, 9, 35, 0
4, 19672, Note_on_c, 9, 44, 0
4, 19680, Note_on_c, 9, 40, 46
4, 19722, Note_on_c, 9, 39, 60
4, 19761, Note_on_c, 9, 35, 70
4, 19775, Note_on_c, 9, 39, 0
4, 19788, Note_on_c, 9, 35, 0
4, 19800, Note_on_c, 9, 40, 0
4, 19800, Note_on_c, 9, 40, 50
4, 19805, Note_on_c, 9, 44, 102
4, 19910, Note_on_c, 9, 44, 0
4, 19920, Note_on_c, 9, 40, 0
4, 19920, Note_on_c, 9, 40, 41
4, 19922, Note_on_c, 9, 38, 66
4, 20026, Note_on_c, 9, 38, 0
4, 20040, Note_on_c, 9, 40, 0
4, 20040, Note_on_c, 9, 40, 37
4, 20042, Note_on_c, 9, 38, 119
4, 20045, Note_on_c, 9, 44, 89
4, 20156, Note_on_c, 9, 44, 0
4, 20160, Note_on_c, 9, 40, 0
4, 20160, Note_on_c, 9, 40, 46
4, 20162, Note_on_c, 9, 38, 0
4, 20162, Note_on_c, 9, 38, 66
4, 20271, Note_on_c, 9, 38, 0
4, 20280, Note_on_c, 9, 40, 0
4, 20280, Note_on_c, 9, 40, 50
4, 20282, Note_on_c, 9, 38, 115
4, 20285, Note_on_c, 9, 44, 100
4, 20341, Note_on_c, 9, 38, 0
4, 20356, Note_on_c, 9, 38, 59
4, 20375, Note_on_c, 9, 38, 0
4, 20392, Note_on_c, 9, 44, 0
4, 20400, Note_on_c, 9, 40, 0
4, 20400, Note_on_c, 9, 40, 41
4, 20402, Note_on_c, 9, 38, 73
4, 20520, Note_on_c, 9, 40, 0
4, 20520, Note_on_c, 9, 40, 37
4, 20522, Note_on_c, 9, 38, 117
4, 20525, Note_on_c, 9, 44, 89
4, 20529, Note_on_c, 9, 38, 0
4, 20568, Note_on_c, 9, 44, 0
4, 20576, Note_on_c, 9, 38, 0
4, 20582, Note_on_c, 9, 46, 65
4, 20596, Note_on_c, 9, 38, 64
4, 20622, Note_on_c, 9, 38, 0
4, 20640, Note_on_c, 9, 40, 0
4, 20640, Note_on_c, 9, 40, 46
4, 20642, Note_on_c, 9, 46, 0
4, 20642, Note_on_c, 9, 38, 50
4, 20760, Note_on_c, 9, 40, 0
4, 20760, Note_on_c, 9, 40, 50
4, 20762, Note_on_c, 9, 38, 111
4, 20765, Note_on_c, 9, 44, 106
4, 20772, Note_on_c, 9, 38, 0
4, 20832, Note_on_c, 9, 38, 0
4, 20836, Note_on_c, 9, 38, 52
4, 20855, Note_on_c, 9, 38, 0
4, 20873, Note_on_c, 9, 44, 0
4, 20880, Note_on_c, 9, 40, 0
4, 20880, Note_on_c, 9, 40, 41
4, 20882, Note_on_c, 9, 38, 55
4, 21000, Note_on_c, 9, 38, 0
4, 21000, Note_on_c, 9, 40, 0
4, 21000, Note_on_c, 9, 40, 37
4, 21002, Note_on_c, 9, 38, 113
4, 21005, Note_on_c, 9, 44, 107
4, 21072, Note_on_c, 9, 38, 0
4, 21076, Note_on_c, 9, 38, 44
4, 21096, Note_on_c, 9, 38, 0
4, 21115, Note_on_c, 9, 44, 0
4, 21120, Note_on_c, 9, 40, 0
4, 21120, Note_on_c, 9, 40, 46
4, 21122, Note_on_c, 9, 38, 66
4, 21226, Note_on_c, 9, 38, 0
4, 21240, Note_on_c, 9, 40, 0
4, 21240, Note_on_c, 9, 40, 50
4, 21242, Note_on_c, 9, 38, 109
4, 21245, Note_on_c, 9, 44, 111
4, 21326, Note_on_c, 9, 35, 74
4, 21343, Note_on_c, 9, 38, 0
4, 21351, Note_on_c, 9, 44, 0
4, 21353, Note_on_c, 9, 35, 0
4, 21360, Note_on_c, 9, 40, 0
4, 21360, Note_on_c, 9, 40, 41
4, 21362, Note_on_c, 9, 38, 62
4, 21365, Note_on_c, 9, 44, 91
4, 21403, Note_on_c, 9, 44, 0
4, 21416, Note_on_c, 9, 38, 0
4, 21422, Note_on_c, 9, 46, 90
4, 21436, Note_on_c, 9, 39, 117
4, 21471, Note_on_c, 9, 39, 0
4, 21480, Note_on_c, 9, 40, 0
4, 21480, Note_on_c, 9, 40, 37
4, 21482, Note_on_c, 9, 38, 57
4, 21512, Note_on_c, 9, 46, 0
4, 21557, Note_on_c, 9, 35, 110
4, 21557, Note_on_c, 9, 39, 110
4, 21564, Note_on_c, 9, 38, 0
4, 21584, Note_on_c, 9, 35, 0
4, 21600, Note_on_c, 9, 40, 0
4, 21600, Note_on_c, 9, 40, 46
4, 21602, Note_on_c, 9, 39, 0
4, 21602, Note_on_c, 9, 38, 80
4, 21720, Note_on_c, 9, 40, 0
4, 21720, Note_on_c, 9, 40, 50
4, 21722, Note_on_c, 9, 38, 113
4, 21725, Note_on_c, 9, 44, 127
4, 21732, Note_on_c, 9, 38, 0
4, 21792, Note_on_c, 9, 38, 0
4, 21796, Note_on_c, 9, 38, 50
4, 21818, Note_on_c, 9, 38, 0
4, 21824, Note_on_c, 9, 44, 0
4, 21840, Note_on_c, 9, 40, 0
4, 21840, Note_on_c, 9, 40, 41
4, 21842, Note_on_c, 9, 38, 52
4, 21956, Note_on_c, 9, 38, 0
4, 21960, Note_on_c, 9, 40, 0
4, 21960, Note_on_c, 9, 40, 37
4, 21962, Note_on_c, 9, 38, 117
4, 21965, Note_on_c, 9, 44, 107
4, 22032, Note_on_c, 9, 38, 0
4, 22036, Note_on_c, 9, 38, 41
4, 22051, Note_on_c, 9, 38, 0
4, 22073, Note_on_c, 9, 44, 0
4, 22080, Note_on_c, 9, 40, 0
4, 22080, Note_on_c, 9, 40, 46
4, 22082, Note_on_c, 9, 38, 67
4, 22190, Note_on_c, 9, 38, 0
4, 22200, Note_on_c, 9, 40, 0
4, 22200, Note_on_c, 9, 40, 50
4, 22202, Note_on_c, 9, 38, 115
4, 22205, Note_on_c, 9, 44, 98
4, 22263, Note_on_c, 9, 38, 0
4, 22276, Note_on_c, 9, 38, 50
4, 22301, Note_on_c, 9, 38, 0
4, 22313, Note_on_c, 9, 44, 0
4, 22320, Note_on_c, 9, 40, 0
4, 22320, Note_on_c, 9, 40, 41
4, 22322, Note_on_c, 9, 38, 71
4, 22422, Note_on_c, 9, 38, 0
4, 22440, Note_on_c, 9, 40, 0
4, 22440, Note_on_c, 9, 40, 37
4, 22442, Note_on_c, 9, 38, 121
4, 22445, Note_on_c, 9, 44, 102
4, 22488, Note_on_c, 9, 38, 65
4, 22523, Note_on_c, 9, 38, 0
4, 22558, Note_on_c, 9, 38, 0
4, 22558, Note_on_c, 9, 44, 0
4, 22560, Note_on_c, 9, 40, 0
4, 22560, Note_on_c, 9, 40, 46
4, 22562, Note_on_c, 9, 38, 82
4, 22666, Note_on_c, 9, 38, 0
4, 22680, Note_on_c, 9, 40, 0
4, 22680, Note_on_c, 9, 40, 50
4, 22682, Note_on_c, 9, 38, 115
4, 22685, Note_on_c, 9, 44, 107
4, 22737, Note_on_c, 9, 38, 0
4, 22756, Note_on_c, 9, 38, 60
4, 22784, Note_on_c, 9, 38, 0
4, 22795, Note_on_c, 9, 44, 0
4, 22800, Note_on_c, 9, 40, 0
4, 22800, Note_on_c, 9, 40, 41
4, 22802, Note_on_c, 9, 38, 63
4, 22920, Note_on_c, 9, 40, 0
4, 22920, Note_on_c, 9, 40, 37
4, 22922, Note_on_c, 9, 38, 115
4, 22925, Note_on_c, 9, 44, 89
4, 22929, Note_on_c, 9, 38, 0
4, 23022, Note_on_c, 9, 38, 0
4, 23031, Note_on_c, 9, 44, 0
4, 23040, Note_on_c, 9, 40, 0
4, 23040, Note_on_c, 9, 40, 46
4, 23062, Note_on_c, 9, 38, 30
4, 23077, Note_on_c, 9, 38, 0
4, 23082, Note_on_c, 9, 38, 66
4, 23097, Note_on_c, 9, 38, 0
4, 23102, Note_on_c, 9, 38, 82
4, 23117, Note_on_c, 9, 38, 0
4, 23122, Note_on_c, 9, 39, 120
4, 23137, Note_on_c, 9, 39, 0
4, 23142, Note_on_c, 9, 38, 70
4, 23157, Note_on_c, 9, 38, 0
4, 23160, Note_on_c, 9, 40, 0
4, 23162, Note_on_c, 9, 38, 72
4, 23177, Note_on_c, 9, 38, 0
4, 23182, Note_on_c, 9, 38, 66
4, 23202, Note_on_c, 9, 38, 51
4, 23242, Note_on_c, 9, 35, 74
4, 23257, Note_on_c, 9, 35, 0
4, 23261, Note_on_c, 9, 38, 0
4, 23262, Note_on_c, 9, 38, 34
4, 23277, Note_on_c, 9, 38, 0
4, 23281, Note_on_c, 9, 38, 0
4, 23282, Note_on_c, 9, 38, 95
4, 23297, Note_on_c, 9, 38, 0
4, 23302, Note_on_c, 9, 38, 32
4, 23317, Note_on_c, 9, 38, 0
4, 23322, Note_on_c, 9, 39, 110
4, 23337, Note_on_c, 9, 39, 0
4, 23342, Note_on_c, 9, 38, 36
4, 23357, Note_on_c, 9, 38, 0
4, 23362, Note_on_c, 9, 38, 74
4, 23377, Note_on_c, 9, 38, 0
4, 23382, Note_on_c, 9, 38, 23
4, 23397, Note_on_c, 9, 38, 0
4, 23402, Note_on_c, 9, 38, 22
4, 23417, Note_on_c, 9, 38, 0
4, 23442, Note_on_c, 9, 38, 62
4, 23477, Note_on_c, 9, 39, 127
4, 23492, Note_on_c, 9, 39, 0
4, 23506, Note_on_c, 9, 35, 100
4, 23511, Note_on_c, 9, 49, 50
4, 23520, Note_on_c, 9, 40, 46
4, 23521, Note_on_c, 9, 38, 0
4, 23566, Note_on_c, 9, 35, 0
4, 23571, Note_on_c, 9, 49, 0
4, 23640, Note_on_c, 9, 40, 0
4, 23640, Note_on_c, 9, 40, 50
4, 23642, Note_on_c, 9, 38, 119
4, 23645, Note_on_c, 9, 44, 127
4, 23702, Note_on_c, 9, 38, 0
4, 23716, Note_on_c, 9, 38, 56
4, 23740, Note_on_c, 9, 38, 0
4, 23745, Note_on_c, 9, 44, 0
4, 23760, Note_on_c, 9, 40, 0
4, 23760, Note_on_c, 9, 40, 41
4, 23762, Note_on_c, 9, 38, 99
4, 23804, Note_on_c, 9, 38, 0
4, 23880, Note_on_c, 9, 40, 0
4, 23880, Note_on_c, 9, 40, 37
4, 23882, Note_on_c, 9, 46, 110
4, 23882, Note_on_c, 9, 38, 117
4, 23941, Note_on_c, 9, 38, 0
4, 23956, Note_on_c, 9, 38, 52
4, 23973, Note_on_c, 9, 46, 0
4, 23987, Note_on_c, 9, 38, 0
4, 24000, Note_on_c, 9, 40, 0
4, 24000, Note_on_c, 9, 40, 46
4, 24002, Note_on_c, 9, 38, 78
4, 24108, Note_on_c, 9, 38, 0
4, 24120, Note_on_c, 9, 40, 0
4, 24120, Note_on_c, 9, 40, 50
4, 24122, Note_on_c, 9, 38, 121
4, 24125, Note_on_c, 9, 44, 114
4, 24178, Note_on_c, 9, 38, 0
4, 24196, Note_on_c, 9, 38, 55
4, 24215, Note_on_c, 9, 38, 0
4, 24228, Note_on_c, 9, 44, 0
4, 24240, Note_on_c, 9, 40, 0
4, 24240, Note_on_c, 9, 40, 41
4, 24242, Note_on_c, 9, 38, 65
4, 24303, Note_on_c, 9, 38, 0
4, 24316, Note_on_c, 9, 39, 97
4, 24316, Note_on_c, 9, 38, 68
4, 24331, Note_on_c, 9, 38, 0
4, 24338, Note_on_c, 9, 39, 0
4, 24360, Note_on_c, 9, 40, 0
4, 24360, Note_on_c, 9, 40, 37
4, 24365, Note_on_c, 9, 44, 115
4, 24436, Note_on_c, 9, 38, 61
4, 24464, Note_on_c, 9, 38, 0
4, 24472, Note_on_c, 9, 44, 0
4, 24480, Note_on_c, 9, 40, 0
4, 24480, Note_on_c, 9, 40, 46
4, 24482, Note_on_c, 9, 38, 73
4, 24579, Note_on_c, 9, 38, 0
4, 24600, Note_on_c, 9, 40, 0
4, 24600, Note_on_c, 9, 40, 50
4, 24602, Note_on_c, 9, 38, 119
4, 24605, Note_on_c, 9, 44, 111
4, 24652, Note_on_c, 9, 38, 0
4, 24676, Note_on_c, 9, 38, 67
4, 24691, Note_on_c, 9, 44, 0
4, 24702, Note_on_c, 9, 38, 0
4, 24720, Note_on_c, 9, 40, 0
4, 24720, Note_on_c, 9, 40, 41
4, 24722, Note_on_c, 9, 38, 62
4, 24758, Note_on_c, 9, 38, 0
4, 24796, Note_on_c, 9, 38, 76
4, 24837, Note_on_c, 9, 38, 0
4, 24840, Note_on_c, 9, 40, 0
4, 24840, Note_on_c, 9, 40, 37
4, 24845, Note_on_c, 9, 44, 126
4, 24948, Note_on_c, 9, 44, 0
4, 24960, Note_on_c, 9, 40, 0
4, 24960, Note_on_c, 9, 40, 46
4, 24962, Note_on_c, 9, 38, 80
4, 25066, Note_on_c, 9, 38, 0
4, 25080, Note_on_c, 9, 40, 0
4, 25080, Note_on_c, 9, 40, 50
4, 25082, Note_on_c, 9, 38, 121
4, 25085, Note_on_c, 9, 44, 114
4, 25190, Note_on_c, 9, 44, 0
4, 25200, Note_on_c, 9, 40, 0
4, 25200, Note_on_c, 9, 40, 41
4, 25202, Note_on_c, 9, 38, 43
4, 25211, Note_on_c, 9, 38, 0
4, 25320, Note_on_c, 9, 40, 0
4, 25320, Note_on_c, 9, 40, 37
4, 25322, Note_on_c, 9, 38, 121
4, 25325, Note_on_c, 9, 44, 111
4, 25351, Note_on_c, 9, 38, 0
4, 25424, Note_on_c, 9, 38, 0
4, 25427, Note_on_c, 9, 44, 0
4, 25440, Note_on_c, 9, 40, 0
4, 25440, Note_on_c, 9, 40, 46
4, 25442, Note_on_c, 9, 35, 110
4, 25442, Note_on_c, 9, 38, 41
4, 25560, Note_on_c, 9, 40, 0
4, 25560, Note_on_c, 9, 40, 50
4, 25562, Note_on_c, 9, 38, 111
4, 25565, Note_on_c, 9, 44, 119
4, 25571, Note_on_c, 9, 35, 0
4, 25582, Note_on_c, 9, 38, 0
4, 25609, Note_on_c, 9, 38, 0
4, 25636, Note_on_c, 9, 38, 95
4, 25656, Note_on_c, 9, 38, 0
4, 25671, Note_on_c, 9, 44, 0
4, 25680, Note_on_c, 9, 40, 0
4, 25680, Note_on_c, 9, 40, 41
4, 25682, Note_on_c, 9, 38, 81
4, 25781, Note_on_c, 9, 38, 0
4, 25800, Note_on_c, 9, 40, 0
4, 25800, Note_on_c, 9, 40, 37
4, 25802, Note_on_c, 9, 38, 105
4, 25805, Note_on_c, 9, 44, 123
4, 25843, Note_on_c, 9, 38, 0
4, 25876, Note_on_c, 9, 38, 69
4, 25895, Note_on_c, 9, 38, 0
4, 25908, Note_on_c, 9, 44, 0
4, 25920, Note_on_c, 9, 40, 0
4, 25920, Note_on_c, 9, 40, 46
4, 25922, Note_on_c, 9, 38, 69
4, 26015, Note_on_c, 9, 38, 0
4, 26040, Note_on_c, 9, 40, 0
4, 26040, Note_on_c, 9, 40, 50
4, 26042, Note_on_c, 9, 38, 101
4, 26045, Note_on_c, 9, 44, 111
4, 26089, Note_on_c, 9, 38, 0
4, 26116, Note_on_c, 9, 38, 105
4, 26142, Note_on_c, 9, 38, 0
4, 26144, Note_on_c, 9, 44, 0
4, 26160, Note_on_c, 9, 40, 0
4, 26160, Note_on_c, 9, 40, 41
4, 26162, Note_on_c, 9, 38, 87
4, 26259, Note_on_c, 9, 38, 0
4, 26280, Note_on_c, 9, 40, 0
4, 26280, Note_on_c, 9, 40, 37
4, 26282, Note_on_c, 9, 38, 97
4, 26285, Note_on_c, 9, 44, 114
4, 26327, Note_on_c, 9, 38, 0
4, 26356, Note_on_c, 9, 38, 105
4, 26382, Note_on_c, 9, 44, 0
4, 26384, Note_on_c, 9, 38, 0
4, 26400, Note_on_c, 9, 40, 0
4, 26400, Note_on_c, 9, 40, 46
4, 26402, Note_on_c, 9, 38, 61
4, 26516, Note_on_c, 9, 38, 0
4, 26520, Note_on_c, 9, 40, 0
4, 26520, Note_on_c, 9, 40, 50
4, 26522, Note_on_c, 9, 38, 121
4, 26525, Note_on_c, 9, 44, 120
4, 26626, Note_on_c, 9, 44, 0
4, 26640, Note_on_c, 9, 40, 0
4, 26640, Note_on_c, 9, 40, 41
4, 26642, Note_on_c, 9, 38, 71
4, 26656, Note_on_c, 9, 38, 0
4, 26692, Note_on_c, 9, 38, 0
4, 26716, Note_on_c, 9, 38, 105
4, 26742, Note_on_c, 9, 38, 0
4, 26760, Note_on_c, 9, 40, 0
4, 26760, Note_on_c, 9, 40, 37
4, 26765, Note_on_c, 9, 44, 127
4, 26862, Note_on_c, 9, 44, 0
4, 26880, Note_on_c, 9, 40, 0
4, 26880, Note_on_c, 9, 40, 46
4, 26882, Note_on_c, 9, 38, 73
4, 26931, Note_on_c, 9, 38, 0
4, 26956, Note_on_c, 9, 39, 117
4, 26982, Note_on_c, 9, 39, 0
4, 27000, Note_on_c, 9, 40, 0
4, 27000, Note_on_c, 9, 40, 50
4, 27002, Note_on_c, 9, 38, 50
4, 27005, Note_on_c, 9, 44, 96
4, 27120, Note_on_c, 9, 40, 0
4, 27120, Note_on_c, 9, 40, 41
4, 27122, Note_on_c, 9, 38, 85
4, 27131, Note_on_c, 9, 38, 0
4, 27151, Note_on_c, 9, 44, 0
4, 27161, Note_on_c, 9, 38, 0
4, 27196, Note_on_c, 9, 39, 115
4, 27222, Note_on_c, 9, 39, 0
4, 27240, Note_on_c, 9, 40, 0
4, 27240, Note_on_c, 9, 40, 37
4, 27242, Note_on_c, 9, 46, 85
4, 27316, Note_on_c, 9, 38, 92
4, 27333, Note_on_c, 9, 46, 0
4, 27336, Note_on_c, 9, 38, 0
4, 27360, Note_on_c, 9, 40, 0
4, 27360, Note_on_c, 9, 40, 46
4, 27362, Note_on_c, 9, 35, 110
4, 27362, Note_on_c, 9, 53, 80
4, 27365, Note_on_c, 9, 44, 76
4, 27451, Note_on_c, 9, 53, 0
4, 27480, Note_on_c, 9, 40, 0
4, 27480, Note_on_c, 9, 40, 50
4, 27482, Note_on_c, 9, 38, 107
4, 27485, Note_on_c, 9, 44, 127
4, 27491, Note_on_c, 9, 35, 0
4, 27506, Note_on_c, 9, 44, 0
4, 27581, Note_on_c, 9, 44, 0
4, 27600, Note_on_c, 9, 40, 0
4, 27600, Note_on_c, 9, 40, 41
4, 27602, Note_on_c, 9, 38, 67
4, 27622, Note_on_c, 9, 38, 0
4, 27712, Note_on_c, 9, 38, 0
4, 27720, Note_on_c, 9, 40, 0
4, 27720, Note_on_c, 9, 40, 37
4, 27722, Note_on_c, 9, 38, 113
4, 27725, Note_on_c, 9, 44, 127
4, 27779, Note_on_c, 9, 38, 0
4, 27796, Note_on_c, 9, 38, 86
4, 27821, Note_on_c, 9, 38, 0
4, 27830, Note_on_c, 9, 44, 0
4, 27840, Note_on_c, 9, 40, 0
4, 27840, Note_on_c, 9, 40, 46
4, 27842, Note_on_c, 9, 38, 83
4, 27960, Note_on_c, 9, 40, 0
4, 27960, Note_on_c, 9, 40, 50
4, 27962, Note_on_c, 9, 38, 113
4, 27965, Note_on_c, 9, 44, 102
4, 27967, Note_on_c, 9, 38, 0
4, 28072, Note_on_c, 9, 44, 0
4, 28080, Note_on_c, 9, 40, 0
4, 28080, Note_on_c, 9, 40, 41
4, 28082, Note_on_c, 9, 38, 63
4, 28113, Note_on_c, 9, 38, 0
4, 28157, Note_on_c, 9, 39, 110
4, 28184, Note_on_c, 9, 39, 0
4, 28184, Note_on_c, 9, 38, 0
4, 28200, Note_on_c, 9, 40, 0
4, 28200, Note_on_c, 9, 40, 37
4, 28202, Note_on_c, 9, 38, 113
4, 28205, Note_on_c, 9, 44, 126
4, 28257, Note_on_c, 9, 38, 0
4, 28276, Note_on_c, 9, 38, 77
4, 28298, Note_on_c, 9, 38, 0
4, 28308, Note_on_c, 9, 44, 0
4, 28320, Note_on_c, 9, 40, 0
4, 28320, Note_on_c, 9, 40, 46
4, 28322, Note_on_c, 9, 38, 69
4, 28413, Note_on_c, 9, 38, 0
4, 28440, Note_on_c, 9, 40, 0
4, 28440, Note_on_c, 9, 40, 50
4, 28442, Note_on_c, 9, 38, 111
4, 28445, Note_on_c, 9, 44, 113
4, 28546, Note_on_c, 9, 38, 0
4, 28550, Note_on_c, 9, 44, 0
4, 28560, Note_on_c, 9, 40, 0
4, 28560, Note_on_c, 9, 40, 41
4, 28562, Note_on_c, 9, 38, 71
4, 28664, Note_on_c, 9, 38, 0
4, 28680, Note_on_c, 9, 40, 0
4, 28680, Note_on_c, 9, 40, 37
4, 28682, Note_on_c, 9, 38, 95
4, 28685, Note_on_c, 9, 44, 113
4, 28741, Note_on_c, 9, 38, 0
4, 28756, Note_on_c, 9, 38, 107
4, 28778, Note_on_c, 9, 38, 0
4, 28790, Note_on_c, 9, 44, 0
4, 28800, Note_on_c, 9, 40, 0
4, 28800, Note_on_c, 9, 40, 46
4, 28802, Note_on_c, 9, 38, 93
4, 28905, Note_on_c, 9, 38, 0
4, 28920, Note_on_c, 9, 40, 0
4, 28920, Note_on_c, 9, 40, 50
4, 28922, Note_on_c, 9, 38, 99
4, 28925, Note_on_c, 9, 44, 118
4, 28966, Note_on_c, 9, 38, 0
4, 28996, Note_on_c, 9, 38, 89
4, 29015, Note_on_c, 9, 38, 0
4, 29027, Note_on_c, 9, 44, 0
4, 29040, Note_on_c, 9, 40, 0
4, 29040, Note_on_c, 9, 40, 41
4, 29042, Note_on_c, 9, 38, 73
4, 29160, Note_on_c, 9, 40, 0
4, 29160, Note_on_c, 9, 40, 37
4, 29162, Note_on_c, 9, 38, 97
4, 29163, Note_on_c, 9, 38, 0
4, 29165, Note_on_c, 9, 44, 119
4, 29203, Note_on_c, 9, 44, 0
4, 29213, Note_on_c, 9, 38, 0
4, 29236, Note_on_c, 9, 39, 120
4, 29260, Note_on_c, 9, 39, 0
4, 29280, Note_on_c, 9, 40, 0
4, 29280, Note_on_c, 9, 40, 46
4, 29282, Note_on_c, 9, 38, 45
4, 29373, Note_on_c, 9, 38, 0
4, 29400, Note_on_c, 9, 40, 0
4, 29400, Note_on_c, 9, 40, 50
4, 29402, Note_on_c, 9, 38, 107
4, 29405, Note_on_c, 9, 44, 123
4, 29497, Note_on_c, 9, 44, 0
4, 29508, Note_on_c, 9, 38, 0
4, 29520, Note_on_c, 9, 40, 0
4, 29520, Note_on_c, 9, 40, 41
4, 29522, Note_on_c, 9, 38, 64
4, 29640, Note_on_c, 9, 40, 0
4, 29640, Note_on_c, 9, 40, 37
4, 29642, Note_on_c, 9, 38, 111
4, 29645, Note_on_c, 9, 38, 0
4, 29645, Note_on_c, 9, 44, 118
4, 29697, Note_on_c, 9, 38, 0
4, 29716, Note_on_c, 9, 38, 68
4, 29741, Note_on_c, 9, 38, 0
4, 29742, Note_on_c, 9, 44, 0
4, 29760, Note_on_c, 9, 40, 0
4, 29760, Note_on_c, 9, 40, 46
4, 29762, Note_on_c, 9, 38, 71
4, 29871, Note_on_c, 9, 38, 0
4, 29880, Note_on_c, 9, 40, 0
4, 29880, Note_on_c, 9, 40, 50
4, 29882, Note_on_c, 9, 38, 117
4, 29885, Note_on_c, 9, 44, 115
4, 29988, Note_on_c, 9, 44, 0
4, 30000, Note_on_c, 9, 40, 0
4, 30000, Note_on_c, 9, 40, 41
4, 30002, Note_on_c, 9, 38, 63
4, 30006, Note_on_c, 9, 38, 0
4, 30120, Note_on_c, 9, 40, 0
4, 30120, Note_on_c, 9, 40, 37
4, 30122, Note_on_c, 9, 38, 107
4, 30123, Note_on_c, 9, 38, 0
4, 30125, Note_on_c, 9, 44, 127
4, 30177, Note_on_c, 9, 38, 0
4, 30196, Note_on_c, 9, 38, 87
4, 30218, Note_on_c, 9, 38, 0
4, 30226, Note_on_c, 9, 44, 0
4, 30240, Note_on_c, 9, 40, 0
4, 30240, Note_on_c, 9, 40, 46
4, 30242, Note_on_c, 9, 38, 75
4, 30317, Note_on_c, 9, 39, 110
4, 30337, Note_on_c, 9, 38, 0
4, 30344, Note_on_c, 9, 39, 0
4, 30360, Note_on_c, 9, 40, 0
4, 30360, Note_on_c, 9, 40, 50
4, 30362, Note_on_c, 9, 38, 111
4, 30365, Note_on_c, 9, 44, 123
4, 30464, Note_on_c, 9, 44, 0
4, 30465, Note_on_c, 9, 38, 0
4, 30480, Note_on_c, 9, 40, 0
4, 30480, Note_on_c, 9, 40, 41
4, 30482, Note_on_c, 9, 35, 110
4, 30573, Note_on_c, 9, 35, 0
4, 30600, Note_on_c, 9, 40, 0
4, 30600, Note_on_c, 9, 40, 37
4, 30602, Note_on_c, 9, 38, 119
4, 30605, Note_on_c, 9, 44, 115
4, 30658, Note_on_c, 9, 38, 0
4, 30676, Note_on_c, 9, 38, 68
4, 30677, Note_on_c, 9, 35, 90
4, 30689, Note_on_c, 9, 38, 0
4, 30702, Note_on_c, 9, 44, 0
4, 30704, Note_on_c, 9, 35, 0
4, 30720, Note_on_c, 9, 40, 0
4, 30720, Note_on_c, 9, 40, 46
4, 30840, Note_on_c, 9, 40, 0
4, 30840, Note_on_c, 9, 40, 50
4, 30845, Note_on_c, 9, 44, 127
4, 30917, Note_on_c, 9, 39, 110
4, 30944, Note_on_c, 9, 39, 0
4, 30945, Note_on_c, 9, 44, 0
4, 30960, Note_on_c, 9, 40, 0
4, 30960, Note_on_c, 9, 40, 41
4, 31037, Note_on_c, 9, 39, 110
4, 31064, Note_on_c, 9, 39, 0
4, 31080, Note_on_c, 9, 40, 0
4, 31080, Note_on_c, 9, 40, 37
4, 31085, Note_on_c, 9, 44, 123
4, 31117, Note_on_c, 9, 44, 0
4, 31200, Note_on_c, 9, 40, 0
4, 31200, Note_on_c, 9, 40, 54
4, 31205, Note_on_c, 9, 38, 54
4, 31205, Note_on_c, 9, 42, 10
4, 31232, Note_on_c, 9, 42, 0
4, 31232, Note_on_c, 9, 38, 0
4, 31320, Note_on_c, 9, 40, 0
4, 31320, Note_on_c, 9, 40, 50
4, 31325, Note_on_c, 9, 38, 103
4, 31328, Note_on_c, 9, 44, 126
4, 31372, Note_on_c, 9, 44, 0
4, 31390, Note_on_c, 9, 38, 0
4, 31399, Note_on_c, 9, 38, 49
4, 31424, Note_on_c, 9, 38, 0
4, 31440, Note_on_c, 9, 40, 0
4, 31440, Note_on_c, 9, 40, 41
4, 31445, Note_on_c, 9, 38, 67
4, 31505, Note_on_c, 9, 38, 0
4, 31560, Note_on_c, 9, 40, 0
4, 31560, Note_on_c, 9, 40, 37
4, 31565, Note_on_c, 9, 38, 107
4, 31568, Note_on_c, 9, 44, 105
4, 31615, Note_on_c, 9, 44, 0
4, 31634, Note_on_c, 9, 38, 0
4, 31639, Note_on_c, 9, 38, 49
4, 31652, Note_on_c, 9, 38, 0
4, 31680, Note_on_c, 9, 40, 0
4, 31680, Note_on_c, 9, 40, 46
4, 31685, Note_on_c, 9, 38, 72
4, 31742, Note_on_c, 9, 38, 0
4, 31800, Note_on_c, 9, 40, 0
4, 31800, Note_on_c, 9, 40, 50
4, 31805, Note_on_c, 9, 38, 105
4, 31808, Note_on_c, 9, 44, 107
4, 31851, Note_on_c, 9, 44, 0
4, 31871, Note_on_c, 9, 38, 0
4, 31879, Note_on_c, 9, 38, 45
4, 31895, Note_on_c, 9, 38, 0
4, 31920, Note_on_c, 9, 40, 0
4, 31920, Note_on_c, 9, 40, 41
4, 31925, Note_on_c, 9, 38, 72
4, 31980, Note_on_c, 9, 38, 0
4, 32000, Note_on_c, 9, 39, 110
4, 32027, Note_on_c, 9, 39, 0
4, 32040, Note_on_c, 9, 40, 0
4, 32040, Note_on_c, 9, 40, 37
4, 32045, Note_on_c, 9, 38, 109
4, 32048, Note_on_c, 9, 44, 114
4, 32099, Note_on_c, 9, 38, 0
4, 32100, Note_on_c, 9, 44, 0
4, 32119, Note_on_c, 9, 38, 63
4, 32143, Note_on_c, 9, 38, 0
4, 32160, Note_on_c, 9, 40, 0
4, 32160, Note_on_c, 9, 40, 46
4, 32165, Note_on_c, 9, 38, 71
4, 32204, Note_on_c, 9, 38, 0
4, 32280, Note_on_c, 9, 40, 0
4, 32280, Note_on_c, 9, 40, 50
4, 32285, Note_on_c, 9, 38, 113
4, 32288, Note_on_c, 9, 44, 113
4, 32336, Note_on_c, 9, 44, 0
4, 32387, Note_on_c, 9, 38, 0
4, 32400, Note_on_c, 9, 40, 0
4, 32400, Note_on_c, 9, 40, 41
4, 32405, Note_on_c, 9, 38, 57
4, 32441, Note_on_c, 9, 38, 0
4, 32520, Note_on_c, 9, 40, 0
4, 32520, Note_on_c, 9, 40, 37
4, 32525, Note_on_c, 9, 38, 109
4, 32528, Note_on_c, 9, 44, 110
4, 32572, Note_on_c, 9, 44, 0
4, 32597, Note_on_c, 9, 38, 0
4, 32599, Note_on_c, 9, 38, 56
4, 32614, Note_on_c, 9, 38, 0
4, 32640, Note_on_c, 9, 40, 0
4, 32640, Note_on_c, 9, 40, 46
4, 32645, Note_on_c, 9, 38, 55
4, 32755, Note_on_c, 9, 38, 0
4, 32760, Note_on_c, 9, 40, 0
4, 32760, Note_on_c, 9, 40, 50
4, 32765, Note_on_c, 9, 38, 97
4, 32768, Note_on_c, 9, 44, 115
4, 32821, Note_on_c, 9, 38, 0
4, 32839, Note_on_c, 9, 39, 113
4, 32869, Note_on_c, 9, 39, 0
4, 32875, Note_on_c, 9, 44, 0
4, 32880, Note_on_c, 9, 40, 0
4, 32880, Note_on_c, 9, 40, 41
4, 32885, Note_on_c, 9, 38, 81
4, 33000, Note_on_c, 9, 40, 0
4, 33000, Note_on_c, 9, 40, 37
4, 33005, Note_on_c, 9, 38, 103
4, 33008, Note_on_c, 9, 44, 115
4, 33025, Note_on_c, 9, 38, 0
4, 33064, Note_on_c, 9, 38, 0
4, 33079, Note_on_c, 9, 38, 55
4, 33109, Note_on_c, 9, 44, 0
4, 33120, Note_on_c, 9, 40, 0
4, 33120, Note_on_c, 9, 40, 46
4, 33125, Note_on_c, 9, 38, 0
4, 33125, Note_on_c, 9, 38, 63
4, 33240, Note_on_c, 9, 40, 0
4, 33240, Note_on_c, 9, 40, 50
4, 33245, Note_on_c, 9, 38, 117
4, 33248, Note_on_c, 9, 44, 114
4, 33250, Note_on_c, 9, 38, 0
4, 33309, Note_on_c, 9, 38, 0
4, 33319, Note_on_c, 9, 38, 50
4, 33341, Note_on_c, 9, 38, 0
4, 33353, Note_on_c, 9, 44, 0
4, 33360, Note_on_c, 9, 40, 0
4, 33360, Note_on_c, 9, 40, 41
4, 33365, Note_on_c, 9, 38, 62
4, 33480, Note_on_c, 9, 40, 0
4, 33480, Note_on_c, 9, 40, 37
4, 33485, Note_on_c, 9, 38, 105
4, 33488, Note_on_c, 9, 44, 110
4, 33501, Note_on_c, 9, 38, 0
4, 33553, Note_on_c, 9, 38, 0
4, 33559, Note_on_c, 9, 38, 36
4, 33590, Note_on_c, 9, 44, 0
4, 33600, Note_on_c, 9, 40, 0
4, 33600, Note_on_c, 9, 40, 46
4, 33605, Note_on_c, 9, 38, 0
4, 33605, Note_on_c, 9, 38, 69
4, 33720, Note_on_c, 9, 40, 0
4, 33720, Note_on_c, 9, 40, 50
4, 33725, Note_on_c, 9, 38, 93
4, 33728, Note_on_c, 9, 38, 0
4, 33728, Note_on_c, 9, 44, 110
4, 33782, Note_on_c, 9, 38, 0
4, 33799, Note_on_c, 9, 38, 63
4, 33819, Note_on_c, 9, 38, 0
4, 33833, Note_on_c, 9, 44, 0
4, 33840, Note_on_c, 9, 40, 0
4, 33840, Note_on_c, 9, 40, 41
4, 33845, Note_on_c, 9, 38, 64
4, 33960, Note_on_c, 9, 40, 0
4, 33960, Note_on_c, 9, 40, 37
4, 33965, Note_on_c, 9, 38, 107
4, 33968, Note_on_c, 9, 44, 110
4, 33977, Note_on_c, 9, 38, 0
4, 34028, Note_on_c, 9, 38, 0
4, 34039, Note_on_c, 9, 38, 54
4, 34059, Note_on_c, 9, 38, 0
4, 34071, Note_on_c, 9, 44, 0
4, 34080, Note_on_c, 9, 40, 0
4, 34080, Note_on_c, 9, 40, 46
4, 34085, Note_on_c, 9, 38, 71
4, 34200, Note_on_c, 9, 40, 0
4, 34200, Note_on_c, 9, 40, 50
4, 34205, Note_on_c, 9, 38, 109
4, 34208, Note_on_c, 9, 44, 107
4, 34212, Note_on_c, 9, 38, 0
4, 34268, Note_on_c, 9, 38, 0
4, 34279, Note_on_c, 9, 38, 52
4, 34305, Note_on_c, 9, 38, 0
4, 34310, Note_on_c, 9, 44, 0
4, 34320, Note_on_c, 9, 40, 0
4, 34320, Note_on_c, 9, 40, 41
4, 34325, Note_on_c, 9, 38, 66
4, 34438, Note_on_c, 9, 38, 0
4, 34440, Note_on_c, 9, 40, 0
4, 34440, Note_on_c, 9, 40, 37
4, 34445, Note_on_c, 9, 38, 101
4, 34448, Note_on_c, 9, 44, 110
4, 34504, Note_on_c, 9, 38, 0
4, 34519, Note_on_c, 9, 39, 82
4, 34541, Note_on_c, 9, 39, 0
4, 34554, Note_on_c, 9, 44, 0
4, 34560, Note_on_c, 9, 40, 0
4, 34560, Note_on_c, 9, 40, 46
4, 34565, Note_on_c, 9, 38, 70
4, 34680, Note_on_c, 9, 40, 0
4, 34680, Note_on_c, 9, 40, 50
4, 34685, Note_on_c, 9, 38, 103
4, 34688, Note_on_c, 9, 44, 106
4, 34708, Note_on_c, 9, 38, 0
4, 34795, Note_on_c, 9, 44, 0
4, 34800, Note_on_c, 9, 40, 0
4, 34800, Note_on_c, 9, 40, 41
4, 34805, Note_on_c, 9, 38, 69
4, 34806, Note_on_c, 9, 38, 0
4, 34868, Note_on_c, 9, 38, 0
4, 34880, Note_on_c, 9, 39, 120
4, 34920, Note_on_c, 9, 40, 0
4, 34925, Note_on_c, 9, 38, 63
4, 34928, Note_on_c, 9, 44, 104
4, 34935, Note_on_c, 9, 39, 0
4, 34986, Note_on_c, 9, 38, 0
4, 35000, Note_on_c, 9, 35, 100
4, 35027, Note_on_c, 9, 35, 0
4, 35035, Note_on_c, 9, 44, 0
4, 35040, Note_on_c, 9, 40, 46
4, 35085, Note_on_c, 9, 39, 60
4, 35124, Note_on_c, 9, 35, 70
4, 35138, Note_on_c, 9, 39, 0
4, 35151, Note_on_c, 9, 35, 0
4, 35160, Note_on_c, 9, 40, 0
4, 35160, Note_on_c, 9, 40, 50
4, 35168, Note_on_c, 9, 44, 102
4, 35273, Note_on_c, 9, 44, 0
4, 35280, Note_on_c, 9, 40, 0
4, 35280, Note_on_c, 9, 40, 41
4, 35285, Note_on_c, 9, 38, 66
4, 35389, Note_on_c, 9, 38, 0
4, 35400, Note_on_c, 9, 40, 0
4, 35400, Note_on_c, 9, 40, 37
4, 35405, Note_on_c, 9, 38, 119
4, 35408, Note_on_c, 9, 44, 89
4, 35519, Note_on_c, 9, 44, 0
4, 35520, Note_on_c, 9, 40, 0
4, 35520, Note_on_c, 9, 40, 46
4, 35525, Note_on_c, 9, 38, 0
4, 35525, Note_on_c, 9, 38, 66
4, 35634, Note_on_c, 9, 38, 0
4, 35640, Note_on_c, 9, 40, 0
4, 35640, Note_on_c, 9, 40, 50
4, 35645, Note_on_c, 9, 38, 115
4, 35648, Note_on_c, 9, 44, 100
4, 35704, Note_on_c, 9, 38, 0
4, 35719, Note_on_c, 9, 38, 59
4, 35738, Note_on_c, 9, 38, 0
4, 35755, Note_on_c, 9, 44, 0
4, 35760, Note_on_c, 9, 40, 0
4, 35760, Note_on_c, 9, 40, 41
4, 35765, Note_on_c, 9, 38, 73
4, 35880, Note_on_c, 9, 40, 0
4, 35880, Note_on_c, 9, 40, 37
4, 35885, Note_on_c, 9, 38, 117
4, 35888, Note_on_c, 9, 44, 89
4, 35892, Note_on_c, 9, 38, 0
4, 35931, Note_on_c, 9, 44, 0
4, 35939, Note_on_c, 9, 38, 0
4, 35945, Note_on_c, 9, 46, 65
4, 35959, Note_on_c, 9, 38, 64
4, 35985, Note_on_c, 9, 38, 0
4, 36000, Note_on_c, 9, 40, 0
4, 36000, Note_on_c, 9, 40, 46
4, 36005, Note_on_c, 9, 46, 0
4, 36005, Note_on_c, 9, 38, 50
4, 36120, Note_on_c, 9, 40, 0
4, 36120, Note_on_c, 9, 40, 50
4, 36125, Note_on_c, 9, 38, 111
4, 36128, Note_on_c, 9, 44, 106
4, 36135, Note_on_c, 9, 38, 0
4, 36195, Note_on_c, 9, 38, 0
4, 36199, Note_on_c, 9, 38, 52
4, 36218, Note_on_c, 9, 38, 0
4, 36236, Note_on_c, 9, 44, 0
4, 36240, Note_on_c, 9, 40, 0
4, 36240, Note_on_c, 9, 40, 41
4, 36245, Note_on_c, 9, 38, 55
4, 36360, Note_on_c, 9, 40, 0
4, 36360, Note_on_c, 9, 40, 37
4, 36363, Note_on_c, 9, 38, 0
4, 36365, Note_on_c, 9, 38, 113
4, 36368, Note_on_c, 9, 44, 107
4, 36435, Note_on_c, 9, 38, 0
4, 36439, Note_on_c, 9, 38, 44
4, 36459, Note_on_c, 9, 38, 0
4, 36478, Note_on_c, 9, 44, 0
4, 36480, Note_on_c, 9, 40, 0
4, 36480, Note_on_c, 9, 40, 46
4, 36485, Note_on_c, 9, 38, 66
4, 36589, Note_on_c, 9, 38, 0
4, 36600, Note_on_c, 9, 40, 0
4, 36600, Note_on_c, 9, 40, 50
4, 36605, Note_on_c, 9, 38, 109
4, 36608, Note_on_c, 9, 44, 111
4, 36689, Note_on_c, 9, 35, 74
4, 36706, Note_on_c, 9, 38, 0
4, 36714, Note_on_c, 9, 44, 0
4, 36716, Note_on_c, 9, 35, 0
4, 36720, Note_on_c, 9, 40, 0
4, 36720, Note_on_c, 9, 40, 41
4, 36725, Note_on_c, 9, 38, 62
4, 36728, Note_on_c, 9, 44, 91
4, 36766, Note_on_c, 9, 44, 0
4, 36779, Note_on_c, 9, 38, 0
4, 36785, Note_on_c, 9, 46, 90
4, 36799, Note_on_c, 9, 39, 117
4, 36834, Note_on_c, 9, 39, 0
4, 36840, Note_on_c, 9, 40, 0
4, 36840, Note_on_c, 9, 40, 37
4, 36845, Note_on_c, 9, 38, 57
4, 36875, Note_on_c, 9, 46, 0
4, 36920, Note_on_c, 9, 35, 110
4, 36920, Note_on_c, 9, 39, 110
4, 36927, Note_on_c, 9, 38, 0
4, 36947, Note_on_c, 9, 35, 0
4, 36960, Note_on_c, 9, 40, 0
4, 36960, Note_on_c, 9, 40, 46
4, 36965, Note_on_c, 9, 39, 0
4, 36965, Note_on_c, 9, 38, 80
4, 37080, Note_on_c, 9, 40, 0
4, 37080, Note_on_c, 9, 40, 50
4, 37085, Note_on_c, 9, 38, 113
4, 37088, Note_on_c, 9, 44, 127
4, 37095, Note_on_c, 9, 38, 0
4, 37155, Note_on_c, 9, 38, 0
4, 37159, Note_on_c, 9, 38, 50
4, 37181, Note_on_c, 9, 38, 0
4, 37187, Note_on_c, 9, 44, 0
4, 37200, Note_on_c, 9, 40, 0
4, 37200, Note_on_c, 9, 40, 41
4, 37205, Note_on_c, 9, 38, 52
4, 37319, Note_on_c, 9, 38, 0
4, 37320, Note_on_c, 9, 40, 0
4, 37320, Note_on_c, 9, 40, 37
4, 37325, Note_on_c, 9, 38, 117
4, 37328, Note_on_c, 9, 44, 107
4, 37395, Note_on_c, 9, 38, 0
4, 37399, Note_on_c, 9, 38, 41
4, 37414, Note_on_c, 9, 38, 0
4, 37436, Note_on_c, 9, 44, 0
4, 37440, Note_on_c, 9, 40, 0
4, 37440, Note_on_c, 9, 40, 46
4, 37445, Note_on_c, 9, 38, 67
4, 37553, Note_on_c, 9, 38, 0
4, 37560, Note_on_c, 9, 40, 0
4, 37560, Note_on_c, 9, 40, 50
4, 37565, Note_on_c, 9, 38, 115
4, 37568, Note_on_c, 9, 44, 98
4, 37626, Note_on_c, 9, 38, 0
4, 37639, Note_on_c, 9, 38, 50
4, 37664, Note_on_c, 9, 38, 0
4, 37676, Note_on_c, 9, 44, 0
4, 37680, Note_on_c, 9, 40, 0
4, 37680, Note_on_c, 9, 40, 41
4, 37685, Note_on_c, 9, 38, 71
4, 37785, Note_on_c, 9, 38, 0
4, 37800, Note_on_c, 9, 40, 0
4, 37800, Note_on_c, 9, 40, 37
4, 37805, Note_on_c, 9, 38, 121
4, 37808, Note_on_c, 9, 44, 102
4, 37851, Note_on_c, 9, 38, 65
4, 37886, Note_on_c, 9, 38, 0
4, 37920, Note_on_c, 9, 40, 0
4, 37920, Note_on_c, 9, 40, 46
4, 37921, Note_on_c, 9, 44, 0
4, 37921, Note_on_c, 9, 38, 0
4, 37925, Note_on_c, 9, 38, 82
4, 38029, Note_on_c, 9, 38, 0
4, 38040, Note_on_c, 9, 40, 0
4, 38040, Note_on_c, 9, 40, 50
4, 38045, Note_on_c, 9, 38, 115
4, 38048, Note_on_c, 9, 44, 107
4, 38100, Note_on_c, 9, 38, 0
4, 38119, Note_on_c, 9, 38, 60
4, 38147, Note_on_c, 9, 38, 0
4, 38158, Note_on_c, 9, 44, 0
4, 38160, Note_on_c, 9, 40, 0
4, 38160, Note_on_c, 9, 40, 41
4, 38165, Note_on_c, 9, 38, 63
4, 38280, Note_on_c, 9, 40, 0
4, 38280, Note_on_c, 9, 40, 37
4, 38285, Note_on_c, 9, 38, 115
4, 38288, Note_on_c, 9, 44, 89
4, 38292, Note_on_c, 9, 38, 0
4, 38385, Note_on_c, 9, 38, 0
4, 38394, Note_on_c, 9, 44, 0
4, 38400, Note_on_c, 9, 40, 0
4, 38400, Note_on_c, 9, 40, 46
4, 38425, Note_on_c, 9, 38, 30
4, 38440, Note_on_c, 9, 38, 0
4, 38445, Note_on_c, 9, 38, 66
4, 38460, Note_on_c, 9, 38, 0
4, 38465, Note_on_c, 9, 38, 82
4, 38480, Note_on_c, 9, 38, 0
4, 38485, Note_on_c, 9, 39, 120
4, 38500, Note_on_c, 9, 39, 0
4, 38505, Note_on_c, 9, 38, 70
4, 38520, Note_on_c, 9, 38, 0
4, 38520, Note_on_c, 9, 40, 0
4, 38525, Note_on_c, 9, 38, 72
4, 38540, Note_on_c, 9, 38, 0
4, 38545, Note_on_c, 9, 38, 66
4, 38565, Note_on_c, 9, 38, 51
4, 38605, Note_on_c, 9, 35, 74
4, 38620, Note_on_c, 9, 35, 0
4, 38624, Note_on_c, 9, 38, 0
4, 38625, Note_on_c, 9, 38, 34
4, 38640, Note_on_c, 9, 38, 0
4, 38644, Note_on_c, 9, 38, 0
4, 38645, Note_on_c, 9, 38, 95
4, 38660, Note_on_c, 9, 38, 0
4, 38665, Note_on_c, 9, 38, 32
4, 38680, Note_on_c, 9, 38, 0
4, 38685, Note_on_c, 9, 39, 110
4, 38700, Note_on_c, 9, 39, 0
4, 38705, Note_on_c, 9, 38, 36
4, 38720, Note_on_c, 9, 38, 0
4, 38725, Note_on_c, 9, 38, 74
4, 38740, Note_on_c, 9, 38, 0
4, 38745, Note_on_c, 9, 38, 23
4, 38760, Note_on_c, 9, 38, 0
4, 38765, Note_on_c, 9, 38, 22
4, 38780, Note_on_c, 9, 38, 0
4, 38805, Note_on_c, 9, 38, 62
4, 38840, Note_on_c, 9, 39, 127
4, 38855, Note_on_c, 9, 39, 0
4, 38880, Note_on_c, 9, 40, 46
4, 38884, Note_on_c, 9, 38, 0
4, 39000, Note_on_c, 9, 40, 0
4, 39000, Note_on_c, 9, 40, 50
4, 39005, Note_on_c, 9, 38, 119
4, 39008, Note_on_c, 9, 44, 127
4, 39065, Note_on_c, 9, 38, 0
4, 39079, Note_on_c, 9, 38, 56
4, 39103, Note_on_c, 9, 38, 0
4, 39108, Note_on_c, 9, 44, 0
4, 39120, Note_on_c, 9, 40, 0
4, 39120, Note_on_c, 9, 40, 41
4, 39125, Note_on_c, 9, 38, 99
4, 39167, Note_on_c, 9, 38, 0
4, 39240, Note_on_c, 9, 40, 0
4, 39240, Note_on_c, 9, 40, 37
4, 39245, Note_on_c, 9, 46, 110
4, 39245, Note_on_c, 9, 38, 117
4, 39304, Note_on_c, 9, 38, 0
4, 39319, Note_on_c, 9, 38, 52
4, 39336, Note_on_c, 9, 46, 0
4, 39350, Note_on_c, 9, 38, 0
4, 39360, Note_on_c, 9, 40, 0
4, 39360, Note_on_c, 9, 40, 46
4, 39365, Note_on_c, 9, 38, 78
4, 39471, Note_on_c, 9, 38, 0
4, 39480, Note_on_c, 9, 40, 0
4, 39480, Note_on_c, 9, 40, 50
4, 39485, Note_on_c, 9, 38, 121
4, 39488, Note_on_c, 9, 44, 114
4, 39541, Note_on_c, 9, 38, 0
4, 39559, Note_on_c, 9, 38, 55
4, 39578, Note_on_c, 9, 38, 0
4, 39591, Note_on_c, 9, 44, 0
4, 39600, Note_on_c, 9, 40, 0
4, 39600, Note_on_c, 9, 40, 41
4, 39605, Note_on_c, 9, 38, 65
4, 39666, Note_on_c, 9, 38, 0
4, 39679, Note_on_c, 9, 39, 97
4, 39679, Note_on_c, 9, 38, 68
4, 39694, Note_on_c, 9, 38, 0
4, 39701, Note_on_c, 9, 39, 0
4, 39720, Note_on_c, 9, 40, 0
4, 39720, Note_on_c, 9, 40, 37
4, 39728, Note_on_c, 9, 44, 115
4, 39799, Note_on_c, 9, 38, 61
4, 39827, Note_on_c, 9, 38, 0
4, 39835, Note_on_c, 9, 44, 0
4, 39840, Note_on_c, 9, 40, 0
4, 39840, Note_on_c, 9, 40, 46
4, 39845, Note_on_c, 9, 38, 73
4, 39942, Note_on_c, 9, 38, 0
4, 39960, Note_on_c, 9, 40, 0
4, 39960, Note_on_c, 9, 40, 50
4, 39965, Note_on_c, 9, 38, 119
4, 39968, Note_on_c, 9, 44, 111
4, 40015, Note_on_c, 9, 38, 0
4, 40039, Note_on_c, 9, 38, 67
4, 40054, Note_on_c, 9, 44, 0
4, 40065, Note_on_c, 9, 38, 0
4, 40080, Note_on_c, 9, 40, 0
4, 40080, Note_on_c, 9, 40, 41
4, 40085, Note_on_c, 9, 38, 62
4, 40121, Note_on_c, 9, 38, 0
4, 40159, Note_on_c, 9, 38, 76
4, 40200, Note_on_c, 9, 38, 0
4, 40200, Note_on_c, 9, 40, 0
4, 40200, Note_on_c, 9, 40, 37
4, 40208, Note_on_c, 9, 44, 126
4, 40311, Note_on_c, 9, 44, 0
4, 40320, Note_on_c, 9, 40, 0
4, 40320, Note_on_c, 9, 40, 46
4, 40325, Note_on_c, 9, 38, 80
4, 40429, Note_on_c, 9, 38, 0
4, 40440, Note_on_c, 9, 40, 0
4, 40440, Note_on_c, 9, 40, 50
4, 40445, Note_on_c, 9, 38, 121
4, 40448, Note_on_c, 9, 44, 114
4, 40553, Note_on_c, 9, 44, 0
4, 40560, Note_on_c, 9, 40, 0
4, 40560, Note_on_c, 9, 40, 41
4, 40565, Note_on_c, 9, 38, 43
4, 40574, Note_on_c, 9, 38, 0
4, 40680, Note_on_c, 9, 40, 0
4, 40680, Note_on_c, 9, 40, 37
4, 40685, Note_on_c, 9, 38, 121
4, 40688, Note_on_c, 9, 44, 111
4, 40714, Note_on_c, 9, 38, 0
4, 40787, Note_on_c, 9, 38, 0
4, 40790, Note_on_c, 9, 44, 0
4, 40800, Note_on_c, 9, 40, 0
4, 40800, Note_on_c, 9, 40, 46
4, 40805, Note_on_c, 9, 35, 110
4, 40805, Note_on_c, 9, 38, 41
4, 40920, Note_on_c, 9, 40, 0
4, 40920, Note_on_c, 9, 40, 50
4, 40925, Note_on_c, 9, 38, 111
4, 40928, Note_on_c, 9, 44, 119
4, 40934, Note_on_c, 9, 35, 0
4, 40945, Note_on_c, 9, 38, 0
4, 40972, Note_on_c, 9, 38, 0
4, 40999, Note_on_c, 9, 38, 95
4, 41019, Note_on_c, 9, 38, 0
4, 41034, Note_on_c, 9, 44, 0
4, 41040, Note_on_c, 9, 40, 0
4, 41040, Note_on_c, 9, 40, 41
4, 41045, Note_on_c, 9, 38, 81
4, 41144, Note_on_c, 9, 38, 0
4, 41160, Note_on_c, 9, 40, 0
4, 41160, Note_on_c, 9, 40, 37
4, 41165, Note_on_c, 9, 38, 105
4, 41168, Note_on_c, 9, 44, 123
4, 41206, Note_on_c, 9, 38, 0
4, 41239, Note_on_c, 9, 38, 69
4, 41258, Note_on_c, 9, 38, 0
4, 41271, Note_on_c, 9, 44, 0
4, 41280, Note_on_c, 9, 40, 0
4, 41280, Note_on_c, 9, 40, 46
4, 41285, Note_on_c, 9, 38, 69
4, 41378, Note_on_c, 9, 38, 0
4, 41400, Note_on_c, 9, 40, 0
4, 41400, Note_on_c, 9, 40, 50
4, 41405, Note_on_c, 9, 38, 101
4, 41408, Note_on_c, 9, 44, 111
4, 41452, Note_on_c, 9, 38, 0
4, 41479, Note_on_c, 9, 38, 105
4, 41505, Note_on_c, 9, 38, 0
4, 41507, Note_on_c, 9, 44, 0
4, 41520, Note_on_c, 9, 40, 0
4, 41520, Note_on_c, 9, 40, 41
4, 41525, Note_on_c, 9, 38, 87
4, 41622, Note_on_c, 9, 38, 0
4, 41640, Note_on_c, 9, 40, 0
4, 41640, Note_on_c, 9, 40, 37
4, 41645, Note_on_c, 9, 38, 97
4, 41648, Note_on_c, 9, 44, 114
4, 41690, Note_on_c, 9, 38, 0
4, 41719, Note_on_c, 9, 38, 105
4, 41745, Note_on_c, 9, 44, 0
4, 41747, Note_on_c, 9, 38, 0
4, 41760, Note_on_c, 9, 40, 0
4, 41760, Note_on_c, 9, 40, 46
4, 41765, Note_on_c, 9, 38, 61
4, 41879, Note_on_c, 9, 38, 0
4, 41880, Note_on_c, 9, 40, 0
4, 41880, Note_on_c, 9, 40, 50
4, 41885, Note_on_c, 9, 38, 121
4, 41888, Note_on_c, 9, 44, 120
4, 41989, Note_on_c, 9, 44, 0
4, 42000, Note_on_c, 9, 40, 0
4, 42000, Note_on_c, 9, 40, 41
4, 42005, Note_on_c, 9, 38, 71
4, 42019, Note_on_c, 9, 38, 0
4, 42055, Note_on_c, 9, 38, 0
4, 42079, Note_on_c, 9, 38, 105
4, 42105, Note_on_c, 9, 38, 0
4, 42120, Note_on_c, 9, 40, 0
4, 42120, Note_on_c, 9, 40, 37
4, 42128, Note_on_c, 9, 44, 127
4, 42225, Note_on_c, 9, 44, 0
4, 42240, Note_on_c, 9, 40, 0
4, 42240, Note_on_c, 9, 40, 46
4, 42245, Note_on_c, 9, 38, 73
4, 42294, Note_on_c, 9, 38, 0
4, 42319, Note_on_c, 9, 39, 117
4, 42345, Note_on_c, 9, 39, 0
4, 42360, Note_on_c, 9, 40, 0
4, 42360, Note_on_c, 9, 40, 50
4, 42365, Note_on_c, 9, 38, 50
4, 42368, Note_on_c, 9, 44, 96
4, 42480, Note_on_c, 9, 40, 0
4, 42480, Note_on_c, 9, 40, 41
4, 42485, Note_on_c, 9, 38, 85
4, 42494, Note_on_c, 9, 38, 0
4, 42514, Note_on_c, 9, 44, 0
4, 42524, Note_on_c, 9, 38, 0
4, 42559, Note_on_c, 9, 39, 115
4, 42585, Note_on_c, 9, 39, 0
4, 42600, Note_on_c, 9, 40, 0
4, 42600, Note_on_c, 9, 40, 37
4, 42605, Note_on_c, 9, 46, 85
4, 42679, Note_on_c, 9, 38, 92
4, 42696, Note_on_c, 9, 46, 0
4, 42699, Note_on_c, 9, 38, 0
4, 42720, Note_on_c, 9, 40, 0
4, 42720, Note_on_c, 9, 40, 46
4, 42725, Note_on_c, 9, 35, 110
4, 42725, Note_on_c, 9, 53, 80
4, 42728, Note_on_c, 9, 44, 76
4, 42814, Note_on_c, 9, 53, 0
4, 42840, Note_on_c, 9, 40, 0
4, 42840, Note_on_c, 9, 40, 50
4, 42845, Note_on_c, 9, 38, 107
4, 42848, Note_on_c, 9, 44, 127
4, 42854, Note_on_c, 9, 35, 0
4, 42869, Note_on_c, 9, 44, 0
4, 42944, Note_on_c, 9, 44, 0
4, 42960, Note_on_c, 9, 40, 0
4, 42960, Note_on_c, 9, 40, 41
4, 42965, Note_on_c, 9, 38, 67
4, 42985, Note_on_c, 9, 38, 0
4, 43075, Note_on_c, 9, 38, 0
4, 43080, Note_on_c, 9, 40, 0
4, 43080, Note_on_c, 9, 40, 37
4, 43085, Note_on_c, 9, 38, 113
4, 43088, Note_on_c, 9, 44, 127
4, 43142, Note_on_c, 9, 38, 0
4, 43159, Note_on_c, 9, 38, 86
4, 43184, Note_on_c, 9, 38, 0
4, 43193, Note_on_c, 9, 44, 0
4, 43200, Note_on_c, 9, 40, 0
4, 43200, Note_on_c, 9, 40, 46
4, 43205, Note_on_c, 9, 38, 83
4, 43320, Note_on_c, 9, 40, 0
4, 43320, Note_on_c, 9, 40, 50
4, 43325, Note_on_c, 9, 38, 113
4, 43328, Note_on_c, 9, 44, 102
4, 43330, Note_on_c, 9, 38, 0
4, 43435, Note_on_c, 9, 44, 0
4, 43440, Note_on_c, 9, 40, 0
4, 43440, Note_on_c, 9, 40, 41
4, 43445, Note_on_c, 9, 38, 63
4, 43476, Note_on_c, 9, 38, 0
4, 43520, Note_on_c, 9, 39, 110
4, 43547, Note_on_c, 9, 39, 0
4, 43547, Note_on_c, 9, 38, 0
4, 43560, Note_on_c, 9, 40, 0
4, 43560, Note_on_c, 9, 40, 37
4, 43565, Note_on_c, 9, 38, 113
4, 43568, Note_on_c, 9, 44, 126
4, 43620, Note_on_c, 9, 38, 0
4, 43639, Note_on_c, 9, 38, 77
4, 43661, Note_on_c, 9, 38, 0
4, 43671, Note_on_c, 9, 44, 0
4, 43680, Note_on_c, 9, 40, 0
4, 43680, Note_on_c, 9, 40, 46
4, 43685, Note_on_c, 9, 38, 69
4, 43776, Note_on_c, 9, 38, 0
4, 43800, Note_on_c, 9, 40, 0
4, 43800, Note_on_c, 9, 40, 50
4, 43805, Note_on_c, 9, 38, 111
4, 43808, Note_on_c, 9, 44, 113
4, 43909, Note_on_c, 9, 38, 0
4, 43913, Note_on_c, 9, 44, 0
4, 43920, Note_on_c, 9, 40, 0
4, 43920, Note_on_c, 9, 40, 41
4, 43925, Note_on_c, 9, 38, 71
4, 44027, Note_on_c, 9, 38, 0
4, 44040, Note_on_c, 9, 40, 0
4, 44040, Note_on_c, 9, 40, 37
4, 44045, Note_on_c, 9, 38, 95
4, 44048, Note_on_c, 9, 44, 113
4, 44104, Note_on_c, 9, 38, 0
4, 44119, Note_on_c, 9, 38, 107
4, 44141, Note_on_c, 9, 38, 0
4, 44153, Note_on_c, 9, 44, 0
4, 44160, Note_on_c, 9, 40, 0
4, 44160, Note_on_c, 9, 40, 46
4, 44165, Note_on_c, 9, 38, 93
4, 44268, Note_on_c, 9, 38, 0
4, 44280, Note_on_c, 9, 40, 0
4, 44280, Note_on_c, 9, 40, 50
4, 44285, Note_on_c, 9, 38, 99
4, 44288, Note_on_c, 9, 44, 118
4, 44329, Note_on_c, 9, 38, 0
4, 44359, Note_on_c, 9, 38, 89
4, 44378, Note_on_c, 9, 38, 0
4, 44390, Note_on_c, 9, 44, 0
4, 44400, Note_on_c, 9, 40, 0
4, 44400, Note_on_c, 9, 40, 41
4, 44405, Note_on_c, 9, 38, 73
4, 44520, Note_on_c, 9, 40, 0
4, 44520, Note_on_c, 9, 40, 37
4, 44525, Note_on_c, 9, 38, 97
4, 44526, Note_on_c, 9, 38, 0
4, 44528, Note_on_c, 9, 44, 119
4, 44566, Note_on_c, 9, 44, 0
4, 44576, Note_on_c, 9, 38, 0
4, 44599, Note_on_c, 9, 39, 120
4, 44623, Note_on_c, 9, 39, 0
4, 44640, Note_on_c, 9, 40, 0
4, 44640, Note_on_c, 9, 40, 46
4, 44645, Note_on_c, 9, 38, 45
4, 44736, Note_on_c, 9, 38, 0
4, 44760, Note_on_c, 9, 40, 0
4, 44760, Note_on_c, 9, 40, 50
4, 44765, Note_on_c, 9, 38, 107
4, 44768, Note_on_c, 9, 44, 123
4, 44860, Note_on_c, 9, 44, 0
4, 44871, Note_on_c, 9, 38, 0
4, 44880, Note_on_c, 9, 40, 0
4, 44880, Note_on_c, 9, 40, 41
4, 44885, Note_on_c, 9, 38, 64
4, 45000, Note_on_c, 9, 40, 0
4, 45000, Note_on_c, 9, 40, 37
4, 45005, Note_on_c, 9, 38, 111
4, 45008, Note_on_c, 9, 38, 0
4, 45008, Note_on_c, 9, 44, 118
4, 45060, Note_on_c, 9, 38, 0
4, 45079, Note_on_c, 9, 38, 68
4, 45104, Note_on_c, 9, 38, 0
4, 45105, Note_on_c, 9, 44, 0
4, 45120, Note_on_c, 9, 40, 0
4, 45120, Note_on_c, 9, 40, 46
4, 45125, Note_on_c, 9, 38, 71
4, 45234, Note_on_c, 9, 38, 0
4, 45240, Note_on_c, 9, 40, 0
4, 45240, Note_on_c, 9, 40, 50
4, 45245, Note_on_c, 9, 38, 117
4, 45248, Note_on_c, 9, 44, 115
4, 45351, Note_on_c, 9, 44, 0
4, 45360, Note_on_c, 9, 40, 0
4, 45360, Note_on_c, 9, 40, 41
4, 45365, Note_on_c, 9, 38, 63
4, 45369, Note_on_c, 9, 38, 0
4, 45480, Note_on_c, 9, 40, 0
4, 45480, Note_on_c, 9, 40, 37
4, 45485, Note_on_c, 9, 38, 107
4, 45486, Note_on_c, 9, 38, 0
4, 45488, Note_on_c, 9, 44, 127
4, 45540, Note_on_c, 9, 38, 0
4, 45559, Note_on_c, 9, 38, 87
4, 45581, Note_on_c, 9, 38, 0
4, 45589, Note_on_c, 9, 44, 0
4, 45600, Note_on_c, 9, 40, 0
4, 45600, Note_on_c, 9, 40, 46
4, 45605, Note_on_c, 9, 38, 75
4, 45680, Note_on_c, 9, 39, 110
4, 45700, Note_on_c, 9, 38, 0
4, 45707, Note_on_c, 9, 39, 0
4, 45720, Note_on_c, 9, 40, 0
4, 45720, Note_on_c, 9, 40, 50
4, 45725, Note_on_c, 9, 38, 111
4, 45728, Note_on_c, 9, 44, 123
4, 45827, Note_on_c, 9, 44, 0
4, 45828, Note_on_c, 9, 38, 0
4, 45840, Note_on_c, 9, 40, 0
4, 45840, Note_on_c, 9, 40, 41
4, 45845, Note_on_c, 9, 35, 110
4, 45936, Note_on_c, 9, 35, 0
4, 45960, Note_on_c, 9, 40, 0
4, 45960, Note_on_c, 9, 40, 37
4, 45965, Note_on_c, 9, 38, 119
4, 45968, Note_on_c, 9, 44, 115
4, 46021, Note_on_c, 9, 38, 0
4, 46039, Note_on_c, 9, 38, 68
4, 46040, Note_on_c, 9, 35, 90
4, 46052, Note_on_c, 9, 38, 0
4, 46065, Note_on_c, 9, 44, 0
4, 46067, Note_on_c, 9, 35, 0
4, 46080, Note_on_c, 9, 40, 0
4, 46080, Note_on_c, 9, 40, 46
4, 46200, Note_on_c, 9, 40, 0
4, 46200, Note_on_c, 9, 40, 50
4, 46208, Note_on_c, 9, 44, 127
4, 46280, Note_on_c, 9, 39, 110
4, 46307, Note_on_c, 9, 39, 0
4, 46308, Note_on_c, 9, 44, 0
4, 46320, Note_on_c, 9, 40, 0
4, 46320, Note_on_c, 9, 40, 41
4, 46400, Note_on_c, 9, 39, 110
4, 46427, Note_on_c, 9, 39, 0
4, 46440, Note_on_c, 9, 40, 0
4, 46440, Note_on_c, 9, 40, 37
4, 46448, Note_on_c, 9, 44, 123
4, 46480, Note_on_c, 9, 44, 0
4, 46560, Note_on_c, 9, 40, 0
4, 46560, Note_on_c, 9, 40, 54
4, 46568, Note_on_c, 9, 38, 54
4, 46568, Note_on_c, 9, 42, 10
4, 46595, Note_on_c, 9, 42, 0
4, 46595, Note_on_c, 9, 38, 0
4, 46680, Note_on_c, 9, 40, 0
4, 46680, Note_on_c, 9, 40, 50
4, 46688, Note_on_c, 9, 38, 103
4, 46691, Note_on_c, 9, 44, 126
4, 46735, Note_on_c, 9, 44, 0
4, 46753, Note_on_c, 9, 38, 0
4, 46762, Note_on_c, 9, 38, 49
4, 46787, Note_on_c, 9, 38, 0
4, 46800, Note_on_c, 9, 40, 0
4, 46800, Note_on_c, 9, 40, 41
4, 46808, Note_on_c, 9, 38, 67
4, 46868, Note_on_c, 9, 38, 0
4, 46920, Note_on_c, 9, 40, 0
4, 46920, Note_on_c, 9, 40, 37
4, 46928, Note_on_c, 9, 38, 107
4, 46931, Note_on_c, 9, 44, 105
4, 46978, Note_on_c, 9, 44, 0
4, 46997, Note_on_c, 9, 38, 0
4, 47002, Note_on_c, 9, 38, 49
4, 47015, Note_on_c, 9, 38, 0
4, 47040, Note_on_c, 9, 40, 0
4, 47040, Note_on_c, 9, 40, 46
4, 47048, Note_on_c, 9, 38, 72
4, 47105, Note_on_c, 9, 38, 0
4, 47160, Note_on_c, 9, 40, 0
4, 47160, Note_on_c, 9, 40, 50
4, 47168, Note_on_c, 9, 38, 105
4, 47171, Note_on_c, 9, 44, 107
4, 47214, Note_on_c, 9, 44, 0
4, 47234, Note_on_c, 9, 38, 0
4, 47242, Note_on_c, 9, 38, 45
4, 47258, Note_on_c, 9, 38, 0
4, 47280, Note_on_c, 9, 40, 0
4, 47280, Note_on_c, 9, 40, 41
4, 47288, Note_on_c, 9, 38, 72
4, 47343, Note_on_c, 9, 38, 0
4, 47363, Note_on_c, 9, 39, 110
4, 47390, Note_on_c, 9, 39, 0
4, 47400, Note_on_c, 9, 40, 0
4, 47400, Note_on_c, 9, 40, 37
4, 47408, Note_on_c, 9, 38, 109
4, 47411, Note_on_c, 9, 44, 114
4, 47462, Note_on_c, 9, 38, 0
4, 47463, Note_on_c, 9, 44, 0
4, 47482, Note_on_c, 9, 38, 63
4, 47506, Note_on_c, 9, 38, 0
4, 47520, Note_on_c, 9, 40, 0
4, 47520, Note_on_c, 9, 40, 46
4, 47528, Note_on_c, 9, 38, 71
4, 47567, Note_on_c, 9, 38, 0
4, 47640, Note_on_c, 9, 40, 0
4, 47640, Note_on_c, 9, 40, 50
4, 47648, Note_on_c, 9, 38, 113
4, 47651, Note_on_c, 9, 44, 113
4, 47699, Note_on_c, 9, 44, 0
4, 47750, Note_on_c, 9, 38, 0
4, 47760, Note_on_c, 9, 40, 0
4, 47760, Note_on_c, 9, 40, 41
4, 47768, Note_on_c, 9, 38, 57
4, 47804, Note_on_c, 9, 38, 0
4, 47880, Note_on_c, 9, 40, 0
4, 47880, Note_on_c, 9, 40, 37
4, 47888, Note_on_c, 9, 38, 109
4, 47891, Note_on_c, 9, 44, 110
4, 47935, Note_on_c, 9, 44, 0
4, 47960, Note_on_c, 9, 38, 0
4, 47962, Note_on_c, 9, 38, 56
4, 47977, Note_on_c, 9, 38, 0
4, 48000, Note_on_c, 9, 40, 0
4, 48000, Note_on_c, 9, 40, 46
4, 48008, Note_on_c, 9, 38, 55
4, 48118, Note_on_c, 9, 38, 0
4, 48120, Note_on_c, 9, 40, 0
4, 48120, Note_on_c, 9, 40, 50
4, 48128, Note_on_c, 9, 38, 97
4, 48131, Note_on_c, 9, 44, 115
4, 48184, Note_on_c, 9, 38, 0
4, 48202, Note_on_c, 9, 39, 113
4, 48232, Note_on_c, 9, 39, 0
4, 48238, Note_on_c, 9, 44, 0
4, 48240, Note_on_c, 9, 40, 0
4, 48240, Note_on_c, 9, 40, 41
4, 48248, Note_on_c, 9, 38, 81
4, 48360, Note_on_c, 9, 40, 0
4, 48360, Note_on_c, 9, 40, 37
4, 48368, Note_on_c, 9, 38, 103
4, 48371, Note_on_c, 9, 44, 115
4, 48388, Note_on_c, 9, 38, 0
4, 48427, Note_on_c, 9, 38, 0
4, 48442, Note_on_c, 9, 38, 55
4, 48472, Note_on_c, 9, 44, 0
4, 48480, Note_on_c, 9, 40, 0
4, 48480, Note_on_c, 9, 40, 46
4, 48488, Note_on_c, 9, 38, 0
4, 48488, Note_on_c, 9, 38, 63
4, 48600, Note_on_c, 9, 40, 0
4, 48600, Note_on_c, 9, 40, 50
4, 48608, Note_on_c, 9, 38, 117
4, 48611, Note_on_c, 9, 44, 114
4, 48613, Note_on_c, 9, 38, 0
4, 48672, Note_on_c, 9, 38, 0
4, 48682, Note_on_c, 9, 38, 50
4, 48704, Note_on_c, 9, 38, 0
4, 48716, Note_on_c, 9, 44, 0
4, 48720, Note_on_c, 9, 40, 0
4, 48720, Note_on_c, 9, 40, 41
4, 48728, Note_on_c, 9, 38, 62
4, 48840, Note_on_c, 9, 40, 0
4, 48840, Note_on_c, 9, 40, 37
4, 48848, Note_on_c, 9, 38, 105
4, 48851, Note_on_c, 9, 44, 110
4, 48864, Note_on_c, 9, 38, 0
4, 48916, Note_on_c, 9, 38, 0
4, 48922, Note_on_c, 9, 38, 36
4, 48953, Note_on_c, 9, 44, 0
4, 48960, Note_on_c, 9, 40, 0
4, 48960, Note_on_c, 9, 40, 46
4, 48968, Note_on_c, 9, 38, 0
4, 48968, Note_on_c, 9, 38, 69
4, 49080, Note_on_c, 9, 40, 0
4, 49080, Note_on_c, 9, 40, 50
4, 49088, Note_on_c, 9, 38, 93
4, 49091, Note_on_c, 9, 38, 0
4, 49091, Note_on_c, 9, 44, 110
4, 49145, Note_on_c, 9, 38, 0
4, 49162, Note_on_c, 9, 38, 63
4, 49182, Note_on_c, 9, 38, 0
4, 49196, Note_on_c, 9, 44, 0
4, 49200, Note_on_c, 9, 40, 0
4, 49200, Note_on_c, 9, 40, 41
4, 49208, Note_on_c, 9, 38, 64
4, 49320, Note_on_c, 9, 40, 0
4, 49320, Note_on_c, 9, 40, 37
4, 49328, Note_on_c, 9, 38, 107
4, 49331, Note_on_c, 9, 44, 110
4, 49340, Note_on_c, 9, 38, 0
4, 49391, Note_on_c, 9, 38, 0
4, 49402, Note_on_c, 9, 38, 54
4, 49422, Note_on_c, 9, 38, 0
4, 49434, Note_on_c, 9, 44, 0
4, 49440, Note_on_c, 9, 40, 0
4, 49440, Note_on_c, 9, 40, 46
4, 49448, Note_on_c, 9, 38, 71
4, 49560, Note_on_c, 9, 40, 0
4, 49560, Note_on_c, 9, 40, 50
4, 49568, Note_on_c, 9, 38, 109
4, 49571, Note_on_c, 9, 44, 107
4, 49575, Note_on_c, 9, 38, 0
4, 49631, Note_on_c, 9, 38, 0
4, 49642, Note_on_c, 9, 38, 52
4, 49668, Note_on_c, 9, 38, 0
4, 49673, Note_on_c, 9, 44, 0
4, 49680, Note_on_c, 9, 40, 0
4, 49680, Note_on_c, 9, 40, 41
4, 49688, Note_on_c, 9, 38, 66
4, 49800, Note_on_c, 9, 40, 0
4, 49800, Note_on_c, 9, 40, 37
4, 49801, Note_on_c, 9, 38, 0
4, 49808, Note_on_c, 9, 38, 101
4, 49811, Note_on_c, 9, 44, 110
4, 49867, Note_on_c, 9, 38, 0
4, 49882, Note_on_c, 9, 39, 82
4, 49904, Note_on_c, 9, 39, 0
4, 49917, Note_on_c, 9, 44, 0
4, 49920, Note_on_c, 9, 40, 0
4, 49920, Note_on_c, 9, 40, 46
4, 49928, Note_on_c, 9, 38, 70
4, 50040, Note_on_c, 9, 40, 0
4, 50040, Note_on_c, 9, 40, 50
4, 50048, Note_on_c, 9, 38, 103
4, 50051, Note_on_c, 9, 44, 106
4, 50071, Note_on_c, 9, 38, 0
4, 50158, Note_on_c, 9, 44, 0
4, 50160, Note_on_c, 9, 40, 0
4, 50160, Note_on_c, 9, 40, 41
4, 50168, Note_on_c, 9, 38, 69
4, 50169, Note_on_c, 9, 38, 0
4, 50231, Note_on_c, 9, 38, 0
4, 50243, Note_on_c, 9, 39, 120
4, 50280, Note_on_c, 9, 40, 0
4, 50288, Note_on_c, 9, 38, 63
4, 50291, Note_on_c, 9, 44, 104
4, 50298, Note_on_c, 9, 39, 0
4, 50349, Note_on_c, 9, 38, 0
4, 50363, Note_on_c, 9, 35, 100
4, 50390, Note_on_c, 9, 35, 0
4, 50398, Note_on_c, 9, 44, 0
4, 50400, Note_on_c, 9, 40, 46
4, 50448, Note_on_c, 9, 39, 60
4, 50487, Note_on_c, 9, 35, 70
4, 50501, Note_on_c, 9, 39, 0
4, 50514, Note_on_c, 9, 35, 0
4, 50520, Note_on_c, 9, 40, 0
4, 50520, Note_on_c, 9, 40, 50
4, 50531, Note_on_c, 9, 44, 102
4, 50636, Note_on_c, 9, 44, 0
4, 50640, Note_on_c, 9, 40, 0
4, 50640, Note_on_c, 9, 40, 41
4, 50648, Note_on_c, 9, 38, 66
4, 50752, Note_on_c, 9, 38, 0
4, 50760, Note_on_c, 9, 40, 0
4, 50760, Note_on_c, 9, 40, 37
4, 50768, Note_on_c, 9, 38, 119
4, 50771, Note_on_c, 9, 44, 89
4, 50880, Note_on_c, 9, 40, 0
4, 50880, Note_on_c, 9, 40, 46
4, 50882, Note_on_c, 9, 44, 0
4, 50888, Note_on_c, 9, 38, 0
4, 50888, Note_on_c, 9, 38, 66
4, 50997, Note_on_c, 9, 38, 0
4, 51000, Note_on_c, 9, 40, 0
4, 51000, Note_on_c, 9, 40, 50
4, 51008, Note_on_c, 9, 38, 115
4, 51011, Note_on_c, 9, 44, 100
4, 51067, Note_on_c, 9, 38, 0
4, 51082, Note_on_c, 9, 38, 59
4, 51101, Note_on_c, 9, 38, 0
4, 51106, Note_on_c, 9, 35, 50
4, 51112, Note_on_c, 9, 49, 50
4, 51118, Note_on_c, 9, 44, 0
4, 51120, Note_on_c, 9, 40, 0
4, 51138, Note_on_c, 9, 35, 0
4, 51144, Note_on_c, 9, 49, 0
4, 51144, End_track
5, 0, Start_track
5, 0, Title_t, "I Should Care"
5, 0, End_track
6, 0, Start_track
6, 0, Title_t, "dougmck@pipeline.com.au"
6, 0, End_track
0, 0, End_of_file
