0, 0, Header, 1, 3, 384
1, 0, Start_track
1, 0, Key_signature, -1, "major"
1, 0, SMPTE_offset, 96, 0, 3, 0, 0
1, 0, Title_t, "untitled"
1, 0, System_exclusive, 5, 126, 127, 9, 1, 247
1, 0, System_exclusive, 8, 67, 115, 1, 17, 15, 89, 3, 247
1, 0, Tempo, 428571
1, 0, Time_signature, 4, 2, 24, 8
1, 0, End_track
2, 0, Start_track
2, 0, MIDI_port, 0
2, 0, Sequencer_specific, 7, 0, 0, 0, 106, 0, 4, 1
2, 0, Title_t, "PLayed by"
2, 0, Note_on_c, 0, 74, 101
2, 128, Note_on_c, 0, 74, 0
2, 156, Note_on_c, 0, 72, 84
2, 164, Note_on_c, 0, 74, 34
2, 196, Note_on_c, 0, 74, 0
2, 240, Note_on_c, 0, 72, 0
2, 364, Note_on_c, 0, 68, 75
2, 400, Note_on_c, 0, 68, 0
2, 408, Note_on_c, 0, 67, 72
2, 476, Note_on_c, 0, 65, 76
2, 484, Note_on_c, 0, 67, 0
2, 532, Note_on_c, 0, 65, 0
2, 696, Note_on_c, 0, 62, 67
2, 752, Note_on_c, 0, 62, 0
2, 872, Control_c, 0, 64, 127
2, 940, Control_c, 0, 64, 0
2, 956, Note_on_c, 0, 65, 71
2, 956, Note_on_c, 0, 61, 67
2, 968, Note_on_c, 0, 51, 37
2, 968, Note_on_c, 0, 57, 46
2, 980, Note_on_c, 0, 47, 42
2, 1280, Control_c, 0, 64, 127
2, 1600, Note_on_c, 0, 57, 0
2, 1616, Note_on_c, 0, 47, 0
2, 1664, Note_on_c, 0, 65, 0
2, 1736, Note_on_c, 0, 51, 0
2, 1744, Note_on_c, 0, 61, 0
2, 1912, Note_on_c, 0, 65, 62
2, 1924, Note_on_c, 0, 55, 49
2, 1928, Note_on_c, 0, 60, 58
2, 1928, Note_on_c, 0, 46, 42
2, 1940, Note_on_c, 0, 53, 43
2, 1948, Control_c, 0, 64, 0
2, 2012, Note_on_c, 0, 55, 0
2, 2068, Note_on_c, 0, 60, 0
2, 2068, Note_on_c, 0, 46, 0
2, 2072, Note_on_c, 0, 65, 0
2, 2072, Note_on_c, 0, 53, 0
2, 2368, Note_on_c, 0, 61, 83
2, 2376, Note_on_c, 0, 62, 94
2, 2380, Note_on_c, 0, 74, 110
2, 2416, Note_on_c, 0, 61, 0
2, 2504, Note_on_c, 0, 62, 0
2, 2528, Note_on_c, 0, 74, 0
2, 2568, Note_on_c, 0, 60, 69
2, 2572, Note_on_c, 0, 72, 84
2, 2648, Note_on_c, 0, 60, 0
2, 2660, Note_on_c, 0, 72, 0
2, 2752, Note_on_c, 0, 56, 58
2, 2764, Note_on_c, 0, 68, 67
2, 2812, Note_on_c, 0, 68, 0
2, 2824, Note_on_c, 0, 56, 0
2, 2832, Note_on_c, 0, 67, 63
2, 2892, Note_on_c, 0, 65, 73
2, 2900, Note_on_c, 0, 67, 0
2, 2980, Note_on_c, 0, 65, 0
2, 2988, Note_on_c, 0, 62, 66
2, 3056, Note_on_c, 0, 62, 0
2, 3192, Note_on_c, 0, 65, 82
2, 3284, Note_on_c, 0, 65, 0
2, 3328, Control_c, 0, 64, 127
2, 3412, Control_c, 0, 64, 0
2, 3424, Note_on_c, 0, 65, 84
2, 3424, Note_on_c, 0, 56, 87
2, 3428, Note_on_c, 0, 61, 80
2, 3896, Control_c, 0, 64, 127
2, 4052, Control_c, 0, 64, 0
2, 4060, Note_on_c, 0, 46, 47
2, 4084, Note_on_c, 0, 51, 48
2, 4084, Note_on_c, 0, 57, 50
2, 4088, Control_c, 0, 64, 127
2, 4244, Note_on_c, 0, 57, 0
2, 4320, Note_on_c, 0, 46, 0
2, 4324, Note_on_c, 0, 51, 0
2, 4344, Note_on_c, 0, 56, 0
2, 4368, Note_on_c, 0, 65, 0
2, 4376, Note_on_c, 0, 61, 0
2, 4472, Note_on_c, 0, 65, 68
2, 4476, Control_c, 0, 64, 0
2, 4488, Note_on_c, 0, 55, 43
2, 4492, Note_on_c, 0, 60, 55
2, 4496, Note_on_c, 0, 45, 56
2, 4496, Note_on_c, 0, 57, 51
2, 4524, Note_on_c, 0, 57, 0
2, 4528, Note_on_c, 0, 45, 0
2, 4532, Note_on_c, 0, 55, 0
2, 4540, Note_on_c, 0, 60, 0
2, 4580, Note_on_c, 0, 65, 0
2, 5096, Note_on_c, 0, 74, 113
2, 5280, Note_on_c, 0, 74, 0
2, 5300, Note_on_c, 0, 72, 72
2, 5388, Note_on_c, 0, 72, 0
2, 5668, Control_c, 0, 64, 127
2, 5692, Note_on_c, 0, 70, 60
2, 5700, Note_on_c, 0, 56, 34
2, 5700, Note_on_c, 0, 46, 44
2, 5824, Note_on_c, 0, 56, 0
2, 5864, Note_on_c, 0, 70, 0
2, 5868, Note_on_c, 0, 46, 0
2, 5892, Control_c, 0, 64, 0
2, 5932, Note_on_c, 0, 69, 60
2, 5936, Note_on_c, 0, 61, 35
2, 5944, Note_on_c, 0, 65, 52
2, 5948, Note_on_c, 0, 45, 44
2, 5964, Note_on_c, 0, 55, 26
2, 5976, Control_c, 0, 64, 127
2, 6092, Note_on_c, 0, 61, 0
2, 6092, Note_on_c, 0, 65, 0
2, 6116, Note_on_c, 0, 69, 0
2, 6180, Note_on_c, 0, 45, 0
2, 6200, Note_on_c, 0, 55, 0
2, 6352, Note_on_c, 0, 72, 83
2, 6444, Note_on_c, 0, 72, 0
2, 6596, Note_on_c, 0, 60, 66
2, 6596, Note_on_c, 0, 77, 85
2, 6596, Note_on_c, 0, 54, 56
2, 6600, Control_c, 0, 64, 0
2, 6600, Note_on_c, 0, 65, 81
2, 6604, Note_on_c, 0, 50, 54
2, 6624, Note_on_c, 0, 67, 37
2, 6656, Note_on_c, 0, 67, 0
2, 6752, Note_on_c, 0, 60, 0
2, 6752, Control_c, 0, 64, 127
2, 6776, Note_on_c, 0, 54, 0
2, 6784, Note_on_c, 0, 50, 0
2, 6792, Control_c, 0, 64, 0
2, 6800, Note_on_c, 0, 65, 0
2, 6808, Note_on_c, 0, 77, 0
2, 7000, Note_on_c, 0, 43, 60
2, 7008, Control_c, 0, 64, 127
2, 7076, Note_on_c, 0, 43, 0
2, 7316, Control_c, 0, 64, 0
2, 7324, Control_c, 0, 64, 127
2, 7468, Note_on_c, 0, 68, 32
2, 7492, Note_on_c, 0, 68, 0
2, 7580, Note_on_c, 0, 70, 80
2, 7588, Note_on_c, 0, 63, 76
2, 7596, Note_on_c, 0, 67, 66
2, 7604, Note_on_c, 0, 62, 76
2, 7612, Note_on_c, 0, 56, 57
2, 7616, Control_c, 0, 64, 0
2, 7748, Control_c, 0, 64, 127
2, 7776, Note_on_c, 0, 62, 0
2, 7812, Note_on_c, 0, 56, 0
2, 7824, Note_on_c, 0, 67, 0
2, 7872, Note_on_c, 0, 63, 0
2, 7876, Note_on_c, 0, 70, 0
2, 7996, Note_on_c, 0, 48, 62
2, 7996, Note_on_c, 0, 58, 57
2, 8008, Note_on_c, 0, 61, 46
2, 8012, Note_on_c, 0, 64, 44
2, 8020, Note_on_c, 0, 67, 52
2, 8024, Control_c, 0, 64, 0
2, 8140, Note_on_c, 0, 48, 0
2, 8140, Control_c, 0, 64, 127
2, 8180, Note_on_c, 0, 67, 0
2, 8224, Note_on_c, 0, 64, 0
2, 8248, Note_on_c, 0, 58, 0
2, 8288, Note_on_c, 0, 61, 0
2, 8420, Note_on_c, 0, 60, 64
2, 8420, Note_on_c, 0, 62, 52
2, 8424, Note_on_c, 0, 57, 57
2, 8428, Note_on_c, 0, 65, 60
2, 8576, Control_c, 0, 64, 0
2, 8828, Note_on_c, 0, 48, 90
2, 8836, Note_on_c, 0, 47, 82
2, 8956, Note_on_c, 0, 47, 0
2, 9060, Note_on_c, 0, 48, 0
2, 9248, Note_on_c, 0, 48, 96
2, 9252, Note_on_c, 0, 47, 83
2, 9296, Note_on_c, 0, 47, 0
2, 9564, Note_on_c, 0, 48, 0
2, 9668, Note_on_c, 0, 48, 95
2, 9676, Note_on_c, 0, 36, 95
2, 9788, Note_on_c, 0, 57, 0
2, 9840, Note_on_c, 0, 60, 0
2, 9864, Note_on_c, 0, 62, 0
2, 9868, Note_on_c, 0, 65, 0
2, 10140, Note_on_c, 0, 74, 105
2, 10240, Note_on_c, 0, 74, 0
2, 10304, Note_on_c, 0, 36, 0
2, 10312, Note_on_c, 0, 72, 78
2, 10368, Note_on_c, 0, 48, 0
2, 10396, Note_on_c, 0, 72, 0
2, 10496, Note_on_c, 0, 68, 57
2, 10536, Note_on_c, 0, 68, 0
2, 10552, Note_on_c, 0, 67, 44
2, 10584, Note_on_c, 0, 65, 82
2, 10588, Note_on_c, 0, 67, 0
2, 10688, Note_on_c, 0, 65, 0
2, 10688, Note_on_c, 0, 62, 61
2, 10768, Note_on_c, 0, 62, 0
2, 10900, Note_on_c, 0, 65, 82
2, 10948, Control_c, 0, 64, 127
2, 11000, Note_on_c, 0, 65, 0
2, 11124, Note_on_c, 0, 65, 82
2, 11124, Control_c, 0, 64, 0
2, 11128, Note_on_c, 0, 51, 67
2, 11132, Note_on_c, 0, 56, 72
2, 11132, Note_on_c, 0, 61, 74
2, 11136, Note_on_c, 0, 47, 67
2, 11136, Note_on_c, 0, 57, 66
2, 11404, Control_c, 0, 64, 127
2, 11428, Note_on_c, 0, 47, 0
2, 11460, Note_on_c, 0, 51, 0
2, 11496, Note_on_c, 0, 57, 0
2, 11540, Note_on_c, 0, 47, 72
2, 11544, Note_on_c, 0, 51, 52
2, 11716, Note_on_c, 0, 47, 0
2, 11732, Note_on_c, 0, 56, 0
2, 11732, Note_on_c, 0, 51, 0
2, 11788, Note_on_c, 0, 51, 44
2, 11792, Note_on_c, 0, 56, 49
2, 11796, Note_on_c, 0, 57, 50
2, 11812, Note_on_c, 0, 47, 22
2, 11856, Note_on_c, 0, 47, 0
2, 11892, Note_on_c, 0, 65, 0
2, 11892, Note_on_c, 0, 57, 0
2, 11936, Note_on_c, 0, 56, 0
2, 11968, Note_on_c, 0, 61, 0
2, 12044, Note_on_c, 0, 51, 0
2, 12136, Note_on_c, 0, 65, 73
2, 12144, Note_on_c, 0, 60, 73
2, 12148, Note_on_c, 0, 46, 52
2, 12148, Note_on_c, 0, 53, 63
2, 12152, Note_on_c, 0, 55, 69
2, 12156, Control_c, 0, 64, 0
2, 12252, Note_on_c, 0, 55, 0
2, 12300, Note_on_c, 0, 60, 0
2, 12304, Note_on_c, 0, 65, 0
2, 12416, Note_on_c, 0, 46, 0
2, 12456, Note_on_c, 0, 53, 0
2, 12572, Note_on_c, 0, 74, 96
2, 12592, Note_on_c, 0, 73, 48
2, 12620, Note_on_c, 0, 73, 0
2, 12676, Note_on_c, 0, 74, 0
2, 12752, Note_on_c, 0, 72, 73
2, 12836, Note_on_c, 0, 72, 0
2, 12968, Note_on_c, 0, 68, 73
2, 13032, Note_on_c, 0, 67, 62
2, 13044, Note_on_c, 0, 68, 0
2, 13108, Note_on_c, 0, 67, 0
2, 13112, Note_on_c, 0, 65, 55
2, 13152, Note_on_c, 0, 65, 0
2, 13376, Note_on_c, 0, 62, 57
2, 13400, Note_on_c, 0, 60, 25
2, 13424, Note_on_c, 0, 60, 0
2, 13428, Note_on_c, 0, 62, 0
2, 13476, Control_c, 0, 64, 127
2, 13604, Control_c, 0, 64, 0
2, 13608, Note_on_c, 0, 51, 61
2, 13608, Note_on_c, 0, 62, 65
2, 13608, Note_on_c, 0, 57, 67
2, 13608, Note_on_c, 0, 65, 74
2, 13612, Note_on_c, 0, 47, 66
2, 13812, Note_on_c, 0, 62, 0
2, 13820, Note_on_c, 0, 57, 0
2, 13828, Note_on_c, 0, 47, 0
2, 13836, Note_on_c, 0, 51, 0
2, 13848, Note_on_c, 0, 65, 0
2, 14020, Note_on_c, 0, 47, 71
2, 14132, Note_on_c, 0, 47, 0
2, 14260, Note_on_c, 0, 65, 72
2, 14264, Note_on_c, 0, 51, 53
2, 14264, Note_on_c, 0, 47, 57
2, 14268, Note_on_c, 0, 56, 62
2, 14276, Note_on_c, 0, 61, 54
2, 14376, Control_c, 0, 64, 127
2, 14472, Note_on_c, 0, 47, 0
2, 14520, Note_on_c, 0, 65, 0
2, 14540, Note_on_c, 0, 56, 0
2, 14588, Note_on_c, 0, 61, 0
2, 14632, Note_on_c, 0, 51, 0
2, 14668, Note_on_c, 0, 60, 74
2, 14668, Note_on_c, 0, 65, 71
2, 14672, Note_on_c, 0, 55, 78
2, 14692, Control_c, 0, 64, 0
2, 14700, Note_on_c, 0, 46, 38
2, 14732, Note_on_c, 0, 46, 0
2, 14900, Note_on_c, 0, 55, 0
2, 14936, Note_on_c, 0, 60, 0
2, 14944, Note_on_c, 0, 65, 0
2, 15132, Note_on_c, 0, 67, 84
2, 15308, Note_on_c, 0, 68, 76
2, 15348, Note_on_c, 0, 67, 0
2, 15460, Note_on_c, 0, 68, 0
2, 15512, Note_on_c, 0, 69, 62
2, 15600, Control_c, 0, 64, 127
2, 15604, Note_on_c, 0, 69, 0
2, 15712, Note_on_c, 0, 72, 49
2, 15768, Note_on_c, 0, 72, 0
2, 15908, Note_on_c, 0, 77, 54
2, 15960, Note_on_c, 0, 77, 0
2, 16084, Control_c, 0, 64, 0
2, 16104, Note_on_c, 0, 60, 45
2, 16104, Note_on_c, 0, 65, 58
2, 16108, Note_on_c, 0, 77, 75
2, 16116, Note_on_c, 0, 61, 29
2, 16116, Note_on_c, 0, 84, 77
2, 16120, Note_on_c, 0, 55, 55
2, 16264, Note_on_c, 0, 84, 0
2, 16300, Note_on_c, 0, 77, 0
2, 16312, Note_on_c, 0, 81, 50
2, 16340, Note_on_c, 0, 81, 0
2, 16524, Note_on_c, 0, 84, 77
2, 16524, Note_on_c, 0, 96, 81
2, 16528, Note_on_c, 0, 92, 54
2, 16532, Note_on_c, 0, 89, 57
2, 16580, Note_on_c, 0, 89, 0
2, 16588, Note_on_c, 0, 92, 0
2, 16596, Note_on_c, 0, 65, 0
2, 16620, Note_on_c, 0, 60, 0
2, 16620, Note_on_c, 0, 61, 0
2, 16624, Note_on_c, 0, 55, 0
2, 16636, Note_on_c, 0, 84, 0
2, 16664, Note_on_c, 0, 96, 0
2, 16728, Note_on_c, 0, 93, 62
2, 16756, Note_on_c, 0, 93, 0
2, 16952, Note_on_c, 0, 39, 50
2, 17012, Note_on_c, 0, 39, 0
2, 17040, Control_c, 0, 64, 127
2, 17376, Note_on_c, 0, 54, 54
2, 17376, Note_on_c, 0, 65, 60
2, 17380, Note_on_c, 0, 58, 47
2, 17384, Note_on_c, 0, 60, 53
2, 17384, Note_on_c, 0, 38, 43
2, 17392, Control_c, 0, 64, 0
2, 17428, Note_on_c, 0, 50, 34
2, 17492, Note_on_c, 0, 38, 0
2, 17540, Control_c, 0, 64, 127
2, 17544, Note_on_c, 0, 50, 0
2, 17764, Note_on_c, 0, 54, 0
2, 17844, Note_on_c, 0, 60, 0
2, 17868, Note_on_c, 0, 58, 0
2, 17888, Note_on_c, 0, 65, 0
2, 18036, Note_on_c, 0, 54, 36
2, 18044, Note_on_c, 0, 63, 44
2, 18044, Note_on_c, 0, 58, 40
2, 18048, Note_on_c, 0, 44, 37
2, 18064, Control_c, 0, 64, 0
2, 18068, Note_on_c, 0, 60, 33
2, 18208, Control_c, 0, 64, 127
2, 18408, Note_on_c, 0, 54, 0
2, 18440, Note_on_c, 0, 60, 0
2, 18512, Note_on_c, 0, 57, 32
2, 18520, Note_on_c, 0, 44, 0
2, 18548, Note_on_c, 0, 58, 0
2, 18692, Note_on_c, 0, 57, 0
2, 18700, Note_on_c, 0, 63, 0
2, 18712, Note_on_c, 0, 58, 55
2, 18720, Note_on_c, 0, 53, 37
2, 18720, Note_on_c, 0, 43, 42
2, 18748, Control_c, 0, 64, 0
2, 18776, Note_on_c, 0, 58, 0
2, 18792, Note_on_c, 0, 43, 0
2, 18844, Note_on_c, 0, 53, 0
2, 18856, Note_on_c, 0, 62, 60
2, 18936, Note_on_c, 0, 62, 0
2, 18996, Note_on_c, 0, 65, 72
2, 19096, Note_on_c, 0, 65, 0
2, 19132, Note_on_c, 0, 69, 87
2, 19144, Note_on_c, 0, 65, 31
2, 19172, Note_on_c, 0, 65, 0
2, 19216, Control_c, 0, 64, 127
2, 19240, Control_c, 0, 64, 0
2, 19256, Note_on_c, 0, 69, 0
2, 19280, Note_on_c, 0, 70, 77
2, 19292, Note_on_c, 0, 62, 54
2, 19292, Note_on_c, 0, 57, 48
2, 19300, Note_on_c, 0, 58, 37
2, 19412, Note_on_c, 0, 70, 0
2, 19444, Note_on_c, 0, 71, 61
2, 19504, Control_c, 0, 64, 127
2, 19536, Note_on_c, 0, 71, 0
2, 19588, Note_on_c, 0, 74, 79
2, 19648, Note_on_c, 0, 62, 0
2, 19668, Note_on_c, 0, 57, 0
2, 19692, Note_on_c, 0, 74, 0
2, 19724, Note_on_c, 0, 58, 0
2, 19752, Note_on_c, 0, 71, 36
2, 19824, Note_on_c, 0, 71, 0
2, 19856, Control_c, 0, 64, 0
2, 19892, Note_on_c, 0, 61, 32
2, 19900, Note_on_c, 0, 52, 33
2, 19904, Note_on_c, 0, 72, 56
2, 19924, Note_on_c, 0, 61, 0
2, 19948, Note_on_c, 0, 52, 0
2, 19980, Control_c, 0, 64, 127
2, 20096, Note_on_c, 0, 72, 0
2, 20348, Note_on_c, 0, 60, 50
2, 20352, Note_on_c, 0, 62, 53
2, 20404, Note_on_c, 0, 60, 0
2, 20404, Note_on_c, 0, 62, 0
2, 20552, Note_on_c, 0, 60, 69
2, 20560, Note_on_c, 0, 36, 53
2, 20568, Note_on_c, 0, 48, 39
2, 20580, Note_on_c, 0, 61, 57
2, 20588, Control_c, 0, 64, 0
2, 20608, Note_on_c, 0, 60, 0
2, 20636, Note_on_c, 0, 36, 0
2, 20636, Note_on_c, 0, 61, 0
2, 20644, Note_on_c, 0, 62, 56
2, 20696, Note_on_c, 0, 48, 0
2, 20744, Note_on_c, 0, 62, 0
2, 20792, Note_on_c, 0, 65, 60
2, 20928, Note_on_c, 0, 65, 0
2, 20944, Control_c, 0, 64, 127
2, 20996, Note_on_c, 0, 67, 64
2, 21076, Note_on_c, 0, 67, 0
2, 21212, Control_c, 0, 64, 0
2, 21220, Note_on_c, 0, 64, 49
2, 21220, Note_on_c, 0, 69, 59
2, 21228, Note_on_c, 0, 48, 42
2, 21228, Note_on_c, 0, 41, 41
2, 21356, Control_c, 0, 64, 127
2, 21388, Note_on_c, 0, 41, 0
2, 21428, Note_on_c, 0, 48, 0
2, 21596, Note_on_c, 0, 64, 0
2, 21604, Note_on_c, 0, 69, 0
2, 21660, Note_on_c, 0, 60, 51
2, 21756, Note_on_c, 0, 60, 0
2, 21900, Note_on_c, 0, 62, 53
2, 21904, Control_c, 0, 64, 0
2, 21908, Note_on_c, 0, 53, 35
2, 21916, Note_on_c, 0, 60, 44
2, 22004, Control_c, 0, 64, 127
2, 22008, Note_on_c, 0, 53, 0
2, 22084, Note_on_c, 0, 62, 0
2, 22104, Note_on_c, 0, 60, 0
2, 22332, Note_on_c, 0, 42, 56
2, 22512, Control_c, 0, 64, 0
2, 22552, Note_on_c, 0, 54, 57
2, 22556, Note_on_c, 0, 62, 51
2, 22568, Note_on_c, 0, 57, 45
2, 22568, Note_on_c, 0, 48, 45
2, 22600, Note_on_c, 0, 54, 0
2, 22600, Note_on_c, 0, 57, 0
2, 22608, Note_on_c, 0, 48, 0
2, 22612, Control_c, 0, 64, 127
2, 22620, Note_on_c, 0, 42, 0
2, 22632, Note_on_c, 0, 62, 0
2, 22776, Note_on_c, 0, 73, 76
2, 22780, Note_on_c, 0, 66, 76
2, 22788, Note_on_c, 0, 63, 78
2, 22796, Note_on_c, 0, 74, 85
2, 22800, Note_on_c, 0, 62, 89
2, 22804, Note_on_c, 0, 69, 57
2, 22808, Control_c, 0, 64, 0
2, 23008, Note_on_c, 0, 61, 62
2, 23012, Control_c, 0, 64, 127
2, 23016, Note_on_c, 0, 62, 0
2, 23040, Note_on_c, 0, 74, 0
2, 23096, Note_on_c, 0, 73, 0
2, 23104, Note_on_c, 0, 66, 0
2, 23108, Note_on_c, 0, 69, 0
2, 23112, Note_on_c, 0, 63, 0
2, 23192, Note_on_c, 0, 61, 0
2, 23204, Control_c, 0, 64, 0
2, 23232, Note_on_c, 0, 66, 59
2, 23232, Note_on_c, 0, 60, 65
2, 23236, Note_on_c, 0, 63, 57
2, 23236, Note_on_c, 0, 72, 64
2, 23264, Note_on_c, 0, 69, 32
2, 23308, Note_on_c, 0, 69, 0
2, 23336, Note_on_c, 0, 72, 0
2, 23336, Control_c, 0, 64, 127
2, 23388, Note_on_c, 0, 63, 0
2, 23392, Note_on_c, 0, 66, 0
2, 23420, Note_on_c, 0, 60, 0
2, 23456, Note_on_c, 0, 57, 46
2, 23488, Note_on_c, 0, 57, 0
2, 23644, Note_on_c, 0, 54, 49
2, 23644, Note_on_c, 0, 44, 45
2, 23760, Note_on_c, 0, 54, 0
2, 23792, Note_on_c, 0, 44, 0
2, 23884, Control_c, 0, 64, 0
2, 23892, Note_on_c, 0, 70, 44
2, 23900, Note_on_c, 0, 43, 45
2, 23904, Note_on_c, 0, 62, 44
2, 23908, Note_on_c, 0, 53, 35
2, 23912, Note_on_c, 0, 58, 23
2, 24000, Control_c, 0, 64, 127
2, 24056, Note_on_c, 0, 43, 0
2, 24092, Note_on_c, 0, 58, 0
2, 24116, Note_on_c, 0, 53, 0
2, 24128, Note_on_c, 0, 62, 0
2, 24196, Note_on_c, 0, 70, 0
2, 24580, Note_on_c, 0, 62, 53
2, 24600, Note_on_c, 0, 58, 35
2, 24672, Note_on_c, 0, 62, 0
2, 24728, Note_on_c, 0, 58, 0
2, 25040, Note_on_c, 0, 62, 67
2, 25212, Note_on_c, 0, 62, 0
2, 25288, Note_on_c, 0, 62, 62
2, 25296, Note_on_c, 0, 56, 40
2, 25304, Note_on_c, 0, 53, 40
2, 25308, Control_c, 0, 64, 0
2, 25308, Note_on_c, 0, 59, 57
2, 25320, Note_on_c, 0, 47, 37
2, 25408, Control_c, 0, 64, 127
2, 25460, Note_on_c, 0, 59, 0
2, 25472, Note_on_c, 0, 56, 0
2, 25472, Note_on_c, 0, 53, 0
2, 25484, Note_on_c, 0, 62, 0
2, 25676, Control_c, 0, 64, 0
2, 25696, Note_on_c, 0, 65, 66
2, 25704, Note_on_c, 0, 47, 0
2, 25704, Note_on_c, 0, 56, 56
2, 25708, Note_on_c, 0, 59, 66
2, 25716, Control_c, 0, 64, 127
2, 25720, Note_on_c, 0, 50, 65
2, 25728, Note_on_c, 0, 62, 40
2, 25764, Note_on_c, 0, 62, 0
2, 25772, Note_on_c, 0, 65, 0
2, 25772, Note_on_c, 0, 59, 0
2, 25788, Note_on_c, 0, 56, 0
2, 25904, Note_on_c, 0, 50, 0
2, 25924, Control_c, 0, 64, 0
2, 25936, Note_on_c, 0, 68, 62
2, 25936, Note_on_c, 0, 53, 50
2, 25988, Note_on_c, 0, 68, 0
2, 26100, Note_on_c, 0, 56, 57
2, 26124, Note_on_c, 0, 65, 43
2, 26128, Note_on_c, 0, 53, 0
2, 26140, Note_on_c, 0, 68, 20
2, 26156, Note_on_c, 0, 71, 34
2, 26164, Note_on_c, 0, 65, 0
2, 26204, Note_on_c, 0, 71, 0
2, 26208, Note_on_c, 0, 68, 0
2, 26260, Note_on_c, 0, 56, 0
2, 26260, Note_on_c, 0, 59, 45
2, 26276, Note_on_c, 0, 74, 94
2, 26288, Note_on_c, 0, 68, 67
2, 26288, Note_on_c, 0, 65, 82
2, 26304, Note_on_c, 0, 72, 51
2, 26332, Note_on_c, 0, 72, 0
2, 26368, Note_on_c, 0, 59, 0
2, 26372, Control_c, 0, 64, 127
2, 26376, Note_on_c, 0, 65, 0
2, 26384, Note_on_c, 0, 68, 0
2, 26396, Note_on_c, 0, 74, 0
2, 26452, Note_on_c, 0, 56, 53
2, 26564, Control_c, 0, 64, 0
2, 26576, Note_on_c, 0, 56, 0
2, 26604, Note_on_c, 0, 72, 71
2, 26608, Note_on_c, 0, 62, 66
2, 26608, Note_on_c, 0, 67, 64
2, 26628, Note_on_c, 0, 57, 63
2, 26672, Control_c, 0, 64, 127
2, 26780, Note_on_c, 0, 57, 0
2, 26796, Note_on_c, 0, 72, 0
2, 26796, Note_on_c, 0, 67, 0
2, 26812, Note_on_c, 0, 45, 59
2, 26876, Note_on_c, 0, 62, 0
2, 27268, Note_on_c, 0, 60, 61
2, 27272, Note_on_c, 0, 64, 58
2, 27276, Note_on_c, 0, 55, 57
2, 27288, Control_c, 0, 64, 0
2, 27392, Control_c, 0, 64, 127
2, 27472, Note_on_c, 0, 55, 0
2, 27576, Note_on_c, 0, 64, 0
2, 27620, Note_on_c, 0, 45, 0
2, 27708, Note_on_c, 0, 60, 0
2, 27824, Note_on_c, 0, 50, 60
2, 27836, Note_on_c, 0, 51, 57
2, 27888, Note_on_c, 0, 51, 0
2, 27892, Note_on_c, 0, 50, 0
2, 27896, Note_on_c, 0, 52, 74
2, 27924, Note_on_c, 0, 63, 60
2, 27932, Note_on_c, 0, 55, 66
2, 27932, Note_on_c, 0, 58, 57
2, 27940, Note_on_c, 0, 65, 59
2, 27948, Note_on_c, 0, 53, 74
2, 27956, Note_on_c, 0, 52, 0
2, 27980, Control_c, 0, 64, 0
2, 28180, Control_c, 0, 64, 127
2, 28216, Note_on_c, 0, 53, 0
2, 28248, Control_c, 0, 64, 0
2, 28288, Note_on_c, 0, 41, 66
2, 28308, Note_on_c, 0, 55, 0
2, 28312, Control_c, 0, 64, 127
2, 28356, Note_on_c, 0, 58, 0
2, 28408, Note_on_c, 0, 63, 0
2, 28500, Note_on_c, 0, 65, 0
2, 28616, Note_on_c, 0, 61, 81
2, 28620, Note_on_c, 0, 65, 80
2, 28628, Note_on_c, 0, 57, 81
2, 28632, Control_c, 0, 64, 0
2, 28636, Note_on_c, 0, 51, 69
2, 28652, Note_on_c, 0, 63, 31
2, 28680, Note_on_c, 0, 63, 0
2, 28844, Note_on_c, 0, 41, 0
2, 28976, Note_on_c, 0, 41, 63
2, 29020, Note_on_c, 0, 51, 0
2, 29020, Control_c, 0, 64, 127
2, 29056, Note_on_c, 0, 57, 0
2, 29212, Note_on_c, 0, 65, 0
2, 29240, Note_on_c, 0, 61, 0
2, 29348, Control_c, 0, 64, 0
2, 29352, Note_on_c, 0, 65, 52
2, 29352, Note_on_c, 0, 60, 55
2, 29352, Note_on_c, 0, 50, 55
2, 29360, Note_on_c, 0, 55, 51
2, 29540, Control_c, 0, 64, 127
2, 29556, Note_on_c, 0, 41, 0
2, 29592, Note_on_c, 0, 55, 0
2, 29656, Note_on_c, 0, 60, 0
2, 29688, Note_on_c, 0, 65, 0
2, 29700, Note_on_c, 0, 41, 61
2, 29764, Note_on_c, 0, 41, 0
2, 29788, Note_on_c, 0, 50, 0
2, 30052, Note_on_c, 0, 74, 94
2, 30060, Note_on_c, 0, 69, 85
2, 30064, Note_on_c, 0, 71, 88
2, 30068, Note_on_c, 0, 62, 64
2, 30072, Note_on_c, 0, 58, 43
2, 30168, Note_on_c, 0, 71, 0
2, 30328, Note_on_c, 0, 74, 0
2, 30372, Note_on_c, 0, 69, 0
2, 30424, Note_on_c, 0, 74, 73
2, 30432, Note_on_c, 0, 69, 70
2, 30504, Note_on_c, 0, 62, 0
2, 30552, Note_on_c, 0, 74, 0
2, 30556, Note_on_c, 0, 69, 0
2, 30624, Note_on_c, 0, 58, 0
2, 30756, Note_on_c, 0, 69, 66
2, 30764, Note_on_c, 0, 66, 37
2, 30764, Note_on_c, 0, 61, 40
2, 30772, Note_on_c, 0, 72, 51
2, 30772, Control_c, 0, 64, 0
2, 30776, Note_on_c, 0, 55, 48
2, 30896, Control_c, 0, 64, 127
2, 31004, Note_on_c, 0, 69, 0
2, 31024, Note_on_c, 0, 61, 0
2, 31028, Note_on_c, 0, 55, 0
2, 31056, Note_on_c, 0, 66, 0
2, 31220, Note_on_c, 0, 72, 0
2, 31472, Note_on_c, 0, 69, 60
2, 31472, Note_on_c, 0, 51, 40
2, 31476, Note_on_c, 0, 65, 59
2, 31476, Note_on_c, 0, 61, 29
2, 31484, Control_c, 0, 64, 0
2, 31592, Control_c, 0, 64, 127
2, 31728, Note_on_c, 0, 69, 0
2, 31800, Note_on_c, 0, 65, 0
2, 31812, Note_on_c, 0, 61, 0
2, 31836, Note_on_c, 0, 51, 0
2, 32152, Control_c, 0, 64, 0
2, 32164, Note_on_c, 0, 60, 30
2, 32164, Note_on_c, 0, 69, 45
2, 32168, Note_on_c, 0, 55, 33
2, 32172, Note_on_c, 0, 64, 44
2, 32172, Note_on_c, 0, 45, 37
2, 32268, Control_c, 0, 64, 127
2, 32348, Note_on_c, 0, 45, 0
2, 32356, Note_on_c, 0, 60, 0
2, 32420, Note_on_c, 0, 55, 0
2, 32420, Note_on_c, 0, 64, 0
2, 32460, Note_on_c, 0, 69, 0
2, 32640, Note_on_c, 0, 72, 71
2, 32692, Note_on_c, 0, 72, 0
2, 32704, Note_on_c, 0, 74, 80
2, 32772, Note_on_c, 0, 72, 54
2, 32800, Note_on_c, 0, 74, 0
2, 32832, Control_c, 0, 64, 0
2, 32868, Note_on_c, 0, 72, 0
2, 32876, Note_on_c, 0, 71, 49
2, 32900, Note_on_c, 0, 64, 45
2, 32904, Note_on_c, 0, 71, 0
2, 32912, Note_on_c, 0, 60, 33
2, 32920, Note_on_c, 0, 59, 30
2, 32932, Note_on_c, 0, 55, 36
2, 33016, Note_on_c, 0, 64, 0
2, 33020, Note_on_c, 0, 72, 64
2, 33040, Note_on_c, 0, 60, 0
2, 33040, Note_on_c, 0, 59, 0
2, 33072, Note_on_c, 0, 74, 66
2, 33080, Note_on_c, 0, 72, 0
2, 33100, Note_on_c, 0, 55, 0
2, 33148, Note_on_c, 0, 74, 0
2, 33168, Note_on_c, 0, 72, 34
2, 33212, Note_on_c, 0, 72, 0
2, 33260, Note_on_c, 0, 71, 19
2, 33288, Note_on_c, 0, 71, 0
2, 33364, Note_on_c, 0, 72, 69
2, 33384, Control_c, 0, 64, 127
2, 33448, Note_on_c, 0, 72, 0
2, 33536, Note_on_c, 0, 73, 71
2, 33616, Control_c, 0, 64, 0
2, 33652, Note_on_c, 0, 54, 33
2, 33664, Note_on_c, 0, 73, 0
2, 33672, Note_on_c, 0, 60, 12
2, 33672, Note_on_c, 0, 50, 31
2, 33688, Note_on_c, 0, 74, 64
2, 33792, Control_c, 0, 64, 127
2, 33856, Note_on_c, 0, 74, 0
2, 33860, Note_on_c, 0, 60, 0
2, 33888, Note_on_c, 8, 65, 24
2, 33968, Note_on_c, 0, 50, 0
2, 34004, Note_on_c, 0, 54, 0
2, 34004, Note_on_c, 8, 65, 0
2, 34348, Note_on_c, 0, 65, 42
2, 34356, Note_on_c, 0, 58, 36
2, 34364, Note_on_c, 0, 54, 31
2, 34368, Note_on_c, 0, 60, 35
2, 34672, Note_on_c, 0, 60, 0
2, 34692, Note_on_c, 0, 65, 0
2, 34776, Note_on_c, 0, 58, 0
2, 34776, Note_on_c, 0, 54, 0
2, 35024, Note_on_c, 0, 82, 86
2, 35024, Note_on_c, 0, 58, 52
2, 35032, Note_on_c, 0, 55, 58
2, 35036, Note_on_c, 0, 62, 62
2, 35040, Control_c, 0, 64, 0
2, 35148, Note_on_c, 0, 62, 0
2, 35164, Note_on_c, 0, 58, 0
2, 35196, Note_on_c, 0, 55, 0
2, 35204, Note_on_c, 0, 81, 55
2, 35264, Note_on_c, 0, 82, 0
2, 35276, Note_on_c, 0, 80, 50
2, 35288, Note_on_c, 0, 81, 0
2, 35360, Note_on_c, 0, 79, 33
2, 35384, Note_on_c, 0, 80, 0
2, 35408, Note_on_c, 0, 79, 0
2, 35516, Note_on_c, 0, 84, 83
2, 35564, Control_c, 0, 64, 127
2, 35720, Note_on_c, 0, 43, 51
2, 35748, Control_c, 0, 64, 0
2, 35764, Note_on_c, 0, 84, 0
2, 35800, Note_on_c, 0, 43, 0
2, 35904, Control_c, 0, 64, 127
2, 36188, Note_on_c, 0, 36, 58
2, 36344, Note_on_c, 0, 36, 0
2, 36416, Note_on_c, 0, 52, 53
2, 36444, Note_on_c, 0, 52, 0
2, 36604, Control_c, 0, 64, 0
2, 36620, Note_on_c, 0, 72, 71
2, 36624, Note_on_c, 0, 61, 74
2, 36628, Note_on_c, 0, 64, 72
2, 36632, Note_on_c, 0, 60, 66
2, 36680, Note_on_c, 0, 61, 0
2, 36700, Note_on_c, 0, 64, 0
2, 36732, Note_on_c, 0, 72, 0
2, 36736, Note_on_c, 0, 60, 0
2, 37020, Note_on_c, 0, 75, 83
2, 37028, Note_on_c, 0, 70, 67
2, 37032, Note_on_c, 0, 63, 72
2, 37032, Note_on_c, 0, 67, 68
2, 37032, Note_on_c, 0, 64, 73
2, 37056, Note_on_c, 0, 67, 0
2, 37084, Note_on_c, 0, 64, 0
2, 37092, Note_on_c, 0, 70, 0
2, 37092, Note_on_c, 0, 63, 0
2, 37100, Note_on_c, 0, 75, 0
2, 37392, Note_on_c, 0, 72, 62
2, 37396, Note_on_c, 0, 61, 64
2, 37396, Note_on_c, 0, 64, 69
2, 37408, Note_on_c, 0, 60, 60
2, 37428, Note_on_c, 0, 67, 30
2, 37464, Note_on_c, 0, 67, 0
2, 37484, Note_on_c, 0, 72, 0
2, 37484, Note_on_c, 0, 61, 0
2, 37488, Note_on_c, 0, 64, 0
2, 37492, Note_on_c, 0, 60, 0
2, 37560, Note_on_c, 0, 58, 48
2, 37568, Note_on_c, 0, 70, 62
2, 37572, Note_on_c, 0, 61, 51
2, 37588, Note_on_c, 0, 64, 36
2, 37624, Note_on_c, 0, 64, 0
2, 37648, Note_on_c, 0, 70, 0
2, 37652, Control_c, 0, 64, 127
2, 37656, Note_on_c, 0, 61, 0
2, 37660, Note_on_c, 0, 58, 0
2, 37740, Note_on_c, 0, 56, 53
2, 37780, Note_on_c, 0, 56, 0
2, 37844, Control_c, 0, 64, 0
2, 37908, Note_on_c, 0, 67, 62
2, 37920, Note_on_c, 0, 60, 35
2, 37920, Note_on_c, 0, 63, 40
2, 37928, Note_on_c, 0, 45, 50
2, 37936, Note_on_c, 0, 51, 34
2, 37944, Control_c, 0, 64, 127
2, 37948, Note_on_c, 0, 60, 0
2, 37952, Note_on_c, 0, 63, 0
2, 37956, Note_on_c, 0, 45, 0
2, 37964, Note_on_c, 0, 51, 0
2, 37972, Note_on_c, 0, 67, 0
2, 38120, Note_on_c, 0, 79, 83
2, 38124, Note_on_c, 0, 72, 74
2, 38260, Note_on_c, 0, 79, 0
2, 38272, Note_on_c, 0, 72, 0
2, 38320, Note_on_c, 0, 77, 60
2, 38320, Note_on_c, 0, 69, 68
2, 38336, Note_on_c, 0, 72, 49
2, 38480, Note_on_c, 0, 69, 0
2, 38524, Note_on_c, 0, 72, 0
2, 38556, Note_on_c, 0, 77, 0
2, 38596, Note_on_c, 0, 65, 68
2, 38604, Note_on_c, 0, 61, 38
2, 38604, Note_on_c, 0, 60, 54
2, 38612, Note_on_c, 0, 55, 58
2, 38644, Control_c, 0, 64, 0
2, 38696, Control_c, 0, 64, 127
2, 38804, Note_on_c, 0, 84, 89
2, 38804, Note_on_c, 0, 77, 90
2, 38904, Note_on_c, 0, 55, 0
2, 38968, Note_on_c, 0, 84, 0
2, 38988, Note_on_c, 0, 77, 0
2, 39028, Note_on_c, 0, 77, 57
2, 39032, Note_on_c, 0, 81, 79
2, 39036, Note_on_c, 0, 76, 67
2, 39044, Note_on_c, 0, 55, 46
2, 39076, Note_on_c, 0, 60, 0
2, 39124, Note_on_c, 0, 77, 0
2, 39136, Note_on_c, 0, 65, 0
2, 39136, Note_on_c, 0, 55, 0
2, 39140, Note_on_c, 0, 61, 0
2, 39148, Note_on_c, 0, 76, 0
2, 39172, Note_on_c, 0, 81, 0
2, 39260, Note_on_c, 0, 54, 62
2, 39264, Note_on_c, 0, 65, 67
2, 39268, Control_c, 0, 64, 0
2, 39268, Note_on_c, 0, 58, 55
2, 39276, Note_on_c, 0, 60, 66
2, 39400, Control_c, 0, 64, 127
2, 39508, Note_on_c, 0, 86, 75
2, 39536, Note_on_c, 0, 79, 57
2, 39540, Note_on_c, 0, 82, 34
2, 39544, Note_on_c, 0, 80, 23
2, 39572, Note_on_c, 0, 80, 0
2, 39600, Note_on_c, 0, 79, 0
2, 39604, Note_on_c, 0, 65, 0
2, 39616, Note_on_c, 0, 82, 0
2, 39620, Note_on_c, 0, 60, 0
2, 39640, Note_on_c, 0, 58, 0
2, 39680, Note_on_c, 0, 54, 0
2, 39680, Note_on_c, 0, 86, 0
2, 39724, Note_on_c, 0, 84, 74
2, 39728, Note_on_c, 0, 77, 69
2, 39960, Note_on_c, 0, 54, 55
2, 39960, Note_on_c, 0, 60, 55
2, 39964, Note_on_c, 0, 84, 0
2, 39964, Note_on_c, 0, 50, 60
2, 39976, Control_c, 0, 64, 0
2, 40092, Control_c, 0, 64, 127
2, 40112, Note_on_c, 0, 77, 0
2, 40168, Note_on_c, 0, 60, 0
2, 40184, Note_on_c, 0, 89, 74
2, 40188, Note_on_c, 0, 50, 0
2, 40188, Note_on_c, 0, 82, 62
2, 40196, Note_on_c, 0, 77, 48
2, 40200, Note_on_c, 0, 86, 66
2, 40208, Note_on_c, 0, 54, 0
2, 40304, Note_on_c, 0, 86, 0
2, 40364, Note_on_c, 0, 89, 0
2, 40380, Note_on_c, 0, 77, 0
2, 40412, Note_on_c, 0, 82, 0
2, 40416, Note_on_c, 0, 44, 68
2, 40420, Note_on_c, 0, 88, 41
2, 40424, Note_on_c, 0, 54, 38
2, 40476, Note_on_c, 0, 88, 0
2, 40604, Note_on_c, 0, 54, 0
2, 40628, Note_on_c, 0, 44, 0
2, 40652, Control_c, 0, 64, 0
2, 40656, Note_on_c, 0, 91, 61
2, 40660, Note_on_c, 0, 87, 62
2, 40660, Note_on_c, 0, 79, 62
2, 40668, Note_on_c, 0, 43, 58
2, 40676, Note_on_c, 0, 53, 54
2, 40768, Control_c, 0, 64, 127
2, 40848, Note_on_c, 0, 79, 0
2, 40848, Note_on_c, 0, 43, 0
2, 40864, Note_on_c, 0, 91, 0
2, 40912, Note_on_c, 0, 87, 0
2, 40916, Note_on_c, 0, 53, 0
2, 41136, Note_on_c, 0, 92, 74
2, 41136, Note_on_c, 0, 80, 70
2, 41144, Note_on_c, 0, 87, 65
2, 41288, Note_on_c, 0, 87, 0
2, 41308, Note_on_c, 0, 80, 0
2, 41336, Note_on_c, 0, 92, 0
2, 41376, Control_c, 0, 64, 0
2, 41384, Note_on_c, 0, 63, 55
2, 41404, Note_on_c, 0, 93, 58
2, 41404, Note_on_c, 0, 53, 40
2, 41404, Note_on_c, 0, 87, 50
2, 41412, Note_on_c, 0, 81, 36
2, 41412, Note_on_c, 0, 59, 39
2, 41460, Note_on_c, 0, 59, 0
2, 41484, Note_on_c, 0, 63, 0
2, 41504, Note_on_c, 0, 53, 0
2, 41508, Control_c, 0, 64, 127
2, 41564, Note_on_c, 0, 93, 0
2, 41592, Note_on_c, 0, 81, 0
2, 41708, Note_on_c, 0, 87, 0
2, 41864, Note_on_c, 0, 94, 65
2, 41864, Note_on_c, 0, 82, 55
2, 41872, Note_on_c, 0, 87, 46
2, 41968, Note_on_c, 0, 87, 0
2, 42012, Note_on_c, 0, 82, 0
2, 42016, Note_on_c, 0, 94, 0
2, 42100, Control_c, 0, 64, 0
2, 42112, Note_on_c, 0, 36, 49
2, 42116, Note_on_c, 0, 87, 38
2, 42120, Note_on_c, 0, 83, 52
2, 42124, Note_on_c, 0, 95, 49
2, 42136, Note_on_c, 0, 52, 46
2, 42200, Control_c, 0, 64, 127
2, 42224, Note_on_c, 0, 36, 0
2, 42288, Note_on_c, 0, 87, 0
2, 42296, Note_on_c, 0, 83, 0
2, 42316, Note_on_c, 0, 95, 0
2, 42328, Note_on_c, 0, 52, 0
2, 42624, Note_on_c, 0, 96, 80
2, 42628, Note_on_c, 0, 84, 66
2, 42680, Note_on_c, 0, 96, 0
2, 42708, Note_on_c, 0, 84, 0
2, 42852, Note_on_c, 0, 64, 58
2, 42856, Note_on_c, 0, 61, 45
2, 42864, Note_on_c, 0, 58, 33
2, 42880, Note_on_c, 0, 55, 55
2, 42900, Control_c, 0, 64, 0
2, 42984, Note_on_c, 0, 86, 84
2, 42992, Note_on_c, 0, 64, 0
2, 43016, Note_on_c, 0, 85, 48
2, 43020, Note_on_c, 0, 61, 0
2, 43032, Note_on_c, 0, 58, 0
2, 43040, Note_on_c, 0, 85, 0
2, 43052, Note_on_c, 0, 55, 0
2, 43072, Note_on_c, 0, 84, 53
2, 43116, Note_on_c, 0, 86, 0
2, 43160, Note_on_c, 0, 84, 0
2, 43300, Note_on_c, 0, 80, 69
2, 43304, Note_on_c, 0, 79, 66
2, 43344, Note_on_c, 0, 79, 0
2, 43424, Control_c, 0, 64, 127
2, 43432, Note_on_c, 0, 80, 0
2, 43588, Note_on_c, 0, 79, 80
2, 43608, Control_c, 0, 64, 0
2, 43620, Note_on_c, 0, 41, 32
2, 43632, Note_on_c, 0, 48, 39
2, 43636, Note_on_c, 0, 57, 52
2, 43740, Note_on_c, 0, 79, 0
2, 43804, Note_on_c, 0, 41, 0
2, 43820, Note_on_c, 0, 77, 69
2, 43844, Note_on_c, 0, 48, 0
2, 43880, Note_on_c, 0, 57, 0
2, 43888, Control_c, 0, 64, 127
2, 43976, Note_on_c, 0, 77, 0
2, 44008, Note_on_c, 0, 74, 41
2, 44092, Note_on_c, 0, 74, 0
2, 44188, Note_on_c, 0, 77, 79
2, 44392, Note_on_c, 0, 67, 49
2, 44392, Note_on_c, 0, 63, 48
2, 44396, Note_on_c, 0, 57, 50
2, 44412, Control_c, 0, 64, 0
2, 44572, Note_on_c, 0, 77, 0
2, 44576, Note_on_c, 0, 67, 0
2, 44600, Note_on_c, 0, 72, 49
2, 44636, Note_on_c, 0, 72, 0
2, 44644, Note_on_c, 0, 63, 0
2, 44656, Note_on_c, 0, 74, 74
2, 44680, Note_on_c, 0, 57, 0
2, 44728, Note_on_c, 0, 72, 46
2, 44748, Control_c, 0, 64, 127
2, 44752, Note_on_c, 0, 74, 0
2, 44812, Note_on_c, 0, 72, 0
2, 44812, Note_on_c, 0, 71, 29
2, 44876, Note_on_c, 0, 71, 0
2, 44956, Note_on_c, 0, 72, 82
2, 45064, Note_on_c, 0, 72, 0
2, 45080, Control_c, 0, 64, 0
2, 45112, Note_on_c, 0, 63, 35
2, 45120, Note_on_c, 0, 54, 37
2, 45128, Note_on_c, 0, 74, 74
2, 45136, Note_on_c, 0, 60, 30
2, 45196, Control_c, 0, 64, 127
2, 45200, Note_on_c, 0, 60, 0
2, 45208, Note_on_c, 0, 63, 0
2, 45216, Note_on_c, 0, 74, 0
2, 45276, Note_on_c, 0, 54, 0
2, 45400, Note_on_c, 0, 60, 59
2, 45488, Note_on_c, 0, 60, 0
2, 45828, Note_on_c, 0, 63, 53
2, 45836, Note_on_c, 0, 69, 51
2, 45836, Note_on_c, 0, 60, 54
2, 45840, Note_on_c, 0, 66, 46
2, 45848, Note_on_c, 0, 57, 53
2, 45880, Control_c, 0, 64, 0
2, 45936, Note_on_c, 0, 57, 0
2, 45944, Note_on_c, 0, 60, 0
2, 46000, Note_on_c, 0, 69, 0
2, 46056, Note_on_c, 0, 59, 59
2, 46060, Note_on_c, 0, 44, 37
2, 46076, Note_on_c, 0, 54, 32
2, 46088, Note_on_c, 0, 63, 0
2, 46196, Control_c, 0, 64, 127
2, 46200, Note_on_c, 0, 66, 0
2, 46376, Note_on_c, 0, 54, 0
2, 46436, Note_on_c, 0, 59, 0
2, 46436, Note_on_c, 0, 44, 0
2, 46504, Control_c, 0, 64, 0
2, 46508, Note_on_c, 0, 43, 48
2, 46520, Note_on_c, 0, 58, 55
2, 46524, Note_on_c, 0, 53, 34
2, 46572, Control_c, 0, 64, 127
2, 46684, Note_on_c, 0, 43, 0
2, 46696, Note_on_c, 0, 58, 0
2, 46724, Note_on_c, 0, 53, 0
2, 47224, Note_on_c, 0, 58, 45
2, 47228, Note_on_c, 0, 56, 42
2, 47232, Note_on_c, 0, 62, 59
2, 47244, Control_c, 0, 64, 0
2, 47244, Note_on_c, 0, 65, 54
2, 47312, Control_c, 0, 64, 127
2, 47336, Note_on_c, 0, 58, 0
2, 47352, Note_on_c, 0, 62, 0
2, 47364, Note_on_c, 0, 65, 0
2, 47412, Note_on_c, 0, 56, 0
2, 47700, Note_on_c, 0, 74, 80
2, 47708, Note_on_c, 0, 68, 79
2, 47712, Note_on_c, 0, 65, 80
2, 47796, Note_on_c, 0, 74, 0
2, 47816, Note_on_c, 0, 65, 0
2, 47852, Note_on_c, 0, 68, 0
2, 47900, Control_c, 0, 64, 0
2, 47936, Note_on_c, 0, 71, 62
2, 47936, Note_on_c, 0, 56, 40
2, 47948, Note_on_c, 0, 62, 44
2, 47976, Note_on_c, 0, 67, 29
2, 48000, Control_c, 0, 64, 127
2, 48028, Note_on_c, 0, 62, 0
2, 48052, Note_on_c, 0, 71, 0
2, 48072, Note_on_c, 0, 67, 0
2, 48100, Control_c, 0, 64, 0
2, 48132, Note_on_c, 0, 74, 64
2, 48132, Note_on_c, 0, 70, 58
2, 48136, Note_on_c, 0, 59, 62
2, 48140, Note_on_c, 0, 64, 35
2, 48172, Note_on_c, 0, 64, 0
2, 48188, Note_on_c, 0, 70, 0
2, 48200, Note_on_c, 0, 74, 0
2, 48288, Note_on_c, 0, 59, 0
2, 48296, Note_on_c, 0, 68, 60
2, 48300, Note_on_c, 0, 56, 0
2, 48312, Note_on_c, 0, 62, 65
2, 48316, Note_on_c, 0, 77, 44
2, 48348, Note_on_c, 0, 77, 0
2, 48372, Note_on_c, 0, 68, 0
2, 48440, Note_on_c, 0, 62, 0
2, 48452, Note_on_c, 0, 68, 42
2, 48480, Note_on_c, 0, 80, 39
2, 48484, Note_on_c, 0, 68, 0
2, 48492, Note_on_c, 0, 64, 25
2, 48500, Control_c, 0, 64, 127
2, 48508, Note_on_c, 0, 80, 0
2, 48608, Control_c, 0, 64, 0
2, 48632, Note_on_c, 0, 66, 53
2, 48636, Note_on_c, 0, 64, 0
2, 48720, Note_on_c, 0, 66, 0
2, 48824, Note_on_c, 0, 86, 77
2, 48824, Note_on_c, 0, 77, 74
2, 48832, Note_on_c, 0, 80, 54
2, 48832, Note_on_c, 0, 69, 70
2, 48840, Note_on_c, 0, 83, 64
2, 48928, Note_on_c, 0, 69, 0
2, 48944, Note_on_c, 0, 83, 0
2, 48988, Note_on_c, 0, 77, 0
2, 48992, Note_on_c, 0, 80, 0
2, 48992, Note_on_c, 0, 68, 48
2, 49016, Note_on_c, 0, 86, 0
2, 49112, Note_on_c, 0, 68, 0
2, 49128, Control_c, 0, 64, 127
2, 49192, Note_on_c, 0, 66, 44
2, 49300, Note_on_c, 0, 66, 0
2, 49316, Control_c, 0, 64, 0
2, 49340, Note_on_c, 0, 84, 71
2, 49344, Note_on_c, 0, 79, 62
2, 49344, Note_on_c, 0, 72, 67
2, 49352, Note_on_c, 0, 69, 55
2, 49376, Note_on_c, 0, 69, 0
2, 49408, Note_on_c, 0, 84, 0
2, 49424, Note_on_c, 0, 79, 0
2, 49444, Note_on_c, 0, 72, 0
2, 49604, Note_on_c, 0, 45, 24
2, 49644, Control_c, 0, 64, 127
2, 49760, Note_on_c, 0, 72, 60
2, 49760, Note_on_c, 0, 60, 56
2, 49768, Note_on_c, 0, 65, 65
2, 49768, Control_c, 0, 64, 0
2, 49772, Note_on_c, 0, 69, 60
2, 49784, Note_on_c, 0, 55, 62
2, 49960, Control_c, 0, 64, 127
2, 50000, Control_c, 0, 64, 0
2, 50076, Note_on_c, 0, 69, 0
2, 50088, Note_on_c, 0, 72, 0
2, 50092, Control_c, 0, 64, 127
2, 50096, Note_on_c, 0, 65, 0
2, 50156, Note_on_c, 0, 60, 0
2, 50476, Note_on_c, 0, 64, 59
2, 50500, Control_c, 0, 64, 0
2, 50508, Note_on_c, 0, 65, 66
2, 50520, Note_on_c, 0, 64, 0
2, 50528, Note_on_c, 0, 55, 0
2, 50544, Note_on_c, 0, 45, 0
2, 50580, Note_on_c, 0, 65, 0
2, 50620, Note_on_c, 0, 63, 25
2, 50640, Control_c, 0, 64, 127
2, 50656, Note_on_c, 0, 64, 1
2, 50680, Note_on_c, 0, 64, 0
2, 50720, Note_on_c, 0, 63, 0
2, 50756, Note_on_c, 0, 64, 61
2, 50856, Note_on_c, 0, 64, 0
2, 50856, Control_c, 0, 64, 0
2, 50884, Note_on_c, 0, 65, 69
2, 50896, Note_on_c, 0, 58, 49
2, 50900, Note_on_c, 0, 48, 45
2, 50984, Control_c, 0, 64, 127
2, 51000, Note_on_c, 0, 58, 0
2, 51032, Note_on_c, 0, 48, 0
2, 51160, Note_on_c, 0, 41, 68
2, 51560, Note_on_c, 0, 63, 68
2, 51560, Note_on_c, 0, 51, 43
2, 51572, Note_on_c, 0, 61, 56
2, 51576, Note_on_c, 0, 57, 54
2, 51616, Note_on_c, 0, 65, 0
2, 51624, Control_c, 0, 64, 0
2, 51756, Control_c, 0, 64, 127
2, 51864, Note_on_c, 0, 41, 0
2, 51980, Note_on_c, 0, 51, 0
2, 52064, Note_on_c, 0, 57, 0
2, 52064, Note_on_c, 0, 41, 47
2, 52120, Note_on_c, 0, 61, 0
2, 52128, Note_on_c, 0, 63, 0
2, 52332, Control_c, 0, 64, 0
2, 52336, Note_on_c, 0, 65, 33
2, 52340, Note_on_c, 0, 57, 38
2, 52344, Note_on_c, 0, 60, 46
2, 52348, Note_on_c, 0, 50, 50
2, 52444, Note_on_c, 0, 57, 0
2, 52448, Control_c, 0, 64, 127
2, 52484, Note_on_c, 0, 41, 0
2, 52484, Note_on_c, 0, 60, 0
2, 52508, Note_on_c, 0, 65, 0
2, 52536, Note_on_c, 0, 50, 0
2, 53056, Note_on_c, 0, 61, 74
2, 53056, Note_on_c, 0, 64, 71
2, 53060, Note_on_c, 0, 46, 51
2, 53064, Note_on_c, 0, 57, 74
2, 53064, Control_c, 0, 64, 0
2, 53072, Note_on_c, 0, 53, 47
2, 53184, Note_on_c, 0, 57, 0
2, 53260, Note_on_c, 0, 69, 74
2, 53284, Note_on_c, 0, 57, 41
2, 53316, Note_on_c, 0, 57, 0
2, 53332, Note_on_c, 0, 64, 0
2, 53352, Note_on_c, 0, 69, 0
2, 53372, Note_on_c, 0, 61, 0
2, 53476, Note_on_c, 0, 53, 0
2, 53476, Note_on_c, 0, 65, 68
2, 53484, Note_on_c, 0, 62, 62
2, 53484, Note_on_c, 0, 58, 46
2, 53492, Note_on_c, 0, 55, 57
2, 53648, Control_c, 0, 64, 127
2, 53660, Note_on_c, 0, 58, 0
2, 53664, Note_on_c, 0, 62, 0
2, 53672, Note_on_c, 0, 65, 0
2, 53680, Note_on_c, 0, 46, 0
2, 53708, Note_on_c, 0, 55, 0
2, 54012, Note_on_c, 0, 69, 71
2, 54016, Note_on_c, 0, 61, 62
2, 54016, Note_on_c, 0, 65, 71
2, 54024, Note_on_c, 0, 51, 55
2, 54028, Control_c, 0, 64, 0
2, 54096, Control_c, 0, 64, 127
2, 54168, Note_on_c, 0, 51, 0
2, 54184, Note_on_c, 0, 61, 0
2, 54200, Note_on_c, 0, 65, 0
2, 54212, Note_on_c, 0, 72, 77
2, 54240, Note_on_c, 0, 69, 0
2, 54380, Note_on_c, 0, 72, 0
2, 54476, Note_on_c, 0, 55, 62
2, 54484, Note_on_c, 0, 61, 56
2, 54504, Control_c, 0, 64, 0
2, 54508, Note_on_c, 0, 65, 54
2, 54680, Control_c, 0, 64, 127
2, 54696, Note_on_c, 0, 70, 78
2, 54700, Note_on_c, 0, 65, 0
2, 54700, Note_on_c, 0, 67, 72
2, 54756, Note_on_c, 0, 55, 0
2, 54760, Note_on_c, 0, 61, 0
2, 54804, Note_on_c, 0, 67, 0
2, 54852, Control_c, 0, 64, 0
2, 54864, Note_on_c, 0, 70, 0
2, 54872, Control_c, 0, 64, 127
2, 54920, Note_on_c, 0, 47, 39
2, 54956, Note_on_c, 0, 47, 0
2, 55104, Control_c, 0, 64, 0
2, 55120, Note_on_c, 0, 64, 58
2, 55124, Note_on_c, 0, 60, 48
2, 55124, Note_on_c, 0, 45, 58
2, 55124, Note_on_c, 0, 69, 61
2, 55228, Control_c, 0, 64, 127
2, 55264, Note_on_c, 0, 60, 0
2, 55280, Note_on_c, 0, 45, 0
2, 55328, Note_on_c, 0, 64, 0
2, 55364, Note_on_c, 0, 69, 0
2, 55852, Note_on_c, 0, 64, 51
2, 55864, Note_on_c, 0, 55, 40
2, 55868, Note_on_c, 0, 60, 40
2, 55876, Note_on_c, 0, 59, 45
2, 55896, Control_c, 0, 64, 0
2, 55988, Control_c, 0, 64, 127
2, 56256, Note_on_c, 0, 64, 0
2, 56268, Note_on_c, 0, 60, 0
2, 56268, Note_on_c, 0, 59, 0
2, 56324, Note_on_c, 0, 72, 95
2, 56328, Note_on_c, 0, 55, 0
2, 56400, Note_on_c, 0, 72, 0
2, 56780, Note_on_c, 0, 74, 77
2, 56788, Note_on_c, 0, 70, 71
2, 56792, Control_c, 0, 64, 0
2, 56792, Note_on_c, 0, 65, 74
2, 56796, Note_on_c, 0, 54, 61
2, 56800, Note_on_c, 0, 60, 53
2, 56920, Control_c, 0, 64, 127
2, 56940, Note_on_c, 0, 60, 0
2, 56960, Note_on_c, 0, 54, 0
2, 57000, Note_on_c, 0, 74, 0
2, 57016, Note_on_c, 0, 70, 0
2, 57052, Note_on_c, 0, 65, 0
2, 57064, Note_on_c, 0, 50, 63
2, 57160, Note_on_c, 0, 50, 0
2, 57324, Note_on_c, 0, 54, 57
2, 57352, Note_on_c, 0, 65, 60
2, 57360, Note_on_c, 0, 62, 67
2, 57368, Control_c, 0, 64, 0
2, 57520, Note_on_c, 0, 62, 0
2, 57548, Note_on_c, 0, 44, 43
2, 57600, Control_c, 0, 64, 127
2, 57724, Note_on_c, 0, 54, 0
2, 57744, Note_on_c, 0, 65, 0
2, 57744, Note_on_c, 0, 44, 0
2, 57792, Control_c, 0, 64, 0
2, 57796, Note_on_c, 0, 58, 56
2, 57808, Note_on_c, 0, 43, 54
2, 57820, Note_on_c, 0, 53, 49
2, 57916, Control_c, 0, 64, 127
2, 57968, Note_on_c, 0, 43, 0
2, 57984, Note_on_c, 0, 58, 0
2, 58032, Note_on_c, 0, 53, 0
2, 58368, Control_c, 0, 64, 0
2, 58408, Control_c, 0, 64, 127
2, 58444, Note_on_c, 0, 70, 65
2, 58452, Note_on_c, 0, 62, 58
2, 58460, Note_on_c, 0, 65, 68
2, 58464, Note_on_c, 7, 55, 55
2, 58600, Note_on_c, 0, 65, 0
2, 58616, Note_on_c, 0, 62, 0
2, 58624, Note_on_c, 0, 70, 0
2, 58696, Note_on_c, 7, 55, 0
2, 58696, Note_on_c, 0, 72, 64
2, 58700, Control_c, 0, 64, 0
2, 58700, Note_on_c, 0, 62, 55
2, 58708, Note_on_c, 0, 65, 40
2, 58752, Note_on_c, 7, 57, 54
2, 58816, Note_on_c, 0, 62, 0
2, 58884, Note_on_c, 0, 65, 0
2, 58888, Note_on_c, 7, 57, 0
2, 58920, Note_on_c, 0, 72, 0
2, 59148, Control_c, 0, 64, 127
2, 59148, Note_on_c, 0, 55, 52
2, 59376, Control_c, 0, 64, 0
2, 59380, Note_on_c, 0, 58, 39
2, 59384, Note_on_c, 0, 69, 49
2, 59396, Note_on_c, 0, 55, 0
2, 59396, Note_on_c, 0, 48, 54
2, 59404, Note_on_c, 0, 64, 45
2, 59408, Note_on_c, 0, 61, 33
2, 59492, Control_c, 0, 64, 127
2, 59540, Note_on_c, 0, 58, 0
2, 59544, Note_on_c, 0, 61, 0
2, 59884, Note_on_c, 0, 64, 0
2, 59900, Note_on_c, 0, 69, 0
2, 60092, Note_on_c, 0, 58, 63
2, 60100, Note_on_c, 0, 61, 53
2, 60108, Note_on_c, 0, 64, 55
2, 60160, Note_on_c, 0, 64, 0
2, 60184, Note_on_c, 0, 61, 0
2, 60200, Note_on_c, 0, 58, 0
2, 60308, Note_on_c, 0, 60, 71
2, 60324, Control_c, 0, 64, 0
2, 60468, Note_on_c, 0, 60, 0
2, 60508, Note_on_c, 0, 48, 0
2, 60508, Note_on_c, 0, 62, 73
2, 60528, Note_on_c, 0, 60, 47
2, 60560, Note_on_c, 0, 60, 0
2, 60588, Control_c, 0, 64, 127
2, 60616, Note_on_c, 0, 62, 0
2, 60688, Control_c, 0, 64, 0
2, 60748, Note_on_c, 0, 65, 96
2, 60924, Note_on_c, 0, 65, 0
2, 60972, Note_on_c, 0, 60, 56
2, 61120, Note_on_c, 0, 60, 0
2, 61180, Note_on_c, 0, 62, 65
2, 61248, Control_c, 0, 64, 127
2, 61308, Note_on_c, 0, 62, 0
2, 61340, Control_c, 0, 64, 0
2, 61412, Note_on_c, 0, 65, 75
2, 61860, Note_on_c, 0, 46, 44
2, 61912, Control_c, 0, 64, 127
2, 61984, Note_on_c, 0, 65, 0
2, 62036, Note_on_c, 0, 46, 0
2, 62120, Note_on_c, 0, 65, 60
2, 62124, Control_c, 0, 64, 0
2, 62128, Note_on_c, 0, 55, 51
2, 62132, Note_on_c, 0, 60, 48
2, 62144, Note_on_c, 0, 45, 38
2, 62296, Control_c, 0, 64, 127
2, 62516, Note_on_c, 0, 45, 0
2, 62600, Note_on_c, 0, 43, 38
2, 62756, Note_on_c, 0, 55, 0
2, 62764, Note_on_c, 0, 43, 0
2, 62788, Note_on_c, 0, 60, 0
2, 62828, Control_c, 0, 64, 0
2, 62852, Note_on_c, 0, 42, 53
2, 62916, Note_on_c, 0, 42, 0
2, 63144, Note_on_c, 0, 65, 0
2, 63144, Control_c, 0, 64, 127
2, 63280, Note_on_c, 0, 29, 42
2, 63284, Note_on_c, 0, 41, 36
2, 63288, Note_on_c, 0, 57, 52
2, 63292, Note_on_c, 0, 65, 51
2, 63292, Note_on_c, 0, 62, 50
2, 63312, Control_c, 0, 64, 0
2, 63360, Note_on_c, 0, 57, 0
2, 63396, Note_on_c, 0, 29, 0
2, 63396, Control_c, 0, 64, 127
2, 63408, Note_on_c, 0, 41, 0
2, 63420, Note_on_c, 0, 62, 0
2, 63436, Note_on_c, 0, 65, 0
2, 64272, Note_on_c, 0, 74, 82
2, 64288, Note_on_c, 0, 70, 64
2, 64292, Note_on_c, 0, 67, 73
2, 64292, Note_on_c, 0, 63, 69
2, 64312, Note_on_c, 0, 62, 64
2, 64320, Control_c, 0, 64, 0
2, 64404, Control_c, 0, 64, 127
2, 64548, Note_on_c, 0, 62, 0
2, 64644, Note_on_c, 0, 67, 0
2, 64664, Note_on_c, 0, 63, 0
2, 64696, Note_on_c, 0, 74, 0
2, 64720, Note_on_c, 0, 70, 0
2, 64984, Note_on_c, 0, 74, 58
2, 64988, Note_on_c, 0, 66, 45
2, 64992, Control_c, 0, 64, 0
2, 64992, Note_on_c, 0, 62, 37
2, 64996, Note_on_c, 0, 57, 46
2, 65004, Note_on_c, 0, 69, 57
2, 65016, Note_on_c, 0, 51, 38
2, 65076, Control_c, 0, 64, 127
2, 65156, Note_on_c, 0, 57, 0
2, 65184, Note_on_c, 0, 51, 0
2, 65324, Note_on_c, 0, 74, 0
2, 65340, Note_on_c, 0, 69, 0
2, 65396, Note_on_c, 0, 62, 0
2, 65480, Note_on_c, 0, 66, 0
2, 65692, Control_c, 0, 64, 0
2, 65692, Note_on_c, 0, 51, 35
2, 65692, Note_on_c, 0, 66, 43
2, 65696, Note_on_c, 0, 62, 50
2, 65700, Note_on_c, 0, 69, 48
2, 65704, Note_on_c, 0, 72, 41
2, 65712, Note_on_c, 0, 41, 36
2, 65804, Control_c, 0, 64, 127
2, 65868, Note_on_c, 0, 41, 0
2, 65948, Note_on_c, 0, 51, 0
2, 66096, Note_on_c, 0, 72, 0
2, 66100, Note_on_c, 0, 62, 0
2, 66116, Note_on_c, 0, 69, 0
2, 66188, Note_on_c, 0, 66, 0
2, 66428, Note_on_c, 0, 46, 43
2, 66436, Control_c, 0, 64, 0
2, 66440, Note_on_c, 0, 72, 45
2, 66440, Note_on_c, 0, 62, 40
2, 66440, Note_on_c, 0, 65, 47
2, 66444, Note_on_c, 0, 57, 31
2, 66544, Control_c, 0, 64, 127
2, 66580, Note_on_c, 0, 46, 0
2, 66628, Note_on_c, 0, 62, 0
2, 66636, Note_on_c, 0, 57, 0
2, 66660, Note_on_c, 0, 65, 0
2, 66800, Note_on_c, 0, 72, 0
2, 67164, Note_on_c, 0, 62, 50
2, 67168, Note_on_c, 0, 70, 77
2, 67176, Note_on_c, 0, 58, 40
2, 67208, Control_c, 0, 64, 0
2, 67212, Note_on_c, 0, 62, 0
2, 67232, Note_on_c, 0, 70, 0
2, 67260, Note_on_c, 0, 72, 66
2, 67268, Note_on_c, 0, 58, 0
2, 67336, Note_on_c, 0, 70, 48
2, 67360, Note_on_c, 0, 72, 0
2, 67444, Note_on_c, 0, 70, 0
2, 67444, Note_on_c, 0, 69, 48
2, 67484, Note_on_c, 0, 69, 0
2, 67608, Note_on_c, 0, 70, 46
2, 67676, Note_on_c, 0, 70, 0
2, 67748, Control_c, 0, 64, 127
2, 67776, Note_on_c, 0, 72, 76
2, 67860, Control_c, 0, 64, 0
2, 67864, Note_on_c, 0, 72, 0
2, 67924, Note_on_c, 0, 70, 53
2, 67936, Note_on_c, 0, 58, 28
2, 67960, Note_on_c, 0, 50, 34
2, 68000, Control_c, 0, 64, 127
2, 68096, Note_on_c, 0, 70, 0
2, 68116, Note_on_c, 0, 50, 0
2, 68144, Note_on_c, 0, 65, 36
2, 68172, Note_on_c, 0, 58, 0
2, 68316, Note_on_c, 0, 65, 0
2, 68608, Note_on_c, 0, 58, 39
2, 68612, Note_on_c, 0, 62, 39
2, 68692, Note_on_c, 0, 62, 0
2, 68712, Note_on_c, 0, 58, 0
2, 69088, Note_on_c, 0, 54, 62
2, 69276, Note_on_c, 0, 54, 0
2, 69324, Control_c, 0, 64, 0
2, 69340, Note_on_c, 0, 55, 51
2, 69344, Note_on_c, 0, 36, 35
2, 69352, Note_on_c, 0, 52, 49
2, 69464, Control_c, 0, 64, 127
2, 69480, Note_on_c, 0, 55, 0
2, 69496, Note_on_c, 0, 36, 0
2, 69584, Note_on_c, 0, 52, 0
2, 70044, Note_on_c, 0, 64, 65
2, 70056, Note_on_c, 0, 58, 50
2, 70064, Note_on_c, 0, 60, 50
2, 70312, Note_on_c, 0, 86, 95
2, 70316, Note_on_c, 0, 74, 101
2, 70332, Note_on_c, 0, 64, 0
2, 70332, Note_on_c, 0, 60, 0
2, 70424, Note_on_c, 0, 58, 0
2, 70436, Note_on_c, 0, 86, 0
2, 70448, Note_on_c, 0, 74, 0
2, 70520, Note_on_c, 0, 85, 55
2, 70528, Note_on_c, 0, 73, 80
2, 70544, Note_on_c, 0, 86, 60
2, 70572, Note_on_c, 0, 86, 0
2, 70680, Note_on_c, 0, 85, 0
2, 70680, Note_on_c, 0, 73, 0
2, 70748, Note_on_c, 0, 63, 49
2, 70748, Note_on_c, 0, 86, 66
2, 70752, Note_on_c, 0, 74, 68
2, 70752, Note_on_c, 0, 58, 37
2, 70756, Note_on_c, 0, 52, 46
2, 70756, Control_c, 0, 64, 0
2, 70856, Note_on_c, 0, 63, 0
2, 70856, Control_c, 0, 64, 127
2, 70876, Note_on_c, 0, 58, 0
2, 70888, Note_on_c, 0, 52, 0
2, 70960, Note_on_c, 0, 86, 0
2, 71004, Note_on_c, 0, 74, 0
2, 71220, Note_on_c, 0, 41, 58
2, 71480, Note_on_c, 0, 51, 47
2, 71484, Note_on_c, 0, 57, 55
2, 71488, Note_on_c, 0, 62, 51
2, 71488, Note_on_c, 0, 65, 62
2, 71496, Control_c, 0, 64, 0
2, 71628, Control_c, 0, 64, 127
2, 71684, Note_on_c, 0, 57, 0
2, 71764, Note_on_c, 0, 41, 0
2, 71784, Note_on_c, 0, 62, 0
2, 71820, Note_on_c, 0, 51, 0
2, 71880, Note_on_c, 0, 65, 0
2, 71952, Note_on_c, 0, 62, 56
2, 71976, Note_on_c, 0, 62, 0
2, 72204, Note_on_c, 0, 70, 67
2, 72212, Note_on_c, 0, 60, 61
2, 72212, Note_on_c, 0, 65, 70
2, 72220, Control_c, 0, 64, 0
2, 72228, Note_on_c, 0, 55, 65
2, 72336, Note_on_c, 0, 55, 0
2, 72348, Note_on_c, 0, 60, 0
2, 72348, Note_on_c, 0, 65, 0
2, 72368, Note_on_c, 0, 70, 0
2, 72680, Control_c, 0, 64, 127
2, 72948, Note_on_c, 0, 61, 46
2, 72952, Control_c, 0, 64, 0
2, 72952, Note_on_c, 0, 64, 55
2, 72952, Note_on_c, 0, 58, 34
2, 72952, Note_on_c, 0, 69, 50
2, 72960, Note_on_c, 0, 55, 49
2, 73128, Note_on_c, 0, 69, 0
2, 73152, Note_on_c, 0, 58, 0
2, 73156, Note_on_c, 0, 64, 0
2, 73156, Note_on_c, 0, 55, 0
2, 73160, Control_c, 0, 64, 127
2, 73176, Note_on_c, 0, 61, 0
2, 73268, Control_c, 0, 64, 0
2, 73392, Note_on_c, 0, 46, 48
2, 73396, Control_c, 0, 64, 127
2, 73528, Note_on_c, 0, 46, 0
2, 73668, Note_on_c, 0, 65, 46
2, 73676, Note_on_c, 0, 57, 32
2, 73676, Note_on_c, 0, 62, 44
2, 73676, Note_on_c, 0, 60, 43
2, 73688, Control_c, 0, 64, 0
2, 74152, Note_on_c, 0, 55, 81
2, 74288, Note_on_c, 0, 55, 0
2, 74312, Note_on_c, 0, 54, 68
2, 74436, Note_on_c, 0, 54, 0
2, 74504, Note_on_c, 0, 53, 66
2, 74612, Note_on_c, 0, 53, 0
2, 74684, Note_on_c, 0, 50, 61
2, 74844, Note_on_c, 0, 50, 0
2, 74872, Note_on_c, 0, 52, 52
2, 74928, Control_c, 0, 64, 127
2, 74992, Note_on_c, 0, 57, 0
2, 74992, Note_on_c, 0, 52, 0
2, 75024, Note_on_c, 0, 48, 44
2, 75032, Note_on_c, 0, 62, 0
2, 75036, Note_on_c, 0, 60, 0
2, 75052, Note_on_c, 0, 65, 0
2, 75092, Note_on_c, 0, 48, 0
2, 75200, Control_c, 0, 64, 0
2, 75200, Note_on_c, 0, 63, 57
2, 75212, Note_on_c, 0, 56, 36
2, 75216, Note_on_c, 0, 51, 48
2, 75220, Note_on_c, 0, 60, 49
2, 75244, Note_on_c, 0, 56, 0
2, 75296, Note_on_c, 0, 60, 0
2, 75332, Note_on_c, 0, 63, 0
2, 75344, Note_on_c, 0, 51, 0
2, 75368, Control_c, 0, 64, 127
2, 75388, Note_on_c, 0, 39, 44
2, 75420, Note_on_c, 0, 39, 0
2, 75604, Note_on_c, 0, 60, 59
2, 75608, Note_on_c, 0, 61, 59
2, 75608, Note_on_c, 0, 72, 55
2, 75608, Note_on_c, 0, 65, 69
2, 75616, Note_on_c, 0, 69, 58
2, 75944, Note_on_c, 0, 60, 0
2, 75960, Note_on_c, 0, 51, 73
2, 76144, Note_on_c, 0, 69, 0
2, 76148, Note_on_c, 0, 72, 0
2, 76164, Note_on_c, 0, 61, 0
2, 76200, Note_on_c, 0, 65, 0
2, 76324, Note_on_c, 0, 51, 0
2, 76612, Note_on_c, 0, 50, 35
2, 76652, Note_on_c, 0, 70, 60
2, 76652, Note_on_c, 0, 60, 60
2, 76656, Note_on_c, 0, 66, 55
2, 76656, Note_on_c, 0, 64, 62
2, 76664, Note_on_c, 0, 57, 68
2, 76680, Control_c, 0, 64, 0
2, 76720, Note_on_c, 0, 50, 0
2, 76836, Note_on_c, 0, 57, 0
2, 76860, Note_on_c, 0, 60, 0
2, 76872, Note_on_c, 0, 59, 64
2, 76960, Note_on_c, 0, 59, 0
2, 76988, Note_on_c, 0, 60, 60
2, 77188, Note_on_c, 0, 60, 0
2, 77192, Note_on_c, 0, 59, 50
2, 77232, Note_on_c, 0, 59, 0
2, 77264, Note_on_c, 0, 58, 61
2, 77336, Note_on_c, 0, 58, 0
2, 77364, Note_on_c, 0, 57, 66
2, 77528, Note_on_c, 0, 57, 0
2, 77552, Control_c, 0, 64, 127
2, 77572, Note_on_c, 0, 64, 0
2, 77580, Note_on_c, 0, 54, 49
2, 77600, Note_on_c, 0, 66, 0
2, 77684, Note_on_c, 0, 54, 0
2, 77732, Note_on_c, 0, 70, 0
2, 77752, Note_on_c, 0, 54, 60
2, 77816, Note_on_c, 0, 54, 0
2, 77912, Note_on_c, 0, 59, 58
2, 77940, Note_on_c, 0, 44, 59
2, 78016, Note_on_c, 0, 59, 0
2, 78044, Note_on_c, 0, 44, 0
2, 78096, Control_c, 0, 64, 0
2, 78100, Note_on_c, 0, 58, 57
2, 78124, Note_on_c, 0, 53, 54
2, 78132, Note_on_c, 0, 43, 49
2, 78228, Control_c, 0, 64, 127
2, 78308, Note_on_c, 0, 43, 0
2, 78320, Note_on_c, 0, 58, 0
2, 78356, Note_on_c, 0, 53, 0
2, 78376, Note_on_c, 0, 69, 80
2, 78384, Note_on_c, 0, 62, 71
2, 78384, Note_on_c, 0, 58, 45
2, 78408, Note_on_c, 0, 65, 54
2, 78588, Note_on_c, 0, 57, 65
2, 78648, Note_on_c, 0, 65, 0
2, 78664, Note_on_c, 0, 62, 0
2, 78664, Note_on_c, 0, 58, 0
2, 78668, Note_on_c, 0, 69, 0
2, 78704, Note_on_c, 0, 57, 0
2, 78796, Note_on_c, 0, 58, 56
2, 78800, Note_on_c, 0, 62, 62
2, 78804, Control_c, 0, 64, 0
2, 78808, Note_on_c, 0, 67, 58
2, 78816, Note_on_c, 0, 55, 68
2, 78960, Control_c, 0, 64, 127
2, 79132, Note_on_c, 0, 67, 0
2, 79160, Note_on_c, 0, 55, 0
2, 79176, Note_on_c, 0, 62, 0
2, 79188, Note_on_c, 0, 58, 0
2, 79236, Note_on_c, 0, 43, 33
2, 79468, Control_c, 0, 64, 0
2, 79476, Note_on_c, 0, 57, 40
2, 79480, Note_on_c, 0, 62, 57
2, 79488, Note_on_c, 0, 58, 33
2, 79500, Note_on_c, 0, 53, 33
2, 79544, Control_c, 0, 64, 127
2, 79636, Note_on_c, 0, 53, 0
2, 79744, Note_on_c, 0, 57, 0
2, 79920, Note_on_c, 0, 58, 0
2, 79948, Note_on_c, 0, 62, 0
2, 80164, Note_on_c, 0, 58, 56
2, 80184, Note_on_c, 0, 53, 39
2, 80188, Note_on_c, 0, 57, 47
2, 80232, Note_on_c, 0, 57, 0
2, 80256, Note_on_c, 0, 43, 0
2, 80260, Note_on_c, 0, 58, 0
2, 80276, Note_on_c, 0, 53, 0
2, 80716, Note_on_c, 0, 70, 56
2, 80752, Note_on_c, 0, 71, 68
2, 80792, Note_on_c, 0, 76, 89
2, 80796, Note_on_c, 0, 70, 0
2, 80796, Note_on_c, 0, 73, 90
2, 80796, Note_on_c, 0, 84, 91
2, 80804, Note_on_c, 0, 79, 69
2, 80816, Control_c, 0, 64, 0
2, 80816, Note_on_c, 0, 72, 83
2, 80828, Note_on_c, 0, 71, 0
2, 80828, Note_on_c, 0, 82, 29
2, 80908, Note_on_c, 0, 73, 0
2, 80916, Note_on_c, 0, 76, 0
2, 80916, Note_on_c, 0, 79, 0
2, 80928, Note_on_c, 0, 72, 0
2, 80940, Note_on_c, 0, 84, 0
2, 80944, Note_on_c, 0, 82, 0
2, 80996, Note_on_c, 0, 69, 49
2, 81024, Note_on_c, 0, 69, 0
2, 81116, Note_on_c, 0, 82, 73
2, 81116, Note_on_c, 0, 87, 83
2, 81120, Note_on_c, 0, 79, 74
2, 81120, Note_on_c, 0, 76, 77
2, 81124, Note_on_c, 0, 75, 70
2, 81260, Control_c, 0, 64, 127
2, 81276, Note_on_c, 0, 75, 0
2, 81280, Note_on_c, 0, 79, 0
2, 81288, Note_on_c, 0, 82, 0
2, 81300, Note_on_c, 0, 87, 0
2, 81328, Note_on_c, 0, 73, 52
2, 81336, Note_on_c, 0, 85, 36
2, 81360, Note_on_c, 0, 85, 0
2, 81372, Note_on_c, 0, 76, 0
2, 81416, Note_on_c, 0, 73, 0
2, 81480, Note_on_c, 0, 84, 74
2, 81484, Note_on_c, 0, 73, 57
2, 81488, Note_on_c, 0, 72, 70
2, 81492, Control_c, 0, 64, 0
2, 81496, Note_on_c, 0, 76, 67
2, 81600, Note_on_c, 0, 76, 0
2, 81612, Note_on_c, 0, 84, 0
2, 81612, Note_on_c, 0, 72, 0
2, 81628, Note_on_c, 0, 73, 0
2, 81688, Note_on_c, 0, 73, 57
2, 81700, Note_on_c, 0, 76, 46
2, 81708, Note_on_c, 0, 69, 63
2, 81712, Note_on_c, 0, 79, 32
2, 81728, Note_on_c, 0, 76, 0
2, 81732, Note_on_c, 0, 69, 0
2, 81744, Note_on_c, 0, 79, 0
2, 81760, Note_on_c, 0, 73, 0
2, 81924, Control_c, 0, 64, 127
2, 81936, Note_on_c, 0, 51, 49
2, 81964, Note_on_c, 0, 51, 0
2, 82120, Note_on_c, 0, 70, 67
2, 82124, Control_c, 0, 64, 0
2, 82128, Note_on_c, 0, 64, 65
2, 82128, Note_on_c, 0, 60, 57
2, 82128, Note_on_c, 0, 66, 46
2, 82144, Note_on_c, 0, 50, 53
2, 82272, Control_c, 0, 64, 127
2, 82304, Note_on_c, 0, 64, 0
2, 82308, Note_on_c, 0, 60, 0
2, 82316, Note_on_c, 0, 70, 0
2, 82336, Note_on_c, 0, 66, 0
2, 82356, Control_c, 0, 64, 0
2, 82376, Note_on_c, 0, 64, 59
2, 82376, Note_on_c, 0, 69, 63
2, 82384, Note_on_c, 0, 60, 44
2, 82384, Note_on_c, 0, 66, 34
2, 82392, Note_on_c, 0, 57, 36
2, 82480, Control_c, 0, 64, 127
2, 82564, Note_on_c, 0, 57, 0
2, 82628, Note_on_c, 0, 50, 0
2, 82676, Note_on_c, 0, 64, 0
2, 82700, Note_on_c, 0, 60, 0
2, 82748, Note_on_c, 0, 66, 0
2, 82772, Note_on_c, 0, 69, 0
2, 82832, Note_on_c, 0, 64, 53
2, 82836, Note_on_c, 0, 66, 48
2, 82840, Control_c, 0, 64, 0
2, 82844, Note_on_c, 0, 54, 32
2, 82844, Note_on_c, 0, 60, 35
2, 82924, Control_c, 0, 64, 127
2, 82992, Note_on_c, 0, 60, 0
2, 83052, Note_on_c, 0, 44, 55
2, 83064, Note_on_c, 0, 60, 51
2, 83108, Control_c, 0, 64, 0
2, 83140, Control_c, 0, 64, 127
2, 83316, Note_on_c, 0, 54, 0
2, 83340, Note_on_c, 0, 44, 0
2, 83380, Note_on_c, 0, 60, 0
2, 83412, Note_on_c, 0, 64, 0
2, 83468, Note_on_c, 0, 66, 0
2, 83480, Note_on_c, 0, 49, 23
2, 83508, Note_on_c, 0, 52, 68
2, 83540, Control_c, 0, 64, 0
2, 83552, Note_on_c, 0, 69, 72
2, 83552, Note_on_c, 0, 64, 67
2, 83552, Note_on_c, 0, 59, 72
2, 83560, Note_on_c, 0, 53, 69
2, 83588, Note_on_c, 0, 52, 0
2, 83632, Note_on_c, 0, 49, 0
2, 83716, Note_on_c, 0, 69, 0
2, 83740, Note_on_c, 0, 67, 20
2, 83776, Note_on_c, 0, 64, 0
2, 83780, Note_on_c, 0, 59, 0
2, 83888, Note_on_c, 0, 67, 0
2, 83928, Note_on_c, 0, 53, 0
2, 83972, Note_on_c, 0, 63, 58
2, 83972, Note_on_c, 0, 52, 54
2, 83976, Note_on_c, 0, 58, 52
2, 83976, Note_on_c, 0, 68, 51
2, 84112, Note_on_c, 0, 63, 0
2, 84112, Note_on_c, 0, 58, 0
2, 84112, Note_on_c, 0, 68, 0
2, 84184, Note_on_c, 0, 52, 0
2, 84220, Note_on_c, 0, 64, 58
2, 84224, Note_on_c, 0, 53, 51
2, 84228, Note_on_c, 0, 69, 49
2, 84228, Note_on_c, 0, 59, 48
2, 84300, Note_on_c, 0, 69, 0
2, 84316, Note_on_c, 0, 64, 0
2, 84328, Note_on_c, 0, 53, 0
2, 84388, Note_on_c, 0, 59, 0
2, 84648, Note_on_c, 0, 43, 45
2, 84704, Control_c, 0, 64, 127
2, 84896, Control_c, 0, 64, 0
2, 84908, Note_on_c, 0, 53, 32
2, 84912, Note_on_c, 0, 59, 36
2, 84912, Note_on_c, 0, 62, 50
2, 84920, Note_on_c, 0, 50, 24
2, 85036, Control_c, 0, 64, 127
2, 85180, Note_on_c, 0, 50, 0
2, 85196, Note_on_c, 0, 53, 0
2, 85212, Note_on_c, 0, 59, 0
2, 85288, Note_on_c, 0, 62, 0
2, 85348, Note_on_c, 0, 64, 72
2, 85352, Note_on_c, 0, 52, 69
2, 85364, Note_on_c, 0, 59, 66
2, 85364, Note_on_c, 0, 53, 61
2, 85448, Note_on_c, 0, 53, 0
2, 85468, Note_on_c, 0, 64, 0
2, 85528, Note_on_c, 0, 52, 0
2, 85548, Note_on_c, 0, 59, 0
2, 85616, Note_on_c, 0, 59, 73
2, 85620, Control_c, 0, 64, 0
2, 85620, Note_on_c, 0, 65, 69
2, 85624, Note_on_c, 0, 53, 62
2, 85648, Note_on_c, 0, 55, 38
2, 85676, Note_on_c, 0, 55, 0
2, 85712, Control_c, 0, 64, 127
2, 85732, Note_on_c, 0, 65, 0
2, 85796, Note_on_c, 0, 59, 0
2, 85984, Note_on_c, 0, 53, 0
2, 86052, Note_on_c, 0, 66, 53
2, 86064, Note_on_c, 0, 43, 0
2, 86076, Note_on_c, 0, 61, 39
2, 86124, Note_on_c, 0, 50, 16
2, 86200, Note_on_c, 0, 66, 0
2, 86204, Note_on_c, 0, 61, 0
2, 86272, Note_on_c, 0, 50, 0
2, 86288, Control_c, 0, 64, 0
2, 86312, Note_on_c, 0, 64, 49
2, 86316, Note_on_c, 0, 67, 37
2, 86324, Note_on_c, 0, 55, 36
2, 86324, Note_on_c, 0, 58, 34
2, 86340, Note_on_c, 0, 48, 44
2, 86356, Note_on_c, 0, 55, 0
2, 86376, Note_on_c, 0, 48, 0
2, 86412, Control_c, 0, 64, 127
2, 86492, Note_on_c, 0, 58, 0
2, 86608, Note_on_c, 0, 64, 0
2, 86636, Note_on_c, 0, 67, 0
2, 86740, Note_on_c, 0, 36, 63
2, 86768, Note_on_c, 0, 36, 0
2, 87000, Note_on_c, 0, 84, 71
2, 87004, Note_on_c, 0, 80, 52
2, 87008, Note_on_c, 0, 70, 39
2, 87012, Note_on_c, 0, 76, 58
2, 87124, Note_on_c, 0, 76, 0
2, 87136, Note_on_c, 0, 84, 0
2, 87156, Note_on_c, 0, 80, 0
2, 87220, Note_on_c, 0, 78, 37
2, 87228, Note_on_c, 0, 82, 39
2, 87232, Note_on_c, 0, 70, 0
2, 87232, Note_on_c, 0, 68, 50
2, 87232, Note_on_c, 0, 74, 57
2, 87468, Note_on_c, 0, 82, 0
2, 87472, Note_on_c, 0, 78, 0
2, 87524, Note_on_c, 0, 74, 0
2, 87628, Control_c, 0, 64, 0
2, 87636, Note_on_c, 0, 68, 0
2, 87660, Control_c, 0, 64, 127
2, 87664, Note_on_c, 0, 80, 38
2, 87668, Note_on_c, 0, 72, 49
2, 87676, Note_on_c, 0, 67, 40
2, 87748, Note_on_c, 0, 72, 0
2, 87752, Note_on_c, 0, 80, 0
2, 87872, Note_on_c, 0, 67, 0
2, 87904, Note_on_c, 0, 70, 37
2, 87916, Note_on_c, 0, 64, 40
2, 87920, Note_on_c, 0, 74, 40
2, 87920, Note_on_c, 0, 78, 32
2, 87936, Control_c, 0, 64, 0
2, 88004, Control_c, 0, 64, 127
2, 88072, Note_on_c, 0, 74, 0
2, 88092, Note_on_c, 0, 78, 0
2, 88120, Note_on_c, 0, 70, 0
2, 88320, Note_on_c, 0, 64, 0
2, 88344, Note_on_c, 0, 61, 37
2, 88364, Note_on_c, 0, 72, 24
2, 88388, Note_on_c, 0, 72, 0
2, 88540, Note_on_c, 0, 61, 0
2, 88584, Note_on_c, 0, 60, 32
2, 88592, Control_c, 0, 64, 0
2, 88596, Note_on_c, 0, 74, 37
2, 88608, Control_c, 0, 64, 127
2, 88608, Note_on_c, 0, 70, 42
2, 88636, Note_on_c, 0, 64, 24
2, 88732, Note_on_c, 0, 74, 0
2, 88768, Note_on_c, 0, 60, 0
2, 88772, Note_on_c, 0, 70, 0
2, 88792, Note_on_c, 0, 64, 0
2, 88824, Note_on_c, 0, 58, 31
2, 89024, Control_c, 0, 64, 0
2, 89048, Note_on_c, 0, 58, 0
2, 89048, Note_on_c, 0, 62, 54
2, 89056, Note_on_c, 0, 72, 44
2, 89060, Note_on_c, 0, 67, 46
2, 89068, Note_on_c, 0, 57, 27
2, 89116, Control_c, 0, 64, 127
2, 89248, Note_on_c, 0, 57, 0
2, 89260, Note_on_c, 0, 72, 0
2, 89272, Note_on_c, 0, 67, 0
2, 89324, Note_on_c, 0, 62, 0
2, 89496, Note_on_c, 0, 60, 66
2, 89748, Note_on_c, 0, 59, 57
2, 89752, Note_on_c, 0, 62, 64
2, 89760, Control_c, 0, 64, 0
2, 89892, Control_c, 0, 64, 127
2, 90112, Note_on_c, 0, 60, 0
2, 90124, Note_on_c, 0, 62, 0
2, 90148, Note_on_c, 0, 59, 0
2, 90172, Note_on_c, 0, 41, 45
2, 90252, Note_on_c, 0, 41, 0
2, 90432, Control_c, 0, 64, 0
2, 90440, Note_on_c, 0, 54, 33
2, 90448, Note_on_c, 0, 60, 47
2, 90448, Note_on_c, 0, 42, 46
2, 90456, Note_on_c, 0, 57, 42
2, 90460, Note_on_c, 0, 51, 28
2, 90548, Control_c, 0, 64, 127
2, 90552, Note_on_c, 0, 57, 0
2, 90560, Note_on_c, 0, 54, 0
2, 90584, Note_on_c, 0, 60, 0
2, 90680, Note_on_c, 0, 42, 0
2, 90716, Note_on_c, 0, 51, 0
2, 90904, Note_on_c, 0, 63, 81
2, 90904, Note_on_c, 0, 74, 85
2, 90908, Note_on_c, 0, 66, 70
2, 90912, Note_on_c, 0, 69, 73
2, 90916, Note_on_c, 0, 64, 77
2, 90916, Note_on_c, 0, 62, 66
2, 91020, Note_on_c, 0, 64, 0
2, 91032, Control_c, 0, 64, 0
2, 91048, Note_on_c, 0, 63, 0
2, 91056, Note_on_c, 0, 69, 0
2, 91060, Note_on_c, 0, 74, 0
2, 91064, Note_on_c, 0, 66, 0
2, 91076, Note_on_c, 0, 62, 0
2, 91096, Note_on_c, 0, 60, 50
2, 91256, Note_on_c, 0, 60, 0
2, 91300, Note_on_c, 0, 69, 62
2, 91308, Note_on_c, 0, 63, 39
2, 91308, Note_on_c, 0, 57, 57
2, 91312, Note_on_c, 0, 66, 50
2, 91396, Note_on_c, 0, 69, 0
2, 91412, Note_on_c, 0, 63, 0
2, 91420, Note_on_c, 0, 66, 0
2, 91424, Control_c, 0, 64, 127
2, 91440, Control_c, 0, 64, 0
2, 91456, Note_on_c, 0, 57, 0
2, 91492, Note_on_c, 0, 66, 37
2, 91508, Control_c, 0, 64, 127
2, 91532, Note_on_c, 0, 62, 26
2, 91564, Note_on_c, 0, 62, 0
2, 91572, Note_on_c, 0, 66, 0
2, 91652, Note_on_c, 0, 54, 52
2, 91660, Note_on_c, 0, 44, 39
2, 91752, Note_on_c, 0, 44, 0
2, 91764, Note_on_c, 0, 54, 0
2, 91868, Note_on_c, 0, 62, 48
2, 91868, Note_on_c, 0, 58, 39
2, 91880, Control_c, 0, 64, 0
2, 91880, Note_on_c, 0, 43, 42
2, 91888, Note_on_c, 0, 53, 30
2, 92016, Control_c, 0, 64, 127
2, 92048, Note_on_c, 0, 43, 0
2, 92096, Note_on_c, 0, 58, 0
2, 92100, Note_on_c, 0, 53, 0
2, 92148, Note_on_c, 0, 62, 0
2, 92568, Note_on_c, 0, 62, 46
2, 92584, Note_on_c, 0, 58, 32
2, 92616, Note_on_c, 0, 60, 19
2, 92656, Note_on_c, 0, 60, 0
2, 92660, Note_on_c, 0, 62, 0
2, 92744, Note_on_c, 0, 58, 0
2, 93024, Note_on_c, 0, 70, 71
2, 93188, Note_on_c, 0, 70, 0
2, 93252, Note_on_c, 0, 62, 49
2, 93260, Note_on_c, 0, 59, 48
2, 93272, Note_on_c, 0, 47, 37
2, 93272, Note_on_c, 0, 56, 29
2, 93280, Control_c, 0, 64, 0
2, 93448, Control_c, 0, 64, 127
2, 93504, Note_on_c, 0, 59, 0
2, 93504, Note_on_c, 0, 47, 0
2, 93548, Note_on_c, 0, 56, 0
2, 93632, Note_on_c, 0, 62, 0
2, 93712, Note_on_c, 0, 63, 64
2, 93832, Note_on_c, 0, 63, 0
2, 93964, Control_c, 0, 64, 0
2, 93968, Note_on_c, 0, 64, 61
2, 93996, Note_on_c, 0, 59, 36
2, 93996, Note_on_c, 0, 53, 20
2, 94088, Control_c, 0, 64, 127
2, 94116, Note_on_c, 0, 59, 0
2, 94152, Note_on_c, 0, 64, 0
2, 94164, Note_on_c, 0, 65, 61
2, 94248, Note_on_c, 0, 53, 0
2, 94256, Note_on_c, 0, 65, 0
2, 94352, Note_on_c, 0, 69, 68
2, 94516, Note_on_c, 0, 70, 74
2, 94544, Note_on_c, 0, 69, 0
2, 94620, Note_on_c, 0, 70, 0
2, 94652, Control_c, 0, 64, 0
2, 94680, Note_on_c, 0, 55, 47
2, 94688, Note_on_c, 0, 45, 45
2, 94692, Note_on_c, 0, 71, 57
2, 94700, Note_on_c, 0, 52, 31
2, 94812, Note_on_c, 0, 71, 0
2, 94864, Note_on_c, 0, 72, 66
2, 94876, Note_on_c, 0, 55, 0
2, 94888, Control_c, 0, 64, 127
2, 94928, Note_on_c, 0, 45, 0
2, 94940, Note_on_c, 0, 52, 0
2, 94948, Note_on_c, 0, 72, 0
2, 95032, Note_on_c, 0, 60, 39
2, 95112, Note_on_c, 0, 60, 0
2, 95208, Note_on_c, 0, 60, 43
2, 95300, Note_on_c, 0, 60, 0
2, 95388, Note_on_c, 0, 62, 64
2, 95396, Note_on_c, 0, 57, 46
2, 95412, Control_c, 0, 64, 0
2, 95520, Control_c, 0, 64, 127
2, 95536, Note_on_c, 0, 62, 0
2, 95568, Note_on_c, 0, 57, 0
2, 95596, Note_on_c, 0, 60, 30
2, 95632, Note_on_c, 0, 60, 0
2, 95744, Note_on_c, 0, 65, 67
2, 95796, Note_on_c, 0, 65, 0
2, 95940, Note_on_c, 0, 76, 74
2, 96008, Note_on_c, 0, 76, 0
2, 96132, Note_on_c, 0, 70, 83
2, 96132, Note_on_c, 0, 77, 69
2, 96136, Note_on_c, 0, 74, 81
2, 96144, Note_on_c, 0, 67, 75
2, 96160, Note_on_c, 0, 63, 51
2, 96176, Control_c, 0, 64, 0
2, 96192, Note_on_c, 0, 65, 29
2, 96384, Control_c, 0, 64, 127
2, 96492, Note_on_c, 0, 65, 0
2, 96552, Note_on_c, 0, 67, 0
2, 96620, Note_on_c, 0, 74, 0
2, 96628, Note_on_c, 0, 70, 0
2, 96672, Note_on_c, 0, 63, 0
2, 96756, Note_on_c, 0, 77, 0
2, 96908, Note_on_c, 0, 73, 48
2, 96912, Note_on_c, 0, 77, 54
2, 96924, Note_on_c, 0, 69, 52
2, 96928, Note_on_c, 0, 63, 38
2, 96928, Note_on_c, 0, 57, 37
2, 96928, Note_on_c, 0, 67, 35
2, 96932, Control_c, 0, 64, 0
2, 97016, Control_c, 0, 64, 127
2, 97040, Note_on_c, 0, 67, 0
2, 97080, Note_on_c, 0, 77, 0
2, 97084, Note_on_c, 0, 63, 0
2, 97104, Note_on_c, 0, 57, 0
2, 97132, Note_on_c, 0, 69, 0
2, 97144, Note_on_c, 0, 73, 0
2, 97416, Note_on_c, 0, 72, 54
2, 97548, Note_on_c, 0, 72, 0
2, 97664, Note_on_c, 0, 62, 33
2, 97668, Note_on_c, 0, 65, 49
2, 97684, Note_on_c, 0, 58, 25
2, 97700, Control_c, 0, 64, 0
2, 97704, Note_on_c, 0, 50, 33
2, 97840, Control_c, 0, 64, 127
2, 97908, Note_on_c, 0, 65, 0
2, 97940, Note_on_c, 0, 58, 0
2, 97948, Note_on_c, 0, 62, 0
2, 98716, Note_on_c, 0, 50, 0
2, 98908, Note_on_c, 0, 72, 81
2, 98920, Note_on_c, 0, 71, 64
2, 98944, Note_on_c, 0, 71, 0
2, 99076, Note_on_c, 0, 72, 0
2, 99152, Note_on_c, 0, 61, 31
2, 99156, Control_c, 0, 64, 0
2, 99156, Note_on_c, 0, 39, 35
2, 99160, Note_on_c, 0, 69, 55
2, 99160, Note_on_c, 0, 65, 46
2, 99168, Note_on_c, 0, 46, 27
2, 99288, Control_c, 0, 64, 127
2, 99356, Note_on_c, 0, 39, 0
2, 99396, Note_on_c, 0, 46, 0
2, 99480, Note_on_c, 0, 61, 0
2, 99488, Note_on_c, 0, 65, 0
2, 99588, Note_on_c, 0, 69, 0
2, 99896, Note_on_c, 0, 65, 42
2, 99900, Note_on_c, 0, 61, 37
2, 99904, Note_on_c, 0, 58, 33
2, 99964, Note_on_c, 0, 65, 0
2, 100020, Note_on_c, 0, 61, 0
2, 100036, Note_on_c, 0, 58, 0
2, 100364, Note_on_c, 0, 74, 79
2, 100452, Note_on_c, 0, 74, 0
2, 100624, Note_on_c, 0, 72, 50
2, 100628, Note_on_c, 0, 52, 38
2, 100628, Note_on_c, 0, 55, 43
2, 100632, Note_on_c, 0, 45, 41
2, 100632, Note_on_c, 0, 67, 48
2, 100632, Note_on_c, 0, 60, 37
2, 100636, Control_c, 0, 64, 0
2, 100788, Control_c, 0, 64, 127
2, 100828, Note_on_c, 0, 45, 0
2, 100832, Note_on_c, 0, 60, 0
2, 100864, Note_on_c, 0, 52, 0
2, 100868, Note_on_c, 0, 67, 0
2, 100884, Note_on_c, 0, 55, 0
2, 100992, Note_on_c, 0, 72, 0
2, 101128, Note_on_c, 0, 72, 81
2, 101232, Note_on_c, 0, 72, 0
2, 101384, Note_on_c, 0, 64, 47
2, 101392, Note_on_c, 0, 60, 38
2, 101396, Control_c, 0, 64, 0
2, 101404, Note_on_c, 0, 59, 38
2, 101404, Note_on_c, 0, 55, 32
2, 101408, Note_on_c, 0, 72, 79
2, 101468, Note_on_c, 0, 72, 0
2, 101500, Note_on_c, 0, 74, 68
2, 101516, Note_on_c, 0, 64, 0
2, 101520, Note_on_c, 0, 60, 0
2, 101532, Note_on_c, 0, 59, 0
2, 101584, Note_on_c, 0, 72, 58
2, 101588, Note_on_c, 0, 74, 0
2, 101596, Note_on_c, 0, 55, 0
2, 101668, Note_on_c, 0, 72, 0
2, 101684, Note_on_c, 0, 71, 39
2, 101736, Note_on_c, 0, 71, 0
2, 101820, Note_on_c, 0, 72, 64
2, 101892, Note_on_c, 0, 72, 0
2, 101964, Note_on_c, 0, 74, 74
2, 102040, Note_on_c, 0, 74, 0
2, 102100, Note_on_c, 0, 75, 60
2, 102112, Note_on_c, 0, 60, 34
2, 102120, Note_on_c, 0, 54, 36
2, 102120, Note_on_c, 0, 50, 42
2, 102176, Note_on_c, 0, 75, 0
2, 102260, Note_on_c, 0, 76, 68
2, 102340, Note_on_c, 0, 76, 0
2, 102408, Note_on_c, 0, 77, 68
2, 102500, Note_on_c, 0, 50, 0
2, 102512, Note_on_c, 0, 60, 0
2, 102512, Note_on_c, 0, 77, 0
2, 102532, Note_on_c, 0, 54, 0
2, 102560, Control_c, 0, 64, 127
2, 102584, Note_on_c, 0, 66, 38
2, 102856, Note_on_c, 0, 65, 53
2, 102876, Note_on_c, 0, 54, 31
2, 102884, Note_on_c, 0, 58, 34
2, 102884, Note_on_c, 0, 60, 29
2, 102908, Note_on_c, 0, 66, 0
2, 102916, Note_on_c, 0, 65, 0
2, 102928, Note_on_c, 0, 60, 0
2, 102960, Note_on_c, 0, 58, 0
2, 102980, Note_on_c, 0, 54, 0
2, 103332, Note_on_c, 0, 44, 62
2, 103408, Note_on_c, 0, 44, 0
2, 103512, Control_c, 0, 64, 0
2, 103556, Note_on_c, 0, 43, 68
2, 103568, Control_c, 0, 64, 127
2, 103608, Note_on_c, 0, 43, 0
2, 103776, Note_on_c, 0, 72, 83
2, 103776, Note_on_c, 0, 69, 90
2, 103776, Note_on_c, 0, 65, 92
2, 103776, Note_on_c, 0, 62, 77
2, 103780, Note_on_c, 0, 58, 59
2, 103784, Note_on_c, 0, 60, 65
2, 103832, Control_c, 0, 64, 0
2, 103888, Note_on_c, 0, 62, 0
2, 103900, Note_on_c, 0, 69, 0
2, 103900, Note_on_c, 0, 65, 0
2, 103908, Note_on_c, 0, 60, 0
2, 103912, Note_on_c, 0, 72, 0
2, 103920, Note_on_c, 0, 58, 0
2, 103996, Note_on_c, 0, 72, 69
2, 104004, Note_on_c, 0, 65, 73
2, 104012, Note_on_c, 0, 69, 72
2, 104012, Note_on_c, 0, 62, 71
2, 104016, Note_on_c, 0, 58, 62
2, 104024, Note_on_c, 0, 60, 64
2, 104100, Note_on_c, 0, 72, 0
2, 104104, Note_on_c, 0, 65, 0
2, 104104, Note_on_c, 0, 62, 0
2, 104108, Note_on_c, 0, 60, 0
2, 104116, Note_on_c, 0, 69, 0
2, 104128, Note_on_c, 0, 58, 0
2, 104184, Control_c, 0, 64, 127
2, 104240, Note_on_c, 0, 72, 82
2, 104244, Note_on_c, 0, 69, 77
2, 104248, Note_on_c, 0, 65, 78
2, 104252, Note_on_c, 0, 62, 67
2, 104252, Note_on_c, 0, 58, 57
2, 104264, Note_on_c, 0, 60, 62
2, 104372, Note_on_c, 0, 72, 0
2, 104440, Note_on_c, 0, 69, 0
2, 104440, Note_on_c, 0, 65, 0
2, 104476, Note_on_c, 0, 65, 36
2, 104476, Note_on_c, 0, 74, 81
2, 104568, Note_on_c, 0, 62, 0
2, 104604, Note_on_c, 0, 65, 0
2, 104608, Note_on_c, 0, 60, 0
2, 104628, Note_on_c, 0, 74, 0
2, 104648, Note_on_c, 0, 58, 0
2, 104688, Note_on_c, 0, 72, 68
2, 104760, Note_on_c, 0, 72, 0
2, 104912, Note_on_c, 0, 75, 81
2, 104920, Note_on_c, 0, 63, 87
2, 104924, Note_on_c, 0, 68, 83
2, 104924, Note_on_c, 0, 72, 74
2, 104932, Control_c, 0, 64, 0
2, 104932, Note_on_c, 0, 58, 79
2, 104936, Note_on_c, 0, 64, 89
2, 105080, Note_on_c, 0, 63, 0
2, 105080, Note_on_c, 0, 68, 0
2, 105104, Note_on_c, 0, 75, 0
2, 105104, Note_on_c, 0, 64, 0
2, 105108, Note_on_c, 0, 72, 0
2, 105132, Note_on_c, 0, 58, 0
2, 105156, Control_c, 0, 64, 127
2, 105164, Note_on_c, 0, 75, 62
2, 105172, Note_on_c, 0, 64, 70
2, 105172, Note_on_c, 0, 58, 58
2, 105176, Note_on_c, 0, 63, 61
2, 105176, Note_on_c, 0, 68, 72
2, 105176, Note_on_c, 0, 72, 59
2, 105356, Note_on_c, 0, 64, 0
2, 105400, Note_on_c, 0, 58, 0
2, 105400, Note_on_c, 0, 72, 0
2, 105408, Note_on_c, 0, 63, 0
2, 105420, Note_on_c, 0, 75, 0
2, 105420, Note_on_c, 0, 68, 0
2, 105672, Control_c, 0, 64, 0
2, 105676, Note_on_c, 0, 68, 62
2, 105684, Note_on_c, 0, 58, 37
2, 105688, Note_on_c, 0, 64, 60
2, 105692, Note_on_c, 0, 72, 54
2, 105696, Note_on_c, 0, 52, 57
2, 105808, Control_c, 0, 64, 127
2, 106000, Note_on_c, 0, 58, 0
2, 106012, Note_on_c, 0, 72, 0
2, 106060, Note_on_c, 0, 68, 0
2, 106064, Note_on_c, 0, 64, 0
2, 106104, Note_on_c, 0, 52, 0
2, 106388, Control_c, 0, 64, 0
2, 106452, Note_on_c, 0, 45, 62
2, 106464, Control_c, 0, 64, 127
2, 106512, Note_on_c, 0, 45, 0
2, 106932, Note_on_c, 0, 60, 68
2, 106940, Note_on_c, 0, 65, 77
2, 106940, Note_on_c, 0, 55, 77
2, 106944, Note_on_c, 0, 61, 60
2, 106960, Note_on_c, 0, 58, 40
2, 106988, Note_on_c, 0, 58, 0
2, 107208, Note_on_c, 0, 81, 79
2, 107216, Note_on_c, 0, 69, 80
2, 107272, Note_on_c, 0, 69, 0
2, 107304, Note_on_c, 0, 81, 0
2, 107428, Note_on_c, 0, 84, 94
2, 107432, Note_on_c, 0, 72, 91
2, 107532, Note_on_c, 0, 72, 0
2, 107544, Note_on_c, 0, 65, 0
2, 107552, Note_on_c, 0, 84, 0
2, 107580, Note_on_c, 0, 61, 0
2, 107584, Note_on_c, 0, 60, 0
2, 107632, Note_on_c, 0, 55, 0
2, 107672, Note_on_c, 0, 86, 87
2, 107680, Note_on_c, 0, 74, 92
2, 107740, Note_on_c, 0, 74, 0
2, 107760, Note_on_c, 0, 86, 0
2, 107820, Note_on_c, 0, 72, 65
2, 107836, Note_on_c, 0, 86, 41
2, 107844, Note_on_c, 0, 72, 0
2, 107844, Note_on_c, 0, 84, 29
2, 107876, Note_on_c, 0, 84, 0
2, 107884, Note_on_c, 0, 86, 0
2, 107884, Note_on_c, 0, 38, 54
2, 107888, Control_c, 0, 64, 0
2, 107956, Note_on_c, 0, 38, 0
2, 107980, Control_c, 0, 64, 127
2, 107984, Note_on_c, 0, 89, 82
2, 107988, Note_on_c, 0, 77, 78
2, 108340, Note_on_c, 0, 65, 61
2, 108356, Note_on_c, 0, 60, 41
2, 108356, Note_on_c, 0, 58, 34
2, 108360, Note_on_c, 0, 54, 44
2, 108380, Note_on_c, 0, 77, 0
2, 108412, Note_on_c, 0, 89, 0
2, 108944, Note_on_c, 0, 65, 0
2, 108976, Note_on_c, 0, 60, 0
2, 108996, Note_on_c, 0, 58, 0
2, 109000, Note_on_c, 0, 54, 0
2, 109388, Control_c, 0, 64, 0
2, 109400, Note_on_c, 0, 43, 57
2, 109408, Note_on_c, 0, 50, 46
2, 109484, Control_c, 0, 64, 127
2, 109560, Note_on_c, 0, 43, 0
2, 109584, Note_on_c, 0, 50, 0
2, 109896, Note_on_c, 0, 67, 54
2, 109904, Note_on_c, 0, 63, 57
2, 109908, Note_on_c, 0, 58, 51
2, 109932, Note_on_c, 0, 59, 51
2, 109936, Note_on_c, 0, 53, 43
2, 110248, Note_on_c, 0, 59, 0
2, 110256, Note_on_c, 0, 53, 0
2, 110624, Note_on_c, 0, 58, 0
2, 110636, Note_on_c, 0, 63, 0
2, 110736, Note_on_c, 0, 67, 0
2, 111000, Control_c, 0, 64, 0
2, 111004, Note_on_c, 0, 58, 33
2, 111008, Note_on_c, 0, 36, 37
2, 111008, Note_on_c, 0, 61, 39
2, 111012, Note_on_c, 0, 43, 30
2, 111024, Note_on_c, 0, 67, 36
2, 111056, Note_on_c, 0, 64, 18
2, 111136, Control_c, 0, 64, 127
2, 111240, Note_on_c, 0, 64, 0
2, 111320, Note_on_c, 0, 36, 0
2, 111384, Note_on_c, 0, 58, 0
2, 111544, Note_on_c, 0, 61, 0
2, 111552, Note_on_c, 0, 67, 0
2, 111756, Note_on_c, 0, 61, 37
2, 111760, Note_on_c, 0, 58, 31
2, 111764, Note_on_c, 0, 52, 32
2, 112020, Note_on_c, 0, 58, 0
2, 112268, Note_on_c, 0, 61, 0
2, 112496, Note_on_c, 0, 64, 42
2, 112500, Note_on_c, 0, 57, 29
2, 112508, Control_c, 0, 64, 0
2, 112512, Note_on_c, 0, 60, 42
2, 112516, Note_on_c, 0, 65, 41
2, 112524, Note_on_c, 0, 43, 0
2, 112580, Note_on_c, 0, 52, 0
2, 112592, Control_c, 0, 64, 127
2, 112752, Note_on_c, 0, 57, 0
2, 112968, Note_on_c, 0, 57, 96
2, 113032, Note_on_c, 0, 60, 0
2, 113036, Note_on_c, 0, 65, 0
2, 113068, Note_on_c, 0, 64, 0
2, 113240, Note_on_c, 0, 65, 61
2, 113252, Note_on_c, 0, 60, 46
2, 113256, Note_on_c, 0, 64, 42
2, 113264, Control_c, 0, 64, 0
2, 113488, Note_on_c, 0, 48, 45
2, 113532, Control_c, 0, 64, 127
2, 113552, Note_on_c, 0, 64, 0
2, 113556, Note_on_c, 0, 57, 0
2, 113720, Note_on_c, 0, 60, 0
2, 113748, Note_on_c, 0, 50, 41
2, 113892, Note_on_c, 0, 48, 0
2, 113940, Note_on_c, 0, 50, 0
2, 113976, Note_on_c, 0, 57, 67
2, 113976, Note_on_c, 0, 63, 59
2, 113980, Note_on_c, 0, 60, 65
2, 114032, Control_c, 0, 64, 0
2, 114240, Control_c, 0, 64, 127
2, 114316, Control_c, 0, 64, 0
2, 114432, Control_c, 0, 64, 127
2, 114440, Note_on_c, 0, 51, 76
2, 114496, Note_on_c, 0, 57, 0
2, 114504, Note_on_c, 0, 60, 0
2, 114516, Note_on_c, 0, 63, 0
2, 114720, Note_on_c, 0, 57, 47
2, 114736, Note_on_c, 0, 63, 35
2, 114736, Note_on_c, 0, 60, 49
2, 114740, Control_c, 0, 64, 0
2, 114820, Note_on_c, 0, 57, 0
2, 114872, Control_c, 0, 64, 127
2, 115136, Note_on_c, 0, 60, 0
2, 115184, Note_on_c, 0, 65, 0
2, 115212, Note_on_c, 0, 63, 0
2, 115216, Note_on_c, 0, 57, 50
2, 115476, Note_on_c, 0, 70, 61
2, 115484, Note_on_c, 0, 58, 53
2, 115488, Note_on_c, 0, 62, 60
2, 115496, Note_on_c, 0, 65, 59
2, 115496, Control_c, 0, 64, 0
2, 115568, Note_on_c, 0, 57, 0
2, 115712, Control_c, 0, 64, 127
2, 115760, Note_on_c, 0, 58, 0
2, 115880, Control_c, 0, 64, 0
2, 115984, Note_on_c, 0, 58, 92
2, 115988, Control_c, 0, 64, 127
2, 115992, Note_on_c, 0, 51, 0
2, 116036, Note_on_c, 0, 62, 0
2, 116036, Note_on_c, 0, 65, 0
2, 116104, Note_on_c, 0, 70, 0
2, 116248, Control_c, 0, 64, 0
2, 116252, Note_on_c, 0, 70, 64
2, 116268, Note_on_c, 0, 62, 66
2, 116272, Note_on_c, 0, 65, 62
2, 116496, Note_on_c, 0, 50, 68
2, 116728, Control_c, 0, 64, 127
2, 116748, Note_on_c, 0, 51, 90
2, 116804, Note_on_c, 0, 50, 0
2, 116820, Note_on_c, 0, 58, 0
2, 116848, Note_on_c, 0, 65, 0
2, 116864, Note_on_c, 0, 62, 0
2, 116948, Note_on_c, 0, 70, 0
2, 116976, Note_on_c, 0, 51, 0
2, 117004, Note_on_c, 0, 58, 67
2, 117012, Note_on_c, 0, 62, 75
2, 117016, Note_on_c, 0, 52, 77
2, 117036, Control_c, 0, 64, 0
2, 117120, Note_on_c, 0, 52, 0
2, 117188, Control_c, 0, 64, 127
2, 117256, Note_on_c, 0, 36, 45
2, 117300, Note_on_c, 0, 62, 0
2, 117356, Note_on_c, 0, 58, 0
2, 117496, Note_on_c, 0, 48, 51
2, 117508, Note_on_c, 0, 36, 0
2, 117588, Note_on_c, 0, 48, 0
2, 117748, Note_on_c, 0, 64, 42
2, 117764, Note_on_c, 0, 55, 28
2, 117768, Note_on_c, 0, 58, 36
2, 117768, Note_on_c, 0, 61, 34
2, 117776, Note_on_c, 0, 52, 50
2, 117780, Note_on_c, 0, 64, 0
2, 117800, Note_on_c, 0, 61, 0
2, 117808, Note_on_c, 0, 58, 0
2, 117836, Note_on_c, 0, 55, 0
2, 117908, Note_on_c, 0, 52, 0
2, 117996, Note_on_c, 0, 58, 69
2, 117996, Note_on_c, 0, 61, 69
2, 118000, Note_on_c, 0, 55, 69
2, 118004, Note_on_c, 0, 64, 66
2, 118080, Note_on_c, 0, 58, 0
2, 118096, Note_on_c, 0, 55, 0
2, 118116, Note_on_c, 0, 64, 0
2, 118124, Note_on_c, 0, 61, 0
2, 118156, Note_on_c, 0, 58, 52
2, 118184, Note_on_c, 0, 52, 34
2, 118212, Note_on_c, 0, 58, 0
2, 118256, Note_on_c, 0, 52, 0
2, 118316, Note_on_c, 0, 73, 71
2, 118320, Note_on_c, 0, 63, 59
2, 118336, Note_on_c, 0, 68, 60
2, 118336, Note_on_c, 0, 56, 76
2, 118428, Note_on_c, 0, 68, 0
2, 118440, Note_on_c, 0, 73, 0
2, 118444, Note_on_c, 0, 63, 0
2, 118460, Note_on_c, 0, 56, 0
2, 118504, Note_on_c, 0, 72, 68
2, 118508, Control_c, 0, 64, 0
2, 118516, Note_on_c, 0, 67, 67
2, 118520, Note_on_c, 0, 57, 67
2, 118524, Note_on_c, 0, 60, 62
2, 118652, Control_c, 0, 64, 127
2, 118700, Note_on_c, 0, 57, 0
2, 118712, Note_on_c, 0, 45, 62
2, 118792, Note_on_c, 0, 45, 0
2, 118872, Note_on_c, 0, 60, 0
2, 118876, Note_on_c, 0, 67, 0
2, 118984, Note_on_c, 0, 72, 0
2, 119252, Note_on_c, 0, 65, 47
2, 119260, Note_on_c, 0, 60, 37
2, 119268, Note_on_c, 0, 62, 44
2, 119440, Note_on_c, 0, 65, 0
2, 119504, Note_on_c, 0, 62, 0
2, 119504, Note_on_c, 0, 76, 79
2, 119556, Note_on_c, 0, 60, 0
2, 119636, Note_on_c, 0, 76, 0
2, 119740, Note_on_c, 0, 77, 83
2, 119820, Note_on_c, 0, 77, 0
2, 119968, Control_c, 0, 64, 0
2, 119984, Note_on_c, 0, 79, 74
2, 119992, Note_on_c, 0, 70, 62
2, 119996, Note_on_c, 0, 74, 74
2, 120004, Note_on_c, 0, 67, 67
2, 120044, Note_on_c, 0, 70, 0
2, 120060, Note_on_c, 0, 74, 0
2, 120076, Control_c, 0, 64, 127
2, 120080, Note_on_c, 0, 79, 0
2, 120084, Note_on_c, 0, 67, 0
2, 120216, Control_c, 0, 64, 0
2, 120232, Note_on_c, 0, 86, 68
2, 120244, Note_on_c, 0, 75, 64
2, 120248, Note_on_c, 0, 79, 72
2, 120248, Note_on_c, 0, 67, 62
2, 120252, Note_on_c, 0, 63, 43
2, 120264, Note_on_c, 0, 57, 54
2, 120392, Control_c, 0, 64, 127
2, 120520, Note_on_c, 0, 86, 0
2, 120540, Note_on_c, 0, 67, 0
2, 120548, Note_on_c, 0, 57, 0
2, 120552, Note_on_c, 0, 79, 0
2, 120572, Note_on_c, 0, 75, 0
2, 120612, Note_on_c, 0, 63, 0
2, 120740, Note_on_c, 0, 84, 71
2, 120740, Note_on_c, 0, 66, 54
2, 120744, Note_on_c, 0, 78, 54
2, 120748, Note_on_c, 0, 74, 57
2, 120756, Note_on_c, 0, 57, 49
2, 120760, Note_on_c, 0, 63, 40
2, 120760, Control_c, 0, 64, 0
2, 120844, Control_c, 0, 64, 127
2, 120948, Note_on_c, 0, 74, 0
2, 120948, Note_on_c, 0, 57, 0
2, 120956, Note_on_c, 0, 66, 0
2, 120964, Note_on_c, 0, 78, 0
2, 120964, Note_on_c, 0, 63, 0
2, 120968, Note_on_c, 0, 84, 0
2, 121032, Note_on_c, 0, 74, 39
2, 121036, Note_on_c, 0, 66, 51
2, 121040, Note_on_c, 0, 82, 56
2, 121040, Note_on_c, 0, 57, 50
2, 121040, Note_on_c, 0, 63, 31
2, 121048, Control_c, 0, 64, 0
2, 121048, Note_on_c, 0, 78, 31
2, 121140, Control_c, 0, 64, 127
2, 121244, Note_on_c, 0, 66, 0
2, 121248, Note_on_c, 0, 57, 0
2, 121268, Note_on_c, 0, 74, 0
2, 121268, Note_on_c, 0, 78, 0
2, 121272, Note_on_c, 0, 82, 0
2, 121288, Note_on_c, 0, 63, 0
2, 121516, Control_c, 0, 64, 0
2, 121520, Note_on_c, 0, 81, 58
2, 121520, Note_on_c, 0, 74, 57
2, 121528, Note_on_c, 0, 65, 40
2, 121536, Note_on_c, 0, 62, 38
2, 121536, Note_on_c, 0, 69, 31
2, 121536, Note_on_c, 0, 60, 34
2, 121548, Note_on_c, 0, 55, 39
2, 121608, Control_c, 0, 64, 127
2, 121640, Note_on_c, 0, 81, 0
2, 121652, Note_on_c, 0, 74, 0
2, 121716, Note_on_c, 0, 69, 0
2, 121764, Note_on_c, 0, 65, 0
2, 121796, Note_on_c, 0, 62, 0
2, 121796, Note_on_c, 0, 77, 61
2, 121808, Note_on_c, 0, 60, 0
2, 121860, Note_on_c, 0, 55, 0
2, 121916, Note_on_c, 0, 77, 0
2, 122276, Control_c, 0, 64, 0
2, 122280, Note_on_c, 0, 65, 32
2, 122280, Note_on_c, 0, 69, 28
2, 122280, Note_on_c, 0, 74, 47
2, 122284, Note_on_c, 0, 57, 24
2, 122288, Note_on_c, 0, 50, 33
2, 122364, Control_c, 0, 64, 127
2, 122380, Note_on_c, 0, 69, 0
2, 122436, Note_on_c, 0, 65, 0
2, 122468, Note_on_c, 0, 74, 0
2, 122540, Note_on_c, 0, 57, 0
2, 122556, Note_on_c, 0, 60, 56
2, 122612, Note_on_c, 0, 50, 0
2, 122624, Note_on_c, 0, 60, 0
2, 122724, Note_on_c, 0, 65, 76
2, 122812, Note_on_c, 0, 65, 0
2, 122884, Note_on_c, 0, 69, 94
2, 122992, Note_on_c, 0, 69, 0
2, 123056, Note_on_c, 0, 46, 67
2, 123060, Note_on_c, 0, 70, 84
2, 123064, Note_on_c, 0, 39, 64
2, 123092, Control_c, 0, 64, 0
2, 123168, Note_on_c, 0, 70, 0
2, 123248, Note_on_c, 0, 72, 84
2, 123340, Control_c, 0, 64, 127
2, 123404, Note_on_c, 0, 39, 0
2, 123424, Note_on_c, 0, 69, 69
2, 123436, Note_on_c, 0, 46, 0
2, 123468, Note_on_c, 0, 72, 0
2, 123604, Note_on_c, 0, 69, 0
2, 123824, Note_on_c, 0, 61, 42
2, 123832, Note_on_c, 0, 65, 50
2, 123832, Note_on_c, 0, 55, 54
2, 123960, Note_on_c, 0, 65, 0
2, 124004, Note_on_c, 0, 61, 0
2, 124016, Note_on_c, 0, 55, 0
2, 124104, Note_on_c, 0, 81, 88
2, 124216, Note_on_c, 0, 81, 0
2, 124276, Note_on_c, 0, 82, 81
2, 124384, Note_on_c, 0, 82, 0
2, 124444, Note_on_c, 0, 84, 87
2, 124552, Note_on_c, 0, 84, 0
2, 124596, Control_c, 0, 64, 0
2, 124604, Note_on_c, 0, 81, 59
2, 124608, Note_on_c, 0, 72, 54
2, 124612, Note_on_c, 0, 45, 41
2, 124628, Note_on_c, 0, 52, 46
2, 124636, Note_on_c, 0, 57, 36
2, 124740, Control_c, 0, 64, 127
2, 124812, Note_on_c, 0, 45, 0
2, 124824, Note_on_c, 0, 52, 0
2, 124860, Note_on_c, 0, 57, 0
2, 124968, Note_on_c, 0, 72, 0
2, 125076, Note_on_c, 0, 81, 0
2, 125088, Note_on_c, 0, 72, 50
2, 125336, Note_on_c, 0, 72, 0
2, 125364, Note_on_c, 0, 65, 41
2, 125364, Note_on_c, 0, 55, 47
2, 125368, Note_on_c, 0, 61, 37
2, 125896, Note_on_c, 0, 55, 0
2, 125936, Note_on_c, 0, 65, 0
2, 126028, Note_on_c, 0, 61, 0
2, 126112, Note_on_c, 0, 54, 64
2, 126116, Note_on_c, 0, 60, 57
2, 126116, Note_on_c, 0, 65, 62
2, 126120, Note_on_c, 0, 89, 101
2, 126144, Control_c, 0, 64, 0
2, 126284, Note_on_c, 0, 65, 0
2, 126320, Note_on_c, 0, 89, 0
2, 126320, Note_on_c, 0, 86, 50
2, 126332, Note_on_c, 0, 60, 0
2, 126372, Note_on_c, 0, 82, 52
2, 126380, Note_on_c, 0, 54, 0
2, 126400, Note_on_c, 0, 86, 0
2, 126416, Note_on_c, 0, 78, 47
2, 126456, Note_on_c, 0, 78, 0
2, 126464, Note_on_c, 0, 82, 0
2, 126464, Note_on_c, 0, 77, 49
2, 126664, Note_on_c, 0, 77, 0
2, 126684, Note_on_c, 0, 75, 71
2, 126812, Note_on_c, 0, 75, 0
2, 126876, Note_on_c, 0, 54, 28
2, 126880, Note_on_c, 0, 60, 24
2, 126880, Note_on_c, 0, 74, 60
2, 126896, Note_on_c, 0, 50, 29
2, 127000, Note_on_c, 0, 60, 0
2, 127052, Note_on_c, 0, 74, 0
2, 127060, Note_on_c, 0, 54, 0
2, 127076, Note_on_c, 0, 50, 0
2, 127080, Note_on_c, 0, 72, 57
2, 127204, Note_on_c, 0, 72, 0
2, 127264, Note_on_c, 0, 71, 51
2, 127304, Control_c, 0, 64, 127
2, 127400, Note_on_c, 0, 71, 0
2, 127448, Note_on_c, 0, 69, 51
2, 127616, Note_on_c, 0, 69, 0
2, 127636, Note_on_c, 0, 70, 57
2, 127640, Note_on_c, 0, 50, 32
2, 127644, Note_on_c, 0, 43, 45
2, 127676, Control_c, 0, 64, 0
2, 127824, Note_on_c, 0, 70, 0
2, 127836, Control_c, 0, 64, 127
2, 127840, Note_on_c, 0, 43, 0
2, 127856, Note_on_c, 0, 66, 35
2, 127868, Note_on_c, 0, 50, 0
2, 127976, Note_on_c, 0, 66, 0
2, 128024, Note_on_c, 0, 69, 82
2, 128180, Note_on_c, 0, 69, 0
2, 128220, Note_on_c, 0, 67, 45
2, 128348, Note_on_c, 0, 62, 33
2, 128356, Note_on_c, 0, 67, 0
2, 128372, Note_on_c, 0, 58, 33
2, 128372, Note_on_c, 0, 60, 34
2, 128376, Control_c, 0, 64, 0
2, 128388, Note_on_c, 0, 62, 0
2, 128416, Note_on_c, 0, 64, 37
2, 128428, Note_on_c, 0, 60, 0
2, 128528, Note_on_c, 0, 64, 0
2, 128552, Note_on_c, 0, 58, 0
2, 128592, Note_on_c, 0, 62, 54
2, 128712, Note_on_c, 0, 62, 0
2, 128772, Note_on_c, 0, 63, 59
2, 128860, Control_c, 0, 64, 127
2, 128936, Note_on_c, 0, 63, 0
2, 128960, Note_on_c, 0, 64, 54
2, 129080, Note_on_c, 0, 64, 0
2, 129136, Note_on_c, 0, 58, 45
2, 129140, Note_on_c, 0, 67, 71
2, 129140, Note_on_c, 0, 48, 53
2, 129152, Control_c, 0, 64, 0
2, 129316, Note_on_c, 0, 67, 0
2, 129324, Control_c, 0, 64, 127
2, 129372, Note_on_c, 0, 64, 24
2, 129476, Note_on_c, 0, 58, 0
2, 129476, Note_on_c, 0, 64, 0
2, 129552, Note_on_c, 0, 60, 43
2, 129572, Note_on_c, 0, 48, 0
2, 129580, Note_on_c, 0, 60, 0
2, 129920, Note_on_c, 0, 79, 88
2, 129924, Note_on_c, 0, 72, 89
2, 129928, Note_on_c, 0, 67, 90
2, 129932, Note_on_c, 0, 55, 84
2, 129932, Note_on_c, 0, 76, 70
2, 129960, Note_on_c, 0, 76, 0
2, 129960, Control_c, 0, 64, 0
2, 130072, Note_on_c, 0, 67, 0
2, 130080, Note_on_c, 0, 72, 0
2, 130096, Note_on_c, 0, 79, 0
2, 130140, Note_on_c, 0, 76, 62
2, 130256, Note_on_c, 0, 76, 0
2, 130292, Control_c, 0, 64, 127
2, 130312, Note_on_c, 0, 46, 69
2, 130324, Note_on_c, 0, 67, 55
2, 130340, Note_on_c, 0, 72, 24
2, 130372, Note_on_c, 0, 72, 0
2, 130384, Note_on_c, 0, 67, 0
2, 130616, Note_on_c, 0, 55, 0
2, 130676, Note_on_c, 0, 46, 0
2, 130704, Note_on_c, 0, 72, 76
2, 130708, Note_on_c, 0, 60, 70
2, 130708, Note_on_c, 0, 67, 73
2, 130720, Note_on_c, 0, 55, 62
2, 130720, Note_on_c, 0, 45, 65
2, 130724, Control_c, 0, 64, 0
2, 130844, Note_on_c, 0, 67, 0
2, 130848, Note_on_c, 0, 60, 0
2, 130880, Note_on_c, 0, 72, 0
2, 130912, Note_on_c, 0, 69, 60
2, 130948, Control_c, 0, 64, 127
2, 130988, Note_on_c, 0, 55, 0
2, 131016, Note_on_c, 0, 69, 0
2, 131072, Note_on_c, 0, 60, 47
2, 131128, Note_on_c, 0, 66, 23
2, 131160, Note_on_c, 0, 66, 0
2, 131312, Note_on_c, 0, 60, 0
2, 131480, Note_on_c, 0, 55, 56
2, 131484, Note_on_c, 0, 64, 56
2, 131484, Note_on_c, 0, 60, 54
2, 131516, Control_c, 0, 64, 0
2, 131524, Note_on_c, 0, 55, 0
2, 131548, Note_on_c, 0, 60, 0
2, 131564, Note_on_c, 0, 64, 0
2, 131572, Note_on_c, 0, 45, 0
2, 131728, Note_on_c, 0, 55, 80
2, 131732, Note_on_c, 0, 39, 61
2, 131880, Control_c, 0, 64, 127
2, 132068, Note_on_c, 0, 39, 0
2, 132112, Note_on_c, 0, 55, 0
2, 132188, Control_c, 0, 64, 0
2, 132208, Note_on_c, 0, 54, 53
2, 132212, Note_on_c, 0, 38, 60
2, 132256, Control_c, 0, 64, 127
2, 132272, Note_on_c, 0, 54, 0
2, 132412, Note_on_c, 0, 38, 0
2, 132508, Note_on_c, 0, 65, 71
2, 132576, Note_on_c, 0, 65, 0
2, 132740, Note_on_c, 0, 68, 91
2, 132888, Note_on_c, 0, 68, 0
2, 132992, Note_on_c, 0, 71, 87
2, 132992, Note_on_c, 0, 68, 81
2, 132992, Note_on_c, 0, 64, 88
2, 133000, Note_on_c, 0, 60, 63
2, 133004, Note_on_c, 0, 54, 71
2, 133024, Control_c, 0, 64, 0
2, 133216, Note_on_c, 0, 64, 0
2, 133232, Control_c, 0, 64, 127
2, 133236, Note_on_c, 0, 64, 29
2, 133244, Note_on_c, 0, 74, 82
2, 133292, Note_on_c, 0, 71, 0
2, 133424, Note_on_c, 0, 64, 0
2, 133440, Note_on_c, 0, 68, 0
2, 133468, Note_on_c, 0, 74, 0
2, 133476, Note_on_c, 0, 60, 0
2, 133500, Note_on_c, 0, 72, 62
2, 133512, Note_on_c, 0, 54, 0
2, 133744, Note_on_c, 0, 72, 0
2, 133760, Note_on_c, 0, 55, 51
2, 133764, Note_on_c, 0, 69, 48
2, 133768, Note_on_c, 0, 62, 48
2, 133768, Note_on_c, 0, 58, 39
2, 133772, Control_c, 0, 64, 0
2, 133880, Control_c, 0, 64, 127
2, 133916, Note_on_c, 0, 62, 0
2, 133956, Note_on_c, 0, 58, 0
2, 133972, Note_on_c, 0, 55, 0
2, 134196, Note_on_c, 0, 69, 0
2, 134252, Note_on_c, 0, 43, 54
2, 134556, Note_on_c, 0, 53, 41
2, 134556, Note_on_c, 0, 62, 44
2, 134560, Note_on_c, 0, 65, 51
2, 134564, Note_on_c, 0, 58, 25
2, 134572, Control_c, 0, 64, 0
2, 134656, Note_on_c, 0, 43, 0
2, 134672, Control_c, 0, 64, 127
2, 134712, Note_on_c, 0, 53, 0
2, 135036, Note_on_c, 0, 62, 0
2, 135044, Note_on_c, 0, 65, 0
2, 135056, Note_on_c, 0, 43, 32
2, 135100, Note_on_c, 0, 58, 0
2, 135296, Control_c, 0, 64, 0
2, 135324, Note_on_c, 0, 36, 28
2, 135336, Note_on_c, 0, 52, 47
2, 135336, Note_on_c, 0, 61, 34
2, 135340, Note_on_c, 0, 58, 25
2, 135344, Note_on_c, 0, 64, 36
2, 135360, Note_on_c, 0, 36, 0
2, 135360, Control_c, 0, 64, 127
2, 135376, Note_on_c, 0, 58, 0
2, 135392, Note_on_c, 0, 64, 0
2, 135400, Note_on_c, 0, 43, 0
2, 135404, Note_on_c, 0, 61, 0
2, 135412, Note_on_c, 0, 52, 0
2, 135856, Note_on_c, 0, 75, 69
2, 135856, Note_on_c, 0, 68, 75
2, 135864, Note_on_c, 0, 72, 68
2, 135864, Note_on_c, 0, 64, 76
2, 136020, Note_on_c, 0, 68, 0
2, 136020, Note_on_c, 0, 72, 0
2, 136024, Note_on_c, 0, 64, 0
2, 136040, Note_on_c, 0, 75, 0
2, 136132, Note_on_c, 0, 75, 69
2, 136144, Note_on_c, 0, 64, 71
2, 136148, Note_on_c, 0, 68, 67
2, 136148, Note_on_c, 0, 61, 59
2, 136148, Note_on_c, 0, 72, 62
2, 136152, Control_c, 0, 64, 0
2, 136276, Note_on_c, 0, 72, 0
2, 136300, Note_on_c, 0, 64, 0
2, 136304, Note_on_c, 0, 68, 0
2, 136316, Note_on_c, 0, 75, 0
2, 136328, Note_on_c, 0, 61, 0
2, 136360, Note_on_c, 0, 73, 62
2, 136384, Note_on_c, 0, 64, 55
2, 136388, Note_on_c, 0, 60, 27
2, 136392, Note_on_c, 0, 68, 46
2, 136472, Note_on_c, 0, 64, 0
2, 136492, Note_on_c, 0, 73, 0
2, 136496, Note_on_c, 0, 68, 0
2, 136588, Note_on_c, 0, 72, 34
2, 136620, Control_c, 0, 64, 127
2, 136648, Note_on_c, 0, 72, 0
2, 136696, Note_on_c, 0, 60, 0
2, 136748, Note_on_c, 0, 70, 39
2, 136760, Note_on_c, 0, 58, 35
2, 136876, Note_on_c, 0, 70, 0
2, 136904, Control_c, 0, 64, 0
2, 136924, Note_on_c, 0, 58, 0
2, 136944, Note_on_c, 0, 57, 46
2, 136944, Note_on_c, 0, 72, 45
2, 136952, Note_on_c, 0, 62, 27
2, 136956, Note_on_c, 0, 67, 31
2, 137020, Control_c, 0, 64, 127
2, 137048, Note_on_c, 0, 72, 0
2, 137064, Note_on_c, 0, 67, 0
2, 137104, Note_on_c, 0, 57, 0
2, 137120, Note_on_c, 0, 62, 0
2, 137380, Note_on_c, 0, 60, 41
2, 137440, Note_on_c, 0, 60, 0
2, 137492, Note_on_c, 0, 62, 65
2, 137548, Note_on_c, 0, 60, 53
2, 137572, Note_on_c, 0, 62, 0
2, 137636, Note_on_c, 0, 60, 0
2, 137636, Note_on_c, 0, 59, 60
2, 137696, Note_on_c, 0, 59, 0
2, 137744, Control_c, 0, 64, 0
2, 137748, Note_on_c, 0, 48, 42
2, 137772, Note_on_c, 0, 60, 83
2, 137956, Note_on_c, 0, 62, 80
2, 138000, Note_on_c, 0, 60, 0
2, 138016, Control_c, 0, 64, 127
2, 138060, Note_on_c, 0, 48, 0
2, 138124, Note_on_c, 0, 62, 0
2, 138164, Note_on_c, 0, 59, 55
2, 138320, Note_on_c, 0, 59, 0
2, 138352, Note_on_c, 0, 60, 73
2, 138516, Note_on_c, 0, 60, 0
2, 138576, Note_on_c, 0, 62, 77
2, 138576, Note_on_c, 0, 51, 42
2, 138580, Note_on_c, 0, 42, 47
2, 138600, Control_c, 0, 64, 0
2, 138768, Control_c, 0, 64, 127
2, 138784, Note_on_c, 0, 63, 80
2, 138800, Note_on_c, 0, 62, 0
2, 138860, Note_on_c, 0, 42, 0
2, 138888, Note_on_c, 0, 51, 0
2, 138952, Note_on_c, 0, 63, 0
2, 139380, Note_on_c, 0, 65, 75
2, 139392, Note_on_c, 0, 63, 45
2, 139424, Note_on_c, 0, 54, 29
2, 139432, Note_on_c, 0, 60, 30
2, 139444, Note_on_c, 0, 57, 31
2, 139548, Note_on_c, 0, 65, 0
2, 139648, Note_on_c, 0, 69, 79
2, 139660, Note_on_c, 0, 63, 0
2, 139696, Note_on_c, 0, 60, 0
2, 139708, Note_on_c, 0, 57, 0
2, 139792, Note_on_c, 0, 54, 0
2, 140132, Note_on_c, 0, 69, 0
2, 140216, Control_c, 0, 64, 0
2, 140224, Note_on_c, 0, 66, 43
2, 140240, Note_on_c, 0, 43, 35
2, 140248, Note_on_c, 0, 50, 28
2, 140424, Note_on_c, 0, 66, 0
2, 140432, Control_c, 0, 64, 127
2, 140448, Note_on_c, 0, 67, 54
2, 140464, Note_on_c, 0, 43, 0
2, 140496, Note_on_c, 0, 50, 0
2, 140516, Control_c, 0, 64, 0
2, 140556, Note_on_c, 0, 67, 0
2, 140660, Note_on_c, 0, 69, 43
2, 140696, Note_on_c, 0, 69, 0
2, 140868, Note_on_c, 0, 70, 65
2, 140952, Note_on_c, 0, 70, 0
2, 141060, Note_on_c, 0, 74, 58
2, 141064, Note_on_c, 0, 62, 34
2, 141076, Note_on_c, 0, 60, 31
2, 141084, Note_on_c, 0, 58, 27
2, 141124, Note_on_c, 0, 62, 0
2, 141136, Note_on_c, 0, 60, 0
2, 141144, Note_on_c, 0, 74, 0
2, 141184, Note_on_c, 0, 58, 0
2, 141276, Note_on_c, 0, 77, 45
2, 141332, Note_on_c, 0, 77, 0
2, 141460, Note_on_c, 0, 81, 37
2, 141496, Control_c, 0, 64, 127
2, 141528, Note_on_c, 0, 81, 0
2, 141652, Note_on_c, 0, 84, 75
2, 141668, Note_on_c, 0, 72, 49
2, 141704, Note_on_c, 0, 72, 0
2, 141720, Note_on_c, 0, 84, 0
2, 141832, Note_on_c, 0, 85, 54
2, 141848, Note_on_c, 0, 56, 39
2, 141852, Note_on_c, 0, 47, 49
2, 141856, Note_on_c, 0, 73, 51
2, 141856, Control_c, 0, 64, 0
2, 141944, Note_on_c, 0, 85, 0
2, 141972, Note_on_c, 0, 73, 0
2, 141988, Note_on_c, 0, 74, 48
2, 142016, Note_on_c, 0, 47, 0
2, 142028, Note_on_c, 0, 74, 0
2, 142056, Note_on_c, 0, 56, 0
2, 142076, Note_on_c, 0, 86, 47
2, 142156, Note_on_c, 0, 74, 62
2, 142160, Note_on_c, 0, 86, 0
2, 142220, Note_on_c, 0, 74, 0
2, 142328, Note_on_c, 0, 71, 56
2, 142328, Note_on_c, 0, 83, 44
2, 142396, Note_on_c, 0, 83, 0
2, 142408, Note_on_c, 0, 71, 0
2, 142432, Control_c, 0, 64, 127
2, 142628, Control_c, 0, 64, 0
2, 142628, Note_on_c, 0, 62, 53
2, 142644, Note_on_c, 0, 56, 31
2, 142648, Note_on_c, 0, 53, 42
2, 142656, Note_on_c, 0, 59, 40
2, 142732, Control_c, 0, 64, 127
2, 142880, Note_on_c, 0, 80, 70
2, 142884, Note_on_c, 0, 68, 71
2, 142948, Note_on_c, 0, 62, 0
2, 142948, Note_on_c, 0, 59, 0
2, 143008, Note_on_c, 0, 56, 0
2, 143016, Note_on_c, 0, 53, 0
2, 143124, Note_on_c, 0, 68, 0
2, 143132, Note_on_c, 0, 80, 0
2, 143408, Note_on_c, 0, 45, 53
2, 143424, Note_on_c, 0, 53, 47
2, 143432, Note_on_c, 0, 57, 45
2, 143436, Control_c, 0, 64, 0
2, 143552, Control_c, 0, 64, 127
2, 143680, Note_on_c, 0, 45, 0
2, 143716, Note_on_c, 0, 57, 0
2, 143724, Note_on_c, 0, 53, 0
2, 143944, Note_on_c, 0, 84, 87
2, 143952, Note_on_c, 0, 72, 83
2, 144080, Note_on_c, 0, 72, 0
2, 144120, Note_on_c, 0, 84, 0
2, 144236, Note_on_c, 0, 64, 60
2, 144236, Note_on_c, 0, 57, 50
2, 144252, Note_on_c, 0, 60, 49
2, 144280, Control_c, 0, 64, 0
2, 144436, Control_c, 0, 64, 127
2, 144644, Note_on_c, 0, 64, 0
2, 144648, Note_on_c, 0, 89, 91
2, 144652, Note_on_c, 0, 77, 95
2, 144660, Note_on_c, 0, 60, 0
2, 144664, Note_on_c, 0, 57, 0
2, 144760, Note_on_c, 0, 89, 0
2, 144760, Note_on_c, 0, 77, 0
2, 144864, Note_on_c, 0, 89, 90
2, 144868, Note_on_c, 0, 77, 83
2, 144960, Note_on_c, 0, 77, 0
2, 144968, Note_on_c, 0, 89, 0
2, 145032, Note_on_c, 0, 86, 62
2, 145036, Control_c, 0, 64, 0
2, 145044, Note_on_c, 0, 67, 57
2, 145048, Note_on_c, 0, 63, 35
2, 145052, Note_on_c, 0, 62, 45
2, 145060, Note_on_c, 0, 58, 37
2, 145136, Note_on_c, 0, 86, 0
2, 145224, Note_on_c, 0, 89, 85
2, 145232, Note_on_c, 0, 77, 79
2, 145320, Note_on_c, 0, 77, 0
2, 145328, Control_c, 0, 64, 127
2, 145332, Note_on_c, 0, 89, 0
2, 145428, Note_on_c, 0, 89, 80
2, 145432, Note_on_c, 0, 77, 79
2, 145448, Note_on_c, 0, 88, 42
2, 145476, Note_on_c, 0, 88, 0
2, 145504, Note_on_c, 0, 77, 0
2, 145524, Note_on_c, 0, 89, 0
2, 145556, Note_on_c, 0, 62, 0
2, 145584, Note_on_c, 0, 86, 60
2, 145620, Note_on_c, 0, 86, 0
2, 145676, Note_on_c, 0, 67, 0
2, 145708, Note_on_c, 0, 63, 0
2, 145756, Note_on_c, 0, 86, 71
2, 145776, Note_on_c, 0, 58, 0
2, 145844, Note_on_c, 0, 86, 0
2, 145876, Control_c, 0, 64, 0
2, 145892, Note_on_c, 0, 66, 57
2, 145896, Note_on_c, 0, 57, 51
2, 145900, Note_on_c, 0, 63, 45
2, 145904, Note_on_c, 0, 77, 74
2, 145904, Note_on_c, 0, 89, 83
2, 145908, Note_on_c, 0, 61, 44
2, 145980, Note_on_c, 0, 77, 0
2, 145988, Note_on_c, 0, 89, 0
2, 146060, Control_c, 0, 64, 127
2, 146084, Note_on_c, 0, 89, 74
2, 146092, Note_on_c, 0, 77, 65
2, 146164, Note_on_c, 0, 77, 0
2, 146180, Note_on_c, 0, 89, 0
2, 146216, Note_on_c, 0, 66, 0
2, 146248, Note_on_c, 0, 86, 55
2, 146284, Note_on_c, 0, 86, 0
2, 146296, Note_on_c, 0, 63, 0
2, 146320, Note_on_c, 0, 57, 0
2, 146332, Note_on_c, 0, 61, 0
2, 146412, Note_on_c, 0, 86, 65
2, 146516, Note_on_c, 0, 86, 0
2, 146676, Note_on_c, 0, 58, 39
2, 146676, Note_on_c, 0, 89, 74
2, 146680, Note_on_c, 0, 77, 59
2, 146684, Note_on_c, 0, 50, 47
2, 146700, Control_c, 0, 64, 0
2, 146824, Control_c, 0, 64, 127
2, 146948, Note_on_c, 0, 50, 0
2, 147000, Note_on_c, 0, 58, 0
2, 147012, Note_on_c, 0, 77, 0
2, 147112, Note_on_c, 0, 89, 0
2, 147164, Note_on_c, 0, 77, 51
2, 147352, Note_on_c, 0, 77, 0
2, 147468, Note_on_c, 0, 58, 45
2, 147472, Note_on_c, 0, 62, 54
2, 147584, Control_c, 0, 64, 0
2, 147708, Control_c, 0, 64, 127
2, 147808, Note_on_c, 0, 62, 0
2, 147856, Note_on_c, 0, 58, 0
2, 147916, Note_on_c, 0, 77, 75
2, 147976, Note_on_c, 0, 77, 0
2, 148096, Note_on_c, 0, 77, 76
2, 148148, Note_on_c, 0, 77, 0
2, 148288, Note_on_c, 0, 39, 62
2, 148292, Note_on_c, 0, 84, 89
2, 148292, Note_on_c, 0, 46, 60
2, 148316, Control_c, 0, 64, 0
2, 148428, Note_on_c, 0, 39, 0
2, 148440, Note_on_c, 0, 83, 67
2, 148452, Note_on_c, 0, 46, 0
2, 148472, Note_on_c, 0, 84, 0
2, 148500, Note_on_c, 0, 82, 59
2, 148520, Note_on_c, 0, 83, 0
2, 148580, Note_on_c, 0, 81, 63
2, 148628, Note_on_c, 0, 82, 0
2, 148640, Note_on_c, 0, 81, 0
2, 148756, Note_on_c, 0, 81, 88
2, 148884, Control_c, 0, 64, 127
2, 148916, Note_on_c, 0, 80, 54
2, 148924, Note_on_c, 0, 81, 0
2, 148960, Note_on_c, 0, 79, 55
2, 149008, Note_on_c, 0, 80, 0
2, 149040, Control_c, 0, 64, 0
2, 149060, Note_on_c, 0, 65, 41
2, 149060, Note_on_c, 0, 61, 42
2, 149068, Note_on_c, 0, 55, 43
2, 149080, Note_on_c, 0, 79, 0
2, 149084, Note_on_c, 0, 77, 65
2, 149240, Note_on_c, 0, 77, 0
2, 149296, Note_on_c, 0, 74, 71
2, 149380, Control_c, 0, 64, 127
2, 149412, Note_on_c, 0, 74, 0
2, 149420, Note_on_c, 0, 65, 0
2, 149484, Note_on_c, 0, 72, 40
2, 149512, Note_on_c, 0, 61, 0
2, 149552, Note_on_c, 0, 55, 0
2, 149588, Note_on_c, 0, 72, 0
2, 149656, Note_on_c, 0, 70, 62
2, 149764, Note_on_c, 0, 70, 0
2, 149824, Control_c, 0, 64, 0
2, 149828, Note_on_c, 0, 55, 43
2, 149832, Note_on_c, 0, 45, 35
2, 149836, Note_on_c, 0, 52, 40
2, 149848, Note_on_c, 0, 69, 47
2, 149960, Note_on_c, 0, 69, 0
2, 150032, Control_c, 0, 64, 127
2, 150048, Note_on_c, 0, 60, 47
2, 150184, Note_on_c, 0, 45, 0
2, 150192, Note_on_c, 0, 60, 0
2, 150196, Note_on_c, 0, 52, 0
2, 150228, Note_on_c, 0, 55, 0
2, 150264, Note_on_c, 0, 62, 72
2, 150440, Note_on_c, 0, 62, 0
2, 150468, Note_on_c, 0, 60, 53
2, 150524, Note_on_c, 0, 60, 0
2, 150656, Control_c, 0, 64, 0
2, 150660, Note_on_c, 0, 65, 67
2, 150660, Note_on_c, 0, 57, 44
2, 150664, Note_on_c, 0, 60, 37
2, 150696, Note_on_c, 0, 60, 0
2, 150736, Note_on_c, 0, 57, 0
2, 150908, Note_on_c, 0, 38, 68
2, 150972, Note_on_c, 0, 38, 0
2, 150980, Control_c, 0, 64, 127
2, 151192, Note_on_c, 0, 55, 87
2, 151196, Note_on_c, 0, 65, 0
2, 151204, Note_on_c, 0, 39, 60
2, 151416, Note_on_c, 0, 39, 0
2, 151432, Note_on_c, 0, 55, 0
2, 151456, Note_on_c, 0, 54, 69
2, 151472, Note_on_c, 0, 50, 54
2, 151476, Note_on_c, 0, 38, 50
2, 151480, Control_c, 0, 64, 0
2, 151604, Control_c, 0, 64, 127
2, 151708, Note_on_c, 0, 54, 0
2, 151748, Note_on_c, 0, 38, 0
2, 151820, Note_on_c, 0, 50, 0
2, 152260, Note_on_c, 0, 54, 53
2, 152264, Note_on_c, 0, 60, 46
2, 152268, Note_on_c, 0, 65, 45
2, 152268, Note_on_c, 0, 58, 53
2, 152280, Control_c, 0, 64, 0
2, 152300, Note_on_c, 0, 63, 30
2, 152412, Control_c, 0, 64, 127
2, 152696, Note_on_c, 0, 54, 0
2, 152740, Note_on_c, 0, 60, 0
2, 152764, Note_on_c, 0, 50, 51
2, 152820, Note_on_c, 0, 58, 0
2, 152832, Note_on_c, 0, 65, 0
2, 152848, Note_on_c, 0, 63, 0
2, 152892, Note_on_c, 0, 50, 0
2, 153036, Control_c, 0, 64, 0
2, 153040, Note_on_c, 0, 43, 57
2, 153060, Control_c, 0, 64, 127
2, 153076, Note_on_c, 0, 43, 0
2, 153484, Note_on_c, 0, 70, 88
2, 153488, Note_on_c, 0, 61, 95
2, 153488, Note_on_c, 0, 66, 88
2, 153492, Note_on_c, 0, 56, 83
2, 153720, Note_on_c, 0, 61, 0
2, 153780, Note_on_c, 0, 70, 0
2, 153780, Note_on_c, 0, 66, 0
2, 153848, Note_on_c, 0, 56, 0
2, 153848, Note_on_c, 0, 58, 74
2, 153852, Control_c, 0, 64, 0
2, 153852, Note_on_c, 0, 68, 84
2, 153852, Note_on_c, 0, 72, 89
2, 153856, Note_on_c, 0, 63, 88
2, 154020, Control_c, 0, 64, 127
2, 154128, Note_on_c, 0, 63, 0
2, 154144, Note_on_c, 0, 72, 0
2, 154196, Note_on_c, 0, 68, 0
2, 154244, Note_on_c, 0, 70, 60
2, 154252, Note_on_c, 0, 66, 62
2, 154252, Control_c, 0, 64, 0
2, 154256, Note_on_c, 0, 61, 55
2, 154264, Note_on_c, 0, 56, 47
2, 154284, Note_on_c, 0, 58, 0
2, 154344, Control_c, 0, 64, 127
2, 154436, Note_on_c, 0, 61, 0
2, 154508, Note_on_c, 0, 66, 0
2, 154576, Note_on_c, 0, 70, 0
2, 154584, Note_on_c, 0, 56, 0
2, 154644, Note_on_c, 0, 58, 48
2, 154648, Note_on_c, 0, 68, 60
2, 154652, Note_on_c, 0, 72, 61
2, 154656, Note_on_c, 0, 64, 58
2, 154668, Control_c, 0, 64, 0
2, 154784, Control_c, 0, 64, 127
2, 154896, Note_on_c, 0, 58, 0
2, 155052, Note_on_c, 0, 57, 71
2, 155148, Note_on_c, 0, 72, 0
2, 155228, Note_on_c, 0, 68, 0
2, 155244, Note_on_c, 0, 64, 0
2, 155264, Note_on_c, 0, 56, 67
2, 155280, Note_on_c, 0, 57, 0
2, 155444, Note_on_c, 0, 56, 0
2, 155468, Note_on_c, 0, 69, 53
2, 155468, Note_on_c, 0, 61, 58
2, 155476, Note_on_c, 0, 58, 42
2, 155484, Note_on_c, 0, 55, 51
2, 155484, Control_c, 0, 64, 0
2, 155488, Note_on_c, 0, 64, 48
2, 155676, Control_c, 0, 64, 127
2, 155728, Note_on_c, 0, 55, 0
2, 155732, Note_on_c, 0, 48, 64
2, 155928, Note_on_c, 0, 61, 0
2, 155932, Note_on_c, 0, 69, 0
2, 156012, Note_on_c, 0, 58, 0
2, 156032, Note_on_c, 0, 48, 0
2, 156064, Note_on_c, 0, 61, 59
2, 156140, Note_on_c, 0, 64, 0
2, 156184, Note_on_c, 0, 58, 45
2, 156204, Note_on_c, 0, 61, 0
2, 156244, Note_on_c, 0, 58, 0
2, 156328, Note_on_c, 0, 65, 58
2, 156336, Note_on_c, 0, 57, 45
2, 156336, Note_on_c, 0, 60, 47
2, 156340, Control_c, 0, 64, 0
2, 156340, Note_on_c, 0, 41, 57
2, 156460, Control_c, 0, 64, 127
2, 156496, Note_on_c, 0, 57, 0
2, 156548, Note_on_c, 0, 41, 0
2, 156552, Note_on_c, 0, 60, 0
2, 156588, Note_on_c, 0, 65, 0
2, 156852, Note_on_c, 0, 72, 103
2, 156920, Note_on_c, 0, 72, 0
2, 157080, Note_on_c, 0, 72, 78
2, 157092, Note_on_c, 0, 73, 81
2, 157108, Note_on_c, 0, 63, 56
2, 157108, Note_on_c, 0, 67, 60
2, 157124, Control_c, 0, 64, 0
2, 157124, Note_on_c, 0, 57, 39
2, 157128, Note_on_c, 0, 73, 0
2, 157128, Note_on_c, 0, 74, 80
2, 157132, Note_on_c, 0, 72, 0
2, 157136, Note_on_c, 0, 67, 0
2, 157164, Note_on_c, 0, 57, 0
2, 157180, Note_on_c, 0, 63, 0
2, 157316, Note_on_c, 0, 74, 0
2, 157360, Note_on_c, 0, 77, 84
2, 157448, Control_c, 0, 64, 127
2, 157468, Note_on_c, 0, 77, 0
2, 157620, Note_on_c, 0, 79, 92
2, 157712, Note_on_c, 0, 79, 0
2, 157768, Note_on_c, 0, 74, 73
2, 157868, Note_on_c, 0, 74, 0
2, 157916, Control_c, 0, 64, 0
2, 157920, Note_on_c, 0, 56, 46
2, 157920, Note_on_c, 0, 67, 53
2, 157924, Note_on_c, 0, 77, 74
2, 157924, Note_on_c, 0, 62, 52
2, 158032, Control_c, 0, 64, 127
2, 158096, Note_on_c, 0, 67, 0
2, 158116, Note_on_c, 0, 62, 0
2, 158200, Note_on_c, 0, 56, 0
2, 158260, Note_on_c, 0, 77, 0
2, 158440, Note_on_c, 0, 65, 54
2, 158700, Note_on_c, 0, 58, 30
2, 158708, Note_on_c, 0, 50, 43
2, 158752, Note_on_c, 0, 50, 0
2, 158760, Note_on_c, 0, 58, 0
2, 159172, Note_on_c, 0, 65, 0
2, 159500, Note_on_c, 0, 67, 58
2, 159504, Note_on_c, 0, 60, 50
2, 159512, Note_on_c, 0, 55, 47
2, 159516, Note_on_c, 0, 45, 46
2, 159540, Control_c, 0, 64, 0
2, 159664, Control_c, 0, 64, 127
2, 159900, Note_on_c, 0, 67, 0
2, 159936, Note_on_c, 0, 55, 0
2, 159960, Note_on_c, 0, 45, 0
2, 159980, Note_on_c, 0, 60, 0
2, 160292, Note_on_c, 0, 65, 54
2, 160292, Note_on_c, 0, 43, 46
2, 160304, Note_on_c, 0, 58, 39
2, 160312, Control_c, 0, 64, 0
2, 160440, Control_c, 0, 64, 127
2, 160648, Note_on_c, 0, 43, 0
2, 160716, Note_on_c, 0, 58, 0
2, 161072, Note_on_c, 0, 63, 55
2, 161096, Note_on_c, 0, 36, 46
2, 161096, Control_c, 0, 64, 0
2, 161100, Note_on_c, 0, 48, 39
2, 161100, Note_on_c, 0, 58, 32
2, 161104, Note_on_c, 0, 55, 29
2, 161272, Control_c, 0, 64, 127
2, 161296, Note_on_c, 0, 36, 0
2, 161388, Note_on_c, 0, 48, 0
2, 161464, Note_on_c, 0, 58, 0
2, 161480, Note_on_c, 0, 55, 0
2, 161540, Note_on_c, 0, 63, 0
2, 161632, Note_on_c, 0, 65, 0
2, 161872, Note_on_c, 0, 61, 45
2, 161872, Note_on_c, 0, 63, 47
2, 161880, Note_on_c, 0, 57, 42
2, 161884, Note_on_c, 0, 51, 40
2, 161888, Control_c, 0, 64, 0
2, 161892, Note_on_c, 0, 41, 44
2, 162000, Note_on_c, 0, 57, 0
2, 162012, Control_c, 0, 64, 127
2, 162044, Note_on_c, 0, 61, 0
2, 162048, Note_on_c, 0, 63, 0
2, 162160, Note_on_c, 0, 41, 0
2, 162240, Note_on_c, 0, 51, 0
2, 162404, Note_on_c, 0, 72, 88
2, 162504, Note_on_c, 0, 72, 0
2, 162644, Control_c, 0, 64, 0
2, 162672, Note_on_c, 0, 46, 45
2, 162680, Note_on_c, 0, 62, 50
2, 162684, Note_on_c, 0, 72, 52
2, 162692, Note_on_c, 0, 65, 38
2, 162696, Note_on_c, 0, 69, 46
2, 162708, Note_on_c, 0, 57, 22
2, 162784, Control_c, 0, 64, 127
2, 162796, Note_on_c, 0, 65, 0
2, 162824, Note_on_c, 0, 69, 0
2, 162860, Note_on_c, 0, 62, 0
2, 162964, Note_on_c, 0, 46, 0
2, 162992, Note_on_c, 0, 57, 0
2, 163096, Note_on_c, 0, 72, 0
2, 163196, Note_on_c, 0, 69, 74
2, 163416, Note_on_c, 0, 69, 0
2, 163476, Note_on_c, 0, 65, 49
2, 163476, Note_on_c, 0, 70, 68
2, 163492, Control_c, 0, 64, 0
2, 163496, Note_on_c, 0, 60, 40
2, 163500, Note_on_c, 0, 62, 35
2, 163592, Control_c, 0, 64, 127
2, 163632, Note_on_c, 0, 65, 0
2, 163672, Note_on_c, 0, 62, 0
2, 163716, Note_on_c, 0, 60, 0
2, 163988, Note_on_c, 0, 65, 42
2, 164188, Note_on_c, 0, 70, 0
2, 164188, Note_on_c, 0, 65, 0
2, 164244, Control_c, 0, 64, 0
2, 164248, Note_on_c, 0, 58, 28
2, 164256, Note_on_c, 0, 67, 46
2, 164264, Note_on_c, 0, 50, 44
2, 164448, Note_on_c, 0, 67, 0
2, 164476, Note_on_c, 0, 50, 0
2, 164496, Note_on_c, 0, 58, 0
2, 164736, Note_on_c, 0, 62, 30
2, 164760, Control_c, 0, 64, 127
2, 164872, Note_on_c, 0, 62, 0
2, 165012, Note_on_c, 0, 65, 51
2, 165032, Note_on_c, 0, 58, 32
2, 165036, Note_on_c, 0, 62, 33
2, 165184, Note_on_c, 0, 62, 0
2, 165200, Note_on_c, 0, 65, 0
2, 165228, Note_on_c, 0, 58, 0
2, 165572, Note_on_c, 0, 36, 61
2, 165596, Note_on_c, 0, 36, 0
2, 165828, Note_on_c, 0, 78, 83
2, 165832, Note_on_c, 0, 86, 87
2, 165836, Note_on_c, 0, 74, 89
2, 165840, Note_on_c, 0, 81, 75
2, 165844, Note_on_c, 0, 58, 80
2, 165844, Note_on_c, 0, 64, 85
2, 165864, Note_on_c, 0, 84, 40
2, 165892, Control_c, 0, 64, 0
2, 165900, Note_on_c, 0, 84, 0
2, 166056, Control_c, 0, 64, 127
2, 166248, Note_on_c, 0, 64, 0
2, 166288, Note_on_c, 0, 86, 0
2, 166296, Note_on_c, 0, 58, 0
2, 166340, Note_on_c, 0, 74, 0
2, 166364, Note_on_c, 0, 81, 0
2, 166404, Note_on_c, 0, 78, 0
2, 166656, Note_on_c, 0, 86, 61
2, 166656, Note_on_c, 0, 58, 47
2, 166660, Note_on_c, 0, 74, 59
2, 166664, Note_on_c, 0, 63, 64
2, 166664, Note_on_c, 0, 81, 43
2, 166672, Note_on_c, 0, 52, 63
2, 166676, Note_on_c, 0, 78, 43
2, 166700, Control_c, 0, 64, 0
2, 166824, Control_c, 0, 64, 127
2, 167112, Note_on_c, 0, 52, 0
2, 167124, Note_on_c, 0, 74, 0
2, 167144, Note_on_c, 0, 63, 0
2, 167152, Note_on_c, 0, 81, 0
2, 167152, Note_on_c, 0, 78, 0
2, 167184, Note_on_c, 0, 86, 0
2, 167260, Note_on_c, 0, 58, 0
2, 167500, Control_c, 0, 64, 0
2, 167504, Note_on_c, 0, 83, 80
2, 167504, Note_on_c, 0, 86, 84
2, 167504, Note_on_c, 0, 79, 82
2, 167504, Note_on_c, 0, 74, 89
2, 167516, Note_on_c, 0, 62, 80
2, 167516, Note_on_c, 0, 51, 72
2, 167520, Note_on_c, 0, 57, 68
2, 167640, Control_c, 0, 64, 127
2, 167648, Note_on_c, 0, 62, 0
2, 167664, Note_on_c, 0, 57, 0
2, 167708, Note_on_c, 0, 51, 0
2, 167752, Note_on_c, 0, 86, 0
2, 167792, Note_on_c, 0, 83, 0
2, 167800, Note_on_c, 0, 79, 0
2, 167808, Note_on_c, 0, 74, 0
2, 167916, Note_on_c, 0, 41, 73
2, 167984, Note_on_c, 0, 41, 0
2, 168304, Note_on_c, 0, 73, 83
2, 168308, Note_on_c, 0, 61, 86
2, 168312, Note_on_c, 0, 68, 73
2, 168312, Note_on_c, 0, 51, 75
2, 168312, Note_on_c, 0, 65, 83
2, 168312, Note_on_c, 0, 57, 77
2, 168372, Control_c, 0, 64, 0
2, 168504, Control_c, 0, 64, 127
2, 168704, Note_on_c, 0, 73, 0
2, 168712, Note_on_c, 0, 61, 0
2, 168716, Note_on_c, 0, 65, 0
2, 168756, Note_on_c, 0, 65, 30
2, 168756, Note_on_c, 0, 72, 68
2, 168896, Note_on_c, 0, 57, 0
2, 168932, Note_on_c, 0, 65, 0
2, 169028, Note_on_c, 0, 72, 0
2, 169048, Note_on_c, 0, 68, 0
2, 169120, Note_on_c, 0, 51, 0
2, 169124, Note_on_c, 0, 70, 67
2, 169132, Note_on_c, 0, 62, 48
2, 169136, Note_on_c, 0, 60, 53
2, 169136, Note_on_c, 0, 65, 47
2, 169148, Note_on_c, 0, 58, 38
2, 169148, Note_on_c, 0, 50, 51
2, 169164, Control_c, 0, 64, 0
2, 169320, Control_c, 0, 64, 127
2, 169492, Note_on_c, 0, 60, 0
2, 169520, Note_on_c, 0, 62, 0
2, 169616, Note_on_c, 0, 65, 0
2, 169620, Note_on_c, 0, 58, 0
2, 169760, Note_on_c, 0, 70, 0
2, 169924, Note_on_c, 0, 70, 55
2, 169928, Note_on_c, 0, 60, 40
2, 169928, Note_on_c, 0, 65, 55
2, 169932, Note_on_c, 0, 55, 55
2, 169932, Note_on_c, 0, 62, 36
2, 169940, Note_on_c, 0, 50, 0
2, 169948, Control_c, 0, 64, 0
2, 170172, Control_c, 0, 64, 127
2, 170188, Note_on_c, 0, 62, 0
2, 170196, Note_on_c, 0, 60, 0
2, 170208, Note_on_c, 0, 65, 0
2, 170220, Control_c, 0, 64, 0
2, 170232, Note_on_c, 0, 70, 0
2, 170352, Note_on_c, 0, 55, 0
2, 170588, Note_on_c, 0, 59, 49
2, 170600, Note_on_c, 0, 69, 57
2, 170604, Note_on_c, 0, 54, 42
2, 170612, Control_c, 0, 64, 127
2, 170612, Note_on_c, 0, 68, 25
2, 170616, Note_on_c, 0, 64, 29
2, 170648, Note_on_c, 0, 64, 0
2, 170660, Note_on_c, 0, 59, 0
2, 170696, Note_on_c, 0, 68, 0
2, 170752, Note_on_c, 0, 54, 0
2, 170752, Note_on_c, 0, 70, 57
2, 170764, Note_on_c, 0, 55, 53
2, 170780, Note_on_c, 0, 65, 30
2, 170824, Note_on_c, 0, 69, 0
2, 170844, Control_c, 0, 64, 0
2, 170876, Note_on_c, 0, 65, 0
2, 170900, Note_on_c, 0, 70, 0
2, 170976, Note_on_c, 0, 55, 0
2, 170980, Note_on_c, 0, 62, 62
2, 170984, Note_on_c, 0, 72, 66
2, 170992, Note_on_c, 0, 56, 49
2, 170996, Note_on_c, 0, 65, 50
2, 171060, Note_on_c, 0, 62, 0
2, 171060, Note_on_c, 0, 72, 0
2, 171088, Note_on_c, 0, 65, 0
2, 171144, Note_on_c, 0, 56, 0
2, 171164, Note_on_c, 0, 70, 46
2, 171164, Note_on_c, 0, 55, 50
2, 171172, Note_on_c, 0, 65, 37
2, 171180, Note_on_c, 0, 60, 26
2, 171260, Note_on_c, 0, 65, 0
2, 171268, Note_on_c, 0, 60, 0
2, 171280, Note_on_c, 0, 70, 0
2, 171340, Note_on_c, 0, 55, 0
2, 171388, Control_c, 0, 64, 127
2, 171424, Note_on_c, 0, 54, 39
2, 171504, Control_c, 0, 64, 0
2, 171560, Note_on_c, 0, 70, 49
2, 171564, Note_on_c, 0, 54, 0
2, 171576, Note_on_c, 0, 55, 60
2, 171576, Note_on_c, 0, 62, 49
2, 171580, Note_on_c, 0, 65, 58
2, 171648, Note_on_c, 0, 55, 0
2, 171660, Note_on_c, 0, 62, 0
2, 171720, Control_c, 0, 64, 127
2, 171748, Note_on_c, 0, 65, 0
2, 171784, Control_c, 0, 64, 0
2, 171820, Note_on_c, 0, 39, 68
2, 171848, Note_on_c, 0, 70, 0
2, 171852, Control_c, 0, 64, 127
2, 171936, Note_on_c, 0, 39, 0
2, 172416, Note_on_c, 0, 61, 77
2, 172416, Note_on_c, 0, 65, 82
2, 172416, Note_on_c, 0, 55, 87
2, 172876, Note_on_c, 0, 65, 0
2, 172912, Note_on_c, 0, 55, 0
2, 172928, Note_on_c, 0, 61, 0
2, 173276, Note_on_c, 0, 63, 79
2, 173276, Note_on_c, 0, 82, 87
2, 173280, Note_on_c, 0, 55, 75
2, 173280, Note_on_c, 0, 70, 92
2, 173284, Note_on_c, 0, 60, 59
2, 173320, Control_c, 0, 64, 0
2, 173508, Control_c, 0, 64, 127
2, 173528, Note_on_c, 0, 55, 0
2, 173840, Note_on_c, 0, 63, 0
2, 173848, Note_on_c, 0, 60, 0
2, 173904, Note_on_c, 0, 70, 0
2, 173972, Note_on_c, 0, 82, 0
2, 174128, Note_on_c, 0, 82, 44
2, 174132, Control_c, 0, 64, 0
2, 174132, Note_on_c, 0, 70, 33
2, 174140, Note_on_c, 0, 64, 46
2, 174140, Note_on_c, 0, 76, 52
2, 174144, Note_on_c, 0, 60, 40
2, 174152, Note_on_c, 0, 54, 35
2, 174208, Control_c, 0, 64, 127
2, 174244, Note_on_c, 0, 64, 0
2, 174264, Note_on_c, 0, 60, 0
2, 174304, Note_on_c, 0, 54, 0
2, 174348, Note_on_c, 0, 76, 0
2, 174368, Note_on_c, 0, 82, 0
2, 174388, Note_on_c, 0, 70, 0
2, 174664, Note_on_c, 0, 38, 40
2, 174692, Note_on_c, 0, 38, 0
2, 174948, Note_on_c, 0, 44, 40
2, 174968, Note_on_c, 0, 54, 36
2, 174972, Note_on_c, 0, 60, 31
2, 174976, Note_on_c, 0, 69, 47
2, 174980, Note_on_c, 0, 64, 42
2, 174980, Note_on_c, 0, 66, 37
2, 175024, Control_c, 0, 64, 0
2, 175156, Control_c, 0, 64, 127
2, 175508, Note_on_c, 0, 64, 0
2, 175532, Note_on_c, 0, 60, 0
2, 175548, Note_on_c, 0, 66, 0
2, 175564, Note_on_c, 0, 54, 0
2, 175580, Note_on_c, 0, 69, 0
2, 175584, Note_on_c, 0, 50, 26
2, 175648, Note_on_c, 0, 44, 0
2, 175744, Note_on_c, 0, 50, 0
2, 175836, Note_on_c, 0, 58, 35
2, 175848, Control_c, 0, 64, 0
2, 175848, Note_on_c, 0, 53, 29
2, 175852, Note_on_c, 0, 43, 28
2, 175856, Note_on_c, 0, 62, 42
2, 175864, Note_on_c, 0, 69, 35
2, 175872, Note_on_c, 0, 65, 40
2, 175924, Control_c, 0, 64, 127
2, 175976, Note_on_c, 0, 69, 0
2, 176012, Note_on_c, 0, 62, 0
2, 176012, Note_on_c, 0, 65, 0
2, 176028, Note_on_c, 0, 58, 0
2, 176048, Note_on_c, 0, 53, 0
2, 176104, Note_on_c, 0, 57, 51
2, 176116, Note_on_c, 0, 43, 0
2, 176116, Control_c, 0, 64, 0
2, 176160, Note_on_c, 0, 57, 0
2, 176192, Note_on_c, 0, 58, 44
2, 176220, Note_on_c, 0, 58, 0
2, 176288, Note_on_c, 0, 62, 63
2, 176340, Note_on_c, 0, 62, 0
2, 176380, Note_on_c, 0, 65, 32
2, 176452, Note_on_c, 0, 65, 0
2, 176464, Note_on_c, 0, 69, 44
2, 176524, Note_on_c, 0, 69, 0
2, 176556, Note_on_c, 0, 70, 59
2, 176592, Note_on_c, 0, 70, 0
2, 176652, Note_on_c, 0, 62, 31
2, 176664, Note_on_c, 0, 58, 27
2, 176668, Note_on_c, 0, 72, 35
2, 176668, Note_on_c, 0, 60, 32
2, 176696, Note_on_c, 0, 62, 0
2, 176704, Note_on_c, 0, 72, 0
2, 176708, Note_on_c, 0, 60, 0
2, 176768, Note_on_c, 0, 58, 0
2, 176828, Note_on_c, 0, 81, 67
2, 176880, Note_on_c, 0, 81, 0
2, 176920, Note_on_c, 0, 84, 83
2, 176984, Note_on_c, 0, 84, 0
2, 177032, Note_on_c, 0, 82, 68
2, 177116, Note_on_c, 0, 82, 0
2, 177144, Note_on_c, 0, 78, 50
2, 177208, Note_on_c, 0, 78, 0
2, 177240, Note_on_c, 0, 81, 65
2, 177336, Note_on_c, 0, 79, 60
2, 177340, Note_on_c, 0, 81, 0
2, 177420, Note_on_c, 0, 62, 33
2, 177424, Note_on_c, 0, 79, 0
2, 177436, Note_on_c, 0, 58, 26
2, 177440, Note_on_c, 0, 74, 56
2, 177448, Note_on_c, 0, 57, 32
2, 177468, Note_on_c, 0, 74, 0
2, 177476, Note_on_c, 0, 62, 0
2, 177500, Note_on_c, 0, 57, 0
2, 177504, Note_on_c, 0, 58, 0
2, 177688, Control_c, 0, 64, 127
2, 177832, Note_on_c, 0, 43, 66
2, 177904, Note_on_c, 0, 43, 0
2, 178220, Note_on_c, 0, 65, 79
2, 178224, Note_on_c, 0, 58, 47
2, 178224, Note_on_c, 0, 62, 74
2, 178232, Note_on_c, 0, 57, 50
2, 178280, Note_on_c, 0, 57, 0
2, 178292, Note_on_c, 0, 58, 0
2, 178472, Control_c, 0, 64, 0
2, 178504, Note_on_c, 0, 55, 87
2, 178520, Note_on_c, 0, 53, 54
2, 178548, Note_on_c, 0, 53, 0
2, 178740, Note_on_c, 0, 54, 40
2, 178764, Note_on_c, 0, 62, 0
2, 178776, Note_on_c, 0, 65, 0
2, 178824, Note_on_c, 0, 55, 0
2, 178844, Note_on_c, 0, 54, 0
2, 178848, Control_c, 0, 64, 127
2, 178856, Note_on_c, 0, 53, 57
2, 178960, Note_on_c, 0, 52, 43
2, 178964, Note_on_c, 0, 53, 0
2, 179032, Note_on_c, 0, 52, 0
2, 179064, Control_c, 0, 64, 0
2, 179068, Note_on_c, 0, 51, 57
2, 179072, Note_on_c, 0, 61, 51
2, 179080, Note_on_c, 0, 69, 64
2, 179080, Note_on_c, 0, 65, 57
2, 179260, Control_c, 0, 64, 127
2, 179596, Note_on_c, 0, 68, 6
2, 179612, Note_on_c, 0, 65, 0
2, 179632, Note_on_c, 0, 69, 0
2, 179676, Note_on_c, 0, 61, 0
2, 179708, Note_on_c, 0, 68, 0
2, 179884, Note_on_c, 0, 70, 59
2, 179888, Note_on_c, 0, 61, 55
2, 179892, Note_on_c, 0, 65, 62
2, 179900, Note_on_c, 0, 57, 49
2, 179992, Note_on_c, 0, 57, 0
2, 180004, Note_on_c, 0, 51, 0
2, 180420, Note_on_c, 0, 65, 0
2, 180420, Note_on_c, 0, 39, 34
2, 180444, Note_on_c, 0, 61, 0
2, 180500, Note_on_c, 0, 70, 0
2, 180540, Note_on_c, 0, 39, 0
2, 180720, Control_c, 0, 64, 0
2, 180728, Note_on_c, 0, 70, 48
2, 180740, Note_on_c, 0, 60, 36
2, 180744, Note_on_c, 0, 50, 37
2, 180744, Note_on_c, 0, 66, 33
2, 180748, Note_on_c, 0, 38, 43
2, 180756, Note_on_c, 0, 64, 47
2, 180908, Note_on_c, 0, 60, 0
2, 180940, Note_on_c, 0, 38, 0
2, 180948, Note_on_c, 0, 64, 0
2, 180972, Note_on_c, 0, 70, 0
2, 180980, Note_on_c, 0, 50, 0
2, 180992, Note_on_c, 0, 66, 0
2, 181268, Note_on_c, 0, 70, 74
2, 181276, Note_on_c, 0, 64, 74
2, 181280, Note_on_c, 0, 66, 60
2, 181400, Control_c, 0, 64, 127
2, 181452, Note_on_c, 0, 64, 0
2, 181476, Note_on_c, 0, 70, 0
2, 181488, Note_on_c, 0, 66, 0
2, 181560, Note_on_c, 0, 54, 39
2, 181560, Note_on_c, 0, 70, 52
2, 181576, Note_on_c, 0, 64, 67
2, 181576, Note_on_c, 0, 66, 33
2, 181584, Note_on_c, 0, 58, 25
2, 181640, Note_on_c, 0, 58, 0
2, 181644, Control_c, 0, 64, 0
2, 181684, Note_on_c, 0, 54, 0
2, 181728, Note_on_c, 0, 70, 0
2, 181728, Note_on_c, 0, 64, 0
2, 181804, Note_on_c, 0, 66, 0
2, 181812, Note_on_c, 0, 54, 45
2, 181828, Note_on_c, 0, 64, 56
2, 181832, Note_on_c, 0, 69, 63
2, 181844, Note_on_c, 0, 59, 40
2, 182016, Note_on_c, 0, 59, 0
2, 182072, Note_on_c, 0, 44, 55
2, 182104, Note_on_c, 0, 64, 0
2, 182116, Control_c, 0, 64, 127
2, 182140, Note_on_c, 0, 69, 0
2, 182216, Note_on_c, 0, 54, 0
2, 182264, Note_on_c, 0, 44, 0
2, 182332, Note_on_c, 0, 59, 58
2, 182340, Note_on_c, 0, 64, 54
2, 182344, Note_on_c, 0, 53, 51
2, 182344, Note_on_c, 0, 69, 46
2, 182348, Note_on_c, 0, 43, 42
2, 182376, Control_c, 0, 64, 0
2, 182484, Control_c, 0, 64, 127
2, 182576, Note_on_c, 0, 69, 0
2, 182584, Note_on_c, 0, 64, 0
2, 182644, Note_on_c, 0, 59, 0
2, 182668, Note_on_c, 0, 53, 0
2, 182816, Note_on_c, 0, 49, 56
2, 182832, Note_on_c, 0, 56, 60
2, 182836, Note_on_c, 0, 53, 68
2, 182844, Note_on_c, 0, 62, 62
2, 182844, Control_c, 0, 64, 0
2, 182848, Note_on_c, 0, 60, 62
2, 182852, Note_on_c, 0, 49, 0
2, 182864, Note_on_c, 0, 50, 71
2, 182900, Note_on_c, 0, 56, 0
2, 182920, Note_on_c, 0, 57, 47
2, 183016, Note_on_c, 0, 57, 0
2, 183056, Note_on_c, 0, 53, 0
2, 183056, Note_on_c, 0, 62, 0
2, 183060, Note_on_c, 0, 60, 0
2, 183084, Note_on_c, 0, 50, 0
2, 183112, Note_on_c, 0, 49, 37
2, 183140, Note_on_c, 0, 56, 55
2, 183148, Note_on_c, 0, 53, 30
2, 183152, Note_on_c, 0, 60, 43
2, 183160, Note_on_c, 0, 62, 39
2, 183180, Note_on_c, 0, 49, 0
2, 183184, Note_on_c, 0, 50, 53
2, 183244, Note_on_c, 0, 56, 0
2, 183244, Note_on_c, 0, 57, 48
2, 183352, Note_on_c, 0, 53, 0
2, 183376, Note_on_c, 0, 57, 0
2, 183384, Note_on_c, 0, 62, 0
2, 183400, Note_on_c, 0, 60, 0
2, 183440, Note_on_c, 0, 43, 0
2, 183524, Note_on_c, 0, 50, 0
2, 183596, Note_on_c, 0, 43, 35
2, 183624, Note_on_c, 0, 56, 46
2, 183632, Note_on_c, 0, 49, 32
2, 183656, Note_on_c, 0, 62, 58
2, 183684, Note_on_c, 0, 49, 0
2, 183696, Note_on_c, 0, 50, 48
2, 183712, Note_on_c, 0, 56, 0
2, 183720, Note_on_c, 0, 57, 43
2, 183756, Note_on_c, 0, 57, 0
2, 183848, Note_on_c, 0, 50, 0
2, 183848, Control_c, 0, 64, 127
2, 183852, Note_on_c, 0, 62, 0
2, 183920, Note_on_c, 0, 49, 30
2, 183940, Control_c, 0, 64, 0
2, 183952, Note_on_c, 0, 58, 46
2, 183960, Note_on_c, 0, 56, 36
2, 183972, Note_on_c, 0, 53, 17
2, 183988, Note_on_c, 0, 49, 0
2, 183996, Note_on_c, 0, 50, 50
2, 184000, Note_on_c, 0, 62, 40
2, 184052, Note_on_c, 0, 59, 54
2, 184056, Note_on_c, 0, 58, 0
2, 184076, Note_on_c, 0, 53, 0
2, 184180, Note_on_c, 0, 43, 0
2, 184208, Control_c, 0, 64, 127
2, 184516, Note_on_c, 0, 43, 64
2, 184544, Note_on_c, 0, 50, 0
2, 184552, Note_on_c, 0, 56, 0
2, 184624, Note_on_c, 0, 59, 0
2, 184708, Note_on_c, 0, 62, 0
2, 184820, Note_on_c, 0, 64, 74
2, 184820, Note_on_c, 0, 56, 79
2, 184824, Note_on_c, 0, 59, 77
2, 184828, Note_on_c, 0, 53, 85
2, 184832, Note_on_c, 0, 50, 67
2, 184840, Note_on_c, 0, 62, 60
2, 184960, Note_on_c, 0, 43, 0
2, 184964, Note_on_c, 0, 53, 0
2, 184968, Note_on_c, 0, 64, 0
2, 185004, Note_on_c, 0, 62, 0
2, 185008, Note_on_c, 0, 59, 0
2, 185016, Note_on_c, 0, 56, 0
2, 185084, Note_on_c, 0, 65, 84
2, 185124, Note_on_c, 0, 50, 0
2, 185268, Note_on_c, 0, 65, 0
2, 185344, Note_on_c, 0, 64, 59
2, 185428, Note_on_c, 0, 64, 0
2, 185648, Control_c, 0, 64, 0
2, 185660, Note_on_c, 0, 67, 65
2, 185660, Note_on_c, 0, 58, 56
2, 185668, Note_on_c, 0, 64, 62
2, 185676, Note_on_c, 0, 43, 36
2, 185684, Note_on_c, 0, 52, 58
2, 185684, Note_on_c, 0, 36, 42
2, 185748, Control_c, 0, 64, 127
2, 185760, Note_on_c, 0, 58, 0
2, 185780, Note_on_c, 0, 64, 0
2, 185800, Note_on_c, 0, 67, 0
2, 185868, Note_on_c, 0, 36, 0
2, 185912, Note_on_c, 0, 43, 0
2, 185972, Note_on_c, 0, 52, 0
2, 186020, Note_on_c, 0, 67, 73
2, 186204, Note_on_c, 0, 67, 0
2, 186308, Note_on_c, 0, 72, 80
2, 186432, Note_on_c, 0, 72, 0
2, 186632, Note_on_c, 0, 58, 37
2, 186640, Note_on_c, 0, 76, 75
2, 186644, Note_on_c, 0, 69, 39
2, 186648, Note_on_c, 0, 64, 47
2, 186760, Note_on_c, 0, 76, 0
2, 187008, Note_on_c, 8, 79, 62
2, 187012, Note_on_c, 0, 69, 0
2, 187048, Note_on_c, 0, 64, 0
2, 187172, Note_on_c, 0, 58, 0
2, 187200, Note_on_c, 8, 79, 0
2, 187308, Note_on_c, 0, 82, 62
2, 187388, Note_on_c, 0, 82, 0
2, 187668, Note_on_c, 0, 87, 71
2, 187676, Note_on_c, 0, 58, 33
2, 187716, Note_on_c, 0, 84, 65
2, 187720, Control_c, 0, 64, 0
2, 187728, Note_on_c, 0, 80, 64
2, 187732, Note_on_c, 0, 64, 48
2, 187760, Note_on_c, 0, 76, 54
2, 187840, Note_on_c, 0, 64, 0
2, 187844, Control_c, 0, 64, 127
2, 187884, Note_on_c, 0, 58, 0
2, 188096, Note_on_c, 0, 84, 0
2, 188136, Note_on_c, 0, 87, 0
2, 188140, Note_on_c, 0, 76, 0
2, 188148, Note_on_c, 0, 36, 54
2, 188188, Note_on_c, 0, 85, 58
2, 188196, Note_on_c, 0, 36, 0
2, 188312, Note_on_c, 0, 85, 0
2, 188324, Note_on_c, 0, 80, 0
2, 188764, Note_on_c, 0, 84, 51
2, 188776, Note_on_c, 0, 80, 37
2, 188788, Note_on_c, 0, 76, 52
2, 188792, Note_on_c, 0, 58, 35
2, 188808, Note_on_c, 0, 64, 34
2, 188980, Note_on_c, 0, 84, 0
2, 189048, Note_on_c, 0, 80, 0
2, 189060, Note_on_c, 0, 76, 0
2, 189072, Note_on_c, 0, 64, 0
2, 189548, Note_on_c, 0, 80, 31
2, 189584, Note_on_c, 0, 76, 36
2, 189600, Note_on_c, 0, 70, 20
2, 189604, Note_on_c, 0, 73, 28
2, 189616, Note_on_c, 0, 64, 30
2, 190020, Note_on_c, 0, 64, 0
2, 190044, Note_on_c, 0, 76, 0
2, 190060, Note_on_c, 0, 80, 0
2, 190088, Note_on_c, 0, 58, 0
2, 190132, Note_on_c, 0, 70, 0
2, 190132, Note_on_c, 0, 73, 0
2, 191060, Note_on_c, 0, 48, 57
2, 191196, Note_on_c, 0, 48, 0
2, 191224, Control_c, 0, 64, 0
2, 191256, Note_on_c, 0, 41, 27
2, 191444, Control_c, 0, 64, 127
2, 191544, Note_on_c, 0, 64, 49
2, 191544, Note_on_c, 0, 69, 52
2, 191560, Note_on_c, 0, 60, 24
2, 191580, Note_on_c, 0, 69, 0
2, 191584, Note_on_c, 0, 64, 0
2, 191588, Note_on_c, 0, 60, 0
2, 191708, Control_c, 0, 64, 0
2, 191728, Note_on_c, 0, 60, 49
2, 191956, Note_on_c, 0, 41, 0
2, 192020, Note_on_c, 0, 48, 61
2, 192052, Control_c, 0, 64, 127
2, 192172, Note_on_c, 0, 48, 0
2, 192192, Control_c, 0, 64, 0
2, 192216, Note_on_c, 0, 42, 38
2, 192260, Note_on_c, 0, 60, 0
2, 192504, Note_on_c, 0, 51, 44
2, 192508, Note_on_c, 0, 54, 33
2, 192516, Note_on_c, 0, 62, 46
2, 192520, Note_on_c, 0, 60, 38
2, 192524, Note_on_c, 0, 57, 44
2, 192864, Note_on_c, 0, 42, 0
2, 193016, Note_on_c, 0, 42, 64
2, 193048, Control_c, 0, 64, 127
2, 193096, Note_on_c, 0, 57, 0
2, 193136, Note_on_c, 0, 42, 0
2, 193140, Control_c, 0, 64, 0
2, 193152, Note_on_c, 0, 51, 0
2, 193176, Note_on_c, 0, 42, 26
2, 193196, Note_on_c, 0, 54, 0
2, 193200, Note_on_c, 0, 62, 0
2, 193200, Note_on_c, 0, 42, 0
2, 193220, Note_on_c, 0, 43, 51
2, 193240, Note_on_c, 0, 60, 0
2, 193472, Control_c, 0, 64, 127
2, 193484, Control_c, 0, 64, 0
2, 193524, Note_on_c, 0, 62, 51
2, 193536, Note_on_c, 0, 58, 45
2, 193540, Note_on_c, 0, 53, 48
2, 193548, Note_on_c, 0, 50, 36
2, 193620, Note_on_c, 0, 53, 0
2, 193652, Note_on_c, 0, 62, 0
2, 193668, Note_on_c, 0, 58, 0
2, 193680, Control_c, 0, 64, 127
2, 193844, Note_on_c, 0, 43, 0
2, 194004, Note_on_c, 0, 43, 62
2, 194100, Note_on_c, 0, 43, 0
2, 194164, Note_on_c, 0, 50, 0
2, 194172, Control_c, 0, 64, 0
2, 194200, Note_on_c, 0, 44, 50
2, 194508, Note_on_c, 0, 65, 71
2, 194508, Note_on_c, 0, 53, 62
2, 194512, Note_on_c, 0, 56, 57
2, 194524, Note_on_c, 0, 59, 51
2, 194616, Note_on_c, 0, 56, 0
2, 194616, Note_on_c, 0, 59, 0
2, 194628, Note_on_c, 0, 65, 0
2, 194680, Note_on_c, 0, 62, 47
2, 194792, Note_on_c, 0, 62, 0
2, 194836, Note_on_c, 0, 59, 53
2, 194852, Note_on_c, 0, 53, 0
2, 194872, Control_c, 0, 64, 127
2, 194924, Note_on_c, 0, 59, 0
2, 194972, Note_on_c, 0, 50, 43
2, 194976, Note_on_c, 0, 56, 48
2, 195036, Note_on_c, 0, 56, 0
2, 195040, Note_on_c, 0, 44, 0
2, 195072, Control_c, 0, 64, 0
2, 195092, Note_on_c, 0, 50, 0
2, 195148, Note_on_c, 0, 55, 41
2, 195156, Control_c, 0, 64, 127
2, 195160, Note_on_c, 0, 45, 60
2, 195176, Note_on_c, 0, 55, 0
2, 195492, Note_on_c, 0, 67, 76
2, 195492, Note_on_c, 0, 57, 67
2, 195492, Note_on_c, 0, 72, 75
2, 195496, Note_on_c, 0, 60, 71
2, 195556, Note_on_c, 0, 72, 0
2, 195560, Note_on_c, 0, 67, 0
2, 195596, Note_on_c, 0, 60, 0
2, 195632, Control_c, 0, 64, 0
2, 195668, Note_on_c, 0, 60, 54
2, 195672, Note_on_c, 0, 69, 64
2, 195680, Note_on_c, 0, 57, 0
2, 195684, Note_on_c, 0, 64, 55
2, 195684, Note_on_c, 0, 52, 52
2, 195716, Note_on_c, 0, 45, 0
2, 195772, Control_c, 0, 64, 127
2, 195804, Note_on_c, 0, 69, 0
2, 195864, Control_c, 0, 64, 0
2, 195888, Note_on_c, 0, 64, 0
2, 195908, Note_on_c, 0, 60, 0
2, 195932, Control_c, 0, 64, 127
2, 195940, Note_on_c, 0, 52, 0
2, 195988, Note_on_c, 0, 45, 57
2, 196136, Control_c, 0, 64, 0
2, 196160, Note_on_c, 0, 63, 68
2, 196160, Note_on_c, 0, 58, 68
2, 196160, Note_on_c, 0, 67, 66
2, 196172, Note_on_c, 0, 55, 65
2, 196180, Note_on_c, 0, 45, 0
2, 196260, Note_on_c, 0, 55, 0
2, 196428, Note_on_c, 0, 63, 0
2, 196428, Note_on_c, 0, 58, 0
2, 196432, Note_on_c, 0, 67, 0
2, 196464, Control_c, 0, 64, 127
2, 196476, Note_on_c, 0, 41, 45
2, 196556, Control_c, 0, 64, 0
2, 196648, Note_on_c, 0, 51, 35
2, 196652, Note_on_c, 0, 65, 42
2, 196652, Note_on_c, 0, 61, 39
2, 196656, Note_on_c, 0, 63, 38
2, 196660, Note_on_c, 0, 57, 25
2, 196664, Note_on_c, 0, 41, 0
2, 196672, Control_c, 0, 64, 127
2, 196756, Note_on_c, 0, 51, 0
2, 196792, Note_on_c, 0, 57, 0
2, 196828, Note_on_c, 0, 65, 0
2, 196884, Note_on_c, 0, 63, 0
2, 196888, Note_on_c, 0, 61, 0
2, 196972, Note_on_c, 0, 65, 54
2, 196972, Note_on_c, 0, 46, 37
2, 196976, Note_on_c, 0, 57, 47
2, 196984, Note_on_c, 0, 60, 38
2, 196988, Control_c, 0, 64, 0
2, 197004, Note_on_c, 0, 62, 37
2, 197008, Note_on_c, 0, 53, 25
2, 197068, Note_on_c, 0, 57, 0
2, 197076, Note_on_c, 0, 60, 0
2, 197092, Note_on_c, 0, 62, 0
2, 197104, Control_c, 0, 64, 127
2, 197108, Note_on_c, 0, 65, 0
2, 197108, Note_on_c, 0, 53, 0
2, 197116, Note_on_c, 0, 46, 0
2, 197552, Note_on_c, 0, 54, 19
2, 197584, Note_on_c, 0, 54, 0
2, 197600, Note_on_c, 0, 56, 39
2, 197664, Note_on_c, 0, 65, 67
2, 197668, Note_on_c, 0, 62, 78
2, 197668, Note_on_c, 0, 72, 74
2, 197676, Note_on_c, 0, 69, 48
2, 197680, Note_on_c, 0, 57, 64
2, 197684, Note_on_c, 0, 56, 0
2, 197704, Control_c, 0, 64, 0
2, 197712, Note_on_c, 0, 69, 0
2, 197888, Control_c, 0, 64, 127
2, 197904, Note_on_c, 0, 62, 0
2, 197928, Note_on_c, 0, 65, 0
2, 197932, Note_on_c, 0, 57, 0
2, 197940, Note_on_c, 0, 72, 0
2, 198004, Note_on_c, 0, 70, 49
2, 198108, Note_on_c, 0, 70, 0
2, 198168, Control_c, 0, 64, 0
2, 198176, Note_on_c, 0, 72, 74
2, 198180, Note_on_c, 0, 61, 67
2, 198184, Note_on_c, 0, 65, 66
2, 198192, Note_on_c, 0, 46, 44
2, 198224, Note_on_c, 0, 46, 0
2, 198276, Note_on_c, 0, 61, 0
2, 198292, Note_on_c, 0, 65, 0
2, 198320, Note_on_c, 0, 70, 59
2, 198364, Note_on_c, 0, 69, 62
2, 198376, Note_on_c, 0, 72, 0
2, 198408, Note_on_c, 0, 65, 60
2, 198440, Note_on_c, 0, 70, 0
2, 198444, Note_on_c, 0, 61, 47
2, 198464, Note_on_c, 0, 69, 0
2, 198484, Note_on_c, 0, 65, 0
2, 198512, Note_on_c, 0, 61, 0
2, 198672, Note_on_c, 0, 60, 48
2, 198704, Note_on_c, 0, 60, 0
2, 198928, Control_c, 0, 64, 127
2, 198984, Note_on_c, 0, 54, 40
2, 198996, Note_on_c, 0, 68, 64
2, 199000, Note_on_c, 0, 63, 61
2, 199008, Note_on_c, 0, 60, 54
2, 199072, Note_on_c, 0, 60, 0
2, 199128, Control_c, 0, 64, 0
2, 199132, Note_on_c, 0, 54, 0
2, 199136, Note_on_c, 0, 63, 0
2, 199164, Note_on_c, 0, 68, 0
2, 199168, Note_on_c, 0, 60, 50
2, 199180, Note_on_c, 0, 69, 60
2, 199184, Note_on_c, 0, 57, 32
2, 199188, Note_on_c, 0, 64, 59
2, 199208, Note_on_c, 0, 60, 0
2, 199216, Note_on_c, 0, 64, 0
2, 199228, Note_on_c, 0, 69, 0
2, 199268, Note_on_c, 0, 57, 0
2, 199320, Note_on_c, 0, 72, 80
2, 199332, Note_on_c, 0, 67, 56
2, 199332, Note_on_c, 0, 62, 36
2, 199336, Note_on_c, 0, 60, 60
2, 199340, Note_on_c, 0, 64, 47
2, 199368, Note_on_c, 0, 64, 0
2, 199420, Control_c, 0, 64, 127
2, 199540, Note_on_c, 0, 67, 0
2, 199552, Note_on_c, 0, 72, 0
2, 199552, Note_on_c, 0, 62, 0
2, 199572, Note_on_c, 0, 60, 0
2, 199652, Control_c, 0, 64, 0
2, 199668, Note_on_c, 0, 74, 74
2, 199668, Note_on_c, 0, 62, 46
2, 199668, Note_on_c, 0, 67, 59
2, 199728, Note_on_c, 0, 62, 0
2, 199748, Note_on_c, 0, 67, 0
2, 199764, Note_on_c, 0, 74, 0
2, 199784, Control_c, 0, 64, 127
2, 199816, Note_on_c, 0, 72, 35
2, 199848, Note_on_c, 0, 72, 0
2, 199976, Control_c, 0, 64, 0
2, 199984, Note_on_c, 0, 54, 46
2, 199988, Note_on_c, 0, 77, 64
2, 199988, Note_on_c, 0, 70, 42
2, 199996, Note_on_c, 0, 60, 49
2, 200000, Note_on_c, 0, 65, 36
2, 200020, Note_on_c, 0, 67, 29
2, 200048, Note_on_c, 0, 67, 0
2, 200116, Control_c, 0, 64, 127
2, 200212, Note_on_c, 0, 60, 0
2, 200264, Note_on_c, 0, 54, 0
2, 200344, Note_on_c, 0, 70, 0
2, 200364, Note_on_c, 0, 65, 0
2, 200384, Note_on_c, 0, 77, 0
2, 200468, Note_on_c, 0, 70, 55
2, 200472, Note_on_c, 0, 65, 59
2, 200480, Note_on_c, 0, 60, 45
2, 200480, Note_on_c, 0, 54, 37
2, 200500, Control_c, 0, 64, 0
2, 200644, Control_c, 0, 64, 127
2, 200688, Note_on_c, 0, 60, 0
2, 200724, Note_on_c, 0, 54, 0
2, 200828, Note_on_c, 0, 65, 0
2, 200848, Note_on_c, 0, 70, 0
2, 200984, Note_on_c, 0, 43, 51
2, 201016, Note_on_c, 0, 43, 0
2, 201184, Note_on_c, 0, 65, 60
2, 201192, Note_on_c, 0, 72, 57
2, 201200, Control_c, 0, 64, 0
2, 201204, Note_on_c, 0, 62, 60
2, 201204, Note_on_c, 0, 69, 47
2, 201220, Note_on_c, 0, 60, 42
2, 201224, Note_on_c, 0, 58, 30
2, 201244, Note_on_c, 0, 69, 0
2, 201252, Note_on_c, 0, 65, 0
2, 201252, Note_on_c, 0, 60, 0
2, 201268, Note_on_c, 0, 72, 0
2, 201272, Note_on_c, 0, 62, 0
2, 201288, Note_on_c, 0, 58, 0
2, 201332, Note_on_c, 0, 72, 53
2, 201344, Note_on_c, 0, 65, 28
2, 201348, Note_on_c, 0, 69, 46
2, 201348, Note_on_c, 0, 62, 41
2, 201364, Note_on_c, 0, 58, 19
2, 201408, Note_on_c, 0, 69, 0
2, 201408, Note_on_c, 0, 62, 0
2, 201416, Note_on_c, 0, 65, 0
2, 201416, Note_on_c, 0, 58, 0
2, 201424, Note_on_c, 0, 72, 0
2, 201496, Note_on_c, 0, 70, 51
2, 201568, Note_on_c, 0, 70, 0
2, 201672, Note_on_c, 0, 72, 51
2, 201672, Note_on_c, 0, 62, 46
2, 201672, Note_on_c, 0, 65, 44
2, 201672, Note_on_c, 0, 58, 31
2, 201680, Note_on_c, 0, 69, 44
2, 201680, Note_on_c, 0, 60, 44
2, 201716, Note_on_c, 0, 69, 0
2, 201716, Note_on_c, 0, 60, 0
2, 201724, Note_on_c, 0, 62, 0
2, 201724, Note_on_c, 0, 65, 0
2, 201736, Note_on_c, 0, 72, 0
2, 201764, Note_on_c, 0, 58, 0
2, 201824, Note_on_c, 0, 72, 42
2, 201836, Note_on_c, 0, 69, 44
2, 201836, Note_on_c, 0, 65, 34
2, 201884, Note_on_c, 0, 69, 0
2, 201884, Note_on_c, 0, 65, 0
2, 201920, Note_on_c, 0, 72, 0
2, 201992, Note_on_c, 0, 70, 51
2, 202016, Control_c, 0, 64, 127
2, 202056, Note_on_c, 0, 70, 0
2, 202148, Control_c, 0, 64, 0
2, 202148, Note_on_c, 0, 64, 57
2, 202148, Note_on_c, 0, 72, 52
2, 202152, Note_on_c, 0, 68, 50
2, 202164, Note_on_c, 0, 61, 51
2, 202212, Note_on_c, 0, 64, 0
2, 202216, Note_on_c, 0, 68, 0
2, 202224, Note_on_c, 0, 72, 0
2, 202236, Note_on_c, 0, 61, 0
2, 202300, Note_on_c, 0, 72, 47
2, 202304, Note_on_c, 0, 68, 46
2, 202308, Note_on_c, 0, 64, 45
2, 202364, Note_on_c, 0, 68, 0
2, 202364, Note_on_c, 0, 64, 0
2, 202380, Note_on_c, 0, 72, 0
2, 202484, Note_on_c, 0, 58, 37
2, 202556, Note_on_c, 0, 58, 0
2, 202636, Note_on_c, 0, 68, 58
2, 202636, Note_on_c, 0, 64, 64
2, 202636, Note_on_c, 0, 72, 60
2, 202640, Note_on_c, 0, 61, 55
2, 202692, Note_on_c, 0, 68, 0
2, 202696, Note_on_c, 0, 64, 0
2, 202704, Note_on_c, 0, 72, 0
2, 202716, Note_on_c, 0, 61, 0
2, 202780, Note_on_c, 0, 72, 51
2, 202780, Note_on_c, 0, 68, 58
2, 202788, Note_on_c, 0, 64, 44
2, 202816, Note_on_c, 0, 72, 0
2, 202824, Note_on_c, 0, 64, 0
2, 202844, Note_on_c, 0, 68, 0
2, 202988, Control_c, 0, 64, 127
2, 203100, Control_c, 0, 64, 0
2, 203116, Note_on_c, 0, 72, 53
2, 203124, Note_on_c, 0, 60, 57
2, 203128, Note_on_c, 0, 67, 57
2, 203188, Note_on_c, 0, 60, 0
2, 203196, Note_on_c, 0, 72, 0
2, 203196, Note_on_c, 0, 67, 0
2, 203276, Note_on_c, 0, 72, 51
2, 203276, Note_on_c, 0, 67, 44
2, 203284, Note_on_c, 0, 60, 35
2, 203312, Note_on_c, 0, 72, 0
2, 203328, Note_on_c, 0, 67, 0
2, 203332, Note_on_c, 0, 60, 0
2, 203420, Note_on_c, 0, 45, 64
2, 203608, Note_on_c, 0, 64, 61
2, 203612, Note_on_c, 0, 69, 54
2, 203616, Note_on_c, 0, 60, 46
2, 203648, Note_on_c, 0, 64, 0
2, 203648, Note_on_c, 0, 69, 0
2, 203648, Note_on_c, 0, 60, 0
2, 203656, Note_on_c, 0, 45, 0
2, 203772, Note_on_c, 0, 47, 41
2, 203804, Note_on_c, 0, 47, 0
2, 203916, Control_c, 0, 64, 127
2, 203956, Note_on_c, 0, 38, 41
2, 203984, Note_on_c, 0, 38, 0
2, 204096, Control_c, 0, 64, 0
2, 204108, Note_on_c, 0, 38, 51
2, 204120, Note_on_c, 0, 65, 51
2, 204124, Note_on_c, 0, 60, 47
2, 204124, Note_on_c, 0, 54, 42
2, 204128, Note_on_c, 0, 58, 45
2, 204168, Note_on_c, 0, 38, 0
2, 204188, Control_c, 0, 64, 127
2, 204236, Note_on_c, 0, 54, 0
2, 204264, Note_on_c, 0, 60, 0
2, 204272, Note_on_c, 0, 65, 0
2, 204272, Note_on_c, 0, 58, 0
2, 204452, Note_on_c, 0, 76, 67
2, 204612, Note_on_c, 0, 54, 38
2, 204616, Note_on_c, 0, 44, 44
2, 204624, Note_on_c, 0, 76, 0
2, 204624, Control_c, 0, 64, 0
2, 204720, Control_c, 0, 64, 127
2, 204932, Note_on_c, 0, 54, 0
2, 204984, Note_on_c, 0, 50, 47
2, 204992, Note_on_c, 0, 44, 0
2, 205128, Control_c, 0, 64, 0
2, 205152, Note_on_c, 0, 50, 0
2, 205152, Note_on_c, 0, 53, 56
2, 205152, Note_on_c, 0, 65, 57
2, 205156, Note_on_c, 0, 58, 33
2, 205172, Note_on_c, 0, 62, 44
2, 205248, Note_on_c, 0, 53, 0
2, 205272, Control_c, 0, 64, 127
2, 205472, Note_on_c, 0, 43, 46
2, 205576, Note_on_c, 0, 43, 0
2, 205628, Control_c, 0, 64, 0
2, 205644, Note_on_c, 0, 37, 49
2, 205720, Control_c, 0, 64, 127
2, 205840, Note_on_c, 0, 37, 0
2, 205928, Note_on_c, 0, 62, 0
2, 205944, Note_on_c, 0, 65, 0
2, 205996, Note_on_c, 0, 36, 69
2, 206016, Note_on_c, 0, 58, 0
2, 206112, Control_c, 0, 64, 0
2, 206128, Note_on_c, 0, 36, 0
2, 206144, Note_on_c, 0, 58, 52
2, 206160, Note_on_c, 0, 52, 67
2, 206160, Note_on_c, 0, 64, 48
2, 206168, Note_on_c, 0, 58, 0
2, 206196, Note_on_c, 0, 64, 0
2, 206212, Control_c, 0, 64, 127
2, 206316, Note_on_c, 0, 52, 0
2, 206340, Note_on_c, 0, 72, 82
2, 206484, Note_on_c, 0, 73, 83
2, 206524, Note_on_c, 0, 72, 0
2, 206604, Note_on_c, 0, 73, 0
2, 206656, Note_on_c, 0, 48, 54
2, 206664, Note_on_c, 0, 76, 48
2, 206688, Control_c, 0, 64, 0
2, 206736, Note_on_c, 0, 76, 0
2, 206824, Note_on_c, 0, 77, 60
2, 206828, Control_c, 0, 64, 127
2, 206900, Note_on_c, 0, 77, 0
2, 206980, Note_on_c, 0, 79, 68
2, 207056, Note_on_c, 0, 48, 0
2, 207076, Note_on_c, 0, 79, 0
2, 207140, Note_on_c, 0, 57, 43
2, 207144, Note_on_c, 0, 80, 48
2, 207168, Control_c, 0, 64, 0
2, 207228, Note_on_c, 0, 80, 0
2, 207252, Note_on_c, 0, 57, 0
2, 207316, Note_on_c, 0, 81, 59
2, 207408, Note_on_c, 0, 81, 0
2, 207444, Control_c, 0, 64, 127
2, 207456, Note_on_c, 0, 83, 76
2, 207548, Note_on_c, 0, 83, 0
2, 207632, Note_on_c, 0, 86, 75
2, 207636, Control_c, 0, 64, 0
2, 207640, Note_on_c, 0, 62, 32
2, 207640, Note_on_c, 0, 60, 38
2, 207640, Note_on_c, 0, 84, 81
2, 207648, Note_on_c, 0, 53, 30
2, 207664, Note_on_c, 0, 57, 31
2, 207680, Note_on_c, 0, 62, 0
2, 207712, Note_on_c, 0, 57, 0
2, 207716, Note_on_c, 0, 60, 0
2, 207760, Control_c, 0, 64, 127
2, 207768, Note_on_c, 0, 53, 0
2, 207796, Note_on_c, 0, 84, 0
2, 207800, Note_on_c, 0, 86, 0
2, 207988, Note_on_c, 0, 83, 57
2, 208080, Note_on_c, 0, 83, 0
2, 208148, Note_on_c, 0, 39, 34
2, 208152, Control_c, 0, 64, 0
2, 208164, Note_on_c, 0, 54, 43
2, 208168, Note_on_c, 0, 84, 54
2, 208172, Note_on_c, 0, 72, 40
2, 208180, Note_on_c, 0, 78, 30
2, 208192, Note_on_c, 0, 81, 34
2, 208268, Control_c, 0, 64, 127
2, 208296, Note_on_c, 0, 39, 0
2, 208376, Note_on_c, 0, 54, 0
2, 208404, Note_on_c, 0, 72, 0
2, 208404, Note_on_c, 0, 78, 0
2, 208452, Note_on_c, 0, 81, 0
2, 208504, Note_on_c, 0, 78, 36
2, 208512, Note_on_c, 0, 72, 50
2, 208672, Note_on_c, 0, 54, 37
2, 208672, Note_on_c, 0, 63, 32
2, 208676, Note_on_c, 0, 84, 0
2, 208676, Control_c, 0, 64, 0
2, 208692, Note_on_c, 0, 60, 30
2, 208708, Note_on_c, 0, 78, 0
2, 208712, Note_on_c, 0, 72, 0
2, 208716, Control_c, 0, 64, 127
2, 208736, Note_on_c, 0, 60, 0
2, 208740, Note_on_c, 0, 63, 0
2, 208796, Note_on_c, 0, 54, 0
2, 209040, Note_on_c, 0, 44, 34
2, 209064, Note_on_c, 0, 59, 30
2, 209096, Note_on_c, 0, 59, 0
2, 209136, Note_on_c, 0, 44, 0
2, 209200, Control_c, 0, 64, 0
2, 209224, Control_c, 0, 64, 127
2, 209228, Note_on_c, 0, 43, 58
2, 209292, Note_on_c, 0, 43, 0
2, 209576, Note_on_c, 0, 74, 103
2, 209716, Note_on_c, 0, 74, 0
2, 209732, Note_on_c, 0, 62, 38
2, 209732, Note_on_c, 0, 58, 38
2, 209768, Note_on_c, 0, 62, 0
2, 209768, Note_on_c, 0, 60, 24
2, 209776, Control_c, 0, 64, 0
2, 209800, Note_on_c, 0, 60, 0
2, 209860, Note_on_c, 0, 58, 0
2, 209900, Note_on_c, 0, 67, 44
2, 209916, Control_c, 0, 64, 127
2, 209944, Note_on_c, 0, 67, 0
2, 210028, Note_on_c, 0, 68, 74
2, 210104, Note_on_c, 0, 68, 0
2, 210152, Note_on_c, 0, 70, 67
2, 210236, Note_on_c, 0, 70, 0
2, 210252, Note_on_c, 0, 56, 38
2, 210260, Control_c, 0, 64, 0
2, 210264, Note_on_c, 0, 47, 42
2, 210296, Note_on_c, 0, 71, 48
2, 210372, Note_on_c, 0, 71, 0
2, 210396, Note_on_c, 0, 47, 0
2, 210444, Note_on_c, 0, 56, 0
2, 210448, Note_on_c, 0, 72, 35
2, 210556, Control_c, 0, 64, 127
2, 210564, Note_on_c, 0, 72, 0
2, 210576, Note_on_c, 0, 73, 52
2, 210656, Note_on_c, 0, 73, 0
2, 210688, Note_on_c, 0, 74, 76
2, 210784, Note_on_c, 0, 74, 0
2, 210792, Note_on_c, 0, 62, 49
2, 210804, Note_on_c, 0, 56, 32
2, 210808, Control_c, 0, 64, 0
2, 210812, Note_on_c, 0, 59, 33
2, 210816, Note_on_c, 0, 75, 52
2, 210892, Note_on_c, 0, 75, 0
2, 210908, Note_on_c, 0, 62, 0
2, 210920, Note_on_c, 0, 59, 0
2, 210932, Note_on_c, 0, 76, 66
2, 210956, Note_on_c, 0, 56, 0
2, 211000, Note_on_c, 0, 76, 0
2, 211056, Note_on_c, 0, 77, 54
2, 211092, Control_c, 0, 64, 127
2, 211112, Note_on_c, 0, 77, 0
2, 211184, Note_on_c, 0, 79, 66
2, 211256, Note_on_c, 0, 79, 0
2, 211300, Control_c, 0, 64, 0
2, 211304, Note_on_c, 0, 81, 68
2, 211308, Note_on_c, 0, 55, 38
2, 211308, Note_on_c, 0, 45, 46
2, 211320, Note_on_c, 0, 52, 31
2, 211372, Note_on_c, 0, 45, 0
2, 211396, Note_on_c, 0, 52, 0
2, 211420, Note_on_c, 0, 81, 0
2, 211420, Note_on_c, 0, 55, 0
2, 211456, Note_on_c, 0, 72, 48
2, 211504, Note_on_c, 0, 72, 0
2, 211516, Control_c, 0, 64, 127
2, 211596, Note_on_c, 0, 72, 52
2, 211656, Note_on_c, 0, 72, 0
2, 211724, Note_on_c, 0, 72, 60
2, 211784, Note_on_c, 0, 72, 0
2, 211848, Note_on_c, 0, 64, 48
2, 211856, Note_on_c, 0, 72, 63
2, 211860, Note_on_c, 0, 57, 40
2, 211868, Note_on_c, 0, 60, 44
2, 211880, Control_c, 0, 64, 0
2, 211932, Note_on_c, 0, 72, 0
2, 211956, Note_on_c, 0, 60, 0
2, 211968, Note_on_c, 0, 57, 0
2, 211972, Note_on_c, 0, 64, 0
2, 211988, Control_c, 0, 64, 127
2, 211992, Note_on_c, 0, 74, 71
2, 212076, Note_on_c, 0, 74, 0
2, 212124, Note_on_c, 0, 72, 54
2, 212148, Note_on_c, 0, 72, 0
2, 212256, Note_on_c, 0, 72, 65
2, 212316, Note_on_c, 0, 72, 0
2, 212384, Note_on_c, 0, 75, 73
2, 212384, Note_on_c, 0, 67, 49
2, 212388, Note_on_c, 0, 63, 38
2, 212396, Note_on_c, 0, 62, 45
2, 212400, Note_on_c, 0, 58, 31
2, 212408, Control_c, 0, 64, 0
2, 212472, Note_on_c, 0, 75, 0
2, 212552, Note_on_c, 0, 72, 50
2, 212596, Note_on_c, 0, 72, 0
2, 212616, Note_on_c, 0, 67, 0
2, 212628, Note_on_c, 0, 62, 0
2, 212644, Note_on_c, 0, 58, 0
2, 212652, Note_on_c, 0, 74, 72
2, 212664, Control_c, 0, 64, 127
2, 212668, Note_on_c, 0, 63, 0
2, 212740, Note_on_c, 0, 74, 0
2, 212800, Note_on_c, 0, 72, 57
2, 212840, Note_on_c, 0, 72, 0
2, 212920, Note_on_c, 0, 77, 68
2, 212932, Note_on_c, 0, 63, 52
2, 212932, Note_on_c, 0, 67, 57
2, 212940, Note_on_c, 0, 57, 57
2, 212940, Control_c, 0, 64, 0
2, 212992, Note_on_c, 0, 67, 0
2, 213028, Note_on_c, 0, 77, 0
2, 213036, Note_on_c, 0, 57, 0
2, 213040, Note_on_c, 0, 63, 0
2, 213076, Note_on_c, 0, 77, 68
2, 213140, Control_c, 0, 64, 127
2, 213184, Note_on_c, 0, 77, 0
2, 213204, Note_on_c, 0, 72, 55
2, 213240, Note_on_c, 0, 72, 0
2, 213344, Note_on_c, 0, 72, 55
2, 213400, Note_on_c, 0, 72, 0
2, 213448, Control_c, 0, 64, 0
2, 213468, Note_on_c, 0, 58, 32
2, 213480, Note_on_c, 0, 74, 71
2, 213484, Note_on_c, 0, 50, 50
2, 213556, Note_on_c, 0, 74, 0
2, 213580, Control_c, 0, 64, 127
2, 213696, Note_on_c, 8, 65, 43
2, 213732, Note_on_c, 0, 50, 0
2, 213772, Note_on_c, 0, 58, 0
2, 213908, Note_on_c, 8, 65, 0
2, 214024, Note_on_c, 0, 65, 68
2, 214028, Control_c, 0, 64, 0
2, 214040, Note_on_c, 0, 58, 45
2, 214040, Note_on_c, 0, 62, 41
2, 214136, Control_c, 0, 64, 127
2, 214228, Note_on_c, 0, 65, 0
2, 214292, Note_on_c, 0, 65, 52
2, 214304, Note_on_c, 0, 58, 0
2, 214324, Note_on_c, 0, 62, 0
2, 214328, Note_on_c, 0, 65, 0
2, 214600, Note_on_c, 0, 72, 96
2, 214600, Note_on_c, 0, 55, 62
2, 214604, Note_on_c, 0, 65, 58
2, 214604, Control_c, 0, 64, 0
2, 214608, Note_on_c, 0, 61, 51
2, 214660, Note_on_c, 0, 65, 0
2, 214712, Note_on_c, 0, 61, 0
2, 214720, Note_on_c, 0, 55, 0
2, 214752, Note_on_c, 0, 72, 0
2, 214972, Control_c, 0, 64, 127
2, 214980, Note_on_c, 0, 69, 71
2, 215140, Note_on_c, 0, 39, 39
2, 215144, Note_on_c, 0, 46, 37
2, 215160, Control_c, 0, 64, 0
2, 215256, Note_on_c, 0, 39, 0
2, 215296, Note_on_c, 0, 69, 0
2, 215296, Note_on_c, 0, 46, 0
2, 215332, Note_on_c, 0, 65, 51
2, 215444, Note_on_c, 0, 65, 0
2, 215472, Control_c, 0, 64, 127
2, 215504, Note_on_c, 0, 61, 63
2, 215652, Note_on_c, 0, 61, 0
2, 215708, Note_on_c, 0, 48, 34
2, 215708, Note_on_c, 0, 41, 42
2, 215708, Note_on_c, 0, 60, 47
2, 215712, Control_c, 0, 64, 0
2, 215848, Note_on_c, 0, 41, 0
2, 215916, Note_on_c, 0, 60, 0
2, 216080, Note_on_c, 0, 57, 69
2, 216148, Note_on_c, 0, 57, 0
2, 216168, Control_c, 0, 64, 127
2, 216272, Note_on_c, 0, 57, 27
2, 216288, Note_on_c, 0, 58, 56
2, 216308, Note_on_c, 0, 57, 0
2, 216312, Control_c, 0, 64, 0
2, 216332, Note_on_c, 0, 59, 78
2, 216336, Note_on_c, 0, 58, 0
2, 216380, Note_on_c, 0, 48, 0
2, 216392, Note_on_c, 0, 59, 0
2, 216416, Note_on_c, 0, 60, 50
2, 216520, Note_on_c, 0, 60, 0
2, 216524, Note_on_c, 0, 59, 51
2, 216580, Note_on_c, 0, 59, 0
2, 216584, Note_on_c, 0, 58, 50
2, 216652, Note_on_c, 0, 58, 0
2, 216676, Note_on_c, 0, 57, 43
2, 216720, Control_c, 0, 64, 127
2, 216740, Note_on_c, 0, 57, 0
2, 216776, Note_on_c, 0, 55, 64
2, 216820, Control_c, 0, 64, 0
2, 216856, Note_on_c, 0, 55, 0
2, 216868, Note_on_c, 0, 38, 53
2, 216872, Note_on_c, 0, 54, 59
2, 216952, Control_c, 0, 64, 127
2, 216972, Note_on_c, 0, 38, 0
2, 217012, Note_on_c, 0, 54, 0
2, 217444, Note_on_c, 0, 54, 46
2, 217448, Note_on_c, 0, 65, 54
2, 217448, Note_on_c, 0, 60, 46
2, 217448, Note_on_c, 0, 58, 45
2, 217596, Note_on_c, 0, 65, 0
2, 217604, Note_on_c, 0, 60, 0
2, 217644, Note_on_c, 0, 58, 0
2, 217668, Note_on_c, 0, 54, 0
2, 217848, Note_on_c, 0, 50, 80
2, 217976, Control_c, 0, 64, 0
2, 218008, Note_on_c, 0, 50, 0
2, 218044, Note_on_c, 0, 43, 54
2, 218068, Control_c, 0, 64, 127
2, 218072, Note_on_c, 0, 43, 0
2, 218444, Note_on_c, 0, 72, 81
2, 218444, Note_on_c, 0, 58, 53
2, 218444, Note_on_c, 0, 69, 84
2, 218448, Note_on_c, 0, 62, 66
2, 218448, Note_on_c, 0, 65, 88
2, 218456, Note_on_c, 0, 60, 55
2, 218508, Note_on_c, 0, 65, 0
2, 218572, Note_on_c, 0, 69, 0
2, 218576, Note_on_c, 0, 72, 0
2, 218588, Note_on_c, 0, 62, 0
2, 218604, Note_on_c, 0, 60, 0
2, 218656, Note_on_c, 0, 70, 70
2, 218660, Note_on_c, 0, 74, 80
2, 218664, Note_on_c, 0, 62, 54
2, 218668, Note_on_c, 0, 65, 70
2, 218692, Control_c, 0, 64, 0
2, 218704, Note_on_c, 0, 60, 40
2, 218732, Note_on_c, 0, 60, 0
2, 218744, Note_on_c, 0, 62, 0
2, 218752, Note_on_c, 0, 58, 0
2, 218772, Note_on_c, 0, 70, 0
2, 218788, Note_on_c, 0, 74, 0
2, 218792, Note_on_c, 0, 65, 0
2, 218852, Note_on_c, 0, 72, 54
2, 218856, Control_c, 0, 64, 127
2, 218860, Note_on_c, 0, 58, 36
2, 218896, Note_on_c, 0, 58, 0
2, 218932, Note_on_c, 0, 72, 0
2, 219040, Note_on_c, 0, 72, 76
2, 219044, Note_on_c, 0, 68, 69
2, 219048, Note_on_c, 0, 64, 74
2, 219052, Note_on_c, 0, 58, 67
2, 219056, Control_c, 0, 64, 0
2, 219140, Note_on_c, 0, 64, 0
2, 219156, Note_on_c, 0, 68, 0
2, 219168, Note_on_c, 0, 72, 0
2, 219248, Note_on_c, 0, 58, 0
2, 219252, Note_on_c, 0, 68, 69
2, 219256, Note_on_c, 0, 75, 74
2, 219260, Note_on_c, 0, 64, 77
2, 219264, Note_on_c, 0, 72, 64
2, 219268, Note_on_c, 0, 61, 75
2, 219524, Note_on_c, 0, 64, 0
2, 219532, Note_on_c, 0, 68, 0
2, 219536, Note_on_c, 0, 72, 0
2, 219552, Note_on_c, 0, 61, 0
2, 219560, Note_on_c, 0, 75, 0
2, 219616, Control_c, 0, 64, 127
2, 219620, Note_on_c, 0, 73, 57
2, 219620, Note_on_c, 0, 68, 55
2, 219620, Note_on_c, 0, 61, 36
2, 219624, Note_on_c, 0, 64, 56
2, 219644, Note_on_c, 0, 60, 50
2, 219672, Note_on_c, 0, 61, 0
2, 219680, Note_on_c, 0, 73, 0
2, 219680, Note_on_c, 0, 68, 0
2, 219688, Note_on_c, 0, 64, 0
2, 219820, Note_on_c, 0, 60, 0
2, 219824, Control_c, 0, 64, 0
2, 219832, Note_on_c, 0, 72, 55
2, 219840, Note_on_c, 0, 67, 65
2, 219844, Note_on_c, 0, 61, 52
2, 219848, Note_on_c, 0, 58, 39
2, 219956, Control_c, 0, 64, 127
2, 219964, Note_on_c, 0, 67, 0
2, 219988, Note_on_c, 0, 72, 0
2, 220072, Note_on_c, 0, 61, 0
2, 220152, Note_on_c, 0, 58, 0
2, 220196, Note_on_c, 0, 56, 44
2, 220200, Note_on_c, 0, 61, 54
2, 220200, Note_on_c, 0, 70, 54
2, 220300, Note_on_c, 0, 70, 0
2, 220340, Note_on_c, 0, 61, 0
2, 220348, Note_on_c, 0, 56, 0
2, 220380, Control_c, 0, 64, 0
2, 220408, Note_on_c, 0, 60, 49
2, 220420, Note_on_c, 0, 57, 34
2, 220424, Note_on_c, 0, 69, 44
2, 220428, Note_on_c, 0, 64, 44
2, 220492, Note_on_c, 0, 60, 0
2, 220508, Control_c, 0, 64, 127
2, 220536, Note_on_c, 0, 64, 0
2, 220544, Note_on_c, 0, 57, 0
2, 220580, Note_on_c, 0, 45, 60
2, 220596, Note_on_c, 0, 69, 0
2, 220640, Note_on_c, 0, 45, 0
2, 220772, Note_on_c, 0, 68, 65
2, 220912, Note_on_c, 0, 68, 0
2, 220972, Note_on_c, 0, 57, 49
2, 220972, Note_on_c, 0, 69, 55
2, 220972, Note_on_c, 0, 67, 59
2, 220980, Note_on_c, 0, 63, 53
2, 221052, Note_on_c, 0, 69, 0
2, 221096, Control_c, 0, 64, 0
2, 221148, Note_on_c, 0, 67, 0
2, 221148, Note_on_c, 0, 72, 71
2, 221172, Control_c, 0, 64, 127
2, 221224, Note_on_c, 0, 72, 0
2, 221256, Note_on_c, 0, 63, 0
2, 221276, Note_on_c, 0, 57, 0
2, 221316, Note_on_c, 0, 74, 90
2, 221444, Note_on_c, 0, 74, 0
2, 221484, Note_on_c, 0, 65, 63
2, 221488, Note_on_c, 0, 54, 52
2, 221496, Note_on_c, 0, 60, 51
2, 221500, Note_on_c, 0, 75, 57
2, 221500, Note_on_c, 0, 58, 40
2, 221508, Control_c, 0, 64, 0
2, 221628, Note_on_c, 0, 65, 0
2, 221632, Note_on_c, 0, 75, 0
2, 221656, Note_on_c, 0, 60, 0
2, 221672, Note_on_c, 0, 58, 0
2, 221684, Note_on_c, 0, 76, 54
2, 221704, Note_on_c, 0, 54, 0
2, 221772, Note_on_c, 0, 76, 0
2, 221860, Note_on_c, 0, 77, 90
2, 221948, Control_c, 0, 64, 127
2, 222048, Control_c, 0, 64, 0
2, 222052, Note_on_c, 0, 60, 30
2, 222052, Note_on_c, 0, 54, 38
2, 222056, Note_on_c, 0, 57, 39
2, 222064, Note_on_c, 0, 50, 36
2, 222088, Note_on_c, 0, 60, 0
2, 222100, Note_on_c, 0, 57, 0
2, 222136, Note_on_c, 0, 54, 0
2, 222136, Note_on_c, 0, 50, 0
2, 222152, Note_on_c, 0, 77, 0
2, 222216, Note_on_c, 0, 73, 64
2, 222236, Note_on_c, 0, 74, 81
2, 222288, Note_on_c, 0, 73, 0
2, 222352, Note_on_c, 0, 74, 0
2, 222372, Control_c, 0, 64, 127
2, 222416, Note_on_c, 0, 54, 55
2, 222416, Note_on_c, 0, 44, 59
2, 222616, Note_on_c, 0, 54, 0
2, 222632, Note_on_c, 0, 44, 0
2, 222688, Control_c, 0, 64, 0
2, 222812, Note_on_c, 0, 68, 80
2, 222812, Note_on_c, 0, 67, 91
2, 222816, Note_on_c, 0, 74, 87
2, 222860, Note_on_c, 0, 67, 0
2, 222972, Note_on_c, 0, 74, 0
2, 223016, Note_on_c, 0, 43, 57
2, 223028, Note_on_c, 0, 68, 0
2, 223172, Note_on_c, 0, 43, 0
2, 223204, Note_on_c, 0, 65, 75
2, 223376, Note_on_c, 0, 53, 64
2, 223388, Note_on_c, 0, 65, 0
2, 223460, Note_on_c, 0, 53, 0
2, 223568, Note_on_c, 0, 50, 64
2, 223784, Note_on_c, 0, 50, 0
2, 223936, Note_on_c, 0, 36, 56
2, 224180, Note_on_c, 0, 43, 68
2, 224268, Control_c, 0, 64, 127
2, 224328, Note_on_c, 0, 43, 0
2, 224340, Note_on_c, 0, 36, 0
2, 224360, Note_on_c, 0, 64, 73
2, 224364, Note_on_c, 0, 58, 73
2, 224368, Note_on_c, 0, 61, 65
2, 224368, Note_on_c, 0, 48, 72
2, 224372, Note_on_c, 0, 55, 79
2, 224376, Control_c, 0, 64, 0
2, 224604, Note_on_c, 0, 48, 0
2, 224684, Control_c, 0, 64, 127
2, 224708, Note_on_c, 0, 55, 0
2, 224712, Note_on_c, 0, 46, 56
2, 224760, Note_on_c, 0, 61, 0
2, 224792, Note_on_c, 0, 58, 0
2, 224796, Note_on_c, 0, 64, 0
2, 224876, Note_on_c, 0, 46, 0
2, 224896, Control_c, 0, 64, 0
2, 224928, Note_on_c, 0, 45, 62
2, 224928, Note_on_c, 0, 60, 64
2, 224936, Note_on_c, 0, 55, 64
2, 224996, Control_c, 0, 64, 127
2, 225008, Note_on_c, 0, 55, 0
2, 225040, Note_on_c, 0, 45, 0
2, 225052, Note_on_c, 0, 60, 0
2, 225312, Note_on_c, 0, 71, 74
2, 225316, Note_on_c, 0, 69, 85
2, 225316, Note_on_c, 0, 62, 89
2, 225316, Note_on_c, 0, 65, 67
2, 225324, Note_on_c, 0, 64, 77
2, 225336, Note_on_c, 0, 68, 27
2, 225404, Note_on_c, 0, 71, 0
2, 225412, Note_on_c, 0, 65, 0
2, 225424, Note_on_c, 0, 64, 0
2, 225432, Note_on_c, 0, 62, 0
2, 225436, Note_on_c, 0, 69, 0
2, 225440, Note_on_c, 0, 68, 0
2, 225500, Note_on_c, 0, 57, 68
2, 225536, Control_c, 0, 64, 0
2, 225556, Note_on_c, 0, 57, 0
2, 225692, Note_on_c, 0, 59, 66
2, 225708, Note_on_c, 0, 60, 57
2, 225708, Note_on_c, 0, 61, 35
2, 225732, Note_on_c, 0, 60, 0
2, 225748, Note_on_c, 0, 61, 0
2, 225772, Note_on_c, 0, 59, 0
2, 225852, Control_c, 0, 64, 127
2, 225880, Note_on_c, 0, 48, 51
2, 226008, Note_on_c, 0, 48, 0
2, 226088, Note_on_c, 0, 62, 57
2, 226088, Note_on_c, 0, 42, 51
2, 226096, Note_on_c, 0, 60, 51
2, 226096, Note_on_c, 0, 54, 42
2, 226096, Note_on_c, 0, 56, 55
2, 226100, Control_c, 0, 64, 0
2, 226104, Note_on_c, 0, 50, 42
2, 226220, Control_c, 0, 64, 127
2, 226256, Note_on_c, 0, 42, 0
2, 226256, Note_on_c, 0, 54, 0
2, 226272, Note_on_c, 0, 50, 0
2, 226280, Note_on_c, 0, 56, 0
2, 226288, Note_on_c, 0, 60, 0
2, 226300, Note_on_c, 0, 62, 0
2, 226696, Note_on_c, 0, 66, 53
2, 226696, Note_on_c, 0, 68, 63
2, 226700, Note_on_c, 0, 60, 60
2, 226704, Note_on_c, 0, 64, 60
2, 226712, Note_on_c, 0, 57, 44
2, 226712, Note_on_c, 0, 54, 53
2, 226724, Control_c, 0, 64, 0
2, 226820, Control_c, 0, 64, 127
2, 226828, Note_on_c, 0, 57, 0
2, 226860, Note_on_c, 0, 54, 0
2, 226972, Note_on_c, 0, 64, 0
2, 227048, Note_on_c, 0, 60, 0
2, 227052, Note_on_c, 0, 44, 64
2, 227068, Note_on_c, 0, 66, 0
2, 227124, Note_on_c, 0, 44, 0
2, 227144, Note_on_c, 0, 68, 0
2, 227308, Note_on_c, 0, 70, 83
2, 227316, Note_on_c, 0, 63, 85
2, 227316, Note_on_c, 0, 67, 80
2, 227320, Note_on_c, 0, 58, 90
2, 227320, Note_on_c, 0, 59, 79
2, 227324, Note_on_c, 0, 53, 78
2, 227344, Control_c, 0, 64, 0
2, 227516, Control_c, 0, 64, 127
2, 227604, Note_on_c, 0, 59, 0
2, 227616, Note_on_c, 0, 53, 0
2, 227948, Note_on_c, 0, 43, 58
2, 228000, Note_on_c, 0, 43, 0
2, 228072, Note_on_c, 0, 67, 0
2, 228176, Note_on_c, 0, 63, 0
2, 228216, Note_on_c, 0, 70, 0
2, 228228, Note_on_c, 0, 58, 0
2, 228568, Note_on_c, 0, 36, 53
2, 228572, Control_c, 0, 64, 0
2, 228576, Note_on_c, 0, 38, 51
2, 228592, Note_on_c, 0, 52, 44
2, 228600, Note_on_c, 0, 50, 28
2, 228636, Note_on_c, 0, 52, 0
2, 228636, Note_on_c, 0, 50, 0
2, 228676, Control_c, 0, 64, 127
2, 228680, Note_on_c, 0, 38, 0
2, 228692, Note_on_c, 0, 36, 0
2, 229156, Note_on_c, 0, 75, 75
2, 229160, Note_on_c, 0, 72, 76
2, 229164, Note_on_c, 0, 61, 76
2, 229164, Note_on_c, 0, 68, 82
2, 229168, Note_on_c, 0, 64, 88
2, 229184, Control_c, 0, 64, 0
2, 229324, Control_c, 0, 64, 127
2, 229436, Note_on_c, 0, 68, 0
2, 229448, Note_on_c, 0, 64, 0
2, 229492, Note_on_c, 0, 72, 0
2, 229512, Note_on_c, 0, 75, 0
2, 229532, Note_on_c, 0, 61, 0
2, 229548, Note_on_c, 0, 73, 62
2, 229552, Note_on_c, 0, 58, 55
2, 229556, Note_on_c, 0, 68, 74
2, 229556, Note_on_c, 0, 64, 74
2, 229696, Note_on_c, 0, 64, 0
2, 229704, Note_on_c, 0, 73, 0
2, 229720, Note_on_c, 0, 68, 0
2, 229808, Note_on_c, 0, 58, 0
2, 230052, Note_on_c, 0, 72, 81
2, 230052, Note_on_c, 0, 61, 87
2, 230056, Note_on_c, 0, 65, 80
2, 230056, Note_on_c, 0, 69, 72
2, 230064, Control_c, 0, 64, 0
2, 230064, Note_on_c, 0, 45, 68
2, 230200, Control_c, 0, 64, 127
2, 230312, Note_on_c, 0, 65, 0
2, 230316, Note_on_c, 0, 69, 0
2, 230364, Note_on_c, 0, 61, 0
2, 230376, Note_on_c, 0, 72, 0
2, 230452, Note_on_c, 0, 61, 62
2, 230456, Note_on_c, 0, 64, 71
2, 230472, Note_on_c, 0, 57, 61
2, 230724, Note_on_c, 0, 64, 0
2, 230756, Note_on_c, 0, 57, 0
2, 230760, Note_on_c, 0, 61, 0
2, 231012, Note_on_c, 0, 45, 0
2, 231072, Note_on_c, 0, 63, 52
2, 231076, Note_on_c, 0, 58, 63
2, 231084, Note_on_c, 0, 55, 66
2, 231084, Note_on_c, 0, 65, 66
2, 231124, Control_c, 0, 64, 0
2, 231304, Note_on_c, 0, 41, 59
2, 231356, Control_c, 0, 64, 127
2, 231476, Note_on_c, 0, 55, 0
2, 231480, Note_on_c, 0, 58, 0
2, 231524, Note_on_c, 0, 63, 0
2, 231524, Note_on_c, 0, 51, 56
2, 231848, Note_on_c, 0, 51, 0
2, 231936, Control_c, 0, 64, 0
2, 231944, Note_on_c, 0, 61, 54
2, 231948, Note_on_c, 0, 57, 50
2, 231956, Note_on_c, 0, 51, 36
2, 232016, Note_on_c, 0, 41, 0
2, 232096, Note_on_c, 0, 51, 0
2, 232120, Control_c, 0, 64, 127
2, 232144, Note_on_c, 0, 57, 0
2, 232144, Note_on_c, 0, 41, 54
2, 232204, Note_on_c, 0, 61, 0
2, 232240, Note_on_c, 0, 65, 0
2, 232304, Control_c, 0, 64, 0
2, 232348, Note_on_c, 0, 50, 48
2, 232352, Note_on_c, 0, 62, 57
2, 232356, Note_on_c, 0, 57, 37
2, 232372, Note_on_c, 0, 60, 32
2, 232408, Note_on_c, 0, 60, 0
2, 232428, Control_c, 0, 64, 127
2, 232444, Note_on_c, 0, 57, 0
2, 232448, Note_on_c, 0, 41, 0
2, 232484, Note_on_c, 0, 50, 0
2, 232504, Note_on_c, 0, 62, 0
2, 232984, Note_on_c, 0, 65, 55
2, 232988, Note_on_c, 0, 62, 46
2, 233000, Note_on_c, 0, 58, 33
2, 233016, Note_on_c, 0, 60, 32
2, 233052, Note_on_c, 0, 60, 0
2, 233108, Note_on_c, 0, 58, 0
2, 233128, Note_on_c, 0, 62, 0
2, 233132, Note_on_c, 0, 65, 0
2, 233604, Control_c, 0, 64, 0
2, 233612, Note_on_c, 0, 65, 47
2, 233616, Note_on_c, 0, 39, 43
2, 233616, Note_on_c, 0, 55, 45
2, 233620, Note_on_c, 0, 46, 32
2, 233620, Note_on_c, 0, 60, 35
2, 233704, Note_on_c, 0, 55, 0
2, 233712, Control_c, 0, 64, 127
2, 233752, Note_on_c, 0, 39, 0
2, 233752, Note_on_c, 0, 60, 0
2, 233764, Note_on_c, 0, 46, 0
2, 233776, Note_on_c, 0, 65, 0
2, 234048, Note_on_c, 0, 79, 87
2, 234068, Note_on_c, 0, 72, 82
2, 234124, Note_on_c, 0, 72, 0
2, 234156, Note_on_c, 0, 79, 0
2, 234264, Note_on_c, 0, 79, 81
2, 234268, Control_c, 0, 64, 0
2, 234276, Note_on_c, 0, 65, 65
2, 234276, Note_on_c, 0, 72, 79
2, 234280, Note_on_c, 0, 61, 49
2, 234284, Note_on_c, 0, 55, 57
2, 234344, Note_on_c, 0, 65, 0
2, 234372, Note_on_c, 0, 79, 0
2, 234376, Control_c, 0, 64, 127
2, 234396, Note_on_c, 0, 61, 0
2, 234400, Note_on_c, 0, 72, 0
2, 234400, Note_on_c, 0, 55, 0
2, 234452, Note_on_c, 0, 78, 50
2, 234472, Note_on_c, 0, 72, 32
2, 234528, Note_on_c, 0, 72, 0
2, 234536, Note_on_c, 0, 78, 0
2, 234612, Note_on_c, 0, 77, 58
2, 234684, Note_on_c, 0, 77, 0
2, 234756, Note_on_c, 0, 75, 50
2, 234856, Note_on_c, 0, 75, 0
2, 234904, Note_on_c, 0, 41, 50
2, 234908, Control_c, 0, 64, 0
2, 234916, Note_on_c, 0, 76, 64
2, 234936, Note_on_c, 0, 72, 52
2, 235028, Note_on_c, 0, 41, 0
2, 235036, Control_c, 0, 64, 127
2, 235060, Note_on_c, 0, 72, 0
2, 235092, Note_on_c, 0, 76, 0
2, 235100, Note_on_c, 0, 67, 54
2, 235200, Note_on_c, 0, 67, 0
2, 235276, Note_on_c, 0, 72, 67
2, 235524, Note_on_c, 0, 62, 54
2, 235540, Note_on_c, 0, 60, 39
2, 235548, Note_on_c, 0, 53, 37
2, 235552, Note_on_c, 0, 57, 43
2, 235592, Note_on_c, 0, 62, 0
2, 235600, Note_on_c, 0, 60, 0
2, 235628, Note_on_c, 0, 57, 0
2, 235660, Note_on_c, 0, 53, 0
2, 235864, Note_on_c, 0, 72, 0
2, 235916, Note_on_c, 0, 36, 59
2, 235944, Note_on_c, 0, 36, 0
2, 236176, Note_on_c, 0, 74, 83
2, 236176, Note_on_c, 0, 70, 84
2, 236180, Note_on_c, 0, 77, 77
2, 236180, Note_on_c, 0, 65, 89
2, 236180, Note_on_c, 0, 54, 68
2, 236184, Control_c, 0, 64, 0
2, 236188, Note_on_c, 0, 60, 66
2, 236200, Note_on_c, 0, 76, 55
2, 236268, Control_c, 0, 64, 127
2, 236276, Note_on_c, 0, 60, 0
2, 236288, Note_on_c, 0, 74, 0
2, 236288, Note_on_c, 0, 77, 0
2, 236288, Note_on_c, 0, 76, 0
2, 236308, Note_on_c, 0, 65, 0
2, 236308, Note_on_c, 0, 54, 0
2, 236312, Note_on_c, 0, 70, 0
2, 236516, Control_c, 0, 64, 0
2, 236520, Note_on_c, 0, 75, 82
2, 236528, Note_on_c, 0, 63, 91
2, 236532, Note_on_c, 0, 68, 85
2, 236532, Note_on_c, 0, 72, 77
2, 236540, Note_on_c, 0, 54, 79
2, 236540, Note_on_c, 0, 60, 78
2, 236632, Control_c, 0, 64, 127
2, 236644, Note_on_c, 0, 60, 0
2, 236648, Note_on_c, 0, 72, 0
2, 236668, Note_on_c, 0, 75, 0
2, 236684, Note_on_c, 0, 68, 0
2, 236696, Note_on_c, 0, 63, 0
2, 236708, Note_on_c, 0, 54, 0
2, 236788, Control_c, 0, 64, 0
2, 236844, Note_on_c, 0, 54, 65
2, 236848, Note_on_c, 0, 72, 53
2, 236852, Note_on_c, 0, 68, 60
2, 236860, Note_on_c, 0, 60, 49
2, 236864, Note_on_c, 0, 71, 46
2, 236868, Note_on_c, 0, 70, 40
2, 236872, Note_on_c, 0, 62, 64
2, 236876, Note_on_c, 0, 65, 53
2, 236876, Note_on_c, 0, 50, 58
2, 236896, Note_on_c, 0, 62, 0
2, 236912, Note_on_c, 0, 65, 0
2, 236924, Note_on_c, 0, 72, 0
2, 236944, Note_on_c, 0, 70, 0
2, 236948, Note_on_c, 0, 71, 0
2, 236956, Note_on_c, 0, 68, 0
2, 236956, Control_c, 0, 64, 127
2, 237000, Note_on_c, 0, 60, 0
2, 237008, Note_on_c, 0, 68, 23
2, 237056, Note_on_c, 0, 54, 0
2, 237060, Note_on_c, 0, 68, 0
2, 237064, Control_c, 0, 64, 0
2, 237120, Note_on_c, 0, 50, 0
2, 237148, Note_on_c, 0, 44, 56
2, 237148, Note_on_c, 0, 63, 47
2, 237152, Note_on_c, 0, 54, 52
2, 237156, Note_on_c, 0, 68, 43
2, 237156, Note_on_c, 0, 60, 56
2, 237188, Control_c, 0, 64, 127
2, 237232, Note_on_c, 0, 60, 0
2, 237292, Note_on_c, 0, 54, 0
2, 237340, Note_on_c, 0, 63, 0
2, 237352, Note_on_c, 0, 44, 0
2, 237368, Note_on_c, 0, 68, 0
2, 237440, Control_c, 0, 64, 0
2, 237464, Note_on_c, 0, 43, 60
2, 237464, Note_on_c, 0, 58, 51
2, 237472, Note_on_c, 0, 62, 58
2, 237472, Note_on_c, 0, 65, 61
2, 237476, Note_on_c, 0, 53, 50
2, 237516, Control_c, 0, 64, 127
2, 237532, Note_on_c, 0, 43, 0
2, 237552, Note_on_c, 0, 62, 0
2, 237556, Note_on_c, 0, 58, 0
2, 237560, Note_on_c, 0, 53, 0
2, 237572, Note_on_c, 0, 65, 0
2, 237788, Note_on_c, 0, 70, 77
2, 237796, Note_on_c, 0, 63, 83
2, 237800, Note_on_c, 0, 58, 85
2, 237800, Note_on_c, 0, 67, 75
2, 237800, Note_on_c, 0, 53, 80
2, 237804, Note_on_c, 0, 59, 76
2, 237812, Control_c, 0, 64, 0
2, 237948, Control_c, 0, 64, 127
2, 238008, Note_on_c, 0, 58, 0
2, 238016, Note_on_c, 0, 70, 0
2, 238024, Note_on_c, 0, 63, 0
2, 238028, Note_on_c, 0, 59, 0
2, 238044, Note_on_c, 0, 67, 0
2, 238056, Note_on_c, 0, 53, 0
2, 238104, Control_c, 0, 64, 0
2, 238116, Note_on_c, 0, 70, 69
2, 238124, Note_on_c, 0, 59, 63
2, 238124, Note_on_c, 0, 67, 62
2, 238124, Note_on_c, 0, 58, 74
2, 238128, Note_on_c, 0, 63, 77
2, 238132, Note_on_c, 0, 53, 66
2, 238180, Control_c, 0, 64, 127
2, 238232, Note_on_c, 0, 53, 0
2, 238236, Note_on_c, 0, 58, 0
2, 238256, Note_on_c, 0, 67, 0
2, 238276, Note_on_c, 0, 70, 0
2, 238284, Note_on_c, 0, 63, 0
2, 238336, Note_on_c, 0, 63, 65
2, 238340, Note_on_c, 0, 68, 64
2, 238340, Note_on_c, 0, 58, 57
2, 238352, Control_c, 0, 64, 0
2, 238364, Note_on_c, 0, 53, 47
2, 238440, Note_on_c, 0, 59, 0
2, 238452, Control_c, 0, 64, 127
2, 238464, Note_on_c, 0, 58, 0
2, 238496, Note_on_c, 0, 63, 0
2, 238528, Note_on_c, 0, 68, 0
2, 238548, Note_on_c, 0, 53, 0
2, 238648, Note_on_c, 0, 72, 73
2, 238648, Note_on_c, 0, 68, 65
2, 238652, Note_on_c, 0, 64, 77
2, 238668, Note_on_c, 0, 70, 60
2, 238668, Note_on_c, 0, 58, 69
2, 238696, Control_c, 0, 64, 0
2, 238756, Note_on_c, 0, 70, 0
2, 238852, Control_c, 0, 64, 127
2, 239032, Note_on_c, 0, 48, 79
2, 239060, Note_on_c, 0, 72, 0
2, 239076, Note_on_c, 0, 58, 0
2, 239096, Note_on_c, 0, 68, 0
2, 239140, Note_on_c, 0, 64, 0
2, 239488, Note_on_c, 0, 64, 66
2, 239488, Note_on_c, 0, 68, 60
2, 239492, Note_on_c, 0, 58, 59
2, 239492, Note_on_c, 0, 61, 56
2, 239536, Control_c, 0, 64, 0
2, 239576, Control_c, 0, 64, 127
2, 239600, Note_on_c, 0, 48, 0
2, 239604, Note_on_c, 0, 58, 0
2, 239720, Note_on_c, 0, 61, 0
2, 239740, Note_on_c, 0, 64, 0
2, 239760, Note_on_c, 0, 68, 0
2, 239892, Note_on_c, 0, 48, 56
2, 239916, Note_on_c, 0, 48, 0
2, 240132, Note_on_c, 0, 87, 83
2, 240136, Note_on_c, 0, 51, 71
2, 240136, Note_on_c, 0, 75, 85
2, 240136, Note_on_c, 0, 82, 82
2, 240144, Note_on_c, 0, 62, 78
2, 240148, Control_c, 0, 64, 0
2, 240156, Note_on_c, 0, 57, 72
2, 240272, Control_c, 0, 64, 127
2, 240408, Note_on_c, 0, 62, 0
2, 240408, Note_on_c, 0, 57, 0
2, 240416, Note_on_c, 0, 87, 0
2, 240424, Note_on_c, 0, 75, 0
2, 240436, Note_on_c, 0, 51, 0
2, 240436, Note_on_c, 0, 82, 0
2, 240556, Note_on_c, 0, 51, 48
2, 240572, Note_on_c, 0, 87, 57
2, 240580, Note_on_c, 0, 75, 59
2, 240580, Note_on_c, 0, 62, 32
2, 240584, Note_on_c, 0, 57, 40
2, 240592, Note_on_c, 0, 82, 51
2, 240616, Note_on_c, 0, 62, 0
2, 240636, Note_on_c, 0, 57, 0
2, 240656, Note_on_c, 0, 51, 0
2, 240680, Note_on_c, 0, 75, 0
2, 240688, Note_on_c, 0, 82, 0
2, 240712, Note_on_c, 0, 87, 0
2, 240764, Control_c, 0, 64, 0
2, 240788, Note_on_c, 0, 63, 56
2, 240792, Note_on_c, 0, 82, 52
2, 240792, Note_on_c, 0, 88, 55
2, 240796, Note_on_c, 0, 52, 60
2, 240796, Note_on_c, 0, 58, 46
2, 240800, Note_on_c, 0, 76, 49
2, 240880, Control_c, 0, 64, 127
2, 240988, Note_on_c, 0, 88, 0
2, 241008, Note_on_c, 0, 76, 0
2, 241012, Note_on_c, 0, 82, 0
2, 241040, Note_on_c, 0, 58, 0
2, 241048, Note_on_c, 0, 52, 0
2, 241052, Note_on_c, 0, 63, 0
2, 241184, Note_on_c, 0, 63, 48
2, 241192, Note_on_c, 0, 52, 46
2, 241196, Note_on_c, 0, 82, 49
2, 241196, Note_on_c, 0, 88, 32
2, 241200, Note_on_c, 0, 76, 48
2, 241204, Note_on_c, 0, 58, 37
2, 241240, Note_on_c, 0, 52, 0
2, 241264, Note_on_c, 0, 76, 0
2, 241268, Note_on_c, 0, 88, 0
2, 241296, Note_on_c, 0, 58, 0
2, 241300, Note_on_c, 0, 63, 0
2, 241304, Note_on_c, 0, 82, 0
2, 241400, Note_on_c, 0, 60, 59
2, 241408, Note_on_c, 0, 64, 40
2, 241408, Note_on_c, 0, 84, 64
2, 241408, Control_c, 0, 64, 0
2, 241412, Note_on_c, 0, 89, 58
2, 241412, Note_on_c, 0, 77, 44
2, 241416, Note_on_c, 0, 53, 51
2, 241440, Note_on_c, 0, 64, 0
2, 241460, Note_on_c, 0, 60, 0
2, 241472, Note_on_c, 0, 89, 0
2, 241496, Note_on_c, 0, 84, 0
2, 241500, Note_on_c, 0, 53, 0
2, 241536, Note_on_c, 0, 77, 0
2, 241812, Note_on_c, 0, 60, 83
2, 241812, Note_on_c, 0, 62, 82
2, 241820, Note_on_c, 0, 48, 89
2, 241828, Note_on_c, 0, 47, 74
2, 241836, Note_on_c, 0, 62, 0
2, 241852, Note_on_c, 0, 47, 0
2, 241952, Note_on_c, 0, 60, 0
2, 242024, Note_on_c, 0, 60, 66
2, 242100, Note_on_c, 0, 62, 67
2, 242136, Note_on_c, 0, 60, 0
2, 242248, Note_on_c, 0, 62, 0
2, 242420, Note_on_c, 0, 65, 79
2, 242572, Note_on_c, 0, 65, 0
2, 242676, Note_on_c, 0, 65, 84
2, 242692, Note_on_c, 0, 48, 0
2, 242736, Control_c, 0, 64, 127
2, 242916, Note_on_c, 0, 65, 0
2, 243048, Note_on_c, 0, 41, 54
2, 243076, Note_on_c, 0, 41, 0
2, 243284, Note_on_c, 0, 67, 64
2, 243292, Note_on_c, 0, 63, 42
2, 243292, Note_on_c, 0, 57, 43
2, 243296, Note_on_c, 0, 70, 42
2, 243296, Note_on_c, 0, 75, 36
2, 243304, Note_on_c, 0, 77, 29
2, 243312, Control_c, 0, 64, 0
2, 243316, Note_on_c, 0, 67, 0
2, 243328, Note_on_c, 0, 57, 0
2, 243332, Note_on_c, 0, 70, 0
2, 243340, Note_on_c, 0, 63, 0
2, 243340, Note_on_c, 0, 77, 0
2, 243352, Note_on_c, 0, 75, 0
2, 243492, Note_on_c, 0, 70, 51
2, 243500, Note_on_c, 0, 77, 48
2, 243500, Note_on_c, 0, 63, 42
2, 243500, Note_on_c, 0, 75, 35
2, 243504, Note_on_c, 0, 67, 42
2, 243540, Note_on_c, 0, 67, 0
2, 243552, Note_on_c, 0, 70, 0
2, 243556, Note_on_c, 0, 77, 0
2, 243556, Note_on_c, 0, 63, 0
2, 243572, Note_on_c, 0, 75, 0
2, 243788, Control_c, 0, 64, 127
2, 243844, Control_c, 0, 64, 0
2, 243936, Note_on_c, 0, 63, 42
2, 243940, Note_on_c, 0, 77, 45
2, 243940, Note_on_c, 0, 69, 51
2, 243948, Note_on_c, 0, 73, 31
2, 243948, Note_on_c, 0, 75, 29
2, 243964, Note_on_c, 0, 57, 36
2, 243968, Control_c, 0, 64, 127
2, 244696, Note_on_c, 0, 77, 0
2, 244732, Note_on_c, 0, 69, 0
2, 244732, Note_on_c, 0, 75, 0
2, 244756, Note_on_c, 0, 73, 0
2, 244916, Note_on_c, 0, 72, 83
2, 245004, Note_on_c, 0, 72, 0
2, 245112, Note_on_c, 0, 63, 0
2, 245168, Note_on_c, 0, 72, 92
2, 245172, Note_on_c, 0, 57, 0
2, 245268, Note_on_c, 0, 72, 0
2, 245364, Note_on_c, 0, 72, 74
2, 245440, Note_on_c, 0, 72, 0
2, 245552, Note_on_c, 0, 72, 70
2, 245556, Note_on_c, 0, 46, 50
2, 245560, Note_on_c, 0, 65, 64
2, 245568, Control_c, 0, 64, 0
2, 245712, Control_c, 0, 64, 127
2, 245744, Note_on_c, 0, 53, 39
2, 245780, Note_on_c, 0, 65, 0
2, 245876, Note_on_c, 0, 72, 0
2, 245896, Note_on_c, 0, 53, 0
2, 245904, Note_on_c, 0, 46, 0
2, 245916, Note_on_c, 0, 65, 54
2, 245928, Note_on_c, 0, 62, 44
2, 245928, Note_on_c, 0, 57, 50
2, 246040, Note_on_c, 0, 62, 0
2, 246048, Note_on_c, 0, 57, 0
2, 246100, Note_on_c, 0, 58, 42
2, 246144, Note_on_c, 0, 65, 0
2, 246308, Note_on_c, 0, 65, 88
2, 246312, Note_on_c, 0, 62, 61
2, 246312, Note_on_c, 0, 70, 77
2, 246320, Note_on_c, 0, 58, 0
2, 246516, Note_on_c, 0, 62, 0
2, 246552, Note_on_c, 0, 58, 60
2, 246636, Note_on_c, 0, 65, 0
2, 246740, Note_on_c, 0, 58, 0
2, 246796, Note_on_c, 0, 65, 51
2, 246800, Note_on_c, 0, 62, 57
2, 246916, Note_on_c, 0, 65, 0
2, 246924, Note_on_c, 0, 62, 0
2, 246928, Note_on_c, 0, 70, 0
2, 247288, Note_on_c, 0, 58, 53
2, 247296, Note_on_c, 0, 52, 49
2, 247300, Control_c, 0, 64, 0
2, 247336, Note_on_c, 0, 52, 0
2, 247336, Note_on_c, 0, 36, 52
2, 247364, Note_on_c, 0, 36, 0
2, 247368, Control_c, 0, 64, 127
2, 247380, Note_on_c, 0, 58, 0
2, 247592, Note_on_c, 0, 74, 74
2, 247596, Note_on_c, 0, 67, 60
2, 247596, Note_on_c, 0, 64, 66
2, 247600, Note_on_c, 0, 70, 55
2, 247604, Note_on_c, 0, 58, 49
2, 247648, Note_on_c, 0, 59, 27
2, 247684, Note_on_c, 0, 59, 0
2, 247740, Note_on_c, 0, 67, 0
2, 247740, Note_on_c, 0, 64, 0
2, 247752, Note_on_c, 0, 70, 0
2, 247764, Note_on_c, 0, 74, 0
2, 247892, Note_on_c, 0, 74, 73
2, 247896, Note_on_c, 0, 61, 56
2, 247900, Note_on_c, 0, 64, 64
2, 247904, Note_on_c, 0, 70, 53
2, 247908, Note_on_c, 0, 67, 58
2, 247916, Note_on_c, 0, 58, 0
2, 248100, Note_on_c, 0, 61, 0
2, 248160, Note_on_c, 0, 58, 25
2, 248164, Note_on_c, 0, 67, 0
2, 248168, Note_on_c, 0, 64, 0
2, 248188, Note_on_c, 0, 58, 0
2, 248204, Note_on_c, 0, 70, 0
2, 248216, Note_on_c, 0, 74, 0
2, 248448, Control_c, 0, 64, 0
2, 248448, Note_on_c, 0, 63, 53
2, 248448, Note_on_c, 0, 74, 64
2, 248452, Note_on_c, 0, 66, 52
2, 248468, Note_on_c, 0, 69, 51
2, 248476, Note_on_c, 0, 51, 35
2, 248476, Note_on_c, 0, 57, 33
2, 248564, Control_c, 0, 64, 127
2, 248628, Note_on_c, 0, 51, 0
2, 248628, Note_on_c, 0, 57, 0
2, 248760, Note_on_c, 0, 41, 57
2, 248972, Note_on_c, 0, 41, 0
2, 248976, Note_on_c, 0, 63, 0
2, 248984, Note_on_c, 0, 66, 0
2, 248996, Note_on_c, 0, 69, 0
2, 249016, Note_on_c, 0, 74, 0
2, 249096, Note_on_c, 0, 63, 49
2, 249108, Note_on_c, 0, 66, 36
2, 249112, Note_on_c, 0, 72, 57
2, 249116, Note_on_c, 0, 69, 40
2, 249168, Note_on_c, 0, 57, 22
2, 249232, Note_on_c, 0, 57, 0
2, 249416, Note_on_c, 0, 69, 0
2, 249428, Note_on_c, 0, 63, 0
2, 249432, Note_on_c, 0, 72, 0
2, 249456, Note_on_c, 0, 66, 0
2, 249936, Note_on_c, 0, 58, 35
2, 249936, Note_on_c, 0, 79, 57
2, 249948, Note_on_c, 0, 50, 36
2, 249964, Note_on_c, 0, 79, 0
2, 249972, Note_on_c, 0, 82, 62
2, 249984, Note_on_c, 0, 50, 0
2, 249996, Control_c, 0, 64, 0
2, 250012, Note_on_c, 0, 58, 0
2, 250048, Note_on_c, 0, 79, 50
2, 250080, Note_on_c, 0, 82, 0
2, 250108, Note_on_c, 0, 79, 0
2, 250124, Note_on_c, 0, 77, 43
2, 250156, Note_on_c, 0, 77, 0
2, 250216, Note_on_c, 0, 77, 59
2, 250304, Note_on_c, 0, 77, 0
2, 250304, Note_on_c, 0, 79, 58
2, 250364, Note_on_c, 0, 77, 37
2, 250376, Note_on_c, 0, 79, 0
2, 250428, Note_on_c, 0, 77, 0
2, 250560, Note_on_c, 0, 65, 36
2, 250568, Note_on_c, 0, 62, 30
2, 250580, Note_on_c, 0, 60, 32
2, 250888, Note_on_c, 0, 65, 0
2, 250896, Note_on_c, 0, 74, 74
2, 250960, Note_on_c, 0, 72, 43
2, 250972, Note_on_c, 0, 74, 0
2, 251004, Note_on_c, 0, 62, 0
2, 251036, Note_on_c, 0, 69, 62
2, 251052, Note_on_c, 0, 72, 0
2, 251096, Control_c, 0, 64, 127
2, 251120, Note_on_c, 0, 69, 0
2, 251124, Note_on_c, 0, 60, 0
2, 251172, Note_on_c, 0, 70, 59
2, 251252, Note_on_c, 0, 70, 0
2, 251292, Note_on_c, 0, 71, 68
2, 251376, Note_on_c, 0, 71, 0
2, 251432, Note_on_c, 0, 72, 84
2, 251504, Control_c, 0, 64, 0
2, 251508, Note_on_c, 0, 39, 42
2, 251508, Note_on_c, 0, 46, 45
2, 251572, Control_c, 0, 64, 127
2, 251608, Note_on_c, 0, 69, 62
2, 251628, Note_on_c, 0, 72, 0
2, 251632, Note_on_c, 0, 39, 0
2, 251676, Note_on_c, 0, 46, 0
2, 251696, Note_on_c, 0, 69, 0
2, 251776, Note_on_c, 0, 61, 52
2, 251876, Note_on_c, 0, 61, 0
2, 251928, Note_on_c, 0, 60, 62
2, 252080, Note_on_c, 0, 60, 0
2, 252136, Note_on_c, 0, 58, 52
2, 252260, Note_on_c, 0, 58, 0
2, 252304, Note_on_c, 0, 57, 48
2, 252396, Note_on_c, 0, 57, 0
2, 252488, Note_on_c, 0, 57, 29
2, 252600, Note_on_c, 0, 57, 0
2, 252664, Note_on_c, 0, 55, 51
2, 252772, Note_on_c, 0, 55, 0
2, 252872, Note_on_c, 0, 55, 69
2, 252880, Note_on_c, 0, 38, 48
2, 252936, Control_c, 0, 64, 0
2, 253024, Note_on_c, 0, 55, 0
2, 253060, Note_on_c, 0, 54, 52
2, 253080, Note_on_c, 0, 45, 32
2, 253196, Note_on_c, 0, 54, 0
2, 253248, Note_on_c, 0, 54, 57
2, 253252, Control_c, 0, 64, 127
2, 253376, Note_on_c, 0, 45, 0
2, 253396, Note_on_c, 0, 54, 0
2, 253428, Note_on_c, 0, 50, 56
2, 253524, Note_on_c, 0, 50, 0
2, 253620, Note_on_c, 0, 50, 72
2, 253636, Note_on_c, 0, 45, 44
2, 253644, Control_c, 0, 64, 0
2, 253732, Note_on_c, 0, 50, 0
2, 253776, Note_on_c, 0, 52, 74
2, 253872, Note_on_c, 0, 52, 0
2, 253920, Control_c, 0, 64, 127
2, 253944, Note_on_c, 0, 52, 67
2, 253984, Note_on_c, 0, 50, 40
2, 254064, Note_on_c, 0, 52, 0
2, 254100, Note_on_c, 0, 45, 0
2, 254112, Note_on_c, 0, 38, 0
2, 254144, Note_on_c, 0, 54, 77
2, 254256, Note_on_c, 0, 54, 0
2, 254344, Note_on_c, 0, 54, 77
2, 254352, Note_on_c, 0, 50, 0
2, 254372, Note_on_c, 0, 43, 52
2, 254400, Control_c, 0, 64, 0
2, 254484, Note_on_c, 0, 54, 0
2, 254496, Note_on_c, 0, 55, 83
2, 254600, Note_on_c, 0, 55, 0
2, 254656, Note_on_c, 0, 55, 76
2, 254660, Control_c, 0, 64, 127
2, 254764, Note_on_c, 0, 55, 0
2, 254796, Note_on_c, 0, 56, 72
2, 254896, Note_on_c, 0, 56, 0
2, 254968, Note_on_c, 0, 56, 68
2, 255024, Note_on_c, 0, 50, 32
2, 255068, Control_c, 0, 64, 0
2, 255092, Note_on_c, 0, 56, 0
2, 255120, Note_on_c, 0, 57, 68
2, 255168, Control_c, 0, 64, 127
2, 255208, Note_on_c, 0, 43, 0
2, 255236, Note_on_c, 0, 57, 0
2, 255240, Note_on_c, 0, 50, 0
2, 255308, Note_on_c, 0, 57, 40
2, 255416, Note_on_c, 0, 57, 0
2, 255448, Note_on_c, 0, 62, 74
2, 255564, Note_on_c, 0, 62, 0
2, 255616, Note_on_c, 0, 62, 71
2, 255620, Note_on_c, 0, 58, 50
2, 255700, Control_c, 0, 64, 0
2, 255776, Control_c, 0, 64, 127
2, 255780, Note_on_c, 0, 65, 74
2, 255804, Note_on_c, 0, 58, 0
2, 255816, Note_on_c, 0, 62, 0
2, 255884, Note_on_c, 0, 65, 0
2, 255948, Note_on_c, 0, 65, 67
2, 256056, Note_on_c, 0, 65, 0
2, 256112, Note_on_c, 0, 69, 75
2, 256200, Note_on_c, 0, 69, 0
2, 256304, Note_on_c, 0, 58, 44
2, 256308, Note_on_c, 0, 69, 73
2, 256308, Note_on_c, 0, 62, 48
2, 256448, Note_on_c, 0, 69, 0
2, 256484, Note_on_c, 0, 72, 71
2, 256592, Note_on_c, 0, 72, 0
2, 256700, Note_on_c, 0, 72, 74
2, 256828, Note_on_c, 0, 62, 0
2, 256836, Note_on_c, 0, 72, 0
2, 256900, Note_on_c, 0, 70, 53
2, 256972, Note_on_c, 0, 58, 0
2, 257040, Note_on_c, 0, 70, 0
2, 257136, Note_on_c, 0, 61, 43
2, 257140, Note_on_c, 0, 65, 62
2, 257156, Note_on_c, 0, 55, 57
2, 257168, Control_c, 0, 64, 0
2, 257300, Note_on_c, 0, 61, 0
2, 257308, Control_c, 0, 64, 127
2, 257324, Note_on_c, 0, 65, 0
2, 257380, Note_on_c, 0, 61, 31
2, 257648, Note_on_c, 0, 73, 52
2, 257652, Note_on_c, 0, 77, 67
2, 257660, Note_on_c, 0, 65, 54
2, 257852, Note_on_c, 0, 82, 77
2, 257980, Note_on_c, 0, 82, 0
2, 258032, Note_on_c, 0, 77, 0
2, 258068, Note_on_c, 0, 82, 82
2, 258088, Note_on_c, 0, 77, 35
2, 258172, Note_on_c, 0, 82, 0
2, 258200, Note_on_c, 0, 77, 0
2, 258212, Note_on_c, 0, 73, 0
2, 258248, Note_on_c, 0, 82, 57
2, 258260, Note_on_c, 0, 73, 29
2, 258336, Note_on_c, 0, 82, 0
2, 258344, Note_on_c, 0, 73, 0
2, 258436, Note_on_c, 0, 82, 56
2, 258520, Note_on_c, 0, 82, 0
2, 258624, Note_on_c, 0, 82, 50
2, 258628, Note_on_c, 0, 65, 0
2, 258652, Note_on_c, 0, 55, 0
2, 258704, Note_on_c, 0, 82, 0
2, 258728, Note_on_c, 0, 61, 0
2, 258852, Note_on_c, 0, 82, 56
2, 258860, Note_on_c, 0, 64, 41
2, 258864, Note_on_c, 0, 73, 36
2, 258872, Note_on_c, 0, 77, 42
2, 258872, Note_on_c, 0, 60, 37
2, 258872, Note_on_c, 0, 54, 31
2, 258876, Control_c, 0, 64, 0
2, 258912, Note_on_c, 0, 64, 0
2, 258924, Note_on_c, 0, 60, 0
2, 258980, Note_on_c, 0, 54, 0
2, 258988, Control_c, 0, 64, 127
2, 259172, Note_on_c, 0, 38, 28
2, 259204, Note_on_c, 0, 38, 0
2, 259236, Note_on_c, 0, 77, 0
2, 259264, Note_on_c, 0, 73, 0
2, 259332, Note_on_c, 0, 82, 0
2, 259464, Note_on_c, 0, 76, 55
2, 259468, Note_on_c, 0, 81, 61
2, 259468, Note_on_c, 0, 72, 46
2, 259472, Note_on_c, 0, 54, 47
2, 259732, Note_on_c, 0, 60, 48
2, 259768, Note_on_c, 0, 72, 0
2, 259796, Note_on_c, 0, 76, 0
2, 260044, Note_on_c, 0, 65, 48
2, 260500, Note_on_c, 0, 81, 0
2, 260552, Note_on_c, 0, 65, 0
2, 260628, Note_on_c, 0, 60, 0
2, 260700, Note_on_c, 0, 54, 0
2, 260996, Note_on_c, 0, 69, 68
2, 261004, Note_on_c, 0, 64, 69
2, 261004, Note_on_c, 0, 59, 62
2, 261008, Note_on_c, 0, 53, 56
2, 261028, Control_c, 0, 64, 0
2, 261060, Note_on_c, 0, 59, 0
2, 261072, Note_on_c, 0, 69, 0
2, 261076, Note_on_c, 0, 64, 0
2, 261108, Note_on_c, 0, 53, 0
2, 261288, Note_on_c, 0, 64, 65
2, 261292, Note_on_c, 0, 69, 66
2, 261296, Note_on_c, 0, 59, 60
2, 261300, Note_on_c, 0, 53, 58
2, 261436, Control_c, 0, 64, 127
2, 261516, Note_on_c, 0, 43, 52
2, 261536, Note_on_c, 0, 53, 0
2, 261752, Control_c, 0, 64, 0
2, 261756, Note_on_c, 0, 54, 50
2, 261808, Control_c, 0, 64, 127
2, 261896, Note_on_c, 0, 64, 0
2, 261932, Note_on_c, 0, 59, 0
2, 261988, Note_on_c, 0, 54, 0
2, 262000, Note_on_c, 0, 50, 50
2, 262092, Note_on_c, 0, 50, 0
2, 262120, Note_on_c, 0, 69, 0
2, 262348, Note_on_c, 0, 59, 45
2, 262348, Note_on_c, 0, 67, 37
2, 262348, Note_on_c, 0, 63, 47
2, 262372, Note_on_c, 0, 53, 47
2, 262416, Control_c, 0, 64, 0
2, 262616, Control_c, 0, 64, 127
2, 263240, Note_on_c, 0, 67, 0
2, 263244, Note_on_c, 0, 59, 0
2, 263260, Note_on_c, 0, 63, 0
2, 263308, Note_on_c, 0, 53, 0
2, 263360, Note_on_c, 0, 62, 110
2, 263368, Note_on_c, 0, 50, 58
2, 263488, Note_on_c, 0, 62, 0
2, 263492, Note_on_c, 0, 50, 0
2, 263548, Note_on_c, 0, 62, 87
2, 263564, Note_on_c, 0, 50, 62
2, 263680, Note_on_c, 0, 62, 0
2, 263748, Note_on_c, 0, 64, 99
2, 263756, Note_on_c, 0, 50, 0
2, 263760, Note_on_c, 0, 52, 71
2, 263852, Note_on_c, 0, 52, 0
2, 263860, Note_on_c, 0, 64, 0
2, 263928, Note_on_c, 0, 64, 87
2, 263932, Note_on_c, 0, 52, 56
2, 264048, Note_on_c, 0, 52, 0
2, 264052, Note_on_c, 0, 64, 0
2, 264116, Note_on_c, 0, 65, 81
2, 264120, Note_on_c, 0, 53, 60
2, 264200, Note_on_c, 0, 53, 0
2, 264220, Note_on_c, 0, 65, 0
2, 264292, Note_on_c, 0, 53, 36
2, 264300, Note_on_c, 0, 65, 59
2, 264336, Note_on_c, 0, 53, 0
2, 264372, Note_on_c, 0, 43, 0
2, 264452, Note_on_c, 0, 65, 0
2, 264604, Note_on_c, 0, 67, 78
2, 264608, Note_on_c, 0, 36, 72
2, 264640, Control_c, 0, 64, 0
2, 264748, Control_c, 0, 64, 127
2, 264764, Note_on_c, 0, 67, 0
2, 264824, Note_on_c, 0, 36, 0
2, 264856, Note_on_c, 0, 48, 45
2, 264856, Note_on_c, 0, 72, 78
2, 264880, Note_on_c, 0, 48, 0
2, 264996, Note_on_c, 0, 72, 0
2, 265132, Note_on_c, 0, 76, 79
2, 265156, Note_on_c, 0, 58, 51
2, 265308, Note_on_c, 0, 76, 0
2, 265420, Note_on_c, 0, 79, 71
2, 265424, Note_on_c, 0, 64, 55
2, 265464, Note_on_c, 0, 64, 0
2, 265480, Note_on_c, 0, 58, 0
2, 265516, Note_on_c, 0, 79, 0
2, 265756, Note_on_c, 0, 80, 67
2, 265764, Note_on_c, 0, 84, 76
2, 265768, Note_on_c, 0, 76, 70
2, 265772, Note_on_c, 0, 70, 59
2, 266012, Note_on_c, 0, 76, 0
2, 266032, Note_on_c, 0, 80, 0
2, 266040, Note_on_c, 0, 84, 0
2, 266116, Note_on_c, 0, 82, 62
2, 266120, Note_on_c, 0, 78, 56
2, 266128, Note_on_c, 0, 68, 56
2, 266132, Note_on_c, 0, 70, 0
2, 266132, Note_on_c, 0, 74, 56
2, 266268, Note_on_c, 0, 82, 0
2, 266320, Note_on_c, 0, 78, 0
2, 266336, Note_on_c, 0, 74, 0
2, 266468, Note_on_c, 0, 68, 0
2, 266472, Control_c, 0, 64, 0
2, 266492, Note_on_c, 0, 80, 49
2, 266492, Note_on_c, 0, 76, 58
2, 266496, Note_on_c, 0, 72, 57
2, 266504, Note_on_c, 0, 67, 54
2, 266564, Control_c, 0, 64, 127
2, 266612, Note_on_c, 0, 76, 0
2, 266648, Note_on_c, 0, 72, 0
2, 266736, Note_on_c, 0, 80, 0
2, 266824, Note_on_c, 0, 67, 0
2, 266840, Note_on_c, 0, 76, 58
2, 266840, Note_on_c, 0, 70, 49
2, 266844, Note_on_c, 0, 64, 38
2, 266852, Note_on_c, 0, 73, 49
2, 266876, Note_on_c, 0, 64, 0
2, 267012, Note_on_c, 0, 76, 0
2, 267012, Note_on_c, 0, 73, 0
2, 267028, Note_on_c, 0, 70, 0
2, 267236, Note_on_c, 0, 48, 41
2, 267240, Note_on_c, 0, 41, 35
2, 267240, Note_on_c, 0, 81, 57
2, 267244, Note_on_c, 0, 76, 58
2, 267244, Note_on_c, 0, 69, 54
2, 267304, Control_c, 0, 64, 0
2, 267412, Control_c, 0, 64, 127
2, 267488, Note_on_c, 0, 41, 0
2, 267512, Note_on_c, 0, 48, 0
2, 267652, Note_on_c, 0, 81, 0
2, 267668, Note_on_c, 0, 76, 0
2, 267708, Note_on_c, 0, 69, 0
2, 268004, Note_on_c, 0, 62, 42
2, 268012, Note_on_c, 0, 53, 38
2, 268020, Note_on_c, 0, 60, 41
2, 268024, Note_on_c, 0, 57, 43
2, 268272, Note_on_c, 0, 62, 0
2, 268276, Note_on_c, 0, 60, 0
2, 268300, Note_on_c, 0, 57, 0
2, 268348, Note_on_c, 0, 53, 0
2, 268560, Note_on_c, 0, 72, 71
2, 268692, Note_on_c, 0, 72, 0
2, 268760, Note_on_c, 0, 66, 45
2, 268760, Note_on_c, 0, 39, 48
2, 268768, Note_on_c, 0, 74, 62
2, 268772, Control_c, 0, 64, 0
2, 268776, Note_on_c, 0, 69, 55
2, 268776, Note_on_c, 0, 54, 36
2, 268912, Control_c, 0, 64, 127
2, 269008, Note_on_c, 0, 39, 0
2, 269104, Note_on_c, 0, 54, 0
2, 269212, Note_on_c, 0, 69, 0
2, 269304, Note_on_c, 0, 66, 0
2, 269524, Note_on_c, 0, 63, 45
2, 269532, Note_on_c, 0, 66, 43
2, 269540, Note_on_c, 0, 54, 35
2, 269544, Note_on_c, 0, 69, 50
2, 269624, Note_on_c, 0, 63, 0
2, 269640, Note_on_c, 0, 74, 0
2, 269676, Note_on_c, 0, 69, 0
2, 269688, Note_on_c, 0, 66, 0
2, 269692, Note_on_c, 0, 54, 0
2, 270028, Note_on_c, 0, 44, 45
2, 270032, Note_on_c, 0, 54, 39
2, 270040, Note_on_c, 0, 57, 64
2, 270204, Note_on_c, 0, 54, 0
2, 270232, Note_on_c, 0, 57, 0
2, 270240, Note_on_c, 0, 44, 0
2, 270284, Control_c, 0, 64, 0
2, 270300, Note_on_c, 0, 58, 51
2, 270312, Note_on_c, 0, 43, 48
2, 270320, Note_on_c, 0, 53, 38
2, 270408, Control_c, 0, 64, 127
2, 270492, Note_on_c, 0, 43, 0
2, 270528, Note_on_c, 0, 58, 0
2, 270544, Note_on_c, 0, 53, 0
2, 271080, Note_on_c, 0, 62, 46
2, 271084, Note_on_c, 0, 65, 51
2, 271096, Note_on_c, 0, 58, 33
2, 271100, Note_on_c, 0, 60, 33
2, 271152, Note_on_c, 0, 62, 0
2, 271168, Note_on_c, 0, 65, 0
2, 271388, Note_on_c, 0, 60, 0
2, 271480, Note_on_c, 0, 58, 0
2, 271568, Note_on_c, 0, 74, 94
2, 271592, Note_on_c, 0, 68, 67
2, 271596, Note_on_c, 0, 62, 79
2, 271600, Note_on_c, 0, 72, 58
2, 271632, Note_on_c, 0, 72, 0
2, 271664, Note_on_c, 0, 71, 24
2, 271724, Note_on_c, 0, 68, 0
2, 271732, Note_on_c, 0, 71, 0
2, 271752, Note_on_c, 0, 62, 0
2, 271768, Note_on_c, 0, 74, 0
2, 271856, Note_on_c, 0, 74, 67
2, 271860, Control_c, 0, 64, 0
2, 271868, Note_on_c, 0, 71, 67
2, 271872, Note_on_c, 0, 68, 67
2, 271876, Note_on_c, 0, 56, 36
2, 271880, Note_on_c, 0, 62, 66
2, 271888, Note_on_c, 0, 59, 46
2, 271904, Note_on_c, 0, 53, 46
2, 271968, Control_c, 0, 64, 127
2, 271988, Note_on_c, 0, 59, 0
2, 272020, Note_on_c, 0, 74, 0
2, 272056, Note_on_c, 0, 53, 0
2, 272068, Note_on_c, 0, 56, 0
2, 272068, Note_on_c, 0, 62, 0
2, 272112, Note_on_c, 0, 71, 0
2, 272160, Note_on_c, 0, 68, 0
2, 272348, Note_on_c, 0, 75, 59
2, 272348, Note_on_c, 0, 68, 50
2, 272352, Note_on_c, 0, 63, 49
2, 272516, Note_on_c, 0, 68, 0
2, 272552, Note_on_c, 0, 63, 0
2, 272564, Note_on_c, 0, 75, 0
2, 272592, Control_c, 0, 64, 0
2, 272604, Note_on_c, 0, 56, 37
2, 272612, Note_on_c, 0, 47, 45
2, 272616, Note_on_c, 0, 71, 49
2, 272624, Note_on_c, 0, 64, 56
2, 272624, Note_on_c, 0, 76, 59
2, 272716, Control_c, 0, 64, 127
2, 272892, Note_on_c, 0, 76, 0
2, 272928, Note_on_c, 0, 71, 0
2, 272960, Note_on_c, 0, 64, 0
2, 273084, Note_on_c, 0, 47, 0
2, 273104, Note_on_c, 0, 56, 0
2, 273392, Control_c, 0, 64, 0
2, 273400, Note_on_c, 0, 55, 55
2, 273404, Note_on_c, 0, 45, 45
2, 273408, Note_on_c, 0, 72, 72
2, 273408, Note_on_c, 0, 67, 63
2, 273412, Note_on_c, 0, 60, 62
2, 273412, Note_on_c, 0, 52, 31
2, 273524, Control_c, 0, 64, 127
2, 273552, Note_on_c, 0, 45, 0
2, 273568, Note_on_c, 0, 60, 0
2, 273588, Note_on_c, 0, 52, 0
2, 273604, Note_on_c, 0, 55, 0
2, 273620, Note_on_c, 0, 67, 0
2, 273660, Note_on_c, 0, 72, 0
2, 273908, Note_on_c, 0, 84, 101
2, 274068, Note_on_c, 0, 84, 0
2, 274184, Note_on_c, 0, 84, 79
2, 274196, Note_on_c, 0, 55, 76
2, 274204, Note_on_c, 0, 61, 71
2, 274204, Note_on_c, 0, 66, 77
2, 274208, Note_on_c, 0, 77, 84
2, 274208, Note_on_c, 0, 81, 68
2, 274216, Control_c, 0, 64, 0
2, 274220, Note_on_c, 0, 73, 77
2, 274356, Control_c, 0, 64, 127
2, 274480, Note_on_c, 0, 81, 0
2, 274488, Note_on_c, 0, 77, 0
2, 274580, Note_on_c, 0, 84, 0
2, 274612, Note_on_c, 0, 73, 0
2, 274664, Note_on_c, 0, 76, 77
2, 274748, Note_on_c, 0, 55, 0
2, 274764, Note_on_c, 0, 76, 0
2, 274808, Note_on_c, 0, 66, 0
2, 274816, Note_on_c, 0, 61, 0
2, 274980, Note_on_c, 0, 70, 84
2, 274984, Note_on_c, 0, 77, 80
2, 274984, Note_on_c, 0, 75, 63
2, 274988, Note_on_c, 0, 67, 80
2, 275008, Note_on_c, 0, 63, 68
2, 275016, Control_c, 0, 64, 0
2, 275172, Control_c, 0, 64, 127
2, 275284, Note_on_c, 0, 63, 0
2, 275464, Note_on_c, 0, 77, 0
2, 275480, Note_on_c, 0, 55, 78
2, 275496, Note_on_c, 0, 70, 0
2, 275500, Note_on_c, 0, 75, 0
2, 275516, Note_on_c, 0, 67, 0
2, 275684, Note_on_c, 0, 55, 0
2, 275996, Control_c, 0, 64, 0
2, 276032, Note_on_c, 0, 57, 62
2, 276040, Note_on_c, 0, 63, 63
2, 276040, Note_on_c, 0, 66, 58
2, 276044, Note_on_c, 0, 74, 49
2, 276048, Note_on_c, 0, 69, 64
2, 276156, Control_c, 0, 64, 127
2, 276240, Note_on_c, 0, 74, 0
2, 276292, Note_on_c, 0, 47, 54
2, 276320, Note_on_c, 0, 63, 0
2, 276352, Note_on_c, 0, 69, 0
2, 276384, Note_on_c, 0, 47, 0
2, 276388, Note_on_c, 0, 57, 0
2, 276412, Note_on_c, 0, 66, 0
2, 276584, Note_on_c, 0, 62, 54
2, 276588, Note_on_c, 0, 65, 54
2, 276600, Note_on_c, 0, 55, 39
2, 276604, Control_c, 0, 64, 0
2, 276604, Note_on_c, 0, 46, 32
2, 276752, Control_c, 0, 64, 127
2, 276916, Note_on_c, 0, 65, 0
2, 276960, Note_on_c, 0, 62, 0
2, 277076, Note_on_c, 0, 55, 0
2, 277352, Note_on_c, 0, 58, 34
2, 277356, Note_on_c, 0, 62, 50
2, 277368, Note_on_c, 0, 55, 29
2, 277428, Note_on_c, 0, 58, 0
2, 277452, Note_on_c, 0, 62, 0
2, 277708, Note_on_c, 0, 46, 0
2, 277720, Note_on_c, 0, 55, 0
2, 277864, Note_on_c, 0, 77, 80
2, 277976, Note_on_c, 0, 77, 0
2, 278136, Note_on_c, 0, 77, 69
2, 278148, Note_on_c, 0, 65, 45
2, 278160, Control_c, 0, 64, 0
2, 278160, Note_on_c, 0, 61, 31
2, 278160, Note_on_c, 0, 55, 38
2, 278164, Note_on_c, 0, 72, 47
2, 278276, Control_c, 0, 64, 127
2, 278308, Note_on_c, 0, 65, 0
2, 278348, Note_on_c, 0, 61, 0
2, 278388, Note_on_c, 0, 55, 0
2, 278440, Note_on_c, 0, 77, 0
2, 278456, Note_on_c, 0, 72, 0
2, 278656, Note_on_c, 0, 79, 57
2, 278668, Note_on_c, 0, 67, 50
2, 278788, Note_on_c, 0, 79, 0
2, 278796, Note_on_c, 0, 67, 0
2, 278904, Note_on_c, 0, 39, 49
2, 278908, Note_on_c, 0, 46, 45
2, 278944, Control_c, 0, 64, 0
2, 278968, Control_c, 0, 64, 127
2, 279052, Note_on_c, 0, 39, 0
2, 279076, Note_on_c, 0, 46, 0
2, 279176, Note_on_c, 0, 80, 50
2, 279180, Note_on_c, 0, 68, 47
2, 279196, Note_on_c, 0, 75, 42
2, 279456, Note_on_c, 0, 75, 0
2, 279460, Note_on_c, 0, 68, 0
2, 279468, Note_on_c, 0, 80, 0
2, 280488, Note_on_c, 0, 72, 81
2, 280492, Note_on_c, 0, 81, 78
2, 280492, Note_on_c, 0, 77, 74
2, 280496, Note_on_c, 0, 69, 81
2, 280504, Note_on_c, 0, 61, 67
2, 280508, Note_on_c, 0, 66, 71
2, 280512, Note_on_c, 0, 55, 74
2, 280536, Control_c, 0, 64, 0
2, 280644, Control_c, 0, 64, 127
2, 280804, Note_on_c, 0, 81, 0
2, 280812, Note_on_c, 0, 69, 0
2, 280828, Note_on_c, 0, 72, 0
2, 280828, Note_on_c, 0, 77, 0
2, 281016, Note_on_c, 0, 72, 88
2, 281148, Note_on_c, 0, 72, 0
2, 281168, Note_on_c, 0, 66, 0
2, 281192, Note_on_c, 0, 55, 0
2, 281284, Note_on_c, 0, 61, 0
2, 281308, Note_on_c, 0, 70, 60
2, 281308, Note_on_c, 0, 74, 68
2, 281320, Note_on_c, 0, 65, 55
2, 281324, Note_on_c, 0, 54, 47
2, 281328, Note_on_c, 0, 60, 53
2, 281340, Control_c, 0, 64, 0
2, 281500, Control_c, 0, 64, 127
2, 281592, Note_on_c, 0, 60, 0
2, 281636, Note_on_c, 0, 54, 0
2, 282076, Note_on_c, 0, 38, 58
2, 282104, Note_on_c, 0, 65, 0
2, 282152, Note_on_c, 0, 70, 0
2, 282172, Note_on_c, 0, 38, 0
2, 282240, Note_on_c, 0, 74, 0
2, 282564, Note_on_c, 0, 77, 95
2, 282680, Note_on_c, 0, 77, 0
2, 282752, Note_on_c, 0, 81, 91
2, 282772, Note_on_c, 0, 80, 46
2, 282856, Note_on_c, 0, 80, 0
2, 282864, Note_on_c, 0, 81, 0
2, 282932, Control_c, 0, 64, 0
2, 282948, Note_on_c, 0, 43, 64
2, 282964, Note_on_c, 0, 84, 87
2, 282980, Note_on_c, 0, 72, 71
2, 283180, Control_c, 0, 64, 127
2, 283220, Note_on_c, 0, 72, 0
2, 283236, Note_on_c, 0, 84, 0
2, 283276, Note_on_c, 0, 43, 0
2, 283472, Note_on_c, 0, 84, 80
2, 283476, Note_on_c, 0, 72, 70
2, 283716, Control_c, 0, 64, 0
2, 283720, Note_on_c, 0, 62, 51
2, 283732, Note_on_c, 0, 58, 37
2, 283748, Note_on_c, 0, 62, 0
2, 283748, Note_on_c, 0, 60, 32
2, 283780, Note_on_c, 0, 60, 0
2, 283796, Note_on_c, 0, 58, 0
2, 284204, Note_on_c, 0, 36, 69
2, 284212, Control_c, 0, 64, 127
2, 284232, Note_on_c, 0, 36, 0
2, 284504, Note_on_c, 0, 72, 0
2, 284544, Note_on_c, 0, 84, 0
2, 285052, Note_on_c, 0, 87, 86
2, 285056, Note_on_c, 0, 49, 83
2, 285056, Note_on_c, 0, 75, 90
2, 285060, Note_on_c, 0, 60, 87
2, 285060, Note_on_c, 0, 82, 83
2, 285064, Note_on_c, 0, 55, 80
2, 285088, Control_c, 0, 64, 0
2, 285196, Control_c, 0, 64, 127
2, 285264, Note_on_c, 0, 60, 0
2, 285268, Note_on_c, 0, 55, 0
2, 285276, Note_on_c, 0, 49, 0
2, 285308, Note_on_c, 0, 75, 0
2, 285320, Note_on_c, 0, 87, 0
2, 285324, Note_on_c, 0, 82, 0
2, 285360, Note_on_c, 0, 61, 84
2, 285360, Note_on_c, 0, 56, 73
2, 285360, Note_on_c, 0, 88, 78
2, 285364, Note_on_c, 0, 50, 77
2, 285364, Note_on_c, 0, 83, 75
2, 285364, Note_on_c, 0, 76, 76
2, 285380, Control_c, 0, 64, 0
2, 285504, Control_c, 0, 64, 127
2, 285592, Note_on_c, 0, 76, 0
2, 285604, Note_on_c, 0, 50, 0
2, 285628, Note_on_c, 0, 83, 0
2, 285636, Note_on_c, 0, 88, 0
2, 285692, Note_on_c, 0, 61, 0
2, 285716, Note_on_c, 0, 56, 0
2, 285824, Note_on_c, 0, 62, 91
2, 285828, Note_on_c, 0, 51, 84
2, 285828, Note_on_c, 0, 57, 81
2, 285832, Note_on_c, 0, 89, 89
2, 285832, Note_on_c, 0, 77, 94
2, 285832, Note_on_c, 0, 84, 91
2, 285860, Control_c, 0, 64, 0
2, 286028, Control_c, 0, 64, 127
2, 286108, Note_on_c, 0, 89, 0
2, 286140, Note_on_c, 0, 84, 0
2, 286188, Note_on_c, 0, 77, 0
2, 286380, Note_on_c, 0, 80, 92
2, 286384, Note_on_c, 0, 86, 87
2, 286388, Control_c, 0, 64, 0
2, 286400, Note_on_c, 0, 79, 85
2, 286408, Note_on_c, 0, 80, 0
2, 286452, Note_on_c, 0, 57, 0
2, 286464, Note_on_c, 0, 62, 0
2, 286500, Note_on_c, 0, 51, 0
2, 286640, Note_on_c, 0, 86, 0
2, 286656, Note_on_c, 0, 79, 0
2, 286860, Note_on_c, 0, 77, 77
2, 286896, Control_c, 0, 64, 127
2, 287056, Note_on_c, 0, 77, 0
2, 287080, Note_on_c, 0, 74, 65
2, 287156, Note_on_c, 0, 74, 0
2, 287284, Control_c, 0, 64, 0
2, 287308, Note_on_c, 0, 77, 73
2, 287312, Note_on_c, 0, 38, 58
2, 287352, Control_c, 0, 64, 127
2, 287368, Note_on_c, 0, 38, 0
2, 287652, Note_on_c, 0, 77, 0
2, 287880, Note_on_c, 0, 65, 44
2, 287880, Note_on_c, 0, 54, 37
2, 287892, Note_on_c, 0, 58, 34
2, 287900, Note_on_c, 0, 60, 44
2, 288224, Note_on_c, 0, 65, 0
2, 288228, Note_on_c, 0, 60, 0
2, 288280, Note_on_c, 0, 58, 0
2, 288300, Note_on_c, 0, 54, 0
2, 288644, Note_on_c, 0, 50, 51
2, 288744, Note_on_c, 0, 50, 0
2, 288824, Control_c, 0, 64, 0
2, 288900, Note_on_c, 0, 43, 32
2, 288908, Control_c, 0, 64, 127
2, 288980, Note_on_c, 0, 43, 0
2, 289388, Note_on_c, 0, 59, 49
2, 289412, Note_on_c, 0, 53, 34
2, 289500, Note_on_c, 0, 59, 0
2, 289608, Control_c, 0, 64, 0
2, 289640, Note_on_c, 0, 67, 80
2, 289652, Note_on_c, 0, 74, 70
2, 289664, Note_on_c, 0, 53, 0
2, 289672, Note_on_c, 0, 68, 51
2, 289688, Note_on_c, 0, 67, 0
2, 289740, Note_on_c, 0, 74, 0
2, 289752, Note_on_c, 0, 67, 39
2, 289784, Note_on_c, 0, 68, 0
2, 289840, Note_on_c, 0, 67, 0
2, 289856, Note_on_c, 0, 65, 45
2, 289920, Note_on_c, 0, 65, 0
2, 290028, Note_on_c, 0, 62, 59
2, 290132, Note_on_c, 0, 62, 0
2, 290184, Control_c, 0, 64, 127
2, 290192, Note_on_c, 0, 60, 51
2, 290256, Note_on_c, 0, 60, 0
2, 290364, Note_on_c, 0, 65, 51
2, 290372, Note_on_c, 0, 36, 42
2, 290376, Control_c, 0, 64, 0
2, 290468, Control_c, 0, 64, 127
2, 290584, Note_on_c, 0, 65, 0
2, 290624, Note_on_c, 0, 53, 58
2, 290664, Control_c, 0, 64, 0
2, 290780, Note_on_c, 0, 53, 0
2, 290816, Note_on_c, 0, 55, 71
2, 290940, Note_on_c, 0, 55, 0
2, 290984, Control_c, 0, 64, 127
2, 291024, Control_c, 0, 64, 0
2, 291044, Note_on_c, 0, 55, 43
2, 291048, Note_on_c, 0, 56, 74
2, 291076, Note_on_c, 0, 55, 0
2, 291084, Note_on_c, 0, 48, 35
2, 291104, Note_on_c, 0, 56, 0
2, 291104, Note_on_c, 0, 57, 62
2, 291200, Note_on_c, 0, 36, 0
2, 291232, Note_on_c, 0, 57, 0
2, 291284, Note_on_c, 0, 48, 0
2, 291292, Note_on_c, 0, 60, 64
2, 291396, Note_on_c, 0, 60, 0
2, 291500, Control_c, 0, 64, 127
2, 291524, Note_on_c, 0, 62, 69
2, 291692, Note_on_c, 0, 62, 0
2, 291748, Control_c, 0, 64, 0
2, 291752, Note_on_c, 0, 60, 49
2, 291768, Note_on_c, 0, 45, 50
2, 291872, Control_c, 0, 64, 127
2, 291992, Note_on_c, 0, 45, 0
2, 292008, Control_c, 0, 64, 0
2, 292088, Note_on_c, 0, 60, 0
2, 292248, Note_on_c, 0, 45, 49
2, 292288, Control_c, 0, 64, 127
2, 292472, Control_c, 0, 64, 0
2, 292500, Note_on_c, 0, 45, 0
2, 292504, Note_on_c, 0, 65, 50
2, 292508, Note_on_c, 0, 60, 55
2, 292520, Note_on_c, 0, 55, 34
2, 292560, Note_on_c, 0, 55, 0
2, 292592, Note_on_c, 0, 65, 0
2, 292592, Note_on_c, 0, 60, 0
2, 292728, Note_on_c, 0, 39, 63
2, 292864, Control_c, 0, 64, 127
2, 292988, Note_on_c, 0, 39, 0
2, 293196, Control_c, 0, 64, 0
2, 293208, Note_on_c, 0, 38, 50
2, 293304, Control_c, 0, 64, 127
2, 293696, Note_on_c, 0, 54, 46
2, 293696, Note_on_c, 0, 50, 47
2, 293700, Note_on_c, 0, 65, 48
2, 293700, Note_on_c, 0, 60, 50
2, 293708, Note_on_c, 0, 58, 39
2, 294256, Note_on_c, 0, 38, 0
2, 294384, Note_on_c, 0, 50, 0
2, 294412, Note_on_c, 0, 38, 45
2, 294436, Note_on_c, 0, 60, 0
2, 294484, Note_on_c, 0, 54, 0
2, 294496, Note_on_c, 0, 58, 0
2, 294584, Note_on_c, 0, 65, 0
2, 294696, Note_on_c, 0, 38, 0
2, 294696, Control_c, 0, 64, 0
2, 294700, Note_on_c, 0, 62, 57
2, 294704, Note_on_c, 0, 53, 50
2, 294704, Note_on_c, 0, 58, 43
2, 294720, Note_on_c, 0, 43, 37
2, 294768, Note_on_c, 0, 53, 0
2, 294804, Note_on_c, 0, 43, 0
2, 294820, Note_on_c, 0, 58, 0
2, 294828, Note_on_c, 0, 62, 0
2, 295224, Note_on_c, 0, 59, 63
2, 295224, Note_on_c, 0, 69, 83
2, 295224, Note_on_c, 0, 65, 89
2, 295224, Note_on_c, 0, 72, 78
2, 295228, Note_on_c, 0, 60, 62
2, 295248, Note_on_c, 0, 59, 0
2, 295400, Note_on_c, 0, 72, 0
2, 295404, Note_on_c, 0, 65, 0
2, 295412, Note_on_c, 0, 60, 0
2, 295424, Note_on_c, 0, 69, 0
2, 295820, Note_on_c, 0, 70, 76
2, 295820, Note_on_c, 0, 58, 57
2, 295940, Note_on_c, 0, 70, 0
2, 295988, Note_on_c, 0, 58, 0
2, 296008, Note_on_c, 0, 60, 35
2, 296012, Note_on_c, 0, 72, 68
2, 296040, Note_on_c, 0, 60, 0
2, 296052, Control_c, 0, 64, 127
2, 296080, Note_on_c, 0, 72, 0
2, 296228, Control_c, 0, 64, 0
2, 296240, Note_on_c, 0, 68, 80
2, 296240, Note_on_c, 0, 58, 48
2, 296252, Note_on_c, 0, 67, 58
2, 296252, Note_on_c, 0, 72, 70
2, 296256, Note_on_c, 0, 48, 49
2, 296276, Note_on_c, 0, 67, 0
2, 296304, Note_on_c, 0, 58, 0
2, 296348, Note_on_c, 0, 48, 0
2, 296448, Note_on_c, 0, 72, 0
2, 296488, Note_on_c, 0, 68, 0
2, 296724, Note_on_c, 0, 62, 50
2, 296960, Note_on_c, 0, 62, 0
2, 297324, Note_on_c, 0, 65, 66
2, 297436, Note_on_c, 0, 65, 0
2, 297520, Note_on_c, 0, 62, 37
2, 297632, Note_on_c, 0, 62, 0
2, 297748, Note_on_c, 0, 65, 54
2, 298568, Note_on_c, 0, 29, 51
2, 298656, Note_on_c, 0, 29, 0
2, 298960, Control_c, 0, 64, 127
2, 299308, Control_c, 0, 64, 0
2, 299316, Note_on_c, 0, 57, 60
2, 299328, Note_on_c, 0, 33, 49
2, 299420, Note_on_c, 0, 57, 0
2, 299444, Note_on_c, 0, 33, 0
2, 299768, Note_on_c, 0, 34, 47
2, 299784, Note_on_c, 0, 58, 53
2, 299912, Note_on_c, 0, 65, 0
2, 299948, Note_on_c, 0, 34, 0
2, 299948, Note_on_c, 0, 58, 0
2, 300032, Note_on_c, 0, 59, 34
2, 300044, Note_on_c, 0, 35, 44
2, 300384, Note_on_c, 0, 59, 0
2, 300456, Note_on_c, 0, 35, 0
2, 300476, Note_on_c, 0, 36, 50
2, 300484, Note_on_c, 0, 60, 50
2, 300708, Note_on_c, 0, 36, 0
2, 300736, Note_on_c, 0, 60, 0
2, 301080, Control_c, 0, 64, 127
2, 301668, Note_on_c, 0, 58, 45
2, 301680, Note_on_c, 0, 68, 39
2, 301680, Note_on_c, 0, 42, 33
2, 301680, Control_c, 0, 64, 0
2, 301692, Note_on_c, 0, 61, 53
2, 301700, Note_on_c, 0, 64, 46
2, 301700, Note_on_c, 0, 52, 22
2, 301712, Note_on_c, 0, 49, 29
2, 301804, Control_c, 0, 64, 127
2, 301900, Note_on_c, 0, 49, 0
2, 301912, Note_on_c, 0, 52, 0
2, 301944, Note_on_c, 0, 64, 0
2, 301952, Note_on_c, 0, 68, 0
2, 301964, Note_on_c, 0, 58, 0
2, 301980, Note_on_c, 0, 61, 0
2, 302016, Note_on_c, 0, 42, 0
2, 302176, Note_on_c, 0, 67, 53
2, 302180, Control_c, 0, 64, 0
2, 302184, Note_on_c, 0, 62, 44
2, 302188, Note_on_c, 0, 57, 45
2, 302200, Note_on_c, 0, 51, 32
2, 302208, Note_on_c, 0, 41, 40
2, 302312, Note_on_c, 0, 57, 0
2, 302320, Control_c, 0, 64, 127
2, 302348, Note_on_c, 0, 62, 0
2, 302372, Note_on_c, 0, 67, 0
2, 302428, Note_on_c, 0, 41, 0
2, 302492, Note_on_c, 0, 51, 0
2, 302816, Note_on_c, 0, 63, 35
2, 302912, Note_on_c, 0, 69, 52
2, 302928, Note_on_c, 0, 67, 36
2, 302968, Note_on_c, 0, 74, 58
2, 302976, Note_on_c, 0, 69, 0
2, 303036, Note_on_c, 0, 74, 0
2, 303060, Note_on_c, 0, 79, 58
2, 303084, Note_on_c, 0, 79, 0
2, 303128, Note_on_c, 0, 81, 66
2, 303188, Note_on_c, 0, 81, 0
2, 303196, Note_on_c, 0, 86, 48
2, 303248, Note_on_c, 0, 86, 0
2, 303268, Note_on_c, 0, 91, 32
2, 303300, Note_on_c, 0, 91, 0
2, 303340, Note_on_c, 0, 93, 49
2, 303408, Note_on_c, 0, 98, 45
2, 303432, Note_on_c, 0, 67, 0
2, 303452, Note_on_c, 0, 93, 0
2, 303508, Note_on_c, 0, 103, 65
2, 303516, Note_on_c, 0, 98, 0
2, 303620, Note_on_c, 0, 103, 0
2, 303624, Note_on_c, 0, 101, 59
2, 303976, Note_on_c, 0, 63, 0
2, 304104, Note_on_c, 0, 101, 0
2, 305052, Control_c, 0, 64, 0
2, 305052, End_track
3, 0, Start_track
3, 0, MIDI_port, 0
3, 0, Sequencer_specific, 7, 0, 0, 0, 106, 0, 4, 0
3, 0, Title_t, "Doug McKenzie"
3, 0, End_track
0, 0, End_of_file
