0, 0, Header, 1, 4, 960
1, 0, Start_track
1, 0, Title_t, "Memories of Paris"
1, 0, Text_t, "Michel Petrucciani"
1, 0, Text_t, "dougmck@tpg.com.au\012"
1, 0, Time_signature, 4, 2, 24, 8
1, 0, Key_signature, 0, "major"
1, 0, Tempo, 1176471
1, 0, Marker_t, "Begins rubato - lots of space and contrasts in dynamics"
1, 36625, Marker_t, "Arpeggiated bass on Dm7 over several octaves - 1,9,3,7"
1, 39853, Marker_t, "Arpeggio on Gm7 - 1,5,9,10(3),14(7)"
1, 79560, Marker_t, "Pedal bass A - rhythmically over several octaves"
1, 93120, Marker_t, "Chromatically up to melody note"
1, 103522, Marker_t, "Arpeggio on Gbm7, 1,5,6,7,9,8"
1, 122880, Marker_t, "Easy double time feel with bass and drums"
1, 126720, Marker_t, "Bass plays freely - not so much on downbeats 1 and 3"
1, 130560, Marker_t, "Drms-just cmbls with dble feel.Pedal Hihat irregularly keeps the original feel"
1, 146240, Marker_t, "On Ab7 a Db maj scale"
1, 159616, Marker_t, "On B Maj7, a black note glissando"
1, 168960, Marker_t, "To approach the first melody note after bridge, a white note gliss"
1, 184168, Marker_t, "Chromatic run up to first note"
1, 211200, Marker_t, "Run on Ab7alt - LH plays Gb,Ab &RH plays A,C,E over held Ab in Bass"
1, 220399, Marker_t, "On final Dbm7 chord, 'so-what' voicings "
1, 231835, Marker_t, "Final arpeggio on Dm11 - LH plays b3,4,5 RH plays B,D#,F# (B maj triad)"
1, 231835, End_track
2, 0, Start_track
2, 0, Title_t, "Piano"
2, 0, Control_c, 0, 64, 127
2, 0, Note_on_c, 0, 76, 79
2, 0, Note_on_c, 0, 72, 66
2, 0, Note_on_c, 0, 65, 71
2, 0, Note_on_c, 0, 69, 64
2, 0, Note_on_c, 0, 64, 66
2, 1, Control_c, 0, 64, 0
2, 137, Control_c, 0, 64, 127
2, 1004, Note_on_c, 0, 64, 0
2, 1317, Note_on_c, 0, 69, 0
2, 1325, Note_on_c, 0, 76, 0
2, 1327, Note_on_c, 0, 72, 0
2, 1343, Note_on_c, 0, 65, 0
2, 2333, Note_on_c, 0, 57, 36
2, 2338, Note_on_c, 0, 60, 34
2, 2344, Note_on_c, 0, 53, 29
2, 2347, Note_on_c, 0, 64, 30
2, 2352, Note_on_c, 0, 33, 37
2, 2352, Note_on_c, 0, 26, 24
2, 2356, Note_on_c, 0, 38, 25
2, 2409, Control_c, 0, 64, 0
2, 2630, Control_c, 0, 64, 127
2, 2963, Note_on_c, 0, 53, 0
2, 2976, Note_on_c, 0, 57, 0
2, 3031, Note_on_c, 0, 33, 0
2, 3040, Note_on_c, 0, 60, 0
2, 3063, Note_on_c, 0, 26, 0
2, 3086, Note_on_c, 0, 64, 0
2, 3125, Note_on_c, 0, 38, 0
2, 3942, Note_on_c, 0, 61, 1
2, 3946, Note_on_c, 0, 86, 87
2, 3954, Note_on_c, 0, 62, 101
2, 4004, Note_on_c, 0, 61, 0
2, 4055, Control_c, 0, 64, 0
2, 4112, Control_c, 0, 64, 127
2, 4426, Note_on_c, 0, 86, 0
2, 4431, Note_on_c, 0, 81, 83
2, 4443, Note_on_c, 0, 57, 77
2, 4464, Note_on_c, 0, 62, 0
2, 4478, Control_c, 0, 64, 0
2, 4564, Control_c, 0, 64, 127
2, 4844, Note_on_c, 0, 77, 71
2, 4867, Note_on_c, 0, 57, 0
2, 4869, Note_on_c, 0, 53, 53
2, 4921, Note_on_c, 0, 81, 0
2, 5009, Note_on_c, 0, 53, 0
2, 5261, Note_on_c, 0, 77, 0
2, 5313, Note_on_c, 0, 84, 71
2, 5332, Note_on_c, 0, 43, 55
2, 5344, Control_c, 0, 64, 0
2, 5488, Control_c, 0, 64, 127
2, 5615, Note_on_c, 0, 84, 0
2, 5687, Note_on_c, 0, 50, 50
2, 6031, Note_on_c, 0, 43, 0
2, 6033, Note_on_c, 0, 58, 48
2, 6047, Note_on_c, 0, 65, 50
2, 6053, Note_on_c, 0, 50, 0
2, 6072, Note_on_c, 0, 57, 38
2, 6208, Note_on_c, 0, 58, 0
2, 6361, Note_on_c, 0, 65, 0
2, 6366, Note_on_c, 0, 72, 57
2, 6375, Note_on_c, 0, 58, 43
2, 6432, Note_on_c, 0, 57, 0
2, 6462, Note_on_c, 0, 72, 0
2, 6709, Note_on_c, 0, 84, 51
2, 6716, Note_on_c, 0, 77, 41
2, 6742, Note_on_c, 0, 62, 44
2, 6984, Note_on_c, 0, 62, 0
2, 7109, Note_on_c, 0, 62, 43
2, 7125, Note_on_c, 0, 84, 0
2, 7250, Note_on_c, 0, 77, 0
2, 7527, Note_on_c, 0, 77, 35
2, 7529, Note_on_c, 0, 70, 42
2, 7661, Note_on_c, 0, 69, 2
2, 7829, Note_on_c, 0, 62, 0
2, 8028, Note_on_c, 0, 82, 46
2, 8089, Note_on_c, 0, 62, 31
2, 8170, Note_on_c, 0, 69, 0
2, 8307, Note_on_c, 0, 77, 0
2, 8349, Note_on_c, 0, 82, 0
2, 8383, Note_on_c, 0, 62, 0
2, 8441, Note_on_c, 0, 58, 0
2, 8479, Note_on_c, 0, 70, 0
2, 9025, Note_on_c, 0, 25, 62
2, 9058, Control_c, 0, 64, 0
2, 9289, Control_c, 0, 64, 127
2, 9553, Note_on_c, 0, 25, 0
2, 10900, Note_on_c, 0, 61, 69
2, 10902, Note_on_c, 0, 69, 69
2, 10904, Note_on_c, 0, 64, 74
2, 10907, Control_c, 0, 64, 0
2, 10923, Note_on_c, 0, 59, 48
2, 10940, Note_on_c, 0, 49, 31
2, 10946, Note_on_c, 0, 53, 31
2, 11012, Control_c, 0, 64, 127
2, 11241, Note_on_c, 0, 59, 0
2, 11287, Note_on_c, 0, 61, 0
2, 11294, Note_on_c, 0, 53, 0
2, 11299, Note_on_c, 0, 49, 0
2, 11304, Note_on_c, 0, 69, 0
2, 11352, Note_on_c, 0, 64, 0
2, 11424, Note_on_c, 0, 68, 53
2, 11424, Note_on_c, 0, 64, 46
2, 11426, Note_on_c, 0, 59, 56
2, 11462, Note_on_c, 0, 53, 36
2, 11469, Note_on_c, 0, 49, 43
2, 11483, Control_c, 0, 64, 0
2, 11627, Control_c, 0, 64, 127
2, 11677, Note_on_c, 0, 64, 0
2, 11893, Note_on_c, 0, 62, 56
2, 12025, Note_on_c, 0, 68, 0
2, 12249, Note_on_c, 0, 69, 73
2, 12250, Note_on_c, 0, 53, 0
2, 12317, Note_on_c, 0, 49, 0
2, 12420, Note_on_c, 0, 69, 0
2, 12530, Note_on_c, 0, 62, 0
2, 12622, Note_on_c, 0, 59, 0
2, 12624, Note_on_c, 0, 61, 59
2, 12628, Note_on_c, 0, 68, 56
2, 12641, Note_on_c, 0, 42, 52
2, 12696, Control_c, 0, 64, 0
2, 12998, Note_on_c, 0, 48, 57
2, 13148, Control_c, 0, 64, 127
2, 13319, Note_on_c, 0, 61, 0
2, 13378, Note_on_c, 0, 48, 0
2, 13388, Note_on_c, 0, 61, 31
2, 13411, Note_on_c, 0, 57, 50
2, 13437, Note_on_c, 0, 49, 27
2, 13464, Control_c, 0, 64, 0
2, 13776, Note_on_c, 0, 49, 0
2, 13789, Note_on_c, 0, 51, 45
2, 13860, Control_c, 0, 64, 127
2, 13935, Note_on_c, 0, 57, 0
2, 13976, Note_on_c, 0, 61, 0
2, 14199, Note_on_c, 0, 61, 33
2, 14207, Note_on_c, 0, 57, 42
2, 14321, Control_c, 0, 64, 0
2, 14370, Control_c, 0, 64, 127
2, 14649, Control_c, 0, 64, 0
2, 14652, Note_on_c, 0, 52, 44
2, 14784, Control_c, 0, 64, 127
2, 14848, Note_on_c, 0, 51, 0
2, 14855, Note_on_c, 0, 57, 0
2, 14875, Note_on_c, 0, 42, 0
2, 14893, Note_on_c, 0, 61, 0
2, 15096, Note_on_c, 0, 68, 0
2, 15104, Note_on_c, 0, 61, 32
2, 15132, Note_on_c, 0, 57, 62
2, 15133, Note_on_c, 0, 66, 60
2, 15172, Note_on_c, 0, 54, 36
2, 15223, Note_on_c, 0, 52, 0
2, 15498, Note_on_c, 0, 54, 0
2, 15647, Note_on_c, 0, 54, 49
2, 15743, Note_on_c, 0, 54, 0
2, 15811, Note_on_c, 0, 57, 0
2, 16020, Note_on_c, 0, 61, 0
2, 16024, Note_on_c, 0, 66, 0
2, 16350, Note_on_c, 0, 54, 59
2, 16380, Note_on_c, 0, 44, 40
2, 16386, Note_on_c, 0, 32, 45
2, 16400, Control_c, 0, 64, 0
2, 16651, Control_c, 0, 64, 127
2, 16744, Note_on_c, 0, 54, 0
2, 16745, Note_on_c, 0, 32, 0
2, 16804, Note_on_c, 0, 44, 0
2, 17849, Note_on_c, 0, 76, 84
2, 17855, Note_on_c, 0, 72, 76
2, 17857, Note_on_c, 0, 67, 81
2, 17869, Note_on_c, 0, 54, 59
2, 18103, Note_on_c, 0, 76, 0
2, 18175, Note_on_c, 0, 67, 0
2, 18182, Note_on_c, 0, 72, 0
2, 18299, Note_on_c, 0, 75, 69
2, 18312, Note_on_c, 0, 66, 73
2, 18312, Note_on_c, 0, 71, 71
2, 18321, Note_on_c, 0, 60, 41
2, 18383, Control_c, 0, 64, 0
2, 18527, Control_c, 0, 64, 127
2, 18853, Note_on_c, 0, 66, 0
2, 18943, Note_on_c, 0, 69, 60
2, 18944, Note_on_c, 0, 71, 0
2, 18946, Note_on_c, 0, 66, 46
2, 19351, Note_on_c, 0, 66, 0
2, 19488, Note_on_c, 0, 75, 0
2, 19556, Note_on_c, 0, 69, 0
2, 19624, Note_on_c, 0, 76, 55
2, 19626, Note_on_c, 0, 69, 25
2, 19645, Note_on_c, 0, 66, 42
2, 19680, Note_on_c, 0, 60, 0
2, 19761, Note_on_c, 0, 54, 0
2, 19867, Note_on_c, 0, 76, 0
2, 20018, Note_on_c, 0, 69, 0
2, 20135, Note_on_c, 0, 66, 0
2, 20161, Note_on_c, 0, 75, 55
2, 20174, Note_on_c, 0, 49, 34
2, 20239, Control_c, 0, 64, 0
2, 20569, Note_on_c, 0, 55, 33
2, 20624, Control_c, 0, 64, 127
2, 20889, Note_on_c, 0, 55, 0
2, 20952, Control_c, 0, 64, 0
2, 20952, Note_on_c, 0, 64, 36
2, 20953, Note_on_c, 0, 68, 36
2, 20976, Note_on_c, 0, 56, 23
2, 21288, Control_c, 0, 64, 127
2, 21315, Note_on_c, 0, 56, 0
2, 21345, Note_on_c, 0, 58, 27
2, 21597, Note_on_c, 0, 68, 0
2, 21600, Note_on_c, 0, 64, 0
2, 21714, Note_on_c, 0, 75, 0
2, 21766, Note_on_c, 0, 73, 29
2, 21786, Note_on_c, 0, 64, 32
2, 21798, Note_on_c, 0, 68, 33
2, 21830, Note_on_c, 0, 58, 0
2, 22281, Note_on_c, 0, 68, 0
2, 22300, Note_on_c, 0, 64, 0
2, 22305, Note_on_c, 0, 58, 33
2, 22756, Note_on_c, 0, 68, 38
2, 23105, Note_on_c, 0, 58, 0
2, 23107, Note_on_c, 0, 49, 0
2, 23232, Note_on_c, 0, 68, 0
2, 23248, Note_on_c, 0, 49, 17
2, 23249, Note_on_c, 0, 73, 0
2, 23425, Note_on_c, 0, 49, 0
2, 23859, Note_on_c, 0, 59, 37
2, 23868, Note_on_c, 0, 62, 43
2, 23885, Note_on_c, 0, 46, 25
2, 23887, Note_on_c, 0, 34, 29
2, 23905, Control_c, 0, 64, 0
2, 24069, Control_c, 0, 64, 127
2, 24137, Note_on_c, 0, 34, 0
2, 24225, Note_on_c, 0, 46, 0
2, 24398, Note_on_c, 0, 59, 0
2, 24470, Note_on_c, 0, 62, 0
2, 25184, Note_on_c, 0, 83, 92
2, 25187, Note_on_c, 0, 71, 90
2, 25222, Note_on_c, 0, 82, 39
2, 25257, Note_on_c, 0, 82, 0
2, 25428, Note_on_c, 0, 83, 0
2, 25510, Note_on_c, 0, 71, 0
2, 25761, Note_on_c, 0, 82, 71
2, 25769, Note_on_c, 0, 70, 69
2, 25773, Note_on_c, 0, 67, 45
2, 25785, Note_on_c, 0, 62, 50
2, 25791, Note_on_c, 0, 56, 29
2, 25801, Control_c, 0, 64, 0
2, 25907, Control_c, 0, 64, 127
2, 26020, Note_on_c, 0, 70, 0
2, 26081, Note_on_c, 0, 82, 0
2, 26167, Note_on_c, 0, 67, 0
2, 26427, Note_on_c, 0, 66, 64
2, 26432, Note_on_c, 0, 90, 72
2, 26437, Note_on_c, 0, 78, 67
2, 27007, Note_on_c, 0, 66, 0
2, 27059, Note_on_c, 0, 65, 57
2, 27360, Note_on_c, 0, 62, 0
2, 27674, Note_on_c, 0, 78, 0
2, 27710, Note_on_c, 0, 90, 0
2, 27784, Note_on_c, 0, 62, 55
2, 28221, Note_on_c, 0, 56, 0
2, 28468, Note_on_c, 0, 89, 69
2, 28474, Note_on_c, 0, 77, 62
2, 28480, Note_on_c, 0, 56, 50
2, 28492, Note_on_c, 0, 65, 0
2, 28550, Note_on_c, 0, 62, 0
2, 28693, Note_on_c, 0, 56, 0
2, 28822, Note_on_c, 0, 89, 0
2, 28897, Note_on_c, 0, 77, 0
2, 30096, Note_on_c, 0, 61, 33
2, 30103, Note_on_c, 0, 63, 45
2, 30109, Note_on_c, 0, 53, 38
2, 30121, Note_on_c, 0, 56, 48
2, 30131, Note_on_c, 0, 39, 43
2, 30137, Note_on_c, 0, 27, 39
2, 30152, Note_on_c, 0, 58, 36
2, 30189, Control_c, 0, 64, 0
2, 30449, Control_c, 0, 64, 127
2, 30648, Note_on_c, 0, 53, 0
2, 30702, Note_on_c, 0, 56, 0
2, 30730, Note_on_c, 0, 27, 0
2, 30776, Note_on_c, 0, 39, 0
2, 30777, Note_on_c, 0, 58, 0
2, 30798, Note_on_c, 0, 63, 0
2, 30820, Note_on_c, 0, 61, 0
2, 31717, Note_on_c, 0, 63, 45
2, 31744, Note_on_c, 0, 51, 53
2, 31886, Note_on_c, 0, 63, 0
2, 32537, Note_on_c, 0, 75, 83
2, 33343, Note_on_c, 0, 75, 0
2, 33495, Note_on_c, 0, 75, 52
2, 33521, Note_on_c, 0, 64, 43
2, 33526, Note_on_c, 0, 70, 50
2, 33529, Note_on_c, 0, 68, 39
2, 33543, Note_on_c, 0, 63, 37
2, 33588, Note_on_c, 0, 51, 0
2, 33615, Control_c, 0, 64, 0
2, 33816, Control_c, 0, 64, 127
2, 34120, Note_on_c, 0, 63, 0
2, 34344, Note_on_c, 0, 63, 34
2, 34766, Note_on_c, 0, 63, 0
2, 34828, Note_on_c, 0, 64, 0
2, 35274, Note_on_c, 0, 63, 52
2, 35719, Note_on_c, 0, 63, 0
2, 36079, Note_on_c, 0, 63, 35
2, 36262, Note_on_c, 0, 63, 0
2, 36390, Note_on_c, 0, 70, 0
2, 36538, Note_on_c, 0, 75, 0
2, 36648, Note_on_c, 0, 68, 0
2, 36781, Note_on_c, 0, 76, 64
2, 36817, Note_on_c, 0, 38, 48
2, 36820, Control_c, 0, 64, 0
2, 36983, Control_c, 0, 64, 127
2, 37271, Note_on_c, 0, 38, 0
2, 37275, Note_on_c, 0, 52, 47
2, 37594, Note_on_c, 0, 52, 0
2, 37609, Note_on_c, 0, 65, 50
2, 37619, Note_on_c, 0, 69, 50
2, 37637, Note_on_c, 0, 53, 48
2, 37665, Control_c, 0, 64, 0
2, 37820, Control_c, 0, 64, 127
2, 37940, Note_on_c, 0, 57, 64
2, 37949, Note_on_c, 0, 53, 0
2, 38198, Note_on_c, 0, 57, 0
2, 38199, Note_on_c, 0, 65, 0
2, 38200, Note_on_c, 0, 69, 0
2, 38237, Note_on_c, 0, 60, 60
2, 38610, Note_on_c, 0, 64, 55
2, 38614, Note_on_c, 0, 65, 29
2, 38620, Note_on_c, 0, 69, 40
2, 38873, Note_on_c, 0, 65, 0
2, 38918, Note_on_c, 0, 64, 0
2, 38998, Note_on_c, 0, 76, 0
2, 39039, Note_on_c, 0, 65, 60
2, 39071, Note_on_c, 0, 64, 40
2, 39318, Note_on_c, 0, 74, 74
2, 39389, Note_on_c, 0, 65, 0
2, 39430, Note_on_c, 0, 69, 0
2, 39487, Note_on_c, 0, 64, 0
2, 39550, Note_on_c, 0, 69, 64
2, 39551, Note_on_c, 0, 60, 0
2, 39609, Note_on_c, 0, 74, 0
2, 39734, Note_on_c, 0, 69, 0
2, 39755, Note_on_c, 0, 65, 64
2, 39973, Note_on_c, 0, 65, 0
2, 39984, Note_on_c, 0, 72, 64
2, 39995, Note_on_c, 0, 43, 41
2, 40032, Control_c, 0, 64, 0
2, 40168, Control_c, 0, 64, 127
2, 40206, Note_on_c, 0, 50, 47
2, 40321, Note_on_c, 0, 72, 0
2, 40392, Note_on_c, 0, 43, 0
2, 40420, Note_on_c, 0, 50, 0
2, 40435, Note_on_c, 0, 65, 50
2, 40445, Note_on_c, 0, 58, 31
2, 40449, Note_on_c, 0, 57, 47
2, 40485, Note_on_c, 0, 58, 0
2, 40584, Note_on_c, 0, 65, 0
2, 40692, Note_on_c, 0, 58, 33
2, 40747, Note_on_c, 0, 57, 0
2, 40951, Note_on_c, 0, 77, 49
2, 40952, Note_on_c, 0, 84, 57
2, 41009, Note_on_c, 0, 62, 31
2, 41145, Note_on_c, 0, 62, 0
2, 41204, Note_on_c, 0, 84, 0
2, 41241, Note_on_c, 0, 62, 46
2, 41274, Note_on_c, 0, 77, 0
2, 41568, Note_on_c, 0, 70, 47
2, 41576, Note_on_c, 0, 77, 50
2, 41607, Note_on_c, 0, 67, 26
2, 41634, Note_on_c, 0, 62, 0
2, 41929, Note_on_c, 0, 82, 64
2, 41952, Note_on_c, 0, 67, 0
2, 41959, Note_on_c, 0, 62, 43
2, 42045, Note_on_c, 0, 62, 0
2, 42092, Note_on_c, 0, 58, 0
2, 42152, Note_on_c, 0, 77, 0
2, 42163, Note_on_c, 0, 80, 18
2, 42182, Note_on_c, 0, 70, 0
2, 42313, Note_on_c, 0, 82, 0
2, 42360, Note_on_c, 0, 80, 0
2, 42384, Note_on_c, 0, 49, 71
2, 42420, Control_c, 0, 64, 0
2, 42526, Control_c, 0, 64, 127
2, 42814, Note_on_c, 0, 53, 40
2, 43314, Note_on_c, 0, 61, 55
2, 43329, Note_on_c, 0, 64, 58
2, 43333, Note_on_c, 0, 59, 36
2, 43334, Note_on_c, 0, 69, 50
2, 43372, Control_c, 0, 64, 0
2, 43488, Control_c, 0, 64, 127
2, 43733, Note_on_c, 0, 69, 0
2, 43790, Note_on_c, 0, 68, 60
2, 43829, Note_on_c, 0, 59, 0
2, 43909, Note_on_c, 0, 61, 0
2, 43944, Note_on_c, 0, 49, 0
2, 43967, Note_on_c, 0, 64, 0
2, 44281, Note_on_c, 0, 62, 55
2, 44310, Note_on_c, 0, 49, 35
2, 44311, Note_on_c, 0, 59, 22
2, 44315, Note_on_c, 0, 53, 0
2, 44363, Control_c, 0, 64, 0
2, 44662, Control_c, 0, 64, 127
2, 44704, Note_on_c, 0, 53, 37
2, 44870, Note_on_c, 0, 59, 0
2, 44948, Note_on_c, 0, 68, 0
2, 45005, Note_on_c, 0, 62, 0
2, 45040, Note_on_c, 0, 69, 69
2, 45041, Note_on_c, 0, 62, 49
2, 45059, Note_on_c, 0, 59, 35
2, 45163, Note_on_c, 0, 49, 0
2, 45265, Note_on_c, 0, 59, 0
2, 45320, Note_on_c, 0, 69, 0
2, 45342, Note_on_c, 0, 49, 56
2, 45382, Note_on_c, 0, 53, 0
2, 45469, Note_on_c, 0, 49, 0
2, 45613, Note_on_c, 0, 62, 0
2, 45789, Note_on_c, 0, 61, 67
2, 45790, Note_on_c, 0, 68, 53
2, 45912, Control_c, 0, 64, 0
2, 46176, Note_on_c, 0, 42, 53
2, 46560, Note_on_c, 0, 48, 57
2, 46730, Control_c, 0, 64, 127
2, 46888, Note_on_c, 0, 61, 0
2, 46936, Note_on_c, 0, 48, 0
2, 46961, Note_on_c, 0, 61, 43
2, 46979, Note_on_c, 0, 57, 42
2, 46982, Control_c, 0, 64, 0
2, 46987, Note_on_c, 0, 49, 25
2, 47355, Note_on_c, 0, 51, 55
2, 47359, Note_on_c, 0, 49, 0
2, 47441, Control_c, 0, 64, 127
2, 47568, Note_on_c, 0, 57, 0
2, 47626, Note_on_c, 0, 61, 0
2, 47757, Note_on_c, 0, 61, 36
2, 47767, Note_on_c, 0, 57, 40
2, 48174, Note_on_c, 0, 52, 54
2, 48180, Note_on_c, 0, 51, 0
2, 48212, Control_c, 0, 64, 0
2, 48288, Control_c, 0, 64, 127
2, 48583, Note_on_c, 0, 52, 0
2, 48589, Note_on_c, 0, 49, 40
2, 48600, Note_on_c, 0, 57, 0
2, 48617, Note_on_c, 0, 68, 0
2, 48659, Note_on_c, 0, 42, 0
2, 48698, Note_on_c, 0, 49, 0
2, 48729, Note_on_c, 0, 61, 0
2, 49171, Note_on_c, 0, 60, 40
2, 49175, Control_c, 0, 64, 0
2, 49176, Note_on_c, 0, 54, 39
2, 49197, Note_on_c, 0, 44, 34
2, 49198, Note_on_c, 0, 32, 36
2, 49395, Control_c, 0, 64, 127
2, 49521, Note_on_c, 0, 54, 0
2, 49636, Note_on_c, 0, 60, 0
2, 49679, Note_on_c, 0, 32, 0
2, 49726, Note_on_c, 0, 44, 0
2, 50680, Note_on_c, 0, 76, 82
2, 50684, Note_on_c, 0, 72, 72
2, 50687, Note_on_c, 0, 67, 81
2, 50701, Note_on_c, 0, 54, 61
2, 50704, Control_c, 0, 64, 0
2, 50716, Note_on_c, 0, 60, 47
2, 50752, Control_c, 0, 64, 127
2, 50909, Note_on_c, 0, 76, 0
2, 50976, Note_on_c, 0, 67, 0
2, 50987, Note_on_c, 0, 54, 0
2, 51003, Note_on_c, 0, 72, 0
2, 51030, Note_on_c, 0, 60, 0
2, 51160, Note_on_c, 0, 75, 58
2, 51163, Note_on_c, 0, 66, 69
2, 51167, Note_on_c, 0, 71, 64
2, 51175, Note_on_c, 0, 54, 51
2, 51183, Note_on_c, 0, 60, 41
2, 51185, Control_c, 0, 64, 0
2, 51330, Control_c, 0, 64, 127
2, 51541, Note_on_c, 0, 75, 0
2, 51543, Note_on_c, 0, 69, 64
2, 51576, Note_on_c, 0, 71, 0
2, 51603, Note_on_c, 0, 66, 0
2, 51747, Note_on_c, 0, 60, 0
2, 51909, Note_on_c, 0, 76, 80
2, 51949, Note_on_c, 0, 60, 30
2, 52006, Note_on_c, 0, 60, 0
2, 52068, Note_on_c, 0, 76, 0
2, 52081, Note_on_c, 0, 54, 0
2, 52332, Note_on_c, 0, 75, 71
2, 52344, Note_on_c, 0, 49, 44
2, 52360, Note_on_c, 0, 69, 0
2, 52379, Control_c, 0, 64, 0
2, 52638, Control_c, 0, 64, 127
2, 52811, Control_c, 0, 64, 0
2, 52826, Note_on_c, 0, 55, 24
2, 52907, Control_c, 0, 64, 127
2, 53279, Note_on_c, 0, 55, 0
2, 53297, Note_on_c, 0, 68, 42
2, 53301, Note_on_c, 0, 64, 43
2, 53305, Note_on_c, 0, 56, 36
2, 53311, Control_c, 0, 64, 0
2, 53485, Control_c, 0, 64, 127
2, 54091, Note_on_c, 0, 56, 0
2, 54532, Note_on_c, 0, 56, 57
2, 54685, Note_on_c, 0, 75, 0
2, 54891, Note_on_c, 0, 73, 74
2, 55005, Note_on_c, 0, 49, 0
2, 55267, Note_on_c, 0, 49, 52
2, 55331, Note_on_c, 0, 56, 0
2, 55396, Note_on_c, 0, 49, 0
2, 55675, Note_on_c, 0, 64, 0
2, 55733, Note_on_c, 0, 68, 0
2, 55737, Control_c, 0, 64, 0
2, 55745, Note_on_c, 0, 73, 0
2, 55751, Note_on_c, 0, 34, 69
2, 55843, Control_c, 0, 64, 127
2, 55844, Note_on_c, 0, 34, 0
2, 56214, Note_on_c, 0, 71, 76
2, 56218, Note_on_c, 0, 67, 76
2, 56224, Note_on_c, 0, 62, 80
2, 56228, Control_c, 0, 64, 0
2, 56235, Note_on_c, 0, 56, 60
2, 56314, Control_c, 0, 64, 127
2, 56600, Note_on_c, 0, 71, 0
2, 56630, Note_on_c, 0, 67, 0
2, 56643, Note_on_c, 0, 62, 0
2, 56693, Note_on_c, 0, 70, 71
2, 56694, Note_on_c, 0, 62, 54
2, 56696, Note_on_c, 0, 66, 71
2, 56707, Note_on_c, 0, 46, 54
2, 56710, Control_c, 0, 64, 0
2, 56770, Note_on_c, 0, 56, 0
2, 56833, Control_c, 0, 64, 127
2, 56919, Note_on_c, 0, 62, 0
2, 57018, Note_on_c, 0, 66, 0
2, 57116, Note_on_c, 0, 70, 0
2, 57142, Note_on_c, 0, 56, 60
2, 57211, Note_on_c, 0, 46, 0
2, 57224, Note_on_c, 0, 56, 0
2, 57686, Note_on_c, 0, 56, 62
2, 57687, Note_on_c, 0, 67, 61
2, 57689, Note_on_c, 0, 90, 64
2, 57692, Note_on_c, 0, 62, 63
2, 57696, Note_on_c, 0, 78, 64
2, 57701, Note_on_c, 0, 86, 63
2, 57719, Control_c, 0, 64, 0
2, 57883, Control_c, 0, 64, 127
2, 58167, Note_on_c, 0, 56, 0
2, 58171, Note_on_c, 0, 90, 0
2, 58186, Note_on_c, 0, 62, 0
2, 58192, Note_on_c, 0, 67, 0
2, 58211, Note_on_c, 0, 78, 0
2, 58236, Note_on_c, 0, 86, 0
2, 58262, Note_on_c, 0, 90, 48
2, 58268, Note_on_c, 0, 78, 35
2, 58272, Note_on_c, 0, 67, 35
2, 58292, Note_on_c, 0, 56, 32
2, 58295, Note_on_c, 0, 86, 36
2, 58303, Note_on_c, 0, 62, 52
2, 58517, Note_on_c, 0, 67, 0
2, 58518, Note_on_c, 0, 86, 0
2, 58521, Note_on_c, 0, 56, 0
2, 58523, Note_on_c, 0, 62, 0
2, 58579, Note_on_c, 0, 78, 0
2, 58650, Note_on_c, 0, 90, 0
2, 58847, Note_on_c, 0, 89, 52
2, 58853, Note_on_c, 0, 77, 44
2, 58864, Control_c, 0, 64, 0
2, 58865, Note_on_c, 0, 65, 39
2, 58866, Note_on_c, 0, 86, 47
2, 58868, Note_on_c, 0, 56, 35
2, 58881, Note_on_c, 0, 62, 42
2, 58980, Control_c, 0, 64, 127
2, 59196, Note_on_c, 0, 89, 0
2, 59239, Note_on_c, 0, 56, 0
2, 59267, Note_on_c, 0, 86, 0
2, 59278, Note_on_c, 0, 77, 0
2, 59321, Note_on_c, 0, 65, 0
2, 59327, Note_on_c, 0, 62, 0
2, 59431, Note_on_c, 0, 56, 57
2, 59540, Note_on_c, 0, 56, 0
2, 60311, Note_on_c, 0, 61, 43
2, 60319, Note_on_c, 0, 56, 53
2, 60324, Note_on_c, 0, 53, 43
2, 60337, Note_on_c, 0, 39, 47
2, 60341, Note_on_c, 0, 58, 44
2, 60344, Note_on_c, 0, 27, 42
2, 60356, Control_c, 0, 64, 0
2, 60548, Control_c, 0, 64, 127
2, 60643, Note_on_c, 0, 53, 0
2, 60699, Note_on_c, 0, 56, 0
2, 60736, Note_on_c, 0, 58, 0
2, 60755, Note_on_c, 0, 61, 0
2, 60769, Note_on_c, 0, 27, 0
2, 60840, Note_on_c, 0, 39, 0
2, 61815, Note_on_c, 0, 63, 53
2, 61835, Note_on_c, 0, 53, 35
2, 61836, Note_on_c, 0, 56, 47
2, 61844, Note_on_c, 0, 61, 21
2, 61849, Note_on_c, 0, 51, 45
2, 61854, Note_on_c, 0, 58, 37
2, 61951, Note_on_c, 0, 53, 0
2, 62009, Note_on_c, 0, 56, 0
2, 62036, Note_on_c, 0, 58, 0
2, 62054, Note_on_c, 0, 63, 0
2, 62062, Note_on_c, 0, 61, 0
2, 62694, Note_on_c, 0, 75, 57
2, 62714, Note_on_c, 0, 70, 51
2, 62716, Note_on_c, 0, 64, 51
2, 62718, Note_on_c, 0, 68, 46
2, 62721, Note_on_c, 0, 63, 40
2, 63710, Note_on_c, 0, 63, 0
2, 63925, Note_on_c, 0, 75, 0
2, 63946, Note_on_c, 0, 70, 0
2, 63954, Note_on_c, 0, 68, 0
2, 63992, Note_on_c, 0, 64, 0
2, 64127, Note_on_c, 0, 51, 0
2, 65064, Note_on_c, 0, 63, 48
2, 65085, Note_on_c, 0, 55, 35
2, 65089, Note_on_c, 0, 61, 21
2, 65095, Note_on_c, 0, 58, 38
2, 65098, Note_on_c, 0, 51, 33
2, 65235, Note_on_c, 0, 51, 0
2, 65376, Note_on_c, 0, 55, 0
2, 65456, Note_on_c, 0, 58, 0
2, 65478, Note_on_c, 0, 63, 0
2, 65530, Note_on_c, 0, 61, 0
2, 65619, Control_c, 0, 64, 0
2, 65636, Note_on_c, 0, 63, 49
2, 65641, Note_on_c, 0, 56, 63
2, 65676, Note_on_c, 0, 59, 35
2, 65699, Note_on_c, 0, 40, 28
2, 65754, Control_c, 0, 64, 127
2, 65817, Note_on_c, 0, 56, 0
2, 65822, Note_on_c, 0, 59, 0
2, 65854, Note_on_c, 0, 63, 0
2, 66094, Note_on_c, 0, 40, 0
2, 66104, Note_on_c, 0, 47, 55
2, 66476, Note_on_c, 0, 75, 59
2, 66495, Note_on_c, 0, 68, 53
2, 66496, Note_on_c, 0, 64, 45
2, 66499, Note_on_c, 0, 56, 47
2, 66504, Control_c, 0, 64, 0
2, 66520, Note_on_c, 0, 47, 0
2, 66610, Control_c, 0, 64, 127
2, 66885, Note_on_c, 0, 56, 64
2, 66936, Note_on_c, 0, 56, 0
2, 67005, Note_on_c, 0, 64, 0
2, 67050, Note_on_c, 0, 68, 0
2, 67319, Note_on_c, 0, 68, 46
2, 67320, Note_on_c, 0, 64, 46
2, 67328, Note_on_c, 0, 59, 33
2, 67653, Note_on_c, 0, 59, 0
2, 67698, Note_on_c, 0, 64, 0
2, 67797, Note_on_c, 0, 75, 0
2, 67828, Note_on_c, 0, 68, 0
2, 67861, Note_on_c, 0, 74, 82
2, 67864, Note_on_c, 0, 59, 41
2, 68006, Note_on_c, 0, 74, 0
2, 68045, Note_on_c, 0, 59, 0
2, 68214, Note_on_c, 0, 75, 69
2, 68283, Note_on_c, 0, 59, 28
2, 68407, Note_on_c, 0, 56, 0
2, 68505, Note_on_c, 0, 75, 0
2, 68516, Note_on_c, 0, 80, 71
2, 68544, Note_on_c, 0, 56, 42
2, 68603, Note_on_c, 0, 59, 0
2, 68694, Note_on_c, 0, 80, 0
2, 68827, Note_on_c, 0, 56, 0
2, 68843, Note_on_c, 0, 78, 55
2, 68881, Note_on_c, 0, 51, 36
2, 68891, Control_c, 0, 64, 0
2, 69186, Note_on_c, 0, 58, 25
2, 69218, Control_c, 0, 64, 127
2, 69477, Note_on_c, 0, 58, 0
2, 69479, Note_on_c, 0, 66, 33
2, 69483, Note_on_c, 0, 61, 33
2, 69485, Note_on_c, 0, 70, 46
2, 69630, Note_on_c, 0, 51, 0
2, 69656, Note_on_c, 0, 61, 0
2, 69817, Note_on_c, 0, 63, 42
2, 69949, Note_on_c, 0, 70, 0
2, 69956, Note_on_c, 0, 66, 0
2, 70191, Note_on_c, 0, 66, 33
2, 70198, Note_on_c, 0, 70, 37
2, 70234, Note_on_c, 0, 63, 0
2, 70534, Note_on_c, 0, 64, 51
2, 70565, Control_c, 0, 64, 0
2, 70594, Control_c, 0, 64, 127
2, 70704, Note_on_c, 0, 70, 0
2, 70738, Note_on_c, 0, 66, 0
2, 70824, Note_on_c, 0, 64, 0
2, 70910, Note_on_c, 0, 66, 39
2, 70920, Note_on_c, 0, 70, 45
2, 70930, Control_c, 0, 64, 0
2, 70932, Note_on_c, 0, 65, 51
2, 71064, Control_c, 0, 64, 127
2, 71291, Note_on_c, 0, 65, 0
2, 71326, Note_on_c, 0, 63, 37
2, 71471, Note_on_c, 0, 63, 0
2, 71553, Note_on_c, 0, 66, 0
2, 71555, Note_on_c, 0, 78, 0
2, 71590, Note_on_c, 0, 70, 0
2, 71838, Note_on_c, 0, 64, 50
2, 71846, Note_on_c, 0, 68, 34
2, 71860, Note_on_c, 0, 49, 32
2, 71864, Note_on_c, 0, 59, 31
2, 71903, Control_c, 0, 64, 0
2, 72085, Control_c, 0, 64, 127
2, 72334, Note_on_c, 0, 56, 48
2, 72379, Note_on_c, 0, 59, 0
2, 72407, Note_on_c, 0, 68, 0
2, 72681, Note_on_c, 0, 64, 0
2, 72765, Note_on_c, 0, 63, 85
2, 73048, Note_on_c, 0, 64, 94
2, 73093, Note_on_c, 0, 63, 0
2, 73291, Note_on_c, 0, 64, 0
2, 73326, Note_on_c, 0, 68, 74
2, 73382, Note_on_c, 0, 56, 0
2, 73416, Note_on_c, 0, 49, 0
2, 73583, Note_on_c, 0, 68, 0
2, 73740, Note_on_c, 0, 64, 71
2, 73744, Note_on_c, 0, 42, 56
2, 73746, Note_on_c, 0, 71, 60
2, 73750, Control_c, 0, 64, 0
2, 74039, Control_c, 0, 64, 127
2, 74104, Note_on_c, 0, 42, 0
2, 74158, Note_on_c, 0, 42, 34
2, 74195, Note_on_c, 0, 71, 0
2, 74467, Note_on_c, 0, 64, 0
2, 74728, Note_on_c, 0, 42, 0
2, 75236, Note_on_c, 0, 68, 46
2, 75246, Note_on_c, 0, 59, 32
2, 75247, Note_on_c, 0, 64, 51
2, 75258, Note_on_c, 0, 42, 29
2, 75265, Note_on_c, 0, 54, 28
2, 75269, Control_c, 0, 64, 0
2, 75472, Control_c, 0, 64, 127
2, 75795, Note_on_c, 0, 42, 0
2, 75859, Note_on_c, 0, 64, 0
2, 75880, Note_on_c, 0, 68, 0
2, 75887, Note_on_c, 0, 54, 0
2, 75900, Note_on_c, 0, 59, 0
2, 76217, Note_on_c, 0, 66, 44
2, 76228, Note_on_c, 0, 47, 45
2, 76229, Note_on_c, 0, 63, 32
2, 76248, Note_on_c, 0, 58, 18
2, 76262, Control_c, 0, 64, 0
2, 76641, Note_on_c, 0, 53, 37
2, 76656, Control_c, 0, 64, 127
2, 76864, Note_on_c, 0, 63, 0
2, 76881, Note_on_c, 0, 58, 0
2, 77000, Note_on_c, 0, 53, 0
2, 77047, Note_on_c, 0, 63, 39
2, 77057, Note_on_c, 0, 54, 29
2, 77059, Note_on_c, 0, 58, 31
2, 77061, Control_c, 0, 64, 0
2, 77260, Note_on_c, 0, 47, 0
2, 77424, Note_on_c, 0, 56, 61
2, 77455, Control_c, 0, 64, 127
2, 77485, Note_on_c, 0, 54, 0
2, 77526, Note_on_c, 0, 58, 0
2, 77623, Note_on_c, 0, 63, 0
2, 77834, Note_on_c, 0, 58, 34
2, 77837, Note_on_c, 0, 63, 51
2, 77957, Note_on_c, 0, 58, 0
2, 78218, Note_on_c, 0, 58, 71
2, 78275, Note_on_c, 0, 56, 0
2, 78528, Note_on_c, 0, 63, 0
2, 78648, Note_on_c, 0, 63, 77
2, 78665, Note_on_c, 0, 58, 0
2, 78749, Note_on_c, 0, 66, 0
2, 79075, Note_on_c, 0, 59, 55
2, 79186, Note_on_c, 0, 59, 0
2, 79328, Note_on_c, 0, 63, 0
2, 79569, Note_on_c, 0, 66, 48
2, 79579, Note_on_c, 0, 45, 56
2, 79580, Note_on_c, 0, 59, 40
2, 79581, Note_on_c, 0, 55, 32
2, 79584, Note_on_c, 0, 62, 62
2, 79590, Control_c, 0, 64, 0
2, 79755, Note_on_c, 0, 55, 0
2, 79774, Control_c, 0, 64, 127
2, 79807, Note_on_c, 0, 62, 0
2, 79808, Note_on_c, 0, 59, 0
2, 79845, Note_on_c, 0, 66, 0
2, 80001, Note_on_c, 0, 45, 0
2, 80012, Note_on_c, 0, 78, 79
2, 80264, Note_on_c, 0, 78, 0
2, 80415, Note_on_c, 0, 78, 73
2, 80439, Note_on_c, 0, 71, 73
2, 80448, Note_on_c, 0, 74, 62
2, 80458, Note_on_c, 0, 66, 62
2, 80460, Note_on_c, 0, 67, 60
2, 80581, Note_on_c, 0, 66, 0
2, 80850, Note_on_c, 0, 57, 61
2, 80890, Control_c, 0, 64, 0
2, 80947, Control_c, 0, 64, 127
2, 81129, Note_on_c, 0, 57, 0
2, 81271, Note_on_c, 0, 67, 0
2, 81273, Note_on_c, 0, 57, 58
2, 81369, Note_on_c, 0, 78, 0
2, 81370, Note_on_c, 0, 74, 0
2, 81460, Note_on_c, 0, 71, 0
2, 81612, Note_on_c, 0, 79, 73
2, 81717, Note_on_c, 0, 79, 0
2, 82019, Note_on_c, 0, 83, 84
2, 82197, Note_on_c, 0, 57, 0
2, 82230, Note_on_c, 0, 83, 0
2, 82400, Note_on_c, 0, 83, 68
2, 82429, Note_on_c, 0, 57, 40
2, 82524, Note_on_c, 0, 83, 0
2, 82817, Note_on_c, 0, 81, 63
2, 82830, Note_on_c, 0, 73, 35
2, 82837, Note_on_c, 0, 78, 46
2, 82843, Control_c, 0, 64, 0
2, 82880, Note_on_c, 0, 66, 15
2, 82978, Control_c, 0, 64, 127
2, 83055, Note_on_c, 0, 57, 0
2, 83150, Note_on_c, 0, 73, 0
2, 83180, Note_on_c, 0, 66, 0
2, 83185, Note_on_c, 0, 78, 0
2, 83187, Note_on_c, 0, 57, 38
2, 83195, Note_on_c, 0, 81, 0
2, 83323, Note_on_c, 0, 57, 0
2, 83566, Note_on_c, 0, 45, 48
2, 83953, Note_on_c, 0, 66, 53
2, 83958, Note_on_c, 0, 61, 47
2, 83969, Note_on_c, 0, 57, 50
2, 84191, Note_on_c, 0, 57, 0
2, 84691, Note_on_c, 0, 61, 0
2, 84696, Note_on_c, 0, 57, 50
2, 84954, Note_on_c, 0, 66, 0
2, 85165, Note_on_c, 0, 66, 85
2, 85275, Note_on_c, 0, 45, 0
2, 85399, Note_on_c, 0, 66, 0
2, 85451, Note_on_c, 0, 57, 0
2, 85512, Note_on_c, 0, 45, 42
2, 85524, Note_on_c, 0, 66, 77
2, 85623, Note_on_c, 0, 45, 0
2, 85804, Note_on_c, 0, 66, 0
2, 85963, Note_on_c, 0, 67, 71
2, 85969, Note_on_c, 0, 59, 61
2, 85972, Note_on_c, 0, 62, 70
2, 85982, Note_on_c, 0, 45, 46
2, 85990, Control_c, 0, 64, 0
2, 86239, Control_c, 0, 64, 127
2, 86369, Note_on_c, 0, 33, 71
2, 86493, Note_on_c, 0, 67, 0
2, 86495, Note_on_c, 0, 62, 0
2, 86563, Note_on_c, 0, 59, 0
2, 86660, Note_on_c, 0, 45, 0
2, 86889, Note_on_c, 0, 33, 0
2, 87152, Note_on_c, 0, 71, 68
2, 87157, Note_on_c, 0, 67, 68
2, 87160, Note_on_c, 0, 62, 73
2, 87161, Note_on_c, 0, 33, 60
2, 87296, Note_on_c, 0, 62, 0
2, 87308, Note_on_c, 0, 67, 0
2, 87327, Note_on_c, 0, 71, 0
2, 87616, Control_c, 0, 64, 0
2, 87618, Note_on_c, 0, 74, 67
2, 87625, Note_on_c, 0, 67, 68
2, 87638, Note_on_c, 0, 62, 72
2, 87639, Note_on_c, 0, 45, 55
2, 87760, Control_c, 0, 64, 127
2, 87927, Note_on_c, 0, 33, 0
2, 88063, Note_on_c, 0, 33, 48
2, 88126, Note_on_c, 0, 74, 0
2, 88187, Note_on_c, 0, 62, 0
2, 88201, Note_on_c, 0, 45, 0
2, 88296, Note_on_c, 0, 67, 0
2, 88513, Note_on_c, 0, 73, 51
2, 88523, Note_on_c, 0, 67, 62
2, 88531, Note_on_c, 0, 45, 48
2, 88539, Note_on_c, 0, 62, 49
2, 88584, Note_on_c, 0, 33, 0
2, 88933, Note_on_c, 0, 33, 64
2, 89068, Note_on_c, 0, 45, 0
2, 89073, Note_on_c, 0, 33, 0
2, 89226, Note_on_c, 0, 62, 0
2, 89281, Note_on_c, 0, 67, 0
2, 89349, Note_on_c, 0, 73, 0
2, 89416, Control_c, 0, 64, 0
2, 89435, Note_on_c, 0, 32, 71
2, 89436, Note_on_c, 0, 44, 68
2, 89552, Note_on_c, 0, 32, 0
2, 89560, Control_c, 0, 64, 127
2, 89589, Note_on_c, 0, 44, 0
2, 89999, Note_on_c, 0, 54, 64
2, 90480, Note_on_c, 0, 54, 0
2, 90541, Note_on_c, 0, 65, 69
2, 90544, Note_on_c, 0, 69, 57
2, 90555, Note_on_c, 0, 54, 34
2, 90560, Note_on_c, 0, 60, 40
2, 90868, Note_on_c, 0, 54, 0
2, 90893, Note_on_c, 0, 60, 0
2, 90903, Note_on_c, 0, 65, 0
2, 90919, Note_on_c, 0, 69, 0
2, 91146, Note_on_c, 0, 69, 37
2, 91147, Note_on_c, 0, 54, 36
2, 91153, Note_on_c, 0, 65, 47
2, 91154, Note_on_c, 0, 60, 31
2, 91328, Note_on_c, 0, 60, 0
2, 91355, Note_on_c, 0, 54, 0
2, 91374, Note_on_c, 0, 69, 0
2, 91433, Note_on_c, 0, 65, 0
2, 91803, Note_on_c, 0, 60, 32
2, 91809, Note_on_c, 0, 68, 43
2, 91815, Note_on_c, 0, 65, 44
2, 91824, Note_on_c, 0, 44, 38
2, 91830, Control_c, 0, 64, 0
2, 92119, Control_c, 0, 64, 127
2, 92298, Note_on_c, 0, 54, 45
2, 92321, Note_on_c, 0, 60, 0
2, 92344, Note_on_c, 0, 44, 0
2, 92407, Note_on_c, 0, 54, 0
2, 92765, Note_on_c, 0, 65, 0
2, 92827, Note_on_c, 0, 60, 33
2, 92855, Note_on_c, 0, 68, 0
2, 93272, Note_on_c, 0, 68, 61
2, 93427, Note_on_c, 0, 68, 0
2, 93463, Note_on_c, 0, 69, 58
2, 93572, Note_on_c, 0, 69, 0
2, 93614, Note_on_c, 0, 70, 63
2, 93705, Note_on_c, 0, 60, 0
2, 93720, Note_on_c, 0, 70, 0
2, 93747, Note_on_c, 0, 71, 68
2, 93863, Note_on_c, 0, 71, 0
2, 93865, Note_on_c, 0, 72, 54
2, 93976, Note_on_c, 0, 73, 59
2, 93992, Note_on_c, 0, 72, 0
2, 94061, Note_on_c, 0, 73, 0
2, 94081, Note_on_c, 0, 74, 75
2, 94184, Note_on_c, 0, 74, 0
2, 94189, Note_on_c, 0, 75, 62
2, 94351, Note_on_c, 0, 76, 74
2, 94355, Note_on_c, 0, 75, 0
2, 94371, Control_c, 0, 64, 0
2, 94378, Note_on_c, 0, 50, 54
2, 94611, Control_c, 0, 64, 127
2, 94697, Note_on_c, 0, 57, 56
2, 94725, Note_on_c, 0, 50, 0
2, 95074, Note_on_c, 0, 69, 58
2, 95081, Note_on_c, 0, 65, 54
2, 95094, Note_on_c, 0, 64, 54
2, 95268, Note_on_c, 0, 76, 0
2, 95311, Note_on_c, 0, 64, 0
2, 95460, Note_on_c, 0, 74, 80
2, 95472, Note_on_c, 0, 62, 67
2, 95555, Note_on_c, 0, 57, 0
2, 95661, Note_on_c, 0, 69, 0
2, 95796, Note_on_c, 0, 65, 0
2, 95816, Note_on_c, 0, 74, 0
2, 95838, Note_on_c, 0, 69, 67
2, 95846, Note_on_c, 0, 57, 62
2, 95880, Note_on_c, 0, 62, 0
2, 96116, Note_on_c, 0, 65, 62
2, 96140, Note_on_c, 0, 53, 53
2, 96150, Note_on_c, 0, 57, 0
2, 96222, Note_on_c, 0, 53, 0
2, 96349, Note_on_c, 0, 65, 0
2, 96377, Note_on_c, 0, 69, 0
2, 96422, Note_on_c, 0, 72, 67
2, 96430, Note_on_c, 0, 65, 66
2, 96432, Note_on_c, 0, 43, 47
2, 96450, Control_c, 0, 64, 0
2, 96651, Control_c, 0, 64, 127
2, 96726, Note_on_c, 0, 50, 46
2, 96880, Note_on_c, 0, 72, 0
2, 96901, Note_on_c, 0, 65, 0
2, 97001, Note_on_c, 0, 65, 47
2, 97012, Note_on_c, 0, 57, 48
2, 97016, Note_on_c, 0, 58, 40
2, 97113, Note_on_c, 0, 50, 0
2, 97341, Note_on_c, 0, 57, 0
2, 97361, Note_on_c, 0, 70, 64
2, 97401, Note_on_c, 0, 50, 31
2, 97440, Control_c, 0, 64, 0
2, 97536, Control_c, 0, 64, 127
2, 97729, Control_c, 0, 64, 0
2, 97767, Note_on_c, 0, 55, 37
2, 97816, Control_c, 0, 64, 127
2, 97937, Note_on_c, 0, 50, 0
2, 98068, Note_on_c, 0, 58, 0
2, 98308, Note_on_c, 0, 50, 27
2, 98440, Note_on_c, 0, 43, 0
2, 98568, Note_on_c, 0, 55, 0
2, 98674, Note_on_c, 0, 65, 0
2, 98731, Note_on_c, 0, 58, 35
2, 99091, Note_on_c, 0, 43, 32
2, 99112, Note_on_c, 0, 50, 0
2, 99188, Note_on_c, 0, 58, 0
2, 99210, Note_on_c, 0, 43, 0
2, 99605, Control_c, 0, 64, 0
2, 99618, Note_on_c, 0, 25, 60
2, 99757, Note_on_c, 0, 25, 0
2, 99779, Control_c, 0, 64, 127
2, 100187, Note_on_c, 0, 70, 0
2, 100265, Note_on_c, 0, 63, 38
2, 100266, Note_on_c, 0, 59, 36
2, 100271, Note_on_c, 0, 67, 44
2, 100300, Note_on_c, 0, 53, 24
2, 100309, Note_on_c, 0, 49, 34
2, 100657, Note_on_c, 0, 53, 0
2, 100790, Note_on_c, 0, 49, 0
2, 100903, Note_on_c, 0, 49, 31
2, 100945, Note_on_c, 0, 53, 35
2, 101187, Note_on_c, 0, 59, 0
2, 101205, Note_on_c, 0, 67, 0
2, 101255, Note_on_c, 0, 63, 0
2, 101429, Note_on_c, 0, 69, 76
2, 101437, Note_on_c, 0, 64, 87
2, 101444, Note_on_c, 0, 59, 42
2, 101704, Note_on_c, 0, 49, 0
2, 101776, Note_on_c, 0, 69, 0
2, 101852, Note_on_c, 0, 59, 0
2, 101862, Note_on_c, 0, 68, 70
2, 101866, Control_c, 0, 64, 0
2, 101880, Note_on_c, 0, 49, 39
2, 101982, Control_c, 0, 64, 127
2, 102254, Note_on_c, 0, 64, 0
2, 102309, Note_on_c, 0, 59, 35
2, 102612, Note_on_c, 0, 59, 0
2, 102624, Note_on_c, 0, 68, 0
2, 102696, Note_on_c, 0, 62, 64
2, 102716, Note_on_c, 0, 59, 30
2, 102864, Note_on_c, 0, 49, 0
2, 103093, Note_on_c, 0, 69, 71
2, 103103, Note_on_c, 0, 49, 42
2, 103121, Note_on_c, 0, 59, 0
2, 103154, Note_on_c, 0, 53, 0
2, 103241, Note_on_c, 0, 49, 0
2, 103264, Note_on_c, 0, 69, 0
2, 103398, Note_on_c, 0, 62, 0
2, 103575, Note_on_c, 0, 68, 49
2, 103579, Note_on_c, 0, 61, 55
2, 103585, Note_on_c, 0, 42, 37
2, 103637, Control_c, 0, 64, 0
2, 103984, Control_c, 0, 64, 127
2, 104207, Note_on_c, 0, 49, 51
2, 104495, Note_on_c, 0, 61, 0
2, 104614, Note_on_c, 0, 61, 57
2, 104635, Note_on_c, 0, 57, 50
2, 104641, Note_on_c, 0, 51, 45
2, 104655, Note_on_c, 0, 49, 0
2, 104658, Control_c, 0, 64, 0
2, 104700, Note_on_c, 0, 42, 0
2, 104773, Control_c, 0, 64, 127
2, 105014, Control_c, 0, 64, 0
2, 105016, Note_on_c, 0, 52, 69
2, 105064, Note_on_c, 0, 51, 0
2, 105109, Control_c, 0, 64, 127
2, 105231, Note_on_c, 0, 57, 0
2, 105331, Note_on_c, 0, 61, 0
2, 105446, Note_on_c, 0, 52, 0
2, 105456, Note_on_c, 0, 61, 34
2, 105472, Note_on_c, 0, 57, 62
2, 105489, Note_on_c, 0, 56, 61
2, 105513, Control_c, 0, 64, 0
2, 105706, Control_c, 0, 64, 127
2, 105917, Control_c, 0, 64, 0
2, 105928, Note_on_c, 0, 54, 59
2, 105934, Note_on_c, 0, 56, 0
2, 106053, Control_c, 0, 64, 127
2, 106054, Note_on_c, 0, 57, 0
2, 106201, Note_on_c, 0, 61, 0
2, 106369, Note_on_c, 0, 61, 43
2, 106397, Note_on_c, 0, 57, 42
2, 106669, Note_on_c, 0, 54, 0
2, 106745, Note_on_c, 0, 68, 0
2, 106865, Note_on_c, 0, 57, 0
2, 106889, Note_on_c, 0, 66, 57
2, 106890, Note_on_c, 0, 54, 45
2, 106994, Note_on_c, 0, 54, 0
2, 107040, Note_on_c, 0, 66, 0
2, 107057, Note_on_c, 0, 61, 0
2, 107564, Control_c, 0, 64, 0
2, 107574, Note_on_c, 0, 65, 36
2, 107578, Note_on_c, 0, 54, 45
2, 107581, Note_on_c, 0, 57, 46
2, 107594, Note_on_c, 0, 32, 34
2, 107597, Note_on_c, 0, 44, 25
2, 107601, Note_on_c, 0, 62, 58
2, 107871, Control_c, 0, 64, 127
2, 108361, Note_on_c, 0, 57, 0
2, 108370, Note_on_c, 0, 54, 0
2, 108393, Note_on_c, 0, 62, 0
2, 108464, Note_on_c, 0, 65, 0
2, 108473, Note_on_c, 0, 32, 0
2, 108501, Note_on_c, 0, 44, 0
2, 109111, Note_on_c, 0, 63, 47
2, 109118, Note_on_c, 0, 87, 54
2, 109151, Control_c, 0, 64, 0
2, 109153, Note_on_c, 0, 88, 68
2, 109173, Note_on_c, 0, 64, 49
2, 109193, Note_on_c, 0, 87, 0
2, 109198, Note_on_c, 0, 63, 0
2, 109440, Control_c, 0, 64, 127
2, 109449, Note_on_c, 0, 88, 0
2, 109467, Note_on_c, 0, 63, 47
2, 109475, Note_on_c, 0, 64, 0
2, 109478, Note_on_c, 0, 87, 58
2, 109796, Control_c, 0, 64, 0
2, 109800, Note_on_c, 0, 81, 51
2, 109811, Note_on_c, 0, 57, 46
2, 109833, Note_on_c, 0, 87, 0
2, 109867, Note_on_c, 0, 63, 0
2, 109902, Control_c, 0, 64, 127
2, 110243, Note_on_c, 0, 64, 42
2, 110245, Note_on_c, 0, 88, 57
2, 110310, Note_on_c, 0, 57, 0
2, 110360, Note_on_c, 0, 64, 0
2, 110681, Note_on_c, 0, 81, 0
2, 110693, Note_on_c, 0, 88, 0
2, 110733, Note_on_c, 0, 87, 43
2, 110751, Note_on_c, 0, 49, 35
2, 110758, Control_c, 0, 64, 0
2, 110912, Control_c, 0, 64, 127
2, 111210, Note_on_c, 0, 87, 0
2, 111587, Note_on_c, 0, 75, 51
2, 111766, Note_on_c, 0, 49, 0
2, 111836, Note_on_c, 0, 75, 0
2, 112064, Note_on_c, 0, 75, 49
2, 112097, Note_on_c, 0, 68, 37
2, 112099, Note_on_c, 0, 64, 35
2, 112106, Note_on_c, 0, 71, 37
2, 112118, Note_on_c, 0, 63, 28
2, 112690, Note_on_c, 0, 75, 0
2, 112793, Note_on_c, 0, 63, 0
2, 112843, Note_on_c, 0, 61, 37
2, 112852, Note_on_c, 0, 73, 40
2, 112896, Note_on_c, 0, 71, 0
2, 113075, Note_on_c, 0, 61, 0
2, 113598, Note_on_c, 0, 64, 0
2, 113647, Note_on_c, 0, 68, 0
2, 113720, Note_on_c, 0, 73, 0
2, 113843, Note_on_c, 0, 44, 70
2, 113844, Note_on_c, 0, 32, 74
2, 113904, Control_c, 0, 64, 0
2, 114068, Control_c, 0, 64, 127
2, 114325, Note_on_c, 0, 32, 0
2, 114385, Note_on_c, 0, 44, 0
2, 115324, Note_on_c, 0, 54, 67
2, 115329, Note_on_c, 0, 76, 84
2, 115333, Note_on_c, 0, 60, 50
2, 115334, Note_on_c, 0, 72, 76
2, 115335, Note_on_c, 0, 67, 84
2, 115601, Note_on_c, 0, 76, 0
2, 115660, Note_on_c, 0, 72, 0
2, 115673, Note_on_c, 0, 67, 0
2, 115709, Note_on_c, 0, 54, 0
2, 115732, Note_on_c, 0, 60, 0
2, 115847, Note_on_c, 0, 75, 68
2, 115855, Note_on_c, 0, 66, 73
2, 115856, Note_on_c, 0, 71, 70
2, 115864, Note_on_c, 0, 54, 51
2, 115872, Note_on_c, 0, 60, 42
2, 115887, Control_c, 0, 64, 0
2, 115890, Note_on_c, 0, 73, 25
2, 115944, Control_c, 0, 64, 127
2, 116331, Note_on_c, 0, 69, 69
2, 116344, Note_on_c, 0, 75, 0
2, 116380, Note_on_c, 0, 71, 0
2, 116552, Note_on_c, 0, 60, 0
2, 116712, Note_on_c, 0, 73, 0
2, 116780, Note_on_c, 0, 66, 0
2, 116824, Note_on_c, 0, 66, 35
2, 116829, Note_on_c, 0, 76, 70
2, 116838, Note_on_c, 0, 60, 39
2, 116941, Note_on_c, 0, 60, 0
2, 117001, Note_on_c, 0, 54, 0
2, 117024, Note_on_c, 0, 76, 0
2, 117076, Note_on_c, 0, 66, 0
2, 117095, Note_on_c, 0, 69, 0
2, 117506, Note_on_c, 0, 75, 59
2, 117527, Note_on_c, 0, 64, 53
2, 117529, Note_on_c, 0, 68, 54
2, 117547, Note_on_c, 0, 49, 35
2, 117552, Control_c, 0, 64, 0
2, 117840, Control_c, 0, 64, 127
2, 118035, Note_on_c, 0, 55, 47
2, 118327, Note_on_c, 0, 68, 0
2, 118367, Note_on_c, 0, 64, 0
2, 118572, Note_on_c, 0, 55, 0
2, 118589, Note_on_c, 0, 64, 38
2, 118591, Note_on_c, 0, 68, 39
2, 118593, Note_on_c, 0, 56, 43
2, 118620, Control_c, 0, 64, 0
2, 118744, Control_c, 0, 64, 127
2, 119124, Note_on_c, 0, 56, 0
2, 119132, Note_on_c, 0, 73, 38
2, 119159, Control_c, 0, 64, 0
2, 119166, Note_on_c, 0, 58, 25
2, 119185, Note_on_c, 0, 75, 0
2, 119263, Control_c, 0, 64, 127
2, 119480, Note_on_c, 0, 64, 0
2, 119505, Note_on_c, 0, 68, 0
2, 119530, Note_on_c, 0, 73, 0
2, 119740, Note_on_c, 0, 73, 32
2, 119749, Note_on_c, 0, 64, 39
2, 119761, Note_on_c, 0, 68, 43
2, 119775, Control_c, 0, 64, 0
2, 119788, Note_on_c, 0, 58, 0
2, 119792, Note_on_c, 0, 59, 27
2, 119863, Note_on_c, 0, 49, 0
2, 119918, Control_c, 0, 64, 127
2, 120318, Note_on_c, 0, 61, 42
2, 120333, Control_c, 0, 64, 0
2, 120368, Note_on_c, 0, 59, 0
2, 120419, Control_c, 0, 64, 127
2, 120612, Note_on_c, 0, 64, 0
2, 120668, Note_on_c, 0, 68, 0
2, 120775, Note_on_c, 0, 73, 0
2, 120944, Note_on_c, 0, 73, 20
2, 120960, Note_on_c, 0, 64, 33
2, 120966, Note_on_c, 0, 68, 30
2, 120974, Note_on_c, 0, 63, 28
2, 121096, Note_on_c, 0, 61, 0
2, 121369, Note_on_c, 0, 64, 0
2, 121910, Note_on_c, 0, 63, 0
2, 122034, Note_on_c, 0, 64, 31
2, 122241, Note_on_c, 0, 68, 0
2, 122263, Note_on_c, 0, 64, 0
2, 122294, Note_on_c, 0, 73, 0
2, 122903, Note_on_c, 0, 57, 50
2, 122929, Note_on_c, 0, 76, 57
2, 122932, Note_on_c, 0, 72, 55
2, 122937, Note_on_c, 0, 65, 39
2, 122937, Note_on_c, 0, 69, 41
2, 122946, Note_on_c, 0, 57, 0
2, 122961, Note_on_c, 0, 60, 41
2, 123065, Control_c, 0, 64, 0
2, 123198, Note_on_c, 0, 65, 0
2, 123215, Note_on_c, 0, 76, 0
2, 123222, Note_on_c, 0, 72, 0
2, 123225, Note_on_c, 0, 69, 0
2, 123266, Note_on_c, 0, 60, 0
2, 123283, Note_on_c, 0, 74, 35
2, 123308, Note_on_c, 0, 59, 39
2, 123367, Note_on_c, 0, 74, 0
2, 123411, Note_on_c, 0, 59, 0
2, 123432, Note_on_c, 0, 65, 43
2, 123444, Note_on_c, 0, 72, 46
2, 123447, Note_on_c, 0, 60, 48
2, 123448, Note_on_c, 0, 76, 56
2, 123452, Note_on_c, 0, 69, 45
2, 123676, Control_c, 0, 64, 104
2, 123679, Control_c, 0, 64, 127
2, 123884, Note_on_c, 0, 76, 0
2, 123904, Note_on_c, 0, 72, 0
2, 123925, Note_on_c, 0, 57, 35
2, 123943, Note_on_c, 0, 74, 49
2, 123945, Note_on_c, 0, 50, 43
2, 123970, Control_c, 0, 64, 0
2, 124087, Control_c, 0, 64, 127
2, 124398, Note_on_c, 0, 50, 0
2, 124415, Note_on_c, 0, 57, 0
2, 124503, Note_on_c, 0, 60, 0
2, 124656, Note_on_c, 0, 69, 0
2, 124874, Note_on_c, 0, 58, 37
2, 124884, Note_on_c, 0, 62, 27
2, 124891, Control_c, 0, 64, 24
2, 124894, Note_on_c, 0, 57, 39
2, 124895, Control_c, 0, 64, 0
2, 124903, Note_on_c, 0, 53, 33
2, 124954, Note_on_c, 0, 65, 0
2, 125430, Control_c, 0, 64, 127
2, 125465, Control_c, 0, 64, 0
2, 125518, Note_on_c, 0, 74, 0
2, 126172, Note_on_c, 0, 72, 111
2, 126410, Note_on_c, 0, 72, 0
2, 126524, Note_on_c, 0, 70, 78
2, 126553, Note_on_c, 0, 57, 0
2, 126567, Note_on_c, 0, 53, 0
2, 126604, Note_on_c, 0, 62, 0
2, 126608, Note_on_c, 0, 58, 0
2, 126659, Control_c, 0, 64, 127
2, 126805, Note_on_c, 0, 70, 0
2, 126836, Note_on_c, 0, 56, 36
2, 126848, Note_on_c, 0, 68, 50
2, 126850, Note_on_c, 0, 63, 35
2, 126863, Note_on_c, 0, 59, 41
2, 126953, Control_c, 0, 64, 0
2, 126995, Note_on_c, 0, 53, 1
2, 127217, Control_c, 0, 64, 127
2, 127474, Note_on_c, 0, 59, 0
2, 127496, Note_on_c, 0, 63, 0
2, 127524, Note_on_c, 0, 53, 0
2, 127524, Note_on_c, 0, 56, 0
2, 128640, Note_on_c, 0, 68, 0
2, 128656, Note_on_c, 0, 54, 32
2, 128658, Note_on_c, 0, 61, 43
2, 128662, Control_c, 0, 64, 0
2, 128670, Note_on_c, 0, 64, 27
2, 128673, Note_on_c, 0, 57, 41
2, 128993, Note_on_c, 0, 69, 52
2, 129036, Note_on_c, 0, 69, 0
2, 129167, Note_on_c, 0, 73, 35
2, 129227, Note_on_c, 0, 73, 0
2, 129308, Note_on_c, 0, 76, 68
2, 129368, Note_on_c, 0, 76, 0
2, 129443, Note_on_c, 0, 78, 83
2, 129585, Note_on_c, 0, 78, 0
2, 129630, Note_on_c, 0, 80, 72
2, 129724, Note_on_c, 0, 80, 0
2, 129767, Note_on_c, 0, 78, 49
2, 129848, Note_on_c, 0, 78, 0
2, 129923, Note_on_c, 0, 80, 82
2, 130025, Note_on_c, 0, 80, 0
2, 130082, Note_on_c, 0, 78, 66
2, 130083, Control_c, 0, 64, 104
2, 130087, Control_c, 0, 64, 127
2, 130157, Note_on_c, 0, 57, 0
2, 130206, Note_on_c, 0, 64, 0
2, 130215, Note_on_c, 0, 61, 0
2, 130233, Note_on_c, 0, 54, 0
2, 130386, Note_on_c, 0, 73, 52
2, 130411, Note_on_c, 0, 78, 0
2, 130491, Note_on_c, 0, 73, 0
2, 130714, Control_c, 0, 64, 0
2, 130903, Note_on_c, 0, 77, 63
2, 130917, Note_on_c, 0, 66, 62
2, 130919, Note_on_c, 0, 69, 62
2, 130920, Note_on_c, 0, 65, 66
2, 130922, Note_on_c, 0, 70, 31
2, 130926, Note_on_c, 0, 75, 34
2, 130941, Note_on_c, 0, 74, 52
2, 130976, Note_on_c, 0, 74, 0
2, 130978, Note_on_c, 0, 66, 0
2, 130984, Note_on_c, 0, 65, 0
2, 130990, Note_on_c, 0, 69, 0
2, 130999, Note_on_c, 0, 77, 0
2, 131000, Note_on_c, 0, 70, 0
2, 131000, Note_on_c, 0, 75, 0
2, 131215, Note_on_c, 0, 77, 72
2, 131234, Note_on_c, 0, 65, 63
2, 131235, Note_on_c, 0, 66, 60
2, 131239, Note_on_c, 0, 74, 58
2, 131242, Note_on_c, 0, 69, 57
2, 131246, Note_on_c, 0, 75, 39
2, 131251, Note_on_c, 0, 70, 42
2, 131350, Control_c, 0, 64, 127
2, 131381, Note_on_c, 0, 69, 0
2, 131385, Note_on_c, 0, 70, 0
2, 131398, Note_on_c, 0, 77, 0
2, 131399, Note_on_c, 0, 66, 0
2, 131400, Note_on_c, 0, 75, 0
2, 131415, Note_on_c, 0, 74, 0
2, 131426, Note_on_c, 0, 65, 0
2, 131480, Control_c, 0, 64, 0
2, 131549, Note_on_c, 0, 65, 54
2, 131553, Note_on_c, 0, 77, 68
2, 131572, Note_on_c, 0, 66, 57
2, 131580, Note_on_c, 0, 69, 52
2, 131581, Note_on_c, 0, 75, 45
2, 131583, Control_c, 0, 64, 127
2, 131592, Note_on_c, 0, 70, 42
2, 131598, Note_on_c, 0, 74, 34
2, 131657, Note_on_c, 0, 74, 0
2, 131687, Note_on_c, 0, 65, 0
2, 131705, Note_on_c, 0, 77, 0
2, 131726, Note_on_c, 0, 75, 0
2, 131737, Note_on_c, 0, 66, 0
2, 131756, Note_on_c, 0, 70, 0
2, 131762, Note_on_c, 0, 69, 0
2, 131838, Control_c, 0, 64, 0
2, 131884, Note_on_c, 0, 66, 50
2, 131885, Note_on_c, 0, 76, 60
2, 131891, Note_on_c, 0, 64, 49
2, 131892, Note_on_c, 0, 69, 49
2, 131898, Note_on_c, 0, 75, 31
2, 131989, Control_c, 0, 64, 127
2, 132025, Note_on_c, 0, 64, 0
2, 132224, Note_on_c, 0, 76, 0
2, 132242, Note_on_c, 0, 69, 0
2, 132272, Note_on_c, 0, 66, 0
2, 132342, Note_on_c, 0, 75, 0
2, 132494, Control_c, 0, 64, 0
2, 132526, Note_on_c, 0, 76, 63
2, 132529, Note_on_c, 0, 64, 57
2, 132535, Note_on_c, 0, 68, 52
2, 132544, Note_on_c, 0, 49, 39
2, 132578, Note_on_c, 0, 59, 18
2, 132784, Note_on_c, 0, 76, 0
2, 132811, Control_c, 0, 64, 127
2, 132836, Note_on_c, 0, 59, 0
2, 132845, Note_on_c, 0, 68, 0
2, 132898, Note_on_c, 0, 64, 0
2, 132981, Control_c, 0, 64, 0
2, 132992, Note_on_c, 0, 75, 57
2, 133000, Note_on_c, 0, 58, 46
2, 133008, Note_on_c, 0, 64, 24
2, 133032, Note_on_c, 0, 68, 32
2, 133162, Control_c, 0, 64, 127
2, 133333, Note_on_c, 0, 64, 0
2, 133339, Note_on_c, 0, 68, 0
2, 133399, Note_on_c, 0, 75, 0
2, 133410, Control_c, 0, 64, 0
2, 133434, Note_on_c, 0, 58, 0
2, 133460, Note_on_c, 0, 73, 56
2, 133466, Note_on_c, 0, 64, 43
2, 133474, Note_on_c, 0, 56, 43
2, 133479, Note_on_c, 0, 68, 47
2, 133612, Control_c, 0, 64, 127
2, 133918, Note_on_c, 0, 56, 0
2, 133959, Note_on_c, 0, 49, 0
2, 134099, Note_on_c, 0, 73, 0
2, 134143, Note_on_c, 0, 64, 0
2, 134167, Note_on_c, 0, 68, 0
2, 134352, Control_c, 0, 64, 0
2, 134361, Note_on_c, 0, 34, 56
2, 134519, Control_c, 0, 64, 40
2, 134521, Control_c, 0, 64, 127
2, 134631, Note_on_c, 0, 34, 0
2, 135287, Note_on_c, 0, 56, 43
2, 135387, Note_on_c, 0, 56, 0
2, 135439, Control_c, 0, 64, 0
2, 135452, Note_on_c, 0, 59, 45
2, 135462, Note_on_c, 0, 67, 32
2, 135464, Note_on_c, 0, 64, 46
2, 135467, Note_on_c, 0, 62, 45
2, 135469, Note_on_c, 0, 58, 57
2, 135560, Note_on_c, 0, 64, 0
2, 135564, Note_on_c, 0, 58, 0
2, 135568, Note_on_c, 0, 59, 0
2, 135569, Note_on_c, 0, 67, 0
2, 135569, Note_on_c, 0, 62, 0
2, 135596, Note_on_c, 0, 56, 49
2, 135739, Note_on_c, 0, 56, 0
2, 135744, Note_on_c, 0, 58, 52
2, 135748, Note_on_c, 0, 67, 39
2, 135751, Note_on_c, 0, 59, 38
2, 135756, Note_on_c, 0, 62, 54
2, 135764, Note_on_c, 0, 64, 53
2, 135970, Control_c, 0, 64, 127
2, 136049, Note_on_c, 0, 59, 0
2, 136097, Note_on_c, 0, 62, 0
2, 136098, Note_on_c, 0, 64, 0
2, 136109, Note_on_c, 0, 67, 0
2, 136215, Note_on_c, 0, 58, 0
2, 136291, Note_on_c, 0, 54, 31
2, 136336, Note_on_c, 0, 54, 0
2, 136391, Note_on_c, 0, 61, 53
2, 136398, Note_on_c, 0, 70, 51
2, 136400, Control_c, 0, 64, 0
2, 136408, Note_on_c, 0, 55, 36
2, 136412, Note_on_c, 0, 65, 52
2, 136640, Control_c, 0, 64, 127
2, 136839, Note_on_c, 0, 65, 0
2, 136861, Note_on_c, 0, 55, 0
2, 136869, Note_on_c, 0, 61, 0
2, 136874, Note_on_c, 0, 68, 70
2, 137238, Note_on_c, 0, 70, 0
2, 137241, Note_on_c, 0, 68, 0
2, 137379, Note_on_c, 0, 67, 58
2, 137380, Note_on_c, 0, 61, 42
2, 137393, Note_on_c, 0, 55, 42
2, 137394, Control_c, 0, 64, 0
2, 137567, Control_c, 0, 64, 127
2, 137797, Note_on_c, 0, 61, 0
2, 137805, Note_on_c, 0, 55, 0
2, 138105, Note_on_c, 0, 67, 0
2, 138116, Note_on_c, 0, 65, 75
2, 138303, Note_on_c, 0, 65, 0
2, 138324, Note_on_c, 0, 60, 34
2, 138328, Control_c, 0, 64, 0
2, 138337, Note_on_c, 0, 53, 35
2, 138338, Note_on_c, 0, 57, 37
2, 138342, Note_on_c, 0, 50, 39
2, 138344, Note_on_c, 0, 64, 49
2, 138663, Note_on_c, 0, 64, 0
2, 138754, Note_on_c, 0, 64, 63
2, 138777, Control_c, 0, 64, 127
2, 138983, Note_on_c, 0, 64, 0
2, 139060, Note_on_c, 0, 64, 50
2, 139212, Note_on_c, 0, 64, 0
2, 139266, Note_on_c, 0, 65, 68
2, 139359, Note_on_c, 0, 65, 0
2, 139398, Note_on_c, 0, 69, 75
2, 139513, Note_on_c, 0, 69, 0
2, 139537, Note_on_c, 0, 72, 85
2, 139539, Note_on_c, 0, 53, 0
2, 139547, Note_on_c, 0, 50, 0
2, 139553, Note_on_c, 0, 57, 0
2, 139612, Note_on_c, 0, 72, 0
2, 139659, Note_on_c, 0, 60, 0
2, 139681, Note_on_c, 0, 76, 92
2, 139792, Note_on_c, 0, 76, 0
2, 139827, Note_on_c, 0, 79, 122
2, 139867, Note_on_c, 0, 78, 39
2, 139904, Note_on_c, 0, 78, 0
2, 139942, Note_on_c, 0, 79, 0
2, 139972, Note_on_c, 0, 77, 89
2, 139985, Control_c, 0, 64, 0
2, 140100, Note_on_c, 0, 58, 40
2, 140103, Note_on_c, 0, 62, 39
2, 140120, Note_on_c, 0, 77, 0
2, 140125, Note_on_c, 0, 57, 40
2, 140126, Note_on_c, 0, 74, 74
2, 140128, Note_on_c, 0, 53, 39
2, 140240, Note_on_c, 0, 74, 0
2, 140288, Note_on_c, 0, 70, 52
2, 140418, Note_on_c, 0, 70, 0
2, 140436, Note_on_c, 0, 69, 57
2, 140548, Note_on_c, 0, 69, 0
2, 140613, Note_on_c, 0, 72, 63
2, 140760, Note_on_c, 0, 72, 0
2, 140768, Note_on_c, 0, 69, 42
2, 140888, Note_on_c, 0, 69, 0
2, 140927, Note_on_c, 0, 70, 51
2, 140945, Note_on_c, 0, 62, 0
2, 141070, Note_on_c, 0, 62, 37
2, 141193, Note_on_c, 0, 70, 0
2, 141379, Note_on_c, 0, 62, 0
2, 141401, Control_c, 0, 64, 127
2, 141406, Note_on_c, 0, 64, 55
2, 141557, Note_on_c, 0, 64, 0
2, 141578, Note_on_c, 0, 65, 54
2, 141601, Note_on_c, 0, 57, 0
2, 141637, Note_on_c, 0, 53, 0
2, 141656, Note_on_c, 0, 58, 0
2, 141867, Note_on_c, 0, 65, 0
2, 141900, Note_on_c, 0, 67, 66
2, 141902, Note_on_c, 0, 63, 43
2, 141914, Note_on_c, 0, 59, 46
2, 141915, Control_c, 0, 64, 0
2, 141916, Note_on_c, 0, 56, 37
2, 141932, Note_on_c, 0, 53, 28
2, 142094, Control_c, 0, 64, 127
2, 142199, Note_on_c, 0, 67, 0
2, 142242, Note_on_c, 0, 68, 54
2, 142346, Note_on_c, 0, 68, 0
2, 142391, Note_on_c, 0, 70, 70
2, 142510, Note_on_c, 0, 70, 0
2, 142555, Note_on_c, 0, 71, 57
2, 142659, Note_on_c, 0, 71, 0
2, 142686, Note_on_c, 0, 73, 50
2, 142796, Note_on_c, 0, 75, 64
2, 142803, Note_on_c, 0, 73, 0
2, 142825, Note_on_c, 0, 75, 0
2, 142867, Note_on_c, 0, 76, 68
2, 142935, Note_on_c, 0, 76, 0
2, 142977, Note_on_c, 0, 77, 71
2, 143033, Note_on_c, 0, 53, 0
2, 143046, Note_on_c, 0, 77, 0
2, 143063, Note_on_c, 0, 56, 0
2, 143065, Note_on_c, 0, 59, 0
2, 143076, Control_c, 0, 64, 0
2, 143096, Note_on_c, 0, 63, 0
2, 143198, Control_c, 0, 64, 56
2, 143200, Control_c, 0, 64, 127
2, 143301, Control_c, 0, 64, 0
2, 143323, Note_on_c, 0, 80, 85
2, 143351, Note_on_c, 0, 54, 40
2, 143353, Note_on_c, 0, 57, 44
2, 143355, Note_on_c, 0, 61, 32
2, 143361, Note_on_c, 0, 64, 28
2, 143530, Note_on_c, 0, 80, 0
2, 143554, Note_on_c, 0, 64, 0
2, 143637, Note_on_c, 0, 61, 0
2, 143697, Control_c, 0, 64, 127
2, 143720, Control_c, 0, 64, 0
2, 143753, Note_on_c, 0, 80, 77
2, 143776, Control_c, 0, 64, 127
2, 143778, Note_on_c, 0, 61, 24
2, 143859, Note_on_c, 0, 57, 0
2, 143864, Note_on_c, 0, 61, 0
2, 143872, Note_on_c, 0, 54, 0
2, 143903, Note_on_c, 0, 80, 0
2, 143904, Note_on_c, 0, 81, 68
2, 144013, Note_on_c, 0, 81, 0
2, 144085, Control_c, 0, 64, 0
2, 144092, Note_on_c, 0, 80, 63
2, 144093, Note_on_c, 0, 64, 26
2, 144094, Note_on_c, 0, 54, 39
2, 144096, Note_on_c, 0, 61, 41
2, 144103, Note_on_c, 0, 57, 43
2, 144318, Control_c, 0, 64, 127
2, 144473, Note_on_c, 0, 80, 0
2, 144522, Note_on_c, 0, 78, 50
2, 144615, Note_on_c, 0, 57, 0
2, 144619, Note_on_c, 0, 61, 0
2, 144648, Note_on_c, 0, 64, 0
2, 144657, Note_on_c, 0, 54, 0
2, 144861, Note_on_c, 0, 69, 48
2, 144876, Note_on_c, 0, 64, 27
2, 144880, Note_on_c, 0, 61, 38
2, 144883, Control_c, 0, 64, 0
2, 144889, Note_on_c, 0, 54, 34
2, 144903, Note_on_c, 0, 57, 32
2, 145010, Control_c, 0, 64, 127
2, 145402, Note_on_c, 0, 57, 0
2, 145402, Note_on_c, 0, 69, 0
2, 145455, Note_on_c, 0, 61, 0
2, 145458, Note_on_c, 0, 54, 0
2, 145469, Note_on_c, 0, 64, 0
2, 145509, Note_on_c, 0, 78, 0
2, 145907, Control_c, 0, 64, 0
2, 145932, Note_on_c, 0, 65, 40
2, 145933, Note_on_c, 0, 54, 36
2, 145941, Note_on_c, 0, 32, 36
2, 145944, Note_on_c, 0, 58, 42
2, 145945, Note_on_c, 0, 44, 33
2, 145947, Note_on_c, 0, 61, 42
2, 146056, Note_on_c, 0, 54, 0
2, 146070, Control_c, 0, 64, 127
2, 146102, Note_on_c, 0, 58, 0
2, 146103, Note_on_c, 0, 65, 0
2, 146113, Note_on_c, 0, 61, 0
2, 146167, Note_on_c, 0, 32, 0
2, 146224, Note_on_c, 0, 44, 0
2, 146464, Note_on_c, 0, 65, 33
2, 146509, Note_on_c, 0, 65, 0
2, 146512, Note_on_c, 0, 66, 58
2, 146579, Control_c, 0, 64, 0
2, 146601, Note_on_c, 0, 68, 56
2, 146606, Note_on_c, 0, 66, 0
2, 146633, Note_on_c, 0, 68, 0
2, 146666, Note_on_c, 0, 70, 45
2, 146699, Note_on_c, 0, 70, 0
2, 146725, Note_on_c, 0, 72, 60
2, 146758, Note_on_c, 0, 72, 0
2, 146805, Note_on_c, 0, 73, 49
2, 146821, Note_on_c, 0, 73, 0
2, 146836, Note_on_c, 0, 75, 60
2, 146864, Note_on_c, 0, 75, 0
2, 146944, Note_on_c, 0, 77, 58
2, 146971, Note_on_c, 0, 77, 0
2, 146998, Note_on_c, 0, 78, 50
2, 147069, Note_on_c, 0, 80, 43
2, 147078, Note_on_c, 0, 78, 0
2, 147105, Note_on_c, 0, 80, 0
2, 147200, Note_on_c, 0, 84, 54
2, 147231, Note_on_c, 0, 84, 0
2, 147263, Note_on_c, 0, 85, 57
2, 147331, Note_on_c, 0, 85, 0
2, 147350, Note_on_c, 0, 87, 51
2, 147418, Note_on_c, 0, 87, 0
2, 147426, Note_on_c, 0, 88, 56
2, 147491, Note_on_c, 0, 88, 0
2, 147513, Note_on_c, 0, 89, 72
2, 147582, Note_on_c, 0, 89, 0
2, 147750, Note_on_c, 0, 88, 69
2, 147804, Note_on_c, 0, 88, 0
2, 147968, Note_on_c, 0, 87, 63
2, 148047, Note_on_c, 0, 87, 0
2, 148229, Note_on_c, 0, 85, 60
2, 148268, Note_on_c, 0, 54, 22
2, 148289, Note_on_c, 0, 85, 0
2, 148318, Note_on_c, 0, 54, 0
2, 148481, Note_on_c, 0, 85, 63
2, 148488, Note_on_c, 0, 54, 36
2, 148488, Note_on_c, 0, 64, 34
2, 148507, Note_on_c, 0, 60, 27
2, 148552, Note_on_c, 0, 60, 0
2, 148557, Note_on_c, 0, 64, 0
2, 148557, Note_on_c, 0, 54, 0
2, 148564, Note_on_c, 0, 85, 0
2, 149190, Control_c, 0, 64, 127
2, 149409, Control_c, 0, 64, 0
2, 149564, Note_on_c, 0, 68, 75
2, 149573, Note_on_c, 0, 59, 62
2, 149575, Note_on_c, 0, 85, 90
2, 149578, Note_on_c, 0, 63, 57
2, 149584, Note_on_c, 0, 64, 66
2, 149638, Control_c, 0, 64, 127
2, 149706, Note_on_c, 0, 59, 0
2, 149725, Note_on_c, 0, 64, 0
2, 149750, Note_on_c, 0, 63, 0
2, 149768, Note_on_c, 0, 68, 0
2, 149799, Note_on_c, 0, 85, 0
2, 149848, Note_on_c, 0, 67, 75
2, 149853, Note_on_c, 0, 56, 68
2, 149855, Note_on_c, 0, 62, 68
2, 149859, Note_on_c, 0, 86, 94
2, 149860, Control_c, 0, 64, 0
2, 150035, Control_c, 0, 64, 127
2, 150126, Note_on_c, 0, 56, 0
2, 150132, Note_on_c, 0, 67, 0
2, 150141, Note_on_c, 0, 62, 0
2, 150160, Note_on_c, 0, 86, 0
2, 150216, Note_on_c, 0, 86, 76
2, 150225, Note_on_c, 0, 67, 57
2, 150226, Note_on_c, 0, 56, 52
2, 150232, Note_on_c, 0, 62, 57
2, 150392, Note_on_c, 0, 67, 0
2, 150400, Note_on_c, 0, 56, 0
2, 150409, Note_on_c, 0, 62, 0
2, 150410, Note_on_c, 0, 86, 0
2, 150518, Note_on_c, 0, 86, 77
2, 150522, Note_on_c, 0, 67, 63
2, 150522, Note_on_c, 0, 56, 67
2, 150542, Note_on_c, 0, 62, 58
2, 150682, Note_on_c, 0, 62, 0
2, 150683, Note_on_c, 0, 67, 0
2, 150702, Note_on_c, 0, 56, 0
2, 150725, Note_on_c, 0, 86, 0
2, 150791, Note_on_c, 0, 56, 55
2, 150793, Note_on_c, 0, 67, 57
2, 150805, Note_on_c, 0, 62, 53
2, 150808, Note_on_c, 0, 86, 65
2, 150970, Note_on_c, 0, 86, 0
2, 150972, Note_on_c, 0, 67, 0
2, 150992, Note_on_c, 0, 62, 0
2, 150995, Note_on_c, 0, 56, 0
2, 151124, Note_on_c, 0, 56, 54
2, 151127, Note_on_c, 0, 87, 60
2, 151135, Note_on_c, 0, 67, 44
2, 151143, Note_on_c, 0, 75, 48
2, 151147, Note_on_c, 0, 62, 50
2, 151231, Note_on_c, 0, 67, 0
2, 151301, Note_on_c, 0, 56, 0
2, 151334, Note_on_c, 0, 62, 0
2, 151373, Note_on_c, 0, 75, 0
2, 151411, Note_on_c, 0, 87, 0
2, 151478, Note_on_c, 0, 56, 57
2, 151499, Note_on_c, 0, 62, 37
2, 151504, Note_on_c, 0, 89, 46
2, 151511, Note_on_c, 0, 77, 54
2, 151544, Note_on_c, 0, 62, 0
2, 151582, Note_on_c, 0, 89, 0
2, 151583, Note_on_c, 0, 77, 0
2, 151662, Note_on_c, 0, 56, 0
2, 151760, Note_on_c, 0, 90, 56
2, 151761, Note_on_c, 0, 61, 46
2, 151763, Note_on_c, 0, 65, 42
2, 151766, Note_on_c, 0, 78, 55
2, 151770, Note_on_c, 0, 55, 46
2, 151772, Control_c, 0, 64, 0
2, 151960, Control_c, 0, 64, 127
2, 152270, Note_on_c, 0, 61, 0
2, 152285, Note_on_c, 0, 55, 0
2, 152288, Note_on_c, 0, 65, 0
2, 152332, Note_on_c, 0, 78, 0
2, 152350, Note_on_c, 0, 90, 0
2, 152495, Note_on_c, 0, 89, 49
2, 152499, Note_on_c, 0, 55, 46
2, 152499, Note_on_c, 0, 77, 51
2, 152501, Note_on_c, 0, 61, 39
2, 152514, Note_on_c, 0, 65, 30
2, 152588, Note_on_c, 0, 65, 0
2, 152590, Note_on_c, 0, 55, 0
2, 152595, Note_on_c, 0, 89, 0
2, 152615, Note_on_c, 0, 61, 0
2, 152622, Note_on_c, 0, 77, 0
2, 152747, Control_c, 0, 64, 40
2, 152750, Control_c, 0, 64, 0
2, 152774, Note_on_c, 0, 87, 50
2, 152779, Note_on_c, 0, 55, 36
2, 152783, Note_on_c, 0, 61, 39
2, 152791, Note_on_c, 0, 75, 39
2, 152794, Note_on_c, 0, 65, 30
2, 152918, Control_c, 0, 64, 127
2, 153194, Note_on_c, 0, 87, 0
2, 153227, Note_on_c, 0, 75, 0
2, 153241, Note_on_c, 0, 65, 0
2, 153311, Note_on_c, 0, 61, 0
2, 153312, Note_on_c, 0, 55, 0
2, 153656, Note_on_c, 0, 75, 66
2, 153663, Note_on_c, 0, 64, 54
2, 153664, Note_on_c, 0, 68, 52
2, 153667, Note_on_c, 0, 63, 49
2, 153689, Control_c, 0, 64, 0
2, 153916, Note_on_c, 0, 64, 0
2, 153939, Note_on_c, 0, 75, 0
2, 153945, Note_on_c, 0, 63, 0
2, 153953, Note_on_c, 0, 68, 0
2, 154003, Note_on_c, 0, 61, 38
2, 154079, Note_on_c, 0, 61, 0
2, 154127, Note_on_c, 0, 75, 50
2, 154132, Note_on_c, 0, 68, 47
2, 154136, Note_on_c, 0, 64, 39
2, 154149, Note_on_c, 0, 63, 41
2, 154419, Note_on_c, 0, 64, 0
2, 154421, Note_on_c, 0, 75, 0
2, 154440, Note_on_c, 0, 68, 0
2, 154453, Note_on_c, 0, 63, 0
2, 154522, Note_on_c, 0, 61, 36
2, 154584, Note_on_c, 0, 61, 0
2, 154621, Note_on_c, 0, 75, 57
2, 154623, Note_on_c, 0, 68, 48
2, 154632, Note_on_c, 0, 63, 47
2, 154632, Note_on_c, 0, 64, 46
2, 154854, Note_on_c, 0, 68, 0
2, 154867, Note_on_c, 0, 64, 0
2, 154881, Control_c, 0, 64, 127
2, 154907, Note_on_c, 0, 75, 0
2, 154936, Note_on_c, 0, 63, 0
2, 154952, Note_on_c, 0, 73, 49
2, 154963, Note_on_c, 0, 61, 43
2, 154967, Note_on_c, 0, 64, 39
2, 154969, Note_on_c, 0, 68, 39
2, 155006, Note_on_c, 0, 61, 0
2, 155103, Note_on_c, 0, 73, 0
2, 155121, Note_on_c, 0, 68, 0
2, 155161, Note_on_c, 0, 64, 0
2, 155542, Note_on_c, 0, 61, 50
2, 155546, Control_c, 0, 64, 0
2, 155551, Note_on_c, 0, 58, 39
2, 155567, Note_on_c, 0, 65, 46
2, 155573, Note_on_c, 0, 51, 36
2, 155581, Note_on_c, 0, 56, 39
2, 155591, Note_on_c, 0, 54, 39
2, 155644, Note_on_c, 0, 54, 0
2, 155747, Note_on_c, 0, 54, 5
2, 156017, Note_on_c, 0, 66, 52
2, 156025, Note_on_c, 0, 65, 0
2, 156131, Control_c, 0, 64, 127
2, 156180, Note_on_c, 0, 56, 0
2, 156216, Note_on_c, 0, 54, 0
2, 156232, Note_on_c, 0, 58, 0
2, 156261, Note_on_c, 0, 61, 0
2, 156273, Note_on_c, 0, 66, 0
2, 156367, Note_on_c, 0, 66, 50
2, 156369, Control_c, 0, 64, 0
2, 156373, Note_on_c, 0, 58, 43
2, 156379, Note_on_c, 0, 61, 49
2, 156393, Note_on_c, 0, 56, 45
2, 156424, Note_on_c, 0, 54, 31
2, 156500, Control_c, 0, 64, 127
2, 156961, Note_on_c, 0, 61, 0
2, 156974, Note_on_c, 0, 56, 0
2, 156978, Note_on_c, 0, 66, 0
2, 157034, Note_on_c, 0, 54, 0
2, 157049, Note_on_c, 0, 58, 0
2, 157054, Note_on_c, 0, 51, 0
2, 157300, Note_on_c, 0, 49, 42
2, 157335, Note_on_c, 0, 49, 0
2, 157345, Note_on_c, 0, 56, 22
2, 157378, Note_on_c, 0, 56, 0
2, 157433, Note_on_c, 0, 75, 88
2, 157440, Control_c, 0, 64, 0
2, 157444, Note_on_c, 0, 64, 84
2, 157445, Note_on_c, 0, 68, 81
2, 157449, Note_on_c, 0, 71, 72
2, 157452, Note_on_c, 0, 59, 73
2, 157719, Note_on_c, 0, 64, 0
2, 157721, Note_on_c, 0, 75, 0
2, 157750, Note_on_c, 0, 68, 0
2, 157755, Note_on_c, 0, 59, 0
2, 157759, Note_on_c, 0, 71, 0
2, 157783, Note_on_c, 0, 56, 52
2, 157910, Note_on_c, 0, 56, 0
2, 157919, Note_on_c, 0, 75, 83
2, 157928, Note_on_c, 0, 68, 77
2, 157929, Note_on_c, 0, 71, 76
2, 157931, Note_on_c, 0, 64, 79
2, 157933, Note_on_c, 0, 59, 68
2, 158158, Note_on_c, 0, 59, 0
2, 158166, Note_on_c, 0, 75, 0
2, 158167, Note_on_c, 0, 64, 0
2, 158206, Note_on_c, 0, 71, 0
2, 158222, Note_on_c, 0, 68, 0
2, 158243, Note_on_c, 0, 73, 66
2, 158256, Note_on_c, 0, 64, 52
2, 158257, Note_on_c, 0, 68, 34
2, 158353, Note_on_c, 0, 64, 0
2, 158374, Note_on_c, 0, 68, 0
2, 158402, Note_on_c, 0, 73, 0
2, 158464, Note_on_c, 0, 58, 49
2, 158490, Note_on_c, 0, 68, 46
2, 158491, Note_on_c, 0, 64, 46
2, 158492, Note_on_c, 0, 70, 49
2, 158495, Note_on_c, 0, 75, 50
2, 158588, Control_c, 0, 64, 127
2, 158653, Note_on_c, 0, 58, 0
2, 158707, Note_on_c, 0, 75, 0
2, 158708, Note_on_c, 0, 64, 0
2, 158720, Note_on_c, 0, 70, 0
2, 158724, Note_on_c, 0, 68, 0
2, 158783, Note_on_c, 0, 73, 57
2, 158785, Note_on_c, 0, 58, 46
2, 158805, Note_on_c, 0, 68, 45
2, 158810, Note_on_c, 0, 64, 26
2, 158810, Note_on_c, 0, 70, 37
2, 158816, Note_on_c, 0, 58, 0
2, 158859, Note_on_c, 0, 64, 0
2, 158910, Note_on_c, 0, 73, 0
2, 158954, Note_on_c, 0, 68, 0
2, 158959, Note_on_c, 0, 70, 0
2, 159373, Control_c, 0, 64, 0
2, 159387, Note_on_c, 0, 66, 56
2, 159401, Note_on_c, 0, 54, 39
2, 159424, Note_on_c, 0, 47, 35
2, 159563, Control_c, 0, 64, 127
2, 159568, Note_on_c, 0, 66, 0
2, 159833, Note_on_c, 0, 58, 33
2, 159857, Control_c, 0, 64, 0
2, 159872, Note_on_c, 0, 58, 0
2, 159935, Note_on_c, 0, 61, 46
2, 159968, Note_on_c, 0, 61, 0
2, 160022, Note_on_c, 0, 63, 39
2, 160061, Note_on_c, 0, 63, 0
2, 160105, Note_on_c, 0, 66, 54
2, 160164, Note_on_c, 0, 66, 0
2, 160189, Note_on_c, 0, 68, 50
2, 160214, Note_on_c, 0, 68, 0
2, 160250, Note_on_c, 0, 70, 54
2, 160280, Note_on_c, 0, 70, 0
2, 160336, Note_on_c, 0, 73, 56
2, 160387, Note_on_c, 0, 73, 0
2, 160413, Note_on_c, 0, 75, 55
2, 160438, Note_on_c, 0, 75, 0
2, 160497, Note_on_c, 0, 78, 54
2, 160524, Note_on_c, 0, 78, 0
2, 160568, Note_on_c, 0, 80, 50
2, 160572, Control_c, 0, 64, 127
2, 160597, Note_on_c, 0, 80, 0
2, 160635, Note_on_c, 0, 82, 50
2, 160661, Note_on_c, 0, 82, 0
2, 160726, Note_on_c, 0, 85, 52
2, 160757, Note_on_c, 0, 85, 0
2, 160800, Note_on_c, 0, 87, 50
2, 160828, Note_on_c, 0, 87, 0
2, 160828, Note_on_c, 0, 47, 0
2, 160891, Note_on_c, 0, 90, 51
2, 160898, Note_on_c, 0, 54, 0
2, 160927, Note_on_c, 0, 90, 0
2, 160961, Note_on_c, 0, 92, 50
2, 161000, Note_on_c, 0, 92, 0
2, 161032, Note_on_c, 0, 94, 50
2, 161058, Note_on_c, 0, 94, 0
2, 161107, Note_on_c, 0, 97, 57
2, 161164, Note_on_c, 0, 97, 0
2, 161172, Note_on_c, 0, 99, 56
2, 161212, Note_on_c, 0, 99, 0
2, 161274, Note_on_c, 0, 57, 94
2, 161310, Control_c, 0, 64, 0
2, 161607, Note_on_c, 0, 45, 77
2, 161679, Control_c, 0, 64, 127
2, 161715, Note_on_c, 0, 45, 0
2, 161777, Note_on_c, 0, 57, 0
2, 162258, Control_c, 0, 64, 0
2, 162298, Note_on_c, 0, 62, 79
2, 162300, Note_on_c, 0, 66, 92
2, 162308, Note_on_c, 0, 59, 75
2, 162309, Note_on_c, 0, 78, 120
2, 162311, Note_on_c, 0, 55, 74
2, 162313, Note_on_c, 0, 90, 98
2, 162315, Note_on_c, 0, 86, 98
2, 162388, Control_c, 0, 64, 127
2, 162494, Note_on_c, 0, 55, 0
2, 162529, Note_on_c, 0, 66, 0
2, 162542, Note_on_c, 0, 86, 0
2, 162546, Note_on_c, 0, 78, 0
2, 162547, Note_on_c, 0, 90, 0
2, 162549, Note_on_c, 0, 59, 0
2, 162552, Note_on_c, 0, 62, 0
2, 162627, Note_on_c, 0, 62, 74
2, 162629, Note_on_c, 0, 91, 82
2, 162639, Note_on_c, 0, 66, 81
2, 162639, Note_on_c, 0, 79, 86
2, 162639, Note_on_c, 0, 59, 62
2, 162639, Note_on_c, 0, 55, 75
2, 162639, Note_on_c, 0, 86, 69
2, 162642, Note_on_c, 0, 89, 66
2, 162644, Note_on_c, 0, 87, 57
2, 162651, Note_on_c, 0, 85, 52
2, 162674, Note_on_c, 0, 87, 0
2, 162677, Note_on_c, 0, 85, 0
2, 162695, Note_on_c, 0, 79, 0
2, 162699, Note_on_c, 0, 91, 0
2, 162716, Note_on_c, 0, 66, 0
2, 162721, Note_on_c, 0, 55, 0
2, 162725, Note_on_c, 0, 89, 0
2, 162766, Note_on_c, 0, 86, 0
2, 162767, Note_on_c, 0, 59, 0
2, 162806, Note_on_c, 0, 66, 67
2, 162818, Note_on_c, 0, 55, 55
2, 162833, Note_on_c, 0, 90, 62
2, 162836, Note_on_c, 0, 78, 61
2, 162838, Note_on_c, 0, 59, 40
2, 162851, Note_on_c, 0, 86, 48
2, 162885, Note_on_c, 0, 86, 0
2, 162913, Note_on_c, 0, 62, 0
2, 162917, Note_on_c, 0, 55, 0
2, 162924, Note_on_c, 0, 90, 0
2, 162958, Note_on_c, 0, 59, 0
2, 162961, Note_on_c, 0, 66, 0
2, 162961, Note_on_c, 0, 78, 0
2, 163100, Control_c, 0, 64, 0
2, 163121, Note_on_c, 0, 64, 56
2, 163125, Note_on_c, 0, 88, 69
2, 163129, Note_on_c, 0, 61, 57
2, 163130, Note_on_c, 0, 54, 50
2, 163133, Note_on_c, 0, 83, 64
2, 163135, Note_on_c, 0, 59, 56
2, 163140, Note_on_c, 0, 76, 51
2, 163276, Control_c, 0, 64, 127
2, 163287, Note_on_c, 0, 76, 0
2, 163329, Note_on_c, 0, 88, 0
2, 163333, Note_on_c, 0, 83, 0
2, 163347, Note_on_c, 0, 59, 0
2, 163391, Note_on_c, 0, 54, 0
2, 163401, Note_on_c, 0, 64, 0
2, 163416, Note_on_c, 0, 61, 0
2, 163582, Control_c, 0, 64, 0
2, 163588, Note_on_c, 0, 93, 83
2, 163590, Note_on_c, 0, 61, 52
2, 163593, Note_on_c, 0, 64, 59
2, 163595, Note_on_c, 0, 54, 56
2, 163603, Note_on_c, 0, 81, 66
2, 163609, Note_on_c, 0, 59, 57
2, 163701, Control_c, 0, 64, 127
2, 163922, Note_on_c, 0, 93, 0
2, 163924, Note_on_c, 0, 59, 0
2, 163952, Note_on_c, 0, 81, 0
2, 163971, Note_on_c, 0, 54, 0
2, 163976, Note_on_c, 0, 64, 0
2, 163992, Note_on_c, 0, 61, 0
2, 164185, Control_c, 0, 64, 0
2, 164197, Note_on_c, 0, 61, 46
2, 164202, Note_on_c, 0, 88, 56
2, 164203, Note_on_c, 0, 54, 45
2, 164204, Note_on_c, 0, 64, 47
2, 164212, Note_on_c, 0, 59, 62
2, 164223, Note_on_c, 0, 76, 45
2, 164396, Control_c, 0, 64, 127
2, 164703, Note_on_c, 0, 64, 0
2, 164741, Note_on_c, 0, 88, 0
2, 164742, Note_on_c, 0, 61, 0
2, 164743, Note_on_c, 0, 59, 0
2, 164783, Note_on_c, 0, 54, 0
2, 164815, Note_on_c, 0, 76, 0
2, 164945, Note_on_c, 0, 61, 44
2, 165032, Note_on_c, 0, 61, 0
2, 165081, Control_c, 0, 64, 0
2, 165115, Note_on_c, 0, 62, 63
2, 165126, Note_on_c, 0, 55, 57
2, 165130, Note_on_c, 0, 59, 59
2, 165134, Note_on_c, 0, 74, 75
2, 165135, Note_on_c, 0, 83, 65
2, 165137, Note_on_c, 0, 86, 71
2, 165138, Note_on_c, 0, 79, 66
2, 165139, Note_on_c, 0, 66, 55
2, 165232, Control_c, 0, 64, 127
2, 165243, Note_on_c, 0, 74, 0
2, 165251, Note_on_c, 0, 79, 0
2, 165260, Note_on_c, 0, 86, 0
2, 165273, Note_on_c, 0, 55, 0
2, 165287, Note_on_c, 0, 83, 0
2, 165293, Note_on_c, 0, 85, 36
2, 165296, Note_on_c, 0, 66, 0
2, 165311, Note_on_c, 0, 59, 0
2, 165329, Note_on_c, 0, 85, 0
2, 165338, Note_on_c, 0, 62, 0
2, 165437, Note_on_c, 0, 62, 60
2, 165439, Note_on_c, 0, 90, 88
2, 165444, Note_on_c, 0, 66, 71
2, 165444, Note_on_c, 0, 78, 83
2, 165459, Note_on_c, 0, 59, 57
2, 165461, Note_on_c, 0, 55, 47
2, 165494, Note_on_c, 0, 55, 0
2, 165510, Note_on_c, 0, 66, 0
2, 165511, Note_on_c, 0, 78, 0
2, 165517, Note_on_c, 0, 90, 0
2, 165545, Note_on_c, 0, 59, 0
2, 165548, Note_on_c, 0, 62, 0
2, 165581, Control_c, 0, 64, 0
2, 165628, Note_on_c, 0, 66, 57
2, 165635, Note_on_c, 0, 55, 57
2, 165639, Note_on_c, 0, 62, 56
2, 165642, Note_on_c, 0, 86, 59
2, 165647, Note_on_c, 0, 59, 48
2, 165650, Note_on_c, 0, 74, 57
2, 165693, Note_on_c, 0, 80, 28
2, 165695, Control_c, 0, 64, 127
2, 165733, Note_on_c, 0, 80, 0
2, 165748, Note_on_c, 0, 86, 0
2, 165763, Note_on_c, 0, 74, 0
2, 165780, Note_on_c, 0, 55, 0
2, 165784, Note_on_c, 0, 66, 0
2, 165797, Note_on_c, 0, 59, 0
2, 165824, Note_on_c, 0, 62, 0
2, 165904, Control_c, 0, 64, 0
2, 165934, Note_on_c, 0, 66, 63
2, 165943, Note_on_c, 0, 62, 49
2, 165950, Note_on_c, 0, 71, 61
2, 165953, Note_on_c, 0, 59, 55
2, 165954, Note_on_c, 0, 83, 57
2, 165962, Note_on_c, 0, 55, 45
2, 166032, Note_on_c, 0, 83, 0
2, 166039, Control_c, 0, 64, 127
2, 166063, Note_on_c, 0, 66, 0
2, 166066, Note_on_c, 0, 71, 0
2, 166066, Note_on_c, 0, 55, 0
2, 166080, Note_on_c, 0, 59, 0
2, 166097, Note_on_c, 0, 62, 0
2, 166375, Note_on_c, 0, 78, 56
2, 166377, Control_c, 0, 64, 0
2, 166382, Note_on_c, 0, 55, 49
2, 166383, Note_on_c, 0, 66, 51
2, 166392, Note_on_c, 0, 59, 47
2, 166393, Note_on_c, 0, 62, 45
2, 166464, Control_c, 0, 64, 127
2, 166489, Note_on_c, 0, 62, 0
2, 166511, Note_on_c, 0, 59, 0
2, 166562, Note_on_c, 0, 78, 0
2, 166598, Note_on_c, 0, 66, 0
2, 166624, Note_on_c, 0, 55, 0
2, 166984, Control_c, 0, 64, 0
2, 166990, Note_on_c, 0, 56, 57
2, 166992, Note_on_c, 0, 69, 65
2, 167007, Note_on_c, 0, 60, 56
2, 167010, Note_on_c, 0, 65, 56
2, 167166, Control_c, 0, 64, 127
2, 167292, Note_on_c, 0, 70, 68
2, 167417, Note_on_c, 0, 69, 0
2, 167463, Note_on_c, 0, 70, 0
2, 167501, Note_on_c, 0, 65, 0
2, 167525, Note_on_c, 0, 69, 62
2, 167616, Note_on_c, 0, 56, 0
2, 167715, Note_on_c, 0, 60, 0
2, 167733, Note_on_c, 0, 65, 1
2, 167750, Note_on_c, 0, 69, 0
2, 167802, Note_on_c, 0, 65, 0
2, 167979, Note_on_c, 0, 68, 57
2, 167992, Note_on_c, 0, 61, 45
2, 167993, Control_c, 0, 64, 0
2, 168001, Note_on_c, 0, 54, 38
2, 168012, Note_on_c, 0, 44, 36
2, 168024, Note_on_c, 0, 65, 39
2, 168205, Control_c, 0, 64, 127
2, 168412, Note_on_c, 0, 65, 0
2, 168418, Note_on_c, 0, 54, 0
2, 168419, Note_on_c, 0, 61, 0
2, 168429, Note_on_c, 0, 44, 0
2, 168438, Note_on_c, 0, 68, 0
2, 168573, Note_on_c, 0, 60, 48
2, 168595, Control_c, 0, 64, 0
2, 168657, Note_on_c, 0, 60, 0
2, 168668, Note_on_c, 0, 62, 45
2, 168708, Note_on_c, 0, 62, 0
2, 168738, Note_on_c, 0, 64, 39
2, 168770, Note_on_c, 0, 64, 0
2, 168793, Note_on_c, 0, 65, 41
2, 168828, Note_on_c, 0, 65, 0
2, 168853, Note_on_c, 0, 67, 45
2, 168897, Note_on_c, 0, 67, 0
2, 168919, Note_on_c, 0, 69, 42
2, 168952, Note_on_c, 0, 69, 0
2, 168985, Note_on_c, 0, 71, 39
2, 169019, Note_on_c, 0, 71, 0
2, 169041, Note_on_c, 0, 72, 40
2, 169077, Note_on_c, 0, 72, 0
2, 169112, Note_on_c, 0, 74, 43
2, 169139, Note_on_c, 0, 74, 0
2, 169179, Note_on_c, 0, 76, 42
2, 169210, Note_on_c, 0, 76, 0
2, 169248, Note_on_c, 0, 77, 43
2, 169286, Note_on_c, 0, 77, 0
2, 169333, Note_on_c, 0, 79, 38
2, 169363, Note_on_c, 0, 79, 0
2, 169409, Note_on_c, 0, 81, 41
2, 169452, Note_on_c, 0, 81, 0
2, 169487, Note_on_c, 0, 83, 39
2, 169534, Note_on_c, 0, 83, 0
2, 169574, Note_on_c, 0, 84, 42
2, 169604, Note_on_c, 0, 84, 0
2, 169640, Note_on_c, 0, 86, 47
2, 169668, Note_on_c, 0, 86, 0
2, 169699, Note_on_c, 0, 88, 43
2, 169754, Note_on_c, 0, 50, 46
2, 169757, Note_on_c, 0, 57, 39
2, 169764, Note_on_c, 0, 60, 44
2, 169770, Note_on_c, 0, 53, 48
2, 170007, Note_on_c, 0, 88, 0
2, 170065, Note_on_c, 0, 88, 75
2, 170208, Note_on_c, 0, 88, 0
2, 170299, Control_c, 0, 64, 127
2, 170305, Note_on_c, 0, 88, 69
2, 170457, Note_on_c, 0, 50, 0
2, 170460, Note_on_c, 0, 88, 0
2, 170473, Note_on_c, 0, 53, 0
2, 170473, Note_on_c, 0, 57, 0
2, 170529, Note_on_c, 0, 60, 0
2, 170555, Note_on_c, 0, 88, 71
2, 170651, Note_on_c, 0, 88, 0
2, 170859, Note_on_c, 0, 58, 53
2, 170861, Note_on_c, 0, 62, 52
2, 170868, Note_on_c, 0, 53, 39
2, 170869, Note_on_c, 0, 57, 52
2, 170870, Control_c, 0, 64, 0
2, 171377, Note_on_c, 0, 88, 90
2, 171546, Note_on_c, 0, 87, 58
2, 171578, Note_on_c, 0, 88, 0
2, 171634, Note_on_c, 0, 87, 0
2, 171643, Note_on_c, 0, 86, 63
2, 171681, Note_on_c, 0, 86, 0
2, 171700, Note_on_c, 0, 85, 63
2, 171810, Note_on_c, 0, 85, 0
2, 171839, Note_on_c, 0, 84, 43
2, 171922, Note_on_c, 0, 84, 0
2, 172127, Note_on_c, 0, 82, 68
2, 172174, Note_on_c, 0, 82, 0
2, 172339, Note_on_c, 0, 81, 65
2, 172407, Note_on_c, 0, 81, 0
2, 172485, Note_on_c, 0, 81, 15
2, 172567, Note_on_c, 0, 57, 0
2, 172567, Control_c, 0, 64, 127
2, 172575, Note_on_c, 0, 53, 0
2, 172594, Note_on_c, 0, 81, 0
2, 172604, Note_on_c, 0, 82, 68
2, 172611, Note_on_c, 0, 62, 0
2, 172631, Note_on_c, 0, 58, 0
2, 172779, Note_on_c, 0, 82, 0
2, 172811, Note_on_c, 0, 84, 74
2, 172825, Control_c, 0, 64, 0
2, 172829, Note_on_c, 0, 56, 52
2, 172830, Note_on_c, 0, 63, 41
2, 172844, Note_on_c, 0, 59, 44
2, 172912, Note_on_c, 0, 53, 11
2, 173035, Note_on_c, 0, 84, 0
2, 173090, Note_on_c, 0, 82, 55
2, 173166, Note_on_c, 0, 82, 0
2, 173299, Note_on_c, 0, 75, 56
2, 173391, Note_on_c, 0, 75, 0
2, 173587, Note_on_c, 0, 71, 45
2, 173707, Note_on_c, 0, 71, 0
2, 173782, Note_on_c, 0, 82, 58
2, 174044, Note_on_c, 0, 82, 0
2, 174077, Control_c, 0, 64, 127
2, 174089, Note_on_c, 0, 80, 57
2, 174276, Note_on_c, 0, 53, 0
2, 174294, Note_on_c, 0, 59, 0
2, 174335, Note_on_c, 0, 63, 0
2, 174351, Note_on_c, 0, 56, 0
2, 174438, Note_on_c, 0, 75, 48
2, 174531, Note_on_c, 0, 80, 0
2, 174553, Note_on_c, 0, 75, 0
2, 174597, Note_on_c, 0, 71, 36
2, 174674, Note_on_c, 0, 71, 0
2, 174752, Note_on_c, 0, 54, 42
2, 174753, Note_on_c, 0, 80, 54
2, 174762, Control_c, 0, 64, 0
2, 174766, Note_on_c, 0, 64, 34
2, 174779, Note_on_c, 0, 73, 45
2, 174783, Note_on_c, 0, 69, 31
2, 174993, Note_on_c, 0, 64, 0
2, 175016, Note_on_c, 0, 80, 0
2, 175026, Note_on_c, 0, 69, 0
2, 175060, Note_on_c, 0, 78, 55
2, 175084, Note_on_c, 0, 63, 52
2, 175112, Note_on_c, 0, 73, 0
2, 175151, Note_on_c, 0, 63, 0
2, 175157, Note_on_c, 0, 78, 0
2, 175250, Note_on_c, 0, 64, 52
2, 175250, Note_on_c, 0, 80, 57
2, 175263, Note_on_c, 0, 69, 40
2, 175289, Note_on_c, 0, 73, 39
2, 175331, Note_on_c, 0, 64, 0
2, 175337, Note_on_c, 0, 73, 0
2, 175347, Note_on_c, 0, 80, 0
2, 175350, Note_on_c, 0, 69, 0
2, 175562, Note_on_c, 0, 78, 51
2, 175568, Note_on_c, 0, 64, 63
2, 175649, Note_on_c, 0, 64, 0
2, 175668, Note_on_c, 0, 78, 0
2, 175746, Note_on_c, 0, 80, 77
2, 175764, Note_on_c, 0, 69, 50
2, 175782, Note_on_c, 0, 73, 41
2, 175825, Note_on_c, 0, 73, 0
2, 175968, Note_on_c, 0, 69, 0
2, 175988, Note_on_c, 0, 80, 0
2, 176056, Note_on_c, 0, 78, 56
2, 176061, Note_on_c, 0, 69, 43
2, 176073, Note_on_c, 0, 73, 41
2, 176115, Note_on_c, 0, 73, 0
2, 176135, Control_c, 0, 64, 127
2, 176248, Note_on_c, 0, 54, 0
2, 176288, Note_on_c, 0, 69, 0
2, 176461, Note_on_c, 0, 78, 0
2, 176647, Note_on_c, 0, 61, 50
2, 176653, Note_on_c, 0, 54, 50
2, 176657, Note_on_c, 0, 65, 56
2, 176661, Note_on_c, 0, 44, 52
2, 176663, Note_on_c, 0, 58, 49
2, 176673, Control_c, 0, 64, 0
2, 176875, Control_c, 0, 64, 127
2, 176929, Note_on_c, 0, 54, 0
2, 176949, Note_on_c, 0, 44, 0
2, 176987, Note_on_c, 0, 32, 60
2, 176999, Note_on_c, 0, 65, 0
2, 177004, Note_on_c, 0, 58, 0
2, 177027, Note_on_c, 0, 61, 0
2, 177049, Note_on_c, 0, 32, 0
2, 177637, Note_on_c, 0, 89, 85
2, 177642, Note_on_c, 0, 82, 86
2, 177644, Note_on_c, 0, 85, 79
2, 177649, Note_on_c, 0, 58, 73
2, 177649, Note_on_c, 0, 65, 87
2, 177649, Note_on_c, 0, 77, 82
2, 177649, Note_on_c, 0, 54, 75
2, 177651, Note_on_c, 0, 61, 68
2, 177652, Control_c, 0, 64, 0
2, 177752, Control_c, 0, 64, 127
2, 177804, Note_on_c, 0, 77, 0
2, 177820, Note_on_c, 0, 89, 0
2, 177832, Note_on_c, 0, 65, 0
2, 177847, Note_on_c, 0, 82, 0
2, 177870, Note_on_c, 0, 54, 0
2, 177885, Note_on_c, 0, 85, 0
2, 177888, Note_on_c, 0, 61, 0
2, 177900, Note_on_c, 0, 58, 0
2, 177991, Control_c, 0, 64, 0
2, 177998, Note_on_c, 0, 90, 78
2, 178000, Note_on_c, 0, 78, 83
2, 178002, Note_on_c, 0, 85, 81
2, 178011, Note_on_c, 0, 54, 63
2, 178013, Note_on_c, 0, 64, 64
2, 178015, Note_on_c, 0, 58, 51
2, 178016, Note_on_c, 0, 60, 60
2, 178131, Control_c, 0, 64, 127
2, 178166, Note_on_c, 0, 78, 0
2, 178185, Note_on_c, 0, 64, 0
2, 178193, Note_on_c, 0, 85, 0
2, 178195, Note_on_c, 0, 90, 0
2, 178204, Note_on_c, 0, 54, 0
2, 178229, Note_on_c, 0, 58, 0
2, 178230, Note_on_c, 0, 60, 0
2, 178332, Note_on_c, 0, 92, 69
2, 178335, Note_on_c, 0, 54, 56
2, 178342, Note_on_c, 0, 80, 73
2, 178361, Note_on_c, 0, 92, 0
2, 178366, Note_on_c, 0, 58, 35
2, 178406, Note_on_c, 0, 80, 0
2, 178420, Note_on_c, 0, 58, 0
2, 178422, Note_on_c, 0, 54, 0
2, 178680, Note_on_c, 0, 88, 55
2, 178681, Note_on_c, 0, 76, 56
2, 178685, Note_on_c, 0, 83, 49
2, 178694, Control_c, 0, 64, 0
2, 178860, Control_c, 0, 64, 127
2, 178887, Note_on_c, 0, 88, 0
2, 178913, Note_on_c, 0, 76, 0
2, 178947, Note_on_c, 0, 83, 0
2, 178981, Control_c, 0, 64, 0
2, 179033, Note_on_c, 0, 68, 45
2, 179037, Note_on_c, 0, 87, 57
2, 179041, Note_on_c, 0, 75, 50
2, 179049, Note_on_c, 0, 82, 52
2, 179051, Note_on_c, 0, 59, 39
2, 179055, Note_on_c, 0, 63, 39
2, 179059, Note_on_c, 0, 64, 48
2, 179102, Note_on_c, 0, 64, 0
2, 179138, Note_on_c, 0, 87, 0
2, 179142, Note_on_c, 0, 75, 0
2, 179149, Note_on_c, 0, 68, 0
2, 179152, Note_on_c, 0, 59, 0
2, 179155, Note_on_c, 0, 63, 0
2, 179164, Control_c, 0, 64, 127
2, 179167, Note_on_c, 0, 82, 0
2, 179262, Control_c, 0, 64, 0
2, 179386, Note_on_c, 0, 85, 52
2, 179400, Note_on_c, 0, 73, 41
2, 179402, Note_on_c, 0, 68, 40
2, 179411, Control_c, 0, 64, 127
2, 179414, Note_on_c, 0, 63, 42
2, 179415, Note_on_c, 0, 80, 47
2, 179426, Note_on_c, 0, 64, 45
2, 179427, Note_on_c, 0, 59, 35
2, 179469, Note_on_c, 0, 64, 0
2, 179486, Note_on_c, 0, 68, 0
2, 179488, Note_on_c, 0, 59, 0
2, 179489, Note_on_c, 0, 73, 0
2, 179510, Note_on_c, 0, 80, 0
2, 179514, Note_on_c, 0, 85, 0
2, 179515, Note_on_c, 0, 63, 0
2, 179686, Note_on_c, 0, 85, 54
2, 179696, Note_on_c, 0, 68, 41
2, 179701, Note_on_c, 0, 73, 43
2, 179709, Note_on_c, 0, 59, 38
2, 179710, Note_on_c, 0, 80, 48
2, 179712, Note_on_c, 0, 63, 42
2, 179722, Note_on_c, 0, 64, 45
2, 179967, Note_on_c, 0, 64, 0
2, 179971, Note_on_c, 0, 59, 0
2, 179974, Note_on_c, 0, 68, 0
2, 179997, Note_on_c, 0, 63, 0
2, 180182, Note_on_c, 0, 73, 0
2, 180344, Note_on_c, 0, 85, 0
2, 180409, Note_on_c, 0, 80, 0
2, 180584, Note_on_c, 0, 44, 63
2, 180612, Control_c, 0, 64, 0
2, 180762, Control_c, 0, 64, 127
2, 180965, Note_on_c, 0, 44, 0
2, 181441, Note_on_c, 0, 65, 59
2, 181442, Control_c, 0, 64, 0
2, 181445, Note_on_c, 0, 72, 53
2, 181448, Note_on_c, 0, 54, 48
2, 181450, Note_on_c, 0, 69, 54
2, 181466, Note_on_c, 0, 60, 43
2, 181497, Note_on_c, 0, 69, 0
2, 181502, Note_on_c, 0, 60, 0
2, 181507, Note_on_c, 0, 65, 0
2, 181522, Note_on_c, 0, 72, 0
2, 181529, Note_on_c, 0, 54, 0
2, 181768, Note_on_c, 0, 72, 56
2, 181784, Note_on_c, 0, 65, 46
2, 181785, Note_on_c, 0, 54, 52
2, 181787, Note_on_c, 0, 69, 50
2, 181805, Note_on_c, 0, 60, 39
2, 181819, Note_on_c, 0, 69, 0
2, 181828, Note_on_c, 0, 65, 0
2, 181830, Note_on_c, 0, 54, 0
2, 181838, Note_on_c, 0, 60, 0
2, 181853, Note_on_c, 0, 72, 0
2, 181868, Control_c, 0, 64, 127
2, 182080, Note_on_c, 0, 54, 40
2, 182092, Note_on_c, 0, 65, 48
2, 182094, Note_on_c, 0, 72, 45
2, 182096, Note_on_c, 0, 60, 29
2, 182096, Note_on_c, 0, 69, 45
2, 182116, Note_on_c, 0, 54, 0
2, 182127, Note_on_c, 0, 65, 0
2, 182131, Note_on_c, 0, 60, 0
2, 182132, Note_on_c, 0, 69, 0
2, 182133, Note_on_c, 0, 72, 0
2, 182202, Note_on_c, 0, 54, 40
2, 182226, Note_on_c, 0, 72, 49
2, 182233, Note_on_c, 0, 65, 37
2, 182255, Note_on_c, 0, 69, 31
2, 182283, Note_on_c, 0, 65, 0
2, 182293, Note_on_c, 0, 69, 0
2, 182303, Note_on_c, 0, 72, 0
2, 182325, Note_on_c, 0, 54, 0
2, 182328, Control_c, 0, 64, 0
2, 182426, Note_on_c, 0, 68, 54
2, 182429, Note_on_c, 0, 68, 0
2, 182429, Control_c, 0, 64, 127
2, 182433, Note_on_c, 0, 75, 57
2, 182437, Note_on_c, 0, 71, 52
2, 182439, Note_on_c, 0, 63, 57
2, 182444, Note_on_c, 0, 64, 37
2, 182448, Note_on_c, 0, 64, 0
2, 182448, Note_on_c, 0, 75, 0
2, 182448, Note_on_c, 0, 71, 0
2, 182448, Note_on_c, 0, 63, 0
2, 183640, Note_on_c, 0, 79, 49
2, 183716, Note_on_c, 0, 79, 0
2, 183744, Note_on_c, 0, 80, 56
2, 183814, Note_on_c, 0, 80, 0
2, 183845, Note_on_c, 0, 81, 60
2, 183915, Note_on_c, 0, 81, 0
2, 183948, Note_on_c, 0, 82, 58
2, 183975, Note_on_c, 0, 82, 0
2, 184040, Note_on_c, 0, 83, 45
2, 184092, Note_on_c, 0, 84, 45
2, 184110, Note_on_c, 0, 83, 0
2, 184188, Note_on_c, 0, 84, 0
2, 184204, Note_on_c, 0, 86, 55
2, 184281, Note_on_c, 0, 87, 81
2, 184309, Note_on_c, 0, 86, 0
2, 184372, Note_on_c, 0, 87, 0
2, 184382, Control_c, 0, 64, 0
2, 184407, Note_on_c, 0, 88, 92
2, 184424, Note_on_c, 0, 50, 70
2, 184532, Control_c, 0, 64, 127
2, 184733, Note_on_c, 0, 88, 0
2, 184809, Note_on_c, 0, 57, 42
2, 184877, Note_on_c, 0, 50, 0
2, 185064, Note_on_c, 0, 64, 50
2, 185197, Note_on_c, 0, 65, 42
2, 185273, Note_on_c, 0, 65, 0
2, 185280, Note_on_c, 0, 69, 48
2, 185317, Note_on_c, 0, 69, 0
2, 185450, Note_on_c, 0, 77, 70
2, 185526, Note_on_c, 0, 77, 0
2, 185530, Note_on_c, 0, 81, 61
2, 185601, Note_on_c, 0, 88, 92
2, 185636, Note_on_c, 0, 81, 0
2, 185707, Note_on_c, 0, 81, 63
2, 185774, Note_on_c, 0, 81, 0
2, 185893, Note_on_c, 0, 81, 53
2, 185950, Note_on_c, 0, 81, 0
2, 186097, Note_on_c, 0, 81, 51
2, 186221, Note_on_c, 0, 81, 0
2, 186319, Note_on_c, 0, 81, 41
2, 186408, Note_on_c, 0, 81, 0
2, 186587, Note_on_c, 0, 88, 0
2, 186589, Note_on_c, 0, 81, 52
2, 186921, Note_on_c, 0, 86, 67
2, 187011, Note_on_c, 0, 81, 0
2, 187265, Note_on_c, 0, 81, 66
2, 187303, Note_on_c, 0, 86, 0
2, 187384, Note_on_c, 0, 57, 0
2, 187428, Note_on_c, 0, 64, 0
2, 187607, Note_on_c, 0, 77, 58
2, 187720, Note_on_c, 0, 81, 0
2, 187944, Note_on_c, 0, 77, 0
2, 187958, Note_on_c, 0, 84, 62
2, 187992, Note_on_c, 0, 43, 52
2, 187994, Control_c, 0, 64, 0
2, 188093, Control_c, 0, 64, 127
2, 188264, Note_on_c, 0, 84, 0
2, 188275, Note_on_c, 0, 50, 63
2, 188420, Note_on_c, 0, 43, 0
2, 188519, Note_on_c, 0, 57, 68
2, 188525, Note_on_c, 0, 50, 0
2, 188713, Note_on_c, 0, 58, 63
2, 188756, Note_on_c, 0, 57, 0
2, 188868, Note_on_c, 0, 62, 75
2, 188952, Note_on_c, 0, 62, 0
2, 189019, Note_on_c, 0, 65, 77
2, 189054, Note_on_c, 0, 62, 51
2, 189140, Note_on_c, 0, 65, 0
2, 189188, Note_on_c, 0, 69, 84
2, 189315, Note_on_c, 0, 69, 0
2, 189338, Note_on_c, 0, 70, 82
2, 189344, Note_on_c, 0, 62, 0
2, 189367, Note_on_c, 0, 67, 64
2, 189428, Note_on_c, 0, 70, 0
2, 189523, Note_on_c, 0, 74, 81
2, 189622, Note_on_c, 0, 74, 0
2, 189712, Note_on_c, 0, 84, 99
2, 189916, Note_on_c, 0, 84, 0
2, 189920, Note_on_c, 0, 81, 82
2, 189947, Note_on_c, 0, 62, 39
2, 190093, Note_on_c, 0, 62, 0
2, 190094, Note_on_c, 0, 81, 0
2, 190129, Note_on_c, 0, 82, 71
2, 190234, Note_on_c, 0, 82, 0
2, 190337, Note_on_c, 0, 86, 67
2, 190364, Note_on_c, 0, 62, 41
2, 190543, Note_on_c, 0, 67, 0
2, 190556, Note_on_c, 0, 96, 69
2, 190749, Note_on_c, 0, 96, 0
2, 190763, Note_on_c, 0, 55, 36
2, 190769, Note_on_c, 0, 93, 58
2, 190799, Control_c, 0, 64, 0
2, 190834, Note_on_c, 0, 58, 0
2, 190970, Control_c, 0, 64, 127
2, 190987, Note_on_c, 0, 93, 0
2, 190997, Note_on_c, 0, 62, 0
2, 191033, Note_on_c, 0, 94, 49
2, 191078, Note_on_c, 0, 58, 33
2, 191256, Note_on_c, 0, 94, 0
2, 191289, Note_on_c, 0, 90, 39
2, 191304, Note_on_c, 0, 86, 0
2, 191370, Note_on_c, 0, 62, 26
2, 191567, Note_on_c, 0, 93, 52
2, 191568, Note_on_c, 0, 90, 0
2, 191666, Note_on_c, 0, 67, 8
2, 191869, Note_on_c, 0, 93, 0
2, 191890, Note_on_c, 0, 62, 0
2, 191903, Note_on_c, 0, 91, 45
2, 192202, Note_on_c, 0, 91, 0
2, 192414, Note_on_c, 0, 67, 0
2, 192417, Note_on_c, 0, 62, 35
2, 192521, Note_on_c, 0, 62, 0
2, 192550, Note_on_c, 0, 58, 0
2, 192574, Note_on_c, 0, 55, 0
2, 193743, Note_on_c, 0, 63, 36
2, 193749, Note_on_c, 0, 25, 42
2, 193759, Note_on_c, 0, 56, 43
2, 193769, Note_on_c, 0, 37, 33
2, 193778, Note_on_c, 0, 52, 25
2, 193793, Note_on_c, 0, 59, 34
2, 193823, Control_c, 0, 64, 0
2, 194097, Control_c, 0, 64, 127
2, 194260, Note_on_c, 0, 52, 0
2, 194295, Note_on_c, 0, 59, 0
2, 194306, Note_on_c, 0, 25, 0
2, 194340, Note_on_c, 0, 56, 0
2, 194356, Note_on_c, 0, 63, 0
2, 194401, Note_on_c, 0, 37, 0
2, 196334, Note_on_c, 0, 71, 55
2, 196336, Note_on_c, 0, 76, 54
2, 196343, Note_on_c, 0, 81, 52
2, 196343, Note_on_c, 0, 68, 40
2, 196343, Note_on_c, 0, 61, 42
2, 196488, Note_on_c, 0, 68, 0
2, 196493, Note_on_c, 0, 61, 0
2, 196514, Note_on_c, 0, 76, 0
2, 196534, Note_on_c, 0, 71, 0
2, 196537, Note_on_c, 0, 81, 0
2, 196715, Note_on_c, 0, 80, 55
2, 196719, Note_on_c, 0, 75, 49
2, 196725, Note_on_c, 0, 68, 36
2, 196726, Note_on_c, 0, 61, 42
2, 196739, Note_on_c, 0, 71, 38
2, 196887, Note_on_c, 0, 61, 0
2, 196895, Note_on_c, 0, 71, 0
2, 196902, Note_on_c, 0, 68, 0
2, 196952, Note_on_c, 0, 80, 0
2, 196968, Note_on_c, 0, 75, 0
2, 197106, Note_on_c, 0, 71, 36
2, 197109, Note_on_c, 0, 74, 54
2, 197115, Note_on_c, 0, 61, 44
2, 197116, Note_on_c, 0, 68, 39
2, 197272, Note_on_c, 0, 71, 0
2, 197295, Note_on_c, 0, 61, 0
2, 197310, Note_on_c, 0, 68, 0
2, 197311, Note_on_c, 0, 74, 0
2, 197490, Control_c, 0, 64, 0
2, 197504, Note_on_c, 0, 71, 54
2, 197508, Note_on_c, 0, 68, 45
2, 197510, Note_on_c, 0, 76, 57
2, 197513, Note_on_c, 0, 81, 46
2, 197519, Note_on_c, 0, 61, 39
2, 197547, Control_c, 0, 64, 127
2, 197600, Note_on_c, 0, 68, 0
2, 197615, Note_on_c, 0, 81, 0
2, 197623, Note_on_c, 0, 61, 0
2, 197692, Note_on_c, 0, 71, 0
2, 197806, Note_on_c, 0, 76, 0
2, 197947, Note_on_c, 0, 80, 43
2, 197948, Note_on_c, 0, 54, 52
2, 197955, Note_on_c, 0, 73, 44
2, 197956, Note_on_c, 0, 69, 34
2, 197957, Note_on_c, 0, 76, 49
2, 197992, Control_c, 0, 64, 0
2, 198139, Control_c, 0, 64, 127
2, 198297, Control_c, 0, 64, 0
2, 198312, Note_on_c, 0, 60, 59
2, 198391, Control_c, 0, 64, 127
2, 198515, Note_on_c, 0, 73, 0
2, 198516, Note_on_c, 0, 69, 0
2, 198615, Note_on_c, 0, 76, 0
2, 198629, Note_on_c, 0, 60, 0
2, 198638, Note_on_c, 0, 73, 45
2, 198644, Note_on_c, 0, 69, 47
2, 198654, Note_on_c, 0, 61, 41
2, 198676, Control_c, 0, 64, 24
2, 198679, Control_c, 0, 64, 0
2, 198806, Control_c, 0, 64, 127
2, 198960, Note_on_c, 0, 61, 0
2, 198975, Note_on_c, 0, 63, 57
2, 198993, Control_c, 0, 64, 0
2, 199055, Note_on_c, 0, 73, 0
2, 199058, Note_on_c, 0, 69, 0
2, 199061, Control_c, 0, 64, 127
2, 199326, Note_on_c, 0, 64, 45
2, 199328, Note_on_c, 0, 69, 38
2, 199332, Control_c, 0, 64, 0
2, 199337, Note_on_c, 0, 54, 0
2, 199374, Note_on_c, 0, 73, 35
2, 199409, Control_c, 0, 64, 127
2, 199421, Note_on_c, 0, 73, 0
2, 199427, Note_on_c, 0, 63, 0
2, 199592, Note_on_c, 0, 69, 0
2, 199715, Note_on_c, 0, 66, 57
2, 199718, Note_on_c, 0, 64, 0
2, 200085, Note_on_c, 0, 73, 42
2, 200092, Note_on_c, 0, 69, 39
2, 200502, Note_on_c, 0, 68, 46
2, 200537, Note_on_c, 0, 66, 0
2, 200615, Note_on_c, 0, 68, 0
2, 200617, Note_on_c, 0, 80, 0
2, 200688, Note_on_c, 0, 73, 0
2, 200711, Note_on_c, 0, 69, 0
2, 201233, Note_on_c, 0, 32, 49
2, 201235, Note_on_c, 0, 61, 41
2, 201237, Note_on_c, 0, 54, 39
2, 201246, Note_on_c, 0, 65, 45
2, 201247, Note_on_c, 0, 58, 43
2, 201259, Note_on_c, 0, 44, 36
2, 201291, Control_c, 0, 64, 0
2, 201600, Control_c, 0, 64, 104
2, 201603, Control_c, 0, 64, 127
2, 202010, Note_on_c, 0, 54, 0
2, 202232, Note_on_c, 0, 58, 0
2, 202236, Note_on_c, 0, 65, 0
2, 202308, Note_on_c, 0, 61, 0
2, 202382, Note_on_c, 0, 32, 0
2, 202467, Note_on_c, 0, 44, 0
2, 203634, Note_on_c, 0, 56, 63
2, 203955, Note_on_c, 0, 56, 0
2, 204095, Note_on_c, 0, 76, 70
2, 204106, Note_on_c, 0, 71, 74
2, 204110, Note_on_c, 0, 68, 66
2, 204116, Note_on_c, 0, 64, 64
2, 204129, Note_on_c, 0, 56, 63
2, 204130, Note_on_c, 0, 73, 35
2, 204134, Note_on_c, 0, 74, 41
2, 204189, Note_on_c, 0, 74, 0
2, 204258, Note_on_c, 0, 76, 0
2, 204269, Note_on_c, 0, 71, 0
2, 204277, Note_on_c, 0, 73, 0
2, 204298, Note_on_c, 0, 56, 0
2, 204300, Note_on_c, 0, 64, 0
2, 204378, Note_on_c, 0, 68, 0
2, 204510, Note_on_c, 0, 75, 67
2, 204511, Control_c, 0, 64, 0
2, 204519, Note_on_c, 0, 63, 66
2, 204521, Note_on_c, 0, 70, 63
2, 204523, Note_on_c, 0, 67, 66
2, 204534, Note_on_c, 0, 56, 68
2, 204600, Control_c, 0, 64, 127
2, 204719, Note_on_c, 0, 67, 0
2, 204741, Note_on_c, 0, 75, 0
2, 204763, Note_on_c, 0, 70, 0
2, 204785, Note_on_c, 0, 63, 0
2, 204812, Note_on_c, 0, 56, 0
2, 204972, Control_c, 0, 64, 0
2, 204981, Note_on_c, 0, 65, 59
2, 204983, Note_on_c, 0, 69, 58
2, 204987, Note_on_c, 0, 60, 54
2, 204991, Note_on_c, 0, 56, 54
2, 205001, Note_on_c, 0, 68, 39
2, 205080, Control_c, 0, 64, 127
2, 205153, Note_on_c, 0, 60, 0
2, 205181, Note_on_c, 0, 65, 0
2, 205190, Note_on_c, 0, 68, 0
2, 205210, Note_on_c, 0, 69, 0
2, 205265, Note_on_c, 0, 56, 0
2, 205454, Note_on_c, 0, 76, 57
2, 205455, Note_on_c, 0, 68, 56
2, 205467, Note_on_c, 0, 71, 63
2, 205468, Control_c, 0, 64, 0
2, 205471, Note_on_c, 0, 64, 48
2, 205487, Note_on_c, 0, 56, 54
2, 205596, Control_c, 0, 64, 127
2, 205817, Note_on_c, 0, 76, 0
2, 205866, Note_on_c, 0, 64, 0
2, 205947, Note_on_c, 0, 71, 0
2, 205965, Note_on_c, 0, 56, 0
2, 205994, Note_on_c, 0, 68, 0
2, 206320, Note_on_c, 0, 75, 52
2, 206326, Note_on_c, 0, 49, 45
2, 206328, Note_on_c, 0, 68, 54
2, 206359, Control_c, 0, 64, 0
2, 206555, Control_c, 0, 64, 127
2, 206781, Note_on_c, 0, 55, 49
2, 206797, Control_c, 0, 64, 0
2, 206891, Control_c, 0, 64, 127
2, 207149, Note_on_c, 0, 55, 0
2, 207184, Note_on_c, 0, 56, 48
2, 207185, Control_c, 0, 64, 0
2, 207278, Control_c, 0, 64, 127
2, 207590, Note_on_c, 0, 56, 0
2, 207611, Note_on_c, 0, 58, 50
2, 207751, Note_on_c, 0, 68, 0
2, 207782, Note_on_c, 0, 49, 0
2, 208107, Note_on_c, 0, 58, 0
2, 208123, Note_on_c, 0, 64, 68
2, 208133, Note_on_c, 0, 68, 50
2, 208588, Note_on_c, 0, 63, 49
2, 208836, Note_on_c, 0, 73, 1
2, 208869, Note_on_c, 0, 64, 0
2, 208897, Note_on_c, 0, 68, 0
2, 209123, Note_on_c, 0, 68, 44
2, 209131, Note_on_c, 0, 64, 40
2, 209639, Note_on_c, 0, 61, 52
2, 209655, Note_on_c, 0, 63, 0
2, 209741, Note_on_c, 0, 61, 0
2, 210414, Note_on_c, 0, 64, 0
2, 210448, Note_on_c, 0, 68, 0
2, 210455, Note_on_c, 0, 32, 82
2, 210458, Note_on_c, 0, 44, 81
2, 210466, Note_on_c, 0, 75, 0
2, 210475, Note_on_c, 0, 73, 0
2, 210488, Control_c, 0, 64, 0
2, 210640, Control_c, 0, 64, 127
2, 210803, Note_on_c, 0, 32, 0
2, 210859, Note_on_c, 0, 44, 0
2, 211445, Note_on_c, 0, 42, 79
2, 211606, Note_on_c, 0, 44, 75
2, 211648, Note_on_c, 0, 42, 0
2, 211673, Note_on_c, 0, 44, 0
2, 211723, Note_on_c, 0, 45, 73
2, 211821, Note_on_c, 0, 48, 80
2, 211822, Note_on_c, 0, 45, 0
2, 211933, Note_on_c, 0, 52, 75
2, 211952, Note_on_c, 0, 48, 0
2, 211980, Note_on_c, 0, 52, 0
2, 212005, Note_on_c, 0, 54, 75
2, 212058, Note_on_c, 0, 56, 66
2, 212106, Note_on_c, 0, 54, 0
2, 212134, Note_on_c, 0, 56, 0
2, 212136, Note_on_c, 0, 57, 58
2, 212183, Note_on_c, 0, 60, 80
2, 212199, Note_on_c, 0, 57, 0
2, 212261, Note_on_c, 0, 64, 71
2, 212275, Note_on_c, 0, 60, 0
2, 212316, Note_on_c, 0, 64, 0
2, 212322, Note_on_c, 0, 66, 80
2, 212341, Note_on_c, 0, 68, 66
2, 212356, Note_on_c, 0, 66, 0
2, 212369, Note_on_c, 0, 68, 0
2, 212379, Note_on_c, 0, 69, 68
2, 212449, Note_on_c, 0, 72, 72
2, 212450, Note_on_c, 0, 69, 0
2, 212496, Note_on_c, 0, 76, 78
2, 212510, Note_on_c, 0, 72, 0
2, 212547, Note_on_c, 0, 76, 0
2, 212573, Note_on_c, 0, 78, 69
2, 212578, Note_on_c, 0, 80, 69
2, 212603, Note_on_c, 0, 78, 0
2, 212608, Note_on_c, 0, 80, 0
2, 212631, Note_on_c, 0, 81, 54
2, 212690, Note_on_c, 0, 84, 57
2, 212733, Note_on_c, 0, 88, 82
2, 214148, Note_on_c, 0, 87, 64
2, 214311, Note_on_c, 0, 81, 0
2, 214635, Note_on_c, 0, 81, 59
2, 214728, Note_on_c, 0, 88, 0
2, 215457, Note_on_c, 0, 87, 0
2, 215863, Note_on_c, 0, 100, 54
2, 217549, Control_c, 0, 64, 0
2, 217558, Note_on_c, 0, 81, 0
2, 217561, Note_on_c, 0, 99, 49
2, 217584, Note_on_c, 0, 37, 41
2, 217668, Control_c, 0, 64, 127
2, 217773, Note_on_c, 0, 84, 0
2, 217793, Note_on_c, 0, 37, 0
2, 217809, Note_on_c, 0, 100, 0
2, 217828, Note_on_c, 0, 99, 0
2, 219962, Control_c, 0, 64, 0
2, 219972, Note_on_c, 0, 64, 49
2, 219973, Note_on_c, 0, 68, 52
2, 219976, Note_on_c, 0, 54, 48
2, 219995, Note_on_c, 0, 49, 37
2, 219997, Note_on_c, 0, 59, 39
2, 220047, Control_c, 0, 64, 127
2, 220138, Note_on_c, 0, 49, 0
2, 220156, Note_on_c, 0, 54, 0
2, 220170, Note_on_c, 0, 59, 0
2, 220249, Note_on_c, 0, 64, 0
2, 220305, Note_on_c, 0, 68, 0
2, 220363, Note_on_c, 0, 51, 42
2, 220365, Note_on_c, 0, 70, 58
2, 220366, Control_c, 0, 64, 0
2, 220374, Note_on_c, 0, 61, 39
2, 220375, Note_on_c, 0, 66, 55
2, 220378, Note_on_c, 0, 56, 49
2, 220493, Control_c, 0, 64, 127
2, 220702, Note_on_c, 0, 51, 0
2, 220710, Note_on_c, 0, 56, 0
2, 220714, Note_on_c, 0, 61, 0
2, 220718, Note_on_c, 0, 70, 0
2, 220720, Note_on_c, 0, 66, 0
2, 220847, Note_on_c, 0, 66, 47
2, 220853, Note_on_c, 0, 70, 43
2, 220862, Note_on_c, 0, 61, 36
2, 220876, Note_on_c, 0, 56, 40
2, 220888, Note_on_c, 0, 51, 31
2, 221026, Note_on_c, 0, 61, 0
2, 221041, Note_on_c, 0, 56, 0
2, 221088, Note_on_c, 0, 51, 0
2, 221786, Note_on_c, 0, 25, 80
2, 221806, Note_on_c, 0, 70, 0
2, 221809, Note_on_c, 0, 66, 0
2, 221810, Control_c, 0, 64, 0
2, 221924, Control_c, 0, 64, 127
2, 222066, Note_on_c, 0, 25, 0
2, 222866, Note_on_c, 0, 68, 81
2, 222875, Note_on_c, 0, 64, 68
2, 222875, Note_on_c, 0, 54, 66
2, 222879, Note_on_c, 0, 59, 67
2, 222879, Note_on_c, 0, 49, 66
2, 222918, Control_c, 0, 64, 0
2, 222964, Control_c, 0, 64, 127
2, 223156, Note_on_c, 0, 49, 0
2, 223236, Note_on_c, 0, 54, 0
2, 223241, Note_on_c, 0, 59, 0
2, 223261, Note_on_c, 0, 64, 0
2, 223389, Note_on_c, 0, 68, 0
2, 223479, Note_on_c, 0, 66, 94
2, 223482, Note_on_c, 0, 70, 90
2, 223482, Note_on_c, 0, 51, 77
2, 223484, Note_on_c, 0, 61, 75
2, 223490, Note_on_c, 0, 56, 78
2, 223509, Control_c, 0, 64, 0
2, 223627, Control_c, 0, 64, 127
2, 223908, Note_on_c, 0, 51, 0
2, 223921, Note_on_c, 0, 56, 0
2, 223924, Note_on_c, 0, 61, 0
2, 223966, Note_on_c, 0, 66, 0
2, 223974, Note_on_c, 0, 70, 0
2, 223993, Control_c, 0, 64, 0
2, 224011, Note_on_c, 0, 62, 58
2, 224017, Note_on_c, 0, 71, 63
2, 224023, Note_on_c, 0, 67, 57
2, 224032, Note_on_c, 0, 57, 50
2, 224037, Note_on_c, 0, 52, 43
2, 224107, Control_c, 0, 64, 127
2, 224225, Note_on_c, 0, 52, 0
2, 224265, Note_on_c, 0, 62, 0
2, 224270, Note_on_c, 0, 71, 0
2, 224271, Note_on_c, 0, 57, 0
2, 224307, Note_on_c, 0, 67, 0
2, 224558, Control_c, 0, 64, 0
2, 224572, Note_on_c, 0, 70, 53
2, 224575, Note_on_c, 0, 66, 45
2, 224578, Note_on_c, 0, 61, 43
2, 224588, Note_on_c, 0, 51, 39
2, 224598, Note_on_c, 0, 56, 46
2, 224676, Control_c, 0, 64, 127
2, 224811, Note_on_c, 0, 61, 0
2, 224844, Note_on_c, 0, 56, 0
2, 224895, Note_on_c, 0, 51, 0
2, 225591, Note_on_c, 0, 70, 0
2, 225669, Note_on_c, 0, 25, 56
2, 225671, Note_on_c, 0, 37, 50
2, 225683, Control_c, 0, 64, 0
2, 225687, Note_on_c, 0, 66, 0
2, 225824, Control_c, 0, 64, 127
2, 226015, Note_on_c, 0, 25, 0
2, 226107, Note_on_c, 0, 37, 0
2, 227227, Control_c, 0, 64, 0
2, 227231, Note_on_c, 0, 68, 52
2, 227242, Note_on_c, 0, 64, 39
2, 227244, Note_on_c, 0, 54, 40
2, 227255, Note_on_c, 0, 59, 36
2, 227265, Note_on_c, 0, 49, 31
2, 227281, Control_c, 0, 64, 127
2, 227471, Note_on_c, 0, 49, 0
2, 227477, Note_on_c, 0, 54, 0
2, 227514, Note_on_c, 0, 59, 0
2, 227604, Note_on_c, 0, 64, 0
2, 227749, Note_on_c, 0, 68, 0
2, 227859, Control_c, 0, 64, 0
2, 227863, Note_on_c, 0, 66, 46
2, 227864, Note_on_c, 0, 70, 45
2, 227877, Note_on_c, 0, 61, 31
2, 227882, Note_on_c, 0, 51, 31
2, 227886, Note_on_c, 0, 56, 43
2, 228075, Note_on_c, 0, 66, 0
2, 228078, Note_on_c, 0, 56, 0
2, 228081, Note_on_c, 0, 70, 0
2, 228082, Note_on_c, 0, 51, 0
2, 228086, Note_on_c, 0, 61, 0
2, 228115, Control_c, 0, 64, 88
2, 228117, Control_c, 0, 64, 127
2, 228409, Note_on_c, 0, 66, 39
2, 228410, Note_on_c, 0, 70, 40
2, 228413, Note_on_c, 0, 56, 44
2, 228414, Note_on_c, 0, 61, 27
2, 228419, Note_on_c, 0, 51, 24
2, 228623, Note_on_c, 0, 51, 0
2, 228625, Note_on_c, 0, 56, 0
2, 228632, Note_on_c, 0, 61, 0
2, 228634, Note_on_c, 0, 66, 0
2, 228637, Note_on_c, 0, 70, 0
2, 228996, Note_on_c, 0, 56, 39
2, 228998, Note_on_c, 0, 61, 28
2, 228999, Note_on_c, 0, 66, 34
2, 229000, Note_on_c, 0, 70, 38
2, 229000, Note_on_c, 0, 51, 25
2, 229191, Note_on_c, 0, 56, 0
2, 229208, Note_on_c, 0, 51, 0
2, 229248, Note_on_c, 0, 61, 0
2, 229267, Note_on_c, 0, 70, 0
2, 229272, Note_on_c, 0, 66, 0
2, 229660, Note_on_c, 0, 61, 31
2, 229661, Note_on_c, 0, 66, 31
2, 229668, Note_on_c, 0, 51, 23
2, 229669, Note_on_c, 0, 70, 37
2, 229679, Note_on_c, 0, 56, 37
2, 229774, Note_on_c, 0, 56, 0
2, 229797, Note_on_c, 0, 61, 0
2, 229845, Note_on_c, 0, 51, 0
2, 231092, Note_on_c, 0, 66, 0
2, 231113, Note_on_c, 0, 70, 0
2, 231190, Note_on_c, 0, 68, 46
2, 231199, Control_c, 0, 64, 0
2, 231202, Note_on_c, 0, 56, 40
2, 231203, Note_on_c, 0, 64, 39
2, 231205, Note_on_c, 0, 25, 55
2, 231325, Control_c, 0, 64, 127
2, 231449, Note_on_c, 0, 64, 0
2, 231500, Note_on_c, 0, 25, 0
2, 231514, Note_on_c, 0, 56, 0
2, 231527, Note_on_c, 0, 68, 0
2, 233250, Note_on_c, 0, 64, 44
2, 233346, Control_c, 0, 64, 127
2, 233470, Note_on_c, 0, 66, 54
2, 233639, Note_on_c, 0, 68, 63
2, 233790, Note_on_c, 0, 71, 51
2, 233915, Note_on_c, 0, 71, 0
2, 233931, Note_on_c, 0, 75, 66
2, 234079, Note_on_c, 0, 78, 68
2, 234088, Note_on_c, 0, 75, 0
2, 234153, Note_on_c, 0, 78, 0
2, 234247, Note_on_c, 0, 83, 48
2, 234377, Note_on_c, 0, 83, 0
2, 234402, Note_on_c, 0, 87, 68
2, 234486, Note_on_c, 0, 87, 0
2, 234566, Note_on_c, 0, 90, 57
2, 234606, Note_on_c, 0, 90, 0
2, 234730, Note_on_c, 0, 95, 57
2, 234916, Note_on_c, 0, 99, 53
2, 235089, Note_on_c, 0, 102, 56
2, 235323, Note_on_c, 0, 107, 41
2, 236061, Note_on_c, 0, 107, 0
2, 236078, Note_on_c, 0, 95, 0
2, 236083, Note_on_c, 0, 102, 0
2, 236097, Note_on_c, 0, 99, 0
2, 236324, Note_on_c, 0, 68, 0
2, 236340, Note_on_c, 0, 64, 0
2, 236375, Note_on_c, 0, 66, 0
2, 238139, Control_c, 0, 64, 56
2, 238142, Control_c, 0, 64, 0
2, 238142, End_track
3, 0, Start_track
3, 0, Title_t, "Fretless Bass"
3, 0, Program_c, 1, 35
3, 0, Control_c, 1, 7, 83
3, 122907, Note_on_c, 1, 38, 81
3, 124588, Note_on_c, 1, 38, 0
3, 124615, Note_on_c, 1, 45, 60
3, 124709, Note_on_c, 1, 45, 0
3, 124755, Note_on_c, 1, 44, 70
3, 124917, Note_on_c, 1, 44, 0
3, 124954, Note_on_c, 1, 43, 70
3, 125229, Note_on_c, 1, 43, 0
3, 125258, Note_on_c, 1, 38, 60
3, 125415, Note_on_c, 1, 38, 0
3, 125445, Note_on_c, 1, 31, 66
3, 126786, Note_on_c, 1, 37, 67
3, 126812, Note_on_c, 1, 31, 0
3, 128522, Note_on_c, 1, 49, 65
3, 128604, Note_on_c, 1, 49, 0
3, 128726, Note_on_c, 1, 37, 0
3, 128730, Note_on_c, 1, 42, 62
3, 130535, Note_on_c, 1, 42, 0
3, 130557, Note_on_c, 1, 32, 53
3, 130686, Note_on_c, 1, 32, 0
3, 131040, Note_on_c, 1, 32, 52
3, 132497, Note_on_c, 1, 37, 67
3, 132504, Note_on_c, 1, 32, 0
3, 133765, Note_on_c, 1, 38, 62
3, 133766, Note_on_c, 1, 37, 0
3, 133932, Note_on_c, 1, 38, 0
3, 133953, Note_on_c, 1, 37, 62
3, 134037, Note_on_c, 1, 37, 0
3, 134262, Note_on_c, 1, 33, 64
3, 134440, Note_on_c, 1, 33, 0
3, 134453, Note_on_c, 1, 34, 60
3, 135345, Note_on_c, 1, 46, 94
3, 135381, Note_on_c, 1, 34, 0
3, 136819, Note_on_c, 1, 51, 65
3, 136826, Note_on_c, 1, 46, 0
3, 137676, Note_on_c, 1, 39, 53
3, 137746, Note_on_c, 1, 39, 0
3, 137823, Note_on_c, 1, 51, 0
3, 137853, Note_on_c, 1, 37, 62
3, 138310, Note_on_c, 1, 37, 0
3, 138323, Note_on_c, 1, 38, 64
3, 140140, Note_on_c, 1, 43, 68
3, 140159, Note_on_c, 1, 38, 0
3, 141868, Note_on_c, 1, 38, 67
3, 141876, Note_on_c, 1, 43, 0
3, 142048, Note_on_c, 1, 38, 0
3, 142066, Note_on_c, 1, 37, 64
3, 143794, Note_on_c, 1, 49, 67
3, 143815, Note_on_c, 1, 37, 0
3, 143853, Note_on_c, 1, 49, 0
3, 143972, Note_on_c, 1, 42, 64
3, 145299, Note_on_c, 1, 42, 0
3, 145299, Note_on_c, 1, 37, 53
3, 145412, Note_on_c, 1, 37, 0
3, 145493, Note_on_c, 1, 33, 53
3, 145959, Note_on_c, 1, 33, 0
3, 145974, Note_on_c, 1, 32, 61
3, 147875, Note_on_c, 1, 49, 61
3, 147950, Note_on_c, 1, 49, 0
3, 148341, Note_on_c, 1, 49, 66
3, 149130, Note_on_c, 1, 32, 0
3, 149351, Note_on_c, 1, 37, 67
3, 149776, Note_on_c, 1, 37, 0
3, 149794, Note_on_c, 1, 34, 73
3, 149809, Note_on_c, 1, 49, 0
3, 150757, Note_on_c, 1, 46, 93
3, 150937, Note_on_c, 1, 34, 0
3, 151724, Note_on_c, 1, 39, 80
3, 151729, Note_on_c, 1, 46, 0
3, 152648, Note_on_c, 1, 39, 0
3, 152708, Note_on_c, 1, 39, 82
3, 153467, Note_on_c, 1, 39, 0
3, 153519, Note_on_c, 1, 39, 89
3, 153698, Note_on_c, 1, 39, 0
3, 153705, Note_on_c, 1, 40, 88
3, 154464, Note_on_c, 1, 35, 62
3, 154578, Note_on_c, 1, 40, 0
3, 154614, Note_on_c, 1, 35, 0
3, 154633, Note_on_c, 1, 28, 91
3, 155962, Note_on_c, 1, 28, 0
3, 156004, Note_on_c, 1, 39, 88
3, 157402, Note_on_c, 1, 39, 0
3, 157409, Note_on_c, 1, 37, 86
3, 158404, Note_on_c, 1, 30, 88
3, 158435, Note_on_c, 1, 37, 0
3, 160168, Note_on_c, 1, 35, 77
3, 160190, Note_on_c, 1, 30, 0
3, 160355, Note_on_c, 1, 47, 87
3, 160363, Note_on_c, 1, 35, 0
3, 160385, Note_on_c, 1, 48, 43
3, 160422, Note_on_c, 1, 48, 0
3, 160642, Note_on_c, 1, 46, 56
3, 160648, Note_on_c, 1, 47, 0
3, 160690, Note_on_c, 1, 35, 28
3, 160752, Note_on_c, 1, 35, 0
3, 160755, Note_on_c, 1, 46, 0
3, 160815, Note_on_c, 1, 47, 61
3, 161244, Note_on_c, 1, 47, 0
3, 161275, Note_on_c, 1, 45, 69
3, 161959, Note_on_c, 1, 40, 70
3, 161987, Note_on_c, 1, 40, 0
3, 162098, Note_on_c, 1, 45, 0
3, 162098, Note_on_c, 1, 40, 70
3, 162240, Note_on_c, 1, 40, 0
3, 162280, Note_on_c, 1, 33, 74
3, 163277, Note_on_c, 1, 33, 0
3, 163281, Note_on_c, 1, 45, 78
3, 163953, Note_on_c, 1, 38, 53
3, 163982, Note_on_c, 1, 38, 0
3, 163995, Note_on_c, 1, 45, 0
3, 164062, Note_on_c, 1, 38, 60
3, 164183, Note_on_c, 1, 38, 0
3, 164223, Note_on_c, 1, 33, 78
3, 165010, Note_on_c, 1, 38, 54
3, 165051, Note_on_c, 1, 38, 0
3, 165128, Note_on_c, 1, 33, 0
3, 165159, Note_on_c, 1, 45, 89
3, 166100, Note_on_c, 1, 33, 85
3, 166101, Note_on_c, 1, 45, 0
3, 166395, Note_on_c, 1, 33, 0
3, 166436, Note_on_c, 1, 33, 86
3, 167026, Note_on_c, 1, 44, 94
3, 167043, Note_on_c, 1, 33, 0
3, 168785, Note_on_c, 1, 32, 56
3, 168804, Note_on_c, 1, 44, 0
3, 168960, Note_on_c, 1, 38, 64
3, 168961, Note_on_c, 1, 32, 0
3, 170719, Note_on_c, 1, 32, 49
3, 170729, Note_on_c, 1, 38, 0
3, 170875, Note_on_c, 1, 32, 0
3, 170882, Note_on_c, 1, 31, 64
3, 173313, Note_on_c, 1, 37, 61
3, 173322, Note_on_c, 1, 31, 0
3, 173801, Note_on_c, 1, 49, 63
3, 174714, Note_on_c, 1, 49, 0
3, 174735, Note_on_c, 1, 37, 0
3, 174743, Note_on_c, 1, 42, 54
3, 176215, Note_on_c, 1, 42, 0
3, 176228, Note_on_c, 1, 37, 60
3, 176723, Note_on_c, 1, 37, 0
3, 176724, Note_on_c, 1, 32, 67
3, 178585, Note_on_c, 1, 37, 85
3, 178632, Note_on_c, 1, 32, 0
3, 180550, Note_on_c, 1, 44, 98
3, 180609, Note_on_c, 1, 37, 0
3, 182220, Note_on_c, 1, 36, 53
3, 182303, Note_on_c, 1, 44, 0
3, 182362, Note_on_c, 1, 36, 0
3, 182387, Note_on_c, 1, 37, 70
3, 184261, Note_on_c, 1, 37, 0
3, 184424, Note_on_c, 1, 38, 72
3, 186752, Note_on_c, 1, 38, 0
3, 186752, End_track
4, 0, Start_track
4, 0, Title_t, "Drums"
4, 0, Program_c, 9, 32
4, 0, Control_c, 9, 7, 91
4, 122880, Note_on_c, 9, 51, 65
4, 122898, Note_on_c, 9, 49, 12
4, 123057, Note_on_c, 9, 49, 0
4, 123777, Note_on_c, 9, 51, 0
4, 123895, Note_on_c, 9, 51, 60
4, 124644, Note_on_c, 9, 51, 0
4, 124711, Note_on_c, 9, 51, 57
4, 124765, Note_on_c, 9, 51, 0
4, 124860, Note_on_c, 9, 51, 46
4, 125765, Note_on_c, 9, 51, 0
4, 125827, Note_on_c, 9, 51, 67
4, 126554, Note_on_c, 9, 51, 0
4, 126628, Note_on_c, 9, 51, 49
4, 126664, Note_on_c, 9, 51, 0
4, 126789, Note_on_c, 9, 51, 59
4, 127659, Note_on_c, 9, 51, 0
4, 127768, Note_on_c, 9, 51, 48
4, 128194, Note_on_c, 9, 44, 59
4, 128222, Note_on_c, 9, 51, 0
4, 128302, Note_on_c, 9, 44, 0
4, 128684, Note_on_c, 9, 51, 47
4, 129385, Note_on_c, 9, 51, 0
4, 129466, Note_on_c, 9, 51, 46
4, 129541, Note_on_c, 9, 51, 0
4, 129635, Note_on_c, 9, 51, 49
4, 130432, Note_on_c, 9, 51, 0
4, 130879, Note_on_c, 9, 51, 45
4, 130913, Note_on_c, 9, 51, 0
4, 131069, Note_on_c, 9, 51, 52
4, 131745, Note_on_c, 9, 51, 0
4, 131896, Note_on_c, 9, 51, 39
4, 131932, Note_on_c, 9, 51, 0
4, 132029, Note_on_c, 9, 44, 49
4, 132150, Note_on_c, 9, 44, 0
4, 132262, Note_on_c, 9, 51, 36
4, 132300, Note_on_c, 9, 51, 0
4, 132419, Note_on_c, 9, 51, 57
4, 132453, Note_on_c, 9, 51, 0
4, 132573, Note_on_c, 9, 51, 81
4, 132888, Note_on_c, 9, 51, 0
4, 133064, Note_on_c, 9, 51, 35
4, 133107, Note_on_c, 9, 51, 0
4, 133233, Note_on_c, 9, 51, 46
4, 133260, Note_on_c, 9, 51, 0
4, 133374, Note_on_c, 9, 51, 71
4, 133653, Note_on_c, 9, 51, 0
4, 133732, Note_on_c, 9, 51, 43
4, 133765, Note_on_c, 9, 51, 0
4, 133858, Note_on_c, 9, 51, 48
4, 133898, Note_on_c, 9, 51, 0
4, 134040, Note_on_c, 9, 51, 48
4, 134728, Note_on_c, 9, 51, 0
4, 135321, Note_on_c, 9, 51, 48
4, 135357, Note_on_c, 9, 51, 0
4, 135792, Note_on_c, 9, 51, 71
4, 136978, Note_on_c, 9, 51, 0
4, 137158, Note_on_c, 9, 51, 41
4, 137242, Note_on_c, 9, 51, 0
4, 137321, Note_on_c, 9, 51, 53
4, 137765, Note_on_c, 9, 46, 50
4, 137831, Note_on_c, 9, 59, 57
4, 137876, Note_on_c, 9, 46, 0
4, 138118, Note_on_c, 9, 51, 0
4, 138293, Note_on_c, 9, 59, 0
4, 138329, Note_on_c, 9, 51, 50
4, 138439, Note_on_c, 9, 51, 0
4, 138790, Note_on_c, 9, 51, 49
4, 139690, Note_on_c, 9, 44, 55
4, 139733, Note_on_c, 9, 44, 0
4, 139834, Note_on_c, 9, 51, 0
4, 139985, Note_on_c, 9, 51, 39
4, 140045, Note_on_c, 9, 51, 0
4, 140177, Note_on_c, 9, 51, 51
4, 140901, Note_on_c, 9, 53, 40
4, 140933, Note_on_c, 9, 53, 0
4, 141098, Note_on_c, 9, 53, 24
4, 141114, Note_on_c, 9, 51, 0
4, 141215, Note_on_c, 9, 53, 0
4, 141380, Note_on_c, 9, 51, 52
4, 141455, Note_on_c, 9, 51, 0
4, 141590, Note_on_c, 9, 51, 33
4, 141659, Note_on_c, 9, 51, 0
4, 141879, Note_on_c, 9, 51, 57
4, 141959, Note_on_c, 9, 51, 0
4, 142062, Note_on_c, 9, 51, 62
4, 142995, Note_on_c, 9, 51, 0
4, 143207, Note_on_c, 9, 51, 51
4, 143238, Note_on_c, 9, 51, 0
4, 143367, Note_on_c, 9, 51, 52
4, 143397, Note_on_c, 9, 51, 0
4, 143533, Note_on_c, 9, 51, 68
4, 143846, Note_on_c, 9, 51, 0
4, 144004, Note_on_c, 9, 51, 65
4, 144684, Note_on_c, 9, 51, 0
4, 144830, Note_on_c, 9, 51, 49
4, 144866, Note_on_c, 9, 51, 0
4, 145006, Note_on_c, 9, 51, 49
4, 145438, Note_on_c, 9, 44, 45
4, 145534, Note_on_c, 9, 44, 0
4, 145819, Note_on_c, 9, 51, 0
4, 145950, Note_on_c, 9, 51, 52
4, 145995, Note_on_c, 9, 51, 0
4, 146413, Note_on_c, 9, 51, 49
4, 147343, Note_on_c, 9, 51, 0
4, 147684, Note_on_c, 9, 51, 49
4, 147717, Note_on_c, 9, 51, 0
4, 147850, Note_on_c, 9, 51, 57
4, 148152, Note_on_c, 9, 51, 0
4, 148183, Note_on_c, 9, 53, 61
4, 148287, Note_on_c, 9, 53, 0
4, 148360, Note_on_c, 9, 51, 45
4, 149306, Note_on_c, 9, 44, 39
4, 149354, Note_on_c, 9, 51, 0
4, 149406, Note_on_c, 9, 44, 0
4, 149797, Note_on_c, 9, 51, 54
4, 149896, Note_on_c, 9, 51, 0
4, 150283, Note_on_c, 9, 51, 58
4, 151149, Note_on_c, 9, 51, 0
4, 151509, Note_on_c, 9, 51, 50
4, 151547, Note_on_c, 9, 51, 0
4, 151688, Note_on_c, 9, 51, 55
4, 151726, Note_on_c, 9, 51, 0
4, 152006, Note_on_c, 9, 53, 57
4, 152101, Note_on_c, 9, 53, 0
4, 152209, Note_on_c, 9, 51, 39
4, 152356, Note_on_c, 9, 51, 0
4, 152678, Note_on_c, 9, 51, 49
4, 153339, Note_on_c, 9, 51, 0
4, 153448, Note_on_c, 9, 51, 41
4, 153500, Note_on_c, 9, 51, 0
4, 153639, Note_on_c, 9, 51, 78
4, 154309, Note_on_c, 9, 51, 0
4, 154467, Note_on_c, 9, 51, 48
4, 154509, Note_on_c, 9, 51, 0
4, 154642, Note_on_c, 9, 51, 50
4, 155114, Note_on_c, 9, 44, 41
4, 155188, Note_on_c, 9, 51, 0
4, 155247, Note_on_c, 9, 44, 0
4, 155622, Note_on_c, 9, 51, 78
4, 156641, Note_on_c, 9, 51, 0
4, 156807, Note_on_c, 9, 51, 45
4, 156897, Note_on_c, 9, 51, 0
4, 157002, Note_on_c, 9, 51, 46
4, 157175, Note_on_c, 9, 51, 0
4, 157910, Note_on_c, 9, 44, 43
4, 157953, Note_on_c, 9, 44, 0
4, 158217, Note_on_c, 9, 51, 52
4, 158238, Note_on_c, 9, 53, 49
4, 158324, Note_on_c, 9, 51, 0
4, 158370, Note_on_c, 9, 53, 0
4, 158531, Note_on_c, 9, 53, 54
4, 158623, Note_on_c, 9, 53, 0
4, 158860, Note_on_c, 9, 51, 50
4, 158878, Note_on_c, 9, 53, 57
4, 158973, Note_on_c, 9, 51, 0
4, 159023, Note_on_c, 9, 53, 0
4, 159192, Note_on_c, 9, 53, 59
4, 159280, Note_on_c, 9, 53, 0
4, 159472, Note_on_c, 9, 51, 48
4, 159499, Note_on_c, 9, 53, 50
4, 159583, Note_on_c, 9, 51, 0
4, 159616, Note_on_c, 9, 53, 0
4, 159815, Note_on_c, 9, 53, 54
4, 159959, Note_on_c, 9, 53, 0
4, 160140, Note_on_c, 9, 51, 52
4, 160404, Note_on_c, 9, 51, 0
4, 160561, Note_on_c, 9, 51, 46
4, 160591, Note_on_c, 9, 51, 0
4, 160681, Note_on_c, 9, 51, 45
4, 160782, Note_on_c, 9, 51, 0
4, 160844, Note_on_c, 9, 51, 63
4, 160995, Note_on_c, 9, 51, 0
4, 161157, Note_on_c, 9, 51, 56
4, 161208, Note_on_c, 9, 51, 0
4, 161310, Note_on_c, 9, 51, 61
4, 162086, Note_on_c, 9, 51, 0
4, 162294, Note_on_c, 9, 51, 48
4, 162798, Note_on_c, 9, 44, 63
4, 162827, Note_on_c, 9, 51, 0
4, 162899, Note_on_c, 9, 44, 0
4, 163318, Note_on_c, 9, 51, 45
4, 163592, Note_on_c, 9, 51, 0
4, 164044, Note_on_c, 9, 51, 57
4, 164096, Note_on_c, 9, 51, 0
4, 164210, Note_on_c, 9, 51, 41
4, 164844, Note_on_c, 9, 51, 0
4, 164983, Note_on_c, 9, 51, 39
4, 165031, Note_on_c, 9, 51, 0
4, 165168, Note_on_c, 9, 51, 43
4, 165869, Note_on_c, 9, 51, 0
4, 166091, Note_on_c, 9, 51, 47
4, 166545, Note_on_c, 9, 46, 20
4, 166546, Note_on_c, 9, 51, 0
4, 166678, Note_on_c, 9, 46, 0
4, 167034, Note_on_c, 9, 51, 54
4, 167635, Note_on_c, 9, 51, 0
4, 168745, Note_on_c, 9, 51, 47
4, 168792, Note_on_c, 9, 51, 0
4, 168911, Note_on_c, 9, 51, 48
4, 169443, Note_on_c, 9, 51, 0
4, 169486, Note_on_c, 9, 44, 42
4, 169571, Note_on_c, 9, 44, 0
4, 170847, Note_on_c, 9, 51, 63
4, 170913, Note_on_c, 9, 51, 0
4, 172165, Note_on_c, 9, 51, 47
4, 172196, Note_on_c, 9, 51, 0
4, 172330, Note_on_c, 9, 51, 57
4, 172358, Note_on_c, 9, 51, 0
4, 172787, Note_on_c, 9, 51, 48
4, 172888, Note_on_c, 9, 51, 0
4, 173591, Note_on_c, 9, 51, 45
4, 173631, Note_on_c, 9, 51, 0
4, 173801, Note_on_c, 9, 51, 31
4, 174191, Note_on_c, 9, 51, 0
4, 174272, Note_on_c, 9, 44, 39
4, 174361, Note_on_c, 9, 44, 0
4, 174748, Note_on_c, 9, 51, 48
4, 174849, Note_on_c, 9, 51, 0
4, 176042, Note_on_c, 9, 51, 31
4, 176097, Note_on_c, 9, 51, 0
4, 176232, Note_on_c, 9, 51, 48
4, 176261, Note_on_c, 9, 51, 0
4, 176517, Note_on_c, 9, 51, 72
4, 176808, Note_on_c, 9, 51, 0
4, 176899, Note_on_c, 9, 51, 30
4, 176938, Note_on_c, 9, 51, 0
4, 177019, Note_on_c, 9, 51, 49
4, 177116, Note_on_c, 9, 51, 0
4, 177164, Note_on_c, 9, 44, 45
4, 177186, Note_on_c, 9, 51, 61
4, 177243, Note_on_c, 9, 44, 0
4, 177443, Note_on_c, 9, 51, 0
4, 178887, Note_on_c, 9, 51, 55
4, 178919, Note_on_c, 9, 51, 0
4, 179049, Note_on_c, 9, 59, 42
4, 179222, Note_on_c, 9, 59, 0
4, 179826, Note_on_c, 9, 51, 48
4, 179856, Note_on_c, 9, 51, 0
4, 180010, Note_on_c, 9, 59, 46
4, 180045, Note_on_c, 9, 59, 0
4, 180308, Note_on_c, 9, 59, 63
4, 180389, Note_on_c, 9, 59, 0
4, 180483, Note_on_c, 9, 59, 57
4, 180567, Note_on_c, 9, 59, 0
4, 180833, Note_on_c, 9, 51, 39
4, 180869, Note_on_c, 9, 51, 0
4, 181005, Note_on_c, 9, 51, 39
4, 181039, Note_on_c, 9, 44, 43
4, 181089, Note_on_c, 9, 44, 0
4, 181104, Note_on_c, 9, 51, 0
4, 181531, Note_on_c, 9, 51, 50
4, 181575, Note_on_c, 9, 51, 0
4, 182216, Note_on_c, 9, 51, 40
4, 182253, Note_on_c, 9, 51, 0
4, 182419, Note_on_c, 9, 51, 45
4, 182708, Note_on_c, 9, 51, 0
4, 184490, Note_on_c, 9, 57, 18
4, 184686, Note_on_c, 9, 57, 0
4, 184686, End_track
0, 0, End_of_file
