0, 0, Header, 1, 4, 120
1, 0, Start_track
1, 0, Title_t, "HaveYourselfAMerryMerryXmas"
1, 0, MIDI_port, 0
1, 0, System_exclusive, 5, 126, 127, 9, 1, 247
1, 0, MIDI_port, 0
1, 0, System_exclusive, 8, 67, 115, 1, 17, 15, 89, 3, 247
1, 0, MIDI_port, 0
1, 0, Time_signature, 4, 2, 24, 8
1, 0, Key_signature, 0, "major"
1, 0, Tempo, 500000
1, 480, Marker_t, "Sequenced by Doug McKenzie"
1, 480, End_track
2, 0, Start_track
2, 0, MIDI_port, 0
2, 0, Title_t, "Played in real time"
2, 0, Control_c, 0, 64, 127
2, 480, Note_on_c, 0, 72, 65
2, 480, Note_on_c, 0, 67, 41
2, 486, Note_on_c, 0, 62, 44
2, 486, Note_on_c, 0, 64, 50
2, 595, Note_on_c, 0, 72, 0
2, 606, Note_on_c, 0, 76, 111
2, 678, Note_on_c, 0, 76, 0
2, 690, Note_on_c, 0, 79, 98
2, 713, Note_on_c, 0, 79, 0
2, 783, Note_on_c, 0, 84, 104
2, 815, Note_on_c, 0, 84, 0
2, 817, Note_on_c, 0, 67, 0
2, 827, Note_on_c, 0, 64, 0
2, 843, Note_on_c, 0, 62, 0
2, 866, Note_on_c, 0, 78, 31
2, 883, Note_on_c, 0, 78, 0
2, 907, Note_on_c, 0, 79, 80
2, 911, Note_on_c, 0, 69, 62
2, 911, Note_on_c, 0, 72, 67
2, 916, Note_on_c, 0, 64, 61
2, 970, Note_on_c, 0, 79, 0
2, 981, Note_on_c, 0, 72, 0
2, 984, Note_on_c, 0, 69, 0
2, 1002, Note_on_c, 0, 64, 0
2, 1006, Control_c, 0, 64, 0
2, 1007, Note_on_c, 0, 62, 59
2, 1008, Note_on_c, 0, 77, 59
2, 1010, Note_on_c, 0, 69, 50
2, 1012, Note_on_c, 0, 72, 50
2, 1026, Control_c, 0, 64, 127
2, 1032, Note_off_c, 0, 72, 0
2, 1034, Note_off_c, 0, 77, 0
2, 1043, Note_off_c, 0, 69, 0
2, 1083, Note_off_c, 0, 62, 0
2, 1095, Note_on_c, 0, 76, 61
2, 1098, Note_on_c, 0, 65, 61
2, 1098, Note_on_c, 0, 69, 68
2, 1100, Note_on_c, 0, 60, 47
2, 1110, Control_c, 0, 64, 0
2, 1125, Control_c, 0, 64, 127
2, 1164, Note_off_c, 0, 65, 0
2, 1171, Note_off_c, 0, 76, 0
2, 1183, Note_off_c, 0, 60, 0
2, 1188, Note_on_c, 0, 74, 68
2, 1188, Note_on_c, 0, 59, 58
2, 1193, Note_on_c, 0, 65, 16
2, 1225, Note_on_c, 0, 69, 0
2, 1226, Note_on_c, 0, 65, 0
2, 1259, Note_on_c, 0, 74, 0
2, 1283, Note_on_c, 0, 59, 0
2, 1291, Control_c, 0, 64, 0
2, 1295, Note_on_c, 0, 69, 44
2, 1296, Note_on_c, 0, 65, 29
2, 1296, Note_on_c, 0, 72, 53
2, 1297, Note_on_c, 0, 57, 46
2, 1328, Control_c, 0, 64, 127
2, 1419, Note_off_c, 0, 57, 0
2, 1439, Note_off_c, 0, 65, 0
2, 1449, Note_off_c, 0, 72, 0
2, 1453, Note_off_c, 0, 69, 0
2, 1538, Note_on_c, 0, 53, 75
2, 1557, Note_on_c, 0, 64, 73
2, 1570, Note_on_c, 0, 59, 68
2, 1570, Note_on_c, 0, 68, 68
2, 1585, Note_on_c, 0, 71, 50
2, 1601, Note_on_c, 0, 74, 89
2, 1617, Control_c, 0, 64, 0
2, 1630, Control_c, 0, 64, 127
2, 2110, Note_off_c, 0, 59, 0
2, 2139, Note_off_c, 0, 74, 0
2, 2141, Note_off_c, 0, 53, 0
2, 2177, Note_off_c, 0, 71, 0
2, 2183, Note_off_c, 0, 64, 0
2, 2208, Note_off_c, 0, 68, 0
2, 2293, Note_on_c, 0, 62, 70
2, 2296, Note_on_c, 0, 67, 65
2, 2297, Note_on_c, 0, 72, 55
2, 2298, Note_on_c, 0, 57, 44
2, 2301, Note_on_c, 0, 52, 53
2, 2303, Control_c, 0, 64, 0
2, 2351, Control_c, 0, 64, 127
2, 2374, Note_off_c, 0, 62, 0
2, 2384, Note_off_c, 0, 67, 0
2, 2392, Note_off_c, 0, 72, 0
2, 2502, Note_on_c, 0, 76, 119
2, 2544, Note_on_c, 0, 76, 0
2, 2595, Note_on_c, 0, 79, 127
2, 2606, Note_on_c, 0, 52, 0
2, 2609, Note_on_c, 0, 57, 0
2, 2627, Note_on_c, 0, 79, 0
2, 2681, Note_on_c, 0, 84, 108
2, 2707, Note_on_c, 0, 84, 0
2, 2780, Note_on_c, 0, 69, 86
2, 2781, Note_on_c, 0, 79, 56
2, 2786, Note_on_c, 0, 72, 49
2, 2786, Note_on_c, 0, 64, 61
2, 2787, Note_on_c, 0, 77, 46
2, 2798, Control_c, 0, 64, 0
2, 2840, Control_c, 0, 64, 127
2, 2919, Note_off_c, 0, 64, 0
2, 2928, Note_on_c, 0, 60, 58
2, 2986, Note_on_c, 0, 60, 0
2, 2986, Note_on_c, 0, 72, 0
2, 2986, Note_on_c, 0, 79, 0
2, 2989, Note_on_c, 0, 77, 0
2, 2996, Note_on_c, 0, 69, 0
2, 3058, Note_on_c, 0, 65, 53
2, 3060, Note_on_c, 0, 69, 70
2, 3063, Note_on_c, 0, 53, 37
2, 3065, Note_on_c, 0, 59, 41
2, 3078, Control_c, 0, 64, 0
2, 3087, Control_c, 0, 64, 127
2, 3107, Note_off_c, 0, 59, 0
2, 3119, Note_off_c, 0, 53, 0
2, 3123, Note_off_c, 0, 69, 0
2, 3134, Note_off_c, 0, 65, 0
2, 3246, Note_on_c, 0, 63, 41
2, 3246, Note_on_c, 0, 71, 35
2, 3248, Note_on_c, 0, 59, 41
2, 3250, Note_on_c, 0, 43, 41
2, 3251, Note_on_c, 0, 67, 49
2, 3260, Note_on_c, 0, 53, 13
2, 3268, Control_c, 0, 64, 0
2, 3333, Control_c, 0, 64, 127
2, 3357, Note_off_c, 0, 43, 0
2, 3377, Note_off_c, 0, 53, 0
2, 3416, Note_off_c, 0, 59, 0
2, 3418, Note_off_c, 0, 67, 0
2, 3436, Note_off_c, 0, 71, 0
2, 3446, Note_off_c, 0, 63, 0
2, 3705, Note_on_c, 0, 64, 74
2, 3707, Note_on_c, 0, 62, 61
2, 3710, Note_on_c, 0, 36, 43
2, 3710, Note_on_c, 0, 59, 49
2, 3711, Control_c, 0, 64, 0
2, 3715, Note_on_c, 0, 52, 37
2, 3761, Control_c, 0, 64, 127
2, 3792, Note_off_c, 0, 52, 0
2, 3792, Note_off_c, 0, 59, 0
2, 3792, Note_on_c, 0, 43, 71
2, 3799, Note_on_c, 0, 62, 0
2, 3802, Note_on_c, 0, 64, 0
2, 3885, Note_on_c, 0, 36, 0
2, 3888, Note_on_c, 0, 52, 77
2, 3968, Note_on_c, 0, 43, 0
2, 3977, Note_on_c, 0, 67, 98
2, 3980, Note_on_c, 0, 64, 101
2, 3991, Note_on_c, 0, 52, 0
2, 4005, Note_on_c, 0, 64, 0
2, 4010, Note_on_c, 0, 67, 0
2, 4195, Note_on_c, 0, 64, 99
2, 4196, Note_on_c, 0, 69, 96
2, 4196, Note_on_c, 0, 72, 95
2, 4198, Note_on_c, 0, 59, 81
2, 4211, Control_c, 0, 64, 0
2, 4255, Control_c, 0, 64, 127
2, 4273, Note_on_c, 0, 58, 77
2, 4276, Note_on_c, 0, 59, 0
2, 4278, Note_on_c, 0, 69, 0
2, 4282, Note_on_c, 0, 64, 0
2, 4283, Note_on_c, 0, 72, 0
2, 4360, Note_on_c, 0, 76, 95
2, 4362, Note_on_c, 0, 64, 75
2, 4363, Note_on_c, 0, 69, 80
2, 4365, Note_on_c, 0, 58, 0
2, 4370, Note_on_c, 0, 57, 61
2, 4370, Control_c, 0, 64, 0
2, 4413, Control_c, 0, 64, 127
2, 4570, Note_on_c, 0, 56, 62
2, 4580, Note_on_c, 0, 57, 0
2, 4603, Note_on_c, 0, 56, 0
2, 4615, Note_on_c, 0, 55, 70
2, 4620, Note_on_c, 0, 64, 0
2, 4633, Note_on_c, 0, 69, 0
2, 4650, Note_on_c, 0, 55, 0
2, 4653, Note_on_c, 0, 54, 74
2, 4656, Note_on_c, 0, 76, 0
2, 4690, Control_c, 0, 64, 0
2, 4692, Note_on_c, 0, 65, 62
2, 4693, Note_on_c, 0, 74, 89
2, 4694, Note_on_c, 0, 54, 0
2, 4695, Note_on_c, 0, 69, 74
2, 4701, Note_on_c, 0, 53, 93
2, 4728, Control_c, 0, 64, 127
2, 4767, Note_off_c, 0, 69, 0
2, 4770, Note_off_c, 0, 74, 0
2, 4787, Note_off_c, 0, 65, 0
2, 4944, Note_off_c, 0, 53, 0
2, 5111, Note_on_c, 0, 72, 98
2, 5111, Note_on_c, 0, 69, 101
2, 5111, Note_on_c, 0, 57, 84
2, 5112, Note_on_c, 0, 65, 98
2, 5112, Note_on_c, 0, 62, 98
2, 5123, Control_c, 0, 64, 0
2, 5152, Control_c, 0, 64, 127
2, 5187, Note_off_c, 0, 69, 0
2, 5192, Note_off_c, 0, 72, 0
2, 5194, Note_off_c, 0, 65, 0
2, 5195, Note_off_c, 0, 62, 0
2, 5218, Note_off_c, 0, 57, 0
2, 5231, Note_on_c, 0, 62, 83
2, 5231, Note_on_c, 0, 71, 75
2, 5232, Note_on_c, 0, 65, 87
2, 5237, Control_c, 0, 64, 0
2, 5237, Note_on_c, 0, 55, 73
2, 5271, Control_c, 0, 64, 127
2, 5293, Note_off_c, 0, 62, 0
2, 5295, Note_off_c, 0, 65, 0
2, 5322, Note_off_c, 0, 71, 0
2, 5335, Note_off_c, 0, 55, 0
2, 5340, Note_on_c, 0, 69, 86
2, 5341, Note_on_c, 0, 64, 64
2, 5347, Note_on_c, 0, 53, 52
2, 5351, Note_on_c, 0, 60, 28
2, 5375, Note_on_c, 0, 69, 0
2, 5381, Note_on_c, 0, 64, 0
2, 5394, Note_on_c, 0, 60, 0
2, 5414, Note_on_c, 0, 53, 0
2, 5461, Note_on_c, 0, 59, 62
2, 5463, Note_on_c, 0, 63, 67
2, 5467, Note_on_c, 0, 67, 65
2, 5470, Note_on_c, 0, 53, 53
2, 5470, Control_c, 0, 64, 0
2, 5472, Note_on_c, 0, 43, 49
2, 5476, Note_on_c, 0, 63, 0
2, 5482, Note_on_c, 0, 64, 75
2, 5537, Control_c, 0, 64, 127
2, 5628, Note_off_c, 0, 43, 0
2, 5640, Note_off_c, 0, 53, 0
2, 5648, Note_off_c, 0, 59, 0
2, 5687, Note_off_c, 0, 67, 0
2, 5689, Note_off_c, 0, 64, 0
2, 6120, Note_on_c, 0, 77, 104
2, 6121, Note_on_c, 0, 69, 119
2, 6122, Note_on_c, 0, 65, 117
2, 6123, Note_on_c, 0, 72, 95
2, 6123, Note_on_c, 0, 55, 110
2, 6148, Control_c, 0, 64, 0
2, 6182, Control_c, 0, 64, 127
2, 6405, Note_off_c, 0, 77, 0
2, 6419, Note_off_c, 0, 65, 0
2, 6430, Note_off_c, 0, 72, 0
2, 6432, Note_off_c, 0, 69, 0
2, 6472, Note_on_c, 0, 72, 80
2, 6472, Note_on_c, 0, 76, 71
2, 6475, Note_on_c, 0, 67, 67
2, 6477, Note_on_c, 0, 56, 80
2, 6483, Note_on_c, 0, 55, 0
2, 6483, Control_c, 0, 64, 0
2, 6523, Control_c, 0, 64, 127
2, 6577, Note_on_c, 0, 62, 77
2, 6585, Note_on_c, 0, 67, 0
2, 6663, Note_on_c, 0, 72, 0
2, 6667, Note_on_c, 0, 76, 0
2, 6673, Note_on_c, 0, 67, 80
2, 6755, Note_on_c, 0, 56, 0
2, 6761, Note_on_c, 0, 72, 107
2, 6779, Note_on_c, 0, 62, 0
2, 6836, Note_on_c, 0, 72, 0
2, 6867, Note_on_c, 0, 73, 81
2, 6870, Note_on_c, 0, 70, 78
2, 6873, Note_on_c, 0, 66, 56
2, 6877, Note_on_c, 0, 55, 50
2, 6880, Control_c, 0, 64, 0
2, 6880, Note_on_c, 0, 61, 55
2, 6933, Control_c, 0, 64, 127
2, 6966, Note_off_c, 0, 66, 0
2, 6967, Note_off_c, 0, 73, 0
2, 6973, Note_on_c, 0, 74, 101
2, 7036, Note_on_c, 0, 70, 0
2, 7048, Note_on_c, 0, 67, 0
2, 7054, Note_on_c, 0, 74, 0
2, 7098, Note_on_c, 0, 70, 75
2, 7101, Note_on_c, 0, 75, 65
2, 7103, Note_on_c, 0, 67, 55
2, 7103, Note_on_c, 0, 63, 58
2, 7111, Control_c, 0, 64, 0
2, 7150, Control_c, 0, 64, 127
2, 7186, Note_off_c, 0, 63, 0
2, 7192, Note_off_c, 0, 75, 0
2, 7208, Note_on_c, 0, 64, 49
2, 7211, Note_on_c, 0, 76, 92
2, 7219, Note_on_c, 0, 64, 0
2, 7232, Note_on_c, 0, 55, 0
2, 7236, Note_on_c, 0, 67, 0
2, 7251, Note_on_c, 0, 70, 0
2, 7261, Note_on_c, 0, 76, 0
2, 7263, Note_on_c, 0, 61, 0
2, 7326, Note_on_c, 0, 64, 53
2, 7327, Note_on_c, 0, 71, 67
2, 7328, Note_on_c, 0, 68, 53
2, 7328, Note_on_c, 0, 54, 53
2, 7332, Note_on_c, 0, 60, 56
2, 7340, Control_c, 0, 64, 0
2, 7381, Control_c, 0, 64, 127
2, 7420, Note_on_c, 0, 72, 90
2, 7435, Note_on_c, 0, 71, 0
2, 7488, Note_on_c, 0, 64, 0
2, 7504, Note_on_c, 0, 68, 0
2, 7510, Note_on_c, 0, 72, 0
2, 7526, Note_on_c, 0, 74, 93
2, 7528, Note_on_c, 0, 50, 53
2, 7528, Note_on_c, 0, 64, 67
2, 7530, Note_on_c, 0, 68, 38
2, 7535, Control_c, 0, 64, 0
2, 7553, Control_c, 0, 64, 127
2, 7566, Note_off_c, 0, 74, 0
2, 7611, Note_off_c, 0, 64, 0
2, 7634, Note_off_c, 0, 60, 0
2, 7645, Note_on_c, 0, 75, 80
2, 7656, Note_on_c, 0, 54, 0
2, 7656, Note_on_c, 0, 50, 0
2, 7742, Note_on_c, 0, 68, 0
2, 7742, Note_on_c, 0, 75, 0
2, 7787, Note_on_c, 0, 71, 47
2, 7787, Note_on_c, 0, 65, 53
2, 7788, Note_on_c, 0, 76, 65
2, 7793, Note_on_c, 0, 43, 49
2, 7797, Control_c, 0, 64, 0
2, 7835, Control_c, 0, 64, 127
2, 7852, Note_off_c, 0, 71, 0
2, 7856, Note_off_c, 0, 76, 0
2, 7885, Note_off_c, 0, 65, 0
2, 7902, Note_on_c, 0, 50, 67
2, 7903, Note_on_c, 0, 77, 71
2, 7914, Note_on_c, 0, 43, 0
2, 7929, Note_on_c, 0, 50, 0
2, 7946, Note_on_c, 0, 77, 0
2, 8036, Note_on_c, 0, 79, 59
2, 8040, Note_on_c, 0, 75, 46
2, 8043, Note_on_c, 0, 71, 47
2, 8045, Note_on_c, 0, 67, 43
2, 8046, Note_on_c, 0, 59, 64
2, 8050, Control_c, 0, 64, 0
2, 8050, Note_on_c, 0, 63, 26
2, 8050, Note_on_c, 0, 53, 35
2, 8058, Control_c, 0, 64, 127
2, 8109, Note_off_c, 0, 71, 0
2, 8113, Note_off_c, 0, 67, 0
2, 8122, Note_off_c, 0, 79, 0
2, 8122, Note_off_c, 0, 75, 0
2, 8133, Note_off_c, 0, 63, 0
2, 8471, Note_on_c, 0, 103, 64
2, 8473, Note_on_c, 0, 91, 41
2, 8512, Note_on_c, 0, 103, 0
2, 8536, Note_on_c, 0, 91, 0
2, 8627, Note_on_c, 0, 59, 0
2, 8628, Note_on_c, 0, 53, 0
2, 8876, Note_on_c, 0, 62, 62
2, 8877, Note_on_c, 0, 72, 71
2, 8880, Note_on_c, 0, 43, 38
2, 8880, Note_on_c, 0, 36, 44
2, 8882, Note_on_c, 0, 67, 56
2, 8885, Note_on_c, 0, 52, 58
2, 8888, Control_c, 0, 64, 0
2, 8935, Control_c, 0, 64, 127
2, 8993, Note_off_c, 0, 36, 0
2, 8998, Note_off_c, 0, 62, 0
2, 9002, Note_off_c, 0, 43, 0
2, 9026, Note_off_c, 0, 52, 0
2, 9028, Note_off_c, 0, 67, 0
2, 9084, Note_off_c, 0, 72, 0
2, 9186, Note_on_c, 0, 76, 111
2, 9226, Note_on_c, 0, 76, 0
2, 9290, Note_on_c, 0, 64, 53
2, 9296, Note_on_c, 0, 60, 55
2, 9296, Note_on_c, 0, 79, 125
2, 9297, Note_on_c, 0, 59, 55
2, 9372, Note_on_c, 0, 79, 0
2, 9401, Note_on_c, 0, 84, 120
2, 9431, Note_on_c, 0, 84, 0
2, 9446, Note_on_c, 0, 64, 0
2, 9446, Note_on_c, 0, 60, 0
2, 9452, Note_on_c, 0, 59, 0
2, 9603, Note_on_c, 0, 79, 90
2, 9606, Note_on_c, 0, 72, 80
2, 9608, Note_on_c, 0, 69, 68
2, 9611, Note_on_c, 0, 64, 68
2, 9622, Control_c, 0, 64, 0
2, 9665, Note_off_c, 0, 79, 0
2, 9667, Note_off_c, 0, 64, 0
2, 9668, Note_on_c, 0, 63, 70
2, 9673, Note_on_c, 0, 72, 0
2, 9673, Control_c, 0, 64, 127
2, 9675, Note_off_c, 0, 69, 0
2, 9699, Note_off_c, 0, 63, 0
2, 9705, Control_c, 0, 64, 0
2, 9713, Note_on_c, 0, 62, 67
2, 9725, Note_on_c, 0, 77, 81
2, 9726, Note_on_c, 0, 69, 62
2, 9727, Note_on_c, 0, 72, 78
2, 9762, Control_c, 0, 64, 127
2, 9775, Note_off_c, 0, 72, 0
2, 9777, Note_off_c, 0, 77, 0
2, 9782, Note_off_c, 0, 69, 0
2, 9808, Note_on_c, 0, 76, 86
2, 9811, Control_c, 0, 64, 0
2, 9814, Note_off_c, 0, 62, 0
2, 9816, Note_on_c, 0, 69, 71
2, 9821, Note_on_c, 0, 65, 43
2, 9822, Note_on_c, 0, 61, 55
2, 9845, Control_c, 0, 64, 127
2, 9879, Note_off_c, 0, 65, 0
2, 9879, Note_off_c, 0, 69, 0
2, 9891, Note_off_c, 0, 76, 0
2, 9904, Note_off_c, 0, 61, 0
2, 9907, Control_c, 0, 64, 0
2, 9908, Note_on_c, 0, 74, 68
2, 9910, Note_on_c, 0, 60, 59
2, 9911, Note_on_c, 0, 65, 37
2, 9912, Note_on_c, 0, 69, 56
2, 9942, Control_c, 0, 64, 127
2, 9964, Note_off_c, 0, 74, 0
2, 9965, Note_off_c, 0, 69, 0
2, 9978, Note_off_c, 0, 65, 0
2, 10032, Note_off_c, 0, 60, 0
2, 10038, Note_on_c, 0, 72, 50
2, 10041, Note_on_c, 0, 62, 37
2, 10041, Note_on_c, 0, 65, 49
2, 10042, Note_on_c, 0, 69, 59
2, 10047, Note_on_c, 0, 59, 35
2, 10051, Control_c, 0, 64, 0
2, 10098, Control_c, 0, 64, 127
2, 10203, Note_on_c, 0, 58, 74
2, 10208, Note_on_c, 0, 59, 0
2, 10218, Note_on_c, 0, 62, 0
2, 10222, Control_c, 0, 64, 0
2, 10225, Note_off_c, 0, 69, 0
2, 10226, Note_off_c, 0, 65, 0
2, 10241, Note_off_c, 0, 72, 0
2, 10244, Note_off_c, 0, 58, 0
2, 10253, Note_on_c, 0, 57, 70
2, 10262, Control_c, 0, 64, 127
2, 10289, Note_off_c, 0, 57, 0
2, 10296, Control_c, 0, 64, 0
2, 10298, Note_on_c, 0, 56, 50
2, 10312, Note_on_c, 0, 68, 68
2, 10313, Note_on_c, 0, 74, 73
2, 10315, Note_on_c, 0, 71, 67
2, 10405, Control_c, 0, 64, 127
2, 10435, Note_off_c, 0, 56, 0
2, 10476, Note_off_c, 0, 71, 0
2, 10480, Note_off_c, 0, 74, 0
2, 10482, Note_off_c, 0, 68, 0
2, 10632, Note_on_c, 0, 56, 65
2, 10635, Note_on_c, 0, 62, 78
2, 10638, Note_on_c, 0, 59, 74
2, 10640, Note_on_c, 0, 44, 50
2, 10647, Control_c, 0, 64, 0
2, 10672, Control_c, 0, 64, 127
2, 10686, Note_off_c, 0, 44, 0
2, 10694, Note_off_c, 0, 59, 0
2, 10723, Note_off_c, 0, 56, 0
2, 10742, Note_off_c, 0, 62, 0
2, 10788, Note_on_c, 0, 55, 65
2, 10788, Note_on_c, 0, 60, 75
2, 10793, Note_on_c, 0, 52, 50
2, 10797, Control_c, 0, 64, 0
2, 10797, Note_on_c, 0, 43, 44
2, 10845, Control_c, 0, 64, 127
2, 10876, Note_off_c, 0, 55, 0
2, 10888, Note_off_c, 0, 43, 0
2, 10900, Note_off_c, 0, 52, 0
2, 10901, Note_off_c, 0, 60, 0
2, 10983, Note_on_c, 0, 64, 114
2, 11031, Note_on_c, 0, 64, 0
2, 11057, Note_on_c, 0, 67, 127
2, 11090, Note_on_c, 0, 67, 0
2, 11127, Note_on_c, 0, 72, 114
2, 11149, Note_on_c, 0, 72, 0
2, 11221, Note_on_c, 0, 67, 95
2, 11222, Note_on_c, 0, 65, 89
2, 11223, Note_on_c, 0, 60, 68
2, 11237, Control_c, 0, 64, 0
2, 11287, Control_c, 0, 64, 127
2, 11351, Note_on_c, 0, 50, 80
2, 11392, Note_on_c, 0, 67, 0
2, 11397, Note_on_c, 0, 65, 0
2, 11401, Note_on_c, 0, 60, 0
2, 11406, Note_on_c, 0, 50, 0
2, 11477, Note_on_c, 0, 63, 71
2, 11481, Note_on_c, 0, 59, 70
2, 11483, Note_on_c, 0, 53, 43
2, 11486, Note_on_c, 0, 43, 37
2, 11492, Control_c, 0, 64, 0
2, 11531, Control_c, 0, 64, 127
2, 11588, Note_off_c, 0, 53, 0
2, 11609, Note_off_c, 0, 59, 0
2, 11622, Note_off_c, 0, 63, 0
2, 11643, Note_on_c, 0, 59, 49
2, 11646, Note_on_c, 0, 62, 80
2, 11651, Note_on_c, 0, 53, 35
2, 11651, Control_c, 0, 64, 0
2, 11685, Control_c, 0, 64, 127
2, 11714, Note_off_c, 0, 53, 0
2, 11714, Note_off_c, 0, 43, 0
2, 11732, Note_off_c, 0, 62, 0
2, 11744, Note_off_c, 0, 59, 0
2, 11851, Note_on_c, 0, 64, 101
2, 11853, Control_c, 0, 64, 0
2, 11853, Note_on_c, 0, 57, 73
2, 11853, Note_on_c, 0, 59, 84
2, 11857, Note_on_c, 0, 36, 53
2, 11868, Note_on_c, 0, 52, 46
2, 11896, Control_c, 0, 64, 127
2, 11928, Note_off_c, 0, 57, 0
2, 11933, Note_off_c, 0, 64, 0
2, 11933, Note_off_c, 0, 59, 0
2, 11934, Note_off_c, 0, 52, 0
2, 11950, Note_on_c, 0, 67, 117
2, 11950, Note_on_c, 0, 43, 70
2, 11980, Note_on_c, 0, 67, 0
2, 12047, Note_on_c, 0, 72, 101
2, 12050, Note_on_c, 0, 67, 101
2, 12050, Note_on_c, 0, 60, 90
2, 12052, Control_c, 0, 64, 0
2, 12058, Note_on_c, 0, 52, 52
2, 12072, Control_c, 0, 64, 127
2, 12087, Note_off_c, 0, 60, 0
2, 12099, Note_off_c, 0, 72, 0
2, 12103, Note_off_c, 0, 67, 0
2, 12115, Note_off_c, 0, 36, 0
2, 12155, Note_off_c, 0, 43, 0
2, 12161, Note_on_c, 0, 76, 122
2, 12171, Note_on_c, 0, 52, 0
2, 12227, Note_on_c, 0, 76, 0
2, 12431, Note_on_c, 0, 74, 122
2, 12433, Note_on_c, 0, 65, 104
2, 12436, Note_on_c, 0, 69, 105
2, 12442, Control_c, 0, 64, 0
2, 12443, Note_on_c, 0, 60, 62
2, 12468, Control_c, 0, 64, 127
2, 12506, Note_off_c, 0, 69, 0
2, 12513, Note_off_c, 0, 74, 0
2, 12518, Note_off_c, 0, 65, 0
2, 12554, Note_off_c, 0, 60, 0
2, 12572, Note_on_c, 0, 72, 92
2, 12575, Note_on_c, 0, 65, 95
2, 12577, Note_on_c, 0, 62, 78
2, 12580, Note_on_c, 0, 59, 56
2, 12585, Control_c, 0, 64, 0
2, 12618, Control_c, 0, 64, 127
2, 12645, Note_off_c, 0, 72, 0
2, 12653, Note_off_c, 0, 65, 0
2, 12654, Note_off_c, 0, 62, 0
2, 12701, Note_off_c, 0, 59, 0
2, 12708, Note_on_c, 0, 71, 95
2, 12712, Note_on_c, 0, 65, 90
2, 12713, Note_on_c, 0, 62, 73
2, 12763, Note_on_c, 0, 62, 0
2, 12768, Note_on_c, 0, 71, 0
2, 12780, Note_on_c, 0, 69, 101
2, 12793, Note_on_c, 0, 65, 0
2, 12837, Note_on_c, 0, 69, 0
2, 12858, Note_on_c, 0, 68, 78
2, 12862, Note_on_c, 0, 52, 70
2, 12863, Control_c, 0, 64, 0
2, 12863, Note_on_c, 0, 62, 49
2, 12865, Note_on_c, 0, 64, 70
2, 12897, Control_c, 0, 64, 127
2, 12925, Note_off_c, 0, 62, 0
2, 12926, Note_off_c, 0, 64, 0
2, 12939, Note_off_c, 0, 68, 0
2, 12967, Note_on_c, 0, 68, 52
2, 12968, Note_on_c, 0, 71, 71
2, 12970, Control_c, 0, 64, 0
2, 12971, Note_on_c, 0, 56, 50
2, 12972, Note_on_c, 0, 64, 53
2, 12984, Note_on_c, 0, 52, 0
2, 12991, Control_c, 0, 64, 127
2, 12992, Note_off_c, 0, 64, 0
2, 13005, Note_off_c, 0, 71, 0
2, 13007, Note_off_c, 0, 68, 0
2, 13073, Note_on_c, 0, 72, 89
2, 13078, Note_on_c, 0, 56, 0
2, 13080, Control_c, 0, 64, 0
2, 13081, Note_on_c, 0, 67, 59
2, 13082, Note_on_c, 0, 60, 52
2, 13083, Note_on_c, 0, 57, 53
2, 13126, Control_c, 0, 64, 127
2, 13190, Note_on_c, 0, 45, 52
2, 13206, Note_on_c, 0, 67, 0
2, 13211, Note_on_c, 0, 57, 0
2, 13229, Note_on_c, 0, 60, 0
2, 13295, Note_on_c, 0, 60, 80
2, 13295, Note_on_c, 0, 68, 70
2, 13298, Note_on_c, 0, 56, 55
2, 13308, Control_c, 0, 64, 0
2, 13335, Control_c, 0, 64, 127
2, 13375, Note_off_c, 0, 56, 0
2, 13377, Note_off_c, 0, 60, 0
2, 13391, Note_off_c, 0, 68, 0
2, 13396, Note_off_c, 0, 72, 0
2, 13416, Note_on_c, 0, 60, 44
2, 13418, Note_on_c, 0, 55, 53
2, 13454, Note_on_c, 0, 60, 0
2, 13468, Note_on_c, 0, 55, 0
2, 13477, Note_on_c, 0, 45, 0
2, 13540, Note_on_c, 0, 58, 46
2, 13541, Note_on_c, 0, 65, 80
2, 13541, Note_on_c, 0, 43, 52
2, 13545, Note_on_c, 0, 62, 65
2, 13547, Note_on_c, 0, 53, 32
2, 13550, Control_c, 0, 64, 0
2, 13595, Control_c, 0, 64, 127
2, 13613, Note_off_c, 0, 43, 0
2, 13616, Note_off_c, 0, 62, 0
2, 13635, Note_off_c, 0, 53, 0
2, 13688, Note_on_c, 0, 62, 70
2, 13718, Note_on_c, 0, 65, 0
2, 13734, Note_on_c, 0, 62, 0
2, 13765, Note_on_c, 0, 58, 0
2, 13862, Control_c, 0, 64, 0
2, 13862, Note_on_c, 0, 63, 53
2, 13863, Note_on_c, 0, 55, 50
2, 13865, Note_on_c, 0, 36, 35
2, 13865, Note_on_c, 0, 58, 44
2, 13871, Note_on_c, 0, 61, 38
2, 13917, Control_c, 0, 64, 127
2, 13963, Note_off_c, 0, 55, 0
2, 13973, Note_off_c, 0, 58, 0
2, 13984, Note_off_c, 0, 63, 0
2, 14014, Note_off_c, 0, 61, 0
2, 14091, Control_c, 0, 64, 0
2, 14095, Note_on_c, 0, 64, 53
2, 14100, Note_on_c, 0, 58, 40
2, 14100, Note_on_c, 0, 61, 43
2, 14101, Note_on_c, 0, 55, 32
2, 14105, Note_on_c, 0, 48, 41
2, 14138, Control_c, 0, 64, 127
2, 14200, Note_off_c, 0, 36, 0
2, 14212, Note_off_c, 0, 55, 0
2, 14217, Note_off_c, 0, 48, 0
2, 14241, Note_off_c, 0, 58, 0
2, 14256, Note_off_c, 0, 64, 0
2, 14268, Note_off_c, 0, 61, 0
2, 14520, Note_on_c, 0, 72, 105
2, 14521, Control_c, 0, 64, 0
2, 14521, Note_on_c, 0, 69, 99
2, 14522, Note_on_c, 0, 67, 101
2, 14525, Note_on_c, 0, 57, 44
2, 14526, Note_on_c, 0, 41, 29
2, 14560, Control_c, 0, 64, 127
2, 14593, Note_off_c, 0, 41, 0
2, 14622, Note_off_c, 0, 67, 0
2, 14622, Note_off_c, 0, 72, 0
2, 14623, Note_off_c, 0, 57, 0
2, 14626, Note_off_c, 0, 69, 0
2, 14695, Note_on_c, 0, 76, 127
2, 14746, Note_on_c, 0, 76, 0
2, 14792, Note_on_c, 0, 76, 119
2, 14798, Note_on_c, 0, 72, 89
2, 14802, Note_on_c, 0, 69, 104
2, 14805, Note_on_c, 0, 67, 105
2, 14807, Note_on_c, 0, 64, 78
2, 14930, Note_on_c, 0, 76, 0
2, 14937, Note_on_c, 0, 64, 0
2, 14960, Note_on_c, 0, 76, 80
2, 14967, Note_on_c, 0, 67, 0
2, 14972, Note_on_c, 0, 69, 0
2, 14984, Note_on_c, 0, 72, 0
2, 15003, Note_on_c, 0, 76, 0
2, 15062, Note_on_c, 0, 76, 71
2, 15066, Note_on_c, 0, 68, 55
2, 15067, Note_on_c, 0, 72, 55
2, 15067, Note_on_c, 0, 65, 47
2, 15068, Note_on_c, 0, 56, 37
2, 15070, Note_on_c, 0, 62, 28
2, 15082, Control_c, 0, 64, 0
2, 15127, Control_c, 0, 64, 127
2, 15225, Note_off_c, 0, 62, 0
2, 15270, Note_off_c, 0, 56, 0
2, 15331, Note_on_c, 0, 53, 47
2, 15332, Note_on_c, 0, 62, 35
2, 15357, Note_on_c, 0, 62, 0
2, 15368, Note_on_c, 0, 53, 0
2, 15414, Note_on_c, 0, 72, 0
2, 15418, Note_on_c, 0, 76, 0
2, 15495, Note_on_c, 0, 65, 0
2, 15518, Note_on_c, 0, 68, 0
2, 15520, Note_on_c, 0, 74, 89
2, 15570, Note_on_c, 0, 72, 81
2, 15608, Note_on_c, 0, 74, 0
2, 15621, Note_on_c, 0, 72, 0
2, 15623, Note_on_c, 0, 40, 61
2, 15626, Control_c, 0, 64, 0
2, 15627, Note_on_c, 0, 71, 75
2, 15641, Note_on_c, 0, 55, 29
2, 15662, Control_c, 0, 64, 127
2, 15682, Note_on_c, 0, 72, 89
2, 15683, Note_on_c, 0, 40, 0
2, 15699, Note_on_c, 0, 71, 0
2, 15711, Note_on_c, 0, 55, 0
2, 15725, Note_on_c, 0, 72, 0
2, 15740, Note_on_c, 0, 74, 93
2, 15850, Note_on_c, 0, 74, 0
2, 15868, Note_on_c, 0, 62, 44
2, 15880, Note_on_c, 0, 55, 44
2, 15886, Note_on_c, 0, 52, 26
2, 15911, Note_on_c, 0, 62, 0
2, 15917, Note_on_c, 0, 55, 0
2, 15928, Note_on_c, 0, 52, 0
2, 16126, Note_on_c, 0, 39, 52
2, 16127, Note_on_c, 0, 60, 58
2, 16127, Note_on_c, 0, 63, 56
2, 16133, Note_on_c, 0, 54, 38
2, 16136, Control_c, 0, 64, 0
2, 16175, Control_c, 0, 64, 127
2, 16216, Note_off_c, 0, 39, 0
2, 16230, Note_off_c, 0, 60, 0
2, 16245, Note_off_c, 0, 54, 0
2, 16253, Note_off_c, 0, 63, 0
2, 16388, Note_on_c, 0, 72, 123
2, 16388, Note_on_c, 0, 69, 127
2, 16391, Note_on_c, 0, 63, 59
2, 16398, Note_on_c, 0, 60, 46
2, 16400, Note_on_c, 0, 54, 55
2, 16445, Note_on_c, 0, 72, 0
2, 16456, Note_on_c, 0, 69, 0
2, 16469, Note_on_c, 0, 60, 0
2, 16476, Note_on_c, 0, 63, 0
2, 16485, Note_on_c, 0, 69, 93
2, 16485, Note_on_c, 0, 72, 90
2, 16501, Note_on_c, 0, 54, 0
2, 16537, Note_on_c, 0, 72, 0
2, 16538, Note_on_c, 0, 69, 0
2, 16558, Note_on_c, 0, 67, 80
2, 16558, Note_on_c, 0, 71, 89
2, 16618, Note_on_c, 0, 71, 0
2, 16623, Note_on_c, 0, 67, 0
2, 16642, Note_on_c, 0, 65, 71
2, 16643, Control_c, 0, 64, 0
2, 16646, Note_on_c, 0, 69, 92
2, 16651, Note_on_c, 0, 60, 43
2, 16652, Note_on_c, 0, 50, 43
2, 16677, Control_c, 0, 64, 127
2, 16691, Note_off_c, 0, 60, 0
2, 16734, Note_off_c, 0, 65, 0
2, 16760, Note_on_c, 0, 65, 62
2, 16761, Note_on_c, 0, 61, 87
2, 16762, Note_on_c, 0, 69, 0
2, 16763, Note_on_c, 0, 71, 98
2, 16776, Control_c, 0, 64, 0
2, 16800, Control_c, 0, 64, 127
2, 16863, Note_off_c, 0, 65, 0
2, 16864, Note_off_c, 0, 61, 0
2, 16878, Note_off_c, 0, 71, 0
2, 16898, Note_on_c, 0, 72, 75
2, 16900, Note_on_c, 0, 65, 78
2, 16901, Note_on_c, 0, 69, 81
2, 16902, Note_on_c, 0, 60, 58
2, 16903, Control_c, 0, 64, 0
2, 16920, Note_off_c, 0, 50, 0
2, 16932, Control_c, 0, 64, 127
2, 16973, Note_off_c, 0, 72, 0
2, 16976, Note_off_c, 0, 69, 0
2, 16998, Note_off_c, 0, 60, 0
2, 17000, Note_off_c, 0, 65, 0
2, 17030, Note_on_c, 0, 50, 77
2, 17068, Note_on_c, 0, 50, 0
2, 17156, Note_on_c, 0, 61, 71
2, 17157, Note_on_c, 0, 43, 53
2, 17157, Note_on_c, 0, 59, 67
2, 17161, Note_on_c, 0, 53, 50
2, 17163, Control_c, 0, 64, 0
2, 17201, Control_c, 0, 64, 127
2, 17244, Note_off_c, 0, 59, 0
2, 17247, Note_off_c, 0, 53, 0
2, 17282, Note_on_c, 0, 59, 78
2, 17282, Note_on_c, 0, 62, 96
2, 17283, Note_on_c, 0, 53, 62
2, 17297, Control_c, 0, 64, 0
2, 17317, Control_c, 0, 64, 127
2, 17340, Note_off_c, 0, 59, 0
2, 17348, Note_off_c, 0, 61, 0
2, 17353, Note_off_c, 0, 53, 0
2, 17379, Note_off_c, 0, 62, 0
2, 17416, Note_on_c, 0, 63, 80
2, 17417, Note_on_c, 0, 56, 73
2, 17420, Note_on_c, 0, 59, 80
2, 17423, Note_on_c, 0, 53, 44
2, 17425, Control_c, 0, 64, 0
2, 17452, Control_c, 0, 64, 127
2, 17463, Note_off_c, 0, 59, 0
2, 17465, Note_off_c, 0, 56, 0
2, 17467, Note_off_c, 0, 63, 0
2, 17474, Note_off_c, 0, 53, 0
2, 17552, Note_on_c, 0, 71, 113
2, 17556, Note_on_c, 0, 53, 62
2, 17562, Note_on_c, 0, 70, 44
2, 17565, Control_c, 0, 64, 0
2, 17570, Note_off_c, 0, 70, 0
2, 17577, Note_off_c, 0, 43, 0
2, 17583, Control_c, 0, 64, 127
2, 17593, Note_off_c, 0, 53, 0
2, 17648, Note_off_c, 0, 71, 0
2, 17688, Note_on_c, 0, 66, 75
2, 17691, Note_on_c, 0, 36, 41
2, 17692, Note_on_c, 0, 59, 50
2, 17693, Note_on_c, 0, 63, 58
2, 17697, Note_on_c, 0, 52, 58
2, 17702, Control_c, 0, 64, 0
2, 17744, Note_off_c, 0, 59, 0
2, 17756, Note_on_c, 0, 71, 65
2, 17767, Note_on_c, 0, 52, 0
2, 17770, Note_on_c, 0, 66, 0
2, 17780, Note_on_c, 0, 63, 0
2, 17783, Control_c, 0, 64, 127
2, 17804, Note_off_c, 0, 71, 0
2, 17825, Note_on_c, 0, 67, 73
2, 17825, Note_on_c, 0, 64, 70
2, 17826, Note_on_c, 0, 62, 35
2, 17828, Note_on_c, 0, 52, 38
2, 17830, Control_c, 0, 64, 0
2, 17875, Control_c, 0, 64, 127
2, 17927, Note_off_c, 0, 67, 0
2, 17928, Note_off_c, 0, 64, 0
2, 17931, Note_on_c, 0, 43, 67
2, 17936, Note_on_c, 0, 52, 0
2, 17948, Note_on_c, 0, 62, 0
2, 18008, Note_on_c, 0, 52, 87
2, 18076, Note_on_c, 0, 36, 0
2, 18087, Note_on_c, 0, 43, 0
2, 18106, Note_on_c, 0, 52, 0
2, 18112, Note_on_c, 0, 59, 95
2, 18135, Note_on_c, 0, 59, 0
2, 18157, Note_on_c, 0, 64, 105
2, 18200, Note_on_c, 0, 64, 0
2, 18212, Note_on_c, 0, 60, 73
2, 18216, Note_on_c, 0, 57, 78
2, 18218, Note_on_c, 0, 45, 53
2, 18218, Note_on_c, 0, 55, 65
2, 18220, Control_c, 0, 64, 0
2, 18260, Control_c, 0, 64, 127
2, 18283, Note_off_c, 0, 57, 0
2, 18294, Note_off_c, 0, 45, 0
2, 18310, Note_off_c, 0, 60, 0
2, 18315, Note_off_c, 0, 55, 0
2, 18466, Note_on_c, 0, 64, 53
2, 18470, Note_on_c, 0, 60, 56
2, 18470, Note_on_c, 0, 57, 58
2, 18595, Note_on_c, 0, 57, 0
2, 18595, Note_on_c, 0, 55, 114
2, 18671, Note_on_c, 0, 64, 0
2, 18672, Note_on_c, 0, 55, 0
2, 18683, Note_on_c, 0, 60, 0
2, 18722, Note_on_c, 0, 72, 116
2, 18722, Note_on_c, 0, 69, 120
2, 18726, Note_on_c, 0, 60, 84
2, 18728, Note_on_c, 0, 64, 92
2, 18730, Note_on_c, 0, 54, 78
2, 18731, Control_c, 0, 64, 0
2, 18775, Control_c, 0, 64, 127
2, 18844, Note_off_c, 0, 64, 0
2, 18871, Note_off_c, 0, 60, 0
2, 18887, Note_off_c, 0, 69, 0
2, 18995, Note_on_c, 0, 60, 46
2, 19023, Note_on_c, 0, 60, 0
2, 19043, Note_on_c, 0, 72, 0
2, 19052, Note_on_c, 0, 54, 0
2, 19125, Note_on_c, 0, 84, 127
2, 19155, Note_on_c, 0, 84, 0
2, 19186, Note_on_c, 0, 47, 73
2, 19194, Note_on_c, 0, 47, 0
2, 19255, Note_on_c, 0, 58, 43
2, 19260, Note_on_c, 0, 84, 117
2, 19262, Note_on_c, 0, 81, 98
2, 19265, Note_on_c, 0, 72, 92
2, 19265, Note_on_c, 0, 77, 93
2, 19273, Note_on_c, 0, 62, 73
2, 19275, Note_on_c, 0, 58, 0
2, 19278, Note_on_c, 0, 57, 56
2, 19280, Note_on_c, 0, 51, 56
2, 19287, Control_c, 0, 64, 0
2, 19338, Control_c, 0, 64, 127
2, 19443, Note_off_c, 0, 81, 0
2, 19446, Note_off_c, 0, 77, 0
2, 19448, Note_off_c, 0, 84, 0
2, 19451, Note_off_c, 0, 62, 0
2, 19458, Note_off_c, 0, 72, 0
2, 19463, Note_off_c, 0, 57, 0
2, 19530, Note_on_c, 0, 83, 89
2, 19532, Note_on_c, 0, 75, 64
2, 19536, Note_on_c, 0, 71, 65
2, 19542, Note_on_c, 0, 62, 35
2, 19543, Note_on_c, 0, 57, 49
2, 19615, Note_on_c, 0, 83, 0
2, 19618, Note_on_c, 0, 71, 0
2, 19663, Note_on_c, 0, 75, 0
2, 19663, Note_on_c, 0, 57, 0
2, 19681, Note_on_c, 0, 51, 0
2, 19684, Note_on_c, 0, 62, 0
2, 19702, Note_on_c, 0, 81, 86
2, 19735, Note_on_c, 0, 81, 0
2, 19752, Note_on_c, 0, 69, 70
2, 19763, Note_on_c, 0, 69, 0
2, 19806, Note_on_c, 0, 79, 78
2, 19808, Note_on_c, 0, 74, 86
2, 19810, Note_on_c, 0, 67, 83
2, 19812, Note_on_c, 0, 63, 52
2, 19826, Control_c, 0, 64, 0
2, 19851, Control_c, 0, 64, 127
2, 19858, Note_off_c, 0, 79, 0
2, 19862, Note_off_c, 0, 67, 0
2, 19876, Note_off_c, 0, 74, 0
2, 19877, Note_off_c, 0, 63, 0
2, 19887, Note_on_c, 0, 81, 89
2, 19888, Note_on_c, 0, 69, 80
2, 19888, Note_on_c, 0, 74, 44
2, 19893, Control_c, 0, 64, 0
2, 19895, Note_on_c, 0, 62, 70
2, 19920, Control_c, 0, 64, 127
2, 19955, Note_off_c, 0, 74, 0
2, 19956, Note_off_c, 0, 69, 0
2, 19972, Note_off_c, 0, 81, 0
2, 20067, Note_on_c, 0, 83, 81
2, 20073, Note_on_c, 0, 71, 53
2, 20073, Note_on_c, 0, 52, 55
2, 20117, Note_on_c, 0, 83, 0
2, 20117, Note_on_c, 0, 62, 0
2, 20139, Note_on_c, 0, 71, 0
2, 20144, Note_on_c, 0, 52, 0
2, 20323, Note_on_c, 0, 67, 73
2, 20326, Note_on_c, 0, 63, 75
2, 20326, Note_on_c, 0, 43, 53
2, 20328, Note_on_c, 0, 59, 64
2, 20335, Note_on_c, 0, 53, 53
2, 20351, Control_c, 0, 64, 0
2, 20390, Control_c, 0, 64, 127
2, 20455, Note_off_c, 0, 53, 0
2, 20471, Note_off_c, 0, 67, 0
2, 20471, Note_off_c, 0, 59, 0
2, 20486, Note_off_c, 0, 63, 0
2, 20590, Note_on_c, 0, 69, 96
2, 20593, Note_on_c, 0, 63, 81
2, 20595, Note_on_c, 0, 59, 77
2, 20602, Note_on_c, 0, 53, 35
2, 20662, Note_on_c, 0, 69, 0
2, 20705, Note_on_c, 0, 59, 0
2, 20710, Note_on_c, 0, 53, 0
2, 20725, Note_on_c, 0, 63, 0
2, 20736, Note_on_c, 0, 70, 96
2, 20756, Note_on_c, 0, 43, 0
2, 20779, Note_on_c, 0, 70, 0
2, 20853, Note_on_c, 0, 71, 87
2, 20857, Note_on_c, 0, 67, 84
2, 20858, Control_c, 0, 64, 0
2, 20861, Note_on_c, 0, 43, 59
2, 20862, Note_on_c, 0, 64, 70
2, 20862, Note_on_c, 0, 62, 73
2, 20863, Note_on_c, 0, 52, 49
2, 20895, Control_c, 0, 64, 127
2, 20933, Note_off_c, 0, 67, 0
2, 20937, Note_off_c, 0, 64, 0
2, 20939, Note_off_c, 0, 71, 0
2, 20984, Note_off_c, 0, 62, 0
2, 21001, Note_on_c, 0, 72, 95
2, 21003, Note_on_c, 0, 62, 46
2, 21036, Note_on_c, 0, 62, 0
2, 21049, Note_on_c, 0, 72, 0
2, 21066, Note_on_c, 0, 52, 0
2, 21123, Note_on_c, 0, 43, 0
2, 21241, Note_on_c, 0, 74, 95
2, 21242, Note_on_c, 0, 52, 62
2, 21248, Note_on_c, 0, 67, 52
2, 21248, Note_on_c, 0, 62, 52
2, 21251, Control_c, 0, 64, 0
2, 21272, Control_c, 0, 64, 127
2, 21290, Note_off_c, 0, 62, 0
2, 21291, Note_off_c, 0, 67, 0
2, 21328, Note_off_c, 0, 74, 0
2, 21349, Note_off_c, 0, 52, 0
2, 21376, Note_on_c, 0, 67, 68
2, 21380, Note_on_c, 0, 60, 77
2, 21380, Note_on_c, 0, 55, 64
2, 21390, Note_on_c, 0, 45, 50
2, 21392, Control_c, 0, 64, 0
2, 21438, Control_c, 0, 64, 127
2, 21466, Note_off_c, 0, 45, 0
2, 21486, Note_off_c, 0, 55, 0
2, 21500, Note_off_c, 0, 60, 0
2, 21533, Note_off_c, 0, 67, 0
2, 21628, Note_on_c, 0, 62, 67
2, 21630, Note_on_c, 0, 66, 59
2, 21633, Note_on_c, 0, 60, 44
2, 21638, Note_on_c, 0, 54, 53
2, 21678, Note_on_c, 0, 62, 0
2, 21690, Note_on_c, 0, 66, 0
2, 21781, Note_on_c, 0, 60, 0
2, 21781, Note_on_c, 0, 54, 0
2, 21795, Note_on_c, 0, 79, 119
2, 21825, Note_on_c, 0, 79, 0
2, 21847, Note_on_c, 0, 79, 95
2, 21883, Note_on_c, 0, 79, 0
2, 21907, Note_on_c, 0, 79, 81
2, 21911, Note_on_c, 0, 76, 84
2, 21912, Note_on_c, 0, 69, 84
2, 21913, Note_on_c, 0, 72, 77
2, 21916, Note_on_c, 0, 64, 68
2, 21922, Control_c, 0, 64, 0
2, 21956, Control_c, 0, 64, 127
2, 22022, Note_off_c, 0, 79, 0
2, 22039, Note_off_c, 0, 76, 0
2, 22040, Note_off_c, 0, 69, 0
2, 22044, Note_off_c, 0, 72, 0
2, 22076, Note_off_c, 0, 64, 0
2, 22106, Note_on_c, 0, 76, 98
2, 22131, Note_on_c, 0, 76, 0
2, 22148, Note_on_c, 0, 76, 98
2, 22184, Note_on_c, 0, 76, 0
2, 22203, Note_on_c, 0, 72, 73
2, 22203, Note_on_c, 0, 60, 58
2, 22205, Note_on_c, 0, 69, 61
2, 22205, Note_on_c, 0, 65, 55
2, 22213, Control_c, 0, 64, 0
2, 22225, Control_c, 0, 64, 127
2, 22259, Note_off_c, 0, 72, 0
2, 22262, Note_off_c, 0, 69, 0
2, 22270, Note_off_c, 0, 60, 0
2, 22270, Note_off_c, 0, 65, 0
2, 22345, Note_on_c, 0, 59, 58
2, 22358, Note_on_c, 0, 59, 0
2, 22472, Note_on_c, 0, 60, 80
2, 22481, Note_on_c, 0, 43, 41
2, 22492, Control_c, 0, 64, 0
2, 22528, Control_c, 0, 64, 127
2, 22647, Note_off_c, 0, 60, 0
2, 22736, Note_on_c, 0, 56, 46
2, 22738, Note_on_c, 0, 62, 58
2, 22738, Note_on_c, 0, 59, 50
2, 22746, Note_on_c, 0, 53, 29
2, 22747, Control_c, 0, 64, 0
2, 22781, Control_c, 0, 64, 127
2, 22894, Note_off_c, 0, 53, 0
2, 22903, Note_off_c, 0, 59, 0
2, 22912, Note_off_c, 0, 56, 0
2, 22926, Note_off_c, 0, 43, 0
2, 22941, Note_off_c, 0, 62, 0
2, 23003, Note_on_c, 0, 52, 75
2, 23005, Note_on_c, 0, 60, 78
2, 23007, Note_on_c, 0, 57, 70
2, 23010, Note_on_c, 0, 42, 59
2, 23015, Control_c, 0, 64, 0
2, 23052, Control_c, 0, 64, 127
2, 23182, Note_off_c, 0, 42, 0
2, 23183, Note_off_c, 0, 57, 0
2, 23186, Note_off_c, 0, 52, 0
2, 23260, Note_off_c, 0, 60, 0
2, 23288, Note_on_c, 0, 55, 81
2, 23288, Note_on_c, 0, 64, 89
2, 23293, Note_on_c, 0, 41, 47
2, 23301, Control_c, 0, 64, 0
2, 23305, Note_on_c, 0, 52, 28
2, 23327, Control_c, 0, 64, 127
2, 23373, Note_off_c, 0, 41, 0
2, 23391, Note_off_c, 0, 52, 0
2, 23415, Note_off_c, 0, 55, 0
2, 23446, Note_off_c, 0, 64, 0
2, 23558, Note_on_c, 0, 67, 80
2, 23561, Note_on_c, 0, 40, 75
2, 23561, Note_on_c, 0, 59, 65
2, 23562, Note_on_c, 0, 62, 74
2, 23572, Control_c, 0, 64, 0
2, 23611, Control_c, 0, 64, 127
2, 23648, Note_off_c, 0, 40, 0
2, 23667, Note_off_c, 0, 59, 0
2, 23674, Note_off_c, 0, 62, 0
2, 23684, Note_off_c, 0, 67, 0
2, 23832, Note_on_c, 0, 72, 78
2, 23835, Note_on_c, 0, 66, 73
2, 23836, Note_on_c, 0, 54, 52
2, 23837, Note_on_c, 0, 60, 65
2, 23837, Note_on_c, 0, 39, 46
2, 23845, Control_c, 0, 64, 0
2, 23892, Control_c, 0, 64, 127
2, 23906, Note_off_c, 0, 54, 0
2, 23925, Note_off_c, 0, 39, 0
2, 23945, Note_off_c, 0, 72, 0
2, 23970, Note_off_c, 0, 66, 0
2, 23983, Note_off_c, 0, 60, 0
2, 24092, Note_on_c, 0, 67, 65
2, 24095, Control_c, 0, 64, 0
2, 24095, Note_on_c, 0, 38, 49
2, 24096, Note_on_c, 0, 64, 67
2, 24097, Note_on_c, 0, 60, 55
2, 24133, Control_c, 0, 64, 127
2, 24143, Note_off_c, 0, 60, 0
2, 24151, Note_off_c, 0, 64, 0
2, 24153, Note_off_c, 0, 67, 0
2, 24162, Note_off_c, 0, 38, 0
2, 24266, Note_on_c, 0, 79, 108
2, 24296, Note_on_c, 0, 79, 0
2, 24352, Note_on_c, 0, 56, 55
2, 24356, Note_on_c, 0, 79, 102
2, 24358, Note_on_c, 0, 60, 84
2, 24358, Note_on_c, 0, 72, 95
2, 24359, Note_on_c, 0, 56, 0
2, 24371, Control_c, 0, 64, 0
2, 24372, Note_on_c, 0, 57, 49
2, 24383, Note_on_c, 0, 50, 16
2, 24385, Note_on_c, 0, 53, 28
2, 24414, Note_on_c, 0, 79, 0
2, 24415, Note_on_c, 0, 53, 0
2, 24418, Note_on_c, 0, 57, 0
2, 24420, Note_on_c, 0, 60, 0
2, 24425, Note_on_c, 0, 72, 0
2, 24428, Control_c, 0, 64, 127
2, 24429, Note_off_c, 0, 50, 0
2, 24430, Note_on_c, 0, 77, 92
2, 24477, Note_on_c, 0, 77, 0
2, 24495, Note_on_c, 0, 76, 75
2, 24535, Note_on_c, 0, 76, 0
2, 24556, Note_on_c, 0, 74, 101
2, 24573, Note_on_c, 0, 74, 0
2, 24630, Note_on_c, 0, 69, 59
2, 24630, Note_on_c, 0, 72, 61
2, 24632, Note_on_c, 0, 57, 40
2, 24632, Note_on_c, 0, 65, 59
2, 24636, Note_on_c, 0, 60, 52
2, 24638, Control_c, 0, 64, 0
2, 24681, Control_c, 0, 64, 127
2, 24719, Note_off_c, 0, 65, 0
2, 24722, Note_off_c, 0, 60, 0
2, 24728, Note_off_c, 0, 69, 0
2, 24729, Note_off_c, 0, 57, 0
2, 24788, Note_off_c, 0, 72, 0
2, 24891, Note_on_c, 0, 74, 84
2, 24897, Note_on_c, 0, 68, 37
2, 24897, Note_on_c, 0, 64, 43
2, 24898, Note_on_c, 0, 65, 41
2, 24901, Note_on_c, 0, 71, 53
2, 24906, Note_on_c, 0, 59, 47
2, 24910, Control_c, 0, 64, 0
2, 24910, Note_on_c, 0, 53, 29
2, 24922, Control_c, 0, 64, 127
2, 24934, Note_off_c, 0, 59, 0
2, 24934, Note_off_c, 0, 64, 0
2, 24953, Note_off_c, 0, 53, 0
2, 25057, Note_off_c, 0, 74, 0
2, 25059, Note_off_c, 0, 65, 0
2, 25062, Note_off_c, 0, 71, 0
2, 25064, Note_off_c, 0, 68, 0
2, 25068, Note_on_c, 0, 43, 55
2, 25165, Note_on_c, 0, 52, 75
2, 25167, Note_on_c, 0, 36, 50
2, 25170, Control_c, 0, 64, 0
2, 25216, Control_c, 0, 64, 127
2, 25247, Note_off_c, 0, 36, 0
2, 25260, Note_off_c, 0, 43, 0
2, 25272, Note_off_c, 0, 52, 0
2, 25430, Note_on_c, 0, 62, 53
2, 25436, Note_on_c, 0, 52, 47
2, 25442, Note_on_c, 0, 57, 46
2, 25459, Note_on_c, 0, 57, 0
2, 25460, Note_on_c, 0, 62, 0
2, 25491, Note_on_c, 0, 52, 0
2, 25518, Note_on_c, 0, 60, 73
2, 25535, Note_on_c, 0, 60, 0
2, 25591, Note_on_c, 0, 64, 123
2, 25633, Note_on_c, 0, 64, 0
2, 25677, Note_on_c, 0, 67, 96
2, 25680, Note_on_c, 0, 64, 89
2, 25680, Note_on_c, 0, 60, 81
2, 25692, Control_c, 0, 64, 0
2, 25760, Control_c, 0, 64, 127
2, 25781, Note_on_c, 0, 57, 95
2, 25934, Note_on_c, 0, 57, 0
2, 25945, Control_c, 0, 64, 0
2, 25946, Note_on_c, 0, 55, 78
2, 25961, Control_c, 0, 64, 127
2, 25965, Note_off_c, 0, 67, 0
2, 25985, Note_off_c, 0, 64, 0
2, 26017, Note_off_c, 0, 60, 0
2, 26046, Note_on_c, 0, 72, 95
2, 26089, Note_on_c, 0, 72, 0
2, 26111, Note_on_c, 0, 55, 0
2, 26213, Note_on_c, 0, 67, 74
2, 26216, Note_on_c, 0, 57, 70
2, 26217, Note_on_c, 0, 60, 70
2, 26223, Control_c, 0, 64, 0
2, 26231, Note_on_c, 0, 50, 35
2, 26311, Note_on_c, 0, 50, 0
2, 26315, Note_on_c, 0, 51, 44
2, 26326, Note_on_c, 0, 51, 0
2, 26333, Note_on_c, 0, 52, 92
2, 26365, Note_on_c, 0, 52, 0
2, 26373, Note_on_c, 0, 53, 84
2, 26426, Note_on_c, 0, 53, 0
2, 26437, Note_on_c, 0, 52, 61
2, 26454, Note_on_c, 0, 52, 0
2, 26460, Note_on_c, 0, 51, 84
2, 26485, Note_on_c, 0, 51, 0
2, 26496, Note_on_c, 0, 50, 73
2, 26530, Control_c, 0, 64, 127
2, 26570, Note_off_c, 0, 60, 0
2, 26573, Note_off_c, 0, 57, 0
2, 26577, Note_off_c, 0, 50, 0
2, 26582, Note_on_c, 0, 45, 89
2, 26589, Note_on_c, 0, 67, 0
2, 26660, Note_on_c, 0, 53, 86
2, 26675, Note_on_c, 0, 45, 0
2, 26683, Note_on_c, 0, 53, 0
2, 26705, Note_on_c, 0, 57, 90
2, 26736, Note_on_c, 0, 57, 0
2, 26742, Note_on_c, 0, 60, 96
2, 26765, Note_on_c, 0, 60, 0
2, 26787, Note_on_c, 0, 58, 78
2, 26790, Note_on_c, 0, 53, 61
2, 26791, Note_on_c, 0, 56, 77
2, 26792, Note_on_c, 0, 43, 49
2, 26808, Control_c, 0, 64, 0
2, 26845, Note_on_c, 0, 59, 19
2, 26897, Control_c, 0, 64, 127
2, 26950, Note_off_c, 0, 53, 0
2, 26976, Note_off_c, 0, 59, 0
2, 26978, Note_off_c, 0, 58, 0
2, 26982, Note_off_c, 0, 56, 0
2, 27083, Note_on_c, 0, 59, 68
2, 27085, Note_on_c, 0, 56, 58
2, 27088, Note_on_c, 0, 53, 46
2, 27100, Control_c, 0, 64, 0
2, 27145, Control_c, 0, 64, 127
2, 27150, Note_off_c, 0, 43, 0
2, 27223, Note_on_c, 0, 43, 101
2, 27275, Note_on_c, 0, 53, 0
2, 27281, Note_on_c, 0, 59, 0
2, 27282, Note_on_c, 0, 56, 0
2, 27350, Note_on_c, 0, 64, 102
2, 27351, Note_on_c, 0, 59, 101
2, 27352, Note_on_c, 0, 52, 81
2, 27353, Note_on_c, 0, 55, 90
2, 27363, Control_c, 0, 64, 0
2, 27415, Control_c, 0, 64, 127
2, 27511, Note_off_c, 0, 55, 0
2, 27526, Note_off_c, 0, 59, 0
2, 27531, Note_off_c, 0, 64, 0
2, 27537, Note_off_c, 0, 52, 0
2, 27631, Note_on_c, 0, 67, 101
2, 27633, Note_on_c, 0, 62, 98
2, 27640, Note_on_c, 0, 59, 75
2, 27640, Note_on_c, 0, 57, 64
2, 27650, Control_c, 0, 64, 0
2, 27655, Control_c, 0, 64, 127
2, 27675, Note_off_c, 0, 57, 0
2, 27723, Note_off_c, 0, 43, 0
2, 27776, Note_on_c, 0, 56, 116
2, 27782, Note_on_c, 0, 59, 0
2, 27788, Note_on_c, 0, 62, 0
2, 27796, Note_on_c, 0, 67, 0
2, 27887, Note_on_c, 0, 56, 0
2, 27901, Note_on_c, 0, 57, 102
2, 27902, Note_on_c, 0, 72, 93
2, 27902, Note_on_c, 0, 60, 89
2, 27903, Note_on_c, 0, 69, 89
2, 27910, Control_c, 0, 64, 0
2, 27958, Control_c, 0, 64, 127
2, 28033, Note_off_c, 0, 60, 0
2, 28059, Note_off_c, 0, 57, 0
2, 28061, Note_off_c, 0, 69, 0
2, 28073, Note_off_c, 0, 72, 0
2, 28326, Note_on_c, 0, 76, 81
2, 28328, Note_on_c, 0, 61, 73
2, 28333, Note_on_c, 0, 64, 71
2, 28337, Note_on_c, 0, 69, 52
2, 28360, Note_on_c, 0, 64, 0
2, 28370, Note_on_c, 0, 69, 0
2, 28372, Note_on_c, 0, 76, 0
2, 28386, Note_on_c, 0, 61, 0
2, 28456, Note_on_c, 0, 77, 86
2, 28457, Note_on_c, 0, 69, 74
2, 28460, Note_on_c, 0, 65, 62
2, 28461, Control_c, 0, 64, 0
2, 28462, Note_on_c, 0, 60, 61
2, 28468, Note_on_c, 0, 50, 50
2, 28510, Control_c, 0, 64, 127
2, 28551, Note_off_c, 0, 50, 0
2, 28568, Note_off_c, 0, 60, 0
2, 28647, Note_off_c, 0, 77, 0
2, 28651, Note_off_c, 0, 65, 0
2, 28657, Note_off_c, 0, 69, 0
2, 28737, Note_on_c, 0, 76, 120
2, 28740, Note_on_c, 0, 67, 110
2, 28743, Note_on_c, 0, 64, 75
2, 28830, Note_on_c, 0, 76, 0
2, 28843, Note_on_c, 0, 74, 105
2, 28845, Note_on_c, 0, 64, 0
2, 28896, Note_on_c, 0, 67, 0
2, 28923, Note_on_c, 0, 72, 90
2, 28950, Note_on_c, 0, 72, 0
2, 28955, Note_on_c, 0, 74, 0
2, 29011, Note_on_c, 0, 71, 49
2, 29013, Note_on_c, 0, 62, 53
2, 29018, Note_on_c, 0, 56, 50
2, 29020, Control_c, 0, 64, 0
2, 29020, Note_on_c, 0, 64, 35
2, 29020, Note_on_c, 0, 69, 50
2, 29062, Control_c, 0, 64, 127
2, 29063, Note_off_c, 0, 62, 0
2, 29075, Note_off_c, 0, 56, 0
2, 29121, Note_on_c, 0, 47, 71
2, 29131, Note_on_c, 0, 47, 0
2, 29140, Note_on_c, 0, 69, 0
2, 29142, Note_on_c, 0, 64, 0
2, 29279, Note_on_c, 0, 71, 0
2, 29286, Note_on_c, 0, 68, 73
2, 29290, Note_on_c, 0, 64, 73
2, 29291, Note_on_c, 0, 56, 56
2, 29293, Note_on_c, 0, 62, 52
2, 29390, Note_on_c, 0, 52, 81
2, 29397, Control_c, 0, 64, 0
2, 29428, Control_c, 0, 64, 127
2, 29461, Note_off_c, 0, 64, 0
2, 29473, Note_off_c, 0, 62, 0
2, 29475, Note_on_c, 0, 76, 98
2, 29487, Note_on_c, 0, 56, 0
2, 29491, Note_on_c, 0, 52, 0
2, 29496, Note_on_c, 0, 68, 0
2, 29506, Note_on_c, 0, 76, 0
2, 29556, Note_on_c, 0, 74, 92
2, 29558, Note_on_c, 0, 67, 81
2, 29565, Note_on_c, 0, 45, 71
2, 29568, Control_c, 0, 64, 0
2, 29602, Control_c, 0, 64, 127
2, 29629, Note_off_c, 0, 74, 0
2, 29636, Note_on_c, 0, 58, 37
2, 29643, Note_on_c, 0, 67, 0
2, 29673, Note_on_c, 0, 58, 0
2, 29705, Note_on_c, 0, 72, 58
2, 29707, Note_on_c, 0, 67, 65
2, 29708, Note_on_c, 0, 60, 58
2, 29713, Note_on_c, 0, 57, 50
2, 29720, Control_c, 0, 64, 0
2, 29756, Control_c, 0, 64, 127
2, 29797, Note_off_c, 0, 67, 0
2, 29860, Note_off_c, 0, 57, 0
2, 29863, Note_off_c, 0, 60, 0
2, 29943, Note_off_c, 0, 45, 0
2, 29966, Note_on_c, 0, 45, 62
2, 29993, Note_on_c, 0, 45, 0
2, 30030, Note_on_c, 0, 45, 81
2, 30097, Note_on_c, 0, 68, 65
2, 30098, Note_on_c, 0, 64, 83
2, 30098, Note_on_c, 0, 60, 56
2, 30100, Note_on_c, 0, 56, 73
2, 30107, Control_c, 0, 64, 0
2, 30142, Control_c, 0, 64, 127
2, 30241, Note_off_c, 0, 56, 0
2, 30250, Note_off_c, 0, 64, 0
2, 30253, Note_off_c, 0, 60, 0
2, 30277, Note_off_c, 0, 68, 0
2, 30285, Note_off_c, 0, 72, 0
2, 30373, Note_on_c, 0, 67, 80
2, 30376, Note_on_c, 0, 60, 58
2, 30377, Note_on_c, 0, 64, 65
2, 30378, Note_on_c, 0, 55, 61
2, 30435, Note_on_c, 0, 67, 0
2, 30449, Note_on_c, 0, 64, 0
2, 30463, Note_on_c, 0, 60, 0
2, 30506, Note_on_c, 0, 62, 120
2, 30554, Note_on_c, 0, 55, 0
2, 30558, Note_on_c, 0, 62, 0
2, 30566, Note_on_c, 0, 45, 0
2, 30571, Note_on_c, 0, 65, 108
2, 30638, Note_on_c, 0, 65, 0
2, 30651, Note_on_c, 0, 58, 80
2, 30655, Note_on_c, 0, 62, 83
2, 30657, Note_on_c, 0, 43, 50
2, 30658, Note_on_c, 0, 53, 53
2, 30658, Note_on_c, 0, 57, 71
2, 30675, Control_c, 0, 64, 0
2, 30747, Control_c, 0, 64, 127
2, 30761, Note_on_c, 0, 50, 74
2, 30843, Note_on_c, 0, 58, 0
2, 30856, Note_on_c, 0, 62, 0
2, 30915, Note_on_c, 0, 57, 0
2, 30916, Note_on_c, 0, 50, 0
2, 30920, Note_on_c, 0, 53, 0
2, 30932, Note_on_c, 0, 43, 0
2, 30980, Note_on_c, 0, 58, 75
2, 31012, Note_on_c, 0, 58, 0
2, 31050, Note_on_c, 0, 60, 80
2, 31072, Note_on_c, 0, 60, 0
2, 31141, Note_on_c, 0, 64, 78
2, 31143, Note_on_c, 0, 68, 83
2, 31146, Control_c, 0, 64, 0
2, 31146, Note_on_c, 0, 36, 58
2, 31187, Control_c, 0, 64, 127
2, 31218, Note_off_c, 0, 68, 0
2, 31218, Note_on_c, 0, 72, 74
2, 31221, Note_on_c, 0, 64, 0
2, 31222, Note_on_c, 0, 36, 0
2, 31223, Note_on_c, 0, 43, 52
2, 31234, Note_on_c, 0, 43, 0
2, 31239, Note_on_c, 0, 72, 0
2, 31403, Note_on_c, 0, 72, 86
2, 31406, Note_on_c, 0, 58, 55
2, 31406, Note_on_c, 0, 68, 71
2, 31428, Note_on_c, 0, 63, 10
2, 31501, Note_on_c, 0, 63, 0
2, 31515, Note_on_c, 0, 72, 0
2, 31518, Note_on_c, 0, 68, 0
2, 31520, Note_on_c, 0, 74, 93
2, 31557, Note_on_c, 0, 74, 0
2, 31580, Note_on_c, 0, 75, 84
2, 31583, Note_on_c, 0, 74, 44
2, 31595, Note_on_c, 0, 74, 0
2, 31618, Note_on_c, 0, 75, 0
2, 31621, Note_on_c, 0, 58, 0
2, 31651, Note_on_c, 0, 76, 80
2, 31653, Note_on_c, 0, 60, 47
2, 31653, Note_on_c, 0, 72, 61
2, 31655, Note_on_c, 0, 65, 47
2, 31655, Note_on_c, 0, 69, 59
2, 31663, Control_c, 0, 64, 0
2, 31700, Control_c, 0, 64, 127
2, 31750, Note_off_c, 0, 69, 0
2, 31768, Note_off_c, 0, 76, 0
2, 31778, Note_off_c, 0, 72, 0
2, 31820, Note_off_c, 0, 65, 0
2, 31964, Note_off_c, 0, 60, 0
2, 31982, Note_on_c, 0, 65, 58
2, 32013, Note_on_c, 0, 65, 0
2, 32137, Note_on_c, 0, 69, 86
2, 32140, Note_on_c, 0, 60, 53
2, 32141, Note_on_c, 0, 55, 58
2, 32142, Note_on_c, 0, 64, 62
2, 32147, Note_on_c, 0, 45, 52
2, 32147, Control_c, 0, 64, 0
2, 32178, Control_c, 0, 64, 127
2, 32195, Note_off_c, 0, 69, 0
2, 32203, Note_off_c, 0, 64, 0
2, 32227, Note_off_c, 0, 60, 0
2, 32237, Note_off_c, 0, 55, 0
2, 32246, Note_on_c, 0, 72, 116
2, 32246, Note_on_c, 0, 52, 65
2, 32268, Note_on_c, 0, 45, 0
2, 32276, Note_on_c, 0, 52, 0
2, 32294, Note_on_c, 0, 72, 0
2, 32393, Note_on_c, 0, 76, 120
2, 32396, Note_on_c, 0, 65, 114
2, 32396, Note_on_c, 0, 69, 114
2, 32400, Note_on_c, 0, 60, 84
2, 32413, Control_c, 0, 64, 0
2, 32438, Control_c, 0, 64, 127
2, 32486, Note_off_c, 0, 76, 0
2, 32497, Note_off_c, 0, 65, 0
2, 32499, Note_off_c, 0, 69, 0
2, 32513, Note_off_c, 0, 60, 0
2, 32520, Note_on_c, 0, 65, 74
2, 32520, Note_on_c, 0, 74, 105
2, 32521, Note_on_c, 0, 59, 65
2, 32530, Control_c, 0, 64, 0
2, 32551, Control_c, 0, 64, 127
2, 32566, Note_off_c, 0, 74, 0
2, 32570, Note_off_c, 0, 65, 0
2, 32627, Note_off_c, 0, 59, 0
2, 32635, Note_on_c, 0, 72, 75
2, 32637, Note_on_c, 0, 62, 64
2, 32640, Note_on_c, 0, 65, 75
2, 32640, Note_on_c, 0, 57, 61
2, 32641, Note_on_c, 0, 69, 73
2, 32647, Control_c, 0, 64, 0
2, 32676, Control_c, 0, 64, 127
2, 32682, Note_off_c, 0, 69, 0
2, 32695, Note_off_c, 0, 72, 0
2, 32703, Note_off_c, 0, 65, 0
2, 32709, Note_off_c, 0, 62, 0
2, 32743, Note_off_c, 0, 57, 0
2, 32751, Note_on_c, 0, 71, 70
2, 32753, Note_on_c, 0, 62, 53
2, 32755, Note_on_c, 0, 65, 70
2, 32758, Note_on_c, 0, 55, 71
2, 32767, Control_c, 0, 64, 0
2, 32782, Control_c, 0, 64, 127
2, 32785, Note_off_c, 0, 55, 0
2, 32804, Note_off_c, 0, 71, 0
2, 32810, Note_off_c, 0, 62, 0
2, 32813, Note_off_c, 0, 65, 0
2, 32891, Note_on_c, 0, 69, 74
2, 32891, Note_on_c, 0, 59, 68
2, 32892, Note_on_c, 0, 64, 75
2, 32895, Note_on_c, 0, 53, 58
2, 32900, Control_c, 0, 64, 0
2, 32948, Control_c, 0, 64, 127
2, 33020, Note_on_c, 0, 43, 64
2, 33050, Note_on_c, 0, 53, 0
2, 33059, Note_on_c, 0, 59, 0
2, 33063, Note_on_c, 0, 64, 0
2, 33078, Note_on_c, 0, 69, 0
2, 33181, Note_on_c, 0, 71, 62
2, 33183, Note_on_c, 0, 68, 47
2, 33186, Control_c, 0, 64, 0
2, 33187, Note_on_c, 0, 64, 71
2, 33187, Note_on_c, 0, 59, 47
2, 33195, Note_on_c, 0, 53, 41
2, 33227, Control_c, 0, 64, 127
2, 33310, Note_off_c, 0, 43, 0
2, 33312, Note_off_c, 0, 53, 0
2, 33349, Note_off_c, 0, 59, 0
2, 33363, Note_off_c, 0, 68, 0
2, 33383, Note_off_c, 0, 64, 0
2, 33431, Note_off_c, 0, 71, 0
2, 33562, Note_on_c, 0, 43, 52
2, 33622, Control_c, 0, 64, 0
2, 33628, Note_on_c, 0, 36, 71
2, 33642, Note_on_c, 0, 43, 0
2, 33758, Note_on_c, 0, 60, 58
2, 33776, Control_c, 0, 64, 127
2, 33807, Control_c, 0, 64, 0
2, 33816, Note_off_c, 0, 60, 0
2, 33823, Note_on_c, 0, 64, 75
2, 33828, Note_on_c, 0, 36, 0
2, 33828, Note_on_c, 0, 52, 32
2, 33865, Note_on_c, 0, 52, 0
2, 33940, Control_c, 0, 64, 127
2, 33947, Note_on_c, 0, 52, 47
2, 33984, Note_on_c, 0, 64, 0
2, 34000, Control_c, 0, 64, 0
2, 34008, Note_on_c, 0, 45, 61
2, 34013, Note_on_c, 0, 67, 84
2, 34017, Note_on_c, 0, 52, 0
2, 34018, Control_c, 0, 64, 127
2, 34021, Note_off_c, 0, 45, 0
2, 34121, Note_off_c, 0, 67, 0
2, 34200, Note_on_c, 0, 64, 50
2, 34207, Note_on_c, 0, 60, 38
2, 34208, Note_on_c, 0, 59, 46
2, 34258, Note_on_c, 0, 64, 0
2, 34260, Note_on_c, 0, 60, 0
2, 34263, Note_on_c, 0, 59, 0
2, 34330, Note_on_c, 0, 72, 84
2, 34353, Note_on_c, 0, 72, 0
2, 34397, Note_on_c, 0, 67, 59
2, 34401, Note_on_c, 0, 57, 53
2, 34403, Note_on_c, 0, 64, 46
2, 34405, Note_on_c, 0, 50, 47
2, 34406, Control_c, 0, 64, 0
2, 34420, Note_on_c, 0, 60, 7
2, 34447, Control_c, 0, 64, 127
2, 34468, Note_off_c, 0, 64, 0
2, 34475, Note_off_c, 0, 67, 0
2, 34477, Note_off_c, 0, 60, 0
2, 34493, Note_off_c, 0, 57, 0
2, 34535, Note_on_c, 0, 65, 93
2, 34537, Note_on_c, 0, 62, 38
2, 34585, Note_on_c, 0, 62, 0
2, 34587, Note_on_c, 0, 65, 0
2, 34603, Note_on_c, 0, 60, 40
2, 34606, Control_c, 0, 64, 0
2, 34607, Note_on_c, 0, 57, 40
2, 34611, Note_on_c, 0, 64, 40
2, 34619, Note_on_c, 0, 64, 0
2, 34619, Note_on_c, 0, 57, 0
2, 34629, Note_on_c, 0, 60, 0
2, 34638, Note_on_c, 0, 50, 0
2, 34663, Note_on_c, 0, 59, 46
2, 34663, Note_on_c, 0, 62, 73
2, 34690, Note_on_c, 0, 62, 0
2, 34699, Note_on_c, 0, 59, 0
2, 34726, Note_on_c, 0, 43, 52
2, 34731, Control_c, 0, 64, 127
2, 34787, Note_on_c, 0, 60, 77
2, 34790, Note_on_c, 0, 57, 64
2, 34795, Note_on_c, 0, 53, 65
2, 34798, Control_c, 0, 64, 0
2, 34831, Note_off_c, 0, 57, 0
2, 34837, Note_off_c, 0, 60, 0
2, 34844, Note_off_c, 0, 43, 0
2, 34846, Note_off_c, 0, 53, 0
2, 34897, Control_c, 0, 64, 127
2, 35082, Note_on_c, 0, 41, 68
2, 35083, Note_on_c, 0, 56, 50
2, 35085, Note_on_c, 0, 62, 70
2, 35085, Control_c, 0, 64, 0
2, 35090, Note_on_c, 0, 59, 61
2, 35101, Control_c, 0, 64, 127
2, 35108, Note_off_c, 0, 41, 0
2, 35116, Note_off_c, 0, 59, 0
2, 35139, Note_off_c, 0, 56, 0
2, 35162, Note_off_c, 0, 62, 0
2, 35191, Control_c, 0, 64, 0
2, 35193, Note_on_c, 0, 55, 52
2, 35195, Note_on_c, 0, 60, 70
2, 35196, Note_on_c, 0, 57, 53
2, 35198, Note_on_c, 0, 40, 47
2, 35231, Note_on_c, 0, 55, 0
2, 35236, Control_c, 0, 64, 127
2, 35268, Note_off_c, 0, 57, 0
2, 35275, Note_off_c, 0, 60, 0
2, 35405, Note_on_c, 0, 55, 62
2, 35449, Note_on_c, 0, 40, 0
2, 35476, Note_on_c, 0, 55, 0
2, 35606, Note_on_c, 0, 64, 74
2, 35607, Note_on_c, 0, 59, 74
2, 35608, Note_on_c, 0, 60, 71
2, 35613, Control_c, 0, 64, 0
2, 35618, Note_on_c, 0, 55, 61
2, 35657, Control_c, 0, 64, 127
2, 35683, Note_off_c, 0, 55, 0
2, 35730, Note_off_c, 0, 59, 0
2, 35733, Note_off_c, 0, 60, 0
2, 35733, Note_on_c, 0, 45, 116
2, 35738, Note_on_c, 0, 64, 0
2, 35816, Note_on_c, 0, 67, 113
2, 35817, Note_on_c, 0, 64, 114
2, 35823, Note_on_c, 0, 45, 0
2, 35844, Note_on_c, 0, 64, 0
2, 35851, Note_on_c, 0, 67, 0
2, 35887, Note_on_c, 0, 72, 107
2, 35969, Note_on_c, 0, 72, 0
2, 36025, Note_on_c, 0, 67, 86
2, 36026, Note_on_c, 0, 65, 81
2, 36035, Control_c, 0, 64, 0
2, 36063, Control_c, 0, 64, 127
2, 36101, Note_on_c, 0, 50, 65
2, 36128, Note_on_c, 0, 65, 0
2, 36132, Note_on_c, 0, 67, 0
2, 36136, Note_on_c, 0, 50, 0
2, 36238, Note_on_c, 0, 79, 77
2, 36238, Note_on_c, 0, 72, 78
2, 36240, Note_on_c, 0, 69, 75
2, 36245, Note_on_c, 0, 64, 61
2, 36340, Note_on_c, 0, 64, 0
2, 36345, Note_on_c, 0, 79, 0
2, 36350, Note_on_c, 0, 72, 0
2, 36353, Note_on_c, 0, 69, 0
2, 36447, Note_on_c, 0, 77, 73
2, 36450, Note_on_c, 0, 64, 44
2, 36451, Note_on_c, 0, 68, 47
2, 36453, Note_on_c, 0, 71, 65
2, 36456, Control_c, 0, 64, 0
2, 36458, Note_on_c, 0, 59, 50
2, 36461, Note_on_c, 0, 53, 32
2, 36485, Control_c, 0, 64, 127
2, 36563, Note_off_c, 0, 68, 0
2, 36568, Note_off_c, 0, 71, 0
2, 36568, Note_off_c, 0, 77, 0
2, 36571, Note_off_c, 0, 64, 0
2, 36586, Note_off_c, 0, 59, 0
2, 36667, Note_on_c, 0, 76, 71
2, 36672, Note_on_c, 0, 65, 38
2, 36672, Note_on_c, 0, 68, 47
2, 36673, Note_on_c, 0, 62, 49
2, 36675, Note_on_c, 0, 71, 55
2, 36687, Control_c, 0, 64, 0
2, 36692, Control_c, 0, 64, 127
2, 36769, Note_off_c, 0, 62, 0
2, 36773, Note_off_c, 0, 76, 0
2, 36783, Note_off_c, 0, 53, 0
2, 36783, Note_off_c, 0, 65, 0
2, 36783, Note_off_c, 0, 71, 0
2, 36840, Note_off_c, 0, 68, 0
2, 36878, Note_on_c, 0, 64, 55
2, 36880, Note_on_c, 0, 67, 52
2, 36880, Note_on_c, 0, 74, 49
2, 36887, Control_c, 0, 64, 0
2, 36888, Note_on_c, 0, 52, 49
2, 36890, Note_on_c, 0, 57, 35
2, 36927, Control_c, 0, 64, 127
2, 36946, Note_off_c, 0, 52, 0
2, 36950, Note_off_c, 0, 57, 0
2, 36963, Note_off_c, 0, 64, 0
2, 36976, Note_off_c, 0, 67, 0
2, 36993, Note_off_c, 0, 74, 0
2, 37092, Note_on_c, 0, 64, 38
2, 37096, Note_on_c, 0, 60, 35
2, 37098, Note_on_c, 0, 59, 40
2, 37138, Note_on_c, 0, 64, 0
2, 37144, Note_on_c, 0, 60, 0
2, 37150, Note_on_c, 0, 59, 0
2, 37157, Note_on_c, 0, 76, 62
2, 37183, Note_on_c, 0, 76, 0
2, 37221, Note_on_c, 0, 79, 104
2, 37257, Note_on_c, 0, 79, 0
2, 37287, Note_on_c, 0, 84, 98
2, 37288, Control_c, 0, 64, 0
2, 37290, Note_on_c, 0, 72, 71
2, 37295, Note_on_c, 0, 45, 55
2, 37298, Note_on_c, 0, 52, 41
2, 37317, Control_c, 0, 64, 127
2, 37323, Note_off_c, 0, 72, 0
2, 37323, Note_off_c, 0, 84, 0
2, 37333, Note_off_c, 0, 45, 0
2, 37343, Note_off_c, 0, 52, 0
2, 37350, Note_on_c, 0, 84, 64
2, 37350, Note_on_c, 0, 72, 64
2, 37361, Note_on_c, 0, 72, 0
2, 37370, Note_on_c, 0, 84, 0
2, 37408, Note_on_c, 0, 87, 78
2, 37412, Note_on_c, 0, 75, 70
2, 37443, Note_on_c, 0, 87, 0
2, 37452, Note_on_c, 0, 75, 0
2, 37456, Note_on_c, 0, 76, 83
2, 37486, Note_on_c, 0, 76, 0
2, 37486, Note_on_c, 0, 88, 81
2, 37501, Note_on_c, 0, 64, 46
2, 37502, Control_c, 0, 64, 0
2, 37506, Note_on_c, 0, 60, 49
2, 37511, Note_on_c, 0, 57, 32
2, 37519, Note_on_c, 0, 88, 0
2, 37523, Note_on_c, 0, 76, 73
2, 37556, Note_on_c, 0, 76, 0
2, 37556, Note_on_c, 0, 64, 0
2, 37559, Note_on_c, 0, 60, 0
2, 37569, Note_on_c, 0, 57, 0
2, 37628, Note_on_c, 0, 50, 65
2, 37632, Control_c, 0, 64, 127
2, 37650, Note_off_c, 0, 50, 0
2, 37703, Note_on_c, 0, 61, 70
2, 37706, Note_on_c, 0, 86, 98
2, 37708, Note_on_c, 0, 74, 80
2, 37715, Note_on_c, 0, 81, 77
2, 37717, Control_c, 0, 64, 0
2, 37746, Control_c, 0, 64, 127
2, 37782, Note_off_c, 0, 81, 0
2, 37782, Note_off_c, 0, 86, 0
2, 37800, Note_off_c, 0, 74, 0
2, 37818, Note_off_c, 0, 61, 0
2, 37843, Note_on_c, 0, 84, 92
2, 37847, Note_on_c, 0, 72, 87
2, 37870, Note_on_c, 0, 84, 0
2, 37882, Note_on_c, 0, 72, 0
2, 37920, Note_on_c, 0, 83, 87
2, 37921, Control_c, 0, 64, 0
2, 37925, Note_on_c, 0, 71, 56
2, 37952, Control_c, 0, 64, 127
2, 37960, Note_off_c, 0, 83, 0
2, 37977, Note_off_c, 0, 71, 0
2, 38056, Note_on_c, 0, 81, 73
2, 38058, Note_on_c, 0, 69, 74
2, 38078, Note_on_c, 0, 81, 0
2, 38086, Note_on_c, 0, 69, 0
2, 38126, Control_c, 0, 64, 0
2, 38130, Note_on_c, 0, 79, 61
2, 38131, Note_on_c, 0, 43, 62
2, 38136, Note_on_c, 0, 67, 52
2, 38142, Note_on_c, 0, 43, 0
2, 38142, Control_c, 0, 64, 127
2, 38377, Note_off_c, 0, 79, 0
2, 38381, Note_off_c, 0, 67, 0
2, 38481, Note_on_c, 0, 77, 83
2, 38529, Note_on_c, 0, 77, 0
2, 38570, Note_on_c, 0, 76, 75
2, 38572, Note_on_c, 0, 56, 49
2, 38573, Note_on_c, 0, 67, 49
2, 38575, Note_on_c, 0, 72, 58
2, 38575, Note_on_c, 0, 62, 44
2, 38576, Control_c, 0, 64, 0
2, 38615, Control_c, 0, 64, 127
2, 38660, Note_off_c, 0, 72, 0
2, 38665, Note_off_c, 0, 62, 0
2, 38667, Note_off_c, 0, 76, 0
2, 38671, Note_off_c, 0, 67, 0
2, 38797, Note_on_c, 0, 67, 55
2, 38797, Note_on_c, 0, 64, 56
2, 38803, Note_on_c, 0, 62, 43
2, 38829, Note_on_c, 0, 67, 0
2, 38838, Note_on_c, 0, 62, 0
2, 38848, Note_on_c, 0, 64, 0
2, 38904, Note_on_c, 0, 56, 0
2, 38908, Note_on_c, 0, 62, 75
2, 38943, Note_on_c, 0, 62, 0
2, 38958, Note_on_c, 0, 64, 87
2, 39008, Note_on_c, 0, 64, 0
2, 39020, Note_on_c, 0, 63, 75
2, 39027, Note_on_c, 0, 55, 47
2, 39028, Note_on_c, 0, 45, 47
2, 39037, Control_c, 0, 64, 0
2, 39073, Control_c, 0, 64, 127
2, 39095, Note_off_c, 0, 45, 0
2, 39112, Note_off_c, 0, 55, 0
2, 39248, Note_off_c, 0, 63, 0
2, 39255, Note_on_c, 0, 64, 75
2, 39258, Note_on_c, 0, 55, 43
2, 39262, Note_on_c, 0, 61, 43
2, 39263, Control_c, 0, 64, 0
2, 39292, Control_c, 0, 64, 127
2, 39403, Note_off_c, 0, 64, 0
2, 39405, Note_on_c, 0, 65, 105
2, 39406, Note_on_c, 0, 55, 0
2, 39437, Note_on_c, 0, 61, 0
2, 39441, Note_on_c, 0, 65, 0
2, 39447, Note_on_c, 0, 67, 99
2, 39492, Note_on_c, 0, 67, 0
2, 39492, Note_on_c, 0, 54, 55
2, 39493, Note_on_c, 0, 60, 44
2, 39496, Note_on_c, 0, 66, 77
2, 39502, Control_c, 0, 64, 0
2, 39541, Control_c, 0, 64, 127
2, 39600, Note_off_c, 0, 60, 0
2, 39620, Note_off_c, 0, 54, 0
2, 39725, Note_on_c, 0, 54, 52
2, 39725, Note_on_c, 0, 60, 40
2, 39730, Note_on_c, 0, 50, 43
2, 39766, Note_on_c, 0, 60, 0
2, 39773, Note_on_c, 0, 54, 0
2, 39775, Note_on_c, 0, 50, 0
2, 39782, Note_on_c, 0, 66, 0
2, 39796, Note_on_c, 0, 67, 75
2, 39857, Note_on_c, 0, 67, 0
2, 39868, Note_on_c, 0, 69, 86
2, 39936, Note_on_c, 0, 69, 0
2, 39947, Note_on_c, 0, 68, 83
2, 39951, Note_on_c, 0, 43, 50
2, 39957, Control_c, 0, 64, 0
2, 40010, Control_c, 0, 64, 127
2, 40010, Note_on_c, 0, 66, 53
2, 40012, Note_on_c, 0, 68, 0
2, 40058, Note_on_c, 0, 66, 0
2, 40063, Note_on_c, 0, 43, 0
2, 40073, Note_on_c, 0, 67, 75
2, 40158, Note_on_c, 0, 64, 77
2, 40167, Note_on_c, 0, 53, 49
2, 40170, Note_on_c, 0, 59, 53
2, 40190, Note_on_c, 0, 64, 0
2, 40193, Note_on_c, 0, 59, 0
2, 40203, Note_on_c, 0, 53, 0
2, 40227, Note_on_c, 0, 71, 86
2, 40229, Note_on_c, 0, 67, 0
2, 40274, Note_on_c, 0, 71, 0
2, 40281, Note_on_c, 0, 74, 111
2, 40305, Note_on_c, 0, 44, 22
2, 40324, Note_on_c, 0, 74, 0
2, 40332, Note_on_c, 0, 71, 68
2, 40341, Note_on_c, 0, 44, 0
2, 40387, Note_on_c, 0, 71, 0
2, 40388, Note_on_c, 0, 72, 98
2, 40396, Note_on_c, 0, 36, 70
2, 40405, Control_c, 0, 64, 0
2, 40447, Control_c, 0, 64, 127
2, 40455, Note_on_c, 0, 43, 70
2, 40474, Note_on_c, 0, 36, 0
2, 40513, Note_on_c, 0, 43, 0
2, 40522, Note_on_c, 0, 52, 73
2, 40532, Note_on_c, 0, 52, 0
2, 40575, Note_on_c, 0, 59, 73
2, 40613, Note_on_c, 0, 72, 0
2, 40618, Note_on_c, 0, 59, 0
2, 40637, Note_on_c, 0, 64, 99
2, 40638, Note_on_c, 0, 72, 95
2, 40638, Note_on_c, 0, 76, 102
2, 40642, Note_on_c, 0, 67, 61
2, 40652, Control_c, 0, 64, 0
2, 40676, Control_c, 0, 64, 127
2, 40794, Note_off_c, 0, 67, 0
2, 40796, Note_off_c, 0, 72, 0
2, 40801, Note_off_c, 0, 76, 0
2, 40844, Note_off_c, 0, 64, 0
2, 40865, Note_on_c, 0, 79, 73
2, 40870, Note_on_c, 0, 72, 73
2, 40870, Note_on_c, 0, 67, 55
2, 40878, Note_on_c, 0, 64, 28
2, 40880, Note_on_c, 0, 76, 35
2, 40883, Control_c, 0, 64, 0
2, 40887, Note_off_c, 0, 76, 0
2, 40915, Note_on_c, 0, 57, 1
2, 40917, Control_c, 0, 64, 127
2, 40945, Note_on_c, 0, 56, 68
2, 40952, Control_c, 0, 64, 0
2, 40975, Control_c, 0, 64, 127
2, 41001, Note_off_c, 0, 57, 0
2, 41028, Note_off_c, 0, 56, 0
2, 41041, Note_off_c, 0, 67, 0
2, 41044, Note_off_c, 0, 64, 0
2, 41046, Note_off_c, 0, 72, 0
2, 41098, Note_off_c, 0, 79, 0
2, 41100, Note_on_c, 0, 55, 52
2, 41101, Note_on_c, 0, 64, 61
2, 41101, Note_on_c, 0, 60, 81
2, 41116, Control_c, 0, 64, 0
2, 41136, Control_c, 0, 64, 127
2, 41216, Note_off_c, 0, 64, 0
2, 41224, Note_off_c, 0, 60, 0
2, 41241, Note_off_c, 0, 55, 0
2, 41252, Note_on_c, 0, 84, 104
2, 41257, Note_on_c, 0, 72, 95
2, 41269, Note_on_c, 0, 84, 0
2, 41274, Note_on_c, 0, 72, 0
2, 41417, Control_c, 0, 64, 0
2, 41418, Note_on_c, 0, 61, 68
2, 41418, Note_on_c, 0, 79, 105
2, 41422, Note_on_c, 0, 69, 93
2, 41422, Note_on_c, 0, 72, 89
2, 41456, Control_c, 0, 64, 127
2, 41461, Note_off_c, 0, 79, 0
2, 41470, Note_off_c, 0, 69, 0
2, 41472, Note_off_c, 0, 72, 0
2, 41488, Note_on_c, 0, 69, 41
2, 41491, Note_on_c, 0, 77, 73
2, 41494, Note_on_c, 0, 61, 0
2, 41500, Note_on_c, 0, 60, 53
2, 41514, Note_on_c, 0, 77, 0
2, 41515, Note_on_c, 0, 69, 0
2, 41567, Note_on_c, 0, 60, 0
2, 41567, Note_on_c, 0, 76, 86
2, 41571, Control_c, 0, 64, 0
2, 41575, Note_on_c, 0, 65, 38
2, 41575, Note_on_c, 0, 59, 56
2, 41577, Note_on_c, 0, 69, 59
2, 41632, Note_on_c, 0, 76, 0
2, 41636, Note_on_c, 0, 59, 0
2, 41637, Note_on_c, 0, 58, 49
2, 41645, Note_on_c, 0, 69, 0
2, 41652, Note_on_c, 0, 65, 0
2, 41657, Control_c, 0, 64, 127
2, 41688, Control_c, 0, 64, 0
2, 41695, Note_off_c, 0, 58, 0
2, 41706, Note_on_c, 0, 74, 58
2, 41707, Note_on_c, 0, 65, 43
2, 41707, Note_on_c, 0, 69, 61
2, 41712, Note_on_c, 0, 57, 61
2, 41727, Control_c, 0, 64, 127
2, 41762, Note_off_c, 0, 69, 0
2, 41763, Note_off_c, 0, 74, 0
2, 41773, Note_off_c, 0, 65, 0
2, 41834, Note_off_c, 0, 57, 0
2, 41846, Note_on_c, 0, 72, 65
2, 41846, Note_on_c, 0, 62, 64
2, 41850, Control_c, 0, 64, 0
2, 41851, Note_on_c, 0, 65, 62
2, 41851, Note_on_c, 0, 53, 50
2, 41856, Note_on_c, 0, 69, 43
2, 41861, Note_on_c, 0, 53, 0
2, 41879, Note_on_c, 0, 69, 0
2, 41894, Note_on_c, 0, 72, 0
2, 41896, Control_c, 0, 64, 127
2, 41899, Note_off_c, 0, 65, 0
2, 41907, Note_off_c, 0, 62, 0
2, 41922, Note_on_c, 0, 43, 58
2, 41997, Note_on_c, 0, 63, 47
2, 41998, Note_on_c, 0, 71, 56
2, 42000, Control_c, 0, 64, 0
2, 42003, Note_on_c, 0, 53, 46
2, 42003, Note_on_c, 0, 59, 41
2, 42008, Note_on_c, 0, 67, 35
2, 42024, Note_on_c, 0, 59, 0
2, 42026, Note_on_c, 0, 67, 0
2, 42031, Control_c, 0, 64, 127
2, 42032, Note_off_c, 0, 63, 0
2, 42040, Note_off_c, 0, 71, 0
2, 42081, Note_on_c, 0, 74, 81
2, 42083, Note_on_c, 0, 71, 56
2, 42085, Note_on_c, 0, 68, 53
2, 42088, Control_c, 0, 64, 0
2, 42091, Note_on_c, 0, 62, 41
2, 42093, Note_on_c, 0, 64, 35
2, 42097, Note_on_c, 0, 43, 0
2, 42112, Control_c, 0, 64, 127
2, 42115, Note_off_c, 0, 53, 0
2, 42151, Note_off_c, 0, 71, 0
2, 42153, Note_off_c, 0, 64, 0
2, 42154, Note_off_c, 0, 62, 0
2, 42163, Note_off_c, 0, 74, 0
2, 42167, Note_on_c, 0, 43, 40
2, 42170, Note_on_c, 0, 68, 0
2, 42236, Note_on_c, 0, 36, 28
2, 42236, Note_on_c, 0, 67, 65
2, 42237, Note_on_c, 0, 62, 46
2, 42238, Note_on_c, 0, 72, 44
2, 42240, Note_on_c, 0, 52, 73
2, 42245, Control_c, 0, 64, 0
2, 42283, Control_c, 0, 64, 127
2, 42299, Note_off_c, 0, 36, 0
2, 42318, Note_off_c, 0, 43, 0
2, 42330, Note_off_c, 0, 52, 0
2, 42339, Note_off_c, 0, 62, 0
2, 42369, Note_off_c, 0, 67, 0
2, 42394, Note_off_c, 0, 72, 0
2, 42476, Note_on_c, 0, 57, 46
2, 42478, Note_on_c, 0, 52, 55
2, 42531, Note_on_c, 0, 52, 0
2, 42536, Note_on_c, 0, 57, 0
2, 42543, Note_on_c, 0, 60, 80
2, 42561, Note_on_c, 0, 60, 0
2, 42606, Note_on_c, 0, 64, 119
2, 42636, Note_on_c, 0, 64, 0
2, 42681, Note_on_c, 0, 67, 127
2, 42683, Note_on_c, 0, 64, 67
2, 42685, Control_c, 0, 64, 0
2, 42691, Note_on_c, 0, 60, 58
2, 42692, Note_on_c, 0, 59, 59
2, 42718, Control_c, 0, 64, 127
2, 42734, Note_off_c, 0, 67, 0
2, 42751, Note_on_c, 0, 67, 80
2, 42788, Note_on_c, 0, 67, 0
2, 42830, Note_on_c, 0, 59, 0
2, 42831, Note_on_c, 0, 72, 122
2, 42836, Note_on_c, 0, 60, 0
2, 42837, Note_on_c, 0, 57, 80
2, 42903, Control_c, 0, 64, 0
2, 42916, Note_off_c, 0, 64, 0
2, 42921, Control_c, 0, 64, 127
2, 42955, Note_off_c, 0, 57, 0
2, 42963, Note_off_c, 0, 72, 0
2, 43057, Note_on_c, 0, 67, 59
2, 43058, Note_on_c, 0, 64, 46
2, 43058, Note_on_c, 0, 60, 41
2, 43074, Note_on_c, 0, 60, 0
2, 43074, Note_on_c, 0, 64, 0
2, 43079, Note_on_c, 0, 67, 0
2, 43112, Note_on_c, 0, 64, 56
2, 43112, Note_on_c, 0, 67, 49
2, 43118, Note_on_c, 0, 60, 32
2, 43128, Note_on_c, 0, 60, 0
2, 43134, Note_on_c, 0, 64, 0
2, 43137, Note_on_c, 0, 67, 0
2, 43182, Note_on_c, 0, 57, 47
2, 43183, Control_c, 0, 64, 0
2, 43183, Note_on_c, 0, 64, 81
2, 43183, Note_on_c, 0, 67, 78
2, 43183, Note_on_c, 0, 50, 56
2, 43185, Note_on_c, 0, 62, 78
2, 43225, Note_on_c, 0, 64, 0
2, 43226, Note_on_c, 0, 67, 0
2, 43233, Note_on_c, 0, 62, 0
2, 43255, Note_on_c, 0, 62, 46
2, 43257, Note_on_c, 0, 64, 62
2, 43260, Note_on_c, 0, 67, 44
2, 43267, Control_c, 0, 64, 127
2, 43273, Note_off_c, 0, 67, 0
2, 43276, Note_off_c, 0, 62, 0
2, 43277, Note_off_c, 0, 64, 0
2, 43278, Note_off_c, 0, 57, 0
2, 43313, Control_c, 0, 64, 0
2, 43331, Note_on_c, 0, 60, 61
2, 43331, Note_on_c, 0, 64, 73
2, 43332, Note_on_c, 0, 67, 68
2, 43333, Note_on_c, 0, 57, 52
2, 43371, Control_c, 0, 64, 127
2, 43429, Note_off_c, 0, 64, 0
2, 43433, Note_off_c, 0, 60, 0
2, 43438, Note_off_c, 0, 57, 0
2, 43438, Note_off_c, 0, 67, 0
2, 43519, Note_off_c, 0, 50, 0
2, 43553, Note_on_c, 0, 60, 58
2, 43558, Note_on_c, 0, 57, 38
2, 43575, Note_on_c, 0, 57, 0
2, 43576, Note_on_c, 0, 60, 0
2, 43615, Note_on_c, 0, 60, 58
2, 43638, Note_on_c, 0, 60, 0
2, 43682, Note_on_c, 0, 60, 77
2, 43683, Note_on_c, 0, 53, 59
2, 43686, Note_on_c, 0, 57, 50
2, 43693, Control_c, 0, 64, 0
2, 43717, Note_off_c, 0, 57, 0
2, 43719, Note_off_c, 0, 60, 0
2, 43735, Note_off_c, 0, 53, 0
2, 43750, Note_on_c, 0, 43, 47
2, 43773, Control_c, 0, 64, 127
2, 43821, Control_c, 0, 64, 0
2, 43825, Note_on_c, 0, 56, 50
2, 43825, Note_on_c, 0, 59, 83
2, 43831, Note_on_c, 0, 53, 47
2, 43862, Control_c, 0, 64, 127
2, 43962, Note_off_c, 0, 53, 0
2, 43963, Note_off_c, 0, 43, 0
2, 44062, Note_on_c, 0, 43, 59
2, 44073, Note_on_c, 0, 59, 0
2, 44075, Note_on_c, 0, 56, 0
2, 44150, Note_on_c, 0, 59, 67
2, 44150, Note_on_c, 0, 36, 61
2, 44151, Note_on_c, 0, 64, 77
2, 44156, Control_c, 0, 64, 0
2, 44158, Note_on_c, 0, 52, 52
2, 44169, Note_on_c, 0, 43, 0
2, 44198, Control_c, 0, 64, 127
2, 44238, Note_off_c, 0, 36, 0
2, 44248, Note_off_c, 0, 59, 0
2, 44252, Note_off_c, 0, 64, 0
2, 44264, Note_off_c, 0, 52, 0
2, 44383, Note_on_c, 0, 52, 84
2, 44385, Note_on_c, 0, 67, 93
2, 44385, Note_on_c, 0, 62, 93
2, 44386, Note_on_c, 0, 57, 80
2, 44393, Control_c, 0, 64, 0
2, 44435, Control_c, 0, 64, 127
2, 44496, Note_off_c, 0, 52, 0
2, 44497, Note_off_c, 0, 57, 0
2, 44515, Note_off_c, 0, 62, 0
2, 44517, Note_off_c, 0, 67, 0
2, 44787, Note_on_c, 0, 72, 83
2, 44788, Note_on_c, 0, 62, 86
2, 44790, Note_on_c, 0, 67, 95
2, 44791, Note_on_c, 0, 59, 84
2, 44798, Control_c, 0, 64, 0
2, 44843, Control_c, 0, 64, 127
2, 44846, Note_off_c, 0, 59, 0
2, 44846, Note_off_c, 0, 62, 0
2, 44848, Note_on_c, 0, 58, 74
2, 44853, Note_on_c, 0, 67, 0
2, 44857, Note_on_c, 0, 72, 0
2, 44908, Control_c, 0, 64, 0
2, 44912, Note_on_c, 0, 76, 89
2, 44913, Note_on_c, 0, 64, 92
2, 44913, Note_on_c, 0, 69, 98
2, 44915, Note_on_c, 0, 58, 0
2, 44915, Note_on_c, 0, 57, 78
2, 44955, Control_c, 0, 64, 127
2, 45025, Note_off_c, 0, 57, 0
2, 45026, Note_on_c, 0, 51, 89
2, 45065, Note_on_c, 0, 64, 0
2, 45080, Note_on_c, 0, 76, 0
2, 45081, Note_on_c, 0, 69, 0
2, 45118, Note_on_c, 0, 51, 0
2, 45133, Note_on_c, 0, 74, 87
2, 45137, Note_on_c, 0, 69, 89
2, 45137, Note_on_c, 0, 65, 64
2, 45141, Note_on_c, 0, 60, 64
2, 45142, Note_on_c, 0, 50, 65
2, 45145, Control_c, 0, 64, 0
2, 45187, Control_c, 0, 64, 127
2, 45296, Note_off_c, 0, 60, 0
2, 45320, Note_off_c, 0, 65, 0
2, 45323, Note_off_c, 0, 69, 0
2, 45324, Note_off_c, 0, 50, 0
2, 45329, Note_off_c, 0, 74, 0
2, 45388, Note_on_c, 0, 74, 95
2, 45391, Note_on_c, 0, 69, 113
2, 45393, Note_on_c, 0, 62, 92
2, 45396, Note_on_c, 0, 47, 70
2, 45396, Note_on_c, 0, 57, 68
2, 45405, Control_c, 0, 64, 0
2, 45444, Note_off_c, 0, 62, 0
2, 45445, Control_c, 0, 64, 127
2, 45453, Note_off_c, 0, 74, 0
2, 45457, Note_on_c, 0, 72, 101
2, 45474, Note_on_c, 0, 47, 0
2, 45479, Note_on_c, 0, 69, 0
2, 45492, Note_on_c, 0, 57, 0
2, 45515, Note_on_c, 0, 71, 92
2, 45571, Note_on_c, 0, 69, 98
2, 45588, Note_on_c, 0, 71, 0
2, 45589, Note_on_c, 0, 72, 0
2, 45608, Note_on_c, 0, 69, 0
2, 45632, Note_on_c, 0, 68, 77
2, 45633, Note_on_c, 0, 56, 59
2, 45635, Control_c, 0, 64, 0
2, 45636, Note_on_c, 0, 62, 50
2, 45678, Control_c, 0, 64, 127
2, 45681, Note_off_c, 0, 62, 0
2, 45698, Note_off_c, 0, 56, 0
2, 45709, Note_off_c, 0, 68, 0
2, 45868, Note_on_c, 0, 62, 64
2, 45870, Note_on_c, 0, 68, 53
2, 45871, Control_c, 0, 64, 0
2, 45871, Note_on_c, 0, 74, 52
2, 45872, Note_on_c, 0, 64, 50
2, 45873, Note_on_c, 0, 56, 46
2, 45873, Note_on_c, 0, 71, 49
2, 45910, Control_c, 0, 64, 127
2, 45940, Note_off_c, 0, 62, 0
2, 45946, Note_off_c, 0, 56, 0
2, 45959, Note_off_c, 0, 71, 0
2, 45990, Note_off_c, 0, 64, 0
2, 46003, Note_off_c, 0, 68, 0
2, 46011, Note_off_c, 0, 74, 0
2, 46022, Note_on_c, 0, 71, 65
2, 46088, Note_on_c, 0, 71, 0
2, 46097, Control_c, 0, 64, 0
2, 46100, Note_on_c, 0, 64, 37
2, 46102, Note_on_c, 0, 72, 70
2, 46103, Note_on_c, 0, 57, 49
2, 46125, Note_on_c, 0, 64, 0
2, 46138, Note_on_c, 0, 57, 0
2, 46152, Control_c, 0, 64, 127
2, 46235, Note_on_c, 0, 45, 70
2, 46320, Note_on_c, 0, 56, 70
2, 46321, Note_on_c, 0, 68, 62
2, 46323, Note_on_c, 0, 64, 58
2, 46328, Control_c, 0, 64, 0
2, 46360, Control_c, 0, 64, 127
2, 46450, Note_off_c, 0, 56, 0
2, 46452, Note_off_c, 0, 72, 0
2, 46454, Note_off_c, 0, 68, 0
2, 46460, Note_off_c, 0, 64, 0
2, 46481, Note_on_c, 0, 52, 35
2, 46548, Note_on_c, 0, 52, 0
2, 46563, Note_on_c, 0, 55, 53
2, 46563, Note_on_c, 0, 67, 53
2, 46566, Note_on_c, 0, 60, 29
2, 46566, Note_on_c, 0, 64, 50
2, 46566, Control_c, 0, 64, 0
2, 46602, Control_c, 0, 64, 127
2, 46680, Note_off_c, 0, 67, 0
2, 46688, Note_off_c, 0, 64, 0
2, 46712, Note_off_c, 0, 45, 0
2, 46719, Note_off_c, 0, 55, 0
2, 46742, Note_off_c, 0, 60, 0
2, 46793, Note_on_c, 0, 54, 47
2, 46795, Note_on_c, 0, 59, 65
2, 46796, Note_on_c, 0, 44, 53
2, 46805, Control_c, 0, 64, 0
2, 46846, Control_c, 0, 64, 127
2, 46913, Note_off_c, 0, 54, 0
2, 46926, Note_off_c, 0, 44, 0
2, 47016, Note_off_c, 0, 59, 0
2, 47031, Control_c, 0, 64, 0
2, 47038, Note_on_c, 0, 43, 49
2, 47038, Note_on_c, 0, 58, 49
2, 47041, Note_on_c, 0, 53, 46
2, 47060, Control_c, 0, 64, 127
2, 47088, Note_off_c, 0, 58, 0
2, 47116, Note_off_c, 0, 43, 0
2, 47132, Note_off_c, 0, 53, 0
2, 47286, Note_on_c, 0, 74, 127
2, 47286, Note_on_c, 0, 62, 61
2, 47286, Note_on_c, 0, 58, 52
2, 47288, Note_on_c, 0, 57, 49
2, 47291, Control_c, 0, 64, 0
2, 47317, Note_off_c, 0, 62, 0
2, 47320, Note_off_c, 0, 57, 0
2, 47326, Note_off_c, 0, 58, 0
2, 47345, Note_on_c, 0, 70, 86
2, 47356, Control_c, 0, 64, 127
2, 47366, Note_off_c, 0, 74, 0
2, 47367, Control_c, 0, 64, 0
2, 47386, Note_off_c, 0, 70, 0
2, 47402, Note_on_c, 0, 69, 58
2, 47455, Note_on_c, 0, 69, 0
2, 47463, Control_c, 0, 64, 127
2, 47470, Note_on_c, 0, 67, 40
2, 47477, Note_on_c, 0, 72, 95
2, 47493, Note_on_c, 0, 67, 0
2, 47509, Note_on_c, 0, 72, 0
2, 47528, Control_c, 0, 64, 0
2, 47535, Note_on_c, 0, 36, 78
2, 47537, Note_on_c, 0, 52, 74
2, 47543, Note_on_c, 0, 70, 114
2, 47588, Control_c, 0, 64, 127
2, 47590, Note_off_c, 0, 36, 0
2, 47612, Note_on_c, 0, 66, 74
2, 47614, Note_on_c, 0, 52, 0
2, 47636, Note_on_c, 0, 70, 0
2, 47669, Note_on_c, 0, 66, 0
2, 47677, Note_on_c, 0, 64, 58
2, 47723, Note_on_c, 0, 64, 0
2, 47742, Note_on_c, 0, 69, 105
2, 47794, Note_on_c, 0, 69, 0
2, 47805, Note_on_c, 0, 67, 68
2, 47810, Note_on_c, 0, 58, 37
2, 47815, Control_c, 0, 64, 0
2, 47828, Note_off_c, 0, 58, 0
2, 47851, Note_off_c, 0, 67, 0
2, 47871, Note_on_c, 0, 64, 80
2, 47908, Note_on_c, 0, 64, 0
2, 47928, Control_c, 0, 64, 127
2, 47936, Note_on_c, 0, 44, 47
2, 47941, Note_on_c, 0, 61, 41
2, 47951, Note_on_c, 0, 44, 0
2, 48031, Note_on_c, 0, 61, 0
2, 48063, Note_on_c, 0, 62, 58
2, 48065, Control_c, 0, 64, 0
2, 48066, Note_on_c, 0, 57, 43
2, 48066, Note_on_c, 0, 41, 38
2, 48067, Note_on_c, 0, 50, 35
2, 48072, Note_on_c, 0, 60, 49
2, 48103, Control_c, 0, 64, 127
2, 48119, Note_off_c, 0, 57, 0
2, 48133, Note_off_c, 0, 62, 0
2, 48135, Note_off_c, 0, 60, 0
2, 48143, Note_off_c, 0, 41, 0
2, 48153, Note_off_c, 0, 50, 0
2, 48305, Note_on_c, 0, 64, 38
2, 48310, Note_on_c, 0, 60, 44
2, 48315, Note_on_c, 0, 57, 43
2, 48318, Note_on_c, 0, 53, 46
2, 48396, Note_on_c, 0, 57, 0
2, 48400, Note_on_c, 0, 60, 0
2, 48402, Note_on_c, 0, 64, 0
2, 48443, Note_on_c, 0, 53, 0
2, 48468, Note_on_c, 0, 76, 127
2, 48509, Note_on_c, 0, 76, 0
2, 48526, Note_on_c, 0, 56, 37
2, 48551, Note_on_c, 0, 76, 102
2, 48553, Note_on_c, 0, 68, 81
2, 48553, Control_c, 0, 64, 0
2, 48555, Note_on_c, 0, 72, 81
2, 48557, Note_on_c, 0, 65, 65
2, 48558, Note_on_c, 0, 60, 84
2, 48561, Note_on_c, 0, 56, 0
2, 48587, Control_c, 0, 64, 127
2, 48656, Note_off_c, 0, 76, 0
2, 48665, Note_off_c, 0, 72, 0
2, 48667, Note_off_c, 0, 65, 0
2, 48681, Note_off_c, 0, 68, 0
2, 48708, Note_on_c, 0, 74, 98
2, 48773, Note_on_c, 0, 74, 0
2, 48774, Note_on_c, 0, 60, 0
2, 48793, Note_on_c, 0, 56, 47
2, 48797, Note_on_c, 0, 72, 86
2, 48800, Control_c, 0, 64, 0
2, 48803, Note_on_c, 0, 68, 41
2, 48805, Note_on_c, 0, 60, 41
2, 48806, Note_on_c, 0, 65, 32
2, 48832, Control_c, 0, 64, 127
2, 48868, Note_off_c, 0, 60, 0
2, 48868, Note_off_c, 0, 68, 0
2, 48877, Note_off_c, 0, 65, 0
2, 48878, Note_off_c, 0, 56, 0
2, 48939, Note_off_c, 0, 72, 0
2, 48940, Note_on_c, 0, 68, 67
2, 48977, Note_on_c, 0, 68, 0
2, 49023, Control_c, 0, 64, 0
2, 49026, Note_on_c, 0, 71, 59
2, 49030, Note_on_c, 0, 67, 47
2, 49030, Note_on_c, 0, 62, 38
2, 49030, Note_on_c, 0, 55, 47
2, 49061, Control_c, 0, 64, 127
2, 49075, Note_off_c, 0, 55, 0
2, 49100, Note_on_c, 0, 72, 83
2, 49126, Note_on_c, 0, 72, 0
2, 49127, Note_on_c, 0, 62, 0
2, 49130, Note_on_c, 0, 67, 0
2, 49136, Note_on_c, 0, 71, 0
2, 49168, Note_on_c, 0, 74, 80
2, 49245, Note_on_c, 0, 40, 64
2, 49245, Note_on_c, 0, 67, 56
2, 49246, Note_on_c, 0, 62, 37
2, 49253, Control_c, 0, 64, 0
2, 49257, Note_on_c, 0, 55, 35
2, 49290, Control_c, 0, 64, 127
2, 49292, Note_off_c, 0, 55, 0
2, 49302, Note_off_c, 0, 40, 0
2, 49348, Note_off_c, 0, 62, 0
2, 49385, Note_off_c, 0, 74, 0
2, 49392, Note_off_c, 0, 67, 0
2, 49402, Note_on_c, 0, 62, 53
2, 49423, Note_on_c, 0, 62, 0
2, 49488, Note_on_c, 0, 66, 58
2, 49488, Note_on_c, 0, 63, 55
2, 49488, Note_on_c, 0, 60, 61
2, 49492, Note_on_c, 0, 39, 50
2, 49493, Note_on_c, 0, 54, 40
2, 49495, Control_c, 0, 64, 0
2, 49531, Control_c, 0, 64, 127
2, 49566, Note_off_c, 0, 60, 0
2, 49579, Note_off_c, 0, 39, 0
2, 49581, Note_off_c, 0, 63, 0
2, 49588, Note_off_c, 0, 66, 0
2, 49604, Note_off_c, 0, 54, 0
2, 49671, Note_on_c, 0, 84, 127
2, 49671, Note_on_c, 0, 81, 126
2, 49708, Note_on_c, 0, 84, 0
2, 49709, Note_on_c, 0, 81, 0
2, 49732, Note_on_c, 0, 84, 107
2, 49732, Note_on_c, 0, 81, 107
2, 49736, Note_on_c, 0, 63, 68
2, 49746, Note_on_c, 0, 60, 52
2, 49750, Note_on_c, 0, 54, 40
2, 49758, Note_on_c, 0, 60, 0
2, 49762, Note_on_c, 0, 63, 0
2, 49777, Note_on_c, 0, 54, 0
2, 49779, Note_on_c, 0, 84, 0
2, 49780, Note_on_c, 0, 81, 0
2, 49801, Note_on_c, 0, 83, 104
2, 49803, Note_on_c, 0, 79, 90
2, 49833, Note_on_c, 0, 79, 0
2, 49836, Note_on_c, 0, 83, 0
2, 49862, Note_on_c, 0, 83, 74
2, 49862, Note_on_c, 0, 79, 81
2, 49885, Note_on_c, 0, 79, 0
2, 49887, Note_on_c, 0, 83, 0
2, 49918, Note_on_c, 0, 78, 84
2, 49922, Note_on_c, 0, 82, 47
2, 49939, Note_on_c, 0, 82, 0
2, 49944, Note_on_c, 0, 78, 0
2, 49963, Note_on_c, 0, 78, 64
2, 49967, Note_on_c, 0, 82, 75
2, 50003, Note_on_c, 0, 82, 0
2, 50005, Control_c, 0, 64, 0
2, 50008, Note_off_c, 0, 78, 0
2, 50013, Note_on_c, 0, 38, 52
2, 50018, Note_on_c, 0, 77, 78
2, 50018, Note_on_c, 0, 53, 32
2, 50020, Note_on_c, 0, 81, 81
2, 50043, Control_c, 0, 64, 127
2, 50075, Note_off_c, 0, 38, 0
2, 50100, Note_off_c, 0, 53, 0
2, 50105, Note_off_c, 0, 77, 0
2, 50148, Note_off_c, 0, 81, 0
2, 50162, Note_on_c, 0, 77, 68
2, 50165, Note_on_c, 0, 72, 55
2, 50246, Note_on_c, 0, 60, 55
2, 50251, Note_on_c, 0, 57, 49
2, 50255, Note_on_c, 0, 53, 52
2, 50257, Note_on_c, 0, 50, 46
2, 50282, Note_on_c, 0, 72, 0
2, 50289, Note_on_c, 0, 57, 0
2, 50290, Note_on_c, 0, 53, 0
2, 50292, Note_on_c, 0, 77, 0
2, 50299, Note_on_c, 0, 60, 0
2, 50303, Note_on_c, 0, 50, 0
2, 50407, Note_on_c, 0, 91, 127
2, 50477, Note_on_c, 0, 91, 0
2, 50490, Note_on_c, 0, 83, 101
2, 50492, Note_on_c, 0, 43, 65
2, 50493, Note_on_c, 0, 87, 108
2, 50498, Note_on_c, 0, 59, 67
2, 50500, Control_c, 0, 64, 0
2, 50533, Control_c, 0, 64, 127
2, 50549, Note_off_c, 0, 87, 0
2, 50552, Note_off_c, 0, 83, 0
2, 50569, Note_off_c, 0, 43, 0
2, 50570, Note_on_c, 0, 91, 61
2, 50571, Note_on_c, 0, 89, 81
2, 50586, Note_on_c, 0, 89, 0
2, 50590, Note_on_c, 0, 91, 0
2, 50595, Note_on_c, 0, 59, 0
2, 50632, Note_on_c, 0, 81, 86
2, 50633, Note_on_c, 0, 85, 92
2, 50670, Note_on_c, 0, 81, 0
2, 50671, Note_on_c, 0, 85, 0
2, 50687, Note_on_c, 0, 89, 98
2, 50722, Note_on_c, 0, 89, 0
2, 50745, Note_on_c, 0, 79, 59
2, 50746, Note_on_c, 0, 83, 74
2, 50747, Note_on_c, 0, 64, 59
2, 50752, Note_on_c, 0, 59, 59
2, 50753, Note_on_c, 0, 53, 43
2, 50757, Control_c, 0, 64, 0
2, 50773, Note_off_c, 0, 64, 0
2, 50777, Note_off_c, 0, 59, 0
2, 50781, Control_c, 0, 64, 127
2, 50793, Note_off_c, 0, 53, 0
2, 50793, Note_off_c, 0, 83, 0
2, 50797, Note_on_c, 0, 87, 87
2, 50820, Note_on_c, 0, 79, 0
2, 50829, Note_on_c, 0, 87, 0
2, 50853, Note_on_c, 0, 81, 89
2, 50855, Note_on_c, 0, 77, 62
2, 50895, Note_on_c, 0, 81, 0
2, 50910, Note_on_c, 0, 85, 81
2, 50931, Note_on_c, 0, 77, 0
2, 50936, Note_on_c, 0, 85, 0
2, 50981, Note_on_c, 0, 36, 44
2, 50981, Note_on_c, 0, 83, 56
2, 50985, Note_on_c, 0, 52, 41
2, 50988, Note_on_c, 0, 74, 20
2, 50988, Control_c, 0, 64, 0
2, 51011, Note_off_c, 0, 74, 0
2, 51040, Note_off_c, 0, 52, 0
2, 51041, Control_c, 0, 64, 127
2, 51058, Note_off_c, 0, 83, 0
2, 51058, Note_on_c, 0, 43, 47
2, 51063, Note_on_c, 0, 80, 40
2, 51071, Note_on_c, 0, 80, 0
2, 51130, Note_on_c, 0, 78, 59
2, 51131, Note_on_c, 0, 36, 0
2, 51131, Note_on_c, 0, 75, 50
2, 51135, Note_on_c, 0, 43, 0
2, 51136, Note_on_c, 0, 71, 46
2, 51138, Note_on_c, 0, 52, 46
2, 51155, Note_on_c, 0, 52, 0
2, 51169, Note_on_c, 0, 71, 0
2, 51191, Note_on_c, 0, 83, 80
2, 51201, Note_on_c, 0, 75, 0
2, 51207, Note_on_c, 0, 78, 0
2, 51226, Note_on_c, 0, 83, 0
2, 51253, Note_on_c, 0, 62, 74
2, 51253, Note_on_c, 0, 79, 77
2, 51255, Note_on_c, 0, 74, 53
2, 51258, Note_on_c, 0, 52, 53
2, 51260, Note_on_c, 0, 76, 71
2, 51262, Note_on_c, 0, 57, 55
2, 51267, Control_c, 0, 64, 0
2, 51303, Control_c, 0, 64, 127
2, 51349, Note_off_c, 0, 57, 0
2, 51356, Note_off_c, 0, 52, 0
2, 51370, Note_off_c, 0, 79, 0
2, 51374, Note_off_c, 0, 62, 0
2, 51375, Note_off_c, 0, 76, 0
2, 51378, Note_off_c, 0, 74, 0
2, 51495, Note_on_c, 0, 76, 81
2, 51496, Note_on_c, 0, 64, 64
2, 51500, Note_on_c, 0, 57, 53
2, 51501, Note_on_c, 0, 72, 73
2, 51501, Note_on_c, 0, 60, 53
2, 51502, Note_on_c, 0, 71, 55
2, 51506, Control_c, 0, 64, 0
2, 51556, Note_off_c, 0, 76, 0
2, 51561, Control_c, 0, 64, 127
2, 51562, Note_off_c, 0, 72, 0
2, 51565, Note_off_c, 0, 71, 0
2, 51575, Note_off_c, 0, 57, 0
2, 51575, Note_on_c, 0, 56, 67
2, 51589, Note_on_c, 0, 64, 0
2, 51681, Note_on_c, 0, 56, 0
2, 51684, Note_on_c, 0, 60, 0
2, 51738, Note_on_c, 0, 64, 70
2, 51740, Note_on_c, 0, 71, 56
2, 51741, Note_on_c, 0, 55, 65
2, 51743, Note_on_c, 0, 60, 53
2, 51776, Note_on_c, 0, 60, 0
2, 51797, Note_on_c, 0, 55, 0
2, 51798, Note_on_c, 0, 64, 0
2, 51800, Note_on_c, 0, 71, 0
2, 51901, Note_on_c, 0, 60, 111
2, 51950, Note_on_c, 0, 59, 86
2, 51961, Note_on_c, 0, 60, 0
2, 51975, Note_on_c, 0, 58, 74
2, 51981, Note_on_c, 0, 59, 0
2, 52002, Note_on_c, 0, 57, 84
2, 52006, Note_on_c, 0, 58, 0
2, 52010, Note_on_c, 0, 42, 87
2, 52016, Control_c, 0, 64, 0
2, 52057, Control_c, 0, 64, 127
2, 52063, Note_off_c, 0, 57, 0
2, 52115, Note_off_c, 0, 42, 0
2, 52158, Note_on_c, 0, 72, 105
2, 52163, Note_on_c, 0, 69, 56
2, 52173, Note_on_c, 0, 69, 0
2, 52205, Note_on_c, 0, 72, 0
2, 52255, Note_on_c, 0, 64, 80
2, 52255, Note_on_c, 0, 72, 119
2, 52258, Note_on_c, 0, 60, 61
2, 52260, Note_on_c, 0, 54, 50
2, 52288, Note_on_c, 0, 72, 0
2, 52295, Note_on_c, 0, 64, 0
2, 52301, Note_on_c, 0, 60, 0
2, 52327, Note_on_c, 0, 72, 119
2, 52332, Note_on_c, 0, 54, 0
2, 52385, Note_on_c, 0, 60, 84
2, 52407, Note_on_c, 0, 60, 0
2, 52427, Note_on_c, 0, 72, 0
2, 52446, Note_on_c, 0, 60, 87
2, 52457, Note_on_c, 0, 60, 0
2, 52503, Note_on_c, 0, 72, 105
2, 52508, Note_on_c, 0, 69, 110
2, 52508, Note_on_c, 0, 65, 102
2, 52511, Note_on_c, 0, 47, 56
2, 52513, Note_on_c, 0, 60, 98
2, 52515, Note_on_c, 0, 51, 71
2, 52518, Control_c, 0, 64, 0
2, 52520, Note_on_c, 0, 57, 77
2, 52567, Control_c, 0, 64, 127
2, 52612, Note_off_c, 0, 57, 0
2, 52639, Note_off_c, 0, 69, 0
2, 52658, Note_off_c, 0, 72, 0
2, 52663, Note_off_c, 0, 65, 0
2, 52668, Note_off_c, 0, 60, 0
2, 52761, Note_off_c, 0, 51, 0
2, 52770, Note_on_c, 0, 71, 77
2, 52773, Note_on_c, 0, 63, 65
2, 52775, Note_on_c, 0, 66, 73
2, 52776, Note_on_c, 0, 59, 65
2, 52776, Note_on_c, 0, 56, 58
2, 52788, Control_c, 0, 64, 0
2, 52833, Note_off_c, 0, 56, 0
2, 52842, Control_c, 0, 64, 127
2, 52851, Note_off_c, 0, 47, 0
2, 52871, Control_c, 0, 64, 0
2, 52918, Note_off_c, 0, 71, 0
2, 52928, Control_c, 0, 64, 127
2, 52935, Note_off_c, 0, 66, 0
2, 52936, Note_on_c, 0, 51, 47
2, 52937, Note_on_c, 0, 59, 0
2, 52946, Note_on_c, 0, 63, 0
2, 53001, Note_on_c, 0, 51, 0
2, 53003, Note_on_c, 0, 62, 77
2, 53005, Note_on_c, 0, 59, 62
2, 53006, Note_on_c, 0, 69, 64
2, 53007, Note_on_c, 0, 52, 83
2, 53007, Control_c, 0, 64, 0
2, 53069, Note_off_c, 0, 52, 0
2, 53077, Note_on_c, 0, 40, 78
2, 53098, Control_c, 0, 64, 127
2, 53105, Note_off_c, 0, 59, 0
2, 53110, Note_off_c, 0, 62, 0
2, 53124, Note_off_c, 0, 69, 0
2, 53149, Note_off_c, 0, 40, 0
2, 53150, Note_on_c, 0, 59, 95
2, 53150, Note_on_c, 0, 67, 99
2, 53152, Note_on_c, 0, 62, 99
2, 53156, Note_on_c, 0, 47, 81
2, 53230, Note_on_c, 0, 54, 107
2, 53278, Note_on_c, 0, 62, 0
2, 53282, Note_on_c, 0, 59, 0
2, 53390, Note_on_c, 0, 54, 0
2, 53451, Note_on_c, 0, 47, 0
2, 53486, Note_on_c, 0, 67, 0
2, 53497, Note_on_c, 0, 67, 32
2, 53498, Note_on_c, 0, 63, 75
2, 53498, Note_on_c, 0, 59, 75
2, 53502, Note_on_c, 0, 53, 52
2, 53513, Control_c, 0, 64, 0
2, 53566, Control_c, 0, 64, 127
2, 53655, Note_off_c, 0, 59, 0
2, 53671, Note_off_c, 0, 63, 0
2, 53752, Note_on_c, 0, 43, 64
2, 53777, Note_on_c, 0, 67, 0
2, 53790, Note_on_c, 0, 53, 0
2, 53794, Note_on_c, 0, 43, 0
2, 53836, Note_on_c, 0, 69, 81
2, 53866, Note_on_c, 0, 69, 0
2, 53908, Note_on_c, 0, 71, 67
2, 53934, Note_on_c, 0, 71, 0
2, 53998, Note_on_c, 0, 71, 62
2, 54001, Note_on_c, 0, 43, 56
2, 54001, Control_c, 0, 64, 0
2, 54006, Note_on_c, 0, 67, 47
2, 54007, Note_on_c, 0, 62, 40
2, 54037, Control_c, 0, 64, 127
2, 54064, Note_off_c, 0, 43, 0
2, 54079, Note_off_c, 0, 67, 0
2, 54082, Note_off_c, 0, 62, 0
2, 54089, Note_off_c, 0, 71, 0
2, 54170, Note_on_c, 0, 72, 80
2, 54197, Note_on_c, 0, 72, 0
2, 54255, Note_on_c, 0, 40, 61
2, 54260, Note_on_c, 0, 74, 81
2, 54265, Note_on_c, 0, 67, 50
2, 54265, Note_on_c, 0, 62, 50
2, 54266, Control_c, 0, 64, 0
2, 54290, Note_off_c, 0, 40, 0
2, 54300, Control_c, 0, 64, 127
2, 54387, Note_off_c, 0, 67, 0
2, 54403, Note_off_c, 0, 62, 0
2, 54458, Note_off_c, 0, 74, 0
2, 54510, Note_on_c, 0, 74, 71
2, 54510, Note_on_c, 0, 67, 75
2, 54511, Note_on_c, 0, 60, 74
2, 54516, Control_c, 0, 64, 0
2, 54517, Note_on_c, 0, 62, 56
2, 54518, Note_on_c, 0, 55, 55
2, 54523, Note_on_c, 0, 45, 41
2, 54525, Note_on_c, 0, 62, 0
2, 54581, Control_c, 0, 64, 127
2, 54604, Note_off_c, 0, 45, 0
2, 54625, Note_off_c, 0, 55, 0
2, 54626, Note_off_c, 0, 60, 0
2, 54635, Note_off_c, 0, 67, 0
2, 54736, Note_off_c, 0, 74, 0
2, 54773, Note_on_c, 0, 71, 65
2, 54776, Note_on_c, 0, 64, 56
2, 54778, Note_on_c, 0, 68, 55
2, 54778, Note_on_c, 0, 60, 64
2, 54781, Note_on_c, 0, 54, 52
2, 54791, Control_c, 0, 64, 0
2, 54841, Control_c, 0, 64, 127
2, 54928, Note_off_c, 0, 71, 0
2, 54933, Note_off_c, 0, 60, 0
2, 54948, Note_off_c, 0, 68, 0
2, 54951, Note_off_c, 0, 64, 0
2, 55021, Note_off_c, 0, 54, 0
2, 55052, Note_on_c, 0, 65, 84
2, 55052, Note_on_c, 0, 60, 49
2, 55057, Note_on_c, 0, 57, 40
2, 55058, Note_on_c, 0, 50, 50
2, 55060, Control_c, 0, 64, 0
2, 55093, Control_c, 0, 64, 127
2, 55133, Note_off_c, 0, 57, 0
2, 55158, Note_off_c, 0, 50, 0
2, 55158, Note_off_c, 0, 65, 0
2, 55179, Note_off_c, 0, 60, 0
2, 55313, Note_on_c, 0, 60, 80
2, 55316, Note_on_c, 0, 57, 80
2, 55318, Note_on_c, 0, 53, 53
2, 55378, Note_on_c, 0, 57, 0
2, 55380, Note_on_c, 0, 53, 0
2, 55380, Note_on_c, 0, 60, 0
2, 55581, Note_on_c, 0, 63, 77
2, 55581, Note_on_c, 0, 56, 84
2, 55582, Note_on_c, 0, 67, 99
2, 55583, Note_on_c, 0, 55, 83
2, 55583, Note_on_c, 0, 46, 68
2, 55585, Note_on_c, 0, 60, 86
2, 55592, Control_c, 0, 64, 0
2, 55633, Control_c, 0, 64, 127
2, 55674, Note_off_c, 0, 55, 0
2, 55747, Note_off_c, 0, 63, 0
2, 55753, Note_off_c, 0, 60, 0
2, 55762, Note_off_c, 0, 56, 0
2, 55763, Note_on_c, 0, 66, 13
2, 55792, Note_on_c, 0, 67, 0
2, 55796, Note_on_c, 0, 66, 0
2, 55860, Note_on_c, 0, 65, 81
2, 55861, Note_on_c, 0, 56, 46
2, 55861, Note_on_c, 0, 62, 75
2, 55862, Note_on_c, 0, 59, 68
2, 55863, Note_on_c, 0, 53, 46
2, 55880, Note_on_c, 0, 53, 0
2, 55895, Note_on_c, 0, 46, 0
2, 56035, Note_on_c, 0, 38, 80
2, 56040, Note_on_c, 0, 59, 0
2, 56046, Note_on_c, 0, 62, 0
2, 56048, Note_on_c, 0, 38, 0
2, 56052, Note_on_c, 0, 56, 0
2, 56108, Note_on_c, 0, 65, 0
2, 56141, Note_on_c, 0, 63, 92
2, 56143, Note_on_c, 0, 58, 84
2, 56146, Note_on_c, 0, 55, 80
2, 56151, Note_on_c, 0, 39, 70
2, 56152, Control_c, 0, 64, 0
2, 56196, Control_c, 0, 64, 127
2, 56213, Note_off_c, 0, 55, 0
2, 56234, Note_off_c, 0, 58, 0
2, 56301, Note_off_c, 0, 63, 0
2, 56305, Note_on_c, 0, 46, 70
2, 56306, Note_on_c, 0, 39, 0
2, 56402, Note_on_c, 0, 67, 126
2, 56402, Note_on_c, 0, 63, 116
2, 56407, Note_on_c, 0, 55, 99
2, 56520, Note_on_c, 0, 46, 0
2, 56540, Note_on_c, 0, 55, 0
2, 56584, Note_on_c, 0, 63, 0
2, 56609, Note_on_c, 0, 67, 0
2, 56667, Note_on_c, 0, 70, 105
2, 56670, Note_on_c, 0, 67, 105
2, 56670, Note_on_c, 0, 63, 92
2, 56672, Note_on_c, 0, 58, 80
2, 56740, Note_on_c, 0, 58, 0
2, 56806, Note_on_c, 0, 63, 0
2, 56815, Note_on_c, 0, 70, 0
2, 56846, Note_on_c, 0, 67, 0
2, 56936, Note_on_c, 0, 63, 107
2, 56936, Note_on_c, 0, 67, 116
2, 56940, Note_on_c, 0, 75, 90
2, 56940, Note_on_c, 0, 60, 90
2, 57059, Note_on_c, 0, 63, 0
2, 57061, Note_on_c, 0, 75, 0
2, 57068, Note_on_c, 0, 67, 0
2, 57077, Note_on_c, 0, 75, 116
2, 57080, Note_on_c, 0, 67, 62
2, 57085, Note_on_c, 0, 51, 78
2, 57098, Control_c, 0, 64, 0
2, 57111, Control_c, 0, 64, 127
2, 57118, Note_off_c, 0, 51, 0
2, 57120, Note_off_c, 0, 67, 0
2, 57127, Note_off_c, 0, 60, 0
2, 57183, Note_off_c, 0, 75, 0
2, 57203, Note_on_c, 0, 68, 86
2, 57203, Note_on_c, 0, 65, 87
2, 57207, Note_on_c, 0, 63, 65
2, 57208, Note_on_c, 0, 56, 62
2, 57212, Note_on_c, 0, 53, 70
2, 57213, Control_c, 0, 64, 0
2, 57260, Control_c, 0, 64, 127
2, 57334, Note_off_c, 0, 63, 0
2, 57338, Note_on_c, 0, 60, 89
2, 57339, Note_on_c, 0, 65, 0
2, 57348, Note_on_c, 0, 68, 0
2, 57470, Note_on_c, 0, 63, 105
2, 57470, Note_on_c, 0, 82, 123
2, 57471, Control_c, 0, 64, 0
2, 57512, Control_c, 0, 64, 127
2, 57540, Note_on_c, 0, 80, 110
2, 57553, Note_on_c, 0, 53, 0
2, 57566, Note_on_c, 0, 60, 0
2, 57577, Note_on_c, 0, 82, 0
2, 57578, Note_on_c, 0, 56, 0
2, 57587, Note_on_c, 0, 63, 0
2, 57588, Note_on_c, 0, 80, 0
2, 57601, Note_on_c, 0, 79, 89
2, 57649, Note_on_c, 0, 79, 0
2, 57662, Note_on_c, 0, 77, 80
2, 57702, Note_on_c, 0, 77, 0
2, 57725, Note_on_c, 0, 68, 58
2, 57727, Note_on_c, 0, 63, 58
2, 57728, Note_on_c, 0, 75, 92
2, 57730, Note_on_c, 0, 60, 71
2, 57731, Control_c, 0, 64, 0
2, 57772, Control_c, 0, 64, 127
2, 57811, Note_on_c, 0, 58, 50
2, 57887, Note_on_c, 0, 63, 0
2, 57887, Note_on_c, 0, 68, 0
2, 57893, Note_on_c, 0, 58, 0
2, 57895, Note_on_c, 0, 60, 0
2, 57931, Note_on_c, 0, 75, 0
2, 57987, Note_on_c, 0, 77, 70
2, 57988, Note_on_c, 0, 67, 56
2, 57988, Note_on_c, 0, 74, 78
2, 57990, Note_on_c, 0, 56, 47
2, 57991, Note_on_c, 0, 62, 55
2, 57993, Control_c, 0, 64, 0
2, 58025, Control_c, 0, 64, 127
2, 58069, Note_off_c, 0, 67, 0
2, 58083, Note_off_c, 0, 62, 0
2, 58086, Note_off_c, 0, 74, 0
2, 58121, Note_off_c, 0, 56, 0
2, 58250, Note_on_c, 0, 70, 53
2, 58250, Note_on_c, 0, 67, 53
2, 58251, Note_on_c, 0, 65, 61
2, 58257, Note_on_c, 0, 51, 62
2, 58258, Control_c, 0, 64, 0
2, 58306, Control_c, 0, 64, 127
2, 58356, Note_off_c, 0, 65, 0
2, 58360, Note_off_c, 0, 67, 0
2, 58368, Note_off_c, 0, 77, 0
2, 58375, Note_off_c, 0, 70, 0
2, 58381, Note_on_c, 0, 58, 49
2, 58414, Note_on_c, 0, 51, 0
2, 58419, Note_on_c, 0, 58, 0
2, 58502, Note_on_c, 0, 63, 126
2, 58506, Note_on_c, 0, 58, 84
2, 58550, Note_on_c, 0, 63, 0
2, 58567, Note_on_c, 0, 63, 96
2, 58604, Note_on_c, 0, 63, 0
2, 58630, Note_on_c, 0, 67, 127
2, 58666, Note_on_c, 0, 67, 0
2, 58693, Note_on_c, 0, 67, 111
2, 58728, Note_on_c, 0, 67, 0
2, 58755, Note_on_c, 0, 63, 68
2, 58756, Note_on_c, 0, 70, 125
2, 58808, Note_on_c, 0, 70, 0
2, 58822, Note_on_c, 0, 70, 70
2, 58859, Note_on_c, 0, 70, 0
2, 58881, Note_on_c, 0, 63, 0
2, 58888, Note_on_c, 0, 75, 102
2, 59000, Note_on_c, 0, 63, 53
2, 59086, Note_on_c, 0, 63, 0
2, 59089, Note_on_c, 0, 58, 0
2, 59095, Note_on_c, 0, 75, 0
2, 59222, Note_on_c, 0, 70, 62
2, 59232, Note_on_c, 0, 70, 0
2, 59235, Note_on_c, 0, 72, 90
2, 59260, Note_on_c, 0, 70, 83
2, 59271, Note_on_c, 0, 72, 0
2, 59288, Note_on_c, 0, 70, 0
2, 59290, Note_on_c, 0, 69, 92
2, 59302, Note_on_c, 0, 68, 52
2, 59303, Note_on_c, 0, 69, 0
2, 59307, Note_on_c, 0, 63, 52
2, 59308, Note_on_c, 0, 58, 46
2, 59308, Note_on_c, 0, 60, 50
2, 59310, Control_c, 0, 64, 0
2, 59320, Note_on_c, 0, 70, 93
2, 59365, Control_c, 0, 64, 127
2, 59429, Note_off_c, 0, 68, 0
2, 59440, Note_off_c, 0, 63, 0
2, 59441, Note_off_c, 0, 60, 0
2, 59450, Note_off_c, 0, 58, 0
2, 59455, Note_off_c, 0, 70, 0
2, 59580, Note_on_c, 0, 63, 59
2, 59582, Note_on_c, 0, 56, 44
2, 59582, Note_on_c, 0, 53, 55
2, 59583, Note_on_c, 0, 60, 65
2, 59672, Note_on_c, 0, 46, 89
2, 59708, Note_on_c, 0, 60, 0
2, 59729, Note_on_c, 0, 56, 0
2, 59767, Note_on_c, 0, 63, 0
2, 59830, Note_on_c, 0, 62, 74
2, 59831, Note_on_c, 0, 59, 71
2, 59832, Note_on_c, 0, 56, 49
2, 59867, Control_c, 0, 64, 0
2, 59913, Control_c, 0, 64, 127
2, 59983, Note_off_c, 0, 46, 0
2, 60046, Note_off_c, 0, 59, 0
2, 60098, Note_on_c, 0, 59, 86
2, 60105, Note_on_c, 0, 62, 0
2, 60150, Note_on_c, 0, 56, 0
2, 60241, Note_on_c, 0, 46, 68
2, 60243, Note_on_c, 0, 59, 0
2, 60258, Note_on_c, 0, 53, 0
2, 60287, Note_on_c, 0, 46, 0
2, 60367, Note_on_c, 0, 62, 75
2, 60370, Note_on_c, 0, 55, 53
2, 60376, Note_on_c, 0, 39, 67
2, 60380, Control_c, 0, 64, 0
2, 60423, Control_c, 0, 64, 127
2, 60465, Note_off_c, 0, 55, 0
2, 60490, Note_off_c, 0, 62, 0
2, 60496, Note_on_c, 0, 46, 83
2, 60501, Note_on_c, 0, 39, 0
2, 60615, Note_on_c, 0, 67, 110
2, 60616, Note_on_c, 0, 58, 105
2, 60616, Note_on_c, 0, 63, 105
2, 60618, Note_on_c, 0, 55, 93
2, 60701, Note_on_c, 0, 46, 0
2, 60721, Note_on_c, 0, 67, 0
2, 60727, Note_on_c, 0, 58, 0
2, 60733, Note_on_c, 0, 70, 123
2, 60733, Note_on_c, 0, 58, 44
2, 60735, Note_on_c, 0, 46, 77
2, 60770, Note_on_c, 0, 46, 0
2, 60808, Note_on_c, 0, 55, 0
2, 61051, Note_on_c, 0, 58, 0
2, 61114, Note_on_c, 0, 63, 0
2, 61141, Note_on_c, 0, 70, 0
2, 61267, Note_on_c, 0, 72, 122
2, 61323, Note_on_c, 0, 72, 0
2, 61365, Note_on_c, 0, 75, 123
2, 61427, Note_on_c, 0, 75, 0
2, 61450, Note_on_c, 0, 77, 108
2, 61487, Note_on_c, 0, 77, 0
2, 61536, Note_on_c, 0, 79, 99
2, 61536, Note_on_c, 0, 78, 50
2, 61538, Note_on_c, 0, 63, 93
2, 61550, Control_c, 0, 64, 0
2, 61569, Note_off_c, 0, 79, 0
2, 61576, Note_off_c, 0, 78, 0
2, 61577, Note_on_c, 0, 68, 53
2, 61585, Note_on_c, 0, 68, 0
2, 61601, Note_on_c, 0, 80, 111
2, 61603, Note_on_c, 0, 63, 0
2, 61610, Note_on_c, 0, 60, 99
2, 61626, Control_c, 0, 64, 127
2, 61664, Note_off_c, 0, 80, 0
2, 61673, Note_on_c, 0, 79, 105
2, 61729, Note_on_c, 0, 79, 0
2, 61761, Note_on_c, 0, 77, 98
2, 61763, Note_on_c, 0, 68, 81
2, 61767, Note_on_c, 0, 72, 95
2, 61778, Note_on_c, 0, 63, 62
2, 61858, Note_on_c, 0, 63, 0
2, 61925, Note_on_c, 0, 72, 0
2, 61937, Note_on_c, 0, 75, 95
2, 61947, Note_on_c, 0, 60, 0
2, 61968, Note_on_c, 0, 77, 0
2, 61996, Note_on_c, 0, 68, 0
2, 62008, Note_on_c, 0, 75, 0
2, 62036, Note_on_c, 0, 68, 93
2, 62037, Note_on_c, 0, 74, 108
2, 62212, Note_on_c, 0, 68, 0
2, 62245, Note_on_c, 0, 74, 0
2, 62305, Note_on_c, 0, 71, 46
2, 62305, Note_on_c, 0, 65, 56
2, 62310, Note_on_c, 0, 55, 74
2, 62315, Note_on_c, 0, 43, 37
2, 62320, Control_c, 0, 64, 0
2, 62348, Control_c, 0, 64, 127
2, 62385, Note_off_c, 0, 43, 0
2, 62410, Note_off_c, 0, 55, 0
2, 62471, Note_off_c, 0, 65, 0
2, 62482, Note_on_c, 0, 77, 96
2, 62518, Note_on_c, 0, 71, 0
2, 62524, Note_on_c, 0, 77, 0
2, 62577, Note_on_c, 0, 75, 80
2, 62590, Note_on_c, 0, 48, 59
2, 62596, Control_c, 0, 64, 0
2, 62637, Control_c, 0, 64, 127
2, 62642, Note_off_c, 0, 48, 0
2, 62650, Note_on_c, 0, 55, 55
2, 62671, Note_on_c, 0, 55, 0
2, 62717, Note_on_c, 0, 62, 61
2, 62775, Note_on_c, 0, 63, 53
2, 62812, Note_on_c, 0, 63, 0
2, 62843, Note_on_c, 0, 62, 0
2, 62847, Note_on_c, 0, 63, 55
2, 62851, Note_on_c, 0, 67, 65
2, 62851, Note_on_c, 0, 60, 56
2, 63001, Note_on_c, 0, 67, 0
2, 63009, Note_on_c, 0, 63, 0
2, 63055, Note_on_c, 0, 75, 0
2, 63096, Note_on_c, 0, 60, 0
2, 63111, Note_on_c, 0, 75, 77
2, 63116, Note_on_c, 0, 67, 84
2, 63118, Note_on_c, 0, 63, 49
2, 63121, Note_on_c, 0, 59, 46
2, 63253, Note_on_c, 0, 67, 0
2, 63265, Note_on_c, 0, 63, 0
2, 63281, Note_on_c, 0, 59, 0
2, 63383, Note_on_c, 0, 63, 70
2, 63391, Note_on_c, 0, 59, 53
2, 63393, Note_on_c, 0, 67, 59
2, 63404, Note_on_c, 0, 67, 0
2, 63421, Note_on_c, 0, 73, 1
2, 63506, Note_on_c, 0, 75, 0
2, 63507, Note_on_c, 0, 73, 0
2, 63512, Note_on_c, 0, 67, 75
2, 63527, Note_on_c, 0, 59, 0
2, 63570, Note_on_c, 0, 75, 89
2, 63572, Note_on_c, 0, 67, 0
2, 63592, Note_on_c, 0, 75, 0
2, 63599, Note_on_c, 0, 63, 0
2, 63660, Note_on_c, 0, 61, 55
2, 63661, Note_on_c, 0, 65, 81
2, 63662, Note_on_c, 0, 72, 65
2, 63662, Note_on_c, 0, 56, 53
2, 63675, Control_c, 0, 64, 0
2, 63750, Note_on_c, 0, 46, 68
2, 63761, Control_c, 0, 64, 127
2, 63793, Note_off_c, 0, 56, 0
2, 63803, Note_off_c, 0, 65, 0
2, 63848, Note_off_c, 0, 61, 0
2, 63919, Note_off_c, 0, 72, 0
2, 63941, Note_on_c, 0, 70, 81
2, 63942, Note_on_c, 0, 61, 55
2, 63946, Note_on_c, 0, 56, 43
2, 63955, Note_on_c, 0, 65, 38
2, 64310, Note_on_c, 0, 46, 0
2, 64339, Note_on_c, 0, 56, 0
2, 64402, Note_on_c, 0, 65, 0
2, 64408, Note_on_c, 0, 70, 0
2, 64422, Note_on_c, 0, 61, 0
2, 64505, Note_on_c, 0, 55, 67
2, 64505, Note_on_c, 0, 60, 62
2, 64508, Note_on_c, 0, 39, 50
2, 64521, Control_c, 0, 64, 0
2, 64567, Control_c, 0, 64, 127
2, 64660, Note_off_c, 0, 60, 0
2, 64660, Note_on_c, 0, 46, 40
2, 64664, Note_on_c, 0, 39, 0
2, 64665, Note_on_c, 0, 55, 0
2, 64672, Note_on_c, 0, 46, 0
2, 64783, Control_c, 0, 64, 0
2, 64783, Note_on_c, 0, 56, 52
2, 64783, Note_on_c, 0, 44, 55
2, 64786, Note_on_c, 0, 60, 64
2, 64788, Note_on_c, 0, 51, 43
2, 64822, Control_c, 0, 64, 127
2, 64853, Note_off_c, 0, 60, 0
2, 64853, Note_off_c, 0, 56, 0
2, 64891, Note_off_c, 0, 44, 0
2, 64893, Note_off_c, 0, 51, 0
2, 65080, Note_on_c, 0, 75, 127
2, 65082, Note_on_c, 0, 63, 71
2, 65087, Note_on_c, 0, 60, 74
2, 65088, Note_on_c, 0, 56, 56
2, 65172, Note_on_c, 0, 75, 0
2, 65261, Note_on_c, 0, 80, 110
2, 65262, Note_on_c, 0, 63, 0
2, 65313, Note_on_c, 0, 60, 0
2, 65317, Note_on_c, 0, 80, 0
2, 65371, Note_on_c, 0, 79, 105
2, 65378, Note_on_c, 0, 63, 67
2, 65388, Note_on_c, 0, 60, 50
2, 65499, Note_on_c, 0, 63, 0
2, 65506, Note_on_c, 0, 79, 0
2, 65528, Note_on_c, 0, 75, 96
2, 65573, Note_on_c, 0, 60, 0
2, 65600, Note_on_c, 0, 75, 0
2, 65665, Note_on_c, 0, 63, 49
2, 65667, Note_on_c, 0, 72, 99
2, 65678, Note_on_c, 0, 60, 35
2, 65707, Note_on_c, 0, 63, 0
2, 65729, Note_on_c, 0, 72, 0
2, 65763, Note_on_c, 0, 60, 0
2, 65811, Note_on_c, 0, 68, 81
2, 65818, Note_on_c, 0, 56, 0
2, 65846, Note_on_c, 0, 68, 0
2, 65966, Note_on_c, 0, 67, 93
2, 65967, Note_on_c, 0, 63, 64
2, 65968, Note_on_c, 0, 56, 50
2, 65971, Note_on_c, 0, 60, 78
2, 65975, Control_c, 0, 64, 0
2, 65975, Note_on_c, 0, 41, 53
2, 65980, Note_on_c, 0, 51, 31
2, 66042, Control_c, 0, 64, 127
2, 66097, Note_off_c, 0, 51, 0
2, 66102, Note_off_c, 0, 67, 0
2, 66104, Note_off_c, 0, 56, 0
2, 66107, Note_off_c, 0, 60, 0
2, 66112, Note_off_c, 0, 63, 0
2, 66127, Note_on_c, 0, 56, 37
2, 66127, Note_on_c, 0, 65, 89
2, 66132, Note_on_c, 0, 48, 46
2, 66180, Note_on_c, 0, 56, 0
2, 66258, Note_on_c, 0, 65, 0
2, 66293, Note_on_c, 0, 63, 67
2, 66293, Note_on_c, 0, 56, 53
2, 66301, Note_on_c, 0, 60, 62
2, 66307, Note_on_c, 0, 51, 26
2, 66361, Note_on_c, 0, 60, 0
2, 66372, Note_on_c, 0, 51, 0
2, 66377, Note_on_c, 0, 41, 0
2, 66410, Note_on_c, 0, 48, 0
2, 66428, Note_on_c, 0, 56, 0
2, 66454, Note_on_c, 0, 63, 0
2, 66468, Note_on_c, 0, 41, 32
2, 66471, Note_on_c, 0, 60, 46
2, 66509, Note_on_c, 0, 41, 0
2, 66533, Note_on_c, 0, 60, 0
2, 66675, Note_on_c, 0, 63, 55
2, 66676, Note_on_c, 0, 56, 50
2, 66677, Note_on_c, 0, 60, 73
2, 66681, Note_on_c, 0, 53, 50
2, 66683, Note_on_c, 0, 34, 50
2, 66686, Control_c, 0, 64, 0
2, 66687, Note_on_c, 0, 46, 31
2, 66742, Control_c, 0, 64, 127
2, 66803, Note_off_c, 0, 63, 0
2, 66844, Note_off_c, 0, 34, 0
2, 66867, Note_on_c, 0, 63, 64
2, 66869, Note_on_c, 0, 46, 0
2, 66872, Note_on_c, 0, 53, 0
2, 66893, Note_on_c, 0, 56, 0
2, 66943, Note_on_c, 0, 60, 0
2, 66967, Note_on_c, 0, 63, 0
2, 67102, Note_on_c, 0, 62, 71
2, 67106, Note_on_c, 0, 56, 50
2, 67106, Note_on_c, 0, 46, 58
2, 67107, Note_on_c, 0, 59, 77
2, 67122, Control_c, 0, 64, 0
2, 67167, Control_c, 0, 64, 127
2, 67278, Note_off_c, 0, 62, 0
2, 67353, Note_on_c, 0, 62, 67
2, 67382, Note_on_c, 0, 46, 0
2, 67403, Note_on_c, 0, 56, 0
2, 67419, Note_on_c, 0, 59, 0
2, 67483, Note_on_c, 0, 62, 0
2, 67598, Control_c, 0, 64, 0
2, 67602, Note_on_c, 0, 39, 59
2, 67605, Note_on_c, 0, 65, 56
2, 67606, Note_on_c, 0, 60, 67
2, 67608, Note_on_c, 0, 55, 55
2, 67632, Control_c, 0, 64, 127
2, 67641, Note_off_c, 0, 55, 0
2, 67649, Note_off_c, 0, 60, 0
2, 67657, Note_off_c, 0, 65, 0
2, 67727, Note_on_c, 0, 70, 84
2, 67727, Note_on_c, 0, 46, 58
2, 67728, Note_on_c, 0, 60, 71
2, 67730, Note_on_c, 0, 39, 0
2, 67730, Note_on_c, 0, 65, 80
2, 67744, Note_on_c, 0, 60, 0
2, 67751, Note_on_c, 0, 65, 0
2, 67760, Note_on_c, 0, 70, 0
2, 67822, Note_on_c, 0, 46, 0
2, 67828, Note_on_c, 0, 70, 86
2, 67830, Note_on_c, 0, 75, 87
2, 67833, Note_on_c, 0, 65, 73
2, 67848, Note_on_c, 0, 55, 35
2, 67866, Note_on_c, 0, 65, 0
2, 67879, Note_on_c, 0, 70, 0
2, 67886, Note_on_c, 0, 75, 0
2, 67916, Note_on_c, 0, 55, 0
2, 67918, Note_on_c, 0, 58, 68
2, 67922, Note_on_c, 0, 77, 81
2, 67922, Note_on_c, 0, 67, 74
2, 67922, Note_on_c, 0, 72, 84
2, 67975, Note_on_c, 0, 77, 0
2, 67979, Note_on_c, 0, 67, 0
2, 67989, Note_on_c, 0, 72, 0
2, 68021, Note_on_c, 0, 63, 67
2, 68022, Note_on_c, 0, 75, 78
2, 68024, Note_on_c, 0, 58, 0
2, 68026, Note_on_c, 0, 70, 86
2, 68030, Note_on_c, 0, 65, 65
2, 68047, Note_on_c, 0, 75, 0
2, 68048, Note_on_c, 0, 70, 0
2, 68052, Note_on_c, 0, 65, 0
2, 68092, Note_on_c, 0, 63, 0
2, 68125, Note_on_c, 0, 70, 67
2, 68125, Note_on_c, 0, 58, 56
2, 68126, Note_on_c, 0, 65, 68
2, 68138, Note_on_c, 0, 60, 37
2, 68147, Note_on_c, 0, 58, 0
2, 68148, Note_on_c, 0, 60, 0
2, 68153, Note_on_c, 0, 65, 0
2, 68153, Note_on_c, 0, 70, 0
2, 68240, Note_on_c, 0, 65, 56
2, 68240, Note_on_c, 0, 60, 70
2, 68243, Note_on_c, 0, 55, 47
2, 68287, Note_on_c, 0, 60, 0
2, 68295, Note_on_c, 0, 55, 0
2, 68325, Note_on_c, 0, 65, 0
2, 68366, Note_on_c, 0, 46, 52
2, 68506, Note_on_c, 0, 46, 0
2, 68507, Note_on_c, 0, 39, 71
2, 68512, Control_c, 0, 64, 0
2, 68541, Control_c, 0, 64, 127
2, 68633, Note_on_c, 0, 56, 58
2, 68633, Note_on_c, 0, 66, 67
2, 68635, Note_on_c, 0, 47, 55
2, 68636, Control_c, 0, 64, 0
2, 68638, Note_on_c, 0, 61, 59
2, 68657, Control_c, 0, 64, 127
2, 68668, Note_off_c, 0, 56, 0
2, 68674, Note_off_c, 0, 66, 0
2, 68684, Note_off_c, 0, 61, 0
2, 68747, Note_off_c, 0, 39, 0
2, 68757, Note_on_c, 0, 68, 75
2, 68758, Note_on_c, 0, 58, 52
2, 68761, Note_on_c, 0, 47, 0
2, 68761, Control_c, 0, 64, 0
2, 68761, Note_on_c, 0, 63, 58
2, 68765, Note_on_c, 0, 52, 61
2, 68787, Control_c, 0, 64, 127
2, 68790, Note_off_c, 0, 58, 0
2, 68797, Note_off_c, 0, 63, 0
2, 68800, Note_off_c, 0, 68, 0
2, 68881, Note_off_c, 0, 52, 0
2, 68885, Note_on_c, 0, 73, 71
2, 68886, Note_on_c, 0, 63, 68
2, 68886, Note_on_c, 0, 56, 49
2, 68891, Note_on_c, 0, 68, 70
2, 68917, Note_on_c, 0, 63, 0
2, 68923, Note_on_c, 0, 68, 0
2, 68930, Note_on_c, 0, 73, 0
2, 69033, Note_on_c, 0, 59, 53
2, 69150, Note_on_c, 0, 66, 59
2, 69155, Note_on_c, 0, 71, 59
2, 69159, Note_on_c, 0, 59, 0
2, 69166, Note_on_c, 0, 64, 44
2, 69168, Note_on_c, 0, 56, 0
2, 69168, Note_on_c, 0, 66, 0
2, 69172, Note_on_c, 0, 71, 0
2, 69280, Note_on_c, 0, 68, 53
2, 69283, Note_on_c, 0, 80, 55
2, 69289, Note_on_c, 0, 64, 0
2, 69298, Note_on_c, 0, 80, 0
2, 69430, Note_on_c, 0, 87, 67
2, 69431, Note_on_c, 0, 75, 43
2, 69433, Note_on_c, 0, 71, 43
2, 69436, Note_on_c, 0, 82, 56
2, 69449, Note_on_c, 0, 71, 0
2, 69457, Note_on_c, 0, 68, 0
2, 69524, Note_on_c, 0, 82, 0
2, 69532, Note_on_c, 0, 75, 0
2, 69532, Note_on_c, 0, 87, 0
2, 69663, Note_on_c, 0, 86, 80
2, 69667, Note_on_c, 0, 79, 74
2, 69672, Note_on_c, 0, 74, 80
2, 69677, Control_c, 0, 64, 0
2, 69678, Note_on_c, 0, 39, 53
2, 69711, Control_c, 0, 64, 127
2, 69755, Note_off_c, 0, 79, 0
2, 69756, Note_off_c, 0, 86, 0
2, 69759, Note_off_c, 0, 74, 0
2, 69766, Note_off_c, 0, 39, 0
2, 69767, Note_on_c, 0, 83, 75
2, 69770, Note_on_c, 0, 46, 50
2, 69778, Note_on_c, 0, 83, 0
2, 69836, Note_on_c, 0, 46, 0
2, 69853, Note_on_c, 0, 55, 64
2, 69856, Note_on_c, 0, 83, 95
2, 69860, Note_on_c, 0, 79, 71
2, 69861, Note_on_c, 0, 74, 78
2, 69870, Note_on_c, 0, 79, 0
2, 69882, Note_on_c, 0, 83, 0
2, 69899, Note_on_c, 0, 74, 0
2, 69941, Note_on_c, 0, 79, 86
2, 69944, Note_on_c, 0, 55, 0
2, 69945, Note_on_c, 0, 58, 52
2, 69981, Note_on_c, 0, 79, 0
2, 70031, Note_on_c, 0, 79, 56
2, 70033, Note_on_c, 0, 62, 53
2, 70035, Note_on_c, 0, 71, 44
2, 70037, Note_on_c, 0, 74, 55
2, 70066, Note_on_c, 0, 62, 0
2, 70079, Note_on_c, 0, 74, 0
2, 70085, Note_on_c, 0, 71, 0
2, 70094, Note_on_c, 0, 79, 0
2, 70120, Note_on_c, 0, 74, 65
2, 70123, Note_on_c, 0, 67, 28
2, 70131, Note_on_c, 0, 74, 0
2, 70135, Note_on_c, 0, 67, 0
2, 70200, Note_on_c, 0, 58, 0
2, 70201, Note_on_c, 0, 62, 64
2, 70207, Note_on_c, 0, 67, 62
2, 70210, Note_on_c, 0, 71, 62
2, 70227, Note_on_c, 0, 67, 0
2, 70240, Note_on_c, 0, 71, 0
2, 70267, Note_on_c, 0, 62, 0
2, 70285, Note_on_c, 0, 58, 52
2, 70296, Note_on_c, 0, 62, 49
2, 70300, Note_on_c, 0, 58, 0
2, 70311, Note_on_c, 0, 62, 0
2, 70373, Note_on_c, 0, 59, 59
2, 70377, Note_on_c, 0, 67, 73
2, 70377, Note_on_c, 0, 46, 50
2, 70409, Note_on_c, 0, 46, 0
2, 70436, Note_on_c, 0, 59, 0
2, 70465, Note_on_c, 0, 55, 62
2, 70471, Note_on_c, 0, 46, 38
2, 70488, Note_on_c, 0, 55, 0
2, 70568, Note_on_c, 0, 46, 0
2, 70571, Note_on_c, 0, 59, 62
2, 70572, Note_on_c, 0, 55, 62
2, 70573, Note_on_c, 0, 62, 55
2, 70581, Note_on_c, 0, 39, 50
2, 70603, Control_c, 0, 64, 0
2, 70656, Control_c, 0, 64, 127
2, 70680, Note_off_c, 0, 55, 0
2, 70681, Note_on_c, 0, 46, 50
2, 70697, Note_on_c, 0, 59, 0
2, 70699, Note_on_c, 0, 39, 0
2, 70706, Note_on_c, 0, 62, 0
2, 70791, Note_on_c, 0, 59, 49
2, 70791, Note_on_c, 0, 62, 46
2, 70796, Note_on_c, 0, 55, 53
2, 70856, Note_on_c, 0, 46, 0
2, 70874, Note_on_c, 0, 55, 0
2, 70898, Note_on_c, 0, 46, 44
2, 70908, Note_on_c, 0, 59, 0
2, 70918, Note_on_c, 0, 62, 0
2, 70944, Note_on_c, 0, 46, 0
2, 71027, Note_on_c, 0, 59, 49
2, 71030, Note_on_c, 0, 55, 41
2, 71030, Note_on_c, 0, 62, 49
2, 71031, Note_on_c, 0, 53, 35
2, 71035, Note_on_c, 0, 39, 44
2, 71038, Control_c, 0, 64, 0
2, 71082, Control_c, 0, 64, 127
2, 71139, Note_off_c, 0, 53, 0
2, 71143, Note_on_c, 0, 46, 43
2, 71147, Note_on_c, 0, 55, 0
2, 71162, Note_on_c, 0, 59, 0
2, 71165, Note_on_c, 0, 62, 0
2, 71168, Note_on_c, 0, 39, 0
2, 71219, Note_on_c, 0, 46, 0
2, 71267, Note_on_c, 0, 59, 49
2, 71267, Note_on_c, 0, 62, 47
2, 71270, Note_on_c, 0, 46, 1
2, 71273, Note_on_c, 0, 55, 55
2, 71333, Note_on_c, 0, 55, 0
2, 71358, Note_on_c, 0, 46, 0
2, 71398, Note_on_c, 0, 59, 0
2, 71398, Note_on_c, 0, 46, 40
2, 71408, Note_on_c, 0, 62, 0
2, 71428, Note_on_c, 0, 46, 0
2, 71500, Note_on_c, 0, 67, 0
2, 71545, Note_on_c, 0, 55, 49
2, 71546, Note_on_c, 0, 39, 44
2, 71548, Note_on_c, 0, 46, 37
2, 71548, Note_on_c, 0, 59, 41
2, 71548, Note_on_c, 0, 62, 56
2, 71557, Note_on_c, 0, 67, 23
2, 71558, Control_c, 0, 64, 0
2, 71597, Control_c, 0, 64, 127
2, 71712, Note_off_c, 0, 55, 0
2, 71721, Note_off_c, 0, 59, 0
2, 71729, Note_off_c, 0, 62, 0
2, 71740, Note_off_c, 0, 46, 0
2, 71742, Note_off_c, 0, 39, 0
2, 71747, Note_off_c, 0, 67, 0
2, 72315, Control_c, 0, 64, 0
2, 72315, End_track
3, 0, Start_track
3, 0, MIDI_port, 0
3, 0, Title_t, "by Doug McKenzie"
3, 0, End_track
4, 0, Start_track
4, 0, MIDI_port, 0
4, 0, Title_t, "dougmck@pipeline.com.au"
4, 0, End_track
0, 0, End_of_file
