0, 0, Header, 1, 7, 960
1, 0, Start_track
1, 0, Title_t, "Mike Pee"
1, 0, Text_t, "dougmck@pipeline.com.au. One of the songs written and recorded by Michel Petrucciani before he died. I have taken lots of liberties with the melody/harmony and form.\012"
1, 0, Time_signature, 3, 2, 24, 8
1, 0, Key_signature, 0, "major"
1, 0, Tempo, 600000
1, 158400, Tempo, 909091
1, 158400, End_track
2, 0, Start_track
2, 0, End_track
3, 0, Start_track
3, 0, Title_t, "MIDI 1"
3, 0, Program_c, 1, 32
3, 158428, Note_on_c, 1, 36, 85
3, 160890, Note_on_c, 1, 36, 0
3, 160958, Note_on_c, 1, 35, 71
3, 161371, Note_on_c, 1, 34, 71
3, 161425, Note_on_c, 1, 35, 0
3, 164198, Note_on_c, 1, 36, 90
3, 164233, Note_on_c, 1, 34, 0
3, 167037, Note_on_c, 1, 34, 83
3, 167082, Note_on_c, 1, 36, 0
3, 167989, Note_on_c, 1, 34, 0
3, 168030, Note_on_c, 1, 28, 88
3, 169261, Note_on_c, 1, 31, 72
3, 169347, Note_on_c, 1, 28, 0
3, 169550, Note_on_c, 1, 31, 0
3, 169562, Note_on_c, 1, 32, 92
3, 169921, Note_on_c, 1, 33, 95
3, 169957, Note_on_c, 1, 32, 0
3, 172204, Note_on_c, 1, 45, 48
3, 172476, Note_on_c, 1, 45, 0
3, 172492, Note_on_c, 1, 44, 37
3, 172796, Note_on_c, 1, 44, 0
3, 172851, Note_on_c, 1, 45, 47
3, 173276, Note_on_c, 1, 33, 0
3, 173784, Note_on_c, 1, 33, 62
3, 174982, Note_on_c, 1, 33, 0
3, 175070, Note_on_c, 1, 33, 73
3, 175344, Note_on_c, 1, 32, 83
3, 175356, Note_on_c, 1, 45, 0
3, 175410, Note_on_c, 1, 33, 0
3, 175691, Note_on_c, 1, 33, 81
3, 175743, Note_on_c, 1, 32, 0
3, 178129, Note_on_c, 1, 32, 69
3, 178151, Note_on_c, 1, 33, 0
3, 178426, Note_on_c, 1, 32, 0
3, 178502, Note_on_c, 1, 33, 71
3, 178852, Note_on_c, 1, 33, 0
3, 179104, Note_on_c, 1, 33, 77
3, 179433, Note_on_c, 1, 33, 0
3, 179483, Note_on_c, 1, 32, 78
3, 181455, Note_on_c, 1, 37, 82
3, 181480, Note_on_c, 1, 32, 0
3, 183958, Note_on_c, 1, 37, 0
3, 183990, Note_on_c, 1, 32, 35
3, 184041, Note_on_c, 1, 32, 0
3, 184044, Note_on_c, 1, 31, 49
3, 184402, Note_on_c, 1, 30, 69
3, 184420, Note_on_c, 1, 31, 0
3, 185878, Note_on_c, 1, 32, 84
3, 185891, Note_on_c, 1, 30, 0
3, 187187, Note_on_c, 1, 32, 0
3, 187211, Note_on_c, 1, 33, 85
3, 189430, Note_on_c, 1, 31, 42
3, 189439, Note_on_c, 1, 33, 0
3, 189492, Note_on_c, 1, 31, 0
3, 189722, Note_on_c, 1, 30, 56
3, 190024, Note_on_c, 1, 30, 0
3, 190072, Note_on_c, 1, 29, 75
3, 192993, Note_on_c, 1, 36, 68
3, 193012, Note_on_c, 1, 29, 0
3, 195840, Note_on_c, 1, 34, 84
3, 195887, Note_on_c, 1, 36, 0
3, 197964, Note_on_c, 1, 34, 0
3, 198060, Note_on_c, 1, 34, 62
3, 198341, Note_on_c, 1, 34, 0
3, 198376, Note_on_c, 1, 35, 80
3, 198720, Note_on_c, 1, 36, 91
3, 198743, Note_on_c, 1, 35, 0
3, 201595, Note_on_c, 1, 36, 0
3, 201610, Note_on_c, 1, 34, 77
3, 202613, Note_on_c, 1, 40, 90
3, 202687, Note_on_c, 1, 34, 0
3, 203920, Note_on_c, 1, 28, 60
3, 204081, Note_on_c, 1, 40, 0
3, 204118, Note_on_c, 1, 28, 0
3, 204195, Note_on_c, 1, 32, 76
3, 204495, Note_on_c, 1, 32, 0
3, 204521, Note_on_c, 1, 33, 77
3, 206046, Note_on_c, 1, 40, 60
3, 206356, Note_on_c, 1, 40, 0
3, 206459, Note_on_c, 1, 40, 54
3, 206821, Note_on_c, 1, 33, 0
3, 206929, Note_on_c, 1, 45, 83
3, 207312, Note_on_c, 1, 45, 0
3, 207391, Note_on_c, 1, 45, 80
3, 207451, Note_on_c, 1, 40, 0
3, 208790, Note_on_c, 1, 40, 61
3, 209188, Note_on_c, 1, 45, 0
3, 209204, Note_on_c, 1, 40, 0
3, 209241, Note_on_c, 1, 33, 69
3, 209730, Note_on_c, 1, 33, 0
3, 209796, Note_on_c, 1, 33, 87
3, 210185, Note_on_c, 1, 33, 0
3, 210251, Note_on_c, 1, 33, 85
3, 212747, Note_on_c, 1, 45, 90
3, 213009, Note_on_c, 1, 33, 0
3, 213098, Note_on_c, 1, 45, 0
3, 213151, Note_on_c, 1, 44, 73
3, 213753, Note_on_c, 1, 32, 80
3, 215348, Note_on_c, 1, 34, 64
3, 215399, Note_on_c, 1, 32, 0
3, 215492, Note_on_c, 1, 34, 0
3, 215625, Note_on_c, 1, 35, 51
3, 215875, Note_on_c, 1, 35, 0
3, 215938, Note_on_c, 1, 44, 0
3, 215962, Note_on_c, 1, 37, 68
3, 218963, Note_on_c, 1, 42, 69
3, 218988, Note_on_c, 1, 37, 0
3, 221083, Note_on_c, 1, 30, 54
3, 221245, Note_on_c, 1, 30, 0
3, 221334, Note_on_c, 1, 42, 0
3, 221369, Note_on_c, 1, 31, 68
3, 221627, Note_on_c, 1, 31, 0
3, 221657, Note_on_c, 1, 32, 82
3, 221898, Note_on_c, 1, 32, 0
3, 221904, Note_on_c, 1, 33, 79
3, 224604, Note_on_c, 1, 33, 0
3, 224612, Note_on_c, 1, 41, 70
3, 226188, Note_on_c, 1, 29, 45
3, 226283, Note_on_c, 1, 41, 0
3, 226394, Note_on_c, 1, 29, 0
3, 226528, Note_on_c, 1, 34, 54
3, 226695, Note_on_c, 1, 34, 0
3, 227142, Note_on_c, 1, 35, 60
3, 227462, Note_on_c, 1, 35, 0
3, 227482, Note_on_c, 1, 36, 57
3, 228867, Note_on_c, 1, 50, 78
3, 229154, Note_on_c, 1, 49, 68
3, 229199, Note_on_c, 1, 50, 0
3, 229410, Note_on_c, 1, 49, 0
3, 229467, Note_on_c, 1, 48, 62
3, 229550, Note_on_c, 1, 36, 0
3, 229760, Note_on_c, 1, 48, 0
3, 229780, Note_on_c, 1, 35, 62
3, 230364, Note_on_c, 1, 35, 0
3, 230374, Note_on_c, 1, 34, 69
3, 232530, Note_on_c, 1, 34, 0
3, 232637, Note_on_c, 1, 34, 70
3, 232886, Note_on_c, 1, 34, 0
3, 232919, Note_on_c, 1, 35, 73
3, 233240, Note_on_c, 1, 36, 91
3, 233299, Note_on_c, 1, 35, 0
3, 234317, Note_on_c, 1, 50, 87
3, 235236, Note_on_c, 1, 48, 75
3, 235294, Note_on_c, 1, 50, 0
3, 236131, Note_on_c, 1, 36, 0
3, 236132, Note_on_c, 1, 48, 0
3, 236160, Note_on_c, 1, 34, 83
3, 237656, Note_on_c, 1, 40, 85
3, 237724, Note_on_c, 1, 34, 0
3, 238404, Note_on_c, 1, 34, 64
3, 238586, Note_on_c, 1, 34, 0
3, 238594, Note_on_c, 1, 40, 0
3, 238690, Note_on_c, 1, 32, 74
3, 239012, Note_on_c, 1, 32, 0
3, 239018, Note_on_c, 1, 33, 87
3, 240003, Note_on_c, 1, 45, 92
3, 240036, Note_on_c, 1, 46, 34
3, 240077, Note_on_c, 1, 46, 0
3, 240577, Note_on_c, 1, 33, 0
3, 241365, Note_on_c, 1, 32, 69
3, 241523, Note_on_c, 1, 32, 0
3, 241614, Note_on_c, 1, 32, 53
3, 241647, Note_on_c, 1, 33, 83
3, 241653, Note_on_c, 1, 32, 0
3, 241880, Note_on_c, 1, 33, 0
3, 241967, Note_on_c, 1, 33, 82
3, 243117, Note_on_c, 1, 45, 0
3, 243836, Note_on_c, 1, 45, 85
3, 244135, Note_on_c, 1, 44, 51
3, 244138, Note_on_c, 1, 45, 0
3, 244420, Note_on_c, 1, 44, 0
3, 244473, Note_on_c, 1, 45, 67
3, 244799, Note_on_c, 1, 33, 0
3, 245112, Note_on_c, 1, 33, 66
3, 245346, Note_on_c, 1, 33, 0
3, 245390, Note_on_c, 1, 32, 62
3, 245687, Note_on_c, 1, 32, 0
3, 245746, Note_on_c, 1, 33, 79
3, 245816, Note_on_c, 1, 45, 0
3, 247097, Note_on_c, 1, 45, 74
3, 247367, Note_on_c, 1, 44, 53
3, 247385, Note_on_c, 1, 45, 0
3, 247568, Note_on_c, 1, 44, 0
3, 247673, Note_on_c, 1, 45, 73
3, 247798, Note_on_c, 1, 33, 0
3, 248259, Note_on_c, 1, 33, 69
3, 248366, Note_on_c, 1, 45, 0
3, 248627, Note_on_c, 1, 32, 83
3, 248690, Note_on_c, 1, 33, 0
3, 250120, Note_on_c, 1, 32, 0
3, 250135, Note_on_c, 1, 36, 73
3, 250512, Note_on_c, 1, 37, 71
3, 250547, Note_on_c, 1, 36, 0
3, 253044, Note_on_c, 1, 31, 44
3, 253231, Note_on_c, 1, 31, 0
3, 253441, Note_on_c, 1, 30, 56
3, 253474, Note_on_c, 1, 37, 0
3, 254942, Note_on_c, 1, 30, 0
3, 254963, Note_on_c, 1, 32, 82
3, 255313, Note_on_c, 1, 32, 0
3, 255375, Note_on_c, 1, 32, 78
3, 255911, Note_on_c, 1, 32, 0
3, 255944, Note_on_c, 1, 33, 79
3, 256304, Note_on_c, 1, 33, 0
3, 256341, Note_on_c, 1, 33, 62
3, 257229, Note_on_c, 1, 33, 0
3, 257299, Note_on_c, 1, 33, 81
3, 258802, Note_on_c, 1, 43, 83
3, 259050, Note_on_c, 1, 33, 0
3, 259156, Note_on_c, 1, 43, 0
3, 259202, Note_on_c, 1, 41, 61
3, 259797, Note_on_c, 1, 36, 51
3, 259845, Note_on_c, 1, 41, 0
3, 260081, Note_on_c, 1, 36, 0
3, 260140, Note_on_c, 1, 29, 70
3, 261421, Note_on_c, 1, 34, 50
3, 261424, Note_on_c, 1, 29, 0
3, 261643, Note_on_c, 1, 34, 0
3, 261703, Note_on_c, 1, 35, 73
3, 262065, Note_on_c, 1, 36, 68
3, 262070, Note_on_c, 1, 35, 0
3, 263080, Note_on_c, 1, 48, 59
3, 264020, Note_on_c, 1, 48, 0
3, 264309, Note_on_c, 1, 36, 0
3, 264405, Note_on_c, 1, 36, 62
3, 264406, Note_on_c, 1, 51, 67
3, 264722, Note_on_c, 1, 35, 60
3, 264832, Note_on_c, 1, 36, 0
3, 265048, Note_on_c, 1, 50, 70
3, 265060, Note_on_c, 1, 34, 60
3, 265066, Note_on_c, 1, 35, 0
3, 265100, Note_on_c, 1, 51, 0
3, 267263, Note_on_c, 1, 43, 58
3, 267286, Note_on_c, 1, 34, 0
3, 267372, Note_on_c, 1, 43, 0
3, 267390, Note_on_c, 1, 50, 0
3, 267533, Note_on_c, 1, 35, 62
3, 267871, Note_on_c, 1, 36, 72
3, 267887, Note_on_c, 1, 35, 0
3, 270350, Note_on_c, 1, 29, 48
3, 270478, Note_on_c, 1, 29, 0
3, 270749, Note_on_c, 1, 34, 79
3, 270761, Note_on_c, 1, 36, 0
3, 271742, Note_on_c, 1, 28, 78
3, 271752, Note_on_c, 1, 34, 0
3, 273182, Note_on_c, 1, 34, 83
3, 273208, Note_on_c, 1, 28, 0
3, 273588, Note_on_c, 1, 34, 0
3, 273608, Note_on_c, 1, 33, 84
3, 275049, Note_on_c, 1, 40, 49
3, 275397, Note_on_c, 1, 33, 0
3, 275501, Note_on_c, 1, 45, 88
3, 276066, Note_on_c, 1, 45, 0
3, 276121, Note_on_c, 1, 45, 76
3, 276304, Note_on_c, 1, 40, 0
3, 276857, Note_on_c, 1, 40, 43
3, 276940, Note_on_c, 1, 40, 0
3, 277145, Note_on_c, 1, 40, 66
3, 277441, Note_on_c, 1, 40, 0
3, 277462, Note_on_c, 1, 45, 0
3, 277496, Note_on_c, 1, 33, 71
3, 279014, Note_on_c, 1, 40, 44
3, 279108, Note_on_c, 1, 33, 0
3, 279342, Note_on_c, 1, 33, 74
3, 279349, Note_on_c, 1, 40, 0
3, 281632, Note_on_c, 1, 45, 85
3, 281875, Note_on_c, 1, 44, 60
3, 281889, Note_on_c, 1, 45, 0
3, 282112, Note_on_c, 1, 44, 0
3, 282198, Note_on_c, 1, 45, 79
3, 282289, Note_on_c, 1, 33, 0
3, 282802, Note_on_c, 1, 33, 52
3, 283124, Note_on_c, 1, 33, 0
3, 283176, Note_on_c, 1, 32, 76
3, 283216, Note_on_c, 1, 45, 0
3, 284489, Note_on_c, 1, 44, 55
3, 284689, Note_on_c, 1, 32, 0
3, 284734, Note_on_c, 1, 44, 0
3, 284795, Note_on_c, 1, 36, 65
3, 285152, Note_on_c, 1, 37, 68
3, 285157, Note_on_c, 1, 36, 0
3, 287965, Note_on_c, 1, 30, 65
3, 287978, Note_on_c, 1, 37, 0
3, 290410, Note_on_c, 1, 30, 0
3, 290429, Note_on_c, 1, 32, 79
3, 290873, Note_on_c, 1, 33, 91
3, 290874, Note_on_c, 1, 32, 0
3, 292547, Note_on_c, 1, 31, 65
3, 292558, Note_on_c, 1, 33, 0
3, 292819, Note_on_c, 1, 31, 0
3, 292872, Note_on_c, 1, 29, 69
3, 293774, Note_on_c, 1, 41, 88
3, 293854, Note_on_c, 1, 29, 0
3, 294668, Note_on_c, 1, 41, 0
3, 294729, Note_on_c, 1, 41, 89
3, 296536, Note_on_c, 1, 41, 0
3, 296594, Note_on_c, 1, 36, 64
3, 297636, Note_on_c, 1, 48, 70
3, 298638, Note_on_c, 1, 36, 0
3, 299091, Note_on_c, 1, 36, 60
3, 299445, Note_on_c, 1, 36, 0
3, 299483, Note_on_c, 1, 34, 60
3, 299518, Note_on_c, 1, 48, 0
3, 300085, Note_on_c, 1, 46, 56
3, 300453, Note_on_c, 1, 46, 0
3, 300556, Note_on_c, 1, 46, 47
3, 301515, Note_on_c, 1, 34, 0
3, 301757, Note_on_c, 1, 34, 57
3, 301972, Note_on_c, 1, 34, 0
3, 302035, Note_on_c, 1, 35, 68
3, 302075, Note_on_c, 1, 46, 0
3, 302366, Note_on_c, 1, 35, 0
3, 302381, Note_on_c, 1, 36, 85
3, 305256, Note_on_c, 1, 36, 0
3, 305274, Note_on_c, 1, 34, 67
3, 306274, Note_on_c, 1, 34, 0
3, 306282, Note_on_c, 1, 40, 83
3, 308126, Note_on_c, 1, 40, 0
3, 308637, Note_on_c, 1, 33, 69
3, 309099, Note_on_c, 1, 33, 0
3, 309119, Note_on_c, 1, 32, 58
3, 309569, Note_on_c, 1, 32, 0
3, 309606, Note_on_c, 1, 33, 62
3, 310088, Note_on_c, 1, 40, 57
3, 310122, Note_on_c, 1, 33, 0
3, 311028, Note_on_c, 1, 45, 76
3, 311126, Note_on_c, 1, 40, 0
3, 312476, Note_on_c, 1, 40, 38
3, 312630, Note_on_c, 1, 40, 0
3, 312894, Note_on_c, 1, 33, 79
3, 313382, Note_on_c, 1, 33, 0
3, 313426, Note_on_c, 1, 33, 80
3, 313444, Note_on_c, 1, 45, 0
3, 315359, Note_on_c, 1, 40, 58
3, 315831, Note_on_c, 1, 45, 87
3, 315922, Note_on_c, 1, 33, 0
3, 316273, Note_on_c, 1, 45, 0
3, 316338, Note_on_c, 1, 45, 71
3, 316758, Note_on_c, 1, 45, 0
3, 316763, Note_on_c, 1, 40, 0
3, 316791, Note_on_c, 1, 44, 58
3, 317307, Note_on_c, 1, 39, 57
3, 317489, Note_on_c, 1, 39, 0
3, 317787, Note_on_c, 1, 32, 74
3, 317831, Note_on_c, 1, 44, 0
3, 319118, Note_on_c, 1, 35, 55
3, 319269, Note_on_c, 1, 35, 0
3, 319283, Note_on_c, 1, 32, 0
3, 319346, Note_on_c, 1, 36, 66
3, 319617, Note_on_c, 1, 37, 81
3, 319666, Note_on_c, 1, 36, 0
3, 322565, Note_on_c, 1, 42, 65
3, 322631, Note_on_c, 1, 37, 0
3, 324895, Note_on_c, 1, 42, 0
3, 325016, Note_on_c, 1, 44, 80
3, 325454, Note_on_c, 1, 44, 0
3, 325510, Note_on_c, 1, 45, 74
3, 325979, Note_on_c, 1, 45, 0
3, 326025, Note_on_c, 1, 33, 69
3, 326423, Note_on_c, 1, 33, 0
3, 326495, Note_on_c, 1, 33, 71
3, 327825, Note_on_c, 1, 33, 0
3, 327893, Note_on_c, 1, 31, 43
3, 328254, Note_on_c, 1, 31, 0
3, 328272, Note_on_c, 1, 29, 62
3, 334950, Note_on_c, 1, 29, 0
3, 334950, End_track
4, 0, Start_track
4, 0, Title_t, "MIDI 2"
4, 0, Control_c, 0, 7, 98
4, 3743, Control_c, 0, 64, 127
4, 3797, Note_on_c, 0, 24, 47
4, 4484, Note_on_c, 0, 48, 49
4, 5061, Note_on_c, 0, 48, 0
4, 5137, Note_on_c, 0, 24, 0
4, 5170, Note_on_c, 0, 55, 55
4, 5722, Note_on_c, 0, 62, 49
4, 6036, Note_on_c, 0, 63, 58
4, 6309, Note_on_c, 0, 63, 0
4, 6317, Note_on_c, 0, 67, 64
4, 6565, Note_on_c, 0, 67, 0
4, 6585, Note_on_c, 0, 74, 86
4, 6726, Note_on_c, 0, 74, 0
4, 6897, Note_on_c, 0, 79, 96
4, 7162, Note_on_c, 0, 79, 0
4, 7187, Note_on_c, 0, 86, 102
4, 7364, Note_on_c, 0, 86, 0
4, 7541, Note_on_c, 0, 91, 119
4, 7880, Note_on_c, 0, 98, 116
4, 8365, Note_on_c, 0, 96, 86
4, 8498, Note_on_c, 0, 91, 0
4, 8672, Note_on_c, 0, 98, 0
4, 8906, Note_on_c, 0, 91, 62
4, 8956, Note_on_c, 0, 96, 0
4, 9098, Note_on_c, 0, 91, 0
4, 9478, Note_on_c, 0, 87, 50
4, 9698, Note_on_c, 0, 87, 0
4, 10035, Note_on_c, 0, 86, 51
4, 10303, Note_on_c, 0, 62, 0
4, 10432, Note_on_c, 0, 86, 0
4, 10471, Note_on_c, 0, 55, 0
4, 10528, Note_on_c, 0, 89, 67
4, 11022, Note_on_c, 0, 86, 60
4, 11184, Note_on_c, 0, 89, 0
4, 11640, Note_on_c, 0, 87, 38
4, 11689, Note_on_c, 0, 86, 0
4, 13257, Note_on_c, 0, 87, 0
4, 13281, Note_on_c, 0, 84, 28
4, 15524, Control_c, 0, 64, 0
4, 15591, Note_on_c, 0, 41, 19
4, 15592, Note_on_c, 0, 91, 31
4, 15699, Control_c, 0, 64, 65
4, 15714, Control_c, 0, 64, 34
4, 15731, Control_c, 0, 64, 9
4, 15747, Control_c, 0, 64, 0
4, 16019, Control_c, 0, 64, 31
4, 16035, Control_c, 0, 64, 64
4, 16051, Control_c, 0, 64, 92
4, 16067, Control_c, 0, 64, 119
4, 16083, Control_c, 0, 64, 127
4, 16346, Note_on_c, 0, 48, 24
4, 16349, Note_on_c, 0, 89, 55
4, 16353, Note_on_c, 0, 84, 0
4, 16400, Note_on_c, 0, 91, 0
4, 16805, Note_on_c, 0, 41, 0
4, 16900, Note_on_c, 0, 48, 0
4, 16916, Note_on_c, 0, 80, 54
4, 17032, Note_on_c, 0, 55, 15
4, 17579, Note_on_c, 0, 55, 0
4, 17592, Note_on_c, 0, 56, 16
4, 18152, Note_on_c, 0, 89, 0
4, 18204, Note_on_c, 0, 60, 19
4, 18205, Note_on_c, 0, 80, 0
4, 18248, Note_on_c, 0, 79, 23
4, 18827, Note_on_c, 0, 60, 0
4, 18869, Note_on_c, 0, 65, 36
4, 18880, Note_on_c, 0, 56, 0
4, 19539, Note_on_c, 0, 79, 0
4, 19608, Note_on_c, 0, 75, 25
4, 19610, Note_on_c, 0, 65, 0
4, 19626, Note_on_c, 0, 68, 23
4, 21661, Note_on_c, 0, 68, 0
4, 21696, Note_on_c, 0, 72, 45
4, 21734, Note_on_c, 0, 75, 0
4, 22100, Note_on_c, 0, 72, 0
4, 22372, Note_on_c, 0, 70, 84
4, 23129, Note_on_c, 0, 70, 0
4, 23376, Note_on_c, 0, 68, 93
4, 24188, Note_on_c, 0, 68, 0
4, 24253, Note_on_c, 0, 67, 44
4, 24440, Note_on_c, 0, 66, 54
4, 24508, Note_on_c, 0, 67, 0
4, 24596, Note_on_c, 0, 65, 75
4, 24672, Note_on_c, 0, 66, 0
4, 24789, Control_c, 0, 64, 66
4, 24805, Control_c, 0, 64, 35
4, 24819, Note_on_c, 0, 41, 51
4, 24824, Control_c, 0, 64, 9
4, 24837, Control_c, 0, 64, 0
4, 24848, Note_on_c, 0, 64, 70
4, 24856, Note_on_c, 0, 65, 0
4, 25253, Control_c, 0, 64, 38
4, 25269, Control_c, 0, 64, 68
4, 25285, Control_c, 0, 64, 98
4, 25301, Control_c, 0, 64, 125
4, 25317, Control_c, 0, 64, 127
4, 25493, Note_on_c, 0, 41, 0
4, 27093, Note_on_c, 0, 56, 15
4, 27288, Note_on_c, 0, 64, 0
4, 27616, Note_on_c, 0, 60, 22
4, 28101, Note_on_c, 0, 64, 31
4, 28664, Note_on_c, 0, 68, 24
4, 29197, Note_on_c, 0, 72, 33
4, 29241, Note_on_c, 0, 68, 0
4, 29821, Note_on_c, 0, 76, 29
4, 29925, Note_on_c, 0, 72, 0
4, 30679, Note_on_c, 0, 60, 0
4, 31125, Note_on_c, 0, 64, 0
4, 31466, Note_on_c, 0, 76, 0
4, 32128, Note_on_c, 0, 64, 55
4, 32244, Note_on_c, 0, 76, 70
4, 32511, Note_on_c, 0, 64, 0
4, 32624, Note_on_c, 0, 76, 0
4, 32858, Note_on_c, 0, 65, 53
4, 32970, Note_on_c, 0, 77, 72
4, 33211, Note_on_c, 0, 65, 0
4, 33322, Note_on_c, 0, 77, 0
4, 33543, Note_on_c, 0, 67, 44
4, 33544, Note_on_c, 0, 56, 0
4, 33670, Note_on_c, 0, 79, 78
4, 33879, Note_on_c, 0, 67, 0
4, 33989, Note_on_c, 0, 79, 0
4, 34584, Note_on_c, 0, 80, 63
4, 34616, Control_c, 0, 64, 66
4, 34631, Control_c, 0, 64, 35
4, 34641, Note_on_c, 0, 43, 38
4, 34648, Control_c, 0, 64, 9
4, 34664, Control_c, 0, 64, 0
4, 34686, Note_on_c, 0, 71, 35
4, 34699, Note_on_c, 0, 75, 29
4, 34952, Control_c, 0, 64, 38
4, 34967, Control_c, 0, 64, 68
4, 34984, Control_c, 0, 64, 98
4, 35000, Control_c, 0, 64, 123
4, 35016, Control_c, 0, 64, 127
4, 35336, Note_on_c, 0, 75, 0
4, 35378, Note_on_c, 0, 80, 0
4, 35418, Note_on_c, 0, 43, 0
4, 35445, Note_on_c, 0, 71, 0
4, 35463, Note_on_c, 0, 53, 29
4, 36243, Note_on_c, 0, 54, 37
4, 36312, Note_on_c, 0, 53, 0
4, 36816, Note_on_c, 0, 55, 26
4, 36817, Note_on_c, 0, 54, 0
4, 36832, Note_on_c, 0, 68, 60
4, 36845, Note_on_c, 0, 59, 49
4, 36852, Note_on_c, 0, 63, 58
4, 37000, Control_c, 0, 64, 66
4, 37016, Control_c, 0, 64, 35
4, 37032, Control_c, 0, 64, 9
4, 37048, Control_c, 0, 64, 0
4, 37512, Control_c, 0, 64, 46
4, 37528, Control_c, 0, 64, 74
4, 37544, Control_c, 0, 64, 102
4, 37560, Control_c, 0, 64, 127
4, 39032, Note_on_c, 0, 55, 0
4, 39135, Note_on_c, 0, 59, 0
4, 39366, Note_on_c, 0, 63, 0
4, 39541, Note_on_c, 0, 68, 0
4, 39871, Note_on_c, 0, 59, 21
4, 39891, Note_on_c, 0, 63, 28
4, 39951, Note_on_c, 0, 53, 13
4, 39961, Control_c, 0, 64, 65
4, 39973, Note_on_c, 0, 43, 16
4, 39981, Control_c, 0, 64, 34
4, 39993, Control_c, 0, 64, 9
4, 40008, Control_c, 0, 64, 0
4, 40570, Control_c, 0, 64, 35
4, 40584, Control_c, 0, 64, 65
4, 40600, Control_c, 0, 64, 94
4, 40617, Control_c, 0, 64, 121
4, 40632, Control_c, 0, 64, 127
4, 41153, Note_on_c, 0, 67, 83
4, 41893, Note_on_c, 0, 67, 0
4, 42408, Note_on_c, 0, 67, 26
4, 42781, Note_on_c, 0, 53, 0
4, 42976, Note_on_c, 0, 67, 0
4, 43106, Note_on_c, 0, 43, 0
4, 43272, Note_on_c, 0, 63, 0
4, 43358, Note_on_c, 0, 59, 0
4, 43541, Note_on_c, 0, 67, 31
4, 43997, Note_on_c, 0, 67, 0
4, 44646, Note_on_c, 0, 67, 36
4, 44678, Note_on_c, 0, 62, 36
4, 44693, Note_on_c, 0, 39, 16
4, 44714, Control_c, 0, 64, 66
4, 44724, Note_on_c, 0, 55, 19
4, 44730, Control_c, 0, 64, 35
4, 44733, Note_on_c, 0, 46, 18
4, 44747, Control_c, 0, 64, 9
4, 44762, Control_c, 0, 64, 0
4, 45034, Control_c, 0, 64, 28
4, 45050, Control_c, 0, 64, 61
4, 45066, Control_c, 0, 64, 89
4, 45082, Control_c, 0, 64, 118
4, 45098, Control_c, 0, 64, 127
4, 45278, Note_on_c, 0, 67, 0
4, 45422, Note_on_c, 0, 67, 64
4, 45613, Note_on_c, 0, 62, 0
4, 45624, Note_on_c, 0, 46, 0
4, 45693, Note_on_c, 0, 67, 0
4, 45701, Note_on_c, 0, 39, 0
4, 45797, Note_on_c, 0, 55, 0
4, 46100, Note_on_c, 0, 65, 60
4, 46193, Note_on_c, 0, 60, 47
4, 46214, Note_on_c, 0, 44, 21
4, 46217, Note_on_c, 0, 37, 17
4, 46267, Control_c, 0, 64, 66
4, 46274, Note_on_c, 0, 53, 15
4, 46283, Control_c, 0, 64, 35
4, 46298, Control_c, 0, 64, 9
4, 46314, Control_c, 0, 64, 0
4, 46651, Control_c, 0, 64, 47
4, 46667, Control_c, 0, 64, 75
4, 46682, Control_c, 0, 64, 104
4, 46701, Control_c, 0, 64, 127
4, 46911, Note_on_c, 0, 65, 0
4, 47349, Note_on_c, 0, 65, 51
4, 47805, Note_on_c, 0, 65, 0
4, 47829, Note_on_c, 0, 37, 0
4, 47928, Note_on_c, 0, 44, 0
4, 47975, Note_on_c, 0, 60, 0
4, 47981, Note_on_c, 0, 53, 0
4, 48542, Note_on_c, 0, 63, 47
4, 48575, Note_on_c, 0, 43, 29
4, 48608, Note_on_c, 0, 58, 54
4, 48632, Note_on_c, 0, 36, 23
4, 48684, Control_c, 0, 64, 65
4, 48699, Note_on_c, 0, 51, 19
4, 48706, Control_c, 0, 64, 34
4, 48715, Control_c, 0, 64, 9
4, 48731, Control_c, 0, 64, 0
4, 49067, Note_on_c, 0, 63, 0
4, 49069, Control_c, 0, 64, 17
4, 49084, Control_c, 0, 64, 55
4, 49099, Control_c, 0, 64, 82
4, 49116, Control_c, 0, 64, 111
4, 49131, Control_c, 0, 64, 127
4, 49360, Note_on_c, 0, 63, 84
4, 49421, Note_on_c, 0, 43, 0
4, 49488, Note_on_c, 0, 36, 0
4, 49634, Note_on_c, 0, 51, 0
4, 49640, Note_on_c, 0, 63, 0
4, 49776, Note_on_c, 0, 58, 0
4, 50107, Note_on_c, 0, 62, 83
4, 50142, Note_on_c, 0, 57, 75
4, 50153, Note_on_c, 0, 34, 44
4, 50172, Control_c, 0, 64, 65
4, 50181, Note_on_c, 0, 50, 49
4, 50188, Control_c, 0, 64, 34
4, 50204, Control_c, 0, 64, 9
4, 50220, Control_c, 0, 64, 0
4, 50524, Control_c, 0, 64, 36
4, 50540, Control_c, 0, 64, 67
4, 50555, Control_c, 0, 64, 96
4, 50565, Note_on_c, 0, 62, 0
4, 50572, Control_c, 0, 64, 123
4, 50588, Control_c, 0, 64, 127
4, 50760, Note_on_c, 0, 62, 83
4, 50881, Note_on_c, 0, 57, 0
4, 51002, Note_on_c, 0, 62, 0
4, 51062, Note_on_c, 0, 50, 0
4, 51285, Note_on_c, 0, 34, 0
4, 51467, Note_on_c, 0, 60, 78
4, 51478, Note_on_c, 0, 55, 80
4, 51480, Note_on_c, 0, 33, 44
4, 51492, Control_c, 0, 64, 66
4, 51500, Control_c, 0, 64, 35
4, 51516, Control_c, 0, 64, 9
4, 51517, Note_on_c, 0, 48, 49
4, 51532, Control_c, 0, 64, 0
4, 51836, Control_c, 0, 64, 29
4, 51852, Control_c, 0, 64, 63
4, 51869, Control_c, 0, 64, 92
4, 51884, Control_c, 0, 64, 119
4, 51897, Note_on_c, 0, 60, 0
4, 51900, Control_c, 0, 64, 127
4, 52136, Note_on_c, 0, 48, 0
4, 52152, Note_on_c, 0, 33, 0
4, 52195, Note_on_c, 0, 60, 88
4, 52320, Note_on_c, 0, 55, 0
4, 52404, Note_on_c, 0, 60, 0
4, 53214, Note_on_c, 0, 65, 99
4, 53228, Note_on_c, 0, 60, 94
4, 53245, Control_c, 0, 64, 66
4, 53252, Note_on_c, 0, 53, 47
4, 53253, Note_on_c, 0, 42, 87
4, 53264, Control_c, 0, 64, 35
4, 53276, Control_c, 0, 64, 9
4, 53293, Control_c, 0, 64, 0
4, 53312, Note_on_c, 0, 55, 27
4, 53407, Note_on_c, 0, 55, 0
4, 53997, Control_c, 0, 64, 3
4, 54012, Control_c, 0, 64, 48
4, 54028, Control_c, 0, 64, 76
4, 54045, Control_c, 0, 64, 106
4, 54061, Control_c, 0, 64, 127
4, 54341, Note_on_c, 0, 65, 0
4, 54495, Note_on_c, 0, 65, 67
4, 54583, Note_on_c, 0, 53, 0
4, 54718, Note_on_c, 0, 42, 0
4, 54903, Note_on_c, 0, 60, 0
4, 54904, Note_on_c, 0, 65, 0
4, 55564, Note_on_c, 0, 70, 58
4, 55581, Control_c, 0, 64, 65
4, 55597, Control_c, 0, 64, 34
4, 55604, Note_on_c, 0, 58, 40
4, 55607, Note_on_c, 0, 63, 48
4, 55616, Control_c, 0, 64, 9
4, 55620, Note_on_c, 0, 47, 35
4, 55629, Control_c, 0, 64, 0
4, 56173, Control_c, 0, 64, 34
4, 56189, Control_c, 0, 64, 65
4, 56205, Control_c, 0, 64, 94
4, 56221, Control_c, 0, 64, 121
4, 56237, Control_c, 0, 64, 127
4, 56734, Note_on_c, 0, 54, 25
4, 56861, Note_on_c, 0, 58, 0
4, 56938, Note_on_c, 0, 54, 0
4, 56970, Note_on_c, 0, 68, 13
4, 56972, Note_on_c, 0, 70, 0
4, 57012, Note_on_c, 0, 47, 0
4, 57257, Note_on_c, 0, 68, 0
4, 57306, Note_on_c, 0, 63, 0
4, 57901, Control_c, 0, 64, 66
4, 57917, Control_c, 0, 64, 35
4, 57928, Note_on_c, 0, 40, 23
4, 57933, Control_c, 0, 64, 9
4, 57945, Note_on_c, 0, 68, 21
4, 57947, Note_on_c, 0, 63, 38
4, 57955, Note_on_c, 0, 56, 19
4, 57956, Note_on_c, 0, 52, 13
4, 57962, Note_on_c, 0, 47, 16
4, 57975, Control_c, 0, 64, 0
4, 58333, Control_c, 0, 64, 36
4, 58349, Control_c, 0, 64, 66
4, 58365, Control_c, 0, 64, 96
4, 58381, Control_c, 0, 64, 123
4, 58397, Control_c, 0, 64, 127
4, 58643, Note_on_c, 0, 47, 0
4, 58660, Note_on_c, 0, 52, 0
4, 58683, Note_on_c, 0, 68, 0
4, 58711, Note_on_c, 0, 56, 0
4, 58728, Note_on_c, 0, 40, 0
4, 58754, Note_on_c, 0, 63, 0
4, 59413, Note_on_c, 0, 66, 28
4, 59426, Note_on_c, 0, 54, 27
4, 59448, Note_on_c, 0, 61, 42
4, 59456, Control_c, 0, 64, 66
4, 59469, Control_c, 0, 64, 35
4, 59471, Note_on_c, 0, 45, 17
4, 59486, Control_c, 0, 64, 9
4, 59488, Note_on_c, 0, 50, 17
4, 59493, Note_on_c, 0, 38, 23
4, 59502, Control_c, 0, 64, 0
4, 59902, Control_c, 0, 64, 45
4, 59918, Control_c, 0, 64, 73
4, 59933, Control_c, 0, 64, 102
4, 59949, Control_c, 0, 64, 127
4, 60211, Note_on_c, 0, 45, 0
4, 60229, Note_on_c, 0, 38, 0
4, 60230, Note_on_c, 0, 50, 0
4, 60275, Note_on_c, 0, 54, 0
4, 60303, Note_on_c, 0, 61, 0
4, 60511, Note_on_c, 0, 66, 0
4, 64872, Note_on_c, 0, 61, 12
4, 64888, Note_on_c, 0, 59, 30
4, 64904, Note_on_c, 0, 44, 20
4, 64906, Note_on_c, 0, 55, 22
4, 64910, Note_on_c, 0, 53, 21
4, 64915, Note_on_c, 0, 37, 22
4, 64943, Control_c, 0, 64, 65
4, 64960, Control_c, 0, 64, 34
4, 64976, Control_c, 0, 64, 9
4, 64991, Control_c, 0, 64, 0
4, 65632, Control_c, 0, 64, 25
4, 65647, Control_c, 0, 64, 60
4, 65663, Control_c, 0, 64, 88
4, 65680, Control_c, 0, 64, 116
4, 65695, Control_c, 0, 64, 127
4, 67258, Note_on_c, 0, 53, 0
4, 67380, Note_on_c, 0, 55, 0
4, 67493, Note_on_c, 0, 59, 0
4, 67554, Note_on_c, 0, 61, 0
4, 67572, Note_on_c, 0, 37, 0
4, 67622, Note_on_c, 0, 44, 0
4, 70051, Note_on_c, 0, 62, 32
4, 70564, Note_on_c, 0, 62, 0
4, 70576, Note_on_c, 0, 63, 58
4, 70843, Note_on_c, 0, 63, 0
4, 70891, Note_on_c, 0, 65, 60
4, 71193, Note_on_c, 0, 65, 0
4, 71210, Note_on_c, 0, 67, 64
4, 71517, Note_on_c, 0, 67, 0
4, 71535, Note_on_c, 0, 68, 96
4, 71720, Note_on_c, 0, 68, 0
4, 71741, Note_on_c, 0, 69, 91
4, 71914, Note_on_c, 0, 69, 0
4, 71949, Note_on_c, 0, 70, 93
4, 72085, Note_on_c, 0, 70, 0
4, 72130, Note_on_c, 0, 71, 86
4, 72306, Note_on_c, 0, 72, 62
4, 72337, Note_on_c, 0, 71, 0
4, 72453, Note_on_c, 0, 73, 98
4, 72542, Note_on_c, 0, 72, 0
4, 72609, Control_c, 0, 64, 65
4, 72624, Control_c, 0, 64, 34
4, 72641, Control_c, 0, 64, 9
4, 72650, Note_on_c, 0, 48, 62
4, 72657, Control_c, 0, 64, 0
4, 72662, Note_on_c, 0, 73, 0
4, 72672, Note_on_c, 0, 74, 107
4, 73169, Control_c, 0, 64, 34
4, 73185, Control_c, 0, 64, 64
4, 73201, Control_c, 0, 64, 93
4, 73217, Control_c, 0, 64, 119
4, 73232, Control_c, 0, 64, 127
4, 73496, Note_on_c, 0, 55, 19
4, 74068, Note_on_c, 0, 48, 0
4, 74332, Note_on_c, 0, 63, 28
4, 74333, Note_on_c, 0, 67, 27
4, 74450, Note_on_c, 0, 62, 17
4, 75044, Note_on_c, 0, 74, 0
4, 75098, Note_on_c, 0, 72, 70
4, 75386, Note_on_c, 0, 62, 0
4, 75588, Note_on_c, 0, 55, 0
4, 75621, Note_on_c, 0, 70, 44
4, 75649, Note_on_c, 0, 67, 0
4, 75692, Note_on_c, 0, 72, 0
4, 75795, Note_on_c, 0, 63, 0
4, 76075, Note_on_c, 0, 70, 0
4, 76166, Note_on_c, 0, 46, 36
4, 76181, Note_on_c, 0, 69, 34
4, 76210, Control_c, 0, 64, 66
4, 76226, Control_c, 0, 64, 35
4, 76241, Control_c, 0, 64, 9
4, 76258, Control_c, 0, 64, 0
4, 76642, Control_c, 0, 64, 11
4, 76658, Control_c, 0, 64, 53
4, 76675, Control_c, 0, 64, 79
4, 76690, Control_c, 0, 64, 109
4, 76701, Note_on_c, 0, 53, 38
4, 76711, Control_c, 0, 64, 127
4, 76741, Note_on_c, 0, 69, 0
4, 76815, Note_on_c, 0, 53, 0
4, 76825, Note_on_c, 0, 46, 0
4, 77264, Note_on_c, 0, 60, 36
4, 77771, Note_on_c, 0, 81, 28
4, 77780, Note_on_c, 0, 62, 15
4, 77829, Note_on_c, 0, 74, 15
4, 77921, Note_on_c, 0, 74, 0
4, 77949, Note_on_c, 0, 81, 0
4, 78449, Note_on_c, 0, 93, 35
4, 78476, Note_on_c, 0, 65, 21
4, 78509, Note_on_c, 0, 86, 10
4, 78576, Note_on_c, 0, 62, 0
4, 79297, Note_on_c, 0, 86, 0
4, 79397, Note_on_c, 0, 93, 0
4, 80609, Note_on_c, 0, 62, 16
4, 80640, Note_on_c, 0, 79, 86
4, 81187, Note_on_c, 0, 65, 0
4, 81271, Note_on_c, 0, 79, 0
4, 81370, Note_on_c, 0, 77, 94
4, 81899, Note_on_c, 0, 62, 0
4, 82036, Note_on_c, 0, 75, 87
4, 82120, Note_on_c, 0, 60, 0
4, 82176, Note_on_c, 0, 77, 0
4, 82660, Note_on_c, 0, 75, 0
4, 82709, Note_on_c, 0, 74, 70
4, 83342, Note_on_c, 0, 74, 0
4, 83360, Note_on_c, 0, 72, 49
4, 83524, Note_on_c, 0, 72, 0
4, 84186, Note_on_c, 0, 74, 34
4, 84188, Note_on_c, 0, 48, 30
4, 84213, Control_c, 0, 64, 65
4, 84229, Control_c, 0, 64, 34
4, 84244, Control_c, 0, 64, 9
4, 84260, Control_c, 0, 64, 0
4, 84581, Control_c, 0, 64, 29
4, 84597, Control_c, 0, 64, 62
4, 84612, Control_c, 0, 64, 90
4, 84628, Control_c, 0, 64, 118
4, 84645, Control_c, 0, 64, 127
4, 84972, Note_on_c, 0, 55, 16
4, 85141, Note_on_c, 0, 48, 0
4, 85678, Note_on_c, 0, 63, 25
4, 85691, Note_on_c, 0, 67, 26
4, 85718, Note_on_c, 0, 62, 24
4, 86314, Note_on_c, 0, 62, 0
4, 87122, Note_on_c, 0, 63, 0
4, 87384, Note_on_c, 0, 67, 0
4, 88247, Note_on_c, 0, 60, 12
4, 88493, Note_on_c, 0, 74, 0
4, 89022, Note_on_c, 0, 74, 96
4, 89404, Note_on_c, 0, 74, 0
4, 89426, Note_on_c, 0, 77, 110
4, 89752, Note_on_c, 0, 77, 0
4, 89855, Note_on_c, 0, 72, 102
4, 89907, Note_on_c, 0, 60, 0
4, 90032, Note_on_c, 0, 55, 0
4, 90198, Note_on_c, 0, 72, 0
4, 90261, Note_on_c, 0, 70, 90
4, 90694, Note_on_c, 0, 70, 0
4, 90758, Note_on_c, 0, 46, 35
4, 90759, Note_on_c, 0, 69, 70
4, 90806, Control_c, 0, 64, 66
4, 90822, Control_c, 0, 64, 35
4, 90837, Control_c, 0, 64, 9
4, 90854, Control_c, 0, 64, 0
4, 91190, Control_c, 0, 64, 42
4, 91205, Control_c, 0, 64, 71
4, 91221, Control_c, 0, 64, 101
4, 91238, Control_c, 0, 64, 127
4, 91332, Note_on_c, 0, 53, 28
4, 91360, Note_on_c, 0, 69, 0
4, 91645, Note_on_c, 0, 53, 0
4, 91700, Note_on_c, 0, 46, 0
4, 92156, Note_on_c, 0, 67, 22
4, 92170, Note_on_c, 0, 62, 44
4, 92222, Note_on_c, 0, 56, 16
4, 92245, Note_on_c, 0, 40, 35
4, 92358, Control_c, 0, 64, 66
4, 92374, Control_c, 0, 64, 35
4, 92389, Control_c, 0, 64, 9
4, 92397, Note_on_c, 0, 52, 6
4, 92406, Control_c, 0, 64, 0
4, 93414, Control_c, 0, 64, 25
4, 93430, Control_c, 0, 64, 59
4, 93446, Control_c, 0, 64, 88
4, 93462, Control_c, 0, 64, 116
4, 93478, Control_c, 0, 64, 127
4, 93807, Note_on_c, 0, 47, 16
4, 94357, Note_on_c, 0, 67, 0
4, 94436, Note_on_c, 0, 40, 0
4, 94516, Note_on_c, 0, 65, 47
4, 94600, Note_on_c, 0, 47, 0
4, 95760, Note_on_c, 0, 65, 0
4, 96218, Note_on_c, 0, 62, 0
4, 96243, Note_on_c, 0, 64, 51
4, 97160, Note_on_c, 0, 56, 0
4, 97234, Note_on_c, 0, 62, 78
4, 97296, Note_on_c, 0, 64, 0
4, 98338, Note_on_c, 0, 62, 0
4, 98357, Note_on_c, 0, 61, 15
4, 98389, Note_on_c, 0, 60, 45
4, 98424, Note_on_c, 0, 52, 0
4, 98527, Note_on_c, 0, 61, 0
4, 98647, Note_on_c, 0, 60, 0
4, 98655, Note_on_c, 0, 59, 75
4, 98852, Note_on_c, 0, 59, 0
4, 98861, Note_on_c, 0, 58, 60
4, 99117, Note_on_c, 0, 58, 0
4, 99119, Note_on_c, 0, 57, 62
4, 99176, Control_c, 0, 64, 65
4, 99192, Control_c, 0, 64, 34
4, 99208, Control_c, 0, 64, 9
4, 99224, Control_c, 0, 64, 0
4, 99316, Note_on_c, 0, 56, 96
4, 99317, Note_on_c, 0, 45, 49
4, 99325, Note_on_c, 0, 57, 0
4, 99928, Control_c, 0, 64, 11
4, 99944, Control_c, 0, 64, 52
4, 99960, Control_c, 0, 64, 78
4, 99976, Control_c, 0, 64, 107
4, 99992, Control_c, 0, 64, 127
4, 100088, Note_on_c, 0, 56, 0
4, 100091, Note_on_c, 0, 52, 35
4, 100706, Note_on_c, 0, 45, 0
4, 100718, Note_on_c, 0, 60, 42
4, 100730, Note_on_c, 0, 64, 39
4, 100741, Note_on_c, 0, 56, 58
4, 100810, Note_on_c, 0, 52, 0
4, 101039, Note_on_c, 0, 56, 0
4, 101353, Note_on_c, 0, 60, 0
4, 101426, Note_on_c, 0, 64, 0
4, 101442, Note_on_c, 0, 59, 47
4, 102235, Note_on_c, 0, 71, 27
4, 102243, Note_on_c, 0, 64, 22
4, 102256, Note_on_c, 0, 68, 36
4, 102630, Note_on_c, 0, 71, 0
4, 102745, Note_on_c, 0, 64, 0
4, 102901, Note_on_c, 0, 68, 0
4, 103134, Note_on_c, 0, 69, 119
4, 103896, Note_on_c, 0, 69, 0
4, 104088, Note_on_c, 0, 69, 80
4, 104896, Note_on_c, 0, 59, 0
4, 105009, Note_on_c, 0, 69, 0
4, 105023, Note_on_c, 0, 67, 47
4, 105855, Note_on_c, 0, 67, 0
4, 105956, Note_on_c, 0, 60, 13
4, 105959, Note_on_c, 0, 66, 35
4, 105976, Note_on_c, 0, 45, 30
4, 105984, Note_on_c, 0, 64, 17
4, 106010, Control_c, 0, 64, 65
4, 106025, Control_c, 0, 64, 34
4, 106041, Control_c, 0, 64, 9
4, 106057, Control_c, 0, 64, 0
4, 106490, Control_c, 0, 64, 9
4, 106505, Control_c, 0, 64, 51
4, 106521, Control_c, 0, 64, 78
4, 106538, Control_c, 0, 64, 107
4, 106553, Control_c, 0, 64, 127
4, 107373, Note_on_c, 0, 56, 41
4, 107962, Note_on_c, 0, 56, 0
4, 108037, Note_on_c, 0, 57, 49
4, 108296, Note_on_c, 0, 60, 0
4, 108620, Note_on_c, 0, 60, 86
4, 108744, Note_on_c, 0, 64, 0
4, 109158, Note_on_c, 0, 66, 0
4, 109239, Note_on_c, 0, 64, 94
4, 109905, Note_on_c, 0, 66, 81
4, 109989, Note_on_c, 0, 60, 0
4, 110060, Note_on_c, 0, 64, 0
4, 110145, Note_on_c, 0, 66, 0
4, 110421, Note_on_c, 0, 57, 0
4, 110653, Note_on_c, 0, 76, 116
4, 110686, Note_on_c, 0, 57, 39
4, 111167, Note_on_c, 0, 76, 0
4, 111195, Note_on_c, 0, 77, 107
4, 111656, Note_on_c, 0, 77, 0
4, 111709, Note_on_c, 0, 76, 102
4, 112086, Note_on_c, 0, 76, 0
4, 112141, Note_on_c, 0, 74, 72
4, 112165, Note_on_c, 0, 45, 0
4, 112544, Note_on_c, 0, 74, 0
4, 112565, Note_on_c, 0, 57, 0
4, 112642, Note_on_c, 0, 76, 55
4, 112683, Control_c, 0, 64, 65
4, 112693, Note_on_c, 0, 45, 47
4, 112700, Control_c, 0, 64, 34
4, 112715, Control_c, 0, 64, 9
4, 112731, Control_c, 0, 64, 0
4, 113005, Note_on_c, 0, 45, 0
4, 113019, Control_c, 0, 64, 22
4, 113036, Control_c, 0, 64, 59
4, 113051, Control_c, 0, 64, 86
4, 113067, Control_c, 0, 64, 114
4, 113084, Control_c, 0, 64, 127
4, 113377, Note_on_c, 0, 56, 54
4, 114050, Note_on_c, 0, 56, 0
4, 114082, Note_on_c, 0, 59, 33
4, 114089, Note_on_c, 0, 64, 24
4, 114110, Note_on_c, 0, 68, 29
4, 114749, Note_on_c, 0, 59, 0
4, 114824, Note_on_c, 0, 60, 26
4, 114903, Note_on_c, 0, 64, 0
4, 115007, Note_on_c, 0, 68, 0
4, 115725, Note_on_c, 0, 68, 23
4, 115733, Note_on_c, 0, 64, 15
4, 116025, Note_on_c, 0, 76, 0
4, 116428, Note_on_c, 0, 64, 0
4, 116501, Note_on_c, 0, 74, 94
4, 116551, Note_on_c, 0, 68, 0
4, 118168, Note_on_c, 0, 72, 42
4, 118234, Note_on_c, 0, 74, 0
4, 118564, Note_on_c, 0, 60, 0
4, 118896, Note_on_c, 0, 72, 0
4, 118904, Note_on_c, 0, 74, 45
4, 119840, Note_on_c, 0, 74, 0
4, 119872, Note_on_c, 0, 76, 29
4, 119900, Note_on_c, 0, 64, 12
4, 119910, Note_on_c, 0, 45, 16
4, 119911, Note_on_c, 0, 69, 20
4, 120173, Control_c, 0, 64, 65
4, 120189, Control_c, 0, 64, 34
4, 120205, Control_c, 0, 64, 9
4, 120221, Control_c, 0, 64, 0
4, 120803, Note_on_c, 0, 54, 27
4, 120943, Control_c, 0, 64, 9
4, 120957, Control_c, 0, 64, 51
4, 120973, Control_c, 0, 64, 78
4, 120989, Control_c, 0, 64, 107
4, 121005, Control_c, 0, 64, 127
4, 121268, Note_on_c, 0, 64, 0
4, 121773, Note_on_c, 0, 57, 32
4, 122109, Note_on_c, 0, 76, 0
4, 122496, Note_on_c, 0, 69, 0
4, 122768, Note_on_c, 0, 54, 0
4, 122840, Note_on_c, 0, 57, 0
4, 122843, Note_on_c, 0, 64, 18
4, 122952, Note_on_c, 0, 45, 0
4, 123870, Control_c, 0, 64, 65
4, 123888, Control_c, 0, 64, 34
4, 123901, Control_c, 0, 64, 9
4, 123918, Control_c, 0, 64, 0
4, 123950, Note_on_c, 0, 32, 48
4, 123984, Note_on_c, 0, 64, 0
4, 124175, Control_c, 0, 64, 36
4, 124189, Control_c, 0, 64, 67
4, 124206, Control_c, 0, 64, 96
4, 124221, Control_c, 0, 64, 123
4, 124238, Control_c, 0, 64, 127
4, 124445, Note_on_c, 0, 32, 0
4, 125293, Note_on_c, 0, 72, 86
4, 125305, Note_on_c, 0, 54, 36
4, 125352, Note_on_c, 0, 65, 33
4, 125360, Note_on_c, 0, 69, 30
4, 125381, Note_on_c, 0, 60, 24
4, 127256, Note_on_c, 0, 72, 0
4, 127440, Note_on_c, 0, 71, 96
4, 127667, Note_on_c, 0, 69, 0
4, 128293, Note_on_c, 0, 69, 70
4, 128334, Note_on_c, 0, 71, 0
4, 128564, Note_on_c, 0, 65, 0
4, 128750, Note_on_c, 0, 60, 0
4, 128994, Note_on_c, 0, 68, 63
4, 129160, Note_on_c, 0, 54, 0
4, 129168, Note_on_c, 0, 69, 0
4, 129546, Note_on_c, 0, 68, 0
4, 129597, Note_on_c, 0, 66, 41
4, 129924, Note_on_c, 0, 66, 0
4, 130296, Note_on_c, 0, 68, 42
4, 130347, Note_on_c, 0, 37, 22
4, 130354, Control_c, 0, 64, 65
4, 130367, Control_c, 0, 64, 34
4, 130384, Control_c, 0, 64, 9
4, 130399, Control_c, 0, 64, 0
4, 131007, Note_on_c, 0, 44, 45
4, 131056, Control_c, 0, 64, 21
4, 131071, Control_c, 0, 64, 57
4, 131088, Control_c, 0, 64, 83
4, 131104, Control_c, 0, 64, 113
4, 131120, Control_c, 0, 64, 127
4, 131640, Note_on_c, 0, 49, 56
4, 131680, Control_c, 0, 64, 65
4, 131696, Control_c, 0, 64, 34
4, 131712, Control_c, 0, 64, 9
4, 131728, Control_c, 0, 64, 0
4, 131737, Note_on_c, 0, 37, 0
4, 131761, Note_on_c, 0, 44, 0
4, 131776, Control_c, 0, 64, 31
4, 131792, Control_c, 0, 64, 63
4, 131808, Control_c, 0, 64, 92
4, 131824, Control_c, 0, 64, 119
4, 131840, Control_c, 0, 64, 127
4, 132220, Note_on_c, 0, 51, 81
4, 132227, Control_c, 0, 64, 66
4, 132240, Control_c, 0, 64, 35
4, 132256, Control_c, 0, 64, 9
4, 132272, Control_c, 0, 64, 0
4, 132364, Note_on_c, 0, 49, 0
4, 132400, Control_c, 0, 64, 21
4, 132416, Control_c, 0, 64, 57
4, 132432, Control_c, 0, 64, 83
4, 132448, Control_c, 0, 64, 113
4, 132464, Control_c, 0, 64, 127
4, 132827, Note_on_c, 0, 51, 0
4, 132958, Note_on_c, 0, 52, 44
4, 132968, Note_on_c, 0, 59, 21
4, 132992, Control_c, 0, 64, 65
4, 132994, Note_on_c, 0, 64, 25
4, 133008, Control_c, 0, 64, 34
4, 133024, Control_c, 0, 64, 9
4, 133040, Control_c, 0, 64, 0
4, 133616, Control_c, 0, 64, 21
4, 133634, Control_c, 0, 64, 58
4, 133637, Note_on_c, 0, 59, 0
4, 133648, Control_c, 0, 64, 85
4, 133664, Control_c, 0, 64, 113
4, 133680, Control_c, 0, 64, 127
4, 133955, Note_on_c, 0, 56, 34
4, 134749, Note_on_c, 0, 64, 0
4, 134872, Note_on_c, 0, 66, 52
4, 134876, Note_on_c, 0, 68, 0
4, 136373, Note_on_c, 0, 66, 0
4, 136390, Note_on_c, 0, 67, 44
4, 136635, Note_on_c, 0, 67, 0
4, 137226, Note_on_c, 0, 71, 75
4, 137232, Note_on_c, 0, 56, 0
4, 137463, Note_on_c, 0, 52, 0
4, 137856, Note_on_c, 0, 71, 0
4, 137959, Note_on_c, 0, 73, 65
4, 137966, Note_on_c, 0, 64, 49
4, 137995, Note_on_c, 0, 42, 28
4, 138001, Note_on_c, 0, 69, 35
4, 138033, Control_c, 0, 64, 65
4, 138050, Control_c, 0, 64, 34
4, 138065, Control_c, 0, 64, 9
4, 138081, Control_c, 0, 64, 0
4, 138497, Control_c, 0, 64, 35
4, 138514, Control_c, 0, 64, 65
4, 138529, Control_c, 0, 64, 94
4, 138545, Control_c, 0, 64, 121
4, 138561, Control_c, 0, 64, 127
4, 138673, Note_on_c, 0, 64, 0
4, 138741, Note_on_c, 0, 73, 0
4, 138808, Note_on_c, 0, 76, 70
4, 138890, Note_on_c, 0, 49, 26
4, 139044, Note_on_c, 0, 49, 0
4, 139124, Note_on_c, 0, 69, 0
4, 139141, Note_on_c, 0, 76, 0
4, 139753, Note_on_c, 0, 80, 76
4, 139850, Note_on_c, 0, 68, 28
4, 139878, Note_on_c, 0, 54, 18
4, 140400, Note_on_c, 0, 80, 0
4, 140461, Note_on_c, 0, 68, 0
4, 140743, Note_on_c, 0, 78, 73
4, 140786, Note_on_c, 0, 66, 38
4, 140973, Note_on_c, 0, 78, 0
4, 141037, Note_on_c, 0, 66, 0
4, 141448, Note_on_c, 0, 76, 83
4, 141522, Note_on_c, 0, 64, 19
4, 141958, Note_on_c, 0, 42, 0
4, 142036, Note_on_c, 0, 76, 0
4, 142144, Note_on_c, 0, 73, 81
4, 142147, Note_on_c, 0, 64, 0
4, 142149, Note_on_c, 0, 42, 27
4, 142157, Control_c, 0, 64, 66
4, 142162, Control_c, 0, 64, 35
4, 142179, Control_c, 0, 64, 9
4, 142196, Control_c, 0, 64, 0
4, 142339, Control_c, 0, 64, 44
4, 142354, Control_c, 0, 64, 73
4, 142370, Control_c, 0, 64, 102
4, 142387, Control_c, 0, 64, 127
4, 142728, Note_on_c, 0, 73, 0
4, 143175, Note_on_c, 0, 42, 0
4, 143503, Note_on_c, 0, 54, 0
4, 143513, Note_on_c, 0, 44, 40
4, 143536, Note_on_c, 0, 71, 53
4, 143635, Control_c, 0, 64, 65
4, 143650, Control_c, 0, 64, 34
4, 143666, Control_c, 0, 64, 9
4, 143680, Note_on_c, 0, 59, 5
4, 143686, Control_c, 0, 64, 0
4, 144164, Control_c, 0, 64, 7
4, 144179, Control_c, 0, 64, 50
4, 144195, Control_c, 0, 64, 77
4, 144211, Control_c, 0, 64, 106
4, 144228, Control_c, 0, 64, 127
4, 144848, Note_on_c, 0, 68, 50
4, 144951, Note_on_c, 0, 56, 11
4, 145464, Note_on_c, 0, 68, 0
4, 145664, Note_on_c, 0, 71, 0
4, 145704, Note_on_c, 0, 66, 70
4, 146088, Note_on_c, 0, 66, 0
4, 146152, Note_on_c, 0, 44, 0
4, 146248, Note_on_c, 0, 59, 0
4, 147176, Note_on_c, 0, 44, 17
4, 147763, Note_on_c, 0, 44, 0
4, 147823, Note_on_c, 0, 56, 0
4, 148093, Note_on_c, 0, 68, 42
4, 148133, Control_c, 0, 64, 65
4, 148148, Note_on_c, 0, 45, 23
4, 148152, Note_on_c, 0, 61, 28
4, 148159, Control_c, 0, 64, 34
4, 148164, Control_c, 0, 64, 9
4, 148181, Control_c, 0, 64, 0
4, 148803, Note_on_c, 0, 52, 29
4, 148821, Control_c, 0, 64, 5
4, 148836, Control_c, 0, 64, 50
4, 148853, Control_c, 0, 64, 77
4, 148868, Control_c, 0, 64, 106
4, 148885, Control_c, 0, 64, 127
4, 149354, Note_on_c, 0, 54, 54
4, 149773, Note_on_c, 0, 68, 0
4, 149862, Note_on_c, 0, 56, 84
4, 150377, Note_on_c, 0, 61, 0
4, 150380, Note_on_c, 0, 56, 0
4, 150491, Note_on_c, 0, 57, 80
4, 150501, Control_c, 0, 64, 65
4, 150519, Control_c, 0, 64, 34
4, 150533, Control_c, 0, 64, 9
4, 150549, Control_c, 0, 64, 0
4, 150853, Control_c, 0, 64, 27
4, 150869, Control_c, 0, 64, 60
4, 150885, Control_c, 0, 64, 89
4, 150901, Control_c, 0, 64, 118
4, 150917, Control_c, 0, 64, 127
4, 151050, Note_on_c, 0, 59, 96
4, 151142, Note_on_c, 0, 57, 0
4, 151336, Note_on_c, 0, 52, 0
4, 151338, Note_on_c, 0, 45, 0
4, 151387, Note_on_c, 0, 54, 0
4, 151574, Note_on_c, 0, 59, 0
4, 151631, Note_on_c, 0, 61, 87
4, 152086, Note_on_c, 0, 61, 0
4, 152128, Note_on_c, 0, 62, 72
4, 152536, Note_on_c, 0, 64, 80
4, 152537, Note_on_c, 0, 62, 0
4, 152805, Note_on_c, 0, 65, 88
4, 152818, Note_on_c, 0, 64, 0
4, 152968, Note_on_c, 0, 65, 0
4, 153011, Note_on_c, 0, 67, 91
4, 153229, Note_on_c, 0, 69, 88
4, 153292, Note_on_c, 0, 67, 0
4, 153432, Note_on_c, 0, 71, 94
4, 153477, Note_on_c, 0, 69, 0
4, 153493, Note_on_c, 0, 41, 47
4, 153551, Note_on_c, 0, 57, 47
4, 153557, Control_c, 0, 64, 66
4, 153573, Control_c, 0, 64, 35
4, 153589, Control_c, 0, 64, 9
4, 153594, Note_on_c, 0, 71, 0
4, 153605, Control_c, 0, 64, 0
4, 153621, Note_on_c, 0, 72, 102
4, 153861, Control_c, 0, 64, 7
4, 153874, Note_on_c, 0, 74, 91
4, 153880, Control_c, 0, 64, 54
4, 153894, Control_c, 0, 64, 79
4, 153909, Control_c, 0, 64, 109
4, 153924, Note_on_c, 0, 72, 0
4, 153925, Control_c, 0, 64, 127
4, 154053, Note_on_c, 0, 48, 55
4, 154095, Note_on_c, 0, 76, 78
4, 154120, Note_on_c, 0, 74, 0
4, 154181, Note_on_c, 0, 57, 0
4, 154235, Note_on_c, 0, 76, 0
4, 154237, Note_on_c, 0, 41, 0
4, 154280, Note_on_c, 0, 48, 0
4, 154281, Note_on_c, 0, 77, 80
4, 154513, Note_on_c, 0, 79, 64
4, 154533, Note_on_c, 0, 77, 0
4, 154686, Note_on_c, 0, 81, 29
4, 154696, Note_on_c, 0, 79, 0
4, 154811, Note_on_c, 0, 81, 0
4, 154861, Note_on_c, 0, 83, 80
4, 155029, Note_on_c, 0, 64, 21
4, 155060, Note_on_c, 0, 84, 75
4, 155080, Note_on_c, 0, 60, 21
4, 155089, Note_on_c, 0, 83, 0
4, 155111, Note_on_c, 0, 57, 29
4, 155205, Note_on_c, 0, 53, 4
4, 155242, Note_on_c, 0, 84, 0
4, 155268, Note_on_c, 0, 86, 55
4, 155341, Note_on_c, 0, 86, 0
4, 155422, Note_on_c, 0, 88, 70
4, 155632, Note_on_c, 0, 89, 70
4, 155634, Note_on_c, 0, 88, 0
4, 155810, Note_on_c, 0, 89, 0
4, 155878, Note_on_c, 0, 91, 33
4, 155964, Note_on_c, 0, 91, 0
4, 156060, Note_on_c, 0, 93, 36
4, 156305, Note_on_c, 0, 93, 0
4, 156348, Note_on_c, 0, 95, 18
4, 156579, Note_on_c, 0, 95, 0
4, 156594, Note_on_c, 0, 96, 35
4, 156859, Note_on_c, 0, 96, 0
4, 156896, Note_on_c, 0, 98, 60
4, 157840, Note_on_c, 0, 98, 0
4, 158372, Note_on_c, 0, 64, 0
4, 158400, Control_c, 0, 64, 127
4, 158400, Control_c, 0, 64, 0
4, 158400, Note_on_c, 0, 86, 70
4, 158442, Note_on_c, 0, 91, 51
4, 158456, Note_on_c, 0, 58, 42
4, 158476, Note_on_c, 0, 63, 32
4, 158477, Note_on_c, 0, 62, 39
4, 158496, Note_on_c, 0, 74, 37
4, 158504, Note_on_c, 0, 67, 28
4, 158585, Control_c, 0, 64, 127
4, 158592, Note_on_c, 0, 60, 0
4, 158704, Note_on_c, 0, 57, 0
4, 158978, Note_on_c, 0, 74, 0
4, 158992, Note_on_c, 0, 91, 0
4, 159003, Note_on_c, 0, 67, 0
4, 159025, Note_on_c, 0, 62, 0
4, 159071, Note_on_c, 0, 63, 0
4, 159142, Note_on_c, 0, 53, 0
4, 159520, Note_on_c, 0, 63, 23
4, 159525, Note_on_c, 0, 79, 36
4, 159547, Note_on_c, 0, 74, 33
4, 159562, Note_on_c, 0, 67, 22
4, 159569, Note_on_c, 0, 62, 14
4, 159849, Note_on_c, 0, 86, 0
4, 159976, Note_on_c, 0, 74, 0
4, 160102, Note_on_c, 0, 79, 0
4, 160529, Note_on_c, 0, 62, 0
4, 160735, Note_on_c, 0, 67, 0
4, 160763, Note_on_c, 0, 84, 105
4, 160792, Note_on_c, 0, 63, 0
4, 160865, Note_on_c, 0, 58, 0
4, 160966, Note_on_c, 0, 84, 0
4, 161017, Note_on_c, 0, 82, 85
4, 161269, Note_on_c, 0, 82, 0
4, 161293, Control_c, 0, 64, 0
4, 161313, Note_on_c, 0, 65, 39
4, 161329, Note_on_c, 0, 60, 34
4, 161330, Note_on_c, 0, 81, 68
4, 161341, Note_on_c, 0, 62, 33
4, 161486, Control_c, 0, 64, 127
4, 161680, Note_on_c, 0, 65, 0
4, 161890, Note_on_c, 0, 53, 44
4, 162125, Note_on_c, 0, 62, 0
4, 162128, Note_on_c, 0, 60, 0
4, 162354, Note_on_c, 0, 65, 41
4, 162358, Note_on_c, 0, 81, 0
4, 162361, Note_on_c, 0, 60, 42
4, 162362, Note_on_c, 0, 62, 31
4, 162844, Note_on_c, 0, 79, 95
4, 163151, Note_on_c, 0, 79, 0
4, 163304, Note_on_c, 0, 77, 95
4, 163388, Note_on_c, 0, 65, 0
4, 163580, Note_on_c, 0, 53, 0
4, 163604, Note_on_c, 0, 77, 0
4, 163640, Note_on_c, 0, 62, 0
4, 163680, Note_on_c, 0, 74, 79
4, 163724, Note_on_c, 0, 60, 0
4, 163927, Note_on_c, 0, 74, 0
4, 163982, Note_on_c, 0, 72, 51
4, 164198, Note_on_c, 0, 72, 0
4, 164247, Control_c, 0, 64, 0
4, 164263, Note_on_c, 0, 63, 33
4, 164268, Note_on_c, 0, 74, 54
4, 164277, Note_on_c, 0, 58, 34
4, 164285, Note_on_c, 0, 67, 28
4, 164290, Note_on_c, 0, 62, 34
4, 164417, Control_c, 0, 64, 127
4, 164830, Note_on_c, 0, 62, 0
4, 164872, Note_on_c, 0, 67, 0
4, 164954, Note_on_c, 0, 63, 0
4, 165181, Note_on_c, 0, 74, 0
4, 165302, Note_on_c, 0, 63, 31
4, 165317, Note_on_c, 0, 67, 22
4, 165324, Note_on_c, 0, 62, 26
4, 165810, Note_on_c, 0, 67, 0
4, 165824, Note_on_c, 0, 62, 0
4, 166012, Note_on_c, 0, 63, 0
4, 166239, Note_on_c, 0, 74, 110
4, 166259, Note_on_c, 0, 63, 42
4, 166278, Note_on_c, 0, 67, 35
4, 166465, Note_on_c, 0, 74, 0
4, 166485, Note_on_c, 0, 67, 0
4, 166502, Note_on_c, 0, 77, 78
4, 166587, Note_on_c, 0, 63, 0
4, 166627, Note_on_c, 0, 58, 0
4, 166732, Note_on_c, 0, 72, 68
4, 166762, Note_on_c, 0, 77, 0
4, 166909, Note_on_c, 0, 72, 0
4, 166946, Note_on_c, 0, 70, 63
4, 167141, Note_on_c, 0, 70, 0
4, 167180, Control_c, 0, 64, 0
4, 167201, Note_on_c, 0, 65, 34
4, 167215, Note_on_c, 0, 69, 57
4, 167222, Note_on_c, 0, 62, 27
4, 167225, Note_on_c, 0, 60, 28
4, 167413, Control_c, 0, 64, 127
4, 167697, Note_on_c, 0, 69, 0
4, 167756, Note_on_c, 0, 79, 66
4, 167826, Note_on_c, 0, 65, 0
4, 167877, Note_on_c, 0, 62, 0
4, 168003, Note_on_c, 0, 79, 0
4, 168058, Note_on_c, 0, 77, 56
4, 168208, Note_on_c, 0, 77, 0
4, 168395, Note_on_c, 0, 81, 40
4, 168398, Note_on_c, 0, 79, 45
4, 168410, Note_on_c, 0, 65, 18
4, 168450, Note_on_c, 0, 79, 0
4, 168478, Note_on_c, 0, 81, 0
4, 168634, Note_on_c, 0, 65, 0
4, 168815, Note_on_c, 0, 60, 0
4, 169142, Note_on_c, 0, 89, 101
4, 169155, Note_on_c, 0, 67, 64
4, 169156, Note_on_c, 0, 56, 63
4, 169159, Control_c, 0, 64, 0
4, 169165, Note_on_c, 0, 62, 54
4, 169391, Control_c, 0, 64, 127
4, 169583, Note_on_c, 0, 62, 0
4, 169616, Note_on_c, 0, 67, 0
4, 169742, Note_on_c, 0, 56, 0
4, 169765, Note_on_c, 0, 88, 58
4, 169866, Note_on_c, 0, 89, 0
4, 169960, Note_on_c, 0, 87, 51
4, 169982, Note_on_c, 0, 88, 0
4, 170092, Note_on_c, 0, 87, 0
4, 170099, Note_on_c, 0, 86, 66
4, 170195, Note_on_c, 0, 85, 55
4, 170198, Note_on_c, 0, 86, 0
4, 170324, Control_c, 0, 64, 0
4, 170332, Note_on_c, 0, 85, 0
4, 170352, Note_on_c, 0, 84, 53
4, 170460, Note_on_c, 0, 84, 0
4, 170472, Note_on_c, 0, 83, 52
4, 170587, Note_on_c, 0, 83, 0
4, 170601, Note_on_c, 0, 82, 55
4, 170673, Control_c, 0, 64, 127
4, 170737, Note_on_c, 0, 82, 0
4, 170759, Note_on_c, 0, 81, 44
4, 170832, Control_c, 0, 64, 0
4, 170895, Note_on_c, 0, 80, 54
4, 170901, Note_on_c, 0, 81, 0
4, 170955, Note_on_c, 0, 64, 33
4, 170973, Note_on_c, 0, 56, 25
4, 171010, Note_on_c, 0, 60, 24
4, 171330, Control_c, 0, 64, 127
4, 171396, Note_on_c, 0, 64, 0
4, 171405, Note_on_c, 0, 60, 0
4, 171670, Note_on_c, 0, 56, 0
4, 171933, Note_on_c, 0, 64, 27
4, 171936, Note_on_c, 0, 56, 32
4, 171970, Note_on_c, 0, 60, 27
4, 172475, Note_on_c, 0, 80, 0
4, 172509, Note_on_c, 0, 60, 0
4, 172513, Note_on_c, 0, 64, 0
4, 172547, Note_on_c, 0, 81, 60
4, 172702, Note_on_c, 0, 56, 0
4, 172717, Note_on_c, 0, 81, 0
4, 172743, Note_on_c, 0, 79, 47
4, 172913, Note_on_c, 0, 79, 0
4, 172946, Note_on_c, 0, 78, 43
4, 172960, Control_c, 0, 64, 0
4, 172961, Note_on_c, 0, 54, 35
4, 172962, Note_on_c, 0, 60, 32
4, 172968, Note_on_c, 0, 64, 29
4, 173254, Control_c, 0, 64, 127
4, 173515, Note_on_c, 0, 64, 0
4, 173534, Note_on_c, 0, 60, 0
4, 173601, Note_on_c, 0, 78, 0
4, 173911, Note_on_c, 0, 76, 29
4, 173913, Note_on_c, 0, 64, 27
4, 173920, Note_on_c, 0, 60, 34
4, 173929, Note_on_c, 0, 72, 24
4, 174266, Note_on_c, 0, 72, 0
4, 174304, Note_on_c, 0, 76, 0
4, 174383, Note_on_c, 0, 76, 68
4, 174486, Note_on_c, 0, 64, 0
4, 174570, Note_on_c, 0, 60, 0
4, 174583, Note_on_c, 0, 76, 0
4, 174654, Note_on_c, 0, 74, 39
4, 174720, Note_on_c, 0, 74, 0
4, 174920, Note_on_c, 0, 60, 28
4, 174928, Note_on_c, 0, 64, 30
4, 175036, Note_on_c, 0, 88, 70
4, 175244, Note_on_c, 0, 88, 0
4, 175291, Note_on_c, 0, 89, 81
4, 175333, Note_on_c, 0, 88, 29
4, 175367, Note_on_c, 0, 88, 0
4, 175432, Note_on_c, 0, 60, 0
4, 175467, Note_on_c, 0, 54, 0
4, 175473, Note_on_c, 0, 89, 0
4, 175512, Note_on_c, 0, 64, 0
4, 175513, Note_on_c, 0, 88, 73
4, 175710, Note_on_c, 0, 88, 0
4, 175723, Note_on_c, 0, 86, 57
4, 175855, Note_on_c, 0, 86, 0
4, 175902, Control_c, 0, 64, 0
4, 175909, Note_on_c, 0, 88, 70
4, 175933, Note_on_c, 0, 57, 52
4, 176134, Control_c, 0, 64, 127
4, 176741, Note_on_c, 0, 79, 34
4, 176751, Note_on_c, 0, 68, 28
4, 176785, Note_on_c, 0, 64, 35
4, 177129, Note_on_c, 0, 88, 0
4, 177204, Note_on_c, 0, 79, 0
4, 177485, Note_on_c, 0, 68, 0
4, 177672, Note_on_c, 0, 74, 80
4, 177693, Note_on_c, 0, 67, 32
4, 177838, Note_on_c, 0, 67, 0
4, 177985, Note_on_c, 0, 64, 0
4, 178175, Note_on_c, 0, 57, 0
4, 178288, Note_on_c, 0, 72, 55
4, 178313, Note_on_c, 0, 74, 0
4, 178642, Note_on_c, 0, 72, 0
4, 178657, Note_on_c, 0, 74, 67
4, 178686, Control_c, 0, 64, 0
4, 178688, Note_on_c, 0, 54, 33
4, 178689, Note_on_c, 0, 60, 39
4, 178692, Note_on_c, 0, 64, 35
4, 178972, Control_c, 0, 64, 127
4, 179279, Note_on_c, 0, 64, 0
4, 179309, Note_on_c, 0, 72, 31
4, 179332, Note_on_c, 0, 60, 0
4, 179372, Note_on_c, 0, 72, 0
4, 179667, Note_on_c, 0, 64, 26
4, 179679, Note_on_c, 0, 60, 28
4, 180077, Note_on_c, 0, 74, 0
4, 180090, Note_on_c, 0, 72, 67
4, 180100, Note_on_c, 0, 64, 0
4, 180144, Note_on_c, 0, 60, 0
4, 180430, Note_on_c, 0, 72, 0
4, 180528, Note_on_c, 0, 71, 88
4, 180538, Control_c, 0, 64, 0
4, 180544, Note_on_c, 0, 64, 29
4, 180567, Note_on_c, 0, 60, 27
4, 180729, Control_c, 0, 64, 127
4, 180846, Note_on_c, 0, 71, 0
4, 180897, Note_on_c, 0, 69, 78
4, 180901, Note_on_c, 0, 64, 0
4, 180905, Note_on_c, 0, 71, 48
4, 180995, Note_on_c, 0, 60, 0
4, 181028, Note_on_c, 0, 71, 0
4, 181056, Note_on_c, 0, 69, 0
4, 181080, Note_on_c, 0, 54, 0
4, 181155, Note_on_c, 0, 68, 62
4, 181352, Note_on_c, 0, 68, 0
4, 181361, Note_on_c, 0, 66, 65
4, 181540, Note_on_c, 0, 66, 0
4, 181591, Note_on_c, 0, 68, 56
4, 181597, Control_c, 0, 64, 0
4, 181871, Control_c, 0, 64, 127
4, 181958, Note_on_c, 0, 49, 29
4, 182030, Control_c, 0, 64, 0
4, 182135, Control_c, 0, 64, 127
4, 182266, Note_on_c, 0, 56, 30
4, 182537, Note_on_c, 0, 56, 0
4, 182550, Note_on_c, 0, 64, 45
4, 182569, Note_on_c, 0, 59, 24
4, 182580, Control_c, 0, 64, 0
4, 182581, Note_on_c, 0, 58, 29
4, 182745, Note_on_c, 0, 59, 0
4, 182803, Control_c, 0, 64, 127
4, 182838, Note_on_c, 0, 58, 0
4, 182873, Note_on_c, 0, 59, 32
4, 182898, Control_c, 0, 64, 0
4, 183029, Note_on_c, 0, 59, 0
4, 183041, Note_on_c, 0, 64, 0
4, 183089, Control_c, 0, 64, 127
4, 183133, Note_on_c, 0, 58, 40
4, 183205, Control_c, 0, 64, 0
4, 183354, Control_c, 0, 64, 127
4, 183582, Note_on_c, 0, 68, 0
4, 183584, Note_on_c, 0, 66, 60
4, 183944, Note_on_c, 0, 66, 0
4, 184132, Note_on_c, 0, 68, 51
4, 184153, Note_on_c, 0, 49, 0
4, 184179, Note_on_c, 0, 58, 0
4, 184274, Note_on_c, 0, 68, 0
4, 184339, Note_on_c, 0, 71, 66
4, 184448, Note_on_c, 0, 71, 0
4, 184566, Note_on_c, 0, 54, 64
4, 184569, Note_on_c, 0, 73, 51
4, 184585, Note_on_c, 0, 69, 64
4, 184592, Control_c, 0, 64, 0
4, 184593, Note_on_c, 0, 64, 60
4, 184812, Control_c, 0, 64, 127
4, 184891, Note_on_c, 0, 64, 0
4, 184903, Note_on_c, 0, 73, 0
4, 184937, Note_on_c, 0, 76, 67
4, 185070, Note_on_c, 0, 69, 0
4, 185249, Note_on_c, 0, 76, 0
4, 185545, Note_on_c, 0, 80, 71
4, 185578, Note_on_c, 0, 64, 38
4, 185897, Note_on_c, 0, 80, 0
4, 185936, Note_on_c, 0, 78, 67
4, 186222, Note_on_c, 0, 76, 69
4, 186251, Note_on_c, 0, 54, 0
4, 186252, Note_on_c, 0, 64, 0
4, 186602, Control_c, 0, 64, 0
4, 186616, Note_on_c, 0, 56, 37
4, 186761, Control_c, 0, 64, 127
4, 186833, Note_on_c, 0, 78, 0
4, 187054, Note_on_c, 0, 73, 20
4, 187184, Note_on_c, 0, 56, 0
4, 187196, Note_on_c, 0, 76, 0
4, 187244, Note_on_c, 0, 73, 0
4, 187263, Note_on_c, 0, 71, 39
4, 187452, Note_on_c, 0, 71, 0
4, 187550, Note_on_c, 0, 68, 48
4, 187566, Control_c, 0, 64, 0
4, 187845, Note_on_c, 0, 45, 37
4, 187884, Control_c, 0, 64, 127
4, 188051, Note_on_c, 0, 68, 0
4, 188159, Note_on_c, 0, 52, 32
4, 188466, Note_on_c, 0, 61, 37
4, 188486, Control_c, 0, 64, 0
4, 188487, Note_on_c, 0, 64, 45
4, 188499, Note_on_c, 0, 57, 31
4, 188710, Control_c, 0, 64, 127
4, 188955, Note_on_c, 0, 52, 0
4, 189033, Note_on_c, 0, 45, 0
4, 189073, Note_on_c, 0, 57, 0
4, 189423, Note_on_c, 0, 61, 0
4, 189471, Note_on_c, 0, 64, 0
4, 189545, Note_on_c, 0, 61, 37
4, 189661, Note_on_c, 0, 61, 0
4, 189738, Note_on_c, 0, 64, 50
4, 189842, Note_on_c, 0, 64, 0
4, 190177, Note_on_c, 0, 72, 67
4, 190184, Note_on_c, 0, 41, 40
4, 190233, Control_c, 0, 64, 0
4, 190249, Note_on_c, 0, 57, 22
4, 190263, Note_on_c, 0, 48, 24
4, 190475, Note_on_c, 0, 62, 55
4, 190498, Control_c, 0, 64, 127
4, 190517, Note_on_c, 0, 72, 0
4, 190529, Note_on_c, 0, 62, 0
4, 190718, Note_on_c, 0, 41, 0
4, 190747, Note_on_c, 0, 84, 83
4, 190755, Note_on_c, 0, 48, 0
4, 190836, Note_on_c, 0, 57, 0
4, 191007, Note_on_c, 0, 74, 51
4, 191212, Note_on_c, 0, 64, 37
4, 191239, Note_on_c, 0, 60, 33
4, 191243, Note_on_c, 0, 74, 0
4, 191252, Note_on_c, 0, 79, 48
4, 191254, Note_on_c, 0, 57, 35
4, 191262, Note_on_c, 0, 84, 0
4, 191306, Note_on_c, 0, 79, 0
4, 191497, Note_on_c, 0, 89, 52
4, 191500, Note_on_c, 0, 88, 53
4, 191516, Note_on_c, 0, 83, 43
4, 191517, Note_on_c, 0, 81, 44
4, 191550, Note_on_c, 0, 89, 0
4, 191607, Note_on_c, 0, 83, 0
4, 191652, Note_on_c, 0, 88, 0
4, 191717, Note_on_c, 0, 53, 1
4, 191736, Note_on_c, 0, 76, 36
4, 191740, Note_on_c, 0, 84, 54
4, 191786, Note_on_c, 0, 64, 0
4, 191801, Note_on_c, 0, 60, 0
4, 191814, Note_on_c, 0, 81, 0
4, 191843, Note_on_c, 0, 76, 0
4, 191905, Note_on_c, 0, 84, 0
4, 192187, Note_on_c, 0, 91, 62
4, 192191, Control_c, 0, 64, 0
4, 192196, Note_on_c, 0, 84, 59
4, 192203, Note_on_c, 0, 64, 30
4, 192220, Note_on_c, 0, 60, 27
4, 192308, Control_c, 0, 64, 127
4, 192430, Note_on_c, 0, 84, 0
4, 192445, Note_on_c, 0, 91, 0
4, 192464, Note_on_c, 0, 57, 0
4, 192474, Note_on_c, 0, 79, 38
4, 192477, Note_on_c, 0, 88, 38
4, 192486, Note_on_c, 0, 53, 0
4, 192493, Note_on_c, 0, 60, 0
4, 192575, Note_on_c, 0, 64, 0
4, 192638, Note_on_c, 0, 79, 0
4, 192689, Note_on_c, 0, 88, 0
4, 192730, Note_on_c, 0, 91, 56
4, 192749, Note_on_c, 0, 84, 51
4, 192875, Note_on_c, 0, 84, 0
4, 192901, Note_on_c, 0, 91, 0
4, 192979, Note_on_c, 0, 79, 36
4, 193098, Note_on_c, 0, 79, 0
4, 193180, Note_on_c, 0, 63, 23
4, 193191, Note_on_c, 0, 67, 24
4, 193194, Note_on_c, 0, 62, 37
4, 193198, Control_c, 0, 64, 0
4, 193199, Note_on_c, 0, 58, 38
4, 193203, Note_on_c, 0, 86, 65
4, 193204, Note_on_c, 0, 79, 47
4, 193515, Control_c, 0, 64, 127
4, 193519, Note_on_c, 0, 79, 0
4, 193550, Note_on_c, 0, 82, 45
4, 193559, Note_on_c, 0, 74, 43
4, 193695, Note_on_c, 0, 67, 0
4, 193797, Note_on_c, 0, 62, 0
4, 193829, Note_on_c, 0, 63, 0
4, 193908, Note_on_c, 0, 74, 0
4, 194003, Note_on_c, 0, 82, 0
4, 194096, Note_on_c, 0, 86, 0
4, 194120, Note_on_c, 0, 79, 34
4, 194123, Note_on_c, 0, 74, 39
4, 194151, Note_on_c, 0, 63, 25
4, 194169, Note_on_c, 0, 67, 20
4, 194220, Note_on_c, 0, 62, 16
4, 194578, Note_on_c, 0, 62, 0
4, 194616, Note_on_c, 0, 67, 0
4, 194632, Note_on_c, 0, 74, 0
4, 194663, Note_on_c, 0, 63, 0
4, 194899, Note_on_c, 0, 79, 0
4, 195022, Note_on_c, 0, 84, 77
4, 195035, Note_on_c, 0, 62, 24
4, 195037, Note_on_c, 0, 75, 71
4, 195044, Note_on_c, 0, 63, 30
4, 195064, Note_on_c, 0, 67, 24
4, 195344, Note_on_c, 0, 62, 0
4, 195359, Note_on_c, 0, 84, 0
4, 195405, Note_on_c, 0, 75, 0
4, 195460, Note_on_c, 0, 67, 0
4, 195512, Note_on_c, 0, 82, 71
4, 195517, Note_on_c, 0, 74, 68
4, 195537, Note_on_c, 0, 63, 0
4, 195597, Note_on_c, 0, 58, 0
4, 195690, Note_on_c, 0, 82, 0
4, 195712, Note_on_c, 0, 74, 0
4, 195973, Note_on_c, 0, 81, 59
4, 195999, Note_on_c, 0, 65, 31
4, 196011, Control_c, 0, 64, 0
4, 196025, Note_on_c, 0, 60, 32
4, 196036, Note_on_c, 0, 62, 24
4, 196255, Note_on_c, 0, 65, 0
4, 196277, Control_c, 0, 64, 127
4, 196360, Note_on_c, 0, 81, 0
4, 196437, Note_on_c, 0, 53, 42
4, 196460, Note_on_c, 0, 77, 42
4, 196468, Note_on_c, 0, 70, 31
4, 196574, Note_on_c, 0, 62, 0
4, 196656, Note_on_c, 0, 60, 0
4, 196741, Note_on_c, 0, 70, 0
4, 196848, Note_on_c, 0, 77, 0
4, 196918, Note_on_c, 0, 60, 17
4, 196930, Note_on_c, 0, 62, 20
4, 196931, Note_on_c, 0, 65, 29
4, 196938, Note_on_c, 0, 69, 41
4, 197174, Note_on_c, 0, 69, 0
4, 197340, Note_on_c, 0, 79, 91
4, 197430, Note_on_c, 0, 60, 0
4, 197463, Note_on_c, 0, 65, 0
4, 197478, Note_on_c, 0, 62, 0
4, 197564, Note_on_c, 0, 79, 0
4, 197628, Note_on_c, 0, 77, 85
4, 197859, Note_on_c, 0, 65, 36
4, 197871, Note_on_c, 0, 62, 35
4, 197880, Note_on_c, 0, 60, 30
4, 197884, Control_c, 0, 64, 0
4, 198032, Control_c, 0, 64, 127
4, 198043, Note_on_c, 0, 74, 90
4, 198048, Note_on_c, 0, 65, 0
4, 198266, Note_on_c, 0, 62, 0
4, 198284, Note_on_c, 0, 60, 0
4, 198294, Note_on_c, 0, 74, 0
4, 198347, Note_on_c, 0, 77, 0
4, 198361, Note_on_c, 0, 53, 0
4, 198387, Note_on_c, 0, 74, 71
4, 198583, Note_on_c, 0, 74, 0
4, 198610, Note_on_c, 0, 72, 62
4, 198775, Control_c, 0, 64, 0
4, 198788, Note_on_c, 0, 72, 0
4, 198793, Note_on_c, 0, 55, 24
4, 198800, Note_on_c, 0, 48, 46
4, 198811, Note_on_c, 0, 58, 31
4, 198853, Note_on_c, 0, 74, 68
4, 199019, Control_c, 0, 64, 127
4, 199092, Note_on_c, 0, 48, 0
4, 199145, Note_on_c, 0, 55, 0
4, 199145, Note_on_c, 0, 74, 0
4, 199162, Note_on_c, 0, 58, 0
4, 199336, Note_on_c, 0, 67, 62
4, 199344, Note_on_c, 0, 63, 57
4, 199348, Note_on_c, 0, 62, 54
4, 199748, Note_on_c, 0, 62, 0
4, 199777, Note_on_c, 0, 60, 80
4, 199792, Control_c, 0, 64, 0
4, 200013, Control_c, 0, 64, 127
4, 200090, Note_on_c, 0, 73, 1
4, 200265, Note_on_c, 0, 73, 0
4, 200305, Note_on_c, 0, 59, 63
4, 200309, Note_on_c, 0, 60, 0
4, 200500, Note_on_c, 0, 67, 0
4, 200531, Note_on_c, 0, 63, 0
4, 200734, Control_c, 0, 64, 0
4, 200745, Note_on_c, 0, 67, 65
4, 200762, Note_on_c, 0, 60, 64
4, 200763, Note_on_c, 0, 59, 0
4, 200766, Note_on_c, 0, 63, 56
4, 200935, Control_c, 0, 64, 127
4, 201132, Note_on_c, 0, 63, 0
4, 201191, Note_on_c, 0, 60, 0
4, 201194, Note_on_c, 0, 63, 42
4, 201213, Note_on_c, 0, 70, 67
4, 201214, Note_on_c, 0, 62, 50
4, 201251, Note_on_c, 0, 62, 0
4, 201338, Note_on_c, 0, 67, 0
4, 201471, Note_on_c, 0, 63, 0
4, 201557, Note_on_c, 0, 70, 0
4, 201665, Note_on_c, 0, 62, 50
4, 201669, Note_on_c, 0, 46, 43
4, 201670, Note_on_c, 0, 69, 52
4, 201691, Note_on_c, 0, 57, 42
4, 201697, Control_c, 0, 64, 0
4, 201971, Control_c, 0, 64, 127
4, 202129, Note_on_c, 0, 62, 0
4, 202170, Note_on_c, 0, 65, 61
4, 202188, Note_on_c, 0, 57, 0
4, 202205, Note_on_c, 0, 69, 0
4, 202265, Note_on_c, 0, 65, 0
4, 202318, Note_on_c, 0, 46, 0
4, 202638, Control_c, 0, 64, 0
4, 202644, Note_on_c, 0, 67, 52
4, 202660, Note_on_c, 0, 62, 63
4, 202667, Note_on_c, 0, 56, 43
4, 202689, Note_on_c, 0, 40, 34
4, 202712, Note_on_c, 0, 52, 28
4, 202770, Note_on_c, 0, 56, 0
4, 202796, Control_c, 0, 64, 127
4, 202828, Note_on_c, 0, 40, 0
4, 202830, Note_on_c, 0, 62, 0
4, 202851, Note_on_c, 0, 67, 0
4, 202886, Note_on_c, 0, 52, 0
4, 203181, Note_on_c, 0, 77, 92
4, 203409, Note_on_c, 0, 77, 0
4, 203690, Note_on_c, 0, 79, 88
4, 203695, Note_on_c, 0, 76, 80
4, 203696, Note_on_c, 0, 72, 91
4, 203704, Note_on_c, 0, 67, 75
4, 203705, Note_on_c, 0, 56, 74
4, 203708, Note_on_c, 0, 62, 64
4, 203720, Control_c, 0, 64, 0
4, 203932, Control_c, 0, 64, 127
4, 203933, Note_on_c, 0, 76, 0
4, 203961, Note_on_c, 0, 72, 0
4, 203973, Note_on_c, 0, 79, 0
4, 203988, Note_on_c, 0, 67, 0
4, 204109, Note_on_c, 0, 62, 0
4, 204175, Control_c, 0, 64, 0
4, 204194, Note_on_c, 0, 77, 72
4, 204195, Note_on_c, 0, 65, 53
4, 204198, Note_on_c, 0, 74, 76
4, 204204, Note_on_c, 0, 70, 75
4, 204217, Note_on_c, 0, 62, 42
4, 204302, Control_c, 0, 64, 127
4, 204303, Note_on_c, 0, 65, 0
4, 204306, Note_on_c, 0, 62, 0
4, 204368, Note_on_c, 0, 74, 0
4, 204385, Note_on_c, 0, 77, 0
4, 204408, Note_on_c, 0, 56, 0
4, 204464, Note_on_c, 0, 70, 0
4, 204769, Control_c, 0, 64, 0
4, 204833, Control_c, 0, 64, 127
4, 205112, Note_on_c, 0, 76, 66
4, 205119, Note_on_c, 0, 72, 74
4, 205123, Note_on_c, 0, 69, 68
4, 205141, Note_on_c, 0, 68, 67
4, 205160, Control_c, 0, 64, 0
4, 205404, Control_c, 0, 64, 127
4, 205475, Note_on_c, 0, 68, 0
4, 205594, Note_on_c, 0, 66, 71
4, 205615, Control_c, 0, 64, 0
4, 205806, Control_c, 0, 64, 127
4, 206051, Note_on_c, 0, 66, 0
4, 206070, Note_on_c, 0, 64, 59
4, 206311, Note_on_c, 0, 72, 0
4, 206366, Note_on_c, 0, 69, 0
4, 206567, Note_on_c, 0, 69, 35
4, 206573, Note_on_c, 0, 72, 47
4, 207034, Note_on_c, 0, 69, 0
4, 207038, Note_on_c, 0, 57, 44
4, 207094, Note_on_c, 0, 72, 0
4, 207128, Note_on_c, 0, 76, 0
4, 207489, Note_on_c, 0, 76, 50
4, 207490, Note_on_c, 0, 78, 43
4, 207491, Note_on_c, 0, 72, 46
4, 207492, Note_on_c, 0, 69, 50
4, 207501, Control_c, 0, 64, 0
4, 207503, Note_on_c, 0, 66, 48
4, 207507, Note_on_c, 0, 64, 0
4, 207774, Control_c, 0, 64, 127
4, 208113, Note_on_c, 0, 72, 0
4, 208140, Note_on_c, 0, 76, 0
4, 208152, Note_on_c, 0, 69, 0
4, 208274, Note_on_c, 0, 66, 0
4, 208429, Note_on_c, 0, 76, 33
4, 208440, Note_on_c, 0, 72, 39
4, 208443, Note_on_c, 0, 66, 30
4, 208563, Note_on_c, 0, 72, 0
4, 208623, Note_on_c, 0, 76, 0
4, 208673, Note_on_c, 0, 78, 0
4, 208979, Note_on_c, 0, 88, 99
4, 209173, Note_on_c, 0, 88, 0
4, 209222, Note_on_c, 0, 89, 89
4, 209245, Note_on_c, 0, 88, 43
4, 209289, Note_on_c, 0, 88, 0
4, 209428, Note_on_c, 0, 89, 0
4, 209475, Note_on_c, 0, 88, 88
4, 209491, Note_on_c, 0, 89, 65
4, 209525, Note_on_c, 0, 89, 0
4, 209533, Note_on_c, 0, 64, 24
4, 209622, Note_on_c, 0, 66, 0
4, 209745, Note_on_c, 0, 86, 82
4, 209766, Note_on_c, 0, 88, 0
4, 209903, Note_on_c, 0, 86, 0
4, 209910, Note_on_c, 0, 57, 0
4, 210029, Note_on_c, 0, 87, 78
4, 210195, Note_on_c, 0, 87, 0
4, 210234, Note_on_c, 0, 88, 65
4, 210272, Control_c, 0, 64, 0
4, 210296, Note_on_c, 0, 57, 36
4, 210310, Note_on_c, 0, 64, 0
4, 210468, Note_on_c, 0, 88, 0
4, 210527, Control_c, 0, 64, 127
4, 210561, Note_on_c, 0, 88, 42
4, 210837, Note_on_c, 0, 81, 53
4, 210961, Note_on_c, 0, 81, 0
4, 211188, Note_on_c, 0, 88, 0
4, 211226, Note_on_c, 0, 81, 50
4, 211436, Note_on_c, 0, 81, 0
4, 211496, Note_on_c, 0, 80, 40
4, 211701, Note_on_c, 0, 86, 66
4, 211893, Note_on_c, 0, 86, 0
4, 211930, Note_on_c, 0, 76, 36
4, 211954, Note_on_c, 0, 64, 1
4, 211980, Note_on_c, 0, 80, 0
4, 212163, Note_on_c, 0, 76, 0
4, 212198, Note_on_c, 0, 67, 33
4, 212234, Note_on_c, 0, 83, 49
4, 212514, Note_on_c, 0, 76, 40
4, 212519, Note_on_c, 0, 57, 0
4, 212523, Note_on_c, 0, 83, 0
4, 212564, Note_on_c, 0, 67, 0
4, 212570, Note_on_c, 0, 76, 0
4, 212779, Note_on_c, 0, 64, 0
4, 212785, Note_on_c, 0, 57, 30
4, 212864, Note_on_c, 0, 57, 0
4, 213163, Note_on_c, 0, 62, 43
4, 213166, Note_on_c, 0, 67, 45
4, 213171, Note_on_c, 0, 45, 40
4, 213183, Note_on_c, 0, 72, 33
4, 213194, Control_c, 0, 64, 0
4, 213224, Note_on_c, 0, 57, 18
4, 213457, Control_c, 0, 64, 127
4, 213601, Note_on_c, 0, 62, 0
4, 213621, Note_on_c, 0, 57, 0
4, 213639, Note_on_c, 0, 67, 0
4, 213666, Note_on_c, 0, 52, 36
4, 213676, Note_on_c, 0, 72, 0
4, 213717, Note_on_c, 0, 45, 0
4, 213722, Note_on_c, 0, 52, 0
4, 214105, Control_c, 0, 64, 0
4, 214129, Note_on_c, 0, 70, 60
4, 214137, Note_on_c, 0, 54, 48
4, 214138, Note_on_c, 0, 44, 48
4, 214139, Note_on_c, 0, 65, 53
4, 214147, Note_on_c, 0, 60, 58
4, 214298, Note_on_c, 0, 60, 0
4, 214308, Note_on_c, 0, 44, 0
4, 214327, Control_c, 0, 64, 127
4, 214354, Note_on_c, 0, 54, 0
4, 214356, Note_on_c, 0, 65, 0
4, 214375, Note_on_c, 0, 70, 0
4, 214650, Note_on_c, 0, 70, 85
4, 214655, Note_on_c, 0, 77, 72
4, 214663, Note_on_c, 0, 65, 85
4, 214672, Note_on_c, 0, 76, 69
4, 214676, Note_on_c, 0, 74, 57
4, 214682, Note_on_c, 0, 60, 71
4, 214687, Note_on_c, 0, 54, 64
4, 214778, Note_on_c, 0, 65, 0
4, 214821, Note_on_c, 0, 70, 0
4, 214822, Note_on_c, 0, 74, 0
4, 214836, Note_on_c, 0, 76, 0
4, 214849, Note_on_c, 0, 77, 0
4, 214930, Note_on_c, 0, 54, 0
4, 215033, Note_on_c, 0, 60, 0
4, 215134, Note_on_c, 0, 82, 74
4, 215138, Note_on_c, 0, 74, 75
4, 215141, Control_c, 0, 64, 0
4, 215147, Note_on_c, 0, 70, 70
4, 215148, Note_on_c, 0, 54, 67
4, 215150, Note_on_c, 0, 60, 67
4, 215154, Note_on_c, 0, 65, 68
4, 215157, Note_on_c, 0, 77, 53
4, 215191, Note_on_c, 0, 80, 21
4, 215247, Control_c, 0, 64, 127
4, 215261, Note_on_c, 0, 74, 0
4, 215274, Note_on_c, 0, 77, 0
4, 215311, Note_on_c, 0, 70, 0
4, 215314, Note_on_c, 0, 80, 0
4, 215329, Note_on_c, 0, 82, 0
4, 215387, Note_on_c, 0, 65, 0
4, 215439, Note_on_c, 0, 54, 0
4, 215446, Note_on_c, 0, 60, 0
4, 215590, Note_on_c, 0, 84, 75
4, 215596, Note_on_c, 0, 54, 60
4, 215603, Note_on_c, 0, 72, 74
4, 215608, Note_on_c, 0, 60, 59
4, 215610, Note_on_c, 0, 65, 46
4, 215636, Note_on_c, 0, 83, 44
4, 215654, Note_on_c, 0, 65, 0
4, 215685, Note_on_c, 0, 60, 0
4, 215698, Note_on_c, 0, 83, 0
4, 215704, Note_on_c, 0, 84, 0
4, 215721, Note_on_c, 0, 72, 0
4, 215736, Note_on_c, 0, 54, 0
4, 215869, Note_on_c, 0, 75, 25
4, 216029, Note_on_c, 0, 75, 0
4, 216047, Note_on_c, 0, 80, 67
4, 216056, Note_on_c, 0, 76, 69
4, 216061, Control_c, 0, 64, 0
4, 216062, Note_on_c, 0, 71, 60
4, 216077, Note_on_c, 0, 49, 53
4, 216087, Note_on_c, 0, 59, 47
4, 216284, Control_c, 0, 64, 127
4, 216389, Note_on_c, 0, 76, 0
4, 216402, Note_on_c, 0, 80, 0
4, 216489, Note_on_c, 0, 71, 0
4, 216535, Note_on_c, 0, 59, 0
4, 216577, Note_on_c, 0, 56, 57
4, 216934, Note_on_c, 0, 56, 0
4, 217040, Note_on_c, 0, 68, 57
4, 217046, Note_on_c, 0, 59, 56
4, 217056, Note_on_c, 0, 64, 60
4, 217057, Note_on_c, 0, 58, 72
4, 217141, Control_c, 0, 64, 0
4, 217285, Note_on_c, 0, 59, 0
4, 217342, Control_c, 0, 64, 127
4, 217519, Note_on_c, 0, 58, 0
4, 217531, Note_on_c, 0, 59, 68
4, 217553, Control_c, 0, 64, 0
4, 217724, Control_c, 0, 64, 127
4, 217895, Note_on_c, 0, 64, 0
4, 217907, Note_on_c, 0, 59, 0
4, 217958, Note_on_c, 0, 68, 0
4, 218024, Note_on_c, 0, 68, 37
4, 218027, Note_on_c, 0, 58, 57
4, 218029, Note_on_c, 0, 64, 48
4, 218042, Note_on_c, 0, 59, 34
4, 218073, Control_c, 0, 64, 0
4, 218173, Note_on_c, 0, 49, 0
4, 218210, Control_c, 0, 64, 127
4, 218369, Note_on_c, 0, 64, 0
4, 218479, Note_on_c, 0, 49, 52
4, 218501, Note_on_c, 0, 59, 0
4, 218513, Note_on_c, 0, 58, 0
4, 218601, Note_on_c, 0, 49, 0
4, 218909, Note_on_c, 0, 68, 0
4, 218966, Note_on_c, 0, 61, 45
4, 218973, Note_on_c, 0, 57, 40
4, 218983, Control_c, 0, 64, 0
4, 218984, Note_on_c, 0, 42, 36
4, 218999, Note_on_c, 0, 52, 30
4, 219226, Control_c, 0, 64, 127
4, 219367, Note_on_c, 0, 57, 0
4, 219503, Note_on_c, 0, 61, 0
4, 219531, Note_on_c, 0, 57, 46
4, 219632, Note_on_c, 0, 57, 0
4, 219794, Note_on_c, 0, 61, 85
4, 219835, Note_on_c, 0, 52, 0
4, 219971, Note_on_c, 0, 61, 0
4, 220073, Note_on_c, 0, 64, 91
4, 220085, Control_c, 0, 64, 0
4, 220087, Note_on_c, 0, 52, 35
4, 220233, Control_c, 0, 64, 127
4, 220255, Note_on_c, 0, 64, 0
4, 220365, Note_on_c, 0, 68, 80
4, 220693, Note_on_c, 0, 66, 78
4, 220976, Note_on_c, 0, 66, 0
4, 220977, Note_on_c, 0, 68, 0
4, 220995, Note_on_c, 0, 42, 0
4, 221009, Note_on_c, 0, 64, 75
4, 221049, Note_on_c, 0, 52, 0
4, 221338, Note_on_c, 0, 64, 0
4, 221397, Control_c, 0, 64, 0
4, 221492, Control_c, 0, 64, 127
4, 221640, Control_c, 0, 64, 0
4, 221652, Note_on_c, 0, 61, 59
4, 221653, Note_on_c, 0, 44, 46
4, 221672, Control_c, 0, 64, 127
4, 221734, Note_on_c, 0, 61, 0
4, 221921, Note_on_c, 0, 44, 0
4, 221989, Note_on_c, 0, 61, 61
4, 222011, Control_c, 0, 64, 0
4, 222024, Note_on_c, 0, 45, 49
4, 222025, Note_on_c, 0, 56, 37
4, 222264, Control_c, 0, 64, 127
4, 222289, Note_on_c, 0, 56, 0
4, 222377, Note_on_c, 0, 52, 40
4, 222381, Note_on_c, 0, 61, 0
4, 222593, Note_on_c, 0, 52, 0
4, 222613, Note_on_c, 0, 45, 0
4, 222639, Note_on_c, 0, 57, 51
4, 222699, Note_on_c, 0, 57, 0
4, 222933, Note_on_c, 0, 76, 53
4, 222941, Note_on_c, 0, 73, 35
4, 222942, Note_on_c, 0, 68, 39
4, 222945, Note_on_c, 0, 64, 43
4, 222962, Note_on_c, 0, 59, 32
4, 223272, Note_on_c, 0, 61, 55
4, 223740, Note_on_c, 0, 68, 0
4, 223747, Note_on_c, 0, 64, 0
4, 223904, Note_on_c, 0, 68, 35
4, 223922, Note_on_c, 0, 64, 39
4, 223937, Note_on_c, 0, 76, 0
4, 223970, Note_on_c, 0, 59, 0
4, 224015, Note_on_c, 0, 61, 0
4, 224042, Note_on_c, 0, 64, 0
4, 224140, Note_on_c, 0, 73, 0
4, 224213, Note_on_c, 0, 73, 39
4, 224292, Note_on_c, 0, 68, 0
4, 224436, Note_on_c, 0, 73, 0
4, 224490, Note_on_c, 0, 76, 59
4, 224582, Note_on_c, 0, 76, 0
4, 224796, Note_on_c, 0, 84, 71
4, 224808, Note_on_c, 0, 79, 42
4, 224910, Control_c, 0, 64, 0
4, 225016, Note_on_c, 0, 41, 39
4, 225196, Control_c, 0, 64, 127
4, 225262, Note_on_c, 0, 48, 55
4, 225294, Note_on_c, 0, 41, 0
4, 225425, Note_on_c, 0, 48, 0
4, 225506, Note_on_c, 0, 57, 48
4, 225614, Note_on_c, 0, 57, 0
4, 225743, Note_on_c, 0, 60, 51
4, 225982, Note_on_c, 0, 64, 46
4, 226029, Note_on_c, 0, 79, 0
4, 226188, Note_on_c, 0, 74, 48
4, 226355, Note_on_c, 0, 84, 0
4, 226372, Note_on_c, 0, 74, 0
4, 226430, Note_on_c, 0, 79, 35
4, 226573, Note_on_c, 0, 79, 0
4, 226646, Note_on_c, 0, 86, 70
4, 226829, Note_on_c, 0, 86, 0
4, 226834, Note_on_c, 0, 64, 0
4, 226882, Note_on_c, 0, 83, 43
4, 226886, Note_on_c, 0, 60, 0
4, 227015, Note_on_c, 0, 83, 0
4, 227078, Note_on_c, 0, 84, 68
4, 227245, Note_on_c, 0, 84, 0
4, 227298, Note_on_c, 0, 86, 64
4, 227431, Control_c, 0, 64, 0
4, 227458, Note_on_c, 0, 86, 0
4, 227518, Note_on_c, 0, 48, 44
4, 227527, Note_on_c, 0, 84, 58
4, 227581, Note_on_c, 0, 48, 0
4, 227621, Control_c, 0, 64, 127
4, 227749, Note_on_c, 0, 84, 0
4, 227752, Note_on_c, 0, 86, 51
4, 227900, Note_on_c, 0, 86, 0
4, 227971, Control_c, 0, 64, 0
4, 227975, Note_on_c, 0, 63, 35
4, 227979, Note_on_c, 0, 83, 60
4, 227986, Note_on_c, 0, 67, 30
4, 228004, Note_on_c, 0, 62, 32
4, 228006, Note_on_c, 0, 58, 32
4, 228319, Control_c, 0, 64, 127
4, 228354, Note_on_c, 0, 83, 0
4, 228390, Note_on_c, 0, 67, 0
4, 228440, Note_on_c, 0, 62, 0
4, 228482, Note_on_c, 0, 83, 41
4, 228635, Note_on_c, 0, 83, 0
4, 228688, Note_on_c, 0, 84, 48
4, 228722, Note_on_c, 0, 63, 0
4, 228824, Note_on_c, 0, 84, 0
4, 228896, Note_on_c, 0, 79, 38
4, 228900, Control_c, 0, 64, 0
4, 228901, Note_on_c, 0, 63, 33
4, 228907, Note_on_c, 0, 62, 27
4, 228912, Note_on_c, 0, 67, 36
4, 229102, Control_c, 0, 64, 127
4, 229217, Note_on_c, 0, 67, 0
4, 229229, Note_on_c, 0, 79, 0
4, 229288, Note_on_c, 0, 62, 0
4, 229302, Note_on_c, 0, 63, 0
4, 229364, Note_on_c, 0, 67, 33
4, 229367, Note_on_c, 0, 63, 11
4, 229369, Note_on_c, 0, 79, 54
4, 229404, Note_on_c, 0, 62, 13
4, 229719, Note_on_c, 0, 67, 0
4, 229804, Note_on_c, 0, 62, 0
4, 229959, Note_on_c, 0, 67, 29
4, 230095, Note_on_c, 0, 67, 0
4, 230123, Note_on_c, 0, 63, 0
4, 230230, Note_on_c, 0, 58, 0
4, 230356, Note_on_c, 0, 65, 17
4, 230398, Note_on_c, 0, 60, 34
4, 230404, Control_c, 0, 64, 0
4, 230421, Note_on_c, 0, 62, 22
4, 230689, Note_on_c, 0, 81, 44
4, 230785, Control_c, 0, 64, 127
4, 230787, Note_on_c, 0, 79, 0
4, 230804, Note_on_c, 0, 65, 0
4, 230820, Note_on_c, 0, 81, 0
4, 230869, Note_on_c, 0, 84, 75
4, 231071, Note_on_c, 0, 83, 59
4, 231101, Note_on_c, 0, 84, 0
4, 231180, Note_on_c, 0, 82, 51
4, 231210, Note_on_c, 0, 83, 0
4, 231252, Control_c, 0, 64, 0
4, 231269, Note_on_c, 0, 82, 0
4, 231292, Note_on_c, 0, 81, 36
4, 231404, Note_on_c, 0, 53, 36
4, 231411, Note_on_c, 0, 81, 0
4, 231483, Note_on_c, 0, 77, 60
4, 231565, Note_on_c, 0, 77, 0
4, 231672, Note_on_c, 0, 74, 47
4, 231754, Note_on_c, 0, 74, 0
4, 231957, Note_on_c, 0, 60, 0
4, 231958, Note_on_c, 0, 62, 0
4, 231999, Note_on_c, 0, 69, 43
4, 232078, Note_on_c, 0, 69, 0
4, 232141, Note_on_c, 0, 72, 63
4, 232305, Note_on_c, 0, 72, 0
4, 232314, Note_on_c, 0, 69, 41
4, 232394, Note_on_c, 0, 69, 0
4, 232428, Note_on_c, 0, 62, 20
4, 232452, Note_on_c, 0, 60, 22
4, 232466, Note_on_c, 0, 70, 62
4, 232540, Note_on_c, 0, 62, 0
4, 232576, Note_on_c, 0, 60, 0
4, 232607, Note_on_c, 0, 70, 0
4, 232703, Note_on_c, 0, 62, 30
4, 232757, Note_on_c, 0, 53, 0
4, 232795, Note_on_c, 0, 62, 0
4, 233071, Note_on_c, 0, 57, 46
4, 233103, Control_c, 0, 64, 127
4, 233117, Note_on_c, 0, 57, 0
4, 233229, Note_on_c, 0, 65, 66
4, 233305, Control_c, 0, 64, 0
4, 233372, Note_on_c, 0, 65, 0
4, 233386, Note_on_c, 0, 58, 20
4, 233394, Note_on_c, 0, 55, 25
4, 233398, Note_on_c, 0, 48, 29
4, 233423, Note_on_c, 0, 62, 44
4, 233473, Note_on_c, 0, 62, 0
4, 233492, Note_on_c, 0, 58, 0
4, 233582, Note_on_c, 0, 63, 61
4, 233610, Note_on_c, 0, 55, 0
4, 233741, Note_on_c, 0, 63, 0
4, 233758, Note_on_c, 0, 55, 39
4, 233816, Note_on_c, 0, 55, 0
4, 233900, Note_on_c, 0, 62, 60
4, 234051, Note_on_c, 0, 62, 0
4, 234349, Note_on_c, 0, 60, 42
4, 234578, Note_on_c, 0, 60, 0
4, 234600, Note_on_c, 0, 55, 35
4, 234649, Note_on_c, 0, 55, 0
4, 234734, Control_c, 0, 64, 127
4, 234831, Note_on_c, 0, 48, 0
4, 234871, Note_on_c, 0, 55, 53
4, 234988, Note_on_c, 0, 55, 0
4, 235244, Note_on_c, 0, 55, 45
4, 235315, Note_on_c, 0, 55, 0
4, 235872, Note_on_c, 0, 48, 34
4, 235933, Note_on_c, 0, 48, 0
4, 236216, Control_c, 0, 64, 0
4, 236225, Note_on_c, 0, 46, 37
4, 236246, Note_on_c, 0, 62, 45
4, 236251, Note_on_c, 0, 69, 44
4, 236264, Note_on_c, 0, 57, 28
4, 236287, Note_on_c, 0, 53, 18
4, 236438, Control_c, 0, 64, 127
4, 236491, Note_on_c, 0, 62, 0
4, 236649, Note_on_c, 0, 69, 0
4, 236777, Note_on_c, 0, 67, 66
4, 236794, Note_on_c, 0, 57, 0
4, 237021, Note_on_c, 0, 65, 55
4, 237079, Note_on_c, 0, 67, 0
4, 237096, Note_on_c, 0, 53, 0
4, 237124, Note_on_c, 0, 65, 0
4, 237242, Control_c, 0, 64, 0
4, 237270, Note_on_c, 0, 67, 62
4, 237286, Note_on_c, 0, 57, 34
4, 237347, Control_c, 0, 64, 127
4, 237435, Note_on_c, 0, 67, 0
4, 237498, Note_on_c, 0, 46, 0
4, 237563, Note_on_c, 0, 57, 0
4, 237594, Note_on_c, 0, 77, 74
4, 237794, Note_on_c, 0, 77, 0
4, 237855, Note_on_c, 0, 76, 74
4, 238109, Note_on_c, 0, 76, 0
4, 238141, Control_c, 0, 64, 0
4, 238143, Note_on_c, 0, 74, 74
4, 238145, Note_on_c, 0, 56, 46
4, 238151, Note_on_c, 0, 67, 34
4, 238156, Note_on_c, 0, 76, 34
4, 238167, Note_on_c, 0, 62, 33
4, 238218, Note_on_c, 0, 76, 0
4, 238301, Control_c, 0, 64, 127
4, 238412, Note_on_c, 0, 67, 0
4, 238470, Note_on_c, 0, 62, 0
4, 238495, Note_on_c, 0, 76, 1
4, 238526, Note_on_c, 0, 72, 62
4, 238582, Note_on_c, 0, 74, 0
4, 238618, Note_on_c, 0, 56, 0
4, 238634, Note_on_c, 0, 76, 0
4, 238697, Note_on_c, 0, 71, 63
4, 238700, Note_on_c, 0, 72, 0
4, 238815, Note_on_c, 0, 71, 0
4, 238875, Note_on_c, 0, 69, 57
4, 239005, Note_on_c, 0, 69, 0
4, 239063, Control_c, 0, 64, 0
4, 239077, Note_on_c, 0, 68, 60
4, 239090, Note_on_c, 0, 45, 44
4, 239284, Control_c, 0, 64, 127
4, 239397, Note_on_c, 0, 68, 0
4, 239450, Note_on_c, 0, 52, 47
4, 239483, Note_on_c, 0, 45, 0
4, 239684, Note_on_c, 0, 56, 62
4, 239870, Note_on_c, 0, 56, 0
4, 239906, Note_on_c, 0, 52, 0
4, 239920, Note_on_c, 0, 57, 73
4, 240098, Note_on_c, 0, 57, 0
4, 240161, Note_on_c, 0, 64, 74
4, 240167, Note_on_c, 0, 60, 68
4, 240181, Note_on_c, 0, 59, 73
4, 240226, Control_c, 0, 64, 0
4, 240450, Control_c, 0, 64, 127
4, 240939, Note_on_c, 0, 59, 0
4, 240977, Note_on_c, 0, 60, 0
4, 241034, Note_on_c, 0, 64, 0
4, 241427, Note_on_c, 0, 76, 70
4, 241428, Note_on_c, 0, 83, 71
4, 241595, Note_on_c, 0, 83, 0
4, 241625, Note_on_c, 0, 76, 0
4, 241659, Note_on_c, 0, 80, 50
4, 241675, Note_on_c, 0, 76, 32
4, 241688, Note_on_c, 0, 71, 39
4, 241691, Note_on_c, 0, 72, 39
4, 241745, Note_on_c, 0, 71, 0
4, 241757, Note_on_c, 0, 72, 0
4, 241766, Note_on_c, 0, 76, 0
4, 241836, Note_on_c, 0, 80, 0
4, 241911, Control_c, 0, 64, 0
4, 241950, Note_on_c, 0, 60, 49
4, 241958, Note_on_c, 0, 64, 46
4, 241959, Note_on_c, 0, 54, 44
4, 241971, Note_on_c, 0, 95, 80
4, 241972, Note_on_c, 0, 88, 75
4, 242069, Control_c, 0, 64, 127
4, 242211, Note_on_c, 0, 64, 0
4, 242224, Note_on_c, 0, 54, 0
4, 242225, Note_on_c, 0, 60, 0
4, 242269, Note_on_c, 0, 95, 0
4, 242290, Note_on_c, 0, 88, 0
4, 242306, Note_on_c, 0, 92, 51
4, 242308, Note_on_c, 0, 83, 54
4, 242310, Note_on_c, 0, 54, 46
4, 242319, Note_on_c, 0, 64, 37
4, 242323, Note_on_c, 0, 88, 20
4, 242324, Note_on_c, 0, 60, 53
4, 242373, Note_on_c, 0, 92, 0
4, 242656, Note_on_c, 0, 88, 0
4, 242673, Note_on_c, 0, 54, 0
4, 242676, Note_on_c, 0, 64, 0
4, 242720, Note_on_c, 0, 83, 0
4, 242752, Note_on_c, 0, 60, 0
4, 242924, Note_on_c, 0, 88, 48
4, 242928, Note_on_c, 0, 95, 48
4, 242939, Note_on_c, 0, 83, 41
4, 242940, Note_on_c, 0, 54, 46
4, 242945, Control_c, 0, 64, 0
4, 242947, Note_on_c, 0, 60, 41
4, 242948, Note_on_c, 0, 64, 44
4, 243042, Control_c, 0, 64, 127
4, 243374, Note_on_c, 0, 54, 0
4, 243393, Note_on_c, 0, 64, 0
4, 243541, Note_on_c, 0, 88, 0
4, 243591, Note_on_c, 0, 83, 0
4, 243611, Note_on_c, 0, 60, 0
4, 243685, Note_on_c, 0, 95, 0
4, 244774, Note_on_c, 0, 82, 55
4, 244779, Note_on_c, 0, 70, 71
4, 244797, Note_on_c, 0, 64, 42
4, 244819, Note_on_c, 0, 60, 32
4, 244837, Note_on_c, 0, 57, 30
4, 244852, Control_c, 0, 64, 0
4, 244919, Note_on_c, 0, 70, 0
4, 244922, Note_on_c, 0, 82, 0
4, 244928, Note_on_c, 0, 71, 59
4, 245054, Note_on_c, 0, 71, 0
4, 245072, Note_on_c, 0, 83, 45
4, 245148, Note_on_c, 0, 71, 44
4, 245165, Note_on_c, 0, 83, 0
4, 245281, Note_on_c, 0, 71, 0
4, 245304, Note_on_c, 0, 83, 36
4, 245360, Note_on_c, 0, 71, 40
4, 245362, Note_on_c, 0, 64, 0
4, 245367, Note_on_c, 0, 83, 0
4, 245444, Note_on_c, 0, 60, 0
4, 245481, Note_on_c, 0, 71, 0
4, 245504, Note_on_c, 0, 83, 46
4, 245590, Note_on_c, 0, 71, 31
4, 245599, Note_on_c, 0, 83, 0
4, 245668, Control_c, 0, 64, 127
4, 245749, Note_on_c, 0, 83, 31
4, 245765, Note_on_c, 0, 71, 0
4, 245794, Control_c, 0, 64, 0
4, 245822, Note_on_c, 0, 64, 43
4, 245827, Note_on_c, 0, 83, 0
4, 245855, Note_on_c, 0, 60, 30
4, 246115, Note_on_c, 0, 82, 59
4, 246270, Note_on_c, 0, 82, 0
4, 246326, Note_on_c, 0, 64, 0
4, 246341, Note_on_c, 0, 83, 64
4, 246461, Note_on_c, 0, 60, 0
4, 246473, Note_on_c, 0, 83, 0
4, 246546, Control_c, 0, 64, 127
4, 246637, Note_on_c, 0, 86, 89
4, 246810, Control_c, 0, 64, 0
4, 246823, Note_on_c, 0, 86, 0
4, 246835, Note_on_c, 0, 64, 38
4, 246885, Note_on_c, 0, 60, 26
4, 246931, Note_on_c, 0, 84, 89
4, 247117, Control_c, 0, 64, 127
4, 247125, Note_on_c, 0, 84, 0
4, 247223, Note_on_c, 0, 83, 78
4, 247405, Note_on_c, 0, 83, 0
4, 247410, Note_on_c, 0, 64, 0
4, 247419, Note_on_c, 0, 60, 0
4, 247438, Note_on_c, 0, 57, 0
4, 247458, Note_on_c, 0, 81, 69
4, 247637, Note_on_c, 0, 81, 0
4, 247749, Note_on_c, 0, 65, 53
4, 247754, Note_on_c, 0, 54, 47
4, 247755, Note_on_c, 0, 60, 45
4, 247759, Note_on_c, 0, 58, 45
4, 247763, Control_c, 0, 64, 0
4, 247995, Control_c, 0, 64, 127
4, 248423, Note_on_c, 0, 86, 95
4, 248428, Note_on_c, 0, 77, 94
4, 248507, Note_on_c, 0, 65, 0
4, 248586, Note_on_c, 0, 60, 0
4, 248624, Note_on_c, 0, 58, 0
4, 248628, Note_on_c, 0, 77, 0
4, 248633, Note_on_c, 0, 86, 0
4, 248733, Note_on_c, 0, 54, 0
4, 248736, Control_c, 0, 64, 0
4, 248793, Note_on_c, 0, 84, 88
4, 248798, Note_on_c, 0, 65, 54
4, 248800, Note_on_c, 0, 76, 84
4, 248815, Note_on_c, 0, 54, 42
4, 248816, Note_on_c, 0, 58, 45
4, 248817, Note_on_c, 0, 60, 53
4, 248908, Control_c, 0, 64, 127
4, 248966, Note_on_c, 0, 84, 0
4, 249048, Note_on_c, 0, 76, 0
4, 249081, Note_on_c, 0, 65, 0
4, 249112, Note_on_c, 0, 54, 0
4, 249124, Note_on_c, 0, 60, 0
4, 249151, Note_on_c, 0, 58, 0
4, 249218, Note_on_c, 0, 80, 75
4, 249230, Note_on_c, 0, 72, 56
4, 249242, Note_on_c, 0, 58, 50
4, 249244, Note_on_c, 0, 65, 59
4, 249250, Note_on_c, 0, 54, 53
4, 249254, Note_on_c, 0, 60, 48
4, 249279, Control_c, 0, 64, 0
4, 249406, Control_c, 0, 64, 127
4, 249423, Note_on_c, 0, 80, 0
4, 249485, Note_on_c, 0, 72, 0
4, 249515, Note_on_c, 0, 65, 0
4, 249582, Note_on_c, 0, 60, 0
4, 249598, Note_on_c, 0, 58, 0
4, 249617, Note_on_c, 0, 54, 0
4, 249628, Control_c, 0, 64, 0
4, 249678, Note_on_c, 0, 77, 66
4, 249688, Note_on_c, 0, 65, 53
4, 249698, Note_on_c, 0, 54, 46
4, 249699, Note_on_c, 0, 69, 46
4, 249700, Note_on_c, 0, 71, 50
4, 249702, Note_on_c, 0, 60, 41
4, 249708, Note_on_c, 0, 58, 47
4, 249766, Control_c, 0, 64, 127
4, 249822, Note_on_c, 0, 71, 0
4, 249829, Note_on_c, 0, 69, 0
4, 249900, Note_on_c, 0, 65, 0
4, 249954, Note_on_c, 0, 54, 0
4, 249966, Note_on_c, 0, 58, 0
4, 250002, Note_on_c, 0, 60, 0
4, 250042, Note_on_c, 0, 77, 0
4, 250122, Note_on_c, 0, 54, 56
4, 250124, Note_on_c, 0, 75, 51
4, 250136, Note_on_c, 0, 69, 59
4, 250146, Note_on_c, 0, 73, 45
4, 250147, Note_on_c, 0, 58, 31
4, 250218, Note_on_c, 0, 75, 0
4, 250219, Note_on_c, 0, 58, 0
4, 250235, Note_on_c, 0, 69, 0
4, 250245, Note_on_c, 0, 73, 0
4, 250280, Note_on_c, 0, 54, 0
4, 250605, Control_c, 0, 64, 0
4, 250606, Note_on_c, 0, 76, 61
4, 250609, Note_on_c, 0, 64, 66
4, 250630, Note_on_c, 0, 59, 47
4, 250631, Note_on_c, 0, 56, 39
4, 250633, Note_on_c, 0, 49, 40
4, 250848, Control_c, 0, 64, 127
4, 250889, Note_on_c, 0, 59, 0
4, 251038, Control_c, 0, 64, 0
4, 251039, Note_on_c, 0, 56, 0
4, 251047, Note_on_c, 0, 58, 62
4, 251186, Control_c, 0, 64, 127
4, 251438, Note_on_c, 0, 64, 0
4, 251480, Note_on_c, 0, 58, 0
4, 251586, Note_on_c, 0, 56, 74
4, 251589, Control_c, 0, 64, 0
4, 251595, Note_on_c, 0, 64, 26
4, 251681, Note_on_c, 0, 64, 0
4, 251792, Note_on_c, 0, 57, 28
4, 251848, Note_on_c, 0, 56, 0
4, 251869, Note_on_c, 0, 57, 0
4, 251955, Note_on_c, 0, 57, 68
4, 252160, Control_c, 0, 64, 127
4, 252372, Control_c, 0, 64, 0
4, 252389, Note_on_c, 0, 56, 65
4, 252398, Note_on_c, 0, 57, 0
4, 252596, Control_c, 0, 64, 127
4, 252721, Note_on_c, 0, 49, 0
4, 252777, Note_on_c, 0, 64, 55
4, 252836, Note_on_c, 0, 76, 0
4, 252977, Note_on_c, 0, 64, 0
4, 253044, Note_on_c, 0, 49, 53
4, 253124, Note_on_c, 0, 56, 0
4, 253182, Note_on_c, 0, 49, 0
4, 253346, Note_on_c, 0, 57, 55
4, 253350, Note_on_c, 0, 61, 49
4, 253354, Note_on_c, 0, 42, 46
4, 253367, Control_c, 0, 64, 0
4, 253374, Note_on_c, 0, 52, 36
4, 253665, Control_c, 0, 64, 127
4, 254121, Note_on_c, 0, 52, 0
4, 254377, Note_on_c, 0, 52, 32
4, 254383, Note_on_c, 0, 57, 0
4, 254628, Note_on_c, 0, 61, 0
4, 254729, Note_on_c, 0, 57, 26
4, 255034, Note_on_c, 0, 59, 58
4, 255079, Note_on_c, 0, 57, 0
4, 255153, Note_on_c, 0, 42, 0
4, 255192, Note_on_c, 0, 52, 0
4, 255332, Note_on_c, 0, 59, 0
4, 255403, Note_on_c, 0, 44, 49
4, 255410, Note_on_c, 0, 59, 66
4, 255426, Note_on_c, 0, 54, 40
4, 255431, Control_c, 0, 64, 0
4, 255707, Control_c, 0, 64, 127
4, 255711, Note_on_c, 0, 61, 83
4, 255761, Note_on_c, 0, 59, 0
4, 255938, Note_on_c, 0, 61, 0
4, 256000, Note_on_c, 0, 61, 92
4, 256184, Note_on_c, 0, 61, 0
4, 256196, Note_on_c, 0, 44, 0
4, 256246, Note_on_c, 0, 54, 0
4, 256248, Note_on_c, 0, 63, 83
4, 256321, Note_on_c, 0, 45, 60
4, 256415, Control_c, 0, 64, 0
4, 256470, Note_on_c, 0, 63, 0
4, 256544, Note_on_c, 0, 63, 74
4, 256692, Control_c, 0, 64, 127
4, 256730, Note_on_c, 0, 63, 0
4, 256758, Note_on_c, 0, 64, 61
4, 256929, Note_on_c, 0, 64, 0
4, 257032, Note_on_c, 0, 64, 66
4, 257056, Note_on_c, 0, 61, 52
4, 257263, Control_c, 0, 64, 0
4, 257333, Note_on_c, 0, 57, 35
4, 257378, Control_c, 0, 64, 127
4, 257510, Note_on_c, 0, 64, 0
4, 257599, Note_on_c, 0, 61, 0
4, 257665, Note_on_c, 0, 66, 79
4, 257843, Note_on_c, 0, 66, 0
4, 257910, Note_on_c, 0, 66, 80
4, 257951, Note_on_c, 0, 45, 0
4, 258094, Note_on_c, 0, 66, 0
4, 258184, Control_c, 0, 64, 0
4, 258185, Note_on_c, 0, 67, 82
4, 258203, Note_on_c, 0, 45, 44
4, 258291, Note_on_c, 0, 57, 0
4, 258316, Note_on_c, 0, 45, 0
4, 258354, Control_c, 0, 64, 127
4, 258385, Note_on_c, 0, 67, 0
4, 258450, Note_on_c, 0, 67, 76
4, 258595, Note_on_c, 0, 67, 0
4, 258689, Note_on_c, 0, 69, 72
4, 258840, Note_on_c, 0, 69, 0
4, 258894, Note_on_c, 0, 71, 62
4, 258903, Note_on_c, 0, 69, 64
4, 259031, Note_on_c, 0, 69, 0
4, 259040, Note_on_c, 0, 71, 0
4, 259153, Note_on_c, 0, 41, 38
4, 259168, Note_on_c, 0, 48, 49
4, 259175, Note_on_c, 0, 57, 42
4, 259178, Control_c, 0, 64, 0
4, 259201, Note_on_c, 0, 69, 35
4, 259202, Note_on_c, 0, 71, 38
4, 259284, Note_on_c, 0, 69, 0
4, 259285, Note_on_c, 0, 71, 0
4, 259443, Control_c, 0, 64, 127
4, 259522, Note_on_c, 0, 69, 59
4, 259574, Note_on_c, 0, 69, 0
4, 259659, Note_on_c, 0, 71, 50
4, 259741, Note_on_c, 0, 57, 0
4, 259757, Note_on_c, 0, 71, 0
4, 259820, Note_on_c, 0, 71, 66
4, 259916, Note_on_c, 0, 71, 0
4, 259956, Note_on_c, 0, 72, 57
4, 260046, Note_on_c, 0, 72, 0
4, 260091, Note_on_c, 0, 72, 55
4, 260197, Note_on_c, 0, 72, 0
4, 260227, Note_on_c, 0, 74, 68
4, 260255, Note_on_c, 0, 57, 45
4, 260290, Control_c, 0, 64, 0
4, 260308, Note_on_c, 0, 74, 0
4, 260356, Note_on_c, 0, 74, 63
4, 260458, Note_on_c, 0, 74, 0
4, 260489, Note_on_c, 0, 76, 64
4, 260501, Control_c, 0, 64, 127
4, 260577, Note_on_c, 0, 76, 0
4, 260627, Note_on_c, 0, 76, 61
4, 260632, Note_on_c, 0, 57, 0
4, 260709, Note_on_c, 0, 76, 0
4, 260730, Note_on_c, 0, 77, 61
4, 260774, Note_on_c, 0, 77, 0
4, 260833, Note_on_c, 0, 77, 66
4, 260918, Note_on_c, 0, 77, 0
4, 260939, Note_on_c, 0, 79, 57
4, 260976, Note_on_c, 0, 79, 0
4, 261033, Note_on_c, 0, 79, 67
4, 261114, Note_on_c, 0, 79, 0
4, 261138, Note_on_c, 0, 81, 60
4, 261190, Note_on_c, 0, 81, 0
4, 261221, Control_c, 0, 64, 0
4, 261225, Note_on_c, 0, 57, 42
4, 261244, Note_on_c, 0, 81, 63
4, 261341, Note_on_c, 0, 81, 0
4, 261360, Control_c, 0, 64, 127
4, 261369, Note_on_c, 0, 83, 50
4, 261428, Note_on_c, 0, 83, 0
4, 261517, Note_on_c, 0, 83, 39
4, 261609, Note_on_c, 0, 41, 0
4, 261620, Note_on_c, 0, 83, 0
4, 261680, Note_on_c, 0, 48, 0
4, 261750, Note_on_c, 0, 57, 0
4, 261890, Note_on_c, 0, 86, 39
4, 261997, Note_on_c, 0, 87, 50
4, 262031, Note_on_c, 0, 86, 0
4, 262050, Note_on_c, 0, 87, 0
4, 262060, Note_on_c, 0, 88, 41
4, 262177, Note_on_c, 0, 88, 0
4, 262195, Control_c, 0, 64, 0
4, 262212, Note_on_c, 0, 86, 67
4, 262280, Note_on_c, 0, 48, 24
4, 262385, Control_c, 0, 64, 127
4, 262413, Note_on_c, 0, 48, 0
4, 262644, Note_on_c, 0, 86, 0
4, 262646, Note_on_c, 0, 76, 39
4, 262831, Note_on_c, 0, 76, 0
4, 263030, Note_on_c, 0, 79, 34
4, 263045, Note_on_c, 0, 63, 34
4, 263057, Note_on_c, 0, 67, 17
4, 263059, Note_on_c, 0, 58, 29
4, 263061, Note_on_c, 0, 86, 43
4, 263071, Note_on_c, 0, 62, 38
4, 263295, Note_on_c, 0, 79, 0
4, 263297, Note_on_c, 0, 74, 32
4, 263347, Note_on_c, 0, 82, 46
4, 263365, Note_on_c, 0, 86, 0
4, 263448, Note_on_c, 0, 67, 0
4, 263480, Note_on_c, 0, 74, 0
4, 263535, Note_on_c, 0, 82, 0
4, 263540, Note_on_c, 0, 86, 53
4, 263545, Note_on_c, 0, 79, 52
4, 263596, Note_on_c, 0, 63, 0
4, 263601, Note_on_c, 0, 62, 0
4, 263702, Note_on_c, 0, 79, 0
4, 263726, Note_on_c, 0, 86, 0
4, 263760, Note_on_c, 0, 74, 40
4, 263774, Note_on_c, 0, 82, 38
4, 263928, Note_on_c, 0, 74, 0
4, 263973, Note_on_c, 0, 82, 0
4, 264017, Note_on_c, 0, 79, 42
4, 264026, Note_on_c, 0, 63, 31
4, 264029, Note_on_c, 0, 86, 40
4, 264043, Note_on_c, 0, 67, 20
4, 264232, Note_on_c, 0, 86, 0
4, 264237, Note_on_c, 0, 79, 0
4, 264259, Note_on_c, 0, 74, 43
4, 264262, Note_on_c, 0, 82, 34
4, 264430, Note_on_c, 0, 74, 0
4, 264456, Note_on_c, 0, 82, 0
4, 264483, Note_on_c, 0, 79, 40
4, 264494, Note_on_c, 0, 86, 45
4, 264498, Note_on_c, 0, 67, 0
4, 264544, Note_on_c, 0, 63, 0
4, 264645, Note_on_c, 0, 58, 0
4, 264669, Note_on_c, 0, 86, 0
4, 264717, Note_on_c, 0, 82, 42
4, 264724, Note_on_c, 0, 74, 39
4, 264777, Note_on_c, 0, 79, 0
4, 264857, Note_on_c, 0, 74, 0
4, 264924, Note_on_c, 0, 82, 0
4, 264979, Note_on_c, 0, 65, 31
4, 265000, Control_c, 0, 64, 0
4, 265006, Note_on_c, 0, 83, 52
4, 265020, Note_on_c, 0, 89, 51
4, 265023, Note_on_c, 0, 62, 29
4, 265024, Note_on_c, 0, 60, 40
4, 265221, Control_c, 0, 64, 127
4, 265260, Note_on_c, 0, 83, 0
4, 265273, Note_on_c, 0, 65, 0
4, 265292, Note_on_c, 0, 89, 0
4, 265535, Note_on_c, 0, 86, 60
4, 265550, Control_c, 0, 64, 0
4, 265563, Note_on_c, 0, 53, 35
4, 265566, Note_on_c, 0, 74, 38
4, 265708, Control_c, 0, 64, 127
4, 265720, Note_on_c, 0, 86, 0
4, 265777, Note_on_c, 0, 74, 0
4, 265814, Note_on_c, 0, 77, 31
4, 265862, Note_on_c, 0, 77, 0
4, 265867, Note_on_c, 0, 81, 31
4, 265868, Note_on_c, 0, 60, 0
4, 265880, Note_on_c, 0, 62, 0
4, 265925, Note_on_c, 0, 81, 0
4, 266016, Control_c, 0, 64, 0
4, 266017, Note_on_c, 0, 77, 49
4, 266021, Note_on_c, 0, 84, 64
4, 266040, Note_on_c, 0, 65, 39
4, 266042, Note_on_c, 0, 81, 31
4, 266052, Note_on_c, 0, 62, 24
4, 266106, Note_on_c, 0, 60, 27
4, 266121, Control_c, 0, 64, 127
4, 266125, Note_on_c, 0, 81, 0
4, 266207, Note_on_c, 0, 77, 0
4, 266258, Note_on_c, 0, 84, 0
4, 266259, Note_on_c, 0, 74, 48
4, 266260, Note_on_c, 0, 62, 0
4, 266278, Note_on_c, 0, 60, 0
4, 266300, Note_on_c, 0, 65, 0
4, 266323, Note_on_c, 0, 74, 0
4, 266453, Note_on_c, 0, 74, 47
4, 266467, Note_on_c, 0, 81, 43
4, 266474, Note_on_c, 0, 65, 42
4, 266481, Control_c, 0, 64, 0
4, 266501, Note_on_c, 0, 60, 37
4, 266508, Note_on_c, 0, 62, 24
4, 266618, Control_c, 0, 64, 127
4, 266648, Note_on_c, 0, 65, 0
4, 266678, Note_on_c, 0, 81, 0
4, 266681, Note_on_c, 0, 60, 0
4, 266686, Note_on_c, 0, 62, 0
4, 266687, Note_on_c, 0, 74, 0
4, 266694, Note_on_c, 0, 69, 36
4, 266841, Note_on_c, 0, 69, 0
4, 266936, Control_c, 0, 64, 0
4, 266937, Note_on_c, 0, 77, 51
4, 266940, Note_on_c, 0, 65, 39
4, 266957, Note_on_c, 0, 62, 31
4, 266970, Note_on_c, 0, 72, 44
4, 266990, Note_on_c, 0, 60, 29
4, 267064, Control_c, 0, 64, 127
4, 267100, Note_on_c, 0, 65, 0
4, 267127, Note_on_c, 0, 60, 0
4, 267140, Note_on_c, 0, 62, 0
4, 267159, Note_on_c, 0, 72, 0
4, 267193, Note_on_c, 0, 65, 36
4, 267201, Note_on_c, 0, 77, 0
4, 267307, Note_on_c, 0, 65, 0
4, 267399, Note_on_c, 0, 67, 70
4, 267420, Note_on_c, 0, 62, 20
4, 267484, Note_on_c, 0, 62, 0
4, 267537, Note_on_c, 0, 67, 0
4, 267562, Note_on_c, 0, 53, 0
4, 267598, Note_on_c, 0, 74, 67
4, 267616, Note_on_c, 0, 67, 47
4, 267730, Note_on_c, 0, 74, 0
4, 267787, Note_on_c, 0, 67, 0
4, 267848, Control_c, 0, 64, 0
4, 267850, Note_on_c, 0, 63, 42
4, 267858, Note_on_c, 0, 70, 39
4, 267865, Note_on_c, 0, 67, 33
4, 267872, Note_on_c, 0, 58, 32
4, 267877, Note_on_c, 0, 48, 51
4, 268068, Control_c, 0, 64, 127
4, 268075, Note_on_c, 0, 67, 0
4, 268096, Note_on_c, 0, 63, 0
4, 268142, Note_on_c, 0, 70, 0
4, 268170, Note_on_c, 0, 55, 34
4, 268193, Note_on_c, 0, 58, 0
4, 268340, Note_on_c, 0, 66, 64
4, 268384, Note_on_c, 0, 62, 29
4, 268401, Note_on_c, 0, 58, 32
4, 268439, Control_c, 0, 64, 0
4, 268640, Control_c, 0, 64, 127
4, 268696, Note_on_c, 0, 62, 0
4, 268699, Note_on_c, 0, 55, 0
4, 268736, Note_on_c, 0, 66, 0
4, 268818, Note_on_c, 0, 65, 48
4, 268824, Note_on_c, 0, 55, 47
4, 268843, Note_on_c, 0, 60, 24
4, 268906, Control_c, 0, 64, 0
4, 269102, Note_on_c, 0, 60, 0
4, 269116, Control_c, 0, 64, 127
4, 269191, Note_on_c, 0, 55, 0
4, 269306, Note_on_c, 0, 58, 0
4, 269365, Note_on_c, 0, 55, 14
4, 269758, Note_on_c, 0, 65, 0
4, 269814, Control_c, 0, 64, 0
4, 269815, Note_on_c, 0, 58, 39
4, 269827, Note_on_c, 0, 63, 35
4, 269832, Note_on_c, 0, 60, 35
4, 269943, Control_c, 0, 64, 127
4, 270009, Note_on_c, 0, 48, 0
4, 270040, Note_on_c, 0, 58, 0
4, 270307, Note_on_c, 0, 60, 0
4, 270319, Note_on_c, 0, 48, 40
4, 270359, Note_on_c, 0, 55, 0
4, 270473, Note_on_c, 0, 48, 0
4, 270640, Note_on_c, 0, 63, 0
4, 270759, Control_c, 0, 64, 0
4, 270798, Note_on_c, 0, 62, 33
4, 270805, Note_on_c, 0, 57, 29
4, 270809, Note_on_c, 0, 46, 37
4, 270943, Note_on_c, 0, 57, 0
4, 270959, Control_c, 0, 64, 127
4, 271071, Note_on_c, 0, 62, 0
4, 271217, Note_on_c, 0, 53, 41
4, 271285, Note_on_c, 0, 46, 0
4, 271301, Note_on_c, 0, 53, 0
4, 271777, Note_on_c, 0, 56, 34
4, 271779, Note_on_c, 0, 62, 24
4, 271859, Control_c, 0, 64, 0
4, 271888, Note_on_c, 0, 67, 50
4, 272003, Note_on_c, 0, 67, 0
4, 272010, Note_on_c, 0, 68, 48
4, 272121, Note_on_c, 0, 68, 0
4, 272133, Note_on_c, 0, 70, 35
4, 272171, Note_on_c, 0, 70, 0
4, 272197, Note_on_c, 0, 71, 62
4, 272293, Note_on_c, 0, 72, 59
4, 272294, Note_on_c, 0, 71, 0
4, 272407, Note_on_c, 0, 72, 0
4, 272430, Note_on_c, 0, 73, 39
4, 272471, Note_on_c, 0, 73, 0
4, 272532, Note_on_c, 0, 74, 52
4, 272593, Note_on_c, 0, 74, 0
4, 272740, Note_on_c, 0, 75, 59
4, 272828, Note_on_c, 0, 75, 0
4, 272888, Note_on_c, 0, 76, 64
4, 272977, Note_on_c, 0, 76, 0
4, 273023, Note_on_c, 0, 77, 53
4, 273131, Note_on_c, 0, 67, 41
4, 273132, Note_on_c, 0, 77, 0
4, 273237, Note_on_c, 0, 79, 60
4, 273327, Note_on_c, 0, 79, 0
4, 273340, Note_on_c, 0, 67, 0
4, 273401, Note_on_c, 0, 80, 52
4, 273422, Note_on_c, 0, 62, 0
4, 273537, Note_on_c, 0, 56, 0
4, 273562, Note_on_c, 0, 82, 62
4, 273569, Note_on_c, 0, 80, 0
4, 273686, Note_on_c, 0, 82, 0
4, 273688, Note_on_c, 0, 83, 54
4, 273802, Note_on_c, 0, 83, 0
4, 273815, Note_on_c, 0, 86, 72
4, 273870, Note_on_c, 0, 45, 41
4, 273880, Note_on_c, 0, 52, 30
4, 273927, Note_on_c, 0, 86, 0
4, 273990, Note_on_c, 0, 83, 53
4, 274045, Note_on_c, 0, 83, 0
4, 274146, Note_on_c, 0, 84, 65
4, 274262, Note_on_c, 0, 84, 0
4, 274303, Note_on_c, 0, 80, 46
4, 274406, Note_on_c, 0, 80, 0
4, 274459, Note_on_c, 0, 83, 55
4, 274586, Note_on_c, 0, 83, 0
4, 274609, Note_on_c, 0, 80, 30
4, 274674, Note_on_c, 0, 80, 0
4, 274744, Note_on_c, 0, 81, 56
4, 274790, Note_on_c, 0, 57, 37
4, 274842, Note_on_c, 0, 81, 0
4, 274888, Note_on_c, 0, 76, 47
4, 274987, Note_on_c, 0, 76, 0
4, 275049, Note_on_c, 0, 74, 46
4, 275192, Note_on_c, 0, 74, 0
4, 275219, Note_on_c, 0, 72, 31
4, 275324, Note_on_c, 0, 72, 0
4, 275346, Note_on_c, 0, 71, 50
4, 275443, Note_on_c, 0, 71, 0
4, 275494, Note_on_c, 0, 74, 36
4, 275622, Note_on_c, 0, 74, 0
4, 275670, Note_on_c, 0, 71, 30
4, 275745, Note_on_c, 0, 71, 0
4, 275810, Note_on_c, 0, 45, 0
4, 275822, Note_on_c, 0, 52, 0
4, 275824, Note_on_c, 0, 72, 57
4, 275956, Note_on_c, 0, 72, 0
4, 275961, Note_on_c, 0, 57, 0
4, 276042, Note_on_c, 0, 69, 35
4, 276111, Note_on_c, 0, 69, 0
4, 276265, Note_on_c, 0, 69, 51
4, 276323, Note_on_c, 0, 69, 0
4, 276456, Note_on_c, 0, 69, 55
4, 276533, Note_on_c, 0, 69, 0
4, 276643, Note_on_c, 0, 60, 27
4, 276646, Note_on_c, 0, 69, 54
4, 276647, Note_on_c, 0, 54, 32
4, 276687, Note_on_c, 0, 50, 33
4, 276777, Note_on_c, 0, 64, 12
4, 276889, Note_on_c, 0, 69, 0
4, 277084, Note_on_c, 0, 64, 0
4, 277150, Control_c, 0, 64, 127
4, 277171, Control_c, 0, 64, 0
4, 277175, Note_on_c, 0, 64, 34
4, 277179, Note_on_c, 0, 68, 44
4, 277415, Control_c, 0, 64, 127
4, 277459, Note_on_c, 0, 64, 0
4, 277483, Note_on_c, 0, 60, 0
4, 277505, Note_on_c, 0, 68, 0
4, 277595, Control_c, 0, 64, 0
4, 277637, Note_on_c, 0, 68, 45
4, 277662, Note_on_c, 0, 60, 31
4, 277666, Note_on_c, 0, 64, 38
4, 277840, Control_c, 0, 64, 127
4, 277935, Note_on_c, 0, 60, 0
4, 277995, Note_on_c, 0, 64, 0
4, 278080, Note_on_c, 0, 64, 62
4, 278088, Note_on_c, 0, 69, 66
4, 278108, Note_on_c, 0, 60, 34
4, 278307, Note_on_c, 0, 60, 0
4, 278322, Note_on_c, 0, 68, 0
4, 278386, Note_on_c, 0, 69, 0
4, 278389, Note_on_c, 0, 64, 0
4, 278533, Note_on_c, 0, 64, 66
4, 278536, Note_on_c, 0, 69, 63
4, 278551, Note_on_c, 0, 60, 41
4, 278628, Note_on_c, 0, 69, 0
4, 278646, Note_on_c, 0, 50, 0
4, 278687, Note_on_c, 0, 60, 0
4, 278695, Note_on_c, 0, 64, 0
4, 278956, Note_on_c, 0, 50, 51
4, 278966, Note_on_c, 0, 71, 88
4, 278967, Note_on_c, 0, 64, 90
4, 279040, Note_on_c, 0, 54, 0
4, 279104, Note_on_c, 0, 50, 0
4, 279238, Note_on_c, 0, 64, 0
4, 279244, Note_on_c, 0, 71, 0
4, 279384, Control_c, 0, 64, 0
4, 279406, Note_on_c, 0, 45, 53
4, 279414, Note_on_c, 0, 71, 68
4, 279417, Note_on_c, 0, 64, 76
4, 279437, Note_on_c, 0, 52, 44
4, 279438, Note_on_c, 0, 60, 66
4, 279533, Control_c, 0, 64, 127
4, 279624, Note_on_c, 0, 71, 0
4, 279635, Note_on_c, 0, 60, 0
4, 279775, Note_on_c, 0, 64, 0
4, 279818, Control_c, 0, 64, 0
4, 279860, Note_on_c, 0, 72, 76
4, 279867, Note_on_c, 0, 56, 63
4, 279946, Control_c, 0, 64, 127
4, 280020, Note_on_c, 0, 72, 0
4, 280224, Note_on_c, 0, 56, 0
4, 280314, Note_on_c, 0, 64, 56
4, 280321, Note_on_c, 0, 71, 53
4, 280325, Control_c, 0, 64, 0
4, 280327, Note_on_c, 0, 60, 42
4, 280340, Note_on_c, 0, 55, 48
4, 280468, Note_on_c, 0, 52, 0
4, 280569, Control_c, 0, 64, 127
4, 280834, Note_on_c, 0, 52, 44
4, 281036, Note_on_c, 0, 64, 0
4, 281093, Note_on_c, 0, 60, 0
4, 281329, Note_on_c, 0, 64, 48
4, 281331, Note_on_c, 0, 60, 36
4, 281382, Note_on_c, 0, 71, 0
4, 281389, Note_on_c, 0, 45, 0
4, 281443, Note_on_c, 0, 60, 0
4, 281483, Note_on_c, 0, 64, 0
4, 281793, Note_on_c, 0, 45, 47
4, 281806, Note_on_c, 0, 72, 78
4, 281863, Note_on_c, 0, 55, 0
4, 281945, Note_on_c, 0, 45, 0
4, 281952, Note_on_c, 0, 52, 0
4, 281995, Note_on_c, 0, 72, 0
4, 282220, Control_c, 0, 64, 0
4, 282251, Note_on_c, 0, 74, 87
4, 282264, Note_on_c, 0, 70, 82
4, 282275, Note_on_c, 0, 44, 57
4, 282282, Note_on_c, 0, 65, 87
4, 282288, Note_on_c, 0, 54, 64
4, 282382, Note_on_c, 0, 44, 0
4, 282390, Control_c, 0, 64, 127
4, 282438, Note_on_c, 0, 54, 0
4, 282502, Note_on_c, 0, 74, 0
4, 282507, Note_on_c, 0, 70, 0
4, 282624, Note_on_c, 0, 65, 0
4, 282721, Note_on_c, 0, 70, 58
4, 282723, Note_on_c, 0, 77, 66
4, 282752, Note_on_c, 0, 54, 69
4, 283083, Note_on_c, 0, 70, 0
4, 283153, Control_c, 0, 64, 0
4, 283154, Note_on_c, 0, 77, 0
4, 283191, Note_on_c, 0, 70, 56
4, 283199, Note_on_c, 0, 74, 60
4, 283206, Note_on_c, 0, 65, 55
4, 283214, Note_on_c, 0, 60, 60
4, 283311, Control_c, 0, 64, 127
4, 283471, Note_on_c, 0, 65, 0
4, 283711, Note_on_c, 0, 65, 55
4, 283880, Note_on_c, 0, 76, 1
4, 283920, Note_on_c, 0, 65, 0
4, 284126, Note_on_c, 0, 70, 0
4, 284179, Note_on_c, 0, 70, 23
4, 284199, Note_on_c, 0, 64, 41
4, 284210, Note_on_c, 0, 65, 43
4, 284213, Note_on_c, 0, 60, 0
4, 284322, Note_on_c, 0, 65, 0
4, 284343, Note_on_c, 0, 74, 0
4, 284345, Note_on_c, 0, 64, 0
4, 284410, Note_on_c, 0, 70, 0
4, 284599, Note_on_c, 0, 76, 0
4, 284690, Note_on_c, 0, 79, 55
4, 284691, Note_on_c, 0, 60, 36
4, 284712, Note_on_c, 0, 67, 47
4, 284757, Note_on_c, 0, 60, 0
4, 284827, Note_on_c, 0, 54, 0
4, 284834, Note_on_c, 0, 79, 0
4, 284878, Note_on_c, 0, 67, 0
4, 285167, Note_on_c, 0, 80, 39
4, 285173, Control_c, 0, 64, 0
4, 285177, Note_on_c, 0, 68, 33
4, 285186, Note_on_c, 0, 49, 30
4, 285198, Note_on_c, 0, 59, 30
4, 285375, Control_c, 0, 64, 127
4, 285527, Note_on_c, 0, 59, 0
4, 285638, Control_c, 0, 64, 0
4, 285648, Note_on_c, 0, 56, 44
4, 285829, Control_c, 0, 64, 127
4, 286136, Control_c, 0, 64, 0
4, 286160, Note_on_c, 0, 58, 34
4, 286305, Control_c, 0, 64, 127
4, 286510, Note_on_c, 0, 58, 0
4, 286619, Note_on_c, 0, 56, 0
4, 286651, Note_on_c, 0, 59, 42
4, 286652, Note_on_c, 0, 49, 0
4, 287118, Note_on_c, 0, 61, 46
4, 287140, Note_on_c, 0, 59, 0
4, 287600, Note_on_c, 0, 63, 35
4, 287869, Note_on_c, 0, 68, 0
4, 288013, Note_on_c, 0, 63, 0
4, 288071, Note_on_c, 0, 69, 45
4, 288095, Note_on_c, 0, 61, 0
4, 288112, Note_on_c, 0, 64, 26
4, 288127, Control_c, 0, 64, 0
4, 288131, Note_on_c, 0, 54, 26
4, 288371, Control_c, 0, 64, 127
4, 288443, Note_on_c, 0, 64, 0
4, 288950, Note_on_c, 0, 66, 70
4, 288957, Note_on_c, 0, 61, 40
4, 288996, Control_c, 0, 64, 0
4, 289091, Control_c, 0, 64, 127
4, 289376, Note_on_c, 0, 66, 0
4, 289390, Note_on_c, 0, 54, 0
4, 289453, Note_on_c, 0, 68, 74
4, 289467, Note_on_c, 0, 80, 0
4, 289536, Note_on_c, 0, 69, 0
4, 289828, Note_on_c, 0, 61, 0
4, 289839, Note_on_c, 0, 68, 0
4, 289940, Note_on_c, 0, 69, 67
4, 290251, Note_on_c, 0, 69, 0
4, 290424, Control_c, 0, 64, 0
4, 290440, Note_on_c, 0, 68, 60
4, 290454, Note_on_c, 0, 56, 57
4, 290490, Note_on_c, 0, 71, 25
4, 290536, Note_on_c, 0, 71, 0
4, 290540, Control_c, 0, 64, 127
4, 290638, Note_on_c, 0, 68, 0
4, 290678, Note_on_c, 0, 56, 0
4, 290911, Control_c, 0, 64, 0
4, 290929, Note_on_c, 0, 73, 37
4, 290936, Note_on_c, 0, 57, 45
4, 290937, Note_on_c, 0, 45, 49
4, 290938, Note_on_c, 0, 68, 50
4, 291186, Control_c, 0, 64, 127
4, 291324, Note_on_c, 0, 57, 0
4, 291372, Note_on_c, 0, 45, 0
4, 291391, Note_on_c, 0, 52, 64
4, 291480, Note_on_c, 0, 52, 0
4, 291819, Note_on_c, 0, 59, 71
4, 292215, Note_on_c, 0, 68, 0
4, 292301, Note_on_c, 0, 61, 71
4, 292351, Control_c, 0, 64, 0
4, 292499, Control_c, 0, 64, 127
4, 292791, Note_on_c, 0, 64, 49
4, 292832, Note_on_c, 0, 61, 0
4, 292834, Note_on_c, 0, 59, 0
4, 293247, Note_on_c, 0, 64, 0
4, 293306, Note_on_c, 0, 68, 45
4, 293576, Note_on_c, 0, 73, 0
4, 293613, Note_on_c, 0, 68, 0
4, 293776, Note_on_c, 0, 41, 43
4, 293781, Control_c, 0, 64, 0
4, 293784, Note_on_c, 0, 64, 42
4, 293798, Note_on_c, 0, 72, 49
4, 293803, Note_on_c, 0, 69, 44
4, 293816, Note_on_c, 0, 57, 30
4, 293980, Control_c, 0, 64, 127
4, 294079, Note_on_c, 0, 64, 0
4, 294114, Note_on_c, 0, 72, 0
4, 294126, Note_on_c, 0, 69, 0
4, 294202, Note_on_c, 0, 57, 0
4, 294276, Note_on_c, 0, 48, 39
4, 294658, Note_on_c, 0, 60, 52
4, 294673, Note_on_c, 0, 57, 62
4, 294693, Note_on_c, 0, 60, 0
4, 294707, Note_on_c, 0, 62, 58
4, 294710, Note_on_c, 0, 57, 0
4, 294766, Note_on_c, 0, 59, 53
4, 294785, Control_c, 0, 64, 0
4, 294787, Note_on_c, 0, 62, 0
4, 294796, Note_on_c, 0, 64, 58
4, 294821, Note_on_c, 0, 59, 0
4, 294858, Note_on_c, 0, 60, 59
4, 294883, Note_on_c, 0, 65, 53
4, 294904, Note_on_c, 0, 60, 0
4, 294913, Note_on_c, 0, 64, 0
4, 294944, Note_on_c, 0, 62, 57
4, 294971, Note_on_c, 0, 67, 47
4, 294985, Note_on_c, 0, 62, 0
4, 295005, Note_on_c, 0, 65, 0
4, 295030, Note_on_c, 0, 64, 56
4, 295061, Note_on_c, 0, 69, 44
4, 295070, Note_on_c, 0, 64, 0
4, 295092, Note_on_c, 0, 67, 0
4, 295112, Note_on_c, 0, 65, 55
4, 295142, Note_on_c, 0, 71, 59
4, 295152, Note_on_c, 0, 65, 0
4, 295154, Note_on_c, 0, 69, 0
4, 295197, Note_on_c, 0, 67, 53
4, 295221, Note_on_c, 0, 71, 0
4, 295237, Note_on_c, 0, 67, 0
4, 295254, Note_on_c, 0, 72, 42
4, 295287, Note_on_c, 0, 69, 40
4, 295290, Note_on_c, 0, 72, 0
4, 295323, Note_on_c, 0, 74, 44
4, 295336, Note_on_c, 0, 69, 0
4, 295351, Note_on_c, 0, 71, 71
4, 295364, Note_on_c, 0, 74, 0
4, 295405, Note_on_c, 0, 71, 0
4, 295407, Note_on_c, 0, 76, 29
4, 295453, Note_on_c, 0, 72, 59
4, 295467, Note_on_c, 0, 76, 0
4, 295488, Note_on_c, 0, 72, 0
4, 295503, Note_on_c, 0, 77, 25
4, 295534, Note_on_c, 0, 74, 61
4, 295579, Note_on_c, 0, 74, 0
4, 295588, Note_on_c, 0, 79, 27
4, 295614, Note_on_c, 0, 76, 47
4, 295615, Note_on_c, 0, 77, 0
4, 295636, Note_on_c, 0, 79, 0
4, 295656, Note_on_c, 0, 76, 0
4, 295667, Note_on_c, 0, 81, 28
4, 295692, Note_on_c, 0, 77, 41
4, 295713, Note_on_c, 0, 81, 0
4, 295733, Note_on_c, 0, 83, 36
4, 295740, Note_on_c, 0, 77, 0
4, 295758, Note_on_c, 0, 79, 52
4, 295782, Note_on_c, 0, 83, 0
4, 295799, Note_on_c, 0, 79, 0
4, 295811, Note_on_c, 0, 84, 27
4, 295840, Note_on_c, 0, 41, 0
4, 295841, Note_on_c, 0, 81, 49
4, 295859, Note_on_c, 0, 84, 0
4, 295881, Note_on_c, 0, 81, 0
4, 295889, Note_on_c, 0, 86, 32
4, 295902, Note_on_c, 0, 48, 0
4, 295911, Note_on_c, 0, 83, 40
4, 295938, Note_on_c, 0, 86, 0
4, 295955, Note_on_c, 0, 83, 0
4, 295973, Note_on_c, 0, 88, 22
4, 295987, Note_on_c, 0, 84, 39
4, 296016, Note_on_c, 0, 88, 0
4, 296029, Note_on_c, 0, 84, 0
4, 296068, Note_on_c, 0, 86, 36
4, 296112, Note_on_c, 0, 86, 0
4, 296162, Note_on_c, 0, 88, 31
4, 296206, Note_on_c, 0, 88, 0
4, 296238, Note_on_c, 0, 89, 35
4, 296285, Note_on_c, 0, 89, 0
4, 296288, Control_c, 0, 64, 127
4, 296352, Note_on_c, 0, 91, 39
4, 296396, Note_on_c, 0, 91, 0
4, 296454, Note_on_c, 0, 93, 40
4, 296510, Note_on_c, 0, 93, 0
4, 296566, Note_on_c, 0, 95, 44
4, 296607, Note_on_c, 0, 95, 0
4, 296655, Note_on_c, 0, 96, 25
4, 296697, Note_on_c, 0, 96, 0
4, 296704, Note_on_c, 0, 98, 48
4, 296711, Control_c, 0, 64, 0
4, 296901, Note_on_c, 0, 48, 50
4, 296944, Control_c, 0, 64, 127
4, 297050, Note_on_c, 0, 48, 0
4, 297536, Note_on_c, 0, 67, 34
4, 297547, Note_on_c, 0, 63, 26
4, 297554, Note_on_c, 0, 58, 34
4, 297567, Note_on_c, 0, 62, 36
4, 297997, Note_on_c, 0, 62, 0
4, 298032, Note_on_c, 0, 67, 0
4, 298046, Note_on_c, 0, 63, 0
4, 298634, Note_on_c, 0, 63, 32
4, 298641, Note_on_c, 0, 67, 29
4, 298668, Note_on_c, 0, 62, 26
4, 299040, Note_on_c, 0, 62, 0
4, 299104, Note_on_c, 0, 67, 0
4, 299152, Note_on_c, 0, 63, 0
4, 299200, Note_on_c, 0, 58, 0
4, 299322, Note_on_c, 0, 98, 0
4, 299380, Note_on_c, 0, 96, 45
4, 299513, Note_on_c, 0, 94, 64
4, 299520, Note_on_c, 0, 96, 0
4, 299589, Control_c, 0, 64, 0
4, 299623, Note_on_c, 0, 65, 29
4, 299639, Note_on_c, 0, 60, 39
4, 299651, Note_on_c, 0, 62, 25
4, 299657, Note_on_c, 0, 94, 0
4, 299663, Note_on_c, 0, 93, 56
4, 299757, Note_on_c, 0, 93, 0
4, 299902, Note_on_c, 0, 96, 60
4, 299990, Note_on_c, 0, 65, 0
4, 299993, Note_on_c, 0, 96, 0
4, 300106, Note_on_c, 0, 93, 65
4, 300164, Note_on_c, 0, 93, 0
4, 300285, Note_on_c, 0, 89, 61
4, 300374, Note_on_c, 0, 89, 0
4, 300470, Note_on_c, 0, 84, 45
4, 300546, Note_on_c, 0, 84, 0
4, 300624, Note_on_c, 0, 82, 27
4, 300630, Note_on_c, 0, 53, 20
4, 300688, Note_on_c, 0, 82, 0
4, 300782, Note_on_c, 0, 81, 38
4, 300888, Note_on_c, 0, 81, 0
4, 300948, Note_on_c, 0, 84, 54
4, 301057, Note_on_c, 0, 84, 0
4, 301100, Note_on_c, 0, 81, 34
4, 301154, Note_on_c, 0, 81, 0
4, 301157, Note_on_c, 0, 60, 0
4, 301218, Note_on_c, 0, 62, 0
4, 301551, Note_on_c, 0, 65, 36
4, 301555, Note_on_c, 0, 62, 33
4, 301571, Note_on_c, 0, 60, 28
4, 301578, Note_on_c, 0, 74, 54
4, 301622, Note_on_c, 0, 74, 0
4, 301687, Note_on_c, 0, 65, 0
4, 301754, Note_on_c, 0, 62, 0
4, 301795, Note_on_c, 0, 74, 43
4, 301843, Note_on_c, 0, 74, 0
4, 301862, Note_on_c, 0, 60, 0
4, 301874, Note_on_c, 0, 53, 0
4, 302001, Note_on_c, 0, 74, 64
4, 302054, Note_on_c, 0, 74, 0
4, 302209, Note_on_c, 0, 74, 64
4, 302265, Note_on_c, 0, 74, 0
4, 302416, Note_on_c, 0, 67, 25
4, 302418, Note_on_c, 0, 58, 32
4, 302421, Note_on_c, 0, 63, 32
4, 302440, Note_on_c, 0, 74, 60
4, 302442, Note_on_c, 0, 62, 34
4, 302511, Note_on_c, 0, 74, 0
4, 302718, Note_on_c, 0, 74, 56
4, 302798, Note_on_c, 0, 74, 0
4, 302810, Note_on_c, 0, 75, 51
4, 302886, Note_on_c, 0, 74, 46
4, 302930, Note_on_c, 0, 75, 0
4, 302975, Note_on_c, 0, 74, 0
4, 303119, Note_on_c, 0, 74, 36
4, 303206, Note_on_c, 0, 67, 0
4, 303213, Note_on_c, 0, 74, 0
4, 303222, Note_on_c, 0, 75, 46
4, 303262, Note_on_c, 0, 63, 0
4, 303313, Note_on_c, 0, 74, 32
4, 303334, Note_on_c, 0, 75, 0
4, 303378, Note_on_c, 0, 74, 0
4, 303405, Note_on_c, 0, 72, 42
4, 303455, Note_on_c, 0, 72, 0
4, 303498, Note_on_c, 0, 63, 33
4, 303516, Note_on_c, 0, 74, 40
4, 303526, Note_on_c, 0, 67, 24
4, 303624, Note_on_c, 0, 74, 0
4, 303627, Note_on_c, 0, 75, 48
4, 303722, Note_on_c, 0, 75, 0
4, 303771, Note_on_c, 0, 72, 36
4, 303827, Note_on_c, 0, 72, 0
4, 303880, Note_on_c, 0, 74, 57
4, 303997, Note_on_c, 0, 75, 53
4, 304003, Note_on_c, 0, 74, 0
4, 304019, Note_on_c, 0, 67, 0
4, 304075, Note_on_c, 0, 63, 0
4, 304097, Note_on_c, 0, 75, 0
4, 304175, Note_on_c, 0, 72, 39
4, 304235, Note_on_c, 0, 72, 0
4, 304274, Note_on_c, 0, 74, 56
4, 304358, Note_on_c, 0, 74, 0
4, 304377, Note_on_c, 0, 62, 0
4, 304381, Note_on_c, 0, 75, 60
4, 304474, Note_on_c, 0, 63, 34
4, 304502, Note_on_c, 0, 75, 0
4, 304566, Note_on_c, 0, 72, 39
4, 304615, Note_on_c, 0, 72, 0
4, 304679, Note_on_c, 0, 74, 50
4, 304756, Note_on_c, 0, 58, 0
4, 304764, Note_on_c, 0, 74, 0
4, 304769, Note_on_c, 0, 75, 63
4, 304771, Note_on_c, 0, 63, 0
4, 304887, Note_on_c, 0, 74, 36
4, 304918, Note_on_c, 0, 75, 0
4, 304944, Note_on_c, 0, 74, 0
4, 304990, Note_on_c, 0, 72, 32
4, 305041, Note_on_c, 0, 72, 0
4, 305082, Note_on_c, 0, 74, 44
4, 305164, Note_on_c, 0, 75, 60
4, 305197, Note_on_c, 0, 74, 0
4, 305280, Note_on_c, 0, 65, 24
4, 305290, Note_on_c, 0, 75, 0
4, 305330, Note_on_c, 0, 60, 31
4, 305352, Note_on_c, 0, 62, 16
4, 305367, Note_on_c, 0, 72, 35
4, 305435, Note_on_c, 0, 72, 0
4, 305488, Note_on_c, 0, 74, 47
4, 305538, Note_on_c, 0, 65, 0
4, 305629, Note_on_c, 0, 74, 0
4, 305687, Note_on_c, 0, 69, 50
4, 305740, Note_on_c, 0, 69, 0
4, 305919, Note_on_c, 0, 69, 55
4, 306026, Note_on_c, 0, 69, 0
4, 306166, Note_on_c, 0, 53, 33
4, 306173, Note_on_c, 0, 69, 57
4, 306239, Control_c, 0, 64, 127
4, 306248, Note_on_c, 0, 53, 0
4, 306272, Note_on_c, 0, 60, 0
4, 306280, Note_on_c, 0, 69, 0
4, 306304, Note_on_c, 0, 62, 0
4, 306492, Note_on_c, 0, 56, 67
4, 306495, Note_on_c, 0, 67, 68
4, 306499, Note_on_c, 0, 62, 56
4, 306523, Control_c, 0, 64, 0
4, 306863, Control_c, 0, 64, 127
4, 307188, Note_on_c, 0, 67, 0
4, 307359, Note_on_c, 0, 65, 46
4, 307730, Note_on_c, 0, 62, 0
4, 307767, Note_on_c, 0, 79, 64
4, 307768, Note_on_c, 0, 65, 0
4, 307875, Note_on_c, 0, 56, 0
4, 307976, Note_on_c, 0, 79, 0
4, 307988, Note_on_c, 0, 76, 51
4, 308171, Note_on_c, 0, 76, 0
4, 308195, Control_c, 0, 64, 0
4, 308229, Note_on_c, 0, 45, 49
4, 308248, Note_on_c, 0, 80, 62
4, 308277, Note_on_c, 0, 52, 32
4, 308338, Note_on_c, 0, 45, 0
4, 308365, Control_c, 0, 64, 127
4, 308388, Note_on_c, 0, 52, 0
4, 308728, Note_on_c, 0, 80, 0
4, 308735, Note_on_c, 0, 76, 51
4, 308744, Note_on_c, 0, 72, 42
4, 308851, Note_on_c, 0, 72, 0
4, 308881, Note_on_c, 0, 76, 0
4, 309246, Note_on_c, 0, 76, 83
4, 309253, Note_on_c, 0, 83, 80
4, 309592, Note_on_c, 0, 76, 0
4, 309626, Note_on_c, 0, 83, 0
4, 309650, Note_on_c, 0, 80, 42
4, 309651, Note_on_c, 0, 72, 62
4, 309674, Note_on_c, 0, 76, 49
4, 309810, Note_on_c, 0, 76, 0
4, 309864, Note_on_c, 0, 72, 0
4, 309987, Note_on_c, 0, 80, 0
4, 310128, Note_on_c, 0, 76, 58
4, 310146, Note_on_c, 0, 83, 59
4, 310157, Note_on_c, 0, 72, 56
4, 310192, Note_on_c, 0, 64, 22
4, 310323, Note_on_c, 0, 64, 0
4, 310423, Note_on_c, 0, 76, 0
4, 310473, Note_on_c, 0, 72, 0
4, 310537, Note_on_c, 0, 83, 0
4, 310604, Note_on_c, 0, 80, 44
4, 310615, Note_on_c, 0, 72, 24
4, 310683, Note_on_c, 0, 72, 0
4, 310801, Note_on_c, 0, 80, 0
4, 311076, Note_on_c, 0, 76, 42
4, 311089, Note_on_c, 0, 71, 42
4, 311093, Note_on_c, 0, 83, 40
4, 311099, Note_on_c, 0, 54, 33
4, 311106, Control_c, 0, 64, 0
4, 311112, Note_on_c, 0, 80, 38
4, 311113, Note_on_c, 0, 64, 24
4, 311120, Note_on_c, 0, 60, 33
4, 311388, Note_on_c, 0, 80, 0
4, 311402, Control_c, 0, 64, 127
4, 311476, Note_on_c, 0, 76, 0
4, 311478, Note_on_c, 0, 71, 0
4, 311556, Note_on_c, 0, 83, 0
4, 311585, Note_on_c, 0, 80, 44
4, 311590, Note_on_c, 0, 71, 46
4, 311698, Note_on_c, 0, 64, 0
4, 311730, Note_on_c, 0, 54, 0
4, 311740, Note_on_c, 0, 71, 0
4, 311810, Note_on_c, 0, 60, 0
4, 311816, Note_on_c, 0, 80, 0
4, 311974, Control_c, 0, 64, 0
4, 312019, Note_on_c, 0, 76, 44
4, 312020, Note_on_c, 0, 83, 53
4, 312025, Note_on_c, 0, 54, 43
4, 312027, Note_on_c, 0, 71, 47
4, 312035, Note_on_c, 0, 64, 38
4, 312041, Note_on_c, 0, 60, 40
4, 312046, Note_on_c, 0, 80, 38
4, 312217, Control_c, 0, 64, 127
4, 312252, Note_on_c, 0, 80, 0
4, 312322, Note_on_c, 0, 71, 0
4, 312331, Note_on_c, 0, 76, 0
4, 312359, Note_on_c, 0, 83, 0
4, 312361, Note_on_c, 0, 54, 0
4, 312365, Note_on_c, 0, 64, 0
4, 312396, Note_on_c, 0, 60, 0
4, 312484, Note_on_c, 0, 80, 69
4, 312496, Note_on_c, 0, 71, 66
4, 312504, Note_on_c, 0, 76, 59
4, 312513, Note_on_c, 0, 64, 66
4, 312520, Note_on_c, 0, 54, 64
4, 312526, Note_on_c, 0, 60, 58
4, 312740, Note_on_c, 0, 71, 0
4, 312750, Note_on_c, 0, 76, 0
4, 312774, Note_on_c, 0, 64, 0
4, 312786, Note_on_c, 0, 54, 0
4, 312791, Note_on_c, 0, 60, 0
4, 312808, Note_on_c, 0, 80, 0
4, 312959, Control_c, 0, 64, 0
4, 312960, Note_on_c, 0, 76, 76
4, 312961, Note_on_c, 0, 83, 73
4, 312962, Note_on_c, 0, 80, 53
4, 312964, Note_on_c, 0, 71, 78
4, 312974, Note_on_c, 0, 64, 76
4, 312976, Note_on_c, 0, 54, 77
4, 312980, Note_on_c, 0, 60, 69
4, 313053, Control_c, 0, 64, 127
4, 313194, Note_on_c, 0, 80, 0
4, 313203, Note_on_c, 0, 71, 0
4, 313219, Note_on_c, 0, 76, 0
4, 313220, Note_on_c, 0, 64, 0
4, 313232, Note_on_c, 0, 54, 0
4, 313252, Note_on_c, 0, 60, 0
4, 313276, Note_on_c, 0, 83, 0
4, 313414, Note_on_c, 0, 80, 65
4, 313415, Note_on_c, 0, 54, 68
4, 313423, Note_on_c, 0, 71, 67
4, 313428, Note_on_c, 0, 64, 64
4, 313431, Note_on_c, 0, 76, 58
4, 313438, Note_on_c, 0, 60, 54
4, 313603, Note_on_c, 0, 71, 0
4, 313623, Note_on_c, 0, 64, 0
4, 313627, Note_on_c, 0, 54, 0
4, 313645, Note_on_c, 0, 60, 0
4, 313648, Note_on_c, 0, 76, 0
4, 313711, Note_on_c, 0, 80, 0
4, 313869, Control_c, 0, 64, 0
4, 313880, Note_on_c, 0, 76, 87
4, 313882, Note_on_c, 0, 56, 77
4, 313883, Note_on_c, 0, 83, 89
4, 313884, Note_on_c, 0, 60, 73
4, 313885, Note_on_c, 0, 64, 80
4, 313886, Note_on_c, 0, 72, 87
4, 314189, Control_c, 0, 64, 127
4, 314232, Note_on_c, 0, 72, 0
4, 314272, Note_on_c, 0, 64, 0
4, 314282, Note_on_c, 0, 76, 0
4, 314292, Note_on_c, 0, 56, 0
4, 314302, Note_on_c, 0, 60, 0
4, 314320, Note_on_c, 0, 83, 0
4, 314378, Note_on_c, 0, 80, 52
4, 314386, Note_on_c, 0, 72, 50
4, 314388, Note_on_c, 0, 76, 40
4, 314401, Note_on_c, 0, 56, 62
4, 314404, Note_on_c, 0, 64, 62
4, 314417, Note_on_c, 0, 60, 41
4, 314615, Note_on_c, 0, 76, 0
4, 314620, Note_on_c, 0, 72, 0
4, 314675, Note_on_c, 0, 64, 0
4, 314690, Note_on_c, 0, 56, 0
4, 314725, Note_on_c, 0, 60, 0
4, 314769, Note_on_c, 0, 80, 0
4, 314854, Note_on_c, 0, 76, 51
4, 314858, Control_c, 0, 64, 0
4, 314860, Note_on_c, 0, 83, 56
4, 314861, Note_on_c, 0, 57, 57
4, 314862, Note_on_c, 0, 72, 45
4, 314871, Note_on_c, 0, 64, 51
4, 314882, Note_on_c, 0, 60, 45
4, 315163, Control_c, 0, 64, 127
4, 315198, Note_on_c, 0, 60, 0
4, 315202, Note_on_c, 0, 72, 0
4, 315212, Note_on_c, 0, 76, 0
4, 315223, Note_on_c, 0, 64, 0
4, 315280, Note_on_c, 0, 83, 0
4, 315317, Note_on_c, 0, 72, 44
4, 315318, Note_on_c, 0, 80, 45
4, 315335, Note_on_c, 0, 76, 36
4, 315336, Note_on_c, 0, 64, 38
4, 315357, Note_on_c, 0, 60, 43
4, 315513, Note_on_c, 0, 76, 0
4, 315567, Note_on_c, 0, 72, 0
4, 315588, Note_on_c, 0, 60, 0
4, 315612, Note_on_c, 0, 64, 0
4, 315673, Note_on_c, 0, 57, 0
4, 315676, Note_on_c, 0, 80, 0
4, 315818, Note_on_c, 0, 72, 34
4, 315821, Note_on_c, 0, 64, 45
4, 315822, Note_on_c, 0, 76, 46
4, 315828, Note_on_c, 0, 83, 40
4, 315832, Note_on_c, 0, 57, 36
4, 315841, Note_on_c, 0, 60, 41
4, 316034, Note_on_c, 0, 64, 0
4, 316039, Note_on_c, 0, 72, 0
4, 316076, Note_on_c, 0, 60, 0
4, 316136, Note_on_c, 0, 57, 0
4, 316144, Note_on_c, 0, 76, 0
4, 316185, Note_on_c, 0, 83, 0
4, 316297, Note_on_c, 0, 80, 49
4, 316300, Note_on_c, 0, 72, 39
4, 316308, Note_on_c, 0, 64, 41
4, 316313, Note_on_c, 0, 57, 30
4, 316320, Note_on_c, 0, 60, 50
4, 316347, Note_on_c, 0, 76, 28
4, 316393, Note_on_c, 0, 72, 0
4, 316414, Note_on_c, 0, 76, 0
4, 316482, Note_on_c, 0, 64, 0
4, 316493, Note_on_c, 0, 60, 0
4, 316495, Note_on_c, 0, 80, 0
4, 316544, Note_on_c, 0, 57, 0
4, 316718, Control_c, 0, 64, 0
4, 316765, Note_on_c, 0, 76, 63
4, 316766, Note_on_c, 0, 57, 58
4, 316768, Note_on_c, 0, 65, 54
4, 316769, Note_on_c, 0, 83, 58
4, 316772, Note_on_c, 0, 72, 53
4, 316778, Note_on_c, 0, 60, 54
4, 316952, Control_c, 0, 64, 127
4, 316994, Note_on_c, 0, 72, 0
4, 317034, Note_on_c, 0, 76, 0
4, 317075, Note_on_c, 0, 83, 0
4, 317094, Note_on_c, 0, 57, 0
4, 317125, Note_on_c, 0, 65, 0
4, 317169, Note_on_c, 0, 60, 0
4, 317290, Note_on_c, 0, 58, 79
4, 317291, Note_on_c, 0, 82, 91
4, 317294, Note_on_c, 0, 86, 89
4, 317295, Note_on_c, 0, 77, 92
4, 317296, Note_on_c, 0, 65, 84
4, 317298, Note_on_c, 0, 60, 73
4, 317299, Note_on_c, 0, 54, 80
4, 317302, Control_c, 0, 64, 0
4, 317311, Note_on_c, 0, 85, 60
4, 317345, Note_on_c, 0, 85, 0
4, 317533, Control_c, 0, 64, 127
4, 317674, Note_on_c, 0, 86, 0
4, 317676, Note_on_c, 0, 77, 0
4, 317690, Note_on_c, 0, 54, 0
4, 317696, Note_on_c, 0, 65, 0
4, 317716, Note_on_c, 0, 82, 0
4, 317719, Note_on_c, 0, 60, 0
4, 317724, Note_on_c, 0, 58, 0
4, 317734, Control_c, 0, 64, 0
4, 317774, Note_on_c, 0, 86, 75
4, 317777, Note_on_c, 0, 82, 79
4, 317779, Note_on_c, 0, 65, 71
4, 317781, Note_on_c, 0, 54, 67
4, 317783, Note_on_c, 0, 77, 73
4, 317794, Note_on_c, 0, 58, 74
4, 317803, Note_on_c, 0, 60, 75
4, 317937, Control_c, 0, 64, 127
4, 317989, Note_on_c, 0, 86, 0
4, 318026, Note_on_c, 0, 77, 0
4, 318042, Note_on_c, 0, 82, 0
4, 318142, Note_on_c, 0, 54, 0
4, 318144, Note_on_c, 0, 60, 0
4, 318145, Note_on_c, 0, 65, 0
4, 318154, Note_on_c, 0, 58, 0
4, 318253, Control_c, 0, 64, 0
4, 318281, Note_on_c, 0, 84, 70
4, 318287, Note_on_c, 0, 80, 62
4, 318292, Note_on_c, 0, 54, 61
4, 318293, Note_on_c, 0, 65, 66
4, 318294, Note_on_c, 0, 75, 64
4, 318298, Note_on_c, 0, 58, 57
4, 318304, Note_on_c, 0, 60, 60
4, 318422, Control_c, 0, 64, 127
4, 318456, Note_on_c, 0, 84, 0
4, 318513, Note_on_c, 0, 75, 0
4, 318523, Note_on_c, 0, 80, 0
4, 318622, Note_on_c, 0, 58, 0
4, 318626, Note_on_c, 0, 60, 0
4, 318631, Note_on_c, 0, 65, 0
4, 318690, Note_on_c, 0, 54, 0
4, 318752, Control_c, 0, 64, 0
4, 318769, Note_on_c, 0, 80, 53
4, 318772, Note_on_c, 0, 65, 55
4, 318774, Note_on_c, 0, 75, 55
4, 318775, Note_on_c, 0, 72, 55
4, 318779, Note_on_c, 0, 54, 50
4, 318788, Note_on_c, 0, 58, 49
4, 318799, Note_on_c, 0, 60, 45
4, 318889, Control_c, 0, 64, 127
4, 319024, Note_on_c, 0, 72, 0
4, 319038, Note_on_c, 0, 58, 0
4, 319039, Note_on_c, 0, 60, 0
4, 319050, Note_on_c, 0, 65, 0
4, 319078, Note_on_c, 0, 54, 0
4, 319117, Note_on_c, 0, 75, 0
4, 319150, Note_on_c, 0, 80, 0
4, 319256, Note_on_c, 0, 65, 42
4, 319269, Note_on_c, 0, 54, 38
4, 319277, Note_on_c, 0, 58, 36
4, 319292, Note_on_c, 0, 60, 33
4, 319303, Note_on_c, 0, 65, 0
4, 319343, Note_on_c, 0, 60, 0
4, 319389, Note_on_c, 0, 58, 0
4, 319423, Note_on_c, 0, 54, 0
4, 319714, Control_c, 0, 64, 0
4, 319730, Note_on_c, 0, 80, 46
4, 319738, Note_on_c, 0, 71, 45
4, 319739, Note_on_c, 0, 49, 51
4, 319742, Note_on_c, 0, 76, 46
4, 319762, Note_on_c, 0, 59, 36
4, 319947, Control_c, 0, 64, 127
4, 320104, Note_on_c, 0, 59, 0
4, 320192, Note_on_c, 0, 80, 0
4, 320206, Note_on_c, 0, 76, 0
4, 320237, Note_on_c, 0, 56, 39
4, 320266, Note_on_c, 0, 71, 0
4, 320687, Note_on_c, 0, 56, 0
4, 320689, Note_on_c, 0, 58, 47
4, 321168, Note_on_c, 0, 61, 61
4, 321647, Note_on_c, 0, 63, 70
4, 321730, Note_on_c, 0, 61, 0
4, 321982, Note_on_c, 0, 63, 0
4, 321987, Note_on_c, 0, 64, 64
4, 322231, Note_on_c, 0, 58, 0
4, 322250, Note_on_c, 0, 64, 0
4, 322263, Note_on_c, 0, 49, 0
4, 322299, Note_on_c, 0, 66, 59
4, 322558, Note_on_c, 0, 66, 0
4, 322637, Note_on_c, 0, 69, 43
4, 322642, Note_on_c, 0, 42, 32
4, 322646, Control_c, 0, 64, 0
4, 322651, Note_on_c, 0, 52, 27
4, 322653, Note_on_c, 0, 66, 45
4, 322900, Control_c, 0, 64, 127
4, 322933, Note_on_c, 0, 69, 0
4, 322968, Note_on_c, 0, 42, 0
4, 322994, Note_on_c, 0, 66, 0
4, 323006, Note_on_c, 0, 52, 0
4, 323144, Note_on_c, 0, 75, 67
4, 323340, Note_on_c, 0, 75, 0
4, 323485, Note_on_c, 0, 76, 50
4, 323486, Note_on_c, 0, 77, 47
4, 323500, Note_on_c, 0, 61, 46
4, 323503, Note_on_c, 0, 54, 38
4, 323520, Note_on_c, 0, 64, 44
4, 323531, Note_on_c, 0, 57, 50
4, 323590, Note_on_c, 0, 76, 0
4, 323600, Note_on_c, 0, 77, 0
4, 323941, Note_on_c, 0, 78, 44
4, 323954, Note_on_c, 0, 79, 67
4, 324088, Note_on_c, 0, 79, 0
4, 324099, Note_on_c, 0, 78, 0
4, 324657, Note_on_c, 0, 73, 69
4, 324862, Note_on_c, 0, 73, 0
4, 324894, Note_on_c, 0, 71, 72
4, 325093, Note_on_c, 0, 71, 0
4, 325132, Note_on_c, 0, 64, 0
4, 325140, Note_on_c, 0, 69, 55
4, 325166, Note_on_c, 0, 57, 0
4, 325214, Note_on_c, 0, 61, 0
4, 325278, Note_on_c, 0, 54, 0
4, 325285, Note_on_c, 0, 69, 0
4, 325503, Note_on_c, 0, 68, 64
4, 325557, Control_c, 0, 64, 0
4, 325801, Note_on_c, 0, 45, 37
4, 326067, Note_on_c, 0, 52, 33
4, 326149, Control_c, 0, 64, 127
4, 326292, Note_on_c, 0, 56, 42
4, 326476, Note_on_c, 0, 56, 0
4, 326566, Note_on_c, 0, 57, 51
4, 326572, Control_c, 0, 64, 0
4, 326865, Note_on_c, 0, 59, 51
4, 327115, Note_on_c, 0, 61, 56
4, 327285, Note_on_c, 0, 59, 0
4, 327440, Control_c, 0, 64, 127
4, 327443, Note_on_c, 0, 68, 0
4, 327508, Note_on_c, 0, 64, 47
4, 327731, Note_on_c, 0, 52, 0
4, 327797, Note_on_c, 0, 57, 0
4, 327810, Note_on_c, 0, 45, 0
4, 327846, Note_on_c, 0, 64, 0
4, 327886, Note_on_c, 0, 61, 0
4, 327975, Note_on_c, 0, 68, 39
4, 328087, Note_on_c, 0, 68, 0
4, 328318, Note_on_c, 0, 41, 32
4, 328373, Control_c, 0, 64, 0
4, 328392, Note_on_c, 0, 62, 50
4, 328410, Note_on_c, 0, 67, 47
4, 328416, Note_on_c, 0, 72, 45
4, 328605, Control_c, 0, 64, 127
4, 328741, Note_on_c, 0, 62, 0
4, 328787, Note_on_c, 0, 72, 0
4, 328828, Note_on_c, 0, 67, 0
4, 328884, Note_on_c, 0, 48, 34
4, 329335, Control_c, 0, 64, 0
4, 329339, Note_on_c, 0, 64, 32
4, 329447, Note_on_c, 0, 65, 30
4, 329466, Note_on_c, 0, 64, 0
4, 329559, Note_on_c, 0, 67, 28
4, 329574, Note_on_c, 0, 65, 0
4, 329665, Note_on_c, 0, 67, 0
4, 329670, Note_on_c, 0, 69, 29
4, 329727, Control_c, 0, 64, 127
4, 329755, Note_on_c, 0, 71, 29
4, 329772, Note_on_c, 0, 69, 0
4, 329845, Note_on_c, 0, 71, 0
4, 329889, Note_on_c, 0, 72, 42
4, 329979, Note_on_c, 0, 74, 30
4, 329991, Note_on_c, 0, 72, 0
4, 330067, Note_on_c, 0, 74, 0
4, 330085, Note_on_c, 0, 76, 31
4, 330169, Note_on_c, 0, 76, 0
4, 330183, Note_on_c, 0, 77, 38
4, 330254, Note_on_c, 0, 77, 0
4, 330282, Note_on_c, 0, 79, 44
4, 330344, Note_on_c, 0, 79, 0
4, 330382, Note_on_c, 0, 81, 41
4, 330452, Note_on_c, 0, 81, 0
4, 330480, Note_on_c, 0, 83, 37
4, 330547, Note_on_c, 0, 83, 0
4, 330572, Note_on_c, 0, 84, 48
4, 330606, Control_c, 0, 64, 0
4, 330625, Note_on_c, 0, 84, 0
4, 330659, Note_on_c, 0, 86, 44
4, 330722, Note_on_c, 0, 86, 0
4, 330751, Note_on_c, 0, 88, 33
4, 330831, Note_on_c, 0, 88, 0
4, 330849, Note_on_c, 0, 89, 40
4, 330932, Note_on_c, 0, 89, 0
4, 330951, Note_on_c, 0, 91, 39
4, 331032, Note_on_c, 0, 91, 0
4, 331047, Note_on_c, 0, 93, 41
4, 331119, Note_on_c, 0, 93, 0
4, 331152, Note_on_c, 0, 95, 37
4, 331250, Note_on_c, 0, 95, 0
4, 331253, Note_on_c, 0, 96, 32
4, 331366, Note_on_c, 0, 98, 31
4, 331377, Note_on_c, 0, 96, 0
4, 331480, Note_on_c, 0, 100, 27
4, 331481, Note_on_c, 0, 98, 0
4, 331579, Note_on_c, 0, 100, 0
4, 331596, Note_on_c, 0, 101, 36
4, 331675, Note_on_c, 0, 101, 0
4, 331689, Note_on_c, 0, 103, 36
4, 331737, Note_on_c, 0, 103, 0
4, 331754, Note_on_c, 0, 105, 44
4, 331924, Note_on_c, 0, 105, 0
4, 332098, Note_on_c, 0, 41, 0
4, 332132, Note_on_c, 0, 48, 0
4, 332132, End_track
5, 0, Start_track
5, 0, Title_t, "Brushes"
5, 158400, Note_on_c, 9, 40, 17
5, 159353, Note_on_c, 9, 40, 0
5, 159360, Note_on_c, 9, 40, 13
5, 160305, Note_on_c, 9, 40, 0
5, 160320, Note_on_c, 9, 40, 12
5, 161042, Note_on_c, 9, 40, 0
5, 161280, Note_on_c, 9, 40, 20
5, 162210, Note_on_c, 9, 40, 0
5, 162240, Note_on_c, 9, 40, 15
5, 163132, Note_on_c, 9, 40, 0
5, 163200, Note_on_c, 9, 40, 19
5, 164019, Note_on_c, 9, 40, 0
5, 164160, Note_on_c, 9, 40, 17
5, 165025, Note_on_c, 9, 40, 0
5, 165120, Note_on_c, 9, 40, 17
5, 165937, Note_on_c, 9, 40, 0
5, 166080, Note_on_c, 9, 40, 16
5, 166753, Note_on_c, 9, 40, 0
5, 167040, Note_on_c, 9, 40, 12
5, 168000, Note_on_c, 9, 40, 19
5, 168005, Note_on_c, 9, 40, 0
5, 168928, Note_on_c, 9, 40, 0
5, 168960, Note_on_c, 9, 40, 15
5, 169740, Note_on_c, 9, 40, 0
5, 169920, Note_on_c, 9, 40, 13
5, 170762, Note_on_c, 9, 40, 0
5, 170880, Note_on_c, 9, 40, 12
5, 171767, Note_on_c, 9, 40, 0
5, 171840, Note_on_c, 9, 40, 10
5, 172670, Note_on_c, 9, 40, 0
5, 172800, Note_on_c, 9, 40, 15
5, 173709, Note_on_c, 9, 40, 0
5, 173760, Note_on_c, 9, 40, 15
5, 174582, Note_on_c, 9, 40, 0
5, 174720, Note_on_c, 9, 40, 13
5, 175459, Note_on_c, 9, 40, 0
5, 175680, Note_on_c, 9, 40, 15
5, 176526, Note_on_c, 9, 40, 0
5, 176640, Note_on_c, 9, 40, 16
5, 177532, Note_on_c, 9, 40, 0
5, 177600, Note_on_c, 9, 40, 13
5, 178428, Note_on_c, 9, 40, 0
5, 178560, Note_on_c, 9, 40, 13
5, 179397, Note_on_c, 9, 40, 0
5, 179520, Note_on_c, 9, 40, 17
5, 180344, Note_on_c, 9, 40, 0
5, 180480, Note_on_c, 9, 40, 17
5, 181306, Note_on_c, 9, 40, 0
5, 181440, Note_on_c, 9, 40, 17
5, 182393, Note_on_c, 9, 40, 0
5, 182400, Note_on_c, 9, 40, 13
5, 183345, Note_on_c, 9, 40, 0
5, 183360, Note_on_c, 9, 40, 12
5, 184082, Note_on_c, 9, 40, 0
5, 184320, Note_on_c, 9, 40, 20
5, 185250, Note_on_c, 9, 40, 0
5, 185280, Note_on_c, 9, 40, 15
5, 186172, Note_on_c, 9, 40, 0
5, 186240, Note_on_c, 9, 40, 19
5, 187059, Note_on_c, 9, 40, 0
5, 187200, Note_on_c, 9, 40, 17
5, 188065, Note_on_c, 9, 40, 0
5, 188160, Note_on_c, 9, 40, 17
5, 188977, Note_on_c, 9, 40, 0
5, 189120, Note_on_c, 9, 40, 16
5, 189793, Note_on_c, 9, 40, 0
5, 190080, Note_on_c, 9, 40, 12
5, 191040, Note_on_c, 9, 40, 19
5, 191045, Note_on_c, 9, 40, 0
5, 191968, Note_on_c, 9, 40, 0
5, 192000, Note_on_c, 9, 40, 15
5, 192780, Note_on_c, 9, 40, 0
5, 192960, Note_on_c, 9, 40, 13
5, 193802, Note_on_c, 9, 40, 0
5, 193920, Note_on_c, 9, 40, 12
5, 194807, Note_on_c, 9, 40, 0
5, 194880, Note_on_c, 9, 40, 10
5, 195710, Note_on_c, 9, 40, 0
5, 195840, Note_on_c, 9, 40, 15
5, 196749, Note_on_c, 9, 40, 0
5, 196800, Note_on_c, 9, 40, 15
5, 197622, Note_on_c, 9, 40, 0
5, 197760, Note_on_c, 9, 40, 13
5, 198499, Note_on_c, 9, 40, 0
5, 198720, Note_on_c, 9, 40, 15
5, 199566, Note_on_c, 9, 40, 0
5, 199680, Note_on_c, 9, 40, 16
5, 200572, Note_on_c, 9, 40, 0
5, 200640, Note_on_c, 9, 40, 13
5, 201468, Note_on_c, 9, 40, 0
5, 201600, Note_on_c, 9, 40, 13
5, 202437, Note_on_c, 9, 40, 0
5, 202560, Note_on_c, 9, 40, 17
5, 203384, Note_on_c, 9, 40, 0
5, 203520, Note_on_c, 9, 40, 17
5, 204346, Note_on_c, 9, 40, 0
5, 204480, Note_on_c, 9, 40, 17
5, 205433, Note_on_c, 9, 40, 0
5, 205440, Note_on_c, 9, 40, 13
5, 206385, Note_on_c, 9, 40, 0
5, 206400, Note_on_c, 9, 40, 12
5, 207122, Note_on_c, 9, 40, 0
5, 207360, Note_on_c, 9, 40, 20
5, 208290, Note_on_c, 9, 40, 0
5, 208320, Note_on_c, 9, 40, 15
5, 209212, Note_on_c, 9, 40, 0
5, 209280, Note_on_c, 9, 40, 19
5, 210099, Note_on_c, 9, 40, 0
5, 210240, Note_on_c, 9, 40, 17
5, 211105, Note_on_c, 9, 40, 0
5, 211200, Note_on_c, 9, 40, 17
5, 212017, Note_on_c, 9, 40, 0
5, 212160, Note_on_c, 9, 40, 16
5, 212833, Note_on_c, 9, 40, 0
5, 213120, Note_on_c, 9, 40, 12
5, 214080, Note_on_c, 9, 40, 19
5, 214085, Note_on_c, 9, 40, 0
5, 215008, Note_on_c, 9, 40, 0
5, 215040, Note_on_c, 9, 40, 15
5, 215820, Note_on_c, 9, 40, 0
5, 216000, Note_on_c, 9, 40, 13
5, 216842, Note_on_c, 9, 40, 0
5, 216960, Note_on_c, 9, 40, 12
5, 217847, Note_on_c, 9, 40, 0
5, 217920, Note_on_c, 9, 40, 10
5, 218750, Note_on_c, 9, 40, 0
5, 218880, Note_on_c, 9, 40, 15
5, 219789, Note_on_c, 9, 40, 0
5, 219840, Note_on_c, 9, 40, 15
5, 220662, Note_on_c, 9, 40, 0
5, 220800, Note_on_c, 9, 40, 13
5, 221539, Note_on_c, 9, 40, 0
5, 221760, Note_on_c, 9, 40, 15
5, 222606, Note_on_c, 9, 40, 0
5, 222720, Note_on_c, 9, 40, 16
5, 223612, Note_on_c, 9, 40, 0
5, 223680, Note_on_c, 9, 40, 13
5, 224508, Note_on_c, 9, 40, 0
5, 224640, Note_on_c, 9, 40, 13
5, 225477, Note_on_c, 9, 40, 0
5, 225600, Note_on_c, 9, 40, 17
5, 226424, Note_on_c, 9, 40, 0
5, 226560, Note_on_c, 9, 40, 17
5, 227386, Note_on_c, 9, 40, 0
5, 227520, Note_on_c, 9, 40, 17
5, 228473, Note_on_c, 9, 40, 0
5, 228480, Note_on_c, 9, 40, 13
5, 229425, Note_on_c, 9, 40, 0
5, 229440, Note_on_c, 9, 40, 12
5, 230162, Note_on_c, 9, 40, 0
5, 230400, Note_on_c, 9, 40, 20
5, 231330, Note_on_c, 9, 40, 0
5, 231360, Note_on_c, 9, 40, 15
5, 232252, Note_on_c, 9, 40, 0
5, 232320, Note_on_c, 9, 40, 19
5, 233139, Note_on_c, 9, 40, 0
5, 233280, Note_on_c, 9, 40, 17
5, 234145, Note_on_c, 9, 40, 0
5, 234240, Note_on_c, 9, 40, 17
5, 235057, Note_on_c, 9, 40, 0
5, 235200, Note_on_c, 9, 40, 16
5, 235873, Note_on_c, 9, 40, 0
5, 236160, Note_on_c, 9, 40, 12
5, 237120, Note_on_c, 9, 40, 19
5, 237125, Note_on_c, 9, 40, 0
5, 238048, Note_on_c, 9, 40, 0
5, 238080, Note_on_c, 9, 40, 15
5, 238860, Note_on_c, 9, 40, 0
5, 239040, Note_on_c, 9, 40, 13
5, 239882, Note_on_c, 9, 40, 0
5, 240000, Note_on_c, 9, 40, 12
5, 240887, Note_on_c, 9, 40, 0
5, 240960, Note_on_c, 9, 40, 10
5, 241790, Note_on_c, 9, 40, 0
5, 241920, Note_on_c, 9, 40, 15
5, 242829, Note_on_c, 9, 40, 0
5, 242880, Note_on_c, 9, 40, 15
5, 243702, Note_on_c, 9, 40, 0
5, 243840, Note_on_c, 9, 40, 13
5, 244579, Note_on_c, 9, 40, 0
5, 244800, Note_on_c, 9, 40, 15
5, 245646, Note_on_c, 9, 40, 0
5, 245760, Note_on_c, 9, 40, 16
5, 246652, Note_on_c, 9, 40, 0
5, 246720, Note_on_c, 9, 40, 13
5, 247548, Note_on_c, 9, 40, 0
5, 247680, Note_on_c, 9, 40, 13
5, 248517, Note_on_c, 9, 40, 0
5, 248640, Note_on_c, 9, 40, 17
5, 249464, Note_on_c, 9, 40, 0
5, 249600, Note_on_c, 9, 40, 17
5, 250426, Note_on_c, 9, 40, 0
5, 250560, Note_on_c, 9, 40, 17
5, 251513, Note_on_c, 9, 40, 0
5, 251520, Note_on_c, 9, 40, 13
5, 252465, Note_on_c, 9, 40, 0
5, 252480, Note_on_c, 9, 40, 12
5, 253202, Note_on_c, 9, 40, 0
5, 253440, Note_on_c, 9, 40, 20
5, 254370, Note_on_c, 9, 40, 0
5, 254400, Note_on_c, 9, 40, 15
5, 255292, Note_on_c, 9, 40, 0
5, 255360, Note_on_c, 9, 40, 19
5, 256179, Note_on_c, 9, 40, 0
5, 256320, Note_on_c, 9, 40, 17
5, 257185, Note_on_c, 9, 40, 0
5, 257280, Note_on_c, 9, 40, 17
5, 258097, Note_on_c, 9, 40, 0
5, 258240, Note_on_c, 9, 40, 16
5, 258913, Note_on_c, 9, 40, 0
5, 259200, Note_on_c, 9, 40, 12
5, 260160, Note_on_c, 9, 40, 19
5, 260165, Note_on_c, 9, 40, 0
5, 261088, Note_on_c, 9, 40, 0
5, 261120, Note_on_c, 9, 40, 15
5, 261900, Note_on_c, 9, 40, 0
5, 262080, Note_on_c, 9, 40, 13
5, 262922, Note_on_c, 9, 40, 0
5, 263040, Note_on_c, 9, 40, 12
5, 263927, Note_on_c, 9, 40, 0
5, 264000, Note_on_c, 9, 40, 10
5, 264830, Note_on_c, 9, 40, 0
5, 264960, Note_on_c, 9, 40, 15
5, 265869, Note_on_c, 9, 40, 0
5, 265920, Note_on_c, 9, 40, 15
5, 266742, Note_on_c, 9, 40, 0
5, 266880, Note_on_c, 9, 40, 13
5, 267619, Note_on_c, 9, 40, 0
5, 267840, Note_on_c, 9, 40, 15
5, 268686, Note_on_c, 9, 40, 0
5, 268800, Note_on_c, 9, 40, 16
5, 269692, Note_on_c, 9, 40, 0
5, 269760, Note_on_c, 9, 40, 13
5, 270588, Note_on_c, 9, 40, 0
5, 270720, Note_on_c, 9, 40, 13
5, 271557, Note_on_c, 9, 40, 0
5, 271680, Note_on_c, 9, 40, 17
5, 272504, Note_on_c, 9, 40, 0
5, 272640, Note_on_c, 9, 40, 17
5, 273466, Note_on_c, 9, 40, 0
5, 273600, Note_on_c, 9, 40, 17
5, 274553, Note_on_c, 9, 40, 0
5, 274560, Note_on_c, 9, 40, 13
5, 275505, Note_on_c, 9, 40, 0
5, 275520, Note_on_c, 9, 40, 12
5, 276242, Note_on_c, 9, 40, 0
5, 276480, Note_on_c, 9, 40, 20
5, 277410, Note_on_c, 9, 40, 0
5, 277440, Note_on_c, 9, 40, 15
5, 278332, Note_on_c, 9, 40, 0
5, 278400, Note_on_c, 9, 40, 19
5, 279219, Note_on_c, 9, 40, 0
5, 279360, Note_on_c, 9, 40, 17
5, 280225, Note_on_c, 9, 40, 0
5, 280320, Note_on_c, 9, 40, 17
5, 281137, Note_on_c, 9, 40, 0
5, 281280, Note_on_c, 9, 40, 16
5, 281953, Note_on_c, 9, 40, 0
5, 282240, Note_on_c, 9, 40, 12
5, 283200, Note_on_c, 9, 40, 19
5, 283205, Note_on_c, 9, 40, 0
5, 284128, Note_on_c, 9, 40, 0
5, 284160, Note_on_c, 9, 40, 15
5, 284940, Note_on_c, 9, 40, 0
5, 285120, Note_on_c, 9, 40, 13
5, 285962, Note_on_c, 9, 40, 0
5, 286080, Note_on_c, 9, 40, 12
5, 286967, Note_on_c, 9, 40, 0
5, 287040, Note_on_c, 9, 40, 10
5, 287870, Note_on_c, 9, 40, 0
5, 288000, Note_on_c, 9, 40, 15
5, 288909, Note_on_c, 9, 40, 0
5, 288960, Note_on_c, 9, 40, 15
5, 289782, Note_on_c, 9, 40, 0
5, 289920, Note_on_c, 9, 40, 13
5, 290659, Note_on_c, 9, 40, 0
5, 290880, Note_on_c, 9, 40, 15
5, 291726, Note_on_c, 9, 40, 0
5, 291840, Note_on_c, 9, 40, 16
5, 292732, Note_on_c, 9, 40, 0
5, 292800, Note_on_c, 9, 40, 13
5, 293628, Note_on_c, 9, 40, 0
5, 293760, Note_on_c, 9, 40, 13
5, 294597, Note_on_c, 9, 40, 0
5, 294720, Note_on_c, 9, 40, 17
5, 295544, Note_on_c, 9, 40, 0
5, 295680, Note_on_c, 9, 40, 17
5, 296506, Note_on_c, 9, 40, 0
5, 296640, Note_on_c, 9, 40, 17
5, 297593, Note_on_c, 9, 40, 0
5, 297600, Note_on_c, 9, 40, 13
5, 298545, Note_on_c, 9, 40, 0
5, 298560, Note_on_c, 9, 40, 12
5, 299282, Note_on_c, 9, 40, 0
5, 299520, Note_on_c, 9, 40, 20
5, 300450, Note_on_c, 9, 40, 0
5, 300480, Note_on_c, 9, 40, 15
5, 301372, Note_on_c, 9, 40, 0
5, 301440, Note_on_c, 9, 40, 19
5, 302259, Note_on_c, 9, 40, 0
5, 302400, Note_on_c, 9, 40, 17
5, 303265, Note_on_c, 9, 40, 0
5, 303360, Note_on_c, 9, 40, 17
5, 304177, Note_on_c, 9, 40, 0
5, 304320, Note_on_c, 9, 40, 16
5, 304993, Note_on_c, 9, 40, 0
5, 305280, Note_on_c, 9, 40, 12
5, 306240, Note_on_c, 9, 40, 19
5, 306245, Note_on_c, 9, 40, 0
5, 307168, Note_on_c, 9, 40, 0
5, 307200, Note_on_c, 9, 40, 15
5, 307980, Note_on_c, 9, 40, 0
5, 308160, Note_on_c, 9, 40, 13
5, 309002, Note_on_c, 9, 40, 0
5, 309120, Note_on_c, 9, 40, 12
5, 310007, Note_on_c, 9, 40, 0
5, 310080, Note_on_c, 9, 40, 10
5, 310910, Note_on_c, 9, 40, 0
5, 311040, Note_on_c, 9, 40, 15
5, 311949, Note_on_c, 9, 40, 0
5, 312000, Note_on_c, 9, 40, 15
5, 312822, Note_on_c, 9, 40, 0
5, 312960, Note_on_c, 9, 40, 13
5, 313699, Note_on_c, 9, 40, 0
5, 313920, Note_on_c, 9, 40, 15
5, 314766, Note_on_c, 9, 40, 0
5, 314880, Note_on_c, 9, 40, 16
5, 315772, Note_on_c, 9, 40, 0
5, 315840, Note_on_c, 9, 40, 13
5, 316668, Note_on_c, 9, 40, 0
5, 316800, Note_on_c, 9, 40, 13
5, 317637, Note_on_c, 9, 40, 0
5, 317760, Note_on_c, 9, 40, 17
5, 318584, Note_on_c, 9, 40, 0
5, 318720, Note_on_c, 9, 40, 17
5, 319546, Note_on_c, 9, 40, 0
5, 319680, Note_on_c, 9, 40, 17
5, 320633, Note_on_c, 9, 40, 0
5, 320640, Note_on_c, 9, 40, 13
5, 321585, Note_on_c, 9, 40, 0
5, 321600, Note_on_c, 9, 40, 12
5, 322322, Note_on_c, 9, 40, 0
5, 322560, Note_on_c, 9, 40, 20
5, 323490, Note_on_c, 9, 40, 0
5, 323520, Note_on_c, 9, 40, 15
5, 324412, Note_on_c, 9, 40, 0
5, 324480, Note_on_c, 9, 40, 19
5, 325299, Note_on_c, 9, 40, 0
5, 325440, Note_on_c, 9, 40, 17
5, 326305, Note_on_c, 9, 40, 0
5, 326400, Note_on_c, 9, 40, 17
5, 327217, Note_on_c, 9, 40, 0
5, 327360, Note_on_c, 9, 40, 16
5, 328033, Note_on_c, 9, 40, 0
5, 328320, Note_on_c, 9, 40, 12
5, 329285, Note_on_c, 9, 40, 0
5, 329285, End_track
6, 0, Start_track
6, 0, Title_t, "Hits"
6, 0, Program_c, 9, 40
6, 159455, Note_on_c, 9, 44, 49
6, 160933, Note_on_c, 9, 44, 0
6, 162302, Note_on_c, 9, 46, 32
6, 162316, Note_on_c, 9, 38, 20
6, 162360, Note_on_c, 9, 38, 0
6, 162710, Note_on_c, 9, 38, 34
6, 162769, Note_on_c, 9, 38, 0
6, 163154, Note_on_c, 9, 38, 32
6, 163583, Note_on_c, 9, 38, 0
6, 163882, Note_on_c, 9, 46, 0
6, 164789, Note_on_c, 9, 44, 33
6, 164981, Note_on_c, 9, 44, 0
6, 166401, Note_on_c, 9, 39, 24
6, 166461, Note_on_c, 9, 39, 0
6, 166629, Note_on_c, 9, 38, 24
6, 166792, Note_on_c, 9, 38, 0
6, 167009, Note_on_c, 9, 38, 32
6, 168103, Note_on_c, 9, 46, 17
6, 168119, Note_on_c, 9, 38, 0
6, 168275, Note_on_c, 9, 46, 0
6, 169028, Note_on_c, 9, 38, 32
6, 169186, Note_on_c, 9, 38, 0
6, 169267, Note_on_c, 9, 38, 36
6, 169399, Note_on_c, 9, 38, 0
6, 169499, Note_on_c, 9, 38, 33
6, 169820, Note_on_c, 9, 38, 0
6, 170418, Note_on_c, 9, 38, 24
6, 170502, Note_on_c, 9, 38, 0
6, 170895, Note_on_c, 9, 38, 26
6, 170958, Note_on_c, 9, 44, 34
6, 171065, Note_on_c, 9, 38, 0
6, 171082, Note_on_c, 9, 44, 0
6, 171389, Note_on_c, 9, 38, 40
6, 171743, Note_on_c, 9, 38, 0
6, 171871, Note_on_c, 9, 38, 43
6, 172256, Note_on_c, 9, 38, 0
6, 173315, Note_on_c, 9, 37, 25
6, 173435, Note_on_c, 9, 37, 0
6, 173925, Note_on_c, 9, 46, 27
6, 174096, Note_on_c, 9, 46, 0
6, 174580, Note_on_c, 9, 38, 49
6, 174740, Note_on_c, 9, 38, 0
6, 174825, Note_on_c, 9, 38, 43
6, 175089, Note_on_c, 9, 38, 0
6, 176661, Note_on_c, 9, 44, 30
6, 176676, Note_on_c, 9, 38, 27
6, 176748, Note_on_c, 9, 44, 0
6, 176921, Note_on_c, 9, 38, 0
6, 177295, Note_on_c, 9, 44, 33
6, 177554, Note_on_c, 9, 44, 0
6, 177707, Note_on_c, 9, 38, 25
6, 177801, Note_on_c, 9, 38, 0
6, 178147, Note_on_c, 9, 36, 26
6, 178299, Note_on_c, 9, 36, 0
6, 179587, Note_on_c, 9, 38, 28
6, 179676, Note_on_c, 9, 38, 0
6, 180055, Note_on_c, 9, 38, 26
6, 180202, Note_on_c, 9, 38, 0
6, 180548, Note_on_c, 9, 44, 28
6, 180673, Note_on_c, 9, 44, 0
6, 181062, Note_on_c, 9, 38, 19
6, 181122, Note_on_c, 9, 38, 0
6, 181358, Note_on_c, 9, 38, 25
6, 181413, Note_on_c, 9, 38, 0
6, 181577, Note_on_c, 9, 38, 32
6, 181591, Note_on_c, 9, 53, 42
6, 181808, Note_on_c, 9, 53, 0
6, 181998, Note_on_c, 9, 38, 0
6, 182525, Note_on_c, 9, 46, 19
6, 182674, Note_on_c, 9, 46, 0
6, 182818, Note_on_c, 9, 38, 32
6, 182934, Note_on_c, 9, 38, 0
6, 183058, Note_on_c, 9, 38, 29
6, 183282, Note_on_c, 9, 38, 0
6, 183528, Note_on_c, 9, 38, 34
6, 183824, Note_on_c, 9, 38, 0
6, 185461, Note_on_c, 9, 44, 30
6, 185618, Note_on_c, 9, 44, 0
6, 187119, Note_on_c, 9, 39, 22
6, 187183, Note_on_c, 9, 39, 0
6, 187316, Note_on_c, 9, 38, 32
6, 187491, Note_on_c, 9, 38, 0
6, 187767, Note_on_c, 9, 38, 33
6, 187989, Note_on_c, 9, 38, 0
6, 188220, Note_on_c, 9, 38, 30
6, 188245, Note_on_c, 9, 46, 39
6, 188389, Note_on_c, 9, 46, 0
6, 188826, Note_on_c, 9, 38, 0
6, 191137, Note_on_c, 9, 39, 18
6, 191212, Note_on_c, 9, 44, 31
6, 191226, Note_on_c, 9, 39, 0
6, 191525, Note_on_c, 9, 39, 16
6, 191617, Note_on_c, 9, 39, 0
6, 191638, Note_on_c, 9, 44, 0
6, 191970, Note_on_c, 9, 38, 40
6, 192043, Note_on_c, 9, 38, 0
6, 192203, Note_on_c, 9, 39, 25
6, 192330, Note_on_c, 9, 39, 0
6, 192639, Note_on_c, 9, 38, 27
6, 192761, Note_on_c, 9, 38, 0
6, 193143, Note_on_c, 9, 38, 36
6, 194115, Note_on_c, 9, 44, 23
6, 194174, Note_on_c, 9, 38, 0
6, 194319, Note_on_c, 9, 44, 0
6, 197025, Note_on_c, 9, 44, 21
6, 197152, Note_on_c, 9, 44, 0
6, 197210, Note_on_c, 9, 38, 37
6, 197276, Note_on_c, 9, 38, 0
6, 197445, Note_on_c, 9, 38, 24
6, 197518, Note_on_c, 9, 38, 0
6, 197932, Note_on_c, 9, 46, 25
6, 198405, Note_on_c, 9, 46, 0
6, 199793, Note_on_c, 9, 44, 29
6, 199899, Note_on_c, 9, 44, 0
6, 200201, Note_on_c, 9, 38, 40
6, 200331, Note_on_c, 9, 38, 0
6, 200721, Note_on_c, 9, 38, 48
6, 201015, Note_on_c, 9, 38, 0
6, 201174, Note_on_c, 9, 38, 31
6, 201350, Note_on_c, 9, 38, 0
6, 202164, Note_on_c, 9, 38, 27
6, 202275, Note_on_c, 9, 38, 0
6, 202635, Note_on_c, 9, 38, 31
6, 202668, Note_on_c, 9, 46, 31
6, 202783, Note_on_c, 9, 46, 0
6, 203109, Note_on_c, 9, 38, 0
6, 203144, Note_on_c, 9, 36, 24
6, 203304, Note_on_c, 9, 36, 0
6, 204107, Note_on_c, 9, 38, 32
6, 204225, Note_on_c, 9, 38, 0
6, 204636, Note_on_c, 9, 59, 55
6, 204641, Note_on_c, 9, 36, 24
6, 205628, Note_on_c, 9, 59, 0
6, 205704, Note_on_c, 9, 36, 0
6, 206514, Note_on_c, 9, 38, 30
6, 206585, Note_on_c, 9, 38, 0
6, 206769, Note_on_c, 9, 38, 38
6, 206846, Note_on_c, 9, 38, 0
6, 206949, Note_on_c, 9, 38, 33
6, 207272, Note_on_c, 9, 38, 0
6, 207410, Note_on_c, 9, 36, 17
6, 207552, Note_on_c, 9, 36, 0
6, 207890, Note_on_c, 9, 36, 16
6, 208270, Note_on_c, 9, 36, 0
6, 208480, Note_on_c, 9, 44, 21
6, 208650, Note_on_c, 9, 44, 0
6, 209407, Note_on_c, 9, 44, 21
6, 209570, Note_on_c, 9, 44, 0
6, 211275, Note_on_c, 9, 38, 31
6, 211384, Note_on_c, 9, 38, 0
6, 211767, Note_on_c, 9, 38, 27
6, 211989, Note_on_c, 9, 38, 0
6, 212987, Note_on_c, 9, 38, 35
6, 213076, Note_on_c, 9, 38, 0
6, 213214, Note_on_c, 9, 38, 26
6, 213515, Note_on_c, 9, 38, 0
6, 213634, Note_on_c, 9, 38, 32
6, 213914, Note_on_c, 9, 38, 0
6, 214230, Note_on_c, 9, 44, 36
6, 214429, Note_on_c, 9, 44, 0
6, 214641, Note_on_c, 9, 38, 34
6, 214801, Note_on_c, 9, 38, 0
6, 215104, Note_on_c, 9, 46, 36
6, 215858, Note_on_c, 9, 38, 44
6, 215979, Note_on_c, 9, 38, 0
6, 216012, Note_on_c, 9, 46, 0
6, 216081, Note_on_c, 9, 59, 54
6, 216084, Note_on_c, 9, 36, 31
6, 216361, Note_on_c, 9, 36, 0
6, 216395, Note_on_c, 9, 59, 0
6, 217513, Note_on_c, 9, 38, 40
6, 217697, Note_on_c, 9, 38, 0
6, 218010, Note_on_c, 9, 38, 36
6, 218473, Note_on_c, 9, 38, 0
6, 218493, Note_on_c, 9, 36, 21
6, 218575, Note_on_c, 9, 36, 0
6, 221525, Note_on_c, 9, 44, 30
6, 221639, Note_on_c, 9, 44, 0
6, 222931, Note_on_c, 9, 44, 32
6, 223204, Note_on_c, 9, 44, 0
6, 225645, Note_on_c, 9, 38, 51
6, 225716, Note_on_c, 9, 44, 39
6, 225757, Note_on_c, 9, 38, 0
6, 225860, Note_on_c, 9, 44, 0
6, 226693, Note_on_c, 9, 46, 36
6, 226861, Note_on_c, 9, 46, 0
6, 228013, Note_on_c, 9, 38, 34
6, 228105, Note_on_c, 9, 38, 0
6, 228306, Note_on_c, 9, 38, 39
6, 228395, Note_on_c, 9, 38, 0
6, 228523, Note_on_c, 9, 38, 32
6, 228532, Note_on_c, 9, 44, 29
6, 228712, Note_on_c, 9, 44, 0
6, 228838, Note_on_c, 9, 38, 0
6, 229947, Note_on_c, 9, 38, 22
6, 230003, Note_on_c, 9, 38, 0
6, 230191, Note_on_c, 9, 38, 32
6, 230259, Note_on_c, 9, 38, 0
6, 230406, Note_on_c, 9, 38, 24
6, 230762, Note_on_c, 9, 38, 0
6, 230901, Note_on_c, 9, 36, 21
6, 231101, Note_on_c, 9, 36, 0
6, 231392, Note_on_c, 9, 44, 39
6, 231648, Note_on_c, 9, 44, 0
6, 231880, Note_on_c, 9, 36, 15
6, 232025, Note_on_c, 9, 36, 0
6, 232842, Note_on_c, 9, 38, 30
6, 232999, Note_on_c, 9, 38, 0
6, 233339, Note_on_c, 9, 38, 24
6, 233467, Note_on_c, 9, 38, 0
6, 233773, Note_on_c, 9, 38, 33
6, 233933, Note_on_c, 9, 38, 0
6, 234275, Note_on_c, 9, 44, 43
6, 234502, Note_on_c, 9, 44, 0
6, 236064, Note_on_c, 9, 38, 24
6, 236143, Note_on_c, 9, 38, 0
6, 236713, Note_on_c, 9, 38, 32
6, 236880, Note_on_c, 9, 38, 0
6, 237152, Note_on_c, 9, 46, 42
6, 237284, Note_on_c, 9, 46, 0
6, 237703, Note_on_c, 9, 38, 30
6, 237861, Note_on_c, 9, 38, 0
6, 239588, Note_on_c, 9, 38, 25
6, 239749, Note_on_c, 9, 38, 0
6, 240074, Note_on_c, 9, 44, 37
6, 241067, Note_on_c, 9, 44, 0
6, 241742, Note_on_c, 9, 38, 25
6, 241862, Note_on_c, 9, 38, 0
6, 241968, Note_on_c, 9, 38, 32
6, 242536, Note_on_c, 9, 38, 0
6, 242963, Note_on_c, 9, 38, 17
6, 242965, Note_on_c, 9, 44, 35
6, 243120, Note_on_c, 9, 38, 0
6, 243203, Note_on_c, 9, 44, 0
6, 243205, Note_on_c, 9, 45, 28
6, 243282, Note_on_c, 9, 45, 0
6, 243409, Note_on_c, 9, 45, 18
6, 243632, Note_on_c, 9, 45, 0
6, 244139, Note_on_c, 9, 45, 29
6, 244183, Note_on_c, 9, 45, 0
6, 244324, Note_on_c, 9, 38, 29
6, 244475, Note_on_c, 9, 38, 0
6, 244656, Note_on_c, 9, 38, 31
6, 244738, Note_on_c, 9, 38, 0
6, 244839, Note_on_c, 9, 38, 39
6, 245241, Note_on_c, 9, 38, 0
6, 245325, Note_on_c, 9, 38, 36
6, 245755, Note_on_c, 9, 44, 34
6, 245881, Note_on_c, 9, 38, 0
6, 245924, Note_on_c, 9, 44, 0
6, 248500, Note_on_c, 9, 39, 19
6, 248572, Note_on_c, 9, 39, 0
6, 248709, Note_on_c, 9, 39, 24
6, 248747, Note_on_c, 9, 44, 36
6, 248972, Note_on_c, 9, 39, 0
6, 248983, Note_on_c, 9, 38, 44
6, 249071, Note_on_c, 9, 44, 0
6, 249127, Note_on_c, 9, 38, 0
6, 249670, Note_on_c, 9, 39, 33
6, 250197, Note_on_c, 9, 39, 0
6, 250459, Note_on_c, 9, 38, 46
6, 250581, Note_on_c, 9, 38, 0
6, 250675, Note_on_c, 9, 36, 42
6, 250947, Note_on_c, 9, 36, 0
6, 251136, Note_on_c, 9, 36, 23
6, 251424, Note_on_c, 9, 36, 0
6, 251576, Note_on_c, 9, 44, 38
6, 251704, Note_on_c, 9, 44, 0
6, 252503, Note_on_c, 9, 46, 33
6, 253156, Note_on_c, 9, 46, 0
6, 258383, Note_on_c, 9, 44, 23
6, 258527, Note_on_c, 9, 44, 0
6, 260195, Note_on_c, 9, 44, 36
6, 260354, Note_on_c, 9, 44, 0
6, 261142, Note_on_c, 9, 46, 47
6, 261490, Note_on_c, 9, 39, 23
6, 261576, Note_on_c, 9, 39, 0
6, 261835, Note_on_c, 9, 39, 30
6, 262049, Note_on_c, 9, 39, 0
6, 262092, Note_on_c, 9, 46, 39
6, 262111, Note_on_c, 9, 36, 25
6, 262120, Note_on_c, 9, 46, 0
6, 262692, Note_on_c, 9, 46, 0
6, 263023, Note_on_c, 9, 36, 0
6, 263112, Note_on_c, 9, 44, 31
6, 263596, Note_on_c, 9, 44, 0
6, 264049, Note_on_c, 9, 44, 32
6, 264765, Note_on_c, 9, 44, 0
6, 266074, Note_on_c, 9, 44, 34
6, 267098, Note_on_c, 9, 44, 0
6, 267730, Note_on_c, 9, 39, 22
6, 267812, Note_on_c, 9, 39, 0
6, 267956, Note_on_c, 9, 46, 38
6, 267958, Note_on_c, 9, 36, 22
6, 268877, Note_on_c, 9, 46, 0
6, 268918, Note_on_c, 9, 36, 0
6, 269733, Note_on_c, 9, 44, 42
6, 270045, Note_on_c, 9, 44, 0
6, 272707, Note_on_c, 9, 46, 25
6, 273590, Note_on_c, 9, 46, 0
6, 274605, Note_on_c, 9, 44, 38
6, 274782, Note_on_c, 9, 44, 0
6, 274862, Note_on_c, 9, 38, 35
6, 274971, Note_on_c, 9, 38, 0
6, 275076, Note_on_c, 9, 38, 29
6, 275356, Note_on_c, 9, 38, 0
6, 275552, Note_on_c, 9, 38, 30
6, 275858, Note_on_c, 9, 38, 0
6, 276005, Note_on_c, 9, 38, 27
6, 276283, Note_on_c, 9, 38, 0
6, 279701, Note_on_c, 9, 38, 26
6, 279781, Note_on_c, 9, 38, 0
6, 279888, Note_on_c, 9, 38, 30
6, 280194, Note_on_c, 9, 38, 0
6, 280322, Note_on_c, 9, 44, 30
6, 280328, Note_on_c, 9, 38, 25
6, 280497, Note_on_c, 9, 44, 0
6, 280917, Note_on_c, 9, 38, 0
6, 281123, Note_on_c, 9, 38, 41
6, 281261, Note_on_c, 9, 38, 0
6, 281310, Note_on_c, 9, 44, 17
6, 281360, Note_on_c, 9, 36, 20
6, 281542, Note_on_c, 9, 44, 0
6, 281612, Note_on_c, 9, 36, 0
6, 281797, Note_on_c, 9, 36, 15
6, 281924, Note_on_c, 9, 36, 0
6, 282991, Note_on_c, 9, 38, 52
6, 283089, Note_on_c, 9, 38, 0
6, 283188, Note_on_c, 9, 46, 39
6, 283198, Note_on_c, 9, 38, 38
6, 283649, Note_on_c, 9, 38, 0
6, 283676, Note_on_c, 9, 36, 29
6, 283870, Note_on_c, 9, 36, 0
6, 284319, Note_on_c, 9, 46, 0
6, 284640, Note_on_c, 9, 38, 40
6, 284674, Note_on_c, 9, 59, 37
6, 284692, Note_on_c, 9, 38, 0
6, 284718, Note_on_c, 9, 59, 0
6, 285119, Note_on_c, 9, 53, 84
6, 285140, Note_on_c, 9, 36, 29
6, 285510, Note_on_c, 9, 53, 0
6, 285731, Note_on_c, 9, 36, 0
6, 286115, Note_on_c, 9, 44, 37
6, 286231, Note_on_c, 9, 44, 0
6, 286379, Note_on_c, 9, 38, 46
6, 286492, Note_on_c, 9, 38, 0
6, 287561, Note_on_c, 9, 44, 23
6, 287695, Note_on_c, 9, 44, 0
6, 287864, Note_on_c, 9, 38, 32
6, 287966, Note_on_c, 9, 38, 0
6, 288077, Note_on_c, 9, 38, 34
6, 288327, Note_on_c, 9, 38, 0
6, 288511, Note_on_c, 9, 38, 28
6, 288906, Note_on_c, 9, 38, 0
6, 289017, Note_on_c, 9, 46, 32
6, 289230, Note_on_c, 9, 46, 0
6, 289415, Note_on_c, 9, 38, 34
6, 289756, Note_on_c, 9, 38, 0
6, 289875, Note_on_c, 9, 46, 34
6, 290360, Note_on_c, 9, 46, 0
6, 291348, Note_on_c, 9, 44, 34
6, 291479, Note_on_c, 9, 44, 0
6, 292092, Note_on_c, 9, 38, 53
6, 292154, Note_on_c, 9, 38, 0
6, 292337, Note_on_c, 9, 38, 17
6, 292400, Note_on_c, 9, 38, 0
6, 293053, Note_on_c, 9, 39, 27
6, 293141, Note_on_c, 9, 39, 0
6, 293239, Note_on_c, 9, 38, 33
6, 293374, Note_on_c, 9, 38, 0
6, 293580, Note_on_c, 9, 38, 33
6, 293637, Note_on_c, 9, 38, 0
6, 293755, Note_on_c, 9, 38, 34
6, 294120, Note_on_c, 9, 38, 0
6, 294265, Note_on_c, 9, 38, 12
6, 294369, Note_on_c, 9, 38, 0
6, 294837, Note_on_c, 9, 44, 25
6, 294941, Note_on_c, 9, 44, 0
6, 296721, Note_on_c, 9, 38, 29
6, 296837, Note_on_c, 9, 38, 0
6, 297782, Note_on_c, 9, 44, 36
6, 297972, Note_on_c, 9, 44, 0
6, 298472, Note_on_c, 9, 38, 24
6, 298545, Note_on_c, 9, 38, 0
6, 298911, Note_on_c, 9, 38, 32
6, 299027, Note_on_c, 9, 38, 0
6, 299360, Note_on_c, 9, 38, 31
6, 299449, Note_on_c, 9, 38, 0
6, 300570, Note_on_c, 9, 46, 42
6, 300794, Note_on_c, 9, 46, 0
6, 301238, Note_on_c, 9, 38, 30
6, 301295, Note_on_c, 9, 38, 0
6, 301417, Note_on_c, 9, 38, 27
6, 301951, Note_on_c, 9, 38, 0
6, 301991, Note_on_c, 9, 36, 13
6, 302056, Note_on_c, 9, 36, 0
6, 303352, Note_on_c, 9, 44, 34
6, 303535, Note_on_c, 9, 44, 0
6, 305092, Note_on_c, 9, 38, 20
6, 305297, Note_on_c, 9, 38, 0
6, 306036, Note_on_c, 9, 38, 26
6, 306102, Note_on_c, 9, 38, 0
6, 306227, Note_on_c, 9, 38, 22
6, 306254, Note_on_c, 9, 46, 32
6, 306436, Note_on_c, 9, 46, 0
6, 306487, Note_on_c, 9, 38, 0
6, 309248, Note_on_c, 9, 44, 31
6, 309407, Note_on_c, 9, 44, 0
6, 310916, Note_on_c, 9, 38, 30
6, 310976, Note_on_c, 9, 38, 0
6, 311546, Note_on_c, 9, 44, 21
6, 311596, Note_on_c, 9, 38, 34
6, 311692, Note_on_c, 9, 44, 0
6, 311861, Note_on_c, 9, 38, 0
6, 312466, Note_on_c, 9, 46, 29
6, 313023, Note_on_c, 9, 46, 0
6, 313652, Note_on_c, 9, 38, 30
6, 313744, Note_on_c, 9, 38, 0
6, 313880, Note_on_c, 9, 38, 32
6, 314215, Note_on_c, 9, 38, 0
6, 314336, Note_on_c, 9, 44, 25
6, 314379, Note_on_c, 9, 38, 42
6, 314492, Note_on_c, 9, 44, 0
6, 314569, Note_on_c, 9, 38, 0
6, 315398, Note_on_c, 9, 38, 31
6, 315519, Note_on_c, 9, 38, 0
6, 315931, Note_on_c, 9, 59, 18
6, 316130, Note_on_c, 9, 59, 0
6, 316258, Note_on_c, 9, 44, 34
6, 316415, Note_on_c, 9, 44, 0
6, 316563, Note_on_c, 9, 38, 35
6, 316662, Note_on_c, 9, 38, 0
6, 316779, Note_on_c, 9, 38, 40
6, 317011, Note_on_c, 9, 38, 0
6, 317530, Note_on_c, 9, 38, 34
6, 317596, Note_on_c, 9, 38, 0
6, 317720, Note_on_c, 9, 38, 33
6, 317773, Note_on_c, 9, 46, 35
6, 317952, Note_on_c, 9, 38, 0
6, 318261, Note_on_c, 9, 59, 32
6, 318492, Note_on_c, 9, 59, 0
6, 319047, Note_on_c, 9, 46, 0
6, 319230, Note_on_c, 9, 59, 46
6, 319280, Note_on_c, 9, 59, 0
6, 319461, Note_on_c, 9, 38, 33
6, 319531, Note_on_c, 9, 38, 0
6, 319699, Note_on_c, 9, 38, 42
6, 319712, Note_on_c, 9, 53, 34
6, 319958, Note_on_c, 9, 38, 0
6, 320021, Note_on_c, 9, 53, 0
6, 320174, Note_on_c, 9, 38, 27
6, 320278, Note_on_c, 9, 38, 0
6, 320623, Note_on_c, 9, 38, 26
6, 320682, Note_on_c, 9, 44, 37
6, 320831, Note_on_c, 9, 38, 0
6, 320833, Note_on_c, 9, 44, 0
6, 323555, Note_on_c, 9, 44, 32
6, 323694, Note_on_c, 9, 44, 0
6, 324520, Note_on_c, 9, 46, 26
6, 324833, Note_on_c, 9, 38, 32
6, 324924, Note_on_c, 9, 38, 0
6, 325190, Note_on_c, 9, 46, 0
6, 325218, Note_on_c, 9, 38, 35
6, 325462, Note_on_c, 9, 38, 0
6, 326946, Note_on_c, 9, 39, 22
6, 327057, Note_on_c, 9, 39, 0
6, 327220, Note_on_c, 9, 39, 23
6, 327325, Note_on_c, 9, 39, 0
6, 327470, Note_on_c, 9, 39, 21
6, 327792, Note_on_c, 9, 39, 0
6, 327923, Note_on_c, 9, 36, 17
6, 327980, Note_on_c, 9, 36, 0
6, 328428, Note_on_c, 9, 38, 30
6, 328632, Note_on_c, 9, 38, 0
6, 329350, Note_on_c, 9, 44, 34
6, 329471, Note_on_c, 9, 44, 0
6, 329471, End_track
7, 0, Start_track
7, 0, Title_t, "Hits"
7, 0, End_track
0, 0, End_of_file
