0, 0, Header, 1, 5, 120
1, 0, Start_track
1, 0, Title_t, "Milestones"
1, 0, Title_t, "by Miles Davis"
1, 0, Text_t, "Doug McKenzie\012"
1, 0, Text_t, "dougmck@pipeline.com.au\012"
1, 0, Text_t, "In the style of the Bill Evans Trio\012"
1, 0, Text_t, "(not complete)\012"
1, 0, Time_signature, 4, 2, 24, 8
1, 0, Key_signature, -1, "major"
1, 0, Tempo, 272727
1, 0, Marker_t, "sequence by dougmck@pipeline.com.au"
1, 0, End_track
2, 0, Start_track
2, 0, MIDI_port, 0
2, 0, Title_t, "Fretless Bass"
2, 0, Program_c, 1, 35
2, 0, Control_c, 1, 7, 119
2, 0, Control_c, 1, 10, 64
2, 843, Note_on_c, 1, 50, 103
2, 1792, Note_on_c, 1, 38, 103
2, 1817, Note_on_c, 1, 50, 0
2, 3106, Note_on_c, 1, 38, 0
2, 3139, Note_on_c, 1, 36, 72
2, 3198, Note_on_c, 1, 36, 0
2, 3375, Note_on_c, 1, 36, 66
2, 3445, Note_on_c, 1, 36, 0
2, 3556, Note_on_c, 1, 36, 71
2, 3738, Note_on_c, 1, 36, 0
2, 3740, Note_on_c, 1, 38, 87
2, 4678, Note_on_c, 1, 50, 99
2, 4716, Note_on_c, 1, 38, 0
2, 5626, Note_on_c, 1, 38, 85
2, 5638, Note_on_c, 1, 50, 0
2, 6951, Note_on_c, 1, 38, 0
2, 6968, Note_on_c, 1, 36, 72
2, 7073, Note_on_c, 1, 36, 0
2, 7212, Note_on_c, 1, 36, 72
2, 7317, Note_on_c, 1, 36, 0
2, 7395, Note_on_c, 1, 36, 73
2, 7624, Note_on_c, 1, 45, 50
2, 7625, Note_on_c, 1, 36, 0
2, 7645, Note_on_c, 1, 40, 57
2, 7660, Note_on_c, 1, 45, 0
2, 7694, Note_on_c, 1, 33, 75
2, 7697, Note_on_c, 1, 40, 0
2, 7876, Note_on_c, 1, 45, 73
2, 7892, Note_on_c, 1, 45, 0
2, 8008, Note_on_c, 1, 45, 78
2, 8029, Note_on_c, 1, 45, 0
2, 8103, Note_on_c, 1, 33, 0
2, 8121, Note_on_c, 1, 45, 71
2, 8155, Note_on_c, 1, 40, 64
2, 8158, Note_on_c, 1, 45, 0
2, 8206, Note_on_c, 1, 40, 0
2, 8206, Note_on_c, 1, 33, 83
2, 8372, Note_on_c, 1, 45, 71
2, 8399, Note_on_c, 1, 45, 0
2, 8491, Note_on_c, 1, 45, 68
2, 8505, Note_on_c, 1, 45, 0
2, 8600, Note_on_c, 1, 33, 0
2, 8603, Note_on_c, 1, 45, 74
2, 8637, Note_on_c, 1, 45, 0
2, 8637, Note_on_c, 1, 40, 60
2, 8674, Note_on_c, 1, 33, 83
2, 8688, Note_on_c, 1, 40, 0
2, 8845, Note_on_c, 1, 45, 72
2, 8859, Note_on_c, 1, 45, 0
2, 9067, Note_on_c, 1, 45, 66
2, 9076, Note_on_c, 1, 33, 0
2, 9086, Note_on_c, 1, 45, 0
2, 9086, Note_on_c, 1, 40, 44
2, 9112, Note_on_c, 1, 40, 0
2, 9131, Note_on_c, 1, 33, 83
2, 9318, Note_on_c, 1, 45, 75
2, 9332, Note_on_c, 1, 45, 0
2, 9442, Note_on_c, 1, 45, 74
2, 9457, Note_on_c, 1, 45, 0
2, 9547, Note_on_c, 1, 45, 69
2, 9554, Note_on_c, 1, 33, 0
2, 9573, Note_on_c, 1, 40, 26
2, 9592, Note_on_c, 1, 45, 0
2, 9622, Note_on_c, 1, 33, 75
2, 9640, Note_on_c, 1, 40, 0
2, 9794, Note_on_c, 1, 45, 79
2, 9823, Note_on_c, 1, 45, 0
2, 9914, Note_on_c, 1, 45, 71
2, 9929, Note_on_c, 1, 45, 0
2, 10002, Note_on_c, 1, 45, 76
2, 10024, Note_on_c, 1, 33, 0
2, 10045, Note_on_c, 1, 40, 55
2, 10046, Note_on_c, 1, 45, 0
2, 10083, Note_on_c, 1, 33, 74
2, 10100, Note_on_c, 1, 40, 0
2, 10245, Note_on_c, 1, 33, 0
2, 10250, Note_on_c, 1, 45, 68
2, 10280, Note_on_c, 1, 45, 0
2, 10281, Note_on_c, 1, 40, 37
2, 10316, Note_on_c, 1, 33, 80
2, 10332, Note_on_c, 1, 40, 0
2, 10483, Note_on_c, 1, 33, 0
2, 10491, Note_on_c, 1, 45, 68
2, 10527, Note_on_c, 1, 45, 0
2, 10530, Note_on_c, 1, 40, 48
2, 10561, Note_on_c, 1, 33, 78
2, 10581, Note_on_c, 1, 40, 0
2, 10735, Note_on_c, 1, 45, 80
2, 10755, Note_on_c, 1, 45, 0
2, 10863, Note_on_c, 1, 45, 76
2, 10888, Note_on_c, 1, 45, 0
2, 10989, Note_on_c, 1, 45, 74
2, 11014, Note_on_c, 1, 33, 0
2, 11019, Note_on_c, 1, 40, 50
2, 11034, Note_on_c, 1, 45, 0
2, 11063, Note_on_c, 1, 33, 76
2, 11079, Note_on_c, 1, 40, 0
2, 11243, Note_on_c, 1, 45, 79
2, 11264, Note_on_c, 1, 45, 0
2, 11366, Note_on_c, 1, 45, 81
2, 11395, Note_on_c, 1, 45, 0
2, 11483, Note_on_c, 1, 45, 70
2, 11500, Note_on_c, 1, 33, 0
2, 11504, Note_on_c, 1, 40, 58
2, 11535, Note_on_c, 1, 45, 0
2, 11547, Note_on_c, 1, 33, 74
2, 11574, Note_on_c, 1, 40, 0
2, 11716, Note_on_c, 1, 45, 73
2, 11739, Note_on_c, 1, 45, 0
2, 11843, Note_on_c, 1, 45, 73
2, 11857, Note_on_c, 1, 45, 0
2, 11944, Note_on_c, 1, 33, 0
2, 11952, Note_on_c, 1, 45, 75
2, 11990, Note_on_c, 1, 45, 0
2, 11995, Note_on_c, 1, 40, 67
2, 12036, Note_on_c, 1, 33, 75
2, 12051, Note_on_c, 1, 40, 0
2, 12203, Note_on_c, 1, 45, 78
2, 12223, Note_on_c, 1, 45, 0
2, 12236, Note_on_c, 1, 33, 0
2, 12332, Note_on_c, 1, 45, 74
2, 12357, Note_on_c, 1, 45, 0
2, 12441, Note_on_c, 1, 45, 70
2, 12477, Note_on_c, 1, 40, 59
2, 12479, Note_on_c, 1, 45, 0
2, 12518, Note_on_c, 1, 33, 79
2, 12531, Note_on_c, 1, 40, 0
2, 12698, Note_on_c, 1, 33, 0
2, 12702, Note_on_c, 1, 45, 79
2, 12733, Note_on_c, 1, 45, 0
2, 12843, Note_on_c, 1, 45, 78
2, 12875, Note_on_c, 1, 45, 0
2, 12942, Note_on_c, 1, 45, 71
2, 12956, Note_on_c, 1, 40, 52
2, 12978, Note_on_c, 1, 45, 0
2, 13008, Note_on_c, 1, 33, 74
2, 13017, Note_on_c, 1, 40, 0
2, 13180, Note_on_c, 1, 45, 85
2, 13281, Note_on_c, 1, 33, 0
2, 13293, Note_on_c, 1, 45, 0
2, 13323, Note_on_c, 1, 40, 62
2, 13370, Note_on_c, 1, 40, 0
2, 13421, Note_on_c, 1, 40, 53
2, 13472, Note_on_c, 1, 40, 0
2, 13472, Note_on_c, 1, 33, 80
2, 13638, Note_on_c, 1, 45, 78
2, 13667, Note_on_c, 1, 45, 0
2, 13759, Note_on_c, 1, 45, 75
2, 13773, Note_on_c, 1, 45, 0
2, 13867, Note_on_c, 1, 45, 68
2, 13875, Note_on_c, 1, 33, 0
2, 13899, Note_on_c, 1, 40, 45
2, 13910, Note_on_c, 1, 45, 0
2, 13946, Note_on_c, 1, 33, 80
2, 13971, Note_on_c, 1, 40, 0
2, 14120, Note_on_c, 1, 45, 65
2, 14161, Note_on_c, 1, 45, 0
2, 14244, Note_on_c, 1, 45, 74
2, 14272, Note_on_c, 1, 45, 0
2, 14362, Note_on_c, 1, 45, 74
2, 14379, Note_on_c, 1, 33, 0
2, 14379, Note_on_c, 1, 40, 60
2, 14415, Note_on_c, 1, 45, 0
2, 14433, Note_on_c, 1, 33, 75
2, 14454, Note_on_c, 1, 40, 0
2, 14601, Note_on_c, 1, 45, 78
2, 14633, Note_on_c, 1, 45, 0
2, 14726, Note_on_c, 1, 45, 78
2, 14749, Note_on_c, 1, 45, 0
2, 14844, Note_on_c, 1, 45, 69
2, 14854, Note_on_c, 1, 33, 0
2, 14856, Note_on_c, 1, 40, 58
2, 14879, Note_on_c, 1, 45, 0
2, 14904, Note_on_c, 1, 33, 79
2, 14916, Note_on_c, 1, 40, 0
2, 15075, Note_on_c, 1, 45, 79
2, 15092, Note_on_c, 1, 45, 0
2, 15201, Note_on_c, 1, 45, 78
2, 15236, Note_on_c, 1, 45, 0
2, 15348, Note_on_c, 1, 33, 0
2, 16209, Note_on_c, 1, 50, 95
2, 17160, Note_on_c, 1, 50, 100
2, 17213, Note_on_c, 1, 50, 0
2, 18120, Note_on_c, 1, 50, 0
2, 18486, Note_on_c, 1, 48, 81
2, 18503, Note_on_c, 1, 48, 0
2, 18718, Note_on_c, 1, 48, 73
2, 18732, Note_on_c, 1, 48, 0
2, 18896, Note_on_c, 1, 48, 76
2, 19004, Note_on_c, 1, 36, 51
2, 19022, Note_on_c, 1, 36, 0
2, 19028, Note_on_c, 1, 48, 0
2, 19064, Note_on_c, 1, 46, 59
2, 19160, Note_on_c, 1, 46, 0
2, 19182, Note_on_c, 1, 45, 56
2, 19421, Note_on_c, 1, 45, 0
2, 19429, Note_on_c, 1, 44, 53
2, 19682, Note_on_c, 1, 44, 0
2, 19691, Note_on_c, 1, 43, 48
2, 19896, Note_on_c, 1, 34, 40
2, 19925, Note_on_c, 1, 43, 0
2, 19931, Note_on_c, 1, 34, 0
2, 19935, Note_on_c, 1, 38, 57
2, 20154, Note_on_c, 1, 38, 0
2, 20166, Note_on_c, 1, 34, 49
2, 20412, Note_on_c, 1, 34, 0
2, 20414, Note_on_c, 1, 33, 51
2, 20661, Note_on_c, 1, 33, 0
2, 20670, Note_on_c, 1, 31, 56
2, 20858, Note_on_c, 1, 34, 46
2, 20872, Note_on_c, 1, 31, 0
2, 20894, Note_on_c, 1, 34, 0
2, 20894, Note_on_c, 1, 36, 65
2, 21118, Note_on_c, 1, 36, 0
2, 21125, Note_on_c, 1, 34, 45
2, 21322, Note_on_c, 1, 32, 42
2, 21367, Note_on_c, 1, 32, 0
2, 21368, Note_on_c, 1, 38, 49
2, 21369, Note_on_c, 1, 34, 0
2, 21575, Note_on_c, 1, 34, 35
2, 21594, Note_on_c, 1, 38, 0
2, 21611, Note_on_c, 1, 45, 67
2, 21613, Note_on_c, 1, 34, 0
2, 21802, Note_on_c, 1, 38, 39
2, 21826, Note_on_c, 1, 38, 0
2, 21856, Note_on_c, 1, 45, 0
2, 21856, Note_on_c, 1, 43, 56
2, 22040, Note_on_c, 1, 38, 35
2, 22058, Note_on_c, 1, 38, 0
2, 22077, Note_on_c, 1, 43, 0
2, 22087, Note_on_c, 1, 50, 75
2, 22312, Note_on_c, 1, 50, 0
2, 22329, Note_on_c, 1, 48, 55
2, 22521, Note_on_c, 1, 41, 41
2, 22538, Note_on_c, 1, 41, 0
2, 22546, Note_on_c, 1, 48, 0
2, 22561, Note_on_c, 1, 46, 50
2, 22800, Note_on_c, 1, 45, 53
2, 22830, Note_on_c, 1, 46, 0
2, 22888, Note_on_c, 1, 45, 0
2, 22918, Note_on_c, 1, 44, 53
2, 23031, Note_on_c, 1, 44, 0
2, 23043, Note_on_c, 1, 43, 55
2, 23264, Note_on_c, 1, 43, 0
2, 23281, Note_on_c, 1, 38, 58
2, 23503, Note_on_c, 1, 38, 0
2, 23525, Note_on_c, 1, 34, 56
2, 23752, Note_on_c, 1, 34, 0
2, 23754, Note_on_c, 1, 38, 79
2, 23958, Note_on_c, 1, 38, 0
2, 23961, Note_on_c, 1, 34, 45
2, 23999, Note_on_c, 1, 36, 62
2, 24002, Note_on_c, 1, 34, 0
2, 24193, Note_on_c, 1, 34, 38
2, 24210, Note_on_c, 1, 36, 0
2, 24217, Note_on_c, 1, 34, 0
2, 24226, Note_on_c, 1, 43, 53
2, 24441, Note_on_c, 1, 43, 0
2, 24460, Note_on_c, 1, 40, 56
2, 24652, Note_on_c, 1, 36, 37
2, 24676, Note_on_c, 1, 40, 0
2, 24678, Note_on_c, 1, 36, 0
2, 24709, Note_on_c, 1, 45, 55
2, 24812, Note_on_c, 1, 45, 0
2, 24835, Note_on_c, 1, 36, 29
2, 24836, Note_on_c, 1, 42, 49
2, 24851, Note_on_c, 1, 36, 0
2, 24959, Note_on_c, 1, 42, 0
2, 24972, Note_on_c, 1, 43, 51
2, 25196, Note_on_c, 1, 43, 0
2, 25212, Note_on_c, 1, 48, 67
2, 25442, Note_on_c, 1, 48, 0
2, 25469, Note_on_c, 1, 46, 52
2, 25691, Note_on_c, 1, 46, 0
2, 25702, Note_on_c, 1, 45, 58
2, 25920, Note_on_c, 1, 45, 0
2, 25941, Note_on_c, 1, 43, 53
2, 26132, Note_on_c, 1, 34, 43
2, 26154, Note_on_c, 1, 43, 0
2, 26172, Note_on_c, 1, 38, 65
2, 26174, Note_on_c, 1, 34, 0
2, 26386, Note_on_c, 1, 38, 0
2, 26408, Note_on_c, 1, 34, 59
2, 26756, Note_on_c, 1, 34, 0
2, 26758, Note_on_c, 1, 32, 67
2, 26848, Note_on_c, 1, 32, 0
2, 26892, Note_on_c, 1, 45, 77
2, 27204, Note_on_c, 1, 40, 61
2, 27224, Note_on_c, 1, 40, 0
2, 27234, Note_on_c, 1, 45, 0
2, 27251, Note_on_c, 1, 33, 76
2, 27616, Note_on_c, 1, 45, 58
2, 27631, Note_on_c, 1, 45, 0
2, 27730, Note_on_c, 1, 45, 84
2, 27744, Note_on_c, 1, 45, 0
2, 27856, Note_on_c, 1, 45, 82
2, 27904, Note_on_c, 1, 45, 0
2, 27929, Note_on_c, 1, 47, 36
2, 27983, Note_on_c, 1, 47, 0
2, 27996, Note_on_c, 1, 45, 29
2, 28102, Note_on_c, 1, 33, 0
2, 28107, Note_on_c, 1, 40, 71
2, 28110, Note_on_c, 1, 45, 0
2, 28285, Note_on_c, 1, 33, 72
2, 28298, Note_on_c, 1, 40, 0
2, 28690, Note_on_c, 1, 45, 99
2, 28707, Note_on_c, 1, 33, 0
2, 28983, Note_on_c, 1, 45, 0
2, 29050, Note_on_c, 1, 45, 89
2, 29096, Note_on_c, 1, 45, 0
2, 29235, Note_on_c, 1, 45, 90
2, 29272, Control_c, 1, 1, 3
2, 29274, Control_c, 1, 1, 5
2, 29275, Control_c, 1, 1, 6
2, 29277, Control_c, 1, 1, 8
2, 29279, Control_c, 1, 1, 10
2, 29280, Control_c, 1, 1, 13
2, 29284, Control_c, 1, 1, 15
2, 29284, Control_c, 1, 1, 17
2, 29286, Control_c, 1, 1, 19
2, 29288, Control_c, 1, 1, 22
2, 29290, Control_c, 1, 1, 25
2, 29292, Control_c, 1, 1, 28
2, 29294, Control_c, 1, 1, 30
2, 29295, Control_c, 1, 1, 33
2, 29298, Control_c, 1, 1, 35
2, 29299, Control_c, 1, 1, 37
2, 29302, Control_c, 1, 1, 40
2, 29304, Control_c, 1, 1, 42
2, 29307, Control_c, 1, 1, 44
2, 29307, Control_c, 1, 1, 46
2, 29310, Control_c, 1, 1, 48
2, 29311, Control_c, 1, 1, 50
2, 29313, Control_c, 1, 1, 52
2, 29315, Control_c, 1, 1, 54
2, 29316, Control_c, 1, 1, 55
2, 29318, Control_c, 1, 1, 57
2, 29321, Control_c, 1, 1, 59
2, 29322, Control_c, 1, 1, 61
2, 29324, Control_c, 1, 1, 62
2, 29325, Control_c, 1, 1, 63
2, 29327, Control_c, 1, 1, 65
2, 29330, Control_c, 1, 1, 66
2, 29331, Control_c, 1, 1, 68
2, 29333, Control_c, 1, 1, 69
2, 29335, Control_c, 1, 1, 70
2, 29336, Control_c, 1, 1, 72
2, 29339, Control_c, 1, 1, 73
2, 29341, Control_c, 1, 1, 75
2, 29342, Control_c, 1, 1, 76
2, 29344, Control_c, 1, 1, 77
2, 29346, Control_c, 1, 1, 78
2, 29347, Control_c, 1, 1, 79
2, 29353, Control_c, 1, 1, 81
2, 29355, Control_c, 1, 1, 82
2, 29357, Control_c, 1, 1, 83
2, 29379, Control_c, 1, 1, 81
2, 29384, Control_c, 1, 1, 79
2, 29386, Control_c, 1, 1, 78
2, 29391, Control_c, 1, 1, 75
2, 29393, Control_c, 1, 1, 73
2, 29396, Control_c, 1, 1, 71
2, 29397, Control_c, 1, 1, 69
2, 29399, Control_c, 1, 1, 68
2, 29401, Control_c, 1, 1, 66
2, 29404, Control_c, 1, 1, 65
2, 29404, Control_c, 1, 1, 63
2, 29407, Control_c, 1, 1, 61
2, 29408, Control_c, 1, 1, 60
2, 29410, Control_c, 1, 1, 58
2, 29411, Control_c, 1, 1, 56
2, 29413, Control_c, 1, 1, 55
2, 29415, Control_c, 1, 1, 53
2, 29417, Control_c, 1, 1, 52
2, 29419, Control_c, 1, 1, 49
2, 29421, Control_c, 1, 1, 48
2, 29422, Control_c, 1, 1, 46
2, 29425, Control_c, 1, 1, 44
2, 29428, Control_c, 1, 1, 41
2, 29429, Control_c, 1, 1, 39
2, 29431, Control_c, 1, 1, 37
2, 29433, Control_c, 1, 1, 35
2, 29434, Control_c, 1, 1, 33
2, 29437, Control_c, 1, 1, 30
2, 29438, Control_c, 1, 1, 27
2, 29440, Control_c, 1, 1, 25
2, 29442, Control_c, 1, 1, 22
2, 29444, Control_c, 1, 1, 20
2, 29446, Control_c, 1, 1, 16
2, 29448, Control_c, 1, 1, 13
2, 29449, Control_c, 1, 1, 11
2, 29452, Control_c, 1, 1, 8
2, 29453, Control_c, 1, 1, 5
2, 29455, Control_c, 1, 1, 2
2, 29457, Control_c, 1, 1, 1
2, 29473, Control_c, 1, 1, 0
2, 29762, Note_on_c, 1, 45, 0
2, 29769, Note_on_c, 1, 33, 71
2, 30005, Note_on_c, 1, 45, 92
2, 30008, Note_on_c, 1, 33, 0
2, 30153, Note_on_c, 1, 45, 0
2, 30243, Note_on_c, 1, 45, 91
2, 30312, Pitch_bend_c, 1, 8192
2, 30314, Pitch_bend_c, 1, 8192
2, 30319, Pitch_bend_c, 1, 8842
2, 30323, Pitch_bend_c, 1, 9102
2, 30326, Pitch_bend_c, 1, 9362
2, 30331, Pitch_bend_c, 1, 9752
2, 30332, Pitch_bend_c, 1, 9882
2, 30334, Pitch_bend_c, 1, 10142
2, 30338, Pitch_bend_c, 1, 10402
2, 30340, Pitch_bend_c, 1, 10532
2, 30357, Pitch_bend_c, 1, 10272
2, 30362, Pitch_bend_c, 1, 10012
2, 30363, Pitch_bend_c, 1, 9752
2, 30365, Pitch_bend_c, 1, 9492
2, 30369, Pitch_bend_c, 1, 9102
2, 30371, Pitch_bend_c, 1, 8712
2, 30375, Pitch_bend_c, 1, 8192
2, 30376, Pitch_bend_c, 1, 8192
2, 30446, Pitch_bend_c, 1, 8192
2, 30452, Pitch_bend_c, 1, 8842
2, 30455, Pitch_bend_c, 1, 9102
2, 30458, Pitch_bend_c, 1, 9362
2, 30461, Pitch_bend_c, 1, 9752
2, 30464, Pitch_bend_c, 1, 10012
2, 30467, Pitch_bend_c, 1, 10272
2, 30470, Pitch_bend_c, 1, 10662
2, 30472, Pitch_bend_c, 1, 10792
2, 30476, Pitch_bend_c, 1, 11052
2, 30478, Pitch_bend_c, 1, 11312
2, 30484, Pitch_bend_c, 1, 11442
2, 30492, Pitch_bend_c, 1, 11312
2, 30495, Pitch_bend_c, 1, 10922
2, 30497, Pitch_bend_c, 1, 10662
2, 30501, Pitch_bend_c, 1, 10272
2, 30504, Pitch_bend_c, 1, 9752
2, 30507, Pitch_bend_c, 1, 9102
2, 30510, Pitch_bend_c, 1, 8192
2, 30512, Pitch_bend_c, 1, 8192
2, 30732, Note_on_c, 1, 33, 70
2, 30739, Note_on_c, 1, 45, 0
2, 31030, Note_on_c, 1, 32, 32
2, 31079, Note_on_c, 1, 32, 0
2, 31079, Note_on_c, 1, 50, 90
2, 31088, Note_on_c, 1, 33, 0
2, 31272, Note_on_c, 1, 48, 74
2, 31299, Note_on_c, 1, 50, 0
2, 31436, Note_on_c, 1, 48, 0
2, 31447, Note_on_c, 1, 47, 70
2, 31511, Note_on_c, 1, 47, 0
2, 31560, Note_on_c, 1, 46, 60
2, 31663, Note_on_c, 1, 46, 0
2, 31693, Note_on_c, 1, 45, 55
2, 31862, Note_on_c, 1, 45, 0
2, 31866, Note_on_c, 1, 40, 49
2, 31930, Note_on_c, 1, 33, 77
2, 31951, Note_on_c, 1, 40, 0
2, 32270, Note_on_c, 1, 45, 74
2, 32301, Note_on_c, 1, 45, 0
2, 32448, Note_on_c, 1, 40, 50
2, 32452, Note_on_c, 1, 33, 0
2, 32470, Note_on_c, 1, 45, 56
2, 32499, Note_on_c, 1, 40, 0
2, 32525, Note_on_c, 1, 45, 0
2, 32531, Note_on_c, 1, 33, 72
2, 32891, Note_on_c, 1, 45, 78
2, 32916, Note_on_c, 1, 45, 0
2, 33069, Note_on_c, 1, 45, 67
2, 33078, Note_on_c, 1, 33, 0
2, 33080, Note_on_c, 1, 40, 48
2, 33112, Note_on_c, 1, 45, 0
2, 33130, Note_on_c, 1, 33, 76
2, 33173, Note_on_c, 1, 40, 0
2, 33321, Note_on_c, 1, 45, 69
2, 33335, Note_on_c, 1, 45, 0
2, 33435, Note_on_c, 1, 45, 80
2, 33463, Note_on_c, 1, 45, 0
2, 33551, Note_on_c, 1, 45, 72
2, 33570, Note_on_c, 1, 33, 0
2, 33575, Note_on_c, 1, 40, 59
2, 33597, Note_on_c, 1, 45, 0
2, 33622, Note_on_c, 1, 33, 81
2, 33633, Note_on_c, 1, 40, 0
2, 33786, Note_on_c, 1, 45, 73
2, 33803, Note_on_c, 1, 45, 0
2, 33917, Note_on_c, 1, 45, 65
2, 33949, Note_on_c, 1, 33, 0
2, 33963, Note_on_c, 1, 40, 80
2, 33975, Note_on_c, 1, 45, 0
2, 33989, Note_on_c, 1, 33, 76
2, 34012, Note_on_c, 1, 40, 0
2, 34169, Note_on_c, 1, 45, 74
2, 34183, Note_on_c, 1, 45, 0
2, 34266, Note_on_c, 1, 45, 80
2, 34295, Note_on_c, 1, 40, 74
2, 34300, Note_on_c, 1, 45, 0
2, 34364, Note_on_c, 1, 33, 0
2, 34413, Note_on_c, 1, 44, 77
2, 34439, Note_on_c, 1, 40, 0
2, 34541, Note_on_c, 1, 43, 66
2, 34543, Note_on_c, 1, 44, 0
2, 34905, Note_on_c, 1, 38, 29
2, 34906, Note_on_c, 1, 43, 0
2, 34917, Note_on_c, 1, 45, 60
2, 34919, Note_on_c, 1, 38, 0
2, 35253, Note_on_c, 1, 38, 29
2, 35264, Note_on_c, 1, 45, 0
2, 35270, Note_on_c, 1, 38, 0
2, 35279, Note_on_c, 1, 46, 48
2, 35404, Note_on_c, 1, 50, 66
2, 35418, Note_on_c, 1, 46, 0
2, 35508, Note_on_c, 1, 50, 0
2, 35537, Note_on_c, 1, 48, 55
2, 35748, Note_on_c, 1, 48, 0
2, 35782, Note_on_c, 1, 46, 49
2, 35873, Note_on_c, 1, 46, 0
2, 35899, Note_on_c, 1, 45, 53
2, 36111, Note_on_c, 1, 45, 0
2, 36136, Note_on_c, 1, 43, 55
2, 36325, Note_on_c, 1, 38, 53
2, 36338, Note_on_c, 1, 43, 0
2, 36343, Note_on_c, 1, 38, 0
2, 36361, Note_on_c, 1, 34, 57
2, 36474, Note_on_c, 1, 34, 0
2, 36492, Note_on_c, 1, 33, 59
2, 36559, Note_on_c, 1, 33, 0
2, 36606, Note_on_c, 1, 32, 55
2, 36689, Note_on_c, 1, 32, 0
2, 36729, Note_on_c, 1, 31, 50
2, 36966, Note_on_c, 1, 31, 0
2, 36966, Note_on_c, 1, 40, 55
2, 37085, Note_on_c, 1, 40, 0
2, 37085, Note_on_c, 1, 39, 58
2, 37191, Note_on_c, 1, 39, 0
2, 37208, Note_on_c, 1, 38, 43
2, 37309, Note_on_c, 1, 38, 0
2, 37333, Note_on_c, 1, 45, 65
2, 37430, Note_on_c, 1, 45, 0
2, 37431, Note_on_c, 1, 34, 37
2, 37451, Note_on_c, 1, 34, 0
2, 37452, Note_on_c, 1, 44, 44
2, 37544, Note_on_c, 1, 44, 0
2, 37571, Note_on_c, 1, 43, 50
2, 37659, Note_on_c, 1, 43, 0
2, 37702, Note_on_c, 1, 52, 69
2, 37797, Note_on_c, 1, 52, 0
2, 37809, Note_on_c, 1, 51, 55
2, 37911, Note_on_c, 1, 51, 0
2, 37948, Note_on_c, 1, 50, 34
2, 38031, Note_on_c, 1, 50, 0
2, 38057, Note_on_c, 1, 48, 62
2, 38129, Note_on_c, 1, 43, 33
2, 38148, Note_on_c, 1, 43, 0
2, 38164, Note_on_c, 1, 48, 0
2, 38177, Note_on_c, 1, 46, 56
2, 38230, Note_on_c, 1, 46, 0
2, 38288, Note_on_c, 1, 45, 67
2, 38382, Note_on_c, 1, 45, 0
2, 38402, Note_on_c, 1, 43, 83
2, 38459, Note_on_c, 1, 43, 0
2, 38487, Note_on_c, 1, 43, 28
2, 38516, Note_on_c, 1, 43, 0
2, 38525, Note_on_c, 1, 48, 77
2, 38636, Note_on_c, 1, 48, 0
2, 38647, Note_on_c, 1, 46, 62
2, 38764, Note_on_c, 1, 46, 0
2, 38775, Note_on_c, 1, 45, 60
2, 38887, Note_on_c, 1, 45, 0
2, 38892, Note_on_c, 1, 43, 62
2, 39001, Note_on_c, 1, 43, 0
2, 39013, Note_on_c, 1, 38, 58
2, 39120, Note_on_c, 1, 38, 0
2, 39126, Note_on_c, 1, 41, 81
2, 39250, Note_on_c, 1, 41, 0
2, 39278, Note_on_c, 1, 36, 5
2, 39313, Note_on_c, 1, 36, 0
2, 39335, Note_on_c, 1, 36, 54
2, 39355, Note_on_c, 1, 36, 0
2, 39369, Note_on_c, 1, 38, 51
2, 39475, Note_on_c, 1, 38, 0
2, 39484, Note_on_c, 1, 34, 72
2, 39600, Note_on_c, 1, 34, 0
2, 39607, Note_on_c, 1, 33, 38
2, 39729, Note_on_c, 1, 32, 64
2, 39732, Note_on_c, 1, 33, 0
2, 39807, Note_on_c, 1, 32, 0
2, 39816, Note_on_c, 1, 30, 52
2, 39838, Note_on_c, 1, 30, 0
2, 39858, Note_on_c, 1, 31, 55
2, 39962, Note_on_c, 1, 31, 0
2, 39971, Note_on_c, 1, 33, 62
2, 40079, Note_on_c, 1, 33, 0
2, 40090, Note_on_c, 1, 34, 48
2, 40140, Note_on_c, 1, 34, 0
2, 40171, Note_on_c, 1, 34, 51
2, 40195, Note_on_c, 1, 34, 0
2, 40207, Note_on_c, 1, 36, 79
2, 40313, Note_on_c, 1, 36, 0
2, 40332, Note_on_c, 1, 38, 49
2, 40406, Note_on_c, 1, 38, 0
2, 40445, Note_on_c, 1, 45, 88
2, 40550, Note_on_c, 1, 45, 0
2, 40567, Note_on_c, 1, 43, 33
2, 40644, Note_on_c, 1, 43, 0
2, 40659, Note_on_c, 1, 40, 50
2, 40672, Note_on_c, 1, 40, 0
2, 40687, Note_on_c, 1, 50, 76
2, 40796, Note_on_c, 1, 50, 0
2, 40804, Note_on_c, 1, 48, 64
2, 40907, Note_on_c, 1, 48, 0
2, 40923, Note_on_c, 1, 46, 57
2, 41028, Note_on_c, 1, 46, 0
2, 41043, Note_on_c, 1, 45, 64
2, 41126, Note_on_c, 1, 45, 0
2, 41131, Note_on_c, 1, 43, 51
2, 41152, Note_on_c, 1, 43, 0
2, 41168, Note_on_c, 1, 42, 50
2, 41274, Note_on_c, 1, 42, 0
2, 41281, Note_on_c, 1, 45, 74
2, 41397, Note_on_c, 1, 45, 0
2, 41406, Note_on_c, 1, 43, 68
2, 41510, Note_on_c, 1, 43, 0
2, 41523, Note_on_c, 1, 38, 50
2, 41620, Note_on_c, 1, 38, 0
2, 41640, Note_on_c, 1, 34, 57
2, 41748, Note_on_c, 1, 34, 0
2, 41760, Note_on_c, 1, 33, 58
2, 41815, Note_on_c, 1, 33, 0
2, 41844, Note_on_c, 1, 33, 50
2, 41874, Note_on_c, 1, 33, 0
2, 41880, Note_on_c, 1, 31, 51
2, 41998, Note_on_c, 1, 30, 54
2, 42000, Note_on_c, 1, 31, 0
2, 42104, Note_on_c, 1, 30, 0
2, 42121, Note_on_c, 1, 30, 59
2, 42231, Note_on_c, 1, 30, 0
2, 42241, Note_on_c, 1, 31, 54
2, 42300, Note_on_c, 1, 31, 0
2, 42332, Note_on_c, 1, 31, 53
2, 42344, Note_on_c, 1, 31, 0
2, 42368, Note_on_c, 1, 33, 49
2, 42472, Note_on_c, 1, 33, 0
2, 42486, Note_on_c, 1, 34, 49
2, 42603, Note_on_c, 1, 31, 54
2, 42609, Note_on_c, 1, 34, 0
2, 42705, Note_on_c, 1, 31, 0
2, 42723, Note_on_c, 1, 38, 72
2, 42839, Note_on_c, 1, 38, 0
2, 42847, Note_on_c, 1, 36, 60
2, 42954, Note_on_c, 1, 36, 0
2, 42964, Note_on_c, 1, 34, 50
2, 43043, Note_on_c, 1, 34, 0
2, 43049, Note_on_c, 1, 31, 41
2, 43060, Note_on_c, 1, 31, 0
2, 43083, Note_on_c, 1, 33, 79
2, 43188, Note_on_c, 1, 33, 0
2, 43200, Note_on_c, 1, 31, 49
2, 43308, Note_on_c, 1, 31, 0
2, 43320, Note_on_c, 1, 43, 75
2, 43431, Note_on_c, 1, 43, 0
2, 43442, Note_on_c, 1, 41, 63
2, 43556, Note_on_c, 1, 41, 0
2, 43561, Note_on_c, 1, 38, 64
2, 43676, Note_on_c, 1, 38, 0
2, 43678, Note_on_c, 1, 36, 58
2, 43797, Note_on_c, 1, 34, 60
2, 43810, Note_on_c, 1, 36, 0
2, 43919, Note_on_c, 1, 33, 60
2, 44032, Note_on_c, 1, 33, 0
2, 44036, Note_on_c, 1, 30, 69
2, 44050, Note_on_c, 1, 34, 0
2, 44155, Note_on_c, 1, 30, 0
2, 44163, Note_on_c, 1, 31, 55
2, 44271, Note_on_c, 1, 31, 0
2, 44285, Note_on_c, 1, 33, 67
2, 44355, Note_on_c, 1, 33, 0
2, 44373, Note_on_c, 1, 31, 32
2, 44386, Note_on_c, 1, 31, 0
2, 44403, Note_on_c, 1, 34, 61
2, 44513, Note_on_c, 1, 34, 0
2, 44525, Note_on_c, 1, 38, 69
2, 44642, Note_on_c, 1, 38, 0
2, 44647, Note_on_c, 1, 38, 33
2, 44748, Note_on_c, 1, 38, 0
2, 44762, Note_on_c, 1, 36, 67
2, 44876, Note_on_c, 1, 36, 0
2, 44880, Note_on_c, 1, 34, 51
2, 44940, Note_on_c, 1, 34, 0
2, 44961, Note_on_c, 1, 34, 42
2, 44992, Note_on_c, 1, 34, 0
2, 44992, Note_on_c, 1, 33, 46
2, 45089, Note_on_c, 1, 33, 0
2, 45110, Note_on_c, 1, 31, 53
2, 45168, Note_on_c, 1, 31, 0
2, 45197, Note_on_c, 1, 31, 44
2, 45219, Note_on_c, 1, 31, 0
2, 45232, Note_on_c, 1, 38, 74
2, 45348, Note_on_c, 1, 38, 0
2, 45355, Note_on_c, 1, 36, 62
2, 45463, Note_on_c, 1, 36, 0
2, 45476, Note_on_c, 1, 34, 64
2, 45581, Note_on_c, 1, 34, 0
2, 45595, Note_on_c, 1, 33, 68
2, 45713, Note_on_c, 1, 31, 66
2, 45716, Note_on_c, 1, 33, 0
2, 45831, Note_on_c, 1, 31, 0
2, 45835, Note_on_c, 1, 34, 81
2, 45924, Note_on_c, 1, 34, 0
2, 45924, Note_on_c, 1, 31, 41
2, 45947, Note_on_c, 1, 31, 0
2, 45959, Note_on_c, 1, 32, 69
2, 46061, Note_on_c, 1, 32, 0
2, 46073, Note_on_c, 1, 33, 71
2, 46401, Note_on_c, 1, 38, 80
2, 46409, Note_on_c, 1, 33, 0
2, 46439, Note_on_c, 1, 38, 0
2, 46446, Note_on_c, 1, 36, 64
2, 46524, Note_on_c, 1, 33, 75
2, 46525, Note_on_c, 1, 36, 0
2, 46680, Note_on_c, 1, 33, 0
2, 46684, Note_on_c, 1, 45, 90
2, 46793, Note_on_c, 1, 45, 0
2, 46808, Note_on_c, 1, 43, 62
2, 46882, Note_on_c, 1, 43, 0
2, 46889, Note_on_c, 1, 40, 62
2, 46911, Note_on_c, 1, 40, 0
2, 46928, Note_on_c, 1, 38, 48
2, 47034, Note_on_c, 1, 38, 0
2, 47045, Note_on_c, 1, 36, 56
2, 47151, Note_on_c, 1, 36, 0
2, 47171, Note_on_c, 1, 33, 50
2, 47241, Note_on_c, 1, 33, 0
2, 47257, Note_on_c, 1, 31, 24
2, 47272, Note_on_c, 1, 31, 0
2, 47287, Note_on_c, 1, 33, 61
2, 47485, Note_on_c, 1, 33, 0
2, 47490, Note_on_c, 1, 31, 42
2, 47512, Note_on_c, 1, 31, 0
2, 47525, Note_on_c, 1, 33, 58
2, 47603, Note_on_c, 1, 33, 0
2, 47609, Note_on_c, 1, 38, 83
2, 47755, Note_on_c, 1, 38, 0
2, 47760, Note_on_c, 1, 33, 47
2, 47876, Note_on_c, 1, 33, 0
2, 47881, Note_on_c, 1, 31, 46
2, 47974, Note_on_c, 1, 31, 0
2, 47998, Note_on_c, 1, 33, 49
2, 48092, Note_on_c, 1, 33, 0
2, 48118, Note_on_c, 1, 33, 47
2, 48349, Note_on_c, 1, 33, 0
2, 48353, Note_on_c, 1, 38, 60
2, 48595, Note_on_c, 1, 38, 0
2, 48601, Note_on_c, 1, 33, 46
2, 49034, Note_on_c, 1, 33, 0
2, 49084, Note_on_c, 1, 33, 34
2, 49471, Note_on_c, 1, 33, 0
2, 49471, End_track
3, 0, Start_track
3, 0, MIDI_port, 0
3, 0, Title_t, "Piano"
3, 0, Program_c, 0, 0
3, 0, Control_c, 0, 7, 107
3, 0, Control_c, 0, 10, 64
3, 0, Note_on_c, 0, 77, 64
3, 2, Note_on_c, 0, 63, 46
3, 3, Note_on_c, 0, 70, 69
3, 6, Note_on_c, 0, 67, 50
3, 8, Note_on_c, 0, 74, 55
3, 17, Note_on_c, 0, 63, 0
3, 21, Note_on_c, 0, 67, 0
3, 30, Note_on_c, 0, 70, 0
3, 35, Note_on_c, 0, 74, 0
3, 39, Note_on_c, 0, 77, 0
3, 252, Note_on_c, 0, 79, 63
3, 255, Note_on_c, 0, 72, 59
3, 255, Note_on_c, 0, 64, 60
3, 256, Note_on_c, 0, 76, 54
3, 269, Note_on_c, 0, 72, 0
3, 275, Note_on_c, 0, 64, 0
3, 276, Note_on_c, 0, 76, 0
3, 292, Note_on_c, 0, 79, 0
3, 489, Note_on_c, 0, 81, 70
3, 489, Note_on_c, 0, 70, 63
3, 491, Note_on_c, 0, 74, 58
3, 498, Note_on_c, 0, 77, 46
3, 501, Note_on_c, 0, 65, 58
3, 504, Note_on_c, 0, 70, 0
3, 504, Note_on_c, 0, 81, 0
3, 507, Note_on_c, 0, 74, 0
3, 514, Note_on_c, 0, 77, 0
3, 516, Note_on_c, 0, 65, 0
3, 672, Note_on_c, 0, 79, 70
3, 674, Note_on_c, 0, 70, 68
3, 676, Note_on_c, 0, 74, 69
3, 689, Note_on_c, 0, 70, 0
3, 691, Note_on_c, 0, 74, 0
3, 692, Note_on_c, 0, 79, 0
3, 694, Note_on_c, 0, 64, 22
3, 709, Note_on_c, 0, 64, 0
3, 844, Note_on_c, 0, 77, 76
3, 846, Note_on_c, 0, 70, 81
3, 847, Note_on_c, 0, 67, 83
3, 849, Note_on_c, 0, 74, 69
3, 850, Note_on_c, 0, 62, 82
3, 1113, Note_on_c, 0, 74, 0
3, 1116, Note_on_c, 0, 70, 0
3, 1128, Note_on_c, 0, 77, 0
3, 1145, Note_on_c, 0, 67, 0
3, 1180, Note_on_c, 0, 62, 0
3, 1210, Note_on_c, 0, 79, 58
3, 1213, Note_on_c, 0, 69, 55
3, 1215, Note_on_c, 0, 72, 45
3, 1219, Note_on_c, 0, 64, 56
3, 1219, Note_on_c, 0, 76, 40
3, 1227, Note_on_c, 0, 69, 0
3, 1230, Note_on_c, 0, 72, 0
3, 1236, Note_on_c, 0, 64, 0
3, 1237, Note_on_c, 0, 76, 0
3, 1245, Note_on_c, 0, 79, 0
3, 1440, Note_on_c, 0, 65, 62
3, 1443, Note_on_c, 0, 70, 64
3, 1446, Note_on_c, 0, 81, 55
3, 1446, Note_on_c, 0, 74, 48
3, 1458, Note_on_c, 0, 77, 39
3, 1463, Note_on_c, 0, 81, 0
3, 1469, Note_on_c, 0, 74, 0
3, 1476, Note_on_c, 0, 70, 0
3, 1477, Note_on_c, 0, 65, 0
3, 1478, Note_on_c, 0, 77, 0
3, 1619, Note_on_c, 0, 79, 55
3, 1624, Note_on_c, 0, 69, 49
3, 1626, Note_on_c, 0, 76, 41
3, 1627, Note_on_c, 0, 72, 53
3, 1631, Note_on_c, 0, 64, 42
3, 1646, Note_on_c, 0, 76, 0
3, 1648, Note_on_c, 0, 69, 0
3, 1651, Note_on_c, 0, 72, 0
3, 1664, Note_on_c, 0, 79, 0
3, 1694, Note_on_c, 0, 64, 0
3, 1792, Note_on_c, 0, 77, 57
3, 1793, Note_on_c, 0, 70, 56
3, 1798, Note_on_c, 0, 74, 50
3, 1798, Note_on_c, 0, 67, 45
3, 1804, Note_on_c, 0, 62, 51
3, 1993, Note_on_c, 0, 67, 0
3, 2001, Note_on_c, 0, 77, 0
3, 2002, Note_on_c, 0, 62, 0
3, 2011, Note_on_c, 0, 70, 0
3, 2030, Note_on_c, 0, 70, 29
3, 2035, Note_on_c, 0, 77, 39
3, 2036, Note_on_c, 0, 62, 44
3, 2037, Note_on_c, 0, 67, 51
3, 2064, Note_on_c, 0, 67, 0
3, 2074, Note_on_c, 0, 77, 0
3, 2083, Note_on_c, 0, 70, 0
3, 2089, Note_on_c, 0, 74, 0
3, 2107, Note_on_c, 0, 62, 0
3, 2172, Note_on_c, 0, 69, 69
3, 2173, Note_on_c, 0, 79, 61
3, 2178, Note_on_c, 0, 76, 44
3, 2179, Note_on_c, 0, 64, 46
3, 2181, Note_on_c, 0, 72, 50
3, 2188, Note_on_c, 0, 69, 0
3, 2196, Note_on_c, 0, 72, 0
3, 2197, Note_on_c, 0, 76, 0
3, 2204, Note_on_c, 0, 79, 0
3, 2219, Note_on_c, 0, 64, 0
3, 2302, Note_on_c, 0, 63, 19
3, 2371, Note_on_c, 0, 63, 0
3, 2393, Note_on_c, 0, 74, 64
3, 2394, Note_on_c, 0, 70, 64
3, 2395, Note_on_c, 0, 65, 57
3, 2396, Note_on_c, 0, 81, 63
3, 2406, Note_on_c, 0, 77, 45
3, 2412, Note_on_c, 0, 81, 0
3, 2422, Note_on_c, 0, 77, 0
3, 2426, Note_on_c, 0, 74, 0
3, 2443, Note_on_c, 0, 70, 0
3, 2454, Note_on_c, 0, 65, 0
3, 2568, Note_on_c, 0, 70, 63
3, 2573, Note_on_c, 0, 77, 51
3, 2578, Note_on_c, 0, 74, 44
3, 2580, Note_on_c, 0, 62, 43
3, 2585, Note_on_c, 0, 67, 26
3, 2600, Note_on_c, 0, 74, 0
3, 2601, Note_on_c, 0, 67, 0
3, 2604, Note_on_c, 0, 70, 0
3, 2619, Note_on_c, 0, 77, 0
3, 2621, Note_on_c, 0, 62, 0
3, 2762, Note_on_c, 0, 69, 60
3, 2763, Note_on_c, 0, 79, 62
3, 2763, Note_on_c, 0, 64, 54
3, 2767, Note_on_c, 0, 76, 63
3, 2770, Note_on_c, 0, 72, 47
3, 2785, Note_on_c, 0, 72, 0
3, 2822, Note_on_c, 0, 72, 13
3, 3009, Control_c, 0, 64, 127
3, 3227, Note_on_c, 0, 64, 0
3, 3379, Note_on_c, 0, 69, 0
3, 3402, Note_on_c, 0, 72, 0
3, 3410, Note_on_c, 0, 76, 0
3, 3410, Note_on_c, 0, 79, 0
3, 3839, Note_on_c, 0, 70, 71
3, 3840, Note_on_c, 0, 77, 60
3, 3843, Note_on_c, 0, 74, 56
3, 3845, Note_on_c, 0, 62, 66
3, 3851, Control_c, 0, 64, 0
3, 3854, Note_on_c, 0, 70, 0
3, 3858, Note_on_c, 0, 74, 0
3, 3859, Note_on_c, 0, 77, 0
3, 3863, Note_on_c, 0, 62, 0
3, 4083, Note_on_c, 0, 79, 66
3, 4083, Note_on_c, 0, 64, 49
3, 4083, Note_on_c, 0, 72, 63
3, 4087, Note_on_c, 0, 76, 44
3, 4099, Note_on_c, 0, 72, 0
3, 4101, Note_on_c, 0, 64, 0
3, 4105, Note_on_c, 0, 76, 0
3, 4117, Note_on_c, 0, 79, 0
3, 4314, Note_on_c, 0, 81, 66
3, 4318, Note_on_c, 0, 77, 48
3, 4318, Note_on_c, 0, 74, 49
3, 4319, Note_on_c, 0, 65, 47
3, 4333, Note_on_c, 0, 74, 0
3, 4333, Note_on_c, 0, 81, 0
3, 4333, Note_on_c, 0, 77, 0
3, 4334, Note_on_c, 0, 65, 0
3, 4494, Note_on_c, 0, 79, 68
3, 4497, Note_on_c, 0, 64, 60
3, 4498, Note_on_c, 0, 72, 64
3, 4502, Note_on_c, 0, 76, 42
3, 4512, Note_on_c, 0, 72, 0
3, 4517, Note_on_c, 0, 64, 0
3, 4520, Note_on_c, 0, 76, 0
3, 4535, Note_on_c, 0, 79, 0
3, 4674, Note_on_c, 0, 70, 73
3, 4677, Note_on_c, 0, 77, 66
3, 4678, Note_on_c, 0, 65, 64
3, 4693, Note_on_c, 0, 65, 0
3, 4693, Note_on_c, 0, 74, 49
3, 4703, Note_on_c, 0, 70, 0
3, 4706, Note_on_c, 0, 74, 0
3, 4719, Note_on_c, 0, 77, 0
3, 4853, Control_c, 0, 64, 127
3, 4918, Note_on_c, 0, 77, 63
3, 4919, Note_on_c, 0, 70, 69
3, 4919, Note_on_c, 0, 74, 62
3, 4919, Note_on_c, 0, 67, 68
3, 4945, Note_on_c, 0, 62, 44
3, 4945, Note_on_c, 0, 62, 0
3, 4948, Note_on_c, 0, 67, 0
3, 4952, Note_on_c, 0, 70, 0
3, 4963, Note_on_c, 0, 74, 0
3, 4974, Note_on_c, 0, 77, 0
3, 5015, Control_c, 0, 64, 0
3, 5057, Note_on_c, 0, 76, 62
3, 5058, Note_on_c, 0, 69, 68
3, 5059, Note_on_c, 0, 79, 63
3, 5073, Note_on_c, 0, 69, 0
3, 5077, Note_on_c, 0, 76, 0
3, 5079, Note_on_c, 0, 79, 0
3, 5153, Control_c, 0, 64, 127
3, 5223, Control_c, 0, 64, 0
3, 5287, Note_on_c, 0, 74, 74
3, 5291, Note_on_c, 0, 81, 73
3, 5291, Note_on_c, 0, 70, 71
3, 5294, Note_on_c, 0, 65, 57
3, 5300, Note_on_c, 0, 77, 51
3, 5346, Control_c, 0, 64, 127
3, 5367, Note_on_c, 0, 81, 0
3, 5391, Note_on_c, 0, 74, 0
3, 5397, Note_on_c, 0, 77, 0
3, 5412, Note_on_c, 0, 70, 0
3, 5423, Note_on_c, 0, 65, 0
3, 5463, Note_on_c, 0, 79, 58
3, 5464, Note_on_c, 0, 69, 64
3, 5466, Control_c, 0, 64, 0
3, 5466, Note_on_c, 0, 76, 60
3, 5472, Note_on_c, 0, 64, 49
3, 5480, Note_on_c, 0, 69, 0
3, 5490, Note_on_c, 0, 76, 0
3, 5500, Note_on_c, 0, 79, 0
3, 5500, Note_on_c, 0, 64, 0
3, 5637, Note_on_c, 0, 70, 84
3, 5639, Note_on_c, 0, 77, 72
3, 5639, Note_on_c, 0, 67, 84
3, 5639, Note_on_c, 0, 74, 71
3, 5655, Note_on_c, 0, 62, 82
3, 5655, Note_on_c, 0, 76, 32
3, 5676, Note_on_c, 0, 76, 0
3, 5704, Control_c, 0, 64, 127
3, 5860, Note_on_c, 0, 67, 0
3, 5869, Note_on_c, 0, 70, 0
3, 5870, Note_on_c, 0, 74, 0
3, 5887, Note_on_c, 0, 62, 0
3, 5894, Note_on_c, 0, 77, 0
3, 6004, Note_on_c, 0, 79, 77
3, 6005, Note_on_c, 0, 69, 79
3, 6008, Control_c, 0, 64, 0
3, 6008, Note_on_c, 0, 76, 59
3, 6012, Note_on_c, 0, 74, 60
3, 6013, Note_on_c, 0, 72, 57
3, 6027, Note_on_c, 0, 74, 0
3, 6028, Note_on_c, 0, 72, 0
3, 6037, Note_on_c, 0, 69, 0
3, 6047, Note_on_c, 0, 76, 0
3, 6062, Note_on_c, 0, 79, 0
3, 6083, Control_c, 0, 64, 127
3, 6225, Control_c, 0, 64, 0
3, 6244, Note_on_c, 0, 74, 81
3, 6246, Note_on_c, 0, 70, 85
3, 6247, Note_on_c, 0, 80, 28
3, 6249, Note_on_c, 0, 81, 76
3, 6251, Note_on_c, 0, 77, 62
3, 6257, Note_on_c, 0, 79, 49
3, 6288, Note_on_c, 0, 81, 0
3, 6291, Note_on_c, 0, 79, 0
3, 6304, Control_c, 0, 64, 127
3, 6306, Note_on_c, 0, 80, 0
3, 6314, Note_on_c, 0, 74, 0
3, 6315, Note_on_c, 0, 77, 0
3, 6339, Note_on_c, 0, 70, 0
3, 6418, Control_c, 0, 64, 0
3, 6432, Note_on_c, 0, 77, 59
3, 6434, Note_on_c, 0, 74, 57
3, 6437, Note_on_c, 0, 67, 63
3, 6440, Note_on_c, 0, 70, 31
3, 6452, Note_on_c, 0, 67, 0
3, 6463, Note_on_c, 0, 70, 0
3, 6474, Note_on_c, 0, 74, 0
3, 6486, Note_on_c, 0, 77, 0
3, 6498, Control_c, 0, 64, 127
3, 6591, Control_c, 0, 64, 0
3, 6617, Note_on_c, 0, 79, 80
3, 6618, Note_on_c, 0, 69, 89
3, 6619, Note_on_c, 0, 76, 75
3, 6622, Note_on_c, 0, 72, 73
3, 6723, Control_c, 0, 64, 127
3, 7141, Note_on_c, 0, 76, 0
3, 7147, Note_on_c, 0, 79, 0
3, 7148, Note_on_c, 0, 72, 0
3, 7174, Note_on_c, 0, 69, 0
3, 7681, Note_on_c, 0, 84, 80
3, 7682, Note_on_c, 0, 76, 72
3, 7689, Note_on_c, 0, 81, 48
3, 7690, Note_on_c, 0, 45, 60
3, 7698, Control_c, 0, 64, 0
3, 7764, Control_c, 0, 64, 127
3, 7824, Note_on_c, 0, 81, 0
3, 7853, Note_on_c, 0, 76, 0
3, 7861, Note_on_c, 0, 84, 0
3, 7933, Note_on_c, 0, 83, 76
3, 7939, Note_on_c, 0, 74, 74
3, 7963, Control_c, 0, 64, 0
3, 7978, Note_on_c, 0, 74, 0
3, 8011, Control_c, 0, 64, 127
3, 8015, Note_on_c, 0, 83, 0
3, 8057, Note_on_c, 0, 84, 82
3, 8113, Note_on_c, 0, 84, 0
3, 8180, Note_on_c, 0, 88, 85
3, 8183, Control_c, 0, 64, 0
3, 8184, Note_on_c, 0, 79, 77
3, 8184, Note_on_c, 0, 84, 77
3, 8191, Note_on_c, 0, 57, 51
3, 8250, Control_c, 0, 64, 127
3, 8308, Note_on_c, 0, 84, 0
3, 8308, Note_on_c, 0, 88, 0
3, 8317, Note_on_c, 0, 79, 0
3, 8322, Note_on_c, 0, 57, 0
3, 8353, Note_on_c, 0, 86, 74
3, 8356, Note_on_c, 0, 83, 82
3, 8359, Note_on_c, 0, 57, 51
3, 8424, Note_on_c, 0, 45, 0
3, 8429, Note_on_c, 0, 86, 0
3, 8441, Note_on_c, 0, 83, 0
3, 8529, Note_on_c, 0, 45, 90
3, 8562, Control_c, 0, 64, 0
3, 8624, Control_c, 0, 64, 127
3, 8770, Note_on_c, 0, 52, 41
3, 8817, Note_on_c, 0, 52, 0
3, 8852, Note_on_c, 0, 62, 64
3, 8852, Note_on_c, 0, 71, 61
3, 8855, Note_on_c, 0, 67, 58
3, 8866, Note_on_c, 0, 62, 0
3, 8870, Note_on_c, 0, 67, 0
3, 8893, Control_c, 0, 64, 0
3, 8894, Note_on_c, 0, 71, 0
3, 9021, Note_on_c, 0, 71, 22
3, 9036, Note_on_c, 0, 71, 0
3, 9094, Note_on_c, 0, 57, 0
3, 9134, Note_on_c, 0, 57, 37
3, 9134, Note_on_c, 0, 74, 90
3, 9136, Note_on_c, 0, 71, 85
3, 9137, Note_on_c, 0, 65, 87
3, 9232, Control_c, 0, 64, 127
3, 9268, Note_on_c, 0, 65, 0
3, 9274, Note_on_c, 0, 74, 0
3, 9281, Note_on_c, 0, 71, 0
3, 9283, Note_on_c, 0, 57, 0
3, 9306, Note_on_c, 0, 72, 48
3, 9310, Note_on_c, 0, 69, 68
3, 9313, Note_on_c, 0, 64, 62
3, 9331, Note_on_c, 0, 57, 30
3, 9392, Note_on_c, 0, 45, 0
3, 9437, Note_on_c, 0, 64, 0
3, 9441, Note_on_c, 0, 69, 0
3, 9446, Note_on_c, 0, 72, 0
3, 9485, Note_on_c, 0, 45, 81
3, 9485, Note_on_c, 0, 71, 80
3, 9487, Note_on_c, 0, 67, 80
3, 9489, Note_on_c, 0, 62, 81
3, 9585, Control_c, 0, 64, 0
3, 9585, Control_c, 0, 64, 127
3, 9744, Note_on_c, 0, 62, 0
3, 9759, Note_on_c, 0, 57, 0
3, 9768, Note_on_c, 0, 52, 20
3, 9782, Note_on_c, 0, 67, 0
3, 9782, Note_on_c, 0, 71, 0
3, 9797, Note_on_c, 0, 52, 0
3, 9820, Note_on_c, 0, 72, 74
3, 9822, Note_on_c, 0, 57, 60
3, 9823, Note_on_c, 0, 64, 72
3, 9825, Control_c, 0, 64, 0
3, 9825, Note_on_c, 0, 69, 71
3, 9885, Control_c, 0, 64, 127
3, 9941, Note_on_c, 0, 64, 0
3, 9949, Note_on_c, 0, 71, 1
3, 9964, Note_on_c, 0, 72, 0
3, 9967, Note_on_c, 0, 69, 0
3, 9973, Note_on_c, 0, 71, 0
3, 10016, Note_on_c, 0, 57, 0
3, 10026, Note_on_c, 0, 52, 32
3, 10048, Note_on_c, 0, 52, 0
3, 10078, Note_on_c, 0, 76, 88
3, 10079, Note_on_c, 0, 72, 90
3, 10079, Note_on_c, 0, 57, 60
3, 10122, Control_c, 0, 64, 0
3, 10122, Note_on_c, 0, 67, 87
3, 10150, Control_c, 0, 64, 127
3, 10221, Note_on_c, 0, 72, 0
3, 10222, Note_on_c, 0, 76, 0
3, 10237, Note_on_c, 0, 67, 0
3, 10281, Note_on_c, 0, 57, 0
3, 10285, Note_on_c, 0, 52, 33
3, 10315, Note_on_c, 0, 52, 0
3, 10332, Control_c, 0, 64, 0
3, 10336, Note_on_c, 0, 71, 71
3, 10338, Note_on_c, 0, 57, 47
3, 10340, Note_on_c, 0, 62, 66
3, 10345, Note_on_c, 0, 67, 69
3, 10398, Control_c, 0, 64, 127
3, 10452, Note_on_c, 0, 62, 0
3, 10478, Note_on_c, 0, 57, 0
3, 10489, Note_on_c, 0, 71, 0
3, 10492, Note_on_c, 0, 67, 0
3, 10516, Note_on_c, 0, 69, 79
3, 10518, Note_on_c, 0, 72, 74
3, 10518, Note_on_c, 0, 64, 74
3, 10527, Note_on_c, 0, 57, 51
3, 10534, Control_c, 0, 64, 0
3, 10626, Control_c, 0, 64, 127
3, 10873, Note_on_c, 0, 57, 0
3, 10932, Note_on_c, 0, 57, 71
3, 11110, Note_on_c, 0, 57, 0
3, 11139, Note_on_c, 0, 57, 77
3, 11271, Note_on_c, 0, 57, 0
3, 11312, Note_on_c, 0, 57, 80
3, 11358, Control_c, 0, 64, 0
3, 11372, Control_c, 0, 64, 127
3, 11456, Note_on_c, 0, 64, 0
3, 11472, Note_on_c, 0, 52, 47
3, 11475, Note_on_c, 0, 57, 0
3, 11482, Note_on_c, 0, 72, 0
3, 11485, Note_on_c, 0, 69, 0
3, 11490, Note_on_c, 0, 52, 0
3, 11523, Note_on_c, 0, 71, 83
3, 11527, Note_on_c, 0, 57, 67
3, 11527, Note_on_c, 0, 62, 83
3, 11528, Note_on_c, 0, 67, 83
3, 11535, Control_c, 0, 64, 0
3, 11601, Control_c, 0, 64, 127
3, 11671, Note_on_c, 0, 62, 0
3, 11707, Note_on_c, 0, 57, 0
3, 11710, Note_on_c, 0, 67, 0
3, 11713, Note_on_c, 0, 71, 0
3, 11727, Note_on_c, 0, 64, 82
3, 11729, Note_on_c, 0, 69, 82
3, 11731, Note_on_c, 0, 72, 73
3, 11732, Note_on_c, 0, 57, 56
3, 11740, Note_on_c, 0, 71, 49
3, 11740, Note_on_c, 0, 67, 40
3, 11755, Control_c, 0, 64, 0
3, 11756, Note_on_c, 0, 67, 0
3, 11809, Control_c, 0, 64, 127
3, 11921, Note_on_c, 0, 64, 0
3, 11944, Note_on_c, 0, 69, 0
3, 11945, Note_on_c, 0, 57, 0
3, 11947, Note_on_c, 0, 72, 0
3, 11953, Note_on_c, 0, 71, 0
3, 12019, Note_on_c, 0, 57, 66
3, 12019, Note_on_c, 0, 72, 83
3, 12020, Note_on_c, 0, 76, 81
3, 12022, Note_on_c, 0, 67, 77
3, 12029, Control_c, 0, 64, 0
3, 12095, Control_c, 0, 64, 127
3, 12144, Note_on_c, 0, 76, 0
3, 12157, Note_on_c, 0, 72, 0
3, 12160, Note_on_c, 0, 67, 0
3, 12166, Note_on_c, 0, 57, 0
3, 12202, Note_on_c, 0, 74, 66
3, 12204, Note_on_c, 0, 71, 74
3, 12206, Note_on_c, 0, 65, 71
3, 12210, Control_c, 0, 64, 0
3, 12212, Note_on_c, 0, 57, 42
3, 12250, Control_c, 0, 64, 127
3, 12315, Note_on_c, 0, 57, 0
3, 12328, Note_on_c, 0, 45, 0
3, 12380, Note_on_c, 0, 57, 95
3, 12382, Note_on_c, 0, 45, 91
3, 12401, Note_on_c, 0, 74, 0
3, 12403, Note_on_c, 0, 65, 0
3, 12409, Note_on_c, 0, 71, 0
3, 12413, Control_c, 0, 64, 0
3, 12484, Control_c, 0, 64, 127
3, 12546, Note_on_c, 0, 62, 73
3, 12551, Note_on_c, 0, 71, 64
3, 12553, Note_on_c, 0, 67, 66
3, 12665, Note_on_c, 0, 62, 0
3, 12692, Note_on_c, 0, 67, 0
3, 12693, Note_on_c, 0, 71, 0
3, 12701, Note_on_c, 0, 52, 39
3, 12721, Note_on_c, 0, 52, 0
3, 12729, Note_on_c, 0, 69, 81
3, 12730, Note_on_c, 0, 72, 78
3, 12731, Note_on_c, 0, 64, 79
3, 12735, Control_c, 0, 64, 0
3, 12796, Control_c, 0, 64, 127
3, 12850, Note_on_c, 0, 64, 0
3, 12863, Note_on_c, 0, 72, 0
3, 12868, Note_on_c, 0, 69, 0
3, 12874, Note_on_c, 0, 57, 0
3, 12916, Note_on_c, 0, 74, 81
3, 12917, Note_on_c, 0, 71, 78
3, 12920, Note_on_c, 0, 57, 44
3, 12921, Note_on_c, 0, 65, 82
3, 12952, Control_c, 0, 64, 0
3, 12970, Control_c, 0, 64, 127
3, 13041, Note_on_c, 0, 74, 0
3, 13056, Note_on_c, 0, 65, 0
3, 13065, Note_on_c, 0, 57, 0
3, 13070, Note_on_c, 0, 71, 0
3, 13108, Note_on_c, 0, 72, 75
3, 13109, Note_on_c, 0, 64, 79
3, 13111, Note_on_c, 0, 69, 79
3, 13111, Note_on_c, 0, 57, 52
3, 13112, Control_c, 0, 64, 0
3, 13177, Control_c, 0, 64, 127
3, 13214, Note_on_c, 0, 57, 0
3, 13325, Note_on_c, 0, 57, 92
3, 13387, Note_on_c, 0, 64, 0
3, 13411, Note_on_c, 0, 72, 0
3, 13429, Note_on_c, 0, 69, 0
3, 13458, Note_on_c, 0, 67, 56
3, 13459, Note_on_c, 0, 71, 63
3, 13460, Note_on_c, 0, 62, 64
3, 13473, Control_c, 0, 64, 0
3, 13552, Control_c, 0, 64, 127
3, 13616, Note_on_c, 0, 62, 0
3, 13648, Note_on_c, 0, 57, 0
3, 13657, Note_on_c, 0, 71, 0
3, 13664, Note_on_c, 0, 67, 0
3, 13686, Note_on_c, 0, 57, 49
3, 13697, Note_on_c, 0, 69, 74
3, 13698, Note_on_c, 0, 64, 70
3, 13700, Note_on_c, 0, 72, 69
3, 13712, Note_on_c, 0, 67, 24
3, 13724, Control_c, 0, 64, 0
3, 13728, Note_on_c, 0, 67, 0
3, 13777, Control_c, 0, 64, 127
3, 13785, Note_on_c, 0, 64, 0
3, 13815, Note_on_c, 0, 72, 0
3, 13822, Note_on_c, 0, 69, 0
3, 13871, Note_on_c, 0, 57, 0
3, 13875, Note_on_c, 0, 52, 34
3, 13896, Note_on_c, 0, 52, 0
3, 13917, Note_on_c, 0, 57, 42
3, 13924, Note_on_c, 0, 76, 79
3, 13925, Note_on_c, 0, 72, 80
3, 13927, Control_c, 0, 64, 0
3, 13928, Note_on_c, 0, 67, 73
3, 13993, Control_c, 0, 64, 127
3, 14033, Note_on_c, 0, 76, 0
3, 14051, Note_on_c, 0, 72, 0
3, 14051, Note_on_c, 0, 67, 0
3, 14090, Note_on_c, 0, 57, 0
3, 14129, Note_on_c, 0, 67, 68
3, 14129, Note_on_c, 0, 71, 70
3, 14131, Note_on_c, 0, 57, 38
3, 14132, Note_on_c, 0, 62, 71
3, 14139, Control_c, 0, 64, 0
3, 14210, Control_c, 0, 64, 127
3, 14255, Note_on_c, 0, 62, 0
3, 14263, Note_on_c, 0, 57, 0
3, 14271, Note_on_c, 0, 67, 0
3, 14272, Note_on_c, 0, 71, 0
3, 14305, Note_on_c, 0, 57, 55
3, 14307, Note_on_c, 0, 69, 87
3, 14307, Note_on_c, 0, 72, 80
3, 14309, Note_on_c, 0, 64, 82
3, 14315, Control_c, 0, 64, 0
3, 14408, Control_c, 0, 64, 127
3, 14561, Note_on_c, 0, 57, 0
3, 14798, Note_on_c, 0, 57, 63
3, 14955, Note_on_c, 0, 57, 0
3, 15003, Note_on_c, 0, 57, 51
3, 15035, Note_on_c, 0, 72, 0
3, 15046, Note_on_c, 0, 69, 0
3, 15057, Note_on_c, 0, 64, 0
3, 15184, Note_on_c, 0, 45, 0
3, 15230, Note_on_c, 0, 45, 38
3, 15275, Note_on_c, 0, 57, 0
3, 15295, Note_on_c, 0, 45, 0
3, 15356, Control_c, 0, 64, 0
3, 15363, Note_on_c, 0, 58, 60
3, 15369, Note_on_c, 0, 65, 56
3, 15372, Note_on_c, 0, 62, 41
3, 15382, Note_on_c, 0, 58, 0
3, 15386, Note_on_c, 0, 65, 0
3, 15388, Note_on_c, 0, 62, 0
3, 15597, Note_on_c, 0, 67, 64
3, 15606, Note_on_c, 0, 64, 47
3, 15609, Note_on_c, 0, 60, 47
3, 15624, Note_on_c, 0, 60, 0
3, 15624, Note_on_c, 0, 64, 0
3, 15644, Note_on_c, 0, 67, 0
3, 15844, Note_on_c, 0, 65, 55
3, 15845, Note_on_c, 0, 62, 58
3, 15845, Note_on_c, 0, 69, 53
3, 15959, Note_on_c, 0, 62, 0
3, 15988, Note_on_c, 0, 65, 0
3, 16001, Note_on_c, 0, 69, 0
3, 16030, Note_on_c, 0, 67, 49
3, 16032, Note_on_c, 0, 64, 52
3, 16035, Note_on_c, 0, 60, 57
3, 16198, Note_on_c, 0, 60, 0
3, 16205, Note_on_c, 0, 64, 0
3, 16210, Note_on_c, 0, 38, 76
3, 16211, Note_on_c, 0, 50, 70
3, 16213, Note_on_c, 0, 67, 0
3, 16447, Note_on_c, 0, 43, 19
3, 16470, Note_on_c, 0, 43, 0
3, 16569, Note_on_c, 0, 65, 46
3, 16572, Note_on_c, 0, 43, 24
3, 16574, Note_on_c, 0, 58, 38
3, 16575, Note_on_c, 0, 62, 32
3, 16589, Note_on_c, 0, 58, 0
3, 16592, Note_on_c, 0, 62, 0
3, 16595, Note_on_c, 0, 65, 0
3, 16597, Note_on_c, 0, 43, 0
3, 16663, Note_on_c, 0, 38, 0
3, 16697, Note_on_c, 0, 67, 53
3, 16698, Note_on_c, 0, 60, 60
3, 16704, Note_on_c, 0, 64, 39
3, 16716, Note_on_c, 0, 60, 0
3, 16720, Note_on_c, 0, 67, 0
3, 16721, Note_on_c, 0, 64, 0
3, 16830, Note_on_c, 0, 58, 52
3, 16831, Note_on_c, 0, 62, 57
3, 16835, Note_on_c, 0, 69, 61
3, 16836, Note_on_c, 0, 65, 44
3, 16883, Note_on_c, 0, 50, 0
3, 17006, Note_on_c, 0, 57, 64
3, 17120, Note_on_c, 0, 58, 0
3, 17120, Note_on_c, 0, 62, 0
3, 17133, Note_on_c, 0, 69, 0
3, 17146, Note_on_c, 0, 65, 0
3, 17174, Note_on_c, 0, 62, 39
3, 17175, Note_on_c, 0, 58, 38
3, 17176, Note_on_c, 0, 67, 42
3, 17208, Note_on_c, 0, 62, 0
3, 17214, Note_on_c, 0, 58, 0
3, 17285, Note_on_c, 0, 57, 0
3, 17287, Note_on_c, 0, 58, 14
3, 17289, Control_c, 0, 64, 127
3, 17293, Note_on_c, 0, 55, 58
3, 17301, Note_on_c, 0, 62, 17
3, 17343, Note_on_c, 0, 62, 0
3, 17345, Note_on_c, 0, 58, 0
3, 17443, Control_c, 0, 64, 0
3, 17471, Note_on_c, 0, 67, 0
3, 17516, Note_on_c, 0, 58, 37
3, 17518, Note_on_c, 0, 65, 55
3, 17532, Note_on_c, 0, 62, 25
3, 17544, Control_c, 0, 64, 0
3, 17548, Note_on_c, 0, 62, 0
3, 17551, Note_on_c, 0, 58, 0
3, 17571, Note_on_c, 0, 65, 0
3, 17645, Note_on_c, 0, 67, 51
3, 17654, Note_on_c, 0, 58, 40
3, 17683, Note_on_c, 0, 58, 0
3, 17732, Note_on_c, 0, 67, 0
3, 17773, Note_on_c, 0, 55, 0
3, 17775, Note_on_c, 0, 62, 45
3, 17777, Note_on_c, 0, 57, 41
3, 17778, Note_on_c, 0, 58, 37
3, 17782, Note_on_c, 0, 69, 48
3, 17783, Note_on_c, 0, 65, 47
3, 17862, Control_c, 0, 64, 127
3, 17927, Note_on_c, 0, 65, 0
3, 17931, Note_on_c, 0, 58, 0
3, 17937, Note_on_c, 0, 62, 0
3, 17944, Note_on_c, 0, 69, 0
3, 18006, Note_on_c, 0, 58, 47
3, 18006, Note_on_c, 0, 65, 70
3, 18012, Control_c, 0, 64, 0
3, 18015, Note_on_c, 0, 57, 0
3, 18018, Note_on_c, 0, 62, 27
3, 18046, Note_on_c, 0, 52, 25
3, 18109, Control_c, 0, 64, 127
3, 18126, Note_on_c, 0, 52, 0
3, 18142, Note_on_c, 0, 58, 0
3, 18143, Note_on_c, 0, 62, 0
3, 18161, Note_on_c, 0, 65, 0
3, 18163, Control_c, 0, 64, 0
3, 18186, Note_on_c, 0, 58, 37
3, 18189, Note_on_c, 0, 67, 47
3, 18190, Note_on_c, 0, 62, 51
3, 18198, Note_on_c, 0, 65, 51
3, 18237, Control_c, 0, 64, 127
3, 18273, Control_c, 0, 64, 0
3, 18351, Note_on_c, 0, 48, 66
3, 18355, Note_on_c, 0, 47, 60
3, 18370, Note_on_c, 0, 47, 0
3, 18520, Note_on_c, 0, 48, 0
3, 18562, Note_on_c, 0, 48, 53
3, 18592, Note_on_c, 0, 48, 0
3, 18722, Note_on_c, 0, 47, 54
3, 18725, Note_on_c, 0, 48, 47
3, 18736, Note_on_c, 0, 47, 0
3, 18848, Note_on_c, 0, 48, 0
3, 18908, Note_on_c, 0, 48, 58
3, 18965, Note_on_c, 0, 48, 0
3, 19058, Note_on_c, 0, 47, 66
3, 19067, Note_on_c, 0, 48, 57
3, 19073, Note_on_c, 0, 47, 0
3, 19081, Note_on_c, 0, 58, 0
3, 19083, Note_on_c, 0, 62, 0
3, 19091, Note_on_c, 0, 67, 0
3, 19095, Note_on_c, 0, 65, 0
3, 19385, Note_on_c, 0, 48, 0
3, 19441, Note_on_c, 0, 62, 27
3, 19441, Note_on_c, 0, 57, 32
3, 19448, Note_on_c, 0, 58, 25
3, 19455, Note_on_c, 0, 62, 0
3, 19457, Note_on_c, 0, 57, 0
3, 19458, Note_on_c, 0, 58, 0
3, 19563, Note_on_c, 0, 81, 94
3, 19642, Note_on_c, 0, 81, 0
3, 19682, Note_on_c, 0, 78, 62
3, 19745, Note_on_c, 0, 78, 0
3, 19763, Note_on_c, 0, 79, 58
3, 19798, Note_on_c, 0, 79, 0
3, 19814, Note_on_c, 0, 74, 43
3, 19893, Note_on_c, 0, 74, 0
3, 19934, Note_on_c, 0, 77, 64
3, 20008, Note_on_c, 0, 77, 0
3, 20027, Note_on_c, 0, 72, 27
3, 20041, Note_on_c, 0, 72, 0
3, 20056, Note_on_c, 0, 74, 53
3, 20410, Note_on_c, 0, 62, 42
3, 20412, Note_on_c, 0, 57, 35
3, 20413, Note_on_c, 0, 58, 38
3, 20425, Note_on_c, 0, 62, 0
3, 20426, Note_on_c, 0, 57, 0
3, 20436, Note_on_c, 0, 58, 0
3, 20532, Note_on_c, 0, 64, 36
3, 20536, Note_on_c, 0, 60, 45
3, 20546, Note_on_c, 0, 60, 0
3, 20548, Note_on_c, 0, 64, 0
3, 20653, Note_on_c, 0, 62, 35
3, 20656, Note_on_c, 0, 57, 28
3, 20656, Note_on_c, 0, 65, 37
3, 20812, Note_on_c, 0, 74, 0
3, 20861, Note_on_c, 0, 76, 80
3, 20897, Note_on_c, 0, 76, 0
3, 20922, Note_on_c, 0, 72, 33
3, 20964, Note_on_c, 0, 65, 0
3, 20970, Note_on_c, 0, 72, 0
3, 20972, Note_on_c, 0, 62, 0
3, 20980, Note_on_c, 0, 74, 63
3, 21008, Note_on_c, 0, 57, 0
3, 21029, Note_on_c, 0, 74, 0
3, 21035, Note_on_c, 0, 72, 46
3, 21088, Note_on_c, 0, 72, 0
3, 21105, Note_on_c, 0, 69, 45
3, 21129, Note_on_c, 0, 69, 0
3, 21159, Note_on_c, 0, 70, 37
3, 21200, Note_on_c, 0, 70, 0
3, 21222, Note_on_c, 0, 72, 64
3, 21256, Note_on_c, 0, 72, 0
3, 21274, Note_on_c, 0, 70, 42
3, 21360, Note_on_c, 0, 70, 0
3, 21388, Note_on_c, 0, 66, 33
3, 21448, Note_on_c, 0, 66, 0
3, 21455, Note_on_c, 0, 69, 61
3, 21493, Note_on_c, 0, 69, 0
3, 21507, Note_on_c, 0, 67, 39
3, 21557, Note_on_c, 0, 67, 0
3, 21572, Note_on_c, 0, 62, 58
3, 21597, Note_on_c, 0, 62, 0
3, 21625, Note_on_c, 0, 60, 36
3, 21678, Note_on_c, 0, 60, 0
3, 21689, Note_on_c, 0, 58, 49
3, 21708, Note_on_c, 0, 58, 0
3, 21742, Note_on_c, 0, 57, 24
3, 21838, Note_on_c, 0, 57, 0
3, 21858, Note_on_c, 0, 60, 66
3, 21921, Note_on_c, 0, 60, 0
3, 21932, Note_on_c, 0, 57, 37
3, 21957, Note_on_c, 0, 57, 0
3, 21972, Note_on_c, 0, 58, 51
3, 22031, Note_on_c, 0, 58, 0
3, 22057, Note_on_c, 0, 43, 33
3, 22080, Note_on_c, 0, 43, 0
3, 22096, Note_on_c, 0, 57, 60
3, 22168, Note_on_c, 0, 57, 0
3, 22179, Note_on_c, 0, 54, 29
3, 22188, Note_on_c, 0, 54, 0
3, 22217, Note_on_c, 0, 55, 51
3, 22270, Note_on_c, 0, 55, 0
3, 22298, Note_on_c, 0, 50, 45
3, 22311, Note_on_c, 0, 50, 0
3, 22678, Note_on_c, 0, 58, 37
3, 22681, Note_on_c, 0, 62, 32
3, 22702, Note_on_c, 0, 62, 0
3, 22713, Note_on_c, 0, 58, 0
3, 22805, Note_on_c, 0, 64, 44
3, 22807, Note_on_c, 0, 55, 43
3, 22808, Note_on_c, 0, 60, 57
3, 22975, Note_on_c, 0, 60, 0
3, 22992, Note_on_c, 0, 64, 0
3, 22995, Note_on_c, 0, 55, 0
3, 23044, Note_on_c, 0, 58, 40
3, 23045, Note_on_c, 0, 62, 32
3, 23050, Note_on_c, 0, 53, 32
3, 23066, Note_on_c, 0, 53, 0
3, 23068, Note_on_c, 0, 62, 0
3, 23071, Note_on_c, 0, 58, 0
3, 23177, Note_on_c, 0, 69, 85
3, 23198, Note_on_c, 0, 69, 0
3, 23262, Note_on_c, 0, 72, 88
3, 23295, Note_on_c, 0, 72, 0
3, 23333, Note_on_c, 0, 70, 56
3, 23379, Note_on_c, 0, 70, 0
3, 23411, Note_on_c, 0, 66, 43
3, 23456, Note_on_c, 0, 66, 0
3, 23482, Note_on_c, 0, 69, 67
3, 23516, Note_on_c, 0, 69, 0
3, 23546, Note_on_c, 0, 67, 41
3, 23618, Note_on_c, 0, 67, 0
3, 23654, Note_on_c, 0, 62, 33
3, 23701, Note_on_c, 0, 62, 0
3, 23731, Note_on_c, 0, 65, 52
3, 23758, Note_on_c, 0, 65, 0
3, 23800, Note_on_c, 0, 64, 43
3, 23878, Note_on_c, 0, 64, 0
3, 23901, Note_on_c, 0, 61, 23
3, 23951, Note_on_c, 0, 61, 0
3, 23973, Note_on_c, 0, 64, 42
3, 24007, Note_on_c, 0, 64, 0
3, 24031, Note_on_c, 0, 62, 34
3, 24230, Note_on_c, 0, 62, 0
3, 24256, Note_on_c, 0, 57, 35
3, 24310, Note_on_c, 0, 57, 0
3, 24321, Note_on_c, 0, 60, 75
3, 24357, Note_on_c, 0, 60, 0
3, 24376, Note_on_c, 0, 58, 34
3, 24433, Note_on_c, 0, 58, 0
3, 24437, Note_on_c, 0, 57, 53
3, 24479, Note_on_c, 0, 57, 0
3, 24501, Note_on_c, 0, 54, 29
3, 24543, Note_on_c, 0, 54, 0
3, 24556, Note_on_c, 0, 57, 58
3, 24595, Note_on_c, 0, 57, 0
3, 24628, Note_on_c, 0, 54, 25
3, 24661, Note_on_c, 0, 54, 0
3, 24677, Note_on_c, 0, 55, 57
3, 24726, Note_on_c, 0, 55, 0
3, 24738, Note_on_c, 0, 57, 39
3, 24788, Note_on_c, 0, 57, 0
3, 24801, Note_on_c, 0, 58, 52
3, 24829, Note_on_c, 0, 58, 0
3, 24859, Note_on_c, 0, 62, 44
3, 24919, Note_on_c, 0, 66, 56
3, 24920, Note_on_c, 0, 62, 0
3, 24952, Note_on_c, 0, 66, 0
3, 24967, Note_on_c, 0, 69, 70
3, 25023, Note_on_c, 0, 69, 0
3, 25036, Note_on_c, 0, 66, 35
3, 25068, Note_on_c, 0, 66, 0
3, 25090, Note_on_c, 0, 67, 32
3, 25162, Note_on_c, 0, 67, 0
3, 25164, Note_on_c, 0, 69, 57
3, 25210, Note_on_c, 0, 69, 0
3, 25229, Note_on_c, 0, 70, 37
3, 25274, Note_on_c, 0, 70, 0
3, 25291, Note_on_c, 0, 74, 58
3, 25332, Note_on_c, 0, 74, 0
3, 25341, Note_on_c, 0, 78, 43
3, 25388, Note_on_c, 0, 78, 0
3, 25409, Note_on_c, 0, 81, 62
3, 25434, Note_on_c, 0, 81, 0
3, 25455, Note_on_c, 0, 84, 81
3, 25513, Note_on_c, 0, 84, 0
3, 25577, Note_on_c, 0, 84, 81
3, 25642, Note_on_c, 0, 84, 0
3, 25652, Note_on_c, 0, 81, 52
3, 25689, Note_on_c, 0, 81, 0
3, 25711, Note_on_c, 0, 78, 32
3, 25789, Note_on_c, 0, 74, 38
3, 26172, Note_on_c, 0, 57, 29
3, 26175, Note_on_c, 0, 58, 23
3, 26191, Note_on_c, 0, 58, 0
3, 26192, Note_on_c, 0, 57, 0
3, 26411, Note_on_c, 0, 57, 29
3, 26417, Note_on_c, 0, 62, 24
3, 26421, Note_on_c, 0, 58, 33
3, 26539, Control_c, 0, 64, 127
3, 26579, Note_on_c, 0, 74, 0
3, 26603, Note_on_c, 0, 78, 0
3, 26639, Note_on_c, 0, 62, 0
3, 26659, Note_on_c, 0, 62, 35
3, 26663, Note_on_c, 0, 83, 87
3, 26713, Note_on_c, 0, 83, 0
3, 26746, Note_on_c, 0, 84, 64
3, 26770, Note_on_c, 0, 57, 0
3, 26772, Note_on_c, 0, 84, 0
3, 26784, Note_on_c, 0, 58, 0
3, 26788, Note_on_c, 0, 86, 84
3, 26793, Note_on_c, 0, 62, 0
3, 26800, Note_on_c, 0, 84, 29
3, 26810, Note_on_c, 0, 84, 0
3, 26846, Note_on_c, 0, 86, 0
3, 26866, Note_on_c, 0, 64, 57
3, 26868, Note_on_c, 0, 83, 88
3, 26872, Note_on_c, 0, 59, 54
3, 26873, Note_on_c, 0, 60, 58
3, 26874, Control_c, 0, 64, 0
3, 26875, Note_on_c, 0, 55, 43
3, 26930, Control_c, 0, 64, 127
3, 27137, Note_on_c, 0, 83, 0
3, 27150, Note_on_c, 0, 79, 62
3, 27272, Note_on_c, 0, 59, 0
3, 27277, Note_on_c, 0, 60, 0
3, 27281, Note_on_c, 0, 55, 0
3, 27284, Note_on_c, 0, 64, 0
3, 27338, Note_on_c, 0, 76, 54
3, 27339, Note_on_c, 0, 64, 32
3, 27340, Note_on_c, 0, 60, 38
3, 27343, Note_on_c, 0, 59, 37
3, 27352, Note_on_c, 0, 55, 36
3, 27358, Control_c, 0, 64, 0
3, 27495, Control_c, 0, 64, 127
3, 27554, Note_on_c, 0, 64, 0
3, 27556, Note_on_c, 0, 55, 0
3, 27558, Note_on_c, 0, 60, 0
3, 27564, Note_on_c, 0, 59, 0
3, 27629, Note_on_c, 0, 72, 43
3, 27629, Note_on_c, 0, 64, 26
3, 27629, Note_on_c, 0, 60, 26
3, 27630, Note_on_c, 0, 59, 29
3, 27639, Control_c, 0, 64, 0
3, 27641, Note_on_c, 0, 72, 0
3, 27644, Note_on_c, 0, 60, 0
3, 27644, Note_on_c, 0, 64, 0
3, 27646, Note_on_c, 0, 79, 0
3, 27647, Note_on_c, 0, 59, 0
3, 27650, Note_on_c, 0, 76, 0
3, 27747, Note_on_c, 0, 59, 27
3, 27749, Note_on_c, 0, 71, 37
3, 27750, Note_on_c, 0, 60, 22
3, 27756, Note_on_c, 0, 55, 20
3, 27762, Note_on_c, 0, 60, 0
3, 27767, Note_on_c, 0, 55, 0
3, 27768, Note_on_c, 0, 59, 0
3, 27788, Note_on_c, 0, 71, 0
3, 27863, Note_on_c, 0, 69, 47
3, 27867, Note_on_c, 0, 59, 30
3, 27868, Note_on_c, 0, 60, 31
3, 27872, Note_on_c, 0, 64, 17
3, 27877, Note_on_c, 0, 55, 26
3, 27949, Control_c, 0, 64, 127
3, 27985, Note_on_c, 0, 64, 0
3, 27992, Note_on_c, 0, 60, 0
3, 27994, Note_on_c, 0, 55, 0
3, 27998, Note_on_c, 0, 59, 0
3, 28087, Note_on_c, 0, 69, 0
3, 28095, Note_on_c, 0, 67, 37
3, 28098, Note_on_c, 0, 59, 30
3, 28099, Control_c, 0, 64, 0
3, 28099, Note_on_c, 0, 60, 31
3, 28101, Note_on_c, 0, 64, 19
3, 28103, Note_on_c, 0, 55, 28
3, 28188, Control_c, 0, 64, 127
3, 28230, Note_on_c, 0, 64, 0
3, 28238, Note_on_c, 0, 60, 0
3, 28244, Note_on_c, 0, 55, 0
3, 28245, Note_on_c, 0, 59, 0
3, 28270, Note_on_c, 0, 67, 0
3, 28290, Note_on_c, 0, 64, 30
3, 28295, Note_on_c, 0, 60, 31
3, 28296, Note_on_c, 0, 59, 33
3, 28302, Control_c, 0, 64, 0
3, 28307, Note_on_c, 0, 55, 24
3, 28329, Control_c, 0, 64, 127
3, 28443, Note_on_c, 0, 60, 0
3, 28445, Note_on_c, 0, 64, 0
3, 28448, Note_on_c, 0, 55, 0
3, 28464, Note_on_c, 0, 59, 0
3, 28702, Note_on_c, 0, 86, 99
3, 28703, Note_on_c, 0, 79, 103
3, 28787, Note_on_c, 0, 86, 0
3, 28793, Note_on_c, 0, 79, 0
3, 28817, Note_on_c, 0, 62, 42
3, 28818, Note_on_c, 0, 83, 74
3, 28821, Note_on_c, 0, 67, 45
3, 28821, Note_on_c, 0, 74, 54
3, 28823, Note_on_c, 0, 79, 39
3, 28824, Note_on_c, 0, 57, 40
3, 28824, Control_c, 0, 64, 0
3, 28917, Control_c, 0, 64, 127
3, 29030, Note_on_c, 0, 79, 0
3, 29031, Note_on_c, 0, 83, 0
3, 29053, Note_on_c, 0, 74, 0
3, 29175, Note_on_c, 0, 74, 49
3, 29176, Note_on_c, 0, 71, 54
3, 29189, Control_c, 0, 64, 0
3, 29198, Note_on_c, 0, 71, 0
3, 29202, Note_on_c, 0, 74, 0
3, 29216, Note_on_c, 0, 67, 0
3, 29231, Note_on_c, 0, 62, 0
3, 29241, Note_on_c, 0, 57, 0
3, 29299, Note_on_c, 0, 67, 47
3, 29299, Note_on_c, 0, 62, 28
3, 29305, Note_on_c, 0, 57, 30
3, 29306, Control_c, 0, 64, 127
3, 29453, Note_on_c, 0, 62, 0
3, 29491, Note_on_c, 0, 57, 0
3, 29603, Note_on_c, 0, 67, 0
3, 29656, Note_on_c, 0, 64, 31
3, 29675, Note_on_c, 0, 64, 0
3, 29766, Note_on_c, 0, 67, 40
3, 29769, Note_on_c, 0, 59, 42
3, 29773, Note_on_c, 0, 64, 42
3, 29775, Control_c, 0, 64, 0
3, 29776, Note_on_c, 0, 45, 24
3, 29776, Note_on_c, 0, 33, 29
3, 29883, Control_c, 0, 64, 127
3, 29939, Note_on_c, 0, 33, 0
3, 29952, Note_on_c, 0, 59, 0
3, 29963, Note_on_c, 0, 45, 0
3, 30112, Note_on_c, 0, 64, 0
3, 30157, Note_on_c, 0, 67, 0
3, 30368, Note_on_c, 0, 71, 91
3, 30369, Note_on_c, 0, 74, 87
3, 30370, Note_on_c, 0, 60, 68
3, 30371, Note_on_c, 0, 62, 58
3, 30371, Note_on_c, 0, 64, 71
3, 30371, Note_on_c, 0, 67, 83
3, 30379, Control_c, 0, 64, 0
3, 30457, Control_c, 0, 64, 127
3, 30495, Note_on_c, 0, 67, 0
3, 30507, Note_on_c, 0, 74, 0
3, 30510, Note_on_c, 0, 71, 0
3, 30558, Note_on_c, 0, 76, 91
3, 30597, Note_on_c, 0, 76, 0
3, 30618, Note_on_c, 0, 74, 71
3, 30620, Note_on_c, 0, 64, 0
3, 30623, Note_on_c, 0, 62, 0
3, 30635, Note_on_c, 0, 60, 0
3, 30686, Note_on_c, 0, 71, 73
3, 30703, Note_on_c, 0, 74, 0
3, 30720, Control_c, 0, 64, 0
3, 30728, Note_on_c, 0, 71, 0
3, 30748, Note_on_c, 0, 67, 64
3, 30750, Note_on_c, 0, 52, 44
3, 30751, Note_on_c, 0, 57, 32
3, 30753, Note_on_c, 0, 45, 33
3, 30828, Control_c, 0, 64, 127
3, 30834, Note_on_c, 0, 45, 0
3, 30845, Note_on_c, 0, 52, 0
3, 30861, Note_on_c, 0, 57, 0
3, 30944, Note_on_c, 0, 64, 50
3, 30952, Note_on_c, 0, 60, 42
3, 30956, Note_on_c, 0, 67, 0
3, 30956, Note_on_c, 0, 59, 28
3, 30987, Control_c, 0, 64, 0
3, 31028, Control_c, 0, 64, 127
3, 31119, Note_on_c, 0, 60, 0
3, 31122, Note_on_c, 0, 59, 0
3, 31124, Note_on_c, 0, 64, 0
3, 31213, Note_on_c, 0, 64, 31
3, 31217, Note_on_c, 0, 60, 38
3, 31220, Note_on_c, 0, 59, 29
3, 31320, Control_c, 0, 64, 0
3, 31335, Note_on_c, 0, 76, 118
3, 31386, Control_c, 0, 64, 127
3, 31402, Note_on_c, 0, 79, 85
3, 31404, Control_c, 0, 64, 0
3, 31405, Note_on_c, 0, 76, 0
3, 31449, Note_on_c, 0, 79, 0
3, 31452, Control_c, 0, 64, 127
3, 31455, Note_on_c, 0, 76, 52
3, 31478, Note_on_c, 0, 64, 0
3, 31478, Note_on_c, 0, 60, 0
3, 31489, Note_on_c, 0, 59, 0
3, 31505, Note_on_c, 0, 76, 0
3, 31518, Note_on_c, 0, 72, 64
3, 31529, Note_on_c, 0, 60, 28
3, 31529, Note_on_c, 0, 59, 16
3, 31530, Note_on_c, 0, 64, 19
3, 31530, Control_c, 0, 64, 0
3, 31560, Note_on_c, 0, 72, 0
3, 31574, Note_on_c, 0, 69, 29
3, 31586, Control_c, 0, 64, 127
3, 31644, Note_on_c, 0, 60, 0
3, 31644, Note_on_c, 0, 64, 0
3, 31656, Note_on_c, 0, 59, 0
3, 31659, Control_c, 0, 64, 0
3, 31686, Note_on_c, 0, 67, 55
3, 31692, Note_on_c, 0, 64, 20
3, 31694, Note_on_c, 0, 60, 31
3, 31697, Note_on_c, 0, 59, 32
3, 31699, Note_on_c, 0, 69, 0
3, 31787, Control_c, 0, 64, 127
3, 31838, Note_on_c, 0, 64, 0
3, 31845, Note_on_c, 0, 60, 0
3, 31862, Note_on_c, 0, 59, 0
3, 31884, Note_on_c, 0, 64, 42
3, 31984, Note_on_c, 0, 64, 0
3, 32015, Note_on_c, 0, 67, 0
3, 32042, Note_on_c, 0, 52, 46
3, 32042, Note_on_c, 0, 45, 51
3, 32047, Note_on_c, 0, 57, 49
3, 32049, Control_c, 0, 64, 0
3, 32064, Control_c, 0, 64, 127
3, 32136, Note_on_c, 0, 45, 0
3, 32147, Note_on_c, 0, 52, 0
3, 32152, Note_on_c, 0, 57, 0
3, 32171, Note_on_c, 0, 79, 115
3, 32222, Note_on_c, 0, 79, 0
3, 32242, Note_on_c, 0, 83, 95
3, 32285, Note_on_c, 0, 64, 43
3, 32288, Control_c, 0, 64, 0
3, 32290, Note_on_c, 0, 60, 42
3, 32291, Note_on_c, 0, 79, 58
3, 32293, Note_on_c, 0, 59, 38
3, 32295, Note_on_c, 0, 55, 39
3, 32299, Note_on_c, 0, 83, 0
3, 32309, Note_on_c, 0, 81, 32
3, 32347, Note_on_c, 0, 81, 0
3, 32354, Note_on_c, 0, 79, 0
3, 32367, Note_on_c, 0, 76, 54
3, 32402, Note_on_c, 0, 76, 0
3, 32423, Control_c, 0, 64, 127
3, 32424, Note_on_c, 0, 72, 31
3, 32489, Control_c, 0, 64, 0
3, 32525, Note_on_c, 0, 71, 49
3, 32531, Note_on_c, 0, 72, 0
3, 32533, Control_c, 0, 64, 127
3, 32596, Note_on_c, 0, 71, 0
3, 32599, Note_on_c, 0, 64, 0
3, 32611, Note_on_c, 0, 60, 0
3, 32618, Note_on_c, 0, 59, 0
3, 32630, Note_on_c, 0, 55, 0
3, 32648, Note_on_c, 0, 74, 91
3, 32820, Note_on_c, 0, 74, 0
3, 32835, Note_on_c, 0, 72, 60
3, 32854, Control_c, 0, 64, 0
3, 32884, Control_c, 0, 64, 127
3, 33001, Note_on_c, 0, 69, 39
3, 33020, Control_c, 0, 64, 0
3, 33115, Note_on_c, 0, 69, 0
3, 33122, Note_on_c, 0, 72, 0
3, 33125, Note_on_c, 0, 71, 66
3, 33241, Control_c, 0, 64, 127
3, 33316, Note_on_c, 0, 67, 39
3, 33347, Control_c, 0, 64, 0
3, 33394, Control_c, 0, 64, 127
3, 33480, Note_on_c, 0, 71, 0
3, 33483, Note_on_c, 0, 64, 33
3, 33487, Note_on_c, 0, 60, 37
3, 33488, Note_on_c, 0, 69, 54
3, 33489, Control_c, 0, 64, 0
3, 33498, Note_on_c, 0, 60, 0
3, 33501, Note_on_c, 0, 64, 0
3, 33654, Control_c, 0, 64, 127
3, 33669, Note_on_c, 0, 67, 0
3, 33713, Control_c, 0, 64, 0
3, 33719, Note_on_c, 0, 67, 22
3, 33732, Note_on_c, 0, 69, 0
3, 33849, Note_on_c, 0, 69, 66
3, 33917, Note_on_c, 0, 67, 0
3, 34089, Note_on_c, 0, 69, 0
3, 34089, Note_on_c, 0, 67, 54
3, 34206, Control_c, 0, 64, 127
3, 34280, Note_on_c, 0, 60, 40
3, 34291, Note_on_c, 0, 60, 0
3, 34301, Note_on_c, 0, 67, 0
3, 34323, Control_c, 0, 64, 0
3, 34324, Note_on_c, 0, 64, 47
3, 34387, Note_on_c, 0, 64, 0
3, 34398, Note_on_c, 0, 60, 57
3, 34411, Note_on_c, 0, 60, 0
3, 34443, Note_on_c, 0, 62, 29
3, 34505, Note_on_c, 0, 62, 0
3, 34521, Note_on_c, 0, 64, 50
3, 34549, Note_on_c, 0, 64, 0
3, 34575, Note_on_c, 0, 62, 26
3, 34662, Note_on_c, 0, 62, 0
3, 34671, Note_on_c, 0, 60, 37
3, 34764, Note_on_c, 0, 60, 0
3, 34799, Note_on_c, 0, 58, 29
3, 34907, Note_on_c, 0, 58, 0
3, 34916, Note_on_c, 0, 57, 46
3, 35021, Note_on_c, 0, 57, 0
3, 35099, Note_on_c, 0, 55, 44
3, 35154, Note_on_c, 0, 55, 0
3, 35161, Note_on_c, 0, 54, 35
3, 35193, Note_on_c, 0, 54, 0
3, 35524, Note_on_c, 0, 58, 35
3, 35528, Note_on_c, 0, 62, 24
3, 35544, Note_on_c, 0, 62, 0
3, 35553, Note_on_c, 0, 58, 0
3, 35655, Note_on_c, 0, 64, 26
3, 35658, Note_on_c, 0, 60, 34
3, 35665, Note_on_c, 0, 55, 17
3, 35675, Note_on_c, 0, 60, 0
3, 35676, Note_on_c, 0, 55, 0
3, 35696, Note_on_c, 0, 64, 0
3, 35775, Note_on_c, 0, 65, 33
3, 35776, Note_on_c, 0, 57, 29
3, 35777, Note_on_c, 0, 62, 37
3, 35801, Note_on_c, 0, 62, 0
3, 35802, Note_on_c, 0, 65, 0
3, 35807, Note_on_c, 0, 57, 0
3, 35909, Note_on_c, 0, 77, 70
3, 35932, Note_on_c, 0, 77, 0
3, 35985, Note_on_c, 0, 81, 65
3, 35990, Note_on_c, 0, 64, 34
3, 35993, Note_on_c, 0, 60, 36
3, 36005, Note_on_c, 0, 60, 0
3, 36005, Note_on_c, 0, 64, 0
3, 36010, Note_on_c, 0, 81, 0
3, 36073, Note_on_c, 0, 84, 78
3, 36096, Note_on_c, 0, 84, 0
3, 36153, Note_on_c, 0, 84, 77
3, 36185, Note_on_c, 0, 84, 0
3, 36235, Note_on_c, 0, 57, 55
3, 36237, Note_on_c, 0, 58, 34
3, 36239, Note_on_c, 0, 62, 30
3, 36249, Note_on_c, 0, 58, 0
3, 36251, Note_on_c, 0, 62, 0
3, 36262, Note_on_c, 0, 57, 0
3, 36324, Note_on_c, 0, 77, 58
3, 36344, Note_on_c, 0, 77, 0
3, 36405, Note_on_c, 0, 81, 71
3, 36429, Note_on_c, 0, 81, 0
3, 36479, Note_on_c, 0, 50, 46
3, 36481, Note_on_c, 0, 84, 83
3, 36487, Note_on_c, 0, 43, 22
3, 36499, Note_on_c, 0, 43, 0
3, 36505, Note_on_c, 0, 50, 0
3, 36509, Note_on_c, 0, 84, 0
3, 36558, Note_on_c, 0, 84, 74
3, 36588, Note_on_c, 0, 84, 0
3, 36637, Note_on_c, 0, 84, 76
3, 36677, Note_on_c, 0, 84, 0
3, 36708, Note_on_c, 0, 81, 48
3, 36724, Note_on_c, 0, 81, 0
3, 36724, Note_on_c, 0, 65, 32
3, 36730, Note_on_c, 0, 60, 29
3, 36742, Note_on_c, 0, 55, 15
3, 36762, Note_on_c, 0, 84, 43
3, 36765, Note_on_c, 0, 72, 29
3, 36805, Note_on_c, 0, 72, 0
3, 36818, Note_on_c, 0, 84, 0
3, 36859, Note_on_c, 0, 81, 48
3, 36870, Note_on_c, 0, 60, 0
3, 36873, Note_on_c, 0, 55, 0
3, 36886, Note_on_c, 0, 65, 0
3, 36960, Note_on_c, 0, 81, 0
3, 36981, Note_on_c, 0, 77, 35
3, 37049, Note_on_c, 0, 77, 0
3, 37066, Note_on_c, 0, 77, 43
3, 37089, Note_on_c, 0, 77, 0
3, 37217, Note_on_c, 0, 62, 27
3, 37227, Note_on_c, 0, 62, 0
3, 37333, Note_on_c, 0, 79, 78
3, 37406, Note_on_c, 0, 79, 0
3, 37429, Note_on_c, 0, 76, 64
3, 37457, Note_on_c, 0, 76, 0
3, 37493, Note_on_c, 0, 72, 39
3, 37521, Note_on_c, 0, 72, 0
3, 37563, Note_on_c, 0, 72, 36
3, 37576, Note_on_c, 0, 72, 0
3, 37652, Note_on_c, 0, 77, 88
3, 37739, Note_on_c, 0, 77, 0
3, 37770, Note_on_c, 0, 74, 55
3, 37798, Note_on_c, 0, 74, 0
3, 37821, Note_on_c, 0, 70, 33
3, 37870, Note_on_c, 0, 70, 0
3, 37893, Note_on_c, 0, 70, 55
3, 37921, Note_on_c, 0, 70, 0
3, 38046, Note_on_c, 0, 74, 85
3, 38052, Control_c, 0, 64, 127
3, 38087, Control_c, 0, 64, 0
3, 38115, Note_on_c, 0, 74, 0
3, 38123, Note_on_c, 0, 70, 64
3, 38160, Note_on_c, 0, 70, 0
3, 38180, Control_c, 0, 64, 127
3, 38183, Note_on_c, 0, 67, 24
3, 38220, Note_on_c, 0, 67, 0
3, 38243, Control_c, 0, 64, 0
3, 38245, Note_on_c, 0, 65, 60
3, 38277, Note_on_c, 0, 65, 0
3, 38300, Note_on_c, 0, 62, 24
3, 38309, Control_c, 0, 64, 127
3, 38339, Note_on_c, 0, 62, 0
3, 38361, Note_on_c, 0, 60, 58
3, 38377, Control_c, 0, 64, 0
3, 38388, Note_on_c, 0, 60, 0
3, 38425, Note_on_c, 0, 57, 17
3, 38496, Note_on_c, 0, 57, 0
3, 38520, Note_on_c, 0, 57, 40
3, 38616, Note_on_c, 0, 57, 0
3, 38646, Note_on_c, 0, 57, 48
3, 38760, Note_on_c, 0, 57, 0
3, 38770, Note_on_c, 0, 55, 42
3, 38838, Note_on_c, 0, 55, 0
3, 38892, Note_on_c, 0, 57, 50
3, 38969, Note_on_c, 0, 57, 0
3, 38978, Note_on_c, 0, 58, 53
3, 39011, Note_on_c, 0, 57, 46
3, 39012, Note_on_c, 0, 58, 0
3, 39038, Note_on_c, 0, 57, 0
3, 39043, Note_on_c, 0, 55, 48
3, 39111, Note_on_c, 0, 54, 71
3, 39116, Note_on_c, 0, 55, 0
3, 39133, Note_on_c, 0, 54, 0
3, 39156, Note_on_c, 0, 57, 62
3, 39222, Note_on_c, 0, 57, 0
3, 39229, Note_on_c, 0, 54, 52
3, 39259, Note_on_c, 0, 54, 0
3, 39279, Note_on_c, 0, 55, 54
3, 39349, Note_on_c, 0, 55, 0
3, 39352, Note_on_c, 0, 57, 43
3, 39389, Note_on_c, 0, 57, 0
3, 39408, Note_on_c, 0, 58, 33
3, 39420, Control_c, 0, 64, 127
3, 39459, Note_on_c, 0, 58, 0
3, 39478, Note_on_c, 0, 62, 63
3, 39492, Control_c, 0, 64, 0
3, 39521, Note_on_c, 0, 62, 0
3, 39527, Note_on_c, 0, 66, 33
3, 39542, Control_c, 0, 64, 127
3, 39585, Note_on_c, 0, 66, 0
3, 39596, Control_c, 0, 64, 0
3, 39597, Note_on_c, 0, 69, 71
3, 39609, Note_on_c, 0, 62, 29
3, 39615, Note_on_c, 0, 58, 27
3, 39622, Note_on_c, 0, 62, 0
3, 39629, Note_on_c, 0, 58, 0
3, 39638, Note_on_c, 0, 69, 0
3, 39650, Control_c, 0, 64, 127
3, 39659, Control_c, 0, 64, 0
3, 39659, Note_on_c, 0, 66, 27
3, 39703, Note_on_c, 0, 66, 0
3, 39720, Note_on_c, 0, 67, 57
3, 39757, Note_on_c, 0, 67, 0
3, 39772, Note_on_c, 0, 69, 46
3, 39824, Note_on_c, 0, 69, 0
3, 39835, Note_on_c, 0, 70, 63
3, 39843, Note_on_c, 0, 65, 36
3, 39845, Note_on_c, 0, 60, 38
3, 39855, Note_on_c, 0, 65, 0
3, 39857, Note_on_c, 0, 60, 0
3, 39858, Note_on_c, 0, 70, 0
3, 39891, Note_on_c, 0, 74, 39
3, 39937, Note_on_c, 0, 74, 0
3, 39946, Note_on_c, 0, 78, 60
3, 39975, Note_on_c, 0, 78, 0
3, 39989, Note_on_c, 0, 81, 80
3, 40050, Note_on_c, 0, 81, 0
3, 40056, Note_on_c, 0, 78, 45
3, 40076, Note_on_c, 0, 58, 25
3, 40083, Note_on_c, 0, 78, 0
3, 40092, Note_on_c, 0, 58, 0
3, 40105, Note_on_c, 0, 79, 72
3, 40162, Note_on_c, 0, 79, 0
3, 40172, Note_on_c, 0, 74, 62
3, 40201, Note_on_c, 0, 74, 0
3, 40221, Note_on_c, 0, 72, 38
3, 40232, Control_c, 0, 64, 127
3, 40285, Note_on_c, 0, 72, 0
3, 40287, Note_on_c, 0, 70, 57
3, 40301, Control_c, 0, 64, 0
3, 40313, Note_on_c, 0, 70, 0
3, 40341, Note_on_c, 0, 69, 44
3, 40343, Control_c, 0, 64, 127
3, 40388, Control_c, 0, 64, 0
3, 40415, Note_on_c, 0, 69, 0
3, 40447, Note_on_c, 0, 72, 58
3, 40448, Control_c, 0, 64, 127
3, 40525, Control_c, 0, 64, 0
3, 40550, Note_on_c, 0, 72, 0
3, 40564, Note_on_c, 0, 67, 48
3, 40579, Control_c, 0, 64, 127
3, 40618, Control_c, 0, 64, 0
3, 40670, Note_on_c, 0, 67, 0
3, 40681, Note_on_c, 0, 70, 73
3, 40687, Control_c, 0, 64, 127
3, 40770, Control_c, 0, 64, 0
3, 40799, Note_on_c, 0, 70, 0
3, 40800, Note_on_c, 0, 65, 48
3, 40809, Control_c, 0, 64, 127
3, 40869, Control_c, 0, 64, 0
3, 40908, Note_on_c, 0, 65, 0
3, 40920, Note_on_c, 0, 69, 71
3, 40929, Control_c, 0, 64, 127
3, 41006, Control_c, 0, 64, 0
3, 41036, Note_on_c, 0, 69, 0
3, 41041, Note_on_c, 0, 64, 42
3, 41043, Control_c, 0, 64, 127
3, 41123, Note_on_c, 0, 50, 55
3, 41129, Control_c, 0, 64, 0
3, 41129, Note_on_c, 0, 43, 31
3, 41136, Note_on_c, 0, 50, 0
3, 41138, Note_on_c, 0, 64, 0
3, 41142, Note_on_c, 0, 43, 0
3, 41163, Note_on_c, 0, 67, 60
3, 41185, Control_c, 0, 64, 127
3, 41233, Control_c, 0, 64, 0
3, 41285, Note_on_c, 0, 62, 53
3, 41290, Control_c, 0, 64, 127
3, 41374, Control_c, 0, 64, 0
3, 41381, Note_on_c, 0, 67, 0
3, 41383, Note_on_c, 0, 62, 0
3, 41405, Note_on_c, 0, 65, 55
3, 41421, Control_c, 0, 64, 127
3, 41484, Control_c, 0, 64, 0
3, 41529, Control_c, 0, 64, 127
3, 41531, Note_on_c, 0, 60, 28
3, 41535, Note_on_c, 0, 65, 0
3, 41618, Note_on_c, 0, 60, 0
3, 41631, Control_c, 0, 64, 0
3, 41644, Note_on_c, 0, 64, 84
3, 41753, Note_on_c, 0, 64, 0
3, 41762, Control_c, 0, 64, 127
3, 41768, Note_on_c, 0, 58, 18
3, 41813, Control_c, 0, 64, 0
3, 41865, Note_on_c, 0, 58, 0
3, 41878, Note_on_c, 0, 62, 77
3, 41882, Control_c, 0, 64, 127
3, 41914, Control_c, 0, 64, 0
3, 41979, Note_on_c, 0, 62, 0
3, 41995, Control_c, 0, 64, 127
3, 42001, Note_on_c, 0, 60, 53
3, 42057, Note_on_c, 0, 60, 0
3, 42075, Note_on_c, 0, 57, 53
3, 42097, Control_c, 0, 64, 0
3, 42123, Note_on_c, 0, 57, 0
3, 42127, Note_on_c, 0, 54, 42
3, 42141, Control_c, 0, 64, 127
3, 42173, Note_on_c, 0, 54, 0
3, 42196, Note_on_c, 0, 57, 64
3, 42204, Control_c, 0, 64, 0
3, 42223, Note_on_c, 0, 43, 19
3, 42239, Note_on_c, 0, 57, 0
3, 42242, Note_on_c, 0, 43, 0
3, 42262, Note_on_c, 0, 54, 37
3, 42307, Note_on_c, 0, 54, 0
3, 42319, Note_on_c, 0, 55, 61
3, 42351, Note_on_c, 0, 55, 0
3, 42487, Note_on_c, 0, 50, 59
3, 42489, Note_on_c, 0, 43, 49
3, 42498, Note_on_c, 0, 50, 0
3, 42500, Note_on_c, 0, 43, 0
3, 42599, Control_c, 0, 64, 127
3, 42685, Control_c, 0, 64, 0
3, 42728, Note_on_c, 0, 53, 49
3, 42730, Note_on_c, 0, 60, 53
3, 42734, Note_on_c, 0, 58, 34
3, 42741, Note_on_c, 0, 60, 0
3, 42744, Note_on_c, 0, 53, 0
3, 42750, Note_on_c, 0, 58, 0
3, 42844, Control_c, 0, 64, 127
3, 42885, Control_c, 0, 64, 0
3, 43043, Note_on_c, 0, 58, 49
3, 43046, Note_on_c, 0, 57, 49
3, 43052, Note_on_c, 0, 52, 36
3, 43065, Note_on_c, 0, 52, 0
3, 43066, Note_on_c, 0, 57, 0
3, 43069, Note_on_c, 0, 58, 0
3, 43221, Note_on_c, 0, 81, 90
3, 43275, Note_on_c, 0, 81, 0
3, 43296, Note_on_c, 0, 77, 35
3, 43313, Note_on_c, 0, 77, 0
3, 43337, Note_on_c, 0, 81, 84
3, 43339, Note_on_c, 0, 69, 75
3, 43403, Note_on_c, 0, 81, 0
3, 43404, Note_on_c, 0, 69, 0
3, 43425, Note_on_c, 0, 77, 49
3, 43483, Control_c, 0, 64, 127
3, 43522, Note_on_c, 0, 77, 0
3, 43529, Note_on_c, 0, 74, 57
3, 43540, Note_on_c, 0, 74, 0
3, 43558, Control_c, 0, 64, 0
3, 43590, Control_c, 0, 64, 127
3, 43662, Control_c, 0, 64, 0
3, 43716, Control_c, 0, 64, 127
3, 43770, Control_c, 0, 64, 0
3, 43815, Note_on_c, 0, 72, 78
3, 43815, Note_on_c, 0, 57, 43
3, 43816, Note_on_c, 0, 84, 83
3, 43820, Note_on_c, 0, 60, 40
3, 43821, Note_on_c, 0, 58, 31
3, 43826, Control_c, 0, 64, 127
3, 43838, Note_on_c, 0, 72, 0
3, 43847, Note_on_c, 0, 57, 0
3, 43854, Note_on_c, 0, 84, 0
3, 43859, Note_on_c, 0, 60, 0
3, 43860, Note_on_c, 0, 58, 0
3, 43886, Control_c, 0, 64, 0
3, 43940, Note_on_c, 0, 84, 84
3, 43941, Note_on_c, 0, 72, 79
3, 43941, Note_on_c, 0, 60, 53
3, 43946, Note_on_c, 0, 58, 38
3, 43952, Note_on_c, 0, 57, 18
3, 43955, Control_c, 0, 64, 127
3, 43982, Control_c, 0, 64, 0
3, 44001, Note_on_c, 0, 72, 0
3, 44008, Note_on_c, 0, 84, 0
3, 44028, Note_on_c, 0, 81, 30
3, 44031, Note_on_c, 0, 60, 0
3, 44032, Note_on_c, 0, 58, 0
3, 44039, Note_on_c, 0, 57, 0
3, 44047, Note_on_c, 0, 81, 0
3, 44047, Control_c, 0, 64, 127
3, 44122, Control_c, 0, 64, 0
3, 44132, Note_on_c, 0, 86, 74
3, 44133, Note_on_c, 0, 74, 71
3, 44135, Note_on_c, 0, 59, 60
3, 44146, Note_on_c, 0, 62, 29
3, 44147, Note_on_c, 0, 59, 0
3, 44155, Note_on_c, 0, 62, 0
3, 44156, Note_on_c, 0, 74, 0
3, 44160, Note_on_c, 0, 86, 0
3, 44194, Control_c, 0, 64, 127
3, 44230, Control_c, 0, 64, 0
3, 44289, Note_on_c, 0, 57, 55
3, 44293, Note_on_c, 0, 60, 62
3, 44296, Note_on_c, 0, 58, 47
3, 44332, Note_on_c, 0, 60, 0
3, 44346, Note_on_c, 0, 57, 0
3, 44347, Note_on_c, 0, 58, 0
3, 44410, Control_c, 0, 64, 127
3, 44488, Note_on_c, 0, 62, 75
3, 44490, Note_on_c, 0, 60, 64
3, 44492, Note_on_c, 0, 55, 58
3, 44493, Control_c, 0, 64, 0
3, 44500, Note_on_c, 0, 60, 0
3, 44510, Note_on_c, 0, 62, 0
3, 44511, Note_on_c, 0, 55, 0
3, 44648, Note_on_c, 0, 53, 53
3, 44648, Note_on_c, 0, 60, 57
3, 44649, Note_on_c, 0, 58, 40
3, 44747, Control_c, 0, 64, 127
3, 44823, Note_on_c, 0, 58, 0
3, 44830, Note_on_c, 0, 60, 0
3, 44838, Note_on_c, 0, 53, 0
3, 44854, Control_c, 0, 64, 0
3, 44876, Note_on_c, 0, 58, 38
3, 44876, Note_on_c, 0, 60, 40
3, 44880, Note_on_c, 0, 74, 67
3, 44882, Control_c, 0, 64, 127
3, 44882, Note_on_c, 0, 86, 69
3, 44887, Note_on_c, 0, 60, 0
3, 44895, Note_on_c, 0, 74, 0
3, 44902, Note_on_c, 0, 58, 0
3, 44906, Note_on_c, 0, 86, 0
3, 44963, Note_on_c, 0, 88, 50
3, 44964, Note_on_c, 0, 89, 51
3, 44965, Control_c, 0, 64, 0
3, 44975, Note_on_c, 0, 89, 0
3, 44975, Note_on_c, 0, 88, 0
3, 44991, Control_c, 0, 64, 127
3, 45003, Note_on_c, 0, 60, 68
3, 45003, Note_on_c, 0, 58, 49
3, 45005, Note_on_c, 0, 53, 35
3, 45010, Note_on_c, 0, 79, 57
3, 45011, Note_on_c, 0, 81, 70
3, 45011, Note_on_c, 0, 93, 68
3, 45013, Note_on_c, 0, 91, 57
3, 45020, Note_on_c, 0, 79, 0
3, 45021, Note_on_c, 0, 81, 0
3, 45025, Note_on_c, 0, 53, 0
3, 45028, Note_on_c, 0, 60, 0
3, 45036, Note_on_c, 0, 91, 0
3, 45038, Note_on_c, 0, 93, 0
3, 45039, Note_on_c, 0, 58, 0
3, 45075, Control_c, 0, 64, 0
3, 45085, Note_on_c, 0, 96, 92
3, 45085, Note_on_c, 0, 84, 91
3, 45085, Note_on_c, 0, 57, 70
3, 45087, Note_on_c, 0, 62, 73
3, 45089, Note_on_c, 0, 58, 69
3, 45183, Note_on_c, 0, 96, 0
3, 45199, Note_on_c, 0, 84, 0
3, 45208, Note_on_c, 0, 62, 0
3, 45216, Note_on_c, 0, 58, 0
3, 45230, Note_on_c, 0, 57, 0
3, 45240, Note_on_c, 0, 62, 45
3, 45242, Note_on_c, 0, 93, 68
3, 45242, Control_c, 0, 64, 127
3, 45244, Note_on_c, 0, 57, 19
3, 45244, Note_on_c, 0, 58, 47
3, 45245, Note_on_c, 0, 81, 63
3, 45276, Note_on_c, 0, 62, 0
3, 45278, Note_on_c, 0, 93, 0
3, 45295, Note_on_c, 0, 81, 0
3, 45299, Note_on_c, 0, 58, 0
3, 45304, Note_on_c, 0, 57, 0
3, 45357, Control_c, 0, 64, 0
3, 45365, Note_on_c, 0, 60, 53
3, 45366, Note_on_c, 0, 58, 32
3, 45367, Note_on_c, 0, 89, 62
3, 45369, Note_on_c, 0, 53, 37
3, 45370, Note_on_c, 0, 77, 49
3, 45461, Control_c, 0, 64, 127
3, 45466, Note_on_c, 0, 89, 0
3, 45493, Note_on_c, 0, 77, 0
3, 45499, Note_on_c, 0, 60, 0
3, 45507, Note_on_c, 0, 58, 0
3, 45519, Note_on_c, 0, 53, 0
3, 45607, Note_on_c, 0, 58, 33
3, 45607, Note_on_c, 0, 53, 36
3, 45608, Note_on_c, 0, 86, 57
3, 45609, Note_on_c, 0, 60, 36
3, 45611, Control_c, 0, 64, 0
3, 45611, Note_on_c, 0, 74, 46
3, 45681, Note_on_c, 0, 86, 0
3, 45688, Control_c, 0, 64, 127
3, 45700, Note_on_c, 0, 74, 0
3, 45747, Note_on_c, 0, 60, 0
3, 45759, Note_on_c, 0, 53, 0
3, 45760, Note_on_c, 0, 58, 0
3, 45848, Note_on_c, 0, 60, 44
3, 45848, Note_on_c, 0, 81, 62
3, 45849, Note_on_c, 0, 58, 26
3, 45850, Note_on_c, 0, 53, 34
3, 45851, Note_on_c, 0, 69, 47
3, 45856, Control_c, 0, 64, 0
3, 45938, Note_on_c, 0, 53, 0
3, 45946, Note_on_c, 0, 60, 0
3, 45950, Control_c, 0, 64, 127
3, 45954, Note_on_c, 0, 58, 0
3, 45972, Note_on_c, 0, 81, 0
3, 45999, Note_on_c, 0, 69, 0
3, 46088, Note_on_c, 0, 74, 38
3, 46089, Note_on_c, 0, 67, 33
3, 46090, Note_on_c, 0, 65, 34
3, 46092, Note_on_c, 0, 71, 44
3, 46094, Note_on_c, 0, 62, 30
3, 46098, Note_on_c, 0, 60, 45
3, 46103, Control_c, 0, 64, 0
3, 46189, Note_on_c, 0, 65, 0
3, 46198, Control_c, 0, 64, 127
3, 46251, Note_on_c, 0, 62, 0
3, 46255, Note_on_c, 0, 60, 0
3, 46341, Note_on_c, 0, 67, 0
3, 46354, Note_on_c, 0, 71, 0
3, 46375, Note_on_c, 0, 74, 0
3, 46448, Note_on_c, 0, 86, 80
3, 46449, Note_on_c, 0, 79, 80
3, 46501, Note_on_c, 0, 86, 0
3, 46502, Note_on_c, 0, 79, 0
3, 46531, Note_on_c, 0, 83, 60
3, 46532, Note_on_c, 0, 74, 38
3, 46536, Note_on_c, 0, 79, 29
3, 46921, Note_on_c, 0, 64, 55
3, 46926, Note_on_c, 0, 60, 54
3, 46926, Note_on_c, 0, 59, 49
3, 46972, Control_c, 0, 64, 0
3, 47015, Control_c, 0, 64, 127
3, 47068, Note_on_c, 0, 74, 0
3, 47085, Note_on_c, 0, 79, 0
3, 47111, Note_on_c, 0, 83, 0
3, 47237, Note_on_c, 0, 98, 74
3, 47240, Note_on_c, 0, 91, 62
3, 47276, Note_on_c, 0, 98, 0
3, 47295, Note_on_c, 0, 95, 67
3, 47295, Note_on_c, 0, 86, 55
3, 47309, Note_on_c, 0, 91, 0
3, 47325, Note_on_c, 0, 86, 0
3, 47341, Note_on_c, 0, 95, 0
3, 47368, Note_on_c, 0, 91, 73
3, 47368, Note_on_c, 0, 98, 77
3, 47404, Note_on_c, 0, 91, 0
3, 47407, Note_on_c, 0, 98, 0
3, 47425, Note_on_c, 0, 86, 47
3, 47430, Note_on_c, 0, 95, 48
3, 47448, Note_on_c, 0, 86, 0
3, 47460, Note_on_c, 0, 95, 0
3, 47461, Note_on_c, 0, 60, 0
3, 47461, Note_on_c, 0, 64, 0
3, 47463, Note_on_c, 0, 59, 0
3, 47482, Note_on_c, 0, 98, 75
3, 47484, Note_on_c, 0, 91, 67
3, 47486, Note_on_c, 0, 64, 47
3, 47487, Note_on_c, 0, 60, 41
3, 47488, Note_on_c, 0, 59, 38
3, 47498, Control_c, 0, 64, 0
3, 47508, Note_on_c, 0, 91, 0
3, 47514, Note_on_c, 0, 98, 0
3, 47533, Note_on_c, 0, 86, 74
3, 47537, Note_on_c, 0, 95, 73
3, 47540, Control_c, 0, 64, 127
3, 47572, Note_on_c, 0, 95, 0
3, 47586, Note_on_c, 0, 86, 0
3, 47661, Note_on_c, 0, 60, 0
3, 47663, Note_on_c, 0, 64, 0
3, 47667, Note_on_c, 0, 59, 0
3, 47762, Note_on_c, 0, 91, 56
3, 47762, Note_on_c, 0, 83, 56
3, 47768, Note_on_c, 0, 59, 56
3, 47769, Note_on_c, 0, 60, 56
3, 47769, Note_on_c, 0, 64, 56
3, 47782, Control_c, 0, 64, 0
3, 47815, Note_on_c, 0, 83, 0
3, 47816, Note_on_c, 0, 91, 0
3, 47830, Note_on_c, 0, 86, 52
3, 47853, Control_c, 0, 64, 127
3, 47865, Note_on_c, 0, 86, 0
3, 47881, Note_on_c, 0, 79, 49
3, 47890, Note_on_c, 0, 64, 0
3, 47898, Note_on_c, 0, 60, 0
3, 47904, Note_on_c, 0, 79, 0
3, 47907, Note_on_c, 0, 59, 0
3, 47952, Note_on_c, 0, 86, 47
3, 47952, Note_on_c, 0, 79, 47
3, 47958, Control_c, 0, 64, 0
3, 47961, Note_on_c, 0, 59, 46
3, 47962, Note_on_c, 0, 60, 46
3, 47963, Note_on_c, 0, 64, 46
3, 48006, Control_c, 0, 64, 127
3, 48057, Note_on_c, 0, 64, 0
3, 48062, Note_on_c, 0, 60, 0
3, 48067, Note_on_c, 0, 79, 0
3, 48073, Note_on_c, 0, 59, 0
3, 48073, Note_on_c, 0, 86, 0
3, 48077, Note_on_c, 0, 83, 39
3, 48121, Note_on_c, 0, 83, 0
3, 48123, Note_on_c, 0, 74, 37
3, 48132, Note_on_c, 0, 59, 36
3, 48138, Note_on_c, 0, 60, 36
3, 48157, Note_on_c, 0, 60, 0
3, 48173, Note_on_c, 0, 59, 0
3, 48173, Note_on_c, 0, 74, 0
3, 48234, Control_c, 0, 64, 0
3, 48234, Note_on_c, 0, 74, 32
3, 48236, Note_on_c, 0, 79, 32
3, 48238, Note_on_c, 0, 71, 32
3, 48241, Note_on_c, 0, 59, 32
3, 48244, Note_on_c, 0, 60, 32
3, 48244, Note_on_c, 0, 64, 32
3, 48337, Control_c, 0, 64, 127
3, 48356, Note_on_c, 0, 79, 0
3, 48356, Note_on_c, 0, 74, 0
3, 48362, Note_on_c, 0, 60, 0
3, 48362, Note_on_c, 0, 64, 0
3, 48366, Note_on_c, 0, 71, 0
3, 48377, Note_on_c, 0, 59, 0
3, 48589, Note_on_c, 0, 69, 23
3, 48589, Note_on_c, 0, 74, 23
3, 48595, Note_on_c, 0, 64, 21
3, 48595, Note_on_c, 0, 59, 21
3, 48595, Note_on_c, 0, 70, 21
3, 48602, Note_on_c, 0, 60, 20
3, 48603, Control_c, 0, 64, 0
3, 48610, Note_on_c, 0, 69, 0
3, 48626, Note_on_c, 0, 70, 0
3, 48626, Note_on_c, 0, 71, 15
3, 48642, Note_on_c, 0, 64, 0
3, 48644, Note_on_c, 0, 60, 0
3, 48644, Note_on_c, 0, 74, 0
3, 48646, Note_on_c, 0, 71, 0
3, 48648, Note_on_c, 0, 59, 0
3, 48717, Note_on_c, 0, 74, 16
3, 48718, Note_on_c, 0, 69, 16
3, 48720, Note_on_c, 0, 70, 16
3, 48721, Note_on_c, 0, 59, 16
3, 48721, Note_on_c, 0, 64, 16
3, 48722, Note_on_c, 0, 60, 16
3, 48732, Note_on_c, 0, 69, 0
3, 48735, Note_on_c, 0, 70, 0
3, 48742, Note_on_c, 0, 71, 16
3, 48833, Note_on_c, 0, 71, 0
3, 48833, Control_c, 0, 64, 127
3, 48840, Note_on_c, 0, 69, 16
3, 48857, Note_on_c, 0, 64, 0
3, 48865, Note_on_c, 0, 60, 0
3, 48871, Note_on_c, 0, 59, 0
3, 48897, Note_on_c, 0, 69, 0
3, 48904, Note_on_c, 0, 74, 0
3, 48917, Note_on_c, 0, 67, 14
3, 48935, Note_on_c, 0, 67, 0
3, 48935, End_track
4, 0, Start_track
4, 0, MIDI_port, 0
4, 0, Title_t, "Drums"
4, 840, Note_on_c, 9, 40, 95
4, 840, Note_on_c, 9, 59, 101
4, 841, Note_on_c, 9, 35, 74
4, 850, Note_on_c, 9, 40, 0
4, 1320, Note_on_c, 9, 59, 0
4, 1669, Note_on_c, 9, 35, 0
4, 1791, Note_on_c, 9, 59, 79
4, 1791, Note_on_c, 9, 57, 83
4, 1792, Note_on_c, 9, 35, 89
4, 1826, Note_on_c, 9, 57, 0
4, 1830, Note_on_c, 9, 59, 0
4, 2554, Note_on_c, 9, 35, 0
4, 2994, Note_on_c, 9, 36, 67
4, 3003, Note_on_c, 9, 36, 0
4, 3117, Note_on_c, 9, 53, 87
4, 3120, Note_on_c, 9, 36, 80
4, 3143, Note_on_c, 9, 53, 0
4, 3157, Note_on_c, 9, 36, 0
4, 3168, Note_on_c, 9, 53, 63
4, 3173, Note_on_c, 9, 36, 51
4, 3182, Note_on_c, 9, 53, 0
4, 3198, Note_on_c, 9, 36, 0
4, 3352, Note_on_c, 9, 53, 78
4, 3356, Note_on_c, 9, 36, 68
4, 3366, Note_on_c, 9, 53, 0
4, 3382, Note_on_c, 9, 36, 0
4, 3545, Note_on_c, 9, 53, 65
4, 3548, Note_on_c, 9, 36, 61
4, 3555, Note_on_c, 9, 53, 0
4, 3569, Note_on_c, 9, 36, 0
4, 3721, Note_on_c, 9, 35, 88
4, 3723, Note_on_c, 9, 57, 91
4, 3739, Note_on_c, 9, 57, 0
4, 4333, Note_on_c, 9, 35, 0
4, 4669, Note_on_c, 9, 57, 105
4, 4671, Note_on_c, 9, 35, 96
4, 4692, Note_on_c, 9, 57, 0
4, 5534, Note_on_c, 9, 35, 0
4, 5645, Note_on_c, 9, 57, 99
4, 5647, Note_on_c, 9, 35, 85
4, 6011, Note_on_c, 9, 57, 0
4, 6502, Note_on_c, 9, 35, 0
4, 6847, Note_on_c, 9, 35, 36
4, 6858, Note_on_c, 9, 35, 0
4, 6962, Note_on_c, 9, 57, 84
4, 6967, Note_on_c, 9, 35, 80
4, 6984, Note_on_c, 9, 57, 0
4, 7013, Note_on_c, 9, 35, 0
4, 7020, Note_on_c, 9, 57, 60
4, 7028, Note_on_c, 9, 35, 54
4, 7030, Note_on_c, 9, 57, 0
4, 7052, Note_on_c, 9, 35, 0
4, 7197, Note_on_c, 9, 57, 68
4, 7199, Note_on_c, 9, 35, 62
4, 7209, Note_on_c, 9, 57, 0
4, 7225, Note_on_c, 9, 35, 0
4, 7387, Note_on_c, 9, 57, 66
4, 7388, Note_on_c, 9, 35, 60
4, 7398, Note_on_c, 9, 57, 0
4, 7409, Note_on_c, 9, 35, 0
4, 7622, Note_on_c, 9, 35, 71
4, 7643, Note_on_c, 9, 35, 0
4, 7664, Note_on_c, 9, 35, 65
4, 7740, Note_on_c, 9, 35, 0
4, 7875, Note_on_c, 9, 35, 55
4, 7899, Note_on_c, 9, 35, 0
4, 8039, Note_on_c, 9, 35, 63
4, 8047, Note_on_c, 9, 53, 31
4, 8057, Note_on_c, 9, 53, 0
4, 8090, Note_on_c, 9, 35, 0
4, 8277, Note_on_c, 9, 53, 74
4, 8281, Note_on_c, 9, 35, 49
4, 8286, Note_on_c, 9, 53, 0
4, 8427, Note_on_c, 9, 35, 0
4, 8501, Note_on_c, 9, 53, 81
4, 8509, Note_on_c, 9, 35, 58
4, 8521, Note_on_c, 9, 53, 0
4, 8691, Note_on_c, 9, 35, 0
4, 8761, Note_on_c, 9, 53, 80
4, 8767, Note_on_c, 9, 35, 51
4, 8777, Note_on_c, 9, 53, 0
4, 8929, Note_on_c, 9, 35, 0
4, 8998, Note_on_c, 9, 53, 87
4, 9002, Note_on_c, 9, 35, 58
4, 9017, Note_on_c, 9, 53, 0
4, 9126, Note_on_c, 9, 35, 0
4, 9247, Note_on_c, 9, 53, 83
4, 9249, Note_on_c, 9, 35, 64
4, 9268, Note_on_c, 9, 53, 0
4, 9380, Note_on_c, 9, 35, 0
4, 9435, Note_on_c, 9, 35, 66
4, 9459, Note_on_c, 9, 35, 0
4, 9475, Note_on_c, 9, 35, 58
4, 9479, Note_on_c, 9, 53, 94
4, 9511, Note_on_c, 9, 53, 0
4, 9674, Note_on_c, 9, 35, 0
4, 9717, Note_on_c, 9, 53, 92
4, 9721, Note_on_c, 9, 35, 63
4, 9735, Note_on_c, 9, 53, 0
4, 9848, Note_on_c, 9, 35, 0
4, 9949, Note_on_c, 9, 53, 67
4, 9949, Note_on_c, 9, 35, 62
4, 9952, Note_on_c, 9, 52, 66
4, 9962, Note_on_c, 9, 52, 0
4, 9969, Note_on_c, 9, 53, 0
4, 10083, Note_on_c, 9, 35, 0
4, 10196, Note_on_c, 9, 53, 88
4, 10197, Note_on_c, 9, 35, 71
4, 10215, Note_on_c, 9, 53, 0
4, 10253, Note_on_c, 9, 35, 0
4, 10436, Note_on_c, 9, 53, 84
4, 10438, Note_on_c, 9, 35, 69
4, 10459, Note_on_c, 9, 53, 0
4, 10496, Note_on_c, 9, 35, 0
4, 10679, Note_on_c, 9, 53, 87
4, 10681, Note_on_c, 9, 35, 66
4, 10699, Note_on_c, 9, 53, 0
4, 10729, Note_on_c, 9, 35, 0
4, 10913, Note_on_c, 9, 53, 87
4, 10917, Note_on_c, 9, 35, 62
4, 10934, Note_on_c, 9, 53, 0
4, 10977, Note_on_c, 9, 35, 0
4, 11150, Note_on_c, 9, 53, 87
4, 11150, Note_on_c, 9, 35, 67
4, 11170, Note_on_c, 9, 53, 0
4, 11202, Note_on_c, 9, 35, 0
4, 11355, Note_on_c, 9, 35, 65
4, 11370, Note_on_c, 9, 35, 0
4, 11394, Note_on_c, 9, 53, 83
4, 11400, Note_on_c, 9, 35, 71
4, 11438, Note_on_c, 9, 53, 0
4, 11470, Note_on_c, 9, 35, 0
4, 11644, Note_on_c, 9, 53, 85
4, 11646, Note_on_c, 9, 35, 71
4, 11667, Note_on_c, 9, 53, 0
4, 11695, Note_on_c, 9, 35, 0
4, 11882, Note_on_c, 9, 53, 78
4, 11884, Note_on_c, 9, 35, 71
4, 11911, Note_on_c, 9, 53, 0
4, 11949, Note_on_c, 9, 35, 0
4, 12081, Note_on_c, 9, 35, 62
4, 12102, Note_on_c, 9, 35, 0
4, 12123, Note_on_c, 9, 35, 68
4, 12124, Note_on_c, 9, 53, 81
4, 12175, Note_on_c, 9, 53, 0
4, 12202, Note_on_c, 9, 35, 0
4, 12357, Note_on_c, 9, 53, 78
4, 12357, Note_on_c, 9, 35, 66
4, 12382, Note_on_c, 9, 53, 0
4, 12448, Note_on_c, 9, 35, 0
4, 12483, Note_on_c, 9, 35, 68
4, 12554, Note_on_c, 9, 35, 0
4, 12601, Note_on_c, 9, 53, 85
4, 12643, Note_on_c, 9, 53, 0
4, 12834, Note_on_c, 9, 53, 79
4, 12912, Note_on_c, 9, 53, 0
4, 12955, Note_on_c, 9, 35, 52
4, 12989, Note_on_c, 9, 35, 0
4, 13046, Note_on_c, 9, 35, 44
4, 13057, Note_on_c, 9, 35, 0
4, 13078, Note_on_c, 9, 53, 92
4, 13145, Note_on_c, 9, 53, 0
4, 13272, Note_on_c, 9, 35, 26
4, 13283, Note_on_c, 9, 35, 0
4, 13304, Note_on_c, 9, 53, 96
4, 13352, Note_on_c, 9, 53, 0
4, 13400, Note_on_c, 9, 35, 48
4, 13412, Note_on_c, 9, 35, 0
4, 13441, Note_on_c, 9, 35, 71
4, 13519, Note_on_c, 9, 35, 0
4, 13563, Note_on_c, 9, 53, 78
4, 13624, Note_on_c, 9, 53, 0
4, 13815, Note_on_c, 9, 53, 83
4, 13818, Note_on_c, 9, 35, 65
4, 13856, Note_on_c, 9, 53, 0
4, 13877, Note_on_c, 9, 35, 0
4, 14044, Note_on_c, 9, 35, 69
4, 14045, Note_on_c, 9, 53, 81
4, 14097, Note_on_c, 9, 53, 0
4, 14133, Note_on_c, 9, 35, 0
4, 14238, Note_on_c, 9, 35, 52
4, 14247, Note_on_c, 9, 35, 0
4, 14276, Note_on_c, 9, 53, 83
4, 14279, Note_on_c, 9, 35, 73
4, 14343, Note_on_c, 9, 53, 0
4, 14372, Note_on_c, 9, 35, 0
4, 14522, Note_on_c, 9, 53, 74
4, 14524, Note_on_c, 9, 35, 62
4, 14562, Note_on_c, 9, 53, 0
4, 14587, Note_on_c, 9, 35, 0
4, 14724, Note_on_c, 9, 35, 32
4, 14736, Note_on_c, 9, 35, 0
4, 14759, Note_on_c, 9, 35, 58
4, 14761, Note_on_c, 9, 53, 77
4, 14815, Note_on_c, 9, 53, 0
4, 14845, Note_on_c, 9, 35, 0
4, 15010, Note_on_c, 9, 53, 81
4, 15013, Note_on_c, 9, 35, 66
4, 15044, Note_on_c, 9, 53, 0
4, 15061, Note_on_c, 9, 35, 0
4, 15200, Note_on_c, 9, 35, 54
4, 15221, Note_on_c, 9, 35, 0
4, 15246, Note_on_c, 9, 53, 60
4, 15260, Note_on_c, 9, 35, 28
4, 15269, Note_on_c, 9, 53, 0
4, 15272, Note_on_c, 9, 35, 0
4, 15382, Note_on_c, 9, 53, 33
4, 15399, Note_on_c, 9, 53, 0
4, 15486, Note_on_c, 9, 53, 85
4, 15531, Note_on_c, 9, 53, 0
4, 15607, Note_on_c, 9, 53, 37
4, 15633, Note_on_c, 9, 53, 0
4, 15724, Note_on_c, 9, 53, 95
4, 15783, Note_on_c, 9, 53, 0
4, 15849, Note_on_c, 9, 53, 55
4, 15863, Note_on_c, 9, 53, 0
4, 15963, Note_on_c, 9, 53, 91
4, 16007, Note_on_c, 9, 53, 0
4, 16076, Note_on_c, 9, 53, 44
4, 16091, Note_on_c, 9, 53, 0
4, 16201, Note_on_c, 9, 57, 91
4, 16202, Note_on_c, 9, 35, 82
4, 16205, Note_on_c, 9, 53, 123
4, 16283, Note_on_c, 9, 53, 0
4, 16348, Note_on_c, 9, 53, 44
4, 16364, Note_on_c, 9, 53, 0
4, 16455, Note_on_c, 9, 53, 103
4, 16520, Note_on_c, 9, 53, 0
4, 16701, Note_on_c, 9, 53, 96
4, 16740, Note_on_c, 9, 53, 0
4, 16907, Note_on_c, 9, 53, 62
4, 16921, Note_on_c, 9, 53, 0
4, 16950, Note_on_c, 9, 53, 80
4, 17001, Note_on_c, 9, 53, 46
4, 17003, Note_on_c, 9, 57, 0
4, 17011, Note_on_c, 9, 53, 0
4, 17018, Note_on_c, 9, 53, 0
4, 17053, Note_on_c, 9, 53, 33
4, 17063, Note_on_c, 9, 57, 1
4, 17064, Note_on_c, 9, 53, 0
4, 17099, Note_on_c, 9, 57, 0
4, 17106, Note_on_c, 9, 35, 0
4, 17160, Note_on_c, 9, 35, 74
4, 17193, Note_on_c, 9, 53, 95
4, 17231, Note_on_c, 9, 53, 0
4, 17354, Note_on_c, 9, 35, 0
4, 17418, Note_on_c, 9, 53, 92
4, 17453, Note_on_c, 9, 53, 0
4, 17545, Note_on_c, 9, 53, 24
4, 17559, Note_on_c, 9, 53, 0
4, 17637, Note_on_c, 9, 57, 89
4, 17639, Note_on_c, 9, 35, 83
4, 17647, Note_on_c, 9, 53, 92
4, 17679, Note_on_c, 9, 53, 0
4, 17774, Note_on_c, 9, 53, 52
4, 17788, Note_on_c, 9, 53, 0
4, 17895, Note_on_c, 9, 53, 95
4, 17932, Note_on_c, 9, 53, 0
4, 18016, Note_on_c, 9, 53, 32
4, 18032, Note_on_c, 9, 53, 0
4, 18129, Note_on_c, 9, 53, 96
4, 18166, Note_on_c, 9, 53, 0
4, 18362, Note_on_c, 9, 53, 95
4, 18395, Note_on_c, 9, 53, 0
4, 18408, Note_on_c, 9, 57, 0
4, 18430, Note_on_c, 9, 35, 0
4, 18437, Note_on_c, 9, 34, 34
4, 18453, Note_on_c, 9, 34, 0
4, 18468, Note_on_c, 9, 35, 58
4, 18473, Note_on_c, 9, 57, 58
4, 18508, Note_on_c, 9, 57, 0
4, 18523, Note_on_c, 9, 35, 0
4, 18601, Note_on_c, 9, 53, 94
4, 18635, Note_on_c, 9, 53, 0
4, 18722, Note_on_c, 9, 57, 61
4, 18725, Note_on_c, 9, 35, 55
4, 18748, Note_on_c, 9, 57, 0
4, 18758, Note_on_c, 9, 35, 0
4, 18848, Note_on_c, 9, 53, 94
4, 18878, Note_on_c, 9, 53, 0
4, 18913, Note_on_c, 9, 57, 59
4, 18919, Note_on_c, 9, 35, 55
4, 18932, Note_on_c, 9, 57, 0
4, 18945, Note_on_c, 9, 35, 0
4, 18971, Note_on_c, 9, 53, 53
4, 18986, Note_on_c, 9, 53, 0
4, 19033, Note_on_c, 9, 34, 77
4, 19055, Note_on_c, 9, 34, 0
4, 19080, Note_on_c, 9, 35, 69
4, 19082, Note_on_c, 9, 53, 110
4, 19116, Note_on_c, 9, 53, 0
4, 19213, Note_on_c, 9, 53, 67
4, 19228, Note_on_c, 9, 53, 0
4, 19320, Note_on_c, 9, 42, 90
4, 19329, Note_on_c, 9, 35, 0
4, 19330, Note_on_c, 9, 42, 0
4, 19417, Note_on_c, 9, 53, 50
4, 19433, Note_on_c, 9, 53, 0
4, 19458, Note_on_c, 9, 53, 60
4, 19492, Note_on_c, 9, 53, 0
4, 19560, Note_on_c, 9, 42, 91
4, 19570, Note_on_c, 9, 42, 0
4, 19649, Note_on_c, 9, 53, 68
4, 19668, Note_on_c, 9, 53, 0
4, 19699, Note_on_c, 9, 53, 80
4, 19764, Note_on_c, 9, 53, 0
4, 19800, Note_on_c, 9, 42, 91
4, 19810, Note_on_c, 9, 42, 0
4, 19891, Note_on_c, 9, 53, 70
4, 19912, Note_on_c, 9, 53, 0
4, 19942, Note_on_c, 9, 53, 83
4, 19976, Note_on_c, 9, 53, 0
4, 20005, Note_on_c, 9, 51, 78
4, 20040, Note_on_c, 9, 42, 90
4, 20042, Note_on_c, 9, 51, 0
4, 20050, Note_on_c, 9, 42, 0
4, 20180, Note_on_c, 9, 51, 87
4, 20218, Note_on_c, 9, 51, 0
4, 20280, Note_on_c, 9, 42, 90
4, 20290, Note_on_c, 9, 42, 0
4, 20370, Note_on_c, 9, 51, 63
4, 20394, Note_on_c, 9, 51, 0
4, 20421, Note_on_c, 9, 51, 74
4, 20470, Note_on_c, 9, 51, 0
4, 20520, Note_on_c, 9, 42, 91
4, 20530, Note_on_c, 9, 42, 0
4, 20674, Note_on_c, 9, 51, 84
4, 20710, Note_on_c, 9, 51, 0
4, 20760, Note_on_c, 9, 42, 91
4, 20770, Note_on_c, 9, 42, 0
4, 20853, Note_on_c, 9, 51, 81
4, 20885, Note_on_c, 9, 51, 0
4, 20987, Note_on_c, 9, 51, 62
4, 21000, Note_on_c, 9, 42, 90
4, 21007, Note_on_c, 9, 51, 0
4, 21010, Note_on_c, 9, 42, 0
4, 21029, Note_on_c, 9, 51, 83
4, 21088, Note_on_c, 9, 51, 0
4, 21227, Note_on_c, 9, 51, 72
4, 21240, Note_on_c, 9, 42, 89
4, 21247, Note_on_c, 9, 51, 0
4, 21250, Note_on_c, 9, 42, 0
4, 21270, Note_on_c, 9, 51, 87
4, 21322, Note_on_c, 9, 51, 0
4, 21385, Note_on_c, 9, 51, 94
4, 21428, Note_on_c, 9, 51, 0
4, 21480, Note_on_c, 9, 42, 91
4, 21490, Note_on_c, 9, 42, 0
4, 21584, Note_on_c, 9, 51, 32
4, 21598, Note_on_c, 9, 51, 0
4, 21619, Note_on_c, 9, 51, 84
4, 21663, Note_on_c, 9, 51, 0
4, 21720, Note_on_c, 9, 42, 89
4, 21730, Note_on_c, 9, 42, 0
4, 21810, Note_on_c, 9, 51, 79
4, 21834, Note_on_c, 9, 51, 0
4, 21859, Note_on_c, 9, 51, 86
4, 21914, Note_on_c, 9, 51, 0
4, 21960, Note_on_c, 9, 42, 91
4, 21970, Note_on_c, 9, 42, 0
4, 22052, Note_on_c, 9, 51, 77
4, 22073, Note_on_c, 9, 51, 0
4, 22099, Note_on_c, 9, 51, 86
4, 22150, Note_on_c, 9, 51, 0
4, 22200, Note_on_c, 9, 42, 89
4, 22210, Note_on_c, 9, 42, 0
4, 22214, Note_on_c, 9, 51, 95
4, 22267, Note_on_c, 9, 51, 0
4, 22400, Note_on_c, 9, 51, 57
4, 22421, Note_on_c, 9, 51, 0
4, 22440, Note_on_c, 9, 42, 88
4, 22446, Note_on_c, 9, 51, 85
4, 22450, Note_on_c, 9, 42, 0
4, 22507, Note_on_c, 9, 51, 0
4, 22643, Note_on_c, 9, 51, 69
4, 22669, Note_on_c, 9, 51, 0
4, 22680, Note_on_c, 9, 42, 91
4, 22690, Note_on_c, 9, 42, 0
4, 22696, Note_on_c, 9, 51, 63
4, 22704, Note_on_c, 9, 50, 78
4, 22718, Note_on_c, 9, 50, 0
4, 22724, Note_on_c, 9, 51, 0
4, 22812, Note_on_c, 9, 51, 94
4, 22865, Note_on_c, 9, 51, 0
4, 22920, Note_on_c, 9, 42, 91
4, 22930, Note_on_c, 9, 42, 0
4, 22994, Note_on_c, 9, 51, 78
4, 23021, Note_on_c, 9, 51, 0
4, 23048, Note_on_c, 9, 51, 83
4, 23107, Note_on_c, 9, 51, 0
4, 23160, Note_on_c, 9, 42, 89
4, 23170, Note_on_c, 9, 42, 0
4, 23243, Note_on_c, 9, 51, 90
4, 23276, Note_on_c, 9, 51, 0
4, 23371, Note_on_c, 9, 51, 54
4, 23397, Note_on_c, 9, 51, 0
4, 23400, Note_on_c, 9, 42, 88
4, 23410, Note_on_c, 9, 42, 0
4, 23421, Note_on_c, 9, 51, 86
4, 23480, Note_on_c, 9, 51, 0
4, 23612, Note_on_c, 9, 51, 64
4, 23632, Note_on_c, 9, 51, 0
4, 23640, Note_on_c, 9, 42, 91
4, 23650, Note_on_c, 9, 42, 0
4, 23657, Note_on_c, 9, 51, 81
4, 23695, Note_on_c, 9, 51, 0
4, 23773, Note_on_c, 9, 51, 92
4, 23810, Note_on_c, 9, 51, 0
4, 23880, Note_on_c, 9, 42, 91
4, 23889, Note_on_c, 9, 51, 87
4, 23890, Note_on_c, 9, 42, 0
4, 23924, Note_on_c, 9, 51, 0
4, 24005, Note_on_c, 9, 51, 88
4, 24049, Note_on_c, 9, 51, 0
4, 24120, Note_on_c, 9, 42, 89
4, 24129, Note_on_c, 9, 51, 86
4, 24130, Note_on_c, 9, 42, 0
4, 24168, Note_on_c, 9, 51, 0
4, 24255, Note_on_c, 9, 51, 92
4, 24309, Note_on_c, 9, 51, 0
4, 24360, Note_on_c, 9, 42, 88
4, 24370, Note_on_c, 9, 42, 0
4, 24459, Note_on_c, 9, 51, 50
4, 24473, Note_on_c, 9, 51, 0
4, 24497, Note_on_c, 9, 51, 77
4, 24551, Note_on_c, 9, 51, 0
4, 24600, Note_on_c, 9, 42, 91
4, 24610, Note_on_c, 9, 42, 0
4, 24688, Note_on_c, 9, 51, 52
4, 24702, Note_on_c, 9, 51, 0
4, 24727, Note_on_c, 9, 51, 74
4, 24783, Note_on_c, 9, 51, 0
4, 24840, Note_on_c, 9, 42, 91
4, 24850, Note_on_c, 9, 42, 0
4, 24920, Note_on_c, 9, 51, 67
4, 24936, Note_on_c, 9, 51, 0
4, 24967, Note_on_c, 9, 51, 80
4, 25012, Note_on_c, 9, 51, 0
4, 25080, Note_on_c, 9, 42, 88
4, 25090, Note_on_c, 9, 42, 0
4, 25094, Note_on_c, 9, 53, 85
4, 25096, Note_on_c, 9, 52, 83
4, 25098, Note_on_c, 9, 51, 53
4, 25127, Note_on_c, 9, 52, 0
4, 25143, Note_on_c, 9, 51, 0
4, 25160, Note_on_c, 9, 53, 0
4, 25320, Note_on_c, 9, 42, 91
4, 25330, Note_on_c, 9, 42, 0
4, 25333, Note_on_c, 9, 51, 86
4, 25391, Note_on_c, 9, 51, 0
4, 25513, Note_on_c, 9, 51, 82
4, 25540, Note_on_c, 9, 51, 0
4, 25560, Note_on_c, 9, 42, 89
4, 25566, Note_on_c, 9, 51, 82
4, 25570, Note_on_c, 9, 42, 0
4, 25616, Note_on_c, 9, 51, 0
4, 25692, Note_on_c, 9, 51, 93
4, 25744, Note_on_c, 9, 51, 0
4, 25800, Note_on_c, 9, 42, 91
4, 25810, Note_on_c, 9, 42, 0
4, 25891, Note_on_c, 9, 51, 64
4, 25911, Note_on_c, 9, 51, 0
4, 25932, Note_on_c, 9, 51, 80
4, 26003, Note_on_c, 9, 51, 0
4, 26040, Note_on_c, 9, 42, 89
4, 26050, Note_on_c, 9, 42, 0
4, 26126, Note_on_c, 9, 51, 94
4, 26175, Note_on_c, 9, 51, 0
4, 26280, Note_on_c, 9, 42, 89
4, 26290, Note_on_c, 9, 42, 0
4, 26304, Note_on_c, 9, 51, 106
4, 26401, Note_on_c, 9, 51, 0
4, 26487, Note_on_c, 9, 51, 71
4, 26510, Note_on_c, 9, 51, 0
4, 26520, Note_on_c, 9, 42, 88
4, 26530, Note_on_c, 9, 42, 0
4, 26533, Note_on_c, 9, 51, 87
4, 26579, Note_on_c, 9, 51, 0
4, 26660, Note_on_c, 9, 51, 85
4, 26671, Note_on_c, 9, 50, 67
4, 26685, Note_on_c, 9, 50, 0
4, 26692, Note_on_c, 9, 51, 0
4, 26760, Note_on_c, 9, 42, 91
4, 26770, Note_on_c, 9, 42, 0
4, 26778, Note_on_c, 9, 51, 82
4, 26828, Note_on_c, 9, 51, 0
4, 26902, Note_on_c, 9, 51, 85
4, 26955, Note_on_c, 9, 51, 0
4, 27000, Note_on_c, 9, 42, 90
4, 27010, Note_on_c, 9, 42, 0
4, 27026, Note_on_c, 9, 51, 87
4, 27094, Note_on_c, 9, 51, 0
4, 27151, Note_on_c, 9, 51, 59
4, 27168, Note_on_c, 9, 51, 0
4, 27240, Note_on_c, 9, 42, 90
4, 27250, Note_on_c, 9, 42, 0
4, 27267, Note_on_c, 9, 51, 88
4, 27325, Note_on_c, 9, 51, 0
4, 27388, Note_on_c, 9, 51, 55
4, 27417, Note_on_c, 9, 51, 0
4, 27480, Note_on_c, 9, 42, 88
4, 27490, Note_on_c, 9, 42, 0
4, 27502, Note_on_c, 9, 51, 92
4, 27567, Note_on_c, 9, 51, 0
4, 27720, Note_on_c, 9, 42, 91
4, 27730, Note_on_c, 9, 42, 0
4, 27732, Note_on_c, 9, 51, 84
4, 27780, Note_on_c, 9, 51, 0
4, 27815, Note_on_c, 9, 51, 57
4, 27839, Note_on_c, 9, 51, 0
4, 27858, Note_on_c, 9, 51, 83
4, 27908, Note_on_c, 9, 51, 0
4, 27960, Note_on_c, 9, 42, 89
4, 27970, Note_on_c, 9, 42, 0
4, 27979, Note_on_c, 9, 51, 91
4, 28048, Note_on_c, 9, 51, 0
4, 28179, Note_on_c, 9, 51, 62
4, 28193, Note_on_c, 9, 51, 0
4, 28200, Note_on_c, 9, 42, 89
4, 28210, Note_on_c, 9, 42, 0
4, 28224, Note_on_c, 9, 51, 71
4, 28259, Note_on_c, 9, 51, 0
4, 28302, Note_on_c, 9, 51, 85
4, 28357, Note_on_c, 9, 51, 0
4, 28422, Note_on_c, 9, 53, 87
4, 28434, Note_on_c, 9, 51, 33
4, 28440, Note_on_c, 9, 42, 91
4, 28448, Note_on_c, 9, 51, 0
4, 28450, Note_on_c, 9, 42, 0
4, 28480, Note_on_c, 9, 53, 0
4, 28546, Note_on_c, 9, 51, 51
4, 28594, Note_on_c, 9, 51, 0
4, 28605, Note_on_c, 9, 53, 89
4, 28680, Note_on_c, 9, 42, 90
4, 28683, Note_on_c, 9, 53, 0
4, 28690, Note_on_c, 9, 42, 0
4, 28726, Note_on_c, 9, 51, 64
4, 28754, Note_on_c, 9, 51, 0
4, 28797, Note_on_c, 9, 53, 92
4, 28864, Note_on_c, 9, 53, 0
4, 28909, Note_on_c, 9, 51, 71
4, 28920, Note_on_c, 9, 42, 91
4, 28923, Note_on_c, 9, 51, 0
4, 28930, Note_on_c, 9, 42, 0
4, 28960, Note_on_c, 9, 53, 92
4, 29033, Note_on_c, 9, 53, 0
4, 29067, Note_on_c, 9, 51, 64
4, 29093, Note_on_c, 9, 51, 0
4, 29140, Note_on_c, 9, 53, 105
4, 29160, Note_on_c, 9, 42, 88
4, 29170, Note_on_c, 9, 42, 0
4, 29201, Note_on_c, 9, 53, 0
4, 29247, Note_on_c, 9, 51, 71
4, 29261, Note_on_c, 9, 51, 0
4, 29307, Note_on_c, 9, 53, 101
4, 29370, Note_on_c, 9, 53, 0
4, 29400, Note_on_c, 9, 42, 90
4, 29408, Note_on_c, 9, 51, 67
4, 29410, Note_on_c, 9, 42, 0
4, 29430, Note_on_c, 9, 51, 0
4, 29481, Note_on_c, 9, 53, 99
4, 29543, Note_on_c, 9, 53, 0
4, 29602, Note_on_c, 9, 51, 63
4, 29616, Note_on_c, 9, 51, 0
4, 29640, Note_on_c, 9, 42, 88
4, 29640, Note_on_c, 9, 40, 93
4, 29650, Note_on_c, 9, 40, 0
4, 29650, Note_on_c, 9, 42, 0
4, 29655, Note_on_c, 9, 53, 95
4, 29719, Note_on_c, 9, 53, 0
4, 29770, Note_on_c, 9, 51, 74
4, 29798, Note_on_c, 9, 51, 0
4, 29880, Note_on_c, 9, 42, 88
4, 29890, Note_on_c, 9, 42, 0
4, 29893, Note_on_c, 9, 51, 88
4, 29930, Note_on_c, 9, 51, 0
4, 30019, Note_on_c, 9, 51, 83
4, 30050, Note_on_c, 9, 51, 0
4, 30078, Note_on_c, 9, 51, 67
4, 30118, Note_on_c, 9, 51, 0
4, 30120, Note_on_c, 9, 42, 91
4, 30130, Note_on_c, 9, 42, 0
4, 30198, Note_on_c, 9, 53, 88
4, 30227, Note_on_c, 9, 53, 0
4, 30326, Note_on_c, 9, 53, 95
4, 30351, Note_on_c, 9, 53, 0
4, 30360, Note_on_c, 9, 42, 91
4, 30370, Note_on_c, 9, 42, 0
4, 30447, Note_on_c, 9, 53, 99
4, 30485, Note_on_c, 9, 53, 0
4, 30572, Note_on_c, 9, 53, 87
4, 30596, Note_on_c, 9, 53, 0
4, 30600, Note_on_c, 9, 42, 88
4, 30610, Note_on_c, 9, 42, 0
4, 30625, Note_on_c, 9, 53, 92
4, 30685, Note_on_c, 9, 53, 0
4, 30741, Note_on_c, 9, 51, 87
4, 30774, Note_on_c, 9, 51, 0
4, 30840, Note_on_c, 9, 42, 90
4, 30850, Note_on_c, 9, 42, 0
4, 30862, Note_on_c, 9, 53, 95
4, 30891, Note_on_c, 9, 53, 0
4, 30983, Note_on_c, 9, 53, 110
4, 31026, Note_on_c, 9, 53, 0
4, 31080, Note_on_c, 9, 42, 90
4, 31090, Note_on_c, 9, 42, 0
4, 31184, Note_on_c, 9, 53, 85
4, 31213, Note_on_c, 9, 53, 0
4, 31294, Note_on_c, 9, 53, 83
4, 31304, Note_on_c, 9, 52, 36
4, 31319, Note_on_c, 9, 52, 0
4, 31320, Note_on_c, 9, 42, 90
4, 31330, Note_on_c, 9, 42, 0
4, 31333, Note_on_c, 9, 53, 0
4, 31398, Note_on_c, 9, 51, 87
4, 31428, Note_on_c, 9, 51, 0
4, 31532, Note_on_c, 9, 51, 84
4, 31555, Note_on_c, 9, 51, 0
4, 31560, Note_on_c, 9, 42, 89
4, 31570, Note_on_c, 9, 42, 0
4, 31576, Note_on_c, 9, 51, 85
4, 31615, Note_on_c, 9, 51, 0
4, 31697, Note_on_c, 9, 51, 93
4, 31731, Note_on_c, 9, 51, 0
4, 31800, Note_on_c, 9, 42, 90
4, 31810, Note_on_c, 9, 42, 0
4, 31883, Note_on_c, 9, 51, 75
4, 31906, Note_on_c, 9, 51, 0
4, 31932, Note_on_c, 9, 51, 83
4, 31978, Note_on_c, 9, 51, 0
4, 32040, Note_on_c, 9, 42, 89
4, 32050, Note_on_c, 9, 42, 0
4, 32114, Note_on_c, 9, 51, 85
4, 32148, Note_on_c, 9, 51, 0
4, 32243, Note_on_c, 9, 51, 80
4, 32267, Note_on_c, 9, 51, 0
4, 32280, Note_on_c, 9, 42, 91
4, 32290, Note_on_c, 9, 42, 0
4, 32304, Note_on_c, 9, 51, 25
4, 32318, Note_on_c, 9, 51, 0
4, 32405, Note_on_c, 9, 51, 94
4, 32441, Note_on_c, 9, 51, 0
4, 32520, Note_on_c, 9, 42, 89
4, 32530, Note_on_c, 9, 42, 0
4, 32600, Note_on_c, 9, 51, 64
4, 32614, Note_on_c, 9, 51, 0
4, 32646, Note_on_c, 9, 51, 70
4, 32687, Note_on_c, 9, 51, 0
4, 32760, Note_on_c, 9, 42, 89
4, 32770, Note_on_c, 9, 42, 0
4, 32838, Note_on_c, 9, 51, 77
4, 32868, Note_on_c, 9, 51, 0
4, 32889, Note_on_c, 9, 51, 79
4, 32923, Note_on_c, 9, 51, 0
4, 33000, Note_on_c, 9, 42, 89
4, 33010, Note_on_c, 9, 42, 0
4, 33012, Note_on_c, 9, 51, 93
4, 33053, Note_on_c, 9, 51, 0
4, 33203, Note_on_c, 9, 51, 79
4, 33229, Note_on_c, 9, 51, 0
4, 33240, Note_on_c, 9, 42, 91
4, 33250, Note_on_c, 9, 42, 0
4, 33252, Note_on_c, 9, 51, 81
4, 33285, Note_on_c, 9, 51, 0
4, 33380, Note_on_c, 9, 51, 94
4, 33411, Note_on_c, 9, 51, 0
4, 33480, Note_on_c, 9, 42, 91
4, 33490, Note_on_c, 9, 42, 0
4, 33561, Note_on_c, 9, 51, 83
4, 33595, Note_on_c, 9, 51, 0
4, 33720, Note_on_c, 9, 42, 89
4, 33730, Note_on_c, 9, 42, 0
4, 33743, Note_on_c, 9, 51, 83
4, 33786, Note_on_c, 9, 51, 0
4, 33924, Note_on_c, 9, 51, 71
4, 33950, Note_on_c, 9, 51, 0
4, 33960, Note_on_c, 9, 42, 89
4, 33970, Note_on_c, 9, 42, 0
4, 33971, Note_on_c, 9, 51, 73
4, 33998, Note_on_c, 9, 51, 0
4, 34092, Note_on_c, 9, 51, 85
4, 34124, Note_on_c, 9, 51, 0
4, 34200, Note_on_c, 9, 42, 91
4, 34210, Note_on_c, 9, 42, 0
4, 34287, Note_on_c, 9, 51, 68
4, 34301, Note_on_c, 9, 51, 0
4, 34328, Note_on_c, 9, 51, 74
4, 34359, Note_on_c, 9, 51, 0
4, 34440, Note_on_c, 9, 42, 91
4, 34440, Note_on_c, 9, 51, 92
4, 34450, Note_on_c, 9, 42, 0
4, 34473, Note_on_c, 9, 51, 0
4, 34562, Note_on_c, 9, 51, 67
4, 34582, Note_on_c, 9, 51, 0
4, 34680, Note_on_c, 9, 42, 89
4, 34682, Note_on_c, 9, 51, 95
4, 34690, Note_on_c, 9, 42, 0
4, 34721, Note_on_c, 9, 51, 0
4, 34793, Note_on_c, 9, 51, 65
4, 34820, Note_on_c, 9, 51, 0
4, 34916, Note_on_c, 9, 51, 86
4, 34920, Note_on_c, 9, 42, 88
4, 34930, Note_on_c, 9, 42, 0
4, 34949, Note_on_c, 9, 51, 0
4, 35041, Note_on_c, 9, 51, 48
4, 35056, Note_on_c, 9, 51, 0
4, 35159, Note_on_c, 9, 51, 90
4, 35160, Note_on_c, 9, 42, 90
4, 35170, Note_on_c, 9, 42, 0
4, 35204, Note_on_c, 9, 51, 0
4, 35276, Note_on_c, 9, 51, 53
4, 35296, Note_on_c, 9, 51, 0
4, 35400, Note_on_c, 9, 42, 88
4, 35402, Note_on_c, 9, 51, 87
4, 35410, Note_on_c, 9, 42, 0
4, 35449, Note_on_c, 9, 51, 0
4, 35522, Note_on_c, 9, 51, 57
4, 35551, Note_on_c, 9, 51, 0
4, 35640, Note_on_c, 9, 42, 89
4, 35650, Note_on_c, 9, 42, 0
4, 35696, Note_on_c, 9, 51, 94
4, 35696, Note_on_c, 9, 51, 0
4, 35744, Note_on_c, 9, 51, 48
4, 35758, Note_on_c, 9, 51, 0
4, 35781, Note_on_c, 9, 51, 77
4, 35821, Note_on_c, 9, 51, 0
4, 35880, Note_on_c, 9, 42, 91
4, 35890, Note_on_c, 9, 42, 0
4, 35903, Note_on_c, 9, 51, 80
4, 35931, Note_on_c, 9, 51, 0
4, 36026, Note_on_c, 9, 51, 82
4, 36056, Note_on_c, 9, 51, 0
4, 36120, Note_on_c, 9, 42, 89
4, 36130, Note_on_c, 9, 42, 0
4, 36152, Note_on_c, 9, 51, 72
4, 36180, Note_on_c, 9, 51, 0
4, 36268, Note_on_c, 9, 51, 80
4, 36301, Note_on_c, 9, 51, 0
4, 36360, Note_on_c, 9, 42, 90
4, 36370, Note_on_c, 9, 42, 0
4, 36378, Note_on_c, 9, 51, 83
4, 36411, Note_on_c, 9, 51, 0
4, 36498, Note_on_c, 9, 51, 78
4, 36533, Note_on_c, 9, 51, 0
4, 36600, Note_on_c, 9, 42, 89
4, 36610, Note_on_c, 9, 42, 0
4, 36614, Note_on_c, 9, 51, 71
4, 36642, Note_on_c, 9, 51, 0
4, 36705, Note_on_c, 9, 51, 77
4, 36732, Note_on_c, 9, 51, 0
4, 36745, Note_on_c, 9, 51, 74
4, 36784, Note_on_c, 9, 51, 0
4, 36840, Note_on_c, 9, 42, 90
4, 36850, Note_on_c, 9, 42, 0
4, 36857, Note_on_c, 9, 51, 86
4, 36898, Note_on_c, 9, 51, 0
4, 36977, Note_on_c, 9, 51, 71
4, 37004, Note_on_c, 9, 51, 0
4, 37064, Note_on_c, 9, 51, 77
4, 37078, Note_on_c, 9, 51, 0
4, 37080, Note_on_c, 9, 42, 90
4, 37090, Note_on_c, 9, 42, 0
4, 37104, Note_on_c, 9, 51, 86
4, 37151, Note_on_c, 9, 51, 0
4, 37218, Note_on_c, 9, 51, 87
4, 37253, Note_on_c, 9, 51, 0
4, 37320, Note_on_c, 9, 42, 90
4, 37330, Note_on_c, 9, 42, 0
4, 37337, Note_on_c, 9, 51, 78
4, 37364, Note_on_c, 9, 51, 0
4, 37407, Note_on_c, 9, 51, 55
4, 37422, Note_on_c, 9, 51, 0
4, 37447, Note_on_c, 9, 51, 77
4, 37485, Note_on_c, 9, 51, 0
4, 37560, Note_on_c, 9, 42, 91
4, 37563, Note_on_c, 9, 51, 84
4, 37570, Note_on_c, 9, 42, 0
4, 37590, Note_on_c, 9, 51, 0
4, 37688, Note_on_c, 9, 51, 97
4, 37720, Note_on_c, 9, 51, 0
4, 37799, Note_on_c, 9, 51, 61
4, 37800, Note_on_c, 9, 42, 90
4, 37810, Note_on_c, 9, 42, 0
4, 37813, Note_on_c, 9, 51, 0
4, 37882, Note_on_c, 9, 51, 97
4, 37919, Note_on_c, 9, 51, 0
4, 38017, Note_on_c, 9, 51, 77
4, 38031, Note_on_c, 9, 51, 0
4, 38040, Note_on_c, 9, 42, 90
4, 38050, Note_on_c, 9, 42, 0
4, 38066, Note_on_c, 9, 51, 88
4, 38112, Note_on_c, 9, 51, 0
4, 38183, Note_on_c, 9, 51, 63
4, 38197, Note_on_c, 9, 51, 0
4, 38240, Note_on_c, 9, 40, 42
4, 38250, Note_on_c, 9, 40, 0
4, 38262, Note_on_c, 9, 51, 97
4, 38280, Note_on_c, 9, 42, 90
4, 38280, Note_on_c, 9, 40, 94
4, 38290, Note_on_c, 9, 40, 0
4, 38290, Note_on_c, 9, 42, 0
4, 38303, Note_on_c, 9, 51, 0
4, 38380, Note_on_c, 9, 51, 77
4, 38396, Note_on_c, 9, 51, 0
4, 38433, Note_on_c, 9, 51, 91
4, 38475, Note_on_c, 9, 51, 0
4, 38520, Note_on_c, 9, 42, 90
4, 38530, Note_on_c, 9, 42, 0
4, 38549, Note_on_c, 9, 51, 78
4, 38574, Note_on_c, 9, 51, 0
4, 38668, Note_on_c, 9, 51, 91
4, 38699, Note_on_c, 9, 51, 0
4, 38760, Note_on_c, 9, 42, 90
4, 38770, Note_on_c, 9, 42, 0
4, 38781, Note_on_c, 9, 51, 86
4, 38814, Note_on_c, 9, 51, 0
4, 38891, Note_on_c, 9, 51, 81
4, 38926, Note_on_c, 9, 51, 0
4, 39000, Note_on_c, 9, 42, 91
4, 39010, Note_on_c, 9, 42, 0
4, 39014, Note_on_c, 9, 51, 80
4, 39049, Note_on_c, 9, 51, 0
4, 39118, Note_on_c, 9, 51, 59
4, 39132, Note_on_c, 9, 51, 0
4, 39148, Note_on_c, 9, 51, 78
4, 39180, Note_on_c, 9, 51, 0
4, 39240, Note_on_c, 9, 42, 89
4, 39250, Note_on_c, 9, 42, 0
4, 39258, Note_on_c, 9, 51, 90
4, 39294, Note_on_c, 9, 51, 0
4, 39383, Note_on_c, 9, 51, 67
4, 39405, Note_on_c, 9, 51, 0
4, 39480, Note_on_c, 9, 42, 90
4, 39490, Note_on_c, 9, 42, 0
4, 39520, Note_on_c, 9, 51, 81
4, 39521, Note_on_c, 9, 51, 0
4, 39614, Note_on_c, 9, 51, 72
4, 39642, Note_on_c, 9, 51, 0
4, 39720, Note_on_c, 9, 42, 90
4, 39730, Note_on_c, 9, 42, 0
4, 39736, Note_on_c, 9, 51, 81
4, 39766, Note_on_c, 9, 51, 0
4, 39858, Note_on_c, 9, 51, 79
4, 39889, Note_on_c, 9, 51, 0
4, 39960, Note_on_c, 9, 42, 91
4, 39970, Note_on_c, 9, 42, 0
4, 39977, Note_on_c, 9, 51, 83
4, 40012, Note_on_c, 9, 51, 0
4, 40093, Note_on_c, 9, 51, 64
4, 40121, Note_on_c, 9, 51, 0
4, 40200, Note_on_c, 9, 42, 89
4, 40210, Note_on_c, 9, 42, 0
4, 40218, Note_on_c, 9, 51, 74
4, 40252, Note_on_c, 9, 51, 0
4, 40304, Note_on_c, 9, 53, 82
4, 40348, Note_on_c, 9, 53, 0
4, 40440, Note_on_c, 9, 42, 88
4, 40444, Note_on_c, 9, 53, 68
4, 40450, Note_on_c, 9, 42, 0
4, 40478, Note_on_c, 9, 53, 0
4, 40567, Note_on_c, 9, 51, 74
4, 40599, Note_on_c, 9, 51, 0
4, 40680, Note_on_c, 9, 42, 88
4, 40690, Note_on_c, 9, 42, 0
4, 40690, Note_on_c, 9, 51, 69
4, 40726, Note_on_c, 9, 51, 0
4, 40812, Note_on_c, 9, 51, 73
4, 40844, Note_on_c, 9, 51, 0
4, 40920, Note_on_c, 9, 42, 89
4, 40930, Note_on_c, 9, 42, 0
4, 40934, Note_on_c, 9, 51, 70
4, 40964, Note_on_c, 9, 51, 0
4, 41061, Note_on_c, 9, 51, 71
4, 41087, Note_on_c, 9, 51, 0
4, 41131, Note_on_c, 9, 51, 57
4, 41149, Note_on_c, 9, 51, 0
4, 41160, Note_on_c, 9, 42, 88
4, 41170, Note_on_c, 9, 42, 0
4, 41181, Note_on_c, 9, 53, 81
4, 41237, Note_on_c, 9, 53, 0
4, 41297, Note_on_c, 9, 53, 65
4, 41331, Note_on_c, 9, 53, 0
4, 41400, Note_on_c, 9, 42, 89
4, 41409, Note_on_c, 9, 51, 77
4, 41410, Note_on_c, 9, 42, 0
4, 41459, Note_on_c, 9, 51, 0
4, 41536, Note_on_c, 9, 51, 70
4, 41571, Note_on_c, 9, 51, 0
4, 41640, Note_on_c, 9, 42, 90
4, 41650, Note_on_c, 9, 42, 0
4, 41654, Note_on_c, 9, 51, 62
4, 41682, Note_on_c, 9, 51, 0
4, 41774, Note_on_c, 9, 51, 74
4, 41802, Note_on_c, 9, 51, 0
4, 41880, Note_on_c, 9, 42, 91
4, 41890, Note_on_c, 9, 42, 0
4, 41893, Note_on_c, 9, 51, 77
4, 41922, Note_on_c, 9, 51, 0
4, 42018, Note_on_c, 9, 51, 64
4, 42041, Note_on_c, 9, 51, 0
4, 42120, Note_on_c, 9, 42, 88
4, 42130, Note_on_c, 9, 42, 0
4, 42131, Note_on_c, 9, 51, 82
4, 42159, Note_on_c, 9, 51, 0
4, 42258, Note_on_c, 9, 51, 98
4, 42297, Note_on_c, 9, 51, 0
4, 42360, Note_on_c, 9, 42, 91
4, 42367, Note_on_c, 9, 51, 62
4, 42370, Note_on_c, 9, 42, 0
4, 42392, Note_on_c, 9, 51, 0
4, 42499, Note_on_c, 9, 51, 71
4, 42513, Note_on_c, 9, 51, 0
4, 42600, Note_on_c, 9, 42, 91
4, 42610, Note_on_c, 9, 42, 0
4, 42617, Note_on_c, 9, 51, 102
4, 42657, Note_on_c, 9, 51, 0
4, 42722, Note_on_c, 9, 51, 56
4, 42747, Note_on_c, 9, 51, 0
4, 42840, Note_on_c, 9, 42, 89
4, 42846, Note_on_c, 9, 51, 99
4, 42850, Note_on_c, 9, 42, 0
4, 42892, Note_on_c, 9, 51, 0
4, 42958, Note_on_c, 9, 51, 51
4, 42978, Note_on_c, 9, 51, 0
4, 43080, Note_on_c, 9, 42, 90
4, 43082, Note_on_c, 9, 51, 98
4, 43090, Note_on_c, 9, 42, 0
4, 43126, Note_on_c, 9, 51, 0
4, 43192, Note_on_c, 9, 51, 48
4, 43223, Note_on_c, 9, 51, 0
4, 43320, Note_on_c, 9, 42, 89
4, 43325, Note_on_c, 9, 51, 71
4, 43330, Note_on_c, 9, 42, 0
4, 43368, Note_on_c, 9, 51, 0
4, 43447, Note_on_c, 9, 51, 56
4, 43482, Note_on_c, 9, 51, 0
4, 43560, Note_on_c, 9, 42, 89
4, 43570, Note_on_c, 9, 42, 0
4, 43574, Note_on_c, 9, 51, 77
4, 43625, Note_on_c, 9, 51, 0
4, 43688, Note_on_c, 9, 51, 53
4, 43722, Note_on_c, 9, 51, 0
4, 43800, Note_on_c, 9, 42, 91
4, 43810, Note_on_c, 9, 42, 0
4, 43815, Note_on_c, 9, 51, 79
4, 43860, Note_on_c, 9, 51, 0
4, 43899, Note_on_c, 9, 51, 50
4, 43919, Note_on_c, 9, 51, 0
4, 43941, Note_on_c, 9, 51, 83
4, 43982, Note_on_c, 9, 51, 0
4, 44040, Note_on_c, 9, 42, 91
4, 44050, Note_on_c, 9, 42, 0
4, 44059, Note_on_c, 9, 51, 83
4, 44099, Note_on_c, 9, 51, 0
4, 44173, Note_on_c, 9, 51, 53
4, 44206, Note_on_c, 9, 51, 0
4, 44280, Note_on_c, 9, 42, 91
4, 44289, Note_on_c, 9, 51, 86
4, 44290, Note_on_c, 9, 42, 0
4, 44328, Note_on_c, 9, 51, 0
4, 44403, Note_on_c, 9, 51, 83
4, 44445, Note_on_c, 9, 51, 0
4, 44520, Note_on_c, 9, 42, 91
4, 44530, Note_on_c, 9, 42, 0
4, 44530, Note_on_c, 9, 51, 85
4, 44575, Note_on_c, 9, 51, 0
4, 44645, Note_on_c, 9, 51, 81
4, 44690, Note_on_c, 9, 51, 0
4, 44760, Note_on_c, 9, 42, 90
4, 44768, Note_on_c, 9, 51, 82
4, 44770, Note_on_c, 9, 42, 0
4, 44807, Note_on_c, 9, 51, 0
4, 44886, Note_on_c, 9, 51, 81
4, 44925, Note_on_c, 9, 51, 0
4, 45000, Note_on_c, 9, 42, 91
4, 45003, Note_on_c, 9, 51, 81
4, 45010, Note_on_c, 9, 42, 0
4, 45039, Note_on_c, 9, 51, 0
4, 45125, Note_on_c, 9, 51, 83
4, 45173, Note_on_c, 9, 51, 0
4, 45240, Note_on_c, 9, 42, 90
4, 45241, Note_on_c, 9, 51, 77
4, 45250, Note_on_c, 9, 42, 0
4, 45278, Note_on_c, 9, 51, 0
4, 45367, Note_on_c, 9, 51, 83
4, 45406, Note_on_c, 9, 51, 0
4, 45480, Note_on_c, 9, 42, 89
4, 45483, Note_on_c, 9, 51, 78
4, 45490, Note_on_c, 9, 42, 0
4, 45525, Note_on_c, 9, 51, 0
4, 45591, Note_on_c, 9, 51, 68
4, 45627, Note_on_c, 9, 51, 0
4, 45717, Note_on_c, 9, 51, 87
4, 45720, Note_on_c, 9, 42, 90
4, 45730, Note_on_c, 9, 42, 0
4, 45764, Note_on_c, 9, 51, 0
4, 45837, Note_on_c, 9, 51, 79
4, 45877, Note_on_c, 9, 51, 0
4, 45960, Note_on_c, 9, 42, 88
4, 45964, Note_on_c, 9, 51, 87
4, 45970, Note_on_c, 9, 42, 0
4, 46007, Note_on_c, 9, 51, 0
4, 46074, Note_on_c, 9, 51, 78
4, 46113, Note_on_c, 9, 51, 0
4, 46200, Note_on_c, 9, 42, 90
4, 46210, Note_on_c, 9, 42, 0
4, 46217, Note_on_c, 9, 51, 83
4, 46255, Note_on_c, 9, 51, 0
4, 46338, Note_on_c, 9, 51, 77
4, 46376, Note_on_c, 9, 51, 0
4, 46440, Note_on_c, 9, 42, 89
4, 46450, Note_on_c, 9, 42, 0
4, 46455, Note_on_c, 9, 51, 77
4, 46488, Note_on_c, 9, 51, 0
4, 46584, Note_on_c, 9, 51, 62
4, 46629, Note_on_c, 9, 51, 0
4, 46680, Note_on_c, 9, 42, 90
4, 46689, Note_on_c, 9, 51, 57
4, 46690, Note_on_c, 9, 42, 0
4, 46746, Note_on_c, 9, 51, 0
4, 46920, Note_on_c, 9, 42, 88
4, 46925, Note_on_c, 9, 51, 71
4, 46930, Note_on_c, 9, 42, 0
4, 46980, Note_on_c, 9, 51, 0
4, 47061, Note_on_c, 9, 51, 72
4, 47108, Note_on_c, 9, 51, 0
4, 47160, Note_on_c, 9, 42, 90
4, 47170, Note_on_c, 9, 42, 0
4, 47177, Note_on_c, 9, 51, 65
4, 47229, Note_on_c, 9, 51, 0
4, 47400, Note_on_c, 9, 42, 89
4, 47410, Note_on_c, 9, 42, 0
4, 47640, Note_on_c, 9, 42, 91
4, 47650, Note_on_c, 9, 42, 0
4, 47880, Note_on_c, 9, 42, 88
4, 47890, Note_on_c, 9, 42, 0
4, 48120, Note_on_c, 9, 42, 76
4, 48130, Note_on_c, 9, 42, 0
4, 48360, Note_on_c, 9, 42, 66
4, 48370, Note_on_c, 9, 42, 0
4, 48600, Note_on_c, 9, 42, 56
4, 48610, Note_on_c, 9, 42, 0
4, 48840, Note_on_c, 9, 42, 45
4, 48850, Note_on_c, 9, 42, 0
4, 49080, Note_on_c, 9, 42, 20
4, 49090, Note_on_c, 9, 42, 0
4, 49320, Note_on_c, 9, 42, 14
4, 49330, Note_on_c, 9, 42, 0
4, 49330, End_track
5, 0, Start_track
5, 0, MIDI_port, 0
5, 0, Title_t, ""
5, 0, End_track
0, 0, End_of_file
