0, 0, Header, 1, 4, 960
1, 0, Start_track
1, 0, Title_t, "Miyako"
1, 0, Text_t, "Wayne Shorter dougmck@pipeline.com.au   Leadsheet in old (illegal) Real Book page 297\012"
1, 0, Time_signature, 3, 2, 24, 8
1, 0, Key_signature, 5, "major"
1, 0, Tempo, 659341
1, 0, Marker_t, "Intro"
1, 23040, Marker_t, "Head"
1, 264559, Tempo, 659341
1, 264960, Key_signature, 0, "major"
1, 264960, End_track
2, 0, Start_track
2, 0, Title_t, "Acoustic Piano"
2, 0, Control_c, 0, 0, 0
2, 0, Control_c, 0, 32, 0
2, 0, Program_c, 0, 0
2, 0, Note_on_c, 0, 86, 49
2, 29, Note_on_c, 0, 75, 32
2, 42, Note_on_c, 0, 79, 33
2, 59, Note_on_c, 0, 72, 31
2, 103, Note_on_c, 0, 82, 32
2, 112, Control_c, 0, 64, 0
2, 550, Control_c, 0, 64, 127
2, 1121, Note_on_c, 0, 84, 36
2, 2165, Note_on_c, 0, 75, 0
2, 2204, Note_on_c, 0, 82, 0
2, 2275, Note_on_c, 0, 79, 0
2, 2425, Note_on_c, 0, 86, 0
2, 2558, Note_on_c, 0, 72, 0
2, 2826, Note_on_c, 0, 84, 0
2, 2945, Note_on_c, 0, 87, 47
2, 2965, Note_on_c, 0, 84, 18
2, 2974, Control_c, 0, 64, 0
2, 2990, Note_on_c, 0, 81, 31
2, 2992, Note_on_c, 0, 77, 33
2, 3025, Note_on_c, 0, 78, 27
2, 3367, Control_c, 0, 64, 127
2, 3423, Note_on_c, 0, 87, 0
2, 3439, Note_on_c, 0, 78, 0
2, 3481, Note_on_c, 0, 77, 0
2, 3495, Note_on_c, 0, 81, 0
2, 3548, Note_on_c, 0, 84, 0
2, 3712, Note_on_c, 0, 87, 33
2, 3714, Note_on_c, 0, 81, 37
2, 3734, Note_on_c, 0, 77, 27
2, 3752, Note_on_c, 0, 84, 21
2, 3781, Note_on_c, 0, 78, 29
2, 3801, Note_on_c, 0, 77, 0
2, 3808, Note_on_c, 0, 87, 0
2, 3833, Note_on_c, 0, 84, 0
2, 3874, Note_on_c, 0, 78, 0
2, 3900, Note_on_c, 0, 81, 0
2, 4583, Note_on_c, 0, 75, 56
2, 4612, Note_on_c, 0, 72, 38
2, 4628, Note_on_c, 0, 66, 39
2, 4635, Note_on_c, 0, 69, 36
2, 4637, Note_on_c, 0, 65, 49
2, 4948, Note_on_c, 0, 65, 0
2, 4970, Note_on_c, 0, 66, 0
2, 4979, Note_on_c, 0, 69, 0
2, 5002, Note_on_c, 0, 72, 0
2, 5007, Note_on_c, 0, 75, 0
2, 5244, Note_on_c, 0, 75, 52
2, 5251, Note_on_c, 0, 69, 53
2, 5253, Note_on_c, 0, 72, 36
2, 5263, Note_on_c, 0, 65, 32
2, 5270, Note_on_c, 0, 66, 54
2, 5356, Note_on_c, 0, 65, 0
2, 5455, Note_on_c, 0, 66, 0
2, 5589, Note_on_c, 0, 72, 0
2, 5609, Note_on_c, 0, 69, 0
2, 5674, Note_on_c, 0, 75, 0
2, 5848, Control_c, 0, 64, 0
2, 5863, Note_on_c, 0, 75, 52
2, 5895, Note_on_c, 0, 63, 37
2, 5904, Note_on_c, 0, 71, 42
2, 5908, Note_on_c, 0, 64, 34
2, 5909, Note_on_c, 0, 68, 47
2, 6241, Control_c, 0, 64, 127
2, 6847, Note_on_c, 0, 73, 27
2, 6978, Note_on_c, 0, 75, 0
2, 7332, Note_on_c, 0, 68, 0
2, 7427, Note_on_c, 0, 71, 0
2, 7502, Note_on_c, 0, 68, 18
2, 7627, Note_on_c, 0, 64, 0
2, 7891, Note_on_c, 0, 63, 0
2, 8083, Note_on_c, 0, 64, 40
2, 8194, Note_on_c, 0, 68, 0
2, 8369, Note_on_c, 0, 73, 0
2, 8374, Note_on_c, 0, 64, 0
2, 8680, Note_on_c, 0, 75, 36
2, 8686, Note_on_c, 0, 64, 32
2, 8687, Note_on_c, 0, 67, 33
2, 8705, Note_on_c, 0, 70, 44
2, 8709, Control_c, 0, 64, 0
2, 8711, Note_on_c, 0, 63, 26
2, 9161, Control_c, 0, 64, 127
2, 9376, Note_on_c, 0, 75, 0
2, 9394, Control_c, 0, 64, 0
2, 9402, Note_on_c, 0, 73, 41
2, 9447, Note_on_c, 0, 54, 24
2, 9627, Control_c, 0, 64, 127
2, 9845, Note_on_c, 0, 67, 0
2, 9947, Note_on_c, 0, 64, 0
2, 10101, Note_on_c, 0, 70, 0
2, 10130, Note_on_c, 0, 67, 37
2, 10148, Note_on_c, 0, 73, 0
2, 10175, Note_on_c, 0, 64, 11
2, 10452, Note_on_c, 0, 64, 0
2, 10558, Note_on_c, 0, 67, 0
2, 10783, Note_on_c, 0, 75, 88
2, 11100, Note_on_c, 0, 54, 0
2, 11155, Note_on_c, 0, 63, 0
2, 11238, Note_on_c, 0, 75, 0
2, 11320, Note_on_c, 0, 73, 63
2, 11365, Note_on_c, 0, 75, 26
2, 11428, Note_on_c, 0, 75, 0
2, 11709, Note_on_c, 0, 73, 0
2, 11749, Note_on_c, 0, 60, 40
2, 11773, Control_c, 0, 64, 0
2, 11792, Note_on_c, 0, 75, 37
2, 11809, Note_on_c, 0, 63, 26
2, 11819, Note_on_c, 0, 67, 23
2, 12182, Control_c, 0, 64, 127
2, 12265, Note_on_c, 0, 75, 0
2, 12483, Note_on_c, 0, 75, 51
2, 12975, Note_on_c, 0, 75, 0
2, 13221, Note_on_c, 0, 75, 39
2, 13501, Note_on_c, 0, 75, 0
2, 13714, Note_on_c, 0, 63, 0
2, 13849, Note_on_c, 0, 75, 42
2, 13880, Note_on_c, 0, 67, 0
2, 13964, Note_on_c, 0, 60, 0
2, 14104, Note_on_c, 0, 75, 0
2, 14370, Control_c, 0, 64, 0
2, 14394, Note_on_c, 0, 75, 43
2, 14411, Note_on_c, 0, 66, 26
2, 14418, Note_on_c, 0, 72, 29
2, 14420, Note_on_c, 0, 69, 35
2, 14460, Note_on_c, 0, 65, 25
2, 14517, Note_on_c, 0, 66, 0
2, 14551, Note_on_c, 0, 69, 0
2, 14561, Note_on_c, 0, 72, 0
2, 14564, Note_on_c, 0, 65, 0
2, 14592, Note_on_c, 0, 75, 0
2, 15011, Note_on_c, 0, 75, 25
2, 15018, Note_on_c, 0, 66, 19
2, 15018, Note_on_c, 0, 72, 26
2, 15046, Note_on_c, 0, 69, 25
2, 15053, Note_on_c, 0, 65, 19
2, 15117, Note_on_c, 0, 69, 0
2, 15126, Note_on_c, 0, 66, 0
2, 15145, Note_on_c, 0, 65, 0
2, 15148, Note_on_c, 0, 72, 0
2, 15162, Note_on_c, 0, 75, 0
2, 15788, Note_on_c, 0, 75, 38
2, 15810, Note_on_c, 0, 66, 25
2, 15825, Note_on_c, 0, 72, 29
2, 15831, Note_on_c, 0, 69, 33
2, 15841, Note_on_c, 0, 65, 30
2, 15909, Note_on_c, 0, 66, 0
2, 15914, Note_on_c, 0, 69, 0
2, 15934, Note_on_c, 0, 72, 0
2, 15935, Note_on_c, 0, 65, 0
2, 15967, Note_on_c, 0, 75, 0
2, 16093, Control_c, 0, 64, 127
2, 16416, Note_on_c, 0, 75, 35
2, 16426, Note_on_c, 0, 72, 26
2, 16430, Note_on_c, 0, 66, 32
2, 16439, Note_on_c, 0, 69, 33
2, 16441, Note_on_c, 0, 65, 27
2, 16531, Note_on_c, 0, 66, 0
2, 16589, Note_on_c, 0, 69, 0
2, 16605, Note_on_c, 0, 75, 0
2, 16607, Note_on_c, 0, 72, 0
2, 16909, Control_c, 0, 64, 0
2, 16931, Note_on_c, 0, 65, 0
2, 16978, Note_on_c, 0, 78, 62
2, 16987, Note_on_c, 0, 71, 60
2, 16988, Note_on_c, 0, 66, 51
2, 17004, Note_on_c, 0, 75, 55
2, 17008, Note_on_c, 0, 68, 57
2, 17084, Control_c, 0, 64, 127
2, 17113, Note_on_c, 0, 75, 0
2, 17134, Note_on_c, 0, 71, 0
2, 17135, Note_on_c, 0, 66, 0
2, 17145, Note_on_c, 0, 78, 0
2, 17195, Note_on_c, 0, 68, 0
2, 17377, Control_c, 0, 64, 0
2, 17431, Note_on_c, 0, 75, 54
2, 17445, Note_on_c, 0, 63, 40
2, 17445, Note_on_c, 0, 68, 46
2, 17458, Note_on_c, 0, 71, 37
2, 17470, Note_on_c, 0, 64, 34
2, 17902, Control_c, 0, 64, 127
2, 18151, Note_on_c, 0, 64, 0
2, 18198, Note_on_c, 0, 71, 0
2, 18210, Note_on_c, 0, 68, 0
2, 18415, Note_on_c, 0, 68, 36
2, 18418, Note_on_c, 0, 64, 34
2, 18430, Note_on_c, 0, 71, 31
2, 18435, Note_on_c, 0, 59, 32
2, 18444, Control_c, 0, 64, 0
2, 18734, Control_c, 0, 64, 127
2, 19105, Note_on_c, 0, 68, 0
2, 19150, Note_on_c, 0, 64, 0
2, 19319, Note_on_c, 0, 68, 24
2, 19325, Note_on_c, 0, 71, 0
2, 19332, Note_on_c, 0, 59, 0
2, 19345, Note_on_c, 0, 64, 17
2, 19462, Note_on_c, 0, 63, 0
2, 19669, Note_on_c, 0, 64, 0
2, 19688, Note_on_c, 0, 68, 0
2, 19842, Note_on_c, 0, 75, 0
2, 20149, Control_c, 0, 64, 0
2, 20158, Note_on_c, 0, 75, 36
2, 20168, Note_on_c, 0, 64, 33
2, 20175, Note_on_c, 0, 67, 34
2, 20178, Note_on_c, 0, 70, 47
2, 20191, Note_on_c, 0, 63, 34
2, 20354, Control_c, 0, 64, 127
2, 20383, Note_on_c, 0, 63, 0
2, 21186, Note_on_c, 0, 30, 58
2, 21215, Control_c, 0, 64, 0
2, 21326, Note_on_c, 0, 30, 0
2, 21390, Control_c, 0, 64, 127
2, 21687, Note_on_c, 0, 75, 0
2, 21720, Note_on_c, 0, 70, 0
2, 21754, Note_on_c, 0, 67, 0
2, 21825, Note_on_c, 0, 64, 0
2, 22135, Note_on_c, 0, 59, 73
2, 22308, Control_c, 0, 64, 0
2, 22972, Note_on_c, 0, 59, 0
2, 23040, Control_c, 0, 64, 0
2, 23053, Note_on_c, 0, 51, 34
2, 23067, Note_on_c, 0, 80, 72
2, 23076, Note_on_c, 0, 57, 32
2, 23079, Note_on_c, 0, 61, 45
2, 23095, Note_on_c, 0, 73, 57
2, 23096, Note_on_c, 0, 56, 30
2, 23163, Note_on_c, 0, 68, 30
2, 23334, Control_c, 0, 64, 127
2, 23562, Note_on_c, 0, 80, 0
2, 23587, Note_on_c, 0, 68, 0
2, 23717, Note_on_c, 0, 61, 0
2, 23753, Note_on_c, 0, 73, 0
2, 23799, Note_on_c, 0, 61, 35
2, 23801, Note_on_c, 0, 81, 68
2, 23808, Note_on_c, 0, 73, 28
2, 23845, Note_on_c, 0, 69, 31
2, 24260, Note_on_c, 0, 57, 0
2, 24270, Note_on_c, 0, 61, 0
2, 24759, Note_on_c, 0, 61, 36
2, 24784, Note_on_c, 0, 57, 31
2, 24846, Note_on_c, 0, 81, 0
2, 24906, Note_on_c, 0, 61, 0
2, 24924, Note_on_c, 0, 69, 0
2, 24940, Note_on_c, 0, 57, 0
2, 24942, Note_on_c, 0, 73, 0
2, 24970, Note_on_c, 0, 56, 0
2, 24988, Note_on_c, 0, 51, 0
2, 25542, Note_on_c, 0, 78, 58
2, 25700, Control_c, 0, 64, 0
2, 25810, Note_on_c, 0, 78, 0
2, 25931, Note_on_c, 0, 61, 32
2, 25938, Note_on_c, 0, 57, 31
2, 25944, Note_on_c, 0, 51, 32
2, 25946, Note_on_c, 0, 80, 60
2, 25956, Note_on_c, 0, 73, 53
2, 25959, Note_on_c, 0, 56, 32
2, 25967, Note_on_c, 0, 68, 40
2, 26007, Control_c, 0, 64, 127
2, 26155, Note_on_c, 0, 68, 0
2, 26186, Note_on_c, 0, 73, 0
2, 26251, Note_on_c, 0, 80, 0
2, 26263, Note_on_c, 0, 57, 0
2, 26317, Note_on_c, 0, 61, 0
2, 26327, Note_on_c, 0, 56, 0
2, 26426, Note_on_c, 0, 51, 0
2, 26745, Note_on_c, 0, 51, 37
2, 26783, Note_on_c, 0, 56, 30
2, 26790, Note_on_c, 0, 73, 57
2, 26822, Note_on_c, 0, 57, 45
2, 26861, Note_on_c, 0, 78, 46
2, 26892, Note_on_c, 0, 61, 48
2, 26899, Note_on_c, 0, 85, 71
2, 26926, Control_c, 0, 64, 0
2, 27438, Control_c, 0, 64, 127
2, 28855, Control_c, 0, 64, 0
2, 28891, Note_on_c, 0, 51, 0
2, 28901, Note_on_c, 0, 56, 0
2, 28919, Note_on_c, 0, 57, 0
2, 28925, Note_on_c, 0, 78, 0
2, 28928, Note_on_c, 0, 73, 0
2, 28941, Note_on_c, 0, 61, 0
2, 28944, Note_on_c, 0, 85, 0
2, 29704, Note_on_c, 0, 56, 46
2, 29745, Note_on_c, 0, 73, 47
2, 29774, Note_on_c, 0, 82, 49
2, 29787, Note_on_c, 0, 75, 42
2, 32442, Control_c, 0, 64, 127
2, 32487, Note_on_c, 0, 82, 0
2, 32507, Note_on_c, 0, 75, 0
2, 32545, Note_on_c, 0, 73, 0
2, 33420, Note_on_c, 0, 56, 0
2, 34201, Note_on_c, 0, 61, 85
2, 34372, Note_on_c, 0, 61, 0
2, 34590, Control_c, 0, 64, 0
2, 34618, Note_on_c, 0, 64, 64
2, 34653, Note_on_c, 0, 54, 49
2, 34660, Note_on_c, 0, 61, 49
2, 34663, Note_on_c, 0, 42, 35
2, 34674, Note_on_c, 0, 57, 38
2, 34679, Note_on_c, 0, 52, 34
2, 35462, Control_c, 0, 64, 127
2, 35734, Note_on_c, 0, 54, 0
2, 35874, Note_on_c, 0, 57, 0
2, 35877, Note_on_c, 0, 61, 0
2, 36066, Note_on_c, 0, 64, 0
2, 36291, Note_on_c, 0, 52, 0
2, 36305, Note_on_c, 0, 42, 0
2, 36857, Note_on_c, 0, 66, 56
2, 37043, Note_on_c, 0, 66, 0
2, 37128, Note_on_c, 0, 68, 60
2, 37364, Note_on_c, 0, 68, 0
2, 37406, Control_c, 0, 64, 0
2, 37468, Note_on_c, 0, 70, 66
2, 37473, Note_on_c, 0, 67, 57
2, 37480, Note_on_c, 0, 60, 57
2, 37492, Note_on_c, 0, 63, 66
2, 37499, Note_on_c, 0, 56, 51
2, 37500, Note_on_c, 0, 58, 62
2, 37878, Note_on_c, 0, 63, 0
2, 37892, Note_on_c, 0, 56, 0
2, 37904, Note_on_c, 0, 70, 0
2, 37907, Note_on_c, 0, 67, 0
2, 37915, Note_on_c, 0, 60, 0
2, 37943, Note_on_c, 0, 58, 0
2, 38028, Note_on_c, 0, 60, 52
2, 38028, Note_on_c, 0, 70, 60
2, 38036, Note_on_c, 0, 67, 38
2, 38038, Note_on_c, 0, 63, 47
2, 38064, Note_on_c, 0, 58, 53
2, 38079, Note_on_c, 0, 56, 34
2, 38393, Note_on_c, 0, 56, 0
2, 38396, Note_on_c, 0, 60, 0
2, 38400, Note_on_c, 0, 67, 0
2, 38405, Note_on_c, 0, 63, 0
2, 38431, Note_on_c, 0, 58, 0
2, 38438, Note_on_c, 0, 70, 0
2, 38579, Note_on_c, 0, 60, 33
2, 38582, Note_on_c, 0, 70, 43
2, 38606, Note_on_c, 0, 67, 36
2, 38607, Note_on_c, 0, 63, 39
2, 38613, Note_on_c, 0, 58, 33
2, 38626, Note_on_c, 0, 56, 36
2, 38987, Note_on_c, 0, 63, 0
2, 38988, Note_on_c, 0, 60, 0
2, 38990, Note_on_c, 0, 56, 0
2, 38997, Note_on_c, 0, 67, 0
2, 39007, Note_on_c, 0, 58, 0
2, 39021, Note_on_c, 0, 70, 0
2, 39178, Note_on_c, 0, 60, 33
2, 39182, Note_on_c, 0, 70, 36
2, 39208, Note_on_c, 0, 58, 41
2, 39210, Note_on_c, 0, 63, 42
2, 39217, Note_on_c, 0, 67, 37
2, 39259, Note_on_c, 0, 56, 31
2, 39495, Note_on_c, 0, 56, 0
2, 39502, Note_on_c, 0, 60, 0
2, 39537, Note_on_c, 0, 63, 0
2, 39540, Note_on_c, 0, 67, 0
2, 39561, Note_on_c, 0, 70, 0
2, 39565, Note_on_c, 0, 58, 0
2, 39762, Note_on_c, 0, 58, 35
2, 39765, Note_on_c, 0, 60, 25
2, 39769, Note_on_c, 0, 67, 33
2, 39779, Note_on_c, 0, 70, 37
2, 39781, Note_on_c, 0, 63, 34
2, 39872, Note_on_c, 0, 60, 0
2, 39896, Note_on_c, 0, 63, 0
2, 39923, Note_on_c, 0, 70, 0
2, 39928, Note_on_c, 0, 67, 0
2, 39942, Note_on_c, 0, 58, 0
2, 40059, Note_on_c, 0, 60, 33
2, 40076, Note_on_c, 0, 70, 41
2, 40078, Note_on_c, 0, 67, 40
2, 40168, Note_on_c, 0, 70, 0
2, 40239, Note_on_c, 0, 60, 0
2, 40257, Note_on_c, 0, 67, 0
2, 40414, Note_on_c, 0, 71, 39
2, 40417, Note_on_c, 0, 62, 26
2, 40427, Note_on_c, 0, 59, 30
2, 40431, Note_on_c, 0, 55, 45
2, 40434, Note_on_c, 0, 67, 45
2, 40669, Note_on_c, 0, 71, 0
2, 40670, Note_on_c, 0, 59, 0
2, 40676, Note_on_c, 0, 67, 0
2, 40680, Note_on_c, 0, 62, 0
2, 40691, Note_on_c, 0, 55, 0
2, 40989, Note_on_c, 0, 71, 36
2, 41018, Note_on_c, 0, 62, 25
2, 41020, Note_on_c, 0, 67, 44
2, 41028, Note_on_c, 0, 59, 32
2, 41036, Note_on_c, 0, 55, 38
2, 41221, Note_on_c, 0, 67, 0
2, 41232, Note_on_c, 0, 59, 0
2, 41251, Note_on_c, 0, 55, 0
2, 41280, Note_on_c, 0, 71, 0
2, 41288, Note_on_c, 0, 62, 0
2, 41574, Note_on_c, 0, 71, 36
2, 41583, Note_on_c, 0, 62, 33
2, 41590, Note_on_c, 0, 59, 31
2, 41599, Note_on_c, 0, 67, 39
2, 41606, Note_on_c, 0, 55, 34
2, 41743, Control_c, 0, 64, 127
2, 42219, Note_on_c, 0, 71, 0
2, 42356, Note_on_c, 0, 59, 0
2, 42358, Note_on_c, 0, 71, 46
2, 42483, Note_on_c, 0, 55, 0
2, 42783, Note_on_c, 0, 62, 0
2, 42923, Note_on_c, 0, 71, 0
2, 43108, Note_on_c, 0, 67, 0
2, 43260, Control_c, 0, 64, 0
2, 43288, Note_on_c, 0, 71, 34
2, 43313, Note_on_c, 0, 66, 34
2, 43314, Note_on_c, 0, 61, 34
2, 43322, Note_on_c, 0, 55, 28
2, 43326, Note_on_c, 0, 45, 28
2, 43699, Control_c, 0, 64, 127
2, 44064, Note_on_c, 0, 61, 0
2, 44234, Note_on_c, 0, 66, 0
2, 44299, Note_on_c, 0, 71, 0
2, 44581, Note_on_c, 0, 45, 0
2, 44622, Note_on_c, 0, 55, 0
2, 45609, Note_on_c, 0, 81, 80
2, 45660, Note_on_c, 0, 55, 59
2, 45661, Note_on_c, 0, 76, 61
2, 45669, Note_on_c, 0, 79, 45
2, 45683, Note_on_c, 0, 60, 42
2, 45685, Note_on_c, 0, 65, 53
2, 45686, Note_on_c, 0, 73, 72
2, 45709, Note_on_c, 0, 62, 42
2, 45781, Note_on_c, 0, 69, 30
2, 45929, Note_on_c, 0, 81, 0
2, 45950, Note_on_c, 0, 65, 0
2, 45986, Note_on_c, 0, 73, 0
2, 46012, Note_on_c, 0, 76, 0
2, 46024, Note_on_c, 0, 69, 0
2, 46031, Note_on_c, 0, 79, 0
2, 46053, Note_on_c, 0, 62, 0
2, 46066, Note_on_c, 0, 55, 0
2, 46072, Note_on_c, 0, 60, 0
2, 46181, Control_c, 0, 64, 0
2, 46190, Note_on_c, 0, 78, 65
2, 46203, Note_on_c, 0, 73, 62
2, 46212, Note_on_c, 0, 64, 48
2, 46225, Note_on_c, 0, 61, 41
2, 46226, Note_on_c, 0, 54, 43
2, 46228, Note_on_c, 0, 66, 53
2, 46258, Note_on_c, 0, 59, 40
2, 46532, Control_c, 0, 64, 127
2, 47052, Note_on_c, 0, 78, 0
2, 47141, Note_on_c, 0, 66, 0
2, 47308, Note_on_c, 0, 73, 0
2, 47310, Note_on_c, 0, 61, 0
2, 47326, Note_on_c, 0, 64, 0
2, 47607, Note_on_c, 0, 79, 81
2, 47628, Note_on_c, 0, 64, 48
2, 47652, Note_on_c, 0, 61, 39
2, 48000, Note_on_c, 0, 64, 0
2, 48011, Note_on_c, 0, 79, 0
2, 48019, Note_on_c, 0, 61, 0
2, 48090, Note_on_c, 0, 59, 0
2, 48142, Note_on_c, 0, 54, 0
2, 48268, Note_on_c, 0, 77, 74
2, 48546, Note_on_c, 0, 77, 0
2, 48923, Control_c, 0, 64, 0
2, 48942, Note_on_c, 0, 74, 82
2, 48945, Note_on_c, 0, 78, 77
2, 48952, Note_on_c, 0, 71, 82
2, 48961, Note_on_c, 0, 59, 57
2, 48964, Note_on_c, 0, 62, 60
2, 48971, Note_on_c, 0, 66, 64
2, 49205, Control_c, 0, 64, 127
2, 49409, Note_on_c, 0, 78, 0
2, 49552, Note_on_c, 0, 71, 0
2, 49563, Note_on_c, 0, 74, 0
2, 49683, Note_on_c, 0, 81, 78
2, 49815, Note_on_c, 0, 66, 0
2, 49840, Note_on_c, 0, 81, 0
2, 49962, Note_on_c, 0, 59, 0
2, 50069, Note_on_c, 0, 62, 0
2, 51568, Note_on_c, 0, 74, 60
2, 51600, Note_on_c, 0, 65, 50
2, 51624, Note_on_c, 0, 58, 29
2, 51644, Control_c, 0, 64, 0
2, 51653, Note_on_c, 0, 65, 0
2, 51704, Note_on_c, 0, 58, 0
2, 51739, Note_on_c, 0, 74, 0
2, 51991, Note_on_c, 0, 76, 43
2, 51992, Note_on_c, 0, 67, 34
2, 52008, Note_on_c, 0, 72, 40
2, 52015, Note_on_c, 0, 57, 47
2, 52170, Control_c, 0, 64, 127
2, 53199, Note_on_c, 0, 67, 0
2, 53601, Note_on_c, 0, 76, 0
2, 53650, Note_on_c, 0, 57, 0
2, 53662, Note_on_c, 0, 72, 0
2, 53889, Control_c, 0, 64, 0
2, 53931, Control_c, 0, 64, 127
2, 54226, Control_c, 0, 64, 0
2, 54373, Note_on_c, 0, 72, 33
2, 54375, Note_on_c, 0, 66, 43
2, 54383, Note_on_c, 0, 70, 39
2, 54387, Note_on_c, 0, 56, 42
2, 54445, Note_on_c, 0, 72, 0
2, 54453, Note_on_c, 0, 70, 0
2, 54469, Note_on_c, 0, 66, 0
2, 54645, Note_on_c, 0, 56, 0
2, 54821, Note_on_c, 0, 71, 43
2, 54849, Note_on_c, 0, 66, 38
2, 54860, Note_on_c, 0, 55, 38
2, 54916, Note_on_c, 0, 69, 25
2, 55071, Control_c, 0, 64, 127
2, 55370, Note_on_c, 0, 66, 0
2, 55414, Note_on_c, 0, 71, 0
2, 55430, Note_on_c, 0, 69, 0
2, 55730, Note_on_c, 0, 59, 40
2, 55765, Note_on_c, 0, 61, 34
2, 55799, Note_on_c, 0, 55, 0
2, 55815, Note_on_c, 0, 61, 0
2, 56158, Note_on_c, 0, 59, 0
2, 56322, Note_on_c, 0, 62, 77
2, 56631, Note_on_c, 0, 62, 0
2, 56794, Control_c, 0, 64, 0
2, 56811, Note_on_c, 0, 61, 31
2, 56826, Note_on_c, 0, 58, 53
2, 56832, Note_on_c, 0, 42, 33
2, 56836, Note_on_c, 0, 56, 40
2, 56851, Note_on_c, 0, 52, 32
2, 57145, Control_c, 0, 64, 127
2, 57239, Note_on_c, 0, 56, 0
2, 57337, Note_on_c, 0, 42, 0
2, 57369, Note_on_c, 0, 56, 51
2, 57382, Note_on_c, 0, 58, 0
2, 57400, Note_on_c, 0, 61, 0
2, 57468, Note_on_c, 0, 52, 0
2, 57534, Note_on_c, 0, 56, 0
2, 57701, Control_c, 0, 64, 0
2, 57737, Note_on_c, 0, 63, 64
2, 57739, Note_on_c, 0, 54, 55
2, 57755, Note_on_c, 0, 58, 56
2, 57772, Note_on_c, 0, 47, 43
2, 58037, Control_c, 0, 64, 127
2, 58158, Note_on_c, 0, 58, 0
2, 58173, Note_on_c, 0, 54, 0
2, 58281, Note_on_c, 0, 63, 0
2, 58562, Control_c, 0, 64, 0
2, 58608, Note_on_c, 0, 66, 71
2, 58613, Note_on_c, 0, 61, 80
2, 58617, Note_on_c, 0, 56, 73
2, 58645, Note_on_c, 0, 54, 49
2, 58777, Control_c, 0, 64, 127
2, 59726, Note_on_c, 0, 56, 0
2, 59744, Note_on_c, 0, 54, 0
2, 59830, Note_on_c, 0, 47, 0
2, 59833, Note_on_c, 0, 66, 0
2, 59884, Note_on_c, 0, 61, 0
2, 60384, Control_c, 0, 64, 0
2, 60463, Note_on_c, 0, 68, 68
2, 60470, Note_on_c, 0, 66, 62
2, 60472, Note_on_c, 0, 62, 73
2, 60482, Note_on_c, 0, 59, 69
2, 60513, Note_on_c, 0, 47, 53
2, 60661, Control_c, 0, 64, 127
2, 60757, Note_on_c, 0, 59, 0
2, 60791, Note_on_c, 0, 68, 0
2, 60827, Note_on_c, 0, 66, 0
2, 60837, Note_on_c, 0, 62, 0
2, 61462, Note_on_c, 0, 71, 53
2, 61478, Note_on_c, 0, 62, 38
2, 61479, Control_c, 0, 64, 0
2, 61488, Note_on_c, 0, 59, 34
2, 61492, Note_on_c, 0, 66, 46
2, 61503, Note_on_c, 0, 69, 42
2, 61800, Control_c, 0, 64, 127
2, 61979, Note_on_c, 0, 47, 0
2, 62025, Note_on_c, 0, 62, 0
2, 62063, Note_on_c, 0, 66, 0
2, 62066, Note_on_c, 0, 59, 0
2, 62149, Note_on_c, 0, 71, 0
2, 62289, Note_on_c, 0, 69, 0
2, 63318, Control_c, 0, 64, 0
2, 63372, Note_on_c, 0, 85, 57
2, 63385, Note_on_c, 0, 77, 33
2, 63392, Note_on_c, 0, 73, 39
2, 63406, Note_on_c, 0, 65, 27
2, 63410, Note_on_c, 0, 60, 33
2, 63419, Note_on_c, 0, 56, 33
2, 63442, Note_on_c, 0, 61, 54
2, 63931, Control_c, 0, 64, 127
2, 64106, Note_on_c, 0, 77, 0
2, 64174, Note_on_c, 0, 73, 0
2, 64282, Note_on_c, 0, 85, 0
2, 64774, Note_on_c, 0, 65, 0
2, 65585, Note_on_c, 0, 61, 0
2, 65591, Note_on_c, 0, 56, 0
2, 65825, Note_on_c, 0, 60, 0
2, 65891, Note_on_c, 0, 87, 80
2, 66187, Note_on_c, 0, 78, 35
2, 66200, Note_on_c, 0, 87, 0
2, 66399, Note_on_c, 0, 78, 0
2, 66542, Control_c, 0, 64, 0
2, 66568, Note_on_c, 0, 55, 37
2, 66583, Note_on_c, 0, 90, 66
2, 66584, Note_on_c, 0, 66, 25
2, 66585, Note_on_c, 0, 83, 66
2, 66622, Note_on_c, 0, 61, 38
2, 66817, Note_on_c, 0, 61, 0
2, 66837, Note_on_c, 0, 66, 0
2, 66849, Note_on_c, 0, 83, 0
2, 66858, Note_on_c, 0, 90, 0
2, 66878, Note_on_c, 0, 55, 0
2, 67191, Note_on_c, 0, 66, 32
2, 67194, Note_on_c, 0, 87, 50
2, 67204, Note_on_c, 0, 55, 34
2, 67216, Note_on_c, 0, 83, 45
2, 67229, Note_on_c, 0, 78, 29
2, 67248, Note_on_c, 0, 61, 38
2, 67667, Control_c, 0, 64, 127
2, 68002, Note_on_c, 0, 87, 0
2, 68041, Note_on_c, 0, 66, 0
2, 68044, Note_on_c, 0, 83, 0
2, 68127, Note_on_c, 0, 78, 0
2, 68133, Note_on_c, 0, 61, 0
2, 68567, Note_on_c, 0, 83, 72
2, 68587, Note_on_c, 0, 55, 0
2, 68794, Note_on_c, 0, 83, 0
2, 68835, Note_on_c, 0, 82, 58
2, 69040, Note_on_c, 0, 82, 0
2, 69055, Control_c, 0, 64, 0
2, 69126, Note_on_c, 0, 59, 29
2, 69128, Note_on_c, 0, 83, 68
2, 69135, Note_on_c, 0, 62, 27
2, 69144, Note_on_c, 0, 54, 32
2, 69212, Note_on_c, 0, 56, 27
2, 69324, Note_on_c, 0, 54, 0
2, 69326, Note_on_c, 0, 62, 0
2, 69352, Note_on_c, 0, 83, 0
2, 69359, Note_on_c, 0, 59, 0
2, 69365, Note_on_c, 0, 56, 0
2, 69728, Note_on_c, 0, 83, 60
2, 69730, Note_on_c, 0, 62, 28
2, 69764, Note_on_c, 0, 59, 30
2, 69765, Note_on_c, 0, 56, 38
2, 69793, Note_on_c, 0, 54, 33
2, 69958, Note_on_c, 0, 54, 0
2, 69993, Note_on_c, 0, 62, 0
2, 70025, Note_on_c, 0, 59, 0
2, 70033, Note_on_c, 0, 56, 0
2, 70042, Note_on_c, 0, 83, 0
2, 70196, Note_on_c, 0, 62, 27
2, 70202, Note_on_c, 0, 83, 47
2, 70212, Note_on_c, 0, 54, 30
2, 70214, Note_on_c, 0, 59, 32
2, 70240, Note_on_c, 0, 56, 22
2, 70399, Note_on_c, 0, 83, 0
2, 70407, Note_on_c, 0, 54, 0
2, 70473, Note_on_c, 0, 59, 0
2, 70479, Note_on_c, 0, 62, 0
2, 70547, Note_on_c, 0, 56, 0
2, 71157, Control_c, 0, 64, 127
2, 71450, Note_on_c, 0, 78, 57
2, 71663, Note_on_c, 0, 78, 0
2, 71737, Note_on_c, 0, 76, 51
2, 71880, Note_on_c, 0, 59, 16
2, 71961, Control_c, 0, 64, 0
2, 71964, Note_on_c, 0, 76, 0
2, 72045, Note_on_c, 0, 62, 25
2, 72054, Note_on_c, 0, 77, 48
2, 72094, Note_on_c, 0, 53, 38
2, 72897, Control_c, 0, 64, 127
2, 73066, Note_on_c, 0, 62, 0
2, 73126, Note_on_c, 0, 59, 0
2, 73468, Note_on_c, 0, 77, 0
2, 73577, Note_on_c, 0, 62, 36
2, 73625, Note_on_c, 0, 59, 24
2, 73729, Note_on_c, 0, 62, 0
2, 73756, Control_c, 0, 64, 0
2, 73928, Note_on_c, 0, 59, 0
2, 73956, Note_on_c, 0, 78, 38
2, 74010, Note_on_c, 0, 79, 55
2, 74113, Note_on_c, 0, 78, 0
2, 74132, Note_on_c, 0, 80, 60
2, 74146, Note_on_c, 0, 79, 0
2, 74304, Note_on_c, 0, 80, 0
2, 74404, Note_on_c, 0, 53, 0
2, 74521, Note_on_c, 0, 83, 99
2, 74691, Control_c, 0, 64, 127
2, 74780, Control_c, 0, 64, 0
2, 74829, Note_on_c, 0, 60, 25
2, 74840, Note_on_c, 0, 57, 37
2, 74870, Note_on_c, 0, 52, 15
2, 74885, Note_on_c, 0, 54, 39
2, 75266, Note_on_c, 0, 72, 57
2, 75431, Note_on_c, 0, 72, 0
2, 75841, Note_on_c, 0, 72, 44
2, 75934, Control_c, 0, 64, 127
2, 76197, Note_on_c, 0, 60, 0
2, 76207, Note_on_c, 0, 57, 0
2, 76355, Control_c, 0, 64, 0
2, 76492, Note_on_c, 0, 60, 30
2, 76537, Note_on_c, 0, 57, 37
2, 76674, Control_c, 0, 64, 127
2, 76936, Note_on_c, 0, 83, 0
2, 77095, Note_on_c, 0, 72, 0
2, 77146, Note_on_c, 0, 52, 0
2, 77174, Note_on_c, 0, 60, 0
2, 77182, Note_on_c, 0, 54, 0
2, 77347, Note_on_c, 0, 57, 0
2, 77654, Control_c, 0, 64, 0
2, 77672, Note_on_c, 0, 77, 72
2, 77725, Note_on_c, 0, 73, 74
2, 77741, Note_on_c, 0, 68, 62
2, 77766, Note_on_c, 0, 57, 51
2, 77773, Note_on_c, 0, 63, 47
2, 77932, Control_c, 0, 64, 127
2, 78201, Note_on_c, 0, 57, 0
2, 78453, Note_on_c, 0, 63, 0
2, 78592, Note_on_c, 0, 73, 0
2, 78647, Note_on_c, 0, 77, 0
2, 78648, Note_on_c, 0, 51, 31
2, 78720, Note_on_c, 0, 68, 0
2, 79299, Note_on_c, 0, 69, 48
2, 79321, Note_on_c, 0, 57, 33
2, 79326, Note_on_c, 0, 63, 25
2, 79476, Note_on_c, 0, 69, 0
2, 79547, Note_on_c, 0, 63, 0
2, 79640, Note_on_c, 0, 57, 0
2, 79946, Note_on_c, 0, 69, 53
2, 79963, Note_on_c, 0, 60, 50
2, 79979, Note_on_c, 0, 57, 25
2, 80083, Note_on_c, 0, 57, 0
2, 80122, Note_on_c, 0, 69, 0
2, 80151, Note_on_c, 0, 60, 0
2, 80160, Note_on_c, 0, 51, 0
2, 80559, Control_c, 0, 64, 0
2, 80592, Note_on_c, 0, 66, 65
2, 80600, Note_on_c, 0, 55, 63
2, 80605, Note_on_c, 0, 59, 58
2, 80613, Note_on_c, 0, 62, 56
2, 80633, Note_on_c, 0, 54, 53
2, 81178, Note_on_c, 0, 55, 0
2, 81221, Note_on_c, 0, 66, 0
2, 81295, Note_on_c, 0, 55, 62
2, 81300, Note_on_c, 0, 64, 62
2, 81320, Note_on_c, 0, 52, 45
2, 81322, Note_on_c, 0, 54, 0
2, 81568, Note_on_c, 0, 59, 0
2, 81674, Note_on_c, 0, 55, 0
2, 81780, Note_on_c, 0, 64, 0
2, 81904, Note_on_c, 0, 55, 75
2, 81916, Note_on_c, 0, 66, 57
2, 81920, Note_on_c, 0, 59, 63
2, 81929, Control_c, 0, 64, 127
2, 81938, Note_on_c, 0, 54, 53
2, 81962, Note_on_c, 0, 52, 0
2, 82120, Note_on_c, 0, 55, 0
2, 82134, Note_on_c, 0, 59, 0
2, 82160, Note_on_c, 0, 66, 0
2, 82213, Note_on_c, 0, 62, 0
2, 82245, Note_on_c, 0, 54, 0
2, 82498, Control_c, 0, 64, 0
2, 82583, Note_on_c, 0, 69, 73
2, 82587, Note_on_c, 0, 62, 79
2, 82594, Note_on_c, 0, 57, 78
2, 82597, Note_on_c, 0, 66, 68
2, 82601, Note_on_c, 0, 59, 77
2, 82791, Control_c, 0, 64, 127
2, 83085, Note_on_c, 0, 59, 0
2, 83104, Note_on_c, 0, 57, 0
2, 83139, Note_on_c, 0, 66, 0
2, 83178, Note_on_c, 0, 62, 0
2, 83220, Note_on_c, 0, 69, 0
2, 83565, Control_c, 0, 64, 0
2, 83592, Note_on_c, 0, 71, 59
2, 83608, Note_on_c, 0, 64, 66
2, 83627, Note_on_c, 0, 59, 44
2, 83635, Note_on_c, 0, 50, 35
2, 83653, Note_on_c, 0, 60, 52
2, 84455, Control_c, 0, 64, 127
2, 84539, Note_on_c, 0, 64, 0
2, 84650, Note_on_c, 0, 60, 0
2, 84682, Note_on_c, 0, 59, 0
2, 84981, Note_on_c, 0, 71, 0
2, 85010, Control_c, 0, 64, 0
2, 85061, Note_on_c, 0, 60, 37
2, 85094, Note_on_c, 0, 57, 30
2, 85094, Note_on_c, 0, 65, 45
2, 85259, Control_c, 0, 64, 127
2, 85278, Note_on_c, 0, 65, 0
2, 85326, Note_on_c, 0, 60, 0
2, 85704, Note_on_c, 0, 74, 59
2, 85786, Note_on_c, 0, 57, 0
2, 85851, Note_on_c, 0, 50, 0
2, 85923, Note_on_c, 0, 74, 0
2, 86223, Control_c, 0, 64, 0
2, 86287, Note_on_c, 0, 76, 57
2, 86308, Note_on_c, 0, 68, 46
2, 86310, Note_on_c, 0, 56, 35
2, 86311, Note_on_c, 0, 59, 29
2, 86320, Note_on_c, 0, 49, 40
2, 86528, Control_c, 0, 64, 127
2, 87026, Note_on_c, 0, 64, 49
2, 87336, Note_on_c, 0, 76, 0
2, 87513, Note_on_c, 0, 56, 0
2, 87920, Note_on_c, 0, 64, 0
2, 87938, Note_on_c, 0, 56, 39
2, 88038, Note_on_c, 0, 68, 0
2, 88631, Note_on_c, 0, 49, 0
2, 88696, Note_on_c, 0, 56, 0
2, 88781, Note_on_c, 0, 69, 51
2, 88840, Note_on_c, 0, 59, 0
2, 88886, Note_on_c, 0, 69, 0
2, 88906, Note_on_c, 0, 71, 54
2, 89027, Note_on_c, 0, 69, 31
2, 89038, Note_on_c, 0, 71, 0
2, 89094, Note_on_c, 0, 71, 32
2, 89130, Note_on_c, 0, 69, 0
2, 89252, Note_on_c, 0, 69, 35
2, 89305, Note_on_c, 0, 71, 0
2, 89373, Control_c, 0, 64, 0
2, 89388, Note_on_c, 0, 69, 0
2, 89394, Note_on_c, 0, 68, 44
2, 89477, Note_on_c, 0, 68, 0
2, 89501, Note_on_c, 0, 58, 20
2, 89513, Note_on_c, 0, 69, 31
2, 89515, Note_on_c, 0, 63, 20
2, 89526, Note_on_c, 0, 52, 32
2, 89595, Note_on_c, 0, 70, 62
2, 89602, Note_on_c, 0, 69, 0
2, 90336, Control_c, 0, 64, 127
2, 90452, Note_on_c, 0, 70, 0
2, 90538, Note_on_c, 0, 63, 0
2, 90589, Note_on_c, 0, 58, 0
2, 90950, Control_c, 0, 64, 0
2, 90960, Note_on_c, 0, 75, 80
2, 90975, Note_on_c, 0, 70, 70
2, 90976, Note_on_c, 0, 67, 78
2, 90982, Note_on_c, 0, 64, 85
2, 90994, Note_on_c, 0, 63, 77
2, 91227, Control_c, 0, 64, 127
2, 91284, Note_on_c, 0, 75, 0
2, 91348, Note_on_c, 0, 63, 0
2, 91374, Note_on_c, 0, 67, 0
2, 91390, Note_on_c, 0, 52, 0
2, 91434, Note_on_c, 0, 64, 0
2, 91490, Note_on_c, 0, 70, 0
2, 91572, Note_on_c, 0, 74, 65
2, 91585, Note_on_c, 0, 64, 53
2, 91588, Note_on_c, 0, 67, 45
2, 91589, Note_on_c, 0, 62, 58
2, 91611, Note_on_c, 0, 70, 50
2, 91646, Note_on_c, 0, 72, 23
2, 91693, Note_on_c, 0, 62, 0
2, 91779, Note_on_c, 0, 64, 0
2, 91814, Note_on_c, 0, 67, 0
2, 91828, Note_on_c, 0, 74, 0
2, 91854, Note_on_c, 0, 70, 0
2, 91917, Note_on_c, 0, 72, 0
2, 92132, Control_c, 0, 64, 0
2, 92221, Note_on_c, 0, 75, 64
2, 92233, Note_on_c, 0, 67, 63
2, 92242, Note_on_c, 0, 70, 65
2, 92247, Note_on_c, 0, 63, 67
2, 92250, Note_on_c, 0, 58, 40
2, 92252, Note_on_c, 0, 48, 38
2, 92511, Control_c, 0, 64, 127
2, 92801, Note_on_c, 0, 58, 0
2, 93561, Note_on_c, 0, 63, 0
2, 93597, Note_on_c, 0, 48, 0
2, 93890, Note_on_c, 0, 75, 0
2, 93936, Note_on_c, 0, 67, 0
2, 93951, Note_on_c, 0, 70, 0
2, 94030, Note_on_c, 0, 63, 39
2, 94239, Note_on_c, 0, 63, 0
2, 94986, Note_on_c, 0, 81, 43
2, 94994, Control_c, 0, 64, 0
2, 95010, Note_on_c, 0, 69, 30
2, 95021, Note_on_c, 0, 62, 23
2, 95047, Note_on_c, 0, 57, 42
2, 95058, Note_on_c, 0, 51, 28
2, 95561, Control_c, 0, 64, 127
2, 96327, Note_on_c, 0, 51, 0
2, 96380, Note_on_c, 0, 69, 0
2, 96413, Note_on_c, 0, 57, 0
2, 96534, Note_on_c, 0, 62, 0
2, 96604, Note_on_c, 0, 81, 0
2, 97780, Control_c, 0, 64, 0
2, 97853, Note_on_c, 0, 78, 76
2, 97860, Note_on_c, 0, 75, 67
2, 97862, Note_on_c, 0, 66, 69
2, 97863, Note_on_c, 0, 71, 70
2, 97865, Note_on_c, 0, 68, 75
2, 98035, Note_on_c, 0, 68, 0
2, 98053, Note_on_c, 0, 71, 0
2, 98076, Note_on_c, 0, 75, 0
2, 98083, Note_on_c, 0, 78, 0
2, 98099, Note_on_c, 0, 66, 0
2, 98136, Note_on_c, 0, 64, 47
2, 98403, Note_on_c, 0, 64, 0
2, 98444, Note_on_c, 0, 78, 78
2, 98446, Note_on_c, 0, 75, 74
2, 98447, Note_on_c, 0, 71, 77
2, 98449, Note_on_c, 0, 68, 81
2, 98469, Note_on_c, 0, 66, 77
2, 98778, Control_c, 0, 64, 127
2, 99041, Note_on_c, 0, 66, 0
2, 99295, Note_on_c, 0, 75, 0
2, 99316, Note_on_c, 0, 71, 0
2, 99319, Note_on_c, 0, 78, 0
2, 99379, Note_on_c, 0, 68, 0
2, 99841, Note_on_c, 0, 75, 64
2, 100116, Note_on_c, 0, 75, 0
2, 100800, Control_c, 0, 64, 127
2, 100800, Control_c, 0, 64, 0
2, 101288, Control_c, 0, 64, 0
2, 101404, Note_on_c, 0, 63, 53
2, 101412, Note_on_c, 0, 55, 39
2, 101422, Note_on_c, 0, 52, 25
2, 101435, Note_on_c, 0, 58, 53
2, 101444, Note_on_c, 0, 42, 37
2, 101988, Control_c, 0, 64, 127
2, 102527, Control_c, 0, 64, 0
2, 103280, Note_on_c, 0, 63, 0
2, 103281, Note_on_c, 0, 58, 0
2, 103284, Note_on_c, 0, 61, 60
2, 103299, Note_on_c, 0, 52, 0
2, 103325, Note_on_c, 0, 55, 0
2, 103348, Note_on_c, 0, 42, 0
2, 103360, Note_on_c, 0, 61, 0
2, 104276, Note_on_c, 0, 57, 43
2, 104277, Note_on_c, 0, 61, 41
2, 104302, Note_on_c, 0, 56, 40
2, 104328, Note_on_c, 0, 51, 30
2, 104373, Note_on_c, 0, 56, 0
2, 104382, Note_on_c, 0, 61, 0
2, 104400, Note_on_c, 0, 51, 0
2, 104407, Note_on_c, 0, 57, 0
2, 104606, Note_on_c, 0, 73, 44
2, 104857, Note_on_c, 0, 73, 0
2, 104936, Note_on_c, 0, 77, 47
2, 105040, Note_on_c, 0, 77, 0
2, 105231, Note_on_c, 0, 80, 82
2, 105431, Note_on_c, 0, 80, 0
2, 105554, Note_on_c, 0, 83, 96
2, 105859, Note_on_c, 0, 81, 60
2, 105872, Note_on_c, 0, 83, 0
2, 106125, Note_on_c, 0, 81, 0
2, 106176, Note_on_c, 0, 77, 43
2, 106425, Note_on_c, 0, 77, 0
2, 106489, Note_on_c, 0, 80, 58
2, 106498, Note_on_c, 0, 57, 32
2, 106546, Note_on_c, 0, 56, 20
2, 106549, Note_on_c, 0, 61, 22
2, 106677, Note_on_c, 0, 51, 2
2, 106783, Note_on_c, 0, 80, 0
2, 106808, Note_on_c, 0, 77, 28
2, 107020, Note_on_c, 0, 77, 0
2, 107153, Note_on_c, 0, 78, 66
2, 107401, Note_on_c, 0, 78, 0
2, 107482, Note_on_c, 0, 76, 58
2, 107695, Note_on_c, 0, 76, 0
2, 107817, Note_on_c, 0, 78, 30
2, 107901, Note_on_c, 0, 76, 33
2, 107947, Note_on_c, 0, 78, 0
2, 108104, Note_on_c, 0, 73, 40
2, 108134, Note_on_c, 0, 76, 0
2, 108414, Note_on_c, 0, 73, 0
2, 108446, Note_on_c, 0, 74, 48
2, 108683, Note_on_c, 0, 74, 0
2, 108741, Note_on_c, 0, 75, 34
2, 108795, Note_on_c, 0, 56, 0
2, 108801, Note_on_c, 0, 51, 0
2, 108849, Note_on_c, 0, 57, 0
2, 108912, Note_on_c, 0, 61, 0
2, 108945, Note_on_c, 0, 75, 0
2, 109047, Note_on_c, 0, 78, 63
2, 109344, Note_on_c, 0, 78, 0
2, 109404, Note_on_c, 0, 80, 59
2, 109432, Note_on_c, 0, 65, 38
2, 109443, Note_on_c, 0, 60, 42
2, 109446, Note_on_c, 0, 54, 35
2, 110039, Note_on_c, 0, 81, 57
2, 110056, Note_on_c, 0, 80, 0
2, 110327, Note_on_c, 0, 81, 0
2, 110375, Note_on_c, 0, 80, 47
2, 110618, Note_on_c, 0, 80, 0
2, 110646, Note_on_c, 0, 54, 0
2, 110675, Note_on_c, 0, 60, 0
2, 110688, Note_on_c, 0, 65, 0
2, 111959, Note_on_c, 0, 92, 62
2, 111988, Note_on_c, 0, 84, 68
2, 111997, Note_on_c, 0, 87, 62
2, 111999, Note_on_c, 0, 65, 55
2, 112010, Note_on_c, 0, 80, 63
2, 112012, Note_on_c, 0, 54, 44
2, 112023, Note_on_c, 0, 60, 42
2, 112073, Control_c, 0, 64, 127
2, 112290, Note_on_c, 0, 84, 0
2, 112300, Note_on_c, 0, 80, 0
2, 112307, Note_on_c, 0, 54, 0
2, 112332, Note_on_c, 0, 87, 0
2, 112333, Note_on_c, 0, 65, 0
2, 112339, Note_on_c, 0, 92, 0
2, 112392, Note_on_c, 0, 60, 0
2, 112462, Note_on_c, 0, 92, 61
2, 112492, Note_on_c, 0, 87, 46
2, 112495, Note_on_c, 0, 65, 52
2, 112497, Note_on_c, 0, 84, 52
2, 112497, Note_on_c, 0, 80, 58
2, 112505, Note_on_c, 0, 54, 47
2, 112515, Note_on_c, 0, 60, 46
2, 113983, Note_on_c, 0, 54, 0
2, 113985, Note_on_c, 0, 92, 0
2, 114002, Note_on_c, 0, 65, 0
2, 114027, Note_on_c, 0, 60, 0
2, 114108, Note_on_c, 0, 87, 0
2, 114151, Note_on_c, 0, 84, 0
2, 114186, Note_on_c, 0, 80, 0
2, 115206, Note_on_c, 0, 61, 56
2, 115213, Note_on_c, 0, 76, 88
2, 115222, Note_on_c, 0, 57, 48
2, 115231, Note_on_c, 0, 52, 35
2, 115238, Note_on_c, 0, 56, 44
2, 115254, Control_c, 0, 64, 0
2, 115672, Note_on_c, 0, 75, 50
2, 115727, Note_on_c, 0, 76, 0
2, 115774, Note_on_c, 0, 74, 53
2, 115810, Note_on_c, 0, 75, 0
2, 115976, Note_on_c, 0, 73, 22
2, 116001, Note_on_c, 0, 74, 0
2, 116332, Note_on_c, 0, 73, 0
2, 116521, Note_on_c, 0, 69, 57
2, 116688, Note_on_c, 0, 69, 0
2, 116792, Note_on_c, 0, 68, 34
2, 117099, Note_on_c, 0, 68, 0
2, 117162, Note_on_c, 0, 69, 50
2, 117496, Note_on_c, 0, 56, 0
2, 117527, Note_on_c, 0, 52, 0
2, 117565, Note_on_c, 0, 57, 0
2, 117571, Note_on_c, 0, 61, 0
2, 117804, Note_on_c, 0, 71, 58
2, 117850, Note_on_c, 0, 69, 0
2, 118083, Note_on_c, 0, 71, 0
2, 118139, Note_on_c, 0, 60, 21
2, 118153, Note_on_c, 0, 70, 44
2, 118155, Note_on_c, 0, 58, 41
2, 118166, Note_on_c, 0, 67, 30
2, 118176, Note_on_c, 0, 56, 33
2, 118185, Note_on_c, 0, 63, 28
2, 118447, Note_on_c, 0, 63, 0
2, 118456, Note_on_c, 0, 67, 0
2, 118492, Note_on_c, 0, 70, 0
2, 118503, Note_on_c, 0, 58, 0
2, 118506, Note_on_c, 0, 56, 0
2, 118530, Note_on_c, 0, 60, 0
2, 118798, Note_on_c, 0, 60, 33
2, 118824, Note_on_c, 0, 70, 45
2, 118832, Note_on_c, 0, 63, 33
2, 118849, Note_on_c, 0, 67, 32
2, 118859, Note_on_c, 0, 58, 37
2, 118880, Note_on_c, 0, 56, 33
2, 119126, Control_c, 0, 64, 127
2, 119660, Note_on_c, 0, 58, 0
2, 119699, Note_on_c, 0, 60, 0
2, 119712, Note_on_c, 0, 56, 0
2, 120174, Note_on_c, 0, 70, 0
2, 120210, Note_on_c, 0, 63, 0
2, 120350, Note_on_c, 0, 67, 0
2, 120908, Control_c, 0, 64, 0
2, 120956, Note_on_c, 0, 40, 31
2, 120963, Note_on_c, 0, 62, 31
2, 120970, Note_on_c, 0, 71, 36
2, 120984, Note_on_c, 0, 67, 36
2, 121016, Note_on_c, 0, 47, 22
2, 121221, Note_on_c, 0, 71, 0
2, 121230, Control_c, 0, 64, 127
2, 121278, Note_on_c, 0, 67, 0
2, 121307, Note_on_c, 0, 62, 0
2, 121621, Note_on_c, 0, 54, 51
2, 121828, Note_on_c, 0, 54, 0
2, 121908, Note_on_c, 0, 55, 53
2, 122038, Note_on_c, 0, 55, 0
2, 122166, Note_on_c, 0, 59, 60
2, 122220, Note_on_c, 0, 40, 0
2, 122311, Note_on_c, 0, 59, 0
2, 122383, Note_on_c, 0, 47, 0
2, 122448, Note_on_c, 0, 61, 43
2, 122536, Note_on_c, 0, 61, 0
2, 122655, Note_on_c, 0, 66, 74
2, 122788, Control_c, 0, 64, 0
2, 122911, Note_on_c, 0, 66, 0
2, 122916, Note_on_c, 0, 62, 62
2, 123089, Note_on_c, 0, 62, 0
2, 123144, Note_on_c, 0, 63, 51
2, 123319, Note_on_c, 0, 63, 0
2, 123335, Note_on_c, 0, 64, 53
2, 123530, Note_on_c, 0, 64, 0
2, 123590, Note_on_c, 0, 66, 54
2, 123716, Note_on_c, 0, 66, 0
2, 123878, Note_on_c, 0, 67, 42
2, 123880, Note_on_c, 0, 55, 29
2, 123904, Note_on_c, 0, 61, 30
2, 124076, Note_on_c, 0, 67, 0
2, 124142, Note_on_c, 0, 69, 56
2, 124225, Note_on_c, 0, 61, 0
2, 124305, Note_on_c, 0, 69, 0
2, 124436, Note_on_c, 0, 66, 60
2, 125419, Note_on_c, 0, 61, 39
2, 125512, Note_on_c, 0, 61, 0
2, 125583, Note_on_c, 0, 55, 0
2, 125777, Note_on_c, 0, 65, 48
2, 125809, Note_on_c, 0, 66, 0
2, 125963, Note_on_c, 0, 65, 0
2, 126065, Note_on_c, 0, 68, 78
2, 126327, Note_on_c, 0, 68, 0
2, 126393, Note_on_c, 0, 65, 62
2, 126452, Note_on_c, 0, 64, 30
2, 126454, Note_on_c, 0, 61, 35
2, 126476, Note_on_c, 0, 59, 28
2, 126478, Note_on_c, 0, 54, 29
2, 126630, Note_on_c, 0, 65, 0
2, 126736, Note_on_c, 0, 66, 39
2, 126955, Note_on_c, 0, 66, 0
2, 127074, Note_on_c, 0, 69, 46
2, 127240, Note_on_c, 0, 69, 0
2, 127396, Note_on_c, 0, 73, 59
2, 127620, Note_on_c, 0, 73, 0
2, 127748, Note_on_c, 0, 76, 49
2, 127837, Note_on_c, 0, 61, 0
2, 127872, Note_on_c, 0, 76, 0
2, 127894, Note_on_c, 0, 59, 0
2, 127968, Note_on_c, 0, 54, 0
2, 127983, Note_on_c, 0, 64, 0
2, 128114, Note_on_c, 0, 81, 49
2, 128179, Note_on_c, 0, 81, 0
2, 128405, Note_on_c, 0, 85, 94
2, 128585, Note_on_c, 0, 85, 0
2, 128737, Note_on_c, 0, 88, 96
2, 128920, Note_on_c, 0, 88, 0
2, 129076, Note_on_c, 0, 86, 74
2, 129271, Note_on_c, 0, 86, 0
2, 129376, Note_on_c, 0, 82, 63
2, 129420, Note_on_c, 0, 66, 29
2, 129455, Note_on_c, 0, 62, 23
2, 129457, Note_on_c, 0, 61, 31
2, 129465, Note_on_c, 0, 57, 25
2, 129536, Note_on_c, 0, 61, 0
2, 129548, Note_on_c, 0, 66, 0
2, 129574, Note_on_c, 0, 57, 0
2, 129593, Note_on_c, 0, 62, 0
2, 129655, Note_on_c, 0, 82, 0
2, 129738, Note_on_c, 0, 85, 66
2, 129910, Note_on_c, 0, 85, 0
2, 130073, Note_on_c, 0, 83, 58
2, 130251, Note_on_c, 0, 83, 0
2, 130322, Note_on_c, 0, 78, 48
2, 130461, Note_on_c, 0, 78, 0
2, 130656, Note_on_c, 0, 74, 40
2, 130887, Note_on_c, 0, 74, 0
2, 130995, Note_on_c, 0, 73, 50
2, 131171, Note_on_c, 0, 73, 0
2, 131267, Note_on_c, 0, 76, 80
2, 131529, Note_on_c, 0, 76, 0
2, 131583, Note_on_c, 0, 73, 62
2, 131602, Note_on_c, 0, 62, 31
2, 131604, Note_on_c, 0, 66, 30
2, 131668, Note_on_c, 0, 66, 0
2, 131672, Note_on_c, 0, 62, 0
2, 131787, Note_on_c, 0, 73, 0
2, 131912, Note_on_c, 0, 74, 55
2, 132204, Note_on_c, 0, 74, 0
2, 132244, Note_on_c, 0, 64, 50
2, 132257, Note_on_c, 0, 71, 62
2, 132262, Note_on_c, 0, 60, 40
2, 132271, Note_on_c, 0, 59, 36
2, 132525, Note_on_c, 0, 59, 0
2, 132531, Note_on_c, 0, 64, 0
2, 132540, Note_on_c, 0, 60, 0
2, 132547, Note_on_c, 0, 71, 0
2, 132608, Note_on_c, 0, 72, 35
2, 132854, Note_on_c, 0, 72, 0
2, 132918, Note_on_c, 0, 64, 43
2, 132920, Note_on_c, 0, 60, 39
2, 132932, Note_on_c, 0, 69, 53
2, 132956, Note_on_c, 0, 59, 28
2, 133163, Note_on_c, 0, 64, 0
2, 133182, Note_on_c, 0, 60, 0
2, 133194, Note_on_c, 0, 69, 0
2, 133195, Note_on_c, 0, 59, 0
2, 133237, Note_on_c, 0, 71, 48
2, 133472, Note_on_c, 0, 71, 0
2, 133563, Note_on_c, 0, 60, 31
2, 133566, Note_on_c, 0, 64, 39
2, 133594, Note_on_c, 0, 67, 42
2, 133607, Note_on_c, 0, 59, 30
2, 133840, Note_on_c, 0, 67, 0
2, 133841, Note_on_c, 0, 59, 0
2, 133887, Note_on_c, 0, 60, 0
2, 133890, Note_on_c, 0, 64, 0
2, 133941, Note_on_c, 0, 69, 36
2, 134131, Note_on_c, 0, 69, 0
2, 134205, Note_on_c, 0, 64, 43
2, 134211, Note_on_c, 0, 60, 37
2, 134217, Note_on_c, 0, 66, 47
2, 134339, Note_on_c, 0, 64, 0
2, 134408, Note_on_c, 0, 60, 0
2, 134466, Note_on_c, 0, 66, 0
2, 134535, Note_on_c, 0, 67, 42
2, 134791, Note_on_c, 0, 67, 0
2, 134858, Note_on_c, 0, 64, 68
2, 134884, Note_on_c, 0, 62, 57
2, 134893, Note_on_c, 0, 59, 46
2, 134910, Note_on_c, 0, 57, 43
2, 135044, Note_on_c, 0, 62, 0
2, 135089, Note_on_c, 0, 59, 0
2, 135132, Note_on_c, 0, 57, 0
2, 135149, Note_on_c, 0, 66, 54
2, 135168, Note_on_c, 0, 64, 0
2, 135175, Note_on_c, 0, 67, 28
2, 135239, Note_on_c, 0, 67, 0
2, 135380, Note_on_c, 0, 66, 0
2, 135450, Note_on_c, 0, 62, 55
2, 135493, Note_on_c, 0, 52, 32
2, 135504, Note_on_c, 0, 57, 30
2, 135643, Note_on_c, 0, 57, 0
2, 135663, Note_on_c, 0, 52, 0
2, 135696, Note_on_c, 0, 62, 0
2, 135753, Note_on_c, 0, 64, 37
2, 135970, Note_on_c, 0, 64, 0
2, 136040, Note_on_c, 0, 59, 45
2, 136991, Note_on_c, 0, 43, 35
2, 137106, Note_on_c, 0, 62, 58
2, 137182, Note_on_c, 0, 43, 0
2, 137199, Note_on_c, 0, 59, 0
2, 137403, Note_on_c, 0, 52, 41
2, 137413, Note_on_c, 0, 42, 28
2, 137414, Note_on_c, 0, 61, 72
2, 137423, Note_on_c, 0, 62, 0
2, 137436, Note_on_c, 0, 58, 31
2, 137531, Note_on_c, 0, 42, 0
2, 137538, Note_on_c, 0, 52, 0
2, 137974, Note_on_c, 0, 49, 35
2, 138045, Note_on_c, 0, 58, 0
2, 138195, Note_on_c, 0, 49, 0
2, 138199, Note_on_c, 0, 61, 0
2, 138266, Note_on_c, 0, 63, 50
2, 138278, Note_on_c, 0, 54, 40
2, 138319, Note_on_c, 0, 58, 34
2, 138343, Note_on_c, 0, 47, 34
2, 139160, Note_on_c, 0, 47, 0
2, 139272, Control_c, 0, 64, 127
2, 139336, Note_on_c, 0, 49, 54
2, 139492, Note_on_c, 0, 49, 0
2, 139520, Note_on_c, 0, 54, 0
2, 139700, Note_on_c, 0, 58, 0
2, 139843, Note_on_c, 0, 63, 0
2, 139912, Note_on_c, 0, 49, 56
2, 140064, Note_on_c, 0, 49, 0
2, 140271, Note_on_c, 0, 66, 45
2, 140404, Note_on_c, 0, 66, 0
2, 140577, Note_on_c, 0, 69, 73
2, 140721, Note_on_c, 0, 69, 0
2, 140855, Note_on_c, 0, 70, 84
2, 141022, Note_on_c, 0, 70, 0
2, 141167, Control_c, 0, 64, 0
2, 141194, Note_on_c, 0, 76, 83
2, 141194, Note_on_c, 0, 70, 82
2, 141203, Note_on_c, 0, 66, 81
2, 141207, Note_on_c, 0, 61, 72
2, 141528, Note_on_c, 0, 70, 0
2, 141547, Note_on_c, 0, 61, 0
2, 141548, Note_on_c, 0, 76, 0
2, 141550, Note_on_c, 0, 66, 0
2, 141568, Note_on_c, 0, 58, 32
2, 141842, Note_on_c, 0, 74, 82
2, 141851, Note_on_c, 0, 66, 81
2, 141854, Note_on_c, 0, 58, 0
2, 141870, Note_on_c, 0, 59, 57
2, 141895, Note_on_c, 0, 69, 47
2, 142247, Control_c, 0, 64, 127
2, 142363, Note_on_c, 0, 74, 0
2, 142387, Note_on_c, 0, 69, 0
2, 142496, Note_on_c, 0, 66, 0
2, 143071, Note_on_c, 0, 59, 0
2, 143160, Note_on_c, 0, 57, 52
2, 143164, Note_on_c, 0, 62, 45
2, 143169, Note_on_c, 0, 69, 55
2, 143177, Note_on_c, 0, 66, 45
2, 143319, Note_on_c, 0, 57, 0
2, 143383, Note_on_c, 0, 66, 0
2, 143432, Note_on_c, 0, 62, 0
2, 143495, Note_on_c, 0, 69, 0
2, 143869, Control_c, 0, 64, 0
2, 143972, Note_on_c, 0, 56, 38
2, 143974, Note_on_c, 0, 65, 50
2, 143982, Note_on_c, 0, 46, 33
2, 143985, Note_on_c, 0, 61, 45
2, 144131, Control_c, 0, 64, 127
2, 144159, Note_on_c, 0, 46, 0
2, 144218, Note_on_c, 0, 61, 0
2, 144242, Note_on_c, 0, 56, 0
2, 144291, Note_on_c, 0, 65, 0
2, 144992, Note_on_c, 0, 84, 81
2, 144999, Note_on_c, 0, 65, 84
2, 145002, Note_on_c, 0, 72, 83
2, 145005, Note_on_c, 0, 60, 62
2, 145012, Note_on_c, 0, 56, 75
2, 145022, Note_on_c, 0, 61, 77
2, 145040, Control_c, 0, 64, 0
2, 145230, Control_c, 0, 64, 127
2, 145417, Note_on_c, 0, 56, 0
2, 145450, Note_on_c, 0, 65, 0
2, 145452, Note_on_c, 0, 72, 0
2, 145460, Note_on_c, 0, 61, 0
2, 145487, Note_on_c, 0, 84, 0
2, 145538, Note_on_c, 0, 60, 0
2, 145610, Control_c, 0, 64, 0
2, 145619, Note_on_c, 0, 65, 82
2, 145620, Note_on_c, 0, 85, 79
2, 145623, Note_on_c, 0, 56, 73
2, 145629, Note_on_c, 0, 60, 59
2, 145631, Note_on_c, 0, 73, 83
2, 145645, Note_on_c, 0, 61, 74
2, 145669, Note_on_c, 0, 83, 54
2, 145737, Note_on_c, 0, 83, 0
2, 145858, Control_c, 0, 64, 127
2, 145919, Note_on_c, 0, 85, 0
2, 145932, Note_on_c, 0, 73, 0
2, 145967, Note_on_c, 0, 56, 0
2, 146009, Note_on_c, 0, 61, 0
2, 146014, Note_on_c, 0, 65, 0
2, 146079, Note_on_c, 0, 60, 0
2, 146219, Note_on_c, 0, 65, 69
2, 146226, Note_on_c, 0, 86, 69
2, 146228, Note_on_c, 0, 74, 70
2, 146232, Note_on_c, 0, 56, 65
2, 146236, Note_on_c, 0, 60, 47
2, 146264, Note_on_c, 0, 61, 53
2, 146520, Note_on_c, 0, 61, 0
2, 146545, Note_on_c, 0, 56, 0
2, 146602, Note_on_c, 0, 86, 0
2, 146630, Note_on_c, 0, 74, 0
2, 146656, Note_on_c, 0, 60, 0
2, 146679, Note_on_c, 0, 65, 0
2, 146777, Control_c, 0, 64, 0
2, 146874, Note_on_c, 0, 75, 57
2, 146878, Note_on_c, 0, 66, 51
2, 146889, Note_on_c, 0, 55, 53
2, 146890, Note_on_c, 0, 87, 55
2, 146892, Note_on_c, 0, 61, 48
2, 146893, Note_on_c, 0, 83, 58
2, 147855, Control_c, 0, 64, 127
2, 148019, Note_on_c, 0, 75, 0
2, 148061, Note_on_c, 0, 61, 0
2, 148071, Note_on_c, 0, 83, 0
2, 148126, Note_on_c, 0, 87, 0
2, 148219, Note_on_c, 0, 55, 0
2, 148243, Note_on_c, 0, 66, 0
2, 148575, Note_on_c, 0, 83, 66
2, 148578, Note_on_c, 0, 90, 70
2, 148597, Note_on_c, 0, 66, 49
2, 148599, Note_on_c, 0, 55, 52
2, 148621, Note_on_c, 0, 61, 56
2, 148645, Control_c, 0, 64, 0
2, 148776, Control_c, 0, 64, 127
2, 149000, Note_on_c, 0, 66, 0
2, 149013, Note_on_c, 0, 55, 0
2, 149057, Note_on_c, 0, 83, 0
2, 149070, Note_on_c, 0, 90, 0
2, 149087, Note_on_c, 0, 61, 0
2, 149207, Note_on_c, 0, 87, 45
2, 149208, Note_on_c, 0, 55, 42
2, 149211, Note_on_c, 0, 83, 48
2, 149215, Note_on_c, 0, 61, 26
2, 149228, Note_on_c, 0, 78, 34
2, 149342, Note_on_c, 0, 61, 0
2, 149393, Note_on_c, 0, 87, 0
2, 149416, Note_on_c, 0, 78, 0
2, 149434, Note_on_c, 0, 83, 0
2, 149512, Note_on_c, 0, 55, 0
2, 149694, Control_c, 0, 64, 0
2, 149753, Note_on_c, 0, 59, 36
2, 149764, Note_on_c, 0, 62, 31
2, 149773, Note_on_c, 0, 86, 50
2, 149799, Note_on_c, 0, 78, 36
2, 149807, Note_on_c, 0, 54, 29
2, 149807, Note_on_c, 0, 56, 40
2, 150098, Note_on_c, 0, 78, 0
2, 150230, Note_on_c, 0, 86, 0
2, 150731, Note_on_c, 0, 97, 90
2, 150743, Note_on_c, 0, 102, 76
2, 150868, Note_on_c, 0, 102, 0
2, 150888, Note_on_c, 0, 97, 0
2, 150954, Note_on_c, 0, 62, 0
2, 150955, Note_on_c, 0, 102, 17
2, 150993, Note_on_c, 0, 98, 57
2, 151086, Note_on_c, 0, 102, 0
2, 151136, Note_on_c, 0, 59, 0
2, 151137, Note_on_c, 0, 97, 59
2, 151149, Note_on_c, 0, 98, 0
2, 151280, Note_on_c, 0, 95, 41
2, 151287, Note_on_c, 0, 97, 0
2, 151407, Note_on_c, 0, 95, 0
2, 151509, Note_on_c, 0, 94, 57
2, 151648, Note_on_c, 0, 94, 0
2, 151705, Note_on_c, 0, 62, 36
2, 151727, Note_on_c, 0, 97, 72
2, 151926, Note_on_c, 0, 97, 0
2, 151959, Note_on_c, 0, 94, 50
2, 152076, Note_on_c, 0, 94, 0
2, 152124, Note_on_c, 0, 54, 0
2, 152171, Note_on_c, 0, 56, 0
2, 152180, Note_on_c, 0, 95, 77
2, 152237, Note_on_c, 0, 62, 0
2, 152378, Note_on_c, 0, 95, 0
2, 152419, Note_on_c, 0, 92, 73
2, 152631, Note_on_c, 0, 92, 0
2, 152689, Note_on_c, 0, 90, 54
2, 152697, Note_on_c, 0, 59, 29
2, 152701, Note_on_c, 0, 62, 32
2, 152765, Note_on_c, 0, 53, 32
2, 152887, Note_on_c, 0, 90, 0
2, 152984, Note_on_c, 0, 89, 48
2, 153206, Note_on_c, 0, 89, 0
2, 153365, Note_on_c, 0, 59, 0
2, 153669, Note_on_c, 0, 86, 56
2, 153863, Note_on_c, 0, 86, 0
2, 154055, Note_on_c, 0, 62, 0
2, 154099, Note_on_c, 0, 85, 66
2, 154290, Note_on_c, 0, 85, 0
2, 154592, Note_on_c, 0, 83, 64
2, 154606, Note_on_c, 0, 62, 30
2, 154764, Note_on_c, 0, 83, 0
2, 154859, Note_on_c, 0, 62, 0
2, 154908, Note_on_c, 0, 81, 38
2, 155028, Note_on_c, 0, 53, 0
2, 155149, Note_on_c, 0, 81, 0
2, 155250, Note_on_c, 0, 84, 67
2, 155499, Note_on_c, 0, 84, 0
2, 155527, Note_on_c, 0, 60, 26
2, 155550, Note_on_c, 0, 57, 32
2, 155577, Note_on_c, 0, 76, 47
2, 155594, Note_on_c, 0, 54, 27
2, 155850, Note_on_c, 0, 76, 0
2, 156041, Note_on_c, 0, 52, 1
2, 156121, Note_on_c, 0, 76, 48
2, 156207, Note_on_c, 0, 76, 0
2, 156296, Note_on_c, 0, 60, 0
2, 156305, Note_on_c, 0, 57, 0
2, 156641, Note_on_c, 0, 60, 25
2, 156669, Note_on_c, 0, 57, 30
2, 156753, Note_on_c, 0, 60, 0
2, 156817, Note_on_c, 0, 57, 0
2, 157641, Note_on_c, 0, 60, 38
2, 157730, Note_on_c, 0, 57, 23
2, 158168, Note_on_c, 0, 52, 0
2, 158192, Note_on_c, 0, 57, 0
2, 158196, Note_on_c, 0, 54, 0
2, 158203, Note_on_c, 0, 60, 0
2, 158231, Note_on_c, 0, 83, 110
2, 158499, Note_on_c, 0, 83, 0
2, 158596, Note_on_c, 0, 57, 25
2, 158634, Note_on_c, 0, 81, 57
2, 158783, Note_on_c, 0, 81, 0
2, 158783, Note_on_c, 0, 57, 0
2, 158937, Note_on_c, 0, 81, 50
2, 159125, Note_on_c, 0, 81, 0
2, 159215, Note_on_c, 0, 77, 45
2, 159496, Note_on_c, 0, 77, 0
2, 159607, Note_on_c, 0, 80, 66
2, 159800, Note_on_c, 0, 80, 0
2, 159915, Note_on_c, 0, 77, 31
2, 160125, Note_on_c, 0, 77, 0
2, 160201, Note_on_c, 0, 78, 71
2, 160440, Note_on_c, 0, 61, 26
2, 160450, Note_on_c, 0, 78, 0
2, 160460, Note_on_c, 0, 51, 24
2, 160473, Note_on_c, 0, 57, 26
2, 160520, Note_on_c, 0, 75, 49
2, 160671, Note_on_c, 0, 75, 0
2, 160754, Note_on_c, 0, 61, 0
2, 160858, Note_on_c, 0, 72, 43
2, 161005, Note_on_c, 0, 51, 0
2, 161089, Note_on_c, 0, 72, 0
2, 161104, Note_on_c, 0, 57, 0
2, 161140, Note_on_c, 0, 71, 50
2, 161354, Note_on_c, 0, 71, 0
2, 161422, Note_on_c, 0, 62, 33
2, 161438, Note_on_c, 0, 59, 27
2, 161459, Note_on_c, 0, 52, 19
2, 161466, Note_on_c, 0, 67, 38
2, 161475, Note_on_c, 0, 55, 35
2, 161961, Note_on_c, 0, 66, 31
2, 161968, Note_on_c, 0, 67, 0
2, 162206, Note_on_c, 0, 66, 0
2, 162311, Note_on_c, 0, 69, 67
2, 162635, Note_on_c, 0, 66, 36
2, 162800, Note_on_c, 0, 69, 0
2, 162854, Note_on_c, 0, 66, 0
2, 162953, Note_on_c, 0, 67, 51
2, 163302, Control_c, 0, 64, 127
2, 163323, Note_on_c, 0, 62, 0
2, 163523, Note_on_c, 0, 59, 0
2, 163537, Note_on_c, 0, 64, 45
2, 163701, Note_on_c, 0, 67, 0
2, 163727, Note_on_c, 0, 64, 0
2, 163742, Note_on_c, 0, 52, 0
2, 163743, Note_on_c, 0, 55, 0
2, 164174, Note_on_c, 0, 64, 57
2, 164206, Note_on_c, 0, 57, 56
2, 164217, Note_on_c, 0, 53, 45
2, 164219, Note_on_c, 0, 60, 43
2, 164238, Note_on_c, 0, 52, 41
2, 164278, Control_c, 0, 64, 0
2, 164467, Note_on_c, 0, 64, 0
2, 164479, Note_on_c, 0, 52, 0
2, 164492, Note_on_c, 0, 53, 0
2, 164502, Note_on_c, 0, 57, 0
2, 164516, Note_on_c, 0, 50, 32
2, 164540, Note_on_c, 0, 60, 0
2, 164832, Note_on_c, 0, 64, 57
2, 164847, Note_on_c, 0, 53, 51
2, 164857, Note_on_c, 0, 60, 48
2, 164857, Note_on_c, 0, 57, 59
2, 164867, Note_on_c, 0, 50, 0
2, 164869, Note_on_c, 0, 52, 45
2, 165227, Control_c, 0, 64, 127
2, 165279, Note_on_c, 0, 53, 0
2, 165282, Note_on_c, 0, 57, 0
2, 165319, Note_on_c, 0, 64, 0
2, 165339, Note_on_c, 0, 60, 0
2, 165389, Control_c, 0, 64, 0
2, 165415, Note_on_c, 0, 53, 45
2, 165418, Note_on_c, 0, 62, 51
2, 165434, Note_on_c, 0, 57, 51
2, 165438, Note_on_c, 0, 50, 42
2, 165445, Note_on_c, 0, 52, 0
2, 165453, Note_on_c, 0, 60, 31
2, 165665, Control_c, 0, 64, 127
2, 165756, Note_on_c, 0, 60, 0
2, 165806, Note_on_c, 0, 53, 0
2, 165809, Note_on_c, 0, 57, 0
2, 165919, Note_on_c, 0, 62, 0
2, 165956, Control_c, 0, 64, 0
2, 166050, Note_on_c, 0, 64, 57
2, 166053, Note_on_c, 0, 53, 59
2, 166054, Note_on_c, 0, 57, 61
2, 166061, Note_on_c, 0, 50, 0
2, 166063, Note_on_c, 0, 60, 51
2, 166071, Note_on_c, 0, 52, 44
2, 166271, Note_on_c, 0, 64, 0
2, 166283, Note_on_c, 0, 53, 0
2, 166284, Note_on_c, 0, 60, 0
2, 166405, Note_on_c, 0, 50, 36
2, 166406, Note_on_c, 0, 62, 38
2, 166456, Note_on_c, 0, 52, 0
2, 166494, Note_on_c, 0, 57, 0
2, 166530, Control_c, 0, 64, 127
2, 166674, Note_on_c, 0, 62, 0
2, 166690, Control_c, 0, 64, 0
2, 166703, Note_on_c, 0, 50, 0
2, 166744, Note_on_c, 0, 64, 63
2, 166754, Note_on_c, 0, 56, 69
2, 166762, Note_on_c, 0, 59, 64
2, 166766, Note_on_c, 0, 52, 48
2, 166778, Note_on_c, 0, 61, 68
2, 167193, Note_on_c, 0, 61, 0
2, 167213, Note_on_c, 0, 56, 0
2, 167217, Note_on_c, 0, 59, 0
2, 167262, Note_on_c, 0, 64, 0
2, 167319, Note_on_c, 0, 56, 22
2, 167322, Note_on_c, 0, 49, 48
2, 167364, Note_on_c, 0, 63, 22
2, 167369, Note_on_c, 0, 61, 44
2, 167389, Note_on_c, 0, 59, 37
2, 167440, Note_on_c, 0, 63, 0
2, 167576, Note_on_c, 0, 52, 0
2, 167583, Control_c, 0, 64, 127
2, 167685, Note_on_c, 0, 56, 0
2, 167696, Note_on_c, 0, 59, 0
2, 167714, Note_on_c, 0, 61, 0
2, 167816, Control_c, 0, 64, 0
2, 167964, Note_on_c, 0, 49, 0
2, 167983, Note_on_c, 0, 64, 64
2, 168001, Note_on_c, 0, 59, 60
2, 168006, Note_on_c, 0, 56, 62
2, 168012, Note_on_c, 0, 52, 54
2, 168221, Note_on_c, 0, 59, 0
2, 168267, Note_on_c, 0, 64, 0
2, 168338, Note_on_c, 0, 52, 0
2, 168341, Note_on_c, 0, 56, 0
2, 168346, Note_on_c, 0, 49, 44
2, 168621, Note_on_c, 0, 49, 0
2, 168651, Note_on_c, 0, 64, 69
2, 168653, Note_on_c, 0, 59, 71
2, 168665, Note_on_c, 0, 56, 74
2, 168672, Note_on_c, 0, 52, 57
2, 168924, Control_c, 0, 64, 127
2, 169036, Note_on_c, 0, 59, 0
2, 169049, Note_on_c, 0, 56, 0
2, 169138, Note_on_c, 0, 64, 0
2, 169209, Note_on_c, 0, 59, 56
2, 169216, Note_on_c, 0, 49, 52
2, 169227, Note_on_c, 0, 61, 62
2, 169227, Note_on_c, 0, 56, 59
2, 169237, Note_on_c, 0, 52, 0
2, 169441, Note_on_c, 0, 56, 0
2, 169462, Note_on_c, 0, 61, 0
2, 169477, Note_on_c, 0, 59, 0
2, 169783, Control_c, 0, 64, 0
2, 169828, Note_on_c, 0, 49, 0
2, 169842, Note_on_c, 0, 64, 76
2, 169859, Note_on_c, 0, 55, 71
2, 169860, Note_on_c, 0, 58, 71
2, 169867, Note_on_c, 0, 42, 50
2, 169880, Note_on_c, 0, 52, 40
2, 170100, Note_on_c, 0, 55, 0
2, 170121, Note_on_c, 0, 64, 0
2, 170156, Note_on_c, 0, 58, 0
2, 170223, Note_on_c, 0, 62, 44
2, 170237, Note_on_c, 0, 52, 0
2, 170383, Note_on_c, 0, 62, 0
2, 170508, Note_on_c, 0, 64, 70
2, 170514, Note_on_c, 0, 58, 66
2, 170515, Note_on_c, 0, 55, 59
2, 170540, Note_on_c, 0, 52, 37
2, 170863, Control_c, 0, 64, 127
2, 171086, Note_on_c, 0, 52, 0
2, 171128, Note_on_c, 0, 55, 0
2, 171160, Note_on_c, 0, 58, 0
2, 171269, Note_on_c, 0, 64, 0
2, 171309, Note_on_c, 0, 55, 60
2, 171310, Note_on_c, 0, 62, 56
2, 171328, Note_on_c, 0, 58, 55
2, 171635, Note_on_c, 0, 55, 0
2, 171697, Note_on_c, 0, 58, 0
2, 171807, Note_on_c, 0, 62, 0
2, 171859, Note_on_c, 0, 52, 36
2, 171868, Note_on_c, 0, 55, 38
2, 171871, Note_on_c, 0, 61, 60
2, 171897, Note_on_c, 0, 58, 30
2, 172002, Note_on_c, 0, 42, 0
2, 172411, Note_on_c, 0, 42, 46
2, 172482, Note_on_c, 0, 55, 0
2, 172494, Note_on_c, 0, 58, 0
2, 172618, Note_on_c, 0, 42, 0
2, 172637, Note_on_c, 0, 61, 0
2, 172704, Note_on_c, 0, 52, 0
2, 172720, Control_c, 0, 64, 0
2, 172789, Note_on_c, 0, 58, 42
2, 172792, Note_on_c, 0, 63, 60
2, 172833, Note_on_c, 0, 48, 46
2, 173043, Note_on_c, 0, 58, 0
2, 173054, Control_c, 0, 64, 127
2, 173143, Note_on_c, 0, 63, 0
2, 173292, Note_on_c, 0, 48, 0
2, 173753, Note_on_c, 0, 75, 62
2, 173915, Note_on_c, 0, 75, 0
2, 174742, Note_on_c, 0, 67, 27
2, 174792, Note_on_c, 0, 58, 32
2, 174809, Note_on_c, 0, 63, 34
2, 174818, Note_on_c, 0, 62, 23
2, 175074, Note_on_c, 0, 67, 0
2, 175075, Note_on_c, 0, 58, 0
2, 175087, Note_on_c, 0, 63, 0
2, 175154, Note_on_c, 0, 62, 0
2, 175429, Note_on_c, 0, 87, 71
2, 175451, Note_on_c, 0, 75, 73
2, 175710, Note_on_c, 0, 87, 0
2, 175767, Note_on_c, 0, 75, 0
2, 175840, Control_c, 0, 64, 0
2, 175878, Note_on_c, 0, 57, 37
2, 175879, Note_on_c, 0, 62, 32
2, 175907, Note_on_c, 0, 51, 32
2, 175940, Note_on_c, 0, 86, 60
2, 175949, Note_on_c, 0, 74, 45
2, 176049, Note_on_c, 0, 62, 0
2, 176051, Note_on_c, 0, 74, 0
2, 176079, Note_on_c, 0, 51, 0
2, 176089, Note_on_c, 0, 86, 0
2, 176095, Note_on_c, 0, 57, 0
2, 176424, Note_on_c, 0, 87, 59
2, 176428, Note_on_c, 0, 62, 37
2, 176435, Note_on_c, 0, 75, 51
2, 176453, Note_on_c, 0, 57, 45
2, 176472, Note_on_c, 0, 51, 30
2, 176550, Note_on_c, 0, 51, 0
2, 176558, Note_on_c, 0, 75, 0
2, 176559, Note_on_c, 0, 62, 0
2, 176575, Note_on_c, 0, 87, 0
2, 176606, Note_on_c, 0, 57, 0
2, 176879, Note_on_c, 0, 89, 61
2, 176887, Note_on_c, 0, 62, 34
2, 176888, Note_on_c, 0, 77, 47
2, 176909, Note_on_c, 0, 57, 40
2, 176916, Note_on_c, 0, 51, 31
2, 177669, Control_c, 0, 64, 127
2, 177805, Note_on_c, 0, 89, 0
2, 177845, Note_on_c, 0, 51, 0
2, 177875, Note_on_c, 0, 77, 0
2, 177906, Note_on_c, 0, 57, 0
2, 177941, Note_on_c, 0, 62, 0
2, 178634, Note_on_c, 0, 78, 64
2, 178635, Note_on_c, 0, 71, 59
2, 178643, Note_on_c, 0, 68, 58
2, 178644, Note_on_c, 0, 66, 58
2, 178645, Note_on_c, 0, 75, 45
2, 178654, Control_c, 0, 64, 0
2, 178712, Note_on_c, 0, 68, 0
2, 178717, Note_on_c, 0, 75, 0
2, 178746, Note_on_c, 0, 71, 0
2, 178775, Note_on_c, 0, 78, 0
2, 178851, Note_on_c, 0, 66, 0
2, 178950, Note_on_c, 0, 65, 38
2, 179165, Note_on_c, 0, 65, 0
2, 179240, Note_on_c, 0, 76, 60
2, 179248, Note_on_c, 0, 71, 54
2, 179251, Note_on_c, 0, 64, 45
2, 179267, Note_on_c, 0, 68, 37
2, 179513, Control_c, 0, 64, 127
2, 179602, Note_on_c, 0, 76, 0
2, 179605, Note_on_c, 0, 71, 0
2, 179682, Note_on_c, 0, 68, 0
2, 179737, Note_on_c, 0, 64, 0
2, 179905, Note_on_c, 0, 75, 49
2, 179925, Note_on_c, 0, 68, 45
2, 179935, Note_on_c, 0, 63, 44
2, 179937, Note_on_c, 0, 71, 37
2, 179973, Note_on_c, 0, 64, 30
2, 180101, Note_on_c, 0, 71, 0
2, 180117, Note_on_c, 0, 68, 0
2, 180148, Note_on_c, 0, 75, 0
2, 180206, Note_on_c, 0, 64, 0
2, 180313, Note_on_c, 0, 63, 0
2, 180537, Note_on_c, 0, 71, 43
2, 180538, Note_on_c, 0, 64, 56
2, 180550, Note_on_c, 0, 68, 54
2, 180554, Note_on_c, 0, 59, 42
2, 180642, Note_on_c, 0, 59, 0
2, 181074, Note_on_c, 0, 68, 0
2, 181084, Note_on_c, 0, 71, 0
2, 181143, Note_on_c, 0, 61, 50
2, 181169, Note_on_c, 0, 64, 0
2, 181284, Note_on_c, 0, 61, 0
2, 181507, Note_on_c, 0, 67, 52
2, 181528, Note_on_c, 0, 62, 48
2, 181540, Note_on_c, 0, 58, 40
2, 181544, Note_on_c, 0, 42, 34
2, 181546, Note_on_c, 0, 52, 31
2, 181569, Control_c, 0, 64, 0
2, 182387, Control_c, 0, 64, 127
2, 182453, Note_on_c, 0, 52, 0
2, 182597, Note_on_c, 0, 58, 0
2, 182686, Note_on_c, 0, 67, 0
2, 182714, Note_on_c, 0, 62, 0
2, 182813, Note_on_c, 0, 42, 0
2, 183889, Note_on_c, 0, 66, 71
2, 184111, Note_on_c, 0, 65, 52
2, 184121, Note_on_c, 0, 66, 0
2, 184255, Control_c, 0, 64, 0
2, 184258, Note_on_c, 0, 65, 0
2, 184362, Note_on_c, 0, 61, 20
2, 184369, Note_on_c, 0, 57, 31
2, 184370, Note_on_c, 0, 66, 59
2, 184376, Note_on_c, 0, 51, 30
2, 184381, Note_on_c, 0, 56, 32
2, 184817, Note_on_c, 0, 66, 0
2, 184889, Note_on_c, 0, 73, 67
2, 185113, Note_on_c, 0, 73, 0
2, 185467, Note_on_c, 0, 73, 75
2, 185701, Note_on_c, 0, 73, 0
2, 185994, Note_on_c, 0, 66, 60
2, 186202, Note_on_c, 0, 66, 0
2, 186272, Note_on_c, 0, 65, 39
2, 186391, Note_on_c, 0, 65, 0
2, 186464, Note_on_c, 0, 66, 48
2, 186803, Note_on_c, 0, 66, 0
2, 186933, Note_on_c, 0, 66, 59
2, 187116, Note_on_c, 0, 61, 0
2, 187144, Note_on_c, 0, 57, 0
2, 187150, Note_on_c, 0, 66, 0
2, 187173, Note_on_c, 0, 65, 44
2, 187258, Note_on_c, 0, 65, 0
2, 187313, Note_on_c, 0, 61, 28
2, 187342, Note_on_c, 0, 57, 20
2, 187365, Note_on_c, 0, 66, 51
2, 187620, Note_on_c, 0, 66, 0
2, 187661, Note_on_c, 0, 73, 64
2, 187792, Note_on_c, 0, 73, 0
2, 187898, Note_on_c, 0, 57, 0
2, 187914, Note_on_c, 0, 61, 0
2, 188061, Note_on_c, 0, 56, 0
2, 188249, Note_on_c, 0, 73, 77
2, 188267, Note_on_c, 0, 61, 34
2, 188287, Note_on_c, 0, 57, 32
2, 188326, Note_on_c, 0, 56, 11
2, 188546, Control_c, 0, 64, 127
2, 189019, Note_on_c, 0, 51, 0
2, 189084, Note_on_c, 0, 56, 0
2, 189118, Note_on_c, 0, 61, 0
2, 189132, Note_on_c, 0, 57, 0
2, 189579, Note_on_c, 0, 73, 0
2, 189608, Note_on_c, 0, 66, 51
2, 189918, Control_c, 0, 64, 0
2, 189953, Note_on_c, 0, 54, 32
2, 189969, Note_on_c, 0, 60, 33
2, 189976, Note_on_c, 0, 65, 20
2, 189985, Note_on_c, 0, 68, 37
2, 189988, Note_on_c, 0, 66, 0
2, 191036, Note_on_c, 0, 69, 55
2, 191038, Note_on_c, 0, 68, 0
2, 191145, Note_on_c, 0, 69, 0
2, 191222, Note_on_c, 0, 71, 51
2, 191333, Note_on_c, 0, 71, 0
2, 191413, Note_on_c, 0, 72, 34
2, 191485, Note_on_c, 0, 72, 0
2, 191546, Note_on_c, 0, 74, 40
2, 191597, Note_on_c, 0, 74, 0
2, 191618, Note_on_c, 0, 75, 51
2, 191757, Note_on_c, 0, 75, 0
2, 191805, Note_on_c, 0, 77, 35
2, 191847, Note_on_c, 0, 54, 0
2, 191862, Note_on_c, 0, 77, 0
2, 191942, Note_on_c, 0, 65, 0
2, 191943, Note_on_c, 0, 78, 48
2, 191988, Note_on_c, 0, 60, 0
2, 192032, Note_on_c, 0, 78, 0
2, 192041, Note_on_c, 0, 80, 41
2, 192163, Note_on_c, 0, 80, 0
2, 192170, Note_on_c, 0, 81, 46
2, 192223, Note_on_c, 0, 81, 0
2, 192296, Note_on_c, 0, 83, 64
2, 192409, Note_on_c, 0, 83, 0
2, 192427, Note_on_c, 0, 84, 43
2, 192530, Note_on_c, 0, 84, 0
2, 192544, Note_on_c, 0, 86, 43
2, 192648, Note_on_c, 0, 86, 0
2, 192654, Note_on_c, 0, 87, 51
2, 192791, Note_on_c, 0, 87, 0
2, 192852, Note_on_c, 0, 90, 78
2, 192885, Note_on_c, 0, 65, 37
2, 192891, Note_on_c, 0, 60, 26
2, 192927, Note_on_c, 0, 54, 34
2, 193018, Note_on_c, 0, 90, 0
2, 193069, Note_on_c, 0, 88, 56
2, 193207, Note_on_c, 0, 88, 0
2, 193319, Note_on_c, 0, 87, 66
2, 193433, Note_on_c, 0, 87, 0
2, 193586, Note_on_c, 0, 84, 69
2, 193766, Note_on_c, 0, 84, 0
2, 193840, Note_on_c, 0, 83, 68
2, 193945, Note_on_c, 0, 83, 0
2, 194107, Note_on_c, 0, 81, 55
2, 194252, Note_on_c, 0, 81, 0
2, 194411, Note_on_c, 0, 80, 57
2, 194542, Note_on_c, 0, 80, 0
2, 194670, Note_on_c, 0, 81, 56
2, 194761, Note_on_c, 0, 80, 53
2, 194862, Note_on_c, 0, 81, 0
2, 194950, Note_on_c, 0, 65, 0
2, 194972, Note_on_c, 0, 78, 33
2, 194985, Note_on_c, 0, 80, 0
2, 195158, Note_on_c, 0, 78, 0
2, 195202, Note_on_c, 0, 54, 0
2, 195215, Note_on_c, 0, 77, 54
2, 195325, Note_on_c, 0, 77, 0
2, 195327, Note_on_c, 0, 60, 0
2, 195381, Note_on_c, 0, 80, 62
2, 195567, Note_on_c, 0, 80, 0
2, 195621, Note_on_c, 0, 77, 45
2, 195755, Note_on_c, 0, 77, 0
2, 195804, Note_on_c, 0, 57, 37
2, 195819, Note_on_c, 0, 61, 31
2, 195834, Note_on_c, 0, 78, 50
2, 195842, Note_on_c, 0, 52, 15
2, 195879, Note_on_c, 0, 56, 24
2, 196093, Note_on_c, 0, 78, 0
2, 196107, Note_on_c, 0, 73, 36
2, 196225, Note_on_c, 0, 73, 0
2, 196765, Note_on_c, 0, 73, 44
2, 197386, Note_on_c, 0, 73, 0
2, 197422, Note_on_c, 0, 76, 55
2, 197786, Control_c, 0, 64, 127
2, 198007, Note_on_c, 0, 76, 0
2, 198103, Note_on_c, 0, 61, 0
2, 198149, Note_on_c, 0, 56, 0
2, 198227, Note_on_c, 0, 57, 0
2, 198336, Note_on_c, 0, 52, 0
2, 198737, Note_on_c, 0, 60, 43
2, 198756, Note_on_c, 0, 70, 50
2, 198757, Note_on_c, 0, 58, 42
2, 198764, Note_on_c, 0, 63, 35
2, 198776, Control_c, 0, 64, 0
2, 198780, Note_on_c, 0, 67, 31
2, 198789, Note_on_c, 0, 56, 31
2, 199258, Control_c, 0, 64, 127
2, 199988, Note_on_c, 0, 60, 0
2, 199992, Note_on_c, 0, 58, 0
2, 200146, Note_on_c, 0, 63, 0
2, 200378, Note_on_c, 0, 60, 33
2, 200385, Note_on_c, 0, 67, 0
2, 200436, Note_on_c, 0, 58, 37
2, 200583, Note_on_c, 0, 70, 0
2, 200775, Note_on_c, 0, 63, 37
2, 200935, Note_on_c, 0, 63, 0
2, 200986, Note_on_c, 0, 58, 0
2, 200994, Note_on_c, 0, 56, 0
2, 201005, Note_on_c, 0, 60, 0
2, 201007, Note_on_c, 0, 65, 57
2, 201173, Note_on_c, 0, 65, 0
2, 201266, Note_on_c, 0, 67, 49
2, 201446, Note_on_c, 0, 67, 0
2, 201518, Note_on_c, 0, 68, 64
2, 201675, Note_on_c, 0, 68, 0
2, 201742, Control_c, 0, 64, 0
2, 201758, Note_on_c, 0, 69, 50
2, 201765, Note_on_c, 0, 62, 20
2, 201786, Note_on_c, 0, 52, 24
2, 201793, Note_on_c, 0, 59, 24
2, 201806, Note_on_c, 0, 55, 36
2, 201908, Note_on_c, 0, 69, 0
2, 202023, Note_on_c, 0, 70, 66
2, 202185, Note_on_c, 0, 70, 0
2, 202254, Note_on_c, 0, 71, 72
2, 202482, Note_on_c, 0, 71, 0
2, 202515, Note_on_c, 0, 67, 59
2, 202687, Note_on_c, 0, 62, 0
2, 202709, Note_on_c, 0, 67, 0
2, 202795, Note_on_c, 0, 66, 22
2, 202985, Note_on_c, 0, 66, 0
2, 203035, Note_on_c, 0, 64, 40
2, 203096, Note_on_c, 0, 59, 0
2, 203127, Note_on_c, 0, 64, 0
2, 203201, Note_on_c, 0, 67, 62
2, 203438, Note_on_c, 0, 67, 0
2, 203462, Note_on_c, 0, 64, 34
2, 203469, Note_on_c, 0, 59, 17
2, 203555, Note_on_c, 0, 64, 0
2, 203683, Note_on_c, 0, 66, 64
2, 203946, Note_on_c, 0, 66, 0
2, 203971, Note_on_c, 0, 59, 0
2, 204128, Note_on_c, 0, 64, 27
2, 204175, Note_on_c, 0, 52, 0
2, 204181, Note_on_c, 0, 55, 0
2, 204274, Note_on_c, 0, 64, 0
2, 205171, Note_on_c, 0, 45, 50
2, 205517, Note_on_c, 0, 61, 33
2, 205547, Note_on_c, 0, 55, 17
2, 205717, Note_on_c, 0, 61, 0
2, 205761, Note_on_c, 0, 55, 0
2, 205768, Control_c, 0, 64, 127
2, 205790, Note_on_c, 0, 66, 60
2, 206004, Note_on_c, 0, 66, 0
2, 206063, Note_on_c, 0, 70, 71
2, 206098, Note_on_c, 0, 55, 47
2, 206100, Note_on_c, 0, 66, 60
2, 206162, Note_on_c, 0, 66, 0
2, 206240, Note_on_c, 0, 55, 0
2, 206293, Note_on_c, 0, 70, 0
2, 206416, Note_on_c, 0, 73, 83
2, 206416, Note_on_c, 0, 66, 88
2, 206424, Note_on_c, 0, 55, 62
2, 206470, Control_c, 0, 64, 0
2, 206608, Note_on_c, 0, 55, 0
2, 206673, Note_on_c, 0, 66, 0
2, 206675, Note_on_c, 0, 73, 0
2, 206742, Note_on_c, 0, 61, 54
2, 206746, Control_c, 0, 64, 127
2, 206807, Note_on_c, 0, 61, 0
2, 206850, Note_on_c, 0, 52, 22
2, 206965, Control_c, 0, 64, 0
2, 207026, Note_on_c, 0, 73, 79
2, 207030, Note_on_c, 0, 66, 80
2, 207056, Note_on_c, 0, 61, 75
2, 207059, Note_on_c, 0, 55, 67
2, 207123, Note_on_c, 0, 52, 0
2, 207253, Note_on_c, 0, 73, 0
2, 207286, Control_c, 0, 64, 127
2, 207305, Note_on_c, 0, 66, 0
2, 207326, Note_on_c, 0, 61, 0
2, 207388, Control_c, 0, 64, 0
2, 207390, Note_on_c, 0, 71, 62
2, 207400, Note_on_c, 0, 66, 74
2, 207401, Note_on_c, 0, 55, 0
2, 207409, Note_on_c, 0, 61, 67
2, 207419, Note_on_c, 0, 45, 0
2, 207431, Note_on_c, 0, 54, 64
2, 207666, Control_c, 0, 64, 127
2, 207758, Note_on_c, 0, 66, 0
2, 207777, Note_on_c, 0, 71, 0
2, 207873, Note_on_c, 0, 61, 0
2, 208020, Note_on_c, 0, 54, 0
2, 208275, Note_on_c, 0, 69, 63
2, 208285, Note_on_c, 0, 66, 66
2, 208294, Note_on_c, 0, 61, 68
2, 208306, Note_on_c, 0, 54, 50
2, 208447, Note_on_c, 0, 66, 0
2, 208450, Note_on_c, 0, 69, 0
2, 208542, Note_on_c, 0, 61, 0
2, 208719, Note_on_c, 0, 54, 0
2, 208941, Note_on_c, 0, 66, 68
2, 208954, Note_on_c, 0, 61, 74
2, 208955, Note_on_c, 0, 57, 64
2, 208970, Note_on_c, 0, 50, 53
2, 209010, Control_c, 0, 64, 0
2, 209156, Control_c, 0, 64, 127
2, 209179, Note_on_c, 0, 66, 0
2, 209200, Note_on_c, 0, 61, 0
2, 209256, Note_on_c, 0, 57, 0
2, 209318, Note_on_c, 0, 50, 0
2, 209536, Control_c, 0, 64, 0
2, 209552, Note_on_c, 0, 61, 74
2, 209558, Note_on_c, 0, 46, 60
2, 209578, Note_on_c, 0, 55, 57
2, 209696, Control_c, 0, 64, 127
2, 209982, Note_on_c, 0, 55, 0
2, 210070, Note_on_c, 0, 61, 0
2, 210091, Control_c, 0, 64, 0
2, 210172, Note_on_c, 0, 64, 74
2, 210187, Note_on_c, 0, 61, 60
2, 210188, Note_on_c, 0, 55, 76
2, 210191, Note_on_c, 0, 58, 69
2, 210206, Note_on_c, 0, 49, 62
2, 210222, Note_on_c, 0, 46, 0
2, 210445, Control_c, 0, 64, 127
2, 210509, Note_on_c, 0, 61, 0
2, 210702, Note_on_c, 0, 55, 0
2, 210801, Note_on_c, 0, 58, 0
2, 210806, Control_c, 0, 64, 0
2, 210807, Note_on_c, 0, 64, 0
2, 210860, Note_on_c, 0, 55, 64
2, 210868, Note_on_c, 0, 61, 67
2, 210886, Note_on_c, 0, 46, 55
2, 210889, Note_on_c, 0, 58, 27
2, 210941, Note_on_c, 0, 49, 0
2, 211098, Control_c, 0, 64, 127
2, 211146, Note_on_c, 0, 58, 0
2, 211337, Note_on_c, 0, 61, 0
2, 211353, Note_on_c, 0, 55, 0
2, 211475, Note_on_c, 0, 62, 73
2, 211478, Control_c, 0, 64, 0
2, 211494, Note_on_c, 0, 54, 68
2, 211506, Note_on_c, 0, 59, 60
2, 211519, Note_on_c, 0, 47, 64
2, 211573, Note_on_c, 0, 46, 0
2, 211684, Control_c, 0, 64, 127
2, 211834, Note_on_c, 0, 59, 0
2, 211861, Note_on_c, 0, 54, 0
2, 212069, Note_on_c, 0, 47, 0
2, 212082, Note_on_c, 0, 62, 0
2, 212190, Note_on_c, 0, 61, 81
2, 212198, Note_on_c, 0, 56, 78
2, 212199, Note_on_c, 0, 65, 74
2, 212212, Note_on_c, 0, 46, 73
2, 212224, Control_c, 0, 64, 0
2, 212471, Control_c, 0, 64, 127
2, 212610, Note_on_c, 0, 61, 0
2, 212614, Note_on_c, 0, 56, 0
2, 212662, Note_on_c, 0, 65, 0
2, 212850, Control_c, 0, 64, 0
2, 212877, Note_on_c, 0, 64, 74
2, 212879, Note_on_c, 0, 46, 0
2, 212886, Note_on_c, 0, 60, 73
2, 212888, Note_on_c, 0, 55, 76
2, 212901, Note_on_c, 0, 45, 65
2, 213071, Note_on_c, 0, 55, 0
2, 213083, Note_on_c, 0, 45, 0
2, 213084, Control_c, 0, 64, 127
2, 213143, Note_on_c, 0, 60, 0
2, 213148, Note_on_c, 0, 64, 0
2, 213686, Note_on_c, 0, 83, 88
2, 213688, Note_on_c, 0, 71, 87
2, 213691, Note_on_c, 0, 55, 64
2, 213699, Control_c, 0, 64, 0
2, 213702, Note_on_c, 0, 59, 63
2, 213705, Note_on_c, 0, 60, 62
2, 213715, Note_on_c, 0, 64, 71
2, 213716, Note_on_c, 0, 81, 39
2, 213734, Note_on_c, 0, 78, 34
2, 213773, Note_on_c, 0, 81, 0
2, 213796, Note_on_c, 0, 78, 0
2, 213873, Control_c, 0, 64, 127
2, 214096, Note_on_c, 0, 83, 0
2, 214124, Note_on_c, 0, 71, 0
2, 214165, Note_on_c, 0, 55, 0
2, 214178, Note_on_c, 0, 64, 0
2, 214181, Note_on_c, 0, 59, 0
2, 214210, Note_on_c, 0, 60, 0
2, 214291, Note_on_c, 0, 84, 80
2, 214293, Note_on_c, 0, 72, 68
2, 214299, Note_on_c, 0, 64, 69
2, 214302, Note_on_c, 0, 59, 66
2, 214303, Note_on_c, 0, 55, 70
2, 214313, Note_on_c, 0, 60, 70
2, 214332, Note_on_c, 0, 79, 43
2, 214578, Note_on_c, 0, 79, 0
2, 214674, Note_on_c, 0, 72, 0
2, 214693, Note_on_c, 0, 60, 0
2, 214716, Note_on_c, 0, 55, 0
2, 214718, Note_on_c, 0, 84, 0
2, 214719, Note_on_c, 0, 64, 0
2, 214746, Note_on_c, 0, 59, 0
2, 215019, Note_on_c, 0, 64, 55
2, 215022, Note_on_c, 0, 74, 49
2, 215024, Note_on_c, 0, 86, 55
2, 215031, Note_on_c, 0, 60, 42
2, 215040, Note_on_c, 0, 81, 35
2, 215043, Note_on_c, 0, 55, 42
2, 215057, Note_on_c, 0, 59, 24
2, 215149, Note_on_c, 0, 59, 0
2, 215284, Note_on_c, 0, 81, 0
2, 215421, Note_on_c, 0, 64, 0
2, 215441, Note_on_c, 0, 86, 0
2, 215463, Note_on_c, 0, 74, 0
2, 215503, Note_on_c, 0, 55, 0
2, 215543, Note_on_c, 0, 60, 0
2, 216052, Control_c, 0, 64, 0
2, 216073, Note_on_c, 0, 88, 55
2, 216086, Note_on_c, 0, 76, 39
2, 216110, Note_on_c, 0, 83, 46
2, 216113, Note_on_c, 0, 59, 28
2, 216114, Note_on_c, 0, 62, 31
2, 216136, Note_on_c, 0, 57, 44
2, 216200, Note_on_c, 0, 52, 14
2, 216270, Control_c, 0, 64, 127
2, 216395, Note_on_c, 0, 76, 0
2, 216418, Note_on_c, 0, 88, 0
2, 216439, Note_on_c, 0, 83, 0
2, 216445, Note_on_c, 0, 52, 0
2, 216503, Note_on_c, 0, 57, 0
2, 216504, Note_on_c, 0, 62, 0
2, 216535, Note_on_c, 0, 59, 0
2, 216734, Note_on_c, 0, 90, 64
2, 216737, Note_on_c, 0, 62, 45
2, 216748, Note_on_c, 0, 57, 43
2, 216756, Note_on_c, 0, 83, 52
2, 216764, Note_on_c, 0, 59, 33
2, 216772, Note_on_c, 0, 78, 36
2, 216967, Note_on_c, 0, 83, 0
2, 217209, Note_on_c, 0, 78, 0
2, 217310, Note_on_c, 0, 90, 0
2, 217327, Note_on_c, 0, 59, 0
2, 217397, Note_on_c, 0, 57, 0
2, 217442, Note_on_c, 0, 62, 0
2, 218438, Note_on_c, 0, 53, 38
2, 218608, Note_on_c, 0, 53, 0
2, 218824, Control_c, 0, 64, 0
2, 218850, Note_on_c, 0, 61, 40
2, 218876, Note_on_c, 0, 51, 31
2, 218878, Note_on_c, 0, 56, 44
2, 219501, Note_on_c, 0, 97, 65
2, 219502, Note_on_c, 0, 90, 72
2, 219689, Note_on_c, 0, 90, 0
2, 219692, Note_on_c, 0, 97, 0
2, 219809, Note_on_c, 0, 94, 47
2, 219828, Note_on_c, 0, 85, 41
2, 219965, Note_on_c, 0, 85, 0
2, 220044, Note_on_c, 0, 94, 0
2, 220137, Note_on_c, 0, 97, 53
2, 220149, Note_on_c, 0, 90, 53
2, 220313, Note_on_c, 0, 97, 0
2, 220338, Note_on_c, 0, 90, 0
2, 220453, Note_on_c, 0, 85, 38
2, 220454, Note_on_c, 0, 94, 47
2, 220575, Note_on_c, 0, 85, 0
2, 220703, Note_on_c, 0, 94, 0
2, 220813, Note_on_c, 0, 97, 58
2, 220830, Note_on_c, 0, 90, 49
2, 220878, Note_on_c, 0, 51, 0
2, 220880, Note_on_c, 0, 56, 0
2, 220960, Control_c, 0, 64, 127
2, 220996, Note_on_c, 0, 61, 0
2, 221006, Note_on_c, 0, 97, 0
2, 221043, Note_on_c, 0, 90, 0
2, 221124, Note_on_c, 0, 85, 34
2, 221149, Note_on_c, 0, 94, 31
2, 221252, Note_on_c, 0, 85, 0
2, 221318, Note_on_c, 0, 94, 0
2, 221478, Note_on_c, 0, 97, 66
2, 221482, Note_on_c, 0, 90, 64
2, 221500, Control_c, 0, 64, 0
2, 221501, Note_on_c, 0, 66, 35
2, 221503, Note_on_c, 0, 57, 30
2, 221517, Note_on_c, 0, 62, 34
2, 221519, Note_on_c, 0, 61, 50
2, 221807, Note_on_c, 0, 97, 0
2, 221836, Control_c, 0, 64, 127
2, 221860, Note_on_c, 0, 90, 0
2, 221881, Note_on_c, 0, 85, 39
2, 221883, Note_on_c, 0, 93, 44
2, 222084, Control_c, 0, 64, 0
2, 222141, Note_on_c, 0, 85, 0
2, 222142, Control_c, 0, 64, 127
2, 222189, Note_on_c, 0, 61, 0
2, 222208, Note_on_c, 0, 66, 0
2, 222210, Note_on_c, 0, 62, 0
2, 222213, Control_c, 0, 64, 0
2, 222221, Note_on_c, 0, 93, 0
2, 222253, Note_on_c, 0, 57, 0
2, 222535, Note_on_c, 0, 66, 34
2, 222545, Note_on_c, 0, 90, 47
2, 222557, Note_on_c, 0, 62, 33
2, 222567, Note_on_c, 0, 61, 36
2, 222576, Note_on_c, 0, 57, 20
2, 222630, Note_on_c, 0, 90, 0
2, 222640, Note_on_c, 0, 61, 0
2, 222668, Note_on_c, 0, 57, 0
2, 222678, Note_on_c, 0, 66, 0
2, 222701, Note_on_c, 0, 62, 0
2, 222885, Note_on_c, 0, 66, 36
2, 222922, Note_on_c, 0, 85, 36
2, 222925, Note_on_c, 0, 90, 44
2, 222928, Control_c, 0, 64, 127
2, 222933, Note_on_c, 0, 57, 33
2, 222937, Note_on_c, 0, 62, 27
2, 222946, Note_on_c, 0, 61, 36
2, 223243, Note_on_c, 0, 61, 0
2, 223250, Note_on_c, 0, 85, 0
2, 223265, Note_on_c, 0, 90, 0
2, 223320, Note_on_c, 0, 66, 0
2, 223333, Note_on_c, 0, 57, 0
2, 223381, Note_on_c, 0, 62, 0
2, 224387, Note_on_c, 0, 90, 85
2, 224394, Note_on_c, 0, 97, 73
2, 224399, Note_on_c, 0, 66, 49
2, 224402, Note_on_c, 0, 62, 52
2, 224402, Note_on_c, 0, 57, 64
2, 224442, Note_on_c, 0, 93, 28
2, 224480, Note_on_c, 0, 60, 20
2, 224496, Note_on_c, 0, 93, 0
2, 224514, Note_on_c, 0, 66, 0
2, 224544, Note_on_c, 0, 60, 0
2, 224600, Note_on_c, 0, 90, 0
2, 224606, Note_on_c, 0, 97, 0
2, 224651, Note_on_c, 0, 57, 0
2, 224725, Note_on_c, 0, 62, 0
2, 225205, Control_c, 0, 64, 0
2, 225265, Note_on_c, 0, 89, 81
2, 225274, Note_on_c, 0, 65, 68
2, 225285, Note_on_c, 0, 56, 55
2, 225288, Note_on_c, 0, 60, 37
2, 225296, Note_on_c, 0, 97, 68
2, 225310, Note_on_c, 0, 61, 62
2, 225361, Note_on_c, 0, 61, 0
2, 225409, Note_on_c, 0, 89, 0
2, 225425, Note_on_c, 0, 65, 0
2, 225433, Note_on_c, 0, 97, 0
2, 225470, Note_on_c, 0, 56, 0
2, 225488, Note_on_c, 0, 60, 0
2, 225885, Note_on_c, 0, 89, 80
2, 225893, Note_on_c, 0, 65, 60
2, 225894, Note_on_c, 0, 97, 74
2, 225901, Note_on_c, 0, 60, 45
2, 225903, Note_on_c, 0, 56, 62
2, 225910, Control_c, 0, 64, 127
2, 225936, Note_on_c, 0, 61, 58
2, 226274, Note_on_c, 0, 65, 0
2, 226278, Note_on_c, 0, 56, 0
2, 226280, Note_on_c, 0, 61, 0
2, 226343, Note_on_c, 0, 60, 0
2, 226360, Note_on_c, 0, 97, 0
2, 226380, Note_on_c, 0, 89, 0
2, 226490, Note_on_c, 0, 89, 49
2, 226506, Note_on_c, 0, 65, 61
2, 226514, Note_on_c, 0, 85, 51
2, 226523, Note_on_c, 0, 60, 35
2, 226533, Note_on_c, 0, 56, 50
2, 226564, Note_on_c, 0, 61, 42
2, 226854, Note_on_c, 0, 56, 0
2, 226867, Note_on_c, 0, 85, 0
2, 226873, Note_on_c, 0, 61, 0
2, 226887, Note_on_c, 0, 65, 0
2, 226940, Note_on_c, 0, 60, 0
2, 227063, Note_on_c, 0, 85, 54
2, 227117, Note_on_c, 0, 89, 0
2, 227190, Note_on_c, 0, 85, 0
2, 227331, Note_on_c, 0, 65, 54
2, 227376, Note_on_c, 0, 60, 28
2, 227382, Note_on_c, 0, 56, 31
2, 227464, Note_on_c, 0, 56, 0
2, 227531, Note_on_c, 0, 65, 0
2, 227555, Note_on_c, 0, 60, 0
2, 227669, Note_on_c, 0, 87, 57
2, 227676, Note_on_c, 0, 78, 48
2, 227678, Note_on_c, 0, 83, 62
2, 227686, Note_on_c, 0, 55, 60
2, 227688, Note_on_c, 0, 66, 53
2, 227695, Control_c, 0, 64, 0
2, 227700, Note_on_c, 0, 61, 48
2, 228030, Control_c, 0, 64, 127
2, 228762, Note_on_c, 0, 66, 0
2, 228860, Note_on_c, 0, 61, 0
2, 228971, Note_on_c, 0, 55, 0
2, 229045, Note_on_c, 0, 83, 0
2, 229045, Note_on_c, 0, 87, 0
2, 229106, Note_on_c, 0, 64, 43
2, 229113, Note_on_c, 0, 55, 32
2, 229142, Note_on_c, 0, 61, 44
2, 229263, Note_on_c, 0, 78, 0
2, 229371, Control_c, 0, 64, 0
2, 229597, Note_on_c, 0, 61, 0
2, 229626, Note_on_c, 0, 64, 0
2, 229674, Note_on_c, 0, 80, 22
2, 229763, Note_on_c, 0, 81, 47
2, 229835, Note_on_c, 0, 80, 0
2, 229884, Note_on_c, 0, 82, 55
2, 229917, Note_on_c, 0, 81, 0
2, 229949, Note_on_c, 0, 55, 0
2, 230122, Note_on_c, 0, 85, 74
2, 230167, Note_on_c, 0, 82, 0
2, 230310, Note_on_c, 0, 85, 0
2, 230402, Note_on_c, 0, 62, 32
2, 230403, Note_on_c, 0, 54, 39
2, 230411, Note_on_c, 0, 59, 31
2, 230432, Note_on_c, 0, 56, 39
2, 230476, Note_on_c, 0, 85, 67
2, 231191, Note_on_c, 0, 85, 0
2, 231431, Note_on_c, 0, 83, 53
2, 231623, Note_on_c, 0, 83, 0
2, 232934, Note_on_c, 0, 80, 90
2, 232963, Note_on_c, 0, 54, 0
2, 233010, Note_on_c, 0, 59, 0
2, 233039, Note_on_c, 0, 56, 0
2, 233100, Note_on_c, 0, 62, 0
2, 233136, Note_on_c, 0, 80, 0
2, 233269, Note_on_c, 0, 59, 11
2, 233280, Note_on_c, 0, 62, 31
2, 233283, Note_on_c, 0, 53, 37
2, 233292, Note_on_c, 0, 81, 78
2, 233490, Note_on_c, 0, 81, 0
2, 233611, Note_on_c, 0, 83, 60
2, 233751, Note_on_c, 0, 83, 0
2, 233943, Note_on_c, 0, 80, 65
2, 234086, Note_on_c, 0, 80, 0
2, 234243, Note_on_c, 0, 77, 47
2, 234426, Note_on_c, 0, 77, 0
2, 234664, Note_on_c, 0, 62, 0
2, 234789, Note_on_c, 0, 77, 49
2, 234878, Note_on_c, 0, 76, 39
2, 234982, Note_on_c, 0, 77, 0
2, 235068, Note_on_c, 0, 75, 35
2, 235076, Note_on_c, 0, 76, 0
2, 235229, Note_on_c, 0, 75, 0
2, 235357, Note_on_c, 0, 62, 25
2, 235361, Note_on_c, 0, 74, 53
2, 235518, Note_on_c, 0, 74, 0
2, 235597, Note_on_c, 0, 71, 44
2, 235683, Note_on_c, 0, 59, 0
2, 235690, Note_on_c, 0, 62, 0
2, 235770, Note_on_c, 0, 71, 0
2, 235834, Note_on_c, 0, 68, 32
2, 235952, Note_on_c, 0, 68, 0
2, 236074, Note_on_c, 0, 53, 0
2, 236150, Note_on_c, 0, 66, 22
2, 236200, Note_on_c, 0, 66, 0
2, 236261, Note_on_c, 0, 60, 30
2, 236273, Note_on_c, 0, 57, 33
2, 236289, Note_on_c, 0, 72, 56
2, 236312, Note_on_c, 0, 54, 36
2, 236523, Note_on_c, 0, 72, 0
2, 236575, Note_on_c, 0, 64, 43
2, 236800, Note_on_c, 0, 52, 1
2, 236942, Note_on_c, 0, 57, 0
2, 236963, Note_on_c, 0, 64, 0
2, 237222, Note_on_c, 0, 64, 47
2, 237525, Note_on_c, 0, 60, 0
2, 237927, Note_on_c, 0, 60, 35
2, 238132, Note_on_c, 0, 60, 0
2, 238199, Note_on_c, 0, 57, 25
2, 238395, Note_on_c, 0, 64, 0
2, 238423, Note_on_c, 0, 52, 0
2, 238480, Note_on_c, 0, 54, 0
2, 238570, Note_on_c, 0, 66, 77
2, 238831, Note_on_c, 0, 66, 0
2, 238852, Note_on_c, 0, 64, 65
2, 238896, Note_on_c, 0, 57, 0
2, 239080, Note_on_c, 0, 57, 25
2, 239107, Note_on_c, 0, 51, 36
2, 239131, Note_on_c, 0, 64, 0
2, 239157, Note_on_c, 0, 65, 67
2, 239413, Note_on_c, 0, 65, 0
2, 239559, Note_on_c, 0, 62, 64
2, 239793, Note_on_c, 0, 62, 0
2, 239827, Note_on_c, 0, 63, 71
2, 240019, Note_on_c, 0, 57, 0
2, 240058, Note_on_c, 0, 63, 0
2, 240121, Note_on_c, 0, 60, 56
2, 240691, Note_on_c, 0, 57, 35
2, 240709, Note_on_c, 0, 60, 0
2, 240834, Note_on_c, 0, 57, 0
2, 240974, Note_on_c, 0, 59, 71
2, 241194, Note_on_c, 0, 59, 0
2, 241265, Note_on_c, 0, 60, 47
2, 241284, Note_on_c, 0, 51, 0
2, 241376, Note_on_c, 0, 59, 36
2, 241478, Note_on_c, 0, 60, 0
2, 241494, Note_on_c, 0, 51, 33
2, 241550, Note_on_c, 0, 59, 0
2, 241556, Note_on_c, 0, 58, 34
2, 241746, Note_on_c, 0, 51, 0
2, 241833, Note_on_c, 0, 58, 0
2, 241842, Note_on_c, 0, 59, 61
2, 242069, Note_on_c, 0, 59, 0
2, 242763, Note_on_c, 0, 40, 26
2, 242874, Note_on_c, 0, 40, 0
2, 242900, Note_on_c, 0, 54, 69
2, 243277, Note_on_c, 0, 54, 0
2, 243328, Note_on_c, 0, 55, 84
2, 243759, Note_on_c, 0, 55, 0
2, 243851, Note_on_c, 0, 55, 77
2, 244161, Note_on_c, 0, 55, 0
2, 244209, Note_on_c, 0, 57, 78
2, 244605, Note_on_c, 0, 57, 0
2, 244745, Note_on_c, 0, 57, 70
2, 245019, Control_c, 0, 64, 127
2, 245042, Note_on_c, 0, 57, 0
2, 245058, Note_on_c, 0, 59, 62
2, 245326, Note_on_c, 0, 59, 0
2, 245415, Control_c, 0, 64, 0
2, 245457, Note_on_c, 0, 59, 62
2, 245463, Note_on_c, 0, 38, 43
2, 245467, Note_on_c, 0, 53, 36
2, 245779, Note_on_c, 0, 60, 70
2, 245844, Note_on_c, 0, 59, 0
2, 246010, Control_c, 0, 64, 127
2, 246038, Note_on_c, 0, 60, 0
2, 246143, Note_on_c, 0, 60, 69
2, 246387, Note_on_c, 0, 60, 0
2, 246392, Note_on_c, 0, 38, 0
2, 246430, Note_on_c, 0, 62, 76
2, 246588, Note_on_c, 0, 53, 0
2, 246639, Note_on_c, 0, 62, 0
2, 246756, Note_on_c, 0, 62, 69
2, 246980, Note_on_c, 0, 62, 0
2, 246990, Note_on_c, 0, 64, 62
2, 247226, Note_on_c, 0, 64, 0
2, 247342, Note_on_c, 0, 64, 70
2, 247457, Note_on_c, 0, 59, 35
2, 247469, Control_c, 0, 64, 0
2, 247498, Note_on_c, 0, 56, 43
2, 247516, Note_on_c, 0, 52, 35
2, 247517, Note_on_c, 0, 49, 30
2, 247583, Note_on_c, 0, 64, 0
2, 247609, Note_on_c, 0, 66, 64
2, 247852, Note_on_c, 0, 66, 0
2, 247957, Note_on_c, 0, 66, 61
2, 248235, Note_on_c, 0, 68, 60
2, 248302, Note_on_c, 0, 66, 0
2, 248432, Note_on_c, 0, 68, 0
2, 248589, Note_on_c, 0, 68, 47
2, 248653, Control_c, 0, 64, 127
2, 249832, Note_on_c, 0, 52, 0
2, 249834, Note_on_c, 0, 49, 0
2, 249906, Note_on_c, 0, 56, 0
2, 250003, Note_on_c, 0, 59, 0
2, 250311, Note_on_c, 0, 71, 57
2, 250326, Note_on_c, 0, 68, 0
2, 250537, Note_on_c, 0, 71, 0
2, 250610, Note_on_c, 0, 58, 31
2, 250617, Note_on_c, 0, 69, 54
2, 250618, Note_on_c, 0, 63, 34
2, 250626, Control_c, 0, 64, 0
2, 250671, Note_on_c, 0, 52, 30
2, 250741, Note_on_c, 0, 69, 0
2, 250748, Note_on_c, 0, 70, 49
2, 251266, Control_c, 0, 64, 127
2, 251339, Control_c, 0, 64, 0
2, 251588, Control_c, 0, 64, 127
2, 251789, Note_on_c, 0, 63, 0
2, 251821, Note_on_c, 0, 70, 0
2, 251827, Note_on_c, 0, 58, 0
2, 251860, Note_on_c, 0, 52, 0
2, 252977, Note_on_c, 0, 70, 80
2, 252984, Note_on_c, 0, 76, 63
2, 253120, Note_on_c, 0, 76, 0
2, 253235, Note_on_c, 0, 74, 49
2, 253238, Note_on_c, 0, 70, 0
2, 253418, Note_on_c, 0, 74, 0
2, 253542, Control_c, 0, 64, 0
2, 253551, Note_on_c, 0, 75, 56
2, 253567, Note_on_c, 0, 63, 57
2, 253571, Note_on_c, 0, 67, 40
2, 253621, Note_on_c, 0, 70, 26
2, 253673, Note_on_c, 0, 63, 0
2, 253680, Note_on_c, 0, 67, 0
2, 253708, Note_on_c, 0, 70, 0
2, 253742, Note_on_c, 0, 75, 0
2, 254171, Note_on_c, 0, 75, 51
2, 254196, Note_on_c, 0, 63, 51
2, 254205, Note_on_c, 0, 67, 36
2, 254212, Note_on_c, 0, 70, 51
2, 254333, Note_on_c, 0, 75, 0
2, 254366, Note_on_c, 0, 63, 0
2, 254400, Note_on_c, 0, 67, 0
2, 254462, Note_on_c, 0, 70, 0
2, 254571, Note_on_c, 0, 74, 42
2, 254583, Note_on_c, 0, 62, 35
2, 254637, Note_on_c, 0, 70, 20
2, 254638, Note_on_c, 0, 67, 18
2, 254656, Note_on_c, 0, 63, 9
2, 254659, Note_on_c, 0, 72, 18
2, 254845, Note_on_c, 0, 63, 0
2, 254904, Note_on_c, 0, 74, 0
2, 254953, Note_on_c, 0, 67, 0
2, 254972, Note_on_c, 0, 72, 0
2, 254982, Note_on_c, 0, 70, 0
2, 255042, Note_on_c, 0, 62, 0
2, 255090, Note_on_c, 0, 63, 34
2, 255097, Note_on_c, 0, 75, 53
2, 255104, Note_on_c, 0, 67, 39
2, 255126, Note_on_c, 0, 70, 53
2, 255224, Note_on_c, 0, 75, 0
2, 255244, Note_on_c, 0, 63, 0
2, 255295, Note_on_c, 0, 67, 0
2, 255330, Note_on_c, 0, 70, 0
2, 255468, Note_on_c, 0, 74, 33
2, 255474, Note_on_c, 0, 62, 28
2, 255508, Note_on_c, 0, 70, 18
2, 255592, Note_on_c, 0, 74, 0
2, 255621, Note_on_c, 0, 70, 0
2, 255671, Note_on_c, 0, 62, 0
2, 255972, Note_on_c, 0, 73, 50
2, 256009, Control_c, 0, 64, 127
2, 256017, Note_on_c, 0, 67, 30
2, 256019, Note_on_c, 0, 63, 35
2, 256032, Note_on_c, 0, 61, 34
2, 256132, Note_on_c, 0, 73, 0
2, 256135, Note_on_c, 0, 61, 0
2, 256161, Note_on_c, 0, 63, 0
2, 256170, Note_on_c, 0, 67, 0
2, 256258, Control_c, 0, 64, 0
2, 256339, Note_on_c, 0, 72, 39
2, 256354, Note_on_c, 0, 63, 39
2, 256783, Control_c, 0, 64, 127
2, 256955, Note_on_c, 0, 63, 0
2, 257227, Note_on_c, 0, 63, 40
2, 257229, Note_on_c, 0, 69, 45
2, 257256, Note_on_c, 0, 60, 32
2, 257256, Note_on_c, 0, 53, 33
2, 258022, Note_on_c, 0, 63, 0
2, 258078, Note_on_c, 0, 60, 0
2, 258172, Note_on_c, 0, 53, 0
2, 258308, Note_on_c, 0, 72, 0
2, 258316, Note_on_c, 0, 69, 0
2, 259105, Control_c, 0, 64, 0
2, 259172, Note_on_c, 0, 59, 45
2, 259174, Note_on_c, 0, 66, 51
2, 259181, Note_on_c, 0, 49, 24
2, 259184, Note_on_c, 0, 63, 50
2, 259194, Note_on_c, 0, 56, 29
2, 259197, Note_on_c, 0, 52, 36
2, 259216, Note_on_c, 0, 58, 15
2, 259290, Note_on_c, 0, 59, 0
2, 259338, Control_c, 0, 64, 127
2, 259347, Note_on_c, 0, 63, 0
2, 259372, Note_on_c, 0, 52, 0
2, 259373, Note_on_c, 0, 56, 0
2, 259381, Note_on_c, 0, 58, 0
2, 259388, Note_on_c, 0, 66, 0
2, 259395, Note_on_c, 0, 49, 0
2, 259864, Note_on_c, 0, 78, 84
2, 259871, Note_on_c, 0, 71, 85
2, 259880, Control_c, 0, 64, 0
2, 259881, Note_on_c, 0, 63, 82
2, 259883, Note_on_c, 0, 68, 85
2, 259893, Note_on_c, 0, 75, 61
2, 259941, Note_on_c, 0, 75, 0
2, 260011, Control_c, 0, 64, 127
2, 260179, Note_on_c, 0, 78, 0
2, 260216, Note_on_c, 0, 71, 0
2, 260254, Note_on_c, 0, 68, 0
2, 260449, Note_on_c, 0, 63, 0
2, 260492, Note_on_c, 0, 75, 74
2, 260515, Note_on_c, 0, 68, 74
2, 260518, Note_on_c, 0, 64, 75
2, 260531, Note_on_c, 0, 59, 64
2, 260553, Note_on_c, 0, 71, 36
2, 260675, Note_on_c, 0, 71, 0
2, 260754, Note_on_c, 0, 68, 0
2, 260755, Note_on_c, 0, 75, 0
2, 260819, Note_on_c, 0, 64, 0
2, 261119, Note_on_c, 0, 59, 0
2, 261122, Note_on_c, 0, 71, 54
2, 261129, Note_on_c, 0, 56, 52
2, 261144, Note_on_c, 0, 64, 59
2, 261153, Note_on_c, 0, 61, 46
2, 261205, Note_on_c, 0, 56, 0
2, 261256, Note_on_c, 0, 71, 0
2, 261281, Note_on_c, 0, 64, 0
2, 261329, Note_on_c, 0, 61, 0
2, 261701, Note_on_c, 0, 68, 58
2, 261710, Note_on_c, 0, 59, 53
2, 261718, Note_on_c, 0, 63, 63
2, 261736, Note_on_c, 0, 49, 24
2, 261918, Note_on_c, 0, 59, 0
2, 261936, Note_on_c, 0, 63, 0
2, 262009, Note_on_c, 0, 68, 0
2, 262070, Control_c, 0, 64, 0
2, 262227, Note_on_c, 0, 49, 0
2, 262243, Note_on_c, 0, 42, 36
2, 262250, Note_on_c, 0, 52, 33
2, 262253, Note_on_c, 0, 58, 55
2, 262258, Note_on_c, 0, 62, 55
2, 262328, Note_on_c, 0, 67, 29
2, 263063, Control_c, 0, 64, 127
2, 264213, Control_c, 0, 64, 0
2, 264397, Note_on_c, 0, 58, 0
2, 264469, Note_on_c, 0, 67, 0
2, 264472, Note_on_c, 0, 62, 0
2, 264594, Note_on_c, 0, 71, 53
2, 264694, Note_on_c, 0, 42, 0
2, 264710, Control_c, 0, 64, 127
2, 264711, Note_on_c, 0, 52, 0
2, 264755, Control_c, 0, 64, 0
2, 264762, Note_on_c, 0, 71, 0
2, 264962, Note_on_c, 0, 61, 77
2, 264969, Note_on_c, 0, 57, 68
2, 264972, Note_on_c, 0, 56, 64
2, 264981, Note_on_c, 0, 80, 94
2, 264985, Note_on_c, 0, 51, 62
2, 265061, Control_c, 0, 64, 127
2, 265501, Note_on_c, 0, 51, 0
2, 265533, Note_on_c, 0, 80, 0
2, 265554, Note_on_c, 0, 61, 0
2, 265582, Note_on_c, 0, 56, 0
2, 265591, Note_on_c, 0, 57, 0
2, 265700, Note_on_c, 0, 61, 47
2, 265709, Note_on_c, 0, 57, 52
2, 265715, Note_on_c, 0, 81, 69
2, 265718, Note_on_c, 0, 56, 41
2, 265731, Note_on_c, 0, 51, 43
2, 266300, Note_on_c, 0, 57, 0
2, 266331, Note_on_c, 0, 61, 0
2, 266418, Note_on_c, 0, 56, 0
2, 266580, Note_on_c, 0, 78, 72
2, 266582, Note_on_c, 0, 56, 19
2, 266601, Note_on_c, 0, 61, 47
2, 266603, Note_on_c, 0, 57, 50
2, 266658, Note_on_c, 0, 81, 0
2, 267060, Note_on_c, 0, 51, 0
2, 267083, Note_on_c, 0, 57, 0
2, 267095, Note_on_c, 0, 78, 0
2, 267102, Note_on_c, 0, 61, 0
2, 267126, Note_on_c, 0, 56, 0
2, 267455, Note_on_c, 0, 78, 63
2, 267487, Note_on_c, 0, 56, 17
2, 267488, Note_on_c, 0, 61, 31
2, 267495, Note_on_c, 0, 51, 28
2, 267497, Note_on_c, 0, 57, 32
2, 267606, Note_on_c, 0, 61, 0
2, 267610, Note_on_c, 0, 51, 0
2, 267626, Note_on_c, 0, 57, 0
2, 267648, Note_on_c, 0, 56, 0
2, 267730, Control_c, 0, 64, 0
2, 267771, Note_on_c, 0, 78, 0
2, 267837, Note_on_c, 0, 61, 39
2, 267845, Note_on_c, 0, 57, 48
2, 267849, Note_on_c, 0, 56, 32
2, 267849, Note_on_c, 0, 80, 59
2, 267851, Note_on_c, 0, 51, 36
2, 267906, Control_c, 0, 64, 127
2, 268213, Note_on_c, 0, 80, 0
2, 268215, Note_on_c, 0, 51, 0
2, 268216, Note_on_c, 0, 57, 0
2, 268238, Note_on_c, 0, 56, 0
2, 268264, Note_on_c, 0, 61, 0
2, 268781, Control_c, 0, 64, 0
2, 268790, Note_on_c, 0, 85, 67
2, 268793, Note_on_c, 0, 61, 47
2, 268796, Note_on_c, 0, 73, 59
2, 268800, Note_on_c, 0, 56, 33
2, 268807, Note_on_c, 0, 57, 51
2, 268836, Note_on_c, 0, 51, 38
2, 269122, Control_c, 0, 64, 127
2, 269516, Note_on_c, 0, 85, 0
2, 269540, Note_on_c, 0, 61, 0
2, 269609, Note_on_c, 0, 57, 0
2, 269609, Note_on_c, 0, 56, 0
2, 269660, Note_on_c, 0, 73, 0
2, 269675, Note_on_c, 0, 51, 0
2, 270699, Control_c, 0, 64, 0
2, 270752, Note_on_c, 0, 54, 34
2, 270760, Note_on_c, 0, 61, 41
2, 270768, Note_on_c, 0, 44, 38
2, 270773, Note_on_c, 0, 58, 38
2, 270780, Note_on_c, 0, 51, 32
2, 271632, Control_c, 0, 64, 127
2, 272933, Note_on_c, 0, 61, 0
2, 272948, Note_on_c, 0, 51, 0
2, 273032, Note_on_c, 0, 54, 0
2, 273041, Note_on_c, 0, 58, 0
2, 273497, Control_c, 0, 64, 0
2, 273542, Note_on_c, 0, 60, 37
2, 273564, Note_on_c, 0, 54, 32
2, 273573, Note_on_c, 0, 51, 24
2, 273576, Note_on_c, 0, 57, 38
2, 273804, Control_c, 0, 64, 127
2, 275214, Note_on_c, 0, 44, 0
2, 275429, Note_on_c, 0, 51, 0
2, 275701, Note_on_c, 0, 54, 0
2, 275840, Note_on_c, 0, 60, 0
2, 275862, Note_on_c, 0, 57, 0
2, 276057, Note_on_c, 0, 49, 40
2, 276122, Note_on_c, 0, 50, 42
2, 276268, Note_on_c, 0, 51, 62
2, 276284, Note_on_c, 0, 49, 0
2, 276300, Note_on_c, 0, 50, 0
2, 276345, Control_c, 0, 64, 0
2, 276402, Note_on_c, 0, 57, 48
2, 276413, Note_on_c, 0, 54, 55
2, 276416, Note_on_c, 0, 61, 68
2, 276428, Note_on_c, 0, 64, 60
2, 276456, Note_on_c, 0, 51, 0
2, 276457, Note_on_c, 0, 52, 71
2, 277323, Control_c, 0, 64, 127
2, 277612, Note_on_c, 0, 54, 0
2, 277665, Note_on_c, 0, 57, 0
2, 277698, Note_on_c, 0, 61, 0
2, 277840, Note_on_c, 0, 64, 0
2, 278140, Note_on_c, 0, 52, 0
2, 278772, Note_on_c, 0, 66, 34
2, 278910, Note_on_c, 0, 66, 0
2, 279078, Note_on_c, 0, 68, 78
2, 279356, Note_on_c, 0, 68, 0
2, 279430, Note_on_c, 0, 60, 65
2, 279435, Note_on_c, 0, 67, 70
2, 279440, Control_c, 0, 64, 0
2, 279442, Note_on_c, 0, 63, 76
2, 279442, Note_on_c, 0, 70, 71
2, 279455, Note_on_c, 0, 58, 66
2, 279464, Note_on_c, 0, 56, 59
2, 280243, Control_c, 0, 64, 127
2, 281196, Note_on_c, 0, 63, 0
2, 281562, Note_on_c, 0, 67, 0
2, 281601, Note_on_c, 0, 70, 0
2, 281610, Note_on_c, 0, 58, 0
2, 281613, Note_on_c, 0, 68, 44
2, 281648, Note_on_c, 0, 56, 0
2, 281819, Note_on_c, 0, 60, 0
2, 281853, Note_on_c, 0, 68, 0
2, 281911, Note_on_c, 0, 70, 57
2, 282116, Note_on_c, 0, 70, 0
2, 282271, Control_c, 0, 64, 0
2, 282299, Note_on_c, 0, 67, 43
2, 282301, Note_on_c, 0, 62, 32
2, 282303, Note_on_c, 0, 71, 36
2, 282312, Note_on_c, 0, 64, 38
2, 282329, Note_on_c, 0, 59, 28
2, 282379, Note_on_c, 0, 55, 34
2, 282389, Note_on_c, 0, 52, 19
2, 283016, Control_c, 0, 64, 127
2, 283302, Note_on_c, 0, 64, 0
2, 283444, Note_on_c, 0, 67, 0
2, 283510, Note_on_c, 0, 71, 0
2, 283788, Note_on_c, 0, 83, 69
2, 284014, Note_on_c, 0, 59, 0
2, 284123, Note_on_c, 0, 52, 0
2, 284212, Note_on_c, 0, 55, 0
2, 284238, Note_on_c, 0, 62, 0
2, 284579, Note_on_c, 0, 83, 0
2, 284678, Note_on_c, 0, 78, 45
2, 285176, Control_c, 0, 64, 0
2, 285184, Note_on_c, 0, 78, 0
2, 285186, Note_on_c, 0, 75, 44
2, 285203, Note_on_c, 0, 66, 30
2, 285205, Note_on_c, 0, 71, 36
2, 285225, Note_on_c, 0, 55, 27
2, 285264, Note_on_c, 0, 61, 36
2, 285569, Control_c, 0, 64, 127
2, 285995, Note_on_c, 0, 66, 0
2, 286008, Note_on_c, 0, 75, 0
2, 286093, Note_on_c, 0, 71, 0
2, 286303, Note_on_c, 0, 61, 0
2, 286311, Note_on_c, 0, 55, 0
2, 288032, Note_on_c, 0, 61, 85
2, 288034, Note_on_c, 0, 66, 79
2, 288037, Note_on_c, 0, 38, 71
2, 288038, Note_on_c, 0, 54, 82
2, 288047, Control_c, 0, 64, 0
2, 288048, Note_on_c, 0, 45, 69
2, 288353, Control_c, 0, 64, 127
2, 288545, Note_on_c, 0, 54, 0
2, 288600, Note_on_c, 0, 38, 0
2, 288657, Note_on_c, 0, 45, 0
2, 288683, Note_on_c, 0, 66, 0
2, 288775, Note_on_c, 0, 61, 0
2, 288979, Control_c, 0, 64, 0
2, 289012, Note_on_c, 0, 46, 65
2, 289021, Note_on_c, 0, 67, 71
2, 289030, Note_on_c, 0, 62, 75
2, 289031, Note_on_c, 0, 55, 80
2, 289040, Note_on_c, 0, 39, 59
2, 289124, Note_on_c, 0, 55, 0
2, 289156, Note_on_c, 0, 67, 0
2, 289166, Note_on_c, 0, 62, 0
2, 289230, Note_on_c, 0, 46, 0
2, 289245, Note_on_c, 0, 39, 0
2, 290392, Control_c, 0, 64, 127
2, 290510, Note_on_c, 0, 44, 52
2, 290526, Note_on_c, 0, 65, 61
2, 290531, Note_on_c, 0, 60, 56
2, 290532, Note_on_c, 0, 53, 57
2, 290539, Note_on_c, 0, 37, 38
2, 290640, Note_on_c, 0, 37, 0
2, 290644, Note_on_c, 0, 44, 0
2, 290777, Note_on_c, 0, 53, 0
2, 290788, Note_on_c, 0, 65, 0
2, 290791, Note_on_c, 0, 60, 0
2, 290845, Control_c, 0, 64, 0
2, 290930, Note_on_c, 0, 54, 47
2, 290931, Note_on_c, 0, 61, 58
2, 290933, Note_on_c, 0, 50, 49
2, 290941, Note_on_c, 0, 66, 44
2, 290943, Note_on_c, 0, 38, 43
2, 291149, Note_on_c, 0, 38, 0
2, 291166, Control_c, 0, 64, 127
2, 291174, Note_on_c, 0, 54, 0
2, 291259, Note_on_c, 0, 50, 0
2, 291260, Note_on_c, 0, 61, 0
2, 291286, Note_on_c, 0, 66, 0
2, 291875, Note_on_c, 0, 69, 51
2, 291888, Note_on_c, 0, 59, 49
2, 291891, Note_on_c, 0, 62, 49
2, 291892, Note_on_c, 0, 66, 47
2, 291908, Note_on_c, 0, 57, 47
2, 292869, Note_on_c, 0, 66, 0
2, 292968, Note_on_c, 0, 57, 0
2, 293003, Note_on_c, 0, 62, 0
2, 293012, Note_on_c, 0, 59, 0
2, 293023, Note_on_c, 0, 69, 0
2, 293389, Note_on_c, 0, 62, 49
2, 293613, Note_on_c, 0, 62, 0
2, 293856, Control_c, 0, 64, 0
2, 294133, Note_on_c, 0, 55, 43
2, 294134, Note_on_c, 0, 60, 48
2, 294142, Note_on_c, 0, 45, 34
2, 294143, Note_on_c, 0, 64, 54
2, 294204, Note_on_c, 0, 64, 0
2, 294217, Note_on_c, 0, 60, 0
2, 294242, Note_on_c, 0, 45, 0
2, 294245, Note_on_c, 0, 55, 0
2, 294803, Note_on_c, 0, 60, 57
2, 294804, Note_on_c, 0, 55, 52
2, 294806, Note_on_c, 0, 64, 48
2, 294833, Note_on_c, 0, 45, 33
2, 295053, Control_c, 0, 64, 127
2, 295628, Note_on_c, 0, 55, 0
2, 295688, Note_on_c, 0, 64, 0
2, 295750, Note_on_c, 0, 60, 0
2, 295793, Note_on_c, 0, 45, 0
2, 295941, Control_c, 0, 64, 0
2, 296088, Control_c, 0, 64, 127
2, 296196, Note_on_c, 0, 59, 58
2, 296200, Note_on_c, 0, 63, 58
2, 296224, Note_on_c, 0, 54, 41
2, 296227, Note_on_c, 0, 44, 44
2, 296315, Note_on_c, 0, 59, 0
2, 296326, Note_on_c, 0, 63, 0
2, 296363, Note_on_c, 0, 54, 0
2, 296378, Note_on_c, 0, 44, 0
2, 296585, Control_c, 0, 64, 0
2, 296749, Note_on_c, 0, 54, 32
2, 296757, Note_on_c, 0, 62, 36
2, 296758, Note_on_c, 0, 57, 46
2, 296770, Note_on_c, 0, 43, 31
2, 296774, Note_on_c, 0, 59, 32
2, 296778, Note_on_c, 0, 50, 30
2, 297445, Control_c, 0, 64, 127
2, 297838, Note_on_c, 0, 54, 0
2, 297872, Note_on_c, 0, 59, 0
2, 297882, Note_on_c, 0, 43, 0
2, 297948, Note_on_c, 0, 50, 0
2, 298004, Note_on_c, 0, 62, 0
2, 298010, Note_on_c, 0, 57, 0
2, 298176, Control_c, 0, 64, 0
2, 298215, Note_on_c, 0, 61, 68
2, 298220, Note_on_c, 0, 53, 56
2, 298230, Note_on_c, 0, 56, 60
2, 298245, Note_on_c, 0, 58, 57
2, 298274, Note_on_c, 0, 42, 36
2, 298275, Note_on_c, 0, 49, 38
2, 298546, Control_c, 0, 64, 127
2, 298807, Note_on_c, 0, 49, 0
2, 299012, Note_on_c, 0, 56, 0
2, 299144, Note_on_c, 0, 42, 0
2, 299155, Note_on_c, 0, 58, 0
2, 299172, Note_on_c, 0, 53, 0
2, 299190, Note_on_c, 0, 46, 45
2, 299391, Note_on_c, 0, 61, 0
2, 299405, Control_c, 0, 64, 0
2, 299506, Note_on_c, 0, 46, 0
2, 299558, Note_on_c, 0, 63, 67
2, 299565, Note_on_c, 0, 54, 61
2, 299567, Note_on_c, 0, 58, 67
2, 299581, Note_on_c, 0, 47, 51
2, 299699, Control_c, 0, 64, 127
2, 299871, Note_on_c, 0, 58, 0
2, 299877, Note_on_c, 0, 63, 0
2, 299928, Note_on_c, 0, 47, 0
2, 300001, Note_on_c, 0, 54, 0
2, 300287, Note_on_c, 0, 66, 68
2, 300295, Note_on_c, 0, 61, 77
2, 300296, Control_c, 0, 64, 0
2, 300298, Note_on_c, 0, 51, 60
2, 300308, Note_on_c, 0, 56, 63
2, 300589, Control_c, 0, 64, 127
2, 300599, Note_on_c, 0, 56, 0
2, 300669, Note_on_c, 0, 66, 0
2, 300672, Note_on_c, 0, 61, 0
2, 300927, Note_on_c, 0, 70, 71
2, 300937, Note_on_c, 0, 59, 68
2, 300946, Note_on_c, 0, 51, 0
2, 300953, Note_on_c, 0, 54, 68
2, 301114, Note_on_c, 0, 59, 0
2, 301174, Note_on_c, 0, 70, 0
2, 301314, Note_on_c, 0, 54, 0
2, 301462, Control_c, 0, 64, 0
2, 301513, Note_on_c, 0, 73, 78
2, 301532, Note_on_c, 0, 58, 64
2, 301534, Note_on_c, 0, 66, 74
2, 301544, Note_on_c, 0, 63, 80
2, 301724, Control_c, 0, 64, 127
2, 301748, Note_on_c, 0, 58, 0
2, 301940, Note_on_c, 0, 63, 0
2, 302011, Note_on_c, 0, 73, 0
2, 302023, Note_on_c, 0, 66, 0
2, 302150, Note_on_c, 0, 71, 75
2, 302183, Note_on_c, 0, 66, 51
2, 302186, Note_on_c, 0, 61, 59
2, 302192, Note_on_c, 0, 57, 58
2, 302205, Note_on_c, 0, 62, 53
2, 302206, Control_c, 0, 64, 0
2, 302572, Control_c, 0, 64, 127
2, 302637, Note_on_c, 0, 71, 0
2, 302771, Note_on_c, 0, 74, 54
2, 303096, Note_on_c, 0, 74, 0
2, 303175, Note_on_c, 0, 66, 0
2, 303246, Note_on_c, 0, 62, 0
2, 303371, Note_on_c, 0, 61, 0
2, 303412, Note_on_c, 0, 78, 51
2, 303747, Note_on_c, 0, 78, 0
2, 304032, Control_c, 0, 64, 0
2, 304041, Note_on_c, 0, 66, 32
2, 304050, Note_on_c, 0, 85, 60
2, 304063, Note_on_c, 0, 62, 23
2, 304179, Control_c, 0, 64, 127
2, 304379, Note_on_c, 0, 66, 0
2, 304545, Note_on_c, 0, 85, 0
2, 304645, Note_on_c, 0, 84, 48
2, 304655, Note_on_c, 0, 57, 0
2, 304810, Note_on_c, 0, 62, 0
2, 305198, Note_on_c, 0, 84, 0
2, 305200, Note_on_c, 0, 65, 29
2, 305210, Note_on_c, 0, 85, 55
2, 305226, Note_on_c, 0, 73, 35
2, 305229, Control_c, 0, 64, 0
2, 305248, Note_on_c, 0, 56, 30
2, 305251, Note_on_c, 0, 60, 23
2, 305268, Note_on_c, 0, 61, 42
2, 305549, Control_c, 0, 64, 127
2, 305759, Note_on_c, 0, 73, 0
2, 305905, Note_on_c, 0, 85, 0
2, 306350, Note_on_c, 0, 96, 57
2, 306413, Control_c, 0, 64, 0
2, 306507, Note_on_c, 0, 96, 0
2, 306614, Note_on_c, 0, 97, 60
2, 306727, Note_on_c, 0, 97, 0
2, 306903, Note_on_c, 0, 97, 70
2, 307039, Note_on_c, 0, 97, 0
2, 307199, Note_on_c, 0, 96, 54
2, 307336, Note_on_c, 0, 96, 0
2, 307495, Note_on_c, 0, 61, 0
2, 307496, Note_on_c, 0, 97, 47
2, 307532, Note_on_c, 0, 56, 0
2, 307553, Note_on_c, 0, 60, 0
2, 307557, Note_on_c, 0, 65, 0
2, 307599, Note_on_c, 0, 97, 0
2, 307806, Note_on_c, 0, 97, 67
2, 307962, Note_on_c, 0, 97, 0
2, 308110, Note_on_c, 0, 96, 49
2, 308134, Note_on_c, 0, 61, 28
2, 308134, Note_on_c, 0, 65, 19
2, 308142, Note_on_c, 0, 55, 32
2, 308335, Note_on_c, 0, 96, 0
2, 308410, Note_on_c, 0, 97, 47
2, 308591, Note_on_c, 0, 97, 0
2, 308735, Note_on_c, 0, 98, 58
2, 308955, Note_on_c, 0, 98, 0
2, 309050, Note_on_c, 0, 99, 53
2, 309210, Note_on_c, 0, 99, 0
2, 309226, Note_on_c, 0, 65, 0
2, 309303, Note_on_c, 0, 61, 0
2, 309348, Note_on_c, 0, 94, 48
2, 309371, Note_on_c, 0, 55, 0
2, 309475, Note_on_c, 0, 94, 0
2, 310094, Note_on_c, 0, 65, 30
2, 310095, Note_on_c, 0, 87, 49
2, 310104, Control_c, 0, 64, 127
2, 310130, Note_on_c, 0, 55, 29
2, 310137, Note_on_c, 0, 61, 32
2, 310513, Note_on_c, 0, 61, 0
2, 310535, Note_on_c, 0, 65, 0
2, 310666, Note_on_c, 0, 87, 0
2, 310784, Note_on_c, 0, 55, 0
2, 310845, Note_on_c, 0, 90, 28
2, 310938, Note_on_c, 0, 92, 66
2, 310992, Note_on_c, 0, 90, 0
2, 311052, Control_c, 0, 64, 0
2, 311107, Note_on_c, 0, 93, 57
2, 311130, Note_on_c, 0, 92, 0
2, 311242, Note_on_c, 0, 93, 0
2, 311248, Note_on_c, 0, 62, 25
2, 311250, Note_on_c, 0, 94, 58
2, 311274, Note_on_c, 0, 59, 17
2, 311276, Note_on_c, 0, 54, 36
2, 311283, Note_on_c, 0, 56, 43
2, 311427, Note_on_c, 0, 95, 67
2, 311452, Note_on_c, 0, 94, 0
2, 311570, Note_on_c, 0, 95, 0
2, 311727, Note_on_c, 0, 95, 58
2, 311852, Note_on_c, 0, 95, 0
2, 312075, Note_on_c, 0, 95, 64
2, 312211, Note_on_c, 0, 95, 0
2, 312289, Note_on_c, 0, 83, 58
2, 312490, Note_on_c, 0, 83, 0
2, 312624, Note_on_c, 0, 83, 46
2, 312748, Note_on_c, 0, 83, 0
2, 313094, Control_c, 0, 64, 127
2, 313121, Note_on_c, 0, 83, 48
2, 313634, Note_on_c, 0, 54, 0
2, 313637, Note_on_c, 0, 59, 0
2, 313683, Note_on_c, 0, 56, 0
2, 313755, Note_on_c, 0, 62, 0
2, 313942, Control_c, 0, 64, 0
2, 313959, Note_on_c, 0, 59, 31
2, 313971, Note_on_c, 0, 89, 57
2, 313980, Note_on_c, 0, 53, 34
2, 313988, Note_on_c, 0, 83, 0
2, 314568, Note_on_c, 0, 77, 26
2, 314613, Control_c, 0, 64, 127
2, 315130, Note_on_c, 0, 89, 0
2, 315139, Note_on_c, 0, 77, 0
2, 315702, Note_on_c, 0, 59, 0
2, 315987, Note_on_c, 0, 53, 0
2, 316688, Control_c, 0, 64, 0
2, 316743, Note_on_c, 0, 60, 33
2, 316750, Note_on_c, 0, 57, 44
2, 316759, Note_on_c, 0, 52, 28
2, 316768, Note_on_c, 0, 54, 36
2, 316769, Note_on_c, 0, 68, 74
2, 316979, Note_on_c, 0, 69, 46
2, 317056, Note_on_c, 0, 68, 0
2, 317113, Note_on_c, 0, 70, 61
2, 317186, Note_on_c, 0, 69, 0
2, 317240, Note_on_c, 0, 70, 0
2, 317250, Note_on_c, 0, 71, 53
2, 317420, Note_on_c, 0, 70, 46
2, 317512, Note_on_c, 0, 71, 0
2, 317595, Note_on_c, 0, 69, 44
2, 317614, Note_on_c, 0, 70, 0
2, 317733, Note_on_c, 0, 69, 0
2, 317746, Note_on_c, 0, 68, 36
2, 317976, Note_on_c, 0, 68, 0
2, 318862, Control_c, 0, 64, 127
2, 319129, Note_on_c, 0, 60, 0
2, 319210, Note_on_c, 0, 54, 0
2, 319211, Note_on_c, 0, 52, 0
2, 319243, Note_on_c, 0, 57, 0
2, 319336, Note_on_c, 0, 64, 50
2, 319604, Control_c, 0, 64, 0
2, 319750, Note_on_c, 0, 64, 0
2, 319900, Note_on_c, 0, 66, 56
2, 320504, Note_on_c, 0, 66, 0
2, 320641, Note_on_c, 0, 60, 27
2, 320645, Note_on_c, 0, 62, 35
2, 321051, Note_on_c, 0, 60, 0
2, 321153, Note_on_c, 0, 62, 0
2, 321261, Note_on_c, 0, 65, 59
2, 321884, Note_on_c, 0, 61, 51
2, 321897, Control_c, 0, 64, 127
2, 321921, Note_on_c, 0, 56, 35
2, 322164, Note_on_c, 0, 61, 0
2, 322272, Note_on_c, 0, 41, 35
2, 322328, Note_on_c, 0, 56, 0
2, 322535, Note_on_c, 0, 41, 0
2, 322627, Control_c, 0, 64, 0
2, 322649, Note_on_c, 0, 59, 40
2, 322651, Note_on_c, 0, 55, 43
2, 322710, Note_on_c, 0, 50, 30
2, 322714, Note_on_c, 0, 40, 35
2, 323109, Control_c, 0, 64, 127
2, 323489, Note_on_c, 0, 40, 0
2, 323554, Note_on_c, 0, 65, 0
2, 323693, Note_on_c, 0, 50, 0
2, 323729, Note_on_c, 0, 55, 0
2, 323792, Note_on_c, 0, 59, 0
2, 324336, Control_c, 0, 64, 0
2, 324410, Note_on_c, 0, 66, 78
2, 324418, Note_on_c, 0, 55, 83
2, 324419, Note_on_c, 0, 59, 74
2, 324426, Note_on_c, 0, 62, 63
2, 324431, Note_on_c, 0, 54, 70
2, 324573, Control_c, 0, 64, 127
2, 324611, Note_on_c, 0, 55, 0
2, 324632, Note_on_c, 0, 59, 0
2, 324680, Note_on_c, 0, 66, 0
2, 324681, Note_on_c, 0, 54, 0
2, 324700, Note_on_c, 0, 62, 0
2, 324994, Control_c, 0, 64, 0
2, 325047, Note_on_c, 0, 69, 74
2, 325048, Note_on_c, 0, 57, 74
2, 325060, Note_on_c, 0, 62, 79
2, 325064, Note_on_c, 0, 66, 69
2, 325066, Note_on_c, 0, 59, 79
2, 325188, Control_c, 0, 64, 127
2, 325272, Note_on_c, 0, 59, 0
2, 325322, Note_on_c, 0, 66, 0
2, 325338, Note_on_c, 0, 62, 0
2, 325363, Note_on_c, 0, 57, 0
2, 325412, Note_on_c, 0, 69, 0
2, 325569, Control_c, 0, 64, 0
2, 325715, Note_on_c, 0, 71, 64
2, 325738, Note_on_c, 0, 67, 56
2, 325740, Note_on_c, 0, 60, 63
2, 325748, Note_on_c, 0, 64, 60
2, 325759, Note_on_c, 0, 59, 64
2, 325818, Note_on_c, 0, 64, 0
2, 325831, Note_on_c, 0, 60, 0
2, 325871, Note_on_c, 0, 59, 0
2, 325882, Note_on_c, 0, 67, 0
2, 325913, Note_on_c, 0, 71, 0
2, 326428, Note_on_c, 0, 62, 50
2, 326434, Note_on_c, 0, 71, 46
2, 326452, Note_on_c, 0, 69, 51
2, 326457, Note_on_c, 0, 65, 53
2, 326473, Note_on_c, 0, 59, 34
2, 326567, Control_c, 0, 64, 127
2, 327129, Note_on_c, 0, 71, 0
2, 327212, Note_on_c, 0, 69, 0
2, 327244, Note_on_c, 0, 65, 0
2, 327656, Note_on_c, 0, 62, 0
2, 327832, Note_on_c, 0, 59, 0
2, 327934, Note_on_c, 0, 74, 59
2, 328123, Note_on_c, 0, 74, 0
2, 328362, Control_c, 0, 64, 0
2, 328398, Note_on_c, 0, 76, 46
2, 328407, Note_on_c, 0, 59, 25
2, 328416, Note_on_c, 0, 64, 36
2, 328425, Note_on_c, 0, 56, 41
2, 328426, Note_on_c, 0, 71, 44
2, 328443, Note_on_c, 0, 49, 40
2, 328726, Control_c, 0, 64, 127
2, 329498, Note_on_c, 0, 64, 0
2, 329844, Note_on_c, 0, 64, 41
2, 329885, Note_on_c, 0, 71, 0
2, 329918, Note_on_c, 0, 76, 0
2, 330016, Note_on_c, 0, 59, 0
2, 330023, Note_on_c, 0, 64, 0
2, 330214, Note_on_c, 0, 56, 0
2, 330434, Note_on_c, 0, 49, 0
2, 330550, Note_on_c, 0, 69, 50
2, 330744, Note_on_c, 0, 69, 0
2, 331163, Control_c, 0, 64, 0
2, 331165, Note_on_c, 0, 70, 35
2, 331185, Note_on_c, 0, 58, 38
2, 331233, Note_on_c, 0, 52, 24
2, 331240, Note_on_c, 0, 42, 28
2, 331715, Note_on_c, 0, 58, 0
2, 331820, Control_c, 0, 64, 127
2, 331853, Note_on_c, 0, 58, 31
2, 331864, Note_on_c, 0, 62, 40
2, 332146, Note_on_c, 0, 58, 0
2, 332281, Note_on_c, 0, 62, 0
2, 332348, Note_on_c, 0, 42, 0
2, 332401, Note_on_c, 0, 70, 0
2, 332456, Note_on_c, 0, 52, 0
2, 333090, Control_c, 0, 64, 0
2, 333158, Note_on_c, 0, 75, 101
2, 333167, Note_on_c, 0, 63, 74
2, 333455, Control_c, 0, 64, 127
2, 333676, Note_on_c, 0, 75, 0
2, 333717, Note_on_c, 0, 63, 0
2, 333758, Note_on_c, 0, 62, 40
2, 333771, Note_on_c, 0, 74, 54
2, 334053, Note_on_c, 0, 74, 0
2, 334068, Control_c, 0, 64, 0
2, 334131, Note_on_c, 0, 75, 72
2, 334135, Note_on_c, 0, 63, 63
2, 334138, Note_on_c, 0, 62, 0
2, 334193, Note_on_c, 0, 63, 0
2, 334286, Note_on_c, 0, 75, 0
2, 335060, Note_on_c, 0, 75, 40
2, 335080, Note_on_c, 0, 67, 34
2, 335093, Note_on_c, 0, 70, 52
2, 335100, Note_on_c, 0, 63, 41
2, 335122, Note_on_c, 0, 48, 31
2, 335172, Note_on_c, 0, 63, 0
2, 335195, Note_on_c, 0, 67, 0
2, 335230, Note_on_c, 0, 70, 0
2, 335259, Note_on_c, 0, 75, 0
2, 335260, Note_on_c, 0, 48, 0
2, 336066, Note_on_c, 0, 75, 35
2, 336095, Note_on_c, 0, 70, 44
2, 336102, Note_on_c, 0, 48, 25
2, 336103, Note_on_c, 0, 67, 25
2, 336111, Note_on_c, 0, 63, 31
2, 336127, Control_c, 0, 64, 127
2, 336336, Note_on_c, 0, 48, 0
2, 336454, Note_on_c, 0, 75, 0
2, 336497, Note_on_c, 0, 70, 0
2, 336520, Note_on_c, 0, 63, 0
2, 336591, Note_on_c, 0, 67, 0
2, 336839, Control_c, 0, 64, 0
2, 336967, Note_on_c, 0, 29, 33
2, 337059, Control_c, 0, 64, 127
2, 337102, Note_on_c, 0, 29, 0
2, 337964, Note_on_c, 0, 69, 49
2, 337982, Note_on_c, 0, 62, 51
2, 338014, Note_on_c, 0, 57, 42
2, 338915, Note_on_c, 0, 62, 0
2, 338981, Note_on_c, 0, 69, 0
2, 339109, Note_on_c, 0, 57, 0
2, 339790, Control_c, 0, 64, 0
2, 339847, Note_on_c, 0, 78, 74
2, 339864, Note_on_c, 0, 71, 63
2, 339867, Note_on_c, 0, 63, 53
2, 339870, Note_on_c, 0, 68, 58
2, 340054, Control_c, 0, 64, 127
2, 340180, Note_on_c, 0, 63, 0
2, 340643, Note_on_c, 0, 78, 0
2, 340702, Note_on_c, 0, 71, 0
2, 340715, Note_on_c, 0, 68, 0
2, 342048, Note_on_c, 0, 75, 56
2, 342315, Note_on_c, 0, 75, 0
2, 342363, Note_on_c, 0, 68, 26
2, 342533, Control_c, 0, 64, 0
2, 342581, Note_on_c, 0, 68, 0
2, 342669, Note_on_c, 0, 42, 37
2, 342693, Note_on_c, 0, 68, 50
2, 342747, Note_on_c, 0, 42, 0
2, 342781, Control_c, 0, 64, 127
2, 343290, Note_on_c, 0, 68, 0
2, 343673, Note_on_c, 0, 67, 39
2, 343692, Note_on_c, 0, 64, 36
2, 343720, Note_on_c, 0, 63, 17
2, 343723, Note_on_c, 0, 58, 31
2, 343730, Note_on_c, 0, 52, 17
2, 344215, Note_on_c, 0, 63, 0
2, 344295, Note_on_c, 0, 58, 0
2, 344451, Note_on_c, 0, 52, 0
2, 344793, Note_on_c, 0, 67, 0
2, 344835, Note_on_c, 0, 64, 0
2, 345589, Note_on_c, 0, 66, 48
2, 345598, Control_c, 0, 64, 0
2, 345600, Note_on_c, 0, 42, 32
2, 345602, Note_on_c, 0, 61, 44
2, 345613, Note_on_c, 0, 35, 33
2, 345652, Note_on_c, 0, 51, 38
2, 345978, Control_c, 0, 64, 127
2, 345990, Note_on_c, 0, 61, 0
2, 346051, Note_on_c, 0, 66, 0
2, 346562, Note_on_c, 0, 83, 36
2, 346569, Note_on_c, 0, 85, 32
2, 346696, Note_on_c, 0, 85, 0
2, 346697, Note_on_c, 0, 83, 0
2, 347219, Note_on_c, 0, 92, 61
2, 347221, Note_on_c, 0, 80, 52
2, 347338, Note_on_c, 0, 80, 0
2, 347354, Note_on_c, 0, 92, 0
2, 347818, Note_on_c, 0, 85, 53
2, 347820, Note_on_c, 0, 97, 54
2, 347912, Note_on_c, 0, 85, 0
2, 347963, Note_on_c, 0, 97, 0
2, 348445, Note_on_c, 0, 101, 53
2, 348447, Note_on_c, 0, 89, 43
2, 348565, Note_on_c, 0, 89, 0
2, 348616, Note_on_c, 0, 101, 0
2, 349088, Note_on_c, 0, 104, 47
2, 349097, Note_on_c, 0, 92, 44
2, 349419, Note_on_c, 0, 92, 0
2, 349429, Note_on_c, 0, 104, 0
2, 349663, Note_on_c, 0, 97, 47
2, 349809, Note_on_c, 0, 51, 0
2, 349815, Note_on_c, 0, 35, 0
2, 349826, Note_on_c, 0, 42, 0
2, 350205, Note_on_c, 0, 97, 0
2, 350263, Note_on_c, 0, 101, 46
2, 350896, Note_on_c, 0, 101, 0
2, 350911, Note_on_c, 0, 104, 45
2, 351052, Note_on_c, 0, 23, 28
2, 351167, Note_on_c, 0, 23, 0
2, 351448, Note_on_c, 0, 104, 0
2, 351589, Note_on_c, 0, 104, 37
2, 351595, Note_on_c, 0, 23, 42
2, 352051, Note_on_c, 0, 23, 0
2, 352178, Note_on_c, 0, 104, 0
2, 352336, Note_on_c, 0, 23, 36
2, 352671, Note_on_c, 0, 23, 0
2, 356064, Control_c, 0, 64, 0
2, 356064, End_track
3, 0, Start_track
3, 0, Title_t, "Acoustic Bass"
3, 0, Control_c, 1, 0, 2
3, 1, Program_c, 1, 32
3, 16, Note_on_c, 1, 36, 49
3, 3030, Note_on_c, 1, 29, 49
3, 3080, Note_on_c, 1, 36, 0
3, 5801, Note_on_c, 1, 37, 62
3, 5862, Note_on_c, 1, 29, 0
3, 10261, Note_on_c, 1, 44, 84
3, 10331, Note_on_c, 1, 37, 0
3, 10578, Note_on_c, 1, 44, 0
3, 10727, Note_on_c, 1, 42, 34
3, 11133, Note_on_c, 1, 42, 0
3, 11206, Note_on_c, 1, 37, 53
3, 11640, Note_on_c, 1, 36, 51
3, 11646, Note_on_c, 1, 37, 0
3, 14461, Note_on_c, 1, 41, 46
3, 14482, Note_on_c, 1, 36, 0
3, 14817, Note_on_c, 1, 41, 0
3, 15064, Note_on_c, 1, 43, 67
3, 15473, Note_on_c, 1, 43, 0
3, 15628, Note_on_c, 1, 41, 47
3, 17055, Note_on_c, 1, 36, 62
3, 17149, Note_on_c, 1, 41, 0
3, 17446, Note_on_c, 1, 37, 60
3, 17470, Note_on_c, 1, 36, 0
3, 18848, Note_on_c, 1, 44, 66
3, 19132, Note_on_c, 1, 44, 0
3, 19265, Note_on_c, 1, 44, 50
3, 19828, Note_on_c, 1, 44, 0
3, 19869, Note_on_c, 1, 43, 52
3, 20055, Note_on_c, 1, 37, 0
3, 20189, Note_on_c, 1, 43, 0
3, 20336, Note_on_c, 1, 42, 46
3, 21095, Note_on_c, 1, 42, 0
3, 21128, Note_on_c, 1, 30, 49
3, 23069, Note_on_c, 1, 35, 80
3, 23148, Note_on_c, 1, 30, 0
3, 25464, Note_on_c, 1, 51, 54
3, 25648, Note_on_c, 1, 51, 0
3, 25721, Note_on_c, 1, 49, 48
3, 25975, Note_on_c, 1, 49, 0
3, 26051, Note_on_c, 1, 51, 43
3, 28787, Note_on_c, 1, 51, 0
3, 28799, Note_on_c, 1, 35, 0
3, 29828, Note_on_c, 1, 48, 42
3, 29847, Note_on_c, 1, 32, 41
3, 31535, Note_on_c, 1, 32, 0
3, 31712, Note_on_c, 1, 32, 45
3, 31998, Note_on_c, 1, 48, 0
3, 33903, Note_on_c, 1, 32, 0
3, 33909, Note_on_c, 1, 44, 44
3, 34166, Note_on_c, 1, 44, 0
3, 34177, Note_on_c, 1, 43, 48
3, 34515, Note_on_c, 1, 43, 0
3, 34553, Note_on_c, 1, 42, 47
3, 35172, Note_on_c, 1, 42, 0
3, 35196, Note_on_c, 1, 37, 36
3, 35528, Note_on_c, 1, 37, 0
3, 35581, Note_on_c, 1, 30, 45
3, 38520, Note_on_c, 1, 41, 62
3, 38560, Note_on_c, 1, 30, 0
3, 40313, Note_on_c, 1, 41, 0
3, 40393, Note_on_c, 1, 40, 54
3, 44433, Note_on_c, 1, 40, 0
3, 44497, Note_on_c, 1, 40, 35
3, 44593, Note_on_c, 1, 40, 0
3, 44758, Note_on_c, 1, 43, 46
3, 45004, Note_on_c, 1, 43, 0
3, 45065, Note_on_c, 1, 45, 70
3, 45728, Note_on_c, 1, 37, 53
3, 45857, Note_on_c, 1, 45, 0
3, 46033, Note_on_c, 1, 37, 0
3, 46035, Note_on_c, 1, 38, 68
3, 50234, Note_on_c, 1, 38, 0
3, 50292, Note_on_c, 1, 33, 56
3, 50518, Note_on_c, 1, 33, 0
3, 50575, Note_on_c, 1, 34, 55
3, 50940, Note_on_c, 1, 34, 0
3, 50956, Note_on_c, 1, 35, 56
3, 51589, Note_on_c, 1, 47, 82
3, 51691, Note_on_c, 1, 35, 0
3, 52025, Note_on_c, 1, 47, 0
3, 52047, Note_on_c, 1, 45, 60
3, 54395, Note_on_c, 1, 44, 76
3, 54826, Note_on_c, 1, 44, 0
3, 54873, Note_on_c, 1, 45, 0
3, 54970, Note_on_c, 1, 43, 49
3, 56386, Note_on_c, 1, 42, 66
3, 56470, Note_on_c, 1, 43, 0
3, 57271, Note_on_c, 1, 37, 41
3, 57453, Note_on_c, 1, 37, 0
3, 57604, Note_on_c, 1, 42, 0
3, 57654, Note_on_c, 1, 35, 63
3, 61918, Note_on_c, 1, 44, 54
3, 62094, Note_on_c, 1, 44, 0
3, 62118, Note_on_c, 1, 45, 53
3, 62371, Note_on_c, 1, 45, 0
3, 62463, Note_on_c, 1, 35, 0
3, 62464, Note_on_c, 1, 47, 66
3, 63401, Note_on_c, 1, 47, 0
3, 63433, Note_on_c, 1, 46, 56
3, 64982, Note_on_c, 1, 41, 45
3, 66177, Note_on_c, 1, 46, 0
3, 66810, Note_on_c, 1, 33, 56
3, 66848, Note_on_c, 1, 41, 0
3, 68476, Note_on_c, 1, 45, 61
3, 68536, Note_on_c, 1, 33, 0
3, 68588, Note_on_c, 1, 45, 0
3, 68786, Note_on_c, 1, 33, 51
3, 69107, Note_on_c, 1, 44, 63
3, 69172, Note_on_c, 1, 33, 0
3, 69622, Note_on_c, 1, 44, 0
3, 69709, Note_on_c, 1, 38, 52
3, 70031, Note_on_c, 1, 38, 0
3, 70072, Note_on_c, 1, 32, 54
3, 72023, Note_on_c, 1, 37, 50
3, 72061, Note_on_c, 1, 32, 0
3, 72927, Note_on_c, 1, 53, 68
3, 73051, Note_on_c, 1, 53, 0
3, 73394, Note_on_c, 1, 51, 70
3, 73738, Note_on_c, 1, 51, 0
3, 73862, Note_on_c, 1, 49, 57
3, 74003, Note_on_c, 1, 37, 0
3, 74073, Note_on_c, 1, 49, 0
3, 74312, Note_on_c, 1, 47, 58
3, 74660, Note_on_c, 1, 47, 0
3, 74800, Note_on_c, 1, 45, 44
3, 75091, Note_on_c, 1, 45, 0
3, 75335, Note_on_c, 1, 44, 54
3, 75490, Note_on_c, 1, 44, 0
3, 75810, Note_on_c, 1, 42, 50
3, 77381, Note_on_c, 1, 37, 50
3, 77452, Note_on_c, 1, 42, 0
3, 77786, Note_on_c, 1, 35, 52
3, 77787, Note_on_c, 1, 37, 0
3, 80565, Note_on_c, 1, 35, 0
3, 80610, Note_on_c, 1, 38, 40
3, 80744, Note_on_c, 1, 38, 0
3, 80918, Note_on_c, 1, 39, 42
3, 81146, Note_on_c, 1, 39, 0
3, 81215, Note_on_c, 1, 40, 57
3, 82857, Note_on_c, 1, 52, 60
3, 83045, Note_on_c, 1, 52, 0
3, 83126, Note_on_c, 1, 51, 47
3, 83438, Note_on_c, 1, 51, 0
3, 83461, Note_on_c, 1, 50, 60
3, 83527, Note_on_c, 1, 40, 0
3, 86366, Note_on_c, 1, 49, 64
3, 86408, Note_on_c, 1, 50, 0
3, 89287, Note_on_c, 1, 42, 49
3, 89290, Note_on_c, 1, 49, 0
3, 90350, Note_on_c, 1, 48, 50
3, 90650, Note_on_c, 1, 48, 0
3, 90904, Note_on_c, 1, 49, 81
3, 91184, Note_on_c, 1, 49, 0
3, 91370, Note_on_c, 1, 52, 59
3, 91475, Note_on_c, 1, 42, 0
3, 91887, Note_on_c, 1, 51, 53
3, 91944, Note_on_c, 1, 52, 0
3, 92039, Note_on_c, 1, 51, 0
3, 92433, Note_on_c, 1, 48, 44
3, 93717, Note_on_c, 1, 43, 45
3, 93857, Note_on_c, 1, 43, 0
3, 94086, Note_on_c, 1, 36, 51
3, 96005, Note_on_c, 1, 36, 0
3, 96011, Note_on_c, 1, 41, 40
3, 96392, Note_on_c, 1, 48, 0
3, 96980, Note_on_c, 1, 29, 42
3, 97068, Note_on_c, 1, 41, 0
3, 97896, Note_on_c, 1, 37, 64
3, 97915, Note_on_c, 1, 29, 0
3, 100786, Note_on_c, 1, 42, 37
3, 100821, Note_on_c, 1, 37, 0
3, 103042, Note_on_c, 1, 49, 56
3, 103186, Note_on_c, 1, 42, 0
3, 103206, Note_on_c, 1, 49, 0
3, 103330, Note_on_c, 1, 48, 62
3, 103627, Note_on_c, 1, 48, 0
3, 103719, Note_on_c, 1, 47, 42
3, 103816, Note_on_c, 1, 47, 0
3, 104004, Note_on_c, 1, 42, 42
3, 104173, Note_on_c, 1, 42, 0
3, 104334, Note_on_c, 1, 35, 56
3, 106262, Note_on_c, 1, 42, 38
3, 106475, Note_on_c, 1, 42, 0
3, 106866, Note_on_c, 1, 47, 63
3, 107338, Note_on_c, 1, 47, 0
3, 107539, Note_on_c, 1, 47, 62
3, 108835, Note_on_c, 1, 35, 0
3, 109576, Note_on_c, 1, 47, 0
3, 110372, Note_on_c, 1, 32, 51
3, 112271, Note_on_c, 1, 44, 78
3, 112351, Note_on_c, 1, 32, 0
3, 115934, Note_on_c, 1, 44, 0
3, 116210, Note_on_c, 1, 42, 44
3, 117172, Note_on_c, 1, 30, 42
3, 117529, Note_on_c, 1, 42, 0
3, 118081, Note_on_c, 1, 30, 0
3, 118140, Note_on_c, 1, 41, 46
3, 121428, Note_on_c, 1, 41, 0
3, 121576, Note_on_c, 1, 39, 48
3, 121836, Note_on_c, 1, 39, 0
3, 121910, Note_on_c, 1, 40, 70
3, 123519, Note_on_c, 1, 35, 51
3, 123575, Note_on_c, 1, 40, 0
3, 124397, Note_on_c, 1, 35, 0
3, 124456, Note_on_c, 1, 34, 49
3, 124820, Note_on_c, 1, 34, 0
3, 124832, Note_on_c, 1, 33, 52
3, 125786, Note_on_c, 1, 45, 72
3, 126074, Note_on_c, 1, 33, 0
3, 126157, Note_on_c, 1, 45, 0
3, 126423, Note_on_c, 1, 37, 60
3, 126754, Note_on_c, 1, 37, 0
3, 126789, Note_on_c, 1, 38, 64
3, 128666, Note_on_c, 1, 50, 59
3, 128784, Note_on_c, 1, 50, 0
3, 128804, Note_on_c, 1, 38, 0
3, 128979, Note_on_c, 1, 49, 35
3, 129088, Note_on_c, 1, 49, 0
3, 129612, Note_on_c, 1, 47, 34
3, 130263, Note_on_c, 1, 47, 0
3, 130266, Note_on_c, 1, 42, 32
3, 130484, Note_on_c, 1, 42, 0
3, 130615, Note_on_c, 1, 35, 41
3, 132479, Note_on_c, 1, 35, 0
3, 132572, Note_on_c, 1, 45, 49
3, 135387, Note_on_c, 1, 43, 50
3, 135419, Note_on_c, 1, 45, 0
3, 136889, Note_on_c, 1, 42, 68
3, 136956, Note_on_c, 1, 43, 0
3, 137820, Note_on_c, 1, 49, 79
3, 137970, Note_on_c, 1, 42, 0
3, 138291, Note_on_c, 1, 49, 0
3, 138350, Note_on_c, 1, 47, 64
3, 139842, Note_on_c, 1, 42, 45
3, 139918, Note_on_c, 1, 47, 0
3, 140127, Note_on_c, 1, 42, 0
3, 140216, Note_on_c, 1, 35, 46
3, 142425, Note_on_c, 1, 47, 59
3, 142566, Note_on_c, 1, 47, 0
3, 142691, Note_on_c, 1, 49, 77
3, 142943, Note_on_c, 1, 49, 0
3, 143026, Note_on_c, 1, 50, 75
3, 143118, Note_on_c, 1, 35, 0
3, 143282, Note_on_c, 1, 50, 0
3, 143310, Note_on_c, 1, 49, 66
3, 143507, Note_on_c, 1, 49, 0
3, 143635, Note_on_c, 1, 47, 66
3, 144214, Note_on_c, 1, 47, 0
3, 144379, Note_on_c, 1, 46, 62
3, 144766, Note_on_c, 1, 46, 0
3, 145082, Note_on_c, 1, 46, 66
3, 145592, Note_on_c, 1, 46, 0
3, 145708, Note_on_c, 1, 46, 53
3, 147396, Note_on_c, 1, 46, 0
3, 147512, Note_on_c, 1, 39, 51
3, 148156, Note_on_c, 1, 49, 42
3, 148224, Note_on_c, 1, 49, 0
3, 148444, Note_on_c, 1, 51, 65
3, 148584, Note_on_c, 1, 51, 0
3, 148790, Note_on_c, 1, 58, 83
3, 149086, Note_on_c, 1, 39, 0
3, 149329, Note_on_c, 1, 58, 0
3, 149412, Note_on_c, 1, 57, 83
3, 149772, Note_on_c, 1, 57, 0
3, 149839, Note_on_c, 1, 56, 67
3, 150222, Note_on_c, 1, 56, 0
3, 150375, Note_on_c, 1, 50, 53
3, 150715, Note_on_c, 1, 50, 0
3, 150795, Note_on_c, 1, 47, 38
3, 151250, Note_on_c, 1, 47, 0
3, 151400, Note_on_c, 1, 44, 48
3, 151716, Note_on_c, 1, 44, 0
3, 151831, Note_on_c, 1, 38, 44
3, 152745, Note_on_c, 1, 37, 54
3, 152765, Note_on_c, 1, 38, 0
3, 155155, Note_on_c, 1, 41, 44
3, 155299, Note_on_c, 1, 37, 0
3, 155440, Note_on_c, 1, 41, 0
3, 155498, Note_on_c, 1, 42, 50
3, 156197, Note_on_c, 1, 48, 84
3, 156293, Note_on_c, 1, 42, 0
3, 159671, Note_on_c, 1, 45, 42
3, 159862, Note_on_c, 1, 48, 0
3, 159946, Note_on_c, 1, 45, 0
3, 159951, Note_on_c, 1, 46, 61
3, 160235, Note_on_c, 1, 46, 0
3, 160309, Note_on_c, 1, 47, 83
3, 160916, Note_on_c, 1, 42, 54
3, 161139, Note_on_c, 1, 47, 0
3, 161207, Note_on_c, 1, 42, 0
3, 161286, Note_on_c, 1, 40, 49
3, 165143, Note_on_c, 1, 50, 77
3, 165262, Note_on_c, 1, 40, 0
3, 165433, Note_on_c, 1, 50, 0
3, 165478, Note_on_c, 1, 52, 44
3, 165773, Note_on_c, 1, 52, 0
3, 165832, Note_on_c, 1, 50, 60
3, 166782, Note_on_c, 1, 40, 37
3, 166867, Note_on_c, 1, 40, 0
3, 167063, Note_on_c, 1, 50, 0
3, 167097, Note_on_c, 1, 49, 63
3, 167389, Note_on_c, 1, 49, 0
3, 167405, Note_on_c, 1, 50, 52
3, 167697, Note_on_c, 1, 50, 0
3, 167736, Note_on_c, 1, 49, 62
3, 169642, Note_on_c, 1, 43, 49
3, 169854, Note_on_c, 1, 43, 0
3, 169913, Note_on_c, 1, 49, 0
3, 169956, Note_on_c, 1, 42, 37
3, 170690, Note_on_c, 1, 55, 79
3, 171059, Note_on_c, 1, 55, 0
3, 171277, Note_on_c, 1, 42, 0
3, 171315, Note_on_c, 1, 54, 71
3, 172268, Note_on_c, 1, 52, 61
3, 172359, Note_on_c, 1, 54, 0
3, 172417, Note_on_c, 1, 52, 0
3, 172533, Note_on_c, 1, 49, 55
3, 172710, Note_on_c, 1, 49, 0
3, 172873, Note_on_c, 1, 48, 45
3, 173454, Note_on_c, 1, 43, 43
3, 173567, Note_on_c, 1, 48, 0
3, 173746, Note_on_c, 1, 43, 0
3, 173809, Note_on_c, 1, 36, 46
3, 175731, Note_on_c, 1, 41, 44
3, 175812, Note_on_c, 1, 36, 0
3, 179413, Note_on_c, 1, 41, 0
3, 179533, Note_on_c, 1, 42, 79
3, 181444, Note_on_c, 1, 54, 91
3, 181555, Note_on_c, 1, 42, 0
3, 182145, Note_on_c, 1, 49, 47
3, 182220, Note_on_c, 1, 49, 0
3, 182434, Note_on_c, 1, 54, 0
3, 182465, Note_on_c, 1, 42, 68
3, 184052, Note_on_c, 1, 54, 74
3, 184122, Note_on_c, 1, 42, 0
3, 184403, Note_on_c, 1, 54, 0
3, 184540, Note_on_c, 1, 47, 58
3, 184982, Note_on_c, 1, 47, 0
3, 185042, Note_on_c, 1, 42, 30
3, 185335, Note_on_c, 1, 42, 0
3, 185409, Note_on_c, 1, 35, 51
3, 191052, Note_on_c, 1, 44, 55
3, 191055, Note_on_c, 1, 35, 0
3, 191967, Note_on_c, 1, 32, 40
3, 192127, Note_on_c, 1, 44, 0
3, 193046, Note_on_c, 1, 44, 55
3, 193072, Note_on_c, 1, 32, 0
3, 195838, Note_on_c, 1, 44, 0
3, 195879, Note_on_c, 1, 42, 44
3, 198136, Note_on_c, 1, 54, 62
3, 198146, Note_on_c, 1, 42, 0
3, 198439, Note_on_c, 1, 42, 45
3, 198586, Note_on_c, 1, 42, 0
3, 198757, Note_on_c, 1, 54, 0
3, 198791, Note_on_c, 1, 53, 52
3, 199337, Note_on_c, 1, 41, 45
3, 199683, Note_on_c, 1, 41, 0
3, 199819, Note_on_c, 1, 53, 0
3, 199819, Note_on_c, 1, 41, 33
3, 201566, Note_on_c, 1, 41, 0
3, 203160, Note_on_c, 1, 40, 74
3, 203632, Note_on_c, 1, 52, 59
3, 203741, Note_on_c, 1, 40, 0
3, 204081, Note_on_c, 1, 52, 0
3, 204190, Note_on_c, 1, 52, 62
3, 204584, Note_on_c, 1, 52, 0
3, 204624, Note_on_c, 1, 45, 51
3, 206710, Note_on_c, 1, 52, 49
3, 206899, Note_on_c, 1, 45, 0
3, 206913, Note_on_c, 1, 52, 0
3, 206926, Note_on_c, 1, 51, 56
3, 207185, Note_on_c, 1, 51, 0
3, 207262, Note_on_c, 1, 50, 53
3, 210264, Note_on_c, 1, 50, 0
3, 210266, Note_on_c, 1, 47, 57
3, 212745, Note_on_c, 1, 46, 69
3, 212754, Note_on_c, 1, 61, 103
3, 212785, Note_on_c, 1, 47, 0
3, 213188, Note_on_c, 1, 61, 0
3, 213211, Note_on_c, 1, 45, 51
3, 213214, Note_on_c, 1, 60, 60
3, 213242, Note_on_c, 1, 46, 0
3, 214913, Note_on_c, 1, 60, 0
3, 215270, Note_on_c, 1, 45, 0
3, 215366, Note_on_c, 1, 45, 61
3, 215557, Note_on_c, 1, 45, 0
3, 215659, Note_on_c, 1, 44, 54
3, 215983, Note_on_c, 1, 44, 0
3, 215999, Note_on_c, 1, 43, 57
3, 217530, Note_on_c, 1, 43, 0
3, 217565, Note_on_c, 1, 42, 64
3, 218221, Note_on_c, 1, 45, 35
3, 218336, Note_on_c, 1, 42, 0
3, 218349, Note_on_c, 1, 45, 0
3, 218520, Note_on_c, 1, 46, 50
3, 218818, Note_on_c, 1, 46, 0
3, 218894, Note_on_c, 1, 47, 52
3, 219896, Note_on_c, 1, 47, 0
3, 219941, Note_on_c, 1, 35, 57
3, 224453, Note_on_c, 1, 47, 101
3, 224846, Note_on_c, 1, 35, 0
3, 224861, Note_on_c, 1, 47, 0
3, 224922, Note_on_c, 1, 46, 74
3, 226241, Note_on_c, 1, 46, 0
3, 226251, Note_on_c, 1, 58, 73
3, 229018, Note_on_c, 1, 58, 0
3, 229047, Note_on_c, 1, 51, 80
3, 229361, Note_on_c, 1, 51, 0
3, 229425, Note_on_c, 1, 45, 68
3, 230325, Note_on_c, 1, 45, 0
3, 230411, Note_on_c, 1, 44, 61
3, 235192, Note_on_c, 1, 44, 0
3, 235213, Note_on_c, 1, 37, 60
3, 236222, Note_on_c, 1, 42, 55
3, 236238, Note_on_c, 1, 37, 0
3, 237190, Note_on_c, 1, 48, 77
3, 237382, Note_on_c, 1, 42, 0
3, 240037, Note_on_c, 1, 47, 64
3, 240045, Note_on_c, 1, 48, 0
3, 240970, Note_on_c, 1, 47, 0
3, 241013, Note_on_c, 1, 35, 51
3, 241889, Note_on_c, 1, 35, 0
3, 241939, Note_on_c, 1, 40, 54
3, 244662, Note_on_c, 1, 40, 0
3, 244777, Note_on_c, 1, 50, 78
3, 245732, Note_on_c, 1, 50, 0
3, 245812, Note_on_c, 1, 50, 82
3, 246730, Note_on_c, 1, 50, 0
3, 246845, Note_on_c, 1, 50, 83
3, 248194, Note_on_c, 1, 50, 0
3, 248280, Note_on_c, 1, 49, 85
3, 248710, Note_on_c, 1, 49, 0
3, 248794, Note_on_c, 1, 49, 80
3, 249425, Note_on_c, 1, 49, 0
3, 249517, Note_on_c, 1, 49, 76
3, 250041, Note_on_c, 1, 49, 0
3, 250137, Note_on_c, 1, 49, 68
3, 250677, Note_on_c, 1, 49, 0
3, 250716, Note_on_c, 1, 42, 46
3, 252247, Note_on_c, 1, 54, 39
3, 252251, Note_on_c, 1, 52, 35
3, 252561, Note_on_c, 1, 52, 0
3, 253474, Note_on_c, 1, 42, 0
3, 253513, Note_on_c, 1, 48, 55
3, 253625, Note_on_c, 1, 54, 0
3, 256114, Note_on_c, 1, 48, 0
3, 256306, Note_on_c, 1, 53, 83
3, 259241, Note_on_c, 1, 54, 72
3, 259298, Note_on_c, 1, 53, 0
3, 260763, Note_on_c, 1, 52, 58
3, 260817, Note_on_c, 1, 54, 0
3, 261096, Note_on_c, 1, 52, 0
3, 261176, Note_on_c, 1, 49, 58
3, 261772, Note_on_c, 1, 42, 46
3, 261807, Note_on_c, 1, 49, 0
3, 262118, Note_on_c, 1, 42, 0
3, 262214, Note_on_c, 1, 42, 56
3, 263070, Note_on_c, 1, 42, 0
3, 263085, Note_on_c, 1, 30, 77
3, 264694, Note_on_c, 1, 36, 55
3, 264947, Note_on_c, 1, 30, 0
3, 264973, Note_on_c, 1, 36, 0
3, 265039, Note_on_c, 1, 43, 58
3, 266527, Note_on_c, 1, 50, 87
3, 266831, Note_on_c, 1, 50, 0
3, 266880, Note_on_c, 1, 43, 0
3, 266910, Note_on_c, 1, 48, 59
3, 268475, Note_on_c, 1, 43, 27
3, 268593, Note_on_c, 1, 48, 0
3, 268794, Note_on_c, 1, 36, 51
3, 268802, Note_on_c, 1, 43, 0
3, 270717, Note_on_c, 1, 33, 59
3, 270718, Note_on_c, 1, 36, 0
3, 271653, Note_on_c, 1, 47, 51
3, 272688, Note_on_c, 1, 47, 0
3, 272706, Note_on_c, 1, 45, 54
3, 274947, Note_on_c, 1, 33, 0
3, 275526, Note_on_c, 1, 33, 78
3, 275630, Note_on_c, 1, 45, 0
3, 276500, Note_on_c, 1, 33, 0
3, 276518, Note_on_c, 1, 31, 74
3, 279326, Note_on_c, 1, 30, 69
3, 279363, Note_on_c, 1, 31, 0
3, 282225, Note_on_c, 1, 30, 0
3, 282230, Note_on_c, 1, 29, 60
3, 284789, Note_on_c, 1, 41, 76
3, 285037, Note_on_c, 1, 41, 0
3, 285171, Note_on_c, 1, 40, 64
3, 285190, Note_on_c, 1, 29, 0
3, 286049, Note_on_c, 1, 40, 0
3, 286054, Note_on_c, 1, 34, 71
3, 287969, Note_on_c, 1, 39, 84
3, 288008, Note_on_c, 1, 34, 0
3, 290166, Note_on_c, 1, 39, 0
3, 290236, Note_on_c, 1, 38, 49
3, 290406, Note_on_c, 1, 38, 0
3, 290532, Note_on_c, 1, 37, 53
3, 290846, Note_on_c, 1, 37, 0
3, 290899, Note_on_c, 1, 36, 62
3, 294020, Note_on_c, 1, 44, 23
3, 294135, Note_on_c, 1, 36, 0
3, 294245, Note_on_c, 1, 44, 0
3, 294317, Note_on_c, 1, 45, 67
3, 294629, Note_on_c, 1, 45, 0
3, 294693, Note_on_c, 1, 46, 67
3, 295655, Note_on_c, 1, 46, 0
3, 295679, Note_on_c, 1, 34, 48
3, 296650, Note_on_c, 1, 34, 0
3, 296679, Note_on_c, 1, 44, 57
3, 298215, Note_on_c, 1, 43, 66
3, 298282, Note_on_c, 1, 44, 0
3, 299509, Note_on_c, 1, 43, 0
3, 299552, Note_on_c, 1, 36, 61
3, 301076, Note_on_c, 1, 48, 83
3, 302247, Note_on_c, 1, 48, 0
3, 302424, Note_on_c, 1, 48, 55
3, 303842, Note_on_c, 1, 48, 0
3, 304003, Note_on_c, 1, 48, 65
3, 304262, Note_on_c, 1, 36, 0
3, 304982, Note_on_c, 1, 36, 30
3, 305062, Note_on_c, 1, 36, 0
3, 305297, Note_on_c, 1, 47, 61
3, 305310, Note_on_c, 1, 48, 0
3, 308177, Note_on_c, 1, 40, 49
3, 309148, Note_on_c, 1, 34, 58
3, 309189, Note_on_c, 1, 40, 0
3, 309209, Note_on_c, 1, 47, 0
3, 311041, Note_on_c, 1, 34, 0
3, 311042, Note_on_c, 1, 33, 58
3, 312600, Note_on_c, 1, 39, 72
3, 312683, Note_on_c, 1, 33, 0
3, 313292, Note_on_c, 1, 39, 0
3, 313334, Note_on_c, 1, 36, 40
3, 313458, Note_on_c, 1, 36, 0
3, 313601, Note_on_c, 1, 37, 60
3, 313815, Note_on_c, 1, 37, 0
3, 313937, Note_on_c, 1, 38, 66
3, 317057, Note_on_c, 1, 41, 43
3, 317328, Note_on_c, 1, 41, 0
3, 317347, Note_on_c, 1, 42, 49
3, 317516, Note_on_c, 1, 38, 0
3, 317650, Note_on_c, 1, 42, 0
3, 317690, Note_on_c, 1, 43, 67
3, 318346, Note_on_c, 1, 37, 39
3, 318426, Note_on_c, 1, 43, 0
3, 319339, Note_on_c, 1, 35, 58
3, 319347, Note_on_c, 1, 37, 0
3, 319656, Note_on_c, 1, 35, 0
3, 319672, Note_on_c, 1, 36, 62
3, 320636, Note_on_c, 1, 48, 94
3, 320777, Note_on_c, 1, 36, 0
3, 322150, Note_on_c, 1, 36, 33
3, 322379, Note_on_c, 1, 36, 0
3, 322479, Note_on_c, 1, 41, 48
3, 322612, Note_on_c, 1, 41, 0
3, 323097, Note_on_c, 1, 36, 50
3, 323277, Note_on_c, 1, 48, 0
3, 323357, Note_on_c, 1, 36, 0
3, 323465, Note_on_c, 1, 29, 36
3, 325377, Note_on_c, 1, 29, 0
3, 325384, Note_on_c, 1, 39, 74
3, 328233, Note_on_c, 1, 39, 0
3, 328258, Note_on_c, 1, 38, 56
3, 331233, Note_on_c, 1, 43, 70
3, 331247, Note_on_c, 1, 38, 0
3, 332192, Note_on_c, 1, 31, 63
3, 334139, Note_on_c, 1, 37, 73
3, 334177, Note_on_c, 1, 31, 0
3, 334187, Note_on_c, 1, 43, 0
3, 337295, Note_on_c, 1, 40, 31
3, 337566, Note_on_c, 1, 40, 0
3, 337588, Note_on_c, 1, 37, 0
3, 337601, Note_on_c, 1, 41, 66
3, 337939, Note_on_c, 1, 42, 67
3, 337980, Note_on_c, 1, 41, 0
3, 339455, Note_on_c, 1, 42, 0
3, 339458, Note_on_c, 1, 39, 56
3, 339843, Note_on_c, 1, 38, 70
3, 339916, Note_on_c, 1, 39, 0
3, 343012, Note_on_c, 1, 41, 54
3, 343060, Note_on_c, 1, 38, 0
3, 343277, Note_on_c, 1, 41, 0
3, 343315, Note_on_c, 1, 42, 55
3, 343600, Note_on_c, 1, 42, 0
3, 343663, Note_on_c, 1, 43, 57
3, 344565, Note_on_c, 1, 43, 0
3, 344597, Note_on_c, 1, 31, 51
3, 345576, Note_on_c, 1, 31, 0
3, 345584, Note_on_c, 1, 36, 63
3, 348708, Note_on_c, 1, 36, 0
3, 348708, End_track
4, 0, Start_track
4, 0, Title_t, "Brushes"
4, 0, Control_c, 9, 0, 0
4, 0, Program_c, 9, 40
4, 0, Control_c, 9, 7, 95
4, 0, Note_on_c, 9, 40, 26
4, 795, Note_on_c, 9, 40, 0
4, 960, Note_on_c, 9, 40, 19
4, 991, Note_on_c, 9, 44, 32
4, 1263, Note_on_c, 9, 44, 0
4, 1806, Note_on_c, 9, 40, 0
4, 1940, Note_on_c, 9, 40, 24
4, 2796, Note_on_c, 9, 40, 0
4, 2953, Note_on_c, 9, 40, 22
4, 3766, Note_on_c, 9, 40, 0
4, 3927, Note_on_c, 9, 40, 26
4, 3943, Note_on_c, 9, 44, 64
4, 4154, Note_on_c, 9, 44, 0
4, 4703, Note_on_c, 9, 40, 0
4, 4847, Note_on_c, 9, 40, 22
4, 5648, Note_on_c, 9, 40, 0
4, 5762, Note_on_c, 9, 40, 29
4, 6282, Note_on_c, 9, 40, 0
4, 6400, Note_on_c, 9, 40, 30
4, 6564, Note_on_c, 9, 40, 0
4, 6670, Note_on_c, 9, 40, 23
4, 6755, Note_on_c, 9, 44, 60
4, 6873, Note_on_c, 9, 44, 0
4, 7557, Note_on_c, 9, 40, 0
4, 7713, Note_on_c, 9, 40, 26
4, 8455, Note_on_c, 9, 40, 0
4, 8671, Note_on_c, 9, 40, 19
4, 9371, Note_on_c, 9, 40, 0
4, 9593, Note_on_c, 9, 40, 20
4, 9651, Note_on_c, 9, 44, 33
4, 10165, Note_on_c, 9, 40, 0
4, 10226, Note_on_c, 9, 38, 40
4, 10401, Note_on_c, 9, 38, 0
4, 10533, Note_on_c, 9, 40, 17
4, 11114, Note_on_c, 9, 40, 0
4, 11229, Note_on_c, 9, 38, 54
4, 11232, Note_on_c, 9, 40, 25
4, 11347, Note_on_c, 9, 44, 0
4, 11357, Note_on_c, 9, 38, 0
4, 11383, Note_on_c, 9, 40, 0
4, 11525, Note_on_c, 9, 40, 24
4, 11576, Note_on_c, 9, 44, 35
4, 11695, Note_on_c, 9, 44, 0
4, 12286, Note_on_c, 9, 40, 0
4, 12473, Note_on_c, 9, 40, 19
4, 12532, Note_on_c, 9, 44, 27
4, 12968, Note_on_c, 9, 44, 0
4, 13237, Note_on_c, 9, 40, 0
4, 13438, Note_on_c, 9, 40, 20
4, 13471, Note_on_c, 9, 44, 30
4, 13672, Note_on_c, 9, 44, 0
4, 14140, Note_on_c, 9, 36, 46
4, 14228, Note_on_c, 9, 40, 0
4, 14319, Note_on_c, 9, 36, 0
4, 14399, Note_on_c, 9, 40, 20
4, 14492, Note_on_c, 9, 36, 34
4, 14633, Note_on_c, 9, 36, 0
4, 15013, Note_on_c, 9, 40, 0
4, 15092, Note_on_c, 9, 40, 22
4, 15163, Note_on_c, 9, 44, 33
4, 15227, Note_on_c, 9, 40, 0
4, 15360, Note_on_c, 9, 40, 19
4, 15888, Note_on_c, 9, 44, 0
4, 16168, Note_on_c, 9, 40, 0
4, 16367, Note_on_c, 9, 40, 21
4, 16373, Note_on_c, 9, 44, 27
4, 16918, Note_on_c, 9, 44, 0
4, 17110, Note_on_c, 9, 40, 0
4, 17352, Note_on_c, 9, 40, 19
4, 18174, Note_on_c, 9, 40, 0
4, 18218, Note_on_c, 9, 44, 37
4, 18340, Note_on_c, 9, 40, 20
4, 18711, Note_on_c, 9, 44, 0
4, 19134, Note_on_c, 9, 40, 0
4, 19297, Note_on_c, 9, 40, 21
4, 19948, Note_on_c, 9, 40, 0
4, 20192, Note_on_c, 9, 40, 20
4, 20887, Note_on_c, 9, 40, 0
4, 21174, Note_on_c, 9, 40, 21
4, 21219, Note_on_c, 9, 44, 60
4, 21312, Note_on_c, 9, 44, 0
4, 21814, Note_on_c, 9, 40, 0
4, 21835, Note_on_c, 9, 38, 49
4, 22004, Note_on_c, 9, 38, 0
4, 22196, Note_on_c, 9, 40, 19
4, 22742, Note_on_c, 9, 40, 0
4, 22769, Note_on_c, 9, 38, 36
4, 22921, Note_on_c, 9, 38, 0
4, 23104, Note_on_c, 9, 40, 17
4, 23159, Note_on_c, 9, 57, 27
4, 23645, Note_on_c, 9, 57, 0
4, 23828, Note_on_c, 9, 40, 0
4, 24007, Note_on_c, 9, 40, 23
4, 24017, Note_on_c, 9, 46, 51
4, 24378, Note_on_c, 9, 46, 0
4, 25485, Note_on_c, 9, 40, 0
4, 25590, Note_on_c, 9, 40, 29
4, 25750, Note_on_c, 9, 40, 0
4, 25878, Note_on_c, 9, 40, 23
4, 26737, Note_on_c, 9, 40, 0
4, 26874, Note_on_c, 9, 40, 23
4, 26886, Note_on_c, 9, 46, 59
4, 28748, Note_on_c, 9, 46, 0
4, 29014, Note_on_c, 9, 40, 0
4, 29744, Note_on_c, 9, 40, 25
4, 29773, Note_on_c, 9, 44, 37
4, 29901, Note_on_c, 9, 44, 0
4, 30718, Note_on_c, 9, 44, 46
4, 30911, Note_on_c, 9, 44, 0
4, 31237, Note_on_c, 9, 40, 0
4, 31353, Note_on_c, 9, 40, 30
4, 31549, Note_on_c, 9, 40, 0
4, 31690, Note_on_c, 9, 40, 22
4, 32455, Note_on_c, 9, 40, 0
4, 32632, Note_on_c, 9, 44, 44
4, 32641, Note_on_c, 9, 40, 25
4, 33295, Note_on_c, 9, 40, 0
4, 33320, Note_on_c, 9, 38, 47
4, 33350, Note_on_c, 9, 44, 0
4, 33504, Note_on_c, 9, 38, 0
4, 33638, Note_on_c, 9, 40, 24
4, 34430, Note_on_c, 9, 40, 0
4, 34576, Note_on_c, 9, 40, 21
4, 35426, Note_on_c, 9, 40, 0
4, 35490, Note_on_c, 9, 44, 37
4, 35581, Note_on_c, 9, 40, 25
4, 35796, Note_on_c, 9, 44, 0
4, 36421, Note_on_c, 9, 40, 0
4, 36581, Note_on_c, 9, 40, 19
4, 38014, Note_on_c, 9, 40, 0
4, 38126, Note_on_c, 9, 38, 10
4, 38235, Note_on_c, 9, 38, 0
4, 38386, Note_on_c, 9, 40, 16
4, 38580, Note_on_c, 9, 44, 26
4, 38676, Note_on_c, 9, 44, 0
4, 39272, Note_on_c, 9, 40, 0
4, 39395, Note_on_c, 9, 44, 33
4, 39410, Note_on_c, 9, 40, 25
4, 39594, Note_on_c, 9, 44, 0
4, 40959, Note_on_c, 9, 40, 0
4, 40969, Note_on_c, 9, 38, 44
4, 41186, Note_on_c, 9, 38, 0
4, 41326, Note_on_c, 9, 44, 28
4, 41326, Note_on_c, 9, 40, 22
4, 41885, Note_on_c, 9, 44, 0
4, 42118, Note_on_c, 9, 40, 0
4, 42255, Note_on_c, 9, 40, 23
4, 42907, Note_on_c, 9, 40, 0
4, 43018, Note_on_c, 9, 38, 10
4, 43172, Note_on_c, 9, 38, 0
4, 43203, Note_on_c, 9, 44, 23
4, 43271, Note_on_c, 9, 40, 24
4, 43529, Note_on_c, 9, 44, 0
4, 43836, Note_on_c, 9, 40, 0
4, 43935, Note_on_c, 9, 38, 16
4, 44072, Note_on_c, 9, 38, 0
4, 44221, Note_on_c, 9, 40, 17
4, 44653, Note_on_c, 9, 44, 28
4, 44778, Note_on_c, 9, 44, 0
4, 44965, Note_on_c, 9, 40, 0
4, 45128, Note_on_c, 9, 40, 22
4, 45308, Note_on_c, 9, 39, 56
4, 45429, Note_on_c, 9, 39, 0
4, 45618, Note_on_c, 9, 39, 60
4, 45771, Note_on_c, 9, 39, 0
4, 45885, Note_on_c, 9, 40, 0
4, 46003, Note_on_c, 9, 40, 23
4, 46109, Note_on_c, 9, 40, 0
4, 46344, Note_on_c, 9, 40, 21
4, 46686, Note_on_c, 9, 36, 30
4, 46747, Note_on_c, 9, 36, 0
4, 46807, Note_on_c, 9, 40, 0
4, 47009, Note_on_c, 9, 40, 22
4, 47025, Note_on_c, 9, 44, 36
4, 47762, Note_on_c, 9, 40, 0
4, 47877, Note_on_c, 9, 44, 0
4, 48252, Note_on_c, 9, 40, 36
4, 48774, Note_on_c, 9, 40, 0
4, 48884, Note_on_c, 9, 40, 24
4, 49679, Note_on_c, 9, 40, 0
4, 49906, Note_on_c, 9, 40, 19
4, 49949, Note_on_c, 9, 44, 55
4, 50050, Note_on_c, 9, 40, 0
4, 50406, Note_on_c, 9, 44, 0
4, 50511, Note_on_c, 9, 40, 33
4, 50895, Note_on_c, 9, 44, 56
4, 50976, Note_on_c, 9, 40, 0
4, 51119, Note_on_c, 9, 40, 21
4, 51323, Note_on_c, 9, 40, 0
4, 51343, Note_on_c, 9, 44, 0
4, 51423, Note_on_c, 9, 38, 42
4, 51585, Note_on_c, 9, 38, 0
4, 51790, Note_on_c, 9, 40, 29
4, 52593, Note_on_c, 9, 44, 33
4, 52750, Note_on_c, 9, 40, 0
4, 52756, Note_on_c, 9, 44, 0
4, 52898, Note_on_c, 9, 40, 19
4, 53156, Note_on_c, 9, 44, 34
4, 53414, Note_on_c, 9, 44, 0
4, 53673, Note_on_c, 9, 40, 0
4, 53798, Note_on_c, 9, 44, 39
4, 53874, Note_on_c, 9, 40, 21
4, 54263, Note_on_c, 9, 44, 0
4, 54405, Note_on_c, 9, 40, 0
4, 54448, Note_on_c, 9, 38, 32
4, 54587, Note_on_c, 9, 38, 0
4, 54704, Note_on_c, 9, 40, 21
4, 55547, Note_on_c, 9, 40, 0
4, 55663, Note_on_c, 9, 44, 44
4, 55707, Note_on_c, 9, 40, 22
4, 55837, Note_on_c, 9, 44, 0
4, 56262, Note_on_c, 9, 40, 0
4, 56346, Note_on_c, 9, 40, 27
4, 56530, Note_on_c, 9, 40, 0
4, 56645, Note_on_c, 9, 46, 48
4, 56674, Note_on_c, 9, 40, 26
4, 57400, Note_on_c, 9, 40, 0
4, 57577, Note_on_c, 9, 40, 23
4, 57694, Note_on_c, 9, 46, 0
4, 58360, Note_on_c, 9, 40, 0
4, 58564, Note_on_c, 9, 40, 25
4, 58596, Note_on_c, 9, 44, 29
4, 58775, Note_on_c, 9, 44, 0
4, 60248, Note_on_c, 9, 40, 0
4, 60474, Note_on_c, 9, 40, 35
4, 61068, Note_on_c, 9, 40, 0
4, 61126, Note_on_c, 9, 40, 20
4, 61224, Note_on_c, 9, 40, 0
4, 61420, Note_on_c, 9, 44, 34
4, 61464, Note_on_c, 9, 40, 35
4, 61563, Note_on_c, 9, 44, 0
4, 62279, Note_on_c, 9, 40, 0
4, 62463, Note_on_c, 9, 40, 27
4, 63830, Note_on_c, 9, 40, 0
4, 63939, Note_on_c, 9, 40, 34
4, 64098, Note_on_c, 9, 40, 0
4, 64271, Note_on_c, 9, 44, 36
4, 64346, Note_on_c, 9, 40, 33
4, 64414, Note_on_c, 9, 44, 0
4, 65113, Note_on_c, 9, 40, 0
4, 65296, Note_on_c, 9, 40, 20
4, 65740, Note_on_c, 9, 40, 0
4, 65902, Note_on_c, 9, 40, 25
4, 66499, Note_on_c, 9, 40, 0
4, 66513, Note_on_c, 9, 38, 45
4, 66684, Note_on_c, 9, 38, 0
4, 66818, Note_on_c, 9, 39, 48
4, 66821, Note_on_c, 9, 40, 22
4, 66923, Note_on_c, 9, 39, 0
4, 67083, Note_on_c, 9, 40, 0
4, 67174, Note_on_c, 9, 39, 42
4, 67180, Note_on_c, 9, 40, 40
4, 67305, Note_on_c, 9, 39, 0
4, 67767, Note_on_c, 9, 36, 39
4, 67790, Note_on_c, 9, 40, 0
4, 67799, Note_on_c, 9, 38, 53
4, 67932, Note_on_c, 9, 36, 0
4, 68137, Note_on_c, 9, 36, 34
4, 68335, Note_on_c, 9, 38, 0
4, 68365, Note_on_c, 9, 36, 0
4, 68431, Note_on_c, 9, 40, 24
4, 68612, Note_on_c, 9, 40, 0
4, 68712, Note_on_c, 9, 40, 31
4, 68759, Note_on_c, 9, 44, 27
4, 68909, Note_on_c, 9, 40, 0
4, 68935, Note_on_c, 9, 44, 0
4, 69072, Note_on_c, 9, 40, 27
4, 69414, Note_on_c, 9, 38, 37
4, 69551, Note_on_c, 9, 40, 0
4, 69623, Note_on_c, 9, 38, 0
4, 69721, Note_on_c, 9, 38, 38
4, 69995, Note_on_c, 9, 44, 34
4, 70035, Note_on_c, 9, 38, 0
4, 70057, Note_on_c, 9, 40, 26
4, 70289, Note_on_c, 9, 44, 0
4, 70314, Note_on_c, 9, 40, 0
4, 70328, Note_on_c, 9, 38, 37
4, 70643, Note_on_c, 9, 38, 0
4, 70666, Note_on_c, 9, 40, 29
4, 70959, Note_on_c, 9, 38, 56
4, 71061, Note_on_c, 9, 40, 0
4, 71216, Note_on_c, 9, 38, 0
4, 71282, Note_on_c, 9, 40, 25
4, 71491, Note_on_c, 9, 40, 0
4, 71649, Note_on_c, 9, 40, 25
4, 71905, Note_on_c, 9, 40, 0
4, 72055, Note_on_c, 9, 40, 23
4, 72812, Note_on_c, 9, 40, 0
4, 72927, Note_on_c, 9, 44, 42
4, 72972, Note_on_c, 9, 40, 21
4, 73065, Note_on_c, 9, 44, 0
4, 73699, Note_on_c, 9, 40, 0
4, 73860, Note_on_c, 9, 40, 22
4, 74625, Note_on_c, 9, 40, 0
4, 74766, Note_on_c, 9, 40, 25
4, 75497, Note_on_c, 9, 40, 0
4, 75728, Note_on_c, 9, 40, 20
4, 75736, Note_on_c, 9, 39, 28
4, 75865, Note_on_c, 9, 39, 0
4, 76490, Note_on_c, 9, 40, 0
4, 76729, Note_on_c, 9, 40, 20
4, 77368, Note_on_c, 9, 38, 43
4, 77412, Note_on_c, 9, 40, 0
4, 77663, Note_on_c, 9, 38, 0
4, 77716, Note_on_c, 9, 40, 20
4, 78319, Note_on_c, 9, 38, 35
4, 78362, Note_on_c, 9, 40, 0
4, 78664, Note_on_c, 9, 38, 0
4, 78678, Note_on_c, 9, 44, 37
4, 78681, Note_on_c, 9, 40, 21
4, 78815, Note_on_c, 9, 44, 0
4, 79351, Note_on_c, 9, 40, 0
4, 79632, Note_on_c, 9, 46, 43
4, 79635, Note_on_c, 9, 40, 21
4, 79689, Note_on_c, 9, 36, 28
4, 80418, Note_on_c, 9, 40, 0
4, 80492, Note_on_c, 9, 36, 0
4, 80511, Note_on_c, 9, 46, 0
4, 80586, Note_on_c, 9, 40, 19
4, 80797, Note_on_c, 9, 40, 0
4, 80906, Note_on_c, 9, 40, 21
4, 81014, Note_on_c, 9, 40, 0
4, 81235, Note_on_c, 9, 40, 28
4, 81544, Note_on_c, 9, 44, 30
4, 81676, Note_on_c, 9, 44, 0
4, 81816, Note_on_c, 9, 40, 0
4, 81950, Note_on_c, 9, 40, 15
4, 82084, Note_on_c, 9, 40, 0
4, 82227, Note_on_c, 9, 40, 30
4, 82819, Note_on_c, 9, 40, 0
4, 82931, Note_on_c, 9, 40, 24
4, 83035, Note_on_c, 9, 40, 0
4, 83231, Note_on_c, 9, 40, 42
4, 83738, Note_on_c, 9, 40, 0
4, 83847, Note_on_c, 9, 40, 26
4, 83990, Note_on_c, 9, 40, 0
4, 84166, Note_on_c, 9, 40, 37
4, 84792, Note_on_c, 9, 40, 0
4, 84917, Note_on_c, 9, 40, 25
4, 85063, Note_on_c, 9, 40, 0
4, 85182, Note_on_c, 9, 40, 35
4, 85437, Note_on_c, 9, 40, 0
4, 85529, Note_on_c, 9, 40, 38
4, 85661, Note_on_c, 9, 36, 45
4, 85765, Note_on_c, 9, 36, 0
4, 85977, Note_on_c, 9, 36, 39
4, 86150, Note_on_c, 9, 36, 0
4, 86168, Note_on_c, 9, 40, 0
4, 86440, Note_on_c, 9, 40, 31
4, 87165, Note_on_c, 9, 40, 0
4, 87312, Note_on_c, 9, 44, 28
4, 87339, Note_on_c, 9, 40, 25
4, 87406, Note_on_c, 9, 44, 0
4, 87908, Note_on_c, 9, 40, 0
4, 87992, Note_on_c, 9, 40, 23
4, 88128, Note_on_c, 9, 40, 0
4, 88275, Note_on_c, 9, 40, 21
4, 88937, Note_on_c, 9, 38, 34
4, 88979, Note_on_c, 9, 40, 0
4, 89151, Note_on_c, 9, 38, 0
4, 89255, Note_on_c, 9, 40, 25
4, 90054, Note_on_c, 9, 40, 0
4, 90249, Note_on_c, 9, 40, 25
4, 90920, Note_on_c, 9, 38, 17
4, 90993, Note_on_c, 9, 40, 0
4, 91177, Note_on_c, 9, 38, 0
4, 91254, Note_on_c, 9, 40, 23
4, 91562, Note_on_c, 9, 36, 38
4, 91634, Note_on_c, 9, 36, 0
4, 91878, Note_on_c, 9, 36, 31
4, 91897, Note_on_c, 9, 38, 39
4, 91906, Note_on_c, 9, 40, 0
4, 91980, Note_on_c, 9, 36, 0
4, 92107, Note_on_c, 9, 38, 0
4, 92200, Note_on_c, 9, 40, 23
4, 92247, Note_on_c, 9, 46, 36
4, 92264, Note_on_c, 9, 36, 26
4, 92903, Note_on_c, 9, 40, 0
4, 93190, Note_on_c, 9, 40, 24
4, 93484, Note_on_c, 9, 46, 0
4, 93511, Note_on_c, 9, 36, 0
4, 93910, Note_on_c, 9, 40, 0
4, 94110, Note_on_c, 9, 40, 21
4, 94674, Note_on_c, 9, 47, 58
4, 94678, Note_on_c, 9, 39, 42
4, 94725, Note_on_c, 9, 47, 0
4, 94742, Note_on_c, 9, 40, 0
4, 94844, Note_on_c, 9, 39, 0
4, 94949, Note_on_c, 9, 40, 19
4, 95533, Note_on_c, 9, 40, 0
4, 95642, Note_on_c, 9, 40, 25
4, 95865, Note_on_c, 9, 40, 0
4, 95971, Note_on_c, 9, 38, 40
4, 96427, Note_on_c, 9, 38, 0
4, 96589, Note_on_c, 9, 40, 34
4, 96808, Note_on_c, 9, 40, 0
4, 96928, Note_on_c, 9, 40, 25
4, 97525, Note_on_c, 9, 38, 36
4, 97531, Note_on_c, 9, 40, 0
4, 97582, Note_on_c, 9, 39, 47
4, 97659, Note_on_c, 9, 39, 0
4, 97768, Note_on_c, 9, 38, 0
4, 97881, Note_on_c, 9, 40, 24
4, 98352, Note_on_c, 9, 38, 22
4, 98550, Note_on_c, 9, 40, 0
4, 98551, Note_on_c, 9, 38, 0
4, 98802, Note_on_c, 9, 40, 28
4, 99233, Note_on_c, 9, 40, 0
4, 99793, Note_on_c, 9, 40, 24
4, 100328, Note_on_c, 9, 40, 0
4, 100398, Note_on_c, 9, 39, 44
4, 100419, Note_on_c, 9, 47, 54
4, 100584, Note_on_c, 9, 39, 0
4, 100799, Note_on_c, 9, 36, 20
4, 101099, Note_on_c, 9, 36, 0
4, 101309, Note_on_c, 9, 47, 0
4, 101313, Note_on_c, 9, 40, 21
4, 101412, Note_on_c, 9, 40, 0
4, 101639, Note_on_c, 9, 40, 24
4, 102376, Note_on_c, 9, 39, 35
4, 102459, Note_on_c, 9, 40, 0
4, 102560, Note_on_c, 9, 39, 0
4, 102675, Note_on_c, 9, 40, 21
4, 103046, Note_on_c, 9, 39, 46
4, 103170, Note_on_c, 9, 39, 0
4, 103288, Note_on_c, 9, 45, 60
4, 103330, Note_on_c, 9, 40, 0
4, 103337, Note_on_c, 9, 39, 40
4, 103388, Note_on_c, 9, 45, 0
4, 103556, Note_on_c, 9, 39, 0
4, 103596, Note_on_c, 9, 40, 16
4, 103673, Note_on_c, 9, 46, 35
4, 103698, Note_on_c, 9, 36, 44
4, 104104, Note_on_c, 9, 40, 0
4, 104236, Note_on_c, 9, 40, 23
4, 104253, Note_on_c, 9, 46, 0
4, 104374, Note_on_c, 9, 40, 0
4, 104407, Note_on_c, 9, 36, 0
4, 104543, Note_on_c, 9, 40, 22
4, 105234, Note_on_c, 9, 39, 39
4, 105333, Note_on_c, 9, 39, 0
4, 105429, Note_on_c, 9, 40, 0
4, 105550, Note_on_c, 9, 40, 24
4, 105582, Note_on_c, 9, 39, 45
4, 105802, Note_on_c, 9, 39, 0
4, 106136, Note_on_c, 9, 40, 0
4, 106144, Note_on_c, 9, 38, 48
4, 106344, Note_on_c, 9, 38, 0
4, 106463, Note_on_c, 9, 40, 21
4, 106660, Note_on_c, 9, 40, 0
4, 106772, Note_on_c, 9, 40, 20
4, 106891, Note_on_c, 9, 40, 0
4, 107114, Note_on_c, 9, 40, 29
4, 108087, Note_on_c, 9, 38, 40
4, 108159, Note_on_c, 9, 40, 0
4, 108181, Note_on_c, 9, 38, 0
4, 108427, Note_on_c, 9, 40, 26
4, 108618, Note_on_c, 9, 40, 0
4, 108751, Note_on_c, 9, 40, 22
4, 108919, Note_on_c, 9, 40, 0
4, 109049, Note_on_c, 9, 38, 53
4, 109476, Note_on_c, 9, 38, 0
4, 109586, Note_on_c, 9, 40, 32
4, 109739, Note_on_c, 9, 40, 0
4, 109898, Note_on_c, 9, 40, 20
4, 110250, Note_on_c, 9, 40, 0
4, 110423, Note_on_c, 9, 40, 23
4, 111153, Note_on_c, 9, 40, 0
4, 111355, Note_on_c, 9, 40, 25
4, 111547, Note_on_c, 9, 40, 0
4, 111630, Note_on_c, 9, 40, 21
4, 111772, Note_on_c, 9, 40, 0
4, 111974, Note_on_c, 9, 40, 31
4, 112223, Note_on_c, 9, 39, 42
4, 112329, Note_on_c, 9, 39, 0
4, 113046, Note_on_c, 9, 40, 0
4, 113187, Note_on_c, 9, 46, 34
4, 113210, Note_on_c, 9, 36, 36
4, 113234, Note_on_c, 9, 40, 21
4, 114030, Note_on_c, 9, 40, 0
4, 114109, Note_on_c, 9, 36, 0
4, 114125, Note_on_c, 9, 46, 0
4, 114218, Note_on_c, 9, 40, 19
4, 114915, Note_on_c, 9, 40, 0
4, 114917, Note_on_c, 9, 38, 28
4, 115048, Note_on_c, 9, 38, 0
4, 115177, Note_on_c, 9, 40, 20
4, 115981, Note_on_c, 9, 40, 0
4, 116185, Note_on_c, 9, 40, 20
4, 116997, Note_on_c, 9, 40, 0
4, 117163, Note_on_c, 9, 40, 21
4, 117785, Note_on_c, 9, 38, 32
4, 117794, Note_on_c, 9, 40, 0
4, 117919, Note_on_c, 9, 38, 0
4, 118178, Note_on_c, 9, 40, 21
4, 118886, Note_on_c, 9, 40, 0
4, 118983, Note_on_c, 9, 39, 21
4, 119087, Note_on_c, 9, 39, 0
4, 119114, Note_on_c, 9, 40, 17
4, 119279, Note_on_c, 9, 39, 49
4, 119337, Note_on_c, 9, 39, 0
4, 119625, Note_on_c, 9, 36, 34
4, 119688, Note_on_c, 9, 36, 0
4, 119762, Note_on_c, 9, 40, 0
4, 119992, Note_on_c, 9, 40, 23
4, 120629, Note_on_c, 9, 38, 34
4, 120675, Note_on_c, 9, 40, 0
4, 120832, Note_on_c, 9, 38, 0
4, 120953, Note_on_c, 9, 40, 21
4, 121700, Note_on_c, 9, 40, 0
4, 121904, Note_on_c, 9, 40, 20
4, 122622, Note_on_c, 9, 40, 0
4, 122845, Note_on_c, 9, 40, 22
4, 123546, Note_on_c, 9, 40, 0
4, 123774, Note_on_c, 9, 40, 23
4, 124483, Note_on_c, 9, 40, 0
4, 124740, Note_on_c, 9, 40, 21
4, 125436, Note_on_c, 9, 47, 42
4, 125499, Note_on_c, 9, 47, 0
4, 125541, Note_on_c, 9, 40, 0
4, 125733, Note_on_c, 9, 40, 11
4, 126035, Note_on_c, 9, 45, 62
4, 126093, Note_on_c, 9, 45, 0
4, 126365, Note_on_c, 9, 39, 37
4, 126457, Note_on_c, 9, 40, 0
4, 126482, Note_on_c, 9, 39, 0
4, 126665, Note_on_c, 9, 40, 25
4, 126735, Note_on_c, 9, 36, 26
4, 126961, Note_on_c, 9, 36, 0
4, 127217, Note_on_c, 9, 40, 0
4, 127383, Note_on_c, 9, 40, 15
4, 127510, Note_on_c, 9, 40, 0
4, 127649, Note_on_c, 9, 40, 19
4, 128230, Note_on_c, 9, 40, 0
4, 128261, Note_on_c, 9, 47, 60
4, 128469, Note_on_c, 9, 47, 0
4, 128571, Note_on_c, 9, 40, 15
4, 128794, Note_on_c, 9, 40, 0
4, 128960, Note_on_c, 9, 40, 33
4, 129140, Note_on_c, 9, 40, 0
4, 129306, Note_on_c, 9, 40, 23
4, 129386, Note_on_c, 9, 40, 0
4, 129580, Note_on_c, 9, 40, 27
4, 130295, Note_on_c, 9, 40, 0
4, 130553, Note_on_c, 9, 40, 23
4, 131173, Note_on_c, 9, 47, 30
4, 131269, Note_on_c, 9, 47, 0
4, 131304, Note_on_c, 9, 40, 0
4, 131530, Note_on_c, 9, 47, 28
4, 131549, Note_on_c, 9, 40, 21
4, 131617, Note_on_c, 9, 47, 0
4, 132122, Note_on_c, 9, 40, 0
4, 132153, Note_on_c, 9, 38, 44
4, 132163, Note_on_c, 9, 47, 29
4, 132247, Note_on_c, 9, 47, 0
4, 132322, Note_on_c, 9, 38, 0
4, 132479, Note_on_c, 9, 40, 18
4, 132878, Note_on_c, 9, 47, 31
4, 132984, Note_on_c, 9, 47, 0
4, 133130, Note_on_c, 9, 47, 25
4, 133210, Note_on_c, 9, 47, 0
4, 133219, Note_on_c, 9, 40, 0
4, 133473, Note_on_c, 9, 40, 23
4, 134201, Note_on_c, 9, 40, 0
4, 134453, Note_on_c, 9, 40, 22
4, 134931, Note_on_c, 9, 40, 0
4, 135117, Note_on_c, 9, 40, 22
4, 135245, Note_on_c, 9, 40, 0
4, 135362, Note_on_c, 9, 40, 31
4, 135794, Note_on_c, 9, 40, 0
4, 136011, Note_on_c, 9, 40, 33
4, 136519, Note_on_c, 9, 40, 0
4, 136586, Note_on_c, 9, 40, 21
4, 136717, Note_on_c, 9, 40, 0
4, 136885, Note_on_c, 9, 40, 34
4, 137151, Note_on_c, 9, 40, 0
4, 137243, Note_on_c, 9, 40, 11
4, 137400, Note_on_c, 9, 40, 0
4, 137544, Note_on_c, 9, 40, 17
4, 137780, Note_on_c, 9, 40, 0
4, 137876, Note_on_c, 9, 40, 34
4, 138157, Note_on_c, 9, 40, 0
4, 138259, Note_on_c, 9, 40, 24
4, 139064, Note_on_c, 9, 40, 0
4, 139265, Note_on_c, 9, 40, 21
4, 139829, Note_on_c, 9, 39, 21
4, 139889, Note_on_c, 9, 39, 0
4, 140012, Note_on_c, 9, 40, 0
4, 140167, Note_on_c, 9, 39, 25
4, 140248, Note_on_c, 9, 40, 23
4, 140321, Note_on_c, 9, 39, 0
4, 140542, Note_on_c, 9, 40, 0
4, 140582, Note_on_c, 9, 38, 34
4, 140770, Note_on_c, 9, 38, 0
4, 140865, Note_on_c, 9, 40, 21
4, 141380, Note_on_c, 9, 40, 0
4, 141519, Note_on_c, 9, 40, 15
4, 141639, Note_on_c, 9, 40, 0
4, 141777, Note_on_c, 9, 38, 35
4, 142089, Note_on_c, 9, 38, 0
4, 142097, Note_on_c, 9, 40, 23
4, 142304, Note_on_c, 9, 40, 0
4, 142422, Note_on_c, 9, 38, 48
4, 142594, Note_on_c, 9, 38, 0
4, 142658, Note_on_c, 9, 39, 29
4, 142716, Note_on_c, 9, 40, 21
4, 142747, Note_on_c, 9, 39, 0
4, 142927, Note_on_c, 9, 40, 0
4, 143037, Note_on_c, 9, 38, 31
4, 143242, Note_on_c, 9, 38, 0
4, 143628, Note_on_c, 9, 38, 48
4, 143706, Note_on_c, 9, 38, 0
4, 143976, Note_on_c, 9, 59, 41
4, 143996, Note_on_c, 9, 40, 27
4, 144505, Note_on_c, 9, 59, 0
4, 144591, Note_on_c, 9, 40, 0
4, 144968, Note_on_c, 9, 40, 20
4, 144999, Note_on_c, 9, 59, 54
4, 145325, Note_on_c, 9, 59, 0
4, 145584, Note_on_c, 9, 39, 39
4, 145683, Note_on_c, 9, 40, 0
4, 145705, Note_on_c, 9, 39, 0
4, 145957, Note_on_c, 9, 40, 22
4, 146234, Note_on_c, 9, 40, 0
4, 146279, Note_on_c, 9, 38, 42
4, 146490, Note_on_c, 9, 38, 0
4, 146564, Note_on_c, 9, 40, 19
4, 146799, Note_on_c, 9, 40, 0
4, 146815, Note_on_c, 9, 38, 39
4, 147008, Note_on_c, 9, 38, 0
4, 147179, Note_on_c, 9, 40, 15
4, 147364, Note_on_c, 9, 40, 0
4, 147519, Note_on_c, 9, 38, 40
4, 147716, Note_on_c, 9, 38, 0
4, 147864, Note_on_c, 9, 40, 21
4, 148013, Note_on_c, 9, 40, 0
4, 148135, Note_on_c, 9, 38, 36
4, 148311, Note_on_c, 9, 38, 0
4, 148461, Note_on_c, 9, 40, 35
4, 148790, Note_on_c, 9, 38, 40
4, 149007, Note_on_c, 9, 38, 0
4, 149042, Note_on_c, 9, 40, 0
4, 149131, Note_on_c, 9, 40, 24
4, 149227, Note_on_c, 9, 40, 0
4, 149430, Note_on_c, 9, 40, 36
4, 149485, Note_on_c, 9, 36, 40
4, 149571, Note_on_c, 9, 36, 0
4, 149714, Note_on_c, 9, 40, 0
4, 149740, Note_on_c, 9, 38, 46
4, 149798, Note_on_c, 9, 36, 33
4, 150021, Note_on_c, 9, 36, 0
4, 150041, Note_on_c, 9, 38, 0
4, 150083, Note_on_c, 9, 40, 25
4, 150193, Note_on_c, 9, 40, 0
4, 150357, Note_on_c, 9, 40, 23
4, 150664, Note_on_c, 9, 40, 0
4, 150763, Note_on_c, 9, 40, 33
4, 151547, Note_on_c, 9, 40, 0
4, 151716, Note_on_c, 9, 40, 23
4, 152513, Note_on_c, 9, 40, 0
4, 152676, Note_on_c, 9, 40, 21
4, 153486, Note_on_c, 9, 40, 0
4, 153656, Note_on_c, 9, 40, 19
4, 154370, Note_on_c, 9, 40, 0
4, 154610, Note_on_c, 9, 40, 19
4, 154893, Note_on_c, 9, 39, 48
4, 155019, Note_on_c, 9, 39, 0
4, 155182, Note_on_c, 9, 39, 38
4, 155208, Note_on_c, 9, 38, 41
4, 155226, Note_on_c, 9, 40, 0
4, 155354, Note_on_c, 9, 38, 0
4, 155382, Note_on_c, 9, 39, 0
4, 155471, Note_on_c, 9, 40, 25
4, 155501, Note_on_c, 9, 59, 48
4, 155530, Note_on_c, 9, 36, 36
4, 156092, Note_on_c, 9, 59, 0
4, 156200, Note_on_c, 9, 36, 0
4, 156270, Note_on_c, 9, 40, 0
4, 156501, Note_on_c, 9, 40, 18
4, 157069, Note_on_c, 9, 45, 61
4, 157149, Note_on_c, 9, 40, 0
4, 157302, Note_on_c, 9, 45, 0
4, 157458, Note_on_c, 9, 40, 12
4, 157920, Note_on_c, 9, 40, 0
4, 158078, Note_on_c, 9, 40, 23
4, 158263, Note_on_c, 9, 40, 0
4, 158431, Note_on_c, 9, 40, 18
4, 159188, Note_on_c, 9, 40, 0
4, 159453, Note_on_c, 9, 40, 22
4, 160128, Note_on_c, 9, 43, 45
4, 160203, Note_on_c, 9, 40, 0
4, 160351, Note_on_c, 9, 43, 0
4, 160501, Note_on_c, 9, 40, 14
4, 160938, Note_on_c, 9, 53, 42
4, 160958, Note_on_c, 9, 40, 0
4, 161011, Note_on_c, 9, 53, 0
4, 161100, Note_on_c, 9, 40, 29
4, 161270, Note_on_c, 9, 40, 0
4, 161408, Note_on_c, 9, 40, 19
4, 161547, Note_on_c, 9, 53, 51
4, 161692, Note_on_c, 9, 53, 0
4, 162212, Note_on_c, 9, 40, 0
4, 162256, Note_on_c, 9, 53, 48
4, 162372, Note_on_c, 9, 40, 19
4, 162378, Note_on_c, 9, 53, 0
4, 162928, Note_on_c, 9, 53, 50
4, 163042, Note_on_c, 9, 53, 0
4, 163113, Note_on_c, 9, 40, 0
4, 163298, Note_on_c, 9, 40, 23
4, 163516, Note_on_c, 9, 53, 34
4, 163629, Note_on_c, 9, 53, 0
4, 163827, Note_on_c, 9, 53, 31
4, 163958, Note_on_c, 9, 53, 0
4, 163964, Note_on_c, 9, 40, 0
4, 164196, Note_on_c, 9, 40, 23
4, 164942, Note_on_c, 9, 40, 0
4, 165130, Note_on_c, 9, 40, 24
4, 165785, Note_on_c, 9, 38, 46
4, 165805, Note_on_c, 9, 40, 0
4, 165869, Note_on_c, 9, 38, 0
4, 166082, Note_on_c, 9, 40, 28
4, 166567, Note_on_c, 9, 40, 0
4, 166701, Note_on_c, 9, 40, 21
4, 166928, Note_on_c, 9, 40, 0
4, 167040, Note_on_c, 9, 40, 24
4, 167120, Note_on_c, 9, 53, 69
4, 167493, Note_on_c, 9, 53, 0
4, 167742, Note_on_c, 9, 53, 63
4, 167809, Note_on_c, 9, 40, 0
4, 167983, Note_on_c, 9, 40, 25
4, 167992, Note_on_c, 9, 53, 0
4, 168333, Note_on_c, 9, 53, 54
4, 168671, Note_on_c, 9, 53, 0
4, 168700, Note_on_c, 9, 40, 0
4, 168907, Note_on_c, 9, 40, 24
4, 168995, Note_on_c, 9, 53, 54
4, 169208, Note_on_c, 9, 53, 0
4, 169326, Note_on_c, 9, 39, 48
4, 169485, Note_on_c, 9, 39, 0
4, 169499, Note_on_c, 9, 40, 0
4, 169550, Note_on_c, 9, 47, 55
4, 169702, Note_on_c, 9, 36, 22
4, 169744, Note_on_c, 9, 47, 0
4, 169799, Note_on_c, 9, 36, 0
4, 169878, Note_on_c, 9, 40, 20
4, 169952, Note_on_c, 9, 36, 46
4, 170135, Note_on_c, 9, 36, 0
4, 170511, Note_on_c, 9, 40, 0
4, 170517, Note_on_c, 9, 38, 29
4, 170658, Note_on_c, 9, 36, 35
4, 170700, Note_on_c, 9, 38, 0
4, 170756, Note_on_c, 9, 36, 0
4, 170799, Note_on_c, 9, 40, 27
4, 171297, Note_on_c, 9, 40, 0
4, 171345, Note_on_c, 9, 45, 64
4, 171562, Note_on_c, 9, 45, 0
4, 171654, Note_on_c, 9, 40, 14
4, 171816, Note_on_c, 9, 40, 0
4, 171888, Note_on_c, 9, 45, 55
4, 172152, Note_on_c, 9, 45, 0
4, 172185, Note_on_c, 9, 40, 25
4, 172354, Note_on_c, 9, 40, 0
4, 172456, Note_on_c, 9, 40, 29
4, 172625, Note_on_c, 9, 40, 0
4, 172765, Note_on_c, 9, 40, 23
4, 173390, Note_on_c, 9, 51, 46
4, 173470, Note_on_c, 9, 40, 0
4, 173473, Note_on_c, 9, 53, 18
4, 173575, Note_on_c, 9, 51, 0
4, 173703, Note_on_c, 9, 53, 0
4, 173735, Note_on_c, 9, 40, 15
4, 173915, Note_on_c, 9, 40, 0
4, 174000, Note_on_c, 9, 51, 29
4, 174005, Note_on_c, 9, 40, 21
4, 174032, Note_on_c, 9, 53, 54
4, 174139, Note_on_c, 9, 40, 0
4, 174182, Note_on_c, 9, 51, 0
4, 174281, Note_on_c, 9, 53, 0
4, 174345, Note_on_c, 9, 40, 36
4, 174680, Note_on_c, 9, 36, 31
4, 174862, Note_on_c, 9, 40, 0
4, 174879, Note_on_c, 9, 36, 0
4, 174977, Note_on_c, 9, 40, 22
4, 175199, Note_on_c, 9, 40, 0
4, 175291, Note_on_c, 9, 40, 32
4, 175357, Note_on_c, 9, 36, 27
4, 175524, Note_on_c, 9, 36, 0
4, 175542, Note_on_c, 9, 40, 0
4, 175636, Note_on_c, 9, 40, 34
4, 176438, Note_on_c, 9, 40, 0
4, 176641, Note_on_c, 9, 40, 27
4, 177436, Note_on_c, 9, 40, 0
4, 177519, Note_on_c, 9, 39, 30
4, 177679, Note_on_c, 9, 40, 25
4, 177749, Note_on_c, 9, 39, 0
4, 178264, Note_on_c, 9, 38, 36
4, 178312, Note_on_c, 9, 40, 0
4, 178528, Note_on_c, 9, 38, 0
4, 178596, Note_on_c, 9, 40, 23
4, 179359, Note_on_c, 9, 40, 0
4, 179535, Note_on_c, 9, 40, 25
4, 180274, Note_on_c, 9, 40, 0
4, 180499, Note_on_c, 9, 40, 23
4, 181108, Note_on_c, 9, 40, 0
4, 181111, Note_on_c, 9, 39, 45
4, 181160, Note_on_c, 9, 38, 46
4, 181237, Note_on_c, 9, 38, 0
4, 181268, Note_on_c, 9, 39, 0
4, 181501, Note_on_c, 9, 40, 21
4, 181571, Note_on_c, 9, 36, 15
4, 181715, Note_on_c, 9, 36, 0
4, 182217, Note_on_c, 9, 40, 0
4, 182426, Note_on_c, 9, 40, 24
4, 182960, Note_on_c, 9, 40, 0
4, 183018, Note_on_c, 9, 39, 36
4, 183104, Note_on_c, 9, 40, 22
4, 183151, Note_on_c, 9, 39, 0
4, 183258, Note_on_c, 9, 40, 0
4, 183366, Note_on_c, 9, 59, 56
4, 183381, Note_on_c, 9, 40, 21
4, 183521, Note_on_c, 9, 59, 0
4, 183711, Note_on_c, 9, 39, 32
4, 183807, Note_on_c, 9, 39, 0
4, 183957, Note_on_c, 9, 40, 0
4, 183970, Note_on_c, 9, 59, 61
4, 183995, Note_on_c, 9, 45, 61
4, 184212, Note_on_c, 9, 45, 0
4, 184474, Note_on_c, 9, 40, 5
4, 184611, Note_on_c, 9, 39, 27
4, 184656, Note_on_c, 9, 59, 0
4, 184688, Note_on_c, 9, 39, 0
4, 184745, Note_on_c, 9, 40, 0
4, 185007, Note_on_c, 9, 40, 22
4, 185145, Note_on_c, 9, 40, 0
4, 185359, Note_on_c, 9, 40, 16
4, 185371, Note_on_c, 9, 39, 30
4, 185482, Note_on_c, 9, 39, 0
4, 186004, Note_on_c, 9, 40, 0
4, 186284, Note_on_c, 9, 40, 17
4, 186355, Note_on_c, 9, 36, 20
4, 186476, Note_on_c, 9, 36, 0
4, 186747, Note_on_c, 9, 40, 0
4, 186904, Note_on_c, 9, 40, 31
4, 187096, Note_on_c, 9, 40, 0
4, 187204, Note_on_c, 9, 40, 32
4, 187909, Note_on_c, 9, 40, 0
4, 188151, Note_on_c, 9, 40, 27
4, 188963, Note_on_c, 9, 40, 0
4, 189155, Note_on_c, 9, 40, 22
4, 189295, Note_on_c, 9, 40, 0
4, 189394, Note_on_c, 9, 40, 16
4, 189497, Note_on_c, 9, 40, 0
4, 189706, Note_on_c, 9, 40, 36
4, 190627, Note_on_c, 9, 38, 34
4, 190662, Note_on_c, 9, 40, 0
4, 190812, Note_on_c, 9, 38, 0
4, 190945, Note_on_c, 9, 40, 23
4, 191585, Note_on_c, 9, 45, 58
4, 191617, Note_on_c, 9, 40, 0
4, 191738, Note_on_c, 9, 45, 0
4, 191895, Note_on_c, 9, 45, 41
4, 192536, Note_on_c, 9, 38, 27
4, 192578, Note_on_c, 9, 45, 0
4, 192749, Note_on_c, 9, 38, 0
4, 192872, Note_on_c, 9, 40, 18
4, 193354, Note_on_c, 9, 40, 0
4, 193462, Note_on_c, 9, 38, 28
4, 193699, Note_on_c, 9, 38, 0
4, 193848, Note_on_c, 9, 40, 15
4, 194405, Note_on_c, 9, 40, 0
4, 194503, Note_on_c, 9, 38, 34
4, 194672, Note_on_c, 9, 38, 0
4, 194787, Note_on_c, 9, 40, 21
4, 195304, Note_on_c, 9, 40, 0
4, 195327, Note_on_c, 9, 38, 36
4, 195474, Note_on_c, 9, 38, 0
4, 195719, Note_on_c, 9, 40, 21
4, 196429, Note_on_c, 9, 40, 0
4, 196432, Note_on_c, 9, 38, 24
4, 196638, Note_on_c, 9, 38, 0
4, 196703, Note_on_c, 9, 40, 20
4, 197390, Note_on_c, 9, 40, 0
4, 197395, Note_on_c, 9, 38, 33
4, 197645, Note_on_c, 9, 38, 0
4, 197708, Note_on_c, 9, 40, 19
4, 198156, Note_on_c, 9, 40, 0
4, 198289, Note_on_c, 9, 40, 33
4, 198506, Note_on_c, 9, 40, 0
4, 198619, Note_on_c, 9, 40, 23
4, 198752, Note_on_c, 9, 36, 22
4, 198899, Note_on_c, 9, 36, 0
4, 199355, Note_on_c, 9, 38, 17
4, 199413, Note_on_c, 9, 40, 0
4, 199538, Note_on_c, 9, 38, 0
4, 199603, Note_on_c, 9, 40, 18
4, 200112, Note_on_c, 9, 40, 0
4, 200321, Note_on_c, 9, 40, 27
4, 200857, Note_on_c, 9, 40, 0
4, 201059, Note_on_c, 9, 40, 21
4, 201170, Note_on_c, 9, 40, 0
4, 201316, Note_on_c, 9, 40, 31
4, 201469, Note_on_c, 9, 40, 0
4, 201643, Note_on_c, 9, 40, 33
4, 202299, Note_on_c, 9, 40, 0
4, 202342, Note_on_c, 9, 38, 20
4, 202470, Note_on_c, 9, 38, 0
4, 202553, Note_on_c, 9, 40, 25
4, 202703, Note_on_c, 9, 40, 0
4, 203171, Note_on_c, 9, 40, 38
4, 204220, Note_on_c, 9, 38, 24
4, 204268, Note_on_c, 9, 40, 0
4, 204401, Note_on_c, 9, 38, 0
4, 204477, Note_on_c, 9, 40, 31
4, 205295, Note_on_c, 9, 40, 0
4, 205537, Note_on_c, 9, 40, 23
4, 206185, Note_on_c, 9, 38, 38
4, 206266, Note_on_c, 9, 40, 0
4, 206413, Note_on_c, 9, 38, 0
4, 206445, Note_on_c, 9, 40, 22
4, 207054, Note_on_c, 9, 38, 33
4, 207070, Note_on_c, 9, 40, 0
4, 207218, Note_on_c, 9, 38, 0
4, 207364, Note_on_c, 9, 40, 23
4, 208137, Note_on_c, 9, 40, 0
4, 208336, Note_on_c, 9, 40, 19
4, 209070, Note_on_c, 9, 40, 0
4, 209270, Note_on_c, 9, 40, 18
4, 209922, Note_on_c, 9, 40, 0
4, 209924, Note_on_c, 9, 38, 32
4, 210076, Note_on_c, 9, 38, 0
4, 210206, Note_on_c, 9, 40, 25
4, 210998, Note_on_c, 9, 40, 0
4, 211170, Note_on_c, 9, 40, 24
4, 211902, Note_on_c, 9, 38, 24
4, 211923, Note_on_c, 9, 40, 0
4, 212011, Note_on_c, 9, 38, 0
4, 212170, Note_on_c, 9, 40, 23
4, 212795, Note_on_c, 9, 38, 57
4, 212827, Note_on_c, 9, 40, 0
4, 213013, Note_on_c, 9, 38, 0
4, 213134, Note_on_c, 9, 40, 23
4, 213170, Note_on_c, 9, 36, 18
4, 213282, Note_on_c, 9, 36, 0
4, 213840, Note_on_c, 9, 40, 0
4, 214115, Note_on_c, 9, 40, 23
4, 214746, Note_on_c, 9, 40, 0
4, 214762, Note_on_c, 9, 38, 20
4, 214938, Note_on_c, 9, 38, 0
4, 215053, Note_on_c, 9, 40, 22
4, 215592, Note_on_c, 9, 39, 37
4, 215720, Note_on_c, 9, 39, 0
4, 215726, Note_on_c, 9, 40, 0
4, 215960, Note_on_c, 9, 39, 28
4, 215992, Note_on_c, 9, 40, 19
4, 216097, Note_on_c, 9, 39, 0
4, 216636, Note_on_c, 9, 40, 0
4, 216962, Note_on_c, 9, 40, 19
4, 217616, Note_on_c, 9, 40, 0
4, 217621, Note_on_c, 9, 38, 18
4, 217806, Note_on_c, 9, 44, 52
4, 217850, Note_on_c, 9, 38, 0
4, 217950, Note_on_c, 9, 40, 19
4, 218185, Note_on_c, 9, 44, 0
4, 218563, Note_on_c, 9, 40, 0
4, 218809, Note_on_c, 9, 40, 21
4, 219277, Note_on_c, 9, 40, 0
4, 219497, Note_on_c, 9, 40, 23
4, 219907, Note_on_c, 9, 44, 51
4, 219967, Note_on_c, 9, 40, 0
4, 220101, Note_on_c, 9, 40, 29
4, 220177, Note_on_c, 9, 44, 0
4, 220650, Note_on_c, 9, 40, 0
4, 220774, Note_on_c, 9, 40, 27
4, 220800, Note_on_c, 9, 46, 64
4, 221589, Note_on_c, 9, 46, 0
4, 221920, Note_on_c, 9, 40, 0
4, 222043, Note_on_c, 9, 40, 22
4, 222259, Note_on_c, 9, 40, 0
4, 222378, Note_on_c, 9, 40, 27
4, 222618, Note_on_c, 9, 40, 0
4, 222731, Note_on_c, 9, 40, 29
4, 222827, Note_on_c, 9, 44, 34
4, 223032, Note_on_c, 9, 44, 0
4, 223381, Note_on_c, 9, 38, 40
4, 223394, Note_on_c, 9, 40, 0
4, 223671, Note_on_c, 9, 38, 0
4, 223767, Note_on_c, 9, 40, 16
4, 223788, Note_on_c, 9, 46, 60
4, 223911, Note_on_c, 9, 40, 0
4, 224039, Note_on_c, 9, 40, 21
4, 224205, Note_on_c, 9, 40, 0
4, 224383, Note_on_c, 9, 40, 33
4, 224591, Note_on_c, 9, 46, 0
4, 225373, Note_on_c, 9, 38, 38
4, 225395, Note_on_c, 9, 40, 0
4, 225581, Note_on_c, 9, 44, 44
4, 225599, Note_on_c, 9, 38, 0
4, 225688, Note_on_c, 9, 44, 0
4, 225701, Note_on_c, 9, 40, 23
4, 226481, Note_on_c, 9, 40, 0
4, 226539, Note_on_c, 9, 46, 53
4, 226675, Note_on_c, 9, 40, 16
4, 226745, Note_on_c, 9, 46, 0
4, 227321, Note_on_c, 9, 40, 0
4, 227508, Note_on_c, 9, 40, 21
4, 227853, Note_on_c, 9, 38, 35
4, 228008, Note_on_c, 9, 38, 0
4, 228011, Note_on_c, 9, 40, 0
4, 228211, Note_on_c, 9, 38, 25
4, 228335, Note_on_c, 9, 38, 0
4, 228390, Note_on_c, 9, 44, 46
4, 228455, Note_on_c, 9, 40, 21
4, 228499, Note_on_c, 9, 44, 0
4, 228837, Note_on_c, 9, 38, 26
4, 228840, Note_on_c, 9, 40, 0
4, 228901, Note_on_c, 9, 38, 0
4, 229084, Note_on_c, 9, 38, 43
4, 229272, Note_on_c, 9, 38, 0
4, 229392, Note_on_c, 9, 46, 50
4, 229418, Note_on_c, 9, 40, 17
4, 229632, Note_on_c, 9, 40, 0
4, 229671, Note_on_c, 9, 38, 30
4, 229833, Note_on_c, 9, 38, 0
4, 229989, Note_on_c, 9, 46, 0
4, 229989, Note_on_c, 9, 38, 47
4, 230194, Note_on_c, 9, 38, 0
4, 230329, Note_on_c, 9, 40, 14
4, 230688, Note_on_c, 9, 38, 32
4, 230712, Note_on_c, 9, 40, 0
4, 230851, Note_on_c, 9, 38, 0
4, 230985, Note_on_c, 9, 38, 36
4, 231167, Note_on_c, 9, 38, 0
4, 231312, Note_on_c, 9, 40, 20
4, 231346, Note_on_c, 9, 44, 28
4, 231449, Note_on_c, 9, 44, 0
4, 231667, Note_on_c, 9, 38, 24
4, 231780, Note_on_c, 9, 38, 0
4, 231924, Note_on_c, 9, 40, 0
4, 231947, Note_on_c, 9, 38, 37
4, 232142, Note_on_c, 9, 38, 0
4, 232256, Note_on_c, 9, 40, 19
4, 232873, Note_on_c, 9, 38, 44
4, 232893, Note_on_c, 9, 40, 0
4, 233112, Note_on_c, 9, 38, 0
4, 233222, Note_on_c, 9, 40, 24
4, 233902, Note_on_c, 9, 44, 25
4, 233985, Note_on_c, 9, 44, 0
4, 233993, Note_on_c, 9, 40, 0
4, 234201, Note_on_c, 9, 40, 21
4, 234422, Note_on_c, 9, 44, 31
4, 234598, Note_on_c, 9, 38, 37
4, 234635, Note_on_c, 9, 40, 0
4, 234709, Note_on_c, 9, 38, 0
4, 234718, Note_on_c, 9, 44, 0
4, 234887, Note_on_c, 9, 40, 23
4, 235149, Note_on_c, 9, 44, 35
4, 235181, Note_on_c, 9, 38, 51
4, 235313, Note_on_c, 9, 40, 0
4, 235341, Note_on_c, 9, 38, 0
4, 235345, Note_on_c, 9, 44, 0
4, 235567, Note_on_c, 9, 40, 19
4, 235746, Note_on_c, 9, 40, 0
4, 235791, Note_on_c, 9, 38, 49
4, 235856, Note_on_c, 9, 44, 34
4, 235955, Note_on_c, 9, 38, 0
4, 236009, Note_on_c, 9, 44, 0
4, 236153, Note_on_c, 9, 40, 22
4, 236477, Note_on_c, 9, 44, 33
4, 236647, Note_on_c, 9, 44, 0
4, 237047, Note_on_c, 9, 40, 0
4, 237130, Note_on_c, 9, 40, 28
4, 237161, Note_on_c, 9, 44, 39
4, 237341, Note_on_c, 9, 44, 0
4, 237815, Note_on_c, 9, 44, 37
4, 237857, Note_on_c, 9, 40, 0
4, 237978, Note_on_c, 9, 44, 0
4, 238104, Note_on_c, 9, 40, 22
4, 238399, Note_on_c, 9, 44, 32
4, 238581, Note_on_c, 9, 44, 0
4, 238597, Note_on_c, 9, 40, 0
4, 238712, Note_on_c, 9, 40, 29
4, 238867, Note_on_c, 9, 40, 0
4, 238979, Note_on_c, 9, 40, 24
4, 239721, Note_on_c, 9, 40, 0
4, 239954, Note_on_c, 9, 40, 28
4, 240002, Note_on_c, 9, 44, 20
4, 240125, Note_on_c, 9, 44, 0
4, 240785, Note_on_c, 9, 40, 0
4, 240990, Note_on_c, 9, 40, 19
4, 241038, Note_on_c, 9, 46, 49
4, 241265, Note_on_c, 9, 46, 0
4, 241615, Note_on_c, 9, 45, 62
4, 241651, Note_on_c, 9, 40, 0
4, 241677, Note_on_c, 9, 45, 0
4, 241909, Note_on_c, 9, 40, 19
4, 242752, Note_on_c, 9, 40, 0
4, 242815, Note_on_c, 9, 44, 30
4, 242886, Note_on_c, 9, 40, 26
4, 242950, Note_on_c, 9, 44, 0
4, 243621, Note_on_c, 9, 40, 0
4, 243835, Note_on_c, 9, 40, 27
4, 244547, Note_on_c, 9, 40, 0
4, 244793, Note_on_c, 9, 40, 23
4, 245482, Note_on_c, 9, 40, 0
4, 245658, Note_on_c, 9, 40, 22
4, 246447, Note_on_c, 9, 40, 0
4, 246615, Note_on_c, 9, 40, 23
4, 247111, Note_on_c, 9, 39, 46
4, 247171, Note_on_c, 9, 39, 0
4, 247171, Note_on_c, 9, 40, 0
4, 247321, Note_on_c, 9, 40, 29
4, 247420, Note_on_c, 9, 36, 36
4, 247469, Note_on_c, 9, 40, 0
4, 247513, Note_on_c, 9, 36, 0
4, 247614, Note_on_c, 9, 40, 21
4, 247745, Note_on_c, 9, 36, 37
4, 247999, Note_on_c, 9, 36, 0
4, 248371, Note_on_c, 9, 40, 0
4, 248564, Note_on_c, 9, 40, 20
4, 249313, Note_on_c, 9, 40, 0
4, 249544, Note_on_c, 9, 40, 21
4, 250176, Note_on_c, 9, 40, 0
4, 250179, Note_on_c, 9, 38, 42
4, 250229, Note_on_c, 9, 39, 40
4, 250354, Note_on_c, 9, 38, 0
4, 250380, Note_on_c, 9, 39, 0
4, 250470, Note_on_c, 9, 40, 23
4, 251315, Note_on_c, 9, 40, 0
4, 251459, Note_on_c, 9, 40, 23
4, 252213, Note_on_c, 9, 39, 32
4, 252217, Note_on_c, 9, 59, 48
4, 252290, Note_on_c, 9, 59, 0
4, 252386, Note_on_c, 9, 39, 0
4, 252813, Note_on_c, 9, 59, 55
4, 252833, Note_on_c, 9, 39, 33
4, 252909, Note_on_c, 9, 39, 0
4, 252938, Note_on_c, 9, 59, 0
4, 252966, Note_on_c, 9, 40, 0
4, 253052, Note_on_c, 9, 40, 28
4, 253135, Note_on_c, 9, 39, 38
4, 253215, Note_on_c, 9, 40, 0
4, 253309, Note_on_c, 9, 39, 0
4, 253357, Note_on_c, 9, 40, 24
4, 253545, Note_on_c, 9, 36, 22
4, 253637, Note_on_c, 9, 36, 0
4, 254205, Note_on_c, 9, 40, 0
4, 254426, Note_on_c, 9, 40, 21
4, 254602, Note_on_c, 9, 40, 0
4, 254719, Note_on_c, 9, 40, 21
4, 254835, Note_on_c, 9, 40, 0
4, 254998, Note_on_c, 9, 40, 34
4, 256041, Note_on_c, 9, 38, 43
4, 256093, Note_on_c, 9, 40, 0
4, 256216, Note_on_c, 9, 38, 0
4, 256383, Note_on_c, 9, 40, 25
4, 257047, Note_on_c, 9, 40, 0
4, 257260, Note_on_c, 9, 40, 24
4, 257902, Note_on_c, 9, 38, 42
4, 257948, Note_on_c, 9, 40, 0
4, 258122, Note_on_c, 9, 38, 0
4, 258191, Note_on_c, 9, 40, 21
4, 258985, Note_on_c, 9, 40, 0
4, 259149, Note_on_c, 9, 40, 21
4, 259746, Note_on_c, 9, 40, 0
4, 260100, Note_on_c, 9, 40, 26
4, 260607, Note_on_c, 9, 40, 0
4, 260745, Note_on_c, 9, 40, 19
4, 260812, Note_on_c, 9, 53, 36
4, 260888, Note_on_c, 9, 53, 0
4, 261041, Note_on_c, 9, 40, 0
4, 261102, Note_on_c, 9, 43, 36
4, 261419, Note_on_c, 9, 53, 34
4, 261499, Note_on_c, 9, 53, 0
4, 261530, Note_on_c, 9, 43, 0
4, 261652, Note_on_c, 9, 40, 23
4, 261827, Note_on_c, 9, 40, 0
4, 262029, Note_on_c, 9, 45, 59
4, 262101, Note_on_c, 9, 45, 0
4, 262102, Note_on_c, 9, 53, 62
4, 262166, Note_on_c, 9, 53, 0
4, 262664, Note_on_c, 9, 45, 74
4, 262766, Note_on_c, 9, 45, 0
4, 262772, Note_on_c, 9, 53, 60
4, 262840, Note_on_c, 9, 53, 0
4, 262954, Note_on_c, 9, 40, 23
4, 263309, Note_on_c, 9, 40, 0
4, 263417, Note_on_c, 9, 53, 43
4, 263490, Note_on_c, 9, 53, 0
4, 263648, Note_on_c, 9, 40, 19
4, 263746, Note_on_c, 9, 39, 48
4, 263778, Note_on_c, 9, 40, 0
4, 263877, Note_on_c, 9, 39, 0
4, 263992, Note_on_c, 9, 45, 73
4, 264075, Note_on_c, 9, 53, 54
4, 264228, Note_on_c, 9, 45, 0
4, 264301, Note_on_c, 9, 53, 0
4, 264572, Note_on_c, 9, 39, 39
4, 264609, Note_on_c, 9, 45, 78
4, 264740, Note_on_c, 9, 45, 0
4, 264749, Note_on_c, 9, 39, 0
4, 264928, Note_on_c, 9, 53, 42
4, 264936, Note_on_c, 9, 36, 41
4, 264937, Note_on_c, 9, 59, 46
4, 264944, Note_on_c, 9, 40, 20
4, 264960, Note_on_c, 9, 40, 30
4, 265097, Note_on_c, 9, 53, 0
4, 265112, Note_on_c, 9, 59, 0
4, 265134, Note_on_c, 9, 36, 0
4, 265417, Note_on_c, 9, 40, 0
4, 265828, Note_on_c, 9, 40, 0
4, 265844, Note_on_c, 9, 40, 19
4, 265943, Note_on_c, 9, 40, 25
4, 265991, Note_on_c, 9, 44, 58
4, 266317, Note_on_c, 9, 44, 0
4, 266722, Note_on_c, 9, 40, 0
4, 266744, Note_on_c, 9, 40, 0
4, 266890, Note_on_c, 9, 44, 50
4, 266931, Note_on_c, 9, 40, 19
4, 267203, Note_on_c, 9, 44, 0
4, 267472, Note_on_c, 9, 40, 0
4, 267578, Note_on_c, 9, 40, 32
4, 267722, Note_on_c, 9, 40, 0
4, 267860, Note_on_c, 9, 40, 20
4, 268412, Note_on_c, 9, 39, 33
4, 268502, Note_on_c, 9, 39, 0
4, 268642, Note_on_c, 9, 40, 0
4, 268789, Note_on_c, 9, 40, 21
4, 268826, Note_on_c, 9, 46, 77
4, 268831, Note_on_c, 9, 39, 40
4, 268888, Note_on_c, 9, 39, 0
4, 269615, Note_on_c, 9, 40, 0
4, 269779, Note_on_c, 9, 40, 20
4, 270000, Note_on_c, 9, 46, 0
4, 270440, Note_on_c, 9, 38, 51
4, 270551, Note_on_c, 9, 40, 0
4, 270599, Note_on_c, 9, 38, 0
4, 270734, Note_on_c, 9, 40, 24
4, 271066, Note_on_c, 9, 39, 33
4, 271152, Note_on_c, 9, 39, 0
4, 271420, Note_on_c, 9, 39, 34
4, 271538, Note_on_c, 9, 39, 0
4, 271569, Note_on_c, 9, 40, 0
4, 271684, Note_on_c, 9, 40, 27
4, 271722, Note_on_c, 9, 44, 52
4, 271895, Note_on_c, 9, 44, 0
4, 272397, Note_on_c, 9, 40, 0
4, 272479, Note_on_c, 9, 40, 25
4, 272549, Note_on_c, 9, 40, 0
4, 272628, Note_on_c, 9, 44, 43
4, 272652, Note_on_c, 9, 40, 28
4, 272804, Note_on_c, 9, 44, 0
4, 273466, Note_on_c, 9, 40, 0
4, 273601, Note_on_c, 9, 40, 26
4, 273639, Note_on_c, 9, 45, 54
4, 273700, Note_on_c, 9, 45, 0
4, 273965, Note_on_c, 9, 45, 47
4, 274058, Note_on_c, 9, 45, 0
4, 274396, Note_on_c, 9, 40, 0
4, 274497, Note_on_c, 9, 44, 33
4, 274524, Note_on_c, 9, 40, 23
4, 274813, Note_on_c, 9, 44, 0
4, 275239, Note_on_c, 9, 39, 38
4, 275309, Note_on_c, 9, 39, 0
4, 275379, Note_on_c, 9, 40, 0
4, 275528, Note_on_c, 9, 40, 21
4, 275580, Note_on_c, 9, 43, 30
4, 275638, Note_on_c, 9, 43, 0
4, 276103, Note_on_c, 9, 40, 0
4, 276153, Note_on_c, 9, 39, 23
4, 276203, Note_on_c, 9, 39, 0
4, 276212, Note_on_c, 9, 40, 27
4, 276330, Note_on_c, 9, 40, 0
4, 276432, Note_on_c, 9, 40, 21
4, 277088, Note_on_c, 9, 39, 33
4, 277145, Note_on_c, 9, 39, 0
4, 277219, Note_on_c, 9, 40, 0
4, 277368, Note_on_c, 9, 40, 23
4, 277443, Note_on_c, 9, 44, 77
4, 277445, Note_on_c, 9, 39, 27
4, 277538, Note_on_c, 9, 39, 0
4, 277855, Note_on_c, 9, 44, 0
4, 277988, Note_on_c, 9, 39, 25
4, 278058, Note_on_c, 9, 39, 0
4, 278192, Note_on_c, 9, 40, 0
4, 278374, Note_on_c, 9, 40, 23
4, 278983, Note_on_c, 9, 40, 0
4, 279092, Note_on_c, 9, 40, 25
4, 279207, Note_on_c, 9, 40, 0
4, 279353, Note_on_c, 9, 40, 22
4, 280229, Note_on_c, 9, 40, 0
4, 280335, Note_on_c, 9, 40, 27
4, 280339, Note_on_c, 9, 44, 67
4, 280661, Note_on_c, 9, 38, 35
4, 280740, Note_on_c, 9, 38, 0
4, 280744, Note_on_c, 9, 44, 0
4, 280971, Note_on_c, 9, 38, 36
4, 281005, Note_on_c, 9, 38, 43
4, 281040, Note_on_c, 9, 40, 0
4, 281060, Note_on_c, 9, 38, 0
4, 281164, Note_on_c, 9, 38, 0
4, 281299, Note_on_c, 9, 40, 27
4, 281313, Note_on_c, 9, 44, 63
4, 281603, Note_on_c, 9, 38, 30
4, 281648, Note_on_c, 9, 44, 0
4, 281733, Note_on_c, 9, 38, 0
4, 281810, Note_on_c, 9, 40, 0
4, 281902, Note_on_c, 9, 38, 29
4, 281922, Note_on_c, 9, 40, 35
4, 282067, Note_on_c, 9, 38, 0
4, 282151, Note_on_c, 9, 40, 0
4, 282243, Note_on_c, 9, 40, 26
4, 283116, Note_on_c, 9, 40, 0
4, 283228, Note_on_c, 9, 40, 31
4, 283236, Note_on_c, 9, 44, 55
4, 283241, Note_on_c, 9, 39, 45
4, 283327, Note_on_c, 9, 39, 0
4, 283437, Note_on_c, 9, 44, 0
4, 283526, Note_on_c, 9, 39, 46
4, 283595, Note_on_c, 9, 39, 0
4, 283860, Note_on_c, 9, 38, 36
4, 283966, Note_on_c, 9, 38, 0
4, 284053, Note_on_c, 9, 40, 0
4, 284159, Note_on_c, 9, 46, 57
4, 284194, Note_on_c, 9, 40, 34
4, 284727, Note_on_c, 9, 40, 0
4, 284821, Note_on_c, 9, 38, 39
4, 284839, Note_on_c, 9, 40, 21
4, 284899, Note_on_c, 9, 38, 0
4, 285025, Note_on_c, 9, 40, 0
4, 285124, Note_on_c, 9, 40, 37
4, 285160, Note_on_c, 9, 45, 65
4, 285215, Note_on_c, 9, 45, 0
4, 285308, Note_on_c, 9, 46, 0
4, 285467, Note_on_c, 9, 39, 29
4, 285524, Note_on_c, 9, 39, 0
4, 285725, Note_on_c, 9, 39, 47
4, 285783, Note_on_c, 9, 39, 0
4, 285923, Note_on_c, 9, 40, 0
4, 286065, Note_on_c, 9, 40, 25
4, 286421, Note_on_c, 9, 38, 45
4, 286494, Note_on_c, 9, 38, 0
4, 286619, Note_on_c, 9, 40, 0
4, 286726, Note_on_c, 9, 40, 27
4, 286741, Note_on_c, 9, 38, 44
4, 286810, Note_on_c, 9, 38, 0
4, 286857, Note_on_c, 9, 40, 0
4, 286973, Note_on_c, 9, 40, 32
4, 287079, Note_on_c, 9, 39, 67
4, 287299, Note_on_c, 9, 39, 0
4, 287679, Note_on_c, 9, 38, 59
4, 287754, Note_on_c, 9, 40, 0
4, 287819, Note_on_c, 9, 38, 0
4, 287937, Note_on_c, 9, 40, 20
4, 288827, Note_on_c, 9, 40, 0
4, 288966, Note_on_c, 9, 44, 72
4, 288978, Note_on_c, 9, 40, 28
4, 289332, Note_on_c, 9, 44, 0
4, 289358, Note_on_c, 9, 40, 0
4, 289668, Note_on_c, 9, 40, 26
4, 289743, Note_on_c, 9, 40, 0
4, 289966, Note_on_c, 9, 46, 71
4, 289987, Note_on_c, 9, 40, 29
4, 290060, Note_on_c, 9, 40, 0
4, 290588, Note_on_c, 9, 40, 43
4, 290595, Note_on_c, 9, 53, 49
4, 290667, Note_on_c, 9, 40, 0
4, 290671, Note_on_c, 9, 53, 0
4, 290863, Note_on_c, 9, 46, 0
4, 290894, Note_on_c, 9, 40, 46
4, 290964, Note_on_c, 9, 53, 36
4, 291087, Note_on_c, 9, 53, 0
4, 291593, Note_on_c, 9, 40, 0
4, 291871, Note_on_c, 9, 40, 35
4, 291886, Note_on_c, 9, 44, 30
4, 291958, Note_on_c, 9, 44, 0
4, 292805, Note_on_c, 9, 44, 49
4, 292981, Note_on_c, 9, 44, 0
4, 293393, Note_on_c, 9, 40, 0
4, 293498, Note_on_c, 9, 40, 29
4, 293629, Note_on_c, 9, 40, 0
4, 293760, Note_on_c, 9, 40, 22
4, 293962, Note_on_c, 9, 40, 0
4, 294381, Note_on_c, 9, 40, 33
4, 294476, Note_on_c, 9, 40, 0
4, 294757, Note_on_c, 9, 40, 32
4, 294802, Note_on_c, 9, 39, 37
4, 294855, Note_on_c, 9, 39, 0
4, 295488, Note_on_c, 9, 40, 0
4, 295690, Note_on_c, 9, 40, 31
4, 297187, Note_on_c, 9, 40, 0
4, 297267, Note_on_c, 9, 40, 19
4, 297416, Note_on_c, 9, 40, 0
4, 297596, Note_on_c, 9, 40, 27
4, 297597, Note_on_c, 9, 44, 48
4, 297635, Note_on_c, 9, 39, 37
4, 297726, Note_on_c, 9, 44, 0
4, 297751, Note_on_c, 9, 39, 0
4, 297945, Note_on_c, 9, 39, 53
4, 297998, Note_on_c, 9, 39, 0
4, 298397, Note_on_c, 9, 40, 0
4, 298555, Note_on_c, 9, 46, 59
4, 298559, Note_on_c, 9, 40, 27
4, 298578, Note_on_c, 9, 39, 63
4, 298723, Note_on_c, 9, 39, 0
4, 299171, Note_on_c, 9, 39, 53
4, 299277, Note_on_c, 9, 39, 0
4, 299283, Note_on_c, 9, 46, 0
4, 299670, Note_on_c, 9, 40, 0
4, 299819, Note_on_c, 9, 39, 49
4, 299911, Note_on_c, 9, 39, 0
4, 299971, Note_on_c, 9, 40, 17
4, 300032, Note_on_c, 9, 40, 0
4, 300240, Note_on_c, 9, 40, 23
4, 300374, Note_on_c, 9, 40, 0
4, 300510, Note_on_c, 9, 44, 46
4, 300535, Note_on_c, 9, 39, 30
4, 300550, Note_on_c, 9, 40, 38
4, 300628, Note_on_c, 9, 44, 0
4, 300703, Note_on_c, 9, 39, 0
4, 301087, Note_on_c, 9, 39, 42
4, 301159, Note_on_c, 9, 40, 0
4, 301253, Note_on_c, 9, 39, 0
4, 301430, Note_on_c, 9, 40, 14
4, 301570, Note_on_c, 9, 40, 0
4, 301685, Note_on_c, 9, 40, 31
4, 301817, Note_on_c, 9, 40, 0
4, 302085, Note_on_c, 9, 40, 44
4, 302694, Note_on_c, 9, 40, 0
4, 302791, Note_on_c, 9, 40, 33
4, 302871, Note_on_c, 9, 40, 0
4, 303080, Note_on_c, 9, 40, 38
4, 303310, Note_on_c, 9, 40, 0
4, 303371, Note_on_c, 9, 44, 54
4, 303420, Note_on_c, 9, 40, 44
4, 303485, Note_on_c, 9, 44, 0
4, 304093, Note_on_c, 9, 40, 0
4, 304328, Note_on_c, 9, 46, 40
4, 304380, Note_on_c, 9, 40, 11
4, 304503, Note_on_c, 9, 40, 0
4, 304559, Note_on_c, 9, 46, 0
4, 304597, Note_on_c, 9, 40, 37
4, 304690, Note_on_c, 9, 40, 0
4, 304916, Note_on_c, 9, 40, 48
4, 305473, Note_on_c, 9, 40, 0
4, 305639, Note_on_c, 9, 47, 30
4, 305709, Note_on_c, 9, 47, 0
4, 305862, Note_on_c, 9, 40, 28
4, 305984, Note_on_c, 9, 40, 0
4, 306220, Note_on_c, 9, 40, 34
4, 306246, Note_on_c, 9, 47, 50
4, 306308, Note_on_c, 9, 47, 0
4, 306879, Note_on_c, 9, 47, 47
4, 306942, Note_on_c, 9, 47, 0
4, 306955, Note_on_c, 9, 40, 0
4, 307186, Note_on_c, 9, 44, 49
4, 307229, Note_on_c, 9, 40, 23
4, 307419, Note_on_c, 9, 44, 0
4, 307431, Note_on_c, 9, 45, 47
4, 307502, Note_on_c, 9, 45, 0
4, 307770, Note_on_c, 9, 39, 49
4, 307872, Note_on_c, 9, 39, 0
4, 307986, Note_on_c, 9, 40, 0
4, 308133, Note_on_c, 9, 39, 33
4, 308216, Note_on_c, 9, 39, 0
4, 308758, Note_on_c, 9, 40, 25
4, 308892, Note_on_c, 9, 40, 0
4, 309091, Note_on_c, 9, 40, 23
4, 309345, Note_on_c, 9, 44, 39
4, 309435, Note_on_c, 9, 44, 0
4, 309671, Note_on_c, 9, 44, 44
4, 309795, Note_on_c, 9, 44, 0
4, 309876, Note_on_c, 9, 40, 0
4, 310077, Note_on_c, 9, 40, 26
4, 311072, Note_on_c, 9, 39, 47
4, 311091, Note_on_c, 9, 59, 41
4, 311237, Note_on_c, 9, 59, 0
4, 311288, Note_on_c, 9, 39, 0
4, 311610, Note_on_c, 9, 40, 0
4, 311741, Note_on_c, 9, 40, 33
4, 311898, Note_on_c, 9, 40, 0
4, 312011, Note_on_c, 9, 44, 47
4, 312099, Note_on_c, 9, 40, 34
4, 312173, Note_on_c, 9, 44, 0
4, 312794, Note_on_c, 9, 40, 0
4, 313004, Note_on_c, 9, 40, 32
4, 314417, Note_on_c, 9, 40, 0
4, 314547, Note_on_c, 9, 40, 26
4, 314612, Note_on_c, 9, 39, 35
4, 314634, Note_on_c, 9, 40, 0
4, 314670, Note_on_c, 9, 39, 0
4, 314879, Note_on_c, 9, 44, 45
4, 314889, Note_on_c, 9, 40, 38
4, 314937, Note_on_c, 9, 39, 34
4, 314971, Note_on_c, 9, 44, 0
4, 315001, Note_on_c, 9, 39, 0
4, 315690, Note_on_c, 9, 40, 0
4, 315851, Note_on_c, 9, 39, 42
4, 315864, Note_on_c, 9, 46, 49
4, 315886, Note_on_c, 9, 40, 33
4, 315966, Note_on_c, 9, 39, 0
4, 316078, Note_on_c, 9, 46, 0
4, 316480, Note_on_c, 9, 36, 53
4, 316569, Note_on_c, 9, 36, 0
4, 317319, Note_on_c, 9, 40, 0
4, 317396, Note_on_c, 9, 40, 33
4, 317551, Note_on_c, 9, 40, 0
4, 317788, Note_on_c, 9, 40, 37
4, 318370, Note_on_c, 9, 39, 39
4, 318467, Note_on_c, 9, 39, 0
4, 318503, Note_on_c, 9, 40, 0
4, 318664, Note_on_c, 9, 44, 45
4, 318707, Note_on_c, 9, 40, 34
4, 318715, Note_on_c, 9, 39, 31
4, 318747, Note_on_c, 9, 44, 0
4, 319169, Note_on_c, 9, 39, 0
4, 319208, Note_on_c, 9, 44, 47
4, 319281, Note_on_c, 9, 44, 0
4, 319310, Note_on_c, 9, 36, 46
4, 319392, Note_on_c, 9, 36, 0
4, 319612, Note_on_c, 9, 40, 0
4, 319646, Note_on_c, 9, 40, 18
4, 319826, Note_on_c, 9, 40, 0
4, 319944, Note_on_c, 9, 40, 29
4, 320051, Note_on_c, 9, 40, 0
4, 320112, Note_on_c, 9, 44, 42
4, 320232, Note_on_c, 9, 44, 0
4, 320275, Note_on_c, 9, 40, 39
4, 320623, Note_on_c, 9, 44, 43
4, 320722, Note_on_c, 9, 44, 0
4, 320882, Note_on_c, 9, 40, 0
4, 320997, Note_on_c, 9, 40, 20
4, 321063, Note_on_c, 9, 40, 0
4, 321253, Note_on_c, 9, 40, 27
4, 321377, Note_on_c, 9, 40, 0
4, 321529, Note_on_c, 9, 44, 52
4, 321547, Note_on_c, 9, 39, 38
4, 321572, Note_on_c, 9, 40, 36
4, 321617, Note_on_c, 9, 39, 0
4, 321629, Note_on_c, 9, 44, 0
4, 321847, Note_on_c, 9, 39, 34
4, 321917, Note_on_c, 9, 39, 0
4, 322072, Note_on_c, 9, 44, 46
4, 322147, Note_on_c, 9, 36, 34
4, 322200, Note_on_c, 9, 44, 0
4, 322322, Note_on_c, 9, 40, 0
4, 322339, Note_on_c, 9, 36, 0
4, 322511, Note_on_c, 9, 40, 22
4, 322761, Note_on_c, 9, 39, 37
4, 322898, Note_on_c, 9, 39, 0
4, 323074, Note_on_c, 9, 39, 39
4, 323077, Note_on_c, 9, 44, 42
4, 323128, Note_on_c, 9, 39, 0
4, 323138, Note_on_c, 9, 44, 0
4, 323332, Note_on_c, 9, 40, 0
4, 323448, Note_on_c, 9, 36, 31
4, 323564, Note_on_c, 9, 40, 24
4, 323582, Note_on_c, 9, 44, 43
4, 323651, Note_on_c, 9, 36, 0
4, 323677, Note_on_c, 9, 44, 0
4, 324418, Note_on_c, 9, 39, 40
4, 324466, Note_on_c, 9, 46, 53
4, 324543, Note_on_c, 9, 39, 0
4, 324614, Note_on_c, 9, 46, 0
4, 324718, Note_on_c, 9, 39, 46
4, 324781, Note_on_c, 9, 39, 0
4, 324893, Note_on_c, 9, 40, 0
4, 325036, Note_on_c, 9, 36, 48
4, 325075, Note_on_c, 9, 40, 23
4, 325220, Note_on_c, 9, 36, 0
4, 325256, Note_on_c, 9, 40, 0
4, 325399, Note_on_c, 9, 40, 23
4, 325711, Note_on_c, 9, 39, 36
4, 325817, Note_on_c, 9, 39, 0
4, 325996, Note_on_c, 9, 39, 54
4, 326045, Note_on_c, 9, 40, 0
4, 326088, Note_on_c, 9, 39, 0
4, 326303, Note_on_c, 9, 40, 23
4, 326335, Note_on_c, 9, 44, 45
4, 326346, Note_on_c, 9, 36, 54
4, 326482, Note_on_c, 9, 44, 0
4, 326510, Note_on_c, 9, 36, 0
4, 326918, Note_on_c, 9, 44, 38
4, 327046, Note_on_c, 9, 44, 0
4, 327065, Note_on_c, 9, 39, 59
4, 327174, Note_on_c, 9, 39, 0
4, 327634, Note_on_c, 9, 46, 33
4, 327744, Note_on_c, 9, 39, 36
4, 327806, Note_on_c, 9, 46, 0
4, 327812, Note_on_c, 9, 39, 0
4, 327885, Note_on_c, 9, 40, 0
4, 328016, Note_on_c, 9, 40, 19
4, 328032, Note_on_c, 9, 39, 36
4, 328194, Note_on_c, 9, 39, 0
4, 328209, Note_on_c, 9, 40, 0
4, 328363, Note_on_c, 9, 40, 21
4, 328374, Note_on_c, 9, 36, 49
4, 328502, Note_on_c, 9, 36, 0
4, 328983, Note_on_c, 9, 40, 0
4, 329212, Note_on_c, 9, 44, 39
4, 329277, Note_on_c, 9, 40, 21
4, 329313, Note_on_c, 9, 39, 34
4, 329318, Note_on_c, 9, 53, 44
4, 329374, Note_on_c, 9, 44, 0
4, 329393, Note_on_c, 9, 53, 0
4, 329440, Note_on_c, 9, 39, 0
4, 329612, Note_on_c, 9, 53, 34
4, 329680, Note_on_c, 9, 53, 0
4, 329951, Note_on_c, 9, 36, 47
4, 330101, Note_on_c, 9, 36, 0
4, 330590, Note_on_c, 9, 59, 54
4, 330687, Note_on_c, 9, 40, 0
4, 330730, Note_on_c, 9, 59, 0
4, 330839, Note_on_c, 9, 59, 64
4, 330863, Note_on_c, 9, 40, 32
4, 330977, Note_on_c, 9, 59, 0
4, 331183, Note_on_c, 9, 36, 33
4, 331295, Note_on_c, 9, 36, 0
4, 331349, Note_on_c, 9, 40, 0
4, 331693, Note_on_c, 9, 40, 3
4, 331921, Note_on_c, 9, 40, 0
4, 332152, Note_on_c, 9, 44, 45
4, 332192, Note_on_c, 9, 40, 25
4, 332249, Note_on_c, 9, 44, 0
4, 332855, Note_on_c, 9, 40, 0
4, 333158, Note_on_c, 9, 46, 57
4, 333188, Note_on_c, 9, 40, 28
4, 333448, Note_on_c, 9, 46, 0
4, 334595, Note_on_c, 9, 40, 0
4, 334730, Note_on_c, 9, 40, 23
4, 334852, Note_on_c, 9, 40, 0
4, 335065, Note_on_c, 9, 40, 25
4, 335067, Note_on_c, 9, 44, 45
4, 335124, Note_on_c, 9, 39, 29
4, 335189, Note_on_c, 9, 44, 0
4, 335233, Note_on_c, 9, 39, 0
4, 335791, Note_on_c, 9, 40, 0
4, 336023, Note_on_c, 9, 40, 23
4, 336054, Note_on_c, 9, 46, 55
4, 336210, Note_on_c, 9, 46, 0
4, 336643, Note_on_c, 9, 40, 0
4, 336678, Note_on_c, 9, 39, 51
4, 336777, Note_on_c, 9, 39, 0
4, 337000, Note_on_c, 9, 40, 21
4, 337788, Note_on_c, 9, 40, 0
4, 337920, Note_on_c, 9, 40, 25
4, 337940, Note_on_c, 9, 44, 39
4, 338017, Note_on_c, 9, 44, 0
4, 338631, Note_on_c, 9, 40, 0
4, 338887, Note_on_c, 9, 40, 26
4, 338931, Note_on_c, 9, 46, 55
4, 339144, Note_on_c, 9, 46, 0
4, 339375, Note_on_c, 9, 40, 0
4, 339561, Note_on_c, 9, 40, 22
4, 339647, Note_on_c, 9, 40, 0
4, 340264, Note_on_c, 9, 40, 33
4, 340363, Note_on_c, 9, 40, 0
4, 340481, Note_on_c, 9, 39, 39
4, 340518, Note_on_c, 9, 40, 29
4, 340564, Note_on_c, 9, 39, 0
4, 340735, Note_on_c, 9, 40, 0
4, 340755, Note_on_c, 9, 44, 52
4, 340832, Note_on_c, 9, 39, 43
4, 340832, Note_on_c, 9, 40, 34
4, 340860, Note_on_c, 9, 44, 0
4, 341392, Note_on_c, 9, 39, 0
4, 341427, Note_on_c, 9, 36, 40
4, 341520, Note_on_c, 9, 36, 0
4, 341589, Note_on_c, 9, 40, 0
4, 341797, Note_on_c, 9, 40, 31
4, 342009, Note_on_c, 9, 40, 0
4, 342434, Note_on_c, 9, 40, 25
4, 342543, Note_on_c, 9, 40, 0
4, 342741, Note_on_c, 9, 40, 30
4, 343346, Note_on_c, 9, 39, 46
4, 343480, Note_on_c, 9, 39, 0
4, 343504, Note_on_c, 9, 40, 0
4, 343639, Note_on_c, 9, 40, 23
4, 343644, Note_on_c, 9, 44, 53
4, 343700, Note_on_c, 9, 39, 35
4, 343771, Note_on_c, 9, 44, 0
4, 343792, Note_on_c, 9, 39, 0
4, 344020, Note_on_c, 9, 36, 24
4, 344089, Note_on_c, 9, 36, 0
4, 344498, Note_on_c, 9, 40, 0
4, 344624, Note_on_c, 9, 44, 51
4, 344647, Note_on_c, 9, 40, 22
4, 344667, Note_on_c, 9, 36, 25
4, 344767, Note_on_c, 9, 44, 0
4, 345089, Note_on_c, 9, 36, 0
4, 345319, Note_on_c, 9, 36, 30
4, 345419, Note_on_c, 9, 36, 0
4, 346104, Note_on_c, 9, 40, 0
4, 346253, Note_on_c, 9, 40, 19
4, 346286, Note_on_c, 9, 39, 43
4, 346350, Note_on_c, 9, 39, 0
4, 346362, Note_on_c, 9, 40, 0
4, 346547, Note_on_c, 9, 46, 46
4, 346589, Note_on_c, 9, 40, 21
4, 346635, Note_on_c, 9, 39, 47
4, 346690, Note_on_c, 9, 40, 0
4, 346701, Note_on_c, 9, 39, 0
4, 346726, Note_on_c, 9, 46, 0
4, 347153, Note_on_c, 9, 40, 30
4, 347210, Note_on_c, 9, 39, 30
4, 347265, Note_on_c, 9, 40, 0
4, 347317, Note_on_c, 9, 39, 0
4, 347748, Note_on_c, 9, 40, 27
4, 347932, Note_on_c, 9, 40, 0
4, 348453, Note_on_c, 9, 40, 23
4, 348960, Note_on_c, 9, 40, 0
4, 349153, Note_on_c, 9, 40, 15
4, 349342, Note_on_c, 9, 40, 0
4, 349392, Note_on_c, 9, 44, 47
4, 349459, Note_on_c, 9, 44, 0
4, 349695, Note_on_c, 9, 40, 17
4, 350035, Note_on_c, 9, 40, 0
4, 350357, Note_on_c, 9, 40, 17
4, 350602, Note_on_c, 9, 40, 0
4, 351020, Note_on_c, 9, 40, 21
4, 356637, Note_on_c, 9, 40, 0
4, 356637, End_track
0, 0, End_of_file
