0, 0, Header, 1, 3, 120
1, 0, Start_track
1, 0, Title_t, "Mood Indigo"
1, 0, Text_t, "Doug McKenzie (dougmck@pipeline.com.au)\012"
1, 0, Time_signature, 4, 2, 24, 8
1, 0, Key_signature, -2, "major"
1, 0, Tempo, 500000
1, 0, End_track
2, 0, Start_track
2, 0, Title_t, "dougmck@pipeline.com.au"
2, 0, Program_c, 0, 0
2, 0, Control_c, 0, 64, 127
2, 0, Control_c, 0, 64, 0
2, 0, Control_c, 0, 64, 127
2, 0, Control_c, 0, 64, 0
2, 0, Note_on_c, 0, 62, 44
2, 0, Note_on_c, 0, 67, 44
2, 0, Note_on_c, 0, 52, 41
2, 0, Note_on_c, 0, 70, 47
2, 38, Control_c, 0, 64, 127
2, 69, Note_on_c, 0, 70, 0
2, 82, Note_on_c, 0, 72, 64
2, 110, Note_on_c, 0, 72, 0
2, 113, Control_c, 0, 64, 0
2, 116, Note_on_c, 0, 67, 0
2, 123, Note_on_c, 0, 62, 0
2, 127, Note_on_c, 0, 52, 0
2, 127, Note_on_c, 0, 70, 46
2, 167, Note_on_c, 0, 70, 0
2, 200, Note_on_c, 0, 70, 50
2, 201, Note_on_c, 0, 61, 38
2, 203, Note_on_c, 0, 51, 38
2, 207, Note_on_c, 0, 66, 35
2, 278, Control_c, 0, 64, 127
2, 424, Note_on_c, 0, 70, 0
2, 444, Note_on_c, 0, 70, 62
2, 460, Note_on_c, 0, 61, 0
2, 465, Note_on_c, 0, 66, 0
2, 476, Note_on_c, 0, 70, 0
2, 480, Note_on_c, 0, 51, 0
2, 487, Control_c, 0, 64, 0
2, 490, Note_on_c, 0, 70, 34
2, 495, Note_on_c, 0, 60, 40
2, 496, Note_on_c, 0, 65, 60
2, 499, Note_on_c, 0, 50, 49
2, 531, Control_c, 0, 64, 127
2, 641, Note_on_c, 0, 65, 0
2, 644, Note_on_c, 0, 60, 0
2, 670, Note_on_c, 0, 50, 0
2, 673, Note_on_c, 0, 70, 0
2, 803, Note_on_c, 0, 61, 58
2, 805, Note_on_c, 0, 70, 44
2, 806, Note_on_c, 0, 64, 48
2, 806, Note_on_c, 0, 67, 41
2, 806, Note_on_c, 0, 58, 36
2, 809, Control_c, 0, 64, 0
2, 811, Note_on_c, 0, 49, 30
2, 853, Control_c, 0, 64, 127
2, 885, Note_on_c, 0, 64, 0
2, 886, Note_on_c, 0, 67, 0
2, 886, Note_on_c, 0, 61, 0
2, 891, Note_on_c, 0, 58, 0
2, 898, Note_on_c, 0, 49, 0
2, 909, Note_on_c, 0, 70, 0
2, 954, Control_c, 0, 64, 0
2, 964, Note_on_c, 0, 63, 37
2, 964, Note_on_c, 0, 70, 43
2, 964, Note_on_c, 0, 62, 47
2, 965, Note_on_c, 0, 58, 30
2, 965, Note_on_c, 0, 48, 36
2, 968, Note_on_c, 0, 67, 38
2, 979, Note_on_c, 0, 62, 0
2, 982, Note_on_c, 0, 63, 0
2, 982, Note_on_c, 0, 67, 0
2, 984, Note_on_c, 0, 70, 0
2, 984, Note_on_c, 0, 58, 0
2, 984, Note_on_c, 0, 48, 0
2, 1043, Note_on_c, 0, 70, 48
2, 1043, Note_on_c, 0, 63, 45
2, 1044, Note_on_c, 0, 67, 36
2, 1045, Note_on_c, 0, 62, 47
2, 1045, Note_on_c, 0, 58, 31
2, 1046, Note_on_c, 0, 48, 36
2, 1052, Note_on_c, 0, 62, 0
2, 1057, Note_on_c, 0, 63, 0
2, 1057, Note_on_c, 0, 48, 0
2, 1058, Note_on_c, 0, 67, 0
2, 1059, Note_on_c, 0, 58, 0
2, 1062, Note_on_c, 0, 70, 0
2, 1093, Note_on_c, 0, 58, 36
2, 1094, Note_on_c, 0, 70, 34
2, 1096, Note_on_c, 0, 62, 39
2, 1096, Note_on_c, 0, 63, 35
2, 1097, Note_on_c, 0, 48, 31
2, 1100, Note_on_c, 0, 67, 39
2, 1104, Note_on_c, 0, 62, 0
2, 1106, Note_on_c, 0, 48, 0
2, 1108, Note_on_c, 0, 63, 0
2, 1108, Note_on_c, 0, 58, 0
2, 1108, Note_on_c, 0, 67, 0
2, 1108, Note_on_c, 0, 70, 0
2, 1158, Note_on_c, 0, 48, 34
2, 1158, Note_on_c, 0, 70, 64
2, 1160, Note_on_c, 0, 63, 52
2, 1162, Note_on_c, 0, 62, 56
2, 1164, Note_on_c, 0, 67, 32
2, 1168, Note_on_c, 0, 48, 0
2, 1169, Control_c, 0, 64, 127
2, 1171, Note_on_c, 0, 62, 0
2, 1172, Note_on_c, 0, 67, 0
2, 1178, Note_on_c, 0, 63, 0
2, 1180, Note_on_c, 0, 70, 0
2, 1193, Control_c, 0, 64, 0
2, 1211, Note_on_c, 0, 57, 39
2, 1212, Note_on_c, 0, 68, 46
2, 1212, Note_on_c, 0, 61, 37
2, 1214, Note_on_c, 0, 65, 53
2, 1216, Note_on_c, 0, 51, 31
2, 1222, Note_on_c, 0, 47, 36
2, 1224, Note_on_c, 0, 65, 0
2, 1227, Note_on_c, 0, 61, 0
2, 1231, Note_on_c, 0, 47, 0
2, 1232, Note_on_c, 0, 57, 0
2, 1233, Note_on_c, 0, 68, 0
2, 1236, Note_on_c, 0, 51, 0
2, 1289, Note_on_c, 0, 61, 58
2, 1292, Note_on_c, 0, 51, 35
2, 1292, Note_on_c, 0, 57, 40
2, 1293, Note_on_c, 0, 65, 66
2, 1296, Note_on_c, 0, 68, 35
2, 1302, Note_on_c, 0, 47, 32
2, 1326, Control_c, 0, 64, 127
2, 1433, Note_on_c, 0, 57, 0
2, 1440, Note_on_c, 0, 47, 0
2, 1446, Note_on_c, 0, 51, 0
2, 1554, Note_on_c, 0, 61, 0
2, 1554, Note_on_c, 0, 65, 0
2, 1559, Note_on_c, 0, 41, 87
2, 1559, Note_on_c, 0, 29, 80
2, 1563, Note_on_c, 0, 68, 0
2, 1667, Note_on_c, 0, 29, 0
2, 1680, Note_on_c, 0, 41, 0
2, 1915, Control_c, 0, 64, 0
2, 1920, Note_on_c, 0, 74, 37
2, 1921, Note_on_c, 0, 58, 39
2, 1922, Note_on_c, 0, 86, 41
2, 1924, Note_on_c, 0, 50, 44
2, 1950, Note_on_c, 0, 50, 0
2, 1953, Control_c, 0, 64, 127
2, 1964, Note_on_c, 0, 58, 0
2, 1978, Control_c, 0, 64, 0
2, 1985, Note_on_c, 0, 86, 0
2, 1987, Note_on_c, 0, 74, 0
2, 2041, Note_on_c, 0, 62, 28
2, 2046, Note_on_c, 0, 58, 31
2, 2065, Note_on_c, 0, 62, 0
2, 2075, Note_on_c, 0, 58, 0
2, 2158, Note_on_c, 0, 58, 35
2, 2160, Note_on_c, 0, 50, 44
2, 2165, Note_on_c, 0, 85, 54
2, 2166, Note_on_c, 0, 73, 30
2, 2178, Note_on_c, 0, 58, 0
2, 2182, Note_on_c, 0, 50, 0
2, 2207, Control_c, 0, 64, 127
2, 2230, Note_on_c, 0, 73, 0
2, 2231, Note_on_c, 0, 85, 0
2, 2244, Note_on_c, 0, 74, 57
2, 2249, Note_on_c, 0, 86, 37
2, 2274, Note_on_c, 0, 86, 0
2, 2275, Note_on_c, 0, 37, 36
2, 2276, Note_on_c, 0, 49, 27
2, 2280, Note_on_c, 0, 74, 0
2, 2282, Control_c, 0, 64, 0
2, 2304, Note_on_c, 0, 49, 0
2, 2313, Note_on_c, 0, 37, 0
2, 2350, Control_c, 0, 64, 127
2, 2357, Note_on_c, 0, 36, 55
2, 2377, Note_on_c, 0, 43, 40
2, 2378, Note_on_c, 0, 36, 0
2, 2395, Control_c, 0, 64, 0
2, 2400, Note_on_c, 0, 52, 34
2, 2402, Note_on_c, 0, 74, 41
2, 2404, Note_on_c, 0, 86, 39
2, 2406, Note_on_c, 0, 79, 38
2, 2421, Note_on_c, 0, 43, 0
2, 2427, Control_c, 0, 64, 127
2, 2443, Note_on_c, 0, 52, 0
2, 2475, Note_on_c, 0, 79, 0
2, 2477, Note_on_c, 0, 74, 0
2, 2480, Note_on_c, 0, 86, 0
2, 2518, Control_c, 0, 64, 0
2, 2520, Note_on_c, 0, 62, 49
2, 2523, Note_on_c, 0, 58, 44
2, 2524, Note_on_c, 0, 52, 36
2, 2533, Note_on_c, 0, 62, 0
2, 2539, Note_on_c, 0, 58, 0
2, 2542, Note_on_c, 0, 52, 0
2, 2585, Control_c, 0, 64, 127
2, 2602, Note_on_c, 0, 54, 30
2, 2612, Note_on_c, 0, 54, 0
2, 2635, Control_c, 0, 64, 0
2, 2642, Note_on_c, 0, 38, 40
2, 2643, Note_on_c, 0, 53, 60
2, 2711, Note_on_c, 0, 38, 0
2, 2715, Note_on_c, 0, 53, 0
2, 2718, Note_on_c, 0, 39, 36
2, 2721, Note_on_c, 0, 54, 38
2, 2730, Control_c, 0, 64, 127
2, 2738, Control_c, 0, 64, 0
2, 2753, Note_on_c, 0, 54, 0
2, 2757, Note_on_c, 0, 39, 0
2, 2762, Note_on_c, 0, 55, 51
2, 2762, Note_on_c, 0, 40, 38
2, 2779, Control_c, 0, 64, 127
2, 2790, Note_on_c, 0, 40, 0
2, 2862, Note_on_c, 0, 55, 0
2, 2872, Control_c, 0, 64, 0
2, 2883, Note_on_c, 0, 41, 50
2, 2892, Note_on_c, 0, 41, 0
2, 2894, Control_c, 0, 64, 127
2, 3008, Note_on_c, 0, 68, 84
2, 3008, Control_c, 0, 64, 0
2, 3008, Note_on_c, 0, 77, 80
2, 3008, Note_on_c, 0, 72, 82
2, 3011, Note_on_c, 0, 65, 55
2, 3031, Note_on_c, 0, 65, 0
2, 3038, Control_c, 0, 64, 127
2, 3057, Note_on_c, 0, 72, 0
2, 3063, Note_on_c, 0, 77, 0
2, 3070, Note_on_c, 0, 68, 0
2, 3129, Control_c, 0, 64, 0
2, 3129, Note_on_c, 0, 73, 34
2, 3129, Note_on_c, 0, 61, 35
2, 3130, Note_on_c, 0, 69, 51
2, 3132, Note_on_c, 0, 65, 40
2, 3157, Control_c, 0, 64, 127
2, 3173, Note_on_c, 0, 61, 0
2, 3178, Note_on_c, 0, 69, 0
2, 3184, Note_on_c, 0, 73, 0
2, 3189, Note_on_c, 0, 65, 0
2, 3243, Note_on_c, 0, 66, 39
2, 3243, Control_c, 0, 64, 0
2, 3246, Note_on_c, 0, 62, 29
2, 3246, Note_on_c, 0, 51, 33
2, 3247, Note_on_c, 0, 57, 29
2, 3277, Control_c, 0, 64, 127
2, 3298, Note_on_c, 0, 57, 0
2, 3311, Note_on_c, 0, 62, 0
2, 3332, Note_on_c, 0, 66, 0
2, 3363, Note_on_c, 0, 51, 0
2, 3369, Control_c, 0, 64, 0
2, 3370, Note_on_c, 0, 55, 38
2, 3370, Note_on_c, 0, 65, 49
2, 3374, Note_on_c, 0, 60, 27
2, 3410, Note_on_c, 0, 55, 0
2, 3410, Control_c, 0, 64, 127
2, 3448, Note_on_c, 0, 41, 80
2, 3453, Note_on_c, 0, 60, 0
2, 3460, Note_on_c, 0, 65, 0
2, 3468, Control_c, 0, 64, 0
2, 3521, Control_c, 0, 64, 127
2, 3634, Note_on_c, 0, 41, 0
2, 3676, Note_on_c, 0, 41, 51
2, 3691, Note_on_c, 0, 41, 0
2, 3721, Note_on_c, 0, 77, 85
2, 3773, Note_on_c, 0, 77, 0
2, 3799, Note_on_c, 0, 77, 62
2, 3835, Control_c, 0, 64, 0
2, 3837, Note_on_c, 0, 65, 30
2, 3839, Note_on_c, 0, 62, 24
2, 3841, Note_on_c, 0, 60, 30
2, 3869, Control_c, 0, 64, 127
2, 3884, Note_on_c, 0, 65, 0
2, 3925, Note_on_c, 0, 53, 36
2, 3940, Control_c, 0, 64, 0
2, 3960, Control_c, 0, 64, 127
2, 3973, Note_on_c, 0, 62, 0
2, 3976, Note_on_c, 0, 60, 0
2, 4025, Note_on_c, 0, 77, 0
2, 4044, Note_on_c, 0, 73, 33
2, 4049, Note_on_c, 0, 60, 27
2, 4050, Note_on_c, 0, 65, 30
2, 4051, Note_on_c, 0, 62, 24
2, 4063, Control_c, 0, 64, 0
2, 4076, Note_on_c, 0, 65, 0
2, 4085, Note_on_c, 0, 62, 0
2, 4088, Note_on_c, 0, 60, 0
2, 4090, Control_c, 0, 64, 127
2, 4098, Note_on_c, 0, 53, 0
2, 4154, Note_on_c, 0, 73, 0
2, 4167, Note_on_c, 0, 74, 55
2, 4190, Control_c, 0, 64, 0
2, 4201, Note_on_c, 0, 49, 21
2, 4201, Note_on_c, 0, 59, 15
2, 4262, Note_on_c, 0, 59, 0
2, 4266, Control_c, 0, 64, 127
2, 4287, Note_on_c, 0, 74, 0
2, 4288, Note_on_c, 0, 49, 0
2, 4290, Note_on_c, 0, 55, 28
2, 4312, Note_on_c, 0, 55, 0
2, 4320, Note_on_c, 0, 74, 44
2, 4320, Control_c, 0, 64, 0
2, 4321, Note_on_c, 0, 67, 44
2, 4322, Note_on_c, 0, 70, 35
2, 4322, Note_on_c, 0, 62, 38
2, 4323, Note_on_c, 0, 48, 43
2, 4323, Note_on_c, 0, 58, 31
2, 4379, Control_c, 0, 64, 127
2, 4394, Note_on_c, 0, 67, 0
2, 4405, Note_on_c, 0, 62, 0
2, 4411, Note_on_c, 0, 58, 0
2, 4419, Note_on_c, 0, 48, 0
2, 4429, Note_on_c, 0, 70, 0
2, 4444, Note_on_c, 0, 66, 38
2, 4444, Control_c, 0, 64, 0
2, 4445, Note_on_c, 0, 62, 38
2, 4446, Note_on_c, 0, 58, 30
2, 4449, Note_on_c, 0, 50, 32
2, 4498, Control_c, 0, 64, 127
2, 4513, Note_on_c, 0, 62, 0
2, 4520, Note_on_c, 0, 58, 0
2, 4539, Note_on_c, 0, 66, 0
2, 4552, Note_on_c, 0, 50, 0
2, 4559, Control_c, 0, 64, 0
2, 4561, Note_on_c, 0, 64, 36
2, 4562, Note_on_c, 0, 67, 29
2, 4564, Note_on_c, 0, 58, 20
2, 4565, Note_on_c, 0, 52, 37
2, 4584, Note_on_c, 0, 74, 0
2, 4584, Control_c, 0, 64, 127
2, 4596, Note_on_c, 0, 67, 0
2, 4597, Note_on_c, 0, 58, 0
2, 4600, Note_on_c, 0, 52, 0
2, 4610, Note_on_c, 0, 64, 0
2, 4675, Control_c, 0, 64, 0
2, 4678, Note_on_c, 0, 48, 32
2, 4679, Note_on_c, 0, 64, 34
2, 4680, Note_on_c, 0, 58, 31
2, 4698, Note_on_c, 0, 48, 0
2, 4703, Control_c, 0, 64, 127
2, 4737, Note_on_c, 0, 58, 0
2, 4752, Note_on_c, 0, 64, 0
2, 4785, Control_c, 0, 64, 0
2, 4789, Note_on_c, 0, 30, 48
2, 4792, Note_on_c, 0, 42, 36
2, 4810, Note_on_c, 0, 30, 0
2, 4812, Control_c, 0, 64, 127
2, 4819, Note_on_c, 0, 42, 0
2, 4875, Note_on_c, 0, 85, 77
2, 4877, Note_on_c, 0, 70, 72
2, 4901, Note_on_c, 0, 70, 0
2, 4903, Note_on_c, 0, 85, 0
2, 4910, Note_on_c, 0, 63, 42
2, 4917, Control_c, 0, 64, 0
2, 4918, Note_on_c, 0, 58, 34
2, 4921, Note_on_c, 0, 63, 0
2, 4927, Note_on_c, 0, 85, 43
2, 4930, Note_on_c, 0, 70, 31
2, 4935, Note_on_c, 0, 58, 0
2, 4962, Note_on_c, 0, 70, 0
2, 4968, Note_on_c, 0, 85, 0
2, 4990, Control_c, 0, 64, 127
2, 4997, Note_on_c, 0, 82, 47
2, 5018, Note_on_c, 0, 82, 0
2, 5022, Control_c, 0, 64, 0
2, 5033, Note_on_c, 0, 85, 58
2, 5036, Note_on_c, 0, 70, 46
2, 5037, Note_on_c, 0, 42, 27
2, 5037, Note_on_c, 0, 52, 30
2, 5088, Control_c, 0, 64, 127
2, 5093, Note_on_c, 0, 70, 0
2, 5095, Note_on_c, 0, 52, 0
2, 5098, Note_on_c, 0, 42, 0
2, 5098, Note_on_c, 0, 85, 0
2, 5114, Note_on_c, 0, 85, 55
2, 5116, Note_on_c, 0, 70, 56
2, 5129, Note_on_c, 0, 70, 0
2, 5134, Note_on_c, 0, 85, 0
2, 5150, Control_c, 0, 64, 0
2, 5152, Note_on_c, 0, 42, 49
2, 5156, Note_on_c, 0, 52, 28
2, 5199, Note_on_c, 0, 52, 0
2, 5216, Note_on_c, 0, 42, 0
2, 5230, Control_c, 0, 64, 127
2, 5238, Note_on_c, 0, 41, 81
2, 5267, Control_c, 0, 64, 0
2, 5282, Note_on_c, 0, 51, 52
2, 5291, Control_c, 0, 64, 127
2, 5292, Note_on_c, 0, 41, 0
2, 5303, Note_on_c, 0, 51, 0
2, 5365, Note_on_c, 0, 81, 73
2, 5365, Note_on_c, 0, 77, 74
2, 5365, Note_on_c, 0, 69, 74
2, 5369, Note_on_c, 0, 67, 73
2, 5371, Note_on_c, 0, 57, 66
2, 5373, Note_on_c, 0, 63, 57
2, 5374, Note_on_c, 0, 79, 30
2, 5378, Control_c, 0, 64, 0
2, 5381, Note_on_c, 0, 79, 0
2, 5413, Control_c, 0, 64, 127
2, 5415, Note_on_c, 0, 67, 0
2, 5422, Note_on_c, 0, 81, 0
2, 5426, Note_on_c, 0, 63, 0
2, 5429, Note_on_c, 0, 77, 0
2, 5432, Note_on_c, 0, 57, 0
2, 5432, Note_on_c, 0, 69, 0
2, 5525, Note_on_c, 0, 43, 31
2, 5528, Control_c, 0, 64, 0
2, 5529, Note_on_c, 0, 58, 50
2, 5594, Note_on_c, 0, 43, 0
2, 5598, Note_on_c, 0, 58, 0
2, 5598, Control_c, 0, 64, 127
2, 5605, Note_on_c, 0, 44, 32
2, 5607, Note_on_c, 0, 59, 36
2, 5631, Control_c, 0, 64, 0
2, 5636, Note_on_c, 0, 59, 0
2, 5643, Note_on_c, 0, 44, 0
2, 5646, Note_on_c, 0, 45, 38
2, 5646, Note_on_c, 0, 60, 61
2, 5655, Control_c, 0, 64, 127
2, 5713, Note_on_c, 0, 60, 0
2, 5714, Control_c, 0, 64, 0
2, 5725, Note_on_c, 0, 45, 0
2, 5728, Note_on_c, 0, 62, 58
2, 5734, Note_on_c, 0, 53, 36
2, 5746, Note_on_c, 0, 46, 28
2, 5750, Note_on_c, 0, 53, 0
2, 5757, Control_c, 0, 64, 127
2, 5764, Note_on_c, 0, 62, 0
2, 5775, Note_on_c, 0, 46, 0
2, 5843, Note_on_c, 0, 70, 64
2, 5845, Note_on_c, 0, 65, 69
2, 5845, Note_on_c, 0, 55, 63
2, 5846, Note_on_c, 0, 60, 51
2, 5871, Note_on_c, 0, 70, 0
2, 5872, Note_on_c, 0, 65, 0
2, 5873, Note_on_c, 0, 60, 0
2, 5876, Control_c, 0, 64, 0
2, 5877, Note_on_c, 0, 55, 0
2, 5893, Note_on_c, 0, 69, 43
2, 5895, Note_on_c, 0, 54, 31
2, 5904, Note_on_c, 0, 59, 17
2, 5911, Note_on_c, 0, 64, 12
2, 5916, Note_on_c, 0, 69, 0
2, 5926, Note_on_c, 0, 59, 0
2, 5930, Note_on_c, 0, 64, 0
2, 5943, Control_c, 0, 64, 127
2, 5965, Note_on_c, 0, 70, 57
2, 5968, Note_on_c, 0, 65, 57
2, 5969, Note_on_c, 0, 54, 0
2, 5970, Note_on_c, 0, 55, 47
2, 5971, Note_on_c, 0, 60, 39
2, 5979, Control_c, 0, 64, 0
2, 6009, Control_c, 0, 64, 127
2, 6083, Note_on_c, 0, 65, 0
2, 6090, Note_on_c, 0, 60, 0
2, 6104, Note_on_c, 0, 70, 0
2, 6107, Note_on_c, 0, 55, 0
2, 6115, Control_c, 0, 64, 0
2, 6123, Note_on_c, 0, 54, 34
2, 6125, Note_on_c, 0, 69, 48
2, 6128, Note_on_c, 0, 64, 37
2, 6135, Note_on_c, 0, 60, 11
2, 6143, Control_c, 0, 64, 127
2, 6171, Note_on_c, 0, 64, 0
2, 6179, Note_on_c, 0, 60, 0
2, 6183, Note_on_c, 0, 69, 0
2, 6193, Note_on_c, 0, 54, 0
2, 6225, Control_c, 0, 64, 0
2, 6235, Note_on_c, 0, 68, 45
2, 6238, Note_on_c, 0, 46, 33
2, 6241, Note_on_c, 0, 63, 28
2, 6242, Note_on_c, 0, 56, 20
2, 6243, Note_on_c, 0, 60, 24
2, 6248, Control_c, 0, 64, 127
2, 6258, Note_on_c, 0, 46, 0
2, 6266, Note_on_c, 0, 60, 0
2, 6270, Note_on_c, 0, 56, 0
2, 6273, Note_on_c, 0, 63, 0
2, 6282, Note_on_c, 0, 68, 0
2, 6354, Control_c, 0, 64, 0
2, 6354, Note_on_c, 0, 63, 48
2, 6356, Note_on_c, 0, 72, 79
2, 6356, Note_on_c, 0, 77, 68
2, 6357, Note_on_c, 0, 67, 50
2, 6357, Note_on_c, 0, 60, 57
2, 6360, Note_on_c, 0, 56, 34
2, 6384, Control_c, 0, 64, 127
2, 6402, Note_on_c, 0, 67, 0
2, 6410, Note_on_c, 0, 77, 0
2, 6416, Note_on_c, 0, 60, 0
2, 6417, Note_on_c, 0, 63, 0
2, 6420, Note_on_c, 0, 72, 0
2, 6435, Note_on_c, 0, 56, 0
2, 6478, Control_c, 0, 64, 0
2, 6480, Note_on_c, 0, 79, 59
2, 6482, Note_on_c, 0, 72, 68
2, 6485, Note_on_c, 0, 64, 43
2, 6487, Note_on_c, 0, 76, 40
2, 6487, Note_on_c, 0, 68, 38
2, 6513, Control_c, 0, 64, 127
2, 6542, Note_on_c, 0, 76, 0
2, 6550, Note_on_c, 0, 72, 0
2, 6561, Note_on_c, 0, 68, 0
2, 6575, Note_on_c, 0, 79, 0
2, 6587, Note_on_c, 0, 64, 0
2, 6594, Control_c, 0, 64, 0
2, 6602, Note_on_c, 0, 77, 47
2, 6603, Note_on_c, 0, 68, 35
2, 6603, Note_on_c, 0, 62, 39
2, 6604, Note_on_c, 0, 72, 50
2, 6622, Control_c, 0, 64, 127
2, 6634, Note_on_c, 0, 62, 0
2, 6653, Note_on_c, 0, 72, 0
2, 6656, Note_on_c, 0, 77, 0
2, 6666, Note_on_c, 0, 68, 0
2, 6711, Control_c, 0, 64, 0
2, 6715, Note_on_c, 0, 75, 45
2, 6717, Note_on_c, 0, 61, 32
2, 6719, Note_on_c, 0, 67, 28
2, 6719, Note_on_c, 0, 55, 29
2, 6721, Note_on_c, 0, 70, 38
2, 6741, Control_c, 0, 64, 127
2, 6743, Note_on_c, 0, 61, 0
2, 6750, Note_on_c, 0, 55, 0
2, 6838, Control_c, 0, 64, 0
2, 6859, Control_c, 0, 64, 127
2, 6907, Note_on_c, 0, 27, 69
2, 6932, Control_c, 0, 64, 0
2, 6937, Note_on_c, 0, 27, 0
2, 6940, Control_c, 0, 64, 127
2, 7071, Note_on_c, 0, 65, 60
2, 7072, Note_on_c, 0, 61, 44
2, 7079, Note_on_c, 0, 65, 0
2, 7086, Control_c, 0, 64, 0
2, 7094, Note_on_c, 0, 61, 0
2, 7103, Note_on_c, 0, 67, 0
2, 7108, Control_c, 0, 64, 127
2, 7117, Note_on_c, 0, 70, 0
2, 7120, Note_on_c, 0, 75, 0
2, 7153, Note_on_c, 0, 51, 37
2, 7179, Note_on_c, 0, 51, 0
2, 7189, Control_c, 0, 64, 0
2, 7189, Note_on_c, 0, 72, 43
2, 7191, Note_on_c, 0, 60, 39
2, 7193, Note_on_c, 0, 67, 34
2, 7193, Note_on_c, 0, 54, 36
2, 7199, Note_on_c, 0, 44, 32
2, 7231, Control_c, 0, 64, 127
2, 7236, Control_c, 0, 10, 67
2, 7246, Control_c, 0, 10, 70
2, 7251, Control_c, 0, 10, 82
2, 7256, Control_c, 0, 10, 87
2, 7261, Control_c, 0, 10, 93
2, 7266, Control_c, 0, 10, 99
2, 7271, Control_c, 0, 10, 103
2, 7273, Note_on_c, 0, 60, 0
2, 7277, Note_on_c, 0, 67, 0
2, 7278, Note_on_c, 0, 54, 0
2, 7278, Control_c, 0, 10, 108
2, 7283, Control_c, 0, 10, 109
2, 7288, Control_c, 0, 10, 111
2, 7293, Control_c, 0, 10, 113
2, 7298, Control_c, 0, 10, 116
2, 7308, Control_c, 0, 10, 118
2, 7313, Control_c, 0, 10, 117
2, 7318, Control_c, 0, 10, 119
2, 7318, Note_on_c, 0, 60, 46
2, 7320, Note_on_c, 0, 54, 28
2, 7320, Note_on_c, 0, 67, 32
2, 7326, Control_c, 0, 10, 120
2, 7331, Control_c, 0, 10, 122
2, 7341, Control_c, 0, 10, 123
2, 7346, Control_c, 0, 10, 125
2, 7356, Control_c, 0, 10, 126
2, 7366, Control_c, 0, 10, 127
2, 7379, Note_on_c, 0, 67, 0
2, 7398, Note_on_c, 0, 60, 0
2, 7409, Note_on_c, 0, 44, 0
2, 7410, Note_on_c, 0, 54, 0
2, 7436, Note_on_c, 0, 66, 42
2, 7440, Note_on_c, 0, 60, 43
2, 7440, Note_on_c, 0, 55, 39
2, 7442, Note_on_c, 0, 45, 33
2, 7443, Control_c, 0, 64, 0
2, 7463, Control_c, 0, 10, 122
2, 7468, Control_c, 0, 10, 108
2, 7473, Control_c, 0, 10, 105
2, 7476, Control_c, 0, 10, 103
2, 7476, Control_c, 0, 64, 127
2, 7481, Control_c, 0, 10, 100
2, 7491, Control_c, 0, 10, 97
2, 7496, Control_c, 0, 10, 91
2, 7501, Control_c, 0, 10, 68
2, 7506, Control_c, 0, 10, 59
2, 7514, Note_on_c, 0, 55, 0
2, 7527, Note_on_c, 0, 60, 0
2, 7532, Control_c, 0, 10, 55
2, 7541, Note_on_c, 0, 66, 0
2, 7555, Note_on_c, 0, 65, 60
2, 7556, Control_c, 0, 64, 0
2, 7557, Note_on_c, 0, 60, 41
2, 7562, Control_c, 0, 10, 52
2, 7562, Note_on_c, 0, 55, 34
2, 7567, Control_c, 0, 10, 49
2, 7577, Control_c, 0, 10, 46
2, 7577, Control_c, 0, 64, 127
2, 7582, Control_c, 0, 10, 44
2, 7587, Control_c, 0, 10, 42
2, 7592, Control_c, 0, 10, 38
2, 7602, Control_c, 0, 10, 34
2, 7607, Control_c, 0, 10, 33
2, 7612, Note_on_c, 0, 60, 0
2, 7612, Control_c, 0, 10, 30
2, 7617, Control_c, 0, 10, 29
2, 7622, Control_c, 0, 10, 27
2, 7627, Control_c, 0, 10, 25
2, 7632, Note_on_c, 0, 45, 0
2, 7635, Note_on_c, 0, 55, 0
2, 7636, Note_on_c, 0, 72, 0
2, 7636, Control_c, 0, 10, 23
2, 7642, Note_on_c, 0, 65, 0
2, 7642, Control_c, 0, 10, 21
2, 7647, Control_c, 0, 10, 19
2, 7652, Control_c, 0, 10, 15
2, 7657, Control_c, 0, 10, 11
2, 7662, Control_c, 0, 10, 3
2, 7672, Control_c, 0, 10, 2
2, 7674, Note_on_c, 0, 62, 41
2, 7675, Note_on_c, 0, 65, 32
2, 7676, Control_c, 0, 64, 0
2, 7677, Control_c, 0, 10, 0
2, 7677, Note_on_c, 0, 46, 38
2, 7696, Note_on_c, 0, 58, 9
2, 7711, Control_c, 0, 64, 127
2, 7724, Note_on_c, 0, 46, 0
2, 7728, Note_on_c, 0, 65, 0
2, 7733, Note_on_c, 0, 62, 0
2, 7737, Note_on_c, 0, 58, 0
2, 7797, Note_on_c, 0, 62, 45
2, 7799, Note_on_c, 0, 58, 38
2, 7802, Control_c, 0, 64, 0
2, 7827, Control_c, 0, 10, 10
2, 7833, Note_on_c, 0, 62, 0
2, 7833, Control_c, 0, 10, 13
2, 7838, Control_c, 0, 10, 25
2, 7842, Control_c, 0, 10, 26
2, 7842, Control_c, 0, 64, 127
2, 7847, Control_c, 0, 10, 28
2, 7855, Note_on_c, 0, 58, 0
2, 7855, Control_c, 0, 10, 32
2, 7860, Control_c, 0, 10, 33
2, 7865, Control_c, 0, 10, 36
2, 7873, Control_c, 0, 10, 37
2, 7873, Note_on_c, 0, 74, 82
2, 7875, Control_c, 0, 10, 39
2, 7875, Note_on_c, 0, 65, 91
2, 7885, Control_c, 0, 10, 40
2, 7895, Control_c, 0, 10, 41
2, 7895, Control_c, 0, 10, 42
2, 7905, Control_c, 0, 10, 43
2, 7910, Note_on_c, 0, 65, 0
2, 7912, Note_on_c, 0, 74, 0
2, 7913, Control_c, 0, 64, 0
2, 7913, Note_on_c, 0, 50, 40
2, 7917, Note_on_c, 0, 58, 21
2, 7924, Control_c, 0, 10, 44
2, 7924, Note_on_c, 0, 73, 29
2, 7926, Note_on_c, 0, 65, 18
2, 7931, Control_c, 0, 10, 45
2, 7936, Control_c, 0, 10, 53
2, 7941, Control_c, 0, 10, 63
2, 7946, Control_c, 0, 10, 65
2, 7955, Control_c, 0, 64, 127
2, 7957, Note_on_c, 0, 50, 0
2, 7957, Control_c, 0, 10, 67
2, 7964, Note_on_c, 0, 58, 0
2, 7964, Control_c, 0, 10, 68
2, 7969, Note_on_c, 0, 65, 0
2, 7969, Control_c, 0, 10, 70
2, 7974, Control_c, 0, 10, 72
2, 7979, Control_c, 0, 10, 73
2, 7986, Note_on_c, 0, 73, 0
2, 7996, Note_on_c, 0, 74, 57
2, 8000, Note_on_c, 0, 65, 45
2, 8008, Note_on_c, 0, 65, 0
2, 8018, Control_c, 0, 10, 75
2, 8022, Note_on_c, 0, 74, 0
2, 8024, Control_c, 0, 64, 0
2, 8030, Note_on_c, 0, 49, 31
2, 8035, Note_on_c, 0, 59, 19
2, 8055, Control_c, 0, 64, 127
2, 8099, Note_on_c, 0, 59, 0
2, 8114, Note_on_c, 0, 86, 85
2, 8115, Note_on_c, 0, 79, 72
2, 8121, Note_on_c, 0, 49, 0
2, 8150, Note_on_c, 0, 79, 0
2, 8155, Control_c, 0, 64, 0
2, 8156, Note_on_c, 0, 86, 0
2, 8161, Note_on_c, 0, 82, 45
2, 8163, Note_on_c, 0, 48, 26
2, 8164, Note_on_c, 0, 74, 37
2, 8175, Note_on_c, 0, 48, 0
2, 8177, Note_on_c, 0, 58, 5
2, 8182, Control_c, 0, 64, 127
2, 8204, Note_on_c, 0, 58, 0
2, 8208, Note_on_c, 0, 82, 0
2, 8223, Note_on_c, 0, 74, 0
2, 8271, Note_on_c, 0, 74, 55
2, 8274, Note_on_c, 0, 66, 44
2, 8276, Note_on_c, 0, 64, 30
2, 8277, Control_c, 0, 64, 0
2, 8278, Note_on_c, 0, 58, 36
2, 8290, Note_on_c, 0, 64, 0
2, 8307, Control_c, 0, 64, 127
2, 8309, Note_on_c, 0, 58, 0
2, 8335, Note_on_c, 0, 66, 0
2, 8342, Note_on_c, 0, 74, 0
2, 8359, Note_on_c, 0, 66, 32
2, 8359, Note_on_c, 0, 69, 50
2, 8360, Note_on_c, 0, 62, 45
2, 8378, Control_c, 0, 64, 0
2, 8390, Note_on_c, 0, 58, 34
2, 8407, Control_c, 0, 64, 127
2, 8415, Note_on_c, 0, 58, 0
2, 8463, Note_on_c, 0, 66, 0
2, 8465, Note_on_c, 0, 62, 0
2, 8465, Note_on_c, 0, 69, 0
2, 8470, Note_on_c, 0, 42, 46
2, 8517, Note_on_c, 0, 52, 42
2, 8518, Control_c, 0, 64, 0
2, 8571, Note_on_c, 0, 42, 0
2, 8576, Control_c, 0, 64, 127
2, 8580, Note_on_c, 0, 52, 0
2, 8596, Note_on_c, 0, 41, 69
2, 8631, Control_c, 0, 64, 0
2, 8635, Note_on_c, 0, 68, 69
2, 8636, Note_on_c, 0, 77, 57
2, 8636, Note_on_c, 0, 51, 52
2, 8653, Note_on_c, 0, 41, 0
2, 8663, Control_c, 0, 64, 127
2, 8671, Note_on_c, 0, 51, 0
2, 8760, Note_on_c, 0, 63, 37
2, 8761, Control_c, 0, 64, 0
2, 8766, Note_on_c, 0, 58, 39
2, 8768, Note_on_c, 0, 53, 30
2, 8777, Control_c, 0, 64, 127
2, 8779, Note_on_c, 0, 77, 0
2, 8809, Note_on_c, 0, 68, 0
2, 8816, Note_on_c, 0, 63, 0
2, 8854, Note_on_c, 0, 53, 0
2, 8856, Note_on_c, 0, 58, 0
2, 8888, Note_on_c, 0, 65, 42
2, 8889, Control_c, 0, 64, 0
2, 8889, Note_on_c, 0, 73, 30
2, 8890, Note_on_c, 0, 69, 49
2, 8893, Note_on_c, 0, 57, 36
2, 8916, Control_c, 0, 64, 127
2, 8928, Note_on_c, 0, 69, 0
2, 8937, Note_on_c, 0, 57, 0
2, 8938, Note_on_c, 0, 73, 0
2, 8942, Note_on_c, 0, 65, 0
2, 9005, Control_c, 0, 64, 0
2, 9008, Note_on_c, 0, 65, 47
2, 9010, Note_on_c, 0, 61, 19
2, 9010, Note_on_c, 0, 51, 25
2, 9018, Note_on_c, 0, 57, 13
2, 9037, Control_c, 0, 64, 127
2, 9073, Note_on_c, 0, 57, 0
2, 9081, Note_on_c, 0, 65, 0
2, 9093, Note_on_c, 0, 61, 0
2, 9100, Note_on_c, 0, 54, 25
2, 9117, Note_on_c, 0, 54, 0
2, 9125, Note_on_c, 0, 55, 34
2, 9126, Note_on_c, 0, 51, 0
2, 9126, Note_on_c, 0, 70, 35
2, 9127, Control_c, 0, 64, 0
2, 9128, Note_on_c, 0, 60, 33
2, 9129, Note_on_c, 0, 65, 32
2, 9155, Control_c, 0, 64, 127
2, 9161, Note_on_c, 0, 55, 0
2, 9195, Note_on_c, 0, 65, 0
2, 9198, Note_on_c, 0, 41, 64
2, 9210, Control_c, 0, 64, 0
2, 9230, Note_on_c, 0, 41, 0
2, 9244, Note_on_c, 0, 70, 0
2, 9248, Note_on_c, 0, 41, 47
2, 9264, Note_on_c, 0, 60, 0
2, 9272, Control_c, 0, 64, 127
2, 9278, Note_on_c, 0, 41, 0
2, 9325, Note_on_c, 0, 41, 44
2, 9347, Control_c, 0, 64, 0
2, 9385, Note_on_c, 0, 63, 39
2, 9387, Note_on_c, 0, 58, 46
2, 9387, Note_on_c, 0, 65, 57
2, 9390, Note_on_c, 0, 53, 42
2, 9427, Note_on_c, 0, 58, 0
2, 9428, Note_on_c, 0, 53, 0
2, 9430, Note_on_c, 0, 65, 0
2, 9434, Note_on_c, 0, 63, 0
2, 9464, Note_on_c, 0, 53, 38
2, 9465, Note_on_c, 0, 58, 45
2, 9467, Note_on_c, 0, 65, 51
2, 9468, Note_on_c, 0, 63, 33
2, 9486, Note_on_c, 0, 58, 0
2, 9490, Note_on_c, 0, 65, 0
2, 9493, Note_on_c, 0, 63, 0
2, 9497, Note_on_c, 0, 41, 0
2, 9507, Control_c, 0, 64, 127
2, 9535, Note_on_c, 0, 53, 0
2, 9560, Note_on_c, 0, 70, 63
2, 9562, Note_on_c, 0, 65, 51
2, 9562, Note_on_c, 0, 60, 58
2, 9564, Note_on_c, 0, 55, 56
2, 9569, Control_c, 0, 64, 0
2, 9609, Control_c, 0, 64, 127
2, 9656, Note_on_c, 0, 55, 0
2, 9659, Note_on_c, 0, 65, 0
2, 9664, Note_on_c, 0, 60, 0
2, 9718, Note_on_c, 0, 63, 36
2, 9718, Note_on_c, 0, 54, 25
2, 9719, Control_c, 0, 64, 0
2, 9721, Note_on_c, 0, 59, 30
2, 9724, Note_on_c, 0, 44, 25
2, 9751, Note_on_c, 0, 70, 0
2, 9768, Control_c, 0, 64, 127
2, 9780, Note_on_c, 0, 59, 0
2, 9808, Note_on_c, 0, 63, 0
2, 9815, Note_on_c, 0, 54, 0
2, 9833, Note_on_c, 0, 44, 0
2, 9841, Control_c, 0, 64, 0
2, 9844, Note_on_c, 0, 59, 36
2, 9844, Note_on_c, 0, 65, 51
2, 9861, Note_on_c, 0, 53, 4
2, 9871, Note_on_c, 0, 65, 0
2, 9884, Note_on_c, 0, 53, 0
2, 9884, Note_on_c, 0, 66, 45
2, 9899, Note_on_c, 0, 59, 0
2, 9906, Note_on_c, 0, 66, 0
2, 9914, Control_c, 0, 64, 127
2, 9926, Note_on_c, 0, 67, 69
2, 9926, Note_on_c, 0, 59, 47
2, 9956, Control_c, 0, 64, 0
2, 9959, Note_on_c, 0, 58, 40
2, 9975, Note_on_c, 0, 58, 0
2, 9980, Control_c, 0, 64, 127
2, 9987, Note_on_c, 0, 59, 0
2, 10007, Note_on_c, 0, 65, 63
2, 10044, Note_on_c, 0, 36, 57
2, 10050, Note_on_c, 0, 65, 0
2, 10069, Note_on_c, 0, 36, 0
2, 10075, Control_c, 0, 64, 0
2, 10083, Note_on_c, 0, 67, 0
2, 10084, Note_on_c, 0, 64, 59
2, 10085, Note_on_c, 0, 52, 43
2, 10096, Control_c, 0, 64, 127
2, 10108, Note_on_c, 0, 52, 0
2, 10108, Note_on_c, 0, 64, 0
2, 10159, Note_on_c, 0, 74, 69
2, 10163, Note_on_c, 0, 67, 60
2, 10163, Note_on_c, 0, 70, 51
2, 10166, Note_on_c, 0, 62, 54
2, 10182, Note_on_c, 0, 62, 0
2, 10183, Note_on_c, 0, 74, 0
2, 10192, Note_on_c, 0, 67, 0
2, 10198, Note_on_c, 0, 70, 0
2, 10199, Note_on_c, 0, 58, 37
2, 10201, Control_c, 0, 64, 0
2, 10210, Note_on_c, 0, 73, 31
2, 10210, Note_on_c, 0, 67, 45
2, 10216, Note_on_c, 0, 58, 0
2, 10220, Note_on_c, 0, 70, 26
2, 10248, Note_on_c, 0, 67, 0
2, 10258, Note_on_c, 0, 73, 0
2, 10261, Control_c, 0, 64, 127
2, 10265, Note_on_c, 0, 70, 0
2, 10276, Note_on_c, 0, 67, 40
2, 10277, Note_on_c, 0, 62, 57
2, 10278, Note_on_c, 0, 72, 55
2, 10282, Note_on_c, 0, 50, 66
2, 10283, Note_on_c, 0, 58, 55
2, 10293, Note_on_c, 0, 62, 0
2, 10303, Note_on_c, 0, 67, 0
2, 10304, Note_on_c, 0, 72, 0
2, 10320, Control_c, 0, 64, 0
2, 10358, Control_c, 0, 64, 127
2, 10403, Note_on_c, 0, 50, 0
2, 10403, Note_on_c, 0, 51, 45
2, 10430, Note_on_c, 0, 51, 0
2, 10433, Control_c, 0, 64, 0
2, 10445, Note_on_c, 0, 52, 42
2, 10466, Control_c, 0, 64, 127
2, 10502, Note_on_c, 0, 58, 0
2, 10508, Note_on_c, 0, 52, 0
2, 10560, Note_on_c, 0, 74, 66
2, 10560, Note_on_c, 0, 67, 61
2, 10561, Control_c, 0, 64, 0
2, 10562, Note_on_c, 0, 63, 45
2, 10564, Note_on_c, 0, 59, 37
2, 10599, Control_c, 0, 64, 127
2, 10642, Note_on_c, 0, 67, 0
2, 10645, Note_on_c, 0, 63, 0
2, 10655, Note_on_c, 0, 74, 0
2, 10672, Note_on_c, 0, 59, 0
2, 10679, Note_on_c, 0, 63, 40
2, 10680, Control_c, 0, 64, 0
2, 10681, Note_on_c, 0, 67, 51
2, 10682, Note_on_c, 0, 58, 35
2, 10683, Note_on_c, 0, 72, 48
2, 10704, Control_c, 0, 64, 127
2, 10743, Note_on_c, 0, 72, 0
2, 10748, Note_on_c, 0, 67, 0
2, 10768, Note_on_c, 0, 63, 0
2, 10798, Note_on_c, 0, 70, 42
2, 10800, Note_on_c, 0, 62, 34
2, 10800, Note_on_c, 0, 67, 31
2, 10801, Control_c, 0, 64, 0
2, 10803, Note_on_c, 0, 57, 33
2, 10809, Note_on_c, 0, 58, 0
2, 10832, Control_c, 0, 64, 127
2, 10850, Note_on_c, 0, 67, 0
2, 10872, Note_on_c, 0, 62, 0
2, 10873, Note_on_c, 0, 70, 0
2, 10882, Note_on_c, 0, 57, 0
2, 10916, Note_on_c, 0, 69, 45
2, 10917, Control_c, 0, 64, 0
2, 10919, Note_on_c, 0, 53, 36
2, 10924, Note_on_c, 0, 65, 41
2, 10924, Note_on_c, 0, 60, 17
2, 10945, Control_c, 0, 64, 127
2, 10960, Note_on_c, 0, 53, 0
2, 10962, Note_on_c, 0, 60, 0
2, 10998, Note_on_c, 0, 65, 0
2, 11015, Note_on_c, 0, 69, 0
2, 11035, Note_on_c, 0, 62, 42
2, 11037, Note_on_c, 0, 65, 52
2, 11040, Note_on_c, 0, 46, 31
2, 11042, Control_c, 0, 64, 0
2, 11042, Note_on_c, 0, 55, 29
2, 11072, Control_c, 0, 64, 127
2, 11080, Note_on_c, 0, 55, 0
2, 11110, Note_on_c, 0, 65, 0
2, 11111, Note_on_c, 0, 62, 0
2, 11138, Note_on_c, 0, 46, 0
2, 11237, Note_on_c, 0, 61, 55
2, 11238, Note_on_c, 0, 64, 54
2, 11238, Note_on_c, 0, 58, 52
2, 11239, Note_on_c, 0, 49, 60
2, 11254, Note_on_c, 0, 64, 0
2, 11265, Note_on_c, 0, 61, 0
2, 11268, Note_on_c, 0, 58, 0
2, 11283, Control_c, 0, 64, 0
2, 11292, Note_on_c, 0, 49, 0
2, 11294, Note_on_c, 0, 63, 47
2, 11297, Note_on_c, 0, 58, 40
2, 11297, Note_on_c, 0, 48, 42
2, 11299, Note_on_c, 0, 55, 24
2, 11320, Control_c, 0, 64, 127
2, 11330, Note_on_c, 0, 55, 0
2, 11343, Note_on_c, 0, 58, 0
2, 11349, Note_on_c, 0, 48, 0
2, 11354, Note_on_c, 0, 63, 0
2, 11368, Note_on_c, 0, 66, 60
2, 11369, Note_on_c, 0, 57, 60
2, 11371, Note_on_c, 0, 61, 44
2, 11374, Note_on_c, 0, 63, 32
2, 11376, Note_on_c, 0, 51, 36
2, 11380, Control_c, 0, 64, 0
2, 11410, Control_c, 0, 64, 127
2, 11423, Note_on_c, 0, 61, 0
2, 11425, Note_on_c, 0, 57, 0
2, 11432, Note_on_c, 0, 51, 0
2, 11433, Note_on_c, 0, 66, 0
2, 11445, Note_on_c, 0, 63, 0
2, 11477, Control_c, 0, 64, 0
2, 11478, Note_on_c, 0, 58, 55
2, 11481, Note_on_c, 0, 65, 57
2, 11481, Note_on_c, 0, 62, 44
2, 11496, Note_on_c, 0, 58, 0
2, 11498, Note_on_c, 0, 62, 0
2, 11503, Note_on_c, 0, 65, 0
2, 11504, Note_on_c, 0, 46, 46
2, 11529, Control_c, 0, 64, 127
2, 11533, Note_on_c, 0, 46, 0
2, 11579, Note_on_c, 0, 77, 53
2, 11590, Note_on_c, 0, 77, 0
2, 11595, Note_on_c, 0, 79, 44
2, 11611, Note_on_c, 0, 77, 41
2, 11616, Note_on_c, 0, 79, 0
2, 11631, Control_c, 0, 64, 0
2, 11634, Note_on_c, 0, 77, 0
2, 11637, Note_on_c, 0, 76, 38
2, 11637, Note_on_c, 0, 62, 29
2, 11640, Note_on_c, 0, 65, 26
2, 11654, Note_on_c, 0, 65, 0
2, 11656, Note_on_c, 0, 76, 0
2, 11661, Note_on_c, 0, 62, 0
2, 11677, Note_on_c, 0, 77, 57
2, 11693, Note_on_c, 0, 77, 0
2, 11707, Control_c, 0, 64, 127
2, 11711, Note_on_c, 0, 78, 61
2, 11733, Control_c, 0, 64, 0
2, 11737, Note_on_c, 0, 78, 0
2, 11749, Note_on_c, 0, 64, 27
2, 11751, Note_on_c, 0, 59, 42
2, 11754, Note_on_c, 0, 79, 39
2, 11759, Note_on_c, 0, 53, 19
2, 11764, Note_on_c, 0, 64, 0
2, 11764, Control_c, 0, 64, 127
2, 11772, Note_on_c, 0, 59, 0
2, 11778, Note_on_c, 0, 53, 0
2, 11868, Control_c, 0, 64, 0
2, 11870, Note_on_c, 0, 43, 46
2, 11880, Note_on_c, 0, 43, 0
2, 11880, Control_c, 0, 64, 127
2, 11910, Note_on_c, 0, 79, 0
2, 11956, Note_on_c, 0, 77, 31
2, 11982, Note_on_c, 0, 77, 0
2, 11989, Note_on_c, 0, 36, 33
2, 11990, Control_c, 0, 64, 0
2, 11998, Note_on_c, 0, 36, 0
2, 12000, Note_on_c, 0, 52, 29
2, 12003, Note_on_c, 0, 76, 15
2, 12012, Control_c, 0, 64, 127
2, 12019, Note_on_c, 0, 52, 0
2, 12030, Note_on_c, 0, 76, 0
2, 12075, Note_on_c, 0, 86, 80
2, 12075, Note_on_c, 0, 74, 74
2, 12076, Note_on_c, 0, 82, 61
2, 12076, Note_on_c, 0, 79, 69
2, 12078, Note_on_c, 0, 76, 58
2, 12085, Note_on_c, 0, 76, 0
2, 12094, Note_on_c, 0, 74, 0
2, 12100, Note_on_c, 0, 86, 0
2, 12109, Note_on_c, 0, 79, 0
2, 12113, Note_on_c, 0, 82, 0
2, 12113, Note_on_c, 0, 58, 40
2, 12119, Control_c, 0, 64, 0
2, 12126, Note_on_c, 0, 85, 62
2, 12128, Note_on_c, 0, 79, 36
2, 12131, Note_on_c, 0, 73, 23
2, 12133, Note_on_c, 0, 82, 29
2, 12135, Note_on_c, 0, 58, 0
2, 12165, Note_on_c, 0, 79, 0
2, 12176, Note_on_c, 0, 85, 0
2, 12179, Note_on_c, 0, 73, 0
2, 12180, Note_on_c, 0, 82, 0
2, 12194, Note_on_c, 0, 50, 62
2, 12196, Note_on_c, 0, 58, 49
2, 12211, Control_c, 0, 64, 127
2, 12226, Note_on_c, 0, 58, 0
2, 12227, Control_c, 0, 64, 0
2, 12234, Note_on_c, 0, 50, 0
2, 12234, Note_on_c, 0, 58, 42
2, 12236, Note_on_c, 0, 51, 64
2, 12243, Note_on_c, 0, 72, 46
2, 12243, Note_on_c, 0, 84, 41
2, 12244, Note_on_c, 0, 79, 45
2, 12254, Note_on_c, 0, 72, 0
2, 12258, Note_on_c, 0, 84, 0
2, 12261, Note_on_c, 0, 79, 0
2, 12282, Control_c, 0, 64, 127
2, 12342, Note_on_c, 0, 58, 0
2, 12354, Note_on_c, 0, 51, 0
2, 12355, Control_c, 0, 64, 0
2, 12356, Note_on_c, 0, 58, 40
2, 12359, Note_on_c, 0, 52, 65
2, 12379, Control_c, 0, 64, 127
2, 12382, Note_on_c, 0, 58, 0
2, 12387, Note_on_c, 0, 52, 0
2, 12474, Control_c, 0, 64, 0
2, 12477, Note_on_c, 0, 30, 56
2, 12480, Note_on_c, 0, 42, 46
2, 12481, Note_on_c, 0, 85, 59
2, 12484, Note_on_c, 0, 70, 56
2, 12495, Note_on_c, 0, 30, 0
2, 12505, Note_on_c, 0, 42, 0
2, 12542, Note_on_c, 0, 70, 0
2, 12546, Note_on_c, 0, 85, 0
2, 12554, Control_c, 0, 64, 127
2, 12573, Note_on_c, 0, 82, 37
2, 12588, Note_on_c, 0, 82, 0
2, 12594, Control_c, 0, 64, 0
2, 12597, Note_on_c, 0, 63, 59
2, 12601, Note_on_c, 0, 58, 56
2, 12601, Note_on_c, 0, 85, 81
2, 12603, Note_on_c, 0, 70, 79
2, 12607, Note_on_c, 0, 82, 38
2, 12611, Note_on_c, 0, 63, 0
2, 12614, Note_on_c, 0, 82, 0
2, 12627, Note_on_c, 0, 58, 0
2, 12658, Note_on_c, 0, 85, 0
2, 12658, Note_on_c, 0, 70, 0
2, 12684, Control_c, 0, 64, 127
2, 12686, Note_on_c, 0, 85, 56
2, 12692, Note_on_c, 0, 70, 52
2, 12706, Control_c, 0, 64, 0
2, 12707, Note_on_c, 0, 70, 0
2, 12713, Note_on_c, 0, 85, 0
2, 12718, Note_on_c, 0, 42, 34
2, 12725, Note_on_c, 0, 82, 38
2, 12726, Note_on_c, 0, 52, 33
2, 12768, Control_c, 0, 64, 127
2, 12784, Note_on_c, 0, 52, 0
2, 12786, Note_on_c, 0, 42, 0
2, 12792, Note_on_c, 0, 82, 0
2, 12799, Note_on_c, 0, 85, 59
2, 12799, Note_on_c, 0, 70, 57
2, 12804, Note_on_c, 0, 82, 19
2, 12814, Note_on_c, 0, 82, 0
2, 12814, Note_on_c, 0, 70, 0
2, 12819, Note_on_c, 0, 85, 0
2, 12847, Control_c, 0, 64, 0
2, 12911, Control_c, 0, 64, 127
2, 12918, Note_on_c, 0, 42, 69
2, 12942, Note_on_c, 0, 42, 0
2, 12947, Control_c, 0, 64, 0
2, 12961, Control_c, 0, 64, 127
2, 12964, Note_on_c, 0, 41, 38
2, 12971, Note_on_c, 0, 41, 0
2, 13040, Note_on_c, 0, 84, 80
2, 13041, Note_on_c, 0, 77, 82
2, 13041, Note_on_c, 0, 57, 76
2, 13041, Note_on_c, 0, 72, 89
2, 13042, Note_on_c, 0, 81, 65
2, 13042, Note_on_c, 0, 63, 60
2, 13042, Note_on_c, 0, 67, 75
2, 13044, Control_c, 0, 64, 0
2, 13055, Note_on_c, 0, 67, 0
2, 13058, Note_on_c, 0, 72, 0
2, 13058, Note_on_c, 0, 81, 0
2, 13060, Note_on_c, 0, 84, 0
2, 13062, Note_on_c, 0, 77, 0
2, 13067, Note_on_c, 0, 63, 0
2, 13073, Note_on_c, 0, 57, 0
2, 13158, Note_on_c, 0, 43, 47
2, 13158, Note_on_c, 0, 58, 70
2, 13158, Note_on_c, 0, 65, 71
2, 13162, Note_on_c, 0, 53, 54
2, 13166, Control_c, 0, 64, 127
2, 13173, Control_c, 0, 64, 0
2, 13183, Note_on_c, 0, 53, 0
2, 13188, Note_on_c, 0, 65, 0
2, 13188, Note_on_c, 0, 43, 0
2, 13191, Note_on_c, 0, 58, 0
2, 13232, Note_on_c, 0, 59, 48
2, 13233, Note_on_c, 0, 65, 61
2, 13235, Note_on_c, 0, 44, 49
2, 13235, Note_on_c, 0, 53, 55
2, 13258, Control_c, 0, 64, 127
2, 13267, Note_on_c, 0, 53, 0
2, 13273, Note_on_c, 0, 59, 0
2, 13273, Note_on_c, 0, 65, 0
2, 13288, Control_c, 0, 64, 0
2, 13304, Note_on_c, 0, 44, 0
2, 13310, Note_on_c, 0, 65, 57
2, 13312, Note_on_c, 0, 45, 57
2, 13313, Note_on_c, 0, 60, 34
2, 13316, Note_on_c, 0, 59, 38
2, 13333, Note_on_c, 0, 59, 0
2, 13338, Control_c, 0, 64, 127
2, 13339, Note_on_c, 0, 60, 0
2, 13344, Control_c, 0, 64, 0
2, 13350, Note_on_c, 0, 65, 0
2, 13384, Control_c, 0, 64, 127
2, 13386, Note_on_c, 0, 45, 0
2, 13392, Note_on_c, 0, 46, 59
2, 13393, Note_on_c, 0, 61, 62
2, 13394, Note_on_c, 0, 65, 66
2, 13416, Note_on_c, 0, 65, 0
2, 13425, Control_c, 0, 64, 0
2, 13432, Note_on_c, 0, 46, 0
2, 13439, Note_on_c, 0, 65, 41
2, 13441, Note_on_c, 0, 61, 0
2, 13444, Note_on_c, 0, 62, 44
2, 13448, Note_on_c, 0, 65, 0
2, 13451, Note_on_c, 0, 62, 0
2, 13463, Control_c, 0, 64, 127
2, 13468, Control_c, 0, 64, 0
2, 13508, Control_c, 0, 64, 127
2, 13515, Note_on_c, 0, 70, 65
2, 13520, Note_on_c, 0, 65, 68
2, 13521, Note_on_c, 0, 55, 57
2, 13522, Note_on_c, 0, 60, 61
2, 13537, Note_on_c, 0, 60, 0
2, 13542, Note_on_c, 0, 65, 0
2, 13546, Note_on_c, 0, 70, 0
2, 13553, Note_on_c, 0, 55, 0
2, 13555, Control_c, 0, 64, 0
2, 13563, Note_on_c, 0, 56, 47
2, 13563, Note_on_c, 0, 72, 69
2, 13566, Note_on_c, 0, 62, 50
2, 13567, Note_on_c, 0, 65, 51
2, 13595, Control_c, 0, 64, 127
2, 13601, Control_c, 0, 64, 0
2, 13602, Note_on_c, 0, 62, 0
2, 13618, Note_on_c, 0, 65, 0
2, 13618, Note_on_c, 0, 72, 0
2, 13621, Note_on_c, 0, 56, 0
2, 13625, Control_c, 0, 64, 127
2, 13674, Control_c, 0, 64, 0
2, 13685, Note_on_c, 0, 70, 70
2, 13688, Note_on_c, 0, 62, 53
2, 13688, Note_on_c, 0, 65, 62
2, 13703, Note_on_c, 0, 56, 14
2, 13739, Note_on_c, 0, 65, 0
2, 13741, Note_on_c, 0, 62, 0
2, 13747, Note_on_c, 0, 56, 0
2, 13753, Note_on_c, 0, 70, 0
2, 13761, Note_on_c, 0, 72, 67
2, 13764, Note_on_c, 0, 65, 63
2, 13765, Note_on_c, 0, 62, 47
2, 13767, Note_on_c, 0, 55, 49
2, 13775, Control_c, 0, 64, 127
2, 13776, Note_on_c, 0, 62, 0
2, 13778, Note_on_c, 0, 55, 0
2, 13783, Control_c, 0, 64, 0
2, 13788, Note_on_c, 0, 72, 0
2, 13795, Note_on_c, 0, 65, 0
2, 13808, Note_on_c, 0, 53, 37
2, 13824, Control_c, 0, 64, 127
2, 13840, Control_c, 0, 64, 0
2, 13847, Note_on_c, 0, 53, 0
2, 13850, Control_c, 0, 64, 127
2, 13880, Note_on_c, 0, 70, 39
2, 13883, Note_on_c, 0, 63, 67
2, 13884, Note_on_c, 0, 60, 71
2, 13898, Control_c, 0, 64, 0
2, 13899, Note_on_c, 0, 60, 0
2, 13915, Note_on_c, 0, 46, 50
2, 13918, Note_on_c, 0, 56, 30
2, 13923, Control_c, 0, 64, 127
2, 13930, Note_on_c, 0, 63, 0
2, 13940, Note_on_c, 0, 46, 0
2, 13942, Note_on_c, 0, 70, 0
2, 13951, Note_on_c, 0, 56, 0
2, 14006, Note_on_c, 0, 69, 44
2, 14015, Note_on_c, 0, 69, 0
2, 14046, Note_on_c, 0, 63, 31
2, 14049, Note_on_c, 0, 60, 40
2, 14050, Control_c, 0, 64, 0
2, 14051, Note_on_c, 0, 56, 18
2, 14058, Note_on_c, 0, 70, 33
2, 14061, Note_on_c, 0, 56, 0
2, 14067, Note_on_c, 0, 63, 0
2, 14067, Note_on_c, 0, 60, 0
2, 14068, Note_on_c, 0, 70, 0
2, 14071, Note_on_c, 0, 72, 55
2, 14085, Note_on_c, 0, 70, 33
2, 14086, Note_on_c, 0, 72, 0
2, 14101, Note_on_c, 0, 70, 0
2, 14128, Note_on_c, 0, 75, 74
2, 14143, Control_c, 0, 64, 127
2, 14150, Note_on_c, 0, 77, 54
2, 14166, Note_on_c, 0, 75, 0
2, 14169, Note_on_c, 0, 77, 0
2, 14170, Control_c, 0, 64, 0
2, 14177, Note_on_c, 0, 62, 36
2, 14178, Note_on_c, 0, 56, 37
2, 14199, Note_on_c, 0, 80, 69
2, 14220, Control_c, 0, 64, 127
2, 14221, Note_on_c, 0, 82, 51
2, 14223, Note_on_c, 0, 62, 0
2, 14226, Note_on_c, 0, 80, 0
2, 14232, Note_on_c, 0, 56, 0
2, 14244, Note_on_c, 0, 82, 0
2, 14278, Note_on_c, 0, 66, 70
2, 14279, Note_on_c, 0, 62, 63
2, 14279, Note_on_c, 0, 56, 61
2, 14281, Control_c, 0, 64, 0
2, 14313, Control_c, 0, 64, 127
2, 14323, Note_on_c, 0, 84, 50
2, 14334, Note_on_c, 0, 84, 0
2, 14338, Note_on_c, 0, 66, 0
2, 14338, Note_on_c, 0, 87, 49
2, 14354, Note_on_c, 0, 62, 0
2, 14358, Note_on_c, 0, 89, 40
2, 14364, Note_on_c, 0, 87, 0
2, 14368, Note_on_c, 0, 56, 0
2, 14370, Note_on_c, 0, 89, 0
2, 14379, Note_on_c, 0, 91, 50
2, 14386, Note_on_c, 0, 91, 0
2, 14399, Note_on_c, 0, 65, 52
2, 14402, Control_c, 0, 64, 0
2, 14402, Note_on_c, 0, 62, 31
2, 14402, Note_on_c, 0, 82, 67
2, 14403, Note_on_c, 0, 94, 72
2, 14408, Note_on_c, 0, 65, 0
2, 14414, Note_on_c, 0, 62, 0
2, 14430, Control_c, 0, 64, 127
2, 14449, Note_on_c, 0, 82, 0
2, 14450, Note_on_c, 0, 94, 0
2, 14464, Note_on_c, 0, 84, 53
2, 14465, Note_on_c, 0, 96, 79
2, 14513, Note_on_c, 0, 39, 40
2, 14514, Note_on_c, 0, 46, 39
2, 14517, Note_on_c, 0, 84, 0
2, 14521, Control_c, 0, 64, 0
2, 14526, Note_on_c, 0, 39, 0
2, 14528, Note_on_c, 0, 96, 0
2, 14532, Note_on_c, 0, 46, 0
2, 14546, Control_c, 0, 64, 127
2, 14604, Note_on_c, 0, 82, 40
2, 14610, Note_on_c, 0, 82, 0
2, 14631, Control_c, 0, 64, 0
2, 14636, Note_on_c, 0, 97, 81
2, 14636, Note_on_c, 0, 65, 60
2, 14636, Note_on_c, 0, 85, 72
2, 14637, Note_on_c, 0, 60, 48
2, 14640, Note_on_c, 0, 55, 36
2, 14641, Note_on_c, 0, 58, 32
2, 14661, Control_c, 0, 64, 127
2, 14678, Note_on_c, 0, 65, 0
2, 14680, Note_on_c, 0, 60, 0
2, 14682, Note_on_c, 0, 55, 0
2, 14683, Note_on_c, 0, 85, 0
2, 14685, Note_on_c, 0, 97, 0
2, 14688, Note_on_c, 0, 58, 0
2, 14717, Note_on_c, 0, 94, 37
2, 14721, Note_on_c, 0, 82, 35
2, 14736, Note_on_c, 0, 82, 0
2, 14739, Note_on_c, 0, 94, 0
2, 14751, Note_on_c, 0, 66, 57
2, 14752, Control_c, 0, 64, 0
2, 14753, Note_on_c, 0, 61, 43
2, 14755, Note_on_c, 0, 56, 39
2, 14760, Note_on_c, 0, 96, 74
2, 14762, Note_on_c, 0, 84, 60
2, 14778, Control_c, 0, 64, 127
2, 14804, Note_on_c, 0, 84, 0
2, 14807, Note_on_c, 0, 61, 0
2, 14810, Note_on_c, 0, 96, 0
2, 14814, Note_on_c, 0, 66, 0
2, 14825, Note_on_c, 0, 56, 0
2, 14838, Note_on_c, 0, 94, 56
2, 14858, Note_on_c, 0, 94, 0
2, 14871, Control_c, 0, 64, 0
2, 14871, Note_on_c, 0, 65, 59
2, 14873, Note_on_c, 0, 82, 59
2, 14874, Note_on_c, 0, 97, 68
2, 14874, Note_on_c, 0, 54, 39
2, 14877, Note_on_c, 0, 58, 28
2, 14877, Note_on_c, 0, 60, 50
2, 14878, Note_on_c, 0, 85, 36
2, 14885, Note_on_c, 0, 85, 0
2, 14890, Note_on_c, 0, 65, 0
2, 14902, Note_on_c, 0, 60, 0
2, 14908, Note_on_c, 0, 58, 0
2, 14911, Control_c, 0, 64, 127
2, 14913, Note_on_c, 0, 54, 0
2, 14932, Note_on_c, 0, 82, 0
2, 14937, Note_on_c, 0, 97, 0
2, 14960, Note_on_c, 0, 94, 30
2, 14986, Note_on_c, 0, 94, 0
2, 14993, Note_on_c, 0, 42, 54
2, 14995, Control_c, 0, 64, 0
2, 14997, Note_on_c, 0, 82, 62
2, 14998, Note_on_c, 0, 96, 74
2, 15016, Note_on_c, 0, 42, 0
2, 15034, Note_on_c, 0, 96, 0
2, 15041, Control_c, 0, 64, 127
2, 15052, Note_on_c, 0, 82, 0
2, 15075, Note_on_c, 0, 94, 67
2, 15077, Note_on_c, 0, 82, 60
2, 15081, Note_on_c, 0, 89, 53
2, 15088, Note_on_c, 0, 89, 0
2, 15098, Note_on_c, 0, 94, 0
2, 15102, Note_on_c, 0, 82, 0
2, 15114, Note_on_c, 0, 65, 53
2, 15118, Control_c, 0, 64, 0
2, 15118, Note_on_c, 0, 58, 32
2, 15120, Note_on_c, 0, 60, 43
2, 15121, Note_on_c, 0, 54, 20
2, 15122, Note_on_c, 0, 65, 0
2, 15128, Control_c, 0, 64, 127
2, 15130, Note_on_c, 0, 60, 0
2, 15138, Note_on_c, 0, 58, 0
2, 15144, Note_on_c, 0, 54, 0
2, 15199, Note_on_c, 0, 66, 69
2, 15201, Note_on_c, 0, 63, 63
2, 15201, Note_on_c, 0, 60, 69
2, 15203, Note_on_c, 0, 54, 53
2, 15217, Control_c, 0, 64, 0
2, 15253, Control_c, 0, 64, 127
2, 15305, Note_on_c, 0, 54, 0
2, 15317, Note_on_c, 0, 60, 0
2, 15320, Note_on_c, 0, 63, 0
2, 15321, Note_on_c, 0, 66, 0
2, 15323, Note_on_c, 0, 46, 43
2, 15344, Note_on_c, 0, 46, 0
2, 15361, Note_on_c, 0, 65, 58
2, 15364, Note_on_c, 0, 57, 44
2, 15365, Note_on_c, 0, 62, 36
2, 15366, Note_on_c, 0, 53, 55
2, 15368, Note_on_c, 0, 60, 39
2, 15368, Control_c, 0, 64, 0
2, 15430, Note_on_c, 0, 65, 0
2, 15442, Note_on_c, 0, 57, 0
2, 15442, Control_c, 0, 64, 127
2, 15444, Note_on_c, 0, 60, 0
2, 15448, Note_on_c, 0, 62, 0
2, 15455, Note_on_c, 0, 53, 0
2, 15484, Note_on_c, 0, 63, 42
2, 15484, Control_c, 0, 64, 0
2, 15485, Note_on_c, 0, 54, 44
2, 15485, Note_on_c, 0, 66, 40
2, 15486, Note_on_c, 0, 57, 44
2, 15487, Note_on_c, 0, 61, 46
2, 15534, Note_on_c, 0, 54, 0
2, 15537, Note_on_c, 0, 57, 0
2, 15541, Control_c, 0, 64, 127
2, 15560, Note_on_c, 0, 61, 0
2, 15560, Note_on_c, 0, 66, 0
2, 15569, Note_on_c, 0, 63, 0
2, 15596, Control_c, 0, 64, 0
2, 15605, Note_on_c, 0, 67, 43
2, 15606, Note_on_c, 0, 62, 43
2, 15606, Note_on_c, 0, 53, 40
2, 15610, Note_on_c, 0, 59, 28
2, 15611, Note_on_c, 0, 43, 24
2, 15618, Note_on_c, 0, 67, 0
2, 15624, Note_on_c, 0, 62, 0
2, 15643, Note_on_c, 0, 59, 0
2, 15653, Control_c, 0, 64, 127
2, 15683, Note_on_c, 0, 53, 0
2, 15687, Note_on_c, 0, 56, 44
2, 15688, Note_on_c, 0, 65, 48
2, 15689, Note_on_c, 0, 59, 53
2, 15691, Note_on_c, 0, 62, 38
2, 15693, Note_on_c, 0, 50, 35
2, 15698, Note_on_c, 0, 59, 0
2, 15698, Note_on_c, 0, 65, 0
2, 15700, Note_on_c, 0, 62, 0
2, 15700, Note_on_c, 0, 43, 0
2, 15700, Note_on_c, 0, 56, 0
2, 15718, Note_on_c, 0, 50, 0
2, 15727, Control_c, 0, 64, 0
2, 15731, Note_on_c, 0, 47, 35
2, 15782, Note_on_c, 0, 47, 0
2, 15783, Control_c, 0, 64, 127
2, 15805, Note_on_c, 0, 64, 54
2, 15807, Note_on_c, 0, 58, 47
2, 15809, Note_on_c, 0, 61, 38
2, 15812, Note_on_c, 0, 55, 19
2, 15818, Note_on_c, 0, 55, 0
2, 15828, Note_on_c, 0, 58, 0
2, 15829, Note_on_c, 0, 64, 0
2, 15831, Note_on_c, 0, 61, 0
2, 15832, Note_on_c, 0, 36, 50
2, 15848, Control_c, 0, 64, 0
2, 15858, Note_on_c, 0, 36, 0
2, 15879, Note_on_c, 0, 52, 33
2, 15879, Note_on_c, 0, 74, 65
2, 15880, Note_on_c, 0, 62, 60
2, 15880, Note_on_c, 0, 67, 66
2, 15881, Control_c, 0, 64, 127
2, 15884, Note_on_c, 0, 70, 43
2, 15888, Note_on_c, 0, 52, 0
2, 15929, Note_on_c, 0, 62, 0
2, 15931, Note_on_c, 0, 74, 0
2, 15933, Note_on_c, 0, 67, 0
2, 15943, Note_on_c, 0, 70, 0
2, 15962, Control_c, 0, 64, 0
2, 15963, Note_on_c, 0, 73, 36
2, 15964, Note_on_c, 0, 58, 40
2, 15966, Note_on_c, 0, 70, 35
2, 15968, Note_on_c, 0, 67, 37
2, 15973, Note_on_c, 0, 62, 22
2, 15986, Note_on_c, 0, 58, 0
2, 15988, Control_c, 0, 64, 127
2, 16004, Note_on_c, 0, 67, 0
2, 16005, Note_on_c, 0, 62, 0
2, 16016, Note_on_c, 0, 73, 0
2, 16029, Note_on_c, 0, 70, 0
2, 16039, Note_on_c, 0, 67, 44
2, 16039, Note_on_c, 0, 72, 47
2, 16039, Note_on_c, 0, 64, 41
2, 16067, Control_c, 0, 64, 0
2, 16074, Note_on_c, 0, 58, 34
2, 16076, Note_on_c, 0, 48, 34
2, 16091, Control_c, 0, 64, 127
2, 16102, Note_on_c, 0, 48, 0
2, 16117, Note_on_c, 0, 58, 0
2, 16202, Note_on_c, 0, 62, 61
2, 16203, Note_on_c, 0, 60, 62
2, 16206, Control_c, 0, 64, 0
2, 16223, Note_on_c, 0, 60, 0
2, 16226, Control_c, 0, 64, 127
2, 16252, Note_on_c, 0, 72, 0
2, 16267, Note_on_c, 0, 64, 0
2, 16289, Note_on_c, 0, 67, 0
2, 16289, Note_on_c, 0, 56, 21
2, 16291, Note_on_c, 0, 62, 0
2, 16318, Note_on_c, 0, 56, 0
2, 16318, Note_on_c, 0, 60, 43
2, 16318, Note_on_c, 0, 74, 52
2, 16320, Note_on_c, 0, 67, 51
2, 16320, Control_c, 0, 64, 0
2, 16322, Note_on_c, 0, 63, 47
2, 16362, Control_c, 0, 64, 127
2, 16414, Note_on_c, 0, 67, 0
2, 16415, Note_on_c, 0, 63, 0
2, 16426, Note_on_c, 0, 74, 0
2, 16439, Note_on_c, 0, 60, 0
2, 16439, Control_c, 0, 64, 0
2, 16443, Note_on_c, 0, 63, 38
2, 16444, Note_on_c, 0, 67, 36
2, 16445, Note_on_c, 0, 72, 41
2, 16447, Note_on_c, 0, 58, 33
2, 16457, Control_c, 0, 64, 127
2, 16476, Note_on_c, 0, 58, 0
2, 16480, Note_on_c, 0, 67, 0
2, 16487, Note_on_c, 0, 72, 0
2, 16489, Note_on_c, 0, 63, 0
2, 16498, Note_on_c, 0, 73, 21
2, 16518, Note_on_c, 0, 73, 0
2, 16554, Control_c, 0, 64, 0
2, 16555, Note_on_c, 0, 66, 40
2, 16558, Note_on_c, 0, 57, 33
2, 16559, Note_on_c, 0, 62, 33
2, 16559, Note_on_c, 0, 69, 42
2, 16559, Note_on_c, 0, 51, 31
2, 16582, Control_c, 0, 64, 127
2, 16586, Note_on_c, 0, 57, 0
2, 16598, Note_on_c, 0, 51, 0
2, 16642, Note_on_c, 0, 62, 0
2, 16646, Note_on_c, 0, 69, 0
2, 16651, Note_on_c, 0, 66, 0
2, 16676, Control_c, 0, 64, 0
2, 16678, Note_on_c, 0, 66, 34
2, 16678, Note_on_c, 0, 41, 40
2, 16680, Note_on_c, 0, 62, 38
2, 16682, Note_on_c, 0, 72, 40
2, 16690, Note_on_c, 0, 69, 20
2, 16710, Note_on_c, 0, 69, 0
2, 16712, Control_c, 0, 64, 127
2, 16725, Note_on_c, 0, 62, 0
2, 16744, Note_on_c, 0, 66, 0
2, 16749, Note_on_c, 0, 72, 0
2, 16800, Note_on_c, 0, 70, 45
2, 16804, Note_on_c, 0, 41, 0
2, 16804, Control_c, 0, 64, 0
2, 16805, Note_on_c, 0, 65, 44
2, 16805, Note_on_c, 0, 62, 31
2, 16805, Note_on_c, 0, 53, 50
2, 16806, Note_on_c, 0, 60, 29
2, 16844, Control_c, 0, 64, 127
2, 16874, Note_on_c, 0, 60, 0
2, 16882, Note_on_c, 0, 62, 0
2, 16882, Note_on_c, 0, 65, 0
2, 16884, Note_on_c, 0, 70, 0
2, 16888, Note_on_c, 0, 41, 53
2, 16908, Note_on_c, 0, 41, 0
2, 16928, Note_on_c, 0, 53, 0
2, 16934, Note_on_c, 0, 41, 47
2, 17010, Note_on_c, 0, 58, 46
2, 17010, Note_on_c, 0, 51, 37
2, 17010, Note_on_c, 0, 65, 49
2, 17012, Note_on_c, 0, 63, 27
2, 17012, Note_on_c, 0, 55, 47
2, 17019, Control_c, 0, 64, 0
2, 17032, Note_on_c, 0, 55, 0
2, 17048, Control_c, 0, 64, 127
2, 17067, Note_on_c, 0, 41, 0
2, 17073, Note_on_c, 0, 58, 0
2, 17077, Note_on_c, 0, 65, 0
2, 17091, Note_on_c, 0, 63, 0
2, 17128, Note_on_c, 0, 41, 69
2, 17129, Note_on_c, 0, 51, 0
2, 17148, Note_on_c, 0, 41, 0
2, 17250, Note_on_c, 0, 89, 92
2, 17274, Note_on_c, 0, 89, 0
2, 17289, Control_c, 0, 64, 0
2, 17291, Note_on_c, 0, 65, 38
2, 17293, Note_on_c, 0, 84, 57
2, 17294, Note_on_c, 0, 62, 34
2, 17295, Note_on_c, 0, 60, 40
2, 17309, Note_on_c, 0, 84, 0
2, 17314, Note_on_c, 0, 65, 0
2, 17328, Note_on_c, 0, 85, 54
2, 17345, Note_on_c, 0, 85, 0
2, 17359, Control_c, 0, 64, 127
2, 17368, Note_on_c, 0, 86, 63
2, 17391, Note_on_c, 0, 86, 0
2, 17396, Control_c, 0, 64, 0
2, 17405, Note_on_c, 0, 53, 28
2, 17413, Note_on_c, 0, 77, 32
2, 17435, Note_on_c, 0, 60, 0
2, 17436, Note_on_c, 0, 62, 0
2, 17441, Note_on_c, 0, 77, 0
2, 17443, Note_on_c, 0, 53, 0
2, 17443, Control_c, 0, 64, 127
2, 17450, Note_on_c, 0, 79, 43
2, 17472, Note_on_c, 0, 79, 0
2, 17494, Note_on_c, 0, 81, 54
2, 17510, Note_on_c, 0, 81, 0
2, 17513, Note_on_c, 0, 62, 42
2, 17522, Control_c, 0, 64, 0
2, 17523, Note_on_c, 0, 62, 0
2, 17570, Control_c, 0, 64, 127
2, 17634, Control_c, 0, 64, 0
2, 17640, Note_on_c, 0, 58, 42
2, 17642, Note_on_c, 0, 50, 41
2, 17691, Control_c, 0, 64, 127
2, 17704, Note_on_c, 0, 58, 0
2, 17711, Note_on_c, 0, 50, 0
2, 17724, Note_on_c, 0, 51, 44
2, 17725, Note_on_c, 0, 58, 14
2, 17741, Note_on_c, 0, 58, 0
2, 17752, Note_on_c, 0, 51, 0
2, 17766, Control_c, 0, 64, 0
2, 17766, Note_on_c, 0, 58, 30
2, 17770, Note_on_c, 0, 52, 38
2, 17781, Note_on_c, 0, 52, 0
2, 17783, Note_on_c, 0, 82, 42
2, 17786, Note_on_c, 0, 58, 0
2, 17791, Note_on_c, 0, 82, 0
2, 17799, Note_on_c, 0, 86, 67
2, 17810, Note_on_c, 0, 82, 36
2, 17827, Note_on_c, 0, 86, 0
2, 17828, Note_on_c, 0, 79, 49
2, 17839, Note_on_c, 0, 82, 0
2, 17839, Control_c, 0, 64, 127
2, 17851, Note_on_c, 0, 79, 0
2, 17854, Note_on_c, 0, 76, 48
2, 17872, Note_on_c, 0, 76, 0
2, 17872, Note_on_c, 0, 58, 46
2, 17883, Note_on_c, 0, 75, 36
2, 17885, Control_c, 0, 64, 0
2, 17890, Note_on_c, 0, 58, 0
2, 17894, Note_on_c, 0, 75, 0
2, 17897, Note_on_c, 0, 74, 52
2, 17914, Note_on_c, 0, 74, 0
2, 17920, Note_on_c, 0, 73, 42
2, 17938, Note_on_c, 0, 73, 0
2, 17943, Note_on_c, 0, 72, 45
2, 17956, Note_on_c, 0, 72, 0
2, 17962, Note_on_c, 0, 71, 37
2, 17970, Control_c, 0, 64, 127
2, 17975, Note_on_c, 0, 71, 0
2, 17987, Control_c, 0, 64, 0
2, 17988, Note_on_c, 0, 70, 51
2, 17994, Note_on_c, 0, 70, 0
2, 18011, Note_on_c, 0, 74, 60
2, 18025, Note_on_c, 0, 70, 36
2, 18036, Note_on_c, 0, 74, 0
2, 18041, Note_on_c, 0, 67, 49
2, 18046, Note_on_c, 0, 70, 0
2, 18051, Note_on_c, 0, 67, 0
2, 18062, Note_on_c, 0, 64, 57
2, 18066, Control_c, 0, 64, 127
2, 18078, Note_on_c, 0, 64, 0
2, 18089, Note_on_c, 0, 63, 36
2, 18102, Note_on_c, 0, 63, 0
2, 18102, Note_on_c, 0, 52, 20
2, 18104, Control_c, 0, 64, 0
2, 18104, Note_on_c, 0, 42, 21
2, 18106, Note_on_c, 0, 62, 53
2, 18124, Note_on_c, 0, 52, 0
2, 18125, Note_on_c, 0, 62, 0
2, 18127, Note_on_c, 0, 61, 49
2, 18138, Note_on_c, 0, 61, 0
2, 18148, Note_on_c, 0, 60, 32
2, 18167, Note_on_c, 0, 60, 0
2, 18178, Note_on_c, 0, 59, 40
2, 18180, Control_c, 0, 64, 127
2, 18196, Note_on_c, 0, 59, 0
2, 18199, Note_on_c, 0, 42, 0
2, 18199, Note_on_c, 0, 58, 42
2, 18220, Note_on_c, 0, 58, 0
2, 18229, Note_on_c, 0, 51, 43
2, 18233, Control_c, 0, 64, 0
2, 18237, Note_on_c, 0, 41, 31
2, 18309, Note_on_c, 0, 56, 57
2, 18311, Note_on_c, 0, 51, 0
2, 18314, Control_c, 0, 64, 127
2, 18327, Note_on_c, 0, 56, 0
2, 18332, Note_on_c, 0, 58, 47
2, 18344, Note_on_c, 0, 51, 27
2, 18350, Note_on_c, 0, 56, 29
2, 18357, Note_on_c, 0, 58, 0
2, 18357, Control_c, 0, 64, 0
2, 18368, Note_on_c, 0, 56, 0
2, 18371, Note_on_c, 0, 55, 51
2, 18382, Note_on_c, 0, 41, 0
2, 18383, Note_on_c, 0, 51, 0
2, 18387, Note_on_c, 0, 55, 0
2, 18407, Note_on_c, 0, 56, 62
2, 18428, Note_on_c, 0, 56, 0
2, 18441, Note_on_c, 0, 57, 51
2, 18460, Note_on_c, 0, 57, 0
2, 18474, Note_on_c, 0, 51, 20
2, 18475, Note_on_c, 0, 58, 47
2, 18490, Note_on_c, 0, 58, 0
2, 18517, Note_on_c, 0, 51, 0
2, 18530, Note_on_c, 0, 61, 55
2, 18564, Note_on_c, 0, 57, 40
2, 18568, Note_on_c, 0, 61, 0
2, 18571, Note_on_c, 0, 57, 0
2, 18584, Note_on_c, 0, 53, 31
2, 18589, Control_c, 0, 64, 127
2, 18598, Note_on_c, 0, 53, 0
2, 18606, Note_on_c, 0, 51, 25
2, 18609, Control_c, 0, 64, 0
2, 18658, Note_on_c, 0, 63, 56
2, 18674, Note_on_c, 0, 51, 0
2, 18678, Note_on_c, 0, 59, 33
2, 18691, Note_on_c, 0, 63, 0
2, 18694, Control_c, 0, 64, 127
2, 18696, Note_on_c, 0, 59, 0
2, 18698, Note_on_c, 0, 55, 24
2, 18709, Note_on_c, 0, 55, 0
2, 18722, Note_on_c, 0, 65, 68
2, 18729, Control_c, 0, 64, 0
2, 18733, Note_on_c, 0, 46, 32
2, 18742, Note_on_c, 0, 65, 0
2, 18746, Note_on_c, 0, 62, 37
2, 18757, Note_on_c, 0, 62, 0
2, 18820, Control_c, 0, 64, 127
2, 18852, Note_on_c, 0, 57, 53
2, 18879, Note_on_c, 0, 57, 0
2, 18918, Note_on_c, 0, 46, 0
2, 18924, Note_on_c, 0, 62, 64
2, 18925, Note_on_c, 0, 69, 51
2, 18928, Note_on_c, 0, 58, 36
2, 18929, Note_on_c, 0, 53, 56
2, 18932, Note_on_c, 0, 62, 0
2, 18932, Note_on_c, 0, 65, 41
2, 18934, Note_on_c, 0, 58, 0
2, 18940, Note_on_c, 0, 65, 0
2, 18942, Note_on_c, 0, 69, 0
2, 18949, Note_on_c, 0, 53, 0
2, 18968, Control_c, 0, 64, 0
2, 18969, Note_on_c, 0, 66, 53
2, 18969, Note_on_c, 0, 57, 77
2, 18970, Note_on_c, 0, 72, 73
2, 18970, Note_on_c, 0, 62, 73
2, 18974, Note_on_c, 0, 65, 58
2, 18979, Note_on_c, 0, 69, 46
2, 19004, Control_c, 0, 64, 127
2, 19023, Note_on_c, 0, 66, 0
2, 19028, Note_on_c, 0, 65, 0
2, 19028, Note_on_c, 0, 62, 0
2, 19032, Note_on_c, 0, 69, 0
2, 19035, Note_on_c, 0, 72, 0
2, 19045, Note_on_c, 0, 58, 70
2, 19048, Note_on_c, 0, 73, 55
2, 19049, Note_on_c, 0, 62, 44
2, 19053, Note_on_c, 0, 65, 49
2, 19056, Note_on_c, 0, 57, 0
2, 19075, Note_on_c, 0, 62, 0
2, 19075, Note_on_c, 0, 65, 0
2, 19076, Note_on_c, 0, 73, 0
2, 19077, Control_c, 0, 64, 0
2, 19091, Note_on_c, 0, 72, 43
2, 19096, Note_on_c, 0, 58, 0
2, 19096, Note_on_c, 0, 57, 53
2, 19096, Note_on_c, 0, 62, 37
2, 19100, Note_on_c, 0, 65, 30
2, 19107, Control_c, 0, 64, 127
2, 19132, Note_on_c, 0, 65, 0
2, 19134, Note_on_c, 0, 62, 0
2, 19143, Note_on_c, 0, 72, 0
2, 19145, Note_on_c, 0, 57, 0
2, 19172, Note_on_c, 0, 55, 36
2, 19189, Note_on_c, 0, 55, 0
2, 19200, Control_c, 0, 64, 0
2, 19204, Note_on_c, 0, 72, 66
2, 19206, Note_on_c, 0, 65, 65
2, 19208, Note_on_c, 0, 62, 52
2, 19210, Note_on_c, 0, 57, 48
2, 19230, Note_on_c, 0, 57, 0
2, 19230, Control_c, 0, 64, 127
2, 19248, Note_on_c, 0, 62, 0
2, 19275, Note_on_c, 0, 65, 0
2, 19326, Note_on_c, 0, 65, 46
2, 19328, Note_on_c, 0, 62, 38
2, 19331, Control_c, 0, 64, 0
2, 19336, Note_on_c, 0, 60, 36
2, 19350, Control_c, 0, 64, 127
2, 19351, Note_on_c, 0, 65, 0
2, 19404, Note_on_c, 0, 72, 0
2, 19411, Note_on_c, 0, 53, 49
2, 19413, Note_on_c, 0, 65, 35
2, 19431, Control_c, 0, 64, 0
2, 19448, Note_on_c, 0, 60, 0
2, 19453, Control_c, 0, 64, 127
2, 19468, Note_on_c, 0, 62, 0
2, 19480, Note_on_c, 0, 65, 0
2, 19487, Note_on_c, 0, 67, 46
2, 19513, Note_on_c, 0, 67, 0
2, 19529, Note_on_c, 0, 69, 73
2, 19551, Note_on_c, 0, 69, 0
2, 19562, Note_on_c, 0, 60, 30
2, 19565, Note_on_c, 0, 65, 32
2, 19568, Control_c, 0, 64, 0
2, 19568, Note_on_c, 0, 70, 60
2, 19576, Note_on_c, 0, 65, 0
2, 19595, Note_on_c, 0, 70, 0
2, 19595, Note_on_c, 0, 60, 0
2, 19604, Note_on_c, 0, 71, 58
2, 19614, Note_on_c, 0, 53, 0
2, 19625, Control_c, 0, 64, 127
2, 19628, Note_on_c, 0, 71, 0
2, 19642, Note_on_c, 0, 72, 67
2, 19665, Note_on_c, 0, 72, 0
2, 19676, Control_c, 0, 64, 0
2, 19679, Note_on_c, 0, 62, 26
2, 19681, Note_on_c, 0, 58, 33
2, 19683, Note_on_c, 0, 52, 25
2, 19686, Note_on_c, 0, 73, 39
2, 19693, Note_on_c, 0, 62, 0
2, 19694, Note_on_c, 0, 52, 0
2, 19705, Note_on_c, 0, 58, 0
2, 19711, Note_on_c, 0, 73, 0
2, 19720, Note_on_c, 0, 74, 50
2, 19744, Note_on_c, 0, 74, 0
2, 19758, Note_on_c, 0, 70, 48
2, 19769, Control_c, 0, 64, 127
2, 19782, Note_on_c, 0, 70, 0
2, 19785, Control_c, 0, 64, 0
2, 19799, Note_on_c, 0, 50, 34
2, 19801, Note_on_c, 0, 58, 20
2, 19854, Note_on_c, 0, 58, 0
2, 19871, Note_on_c, 0, 50, 0
2, 19871, Control_c, 0, 64, 127
2, 19877, Note_on_c, 0, 58, 37
2, 19880, Note_on_c, 0, 51, 43
2, 19900, Note_on_c, 0, 58, 0
2, 19910, Note_on_c, 0, 51, 0
2, 19910, Control_c, 0, 64, 0
2, 19917, Note_on_c, 0, 58, 36
2, 19924, Note_on_c, 0, 52, 45
2, 19950, Control_c, 0, 64, 127
2, 19964, Note_on_c, 0, 58, 0
2, 19988, Note_on_c, 0, 52, 0
2, 19993, Note_on_c, 0, 66, 59
2, 19995, Note_on_c, 0, 74, 62
2, 19996, Note_on_c, 0, 58, 48
2, 19996, Note_on_c, 0, 62, 64
2, 19998, Note_on_c, 0, 69, 58
2, 20007, Control_c, 0, 64, 0
2, 20041, Control_c, 0, 64, 127
2, 20083, Note_on_c, 0, 62, 0
2, 20094, Note_on_c, 0, 69, 0
2, 20099, Note_on_c, 0, 66, 0
2, 20099, Note_on_c, 0, 74, 0
2, 20104, Note_on_c, 0, 58, 0
2, 20115, Note_on_c, 0, 52, 57
2, 20122, Note_on_c, 0, 52, 0
2, 20232, Control_c, 0, 64, 0
2, 20233, Note_on_c, 0, 30, 83
2, 20260, Note_on_c, 0, 30, 0
2, 20266, Control_c, 0, 64, 127
2, 20318, Note_on_c, 0, 75, 73
2, 20318, Note_on_c, 0, 68, 77
2, 20320, Note_on_c, 0, 72, 70
2, 20321, Control_c, 0, 64, 0
2, 20322, Note_on_c, 0, 64, 74
2, 20323, Note_on_c, 0, 63, 82
2, 20345, Control_c, 0, 64, 127
2, 20374, Note_on_c, 0, 64, 0
2, 20378, Note_on_c, 0, 68, 0
2, 20383, Note_on_c, 0, 75, 0
2, 20383, Note_on_c, 0, 72, 0
2, 20391, Note_on_c, 0, 63, 0
2, 20392, Control_c, 0, 64, 0
2, 20397, Note_on_c, 0, 68, 60
2, 20398, Note_on_c, 0, 73, 43
2, 20401, Note_on_c, 0, 61, 59
2, 20401, Note_on_c, 0, 64, 44
2, 20416, Control_c, 0, 64, 127
2, 20450, Note_on_c, 0, 64, 0
2, 20451, Note_on_c, 0, 68, 0
2, 20471, Note_on_c, 0, 73, 0
2, 20484, Note_on_c, 0, 68, 59
2, 20485, Note_on_c, 0, 72, 65
2, 20485, Note_on_c, 0, 64, 63
2, 20486, Note_on_c, 0, 61, 0
2, 20489, Note_on_c, 0, 60, 57
2, 20501, Control_c, 0, 64, 0
2, 20515, Control_c, 0, 64, 127
2, 20525, Note_on_c, 0, 72, 0
2, 20535, Note_on_c, 0, 68, 0
2, 20537, Note_on_c, 0, 60, 0
2, 20546, Note_on_c, 0, 64, 0
2, 20595, Note_on_c, 0, 56, 51
2, 20602, Note_on_c, 0, 63, 39
2, 20604, Note_on_c, 0, 57, 47
2, 20604, Note_on_c, 0, 69, 47
2, 20604, Note_on_c, 0, 65, 46
2, 20604, Note_on_c, 0, 60, 46
2, 20612, Note_on_c, 0, 56, 0
2, 20612, Control_c, 0, 64, 0
2, 20648, Note_on_c, 0, 57, 0
2, 20673, Control_c, 0, 64, 127
2, 20711, Note_on_c, 0, 60, 0
2, 20720, Note_on_c, 0, 65, 0
2, 20720, Note_on_c, 0, 41, 71
2, 20728, Note_on_c, 0, 63, 0
2, 20730, Note_on_c, 0, 69, 0
2, 20750, Note_on_c, 0, 41, 0
2, 20768, Note_on_c, 0, 48, 45
2, 20775, Note_on_c, 0, 48, 0
2, 20850, Note_on_c, 0, 63, 46
2, 20850, Note_on_c, 0, 77, 62
2, 20851, Note_on_c, 0, 68, 62
2, 20853, Note_on_c, 0, 73, 33
2, 20865, Note_on_c, 0, 68, 0
2, 20873, Note_on_c, 0, 73, 0
2, 20874, Note_on_c, 0, 77, 0
2, 20880, Note_on_c, 0, 63, 0
2, 20892, Note_on_c, 0, 66, 38
2, 20895, Note_on_c, 0, 75, 48
2, 20896, Control_c, 0, 64, 0
2, 20896, Note_on_c, 0, 61, 47
2, 20897, Note_on_c, 0, 71, 40
2, 20920, Control_c, 0, 64, 127
2, 20939, Note_on_c, 0, 71, 0
2, 20951, Note_on_c, 0, 75, 0
2, 20962, Note_on_c, 0, 66, 0
2, 20997, Note_on_c, 0, 61, 0
2, 21004, Control_c, 0, 64, 0
2, 21010, Note_on_c, 0, 73, 27
2, 21012, Note_on_c, 0, 59, 18
2, 21015, Note_on_c, 0, 69, 36
2, 21022, Control_c, 0, 64, 127
2, 21025, Note_on_c, 0, 59, 0
2, 21065, Note_on_c, 0, 69, 0
2, 21078, Note_on_c, 0, 73, 0
2, 21120, Control_c, 0, 64, 0
2, 21122, Note_on_c, 0, 65, 34
2, 21125, Note_on_c, 0, 62, 29
2, 21125, Note_on_c, 0, 60, 36
2, 21144, Control_c, 0, 64, 127
2, 21153, Note_on_c, 0, 65, 0
2, 21202, Note_on_c, 0, 53, 48
2, 21230, Note_on_c, 0, 62, 0
2, 21233, Control_c, 0, 64, 0
2, 21234, Note_on_c, 0, 60, 0
2, 21248, Note_on_c, 0, 72, 42
2, 21271, Note_on_c, 0, 72, 0
2, 21284, Note_on_c, 0, 73, 33
2, 21305, Note_on_c, 0, 73, 0
2, 21321, Note_on_c, 0, 74, 56
2, 21327, Note_on_c, 0, 65, 41
2, 21330, Note_on_c, 0, 60, 34
2, 21330, Note_on_c, 0, 62, 29
2, 21345, Note_on_c, 0, 74, 0
2, 21357, Note_on_c, 0, 65, 0
2, 21363, Note_on_c, 0, 77, 46
2, 21375, Note_on_c, 0, 53, 0
2, 21384, Note_on_c, 0, 77, 0
2, 21399, Note_on_c, 0, 79, 68
2, 21423, Note_on_c, 0, 79, 0
2, 21438, Note_on_c, 0, 77, 64
2, 21457, Note_on_c, 0, 77, 0
2, 21481, Note_on_c, 0, 53, 24
2, 21509, Note_on_c, 0, 80, 72
2, 21530, Note_on_c, 0, 80, 0
2, 21535, Note_on_c, 0, 53, 0
2, 21537, Note_on_c, 0, 82, 55
2, 21540, Note_on_c, 0, 62, 0
2, 21557, Control_c, 0, 64, 127
2, 21558, Note_on_c, 0, 60, 0
2, 21560, Note_on_c, 0, 80, 53
2, 21572, Note_on_c, 0, 82, 0
2, 21585, Note_on_c, 0, 77, 52
2, 21586, Note_on_c, 0, 80, 0
2, 21600, Control_c, 0, 64, 0
2, 21602, Note_on_c, 0, 77, 0
2, 21608, Note_on_c, 0, 63, 38
2, 21608, Note_on_c, 0, 67, 41
2, 21612, Note_on_c, 0, 60, 34
2, 21612, Note_on_c, 0, 56, 29
2, 21674, Control_c, 0, 64, 127
2, 21693, Note_on_c, 0, 67, 0
2, 21712, Note_on_c, 0, 63, 0
2, 21724, Note_on_c, 0, 65, 55
2, 21724, Note_on_c, 0, 63, 26
2, 21726, Control_c, 0, 64, 0
2, 21726, Note_on_c, 0, 87, 77
2, 21740, Note_on_c, 0, 65, 0
2, 21741, Note_on_c, 0, 87, 0
2, 21747, Note_on_c, 0, 89, 64
2, 21760, Note_on_c, 0, 56, 0
2, 21762, Note_on_c, 0, 63, 0
2, 21762, Note_on_c, 0, 87, 35
2, 21769, Control_c, 0, 64, 127
2, 21770, Note_on_c, 0, 89, 0
2, 21771, Note_on_c, 0, 60, 0
2, 21785, Note_on_c, 0, 87, 0
2, 21825, Note_on_c, 0, 94, 77
2, 21845, Note_on_c, 0, 94, 0
2, 21846, Control_c, 0, 64, 0
2, 21850, Note_on_c, 0, 67, 33
2, 21851, Note_on_c, 0, 62, 41
2, 21856, Note_on_c, 0, 56, 19
2, 21858, Note_on_c, 0, 67, 0
2, 21868, Note_on_c, 0, 62, 0
2, 21874, Control_c, 0, 64, 127
2, 21878, Note_on_c, 0, 56, 0
2, 21928, Note_on_c, 0, 38, 76
2, 21947, Control_c, 0, 64, 0
2, 21965, Note_on_c, 0, 50, 54
2, 21981, Control_c, 0, 64, 127
2, 21997, Note_on_c, 0, 38, 0
2, 22020, Note_on_c, 0, 50, 0
2, 22043, Note_on_c, 0, 39, 62
2, 22068, Control_c, 0, 64, 0
2, 22083, Note_on_c, 0, 51, 56
2, 22083, Note_on_c, 0, 97, 52
2, 22087, Note_on_c, 0, 85, 35
2, 22089, Note_on_c, 0, 94, 39
2, 22091, Note_on_c, 0, 91, 36
2, 22097, Note_on_c, 0, 39, 0
2, 22104, Note_on_c, 0, 51, 0
2, 22107, Control_c, 0, 64, 127
2, 22117, Control_c, 0, 64, 0
2, 22118, Note_on_c, 0, 97, 0
2, 22121, Note_on_c, 0, 85, 0
2, 22123, Control_c, 0, 64, 127
2, 22132, Note_on_c, 0, 86, 20
2, 22140, Note_on_c, 0, 98, 9
2, 22143, Note_on_c, 0, 91, 0
2, 22145, Note_on_c, 0, 86, 0
2, 22153, Note_on_c, 0, 94, 0
2, 22157, Note_on_c, 0, 98, 0
2, 22192, Control_c, 0, 64, 0
2, 22196, Note_on_c, 0, 65, 66
2, 22197, Note_on_c, 0, 101, 78
2, 22198, Note_on_c, 0, 89, 60
2, 22200, Note_on_c, 0, 58, 36
2, 22200, Note_on_c, 0, 60, 54
2, 22200, Note_on_c, 0, 96, 68
2, 22204, Note_on_c, 0, 65, 0
2, 22208, Note_on_c, 0, 55, 24
2, 22210, Note_on_c, 0, 60, 0
2, 22219, Note_on_c, 0, 55, 0
2, 22223, Note_on_c, 0, 58, 0
2, 22223, Note_on_c, 0, 96, 0
2, 22225, Note_on_c, 0, 101, 0
2, 22228, Note_on_c, 0, 89, 0
2, 22261, Control_c, 0, 64, 127
2, 22280, Note_on_c, 0, 39, 25
2, 22285, Note_on_c, 0, 46, 18
2, 22291, Note_on_c, 0, 39, 0
2, 22298, Control_c, 0, 64, 0
2, 22316, Note_on_c, 0, 94, 56
2, 22316, Note_on_c, 0, 99, 56
2, 22319, Note_on_c, 0, 87, 34
2, 22327, Note_on_c, 0, 54, 18
2, 22332, Control_c, 0, 64, 127
2, 22345, Note_on_c, 0, 46, 0
2, 22349, Note_on_c, 0, 94, 0
2, 22351, Note_on_c, 0, 54, 0
2, 22352, Note_on_c, 0, 99, 0
2, 22355, Note_on_c, 0, 87, 0
2, 22400, Note_on_c, 0, 96, 64
2, 22401, Note_on_c, 0, 91, 55
2, 22401, Note_on_c, 0, 84, 40
2, 22426, Control_c, 0, 64, 0
2, 22433, Note_on_c, 0, 65, 45
2, 22436, Note_on_c, 0, 58, 35
2, 22439, Note_on_c, 0, 54, 30
2, 22440, Note_on_c, 0, 65, 0
2, 22440, Note_on_c, 0, 60, 44
2, 22450, Note_on_c, 0, 60, 0
2, 22454, Control_c, 0, 64, 127
2, 22460, Note_on_c, 0, 58, 0
2, 22463, Note_on_c, 0, 54, 0
2, 22469, Note_on_c, 0, 91, 0
2, 22488, Note_on_c, 0, 84, 0
2, 22496, Note_on_c, 0, 96, 0
2, 22517, Note_on_c, 0, 92, 73
2, 22517, Note_on_c, 0, 96, 80
2, 22518, Note_on_c, 0, 54, 61
2, 22519, Note_on_c, 0, 44, 54
2, 22519, Note_on_c, 0, 89, 77
2, 22520, Note_on_c, 0, 84, 65
2, 22525, Control_c, 0, 64, 0
2, 22529, Note_on_c, 0, 43, 30
2, 22538, Note_on_c, 0, 43, 0
2, 22558, Control_c, 0, 64, 127
2, 22564, Note_on_c, 0, 44, 0
2, 22573, Note_on_c, 0, 54, 0
2, 22589, Note_on_c, 0, 84, 0
2, 22592, Note_on_c, 0, 89, 0
2, 22597, Note_on_c, 0, 92, 0
2, 22598, Note_on_c, 0, 96, 0
2, 22643, Note_on_c, 0, 96, 74
2, 22645, Note_on_c, 0, 92, 55
2, 22645, Note_on_c, 0, 84, 60
2, 22646, Note_on_c, 0, 89, 64
2, 22663, Note_on_c, 0, 84, 0
2, 22666, Note_on_c, 0, 96, 0
2, 22670, Note_on_c, 0, 89, 0
2, 22672, Note_on_c, 0, 92, 0
2, 22687, Control_c, 0, 64, 0
2, 22688, Note_on_c, 0, 66, 71
2, 22688, Note_on_c, 0, 61, 56
2, 22688, Note_on_c, 0, 55, 69
2, 22688, Note_on_c, 0, 95, 72
2, 22689, Note_on_c, 0, 58, 49
2, 22690, Note_on_c, 0, 89, 57
2, 22692, Note_on_c, 0, 83, 41
2, 22726, Note_on_c, 0, 89, 0
2, 22727, Control_c, 0, 64, 127
2, 22730, Note_on_c, 0, 83, 0
2, 22740, Note_on_c, 0, 95, 0
2, 22766, Note_on_c, 0, 95, 57
2, 22767, Note_on_c, 0, 89, 62
2, 22768, Note_on_c, 0, 83, 39
2, 22773, Note_on_c, 0, 95, 0
2, 22774, Note_on_c, 0, 55, 0
2, 22777, Note_on_c, 0, 83, 0
2, 22782, Note_on_c, 0, 66, 0
2, 22795, Note_on_c, 0, 89, 0
2, 22796, Note_on_c, 0, 61, 0
2, 22801, Control_c, 0, 64, 0
2, 22810, Note_on_c, 0, 94, 62
2, 22810, Note_on_c, 0, 60, 44
2, 22811, Note_on_c, 0, 65, 50
2, 22811, Note_on_c, 0, 89, 50
2, 22812, Note_on_c, 0, 54, 38
2, 22817, Note_on_c, 0, 94, 0
2, 22827, Control_c, 0, 64, 127
2, 22833, Note_on_c, 0, 82, 5
2, 22838, Note_on_c, 0, 65, 0
2, 22850, Note_on_c, 0, 89, 0
2, 22851, Note_on_c, 0, 60, 0
2, 22860, Note_on_c, 0, 58, 0
2, 22860, Note_on_c, 0, 82, 0
2, 22864, Note_on_c, 0, 54, 0
2, 22998, Note_on_c, 0, 73, 47
2, 23001, Note_on_c, 0, 63, 51
2, 23003, Note_on_c, 0, 68, 55
2, 23018, Note_on_c, 0, 68, 0
2, 23026, Note_on_c, 0, 73, 0
2, 23035, Note_on_c, 0, 63, 0
2, 23047, Note_on_c, 0, 58, 34
2, 23048, Control_c, 0, 64, 0
2, 23048, Note_on_c, 0, 50, 44
2, 23051, Note_on_c, 0, 70, 42
2, 23053, Note_on_c, 0, 62, 30
2, 23082, Control_c, 0, 64, 127
2, 23108, Note_on_c, 0, 62, 0
2, 23116, Note_on_c, 0, 58, 0
2, 23122, Note_on_c, 0, 70, 0
2, 23166, Note_on_c, 0, 73, 34
2, 23166, Note_on_c, 0, 59, 54
2, 23166, Note_on_c, 0, 68, 60
2, 23169, Note_on_c, 0, 70, 49
2, 23171, Control_c, 0, 64, 0
2, 23201, Control_c, 0, 64, 127
2, 23227, Note_on_c, 0, 68, 0
2, 23237, Note_on_c, 0, 70, 0
2, 23238, Note_on_c, 0, 73, 0
2, 23246, Note_on_c, 0, 59, 0
2, 23288, Note_on_c, 0, 74, 36
2, 23290, Note_on_c, 0, 60, 39
2, 23292, Note_on_c, 0, 69, 49
2, 23293, Control_c, 0, 64, 0
2, 23293, Note_on_c, 0, 64, 37
2, 23317, Control_c, 0, 64, 127
2, 23338, Note_on_c, 0, 69, 0
2, 23342, Note_on_c, 0, 50, 0
2, 23349, Note_on_c, 0, 60, 0
2, 23371, Note_on_c, 0, 64, 0
2, 23376, Note_on_c, 0, 74, 0
2, 23408, Note_on_c, 0, 49, 36
2, 23408, Note_on_c, 0, 65, 34
2, 23408, Note_on_c, 0, 59, 32
2, 23411, Control_c, 0, 64, 0
2, 23444, Control_c, 0, 64, 127
2, 23457, Note_on_c, 0, 59, 0
2, 23482, Note_on_c, 0, 62, 48
2, 23486, Note_on_c, 0, 65, 0
2, 23498, Note_on_c, 0, 49, 0
2, 23520, Note_on_c, 0, 58, 25
2, 23520, Note_on_c, 0, 48, 35
2, 23523, Control_c, 0, 64, 0
2, 23534, Note_on_c, 0, 48, 0
2, 23547, Control_c, 0, 64, 127
2, 23560, Note_on_c, 0, 58, 0
2, 23560, Note_on_c, 0, 62, 0
2, 23566, Note_on_c, 0, 67, 64
2, 23566, Note_on_c, 0, 74, 63
2, 23617, Note_on_c, 0, 67, 0
2, 23636, Note_on_c, 0, 74, 0
2, 23638, Note_on_c, 0, 58, 55
2, 23638, Note_on_c, 0, 70, 52
2, 23638, Note_on_c, 0, 67, 40
2, 23639, Note_on_c, 0, 62, 59
2, 23640, Control_c, 0, 64, 0
2, 23652, Note_on_c, 0, 67, 0
2, 23652, Note_on_c, 0, 58, 0
2, 23654, Note_on_c, 0, 62, 0
2, 23657, Note_on_c, 0, 70, 0
2, 23718, Note_on_c, 0, 50, 61
2, 23721, Control_c, 0, 64, 127
2, 23752, Note_on_c, 0, 50, 0
2, 23754, Control_c, 0, 64, 0
2, 23767, Note_on_c, 0, 51, 39
2, 23837, Note_on_c, 0, 58, 45
2, 23839, Note_on_c, 0, 62, 59
2, 23841, Note_on_c, 0, 64, 50
2, 23846, Note_on_c, 0, 51, 0
2, 23846, Note_on_c, 0, 52, 50
2, 23889, Control_c, 0, 64, 127
2, 23917, Note_on_c, 0, 58, 0
2, 23924, Note_on_c, 0, 64, 0
2, 23924, Note_on_c, 0, 62, 0
2, 23943, Note_on_c, 0, 52, 0
2, 24017, Control_c, 0, 64, 0
2, 24021, Note_on_c, 0, 68, 84
2, 24021, Note_on_c, 0, 77, 78
2, 24022, Note_on_c, 0, 72, 82
2, 24025, Note_on_c, 0, 65, 83
2, 24059, Control_c, 0, 64, 127
2, 24069, Note_on_c, 0, 72, 0
2, 24071, Note_on_c, 0, 77, 0
2, 24079, Note_on_c, 0, 68, 0
2, 24082, Note_on_c, 0, 65, 0
2, 24132, Note_on_c, 0, 66, 57
2, 24135, Note_on_c, 0, 72, 62
2, 24137, Note_on_c, 0, 60, 48
2, 24137, Control_c, 0, 64, 0
2, 24143, Note_on_c, 0, 56, 32
2, 24164, Control_c, 0, 64, 127
2, 24168, Note_on_c, 0, 60, 0
2, 24182, Note_on_c, 0, 72, 0
2, 24191, Note_on_c, 0, 66, 0
2, 24198, Note_on_c, 0, 56, 0
2, 24247, Note_on_c, 0, 73, 46
2, 24249, Control_c, 0, 64, 0
2, 24252, Note_on_c, 0, 57, 51
2, 24254, Note_on_c, 0, 69, 50
2, 24254, Note_on_c, 0, 65, 38
2, 24285, Note_on_c, 0, 69, 0
2, 24285, Control_c, 0, 64, 127
2, 24296, Note_on_c, 0, 73, 0
2, 24301, Note_on_c, 0, 65, 0
2, 24349, Note_on_c, 0, 57, 0
2, 24359, Control_c, 0, 64, 0
2, 24362, Note_on_c, 0, 65, 44
2, 24365, Note_on_c, 0, 62, 16
2, 24367, Note_on_c, 0, 53, 29
2, 24400, Note_on_c, 0, 62, 0
2, 24411, Control_c, 0, 64, 127
2, 24418, Note_on_c, 0, 65, 0
2, 24441, Note_on_c, 0, 70, 52
2, 24442, Note_on_c, 0, 65, 47
2, 24444, Note_on_c, 0, 53, 0
2, 24447, Note_on_c, 0, 55, 45
2, 24451, Note_on_c, 0, 60, 27
2, 24454, Control_c, 0, 64, 0
2, 24467, Note_on_c, 0, 55, 0
2, 24502, Control_c, 0, 64, 127
2, 24534, Note_on_c, 0, 65, 0
2, 24543, Note_on_c, 0, 70, 0
2, 24557, Note_on_c, 0, 41, 58
2, 24558, Note_on_c, 0, 60, 0
2, 24589, Note_on_c, 0, 41, 0
2, 24597, Control_c, 0, 64, 0
2, 24611, Note_on_c, 0, 41, 34
2, 24641, Note_on_c, 0, 41, 0
2, 24670, Control_c, 0, 64, 127
2, 24680, Note_on_c, 0, 41, 46
2, 24712, Control_c, 0, 64, 0
2, 24730, Note_on_c, 0, 51, 37
2, 24730, Note_on_c, 0, 57, 44
2, 24730, Note_on_c, 0, 61, 34
2, 24731, Note_on_c, 0, 65, 44
2, 24734, Note_on_c, 0, 63, 33
2, 24749, Control_c, 0, 64, 127
2, 24751, Note_on_c, 0, 57, 0
2, 24755, Note_on_c, 0, 61, 0
2, 24762, Note_on_c, 0, 63, 0
2, 24766, Note_on_c, 0, 51, 0
2, 24772, Note_on_c, 0, 65, 0
2, 24809, Note_on_c, 0, 61, 39
2, 24809, Note_on_c, 0, 51, 36
2, 24810, Note_on_c, 0, 57, 34
2, 24811, Note_on_c, 0, 65, 38
2, 24813, Note_on_c, 0, 63, 33
2, 24831, Note_on_c, 0, 57, 0
2, 24847, Note_on_c, 0, 61, 0
2, 24848, Note_on_c, 0, 65, 0
2, 24849, Note_on_c, 0, 63, 0
2, 24850, Note_on_c, 0, 41, 0
2, 24861, Note_on_c, 0, 51, 0
2, 24959, Control_c, 0, 64, 0
2, 24960, Note_on_c, 0, 58, 50
2, 24965, Note_on_c, 0, 50, 50
2, 24969, Note_on_c, 0, 65, 66
2, 24977, Note_on_c, 0, 65, 0
2, 24980, Note_on_c, 0, 67, 51
2, 24983, Note_on_c, 0, 58, 0
2, 25009, Note_on_c, 0, 50, 0
2, 25009, Note_on_c, 0, 65, 46
2, 25014, Note_on_c, 0, 67, 0
2, 25040, Note_on_c, 0, 65, 0
2, 25044, Note_on_c, 0, 64, 45
2, 25046, Control_c, 0, 64, 127
2, 25064, Note_on_c, 0, 64, 0
2, 25078, Control_c, 0, 64, 0
2, 25082, Note_on_c, 0, 65, 66
2, 25084, Note_on_c, 0, 44, 31
2, 25085, Note_on_c, 0, 54, 25
2, 25144, Note_on_c, 0, 65, 0
2, 25155, Control_c, 0, 64, 127
2, 25158, Note_on_c, 0, 54, 0
2, 25159, Note_on_c, 0, 66, 48
2, 25162, Note_on_c, 0, 50, 34
2, 25175, Note_on_c, 0, 44, 0
2, 25177, Control_c, 0, 64, 0
2, 25181, Note_on_c, 0, 50, 0
2, 25190, Note_on_c, 0, 66, 0
2, 25200, Note_on_c, 0, 67, 44
2, 25202, Note_on_c, 0, 53, 36
2, 25202, Note_on_c, 0, 43, 38
2, 25204, Control_c, 0, 64, 127
2, 25215, Note_on_c, 0, 43, 0
2, 25228, Note_on_c, 0, 53, 0
2, 25270, Note_on_c, 0, 67, 0
2, 25283, Note_on_c, 0, 67, 39
2, 25284, Note_on_c, 0, 79, 74
2, 25307, Control_c, 0, 64, 0
2, 25321, Note_on_c, 0, 63, 46
2, 25333, Note_on_c, 0, 58, 28
2, 25334, Note_on_c, 0, 53, 17
2, 25339, Control_c, 0, 64, 127
2, 25381, Note_on_c, 0, 53, 0
2, 25386, Note_on_c, 0, 63, 0
2, 25399, Note_on_c, 0, 67, 0
2, 25403, Note_on_c, 0, 79, 0
2, 25422, Note_on_c, 0, 58, 0
2, 25437, Note_on_c, 0, 58, 23
2, 25440, Control_c, 0, 64, 0
2, 25440, Note_on_c, 0, 62, 37
2, 25447, Note_on_c, 0, 52, 24
2, 25474, Control_c, 0, 64, 127
2, 25486, Note_on_c, 0, 62, 0
2, 25489, Note_on_c, 0, 52, 0
2, 25497, Note_on_c, 0, 58, 0
2, 25553, Note_on_c, 0, 76, 84
2, 25553, Note_on_c, 0, 58, 39
2, 25561, Note_on_c, 0, 50, 31
2, 25564, Control_c, 0, 64, 0
2, 25568, Note_on_c, 0, 76, 0
2, 25583, Note_on_c, 0, 58, 0
2, 25583, Note_on_c, 0, 84, 80
2, 25608, Note_on_c, 0, 84, 0
2, 25617, Note_on_c, 0, 76, 37
2, 25627, Control_c, 0, 64, 127
2, 25636, Note_on_c, 0, 76, 0
2, 25643, Note_on_c, 0, 75, 52
2, 25655, Note_on_c, 0, 58, 37
2, 25657, Note_on_c, 0, 75, 0
2, 25659, Control_c, 0, 64, 0
2, 25672, Note_on_c, 0, 74, 34
2, 25683, Note_on_c, 0, 50, 0
2, 25689, Note_on_c, 0, 58, 0
2, 25692, Note_on_c, 0, 74, 0
2, 25699, Note_on_c, 0, 82, 62
2, 25721, Note_on_c, 0, 82, 0
2, 25724, Control_c, 0, 64, 127
2, 25726, Note_on_c, 0, 74, 49
2, 25743, Note_on_c, 0, 74, 0
2, 25754, Note_on_c, 0, 73, 35
2, 25774, Control_c, 0, 64, 0
2, 25776, Note_on_c, 0, 58, 25
2, 25777, Note_on_c, 0, 60, 24
2, 25780, Note_on_c, 0, 73, 0
2, 25792, Note_on_c, 0, 72, 26
2, 25801, Note_on_c, 0, 72, 0
2, 25805, Note_on_c, 0, 60, 0
2, 25807, Note_on_c, 0, 58, 0
2, 25813, Note_on_c, 0, 81, 57
2, 25837, Note_on_c, 0, 81, 0
2, 25837, Control_c, 0, 64, 127
2, 25877, Note_on_c, 0, 72, 24
2, 25891, Note_on_c, 0, 72, 0
2, 25894, Note_on_c, 0, 67, 48
2, 25894, Control_c, 0, 64, 0
2, 25899, Note_on_c, 0, 62, 31
2, 25903, Note_on_c, 0, 70, 51
2, 25906, Note_on_c, 0, 67, 0
2, 25909, Note_on_c, 0, 62, 0
2, 25925, Note_on_c, 0, 70, 0
2, 25934, Note_on_c, 0, 69, 31
2, 25959, Control_c, 0, 64, 127
2, 26015, Control_c, 0, 64, 0
2, 26020, Note_on_c, 0, 67, 42
2, 26020, Note_on_c, 0, 63, 38
2, 26026, Note_on_c, 0, 67, 0
2, 26026, Note_on_c, 0, 57, 24
2, 26033, Note_on_c, 0, 57, 0
2, 26038, Note_on_c, 0, 63, 0
2, 26064, Note_on_c, 0, 70, 37
2, 26078, Note_on_c, 0, 69, 0
2, 26089, Note_on_c, 0, 70, 0
2, 26094, Control_c, 0, 64, 127
2, 26102, Note_on_c, 0, 71, 78
2, 26133, Note_on_c, 0, 71, 0
2, 26144, Control_c, 0, 64, 0
2, 26144, Note_on_c, 0, 74, 83
2, 26145, Note_on_c, 0, 63, 48
2, 26149, Note_on_c, 0, 58, 28
2, 26151, Note_on_c, 0, 60, 38
2, 26171, Note_on_c, 0, 60, 0
2, 26179, Note_on_c, 0, 74, 0
2, 26180, Note_on_c, 0, 58, 0
2, 26180, Note_on_c, 0, 63, 0
2, 26184, Note_on_c, 0, 71, 38
2, 26207, Control_c, 0, 64, 127
2, 26208, Note_on_c, 0, 71, 0
2, 26225, Note_on_c, 0, 72, 76
2, 26254, Control_c, 0, 64, 0
2, 26268, Note_on_c, 0, 63, 39
2, 26269, Note_on_c, 0, 67, 43
2, 26277, Note_on_c, 0, 67, 0
2, 26278, Control_c, 0, 64, 127
2, 26292, Note_on_c, 0, 63, 0
2, 26306, Note_on_c, 0, 72, 0
2, 26307, Note_on_c, 0, 74, 62
2, 26329, Note_on_c, 0, 74, 0
2, 26344, Note_on_c, 0, 75, 73
2, 26370, Note_on_c, 0, 75, 0
2, 26380, Control_c, 0, 64, 0
2, 26382, Note_on_c, 0, 62, 56
2, 26385, Note_on_c, 0, 77, 66
2, 26389, Note_on_c, 0, 75, 27
2, 26390, Note_on_c, 0, 62, 0
2, 26395, Note_on_c, 0, 75, 0
2, 26400, Note_on_c, 0, 77, 0
2, 26420, Control_c, 0, 64, 127
2, 26426, Control_c, 0, 64, 0
2, 26463, Note_on_c, 0, 70, 69
2, 26463, Note_on_c, 0, 58, 50
2, 26466, Note_on_c, 0, 62, 58
2, 26466, Note_on_c, 0, 65, 72
2, 26468, Control_c, 0, 64, 127
2, 26469, Note_on_c, 0, 50, 47
2, 26481, Note_on_c, 0, 50, 0
2, 26481, Note_on_c, 0, 62, 0
2, 26489, Note_on_c, 0, 65, 0
2, 26489, Note_on_c, 0, 58, 0
2, 26507, Note_on_c, 0, 58, 51
2, 26509, Control_c, 0, 64, 0
2, 26509, Note_on_c, 0, 49, 47
2, 26510, Note_on_c, 0, 61, 47
2, 26512, Note_on_c, 0, 64, 61
2, 26513, Note_on_c, 0, 67, 43
2, 26545, Control_c, 0, 64, 127
2, 26582, Note_on_c, 0, 58, 0
2, 26583, Note_on_c, 0, 64, 0
2, 26589, Note_on_c, 0, 67, 0
2, 26599, Note_on_c, 0, 61, 0
2, 26608, Note_on_c, 0, 49, 0
2, 26613, Note_on_c, 0, 70, 0
2, 26632, Control_c, 0, 64, 0
2, 26636, Note_on_c, 0, 63, 42
2, 26636, Note_on_c, 0, 70, 36
2, 26638, Note_on_c, 0, 58, 38
2, 26638, Note_on_c, 0, 60, 49
2, 26641, Note_on_c, 0, 67, 34
2, 26647, Note_on_c, 0, 48, 18
2, 26659, Control_c, 0, 64, 127
2, 26668, Note_on_c, 0, 58, 0
2, 26672, Note_on_c, 0, 67, 0
2, 26682, Note_on_c, 0, 70, 0
2, 26686, Note_on_c, 0, 60, 0
2, 26690, Note_on_c, 0, 63, 0
2, 26735, Note_on_c, 0, 48, 0
2, 26757, Note_on_c, 0, 68, 37
2, 26758, Note_on_c, 0, 56, 27
2, 26759, Note_on_c, 0, 61, 37
2, 26761, Control_c, 0, 64, 0
2, 26762, Note_on_c, 0, 57, 20
2, 26763, Note_on_c, 0, 63, 30
2, 26791, Control_c, 0, 64, 127
2, 26795, Note_on_c, 0, 63, 0
2, 26795, Note_on_c, 0, 57, 0
2, 26817, Note_on_c, 0, 61, 0
2, 26822, Note_on_c, 0, 56, 0
2, 26823, Note_on_c, 0, 68, 0
2, 26839, Note_on_c, 0, 62, 48
2, 26845, Note_on_c, 0, 65, 53
2, 26858, Control_c, 0, 64, 0
2, 26873, Note_on_c, 0, 46, 44
2, 26874, Note_on_c, 0, 62, 0
2, 26876, Note_on_c, 0, 65, 0
2, 26885, Control_c, 0, 64, 127
2, 26899, Note_on_c, 0, 46, 0
2, 26963, Note_on_c, 0, 65, 52
2, 27002, Control_c, 0, 64, 0
2, 27004, Note_on_c, 0, 58, 39
2, 27004, Note_on_c, 0, 62, 32
2, 27017, Note_on_c, 0, 62, 0
2, 27020, Control_c, 0, 64, 127
2, 27027, Note_on_c, 0, 65, 0
2, 27037, Note_on_c, 0, 58, 0
2, 27087, Note_on_c, 0, 69, 45
2, 27096, Note_on_c, 0, 69, 0
2, 27124, Control_c, 0, 64, 0
2, 27127, Note_on_c, 0, 73, 48
2, 27131, Note_on_c, 0, 60, 33
2, 27139, Note_on_c, 0, 60, 0
2, 27146, Note_on_c, 0, 73, 0
2, 27146, Note_on_c, 0, 74, 62
2, 27162, Note_on_c, 0, 74, 0
2, 27162, Note_on_c, 0, 73, 25
2, 27172, Note_on_c, 0, 73, 0
2, 27175, Note_on_c, 0, 69, 55
2, 27184, Note_on_c, 0, 69, 0
2, 27195, Note_on_c, 0, 72, 59
2, 27212, Control_c, 0, 64, 127
2, 27213, Note_on_c, 0, 74, 36
2, 27223, Note_on_c, 0, 74, 0
2, 27237, Note_on_c, 0, 72, 0
2, 27241, Note_on_c, 0, 69, 48
2, 27251, Note_on_c, 0, 69, 0
2, 27251, Control_c, 0, 64, 0
2, 27261, Note_on_c, 0, 53, 38
2, 27261, Note_on_c, 0, 71, 60
2, 27265, Note_on_c, 0, 43, 24
2, 27273, Note_on_c, 0, 43, 0
2, 27273, Note_on_c, 0, 53, 0
2, 27288, Control_c, 0, 64, 127
2, 27296, Note_on_c, 0, 71, 0
2, 27299, Note_on_c, 0, 67, 46
2, 27360, Note_on_c, 0, 67, 0
2, 27367, Note_on_c, 0, 70, 49
2, 27370, Control_c, 0, 64, 0
2, 27373, Note_on_c, 0, 58, 34
2, 27376, Note_on_c, 0, 48, 33
2, 27388, Note_on_c, 0, 48, 0
2, 27409, Control_c, 0, 64, 127
2, 27413, Note_on_c, 0, 58, 0
2, 27449, Note_on_c, 0, 64, 41
2, 27477, Note_on_c, 0, 58, 54
2, 27488, Note_on_c, 0, 70, 0
2, 27493, Control_c, 0, 64, 0
2, 27495, Note_on_c, 0, 58, 0
2, 27512, Control_c, 0, 64, 127
2, 27528, Control_c, 0, 64, 0
2, 27542, Control_c, 0, 64, 127
2, 27559, Note_on_c, 0, 58, 62
2, 27560, Note_on_c, 0, 50, 63
2, 27579, Note_on_c, 0, 64, 0
2, 27599, Control_c, 0, 64, 0
2, 27604, Note_on_c, 0, 64, 45
2, 27605, Note_on_c, 0, 66, 39
2, 27606, Note_on_c, 0, 69, 57
2, 27635, Control_c, 0, 64, 127
2, 27669, Note_on_c, 0, 58, 0
2, 27673, Note_on_c, 0, 64, 0
2, 27681, Note_on_c, 0, 58, 20
2, 27683, Note_on_c, 0, 50, 0
2, 27686, Note_on_c, 0, 51, 49
2, 27687, Note_on_c, 0, 66, 0
2, 27705, Note_on_c, 0, 69, 0
2, 27710, Note_on_c, 0, 58, 0
2, 27720, Note_on_c, 0, 51, 0
2, 27720, Control_c, 0, 64, 0
2, 27726, Note_on_c, 0, 64, 55
2, 27727, Note_on_c, 0, 67, 48
2, 27728, Note_on_c, 0, 52, 53
2, 27747, Control_c, 0, 64, 127
2, 27768, Note_on_c, 0, 64, 0
2, 27773, Note_on_c, 0, 52, 0
2, 27774, Note_on_c, 0, 67, 0
2, 27838, Note_on_c, 0, 30, 47
2, 27839, Note_on_c, 0, 42, 49
2, 27844, Control_c, 0, 64, 0
2, 27874, Control_c, 0, 64, 127
2, 27880, Note_on_c, 0, 30, 0
2, 27886, Note_on_c, 0, 42, 0
2, 27957, Note_on_c, 0, 63, 72
2, 27959, Control_c, 0, 64, 0
2, 27959, Note_on_c, 0, 75, 71
2, 27959, Note_on_c, 0, 68, 74
2, 27961, Note_on_c, 0, 64, 80
2, 27962, Note_on_c, 0, 72, 64
2, 27967, Note_on_c, 0, 64, 0
2, 27969, Note_on_c, 0, 72, 0
2, 27972, Note_on_c, 0, 68, 0
2, 27976, Note_on_c, 0, 75, 0
2, 27980, Note_on_c, 0, 63, 0
2, 28001, Note_on_c, 0, 61, 49
2, 28028, Note_on_c, 0, 61, 0
2, 28035, Note_on_c, 0, 75, 74
2, 28036, Note_on_c, 0, 68, 67
2, 28036, Note_on_c, 0, 64, 74
2, 28037, Note_on_c, 0, 72, 63
2, 28038, Note_on_c, 0, 63, 75
2, 28066, Note_on_c, 0, 64, 0
2, 28067, Note_on_c, 0, 72, 0
2, 28067, Note_on_c, 0, 63, 0
2, 28067, Note_on_c, 0, 68, 0
2, 28068, Note_on_c, 0, 75, 0
2, 28081, Note_on_c, 0, 61, 37
2, 28115, Note_on_c, 0, 61, 0
2, 28119, Note_on_c, 0, 68, 52
2, 28119, Note_on_c, 0, 64, 65
2, 28119, Note_on_c, 0, 72, 62
2, 28120, Note_on_c, 0, 75, 53
2, 28122, Note_on_c, 0, 63, 60
2, 28138, Note_on_c, 0, 64, 0
2, 28140, Note_on_c, 0, 68, 0
2, 28141, Note_on_c, 0, 75, 0
2, 28142, Note_on_c, 0, 72, 0
2, 28148, Note_on_c, 0, 63, 0
2, 28167, Note_on_c, 0, 61, 35
2, 28173, Control_c, 0, 64, 127
2, 28185, Control_c, 0, 64, 0
2, 28196, Note_on_c, 0, 61, 0
2, 28202, Note_on_c, 0, 63, 43
2, 28202, Note_on_c, 0, 75, 52
2, 28204, Note_on_c, 0, 68, 44
2, 28204, Note_on_c, 0, 64, 47
2, 28204, Note_on_c, 0, 72, 49
2, 28207, Control_c, 0, 64, 127
2, 28233, Note_on_c, 0, 63, 0
2, 28255, Note_on_c, 0, 72, 0
2, 28265, Note_on_c, 0, 64, 0
2, 28270, Note_on_c, 0, 75, 0
2, 28277, Note_on_c, 0, 68, 0
2, 28281, Note_on_c, 0, 53, 79
2, 28289, Control_c, 0, 64, 0
2, 28315, Control_c, 0, 64, 127
2, 28366, Control_c, 0, 64, 0
2, 28374, Control_c, 0, 64, 127
2, 28393, Note_on_c, 0, 74, 68
2, 28394, Note_on_c, 0, 63, 69
2, 28394, Note_on_c, 0, 67, 75
2, 28397, Note_on_c, 0, 71, 55
2, 28398, Note_on_c, 0, 62, 66
2, 28402, Control_c, 0, 64, 0
2, 28404, Note_on_c, 0, 63, 0
2, 28411, Note_on_c, 0, 67, 0
2, 28413, Note_on_c, 0, 62, 0
2, 28416, Note_on_c, 0, 74, 0
2, 28416, Note_on_c, 0, 71, 0
2, 28421, Note_on_c, 0, 53, 0
2, 28428, Note_on_c, 0, 72, 52
2, 28455, Note_on_c, 0, 72, 0
2, 28470, Note_on_c, 0, 63, 57
2, 28471, Note_on_c, 0, 67, 62
2, 28472, Note_on_c, 0, 74, 54
2, 28475, Note_on_c, 0, 57, 48
2, 28476, Note_on_c, 0, 71, 36
2, 28484, Note_on_c, 0, 57, 0
2, 28488, Note_on_c, 0, 71, 0
2, 28489, Note_on_c, 0, 63, 0
2, 28492, Note_on_c, 0, 67, 0
2, 28494, Note_on_c, 0, 74, 0
2, 28508, Note_on_c, 0, 72, 60
2, 28531, Note_on_c, 0, 72, 0
2, 28545, Note_on_c, 0, 63, 51
2, 28548, Note_on_c, 0, 67, 45
2, 28548, Note_on_c, 0, 51, 47
2, 28548, Note_on_c, 0, 74, 51
2, 28548, Note_on_c, 0, 57, 58
2, 28552, Note_on_c, 0, 71, 30
2, 28586, Control_c, 0, 64, 127
2, 28606, Note_on_c, 0, 71, 0
2, 28613, Note_on_c, 0, 67, 0
2, 28614, Note_on_c, 0, 63, 0
2, 28618, Note_on_c, 0, 57, 0
2, 28622, Note_on_c, 0, 74, 0
2, 28636, Note_on_c, 0, 63, 43
2, 28636, Note_on_c, 0, 72, 47
2, 28637, Note_on_c, 0, 67, 39
2, 28673, Note_on_c, 0, 57, 44
2, 28714, Note_on_c, 0, 67, 0
2, 28718, Note_on_c, 0, 72, 0
2, 28724, Note_on_c, 0, 63, 0
2, 28727, Note_on_c, 0, 57, 0
2, 28729, Note_on_c, 0, 51, 0
2, 28759, Note_on_c, 0, 51, 21
2, 28791, Note_on_c, 0, 51, 0
2, 28800, Note_on_c, 0, 70, 45
2, 28802, Note_on_c, 0, 58, 29
2, 28805, Note_on_c, 0, 50, 33
2, 28805, Control_c, 0, 64, 0
2, 28806, Note_on_c, 0, 62, 32
2, 28810, Note_on_c, 0, 67, 30
2, 28835, Control_c, 0, 64, 127
2, 28859, Note_on_c, 0, 50, 0
2, 28866, Note_on_c, 0, 58, 0
2, 28870, Note_on_c, 0, 62, 0
2, 28877, Note_on_c, 0, 67, 0
2, 28903, Note_on_c, 0, 70, 0
2, 28927, Note_on_c, 0, 72, 53
2, 28930, Note_on_c, 0, 62, 35
2, 28930, Note_on_c, 0, 67, 50
2, 28933, Note_on_c, 0, 58, 30
2, 28938, Control_c, 0, 64, 0
2, 28948, Note_on_c, 0, 62, 0
2, 28962, Control_c, 0, 64, 127
2, 28964, Note_on_c, 0, 58, 0
2, 28974, Note_on_c, 0, 72, 0
2, 28976, Note_on_c, 0, 67, 0
2, 29040, Control_c, 0, 64, 0
2, 29044, Note_on_c, 0, 74, 48
2, 29045, Note_on_c, 0, 58, 47
2, 29048, Note_on_c, 0, 62, 33
2, 29048, Note_on_c, 0, 67, 33
2, 29052, Note_on_c, 0, 70, 30
2, 29055, Note_on_c, 0, 50, 31
2, 29068, Note_on_c, 0, 50, 0
2, 29068, Control_c, 0, 64, 127
2, 29071, Note_on_c, 0, 62, 0
2, 29074, Note_on_c, 0, 67, 0
2, 29077, Note_on_c, 0, 58, 0
2, 29082, Note_on_c, 0, 70, 0
2, 29083, Note_on_c, 0, 74, 0
2, 29131, Note_on_c, 0, 70, 50
2, 29133, Note_on_c, 0, 77, 53
2, 29134, Note_on_c, 0, 74, 43
2, 29135, Note_on_c, 0, 65, 50
2, 29144, Note_on_c, 0, 65, 0
2, 29148, Note_on_c, 0, 70, 0
2, 29153, Note_on_c, 0, 74, 0
2, 29156, Note_on_c, 0, 77, 0
2, 29162, Control_c, 0, 64, 0
2, 29171, Note_on_c, 0, 58, 45
2, 29172, Note_on_c, 0, 62, 35
2, 29182, Note_on_c, 0, 62, 0
2, 29184, Control_c, 0, 64, 127
2, 29198, Note_on_c, 0, 58, 0
2, 29253, Note_on_c, 0, 53, 51
2, 29281, Note_on_c, 0, 53, 0
2, 29284, Control_c, 0, 64, 0
2, 29290, Note_on_c, 0, 82, 74
2, 29292, Note_on_c, 0, 46, 71
2, 29292, Note_on_c, 0, 70, 77
2, 29294, Note_on_c, 0, 56, 46
2, 29313, Control_c, 0, 64, 127
2, 29314, Note_on_c, 0, 46, 0
2, 29321, Note_on_c, 0, 56, 0
2, 29374, Note_on_c, 0, 70, 0
2, 29377, Note_on_c, 0, 82, 0
2, 29412, Note_on_c, 0, 80, 40
2, 29413, Control_c, 0, 64, 0
2, 29414, Note_on_c, 0, 63, 37
2, 29415, Note_on_c, 0, 75, 51
2, 29417, Note_on_c, 0, 67, 17
2, 29417, Note_on_c, 0, 60, 34
2, 29417, Note_on_c, 0, 68, 37
2, 29418, Note_on_c, 0, 56, 25
2, 29426, Note_on_c, 0, 67, 0
2, 29436, Note_on_c, 0, 63, 0
2, 29438, Note_on_c, 0, 60, 0
2, 29438, Control_c, 0, 64, 127
2, 29448, Note_on_c, 0, 56, 0
2, 29455, Note_on_c, 0, 75, 0
2, 29465, Note_on_c, 0, 80, 0
2, 29474, Note_on_c, 0, 68, 0
2, 29523, Control_c, 0, 64, 0
2, 29528, Note_on_c, 0, 79, 51
2, 29529, Note_on_c, 0, 46, 55
2, 29532, Note_on_c, 0, 68, 46
2, 29532, Note_on_c, 0, 56, 39
2, 29535, Note_on_c, 0, 72, 46
2, 29538, Note_on_c, 0, 76, 28
2, 29549, Note_on_c, 0, 46, 0
2, 29551, Control_c, 0, 64, 127
2, 29562, Note_on_c, 0, 56, 0
2, 29585, Note_on_c, 0, 76, 0
2, 29601, Note_on_c, 0, 72, 0
2, 29609, Note_on_c, 0, 68, 0
2, 29623, Note_on_c, 0, 79, 0
2, 29646, Control_c, 0, 64, 0
2, 29646, Note_on_c, 0, 68, 55
2, 29648, Note_on_c, 0, 56, 60
2, 29648, Note_on_c, 0, 66, 68
2, 29649, Note_on_c, 0, 77, 57
2, 29653, Note_on_c, 0, 72, 54
2, 29674, Control_c, 0, 64, 127
2, 29697, Note_on_c, 0, 68, 0
2, 29698, Note_on_c, 0, 72, 0
2, 29701, Note_on_c, 0, 77, 0
2, 29709, Note_on_c, 0, 66, 0
2, 29729, Note_on_c, 0, 56, 0
2, 29764, Note_on_c, 0, 65, 53
2, 29765, Control_c, 0, 64, 0
2, 29765, Note_on_c, 0, 75, 59
2, 29766, Note_on_c, 0, 70, 60
2, 29768, Note_on_c, 0, 55, 39
2, 29770, Note_on_c, 0, 61, 38
2, 29770, Note_on_c, 0, 67, 40
2, 29792, Control_c, 0, 64, 127
2, 29799, Note_on_c, 0, 70, 0
2, 29799, Note_on_c, 0, 75, 0
2, 29829, Note_on_c, 0, 61, 0
2, 29830, Note_on_c, 0, 67, 0
2, 29832, Note_on_c, 0, 65, 0
2, 29834, Note_on_c, 0, 55, 0
2, 29886, Note_on_c, 0, 70, 53
2, 29887, Control_c, 0, 64, 0
2, 29887, Note_on_c, 0, 65, 61
2, 29888, Note_on_c, 0, 55, 35
2, 29892, Note_on_c, 0, 60, 34
2, 29927, Control_c, 0, 64, 127
2, 29958, Note_on_c, 0, 60, 0
2, 29969, Note_on_c, 0, 65, 0
2, 29976, Note_on_c, 0, 55, 0
2, 29980, Note_on_c, 0, 70, 0
2, 30000, Control_c, 0, 64, 0
2, 30003, Note_on_c, 0, 70, 39
2, 30006, Note_on_c, 0, 65, 57
2, 30006, Note_on_c, 0, 60, 51
2, 30007, Note_on_c, 0, 55, 49
2, 30030, Control_c, 0, 64, 127
2, 30051, Note_on_c, 0, 60, 0
2, 30063, Note_on_c, 0, 70, 0
2, 30068, Note_on_c, 0, 55, 0
2, 30071, Note_on_c, 0, 65, 0
2, 30079, Note_on_c, 0, 56, 47
2, 30081, Note_on_c, 0, 65, 34
2, 30083, Note_on_c, 0, 72, 50
2, 30085, Note_on_c, 0, 60, 46
2, 30100, Note_on_c, 0, 60, 0
2, 30102, Note_on_c, 0, 72, 0
2, 30115, Control_c, 0, 64, 0
2, 30124, Note_on_c, 0, 56, 0
2, 30127, Note_on_c, 0, 55, 53
2, 30133, Note_on_c, 0, 65, 0
2, 30133, Note_on_c, 0, 70, 46
2, 30138, Control_c, 0, 64, 127
2, 30145, Note_on_c, 0, 55, 0
2, 30166, Note_on_c, 0, 70, 0
2, 30200, Note_on_c, 0, 65, 71
2, 30200, Note_on_c, 0, 73, 48
2, 30201, Note_on_c, 0, 54, 59
2, 30203, Note_on_c, 0, 44, 56
2, 30204, Note_on_c, 0, 60, 39
2, 30208, Control_c, 0, 64, 0
2, 30245, Control_c, 0, 64, 127
2, 30316, Note_on_c, 0, 60, 0
2, 30316, Note_on_c, 0, 54, 0
2, 30319, Note_on_c, 0, 65, 0
2, 30333, Note_on_c, 0, 51, 20
2, 30340, Note_on_c, 0, 73, 0
2, 30351, Note_on_c, 0, 44, 0
2, 30358, Note_on_c, 0, 51, 0
2, 30363, Note_on_c, 0, 44, 23
2, 30364, Note_on_c, 0, 70, 56
2, 30366, Control_c, 0, 64, 0
2, 30367, Note_on_c, 0, 60, 41
2, 30369, Note_on_c, 0, 54, 28
2, 30375, Note_on_c, 0, 65, 34
2, 30407, Note_on_c, 0, 65, 0
2, 30416, Control_c, 0, 64, 127
2, 30421, Note_on_c, 0, 60, 0
2, 30425, Note_on_c, 0, 54, 0
2, 30431, Note_on_c, 0, 70, 0
2, 30435, Note_on_c, 0, 51, 23
2, 30443, Note_on_c, 0, 65, 61
2, 30444, Note_on_c, 0, 60, 60
2, 30444, Note_on_c, 0, 72, 57
2, 30450, Note_on_c, 0, 51, 0
2, 30451, Note_on_c, 0, 54, 34
2, 30455, Control_c, 0, 64, 0
2, 30493, Control_c, 0, 64, 127
2, 30503, Note_on_c, 0, 44, 0
2, 30557, Note_on_c, 0, 44, 57
2, 30561, Note_on_c, 0, 60, 0
2, 30565, Note_on_c, 0, 54, 0
2, 30566, Note_on_c, 0, 65, 0
2, 30589, Note_on_c, 0, 72, 0
2, 30605, Note_on_c, 0, 54, 42
2, 30619, Note_on_c, 0, 44, 0
2, 30626, Note_on_c, 0, 54, 0
2, 30683, Note_on_c, 0, 77, 88
2, 30717, Note_on_c, 0, 77, 0
2, 30717, Note_on_c, 0, 50, 43
2, 30722, Control_c, 0, 64, 0
2, 30722, Note_on_c, 0, 72, 50
2, 30722, Note_on_c, 0, 58, 19
2, 30727, Note_on_c, 0, 50, 0
2, 30737, Note_on_c, 0, 58, 0
2, 30743, Note_on_c, 0, 73, 28
2, 30765, Note_on_c, 0, 72, 0
2, 30766, Note_on_c, 0, 73, 0
2, 30773, Note_on_c, 0, 74, 31
2, 30795, Note_on_c, 0, 74, 0
2, 30804, Note_on_c, 0, 77, 73
2, 30811, Control_c, 0, 64, 127
2, 30829, Control_c, 0, 64, 0
2, 30831, Note_on_c, 0, 58, 44
2, 30831, Note_on_c, 0, 62, 30
2, 30832, Note_on_c, 0, 77, 0
2, 30839, Note_on_c, 0, 62, 0
2, 30845, Note_on_c, 0, 72, 26
2, 30849, Note_on_c, 0, 58, 0
2, 30875, Note_on_c, 0, 73, 13
2, 30877, Note_on_c, 0, 72, 0
2, 30895, Note_on_c, 0, 74, 34
2, 30899, Note_on_c, 0, 73, 0
2, 30911, Note_on_c, 0, 74, 0
2, 30916, Control_c, 0, 64, 127
2, 30920, Note_on_c, 0, 77, 67
2, 30949, Note_on_c, 0, 77, 0
2, 30949, Control_c, 0, 64, 0
2, 30950, Note_on_c, 0, 43, 44
2, 30952, Note_on_c, 0, 53, 44
2, 30958, Note_on_c, 0, 43, 0
2, 30962, Note_on_c, 0, 74, 53
2, 30970, Note_on_c, 0, 53, 0
2, 31000, Note_on_c, 0, 74, 0
2, 31006, Note_on_c, 0, 67, 52
2, 31032, Control_c, 0, 64, 127
2, 31066, Note_on_c, 0, 67, 0
2, 31066, Control_c, 0, 64, 0
2, 31073, Note_on_c, 0, 64, 49
2, 31076, Note_on_c, 0, 59, 50
2, 31084, Note_on_c, 0, 53, 22
2, 31087, Note_on_c, 0, 64, 0
2, 31095, Note_on_c, 0, 59, 0
2, 31098, Note_on_c, 0, 53, 0
2, 31158, Note_on_c, 0, 65, 85
2, 31159, Note_on_c, 0, 55, 44
2, 31169, Control_c, 0, 64, 127
2, 31170, Note_on_c, 0, 55, 0
2, 31181, Note_on_c, 0, 65, 0
2, 31195, Note_on_c, 0, 58, 35
2, 31204, Note_on_c, 0, 63, 60
2, 31204, Control_c, 0, 64, 0
2, 31205, Note_on_c, 0, 50, 35
2, 31234, Note_on_c, 0, 63, 0
2, 31245, Note_on_c, 0, 64, 40
2, 31254, Note_on_c, 0, 58, 0
2, 31261, Note_on_c, 0, 64, 0
2, 31279, Note_on_c, 0, 65, 82
2, 31299, Note_on_c, 0, 65, 0
2, 31301, Control_c, 0, 64, 127
2, 31315, Control_c, 0, 64, 0
2, 31319, Note_on_c, 0, 50, 0
2, 31321, Note_on_c, 0, 66, 67
2, 31322, Note_on_c, 0, 58, 27
2, 31322, Note_on_c, 0, 51, 42
2, 31395, Note_on_c, 0, 66, 0
2, 31404, Note_on_c, 0, 67, 65
2, 31407, Control_c, 0, 64, 127
2, 31411, Note_on_c, 0, 58, 0
2, 31423, Control_c, 0, 64, 0
2, 31430, Note_on_c, 0, 51, 0
2, 31442, Note_on_c, 0, 58, 37
2, 31450, Note_on_c, 0, 52, 38
2, 31474, Control_c, 0, 64, 127
2, 31475, Note_on_c, 0, 58, 0
2, 31480, Control_c, 0, 64, 0
2, 31492, Control_c, 0, 64, 127
2, 31523, Note_on_c, 0, 60, 47
2, 31541, Note_on_c, 0, 60, 0
2, 31553, Control_c, 0, 64, 0
2, 31564, Note_on_c, 0, 48, 40
2, 31565, Note_on_c, 0, 52, 0
2, 31572, Note_on_c, 0, 48, 0
2, 31572, Note_on_c, 0, 67, 0
2, 31576, Control_c, 0, 64, 127
2, 31638, Note_on_c, 0, 67, 46
2, 31646, Note_on_c, 0, 67, 0
2, 31675, Note_on_c, 0, 67, 43
2, 31677, Note_on_c, 0, 58, 33
2, 31677, Note_on_c, 0, 63, 37
2, 31678, Note_on_c, 0, 62, 38
2, 31679, Control_c, 0, 64, 0
2, 31681, Note_on_c, 0, 71, 71
2, 31682, Note_on_c, 0, 67, 0
2, 31687, Note_on_c, 0, 62, 0
2, 31695, Note_on_c, 0, 71, 0
2, 31696, Note_on_c, 0, 63, 0
2, 31699, Note_on_c, 0, 72, 55
2, 31700, Note_on_c, 0, 58, 0
2, 31717, Note_on_c, 0, 71, 32
2, 31721, Note_on_c, 0, 72, 0
2, 31739, Note_on_c, 0, 71, 0
2, 31746, Note_on_c, 0, 67, 27
2, 31764, Note_on_c, 0, 67, 0
2, 31768, Control_c, 0, 64, 127
2, 31775, Note_on_c, 0, 70, 56
2, 31792, Control_c, 0, 64, 0
2, 31794, Note_on_c, 0, 70, 0
2, 31795, Note_on_c, 0, 58, 39
2, 31796, Note_on_c, 0, 48, 43
2, 31804, Note_on_c, 0, 72, 54
2, 31820, Note_on_c, 0, 48, 0
2, 31824, Note_on_c, 0, 72, 0
2, 31825, Note_on_c, 0, 70, 33
2, 31839, Note_on_c, 0, 70, 0
2, 31839, Note_on_c, 0, 58, 0
2, 31847, Note_on_c, 0, 67, 44
2, 31854, Note_on_c, 0, 67, 0
2, 31871, Note_on_c, 0, 70, 45
2, 31888, Note_on_c, 0, 70, 0
2, 31891, Control_c, 0, 64, 127
2, 31892, Note_on_c, 0, 72, 57
2, 31908, Note_on_c, 0, 72, 0
2, 31910, Note_on_c, 0, 70, 23
2, 31917, Control_c, 0, 64, 0
2, 31919, Note_on_c, 0, 70, 0
2, 31921, Note_on_c, 0, 65, 53
2, 31927, Note_on_c, 0, 65, 0
2, 31928, Note_on_c, 0, 51, 34
2, 31929, Note_on_c, 0, 57, 31
2, 31942, Note_on_c, 0, 69, 62
2, 31972, Note_on_c, 0, 69, 0
2, 31982, Note_on_c, 0, 57, 0
2, 31984, Control_c, 0, 64, 127
2, 31989, Note_on_c, 0, 60, 71
2, 32039, Control_c, 0, 64, 0
2, 32053, Control_c, 0, 64, 127
2, 32053, Note_on_c, 0, 57, 32
2, 32062, Note_on_c, 0, 60, 0
2, 32066, Note_on_c, 0, 57, 0
2, 32078, Note_on_c, 0, 51, 0
2, 32085, Note_on_c, 0, 62, 57
2, 32099, Note_on_c, 0, 62, 0
2, 32125, Note_on_c, 0, 65, 68
2, 32145, Note_on_c, 0, 65, 0
2, 32156, Control_c, 0, 64, 0
2, 32166, Note_on_c, 0, 70, 52
2, 32167, Note_on_c, 0, 62, 43
2, 32170, Note_on_c, 0, 60, 32
2, 32209, Control_c, 0, 64, 127
2, 32247, Note_on_c, 0, 53, 57
2, 32261, Note_on_c, 0, 70, 0
2, 32276, Note_on_c, 0, 53, 0
2, 32277, Note_on_c, 0, 62, 0
2, 32283, Note_on_c, 0, 60, 0
2, 32297, Note_on_c, 0, 53, 32
2, 32315, Note_on_c, 0, 53, 0
2, 32377, Note_on_c, 0, 53, 34
2, 32395, Note_on_c, 0, 53, 0
2, 32407, Control_c, 0, 64, 0
2, 32413, Note_on_c, 0, 75, 50
2, 32415, Note_on_c, 0, 70, 46
2, 32416, Note_on_c, 0, 77, 49
2, 32418, Note_on_c, 0, 58, 45
2, 32418, Note_on_c, 0, 63, 37
2, 32419, Note_on_c, 0, 67, 37
2, 32429, Note_on_c, 0, 67, 0
2, 32434, Control_c, 0, 64, 127
2, 32468, Note_on_c, 0, 70, 0
2, 32476, Note_on_c, 0, 77, 0
2, 32486, Note_on_c, 0, 75, 0
2, 32533, Note_on_c, 0, 63, 0
2, 32534, Note_on_c, 0, 53, 35
2, 32552, Note_on_c, 0, 58, 0
2, 32608, Note_on_c, 0, 86, 66
2, 32624, Note_on_c, 0, 86, 0
2, 32646, Control_c, 0, 64, 0
2, 32647, Note_on_c, 0, 60, 28
2, 32647, Note_on_c, 0, 65, 41
2, 32649, Note_on_c, 0, 62, 33
2, 32656, Note_on_c, 0, 72, 34
2, 32667, Note_on_c, 0, 72, 0
2, 32695, Note_on_c, 0, 65, 0
2, 32710, Note_on_c, 0, 53, 0
2, 32727, Control_c, 0, 64, 127
2, 32727, Note_on_c, 0, 74, 58
2, 32745, Note_on_c, 0, 74, 0
2, 32761, Control_c, 0, 64, 0
2, 32767, Note_on_c, 0, 53, 36
2, 32770, Note_on_c, 0, 76, 53
2, 32779, Note_on_c, 0, 76, 0
2, 32788, Note_on_c, 0, 62, 0
2, 32789, Note_on_c, 0, 60, 0
2, 32845, Note_on_c, 0, 77, 56
2, 32847, Control_c, 0, 64, 127
2, 32861, Note_on_c, 0, 77, 0
2, 32880, Control_c, 0, 64, 0
2, 32886, Note_on_c, 0, 62, 33
2, 32891, Note_on_c, 0, 60, 24
2, 32927, Note_on_c, 0, 53, 0
2, 32969, Note_on_c, 0, 53, 42
2, 32970, Control_c, 0, 64, 127
2, 32996, Control_c, 0, 64, 0
2, 33008, Note_on_c, 0, 77, 35
2, 33021, Note_on_c, 0, 60, 0
2, 33021, Note_on_c, 0, 62, 0
2, 33025, Note_on_c, 0, 77, 0
2, 33046, Note_on_c, 0, 79, 50
2, 33048, Note_on_c, 0, 53, 0
2, 33056, Note_on_c, 0, 79, 0
2, 33077, Control_c, 0, 64, 127
2, 33084, Note_on_c, 0, 82, 82
2, 33109, Note_on_c, 0, 82, 0
2, 33119, Control_c, 0, 64, 0
2, 33127, Note_on_c, 0, 62, 42
2, 33128, Note_on_c, 0, 58, 35
2, 33128, Note_on_c, 0, 52, 43
2, 33129, Note_on_c, 0, 86, 87
2, 33139, Note_on_c, 0, 52, 0
2, 33152, Note_on_c, 0, 62, 0
2, 33154, Note_on_c, 0, 86, 0
2, 33155, Note_on_c, 0, 58, 0
2, 33168, Note_on_c, 0, 82, 60
2, 33188, Note_on_c, 0, 82, 0
2, 33207, Note_on_c, 0, 79, 33
2, 33216, Control_c, 0, 64, 127
2, 33230, Note_on_c, 0, 79, 0
2, 33231, Note_on_c, 0, 69, 40
2, 33233, Control_c, 0, 64, 0
2, 33234, Note_on_c, 0, 58, 25
2, 33239, Note_on_c, 0, 76, 42
2, 33243, Note_on_c, 0, 69, 0
2, 33245, Note_on_c, 0, 64, 19
2, 33247, Note_on_c, 0, 58, 0
2, 33253, Note_on_c, 0, 64, 0
2, 33269, Note_on_c, 0, 76, 0
2, 33278, Note_on_c, 0, 75, 59
2, 33300, Note_on_c, 0, 75, 0
2, 33318, Note_on_c, 0, 74, 62
2, 33342, Note_on_c, 0, 74, 0
2, 33357, Note_on_c, 0, 73, 36
2, 33360, Note_on_c, 0, 52, 30
2, 33363, Note_on_c, 0, 58, 26
2, 33390, Note_on_c, 0, 73, 0
2, 33394, Note_on_c, 0, 72, 46
2, 33403, Note_on_c, 0, 72, 0
2, 33419, Note_on_c, 0, 58, 0
2, 33434, Note_on_c, 0, 70, 67
2, 33461, Note_on_c, 0, 70, 0
2, 33472, Note_on_c, 0, 74, 77
2, 33476, Note_on_c, 0, 58, 33
2, 33484, Note_on_c, 0, 52, 0
2, 33503, Note_on_c, 0, 58, 0
2, 33504, Note_on_c, 0, 74, 0
2, 33510, Note_on_c, 0, 70, 55
2, 33528, Note_on_c, 0, 70, 0
2, 33548, Note_on_c, 0, 67, 54
2, 33564, Control_c, 0, 64, 127
2, 33572, Note_on_c, 0, 67, 0
2, 33586, Note_on_c, 0, 63, 48
2, 33588, Note_on_c, 0, 64, 34
2, 33590, Control_c, 0, 64, 0
2, 33593, Note_on_c, 0, 58, 31
2, 33598, Note_on_c, 0, 63, 0
2, 33609, Note_on_c, 0, 64, 0
2, 33613, Note_on_c, 0, 58, 0
2, 33626, Note_on_c, 0, 68, 57
2, 33650, Note_on_c, 0, 68, 0
2, 33659, Note_on_c, 0, 66, 51
2, 33673, Note_on_c, 0, 66, 0
2, 33703, Control_c, 0, 64, 127
2, 33705, Note_on_c, 0, 60, 55
2, 33720, Control_c, 0, 64, 0
2, 33729, Note_on_c, 0, 60, 0
2, 33747, Note_on_c, 0, 67, 77
2, 33773, Note_on_c, 0, 67, 0
2, 33782, Note_on_c, 0, 65, 61
2, 33804, Note_on_c, 0, 65, 0
2, 33819, Note_on_c, 0, 60, 27
2, 33821, Control_c, 0, 64, 127
2, 33839, Note_on_c, 0, 60, 0
2, 33846, Note_on_c, 0, 59, 36
2, 33848, Control_c, 0, 64, 0
2, 33855, Note_on_c, 0, 51, 33
2, 33863, Note_on_c, 0, 59, 0
2, 33880, Note_on_c, 0, 51, 0
2, 33882, Note_on_c, 0, 61, 49
2, 33908, Note_on_c, 0, 61, 0
2, 33916, Note_on_c, 0, 59, 24
2, 33935, Note_on_c, 0, 59, 0
2, 33947, Note_on_c, 0, 55, 44
2, 33956, Control_c, 0, 64, 127
2, 33958, Control_c, 0, 64, 0
2, 33972, Note_on_c, 0, 51, 44
2, 33999, Note_on_c, 0, 51, 0
2, 34020, Note_on_c, 0, 55, 0
2, 34020, Note_on_c, 0, 56, 42
2, 34038, Note_on_c, 0, 56, 0
2, 34054, Note_on_c, 0, 57, 54
2, 34060, Control_c, 0, 64, 127
2, 34076, Note_on_c, 0, 57, 0
2, 34078, Control_c, 0, 64, 0
2, 34092, Note_on_c, 0, 46, 33
2, 34095, Note_on_c, 0, 58, 34
2, 34097, Note_on_c, 0, 53, 22
2, 34110, Control_c, 0, 64, 127
2, 34144, Note_on_c, 0, 58, 0
2, 34167, Note_on_c, 0, 60, 54
2, 34196, Note_on_c, 0, 60, 0
2, 34207, Note_on_c, 0, 61, 52
2, 34211, Control_c, 0, 64, 0
2, 34223, Note_on_c, 0, 53, 0
2, 34223, Note_on_c, 0, 46, 0
2, 34231, Note_on_c, 0, 61, 0
2, 34242, Note_on_c, 0, 62, 54
2, 34264, Note_on_c, 0, 62, 0
2, 34276, Control_c, 0, 64, 127
2, 34281, Note_on_c, 0, 65, 68
2, 34314, Note_on_c, 0, 65, 0
2, 34314, Control_c, 0, 64, 0
2, 34326, Note_on_c, 0, 67, 60
2, 34327, Note_on_c, 0, 53, 47
2, 34330, Note_on_c, 0, 63, 34
2, 34332, Note_on_c, 0, 58, 32
2, 34355, Control_c, 0, 64, 127
2, 34385, Note_on_c, 0, 53, 0
2, 34411, Note_on_c, 0, 63, 0
2, 34414, Note_on_c, 0, 58, 0
2, 34438, Control_c, 0, 64, 0
2, 34439, Note_on_c, 0, 67, 0
2, 34446, Note_on_c, 0, 64, 26
2, 34447, Note_on_c, 0, 58, 44
2, 34468, Control_c, 0, 64, 127
2, 34495, Note_on_c, 0, 58, 0
2, 34509, Note_on_c, 0, 64, 0
2, 34560, Control_c, 0, 64, 0
2, 34564, Note_on_c, 0, 65, 36
2, 34566, Note_on_c, 0, 62, 38
2, 34572, Note_on_c, 0, 60, 36
2, 34598, Note_on_c, 0, 65, 0
2, 34598, Control_c, 0, 64, 127
2, 34641, Note_on_c, 0, 77, 74
2, 34663, Note_on_c, 0, 77, 0
2, 34678, Control_c, 0, 64, 0
2, 34680, Note_on_c, 0, 53, 41
2, 34687, Note_on_c, 0, 65, 51
2, 34705, Note_on_c, 0, 60, 0
2, 34706, Note_on_c, 0, 62, 0
2, 34708, Note_on_c, 0, 65, 0
2, 34717, Control_c, 0, 64, 127
2, 34724, Note_on_c, 0, 67, 56
2, 34745, Note_on_c, 0, 67, 0
2, 34764, Note_on_c, 0, 69, 74
2, 34790, Control_c, 0, 64, 0
2, 34796, Note_on_c, 0, 65, 50
2, 34801, Note_on_c, 0, 60, 33
2, 34802, Note_on_c, 0, 62, 36
2, 34824, Note_on_c, 0, 65, 0
2, 34824, Control_c, 0, 64, 127
2, 34837, Note_on_c, 0, 69, 0
2, 34842, Note_on_c, 0, 70, 69
2, 34851, Note_on_c, 0, 53, 0
2, 34863, Note_on_c, 0, 70, 0
2, 34878, Note_on_c, 0, 72, 70
2, 34903, Note_on_c, 0, 60, 0
2, 34905, Note_on_c, 0, 53, 38
2, 34909, Control_c, 0, 64, 0
2, 34911, Note_on_c, 0, 62, 0
2, 34920, Note_on_c, 0, 72, 0
2, 34923, Note_on_c, 0, 73, 46
2, 34931, Note_on_c, 0, 53, 0
2, 34937, Control_c, 0, 64, 127
2, 34947, Note_on_c, 0, 73, 0
2, 34957, Note_on_c, 0, 74, 50
2, 34988, Note_on_c, 0, 74, 0
2, 35008, Note_on_c, 0, 76, 22
2, 35021, Note_on_c, 0, 76, 0
2, 35033, Control_c, 0, 64, 0
2, 35034, Note_on_c, 0, 62, 22
2, 35034, Note_on_c, 0, 78, 35
2, 35035, Note_on_c, 0, 58, 30
2, 35037, Note_on_c, 0, 57, 24
2, 35047, Note_on_c, 0, 78, 0
2, 35070, Note_on_c, 0, 62, 0
2, 35071, Control_c, 0, 64, 127
2, 35072, Note_on_c, 0, 81, 42
2, 35074, Note_on_c, 0, 57, 0
2, 35084, Note_on_c, 0, 58, 0
2, 35088, Note_on_c, 0, 81, 0
2, 35101, Note_on_c, 0, 86, 57
2, 35119, Note_on_c, 0, 86, 0
2, 35132, Note_on_c, 0, 90, 63
2, 35153, Note_on_c, 0, 90, 0
2, 35158, Control_c, 0, 64, 0
2, 35160, Note_on_c, 0, 58, 38
2, 35161, Note_on_c, 0, 81, 71
2, 35161, Note_on_c, 0, 93, 79
2, 35165, Note_on_c, 0, 86, 28
2, 35165, Note_on_c, 0, 48, 35
2, 35172, Note_on_c, 0, 86, 0
2, 35184, Note_on_c, 0, 81, 0
2, 35188, Note_on_c, 0, 93, 0
2, 35189, Note_on_c, 0, 48, 0
2, 35200, Note_on_c, 0, 90, 33
2, 35212, Note_on_c, 0, 90, 0
2, 35221, Note_on_c, 0, 93, 84
2, 35224, Note_on_c, 0, 81, 64
2, 35225, Note_on_c, 0, 58, 0
2, 35225, Note_on_c, 0, 48, 6
2, 35244, Note_on_c, 0, 81, 0
2, 35245, Note_on_c, 0, 93, 0
2, 35246, Control_c, 0, 64, 127
2, 35256, Note_on_c, 0, 90, 59
2, 35260, Control_c, 0, 64, 0
2, 35271, Note_on_c, 0, 58, 35
2, 35281, Note_on_c, 0, 90, 0
2, 35287, Note_on_c, 0, 48, 0
2, 35290, Note_on_c, 0, 86, 62
2, 35290, Control_c, 0, 64, 127
2, 35302, Note_on_c, 0, 86, 0
2, 35310, Note_on_c, 0, 81, 53
2, 35315, Note_on_c, 0, 58, 0
2, 35329, Note_on_c, 0, 81, 0
2, 35375, Note_on_c, 0, 74, 44
2, 35390, Note_on_c, 0, 74, 0
2, 35399, Control_c, 0, 64, 0
2, 35399, Note_on_c, 0, 58, 47
2, 35401, Note_on_c, 0, 62, 32
2, 35404, Note_on_c, 0, 86, 67
2, 35407, Note_on_c, 0, 52, 37
2, 35424, Note_on_c, 0, 86, 0
2, 35441, Control_c, 0, 64, 127
2, 35443, Note_on_c, 0, 81, 37
2, 35464, Note_on_c, 0, 52, 0
2, 35470, Note_on_c, 0, 81, 0
2, 35472, Note_on_c, 0, 62, 0
2, 35473, Note_on_c, 0, 78, 42
2, 35474, Note_on_c, 0, 58, 0
2, 35492, Note_on_c, 0, 78, 0
2, 35522, Note_on_c, 0, 63, 59
2, 35526, Note_on_c, 0, 58, 46
2, 35526, Control_c, 0, 64, 0
2, 35529, Note_on_c, 0, 52, 49
2, 35530, Note_on_c, 0, 73, 36
2, 35534, Note_on_c, 0, 87, 55
2, 35567, Control_c, 0, 64, 127
2, 35590, Note_on_c, 0, 73, 0
2, 35592, Note_on_c, 0, 87, 0
2, 35603, Note_on_c, 0, 52, 0
2, 35605, Note_on_c, 0, 63, 0
2, 35611, Note_on_c, 0, 87, 69
2, 35612, Note_on_c, 0, 58, 0
2, 35613, Note_on_c, 0, 73, 48
2, 35637, Note_on_c, 0, 87, 0
2, 35641, Control_c, 0, 64, 0
2, 35641, Note_on_c, 0, 63, 25
2, 35643, Note_on_c, 0, 73, 0
2, 35646, Note_on_c, 0, 58, 31
2, 35647, Note_on_c, 0, 52, 28
2, 35656, Note_on_c, 0, 85, 48
2, 35671, Note_on_c, 0, 73, 14
2, 35690, Control_c, 0, 64, 127
2, 35703, Note_on_c, 0, 73, 0
2, 35709, Note_on_c, 0, 52, 0
2, 35712, Note_on_c, 0, 85, 0
2, 35717, Note_on_c, 0, 63, 0
2, 35725, Note_on_c, 0, 58, 0
2, 35726, Note_on_c, 0, 73, 47
2, 35728, Note_on_c, 0, 87, 67
2, 35732, Note_on_c, 0, 80, 39
2, 35734, Note_on_c, 0, 85, 21
2, 35740, Note_on_c, 0, 80, 0
2, 35743, Note_on_c, 0, 85, 0
2, 35745, Note_on_c, 0, 87, 0
2, 35753, Control_c, 0, 64, 0
2, 35757, Note_on_c, 0, 73, 0
2, 35759, Note_on_c, 0, 63, 33
2, 35765, Note_on_c, 0, 58, 31
2, 35768, Note_on_c, 0, 52, 32
2, 35775, Control_c, 0, 64, 127
2, 35805, Note_on_c, 0, 52, 0
2, 35815, Note_on_c, 0, 63, 0
2, 35820, Note_on_c, 0, 58, 0
2, 35886, Note_on_c, 0, 75, 90
2, 35887, Note_on_c, 0, 68, 91
2, 35888, Control_c, 0, 64, 0
2, 35888, Note_on_c, 0, 58, 72
2, 35889, Note_on_c, 0, 72, 74
2, 35890, Note_on_c, 0, 64, 79
2, 35890, Note_on_c, 0, 54, 61
2, 35931, Control_c, 0, 64, 127
2, 35960, Note_on_c, 0, 64, 0
2, 35974, Note_on_c, 0, 72, 0
2, 35978, Note_on_c, 0, 75, 0
2, 35980, Note_on_c, 0, 68, 0
2, 35992, Note_on_c, 0, 54, 0
2, 35992, Note_on_c, 0, 58, 0
2, 36001, Note_on_c, 0, 70, 47
2, 36007, Note_on_c, 0, 74, 66
2, 36008, Note_on_c, 0, 70, 0
2, 36010, Control_c, 0, 64, 0
2, 36011, Note_on_c, 0, 66, 57
2, 36011, Note_on_c, 0, 63, 67
2, 36014, Note_on_c, 0, 62, 66
2, 36016, Note_on_c, 0, 53, 47
2, 36016, Note_on_c, 0, 69, 46
2, 36048, Control_c, 0, 64, 127
2, 36053, Note_on_c, 0, 62, 0
2, 36066, Note_on_c, 0, 53, 0
2, 36116, Note_on_c, 0, 63, 0
2, 36116, Note_on_c, 0, 74, 0
2, 36118, Note_on_c, 0, 69, 0
2, 36120, Note_on_c, 0, 66, 0
2, 36125, Control_c, 0, 64, 0
2, 36130, Note_on_c, 0, 41, 76
2, 36145, Control_c, 0, 64, 127
2, 36155, Note_on_c, 0, 41, 0
2, 36247, Note_on_c, 0, 69, 46
2, 36248, Control_c, 0, 64, 0
2, 36249, Note_on_c, 0, 51, 45
2, 36252, Note_on_c, 0, 65, 47
2, 36254, Note_on_c, 0, 57, 34
2, 36255, Note_on_c, 0, 60, 18
2, 36285, Control_c, 0, 64, 127
2, 36320, Note_on_c, 0, 65, 0
2, 36324, Note_on_c, 0, 60, 0
2, 36325, Note_on_c, 0, 57, 0
2, 36335, Note_on_c, 0, 69, 0
2, 36342, Note_on_c, 0, 51, 0
2, 36361, Control_c, 0, 64, 0
2, 36368, Note_on_c, 0, 51, 33
2, 36369, Note_on_c, 0, 60, 37
2, 36370, Note_on_c, 0, 69, 41
2, 36370, Note_on_c, 0, 65, 48
2, 36370, Note_on_c, 0, 57, 37
2, 36394, Control_c, 0, 64, 127
2, 36418, Note_on_c, 0, 65, 0
2, 36420, Note_on_c, 0, 57, 0
2, 36424, Note_on_c, 0, 60, 0
2, 36437, Note_on_c, 0, 69, 0
2, 36452, Note_on_c, 0, 55, 52
2, 36452, Note_on_c, 0, 70, 50
2, 36454, Note_on_c, 0, 65, 58
2, 36455, Note_on_c, 0, 60, 41
2, 36456, Note_on_c, 0, 51, 0
2, 36460, Control_c, 0, 64, 0
2, 36501, Control_c, 0, 64, 127
2, 36530, Note_on_c, 0, 65, 0
2, 36538, Note_on_c, 0, 70, 0
2, 36541, Note_on_c, 0, 60, 0
2, 36562, Note_on_c, 0, 55, 0
2, 36569, Note_on_c, 0, 69, 42
2, 36569, Note_on_c, 0, 54, 36
2, 36574, Note_on_c, 0, 64, 39
2, 36580, Note_on_c, 0, 69, 0
2, 36585, Note_on_c, 0, 64, 0
2, 36605, Control_c, 0, 64, 0
2, 36610, Note_on_c, 0, 54, 0
2, 36612, Note_on_c, 0, 70, 51
2, 36613, Note_on_c, 0, 55, 46
2, 36614, Note_on_c, 0, 60, 39
2, 36616, Note_on_c, 0, 65, 37
2, 36633, Control_c, 0, 64, 127
2, 36640, Note_on_c, 0, 60, 0
2, 36644, Note_on_c, 0, 65, 0
2, 36652, Note_on_c, 0, 70, 0
2, 36653, Note_on_c, 0, 55, 0
2, 36667, Control_c, 0, 64, 0
2, 36684, Note_on_c, 0, 57, 45
2, 36684, Note_on_c, 0, 72, 58
2, 36688, Note_on_c, 0, 62, 44
2, 36688, Note_on_c, 0, 65, 58
2, 36694, Control_c, 0, 64, 127
2, 36703, Note_on_c, 0, 72, 0
2, 36708, Note_on_c, 0, 62, 0
2, 36709, Note_on_c, 0, 65, 0
2, 36722, Control_c, 0, 64, 0
2, 36725, Note_on_c, 0, 57, 0
2, 36735, Note_on_c, 0, 70, 46
2, 36737, Note_on_c, 0, 55, 36
2, 36737, Note_on_c, 0, 65, 41
2, 36739, Note_on_c, 0, 60, 36
2, 36758, Control_c, 0, 64, 127
2, 36782, Note_on_c, 0, 65, 0
2, 36785, Note_on_c, 0, 70, 0
2, 36791, Note_on_c, 0, 60, 0
2, 36826, Note_on_c, 0, 55, 0
2, 36833, Control_c, 0, 64, 0
2, 36840, Note_on_c, 0, 69, 50
2, 36842, Note_on_c, 0, 54, 28
2, 36845, Note_on_c, 0, 64, 38
2, 36863, Control_c, 0, 64, 127
2, 36878, Note_on_c, 0, 64, 0
2, 36886, Note_on_c, 0, 69, 0
2, 36917, Note_on_c, 0, 54, 0
2, 36918, Note_on_c, 0, 68, 45
2, 36921, Note_on_c, 0, 63, 35
2, 36923, Note_on_c, 0, 60, 33
2, 36924, Control_c, 0, 64, 0
2, 36926, Note_on_c, 0, 53, 36
2, 36969, Control_c, 0, 64, 127
2, 36986, Note_on_c, 0, 60, 0
2, 37001, Note_on_c, 0, 63, 0
2, 37017, Note_on_c, 0, 68, 0
2, 37024, Note_on_c, 0, 53, 0
2, 37033, Note_on_c, 0, 41, 55
2, 37040, Note_on_c, 0, 41, 0
2, 37089, Note_on_c, 0, 79, 68
2, 37092, Control_c, 0, 64, 0
2, 37092, Note_on_c, 0, 68, 51
2, 37093, Note_on_c, 0, 72, 60
2, 37094, Note_on_c, 0, 75, 50
2, 37095, Note_on_c, 0, 67, 60
2, 37116, Control_c, 0, 64, 127
2, 37132, Note_on_c, 0, 72, 0
2, 37137, Note_on_c, 0, 75, 0
2, 37140, Note_on_c, 0, 68, 0
2, 37142, Note_on_c, 0, 79, 0
2, 37150, Note_on_c, 0, 67, 0
2, 37166, Note_on_c, 0, 68, 57
2, 37170, Control_c, 0, 64, 0
2, 37170, Note_on_c, 0, 63, 51
2, 37170, Note_on_c, 0, 72, 54
2, 37170, Note_on_c, 0, 75, 42
2, 37171, Note_on_c, 0, 77, 36
2, 37179, Note_on_c, 0, 72, 0
2, 37184, Note_on_c, 0, 75, 0
2, 37184, Note_on_c, 0, 77, 0
2, 37184, Note_on_c, 0, 63, 0
2, 37188, Note_on_c, 0, 68, 0
2, 37197, Control_c, 0, 64, 127
2, 37235, Control_c, 0, 64, 0
2, 37241, Note_on_c, 0, 71, 43
2, 37244, Note_on_c, 0, 67, 64
2, 37245, Note_on_c, 0, 62, 55
2, 37249, Note_on_c, 0, 56, 34
2, 37270, Control_c, 0, 64, 127
2, 37296, Note_on_c, 0, 67, 0
2, 37301, Note_on_c, 0, 62, 0
2, 37308, Control_c, 0, 64, 0
2, 37318, Note_on_c, 0, 67, 33
2, 37320, Note_on_c, 0, 71, 0
2, 37322, Note_on_c, 0, 62, 40
2, 37328, Note_on_c, 0, 46, 36
2, 37331, Control_c, 0, 64, 127
2, 37337, Note_on_c, 0, 67, 0
2, 37349, Note_on_c, 0, 56, 0
2, 37351, Note_on_c, 0, 62, 0
2, 37395, Note_on_c, 0, 70, 49
2, 37398, Note_on_c, 0, 65, 62
2, 37400, Note_on_c, 0, 55, 39
2, 37400, Note_on_c, 0, 60, 36
2, 37402, Control_c, 0, 64, 0
2, 37460, Control_c, 0, 64, 127
2, 37474, Note_on_c, 0, 46, 0
2, 37508, Note_on_c, 0, 46, 62
2, 37514, Control_c, 0, 64, 0
2, 37543, Note_on_c, 0, 46, 0
2, 37561, Note_on_c, 0, 46, 52
2, 37565, Control_c, 0, 64, 127
2, 37604, Note_on_c, 0, 46, 0
2, 37630, Note_on_c, 0, 46, 64
2, 37659, Note_on_c, 0, 55, 0
2, 37661, Note_on_c, 0, 46, 0
2, 37669, Control_c, 0, 64, 0
2, 37686, Note_on_c, 0, 46, 49
2, 37688, Note_on_c, 0, 55, 34
2, 37691, Control_c, 0, 64, 127
2, 37696, Note_on_c, 0, 65, 0
2, 37697, Note_on_c, 0, 60, 0
2, 37701, Note_on_c, 0, 55, 0
2, 37702, Note_on_c, 0, 70, 0
2, 37724, Note_on_c, 0, 46, 0
2, 37754, Note_on_c, 0, 69, 55
2, 37756, Note_on_c, 0, 64, 54
2, 37757, Note_on_c, 0, 54, 45
2, 37757, Control_c, 0, 64, 0
2, 37758, Note_on_c, 0, 59, 31
2, 37759, Note_on_c, 0, 45, 45
2, 37793, Control_c, 0, 64, 127
2, 37832, Note_on_c, 0, 59, 0
2, 37835, Note_on_c, 0, 64, 0
2, 37844, Note_on_c, 0, 45, 0
2, 37850, Note_on_c, 0, 69, 0
2, 37875, Note_on_c, 0, 54, 0
2, 37899, Control_c, 0, 64, 0
2, 37908, Note_on_c, 0, 44, 31
2, 37909, Note_on_c, 0, 65, 58
2, 37913, Note_on_c, 0, 54, 19
2, 37913, Note_on_c, 0, 60, 32
2, 37929, Control_c, 0, 64, 127
2, 37940, Note_on_c, 0, 44, 0
2, 37944, Note_on_c, 0, 54, 0
2, 37954, Note_on_c, 0, 60, 0
2, 37987, Note_on_c, 0, 65, 0
2, 37994, Note_on_c, 0, 70, 52
2, 38010, Note_on_c, 0, 70, 0
2, 38036, Note_on_c, 0, 72, 36
2, 38043, Control_c, 0, 64, 0
2, 38050, Note_on_c, 0, 72, 0
2, 38066, Note_on_c, 0, 77, 61
2, 38071, Control_c, 0, 64, 127
2, 38098, Note_on_c, 0, 82, 72
2, 38101, Note_on_c, 0, 77, 0
2, 38113, Note_on_c, 0, 82, 0
2, 38130, Note_on_c, 0, 84, 76
2, 38138, Control_c, 0, 64, 0
2, 38141, Note_on_c, 0, 44, 48
2, 38143, Note_on_c, 0, 54, 35
2, 38159, Note_on_c, 0, 89, 71
2, 38161, Control_c, 0, 64, 127
2, 38165, Note_on_c, 0, 44, 0
2, 38168, Note_on_c, 0, 84, 0
2, 38170, Note_on_c, 0, 54, 0
2, 38189, Note_on_c, 0, 94, 61
2, 38193, Note_on_c, 0, 89, 0
2, 38211, Note_on_c, 0, 94, 0
2, 38216, Note_on_c, 0, 96, 82
2, 38224, Note_on_c, 0, 84, 28
2, 38240, Note_on_c, 0, 96, 0
2, 38242, Note_on_c, 0, 84, 0
2, 38249, Note_on_c, 0, 94, 37
2, 38257, Note_on_c, 0, 94, 0
2, 38265, Control_c, 0, 64, 0
2, 38266, Note_on_c, 0, 65, 29
2, 38269, Note_on_c, 0, 60, 34
2, 38269, Note_on_c, 0, 96, 78
2, 38272, Note_on_c, 0, 58, 25
2, 38279, Note_on_c, 0, 84, 25
2, 38289, Note_on_c, 0, 96, 0
2, 38291, Control_c, 0, 64, 127
2, 38303, Note_on_c, 0, 94, 55
2, 38307, Note_on_c, 0, 84, 0
2, 38312, Note_on_c, 0, 65, 0
2, 38319, Note_on_c, 0, 94, 0
2, 38365, Note_on_c, 0, 89, 25
2, 38374, Note_on_c, 0, 89, 0
2, 38388, Control_c, 0, 64, 0
2, 38389, Note_on_c, 0, 58, 0
2, 38389, Note_on_c, 0, 60, 0
2, 38396, Note_on_c, 0, 97, 74
2, 38398, Note_on_c, 0, 53, 39
2, 38399, Note_on_c, 0, 85, 71
2, 38431, Control_c, 0, 64, 127
2, 38435, Note_on_c, 0, 97, 0
2, 38436, Note_on_c, 0, 98, 68
2, 38437, Note_on_c, 0, 85, 0
2, 38441, Note_on_c, 0, 86, 53
2, 38442, Note_on_c, 0, 96, 48
2, 38459, Note_on_c, 0, 86, 0
2, 38465, Note_on_c, 0, 98, 0
2, 38468, Note_on_c, 0, 96, 0
2, 38480, Note_on_c, 0, 97, 63
2, 38480, Note_on_c, 0, 85, 64
2, 38499, Control_c, 0, 64, 0
2, 38506, Note_on_c, 0, 85, 0
2, 38509, Note_on_c, 0, 97, 0
2, 38511, Note_on_c, 0, 65, 46
2, 38515, Note_on_c, 0, 62, 31
2, 38516, Note_on_c, 0, 98, 42
2, 38517, Note_on_c, 0, 60, 32
2, 38525, Note_on_c, 0, 98, 0
2, 38528, Control_c, 0, 64, 127
2, 38534, Note_on_c, 0, 65, 0
2, 38548, Note_on_c, 0, 97, 56
2, 38549, Note_on_c, 0, 85, 50
2, 38569, Note_on_c, 0, 85, 0
2, 38570, Note_on_c, 0, 97, 0
2, 38571, Note_on_c, 0, 53, 0
2, 38584, Note_on_c, 0, 98, 45
2, 38585, Note_on_c, 0, 86, 47
2, 38587, Note_on_c, 0, 96, 34
2, 38592, Note_on_c, 0, 98, 0
2, 38594, Note_on_c, 0, 86, 0
2, 38594, Note_on_c, 0, 96, 0
2, 38617, Note_on_c, 0, 94, 49
2, 38618, Note_on_c, 0, 82, 59
2, 38623, Control_c, 0, 64, 0
2, 38624, Note_on_c, 0, 92, 31
2, 38625, Note_on_c, 0, 53, 36
2, 38649, Control_c, 0, 64, 127
2, 38652, Note_on_c, 0, 94, 0
2, 38658, Note_on_c, 0, 60, 0
2, 38661, Note_on_c, 0, 82, 0
2, 38661, Note_on_c, 0, 92, 0
2, 38678, Note_on_c, 0, 62, 0
2, 38716, Note_on_c, 0, 86, 48
2, 38717, Note_on_c, 0, 79, 45
2, 38720, Note_on_c, 0, 91, 34
2, 38725, Note_on_c, 0, 86, 0
2, 38727, Note_on_c, 0, 79, 0
2, 38728, Note_on_c, 0, 91, 0
2, 38749, Control_c, 0, 64, 0
2, 38752, Note_on_c, 0, 65, 49
2, 38752, Note_on_c, 0, 62, 45
2, 38755, Note_on_c, 0, 60, 39
2, 38772, Note_on_c, 0, 65, 0
2, 38777, Control_c, 0, 64, 127
2, 38791, Note_on_c, 0, 53, 0
2, 38800, Note_on_c, 0, 62, 0
2, 38801, Note_on_c, 0, 60, 0
2, 38837, Note_on_c, 0, 52, 64
2, 38872, Control_c, 0, 64, 0
2, 38875, Note_on_c, 0, 94, 69
2, 38875, Note_on_c, 0, 58, 55
2, 38876, Note_on_c, 0, 98, 80
2, 38876, Note_on_c, 0, 91, 71
2, 38876, Note_on_c, 0, 86, 68
2, 38880, Note_on_c, 0, 64, 37
2, 38880, Note_on_c, 0, 62, 44
2, 38886, Note_on_c, 0, 64, 0
2, 38896, Control_c, 0, 64, 127
2, 38898, Note_on_c, 0, 98, 0
2, 38902, Note_on_c, 0, 91, 0
2, 38902, Note_on_c, 0, 94, 0
2, 38910, Note_on_c, 0, 86, 0
2, 38941, Note_on_c, 0, 58, 0
2, 38948, Note_on_c, 0, 62, 0
2, 38984, Note_on_c, 0, 52, 0
2, 38992, Note_on_c, 0, 74, 75
2, 38994, Note_on_c, 0, 66, 77
2, 38996, Note_on_c, 0, 69, 76
2, 38996, Note_on_c, 0, 58, 64
2, 38996, Note_on_c, 0, 62, 81
2, 38999, Control_c, 0, 64, 0
2, 39036, Control_c, 0, 64, 127
2, 39043, Note_on_c, 0, 62, 0
2, 39050, Control_c, 0, 64, 0
2, 39053, Note_on_c, 0, 66, 0
2, 39054, Note_on_c, 0, 74, 0
2, 39055, Note_on_c, 0, 69, 0
2, 39057, Note_on_c, 0, 58, 0
2, 39070, Note_on_c, 0, 74, 68
2, 39071, Note_on_c, 0, 58, 75
2, 39071, Note_on_c, 0, 64, 64
2, 39072, Note_on_c, 0, 66, 68
2, 39074, Note_on_c, 0, 69, 55
2, 39081, Control_c, 0, 64, 127
2, 39105, Note_on_c, 0, 64, 0
2, 39106, Note_on_c, 0, 66, 0
2, 39110, Note_on_c, 0, 69, 0
2, 39110, Note_on_c, 0, 74, 0
2, 39112, Note_on_c, 0, 58, 0
2, 39125, Note_on_c, 0, 74, 58
2, 39125, Note_on_c, 0, 66, 48
2, 39127, Note_on_c, 0, 64, 52
2, 39128, Note_on_c, 0, 69, 57
2, 39128, Note_on_c, 0, 58, 64
2, 39157, Note_on_c, 0, 64, 0
2, 39162, Note_on_c, 0, 74, 0
2, 39175, Note_on_c, 0, 66, 0
2, 39181, Note_on_c, 0, 69, 0
2, 39186, Note_on_c, 0, 58, 0
2, 39203, Note_on_c, 0, 66, 55
2, 39206, Note_on_c, 0, 72, 53
2, 39206, Note_on_c, 0, 69, 42
2, 39207, Control_c, 0, 64, 0
2, 39207, Note_on_c, 0, 62, 45
2, 39210, Note_on_c, 0, 58, 40
2, 39235, Control_c, 0, 64, 127
2, 39267, Note_on_c, 0, 69, 0
2, 39269, Note_on_c, 0, 62, 0
2, 39269, Note_on_c, 0, 66, 0
2, 39274, Note_on_c, 0, 72, 0
2, 39275, Note_on_c, 0, 58, 0
2, 39442, Note_on_c, 0, 79, 77
2, 39443, Note_on_c, 0, 68, 74
2, 39444, Note_on_c, 0, 75, 64
2, 39445, Note_on_c, 0, 67, 81
2, 39445, Note_on_c, 0, 72, 72
2, 39459, Control_c, 0, 64, 0
2, 39472, Note_on_c, 0, 68, 0
2, 39477, Note_on_c, 0, 79, 0
2, 39477, Note_on_c, 0, 72, 0
2, 39480, Note_on_c, 0, 75, 0
2, 39491, Note_on_c, 0, 67, 0
2, 39496, Note_on_c, 0, 68, 46
2, 39497, Note_on_c, 0, 77, 40
2, 39498, Note_on_c, 0, 65, 58
2, 39498, Note_on_c, 0, 72, 46
2, 39499, Control_c, 0, 64, 127
2, 39502, Note_on_c, 0, 75, 40
2, 39526, Note_on_c, 0, 65, 0
2, 39528, Note_on_c, 0, 72, 0
2, 39531, Note_on_c, 0, 75, 0
2, 39531, Note_on_c, 0, 77, 0
2, 39540, Note_on_c, 0, 68, 0
2, 39613, Note_on_c, 0, 73, 38
2, 39614, Note_on_c, 0, 61, 42
2, 39615, Note_on_c, 0, 69, 54
2, 39617, Control_c, 0, 64, 0
2, 39620, Note_on_c, 0, 65, 50
2, 39632, Control_c, 0, 64, 127
2, 39656, Note_on_c, 0, 69, 0
2, 39658, Note_on_c, 0, 61, 0
2, 39663, Note_on_c, 0, 73, 0
2, 39667, Note_on_c, 0, 65, 0
2, 39730, Control_c, 0, 64, 0
2, 39731, Note_on_c, 0, 61, 29
2, 39734, Note_on_c, 0, 65, 56
2, 39738, Note_on_c, 0, 53, 31
2, 39756, Control_c, 0, 64, 127
2, 39779, Note_on_c, 0, 61, 0
2, 39782, Note_on_c, 0, 65, 0
2, 39810, Note_on_c, 0, 53, 0
2, 39818, Note_on_c, 0, 70, 49
2, 39819, Note_on_c, 0, 65, 58
2, 39820, Note_on_c, 0, 55, 47
2, 39825, Note_on_c, 0, 60, 33
2, 39831, Control_c, 0, 64, 0
2, 39869, Control_c, 0, 64, 127
2, 39891, Note_on_c, 0, 65, 0
2, 39896, Note_on_c, 0, 70, 0
2, 39899, Note_on_c, 0, 60, 0
2, 39924, Note_on_c, 0, 55, 0
2, 39930, Note_on_c, 0, 54, 38
2, 39933, Note_on_c, 0, 59, 34
2, 39935, Note_on_c, 0, 64, 41
2, 39945, Note_on_c, 0, 59, 0
2, 39949, Note_on_c, 0, 64, 0
2, 39966, Control_c, 0, 64, 0
2, 39971, Note_on_c, 0, 54, 0
2, 39977, Note_on_c, 0, 55, 35
2, 39981, Note_on_c, 0, 70, 33
2, 39981, Note_on_c, 0, 65, 35
2, 39984, Note_on_c, 0, 55, 0
2, 39990, Note_on_c, 0, 65, 0
2, 39991, Note_on_c, 0, 70, 0
2, 40051, Control_c, 0, 64, 127
2, 40056, Note_on_c, 0, 41, 37
2, 40064, Note_on_c, 0, 41, 0
2, 40086, Control_c, 0, 64, 0
2, 40093, Note_on_c, 0, 62, 42
2, 40095, Note_on_c, 0, 66, 31
2, 40095, Note_on_c, 0, 69, 35
2, 40097, Note_on_c, 0, 51, 32
2, 40102, Note_on_c, 0, 57, 13
2, 40112, Control_c, 0, 64, 127
2, 40149, Note_on_c, 0, 57, 0
2, 40157, Note_on_c, 0, 62, 0
2, 40178, Note_on_c, 0, 66, 0
2, 40188, Note_on_c, 0, 69, 0
2, 40210, Note_on_c, 0, 51, 0
2, 40211, Note_on_c, 0, 41, 38
2, 40221, Note_on_c, 0, 41, 0
2, 40283, Note_on_c, 0, 77, 48
2, 40295, Note_on_c, 0, 77, 0
2, 40300, Note_on_c, 0, 79, 53
2, 40319, Note_on_c, 0, 77, 48
2, 40325, Note_on_c, 0, 79, 0
2, 40326, Note_on_c, 0, 65, 31
2, 40328, Control_c, 0, 64, 0
2, 40334, Note_on_c, 0, 62, 27
2, 40334, Note_on_c, 0, 60, 33
2, 40337, Note_on_c, 0, 77, 0
2, 40342, Note_on_c, 0, 76, 29
2, 40346, Note_on_c, 0, 65, 0
2, 40351, Note_on_c, 0, 76, 0
2, 40366, Note_on_c, 0, 77, 40
2, 40382, Note_on_c, 0, 77, 0
2, 40386, Note_on_c, 0, 79, 44
2, 40407, Note_on_c, 0, 79, 0
2, 40410, Note_on_c, 0, 77, 30
2, 40419, Control_c, 0, 64, 127
2, 40422, Note_on_c, 0, 77, 0
2, 40427, Note_on_c, 0, 76, 37
2, 40437, Note_on_c, 0, 76, 0
2, 40446, Note_on_c, 0, 53, 46
2, 40446, Control_c, 0, 64, 0
2, 40453, Note_on_c, 0, 77, 45
2, 40460, Note_on_c, 0, 60, 0
2, 40470, Note_on_c, 0, 62, 0
2, 40470, Note_on_c, 0, 77, 0
2, 40472, Note_on_c, 0, 79, 47
2, 40493, Note_on_c, 0, 79, 0
2, 40494, Note_on_c, 0, 77, 35
2, 40500, Control_c, 0, 64, 127
2, 40509, Note_on_c, 0, 77, 0
2, 40515, Note_on_c, 0, 76, 30
2, 40525, Note_on_c, 0, 76, 0
2, 40538, Note_on_c, 0, 77, 50
2, 40556, Note_on_c, 0, 77, 0
2, 40560, Note_on_c, 0, 79, 53
2, 40562, Note_on_c, 0, 64, 31
2, 40567, Control_c, 0, 64, 0
2, 40567, Note_on_c, 0, 59, 36
2, 40572, Note_on_c, 0, 64, 0
2, 40578, Note_on_c, 0, 79, 0
2, 40579, Note_on_c, 0, 59, 0
2, 40584, Note_on_c, 0, 76, 36
2, 40591, Note_on_c, 0, 53, 0
2, 40601, Note_on_c, 0, 76, 0
2, 40608, Note_on_c, 0, 77, 36
2, 40632, Control_c, 0, 64, 127
2, 40659, Note_on_c, 0, 77, 0
2, 40664, Note_on_c, 0, 74, 71
2, 40674, Control_c, 0, 64, 0
2, 40679, Note_on_c, 0, 74, 0
2, 40685, Note_on_c, 0, 43, 38
2, 40693, Note_on_c, 0, 43, 0
2, 40704, Control_c, 0, 64, 127
2, 40800, Control_c, 0, 64, 0
2, 40804, Note_on_c, 0, 74, 34
2, 40804, Note_on_c, 0, 64, 26
2, 40806, Note_on_c, 0, 67, 24
2, 40807, Note_on_c, 0, 70, 33
2, 40807, Note_on_c, 0, 58, 33
2, 40811, Note_on_c, 0, 48, 30
2, 40824, Note_on_c, 0, 64, 0
2, 40825, Note_on_c, 0, 48, 0
2, 40826, Control_c, 0, 64, 127
2, 40844, Note_on_c, 0, 58, 0
2, 40855, Note_on_c, 0, 67, 0
2, 40863, Note_on_c, 0, 70, 0
2, 40869, Note_on_c, 0, 74, 0
2, 40919, Note_on_c, 0, 58, 54
2, 40927, Control_c, 0, 64, 0
2, 40938, Note_on_c, 0, 58, 0
2, 40972, Control_c, 0, 64, 127
2, 41001, Note_on_c, 0, 50, 58
2, 41004, Note_on_c, 0, 58, 37
2, 41019, Note_on_c, 0, 58, 0
2, 41027, Note_on_c, 0, 50, 0
2, 41028, Control_c, 0, 64, 0
2, 41037, Note_on_c, 0, 58, 59
2, 41039, Note_on_c, 0, 86, 62
2, 41041, Note_on_c, 0, 51, 54
2, 41042, Note_on_c, 0, 74, 44
2, 41042, Note_on_c, 0, 79, 44
2, 41045, Note_on_c, 0, 82, 47
2, 41071, Control_c, 0, 64, 127
2, 41098, Note_on_c, 0, 82, 0
2, 41101, Note_on_c, 0, 79, 0
2, 41108, Note_on_c, 0, 74, 0
2, 41131, Note_on_c, 0, 51, 0
2, 41135, Note_on_c, 0, 86, 0
2, 41137, Note_on_c, 0, 58, 0
2, 41156, Note_on_c, 0, 58, 51
2, 41156, Control_c, 0, 64, 0
2, 41162, Note_on_c, 0, 52, 49
2, 41170, Control_c, 0, 64, 127
2, 41184, Note_on_c, 0, 52, 0
2, 41193, Note_on_c, 0, 58, 0
2, 41279, Control_c, 0, 64, 0
2, 41281, Note_on_c, 0, 86, 95
2, 41284, Note_on_c, 0, 63, 45
2, 41285, Note_on_c, 0, 67, 62
2, 41286, Note_on_c, 0, 62, 45
2, 41287, Note_on_c, 0, 58, 35
2, 41301, Note_on_c, 0, 67, 0
2, 41302, Note_on_c, 0, 62, 0
2, 41313, Control_c, 0, 64, 127
2, 41316, Note_on_c, 0, 63, 0
2, 41317, Note_on_c, 0, 58, 0
2, 41368, Note_on_c, 0, 86, 0
2, 41368, Note_on_c, 0, 83, 32
2, 41390, Note_on_c, 0, 83, 0
2, 41402, Control_c, 0, 64, 0
2, 41402, Note_on_c, 0, 64, 37
2, 41404, Note_on_c, 0, 58, 27
2, 41404, Note_on_c, 0, 84, 63
2, 41407, Note_on_c, 0, 54, 30
2, 41407, Note_on_c, 0, 61, 33
2, 41439, Note_on_c, 0, 84, 0
2, 41441, Control_c, 0, 64, 127
2, 41455, Note_on_c, 0, 64, 0
2, 41486, Note_on_c, 0, 61, 0
2, 41488, Note_on_c, 0, 58, 0
2, 41489, Note_on_c, 0, 54, 0
2, 41518, Control_c, 0, 64, 0
2, 41521, Note_on_c, 0, 63, 61
2, 41526, Note_on_c, 0, 53, 42
2, 41528, Note_on_c, 0, 60, 31
2, 41537, Note_on_c, 0, 60, 0
2, 41540, Control_c, 0, 64, 127
2, 41541, Note_on_c, 0, 63, 0
2, 41556, Note_on_c, 0, 53, 0
2, 41606, Note_on_c, 0, 89, 67
2, 41606, Note_on_c, 0, 84, 66
2, 41609, Note_on_c, 0, 77, 39
2, 41613, Note_on_c, 0, 89, 0
2, 41618, Note_on_c, 0, 84, 0
2, 41620, Note_on_c, 0, 77, 0
2, 41631, Control_c, 0, 64, 0
2, 41642, Note_on_c, 0, 41, 52
2, 41649, Note_on_c, 0, 41, 0
2, 41650, Control_c, 0, 64, 127
2, 41724, Note_on_c, 0, 70, 70
2, 41726, Note_on_c, 0, 65, 84
2, 41727, Note_on_c, 0, 51, 38
2, 41729, Note_on_c, 0, 60, 66
2, 41730, Note_on_c, 0, 55, 67
2, 41736, Control_c, 0, 64, 0
2, 41769, Control_c, 0, 64, 127
2, 41776, Note_on_c, 0, 55, 0
2, 41784, Note_on_c, 0, 51, 0
2, 41790, Note_on_c, 0, 60, 0
2, 41798, Note_on_c, 0, 65, 0
2, 41828, Note_on_c, 0, 70, 0
2, 41845, Note_on_c, 0, 64, 66
2, 41846, Note_on_c, 0, 61, 52
2, 41849, Note_on_c, 0, 55, 43
2, 41850, Note_on_c, 0, 58, 46
2, 41852, Control_c, 0, 64, 0
2, 41853, Note_on_c, 0, 49, 44
2, 41890, Control_c, 0, 64, 127
2, 41907, Note_on_c, 0, 55, 0
2, 41924, Note_on_c, 0, 58, 0
2, 41926, Note_on_c, 0, 64, 0
2, 41933, Note_on_c, 0, 61, 0
2, 41937, Note_on_c, 0, 49, 0
2, 41966, Note_on_c, 0, 63, 57
2, 41969, Note_on_c, 0, 60, 62
2, 41970, Note_on_c, 0, 58, 51
2, 41973, Control_c, 0, 64, 0
2, 41976, Note_on_c, 0, 48, 33
2, 41993, Note_on_c, 0, 58, 0
2, 41999, Note_on_c, 0, 48, 0
2, 42006, Note_on_c, 0, 60, 0
2, 42008, Note_on_c, 0, 63, 0
2, 42011, Control_c, 0, 64, 127
2, 42083, Note_on_c, 0, 68, 60
2, 42084, Note_on_c, 0, 41, 50
2, 42084, Note_on_c, 0, 61, 57
2, 42084, Note_on_c, 0, 63, 48
2, 42086, Note_on_c, 0, 57, 59
2, 42090, Note_on_c, 0, 51, 26
2, 42096, Control_c, 0, 64, 0
2, 42106, Note_on_c, 0, 41, 0
2, 42128, Note_on_c, 0, 51, 0
2, 42134, Control_c, 0, 64, 127
2, 42181, Note_on_c, 0, 57, 0
2, 42205, Note_on_c, 0, 61, 0
2, 42210, Note_on_c, 0, 53, 37
2, 42211, Note_on_c, 0, 68, 0
2, 42220, Note_on_c, 0, 63, 0
2, 42238, Note_on_c, 0, 53, 0
2, 42242, Note_on_c, 0, 62, 47
2, 42246, Control_c, 0, 64, 0
2, 42246, Note_on_c, 0, 65, 55
2, 42247, Note_on_c, 0, 55, 35
2, 42249, Note_on_c, 0, 46, 32
2, 42285, Control_c, 0, 64, 127
2, 42291, Note_on_c, 0, 62, 0
2, 42305, Note_on_c, 0, 55, 0
2, 42312, Note_on_c, 0, 65, 0
2, 42329, Note_on_c, 0, 53, 36
2, 42334, Note_on_c, 0, 64, 30
2, 42352, Note_on_c, 0, 64, 0
2, 42356, Note_on_c, 0, 53, 0
2, 42360, Control_c, 0, 64, 0
2, 42368, Note_on_c, 0, 65, 64
2, 42369, Note_on_c, 0, 55, 36
2, 42369, Note_on_c, 0, 62, 50
2, 42372, Note_on_c, 0, 58, 39
2, 42381, Note_on_c, 0, 55, 0
2, 42384, Control_c, 0, 64, 127
2, 42386, Note_on_c, 0, 46, 0
2, 42415, Note_on_c, 0, 58, 0
2, 42425, Note_on_c, 0, 62, 0
2, 42443, Note_on_c, 0, 50, 34
2, 42457, Note_on_c, 0, 65, 0
2, 42467, Note_on_c, 0, 50, 0
2, 42480, Note_on_c, 0, 62, 43
2, 42482, Control_c, 0, 64, 0
2, 42483, Note_on_c, 0, 67, 42
2, 42485, Note_on_c, 0, 53, 29
2, 42485, Note_on_c, 0, 59, 36
2, 42513, Control_c, 0, 64, 127
2, 42524, Note_on_c, 0, 53, 0
2, 42551, Note_on_c, 0, 59, 0
2, 42559, Note_on_c, 0, 62, 0
2, 42560, Note_on_c, 0, 47, 71
2, 42564, Note_on_c, 0, 67, 0
2, 42658, Note_on_c, 0, 48, 49
2, 42680, Note_on_c, 0, 47, 0
2, 42682, Note_on_c, 0, 48, 0
2, 42690, Note_on_c, 0, 49, 64
2, 42699, Note_on_c, 0, 47, 30
2, 42708, Note_on_c, 0, 49, 0
2, 42710, Note_on_c, 0, 47, 0
2, 42715, Control_c, 0, 64, 0
2, 42716, Note_on_c, 0, 50, 63
2, 42734, Note_on_c, 0, 50, 0
2, 42744, Note_on_c, 0, 51, 46
2, 42759, Note_on_c, 0, 51, 0
2, 42768, Note_on_c, 0, 52, 62
2, 42779, Note_on_c, 0, 52, 0
2, 42788, Note_on_c, 0, 54, 55
2, 42805, Note_on_c, 0, 56, 38
2, 42805, Note_on_c, 0, 36, 33
2, 42810, Note_on_c, 0, 54, 0
2, 42812, Note_on_c, 0, 48, 15
2, 42815, Note_on_c, 0, 36, 0
2, 42825, Note_on_c, 0, 56, 0
2, 42826, Note_on_c, 0, 58, 40
2, 42828, Note_on_c, 0, 48, 0
2, 42832, Note_on_c, 0, 58, 0
2, 42844, Note_on_c, 0, 60, 49
2, 42857, Note_on_c, 0, 60, 0
2, 42862, Note_on_c, 0, 61, 42
2, 42886, Note_on_c, 0, 61, 0
2, 42897, Note_on_c, 0, 63, 35
2, 42904, Note_on_c, 0, 63, 0
2, 42936, Note_on_c, 0, 63, 28
2, 42937, Note_on_c, 0, 58, 37
2, 42937, Note_on_c, 0, 52, 44
2, 42944, Note_on_c, 0, 63, 0
2, 42953, Note_on_c, 0, 64, 61
2, 42977, Note_on_c, 0, 64, 0
2, 42978, Note_on_c, 0, 66, 51
2, 42995, Note_on_c, 0, 68, 52
2, 42998, Note_on_c, 0, 58, 0
2, 42999, Note_on_c, 0, 66, 0
2, 43011, Control_c, 0, 64, 127
2, 43013, Note_on_c, 0, 70, 55
2, 43017, Note_on_c, 0, 68, 0
2, 43021, Note_on_c, 0, 70, 0
2, 43033, Control_c, 0, 64, 0
2, 43037, Note_on_c, 0, 72, 42
2, 43040, Note_on_c, 0, 63, 32
2, 43046, Note_on_c, 0, 72, 0
2, 43048, Note_on_c, 0, 58, 28
2, 43051, Note_on_c, 0, 73, 40
2, 43073, Note_on_c, 0, 73, 0
2, 43077, Note_on_c, 0, 75, 36
2, 43092, Note_on_c, 0, 75, 0
2, 43096, Note_on_c, 0, 76, 52
2, 43109, Note_on_c, 0, 52, 0
2, 43113, Note_on_c, 0, 76, 0
2, 43118, Note_on_c, 0, 58, 0
2, 43123, Note_on_c, 0, 79, 78
2, 43125, Note_on_c, 0, 63, 0
2, 43126, Control_c, 0, 64, 127
2, 43149, Note_on_c, 0, 79, 0
2, 43161, Note_on_c, 0, 77, 60
2, 43162, Control_c, 0, 64, 0
2, 43185, Note_on_c, 0, 77, 0
2, 43196, Note_on_c, 0, 75, 61
2, 43214, Note_on_c, 0, 75, 0
2, 43242, Note_on_c, 0, 73, 36
2, 43263, Note_on_c, 0, 73, 0
2, 43278, Control_c, 0, 64, 127
2, 43281, Note_on_c, 0, 70, 53
2, 43304, Note_on_c, 0, 70, 0
2, 43312, Control_c, 0, 64, 0
2, 43319, Note_on_c, 0, 63, 37
2, 43324, Note_on_c, 0, 73, 40
2, 43325, Note_on_c, 0, 58, 32
2, 43335, Note_on_c, 0, 63, 0
2, 43344, Note_on_c, 0, 58, 0
2, 43364, Note_on_c, 0, 70, 43
2, 43378, Note_on_c, 0, 73, 0
2, 43391, Control_c, 0, 64, 127
2, 43392, Note_on_c, 0, 70, 0
2, 43404, Note_on_c, 0, 66, 46
2, 43423, Note_on_c, 0, 66, 0
2, 43437, Control_c, 0, 64, 0
2, 43445, Note_on_c, 0, 30, 45
2, 43456, Note_on_c, 0, 30, 0
2, 43465, Control_c, 0, 64, 127
2, 43529, Note_on_c, 0, 58, 55
2, 43558, Note_on_c, 0, 58, 0
2, 43566, Note_on_c, 0, 73, 51
2, 43567, Control_c, 0, 64, 0
2, 43569, Note_on_c, 0, 70, 68
2, 43569, Note_on_c, 0, 66, 67
2, 43570, Note_on_c, 0, 64, 67
2, 43573, Note_on_c, 0, 63, 67
2, 43594, Note_on_c, 0, 63, 0
2, 43603, Control_c, 0, 64, 127
2, 43619, Note_on_c, 0, 64, 0
2, 43626, Note_on_c, 0, 66, 0
2, 43626, Note_on_c, 0, 70, 0
2, 43629, Note_on_c, 0, 73, 0
2, 43673, Control_c, 0, 64, 0
2, 43686, Note_on_c, 0, 66, 53
2, 43687, Note_on_c, 0, 57, 40
2, 43688, Note_on_c, 0, 62, 62
2, 43689, Note_on_c, 0, 72, 47
2, 43689, Note_on_c, 0, 69, 47
2, 43693, Note_on_c, 0, 62, 0
2, 43696, Note_on_c, 0, 57, 0
2, 43701, Note_on_c, 0, 69, 0
2, 43703, Control_c, 0, 64, 127
2, 43704, Note_on_c, 0, 66, 0
2, 43709, Note_on_c, 0, 72, 0
2, 43880, Control_c, 0, 64, 0
2, 43882, Note_on_c, 0, 77, 66
2, 43883, Note_on_c, 0, 73, 48
2, 43884, Note_on_c, 0, 63, 52
2, 43885, Note_on_c, 0, 68, 72
2, 43896, Control_c, 0, 64, 127
2, 43907, Note_on_c, 0, 68, 0
2, 43912, Note_on_c, 0, 73, 0
2, 43921, Control_c, 0, 64, 0
2, 43922, Note_on_c, 0, 77, 0
2, 43930, Note_on_c, 0, 63, 0
2, 43934, Note_on_c, 0, 75, 53
2, 43934, Note_on_c, 0, 66, 44
2, 43936, Note_on_c, 0, 71, 50
2, 43939, Note_on_c, 0, 61, 52
2, 43949, Control_c, 0, 64, 127
2, 43953, Note_on_c, 0, 71, 0
2, 43964, Note_on_c, 0, 75, 0
2, 43971, Note_on_c, 0, 66, 0
2, 43997, Note_on_c, 0, 61, 0
2, 44010, Note_on_c, 0, 73, 35
2, 44011, Note_on_c, 0, 59, 33
2, 44013, Note_on_c, 0, 69, 51
2, 44016, Note_on_c, 0, 64, 28
2, 44020, Control_c, 0, 64, 0
2, 44049, Control_c, 0, 64, 127
2, 44063, Note_on_c, 0, 64, 0
2, 44063, Note_on_c, 0, 69, 0
2, 44076, Note_on_c, 0, 73, 0
2, 44110, Note_on_c, 0, 59, 0
2, 44126, Note_on_c, 0, 63, 47
2, 44130, Note_on_c, 0, 58, 30
2, 44132, Note_on_c, 0, 68, 29
2, 44139, Note_on_c, 0, 68, 0
2, 44149, Note_on_c, 0, 63, 0
2, 44167, Control_c, 0, 64, 0
2, 44169, Note_on_c, 0, 58, 0
2, 44173, Note_on_c, 0, 62, 61
2, 44175, Note_on_c, 0, 72, 48
2, 44177, Note_on_c, 0, 65, 51
2, 44180, Note_on_c, 0, 57, 35
2, 44214, Control_c, 0, 64, 127
2, 44228, Note_on_c, 0, 72, 0
2, 44231, Note_on_c, 0, 65, 0
2, 44232, Note_on_c, 0, 62, 0
2, 44249, Note_on_c, 0, 57, 0
2, 44251, Note_on_c, 0, 70, 47
2, 44263, Note_on_c, 0, 55, 25
2, 44277, Note_on_c, 0, 70, 0
2, 44280, Control_c, 0, 64, 0
2, 44286, Note_on_c, 0, 55, 0
2, 44293, Note_on_c, 0, 72, 64
2, 44293, Note_on_c, 0, 62, 56
2, 44295, Note_on_c, 0, 65, 54
2, 44295, Note_on_c, 0, 57, 47
2, 44297, Note_on_c, 0, 69, 44
2, 44317, Control_c, 0, 64, 127
2, 44327, Note_on_c, 0, 69, 0
2, 44329, Note_on_c, 0, 57, 0
2, 44334, Note_on_c, 0, 62, 0
2, 44339, Note_on_c, 0, 65, 0
2, 44341, Note_on_c, 0, 72, 0
2, 44372, Note_on_c, 0, 70, 46
2, 44373, Note_on_c, 0, 55, 46
2, 44377, Note_on_c, 0, 65, 54
2, 44377, Note_on_c, 0, 60, 25
2, 44378, Control_c, 0, 64, 0
2, 44380, Note_on_c, 0, 62, 24
2, 44452, Note_on_c, 0, 60, 0
2, 44453, Note_on_c, 0, 62, 0
2, 44455, Note_on_c, 0, 65, 0
2, 44467, Control_c, 0, 64, 127
2, 44468, Note_on_c, 0, 70, 0
2, 44474, Note_on_c, 0, 55, 0
2, 44485, Note_on_c, 0, 53, 33
2, 44486, Note_on_c, 0, 69, 29
2, 44496, Note_on_c, 0, 65, 24
2, 44500, Control_c, 0, 64, 0
2, 44502, Note_on_c, 0, 65, 0
2, 44504, Note_on_c, 0, 69, 0
2, 44509, Note_on_c, 0, 53, 0
2, 44521, Note_on_c, 0, 70, 38
2, 44521, Note_on_c, 0, 55, 53
2, 44526, Note_on_c, 0, 65, 44
2, 44530, Note_on_c, 0, 60, 26
2, 44534, Note_on_c, 0, 62, 19
2, 44534, Control_c, 0, 64, 127
2, 44543, Note_on_c, 0, 65, 0
2, 44545, Note_on_c, 0, 62, 0
2, 44547, Note_on_c, 0, 70, 0
2, 44549, Note_on_c, 0, 55, 0
2, 44559, Note_on_c, 0, 60, 0
2, 44600, Note_on_c, 0, 56, 33
2, 44601, Note_on_c, 0, 63, 39
2, 44602, Note_on_c, 0, 68, 39
2, 44604, Note_on_c, 0, 46, 34
2, 44604, Control_c, 0, 64, 0
2, 44607, Note_on_c, 0, 60, 35
2, 44629, Control_c, 0, 64, 127
2, 44635, Note_on_c, 0, 60, 0
2, 44642, Note_on_c, 0, 63, 0
2, 44646, Note_on_c, 0, 68, 0
2, 44647, Note_on_c, 0, 46, 0
2, 44657, Note_on_c, 0, 56, 0
2, 44714, Note_on_c, 0, 68, 71
2, 44715, Note_on_c, 0, 67, 60
2, 44715, Note_on_c, 0, 79, 60
2, 44716, Note_on_c, 0, 72, 66
2, 44720, Note_on_c, 0, 75, 38
2, 44725, Note_on_c, 0, 75, 0
2, 44725, Note_on_c, 0, 72, 0
2, 44727, Note_on_c, 0, 68, 0
2, 44732, Note_on_c, 0, 79, 0
2, 44732, Note_on_c, 0, 67, 0
2, 44740, Control_c, 0, 64, 0
2, 44751, Note_on_c, 0, 65, 36
2, 44777, Note_on_c, 0, 65, 0
2, 44788, Note_on_c, 0, 67, 46
2, 44789, Control_c, 0, 64, 127
2, 44790, Note_on_c, 0, 68, 72
2, 44791, Note_on_c, 0, 72, 66
2, 44792, Note_on_c, 0, 75, 53
2, 44792, Note_on_c, 0, 79, 51
2, 44798, Note_on_c, 0, 67, 0
2, 44802, Note_on_c, 0, 79, 0
2, 44809, Note_on_c, 0, 72, 0
2, 44812, Note_on_c, 0, 75, 0
2, 44818, Note_on_c, 0, 68, 0
2, 44858, Control_c, 0, 64, 0
2, 44858, Note_on_c, 0, 68, 62
2, 44860, Note_on_c, 0, 56, 37
2, 44862, Note_on_c, 0, 65, 57
2, 44866, Note_on_c, 0, 72, 29
2, 44873, Note_on_c, 0, 65, 0
2, 44875, Note_on_c, 0, 56, 0
2, 44876, Note_on_c, 0, 72, 0
2, 44881, Note_on_c, 0, 68, 0
2, 44890, Control_c, 0, 64, 127
2, 44898, Control_c, 0, 64, 0
2, 44924, Note_on_c, 0, 74, 59
2, 44926, Note_on_c, 0, 67, 58
2, 44926, Note_on_c, 0, 56, 45
2, 44926, Note_on_c, 0, 62, 45
2, 44941, Control_c, 0, 64, 127
2, 44981, Note_on_c, 0, 67, 0
2, 44982, Note_on_c, 0, 62, 0
2, 44984, Note_on_c, 0, 74, 0
2, 44987, Control_c, 0, 64, 0
2, 45001, Note_on_c, 0, 67, 49
2, 45003, Note_on_c, 0, 62, 46
2, 45004, Note_on_c, 0, 46, 43
2, 45007, Note_on_c, 0, 71, 45
2, 45008, Control_c, 0, 64, 127
2, 45024, Note_on_c, 0, 67, 0
2, 45029, Note_on_c, 0, 71, 0
2, 45030, Note_on_c, 0, 62, 0
2, 45031, Note_on_c, 0, 56, 0
2, 45084, Note_on_c, 0, 70, 49
2, 45088, Note_on_c, 0, 65, 52
2, 45089, Note_on_c, 0, 62, 46
2, 45091, Note_on_c, 0, 55, 36
2, 45093, Note_on_c, 0, 60, 28
2, 45098, Control_c, 0, 64, 0
2, 45142, Control_c, 0, 64, 127
2, 45150, Note_on_c, 0, 46, 0
2, 45197, Note_on_c, 0, 46, 51
2, 45225, Note_on_c, 0, 46, 0
2, 45245, Note_on_c, 0, 46, 43
2, 45264, Note_on_c, 0, 60, 0
2, 45272, Note_on_c, 0, 46, 0
2, 45302, Note_on_c, 0, 65, 0
2, 45309, Note_on_c, 0, 55, 0
2, 45312, Note_on_c, 0, 62, 0
2, 45319, Note_on_c, 0, 46, 50
2, 45337, Note_on_c, 0, 70, 0
2, 45355, Control_c, 0, 64, 0
2, 45362, Note_on_c, 0, 70, 33
2, 45365, Note_on_c, 0, 55, 41
2, 45368, Note_on_c, 0, 65, 40
2, 45372, Note_on_c, 0, 62, 14
2, 45391, Note_on_c, 0, 55, 0
2, 45393, Control_c, 0, 64, 127
2, 45408, Note_on_c, 0, 62, 0
2, 45412, Note_on_c, 0, 65, 0
2, 45419, Note_on_c, 0, 46, 0
2, 45429, Note_on_c, 0, 70, 0
2, 45547, Control_c, 0, 64, 0
2, 45551, Note_on_c, 0, 73, 44
2, 45552, Note_on_c, 0, 65, 71
2, 45552, Note_on_c, 0, 61, 61
2, 45553, Note_on_c, 0, 68, 51
2, 45557, Note_on_c, 0, 45, 55
2, 45559, Note_on_c, 0, 55, 43
2, 45572, Note_on_c, 0, 55, 0
2, 45574, Note_on_c, 0, 65, 0
2, 45576, Control_c, 0, 64, 127
2, 45578, Note_on_c, 0, 45, 0
2, 45585, Note_on_c, 0, 61, 0
2, 45586, Note_on_c, 0, 68, 0
2, 45587, Note_on_c, 0, 73, 0
2, 45618, Control_c, 0, 64, 0
2, 45619, Note_on_c, 0, 72, 51
2, 45620, Note_on_c, 0, 60, 42
2, 45622, Note_on_c, 0, 67, 43
2, 45625, Note_on_c, 0, 44, 36
2, 45627, Note_on_c, 0, 51, 35
2, 45643, Note_on_c, 0, 60, 0
2, 45643, Control_c, 0, 64, 127
2, 45652, Note_on_c, 0, 44, 0
2, 45653, Note_on_c, 0, 67, 0
2, 45658, Note_on_c, 0, 72, 0
2, 45658, Note_on_c, 0, 51, 0
2, 45699, Note_on_c, 0, 84, 82
2, 45735, Note_on_c, 0, 63, 58
2, 45742, Note_on_c, 0, 53, 32
2, 45744, Control_c, 0, 64, 0
2, 45750, Note_on_c, 0, 53, 0
2, 45751, Note_on_c, 0, 63, 0
2, 45770, Control_c, 0, 64, 127
2, 45815, Note_on_c, 0, 72, 50
2, 45815, Note_on_c, 0, 79, 50
2, 45834, Note_on_c, 0, 72, 0
2, 45842, Control_c, 0, 64, 0
2, 45851, Note_on_c, 0, 44, 34
2, 45857, Note_on_c, 0, 55, 18
2, 45858, Note_on_c, 0, 51, 32
2, 45869, Control_c, 0, 64, 127
2, 45886, Note_on_c, 0, 55, 0
2, 45894, Note_on_c, 0, 44, 0
2, 45908, Note_on_c, 0, 51, 0
2, 45930, Note_on_c, 0, 45, 57
2, 45947, Note_on_c, 0, 45, 0
2, 45964, Control_c, 0, 64, 0
2, 45966, Note_on_c, 0, 45, 56
2, 45969, Note_on_c, 0, 56, 50
2, 45993, Control_c, 0, 64, 127
2, 46010, Note_on_c, 0, 45, 0
2, 46044, Note_on_c, 0, 79, 0
2, 46049, Note_on_c, 0, 46, 57
2, 46062, Note_on_c, 0, 84, 0
2, 46062, Note_on_c, 0, 56, 0
2, 46066, Note_on_c, 0, 46, 0
2, 46081, Control_c, 0, 64, 0
2, 46085, Note_on_c, 0, 46, 53
2, 46086, Note_on_c, 0, 57, 48
2, 46105, Control_c, 0, 64, 127
2, 46110, Note_on_c, 0, 46, 0
2, 46132, Note_on_c, 0, 57, 0
2, 46161, Note_on_c, 0, 86, 62
2, 46163, Note_on_c, 0, 74, 61
2, 46165, Note_on_c, 0, 82, 46
2, 46167, Note_on_c, 0, 79, 44
2, 46178, Note_on_c, 0, 74, 0
2, 46181, Note_on_c, 0, 86, 0
2, 46189, Note_on_c, 0, 79, 0
2, 46196, Note_on_c, 0, 82, 0
2, 46202, Note_on_c, 0, 58, 49
2, 46204, Control_c, 0, 64, 0
2, 46204, Note_on_c, 0, 62, 33
2, 46206, Note_on_c, 0, 73, 27
2, 46207, Note_on_c, 0, 85, 43
2, 46209, Note_on_c, 0, 79, 34
2, 46211, Note_on_c, 0, 62, 0
2, 46219, Note_on_c, 0, 82, 15
2, 46222, Note_on_c, 0, 58, 0
2, 46237, Note_on_c, 0, 79, 0
2, 46241, Control_c, 0, 64, 127
2, 46242, Note_on_c, 0, 82, 0
2, 46251, Note_on_c, 0, 73, 0
2, 46254, Note_on_c, 0, 85, 0
2, 46281, Note_on_c, 0, 74, 52
2, 46282, Note_on_c, 0, 82, 35
2, 46282, Note_on_c, 0, 86, 53
2, 46284, Note_on_c, 0, 44, 48
2, 46289, Note_on_c, 0, 74, 0
2, 46294, Note_on_c, 0, 82, 0
2, 46300, Note_on_c, 0, 86, 0
2, 46315, Note_on_c, 0, 44, 0
2, 46322, Control_c, 0, 64, 0
2, 46326, Note_on_c, 0, 43, 56
2, 46328, Note_on_c, 0, 91, 80
2, 46328, Note_on_c, 0, 79, 69
2, 46330, Note_on_c, 0, 86, 57
2, 46331, Note_on_c, 0, 53, 39
2, 46343, Note_on_c, 0, 53, 0
2, 46346, Note_on_c, 0, 43, 0
2, 46349, Control_c, 0, 64, 127
2, 46371, Note_on_c, 0, 91, 0
2, 46372, Note_on_c, 0, 79, 0
2, 46375, Note_on_c, 0, 90, 32
2, 46378, Note_on_c, 0, 86, 0
2, 46382, Note_on_c, 0, 90, 0
2, 46400, Note_on_c, 0, 90, 48
2, 46401, Note_on_c, 0, 78, 62
2, 46404, Note_on_c, 0, 85, 55
2, 46411, Note_on_c, 0, 85, 0
2, 46431, Note_on_c, 0, 78, 0
2, 46436, Note_on_c, 0, 90, 0
2, 46436, Control_c, 0, 64, 0
2, 46440, Note_on_c, 0, 64, 44
2, 46443, Note_on_c, 0, 59, 46
2, 46445, Note_on_c, 0, 89, 67
2, 46446, Note_on_c, 0, 53, 30
2, 46452, Note_on_c, 0, 64, 0
2, 46453, Note_on_c, 0, 77, 28
2, 46455, Note_on_c, 0, 84, 29
2, 46464, Control_c, 0, 64, 127
2, 46465, Note_on_c, 0, 59, 0
2, 46469, Note_on_c, 0, 89, 0
2, 46471, Note_on_c, 0, 53, 0
2, 46474, Note_on_c, 0, 77, 0
2, 46475, Note_on_c, 0, 84, 0
2, 46518, Note_on_c, 0, 87, 56
2, 46519, Note_on_c, 0, 75, 50
2, 46520, Note_on_c, 0, 55, 47
2, 46524, Note_on_c, 0, 82, 37
2, 46536, Note_on_c, 0, 82, 0
2, 46542, Control_c, 0, 64, 0
2, 46543, Note_on_c, 0, 87, 0
2, 46543, Note_on_c, 0, 75, 0
2, 46546, Note_on_c, 0, 55, 0
2, 46559, Note_on_c, 0, 58, 39
2, 46562, Note_on_c, 0, 48, 43
2, 46564, Note_on_c, 0, 76, 40
2, 46564, Note_on_c, 0, 82, 5
2, 46565, Note_on_c, 0, 88, 42
2, 46569, Control_c, 0, 64, 127
2, 46575, Note_on_c, 0, 76, 0
2, 46579, Note_on_c, 0, 48, 0
2, 46580, Note_on_c, 0, 82, 0
2, 46588, Note_on_c, 0, 88, 0
2, 46597, Note_on_c, 0, 58, 0
2, 46637, Note_on_c, 0, 98, 84
2, 46639, Note_on_c, 0, 86, 71
2, 46640, Note_on_c, 0, 91, 68
2, 46654, Note_on_c, 0, 86, 0
2, 46665, Note_on_c, 0, 98, 0
2, 46666, Control_c, 0, 64, 0
2, 46670, Note_on_c, 0, 91, 0
2, 46679, Note_on_c, 0, 58, 35
2, 46686, Note_on_c, 0, 97, 61
2, 46689, Note_on_c, 0, 91, 47
2, 46690, Control_c, 0, 64, 127
2, 46692, Note_on_c, 0, 85, 31
2, 46710, Note_on_c, 0, 58, 0
2, 46721, Note_on_c, 0, 91, 0
2, 46735, Note_on_c, 0, 85, 0
2, 46736, Note_on_c, 0, 97, 0
2, 46756, Note_on_c, 0, 91, 60
2, 46756, Note_on_c, 0, 96, 68
2, 46759, Note_on_c, 0, 84, 40
2, 46776, Note_on_c, 0, 96, 0
2, 46782, Note_on_c, 0, 91, 0
2, 46786, Note_on_c, 0, 84, 0
2, 46791, Control_c, 0, 64, 0
2, 46793, Note_on_c, 0, 63, 43
2, 46796, Note_on_c, 0, 59, 44
2, 46798, Note_on_c, 0, 53, 47
2, 46808, Note_on_c, 0, 59, 0
2, 46810, Note_on_c, 0, 63, 0
2, 46813, Control_c, 0, 64, 127
2, 46820, Note_on_c, 0, 53, 0
2, 46874, Note_on_c, 0, 36, 68
2, 46908, Control_c, 0, 64, 0
2, 46913, Note_on_c, 0, 36, 0
2, 46921, Note_on_c, 0, 48, 51
2, 46933, Control_c, 0, 64, 127
2, 46936, Note_on_c, 0, 48, 0
2, 47026, Control_c, 0, 64, 0
2, 47034, Note_on_c, 0, 58, 50
2, 47035, Note_on_c, 0, 51, 62
2, 47036, Note_on_c, 0, 62, 58
2, 47037, Note_on_c, 0, 55, 66
2, 47041, Note_on_c, 0, 48, 65
2, 47043, Note_on_c, 0, 51, 0
2, 47044, Note_on_c, 0, 55, 0
2, 47050, Control_c, 0, 64, 127
2, 47052, Note_on_c, 0, 48, 0
2, 47057, Note_on_c, 0, 62, 0
2, 47057, Note_on_c, 0, 58, 0
2, 47119, Note_on_c, 0, 62, 60
2, 47120, Note_on_c, 0, 74, 78
2, 47120, Note_on_c, 0, 67, 79
2, 47120, Note_on_c, 0, 63, 73
2, 47124, Note_on_c, 0, 70, 52
2, 47130, Note_on_c, 0, 70, 0
2, 47146, Control_c, 0, 64, 0
2, 47149, Note_on_c, 0, 63, 0
2, 47153, Note_on_c, 0, 67, 0
2, 47154, Note_on_c, 0, 74, 0
2, 47158, Note_on_c, 0, 62, 0
2, 47164, Note_on_c, 0, 63, 38
2, 47167, Note_on_c, 0, 60, 44
2, 47168, Note_on_c, 0, 72, 50
2, 47178, Control_c, 0, 64, 127
2, 47186, Note_on_c, 0, 60, 0
2, 47196, Note_on_c, 0, 63, 0
2, 47213, Note_on_c, 0, 72, 0
2, 47241, Note_on_c, 0, 66, 68
2, 47241, Note_on_c, 0, 74, 68
2, 47244, Note_on_c, 0, 69, 62
2, 47244, Note_on_c, 0, 62, 58
2, 47245, Control_c, 0, 64, 0
2, 47245, Note_on_c, 0, 57, 59
2, 47287, Control_c, 0, 64, 127
2, 47340, Note_on_c, 0, 69, 0
2, 47349, Note_on_c, 0, 62, 0
2, 47362, Note_on_c, 0, 66, 0
2, 47383, Note_on_c, 0, 74, 0
2, 47384, Note_on_c, 0, 57, 0
2, 47394, Control_c, 0, 64, 0
2, 47397, Note_on_c, 0, 62, 40
2, 47399, Note_on_c, 0, 69, 45
2, 47399, Note_on_c, 0, 53, 36
2, 47402, Note_on_c, 0, 66, 31
2, 47421, Control_c, 0, 64, 127
2, 47441, Note_on_c, 0, 62, 0
2, 47453, Note_on_c, 0, 69, 0
2, 47453, Note_on_c, 0, 66, 0
2, 47475, Note_on_c, 0, 65, 60
2, 47476, Note_on_c, 0, 70, 49
2, 47477, Note_on_c, 0, 53, 0
2, 47478, Note_on_c, 0, 60, 40
2, 47480, Note_on_c, 0, 55, 48
2, 47485, Control_c, 0, 64, 0
2, 47525, Control_c, 0, 64, 127
2, 47538, Note_on_c, 0, 55, 0
2, 47594, Note_on_c, 0, 65, 0
2, 47596, Note_on_c, 0, 41, 51
2, 47599, Note_on_c, 0, 70, 0
2, 47617, Note_on_c, 0, 41, 0
2, 47629, Note_on_c, 0, 60, 0
2, 47649, Note_on_c, 0, 41, 46
2, 47663, Note_on_c, 0, 41, 0
2, 47719, Note_on_c, 0, 41, 40
2, 47762, Control_c, 0, 64, 0
2, 47765, Note_on_c, 0, 61, 44
2, 47767, Note_on_c, 0, 67, 36
2, 47770, Note_on_c, 0, 51, 32
2, 47771, Note_on_c, 0, 57, 32
2, 47772, Note_on_c, 0, 61, 0
2, 47780, Note_on_c, 0, 62, 33
2, 47799, Note_on_c, 0, 41, 0
2, 47815, Control_c, 0, 64, 127
2, 47836, Note_on_c, 0, 57, 0
2, 47846, Note_on_c, 0, 41, 58
2, 47858, Note_on_c, 0, 51, 0
2, 47865, Note_on_c, 0, 41, 0
2, 47869, Note_on_c, 0, 62, 0
2, 47878, Note_on_c, 0, 67, 0
2, 48005, Note_on_c, 0, 65, 42
2, 48007, Note_on_c, 0, 62, 36
2, 48009, Note_on_c, 0, 74, 71
2, 48011, Control_c, 0, 64, 0
2, 48013, Note_on_c, 0, 60, 38
2, 48022, Note_on_c, 0, 65, 0
2, 48023, Note_on_c, 0, 74, 0
2, 48023, Note_on_c, 0, 75, 55
2, 48040, Note_on_c, 0, 75, 0
2, 48042, Note_on_c, 0, 74, 42
2, 48057, Note_on_c, 0, 74, 0
2, 48061, Note_on_c, 0, 75, 57
2, 48086, Note_on_c, 0, 75, 0
2, 48086, Note_on_c, 0, 74, 24
2, 48097, Note_on_c, 0, 74, 0
2, 48098, Control_c, 0, 64, 127
2, 48101, Note_on_c, 0, 73, 36
2, 48112, Control_c, 0, 64, 0
2, 48114, Note_on_c, 0, 73, 0
2, 48121, Note_on_c, 0, 53, 35
2, 48128, Note_on_c, 0, 74, 38
2, 48145, Note_on_c, 0, 74, 0
2, 48147, Note_on_c, 0, 75, 64
2, 48156, Note_on_c, 0, 62, 0
2, 48160, Note_on_c, 0, 60, 0
2, 48164, Note_on_c, 0, 74, 43
2, 48172, Note_on_c, 0, 75, 0
2, 48185, Note_on_c, 0, 74, 0
2, 48193, Note_on_c, 0, 73, 27
2, 48208, Note_on_c, 0, 73, 0
2, 48221, Control_c, 0, 64, 127
2, 48223, Note_on_c, 0, 74, 61
2, 48231, Note_on_c, 0, 65, 41
2, 48231, Control_c, 0, 64, 0
2, 48232, Note_on_c, 0, 62, 39
2, 48239, Note_on_c, 0, 60, 30
2, 48253, Note_on_c, 0, 65, 0
2, 48263, Control_c, 0, 64, 127
2, 48285, Note_on_c, 0, 53, 0
2, 48351, Control_c, 0, 64, 0
2, 48355, Note_on_c, 0, 53, 38
2, 48375, Control_c, 0, 64, 127
2, 48378, Note_on_c, 0, 53, 0
2, 48383, Note_on_c, 0, 62, 0
2, 48386, Note_on_c, 0, 60, 0
2, 48387, Note_on_c, 0, 74, 0
2, 48391, Note_on_c, 0, 73, 35
2, 48416, Note_on_c, 0, 73, 0
2, 48429, Note_on_c, 0, 74, 68
2, 48455, Note_on_c, 0, 74, 0
2, 48474, Note_on_c, 0, 74, 45
2, 48475, Control_c, 0, 64, 0
2, 48476, Note_on_c, 0, 62, 38
2, 48477, Note_on_c, 0, 58, 37
2, 48483, Note_on_c, 0, 52, 36
2, 48492, Note_on_c, 0, 52, 0
2, 48502, Note_on_c, 0, 62, 0
2, 48503, Control_c, 0, 64, 127
2, 48516, Note_on_c, 0, 58, 0
2, 48559, Note_on_c, 0, 62, 52
2, 48602, Note_on_c, 0, 58, 36
2, 48604, Note_on_c, 0, 50, 48
2, 48610, Control_c, 0, 64, 0
2, 48664, Control_c, 0, 64, 127
2, 48679, Note_on_c, 0, 62, 0
2, 48681, Note_on_c, 0, 50, 0
2, 48683, Note_on_c, 0, 51, 45
2, 48704, Note_on_c, 0, 58, 0
2, 48715, Note_on_c, 0, 51, 0
2, 48721, Control_c, 0, 64, 0
2, 48725, Note_on_c, 0, 64, 34
2, 48725, Note_on_c, 0, 67, 33
2, 48728, Note_on_c, 0, 58, 25
2, 48732, Note_on_c, 0, 52, 36
2, 48749, Control_c, 0, 64, 127
2, 48772, Note_on_c, 0, 58, 0
2, 48822, Note_on_c, 0, 52, 0
2, 48848, Note_on_c, 0, 48, 38
2, 48856, Note_on_c, 0, 48, 0
2, 48859, Note_on_c, 0, 64, 0
2, 48860, Note_on_c, 0, 67, 0
2, 48892, Note_on_c, 0, 74, 0
2, 48966, Note_on_c, 0, 60, 54
2, 48967, Note_on_c, 0, 68, 68
2, 48968, Note_on_c, 0, 77, 66
2, 48968, Note_on_c, 0, 72, 68
2, 48972, Control_c, 0, 64, 0
2, 48999, Control_c, 0, 64, 127
2, 49002, Note_on_c, 0, 56, 1
2, 49022, Note_on_c, 0, 72, 0
2, 49031, Note_on_c, 0, 77, 0
2, 49033, Note_on_c, 0, 68, 0
2, 49090, Note_on_c, 0, 68, 40
2, 49091, Note_on_c, 0, 65, 45
2, 49092, Note_on_c, 0, 53, 33
2, 49111, Note_on_c, 0, 60, 0
2, 49125, Note_on_c, 0, 53, 0
2, 49126, Note_on_c, 0, 56, 0
2, 49149, Note_on_c, 0, 65, 0
2, 49180, Note_on_c, 0, 68, 0
2, 49209, Note_on_c, 0, 73, 33
2, 49210, Control_c, 0, 64, 0
2, 49211, Note_on_c, 0, 51, 31
2, 49211, Note_on_c, 0, 65, 47
2, 49212, Note_on_c, 0, 69, 40
2, 49212, Note_on_c, 0, 57, 36
2, 49237, Note_on_c, 0, 57, 0
2, 49237, Control_c, 0, 64, 127
2, 49244, Note_on_c, 0, 69, 0
2, 49250, Note_on_c, 0, 51, 0
2, 49261, Note_on_c, 0, 73, 0
2, 49262, Note_on_c, 0, 65, 0
2, 49320, Control_c, 0, 64, 0
2, 49326, Note_on_c, 0, 65, 47
2, 49328, Note_on_c, 0, 41, 39
2, 49329, Note_on_c, 0, 61, 29
2, 49338, Control_c, 0, 64, 127
2, 49349, Note_on_c, 0, 41, 0
2, 49395, Note_on_c, 0, 65, 0
2, 49401, Note_on_c, 0, 61, 0
2, 49448, Note_on_c, 0, 70, 35
2, 49452, Note_on_c, 0, 65, 42
2, 49453, Control_c, 0, 64, 0
2, 49454, Note_on_c, 0, 55, 40
2, 49454, Note_on_c, 0, 60, 30
2, 49471, Control_c, 0, 64, 127
2, 49498, Note_on_c, 0, 60, 0
2, 49503, Note_on_c, 0, 55, 0
2, 49509, Note_on_c, 0, 65, 0
2, 49519, Note_on_c, 0, 70, 0
2, 49634, Note_on_c, 0, 82, 64
2, 49637, Note_on_c, 0, 67, 56
2, 49638, Control_c, 0, 64, 0
2, 49638, Note_on_c, 0, 77, 49
2, 49639, Note_on_c, 0, 72, 48
2, 49650, Control_c, 0, 64, 127
2, 49666, Note_on_c, 0, 82, 0
2, 49667, Note_on_c, 0, 77, 0
2, 49673, Note_on_c, 0, 72, 0
2, 49684, Note_on_c, 0, 67, 0
2, 49721, Note_on_c, 0, 79, 54
2, 49723, Control_c, 0, 64, 0
2, 49725, Note_on_c, 0, 74, 55
2, 49727, Note_on_c, 0, 65, 48
2, 49731, Note_on_c, 0, 69, 29
2, 49735, Control_c, 0, 64, 127
2, 49751, Note_on_c, 0, 74, 0
2, 49760, Note_on_c, 0, 79, 0
2, 49768, Note_on_c, 0, 69, 0
2, 49771, Note_on_c, 0, 65, 0
2, 49797, Note_on_c, 0, 77, 49
2, 49799, Note_on_c, 0, 62, 53
2, 49800, Control_c, 0, 64, 0
2, 49803, Note_on_c, 0, 72, 55
2, 49804, Note_on_c, 0, 67, 32
2, 49806, Control_c, 0, 64, 127
2, 49828, Note_on_c, 0, 72, 0
2, 49828, Note_on_c, 0, 77, 0
2, 49840, Note_on_c, 0, 67, 0
2, 49859, Note_on_c, 0, 62, 0
2, 49880, Note_on_c, 0, 74, 51
2, 49881, Note_on_c, 0, 70, 44
2, 49884, Note_on_c, 0, 65, 48
2, 49885, Note_on_c, 0, 58, 32
2, 49886, Control_c, 0, 64, 0
2, 49912, Control_c, 0, 64, 127
2, 49913, Note_on_c, 0, 70, 0
2, 49913, Note_on_c, 0, 74, 0
2, 49917, Note_on_c, 0, 65, 0
2, 49942, Note_on_c, 0, 58, 0
2, 49963, Note_on_c, 0, 70, 39
2, 49963, Note_on_c, 0, 65, 64
2, 49963, Note_on_c, 0, 55, 37
2, 49966, Note_on_c, 0, 60, 35
2, 49992, Note_on_c, 0, 65, 0
2, 49995, Note_on_c, 0, 70, 0
2, 50002, Note_on_c, 0, 60, 0
2, 50023, Note_on_c, 0, 55, 0
2, 50039, Note_on_c, 0, 61, 26
2, 50042, Control_c, 0, 64, 0
2, 50047, Note_on_c, 0, 61, 0
2, 50047, Note_on_c, 0, 67, 56
2, 50048, Note_on_c, 0, 62, 37
2, 50051, Note_on_c, 0, 53, 34
2, 50052, Note_on_c, 0, 57, 34
2, 50067, Control_c, 0, 64, 127
2, 50072, Note_on_c, 0, 62, 0
2, 50079, Note_on_c, 0, 67, 0
2, 50085, Note_on_c, 0, 57, 0
2, 50116, Note_on_c, 0, 53, 0
2, 50127, Note_on_c, 0, 65, 50
2, 50130, Note_on_c, 0, 60, 22
2, 50132, Note_on_c, 0, 62, 36
2, 50133, Control_c, 0, 64, 0
2, 50134, Note_on_c, 0, 55, 19
2, 50134, Note_on_c, 0, 50, 34
2, 50163, Note_on_c, 0, 50, 0
2, 50165, Control_c, 0, 64, 127
2, 50227, Note_on_c, 0, 62, 0
2, 50240, Note_on_c, 0, 55, 0
2, 50252, Note_on_c, 0, 43, 38
2, 50277, Note_on_c, 0, 60, 0
2, 50280, Note_on_c, 0, 65, 0
2, 50284, Note_on_c, 0, 43, 0
2, 50290, Control_c, 0, 64, 0
2, 50292, Note_on_c, 0, 53, 55
2, 50296, Note_on_c, 0, 37, 33
2, 50329, Control_c, 0, 64, 127
2, 50349, Note_on_c, 0, 53, 0
2, 50370, Note_on_c, 0, 52, 58
2, 50375, Note_on_c, 0, 37, 0
2, 50378, Control_c, 0, 64, 0
2, 50399, Note_on_c, 0, 52, 0
2, 50400, Note_on_c, 0, 36, 38
2, 50411, Note_on_c, 0, 36, 0
2, 50416, Control_c, 0, 64, 127
2, 50481, Note_on_c, 0, 74, 67
2, 50486, Note_on_c, 0, 67, 40
2, 50507, Note_on_c, 0, 64, 46
2, 50513, Note_on_c, 0, 58, 37
2, 50520, Note_on_c, 0, 64, 0
2, 50520, Control_c, 0, 64, 0
2, 50531, Note_on_c, 0, 58, 0
2, 50562, Control_c, 0, 64, 127
2, 50599, Note_on_c, 0, 50, 60
2, 50604, Note_on_c, 0, 58, 33
2, 50640, Control_c, 0, 64, 0
2, 50669, Control_c, 0, 64, 127
2, 50689, Note_on_c, 0, 58, 0
2, 50717, Note_on_c, 0, 58, 39
2, 50725, Note_on_c, 0, 51, 36
2, 50728, Note_on_c, 0, 50, 0
2, 50733, Note_on_c, 0, 67, 0
2, 50739, Note_on_c, 0, 58, 0
2, 50755, Note_on_c, 0, 51, 0
2, 50758, Control_c, 0, 64, 0
2, 50759, Note_on_c, 0, 70, 44
2, 50762, Note_on_c, 0, 58, 29
2, 50763, Note_on_c, 0, 64, 29
2, 50769, Note_on_c, 0, 52, 39
2, 50783, Control_c, 0, 64, 127
2, 50825, Note_on_c, 0, 64, 0
2, 50830, Note_on_c, 0, 52, 0
2, 50831, Note_on_c, 0, 58, 0
2, 50831, Note_on_c, 0, 74, 0
2, 50878, Note_on_c, 0, 63, 61
2, 50879, Note_on_c, 0, 73, 48
2, 50880, Note_on_c, 0, 64, 65
2, 50881, Note_on_c, 0, 66, 55
2, 50889, Control_c, 0, 64, 0
2, 50946, Note_on_c, 0, 64, 0
2, 50951, Note_on_c, 0, 66, 0
2, 50954, Note_on_c, 0, 63, 0
2, 50960, Control_c, 0, 64, 127
2, 50961, Note_on_c, 0, 73, 0
2, 50962, Note_on_c, 0, 70, 0
2, 50968, Note_on_c, 0, 61, 36
2, 50988, Control_c, 0, 64, 0
2, 50995, Note_on_c, 0, 61, 0
2, 50999, Note_on_c, 0, 73, 44
2, 51002, Note_on_c, 0, 70, 55
2, 51002, Note_on_c, 0, 64, 59
2, 51002, Note_on_c, 0, 66, 52
2, 51002, Note_on_c, 0, 63, 57
2, 51054, Note_on_c, 0, 64, 0
2, 51058, Note_on_c, 0, 66, 0
2, 51060, Note_on_c, 0, 63, 0
2, 51065, Note_on_c, 0, 73, 0
2, 51066, Note_on_c, 0, 70, 0
2, 51080, Note_on_c, 0, 73, 34
2, 51082, Note_on_c, 0, 63, 49
2, 51082, Note_on_c, 0, 70, 43
2, 51083, Note_on_c, 0, 66, 55
2, 51083, Note_on_c, 0, 64, 51
2, 51106, Note_on_c, 0, 64, 0
2, 51109, Note_on_c, 0, 73, 0
2, 51109, Note_on_c, 0, 66, 0
2, 51113, Note_on_c, 0, 70, 0
2, 51114, Note_on_c, 0, 63, 0
2, 51131, Note_on_c, 0, 61, 37
2, 51181, Control_c, 0, 64, 127
2, 51200, Note_on_c, 0, 73, 43
2, 51202, Note_on_c, 0, 63, 39
2, 51202, Note_on_c, 0, 64, 62
2, 51202, Note_on_c, 0, 66, 56
2, 51202, Note_on_c, 0, 70, 57
2, 51209, Note_on_c, 0, 61, 0
2, 51227, Control_c, 0, 64, 0
2, 51237, Control_c, 0, 64, 127
2, 51275, Note_on_c, 0, 63, 0
2, 51318, Note_on_c, 0, 64, 0
2, 51327, Note_on_c, 0, 66, 0
2, 51332, Note_on_c, 0, 70, 0
2, 51340, Note_on_c, 0, 73, 0
2, 51365, Control_c, 0, 64, 0
2, 51371, Note_on_c, 0, 53, 58
2, 51413, Control_c, 0, 64, 127
2, 51465, Note_on_c, 0, 53, 0
2, 51470, Control_c, 0, 64, 0
2, 51492, Note_on_c, 0, 87, 78
2, 51516, Note_on_c, 0, 87, 0
2, 51525, Note_on_c, 0, 91, 80
2, 51545, Note_on_c, 0, 91, 0
2, 51560, Note_on_c, 0, 87, 79
2, 51579, Note_on_c, 0, 87, 0
2, 51598, Note_on_c, 0, 81, 45
2, 51620, Note_on_c, 0, 81, 0
2, 51635, Note_on_c, 0, 80, 39
2, 51654, Note_on_c, 0, 80, 0
2, 51674, Note_on_c, 0, 79, 64
2, 51696, Note_on_c, 0, 79, 0
2, 51715, Note_on_c, 0, 78, 54
2, 51726, Note_on_c, 0, 67, 37
2, 51727, Note_on_c, 0, 63, 25
2, 51728, Note_on_c, 0, 57, 36
2, 51736, Note_on_c, 0, 67, 0
2, 51742, Note_on_c, 0, 57, 0
2, 51746, Note_on_c, 0, 63, 0
2, 51747, Note_on_c, 0, 78, 0
2, 51757, Note_on_c, 0, 77, 43
2, 51770, Note_on_c, 0, 77, 0
2, 51794, Note_on_c, 0, 75, 67
2, 51814, Note_on_c, 0, 75, 0
2, 51835, Note_on_c, 0, 73, 40
2, 51836, Note_on_c, 0, 65, 35
2, 51843, Note_on_c, 0, 60, 30
2, 51845, Note_on_c, 0, 62, 22
2, 51850, Note_on_c, 0, 65, 0
2, 51851, Note_on_c, 0, 73, 0
2, 51872, Note_on_c, 0, 74, 53
2, 51888, Note_on_c, 0, 74, 0
2, 51909, Note_on_c, 0, 75, 74
2, 51925, Note_on_c, 0, 75, 0
2, 51946, Note_on_c, 0, 76, 77
2, 51965, Note_on_c, 0, 76, 0
2, 51973, Note_on_c, 0, 53, 25
2, 51984, Note_on_c, 0, 77, 68
2, 51994, Note_on_c, 0, 62, 0
2, 52003, Note_on_c, 0, 60, 0
2, 52003, Note_on_c, 0, 77, 0
2, 52020, Note_on_c, 0, 74, 59
2, 52035, Note_on_c, 0, 74, 0
2, 52055, Note_on_c, 0, 67, 44
2, 52073, Note_on_c, 0, 67, 0
2, 52077, Control_c, 0, 64, 127
2, 52094, Note_on_c, 0, 62, 27
2, 52095, Control_c, 0, 64, 0
2, 52098, Note_on_c, 0, 65, 59
2, 52099, Note_on_c, 0, 60, 26
2, 52109, Note_on_c, 0, 65, 0
2, 52153, Note_on_c, 0, 53, 0
2, 52174, Note_on_c, 0, 65, 40
2, 52182, Note_on_c, 0, 65, 0
2, 52216, Note_on_c, 0, 53, 27
2, 52233, Note_on_c, 0, 67, 71
2, 52248, Note_on_c, 0, 67, 0
2, 52249, Note_on_c, 0, 68, 59
2, 52250, Note_on_c, 0, 62, 0
2, 52258, Note_on_c, 0, 53, 0
2, 52270, Note_on_c, 0, 67, 32
2, 52274, Note_on_c, 0, 68, 0
2, 52284, Note_on_c, 0, 67, 0
2, 52286, Note_on_c, 0, 60, 0
2, 52297, Note_on_c, 0, 65, 56
2, 52304, Control_c, 0, 64, 127
2, 52311, Note_on_c, 0, 65, 0
2, 52336, Note_on_c, 0, 68, 69
2, 52340, Control_c, 0, 64, 0
2, 52341, Note_on_c, 0, 63, 23
2, 52344, Note_on_c, 0, 56, 30
2, 52349, Note_on_c, 0, 60, 24
2, 52352, Note_on_c, 0, 68, 0
2, 52361, Note_on_c, 0, 70, 57
2, 52378, Note_on_c, 0, 68, 38
2, 52383, Note_on_c, 0, 70, 0
2, 52395, Note_on_c, 0, 68, 0
2, 52399, Note_on_c, 0, 65, 51
2, 52407, Note_on_c, 0, 65, 0
2, 52409, Note_on_c, 0, 63, 0
2, 52427, Control_c, 0, 64, 127
2, 52436, Note_on_c, 0, 60, 0
2, 52452, Note_on_c, 0, 63, 39
2, 52452, Control_c, 0, 64, 0
2, 52453, Note_on_c, 0, 67, 43
2, 52460, Note_on_c, 0, 60, 15
2, 52468, Note_on_c, 0, 67, 0
2, 52488, Note_on_c, 0, 60, 0
2, 52489, Note_on_c, 0, 63, 0
2, 52493, Note_on_c, 0, 56, 0
2, 52512, Control_c, 0, 64, 127
2, 52525, Note_on_c, 0, 77, 74
2, 52551, Note_on_c, 0, 77, 0
2, 52564, Control_c, 0, 64, 0
2, 52567, Note_on_c, 0, 63, 38
2, 52569, Note_on_c, 0, 75, 65
2, 52570, Note_on_c, 0, 56, 28
2, 52572, Note_on_c, 0, 60, 38
2, 52581, Note_on_c, 0, 60, 0
2, 52581, Note_on_c, 0, 63, 0
2, 52583, Note_on_c, 0, 75, 0
2, 52592, Note_on_c, 0, 77, 55
2, 52599, Note_on_c, 0, 56, 0
2, 52604, Note_on_c, 0, 75, 45
2, 52614, Note_on_c, 0, 77, 0
2, 52622, Note_on_c, 0, 75, 0
2, 52629, Note_on_c, 0, 72, 36
2, 52637, Note_on_c, 0, 72, 0
2, 52643, Control_c, 0, 64, 127
2, 52656, Note_on_c, 0, 68, 60
2, 52667, Note_on_c, 0, 68, 0
2, 52676, Note_on_c, 0, 70, 51
2, 52676, Control_c, 0, 64, 0
2, 52680, Note_on_c, 0, 56, 20
2, 52687, Note_on_c, 0, 68, 44
2, 52697, Note_on_c, 0, 70, 0
2, 52701, Note_on_c, 0, 56, 0
2, 52705, Note_on_c, 0, 68, 0
2, 52712, Note_on_c, 0, 65, 59
2, 52720, Note_on_c, 0, 65, 0
2, 52728, Note_on_c, 0, 63, 45
2, 52750, Note_on_c, 0, 63, 0
2, 52751, Control_c, 0, 64, 127
2, 52772, Note_on_c, 0, 63, 25
2, 52790, Note_on_c, 0, 60, 38
2, 52792, Note_on_c, 0, 63, 0
2, 52798, Note_on_c, 0, 60, 0
2, 52803, Control_c, 0, 64, 0
2, 52805, Note_on_c, 0, 39, 36
2, 52809, Note_on_c, 0, 46, 35
2, 52812, Note_on_c, 0, 62, 51
2, 52836, Note_on_c, 0, 62, 0
2, 52845, Control_c, 0, 64, 127
2, 52854, Note_on_c, 0, 55, 48
2, 52900, Note_on_c, 0, 39, 0
2, 52909, Note_on_c, 0, 55, 0
2, 52918, Note_on_c, 0, 58, 47
2, 52920, Control_c, 0, 64, 0
2, 52971, Control_c, 0, 64, 127
2, 52982, Note_on_c, 0, 58, 0
2, 52997, Note_on_c, 0, 55, 57
2, 52998, Note_on_c, 0, 58, 35
2, 53000, Note_on_c, 0, 60, 53
2, 53004, Note_on_c, 0, 55, 0
2, 53020, Note_on_c, 0, 58, 0
2, 53023, Note_on_c, 0, 60, 0
2, 53024, Control_c, 0, 64, 0
2, 53030, Note_on_c, 0, 51, 40
2, 53074, Control_c, 0, 64, 127
2, 53076, Note_on_c, 0, 46, 0
2, 53114, Note_on_c, 0, 46, 55
2, 53143, Control_c, 0, 64, 0
2, 53154, Note_on_c, 0, 51, 0
2, 53161, Note_on_c, 0, 39, 48
2, 53168, Control_c, 0, 64, 127
2, 53175, Note_on_c, 0, 39, 0
2, 53182, Note_on_c, 0, 46, 0
2, 53231, Note_on_c, 0, 51, 39
2, 53264, Note_on_c, 0, 51, 0
2, 53273, Note_on_c, 0, 44, 57
2, 53276, Control_c, 0, 64, 0
2, 53289, Note_on_c, 0, 92, 62
2, 53290, Note_on_c, 0, 44, 0
2, 53298, Note_on_c, 0, 92, 0
2, 53309, Note_on_c, 0, 94, 59
2, 53321, Note_on_c, 0, 92, 48
2, 53327, Note_on_c, 0, 94, 0
2, 53335, Note_on_c, 0, 92, 0
2, 53343, Note_on_c, 0, 89, 41
2, 53351, Note_on_c, 0, 89, 0
2, 53361, Note_on_c, 0, 87, 68
2, 53370, Note_on_c, 0, 87, 0
2, 53373, Control_c, 0, 64, 127
2, 53384, Control_c, 0, 64, 0
2, 53387, Note_on_c, 0, 89, 31
2, 53388, Note_on_c, 0, 87, 52
2, 53395, Note_on_c, 0, 89, 0
2, 53401, Note_on_c, 0, 87, 0
2, 53427, Note_on_c, 0, 80, 53
2, 53447, Note_on_c, 0, 80, 0
2, 53447, Note_on_c, 0, 82, 63
2, 53465, Note_on_c, 0, 82, 0
2, 53471, Control_c, 0, 64, 127
2, 53482, Note_on_c, 0, 77, 40
2, 53493, Note_on_c, 0, 77, 0
2, 53498, Note_on_c, 0, 75, 68
2, 53503, Control_c, 0, 64, 0
2, 53504, Note_on_c, 0, 54, 34
2, 53505, Note_on_c, 0, 44, 34
2, 53511, Note_on_c, 0, 75, 0
2, 53518, Note_on_c, 0, 44, 0
2, 53523, Note_on_c, 0, 77, 31
2, 53524, Note_on_c, 0, 54, 0
2, 53528, Note_on_c, 0, 75, 36
2, 53531, Note_on_c, 0, 77, 0
2, 53536, Note_on_c, 0, 75, 0
2, 53563, Control_c, 0, 64, 127
2, 53565, Note_on_c, 0, 70, 50
2, 53583, Note_on_c, 0, 68, 43
2, 53592, Note_on_c, 0, 70, 0
2, 53600, Note_on_c, 0, 68, 0
2, 53607, Note_on_c, 0, 65, 58
2, 53617, Note_on_c, 0, 58, 27
2, 53619, Note_on_c, 0, 65, 0
2, 53630, Note_on_c, 0, 63, 44
2, 53633, Note_on_c, 0, 58, 0
2, 53634, Control_c, 0, 64, 0
2, 53649, Note_on_c, 0, 63, 0
2, 53676, Note_on_c, 0, 61, 59
2, 53685, Note_on_c, 0, 61, 0
2, 53701, Control_c, 0, 64, 127
2, 53734, Control_c, 0, 64, 0
2, 53738, Note_on_c, 0, 46, 50
2, 53770, Control_c, 0, 64, 127
2, 53793, Note_on_c, 0, 46, 0
2, 53824, Note_on_c, 0, 46, 51
2, 53861, Note_on_c, 0, 70, 62
2, 53862, Control_c, 0, 64, 0
2, 53863, Note_on_c, 0, 55, 65
2, 53863, Note_on_c, 0, 65, 51
2, 53865, Note_on_c, 0, 60, 53
2, 53898, Note_on_c, 0, 70, 0
2, 53910, Note_on_c, 0, 65, 0
2, 53913, Note_on_c, 0, 60, 0
2, 53920, Note_on_c, 0, 55, 0
2, 53940, Control_c, 0, 64, 127
2, 53945, Note_on_c, 0, 54, 46
2, 53962, Control_c, 0, 64, 0
2, 53984, Note_on_c, 0, 46, 0
2, 53985, Note_on_c, 0, 70, 59
2, 53988, Note_on_c, 0, 65, 62
2, 53989, Note_on_c, 0, 60, 58
2, 53989, Note_on_c, 0, 55, 62
2, 54056, Note_on_c, 0, 54, 0
2, 54069, Note_on_c, 0, 46, 77
2, 54077, Note_on_c, 0, 55, 0
2, 54089, Note_on_c, 0, 60, 0
2, 54100, Control_c, 0, 64, 127
2, 54101, Note_on_c, 0, 46, 0
2, 54108, Note_on_c, 0, 65, 0
2, 54138, Note_on_c, 0, 70, 0
2, 54198, Note_on_c, 0, 36, 57
2, 54200, Note_on_c, 0, 56, 50
2, 54221, Note_on_c, 0, 56, 0
2, 54229, Control_c, 0, 64, 0
2, 54235, Note_on_c, 0, 36, 0
2, 54245, Note_on_c, 0, 52, 51
2, 54245, Note_on_c, 0, 62, 57
2, 54257, Control_c, 0, 64, 127
2, 54267, Note_on_c, 0, 52, 0
2, 54269, Note_on_c, 0, 62, 0
2, 54368, Note_on_c, 0, 58, 37
2, 54371, Note_on_c, 0, 60, 33
2, 54380, Note_on_c, 0, 60, 0
2, 54381, Control_c, 0, 64, 0
2, 54388, Note_on_c, 0, 58, 0
2, 54390, Note_on_c, 0, 87, 58
2, 54398, Note_on_c, 0, 87, 0
2, 54407, Note_on_c, 0, 88, 62
2, 54424, Note_on_c, 0, 87, 51
2, 54429, Note_on_c, 0, 88, 0
2, 54441, Note_on_c, 0, 87, 0
2, 54454, Note_on_c, 0, 85, 63
2, 54462, Control_c, 0, 64, 127
2, 54478, Note_on_c, 0, 85, 0
2, 54488, Control_c, 0, 64, 0
2, 54491, Note_on_c, 0, 58, 33
2, 54494, Note_on_c, 0, 48, 31
2, 54506, Note_on_c, 0, 82, 36
2, 54518, Note_on_c, 0, 80, 39
2, 54533, Note_on_c, 0, 78, 46
2, 54534, Note_on_c, 0, 82, 0
2, 54537, Note_on_c, 0, 58, 0
2, 54541, Note_on_c, 0, 80, 0
2, 54551, Note_on_c, 0, 78, 0
2, 54556, Note_on_c, 0, 76, 46
2, 54566, Note_on_c, 0, 76, 0
2, 54572, Note_on_c, 0, 75, 48
2, 54586, Note_on_c, 0, 75, 0
2, 54591, Note_on_c, 0, 74, 52
2, 54598, Control_c, 0, 64, 127
2, 54606, Note_on_c, 0, 74, 0
2, 54606, Control_c, 0, 64, 0
2, 54609, Note_on_c, 0, 73, 40
2, 54625, Note_on_c, 0, 73, 0
2, 54629, Note_on_c, 0, 58, 19
2, 54649, Note_on_c, 0, 70, 49
2, 54665, Note_on_c, 0, 68, 25
2, 54670, Note_on_c, 0, 58, 0
2, 54671, Note_on_c, 0, 48, 0
2, 54678, Note_on_c, 0, 64, 42
2, 54680, Note_on_c, 0, 70, 0
2, 54682, Note_on_c, 0, 68, 0
2, 54696, Control_c, 0, 64, 127
2, 54702, Note_on_c, 0, 64, 0
2, 54743, Control_c, 0, 64, 0
2, 54743, Note_on_c, 0, 53, 33
2, 54746, Note_on_c, 0, 63, 30
2, 54748, Note_on_c, 0, 58, 49
2, 54814, Note_on_c, 0, 77, 76
2, 54824, Control_c, 0, 64, 127
2, 54830, Note_on_c, 0, 63, 0
2, 54832, Note_on_c, 0, 58, 0
2, 54844, Control_c, 0, 64, 0
2, 54857, Note_on_c, 0, 72, 35
2, 54857, Note_on_c, 0, 63, 25
2, 54867, Note_on_c, 0, 58, 19
2, 54882, Note_on_c, 0, 72, 0
2, 54884, Note_on_c, 0, 77, 0
2, 54889, Note_on_c, 0, 68, 47
2, 54893, Note_on_c, 0, 53, 0
2, 54897, Note_on_c, 0, 63, 0
2, 54908, Note_on_c, 0, 68, 0
2, 54919, Control_c, 0, 64, 127
2, 54926, Note_on_c, 0, 53, 30
2, 54929, Note_on_c, 0, 65, 55
2, 54941, Note_on_c, 0, 65, 0
2, 54941, Note_on_c, 0, 53, 0
2, 54957, Control_c, 0, 64, 0
2, 54959, Note_on_c, 0, 58, 0
2, 54966, Note_on_c, 0, 73, 37
2, 54968, Note_on_c, 0, 69, 60
2, 54968, Note_on_c, 0, 61, 47
2, 54970, Note_on_c, 0, 65, 54
2, 54990, Control_c, 0, 64, 127
2, 55041, Note_on_c, 0, 65, 0
2, 55045, Note_on_c, 0, 69, 0
2, 55056, Note_on_c, 0, 73, 0
2, 55063, Note_on_c, 0, 61, 0
2, 55083, Control_c, 0, 64, 0
2, 55084, Note_on_c, 0, 73, 26
2, 55090, Note_on_c, 0, 69, 37
2, 55092, Note_on_c, 0, 57, 24
2, 55096, Note_on_c, 0, 65, 33
2, 55120, Note_on_c, 0, 57, 0
2, 55121, Control_c, 0, 64, 127
2, 55126, Note_on_c, 0, 65, 0
2, 55136, Note_on_c, 0, 73, 0
2, 55145, Note_on_c, 0, 69, 0
2, 55164, Note_on_c, 0, 70, 52
2, 55164, Note_on_c, 0, 74, 49
2, 55164, Note_on_c, 0, 65, 53
2, 55165, Note_on_c, 0, 55, 48
2, 55168, Control_c, 0, 64, 0
2, 55171, Note_on_c, 0, 65, 0
2, 55173, Note_on_c, 0, 74, 0
2, 55179, Note_on_c, 0, 70, 0
2, 55179, Note_on_c, 0, 55, 0
2, 55255, Control_c, 0, 64, 127
2, 55282, Note_on_c, 0, 41, 37
2, 55299, Note_on_c, 0, 41, 0
2, 55331, Note_on_c, 0, 41, 44
2, 55345, Note_on_c, 0, 41, 0
2, 55402, Note_on_c, 0, 41, 53
2, 55433, Control_c, 0, 64, 0
2, 55448, Note_on_c, 0, 63, 31
2, 55449, Note_on_c, 0, 61, 39
2, 55450, Note_on_c, 0, 51, 34
2, 55450, Note_on_c, 0, 65, 48
2, 55452, Note_on_c, 0, 57, 27
2, 55461, Control_c, 0, 64, 127
2, 55469, Note_on_c, 0, 57, 0
2, 55481, Note_on_c, 0, 65, 0
2, 55488, Note_on_c, 0, 41, 0
2, 55493, Note_on_c, 0, 61, 0
2, 55497, Note_on_c, 0, 63, 0
2, 55549, Note_on_c, 0, 51, 0
2, 55562, Note_on_c, 0, 41, 49
2, 55572, Note_on_c, 0, 41, 0
2, 55574, Control_c, 0, 64, 0
2, 55580, Control_c, 0, 64, 127
2, 55645, Note_on_c, 0, 89, 75
2, 55647, Note_on_c, 0, 77, 68
2, 55665, Note_on_c, 0, 77, 0
2, 55669, Note_on_c, 0, 89, 0
2, 55680, Control_c, 0, 64, 0
2, 55689, Note_on_c, 0, 65, 34
2, 55690, Note_on_c, 0, 86, 40
2, 55693, Note_on_c, 0, 62, 28
2, 55696, Note_on_c, 0, 60, 37
2, 55707, Note_on_c, 0, 86, 0
2, 55715, Note_on_c, 0, 65, 0
2, 55763, Note_on_c, 0, 89, 68
2, 55766, Note_on_c, 0, 77, 45
2, 55775, Control_c, 0, 64, 127
2, 55776, Note_on_c, 0, 77, 0
2, 55780, Note_on_c, 0, 89, 0
2, 55793, Control_c, 0, 64, 0
2, 55804, Note_on_c, 0, 53, 28
2, 55807, Note_on_c, 0, 60, 0
2, 55807, Note_on_c, 0, 86, 38
2, 55808, Note_on_c, 0, 62, 0
2, 55815, Note_on_c, 0, 86, 0
2, 55823, Note_on_c, 0, 53, 0
2, 55870, Control_c, 0, 64, 127
2, 55879, Note_on_c, 0, 78, 59
2, 55881, Note_on_c, 0, 90, 47
2, 55904, Control_c, 0, 64, 0
2, 55907, Note_on_c, 0, 90, 0
2, 55917, Note_on_c, 0, 78, 0
2, 55921, Note_on_c, 0, 43, 44
2, 55926, Note_on_c, 0, 91, 40
2, 55927, Note_on_c, 0, 79, 35
2, 55934, Control_c, 0, 64, 127
2, 55941, Note_on_c, 0, 43, 0
2, 55993, Note_on_c, 0, 79, 0
2, 55998, Note_on_c, 0, 91, 0
2, 56044, Control_c, 0, 64, 0
2, 56048, Note_on_c, 0, 64, 32
2, 56050, Note_on_c, 0, 59, 44
2, 56052, Note_on_c, 0, 53, 29
2, 56068, Control_c, 0, 64, 127
2, 56092, Note_on_c, 0, 59, 0
2, 56095, Note_on_c, 0, 64, 0
2, 56110, Note_on_c, 0, 53, 0
2, 56159, Control_c, 0, 64, 0
2, 56166, Note_on_c, 0, 58, 37
2, 56168, Note_on_c, 0, 62, 36
2, 56175, Note_on_c, 0, 52, 30
2, 56182, Note_on_c, 0, 62, 0
2, 56186, Note_on_c, 0, 52, 0
2, 56191, Control_c, 0, 64, 127
2, 56198, Note_on_c, 0, 58, 0
2, 56278, Control_c, 0, 64, 0
2, 56282, Note_on_c, 0, 98, 84
2, 56282, Note_on_c, 0, 48, 56
2, 56283, Note_on_c, 0, 58, 45
2, 56284, Note_on_c, 0, 86, 70
2, 56284, Note_on_c, 0, 91, 74
2, 56312, Control_c, 0, 64, 127
2, 56318, Note_on_c, 0, 86, 0
2, 56323, Note_on_c, 0, 98, 0
2, 56325, Note_on_c, 0, 48, 0
2, 56326, Note_on_c, 0, 91, 0
2, 56330, Note_on_c, 0, 58, 0
2, 56362, Note_on_c, 0, 58, 35
2, 56363, Note_on_c, 0, 50, 60
2, 56364, Note_on_c, 0, 97, 78
2, 56364, Note_on_c, 0, 85, 77
2, 56368, Note_on_c, 0, 91, 58
2, 56374, Note_on_c, 0, 94, 25
2, 56392, Note_on_c, 0, 58, 0
2, 56393, Note_on_c, 0, 85, 0
2, 56394, Note_on_c, 0, 91, 0
2, 56394, Note_on_c, 0, 94, 0
2, 56395, Note_on_c, 0, 97, 0
2, 56402, Control_c, 0, 64, 0
2, 56405, Note_on_c, 0, 58, 32
2, 56407, Note_on_c, 0, 50, 0
2, 56410, Note_on_c, 0, 51, 46
2, 56410, Note_on_c, 0, 91, 43
2, 56412, Note_on_c, 0, 96, 60
2, 56418, Note_on_c, 0, 84, 17
2, 56426, Control_c, 0, 64, 127
2, 56453, Note_on_c, 0, 51, 0
2, 56491, Note_on_c, 0, 58, 0
2, 56522, Note_on_c, 0, 96, 0
2, 56522, Note_on_c, 0, 58, 36
2, 56524, Note_on_c, 0, 91, 0
2, 56527, Control_c, 0, 64, 0
2, 56529, Note_on_c, 0, 52, 49
2, 56532, Note_on_c, 0, 84, 0
2, 56545, Control_c, 0, 64, 127
2, 56588, Note_on_c, 0, 58, 0
2, 56607, Note_on_c, 0, 52, 0
2, 56639, Note_on_c, 0, 64, 47
2, 56639, Note_on_c, 0, 62, 57
2, 56640, Note_on_c, 0, 74, 68
2, 56641, Note_on_c, 0, 67, 67
2, 56641, Note_on_c, 0, 63, 55
2, 56643, Note_on_c, 0, 70, 47
2, 56645, Note_on_c, 0, 64, 0
2, 56646, Control_c, 0, 64, 0
2, 56681, Control_c, 0, 64, 127
2, 56710, Note_on_c, 0, 67, 0
2, 56718, Note_on_c, 0, 63, 0
2, 56720, Note_on_c, 0, 74, 0
2, 56721, Note_on_c, 0, 70, 0
2, 56722, Note_on_c, 0, 62, 0
2, 56732, Note_on_c, 0, 60, 24
2, 56745, Note_on_c, 0, 60, 0
2, 56760, Control_c, 0, 64, 0
2, 56764, Note_on_c, 0, 62, 44
2, 56768, Note_on_c, 0, 67, 55
2, 56768, Note_on_c, 0, 70, 50
2, 56768, Note_on_c, 0, 63, 50
2, 56770, Note_on_c, 0, 74, 49
2, 56773, Note_on_c, 0, 62, 0
2, 56784, Control_c, 0, 64, 127
2, 56800, Note_on_c, 0, 67, 0
2, 56817, Note_on_c, 0, 74, 0
2, 56818, Note_on_c, 0, 63, 0
2, 56823, Note_on_c, 0, 70, 0
2, 56851, Note_on_c, 0, 69, 55
2, 56851, Note_on_c, 0, 66, 46
2, 56852, Note_on_c, 0, 62, 51
2, 56852, Note_on_c, 0, 51, 35
2, 56853, Note_on_c, 0, 57, 36
2, 56857, Control_c, 0, 64, 0
2, 56883, Control_c, 0, 64, 127
2, 56914, Note_on_c, 0, 51, 0
2, 56957, Note_on_c, 0, 57, 0
2, 56958, Note_on_c, 0, 62, 0
2, 56963, Note_on_c, 0, 69, 0
2, 56963, Note_on_c, 0, 51, 39
2, 56969, Note_on_c, 0, 66, 0
2, 57000, Control_c, 0, 64, 0
2, 57004, Note_on_c, 0, 62, 49
2, 57004, Note_on_c, 0, 66, 39
2, 57004, Note_on_c, 0, 57, 44
2, 57007, Note_on_c, 0, 69, 44
2, 57015, Note_on_c, 0, 57, 0
2, 57022, Control_c, 0, 64, 127
2, 57033, Note_on_c, 0, 69, 0
2, 57039, Note_on_c, 0, 62, 0
2, 57042, Note_on_c, 0, 66, 0
2, 57077, Control_c, 0, 64, 0
2, 57079, Note_on_c, 0, 70, 55
2, 57079, Note_on_c, 0, 60, 60
2, 57082, Note_on_c, 0, 65, 49
2, 57082, Note_on_c, 0, 55, 61
2, 57086, Note_on_c, 0, 60, 0
2, 57090, Note_on_c, 0, 51, 0
2, 57091, Note_on_c, 0, 65, 0
2, 57092, Note_on_c, 0, 55, 0
2, 57103, Note_on_c, 0, 70, 0
2, 57106, Control_c, 0, 64, 127
2, 57183, Control_c, 0, 64, 0
2, 57191, Control_c, 0, 64, 127
2, 57194, Note_on_c, 0, 82, 69
2, 57195, Note_on_c, 0, 67, 57
2, 57197, Note_on_c, 0, 72, 53
2, 57199, Note_on_c, 0, 77, 31
2, 57201, Note_on_c, 0, 76, 36
2, 57213, Note_on_c, 0, 76, 0
2, 57220, Note_on_c, 0, 72, 0
2, 57220, Note_on_c, 0, 82, 0
2, 57221, Note_on_c, 0, 77, 0
2, 57237, Note_on_c, 0, 67, 0
2, 57246, Control_c, 0, 64, 0
2, 57257, Note_on_c, 0, 80, 43
2, 57258, Note_on_c, 0, 75, 57
2, 57258, Note_on_c, 0, 65, 47
2, 57260, Note_on_c, 0, 70, 49
2, 57266, Control_c, 0, 64, 127
2, 57277, Note_on_c, 0, 75, 0
2, 57279, Note_on_c, 0, 80, 0
2, 57281, Note_on_c, 0, 65, 0
2, 57290, Note_on_c, 0, 70, 0
2, 57324, Control_c, 0, 64, 0
2, 57327, Note_on_c, 0, 77, 49
2, 57328, Note_on_c, 0, 62, 52
2, 57332, Note_on_c, 0, 67, 45
2, 57332, Note_on_c, 0, 72, 61
2, 57348, Control_c, 0, 64, 127
2, 57352, Note_on_c, 0, 77, 0
2, 57358, Note_on_c, 0, 72, 0
2, 57361, Note_on_c, 0, 67, 0
2, 57383, Control_c, 0, 64, 0
2, 57385, Note_on_c, 0, 62, 0
2, 57390, Note_on_c, 0, 76, 45
2, 57394, Note_on_c, 0, 66, 40
2, 57395, Note_on_c, 0, 71, 54
2, 57397, Note_on_c, 0, 61, 37
2, 57399, Control_c, 0, 64, 127
2, 57418, Note_on_c, 0, 76, 0
2, 57423, Note_on_c, 0, 71, 0
2, 57438, Note_on_c, 0, 66, 0
2, 57439, Control_c, 0, 64, 0
2, 57447, Note_on_c, 0, 61, 0
2, 57453, Note_on_c, 0, 75, 63
2, 57456, Note_on_c, 0, 70, 54
2, 57456, Control_c, 0, 64, 127
2, 57458, Note_on_c, 0, 65, 63
2, 57460, Note_on_c, 0, 60, 43
2, 57479, Note_on_c, 0, 75, 0
2, 57483, Note_on_c, 0, 70, 0
2, 57488, Note_on_c, 0, 65, 0
2, 57492, Control_c, 0, 64, 0
2, 57502, Note_on_c, 0, 60, 0
2, 57508, Note_on_c, 0, 74, 46
2, 57512, Note_on_c, 0, 64, 46
2, 57512, Control_c, 0, 64, 127
2, 57513, Note_on_c, 0, 69, 47
2, 57515, Note_on_c, 0, 59, 30
2, 57521, Note_on_c, 0, 73, 18
2, 57526, Note_on_c, 0, 74, 0
2, 57529, Note_on_c, 0, 64, 0
2, 57536, Note_on_c, 0, 69, 0
2, 57538, Note_on_c, 0, 73, 0
2, 57560, Note_on_c, 0, 59, 0
2, 57571, Note_on_c, 0, 73, 29
2, 57572, Note_on_c, 0, 58, 50
2, 57574, Note_on_c, 0, 68, 48
2, 57574, Note_on_c, 0, 63, 42
2, 57587, Note_on_c, 0, 73, 0
2, 57595, Note_on_c, 0, 68, 0
2, 57602, Note_on_c, 0, 63, 0
2, 57607, Control_c, 0, 64, 0
2, 57608, Note_on_c, 0, 58, 0
2, 57617, Note_on_c, 0, 72, 52
2, 57620, Note_on_c, 0, 57, 39
2, 57622, Note_on_c, 0, 67, 38
2, 57625, Note_on_c, 0, 62, 43
2, 57633, Control_c, 0, 64, 127
2, 57644, Note_on_c, 0, 72, 0
2, 57646, Note_on_c, 0, 62, 0
2, 57651, Note_on_c, 0, 67, 0
2, 57672, Note_on_c, 0, 57, 0
2, 57682, Note_on_c, 0, 71, 53
2, 57685, Note_on_c, 0, 56, 37
2, 57687, Note_on_c, 0, 61, 57
2, 57688, Note_on_c, 0, 66, 51
2, 57704, Note_on_c, 0, 71, 0
2, 57714, Note_on_c, 0, 66, 0
2, 57716, Control_c, 0, 64, 0
2, 57717, Note_on_c, 0, 61, 0
2, 57725, Note_on_c, 0, 56, 0
2, 57734, Note_on_c, 0, 70, 51
2, 57737, Note_on_c, 0, 65, 44
2, 57739, Note_on_c, 0, 55, 35
2, 57743, Note_on_c, 0, 60, 30
2, 57747, Control_c, 0, 64, 127
2, 57803, Note_on_c, 0, 65, 0
2, 57804, Note_on_c, 0, 46, 33
2, 57805, Note_on_c, 0, 55, 0
2, 57806, Note_on_c, 0, 60, 0
2, 57821, Note_on_c, 0, 46, 0
2, 57830, Note_on_c, 0, 70, 0
2, 57844, Note_on_c, 0, 69, 44
2, 57846, Note_on_c, 0, 54, 45
2, 57846, Control_c, 0, 64, 0
2, 57846, Note_on_c, 0, 64, 43
2, 57849, Note_on_c, 0, 59, 24
2, 57877, Control_c, 0, 64, 127
2, 57916, Note_on_c, 0, 64, 0
2, 57917, Note_on_c, 0, 59, 0
2, 57921, Note_on_c, 0, 54, 0
2, 57928, Note_on_c, 0, 69, 0
2, 57928, Note_on_c, 0, 50, 36
2, 57941, Note_on_c, 0, 50, 0
2, 57954, Control_c, 0, 64, 0
2, 57959, Note_on_c, 0, 53, 48
2, 57959, Note_on_c, 0, 59, 38
2, 57960, Note_on_c, 0, 64, 42
2, 57961, Note_on_c, 0, 67, 24
2, 57984, Control_c, 0, 64, 127
2, 57993, Note_on_c, 0, 53, 0
2, 58004, Note_on_c, 0, 64, 0
2, 58016, Note_on_c, 0, 59, 0
2, 58036, Note_on_c, 0, 36, 45
2, 58047, Note_on_c, 0, 67, 0
2, 58064, Control_c, 0, 64, 0
2, 58071, Note_on_c, 0, 36, 0
2, 58071, Note_on_c, 0, 58, 37
2, 58074, Note_on_c, 0, 64, 38
2, 58074, Note_on_c, 0, 52, 36
2, 58090, Control_c, 0, 64, 127
2, 58092, Note_on_c, 0, 52, 0
2, 58096, Note_on_c, 0, 58, 0
2, 58102, Note_on_c, 0, 64, 0
2, 58152, Note_on_c, 0, 67, 66
2, 58154, Note_on_c, 0, 74, 68
2, 58186, Control_c, 0, 64, 0
2, 58230, Control_c, 0, 64, 127
2, 58248, Note_on_c, 0, 67, 0
2, 58262, Note_on_c, 0, 64, 54
2, 58263, Note_on_c, 0, 72, 36
2, 58265, Note_on_c, 0, 67, 54
2, 58273, Note_on_c, 0, 74, 0
2, 58280, Note_on_c, 0, 64, 0
2, 58286, Note_on_c, 0, 67, 0
2, 58288, Note_on_c, 0, 72, 0
2, 58304, Note_on_c, 0, 50, 36
2, 58309, Control_c, 0, 64, 0
2, 58310, Note_on_c, 0, 58, 20
2, 58353, Control_c, 0, 64, 127
2, 58369, Note_on_c, 0, 58, 0
2, 58387, Note_on_c, 0, 51, 54
2, 58405, Note_on_c, 0, 50, 0
2, 58420, Note_on_c, 0, 51, 0
2, 58426, Control_c, 0, 64, 0
2, 58430, Note_on_c, 0, 58, 21
2, 58430, Note_on_c, 0, 52, 41
2, 58450, Control_c, 0, 64, 127
2, 58456, Note_on_c, 0, 58, 0
2, 58478, Note_on_c, 0, 52, 0
2, 58540, Control_c, 0, 64, 0
2, 58545, Note_on_c, 0, 42, 40
2, 58545, Note_on_c, 0, 72, 48
2, 58548, Note_on_c, 0, 70, 38
2, 58549, Note_on_c, 0, 66, 37
2, 58549, Note_on_c, 0, 30, 46
2, 58549, Note_on_c, 0, 64, 37
2, 58564, Control_c, 0, 64, 127
2, 58570, Note_on_c, 0, 42, 0
2, 58571, Note_on_c, 0, 30, 0
2, 58604, Note_on_c, 0, 72, 0
2, 58606, Note_on_c, 0, 64, 0
2, 58608, Note_on_c, 0, 70, 0
2, 58612, Note_on_c, 0, 66, 0
2, 58668, Note_on_c, 0, 58, 50
2, 58673, Note_on_c, 0, 60, 50
2, 58682, Control_c, 0, 64, 0
2, 58686, Note_on_c, 0, 60, 0
2, 58692, Note_on_c, 0, 61, 51
2, 58717, Note_on_c, 0, 61, 0
2, 58722, Note_on_c, 0, 62, 52
2, 58740, Note_on_c, 0, 62, 0
2, 58744, Control_c, 0, 64, 127
2, 58749, Note_on_c, 0, 58, 0
2, 58753, Note_on_c, 0, 63, 37
2, 58763, Note_on_c, 0, 58, 21
2, 58768, Note_on_c, 0, 63, 0
2, 58778, Note_on_c, 0, 64, 53
2, 58778, Control_c, 0, 64, 0
2, 58787, Note_on_c, 0, 64, 0
2, 58799, Note_on_c, 0, 66, 29
2, 58807, Note_on_c, 0, 58, 0
2, 58817, Note_on_c, 0, 68, 45
2, 58820, Note_on_c, 0, 66, 0
2, 58836, Note_on_c, 0, 68, 0
2, 58836, Note_on_c, 0, 70, 46
2, 58845, Note_on_c, 0, 70, 0
2, 58845, Control_c, 0, 64, 127
2, 58860, Note_on_c, 0, 72, 51
2, 58874, Note_on_c, 0, 72, 0
2, 58881, Note_on_c, 0, 73, 36
2, 58889, Note_on_c, 0, 63, 25
2, 58890, Control_c, 0, 64, 0
2, 58894, Note_on_c, 0, 58, 33
2, 58900, Note_on_c, 0, 52, 32
2, 58906, Note_on_c, 0, 73, 0
2, 58913, Note_on_c, 0, 74, 52
2, 58923, Note_on_c, 0, 74, 0
2, 58935, Note_on_c, 0, 52, 0
2, 58939, Note_on_c, 0, 75, 30
2, 58940, Control_c, 0, 64, 127
2, 58945, Note_on_c, 0, 75, 0
2, 58949, Note_on_c, 0, 63, 0
2, 58956, Note_on_c, 0, 76, 36
2, 58965, Note_on_c, 0, 58, 0
2, 58974, Note_on_c, 0, 76, 0
2, 58981, Note_on_c, 0, 78, 45
2, 59004, Note_on_c, 0, 78, 0
2, 59011, Control_c, 0, 64, 0
2, 59014, Note_on_c, 0, 63, 35
2, 59019, Note_on_c, 0, 82, 57
2, 59022, Note_on_c, 0, 58, 26
2, 59045, Note_on_c, 0, 82, 0
2, 59050, Note_on_c, 0, 58, 0
2, 59052, Note_on_c, 0, 63, 0
2, 59064, Note_on_c, 0, 78, 42
2, 59083, Note_on_c, 0, 78, 0
2, 59087, Control_c, 0, 64, 127
2, 59091, Note_on_c, 0, 80, 28
2, 59097, Note_on_c, 0, 80, 0
2, 59105, Note_on_c, 0, 81, 37
2, 59114, Note_on_c, 0, 81, 0
2, 59126, Note_on_c, 0, 82, 33
2, 59130, Control_c, 0, 64, 0
2, 59133, Note_on_c, 0, 82, 0
2, 59135, Note_on_c, 0, 63, 19
2, 59144, Note_on_c, 0, 83, 35
2, 59153, Note_on_c, 0, 83, 0
2, 59161, Note_on_c, 0, 63, 0
2, 59162, Note_on_c, 0, 84, 36
2, 59173, Note_on_c, 0, 84, 0
2, 59194, Note_on_c, 0, 86, 34
2, 59218, Note_on_c, 0, 86, 0
2, 59220, Control_c, 0, 64, 127
2, 59220, Note_on_c, 0, 87, 46
2, 59237, Note_on_c, 0, 87, 0
2, 59239, Note_on_c, 0, 88, 62
2, 59248, Note_on_c, 0, 88, 0
2, 59262, Control_c, 0, 64, 0
2, 59266, Note_on_c, 0, 67, 34
2, 59267, Note_on_c, 0, 91, 79
2, 59268, Note_on_c, 0, 63, 33
2, 59269, Note_on_c, 0, 62, 24
2, 59284, Note_on_c, 0, 91, 0
2, 59310, Note_on_c, 0, 89, 34
2, 59313, Note_on_c, 0, 91, 37
2, 59319, Note_on_c, 0, 89, 0
2, 59320, Note_on_c, 0, 91, 0
2, 59338, Note_on_c, 0, 62, 0
2, 59353, Note_on_c, 0, 67, 0
2, 59373, Note_on_c, 0, 57, 52
2, 59420, Note_on_c, 0, 89, 74
2, 59436, Control_c, 0, 64, 127
2, 59442, Note_on_c, 0, 89, 0
2, 59450, Note_on_c, 0, 63, 0
2, 59457, Note_on_c, 0, 87, 74
2, 59471, Note_on_c, 0, 57, 0
2, 59480, Note_on_c, 0, 87, 0
2, 59498, Control_c, 0, 64, 0
2, 59499, Note_on_c, 0, 65, 40
2, 59499, Note_on_c, 0, 86, 53
2, 59505, Note_on_c, 0, 60, 34
2, 59508, Note_on_c, 0, 62, 24
2, 59518, Note_on_c, 0, 86, 0
2, 59522, Note_on_c, 0, 65, 0
2, 59542, Note_on_c, 0, 89, 63
2, 59552, Note_on_c, 0, 89, 0
2, 59587, Note_on_c, 0, 86, 58
2, 59605, Note_on_c, 0, 86, 0
2, 59630, Note_on_c, 0, 77, 38
2, 59636, Note_on_c, 0, 53, 27
2, 59648, Control_c, 0, 64, 127
2, 59662, Note_on_c, 0, 60, 0
2, 59669, Note_on_c, 0, 62, 0
2, 59706, Note_on_c, 0, 77, 0
2, 59719, Note_on_c, 0, 79, 45
2, 59728, Note_on_c, 0, 79, 0
2, 59754, Note_on_c, 0, 62, 32
2, 59755, Control_c, 0, 64, 0
2, 59755, Note_on_c, 0, 60, 28
2, 59760, Note_on_c, 0, 81, 50
2, 59767, Note_on_c, 0, 81, 0
2, 59799, Note_on_c, 0, 53, 0
2, 59832, Control_c, 0, 64, 127
2, 59839, Note_on_c, 0, 84, 60
2, 59855, Note_on_c, 0, 84, 0
2, 59871, Control_c, 0, 64, 0
2, 59878, Note_on_c, 0, 85, 73
2, 59878, Note_on_c, 0, 53, 36
2, 59879, Note_on_c, 0, 73, 53
2, 59903, Note_on_c, 0, 73, 0
2, 59903, Note_on_c, 0, 85, 0
2, 59907, Note_on_c, 0, 74, 34
2, 59923, Note_on_c, 0, 74, 0
2, 59944, Note_on_c, 0, 60, 0
2, 59950, Note_on_c, 0, 62, 0
2, 59965, Note_on_c, 0, 89, 79
2, 59966, Note_on_c, 0, 77, 74
2, 59972, Control_c, 0, 64, 127
2, 59986, Note_on_c, 0, 77, 0
2, 59993, Note_on_c, 0, 89, 0
2, 60005, Control_c, 0, 64, 0
2, 60013, Note_on_c, 0, 62, 25
2, 60013, Note_on_c, 0, 60, 28
2, 60023, Note_on_c, 0, 62, 0
2, 60025, Note_on_c, 0, 53, 0
2, 60040, Note_on_c, 0, 60, 0
2, 60044, Note_on_c, 0, 91, 77
2, 60045, Note_on_c, 0, 84, 64
2, 60046, Note_on_c, 0, 87, 51
2, 60046, Note_on_c, 0, 79, 49
2, 60050, Note_on_c, 0, 81, 45
2, 60051, Control_c, 0, 64, 127
2, 60053, Note_on_c, 0, 89, 28
2, 60058, Note_on_c, 0, 81, 0
2, 60061, Note_on_c, 0, 89, 0
2, 60065, Note_on_c, 0, 79, 0
2, 60068, Note_on_c, 0, 91, 0
2, 60068, Note_on_c, 0, 84, 0
2, 60073, Note_on_c, 0, 87, 0
2, 60087, Note_on_c, 0, 77, 51
2, 60088, Note_on_c, 0, 89, 53
2, 60092, Note_on_c, 0, 87, 25
2, 60098, Note_on_c, 0, 77, 0
2, 60103, Note_on_c, 0, 89, 0
2, 60105, Note_on_c, 0, 87, 0
2, 60130, Control_c, 0, 64, 0
2, 60130, Note_on_c, 0, 63, 59
2, 60132, Note_on_c, 0, 67, 69
2, 60132, Note_on_c, 0, 94, 82
2, 60133, Note_on_c, 0, 56, 54
2, 60133, Note_on_c, 0, 60, 65
2, 60134, Note_on_c, 0, 82, 83
2, 60160, Control_c, 0, 64, 127
2, 60190, Note_on_c, 0, 94, 0
2, 60193, Note_on_c, 0, 67, 0
2, 60194, Note_on_c, 0, 82, 0
2, 60199, Note_on_c, 0, 63, 0
2, 60200, Note_on_c, 0, 56, 0
2, 60202, Note_on_c, 0, 60, 0
2, 60218, Note_on_c, 0, 63, 56
2, 60219, Note_on_c, 0, 67, 61
2, 60219, Note_on_c, 0, 91, 80
2, 60219, Note_on_c, 0, 56, 45
2, 60219, Note_on_c, 0, 60, 73
2, 60220, Note_on_c, 0, 87, 73
2, 60221, Note_on_c, 0, 79, 53
2, 60224, Note_on_c, 0, 81, 59
2, 60227, Control_c, 0, 64, 0
2, 60230, Note_on_c, 0, 81, 0
2, 60251, Control_c, 0, 64, 127
2, 60262, Note_on_c, 0, 91, 0
2, 60264, Note_on_c, 0, 67, 0
2, 60268, Note_on_c, 0, 87, 0
2, 60268, Note_on_c, 0, 79, 0
2, 60272, Note_on_c, 0, 56, 0
2, 60278, Note_on_c, 0, 63, 0
2, 60281, Note_on_c, 0, 60, 0
2, 60283, Control_c, 0, 64, 0
2, 60292, Note_on_c, 0, 66, 63
2, 60292, Note_on_c, 0, 56, 38
2, 60292, Note_on_c, 0, 77, 64
2, 60294, Note_on_c, 0, 85, 60
2, 60294, Note_on_c, 0, 89, 54
2, 60294, Note_on_c, 0, 62, 62
2, 60299, Control_c, 0, 64, 127
2, 60302, Note_on_c, 0, 60, 22
2, 60328, Note_on_c, 0, 86, 58
2, 60334, Note_on_c, 0, 86, 0
2, 60335, Note_on_c, 0, 60, 0
2, 60337, Note_on_c, 0, 85, 0
2, 60339, Note_on_c, 0, 89, 0
2, 60340, Note_on_c, 0, 77, 0
2, 60340, Note_on_c, 0, 62, 0
2, 60343, Note_on_c, 0, 66, 0
2, 60346, Note_on_c, 0, 56, 0
2, 60356, Control_c, 0, 64, 0
2, 60370, Note_on_c, 0, 66, 50
2, 60370, Note_on_c, 0, 56, 43
2, 60372, Note_on_c, 0, 62, 42
2, 60372, Note_on_c, 0, 86, 60
2, 60374, Note_on_c, 0, 82, 58
2, 60374, Note_on_c, 0, 74, 55
2, 60378, Control_c, 0, 64, 127
2, 60402, Note_on_c, 0, 86, 0
2, 60407, Note_on_c, 0, 82, 0
2, 60414, Note_on_c, 0, 74, 0
2, 60426, Note_on_c, 0, 62, 0
2, 60432, Note_on_c, 0, 66, 0
2, 60453, Note_on_c, 0, 56, 0
2, 60487, Note_on_c, 0, 65, 42
2, 60489, Note_on_c, 0, 82, 52
2, 60492, Control_c, 0, 64, 0
2, 60493, Note_on_c, 0, 60, 30
2, 60494, Note_on_c, 0, 62, 24
2, 60494, Note_on_c, 0, 70, 32
2, 60494, Note_on_c, 0, 77, 33
2, 60495, Note_on_c, 0, 55, 27
2, 60508, Note_on_c, 0, 65, 0
2, 60512, Note_on_c, 0, 82, 0
2, 60514, Note_on_c, 0, 77, 0
2, 60514, Control_c, 0, 64, 127
2, 60515, Note_on_c, 0, 62, 0
2, 60519, Note_on_c, 0, 60, 0
2, 60520, Note_on_c, 0, 70, 0
2, 60535, Note_on_c, 0, 55, 0
2, 60606, Note_on_c, 0, 70, 47
2, 60611, Note_on_c, 0, 65, 54
2, 60612, Note_on_c, 0, 55, 48
2, 60614, Note_on_c, 0, 60, 36
2, 60616, Control_c, 0, 64, 0
2, 60654, Note_on_c, 0, 60, 0
2, 60654, Note_on_c, 0, 65, 0
2, 60660, Note_on_c, 0, 70, 0
2, 60661, Note_on_c, 0, 55, 0
2, 60688, Control_c, 0, 64, 127
2, 60702, Control_c, 0, 64, 0
2, 60729, Note_on_c, 0, 70, 47
2, 60734, Note_on_c, 0, 55, 35
2, 60734, Note_on_c, 0, 65, 51
2, 60738, Note_on_c, 0, 60, 27
2, 60742, Control_c, 0, 64, 127
2, 60777, Note_on_c, 0, 60, 0
2, 60779, Note_on_c, 0, 55, 0
2, 60783, Note_on_c, 0, 70, 0
2, 60795, Note_on_c, 0, 65, 0
2, 60808, Note_on_c, 0, 65, 38
2, 60809, Note_on_c, 0, 72, 44
2, 60809, Note_on_c, 0, 60, 34
2, 60810, Note_on_c, 0, 57, 36
2, 60829, Note_on_c, 0, 57, 0
2, 60831, Note_on_c, 0, 72, 0
2, 60837, Note_on_c, 0, 60, 0
2, 60840, Note_on_c, 0, 65, 0
2, 60840, Control_c, 0, 64, 0
2, 60852, Note_on_c, 0, 55, 28
2, 60855, Note_on_c, 0, 70, 43
2, 60866, Control_c, 0, 64, 127
2, 60873, Note_on_c, 0, 55, 0
2, 60903, Note_on_c, 0, 70, 0
2, 60928, Note_on_c, 0, 73, 43
2, 60928, Note_on_c, 0, 65, 62
2, 60934, Note_on_c, 0, 60, 31
2, 60949, Control_c, 0, 64, 0
2, 60968, Note_on_c, 0, 54, 21
2, 60969, Note_on_c, 0, 44, 25
2, 60991, Control_c, 0, 64, 127
2, 61017, Note_on_c, 0, 60, 0
2, 61019, Note_on_c, 0, 65, 0
2, 61039, Note_on_c, 0, 54, 0
2, 61054, Note_on_c, 0, 73, 0
2, 61056, Note_on_c, 0, 51, 25
2, 61066, Note_on_c, 0, 44, 0
2, 61088, Note_on_c, 0, 51, 0
2, 61088, Control_c, 0, 64, 0
2, 61089, Note_on_c, 0, 54, 38
2, 61091, Note_on_c, 0, 44, 25
2, 61091, Note_on_c, 0, 73, 38
2, 61094, Note_on_c, 0, 65, 51
2, 61105, Note_on_c, 0, 60, 13
2, 61119, Control_c, 0, 64, 127
2, 61136, Note_on_c, 0, 65, 0
2, 61140, Note_on_c, 0, 60, 0
2, 61145, Note_on_c, 0, 54, 0
2, 61150, Note_on_c, 0, 73, 0
2, 61175, Note_on_c, 0, 65, 57
2, 61176, Note_on_c, 0, 72, 47
2, 61178, Note_on_c, 0, 60, 36
2, 61195, Control_c, 0, 64, 0
2, 61197, Note_on_c, 0, 54, 25
2, 61209, Note_on_c, 0, 60, 0
2, 61211, Note_on_c, 0, 72, 0
2, 61220, Note_on_c, 0, 65, 0
2, 61224, Control_c, 0, 64, 127
2, 61261, Note_on_c, 0, 44, 0
2, 61282, Note_on_c, 0, 54, 0
2, 61293, Note_on_c, 0, 44, 67
2, 61295, Note_on_c, 0, 54, 61
2, 61317, Control_c, 0, 64, 0
2, 61339, Note_on_c, 0, 88, 76
2, 61341, Note_on_c, 0, 76, 66
2, 61342, Note_on_c, 0, 86, 64
2, 61348, Note_on_c, 0, 86, 0
2, 61348, Control_c, 0, 64, 127
2, 61351, Note_on_c, 0, 44, 0
2, 61371, Note_on_c, 0, 88, 0
2, 61376, Note_on_c, 0, 76, 0
2, 61384, Note_on_c, 0, 54, 0
2, 61412, Note_on_c, 0, 86, 44
2, 61415, Note_on_c, 0, 74, 67
2, 61418, Note_on_c, 0, 85, 57
2, 61432, Note_on_c, 0, 74, 0
2, 61435, Note_on_c, 0, 86, 0
2, 61440, Note_on_c, 0, 85, 0
2, 61448, Control_c, 0, 64, 0
2, 61450, Note_on_c, 0, 58, 35
2, 61454, Note_on_c, 0, 50, 45
2, 61459, Note_on_c, 0, 88, 66
2, 61460, Note_on_c, 0, 76, 42
2, 61479, Control_c, 0, 64, 127
2, 61486, Note_on_c, 0, 50, 0
2, 61495, Note_on_c, 0, 58, 0
2, 61505, Note_on_c, 0, 88, 0
2, 61512, Note_on_c, 0, 76, 0
2, 61574, Control_c, 0, 64, 0
2, 61576, Note_on_c, 0, 58, 50
2, 61576, Note_on_c, 0, 62, 36
2, 61578, Note_on_c, 0, 89, 57
2, 61580, Note_on_c, 0, 77, 42
2, 61584, Note_on_c, 0, 86, 40
2, 61585, Note_on_c, 0, 62, 0
2, 61595, Note_on_c, 0, 58, 0
2, 61613, Control_c, 0, 64, 127
2, 61646, Note_on_c, 0, 86, 0
2, 61650, Note_on_c, 0, 89, 0
2, 61655, Note_on_c, 0, 50, 42
2, 61658, Note_on_c, 0, 77, 0
2, 61678, Note_on_c, 0, 50, 0
2, 61685, Control_c, 0, 64, 0
2, 61698, Note_on_c, 0, 88, 43
2, 61698, Note_on_c, 0, 53, 49
2, 61699, Note_on_c, 0, 76, 47
2, 61700, Note_on_c, 0, 43, 35
2, 61709, Note_on_c, 0, 43, 0
2, 61711, Control_c, 0, 64, 127
2, 61720, Note_on_c, 0, 53, 0
2, 61729, Note_on_c, 0, 76, 0
2, 61731, Note_on_c, 0, 88, 0
2, 61775, Note_on_c, 0, 89, 65
2, 61778, Note_on_c, 0, 77, 39
2, 61779, Note_on_c, 0, 83, 45
2, 61806, Control_c, 0, 64, 0
2, 61810, Note_on_c, 0, 63, 42
2, 61819, Note_on_c, 0, 58, 32
2, 61826, Note_on_c, 0, 53, 9
2, 61828, Note_on_c, 0, 77, 0
2, 61829, Note_on_c, 0, 89, 0
2, 61829, Control_c, 0, 64, 127
2, 61835, Note_on_c, 0, 83, 0
2, 61844, Note_on_c, 0, 63, 0
2, 61856, Note_on_c, 0, 58, 0
2, 61862, Note_on_c, 0, 53, 0
2, 61890, Note_on_c, 0, 75, 64
2, 61892, Note_on_c, 0, 87, 56
2, 61894, Note_on_c, 0, 82, 46
2, 61912, Note_on_c, 0, 87, 0
2, 61912, Note_on_c, 0, 75, 0
2, 61916, Control_c, 0, 64, 0
2, 61929, Note_on_c, 0, 58, 36
2, 61929, Note_on_c, 0, 62, 35
2, 61930, Note_on_c, 0, 76, 41
2, 61932, Note_on_c, 0, 88, 45
2, 61937, Note_on_c, 0, 52, 24
2, 61938, Note_on_c, 0, 76, 0
2, 61938, Control_c, 0, 64, 127
2, 61940, Note_on_c, 0, 62, 0
2, 61942, Note_on_c, 0, 82, 0
2, 61946, Note_on_c, 0, 52, 0
2, 61950, Note_on_c, 0, 88, 0
2, 61953, Note_on_c, 0, 58, 0
2, 62005, Note_on_c, 0, 98, 77
2, 62007, Note_on_c, 0, 91, 71
2, 62008, Note_on_c, 0, 94, 62
2, 62008, Note_on_c, 0, 86, 66
2, 62026, Note_on_c, 0, 86, 0
2, 62034, Note_on_c, 0, 98, 0
2, 62037, Note_on_c, 0, 91, 0
2, 62041, Note_on_c, 0, 94, 0
2, 62049, Note_on_c, 0, 58, 43
2, 62052, Note_on_c, 0, 97, 70
2, 62052, Note_on_c, 0, 48, 48
2, 62054, Note_on_c, 0, 91, 54
2, 62054, Note_on_c, 0, 85, 62
2, 62055, Note_on_c, 0, 94, 53
2, 62057, Control_c, 0, 64, 0
2, 62062, Control_c, 0, 64, 127
2, 62082, Note_on_c, 0, 91, 0
2, 62091, Note_on_c, 0, 85, 0
2, 62093, Note_on_c, 0, 97, 0
2, 62094, Note_on_c, 0, 58, 0
2, 62096, Note_on_c, 0, 94, 0
2, 62114, Note_on_c, 0, 48, 0
2, 62127, Note_on_c, 0, 91, 74
2, 62127, Note_on_c, 0, 58, 59
2, 62128, Note_on_c, 0, 96, 79
2, 62129, Control_c, 0, 64, 0
2, 62129, Note_on_c, 0, 84, 62
2, 62156, Control_c, 0, 64, 127
2, 62179, Note_on_c, 0, 96, 0
2, 62186, Note_on_c, 0, 91, 0
2, 62208, Note_on_c, 0, 84, 0
2, 62228, Note_on_c, 0, 58, 0
2, 62240, Note_on_c, 0, 48, 75
2, 62273, Note_on_c, 0, 48, 0
2, 62393, Control_c, 0, 64, 0
2, 62394, Note_on_c, 0, 24, 33
2, 62397, Note_on_c, 0, 87, 73
2, 62398, Note_on_c, 0, 75, 67
2, 62400, Note_on_c, 0, 36, 41
2, 62400, Note_on_c, 0, 38, 28
2, 62407, Note_on_c, 0, 38, 0
2, 62418, Note_on_c, 0, 24, 0
2, 62423, Note_on_c, 0, 36, 0
2, 62429, Note_on_c, 0, 75, 0
2, 62429, Note_on_c, 0, 87, 0
2, 62470, Control_c, 0, 64, 127
2, 62470, Note_on_c, 0, 38, 43
2, 62472, Note_on_c, 0, 26, 36
2, 62488, Note_on_c, 0, 26, 0
2, 62492, Note_on_c, 0, 38, 0
2, 62514, Control_c, 0, 64, 0
2, 62519, Note_on_c, 0, 86, 50
2, 62520, Note_on_c, 0, 40, 54
2, 62520, Note_on_c, 0, 28, 48
2, 62521, Note_on_c, 0, 74, 39
2, 62538, Note_on_c, 0, 74, 0
2, 62539, Note_on_c, 0, 86, 0
2, 62542, Note_on_c, 0, 28, 0
2, 62542, Note_on_c, 0, 40, 0
2, 62582, Control_c, 0, 64, 127
2, 62590, Note_on_c, 0, 28, 43
2, 62606, Note_on_c, 0, 28, 0
2, 62632, Control_c, 0, 64, 0
2, 62637, Note_on_c, 0, 79, 32
2, 62638, Note_on_c, 0, 72, 34
2, 62639, Note_on_c, 0, 41, 52
2, 62639, Note_on_c, 0, 82, 43
2, 62652, Note_on_c, 0, 82, 0
2, 62658, Note_on_c, 0, 79, 0
2, 62659, Note_on_c, 0, 72, 0
2, 62717, Control_c, 0, 64, 127
2, 62717, Note_on_c, 0, 29, 55
2, 62726, Note_on_c, 0, 29, 0
2, 62730, Note_on_c, 0, 41, 0
2, 62753, Control_c, 0, 64, 0
2, 62769, Control_c, 0, 64, 127
2, 62878, Note_on_c, 0, 55, 42
2, 62883, Control_c, 0, 64, 0
2, 62884, Note_on_c, 0, 70, 44
2, 62886, Note_on_c, 0, 65, 51
2, 62887, Note_on_c, 0, 60, 32
2, 62888, Note_on_c, 0, 55, 0
2, 62906, Note_on_c, 0, 70, 0
2, 62906, Note_on_c, 0, 65, 0
2, 62907, Control_c, 0, 64, 127
2, 62915, Note_on_c, 0, 60, 0
2, 62996, Control_c, 0, 64, 0
2, 63004, Note_on_c, 0, 45, 43
2, 63006, Control_c, 0, 64, 127
2, 63019, Note_on_c, 0, 45, 0
2, 63093, Note_on_c, 0, 66, 27
2, 63094, Note_on_c, 0, 60, 48
2, 63094, Note_on_c, 0, 67, 51
2, 63094, Note_on_c, 0, 34, 42
2, 63094, Note_on_c, 0, 22, 43
2, 63103, Control_c, 0, 64, 0
2, 63104, Note_on_c, 0, 66, 0
2, 63105, Note_on_c, 0, 55, 14
2, 63136, Control_c, 0, 64, 127
2, 63149, Note_on_c, 0, 55, 0
2, 63154, Note_on_c, 0, 60, 0
2, 63161, Note_on_c, 0, 22, 0
2, 63169, Note_on_c, 0, 34, 0
2, 63173, Note_on_c, 0, 67, 0
2, 63236, Note_on_c, 0, 56, 48
2, 63255, Note_on_c, 0, 67, 57
2, 63272, Note_on_c, 0, 67, 0
2, 63274, Note_on_c, 0, 72, 24
2, 63279, Note_on_c, 0, 62, 31
2, 63285, Note_on_c, 0, 76, 44
2, 63287, Note_on_c, 0, 72, 0
2, 63294, Note_on_c, 0, 76, 0
2, 63296, Note_on_c, 0, 79, 30
2, 63304, Note_on_c, 0, 79, 0
2, 63317, Note_on_c, 0, 79, 44
2, 63326, Note_on_c, 0, 79, 0
2, 63369, Note_on_c, 0, 91, 49
2, 63392, Note_on_c, 0, 91, 0
2, 63395, Note_on_c, 0, 96, 32
2, 63395, Note_on_c, 0, 100, 43
2, 63414, Note_on_c, 0, 100, 0
2, 63416, Note_on_c, 0, 96, 0
2, 63421, Note_on_c, 0, 103, 64
2, 63430, Note_on_c, 0, 67, 31
2, 63441, Note_on_c, 0, 100, 50
2, 63442, Note_on_c, 0, 103, 0
2, 63464, Note_on_c, 0, 100, 0
2, 63501, Note_on_c, 0, 56, 0
2, 63503, Note_on_c, 0, 62, 0
2, 63505, Note_on_c, 0, 67, 0
2, 63625, Control_c, 0, 64, 0
2, 63625, End_track
3, 0, Start_track
3, 0, Title_t, "Unedited piano solo"
3, 0, End_track
0, 0, End_of_file
