0, 0, Header, 1, 5, 960
1, 0, Start_track
1, 0, Title_t, "Moon River"
1, 0, Text_t, "dougmck@pipeline.com.au\012"
1, 0, Time_signature, 3, 2, 24, 8
1, 0, Key_signature, 0, "major"
1, 0, Tempo, 923077
1, 0, Marker_t, "First chorus played freely"
1, 7342, Marker_t, "Diatonic 4th voicings follow melody"
1, 142080, Marker_t, "Alternate thumb/fore-fingrer on each scale tone"
1, 217652, Marker_t, "Glissando with back of fore-finger"
1, 242760, Marker_t, "Final chord is E/C (or CMaj7#5)"
1, 242760, End_track
2, 0, Start_track
2, 0, Title_t, "Piano"
2, 0, Control_c, 0, 7, 104
2, 112, Note_on_c, 0, 48, 36
2, 280, Note_on_c, 0, 69, 42
2, 304, Note_on_c, 0, 55, 30
2, 320, Note_on_c, 0, 74, 51
2, 344, Note_on_c, 0, 64, 39
2, 384, Note_on_c, 0, 79, 55
2, 424, Control_c, 0, 64, 0
2, 616, Control_c, 0, 64, 127
2, 976, Note_on_c, 0, 79, 0
2, 1080, Note_on_c, 0, 79, 41
2, 1360, Note_on_c, 0, 79, 0
2, 2104, Note_on_c, 0, 64, 0
2, 2160, Note_on_c, 0, 55, 0
2, 2240, Note_on_c, 0, 48, 0
2, 2584, Note_on_c, 0, 33, 70
2, 2616, Control_c, 0, 64, 0
2, 2720, Control_c, 0, 64, 127
2, 2920, Note_on_c, 0, 33, 0
2, 3056, Note_on_c, 0, 69, 0
2, 3104, Note_on_c, 0, 74, 0
2, 3656, Note_on_c, 0, 86, 81
2, 3672, Note_on_c, 0, 83, 71
2, 3672, Note_on_c, 0, 60, 55
2, 3680, Note_on_c, 0, 79, 65
2, 3688, Note_on_c, 0, 59, 50
2, 3688, Note_on_c, 0, 74, 64
2, 3688, Note_on_c, 0, 64, 41
2, 5112, Note_on_c, 0, 86, 0
2, 5184, Note_on_c, 0, 83, 0
2, 5536, Note_on_c, 0, 79, 0
2, 5776, Note_on_c, 0, 64, 0
2, 5824, Note_on_c, 0, 74, 0
2, 5872, Note_on_c, 0, 60, 0
2, 5904, Note_on_c, 0, 59, 0
2, 5912, Note_on_c, 0, 84, 49
2, 6176, Note_on_c, 0, 84, 0
2, 7432, Note_on_c, 0, 83, 55
2, 7440, Note_on_c, 0, 77, 41
2, 7440, Note_on_c, 0, 67, 45
2, 7464, Note_on_c, 0, 72, 26
2, 7496, Control_c, 0, 64, 0
2, 7632, Control_c, 0, 64, 127
2, 7864, Note_on_c, 0, 83, 0
2, 7888, Note_on_c, 0, 67, 0
2, 7904, Note_on_c, 0, 77, 0
2, 7928, Note_on_c, 0, 72, 0
2, 8104, Note_on_c, 0, 81, 40
2, 8104, Note_on_c, 0, 71, 38
2, 8120, Note_on_c, 0, 65, 43
2, 8128, Note_on_c, 0, 76, 51
2, 8160, Control_c, 0, 64, 0
2, 8288, Control_c, 0, 64, 127
2, 8416, Note_on_c, 0, 81, 0
2, 8472, Note_on_c, 0, 76, 0
2, 8536, Note_on_c, 0, 71, 0
2, 8696, Note_on_c, 0, 65, 0
2, 8760, Note_on_c, 0, 74, 43
2, 8760, Note_on_c, 0, 64, 31
2, 8760, Note_on_c, 0, 69, 31
2, 8760, Note_on_c, 0, 79, 24
2, 8800, Control_c, 0, 64, 0
2, 8936, Control_c, 0, 64, 127
2, 9104, Note_on_c, 0, 79, 0
2, 9136, Note_on_c, 0, 74, 0
2, 9184, Note_on_c, 0, 69, 0
2, 9480, Note_on_c, 0, 77, 45
2, 9496, Note_on_c, 0, 64, 0
2, 9504, Note_on_c, 0, 67, 33
2, 9504, Note_on_c, 0, 62, 32
2, 9528, Note_on_c, 0, 72, 25
2, 9632, Note_on_c, 0, 62, 0
2, 9704, Note_on_c, 0, 67, 0
2, 9744, Note_on_c, 0, 72, 0
2, 9768, Note_on_c, 0, 77, 0
2, 10448, Note_on_c, 0, 52, 32
2, 10464, Note_on_c, 0, 79, 40
2, 10496, Note_on_c, 0, 64, 29
2, 10504, Note_on_c, 0, 67, 35
2, 10552, Control_c, 0, 64, 0
2, 10776, Control_c, 0, 64, 127
2, 10992, Note_on_c, 0, 60, 35
2, 11000, Note_on_c, 0, 64, 0
2, 11120, Note_on_c, 0, 67, 0
2, 11360, Note_on_c, 0, 79, 0
2, 11480, Note_on_c, 0, 67, 36
2, 11512, Note_on_c, 0, 64, 22
2, 11920, Note_on_c, 0, 67, 0
2, 12040, Note_on_c, 0, 72, 76
2, 12760, Note_on_c, 0, 72, 0
2, 12760, Note_on_c, 0, 74, 48
2, 12864, Note_on_c, 0, 72, 35
2, 12936, Note_on_c, 0, 74, 0
2, 13056, Note_on_c, 0, 71, 73
2, 13064, Note_on_c, 0, 72, 0
2, 13400, Note_on_c, 0, 71, 0
2, 13408, Note_on_c, 0, 72, 69
2, 13784, Note_on_c, 0, 74, 66
2, 13840, Note_on_c, 0, 72, 0
2, 13976, Note_on_c, 0, 74, 0
2, 14160, Note_on_c, 0, 76, 51
2, 14344, Note_on_c, 0, 76, 0
2, 14472, Note_on_c, 0, 52, 0
2, 14544, Note_on_c, 0, 79, 44
2, 14776, Note_on_c, 0, 64, 0
2, 14864, Note_on_c, 0, 60, 0
2, 14912, Note_on_c, 0, 79, 0
2, 14976, Note_on_c, 0, 86, 63
2, 15112, Note_on_c, 0, 86, 0
2, 15472, Note_on_c, 0, 83, 46
2, 15496, Note_on_c, 0, 53, 22
2, 15504, Note_on_c, 0, 74, 44
2, 15544, Control_c, 0, 64, 0
2, 15776, Control_c, 0, 64, 127
2, 15968, Note_on_c, 0, 74, 0
2, 15984, Note_on_c, 0, 60, 29
2, 16464, Note_on_c, 0, 74, 35
2, 16488, Note_on_c, 0, 83, 0
2, 16488, Note_on_c, 0, 65, 28
2, 16760, Note_on_c, 0, 74, 0
2, 17208, Note_on_c, 0, 81, 58
2, 17224, Note_on_c, 0, 72, 52
2, 17416, Note_on_c, 0, 81, 0
2, 17488, Note_on_c, 0, 72, 0
2, 17600, Note_on_c, 0, 65, 0
2, 17680, Note_on_c, 0, 79, 46
2, 17688, Note_on_c, 0, 71, 50
2, 17848, Note_on_c, 0, 79, 0
2, 17904, Note_on_c, 0, 71, 0
2, 17992, Note_on_c, 0, 60, 0
2, 18000, Note_on_c, 0, 53, 0
2, 18040, Note_on_c, 0, 77, 51
2, 18056, Note_on_c, 0, 69, 49
2, 18176, Note_on_c, 0, 69, 0
2, 18192, Note_on_c, 0, 77, 0
2, 18448, Note_on_c, 0, 79, 55
2, 18456, Note_on_c, 0, 52, 33
2, 18472, Note_on_c, 0, 74, 40
2, 18480, Note_on_c, 0, 67, 34
2, 18504, Note_on_c, 0, 64, 30
2, 18520, Control_c, 0, 64, 0
2, 18752, Control_c, 0, 64, 127
2, 18872, Note_on_c, 0, 64, 0
2, 18880, Note_on_c, 0, 60, 38
2, 19000, Note_on_c, 0, 67, 0
2, 19088, Note_on_c, 0, 79, 0
2, 19184, Note_on_c, 0, 74, 0
2, 19256, Note_on_c, 0, 67, 32
2, 19280, Note_on_c, 0, 64, 24
2, 19536, Note_on_c, 0, 67, 0
2, 19656, Note_on_c, 0, 72, 66
2, 20032, Note_on_c, 0, 64, 0
2, 20056, Note_on_c, 0, 72, 0
2, 20072, Note_on_c, 0, 71, 55
2, 20096, Note_on_c, 0, 60, 0
2, 20304, Note_on_c, 0, 52, 0
2, 20472, Note_on_c, 0, 71, 0
2, 20480, Note_on_c, 0, 72, 47
2, 20744, Note_on_c, 0, 72, 0
2, 21008, Note_on_c, 0, 47, 34
2, 21024, Note_on_c, 0, 74, 49
2, 21096, Control_c, 0, 64, 0
2, 21248, Control_c, 0, 64, 127
2, 21488, Note_on_c, 0, 47, 0
2, 21496, Note_on_c, 0, 57, 35
2, 21616, Note_on_c, 0, 57, 0
2, 22016, Note_on_c, 0, 65, 33
2, 22016, Note_on_c, 0, 71, 40
2, 22032, Note_on_c, 0, 69, 36
2, 22032, Note_on_c, 0, 64, 29
2, 22112, Note_on_c, 0, 69, 0
2, 22120, Note_on_c, 0, 65, 0
2, 22264, Note_on_c, 0, 64, 0
2, 22280, Note_on_c, 0, 71, 0
2, 22536, Note_on_c, 0, 71, 32
2, 22552, Note_on_c, 0, 65, 33
2, 22568, Note_on_c, 0, 69, 43
2, 22576, Note_on_c, 0, 64, 29
2, 22720, Note_on_c, 0, 69, 0
2, 22768, Note_on_c, 0, 65, 0
2, 22808, Note_on_c, 0, 64, 0
2, 22840, Note_on_c, 0, 71, 0
2, 23136, Note_on_c, 0, 71, 24
2, 23144, Note_on_c, 0, 65, 33
2, 23152, Note_on_c, 0, 69, 43
2, 23160, Note_on_c, 0, 64, 29
2, 23448, Note_on_c, 0, 64, 0
2, 23456, Note_on_c, 0, 65, 0
2, 23488, Note_on_c, 0, 69, 0
2, 23536, Note_on_c, 0, 71, 0
2, 23624, Note_on_c, 0, 74, 0
2, 23760, Note_on_c, 0, 71, 30
2, 23768, Note_on_c, 0, 69, 40
2, 23776, Note_on_c, 0, 64, 30
2, 23776, Note_on_c, 0, 65, 26
2, 23840, Note_on_c, 0, 64, 0
2, 24864, Note_on_c, 0, 28, 39
2, 24888, Control_c, 0, 64, 0
2, 25048, Control_c, 0, 64, 127
2, 25232, Note_on_c, 0, 28, 0
2, 25248, Note_on_c, 0, 65, 0
2, 25320, Note_on_c, 0, 69, 0
2, 25472, Note_on_c, 0, 71, 0
2, 26272, Note_on_c, 0, 79, 29
2, 26296, Note_on_c, 0, 76, 44
2, 26320, Note_on_c, 0, 56, 26
2, 26320, Note_on_c, 0, 62, 26
2, 26320, Note_on_c, 0, 72, 28
2, 26320, Note_on_c, 0, 67, 27
2, 27376, Note_on_c, 0, 67, 0
2, 27416, Note_on_c, 0, 79, 0
2, 27520, Note_on_c, 0, 76, 0
2, 27552, Note_on_c, 0, 72, 0
2, 27912, Note_on_c, 0, 76, 92
2, 28144, Note_on_c, 0, 62, 0
2, 28224, Note_on_c, 0, 56, 0
2, 28640, Note_on_c, 0, 75, 21
2, 28712, Note_on_c, 0, 76, 0
2, 28752, Note_on_c, 0, 75, 0
2, 28816, Note_on_c, 0, 74, 30
2, 28936, Note_on_c, 0, 74, 0
2, 28976, Note_on_c, 0, 73, 29
2, 29104, Note_on_c, 0, 73, 0
2, 29128, Note_on_c, 0, 72, 46
2, 29136, Note_on_c, 0, 45, 41
2, 29152, Control_c, 0, 64, 0
2, 29360, Control_c, 0, 64, 127
2, 29520, Note_on_c, 0, 52, 43
2, 29536, Note_on_c, 0, 45, 0
2, 29592, Note_on_c, 0, 52, 0
2, 29936, Note_on_c, 0, 59, 40
2, 30360, Note_on_c, 0, 60, 55
2, 30768, Note_on_c, 0, 72, 0
2, 30832, Note_on_c, 0, 64, 22
2, 30832, Note_on_c, 0, 71, 35
2, 31280, Note_on_c, 0, 79, 64
2, 31384, Note_on_c, 0, 59, 0
2, 31528, Note_on_c, 0, 79, 0
2, 31736, Note_on_c, 0, 60, 0
2, 31736, Note_on_c, 0, 79, 55
2, 31768, Note_on_c, 0, 55, 32
2, 31792, Note_on_c, 0, 64, 0
2, 31808, Control_c, 0, 64, 0
2, 31824, Note_on_c, 0, 71, 0
2, 31968, Control_c, 0, 64, 127
2, 32192, Note_on_c, 0, 79, 0
2, 32200, Note_on_c, 0, 60, 34
2, 32640, Note_on_c, 0, 76, 50
2, 32648, Note_on_c, 0, 68, 36
2, 32784, Note_on_c, 0, 60, 0
2, 33176, Note_on_c, 0, 60, 33
2, 33592, Note_on_c, 0, 68, 0
2, 33744, Note_on_c, 0, 76, 0
2, 33768, Note_on_c, 0, 72, 32
2, 33784, Note_on_c, 0, 68, 13
2, 33784, Note_on_c, 0, 64, 26
2, 34032, Note_on_c, 0, 72, 0
2, 34104, Note_on_c, 0, 60, 0
2, 34144, Note_on_c, 0, 64, 0
2, 34160, Note_on_c, 0, 55, 0
2, 34200, Note_on_c, 0, 68, 0
2, 34384, Note_on_c, 0, 74, 54
2, 34392, Note_on_c, 0, 64, 53
2, 34392, Note_on_c, 0, 68, 45
2, 34416, Note_on_c, 0, 58, 31
2, 34440, Control_c, 0, 64, 0
2, 34584, Control_c, 0, 64, 127
2, 34712, Note_on_c, 0, 74, 0
2, 34784, Note_on_c, 0, 64, 0
2, 34848, Note_on_c, 0, 68, 0
2, 34952, Note_on_c, 0, 58, 0
2, 35016, Note_on_c, 0, 62, 40
2, 35024, Note_on_c, 0, 67, 47
2, 35032, Control_c, 0, 64, 0
2, 35032, Note_on_c, 0, 57, 32
2, 35032, Note_on_c, 0, 72, 28
2, 35216, Control_c, 0, 64, 127
2, 35352, Note_on_c, 0, 57, 0
2, 35472, Note_on_c, 0, 72, 0
2, 35496, Note_on_c, 0, 67, 0
2, 35568, Note_on_c, 0, 62, 0
2, 36376, Note_on_c, 0, 57, 24
2, 36376, Note_on_c, 0, 41, 35
2, 36384, Note_on_c, 0, 48, 29
2, 36384, Note_on_c, 0, 60, 26
2, 36400, Note_on_c, 0, 55, 26
2, 36408, Note_on_c, 0, 50, 19
2, 36424, Note_on_c, 0, 52, 16
2, 36456, Control_c, 0, 64, 0
2, 36832, Control_c, 0, 64, 127
2, 37144, Note_on_c, 0, 52, 0
2, 37144, Note_on_c, 0, 48, 0
2, 37152, Note_on_c, 0, 50, 0
2, 37184, Note_on_c, 0, 55, 0
2, 37192, Note_on_c, 0, 57, 0
2, 37240, Note_on_c, 0, 60, 0
2, 37984, Note_on_c, 0, 41, 0
2, 38032, Note_on_c, 0, 60, 58
2, 38128, Note_on_c, 0, 60, 0
2, 38568, Note_on_c, 0, 67, 68
2, 38576, Note_on_c, 0, 46, 40
2, 38576, Note_on_c, 0, 64, 62
2, 38584, Note_on_c, 0, 60, 63
2, 38592, Note_on_c, 0, 56, 29
2, 38616, Control_c, 0, 64, 0
2, 38760, Note_on_c, 0, 60, 0
2, 38784, Control_c, 0, 64, 127
2, 38832, Note_on_c, 0, 64, 0
2, 38840, Note_on_c, 0, 67, 0
2, 38984, Note_on_c, 0, 56, 0
2, 39080, Note_on_c, 0, 79, 71
2, 39088, Note_on_c, 0, 53, 32
2, 39168, Note_on_c, 0, 53, 0
2, 39184, Note_on_c, 0, 46, 0
2, 39408, Note_on_c, 0, 79, 0
2, 39640, Note_on_c, 0, 79, 42
2, 39656, Note_on_c, 0, 76, 50
2, 39664, Note_on_c, 0, 72, 36
2, 39680, Note_on_c, 0, 56, 35
2, 39688, Note_on_c, 0, 67, 39
2, 39736, Control_c, 0, 64, 0
2, 39816, Control_c, 0, 64, 127
2, 40224, Note_on_c, 0, 62, 36
2, 40376, Note_on_c, 0, 67, 0
2, 40488, Note_on_c, 0, 72, 0
2, 40616, Note_on_c, 0, 79, 0
2, 40672, Note_on_c, 0, 62, 0
2, 40752, Note_on_c, 0, 76, 0
2, 40816, Note_on_c, 0, 67, 46
2, 40816, Note_on_c, 0, 72, 31
2, 40824, Note_on_c, 0, 62, 28
2, 40968, Note_on_c, 0, 72, 0
2, 41128, Note_on_c, 0, 67, 0
2, 41216, Note_on_c, 0, 62, 0
2, 41328, Note_on_c, 0, 56, 0
2, 41944, Note_on_c, 0, 76, 66
2, 42112, Note_on_c, 0, 76, 0
2, 42256, Note_on_c, 0, 74, 47
2, 42384, Note_on_c, 0, 74, 0
2, 42768, Note_on_c, 0, 72, 44
2, 42792, Note_on_c, 0, 45, 36
2, 42840, Control_c, 0, 64, 0
2, 43000, Control_c, 0, 64, 127
2, 43216, Note_on_c, 0, 52, 35
2, 43600, Note_on_c, 0, 72, 0
2, 43664, Note_on_c, 0, 64, 41
2, 43672, Note_on_c, 0, 60, 41
2, 43688, Note_on_c, 0, 57, 36
2, 43984, Note_on_c, 0, 60, 0
2, 44064, Note_on_c, 0, 64, 0
2, 44168, Note_on_c, 0, 64, 80
2, 44528, Note_on_c, 0, 64, 0
2, 44688, Note_on_c, 0, 64, 64
2, 44792, Note_on_c, 0, 45, 0
2, 44808, Note_on_c, 0, 52, 0
2, 44928, Note_on_c, 0, 57, 0
2, 45288, Note_on_c, 0, 64, 0
2, 45304, Note_on_c, 0, 67, 45
2, 45576, Note_on_c, 0, 67, 0
2, 46008, Note_on_c, 0, 54, 34
2, 46016, Note_on_c, 0, 69, 53
2, 46016, Note_on_c, 0, 64, 37
2, 46024, Note_on_c, 0, 72, 36
2, 46064, Note_on_c, 0, 58, 23
2, 46080, Control_c, 0, 64, 0
2, 46208, Control_c, 0, 64, 127
2, 46464, Note_on_c, 0, 58, 0
2, 46480, Note_on_c, 0, 54, 0
2, 46536, Note_on_c, 0, 69, 0
2, 46552, Note_on_c, 0, 64, 0
2, 46568, Note_on_c, 0, 72, 0
2, 47144, Note_on_c, 0, 71, 44
2, 47168, Note_on_c, 0, 67, 36
2, 47176, Note_on_c, 0, 62, 30
2, 47184, Note_on_c, 0, 53, 34
2, 47192, Control_c, 0, 64, 0
2, 47304, Control_c, 0, 64, 127
2, 47368, Note_on_c, 0, 53, 0
2, 47424, Note_on_c, 0, 62, 0
2, 47528, Note_on_c, 0, 67, 0
2, 47592, Note_on_c, 0, 71, 0
2, 47696, Note_on_c, 0, 63, 34
2, 48216, Note_on_c, 0, 75, 31
2, 48224, Note_on_c, 0, 83, 49
2, 48256, Note_on_c, 0, 67, 26
2, 48864, Note_on_c, 0, 75, 0
2, 48896, Note_on_c, 0, 67, 0
2, 48912, Note_on_c, 0, 83, 0
2, 48912, Note_on_c, 0, 81, 54
2, 48984, Note_on_c, 0, 63, 0
2, 49320, Note_on_c, 0, 81, 0
2, 49720, Note_on_c, 0, 83, 74
2, 49728, Note_on_c, 0, 52, 40
2, 49760, Control_c, 0, 64, 0
2, 49904, Control_c, 0, 64, 127
2, 50096, Note_on_c, 0, 83, 0
2, 50120, Note_on_c, 0, 59, 44
2, 50472, Note_on_c, 0, 74, 55
2, 50480, Note_on_c, 0, 69, 51
2, 50480, Note_on_c, 0, 62, 40
2, 50600, Note_on_c, 0, 62, 0
2, 50608, Note_on_c, 0, 59, 0
2, 50648, Note_on_c, 0, 52, 0
2, 50832, Note_on_c, 0, 69, 0
2, 50872, Note_on_c, 0, 81, 70
2, 50928, Note_on_c, 0, 74, 0
2, 51000, Note_on_c, 0, 81, 0
2, 51175, Control_c, 0, 64, 0
2, 51218, Control_c, 0, 64, 127
2, 51280, Note_on_c, 0, 45, 55
2, 51304, Note_on_c, 0, 84, 53
2, 51304, Note_on_c, 0, 77, 40
2, 51384, Note_on_c, 0, 45, 0
2, 51560, Note_on_c, 0, 77, 0
2, 51704, Note_on_c, 0, 84, 0
2, 51840, Note_on_c, 0, 81, 54
2, 51864, Note_on_c, 0, 61, 38
2, 51872, Note_on_c, 0, 65, 28
2, 51872, Note_on_c, 0, 77, 41
2, 51880, Note_on_c, 0, 72, 24
2, 51880, Note_on_c, 0, 55, 33
2, 52072, Note_on_c, 0, 81, 0
2, 52112, Note_on_c, 0, 77, 0
2, 52144, Note_on_c, 0, 72, 0
2, 52160, Note_on_c, 0, 65, 0
2, 52344, Note_on_c, 0, 61, 0
2, 52744, Note_on_c, 0, 81, 50
2, 52744, Note_on_c, 0, 76, 55
2, 52760, Note_on_c, 0, 72, 37
2, 52760, Note_on_c, 0, 64, 36
2, 52792, Control_c, 0, 64, 0
2, 52960, Control_c, 0, 64, 127
2, 53160, Note_on_c, 0, 81, 0
2, 53160, Note_on_c, 0, 55, 0
2, 53192, Note_on_c, 0, 72, 0
2, 53232, Note_on_c, 0, 76, 0
2, 53288, Note_on_c, 0, 63, 46
2, 53344, Note_on_c, 0, 64, 0
2, 53824, Note_on_c, 0, 63, 0
2, 53840, Note_on_c, 0, 77, 48
2, 53856, Note_on_c, 0, 69, 35
2, 53856, Note_on_c, 0, 62, 36
2, 53880, Note_on_c, 0, 72, 40
2, 53896, Control_c, 0, 64, 0
2, 53992, Control_c, 0, 64, 127
2, 54136, Note_on_c, 0, 77, 0
2, 54152, Note_on_c, 0, 72, 0
2, 54192, Note_on_c, 0, 69, 0
2, 54336, Note_on_c, 0, 62, 0
2, 54480, Note_on_c, 0, 69, 41
2, 54488, Note_on_c, 0, 60, 47
2, 54488, Note_on_c, 0, 65, 28
2, 54496, Note_on_c, 0, 55, 37
2, 54728, Note_on_c, 0, 55, 0
2, 54768, Note_on_c, 0, 69, 0
2, 54880, Note_on_c, 0, 65, 0
2, 54880, Note_on_c, 0, 60, 0
2, 55280, Note_on_c, 0, 68, 35
2, 55288, Note_on_c, 0, 59, 27
2, 55288, Note_on_c, 0, 64, 32
2, 55304, Note_on_c, 0, 53, 28
2, 55312, Note_on_c, 0, 43, 32
2, 55368, Control_c, 0, 64, 0
2, 55600, Control_c, 0, 64, 127
2, 55880, Note_on_c, 0, 64, 0
2, 55928, Note_on_c, 0, 53, 0
2, 56000, Note_on_c, 0, 59, 0
2, 56192, Note_on_c, 0, 59, 40
2, 56208, Note_on_c, 0, 63, 34
2, 56240, Note_on_c, 0, 53, 15
2, 56464, Note_on_c, 0, 43, 0
2, 56592, Note_on_c, 0, 53, 0
2, 56952, Note_on_c, 0, 68, 0
2, 57032, Note_on_c, 0, 59, 0
2, 57056, Note_on_c, 0, 63, 0
2, 57469, Control_c, 0, 64, 0
2, 57616, Control_c, 0, 64, 127
2, 57856, Note_on_c, 0, 36, 37
2, 58000, Note_on_c, 0, 36, 0
2, 58280, Note_on_c, 0, 36, 51
2, 58912, Note_on_c, 0, 56, 35
2, 58944, Note_on_c, 0, 59, 58
2, 58968, Note_on_c, 0, 48, 33
2, 58976, Note_on_c, 0, 64, 54
2, 59016, Note_on_c, 0, 67, 40
2, 59120, Control_c, 0, 64, 0
2, 59424, Control_c, 0, 64, 127
2, 59712, Note_on_c, 0, 59, 0
2, 59856, Note_on_c, 0, 56, 0
2, 59992, Note_on_c, 0, 48, 0
2, 60072, Note_on_c, 0, 64, 0
2, 60144, Note_on_c, 0, 62, 47
2, 60176, Note_on_c, 0, 57, 35
2, 60184, Note_on_c, 0, 48, 24
2, 60200, Note_on_c, 0, 67, 0
2, 60536, Note_on_c, 0, 57, 0
2, 60568, Note_on_c, 0, 67, 64
2, 60632, Note_on_c, 0, 62, 0
2, 60752, Note_on_c, 0, 67, 0
2, 60904, Note_on_c, 0, 36, 0
2, 60920, Note_on_c, 0, 71, 85
2, 60992, Note_on_c, 0, 48, 0
2, 61240, Note_on_c, 0, 71, 0
2, 61272, Note_on_c, 0, 74, 78
2, 61568, Note_on_c, 0, 74, 0
2, 61672, Note_on_c, 0, 74, 41
2, 61688, Note_on_c, 0, 45, 46
2, 61728, Control_c, 0, 64, 0
2, 61888, Control_c, 0, 64, 127
2, 61896, Note_on_c, 0, 45, 0
2, 62128, Note_on_c, 0, 56, 33
2, 62568, Note_on_c, 0, 68, 26
2, 62592, Note_on_c, 0, 56, 0
2, 62592, Note_on_c, 0, 59, 30
2, 62592, Note_on_c, 0, 64, 24
2, 62600, Note_on_c, 0, 74, 0
2, 63000, Note_on_c, 0, 68, 0
2, 63048, Note_on_c, 0, 59, 0
2, 63072, Note_on_c, 0, 72, 39
2, 63088, Note_on_c, 0, 57, 34
2, 63152, Control_c, 0, 64, 0
2, 63272, Control_c, 0, 64, 127
2, 63424, Note_on_c, 0, 64, 0
2, 63528, Note_on_c, 0, 64, 24
2, 63552, Note_on_c, 0, 67, 36
2, 63968, Note_on_c, 0, 57, 0
2, 64008, Note_on_c, 0, 55, 38
2, 64032, Note_on_c, 0, 67, 0
2, 64040, Note_on_c, 0, 64, 0
2, 64128, Note_on_c, 0, 72, 0
2, 64440, Control_c, 0, 64, 0
2, 64448, Note_on_c, 0, 55, 0
2, 64448, Note_on_c, 0, 62, 39
2, 64456, Note_on_c, 0, 64, 44
2, 64472, Note_on_c, 0, 53, 35
2, 64536, Control_c, 0, 64, 127
2, 64608, Note_on_c, 0, 62, 0
2, 64624, Note_on_c, 0, 64, 0
2, 64880, Note_on_c, 0, 83, 77
2, 65256, Note_on_c, 0, 83, 0
2, 65288, Note_on_c, 0, 76, 54
2, 65296, Note_on_c, 0, 71, 46
2, 65304, Note_on_c, 0, 60, 44
2, 65608, Note_on_c, 0, 71, 0
2, 65720, Note_on_c, 0, 76, 0
2, 65808, Note_on_c, 0, 65, 41
2, 66024, Note_on_c, 0, 65, 0
2, 66264, Note_on_c, 0, 81, 54
2, 66272, Note_on_c, 0, 72, 52
2, 66280, Note_on_c, 0, 60, 0
2, 66288, Note_on_c, 0, 64, 32
2, 66448, Note_on_c, 0, 81, 0
2, 66544, Note_on_c, 0, 72, 0
2, 66688, Note_on_c, 0, 79, 44
2, 66696, Note_on_c, 0, 71, 50
2, 66704, Note_on_c, 0, 64, 0
2, 66800, Note_on_c, 0, 79, 0
2, 66824, Note_on_c, 0, 71, 0
2, 66848, Note_on_c, 0, 53, 0
2, 66920, Note_on_c, 0, 77, 40
2, 66936, Note_on_c, 0, 69, 24
2, 66960, Note_on_c, 0, 71, 24
2, 67008, Note_on_c, 0, 71, 0
2, 67032, Note_on_c, 0, 69, 0
2, 67040, Note_on_c, 0, 77, 0
2, 67184, Note_on_c, 0, 79, 51
2, 67200, Note_on_c, 0, 52, 44
2, 67248, Control_c, 0, 64, 0
2, 67456, Control_c, 0, 64, 127
2, 67608, Note_on_c, 0, 67, 50
2, 67632, Note_on_c, 0, 60, 36
2, 67832, Note_on_c, 0, 79, 0
2, 67872, Note_on_c, 0, 67, 0
2, 68032, Note_on_c, 0, 71, 51
2, 68056, Note_on_c, 0, 67, 34
2, 68064, Note_on_c, 0, 64, 36
2, 68384, Note_on_c, 0, 67, 0
2, 68432, Note_on_c, 0, 64, 0
2, 68480, Note_on_c, 0, 71, 0
2, 68496, Note_on_c, 0, 67, 58
2, 68504, Note_on_c, 0, 64, 29
2, 68728, Note_on_c, 0, 69, 73
2, 68792, Note_on_c, 0, 60, 0
2, 68800, Note_on_c, 0, 64, 0
2, 68800, Note_on_c, 0, 67, 0
2, 68992, Note_on_c, 0, 71, 80
2, 69032, Note_on_c, 0, 60, 34
2, 69040, Note_on_c, 0, 69, 0
2, 69040, Note_on_c, 0, 64, 19
2, 69168, Note_on_c, 0, 71, 0
2, 69200, Note_on_c, 0, 72, 64
2, 69272, Note_on_c, 0, 52, 0
2, 69344, Note_on_c, 0, 74, 55
2, 69368, Note_on_c, 0, 64, 0
2, 69368, Note_on_c, 0, 72, 0
2, 69456, Note_on_c, 0, 60, 0
2, 69480, Note_on_c, 0, 74, 0
2, 69496, Note_on_c, 0, 76, 55
2, 69536, Note_on_c, 0, 76, 0
2, 69584, Note_on_c, 0, 77, 62
2, 69704, Note_on_c, 0, 79, 46
2, 69752, Note_on_c, 0, 77, 0
2, 69800, Note_on_c, 0, 81, 62
2, 69848, Note_on_c, 0, 79, 0
2, 69928, Note_on_c, 0, 53, 58
2, 69936, Note_on_c, 0, 81, 0
2, 69936, Note_on_c, 0, 83, 74
2, 69960, Control_c, 0, 64, 0
2, 70136, Control_c, 0, 64, 127
2, 70352, Note_on_c, 0, 60, 36
2, 70792, Note_on_c, 0, 83, 0
2, 70792, Note_on_c, 0, 76, 40
2, 70800, Note_on_c, 0, 71, 35
2, 70832, Note_on_c, 0, 65, 24
2, 71072, Note_on_c, 0, 71, 0
2, 71128, Note_on_c, 0, 65, 0
2, 71200, Note_on_c, 0, 76, 0
2, 71208, Note_on_c, 0, 81, 60
2, 71240, Note_on_c, 0, 72, 58
2, 71416, Note_on_c, 0, 81, 0
2, 71480, Note_on_c, 0, 72, 0
2, 71640, Note_on_c, 0, 79, 56
2, 71648, Note_on_c, 0, 71, 58
2, 71656, Note_on_c, 0, 65, 32
2, 71816, Note_on_c, 0, 65, 0
2, 71848, Note_on_c, 0, 79, 0
2, 71848, Note_on_c, 0, 53, 0
2, 71904, Note_on_c, 0, 71, 0
2, 71960, Note_on_c, 0, 60, 0
2, 72064, Note_on_c, 0, 77, 46
2, 72080, Note_on_c, 0, 69, 44
2, 72080, Note_on_c, 0, 53, 24
2, 72264, Note_on_c, 0, 53, 0
2, 72264, Note_on_c, 0, 69, 0
2, 72280, Note_on_c, 0, 77, 0
2, 72552, Note_on_c, 0, 79, 46
2, 72560, Note_on_c, 0, 52, 36
2, 72568, Note_on_c, 0, 67, 33
2, 72640, Control_c, 0, 64, 0
2, 72840, Control_c, 0, 64, 127
2, 73072, Note_on_c, 0, 60, 19
2, 73168, Note_on_c, 0, 67, 0
2, 73496, Note_on_c, 0, 67, 41
2, 73512, Note_on_c, 0, 79, 0
2, 73536, Note_on_c, 0, 64, 30
2, 73824, Note_on_c, 0, 67, 0
2, 73976, Note_on_c, 0, 72, 77
2, 74416, Note_on_c, 0, 72, 0
2, 74456, Note_on_c, 0, 71, 49
2, 74648, Note_on_c, 0, 64, 0
2, 74648, Note_on_c, 0, 52, 0
2, 74664, Note_on_c, 0, 60, 0
2, 74920, Note_on_c, 0, 72, 38
2, 75400, Note_on_c, 0, 47, 36
2, 75456, Note_on_c, 0, 71, 0
2, 75464, Control_c, 0, 64, 0
2, 75488, Control_c, 0, 64, 127
2, 75504, Note_on_c, 0, 47, 0
2, 75584, Note_on_c, 0, 72, 0
2, 75864, Note_on_c, 0, 76, 73
2, 76304, Note_on_c, 0, 76, 0
2, 76312, Note_on_c, 0, 74, 66
2, 76312, Note_on_c, 0, 62, 32
2, 76320, Note_on_c, 0, 65, 33
2, 76344, Note_on_c, 0, 57, 29
2, 76352, Control_c, 0, 64, 0
2, 76432, Control_c, 0, 64, 127
2, 76752, Note_on_c, 0, 76, 73
2, 76808, Note_on_c, 0, 65, 0
2, 76832, Note_on_c, 0, 62, 0
2, 76840, Note_on_c, 0, 74, 0
2, 77056, Note_on_c, 0, 76, 0
2, 77160, Note_on_c, 0, 65, 41
2, 77176, Note_on_c, 0, 62, 37
2, 77328, Note_on_c, 0, 65, 0
2, 77384, Note_on_c, 0, 62, 0
2, 77432, Note_on_c, 0, 57, 0
2, 77632, Note_on_c, 0, 83, 85
2, 77904, Control_c, 0, 64, 0
2, 78032, Note_on_c, 0, 34, 54
2, 78040, Note_on_c, 0, 83, 0
2, 78064, Note_on_c, 0, 82, 72
2, 78240, Control_c, 0, 64, 127
2, 78512, Note_on_c, 0, 82, 0
2, 78512, Note_on_c, 0, 83, 64
2, 78912, Note_on_c, 0, 67, 34
2, 78928, Note_on_c, 0, 56, 26
2, 78936, Note_on_c, 0, 62, 32
2, 79432, Note_on_c, 0, 80, 52
2, 79472, Note_on_c, 0, 83, 0
2, 79680, Note_on_c, 0, 67, 0
2, 79944, Note_on_c, 0, 79, 34
2, 79960, Note_on_c, 0, 67, 18
2, 79984, Note_on_c, 0, 80, 0
2, 80152, Note_on_c, 0, 67, 0
2, 80200, Note_on_c, 0, 62, 0
2, 80320, Note_on_c, 0, 56, 0
2, 80432, Note_on_c, 0, 86, 39
2, 80848, Note_on_c, 0, 86, 0
2, 80856, Note_on_c, 0, 79, 0
2, 80856, Note_on_c, 0, 52, 34
2, 80856, Note_on_c, 0, 45, 30
2, 80880, Note_on_c, 0, 84, 44
2, 80880, Control_c, 0, 64, 0
2, 80912, Note_on_c, 0, 34, 0
2, 80992, Control_c, 0, 64, 127
2, 81024, Note_on_c, 0, 45, 0
2, 81064, Note_on_c, 0, 52, 0
2, 81320, Note_on_c, 0, 84, 0
2, 81384, Note_on_c, 0, 72, 22
2, 81712, Note_on_c, 0, 72, 0
2, 81848, Note_on_c, 0, 72, 36
2, 81864, Note_on_c, 0, 59, 32
2, 81880, Note_on_c, 0, 60, 28
2, 81904, Note_on_c, 0, 64, 13
2, 82272, Note_on_c, 0, 72, 0
2, 82320, Note_on_c, 0, 83, 70
2, 82424, Note_on_c, 0, 64, 0
2, 82440, Note_on_c, 0, 60, 0
2, 82448, Note_on_c, 0, 59, 0
2, 82528, Note_on_c, 0, 83, 0
2, 82760, Note_on_c, 0, 83, 62
2, 82808, Note_on_c, 0, 60, 32
2, 82816, Note_on_c, 0, 64, 24
2, 82824, Note_on_c, 0, 59, 24
2, 82848, Note_on_c, 0, 74, 27
2, 82928, Note_on_c, 0, 64, 0
2, 82944, Note_on_c, 0, 60, 0
2, 83016, Note_on_c, 0, 83, 0
2, 83032, Note_on_c, 0, 59, 0
2, 83160, Note_on_c, 0, 74, 0
2, 83256, Note_on_c, 0, 81, 60
2, 83704, Note_on_c, 0, 81, 0
2, 83752, Note_on_c, 0, 76, 48
2, 83760, Note_on_c, 0, 43, 36
2, 83776, Note_on_c, 0, 67, 35
2, 83792, Note_on_c, 0, 52, 20
2, 83808, Control_c, 0, 64, 0
2, 83984, Control_c, 0, 64, 127
2, 84008, Note_on_c, 0, 43, 0
2, 84080, Note_on_c, 0, 52, 0
2, 84216, Note_on_c, 0, 67, 0
2, 84376, Note_on_c, 0, 60, 33
2, 84840, Note_on_c, 0, 67, 37
2, 84856, Note_on_c, 0, 64, 32
2, 84864, Note_on_c, 0, 72, 30
2, 85176, Note_on_c, 0, 76, 0
2, 85184, Note_on_c, 0, 72, 0
2, 85216, Note_on_c, 0, 60, 0
2, 85216, Note_on_c, 0, 64, 0
2, 85248, Note_on_c, 0, 67, 0
2, 85808, Note_on_c, 0, 67, 89
2, 86160, Note_on_c, 0, 67, 0
2, 86272, Note_on_c, 0, 67, 62
2, 86392, Note_on_c, 0, 67, 0
2, 86776, Note_on_c, 0, 72, 67
2, 86792, Note_on_c, 0, 42, 37
2, 86808, Note_on_c, 0, 64, 61
2, 86824, Control_c, 0, 64, 0
2, 87040, Control_c, 0, 64, 127
2, 87208, Note_on_c, 0, 42, 0
2, 87208, Note_on_c, 0, 52, 46
2, 87272, Note_on_c, 0, 52, 0
2, 87568, Note_on_c, 0, 64, 0
2, 87616, Note_on_c, 0, 60, 71
2, 87664, Note_on_c, 0, 72, 0
2, 88032, Note_on_c, 0, 69, 78
2, 88040, Note_on_c, 0, 64, 45
2, 88256, Note_on_c, 0, 60, 0
2, 88392, Note_on_c, 0, 69, 0
2, 88400, Note_on_c, 0, 64, 0
2, 88440, Note_on_c, 0, 72, 57
2, 88456, Note_on_c, 0, 60, 46
2, 88512, Note_on_c, 0, 60, 0
2, 88544, Note_on_c, 0, 72, 0
2, 88896, Note_on_c, 0, 79, 54
2, 89008, Note_on_c, 0, 79, 0
2, 89288, Note_on_c, 0, 41, 45
2, 89352, Note_on_c, 0, 48, 42
2, 89392, Note_on_c, 0, 86, 64
2, 89408, Note_on_c, 0, 83, 50
2, 89432, Note_on_c, 0, 75, 57
2, 89432, Note_on_c, 0, 57, 47
2, 89432, Note_on_c, 0, 79, 46
2, 89464, Control_c, 0, 64, 0
2, 89664, Control_c, 0, 64, 127
2, 89712, Note_on_c, 0, 41, 0
2, 89768, Note_on_c, 0, 48, 0
2, 89840, Note_on_c, 0, 86, 0
2, 89848, Note_on_c, 0, 57, 0
2, 89984, Note_on_c, 0, 86, 75
2, 90024, Note_on_c, 0, 75, 0
2, 90088, Note_on_c, 0, 79, 0
2, 90112, Note_on_c, 0, 83, 0
2, 90128, Note_on_c, 0, 86, 0
2, 90504, Note_on_c, 0, 62, 31
2, 90504, Note_on_c, 0, 86, 58
2, 90520, Note_on_c, 0, 75, 32
2, 90528, Note_on_c, 0, 63, 33
2, 90536, Note_on_c, 0, 57, 31
2, 90544, Note_on_c, 0, 83, 29
2, 90544, Note_on_c, 0, 67, 29
2, 90552, Note_on_c, 0, 79, 22
2, 91096, Note_on_c, 0, 67, 0
2, 91096, Note_on_c, 0, 62, 0
2, 91136, Note_on_c, 0, 79, 0
2, 91136, Note_on_c, 0, 63, 0
2, 91192, Note_on_c, 0, 75, 0
2, 91296, Note_on_c, 0, 86, 0
2, 91416, Note_on_c, 0, 83, 0
2, 91536, Note_on_c, 0, 62, 1
2, 91632, Note_on_c, 0, 79, 31
2, 91656, Note_on_c, 0, 75, 21
2, 91656, Note_on_c, 0, 67, 22
2, 92000, Note_on_c, 0, 75, 0
2, 92064, Note_on_c, 0, 67, 0
2, 92128, Note_on_c, 0, 62, 0
2, 92296, Note_on_c, 0, 57, 0
2, 92328, Note_on_c, 0, 84, 34
2, 92416, Note_on_c, 0, 79, 0
2, 92488, Note_on_c, 0, 84, 0
2, 93032, Note_on_c, 0, 79, 30
2, 93040, Note_on_c, 0, 74, 38
2, 93040, Note_on_c, 0, 67, 25
2, 93048, Note_on_c, 0, 62, 30
2, 93064, Note_on_c, 0, 52, 33
2, 93120, Control_c, 0, 64, 0
2, 93312, Control_c, 0, 64, 127
2, 93584, Note_on_c, 0, 59, 35
2, 93592, Note_on_c, 0, 62, 0
2, 93616, Note_on_c, 0, 74, 0
2, 93632, Note_on_c, 0, 79, 0
2, 93816, Note_on_c, 0, 67, 0
2, 94088, Note_on_c, 0, 67, 45
2, 94104, Note_on_c, 0, 62, 24
2, 94360, Note_on_c, 0, 67, 0
2, 94360, Note_on_c, 0, 69, 58
2, 94520, Note_on_c, 0, 69, 0
2, 94560, Note_on_c, 0, 69, 68
2, 94752, Note_on_c, 0, 69, 0
2, 94752, Note_on_c, 0, 71, 73
2, 94896, Note_on_c, 0, 71, 0
2, 94904, Note_on_c, 0, 62, 0
2, 94912, Note_on_c, 0, 59, 0
2, 94928, Note_on_c, 0, 71, 60
2, 95000, Note_on_c, 0, 52, 0
2, 95064, Note_on_c, 0, 72, 70
2, 95072, Note_on_c, 0, 71, 0
2, 95168, Note_on_c, 0, 72, 0
2, 95216, Note_on_c, 0, 72, 62
2, 95328, Note_on_c, 0, 72, 0
2, 95344, Note_on_c, 0, 74, 45
2, 95424, Note_on_c, 0, 74, 0
2, 95488, Note_on_c, 0, 74, 64
2, 95592, Note_on_c, 0, 74, 0
2, 95616, Note_on_c, 0, 76, 58
2, 95712, Note_on_c, 0, 76, 0
2, 95784, Note_on_c, 0, 76, 52
2, 95904, Note_on_c, 0, 76, 0
2, 95904, Note_on_c, 0, 77, 51
2, 96072, Note_on_c, 0, 79, 58
2, 96088, Note_on_c, 0, 77, 0
2, 96208, Note_on_c, 0, 79, 0
2, 96296, Note_on_c, 0, 81, 65
2, 96424, Note_on_c, 0, 81, 0
2, 96608, Note_on_c, 0, 81, 27
2, 96792, Note_on_c, 0, 81, 0
2, 96880, Note_on_c, 0, 81, 35
2, 96936, Note_on_c, 0, 81, 0
2, 96968, Note_on_c, 0, 83, 48
2, 97064, Note_on_c, 0, 83, 0
2, 97272, Note_on_c, 0, 83, 44
2, 97496, Note_on_c, 0, 83, 0
2, 97560, Note_on_c, 0, 84, 37
2, 97800, Note_on_c, 0, 84, 0
2, 97864, Note_on_c, 0, 83, 41
2, 97864, Note_on_c, 0, 41, 28
2, 97944, Control_c, 0, 64, 0
2, 98128, Control_c, 0, 64, 127
2, 98248, Note_on_c, 0, 48, 33
2, 98360, Note_on_c, 0, 41, 0
2, 98480, Note_on_c, 0, 48, 0
2, 98608, Note_on_c, 0, 71, 34
2, 98632, Note_on_c, 0, 57, 29
2, 98640, Note_on_c, 0, 76, 32
2, 98696, Note_on_c, 0, 57, 0
2, 98904, Note_on_c, 0, 83, 0
2, 98968, Note_on_c, 0, 76, 0
2, 99024, Note_on_c, 0, 71, 0
2, 99024, Note_on_c, 0, 60, 32
2, 99424, Note_on_c, 0, 81, 47
2, 99456, Note_on_c, 0, 60, 0
2, 99456, Note_on_c, 0, 76, 52
2, 99456, Note_on_c, 0, 79, 35
2, 99464, Note_on_c, 0, 74, 41
2, 99464, Note_on_c, 0, 69, 40
2, 99488, Note_on_c, 0, 64, 31
2, 100096, Note_on_c, 0, 69, 0
2, 100152, Note_on_c, 0, 74, 0
2, 100184, Note_on_c, 0, 76, 0
2, 100208, Note_on_c, 0, 79, 0
2, 100216, Note_on_c, 0, 81, 0
2, 100288, Note_on_c, 0, 64, 0
2, 100624, Note_on_c, 0, 83, 74
2, 100640, Note_on_c, 0, 79, 68
2, 100648, Note_on_c, 0, 76, 66
2, 100656, Note_on_c, 0, 67, 57
2, 100664, Note_on_c, 0, 72, 64
2, 100952, Note_on_c, 0, 83, 0
2, 100976, Note_on_c, 0, 72, 0
2, 101000, Note_on_c, 0, 79, 0
2, 101008, Note_on_c, 0, 76, 0
2, 101064, Note_on_c, 0, 67, 0
2, 101104, Note_on_c, 0, 81, 58
2, 101112, Note_on_c, 0, 76, 50
2, 101112, Note_on_c, 0, 71, 54
2, 101128, Note_on_c, 0, 65, 47
2, 101344, Note_on_c, 0, 81, 0
2, 101400, Note_on_c, 0, 76, 0
2, 101432, Note_on_c, 0, 71, 0
2, 101512, Note_on_c, 0, 65, 0
2, 101560, Note_on_c, 0, 79, 38
2, 101576, Note_on_c, 0, 74, 55
2, 101584, Note_on_c, 0, 69, 44
2, 101600, Note_on_c, 0, 64, 33
2, 101616, Control_c, 0, 64, 0
2, 101728, Control_c, 0, 64, 127
2, 101832, Note_on_c, 0, 79, 0
2, 101856, Note_on_c, 0, 74, 0
2, 101872, Note_on_c, 0, 69, 0
2, 102008, Note_on_c, 0, 64, 0
2, 102008, Note_on_c, 0, 77, 50
2, 102024, Note_on_c, 0, 62, 38
2, 102032, Note_on_c, 0, 72, 44
2, 102040, Note_on_c, 0, 67, 38
2, 102104, Note_on_c, 0, 62, 0
2, 102160, Note_on_c, 0, 67, 0
2, 102192, Note_on_c, 0, 72, 0
2, 102208, Note_on_c, 0, 77, 0
2, 102528, Note_on_c, 0, 79, 47
2, 102544, Note_on_c, 0, 72, 42
2, 102544, Note_on_c, 0, 67, 41
2, 102584, Note_on_c, 0, 52, 31
2, 102584, Control_c, 0, 64, 0
2, 102608, Note_on_c, 0, 60, 15
2, 102760, Control_c, 0, 64, 127
2, 102856, Note_on_c, 0, 60, 0
2, 102984, Note_on_c, 0, 60, 38
2, 103104, Note_on_c, 0, 67, 0
2, 103112, Note_on_c, 0, 79, 0
2, 103328, Note_on_c, 0, 72, 0
2, 103368, Note_on_c, 0, 64, 31
2, 103368, Note_on_c, 0, 67, 49
2, 103544, Note_on_c, 0, 67, 0
2, 103704, Note_on_c, 0, 72, 82
2, 103928, Note_on_c, 0, 72, 0
2, 104040, Note_on_c, 0, 74, 84
2, 104184, Note_on_c, 0, 52, 0
2, 104320, Note_on_c, 0, 74, 0
2, 104368, Note_on_c, 0, 76, 51
2, 104616, Note_on_c, 0, 76, 0
2, 104664, Note_on_c, 0, 64, 0
2, 104680, Note_on_c, 0, 60, 0
2, 104680, Note_on_c, 0, 72, 39
2, 104720, Note_on_c, 0, 53, 18
2, 104768, Control_c, 0, 64, 0
2, 104952, Control_c, 0, 64, 127
2, 105032, Note_on_c, 0, 60, 28
2, 105392, Note_on_c, 0, 64, 43
2, 105432, Note_on_c, 0, 60, 0
2, 105504, Note_on_c, 0, 64, 0
2, 105656, Note_on_c, 0, 72, 0
2, 105768, Note_on_c, 0, 60, 32
2, 106136, Note_on_c, 0, 83, 52
2, 106168, Note_on_c, 0, 65, 35
2, 106176, Note_on_c, 0, 74, 60
2, 106328, Note_on_c, 0, 83, 0
2, 106360, Note_on_c, 0, 74, 0
2, 106464, Note_on_c, 0, 81, 56
2, 106480, Note_on_c, 0, 72, 43
2, 106592, Note_on_c, 0, 72, 0
2, 106592, Note_on_c, 0, 65, 0
2, 106600, Note_on_c, 0, 81, 0
2, 106704, Note_on_c, 0, 71, 52
2, 106720, Note_on_c, 0, 79, 27
2, 106752, Note_on_c, 0, 60, 0
2, 106800, Note_on_c, 0, 79, 0
2, 106808, Note_on_c, 0, 71, 0
2, 106904, Note_on_c, 0, 77, 26
2, 106920, Note_on_c, 0, 69, 38
2, 106984, Note_on_c, 0, 69, 0
2, 107000, Note_on_c, 0, 77, 0
2, 107000, Note_on_c, 0, 53, 0
2, 107128, Note_on_c, 0, 79, 56
2, 107128, Note_on_c, 0, 52, 51
2, 107184, Control_c, 0, 64, 0
2, 107384, Control_c, 0, 64, 127
2, 107528, Note_on_c, 0, 60, 35
2, 107536, Note_on_c, 0, 67, 48
2, 107536, Note_on_c, 0, 72, 36
2, 107744, Note_on_c, 0, 72, 0
2, 107776, Note_on_c, 0, 67, 0
2, 107984, Note_on_c, 0, 67, 43
2, 108000, Note_on_c, 0, 64, 33
2, 108008, Note_on_c, 0, 72, 30
2, 108240, Note_on_c, 0, 79, 0
2, 108288, Note_on_c, 0, 67, 0
2, 108352, Note_on_c, 0, 72, 0
2, 108440, Note_on_c, 0, 67, 34
2, 108456, Note_on_c, 0, 72, 37
2, 108552, Note_on_c, 0, 60, 0
2, 108600, Note_on_c, 0, 64, 0
2, 108624, Note_on_c, 0, 72, 0
2, 108672, Note_on_c, 0, 67, 0
2, 108896, Note_on_c, 0, 67, 42
2, 108928, Note_on_c, 0, 72, 24
2, 108952, Note_on_c, 0, 64, 14
2, 109056, Note_on_c, 0, 64, 0
2, 109184, Note_on_c, 0, 52, 0
2, 109552, Note_on_c, 0, 33, 40
2, 109600, Note_on_c, 0, 67, 0
2, 109656, Note_on_c, 0, 72, 0
2, 109712, Note_on_c, 0, 33, 0
2, 111544, Note_on_c, 0, 57, 29
2, 111608, Note_on_c, 0, 61, 30
2, 111632, Note_on_c, 0, 72, 37
2, 111680, Note_on_c, 0, 77, 47
2, 111704, Note_on_c, 0, 67, 35
2, 111752, Note_on_c, 0, 81, 53
2, 111824, Note_on_c, 0, 84, 44
2, 112640, Note_on_c, 0, 84, 0
2, 112840, Note_on_c, 0, 84, 31
2, 113088, Note_on_c, 0, 67, 0
2, 113208, Note_on_c, 0, 84, 0
2, 113328, Note_on_c, 0, 61, 0
2, 113344, Note_on_c, 0, 81, 0
2, 113384, Note_on_c, 0, 77, 0
2, 113392, Note_on_c, 0, 57, 0
2, 113408, Note_on_c, 0, 72, 0
2, 114032, Note_on_c, 0, 77, 56
2, 114040, Note_on_c, 0, 74, 54
2, 114048, Note_on_c, 0, 65, 50
2, 114048, Note_on_c, 0, 70, 51
2, 114048, Note_on_c, 0, 54, 35
2, 114072, Note_on_c, 0, 60, 33
2, 114072, Note_on_c, 0, 50, 30
2, 114096, Control_c, 0, 64, 0
2, 114296, Control_c, 0, 64, 127
2, 114544, Note_on_c, 0, 77, 0
2, 114568, Note_on_c, 0, 60, 0
2, 114576, Note_on_c, 0, 74, 0
2, 114728, Note_on_c, 0, 65, 0
2, 114840, Note_on_c, 0, 54, 0
2, 114848, Note_on_c, 0, 70, 0
2, 115072, Note_on_c, 0, 74, 58
2, 115088, Note_on_c, 0, 65, 40
2, 115088, Note_on_c, 0, 57, 40
2, 115104, Note_on_c, 0, 69, 52
2, 115136, Control_c, 0, 64, 0
2, 115272, Control_c, 0, 64, 127
2, 115576, Note_on_c, 0, 50, 0
2, 115584, Note_on_c, 0, 74, 0
2, 115584, Note_on_c, 0, 69, 0
2, 115640, Note_on_c, 0, 65, 0
2, 116184, Note_on_c, 0, 69, 47
2, 116184, Note_on_c, 0, 65, 38
2, 116192, Note_on_c, 0, 60, 34
2, 116208, Note_on_c, 0, 50, 34
2, 116216, Note_on_c, 0, 57, 0
2, 116600, Note_on_c, 0, 50, 0
2, 116624, Note_on_c, 0, 69, 0
2, 116664, Note_on_c, 0, 65, 0
2, 116768, Note_on_c, 0, 60, 0
2, 117560, Note_on_c, 0, 43, 35
2, 117560, Note_on_c, 0, 62, 36
2, 117568, Note_on_c, 0, 53, 24
2, 117568, Note_on_c, 0, 50, 33
2, 117576, Note_on_c, 0, 56, 26
2, 117576, Note_on_c, 0, 59, 36
2, 117664, Control_c, 0, 64, 0
2, 117896, Control_c, 0, 64, 127
2, 118160, Note_on_c, 0, 50, 0
2, 118232, Note_on_c, 0, 43, 0
2, 119128, Note_on_c, 0, 31, 49
2, 119256, Note_on_c, 0, 31, 0
2, 119968, Note_on_c, 0, 53, 0
2, 120208, Note_on_c, 0, 56, 0
2, 120240, Note_on_c, 0, 59, 0
2, 120328, Note_on_c, 0, 62, 0
2, 121136, Note_on_c, 0, 64, 33
2, 121160, Note_on_c, 0, 56, 31
2, 121160, Note_on_c, 0, 59, 42
2, 121176, Note_on_c, 0, 43, 33
2, 121216, Note_on_c, 0, 53, 17
2, 121296, Control_c, 0, 64, 0
2, 121600, Control_c, 0, 64, 127
2, 123352, Note_on_c, 0, 64, 0
2, 123368, Note_on_c, 0, 56, 0
2, 123368, Note_on_c, 0, 59, 0
2, 123384, Note_on_c, 0, 53, 0
2, 123392, Note_on_c, 0, 43, 0
2, 123408, Control_c, 0, 64, 0
2, 123840, Note_on_c, 0, 59, 36
2, 123840, Note_on_c, 0, 62, 39
2, 123840, Note_on_c, 0, 48, 36
2, 123840, Note_on_c, 0, 67, 45
2, 123840, Note_on_c, 0, 57, 36
2, 123840, Control_c, 0, 64, 0
2, 123840, Control_c, 0, 64, 127
2, 124176, Control_c, 0, 64, 127
2, 124544, Note_on_c, 0, 57, 0
2, 124544, Note_on_c, 0, 59, 0
2, 124576, Note_on_c, 0, 62, 0
2, 125152, Note_on_c, 0, 48, 0
2, 125408, Note_on_c, 0, 67, 0
2, 126392, Note_on_c, 0, 67, 43
2, 126480, Note_on_c, 0, 67, 0
2, 126600, Note_on_c, 0, 76, 77
2, 126760, Note_on_c, 0, 76, 0
2, 126816, Note_on_c, 0, 74, 62
2, 126816, Note_on_c, 0, 60, 35
2, 126824, Note_on_c, 0, 64, 16
2, 126832, Control_c, 0, 64, 0
2, 126832, Note_on_c, 0, 59, 25
2, 127008, Control_c, 0, 64, 127
2, 127104, Note_on_c, 0, 74, 0
2, 127128, Note_on_c, 0, 72, 35
2, 127272, Note_on_c, 0, 60, 0
2, 127272, Note_on_c, 0, 64, 0
2, 127296, Note_on_c, 0, 59, 0
2, 127456, Note_on_c, 0, 72, 0
2, 128608, Note_on_c, 0, 71, 32
2, 128616, Note_on_c, 0, 64, 35
2, 128616, Note_on_c, 0, 59, 32
2, 128624, Note_on_c, 0, 45, 24
2, 128624, Note_on_c, 0, 52, 30
2, 128624, Note_on_c, 0, 57, 32
2, 128648, Control_c, 0, 64, 0
2, 128648, Note_on_c, 0, 55, 24
2, 128792, Control_c, 0, 64, 127
2, 128952, Note_on_c, 0, 55, 0
2, 128968, Note_on_c, 0, 52, 0
2, 129024, Note_on_c, 0, 71, 0
2, 129032, Note_on_c, 0, 64, 0
2, 129048, Note_on_c, 0, 45, 0
2, 129136, Note_on_c, 0, 59, 0
2, 129144, Note_on_c, 0, 57, 0
2, 129592, Note_on_c, 0, 41, 33
2, 129600, Note_on_c, 0, 52, 29
2, 129600, Note_on_c, 0, 64, 24
2, 129608, Note_on_c, 0, 57, 24
2, 129608, Note_on_c, 0, 48, 31
2, 129624, Control_c, 0, 64, 0
2, 129640, Note_on_c, 0, 60, 28
2, 129792, Control_c, 0, 64, 127
2, 129880, Note_on_c, 0, 60, 0
2, 129880, Note_on_c, 0, 52, 0
2, 129896, Note_on_c, 0, 57, 0
2, 130000, Note_on_c, 0, 41, 0
2, 130000, Note_on_c, 0, 48, 0
2, 130016, Note_on_c, 0, 64, 0
2, 130552, Note_on_c, 0, 83, 81
2, 130568, Note_on_c, 0, 77, 79
2, 130576, Note_on_c, 0, 72, 69
2, 130576, Note_on_c, 0, 67, 68
2, 130896, Note_on_c, 0, 83, 0
2, 130944, Note_on_c, 0, 77, 0
2, 130952, Note_on_c, 0, 67, 0
2, 130960, Note_on_c, 0, 72, 0
2, 131056, Note_on_c, 0, 81, 62
2, 131080, Note_on_c, 0, 71, 50
2, 131080, Note_on_c, 0, 76, 52
2, 131088, Note_on_c, 0, 65, 43
2, 131096, Control_c, 0, 64, 0
2, 131176, Control_c, 0, 64, 127
2, 131368, Note_on_c, 0, 81, 0
2, 131400, Note_on_c, 0, 65, 0
2, 131416, Note_on_c, 0, 76, 0
2, 131432, Note_on_c, 0, 71, 0
2, 131528, Note_on_c, 0, 79, 55
2, 131552, Note_on_c, 0, 69, 31
2, 131552, Note_on_c, 0, 64, 33
2, 131560, Note_on_c, 0, 74, 38
2, 131608, Control_c, 0, 64, 0
2, 131640, Control_c, 0, 64, 127
2, 131832, Note_on_c, 0, 79, 0
2, 131872, Note_on_c, 0, 74, 0
2, 131880, Note_on_c, 0, 64, 0
2, 131896, Note_on_c, 0, 69, 0
2, 132208, Note_on_c, 0, 77, 45
2, 132232, Note_on_c, 0, 67, 33
2, 132248, Note_on_c, 0, 72, 24
2, 132296, Note_on_c, 0, 67, 0
2, 132312, Note_on_c, 0, 77, 0
2, 132328, Note_on_c, 0, 72, 0
2, 132472, Note_on_c, 0, 79, 43
2, 132480, Note_on_c, 0, 52, 35
2, 132496, Control_c, 0, 64, 0
2, 132496, Note_on_c, 0, 72, 40
2, 132616, Control_c, 0, 64, 127
2, 132768, Note_on_c, 0, 79, 0
2, 132792, Note_on_c, 0, 60, 26
2, 132800, Note_on_c, 0, 72, 0
2, 132952, Note_on_c, 0, 64, 37
2, 133088, Note_on_c, 0, 67, 34
2, 133200, Note_on_c, 0, 67, 0
2, 133224, Note_on_c, 0, 72, 59
2, 133296, Note_on_c, 0, 72, 0
2, 133336, Note_on_c, 0, 79, 50
2, 133400, Note_on_c, 0, 79, 0
2, 133488, Note_on_c, 0, 84, 66
2, 133552, Note_on_c, 0, 84, 0
2, 133624, Note_on_c, 0, 91, 83
2, 133752, Note_on_c, 0, 91, 0
2, 133792, Note_on_c, 0, 89, 76
2, 133808, Note_on_c, 0, 91, 36
2, 133848, Note_on_c, 0, 91, 0
2, 133984, Note_on_c, 0, 79, 54
2, 134056, Note_on_c, 0, 89, 0
2, 134384, Note_on_c, 0, 81, 59
2, 134504, Note_on_c, 0, 79, 0
2, 134560, Note_on_c, 0, 88, 70
2, 134576, Note_on_c, 0, 52, 0
2, 134624, Note_on_c, 0, 81, 0
2, 134720, Note_on_c, 0, 64, 0
2, 134720, Note_on_c, 0, 86, 69
2, 134832, Note_on_c, 0, 60, 0
2, 134832, Note_on_c, 0, 88, 0
2, 134856, Note_on_c, 0, 86, 0
2, 134880, Note_on_c, 0, 76, 47
2, 135040, Note_on_c, 0, 76, 0
2, 135080, Note_on_c, 0, 74, 38
2, 135208, Note_on_c, 0, 74, 0
2, 135248, Note_on_c, 0, 81, 60
2, 135296, Note_on_c, 0, 53, 25
2, 135320, Note_on_c, 0, 60, 28
2, 135320, Note_on_c, 0, 64, 20
2, 135376, Control_c, 0, 64, 0
2, 135488, Note_on_c, 0, 69, 6
2, 135544, Control_c, 0, 64, 127
2, 135608, Note_on_c, 0, 81, 0
2, 135648, Note_on_c, 0, 69, 0
2, 135656, Note_on_c, 0, 76, 40
2, 135832, Note_on_c, 0, 64, 0
2, 135840, Note_on_c, 0, 76, 0
2, 135848, Note_on_c, 0, 69, 24
2, 136040, Note_on_c, 0, 67, 52
2, 136048, Note_on_c, 0, 69, 0
2, 136112, Note_on_c, 0, 60, 0
2, 136224, Note_on_c, 0, 67, 0
2, 136272, Note_on_c, 0, 64, 30
2, 136296, Note_on_c, 0, 60, 22
2, 136320, Control_c, 0, 64, 0
2, 136400, Control_c, 0, 64, 127
2, 136664, Note_on_c, 0, 53, 0
2, 136784, Note_on_c, 0, 60, 0
2, 136792, Note_on_c, 0, 53, 33
2, 136896, Note_on_c, 0, 64, 0
2, 136984, Note_on_c, 0, 53, 0
2, 137264, Note_on_c, 0, 71, 57
2, 137264, Note_on_c, 0, 55, 46
2, 137264, Note_on_c, 0, 60, 67
2, 137272, Note_on_c, 0, 65, 66
2, 137288, Control_c, 0, 64, 0
2, 137376, Control_c, 0, 64, 127
2, 137456, Note_on_c, 0, 71, 0
2, 137472, Note_on_c, 0, 65, 0
2, 137496, Note_on_c, 0, 60, 0
2, 137528, Control_c, 0, 64, 0
2, 137552, Note_on_c, 0, 55, 0
2, 137568, Note_on_c, 0, 69, 60
2, 137576, Note_on_c, 0, 64, 62
2, 137576, Note_on_c, 0, 53, 51
2, 137584, Note_on_c, 0, 59, 53
2, 137672, Control_c, 0, 64, 127
2, 137720, Note_on_c, 0, 69, 0
2, 137744, Control_c, 0, 64, 0
2, 137800, Note_on_c, 0, 64, 0
2, 137816, Note_on_c, 0, 59, 0
2, 137832, Note_on_c, 0, 53, 0
2, 137856, Control_c, 0, 64, 127
2, 137920, Note_on_c, 0, 67, 53
2, 137936, Note_on_c, 0, 57, 51
2, 137936, Control_c, 0, 64, 0
2, 137944, Note_on_c, 0, 62, 39
2, 137952, Note_on_c, 0, 52, 33
2, 138008, Note_on_c, 0, 57, 0
2, 138024, Note_on_c, 0, 67, 0
2, 138024, Note_on_c, 0, 62, 0
2, 138056, Control_c, 0, 64, 127
2, 138072, Note_on_c, 0, 52, 0
2, 138104, Note_on_c, 0, 50, 39
2, 138232, Control_c, 0, 64, 0
2, 138256, Note_on_c, 0, 50, 0
2, 138264, Note_on_c, 0, 57, 51
2, 138264, Note_on_c, 0, 67, 49
2, 138272, Note_on_c, 0, 62, 54
2, 138296, Note_on_c, 0, 52, 40
2, 138416, Control_c, 0, 64, 127
2, 138448, Note_on_c, 0, 52, 0
2, 138560, Note_on_c, 0, 62, 0
2, 138576, Note_on_c, 0, 57, 0
2, 138584, Note_on_c, 0, 40, 36
2, 138904, Note_on_c, 0, 40, 0
2, 138944, Note_on_c, 0, 67, 0
2, 139800, Note_on_c, 0, 48, 20
2, 140112, Note_on_c, 0, 56, 49
2, 140160, Note_on_c, 0, 64, 50
2, 140192, Note_on_c, 0, 68, 36
2, 140216, Note_on_c, 0, 71, 64
2, 140224, Note_on_c, 0, 59, 42
2, 140248, Note_on_c, 0, 76, 63
2, 140264, Control_c, 0, 64, 0
2, 140392, Control_c, 0, 64, 127
2, 140512, Note_on_c, 0, 64, 0
2, 140528, Note_on_c, 0, 76, 0
2, 140544, Note_on_c, 0, 59, 0
2, 140568, Note_on_c, 0, 71, 0
2, 140568, Note_on_c, 0, 48, 0
2, 140608, Note_on_c, 0, 68, 0
2, 140640, Note_on_c, 0, 56, 0
2, 140680, Note_on_c, 0, 60, 51
2, 140696, Note_on_c, 0, 72, 25
2, 140696, Note_on_c, 0, 48, 28
2, 140704, Control_c, 0, 64, 0
2, 140704, Note_on_c, 0, 57, 37
2, 140808, Control_c, 0, 64, 127
2, 140920, Note_on_c, 0, 60, 0
2, 140928, Note_on_c, 0, 57, 0
2, 140936, Note_on_c, 0, 48, 0
2, 140952, Note_on_c, 0, 72, 0
2, 141104, Note_on_c, 0, 74, 47
2, 141112, Note_on_c, 0, 62, 35
2, 141120, Control_c, 0, 64, 0
2, 141120, Note_on_c, 0, 47, 33
2, 141120, Note_on_c, 0, 69, 49
2, 141128, Note_on_c, 0, 57, 40
2, 141272, Control_c, 0, 64, 127
2, 141312, Note_on_c, 0, 47, 0
2, 141376, Note_on_c, 0, 62, 0
2, 141408, Note_on_c, 0, 57, 0
2, 141464, Note_on_c, 0, 69, 0
2, 141504, Note_on_c, 0, 74, 0
2, 142040, Note_on_c, 0, 65, 33
2, 142056, Note_on_c, 0, 62, 32
2, 142064, Note_on_c, 0, 57, 20
2, 142248, Note_on_c, 0, 74, 44
2, 142312, Note_on_c, 0, 74, 0
2, 142336, Note_on_c, 0, 76, 43
2, 142368, Note_on_c, 0, 76, 0
2, 142408, Note_on_c, 0, 76, 51
2, 142432, Control_c, 0, 64, 0
2, 142472, Note_on_c, 0, 76, 0
2, 142488, Note_on_c, 0, 77, 61
2, 142536, Note_on_c, 0, 77, 0
2, 142560, Note_on_c, 0, 77, 38
2, 142640, Note_on_c, 0, 77, 0
2, 142648, Note_on_c, 0, 79, 55
2, 142680, Note_on_c, 0, 79, 0
2, 142720, Note_on_c, 0, 79, 45
2, 142792, Note_on_c, 0, 79, 0
2, 142800, Note_on_c, 0, 81, 59
2, 142840, Note_on_c, 0, 81, 0
2, 142848, Note_on_c, 0, 65, 0
2, 142888, Note_on_c, 0, 81, 42
2, 142936, Note_on_c, 0, 62, 0
2, 142952, Note_on_c, 0, 81, 0
2, 142960, Note_on_c, 0, 83, 57
2, 142992, Note_on_c, 0, 83, 0
2, 143016, Note_on_c, 0, 62, 33
2, 143024, Note_on_c, 0, 65, 30
2, 143048, Note_on_c, 0, 83, 43
2, 143112, Note_on_c, 0, 83, 0
2, 143128, Note_on_c, 0, 84, 56
2, 143152, Note_on_c, 0, 84, 0
2, 143224, Note_on_c, 0, 84, 41
2, 143280, Note_on_c, 0, 84, 0
2, 143296, Note_on_c, 0, 86, 71
2, 143320, Note_on_c, 0, 86, 0
2, 143656, Note_on_c, 0, 65, 0
2, 143656, Note_on_c, 0, 57, 0
2, 143728, Control_c, 0, 64, 127
2, 143800, Note_on_c, 0, 62, 0
2, 143944, Control_c, 0, 64, 0
2, 143984, Note_on_c, 0, 65, 24
2, 143992, Note_on_c, 0, 56, 23
2, 144000, Note_on_c, 0, 62, 28
2, 144096, Control_c, 0, 64, 127
2, 144512, Note_on_c, 0, 65, 0
2, 144616, Note_on_c, 0, 67, 36
2, 144688, Note_on_c, 0, 68, 49
2, 144696, Note_on_c, 0, 67, 0
2, 144760, Note_on_c, 0, 68, 0
2, 144776, Note_on_c, 0, 56, 0
2, 144776, Note_on_c, 0, 70, 54
2, 144816, Note_on_c, 0, 70, 0
2, 144848, Note_on_c, 0, 71, 56
2, 144872, Control_c, 0, 64, 0
2, 144928, Note_on_c, 0, 71, 0
2, 144944, Note_on_c, 0, 73, 42
2, 145000, Note_on_c, 0, 73, 0
2, 145056, Note_on_c, 0, 74, 37
2, 145080, Note_on_c, 0, 62, 0
2, 145136, Note_on_c, 0, 74, 0
2, 145176, Note_on_c, 0, 76, 54
2, 145216, Note_on_c, 0, 76, 0
2, 145504, Control_c, 0, 64, 127
2, 145640, Note_on_c, 0, 56, 40
2, 145664, Control_c, 0, 64, 0
2, 145696, Note_on_c, 0, 56, 0
2, 145712, Note_on_c, 0, 59, 40
2, 145776, Note_on_c, 0, 59, 0
2, 145800, Note_on_c, 0, 62, 53
2, 145872, Note_on_c, 0, 62, 0
2, 146024, Note_on_c, 0, 64, 57
2, 146104, Note_on_c, 0, 64, 0
2, 146216, Note_on_c, 0, 68, 46
2, 146264, Note_on_c, 0, 68, 0
2, 146408, Note_on_c, 0, 71, 58
2, 146488, Note_on_c, 0, 71, 0
2, 146536, Note_on_c, 0, 74, 61
2, 146600, Note_on_c, 0, 74, 0
2, 146664, Note_on_c, 0, 77, 61
2, 146744, Note_on_c, 0, 77, 0
2, 146784, Note_on_c, 0, 79, 53
2, 146808, Control_c, 0, 64, 127
2, 146872, Note_on_c, 0, 79, 0
2, 146872, Note_on_c, 0, 45, 49
2, 146880, Control_c, 0, 64, 0
2, 146936, Note_on_c, 0, 77, 55
2, 147008, Note_on_c, 0, 77, 0
2, 147048, Control_c, 0, 64, 127
2, 147096, Note_on_c, 0, 76, 60
2, 147136, Note_on_c, 0, 52, 31
2, 147232, Note_on_c, 0, 76, 0
2, 147280, Note_on_c, 0, 74, 57
2, 147288, Note_on_c, 0, 45, 0
2, 147304, Note_on_c, 0, 52, 0
2, 147336, Note_on_c, 0, 57, 27
2, 147408, Note_on_c, 0, 74, 0
2, 147416, Note_on_c, 0, 57, 0
2, 147432, Note_on_c, 0, 72, 42
2, 147512, Note_on_c, 0, 72, 0
2, 147552, Note_on_c, 0, 71, 51
2, 147632, Note_on_c, 0, 71, 0
2, 147656, Note_on_c, 0, 74, 51
2, 147760, Note_on_c, 0, 74, 0
2, 147760, Note_on_c, 0, 71, 48
2, 147840, Note_on_c, 0, 71, 0
2, 147872, Note_on_c, 0, 59, 29
2, 147880, Note_on_c, 0, 72, 50
2, 147880, Note_on_c, 0, 60, 31
2, 147888, Note_on_c, 0, 64, 16
2, 147928, Note_on_c, 0, 60, 0
2, 147936, Note_on_c, 0, 64, 0
2, 147960, Note_on_c, 0, 72, 0
2, 147960, Note_on_c, 0, 59, 0
2, 148163, Control_c, 0, 64, 0
2, 148216, Note_on_c, 0, 45, 55
2, 148344, Control_c, 0, 64, 127
2, 148504, Note_on_c, 0, 45, 0
2, 148784, Note_on_c, 0, 45, 47
2, 148784, Note_on_c, 0, 55, 62
2, 148800, Note_on_c, 0, 64, 33
2, 148808, Note_on_c, 0, 60, 36
2, 148864, Control_c, 0, 64, 0
2, 148920, Control_c, 0, 64, 127
2, 149400, Note_on_c, 0, 45, 0
2, 149424, Note_on_c, 0, 55, 0
2, 149456, Note_on_c, 0, 60, 0
2, 149624, Note_on_c, 0, 64, 0
2, 149848, Note_on_c, 0, 43, 49
2, 149888, Control_c, 0, 64, 0
2, 150000, Control_c, 0, 64, 127
2, 150288, Note_on_c, 0, 67, 65
2, 150296, Control_c, 0, 64, 0
2, 150304, Note_on_c, 0, 58, 40
2, 150312, Note_on_c, 0, 52, 33
2, 150312, Note_on_c, 0, 64, 37
2, 150312, Note_on_c, 0, 62, 41
2, 150392, Control_c, 0, 64, 127
2, 150456, Note_on_c, 0, 64, 0
2, 150488, Note_on_c, 0, 43, 0
2, 150496, Note_on_c, 0, 58, 0
2, 150504, Note_on_c, 0, 67, 0
2, 150520, Note_on_c, 0, 62, 0
2, 150568, Note_on_c, 0, 52, 0
2, 150832, Note_on_c, 0, 72, 62
2, 150928, Note_on_c, 0, 72, 0
2, 151240, Note_on_c, 0, 79, 83
2, 151336, Note_on_c, 0, 79, 0
2, 151640, Note_on_c, 0, 76, 69
2, 151648, Note_on_c, 0, 73, 38
2, 151656, Note_on_c, 0, 68, 67
2, 151672, Note_on_c, 0, 64, 63
2, 151680, Control_c, 0, 64, 0
2, 151680, Note_on_c, 0, 58, 43
2, 151824, Control_c, 0, 64, 127
2, 151928, Note_on_c, 0, 76, 0
2, 151976, Note_on_c, 0, 64, 0
2, 151976, Note_on_c, 0, 73, 0
2, 152008, Note_on_c, 0, 68, 0
2, 152024, Note_on_c, 0, 58, 0
2, 152120, Note_on_c, 0, 74, 70
2, 152128, Note_on_c, 0, 68, 69
2, 152136, Note_on_c, 0, 58, 64
2, 152136, Control_c, 0, 64, 0
2, 152136, Note_on_c, 0, 64, 60
2, 152264, Control_c, 0, 64, 127
2, 152352, Note_on_c, 0, 74, 0
2, 152440, Note_on_c, 0, 64, 0
2, 152472, Note_on_c, 0, 68, 0
2, 152560, Note_on_c, 0, 58, 0
2, 152576, Control_c, 0, 64, 0
2, 152584, Note_on_c, 0, 72, 49
2, 152592, Note_on_c, 0, 67, 59
2, 152600, Note_on_c, 0, 57, 40
2, 152600, Note_on_c, 0, 62, 47
2, 152760, Control_c, 0, 64, 127
2, 152904, Note_on_c, 0, 62, 0
2, 152912, Note_on_c, 0, 67, 0
2, 152984, Note_on_c, 0, 72, 0
2, 153080, Note_on_c, 0, 71, 33
2, 153080, Control_c, 0, 64, 0
2, 153080, Note_on_c, 0, 66, 37
2, 153088, Note_on_c, 0, 61, 31
2, 153088, Note_on_c, 0, 56, 35
2, 153096, Note_on_c, 0, 57, 0
2, 153232, Control_c, 0, 64, 127
2, 153328, Note_on_c, 0, 61, 0
2, 153376, Note_on_c, 0, 71, 0
2, 153376, Note_on_c, 0, 66, 0
2, 153544, Note_on_c, 0, 56, 0
2, 153544, Control_c, 0, 64, 0
2, 153560, Note_on_c, 0, 72, 33
2, 153560, Note_on_c, 0, 57, 36
2, 153576, Note_on_c, 0, 67, 35
2, 153576, Note_on_c, 0, 62, 24
2, 153728, Control_c, 0, 64, 127
2, 153736, Note_on_c, 0, 57, 0
2, 154032, Note_on_c, 0, 48, 43
2, 154168, Note_on_c, 0, 67, 0
2, 154192, Note_on_c, 0, 72, 0
2, 154224, Note_on_c, 0, 62, 0
2, 154520, Note_on_c, 0, 62, 37
2, 154528, Note_on_c, 0, 57, 44
2, 154536, Control_c, 0, 64, 0
2, 154600, Control_c, 0, 64, 127
2, 154744, Note_on_c, 0, 57, 0
2, 154888, Note_on_c, 0, 62, 0
2, 155016, Note_on_c, 0, 41, 57
2, 155048, Note_on_c, 0, 48, 0
2, 155096, Note_on_c, 0, 41, 0
2, 155480, Control_c, 0, 64, 0
2, 155496, Note_on_c, 0, 34, 64
2, 155504, Note_on_c, 0, 79, 82
2, 155512, Note_on_c, 0, 72, 88
2, 155608, Note_on_c, 0, 34, 0
2, 155608, Control_c, 0, 64, 127
2, 155824, Note_on_c, 0, 72, 0
2, 155920, Note_on_c, 0, 79, 0
2, 156000, Note_on_c, 0, 76, 30
2, 156000, Note_on_c, 0, 56, 33
2, 156000, Note_on_c, 0, 67, 33
2, 156008, Note_on_c, 0, 72, 24
2, 156088, Note_on_c, 0, 67, 0
2, 156112, Note_on_c, 0, 72, 0
2, 156152, Note_on_c, 0, 76, 0
2, 156464, Note_on_c, 0, 62, 31
2, 156472, Note_on_c, 0, 91, 39
2, 156480, Note_on_c, 0, 84, 44
2, 156672, Note_on_c, 0, 84, 0
2, 156744, Note_on_c, 0, 62, 0
2, 156880, Note_on_c, 0, 91, 0
2, 156936, Note_on_c, 0, 79, 32
2, 156936, Note_on_c, 0, 88, 35
2, 156952, Note_on_c, 0, 67, 33
2, 156952, Note_on_c, 0, 62, 29
2, 156960, Note_on_c, 0, 84, 33
2, 157424, Note_on_c, 0, 88, 0
2, 157432, Note_on_c, 0, 84, 0
2, 157472, Note_on_c, 0, 79, 0
2, 157528, Note_on_c, 0, 67, 0
2, 157616, Note_on_c, 0, 62, 0
2, 157688, Note_on_c, 0, 56, 0
2, 158176, Note_on_c, 0, 58, 47
2, 158184, Note_on_c, 0, 68, 42
2, 158184, Note_on_c, 0, 74, 53
2, 158192, Note_on_c, 0, 71, 43
2, 158192, Note_on_c, 0, 64, 49
2, 158304, Note_on_c, 0, 74, 0
2, 158312, Note_on_c, 0, 71, 0
2, 158312, Note_on_c, 0, 64, 0
2, 158360, Note_on_c, 0, 68, 0
2, 158384, Control_c, 0, 64, 0
2, 158416, Note_on_c, 0, 58, 0
2, 158424, Note_on_c, 0, 62, 48
2, 158424, Note_on_c, 0, 67, 46
2, 158424, Note_on_c, 0, 72, 32
2, 158448, Note_on_c, 0, 57, 31
2, 158568, Control_c, 0, 64, 127
2, 158872, Note_on_c, 0, 45, 36
2, 158880, Note_on_c, 0, 67, 0
2, 158888, Note_on_c, 0, 57, 0
2, 158920, Note_on_c, 0, 72, 0
2, 158976, Note_on_c, 0, 62, 0
2, 159352, Note_on_c, 0, 64, 32
2, 159368, Note_on_c, 0, 55, 31
2, 159368, Note_on_c, 0, 60, 27
2, 159576, Note_on_c, 0, 60, 0
2, 159640, Note_on_c, 0, 64, 0
2, 159832, Note_on_c, 0, 64, 78
2, 159992, Note_on_c, 0, 64, 0
2, 159992, Note_on_c, 0, 45, 0
2, 160072, Note_on_c, 0, 64, 60
2, 160192, Note_on_c, 0, 64, 0
2, 160264, Note_on_c, 0, 55, 0
2, 160296, Note_on_c, 0, 67, 83
2, 160472, Note_on_c, 0, 67, 0
2, 160544, Note_on_c, 0, 67, 62
2, 160656, Note_on_c, 0, 67, 0
2, 160792, Note_on_c, 0, 67, 35
2, 160856, Note_on_c, 0, 67, 0
2, 161032, Note_on_c, 0, 67, 53
2, 161072, Note_on_c, 0, 67, 0
2, 161312, Note_on_c, 0, 54, 36
2, 161320, Note_on_c, 0, 72, 36
2, 161320, Note_on_c, 0, 69, 56
2, 161328, Control_c, 0, 64, 0
2, 161344, Note_on_c, 0, 58, 28
2, 161456, Control_c, 0, 64, 127
2, 161712, Note_on_c, 0, 58, 0
2, 161808, Note_on_c, 0, 54, 0
2, 162008, Note_on_c, 0, 69, 0
2, 162008, Note_on_c, 0, 72, 0
2, 162232, Note_on_c, 0, 71, 49
2, 162248, Control_c, 0, 64, 0
2, 162248, Note_on_c, 0, 67, 45
2, 162256, Note_on_c, 0, 62, 37
2, 162272, Note_on_c, 0, 53, 17
2, 162272, Note_on_c, 0, 57, 24
2, 162400, Control_c, 0, 64, 127
2, 162584, Note_on_c, 0, 57, 0
2, 162584, Note_on_c, 0, 53, 0
2, 163200, Note_on_c, 0, 41, 28
2, 163424, Note_on_c, 0, 67, 0
2, 163440, Note_on_c, 0, 71, 0
2, 163584, Note_on_c, 0, 62, 0
2, 163608, Note_on_c, 0, 41, 0
2, 163680, Note_on_c, 0, 69, 64
2, 163992, Note_on_c, 0, 69, 0
2, 164200, Note_on_c, 0, 71, 80
2, 164208, Note_on_c, 0, 56, 38
2, 164216, Note_on_c, 0, 52, 44
2, 164216, Note_on_c, 0, 67, 78
2, 164224, Control_c, 0, 64, 0
2, 164232, Note_on_c, 0, 62, 66
2, 164368, Control_c, 0, 64, 127
2, 164760, Note_on_c, 0, 52, 0
2, 164848, Note_on_c, 0, 56, 0
2, 164856, Note_on_c, 0, 62, 0
2, 164952, Note_on_c, 0, 67, 0
2, 165032, Note_on_c, 0, 71, 0
2, 165144, Note_on_c, 0, 69, 80
2, 165152, Note_on_c, 0, 51, 49
2, 165160, Note_on_c, 0, 65, 71
2, 165160, Control_c, 0, 64, 0
2, 165168, Note_on_c, 0, 55, 61
2, 165168, Note_on_c, 0, 60, 68
2, 165400, Control_c, 0, 64, 127
2, 165696, Note_on_c, 0, 55, 0
2, 165712, Note_on_c, 0, 51, 0
2, 166160, Note_on_c, 0, 33, 53
2, 166256, Note_on_c, 0, 33, 0
2, 166400, Note_on_c, 0, 65, 0
2, 166472, Note_on_c, 0, 60, 0
2, 166560, Note_on_c, 0, 69, 0
2, 166608, Note_on_c, 0, 67, 64
2, 167040, Note_on_c, 0, 67, 0
2, 167112, Note_on_c, 0, 54, 55
2, 167120, Note_on_c, 0, 69, 74
2, 167120, Note_on_c, 0, 50, 55
2, 167128, Note_on_c, 0, 60, 67
2, 167128, Note_on_c, 0, 65, 67
2, 167160, Control_c, 0, 64, 0
2, 167320, Control_c, 0, 64, 127
2, 167520, Note_on_c, 0, 50, 0
2, 167568, Note_on_c, 0, 54, 0
2, 167672, Note_on_c, 0, 60, 0
2, 167696, Note_on_c, 0, 65, 0
2, 168016, Note_on_c, 0, 64, 38
2, 168016, Note_on_c, 0, 59, 44
2, 168024, Control_c, 0, 64, 0
2, 168032, Note_on_c, 0, 53, 24
2, 168032, Note_on_c, 0, 43, 33
2, 168248, Control_c, 0, 64, 127
2, 168488, Note_on_c, 0, 53, 0
2, 168640, Note_on_c, 0, 64, 0
2, 168832, Note_on_c, 0, 59, 0
2, 168944, Note_on_c, 0, 53, 19
2, 169048, Note_on_c, 0, 43, 0
2, 169136, Note_on_c, 0, 53, 0
2, 169368, Note_on_c, 0, 69, 0
2, 169728, Note_on_c, 0, 59, 32
2, 169728, Note_on_c, 0, 63, 30
2, 169872, Note_on_c, 0, 59, 0
2, 169880, Note_on_c, 0, 63, 0
2, 169928, Note_on_c, 0, 43, 24
2, 169936, Note_on_c, 0, 62, 44
2, 169944, Note_on_c, 0, 36, 20
2, 169944, Note_on_c, 0, 57, 36
2, 169960, Control_c, 0, 64, 0
2, 169968, Note_on_c, 0, 52, 26
2, 170248, Control_c, 0, 64, 127
2, 170624, Note_on_c, 0, 57, 0
2, 170736, Note_on_c, 0, 62, 0
2, 170984, Note_on_c, 0, 36, 0
2, 171032, Note_on_c, 0, 43, 0
2, 171088, Note_on_c, 0, 52, 0
2, 171120, Note_on_c, 0, 76, 71
2, 171296, Note_on_c, 0, 76, 0
2, 171320, Note_on_c, 0, 68, 28
2, 171320, Note_on_c, 0, 64, 36
2, 171320, Note_on_c, 0, 71, 51
2, 171776, Note_on_c, 0, 55, 47
2, 171856, Note_on_c, 0, 55, 0
2, 172064, Note_on_c, 0, 71, 0
2, 172096, Note_on_c, 0, 64, 0
2, 172120, Note_on_c, 0, 71, 69
2, 172152, Note_on_c, 0, 68, 0
2, 172384, Note_on_c, 0, 71, 0
2, 172400, Note_on_c, 0, 74, 73
2, 172528, Note_on_c, 0, 74, 0
2, 172544, Note_on_c, 0, 71, 62
2, 172720, Control_c, 0, 64, 0
2, 172744, Note_on_c, 0, 45, 49
2, 172752, Note_on_c, 0, 72, 61
2, 172784, Note_on_c, 0, 71, 0
2, 172848, Control_c, 0, 64, 127
2, 172976, Note_on_c, 0, 45, 0
2, 173000, Note_on_c, 0, 79, 62
2, 173008, Note_on_c, 0, 72, 0
2, 173112, Note_on_c, 0, 79, 0
2, 173248, Note_on_c, 0, 86, 88
2, 173560, Note_on_c, 0, 83, 75
2, 173592, Note_on_c, 0, 86, 0
2, 173728, Note_on_c, 0, 64, 40
2, 173736, Note_on_c, 0, 60, 41
2, 173752, Note_on_c, 0, 59, 36
2, 173984, Control_c, 0, 64, 0
2, 174016, Note_on_c, 0, 84, 85
2, 174040, Control_c, 0, 64, 127
2, 174048, Note_on_c, 0, 83, 0
2, 174280, Note_on_c, 0, 84, 0
2, 174288, Note_on_c, 0, 76, 63
2, 174512, Note_on_c, 0, 59, 0
2, 174512, Note_on_c, 0, 60, 0
2, 174528, Note_on_c, 0, 64, 0
2, 174584, Note_on_c, 0, 83, 76
2, 174592, Note_on_c, 0, 76, 0
2, 174640, Control_c, 0, 64, 0
2, 174728, Control_c, 0, 64, 127
2, 174760, Note_on_c, 0, 64, 36
2, 174784, Note_on_c, 0, 60, 26
2, 174848, Note_on_c, 0, 60, 0
2, 174848, Note_on_c, 0, 81, 71
2, 174864, Note_on_c, 0, 64, 0
2, 174952, Note_on_c, 0, 83, 0
2, 175128, Note_on_c, 0, 71, 49
2, 175144, Note_on_c, 0, 81, 0
2, 175400, Note_on_c, 0, 69, 51
2, 175440, Note_on_c, 0, 71, 0
2, 175664, Note_on_c, 0, 41, 18
2, 175664, Note_on_c, 0, 48, 39
2, 175672, Note_on_c, 0, 64, 36
2, 175680, Note_on_c, 0, 57, 45
2, 175688, Control_c, 0, 64, 0
2, 175760, Note_on_c, 0, 69, 0
2, 175904, Control_c, 0, 64, 127
2, 175944, Note_on_c, 0, 76, 54
2, 176144, Note_on_c, 0, 76, 0
2, 176184, Note_on_c, 0, 71, 47
2, 176368, Note_on_c, 0, 64, 0
2, 176392, Note_on_c, 0, 57, 0
2, 176416, Note_on_c, 0, 48, 0
2, 176568, Note_on_c, 0, 71, 0
2, 176648, Note_on_c, 0, 48, 31
2, 176680, Note_on_c, 0, 57, 45
2, 176880, Note_on_c, 0, 41, 0
2, 176920, Note_on_c, 0, 48, 0
2, 176968, Note_on_c, 0, 57, 0
2, 176992, Note_on_c, 0, 76, 74
2, 176992, Note_on_c, 0, 83, 65
2, 177176, Note_on_c, 0, 83, 0
2, 177176, Note_on_c, 0, 79, 53
2, 177192, Note_on_c, 0, 71, 50
2, 177264, Note_on_c, 0, 76, 0
2, 177336, Note_on_c, 0, 71, 0
2, 177368, Note_on_c, 0, 79, 0
2, 177584, Note_on_c, 0, 81, 66
2, 177592, Note_on_c, 0, 72, 55
2, 177600, Note_on_c, 0, 64, 27
2, 177608, Note_on_c, 0, 53, 26
2, 177616, Control_c, 0, 64, 0
2, 177616, Note_on_c, 0, 60, 34
2, 177624, Note_on_c, 0, 57, 28
2, 177736, Control_c, 0, 64, 127
2, 177768, Note_on_c, 0, 81, 0
2, 177800, Note_on_c, 0, 72, 0
2, 177928, Note_on_c, 0, 79, 53
2, 177936, Note_on_c, 0, 71, 58
2, 178032, Note_on_c, 0, 60, 0
2, 178032, Note_on_c, 0, 64, 0
2, 178104, Note_on_c, 0, 79, 0
2, 178120, Note_on_c, 0, 71, 0
2, 178128, Note_on_c, 0, 57, 0
2, 178208, Note_on_c, 0, 53, 0
2, 178240, Note_on_c, 0, 77, 57
2, 178272, Note_on_c, 0, 69, 38
2, 178344, Note_on_c, 0, 69, 0
2, 178352, Note_on_c, 0, 77, 0
2, 178456, Note_on_c, 0, 71, 57
2, 178456, Note_on_c, 0, 81, 57
2, 178544, Note_on_c, 0, 81, 0
2, 178576, Note_on_c, 0, 71, 0
2, 178632, Control_c, 0, 64, 0
2, 178640, Note_on_c, 0, 52, 29
2, 178648, Note_on_c, 0, 60, 22
2, 178656, Note_on_c, 0, 79, 41
2, 178808, Control_c, 0, 64, 127
2, 178864, Note_on_c, 0, 60, 0
2, 178896, Note_on_c, 0, 79, 0
2, 178920, Note_on_c, 0, 67, 53
2, 179512, Note_on_c, 0, 67, 0
2, 179560, Note_on_c, 0, 60, 32
2, 179592, Note_on_c, 0, 64, 15
2, 179648, Note_on_c, 0, 67, 50
2, 179704, Note_on_c, 0, 67, 0
2, 179736, Note_on_c, 0, 69, 46
2, 179752, Control_c, 0, 64, 0
2, 179768, Note_on_c, 0, 69, 0
2, 179816, Note_on_c, 0, 69, 46
2, 179856, Note_on_c, 0, 69, 0
2, 179888, Note_on_c, 0, 71, 64
2, 179928, Note_on_c, 0, 71, 0
2, 179968, Note_on_c, 0, 71, 40
2, 180040, Note_on_c, 0, 71, 0
2, 180040, Note_on_c, 0, 72, 55
2, 180080, Note_on_c, 0, 72, 0
2, 180096, Note_on_c, 0, 64, 0
2, 180128, Note_on_c, 0, 72, 52
2, 180144, Note_on_c, 0, 60, 0
2, 180192, Note_on_c, 0, 72, 0
2, 180200, Note_on_c, 0, 74, 56
2, 180232, Note_on_c, 0, 74, 0
2, 180280, Note_on_c, 0, 74, 43
2, 180352, Note_on_c, 0, 74, 0
2, 180352, Note_on_c, 0, 76, 57
2, 180408, Note_on_c, 0, 76, 0
2, 180440, Note_on_c, 0, 60, 29
2, 180440, Note_on_c, 0, 76, 45
2, 180448, Note_on_c, 0, 64, 24
2, 180536, Note_on_c, 0, 76, 0
2, 180736, Note_on_c, 0, 77, 45
2, 180848, Note_on_c, 0, 77, 0
2, 180904, Note_on_c, 0, 79, 55
2, 181000, Note_on_c, 0, 79, 0
2, 181064, Note_on_c, 0, 79, 30
2, 181072, Note_on_c, 0, 81, 26
2, 181128, Note_on_c, 0, 52, 0
2, 181136, Note_on_c, 0, 79, 0
2, 181144, Note_on_c, 0, 81, 0
2, 181192, Note_on_c, 0, 81, 35
2, 181256, Note_on_c, 0, 64, 0
2, 181264, Note_on_c, 0, 81, 0
2, 181320, Note_on_c, 0, 82, 48
2, 181328, Control_c, 0, 64, 127
2, 181400, Note_on_c, 0, 82, 0
2, 181400, Note_on_c, 0, 53, 33
2, 181400, Note_on_c, 0, 83, 46
2, 181416, Note_on_c, 0, 64, 28
2, 181448, Control_c, 0, 64, 0
2, 181520, Note_on_c, 0, 83, 0
2, 181528, Note_on_c, 0, 86, 65
2, 181632, Note_on_c, 0, 86, 0
2, 181704, Note_on_c, 0, 84, 53
2, 181760, Note_on_c, 0, 84, 0
2, 181880, Note_on_c, 0, 83, 49
2, 181960, Note_on_c, 0, 83, 0
2, 182000, Control_c, 0, 64, 127
2, 182048, Note_on_c, 0, 79, 41
2, 182128, Note_on_c, 0, 79, 0
2, 182200, Note_on_c, 0, 64, 0
2, 182200, Note_on_c, 0, 76, 44
2, 182296, Note_on_c, 0, 76, 0
2, 182392, Note_on_c, 0, 71, 34
2, 182392, Note_on_c, 0, 64, 26
2, 182584, Note_on_c, 0, 64, 0
2, 182616, Note_on_c, 0, 67, 46
2, 182624, Note_on_c, 0, 71, 0
2, 182624, Note_on_c, 0, 60, 0
2, 182664, Note_on_c, 0, 67, 0
2, 182736, Note_on_c, 0, 53, 0
2, 183264, Note_on_c, 0, 48, 26
2, 183272, Note_on_c, 0, 53, 29
2, 183272, Note_on_c, 0, 64, 27
2, 183280, Note_on_c, 0, 59, 32
2, 183280, Note_on_c, 0, 60, 31
2, 183288, Control_c, 0, 64, 0
2, 183320, Control_c, 0, 64, 127
2, 183544, Note_on_c, 0, 69, 64
2, 183752, Note_on_c, 0, 53, 0
2, 183760, Note_on_c, 0, 48, 0
2, 183808, Note_on_c, 0, 69, 0
2, 183832, Note_on_c, 0, 60, 0
2, 183848, Note_on_c, 0, 59, 0
2, 183864, Note_on_c, 0, 67, 51
2, 183912, Note_on_c, 0, 64, 0
2, 183976, Note_on_c, 0, 67, 0
2, 184008, Note_on_c, 0, 65, 55
2, 184128, Note_on_c, 0, 65, 0
2, 184304, Note_on_c, 0, 67, 42
2, 184304, Note_on_c, 0, 62, 33
2, 184312, Note_on_c, 0, 40, 32
2, 184320, Note_on_c, 0, 55, 33
2, 184328, Control_c, 0, 64, 0
2, 184336, Note_on_c, 0, 50, 19
2, 184448, Note_on_c, 0, 55, 0
2, 184472, Control_c, 0, 64, 127
2, 184512, Note_on_c, 0, 40, 0
2, 184520, Note_on_c, 0, 62, 0
2, 184536, Note_on_c, 0, 67, 0
2, 184544, Note_on_c, 0, 50, 0
2, 184824, Note_on_c, 0, 79, 40
2, 184840, Note_on_c, 0, 59, 34
2, 184848, Note_on_c, 0, 74, 44
2, 184848, Note_on_c, 0, 67, 34
2, 184920, Note_on_c, 0, 67, 0
2, 184944, Note_on_c, 0, 59, 0
2, 185008, Note_on_c, 0, 74, 0
2, 185048, Note_on_c, 0, 79, 0
2, 185336, Note_on_c, 0, 95, 50
2, 185336, Note_on_c, 0, 83, 44
2, 185352, Note_on_c, 0, 55, 37
2, 185360, Note_on_c, 0, 52, 22
2, 185360, Note_on_c, 0, 62, 24
2, 185376, Note_on_c, 0, 59, 24
2, 185440, Note_on_c, 0, 62, 0
2, 185464, Note_on_c, 0, 59, 0
2, 185472, Note_on_c, 0, 55, 0
2, 185472, Note_on_c, 0, 52, 0
2, 185504, Note_on_c, 0, 83, 0
2, 185528, Note_on_c, 0, 95, 0
2, 185784, Note_on_c, 0, 98, 46
2, 185792, Note_on_c, 0, 62, 30
2, 185800, Note_on_c, 0, 59, 28
2, 185800, Note_on_c, 0, 55, 47
2, 185800, Note_on_c, 0, 52, 24
2, 185800, Note_on_c, 0, 86, 39
2, 185816, Note_on_c, 0, 93, 41
2, 185888, Note_on_c, 0, 86, 0
2, 185896, Note_on_c, 0, 62, 0
2, 185920, Note_on_c, 0, 59, 0
2, 185920, Note_on_c, 0, 93, 0
2, 185928, Note_on_c, 0, 55, 0
2, 185944, Note_on_c, 0, 52, 0
2, 185944, Note_on_c, 0, 98, 0
2, 186264, Note_on_c, 0, 62, 44
2, 186272, Note_on_c, 0, 103, 59
2, 186280, Note_on_c, 0, 59, 39
2, 186288, Note_on_c, 0, 91, 30
2, 186288, Note_on_c, 0, 55, 45
2, 186312, Note_on_c, 0, 52, 18
2, 186336, Note_on_c, 0, 103, 0
2, 186344, Note_on_c, 0, 91, 0
2, 186352, Note_on_c, 0, 52, 0
2, 186376, Note_on_c, 0, 62, 0
2, 186376, Note_on_c, 0, 59, 0
2, 186384, Note_on_c, 0, 55, 0
2, 186712, Note_on_c, 0, 96, 74
2, 186720, Note_on_c, 0, 59, 44
2, 186720, Note_on_c, 0, 62, 57
2, 186720, Note_on_c, 0, 91, 64
2, 186720, Note_on_c, 0, 84, 66
2, 186832, Note_on_c, 0, 62, 0
2, 186832, Note_on_c, 0, 59, 0
2, 186848, Note_on_c, 0, 84, 0
2, 186880, Note_on_c, 0, 91, 0
2, 186888, Note_on_c, 0, 96, 0
2, 187176, Note_on_c, 0, 98, 78
2, 187176, Note_on_c, 0, 62, 67
2, 187176, Note_on_c, 0, 65, 71
2, 187184, Note_on_c, 0, 86, 85
2, 187184, Note_on_c, 0, 57, 64
2, 187184, Note_on_c, 0, 93, 85
2, 187192, Control_c, 0, 64, 0
2, 187320, Control_c, 0, 64, 127
2, 187344, Note_on_c, 0, 98, 0
2, 187376, Note_on_c, 0, 93, 0
2, 187408, Note_on_c, 0, 86, 0
2, 187536, Note_on_c, 0, 65, 0
2, 187600, Note_on_c, 0, 62, 0
2, 187656, Note_on_c, 0, 77, 58
2, 187672, Note_on_c, 0, 65, 40
2, 187760, Note_on_c, 0, 65, 0
2, 188016, Note_on_c, 0, 77, 0
2, 188096, Note_on_c, 0, 62, 36
2, 188096, Note_on_c, 0, 77, 49
2, 188120, Note_on_c, 0, 74, 69
2, 188128, Note_on_c, 0, 63, 48
2, 188144, Note_on_c, 0, 69, 69
2, 188144, Note_on_c, 0, 67, 51
2, 188160, Control_c, 0, 64, 0
2, 188328, Control_c, 0, 64, 127
2, 188464, Note_on_c, 0, 63, 0
2, 188496, Note_on_c, 0, 67, 0
2, 188536, Note_on_c, 0, 77, 0
2, 188536, Note_on_c, 0, 62, 0
2, 188616, Note_on_c, 0, 77, 51
2, 188688, Note_on_c, 0, 69, 0
2, 188696, Note_on_c, 0, 74, 0
2, 188896, Note_on_c, 0, 77, 0
2, 189024, Note_on_c, 0, 77, 54
2, 189024, Note_on_c, 0, 62, 32
2, 189056, Note_on_c, 0, 67, 41
2, 189064, Note_on_c, 0, 63, 33
2, 189064, Note_on_c, 0, 74, 55
2, 189072, Note_on_c, 0, 69, 51
2, 189112, Control_c, 0, 64, 0
2, 189160, Control_c, 0, 64, 127
2, 189432, Note_on_c, 0, 74, 0
2, 189448, Note_on_c, 0, 69, 0
2, 189456, Note_on_c, 0, 67, 0
2, 189488, Note_on_c, 0, 77, 0
2, 189568, Note_on_c, 0, 62, 0
2, 189568, Note_on_c, 0, 77, 50
2, 189600, Note_on_c, 0, 74, 39
2, 189688, Note_on_c, 0, 57, 0
2, 189712, Note_on_c, 0, 63, 0
2, 189720, Note_on_c, 0, 74, 0
2, 189760, Note_on_c, 0, 77, 0
2, 190008, Note_on_c, 0, 79, 61
2, 190032, Note_on_c, 0, 76, 66
2, 190032, Note_on_c, 0, 62, 26
2, 190040, Note_on_c, 0, 56, 39
2, 190048, Note_on_c, 0, 72, 59
2, 190064, Control_c, 0, 64, 0
2, 190072, Note_on_c, 0, 67, 44
2, 190232, Control_c, 0, 64, 127
2, 190416, Note_on_c, 0, 62, 0
2, 190416, Note_on_c, 0, 79, 0
2, 190440, Note_on_c, 0, 67, 0
2, 190512, Note_on_c, 0, 72, 0
2, 190536, Note_on_c, 0, 76, 0
2, 190568, Note_on_c, 0, 79, 36
2, 190800, Note_on_c, 0, 56, 0
2, 190912, Note_on_c, 0, 79, 0
2, 191016, Note_on_c, 0, 76, 37
2, 191032, Note_on_c, 0, 62, 28
2, 191048, Note_on_c, 0, 56, 27
2, 191048, Note_on_c, 0, 67, 24
2, 191208, Note_on_c, 0, 72, 1
2, 191624, Note_on_c, 0, 62, 0
2, 191632, Note_on_c, 0, 67, 0
2, 191672, Note_on_c, 0, 72, 0
2, 191976, Note_on_c, 0, 76, 0
2, 192000, Note_on_c, 0, 62, 28
2, 192008, Note_on_c, 0, 67, 26
2, 192024, Note_on_c, 0, 72, 20
2, 192184, Note_on_c, 0, 62, 0
2, 192216, Note_on_c, 0, 72, 0
2, 192264, Note_on_c, 0, 67, 0
2, 192280, Note_on_c, 0, 56, 0
2, 192792, Note_on_c, 0, 58, 64
2, 192792, Control_c, 0, 64, 0
2, 192800, Note_on_c, 0, 74, 62
2, 192800, Note_on_c, 0, 71, 64
2, 192808, Note_on_c, 0, 64, 59
2, 192808, Note_on_c, 0, 68, 55
2, 192840, Control_c, 0, 64, 127
2, 192968, Note_on_c, 0, 71, 0
2, 192984, Note_on_c, 0, 64, 0
2, 192992, Note_on_c, 0, 74, 0
2, 193024, Note_on_c, 0, 68, 0
2, 193040, Control_c, 0, 64, 0
2, 193056, Note_on_c, 0, 58, 0
2, 193088, Note_on_c, 0, 72, 35
2, 193096, Note_on_c, 0, 64, 39
2, 193096, Note_on_c, 0, 67, 41
2, 193104, Note_on_c, 0, 57, 40
2, 193176, Control_c, 0, 64, 127
2, 193384, Note_on_c, 0, 45, 44
2, 193392, Note_on_c, 0, 57, 0
2, 193392, Note_on_c, 0, 67, 0
2, 193416, Note_on_c, 0, 72, 0
2, 193432, Note_on_c, 0, 64, 0
2, 194016, Note_on_c, 0, 59, 33
2, 194016, Note_on_c, 0, 64, 39
2, 194032, Note_on_c, 0, 60, 46
2, 194040, Control_c, 0, 64, 0
2, 194320, Note_on_c, 0, 52, 41
2, 194528, Control_c, 0, 64, 127
2, 194648, Note_on_c, 0, 60, 0
2, 194664, Note_on_c, 0, 59, 0
2, 194712, Note_on_c, 0, 64, 0
2, 194896, Note_on_c, 0, 64, 35
2, 194904, Note_on_c, 0, 59, 30
2, 194912, Note_on_c, 0, 60, 38
2, 195056, Note_on_c, 0, 52, 0
2, 195216, Note_on_c, 0, 52, 11
2, 195232, Note_on_c, 0, 57, 62
2, 195472, Note_on_c, 0, 52, 0
2, 195568, Note_on_c, 0, 59, 0
2, 195592, Note_on_c, 0, 52, 34
2, 195616, Note_on_c, 0, 57, 0
2, 195624, Note_on_c, 0, 60, 0
2, 195648, Note_on_c, 0, 52, 0
2, 195712, Note_on_c, 0, 64, 0
2, 195728, Note_on_c, 0, 52, 44
2, 195752, Note_on_c, 0, 45, 0
2, 195880, Note_on_c, 0, 55, 43
2, 195888, Note_on_c, 0, 64, 33
2, 195896, Note_on_c, 0, 43, 40
2, 195904, Note_on_c, 0, 60, 39
2, 195928, Control_c, 0, 64, 0
2, 196144, Control_c, 0, 64, 127
2, 196384, Note_on_c, 0, 55, 0
2, 196416, Note_on_c, 0, 52, 0
2, 196504, Note_on_c, 0, 60, 0
2, 196560, Note_on_c, 0, 64, 0
2, 196800, Note_on_c, 0, 52, 33
2, 196816, Note_on_c, 0, 60, 41
2, 196824, Note_on_c, 0, 55, 33
2, 196984, Note_on_c, 0, 55, 0
2, 197160, Note_on_c, 0, 60, 0
2, 198024, Note_on_c, 0, 67, 61
2, 198048, Note_on_c, 0, 52, 0
2, 198064, Note_on_c, 0, 59, 50
2, 198072, Note_on_c, 0, 43, 0
2, 198216, Note_on_c, 0, 67, 0
2, 198224, Note_on_c, 0, 59, 0
2, 198344, Note_on_c, 0, 59, 48
2, 198344, Note_on_c, 0, 67, 52
2, 198384, Note_on_c, 0, 59, 0
2, 198440, Note_on_c, 0, 67, 0
2, 198688, Note_on_c, 0, 72, 58
2, 198688, Control_c, 0, 64, 0
2, 198696, Note_on_c, 0, 42, 35
2, 198704, Note_on_c, 0, 64, 46
2, 198712, Note_on_c, 0, 30, 30
2, 198832, Control_c, 0, 64, 127
2, 198848, Note_on_c, 0, 30, 0
2, 198904, Note_on_c, 0, 42, 0
2, 199056, Note_on_c, 0, 64, 0
2, 199120, Note_on_c, 0, 72, 0
2, 199168, Note_on_c, 0, 54, 34
2, 199608, Note_on_c, 0, 64, 26
2, 199616, Note_on_c, 0, 69, 38
2, 199624, Note_on_c, 0, 76, 19
2, 199632, Note_on_c, 0, 60, 20
2, 199664, Note_on_c, 0, 64, 0
2, 199712, Note_on_c, 0, 69, 0
2, 199760, Note_on_c, 0, 76, 0
2, 199920, Note_on_c, 0, 89, 42
2, 199920, Note_on_c, 0, 88, 44
2, 199960, Note_on_c, 0, 83, 13
2, 199968, Note_on_c, 0, 81, 12
2, 199984, Note_on_c, 0, 89, 0
2, 200008, Note_on_c, 0, 83, 0
2, 200104, Note_on_c, 0, 88, 0
2, 200120, Note_on_c, 0, 81, 0
2, 200152, Note_on_c, 0, 84, 54
2, 200160, Note_on_c, 0, 76, 36
2, 200224, Note_on_c, 0, 84, 0
2, 200272, Note_on_c, 0, 76, 0
2, 200368, Note_on_c, 0, 60, 0
2, 200512, Note_on_c, 0, 76, 37
2, 200512, Note_on_c, 0, 69, 42
2, 200544, Note_on_c, 0, 60, 20
2, 200704, Note_on_c, 0, 69, 0
2, 200720, Note_on_c, 0, 60, 0
2, 200816, Note_on_c, 0, 76, 0
2, 200848, Note_on_c, 0, 72, 30
2, 200856, Note_on_c, 0, 64, 37
2, 200864, Note_on_c, 0, 69, 34
2, 200896, Note_on_c, 0, 54, 0
2, 201176, Note_on_c, 0, 72, 0
2, 201184, Note_on_c, 0, 69, 0
2, 201264, Note_on_c, 0, 64, 0
2, 201480, Note_on_c, 0, 41, 25
2, 201504, Note_on_c, 0, 48, 36
2, 201520, Note_on_c, 0, 74, 60
2, 201544, Note_on_c, 0, 71, 42
2, 201552, Note_on_c, 0, 63, 36
2, 201552, Note_on_c, 0, 67, 44
2, 201568, Control_c, 0, 64, 0
2, 201784, Control_c, 0, 64, 127
2, 201936, Note_on_c, 0, 41, 0
2, 202072, Note_on_c, 0, 41, 53
2, 202112, Note_on_c, 0, 48, 0
2, 202144, Note_on_c, 0, 41, 0
2, 202224, Note_on_c, 0, 67, 0
2, 202240, Note_on_c, 0, 71, 0
2, 202248, Note_on_c, 0, 63, 0
2, 202248, Note_on_c, 0, 74, 0
2, 202576, Note_on_c, 0, 74, 59
2, 202576, Note_on_c, 0, 51, 42
2, 202584, Note_on_c, 0, 57, 44
2, 202584, Note_on_c, 0, 71, 63
2, 202616, Note_on_c, 0, 62, 57
2, 202624, Note_on_c, 0, 67, 32
2, 202648, Control_c, 0, 64, 0
2, 202768, Control_c, 0, 64, 127
2, 203048, Note_on_c, 0, 57, 0
2, 203152, Note_on_c, 0, 67, 0
2, 203192, Note_on_c, 0, 62, 0
2, 203280, Note_on_c, 0, 71, 0
2, 203312, Note_on_c, 0, 51, 0
2, 203488, Note_on_c, 0, 74, 0
2, 203528, Note_on_c, 0, 62, 42
2, 203536, Note_on_c, 0, 51, 26
2, 203544, Note_on_c, 0, 67, 26
2, 203568, Note_on_c, 0, 57, 22
2, 203616, Note_on_c, 0, 57, 0
2, 203624, Note_on_c, 0, 62, 0
2, 203648, Note_on_c, 0, 51, 0
2, 203648, Control_c, 0, 64, 0
2, 203656, Note_on_c, 0, 67, 0
2, 204088, Control_c, 0, 64, 127
2, 204288, Note_on_c, 0, 72, 37
2, 204360, Note_on_c, 0, 72, 0
2, 204576, Note_on_c, 0, 67, 36
2, 204600, Note_on_c, 0, 62, 32
2, 204608, Note_on_c, 0, 40, 36
2, 204616, Note_on_c, 0, 55, 22
2, 204624, Control_c, 0, 64, 0
2, 204808, Control_c, 0, 64, 127
2, 205064, Note_on_c, 0, 55, 0
2, 205120, Note_on_c, 0, 62, 0
2, 205440, Note_on_c, 0, 67, 0
2, 205520, Note_on_c, 0, 55, 42
2, 205528, Note_on_c, 0, 52, 29
2, 205640, Note_on_c, 0, 55, 0
2, 205728, Note_on_c, 0, 40, 0
2, 205792, Note_on_c, 0, 52, 0
2, 206040, Note_on_c, 0, 60, 57
2, 206192, Note_on_c, 0, 60, 0
2, 206248, Note_on_c, 0, 62, 64
2, 206328, Note_on_c, 0, 62, 0
2, 206456, Note_on_c, 0, 64, 64
2, 206616, Note_on_c, 0, 64, 0
2, 206616, Note_on_c, 0, 52, 20
2, 206624, Note_on_c, 0, 67, 66
2, 206624, Note_on_c, 0, 59, 19
2, 206624, Note_on_c, 0, 62, 12
2, 206632, Note_on_c, 0, 55, 22
2, 206640, Control_c, 0, 64, 0
2, 206768, Note_on_c, 0, 67, 0
2, 206768, Control_c, 0, 64, 127
2, 206800, Note_on_c, 0, 72, 64
2, 206888, Note_on_c, 0, 55, 0
2, 206888, Note_on_c, 0, 59, 0
2, 206896, Note_on_c, 0, 62, 0
2, 206928, Note_on_c, 0, 72, 0
2, 206960, Note_on_c, 0, 52, 0
2, 206984, Note_on_c, 0, 69, 37
2, 206992, Note_on_c, 0, 71, 51
2, 207040, Note_on_c, 0, 69, 0
2, 207104, Note_on_c, 0, 71, 0
2, 207128, Note_on_c, 0, 72, 55
2, 207264, Note_on_c, 0, 72, 0
2, 207304, Note_on_c, 0, 76, 51
2, 207408, Note_on_c, 0, 76, 0
2, 207440, Note_on_c, 0, 79, 59
2, 207512, Note_on_c, 0, 41, 32
2, 207520, Note_on_c, 0, 48, 36
2, 207552, Note_on_c, 0, 79, 0
2, 207552, Note_on_c, 0, 57, 45
2, 207576, Control_c, 0, 64, 0
2, 207616, Note_on_c, 0, 83, 57
2, 207768, Note_on_c, 0, 83, 0
2, 207784, Note_on_c, 0, 86, 74
2, 207792, Control_c, 0, 64, 127
2, 207896, Note_on_c, 0, 41, 0
2, 207912, Note_on_c, 0, 48, 0
2, 207968, Note_on_c, 0, 86, 0
2, 207976, Note_on_c, 0, 83, 36
2, 207984, Note_on_c, 0, 57, 0
2, 208088, Note_on_c, 0, 83, 0
2, 208136, Note_on_c, 0, 84, 64
2, 208328, Note_on_c, 0, 76, 47
2, 208344, Note_on_c, 0, 84, 0
2, 208496, Note_on_c, 0, 64, 27
2, 208512, Note_on_c, 0, 53, 22
2, 208512, Note_on_c, 0, 57, 33
2, 208528, Note_on_c, 0, 60, 32
2, 208736, Note_on_c, 0, 76, 0
2, 208832, Note_on_c, 0, 83, 69
2, 208856, Note_on_c, 0, 74, 71
2, 208928, Note_on_c, 0, 64, 0
2, 209000, Note_on_c, 0, 83, 0
2, 209024, Note_on_c, 0, 74, 0
2, 209048, Note_on_c, 0, 57, 0
2, 209080, Note_on_c, 0, 60, 0
2, 209120, Note_on_c, 0, 81, 66
2, 209144, Note_on_c, 0, 72, 55
2, 209304, Note_on_c, 0, 81, 0
2, 209328, Note_on_c, 0, 72, 0
2, 209416, Note_on_c, 0, 60, 36
2, 209424, Note_on_c, 0, 64, 32
2, 209432, Note_on_c, 0, 57, 33
2, 209432, Note_on_c, 0, 79, 54
2, 209440, Note_on_c, 0, 71, 60
2, 209448, Control_c, 0, 64, 0
2, 209544, Control_c, 0, 64, 127
2, 209688, Note_on_c, 0, 79, 0
2, 209704, Note_on_c, 0, 71, 0
2, 209816, Note_on_c, 0, 64, 0
2, 209816, Note_on_c, 0, 77, 49
2, 209824, Note_on_c, 0, 60, 0
2, 209832, Note_on_c, 0, 69, 35
2, 209872, Note_on_c, 0, 57, 0
2, 209960, Note_on_c, 0, 69, 0
2, 209968, Note_on_c, 0, 53, 0
2, 209984, Note_on_c, 0, 77, 0
2, 210240, Note_on_c, 0, 79, 47
2, 210240, Control_c, 0, 64, 0
2, 210240, Note_on_c, 0, 67, 47
2, 210248, Note_on_c, 0, 52, 31
2, 210272, Note_on_c, 0, 62, 17
2, 210312, Note_on_c, 0, 59, 13
2, 210408, Control_c, 0, 64, 127
2, 210600, Note_on_c, 0, 52, 0
2, 210728, Note_on_c, 0, 52, 46
2, 210776, Note_on_c, 0, 59, 0
2, 210784, Note_on_c, 0, 62, 0
2, 210824, Note_on_c, 0, 79, 0
2, 210880, Note_on_c, 0, 67, 0
2, 211152, Note_on_c, 0, 71, 47
2, 211152, Note_on_c, 0, 67, 40
2, 211160, Note_on_c, 0, 62, 26
2, 211192, Note_on_c, 0, 59, 19
2, 211464, Note_on_c, 0, 71, 0
2, 211504, Note_on_c, 0, 67, 0
2, 211568, Note_on_c, 0, 52, 0
2, 211648, Note_on_c, 0, 52, 43
2, 211744, Note_on_c, 0, 62, 0
2, 211832, Note_on_c, 0, 59, 0
2, 211904, Note_on_c, 0, 52, 0
2, 212080, Note_on_c, 0, 71, 64
2, 212080, Note_on_c, 0, 68, 61
2, 212088, Note_on_c, 0, 52, 48
2, 212088, Note_on_c, 0, 64, 60
2, 212096, Control_c, 0, 64, 0
2, 212112, Note_on_c, 0, 59, 36
2, 212192, Control_c, 0, 64, 127
2, 212328, Note_on_c, 0, 52, 0
2, 212496, Note_on_c, 0, 64, 0
2, 212544, Note_on_c, 0, 74, 71
2, 212552, Note_on_c, 0, 52, 48
2, 212600, Note_on_c, 0, 52, 0
2, 212648, Note_on_c, 0, 59, 0
2, 212696, Note_on_c, 0, 71, 0
2, 212720, Note_on_c, 0, 68, 0
2, 212736, Note_on_c, 0, 74, 0
2, 213032, Note_on_c, 0, 73, 35
2, 213040, Note_on_c, 0, 69, 51
2, 213048, Note_on_c, 0, 64, 41
2, 213048, Note_on_c, 0, 53, 35
2, 213064, Control_c, 0, 64, 0
2, 213240, Control_c, 0, 64, 127
2, 213528, Note_on_c, 0, 61, 39
2, 213576, Note_on_c, 0, 64, 0
2, 213696, Note_on_c, 0, 69, 0
2, 213776, Note_on_c, 0, 73, 0
2, 213984, Note_on_c, 0, 61, 0
2, 214008, Note_on_c, 0, 64, 33
2, 214016, Note_on_c, 0, 76, 33
2, 214016, Note_on_c, 0, 65, 26
2, 214024, Note_on_c, 0, 69, 36
2, 214032, Note_on_c, 0, 73, 25
2, 214056, Control_c, 0, 64, 0
2, 214096, Control_c, 0, 64, 127
2, 214312, Note_on_c, 0, 64, 0
2, 214376, Note_on_c, 0, 65, 0
2, 214400, Note_on_c, 0, 73, 0
2, 214408, Note_on_c, 0, 69, 0
2, 214456, Note_on_c, 0, 76, 0
2, 214496, Note_on_c, 0, 74, 52
2, 214496, Note_on_c, 0, 62, 35
2, 214584, Note_on_c, 0, 74, 0
2, 214760, Note_on_c, 0, 53, 0
2, 214944, Note_on_c, 0, 83, 88
2, 214960, Note_on_c, 0, 53, 50
2, 214968, Note_on_c, 0, 74, 83
2, 215152, Note_on_c, 0, 74, 0
2, 215152, Note_on_c, 0, 83, 0
2, 215240, Note_on_c, 0, 62, 0
2, 215248, Note_on_c, 0, 81, 64
2, 215264, Note_on_c, 0, 72, 62
2, 215392, Note_on_c, 0, 81, 0
2, 215400, Note_on_c, 0, 72, 0
2, 215536, Note_on_c, 0, 79, 58
2, 215544, Note_on_c, 0, 71, 57
2, 215560, Note_on_c, 0, 53, 0
2, 215624, Note_on_c, 0, 71, 0
2, 215624, Note_on_c, 0, 79, 0
2, 215704, Note_on_c, 0, 77, 32
2, 215704, Note_on_c, 0, 79, 24
2, 215776, Note_on_c, 0, 77, 0
2, 215792, Note_on_c, 0, 79, 0
2, 215904, Note_on_c, 0, 79, 51
2, 215912, Note_on_c, 0, 52, 35
2, 215920, Note_on_c, 0, 67, 48
2, 215920, Control_c, 0, 64, 0
2, 215928, Note_on_c, 0, 59, 33
2, 215936, Note_on_c, 0, 74, 32
2, 215936, Note_on_c, 0, 62, 24
2, 216008, Note_on_c, 0, 74, 0
2, 216128, Control_c, 0, 64, 127
2, 216424, Note_on_c, 0, 62, 0
2, 216512, Note_on_c, 0, 59, 0
2, 216688, Note_on_c, 0, 67, 0
2, 217000, Note_on_c, 0, 67, 41
2, 217016, Note_on_c, 0, 79, 0
2, 217016, Note_on_c, 0, 59, 26
2, 217016, Note_on_c, 0, 62, 17
2, 217168, Note_on_c, 0, 67, 0
2, 217784, Note_on_c, 0, 67, 24
2, 217896, Note_on_c, 0, 67, 0
2, 217896, Note_on_c, 0, 69, 24
2, 217968, Note_on_c, 0, 69, 0
2, 217992, Note_on_c, 0, 71, 30
2, 218056, Note_on_c, 0, 71, 0
2, 218080, Note_on_c, 0, 72, 42
2, 218096, Note_on_c, 0, 62, 0
2, 218104, Note_on_c, 0, 59, 0
2, 218136, Note_on_c, 0, 72, 0
2, 218152, Note_on_c, 0, 52, 0
2, 218160, Note_on_c, 0, 74, 32
2, 218200, Note_on_c, 0, 74, 0
2, 218224, Note_on_c, 0, 76, 40
2, 218264, Note_on_c, 0, 76, 0
2, 218288, Note_on_c, 0, 77, 43
2, 218336, Note_on_c, 0, 77, 0
2, 218360, Note_on_c, 0, 79, 40
2, 218400, Note_on_c, 0, 79, 0
2, 218432, Note_on_c, 0, 81, 45
2, 218488, Note_on_c, 0, 81, 0
2, 218496, Note_on_c, 0, 83, 35
2, 218536, Note_on_c, 0, 83, 0
2, 218576, Note_on_c, 0, 84, 44
2, 218600, Note_on_c, 0, 84, 0
2, 218632, Note_on_c, 0, 86, 50
2, 218664, Note_on_c, 0, 86, 0
2, 218696, Note_on_c, 0, 88, 43
2, 218736, Note_on_c, 0, 88, 0
2, 218752, Note_on_c, 0, 89, 41
2, 218800, Note_on_c, 0, 89, 0
2, 218824, Note_on_c, 0, 91, 36
2, 218880, Note_on_c, 0, 91, 0
2, 218896, Note_on_c, 0, 93, 40
2, 218928, Note_on_c, 0, 93, 0
2, 218952, Note_on_c, 0, 95, 38
2, 218984, Note_on_c, 0, 95, 0
2, 218992, Note_on_c, 0, 96, 65
2, 219008, Note_on_c, 0, 45, 37
2, 219016, Note_on_c, 0, 55, 41
2, 219032, Control_c, 0, 64, 0
2, 219192, Control_c, 0, 64, 127
2, 219336, Note_on_c, 0, 45, 0
2, 219384, Note_on_c, 0, 55, 0
2, 219912, Note_on_c, 0, 64, 24
2, 219928, Note_on_c, 0, 59, 40
2, 219936, Note_on_c, 0, 60, 40
2, 220392, Note_on_c, 0, 96, 0
2, 221104, Note_on_c, 0, 76, 53
2, 221120, Note_on_c, 0, 64, 0
2, 221152, Note_on_c, 0, 60, 0
2, 221176, Note_on_c, 0, 59, 0
2, 221360, Note_on_c, 0, 77, 20
2, 221392, Note_on_c, 0, 76, 0
2, 221392, Note_on_c, 0, 78, 45
2, 221472, Note_on_c, 0, 77, 0
2, 221488, Note_on_c, 0, 78, 0
2, 221504, Note_on_c, 0, 79, 60
2, 221664, Note_on_c, 0, 76, 32
2, 221680, Note_on_c, 0, 79, 0
2, 221728, Note_on_c, 0, 76, 0
2, 221776, Note_on_c, 0, 77, 52
2, 221792, Control_c, 0, 64, 0
2, 221792, Note_on_c, 0, 57, 29
2, 221800, Note_on_c, 0, 60, 25
2, 221808, Note_on_c, 0, 50, 24
2, 222008, Note_on_c, 0, 74, 33
2, 222120, Control_c, 0, 64, 127
2, 222376, Note_on_c, 0, 60, 0
2, 222448, Note_on_c, 0, 57, 0
2, 222712, Note_on_c, 0, 74, 0
2, 222752, Note_on_c, 0, 57, 25
2, 222760, Note_on_c, 0, 69, 30
2, 222768, Note_on_c, 0, 60, 24
2, 223016, Note_on_c, 0, 77, 0
2, 223056, Note_on_c, 0, 69, 0
2, 223208, Note_on_c, 0, 60, 0
2, 223360, Note_on_c, 0, 57, 0
2, 224000, Note_on_c, 0, 50, 0
2, 224000, Note_on_c, 0, 57, 60
2, 224096, Note_on_c, 0, 57, 0
2, 224288, Note_on_c, 0, 57, 58
2, 224360, Note_on_c, 0, 57, 0
2, 224560, Note_on_c, 0, 55, 54
2, 224568, Note_on_c, 0, 56, 43
2, 224592, Note_on_c, 0, 43, 34
2, 224608, Note_on_c, 0, 31, 34
2, 224624, Note_on_c, 0, 56, 0
2, 224624, Control_c, 0, 64, 0
2, 224632, Note_on_c, 0, 55, 0
2, 224648, Note_on_c, 0, 57, 42
2, 224848, Note_on_c, 0, 60, 64
2, 224968, Control_c, 0, 64, 127
2, 225216, Note_on_c, 0, 60, 0
2, 225256, Note_on_c, 0, 57, 0
2, 225320, Note_on_c, 0, 43, 0
2, 225552, Note_on_c, 0, 43, 35
2, 225560, Note_on_c, 0, 53, 28
2, 225568, Note_on_c, 0, 57, 32
2, 225568, Note_on_c, 0, 60, 36
2, 225592, Control_c, 0, 64, 0
2, 225736, Control_c, 0, 64, 127
2, 226120, Note_on_c, 0, 57, 0
2, 226168, Note_on_c, 0, 31, 0
2, 226296, Note_on_c, 0, 60, 0
2, 226320, Note_on_c, 0, 53, 0
2, 226664, Note_on_c, 0, 43, 0
2, 226778, Note_on_c, 0, 59, 35
2, 226938, Note_on_c, 0, 59, 0
2, 227749, Control_c, 0, 64, 0
2, 227770, Note_on_c, 0, 67, 63
2, 227798, Note_on_c, 0, 36, 47
2, 227933, Control_c, 0, 64, 127
2, 228310, Note_on_c, 0, 43, 34
2, 228759, Note_on_c, 0, 36, 0
2, 228839, Note_on_c, 0, 52, 36
2, 229360, Note_on_c, 0, 57, 35
2, 229574, Note_on_c, 0, 67, 0
2, 229727, Note_on_c, 0, 43, 0
2, 229793, Note_on_c, 0, 57, 0
2, 229882, Note_on_c, 0, 62, 39
2, 230028, Note_on_c, 0, 62, 0
2, 230338, Note_on_c, 0, 67, 71
2, 230403, Note_on_c, 0, 52, 0
2, 230584, Note_on_c, 0, 67, 0
2, 230696, Note_on_c, 0, 74, 88
2, 230730, Control_c, 0, 64, 0
2, 230732, Note_on_c, 0, 45, 42
2, 230949, Control_c, 0, 64, 127
2, 231007, Note_on_c, 0, 52, 56
2, 231300, Note_on_c, 0, 74, 0
2, 231328, Note_on_c, 0, 45, 0
2, 231345, Note_on_c, 0, 67, 48
2, 231355, Note_on_c, 0, 60, 57
2, 231370, Note_on_c, 0, 52, 0
2, 231379, Note_on_c, 0, 57, 55
2, 231755, Note_on_c, 0, 59, 74
2, 231779, Note_on_c, 0, 60, 0
2, 231805, Note_on_c, 0, 57, 0
2, 232096, Note_on_c, 0, 67, 0
2, 232290, Note_on_c, 0, 67, 58
2, 232290, Note_on_c, 0, 60, 52
2, 232294, Note_on_c, 0, 59, 0
2, 232860, Note_on_c, 0, 72, 55
2, 233048, Note_on_c, 0, 60, 0
2, 233423, Note_on_c, 0, 72, 0
2, 233691, Note_on_c, 0, 67, 0
2, 234442, Control_c, 0, 64, 0
2, 235189, Note_on_c, 0, 71, 36
2, 235201, Note_on_c, 0, 48, 17
2, 235216, Note_on_c, 0, 67, 42
2, 235220, Note_on_c, 0, 41, 33
2, 235222, Note_on_c, 0, 64, 40
2, 235226, Note_on_c, 0, 62, 22
2, 235376, Control_c, 0, 64, 127
2, 235969, Note_on_c, 0, 64, 0
2, 236022, Note_on_c, 0, 62, 0
2, 236425, Note_on_c, 0, 62, 27
2, 236443, Note_on_c, 0, 64, 30
2, 236481, Note_on_c, 0, 57, 32
2, 236980, Note_on_c, 0, 62, 0
2, 237008, Note_on_c, 0, 67, 0
2, 237078, Note_on_c, 0, 64, 0
2, 237216, Note_on_c, 0, 71, 0
2, 237286, Note_on_c, 0, 41, 0
2, 237386, Note_on_c, 0, 48, 0
2, 237411, Note_on_c, 0, 57, 0
2, 237971, Note_on_c, 0, 81, 63
2, 237987, Note_on_c, 0, 76, 60
2, 238001, Note_on_c, 0, 71, 53
2, 238025, Note_on_c, 0, 65, 34
2, 238286, Note_on_c, 0, 81, 0
2, 238336, Note_on_c, 0, 76, 0
2, 238427, Note_on_c, 0, 71, 0
2, 238604, Note_on_c, 0, 65, 0
2, 238619, Note_on_c, 0, 79, 48
2, 238633, Control_c, 0, 64, 0
2, 238639, Note_on_c, 0, 69, 33
2, 238641, Note_on_c, 0, 74, 51
2, 238648, Note_on_c, 0, 64, 31
2, 238800, Control_c, 0, 64, 127
2, 239372, Note_on_c, 0, 74, 0
2, 239392, Note_on_c, 0, 79, 0
2, 239428, Note_on_c, 0, 69, 0
2, 240161, Note_on_c, 0, 77, 46
2, 240165, Note_on_c, 0, 64, 0
2, 240184, Note_on_c, 0, 72, 44
2, 240201, Note_on_c, 0, 67, 38
2, 240214, Note_on_c, 0, 62, 27
2, 241246, Note_on_c, 0, 62, 0
2, 242019, Note_on_c, 0, 77, 0
2, 242118, Note_on_c, 0, 72, 0
2, 242230, Note_on_c, 0, 67, 0
2, 242899, Note_on_c, 0, 76, 46
2, 242917, Note_on_c, 0, 71, 52
2, 242918, Note_on_c, 0, 68, 27
2, 242947, Control_c, 0, 64, 0
2, 242961, Note_on_c, 0, 64, 26
2, 242963, Note_on_c, 0, 48, 17
2, 243313, Control_c, 0, 64, 127
2, 243552, Note_on_c, 0, 56, 21
2, 243920, Note_on_c, 0, 48, 0
2, 243992, Note_on_c, 0, 56, 0
2, 244018, Note_on_c, 0, 59, 30
2, 244354, Note_on_c, 0, 59, 0
2, 244364, Note_on_c, 0, 60, 33
2, 244429, Note_on_c, 0, 64, 0
2, 244562, Note_on_c, 0, 76, 0
2, 244636, Note_on_c, 0, 71, 0
2, 244673, Note_on_c, 0, 68, 0
2, 244699, Note_on_c, 0, 64, 37
2, 244925, Note_on_c, 0, 64, 0
2, 245435, Note_on_c, 0, 60, 0
2, 245843, Note_on_c, 0, 48, 30
2, 246127, Note_on_c, 0, 56, 23
2, 246405, Note_on_c, 0, 59, 32
2, 246687, Note_on_c, 0, 60, 28
2, 246824, Note_on_c, 0, 60, 0
2, 247285, Note_on_c, 0, 64, 43
2, 247916, Note_on_c, 0, 48, 0
2, 248130, Note_on_c, 0, 56, 0
2, 248131, Note_on_c, 0, 59, 0
2, 248161, Note_on_c, 0, 48, 24
2, 248199, Control_c, 0, 64, 0
2, 248398, Control_c, 0, 64, 127
2, 248500, Note_on_c, 0, 56, 18
2, 248867, Note_on_c, 0, 59, 28
2, 249040, Note_on_c, 0, 64, 0
2, 249173, Note_on_c, 0, 59, 0
2, 249673, Note_on_c, 0, 64, 33
2, 249776, Note_on_c, 0, 64, 0
2, 250293, Note_on_c, 0, 71, 24
2, 250634, Note_on_c, 0, 71, 0
2, 250835, Note_on_c, 0, 83, 31
2, 251085, Note_on_c, 0, 83, 0
2, 252093, Note_on_c, 0, 56, 0
2, 252116, Note_on_c, 0, 48, 0
2, 253955, Control_c, 0, 64, 0
2, 253955, End_track
3, 0, Start_track
3, 0, Title_t, "Bass"
3, 0, Program_c, 1, 32
3, 0, Control_c, 1, 7, 110
3, 0, Control_c, 1, 91, 0
3, 0, Control_c, 1, 93, 0
3, 123840, Note_on_c, 1, 36, 78
3, 126112, Note_on_c, 1, 43, 71
3, 126184, Note_on_c, 1, 43, 0
3, 126384, Note_on_c, 1, 50, 99
3, 126408, Note_on_c, 1, 36, 0
3, 126680, Note_on_c, 1, 50, 0
3, 126696, Note_on_c, 1, 48, 90
3, 127768, Note_on_c, 1, 40, 83
3, 127816, Note_on_c, 1, 48, 0
3, 128624, Note_on_c, 1, 33, 69
3, 128640, Note_on_c, 1, 40, 0
3, 129480, Note_on_c, 1, 33, 0
3, 129600, Note_on_c, 1, 29, 64
3, 132488, Note_on_c, 1, 29, 0
3, 132496, Note_on_c, 1, 28, 69
3, 133432, Note_on_c, 1, 40, 101
3, 133728, Note_on_c, 1, 28, 0
3, 135328, Note_on_c, 1, 41, 76
3, 135360, Note_on_c, 1, 40, 0
3, 138288, Note_on_c, 1, 40, 74
3, 138312, Note_on_c, 1, 41, 0
3, 141128, Note_on_c, 1, 40, 0
3, 141128, Note_on_c, 1, 35, 76
3, 141472, Note_on_c, 1, 33, 34
3, 141576, Note_on_c, 1, 33, 0
3, 142016, Note_on_c, 1, 35, 0
3, 142016, Note_on_c, 1, 41, 95
3, 144040, Note_on_c, 1, 41, 0
3, 144040, Note_on_c, 1, 40, 68
3, 145456, Note_on_c, 1, 52, 85
3, 145520, Note_on_c, 1, 40, 0
3, 146840, Note_on_c, 1, 52, 0
3, 146840, Note_on_c, 1, 33, 71
3, 149296, Note_on_c, 1, 33, 0
3, 149304, Note_on_c, 1, 45, 68
3, 149576, Note_on_c, 1, 42, 56
3, 149640, Note_on_c, 1, 45, 0
3, 149792, Note_on_c, 1, 42, 0
3, 149816, Note_on_c, 1, 43, 67
3, 152592, Note_on_c, 1, 41, 81
3, 152616, Note_on_c, 1, 43, 0
3, 154864, Note_on_c, 1, 35, 66
3, 154928, Note_on_c, 1, 35, 0
3, 154976, Note_on_c, 1, 41, 0
3, 155184, Note_on_c, 1, 33, 65
3, 155512, Note_on_c, 1, 34, 74
3, 155520, Note_on_c, 1, 33, 0
3, 157808, Note_on_c, 1, 34, 0
3, 157928, Note_on_c, 1, 33, 36
3, 158080, Note_on_c, 1, 33, 0
3, 158160, Note_on_c, 1, 34, 70
3, 158400, Note_on_c, 1, 34, 0
3, 158424, Note_on_c, 1, 33, 70
3, 158888, Note_on_c, 1, 45, 89
3, 158944, Note_on_c, 1, 33, 0
3, 159256, Note_on_c, 1, 45, 0
3, 159312, Note_on_c, 1, 45, 80
3, 160360, Note_on_c, 1, 43, 83
3, 160392, Note_on_c, 1, 45, 0
3, 161272, Note_on_c, 1, 43, 0
3, 161296, Note_on_c, 1, 42, 80
3, 162288, Note_on_c, 1, 35, 66
3, 162296, Note_on_c, 1, 42, 0
3, 163728, Note_on_c, 1, 35, 0
3, 163728, Note_on_c, 1, 42, 71
3, 164192, Note_on_c, 1, 42, 0
3, 164248, Note_on_c, 1, 40, 78
3, 165160, Note_on_c, 1, 40, 0
3, 165168, Note_on_c, 1, 33, 71
3, 167040, Note_on_c, 1, 33, 0
3, 167048, Note_on_c, 1, 38, 74
3, 167560, Note_on_c, 1, 45, 74
3, 167592, Note_on_c, 1, 38, 0
3, 168008, Note_on_c, 1, 45, 0
3, 168024, Note_on_c, 1, 39, 21
3, 168056, Note_on_c, 1, 39, 0
3, 168064, Note_on_c, 1, 43, 80
3, 168528, Note_on_c, 1, 31, 58
3, 168616, Note_on_c, 1, 43, 0
3, 169912, Note_on_c, 1, 36, 75
3, 169936, Note_on_c, 1, 31, 0
3, 172600, Note_on_c, 1, 34, 58
3, 172624, Note_on_c, 1, 36, 0
3, 172664, Note_on_c, 1, 34, 0
3, 172800, Note_on_c, 1, 32, 64
3, 172864, Note_on_c, 1, 32, 0
3, 172936, Note_on_c, 1, 33, 80
3, 174360, Note_on_c, 1, 33, 0
3, 174360, Note_on_c, 1, 45, 91
3, 175248, Note_on_c, 1, 40, 61
3, 175328, Note_on_c, 1, 45, 0
3, 175464, Note_on_c, 1, 40, 0
3, 175496, Note_on_c, 1, 36, 50
3, 175728, Note_on_c, 1, 36, 0
3, 175736, Note_on_c, 1, 41, 78
3, 178536, Note_on_c, 1, 41, 0
3, 178536, Note_on_c, 1, 40, 75
3, 181392, Note_on_c, 1, 41, 85
3, 181448, Note_on_c, 1, 40, 0
3, 183320, Note_on_c, 1, 53, 89
3, 183400, Note_on_c, 1, 41, 0
3, 184200, Note_on_c, 1, 53, 0
3, 184256, Note_on_c, 1, 52, 78
3, 185600, Control_c, 1, 64, 127
3, 186192, Note_on_c, 1, 52, 0
3, 186192, Control_c, 1, 64, 0
3, 186256, Note_on_c, 1, 36, 72
3, 186368, Control_c, 1, 64, 127
3, 187024, Note_on_c, 1, 36, 0
3, 187208, Note_on_c, 1, 35, 108
3, 187240, Control_c, 1, 64, 0
3, 189520, Note_on_c, 1, 35, 0
3, 189536, Note_on_c, 1, 29, 94
3, 189552, Note_on_c, 1, 35, 29
3, 189592, Note_on_c, 1, 35, 0
3, 189744, Note_on_c, 1, 29, 0
3, 190008, Note_on_c, 1, 28, 101
3, 190992, Note_on_c, 1, 40, 90
3, 192272, Note_on_c, 1, 28, 0
3, 192328, Note_on_c, 1, 31, 69
3, 192608, Note_on_c, 1, 31, 0
3, 192648, Note_on_c, 1, 32, 71
3, 192704, Note_on_c, 1, 40, 0
3, 192992, Note_on_c, 1, 32, 0
3, 193008, Note_on_c, 1, 33, 75
3, 194960, Note_on_c, 1, 33, 0
3, 194960, Note_on_c, 1, 45, 99
3, 195832, Note_on_c, 1, 43, 91
3, 195880, Note_on_c, 1, 45, 0
3, 197736, Note_on_c, 1, 31, 84
3, 197768, Note_on_c, 1, 43, 0
3, 198632, Note_on_c, 1, 31, 0
3, 198656, Note_on_c, 1, 30, 80
3, 199600, Note_on_c, 1, 42, 86
3, 199696, Note_on_c, 1, 30, 0
3, 199800, Note_on_c, 1, 30, 25
3, 199944, Note_on_c, 1, 30, 0
3, 201536, Note_on_c, 1, 41, 89
3, 201544, Note_on_c, 1, 42, 0
3, 202488, Note_on_c, 1, 29, 84
3, 202552, Note_on_c, 1, 41, 0
3, 204416, Note_on_c, 1, 29, 0
3, 204480, Note_on_c, 1, 28, 91
3, 206904, Note_on_c, 1, 40, 95
3, 207304, Note_on_c, 1, 40, 0
3, 207312, Note_on_c, 1, 28, 0
3, 207312, Note_on_c, 1, 34, 14
3, 207352, Note_on_c, 1, 34, 0
3, 207368, Note_on_c, 1, 41, 80
3, 209256, Note_on_c, 1, 29, 78
3, 209320, Note_on_c, 1, 41, 0
3, 210288, Note_on_c, 1, 40, 91
3, 210344, Note_on_c, 1, 29, 0
3, 212144, Note_on_c, 1, 28, 91
3, 212200, Note_on_c, 1, 40, 0
3, 212976, Note_on_c, 1, 28, 0
3, 213024, Note_on_c, 1, 29, 87
3, 214984, Note_on_c, 1, 41, 94
3, 215264, Note_on_c, 1, 29, 0
3, 215944, Note_on_c, 1, 40, 91
3, 216000, Note_on_c, 1, 41, 0
3, 218216, Note_on_c, 1, 35, 77
3, 218288, Note_on_c, 1, 35, 0
3, 218296, Note_on_c, 1, 40, 0
3, 218544, Note_on_c, 1, 34, 76
3, 218824, Note_on_c, 1, 34, 0
3, 218864, Note_on_c, 1, 33, 75
3, 219888, Note_on_c, 1, 45, 91
3, 219992, Note_on_c, 1, 33, 0
3, 220024, Note_on_c, 1, 33, 18
3, 220152, Note_on_c, 1, 33, 0
3, 221112, Note_on_c, 1, 40, 66
3, 221296, Note_on_c, 1, 40, 0
3, 221304, Note_on_c, 1, 45, 0
3, 221392, Note_on_c, 1, 37, 69
3, 221728, Note_on_c, 1, 37, 0
3, 221744, Note_on_c, 1, 38, 74
3, 223216, Note_on_c, 1, 32, 80
3, 223272, Note_on_c, 1, 38, 0
3, 224136, Note_on_c, 1, 32, 0
3, 224184, Note_on_c, 1, 32, 82
3, 224592, Note_on_c, 1, 32, 0
3, 224648, Note_on_c, 1, 31, 79
3, 225608, Note_on_c, 1, 43, 94
3, 225680, Note_on_c, 1, 31, 0
3, 227680, Note_on_c, 1, 43, 0
3, 227680, End_track
4, 0, Start_track
4, 0, Title_t, "Ride"
4, 0, Program_c, 9, 40
4, 0, Control_c, 9, 7, 98
4, 123840, Note_on_c, 9, 59, 44
4, 123872, Note_on_c, 9, 49, 26
4, 123968, Note_on_c, 9, 49, 0
4, 124600, Note_on_c, 9, 59, 0
4, 124816, Note_on_c, 9, 59, 44
4, 125568, Note_on_c, 9, 59, 0
4, 125728, Note_on_c, 9, 59, 39
4, 126416, Note_on_c, 9, 59, 0
4, 126600, Note_on_c, 9, 59, 63
4, 127512, Note_on_c, 9, 59, 0
4, 127656, Note_on_c, 9, 59, 57
4, 127696, Note_on_c, 9, 44, 35
4, 127792, Note_on_c, 9, 44, 0
4, 128568, Note_on_c, 9, 59, 0
4, 128704, Note_on_c, 9, 59, 47
4, 129504, Note_on_c, 9, 59, 0
4, 129632, Note_on_c, 9, 59, 57
4, 130360, Note_on_c, 9, 59, 0
4, 130552, Note_on_c, 9, 59, 46
4, 130592, Note_on_c, 9, 44, 34
4, 130728, Note_on_c, 9, 44, 0
4, 130896, Note_on_c, 9, 53, 67
4, 130904, Note_on_c, 9, 59, 0
4, 131064, Note_on_c, 9, 53, 0
4, 131120, Note_on_c, 9, 59, 37
4, 131368, Note_on_c, 9, 59, 0
4, 131504, Note_on_c, 9, 44, 34
4, 131552, Note_on_c, 9, 59, 37
4, 131624, Note_on_c, 9, 44, 0
4, 132312, Note_on_c, 9, 59, 0
4, 132480, Note_on_c, 9, 59, 29
4, 133312, Note_on_c, 9, 59, 0
4, 133424, Note_on_c, 9, 59, 49
4, 134192, Note_on_c, 9, 59, 0
4, 134384, Note_on_c, 9, 59, 64
4, 134392, Note_on_c, 9, 59, 49
4, 134424, Note_on_c, 9, 59, 0
4, 134680, Note_on_c, 9, 53, 67
4, 134704, Note_on_c, 9, 59, 0
4, 134832, Note_on_c, 9, 53, 0
4, 134872, Note_on_c, 9, 59, 63
4, 135200, Note_on_c, 9, 59, 0
4, 135360, Note_on_c, 9, 59, 42
4, 136128, Note_on_c, 9, 59, 0
4, 136320, Note_on_c, 9, 44, 33
4, 136320, Note_on_c, 9, 59, 43
4, 136368, Note_on_c, 9, 44, 0
4, 137120, Note_on_c, 9, 59, 0
4, 137296, Note_on_c, 9, 59, 51
4, 138056, Note_on_c, 9, 36, 16
4, 138072, Note_on_c, 9, 59, 0
4, 138112, Note_on_c, 9, 36, 0
4, 138240, Note_on_c, 9, 59, 42
4, 139088, Note_on_c, 9, 59, 0
4, 139272, Note_on_c, 9, 59, 54
4, 140016, Note_on_c, 9, 59, 0
4, 140192, Note_on_c, 9, 59, 44
4, 140552, Note_on_c, 9, 59, 0
4, 140640, Note_on_c, 9, 53, 42
4, 140792, Note_on_c, 9, 53, 0
4, 141016, Note_on_c, 9, 36, 20
4, 141072, Note_on_c, 9, 36, 0
4, 141136, Note_on_c, 9, 59, 33
4, 141200, Note_on_c, 9, 36, 18
4, 141288, Note_on_c, 9, 36, 0
4, 141416, Note_on_c, 9, 59, 0
4, 141624, Note_on_c, 9, 59, 50
4, 142008, Note_on_c, 9, 59, 0
4, 142144, Note_on_c, 9, 59, 50
4, 142384, Note_on_c, 9, 53, 37
4, 142424, Note_on_c, 9, 53, 0
4, 142560, Note_on_c, 9, 36, 15
4, 142584, Note_on_c, 9, 53, 31
4, 142624, Note_on_c, 9, 59, 0
4, 142648, Note_on_c, 9, 36, 0
4, 142872, Note_on_c, 9, 53, 0
4, 142960, Note_on_c, 9, 59, 63
4, 143016, Note_on_c, 9, 36, 20
4, 143160, Note_on_c, 9, 36, 0
4, 143336, Note_on_c, 9, 59, 0
4, 143472, Note_on_c, 9, 59, 71
4, 143912, Note_on_c, 9, 59, 0
4, 144000, Note_on_c, 9, 59, 47
4, 144512, Note_on_c, 9, 59, 0
4, 144992, Note_on_c, 9, 59, 53
4, 145032, Note_on_c, 9, 59, 84
4, 145080, Note_on_c, 9, 59, 0
4, 145528, Note_on_c, 9, 59, 0
4, 145944, Note_on_c, 9, 59, 61
4, 145984, Note_on_c, 9, 59, 64
4, 146040, Note_on_c, 9, 59, 0
4, 146408, Note_on_c, 9, 59, 0
4, 146416, Note_on_c, 9, 53, 46
4, 146672, Note_on_c, 9, 53, 0
4, 146920, Note_on_c, 9, 59, 42
4, 147712, Note_on_c, 9, 59, 0
4, 147824, Note_on_c, 9, 59, 30
4, 147872, Note_on_c, 9, 44, 56
4, 147928, Note_on_c, 9, 44, 0
4, 148624, Note_on_c, 9, 59, 0
4, 148776, Note_on_c, 9, 59, 40
4, 149040, Note_on_c, 9, 53, 58
4, 149048, Note_on_c, 9, 59, 0
4, 149168, Note_on_c, 9, 53, 0
4, 149224, Note_on_c, 9, 59, 49
4, 149408, Note_on_c, 9, 59, 0
4, 149656, Note_on_c, 9, 36, 16
4, 149696, Note_on_c, 9, 36, 0
4, 149768, Note_on_c, 9, 59, 50
4, 149824, Note_on_c, 9, 36, 34
4, 149912, Note_on_c, 9, 36, 0
4, 150608, Note_on_c, 9, 59, 0
4, 150800, Note_on_c, 9, 59, 36
4, 150808, Note_on_c, 9, 44, 52
4, 150888, Note_on_c, 9, 44, 0
4, 151464, Note_on_c, 9, 59, 0
4, 151696, Note_on_c, 9, 59, 42
4, 152144, Note_on_c, 9, 59, 0
4, 152144, Note_on_c, 9, 53, 49
4, 152376, Note_on_c, 9, 53, 0
4, 152432, Note_on_c, 9, 53, 47
4, 152472, Note_on_c, 9, 53, 0
4, 152592, Note_on_c, 9, 36, 35
4, 152608, Note_on_c, 9, 59, 40
4, 152800, Note_on_c, 9, 36, 0
4, 153128, Note_on_c, 9, 36, 33
4, 153232, Note_on_c, 9, 36, 0
4, 153624, Note_on_c, 9, 44, 37
4, 153656, Note_on_c, 9, 59, 0
4, 153680, Note_on_c, 9, 44, 0
4, 154064, Note_on_c, 9, 59, 40
4, 154280, Note_on_c, 9, 59, 0
4, 154552, Note_on_c, 9, 59, 44
4, 154800, Note_on_c, 9, 53, 59
4, 154808, Note_on_c, 9, 59, 0
4, 154960, Note_on_c, 9, 53, 0
4, 155008, Note_on_c, 9, 59, 43
4, 155312, Note_on_c, 9, 59, 0
4, 155488, Note_on_c, 9, 59, 58
4, 155528, Note_on_c, 9, 36, 30
4, 155632, Note_on_c, 9, 36, 0
4, 156464, Note_on_c, 9, 44, 50
4, 156512, Note_on_c, 9, 44, 0
4, 156632, Note_on_c, 9, 59, 0
4, 156920, Note_on_c, 9, 59, 44
4, 157160, Note_on_c, 9, 59, 0
4, 157416, Note_on_c, 9, 46, 40
4, 157416, Note_on_c, 9, 59, 40
4, 157512, Note_on_c, 9, 46, 0
4, 157928, Note_on_c, 9, 53, 40
4, 157936, Note_on_c, 9, 59, 0
4, 158136, Note_on_c, 9, 53, 0
4, 158224, Note_on_c, 9, 36, 23
4, 158272, Note_on_c, 9, 36, 0
4, 158416, Note_on_c, 9, 49, 35
4, 158440, Note_on_c, 9, 59, 29
4, 158520, Note_on_c, 9, 49, 0
4, 159200, Note_on_c, 9, 59, 0
4, 159360, Note_on_c, 9, 59, 42
4, 160080, Note_on_c, 9, 59, 0
4, 160304, Note_on_c, 9, 59, 37
4, 160576, Note_on_c, 9, 53, 53
4, 160592, Note_on_c, 9, 59, 0
4, 160712, Note_on_c, 9, 53, 0
4, 160792, Note_on_c, 9, 59, 49
4, 161064, Note_on_c, 9, 36, 28
4, 161152, Note_on_c, 9, 36, 0
4, 161160, Note_on_c, 9, 59, 0
4, 161288, Note_on_c, 9, 36, 23
4, 161320, Note_on_c, 9, 59, 46
4, 161560, Note_on_c, 9, 36, 0
4, 161848, Note_on_c, 9, 36, 21
4, 161976, Note_on_c, 9, 36, 0
4, 162112, Note_on_c, 9, 59, 0
4, 162280, Note_on_c, 9, 59, 37
4, 162808, Note_on_c, 9, 53, 40
4, 162872, Note_on_c, 9, 59, 0
4, 163168, Note_on_c, 9, 53, 0
4, 163280, Note_on_c, 9, 59, 37
4, 163856, Note_on_c, 9, 59, 0
4, 164224, Note_on_c, 9, 59, 44
4, 164472, Note_on_c, 9, 53, 35
4, 164512, Note_on_c, 9, 53, 0
4, 164672, Note_on_c, 9, 53, 38
4, 164720, Note_on_c, 9, 53, 0
4, 165048, Note_on_c, 9, 59, 0
4, 165200, Note_on_c, 9, 59, 50
4, 165784, Note_on_c, 9, 59, 0
4, 166184, Note_on_c, 9, 59, 63
4, 166496, Note_on_c, 9, 59, 0
4, 166624, Note_on_c, 9, 59, 49
4, 166872, Note_on_c, 9, 59, 0
4, 167088, Note_on_c, 9, 59, 35
4, 167136, Note_on_c, 9, 36, 28
4, 167184, Note_on_c, 9, 36, 0
4, 167328, Note_on_c, 9, 53, 60
4, 167336, Note_on_c, 9, 59, 0
4, 167488, Note_on_c, 9, 53, 0
4, 167536, Note_on_c, 9, 59, 40
4, 167792, Note_on_c, 9, 59, 0
4, 168008, Note_on_c, 9, 59, 44
4, 168056, Note_on_c, 9, 59, 88
4, 168096, Note_on_c, 9, 59, 0
4, 168512, Note_on_c, 9, 59, 0
4, 168520, Note_on_c, 9, 59, 88
4, 168536, Note_on_c, 9, 53, 29
4, 168592, Note_on_c, 9, 59, 0
4, 168664, Note_on_c, 9, 53, 0
4, 169048, Note_on_c, 9, 59, 77
4, 169232, Note_on_c, 9, 59, 0
4, 169488, Note_on_c, 9, 59, 57
4, 169496, Note_on_c, 9, 53, 64
4, 169496, Note_on_c, 9, 59, 88
4, 169560, Note_on_c, 9, 53, 0
4, 169568, Note_on_c, 9, 59, 0
4, 169576, Note_on_c, 9, 59, 0
4, 169928, Note_on_c, 9, 46, 48
4, 169928, Note_on_c, 9, 59, 39
4, 169944, Note_on_c, 9, 53, 36
4, 169952, Note_on_c, 9, 59, 88
4, 169960, Note_on_c, 9, 53, 55
4, 169992, Note_on_c, 9, 46, 0
4, 170016, Note_on_c, 9, 53, 0
4, 170024, Note_on_c, 9, 53, 0
4, 170048, Note_on_c, 9, 59, 0
4, 170064, Note_on_c, 9, 59, 0
4, 171344, Note_on_c, 9, 59, 30
4, 171432, Note_on_c, 9, 59, 0
4, 171768, Note_on_c, 9, 59, 35
4, 172024, Note_on_c, 9, 59, 0
4, 172088, Note_on_c, 9, 53, 44
4, 172208, Note_on_c, 9, 53, 0
4, 172264, Note_on_c, 9, 59, 37
4, 172520, Note_on_c, 9, 59, 0
4, 172712, Note_on_c, 9, 59, 43
4, 173544, Note_on_c, 9, 59, 0
4, 173760, Note_on_c, 9, 59, 32
4, 174432, Note_on_c, 9, 59, 0
4, 174672, Note_on_c, 9, 59, 33
4, 175184, Note_on_c, 9, 59, 0
4, 175184, Note_on_c, 9, 53, 42
4, 175560, Note_on_c, 9, 36, 18
4, 175584, Note_on_c, 9, 53, 0
4, 175648, Note_on_c, 9, 36, 0
4, 175648, Note_on_c, 9, 59, 37
4, 175760, Note_on_c, 9, 36, 23
4, 175960, Note_on_c, 9, 36, 0
4, 176272, Note_on_c, 9, 36, 22
4, 176384, Note_on_c, 9, 59, 0
4, 176432, Note_on_c, 9, 36, 0
4, 176640, Note_on_c, 9, 59, 37
4, 177408, Note_on_c, 9, 59, 0
4, 177560, Note_on_c, 9, 59, 42
4, 177864, Note_on_c, 9, 59, 0
4, 177872, Note_on_c, 9, 53, 62
4, 178024, Note_on_c, 9, 53, 0
4, 178064, Note_on_c, 9, 59, 50
4, 178096, Note_on_c, 9, 59, 67
4, 178144, Note_on_c, 9, 59, 0
4, 178416, Note_on_c, 9, 59, 0
4, 178568, Note_on_c, 9, 59, 49
4, 179312, Note_on_c, 9, 59, 0
4, 179504, Note_on_c, 9, 59, 39
4, 180064, Note_on_c, 9, 59, 0
4, 180344, Note_on_c, 9, 59, 63
4, 180400, Note_on_c, 9, 59, 0
4, 180440, Note_on_c, 9, 59, 39
4, 180552, Note_on_c, 9, 59, 67
4, 180600, Note_on_c, 9, 59, 0
4, 180712, Note_on_c, 9, 59, 0
4, 181208, Note_on_c, 9, 59, 44
4, 181320, Note_on_c, 9, 36, 14
4, 181360, Note_on_c, 9, 36, 0
4, 181480, Note_on_c, 9, 59, 0
4, 181504, Note_on_c, 9, 36, 25
4, 181552, Note_on_c, 9, 36, 0
4, 181920, Note_on_c, 9, 59, 36
4, 181960, Note_on_c, 9, 36, 25
4, 182064, Note_on_c, 9, 36, 0
4, 182216, Note_on_c, 9, 59, 0
4, 182360, Note_on_c, 9, 53, 50
4, 182456, Note_on_c, 9, 53, 0
4, 182664, Note_on_c, 9, 59, 29
4, 182904, Note_on_c, 9, 59, 0
4, 182992, Note_on_c, 9, 59, 47
4, 183032, Note_on_c, 9, 59, 0
4, 183400, Note_on_c, 9, 59, 42
4, 183728, Note_on_c, 9, 59, 0
4, 183824, Note_on_c, 9, 53, 34
4, 183920, Note_on_c, 9, 53, 0
4, 184072, Note_on_c, 9, 59, 44
4, 184168, Note_on_c, 9, 59, 0
4, 184320, Note_on_c, 9, 59, 40
4, 185056, Note_on_c, 9, 59, 0
4, 185288, Note_on_c, 9, 59, 43
4, 185688, Note_on_c, 9, 59, 0
4, 185720, Note_on_c, 9, 53, 55
4, 185816, Note_on_c, 9, 53, 0
4, 186304, Note_on_c, 9, 59, 49
4, 186584, Note_on_c, 9, 59, 0
4, 186760, Note_on_c, 9, 59, 42
4, 187008, Note_on_c, 9, 36, 24
4, 187016, Note_on_c, 9, 59, 0
4, 187064, Note_on_c, 9, 36, 0
4, 187232, Note_on_c, 9, 49, 35
4, 187248, Note_on_c, 9, 59, 39
4, 187320, Note_on_c, 9, 49, 0
4, 188008, Note_on_c, 9, 59, 0
4, 188192, Note_on_c, 9, 59, 29
4, 188728, Note_on_c, 9, 59, 0
4, 189056, Note_on_c, 9, 59, 33
4, 189080, Note_on_c, 9, 36, 30
4, 189136, Note_on_c, 9, 36, 0
4, 189296, Note_on_c, 9, 59, 0
4, 189352, Note_on_c, 9, 53, 50
4, 189488, Note_on_c, 9, 53, 0
4, 189552, Note_on_c, 9, 59, 26
4, 189840, Note_on_c, 9, 36, 22
4, 189856, Note_on_c, 9, 59, 0
4, 189912, Note_on_c, 9, 36, 0
4, 190032, Note_on_c, 9, 36, 44
4, 190032, Note_on_c, 9, 59, 39
4, 190136, Note_on_c, 9, 36, 0
4, 190344, Note_on_c, 9, 59, 0
4, 190544, Note_on_c, 9, 59, 33
4, 191264, Note_on_c, 9, 59, 0
4, 191544, Note_on_c, 9, 59, 29
4, 191608, Note_on_c, 9, 59, 0
4, 192016, Note_on_c, 9, 59, 54
4, 192304, Note_on_c, 9, 59, 0
4, 192328, Note_on_c, 9, 53, 62
4, 192456, Note_on_c, 9, 53, 0
4, 192480, Note_on_c, 9, 59, 50
4, 192800, Note_on_c, 9, 59, 0
4, 192968, Note_on_c, 9, 59, 54
4, 193792, Note_on_c, 9, 59, 0
4, 193992, Note_on_c, 9, 59, 37
4, 193992, Note_on_c, 9, 59, 65
4, 194032, Note_on_c, 9, 59, 0
4, 194440, Note_on_c, 9, 59, 79
4, 194480, Note_on_c, 9, 59, 0
4, 194720, Note_on_c, 9, 59, 0
4, 194920, Note_on_c, 9, 59, 29
4, 194920, Note_on_c, 9, 59, 84
4, 194968, Note_on_c, 9, 59, 0
4, 195160, Note_on_c, 9, 59, 0
4, 195400, Note_on_c, 9, 59, 42
4, 195712, Note_on_c, 9, 59, 0
4, 195888, Note_on_c, 9, 59, 39
4, 195952, Note_on_c, 9, 36, 22
4, 195992, Note_on_c, 9, 36, 0
4, 196472, Note_on_c, 9, 59, 0
4, 196848, Note_on_c, 9, 44, 52
4, 196856, Note_on_c, 9, 59, 58
4, 196920, Note_on_c, 9, 44, 0
4, 197240, Note_on_c, 9, 59, 0
4, 197744, Note_on_c, 9, 59, 32
4, 197824, Note_on_c, 9, 46, 49
4, 197864, Note_on_c, 9, 46, 0
4, 197936, Note_on_c, 9, 59, 0
4, 198272, Note_on_c, 9, 59, 40
4, 198512, Note_on_c, 9, 59, 0
4, 198552, Note_on_c, 9, 36, 26
4, 198624, Note_on_c, 9, 36, 0
4, 198792, Note_on_c, 9, 36, 14
4, 198848, Note_on_c, 9, 36, 0
4, 199000, Note_on_c, 9, 59, 85
4, 199232, Note_on_c, 9, 59, 0
4, 199640, Note_on_c, 9, 59, 56
4, 199960, Note_on_c, 9, 59, 0
4, 200592, Note_on_c, 9, 59, 50
4, 200624, Note_on_c, 9, 59, 81
4, 200656, Note_on_c, 9, 59, 0
4, 200784, Note_on_c, 9, 59, 0
4, 200912, Note_on_c, 9, 53, 53
4, 201048, Note_on_c, 9, 53, 0
4, 201096, Note_on_c, 9, 59, 42
4, 201304, Note_on_c, 9, 59, 0
4, 201440, Note_on_c, 9, 36, 21
4, 201504, Note_on_c, 9, 36, 0
4, 201552, Note_on_c, 9, 59, 53
4, 201688, Note_on_c, 9, 36, 16
4, 201728, Note_on_c, 9, 36, 0
4, 201936, Note_on_c, 9, 59, 0
4, 202520, Note_on_c, 9, 59, 37
4, 203216, Note_on_c, 9, 59, 0
4, 203456, Note_on_c, 9, 59, 36
4, 203696, Note_on_c, 9, 59, 0
4, 204464, Note_on_c, 9, 59, 46
4, 204472, Note_on_c, 9, 46, 35
4, 204648, Note_on_c, 9, 46, 0
4, 204760, Note_on_c, 9, 59, 0
4, 205464, Note_on_c, 9, 59, 39
4, 205512, Note_on_c, 9, 44, 51
4, 205568, Note_on_c, 9, 59, 0
4, 205592, Note_on_c, 9, 44, 0
4, 205736, Note_on_c, 9, 53, 52
4, 205848, Note_on_c, 9, 53, 0
4, 205920, Note_on_c, 9, 59, 44
4, 206128, Note_on_c, 9, 59, 0
4, 206416, Note_on_c, 9, 59, 50
4, 206472, Note_on_c, 9, 44, 53
4, 206584, Note_on_c, 9, 44, 0
4, 206608, Note_on_c, 9, 59, 0
4, 206880, Note_on_c, 9, 59, 42
4, 207064, Note_on_c, 9, 59, 0
4, 207232, Note_on_c, 9, 36, 25
4, 207312, Note_on_c, 9, 36, 0
4, 207368, Note_on_c, 9, 59, 56
4, 207416, Note_on_c, 9, 36, 19
4, 207488, Note_on_c, 9, 36, 0
4, 208056, Note_on_c, 9, 59, 0
4, 208296, Note_on_c, 9, 59, 40
4, 208368, Note_on_c, 9, 44, 59
4, 208488, Note_on_c, 9, 44, 0
4, 209064, Note_on_c, 9, 59, 0
4, 209328, Note_on_c, 9, 59, 39
4, 209512, Note_on_c, 9, 59, 0
4, 209768, Note_on_c, 9, 59, 42
4, 210072, Note_on_c, 9, 59, 0
4, 210256, Note_on_c, 9, 59, 50
4, 210280, Note_on_c, 9, 36, 30
4, 210344, Note_on_c, 9, 36, 0
4, 210568, Note_on_c, 9, 59, 0
4, 210768, Note_on_c, 9, 59, 40
4, 211032, Note_on_c, 9, 59, 0
4, 211048, Note_on_c, 9, 53, 56
4, 211184, Note_on_c, 9, 53, 0
4, 211232, Note_on_c, 9, 59, 50
4, 211312, Note_on_c, 9, 44, 37
4, 211384, Note_on_c, 9, 44, 0
4, 211904, Note_on_c, 9, 59, 0
4, 212112, Note_on_c, 9, 59, 44
4, 212344, Note_on_c, 9, 59, 0
4, 212376, Note_on_c, 9, 53, 46
4, 212560, Note_on_c, 9, 53, 0
4, 212592, Note_on_c, 9, 59, 42
4, 212656, Note_on_c, 9, 36, 28
4, 212704, Note_on_c, 9, 36, 0
4, 212912, Note_on_c, 9, 59, 0
4, 212960, Note_on_c, 9, 36, 19
4, 213016, Note_on_c, 9, 36, 0
4, 213088, Note_on_c, 9, 59, 42
4, 213824, Note_on_c, 9, 59, 0
4, 214032, Note_on_c, 9, 59, 42
4, 214344, Note_on_c, 9, 59, 0
4, 214344, Note_on_c, 9, 53, 49
4, 214496, Note_on_c, 9, 53, 0
4, 214536, Note_on_c, 9, 59, 44
4, 214832, Note_on_c, 9, 59, 0
4, 215008, Note_on_c, 9, 59, 29
4, 215256, Note_on_c, 9, 59, 0
4, 215456, Note_on_c, 9, 59, 50
4, 215776, Note_on_c, 9, 36, 28
4, 215792, Note_on_c, 9, 59, 0
4, 215840, Note_on_c, 9, 36, 0
4, 215928, Note_on_c, 9, 59, 42
4, 215968, Note_on_c, 9, 36, 29
4, 216064, Note_on_c, 9, 36, 0
4, 216600, Note_on_c, 9, 59, 0
4, 216944, Note_on_c, 9, 59, 54
4, 216960, Note_on_c, 9, 44, 37
4, 217080, Note_on_c, 9, 44, 0
4, 217680, Note_on_c, 9, 59, 0
4, 217904, Note_on_c, 9, 59, 53
4, 217968, Note_on_c, 9, 49, 27
4, 218000, Note_on_c, 9, 49, 0
4, 218184, Note_on_c, 9, 53, 64
4, 218192, Note_on_c, 9, 59, 0
4, 218336, Note_on_c, 9, 53, 0
4, 218384, Note_on_c, 9, 59, 43
4, 218712, Note_on_c, 9, 36, 28
4, 218736, Note_on_c, 9, 59, 0
4, 218800, Note_on_c, 9, 36, 0
4, 218872, Note_on_c, 9, 59, 43
4, 218896, Note_on_c, 9, 36, 32
4, 219136, Note_on_c, 9, 36, 0
4, 219656, Note_on_c, 9, 59, 0
4, 219840, Note_on_c, 9, 59, 43
4, 220632, Note_on_c, 9, 59, 0
4, 220824, Note_on_c, 9, 59, 44
4, 221104, Note_on_c, 9, 59, 0
4, 221104, Note_on_c, 9, 53, 56
4, 221256, Note_on_c, 9, 53, 0
4, 221304, Note_on_c, 9, 59, 39
4, 221368, Note_on_c, 9, 36, 25
4, 221416, Note_on_c, 9, 36, 0
4, 221592, Note_on_c, 9, 59, 0
4, 221776, Note_on_c, 9, 59, 43
4, 222496, Note_on_c, 9, 59, 0
4, 222680, Note_on_c, 9, 59, 46
4, 223008, Note_on_c, 9, 53, 43
4, 223096, Note_on_c, 9, 53, 0
4, 223224, Note_on_c, 9, 53, 29
4, 223336, Note_on_c, 9, 53, 0
4, 223440, Note_on_c, 9, 59, 0
4, 223512, Note_on_c, 9, 36, 31
4, 223576, Note_on_c, 9, 36, 0
4, 223688, Note_on_c, 9, 59, 51
4, 223712, Note_on_c, 9, 53, 36
4, 223888, Note_on_c, 9, 53, 0
4, 223992, Note_on_c, 9, 53, 36
4, 224072, Note_on_c, 9, 53, 0
4, 224088, Note_on_c, 9, 59, 0
4, 224432, Note_on_c, 9, 53, 49
4, 224512, Note_on_c, 9, 53, 0
4, 224616, Note_on_c, 9, 46, 37
4, 224616, Note_on_c, 9, 59, 47
4, 224664, Note_on_c, 9, 36, 23
4, 224752, Note_on_c, 9, 36, 0
4, 224904, Note_on_c, 9, 46, 0
4, 225168, Note_on_c, 9, 36, 23
4, 225272, Note_on_c, 9, 36, 0
4, 225328, Note_on_c, 9, 59, 0
4, 225600, Note_on_c, 9, 59, 42
4, 225856, Note_on_c, 9, 59, 0
4, 225912, Note_on_c, 9, 53, 43
4, 226024, Note_on_c, 9, 53, 0
4, 226096, Note_on_c, 9, 59, 35
4, 226288, Note_on_c, 9, 59, 0
4, 226592, Note_on_c, 9, 59, 36
4, 226744, Note_on_c, 9, 59, 0
4, 227048, Note_on_c, 9, 59, 46
4, 227144, Note_on_c, 9, 59, 0
4, 227737, Note_on_c, 9, 49, 30
4, 228617, Note_on_c, 9, 49, 0
4, 228617, End_track
5, 0, Start_track
5, 0, Title_t, "Ride"
5, 0, End_track
0, 0, End_of_file
