0, 0, Header, 1, 4, 960
1, 0, Start_track
1, 0, Title_t, "Moon and Sand"
1, 0, Text_t, "Alec Wilder and Morty Palitz - see lead sheet in New Real Book Volume 3 (Sher Music) pages 249-250\012"
1, 0, Text_t, "dougmck@pipeline.com.au\012"
1, 0, Time_signature, 4, 2, 24, 8
1, 0, Key_signature, 0, "major"
1, 0, Tempo, 375000
1, 0, End_track
2, 0, Start_track
2, 0, Control_c, 0, 7, 76
2, 34, Note_on_c, 0, 64, 73
2, 51, Note_on_c, 0, 69, 64
2, 53, Note_on_c, 0, 65, 64
2, 69, Note_on_c, 0, 57, 41
2, 78, Note_on_c, 0, 50, 44
2, 159, Control_c, 0, 64, 127
2, 456, Control_c, 0, 64, 0
2, 805, Control_c, 0, 64, 127
2, 2748, Note_on_c, 0, 57, 0
2, 2862, Note_on_c, 0, 50, 0
2, 2993, Note_on_c, 0, 64, 0
2, 3061, Note_on_c, 0, 69, 0
2, 3076, Note_on_c, 0, 65, 0
2, 3462, Control_c, 0, 64, 0
2, 3525, Note_on_c, 0, 65, 42
2, 3527, Note_on_c, 0, 62, 44
2, 3541, Note_on_c, 0, 57, 29
2, 3543, Note_on_c, 0, 46, 28
2, 3547, Note_on_c, 0, 53, 30
2, 3549, Note_on_c, 0, 69, 43
2, 3832, Control_c, 0, 64, 127
2, 3896, Note_on_c, 0, 62, 0
2, 3920, Note_on_c, 0, 65, 0
2, 3992, Note_on_c, 0, 69, 0
2, 4735, Control_c, 0, 64, 0
2, 4840, Note_on_c, 0, 76, 110
2, 4851, Note_on_c, 0, 79, 87
2, 5282, Note_on_c, 0, 76, 0
2, 5309, Note_on_c, 0, 79, 0
2, 5355, Note_on_c, 0, 77, 59
2, 5381, Note_on_c, 0, 74, 60
2, 5613, Note_on_c, 0, 74, 0
2, 5628, Note_on_c, 0, 77, 0
2, 5865, Note_on_c, 0, 76, 65
2, 5867, Note_on_c, 0, 79, 63
2, 6066, Control_c, 0, 64, 127
2, 6540, Note_on_c, 0, 53, 0
2, 6596, Note_on_c, 0, 46, 0
2, 6669, Note_on_c, 0, 76, 0
2, 6686, Note_on_c, 0, 57, 0
2, 7067, Note_on_c, 0, 79, 0
2, 7183, Note_on_c, 0, 76, 44
2, 7201, Note_on_c, 0, 72, 33
2, 7284, Note_on_c, 0, 76, 0
2, 7315, Note_on_c, 0, 72, 0
2, 7450, Control_c, 0, 64, 0
2, 7736, Note_on_c, 0, 77, 58
2, 7783, Note_on_c, 0, 72, 48
2, 7862, Note_on_c, 0, 72, 0
2, 8193, Note_on_c, 0, 77, 0
2, 8517, Note_on_c, 0, 75, 55
2, 8550, Note_on_c, 0, 65, 36
2, 8563, Note_on_c, 0, 53, 37
2, 8585, Note_on_c, 0, 63, 25
2, 8588, Note_on_c, 0, 58, 43
2, 8697, Note_on_c, 0, 63, 0
2, 8719, Note_on_c, 0, 65, 0
2, 8741, Note_on_c, 0, 58, 0
2, 8743, Note_on_c, 0, 53, 0
2, 8765, Note_on_c, 0, 75, 0
2, 9163, Note_on_c, 0, 75, 37
2, 9203, Note_on_c, 0, 65, 28
2, 9212, Note_on_c, 0, 63, 32
2, 9218, Note_on_c, 0, 53, 34
2, 9219, Note_on_c, 0, 70, 35
2, 9245, Note_on_c, 0, 58, 40
2, 9324, Note_on_c, 0, 58, 0
2, 9345, Note_on_c, 0, 65, 0
2, 9345, Note_on_c, 0, 63, 0
2, 9346, Note_on_c, 0, 53, 0
2, 9365, Note_on_c, 0, 70, 0
2, 9427, Note_on_c, 0, 75, 0
2, 9832, Note_on_c, 0, 75, 40
2, 9867, Note_on_c, 0, 65, 30
2, 9878, Note_on_c, 0, 70, 34
2, 9898, Note_on_c, 0, 53, 26
2, 9902, Note_on_c, 0, 58, 37
2, 10025, Note_on_c, 0, 53, 0
2, 10027, Note_on_c, 0, 65, 0
2, 10062, Note_on_c, 0, 58, 0
2, 10066, Note_on_c, 0, 70, 0
2, 10106, Note_on_c, 0, 75, 0
2, 10491, Note_on_c, 0, 75, 47
2, 10515, Note_on_c, 0, 63, 42
2, 10519, Note_on_c, 0, 65, 31
2, 10524, Note_on_c, 0, 70, 33
2, 10548, Control_c, 0, 64, 127
2, 10614, Note_on_c, 0, 65, 0
2, 10695, Note_on_c, 0, 63, 0
2, 10719, Note_on_c, 0, 70, 0
2, 10725, Note_on_c, 0, 75, 0
2, 11453, Control_c, 0, 64, 0
2, 11604, Note_on_c, 0, 75, 54
2, 11606, Note_on_c, 0, 72, 62
2, 11626, Note_on_c, 0, 68, 43
2, 11645, Note_on_c, 0, 63, 40
2, 11658, Note_on_c, 0, 58, 47
2, 11672, Note_on_c, 0, 60, 22
2, 12394, Control_c, 0, 64, 127
2, 12774, Note_on_c, 0, 68, 0
2, 12811, Note_on_c, 0, 63, 0
2, 13030, Note_on_c, 0, 68, 45
2, 13098, Note_on_c, 0, 63, 42
2, 13338, Note_on_c, 0, 58, 0
2, 13619, Note_on_c, 0, 68, 0
2, 13740, Note_on_c, 0, 60, 0
2, 14033, Note_on_c, 0, 58, 49
2, 14195, Note_on_c, 0, 72, 0
2, 14198, Note_on_c, 0, 63, 0
2, 14248, Note_on_c, 0, 58, 0
2, 14268, Note_on_c, 0, 75, 0
2, 14846, Control_c, 0, 64, 0
2, 14946, Note_on_c, 0, 90, 80
2, 14949, Note_on_c, 0, 63, 73
2, 14955, Note_on_c, 0, 78, 85
2, 14957, Note_on_c, 0, 85, 86
2, 14960, Note_on_c, 0, 56, 77
2, 14975, Note_on_c, 0, 61, 58
2, 14977, Note_on_c, 0, 66, 70
2, 15146, Control_c, 0, 64, 127
2, 15290, Note_on_c, 0, 63, 0
2, 15299, Note_on_c, 0, 85, 0
2, 15300, Note_on_c, 0, 66, 0
2, 15315, Note_on_c, 0, 78, 0
2, 15317, Note_on_c, 0, 56, 0
2, 15332, Note_on_c, 0, 61, 0
2, 15343, Note_on_c, 0, 90, 0
2, 15367, Control_c, 0, 64, 0
2, 15437, Note_on_c, 0, 62, 60
2, 15442, Note_on_c, 0, 65, 59
2, 15457, Note_on_c, 0, 60, 34
2, 15465, Note_on_c, 0, 91, 66
2, 15479, Note_on_c, 0, 55, 57
2, 15490, Note_on_c, 0, 79, 45
2, 15492, Note_on_c, 0, 86, 56
2, 15654, Note_on_c, 0, 79, 0
2, 15672, Note_on_c, 0, 86, 0
2, 15698, Note_on_c, 0, 65, 0
2, 15711, Note_on_c, 0, 91, 0
2, 15716, Note_on_c, 0, 60, 0
2, 15733, Note_on_c, 0, 62, 0
2, 15770, Note_on_c, 0, 55, 0
2, 16408, Note_on_c, 0, 62, 48
2, 16410, Note_on_c, 0, 65, 55
2, 16421, Note_on_c, 0, 91, 53
2, 16443, Note_on_c, 0, 60, 30
2, 16453, Note_on_c, 0, 86, 51
2, 16458, Note_on_c, 0, 55, 29
2, 16460, Note_on_c, 0, 79, 31
2, 16537, Note_on_c, 0, 86, 0
2, 16552, Note_on_c, 0, 79, 0
2, 16567, Note_on_c, 0, 60, 0
2, 16574, Note_on_c, 0, 62, 0
2, 16576, Note_on_c, 0, 65, 0
2, 16594, Note_on_c, 0, 91, 0
2, 16673, Note_on_c, 0, 55, 0
2, 17249, Control_c, 0, 64, 127
2, 17746, Control_c, 0, 64, 0
2, 17777, Note_on_c, 0, 61, 72
2, 17787, Note_on_c, 0, 66, 76
2, 17792, Note_on_c, 0, 55, 66
2, 17805, Note_on_c, 0, 91, 66
2, 17807, Note_on_c, 0, 85, 69
2, 17829, Note_on_c, 0, 79, 53
2, 18171, Control_c, 0, 64, 127
2, 18370, Note_on_c, 0, 55, 0
2, 18432, Note_on_c, 0, 66, 0
2, 18482, Note_on_c, 0, 79, 0
2, 18502, Note_on_c, 0, 61, 0
2, 18591, Note_on_c, 0, 91, 0
2, 18626, Note_on_c, 0, 85, 0
2, 18725, Control_c, 0, 64, 0
2, 18754, Note_on_c, 0, 91, 72
2, 18756, Note_on_c, 0, 63, 77
2, 18773, Note_on_c, 0, 60, 55
2, 18780, Note_on_c, 0, 79, 69
2, 18784, Note_on_c, 0, 84, 74
2, 18822, Note_on_c, 0, 53, 48
2, 18828, Note_on_c, 0, 58, 29
2, 19074, Control_c, 0, 64, 127
2, 19207, Note_on_c, 0, 91, 0
2, 19253, Note_on_c, 0, 84, 0
2, 19288, Note_on_c, 0, 60, 0
2, 19290, Note_on_c, 0, 63, 0
2, 19310, Note_on_c, 0, 79, 0
2, 19364, Note_on_c, 0, 58, 0
2, 19426, Note_on_c, 0, 53, 0
2, 20109, Control_c, 0, 64, 0
2, 20142, Note_on_c, 0, 65, 65
2, 20144, Note_on_c, 0, 60, 54
2, 20158, Note_on_c, 0, 55, 61
2, 20190, Note_on_c, 0, 51, 55
2, 20526, Note_on_c, 0, 51, 0
2, 20539, Note_on_c, 0, 60, 0
2, 20541, Note_on_c, 0, 55, 0
2, 20571, Note_on_c, 0, 65, 0
2, 20718, Note_on_c, 0, 63, 38
2, 20896, Note_on_c, 0, 63, 0
2, 21117, Note_on_c, 0, 60, 54
2, 21124, Note_on_c, 0, 65, 72
2, 21128, Note_on_c, 0, 51, 47
2, 21134, Note_on_c, 0, 55, 63
2, 22026, Control_c, 0, 64, 127
2, 22157, Note_on_c, 0, 51, 0
2, 22206, Note_on_c, 0, 55, 0
2, 22350, Note_on_c, 0, 65, 0
2, 22403, Note_on_c, 0, 60, 0
2, 22576, Note_on_c, 0, 63, 54
2, 22819, Control_c, 0, 64, 0
2, 22846, Note_on_c, 0, 63, 0
2, 23016, Note_on_c, 0, 62, 58
2, 23029, Note_on_c, 0, 60, 35
2, 23036, Note_on_c, 0, 45, 51
2, 23042, Note_on_c, 0, 55, 40
2, 23119, Note_on_c, 0, 55, 0
2, 23134, Control_c, 0, 64, 127
2, 23189, Note_on_c, 0, 60, 0
2, 23226, Note_on_c, 0, 45, 0
2, 23237, Note_on_c, 0, 62, 0
2, 24460, Note_on_c, 0, 57, 54
2, 24462, Note_on_c, 0, 63, 76
2, 24466, Note_on_c, 0, 60, 40
2, 24488, Note_on_c, 0, 55, 58
2, 24904, Control_c, 0, 64, 0
2, 25032, Control_c, 0, 64, 127
2, 25439, Control_c, 0, 64, 0
2, 25516, Note_on_c, 0, 86, 89
2, 25529, Note_on_c, 0, 74, 85
2, 25548, Note_on_c, 0, 76, 79
2, 25551, Note_on_c, 0, 85, 72
2, 25610, Note_on_c, 0, 76, 0
2, 25614, Note_on_c, 0, 85, 0
2, 25827, Control_c, 0, 64, 127
2, 25861, Note_on_c, 0, 86, 0
2, 25899, Note_on_c, 0, 74, 0
2, 25951, Note_on_c, 0, 55, 0
2, 25975, Control_c, 0, 64, 0
2, 26002, Note_on_c, 0, 63, 0
2, 26070, Note_on_c, 0, 87, 86
2, 26072, Note_on_c, 0, 63, 52
2, 26080, Note_on_c, 0, 75, 75
2, 26100, Note_on_c, 0, 55, 71
2, 26361, Control_c, 0, 64, 127
2, 26363, Note_on_c, 0, 87, 0
2, 26376, Note_on_c, 0, 75, 0
2, 26405, Note_on_c, 0, 55, 0
2, 26471, Note_on_c, 0, 57, 0
2, 26473, Note_on_c, 0, 60, 0
2, 26516, Note_on_c, 0, 63, 0
2, 26547, Control_c, 0, 64, 0
2, 26626, Note_on_c, 0, 85, 52
2, 26650, Note_on_c, 0, 73, 67
2, 26663, Note_on_c, 0, 60, 36
2, 26701, Note_on_c, 0, 64, 54
2, 26711, Note_on_c, 0, 86, 46
2, 26720, Note_on_c, 0, 54, 40
2, 26815, Note_on_c, 0, 85, 0
2, 26828, Note_on_c, 0, 73, 0
2, 26860, Note_on_c, 0, 74, 49
2, 27032, Note_on_c, 0, 86, 0
2, 27036, Note_on_c, 0, 74, 0
2, 27082, Note_on_c, 0, 64, 0
2, 27112, Note_on_c, 0, 54, 0
2, 27126, Note_on_c, 0, 60, 0
2, 27334, Note_on_c, 0, 85, 43
2, 27353, Note_on_c, 0, 64, 43
2, 27362, Note_on_c, 0, 60, 24
2, 27369, Note_on_c, 0, 73, 38
2, 27399, Note_on_c, 0, 54, 30
2, 27673, Note_on_c, 0, 64, 0
2, 27713, Note_on_c, 0, 54, 0
2, 27743, Note_on_c, 0, 60, 0
2, 27783, Note_on_c, 0, 85, 0
2, 27813, Note_on_c, 0, 73, 0
2, 27980, Note_on_c, 0, 72, 57
2, 27982, Note_on_c, 0, 84, 54
2, 27986, Note_on_c, 0, 60, 26
2, 27997, Note_on_c, 0, 64, 44
2, 28002, Note_on_c, 0, 54, 33
2, 28298, Control_c, 0, 64, 127
2, 28390, Control_c, 0, 64, 0
2, 28521, Control_c, 0, 64, 127
2, 28913, Note_on_c, 0, 64, 0
2, 28935, Note_on_c, 0, 60, 0
2, 29047, Note_on_c, 0, 54, 0
2, 29252, Note_on_c, 0, 72, 0
2, 29351, Note_on_c, 0, 54, 30
2, 29355, Note_on_c, 0, 64, 31
2, 29358, Note_on_c, 0, 60, 25
2, 29465, Note_on_c, 0, 84, 0
2, 30076, Note_on_c, 0, 60, 0
2, 30127, Note_on_c, 0, 64, 0
2, 30293, Note_on_c, 0, 92, 93
2, 30298, Note_on_c, 0, 80, 97
2, 30378, Note_on_c, 0, 54, 0
2, 30567, Note_on_c, 0, 80, 0
2, 30620, Note_on_c, 0, 92, 0
2, 30698, Control_c, 0, 64, 0
2, 30769, Note_on_c, 0, 92, 50
2, 30790, Note_on_c, 0, 80, 72
2, 30808, Note_on_c, 0, 53, 31
2, 30823, Note_on_c, 0, 58, 50
2, 30841, Note_on_c, 0, 62, 48
2, 30843, Note_on_c, 0, 57, 35
2, 31069, Note_on_c, 0, 80, 0
2, 31073, Note_on_c, 0, 93, 41
2, 31092, Note_on_c, 0, 81, 51
2, 31094, Note_on_c, 0, 92, 0
2, 31403, Note_on_c, 0, 93, 0
2, 31441, Note_on_c, 0, 81, 0
2, 31669, Note_on_c, 0, 93, 56
2, 31695, Note_on_c, 0, 81, 40
2, 31897, Note_on_c, 0, 58, 0
2, 31907, Note_on_c, 0, 62, 0
2, 31967, Note_on_c, 0, 57, 0
2, 31999, Note_on_c, 0, 81, 0
2, 32004, Note_on_c, 0, 93, 0
2, 32184, Note_on_c, 0, 93, 48
2, 32212, Note_on_c, 0, 62, 41
2, 32214, Note_on_c, 0, 53, 0
2, 32218, Note_on_c, 0, 81, 43
2, 32238, Note_on_c, 0, 57, 17
2, 32245, Note_on_c, 0, 58, 34
2, 32332, Note_on_c, 0, 81, 0
2, 32348, Note_on_c, 0, 93, 0
2, 32426, Note_on_c, 0, 62, 0
2, 32438, Note_on_c, 0, 58, 0
2, 32554, Note_on_c, 0, 57, 0
2, 33186, Note_on_c, 0, 62, 44
2, 33187, Note_on_c, 0, 57, 30
2, 33231, Note_on_c, 0, 58, 39
2, 33379, Note_on_c, 0, 62, 0
2, 33403, Note_on_c, 0, 58, 0
2, 33406, Note_on_c, 0, 57, 0
2, 34142, Note_on_c, 0, 58, 40
2, 34148, Note_on_c, 0, 52, 44
2, 34150, Note_on_c, 0, 62, 49
2, 34256, Note_on_c, 0, 62, 0
2, 34277, Note_on_c, 0, 52, 0
2, 34314, Note_on_c, 0, 58, 0
2, 35033, Note_on_c, 0, 67, 89
2, 35035, Note_on_c, 0, 64, 91
2, 35329, Note_on_c, 0, 64, 0
2, 35379, Note_on_c, 0, 67, 0
2, 35504, Note_on_c, 0, 62, 44
2, 35539, Note_on_c, 0, 65, 41
2, 35894, Note_on_c, 0, 62, 0
2, 35922, Note_on_c, 0, 58, 48
2, 35968, Note_on_c, 0, 52, 32
2, 35970, Note_on_c, 0, 65, 0
2, 36047, Note_on_c, 0, 52, 0
2, 36067, Note_on_c, 0, 58, 0
2, 36343, Note_on_c, 0, 64, 95
2, 36352, Note_on_c, 0, 67, 85
2, 36867, Note_on_c, 0, 64, 0
2, 37370, Note_on_c, 0, 64, 35
2, 37410, Note_on_c, 0, 67, 0
2, 37747, Note_on_c, 0, 65, 39
2, 37955, Note_on_c, 0, 65, 0
2, 38003, Control_c, 0, 64, 127
2, 38211, Note_on_c, 0, 64, 0
2, 38315, Control_c, 0, 64, 0
2, 38373, Note_on_c, 0, 65, 62
2, 38402, Note_on_c, 0, 58, 62
2, 38452, Note_on_c, 0, 42, 45
2, 38588, Note_on_c, 0, 58, 0
2, 38943, Control_c, 0, 64, 127
2, 39009, Note_on_c, 0, 60, 30
2, 39016, Note_on_c, 0, 56, 33
2, 39052, Note_on_c, 0, 53, 42
2, 39140, Note_on_c, 0, 42, 0
2, 39184, Note_on_c, 0, 56, 0
2, 39291, Note_on_c, 0, 53, 0
2, 39298, Note_on_c, 0, 60, 0
2, 39368, Note_on_c, 0, 65, 0
2, 39911, Note_on_c, 0, 70, 70
2, 39926, Note_on_c, 0, 65, 63
2, 39955, Note_on_c, 0, 58, 51
2, 40135, Note_on_c, 0, 71, 38
2, 40227, Note_on_c, 0, 71, 0
2, 40249, Note_on_c, 0, 65, 0
2, 40386, Note_on_c, 0, 70, 0
2, 40545, Note_on_c, 0, 60, 42
2, 40555, Note_on_c, 0, 72, 78
2, 40733, Note_on_c, 0, 72, 0
2, 41287, Note_on_c, 0, 82, 62
2, 41296, Note_on_c, 0, 65, 38
2, 41390, Note_on_c, 0, 65, 0
2, 41449, Note_on_c, 0, 82, 0
2, 41539, Note_on_c, 0, 60, 0
2, 41708, Note_on_c, 0, 58, 0
2, 41915, Control_c, 0, 64, 0
2, 41946, Note_on_c, 0, 79, 48
2, 41951, Note_on_c, 0, 69, 41
2, 41953, Note_on_c, 0, 74, 52
2, 41981, Note_on_c, 0, 64, 35
2, 42448, Control_c, 0, 64, 127
2, 42816, Note_on_c, 0, 64, 0
2, 42825, Note_on_c, 0, 74, 0
2, 42858, Note_on_c, 0, 79, 0
2, 42923, Note_on_c, 0, 69, 0
2, 43593, Control_c, 0, 64, 0
2, 43664, Note_on_c, 0, 76, 64
2, 43681, Note_on_c, 0, 70, 58
2, 43688, Note_on_c, 0, 65, 43
2, 43710, Note_on_c, 0, 58, 36
2, 43845, Note_on_c, 0, 76, 0
2, 43961, Note_on_c, 0, 65, 0
2, 43985, Note_on_c, 0, 70, 0
2, 44087, Note_on_c, 0, 58, 0
2, 44148, Note_on_c, 0, 74, 43
2, 44172, Note_on_c, 0, 57, 37
2, 44181, Note_on_c, 0, 64, 40
2, 44205, Note_on_c, 0, 69, 27
2, 44264, Note_on_c, 0, 64, 0
2, 44266, Note_on_c, 0, 69, 0
2, 44268, Note_on_c, 0, 74, 0
2, 44367, Note_on_c, 0, 57, 0
2, 45024, Note_on_c, 0, 72, 58
2, 45046, Note_on_c, 0, 62, 51
2, 45065, Note_on_c, 0, 67, 48
2, 45085, Note_on_c, 0, 53, 36
2, 45135, Note_on_c, 0, 67, 0
2, 45171, Note_on_c, 0, 62, 0
2, 45184, Note_on_c, 0, 53, 0
2, 45201, Note_on_c, 0, 72, 0
2, 46014, Note_on_c, 0, 65, 54
2, 46029, Note_on_c, 0, 62, 38
2, 46042, Note_on_c, 0, 47, 41
2, 46047, Control_c, 0, 64, 127
2, 46064, Note_on_c, 0, 57, 24
2, 46117, Note_on_c, 0, 62, 0
2, 46187, Note_on_c, 0, 47, 0
2, 46209, Note_on_c, 0, 65, 0
2, 46308, Note_on_c, 0, 57, 0
2, 47519, Note_on_c, 0, 57, 66
2, 47527, Note_on_c, 0, 65, 80
2, 47530, Note_on_c, 0, 88, 89
2, 47538, Note_on_c, 0, 62, 74
2, 47539, Note_on_c, 0, 76, 91
2, 47582, Note_on_c, 0, 87, 46
2, 47642, Note_on_c, 0, 87, 0
2, 47867, Note_on_c, 0, 76, 0
2, 47887, Note_on_c, 0, 88, 0
2, 47891, Note_on_c, 0, 57, 0
2, 47916, Note_on_c, 0, 65, 0
2, 47957, Note_on_c, 0, 62, 0
2, 48020, Control_c, 0, 64, 0
2, 48051, Note_on_c, 0, 57, 63
2, 48054, Note_on_c, 0, 89, 80
2, 48056, Note_on_c, 0, 65, 80
2, 48058, Note_on_c, 0, 77, 76
2, 48060, Note_on_c, 0, 85, 74
2, 48077, Note_on_c, 0, 62, 80
2, 48170, Note_on_c, 0, 86, 40
2, 48432, Note_on_c, 0, 85, 0
2, 48470, Note_on_c, 0, 77, 0
2, 48482, Note_on_c, 0, 57, 0
2, 48507, Note_on_c, 0, 89, 0
2, 48524, Note_on_c, 0, 86, 0
2, 48538, Note_on_c, 0, 65, 0
2, 48566, Note_on_c, 0, 62, 0
2, 48769, Note_on_c, 0, 89, 71
2, 48770, Note_on_c, 0, 85, 57
2, 48772, Note_on_c, 0, 77, 60
2, 48774, Note_on_c, 0, 62, 70
2, 48789, Note_on_c, 0, 65, 66
2, 48791, Note_on_c, 0, 57, 71
2, 49037, Note_on_c, 0, 86, 37
2, 49057, Note_on_c, 0, 85, 0
2, 49074, Note_on_c, 0, 57, 0
2, 49079, Note_on_c, 0, 65, 0
2, 49120, Note_on_c, 0, 89, 0
2, 49168, Note_on_c, 0, 77, 0
2, 49175, Note_on_c, 0, 62, 0
2, 49181, Note_on_c, 0, 86, 0
2, 49455, Note_on_c, 0, 57, 58
2, 49466, Note_on_c, 0, 62, 51
2, 49468, Note_on_c, 0, 65, 55
2, 49477, Note_on_c, 0, 88, 41
2, 49506, Note_on_c, 0, 76, 45
2, 49512, Note_on_c, 0, 86, 33
2, 49602, Note_on_c, 0, 86, 0
2, 49670, Note_on_c, 0, 65, 0
2, 49678, Note_on_c, 0, 76, 0
2, 49700, Note_on_c, 0, 57, 0
2, 49753, Note_on_c, 0, 88, 0
2, 49795, Note_on_c, 0, 62, 0
2, 50040, Note_on_c, 0, 85, 53
2, 50051, Note_on_c, 0, 62, 58
2, 50055, Note_on_c, 0, 89, 48
2, 50062, Note_on_c, 0, 65, 58
2, 50075, Note_on_c, 0, 77, 35
2, 50078, Note_on_c, 0, 56, 60
2, 50246, Note_on_c, 0, 85, 0
2, 50251, Control_c, 0, 64, 127
2, 50270, Note_on_c, 0, 86, 50
2, 50402, Note_on_c, 0, 89, 0
2, 50404, Note_on_c, 0, 77, 0
2, 50432, Note_on_c, 0, 86, 0
2, 50441, Note_on_c, 0, 65, 0
2, 50447, Note_on_c, 0, 56, 0
2, 50507, Note_on_c, 0, 62, 0
2, 50677, Control_c, 0, 64, 0
2, 50689, Note_on_c, 0, 88, 55
2, 50712, Note_on_c, 0, 76, 60
2, 50719, Note_on_c, 0, 56, 65
2, 50724, Note_on_c, 0, 62, 58
2, 50726, Note_on_c, 0, 65, 62
2, 50934, Control_c, 0, 64, 127
2, 51010, Note_on_c, 0, 76, 0
2, 51050, Note_on_c, 0, 65, 0
2, 51076, Note_on_c, 0, 62, 0
2, 51083, Note_on_c, 0, 88, 0
2, 51085, Note_on_c, 0, 56, 0
2, 51361, Note_on_c, 0, 89, 87
2, 51366, Note_on_c, 0, 56, 86
2, 51370, Note_on_c, 0, 65, 84
2, 51372, Note_on_c, 0, 77, 88
2, 51374, Note_on_c, 0, 62, 83
2, 51401, Note_on_c, 0, 84, 77
2, 51464, Note_on_c, 0, 84, 0
2, 51538, Note_on_c, 0, 84, 29
2, 51635, Note_on_c, 0, 84, 0
2, 51670, Note_on_c, 0, 77, 0
2, 51724, Note_on_c, 0, 65, 0
2, 51757, Note_on_c, 0, 89, 0
2, 51768, Note_on_c, 0, 56, 0
2, 51771, Note_on_c, 0, 62, 0
2, 51893, Control_c, 0, 64, 0
2, 51985, Note_on_c, 0, 56, 84
2, 51990, Note_on_c, 0, 91, 81
2, 51992, Note_on_c, 0, 62, 79
2, 51996, Note_on_c, 0, 65, 84
2, 52000, Note_on_c, 0, 85, 80
2, 52001, Note_on_c, 0, 79, 83
2, 52211, Note_on_c, 0, 86, 34
2, 52226, Control_c, 0, 64, 127
2, 52275, Note_on_c, 0, 85, 0
2, 52397, Note_on_c, 0, 65, 0
2, 52421, Note_on_c, 0, 91, 0
2, 52436, Note_on_c, 0, 79, 0
2, 52445, Note_on_c, 0, 56, 0
2, 52504, Note_on_c, 0, 86, 0
2, 52513, Note_on_c, 0, 62, 0
2, 52575, Control_c, 0, 64, 0
2, 52688, Note_on_c, 0, 89, 64
2, 52695, Note_on_c, 0, 62, 58
2, 52702, Note_on_c, 0, 56, 60
2, 52706, Note_on_c, 0, 65, 62
2, 52728, Note_on_c, 0, 77, 48
2, 52735, Note_on_c, 0, 85, 38
2, 52853, Control_c, 0, 64, 127
2, 52971, Note_on_c, 0, 62, 0
2, 52995, Note_on_c, 0, 65, 0
2, 53104, Note_on_c, 0, 56, 0
2, 53302, Note_on_c, 0, 85, 0
2, 53304, Note_on_c, 0, 89, 0
2, 53424, Note_on_c, 0, 77, 0
2, 53549, Note_on_c, 0, 88, 62
2, 53554, Note_on_c, 0, 62, 60
2, 53569, Note_on_c, 0, 57, 43
2, 53576, Note_on_c, 0, 76, 44
2, 53586, Note_on_c, 0, 58, 53
2, 53591, Control_c, 0, 64, 0
2, 53593, Note_on_c, 0, 52, 48
2, 53885, Control_c, 0, 64, 127
2, 54202, Note_on_c, 0, 88, 0
2, 54399, Note_on_c, 0, 76, 0
2, 54789, Control_c, 0, 64, 0
2, 54833, Note_on_c, 0, 69, 66
2, 54990, Note_on_c, 0, 69, 0
2, 55046, Note_on_c, 0, 70, 43
2, 55140, Note_on_c, 0, 70, 0
2, 55322, Note_on_c, 0, 74, 64
2, 55457, Note_on_c, 0, 74, 0
2, 55492, Note_on_c, 0, 78, 59
2, 55495, Note_on_c, 0, 62, 0
2, 55580, Note_on_c, 0, 58, 0
2, 55591, Note_on_c, 0, 57, 0
2, 55674, Note_on_c, 0, 78, 0
2, 55738, Note_on_c, 0, 52, 0
2, 55759, Note_on_c, 0, 81, 74
2, 55998, Note_on_c, 0, 81, 0
2, 56018, Note_on_c, 0, 78, 35
2, 56103, Note_on_c, 0, 78, 0
2, 56447, Note_on_c, 0, 81, 54
2, 56517, Note_on_c, 0, 62, 49
2, 56572, Note_on_c, 0, 58, 28
2, 56594, Note_on_c, 0, 81, 0
2, 56598, Note_on_c, 0, 62, 0
2, 56638, Note_on_c, 0, 58, 0
2, 56686, Note_on_c, 0, 82, 65
2, 56806, Note_on_c, 0, 82, 0
2, 56945, Note_on_c, 0, 84, 65
2, 57039, Note_on_c, 0, 84, 0
2, 57148, Note_on_c, 0, 85, 64
2, 57293, Note_on_c, 0, 85, 0
2, 57417, Note_on_c, 0, 87, 63
2, 57520, Note_on_c, 0, 87, 0
2, 57604, Note_on_c, 0, 66, 58
2, 57610, Note_on_c, 0, 61, 52
2, 57636, Note_on_c, 0, 88, 66
2, 57705, Note_on_c, 0, 88, 0
2, 57757, Note_on_c, 0, 66, 0
2, 57836, Note_on_c, 0, 61, 0
2, 57998, Note_on_c, 0, 90, 59
2, 58141, Note_on_c, 0, 90, 0
2, 58307, Note_on_c, 0, 91, 71
2, 58443, Note_on_c, 0, 91, 0
2, 58590, Note_on_c, 0, 93, 78
2, 58721, Note_on_c, 0, 93, 0
2, 58914, Note_on_c, 0, 94, 69
2, 59032, Note_on_c, 0, 94, 0
2, 59218, Note_on_c, 0, 96, 69
2, 59343, Note_on_c, 0, 96, 0
2, 59486, Note_on_c, 0, 61, 52
2, 59490, Note_on_c, 0, 97, 75
2, 59492, Note_on_c, 0, 66, 50
2, 59533, Note_on_c, 0, 55, 34
2, 59652, Note_on_c, 0, 97, 0
2, 59807, Note_on_c, 0, 99, 61
2, 59956, Note_on_c, 0, 99, 0
2, 60125, Note_on_c, 0, 66, 0
2, 60131, Note_on_c, 0, 100, 74
2, 60327, Note_on_c, 0, 55, 0
2, 60335, Note_on_c, 0, 100, 0
2, 60456, Note_on_c, 0, 61, 0
2, 60484, Note_on_c, 0, 103, 83
2, 60666, Note_on_c, 0, 103, 0
2, 60784, Control_c, 0, 64, 127
2, 60796, Note_on_c, 0, 102, 75
2, 60992, Note_on_c, 0, 102, 0
2, 61131, Note_on_c, 0, 101, 74
2, 61301, Control_c, 0, 64, 0
2, 61367, Note_on_c, 0, 57, 34
2, 61389, Note_on_c, 0, 60, 30
2, 61406, Note_on_c, 0, 50, 31
2, 61411, Note_on_c, 0, 101, 0
2, 61417, Note_on_c, 0, 53, 38
2, 61816, Note_on_c, 0, 100, 75
2, 62294, Note_on_c, 0, 100, 0
2, 62445, Control_c, 0, 64, 127
2, 62489, Note_on_c, 0, 100, 77
2, 62791, Note_on_c, 0, 60, 0
2, 62835, Note_on_c, 0, 57, 0
2, 62859, Note_on_c, 0, 100, 0
2, 62938, Note_on_c, 0, 53, 0
2, 62997, Control_c, 0, 64, 0
2, 63008, Note_on_c, 0, 60, 27
2, 63010, Note_on_c, 0, 57, 43
2, 63034, Note_on_c, 0, 53, 18
2, 63040, Note_on_c, 0, 93, 54
2, 63257, Control_c, 0, 64, 127
2, 63919, Note_on_c, 0, 93, 0
2, 64359, Note_on_c, 0, 50, 0
2, 64385, Note_on_c, 0, 53, 0
2, 64386, Note_on_c, 0, 57, 0
2, 64440, Note_on_c, 0, 60, 0
2, 65229, Control_c, 0, 64, 0
2, 65299, Note_on_c, 0, 76, 87
2, 65306, Note_on_c, 0, 68, 77
2, 65310, Note_on_c, 0, 65, 91
2, 65312, Note_on_c, 0, 64, 79
2, 65317, Note_on_c, 0, 71, 66
2, 66094, Note_on_c, 0, 65, 0
2, 66136, Note_on_c, 0, 76, 0
2, 66138, Note_on_c, 0, 68, 0
2, 66158, Note_on_c, 0, 71, 0
2, 66223, Note_on_c, 0, 64, 0
2, 66236, Note_on_c, 0, 74, 50
2, 66238, Note_on_c, 0, 62, 59
2, 66252, Note_on_c, 0, 65, 44
2, 66300, Note_on_c, 0, 71, 31
2, 66302, Note_on_c, 0, 68, 21
2, 66491, Note_on_c, 0, 65, 0
2, 66517, Note_on_c, 0, 71, 0
2, 66517, Note_on_c, 0, 68, 0
2, 66574, Note_on_c, 0, 74, 0
2, 66776, Note_on_c, 0, 76, 89
2, 66782, Note_on_c, 0, 68, 83
2, 66788, Note_on_c, 0, 64, 80
2, 66790, Note_on_c, 0, 62, 0
2, 66791, Note_on_c, 0, 71, 80
2, 66791, Note_on_c, 0, 65, 96
2, 67148, Note_on_c, 0, 65, 0
2, 67176, Note_on_c, 0, 68, 0
2, 67183, Note_on_c, 0, 76, 0
2, 67207, Note_on_c, 0, 71, 0
2, 67295, Note_on_c, 0, 64, 0
2, 67314, Note_on_c, 0, 62, 64
2, 67316, Note_on_c, 0, 65, 73
2, 67317, Note_on_c, 0, 68, 59
2, 67321, Note_on_c, 0, 74, 65
2, 67336, Note_on_c, 0, 71, 72
2, 67481, Control_c, 0, 64, 127
2, 67636, Note_on_c, 0, 62, 0
2, 67818, Note_on_c, 0, 74, 0
2, 67862, Note_on_c, 0, 71, 0
2, 67947, Note_on_c, 0, 68, 0
2, 67986, Note_on_c, 0, 65, 0
2, 68635, Note_on_c, 0, 68, 52
2, 68950, Note_on_c, 0, 68, 0
2, 69030, Control_c, 0, 64, 0
2, 69165, Note_on_c, 0, 67, 37
2, 69176, Note_on_c, 0, 58, 33
2, 69180, Note_on_c, 0, 55, 33
2, 69185, Note_on_c, 0, 63, 35
2, 69187, Note_on_c, 0, 62, 27
2, 69189, Note_on_c, 0, 48, 28
2, 69474, Control_c, 0, 64, 127
2, 69586, Note_on_c, 0, 62, 0
2, 69684, Note_on_c, 0, 63, 0
2, 69719, Note_on_c, 0, 67, 0
2, 70083, Control_c, 0, 64, 0
2, 70188, Note_on_c, 0, 65, 40
2, 70286, Note_on_c, 0, 65, 0
2, 70410, Note_on_c, 0, 70, 72
2, 70560, Note_on_c, 0, 70, 0
2, 70655, Note_on_c, 0, 75, 74
2, 70784, Note_on_c, 0, 55, 0
2, 70817, Note_on_c, 0, 75, 0
2, 70830, Note_on_c, 0, 48, 0
2, 71032, Note_on_c, 0, 72, 68
2, 71034, Note_on_c, 0, 58, 0
2, 71165, Note_on_c, 0, 72, 0
2, 71375, Note_on_c, 0, 77, 32
2, 71458, Note_on_c, 0, 77, 0
2, 71553, Note_on_c, 0, 82, 67
2, 71697, Note_on_c, 0, 82, 0
2, 72481, Control_c, 0, 64, 127
2, 73032, Control_c, 0, 64, 0
2, 73090, Note_on_c, 0, 67, 42
2, 73091, Note_on_c, 0, 57, 40
2, 73095, Note_on_c, 0, 62, 40
2, 73110, Note_on_c, 0, 63, 45
2, 74012, Control_c, 0, 64, 127
2, 74096, Note_on_c, 0, 57, 0
2, 74122, Note_on_c, 0, 67, 0
2, 74159, Note_on_c, 0, 62, 0
2, 74190, Note_on_c, 0, 63, 0
2, 74527, Note_on_c, 0, 84, 94
2, 74538, Note_on_c, 0, 72, 103
2, 74541, Note_on_c, 0, 63, 81
2, 74543, Note_on_c, 0, 62, 82
2, 74551, Note_on_c, 0, 67, 84
2, 74556, Note_on_c, 0, 57, 68
2, 74593, Note_on_c, 0, 83, 47
2, 74670, Note_on_c, 0, 83, 0
2, 74830, Note_on_c, 0, 72, 0
2, 74856, Note_on_c, 0, 84, 0
2, 74858, Note_on_c, 0, 67, 0
2, 74867, Note_on_c, 0, 57, 0
2, 74900, Control_c, 0, 64, 0
2, 74920, Note_on_c, 0, 62, 0
2, 74931, Note_on_c, 0, 63, 0
2, 75058, Note_on_c, 0, 57, 40
2, 75066, Note_on_c, 0, 63, 71
2, 75068, Note_on_c, 0, 86, 85
2, 75069, Note_on_c, 0, 62, 87
2, 75084, Note_on_c, 0, 67, 74
2, 75090, Note_on_c, 0, 74, 91
2, 75123, Note_on_c, 0, 85, 52
2, 75141, Control_c, 0, 64, 127
2, 75183, Note_on_c, 0, 85, 0
2, 75458, Note_on_c, 0, 86, 0
2, 75460, Note_on_c, 0, 67, 0
2, 75461, Note_on_c, 0, 57, 0
2, 75528, Note_on_c, 0, 74, 0
2, 75564, Note_on_c, 0, 62, 0
2, 75568, Note_on_c, 0, 63, 0
2, 75603, Control_c, 0, 64, 0
2, 75723, Note_on_c, 0, 63, 60
2, 75737, Note_on_c, 0, 62, 62
2, 75745, Note_on_c, 0, 57, 40
2, 75748, Note_on_c, 0, 84, 70
2, 75754, Note_on_c, 0, 67, 66
2, 75765, Note_on_c, 0, 72, 74
2, 75815, Note_on_c, 0, 67, 0
2, 75879, Control_c, 0, 64, 127
2, 75888, Note_on_c, 0, 84, 0
2, 75921, Note_on_c, 0, 62, 0
2, 75947, Note_on_c, 0, 72, 0
2, 75984, Note_on_c, 0, 57, 0
2, 75995, Note_on_c, 0, 63, 0
2, 76278, Note_on_c, 0, 57, 33
2, 76310, Note_on_c, 0, 63, 23
2, 76319, Note_on_c, 0, 78, 61
2, 76343, Note_on_c, 0, 66, 62
2, 76372, Note_on_c, 0, 63, 0
2, 76409, Note_on_c, 0, 57, 0
2, 76648, Note_on_c, 0, 78, 0
2, 76683, Note_on_c, 0, 66, 0
2, 76898, Note_on_c, 0, 62, 44
2, 76911, Control_c, 0, 64, 0
2, 76922, Note_on_c, 0, 77, 61
2, 76932, Note_on_c, 0, 60, 29
2, 76933, Note_on_c, 0, 65, 54
2, 76983, Note_on_c, 0, 72, 38
2, 77084, Note_on_c, 0, 72, 0
2, 77504, Note_on_c, 0, 53, 42
2, 77614, Control_c, 0, 64, 127
2, 77658, Note_on_c, 0, 65, 0
2, 77833, Note_on_c, 0, 77, 0
2, 78015, Note_on_c, 0, 62, 0
2, 78115, Note_on_c, 0, 60, 0
2, 78368, Control_c, 0, 64, 0
2, 78378, Note_on_c, 0, 82, 74
2, 78385, Note_on_c, 0, 62, 50
2, 78396, Note_on_c, 0, 60, 25
2, 78398, Note_on_c, 0, 70, 58
2, 78407, Note_on_c, 0, 65, 48
2, 78702, Control_c, 0, 64, 127
2, 78860, Note_on_c, 0, 65, 0
2, 78939, Note_on_c, 0, 62, 0
2, 78985, Note_on_c, 0, 60, 0
2, 79016, Note_on_c, 0, 53, 0
2, 79472, Note_on_c, 0, 70, 0
2, 79914, Note_on_c, 0, 82, 0
2, 80214, Control_c, 0, 64, 0
2, 80260, Note_on_c, 0, 82, 51
2, 80264, Note_on_c, 0, 61, 42
2, 80278, Note_on_c, 0, 60, 28
2, 80280, Note_on_c, 0, 65, 40
2, 80284, Note_on_c, 0, 55, 36
2, 80304, Note_on_c, 0, 70, 33
2, 80336, Note_on_c, 0, 77, 40
2, 80602, Control_c, 0, 64, 127
2, 80840, Note_on_c, 0, 55, 0
2, 80864, Note_on_c, 0, 77, 0
2, 80867, Note_on_c, 0, 65, 0
2, 80915, Note_on_c, 0, 60, 0
2, 80939, Note_on_c, 0, 70, 0
2, 80941, Note_on_c, 0, 82, 0
2, 80946, Note_on_c, 0, 61, 0
2, 81154, Control_c, 0, 64, 0
2, 81230, Note_on_c, 0, 81, 75
2, 81235, Note_on_c, 0, 76, 79
2, 81239, Note_on_c, 0, 60, 54
2, 81241, Note_on_c, 0, 69, 75
2, 81248, Note_on_c, 0, 61, 69
2, 81250, Note_on_c, 0, 55, 71
2, 81252, Note_on_c, 0, 65, 80
2, 81561, Note_on_c, 0, 81, 0
2, 81620, Note_on_c, 0, 69, 0
2, 81625, Note_on_c, 0, 55, 0
2, 81653, Control_c, 0, 64, 127
2, 81673, Note_on_c, 0, 65, 0
2, 81712, Note_on_c, 0, 60, 0
2, 81758, Note_on_c, 0, 61, 0
2, 81782, Note_on_c, 0, 76, 0
2, 81914, Note_on_c, 0, 76, 78
2, 81920, Note_on_c, 0, 82, 78
2, 81925, Note_on_c, 0, 70, 81
2, 81944, Note_on_c, 0, 61, 76
2, 81946, Note_on_c, 0, 60, 43
2, 81951, Note_on_c, 0, 65, 87
2, 81953, Note_on_c, 0, 55, 80
2, 82177, Note_on_c, 0, 76, 0
2, 82221, Note_on_c, 0, 82, 0
2, 82264, Note_on_c, 0, 70, 0
2, 82290, Note_on_c, 0, 55, 0
2, 82301, Note_on_c, 0, 65, 0
2, 82354, Control_c, 0, 64, 0
2, 82367, Note_on_c, 0, 60, 0
2, 82398, Note_on_c, 0, 61, 0
2, 82578, Note_on_c, 0, 84, 74
2, 82582, Note_on_c, 0, 60, 38
2, 82584, Note_on_c, 0, 55, 80
2, 82586, Note_on_c, 0, 61, 69
2, 82590, Note_on_c, 0, 65, 85
2, 82606, Note_on_c, 0, 72, 71
2, 82687, Control_c, 0, 64, 127
2, 83040, Note_on_c, 0, 84, 0
2, 83208, Note_on_c, 0, 72, 0
2, 83408, Note_on_c, 0, 65, 0
2, 83423, Note_on_c, 0, 60, 0
2, 83469, Note_on_c, 0, 61, 0
2, 83552, Note_on_c, 0, 55, 0
2, 84014, Note_on_c, 0, 82, 48
2, 84017, Note_on_c, 0, 70, 49
2, 84190, Note_on_c, 0, 82, 0
2, 84308, Note_on_c, 0, 70, 0
2, 84365, Control_c, 0, 64, 0
2, 84464, Note_on_c, 0, 57, 29
2, 84468, Note_on_c, 0, 62, 56
2, 84483, Note_on_c, 0, 52, 44
2, 84485, Note_on_c, 0, 81, 65
2, 84496, Note_on_c, 0, 58, 48
2, 84500, Note_on_c, 0, 69, 52
2, 84680, Control_c, 0, 64, 127
2, 84908, Note_on_c, 0, 81, 0
2, 85088, Note_on_c, 0, 69, 0
2, 85392, Note_on_c, 0, 69, 54
2, 85416, Control_c, 0, 64, 0
2, 85524, Note_on_c, 0, 69, 0
2, 85631, Note_on_c, 0, 70, 32
2, 85697, Note_on_c, 0, 70, 0
2, 85885, Note_on_c, 0, 74, 57
2, 85966, Note_on_c, 0, 74, 0
2, 86098, Note_on_c, 0, 78, 45
2, 86251, Note_on_c, 0, 78, 0
2, 86369, Note_on_c, 0, 81, 81
2, 86538, Note_on_c, 0, 81, 0
2, 86836, Note_on_c, 0, 81, 60
2, 86978, Note_on_c, 0, 81, 0
2, 87313, Note_on_c, 0, 81, 80
2, 87396, Note_on_c, 0, 52, 0
2, 87401, Note_on_c, 0, 57, 0
2, 87469, Note_on_c, 0, 58, 0
2, 87515, Note_on_c, 0, 81, 0
2, 87589, Note_on_c, 0, 62, 0
2, 88288, Note_on_c, 0, 84, 80
2, 88290, Note_on_c, 0, 55, 56
2, 88295, Note_on_c, 0, 66, 56
2, 88310, Note_on_c, 0, 61, 59
2, 88470, Note_on_c, 0, 84, 0
2, 88827, Note_on_c, 0, 84, 90
2, 89072, Note_on_c, 0, 84, 0
2, 89284, Note_on_c, 0, 82, 71
2, 89353, Note_on_c, 0, 66, 0
2, 89490, Note_on_c, 0, 55, 0
2, 89548, Note_on_c, 0, 82, 0
2, 89591, Note_on_c, 0, 77, 44
2, 89703, Note_on_c, 0, 61, 0
2, 89751, Note_on_c, 0, 77, 0
2, 90888, Note_on_c, 0, 61, 69
2, 90903, Note_on_c, 0, 55, 60
2, 90904, Note_on_c, 0, 65, 64
2, 90989, Note_on_c, 0, 65, 0
2, 91146, Note_on_c, 0, 55, 0
2, 91158, Note_on_c, 0, 61, 0
2, 91344, Note_on_c, 0, 69, 30
2, 91425, Note_on_c, 0, 69, 0
2, 91653, Note_on_c, 0, 76, 73
2, 91780, Control_c, 0, 64, 127
2, 91812, Note_on_c, 0, 76, 0
2, 91922, Note_on_c, 0, 79, 77
2, 92117, Note_on_c, 0, 79, 0
2, 92205, Control_c, 0, 64, 0
2, 92260, Note_on_c, 0, 81, 87
2, 92307, Note_on_c, 0, 50, 44
2, 92310, Note_on_c, 0, 60, 35
2, 92318, Note_on_c, 0, 57, 37
2, 92334, Note_on_c, 0, 53, 50
2, 92544, Note_on_c, 0, 81, 0
2, 92669, Note_on_c, 0, 79, 60
2, 92991, Note_on_c, 0, 79, 0
2, 93182, Control_c, 0, 64, 127
2, 93212, Note_on_c, 0, 76, 35
2, 93582, Note_on_c, 0, 76, 0
2, 93694, Note_on_c, 0, 77, 67
2, 93700, Control_c, 0, 64, 0
2, 94088, Note_on_c, 0, 77, 0
2, 94106, Control_c, 0, 64, 127
2, 94242, Note_on_c, 0, 73, 38
2, 94781, Note_on_c, 0, 73, 0
2, 94945, Note_on_c, 0, 53, 0
2, 94956, Note_on_c, 0, 50, 0
2, 94995, Note_on_c, 0, 60, 0
2, 94999, Note_on_c, 0, 57, 0
2, 95054, Note_on_c, 0, 76, 66
2, 95663, Note_on_c, 0, 69, 52
2, 95672, Control_c, 0, 64, 0
2, 96005, Control_c, 0, 64, 127
2, 96193, Note_on_c, 0, 76, 0
2, 96323, Note_on_c, 0, 69, 0
2, 96577, Control_c, 0, 64, 0
2, 96586, Note_on_c, 0, 79, 82
2, 96590, Note_on_c, 0, 62, 69
2, 96592, Note_on_c, 0, 60, 44
2, 96598, Note_on_c, 0, 65, 71
2, 96599, Note_on_c, 0, 55, 66
2, 96601, Note_on_c, 0, 76, 90
2, 96932, Control_c, 0, 64, 127
2, 96991, Note_on_c, 0, 79, 0
2, 97010, Note_on_c, 0, 76, 0
2, 97087, Note_on_c, 0, 77, 54
2, 97118, Note_on_c, 0, 74, 51
2, 97289, Note_on_c, 0, 55, 0
2, 97308, Note_on_c, 0, 65, 0
2, 97372, Note_on_c, 0, 60, 0
2, 97381, Note_on_c, 0, 74, 0
2, 97389, Note_on_c, 0, 62, 0
2, 97460, Note_on_c, 0, 77, 0
2, 97578, Control_c, 0, 64, 0
2, 97621, Note_on_c, 0, 79, 68
2, 97622, Note_on_c, 0, 62, 59
2, 97628, Note_on_c, 0, 65, 74
2, 97632, Note_on_c, 0, 74, 71
2, 97639, Note_on_c, 0, 55, 56
2, 97654, Note_on_c, 0, 60, 48
2, 97656, Note_on_c, 0, 69, 61
2, 97872, Control_c, 0, 64, 127
2, 97985, Note_on_c, 0, 74, 0
2, 98005, Note_on_c, 0, 79, 0
2, 98099, Note_on_c, 0, 65, 0
2, 98102, Note_on_c, 0, 69, 0
2, 98145, Note_on_c, 0, 55, 0
2, 98147, Note_on_c, 0, 60, 0
2, 98176, Note_on_c, 0, 62, 0
2, 98537, Control_c, 0, 64, 0
2, 98551, Note_on_c, 0, 76, 58
2, 98557, Note_on_c, 0, 72, 53
2, 98566, Note_on_c, 0, 67, 58
2, 98568, Note_on_c, 0, 62, 68
2, 98577, Note_on_c, 0, 60, 40
2, 98596, Note_on_c, 0, 55, 60
2, 98794, Control_c, 0, 64, 127
2, 98798, Note_on_c, 0, 62, 0
2, 98805, Note_on_c, 0, 67, 0
2, 98833, Note_on_c, 0, 60, 0
2, 98853, Note_on_c, 0, 72, 0
2, 98886, Note_on_c, 0, 55, 0
2, 98888, Note_on_c, 0, 76, 0
2, 99330, Control_c, 0, 64, 0
2, 99473, Note_on_c, 0, 63, 72
2, 99475, Note_on_c, 0, 58, 68
2, 99477, Note_on_c, 0, 53, 64
2, 99481, Note_on_c, 0, 72, 77
2, 99483, Note_on_c, 0, 77, 74
2, 99496, Note_on_c, 0, 65, 71
2, 99691, Control_c, 0, 64, 127
2, 99777, Note_on_c, 0, 63, 0
2, 99838, Note_on_c, 0, 77, 0
2, 99862, Note_on_c, 0, 53, 0
2, 99882, Note_on_c, 0, 58, 0
2, 99893, Note_on_c, 0, 72, 0
2, 99987, Note_on_c, 0, 65, 0
2, 100791, Note_on_c, 0, 65, 63
2, 100833, Note_on_c, 0, 63, 46
2, 100947, Note_on_c, 0, 60, 12
2, 101380, Note_on_c, 0, 58, 35
2, 101387, Control_c, 0, 64, 0
2, 101442, Note_on_c, 0, 53, 39
2, 101643, Note_on_c, 0, 53, 0
2, 101681, Control_c, 0, 64, 127
2, 101731, Note_on_c, 0, 58, 0
2, 101806, Note_on_c, 0, 60, 0
2, 101812, Control_c, 0, 64, 0
2, 101941, Control_c, 0, 64, 127
2, 102003, Note_on_c, 0, 63, 0
2, 102290, Note_on_c, 0, 56, 43
2, 102318, Note_on_c, 0, 60, 33
2, 102324, Note_on_c, 0, 63, 40
2, 102329, Control_c, 0, 64, 0
2, 102335, Note_on_c, 0, 46, 34
2, 102366, Note_on_c, 0, 53, 38
2, 102888, Note_on_c, 0, 60, 0
2, 102918, Control_c, 0, 64, 127
2, 103021, Note_on_c, 0, 56, 0
2, 103084, Note_on_c, 0, 63, 0
2, 103221, Note_on_c, 0, 56, 56
2, 103249, Note_on_c, 0, 60, 36
2, 103271, Note_on_c, 0, 63, 42
2, 103354, Note_on_c, 0, 56, 0
2, 103372, Note_on_c, 0, 60, 0
2, 103523, Note_on_c, 0, 63, 0
2, 103630, Note_on_c, 0, 53, 0
2, 103864, Note_on_c, 0, 65, 0
2, 104105, Note_on_c, 0, 65, 65
2, 104136, Control_c, 0, 64, 0
2, 104145, Note_on_c, 0, 56, 54
2, 104147, Note_on_c, 0, 53, 47
2, 104154, Note_on_c, 0, 60, 37
2, 104158, Note_on_c, 0, 63, 53
2, 104430, Control_c, 0, 64, 127
2, 104568, Note_on_c, 0, 53, 0
2, 104669, Note_on_c, 0, 56, 0
2, 104749, Note_on_c, 0, 60, 0
2, 104809, Note_on_c, 0, 65, 0
2, 104844, Note_on_c, 0, 63, 0
2, 104986, Note_on_c, 0, 53, 77
2, 105488, Note_on_c, 0, 65, 80
2, 105490, Note_on_c, 0, 60, 63
2, 105494, Note_on_c, 0, 56, 80
2, 105497, Note_on_c, 0, 63, 67
2, 105591, Note_on_c, 0, 46, 0
2, 106002, Note_on_c, 0, 65, 0
2, 106040, Note_on_c, 0, 56, 0
2, 106088, Note_on_c, 0, 60, 0
2, 106261, Note_on_c, 0, 63, 0
2, 106456, Note_on_c, 0, 53, 0
2, 106517, Note_on_c, 0, 61, 53
2, 106524, Note_on_c, 0, 66, 47
2, 106526, Note_on_c, 0, 46, 25
2, 106629, Note_on_c, 0, 46, 0
2, 106879, Note_on_c, 0, 61, 0
2, 106962, Note_on_c, 0, 46, 27
2, 106966, Note_on_c, 0, 66, 0
2, 107301, Note_on_c, 0, 46, 0
2, 107308, Control_c, 0, 64, 0
2, 107496, Note_on_c, 0, 67, 67
2, 107498, Note_on_c, 0, 62, 68
2, 107509, Note_on_c, 0, 55, 60
2, 107531, Note_on_c, 0, 46, 51
2, 107547, Note_on_c, 0, 39, 56
2, 107660, Control_c, 0, 64, 127
2, 107716, Note_on_c, 0, 55, 0
2, 107983, Note_on_c, 0, 39, 0
2, 108026, Note_on_c, 0, 62, 0
2, 108040, Note_on_c, 0, 46, 0
2, 108057, Note_on_c, 0, 67, 0
2, 108940, Note_on_c, 0, 79, 50
2, 109192, Note_on_c, 0, 79, 0
2, 109448, Control_c, 0, 64, 0
2, 109527, Note_on_c, 0, 61, 59
2, 109531, Note_on_c, 0, 55, 57
2, 109540, Note_on_c, 0, 73, 53
2, 109542, Note_on_c, 0, 66, 57
2, 109547, Note_on_c, 0, 75, 60
2, 109570, Note_on_c, 0, 67, 59
2, 109928, Control_c, 0, 64, 127
2, 109974, Note_on_c, 0, 75, 0
2, 109978, Note_on_c, 0, 67, 0
2, 109984, Control_c, 0, 64, 0
2, 110004, Note_on_c, 0, 73, 0
2, 110164, Note_on_c, 0, 75, 55
2, 110188, Note_on_c, 0, 73, 27
2, 110322, Note_on_c, 0, 55, 0
2, 110333, Control_c, 0, 64, 127
2, 110335, Note_on_c, 0, 66, 0
2, 110396, Note_on_c, 0, 73, 0
2, 110484, Note_on_c, 0, 75, 0
2, 110543, Note_on_c, 0, 61, 0
2, 110960, Control_c, 0, 64, 0
2, 111036, Note_on_c, 0, 72, 62
2, 111045, Note_on_c, 0, 63, 48
2, 111051, Note_on_c, 0, 60, 31
2, 111060, Note_on_c, 0, 53, 44
2, 111062, Note_on_c, 0, 77, 48
2, 111093, Note_on_c, 0, 58, 40
2, 111097, Note_on_c, 0, 65, 33
2, 111187, Note_on_c, 0, 65, 0
2, 111306, Note_on_c, 0, 63, 0
2, 111312, Control_c, 0, 64, 127
2, 111314, Note_on_c, 0, 72, 0
2, 111343, Note_on_c, 0, 60, 0
2, 111356, Note_on_c, 0, 53, 0
2, 111360, Note_on_c, 0, 77, 0
2, 111494, Note_on_c, 0, 58, 0
2, 111921, Control_c, 0, 64, 0
2, 111962, Note_on_c, 0, 60, 55
2, 111974, Note_on_c, 0, 63, 80
2, 111980, Note_on_c, 0, 53, 68
2, 111984, Note_on_c, 0, 89, 84
2, 111985, Note_on_c, 0, 58, 58
2, 111987, Note_on_c, 0, 84, 88
2, 112000, Note_on_c, 0, 77, 80
2, 112377, Note_on_c, 0, 60, 0
2, 112379, Note_on_c, 0, 89, 0
2, 112412, Note_on_c, 0, 53, 0
2, 112418, Note_on_c, 0, 84, 0
2, 112420, Note_on_c, 0, 63, 0
2, 112433, Note_on_c, 0, 77, 0
2, 112449, Note_on_c, 0, 58, 0
2, 112823, Note_on_c, 0, 63, 82
2, 112832, Note_on_c, 0, 87, 67
2, 112837, Note_on_c, 0, 53, 69
2, 112845, Note_on_c, 0, 75, 73
2, 112858, Note_on_c, 0, 58, 53
2, 112861, Note_on_c, 0, 82, 59
2, 112931, Note_on_c, 0, 82, 0
2, 112968, Note_on_c, 0, 75, 0
2, 112986, Note_on_c, 0, 58, 0
2, 113047, Note_on_c, 0, 87, 0
2, 113066, Note_on_c, 0, 63, 0
2, 113088, Note_on_c, 0, 53, 0
2, 113362, Note_on_c, 0, 85, 76
2, 113374, Note_on_c, 0, 63, 76
2, 113395, Note_on_c, 0, 89, 68
2, 113408, Note_on_c, 0, 53, 49
2, 113413, Note_on_c, 0, 58, 53
2, 113455, Note_on_c, 0, 89, 0
2, 113470, Note_on_c, 0, 53, 0
2, 113470, Note_on_c, 0, 85, 0
2, 113478, Note_on_c, 0, 63, 0
2, 113483, Note_on_c, 0, 58, 0
2, 114263, Control_c, 0, 64, 127
2, 114808, Note_on_c, 0, 63, 73
2, 114815, Note_on_c, 0, 75, 81
2, 114817, Note_on_c, 0, 87, 71
2, 114819, Note_on_c, 0, 58, 61
2, 114834, Note_on_c, 0, 53, 54
2, 114848, Note_on_c, 0, 82, 50
2, 114893, Note_on_c, 0, 53, 0
2, 114909, Note_on_c, 0, 82, 0
2, 114937, Note_on_c, 0, 75, 0
2, 114942, Note_on_c, 0, 63, 0
2, 114962, Note_on_c, 0, 87, 0
2, 115003, Note_on_c, 0, 58, 0
2, 115185, Control_c, 0, 64, 0
2, 115307, Note_on_c, 0, 85, 58
2, 115329, Note_on_c, 0, 64, 68
2, 115338, Note_on_c, 0, 73, 55
2, 115343, Note_on_c, 0, 60, 31
2, 115349, Note_on_c, 0, 57, 44
2, 115362, Note_on_c, 0, 55, 42
2, 115579, Note_on_c, 0, 85, 0
2, 115630, Note_on_c, 0, 73, 0
2, 115654, Note_on_c, 0, 74, 54
2, 115858, Note_on_c, 0, 74, 0
2, 115892, Note_on_c, 0, 86, 57
2, 115967, Note_on_c, 0, 55, 0
2, 116010, Note_on_c, 0, 60, 0
2, 116017, Note_on_c, 0, 64, 0
2, 116096, Note_on_c, 0, 86, 0
2, 116134, Note_on_c, 0, 57, 0
2, 116753, Note_on_c, 0, 64, 55
2, 116758, Note_on_c, 0, 55, 47
2, 116771, Note_on_c, 0, 60, 31
2, 116795, Note_on_c, 0, 57, 32
2, 116904, Note_on_c, 0, 64, 0
2, 116922, Note_on_c, 0, 60, 0
2, 116931, Note_on_c, 0, 57, 0
2, 116948, Note_on_c, 0, 55, 0
2, 117627, Note_on_c, 0, 55, 50
2, 117629, Note_on_c, 0, 64, 52
2, 117638, Note_on_c, 0, 60, 30
2, 117745, Note_on_c, 0, 60, 0
2, 117785, Note_on_c, 0, 64, 0
2, 117803, Note_on_c, 0, 55, 0
2, 118124, Note_on_c, 0, 60, 46
2, 118129, Note_on_c, 0, 64, 58
2, 118173, Note_on_c, 0, 54, 49
2, 118652, Note_on_c, 0, 60, 0
2, 118668, Note_on_c, 0, 64, 0
2, 118681, Note_on_c, 0, 54, 0
2, 119505, Note_on_c, 0, 54, 29
2, 119522, Note_on_c, 0, 64, 26
2, 119524, Note_on_c, 0, 60, 26
2, 119849, Note_on_c, 0, 64, 0
2, 119877, Note_on_c, 0, 60, 0
2, 119908, Control_c, 0, 64, 127
2, 119947, Note_on_c, 0, 54, 0
2, 120240, Control_c, 0, 64, 0
2, 120398, Note_on_c, 0, 64, 68
2, 120405, Note_on_c, 0, 60, 45
2, 120411, Note_on_c, 0, 54, 53
2, 120473, Note_on_c, 0, 64, 0
2, 120530, Note_on_c, 0, 60, 0
2, 120609, Note_on_c, 0, 54, 0
2, 120882, Note_on_c, 0, 92, 77
2, 120887, Note_on_c, 0, 80, 65
2, 121005, Note_on_c, 0, 80, 0
2, 121036, Note_on_c, 0, 92, 0
2, 121182, Control_c, 0, 64, 127
2, 121310, Control_c, 0, 64, 0
2, 121346, Note_on_c, 0, 60, 48
2, 121355, Note_on_c, 0, 93, 68
2, 121362, Note_on_c, 0, 81, 51
2, 121366, Note_on_c, 0, 54, 47
2, 121371, Note_on_c, 0, 64, 41
2, 121413, Note_on_c, 0, 92, 28
2, 121441, Note_on_c, 0, 81, 0
2, 121443, Note_on_c, 0, 64, 0
2, 121478, Note_on_c, 0, 92, 0
2, 121493, Note_on_c, 0, 93, 0
2, 121504, Note_on_c, 0, 54, 0
2, 121526, Note_on_c, 0, 60, 0
2, 121824, Note_on_c, 0, 60, 75
2, 121826, Note_on_c, 0, 64, 79
2, 121827, Note_on_c, 0, 54, 82
2, 121839, Note_on_c, 0, 96, 91
2, 121840, Note_on_c, 0, 84, 96
2, 121940, Note_on_c, 0, 84, 0
2, 121975, Note_on_c, 0, 64, 0
2, 122000, Note_on_c, 0, 96, 0
2, 122089, Note_on_c, 0, 54, 0
2, 122104, Note_on_c, 0, 60, 0
2, 122214, Control_c, 0, 64, 127
2, 122275, Note_on_c, 0, 60, 53
2, 122282, Note_on_c, 0, 54, 71
2, 122287, Note_on_c, 0, 64, 68
2, 122291, Note_on_c, 0, 96, 72
2, 122314, Note_on_c, 0, 84, 74
2, 122361, Note_on_c, 0, 86, 44
2, 122409, Note_on_c, 0, 96, 0
2, 122431, Note_on_c, 0, 64, 0
2, 122433, Note_on_c, 0, 86, 0
2, 122435, Note_on_c, 0, 60, 0
2, 122448, Note_on_c, 0, 84, 0
2, 122571, Note_on_c, 0, 54, 0
2, 122694, Control_c, 0, 64, 0
2, 122744, Note_on_c, 0, 80, 71
2, 122749, Note_on_c, 0, 92, 74
2, 122753, Note_on_c, 0, 58, 53
2, 122764, Note_on_c, 0, 57, 46
2, 122766, Note_on_c, 0, 62, 68
2, 122784, Note_on_c, 0, 53, 60
2, 123007, Note_on_c, 0, 93, 18
2, 123073, Note_on_c, 0, 86, 8
2, 123080, Note_on_c, 0, 81, 62
2, 123086, Note_on_c, 0, 80, 0
2, 123132, Note_on_c, 0, 92, 0
2, 123379, Note_on_c, 0, 81, 0
2, 123386, Note_on_c, 0, 86, 0
2, 123393, Note_on_c, 0, 62, 0
2, 123448, Note_on_c, 0, 93, 0
2, 123456, Note_on_c, 0, 53, 0
2, 123483, Note_on_c, 0, 58, 0
2, 123487, Note_on_c, 0, 57, 0
2, 123693, Control_c, 0, 64, 127
2, 123717, Note_on_c, 0, 62, 57
2, 123723, Note_on_c, 0, 93, 60
2, 123728, Note_on_c, 0, 58, 49
2, 123747, Note_on_c, 0, 81, 37
2, 123754, Note_on_c, 0, 53, 36
2, 123759, Note_on_c, 0, 57, 20
2, 123767, Note_on_c, 0, 86, 42
2, 123795, Note_on_c, 0, 89, 40
2, 123892, Note_on_c, 0, 89, 0
2, 123894, Note_on_c, 0, 86, 0
2, 123927, Note_on_c, 0, 81, 0
2, 123936, Note_on_c, 0, 93, 0
2, 123955, Note_on_c, 0, 62, 0
2, 123958, Note_on_c, 0, 53, 0
2, 123973, Note_on_c, 0, 57, 0
2, 123984, Note_on_c, 0, 58, 0
2, 124192, Control_c, 0, 64, 0
2, 124284, Note_on_c, 0, 93, 74
2, 124295, Note_on_c, 0, 58, 60
2, 124297, Note_on_c, 0, 62, 68
2, 124304, Note_on_c, 0, 81, 58
2, 124313, Note_on_c, 0, 53, 53
2, 124324, Note_on_c, 0, 86, 55
2, 124326, Note_on_c, 0, 57, 52
2, 124328, Note_on_c, 0, 89, 48
2, 124558, Note_on_c, 0, 86, 0
2, 124577, Note_on_c, 0, 53, 0
2, 124591, Note_on_c, 0, 81, 0
2, 124604, Note_on_c, 0, 57, 0
2, 124615, Note_on_c, 0, 62, 0
2, 124621, Note_on_c, 0, 93, 0
2, 124628, Note_on_c, 0, 89, 0
2, 124654, Control_c, 0, 64, 127
2, 124678, Note_on_c, 0, 58, 0
2, 124856, Note_on_c, 0, 93, 71
2, 124865, Note_on_c, 0, 62, 60
2, 124880, Note_on_c, 0, 58, 53
2, 124895, Note_on_c, 0, 53, 54
2, 124897, Note_on_c, 0, 57, 34
2, 124900, Note_on_c, 0, 81, 33
2, 124913, Note_on_c, 0, 89, 46
2, 124921, Note_on_c, 0, 86, 41
2, 125106, Note_on_c, 0, 93, 0
2, 125128, Note_on_c, 0, 89, 0
2, 125136, Note_on_c, 0, 81, 0
2, 125145, Note_on_c, 0, 57, 0
2, 125147, Note_on_c, 0, 62, 0
2, 125152, Note_on_c, 0, 53, 0
2, 125178, Note_on_c, 0, 86, 0
2, 125220, Note_on_c, 0, 58, 0
2, 125336, Control_c, 0, 64, 0
2, 125445, Note_on_c, 0, 89, 41
2, 125489, Note_on_c, 0, 62, 54
2, 125497, Note_on_c, 0, 53, 44
2, 125528, Note_on_c, 0, 58, 42
2, 125533, Note_on_c, 0, 57, 33
2, 125616, Note_on_c, 0, 57, 0
2, 125645, Note_on_c, 0, 62, 0
2, 125658, Note_on_c, 0, 89, 0
2, 125680, Note_on_c, 0, 53, 0
2, 125690, Note_on_c, 0, 58, 0
2, 125704, Control_c, 0, 64, 127
2, 126074, Control_c, 0, 64, 0
2, 126249, Note_on_c, 0, 58, 64
2, 126251, Note_on_c, 0, 93, 68
2, 126253, Note_on_c, 0, 62, 77
2, 126266, Note_on_c, 0, 86, 68
2, 126268, Note_on_c, 0, 57, 36
2, 126269, Note_on_c, 0, 89, 48
2, 126273, Note_on_c, 0, 81, 60
2, 126286, Note_on_c, 0, 52, 55
2, 126288, Note_on_c, 0, 91, 40
2, 126334, Note_on_c, 0, 54, 23
2, 126356, Note_on_c, 0, 89, 0
2, 126361, Note_on_c, 0, 91, 0
2, 126378, Note_on_c, 0, 93, 0
2, 126381, Note_on_c, 0, 86, 0
2, 126389, Note_on_c, 0, 57, 0
2, 126398, Note_on_c, 0, 54, 0
2, 126398, Note_on_c, 0, 62, 0
2, 126426, Control_c, 0, 64, 127
2, 126439, Note_on_c, 0, 81, 0
2, 126494, Note_on_c, 0, 58, 0
2, 126613, Note_on_c, 0, 52, 0
2, 127195, Note_on_c, 0, 53, 73
2, 127235, Control_c, 0, 64, 0
2, 127239, Note_on_c, 0, 67, 76
2, 127257, Note_on_c, 0, 53, 0
2, 127259, Note_on_c, 0, 64, 57
2, 127261, Note_on_c, 0, 58, 78
2, 127265, Note_on_c, 0, 61, 71
2, 127270, Note_on_c, 0, 55, 74
2, 127326, Note_on_c, 0, 53, 27
2, 127388, Note_on_c, 0, 53, 0
2, 127568, Control_c, 0, 64, 127
2, 128017, Note_on_c, 0, 64, 0
2, 128019, Note_on_c, 0, 58, 0
2, 128045, Note_on_c, 0, 67, 0
2, 128076, Note_on_c, 0, 61, 0
2, 128122, Control_c, 0, 64, 0
2, 128163, Note_on_c, 0, 61, 56
2, 128168, Note_on_c, 0, 65, 62
2, 128170, Note_on_c, 0, 55, 0
2, 128172, Note_on_c, 0, 58, 51
2, 128177, Note_on_c, 0, 53, 66
2, 128453, Control_c, 0, 64, 127
2, 128619, Note_on_c, 0, 58, 0
2, 128656, Control_c, 0, 64, 0
2, 128702, Note_on_c, 0, 61, 0
2, 128740, Note_on_c, 0, 65, 0
2, 128775, Note_on_c, 0, 53, 0
2, 128809, Note_on_c, 0, 58, 57
2, 128816, Note_on_c, 0, 61, 47
2, 128818, Note_on_c, 0, 52, 59
2, 128829, Note_on_c, 0, 64, 50
2, 128842, Control_c, 0, 64, 127
2, 129210, Note_on_c, 0, 58, 0
2, 129213, Note_on_c, 0, 64, 0
2, 129296, Note_on_c, 0, 61, 0
2, 129357, Control_c, 0, 64, 0
2, 129462, Note_on_c, 0, 61, 61
2, 129469, Note_on_c, 0, 58, 60
2, 129471, Note_on_c, 0, 67, 64
2, 129474, Note_on_c, 0, 52, 0
2, 129526, Note_on_c, 0, 55, 51
2, 129784, Note_on_c, 0, 58, 0
2, 129861, Note_on_c, 0, 67, 0
2, 129905, Note_on_c, 0, 55, 0
2, 129916, Note_on_c, 0, 61, 0
2, 129966, Control_c, 0, 64, 127
2, 130052, Note_on_c, 0, 58, 49
2, 130063, Note_on_c, 0, 64, 53
2, 130089, Note_on_c, 0, 61, 39
2, 130093, Note_on_c, 0, 52, 46
2, 130152, Note_on_c, 0, 61, 0
2, 130183, Note_on_c, 0, 58, 0
2, 130205, Note_on_c, 0, 64, 0
2, 130297, Note_on_c, 0, 52, 0
2, 130630, Control_c, 0, 64, 0
2, 130672, Note_on_c, 0, 72, 84
2, 131258, Note_on_c, 0, 51, 52
2, 131270, Note_on_c, 0, 69, 64
2, 131274, Note_on_c, 0, 61, 47
2, 131283, Note_on_c, 0, 65, 56
2, 131508, Note_on_c, 0, 72, 0
2, 131517, Control_c, 0, 64, 127
2, 131615, Note_on_c, 0, 61, 0
2, 131659, Note_on_c, 0, 65, 0
2, 131668, Note_on_c, 0, 69, 0
2, 131820, Note_on_c, 0, 51, 0
2, 131854, Note_on_c, 0, 57, 54
2, 131962, Note_on_c, 0, 57, 0
2, 132470, Note_on_c, 0, 60, 47
2, 132472, Note_on_c, 0, 84, 85
2, 132483, Note_on_c, 0, 72, 89
2, 132483, Note_on_c, 0, 65, 72
2, 132492, Note_on_c, 0, 55, 60
2, 132500, Note_on_c, 0, 61, 52
2, 132522, Note_on_c, 0, 58, 46
2, 132540, Note_on_c, 0, 83, 38
2, 132619, Note_on_c, 0, 83, 0
2, 132698, Note_on_c, 0, 72, 0
2, 132772, Note_on_c, 0, 84, 0
2, 132858, Note_on_c, 0, 55, 0
2, 132879, Note_on_c, 0, 65, 0
2, 132915, Note_on_c, 0, 58, 0
2, 132939, Note_on_c, 0, 60, 0
2, 132947, Note_on_c, 0, 61, 0
2, 133066, Control_c, 0, 64, 0
2, 133140, Note_on_c, 0, 60, 37
2, 133149, Note_on_c, 0, 61, 56
2, 133151, Note_on_c, 0, 89, 73
2, 133153, Note_on_c, 0, 77, 80
2, 133154, Note_on_c, 0, 65, 79
2, 133169, Note_on_c, 0, 55, 65
2, 133193, Note_on_c, 0, 88, 43
2, 133221, Note_on_c, 0, 58, 26
2, 133260, Note_on_c, 0, 89, 0
2, 133276, Note_on_c, 0, 77, 0
2, 133278, Note_on_c, 0, 88, 0
2, 133296, Note_on_c, 0, 58, 0
2, 133409, Note_on_c, 0, 65, 0
2, 133423, Note_on_c, 0, 55, 0
2, 133453, Control_c, 0, 64, 127
2, 133469, Note_on_c, 0, 60, 0
2, 133478, Note_on_c, 0, 61, 0
2, 133821, Note_on_c, 0, 61, 64
2, 133832, Note_on_c, 0, 93, 77
2, 133837, Note_on_c, 0, 65, 68
2, 133839, Note_on_c, 0, 81, 72
2, 133852, Note_on_c, 0, 60, 29
2, 133854, Note_on_c, 0, 55, 54
2, 133953, Note_on_c, 0, 60, 0
2, 133992, Note_on_c, 0, 81, 0
2, 134023, Note_on_c, 0, 65, 0
2, 134047, Note_on_c, 0, 93, 0
2, 134071, Note_on_c, 0, 55, 0
2, 134165, Note_on_c, 0, 61, 0
2, 134358, Control_c, 0, 64, 0
2, 134419, Note_on_c, 0, 92, 61
2, 134437, Note_on_c, 0, 96, 53
2, 134450, Note_on_c, 0, 84, 51
2, 134454, Note_on_c, 0, 54, 69
2, 134455, Note_on_c, 0, 60, 47
2, 134459, Note_on_c, 0, 65, 71
2, 134483, Note_on_c, 0, 90, 33
2, 134553, Note_on_c, 0, 90, 0
2, 134888, Note_on_c, 0, 93, 38
2, 134902, Note_on_c, 0, 92, 0
2, 135217, Note_on_c, 0, 84, 0
2, 135280, Control_c, 0, 64, 127
2, 135285, Note_on_c, 0, 93, 0
2, 135307, Note_on_c, 0, 96, 0
2, 135490, Note_on_c, 0, 65, 0
2, 135513, Note_on_c, 0, 54, 0
2, 135585, Note_on_c, 0, 60, 0
2, 135832, Control_c, 0, 64, 0
2, 135918, Note_on_c, 0, 100, 71
2, 135926, Note_on_c, 0, 65, 74
2, 135929, Note_on_c, 0, 54, 68
2, 135933, Note_on_c, 0, 60, 49
2, 135937, Note_on_c, 0, 88, 59
2, 135953, Note_on_c, 0, 96, 45
2, 135955, Note_on_c, 0, 93, 57
2, 136220, Control_c, 0, 64, 127
2, 136233, Note_on_c, 0, 93, 0
2, 136283, Note_on_c, 0, 88, 0
2, 136290, Note_on_c, 0, 100, 0
2, 136312, Note_on_c, 0, 65, 0
2, 136317, Note_on_c, 0, 96, 0
2, 136319, Note_on_c, 0, 54, 0
2, 136351, Note_on_c, 0, 60, 0
2, 136478, Note_on_c, 0, 100, 64
2, 136485, Note_on_c, 0, 60, 55
2, 136489, Note_on_c, 0, 65, 64
2, 136491, Note_on_c, 0, 54, 60
2, 136505, Note_on_c, 0, 96, 42
2, 136507, Note_on_c, 0, 88, 55
2, 136518, Note_on_c, 0, 93, 57
2, 136621, Note_on_c, 0, 98, 20
2, 136662, Control_c, 0, 64, 0
2, 136824, Note_on_c, 0, 100, 0
2, 136829, Note_on_c, 0, 98, 0
2, 136842, Note_on_c, 0, 93, 0
2, 136849, Note_on_c, 0, 96, 0
2, 136855, Note_on_c, 0, 65, 0
2, 136857, Note_on_c, 0, 88, 0
2, 136866, Note_on_c, 0, 60, 0
2, 136947, Note_on_c, 0, 54, 0
2, 137363, Note_on_c, 0, 60, 37
2, 137365, Note_on_c, 0, 98, 57
2, 137368, Note_on_c, 0, 54, 47
2, 137374, Note_on_c, 0, 65, 44
2, 137385, Note_on_c, 0, 93, 52
2, 137403, Note_on_c, 0, 86, 36
2, 137591, Note_on_c, 0, 93, 0
2, 137595, Note_on_c, 0, 98, 0
2, 137662, Note_on_c, 0, 86, 0
2, 137701, Note_on_c, 0, 65, 0
2, 137729, Note_on_c, 0, 60, 0
2, 137924, Note_on_c, 0, 54, 0
2, 138354, Note_on_c, 0, 92, 48
2, 138358, Note_on_c, 0, 53, 42
2, 138362, Note_on_c, 0, 62, 50
2, 138371, Note_on_c, 0, 58, 40
2, 138395, Note_on_c, 0, 80, 32
2, 138397, Note_on_c, 0, 57, 37
2, 138478, Note_on_c, 0, 86, 24
2, 138485, Note_on_c, 0, 89, 28
2, 138595, Note_on_c, 0, 86, 0
2, 138628, Note_on_c, 0, 89, 0
2, 138704, Note_on_c, 0, 62, 0
2, 138728, Note_on_c, 0, 58, 0
2, 138743, Note_on_c, 0, 57, 0
2, 138754, Note_on_c, 0, 92, 0
2, 138759, Note_on_c, 0, 80, 0
2, 138873, Note_on_c, 0, 62, 48
2, 138877, Note_on_c, 0, 58, 36
2, 138894, Note_on_c, 0, 93, 49
2, 138910, Note_on_c, 0, 57, 29
2, 138923, Note_on_c, 0, 86, 38
2, 138939, Note_on_c, 0, 89, 34
2, 138997, Note_on_c, 0, 57, 0
2, 139006, Note_on_c, 0, 86, 0
2, 139026, Note_on_c, 0, 89, 0
2, 139032, Note_on_c, 0, 53, 0
2, 139035, Note_on_c, 0, 62, 0
2, 139041, Note_on_c, 0, 93, 0
2, 139061, Note_on_c, 0, 58, 0
2, 139845, Note_on_c, 0, 93, 48
2, 139856, Note_on_c, 0, 62, 54
2, 139859, Note_on_c, 0, 86, 46
2, 139872, Note_on_c, 0, 89, 45
2, 139876, Note_on_c, 0, 53, 43
2, 139878, Note_on_c, 0, 57, 32
2, 139882, Note_on_c, 0, 81, 29
2, 139884, Note_on_c, 0, 58, 46
2, 140038, Note_on_c, 0, 81, 0
2, 140051, Note_on_c, 0, 93, 0
2, 140053, Note_on_c, 0, 86, 0
2, 140078, Note_on_c, 0, 89, 0
2, 140104, Note_on_c, 0, 62, 0
2, 140128, Note_on_c, 0, 57, 0
2, 140130, Note_on_c, 0, 53, 0
2, 140206, Note_on_c, 0, 58, 0
2, 141296, Control_c, 0, 64, 127
2, 141760, Note_on_c, 0, 57, 79
2, 141762, Note_on_c, 0, 62, 92
2, 141770, Note_on_c, 0, 58, 73
2, 141771, Note_on_c, 0, 91, 88
2, 141779, Control_c, 0, 64, 0
2, 141782, Note_on_c, 0, 52, 75
2, 141784, Note_on_c, 0, 86, 89
2, 141786, Note_on_c, 0, 79, 89
2, 142040, Control_c, 0, 64, 127
2, 142360, Note_on_c, 0, 52, 0
2, 142366, Note_on_c, 0, 62, 0
2, 142369, Note_on_c, 0, 91, 0
2, 142395, Note_on_c, 0, 57, 0
2, 142402, Note_on_c, 0, 58, 0
2, 142404, Note_on_c, 0, 79, 0
2, 142448, Note_on_c, 0, 86, 0
2, 142715, Note_on_c, 0, 89, 76
2, 142726, Note_on_c, 0, 62, 82
2, 142728, Note_on_c, 0, 84, 75
2, 142730, Note_on_c, 0, 77, 71
2, 142737, Note_on_c, 0, 58, 69
2, 142739, Note_on_c, 0, 57, 51
2, 142743, Note_on_c, 0, 52, 68
2, 142781, Control_c, 0, 64, 0
2, 142881, Note_on_c, 0, 77, 0
2, 142919, Note_on_c, 0, 84, 0
2, 142921, Note_on_c, 0, 52, 0
2, 142943, Note_on_c, 0, 62, 0
2, 142965, Note_on_c, 0, 89, 0
2, 142978, Note_on_c, 0, 57, 0
2, 143008, Note_on_c, 0, 58, 0
2, 143230, Note_on_c, 0, 55, 90
2, 143232, Note_on_c, 0, 58, 82
2, 143236, Note_on_c, 0, 64, 91
2, 143256, Note_on_c, 0, 91, 90
2, 143265, Note_on_c, 0, 86, 95
2, 143267, Note_on_c, 0, 79, 94
2, 143271, Note_on_c, 0, 61, 53
2, 143593, Note_on_c, 0, 61, 0
2, 143740, Note_on_c, 0, 91, 0
2, 143775, Note_on_c, 0, 79, 0
2, 143779, Note_on_c, 0, 86, 0
2, 143804, Note_on_c, 0, 64, 0
2, 143869, Note_on_c, 0, 55, 0
2, 143909, Note_on_c, 0, 58, 0
2, 144158, Note_on_c, 0, 64, 66
2, 144167, Note_on_c, 0, 58, 52
2, 144174, Note_on_c, 0, 61, 68
2, 144176, Note_on_c, 0, 55, 68
2, 144178, Note_on_c, 0, 89, 82
2, 144187, Note_on_c, 0, 77, 80
2, 144277, Control_c, 0, 64, 127
2, 145024, Note_on_c, 0, 64, 0
2, 145036, Note_on_c, 0, 89, 0
2, 145074, Note_on_c, 0, 61, 0
2, 145144, Note_on_c, 0, 58, 0
2, 145151, Note_on_c, 0, 55, 0
2, 145172, Note_on_c, 0, 77, 0
2, 145663, Note_on_c, 0, 88, 57
2, 145937, Control_c, 0, 64, 0
2, 145972, Note_on_c, 0, 88, 0
2, 146160, Note_on_c, 0, 86, 60
2, 146163, Note_on_c, 0, 50, 48
2, 146270, Control_c, 0, 64, 127
2, 146279, Note_on_c, 0, 86, 0
2, 146677, Note_on_c, 0, 57, 27
2, 146692, Note_on_c, 0, 50, 0
2, 146859, Control_c, 0, 64, 0
2, 146990, Control_c, 0, 64, 127
2, 147069, Note_on_c, 0, 65, 31
2, 147214, Note_on_c, 0, 65, 0
2, 147541, Control_c, 0, 64, 0
2, 147587, Note_on_c, 0, 62, 49
2, 147591, Note_on_c, 0, 76, 60
2, 147593, Note_on_c, 0, 65, 43
2, 147595, Note_on_c, 0, 69, 54
2, 147801, Control_c, 0, 64, 127
2, 148348, Note_on_c, 0, 76, 0
2, 148495, Note_on_c, 0, 74, 49
2, 148620, Note_on_c, 0, 65, 0
2, 148635, Note_on_c, 0, 69, 0
2, 148767, Note_on_c, 0, 74, 0
2, 148769, Note_on_c, 0, 62, 0
2, 149222, Control_c, 0, 64, 0
2, 149332, Note_on_c, 0, 76, 68
2, 149350, Note_on_c, 0, 73, 43
2, 149354, Note_on_c, 0, 69, 64
2, 149378, Note_on_c, 0, 61, 59
2, 149645, Control_c, 0, 64, 127
2, 149858, Note_on_c, 0, 76, 0
2, 149889, Note_on_c, 0, 73, 0
2, 150105, Note_on_c, 0, 69, 0
2, 150263, Note_on_c, 0, 79, 75
2, 150274, Note_on_c, 0, 69, 53
2, 150432, Note_on_c, 0, 69, 0
2, 150482, Note_on_c, 0, 79, 0
2, 150765, Note_on_c, 0, 61, 0
2, 150885, Note_on_c, 0, 57, 0
2, 151185, Note_on_c, 0, 76, 62
2, 151201, Note_on_c, 0, 69, 62
2, 151255, Note_on_c, 0, 50, 66
2, 151304, Control_c, 0, 64, 0
2, 151569, Note_on_c, 0, 50, 0
2, 151766, Control_c, 0, 64, 127
2, 151768, Note_on_c, 0, 50, 45
2, 152257, Note_on_c, 0, 69, 0
2, 152438, Note_on_c, 0, 76, 0
2, 152644, Note_on_c, 0, 73, 43
2, 152647, Note_on_c, 0, 50, 0
2, 152673, Note_on_c, 0, 69, 45
2, 152675, Note_on_c, 0, 65, 51
2, 152826, Note_on_c, 0, 69, 0
2, 152949, Note_on_c, 0, 73, 0
2, 152951, Note_on_c, 0, 65, 0
2, 153520, Control_c, 0, 64, 0
2, 153599, Note_on_c, 0, 69, 60
2, 153619, Note_on_c, 0, 64, 47
2, 153628, Note_on_c, 0, 50, 37
2, 153634, Note_on_c, 0, 65, 55
2, 153638, Note_on_c, 0, 57, 36
2, 153645, Note_on_c, 0, 60, 29
2, 154442, Control_c, 0, 64, 127
2, 154567, Note_on_c, 0, 60, 0
2, 154625, Note_on_c, 0, 65, 0
2, 154640, Note_on_c, 0, 64, 0
2, 154683, Note_on_c, 0, 69, 0
2, 154714, Note_on_c, 0, 57, 0
2, 154786, Note_on_c, 0, 50, 0
2, 155165, Note_on_c, 0, 50, 53
2, 155168, Note_on_c, 0, 62, 60
2, 155179, Note_on_c, 0, 65, 55
2, 155207, Note_on_c, 0, 57, 48
2, 155908, Note_on_c, 0, 62, 0
2, 155950, Note_on_c, 0, 57, 0
2, 155998, Note_on_c, 0, 65, 0
2, 156061, Note_on_c, 0, 50, 0
2, 156453, Control_c, 0, 64, 0
2, 156513, Note_on_c, 0, 70, 69
2, 156526, Note_on_c, 0, 61, 74
2, 156532, Note_on_c, 0, 66, 63
2, 156567, Note_on_c, 0, 55, 54
2, 157430, Control_c, 0, 64, 127
2, 157440, Control_c, 0, 64, 127
2, 157572, Control_c, 0, 64, 0
2, 157707, Control_c, 0, 64, 127
2, 157774, Control_c, 0, 64, 0
2, 158022, Note_on_c, 0, 45, 68
2, 158293, Note_on_c, 0, 70, 0
2, 158342, Note_on_c, 0, 66, 0
2, 158440, Note_on_c, 0, 61, 0
2, 158598, Note_on_c, 0, 55, 0
2, 158959, Note_on_c, 0, 69, 78
2, 158974, Note_on_c, 0, 58, 81
2, 158979, Control_c, 0, 64, 0
2, 158983, Note_on_c, 0, 61, 74
2, 158986, Note_on_c, 0, 64, 58
2, 159183, Note_on_c, 0, 45, 0
2, 159367, Control_c, 0, 64, 127
2, 159932, Note_on_c, 0, 45, 85
2, 160271, Control_c, 0, 64, 0
2, 160469, Note_on_c, 0, 69, 0
2, 160589, Note_on_c, 0, 64, 0
2, 160602, Note_on_c, 0, 58, 0
2, 160619, Note_on_c, 0, 61, 0
2, 161163, Note_on_c, 0, 45, 0
2, 161485, Note_on_c, 0, 68, 71
2, 161846, Note_on_c, 0, 68, 0
2, 161940, Note_on_c, 0, 69, 53
2, 162175, Note_on_c, 0, 69, 0
2, 162410, Note_on_c, 0, 74, 83
2, 162626, Note_on_c, 0, 74, 0
2, 162937, Note_on_c, 0, 68, 74
2, 162946, Note_on_c, 0, 57, 42
2, 163058, Note_on_c, 0, 57, 0
2, 163154, Note_on_c, 0, 68, 0
2, 163878, Note_on_c, 0, 67, 65
2, 164140, Note_on_c, 0, 67, 0
2, 164312, Note_on_c, 0, 65, 24
2, 164375, Control_c, 0, 64, 127
2, 164657, Note_on_c, 0, 65, 0
2, 164861, Note_on_c, 0, 62, 22
2, 165009, Note_on_c, 0, 62, 0
2, 165049, Control_c, 0, 64, 0
2, 165228, Note_on_c, 0, 65, 57
2, 165242, Note_on_c, 0, 53, 35
2, 165251, Control_c, 0, 64, 127
2, 165269, Note_on_c, 0, 46, 34
2, 165273, Note_on_c, 0, 57, 30
2, 166019, Note_on_c, 0, 65, 0
2, 166082, Note_on_c, 0, 57, 0
2, 166140, Note_on_c, 0, 62, 40
2, 166261, Note_on_c, 0, 46, 0
2, 166344, Note_on_c, 0, 53, 0
2, 166451, Note_on_c, 0, 62, 0
2, 166666, Note_on_c, 0, 62, 54
2, 166693, Note_on_c, 0, 46, 29
2, 166725, Note_on_c, 0, 53, 14
2, 166740, Note_on_c, 0, 57, 24
2, 166846, Control_c, 0, 64, 0
2, 168013, Note_on_c, 0, 57, 0
2, 168019, Note_on_c, 0, 53, 0
2, 168035, Control_c, 0, 64, 127
2, 168214, Note_on_c, 0, 46, 0
2, 168709, Control_c, 0, 64, 0
2, 168781, Note_on_c, 0, 62, 0
2, 169001, Note_on_c, 0, 51, 31
2, 169016, Note_on_c, 0, 44, 13
2, 169202, Note_on_c, 0, 44, 0
2, 169495, Note_on_c, 0, 60, 42
2, 169554, Note_on_c, 0, 51, 0
2, 169657, Note_on_c, 0, 60, 0
2, 169805, Note_on_c, 0, 63, 47
2, 169980, Note_on_c, 0, 63, 0
2, 169993, Note_on_c, 0, 67, 48
2, 170192, Note_on_c, 0, 67, 0
2, 170266, Note_on_c, 0, 70, 79
2, 170486, Note_on_c, 0, 70, 0
2, 170553, Note_on_c, 0, 67, 57
2, 170634, Note_on_c, 0, 67, 0
2, 170766, Note_on_c, 0, 68, 36
2, 170976, Note_on_c, 0, 68, 0
2, 171026, Note_on_c, 0, 70, 69
2, 171102, Note_on_c, 0, 70, 0
2, 171348, Note_on_c, 0, 63, 28
2, 171384, Note_on_c, 0, 58, 44
2, 171406, Note_on_c, 0, 53, 30
2, 171572, Note_on_c, 0, 75, 43
2, 171650, Note_on_c, 0, 75, 0
2, 171910, Note_on_c, 0, 77, 53
2, 172074, Note_on_c, 0, 77, 0
2, 172089, Note_on_c, 0, 79, 61
2, 172096, Note_on_c, 0, 53, 0
2, 172139, Note_on_c, 0, 58, 0
2, 172269, Note_on_c, 0, 79, 0
2, 172269, Note_on_c, 0, 80, 59
2, 172273, Note_on_c, 0, 63, 0
2, 172549, Note_on_c, 0, 80, 0
2, 172555, Note_on_c, 0, 82, 64
2, 172786, Note_on_c, 0, 79, 57
2, 172799, Note_on_c, 0, 56, 30
2, 172815, Note_on_c, 0, 62, 37
2, 172853, Note_on_c, 0, 67, 17
2, 172858, Note_on_c, 0, 82, 0
2, 173037, Note_on_c, 0, 79, 0
2, 173440, Note_on_c, 0, 79, 53
2, 173593, Note_on_c, 0, 79, 0
2, 173662, Note_on_c, 0, 67, 0
2, 173917, Note_on_c, 0, 79, 40
2, 174106, Note_on_c, 0, 79, 0
2, 174251, Note_on_c, 0, 62, 0
2, 174363, Note_on_c, 0, 77, 31
2, 174585, Note_on_c, 0, 77, 0
2, 174760, Note_on_c, 0, 62, 26
2, 174793, Note_on_c, 0, 67, 32
2, 174811, Note_on_c, 0, 79, 46
2, 175481, Note_on_c, 0, 56, 0
2, 175508, Note_on_c, 0, 67, 0
2, 175622, Note_on_c, 0, 79, 0
2, 175752, Note_on_c, 0, 56, 36
2, 175772, Note_on_c, 0, 77, 55
2, 175783, Control_c, 0, 64, 127
2, 175978, Note_on_c, 0, 62, 0
2, 175996, Note_on_c, 0, 77, 0
2, 176088, Note_on_c, 0, 56, 0
2, 176227, Note_on_c, 0, 75, 58
2, 176592, Note_on_c, 0, 75, 0
2, 176614, Control_c, 0, 64, 0
2, 176679, Note_on_c, 0, 62, 27
2, 176697, Note_on_c, 0, 55, 26
2, 176715, Note_on_c, 0, 65, 24
2, 176722, Note_on_c, 0, 74, 44
2, 176729, Note_on_c, 0, 60, 20
2, 177537, Control_c, 0, 64, 127
2, 177555, Note_on_c, 0, 65, 0
2, 177564, Note_on_c, 0, 74, 0
2, 177566, Note_on_c, 0, 62, 0
2, 177620, Note_on_c, 0, 60, 0
2, 177622, Note_on_c, 0, 77, 32
2, 177629, Note_on_c, 0, 55, 0
2, 178088, Note_on_c, 0, 77, 0
2, 178097, Control_c, 0, 64, 0
2, 178108, Note_on_c, 0, 73, 46
2, 178180, Note_on_c, 0, 55, 40
2, 178200, Note_on_c, 0, 66, 47
2, 178240, Note_on_c, 0, 61, 33
2, 179311, Control_c, 0, 64, 127
2, 179486, Note_on_c, 0, 55, 0
2, 179582, Note_on_c, 0, 66, 0
2, 179596, Note_on_c, 0, 61, 0
2, 180046, Note_on_c, 0, 77, 51
2, 180263, Note_on_c, 0, 73, 0
2, 180344, Control_c, 0, 64, 0
2, 180378, Note_on_c, 0, 77, 0
2, 180449, Note_on_c, 0, 63, 36
2, 180487, Note_on_c, 0, 53, 33
2, 180514, Note_on_c, 0, 58, 51
2, 180516, Note_on_c, 0, 72, 49
2, 181399, Control_c, 0, 64, 127
2, 181603, Note_on_c, 0, 53, 0
2, 181650, Note_on_c, 0, 58, 0
2, 181708, Note_on_c, 0, 63, 0
2, 182022, Note_on_c, 0, 63, 36
2, 182076, Note_on_c, 0, 53, 27
2, 182082, Note_on_c, 0, 58, 44
2, 182835, Note_on_c, 0, 72, 0
2, 183007, Note_on_c, 0, 67, 31
2, 183131, Note_on_c, 0, 53, 0
2, 183153, Note_on_c, 0, 67, 0
2, 183332, Note_on_c, 0, 58, 0
2, 183460, Note_on_c, 0, 70, 31
2, 183487, Note_on_c, 0, 63, 0
2, 183661, Note_on_c, 0, 70, 0
2, 183948, Note_on_c, 0, 72, 83
2, 184235, Note_on_c, 0, 72, 0
2, 184363, Control_c, 0, 64, 0
2, 184419, Note_on_c, 0, 74, 95
2, 184439, Note_on_c, 0, 60, 32
2, 184459, Note_on_c, 0, 63, 57
2, 184488, Note_on_c, 0, 57, 36
2, 184492, Note_on_c, 0, 55, 40
2, 184784, Note_on_c, 0, 74, 0
2, 184911, Note_on_c, 0, 75, 68
2, 185178, Note_on_c, 0, 75, 0
2, 185371, Note_on_c, 0, 63, 0
2, 185377, Note_on_c, 0, 74, 48
2, 185438, Note_on_c, 0, 60, 0
2, 185758, Note_on_c, 0, 74, 0
2, 185868, Note_on_c, 0, 63, 38
2, 185886, Note_on_c, 0, 72, 55
2, 185901, Note_on_c, 0, 60, 15
2, 185980, Control_c, 0, 64, 127
2, 186311, Note_on_c, 0, 55, 0
2, 186461, Note_on_c, 0, 63, 0
2, 186482, Note_on_c, 0, 57, 0
2, 186629, Note_on_c, 0, 60, 0
2, 186782, Note_on_c, 0, 55, 42
2, 187004, Note_on_c, 0, 55, 0
2, 188000, Note_on_c, 0, 72, 0
2, 188630, Control_c, 0, 64, 0
2, 188764, Note_on_c, 0, 62, 63
2, 188766, Note_on_c, 0, 73, 55
2, 188773, Note_on_c, 0, 68, 67
2, 188811, Note_on_c, 0, 77, 48
2, 189080, Control_c, 0, 64, 127
2, 189333, Note_on_c, 0, 77, 0
2, 189506, Note_on_c, 0, 68, 0
2, 189524, Note_on_c, 0, 73, 0
2, 189947, Note_on_c, 0, 62, 0
2, 190045, Control_c, 0, 64, 0
2, 190157, Note_on_c, 0, 70, 57
2, 190160, Note_on_c, 0, 65, 64
2, 190180, Note_on_c, 0, 59, 40
2, 190184, Note_on_c, 0, 74, 50
2, 190905, Note_on_c, 0, 59, 0
2, 190975, Note_on_c, 0, 74, 0
2, 190988, Control_c, 0, 64, 127
2, 191100, Note_on_c, 0, 70, 0
2, 191150, Note_on_c, 0, 65, 0
2, 191548, Control_c, 0, 64, 0
2, 191647, Note_on_c, 0, 53, 44
2, 191667, Note_on_c, 0, 63, 48
2, 191674, Note_on_c, 0, 68, 51
2, 191699, Note_on_c, 0, 72, 32
2, 191730, Note_on_c, 0, 53, 0
2, 191839, Note_on_c, 0, 72, 0
2, 191947, Note_on_c, 0, 68, 0
2, 191956, Note_on_c, 0, 63, 0
2, 192265, Note_on_c, 0, 62, 57
2, 192268, Note_on_c, 0, 70, 53
2, 192550, Note_on_c, 0, 70, 0
2, 192563, Note_on_c, 0, 62, 0
2, 193009, Note_on_c, 0, 43, 30
2, 193094, Note_on_c, 0, 62, 34
2, 193103, Note_on_c, 0, 53, 24
2, 193105, Note_on_c, 0, 65, 35
2, 193139, Note_on_c, 0, 58, 13
2, 193342, Note_on_c, 0, 53, 0
2, 193379, Note_on_c, 0, 43, 0
2, 193486, Note_on_c, 0, 58, 0
2, 193497, Note_on_c, 0, 62, 0
2, 193587, Note_on_c, 0, 65, 0
2, 193685, Note_on_c, 0, 69, 42
2, 193692, Note_on_c, 0, 58, 37
2, 193705, Note_on_c, 0, 57, 48
2, 193739, Note_on_c, 0, 62, 48
2, 193764, Note_on_c, 0, 65, 17
2, 194003, Note_on_c, 0, 57, 0
2, 194106, Note_on_c, 0, 62, 0
2, 194111, Note_on_c, 0, 69, 0
2, 194133, Note_on_c, 0, 65, 0
2, 194169, Note_on_c, 0, 58, 0
2, 194456, Note_on_c, 0, 55, 35
2, 194501, Note_on_c, 0, 58, 50
2, 194555, Note_on_c, 0, 62, 35
2, 194575, Note_on_c, 0, 67, 40
2, 194637, Note_on_c, 0, 55, 0
2, 194660, Note_on_c, 0, 62, 0
2, 194830, Note_on_c, 0, 58, 0
2, 194861, Note_on_c, 0, 67, 0
2, 195054, Note_on_c, 0, 58, 35
2, 195090, Note_on_c, 0, 64, 35
2, 195144, Note_on_c, 0, 61, 36
2, 197948, Note_on_c, 0, 36, 44
2, 197999, Note_on_c, 0, 52, 31
2, 198045, Control_c, 0, 64, 127
2, 198564, Note_on_c, 0, 64, 0
2, 198573, Note_on_c, 0, 58, 0
2, 198624, Note_on_c, 0, 36, 0
2, 198654, Note_on_c, 0, 61, 0
2, 199131, Note_on_c, 0, 52, 0
2, 199682, Note_on_c, 0, 53, 79
2, 199729, Control_c, 0, 64, 0
2, 200154, Note_on_c, 0, 53, 0
2, 200239, Note_on_c, 0, 54, 39
2, 200600, Note_on_c, 0, 54, 0
2, 200672, Note_on_c, 0, 53, 51
2, 201185, Note_on_c, 0, 53, 0
2, 201250, Note_on_c, 0, 53, 36
2, 201290, Note_on_c, 0, 48, 34
2, 201328, Note_on_c, 0, 42, 29
2, 201503, Note_on_c, 0, 42, 0
2, 201566, Note_on_c, 0, 48, 0
2, 202238, Note_on_c, 0, 51, 43
2, 202327, Note_on_c, 0, 42, 25
2, 202341, Note_on_c, 0, 48, 20
2, 202451, Note_on_c, 0, 53, 0
2, 202475, Note_on_c, 0, 48, 0
2, 202748, Note_on_c, 0, 42, 0
2, 203019, Note_on_c, 0, 51, 0
2, 203107, Note_on_c, 0, 53, 48
2, 203225, Note_on_c, 0, 41, 32
2, 203772, Control_c, 0, 64, 127
2, 203972, Note_on_c, 0, 53, 0
2, 204050, Note_on_c, 0, 48, 38
2, 205020, Note_on_c, 0, 53, 46
2, 205181, Note_on_c, 0, 48, 0
2, 205513, Note_on_c, 0, 41, 0
2, 205584, Note_on_c, 0, 57, 29
2, 205757, Note_on_c, 0, 57, 0
2, 206057, Note_on_c, 0, 60, 54
2, 206061, Note_on_c, 0, 53, 0
2, 206346, Note_on_c, 0, 60, 0
2, 206516, Note_on_c, 0, 61, 93
2, 206789, Note_on_c, 0, 61, 0
2, 206980, Note_on_c, 0, 62, 101
2, 207298, Control_c, 0, 64, 0
2, 207336, Note_on_c, 0, 62, 0
2, 207459, Note_on_c, 0, 57, 34
2, 207461, Note_on_c, 0, 63, 71
2, 207502, Note_on_c, 0, 47, 36
2, 207874, Note_on_c, 0, 63, 0
2, 207974, Note_on_c, 0, 64, 53
2, 208241, Note_on_c, 0, 64, 0
2, 208413, Note_on_c, 0, 65, 71
2, 208682, Note_on_c, 0, 65, 0
2, 208913, Note_on_c, 0, 65, 51
2, 209155, Note_on_c, 0, 65, 0
2, 209408, Note_on_c, 0, 65, 54
2, 209410, Note_on_c, 0, 57, 0
2, 209581, Note_on_c, 0, 57, 17
2, 209697, Note_on_c, 0, 65, 0
2, 209840, Note_on_c, 0, 47, 0
2, 209905, Note_on_c, 0, 64, 39
2, 209990, Note_on_c, 0, 57, 0
2, 210100, Note_on_c, 0, 64, 0
2, 210286, Control_c, 0, 64, 127
2, 210351, Note_on_c, 0, 65, 51
2, 210667, Control_c, 0, 64, 0
2, 210842, Note_on_c, 0, 62, 38
2, 210859, Note_on_c, 0, 52, 30
2, 210886, Note_on_c, 0, 56, 37
2, 211070, Control_c, 0, 64, 127
2, 211491, Note_on_c, 0, 65, 0
2, 211740, Note_on_c, 0, 52, 0
2, 211868, Note_on_c, 0, 56, 0
2, 211915, Note_on_c, 0, 62, 0
2, 213003, Control_c, 0, 64, 0
2, 213115, Note_on_c, 0, 79, 71
2, 213162, Note_on_c, 0, 71, 68
2, 213198, Note_on_c, 0, 68, 64
2, 213200, Note_on_c, 0, 74, 48
2, 213223, Note_on_c, 0, 67, 58
2, 213272, Control_c, 0, 64, 127
2, 213341, Note_on_c, 0, 74, 0
2, 213373, Note_on_c, 0, 71, 0
2, 213386, Note_on_c, 0, 68, 0
2, 213426, Note_on_c, 0, 67, 0
2, 213433, Note_on_c, 0, 79, 0
2, 213767, Control_c, 0, 64, 0
2, 213908, Note_on_c, 0, 82, 70
2, 213919, Note_on_c, 0, 71, 63
2, 213926, Note_on_c, 0, 74, 61
2, 213928, Note_on_c, 0, 70, 67
2, 213982, Note_on_c, 0, 77, 52
2, 214260, Control_c, 0, 64, 127
2, 214338, Note_on_c, 0, 77, 0
2, 214378, Note_on_c, 0, 82, 0
2, 214381, Note_on_c, 0, 71, 0
2, 214410, Note_on_c, 0, 70, 0
2, 214437, Note_on_c, 0, 74, 0
2, 214520, Note_on_c, 0, 80, 61
2, 214528, Note_on_c, 0, 68, 39
2, 214739, Note_on_c, 0, 80, 0
2, 214883, Note_on_c, 0, 68, 0
2, 214911, Control_c, 0, 64, 0
2, 215077, Note_on_c, 0, 69, 53
2, 215082, Note_on_c, 0, 81, 71
2, 215111, Note_on_c, 0, 70, 42
2, 215122, Note_on_c, 0, 74, 51
2, 215187, Note_on_c, 0, 69, 0
2, 215200, Note_on_c, 0, 81, 0
2, 215207, Note_on_c, 0, 70, 0
2, 215219, Note_on_c, 0, 74, 0
2, 216594, Note_on_c, 0, 62, 52
2, 216601, Note_on_c, 0, 52, 41
2, 216697, Note_on_c, 0, 58, 25
2, 216760, Note_on_c, 0, 62, 0
2, 216773, Note_on_c, 0, 52, 0
2, 216775, Note_on_c, 0, 58, 0
2, 217095, Note_on_c, 0, 67, 62
2, 217326, Note_on_c, 0, 67, 0
2, 217559, Note_on_c, 0, 69, 84
2, 217848, Note_on_c, 0, 69, 0
2, 218003, Note_on_c, 0, 70, 77
2, 218301, Note_on_c, 0, 70, 0
2, 218439, Note_on_c, 0, 65, 55
2, 218467, Note_on_c, 0, 60, 25
2, 218471, Note_on_c, 0, 61, 46
2, 218495, Note_on_c, 0, 55, 34
2, 218551, Note_on_c, 0, 72, 50
2, 220498, Note_on_c, 0, 77, 65
2, 220841, Control_c, 0, 64, 127
2, 221455, Note_on_c, 0, 65, 0
2, 221466, Note_on_c, 0, 82, 60
2, 221517, Note_on_c, 0, 60, 0
2, 221603, Note_on_c, 0, 61, 0
2, 221656, Note_on_c, 0, 55, 0
2, 221793, Note_on_c, 0, 72, 0
2, 221862, Note_on_c, 0, 82, 0
2, 222098, Note_on_c, 0, 77, 0
2, 222326, Note_on_c, 0, 84, 52
2, 222532, Note_on_c, 0, 84, 0
2, 222749, Control_c, 0, 64, 0
2, 222792, Note_on_c, 0, 60, 36
2, 222817, Note_on_c, 0, 81, 58
2, 222828, Note_on_c, 0, 88, 63
2, 222839, Note_on_c, 0, 50, 32
2, 222857, Note_on_c, 0, 57, 34
2, 222873, Note_on_c, 0, 53, 41
2, 223695, Note_on_c, 0, 88, 0
2, 223728, Note_on_c, 0, 81, 0
2, 223780, Note_on_c, 0, 76, 40
2, 223784, Note_on_c, 0, 84, 38
2, 223867, Note_on_c, 0, 57, 0
2, 223912, Note_on_c, 0, 60, 0
2, 223941, Note_on_c, 0, 76, 0
2, 223957, Note_on_c, 0, 53, 0
2, 224067, Note_on_c, 0, 84, 0
2, 224288, Note_on_c, 0, 60, 33
2, 224300, Note_on_c, 0, 81, 46
2, 224304, Note_on_c, 0, 88, 53
2, 224347, Note_on_c, 0, 57, 18
2, 224351, Note_on_c, 0, 53, 24
2, 224523, Control_c, 0, 64, 127
2, 224557, Note_on_c, 0, 57, 0
2, 224620, Note_on_c, 0, 60, 0
2, 224689, Note_on_c, 0, 53, 0
2, 225014, Note_on_c, 0, 88, 0
2, 225068, Note_on_c, 0, 81, 0
2, 225166, Note_on_c, 0, 86, 35
2, 225310, Control_c, 0, 64, 0
2, 225330, Note_on_c, 0, 50, 0
2, 225348, Note_on_c, 0, 86, 0
2, 225686, Note_on_c, 0, 81, 59
2, 225695, Note_on_c, 0, 88, 62
2, 225706, Note_on_c, 0, 60, 39
2, 225720, Note_on_c, 0, 76, 48
2, 225753, Note_on_c, 0, 53, 36
2, 225852, Note_on_c, 0, 76, 0
2, 225896, Note_on_c, 0, 60, 0
2, 225953, Note_on_c, 0, 81, 0
2, 225966, Note_on_c, 0, 53, 0
2, 225973, Note_on_c, 0, 88, 0
2, 226611, Control_c, 0, 64, 127
2, 227117, Note_on_c, 0, 64, 39
2, 227142, Note_on_c, 0, 59, 47
2, 227151, Control_c, 0, 64, 0
2, 227169, Note_on_c, 0, 53, 34
2, 227330, Control_c, 0, 64, 127
2, 227583, Note_on_c, 0, 59, 0
2, 227615, Note_on_c, 0, 53, 0
2, 227675, Note_on_c, 0, 64, 0
2, 228065, Note_on_c, 0, 86, 72
2, 228069, Note_on_c, 0, 80, 69
2, 228071, Note_on_c, 0, 64, 75
2, 228074, Note_on_c, 0, 53, 74
2, 228076, Note_on_c, 0, 59, 71
2, 228080, Note_on_c, 0, 74, 75
2, 228101, Note_on_c, 0, 83, 61
2, 228351, Note_on_c, 0, 74, 0
2, 228367, Note_on_c, 0, 86, 0
2, 228374, Note_on_c, 0, 64, 0
2, 228376, Note_on_c, 0, 53, 0
2, 228426, Note_on_c, 0, 80, 0
2, 228464, Control_c, 0, 64, 0
2, 228488, Note_on_c, 0, 59, 0
2, 228491, Note_on_c, 0, 83, 0
2, 228663, Note_on_c, 0, 80, 76
2, 228672, Note_on_c, 0, 83, 66
2, 228674, Note_on_c, 0, 88, 78
2, 228677, Note_on_c, 0, 59, 71
2, 228685, Note_on_c, 0, 76, 84
2, 228694, Note_on_c, 0, 64, 78
2, 228701, Note_on_c, 0, 53, 83
2, 228726, Note_on_c, 0, 86, 40
2, 228981, Control_c, 0, 64, 127
2, 229120, Note_on_c, 0, 88, 0
2, 229153, Note_on_c, 0, 76, 0
2, 229158, Note_on_c, 0, 86, 0
2, 229214, Note_on_c, 0, 53, 0
2, 229228, Control_c, 0, 64, 0
2, 229230, Note_on_c, 0, 64, 0
2, 229252, Note_on_c, 0, 80, 0
2, 229277, Note_on_c, 0, 83, 0
2, 229301, Note_on_c, 0, 59, 0
2, 229378, Note_on_c, 0, 86, 60
2, 229387, Note_on_c, 0, 80, 56
2, 229402, Note_on_c, 0, 74, 59
2, 229404, Note_on_c, 0, 53, 58
2, 229407, Note_on_c, 0, 59, 45
2, 229409, Note_on_c, 0, 64, 68
2, 229615, Control_c, 0, 64, 127
2, 229628, Note_on_c, 0, 86, 0
2, 229646, Note_on_c, 0, 64, 0
2, 229664, Note_on_c, 0, 53, 0
2, 229707, Note_on_c, 0, 74, 0
2, 229769, Note_on_c, 0, 80, 0
2, 229790, Note_on_c, 0, 59, 0
2, 230063, Note_on_c, 0, 84, 46
2, 230076, Note_on_c, 0, 72, 66
2, 230083, Note_on_c, 0, 64, 28
2, 230148, Note_on_c, 0, 84, 0
2, 230159, Note_on_c, 0, 64, 0
2, 230269, Note_on_c, 0, 72, 0
2, 230491, Control_c, 0, 64, 0
2, 230643, Note_on_c, 0, 62, 51
2, 230652, Note_on_c, 0, 63, 44
2, 230672, Note_on_c, 0, 58, 38
2, 230675, Note_on_c, 0, 79, 54
2, 230681, Note_on_c, 0, 75, 46
2, 230722, Note_on_c, 0, 67, 24
2, 231241, Note_on_c, 0, 67, 0
2, 231315, Note_on_c, 0, 75, 0
2, 231337, Note_on_c, 0, 79, 0
2, 231434, Note_on_c, 0, 77, 36
2, 231456, Control_c, 0, 64, 127
2, 231463, Note_on_c, 0, 74, 32
2, 231530, Note_on_c, 0, 62, 0
2, 231638, Note_on_c, 0, 63, 0
2, 231696, Note_on_c, 0, 74, 0
2, 231752, Note_on_c, 0, 77, 0
2, 231862, Control_c, 0, 64, 0
2, 231998, Note_on_c, 0, 79, 52
2, 232005, Note_on_c, 0, 75, 37
2, 232025, Note_on_c, 0, 62, 24
2, 232030, Note_on_c, 0, 63, 35
2, 232034, Note_on_c, 0, 74, 46
2, 232093, Note_on_c, 0, 67, 18
2, 232151, Note_on_c, 0, 74, 0
2, 232242, Control_c, 0, 64, 127
2, 232278, Note_on_c, 0, 67, 0
2, 232355, Note_on_c, 0, 63, 0
2, 232527, Note_on_c, 0, 62, 0
2, 232545, Note_on_c, 0, 75, 0
2, 232594, Note_on_c, 0, 79, 0
2, 232899, Note_on_c, 0, 77, 56
2, 232917, Control_c, 0, 64, 0
2, 232928, Note_on_c, 0, 74, 46
2, 233074, Note_on_c, 0, 74, 0
2, 233098, Note_on_c, 0, 77, 0
2, 233389, Note_on_c, 0, 67, 49
2, 233436, Note_on_c, 0, 79, 37
2, 233439, Note_on_c, 0, 75, 35
2, 233564, Note_on_c, 0, 67, 0
2, 233580, Note_on_c, 0, 75, 0
2, 233647, Note_on_c, 0, 79, 0
2, 233761, Note_on_c, 0, 58, 0
2, 234263, Control_c, 0, 64, 127
2, 234713, Control_c, 0, 64, 0
2, 234888, Note_on_c, 0, 66, 53
2, 234917, Note_on_c, 0, 57, 33
2, 234928, Note_on_c, 0, 63, 42
2, 235117, Control_c, 0, 64, 127
2, 235193, Note_on_c, 0, 57, 0
2, 235271, Note_on_c, 0, 66, 0
2, 235369, Note_on_c, 0, 63, 0
2, 235726, Note_on_c, 0, 78, 68
2, 235730, Note_on_c, 0, 75, 74
2, 235735, Note_on_c, 0, 73, 63
2, 235743, Note_on_c, 0, 69, 74
2, 235820, Note_on_c, 0, 65, 39
2, 235856, Note_on_c, 0, 63, 29
2, 235936, Note_on_c, 0, 65, 0
2, 236064, Note_on_c, 0, 69, 0
2, 236098, Note_on_c, 0, 63, 0
2, 236104, Note_on_c, 0, 78, 0
2, 236153, Note_on_c, 0, 73, 0
2, 236178, Note_on_c, 0, 75, 0
2, 236194, Control_c, 0, 64, 0
2, 236335, Note_on_c, 0, 73, 60
2, 236340, Note_on_c, 0, 75, 69
2, 236346, Note_on_c, 0, 80, 79
2, 236351, Note_on_c, 0, 68, 79
2, 236366, Note_on_c, 0, 69, 83
2, 236532, Control_c, 0, 64, 127
2, 236870, Control_c, 0, 64, 0
2, 236976, Note_on_c, 0, 73, 0
2, 236984, Note_on_c, 0, 75, 0
2, 237023, Note_on_c, 0, 69, 0
2, 237025, Note_on_c, 0, 80, 0
2, 237105, Note_on_c, 0, 68, 0
2, 237159, Note_on_c, 0, 66, 44
2, 237164, Note_on_c, 0, 78, 55
2, 237173, Note_on_c, 0, 73, 33
2, 237191, Note_on_c, 0, 69, 53
2, 237193, Note_on_c, 0, 75, 35
2, 237206, Control_c, 0, 64, 127
2, 237307, Note_on_c, 0, 66, 0
2, 237536, Note_on_c, 0, 69, 0
2, 237601, Note_on_c, 0, 78, 0
2, 237632, Note_on_c, 0, 73, 0
2, 237683, Note_on_c, 0, 75, 0
2, 237722, Control_c, 0, 64, 0
2, 237822, Note_on_c, 0, 65, 59
2, 237858, Note_on_c, 0, 69, 57
2, 237860, Note_on_c, 0, 77, 64
2, 237878, Note_on_c, 0, 74, 62
2, 237885, Note_on_c, 0, 62, 39
2, 237892, Note_on_c, 0, 60, 27
2, 238172, Control_c, 0, 64, 127
2, 238268, Note_on_c, 0, 65, 0
2, 238720, Note_on_c, 0, 69, 0
2, 238765, Note_on_c, 0, 74, 0
2, 238868, Control_c, 0, 64, 0
2, 238882, Note_on_c, 0, 77, 0
2, 239016, Note_on_c, 0, 53, 38
2, 239043, Note_on_c, 0, 76, 60
2, 239092, Control_c, 0, 64, 127
2, 239160, Control_c, 0, 64, 0
2, 239426, Note_on_c, 0, 60, 0
2, 239453, Note_on_c, 0, 62, 0
2, 239516, Note_on_c, 0, 76, 0
2, 239610, Note_on_c, 0, 62, 29
2, 239621, Note_on_c, 0, 65, 51
2, 239637, Note_on_c, 0, 77, 58
2, 239666, Note_on_c, 0, 74, 36
2, 239673, Note_on_c, 0, 69, 33
2, 239728, Note_on_c, 0, 65, 0
2, 239767, Note_on_c, 0, 69, 0
2, 239771, Note_on_c, 0, 74, 0
2, 239816, Note_on_c, 0, 62, 0
2, 239879, Control_c, 0, 64, 127
2, 239888, Note_on_c, 0, 53, 0
2, 239903, Note_on_c, 0, 77, 0
2, 240461, Control_c, 0, 64, 0
2, 240495, Note_on_c, 0, 76, 55
2, 240732, Note_on_c, 0, 76, 0
2, 240941, Note_on_c, 0, 77, 44
2, 240956, Control_c, 0, 64, 127
2, 240978, Note_on_c, 0, 60, 24
2, 240981, Note_on_c, 0, 65, 29
2, 240997, Note_on_c, 0, 69, 22
2, 241126, Note_on_c, 0, 65, 0
2, 241147, Note_on_c, 0, 60, 0
2, 241171, Note_on_c, 0, 69, 0
2, 241442, Note_on_c, 0, 77, 0
2, 241787, Control_c, 0, 64, 0
2, 241850, Note_on_c, 0, 65, 57
2, 241906, Note_on_c, 0, 61, 31
2, 241908, Note_on_c, 0, 55, 32
2, 241912, Note_on_c, 0, 60, 30
2, 242929, Note_on_c, 0, 69, 39
2, 243209, Note_on_c, 0, 65, 0
2, 243297, Note_on_c, 0, 69, 0
2, 243389, Note_on_c, 0, 65, 44
2, 243424, Note_on_c, 0, 70, 54
2, 243718, Control_c, 0, 64, 127
2, 243725, Note_on_c, 0, 65, 0
2, 243727, Note_on_c, 0, 70, 0
2, 243859, Note_on_c, 0, 72, 65
2, 244108, Note_on_c, 0, 55, 0
2, 244157, Note_on_c, 0, 72, 0
2, 244159, Note_on_c, 0, 60, 0
2, 244198, Note_on_c, 0, 61, 0
2, 244368, Note_on_c, 0, 65, 60
2, 244370, Note_on_c, 0, 77, 82
2, 244379, Note_on_c, 0, 60, 28
2, 244381, Note_on_c, 0, 55, 32
2, 244390, Note_on_c, 0, 61, 33
2, 244511, Note_on_c, 0, 65, 0
2, 244520, Note_on_c, 0, 60, 0
2, 244574, Note_on_c, 0, 61, 0
2, 244623, Note_on_c, 0, 77, 0
2, 244665, Note_on_c, 0, 55, 0
2, 244782, Note_on_c, 0, 81, 90
2, 245147, Note_on_c, 0, 81, 0
2, 245279, Note_on_c, 0, 82, 82
2, 245582, Control_c, 0, 64, 0
2, 245638, Note_on_c, 0, 82, 0
2, 245701, Note_on_c, 0, 62, 53
2, 245714, Note_on_c, 0, 57, 31
2, 245747, Note_on_c, 0, 52, 39
2, 245754, Note_on_c, 0, 81, 59
2, 245763, Note_on_c, 0, 58, 49
2, 246592, Control_c, 0, 64, 127
2, 246601, Note_on_c, 0, 58, 0
2, 246677, Note_on_c, 0, 57, 0
2, 246684, Note_on_c, 0, 62, 0
2, 246845, Note_on_c, 0, 81, 0
2, 247042, Note_on_c, 0, 52, 0
2, 247206, Note_on_c, 0, 79, 49
2, 247212, Note_on_c, 0, 62, 51
2, 247235, Note_on_c, 0, 74, 32
2, 247318, Note_on_c, 0, 58, 28
2, 247410, Note_on_c, 0, 58, 0
2, 247502, Note_on_c, 0, 62, 0
2, 247786, Note_on_c, 0, 74, 0
2, 249193, Note_on_c, 0, 79, 0
2, 250140, Control_c, 0, 64, 0
2, 250259, Note_on_c, 0, 80, 55
2, 250263, Note_on_c, 0, 70, 60
2, 250270, Note_on_c, 0, 75, 68
2, 250288, Note_on_c, 0, 84, 56
2, 250568, Control_c, 0, 64, 127
2, 250714, Note_on_c, 0, 84, 0
2, 250770, Note_on_c, 0, 70, 0
2, 250902, Note_on_c, 0, 80, 0
2, 250920, Note_on_c, 0, 75, 0
2, 251601, Control_c, 0, 64, 0
2, 251657, Note_on_c, 0, 80, 60
2, 251679, Note_on_c, 0, 71, 59
2, 251690, Note_on_c, 0, 76, 62
2, 251710, Note_on_c, 0, 67, 47
2, 251872, Control_c, 0, 64, 127
2, 251970, Note_on_c, 0, 80, 0
2, 252024, Note_on_c, 0, 76, 0
2, 252060, Note_on_c, 0, 71, 0
2, 252297, Control_c, 0, 64, 0
2, 252400, Note_on_c, 0, 67, 0
2, 252586, Note_on_c, 0, 70, 51
2, 252602, Note_on_c, 0, 75, 53
2, 252611, Note_on_c, 0, 79, 35
2, 252645, Note_on_c, 0, 64, 28
2, 252698, Note_on_c, 0, 79, 0
2, 252922, Note_on_c, 0, 70, 0
2, 252956, Note_on_c, 0, 75, 0
2, 252978, Note_on_c, 0, 64, 0
2, 253162, Note_on_c, 0, 75, 40
2, 253168, Note_on_c, 0, 73, 44
2, 253173, Note_on_c, 0, 70, 43
2, 253186, Note_on_c, 0, 78, 39
2, 253202, Note_on_c, 0, 63, 52
2, 253440, Note_on_c, 0, 78, 0
2, 253505, Note_on_c, 0, 75, 0
2, 253522, Note_on_c, 0, 73, 0
2, 253579, Note_on_c, 0, 63, 0
2, 253601, Note_on_c, 0, 70, 0
2, 253740, Note_on_c, 0, 62, 48
2, 253742, Note_on_c, 0, 77, 51
2, 253774, Note_on_c, 0, 72, 51
2, 253782, Note_on_c, 0, 69, 47
2, 253847, Control_c, 0, 64, 127
2, 253924, Note_on_c, 0, 77, 0
2, 253984, Note_on_c, 0, 72, 0
2, 254056, Note_on_c, 0, 69, 0
2, 254078, Note_on_c, 0, 62, 0
2, 254183, Control_c, 0, 64, 0
2, 254419, Note_on_c, 0, 76, 64
2, 254432, Note_on_c, 0, 69, 48
2, 254443, Note_on_c, 0, 65, 47
2, 254486, Note_on_c, 0, 61, 30
2, 254813, Note_on_c, 0, 65, 0
2, 254835, Note_on_c, 0, 69, 0
2, 254869, Note_on_c, 0, 76, 0
2, 254904, Note_on_c, 0, 61, 0
2, 255021, Note_on_c, 0, 74, 38
2, 255059, Note_on_c, 0, 69, 35
2, 255070, Note_on_c, 0, 65, 29
2, 255108, Note_on_c, 0, 60, 27
2, 255138, Note_on_c, 0, 74, 0
2, 255153, Note_on_c, 0, 69, 0
2, 255238, Control_c, 0, 64, 127
2, 255277, Note_on_c, 0, 65, 0
2, 255532, Note_on_c, 0, 60, 0
2, 255800, Control_c, 0, 64, 0
2, 255839, Note_on_c, 0, 62, 53
2, 255848, Note_on_c, 0, 65, 44
2, 255861, Note_on_c, 0, 57, 37
2, 255877, Note_on_c, 0, 69, 38
2, 256036, Note_on_c, 0, 62, 0
2, 256058, Note_on_c, 0, 65, 0
2, 256116, Note_on_c, 0, 69, 0
2, 256206, Note_on_c, 0, 57, 0
2, 256352, Note_on_c, 0, 53, 40
2, 256838, Note_on_c, 0, 53, 0
2, 256889, Note_on_c, 0, 50, 31
2, 256997, Note_on_c, 0, 50, 0
2, 257335, Note_on_c, 0, 60, 34
2, 257350, Note_on_c, 0, 62, 53
2, 257355, Note_on_c, 0, 65, 45
2, 257391, Note_on_c, 0, 57, 43
2, 257407, Note_on_c, 0, 46, 36
2, 257414, Note_on_c, 0, 53, 44
2, 257496, Note_on_c, 0, 60, 0
2, 257550, Note_on_c, 0, 62, 0
2, 257575, Note_on_c, 0, 65, 0
2, 257599, Note_on_c, 0, 57, 0
2, 257644, Note_on_c, 0, 53, 0
2, 257687, Note_on_c, 0, 46, 0
2, 258254, Note_on_c, 0, 46, 37
2, 258264, Note_on_c, 0, 60, 32
2, 258268, Note_on_c, 0, 62, 46
2, 258278, Note_on_c, 0, 65, 43
2, 258307, Note_on_c, 0, 57, 30
2, 258312, Note_on_c, 0, 53, 32
2, 259102, Control_c, 0, 64, 127
2, 259237, Note_on_c, 0, 57, 0
2, 259311, Note_on_c, 0, 46, 0
2, 259503, Note_on_c, 0, 53, 0
2, 259739, Note_on_c, 0, 46, 39
2, 260101, Note_on_c, 0, 46, 0
2, 260623, Note_on_c, 0, 60, 0
2, 260818, Note_on_c, 0, 62, 0
2, 260850, Note_on_c, 0, 65, 0
2, 261190, Control_c, 0, 64, 0
2, 261230, Note_on_c, 0, 44, 51
2, 261799, Note_on_c, 0, 48, 55
2, 262016, Note_on_c, 0, 48, 0
2, 262254, Note_on_c, 0, 51, 63
2, 262697, Note_on_c, 0, 51, 0
2, 262762, Note_on_c, 0, 58, 83
2, 262810, Note_on_c, 0, 51, 30
2, 263150, Note_on_c, 0, 58, 0
2, 263226, Note_on_c, 0, 55, 49
2, 263248, Note_on_c, 0, 51, 0
2, 263715, Note_on_c, 0, 56, 76
2, 263806, Note_on_c, 0, 55, 0
2, 263817, Note_on_c, 0, 51, 21
2, 263929, Note_on_c, 0, 44, 0
2, 264030, Note_on_c, 0, 56, 0
2, 264127, Note_on_c, 0, 58, 74
2, 264151, Note_on_c, 0, 51, 0
2, 264575, Note_on_c, 0, 58, 0
2, 264644, Note_on_c, 0, 60, 73
2, 264662, Note_on_c, 0, 46, 50
2, 264678, Note_on_c, 0, 56, 49
2, 265032, Note_on_c, 0, 60, 0
2, 265159, Note_on_c, 0, 63, 71
2, 265334, Note_on_c, 0, 53, 26
2, 265744, Note_on_c, 0, 63, 0
2, 265899, Note_on_c, 0, 62, 53
2, 266057, Note_on_c, 0, 56, 0
2, 266347, Note_on_c, 0, 62, 0
2, 266474, Note_on_c, 0, 63, 75
2, 266501, Note_on_c, 0, 56, 42
2, 266828, Control_c, 0, 64, 127
2, 266949, Note_on_c, 0, 56, 0
2, 266969, Note_on_c, 0, 63, 0
2, 267041, Note_on_c, 0, 65, 68
2, 267426, Note_on_c, 0, 56, 39
2, 267433, Note_on_c, 0, 53, 0
2, 267500, Control_c, 0, 64, 0
2, 267532, Note_on_c, 0, 46, 0
2, 267639, Note_on_c, 0, 56, 0
2, 267641, Note_on_c, 0, 65, 0
2, 267793, Control_c, 0, 64, 127
2, 267823, Note_on_c, 0, 67, 60
2, 268246, Note_on_c, 0, 67, 0
2, 268421, Control_c, 0, 64, 0
2, 268441, Note_on_c, 0, 70, 57
2, 269001, Note_on_c, 0, 67, 38
2, 269187, Note_on_c, 0, 70, 0
2, 269644, Note_on_c, 0, 62, 34
2, 269666, Note_on_c, 0, 65, 28
2, 269686, Note_on_c, 0, 60, 28
2, 269704, Note_on_c, 0, 55, 22
2, 269904, Control_c, 0, 64, 127
2, 270208, Note_on_c, 0, 65, 0
2, 270235, Note_on_c, 0, 62, 0
2, 270305, Note_on_c, 0, 60, 0
2, 270320, Note_on_c, 0, 55, 0
2, 270394, Note_on_c, 0, 67, 0
2, 270502, Note_on_c, 0, 70, 51
2, 270869, Control_c, 0, 64, 0
2, 270970, Note_on_c, 0, 70, 0
2, 270983, Note_on_c, 0, 69, 58
2, 271017, Note_on_c, 0, 66, 40
2, 271021, Note_on_c, 0, 61, 45
2, 271091, Note_on_c, 0, 55, 19
2, 271879, Control_c, 0, 64, 127
2, 272041, Note_on_c, 0, 55, 0
2, 272150, Note_on_c, 0, 66, 0
2, 272195, Note_on_c, 0, 61, 0
2, 272363, Note_on_c, 0, 69, 0
2, 272439, Note_on_c, 0, 70, 38
2, 272733, Control_c, 0, 64, 0
2, 272800, Note_on_c, 0, 70, 0
2, 272892, Note_on_c, 0, 68, 39
2, 272894, Note_on_c, 0, 53, 36
2, 272919, Note_on_c, 0, 60, 22
2, 272921, Note_on_c, 0, 63, 17
2, 273721, Control_c, 0, 64, 127
2, 273880, Note_on_c, 0, 53, 0
2, 273889, Note_on_c, 0, 63, 0
2, 273920, Note_on_c, 0, 60, 0
2, 274417, Control_c, 0, 64, 0
2, 275309, Note_on_c, 0, 63, 43
2, 275441, Note_on_c, 0, 63, 0
2, 276115, Note_on_c, 0, 68, 0
2, 276185, Note_on_c, 0, 67, 59
2, 276454, Note_on_c, 0, 67, 0
2, 276660, Note_on_c, 0, 72, 52
2, 277009, Note_on_c, 0, 72, 0
2, 277136, Note_on_c, 0, 75, 72
2, 277168, Note_on_c, 0, 63, 45
2, 277215, Note_on_c, 0, 60, 17
2, 277253, Note_on_c, 0, 57, 24
2, 277379, Note_on_c, 0, 75, 0
2, 277450, Note_on_c, 0, 63, 0
2, 277600, Note_on_c, 0, 74, 37
2, 277847, Note_on_c, 0, 57, 0
2, 277919, Note_on_c, 0, 60, 0
2, 277929, Note_on_c, 0, 74, 0
2, 278946, Note_on_c, 0, 63, 49
2, 278985, Note_on_c, 0, 60, 19
2, 279381, Control_c, 0, 64, 127
2, 279386, Note_on_c, 0, 60, 0
2, 279401, Note_on_c, 0, 63, 0
2, 280122, Control_c, 0, 64, 0
2, 280333, Note_on_c, 0, 77, 68
2, 280335, Note_on_c, 0, 69, 66
2, 280338, Note_on_c, 0, 66, 69
2, 280355, Note_on_c, 0, 65, 67
2, 280371, Note_on_c, 0, 72, 50
2, 280492, Note_on_c, 0, 77, 0
2, 280512, Note_on_c, 0, 72, 0
2, 280539, Note_on_c, 0, 69, 0
2, 280607, Note_on_c, 0, 66, 0
2, 280615, Note_on_c, 0, 65, 0
2, 280857, Note_on_c, 0, 63, 39
2, 281095, Note_on_c, 0, 63, 0
2, 281323, Note_on_c, 0, 74, 55
2, 281355, Note_on_c, 0, 63, 42
2, 281366, Note_on_c, 0, 66, 33
2, 281381, Note_on_c, 0, 62, 42
2, 281406, Note_on_c, 0, 69, 30
2, 281650, Note_on_c, 0, 62, 0
2, 281691, Note_on_c, 0, 74, 0
2, 281695, Note_on_c, 0, 69, 0
2, 281706, Note_on_c, 0, 63, 0
2, 281805, Note_on_c, 0, 66, 0
2, 282233, Control_c, 0, 64, 127
2, 282481, Control_c, 0, 64, 0
2, 282752, Note_on_c, 0, 60, 34
2, 282768, Note_on_c, 0, 63, 60
2, 282777, Note_on_c, 0, 72, 51
2, 282779, Note_on_c, 0, 66, 46
2, 282813, Note_on_c, 0, 69, 36
2, 282925, Note_on_c, 0, 69, 0
2, 282927, Note_on_c, 0, 72, 0
2, 282983, Note_on_c, 0, 60, 0
2, 282990, Note_on_c, 0, 63, 0
2, 283079, Note_on_c, 0, 66, 0
2, 283261, Note_on_c, 0, 57, 24
2, 283364, Note_on_c, 0, 57, 0
2, 283706, Note_on_c, 0, 52, 53
2, 283846, Note_on_c, 0, 52, 0
2, 284152, Note_on_c, 0, 58, 59
2, 284175, Note_on_c, 0, 62, 58
2, 284184, Note_on_c, 0, 69, 58
2, 284217, Note_on_c, 0, 65, 40
2, 284253, Note_on_c, 0, 57, 47
2, 284533, Note_on_c, 0, 57, 0
2, 284771, Note_on_c, 0, 69, 0
2, 284887, Note_on_c, 0, 58, 0
2, 284916, Note_on_c, 0, 62, 0
2, 284919, Note_on_c, 0, 65, 0
2, 285246, Note_on_c, 0, 50, 36
2, 285541, Note_on_c, 0, 50, 0
2, 285705, Note_on_c, 0, 58, 50
2, 285709, Note_on_c, 0, 62, 59
2, 285747, Note_on_c, 0, 67, 42
2, 286475, Note_on_c, 0, 62, 0
2, 286592, Note_on_c, 0, 67, 0
2, 286628, Note_on_c, 0, 58, 0
2, 286910, Note_on_c, 0, 52, 30
2, 287049, Note_on_c, 0, 58, 39
2, 287073, Note_on_c, 0, 64, 36
2, 287087, Note_on_c, 0, 61, 42
2, 287102, Note_on_c, 0, 52, 0
2, 287248, Note_on_c, 0, 58, 0
2, 287420, Note_on_c, 0, 64, 0
2, 287544, Note_on_c, 0, 61, 0
2, 287669, Note_on_c, 0, 36, 59
2, 287862, Note_on_c, 0, 36, 0
2, 287893, Control_c, 0, 64, 127
2, 288825, Note_on_c, 0, 75, 81
2, 288832, Note_on_c, 0, 67, 87
2, 288843, Note_on_c, 0, 64, 65
2, 288845, Note_on_c, 0, 79, 77
2, 288858, Control_c, 0, 64, 0
2, 288923, Note_on_c, 0, 77, 34
2, 289018, Note_on_c, 0, 77, 0
2, 289058, Note_on_c, 0, 76, 59
2, 289161, Note_on_c, 0, 64, 0
2, 289186, Note_on_c, 0, 67, 0
2, 289226, Note_on_c, 0, 75, 0
2, 289233, Note_on_c, 0, 79, 0
2, 289282, Note_on_c, 0, 76, 0
2, 290440, Note_on_c, 0, 64, 58
2, 290451, Note_on_c, 0, 77, 66
2, 290456, Note_on_c, 0, 65, 74
2, 290462, Note_on_c, 0, 74, 60
2, 290471, Note_on_c, 0, 58, 60
2, 290532, Note_on_c, 0, 72, 34
2, 290628, Note_on_c, 0, 72, 0
2, 290677, Control_c, 0, 64, 127
2, 290729, Note_on_c, 0, 74, 0
2, 290774, Note_on_c, 0, 65, 0
2, 290857, Note_on_c, 0, 77, 0
2, 290984, Note_on_c, 0, 76, 57
2, 291173, Note_on_c, 0, 64, 0
2, 291213, Note_on_c, 0, 58, 0
2, 291289, Note_on_c, 0, 76, 0
2, 291446, Note_on_c, 0, 74, 55
2, 291636, Note_on_c, 0, 74, 0
2, 291755, Control_c, 0, 64, 0
2, 291887, Note_on_c, 0, 60, 36
2, 291907, Note_on_c, 0, 65, 65
2, 291912, Note_on_c, 0, 69, 78
2, 291914, Note_on_c, 0, 77, 67
2, 291932, Note_on_c, 0, 55, 51
2, 291936, Note_on_c, 0, 61, 53
2, 291939, Note_on_c, 0, 81, 68
2, 292250, Control_c, 0, 64, 127
2, 292691, Note_on_c, 0, 69, 0
2, 292803, Note_on_c, 0, 77, 0
2, 292855, Note_on_c, 0, 81, 0
2, 292877, Note_on_c, 0, 55, 0
2, 292911, Note_on_c, 0, 65, 0
2, 292991, Note_on_c, 0, 60, 0
2, 293061, Note_on_c, 0, 61, 0
2, 293215, Control_c, 0, 64, 0
2, 293336, Note_on_c, 0, 60, 54
2, 293347, Note_on_c, 0, 84, 71
2, 293356, Note_on_c, 0, 81, 66
2, 293363, Note_on_c, 0, 65, 68
2, 293370, Note_on_c, 0, 77, 64
2, 293383, Note_on_c, 0, 72, 58
2, 293388, Note_on_c, 0, 61, 63
2, 293390, Note_on_c, 0, 55, 52
2, 293619, Control_c, 0, 64, 127
2, 294031, Note_on_c, 0, 72, 0
2, 294071, Note_on_c, 0, 77, 0
2, 294111, Note_on_c, 0, 81, 0
2, 294150, Note_on_c, 0, 60, 0
2, 294159, Note_on_c, 0, 84, 0
2, 294210, Note_on_c, 0, 65, 0
2, 294279, Note_on_c, 0, 55, 0
2, 294284, Note_on_c, 0, 61, 0
2, 294696, Control_c, 0, 64, 0
2, 294875, Note_on_c, 0, 54, 75
2, 294877, Note_on_c, 0, 64, 70
2, 294882, Note_on_c, 0, 87, 69
2, 294891, Note_on_c, 0, 60, 40
2, 294895, Note_on_c, 0, 75, 77
2, 294920, Note_on_c, 0, 81, 56
2, 295668, Control_c, 0, 64, 127
2, 295944, Note_on_c, 0, 54, 0
2, 295946, Note_on_c, 0, 64, 0
2, 295966, Note_on_c, 0, 81, 0
2, 296033, Note_on_c, 0, 75, 0
2, 296049, Note_on_c, 0, 60, 0
2, 296119, Note_on_c, 0, 87, 0
2, 296275, Control_c, 0, 64, 0
2, 296401, Note_on_c, 0, 88, 54
2, 296410, Note_on_c, 0, 64, 55
2, 296416, Note_on_c, 0, 76, 56
2, 296423, Note_on_c, 0, 54, 48
2, 296439, Note_on_c, 0, 60, 28
2, 296441, Note_on_c, 0, 81, 41
2, 296445, Note_on_c, 0, 84, 42
2, 296681, Control_c, 0, 64, 127
2, 297084, Note_on_c, 0, 84, 0
2, 297122, Note_on_c, 0, 76, 0
2, 297124, Note_on_c, 0, 81, 0
2, 297216, Note_on_c, 0, 88, 0
2, 297288, Note_on_c, 0, 64, 0
2, 297350, Note_on_c, 0, 60, 0
2, 297364, Note_on_c, 0, 54, 0
2, 297532, Control_c, 0, 64, 0
2, 297697, Note_on_c, 0, 89, 41
2, 297702, Note_on_c, 0, 64, 42
2, 297727, Note_on_c, 0, 60, 26
2, 297729, Note_on_c, 0, 54, 28
2, 297736, Note_on_c, 0, 84, 49
2, 297803, Note_on_c, 0, 64, 0
2, 297810, Note_on_c, 0, 84, 0
2, 297830, Note_on_c, 0, 60, 0
2, 297893, Note_on_c, 0, 89, 0
2, 297928, Note_on_c, 0, 54, 0
2, 298625, Note_on_c, 0, 64, 35
2, 298636, Note_on_c, 0, 54, 35
2, 298645, Note_on_c, 0, 93, 43
2, 298647, Note_on_c, 0, 81, 44
2, 298679, Note_on_c, 0, 88, 38
2, 298699, Control_c, 0, 64, 127
2, 298753, Note_on_c, 0, 81, 0
2, 298782, Note_on_c, 0, 88, 0
2, 298795, Note_on_c, 0, 64, 0
2, 298842, Note_on_c, 0, 93, 0
2, 298948, Note_on_c, 0, 54, 0
2, 299239, Control_c, 0, 64, 0
2, 299667, Note_on_c, 0, 62, 51
2, 299687, Note_on_c, 0, 57, 24
2, 299691, Note_on_c, 0, 92, 59
2, 299698, Note_on_c, 0, 84, 62
2, 299702, Note_on_c, 0, 53, 33
2, 299711, Note_on_c, 0, 96, 55
2, 299729, Note_on_c, 0, 58, 47
2, 299976, Note_on_c, 0, 92, 0
2, 299985, Note_on_c, 0, 93, 50
2, 300068, Note_on_c, 0, 93, 0
2, 300072, Note_on_c, 0, 96, 0
2, 300108, Note_on_c, 0, 62, 0
2, 300112, Note_on_c, 0, 53, 0
2, 300115, Note_on_c, 0, 84, 0
2, 300121, Note_on_c, 0, 58, 0
2, 300146, Note_on_c, 0, 57, 0
2, 300623, Note_on_c, 0, 81, 54
2, 300627, Note_on_c, 0, 62, 51
2, 300630, Note_on_c, 0, 93, 50
2, 300659, Note_on_c, 0, 57, 28
2, 300665, Note_on_c, 0, 53, 34
2, 300672, Note_on_c, 0, 89, 45
2, 300683, Note_on_c, 0, 58, 34
2, 300856, Note_on_c, 0, 53, 0
2, 300872, Note_on_c, 0, 62, 0
2, 300878, Note_on_c, 0, 81, 0
2, 300889, Note_on_c, 0, 93, 0
2, 300896, Note_on_c, 0, 58, 0
2, 300903, Note_on_c, 0, 89, 0
2, 300923, Note_on_c, 0, 57, 0
2, 301573, Note_on_c, 0, 57, 36
2, 301580, Note_on_c, 0, 93, 49
2, 301582, Note_on_c, 0, 62, 51
2, 301600, Note_on_c, 0, 81, 35
2, 301620, Note_on_c, 0, 53, 37
2, 301627, Note_on_c, 0, 89, 34
2, 301638, Note_on_c, 0, 58, 35
2, 301642, Control_c, 0, 64, 127
2, 301768, Note_on_c, 0, 89, 0
2, 301790, Note_on_c, 0, 62, 0
2, 301804, Note_on_c, 0, 93, 0
2, 301839, Note_on_c, 0, 81, 0
2, 301860, Note_on_c, 0, 58, 0
2, 301880, Note_on_c, 0, 53, 0
2, 301938, Note_on_c, 0, 57, 0
2, 302001, Control_c, 0, 64, 0
2, 302175, Note_on_c, 0, 62, 35
2, 302178, Note_on_c, 0, 89, 39
2, 302207, Note_on_c, 0, 77, 34
2, 302209, Note_on_c, 0, 57, 20
2, 302225, Note_on_c, 0, 58, 33
2, 302305, Note_on_c, 0, 77, 0
2, 302337, Note_on_c, 0, 62, 0
2, 302339, Note_on_c, 0, 58, 0
2, 302343, Note_on_c, 0, 57, 0
2, 302386, Note_on_c, 0, 89, 0
2, 303038, Note_on_c, 0, 94, 71
2, 303056, Note_on_c, 0, 82, 64
2, 303060, Note_on_c, 0, 62, 74
2, 303062, Note_on_c, 0, 57, 56
2, 303085, Note_on_c, 0, 86, 64
2, 303087, Note_on_c, 0, 58, 57
2, 303105, Note_on_c, 0, 92, 39
2, 303109, Note_on_c, 0, 52, 51
2, 303170, Note_on_c, 0, 86, 0
2, 303201, Note_on_c, 0, 92, 0
2, 303284, Note_on_c, 0, 62, 0
2, 303311, Note_on_c, 0, 58, 0
2, 303320, Note_on_c, 0, 52, 0
2, 303345, Note_on_c, 0, 82, 0
2, 303356, Note_on_c, 0, 57, 0
2, 303383, Note_on_c, 0, 94, 0
2, 303963, Note_on_c, 0, 93, 72
2, 303972, Note_on_c, 0, 57, 71
2, 303999, Note_on_c, 0, 81, 63
2, 304001, Note_on_c, 0, 62, 69
2, 304003, Note_on_c, 0, 86, 63
2, 304021, Note_on_c, 0, 58, 49
2, 304025, Note_on_c, 0, 52, 54
2, 304113, Note_on_c, 0, 62, 0
2, 304151, Note_on_c, 0, 58, 0
2, 304189, Note_on_c, 0, 93, 0
2, 304191, Note_on_c, 0, 81, 0
2, 304207, Note_on_c, 0, 57, 0
2, 304261, Note_on_c, 0, 52, 0
2, 304270, Note_on_c, 0, 86, 0
2, 304442, Note_on_c, 0, 52, 15
2, 304447, Note_on_c, 0, 57, 30
2, 304485, Note_on_c, 0, 62, 51
2, 304494, Note_on_c, 0, 91, 22
2, 304496, Note_on_c, 0, 86, 34
2, 304505, Note_on_c, 0, 58, 46
2, 304536, Note_on_c, 0, 89, 24
2, 304538, Note_on_c, 0, 79, 40
2, 304617, Note_on_c, 0, 52, 0
2, 304633, Note_on_c, 0, 57, 0
2, 304635, Note_on_c, 0, 79, 0
2, 304642, Note_on_c, 0, 91, 0
2, 304644, Note_on_c, 0, 86, 0
2, 304651, Note_on_c, 0, 89, 0
2, 304724, Note_on_c, 0, 62, 0
2, 304733, Note_on_c, 0, 58, 0
2, 305359, Note_on_c, 0, 64, 51
2, 305369, Note_on_c, 0, 89, 74
2, 305376, Note_on_c, 0, 77, 65
2, 305390, Note_on_c, 0, 55, 36
2, 305394, Note_on_c, 0, 61, 31
2, 305399, Note_on_c, 0, 82, 52
2, 305406, Note_on_c, 0, 58, 33
2, 305533, Note_on_c, 0, 64, 0
2, 305553, Note_on_c, 0, 82, 0
2, 305560, Note_on_c, 0, 77, 0
2, 305562, Note_on_c, 0, 61, 0
2, 305585, Note_on_c, 0, 55, 0
2, 305603, Note_on_c, 0, 89, 0
2, 305649, Note_on_c, 0, 58, 0
2, 306292, Note_on_c, 0, 82, 57
2, 306302, Note_on_c, 0, 64, 41
2, 306310, Note_on_c, 0, 61, 36
2, 306313, Note_on_c, 0, 88, 34
2, 306330, Note_on_c, 0, 55, 34
2, 306333, Note_on_c, 0, 58, 46
2, 306335, Note_on_c, 0, 76, 47
2, 306391, Note_on_c, 0, 64, 0
2, 306420, Note_on_c, 0, 61, 0
2, 306440, Note_on_c, 0, 76, 0
2, 306474, Note_on_c, 0, 55, 0
2, 306498, Note_on_c, 0, 58, 0
2, 306530, Note_on_c, 0, 88, 0
2, 306566, Note_on_c, 0, 82, 0
2, 307273, Note_on_c, 0, 89, 78
2, 307276, Note_on_c, 0, 50, 74
2, 307307, Control_c, 0, 64, 127
2, 307310, Note_on_c, 0, 77, 71
2, 307444, Note_on_c, 0, 89, 0
2, 307482, Note_on_c, 0, 77, 0
2, 308183, Control_c, 0, 64, 0
2, 308208, Note_on_c, 0, 76, 57
2, 308210, Note_on_c, 0, 61, 60
2, 308232, Note_on_c, 0, 65, 51
2, 308237, Note_on_c, 0, 69, 54
2, 308620, Note_on_c, 0, 65, 0
2, 308689, Note_on_c, 0, 69, 0
2, 308692, Note_on_c, 0, 76, 0
2, 308712, Note_on_c, 0, 61, 0
2, 308790, Note_on_c, 0, 74, 51
2, 308801, Note_on_c, 0, 65, 42
2, 308810, Note_on_c, 0, 69, 20
2, 308862, Note_on_c, 0, 60, 34
2, 308969, Control_c, 0, 64, 127
2, 309803, Note_on_c, 0, 74, 0
2, 309832, Note_on_c, 0, 60, 0
2, 309944, Note_on_c, 0, 65, 0
2, 309951, Note_on_c, 0, 50, 0
2, 309982, Note_on_c, 0, 69, 0
2, 310670, Note_on_c, 0, 72, 60
2, 310698, Control_c, 0, 64, 0
2, 310710, Note_on_c, 0, 61, 62
2, 310712, Note_on_c, 0, 65, 63
2, 310728, Note_on_c, 0, 69, 50
2, 310741, Note_on_c, 0, 60, 50
2, 311733, Note_on_c, 0, 61, 0
2, 311736, Note_on_c, 0, 72, 0
2, 311744, Note_on_c, 0, 65, 0
2, 311774, Note_on_c, 0, 69, 0
2, 311928, Note_on_c, 0, 60, 0
2, 311964, Note_on_c, 0, 61, 40
2, 311991, Note_on_c, 0, 70, 47
2, 311996, Note_on_c, 0, 58, 37
2, 312045, Note_on_c, 0, 65, 36
2, 312338, Note_on_c, 0, 61, 0
2, 312352, Note_on_c, 0, 65, 0
2, 312571, Note_on_c, 0, 58, 0
2, 312589, Note_on_c, 0, 61, 37
2, 312602, Note_on_c, 0, 65, 50
2, 312614, Note_on_c, 0, 69, 57
2, 312645, Note_on_c, 0, 57, 36
2, 312854, Control_c, 0, 64, 127
2, 313543, Note_on_c, 0, 61, 0
2, 313557, Note_on_c, 0, 57, 0
2, 313691, Note_on_c, 0, 70, 0
2, 313694, Note_on_c, 0, 69, 0
2, 313969, Note_on_c, 0, 61, 30
2, 314061, Note_on_c, 0, 65, 0
2, 314289, Note_on_c, 0, 61, 0
2, 314359, Control_c, 0, 64, 0
2, 314563, Note_on_c, 0, 60, 39
2, 314594, Note_on_c, 0, 64, 37
2, 314639, Note_on_c, 0, 67, 37
2, 314641, Note_on_c, 0, 50, 19
2, 314988, Control_c, 0, 64, 127
2, 315508, Note_on_c, 0, 38, 37
2, 315770, Note_on_c, 0, 50, 0
2, 316240, Note_on_c, 0, 60, 0
2, 316352, Note_on_c, 0, 64, 0
2, 316359, Note_on_c, 0, 67, 0
2, 316386, Note_on_c, 0, 45, 38
2, 316404, Note_on_c, 0, 65, 53
2, 316447, Control_c, 0, 64, 0
2, 316749, Note_on_c, 0, 65, 0
2, 316800, Note_on_c, 0, 45, 0
2, 316903, Note_on_c, 0, 60, 25
2, 316908, Note_on_c, 0, 50, 41
2, 316926, Note_on_c, 0, 64, 34
2, 316930, Note_on_c, 0, 38, 0
2, 316955, Note_on_c, 0, 67, 37
2, 317667, Note_on_c, 0, 50, 0
2, 317858, Note_on_c, 0, 45, 55
2, 317862, Control_c, 0, 64, 127
2, 318064, Note_on_c, 0, 45, 0
2, 318111, Note_on_c, 0, 60, 0
2, 318698, Note_on_c, 0, 64, 0
2, 318731, Note_on_c, 0, 67, 0
2, 319300, Control_c, 0, 64, 0
2, 319432, Note_on_c, 0, 72, 60
2, 319453, Note_on_c, 0, 60, 48
2, 319457, Note_on_c, 0, 66, 61
2, 319470, Note_on_c, 0, 63, 46
2, 319549, Note_on_c, 0, 60, 0
2, 319562, Note_on_c, 0, 63, 0
2, 319598, Note_on_c, 0, 72, 0
2, 319652, Note_on_c, 0, 66, 0
2, 320279, Note_on_c, 0, 69, 49
2, 320317, Note_on_c, 0, 57, 34
2, 320342, Note_on_c, 0, 64, 46
2, 320481, Note_on_c, 0, 69, 0
2, 320496, Note_on_c, 0, 64, 0
2, 320671, Note_on_c, 0, 57, 0
2, 320797, Note_on_c, 0, 64, 42
2, 320859, Note_on_c, 0, 61, 53
2, 321050, Note_on_c, 0, 58, 5
2, 321435, Note_on_c, 0, 61, 0
2, 321475, Note_on_c, 0, 58, 0
2, 321605, Note_on_c, 0, 64, 0
2, 321702, Note_on_c, 0, 61, 50
2, 321731, Note_on_c, 0, 58, 39
2, 321856, Note_on_c, 0, 58, 0
2, 321905, Note_on_c, 0, 61, 0
2, 322216, Note_on_c, 0, 74, 77
2, 322476, Note_on_c, 0, 74, 0
2, 322744, Note_on_c, 0, 69, 71
2, 325026, Note_on_c, 0, 69, 0
2, 325132, Note_on_c, 0, 69, 48
2, 325134, Note_on_c, 0, 64, 44
2, 325148, Note_on_c, 0, 65, 42
2, 325238, Note_on_c, 0, 69, 0
2, 325268, Note_on_c, 0, 65, 0
2, 325270, Note_on_c, 0, 64, 0
2, 326058, Note_on_c, 0, 69, 80
2, 326414, Note_on_c, 0, 69, 0
2, 326514, Note_on_c, 0, 70, 71
2, 326542, Note_on_c, 0, 65, 29
2, 326552, Note_on_c, 0, 62, 34
2, 326582, Note_on_c, 0, 60, 26
2, 326946, Note_on_c, 0, 70, 0
2, 326992, Note_on_c, 0, 72, 51
2, 327290, Note_on_c, 0, 72, 0
2, 327314, Note_on_c, 0, 65, 0
2, 327442, Note_on_c, 0, 69, 47
2, 327562, Note_on_c, 0, 62, 0
2, 327614, Note_on_c, 0, 60, 0
2, 327880, Note_on_c, 0, 69, 0
2, 327938, Note_on_c, 0, 65, 29
2, 328226, Note_on_c, 0, 65, 0
2, 328396, Note_on_c, 0, 67, 59
2, 328478, Note_on_c, 0, 60, 26
2, 328662, Note_on_c, 0, 60, 0
2, 329244, Note_on_c, 0, 67, 0
2, 329296, Note_on_c, 0, 62, 45
2, 329782, Note_on_c, 0, 62, 0
2, 329862, Note_on_c, 0, 63, 35
2, 329886, Note_on_c, 0, 44, 27
2, 330206, Note_on_c, 0, 55, 1
2, 330764, Note_on_c, 0, 60, 40
2, 330816, Note_on_c, 0, 63, 0
2, 331100, Note_on_c, 0, 55, 0
2, 331678, Note_on_c, 0, 55, 27
2, 331850, Note_on_c, 0, 55, 0
2, 332188, Note_on_c, 0, 55, 40
2, 333076, Note_on_c, 0, 44, 0
2, 333308, Note_on_c, 0, 55, 0
2, 333682, Note_on_c, 0, 56, 35
2, 333706, Note_on_c, 0, 46, 33
2, 334582, Note_on_c, 0, 60, 0
2, 334656, Note_on_c, 0, 63, 62
2, 335018, Note_on_c, 0, 63, 0
2, 335072, Note_on_c, 0, 60, 46
2, 335394, Note_on_c, 0, 60, 0
2, 335450, Note_on_c, 0, 56, 0
2, 335508, Note_on_c, 0, 62, 73
2, 335766, Note_on_c, 0, 62, 0
2, 335856, Note_on_c, 0, 63, 69
2, 335914, Note_on_c, 0, 56, 36
2, 336056, Note_on_c, 0, 63, 0
2, 336172, Note_on_c, 0, 65, 60
2, 336390, Note_on_c, 0, 65, 0
2, 336486, Note_on_c, 0, 67, 68
2, 336648, Note_on_c, 0, 46, 0
2, 336736, Note_on_c, 0, 67, 0
2, 336750, Note_on_c, 0, 56, 0
2, 336810, Note_on_c, 0, 70, 58
2, 336994, Note_on_c, 0, 70, 0
2, 337114, Note_on_c, 0, 72, 53
2, 337388, Note_on_c, 0, 72, 0
2, 337416, Note_on_c, 0, 73, 52
2, 337596, Note_on_c, 0, 73, 0
2, 337730, Note_on_c, 0, 74, 68
2, 337814, Note_on_c, 0, 65, 35
2, 337828, Note_on_c, 0, 55, 34
2, 337884, Note_on_c, 0, 60, 37
2, 337946, Note_on_c, 0, 74, 0
2, 338090, Note_on_c, 0, 77, 52
2, 338300, Note_on_c, 0, 77, 0
2, 338624, Note_on_c, 0, 74, 62
2, 338726, Note_on_c, 0, 74, 0
2, 339116, Note_on_c, 0, 70, 55
2, 339236, Note_on_c, 0, 65, 0
2, 339310, Note_on_c, 0, 70, 0
2, 339536, Note_on_c, 0, 67, 41
2, 339724, Note_on_c, 0, 55, 0
2, 339736, Note_on_c, 0, 67, 0
2, 339806, Note_on_c, 0, 60, 0
2, 339966, Note_on_c, 0, 77, 51
2, 340152, Note_on_c, 0, 77, 0
2, 340792, Note_on_c, 0, 66, 57
2, 340810, Note_on_c, 0, 61, 43
2, 340828, Note_on_c, 0, 55, 51
2, 341204, Note_on_c, 0, 55, 0
2, 341270, Note_on_c, 0, 66, 0
2, 341588, Note_on_c, 0, 61, 0
2, 342346, Note_on_c, 0, 63, 28
2, 342378, Note_on_c, 0, 58, 43
2, 342396, Note_on_c, 0, 60, 36
2, 342420, Note_on_c, 0, 53, 20
2, 343268, Note_on_c, 0, 77, 74
2, 343272, Note_on_c, 0, 89, 80
2, 343320, Note_on_c, 0, 79, 48
2, 343394, Note_on_c, 0, 79, 0
2, 343446, Note_on_c, 0, 77, 0
2, 343460, Note_on_c, 0, 89, 0
2, 343566, Note_on_c, 0, 63, 0
2, 343618, Note_on_c, 0, 87, 46
2, 343768, Note_on_c, 0, 87, 0
2, 343830, Note_on_c, 0, 53, 0
2, 343844, Note_on_c, 0, 58, 0
2, 343898, Note_on_c, 0, 89, 67
2, 343902, Note_on_c, 0, 60, 0
2, 343904, Note_on_c, 0, 77, 67
2, 343922, Note_on_c, 0, 88, 66
2, 343990, Note_on_c, 0, 88, 0
2, 344268, Note_on_c, 0, 77, 0
2, 344282, Note_on_c, 0, 89, 0
2, 344632, Note_on_c, 0, 63, 30
2, 344652, Note_on_c, 0, 89, 68
2, 344662, Note_on_c, 0, 77, 64
2, 344798, Note_on_c, 0, 89, 0
2, 344832, Note_on_c, 0, 77, 0
2, 344856, Note_on_c, 0, 63, 0
2, 345012, Note_on_c, 0, 87, 37
2, 345198, Note_on_c, 0, 87, 0
2, 345346, Note_on_c, 0, 60, 47
2, 345354, Note_on_c, 0, 89, 70
2, 345366, Note_on_c, 0, 77, 60
2, 345368, Note_on_c, 0, 63, 47
2, 345426, Note_on_c, 0, 57, 28
2, 345492, Note_on_c, 0, 55, 24
2, 345922, Note_on_c, 0, 89, 0
2, 345966, Note_on_c, 0, 77, 0
2, 346198, Note_on_c, 0, 75, 55
2, 346216, Note_on_c, 0, 87, 51
2, 346406, Note_on_c, 0, 55, 0
2, 346444, Note_on_c, 0, 87, 0
2, 346450, Note_on_c, 0, 63, 0
2, 346486, Note_on_c, 0, 75, 0
2, 346530, Note_on_c, 0, 57, 0
2, 346702, Note_on_c, 0, 63, 34
2, 346704, Note_on_c, 0, 85, 33
2, 346712, Note_on_c, 0, 73, 38
2, 346750, Note_on_c, 0, 86, 53
2, 346774, Note_on_c, 0, 55, 33
2, 346814, Note_on_c, 0, 57, 30
2, 346906, Note_on_c, 0, 73, 0
2, 346974, Note_on_c, 0, 74, 45
2, 347014, Note_on_c, 0, 85, 0
2, 347210, Note_on_c, 0, 86, 0
2, 347240, Note_on_c, 0, 74, 0
2, 347318, Note_on_c, 0, 55, 0
2, 347368, Note_on_c, 0, 60, 0
2, 347414, Note_on_c, 0, 57, 0
2, 347504, Note_on_c, 0, 63, 0
2, 348138, Note_on_c, 0, 85, 46
2, 348150, Note_on_c, 0, 73, 37
2, 348182, Note_on_c, 0, 55, 33
2, 348184, Note_on_c, 0, 63, 30
2, 348214, Note_on_c, 0, 85, 0
2, 348216, Note_on_c, 0, 73, 0
2, 348242, Note_on_c, 0, 86, 49
2, 348246, Note_on_c, 0, 60, 29
2, 348256, Note_on_c, 0, 74, 55
2, 348476, Note_on_c, 0, 74, 0
2, 348480, Note_on_c, 0, 55, 0
2, 348584, Note_on_c, 0, 86, 0
2, 348600, Note_on_c, 0, 60, 0
2, 348602, Note_on_c, 0, 63, 0
2, 349010, Note_on_c, 0, 63, 59
2, 349012, Note_on_c, 0, 60, 60
2, 349030, Note_on_c, 0, 54, 53
2, 349046, Note_on_c, 0, 86, 65
2, 349054, Note_on_c, 0, 74, 65
2, 349138, Note_on_c, 0, 84, 25
2, 349358, Note_on_c, 0, 74, 0
2, 349364, Note_on_c, 0, 86, 0
2, 349376, Note_on_c, 0, 84, 0
2, 349390, Note_on_c, 0, 63, 0
2, 349416, Note_on_c, 0, 54, 0
2, 349538, Note_on_c, 0, 74, 60
2, 349544, Note_on_c, 0, 86, 58
2, 349572, Note_on_c, 0, 63, 37
2, 349584, Note_on_c, 0, 54, 43
2, 349946, Note_on_c, 0, 86, 0
2, 350038, Note_on_c, 0, 74, 0
2, 350040, Note_on_c, 0, 54, 0
2, 350050, Note_on_c, 0, 60, 0
2, 350104, Note_on_c, 0, 63, 0
2, 350436, Note_on_c, 0, 85, 55
2, 350440, Note_on_c, 0, 63, 34
2, 350448, Note_on_c, 0, 73, 37
2, 350478, Note_on_c, 0, 54, 32
2, 350496, Note_on_c, 0, 60, 33
2, 350812, Note_on_c, 0, 54, 0
2, 350830, Note_on_c, 0, 85, 0
2, 350892, Note_on_c, 0, 73, 0
2, 350978, Note_on_c, 0, 63, 0
2, 350982, Note_on_c, 0, 84, 60
2, 350998, Note_on_c, 0, 72, 48
2, 351000, Note_on_c, 0, 54, 43
2, 351004, Note_on_c, 0, 62, 54
2, 351620, Note_on_c, 0, 72, 0
2, 351678, Note_on_c, 0, 62, 0
2, 351710, Note_on_c, 0, 84, 0
2, 351944, Note_on_c, 0, 81, 82
2, 351948, Note_on_c, 0, 62, 43
2, 352184, Note_on_c, 0, 60, 0
2, 352206, Note_on_c, 0, 81, 0
2, 352424, Note_on_c, 0, 84, 85
2, 352458, Note_on_c, 0, 62, 0
2, 352590, Note_on_c, 0, 54, 0
2, 352622, Note_on_c, 0, 84, 0
2, 352878, Note_on_c, 0, 84, 90
2, 353148, Note_on_c, 0, 84, 0
2, 353270, Note_on_c, 0, 55, 31
2, 353286, Note_on_c, 0, 58, 33
2, 353292, Note_on_c, 0, 62, 24
2, 353308, Note_on_c, 0, 57, 24
2, 353312, Note_on_c, 0, 77, 45
2, 353548, Note_on_c, 0, 77, 0
2, 353704, Note_on_c, 0, 77, 51
2, 353918, Note_on_c, 0, 77, 0
2, 354042, Note_on_c, 0, 81, 71
2, 354242, Note_on_c, 0, 81, 0
2, 354390, Note_on_c, 0, 81, 58
2, 354408, Note_on_c, 0, 62, 0
2, 354546, Note_on_c, 0, 58, 0
2, 354560, Note_on_c, 0, 57, 0
2, 354658, Note_on_c, 0, 81, 0
2, 354770, Note_on_c, 0, 72, 40
2, 354790, Note_on_c, 0, 74, 41
2, 354886, Note_on_c, 0, 74, 0
2, 354922, Note_on_c, 0, 72, 0
2, 355050, Note_on_c, 0, 62, 24
2, 355056, Note_on_c, 0, 58, 29
2, 355074, Note_on_c, 0, 72, 54
2, 355088, Note_on_c, 0, 57, 22
2, 355110, Note_on_c, 0, 74, 53
2, 355200, Note_on_c, 0, 74, 0
2, 355260, Note_on_c, 0, 72, 0
2, 355420, Note_on_c, 0, 77, 67
2, 355434, Note_on_c, 0, 57, 0
2, 355444, Note_on_c, 0, 62, 0
2, 355602, Note_on_c, 0, 55, 0
2, 355630, Note_on_c, 0, 77, 0
2, 355754, Note_on_c, 0, 77, 73
2, 355992, Note_on_c, 0, 58, 0
2, 356016, Note_on_c, 0, 77, 0
2, 356088, Note_on_c, 0, 74, 67
2, 356184, Note_on_c, 0, 58, 10
2, 356218, Note_on_c, 0, 62, 30
2, 356272, Note_on_c, 0, 74, 0
2, 356294, Note_on_c, 0, 52, 27
2, 356438, Note_on_c, 0, 74, 51
2, 356664, Note_on_c, 0, 74, 0
2, 356752, Note_on_c, 0, 75, 69
2, 356938, Note_on_c, 0, 76, 61
2, 357022, Note_on_c, 0, 75, 0
2, 357246, Note_on_c, 0, 76, 0
2, 357388, Note_on_c, 0, 62, 0
2, 357402, Note_on_c, 0, 52, 0
2, 357420, Note_on_c, 0, 72, 52
2, 357576, Note_on_c, 0, 58, 0
2, 358712, Note_on_c, 0, 58, 25
2, 358894, Note_on_c, 0, 58, 0
2, 359668, Note_on_c, 0, 63, 64
2, 359678, Note_on_c, 0, 58, 55
2, 359698, Note_on_c, 0, 52, 42
2, 359774, Note_on_c, 0, 63, 0
2, 359788, Note_on_c, 0, 52, 0
2, 359804, Note_on_c, 0, 58, 0
2, 360164, Note_on_c, 0, 70, 53
2, 360784, Note_on_c, 0, 72, 0
2, 361022, Note_on_c, 0, 65, 49
2, 361066, Note_on_c, 0, 66, 53
2, 361102, Note_on_c, 0, 54, 31
2, 361110, Note_on_c, 0, 60, 32
2, 361152, Note_on_c, 0, 58, 42
2, 361652, Note_on_c, 0, 66, 0
2, 361668, Note_on_c, 0, 65, 0
2, 361982, Note_on_c, 0, 65, 44
2, 362030, Note_on_c, 0, 66, 44
2, 362298, Note_on_c, 0, 60, 0
2, 362480, Note_on_c, 0, 66, 0
2, 362500, Note_on_c, 0, 65, 0
2, 362584, Note_on_c, 0, 70, 0
2, 362920, Note_on_c, 0, 65, 37
2, 362966, Note_on_c, 0, 70, 31
2, 362978, Note_on_c, 0, 66, 38
2, 363220, Note_on_c, 0, 66, 0
2, 363268, Note_on_c, 0, 65, 0
2, 363272, Note_on_c, 0, 70, 0
2, 363298, Note_on_c, 0, 54, 0
2, 363460, Note_on_c, 0, 70, 39
2, 363482, Note_on_c, 0, 66, 42
2, 363488, Note_on_c, 0, 54, 39
2, 363504, Note_on_c, 0, 65, 17
2, 363596, Note_on_c, 0, 65, 0
2, 363648, Note_on_c, 0, 66, 0
2, 363696, Note_on_c, 0, 58, 0
2, 363706, Note_on_c, 0, 70, 0
2, 363838, Note_on_c, 0, 54, 0
2, 364346, Note_on_c, 0, 73, 49
2, 364348, Note_on_c, 0, 58, 58
2, 364364, Note_on_c, 0, 63, 56
2, 364368, Note_on_c, 0, 68, 55
2, 364618, Note_on_c, 0, 73, 0
2, 364656, Note_on_c, 0, 58, 0
2, 364696, Note_on_c, 0, 68, 0
2, 364700, Note_on_c, 0, 63, 0
2, 364842, Note_on_c, 0, 72, 41
2, 364874, Note_on_c, 0, 62, 34
2, 364880, Note_on_c, 0, 67, 42
2, 364892, Note_on_c, 0, 57, 37
2, 365212, Note_on_c, 0, 67, 0
2, 365282, Note_on_c, 0, 62, 0
2, 365336, Note_on_c, 0, 72, 0
2, 365622, Note_on_c, 0, 57, 0
2, 365754, Note_on_c, 0, 61, 46
2, 365774, Note_on_c, 0, 71, 35
2, 365780, Note_on_c, 0, 56, 36
2, 365818, Note_on_c, 0, 66, 40
2, 366124, Note_on_c, 0, 71, 0
2, 366146, Note_on_c, 0, 61, 0
2, 366158, Note_on_c, 0, 66, 0
2, 366314, Note_on_c, 0, 72, 53
2, 366336, Note_on_c, 0, 62, 53
2, 366366, Note_on_c, 0, 56, 0
2, 366382, Note_on_c, 0, 57, 34
2, 366470, Note_on_c, 0, 62, 0
2, 366502, Note_on_c, 0, 72, 0
2, 366884, Note_on_c, 0, 57, 0
2, 367182, Note_on_c, 0, 69, 47
2, 367192, Note_on_c, 0, 60, 49
2, 367210, Note_on_c, 0, 65, 37
2, 367270, Note_on_c, 0, 60, 0
2, 367322, Note_on_c, 0, 65, 0
2, 367358, Note_on_c, 0, 69, 0
2, 368210, Note_on_c, 0, 47, 38
2, 368298, Note_on_c, 0, 47, 0
2, 368706, Note_on_c, 0, 73, 46
2, 368710, Note_on_c, 0, 69, 64
2, 368724, Note_on_c, 0, 77, 54
2, 369102, Note_on_c, 0, 69, 0
2, 369130, Note_on_c, 0, 73, 0
2, 369140, Note_on_c, 0, 74, 60
2, 369344, Note_on_c, 0, 77, 0
2, 369346, Note_on_c, 0, 74, 0
2, 370218, Note_on_c, 0, 65, 36
2, 370238, Note_on_c, 0, 62, 33
2, 370256, Note_on_c, 0, 57, 24
2, 370310, Note_on_c, 0, 65, 0
2, 370322, Note_on_c, 0, 62, 0
2, 370326, Note_on_c, 0, 57, 0
2, 370678, Note_on_c, 0, 73, 72
2, 370680, Note_on_c, 0, 85, 77
2, 370694, Note_on_c, 0, 80, 60
2, 371100, Note_on_c, 0, 73, 0
2, 371142, Note_on_c, 0, 85, 0
2, 371188, Note_on_c, 0, 74, 59
2, 371190, Note_on_c, 0, 86, 58
2, 371204, Note_on_c, 0, 80, 0
2, 371224, Note_on_c, 0, 81, 49
2, 371286, Note_on_c, 0, 74, 0
2, 371340, Note_on_c, 0, 81, 0
2, 371362, Note_on_c, 0, 86, 0
2, 372040, Note_on_c, 0, 57, 57
2, 372182, Note_on_c, 0, 57, 0
2, 373086, Note_on_c, 0, 56, 51
2, 373114, Note_on_c, 0, 67, 36
2, 373204, Note_on_c, 0, 67, 0
2, 373262, Note_on_c, 0, 56, 0
2, 373538, Note_on_c, 0, 76, 58
2, 373556, Note_on_c, 0, 88, 54
2, 373650, Note_on_c, 0, 88, 0
2, 373668, Note_on_c, 0, 76, 0
2, 374032, Note_on_c, 0, 89, 83
2, 374036, Note_on_c, 0, 56, 74
2, 374038, Note_on_c, 0, 67, 74
2, 374040, Note_on_c, 0, 77, 88
2, 374044, Note_on_c, 0, 62, 64
2, 374170, Note_on_c, 0, 67, 0
2, 374188, Note_on_c, 0, 77, 0
2, 374190, Note_on_c, 0, 56, 0
2, 374216, Note_on_c, 0, 89, 0
2, 374218, Note_on_c, 0, 62, 0
2, 374566, Note_on_c, 0, 62, 74
2, 374568, Note_on_c, 0, 56, 83
2, 374570, Note_on_c, 0, 67, 80
2, 374572, Note_on_c, 0, 80, 81
2, 374578, Note_on_c, 0, 91, 83
2, 374606, Note_on_c, 0, 79, 74
2, 374612, Note_on_c, 0, 90, 30
2, 374618, Note_on_c, 0, 89, 48
2, 374724, Note_on_c, 0, 90, 0
2, 374786, Note_on_c, 0, 80, 0
2, 375504, Note_on_c, 0, 67, 0
2, 375512, Note_on_c, 0, 62, 0
2, 375696, Note_on_c, 0, 79, 0
2, 375700, Note_on_c, 0, 56, 0
2, 375720, Note_on_c, 0, 89, 0
2, 375722, Note_on_c, 0, 91, 0
2, 375954, Note_on_c, 0, 89, 47
2, 376002, Note_on_c, 0, 77, 40
2, 376192, Note_on_c, 0, 89, 0
2, 376230, Note_on_c, 0, 77, 0
2, 377840, Note_on_c, 0, 56, 64
2, 377842, Note_on_c, 0, 67, 62
2, 377844, Note_on_c, 0, 79, 66
2, 377850, Note_on_c, 0, 88, 56
2, 377872, Note_on_c, 0, 84, 41
2, 377880, Note_on_c, 0, 62, 48
2, 377986, Note_on_c, 0, 79, 0
2, 377992, Note_on_c, 0, 84, 0
2, 377994, Note_on_c, 0, 62, 0
2, 378004, Note_on_c, 0, 88, 0
2, 378014, Note_on_c, 0, 67, 0
2, 378092, Note_on_c, 0, 56, 0
2, 378608, Note_on_c, 0, 88, 65
2, 378620, Note_on_c, 0, 84, 65
2, 378622, Note_on_c, 0, 67, 64
2, 378624, Note_on_c, 0, 79, 63
2, 378642, Note_on_c, 0, 56, 60
2, 378650, Note_on_c, 0, 62, 51
2, 378942, Note_on_c, 0, 88, 0
2, 378944, Note_on_c, 0, 84, 0
2, 378958, Note_on_c, 0, 79, 0
2, 378964, Note_on_c, 0, 67, 0
2, 378968, Note_on_c, 0, 62, 0
2, 378988, Note_on_c, 0, 56, 0
2, 379322, Note_on_c, 0, 67, 57
2, 379332, Note_on_c, 0, 88, 55
2, 379336, Note_on_c, 0, 79, 57
2, 379338, Note_on_c, 0, 56, 55
2, 379344, Note_on_c, 0, 84, 58
2, 379356, Note_on_c, 0, 62, 51
2, 379504, Note_on_c, 0, 67, 0
2, 379534, Note_on_c, 0, 84, 0
2, 379550, Note_on_c, 0, 79, 0
2, 379566, Note_on_c, 0, 62, 0
2, 379610, Note_on_c, 0, 88, 0
2, 379710, Note_on_c, 0, 56, 0
2, 379970, Note_on_c, 0, 66, 61
2, 379972, Note_on_c, 0, 61, 49
2, 379974, Note_on_c, 0, 79, 62
2, 379978, Note_on_c, 0, 85, 56
2, 379980, Note_on_c, 0, 55, 56
2, 379982, Note_on_c, 0, 88, 53
2, 380074, Note_on_c, 0, 55, 0
2, 380092, Note_on_c, 0, 88, 0
2, 380100, Note_on_c, 0, 79, 0
2, 380118, Note_on_c, 0, 85, 0
2, 380120, Note_on_c, 0, 66, 0
2, 380180, Note_on_c, 0, 61, 0
2, 380640, Note_on_c, 0, 85, 56
2, 380644, Note_on_c, 0, 66, 51
2, 380648, Note_on_c, 0, 88, 50
2, 380660, Note_on_c, 0, 79, 46
2, 380670, Note_on_c, 0, 61, 32
2, 380672, Note_on_c, 0, 55, 44
2, 380764, Note_on_c, 0, 79, 0
2, 380780, Note_on_c, 0, 88, 0
2, 380790, Note_on_c, 0, 55, 0
2, 380806, Note_on_c, 0, 85, 0
2, 380826, Note_on_c, 0, 66, 0
2, 380850, Note_on_c, 0, 61, 0
2, 381272, Note_on_c, 0, 66, 52
2, 381290, Note_on_c, 0, 85, 50
2, 381292, Note_on_c, 0, 61, 38
2, 381294, Note_on_c, 0, 88, 54
2, 381312, Note_on_c, 0, 79, 44
2, 381314, Note_on_c, 0, 55, 42
2, 382982, Note_on_c, 0, 66, 0
2, 383094, Note_on_c, 0, 55, 0
2, 383172, Note_on_c, 0, 61, 0
2, 383336, Note_on_c, 0, 88, 0
2, 383462, Note_on_c, 0, 85, 0
2, 383540, Note_on_c, 0, 87, 67
2, 383708, Note_on_c, 0, 79, 0
2, 383904, Note_on_c, 0, 87, 0
2, 384018, Note_on_c, 0, 88, 57
2, 384046, Note_on_c, 0, 57, 27
2, 384066, Note_on_c, 0, 60, 14
2, 384080, Note_on_c, 0, 50, 17
2, 384106, Note_on_c, 0, 53, 20
2, 384326, Note_on_c, 0, 88, 0
2, 384370, Note_on_c, 0, 50, 0
2, 384512, Note_on_c, 0, 87, 45
2, 384538, Note_on_c, 0, 53, 0
2, 384608, Note_on_c, 0, 60, 0
2, 384652, Note_on_c, 0, 57, 0
2, 384846, Note_on_c, 0, 87, 0
2, 384960, Note_on_c, 0, 88, 53
2, 385328, Note_on_c, 0, 88, 0
2, 385478, Note_on_c, 0, 87, 40
2, 385740, Note_on_c, 0, 87, 0
2, 385872, Note_on_c, 0, 88, 49
2, 385972, Note_on_c, 0, 57, 19
2, 386168, Note_on_c, 0, 57, 0
2, 386488, Note_on_c, 0, 77, 24
2, 386600, Note_on_c, 0, 77, 0
2, 386612, Note_on_c, 0, 88, 0
2, 387422, Note_on_c, 0, 64, 45
2, 387494, Note_on_c, 0, 59, 32
2, 387598, Note_on_c, 0, 59, 0
2, 387606, Note_on_c, 0, 64, 0
2, 388348, Note_on_c, 0, 64, 46
2, 388412, Note_on_c, 0, 53, 22
2, 388452, Note_on_c, 0, 59, 17
2, 388632, Note_on_c, 0, 64, 0
2, 388694, Note_on_c, 0, 53, 0
2, 388698, Note_on_c, 0, 59, 0
2, 388892, Note_on_c, 0, 62, 44
2, 388926, Note_on_c, 0, 59, 33
2, 388938, Note_on_c, 0, 56, 37
2, 388986, Note_on_c, 0, 53, 18
2, 389990, Note_on_c, 0, 59, 0
2, 390036, Note_on_c, 0, 62, 0
2, 390134, Note_on_c, 0, 56, 0
2, 390160, Note_on_c, 0, 53, 0
2, 390376, Note_on_c, 0, 53, 36
2, 390388, Note_on_c, 0, 56, 28
2, 390396, Note_on_c, 0, 62, 36
2, 390428, Note_on_c, 0, 59, 34
2, 390602, Note_on_c, 0, 53, 0
2, 390650, Note_on_c, 0, 59, 0
2, 390678, Note_on_c, 0, 56, 0
2, 390770, Note_on_c, 0, 62, 0
2, 391270, Note_on_c, 0, 85, 85
2, 391292, Note_on_c, 0, 67, 64
2, 391316, Note_on_c, 0, 63, 51
2, 391320, Note_on_c, 0, 62, 51
2, 391346, Note_on_c, 0, 58, 35
2, 391580, Note_on_c, 0, 85, 0
2, 391754, Note_on_c, 0, 86, 85
2, 392128, Note_on_c, 0, 86, 0
2, 392258, Note_on_c, 0, 85, 49
2, 392492, Note_on_c, 0, 85, 0
2, 392638, Note_on_c, 0, 86, 74
2, 392668, Note_on_c, 0, 67, 0
2, 392724, Note_on_c, 0, 62, 0
2, 392788, Note_on_c, 0, 63, 0
2, 393016, Note_on_c, 0, 86, 0
2, 393174, Note_on_c, 0, 85, 50
2, 393348, Note_on_c, 0, 63, 23
2, 393432, Note_on_c, 0, 85, 0
2, 393648, Note_on_c, 0, 86, 66
2, 393800, Note_on_c, 0, 63, 0
2, 393986, Note_on_c, 0, 58, 0
2, 394122, Note_on_c, 0, 86, 0
2, 394174, Note_on_c, 0, 78, 42
2, 394188, Note_on_c, 0, 58, 40
2, 394220, Note_on_c, 0, 67, 28
2, 394244, Note_on_c, 0, 63, 27
2, 394394, Note_on_c, 0, 78, 0
2, 394404, Note_on_c, 0, 67, 0
2, 394480, Note_on_c, 0, 63, 0
2, 394542, Note_on_c, 0, 58, 0
2, 395064, Note_on_c, 0, 57, 50
2, 395080, Note_on_c, 0, 67, 32
2, 395094, Note_on_c, 0, 63, 37
2, 395346, Note_on_c, 0, 57, 0
2, 395358, Note_on_c, 0, 67, 0
2, 395428, Note_on_c, 0, 63, 0
2, 396004, Note_on_c, 0, 67, 41
2, 396008, Note_on_c, 0, 57, 43
2, 396028, Note_on_c, 0, 63, 39
2, 396200, Note_on_c, 0, 67, 0
2, 396266, Note_on_c, 0, 57, 0
2, 396360, Note_on_c, 0, 63, 0
2, 396550, Note_on_c, 0, 65, 33
2, 396554, Note_on_c, 0, 63, 25
2, 396578, Note_on_c, 0, 57, 36
2, 397668, Note_on_c, 0, 65, 0
2, 397722, Note_on_c, 0, 57, 0
2, 397808, Note_on_c, 0, 63, 0
2, 397980, Note_on_c, 0, 57, 42
2, 398010, Note_on_c, 0, 65, 36
2, 398012, Note_on_c, 0, 63, 37
2, 398664, Note_on_c, 0, 57, 0
2, 398716, Note_on_c, 0, 65, 0
2, 398788, Note_on_c, 0, 63, 0
2, 398962, Note_on_c, 0, 85, 94
2, 398964, Note_on_c, 0, 65, 52
2, 398978, Note_on_c, 0, 62, 51
2, 399034, Note_on_c, 0, 60, 37
2, 399112, Note_on_c, 0, 55, 11
2, 399366, Note_on_c, 0, 85, 0
2, 399460, Note_on_c, 0, 86, 73
2, 399810, Note_on_c, 0, 86, 0
2, 399970, Note_on_c, 0, 85, 42
2, 400112, Note_on_c, 0, 65, 0
2, 400210, Note_on_c, 0, 85, 0
2, 400368, Note_on_c, 0, 86, 79
2, 400378, Note_on_c, 0, 62, 0
2, 400396, Note_on_c, 0, 60, 0
2, 400734, Note_on_c, 0, 86, 0
2, 400848, Note_on_c, 0, 62, 27
2, 400874, Note_on_c, 0, 85, 50
2, 400884, Note_on_c, 0, 60, 28
2, 401156, Note_on_c, 0, 85, 0
2, 401182, Note_on_c, 0, 60, 0
2, 401320, Note_on_c, 0, 86, 69
2, 401332, Note_on_c, 0, 55, 0
2, 401340, Note_on_c, 0, 62, 0
2, 401702, Note_on_c, 0, 86, 0
2, 401848, Note_on_c, 0, 77, 28
2, 402116, Note_on_c, 0, 77, 0
2, 402254, Note_on_c, 0, 79, 65
2, 402664, Note_on_c, 0, 79, 0
2, 402802, Note_on_c, 0, 81, 91
2, 402850, Note_on_c, 0, 80, 37
2, 402856, Note_on_c, 0, 55, 62
2, 402866, Note_on_c, 0, 65, 54
2, 402872, Note_on_c, 0, 61, 53
2, 403154, Note_on_c, 0, 80, 0
2, 403176, Note_on_c, 0, 81, 0
2, 403364, Note_on_c, 0, 82, 78
2, 403766, Note_on_c, 0, 61, 0
2, 403874, Note_on_c, 0, 61, 17
2, 403980, Note_on_c, 0, 82, 0
2, 404032, Note_on_c, 0, 65, 0
2, 404134, Note_on_c, 0, 84, 71
2, 404158, Note_on_c, 0, 72, 56
2, 404292, Note_on_c, 0, 61, 0
2, 404570, Note_on_c, 0, 84, 0
2, 404614, Note_on_c, 0, 55, 0
2, 404666, Note_on_c, 0, 72, 0
2, 404774, Note_on_c, 0, 84, 55
2, 404804, Note_on_c, 0, 72, 58
2, 404808, Note_on_c, 0, 65, 37
2, 404810, Note_on_c, 0, 55, 31
2, 404830, Note_on_c, 0, 61, 28
2, 405076, Note_on_c, 0, 65, 0
2, 405094, Note_on_c, 0, 55, 0
2, 405426, Note_on_c, 0, 61, 0
2, 405556, Note_on_c, 0, 84, 0
2, 405730, Note_on_c, 0, 82, 67
2, 405784, Note_on_c, 0, 61, 38
2, 405840, Note_on_c, 0, 55, 26
2, 405946, Note_on_c, 0, 55, 0
2, 405978, Note_on_c, 0, 61, 0
2, 406598, Note_on_c, 0, 82, 0
2, 406670, Note_on_c, 0, 81, 57
2, 406686, Note_on_c, 0, 58, 37
2, 406696, Note_on_c, 0, 57, 30
2, 406704, Note_on_c, 0, 62, 35
2, 406712, Note_on_c, 0, 52, 37
2, 407514, Note_on_c, 0, 58, 0
2, 407778, Note_on_c, 0, 58, 32
2, 407850, Note_on_c, 0, 81, 0
2, 407974, Note_on_c, 0, 82, 83
2, 408022, Note_on_c, 0, 58, 0
2, 408154, Note_on_c, 0, 62, 0
2, 408290, Note_on_c, 0, 57, 0
2, 408482, Note_on_c, 0, 82, 0
2, 408490, Note_on_c, 0, 72, 0
2, 408572, Note_on_c, 0, 72, 26
2, 408606, Note_on_c, 0, 84, 89
2, 408608, Note_on_c, 0, 58, 56
2, 408624, Note_on_c, 0, 62, 51
2, 408642, Note_on_c, 0, 74, 48
2, 408676, Note_on_c, 0, 57, 8
2, 408720, Note_on_c, 0, 74, 0
2, 409048, Note_on_c, 0, 58, 0
2, 409184, Note_on_c, 0, 62, 0
2, 409226, Note_on_c, 0, 84, 0
2, 409558, Note_on_c, 0, 82, 84
2, 409580, Note_on_c, 0, 74, 38
2, 409588, Note_on_c, 0, 58, 51
2, 409608, Note_on_c, 0, 62, 46
2, 409664, Note_on_c, 0, 74, 0
2, 409808, Note_on_c, 0, 52, 0
2, 409948, Note_on_c, 0, 57, 0
2, 410012, Note_on_c, 0, 72, 0
2, 410040, Note_on_c, 0, 58, 0
2, 410118, Note_on_c, 0, 82, 0
2, 410152, Note_on_c, 0, 62, 0
2, 410210, Note_on_c, 0, 81, 79
2, 410956, Note_on_c, 0, 61, 47
2, 410958, Note_on_c, 0, 66, 51
2, 410972, Note_on_c, 0, 55, 46
2, 412256, Note_on_c, 0, 55, 0
2, 412270, Note_on_c, 0, 66, 0
2, 412340, Note_on_c, 0, 81, 0
2, 412426, Note_on_c, 0, 55, 47
2, 412454, Note_on_c, 0, 65, 53
2, 412458, Note_on_c, 0, 79, 89
2, 412908, Note_on_c, 0, 65, 0
2, 412994, Note_on_c, 0, 79, 0
2, 413180, Note_on_c, 0, 78, 77
2, 413500, Note_on_c, 0, 55, 0
2, 413504, Note_on_c, 0, 61, 0
2, 413694, Note_on_c, 0, 78, 0
2, 413874, Note_on_c, 0, 76, 60
2, 414426, Note_on_c, 0, 76, 0
2, 414490, Note_on_c, 0, 77, 63
2, 414550, Note_on_c, 0, 57, 30
2, 414552, Note_on_c, 0, 50, 24
2, 414568, Note_on_c, 0, 60, 19
2, 414572, Note_on_c, 0, 53, 30
2, 415120, Note_on_c, 0, 77, 0
2, 415140, Note_on_c, 0, 73, 36
2, 415704, Note_on_c, 0, 73, 0
2, 415774, Note_on_c, 0, 76, 57
2, 416272, Note_on_c, 0, 76, 0
2, 416362, Note_on_c, 0, 74, 48
2, 416576, Note_on_c, 0, 60, 0
2, 416724, Note_on_c, 0, 57, 0
2, 416726, Note_on_c, 0, 53, 0
2, 416764, Note_on_c, 0, 74, 0
2, 416918, Note_on_c, 0, 69, 36
2, 417180, Note_on_c, 0, 50, 0
2, 417370, Note_on_c, 0, 69, 0
2, 417604, Note_on_c, 0, 69, 34
2, 418182, Note_on_c, 0, 46, 42
2, 418376, Note_on_c, 0, 46, 0
2, 419212, Note_on_c, 0, 65, 37
2, 419240, Note_on_c, 0, 62, 38
2, 419310, Note_on_c, 0, 65, 0
2, 419322, Note_on_c, 0, 62, 0
2, 420100, Note_on_c, 0, 65, 43
2, 420116, Note_on_c, 0, 62, 45
2, 420202, Note_on_c, 0, 62, 0
2, 420208, Note_on_c, 0, 65, 0
2, 421096, Note_on_c, 0, 65, 55
2, 421116, Note_on_c, 0, 62, 47
2, 421144, Note_on_c, 0, 60, 36
2, 421196, Note_on_c, 0, 65, 0
2, 421198, Note_on_c, 0, 62, 0
2, 421230, Note_on_c, 0, 60, 0
2, 421998, Note_on_c, 0, 63, 61
2, 422028, Note_on_c, 0, 60, 49
2, 422066, Note_on_c, 0, 58, 31
2, 422144, Note_on_c, 0, 60, 0
2, 422162, Note_on_c, 0, 63, 0
2, 422272, Note_on_c, 0, 58, 0
2, 422936, Note_on_c, 0, 63, 57
2, 422938, Note_on_c, 0, 60, 62
2, 422948, Note_on_c, 0, 58, 45
2, 423004, Note_on_c, 0, 63, 0
2, 423178, Note_on_c, 0, 60, 0
2, 423270, Note_on_c, 0, 58, 0
2, 423420, Note_on_c, 0, 70, 71
2, 423448, Note_on_c, 0, 69, 0
2, 423858, Note_on_c, 0, 70, 0
2, 423880, Note_on_c, 0, 63, 70
2, 423896, Note_on_c, 0, 60, 59
2, 423914, Note_on_c, 0, 58, 46
2, 423960, Note_on_c, 0, 72, 55
2, 423964, Note_on_c, 0, 74, 51
2, 424036, Note_on_c, 0, 74, 0
2, 424108, Note_on_c, 0, 63, 0
2, 424274, Note_on_c, 0, 60, 0
2, 424316, Note_on_c, 0, 72, 0
2, 424346, Note_on_c, 0, 58, 0
2, 424426, Note_on_c, 0, 75, 57
2, 424812, Note_on_c, 0, 75, 0
2, 424872, Note_on_c, 0, 63, 82
2, 424884, Note_on_c, 0, 79, 71
2, 424888, Note_on_c, 0, 60, 67
2, 424906, Note_on_c, 0, 58, 57
2, 424910, Note_on_c, 0, 75, 37
2, 424946, Note_on_c, 0, 53, 39
2, 425008, Note_on_c, 0, 75, 0
2, 425154, Note_on_c, 0, 63, 0
2, 425204, Note_on_c, 0, 53, 0
2, 425214, Note_on_c, 0, 60, 0
2, 425236, Note_on_c, 0, 79, 0
2, 425270, Note_on_c, 0, 58, 0
2, 425358, Note_on_c, 0, 82, 80
2, 425366, Note_on_c, 0, 72, 68
2, 425396, Note_on_c, 0, 75, 43
2, 425468, Note_on_c, 0, 75, 0
2, 425642, Note_on_c, 0, 72, 0
2, 425684, Note_on_c, 0, 82, 0
2, 425810, Note_on_c, 0, 67, 74
2, 425818, Note_on_c, 0, 60, 67
2, 425820, Note_on_c, 0, 63, 60
2, 425828, Note_on_c, 0, 56, 65
2, 425850, Note_on_c, 0, 84, 81
2, 425858, Note_on_c, 0, 72, 51
2, 425878, Note_on_c, 0, 78, 52
2, 425880, Note_on_c, 0, 74, 68
2, 426092, Note_on_c, 0, 74, 0
2, 426156, Note_on_c, 0, 84, 0
2, 426224, Note_on_c, 0, 72, 0
2, 426266, Note_on_c, 0, 78, 0
2, 426278, Note_on_c, 0, 67, 0
2, 426288, Note_on_c, 0, 56, 0
2, 426302, Note_on_c, 0, 60, 0
2, 426370, Note_on_c, 0, 84, 66
2, 426374, Note_on_c, 0, 67, 32
2, 426376, Note_on_c, 0, 72, 64
2, 426382, Note_on_c, 0, 56, 33
2, 426426, Note_on_c, 0, 60, 35
2, 426992, Note_on_c, 0, 84, 0
2, 427008, Note_on_c, 0, 60, 0
2, 427012, Note_on_c, 0, 67, 0
2, 427032, Note_on_c, 0, 56, 0
2, 427098, Note_on_c, 0, 63, 0
2, 427106, Note_on_c, 0, 72, 0
2, 427190, Note_on_c, 0, 67, 48
2, 427204, Note_on_c, 0, 63, 17
2, 427208, Note_on_c, 0, 82, 46
2, 427210, Note_on_c, 0, 72, 19
2, 427212, Note_on_c, 0, 56, 38
2, 427248, Note_on_c, 0, 60, 34
2, 427424, Note_on_c, 0, 72, 0
2, 427520, Note_on_c, 0, 67, 0
2, 427580, Note_on_c, 0, 56, 0
2, 427664, Note_on_c, 0, 82, 0
2, 427724, Note_on_c, 0, 63, 0
2, 427780, Note_on_c, 0, 86, 64
2, 427788, Note_on_c, 0, 74, 53
2, 427808, Note_on_c, 0, 67, 59
2, 427848, Note_on_c, 0, 56, 33
2, 427878, Note_on_c, 0, 62, 47
2, 428408, Note_on_c, 0, 86, 0
2, 428426, Note_on_c, 0, 74, 0
2, 428442, Note_on_c, 0, 67, 0
2, 428488, Note_on_c, 0, 56, 0
2, 428558, Note_on_c, 0, 60, 0
2, 428656, Note_on_c, 0, 62, 0
2, 428724, Note_on_c, 0, 62, 27
2, 428730, Note_on_c, 0, 56, 63
2, 428736, Note_on_c, 0, 66, 69
2, 428742, Note_on_c, 0, 75, 68
2, 428744, Note_on_c, 0, 87, 69
2, 428774, Note_on_c, 0, 60, 41
2, 429052, Note_on_c, 0, 87, 0
2, 429054, Note_on_c, 0, 75, 0
2, 429240, Note_on_c, 0, 89, 39
2, 429248, Note_on_c, 0, 76, 30
2, 429262, Note_on_c, 0, 88, 34
2, 429268, Note_on_c, 0, 77, 27
2, 429362, Note_on_c, 0, 88, 0
2, 429386, Note_on_c, 0, 66, 0
2, 429390, Note_on_c, 0, 87, 21
2, 429432, Note_on_c, 0, 89, 0
2, 429444, Note_on_c, 0, 56, 0
2, 429478, Note_on_c, 0, 60, 0
2, 429480, Note_on_c, 0, 76, 0
2, 429482, Note_on_c, 0, 77, 0
2, 429486, Note_on_c, 0, 87, 0
2, 429560, Note_on_c, 0, 62, 0
2, 429666, Note_on_c, 0, 66, 74
2, 429668, Note_on_c, 0, 56, 75
2, 429686, Note_on_c, 0, 62, 57
2, 429688, Note_on_c, 0, 90, 71
2, 429694, Note_on_c, 0, 78, 67
2, 429728, Note_on_c, 0, 85, 59
2, 429744, Note_on_c, 0, 60, 33
2, 429912, Note_on_c, 0, 78, 0
2, 429952, Note_on_c, 0, 90, 0
2, 429984, Note_on_c, 0, 85, 0
2, 430010, Note_on_c, 0, 66, 0
2, 430012, Note_on_c, 0, 60, 0
2, 430080, Note_on_c, 0, 56, 0
2, 430162, Note_on_c, 0, 78, 67
2, 430168, Note_on_c, 0, 90, 59
2, 430184, Note_on_c, 0, 65, 60
2, 430204, Note_on_c, 0, 60, 54
2, 430208, Note_on_c, 0, 55, 67
2, 430210, Note_on_c, 0, 86, 59
2, 430228, Note_on_c, 0, 91, 62
2, 430348, Note_on_c, 0, 78, 0
2, 430350, Note_on_c, 0, 79, 64
2, 430406, Note_on_c, 0, 90, 0
2, 430882, Note_on_c, 0, 91, 0
2, 430900, Note_on_c, 0, 55, 0
2, 430914, Note_on_c, 0, 65, 0
2, 430956, Note_on_c, 0, 79, 0
2, 430980, Note_on_c, 0, 86, 0
2, 431074, Note_on_c, 0, 65, 62
2, 431078, Note_on_c, 0, 55, 52
2, 431094, Note_on_c, 0, 91, 49
2, 431096, Note_on_c, 0, 79, 62
2, 431116, Note_on_c, 0, 86, 65
2, 431122, Control_c, 0, 64, 127
2, 431396, Note_on_c, 0, 65, 0
2, 431414, Note_on_c, 0, 79, 0
2, 431416, Note_on_c, 0, 55, 0
2, 431418, Note_on_c, 0, 91, 0
2, 431468, Note_on_c, 0, 86, 0
2, 431494, Note_on_c, 0, 62, 0
2, 431600, Note_on_c, 0, 65, 31
2, 431606, Note_on_c, 0, 55, 54
2, 431618, Note_on_c, 0, 62, 29
2, 431624, Note_on_c, 0, 79, 44
2, 431634, Note_on_c, 0, 91, 43
2, 431636, Note_on_c, 0, 86, 62
2, 431686, Note_on_c, 0, 58, 35
2, 431714, Note_on_c, 0, 79, 0
2, 431736, Note_on_c, 0, 65, 0
2, 431744, Note_on_c, 0, 62, 0
2, 431746, Note_on_c, 0, 60, 0
2, 431798, Note_on_c, 0, 86, 0
2, 431836, Note_on_c, 0, 55, 0
2, 431838, Note_on_c, 0, 91, 0
2, 431886, Note_on_c, 0, 58, 0
2, 432266, Note_on_c, 0, 85, 95
2, 432268, Note_on_c, 0, 97, 88
2, 432270, Note_on_c, 0, 66, 90
2, 432274, Note_on_c, 0, 55, 80
2, 432284, Note_on_c, 0, 61, 70
2, 432344, Control_c, 0, 64, 0
2, 432866, Note_on_c, 0, 55, 0
2, 432892, Note_on_c, 0, 66, 0
2, 432906, Note_on_c, 0, 85, 0
2, 432912, Note_on_c, 0, 97, 0
2, 432966, Control_c, 0, 64, 127
2, 433034, Note_on_c, 0, 66, 71
2, 433038, Note_on_c, 0, 97, 71
2, 433040, Note_on_c, 0, 55, 62
2, 433044, Note_on_c, 0, 85, 67
2, 433300, Note_on_c, 0, 55, 0
2, 433326, Note_on_c, 0, 85, 0
2, 433340, Note_on_c, 0, 66, 0
2, 433376, Note_on_c, 0, 97, 0
2, 433456, Note_on_c, 0, 61, 0
2, 433654, Note_on_c, 0, 99, 75
2, 433670, Note_on_c, 0, 87, 69
2, 433672, Note_on_c, 0, 63, 71
2, 433678, Note_on_c, 0, 60, 69
2, 433680, Note_on_c, 0, 58, 55
2, 433690, Note_on_c, 0, 94, 61
2, 433706, Note_on_c, 0, 53, 62
2, 433710, Control_c, 0, 64, 0
2, 434050, Control_c, 0, 64, 127
2, 434236, Note_on_c, 0, 53, 0
2, 434308, Note_on_c, 0, 99, 0
2, 434330, Note_on_c, 0, 94, 0
2, 434332, Note_on_c, 0, 63, 0
2, 434360, Note_on_c, 0, 87, 0
2, 434372, Note_on_c, 0, 60, 0
2, 434376, Note_on_c, 0, 58, 0
2, 434560, Note_on_c, 0, 96, 61
2, 434566, Note_on_c, 0, 63, 47
2, 434572, Control_c, 0, 64, 0
2, 434574, Note_on_c, 0, 60, 51
2, 434584, Note_on_c, 0, 84, 37
2, 434592, Note_on_c, 0, 58, 47
2, 434602, Note_on_c, 0, 53, 41
2, 434826, Note_on_c, 0, 96, 0
2, 434832, Control_c, 0, 64, 127
2, 434906, Note_on_c, 0, 84, 0
2, 434954, Note_on_c, 0, 53, 0
2, 435072, Note_on_c, 0, 60, 0
2, 435082, Note_on_c, 0, 58, 0
2, 435098, Note_on_c, 0, 63, 0
2, 435424, Note_on_c, 0, 79, 48
2, 435434, Note_on_c, 0, 91, 53
2, 435436, Note_on_c, 0, 63, 46
2, 435468, Note_on_c, 0, 58, 44
2, 435470, Note_on_c, 0, 53, 41
2, 435474, Note_on_c, 0, 87, 35
2, 435478, Control_c, 0, 64, 0
2, 435480, Note_on_c, 0, 60, 46
2, 435878, Control_c, 0, 64, 127
2, 436682, Note_on_c, 0, 91, 0
2, 436734, Note_on_c, 0, 87, 0
2, 436810, Note_on_c, 0, 79, 0
2, 436936, Note_on_c, 0, 53, 0
2, 437054, Note_on_c, 0, 60, 0
2, 437194, Note_on_c, 0, 63, 0
2, 437308, Note_on_c, 0, 58, 0
2, 437790, Note_on_c, 0, 63, 55
2, 437796, Note_on_c, 0, 74, 58
2, 437816, Note_on_c, 0, 67, 50
2, 437818, Note_on_c, 0, 62, 51
2, 437864, Control_c, 0, 64, 0
2, 438090, Note_on_c, 0, 67, 0
2, 438140, Note_on_c, 0, 74, 0
2, 438192, Note_on_c, 0, 63, 0
2, 438248, Note_on_c, 0, 62, 0
2, 438412, Note_on_c, 0, 60, 31
2, 438714, Note_on_c, 0, 60, 0
2, 438804, Note_on_c, 0, 63, 42
2, 438820, Note_on_c, 0, 74, 45
2, 438832, Note_on_c, 0, 62, 37
2, 438858, Note_on_c, 0, 67, 45
2, 439124, Note_on_c, 0, 67, 0
2, 439158, Note_on_c, 0, 74, 0
2, 439202, Note_on_c, 0, 63, 0
2, 439250, Note_on_c, 0, 62, 0
2, 439358, Note_on_c, 0, 60, 34
2, 439696, Note_on_c, 0, 60, 0
2, 439772, Note_on_c, 0, 63, 48
2, 439796, Note_on_c, 0, 74, 34
2, 439816, Note_on_c, 0, 67, 41
2, 439828, Note_on_c, 0, 62, 31
2, 439936, Note_on_c, 0, 74, 0
2, 440066, Note_on_c, 0, 67, 0
2, 440144, Note_on_c, 0, 63, 0
2, 440186, Note_on_c, 0, 62, 0
2, 440714, Note_on_c, 0, 73, 46
2, 440748, Note_on_c, 0, 63, 33
2, 440754, Note_on_c, 0, 61, 37
2, 440794, Note_on_c, 0, 66, 31
2, 440870, Note_on_c, 0, 68, 20
2, 441104, Note_on_c, 0, 68, 0
2, 441114, Note_on_c, 0, 66, 0
2, 441138, Note_on_c, 0, 63, 0
2, 441144, Note_on_c, 0, 73, 0
2, 441258, Note_on_c, 0, 66, 28
2, 441260, Note_on_c, 0, 63, 50
2, 441280, Note_on_c, 0, 74, 62
2, 441282, Note_on_c, 0, 61, 0
2, 441294, Note_on_c, 0, 62, 59
2, 441428, Note_on_c, 0, 62, 0
2, 441448, Note_on_c, 0, 74, 0
2, 441476, Note_on_c, 0, 63, 0
2, 441542, Note_on_c, 0, 66, 0
2, 442134, Note_on_c, 0, 72, 58
2, 442142, Note_on_c, 0, 63, 55
2, 442150, Note_on_c, 0, 66, 56
2, 442196, Note_on_c, 0, 60, 32
2, 442328, Note_on_c, 0, 72, 0
2, 442330, Note_on_c, 0, 63, 0
2, 442348, Note_on_c, 0, 60, 0
2, 442374, Note_on_c, 0, 66, 0
2, 443018, Note_on_c, 0, 69, 51
2, 443022, Note_on_c, 0, 60, 55
2, 443032, Note_on_c, 0, 63, 45
2, 443040, Note_on_c, 0, 57, 41
2, 443064, Note_on_c, 0, 66, 42
2, 443376, Note_on_c, 0, 57, 0
2, 443542, Note_on_c, 0, 56, 35
2, 443618, Note_on_c, 0, 56, 0
2, 444414, Note_on_c, 0, 44, 39
2, 444418, Note_on_c, 0, 60, 0
2, 444498, Note_on_c, 0, 69, 0
2, 444774, Note_on_c, 0, 66, 0
2, 444872, Note_on_c, 0, 44, 0
2, 445094, Note_on_c, 0, 63, 0
2, 445422, Note_on_c, 0, 58, 31
2, 445436, Note_on_c, 0, 43, 37
2, 445450, Note_on_c, 0, 65, 34
2, 445464, Control_c, 0, 64, 127
2, 445470, Note_on_c, 0, 62, 38
2, 445472, Note_on_c, 0, 53, 19
2, 445670, Note_on_c, 0, 43, 0
2, 445706, Note_on_c, 0, 58, 0
2, 445736, Note_on_c, 0, 62, 0
2, 445812, Note_on_c, 0, 65, 0
2, 445848, Note_on_c, 0, 53, 0
2, 446972, Note_on_c, 0, 80, 49
2, 446976, Note_on_c, 0, 68, 71
2, 447008, Note_on_c, 0, 62, 45
2, 447010, Note_on_c, 0, 58, 39
2, 447012, Note_on_c, 0, 74, 54
2, 447028, Note_on_c, 0, 53, 35
2, 447032, Note_on_c, 0, 57, 38
2, 447056, Note_on_c, 0, 77, 31
2, 447108, Control_c, 0, 64, 0
2, 447136, Note_on_c, 0, 78, 15
2, 447262, Note_on_c, 0, 62, 0
2, 447330, Note_on_c, 0, 57, 0
2, 447332, Note_on_c, 0, 74, 0
2, 447348, Note_on_c, 0, 68, 0
2, 447352, Note_on_c, 0, 77, 0
2, 447364, Note_on_c, 0, 80, 0
2, 447370, Note_on_c, 0, 58, 0
2, 447372, Note_on_c, 0, 78, 0
2, 447468, Control_c, 0, 64, 127
2, 447470, Note_on_c, 0, 62, 34
2, 447484, Note_on_c, 0, 58, 23
2, 447490, Note_on_c, 0, 81, 39
2, 447536, Note_on_c, 0, 57, 17
2, 447656, Note_on_c, 0, 57, 0
2, 447664, Note_on_c, 0, 53, 0
2, 447666, Note_on_c, 0, 62, 0
2, 447700, Note_on_c, 0, 81, 0
2, 447732, Note_on_c, 0, 58, 0
2, 447948, Note_on_c, 0, 74, 73
2, 447958, Note_on_c, 0, 86, 74
2, 447966, Note_on_c, 0, 62, 37
2, 447968, Note_on_c, 0, 58, 31
2, 448040, Note_on_c, 0, 74, 0
2, 448062, Note_on_c, 0, 62, 0
2, 448110, Note_on_c, 0, 86, 0
2, 448146, Note_on_c, 0, 58, 0
2, 448362, Note_on_c, 0, 62, 50
2, 448378, Note_on_c, 0, 58, 43
2, 448396, Note_on_c, 0, 57, 33
2, 448400, Note_on_c, 0, 89, 73
2, 448402, Note_on_c, 0, 77, 78
2, 448438, Note_on_c, 0, 88, 54
2, 448492, Note_on_c, 0, 62, 0
2, 448494, Note_on_c, 0, 57, 0
2, 448506, Note_on_c, 0, 88, 0
2, 448528, Note_on_c, 0, 77, 0
2, 448554, Note_on_c, 0, 89, 0
2, 448576, Note_on_c, 0, 58, 0
2, 448732, Control_c, 0, 64, 0
2, 448812, Control_c, 0, 64, 127
2, 448844, Note_on_c, 0, 62, 58
2, 448858, Note_on_c, 0, 58, 45
2, 448874, Note_on_c, 0, 91, 85
2, 448876, Note_on_c, 0, 57, 40
2, 448882, Note_on_c, 0, 79, 82
2, 448904, Note_on_c, 0, 53, 32
2, 449010, Note_on_c, 0, 62, 0
2, 449012, Note_on_c, 0, 53, 0
2, 449028, Note_on_c, 0, 79, 0
2, 449068, Note_on_c, 0, 91, 0
2, 449076, Note_on_c, 0, 57, 0
2, 449110, Note_on_c, 0, 58, 0
2, 449274, Control_c, 0, 64, 0
2, 449360, Note_on_c, 0, 57, 74
2, 449370, Note_on_c, 0, 62, 74
2, 449384, Note_on_c, 0, 58, 61
2, 449386, Note_on_c, 0, 93, 82
2, 449394, Note_on_c, 0, 81, 83
2, 449410, Note_on_c, 0, 88, 73
2, 449414, Note_on_c, 0, 52, 57
2, 449840, Control_c, 0, 64, 127
2, 450316, Note_on_c, 0, 52, 0
2, 450334, Note_on_c, 0, 62, 0
2, 450352, Note_on_c, 0, 93, 0
2, 450374, Note_on_c, 0, 88, 0
2, 450388, Note_on_c, 0, 58, 0
2, 450394, Note_on_c, 0, 81, 0
2, 450404, Note_on_c, 0, 57, 0
2, 450622, Control_c, 0, 64, 0
2, 450730, Note_on_c, 0, 57, 62
2, 450756, Note_on_c, 0, 62, 61
2, 450770, Note_on_c, 0, 58, 56
2, 450780, Note_on_c, 0, 91, 72
2, 450794, Note_on_c, 0, 79, 68
2, 450796, Note_on_c, 0, 52, 43
2, 450810, Note_on_c, 0, 86, 66
2, 450862, Control_c, 0, 64, 127
2, 451006, Note_on_c, 0, 79, 0
2, 451054, Note_on_c, 0, 91, 0
2, 451058, Note_on_c, 0, 52, 0
2, 451060, Note_on_c, 0, 62, 0
2, 451074, Note_on_c, 0, 86, 0
2, 451136, Note_on_c, 0, 58, 0
2, 451158, Note_on_c, 0, 57, 0
2, 451204, Control_c, 0, 64, 0
2, 451376, Note_on_c, 0, 93, 65
2, 451386, Note_on_c, 0, 88, 62
2, 451388, Note_on_c, 0, 57, 42
2, 451400, Note_on_c, 0, 62, 54
2, 451402, Note_on_c, 0, 58, 54
2, 451426, Note_on_c, 0, 52, 46
2, 451430, Note_on_c, 0, 81, 30
2, 451554, Note_on_c, 0, 93, 0
2, 451564, Control_c, 0, 64, 127
2, 451584, Note_on_c, 0, 88, 0
2, 451620, Note_on_c, 0, 62, 0
2, 451648, Note_on_c, 0, 81, 0
2, 451652, Note_on_c, 0, 52, 0
2, 451702, Note_on_c, 0, 58, 0
2, 451740, Note_on_c, 0, 57, 0
2, 451926, Control_c, 0, 64, 0
2, 452022, Note_on_c, 0, 89, 35
2, 452036, Note_on_c, 0, 88, 34
2, 452038, Note_on_c, 0, 57, 34
2, 452054, Note_on_c, 0, 58, 43
2, 452056, Note_on_c, 0, 76, 28
2, 452068, Note_on_c, 0, 62, 38
2, 452072, Note_on_c, 0, 77, 28
2, 452084, Note_on_c, 0, 52, 37
2, 452238, Note_on_c, 0, 89, 0
2, 452270, Note_on_c, 0, 77, 0
2, 452286, Control_c, 0, 64, 127
2, 452522, Note_on_c, 0, 52, 0
2, 452538, Note_on_c, 0, 88, 0
2, 452560, Note_on_c, 0, 57, 0
2, 452624, Note_on_c, 0, 58, 0
2, 452652, Note_on_c, 0, 62, 0
2, 452684, Note_on_c, 0, 76, 0
2, 453170, Note_on_c, 0, 65, 47
2, 453180, Note_on_c, 0, 84, 60
2, 453188, Control_c, 0, 64, 0
2, 453194, Note_on_c, 0, 61, 48
2, 453202, Note_on_c, 0, 60, 45
2, 453222, Note_on_c, 0, 73, 37
2, 453228, Note_on_c, 0, 55, 43
2, 453234, Note_on_c, 0, 81, 41
2, 453246, Note_on_c, 0, 77, 36
2, 453690, Control_c, 0, 64, 127
2, 454244, Note_on_c, 0, 61, 0
2, 454268, Note_on_c, 0, 65, 0
2, 454282, Note_on_c, 0, 60, 0
2, 454496, Note_on_c, 0, 55, 0
2, 454670, Note_on_c, 0, 65, 38
2, 454678, Note_on_c, 0, 61, 38
2, 454698, Note_on_c, 0, 60, 45
2, 454700, Note_on_c, 0, 55, 24
2, 454722, Note_on_c, 0, 73, 0
2, 454800, Note_on_c, 0, 77, 0
2, 454912, Note_on_c, 0, 81, 0
2, 455194, Note_on_c, 0, 84, 0
2, 456082, Note_on_c, 0, 60, 0
2, 456104, Note_on_c, 0, 65, 0
2, 456202, Note_on_c, 0, 55, 0
2, 456216, Note_on_c, 0, 61, 0
2, 456992, Note_on_c, 0, 65, 43
2, 456996, Note_on_c, 0, 89, 73
2, 457006, Note_on_c, 0, 54, 42
2, 457030, Note_on_c, 0, 60, 45
2, 457038, Control_c, 0, 64, 0
2, 457492, Note_on_c, 0, 90, 59
2, 457558, Note_on_c, 0, 89, 0
2, 457814, Note_on_c, 0, 90, 0
2, 457944, Note_on_c, 0, 89, 49
2, 457966, Note_on_c, 0, 65, 0
2, 458092, Note_on_c, 0, 54, 0
2, 458124, Note_on_c, 0, 60, 0
2, 458206, Note_on_c, 0, 89, 0
2, 458482, Note_on_c, 0, 54, 37
2, 458492, Note_on_c, 0, 87, 51
2, 458498, Note_on_c, 0, 64, 32
2, 458514, Note_on_c, 0, 60, 32
2, 458660, Note_on_c, 0, 87, 0
2, 458662, Note_on_c, 0, 64, 0
2, 458692, Note_on_c, 0, 60, 0
2, 458738, Note_on_c, 0, 54, 0
2, 459482, Note_on_c, 0, 86, 61
2, 459484, Note_on_c, 0, 54, 37
2, 459508, Note_on_c, 0, 60, 32
2, 459692, Note_on_c, 0, 60, 0
2, 459816, Note_on_c, 0, 54, 0
2, 459928, Note_on_c, 0, 86, 0
2, 460034, Note_on_c, 0, 62, 37
2, 460054, Note_on_c, 0, 58, 46
2, 460058, Note_on_c, 0, 84, 60
2, 460066, Note_on_c, 0, 57, 36
2, 460068, Note_on_c, 0, 53, 27
2, 461244, Note_on_c, 0, 62, 0
2, 461342, Note_on_c, 0, 58, 0
2, 461478, Note_on_c, 0, 82, 55
2, 461488, Note_on_c, 0, 58, 37
2, 461490, Note_on_c, 0, 62, 43
2, 461642, Note_on_c, 0, 84, 0
2, 461746, Note_on_c, 0, 62, 0
2, 461792, Note_on_c, 0, 53, 0
2, 461814, Note_on_c, 0, 57, 0
2, 461826, Note_on_c, 0, 58, 0
2, 461832, Note_on_c, 0, 82, 0
2, 462346, Note_on_c, 0, 58, 49
2, 462350, Note_on_c, 0, 62, 49
2, 462364, Note_on_c, 0, 81, 62
2, 462390, Note_on_c, 0, 57, 45
2, 462400, Note_on_c, 0, 53, 36
2, 462696, Note_on_c, 0, 62, 0
2, 462744, Note_on_c, 0, 53, 0
2, 462754, Note_on_c, 0, 58, 0
2, 462766, Note_on_c, 0, 57, 0
2, 462782, Note_on_c, 0, 81, 0
2, 462926, Note_on_c, 0, 82, 55
2, 462944, Note_on_c, 0, 58, 42
2, 462958, Note_on_c, 0, 62, 31
2, 462980, Note_on_c, 0, 53, 33
2, 462990, Note_on_c, 0, 57, 41
2, 463788, Note_on_c, 0, 53, 0
2, 463814, Note_on_c, 0, 57, 0
2, 463834, Note_on_c, 0, 62, 0
2, 463938, Note_on_c, 0, 58, 0
2, 464312, Note_on_c, 0, 58, 43
2, 464316, Note_on_c, 0, 57, 41
2, 464336, Note_on_c, 0, 62, 36
2, 464358, Note_on_c, 0, 52, 37
2, 464504, Note_on_c, 0, 62, 0
2, 464514, Note_on_c, 0, 57, 0
2, 464540, Note_on_c, 0, 52, 0
2, 464550, Note_on_c, 0, 58, 0
2, 464646, Note_on_c, 0, 82, 0
2, 465190, Note_on_c, 0, 57, 70
2, 465200, Note_on_c, 0, 84, 92
2, 465208, Note_on_c, 0, 62, 67
2, 465218, Note_on_c, 0, 58, 57
2, 465232, Note_on_c, 0, 83, 51
2, 465238, Note_on_c, 0, 52, 49
2, 465312, Note_on_c, 0, 83, 0
2, 465534, Note_on_c, 0, 52, 0
2, 465560, Note_on_c, 0, 84, 0
2, 465608, Note_on_c, 0, 57, 0
2, 465656, Note_on_c, 0, 58, 0
2, 465680, Note_on_c, 0, 62, 0
2, 465710, Note_on_c, 0, 82, 53
2, 466008, Note_on_c, 0, 82, 0
2, 466154, Note_on_c, 0, 81, 70
2, 466480, Note_on_c, 0, 81, 0
2, 466618, Note_on_c, 0, 61, 34
2, 466624, Note_on_c, 0, 64, 30
2, 466646, Note_on_c, 0, 58, 33
2, 466654, Note_on_c, 0, 79, 58
2, 466664, Note_on_c, 0, 55, 36
2, 467586, Note_on_c, 0, 64, 0
2, 467606, Control_c, 0, 64, 127
2, 467650, Note_on_c, 0, 61, 0
2, 467704, Note_on_c, 0, 58, 0
2, 467726, Note_on_c, 0, 55, 0
2, 468032, Note_on_c, 0, 79, 0
2, 468078, Note_on_c, 0, 76, 27
2, 468412, Note_on_c, 0, 76, 0
2, 468428, Control_c, 0, 64, 0
2, 468558, Note_on_c, 0, 50, 40
2, 468562, Note_on_c, 0, 79, 47
2, 468858, Note_on_c, 0, 79, 0
2, 469028, Control_c, 0, 64, 127
2, 469082, Note_on_c, 0, 57, 36
2, 469960, Note_on_c, 0, 65, 55
2, 469990, Note_on_c, 0, 69, 55
2, 470044, Note_on_c, 0, 50, 0
2, 470150, Note_on_c, 0, 65, 0
2, 470190, Note_on_c, 0, 69, 0
2, 470902, Note_on_c, 0, 65, 36
2, 470926, Note_on_c, 0, 69, 37
2, 470960, Note_on_c, 0, 64, 33
2, 471094, Note_on_c, 0, 65, 0
2, 471114, Note_on_c, 0, 69, 0
2, 471384, Note_on_c, 0, 64, 0
2, 471874, Note_on_c, 0, 65, 43
2, 471902, Note_on_c, 0, 69, 36
2, 472064, Note_on_c, 0, 69, 0
2, 472066, Note_on_c, 0, 65, 0
2, 472764, Note_on_c, 0, 65, 43
2, 472784, Note_on_c, 0, 69, 42
2, 472806, Note_on_c, 0, 64, 33
2, 473004, Note_on_c, 0, 57, 0
2, 473038, Note_on_c, 0, 69, 0
2, 473072, Note_on_c, 0, 65, 0
2, 473268, Note_on_c, 0, 64, 0
2, 473770, Note_on_c, 0, 64, 54
2, 474026, Note_on_c, 0, 64, 0
2, 474232, Note_on_c, 0, 65, 44
2, 474258, Note_on_c, 0, 69, 40
2, 474282, Note_on_c, 0, 62, 49
2, 474302, Control_c, 0, 64, 0
2, 474544, Note_on_c, 0, 69, 0
2, 474578, Note_on_c, 0, 65, 0
2, 474790, Note_on_c, 0, 62, 0
2, 474824, Note_on_c, 0, 61, 48
2, 475202, Note_on_c, 0, 61, 0
2, 475266, Note_on_c, 0, 65, 47
2, 475272, Note_on_c, 0, 69, 53
2, 475284, Note_on_c, 0, 62, 52
2, 475562, Note_on_c, 0, 69, 0
2, 475590, Note_on_c, 0, 65, 0
2, 475688, Note_on_c, 0, 62, 0
2, 475774, Note_on_c, 0, 64, 55
2, 476180, Note_on_c, 0, 64, 0
2, 476238, Note_on_c, 0, 65, 46
2, 476260, Note_on_c, 0, 69, 49
2, 476270, Note_on_c, 0, 62, 52
2, 476894, Note_on_c, 0, 69, 0
2, 476912, Note_on_c, 0, 65, 0
2, 477162, Note_on_c, 0, 65, 30
2, 477176, Note_on_c, 0, 69, 44
2, 477210, Control_c, 0, 64, 127
2, 477704, Note_on_c, 0, 50, 38
2, 478130, Note_on_c, 0, 69, 0
2, 478196, Note_on_c, 0, 65, 0
2, 478426, Note_on_c, 0, 62, 0
2, 478630, Note_on_c, 0, 65, 26
2, 478634, Note_on_c, 0, 69, 35
2, 478672, Note_on_c, 0, 57, 36
2, 478856, Note_on_c, 0, 65, 0
2, 478872, Note_on_c, 0, 69, 0
2, 479538, Note_on_c, 0, 76, 47
2, 479556, Note_on_c, 0, 65, 39
2, 479572, Note_on_c, 0, 69, 46
2, 479598, Note_on_c, 0, 62, 39
2, 479990, Note_on_c, 0, 57, 0
2, 480470, Note_on_c, 0, 62, 0
2, 480544, Note_on_c, 0, 74, 52
2, 480598, Note_on_c, 0, 57, 36
2, 480634, Note_on_c, 0, 76, 0
2, 480678, Control_c, 0, 64, 0
2, 480898, Control_c, 0, 64, 127
2, 480906, Note_on_c, 0, 69, 0
2, 480928, Note_on_c, 0, 57, 0
2, 481024, Note_on_c, 0, 65, 0
2, 481296, Note_on_c, 0, 74, 0
2, 481390, Note_on_c, 0, 50, 0
2, 481972, Note_on_c, 0, 65, 53
2, 481984, Note_on_c, 0, 61, 55
2, 481990, Note_on_c, 0, 55, 53
2, 481996, Note_on_c, 0, 72, 56
2, 482022, Control_c, 0, 64, 0
2, 482986, Note_on_c, 0, 65, 0
2, 483004, Control_c, 0, 64, 127
2, 483090, Note_on_c, 0, 61, 0
2, 483108, Note_on_c, 0, 55, 0
2, 483488, Note_on_c, 0, 70, 51
2, 483490, Note_on_c, 0, 72, 0
2, 483890, Note_on_c, 0, 70, 0
2, 483992, Note_on_c, 0, 69, 49
2, 484008, Control_c, 0, 64, 0
2, 484010, Note_on_c, 0, 57, 35
2, 484012, Note_on_c, 0, 50, 36
2, 484830, Control_c, 0, 64, 127
2, 484894, Note_on_c, 0, 57, 0
2, 485378, Note_on_c, 0, 57, 30
2, 485684, Note_on_c, 0, 57, 0
2, 485848, Note_on_c, 0, 65, 42
2, 485850, Note_on_c, 0, 62, 33
2, 486368, Note_on_c, 0, 50, 0
2, 486580, Note_on_c, 0, 65, 0
2, 486600, Note_on_c, 0, 69, 0
2, 486698, Note_on_c, 0, 62, 0
2, 487374, Note_on_c, 0, 57, 48
2, 487392, Note_on_c, 0, 62, 52
2, 487420, Note_on_c, 0, 46, 39
2, 487476, Control_c, 0, 64, 0
2, 487576, Note_on_c, 0, 57, 0
2, 487676, Control_c, 0, 64, 127
2, 487708, Note_on_c, 0, 62, 0
2, 487834, Note_on_c, 0, 46, 0
2, 488672, Note_on_c, 0, 79, 95
2, 489054, Note_on_c, 0, 79, 0
2, 489172, Note_on_c, 0, 77, 68
2, 489454, Note_on_c, 0, 77, 0
2, 489602, Control_c, 0, 64, 0
2, 489618, Note_on_c, 0, 65, 33
2, 489638, Note_on_c, 0, 62, 34
2, 489654, Note_on_c, 0, 79, 71
2, 489664, Note_on_c, 0, 60, 30
2, 489842, Control_c, 0, 64, 127
2, 490308, Note_on_c, 0, 65, 0
2, 490318, Note_on_c, 0, 62, 0
2, 490398, Note_on_c, 0, 60, 0
2, 490924, Note_on_c, 0, 79, 0
2, 491040, Note_on_c, 0, 76, 37
2, 491416, Note_on_c, 0, 76, 0
2, 491546, Control_c, 0, 64, 0
2, 491560, Note_on_c, 0, 77, 38
2, 492086, Note_on_c, 0, 63, 50
2, 492108, Note_on_c, 0, 60, 49
2, 492142, Note_on_c, 0, 58, 38
2, 492220, Note_on_c, 0, 63, 0
2, 492232, Note_on_c, 0, 60, 0
2, 492326, Note_on_c, 0, 58, 0
2, 492942, Note_on_c, 0, 63, 36
2, 493004, Note_on_c, 0, 58, 32
2, 493014, Note_on_c, 0, 60, 27
2, 493128, Note_on_c, 0, 63, 0
2, 493236, Note_on_c, 0, 60, 0
2, 493258, Note_on_c, 0, 58, 0
2, 493558, Note_on_c, 0, 65, 40
2, 493574, Note_on_c, 0, 70, 35
2, 493592, Control_c, 0, 64, 127
2, 493614, Note_on_c, 0, 63, 25
2, 493628, Note_on_c, 0, 58, 30
2, 493652, Note_on_c, 0, 60, 29
2, 494166, Note_on_c, 0, 60, 0
2, 494204, Note_on_c, 0, 65, 0
2, 494242, Note_on_c, 0, 58, 0
2, 494312, Note_on_c, 0, 63, 0
2, 494336, Note_on_c, 0, 70, 0
2, 494938, Note_on_c, 0, 68, 26
2, 494942, Note_on_c, 0, 67, 38
2, 494946, Note_on_c, 0, 75, 35
2, 494958, Note_on_c, 0, 72, 33
2, 494972, Note_on_c, 0, 56, 33
2, 494986, Note_on_c, 0, 63, 35
2, 494994, Control_c, 0, 64, 0
2, 495006, Note_on_c, 0, 60, 36
2, 495136, Note_on_c, 0, 67, 0
2, 495156, Note_on_c, 0, 60, 0
2, 495212, Note_on_c, 0, 56, 0
2, 495262, Note_on_c, 0, 63, 0
2, 495926, Note_on_c, 0, 63, 40
2, 495934, Note_on_c, 0, 67, 46
2, 495944, Note_on_c, 0, 56, 35
2, 495978, Note_on_c, 0, 60, 41
2, 496062, Note_on_c, 0, 67, 0
2, 496082, Note_on_c, 0, 60, 0
2, 496138, Note_on_c, 0, 56, 0
2, 496154, Note_on_c, 0, 63, 0
2, 496844, Note_on_c, 0, 67, 53
2, 496864, Note_on_c, 0, 63, 42
2, 496874, Note_on_c, 0, 56, 33
2, 496918, Note_on_c, 0, 60, 36
2, 497014, Note_on_c, 0, 67, 0
2, 497042, Note_on_c, 0, 60, 0
2, 497096, Note_on_c, 0, 56, 0
2, 497134, Note_on_c, 0, 63, 0
2, 497330, Note_on_c, 0, 68, 0
2, 497744, Note_on_c, 0, 72, 0
2, 497828, Note_on_c, 0, 66, 56
2, 497860, Note_on_c, 0, 62, 40
2, 497862, Note_on_c, 0, 56, 36
2, 497932, Note_on_c, 0, 60, 24
2, 497952, Note_on_c, 0, 77, 0
2, 497970, Note_on_c, 0, 62, 0
2, 497986, Note_on_c, 0, 75, 0
2, 497998, Note_on_c, 0, 66, 0
2, 498006, Note_on_c, 0, 60, 0
2, 498074, Note_on_c, 0, 56, 0
2, 498814, Note_on_c, 0, 66, 52
2, 498818, Note_on_c, 0, 56, 51
2, 498858, Note_on_c, 0, 62, 37
2, 498968, Note_on_c, 0, 62, 0
2, 498992, Note_on_c, 0, 66, 0
2, 499072, Note_on_c, 0, 56, 0
2, 499286, Note_on_c, 0, 65, 44
2, 499290, Note_on_c, 0, 62, 37
2, 499332, Note_on_c, 0, 60, 32
2, 499368, Note_on_c, 0, 55, 37
2, 499514, Note_on_c, 0, 65, 0
2, 499520, Note_on_c, 0, 55, 0
2, 499546, Note_on_c, 0, 60, 0
2, 499550, Note_on_c, 0, 62, 0
2, 499788, Note_on_c, 0, 90, 59
2, 499796, Note_on_c, 0, 78, 51
2, 499848, Note_on_c, 0, 85, 50
2, 499988, Note_on_c, 0, 78, 0
2, 500060, Note_on_c, 0, 90, 0
2, 500068, Note_on_c, 0, 85, 0
2, 500294, Note_on_c, 0, 91, 47
2, 500304, Note_on_c, 0, 79, 40
2, 500360, Note_on_c, 0, 86, 24
2, 500452, Note_on_c, 0, 86, 0
2, 500466, Note_on_c, 0, 79, 0
2, 500474, Note_on_c, 0, 91, 0
2, 500716, Note_on_c, 0, 65, 55
2, 500732, Note_on_c, 0, 62, 50
2, 500738, Note_on_c, 0, 60, 55
2, 500740, Note_on_c, 0, 79, 61
2, 500750, Note_on_c, 0, 91, 56
2, 500762, Note_on_c, 0, 55, 39
2, 500764, Note_on_c, 0, 86, 51
2, 500890, Note_on_c, 0, 86, 0
2, 500892, Note_on_c, 0, 65, 0
2, 500896, Note_on_c, 0, 79, 0
2, 500900, Note_on_c, 0, 91, 0
2, 500914, Note_on_c, 0, 62, 0
2, 500926, Note_on_c, 0, 55, 0
2, 500960, Note_on_c, 0, 60, 0
2, 501260, Note_on_c, 0, 91, 60
2, 501274, Note_on_c, 0, 79, 48
2, 501296, Note_on_c, 0, 86, 42
2, 501364, Note_on_c, 0, 79, 0
2, 501400, Note_on_c, 0, 86, 0
2, 501412, Note_on_c, 0, 91, 0
2, 501732, Note_on_c, 0, 66, 80
2, 501734, Note_on_c, 0, 61, 69
2, 501738, Note_on_c, 0, 55, 73
2, 502680, Note_on_c, 0, 55, 0
2, 502782, Note_on_c, 0, 66, 0
2, 502928, Note_on_c, 0, 61, 0
2, 503080, Note_on_c, 0, 63, 57
2, 503112, Note_on_c, 0, 60, 57
2, 503130, Note_on_c, 0, 58, 36
2, 503162, Note_on_c, 0, 53, 41
2, 503712, Note_on_c, 0, 89, 76
2, 503722, Note_on_c, 0, 84, 80
2, 503726, Note_on_c, 0, 77, 80
2, 503764, Note_on_c, 0, 87, 37
2, 503844, Note_on_c, 0, 87, 0
2, 503924, Control_c, 0, 64, 127
2, 504076, Note_on_c, 0, 89, 0
2, 504180, Note_on_c, 0, 53, 0
2, 504236, Note_on_c, 0, 84, 0
2, 504244, Note_on_c, 0, 77, 0
2, 504280, Note_on_c, 0, 63, 0
2, 504310, Note_on_c, 0, 60, 0
2, 504332, Note_on_c, 0, 58, 0
2, 504478, Note_on_c, 0, 87, 78
2, 504482, Note_on_c, 0, 75, 78
2, 504498, Note_on_c, 0, 63, 73
2, 504500, Note_on_c, 0, 82, 72
2, 504504, Note_on_c, 0, 60, 62
2, 504506, Note_on_c, 0, 53, 65
2, 504518, Note_on_c, 0, 58, 50
2, 504808, Note_on_c, 0, 53, 0
2, 504824, Note_on_c, 0, 75, 0
2, 504854, Note_on_c, 0, 82, 0
2, 504868, Note_on_c, 0, 63, 0
2, 504878, Note_on_c, 0, 87, 0
2, 504926, Note_on_c, 0, 60, 0
2, 504942, Note_on_c, 0, 58, 0
2, 505046, Control_c, 0, 64, 0
2, 505104, Note_on_c, 0, 63, 62
2, 505108, Note_on_c, 0, 89, 74
2, 505110, Note_on_c, 0, 60, 53
2, 505112, Note_on_c, 0, 58, 55
2, 505116, Note_on_c, 0, 53, 59
2, 505132, Note_on_c, 0, 77, 78
2, 505146, Control_c, 0, 64, 127
2, 505348, Note_on_c, 0, 89, 0
2, 505432, Note_on_c, 0, 53, 0
2, 505440, Note_on_c, 0, 63, 0
2, 505456, Note_on_c, 0, 77, 0
2, 505494, Note_on_c, 0, 60, 0
2, 505536, Note_on_c, 0, 58, 0
2, 505728, Control_c, 0, 64, 0
2, 505762, Note_on_c, 0, 75, 65
2, 505764, Note_on_c, 0, 63, 60
2, 505768, Note_on_c, 0, 87, 55
2, 505780, Note_on_c, 0, 53, 37
2, 505786, Note_on_c, 0, 60, 61
2, 505796, Note_on_c, 0, 58, 42
2, 505808, Note_on_c, 0, 85, 47
2, 505888, Control_c, 0, 64, 127
2, 505890, Note_on_c, 0, 87, 0
2, 505932, Note_on_c, 0, 75, 0
2, 505936, Note_on_c, 0, 53, 0
2, 506002, Note_on_c, 0, 85, 0
2, 506012, Note_on_c, 0, 63, 0
2, 506196, Note_on_c, 0, 58, 0
2, 506210, Note_on_c, 0, 60, 0
2, 506594, Note_on_c, 0, 86, 73
2, 506612, Note_on_c, 0, 74, 66
2, 506620, Note_on_c, 0, 79, 58
2, 506626, Note_on_c, 0, 60, 53
2, 506650, Control_c, 0, 64, 0
2, 506652, Note_on_c, 0, 55, 54
2, 506760, Note_on_c, 0, 57, 16
2, 506952, Control_c, 0, 64, 127
2, 507118, Note_on_c, 0, 86, 0
2, 507194, Note_on_c, 0, 79, 0
2, 507272, Note_on_c, 0, 74, 0
2, 507946, Note_on_c, 0, 60, 0
2, 508374, Note_on_c, 0, 63, 71
2, 508380, Note_on_c, 0, 74, 74
2, 508398, Note_on_c, 0, 67, 64
2, 508454, Note_on_c, 0, 62, 54
2, 508560, Note_on_c, 0, 55, 0
2, 508574, Control_c, 0, 64, 0
2, 508588, Note_on_c, 0, 57, 0
2, 508976, Control_c, 0, 64, 127
2, 509184, Note_on_c, 0, 74, 0
2, 509294, Note_on_c, 0, 72, 55
2, 509378, Control_c, 0, 64, 0
2, 509380, Note_on_c, 0, 62, 0
2, 509386, Note_on_c, 0, 60, 40
2, 509458, Control_c, 0, 64, 127
2, 509546, Note_on_c, 0, 67, 0
2, 509574, Note_on_c, 0, 60, 0
2, 509888, Note_on_c, 0, 63, 0
2, 509986, Note_on_c, 0, 72, 0
2, 509988, Note_on_c, 0, 67, 56
2, 510026, Note_on_c, 0, 63, 19
2, 510152, Note_on_c, 0, 63, 0
2, 510184, Note_on_c, 0, 67, 0
2, 510736, Note_on_c, 0, 68, 44
2, 510754, Note_on_c, 0, 54, 40
2, 510758, Note_on_c, 0, 60, 34
2, 510770, Note_on_c, 0, 63, 36
2, 510772, Note_on_c, 0, 66, 39
2, 510800, Control_c, 0, 64, 0
2, 510812, Note_on_c, 0, 50, 28
2, 511804, Control_c, 0, 64, 127
2, 511996, Note_on_c, 0, 60, 0
2, 512064, Note_on_c, 0, 63, 0
2, 512070, Note_on_c, 0, 66, 0
2, 512142, Note_on_c, 0, 68, 0
2, 512266, Note_on_c, 0, 60, 42
2, 512272, Note_on_c, 0, 63, 27
2, 512282, Note_on_c, 0, 69, 42
2, 512310, Note_on_c, 0, 66, 33
2, 512312, Note_on_c, 0, 57, 31
2, 512324, Control_c, 0, 64, 0
2, 512544, Control_c, 0, 64, 127
2, 512564, Note_on_c, 0, 54, 0
2, 512616, Note_on_c, 0, 50, 0
2, 512822, Note_on_c, 0, 57, 0
2, 513226, Note_on_c, 0, 50, 44
2, 513450, Note_on_c, 0, 50, 0
2, 513780, Note_on_c, 0, 69, 0
2, 513912, Note_on_c, 0, 60, 0
2, 514036, Note_on_c, 0, 66, 0
2, 514114, Note_on_c, 0, 50, 43
2, 514348, Note_on_c, 0, 63, 0
2, 514492, Note_on_c, 0, 50, 0
2, 514510, Control_c, 0, 64, 0
2, 514644, Note_on_c, 0, 58, 40
2, 514646, Note_on_c, 0, 43, 43
2, 514664, Note_on_c, 0, 62, 49
2, 514810, Control_c, 0, 64, 127
2, 514898, Note_on_c, 0, 58, 0
2, 514954, Note_on_c, 0, 62, 0
2, 514958, Note_on_c, 0, 43, 0
2, 516124, Note_on_c, 0, 80, 64
2, 516130, Note_on_c, 0, 58, 59
2, 516134, Note_on_c, 0, 62, 66
2, 516138, Note_on_c, 0, 68, 78
2, 516140, Note_on_c, 0, 57, 52
2, 516158, Note_on_c, 0, 74, 61
2, 516160, Note_on_c, 0, 53, 48
2, 516188, Note_on_c, 0, 77, 41
2, 516218, Note_on_c, 0, 78, 25
2, 516476, Note_on_c, 0, 53, 0
2, 516514, Note_on_c, 0, 62, 0
2, 516556, Note_on_c, 0, 68, 0
2, 516568, Note_on_c, 0, 57, 0
2, 516582, Note_on_c, 0, 80, 0
2, 516592, Note_on_c, 0, 74, 0
2, 516604, Note_on_c, 0, 58, 0
2, 516606, Note_on_c, 0, 77, 0
2, 516620, Note_on_c, 0, 78, 0
2, 516696, Control_c, 0, 64, 0
2, 516748, Note_on_c, 0, 62, 58
2, 516754, Note_on_c, 0, 81, 68
2, 516756, Note_on_c, 0, 58, 67
2, 516760, Note_on_c, 0, 74, 66
2, 516764, Note_on_c, 0, 53, 55
2, 516776, Note_on_c, 0, 69, 65
2, 516782, Note_on_c, 0, 57, 59
2, 516784, Note_on_c, 0, 77, 62
2, 517100, Note_on_c, 0, 53, 0
2, 517184, Note_on_c, 0, 81, 0
2, 517194, Note_on_c, 0, 62, 0
2, 517206, Note_on_c, 0, 69, 0
2, 517218, Note_on_c, 0, 77, 0
2, 517224, Note_on_c, 0, 57, 0
2, 517230, Note_on_c, 0, 58, 0
2, 517230, Note_on_c, 0, 74, 0
2, 517396, Note_on_c, 0, 74, 62
2, 517404, Note_on_c, 0, 81, 55
2, 517408, Note_on_c, 0, 69, 60
2, 517410, Note_on_c, 0, 58, 58
2, 517426, Note_on_c, 0, 53, 39
2, 517428, Note_on_c, 0, 77, 41
2, 517430, Note_on_c, 0, 62, 41
2, 517462, Note_on_c, 0, 57, 32
2, 517518, Control_c, 0, 64, 127
2, 517550, Note_on_c, 0, 57, 0
2, 517598, Note_on_c, 0, 53, 0
2, 517638, Note_on_c, 0, 62, 0
2, 517640, Note_on_c, 0, 74, 0
2, 517668, Note_on_c, 0, 77, 0
2, 517694, Note_on_c, 0, 58, 0
2, 517728, Note_on_c, 0, 81, 0
2, 517744, Note_on_c, 0, 69, 0
2, 518060, Control_c, 0, 64, 0
2, 518084, Note_on_c, 0, 81, 58
2, 518094, Note_on_c, 0, 73, 37
2, 518096, Note_on_c, 0, 76, 51
2, 518098, Note_on_c, 0, 61, 49
2, 518100, Note_on_c, 0, 69, 57
2, 518102, Note_on_c, 0, 58, 53
2, 518106, Note_on_c, 0, 64, 54
2, 518390, Control_c, 0, 64, 127
2, 518392, Note_on_c, 0, 73, 0
2, 518394, Note_on_c, 0, 69, 0
2, 518408, Note_on_c, 0, 81, 0
2, 518446, Note_on_c, 0, 64, 0
2, 518456, Note_on_c, 0, 61, 0
2, 518462, Note_on_c, 0, 58, 0
2, 518478, Note_on_c, 0, 76, 0
2, 518954, Note_on_c, 0, 76, 50
2, 518958, Note_on_c, 0, 73, 43
2, 518966, Note_on_c, 0, 79, 54
2, 518974, Note_on_c, 0, 67, 56
2, 518990, Note_on_c, 0, 58, 53
2, 518994, Control_c, 0, 64, 0
2, 519004, Note_on_c, 0, 61, 43
2, 519006, Note_on_c, 0, 64, 49
2, 519268, Note_on_c, 0, 64, 0
2, 519290, Note_on_c, 0, 76, 0
2, 519312, Control_c, 0, 64, 127
2, 519314, Note_on_c, 0, 73, 0
2, 519326, Note_on_c, 0, 79, 0
2, 519358, Note_on_c, 0, 61, 0
2, 519376, Note_on_c, 0, 58, 0
2, 519406, Note_on_c, 0, 67, 0
2, 519910, Note_on_c, 0, 77, 54
2, 519916, Note_on_c, 0, 58, 57
2, 519920, Note_on_c, 0, 73, 37
2, 519928, Note_on_c, 0, 70, 47
2, 519936, Note_on_c, 0, 65, 48
2, 519938, Note_on_c, 0, 61, 50
2, 520002, Note_on_c, 0, 76, 30
2, 520100, Note_on_c, 0, 70, 0
2, 520104, Note_on_c, 0, 65, 0
2, 520130, Note_on_c, 0, 73, 0
2, 520152, Note_on_c, 0, 77, 0
2, 520164, Note_on_c, 0, 61, 0
2, 520170, Note_on_c, 0, 76, 0
2, 520196, Note_on_c, 0, 58, 0
2, 520396, Control_c, 0, 64, 0
2, 520422, Note_on_c, 0, 79, 63
2, 520426, Note_on_c, 0, 58, 54
2, 520442, Note_on_c, 0, 61, 44
2, 520448, Note_on_c, 0, 67, 60
2, 520450, Note_on_c, 0, 64, 50
2, 520650, Note_on_c, 0, 64, 0
2, 520674, Note_on_c, 0, 79, 0
2, 520690, Note_on_c, 0, 67, 0
2, 520762, Note_on_c, 0, 61, 0
2, 520784, Note_on_c, 0, 58, 0
2, 521350, Note_on_c, 0, 76, 49
2, 521386, Note_on_c, 0, 73, 35
2, 521388, Note_on_c, 0, 61, 44
2, 521400, Note_on_c, 0, 64, 39
2, 521402, Note_on_c, 0, 58, 46
2, 521518, Control_c, 0, 64, 127
2, 521806, Note_on_c, 0, 64, 0
2, 521908, Note_on_c, 0, 76, 0
2, 522022, Note_on_c, 0, 61, 0
2, 522030, Note_on_c, 0, 73, 0
2, 522152, Note_on_c, 0, 58, 0
2, 522338, Note_on_c, 0, 70, 61
2, 522342, Control_c, 0, 64, 0
2, 522348, Note_on_c, 0, 54, 43
2, 522352, Note_on_c, 0, 58, 25
2, 522372, Note_on_c, 0, 72, 44
2, 522374, Note_on_c, 0, 60, 55
2, 523282, Control_c, 0, 64, 127
2, 523482, Note_on_c, 0, 60, 0
2, 524210, Note_on_c, 0, 54, 0
2, 524212, Note_on_c, 0, 66, 40
2, 524230, Note_on_c, 0, 58, 0
2, 524338, Note_on_c, 0, 70, 0
2, 524364, Note_on_c, 0, 72, 0
2, 524666, Note_on_c, 0, 66, 0
2, 525692, Note_on_c, 0, 55, 33
2, 525696, Note_on_c, 0, 60, 38
2, 525722, Note_on_c, 0, 57, 28
2, 525810, Control_c, 0, 64, 0
2, 526590, Note_on_c, 0, 52, 44
2, 528022, Note_on_c, 0, 52, 0
2, 528060, Note_on_c, 0, 51, 37
2, 528290, Note_on_c, 0, 51, 0
2, 528584, Note_on_c, 0, 50, 40
2, 528830, Note_on_c, 0, 50, 0
2, 529508, Note_on_c, 0, 48, 24
2, 529726, Note_on_c, 0, 48, 0
2, 529776, Note_on_c, 0, 55, 0
2, 529858, Note_on_c, 0, 57, 0
2, 529894, Note_on_c, 0, 60, 0
2, 529930, Note_on_c, 0, 47, 37
2, 530924, Note_on_c, 0, 57, 30
2, 531094, Note_on_c, 0, 57, 0
2, 531378, Note_on_c, 0, 62, 35
2, 531432, Note_on_c, 0, 47, 0
2, 531596, Note_on_c, 0, 62, 0
2, 532260, Note_on_c, 0, 74, 69
2, 532378, Note_on_c, 0, 74, 0
2, 532770, Note_on_c, 0, 77, 95
2, 532774, Note_on_c, 0, 65, 58
2, 532778, Note_on_c, 0, 62, 55
2, 532784, Note_on_c, 0, 57, 60
2, 532880, Note_on_c, 0, 65, 0
2, 532890, Note_on_c, 0, 62, 0
2, 532896, Note_on_c, 0, 57, 0
2, 532936, Note_on_c, 0, 77, 0
2, 533234, Note_on_c, 0, 65, 67
2, 533238, Note_on_c, 0, 57, 68
2, 533254, Note_on_c, 0, 62, 61
2, 533274, Note_on_c, 0, 77, 92
2, 533392, Note_on_c, 0, 65, 0
2, 533406, Note_on_c, 0, 57, 0
2, 533436, Note_on_c, 0, 77, 0
2, 533476, Note_on_c, 0, 62, 0
2, 533738, Note_on_c, 0, 67, 75
2, 533744, Note_on_c, 0, 56, 77
2, 533752, Note_on_c, 0, 77, 96
2, 533762, Note_on_c, 0, 62, 65
2, 534590, Note_on_c, 0, 67, 0
2, 534606, Note_on_c, 0, 62, 0
2, 534620, Note_on_c, 0, 77, 0
2, 534708, Note_on_c, 0, 67, 33
2, 534746, Note_on_c, 0, 76, 57
2, 534750, Note_on_c, 0, 62, 35
2, 535052, Note_on_c, 0, 67, 0
2, 535104, Note_on_c, 0, 62, 0
2, 535108, Note_on_c, 0, 56, 0
2, 535126, Note_on_c, 0, 76, 0
2, 535312, Note_on_c, 0, 76, 51
2, 535324, Note_on_c, 0, 56, 44
2, 535332, Note_on_c, 0, 62, 42
2, 535342, Note_on_c, 0, 67, 37
2, 536110, Note_on_c, 0, 67, 0
2, 536180, Note_on_c, 0, 56, 0
2, 536292, Note_on_c, 0, 67, 34
2, 536300, Note_on_c, 0, 56, 34
2, 536516, Note_on_c, 0, 67, 0
2, 536522, Note_on_c, 0, 62, 0
2, 536730, Note_on_c, 0, 56, 0
2, 537230, Note_on_c, 0, 75, 55
2, 537294, Note_on_c, 0, 76, 0
2, 537670, Note_on_c, 0, 75, 0
2, 537720, Note_on_c, 0, 76, 50
2, 537742, Note_on_c, 0, 62, 25
2, 537750, Note_on_c, 0, 58, 32
2, 537762, Note_on_c, 0, 52, 34
2, 537772, Note_on_c, 0, 57, 22
2, 538702, Control_c, 0, 64, 127
2, 539018, Note_on_c, 0, 58, 0
2, 539404, Note_on_c, 0, 62, 0
2, 539576, Note_on_c, 0, 57, 0
2, 540142, Note_on_c, 0, 76, 0
2, 540154, Note_on_c, 0, 75, 72
2, 540186, Note_on_c, 0, 58, 45
2, 540188, Note_on_c, 0, 62, 40
2, 540194, Note_on_c, 0, 57, 34
2, 540522, Note_on_c, 0, 75, 0
2, 540532, Note_on_c, 0, 52, 0
2, 540550, Note_on_c, 0, 57, 0
2, 540612, Note_on_c, 0, 74, 50
2, 540614, Note_on_c, 0, 62, 0
2, 540630, Note_on_c, 0, 58, 0
2, 540864, Note_on_c, 0, 74, 0
2, 541074, Note_on_c, 0, 77, 80
2, 541382, Note_on_c, 0, 77, 0
2, 541552, Note_on_c, 0, 66, 64
2, 541556, Note_on_c, 0, 84, 85
2, 541560, Note_on_c, 0, 55, 66
2, 541568, Note_on_c, 0, 77, 78
2, 541570, Note_on_c, 0, 61, 57
2, 541594, Note_on_c, 0, 72, 79
2, 541636, Control_c, 0, 64, 0
2, 542176, Note_on_c, 0, 84, 0
2, 542340, Note_on_c, 0, 72, 0
2, 542362, Note_on_c, 0, 77, 0
2, 542376, Control_c, 0, 64, 127
2, 542420, Note_on_c, 0, 82, 60
2, 542602, Note_on_c, 0, 66, 0
2, 542698, Note_on_c, 0, 82, 0
2, 542734, Note_on_c, 0, 55, 0
2, 542914, Note_on_c, 0, 61, 0
2, 542996, Note_on_c, 0, 61, 18
2, 543008, Note_on_c, 0, 76, 52
2, 543010, Note_on_c, 0, 81, 60
2, 543032, Note_on_c, 0, 69, 46
2, 543036, Note_on_c, 0, 65, 42
2, 543040, Note_on_c, 0, 55, 35
2, 543058, Control_c, 0, 64, 0
2, 543338, Control_c, 0, 64, 127
2, 543616, Note_on_c, 0, 55, 0
2, 543654, Note_on_c, 0, 65, 0
2, 543748, Note_on_c, 0, 61, 0
2, 543960, Note_on_c, 0, 55, 46
2, 543964, Note_on_c, 0, 61, 43
2, 543990, Note_on_c, 0, 65, 33
2, 544072, Note_on_c, 0, 81, 0
2, 544088, Note_on_c, 0, 76, 0
2, 544114, Note_on_c, 0, 65, 0
2, 544158, Note_on_c, 0, 69, 0
2, 544222, Note_on_c, 0, 61, 0
2, 544240, Note_on_c, 0, 55, 0
2, 544872, Note_on_c, 0, 69, 47
2, 544884, Note_on_c, 0, 57, 27
2, 544970, Note_on_c, 0, 57, 0
2, 545064, Note_on_c, 0, 69, 0
2, 545324, Note_on_c, 0, 76, 67
2, 545340, Note_on_c, 0, 65, 64
2, 545342, Note_on_c, 0, 69, 69
2, 545358, Note_on_c, 0, 64, 74
2, 545404, Control_c, 0, 64, 0
2, 545686, Note_on_c, 0, 69, 0
2, 545704, Note_on_c, 0, 65, 0
2, 545724, Note_on_c, 0, 76, 0
2, 545842, Note_on_c, 0, 64, 0
2, 545930, Note_on_c, 0, 62, 40
2, 546194, Note_on_c, 0, 62, 0
2, 546310, Note_on_c, 0, 76, 55
2, 546318, Note_on_c, 0, 65, 50
2, 546336, Note_on_c, 0, 69, 54
2, 546356, Note_on_c, 0, 64, 50
2, 546750, Note_on_c, 0, 69, 0
2, 546782, Note_on_c, 0, 65, 0
2, 546800, Note_on_c, 0, 76, 0
2, 546820, Note_on_c, 0, 64, 0
2, 546994, Note_on_c, 0, 62, 19
2, 547198, Note_on_c, 0, 62, 0
2, 547278, Note_on_c, 0, 76, 54
2, 547300, Note_on_c, 0, 65, 46
2, 547312, Note_on_c, 0, 69, 52
2, 547348, Note_on_c, 0, 64, 44
2, 547410, Control_c, 0, 64, 127
2, 547792, Note_on_c, 0, 65, 0
2, 547802, Note_on_c, 0, 76, 0
2, 547876, Note_on_c, 0, 64, 0
2, 547922, Note_on_c, 0, 74, 44
2, 547930, Note_on_c, 0, 62, 40
2, 547950, Control_c, 0, 64, 0
2, 547992, Note_on_c, 0, 69, 0
2, 548054, Note_on_c, 0, 62, 0
2, 548134, Note_on_c, 0, 74, 0
2, 548312, Control_c, 0, 64, 127
2, 548632, Control_c, 0, 64, 0
2, 548712, Note_on_c, 0, 76, 44
2, 548722, Note_on_c, 0, 65, 42
2, 548730, Note_on_c, 0, 73, 34
2, 548746, Note_on_c, 0, 69, 49
2, 548764, Note_on_c, 0, 64, 47
2, 549194, Control_c, 0, 64, 127
2, 550446, Note_on_c, 0, 76, 0
2, 550450, Note_on_c, 0, 73, 0
2, 550542, Note_on_c, 0, 74, 64
2, 550552, Note_on_c, 0, 64, 0
2, 550590, Note_on_c, 0, 62, 44
2, 550604, Note_on_c, 0, 73, 27
2, 550684, Note_on_c, 0, 73, 0
2, 550718, Control_c, 0, 64, 0
2, 550808, Note_on_c, 0, 69, 0
2, 550856, Note_on_c, 0, 65, 0
2, 550962, Note_on_c, 0, 74, 0
2, 551118, Control_c, 0, 64, 127
2, 551120, Note_on_c, 0, 76, 69
2, 551148, Note_on_c, 0, 65, 62
2, 551158, Note_on_c, 0, 69, 60
2, 551160, Note_on_c, 0, 73, 39
2, 551162, Note_on_c, 0, 62, 0
2, 551164, Note_on_c, 0, 64, 49
2, 551450, Note_on_c, 0, 73, 0
2, 551618, Note_on_c, 0, 65, 0
2, 551658, Note_on_c, 0, 69, 0
2, 551666, Note_on_c, 0, 76, 0
2, 551776, Note_on_c, 0, 64, 0
2, 551776, Note_on_c, 0, 65, 33
2, 551782, Note_on_c, 0, 74, 59
2, 551814, Note_on_c, 0, 62, 54
2, 551820, Control_c, 0, 64, 0
2, 551902, Note_on_c, 0, 62, 0
2, 551962, Control_c, 0, 64, 127
2, 552128, Note_on_c, 0, 65, 0
2, 552258, Note_on_c, 0, 74, 0
2, 552416, Note_on_c, 0, 68, 52
2, 552842, Note_on_c, 0, 68, 0
2, 553028, Note_on_c, 0, 67, 55
2, 553124, Control_c, 0, 64, 0
2, 553126, Note_on_c, 0, 58, 37
2, 553186, Note_on_c, 0, 48, 22
2, 553586, Control_c, 0, 64, 127
2, 553758, Note_on_c, 0, 55, 44
2, 553790, Note_on_c, 0, 67, 0
2, 553822, Note_on_c, 0, 58, 0
2, 554514, Note_on_c, 0, 63, 50
2, 554536, Note_on_c, 0, 62, 51
2, 554554, Note_on_c, 0, 58, 33
2, 554932, Note_on_c, 0, 55, 0
2, 555004, Note_on_c, 0, 48, 0
2, 555012, Note_on_c, 0, 58, 0
2, 555766, Note_on_c, 0, 62, 0
2, 556242, Note_on_c, 0, 63, 0
2, 556370, Note_on_c, 0, 41, 33
2, 556494, Control_c, 0, 64, 0
2, 556694, Control_c, 0, 64, 127
2, 556698, Note_on_c, 0, 41, 0
2, 557396, Note_on_c, 0, 62, 48
2, 557418, Note_on_c, 0, 51, 37
2, 557482, Note_on_c, 0, 57, 38
2, 557994, Note_on_c, 0, 57, 0
2, 558046, Note_on_c, 0, 62, 0
2, 558480, Note_on_c, 0, 57, 25
2, 558668, Note_on_c, 0, 57, 0
2, 558858, Note_on_c, 0, 72, 110
2, 559270, Note_on_c, 0, 72, 0
2, 559364, Note_on_c, 0, 74, 84
2, 559400, Note_on_c, 0, 62, 43
2, 559424, Note_on_c, 0, 57, 36
2, 559732, Note_on_c, 0, 57, 0
2, 559846, Note_on_c, 0, 51, 0
2, 559854, Note_on_c, 0, 72, 50
2, 559996, Note_on_c, 0, 62, 0
2, 560086, Note_on_c, 0, 72, 0
2, 560192, Note_on_c, 0, 74, 0
2, 560374, Note_on_c, 0, 66, 56
2, 560664, Control_c, 0, 64, 0
2, 560706, Note_on_c, 0, 66, 0
2, 560954, Note_on_c, 0, 65, 56
2, 560980, Note_on_c, 0, 62, 31
2, 561150, Note_on_c, 0, 60, 16
2, 561314, Note_on_c, 0, 62, 0
2, 561338, Note_on_c, 0, 60, 0
2, 561352, Note_on_c, 0, 65, 0
2, 561586, Control_c, 0, 64, 127
2, 561648, Note_on_c, 0, 65, 54
2, 561652, Note_on_c, 0, 62, 28
2, 562008, Note_on_c, 0, 62, 0
2, 562142, Note_on_c, 0, 65, 0
2, 562284, Note_on_c, 0, 70, 59
2, 562298, Note_on_c, 0, 62, 32
2, 562308, Control_c, 0, 64, 0
2, 562372, Note_on_c, 0, 60, 33
2, 562628, Control_c, 0, 64, 127
2, 562664, Note_on_c, 0, 60, 0
2, 562778, Note_on_c, 0, 62, 0
2, 563188, Note_on_c, 0, 62, 36
2, 563226, Note_on_c, 0, 60, 36
2, 563292, Note_on_c, 0, 62, 0
2, 563334, Note_on_c, 0, 60, 0
2, 563406, Note_on_c, 0, 70, 0
2, 564474, Control_c, 0, 64, 0
2, 564476, Note_on_c, 0, 51, 30
2, 565114, Note_on_c, 0, 61, 59
2, 565124, Note_on_c, 0, 69, 59
2, 565148, Note_on_c, 0, 65, 49
2, 565156, Note_on_c, 0, 57, 33
2, 565268, Note_on_c, 0, 51, 0
2, 565356, Control_c, 0, 64, 127
2, 565564, Note_on_c, 0, 57, 0
2, 565638, Note_on_c, 0, 61, 0
2, 565668, Note_on_c, 0, 69, 0
2, 565690, Note_on_c, 0, 65, 0
2, 565696, Control_c, 0, 64, 0
2, 565784, Note_on_c, 0, 70, 69
2, 565786, Note_on_c, 0, 61, 69
2, 565814, Note_on_c, 0, 65, 50
2, 565844, Note_on_c, 0, 58, 33
2, 565918, Control_c, 0, 64, 127
2, 566132, Note_on_c, 0, 70, 0
2, 566156, Note_on_c, 0, 61, 0
2, 566214, Note_on_c, 0, 58, 0
2, 566260, Note_on_c, 0, 65, 0
2, 566398, Control_c, 0, 64, 0
2, 566416, Note_on_c, 0, 72, 74
2, 566418, Note_on_c, 0, 60, 58
2, 566420, Note_on_c, 0, 65, 74
2, 566432, Note_on_c, 0, 61, 74
2, 566860, Control_c, 0, 64, 127
2, 566952, Note_on_c, 0, 72, 0
2, 567010, Note_on_c, 0, 61, 0
2, 567120, Control_c, 0, 64, 0
2, 567122, Note_on_c, 0, 61, 47
2, 567140, Note_on_c, 0, 60, 0
2, 567142, Note_on_c, 0, 70, 59
2, 567144, Note_on_c, 0, 58, 48
2, 567308, Note_on_c, 0, 58, 0
2, 567346, Note_on_c, 0, 65, 0
2, 567360, Control_c, 0, 64, 127
2, 567372, Note_on_c, 0, 61, 0
2, 567414, Note_on_c, 0, 70, 0
2, 568438, Note_on_c, 0, 69, 51
2, 568454, Note_on_c, 0, 40, 46
2, 568460, Note_on_c, 0, 57, 40
2, 568462, Note_on_c, 0, 62, 51
2, 568468, Control_c, 0, 64, 0
2, 568496, Note_on_c, 0, 66, 46
2, 569258, Note_on_c, 0, 40, 0
2, 569266, Control_c, 0, 64, 127
2, 569292, Note_on_c, 0, 47, 35
2, 569334, Note_on_c, 0, 57, 0
2, 569460, Note_on_c, 0, 62, 0
2, 569584, Note_on_c, 0, 66, 0
2, 569868, Note_on_c, 0, 69, 0
2, 569914, Note_on_c, 0, 66, 26
2, 569948, Control_c, 0, 64, 0
2, 569950, Note_on_c, 0, 62, 47
2, 569956, Note_on_c, 0, 57, 33
2, 569992, Note_on_c, 0, 54, 31
2, 570148, Control_c, 0, 64, 127
2, 570660, Note_on_c, 0, 47, 0
2, 570802, Note_on_c, 0, 69, 50
2, 570804, Note_on_c, 0, 57, 0
2, 570898, Note_on_c, 0, 54, 0
2, 570936, Note_on_c, 0, 62, 0
2, 570992, Note_on_c, 0, 69, 0
2, 571058, Note_on_c, 0, 66, 0
2, 571270, Control_c, 0, 64, 0
2, 571334, Note_on_c, 0, 61, 49
2, 571352, Note_on_c, 0, 45, 50
2, 571360, Note_on_c, 0, 70, 42
2, 571370, Note_on_c, 0, 66, 43
2, 571378, Note_on_c, 0, 55, 34
2, 572034, Control_c, 0, 64, 127
2, 572124, Note_on_c, 0, 70, 0
2, 572142, Note_on_c, 0, 66, 0
2, 572240, Note_on_c, 0, 61, 0
2, 572262, Note_on_c, 0, 55, 0
2, 572710, Note_on_c, 0, 58, 47
2, 572742, Note_on_c, 0, 69, 44
2, 572752, Note_on_c, 0, 61, 44
2, 572758, Control_c, 0, 64, 0
2, 572804, Note_on_c, 0, 55, 37
2, 572810, Note_on_c, 0, 64, 44
2, 573336, Control_c, 0, 64, 127
2, 573540, Note_on_c, 0, 45, 0
2, 573700, Note_on_c, 0, 45, 60
2, 573852, Note_on_c, 0, 55, 0
2, 573858, Note_on_c, 0, 64, 0
2, 573894, Note_on_c, 0, 69, 0
2, 573922, Note_on_c, 0, 61, 0
2, 573924, Note_on_c, 0, 58, 0
2, 574098, Control_c, 0, 64, 0
2, 574150, Note_on_c, 0, 58, 57
2, 574178, Note_on_c, 0, 61, 43
2, 574190, Note_on_c, 0, 55, 44
2, 574196, Note_on_c, 0, 67, 49
2, 574248, Note_on_c, 0, 64, 36
2, 574340, Control_c, 0, 64, 127
2, 574568, Note_on_c, 0, 64, 0
2, 574666, Note_on_c, 0, 45, 0
2, 574674, Note_on_c, 0, 61, 0
2, 574678, Note_on_c, 0, 58, 0
2, 574736, Note_on_c, 0, 67, 0
2, 575092, Note_on_c, 0, 45, 48
2, 575278, Note_on_c, 0, 45, 0
2, 575374, Note_on_c, 0, 55, 0
2, 575634, Note_on_c, 0, 64, 51
2, 575740, Note_on_c, 0, 64, 0
2, 576144, Control_c, 0, 64, 0
2, 576150, Note_on_c, 0, 65, 78
2, 576158, Note_on_c, 0, 69, 76
2, 576160, Note_on_c, 0, 50, 46
2, 576886, Control_c, 0, 64, 127
2, 577010, Note_on_c, 0, 57, 30
2, 577358, Note_on_c, 0, 65, 0
2, 577590, Note_on_c, 0, 65, 35
2, 577596, Note_on_c, 0, 64, 51
2, 578070, Note_on_c, 0, 50, 0
2, 578520, Note_on_c, 0, 50, 41
2, 578592, Note_on_c, 0, 57, 0
2, 578656, Note_on_c, 0, 64, 0
2, 578764, Note_on_c, 0, 50, 0
2, 578880, Note_on_c, 0, 65, 0
2, 579108, Note_on_c, 0, 69, 0
2, 579390, Note_on_c, 0, 46, 46
2, 579418, Note_on_c, 0, 65, 31
2, 579432, Control_c, 0, 64, 0
2, 579434, Note_on_c, 0, 57, 41
2, 579444, Note_on_c, 0, 62, 45
2, 579834, Control_c, 0, 64, 127
2, 579872, Note_on_c, 0, 57, 0
2, 579880, Note_on_c, 0, 53, 1
2, 579882, Note_on_c, 0, 65, 0
2, 580030, Note_on_c, 0, 62, 0
2, 580322, Note_on_c, 0, 53, 0
2, 580360, Note_on_c, 0, 55, 52
2, 580364, Note_on_c, 0, 67, 69
2, 580382, Note_on_c, 0, 62, 65
2, 580384, Note_on_c, 0, 57, 66
2, 580434, Control_c, 0, 64, 0
2, 580696, Note_on_c, 0, 57, 0
2, 580722, Note_on_c, 0, 67, 0
2, 580762, Note_on_c, 0, 55, 0
2, 580788, Note_on_c, 0, 62, 0
2, 580974, Note_on_c, 0, 53, 12
2, 581366, Note_on_c, 0, 67, 70
2, 581368, Note_on_c, 0, 62, 66
2, 581380, Note_on_c, 0, 57, 65
2, 581382, Note_on_c, 0, 55, 53
2, 581384, Note_on_c, 0, 53, 0
2, 581758, Control_c, 0, 64, 127
2, 582250, Note_on_c, 0, 46, 0
2, 582702, Note_on_c, 0, 62, 0
2, 582936, Note_on_c, 0, 67, 0
2, 583140, Note_on_c, 0, 57, 0
2, 583164, Note_on_c, 0, 55, 0
2, 583384, Note_on_c, 0, 63, 14
2, 583602, Note_on_c, 0, 63, 0
2, 583702, Control_c, 0, 64, 0
2, 583738, Note_on_c, 0, 65, 30
2, 583758, Note_on_c, 0, 44, 37
2, 583760, Note_on_c, 0, 60, 36
2, 584576, Note_on_c, 0, 60, 0
2, 584718, Note_on_c, 0, 51, 27
2, 584766, Control_c, 0, 64, 127
2, 585254, Note_on_c, 0, 58, 52
2, 585266, Note_on_c, 0, 53, 34
2, 585494, Note_on_c, 0, 53, 0
2, 585766, Note_on_c, 0, 58, 0
2, 585818, Note_on_c, 0, 44, 0
2, 585858, Note_on_c, 0, 65, 0
2, 586112, Note_on_c, 0, 44, 39
2, 586374, Note_on_c, 0, 44, 0
2, 586418, Note_on_c, 0, 51, 0
2, 586972, Control_c, 0, 64, 0
2, 587078, Note_on_c, 0, 46, 50
2, 587098, Note_on_c, 0, 63, 42
2, 587104, Note_on_c, 0, 56, 38
2, 587120, Note_on_c, 0, 60, 46
2, 587252, Control_c, 0, 64, 127
2, 587318, Note_on_c, 0, 60, 0
2, 587372, Note_on_c, 0, 46, 0
2, 587450, Note_on_c, 0, 63, 0
2, 587452, Note_on_c, 0, 56, 0
2, 589020, Note_on_c, 0, 94, 88
2, 589024, Note_on_c, 0, 56, 74
2, 589026, Note_on_c, 0, 67, 80
2, 589030, Note_on_c, 0, 82, 93
2, 589034, Note_on_c, 0, 63, 65
2, 589040, Note_on_c, 0, 87, 80
2, 589052, Note_on_c, 0, 60, 69
2, 589058, Note_on_c, 0, 91, 68
2, 589356, Note_on_c, 0, 67, 0
2, 589386, Note_on_c, 0, 94, 0
2, 589392, Note_on_c, 0, 56, 0
2, 589396, Control_c, 0, 64, 0
2, 589402, Note_on_c, 0, 82, 0
2, 589404, Note_on_c, 0, 60, 0
2, 589434, Note_on_c, 0, 91, 0
2, 589436, Note_on_c, 0, 87, 0
2, 589480, Note_on_c, 0, 63, 0
2, 589558, Control_c, 0, 64, 127
2, 589568, Note_on_c, 0, 63, 51
2, 589572, Note_on_c, 0, 94, 73
2, 589574, Note_on_c, 0, 56, 67
2, 589586, Note_on_c, 0, 67, 70
2, 589592, Note_on_c, 0, 87, 64
2, 589594, Note_on_c, 0, 82, 62
2, 589604, Note_on_c, 0, 60, 56
2, 589952, Note_on_c, 0, 94, 0
2, 590008, Note_on_c, 0, 82, 0
2, 590048, Note_on_c, 0, 60, 0
2, 590050, Note_on_c, 0, 67, 0
2, 590068, Note_on_c, 0, 87, 0
2, 590124, Note_on_c, 0, 56, 0
2, 590182, Note_on_c, 0, 63, 0
2, 590400, Control_c, 0, 64, 0
2, 590468, Note_on_c, 0, 56, 59
2, 590470, Note_on_c, 0, 63, 54
2, 590480, Note_on_c, 0, 66, 60
2, 590484, Note_on_c, 0, 92, 56
2, 590498, Note_on_c, 0, 61, 53
2, 590500, Note_on_c, 0, 80, 52
2, 590502, Note_on_c, 0, 87, 67
2, 590566, Control_c, 0, 64, 127
2, 590926, Note_on_c, 0, 66, 0
2, 590950, Note_on_c, 0, 92, 0
2, 590964, Note_on_c, 0, 80, 0
2, 591010, Note_on_c, 0, 87, 0
2, 591022, Note_on_c, 0, 56, 0
2, 591056, Note_on_c, 0, 61, 0
2, 591096, Note_on_c, 0, 63, 0
2, 591388, Control_c, 0, 64, 0
2, 591442, Note_on_c, 0, 62, 71
2, 591446, Note_on_c, 0, 91, 81
2, 591452, Note_on_c, 0, 65, 71
2, 591458, Note_on_c, 0, 79, 74
2, 591460, Note_on_c, 0, 60, 62
2, 591464, Note_on_c, 0, 86, 78
2, 591466, Note_on_c, 0, 55, 67
2, 591828, Control_c, 0, 64, 127
2, 592548, Note_on_c, 0, 62, 0
2, 592582, Note_on_c, 0, 65, 0
2, 592622, Note_on_c, 0, 60, 0
2, 592688, Note_on_c, 0, 55, 0
2, 592808, Note_on_c, 0, 86, 0
2, 592934, Note_on_c, 0, 79, 0
2, 593046, Note_on_c, 0, 91, 0
2, 593410, Note_on_c, 0, 66, 52
2, 593418, Note_on_c, 0, 55, 51
2, 593422, Note_on_c, 0, 85, 51
2, 593426, Note_on_c, 0, 61, 52
2, 593430, Note_on_c, 0, 79, 40
2, 593436, Control_c, 0, 64, 0
2, 593854, Control_c, 0, 64, 127
2, 594014, Note_on_c, 0, 55, 0
2, 594052, Note_on_c, 0, 66, 0
2, 594086, Note_on_c, 0, 79, 0
2, 594288, Note_on_c, 0, 61, 0
2, 594298, Note_on_c, 0, 85, 0
2, 594816, Control_c, 0, 64, 0
2, 594852, Note_on_c, 0, 84, 48
2, 594854, Note_on_c, 0, 63, 31
2, 594880, Note_on_c, 0, 77, 37
2, 594884, Note_on_c, 0, 53, 30
2, 594886, Note_on_c, 0, 60, 46
2, 594892, Note_on_c, 0, 58, 38
2, 595068, Note_on_c, 0, 84, 0
2, 595078, Control_c, 0, 64, 127
2, 595138, Note_on_c, 0, 77, 0
2, 595158, Note_on_c, 0, 63, 0
2, 595180, Note_on_c, 0, 60, 0
2, 595226, Note_on_c, 0, 58, 0
2, 595302, Note_on_c, 0, 53, 0
2, 595790, Note_on_c, 0, 51, 29
2, 595820, Note_on_c, 0, 65, 61
2, 595836, Note_on_c, 0, 60, 65
2, 595856, Note_on_c, 0, 53, 53
2, 595874, Note_on_c, 0, 52, 47
2, 595876, Note_on_c, 0, 63, 45
2, 595890, Note_on_c, 0, 51, 0
2, 595942, Note_on_c, 0, 52, 0
2, 595958, Control_c, 0, 64, 0
2, 596342, Note_on_c, 0, 63, 0
2, 596580, Note_on_c, 0, 65, 0
2, 596604, Note_on_c, 0, 60, 0
2, 596694, Note_on_c, 0, 51, 48
2, 596700, Note_on_c, 0, 53, 0
2, 596714, Note_on_c, 0, 63, 48
2, 597182, Note_on_c, 0, 51, 0
2, 597218, Note_on_c, 0, 53, 37
2, 597226, Note_on_c, 0, 65, 49
2, 597272, Note_on_c, 0, 60, 47
2, 597322, Control_c, 0, 64, 127
2, 597546, Note_on_c, 0, 63, 0
2, 597864, Control_c, 0, 64, 0
2, 598164, Control_c, 0, 64, 127
2, 598418, Note_on_c, 0, 65, 0
2, 598470, Note_on_c, 0, 60, 0
2, 598518, Note_on_c, 0, 53, 0
2, 598668, Note_on_c, 0, 63, 42
2, 598686, Note_on_c, 0, 51, 27
2, 598794, Note_on_c, 0, 51, 0
2, 598940, Note_on_c, 0, 63, 0
2, 599068, Control_c, 0, 64, 0
2, 599126, Note_on_c, 0, 62, 51
2, 599152, Note_on_c, 0, 55, 32
2, 599168, Note_on_c, 0, 60, 36
2, 599268, Note_on_c, 0, 55, 0
2, 599274, Note_on_c, 0, 60, 0
2, 599310, Note_on_c, 0, 62, 0
2, 599630, Note_on_c, 0, 55, 48
2, 599650, Note_on_c, 0, 62, 40
2, 599684, Note_on_c, 0, 60, 37
2, 599792, Note_on_c, 0, 60, 0
2, 599808, Note_on_c, 0, 55, 0
2, 599852, Note_on_c, 0, 62, 0
2, 600124, Note_on_c, 0, 55, 35
2, 600144, Note_on_c, 0, 62, 38
2, 600220, Note_on_c, 0, 55, 0
2, 600300, Note_on_c, 0, 62, 0
2, 601030, Note_on_c, 0, 62, 48
2, 601040, Note_on_c, 0, 55, 34
2, 601058, Note_on_c, 0, 60, 43
2, 602168, Note_on_c, 0, 55, 0
2, 602330, Note_on_c, 0, 60, 0
2, 602332, Note_on_c, 0, 62, 0
2, 602492, Note_on_c, 0, 54, 57
2, 602500, Note_on_c, 0, 60, 57
2, 602518, Note_on_c, 0, 50, 48
2, 602520, Note_on_c, 0, 62, 58
2, 602530, Note_on_c, 0, 38, 36
2, 602574, Note_on_c, 0, 54, 0
2, 602620, Note_on_c, 0, 62, 0
2, 602630, Note_on_c, 0, 60, 0
2, 602656, Note_on_c, 0, 38, 0
2, 602676, Note_on_c, 0, 50, 0
2, 603406, Note_on_c, 0, 54, 61
2, 603438, Note_on_c, 0, 62, 48
2, 603442, Note_on_c, 0, 60, 45
2, 603462, Note_on_c, 0, 50, 38
2, 603474, Note_on_c, 0, 54, 0
2, 603518, Note_on_c, 0, 62, 0
2, 603526, Note_on_c, 0, 60, 0
2, 603556, Note_on_c, 0, 50, 0
2, 604300, Note_on_c, 0, 54, 67
2, 604320, Note_on_c, 0, 50, 59
2, 604336, Note_on_c, 0, 60, 60
2, 604342, Note_on_c, 0, 62, 51
2, 604418, Note_on_c, 0, 60, 0
2, 604510, Note_on_c, 0, 54, 0
2, 604530, Note_on_c, 0, 50, 0
2, 604582, Note_on_c, 0, 62, 0
2, 604816, Note_on_c, 0, 54, 53
2, 604834, Note_on_c, 0, 62, 48
2, 604838, Note_on_c, 0, 60, 60
2, 604848, Note_on_c, 0, 50, 47
2, 605042, Control_c, 0, 64, 127
2, 605058, Note_on_c, 0, 54, 0
2, 605142, Note_on_c, 0, 60, 0
2, 605172, Note_on_c, 0, 62, 0
2, 605664, Control_c, 0, 64, 0
2, 605718, Note_on_c, 0, 38, 56
2, 605742, Note_on_c, 0, 72, 84
2, 605830, Note_on_c, 0, 38, 0
2, 605858, Note_on_c, 0, 50, 0
2, 605904, Control_c, 0, 64, 127
2, 605976, Note_on_c, 0, 72, 0
2, 606254, Note_on_c, 0, 72, 80
2, 606502, Note_on_c, 0, 72, 0
2, 606526, Control_c, 0, 64, 0
2, 606672, Note_on_c, 0, 72, 50
2, 606692, Note_on_c, 0, 65, 60
2, 606724, Note_on_c, 0, 43, 44
2, 606734, Note_on_c, 0, 62, 52
2, 606948, Control_c, 0, 64, 127
2, 607230, Note_on_c, 0, 50, 47
2, 607416, Note_on_c, 0, 43, 0
2, 607600, Note_on_c, 0, 50, 0
2, 607696, Note_on_c, 0, 62, 0
2, 607754, Note_on_c, 0, 57, 44
2, 607814, Note_on_c, 0, 65, 0
2, 608116, Note_on_c, 0, 72, 0
2, 608238, Note_on_c, 0, 58, 52
2, 608250, Note_on_c, 0, 57, 0
2, 608716, Note_on_c, 0, 81, 69
2, 608730, Note_on_c, 0, 74, 74
2, 608748, Note_on_c, 0, 62, 44
2, 608752, Note_on_c, 0, 69, 57
2, 608764, Note_on_c, 0, 71, 60
2, 608906, Note_on_c, 0, 71, 0
2, 609452, Note_on_c, 0, 69, 0
2, 609468, Note_on_c, 0, 62, 0
2, 609602, Note_on_c, 0, 65, 20
2, 609674, Note_on_c, 0, 65, 0
2, 609678, Note_on_c, 0, 77, 43
2, 609742, Note_on_c, 0, 58, 0
2, 609758, Note_on_c, 0, 74, 0
2, 609878, Note_on_c, 0, 77, 0
2, 609884, Note_on_c, 0, 81, 0
2, 610254, Note_on_c, 0, 81, 52
2, 610258, Note_on_c, 0, 76, 46
2, 610262, Note_on_c, 0, 69, 40
2, 610268, Note_on_c, 0, 73, 33
2, 610284, Note_on_c, 0, 58, 38
2, 610288, Note_on_c, 0, 62, 35
2, 610296, Control_c, 0, 64, 0
2, 610310, Note_on_c, 0, 52, 31
2, 610456, Note_on_c, 0, 69, 0
2, 610466, Note_on_c, 0, 62, 0
2, 610474, Note_on_c, 0, 81, 0
2, 610506, Note_on_c, 0, 52, 0
2, 610508, Note_on_c, 0, 76, 0
2, 610518, Note_on_c, 0, 73, 0
2, 610534, Note_on_c, 0, 58, 0
2, 610776, Control_c, 0, 64, 127
2, 611018, Control_c, 0, 64, 0
2, 611156, Note_on_c, 0, 79, 45
2, 611162, Note_on_c, 0, 76, 37
2, 611164, Note_on_c, 0, 58, 45
2, 611168, Note_on_c, 0, 73, 35
2, 611184, Note_on_c, 0, 67, 45
2, 611208, Note_on_c, 0, 62, 35
2, 611296, Note_on_c, 0, 67, 0
2, 611298, Note_on_c, 0, 62, 0
2, 611338, Note_on_c, 0, 76, 0
2, 611372, Note_on_c, 0, 79, 0
2, 611374, Note_on_c, 0, 73, 0
2, 611382, Note_on_c, 0, 58, 0
2, 612000, Control_c, 0, 64, 127
2, 612032, Note_on_c, 0, 77, 52
2, 612078, Note_on_c, 0, 58, 36
2, 612082, Note_on_c, 0, 65, 41
2, 612102, Note_on_c, 0, 52, 34
2, 612116, Note_on_c, 0, 62, 31
2, 612218, Note_on_c, 0, 65, 0
2, 612222, Note_on_c, 0, 62, 0
2, 612232, Note_on_c, 0, 52, 0
2, 612254, Note_on_c, 0, 77, 0
2, 612312, Note_on_c, 0, 58, 0
2, 612382, Control_c, 0, 64, 0
2, 612560, Note_on_c, 0, 58, 25
2, 612562, Note_on_c, 0, 62, 32
2, 612564, Note_on_c, 0, 79, 39
2, 612566, Note_on_c, 0, 67, 62
2, 612594, Note_on_c, 0, 52, 26
2, 612686, Note_on_c, 0, 79, 0
2, 612702, Control_c, 0, 64, 127
2, 612738, Note_on_c, 0, 52, 0
2, 612752, Note_on_c, 0, 62, 0
2, 612760, Note_on_c, 0, 67, 0
2, 612844, Note_on_c, 0, 58, 0
2, 613364, Control_c, 0, 64, 0
2, 613446, Note_on_c, 0, 76, 54
2, 613478, Note_on_c, 0, 64, 48
2, 613488, Note_on_c, 0, 58, 39
2, 613524, Control_c, 0, 64, 127
2, 613530, Note_on_c, 0, 62, 31
2, 613560, Note_on_c, 0, 64, 0
2, 613646, Note_on_c, 0, 62, 0
2, 613704, Note_on_c, 0, 58, 0
2, 613740, Note_on_c, 0, 76, 0
2, 614450, Note_on_c, 0, 84, 85
2, 614466, Control_c, 0, 64, 0
2, 614470, Note_on_c, 0, 60, 70
2, 614472, Note_on_c, 0, 65, 76
2, 614484, Note_on_c, 0, 61, 59
2, 614486, Note_on_c, 0, 81, 75
2, 614490, Note_on_c, 0, 55, 66
2, 614492, Note_on_c, 0, 77, 78
2, 614496, Note_on_c, 0, 72, 75
2, 614536, Note_on_c, 0, 58, 35
2, 614838, Control_c, 0, 64, 127
2, 615374, Note_on_c, 0, 55, 0
2, 615464, Note_on_c, 0, 72, 0
2, 615478, Note_on_c, 0, 65, 0
2, 615492, Note_on_c, 0, 60, 0
2, 615502, Note_on_c, 0, 61, 0
2, 615510, Note_on_c, 0, 77, 0
2, 615524, Note_on_c, 0, 58, 0
2, 615588, Note_on_c, 0, 84, 0
2, 615606, Note_on_c, 0, 81, 0
2, 615912, Note_on_c, 0, 84, 66
2, 615916, Note_on_c, 0, 61, 53
2, 615918, Note_on_c, 0, 65, 60
2, 615920, Note_on_c, 0, 60, 51
2, 615932, Note_on_c, 0, 81, 58
2, 615940, Note_on_c, 0, 72, 52
2, 615944, Control_c, 0, 64, 0
2, 615948, Note_on_c, 0, 77, 54
2, 615950, Note_on_c, 0, 55, 57
2, 616346, Control_c, 0, 64, 127
2, 617120, Note_on_c, 0, 72, 0
2, 617170, Note_on_c, 0, 77, 0
2, 617196, Note_on_c, 0, 65, 0
2, 617240, Note_on_c, 0, 81, 0
2, 617254, Note_on_c, 0, 55, 0
2, 617266, Note_on_c, 0, 60, 0
2, 617272, Note_on_c, 0, 84, 0
2, 617368, Note_on_c, 0, 61, 0
2, 618266, Note_on_c, 0, 88, 40
2, 618268, Note_on_c, 0, 76, 34
2, 618274, Control_c, 0, 64, 0
2, 618278, Note_on_c, 0, 54, 42
2, 618294, Note_on_c, 0, 83, 43
2, 618298, Note_on_c, 0, 80, 32
2, 618300, Note_on_c, 0, 64, 33
2, 618330, Note_on_c, 0, 60, 32
2, 619116, Note_on_c, 0, 64, 0
2, 619172, Note_on_c, 0, 60, 0
2, 619182, Note_on_c, 0, 88, 0
2, 619204, Note_on_c, 0, 76, 0
2, 619250, Note_on_c, 0, 54, 0
2, 619342, Note_on_c, 0, 80, 0
2, 619362, Note_on_c, 0, 83, 0
2, 620112, Note_on_c, 0, 64, 29
2, 620114, Note_on_c, 0, 54, 30
2, 620116, Note_on_c, 0, 74, 40
2, 620118, Note_on_c, 0, 86, 47
2, 620122, Note_on_c, 0, 80, 32
2, 620136, Note_on_c, 0, 83, 41
2, 620166, Note_on_c, 0, 60, 32
2, 620368, Control_c, 0, 64, 127
2, 620990, Note_on_c, 0, 86, 0
2, 621002, Note_on_c, 0, 83, 0
2, 621012, Note_on_c, 0, 64, 0
2, 621032, Note_on_c, 0, 60, 0
2, 621048, Note_on_c, 0, 80, 0
2, 621108, Note_on_c, 0, 74, 0
2, 621138, Note_on_c, 0, 54, 0
2, 622030, Control_c, 0, 64, 0
2, 622072, Note_on_c, 0, 81, 29
2, 622096, Note_on_c, 0, 77, 36
2, 622104, Note_on_c, 0, 62, 26
2, 622114, Note_on_c, 0, 58, 34
2, 622116, Note_on_c, 0, 74, 37
2, 622170, Note_on_c, 0, 53, 18
2, 622358, Note_on_c, 0, 74, 0
2, 622370, Note_on_c, 0, 62, 0
2, 622400, Note_on_c, 0, 77, 0
2, 622404, Note_on_c, 0, 53, 0
2, 622422, Note_on_c, 0, 58, 0
2, 622426, Note_on_c, 0, 81, 0
2, 623044, Note_on_c, 0, 81, 30
2, 623074, Note_on_c, 0, 62, 29
2, 623080, Note_on_c, 0, 58, 32
2, 623086, Note_on_c, 0, 69, 20
2, 623090, Note_on_c, 0, 77, 33
2, 623094, Note_on_c, 0, 74, 36
2, 623140, Note_on_c, 0, 53, 20
2, 623164, Note_on_c, 0, 57, 29
2, 623320, Note_on_c, 0, 57, 0
2, 623334, Note_on_c, 0, 62, 0
2, 623342, Note_on_c, 0, 69, 0
2, 623350, Note_on_c, 0, 53, 0
2, 623358, Note_on_c, 0, 74, 0
2, 623380, Note_on_c, 0, 77, 0
2, 623392, Note_on_c, 0, 58, 0
2, 623396, Note_on_c, 0, 81, 0
2, 624026, Note_on_c, 0, 81, 36
2, 624044, Note_on_c, 0, 58, 27
2, 624052, Note_on_c, 0, 62, 26
2, 624058, Note_on_c, 0, 74, 36
2, 624062, Note_on_c, 0, 69, 25
2, 624074, Note_on_c, 0, 77, 35
2, 624084, Control_c, 0, 64, 127
2, 624094, Note_on_c, 0, 57, 26
2, 624114, Note_on_c, 0, 53, 20
2, 624288, Note_on_c, 0, 62, 0
2, 624322, Note_on_c, 0, 53, 0
2, 624324, Note_on_c, 0, 57, 0
2, 624346, Note_on_c, 0, 58, 0
2, 624364, Note_on_c, 0, 74, 0
2, 624376, Note_on_c, 0, 69, 0
2, 624398, Note_on_c, 0, 77, 0
2, 624400, Note_on_c, 0, 81, 0
2, 624582, Note_on_c, 0, 81, 38
2, 624584, Note_on_c, 0, 69, 46
2, 624606, Note_on_c, 0, 74, 49
2, 624606, Note_on_c, 0, 77, 44
2, 624622, Control_c, 0, 64, 0
2, 624624, Note_on_c, 0, 62, 35
2, 624646, Note_on_c, 0, 58, 38
2, 624666, Note_on_c, 0, 57, 24
2, 624684, Note_on_c, 0, 53, 18
2, 624718, Note_on_c, 0, 74, 0
2, 624732, Note_on_c, 0, 77, 0
2, 624738, Note_on_c, 0, 69, 0
2, 624752, Note_on_c, 0, 62, 0
2, 624754, Note_on_c, 0, 81, 0
2, 624772, Note_on_c, 0, 57, 0
2, 624796, Note_on_c, 0, 53, 0
2, 624804, Note_on_c, 0, 58, 0
2, 625546, Note_on_c, 0, 79, 60
2, 625550, Note_on_c, 0, 74, 66
2, 625562, Note_on_c, 0, 67, 66
2, 625564, Note_on_c, 0, 62, 60
2, 625566, Note_on_c, 0, 58, 48
2, 625568, Note_on_c, 0, 57, 44
2, 625626, Note_on_c, 0, 52, 32
2, 625694, Note_on_c, 0, 67, 0
2, 625724, Note_on_c, 0, 62, 0
2, 625732, Note_on_c, 0, 74, 0
2, 625734, Note_on_c, 0, 52, 0
2, 625742, Note_on_c, 0, 79, 0
2, 625750, Note_on_c, 0, 57, 0
2, 625768, Note_on_c, 0, 58, 0
2, 626292, Control_c, 0, 64, 127
2, 626332, Control_c, 0, 64, 0
2, 626474, Note_on_c, 0, 77, 61
2, 626494, Note_on_c, 0, 65, 59
2, 626498, Note_on_c, 0, 72, 57
2, 626512, Note_on_c, 0, 58, 52
2, 626514, Note_on_c, 0, 57, 37
2, 626524, Note_on_c, 0, 62, 43
2, 626592, Note_on_c, 0, 65, 0
2, 626646, Note_on_c, 0, 62, 0
2, 626660, Note_on_c, 0, 72, 0
2, 626686, Note_on_c, 0, 57, 0
2, 626690, Note_on_c, 0, 77, 0
2, 626756, Note_on_c, 0, 58, 0
2, 627438, Note_on_c, 0, 79, 72
2, 627442, Note_on_c, 0, 58, 56
2, 627448, Note_on_c, 0, 73, 69
2, 627450, Note_on_c, 0, 64, 66
2, 627454, Note_on_c, 0, 61, 55
2, 627456, Note_on_c, 0, 55, 59
2, 627458, Note_on_c, 0, 67, 82
2, 627480, Control_c, 0, 64, 127
2, 627486, Note_on_c, 0, 77, 51
2, 627560, Note_on_c, 0, 77, 0
2, 627662, Note_on_c, 0, 64, 0
2, 627688, Note_on_c, 0, 79, 0
2, 627704, Note_on_c, 0, 55, 0
2, 627726, Note_on_c, 0, 67, 0
2, 627782, Note_on_c, 0, 73, 0
2, 627794, Note_on_c, 0, 58, 0
2, 627796, Note_on_c, 0, 61, 0
2, 627800, Control_c, 0, 64, 0
2, 627932, Note_on_c, 0, 77, 59
2, 627936, Note_on_c, 0, 73, 57
2, 627958, Note_on_c, 0, 61, 50
2, 627960, Note_on_c, 0, 58, 48
2, 627964, Note_on_c, 0, 65, 57
2, 627970, Note_on_c, 0, 55, 57
2, 627972, Note_on_c, 0, 64, 60
2, 628182, Control_c, 0, 64, 127
2, 628208, Note_on_c, 0, 64, 0
2, 628288, Note_on_c, 0, 77, 0
2, 628316, Note_on_c, 0, 61, 0
2, 628318, Note_on_c, 0, 73, 0
2, 628352, Note_on_c, 0, 58, 0
2, 628404, Note_on_c, 0, 55, 0
2, 628488, Note_on_c, 0, 65, 0
2, 628914, Note_on_c, 0, 58, 36
2, 629002, Note_on_c, 0, 58, 0
2, 629370, Note_on_c, 0, 76, 56
2, 629710, Note_on_c, 0, 76, 0
2, 629766, Control_c, 0, 64, 0
2, 629866, Note_on_c, 0, 74, 54
2, 629884, Note_on_c, 0, 50, 44
2, 629896, Note_on_c, 0, 65, 29
2, 630106, Control_c, 0, 64, 127
2, 630128, Note_on_c, 0, 65, 0
2, 630264, Note_on_c, 0, 74, 0
2, 630358, Note_on_c, 0, 57, 41
2, 630796, Note_on_c, 0, 62, 43
2, 631338, Note_on_c, 0, 64, 62
2, 633066, Note_on_c, 0, 50, 0
2, 633260, Note_on_c, 0, 62, 0
2, 633468, Note_on_c, 0, 57, 0
2, 633574, Note_on_c, 0, 50, 30
2, 633596, Control_c, 0, 64, 0
2, 633976, Control_c, 0, 64, 127
2, 633996, Note_on_c, 0, 64, 0
2, 634110, Note_on_c, 0, 57, 37
2, 634544, Note_on_c, 0, 62, 52
2, 634600, Note_on_c, 0, 64, 28
2, 634698, Note_on_c, 0, 64, 0
2, 634766, Note_on_c, 0, 62, 0
2, 635088, Note_on_c, 0, 65, 51
2, 635094, Note_on_c, 0, 76, 50
2, 635112, Note_on_c, 0, 61, 58
2, 635164, Note_on_c, 0, 69, 44
2, 635180, Control_c, 0, 64, 0
2, 635560, Control_c, 0, 64, 127
2, 636628, Note_on_c, 0, 57, 0
2, 636688, Note_on_c, 0, 61, 0
2, 637004, Note_on_c, 0, 50, 0
2, 637382, Note_on_c, 0, 69, 0
2, 637434, Note_on_c, 0, 76, 0
2, 637454, Note_on_c, 0, 50, 34
2, 637506, Control_c, 0, 64, 0
2, 637640, Note_on_c, 0, 65, 0
2, 638020, Note_on_c, 0, 57, 29
2, 638388, Control_c, 0, 64, 127
2, 638460, Note_on_c, 0, 62, 35
2, 639024, Note_on_c, 0, 65, 36
2, 639028, Note_on_c, 0, 64, 39
2, 639070, Control_c, 0, 64, 0
2, 639650, Control_c, 0, 64, 127
2, 640012, Control_c, 0, 64, 0
2, 640332, Control_c, 0, 64, 127
2, 640638, Note_on_c, 0, 50, 0
2, 640690, Note_on_c, 0, 62, 0
2, 641230, Note_on_c, 0, 57, 0
2, 641256, Note_on_c, 0, 64, 0
2, 641256, Control_c, 0, 64, 0
2, 641268, Note_on_c, 0, 65, 0
2, 641318, Note_on_c, 0, 50, 30
2, 641536, Control_c, 0, 64, 127
2, 641870, Note_on_c, 0, 57, 29
2, 642862, Note_on_c, 0, 76, 44
2, 642886, Note_on_c, 0, 65, 33
2, 642900, Note_on_c, 0, 61, 26
2, 642920, Control_c, 0, 64, 0
2, 642922, Note_on_c, 0, 69, 32
2, 643380, Control_c, 0, 64, 127
2, 643654, Note_on_c, 0, 61, 0
2, 643694, Note_on_c, 0, 57, 0
2, 643804, Note_on_c, 0, 50, 0
2, 644296, Note_on_c, 0, 76, 0
2, 644304, Note_on_c, 0, 74, 36
2, 644430, Note_on_c, 0, 65, 0
2, 644436, Note_on_c, 0, 69, 0
2, 644786, Note_on_c, 0, 74, 0
2, 645240, Note_on_c, 0, 76, 31
2, 645322, Note_on_c, 0, 65, 17
2, 645326, Note_on_c, 0, 26, 30
2, 645328, Note_on_c, 0, 38, 25
2, 645340, Note_on_c, 0, 69, 29
2, 645370, Control_c, 0, 64, 0
2, 646152, Control_c, 0, 64, 127
2, 650234, Note_on_c, 0, 65, 0
2, 650346, Note_on_c, 0, 69, 0
2, 650402, Note_on_c, 0, 76, 0
2, 651788, Control_c, 0, 64, 0
2, 653508, Note_on_c, 0, 26, 0
2, 653618, Note_on_c, 0, 38, 0
2, 653618, End_track
3, 0, Start_track
3, 0, Title_t, "Drums"
3, 0, Program_c, 9, 32
3, 0, Note_on_c, 9, 38, 25
3, 0, Note_on_c, 9, 38, 0
3, 42, Note_on_c, 9, 59, 71
3, 351, Note_on_c, 9, 59, 0
3, 972, Note_on_c, 9, 59, 57
3, 1122, Note_on_c, 9, 59, 0
3, 1425, Note_on_c, 9, 59, 44
3, 1505, Note_on_c, 9, 59, 0
3, 1904, Note_on_c, 9, 59, 80
3, 2309, Note_on_c, 9, 59, 0
3, 2843, Note_on_c, 9, 59, 44
3, 2943, Note_on_c, 9, 59, 0
3, 3302, Note_on_c, 9, 59, 80
3, 3440, Note_on_c, 9, 38, 21
3, 3476, Note_on_c, 9, 59, 0
3, 3517, Note_on_c, 9, 38, 0
3, 3814, Note_on_c, 9, 59, 64
3, 3942, Note_on_c, 9, 59, 0
3, 4834, Note_on_c, 9, 59, 44
3, 4986, Note_on_c, 9, 59, 0
3, 5331, Note_on_c, 9, 59, 75
3, 5698, Note_on_c, 9, 59, 0
3, 6205, Note_on_c, 9, 59, 54
3, 6447, Note_on_c, 9, 59, 0
3, 6691, Note_on_c, 9, 59, 29
3, 6892, Note_on_c, 9, 59, 0
3, 7143, Note_on_c, 9, 59, 57
3, 7251, Note_on_c, 9, 38, 16
3, 7332, Note_on_c, 9, 59, 0
3, 7342, Note_on_c, 9, 38, 0
3, 7603, Note_on_c, 9, 59, 79
3, 7768, Note_on_c, 9, 36, 20
3, 7988, Note_on_c, 9, 36, 0
3, 8292, Note_on_c, 9, 59, 0
3, 8574, Note_on_c, 9, 59, 45
3, 8711, Note_on_c, 9, 59, 0
3, 9103, Note_on_c, 9, 59, 82
3, 9858, Note_on_c, 9, 59, 0
3, 10057, Note_on_c, 9, 59, 39
3, 10250, Note_on_c, 9, 59, 0
3, 10553, Note_on_c, 9, 59, 80
3, 11294, Note_on_c, 9, 59, 0
3, 11592, Note_on_c, 9, 59, 42
3, 11607, Note_on_c, 9, 38, 26
3, 11684, Note_on_c, 9, 38, 0
3, 11702, Note_on_c, 9, 59, 0
3, 11834, Note_on_c, 9, 38, 25
3, 11923, Note_on_c, 9, 38, 0
3, 12046, Note_on_c, 9, 38, 23
3, 12058, Note_on_c, 9, 59, 69
3, 12156, Note_on_c, 9, 38, 0
3, 12302, Note_on_c, 9, 59, 0
3, 13005, Note_on_c, 9, 59, 64
3, 13129, Note_on_c, 9, 59, 0
3, 13482, Note_on_c, 9, 59, 75
3, 13529, Note_on_c, 9, 36, 30
3, 13791, Note_on_c, 9, 36, 0
3, 14087, Note_on_c, 9, 59, 0
3, 14885, Note_on_c, 9, 59, 74
3, 15169, Note_on_c, 9, 59, 0
3, 15344, Note_on_c, 9, 59, 77
3, 15969, Note_on_c, 9, 59, 0
3, 16294, Note_on_c, 9, 59, 42
3, 16430, Note_on_c, 9, 59, 0
3, 16780, Note_on_c, 9, 59, 64
3, 16820, Note_on_c, 9, 40, 27
3, 16901, Note_on_c, 9, 40, 0
3, 16961, Note_on_c, 9, 59, 0
3, 17277, Note_on_c, 9, 59, 78
3, 17880, Note_on_c, 9, 59, 0
3, 17935, Note_on_c, 9, 40, 14
3, 18061, Note_on_c, 9, 40, 0
3, 18278, Note_on_c, 9, 59, 57
3, 18428, Note_on_c, 9, 59, 0
3, 18735, Note_on_c, 9, 53, 69
3, 18829, Note_on_c, 9, 40, 27
3, 18908, Note_on_c, 9, 40, 0
3, 19074, Note_on_c, 9, 53, 0
3, 19226, Note_on_c, 9, 59, 57
3, 19569, Note_on_c, 9, 59, 0
3, 19723, Note_on_c, 9, 59, 60
3, 19949, Note_on_c, 9, 59, 0
3, 20171, Note_on_c, 9, 59, 65
3, 20218, Note_on_c, 9, 36, 18
3, 20384, Note_on_c, 9, 36, 0
3, 20830, Note_on_c, 9, 59, 0
3, 21136, Note_on_c, 9, 59, 54
3, 21730, Note_on_c, 9, 59, 0
3, 22057, Note_on_c, 9, 59, 51
3, 22205, Note_on_c, 9, 59, 0
3, 22525, Note_on_c, 9, 59, 55
3, 22788, Note_on_c, 9, 59, 0
3, 23005, Note_on_c, 9, 59, 79
3, 23670, Note_on_c, 9, 59, 0
3, 24033, Note_on_c, 9, 59, 41
3, 24132, Note_on_c, 9, 59, 0
3, 24485, Note_on_c, 9, 59, 59
3, 24669, Note_on_c, 9, 59, 0
3, 25005, Note_on_c, 9, 59, 59
3, 25213, Note_on_c, 9, 59, 0
3, 25473, Note_on_c, 9, 51, 58
3, 25796, Note_on_c, 9, 51, 0
3, 25921, Note_on_c, 9, 59, 52
3, 25930, Note_on_c, 9, 37, 84
3, 26132, Note_on_c, 9, 59, 0
3, 26165, Note_on_c, 9, 37, 0
3, 26430, Note_on_c, 9, 59, 73
3, 26716, Note_on_c, 9, 59, 0
3, 26907, Note_on_c, 9, 59, 67
3, 27648, Note_on_c, 9, 59, 0
3, 27859, Note_on_c, 9, 59, 37
3, 28016, Note_on_c, 9, 59, 0
3, 28356, Note_on_c, 9, 59, 75
3, 28571, Note_on_c, 9, 59, 0
3, 28779, Note_on_c, 9, 59, 68
3, 29463, Note_on_c, 9, 59, 0
3, 29763, Note_on_c, 9, 59, 44
3, 29940, Note_on_c, 9, 59, 0
3, 30267, Note_on_c, 9, 59, 70
3, 30502, Note_on_c, 9, 59, 0
3, 30719, Note_on_c, 9, 59, 64
3, 31084, Note_on_c, 9, 59, 0
3, 31214, Note_on_c, 9, 53, 46
3, 31479, Note_on_c, 9, 53, 0
3, 31768, Note_on_c, 9, 59, 33
3, 31866, Note_on_c, 9, 59, 0
3, 32229, Note_on_c, 9, 59, 73
3, 32561, Note_on_c, 9, 59, 0
3, 32681, Note_on_c, 9, 38, 21
3, 32758, Note_on_c, 9, 59, 47
3, 32789, Note_on_c, 9, 38, 0
3, 32885, Note_on_c, 9, 59, 0
3, 33197, Note_on_c, 9, 36, 25
3, 33436, Note_on_c, 9, 36, 0
3, 34075, Note_on_c, 9, 59, 51
3, 34250, Note_on_c, 9, 59, 0
3, 34500, Note_on_c, 9, 59, 73
3, 35237, Note_on_c, 9, 59, 0
3, 35468, Note_on_c, 9, 59, 36
3, 35681, Note_on_c, 9, 59, 0
3, 36001, Note_on_c, 9, 59, 82
3, 36266, Note_on_c, 9, 59, 0
3, 36434, Note_on_c, 9, 59, 73
3, 36984, Note_on_c, 9, 59, 0
3, 37072, Note_on_c, 9, 45, 87
3, 37397, Note_on_c, 9, 59, 45
3, 37569, Note_on_c, 9, 59, 0
3, 37858, Note_on_c, 9, 45, 0
3, 37921, Note_on_c, 9, 59, 88
3, 38033, Note_on_c, 9, 36, 24
3, 38188, Note_on_c, 9, 36, 0
3, 38566, Note_on_c, 9, 43, 51
3, 38682, Note_on_c, 9, 59, 0
3, 38698, Note_on_c, 9, 43, 0
3, 38866, Note_on_c, 9, 59, 49
3, 39036, Note_on_c, 9, 59, 0
3, 39384, Note_on_c, 9, 59, 71
3, 39737, Note_on_c, 9, 59, 0
3, 39890, Note_on_c, 9, 59, 76
3, 39986, Note_on_c, 9, 38, 24
3, 40062, Note_on_c, 9, 38, 0
3, 40145, Note_on_c, 9, 59, 0
3, 40311, Note_on_c, 9, 59, 76
3, 40945, Note_on_c, 9, 59, 0
3, 41796, Note_on_c, 9, 59, 84
3, 41816, Note_on_c, 9, 38, 20
3, 41917, Note_on_c, 9, 38, 0
3, 42233, Note_on_c, 9, 59, 0
3, 42316, Note_on_c, 9, 59, 34
3, 42591, Note_on_c, 9, 59, 0
3, 42723, Note_on_c, 9, 38, 23
3, 42894, Note_on_c, 9, 38, 0
3, 43207, Note_on_c, 9, 59, 80
3, 43557, Note_on_c, 9, 59, 0
3, 43707, Note_on_c, 9, 59, 78
3, 43725, Note_on_c, 9, 38, 24
3, 43810, Note_on_c, 9, 38, 0
3, 44518, Note_on_c, 9, 59, 0
3, 44670, Note_on_c, 9, 59, 70
3, 44690, Note_on_c, 9, 38, 20
3, 44867, Note_on_c, 9, 59, 0
3, 45013, Note_on_c, 9, 38, 0
3, 45167, Note_on_c, 9, 59, 65
3, 45452, Note_on_c, 9, 59, 0
3, 45600, Note_on_c, 9, 53, 73
3, 45653, Note_on_c, 9, 38, 35
3, 45736, Note_on_c, 9, 38, 0
3, 45996, Note_on_c, 9, 53, 0
3, 46092, Note_on_c, 9, 59, 52
3, 46124, Note_on_c, 9, 57, 53
3, 46137, Note_on_c, 9, 36, 38
3, 46319, Note_on_c, 9, 59, 0
3, 46386, Note_on_c, 9, 57, 0
3, 46547, Note_on_c, 9, 59, 53
3, 46800, Note_on_c, 9, 59, 0
3, 47045, Note_on_c, 9, 59, 65
3, 47441, Note_on_c, 9, 59, 0
3, 47564, Note_on_c, 9, 59, 36
3, 47671, Note_on_c, 9, 59, 0
3, 48001, Note_on_c, 9, 59, 85
3, 48384, Note_on_c, 9, 36, 0
3, 48606, Note_on_c, 9, 59, 0
3, 48940, Note_on_c, 9, 59, 43
3, 49159, Note_on_c, 9, 59, 0
3, 49511, Note_on_c, 9, 59, 83
3, 50250, Note_on_c, 9, 59, 0
3, 50445, Note_on_c, 9, 38, 25
3, 50447, Note_on_c, 9, 53, 37
3, 50467, Note_on_c, 9, 51, 25
3, 50539, Note_on_c, 9, 38, 0
3, 50720, Note_on_c, 9, 53, 0
3, 50863, Note_on_c, 9, 51, 0
3, 50926, Note_on_c, 9, 36, 15
3, 51061, Note_on_c, 9, 36, 0
3, 51343, Note_on_c, 9, 59, 54
3, 51379, Note_on_c, 9, 36, 17
3, 51542, Note_on_c, 9, 36, 0
3, 51560, Note_on_c, 9, 59, 0
3, 51899, Note_on_c, 9, 36, 14
3, 51925, Note_on_c, 9, 51, 53
3, 51963, Note_on_c, 9, 53, 52
3, 52100, Note_on_c, 9, 36, 0
3, 52483, Note_on_c, 9, 51, 0
3, 52496, Note_on_c, 9, 53, 0
3, 52823, Note_on_c, 9, 59, 51
3, 52998, Note_on_c, 9, 59, 0
3, 54309, Note_on_c, 9, 59, 67
3, 54510, Note_on_c, 9, 59, 0
3, 54786, Note_on_c, 9, 59, 39
3, 54808, Note_on_c, 9, 40, 17
3, 54954, Note_on_c, 9, 40, 0
3, 54958, Note_on_c, 9, 59, 0
3, 55236, Note_on_c, 9, 51, 36
3, 55252, Note_on_c, 9, 53, 39
3, 55480, Note_on_c, 9, 51, 0
3, 55483, Note_on_c, 9, 53, 0
3, 55740, Note_on_c, 9, 59, 61
3, 55944, Note_on_c, 9, 59, 0
3, 56222, Note_on_c, 9, 59, 63
3, 56239, Note_on_c, 9, 40, 20
3, 56327, Note_on_c, 9, 40, 0
3, 56432, Note_on_c, 9, 59, 0
3, 56668, Note_on_c, 9, 59, 81
3, 57239, Note_on_c, 9, 59, 0
3, 57608, Note_on_c, 9, 59, 72
3, 58202, Note_on_c, 9, 40, 26
3, 58251, Note_on_c, 9, 59, 0
3, 58278, Note_on_c, 9, 40, 0
3, 58520, Note_on_c, 9, 59, 37
3, 58614, Note_on_c, 9, 59, 0
3, 59037, Note_on_c, 9, 59, 81
3, 59161, Note_on_c, 9, 40, 28
3, 59295, Note_on_c, 9, 40, 0
3, 59781, Note_on_c, 9, 59, 0
3, 59972, Note_on_c, 9, 59, 49
3, 60093, Note_on_c, 9, 40, 33
3, 60164, Note_on_c, 9, 59, 0
3, 60310, Note_on_c, 9, 40, 0
3, 60529, Note_on_c, 9, 59, 45
3, 60612, Note_on_c, 9, 59, 0
3, 60975, Note_on_c, 9, 59, 77
3, 61008, Note_on_c, 9, 40, 26
3, 61105, Note_on_c, 9, 40, 0
3, 61132, Note_on_c, 9, 59, 0
3, 61463, Note_on_c, 9, 59, 95
3, 61517, Note_on_c, 9, 57, 71
3, 61521, Note_on_c, 9, 36, 40
3, 61696, Note_on_c, 9, 57, 0
3, 61848, Note_on_c, 9, 36, 0
3, 61999, Note_on_c, 9, 59, 0
3, 62413, Note_on_c, 9, 59, 51
3, 62583, Note_on_c, 9, 59, 0
3, 62940, Note_on_c, 9, 59, 82
3, 63233, Note_on_c, 9, 59, 0
3, 63405, Note_on_c, 9, 59, 74
3, 63894, Note_on_c, 9, 59, 0
3, 63903, Note_on_c, 9, 40, 15
3, 64001, Note_on_c, 9, 40, 0
3, 64250, Note_on_c, 9, 59, 37
3, 64346, Note_on_c, 9, 59, 0
3, 64812, Note_on_c, 9, 59, 87
3, 65231, Note_on_c, 9, 36, 22
3, 65417, Note_on_c, 9, 36, 0
3, 65641, Note_on_c, 9, 59, 0
3, 65771, Note_on_c, 9, 59, 36
3, 65896, Note_on_c, 9, 59, 0
3, 66716, Note_on_c, 9, 59, 71
3, 67007, Note_on_c, 9, 59, 0
3, 67231, Note_on_c, 9, 59, 66
3, 67473, Note_on_c, 9, 59, 0
3, 67711, Note_on_c, 9, 59, 65
3, 67938, Note_on_c, 9, 59, 0
3, 68150, Note_on_c, 9, 38, 22
3, 68168, Note_on_c, 9, 59, 81
3, 68226, Note_on_c, 9, 38, 0
3, 68412, Note_on_c, 9, 38, 20
3, 68503, Note_on_c, 9, 38, 0
3, 68568, Note_on_c, 9, 38, 20
3, 68647, Note_on_c, 9, 38, 0
3, 68759, Note_on_c, 9, 59, 0
3, 69122, Note_on_c, 9, 59, 46
3, 69229, Note_on_c, 9, 59, 0
3, 69671, Note_on_c, 9, 59, 74
3, 69745, Note_on_c, 9, 38, 31
3, 69821, Note_on_c, 9, 38, 0
3, 69899, Note_on_c, 9, 59, 0
3, 70146, Note_on_c, 9, 59, 69
3, 70448, Note_on_c, 9, 59, 0
3, 70600, Note_on_c, 9, 59, 73
3, 70629, Note_on_c, 9, 38, 30
3, 70712, Note_on_c, 9, 38, 0
3, 70775, Note_on_c, 9, 59, 0
3, 71073, Note_on_c, 9, 59, 90
3, 71077, Note_on_c, 9, 38, 24
3, 71174, Note_on_c, 9, 38, 0
3, 71550, Note_on_c, 9, 36, 19
3, 71678, Note_on_c, 9, 59, 0
3, 71702, Note_on_c, 9, 36, 0
3, 72009, Note_on_c, 9, 36, 21
3, 72029, Note_on_c, 9, 59, 54
3, 72108, Note_on_c, 9, 59, 0
3, 72143, Note_on_c, 9, 36, 0
3, 72522, Note_on_c, 9, 36, 34
3, 72524, Note_on_c, 9, 59, 85
3, 72793, Note_on_c, 9, 36, 0
3, 73051, Note_on_c, 9, 59, 0
3, 73541, Note_on_c, 9, 59, 44
3, 73647, Note_on_c, 9, 59, 0
3, 73989, Note_on_c, 9, 59, 66
3, 74330, Note_on_c, 9, 59, 0
3, 74446, Note_on_c, 9, 53, 44
3, 74691, Note_on_c, 9, 53, 0
3, 75387, Note_on_c, 9, 53, 60
3, 75786, Note_on_c, 9, 53, 0
3, 75891, Note_on_c, 9, 59, 54
3, 76106, Note_on_c, 9, 59, 0
3, 76355, Note_on_c, 9, 38, 27
3, 76359, Note_on_c, 9, 53, 67
3, 76429, Note_on_c, 9, 38, 0
3, 76709, Note_on_c, 9, 53, 0
3, 76886, Note_on_c, 9, 59, 47
3, 77090, Note_on_c, 9, 59, 0
3, 77307, Note_on_c, 9, 59, 49
3, 77500, Note_on_c, 9, 59, 0
3, 77809, Note_on_c, 9, 59, 80
3, 78384, Note_on_c, 9, 59, 0
3, 78718, Note_on_c, 9, 59, 35
3, 78821, Note_on_c, 9, 59, 0
3, 79238, Note_on_c, 9, 59, 74
3, 79701, Note_on_c, 9, 38, 23
3, 79775, Note_on_c, 9, 59, 0
3, 79777, Note_on_c, 9, 38, 0
3, 79939, Note_on_c, 9, 38, 27
3, 80015, Note_on_c, 9, 38, 0
3, 80257, Note_on_c, 9, 59, 43
3, 80344, Note_on_c, 9, 59, 0
3, 80710, Note_on_c, 9, 59, 82
3, 81233, Note_on_c, 9, 38, 31
3, 81310, Note_on_c, 9, 38, 0
3, 81332, Note_on_c, 9, 59, 0
3, 81603, Note_on_c, 9, 59, 46
3, 81796, Note_on_c, 9, 59, 0
3, 82114, Note_on_c, 9, 59, 82
3, 82553, Note_on_c, 9, 38, 30
3, 82654, Note_on_c, 9, 38, 0
3, 82672, Note_on_c, 9, 59, 0
3, 82867, Note_on_c, 9, 38, 31
3, 82943, Note_on_c, 9, 38, 0
3, 83019, Note_on_c, 9, 59, 54
3, 83133, Note_on_c, 9, 59, 0
3, 83512, Note_on_c, 9, 59, 43
3, 83713, Note_on_c, 9, 59, 0
3, 83895, Note_on_c, 9, 59, 62
3, 84067, Note_on_c, 9, 59, 0
3, 84085, Note_on_c, 9, 38, 31
3, 84161, Note_on_c, 9, 38, 0
3, 84367, Note_on_c, 9, 38, 27
3, 84450, Note_on_c, 9, 38, 0
3, 84459, Note_on_c, 9, 59, 80
3, 84829, Note_on_c, 9, 59, 0
3, 84990, Note_on_c, 9, 59, 40
3, 85102, Note_on_c, 9, 59, 0
3, 85440, Note_on_c, 9, 59, 48
3, 85597, Note_on_c, 9, 59, 0
3, 85649, Note_on_c, 9, 38, 24
3, 85725, Note_on_c, 9, 38, 0
3, 85837, Note_on_c, 9, 38, 20
3, 85929, Note_on_c, 9, 59, 90
3, 85933, Note_on_c, 9, 38, 0
3, 86614, Note_on_c, 9, 59, 0
3, 86883, Note_on_c, 9, 59, 47
3, 86972, Note_on_c, 9, 38, 31
3, 87033, Note_on_c, 9, 59, 0
3, 87046, Note_on_c, 9, 38, 0
3, 87391, Note_on_c, 9, 59, 48
3, 87445, Note_on_c, 9, 38, 21
3, 87541, Note_on_c, 9, 38, 0
3, 87566, Note_on_c, 9, 59, 0
3, 87848, Note_on_c, 9, 59, 47
3, 87996, Note_on_c, 9, 59, 0
3, 88767, Note_on_c, 9, 59, 60
3, 88948, Note_on_c, 9, 59, 0
3, 88975, Note_on_c, 9, 38, 30
3, 89056, Note_on_c, 9, 38, 0
3, 89264, Note_on_c, 9, 59, 55
3, 89472, Note_on_c, 9, 59, 0
3, 89752, Note_on_c, 9, 53, 53
3, 89880, Note_on_c, 9, 38, 36
3, 90025, Note_on_c, 9, 53, 0
3, 90057, Note_on_c, 9, 38, 0
3, 90267, Note_on_c, 9, 59, 42
3, 90507, Note_on_c, 9, 59, 0
3, 90769, Note_on_c, 9, 53, 56
3, 90789, Note_on_c, 9, 51, 38
3, 90803, Note_on_c, 9, 38, 46
3, 91022, Note_on_c, 9, 38, 0
3, 91078, Note_on_c, 9, 51, 0
3, 91112, Note_on_c, 9, 53, 0
3, 91217, Note_on_c, 9, 59, 36
3, 91410, Note_on_c, 9, 59, 0
3, 91690, Note_on_c, 9, 38, 35
3, 91728, Note_on_c, 9, 53, 61
3, 91764, Note_on_c, 9, 51, 35
3, 91798, Note_on_c, 9, 38, 0
3, 91835, Note_on_c, 9, 53, 0
3, 91916, Note_on_c, 9, 51, 0
3, 92185, Note_on_c, 9, 59, 37
3, 92225, Note_on_c, 9, 57, 60
3, 92241, Note_on_c, 9, 36, 42
3, 92427, Note_on_c, 9, 57, 0
3, 92490, Note_on_c, 9, 59, 0
3, 92694, Note_on_c, 9, 59, 49
3, 92906, Note_on_c, 9, 59, 0
3, 93119, Note_on_c, 9, 59, 51
3, 93486, Note_on_c, 9, 59, 0
3, 94087, Note_on_c, 9, 36, 0
3, 94129, Note_on_c, 9, 59, 83
3, 94483, Note_on_c, 9, 59, 0
3, 94651, Note_on_c, 9, 59, 47
3, 94738, Note_on_c, 9, 59, 0
3, 95603, Note_on_c, 9, 38, 17
3, 95610, Note_on_c, 9, 59, 79
3, 95693, Note_on_c, 9, 38, 0
3, 96278, Note_on_c, 9, 59, 0
3, 96566, Note_on_c, 9, 38, 23
3, 96580, Note_on_c, 9, 59, 69
3, 96663, Note_on_c, 9, 38, 0
3, 97178, Note_on_c, 9, 59, 0
3, 97509, Note_on_c, 9, 59, 64
3, 97570, Note_on_c, 9, 38, 17
3, 97659, Note_on_c, 9, 38, 0
3, 97724, Note_on_c, 9, 59, 0
3, 97996, Note_on_c, 9, 59, 49
3, 98383, Note_on_c, 9, 59, 0
3, 98437, Note_on_c, 9, 46, 44
3, 98694, Note_on_c, 9, 46, 0
3, 98950, Note_on_c, 9, 59, 44
3, 99107, Note_on_c, 9, 59, 0
3, 99455, Note_on_c, 9, 59, 71
3, 99718, Note_on_c, 9, 59, 0
3, 99935, Note_on_c, 9, 59, 76
3, 100585, Note_on_c, 9, 59, 0
3, 100811, Note_on_c, 9, 59, 38
3, 101022, Note_on_c, 9, 59, 0
3, 101333, Note_on_c, 9, 59, 81
3, 102104, Note_on_c, 9, 59, 0
3, 102265, Note_on_c, 9, 59, 39
3, 102305, Note_on_c, 9, 38, 14
3, 102355, Note_on_c, 9, 59, 0
3, 102384, Note_on_c, 9, 38, 0
3, 102661, Note_on_c, 9, 36, 10
3, 102778, Note_on_c, 9, 36, 0
3, 103179, Note_on_c, 9, 59, 55
3, 103206, Note_on_c, 9, 38, 17
3, 103291, Note_on_c, 9, 59, 0
3, 103295, Note_on_c, 9, 38, 0
3, 103645, Note_on_c, 9, 59, 77
3, 104263, Note_on_c, 9, 38, 17
3, 104368, Note_on_c, 9, 38, 0
3, 104402, Note_on_c, 9, 59, 0
3, 104624, Note_on_c, 9, 59, 32
3, 104747, Note_on_c, 9, 59, 0
3, 105126, Note_on_c, 9, 59, 58
3, 105235, Note_on_c, 9, 38, 17
3, 105280, Note_on_c, 9, 59, 0
3, 105336, Note_on_c, 9, 38, 0
3, 105616, Note_on_c, 9, 59, 78
3, 106290, Note_on_c, 9, 59, 0
3, 106295, Note_on_c, 9, 38, 20
3, 106395, Note_on_c, 9, 38, 0
3, 107128, Note_on_c, 9, 59, 57
3, 107166, Note_on_c, 9, 46, 44
3, 107285, Note_on_c, 9, 46, 0
3, 107435, Note_on_c, 9, 59, 0
3, 107601, Note_on_c, 9, 59, 69
3, 107941, Note_on_c, 9, 59, 0
3, 108270, Note_on_c, 9, 38, 16
3, 108356, Note_on_c, 9, 38, 0
3, 108526, Note_on_c, 9, 59, 45
3, 108665, Note_on_c, 9, 59, 0
3, 109034, Note_on_c, 9, 59, 70
3, 109166, Note_on_c, 9, 38, 27
3, 109233, Note_on_c, 9, 59, 0
3, 109242, Note_on_c, 9, 38, 0
3, 109505, Note_on_c, 9, 59, 74
3, 109650, Note_on_c, 9, 38, 26
3, 109726, Note_on_c, 9, 38, 0
3, 109879, Note_on_c, 9, 59, 0
3, 110047, Note_on_c, 9, 59, 32
3, 110127, Note_on_c, 9, 59, 0
3, 110136, Note_on_c, 9, 36, 16
3, 110230, Note_on_c, 9, 36, 0
3, 110443, Note_on_c, 9, 59, 29
3, 110524, Note_on_c, 9, 59, 0
3, 110963, Note_on_c, 9, 59, 78
3, 111868, Note_on_c, 9, 59, 0
3, 111980, Note_on_c, 9, 59, 34
3, 112092, Note_on_c, 9, 59, 0
3, 112905, Note_on_c, 9, 59, 64
3, 113091, Note_on_c, 9, 59, 0
3, 113384, Note_on_c, 9, 59, 61
3, 113962, Note_on_c, 9, 59, 0
3, 114744, Note_on_c, 9, 59, 71
3, 114968, Note_on_c, 9, 59, 0
3, 115264, Note_on_c, 9, 59, 83
3, 115694, Note_on_c, 9, 38, 12
3, 115734, Note_on_c, 9, 59, 0
3, 115768, Note_on_c, 9, 38, 0
3, 116088, Note_on_c, 9, 38, 21
3, 116182, Note_on_c, 9, 38, 0
3, 116269, Note_on_c, 9, 59, 26
3, 116357, Note_on_c, 9, 59, 0
3, 116612, Note_on_c, 9, 36, 28
3, 116702, Note_on_c, 9, 59, 76
3, 116715, Note_on_c, 9, 36, 0
3, 116731, Note_on_c, 9, 57, 75
3, 117045, Note_on_c, 9, 57, 0
3, 117085, Note_on_c, 9, 38, 26
3, 117344, Note_on_c, 9, 38, 0
3, 117378, Note_on_c, 9, 59, 0
3, 117553, Note_on_c, 9, 38, 20
3, 117640, Note_on_c, 9, 38, 0
3, 117683, Note_on_c, 9, 59, 49
3, 118064, Note_on_c, 9, 59, 0
3, 118532, Note_on_c, 9, 38, 23
3, 118666, Note_on_c, 9, 59, 68
3, 118689, Note_on_c, 9, 38, 0
3, 118917, Note_on_c, 9, 59, 0
3, 119134, Note_on_c, 9, 59, 55
3, 119441, Note_on_c, 9, 38, 27
3, 119502, Note_on_c, 9, 59, 0
3, 119674, Note_on_c, 9, 38, 0
3, 120033, Note_on_c, 9, 59, 47
3, 120279, Note_on_c, 9, 59, 0
3, 120433, Note_on_c, 9, 38, 30
3, 120543, Note_on_c, 9, 59, 69
3, 120577, Note_on_c, 9, 38, 0
3, 120924, Note_on_c, 9, 38, 20
3, 121072, Note_on_c, 9, 59, 0
3, 121504, Note_on_c, 9, 59, 60
3, 121744, Note_on_c, 9, 59, 0
3, 121813, Note_on_c, 9, 38, 0
3, 121997, Note_on_c, 9, 59, 42
3, 122205, Note_on_c, 9, 59, 0
3, 122418, Note_on_c, 9, 36, 24
3, 122508, Note_on_c, 9, 59, 62
3, 122528, Note_on_c, 9, 36, 0
3, 122696, Note_on_c, 9, 59, 0
3, 122925, Note_on_c, 9, 38, 34
3, 122936, Note_on_c, 9, 59, 68
3, 123180, Note_on_c, 9, 38, 0
3, 123420, Note_on_c, 9, 59, 0
3, 123807, Note_on_c, 9, 59, 45
3, 123953, Note_on_c, 9, 59, 0
3, 124277, Note_on_c, 9, 59, 62
3, 124430, Note_on_c, 9, 59, 0
3, 125290, Note_on_c, 9, 59, 70
3, 125436, Note_on_c, 9, 59, 0
3, 126233, Note_on_c, 9, 59, 46
3, 126323, Note_on_c, 9, 59, 0
3, 126699, Note_on_c, 9, 59, 61
3, 127183, Note_on_c, 9, 59, 0
3, 128166, Note_on_c, 9, 59, 69
3, 128883, Note_on_c, 9, 59, 0
3, 129125, Note_on_c, 9, 59, 40
3, 129264, Note_on_c, 9, 59, 0
3, 129607, Note_on_c, 9, 59, 51
3, 129803, Note_on_c, 9, 59, 0
3, 130095, Note_on_c, 9, 38, 33
3, 130270, Note_on_c, 9, 38, 0
3, 130592, Note_on_c, 9, 59, 37
3, 130715, Note_on_c, 9, 59, 0
3, 131038, Note_on_c, 9, 59, 30
3, 131246, Note_on_c, 9, 59, 0
3, 131508, Note_on_c, 9, 59, 32
3, 131667, Note_on_c, 9, 59, 0
3, 131992, Note_on_c, 9, 59, 47
3, 132095, Note_on_c, 9, 59, 0
3, 132478, Note_on_c, 9, 59, 62
3, 132604, Note_on_c, 9, 59, 0
3, 132989, Note_on_c, 9, 59, 66
3, 133065, Note_on_c, 9, 59, 0
3, 133968, Note_on_c, 9, 59, 84
3, 134749, Note_on_c, 9, 59, 0
3, 134944, Note_on_c, 9, 59, 49
3, 135063, Note_on_c, 9, 59, 0
3, 135406, Note_on_c, 9, 59, 48
3, 135618, Note_on_c, 9, 59, 0
3, 135892, Note_on_c, 9, 38, 38
3, 136066, Note_on_c, 9, 38, 0
3, 136400, Note_on_c, 9, 59, 47
3, 136512, Note_on_c, 9, 59, 0
3, 136956, Note_on_c, 9, 38, 40
3, 137119, Note_on_c, 9, 38, 0
3, 137408, Note_on_c, 9, 59, 54
3, 137605, Note_on_c, 9, 59, 0
3, 137895, Note_on_c, 9, 38, 45
3, 138107, Note_on_c, 9, 38, 0
3, 138372, Note_on_c, 9, 36, 44
3, 138416, Note_on_c, 9, 59, 60
3, 138506, Note_on_c, 9, 59, 0
3, 138535, Note_on_c, 9, 36, 0
3, 139326, Note_on_c, 9, 59, 49
3, 139433, Note_on_c, 9, 59, 0
3, 139848, Note_on_c, 9, 59, 46
3, 139940, Note_on_c, 9, 59, 0
3, 140730, Note_on_c, 9, 59, 47
3, 140838, Note_on_c, 9, 59, 0
3, 141221, Note_on_c, 9, 59, 39
3, 141335, Note_on_c, 9, 59, 0
3, 141651, Note_on_c, 9, 38, 34
3, 141783, Note_on_c, 9, 38, 0
3, 142135, Note_on_c, 9, 57, 58
3, 142173, Note_on_c, 9, 36, 29
3, 142175, Note_on_c, 9, 38, 32
3, 142269, Note_on_c, 9, 36, 0
3, 142273, Note_on_c, 9, 57, 0
3, 142314, Note_on_c, 9, 38, 0
3, 143667, Note_on_c, 9, 59, 43
3, 143756, Note_on_c, 9, 59, 0
3, 144130, Note_on_c, 9, 59, 36
3, 144359, Note_on_c, 9, 59, 0
3, 145486, Note_on_c, 9, 59, 34
3, 145593, Note_on_c, 9, 59, 0
3, 145936, Note_on_c, 9, 59, 60
3, 146153, Note_on_c, 9, 59, 0
3, 147430, Note_on_c, 9, 38, 31
3, 147529, Note_on_c, 9, 38, 0
3, 147905, Note_on_c, 9, 38, 31
3, 148024, Note_on_c, 9, 38, 0
3, 148808, Note_on_c, 9, 59, 51
3, 149000, Note_on_c, 9, 59, 0
3, 149249, Note_on_c, 9, 59, 47
3, 149439, Note_on_c, 9, 59, 0
3, 150279, Note_on_c, 9, 59, 45
3, 150445, Note_on_c, 9, 59, 0
3, 150745, Note_on_c, 9, 59, 37
3, 151007, Note_on_c, 9, 59, 0
3, 151695, Note_on_c, 9, 59, 58
3, 151888, Note_on_c, 9, 59, 0
3, 152224, Note_on_c, 9, 53, 73
3, 152703, Note_on_c, 9, 53, 0
3, 153164, Note_on_c, 9, 53, 75
3, 153454, Note_on_c, 9, 53, 0
3, 153720, Note_on_c, 9, 53, 72
3, 154215, Note_on_c, 9, 53, 0
3, 155111, Note_on_c, 9, 53, 80
3, 155404, Note_on_c, 9, 53, 0
3, 156039, Note_on_c, 9, 53, 68
3, 156193, Note_on_c, 9, 53, 0
3, 156574, Note_on_c, 9, 53, 84
3, 156970, Note_on_c, 9, 53, 0
3, 157974, Note_on_c, 9, 53, 80
3, 158218, Note_on_c, 9, 53, 0
3, 158935, Note_on_c, 9, 53, 82
3, 159147, Note_on_c, 9, 53, 0
3, 159389, Note_on_c, 9, 53, 70
3, 159707, Note_on_c, 9, 53, 0
3, 160917, Note_on_c, 9, 53, 74
3, 161054, Note_on_c, 9, 53, 0
3, 161280, Note_on_c, 9, 38, 25
3, 161280, Note_on_c, 9, 38, 0
3, 161322, Note_on_c, 9, 59, 71
3, 161363, Note_on_c, 9, 53, 44
3, 161446, Note_on_c, 9, 53, 0
3, 161631, Note_on_c, 9, 59, 0
3, 162252, Note_on_c, 9, 59, 57
3, 162402, Note_on_c, 9, 59, 0
3, 162705, Note_on_c, 9, 59, 44
3, 162785, Note_on_c, 9, 59, 0
3, 163184, Note_on_c, 9, 59, 80
3, 163589, Note_on_c, 9, 59, 0
3, 164123, Note_on_c, 9, 59, 44
3, 164223, Note_on_c, 9, 59, 0
3, 164582, Note_on_c, 9, 59, 80
3, 164720, Note_on_c, 9, 38, 21
3, 164756, Note_on_c, 9, 59, 0
3, 164797, Note_on_c, 9, 38, 0
3, 165094, Note_on_c, 9, 59, 64
3, 165222, Note_on_c, 9, 59, 0
3, 166114, Note_on_c, 9, 59, 44
3, 166266, Note_on_c, 9, 59, 0
3, 166611, Note_on_c, 9, 59, 75
3, 166978, Note_on_c, 9, 59, 0
3, 167485, Note_on_c, 9, 59, 54
3, 167727, Note_on_c, 9, 59, 0
3, 167971, Note_on_c, 9, 59, 29
3, 168172, Note_on_c, 9, 59, 0
3, 168423, Note_on_c, 9, 59, 57
3, 168531, Note_on_c, 9, 38, 16
3, 168612, Note_on_c, 9, 59, 0
3, 168622, Note_on_c, 9, 38, 0
3, 168883, Note_on_c, 9, 59, 79
3, 169048, Note_on_c, 9, 36, 20
3, 169268, Note_on_c, 9, 36, 0
3, 169572, Note_on_c, 9, 59, 0
3, 169854, Note_on_c, 9, 59, 45
3, 169991, Note_on_c, 9, 59, 0
3, 170383, Note_on_c, 9, 59, 82
3, 171138, Note_on_c, 9, 59, 0
3, 171337, Note_on_c, 9, 59, 39
3, 171530, Note_on_c, 9, 59, 0
3, 171833, Note_on_c, 9, 59, 80
3, 172574, Note_on_c, 9, 59, 0
3, 172872, Note_on_c, 9, 59, 42
3, 172887, Note_on_c, 9, 38, 26
3, 172964, Note_on_c, 9, 38, 0
3, 172982, Note_on_c, 9, 59, 0
3, 173114, Note_on_c, 9, 38, 25
3, 173203, Note_on_c, 9, 38, 0
3, 173326, Note_on_c, 9, 38, 23
3, 173338, Note_on_c, 9, 59, 69
3, 173436, Note_on_c, 9, 38, 0
3, 173582, Note_on_c, 9, 59, 0
3, 174285, Note_on_c, 9, 59, 64
3, 174409, Note_on_c, 9, 59, 0
3, 174762, Note_on_c, 9, 59, 75
3, 174809, Note_on_c, 9, 36, 30
3, 175071, Note_on_c, 9, 36, 0
3, 175367, Note_on_c, 9, 59, 0
3, 176165, Note_on_c, 9, 59, 74
3, 176449, Note_on_c, 9, 59, 0
3, 176624, Note_on_c, 9, 59, 77
3, 177249, Note_on_c, 9, 59, 0
3, 177574, Note_on_c, 9, 59, 42
3, 177710, Note_on_c, 9, 59, 0
3, 178060, Note_on_c, 9, 59, 64
3, 178100, Note_on_c, 9, 40, 27
3, 178181, Note_on_c, 9, 40, 0
3, 178241, Note_on_c, 9, 59, 0
3, 178557, Note_on_c, 9, 59, 78
3, 179160, Note_on_c, 9, 59, 0
3, 179215, Note_on_c, 9, 40, 14
3, 179341, Note_on_c, 9, 40, 0
3, 179558, Note_on_c, 9, 59, 57
3, 179708, Note_on_c, 9, 59, 0
3, 180015, Note_on_c, 9, 53, 69
3, 180109, Note_on_c, 9, 40, 27
3, 180188, Note_on_c, 9, 40, 0
3, 180354, Note_on_c, 9, 53, 0
3, 180506, Note_on_c, 9, 59, 57
3, 180849, Note_on_c, 9, 59, 0
3, 181003, Note_on_c, 9, 59, 60
3, 181229, Note_on_c, 9, 59, 0
3, 181451, Note_on_c, 9, 59, 65
3, 181498, Note_on_c, 9, 36, 18
3, 181664, Note_on_c, 9, 36, 0
3, 182110, Note_on_c, 9, 59, 0
3, 182416, Note_on_c, 9, 59, 54
3, 183010, Note_on_c, 9, 59, 0
3, 183337, Note_on_c, 9, 59, 51
3, 183485, Note_on_c, 9, 59, 0
3, 183805, Note_on_c, 9, 59, 55
3, 184068, Note_on_c, 9, 59, 0
3, 184285, Note_on_c, 9, 59, 79
3, 184950, Note_on_c, 9, 59, 0
3, 185313, Note_on_c, 9, 59, 41
3, 185412, Note_on_c, 9, 59, 0
3, 185765, Note_on_c, 9, 59, 59
3, 185949, Note_on_c, 9, 59, 0
3, 186285, Note_on_c, 9, 59, 59
3, 186493, Note_on_c, 9, 59, 0
3, 186753, Note_on_c, 9, 51, 58
3, 187076, Note_on_c, 9, 51, 0
3, 187201, Note_on_c, 9, 59, 52
3, 187210, Note_on_c, 9, 37, 84
3, 187412, Note_on_c, 9, 59, 0
3, 187445, Note_on_c, 9, 37, 0
3, 187710, Note_on_c, 9, 59, 73
3, 187996, Note_on_c, 9, 59, 0
3, 188187, Note_on_c, 9, 59, 67
3, 188928, Note_on_c, 9, 59, 0
3, 189139, Note_on_c, 9, 59, 37
3, 189296, Note_on_c, 9, 59, 0
3, 189636, Note_on_c, 9, 59, 75
3, 189851, Note_on_c, 9, 59, 0
3, 190059, Note_on_c, 9, 59, 68
3, 190743, Note_on_c, 9, 59, 0
3, 191043, Note_on_c, 9, 59, 44
3, 191220, Note_on_c, 9, 59, 0
3, 191547, Note_on_c, 9, 59, 70
3, 191782, Note_on_c, 9, 59, 0
3, 191999, Note_on_c, 9, 59, 64
3, 192364, Note_on_c, 9, 59, 0
3, 192494, Note_on_c, 9, 53, 46
3, 192759, Note_on_c, 9, 53, 0
3, 193048, Note_on_c, 9, 59, 33
3, 193146, Note_on_c, 9, 59, 0
3, 193509, Note_on_c, 9, 59, 73
3, 193841, Note_on_c, 9, 59, 0
3, 193961, Note_on_c, 9, 38, 21
3, 194038, Note_on_c, 9, 59, 47
3, 194069, Note_on_c, 9, 38, 0
3, 194165, Note_on_c, 9, 59, 0
3, 194477, Note_on_c, 9, 36, 25
3, 194716, Note_on_c, 9, 36, 0
3, 195355, Note_on_c, 9, 59, 51
3, 195530, Note_on_c, 9, 59, 0
3, 195780, Note_on_c, 9, 59, 73
3, 196517, Note_on_c, 9, 59, 0
3, 196748, Note_on_c, 9, 59, 36
3, 196961, Note_on_c, 9, 59, 0
3, 197281, Note_on_c, 9, 59, 82
3, 197546, Note_on_c, 9, 59, 0
3, 197714, Note_on_c, 9, 59, 73
3, 198264, Note_on_c, 9, 59, 0
3, 198677, Note_on_c, 9, 59, 45
3, 198849, Note_on_c, 9, 59, 0
3, 199201, Note_on_c, 9, 59, 88
3, 199313, Note_on_c, 9, 36, 24
3, 199468, Note_on_c, 9, 36, 0
3, 199962, Note_on_c, 9, 59, 0
3, 200146, Note_on_c, 9, 59, 49
3, 200316, Note_on_c, 9, 59, 0
3, 200664, Note_on_c, 9, 59, 71
3, 201017, Note_on_c, 9, 59, 0
3, 201170, Note_on_c, 9, 59, 76
3, 201266, Note_on_c, 9, 38, 24
3, 201342, Note_on_c, 9, 38, 0
3, 201425, Note_on_c, 9, 59, 0
3, 201591, Note_on_c, 9, 59, 76
3, 202225, Note_on_c, 9, 59, 0
3, 203076, Note_on_c, 9, 59, 84
3, 203096, Note_on_c, 9, 38, 20
3, 203197, Note_on_c, 9, 38, 0
3, 203513, Note_on_c, 9, 59, 0
3, 203596, Note_on_c, 9, 59, 34
3, 203871, Note_on_c, 9, 59, 0
3, 204003, Note_on_c, 9, 38, 23
3, 204174, Note_on_c, 9, 38, 0
3, 204487, Note_on_c, 9, 59, 80
3, 204837, Note_on_c, 9, 59, 0
3, 204987, Note_on_c, 9, 59, 78
3, 205005, Note_on_c, 9, 38, 24
3, 205090, Note_on_c, 9, 38, 0
3, 205798, Note_on_c, 9, 59, 0
3, 205950, Note_on_c, 9, 59, 70
3, 205970, Note_on_c, 9, 38, 20
3, 206147, Note_on_c, 9, 59, 0
3, 206293, Note_on_c, 9, 38, 0
3, 206447, Note_on_c, 9, 59, 65
3, 206732, Note_on_c, 9, 59, 0
3, 206880, Note_on_c, 9, 53, 73
3, 206933, Note_on_c, 9, 38, 35
3, 207016, Note_on_c, 9, 38, 0
3, 207276, Note_on_c, 9, 53, 0
3, 207372, Note_on_c, 9, 59, 52
3, 207404, Note_on_c, 9, 57, 53
3, 207417, Note_on_c, 9, 36, 38
3, 207599, Note_on_c, 9, 59, 0
3, 207666, Note_on_c, 9, 57, 0
3, 207827, Note_on_c, 9, 59, 53
3, 208080, Note_on_c, 9, 59, 0
3, 208325, Note_on_c, 9, 59, 65
3, 208721, Note_on_c, 9, 59, 0
3, 208844, Note_on_c, 9, 59, 36
3, 208951, Note_on_c, 9, 59, 0
3, 209281, Note_on_c, 9, 59, 85
3, 209664, Note_on_c, 9, 36, 0
3, 209886, Note_on_c, 9, 59, 0
3, 210220, Note_on_c, 9, 59, 43
3, 210439, Note_on_c, 9, 59, 0
3, 210791, Note_on_c, 9, 59, 83
3, 211530, Note_on_c, 9, 59, 0
3, 211725, Note_on_c, 9, 38, 25
3, 211727, Note_on_c, 9, 53, 37
3, 211747, Note_on_c, 9, 51, 25
3, 211819, Note_on_c, 9, 38, 0
3, 212000, Note_on_c, 9, 53, 0
3, 212143, Note_on_c, 9, 51, 0
3, 212206, Note_on_c, 9, 36, 15
3, 212341, Note_on_c, 9, 36, 0
3, 212623, Note_on_c, 9, 59, 54
3, 212659, Note_on_c, 9, 36, 17
3, 212822, Note_on_c, 9, 36, 0
3, 212840, Note_on_c, 9, 59, 0
3, 213179, Note_on_c, 9, 36, 14
3, 213205, Note_on_c, 9, 51, 53
3, 213243, Note_on_c, 9, 53, 52
3, 213380, Note_on_c, 9, 36, 0
3, 213763, Note_on_c, 9, 51, 0
3, 213776, Note_on_c, 9, 53, 0
3, 214103, Note_on_c, 9, 59, 51
3, 214278, Note_on_c, 9, 59, 0
3, 215589, Note_on_c, 9, 59, 67
3, 215790, Note_on_c, 9, 59, 0
3, 216066, Note_on_c, 9, 59, 39
3, 216088, Note_on_c, 9, 40, 17
3, 216234, Note_on_c, 9, 40, 0
3, 216238, Note_on_c, 9, 59, 0
3, 216516, Note_on_c, 9, 51, 36
3, 216532, Note_on_c, 9, 53, 39
3, 216760, Note_on_c, 9, 51, 0
3, 216763, Note_on_c, 9, 53, 0
3, 217020, Note_on_c, 9, 59, 61
3, 217224, Note_on_c, 9, 59, 0
3, 217502, Note_on_c, 9, 59, 63
3, 217519, Note_on_c, 9, 40, 20
3, 217607, Note_on_c, 9, 40, 0
3, 217712, Note_on_c, 9, 59, 0
3, 217948, Note_on_c, 9, 59, 81
3, 218519, Note_on_c, 9, 59, 0
3, 218888, Note_on_c, 9, 59, 72
3, 219482, Note_on_c, 9, 40, 26
3, 219531, Note_on_c, 9, 59, 0
3, 219558, Note_on_c, 9, 40, 0
3, 219800, Note_on_c, 9, 59, 37
3, 219894, Note_on_c, 9, 59, 0
3, 220317, Note_on_c, 9, 59, 81
3, 220441, Note_on_c, 9, 40, 28
3, 220575, Note_on_c, 9, 40, 0
3, 221061, Note_on_c, 9, 59, 0
3, 221252, Note_on_c, 9, 59, 49
3, 221373, Note_on_c, 9, 40, 33
3, 221444, Note_on_c, 9, 59, 0
3, 221590, Note_on_c, 9, 40, 0
3, 221809, Note_on_c, 9, 59, 45
3, 221892, Note_on_c, 9, 59, 0
3, 222255, Note_on_c, 9, 59, 77
3, 222288, Note_on_c, 9, 40, 26
3, 222385, Note_on_c, 9, 40, 0
3, 222412, Note_on_c, 9, 59, 0
3, 222743, Note_on_c, 9, 59, 95
3, 222797, Note_on_c, 9, 57, 71
3, 222801, Note_on_c, 9, 36, 40
3, 222976, Note_on_c, 9, 57, 0
3, 223128, Note_on_c, 9, 36, 0
3, 223279, Note_on_c, 9, 59, 0
3, 223693, Note_on_c, 9, 59, 51
3, 223863, Note_on_c, 9, 59, 0
3, 224220, Note_on_c, 9, 59, 82
3, 224513, Note_on_c, 9, 59, 0
3, 224685, Note_on_c, 9, 59, 74
3, 225174, Note_on_c, 9, 59, 0
3, 225183, Note_on_c, 9, 40, 15
3, 225281, Note_on_c, 9, 40, 0
3, 225530, Note_on_c, 9, 59, 37
3, 225626, Note_on_c, 9, 59, 0
3, 226092, Note_on_c, 9, 59, 87
3, 226511, Note_on_c, 9, 36, 22
3, 226697, Note_on_c, 9, 36, 0
3, 226921, Note_on_c, 9, 59, 0
3, 227051, Note_on_c, 9, 59, 36
3, 227176, Note_on_c, 9, 59, 0
3, 227996, Note_on_c, 9, 59, 71
3, 228287, Note_on_c, 9, 59, 0
3, 228511, Note_on_c, 9, 59, 66
3, 228753, Note_on_c, 9, 59, 0
3, 228991, Note_on_c, 9, 59, 65
3, 229218, Note_on_c, 9, 59, 0
3, 229430, Note_on_c, 9, 38, 22
3, 229448, Note_on_c, 9, 59, 81
3, 229506, Note_on_c, 9, 38, 0
3, 229692, Note_on_c, 9, 38, 20
3, 229783, Note_on_c, 9, 38, 0
3, 229848, Note_on_c, 9, 38, 20
3, 229927, Note_on_c, 9, 38, 0
3, 230039, Note_on_c, 9, 59, 0
3, 230402, Note_on_c, 9, 59, 46
3, 230509, Note_on_c, 9, 59, 0
3, 230951, Note_on_c, 9, 59, 74
3, 231025, Note_on_c, 9, 38, 31
3, 231101, Note_on_c, 9, 38, 0
3, 231179, Note_on_c, 9, 59, 0
3, 231426, Note_on_c, 9, 59, 69
3, 231728, Note_on_c, 9, 59, 0
3, 231880, Note_on_c, 9, 59, 73
3, 231909, Note_on_c, 9, 38, 30
3, 231992, Note_on_c, 9, 38, 0
3, 232055, Note_on_c, 9, 59, 0
3, 232353, Note_on_c, 9, 59, 90
3, 232357, Note_on_c, 9, 38, 24
3, 232454, Note_on_c, 9, 38, 0
3, 232830, Note_on_c, 9, 36, 19
3, 232958, Note_on_c, 9, 59, 0
3, 232982, Note_on_c, 9, 36, 0
3, 233289, Note_on_c, 9, 36, 21
3, 233309, Note_on_c, 9, 59, 54
3, 233388, Note_on_c, 9, 59, 0
3, 233423, Note_on_c, 9, 36, 0
3, 233802, Note_on_c, 9, 36, 34
3, 233804, Note_on_c, 9, 59, 85
3, 234073, Note_on_c, 9, 36, 0
3, 234331, Note_on_c, 9, 59, 0
3, 234821, Note_on_c, 9, 59, 44
3, 234927, Note_on_c, 9, 59, 0
3, 235269, Note_on_c, 9, 59, 66
3, 235610, Note_on_c, 9, 59, 0
3, 235726, Note_on_c, 9, 53, 44
3, 235971, Note_on_c, 9, 53, 0
3, 236667, Note_on_c, 9, 53, 60
3, 237066, Note_on_c, 9, 53, 0
3, 237171, Note_on_c, 9, 59, 54
3, 237386, Note_on_c, 9, 59, 0
3, 237635, Note_on_c, 9, 38, 27
3, 237639, Note_on_c, 9, 53, 67
3, 237709, Note_on_c, 9, 38, 0
3, 237989, Note_on_c, 9, 53, 0
3, 238166, Note_on_c, 9, 59, 47
3, 238370, Note_on_c, 9, 59, 0
3, 238587, Note_on_c, 9, 59, 49
3, 238780, Note_on_c, 9, 59, 0
3, 239089, Note_on_c, 9, 59, 80
3, 239664, Note_on_c, 9, 59, 0
3, 239998, Note_on_c, 9, 59, 35
3, 240101, Note_on_c, 9, 59, 0
3, 240518, Note_on_c, 9, 59, 74
3, 240981, Note_on_c, 9, 38, 23
3, 241055, Note_on_c, 9, 59, 0
3, 241057, Note_on_c, 9, 38, 0
3, 241219, Note_on_c, 9, 38, 27
3, 241295, Note_on_c, 9, 38, 0
3, 241537, Note_on_c, 9, 59, 43
3, 241624, Note_on_c, 9, 59, 0
3, 241990, Note_on_c, 9, 59, 82
3, 242513, Note_on_c, 9, 38, 31
3, 242590, Note_on_c, 9, 38, 0
3, 242612, Note_on_c, 9, 59, 0
3, 242883, Note_on_c, 9, 59, 46
3, 243076, Note_on_c, 9, 59, 0
3, 243394, Note_on_c, 9, 59, 82
3, 243833, Note_on_c, 9, 38, 30
3, 243934, Note_on_c, 9, 38, 0
3, 243952, Note_on_c, 9, 59, 0
3, 244147, Note_on_c, 9, 38, 31
3, 244223, Note_on_c, 9, 38, 0
3, 244299, Note_on_c, 9, 59, 54
3, 244413, Note_on_c, 9, 59, 0
3, 244792, Note_on_c, 9, 59, 43
3, 244993, Note_on_c, 9, 59, 0
3, 245175, Note_on_c, 9, 59, 62
3, 245347, Note_on_c, 9, 59, 0
3, 245365, Note_on_c, 9, 38, 31
3, 245441, Note_on_c, 9, 38, 0
3, 245647, Note_on_c, 9, 38, 27
3, 245730, Note_on_c, 9, 38, 0
3, 245739, Note_on_c, 9, 59, 80
3, 246109, Note_on_c, 9, 59, 0
3, 246270, Note_on_c, 9, 59, 40
3, 246382, Note_on_c, 9, 59, 0
3, 246720, Note_on_c, 9, 59, 48
3, 246877, Note_on_c, 9, 59, 0
3, 246929, Note_on_c, 9, 38, 24
3, 247005, Note_on_c, 9, 38, 0
3, 247117, Note_on_c, 9, 38, 20
3, 247209, Note_on_c, 9, 59, 90
3, 247213, Note_on_c, 9, 38, 0
3, 247894, Note_on_c, 9, 59, 0
3, 248163, Note_on_c, 9, 59, 47
3, 248252, Note_on_c, 9, 38, 31
3, 248313, Note_on_c, 9, 59, 0
3, 248326, Note_on_c, 9, 38, 0
3, 248671, Note_on_c, 9, 59, 48
3, 248725, Note_on_c, 9, 38, 21
3, 248821, Note_on_c, 9, 38, 0
3, 248846, Note_on_c, 9, 59, 0
3, 249128, Note_on_c, 9, 59, 47
3, 249276, Note_on_c, 9, 59, 0
3, 250047, Note_on_c, 9, 59, 60
3, 250228, Note_on_c, 9, 59, 0
3, 250255, Note_on_c, 9, 38, 30
3, 250336, Note_on_c, 9, 38, 0
3, 250544, Note_on_c, 9, 59, 55
3, 250752, Note_on_c, 9, 59, 0
3, 251032, Note_on_c, 9, 53, 53
3, 251160, Note_on_c, 9, 38, 36
3, 251305, Note_on_c, 9, 53, 0
3, 251337, Note_on_c, 9, 38, 0
3, 251547, Note_on_c, 9, 59, 42
3, 251787, Note_on_c, 9, 59, 0
3, 252049, Note_on_c, 9, 53, 56
3, 252069, Note_on_c, 9, 51, 38
3, 252083, Note_on_c, 9, 38, 46
3, 252302, Note_on_c, 9, 38, 0
3, 252358, Note_on_c, 9, 51, 0
3, 252392, Note_on_c, 9, 53, 0
3, 252497, Note_on_c, 9, 59, 36
3, 252690, Note_on_c, 9, 59, 0
3, 252970, Note_on_c, 9, 38, 35
3, 253008, Note_on_c, 9, 53, 61
3, 253044, Note_on_c, 9, 51, 35
3, 253078, Note_on_c, 9, 38, 0
3, 253115, Note_on_c, 9, 53, 0
3, 253196, Note_on_c, 9, 51, 0
3, 253465, Note_on_c, 9, 59, 37
3, 253505, Note_on_c, 9, 57, 60
3, 253521, Note_on_c, 9, 36, 42
3, 253707, Note_on_c, 9, 57, 0
3, 253770, Note_on_c, 9, 59, 0
3, 253974, Note_on_c, 9, 59, 49
3, 254186, Note_on_c, 9, 59, 0
3, 254399, Note_on_c, 9, 59, 51
3, 254766, Note_on_c, 9, 59, 0
3, 255367, Note_on_c, 9, 36, 0
3, 255409, Note_on_c, 9, 59, 83
3, 255763, Note_on_c, 9, 59, 0
3, 255931, Note_on_c, 9, 59, 47
3, 256018, Note_on_c, 9, 59, 0
3, 256883, Note_on_c, 9, 38, 17
3, 256890, Note_on_c, 9, 59, 79
3, 256973, Note_on_c, 9, 38, 0
3, 257558, Note_on_c, 9, 59, 0
3, 257846, Note_on_c, 9, 38, 23
3, 257860, Note_on_c, 9, 59, 69
3, 257943, Note_on_c, 9, 38, 0
3, 258458, Note_on_c, 9, 59, 0
3, 258789, Note_on_c, 9, 59, 64
3, 258850, Note_on_c, 9, 38, 17
3, 258939, Note_on_c, 9, 38, 0
3, 259004, Note_on_c, 9, 59, 0
3, 259276, Note_on_c, 9, 59, 49
3, 259663, Note_on_c, 9, 59, 0
3, 260230, Note_on_c, 9, 59, 44
3, 260387, Note_on_c, 9, 59, 0
3, 260735, Note_on_c, 9, 59, 71
3, 260998, Note_on_c, 9, 59, 0
3, 261215, Note_on_c, 9, 59, 76
3, 261865, Note_on_c, 9, 59, 0
3, 262091, Note_on_c, 9, 59, 38
3, 262302, Note_on_c, 9, 59, 0
3, 262613, Note_on_c, 9, 59, 81
3, 263384, Note_on_c, 9, 59, 0
3, 263545, Note_on_c, 9, 59, 39
3, 263585, Note_on_c, 9, 38, 14
3, 263635, Note_on_c, 9, 59, 0
3, 263664, Note_on_c, 9, 38, 0
3, 263941, Note_on_c, 9, 36, 10
3, 264058, Note_on_c, 9, 36, 0
3, 264459, Note_on_c, 9, 59, 55
3, 264486, Note_on_c, 9, 38, 17
3, 264571, Note_on_c, 9, 59, 0
3, 264575, Note_on_c, 9, 38, 0
3, 264925, Note_on_c, 9, 59, 77
3, 265543, Note_on_c, 9, 38, 17
3, 265648, Note_on_c, 9, 38, 0
3, 265682, Note_on_c, 9, 59, 0
3, 265904, Note_on_c, 9, 59, 32
3, 266027, Note_on_c, 9, 59, 0
3, 266406, Note_on_c, 9, 59, 58
3, 266515, Note_on_c, 9, 38, 17
3, 266560, Note_on_c, 9, 59, 0
3, 266616, Note_on_c, 9, 38, 0
3, 266896, Note_on_c, 9, 59, 78
3, 267570, Note_on_c, 9, 59, 0
3, 267575, Note_on_c, 9, 38, 20
3, 267675, Note_on_c, 9, 38, 0
3, 268408, Note_on_c, 9, 59, 57
3, 268715, Note_on_c, 9, 59, 0
3, 268881, Note_on_c, 9, 59, 69
3, 269221, Note_on_c, 9, 59, 0
3, 269550, Note_on_c, 9, 38, 16
3, 269636, Note_on_c, 9, 38, 0
3, 269806, Note_on_c, 9, 59, 45
3, 269945, Note_on_c, 9, 59, 0
3, 270314, Note_on_c, 9, 59, 70
3, 270446, Note_on_c, 9, 38, 27
3, 270513, Note_on_c, 9, 59, 0
3, 270522, Note_on_c, 9, 38, 0
3, 270785, Note_on_c, 9, 59, 74
3, 270930, Note_on_c, 9, 38, 26
3, 271006, Note_on_c, 9, 38, 0
3, 271159, Note_on_c, 9, 59, 0
3, 271327, Note_on_c, 9, 59, 32
3, 271407, Note_on_c, 9, 59, 0
3, 271416, Note_on_c, 9, 36, 16
3, 271510, Note_on_c, 9, 36, 0
3, 271723, Note_on_c, 9, 59, 29
3, 271804, Note_on_c, 9, 59, 0
3, 272243, Note_on_c, 9, 59, 78
3, 273148, Note_on_c, 9, 59, 0
3, 273260, Note_on_c, 9, 59, 34
3, 273372, Note_on_c, 9, 59, 0
3, 274185, Note_on_c, 9, 59, 64
3, 274371, Note_on_c, 9, 59, 0
3, 274664, Note_on_c, 9, 59, 61
3, 275242, Note_on_c, 9, 59, 0
3, 276024, Note_on_c, 9, 59, 71
3, 276248, Note_on_c, 9, 59, 0
3, 276544, Note_on_c, 9, 59, 83
3, 276974, Note_on_c, 9, 38, 12
3, 277014, Note_on_c, 9, 59, 0
3, 277048, Note_on_c, 9, 38, 0
3, 277368, Note_on_c, 9, 38, 21
3, 277462, Note_on_c, 9, 38, 0
3, 277549, Note_on_c, 9, 59, 26
3, 277637, Note_on_c, 9, 59, 0
3, 277892, Note_on_c, 9, 36, 28
3, 277982, Note_on_c, 9, 59, 76
3, 277995, Note_on_c, 9, 36, 0
3, 278011, Note_on_c, 9, 57, 75
3, 278325, Note_on_c, 9, 57, 0
3, 278365, Note_on_c, 9, 38, 26
3, 278624, Note_on_c, 9, 38, 0
3, 278658, Note_on_c, 9, 59, 0
3, 278833, Note_on_c, 9, 38, 20
3, 278920, Note_on_c, 9, 38, 0
3, 278963, Note_on_c, 9, 59, 49
3, 279344, Note_on_c, 9, 59, 0
3, 279812, Note_on_c, 9, 38, 23
3, 279946, Note_on_c, 9, 59, 68
3, 279969, Note_on_c, 9, 38, 0
3, 280197, Note_on_c, 9, 59, 0
3, 280414, Note_on_c, 9, 59, 55
3, 280721, Note_on_c, 9, 38, 27
3, 280782, Note_on_c, 9, 59, 0
3, 280954, Note_on_c, 9, 38, 0
3, 281313, Note_on_c, 9, 59, 47
3, 281559, Note_on_c, 9, 59, 0
3, 281713, Note_on_c, 9, 38, 30
3, 281823, Note_on_c, 9, 59, 69
3, 281857, Note_on_c, 9, 38, 0
3, 282204, Note_on_c, 9, 38, 20
3, 282352, Note_on_c, 9, 59, 0
3, 282784, Note_on_c, 9, 59, 60
3, 283024, Note_on_c, 9, 59, 0
3, 283093, Note_on_c, 9, 38, 0
3, 283277, Note_on_c, 9, 59, 42
3, 283485, Note_on_c, 9, 59, 0
3, 283698, Note_on_c, 9, 36, 24
3, 283788, Note_on_c, 9, 59, 62
3, 283808, Note_on_c, 9, 36, 0
3, 283976, Note_on_c, 9, 59, 0
3, 284205, Note_on_c, 9, 38, 34
3, 284216, Note_on_c, 9, 59, 68
3, 284460, Note_on_c, 9, 38, 0
3, 284700, Note_on_c, 9, 59, 0
3, 285087, Note_on_c, 9, 59, 45
3, 285233, Note_on_c, 9, 59, 0
3, 285557, Note_on_c, 9, 59, 62
3, 285710, Note_on_c, 9, 59, 0
3, 286570, Note_on_c, 9, 59, 70
3, 286716, Note_on_c, 9, 59, 0
3, 287513, Note_on_c, 9, 59, 46
3, 287603, Note_on_c, 9, 59, 0
3, 287979, Note_on_c, 9, 59, 61
3, 288463, Note_on_c, 9, 59, 0
3, 289446, Note_on_c, 9, 59, 69
3, 290163, Note_on_c, 9, 59, 0
3, 290405, Note_on_c, 9, 59, 40
3, 290544, Note_on_c, 9, 59, 0
3, 290887, Note_on_c, 9, 59, 51
3, 291083, Note_on_c, 9, 59, 0
3, 291375, Note_on_c, 9, 38, 33
3, 291550, Note_on_c, 9, 38, 0
3, 291872, Note_on_c, 9, 59, 37
3, 291995, Note_on_c, 9, 59, 0
3, 292318, Note_on_c, 9, 59, 30
3, 292526, Note_on_c, 9, 59, 0
3, 292788, Note_on_c, 9, 59, 32
3, 292947, Note_on_c, 9, 59, 0
3, 293272, Note_on_c, 9, 59, 47
3, 293375, Note_on_c, 9, 59, 0
3, 293758, Note_on_c, 9, 59, 62
3, 293884, Note_on_c, 9, 59, 0
3, 294269, Note_on_c, 9, 59, 66
3, 294345, Note_on_c, 9, 59, 0
3, 295248, Note_on_c, 9, 59, 84
3, 296029, Note_on_c, 9, 59, 0
3, 296224, Note_on_c, 9, 59, 49
3, 296343, Note_on_c, 9, 59, 0
3, 296686, Note_on_c, 9, 59, 48
3, 296898, Note_on_c, 9, 59, 0
3, 297172, Note_on_c, 9, 38, 38
3, 297346, Note_on_c, 9, 38, 0
3, 297680, Note_on_c, 9, 59, 47
3, 297792, Note_on_c, 9, 59, 0
3, 298236, Note_on_c, 9, 38, 40
3, 298399, Note_on_c, 9, 38, 0
3, 298688, Note_on_c, 9, 59, 54
3, 298885, Note_on_c, 9, 59, 0
3, 299175, Note_on_c, 9, 38, 45
3, 299387, Note_on_c, 9, 38, 0
3, 299652, Note_on_c, 9, 36, 44
3, 299696, Note_on_c, 9, 59, 60
3, 299786, Note_on_c, 9, 59, 0
3, 299815, Note_on_c, 9, 36, 0
3, 300606, Note_on_c, 9, 59, 49
3, 300713, Note_on_c, 9, 59, 0
3, 301128, Note_on_c, 9, 59, 46
3, 301220, Note_on_c, 9, 59, 0
3, 302010, Note_on_c, 9, 59, 47
3, 302118, Note_on_c, 9, 59, 0
3, 302501, Note_on_c, 9, 59, 39
3, 302615, Note_on_c, 9, 59, 0
3, 302931, Note_on_c, 9, 38, 34
3, 303063, Note_on_c, 9, 38, 0
3, 303415, Note_on_c, 9, 57, 58
3, 303453, Note_on_c, 9, 36, 29
3, 303455, Note_on_c, 9, 38, 32
3, 303549, Note_on_c, 9, 36, 0
3, 303553, Note_on_c, 9, 57, 0
3, 303594, Note_on_c, 9, 38, 0
3, 304947, Note_on_c, 9, 59, 43
3, 305036, Note_on_c, 9, 59, 0
3, 305410, Note_on_c, 9, 59, 36
3, 305639, Note_on_c, 9, 59, 0
3, 306766, Note_on_c, 9, 59, 34
3, 306873, Note_on_c, 9, 59, 0
3, 307216, Note_on_c, 9, 59, 60
3, 307433, Note_on_c, 9, 59, 0
3, 308710, Note_on_c, 9, 38, 31
3, 308809, Note_on_c, 9, 38, 0
3, 309185, Note_on_c, 9, 38, 31
3, 309304, Note_on_c, 9, 38, 0
3, 310088, Note_on_c, 9, 59, 51
3, 310280, Note_on_c, 9, 59, 0
3, 310529, Note_on_c, 9, 59, 47
3, 310719, Note_on_c, 9, 59, 0
3, 311559, Note_on_c, 9, 59, 45
3, 311725, Note_on_c, 9, 59, 0
3, 312025, Note_on_c, 9, 59, 37
3, 312287, Note_on_c, 9, 59, 0
3, 312975, Note_on_c, 9, 59, 58
3, 313168, Note_on_c, 9, 59, 0
3, 313504, Note_on_c, 9, 53, 73
3, 313983, Note_on_c, 9, 53, 0
3, 314444, Note_on_c, 9, 53, 75
3, 314734, Note_on_c, 9, 53, 0
3, 315000, Note_on_c, 9, 53, 72
3, 315495, Note_on_c, 9, 53, 0
3, 316391, Note_on_c, 9, 53, 80
3, 316684, Note_on_c, 9, 53, 0
3, 317319, Note_on_c, 9, 53, 68
3, 317473, Note_on_c, 9, 53, 0
3, 317854, Note_on_c, 9, 53, 84
3, 318250, Note_on_c, 9, 53, 0
3, 319254, Note_on_c, 9, 53, 80
3, 319498, Note_on_c, 9, 53, 0
3, 320215, Note_on_c, 9, 53, 82
3, 320427, Note_on_c, 9, 53, 0
3, 320669, Note_on_c, 9, 53, 70
3, 320987, Note_on_c, 9, 53, 0
3, 322126, Note_on_c, 9, 59, 50
3, 322197, Note_on_c, 9, 53, 74
3, 322218, Note_on_c, 9, 59, 0
3, 322334, Note_on_c, 9, 53, 0
3, 322630, Note_on_c, 9, 59, 56
3, 322887, Note_on_c, 9, 59, 0
3, 324022, Note_on_c, 9, 59, 55
3, 324164, Note_on_c, 9, 59, 0
3, 324951, Note_on_c, 9, 59, 54
3, 325213, Note_on_c, 9, 59, 0
3, 325909, Note_on_c, 9, 59, 30
3, 326083, Note_on_c, 9, 59, 0
3, 326354, Note_on_c, 9, 59, 60
3, 326523, Note_on_c, 9, 59, 0
3, 327885, Note_on_c, 9, 59, 42
3, 327977, Note_on_c, 9, 59, 0
3, 328355, Note_on_c, 9, 59, 33
3, 328425, Note_on_c, 9, 59, 0
3, 328812, Note_on_c, 9, 38, 27
3, 328839, Note_on_c, 9, 53, 55
3, 328935, Note_on_c, 9, 38, 0
3, 328991, Note_on_c, 9, 53, 0
3, 329258, Note_on_c, 9, 38, 35
3, 329566, Note_on_c, 9, 38, 0
3, 329796, Note_on_c, 9, 59, 32
3, 329803, Note_on_c, 9, 36, 24
3, 329865, Note_on_c, 9, 59, 0
3, 329972, Note_on_c, 9, 36, 0
3, 330248, Note_on_c, 9, 36, 41
3, 330284, Note_on_c, 9, 59, 61
3, 330395, Note_on_c, 9, 59, 0
3, 330578, Note_on_c, 9, 36, 0
3, 332192, Note_on_c, 9, 59, 33
3, 332260, Note_on_c, 9, 59, 0
3, 332655, Note_on_c, 9, 59, 55
3, 332722, Note_on_c, 9, 59, 0
3, 333140, Note_on_c, 9, 59, 94
3, 333727, Note_on_c, 9, 59, 0
3, 334167, Note_on_c, 9, 59, 31
3, 334239, Note_on_c, 9, 59, 0
3, 334610, Note_on_c, 9, 53, 50
3, 334795, Note_on_c, 9, 53, 0
3, 335587, Note_on_c, 9, 53, 50
3, 335758, Note_on_c, 9, 53, 0
3, 336572, Note_on_c, 9, 59, 40
3, 336671, Note_on_c, 9, 59, 0
3, 337500, Note_on_c, 9, 53, 65
3, 337723, Note_on_c, 9, 53, 0
3, 338459, Note_on_c, 9, 53, 49
3, 338662, Note_on_c, 9, 53, 0
3, 339010, Note_on_c, 9, 59, 32
3, 339125, Note_on_c, 9, 59, 0
3, 339443, Note_on_c, 9, 59, 42
3, 339596, Note_on_c, 9, 59, 0
3, 339952, Note_on_c, 9, 59, 55
3, 340034, Note_on_c, 9, 59, 0
3, 340431, Note_on_c, 9, 59, 51
3, 340506, Note_on_c, 9, 59, 0
3, 340899, Note_on_c, 9, 59, 68
3, 341018, Note_on_c, 9, 59, 0
3, 341305, Note_on_c, 9, 36, 42
3, 341360, Note_on_c, 9, 59, 55
3, 341386, Note_on_c, 9, 36, 0
3, 341425, Note_on_c, 9, 59, 0
3, 341803, Note_on_c, 9, 36, 30
3, 341826, Note_on_c, 9, 59, 63
3, 341900, Note_on_c, 9, 59, 0
3, 341977, Note_on_c, 9, 36, 0
3, 342284, Note_on_c, 9, 51, 60
3, 342292, Note_on_c, 9, 53, 60
3, 342472, Note_on_c, 9, 53, 0
3, 342519, Note_on_c, 9, 51, 0
3, 343245, Note_on_c, 9, 59, 42
3, 343327, Note_on_c, 9, 59, 0
3, 343762, Note_on_c, 9, 59, 57
3, 343915, Note_on_c, 9, 59, 0
3, 344225, Note_on_c, 9, 59, 51
3, 344297, Note_on_c, 9, 59, 0
3, 344697, Note_on_c, 9, 59, 73
3, 344853, Note_on_c, 9, 59, 0
3, 346096, Note_on_c, 9, 59, 61
3, 346411, Note_on_c, 9, 59, 0
3, 347104, Note_on_c, 9, 59, 50
3, 347307, Note_on_c, 9, 59, 0
3, 347636, Note_on_c, 9, 59, 53
3, 347861, Note_on_c, 9, 59, 0
3, 348090, Note_on_c, 9, 53, 39
3, 348264, Note_on_c, 9, 53, 0
3, 349072, Note_on_c, 9, 59, 52
3, 349135, Note_on_c, 9, 59, 0
3, 349547, Note_on_c, 9, 59, 89
3, 349892, Note_on_c, 9, 59, 0
3, 350026, Note_on_c, 9, 36, 38
3, 350038, Note_on_c, 9, 59, 54
3, 350114, Note_on_c, 9, 36, 0
3, 350179, Note_on_c, 9, 59, 0
3, 350535, Note_on_c, 9, 59, 28
3, 350593, Note_on_c, 9, 59, 0
3, 350962, Note_on_c, 9, 59, 78
3, 350976, Note_on_c, 9, 36, 52
3, 351089, Note_on_c, 9, 59, 0
3, 351120, Note_on_c, 9, 36, 0
3, 351423, Note_on_c, 9, 36, 44
3, 351457, Note_on_c, 9, 59, 64
3, 351522, Note_on_c, 9, 59, 0
3, 351573, Note_on_c, 9, 36, 0
3, 351947, Note_on_c, 9, 53, 45
3, 352027, Note_on_c, 9, 53, 0
3, 352425, Note_on_c, 9, 59, 36
3, 352502, Note_on_c, 9, 59, 0
3, 352872, Note_on_c, 9, 59, 68
3, 352900, Note_on_c, 9, 36, 28
3, 352939, Note_on_c, 9, 59, 0
3, 352995, Note_on_c, 9, 36, 0
3, 353348, Note_on_c, 9, 36, 27
3, 353351, Note_on_c, 9, 59, 101
3, 353530, Note_on_c, 9, 36, 0
3, 353615, Note_on_c, 9, 59, 0
3, 354665, Note_on_c, 9, 36, 37
3, 354764, Note_on_c, 9, 59, 80
3, 354778, Note_on_c, 9, 36, 0
3, 354871, Note_on_c, 9, 59, 0
3, 355176, Note_on_c, 9, 36, 33
3, 355235, Note_on_c, 9, 59, 77
3, 355328, Note_on_c, 9, 36, 0
3, 355334, Note_on_c, 9, 59, 0
3, 356081, Note_on_c, 9, 59, 46
3, 356145, Note_on_c, 9, 59, 0
3, 356576, Note_on_c, 9, 38, 54
3, 356636, Note_on_c, 9, 59, 92
3, 356687, Note_on_c, 9, 38, 0
3, 356746, Note_on_c, 9, 59, 0
3, 357659, Note_on_c, 9, 59, 81
3, 357826, Note_on_c, 9, 59, 0
3, 358650, Note_on_c, 9, 59, 47
3, 358796, Note_on_c, 9, 59, 0
3, 359157, Note_on_c, 9, 59, 30
3, 359222, Note_on_c, 9, 59, 0
3, 359604, Note_on_c, 9, 59, 62
3, 359678, Note_on_c, 9, 59, 0
3, 360100, Note_on_c, 9, 59, 53
3, 360172, Note_on_c, 9, 59, 0
3, 360552, Note_on_c, 9, 53, 72
3, 360702, Note_on_c, 9, 53, 0
3, 361079, Note_on_c, 9, 59, 47
3, 361168, Note_on_c, 9, 59, 0
3, 361570, Note_on_c, 9, 59, 42
3, 361652, Note_on_c, 9, 59, 0
3, 362068, Note_on_c, 9, 59, 35
3, 362143, Note_on_c, 9, 59, 0
3, 362529, Note_on_c, 9, 59, 53
3, 362605, Note_on_c, 9, 59, 0
3, 363015, Note_on_c, 9, 59, 41
3, 363094, Note_on_c, 9, 59, 0
3, 363481, Note_on_c, 9, 59, 43
3, 363557, Note_on_c, 9, 59, 0
3, 363919, Note_on_c, 9, 59, 42
3, 364002, Note_on_c, 9, 59, 0
3, 364356, Note_on_c, 9, 53, 60
3, 364618, Note_on_c, 9, 53, 0
3, 365329, Note_on_c, 9, 53, 57
3, 365487, Note_on_c, 9, 53, 0
3, 365806, Note_on_c, 9, 59, 64
3, 365950, Note_on_c, 9, 59, 0
3, 366285, Note_on_c, 9, 53, 35
3, 366468, Note_on_c, 9, 53, 0
3, 366755, Note_on_c, 9, 59, 38
3, 366890, Note_on_c, 9, 59, 0
3, 367228, Note_on_c, 9, 53, 67
3, 367416, Note_on_c, 9, 53, 0
3, 367666, Note_on_c, 9, 53, 48
3, 367818, Note_on_c, 9, 53, 0
3, 368142, Note_on_c, 9, 53, 48
3, 368215, Note_on_c, 9, 53, 0
3, 368648, Note_on_c, 9, 59, 38
3, 368758, Note_on_c, 9, 59, 0
3, 369601, Note_on_c, 9, 59, 58
3, 369690, Note_on_c, 9, 59, 0
3, 370108, Note_on_c, 9, 59, 41
3, 370181, Note_on_c, 9, 59, 0
3, 370576, Note_on_c, 9, 59, 52
3, 370660, Note_on_c, 9, 59, 0
3, 371769, Note_on_c, 9, 59, 57
3, 371878, Note_on_c, 9, 59, 0
3, 372124, Note_on_c, 9, 59, 82
3, 372241, Note_on_c, 9, 59, 0
3, 372615, Note_on_c, 9, 59, 71
3, 372776, Note_on_c, 9, 59, 0
3, 373070, Note_on_c, 9, 59, 56
3, 373145, Note_on_c, 9, 59, 0
3, 373989, Note_on_c, 9, 38, 34
3, 373996, Note_on_c, 9, 59, 73
3, 374134, Note_on_c, 9, 59, 0
3, 374153, Note_on_c, 9, 38, 0
3, 374483, Note_on_c, 9, 59, 66
3, 374676, Note_on_c, 9, 59, 0
3, 374963, Note_on_c, 9, 59, 64
3, 375055, Note_on_c, 9, 38, 36
3, 375090, Note_on_c, 9, 59, 0
3, 375170, Note_on_c, 9, 38, 0
3, 375956, Note_on_c, 9, 59, 55
3, 375984, Note_on_c, 9, 38, 35
3, 376076, Note_on_c, 9, 59, 0
3, 376138, Note_on_c, 9, 38, 0
3, 376428, Note_on_c, 9, 59, 44
3, 376499, Note_on_c, 9, 36, 19
3, 376540, Note_on_c, 9, 59, 0
3, 376717, Note_on_c, 9, 36, 0
3, 376875, Note_on_c, 9, 59, 57
3, 376926, Note_on_c, 9, 36, 38
3, 376982, Note_on_c, 9, 59, 0
3, 377164, Note_on_c, 9, 36, 0
3, 377355, Note_on_c, 9, 59, 40
3, 377391, Note_on_c, 9, 36, 37
3, 377436, Note_on_c, 9, 59, 0
3, 377778, Note_on_c, 9, 36, 0
3, 377813, Note_on_c, 9, 59, 63
3, 377938, Note_on_c, 9, 59, 0
3, 378279, Note_on_c, 9, 59, 40
3, 378362, Note_on_c, 9, 59, 0
3, 378758, Note_on_c, 9, 59, 38
3, 378772, Note_on_c, 9, 51, 52
3, 378841, Note_on_c, 9, 59, 0
3, 378902, Note_on_c, 9, 51, 0
3, 379624, Note_on_c, 9, 59, 64
3, 379717, Note_on_c, 9, 59, 0
3, 380155, Note_on_c, 9, 51, 47
3, 380157, Note_on_c, 9, 59, 66
3, 380384, Note_on_c, 9, 59, 0
3, 380389, Note_on_c, 9, 51, 0
3, 381020, Note_on_c, 9, 59, 49
3, 381092, Note_on_c, 9, 59, 0
3, 381616, Note_on_c, 9, 51, 50
3, 381618, Note_on_c, 9, 59, 72
3, 381796, Note_on_c, 9, 59, 0
3, 381861, Note_on_c, 9, 51, 0
3, 382049, Note_on_c, 9, 38, 31
3, 382426, Note_on_c, 9, 38, 0
3, 382493, Note_on_c, 9, 38, 31
3, 382570, Note_on_c, 9, 59, 64
3, 382601, Note_on_c, 9, 38, 0
3, 382695, Note_on_c, 9, 59, 0
3, 383050, Note_on_c, 9, 59, 62
3, 383061, Note_on_c, 9, 38, 34
3, 383139, Note_on_c, 9, 38, 0
3, 383195, Note_on_c, 9, 59, 0
3, 383499, Note_on_c, 9, 46, 53
3, 383516, Note_on_c, 9, 36, 44
3, 383625, Note_on_c, 9, 36, 0
3, 383661, Note_on_c, 9, 46, 0
3, 383945, Note_on_c, 9, 36, 40
3, 384006, Note_on_c, 9, 59, 46
3, 384167, Note_on_c, 9, 59, 0
3, 384183, Note_on_c, 9, 36, 0
3, 384525, Note_on_c, 9, 59, 40
3, 384606, Note_on_c, 9, 59, 0
3, 384967, Note_on_c, 9, 59, 62
3, 385078, Note_on_c, 9, 59, 0
3, 385478, Note_on_c, 9, 59, 34
3, 385559, Note_on_c, 9, 59, 0
3, 385943, Note_on_c, 9, 59, 62
3, 386039, Note_on_c, 9, 59, 0
3, 386431, Note_on_c, 9, 59, 50
3, 386498, Note_on_c, 9, 59, 0
3, 386863, Note_on_c, 9, 44, 34
3, 387097, Note_on_c, 9, 44, 0
3, 387389, Note_on_c, 9, 59, 55
3, 387468, Note_on_c, 9, 59, 0
3, 387885, Note_on_c, 9, 59, 59
3, 387952, Note_on_c, 9, 59, 0
3, 389290, Note_on_c, 9, 59, 59
3, 389376, Note_on_c, 9, 38, 33
3, 389411, Note_on_c, 9, 59, 0
3, 389530, Note_on_c, 9, 38, 0
3, 389633, Note_on_c, 9, 38, 31
3, 389781, Note_on_c, 9, 38, 0
3, 389797, Note_on_c, 9, 59, 55
3, 389855, Note_on_c, 9, 38, 32
3, 389865, Note_on_c, 9, 59, 0
3, 389934, Note_on_c, 9, 38, 0
3, 390263, Note_on_c, 9, 59, 37
3, 390344, Note_on_c, 9, 59, 0
3, 390772, Note_on_c, 9, 59, 66
3, 390832, Note_on_c, 9, 36, 42
3, 390962, Note_on_c, 9, 36, 0
3, 391055, Note_on_c, 9, 59, 0
3, 391326, Note_on_c, 9, 36, 59
3, 391536, Note_on_c, 9, 36, 0
3, 392247, Note_on_c, 9, 59, 67
3, 392343, Note_on_c, 9, 59, 0
3, 392743, Note_on_c, 9, 59, 53
3, 392813, Note_on_c, 9, 59, 0
3, 392945, Note_on_c, 9, 59, 61
3, 393039, Note_on_c, 9, 59, 0
3, 393653, Note_on_c, 9, 59, 73
3, 393728, Note_on_c, 9, 59, 0
3, 394123, Note_on_c, 9, 59, 74
3, 394195, Note_on_c, 9, 59, 0
3, 394601, Note_on_c, 9, 59, 62
3, 394674, Note_on_c, 9, 59, 0
3, 395061, Note_on_c, 9, 59, 53
3, 395121, Note_on_c, 9, 59, 0
3, 395529, Note_on_c, 9, 59, 62
3, 395650, Note_on_c, 9, 59, 0
3, 395735, Note_on_c, 9, 59, 56
3, 395807, Note_on_c, 9, 59, 0
3, 396479, Note_on_c, 9, 59, 77
3, 396643, Note_on_c, 9, 59, 0
3, 397014, Note_on_c, 9, 59, 38
3, 397092, Note_on_c, 9, 59, 0
3, 397254, Note_on_c, 9, 59, 67
3, 397372, Note_on_c, 9, 59, 0
3, 397783, Note_on_c, 9, 59, 58
3, 397843, Note_on_c, 9, 59, 0
3, 398005, Note_on_c, 9, 59, 74
3, 398185, Note_on_c, 9, 59, 0
3, 398440, Note_on_c, 9, 44, 33
3, 398503, Note_on_c, 9, 59, 60
3, 398575, Note_on_c, 9, 59, 0
3, 398715, Note_on_c, 9, 44, 0
3, 398952, Note_on_c, 9, 59, 59
3, 399040, Note_on_c, 9, 59, 0
3, 399450, Note_on_c, 9, 59, 68
3, 399572, Note_on_c, 9, 59, 0
3, 399938, Note_on_c, 9, 53, 36
3, 400040, Note_on_c, 9, 53, 0
3, 400457, Note_on_c, 9, 44, 37
3, 400656, Note_on_c, 9, 44, 0
3, 400849, Note_on_c, 9, 59, 54
3, 400946, Note_on_c, 9, 59, 0
3, 401356, Note_on_c, 9, 59, 51
3, 401434, Note_on_c, 9, 59, 0
3, 401819, Note_on_c, 9, 53, 41
3, 401897, Note_on_c, 9, 53, 0
3, 402221, Note_on_c, 9, 46, 44
3, 402319, Note_on_c, 9, 59, 29
3, 402389, Note_on_c, 9, 59, 0
3, 402770, Note_on_c, 9, 59, 61
3, 402868, Note_on_c, 9, 59, 0
3, 402973, Note_on_c, 9, 46, 0
3, 403257, Note_on_c, 9, 59, 32
3, 403343, Note_on_c, 9, 59, 0
3, 403686, Note_on_c, 9, 53, 61
3, 403831, Note_on_c, 9, 53, 0
3, 404190, Note_on_c, 9, 59, 40
3, 404278, Note_on_c, 9, 59, 0
3, 404662, Note_on_c, 9, 38, 51
3, 404686, Note_on_c, 9, 53, 61
3, 404725, Note_on_c, 9, 38, 0
3, 404815, Note_on_c, 9, 53, 0
3, 405177, Note_on_c, 9, 59, 32
3, 405283, Note_on_c, 9, 59, 0
3, 405575, Note_on_c, 9, 59, 49
3, 405635, Note_on_c, 9, 38, 45
3, 405706, Note_on_c, 9, 38, 0
3, 405746, Note_on_c, 9, 59, 0
3, 406061, Note_on_c, 9, 53, 52
3, 406145, Note_on_c, 9, 53, 0
3, 406592, Note_on_c, 9, 59, 53
3, 406651, Note_on_c, 9, 36, 35
3, 406680, Note_on_c, 9, 59, 0
3, 406790, Note_on_c, 9, 36, 0
3, 407076, Note_on_c, 9, 59, 52
3, 407089, Note_on_c, 9, 36, 35
3, 407203, Note_on_c, 9, 59, 0
3, 407334, Note_on_c, 9, 36, 0
3, 407594, Note_on_c, 9, 53, 64
3, 407740, Note_on_c, 9, 53, 0
3, 408525, Note_on_c, 9, 59, 62
3, 408585, Note_on_c, 9, 59, 0
3, 409000, Note_on_c, 9, 53, 58
3, 409178, Note_on_c, 9, 53, 0
3, 409509, Note_on_c, 9, 59, 50
3, 409595, Note_on_c, 9, 59, 0
3, 410470, Note_on_c, 9, 53, 60
3, 410624, Note_on_c, 9, 53, 0
3, 410985, Note_on_c, 9, 59, 31
3, 411117, Note_on_c, 9, 59, 0
3, 411434, Note_on_c, 9, 59, 44
3, 411459, Note_on_c, 9, 46, 37
3, 411579, Note_on_c, 9, 46, 0
3, 411617, Note_on_c, 9, 59, 0
3, 411897, Note_on_c, 9, 53, 40
3, 412045, Note_on_c, 9, 53, 0
3, 412421, Note_on_c, 9, 59, 49
3, 412455, Note_on_c, 9, 46, 36
3, 412509, Note_on_c, 9, 59, 0
3, 412599, Note_on_c, 9, 46, 0
3, 413361, Note_on_c, 9, 53, 80
3, 413435, Note_on_c, 9, 46, 38
3, 413539, Note_on_c, 9, 53, 0
3, 413587, Note_on_c, 9, 46, 0
3, 414303, Note_on_c, 9, 51, 70
3, 414305, Note_on_c, 9, 53, 72
3, 414376, Note_on_c, 9, 46, 54
3, 414433, Note_on_c, 9, 53, 0
3, 414468, Note_on_c, 9, 51, 0
3, 414499, Note_on_c, 9, 46, 0
3, 414763, Note_on_c, 9, 59, 49
3, 415016, Note_on_c, 9, 59, 0
3, 415246, Note_on_c, 9, 38, 41
3, 415269, Note_on_c, 9, 59, 34
3, 415356, Note_on_c, 9, 38, 0
3, 415376, Note_on_c, 9, 59, 0
3, 415706, Note_on_c, 9, 59, 46
3, 415811, Note_on_c, 9, 59, 0
3, 416146, Note_on_c, 9, 38, 45
3, 416318, Note_on_c, 9, 38, 0
3, 416638, Note_on_c, 9, 59, 48
3, 416735, Note_on_c, 9, 59, 0
3, 417140, Note_on_c, 9, 38, 40
3, 417143, Note_on_c, 9, 59, 54
3, 417226, Note_on_c, 9, 59, 0
3, 417309, Note_on_c, 9, 38, 0
3, 418098, Note_on_c, 9, 38, 31
3, 418263, Note_on_c, 9, 38, 0
3, 418564, Note_on_c, 9, 59, 56
3, 418741, Note_on_c, 9, 59, 0
3, 419088, Note_on_c, 9, 59, 53
3, 419094, Note_on_c, 9, 36, 34
3, 419180, Note_on_c, 9, 59, 0
3, 419310, Note_on_c, 9, 36, 0
3, 420067, Note_on_c, 9, 59, 47
3, 420104, Note_on_c, 9, 36, 20
3, 420197, Note_on_c, 9, 59, 0
3, 420215, Note_on_c, 9, 36, 0
3, 420547, Note_on_c, 9, 59, 50
3, 420753, Note_on_c, 9, 59, 0
3, 421044, Note_on_c, 9, 59, 60
3, 421137, Note_on_c, 9, 59, 0
3, 422031, Note_on_c, 9, 59, 47
3, 422108, Note_on_c, 9, 59, 0
3, 422490, Note_on_c, 9, 59, 43
3, 422584, Note_on_c, 9, 59, 0
3, 422955, Note_on_c, 9, 59, 52
3, 423026, Note_on_c, 9, 59, 0
3, 423178, Note_on_c, 9, 59, 55
3, 423293, Note_on_c, 9, 59, 0
3, 423420, Note_on_c, 9, 59, 64
3, 423499, Note_on_c, 9, 59, 0
3, 423918, Note_on_c, 9, 59, 53
3, 423990, Note_on_c, 9, 59, 0
3, 424840, Note_on_c, 9, 59, 57
3, 424928, Note_on_c, 9, 59, 0
3, 425322, Note_on_c, 9, 59, 62
3, 425387, Note_on_c, 9, 59, 0
3, 425796, Note_on_c, 9, 59, 94
3, 425950, Note_on_c, 9, 59, 0
3, 426799, Note_on_c, 9, 59, 61
3, 426910, Note_on_c, 9, 59, 0
3, 427735, Note_on_c, 9, 59, 53
3, 427806, Note_on_c, 9, 59, 0
3, 428731, Note_on_c, 9, 59, 53
3, 428816, Note_on_c, 9, 59, 0
3, 429261, Note_on_c, 9, 59, 50
3, 429361, Note_on_c, 9, 59, 0
3, 429476, Note_on_c, 9, 59, 68
3, 429595, Note_on_c, 9, 59, 0
3, 429699, Note_on_c, 9, 59, 51
3, 429771, Note_on_c, 9, 59, 0
3, 430194, Note_on_c, 9, 59, 73
3, 430284, Note_on_c, 9, 59, 0
3, 430650, Note_on_c, 9, 59, 71
3, 430703, Note_on_c, 9, 44, 18
3, 430715, Note_on_c, 9, 59, 0
3, 430812, Note_on_c, 9, 44, 0
3, 431149, Note_on_c, 9, 59, 68
3, 431213, Note_on_c, 9, 59, 0
3, 431607, Note_on_c, 9, 44, 36
3, 431628, Note_on_c, 9, 53, 41
3, 431710, Note_on_c, 9, 44, 0
3, 431806, Note_on_c, 9, 53, 0
3, 432128, Note_on_c, 9, 59, 41
3, 432204, Note_on_c, 9, 59, 0
3, 432584, Note_on_c, 9, 59, 59
3, 432591, Note_on_c, 9, 44, 30
3, 432688, Note_on_c, 9, 59, 0
3, 432709, Note_on_c, 9, 44, 0
3, 433082, Note_on_c, 9, 59, 63
3, 433195, Note_on_c, 9, 59, 0
3, 433551, Note_on_c, 9, 44, 39
3, 433566, Note_on_c, 9, 59, 70
3, 433651, Note_on_c, 9, 44, 0
3, 433682, Note_on_c, 9, 59, 0
3, 434478, Note_on_c, 9, 59, 52
3, 434522, Note_on_c, 9, 44, 40
3, 434552, Note_on_c, 9, 59, 0
3, 434658, Note_on_c, 9, 44, 0
3, 434708, Note_on_c, 9, 59, 38
3, 434840, Note_on_c, 9, 59, 0
3, 434987, Note_on_c, 9, 59, 54
3, 435053, Note_on_c, 9, 59, 0
3, 435451, Note_on_c, 9, 59, 69
3, 435503, Note_on_c, 9, 44, 46
3, 435574, Note_on_c, 9, 59, 0
3, 435642, Note_on_c, 9, 44, 0
3, 435912, Note_on_c, 9, 59, 66
3, 435977, Note_on_c, 9, 59, 0
3, 436389, Note_on_c, 9, 59, 71
3, 436439, Note_on_c, 9, 38, 59
3, 436500, Note_on_c, 9, 59, 0
3, 436698, Note_on_c, 9, 38, 0
3, 436906, Note_on_c, 9, 59, 66
3, 437067, Note_on_c, 9, 59, 0
3, 437396, Note_on_c, 9, 36, 41
3, 437406, Note_on_c, 9, 59, 44
3, 437480, Note_on_c, 9, 59, 0
3, 437572, Note_on_c, 9, 36, 0
3, 437871, Note_on_c, 9, 59, 66
3, 437993, Note_on_c, 9, 59, 0
3, 438334, Note_on_c, 9, 59, 37
3, 438424, Note_on_c, 9, 59, 0
3, 438799, Note_on_c, 9, 59, 61
3, 438885, Note_on_c, 9, 59, 0
3, 440210, Note_on_c, 9, 59, 72
3, 440246, Note_on_c, 9, 38, 53
3, 440409, Note_on_c, 9, 38, 0
3, 440715, Note_on_c, 9, 38, 49
3, 440854, Note_on_c, 9, 59, 0
3, 440927, Note_on_c, 9, 38, 0
3, 441178, Note_on_c, 9, 59, 60
3, 441216, Note_on_c, 9, 36, 37
3, 441268, Note_on_c, 9, 59, 0
3, 441455, Note_on_c, 9, 36, 0
3, 441692, Note_on_c, 9, 59, 58
3, 441769, Note_on_c, 9, 59, 0
3, 442165, Note_on_c, 9, 53, 31
3, 442255, Note_on_c, 9, 53, 0
3, 443074, Note_on_c, 9, 38, 51
3, 443105, Note_on_c, 9, 53, 52
3, 443242, Note_on_c, 9, 53, 0
3, 443472, Note_on_c, 9, 38, 0
3, 444014, Note_on_c, 9, 38, 42
3, 444105, Note_on_c, 9, 53, 54
3, 444151, Note_on_c, 9, 38, 0
3, 444251, Note_on_c, 9, 53, 0
3, 444505, Note_on_c, 9, 38, 37
3, 444756, Note_on_c, 9, 38, 0
3, 444992, Note_on_c, 9, 36, 26
3, 445059, Note_on_c, 9, 53, 36
3, 445088, Note_on_c, 9, 36, 0
3, 445152, Note_on_c, 9, 53, 0
3, 445446, Note_on_c, 9, 36, 27
3, 445536, Note_on_c, 9, 59, 39
3, 445649, Note_on_c, 9, 59, 0
3, 445710, Note_on_c, 9, 36, 0
3, 445977, Note_on_c, 9, 59, 33
3, 446076, Note_on_c, 9, 59, 0
3, 446432, Note_on_c, 9, 59, 48
3, 446539, Note_on_c, 9, 59, 0
3, 446911, Note_on_c, 9, 51, 40
3, 447129, Note_on_c, 9, 51, 0
3, 447387, Note_on_c, 9, 59, 32
3, 447514, Note_on_c, 9, 59, 0
3, 447891, Note_on_c, 9, 59, 42
3, 448017, Note_on_c, 9, 59, 0
3, 448375, Note_on_c, 9, 59, 48
3, 448482, Note_on_c, 9, 59, 0
3, 448847, Note_on_c, 9, 59, 74
3, 448933, Note_on_c, 9, 59, 0
3, 449338, Note_on_c, 9, 59, 105
3, 449593, Note_on_c, 9, 59, 0
3, 449866, Note_on_c, 9, 59, 50
3, 449943, Note_on_c, 9, 59, 0
3, 450288, Note_on_c, 9, 59, 48
3, 450364, Note_on_c, 9, 59, 0
3, 450839, Note_on_c, 9, 59, 87
3, 451395, Note_on_c, 9, 59, 0
3, 451810, Note_on_c, 9, 59, 74
3, 452090, Note_on_c, 9, 59, 0
3, 452753, Note_on_c, 9, 59, 60
3, 452901, Note_on_c, 9, 59, 0
3, 453259, Note_on_c, 9, 59, 70
3, 453496, Note_on_c, 9, 59, 0
3, 454110, Note_on_c, 9, 59, 54
3, 454211, Note_on_c, 9, 59, 0
3, 454568, Note_on_c, 9, 59, 57
3, 454647, Note_on_c, 9, 59, 0
3, 455094, Note_on_c, 9, 59, 59
3, 455166, Note_on_c, 9, 59, 0
3, 455573, Note_on_c, 9, 51, 48
3, 455716, Note_on_c, 9, 51, 0
3, 456541, Note_on_c, 9, 59, 55
3, 456604, Note_on_c, 9, 59, 0
3, 457018, Note_on_c, 9, 59, 63
3, 457085, Note_on_c, 9, 59, 0
3, 457504, Note_on_c, 9, 51, 37
3, 457604, Note_on_c, 9, 51, 0
3, 457974, Note_on_c, 9, 59, 51
3, 458042, Note_on_c, 9, 59, 0
3, 458394, Note_on_c, 9, 59, 68
3, 458510, Note_on_c, 9, 59, 0
3, 458928, Note_on_c, 9, 59, 63
3, 458989, Note_on_c, 9, 59, 0
3, 459401, Note_on_c, 9, 59, 92
3, 459420, Note_on_c, 9, 38, 33
3, 459515, Note_on_c, 9, 59, 0
3, 459521, Note_on_c, 9, 38, 0
3, 459913, Note_on_c, 9, 59, 92
3, 460077, Note_on_c, 9, 59, 0
3, 460336, Note_on_c, 9, 38, 37
3, 460409, Note_on_c, 9, 59, 52
3, 460496, Note_on_c, 9, 59, 0
3, 460526, Note_on_c, 9, 38, 0
3, 460852, Note_on_c, 9, 36, 34
3, 460930, Note_on_c, 9, 59, 62
3, 461066, Note_on_c, 9, 59, 0
3, 461128, Note_on_c, 9, 36, 0
3, 461286, Note_on_c, 9, 36, 28
3, 461385, Note_on_c, 9, 59, 53
3, 461457, Note_on_c, 9, 59, 0
3, 461565, Note_on_c, 9, 36, 0
3, 461814, Note_on_c, 9, 59, 55
3, 461879, Note_on_c, 9, 59, 0
3, 462207, Note_on_c, 9, 38, 36
3, 462309, Note_on_c, 9, 59, 73
3, 462360, Note_on_c, 9, 38, 0
3, 462375, Note_on_c, 9, 59, 0
3, 462807, Note_on_c, 9, 59, 68
3, 462879, Note_on_c, 9, 59, 0
3, 463205, Note_on_c, 9, 38, 26
3, 463268, Note_on_c, 9, 59, 62
3, 463336, Note_on_c, 9, 59, 0
3, 463428, Note_on_c, 9, 38, 0
3, 463734, Note_on_c, 9, 36, 31
3, 463759, Note_on_c, 9, 59, 84
3, 463931, Note_on_c, 9, 59, 0
3, 464000, Note_on_c, 9, 36, 0
3, 464224, Note_on_c, 9, 36, 37
3, 464317, Note_on_c, 9, 59, 45
3, 464389, Note_on_c, 9, 59, 0
3, 464433, Note_on_c, 9, 36, 0
3, 465216, Note_on_c, 9, 59, 66
3, 465339, Note_on_c, 9, 59, 0
3, 465674, Note_on_c, 9, 59, 61
3, 465746, Note_on_c, 9, 59, 0
3, 466115, Note_on_c, 9, 59, 83
3, 466242, Note_on_c, 9, 59, 0
3, 466600, Note_on_c, 9, 59, 85
3, 466761, Note_on_c, 9, 59, 0
3, 467083, Note_on_c, 9, 59, 53
3, 467161, Note_on_c, 9, 59, 0
3, 467555, Note_on_c, 9, 59, 65
3, 467618, Note_on_c, 9, 59, 0
3, 468046, Note_on_c, 9, 59, 74
3, 468162, Note_on_c, 9, 59, 0
3, 468548, Note_on_c, 9, 59, 66
3, 468678, Note_on_c, 9, 59, 0
3, 469030, Note_on_c, 9, 59, 41
3, 469106, Note_on_c, 9, 59, 0
3, 469493, Note_on_c, 9, 59, 68
3, 469557, Note_on_c, 9, 38, 37
3, 469593, Note_on_c, 9, 59, 0
3, 469713, Note_on_c, 9, 38, 0
3, 469975, Note_on_c, 9, 59, 64
3, 470051, Note_on_c, 9, 59, 0
3, 470940, Note_on_c, 9, 59, 61
3, 471017, Note_on_c, 9, 59, 0
3, 471408, Note_on_c, 9, 38, 30
3, 471459, Note_on_c, 9, 59, 53
3, 471535, Note_on_c, 9, 59, 0
3, 471732, Note_on_c, 9, 38, 0
3, 471918, Note_on_c, 9, 53, 55
3, 471922, Note_on_c, 9, 59, 53
3, 471990, Note_on_c, 9, 59, 0
3, 472027, Note_on_c, 9, 53, 0
3, 472874, Note_on_c, 9, 53, 53
3, 472879, Note_on_c, 9, 59, 59
3, 472983, Note_on_c, 9, 59, 0
3, 473002, Note_on_c, 9, 53, 0
3, 473845, Note_on_c, 9, 59, 61
3, 473859, Note_on_c, 9, 53, 54
3, 473947, Note_on_c, 9, 59, 0
3, 473965, Note_on_c, 9, 53, 0
3, 474336, Note_on_c, 9, 59, 58
3, 474505, Note_on_c, 9, 59, 0
3, 474728, Note_on_c, 9, 38, 48
3, 474773, Note_on_c, 9, 53, 51
3, 474882, Note_on_c, 9, 53, 0
3, 475002, Note_on_c, 9, 38, 0
3, 475266, Note_on_c, 9, 59, 43
3, 475382, Note_on_c, 9, 59, 0
3, 475701, Note_on_c, 9, 37, 31
3, 475736, Note_on_c, 9, 59, 45
3, 475743, Note_on_c, 9, 57, 51
3, 475751, Note_on_c, 9, 53, 49
3, 475839, Note_on_c, 9, 53, 0
3, 475852, Note_on_c, 9, 57, 0
3, 475873, Note_on_c, 9, 37, 0
3, 475883, Note_on_c, 9, 59, 0
3, 476229, Note_on_c, 9, 57, 63
3, 476245, Note_on_c, 9, 36, 40
3, 477204, Note_on_c, 9, 59, 42
3, 477290, Note_on_c, 9, 59, 0
3, 477657, Note_on_c, 9, 59, 35
3, 477747, Note_on_c, 9, 59, 0
3, 478052, Note_on_c, 9, 57, 0
3, 478105, Note_on_c, 9, 59, 53
3, 478205, Note_on_c, 9, 59, 0
3, 478562, Note_on_c, 9, 59, 52
3, 478584, Note_on_c, 9, 36, 0
3, 478643, Note_on_c, 9, 59, 0
3, 478657, Note_on_c, 9, 38, 42
3, 479097, Note_on_c, 9, 59, 36
3, 479184, Note_on_c, 9, 59, 0
3, 479295, Note_on_c, 9, 38, 0
3, 479564, Note_on_c, 9, 59, 57
3, 479743, Note_on_c, 9, 59, 0
3, 480467, Note_on_c, 9, 38, 34
3, 480505, Note_on_c, 9, 59, 49
3, 480639, Note_on_c, 9, 59, 0
3, 481019, Note_on_c, 9, 59, 46
3, 481127, Note_on_c, 9, 38, 0
3, 481151, Note_on_c, 9, 59, 0
3, 481518, Note_on_c, 9, 36, 35
3, 481526, Note_on_c, 9, 53, 31
3, 481624, Note_on_c, 9, 53, 0
3, 481635, Note_on_c, 9, 36, 0
3, 482044, Note_on_c, 9, 36, 24
3, 482355, Note_on_c, 9, 36, 0
3, 482501, Note_on_c, 9, 53, 39
3, 482600, Note_on_c, 9, 53, 0
3, 482999, Note_on_c, 9, 59, 36
3, 483108, Note_on_c, 9, 59, 0
3, 483466, Note_on_c, 9, 53, 28
3, 483497, Note_on_c, 9, 38, 42
3, 483534, Note_on_c, 9, 53, 0
3, 483593, Note_on_c, 9, 38, 0
3, 483956, Note_on_c, 9, 59, 48
3, 484092, Note_on_c, 9, 59, 0
3, 485313, Note_on_c, 9, 59, 49
3, 485426, Note_on_c, 9, 59, 0
3, 485834, Note_on_c, 9, 59, 55
3, 485968, Note_on_c, 9, 59, 0
3, 487220, Note_on_c, 9, 59, 57
3, 487311, Note_on_c, 9, 59, 0
3, 487730, Note_on_c, 9, 59, 55
3, 487816, Note_on_c, 9, 59, 0
3, 489164, Note_on_c, 9, 59, 56
3, 489258, Note_on_c, 9, 59, 0
3, 489620, Note_on_c, 9, 59, 55
3, 489696, Note_on_c, 9, 59, 0
3, 490087, Note_on_c, 9, 53, 55
3, 490157, Note_on_c, 9, 53, 0
3, 490565, Note_on_c, 9, 59, 50
3, 490653, Note_on_c, 9, 59, 0
3, 491048, Note_on_c, 9, 59, 57
3, 491123, Note_on_c, 9, 59, 0
3, 491567, Note_on_c, 9, 59, 67
3, 491639, Note_on_c, 9, 59, 0
3, 492962, Note_on_c, 9, 59, 58
3, 493033, Note_on_c, 9, 59, 0
3, 493459, Note_on_c, 9, 59, 41
3, 493540, Note_on_c, 9, 59, 0
3, 494921, Note_on_c, 9, 59, 47
3, 494997, Note_on_c, 9, 59, 0
3, 496393, Note_on_c, 9, 59, 71
3, 496512, Note_on_c, 9, 59, 0
3, 496650, Note_on_c, 9, 59, 65
3, 496741, Note_on_c, 9, 59, 0
3, 497340, Note_on_c, 9, 59, 68
3, 497399, Note_on_c, 9, 59, 0
3, 497808, Note_on_c, 9, 38, 44
3, 497813, Note_on_c, 9, 59, 79
3, 497917, Note_on_c, 9, 59, 0
3, 497929, Note_on_c, 9, 38, 0
3, 498293, Note_on_c, 9, 59, 78
3, 498305, Note_on_c, 9, 38, 34
3, 498431, Note_on_c, 9, 59, 0
3, 498551, Note_on_c, 9, 38, 0
3, 498777, Note_on_c, 9, 59, 50
3, 498810, Note_on_c, 9, 36, 28
3, 498844, Note_on_c, 9, 59, 0
3, 499006, Note_on_c, 9, 36, 0
3, 499265, Note_on_c, 9, 59, 71
3, 499290, Note_on_c, 9, 36, 17
3, 499373, Note_on_c, 9, 59, 0
3, 499582, Note_on_c, 9, 36, 0
3, 499746, Note_on_c, 9, 59, 74
3, 499778, Note_on_c, 9, 36, 37
3, 499807, Note_on_c, 9, 59, 0
3, 499968, Note_on_c, 9, 36, 0
3, 500230, Note_on_c, 9, 36, 40
3, 500249, Note_on_c, 9, 59, 82
3, 500386, Note_on_c, 9, 59, 0
3, 500515, Note_on_c, 9, 36, 0
3, 501715, Note_on_c, 9, 59, 51
3, 501794, Note_on_c, 9, 59, 0
3, 502209, Note_on_c, 9, 59, 42
3, 502304, Note_on_c, 9, 59, 0
3, 502630, Note_on_c, 9, 51, 67
3, 502859, Note_on_c, 9, 51, 0
3, 503107, Note_on_c, 9, 51, 49
3, 503421, Note_on_c, 9, 51, 0
3, 504554, Note_on_c, 9, 59, 48
3, 504640, Note_on_c, 9, 59, 0
3, 505420, Note_on_c, 9, 51, 46
3, 505652, Note_on_c, 9, 51, 0
3, 505932, Note_on_c, 9, 51, 43
3, 506280, Note_on_c, 9, 51, 0
3, 506353, Note_on_c, 9, 38, 49
3, 506749, Note_on_c, 9, 38, 0
3, 506914, Note_on_c, 9, 59, 46
3, 507011, Note_on_c, 9, 59, 0
3, 507370, Note_on_c, 9, 51, 47
3, 507381, Note_on_c, 9, 36, 35
3, 507499, Note_on_c, 9, 36, 0
3, 507577, Note_on_c, 9, 51, 0
3, 507847, Note_on_c, 9, 51, 50
3, 507868, Note_on_c, 9, 36, 39
3, 508167, Note_on_c, 9, 51, 0
3, 508307, Note_on_c, 9, 36, 0
3, 508341, Note_on_c, 9, 59, 44
3, 508428, Note_on_c, 9, 59, 0
3, 508787, Note_on_c, 9, 51, 21
3, 508924, Note_on_c, 9, 51, 0
3, 509301, Note_on_c, 9, 51, 55
3, 509564, Note_on_c, 9, 51, 0
3, 509809, Note_on_c, 9, 59, 35
3, 509924, Note_on_c, 9, 59, 0
3, 510254, Note_on_c, 9, 51, 59
3, 510580, Note_on_c, 9, 51, 0
3, 511207, Note_on_c, 9, 45, 72
3, 511266, Note_on_c, 9, 51, 49
3, 511518, Note_on_c, 9, 51, 0
3, 511550, Note_on_c, 9, 45, 0
3, 511649, Note_on_c, 9, 45, 39
3, 511766, Note_on_c, 9, 59, 35
3, 511865, Note_on_c, 9, 59, 0
3, 512025, Note_on_c, 9, 45, 0
3, 512192, Note_on_c, 9, 51, 51
3, 512234, Note_on_c, 9, 53, 41
3, 512351, Note_on_c, 9, 53, 0
3, 512389, Note_on_c, 9, 51, 0
3, 512675, Note_on_c, 9, 43, 39
3, 513048, Note_on_c, 9, 43, 0
3, 513166, Note_on_c, 9, 43, 53
3, 513209, Note_on_c, 9, 51, 53
3, 513252, Note_on_c, 9, 53, 42
3, 513264, Note_on_c, 9, 43, 0
3, 513382, Note_on_c, 9, 53, 0
3, 513431, Note_on_c, 9, 51, 0
3, 514150, Note_on_c, 9, 38, 45
3, 514158, Note_on_c, 9, 51, 63
3, 514369, Note_on_c, 9, 51, 0
3, 514384, Note_on_c, 9, 38, 0
3, 514639, Note_on_c, 9, 57, 52
3, 514641, Note_on_c, 9, 36, 49
3, 514685, Note_on_c, 9, 51, 48
3, 514869, Note_on_c, 9, 51, 0
3, 516043, Note_on_c, 9, 51, 55
3, 516049, Note_on_c, 9, 57, 0
3, 516212, Note_on_c, 9, 51, 0
3, 516501, Note_on_c, 9, 51, 46
3, 516648, Note_on_c, 9, 51, 0
3, 517011, Note_on_c, 9, 51, 42
3, 517113, Note_on_c, 9, 51, 0
3, 517499, Note_on_c, 9, 51, 64
3, 517655, Note_on_c, 9, 51, 0
3, 517958, Note_on_c, 9, 36, 0
3, 518486, Note_on_c, 9, 38, 35
3, 518572, Note_on_c, 9, 38, 0
3, 518689, Note_on_c, 9, 38, 33
3, 518851, Note_on_c, 9, 38, 0
3, 518873, Note_on_c, 9, 53, 52
3, 518921, Note_on_c, 9, 38, 28
3, 518954, Note_on_c, 9, 53, 0
3, 519111, Note_on_c, 9, 38, 0
3, 519280, Note_on_c, 9, 51, 33
3, 519412, Note_on_c, 9, 51, 0
3, 519838, Note_on_c, 9, 51, 50
3, 519951, Note_on_c, 9, 36, 50
3, 519952, Note_on_c, 9, 51, 0
3, 520142, Note_on_c, 9, 36, 0
3, 520341, Note_on_c, 9, 51, 67
3, 520499, Note_on_c, 9, 51, 0
3, 520920, Note_on_c, 9, 36, 48
3, 521065, Note_on_c, 9, 36, 0
3, 521832, Note_on_c, 9, 51, 44
3, 521974, Note_on_c, 9, 51, 0
3, 522328, Note_on_c, 9, 51, 60
3, 522529, Note_on_c, 9, 51, 0
3, 523307, Note_on_c, 9, 51, 31
3, 523375, Note_on_c, 9, 51, 0
3, 523808, Note_on_c, 9, 51, 70
3, 523945, Note_on_c, 9, 51, 0
3, 524741, Note_on_c, 9, 51, 37
3, 524810, Note_on_c, 9, 51, 0
3, 525278, Note_on_c, 9, 51, 83
3, 525498, Note_on_c, 9, 51, 0
3, 526133, Note_on_c, 9, 51, 33
3, 526214, Note_on_c, 9, 51, 0
3, 526621, Note_on_c, 9, 38, 44
3, 526684, Note_on_c, 9, 51, 69
3, 526772, Note_on_c, 9, 38, 0
3, 526841, Note_on_c, 9, 51, 0
3, 527110, Note_on_c, 9, 38, 31
3, 527418, Note_on_c, 9, 38, 0
3, 527583, Note_on_c, 9, 51, 52
3, 527607, Note_on_c, 9, 36, 35
3, 527717, Note_on_c, 9, 51, 0
3, 527735, Note_on_c, 9, 36, 0
3, 528131, Note_on_c, 9, 51, 70
3, 528143, Note_on_c, 9, 53, 64
3, 528435, Note_on_c, 9, 51, 0
3, 528527, Note_on_c, 9, 38, 43
3, 528535, Note_on_c, 9, 53, 0
3, 528652, Note_on_c, 9, 38, 0
3, 528942, Note_on_c, 9, 51, 49
3, 528995, Note_on_c, 9, 38, 37
3, 529079, Note_on_c, 9, 51, 0
3, 529182, Note_on_c, 9, 38, 0
3, 529499, Note_on_c, 9, 36, 37
3, 529514, Note_on_c, 9, 51, 70
3, 529528, Note_on_c, 9, 53, 67
3, 529743, Note_on_c, 9, 51, 0
3, 529772, Note_on_c, 9, 36, 0
3, 529834, Note_on_c, 9, 53, 0
3, 530473, Note_on_c, 9, 51, 53
3, 530596, Note_on_c, 9, 51, 0
3, 530968, Note_on_c, 9, 51, 72
3, 530980, Note_on_c, 9, 53, 62
3, 531300, Note_on_c, 9, 53, 0
3, 531339, Note_on_c, 9, 51, 0
3, 531894, Note_on_c, 9, 51, 45
3, 531967, Note_on_c, 9, 51, 0
3, 532327, Note_on_c, 9, 38, 51
3, 532409, Note_on_c, 9, 51, 74
3, 532427, Note_on_c, 9, 53, 67
3, 532533, Note_on_c, 9, 38, 0
3, 532615, Note_on_c, 9, 51, 0
3, 532657, Note_on_c, 9, 53, 0
3, 532795, Note_on_c, 9, 36, 32
3, 532966, Note_on_c, 9, 36, 0
3, 533240, Note_on_c, 9, 36, 48
3, 533323, Note_on_c, 9, 51, 55
3, 533434, Note_on_c, 9, 36, 0
3, 533449, Note_on_c, 9, 51, 0
3, 533817, Note_on_c, 9, 51, 64
3, 533953, Note_on_c, 9, 51, 0
3, 534202, Note_on_c, 9, 38, 57
3, 534455, Note_on_c, 9, 38, 0
3, 534689, Note_on_c, 9, 36, 38
3, 534754, Note_on_c, 9, 51, 52
3, 534793, Note_on_c, 9, 36, 0
3, 534836, Note_on_c, 9, 51, 0
3, 535189, Note_on_c, 9, 36, 43
3, 535255, Note_on_c, 9, 51, 77
3, 535342, Note_on_c, 9, 36, 0
3, 535414, Note_on_c, 9, 51, 0
3, 536211, Note_on_c, 9, 51, 71
3, 536348, Note_on_c, 9, 51, 0
3, 536730, Note_on_c, 9, 51, 34
3, 536800, Note_on_c, 9, 51, 0
3, 537179, Note_on_c, 9, 51, 59
3, 537311, Note_on_c, 9, 51, 0
3, 537698, Note_on_c, 9, 51, 64
3, 537846, Note_on_c, 9, 51, 0
3, 538157, Note_on_c, 9, 51, 67
3, 538179, Note_on_c, 9, 44, 32
3, 538182, Note_on_c, 9, 53, 59
3, 538312, Note_on_c, 9, 51, 0
3, 538349, Note_on_c, 9, 53, 0
3, 538357, Note_on_c, 9, 44, 0
3, 538655, Note_on_c, 9, 51, 46
3, 538765, Note_on_c, 9, 51, 0
3, 539110, Note_on_c, 9, 51, 71
3, 539112, Note_on_c, 9, 53, 62
3, 539133, Note_on_c, 9, 44, 34
3, 539258, Note_on_c, 9, 53, 0
3, 539289, Note_on_c, 9, 51, 0
3, 539328, Note_on_c, 9, 44, 0
3, 539623, Note_on_c, 9, 51, 47
3, 539756, Note_on_c, 9, 51, 0
3, 540083, Note_on_c, 9, 44, 37
3, 540090, Note_on_c, 9, 51, 60
3, 540231, Note_on_c, 9, 51, 0
3, 540270, Note_on_c, 9, 44, 0
3, 540565, Note_on_c, 9, 51, 60
3, 540699, Note_on_c, 9, 51, 0
3, 541039, Note_on_c, 9, 51, 72
3, 541044, Note_on_c, 9, 53, 64
3, 541049, Note_on_c, 9, 44, 44
3, 541124, Note_on_c, 9, 44, 0
3, 541225, Note_on_c, 9, 51, 0
3, 541266, Note_on_c, 9, 53, 0
3, 541549, Note_on_c, 9, 51, 39
3, 541658, Note_on_c, 9, 51, 0
3, 542005, Note_on_c, 9, 51, 71
3, 542010, Note_on_c, 9, 38, 40
3, 542015, Note_on_c, 9, 53, 60
3, 542202, Note_on_c, 9, 38, 0
3, 542214, Note_on_c, 9, 51, 0
3, 542234, Note_on_c, 9, 53, 0
3, 542492, Note_on_c, 9, 51, 45
3, 542631, Note_on_c, 9, 51, 0
3, 542938, Note_on_c, 9, 38, 50
3, 542943, Note_on_c, 9, 51, 71
3, 542955, Note_on_c, 9, 53, 65
3, 543100, Note_on_c, 9, 38, 0
3, 543172, Note_on_c, 9, 51, 0
3, 543177, Note_on_c, 9, 53, 0
3, 543443, Note_on_c, 9, 51, 55
3, 543576, Note_on_c, 9, 51, 0
3, 543893, Note_on_c, 9, 51, 75
3, 543918, Note_on_c, 9, 44, 35
3, 543933, Note_on_c, 9, 38, 41
3, 544043, Note_on_c, 9, 44, 0
3, 544055, Note_on_c, 9, 51, 0
3, 544121, Note_on_c, 9, 38, 0
3, 544393, Note_on_c, 9, 51, 70
3, 544559, Note_on_c, 9, 51, 0
3, 544872, Note_on_c, 9, 51, 52
3, 544888, Note_on_c, 9, 38, 54
3, 545001, Note_on_c, 9, 51, 0
3, 545245, Note_on_c, 9, 38, 0
3, 545366, Note_on_c, 9, 51, 73
3, 545539, Note_on_c, 9, 51, 0
3, 545810, Note_on_c, 9, 38, 48
3, 545826, Note_on_c, 9, 51, 50
3, 545939, Note_on_c, 9, 38, 0
3, 545961, Note_on_c, 9, 51, 0
3, 546278, Note_on_c, 9, 57, 37
3, 546280, Note_on_c, 9, 36, 46
3, 546326, Note_on_c, 9, 51, 56
3, 546472, Note_on_c, 9, 51, 0
3, 546813, Note_on_c, 9, 51, 51
3, 546952, Note_on_c, 9, 51, 0
3, 547287, Note_on_c, 9, 51, 59
3, 547447, Note_on_c, 9, 51, 0
3, 547751, Note_on_c, 9, 59, 73
3, 547952, Note_on_c, 9, 59, 0
3, 548086, Note_on_c, 9, 57, 0
3, 548207, Note_on_c, 9, 51, 46
3, 548418, Note_on_c, 9, 51, 0
3, 548721, Note_on_c, 9, 51, 60
3, 548897, Note_on_c, 9, 51, 0
3, 549182, Note_on_c, 9, 36, 0
3, 549694, Note_on_c, 9, 51, 55
3, 549856, Note_on_c, 9, 51, 0
3, 550175, Note_on_c, 9, 51, 40
3, 550303, Note_on_c, 9, 51, 0
3, 550646, Note_on_c, 9, 51, 60
3, 550784, Note_on_c, 9, 51, 0
3, 551107, Note_on_c, 9, 51, 68
3, 551266, Note_on_c, 9, 51, 0
3, 552591, Note_on_c, 9, 51, 56
3, 552737, Note_on_c, 9, 51, 0
3, 553082, Note_on_c, 9, 51, 56
3, 553265, Note_on_c, 9, 51, 0
3, 553975, Note_on_c, 9, 51, 52
3, 554133, Note_on_c, 9, 51, 0
3, 554965, Note_on_c, 9, 51, 59
3, 555096, Note_on_c, 9, 51, 0
3, 555423, Note_on_c, 9, 51, 52
3, 555560, Note_on_c, 9, 51, 0
3, 555909, Note_on_c, 9, 51, 39
3, 555988, Note_on_c, 9, 51, 0
3, 556386, Note_on_c, 9, 51, 72
3, 557030, Note_on_c, 9, 51, 0
3, 557308, Note_on_c, 9, 38, 38
3, 557319, Note_on_c, 9, 51, 46
3, 557412, Note_on_c, 9, 38, 0
3, 557443, Note_on_c, 9, 51, 0
3, 557839, Note_on_c, 9, 51, 31
3, 557910, Note_on_c, 9, 51, 0
3, 558304, Note_on_c, 9, 51, 51
3, 558406, Note_on_c, 9, 51, 0
3, 558809, Note_on_c, 9, 51, 59
3, 558924, Note_on_c, 9, 51, 0
3, 559258, Note_on_c, 9, 38, 34
3, 559293, Note_on_c, 9, 51, 65
3, 559392, Note_on_c, 9, 51, 0
3, 559396, Note_on_c, 9, 38, 0
3, 559802, Note_on_c, 9, 51, 83
3, 560011, Note_on_c, 9, 51, 0
3, 560218, Note_on_c, 9, 36, 29
3, 560376, Note_on_c, 9, 36, 0
3, 560747, Note_on_c, 9, 51, 35
3, 560828, Note_on_c, 9, 51, 0
3, 561263, Note_on_c, 9, 51, 55
3, 561409, Note_on_c, 9, 51, 0
3, 561703, Note_on_c, 9, 51, 38
3, 561858, Note_on_c, 9, 51, 0
3, 562160, Note_on_c, 9, 51, 48
3, 562199, Note_on_c, 9, 53, 36
3, 562452, Note_on_c, 9, 53, 0
3, 562454, Note_on_c, 9, 51, 0
3, 563075, Note_on_c, 9, 51, 47
3, 563167, Note_on_c, 9, 38, 30
3, 563264, Note_on_c, 9, 51, 0
3, 563408, Note_on_c, 9, 38, 0
3, 563644, Note_on_c, 9, 51, 51
3, 563818, Note_on_c, 9, 51, 0
3, 564081, Note_on_c, 9, 36, 34
3, 564098, Note_on_c, 9, 51, 59
3, 564269, Note_on_c, 9, 51, 0
3, 564312, Note_on_c, 9, 36, 0
3, 564586, Note_on_c, 9, 51, 43
3, 564770, Note_on_c, 9, 51, 0
3, 565006, Note_on_c, 9, 51, 76
3, 565029, Note_on_c, 9, 53, 77
3, 565872, Note_on_c, 9, 51, 0
3, 565953, Note_on_c, 9, 53, 0
3, 566008, Note_on_c, 9, 51, 49
3, 566187, Note_on_c, 9, 51, 0
3, 566903, Note_on_c, 9, 51, 57
3, 567162, Note_on_c, 9, 51, 0
3, 567851, Note_on_c, 9, 51, 53
3, 568137, Note_on_c, 9, 51, 0
3, 568885, Note_on_c, 9, 51, 69
3, 569112, Note_on_c, 9, 51, 0
3, 569871, Note_on_c, 9, 51, 62
3, 570012, Note_on_c, 9, 51, 0
3, 570805, Note_on_c, 9, 51, 51
3, 570834, Note_on_c, 9, 53, 44
3, 570929, Note_on_c, 9, 53, 0
3, 570936, Note_on_c, 9, 51, 0
3, 571779, Note_on_c, 9, 51, 46
3, 571795, Note_on_c, 9, 53, 45
3, 571897, Note_on_c, 9, 53, 0
3, 571899, Note_on_c, 9, 51, 0
3, 572756, Note_on_c, 9, 51, 46
3, 572777, Note_on_c, 9, 53, 39
3, 572868, Note_on_c, 9, 53, 0
3, 572879, Note_on_c, 9, 51, 0
3, 573180, Note_on_c, 9, 44, 36
3, 573418, Note_on_c, 9, 44, 0
3, 573685, Note_on_c, 9, 51, 50
3, 573709, Note_on_c, 9, 53, 42
3, 573806, Note_on_c, 9, 53, 0
3, 573815, Note_on_c, 9, 51, 0
3, 574651, Note_on_c, 9, 51, 46
3, 574674, Note_on_c, 9, 53, 38
3, 574785, Note_on_c, 9, 53, 0
3, 574790, Note_on_c, 9, 51, 0
3, 575111, Note_on_c, 9, 44, 38
3, 575211, Note_on_c, 9, 44, 0
3, 575547, Note_on_c, 9, 38, 33
3, 575566, Note_on_c, 9, 51, 50
3, 575691, Note_on_c, 9, 38, 0
3, 575710, Note_on_c, 9, 51, 0
3, 576030, Note_on_c, 9, 36, 22
3, 576174, Note_on_c, 9, 36, 0
3, 576568, Note_on_c, 9, 51, 64
3, 576587, Note_on_c, 9, 36, 27
3, 576705, Note_on_c, 9, 36, 0
3, 576710, Note_on_c, 9, 51, 0
3, 577048, Note_on_c, 9, 36, 25
3, 577263, Note_on_c, 9, 36, 0
3, 577520, Note_on_c, 9, 51, 52
3, 577659, Note_on_c, 9, 51, 0
3, 578455, Note_on_c, 9, 44, 27
3, 578465, Note_on_c, 9, 51, 53
3, 578564, Note_on_c, 9, 44, 0
3, 578602, Note_on_c, 9, 51, 0
3, 578951, Note_on_c, 9, 51, 49
3, 579069, Note_on_c, 9, 51, 0
3, 579382, Note_on_c, 9, 38, 36
3, 579417, Note_on_c, 9, 51, 59
3, 579525, Note_on_c, 9, 38, 0
3, 579526, Note_on_c, 9, 51, 0
3, 579922, Note_on_c, 9, 51, 74
3, 580091, Note_on_c, 9, 51, 0
3, 580345, Note_on_c, 9, 38, 37
3, 580415, Note_on_c, 9, 51, 42
3, 580523, Note_on_c, 9, 51, 0
3, 580612, Note_on_c, 9, 38, 0
3, 581307, Note_on_c, 9, 51, 58
3, 581329, Note_on_c, 9, 38, 37
3, 581443, Note_on_c, 9, 51, 0
3, 581457, Note_on_c, 9, 38, 0
3, 581793, Note_on_c, 9, 51, 46
3, 581906, Note_on_c, 9, 38, 34
3, 581909, Note_on_c, 9, 51, 0
3, 582249, Note_on_c, 9, 51, 46
3, 582327, Note_on_c, 9, 38, 0
3, 582337, Note_on_c, 9, 51, 0
3, 583184, Note_on_c, 9, 51, 46
3, 583307, Note_on_c, 9, 51, 0
3, 583690, Note_on_c, 9, 51, 48
3, 583819, Note_on_c, 9, 51, 0
3, 584194, Note_on_c, 9, 51, 44
3, 584217, Note_on_c, 9, 38, 44
3, 584283, Note_on_c, 9, 51, 0
3, 584527, Note_on_c, 9, 38, 0
3, 585125, Note_on_c, 9, 51, 37
3, 585208, Note_on_c, 9, 38, 44
3, 585222, Note_on_c, 9, 51, 0
3, 585604, Note_on_c, 9, 38, 0
3, 585612, Note_on_c, 9, 51, 42
3, 585734, Note_on_c, 9, 51, 0
3, 586124, Note_on_c, 9, 51, 64
3, 586135, Note_on_c, 9, 38, 46
3, 586269, Note_on_c, 9, 51, 0
3, 586528, Note_on_c, 9, 38, 0
3, 587059, Note_on_c, 9, 51, 58
3, 587082, Note_on_c, 9, 36, 34
3, 587193, Note_on_c, 9, 51, 0
3, 587209, Note_on_c, 9, 36, 0
3, 588047, Note_on_c, 9, 51, 56
3, 588073, Note_on_c, 9, 36, 39
3, 588173, Note_on_c, 9, 36, 0
3, 588189, Note_on_c, 9, 51, 0
3, 588990, Note_on_c, 9, 38, 53
3, 589004, Note_on_c, 9, 53, 57
3, 589014, Note_on_c, 9, 51, 44
3, 589120, Note_on_c, 9, 51, 0
3, 589139, Note_on_c, 9, 53, 0
3, 589152, Note_on_c, 9, 38, 0
3, 589497, Note_on_c, 9, 38, 42
3, 589691, Note_on_c, 9, 38, 0
3, 589952, Note_on_c, 9, 51, 53
3, 589957, Note_on_c, 9, 38, 39
3, 589979, Note_on_c, 9, 53, 39
3, 590062, Note_on_c, 9, 53, 0
3, 590095, Note_on_c, 9, 51, 0
3, 590138, Note_on_c, 9, 38, 0
3, 590450, Note_on_c, 9, 51, 48
3, 590470, Note_on_c, 9, 36, 49
3, 590548, Note_on_c, 9, 36, 0
3, 590575, Note_on_c, 9, 51, 0
3, 590942, Note_on_c, 9, 36, 43
3, 590957, Note_on_c, 9, 51, 69
3, 591089, Note_on_c, 9, 51, 0
3, 591095, Note_on_c, 9, 36, 0
3, 591931, Note_on_c, 9, 51, 64
3, 592093, Note_on_c, 9, 51, 0
3, 592416, Note_on_c, 9, 51, 31
3, 592485, Note_on_c, 9, 51, 0
3, 592879, Note_on_c, 9, 51, 71
3, 593024, Note_on_c, 9, 51, 0
3, 593874, Note_on_c, 9, 51, 67
3, 594013, Note_on_c, 9, 51, 0
3, 594814, Note_on_c, 9, 51, 74
3, 594974, Note_on_c, 9, 51, 0
3, 595762, Note_on_c, 9, 53, 55
3, 595926, Note_on_c, 9, 53, 0
3, 596720, Note_on_c, 9, 51, 55
3, 596866, Note_on_c, 9, 51, 0
3, 597649, Note_on_c, 9, 51, 63
3, 597770, Note_on_c, 9, 51, 0
3, 598177, Note_on_c, 9, 51, 38
3, 598239, Note_on_c, 9, 51, 0
3, 598642, Note_on_c, 9, 51, 69
3, 598779, Note_on_c, 9, 51, 0
3, 599124, Note_on_c, 9, 51, 35
3, 599187, Note_on_c, 9, 51, 0
3, 599594, Note_on_c, 9, 51, 73
3, 599745, Note_on_c, 9, 51, 0
3, 600569, Note_on_c, 9, 51, 74
3, 600729, Note_on_c, 9, 51, 0
3, 601528, Note_on_c, 9, 38, 41
3, 601538, Note_on_c, 9, 51, 71
3, 601693, Note_on_c, 9, 51, 0
3, 601725, Note_on_c, 9, 38, 0
3, 601998, Note_on_c, 9, 38, 39
3, 602178, Note_on_c, 9, 38, 0
3, 602468, Note_on_c, 9, 51, 68
3, 602484, Note_on_c, 9, 36, 47
3, 602651, Note_on_c, 9, 51, 0
3, 602714, Note_on_c, 9, 36, 0
3, 603401, Note_on_c, 9, 38, 39
3, 603420, Note_on_c, 9, 51, 60
3, 603561, Note_on_c, 9, 51, 0
3, 603638, Note_on_c, 9, 38, 0
3, 603885, Note_on_c, 9, 38, 36
3, 603913, Note_on_c, 9, 51, 31
3, 603987, Note_on_c, 9, 51, 0
3, 604087, Note_on_c, 9, 38, 0
3, 604339, Note_on_c, 9, 51, 61
3, 604401, Note_on_c, 9, 36, 34
3, 604476, Note_on_c, 9, 51, 0
3, 604512, Note_on_c, 9, 36, 0
3, 604817, Note_on_c, 9, 51, 56
3, 604948, Note_on_c, 9, 51, 0
3, 605284, Note_on_c, 9, 51, 67
3, 605287, Note_on_c, 9, 53, 63
3, 605305, Note_on_c, 9, 38, 41
3, 605460, Note_on_c, 9, 38, 0
3, 605493, Note_on_c, 9, 51, 0
3, 605511, Note_on_c, 9, 53, 0
3, 605766, Note_on_c, 9, 38, 34
3, 605773, Note_on_c, 9, 51, 45
3, 605846, Note_on_c, 9, 38, 0
3, 605926, Note_on_c, 9, 51, 0
3, 606213, Note_on_c, 9, 38, 47
3, 606224, Note_on_c, 9, 53, 60
3, 606225, Note_on_c, 9, 51, 70
3, 606395, Note_on_c, 9, 53, 0
3, 606398, Note_on_c, 9, 38, 0
3, 606445, Note_on_c, 9, 51, 0
3, 606687, Note_on_c, 9, 57, 58
3, 606729, Note_on_c, 9, 51, 36
3, 606734, Note_on_c, 9, 36, 40
3, 606869, Note_on_c, 9, 51, 0
3, 607167, Note_on_c, 9, 51, 49
3, 607301, Note_on_c, 9, 51, 0
3, 608160, Note_on_c, 9, 51, 55
3, 608267, Note_on_c, 9, 51, 0
3, 608626, Note_on_c, 9, 51, 51
3, 608781, Note_on_c, 9, 51, 0
3, 609828, Note_on_c, 9, 57, 0
3, 610099, Note_on_c, 9, 51, 52
3, 610221, Note_on_c, 9, 51, 0
3, 610360, Note_on_c, 9, 36, 0
3, 610609, Note_on_c, 9, 51, 51
3, 610764, Note_on_c, 9, 51, 0
3, 611086, Note_on_c, 9, 51, 49
3, 611204, Note_on_c, 9, 51, 0
3, 611614, Note_on_c, 9, 51, 30
3, 611794, Note_on_c, 9, 51, 0
3, 612063, Note_on_c, 9, 51, 53
3, 612241, Note_on_c, 9, 51, 0
3, 612544, Note_on_c, 9, 51, 47
3, 612700, Note_on_c, 9, 51, 0
3, 612987, Note_on_c, 9, 59, 66
3, 613172, Note_on_c, 9, 59, 0
3, 613433, Note_on_c, 9, 51, 37
3, 613642, Note_on_c, 9, 51, 0
3, 613873, Note_on_c, 9, 51, 49
3, 614019, Note_on_c, 9, 51, 0
3, 614411, Note_on_c, 9, 51, 51
3, 614464, Note_on_c, 9, 53, 30
3, 614675, Note_on_c, 9, 51, 0
3, 614730, Note_on_c, 9, 53, 0
3, 614902, Note_on_c, 9, 38, 47
3, 615061, Note_on_c, 9, 38, 0
3, 615351, Note_on_c, 9, 51, 35
3, 615424, Note_on_c, 9, 36, 19
3, 615457, Note_on_c, 9, 51, 0
3, 615520, Note_on_c, 9, 36, 0
3, 615876, Note_on_c, 9, 51, 69
3, 615891, Note_on_c, 9, 53, 67
3, 615895, Note_on_c, 9, 36, 29
3, 616001, Note_on_c, 9, 36, 0
3, 616381, Note_on_c, 9, 36, 30
3, 616419, Note_on_c, 9, 51, 0
3, 616507, Note_on_c, 9, 53, 0
3, 616541, Note_on_c, 9, 36, 0
3, 616837, Note_on_c, 9, 51, 49
3, 616977, Note_on_c, 9, 51, 0
3, 617368, Note_on_c, 9, 51, 77
3, 617382, Note_on_c, 9, 53, 69
3, 617842, Note_on_c, 9, 38, 46
3, 617924, Note_on_c, 9, 38, 0
3, 617950, Note_on_c, 9, 51, 0
3, 618032, Note_on_c, 9, 53, 0
3, 618271, Note_on_c, 9, 51, 51
3, 618354, Note_on_c, 9, 38, 36
3, 618396, Note_on_c, 9, 51, 0
3, 618431, Note_on_c, 9, 38, 0
3, 618815, Note_on_c, 9, 38, 49
3, 618816, Note_on_c, 9, 51, 77
3, 618837, Note_on_c, 9, 53, 71
3, 618884, Note_on_c, 9, 38, 0
3, 619167, Note_on_c, 9, 51, 0
3, 619223, Note_on_c, 9, 53, 0
3, 619280, Note_on_c, 9, 57, 55
3, 619317, Note_on_c, 9, 36, 36
3, 619737, Note_on_c, 9, 51, 53
3, 619874, Note_on_c, 9, 51, 0
3, 620223, Note_on_c, 9, 59, 80
3, 620522, Note_on_c, 9, 59, 0
3, 620976, Note_on_c, 9, 57, 0
3, 621184, Note_on_c, 9, 51, 49
3, 621186, Note_on_c, 9, 53, 53
3, 621250, Note_on_c, 9, 51, 0
3, 621258, Note_on_c, 9, 36, 0
3, 621291, Note_on_c, 9, 53, 0
3, 621638, Note_on_c, 9, 51, 56
3, 621646, Note_on_c, 9, 53, 58
3, 621734, Note_on_c, 9, 53, 0
3, 621749, Note_on_c, 9, 51, 0
3, 622129, Note_on_c, 9, 51, 72
3, 622148, Note_on_c, 9, 53, 62
3, 622324, Note_on_c, 9, 53, 0
3, 622324, Note_on_c, 9, 51, 0
3, 622982, Note_on_c, 9, 51, 48
3, 623129, Note_on_c, 9, 51, 0
3, 623475, Note_on_c, 9, 38, 29
3, 623500, Note_on_c, 9, 51, 51
3, 623570, Note_on_c, 9, 51, 0
3, 623580, Note_on_c, 9, 38, 0
3, 624014, Note_on_c, 9, 51, 64
3, 624020, Note_on_c, 9, 53, 53
3, 624306, Note_on_c, 9, 53, 0
3, 624327, Note_on_c, 9, 51, 0
3, 624477, Note_on_c, 9, 38, 37
3, 624623, Note_on_c, 9, 38, 0
3, 624938, Note_on_c, 9, 51, 46
3, 625075, Note_on_c, 9, 51, 0
3, 625401, Note_on_c, 9, 36, 40
3, 625446, Note_on_c, 9, 51, 71
3, 625462, Note_on_c, 9, 53, 62
3, 625575, Note_on_c, 9, 36, 0
3, 625605, Note_on_c, 9, 51, 0
3, 625612, Note_on_c, 9, 53, 0
3, 625868, Note_on_c, 9, 36, 39
3, 625902, Note_on_c, 9, 51, 73
3, 625914, Note_on_c, 9, 53, 67
3, 626054, Note_on_c, 9, 36, 0
3, 626432, Note_on_c, 9, 53, 0
3, 626490, Note_on_c, 9, 51, 0
3, 626925, Note_on_c, 9, 51, 49
3, 627065, Note_on_c, 9, 51, 0
3, 627410, Note_on_c, 9, 51, 74
3, 627417, Note_on_c, 9, 53, 69
3, 627586, Note_on_c, 9, 51, 0
3, 627606, Note_on_c, 9, 53, 0
3, 627856, Note_on_c, 9, 51, 75
3, 627875, Note_on_c, 9, 53, 67
3, 628391, Note_on_c, 9, 38, 50
3, 628528, Note_on_c, 9, 38, 0
3, 628544, Note_on_c, 9, 51, 0
3, 628583, Note_on_c, 9, 53, 0
3, 628873, Note_on_c, 9, 51, 46
3, 628879, Note_on_c, 9, 36, 24
3, 629002, Note_on_c, 9, 36, 0
3, 629023, Note_on_c, 9, 51, 0
3, 629336, Note_on_c, 9, 36, 48
3, 629354, Note_on_c, 9, 51, 51
3, 629501, Note_on_c, 9, 51, 0
3, 629562, Note_on_c, 9, 36, 0
3, 629864, Note_on_c, 9, 53, 42
3, 629954, Note_on_c, 9, 53, 0
3, 630336, Note_on_c, 9, 51, 34
3, 630452, Note_on_c, 9, 51, 0
3, 631246, Note_on_c, 9, 51, 47
3, 631262, Note_on_c, 9, 38, 32
3, 631385, Note_on_c, 9, 38, 0
3, 631413, Note_on_c, 9, 51, 0
3, 631708, Note_on_c, 9, 51, 36
3, 631858, Note_on_c, 9, 51, 0
3, 632205, Note_on_c, 9, 51, 68
3, 632214, Note_on_c, 9, 38, 29
3, 632321, Note_on_c, 9, 51, 0
3, 632501, Note_on_c, 9, 38, 0
3, 632683, Note_on_c, 9, 51, 91
3, 632721, Note_on_c, 9, 36, 36
3, 632983, Note_on_c, 9, 51, 0
3, 633196, Note_on_c, 9, 36, 0
3, 633732, Note_on_c, 9, 51, 30
3, 633840, Note_on_c, 9, 51, 0
3, 634144, Note_on_c, 9, 51, 37
3, 634313, Note_on_c, 9, 51, 0
3, 634611, Note_on_c, 9, 51, 32
3, 634795, Note_on_c, 9, 51, 0
3, 635042, Note_on_c, 9, 51, 55
3, 635220, Note_on_c, 9, 51, 0
3, 635545, Note_on_c, 9, 51, 30
3, 635579, Note_on_c, 9, 53, 25
3, 635795, Note_on_c, 9, 51, 0
3, 635838, Note_on_c, 9, 53, 0
3, 636043, Note_on_c, 9, 51, 30
3, 636057, Note_on_c, 9, 53, 26
3, 636227, Note_on_c, 9, 51, 0
3, 636254, Note_on_c, 9, 53, 0
3, 636557, Note_on_c, 9, 51, 37
3, 636577, Note_on_c, 9, 53, 29
3, 636788, Note_on_c, 9, 53, 0
3, 636802, Note_on_c, 9, 51, 0
3, 636920, Note_on_c, 9, 38, 31
3, 637088, Note_on_c, 9, 38, 0
3, 637937, Note_on_c, 9, 36, 30
3, 637974, Note_on_c, 9, 51, 27
3, 638078, Note_on_c, 9, 36, 0
3, 638120, Note_on_c, 9, 51, 0
3, 638451, Note_on_c, 9, 51, 27
3, 638652, Note_on_c, 9, 51, 0
3, 639479, Note_on_c, 9, 51, 32
3, 639665, Note_on_c, 9, 51, 0
3, 640021, Note_on_c, 9, 51, 23
3, 640176, Note_on_c, 9, 51, 0
3, 640882, Note_on_c, 9, 44, 25
3, 640913, Note_on_c, 9, 51, 23
3, 641067, Note_on_c, 9, 44, 0
3, 641101, Note_on_c, 9, 51, 0
3, 641392, Note_on_c, 9, 51, 34
3, 641829, Note_on_c, 9, 44, 29
3, 642001, Note_on_c, 9, 44, 0
3, 642059, Note_on_c, 9, 51, 0
3, 642321, Note_on_c, 9, 51, 25
3, 642476, Note_on_c, 9, 51, 0
3, 642816, Note_on_c, 9, 51, 31
3, 642858, Note_on_c, 9, 44, 35
3, 643009, Note_on_c, 9, 51, 0
3, 643033, Note_on_c, 9, 44, 0
3, 643733, Note_on_c, 9, 51, 29
3, 643793, Note_on_c, 9, 53, 24
3, 643835, Note_on_c, 9, 44, 35
3, 643940, Note_on_c, 9, 51, 0
3, 643986, Note_on_c, 9, 44, 0
3, 644159, Note_on_c, 9, 53, 0
3, 644428, Note_on_c, 9, 51, 25
3, 644511, Note_on_c, 9, 53, 28
3, 644704, Note_on_c, 9, 51, 0
3, 644772, Note_on_c, 9, 38, 32
3, 644838, Note_on_c, 9, 53, 0
3, 644886, Note_on_c, 9, 38, 0
3, 645144, Note_on_c, 9, 51, 25
3, 645264, Note_on_c, 9, 53, 22
3, 645301, Note_on_c, 9, 36, 51
3, 645401, Note_on_c, 9, 51, 0
3, 645482, Note_on_c, 9, 53, 0
3, 645630, Note_on_c, 9, 36, 0
3, 649205, Note_on_c, 9, 53, 28
3, 650141, Note_on_c, 9, 53, 0
3, 650141, End_track
4, 0, Start_track
4, 0, Title_t, "Bass"
4, 0, Program_c, 1, 32
4, 29, Note_on_c, 1, 38, 89
4, 1895, Note_on_c, 1, 38, 0
4, 1951, Note_on_c, 1, 45, 109
4, 3396, Note_on_c, 1, 46, 107
4, 3398, Note_on_c, 1, 45, 0
4, 5280, Note_on_c, 1, 38, 82
4, 5504, Note_on_c, 1, 38, 0
4, 5716, Note_on_c, 1, 46, 0
4, 5721, Note_on_c, 1, 38, 80
4, 6590, Note_on_c, 1, 38, 0
4, 6668, Note_on_c, 1, 32, 99
4, 9515, Note_on_c, 1, 32, 0
4, 9556, Note_on_c, 1, 39, 103
4, 11523, Note_on_c, 1, 39, 0
4, 11542, Note_on_c, 1, 46, 108
4, 13500, Note_on_c, 1, 34, 107
4, 13570, Note_on_c, 1, 46, 0
4, 15389, Note_on_c, 1, 34, 0
4, 15431, Note_on_c, 1, 39, 108
4, 16894, Note_on_c, 1, 45, 114
4, 16995, Note_on_c, 1, 39, 0
4, 18198, Note_on_c, 1, 45, 0
4, 18267, Note_on_c, 1, 44, 98
4, 20700, Note_on_c, 1, 39, 98
4, 20868, Note_on_c, 1, 44, 0
4, 20875, Note_on_c, 1, 39, 0
4, 21177, Note_on_c, 1, 39, 87
4, 22028, Note_on_c, 1, 39, 0
4, 22104, Note_on_c, 1, 33, 96
4, 24888, Note_on_c, 1, 33, 0
4, 24985, Note_on_c, 1, 39, 96
4, 26743, Note_on_c, 1, 39, 0
4, 26837, Note_on_c, 1, 38, 72
4, 27386, Note_on_c, 1, 52, 53
4, 27599, Note_on_c, 1, 52, 0
4, 27856, Note_on_c, 1, 53, 85
4, 28033, Note_on_c, 1, 53, 0
4, 28434, Note_on_c, 1, 54, 101
4, 29212, Note_on_c, 1, 38, 0
4, 29386, Note_on_c, 1, 42, 94
4, 29451, Note_on_c, 1, 54, 0
4, 29953, Note_on_c, 1, 43, 107
4, 30000, Note_on_c, 1, 42, 0
4, 32242, Note_on_c, 1, 38, 91
4, 32343, Note_on_c, 1, 43, 0
4, 32551, Note_on_c, 1, 38, 0
4, 32684, Note_on_c, 1, 38, 90
4, 33537, Note_on_c, 1, 38, 0
4, 33580, Note_on_c, 1, 36, 103
4, 36523, Note_on_c, 1, 48, 105
4, 37918, Note_on_c, 1, 36, 0
4, 38409, Note_on_c, 1, 48, 0
4, 38418, Note_on_c, 1, 42, 99
4, 41200, Note_on_c, 1, 42, 0
4, 41258, Note_on_c, 1, 41, 109
4, 45127, Note_on_c, 1, 29, 73
4, 45147, Note_on_c, 1, 41, 0
4, 45956, Note_on_c, 1, 29, 0
4, 46059, Note_on_c, 1, 35, 93
4, 48010, Note_on_c, 1, 47, 113
4, 48182, Note_on_c, 1, 35, 0
4, 49491, Note_on_c, 1, 35, 67
4, 49820, Note_on_c, 1, 47, 0
4, 49827, Note_on_c, 1, 35, 0
4, 49999, Note_on_c, 1, 40, 82
4, 54674, Note_on_c, 1, 54, 102
4, 54920, Note_on_c, 1, 40, 0
4, 56148, Note_on_c, 1, 54, 0
4, 56197, Note_on_c, 1, 52, 84
4, 57144, Note_on_c, 1, 46, 83
4, 57230, Note_on_c, 1, 52, 0
4, 57608, Note_on_c, 1, 46, 0
4, 57671, Note_on_c, 1, 45, 83
4, 59093, Note_on_c, 1, 45, 0
4, 59131, Note_on_c, 1, 40, 80
4, 59347, Note_on_c, 1, 40, 0
4, 59602, Note_on_c, 1, 37, 69
4, 60355, Note_on_c, 1, 37, 0
4, 60489, Note_on_c, 1, 38, 93
4, 62957, Note_on_c, 1, 45, 101
4, 63148, Note_on_c, 1, 38, 0
4, 63885, Note_on_c, 1, 38, 60
4, 63995, Note_on_c, 1, 38, 0
4, 64207, Note_on_c, 1, 45, 0
4, 64355, Note_on_c, 1, 43, 87
4, 67198, Note_on_c, 1, 31, 80
4, 67245, Note_on_c, 1, 43, 0
4, 68071, Note_on_c, 1, 31, 0
4, 68176, Note_on_c, 1, 35, 85
4, 68842, Note_on_c, 1, 35, 0
4, 69142, Note_on_c, 1, 36, 93
4, 72966, Note_on_c, 1, 41, 84
4, 72968, Note_on_c, 1, 36, 0
4, 74507, Note_on_c, 1, 53, 102
4, 75775, Note_on_c, 1, 53, 0
4, 75929, Note_on_c, 1, 46, 99
4, 75965, Note_on_c, 1, 41, 0
4, 78303, Note_on_c, 1, 41, 70
4, 78375, Note_on_c, 1, 46, 0
4, 78523, Note_on_c, 1, 41, 0
4, 78732, Note_on_c, 1, 41, 73
4, 81563, Note_on_c, 1, 41, 0
4, 81619, Note_on_c, 1, 43, 101
4, 83541, Note_on_c, 1, 34, 81
4, 83548, Note_on_c, 1, 43, 0
4, 84416, Note_on_c, 1, 34, 0
4, 84477, Note_on_c, 1, 40, 105
4, 86307, Note_on_c, 1, 40, 0
4, 86424, Note_on_c, 1, 34, 94
4, 88218, Note_on_c, 1, 34, 0
4, 88348, Note_on_c, 1, 33, 87
4, 89824, Note_on_c, 1, 40, 86
4, 90187, Note_on_c, 1, 40, 0
4, 90339, Note_on_c, 1, 49, 104
4, 91094, Note_on_c, 1, 33, 0
4, 91233, Note_on_c, 1, 38, 106
4, 91358, Note_on_c, 1, 49, 0
4, 93668, Note_on_c, 1, 50, 106
4, 93952, Note_on_c, 1, 50, 0
4, 93968, Note_on_c, 1, 38, 0
4, 94169, Note_on_c, 1, 45, 81
4, 95137, Note_on_c, 1, 46, 106
4, 95231, Note_on_c, 1, 45, 0
4, 97496, Note_on_c, 1, 41, 79
4, 97688, Note_on_c, 1, 41, 0
4, 97722, Note_on_c, 1, 46, 0
4, 97926, Note_on_c, 1, 34, 80
4, 98685, Note_on_c, 1, 34, 0
4, 98889, Note_on_c, 1, 32, 94
4, 101313, Note_on_c, 1, 39, 89
4, 101537, Note_on_c, 1, 32, 0
4, 101598, Note_on_c, 1, 39, 0
4, 101741, Note_on_c, 1, 39, 86
4, 102608, Note_on_c, 1, 39, 0
4, 102691, Note_on_c, 1, 34, 96
4, 105670, Note_on_c, 1, 46, 108
4, 105862, Note_on_c, 1, 34, 0
4, 107551, Note_on_c, 1, 39, 102
4, 107553, Note_on_c, 1, 46, 0
4, 109384, Note_on_c, 1, 39, 0
4, 109496, Note_on_c, 1, 33, 109
4, 110770, Note_on_c, 1, 33, 0
4, 110987, Note_on_c, 1, 32, 103
4, 114307, Note_on_c, 1, 32, 0
4, 114769, Note_on_c, 1, 32, 79
4, 115033, Note_on_c, 1, 32, 0
4, 115281, Note_on_c, 1, 33, 85
4, 117103, Note_on_c, 1, 33, 0
4, 117174, Note_on_c, 1, 39, 94
4, 118610, Note_on_c, 1, 33, 79
4, 118624, Note_on_c, 1, 39, 0
4, 118924, Note_on_c, 1, 33, 0
4, 119013, Note_on_c, 1, 38, 77
4, 119947, Note_on_c, 1, 50, 127
4, 120584, Note_on_c, 1, 38, 0
4, 121388, Note_on_c, 1, 41, 89
4, 121610, Note_on_c, 1, 50, 0
4, 121632, Note_on_c, 1, 41, 0
4, 121851, Note_on_c, 1, 42, 87
4, 122624, Note_on_c, 1, 42, 0
4, 122862, Note_on_c, 1, 43, 95
4, 124748, Note_on_c, 1, 43, 0
4, 124791, Note_on_c, 1, 38, 92
4, 126132, Note_on_c, 1, 38, 0
4, 126318, Note_on_c, 1, 36, 100
4, 128699, Note_on_c, 1, 48, 124
4, 128798, Note_on_c, 1, 36, 0
4, 129617, Note_on_c, 1, 36, 80
4, 129819, Note_on_c, 1, 36, 0
4, 130482, Note_on_c, 1, 48, 0
4, 130536, Note_on_c, 1, 39, 110
4, 132095, Note_on_c, 1, 55, 99
4, 134257, Note_on_c, 1, 55, 0
4, 134324, Note_on_c, 1, 39, 0
4, 134451, Note_on_c, 1, 38, 105
4, 135916, Note_on_c, 1, 54, 93
4, 137585, Note_on_c, 1, 38, 0
4, 137926, Note_on_c, 1, 42, 94
4, 138087, Note_on_c, 1, 54, 0
4, 138208, Note_on_c, 1, 42, 0
4, 138340, Note_on_c, 1, 43, 109
4, 139785, Note_on_c, 1, 38, 96
4, 139834, Note_on_c, 1, 43, 0
4, 141125, Note_on_c, 1, 38, 0
4, 141160, Note_on_c, 1, 40, 112
4, 143978, Note_on_c, 1, 40, 0
4, 144005, Note_on_c, 1, 33, 93
4, 145831, Note_on_c, 1, 33, 0
4, 145909, Note_on_c, 1, 38, 98
4, 147276, Note_on_c, 1, 50, 93
4, 148411, Note_on_c, 1, 50, 0
4, 148655, Note_on_c, 1, 34, 44
4, 148792, Note_on_c, 1, 50, 96
4, 148850, Note_on_c, 1, 34, 0
4, 151265, Note_on_c, 1, 33, 82
4, 151301, Note_on_c, 1, 38, 0
4, 151462, Note_on_c, 1, 33, 0
4, 151733, Note_on_c, 1, 33, 80
4, 152620, Note_on_c, 1, 33, 0
4, 152681, Note_on_c, 1, 38, 104
4, 152719, Note_on_c, 1, 50, 0
4, 154997, Note_on_c, 1, 50, 104
4, 155841, Note_on_c, 1, 50, 0
4, 156457, Note_on_c, 1, 50, 115
4, 159004, Note_on_c, 1, 33, 91
4, 159089, Note_on_c, 1, 38, 0
4, 159185, Note_on_c, 1, 50, 0
4, 159217, Note_on_c, 1, 33, 0
4, 159399, Note_on_c, 1, 33, 79
4, 159835, Note_on_c, 1, 33, 0
4, 161309, Note_on_c, 1, 38, 89
4, 163175, Note_on_c, 1, 38, 0
4, 163231, Note_on_c, 1, 45, 109
4, 164676, Note_on_c, 1, 46, 107
4, 164678, Note_on_c, 1, 45, 0
4, 166560, Note_on_c, 1, 38, 82
4, 166784, Note_on_c, 1, 38, 0
4, 166996, Note_on_c, 1, 46, 0
4, 167001, Note_on_c, 1, 38, 80
4, 167870, Note_on_c, 1, 38, 0
4, 167948, Note_on_c, 1, 32, 99
4, 170795, Note_on_c, 1, 32, 0
4, 170836, Note_on_c, 1, 39, 103
4, 172803, Note_on_c, 1, 39, 0
4, 172822, Note_on_c, 1, 46, 108
4, 174780, Note_on_c, 1, 34, 107
4, 174850, Note_on_c, 1, 46, 0
4, 176669, Note_on_c, 1, 34, 0
4, 176711, Note_on_c, 1, 39, 108
4, 178174, Note_on_c, 1, 45, 114
4, 178275, Note_on_c, 1, 39, 0
4, 179478, Note_on_c, 1, 45, 0
4, 179547, Note_on_c, 1, 44, 98
4, 181980, Note_on_c, 1, 39, 98
4, 182148, Note_on_c, 1, 44, 0
4, 182155, Note_on_c, 1, 39, 0
4, 182457, Note_on_c, 1, 39, 87
4, 183308, Note_on_c, 1, 39, 0
4, 183384, Note_on_c, 1, 33, 96
4, 186168, Note_on_c, 1, 33, 0
4, 186265, Note_on_c, 1, 39, 96
4, 188023, Note_on_c, 1, 39, 0
4, 188117, Note_on_c, 1, 38, 72
4, 188666, Note_on_c, 1, 52, 53
4, 188879, Note_on_c, 1, 52, 0
4, 189136, Note_on_c, 1, 53, 85
4, 189313, Note_on_c, 1, 53, 0
4, 189714, Note_on_c, 1, 54, 101
4, 190492, Note_on_c, 1, 38, 0
4, 190666, Note_on_c, 1, 42, 94
4, 190731, Note_on_c, 1, 54, 0
4, 191233, Note_on_c, 1, 43, 107
4, 191280, Note_on_c, 1, 42, 0
4, 193522, Note_on_c, 1, 38, 91
4, 193623, Note_on_c, 1, 43, 0
4, 193831, Note_on_c, 1, 38, 0
4, 193964, Note_on_c, 1, 38, 90
4, 194817, Note_on_c, 1, 38, 0
4, 194860, Note_on_c, 1, 36, 103
4, 197803, Note_on_c, 1, 48, 105
4, 199198, Note_on_c, 1, 36, 0
4, 199689, Note_on_c, 1, 48, 0
4, 199698, Note_on_c, 1, 42, 99
4, 202480, Note_on_c, 1, 42, 0
4, 202538, Note_on_c, 1, 41, 109
4, 206407, Note_on_c, 1, 29, 73
4, 206427, Note_on_c, 1, 41, 0
4, 207236, Note_on_c, 1, 29, 0
4, 207339, Note_on_c, 1, 35, 93
4, 209290, Note_on_c, 1, 47, 113
4, 209462, Note_on_c, 1, 35, 0
4, 210771, Note_on_c, 1, 35, 67
4, 211100, Note_on_c, 1, 47, 0
4, 211107, Note_on_c, 1, 35, 0
4, 211279, Note_on_c, 1, 40, 82
4, 215954, Note_on_c, 1, 54, 102
4, 216200, Note_on_c, 1, 40, 0
4, 217428, Note_on_c, 1, 54, 0
4, 217477, Note_on_c, 1, 52, 84
4, 218424, Note_on_c, 1, 46, 83
4, 218510, Note_on_c, 1, 52, 0
4, 218888, Note_on_c, 1, 46, 0
4, 218951, Note_on_c, 1, 45, 83
4, 220373, Note_on_c, 1, 45, 0
4, 220411, Note_on_c, 1, 40, 80
4, 220627, Note_on_c, 1, 40, 0
4, 220882, Note_on_c, 1, 37, 69
4, 221635, Note_on_c, 1, 37, 0
4, 221769, Note_on_c, 1, 38, 93
4, 224237, Note_on_c, 1, 45, 101
4, 224428, Note_on_c, 1, 38, 0
4, 225165, Note_on_c, 1, 38, 60
4, 225275, Note_on_c, 1, 38, 0
4, 225487, Note_on_c, 1, 45, 0
4, 225635, Note_on_c, 1, 43, 87
4, 228478, Note_on_c, 1, 31, 80
4, 228525, Note_on_c, 1, 43, 0
4, 229351, Note_on_c, 1, 31, 0
4, 229456, Note_on_c, 1, 35, 85
4, 230122, Note_on_c, 1, 35, 0
4, 230422, Note_on_c, 1, 36, 93
4, 234246, Note_on_c, 1, 41, 84
4, 234248, Note_on_c, 1, 36, 0
4, 235787, Note_on_c, 1, 53, 102
4, 237055, Note_on_c, 1, 53, 0
4, 237209, Note_on_c, 1, 46, 99
4, 237245, Note_on_c, 1, 41, 0
4, 239583, Note_on_c, 1, 41, 70
4, 239655, Note_on_c, 1, 46, 0
4, 239803, Note_on_c, 1, 41, 0
4, 240012, Note_on_c, 1, 41, 73
4, 242843, Note_on_c, 1, 41, 0
4, 242899, Note_on_c, 1, 43, 101
4, 244821, Note_on_c, 1, 34, 81
4, 244828, Note_on_c, 1, 43, 0
4, 245696, Note_on_c, 1, 34, 0
4, 245757, Note_on_c, 1, 40, 105
4, 247587, Note_on_c, 1, 40, 0
4, 247704, Note_on_c, 1, 34, 94
4, 249498, Note_on_c, 1, 34, 0
4, 249628, Note_on_c, 1, 33, 87
4, 251104, Note_on_c, 1, 40, 86
4, 251467, Note_on_c, 1, 40, 0
4, 251619, Note_on_c, 1, 49, 104
4, 252374, Note_on_c, 1, 33, 0
4, 252513, Note_on_c, 1, 38, 106
4, 252638, Note_on_c, 1, 49, 0
4, 254948, Note_on_c, 1, 50, 106
4, 255232, Note_on_c, 1, 50, 0
4, 255248, Note_on_c, 1, 38, 0
4, 255449, Note_on_c, 1, 45, 81
4, 256417, Note_on_c, 1, 46, 106
4, 256511, Note_on_c, 1, 45, 0
4, 258776, Note_on_c, 1, 41, 79
4, 258968, Note_on_c, 1, 41, 0
4, 259002, Note_on_c, 1, 46, 0
4, 259206, Note_on_c, 1, 34, 80
4, 259965, Note_on_c, 1, 34, 0
4, 260169, Note_on_c, 1, 32, 94
4, 262593, Note_on_c, 1, 39, 89
4, 262817, Note_on_c, 1, 32, 0
4, 262878, Note_on_c, 1, 39, 0
4, 263021, Note_on_c, 1, 39, 86
4, 263888, Note_on_c, 1, 39, 0
4, 263971, Note_on_c, 1, 34, 96
4, 266950, Note_on_c, 1, 46, 108
4, 267142, Note_on_c, 1, 34, 0
4, 268831, Note_on_c, 1, 39, 102
4, 268833, Note_on_c, 1, 46, 0
4, 270664, Note_on_c, 1, 39, 0
4, 270776, Note_on_c, 1, 33, 109
4, 272050, Note_on_c, 1, 33, 0
4, 272267, Note_on_c, 1, 32, 103
4, 275587, Note_on_c, 1, 32, 0
4, 276049, Note_on_c, 1, 32, 79
4, 276313, Note_on_c, 1, 32, 0
4, 276561, Note_on_c, 1, 33, 85
4, 278383, Note_on_c, 1, 33, 0
4, 278454, Note_on_c, 1, 39, 94
4, 279890, Note_on_c, 1, 33, 79
4, 279904, Note_on_c, 1, 39, 0
4, 280204, Note_on_c, 1, 33, 0
4, 280293, Note_on_c, 1, 38, 77
4, 281227, Note_on_c, 1, 50, 127
4, 281864, Note_on_c, 1, 38, 0
4, 282668, Note_on_c, 1, 41, 89
4, 282890, Note_on_c, 1, 50, 0
4, 282912, Note_on_c, 1, 41, 0
4, 283131, Note_on_c, 1, 42, 87
4, 283904, Note_on_c, 1, 42, 0
4, 284142, Note_on_c, 1, 43, 95
4, 286028, Note_on_c, 1, 43, 0
4, 286071, Note_on_c, 1, 38, 92
4, 287412, Note_on_c, 1, 38, 0
4, 287598, Note_on_c, 1, 36, 100
4, 289979, Note_on_c, 1, 48, 124
4, 290078, Note_on_c, 1, 36, 0
4, 290897, Note_on_c, 1, 36, 80
4, 291099, Note_on_c, 1, 36, 0
4, 291762, Note_on_c, 1, 48, 0
4, 291816, Note_on_c, 1, 39, 110
4, 293375, Note_on_c, 1, 55, 99
4, 295537, Note_on_c, 1, 55, 0
4, 295604, Note_on_c, 1, 39, 0
4, 295731, Note_on_c, 1, 38, 105
4, 297196, Note_on_c, 1, 54, 93
4, 298865, Note_on_c, 1, 38, 0
4, 299206, Note_on_c, 1, 42, 94
4, 299367, Note_on_c, 1, 54, 0
4, 299488, Note_on_c, 1, 42, 0
4, 299620, Note_on_c, 1, 43, 109
4, 301065, Note_on_c, 1, 38, 96
4, 301114, Note_on_c, 1, 43, 0
4, 302405, Note_on_c, 1, 38, 0
4, 302440, Note_on_c, 1, 40, 112
4, 305258, Note_on_c, 1, 40, 0
4, 305285, Note_on_c, 1, 33, 93
4, 307111, Note_on_c, 1, 33, 0
4, 307189, Note_on_c, 1, 38, 98
4, 308556, Note_on_c, 1, 50, 93
4, 309691, Note_on_c, 1, 50, 0
4, 309935, Note_on_c, 1, 34, 44
4, 310072, Note_on_c, 1, 50, 96
4, 310130, Note_on_c, 1, 34, 0
4, 312545, Note_on_c, 1, 33, 82
4, 312581, Note_on_c, 1, 38, 0
4, 312742, Note_on_c, 1, 33, 0
4, 313013, Note_on_c, 1, 33, 80
4, 313900, Note_on_c, 1, 33, 0
4, 313961, Note_on_c, 1, 38, 104
4, 313999, Note_on_c, 1, 50, 0
4, 316277, Note_on_c, 1, 50, 104
4, 317121, Note_on_c, 1, 50, 0
4, 317737, Note_on_c, 1, 50, 115
4, 320284, Note_on_c, 1, 33, 91
4, 320369, Note_on_c, 1, 38, 0
4, 320465, Note_on_c, 1, 50, 0
4, 320497, Note_on_c, 1, 33, 0
4, 320679, Note_on_c, 1, 33, 79
4, 322075, Note_on_c, 1, 33, 0
4, 322290, Note_on_c, 1, 38, 88
4, 322521, Note_on_c, 1, 38, 0
4, 322663, Note_on_c, 1, 38, 91
4, 324025, Note_on_c, 1, 45, 80
4, 324194, Note_on_c, 1, 45, 0
4, 324291, Note_on_c, 1, 38, 0
4, 324499, Note_on_c, 1, 45, 83
4, 325882, Note_on_c, 1, 45, 0
4, 325960, Note_on_c, 1, 46, 93
4, 327823, Note_on_c, 1, 41, 70
4, 327973, Note_on_c, 1, 41, 0
4, 328070, Note_on_c, 1, 46, 0
4, 328334, Note_on_c, 1, 34, 75
4, 328478, Note_on_c, 1, 34, 0
4, 328841, Note_on_c, 1, 34, 62
4, 329158, Note_on_c, 1, 34, 0
4, 329284, Note_on_c, 1, 33, 87
4, 329681, Note_on_c, 1, 33, 0
4, 330207, Note_on_c, 1, 32, 87
4, 331713, Note_on_c, 1, 44, 110
4, 332202, Note_on_c, 1, 32, 0
4, 332605, Note_on_c, 1, 32, 77
4, 332653, Note_on_c, 1, 44, 0
4, 332898, Note_on_c, 1, 32, 0
4, 333130, Note_on_c, 1, 33, 65
4, 333350, Note_on_c, 1, 33, 0
4, 333658, Note_on_c, 1, 34, 92
4, 333888, Note_on_c, 1, 34, 0
4, 334135, Note_on_c, 1, 34, 85
4, 335606, Note_on_c, 1, 46, 109
4, 335726, Note_on_c, 1, 46, 0
4, 336076, Note_on_c, 1, 46, 113
4, 336152, Note_on_c, 1, 34, 0
4, 337460, Note_on_c, 1, 38, 74
4, 337551, Note_on_c, 1, 38, 0
4, 337905, Note_on_c, 1, 46, 0
4, 337959, Note_on_c, 1, 39, 84
4, 339422, Note_on_c, 1, 51, 73
4, 339591, Note_on_c, 1, 51, 0
4, 339894, Note_on_c, 1, 57, 119
4, 339901, Note_on_c, 1, 39, 0
4, 341319, Note_on_c, 1, 45, 83
4, 341661, Note_on_c, 1, 45, 0
4, 341759, Note_on_c, 1, 57, 0
4, 341775, Note_on_c, 1, 44, 80
4, 343262, Note_on_c, 1, 56, 115
4, 343623, Note_on_c, 1, 44, 0
4, 344192, Note_on_c, 1, 44, 69
4, 344352, Note_on_c, 1, 44, 0
4, 344686, Note_on_c, 1, 44, 71
4, 344855, Note_on_c, 1, 56, 0
4, 345182, Note_on_c, 1, 57, 127
4, 345307, Note_on_c, 1, 44, 0
4, 346122, Note_on_c, 1, 45, 71
4, 346291, Note_on_c, 1, 45, 0
4, 346617, Note_on_c, 1, 45, 79
4, 346800, Note_on_c, 1, 57, 0
4, 346823, Note_on_c, 1, 45, 0
4, 347115, Note_on_c, 1, 39, 89
4, 347379, Note_on_c, 1, 39, 0
4, 347618, Note_on_c, 1, 39, 84
4, 348036, Note_on_c, 1, 39, 0
4, 348093, Note_on_c, 1, 37, 89
4, 348381, Note_on_c, 1, 37, 0
4, 348574, Note_on_c, 1, 38, 100
4, 349977, Note_on_c, 1, 52, 72
4, 350395, Note_on_c, 1, 52, 0
4, 350450, Note_on_c, 1, 53, 93
4, 350895, Note_on_c, 1, 53, 0
4, 350969, Note_on_c, 1, 54, 107
4, 351865, Note_on_c, 1, 38, 0
4, 351941, Note_on_c, 1, 45, 83
4, 352138, Note_on_c, 1, 45, 0
4, 352277, Note_on_c, 1, 54, 0
4, 352434, Note_on_c, 1, 44, 64
4, 352699, Note_on_c, 1, 44, 0
4, 352895, Note_on_c, 1, 42, 71
4, 353248, Note_on_c, 1, 42, 0
4, 353380, Note_on_c, 1, 43, 64
4, 354751, Note_on_c, 1, 55, 117
4, 355008, Note_on_c, 1, 43, 0
4, 355711, Note_on_c, 1, 43, 61
4, 355811, Note_on_c, 1, 43, 0
4, 356087, Note_on_c, 1, 55, 0
4, 356184, Note_on_c, 1, 49, 81
4, 356381, Note_on_c, 1, 49, 0
4, 356679, Note_on_c, 1, 49, 84
4, 357013, Note_on_c, 1, 49, 0
4, 357173, Note_on_c, 1, 48, 74
4, 358613, Note_on_c, 1, 36, 62
4, 358778, Note_on_c, 1, 36, 0
4, 359113, Note_on_c, 1, 36, 69
4, 360501, Note_on_c, 1, 36, 0
4, 360540, Note_on_c, 1, 30, 77
4, 360880, Note_on_c, 1, 30, 0
4, 361047, Note_on_c, 1, 30, 68
4, 361133, Note_on_c, 1, 48, 0
4, 362481, Note_on_c, 1, 42, 71
4, 362925, Note_on_c, 1, 42, 0
4, 362976, Note_on_c, 1, 42, 50
4, 363453, Note_on_c, 1, 54, 111
4, 364104, Note_on_c, 1, 30, 0
4, 364373, Note_on_c, 1, 30, 69
4, 364583, Note_on_c, 1, 42, 0
4, 364685, Note_on_c, 1, 30, 0
4, 364810, Note_on_c, 1, 54, 0
4, 364857, Note_on_c, 1, 53, 93
4, 365347, Note_on_c, 1, 41, 69
4, 365473, Note_on_c, 1, 41, 0
4, 365801, Note_on_c, 1, 29, 68
4, 367214, Note_on_c, 1, 41, 75
4, 367237, Note_on_c, 1, 29, 0
4, 367404, Note_on_c, 1, 41, 0
4, 368152, Note_on_c, 1, 36, 99
4, 368508, Note_on_c, 1, 36, 0
4, 368611, Note_on_c, 1, 35, 91
4, 368626, Note_on_c, 1, 53, 0
4, 370623, Note_on_c, 1, 47, 93
4, 371011, Note_on_c, 1, 35, 0
4, 371141, Note_on_c, 1, 39, 68
4, 371306, Note_on_c, 1, 39, 0
4, 371327, Note_on_c, 1, 47, 0
4, 371588, Note_on_c, 1, 39, 75
4, 372096, Note_on_c, 1, 40, 96
4, 372102, Note_on_c, 1, 39, 0
4, 373078, Note_on_c, 1, 52, 83
4, 374830, Note_on_c, 1, 40, 0
4, 374963, Note_on_c, 1, 40, 74
4, 374990, Note_on_c, 1, 52, 0
4, 375479, Note_on_c, 1, 52, 127
4, 375528, Note_on_c, 1, 40, 0
4, 376915, Note_on_c, 1, 39, 96
4, 377223, Note_on_c, 1, 52, 0
4, 377302, Note_on_c, 1, 39, 0
4, 377367, Note_on_c, 1, 40, 87
4, 377894, Note_on_c, 1, 52, 127
4, 378334, Note_on_c, 1, 40, 0
4, 378714, Note_on_c, 1, 40, 91
4, 379057, Note_on_c, 1, 52, 0
4, 379186, Note_on_c, 1, 58, 112
4, 379282, Note_on_c, 1, 40, 0
4, 379668, Note_on_c, 1, 39, 71
4, 379777, Note_on_c, 1, 58, 0
4, 379902, Note_on_c, 1, 39, 0
4, 380162, Note_on_c, 1, 57, 120
4, 380666, Note_on_c, 1, 45, 79
4, 380870, Note_on_c, 1, 45, 0
4, 381092, Note_on_c, 1, 33, 61
4, 381336, Note_on_c, 1, 33, 0
4, 381595, Note_on_c, 1, 33, 88
4, 382086, Note_on_c, 1, 45, 69
4, 382227, Note_on_c, 1, 45, 0
4, 382419, Note_on_c, 1, 33, 0
4, 382568, Note_on_c, 1, 40, 78
4, 382803, Note_on_c, 1, 40, 0
4, 383050, Note_on_c, 1, 37, 81
4, 383343, Note_on_c, 1, 37, 0
4, 383557, Note_on_c, 1, 37, 81
4, 383579, Note_on_c, 1, 57, 0
4, 383960, Note_on_c, 1, 37, 0
4, 384050, Note_on_c, 1, 38, 84
4, 385472, Note_on_c, 1, 45, 82
4, 385632, Note_on_c, 1, 45, 0
4, 385995, Note_on_c, 1, 45, 74
4, 386453, Note_on_c, 1, 57, 121
4, 386824, Note_on_c, 1, 57, 0
4, 386893, Note_on_c, 1, 45, 0
4, 386942, Note_on_c, 1, 56, 96
4, 387315, Note_on_c, 1, 56, 0
4, 387405, Note_on_c, 1, 54, 86
4, 387591, Note_on_c, 1, 38, 0
4, 387794, Note_on_c, 1, 54, 0
4, 387913, Note_on_c, 1, 55, 63
4, 388103, Note_on_c, 1, 55, 0
4, 388401, Note_on_c, 1, 43, 85
4, 389341, Note_on_c, 1, 31, 83
4, 389631, Note_on_c, 1, 31, 0
4, 389836, Note_on_c, 1, 31, 84
4, 390752, Note_on_c, 1, 43, 0
4, 391268, Note_on_c, 1, 35, 76
4, 391275, Note_on_c, 1, 31, 0
4, 391636, Note_on_c, 1, 35, 0
4, 391742, Note_on_c, 1, 36, 79
4, 393156, Note_on_c, 1, 43, 97
4, 393257, Note_on_c, 1, 36, 0
4, 394100, Note_on_c, 1, 36, 68
4, 394255, Note_on_c, 1, 36, 0
4, 394357, Note_on_c, 1, 43, 0
4, 394568, Note_on_c, 1, 53, 89
4, 395001, Note_on_c, 1, 53, 0
4, 395115, Note_on_c, 1, 53, 97
4, 396039, Note_on_c, 1, 29, 78
4, 396472, Note_on_c, 1, 53, 0
4, 396882, Note_on_c, 1, 29, 0
4, 396998, Note_on_c, 1, 29, 82
4, 397490, Note_on_c, 1, 53, 126
4, 397613, Note_on_c, 1, 29, 0
4, 397891, Note_on_c, 1, 53, 0
4, 397974, Note_on_c, 1, 53, 82
4, 398333, Note_on_c, 1, 53, 0
4, 398382, Note_on_c, 1, 29, 54
4, 398467, Note_on_c, 1, 51, 79
4, 398546, Note_on_c, 1, 29, 0
4, 398797, Note_on_c, 1, 51, 0
4, 398929, Note_on_c, 1, 51, 82
4, 399353, Note_on_c, 1, 51, 0
4, 399433, Note_on_c, 1, 50, 69
4, 399660, Note_on_c, 1, 50, 0
4, 399913, Note_on_c, 1, 48, 65
4, 400195, Note_on_c, 1, 48, 0
4, 400386, Note_on_c, 1, 46, 80
4, 400874, Note_on_c, 1, 41, 74
4, 401809, Note_on_c, 1, 34, 98
4, 401862, Note_on_c, 1, 41, 0
4, 402784, Note_on_c, 1, 39, 111
4, 402810, Note_on_c, 1, 34, 0
4, 402884, Note_on_c, 1, 46, 0
4, 404721, Note_on_c, 1, 55, 115
4, 404968, Note_on_c, 1, 55, 0
4, 404979, Note_on_c, 1, 54, 83
4, 405200, Note_on_c, 1, 54, 0
4, 405269, Note_on_c, 1, 55, 98
4, 406393, Note_on_c, 1, 39, 0
4, 406654, Note_on_c, 1, 39, 96
4, 406891, Note_on_c, 1, 55, 0
4, 407110, Note_on_c, 1, 39, 0
4, 407118, Note_on_c, 1, 40, 87
4, 408593, Note_on_c, 1, 43, 55
4, 408675, Note_on_c, 1, 43, 0
4, 409053, Note_on_c, 1, 46, 106
4, 409498, Note_on_c, 1, 40, 0
4, 409542, Note_on_c, 1, 48, 83
4, 409549, Note_on_c, 1, 46, 0
4, 409806, Note_on_c, 1, 48, 0
4, 410019, Note_on_c, 1, 46, 76
4, 410426, Note_on_c, 1, 46, 0
4, 410501, Note_on_c, 1, 45, 95
4, 411457, Note_on_c, 1, 40, 72
4, 411531, Note_on_c, 1, 45, 0
4, 411716, Note_on_c, 1, 40, 0
4, 411957, Note_on_c, 1, 34, 73
4, 412330, Note_on_c, 1, 34, 0
4, 412411, Note_on_c, 1, 33, 93
4, 412768, Note_on_c, 1, 33, 0
4, 412914, Note_on_c, 1, 33, 85
4, 413826, Note_on_c, 1, 37, 72
4, 413829, Note_on_c, 1, 33, 0
4, 414076, Note_on_c, 1, 37, 0
4, 414280, Note_on_c, 1, 37, 85
4, 414685, Note_on_c, 1, 37, 0
4, 414766, Note_on_c, 1, 38, 79
4, 416151, Note_on_c, 1, 45, 63
4, 416529, Note_on_c, 1, 45, 0
4, 416626, Note_on_c, 1, 54, 94
4, 416688, Note_on_c, 1, 53, 96
4, 416983, Note_on_c, 1, 38, 0
4, 417163, Note_on_c, 1, 38, 65
4, 417414, Note_on_c, 1, 54, 0
4, 417423, Note_on_c, 1, 53, 0
4, 417627, Note_on_c, 1, 51, 81
4, 417698, Note_on_c, 1, 38, 0
4, 418127, Note_on_c, 1, 50, 87
4, 418215, Note_on_c, 1, 51, 0
4, 418365, Note_on_c, 1, 50, 0
4, 418604, Note_on_c, 1, 46, 64
4, 419002, Note_on_c, 1, 46, 0
4, 419110, Note_on_c, 1, 46, 82
4, 419268, Note_on_c, 1, 46, 0
4, 419565, Note_on_c, 1, 34, 81
4, 421051, Note_on_c, 1, 41, 80
4, 421691, Note_on_c, 1, 34, 0
4, 421994, Note_on_c, 1, 34, 75
4, 422251, Note_on_c, 1, 34, 0
4, 422390, Note_on_c, 1, 41, 0
4, 422485, Note_on_c, 1, 44, 70
4, 423883, Note_on_c, 1, 39, 84
4, 423928, Note_on_c, 1, 44, 0
4, 424233, Note_on_c, 1, 39, 0
4, 424366, Note_on_c, 1, 39, 83
4, 425834, Note_on_c, 1, 34, 86
4, 425882, Note_on_c, 1, 39, 0
4, 426170, Note_on_c, 1, 34, 0
4, 426318, Note_on_c, 1, 34, 80
4, 427744, Note_on_c, 1, 46, 117
4, 428068, Note_on_c, 1, 34, 0
4, 428128, Note_on_c, 1, 46, 0
4, 428223, Note_on_c, 1, 46, 102
4, 428726, Note_on_c, 1, 37, 78
4, 428759, Note_on_c, 1, 46, 0
4, 429112, Note_on_c, 1, 37, 0
4, 429199, Note_on_c, 1, 38, 90
4, 429680, Note_on_c, 1, 38, 0
4, 429713, Note_on_c, 1, 39, 107
4, 430102, Note_on_c, 1, 39, 0
4, 430197, Note_on_c, 1, 39, 105
4, 431570, Note_on_c, 1, 39, 0
4, 431605, Note_on_c, 1, 33, 106
4, 433006, Note_on_c, 1, 33, 0
4, 433051, Note_on_c, 1, 32, 107
4, 435393, Note_on_c, 1, 32, 0
4, 435430, Note_on_c, 1, 39, 110
4, 435792, Note_on_c, 1, 39, 0
4, 435944, Note_on_c, 1, 39, 102
4, 437371, Note_on_c, 1, 44, 94
4, 437711, Note_on_c, 1, 44, 0
4, 437736, Note_on_c, 1, 39, 0
4, 437813, Note_on_c, 1, 45, 74
4, 438300, Note_on_c, 1, 51, 94
4, 438419, Note_on_c, 1, 45, 0
4, 438661, Note_on_c, 1, 51, 0
4, 438767, Note_on_c, 1, 51, 99
4, 440230, Note_on_c, 1, 45, 93
4, 440326, Note_on_c, 1, 45, 0
4, 440430, Note_on_c, 1, 51, 0
4, 440710, Note_on_c, 1, 39, 70
4, 440821, Note_on_c, 1, 39, 0
4, 441169, Note_on_c, 1, 37, 76
4, 441374, Note_on_c, 1, 37, 0
4, 441611, Note_on_c, 1, 38, 91
4, 443096, Note_on_c, 1, 52, 63
4, 443228, Note_on_c, 1, 52, 0
4, 443373, Note_on_c, 1, 53, 68
4, 443501, Note_on_c, 1, 53, 0
4, 443607, Note_on_c, 1, 54, 103
4, 444300, Note_on_c, 1, 38, 0
4, 444524, Note_on_c, 1, 42, 80
4, 444601, Note_on_c, 1, 54, 0
4, 445020, Note_on_c, 1, 42, 0
4, 445034, Note_on_c, 1, 43, 107
4, 445353, Note_on_c, 1, 43, 0
4, 445490, Note_on_c, 1, 43, 93
4, 446905, Note_on_c, 1, 38, 102
4, 446968, Note_on_c, 1, 43, 0
4, 447266, Note_on_c, 1, 38, 0
4, 447389, Note_on_c, 1, 38, 93
4, 448827, Note_on_c, 1, 38, 0
4, 448903, Note_on_c, 1, 36, 108
4, 449865, Note_on_c, 1, 50, 113
4, 450274, Note_on_c, 1, 50, 0
4, 450333, Note_on_c, 1, 49, 105
4, 450353, Note_on_c, 1, 36, 0
4, 450816, Note_on_c, 1, 49, 0
4, 450881, Note_on_c, 1, 48, 107
4, 451842, Note_on_c, 1, 36, 105
4, 452682, Note_on_c, 1, 36, 0
4, 452724, Note_on_c, 1, 38, 104
4, 453047, Note_on_c, 1, 38, 0
4, 453070, Note_on_c, 1, 48, 0
4, 453134, Note_on_c, 1, 39, 106
4, 454445, Note_on_c, 1, 39, 0
4, 454609, Note_on_c, 1, 39, 113
4, 456425, Note_on_c, 1, 39, 0
4, 456536, Note_on_c, 1, 37, 97
4, 456935, Note_on_c, 1, 37, 0
4, 457025, Note_on_c, 1, 38, 92
4, 457375, Note_on_c, 1, 38, 0
4, 457507, Note_on_c, 1, 38, 97
4, 458426, Note_on_c, 1, 38, 0
4, 458468, Note_on_c, 1, 33, 103
4, 458825, Note_on_c, 1, 33, 0
4, 458933, Note_on_c, 1, 33, 104
4, 459793, Note_on_c, 1, 33, 0
4, 459908, Note_on_c, 1, 32, 94
4, 460095, Note_on_c, 1, 32, 0
4, 460344, Note_on_c, 1, 32, 99
4, 460647, Note_on_c, 1, 32, 0
4, 460763, Note_on_c, 1, 31, 87
4, 462303, Note_on_c, 1, 31, 0
4, 462355, Note_on_c, 1, 38, 93
4, 462803, Note_on_c, 1, 38, 0
4, 462854, Note_on_c, 1, 46, 105
4, 463308, Note_on_c, 1, 38, 85
4, 463333, Note_on_c, 1, 46, 0
4, 463643, Note_on_c, 1, 38, 0
4, 463790, Note_on_c, 1, 39, 89
4, 464051, Note_on_c, 1, 39, 0
4, 464243, Note_on_c, 1, 39, 94
4, 464613, Note_on_c, 1, 39, 0
4, 464697, Note_on_c, 1, 40, 91
4, 465271, Note_on_c, 1, 46, 108
4, 465533, Note_on_c, 1, 40, 0
4, 466142, Note_on_c, 1, 34, 87
4, 466229, Note_on_c, 1, 46, 0
4, 466499, Note_on_c, 1, 34, 0
4, 466587, Note_on_c, 1, 33, 91
4, 467113, Note_on_c, 1, 45, 99
4, 467156, Note_on_c, 1, 33, 0
4, 467393, Note_on_c, 1, 45, 0
4, 467566, Note_on_c, 1, 36, 62
4, 467691, Note_on_c, 1, 36, 0
4, 468044, Note_on_c, 1, 37, 82
4, 468203, Note_on_c, 1, 37, 0
4, 468493, Note_on_c, 1, 38, 84
4, 469020, Note_on_c, 1, 52, 96
4, 469394, Note_on_c, 1, 52, 0
4, 469533, Note_on_c, 1, 50, 63
4, 469956, Note_on_c, 1, 50, 0
4, 470003, Note_on_c, 1, 52, 100
4, 471892, Note_on_c, 1, 50, 74
4, 471893, Note_on_c, 1, 52, 0
4, 471932, Note_on_c, 1, 38, 0
4, 472300, Note_on_c, 1, 50, 0
4, 472353, Note_on_c, 1, 52, 79
4, 472483, Note_on_c, 1, 52, 0
4, 472886, Note_on_c, 1, 33, 69
4, 472964, Note_on_c, 1, 33, 0
4, 473331, Note_on_c, 1, 33, 89
4, 474704, Note_on_c, 1, 33, 0
4, 474725, Note_on_c, 1, 36, 83
4, 475021, Note_on_c, 1, 36, 0
4, 475232, Note_on_c, 1, 37, 85
4, 475556, Note_on_c, 1, 37, 0
4, 475755, Note_on_c, 1, 38, 113
4, 476098, Note_on_c, 1, 38, 0
4, 476237, Note_on_c, 1, 38, 106
4, 477687, Note_on_c, 1, 52, 107
4, 479153, Note_on_c, 1, 38, 0
4, 479659, Note_on_c, 1, 50, 69
4, 479696, Note_on_c, 1, 52, 0
4, 479844, Note_on_c, 1, 50, 0
4, 480086, Note_on_c, 1, 52, 83
4, 480220, Note_on_c, 1, 52, 0
4, 480549, Note_on_c, 1, 38, 93
4, 480730, Note_on_c, 1, 38, 0
4, 481012, Note_on_c, 1, 33, 95
4, 482427, Note_on_c, 1, 33, 0
4, 482482, Note_on_c, 1, 36, 98
4, 483446, Note_on_c, 1, 36, 0
4, 483448, Note_on_c, 1, 37, 95
4, 483791, Note_on_c, 1, 37, 0
4, 483911, Note_on_c, 1, 38, 92
4, 485391, Note_on_c, 1, 45, 107
4, 485460, Note_on_c, 1, 38, 0
4, 487234, Note_on_c, 1, 38, 81
4, 487369, Note_on_c, 1, 38, 0
4, 487688, Note_on_c, 1, 45, 0
4, 487790, Note_on_c, 1, 46, 80
4, 488145, Note_on_c, 1, 46, 0
4, 488256, Note_on_c, 1, 46, 92
4, 488453, Note_on_c, 1, 46, 0
4, 488700, Note_on_c, 1, 34, 73
4, 491005, Note_on_c, 1, 34, 0
4, 491076, Note_on_c, 1, 33, 80
4, 491350, Note_on_c, 1, 33, 0
4, 491554, Note_on_c, 1, 32, 82
4, 492996, Note_on_c, 1, 39, 85
4, 493038, Note_on_c, 1, 32, 0
4, 493263, Note_on_c, 1, 39, 0
4, 493490, Note_on_c, 1, 39, 81
4, 495381, Note_on_c, 1, 39, 0
4, 495414, Note_on_c, 1, 34, 81
4, 498756, Note_on_c, 1, 38, 91
4, 498760, Note_on_c, 1, 34, 0
4, 498962, Note_on_c, 1, 38, 0
4, 499260, Note_on_c, 1, 39, 88
4, 499640, Note_on_c, 1, 39, 0
4, 499767, Note_on_c, 1, 39, 84
4, 500231, Note_on_c, 1, 58, 107
4, 500251, Note_on_c, 1, 39, 0
4, 500738, Note_on_c, 1, 39, 72
4, 500926, Note_on_c, 1, 39, 0
4, 501189, Note_on_c, 1, 58, 0
4, 501199, Note_on_c, 1, 57, 98
4, 501683, Note_on_c, 1, 45, 72
4, 501796, Note_on_c, 1, 57, 0
4, 501893, Note_on_c, 1, 45, 0
4, 502144, Note_on_c, 1, 33, 91
4, 503491, Note_on_c, 1, 33, 0
4, 503591, Note_on_c, 1, 56, 107
4, 503781, Note_on_c, 1, 56, 0
4, 504024, Note_on_c, 1, 39, 78
4, 504169, Note_on_c, 1, 39, 0
4, 504496, Note_on_c, 1, 32, 105
4, 506339, Note_on_c, 1, 32, 0
4, 506386, Note_on_c, 1, 39, 76
4, 506650, Note_on_c, 1, 39, 0
4, 506872, Note_on_c, 1, 33, 82
4, 508327, Note_on_c, 1, 39, 71
4, 508472, Note_on_c, 1, 39, 0
4, 508817, Note_on_c, 1, 51, 109
4, 509267, Note_on_c, 1, 51, 0
4, 509311, Note_on_c, 1, 53, 87
4, 509654, Note_on_c, 1, 53, 0
4, 509772, Note_on_c, 1, 51, 85
4, 509991, Note_on_c, 1, 33, 0
4, 510212, Note_on_c, 1, 51, 0
4, 510261, Note_on_c, 1, 49, 61
4, 510300, Note_on_c, 1, 50, 103
4, 510321, Note_on_c, 1, 49, 0
4, 511198, Note_on_c, 1, 50, 0
4, 511223, Note_on_c, 1, 49, 94
4, 511625, Note_on_c, 1, 49, 0
4, 511743, Note_on_c, 1, 48, 82
4, 512208, Note_on_c, 1, 38, 93
4, 512917, Note_on_c, 1, 48, 0
4, 513013, Note_on_c, 1, 38, 0
4, 513160, Note_on_c, 1, 38, 83
4, 513657, Note_on_c, 1, 45, 93
4, 513695, Note_on_c, 1, 38, 0
4, 514102, Note_on_c, 1, 45, 0
4, 514177, Note_on_c, 1, 44, 80
4, 514522, Note_on_c, 1, 44, 0
4, 514612, Note_on_c, 1, 43, 72
4, 516056, Note_on_c, 1, 38, 79
4, 516175, Note_on_c, 1, 43, 0
4, 517490, Note_on_c, 1, 38, 0
4, 517539, Note_on_c, 1, 36, 94
4, 519887, Note_on_c, 1, 48, 127
4, 520306, Note_on_c, 1, 48, 0
4, 520403, Note_on_c, 1, 48, 110
4, 520471, Note_on_c, 1, 36, 0
4, 520679, Note_on_c, 1, 48, 0
4, 520830, Note_on_c, 1, 48, 97
4, 521145, Note_on_c, 1, 48, 0
4, 521779, Note_on_c, 1, 36, 74
4, 521906, Note_on_c, 1, 36, 0
4, 522300, Note_on_c, 1, 30, 82
4, 523731, Note_on_c, 1, 46, 92
4, 524803, Note_on_c, 1, 37, 50
4, 524883, Note_on_c, 1, 30, 0
4, 524896, Note_on_c, 1, 37, 0
4, 524972, Note_on_c, 1, 46, 0
4, 525169, Note_on_c, 1, 30, 73
4, 525610, Note_on_c, 1, 30, 0
4, 525694, Note_on_c, 1, 29, 87
4, 526707, Note_on_c, 1, 36, 57
4, 526830, Note_on_c, 1, 36, 0
4, 527604, Note_on_c, 1, 53, 117
4, 527629, Note_on_c, 1, 52, 91
4, 527689, Note_on_c, 1, 52, 0
4, 528242, Note_on_c, 1, 29, 0
4, 528535, Note_on_c, 1, 29, 62
4, 528963, Note_on_c, 1, 29, 0
4, 529600, Note_on_c, 1, 48, 70
4, 529602, Note_on_c, 1, 53, 0
4, 529942, Note_on_c, 1, 48, 0
4, 530012, Note_on_c, 1, 47, 89
4, 531387, Note_on_c, 1, 41, 55
4, 531526, Note_on_c, 1, 41, 0
4, 531727, Note_on_c, 1, 47, 0
4, 531853, Note_on_c, 1, 41, 78
4, 533096, Note_on_c, 1, 41, 0
4, 533256, Note_on_c, 1, 40, 87
4, 535035, Note_on_c, 1, 40, 0
4, 535197, Note_on_c, 1, 35, 101
4, 535373, Note_on_c, 1, 35, 0
4, 535681, Note_on_c, 1, 28, 120
4, 539133, Note_on_c, 1, 34, 109
4, 539154, Note_on_c, 1, 28, 0
4, 539491, Note_on_c, 1, 34, 0
4, 539602, Note_on_c, 1, 34, 96
4, 540435, Note_on_c, 1, 34, 0
4, 540546, Note_on_c, 1, 33, 105
4, 542871, Note_on_c, 1, 33, 0
4, 542925, Note_on_c, 1, 40, 105
4, 543399, Note_on_c, 1, 49, 110
4, 543570, Note_on_c, 1, 40, 0
4, 543803, Note_on_c, 1, 49, 0
4, 543886, Note_on_c, 1, 52, 97
4, 544284, Note_on_c, 1, 52, 0
4, 544383, Note_on_c, 1, 52, 56
4, 544402, Note_on_c, 1, 51, 95
4, 544451, Note_on_c, 1, 52, 0
4, 544782, Note_on_c, 1, 51, 0
4, 544889, Note_on_c, 1, 49, 75
4, 545203, Note_on_c, 1, 49, 0
4, 545333, Note_on_c, 1, 50, 104
4, 545759, Note_on_c, 1, 50, 0
4, 545826, Note_on_c, 1, 45, 86
4, 546002, Note_on_c, 1, 45, 0
4, 546283, Note_on_c, 1, 38, 99
4, 548102, Note_on_c, 1, 44, 87
4, 548253, Note_on_c, 1, 38, 0
4, 548651, Note_on_c, 1, 44, 0
4, 548698, Note_on_c, 1, 43, 104
4, 550606, Note_on_c, 1, 38, 83
4, 550661, Note_on_c, 1, 43, 0
4, 550895, Note_on_c, 1, 38, 0
4, 551093, Note_on_c, 1, 31, 80
4, 552489, Note_on_c, 1, 31, 0
4, 552535, Note_on_c, 1, 35, 78
4, 552899, Note_on_c, 1, 35, 0
4, 553019, Note_on_c, 1, 36, 80
4, 554467, Note_on_c, 1, 51, 82
4, 554670, Note_on_c, 1, 51, 0
4, 554995, Note_on_c, 1, 51, 86
4, 556217, Note_on_c, 1, 51, 0
4, 556402, Note_on_c, 1, 53, 73
4, 556697, Note_on_c, 1, 53, 0
4, 556896, Note_on_c, 1, 53, 74
4, 557370, Note_on_c, 1, 36, 0
4, 558199, Note_on_c, 1, 53, 0
4, 558304, Note_on_c, 1, 53, 96
4, 558758, Note_on_c, 1, 53, 0
4, 558800, Note_on_c, 1, 53, 80
4, 560090, Note_on_c, 1, 53, 0
4, 560279, Note_on_c, 1, 53, 121
4, 560684, Note_on_c, 1, 53, 0
4, 560784, Note_on_c, 1, 53, 108
4, 562146, Note_on_c, 1, 53, 0
4, 562236, Note_on_c, 1, 53, 117
4, 562660, Note_on_c, 1, 53, 0
4, 562766, Note_on_c, 1, 53, 112
4, 563549, Note_on_c, 1, 53, 0
4, 563621, Note_on_c, 1, 52, 103
4, 564450, Note_on_c, 1, 52, 0
4, 564552, Note_on_c, 1, 51, 92
4, 565958, Note_on_c, 1, 39, 94
4, 566252, Note_on_c, 1, 39, 0
4, 566430, Note_on_c, 1, 39, 98
4, 566504, Note_on_c, 1, 51, 0
4, 567868, Note_on_c, 1, 52, 105
4, 568255, Note_on_c, 1, 52, 0
4, 568366, Note_on_c, 1, 52, 115
4, 568491, Note_on_c, 1, 39, 0
4, 569862, Note_on_c, 1, 40, 85
4, 570022, Note_on_c, 1, 40, 0
4, 570788, Note_on_c, 1, 28, 105
4, 571142, Note_on_c, 1, 28, 0
4, 571249, Note_on_c, 1, 34, 104
4, 571584, Note_on_c, 1, 34, 0
4, 571666, Note_on_c, 1, 52, 0
4, 571712, Note_on_c, 1, 32, 94
4, 572044, Note_on_c, 1, 32, 0
4, 572198, Note_on_c, 1, 33, 103
4, 573613, Note_on_c, 1, 33, 0
4, 573646, Note_on_c, 1, 37, 108
4, 574596, Note_on_c, 1, 40, 96
4, 574679, Note_on_c, 1, 37, 0
4, 575575, Note_on_c, 1, 37, 97
4, 575594, Note_on_c, 1, 40, 0
4, 575950, Note_on_c, 1, 37, 0
4, 576038, Note_on_c, 1, 38, 106
4, 577527, Note_on_c, 1, 45, 72
4, 577830, Note_on_c, 1, 45, 0
4, 578030, Note_on_c, 1, 52, 101
4, 578414, Note_on_c, 1, 52, 0
4, 578490, Note_on_c, 1, 51, 83
4, 578888, Note_on_c, 1, 51, 0
4, 578945, Note_on_c, 1, 50, 74
4, 579044, Note_on_c, 1, 38, 0
4, 579324, Note_on_c, 1, 50, 0
4, 579417, Note_on_c, 1, 48, 85
4, 579792, Note_on_c, 1, 48, 0
4, 579894, Note_on_c, 1, 46, 85
4, 583271, Note_on_c, 1, 41, 87
4, 583498, Note_on_c, 1, 41, 0
4, 583708, Note_on_c, 1, 46, 0
4, 583747, Note_on_c, 1, 44, 104
4, 584164, Note_on_c, 1, 44, 0
4, 584257, Note_on_c, 1, 44, 99
4, 584495, Note_on_c, 1, 44, 0
4, 584672, Note_on_c, 1, 44, 87
4, 586177, Note_on_c, 1, 39, 94
4, 586218, Note_on_c, 1, 44, 0
4, 586431, Note_on_c, 1, 39, 0
4, 586698, Note_on_c, 1, 34, 85
4, 586818, Note_on_c, 1, 34, 0
4, 587103, Note_on_c, 1, 34, 102
4, 587450, Note_on_c, 1, 34, 0
4, 587573, Note_on_c, 1, 34, 102
4, 589039, Note_on_c, 1, 46, 119
4, 589403, Note_on_c, 1, 46, 0
4, 589535, Note_on_c, 1, 46, 100
4, 589834, Note_on_c, 1, 46, 0
4, 589984, Note_on_c, 1, 46, 108
4, 590259, Note_on_c, 1, 46, 0
4, 590498, Note_on_c, 1, 46, 122
4, 590602, Note_on_c, 1, 34, 0
4, 591294, Note_on_c, 1, 46, 0
4, 591426, Note_on_c, 1, 39, 110
4, 592848, Note_on_c, 1, 39, 0
4, 592886, Note_on_c, 1, 33, 112
4, 594776, Note_on_c, 1, 33, 0
4, 594803, Note_on_c, 1, 32, 100
4, 596755, Note_on_c, 1, 39, 103
4, 596815, Note_on_c, 1, 32, 0
4, 597138, Note_on_c, 1, 39, 0
4, 597225, Note_on_c, 1, 39, 111
4, 598629, Note_on_c, 1, 50, 101
4, 598830, Note_on_c, 1, 50, 0
4, 599136, Note_on_c, 1, 50, 127
4, 599170, Note_on_c, 1, 39, 0
4, 600625, Note_on_c, 1, 33, 76
4, 600803, Note_on_c, 1, 33, 0
4, 601104, Note_on_c, 1, 33, 91
4, 601153, Note_on_c, 1, 50, 0
4, 601894, Note_on_c, 1, 33, 0
4, 602014, Note_on_c, 1, 38, 110
4, 604335, Note_on_c, 1, 50, 127
4, 604703, Note_on_c, 1, 50, 0
4, 604807, Note_on_c, 1, 50, 109
4, 604819, Note_on_c, 1, 38, 0
4, 605242, Note_on_c, 1, 50, 0
4, 605264, Note_on_c, 1, 45, 96
4, 605595, Note_on_c, 1, 45, 0
4, 605752, Note_on_c, 1, 44, 86
4, 605974, Note_on_c, 1, 44, 0
4, 606239, Note_on_c, 1, 42, 78
4, 606537, Note_on_c, 1, 42, 0
4, 606736, Note_on_c, 1, 43, 83
4, 608079, Note_on_c, 1, 43, 0
4, 608189, Note_on_c, 1, 38, 93
4, 608950, Note_on_c, 1, 38, 0
4, 609224, Note_on_c, 1, 37, 84
4, 609481, Note_on_c, 1, 37, 0
4, 609682, Note_on_c, 1, 36, 100
4, 612003, Note_on_c, 1, 48, 86
4, 612125, Note_on_c, 1, 48, 0
4, 612496, Note_on_c, 1, 48, 99
4, 612919, Note_on_c, 1, 36, 0
4, 613723, Note_on_c, 1, 48, 0
4, 613955, Note_on_c, 1, 37, 72
4, 614121, Note_on_c, 1, 37, 0
4, 614242, Note_on_c, 1, 38, 90
4, 614429, Note_on_c, 1, 38, 0
4, 614506, Note_on_c, 1, 39, 106
4, 614957, Note_on_c, 1, 54, 82
4, 615226, Note_on_c, 1, 54, 0
4, 615413, Note_on_c, 1, 55, 117
4, 617831, Note_on_c, 1, 39, 0
4, 617836, Note_on_c, 1, 55, 0
4, 617859, Note_on_c, 1, 54, 104
4, 617879, Note_on_c, 1, 38, 95
4, 619717, Note_on_c, 1, 45, 89
4, 619724, Note_on_c, 1, 54, 0
4, 619730, Note_on_c, 1, 38, 0
4, 620086, Note_on_c, 1, 45, 0
4, 620218, Note_on_c, 1, 45, 89
4, 621097, Note_on_c, 1, 45, 0
4, 621120, Note_on_c, 1, 42, 84
4, 622034, Note_on_c, 1, 42, 0
4, 622101, Note_on_c, 1, 43, 89
4, 623509, Note_on_c, 1, 43, 0
4, 623539, Note_on_c, 1, 38, 78
4, 623792, Note_on_c, 1, 38, 0
4, 624005, Note_on_c, 1, 38, 77
4, 625941, Note_on_c, 1, 38, 0
4, 626025, Note_on_c, 1, 46, 80
4, 626126, Note_on_c, 1, 46, 0
4, 626481, Note_on_c, 1, 46, 96
4, 626779, Note_on_c, 1, 46, 0
4, 626943, Note_on_c, 1, 45, 96
4, 629343, Note_on_c, 1, 37, 75
4, 629345, Note_on_c, 1, 45, 0
4, 629559, Note_on_c, 1, 37, 0
4, 629785, Note_on_c, 1, 38, 83
4, 631258, Note_on_c, 1, 38, 0
4, 631270, Note_on_c, 1, 45, 86
4, 635038, Note_on_c, 1, 52, 101
4, 635257, Note_on_c, 1, 45, 0
4, 635468, Note_on_c, 1, 52, 0
4, 635533, Note_on_c, 1, 50, 83
4, 635881, Note_on_c, 1, 50, 0
4, 636019, Note_on_c, 1, 50, 79
4, 636244, Note_on_c, 1, 50, 0
4, 636485, Note_on_c, 1, 45, 79
4, 636724, Note_on_c, 1, 45, 0
4, 637052, Note_on_c, 1, 45, 85
4, 637286, Note_on_c, 1, 45, 0
4, 637529, Note_on_c, 1, 38, 85
4, 638988, Note_on_c, 1, 45, 91
4, 639021, Note_on_c, 1, 38, 0
4, 641288, Note_on_c, 1, 45, 0
4, 641395, Note_on_c, 1, 38, 72
4, 642854, Note_on_c, 1, 45, 82
4, 642897, Note_on_c, 1, 38, 0
4, 645153, Note_on_c, 1, 45, 0
4, 645266, Note_on_c, 1, 38, 84
4, 646698, Note_on_c, 1, 50, 79
4, 648881, Note_on_c, 1, 38, 0
4, 648962, Note_on_c, 1, 50, 0
4, 649015, Note_on_c, 1, 38, 89
4, 653858, Note_on_c, 1, 38, 0
4, 653858, End_track
0, 0, End_of_file
