0, 0, Header, 0, 1, 120
1, 0, Start_track
1, 0, Title_t, "Moonlight In Vermont"
1, 0, Text_t, "Dougmck\012"
1, 0, Text_t, "dougmck@pipeline.com.au\012"
1, 0, Time_signature, 4, 2, 24, 8
1, 0, Key_signature, -3, "major"
1, 0, Tempo, 521739
1, 0, Marker_t, "Moonlight in Vermont"
1, 0, Program_c, 0, 0
1, 294, Control_c, 0, 64, 127
1, 365, Note_on_c, 0, 84, 68
1, 367, Note_on_c, 0, 72, 51
1, 368, Note_on_c, 0, 79, 50
1, 368, Note_on_c, 0, 68, 36
1, 472, Note_on_c, 0, 79, 0
1, 478, Note_on_c, 0, 84, 0
1, 481, Note_on_c, 0, 68, 0
1, 490, Note_on_c, 0, 72, 0
1, 619, Note_on_c, 0, 82, 55
1, 622, Note_on_c, 0, 67, 43
1, 622, Note_on_c, 0, 70, 34
1, 625, Note_on_c, 0, 77, 41
1, 643, Control_c, 0, 64, 0
1, 659, Control_c, 0, 64, 127
1, 685, Note_on_c, 0, 77, 0
1, 687, Note_on_c, 0, 82, 0
1, 689, Note_on_c, 0, 70, 0
1, 696, Note_on_c, 0, 67, 0
1, 751, Note_on_c, 0, 79, 49
1, 752, Note_on_c, 0, 67, 46
1, 754, Note_on_c, 0, 74, 48
1, 757, Note_on_c, 0, 63, 32
1, 768, Control_c, 0, 64, 0
1, 796, Control_c, 0, 64, 127
1, 814, Note_on_c, 0, 74, 0
1, 817, Note_on_c, 0, 79, 0
1, 832, Note_on_c, 0, 67, 0
1, 879, Note_on_c, 0, 77, 42
1, 883, Note_on_c, 0, 65, 29
1, 884, Note_on_c, 0, 61, 43
1, 885, Note_on_c, 0, 63, 0
1, 887, Note_on_c, 0, 72, 38
1, 966, Note_on_c, 0, 65, 0
1, 995, Note_on_c, 0, 77, 0
1, 998, Note_on_c, 0, 72, 0
1, 1043, Note_on_c, 0, 61, 0
1, 1083, Note_on_c, 0, 79, 43
1, 1084, Note_on_c, 0, 59, 33
1, 1086, Note_on_c, 0, 71, 34
1, 1087, Note_on_c, 0, 75, 36
1, 1100, Control_c, 0, 64, 0
1, 1145, Control_c, 0, 64, 127
1, 1159, Note_on_c, 0, 71, 0
1, 1185, Note_on_c, 0, 75, 0
1, 1215, Note_on_c, 0, 63, 25
1, 1244, Note_on_c, 0, 79, 0
1, 1365, Note_on_c, 0, 69, 19
1, 1434, Note_on_c, 0, 59, 0
1, 1435, Note_on_c, 0, 63, 0
1, 1445, Note_on_c, 0, 89, 56
1, 1492, Note_on_c, 0, 81, 48
1, 1505, Note_on_c, 0, 89, 0
1, 1545, Note_on_c, 0, 85, 48
1, 1583, Note_on_c, 0, 81, 0
1, 1585, Note_on_c, 0, 85, 0
1, 1594, Note_on_c, 0, 89, 57
1, 1625, Note_on_c, 0, 89, 0
1, 1656, Note_on_c, 0, 79, 29
1, 1657, Note_on_c, 0, 83, 46
1, 1659, Note_on_c, 0, 69, 0
1, 1660, Note_on_c, 0, 73, 23
1, 1798, Note_on_c, 0, 79, 0
1, 1800, Note_on_c, 0, 83, 0
1, 1846, Note_on_c, 0, 79, 31
1, 1851, Note_on_c, 0, 83, 35
1, 1880, Note_on_c, 0, 73, 0
1, 1887, Note_on_c, 0, 83, 0
1, 1889, Note_on_c, 0, 87, 60
1, 1898, Note_on_c, 0, 79, 0
1, 1919, Note_on_c, 0, 87, 0
1, 1933, Note_on_c, 0, 77, 41
1, 1934, Note_on_c, 0, 71, 39
1, 1935, Note_on_c, 0, 81, 53
1, 1949, Control_c, 0, 64, 0
1, 1957, Control_c, 0, 64, 127
1, 1980, Note_on_c, 0, 81, 0
1, 1981, Note_on_c, 0, 85, 52
1, 1998, Note_on_c, 0, 77, 0
1, 2003, Note_on_c, 0, 85, 0
1, 2054, Note_on_c, 0, 71, 0
1, 2054, Note_on_c, 0, 75, 23
1, 2058, Note_on_c, 0, 79, 39
1, 2068, Note_on_c, 0, 69, 22
1, 2201, Marker_t, "A1"
1, 2265, Note_on_c, 0, 75, 0
1, 2268, Note_on_c, 0, 69, 0
1, 2269, Note_on_c, 0, 79, 0
1, 2347, Note_on_c, 0, 68, 59
1, 2369, Note_on_c, 0, 72, 58
1, 2382, Note_on_c, 0, 79, 53
1, 2393, Note_on_c, 0, 84, 80
1, 2478, Note_on_c, 0, 79, 0
1, 2484, Note_on_c, 0, 84, 0
1, 2484, Note_on_c, 0, 68, 0
1, 2492, Note_on_c, 0, 72, 0
1, 2492, Note_on_c, 0, 67, 75
1, 2521, Note_on_c, 0, 70, 70
1, 2533, Note_on_c, 0, 77, 38
1, 2544, Control_c, 0, 64, 0
1, 2552, Note_on_c, 0, 82, 63
1, 2573, Control_c, 0, 64, 127
1, 2671, Note_on_c, 0, 77, 0
1, 2674, Note_on_c, 0, 67, 0
1, 2677, Note_on_c, 0, 82, 0
1, 2688, Note_on_c, 0, 70, 0
1, 2702, Note_on_c, 0, 63, 27
1, 2725, Note_on_c, 0, 67, 44
1, 2735, Note_on_c, 0, 74, 54
1, 2745, Control_c, 0, 64, 0
1, 2750, Note_on_c, 0, 79, 33
1, 2771, Control_c, 0, 64, 127
1, 2800, Note_on_c, 0, 74, 0
1, 2802, Note_on_c, 0, 79, 0
1, 2813, Note_on_c, 0, 67, 0
1, 2861, Note_on_c, 0, 65, 40
1, 2870, Note_on_c, 0, 63, 0
1, 2875, Note_on_c, 0, 61, 25
1, 2878, Note_on_c, 0, 72, 32
1, 2880, Note_on_c, 0, 77, 40
1, 2889, Control_c, 0, 64, 0
1, 2918, Control_c, 0, 64, 127
1, 2936, Note_on_c, 0, 77, 0
1, 2943, Note_on_c, 0, 65, 0
1, 2948, Note_on_c, 0, 72, 0
1, 2984, Note_on_c, 0, 75, 39
1, 2992, Note_on_c, 0, 70, 34
1, 2993, Note_on_c, 0, 63, 25
1, 3037, Note_on_c, 0, 63, 0
1, 3043, Note_on_c, 0, 61, 0
1, 3046, Note_on_c, 0, 70, 0
1, 3054, Note_on_c, 0, 75, 0
1, 3109, Note_on_c, 0, 77, 47
1, 3109, Note_on_c, 0, 65, 47
1, 3143, Note_on_c, 0, 65, 0
1, 3148, Note_on_c, 0, 77, 0
1, 3196, Note_on_c, 0, 79, 46
1, 3219, Note_on_c, 0, 79, 0
1, 3596, Note_on_c, 0, 71, 31
1, 3609, Note_on_c, 0, 61, 21
1, 3613, Note_on_c, 0, 59, 19
1, 3628, Control_c, 0, 64, 0
1, 3643, Note_on_c, 0, 63, 1
1, 3670, Control_c, 0, 64, 127
1, 3679, Note_on_c, 0, 61, 0
1, 3707, Note_on_c, 0, 61, 38
1, 3710, Note_on_c, 0, 59, 0
1, 3733, Note_on_c, 0, 63, 0
1, 3766, Note_on_c, 0, 61, 0
1, 3801, Note_on_c, 0, 63, 21
1, 3802, Note_on_c, 0, 59, 38
1, 3802, Note_on_c, 0, 61, 35
1, 3804, Note_on_c, 0, 67, 31
1, 3855, Note_on_c, 0, 61, 0
1, 3903, Note_on_c, 0, 61, 34
1, 3930, Note_on_c, 0, 67, 0
1, 3931, Note_on_c, 0, 59, 0
1, 3935, Note_on_c, 0, 63, 0
1, 3954, Note_on_c, 0, 61, 0
1, 3996, Note_on_c, 0, 59, 34
1, 3997, Note_on_c, 0, 63, 18
1, 3998, Note_on_c, 0, 67, 25
1, 3999, Note_on_c, 0, 61, 34
1, 4046, Note_on_c, 0, 61, 0
1, 4095, Note_on_c, 0, 59, 0
1, 4100, Note_on_c, 0, 61, 28
1, 4101, Note_on_c, 0, 67, 0
1, 4105, Note_on_c, 0, 63, 0
1, 4149, Note_on_c, 0, 61, 0
1, 4206, Note_on_c, 0, 61, 31
1, 4209, Note_on_c, 0, 67, 24
1, 4213, Note_on_c, 0, 63, 13
1, 4216, Note_on_c, 0, 59, 14
1, 4266, Note_on_c, 0, 61, 0
1, 4355, Note_on_c, 0, 61, 33
1, 4455, Note_on_c, 0, 61, 0
1, 4493, Note_on_c, 0, 67, 0
1, 4500, Note_on_c, 0, 71, 0
1, 4513, Note_on_c, 0, 59, 0
1, 4527, Note_on_c, 0, 63, 0
1, 4630, Note_on_c, 0, 48, 44
1, 4632, Note_on_c, 0, 63, 48
1, 4632, Note_on_c, 0, 41, 44
1, 4632, Note_on_c, 0, 67, 60
1, 4634, Note_on_c, 0, 58, 48
1, 4644, Control_c, 0, 64, 0
1, 4664, Control_c, 0, 64, 127
1, 4684, Note_on_c, 0, 67, 0
1, 4689, Note_on_c, 0, 48, 0
1, 4693, Note_on_c, 0, 41, 0
1, 4695, Note_on_c, 0, 58, 0
1, 4728, Note_on_c, 0, 63, 0
1, 4780, Note_on_c, 0, 65, 51
1, 4783, Note_on_c, 0, 39, 37
1, 4784, Note_on_c, 0, 46, 33
1, 4786, Note_on_c, 0, 60, 43
1, 4787, Note_on_c, 0, 55, 32
1, 4797, Control_c, 0, 64, 0
1, 4837, Control_c, 0, 64, 127
1, 4855, Note_on_c, 0, 46, 0
1, 4860, Note_on_c, 0, 65, 0
1, 4865, Note_on_c, 0, 39, 0
1, 4866, Note_on_c, 0, 60, 0
1, 4877, Note_on_c, 0, 55, 0
1, 4992, Note_on_c, 0, 63, 36
1, 4995, Note_on_c, 0, 58, 43
1, 4997, Note_on_c, 0, 53, 25
1, 4999, Note_on_c, 0, 37, 27
1, 5002, Note_on_c, 0, 44, 28
1, 5007, Control_c, 0, 64, 0
1, 5078, Control_c, 0, 64, 127
1, 5281, Note_on_c, 0, 63, 0
1, 5364, Note_on_c, 0, 63, 42
1, 5386, Note_on_c, 0, 44, 0
1, 5411, Note_on_c, 0, 53, 0
1, 5418, Note_on_c, 0, 58, 0
1, 5433, Note_on_c, 0, 37, 0
1, 5436, Note_on_c, 0, 63, 0
1, 5596, Note_on_c, 0, 63, 31
1, 5598, Note_on_c, 0, 56, 38
1, 5601, Note_on_c, 0, 49, 25
1, 5603, Control_c, 0, 64, 0
1, 5605, Note_on_c, 0, 35, 35
1, 5631, Note_on_c, 0, 49, 0
1, 5633, Control_c, 0, 64, 127
1, 5645, Note_on_c, 0, 56, 0
1, 5653, Note_on_c, 0, 63, 0
1, 5695, Note_on_c, 0, 35, 0
1, 5724, Note_on_c, 0, 75, 46
1, 5789, Note_on_c, 0, 75, 0
1, 5842, Note_on_c, 0, 75, 46
1, 5847, Note_on_c, 0, 61, 31
1, 5849, Note_on_c, 0, 68, 33
1, 5927, Note_on_c, 0, 47, 29
1, 5968, Note_on_c, 0, 68, 0
1, 5982, Note_on_c, 0, 61, 0
1, 5996, Note_on_c, 0, 54, 33
1, 6051, Note_on_c, 0, 47, 0
1, 6065, Note_on_c, 0, 54, 0
1, 6066, Note_on_c, 0, 59, 36
1, 6066, Note_on_c, 0, 61, 20
1, 6076, Note_on_c, 0, 61, 0
1, 6118, Note_on_c, 0, 59, 0
1, 6127, Note_on_c, 0, 75, 0
1, 6136, Note_on_c, 0, 61, 47
1, 6141, Note_on_c, 0, 68, 38
1, 6179, Note_on_c, 0, 68, 0
1, 6204, Note_on_c, 0, 63, 50
1, 6240, Note_on_c, 0, 63, 0
1, 6275, Note_on_c, 0, 68, 51
1, 6327, Note_on_c, 0, 68, 0
1, 6335, Note_on_c, 0, 63, 50
1, 6336, Note_on_c, 0, 61, 0
1, 6348, Note_on_c, 0, 63, 0
1, 6399, Note_on_c, 0, 61, 44
1, 6400, Note_on_c, 0, 68, 43
1, 6464, Note_on_c, 0, 54, 42
1, 6492, Note_on_c, 0, 68, 0
1, 6498, Note_on_c, 0, 61, 0
1, 6540, Note_on_c, 0, 61, 36
1, 6611, Note_on_c, 0, 61, 0
1, 6632, Note_on_c, 0, 47, 37
1, 6635, Note_on_c, 0, 75, 38
1, 6724, Note_on_c, 0, 54, 0
1, 6744, Note_on_c, 0, 47, 0
1, 6777, Note_on_c, 0, 75, 0
1, 7022, Note_on_c, 0, 84, 82
1, 7024, Note_on_c, 0, 79, 62
1, 7024, Note_on_c, 0, 72, 68
1, 7024, Note_on_c, 0, 68, 55
1, 7096, Note_on_c, 0, 84, 0
1, 7097, Note_on_c, 0, 79, 0
1, 7108, Note_on_c, 0, 72, 0
1, 7140, Note_on_c, 0, 68, 0
1, 7151, Note_on_c, 0, 82, 64
1, 7154, Note_on_c, 0, 67, 49
1, 7154, Note_on_c, 0, 70, 58
1, 7156, Note_on_c, 0, 77, 53
1, 7165, Control_c, 0, 64, 0
1, 7180, Control_c, 0, 64, 127
1, 7203, Note_on_c, 0, 77, 0
1, 7206, Note_on_c, 0, 82, 0
1, 7211, Note_on_c, 0, 70, 0
1, 7255, Note_on_c, 0, 67, 0
1, 7303, Note_on_c, 0, 79, 56
1, 7307, Note_on_c, 0, 67, 39
1, 7307, Note_on_c, 0, 74, 50
1, 7312, Note_on_c, 0, 63, 32
1, 7320, Control_c, 0, 64, 0
1, 7342, Control_c, 0, 64, 127
1, 7369, Note_on_c, 0, 74, 0
1, 7375, Note_on_c, 0, 79, 0
1, 7386, Note_on_c, 0, 67, 0
1, 7454, Note_on_c, 0, 63, 0
1, 7457, Note_on_c, 0, 77, 44
1, 7462, Note_on_c, 0, 65, 26
1, 7464, Note_on_c, 0, 72, 34
1, 7466, Note_on_c, 0, 61, 25
1, 7478, Control_c, 0, 64, 0
1, 7486, Control_c, 0, 64, 127
1, 7530, Note_on_c, 0, 65, 0
1, 7551, Note_on_c, 0, 72, 0
1, 7553, Note_on_c, 0, 77, 0
1, 7606, Note_on_c, 0, 61, 0
1, 7609, Note_on_c, 0, 79, 47
1, 7613, Note_on_c, 0, 71, 34
1, 7614, Note_on_c, 0, 75, 33
1, 7617, Note_on_c, 0, 59, 26
1, 7625, Control_c, 0, 64, 0
1, 7655, Control_c, 0, 64, 127
1, 7692, Note_on_c, 0, 71, 0
1, 7735, Note_on_c, 0, 73, 27
1, 7738, Note_on_c, 0, 63, 23
1, 7741, Note_on_c, 0, 69, 28
1, 7749, Note_on_c, 0, 79, 0
1, 7759, Note_on_c, 0, 75, 0
1, 7784, Note_on_c, 0, 69, 0
1, 7785, Note_on_c, 0, 73, 0
1, 7816, Note_on_c, 0, 63, 0
1, 7858, Note_on_c, 0, 63, 21
1, 7859, Note_on_c, 0, 71, 31
1, 7861, Note_on_c, 0, 67, 24
1, 7900, Note_on_c, 0, 67, 0
1, 7904, Note_on_c, 0, 59, 0
1, 7921, Note_on_c, 0, 71, 0
1, 7959, Note_on_c, 0, 59, 28
1, 7960, Note_on_c, 0, 63, 0
1, 8047, Note_on_c, 0, 65, 30
1, 8047, Note_on_c, 0, 69, 56
1, 8051, Note_on_c, 0, 63, 18
1, 8077, Note_on_c, 0, 65, 0
1, 8092, Note_on_c, 0, 69, 0
1, 8102, Note_on_c, 0, 59, 0
1, 8125, Note_on_c, 0, 63, 0
1, 8126, Note_on_c, 0, 71, 57
1, 8142, Note_on_c, 0, 59, 13
1, 8147, Note_on_c, 0, 71, 0
1, 8198, Note_on_c, 0, 69, 53
1, 8199, Note_on_c, 0, 73, 33
1, 8201, Note_on_c, 0, 63, 27
1, 8243, Note_on_c, 0, 69, 0
1, 8247, Note_on_c, 0, 73, 0
1, 8248, Note_on_c, 0, 59, 0
1, 8287, Note_on_c, 0, 77, 40
1, 8291, Note_on_c, 0, 71, 37
1, 8295, Note_on_c, 0, 59, 24
1, 8310, Note_on_c, 0, 63, 0
1, 8501, Note_on_c, 0, 59, 0
1, 8592, Note_on_c, 0, 71, 0
1, 8600, Note_on_c, 0, 59, 19
1, 8613, Note_on_c, 0, 77, 0
1, 8632, Note_on_c, 0, 59, 0
1, 8756, Note_on_c, 0, 84, 72
1, 8758, Note_on_c, 0, 79, 60
1, 8760, Note_on_c, 0, 72, 51
1, 8762, Note_on_c, 0, 68, 33
1, 8766, Control_c, 0, 64, 0
1, 8776, Control_c, 0, 64, 127
1, 8796, Note_on_c, 0, 84, 0
1, 8797, Note_on_c, 0, 79, 0
1, 8814, Note_on_c, 0, 72, 0
1, 8854, Note_on_c, 0, 68, 0
1, 8864, Note_on_c, 0, 82, 60
1, 8867, Note_on_c, 0, 70, 48
1, 8869, Note_on_c, 0, 77, 52
1, 8869, Note_on_c, 0, 67, 43
1, 8880, Control_c, 0, 64, 0
1, 8890, Control_c, 0, 64, 127
1, 8913, Note_on_c, 0, 77, 0
1, 8919, Note_on_c, 0, 82, 0
1, 8927, Note_on_c, 0, 70, 0
1, 8941, Note_on_c, 0, 67, 0
1, 8965, Note_on_c, 0, 79, 53
1, 8966, Note_on_c, 0, 74, 47
1, 8970, Note_on_c, 0, 63, 28
1, 8972, Note_on_c, 0, 67, 19
1, 8975, Control_c, 0, 64, 0
1, 8989, Control_c, 0, 64, 127
1, 9005, Note_on_c, 0, 74, 0
1, 9008, Note_on_c, 0, 79, 0
1, 9027, Note_on_c, 0, 67, 0
1, 9062, Note_on_c, 0, 77, 46
1, 9064, Note_on_c, 0, 63, 0
1, 9069, Note_on_c, 0, 72, 37
1, 9069, Note_on_c, 0, 65, 24
1, 9070, Note_on_c, 0, 61, 30
1, 9079, Control_c, 0, 64, 0
1, 9089, Control_c, 0, 64, 127
1, 9179, Note_on_c, 0, 77, 0
1, 9204, Note_on_c, 0, 75, 36
1, 9223, Note_on_c, 0, 65, 0
1, 9225, Note_on_c, 0, 61, 0
1, 9231, Note_on_c, 0, 72, 0
1, 9265, Note_on_c, 0, 75, 0
1, 9327, Note_on_c, 0, 77, 33
1, 9331, Note_on_c, 0, 71, 38
1, 9333, Note_on_c, 0, 65, 27
1, 9340, Control_c, 0, 64, 0
1, 9343, Note_on_c, 0, 49, 20
1, 9374, Control_c, 0, 64, 127
1, 9393, Note_on_c, 0, 77, 0
1, 9404, Note_on_c, 0, 65, 0
1, 9428, Note_on_c, 0, 71, 0
1, 9458, Note_on_c, 0, 79, 41
1, 9505, Note_on_c, 0, 49, 0
1, 9584, Note_on_c, 0, 79, 0
1, 9636, Note_on_c, 0, 61, 33
1, 9654, Note_on_c, 0, 63, 33
1, 9666, Note_on_c, 0, 61, 0
1, 9668, Note_on_c, 0, 63, 0
1, 9673, Note_on_c, 0, 65, 36
1, 9685, Note_on_c, 0, 67, 54
1, 9696, Note_on_c, 0, 65, 0
1, 9703, Note_on_c, 0, 69, 40
1, 9713, Note_on_c, 0, 71, 55
1, 9715, Note_on_c, 0, 69, 0
1, 9717, Note_on_c, 0, 67, 0
1, 9730, Note_on_c, 0, 71, 0
1, 9730, Note_on_c, 0, 73, 39
1, 9749, Note_on_c, 0, 73, 0
1, 9754, Note_on_c, 0, 77, 44
1, 9772, Note_on_c, 0, 77, 0
1, 9773, Note_on_c, 0, 79, 43
1, 9787, Note_on_c, 0, 79, 0
1, 9790, Note_on_c, 0, 83, 56
1, 9796, Note_on_c, 0, 83, 0
1, 9803, Note_on_c, 0, 85, 62
1, 9810, Note_on_c, 0, 85, 0
1, 9825, Note_on_c, 0, 89, 44
1, 9846, Note_on_c, 0, 89, 0
1, 9846, Note_on_c, 0, 91, 50
1, 9853, Note_on_c, 0, 93, 65
1, 9867, Note_on_c, 0, 91, 0
1, 9875, Note_on_c, 0, 93, 0
1, 9876, Note_on_c, 0, 95, 70
1, 9903, Note_on_c, 0, 95, 0
1, 9952, Note_on_c, 0, 61, 37
1, 9979, Note_on_c, 0, 61, 0
1, 9987, Note_on_c, 0, 65, 41
1, 10000, Note_on_c, 0, 67, 53
1, 10009, Note_on_c, 0, 65, 0
1, 10022, Note_on_c, 0, 69, 32
1, 10029, Note_on_c, 0, 67, 0
1, 10029, Note_on_c, 0, 71, 56
1, 10031, Note_on_c, 0, 69, 0
1, 10041, Note_on_c, 0, 71, 0
1, 10046, Note_on_c, 0, 73, 34
1, 10058, Note_on_c, 0, 75, 23
1, 10066, Note_on_c, 0, 75, 0
1, 10066, Note_on_c, 0, 73, 0
1, 10068, Note_on_c, 0, 77, 45
1, 10087, Note_on_c, 0, 77, 0
1, 10087, Note_on_c, 0, 79, 32
1, 10097, Note_on_c, 0, 81, 32
1, 10099, Note_on_c, 0, 79, 0
1, 10102, Note_on_c, 0, 83, 50
1, 10107, Note_on_c, 0, 81, 0
1, 10109, Note_on_c, 0, 83, 0
1, 10117, Note_on_c, 0, 85, 57
1, 10131, Note_on_c, 0, 85, 0
1, 10139, Note_on_c, 0, 89, 47
1, 10156, Note_on_c, 0, 89, 0
1, 10157, Note_on_c, 0, 91, 48
1, 10170, Note_on_c, 0, 93, 45
1, 10182, Note_on_c, 0, 91, 0
1, 10183, Note_on_c, 0, 95, 68
1, 10186, Note_on_c, 0, 93, 0
1, 10202, Note_on_c, 0, 95, 0
1, 10259, Note_on_c, 0, 61, 52
1, 10291, Note_on_c, 0, 63, 37
1, 10297, Note_on_c, 0, 61, 0
1, 10303, Note_on_c, 0, 63, 0
1, 10311, Note_on_c, 0, 65, 44
1, 10319, Note_on_c, 0, 67, 59
1, 10324, Note_on_c, 0, 65, 0
1, 10334, Note_on_c, 0, 69, 50
1, 10344, Note_on_c, 0, 71, 57
1, 10348, Note_on_c, 0, 67, 0
1, 10351, Note_on_c, 0, 69, 0
1, 10358, Note_on_c, 0, 73, 42
1, 10360, Note_on_c, 0, 71, 0
1, 10369, Note_on_c, 0, 75, 32
1, 10378, Note_on_c, 0, 75, 0
1, 10379, Note_on_c, 0, 77, 55
1, 10381, Note_on_c, 0, 73, 0
1, 10397, Note_on_c, 0, 79, 51
1, 10403, Note_on_c, 0, 77, 0
1, 10407, Note_on_c, 0, 81, 44
1, 10419, Note_on_c, 0, 83, 51
1, 10421, Note_on_c, 0, 79, 0
1, 10425, Note_on_c, 0, 81, 0
1, 10434, Note_on_c, 0, 83, 0
1, 10435, Note_on_c, 0, 85, 63
1, 10446, Note_on_c, 0, 87, 34
1, 10455, Note_on_c, 0, 85, 0
1, 10461, Note_on_c, 0, 87, 0
1, 10470, Note_on_c, 0, 91, 37
1, 10485, Note_on_c, 0, 93, 50
1, 10506, Note_on_c, 0, 93, 0
1, 10506, Note_on_c, 0, 91, 0
1, 10523, Note_on_c, 0, 97, 46
1, 10542, Note_on_c, 0, 99, 25
1, 10560, Note_on_c, 0, 101, 24
1, 10572, Note_on_c, 0, 101, 0
1, 10574, Note_on_c, 0, 103, 39
1, 10581, Note_on_c, 0, 105, 54
1, 10595, Note_on_c, 0, 103, 0
1, 10599, Note_on_c, 0, 107, 61
1, 10600, Note_on_c, 0, 105, 0
1, 10656, Note_on_c, 0, 107, 0
1, 10659, Note_on_c, 0, 99, 0
1, 10664, Note_on_c, 0, 97, 0
1, 11059, Note_on_c, 0, 48, 43
1, 11061, Note_on_c, 0, 63, 53
1, 11062, Note_on_c, 0, 58, 65
1, 11063, Note_on_c, 0, 41, 43
1, 11065, Note_on_c, 0, 67, 49
1, 11070, Control_c, 0, 64, 0
1, 11092, Control_c, 0, 64, 127
1, 11101, Note_on_c, 0, 67, 0
1, 11109, Note_on_c, 0, 48, 0
1, 11114, Note_on_c, 0, 41, 0
1, 11114, Note_on_c, 0, 58, 0
1, 11134, Note_on_c, 0, 63, 0
1, 11203, Note_on_c, 0, 65, 46
1, 11205, Note_on_c, 0, 60, 47
1, 11207, Note_on_c, 0, 39, 38
1, 11207, Note_on_c, 0, 46, 31
1, 11209, Note_on_c, 0, 55, 41
1, 11219, Control_c, 0, 64, 0
1, 11261, Control_c, 0, 64, 127
1, 11285, Note_on_c, 0, 46, 0
1, 11287, Note_on_c, 0, 55, 0
1, 11288, Note_on_c, 0, 60, 0
1, 11292, Note_on_c, 0, 65, 0
1, 11294, Note_on_c, 0, 39, 0
1, 11371, Note_on_c, 0, 63, 34
1, 11373, Note_on_c, 0, 53, 26
1, 11374, Note_on_c, 0, 58, 38
1, 11377, Note_on_c, 0, 37, 27
1, 11378, Note_on_c, 0, 44, 25
1, 11395, Control_c, 0, 64, 0
1, 11454, Control_c, 0, 64, 127
1, 11758, Note_on_c, 0, 63, 0
1, 11933, Note_on_c, 0, 63, 39
1, 11978, Note_on_c, 0, 44, 0
1, 12001, Note_on_c, 0, 37, 0
1, 12038, Note_on_c, 0, 53, 0
1, 12045, Note_on_c, 0, 63, 0
1, 12056, Note_on_c, 0, 58, 0
1, 12398, Note_on_c, 0, 75, 36
1, 12402, Note_on_c, 0, 68, 33
1, 12402, Note_on_c, 0, 47, 30
1, 12406, Note_on_c, 0, 61, 18
1, 12420, Control_c, 0, 64, 0
1, 12462, Control_c, 0, 64, 127
1, 12470, Note_on_c, 0, 54, 27
1, 12483, Note_on_c, 0, 68, 0
1, 12486, Note_on_c, 0, 61, 0
1, 12527, Note_on_c, 0, 47, 0
1, 12530, Note_on_c, 0, 75, 0
1, 12542, Note_on_c, 0, 54, 0
1, 12542, Note_on_c, 0, 61, 31
1, 12544, Note_on_c, 0, 68, 32
1, 12551, Note_on_c, 0, 59, 28
1, 12566, Note_on_c, 0, 61, 0
1, 12605, Note_on_c, 0, 59, 0
1, 12610, Note_on_c, 0, 68, 0
1, 12622, Note_on_c, 0, 61, 25
1, 12702, Note_on_c, 0, 63, 28
1, 12704, Note_on_c, 0, 68, 34
1, 12802, Note_on_c, 0, 68, 0
1, 12862, Note_on_c, 0, 63, 0
1, 12928, Note_on_c, 0, 63, 25
1, 12930, Note_on_c, 0, 68, 27
1, 13046, Note_on_c, 0, 75, 34
1, 13048, Note_on_c, 0, 68, 0
1, 13076, Note_on_c, 0, 75, 0
1, 13157, Note_on_c, 0, 86, 55
1, 13187, Note_on_c, 0, 63, 0
1, 13198, Note_on_c, 0, 61, 0
1, 13210, Note_on_c, 0, 86, 0
1, 13254, Note_on_c, 0, 86, 48
1, 13286, Note_on_c, 0, 86, 0
1, 13353, Note_on_c, 0, 86, 56
1, 13356, Note_on_c, 0, 45, 24
1, 13361, Control_c, 0, 64, 0
1, 13371, Control_c, 0, 64, 127
1, 13373, Note_on_c, 0, 45, 0
1, 13460, Note_on_c, 0, 64, 27
1, 13460, Note_on_c, 0, 55, 25
1, 13462, Note_on_c, 0, 60, 29
1, 13464, Note_on_c, 0, 59, 24
1, 13490, Note_on_c, 0, 86, 0
1, 13565, Note_on_c, 0, 74, 39
1, 13659, Note_on_c, 0, 64, 0
1, 13667, Note_on_c, 0, 60, 0
1, 13668, Note_on_c, 0, 59, 0
1, 13690, Note_on_c, 0, 86, 79
1, 13694, Note_on_c, 0, 55, 0
1, 13756, Note_on_c, 0, 86, 0
1, 13790, Note_on_c, 0, 38, 45
1, 13792, Note_on_c, 0, 86, 80
1, 13794, Control_c, 0, 64, 0
1, 13799, Note_on_c, 0, 38, 0
1, 13806, Control_c, 0, 64, 127
1, 13896, Note_on_c, 0, 54, 35
1, 13898, Note_on_c, 0, 64, 32
1, 13900, Note_on_c, 0, 60, 44
1, 13982, Note_on_c, 0, 74, 0
1, 13995, Note_on_c, 0, 86, 0
1, 14001, Note_on_c, 0, 74, 62
1, 14034, Note_on_c, 0, 64, 0
1, 14038, Note_on_c, 0, 60, 0
1, 14057, Note_on_c, 0, 54, 0
1, 14112, Note_on_c, 0, 86, 84
1, 14200, Note_on_c, 0, 86, 0
1, 14229, Note_on_c, 0, 86, 80
1, 14230, Note_on_c, 0, 38, 58
1, 14243, Control_c, 0, 64, 0
1, 14251, Note_on_c, 0, 38, 0
1, 14253, Control_c, 0, 64, 127
1, 14356, Note_on_c, 0, 54, 34
1, 14357, Note_on_c, 0, 64, 40
1, 14359, Note_on_c, 0, 59, 52
1, 14387, Note_on_c, 0, 74, 0
1, 14416, Note_on_c, 0, 86, 0
1, 14458, Note_on_c, 0, 83, 94
1, 14469, Note_on_c, 0, 64, 0
1, 14470, Note_on_c, 0, 59, 0
1, 14488, Note_on_c, 0, 54, 0
1, 14527, Note_on_c, 0, 83, 0
1, 14546, Note_on_c, 0, 50, 58
1, 14547, Note_on_c, 0, 86, 92
1, 14554, Control_c, 0, 64, 0
1, 14562, Control_c, 0, 64, 127
1, 14584, Note_on_c, 0, 86, 0
1, 14644, Note_on_c, 0, 83, 67
1, 14646, Note_on_c, 0, 74, 60
1, 14648, Note_on_c, 0, 59, 35
1, 14649, Note_on_c, 0, 78, 49
1, 14681, Note_on_c, 0, 83, 0
1, 14688, Note_on_c, 0, 78, 0
1, 14690, Note_on_c, 0, 74, 0
1, 14750, Note_on_c, 0, 81, 57
1, 14756, Note_on_c, 0, 74, 49
1, 14780, Note_on_c, 0, 74, 0
1, 14781, Note_on_c, 0, 81, 0
1, 14782, Note_on_c, 0, 59, 0
1, 14860, Note_on_c, 0, 78, 37
1, 14866, Note_on_c, 0, 66, 26
1, 14868, Note_on_c, 0, 71, 46
1, 14871, Note_on_c, 0, 59, 25
1, 14950, Note_on_c, 0, 50, 0
1, 15001, Note_on_c, 0, 50, 32
1, 15010, Note_on_c, 0, 78, 0
1, 15011, Note_on_c, 0, 71, 0
1, 15026, Note_on_c, 0, 66, 0
1, 15076, Note_on_c, 0, 59, 0
1, 15077, Note_on_c, 0, 74, 67
1, 15125, Note_on_c, 0, 74, 0
1, 15153, Note_on_c, 0, 74, 66
1, 15163, Note_on_c, 0, 72, 46
1, 15164, Note_on_c, 0, 67, 50
1, 15165, Note_on_c, 0, 62, 46
1, 15165, Note_on_c, 0, 64, 54
1, 15180, Control_c, 0, 64, 0
1, 15228, Note_on_c, 0, 50, 0
1, 15228, Control_c, 0, 64, 127
1, 15253, Note_on_c, 0, 50, 33
1, 15279, Note_on_c, 0, 64, 0
1, 15282, Note_on_c, 0, 62, 0
1, 15287, Note_on_c, 0, 67, 0
1, 15316, Note_on_c, 0, 74, 0
1, 15323, Note_on_c, 0, 72, 0
1, 15338, Note_on_c, 0, 64, 40
1, 15340, Note_on_c, 0, 62, 34
1, 15398, Note_on_c, 0, 50, 0
1, 15413, Note_on_c, 0, 71, 72
1, 15420, Note_on_c, 0, 50, 33
1, 15424, Note_on_c, 0, 64, 0
1, 15438, Note_on_c, 0, 62, 0
1, 15500, Note_on_c, 0, 60, 39
1, 15502, Note_on_c, 0, 68, 33
1, 15503, Note_on_c, 0, 64, 53
1, 15514, Note_on_c, 0, 71, 0
1, 15525, Control_c, 0, 64, 0
1, 15566, Note_on_c, 0, 50, 0
1, 15583, Control_c, 0, 64, 127
1, 15598, Note_on_c, 0, 50, 35
1, 15655, Note_on_c, 0, 60, 0
1, 15676, Note_on_c, 0, 64, 0
1, 15701, Note_on_c, 0, 60, 24
1, 15716, Note_on_c, 0, 68, 0
1, 15761, Note_on_c, 0, 50, 0
1, 15787, Note_on_c, 0, 71, 46
1, 15792, Note_on_c, 0, 50, 27
1, 15818, Note_on_c, 0, 71, 0
1, 15820, Note_on_c, 0, 60, 0
1, 15886, Note_on_c, 0, 69, 40
1, 15887, Note_on_c, 0, 62, 44
1, 15887, Note_on_c, 0, 57, 32
1, 15888, Note_on_c, 0, 66, 34
1, 15894, Control_c, 0, 64, 0
1, 15910, Control_c, 0, 64, 127
1, 15936, Note_on_c, 0, 50, 0
1, 15951, Note_on_c, 0, 62, 0
1, 15970, Note_on_c, 0, 66, 0
1, 15974, Note_on_c, 0, 69, 0
1, 15975, Note_on_c, 0, 50, 47
1, 16010, Note_on_c, 0, 57, 0
1, 16062, Note_on_c, 0, 81, 76
1, 16062, Note_on_c, 0, 74, 80
1, 16066, Note_on_c, 0, 62, 44
1, 16117, Note_on_c, 0, 81, 0
1, 16126, Note_on_c, 0, 74, 0
1, 16130, Note_on_c, 0, 62, 0
1, 16139, Note_on_c, 0, 57, 42
1, 16221, Note_on_c, 0, 57, 0
1, 16226, Note_on_c, 0, 74, 55
1, 16228, Note_on_c, 0, 66, 32
1, 16230, Note_on_c, 0, 50, 0
1, 16231, Note_on_c, 0, 62, 41
1, 16320, Note_on_c, 0, 38, 52
1, 16366, Note_on_c, 0, 62, 0
1, 16395, Note_on_c, 0, 74, 0
1, 16415, Note_on_c, 0, 62, 55
1, 16415, Note_on_c, 0, 50, 36
1, 16453, Note_on_c, 0, 66, 0
1, 16456, Note_on_c, 0, 62, 0
1, 16495, Note_on_c, 0, 38, 0
1, 16507, Note_on_c, 0, 72, 89
1, 16513, Note_on_c, 0, 50, 0
1, 16589, Note_on_c, 0, 72, 0
1, 16599, Note_on_c, 0, 70, 52
1, 16603, Note_on_c, 0, 65, 42
1, 16603, Note_on_c, 0, 61, 37
1, 16603, Note_on_c, 0, 56, 32
1, 16609, Note_on_c, 0, 46, 25
1, 16612, Control_c, 0, 64, 0
1, 16628, Control_c, 0, 64, 127
1, 16639, Note_on_c, 0, 61, 0
1, 16643, Note_on_c, 0, 65, 0
1, 16663, Note_on_c, 0, 70, 0
1, 16669, Note_on_c, 0, 56, 0
1, 16689, Note_on_c, 0, 53, 40
1, 16697, Note_on_c, 0, 84, 77
1, 16700, Note_on_c, 0, 46, 0
1, 16703, Note_on_c, 0, 53, 0
1, 16749, Note_on_c, 0, 84, 0
1, 16796, Note_on_c, 0, 65, 40
1, 16797, Note_on_c, 0, 61, 37
1, 16797, Note_on_c, 0, 85, 57
1, 16797, Note_on_c, 0, 73, 48
1, 16800, Note_on_c, 0, 60, 38
1, 16862, Note_on_c, 0, 73, 0
1, 16864, Note_on_c, 0, 85, 0
1, 16886, Note_on_c, 0, 60, 0
1, 16894, Note_on_c, 0, 87, 64
1, 16896, Note_on_c, 0, 75, 52
1, 16897, Note_on_c, 0, 58, 34
1, 16933, Note_on_c, 0, 65, 0
1, 16948, Note_on_c, 0, 61, 0
1, 16954, Note_on_c, 0, 75, 0
1, 16964, Note_on_c, 0, 58, 0
1, 16966, Note_on_c, 0, 87, 0
1, 17002, Note_on_c, 0, 87, 52
1, 17002, Note_on_c, 0, 61, 31
1, 17005, Control_c, 0, 64, 0
1, 17006, Note_on_c, 0, 65, 30
1, 17006, Note_on_c, 0, 55, 36
1, 17007, Note_on_c, 0, 75, 38
1, 17027, Control_c, 0, 64, 127
1, 17049, Note_on_c, 0, 65, 0
1, 17061, Note_on_c, 0, 55, 0
1, 17062, Note_on_c, 0, 61, 0
1, 17091, Note_on_c, 0, 87, 0
1, 17111, Note_on_c, 0, 87, 49
1, 17220, Note_on_c, 0, 27, 37
1, 17244, Note_on_c, 0, 27, 0
1, 17346, Note_on_c, 0, 75, 0
1, 17370, Note_on_c, 0, 87, 0
1, 17444, Control_c, 0, 64, 0
1, 17448, Note_on_c, 0, 44, 39
1, 17450, Note_on_c, 0, 51, 36
1, 17466, Control_c, 0, 64, 127
1, 17511, Note_on_c, 0, 91, 90
1, 17519, Note_on_c, 0, 44, 0
1, 17525, Note_on_c, 0, 51, 0
1, 17544, Note_on_c, 0, 91, 0
1, 17556, Note_on_c, 0, 94, 83
1, 17587, Note_on_c, 0, 94, 0
1, 17608, Note_on_c, 0, 92, 83
1, 17646, Note_on_c, 0, 92, 0
1, 17658, Note_on_c, 0, 63, 40
1, 17661, Note_on_c, 0, 84, 59
1, 17665, Note_on_c, 0, 53, 30
1, 17665, Note_on_c, 0, 58, 33
1, 17677, Control_c, 0, 64, 0
1, 17707, Note_on_c, 0, 84, 0
1, 17707, Control_c, 0, 64, 127
1, 17714, Note_on_c, 0, 91, 80
1, 17756, Note_on_c, 0, 91, 0
1, 17772, Note_on_c, 0, 89, 74
1, 17802, Note_on_c, 0, 89, 0
1, 17830, Note_on_c, 0, 79, 44
1, 17844, Note_on_c, 0, 63, 0
1, 17860, Note_on_c, 0, 53, 0
1, 17874, Note_on_c, 0, 58, 0
1, 17888, Note_on_c, 0, 79, 0
1, 17889, Note_on_c, 0, 87, 72
1, 17927, Note_on_c, 0, 87, 0
1, 17966, Note_on_c, 0, 84, 70
1, 17989, Note_on_c, 0, 84, 0
1, 18029, Note_on_c, 0, 82, 62
1, 18065, Note_on_c, 0, 82, 0
1, 18087, Note_on_c, 0, 70, 53
1, 18093, Note_on_c, 0, 41, 41
1, 18121, Note_on_c, 0, 41, 0
1, 18138, Note_on_c, 0, 70, 0
1, 18157, Note_on_c, 0, 69, 58
1, 18217, Note_on_c, 0, 69, 0
1, 18222, Note_on_c, 0, 79, 60
1, 18276, Note_on_c, 0, 79, 0
1, 18294, Note_on_c, 0, 63, 26
1, 18295, Note_on_c, 0, 68, 48
1, 18304, Note_on_c, 0, 60, 30
1, 18306, Note_on_c, 0, 56, 23
1, 18307, Note_on_c, 0, 53, 13
1, 18309, Control_c, 0, 64, 0
1, 18337, Control_c, 0, 64, 127
1, 18360, Note_on_c, 0, 68, 0
1, 18383, Note_on_c, 0, 67, 46
1, 18388, Note_on_c, 0, 63, 0
1, 18405, Note_on_c, 0, 60, 0
1, 18431, Note_on_c, 0, 56, 0
1, 18437, Note_on_c, 0, 53, 0
1, 18485, Note_on_c, 0, 67, 0
1, 18674, Note_on_c, 0, 61, 35
1, 18678, Note_on_c, 0, 46, 28
1, 18678, Note_on_c, 0, 65, 40
1, 18680, Note_on_c, 0, 56, 20
1, 18692, Control_c, 0, 64, 0
1, 18726, Control_c, 0, 64, 127
1, 18749, Note_on_c, 0, 61, 0
1, 18756, Note_on_c, 0, 56, 0
1, 18756, Note_on_c, 0, 72, 67
1, 18801, Note_on_c, 0, 72, 0
1, 18804, Note_on_c, 0, 65, 0
1, 18805, Note_on_c, 0, 46, 0
1, 18844, Note_on_c, 0, 72, 61
1, 18846, Note_on_c, 0, 61, 39
1, 18846, Note_on_c, 0, 60, 36
1, 18847, Note_on_c, 0, 65, 53
1, 18911, Note_on_c, 0, 72, 0
1, 18925, Note_on_c, 0, 60, 0
1, 18933, Note_on_c, 0, 58, 34
1, 18934, Note_on_c, 0, 70, 50
1, 18943, Note_on_c, 0, 58, 0
1, 18951, Note_on_c, 0, 65, 0
1, 18961, Note_on_c, 0, 61, 0
1, 18987, Note_on_c, 0, 70, 0
1, 19040, Note_on_c, 0, 39, 30
1, 19043, Note_on_c, 0, 72, 47
1, 19043, Note_on_c, 0, 27, 35
1, 19045, Note_on_c, 0, 61, 31
1, 19046, Note_on_c, 0, 64, 43
1, 19057, Control_c, 0, 64, 0
1, 19093, Control_c, 0, 64, 127
1, 19098, Note_on_c, 0, 27, 0
1, 19109, Note_on_c, 0, 39, 0
1, 19148, Note_on_c, 0, 72, 0
1, 19162, Note_on_c, 0, 70, 53
1, 19209, Note_on_c, 0, 64, 0
1, 19234, Note_on_c, 0, 61, 0
1, 19275, Note_on_c, 0, 61, 36
1, 19280, Note_on_c, 0, 64, 43
1, 19282, Note_on_c, 0, 67, 37
1, 19284, Note_on_c, 0, 55, 29
1, 19337, Note_on_c, 0, 64, 0
1, 19366, Note_on_c, 0, 61, 0
1, 19379, Note_on_c, 0, 67, 0
1, 19384, Note_on_c, 0, 70, 0
1, 19399, Note_on_c, 0, 55, 0
1, 19406, Note_on_c, 0, 63, 42
1, 19406, Note_on_c, 0, 61, 29
1, 19409, Note_on_c, 0, 51, 35
1, 19444, Note_on_c, 0, 61, 0
1, 19457, Note_on_c, 0, 63, 0
1, 19506, Note_on_c, 0, 51, 0
1, 19605, Note_on_c, 0, 60, 40
1, 19607, Note_on_c, 0, 55, 26
1, 19609, Note_on_c, 0, 44, 30
1, 19617, Control_c, 0, 64, 0
1, 19647, Control_c, 0, 64, 127
1, 19659, Note_on_c, 0, 55, 0
1, 19677, Note_on_c, 0, 60, 0
1, 19687, Note_on_c, 0, 51, 37
1, 19751, Note_on_c, 0, 44, 0
1, 19761, Note_on_c, 0, 63, 29
1, 19761, Note_on_c, 0, 67, 43
1, 19763, Note_on_c, 0, 51, 0
1, 19763, Note_on_c, 0, 55, 33
1, 19763, Note_on_c, 0, 60, 27
1, 19773, Note_on_c, 0, 60, 0
1, 19783, Note_on_c, 0, 63, 0
1, 19786, Note_on_c, 0, 67, 0
1, 19823, Note_on_c, 0, 55, 0
1, 19851, Note_on_c, 0, 75, 51
1, 19854, Note_on_c, 0, 58, 36
1, 19878, Note_on_c, 0, 58, 0
1, 19879, Note_on_c, 0, 75, 0
1, 20229, Note_on_c, 0, 34, 47
1, 20236, Control_c, 0, 64, 0
1, 20262, Control_c, 0, 64, 127
1, 20301, Note_on_c, 0, 34, 0
1, 20393, Note_on_c, 0, 56, 37
1, 20414, Note_on_c, 0, 58, 45
1, 20419, Note_on_c, 0, 56, 0
1, 20429, Note_on_c, 0, 58, 0
1, 20431, Note_on_c, 0, 59, 49
1, 20444, Note_on_c, 0, 62, 49
1, 20454, Note_on_c, 0, 59, 0
1, 20462, Note_on_c, 0, 64, 53
1, 20476, Note_on_c, 0, 67, 54
1, 20477, Note_on_c, 0, 62, 0
1, 20480, Note_on_c, 0, 64, 0
1, 20483, Note_on_c, 0, 67, 0
1, 20487, Note_on_c, 0, 68, 44
1, 20500, Note_on_c, 0, 70, 28
1, 20501, Note_on_c, 0, 68, 0
1, 20501, Note_on_c, 0, 71, 78
1, 20509, Note_on_c, 0, 70, 0
1, 20520, Note_on_c, 0, 71, 0
1, 20522, Note_on_c, 0, 74, 50
1, 20532, Note_on_c, 0, 76, 43
1, 20539, Note_on_c, 0, 74, 0
1, 20541, Note_on_c, 0, 76, 0
1, 20541, Note_on_c, 0, 79, 50
1, 20547, Note_on_c, 0, 79, 0
1, 20564, Note_on_c, 0, 83, 62
1, 20581, Note_on_c, 0, 86, 59
1, 20583, Note_on_c, 0, 83, 0
1, 20596, Note_on_c, 0, 86, 0
1, 20596, Note_on_c, 0, 88, 33
1, 20600, Note_on_c, 0, 91, 49
1, 20604, Note_on_c, 0, 88, 0
1, 20607, Note_on_c, 0, 91, 0
1, 20621, Note_on_c, 0, 93, 48
1, 20628, Note_on_c, 0, 94, 46
1, 20636, Note_on_c, 0, 91, 22
1, 20637, Note_on_c, 0, 94, 0
1, 20650, Note_on_c, 0, 91, 0
1, 20650, Note_on_c, 0, 98, 32
1, 20652, Note_on_c, 0, 96, 25
1, 20654, Note_on_c, 0, 93, 0
1, 20657, Note_on_c, 0, 100, 55
1, 20659, Note_on_c, 0, 96, 0
1, 20672, Note_on_c, 0, 103, 81
1, 20743, Note_on_c, 0, 103, 0
1, 20754, Note_on_c, 0, 98, 0
1, 20765, Note_on_c, 0, 100, 0
1, 21067, Note_on_c, 0, 68, 34
1, 21080, Note_on_c, 0, 72, 42
1, 21094, Note_on_c, 0, 79, 53
1, 21110, Note_on_c, 0, 84, 52
1, 21141, Note_on_c, 0, 79, 0
1, 21142, Note_on_c, 0, 84, 0
1, 21149, Note_on_c, 0, 68, 0
1, 21161, Note_on_c, 0, 72, 0
1, 21175, Note_on_c, 0, 67, 38
1, 21191, Note_on_c, 0, 70, 55
1, 21203, Control_c, 0, 64, 0
1, 21208, Note_on_c, 0, 77, 44
1, 21220, Note_on_c, 0, 82, 51
1, 21221, Control_c, 0, 64, 127
1, 21250, Note_on_c, 0, 77, 0
1, 21252, Note_on_c, 0, 82, 0
1, 21258, Note_on_c, 0, 70, 0
1, 21271, Note_on_c, 0, 67, 0
1, 21277, Note_on_c, 0, 63, 32
1, 21295, Note_on_c, 0, 67, 29
1, 21304, Note_on_c, 0, 74, 49
1, 21307, Control_c, 0, 64, 0
1, 21318, Note_on_c, 0, 79, 37
1, 21327, Control_c, 0, 64, 127
1, 21346, Note_on_c, 0, 74, 0
1, 21355, Note_on_c, 0, 79, 0
1, 21365, Note_on_c, 0, 67, 0
1, 21388, Note_on_c, 0, 61, 36
1, 21393, Note_on_c, 0, 63, 0
1, 21401, Note_on_c, 0, 65, 41
1, 21415, Note_on_c, 0, 72, 43
1, 21426, Control_c, 0, 64, 0
1, 21430, Note_on_c, 0, 77, 42
1, 21444, Control_c, 0, 64, 127
1, 21445, Note_on_c, 0, 65, 0
1, 21468, Note_on_c, 0, 72, 0
1, 21471, Note_on_c, 0, 77, 0
1, 21500, Note_on_c, 0, 71, 52
1, 21501, Note_on_c, 0, 61, 0
1, 21510, Note_on_c, 0, 59, 31
1, 21512, Note_on_c, 0, 75, 31
1, 21521, Note_on_c, 0, 79, 32
1, 21526, Control_c, 0, 64, 0
1, 21556, Control_c, 0, 64, 127
1, 21561, Note_on_c, 0, 71, 0
1, 21606, Note_on_c, 0, 79, 0
1, 21652, Note_on_c, 0, 66, 35
1, 21678, Note_on_c, 0, 75, 0
1, 21693, Note_on_c, 0, 65, 29
1, 21723, Note_on_c, 0, 65, 0
1, 21729, Note_on_c, 0, 71, 38
1, 21747, Note_on_c, 0, 66, 0
1, 21762, Note_on_c, 0, 71, 0
1, 21762, Note_on_c, 0, 77, 54
1, 21775, Note_on_c, 0, 77, 0
1, 21801, Note_on_c, 0, 59, 0
1, 21803, Note_on_c, 0, 91, 63
1, 21813, Note_on_c, 0, 91, 0
1, 21863, Note_on_c, 0, 83, 39
1, 21994, Note_on_c, 0, 75, 28
1, 22045, Note_on_c, 0, 89, 44
1, 22050, Note_on_c, 0, 83, 0
1, 22091, Note_on_c, 0, 89, 0
1, 22093, Note_on_c, 0, 75, 0
1, 22103, Note_on_c, 0, 79, 17
1, 22150, Note_on_c, 0, 71, 39
1, 22167, Note_on_c, 0, 79, 0
1, 22208, Note_on_c, 0, 75, 40
1, 22226, Note_on_c, 0, 71, 0
1, 22255, Note_on_c, 0, 75, 0
1, 22267, Note_on_c, 0, 66, 25
1, 22285, Note_on_c, 0, 83, 56
1, 22307, Note_on_c, 0, 66, 0
1, 22325, Note_on_c, 0, 83, 0
1, 22346, Note_on_c, 0, 71, 43
1, 22413, Note_on_c, 0, 59, 32
1, 22424, Note_on_c, 0, 71, 0
1, 22463, Note_on_c, 0, 66, 29
1, 22519, Note_on_c, 0, 71, 36
1, 22578, Note_on_c, 0, 71, 0
1, 22581, Note_on_c, 0, 75, 48
1, 22585, Note_on_c, 0, 66, 0
1, 22585, Note_on_c, 0, 59, 0
1, 22598, Note_on_c, 0, 75, 0
1, 22653, Note_on_c, 0, 68, 33
1, 22672, Note_on_c, 0, 72, 51
1, 22689, Note_on_c, 0, 79, 47
1, 22704, Note_on_c, 0, 84, 56
1, 22731, Note_on_c, 0, 84, 0
1, 22736, Note_on_c, 0, 79, 0
1, 22739, Note_on_c, 0, 68, 0
1, 22743, Note_on_c, 0, 72, 0
1, 22745, Note_on_c, 0, 67, 59
1, 22774, Note_on_c, 0, 70, 59
1, 22790, Note_on_c, 0, 77, 52
1, 22804, Note_on_c, 0, 82, 55
1, 22827, Note_on_c, 0, 67, 0
1, 22836, Note_on_c, 0, 77, 0
1, 22839, Note_on_c, 0, 70, 0
1, 22840, Note_on_c, 0, 82, 0
1, 22846, Note_on_c, 0, 63, 52
1, 22871, Note_on_c, 0, 67, 46
1, 22881, Note_on_c, 0, 74, 53
1, 22890, Control_c, 0, 64, 0
1, 22896, Note_on_c, 0, 79, 49
1, 22908, Control_c, 0, 64, 127
1, 22926, Note_on_c, 0, 74, 0
1, 22934, Note_on_c, 0, 79, 0
1, 22935, Note_on_c, 0, 67, 0
1, 22945, Note_on_c, 0, 61, 42
1, 22961, Note_on_c, 0, 63, 0
1, 22967, Note_on_c, 0, 65, 38
1, 22981, Note_on_c, 0, 72, 40
1, 22988, Control_c, 0, 64, 0
1, 22989, Note_on_c, 0, 77, 49
1, 23004, Control_c, 0, 64, 127
1, 23017, Note_on_c, 0, 77, 0
1, 23021, Note_on_c, 0, 65, 0
1, 23031, Note_on_c, 0, 72, 0
1, 23052, Note_on_c, 0, 61, 0
1, 23088, Note_on_c, 0, 59, 36
1, 23111, Note_on_c, 0, 63, 29
1, 23120, Control_c, 0, 64, 0
1, 23126, Note_on_c, 0, 70, 37
1, 23135, Control_c, 0, 64, 127
1, 23136, Note_on_c, 0, 75, 37
1, 23193, Note_on_c, 0, 63, 0
1, 23218, Note_on_c, 0, 75, 0
1, 23227, Note_on_c, 0, 70, 0
1, 23288, Note_on_c, 0, 65, 33
1, 23301, Note_on_c, 0, 59, 0
1, 23304, Note_on_c, 0, 77, 37
1, 23312, Note_on_c, 0, 49, 28
1, 23321, Control_c, 0, 64, 0
1, 23345, Control_c, 0, 64, 127
1, 23388, Note_on_c, 0, 65, 0
1, 23393, Note_on_c, 0, 77, 0
1, 23427, Note_on_c, 0, 49, 0
1, 23468, Note_on_c, 0, 79, 38
1, 23470, Note_on_c, 0, 67, 35
1, 23472, Note_on_c, 0, 59, 34
1, 23525, Note_on_c, 0, 79, 0
1, 23537, Note_on_c, 0, 67, 0
1, 23604, Note_on_c, 0, 59, 0
1, 23611, Note_on_c, 0, 61, 30
1, 23619, Note_on_c, 0, 67, 24
1, 23623, Note_on_c, 0, 63, 15
1, 23656, Note_on_c, 0, 61, 0
1, 23665, Note_on_c, 0, 63, 0
1, 23688, Note_on_c, 0, 67, 0
1, 23700, Note_on_c, 0, 63, 44
1, 23766, Note_on_c, 0, 65, 50
1, 23770, Note_on_c, 0, 67, 38
1, 23770, Note_on_c, 0, 71, 45
1, 23774, Note_on_c, 0, 65, 0
1, 23779, Note_on_c, 0, 67, 0
1, 23790, Note_on_c, 0, 71, 0
1, 23833, Note_on_c, 0, 83, 62
1, 23840, Note_on_c, 0, 63, 0
1, 23850, Note_on_c, 0, 83, 0
1, 23897, Note_on_c, 0, 61, 37
1, 23907, Control_c, 0, 64, 0
1, 23943, Control_c, 0, 64, 127
1, 23946, Note_on_c, 0, 63, 42
1, 23959, Note_on_c, 0, 61, 0
1, 23963, Note_on_c, 0, 63, 0
1, 23992, Note_on_c, 0, 65, 50
1, 23995, Note_on_c, 0, 71, 45
1, 23995, Note_on_c, 0, 67, 40
1, 24000, Note_on_c, 0, 65, 0
1, 24006, Note_on_c, 0, 67, 0
1, 24022, Note_on_c, 0, 71, 0
1, 24039, Note_on_c, 0, 73, 30
1, 24041, Note_on_c, 0, 75, 42
1, 24054, Note_on_c, 0, 75, 0
1, 24057, Note_on_c, 0, 73, 0
1, 24096, Note_on_c, 0, 77, 54
1, 24097, Note_on_c, 0, 79, 40
1, 24097, Note_on_c, 0, 83, 49
1, 24105, Note_on_c, 0, 79, 0
1, 24106, Note_on_c, 0, 83, 0
1, 24107, Note_on_c, 0, 77, 0
1, 24141, Control_c, 0, 64, 0
1, 24142, Note_on_c, 0, 63, 37
1, 24144, Note_on_c, 0, 61, 31
1, 24157, Control_c, 0, 64, 127
1, 24158, Note_on_c, 0, 63, 0
1, 24160, Note_on_c, 0, 61, 0
1, 24190, Note_on_c, 0, 65, 47
1, 24192, Note_on_c, 0, 67, 39
1, 24194, Note_on_c, 0, 71, 39
1, 24200, Note_on_c, 0, 65, 0
1, 24208, Note_on_c, 0, 67, 0
1, 24223, Note_on_c, 0, 71, 0
1, 24240, Note_on_c, 0, 73, 36
1, 24243, Note_on_c, 0, 75, 35
1, 24253, Note_on_c, 0, 75, 0
1, 24256, Note_on_c, 0, 73, 0
1, 24297, Note_on_c, 0, 77, 38
1, 24298, Note_on_c, 0, 83, 44
1, 24298, Note_on_c, 0, 79, 37
1, 24308, Note_on_c, 0, 77, 0
1, 24309, Note_on_c, 0, 79, 0
1, 24323, Note_on_c, 0, 83, 0
1, 24350, Note_on_c, 0, 87, 38
1, 24350, Note_on_c, 0, 85, 33
1, 24399, Note_on_c, 0, 85, 0
1, 24399, Note_on_c, 0, 87, 0
1, 24406, Note_on_c, 0, 89, 44
1, 24407, Note_on_c, 0, 95, 47
1, 24409, Note_on_c, 0, 91, 42
1, 24413, Note_on_c, 0, 93, 34
1, 24423, Note_on_c, 0, 93, 0
1, 24429, Note_on_c, 0, 91, 0
1, 24432, Note_on_c, 0, 89, 0
1, 24435, Note_on_c, 0, 95, 0
1, 24701, Note_on_c, 0, 48, 44
1, 24704, Note_on_c, 0, 63, 45
1, 24705, Note_on_c, 0, 67, 53
1, 24705, Note_on_c, 0, 41, 41
1, 24706, Note_on_c, 0, 58, 50
1, 24707, Control_c, 0, 64, 0
1, 24721, Control_c, 0, 64, 127
1, 24738, Note_on_c, 0, 67, 0
1, 24744, Note_on_c, 0, 48, 0
1, 24748, Note_on_c, 0, 41, 0
1, 24752, Note_on_c, 0, 58, 0
1, 24768, Note_on_c, 0, 63, 0
1, 24818, Note_on_c, 0, 65, 38
1, 24820, Note_on_c, 0, 60, 45
1, 24822, Note_on_c, 0, 55, 30
1, 24823, Note_on_c, 0, 46, 34
1, 24823, Note_on_c, 0, 39, 35
1, 24829, Control_c, 0, 64, 0
1, 24859, Control_c, 0, 64, 127
1, 24876, Note_on_c, 0, 65, 0
1, 24879, Note_on_c, 0, 46, 0
1, 24881, Note_on_c, 0, 55, 0
1, 24882, Note_on_c, 0, 60, 0
1, 24886, Note_on_c, 0, 39, 0
1, 24969, Note_on_c, 0, 58, 39
1, 24970, Note_on_c, 0, 53, 25
1, 24970, Note_on_c, 0, 37, 28
1, 24971, Note_on_c, 0, 63, 23
1, 24971, Note_on_c, 0, 44, 31
1, 24984, Control_c, 0, 64, 0
1, 25038, Control_c, 0, 64, 127
1, 25297, Note_on_c, 0, 53, 0
1, 25304, Note_on_c, 0, 37, 0
1, 25321, Note_on_c, 0, 44, 0
1, 25325, Note_on_c, 0, 58, 0
1, 25346, Note_on_c, 0, 63, 0
1, 25376, Note_on_c, 0, 63, 30
1, 25377, Note_on_c, 0, 54, 37
1, 25379, Note_on_c, 0, 45, 32
1, 25379, Note_on_c, 0, 38, 34
1, 25383, Control_c, 0, 64, 0
1, 25385, Note_on_c, 0, 59, 32
1, 25407, Control_c, 0, 64, 127
1, 25412, Note_on_c, 0, 38, 0
1, 25419, Note_on_c, 0, 59, 0
1, 25430, Note_on_c, 0, 45, 0
1, 25452, Note_on_c, 0, 54, 0
1, 25465, Note_on_c, 0, 63, 0
1, 25479, Note_on_c, 0, 63, 25
1, 25486, Note_on_c, 0, 39, 36
1, 25487, Note_on_c, 0, 60, 40
1, 25488, Note_on_c, 0, 55, 33
1, 25490, Control_c, 0, 64, 0
1, 25524, Control_c, 0, 64, 127
1, 25529, Note_on_c, 0, 55, 0
1, 25538, Note_on_c, 0, 60, 0
1, 25546, Note_on_c, 0, 63, 0
1, 25549, Note_on_c, 0, 46, 38
1, 25554, Note_on_c, 0, 39, 0
1, 25587, Note_on_c, 0, 46, 0
1, 25603, Note_on_c, 0, 67, 56
1, 25604, Note_on_c, 0, 55, 44
1, 25607, Note_on_c, 0, 74, 32
1, 25651, Note_on_c, 0, 67, 0
1, 25653, Note_on_c, 0, 74, 0
1, 25656, Note_on_c, 0, 55, 0
1, 25661, Note_on_c, 0, 58, 37
1, 25726, Note_on_c, 0, 79, 48
1, 25727, Note_on_c, 0, 62, 33
1, 25728, Note_on_c, 0, 72, 46
1, 25776, Note_on_c, 0, 62, 0
1, 25777, Note_on_c, 0, 72, 0
1, 25807, Note_on_c, 0, 62, 59
1, 25857, Note_on_c, 0, 62, 0
1, 25880, Note_on_c, 0, 79, 0
1, 25914, Note_on_c, 0, 67, 35
1, 25915, Note_on_c, 0, 72, 36
1, 25916, Note_on_c, 0, 62, 39
1, 25947, Note_on_c, 0, 58, 0
1, 26271, Note_on_c, 0, 67, 0
1, 26295, Note_on_c, 0, 72, 0
1, 26332, Note_on_c, 0, 62, 0
1, 26437, Note_on_c, 0, 86, 58
1, 26460, Note_on_c, 0, 86, 0
1, 26472, Control_c, 0, 64, 0
1, 26473, Note_on_c, 0, 39, 35
1, 26475, Note_on_c, 0, 46, 31
1, 26480, Note_on_c, 0, 84, 35
1, 26495, Control_c, 0, 64, 127
1, 26498, Note_on_c, 0, 39, 0
1, 26502, Note_on_c, 0, 46, 0
1, 26646, Note_on_c, 0, 63, 20
1, 26660, Note_on_c, 0, 58, 17
1, 26674, Note_on_c, 0, 84, 0
1, 26676, Note_on_c, 0, 63, 0
1, 26680, Note_on_c, 0, 58, 0
1, 26692, Note_on_c, 0, 79, 40
1, 26713, Note_on_c, 0, 79, 0
1, 26724, Note_on_c, 0, 82, 44
1, 26737, Control_c, 0, 64, 0
1, 26743, Note_on_c, 0, 82, 0
1, 26756, Note_on_c, 0, 83, 55
1, 26773, Note_on_c, 0, 83, 0
1, 26785, Control_c, 0, 64, 127
1, 26789, Note_on_c, 0, 86, 80
1, 26808, Note_on_c, 0, 86, 0
1, 26821, Note_on_c, 0, 84, 73
1, 26825, Control_c, 0, 64, 0
1, 26832, Note_on_c, 0, 48, 32
1, 26838, Note_on_c, 0, 84, 0
1, 26838, Note_on_c, 0, 58, 14
1, 26855, Note_on_c, 0, 79, 51
1, 26872, Control_c, 0, 64, 127
1, 26879, Note_on_c, 0, 79, 0
1, 26887, Note_on_c, 0, 77, 49
1, 26888, Control_c, 0, 64, 0
1, 26907, Note_on_c, 0, 77, 0
1, 26919, Note_on_c, 0, 75, 46
1, 26943, Note_on_c, 0, 75, 0
1, 26953, Note_on_c, 0, 74, 47
1, 26972, Note_on_c, 0, 74, 0
1, 26978, Control_c, 0, 64, 127
1, 26979, Note_on_c, 0, 58, 0
1, 26986, Note_on_c, 0, 77, 49
1, 27008, Note_on_c, 0, 77, 0
1, 27016, Control_c, 0, 64, 0
1, 27020, Note_on_c, 0, 75, 33
1, 27024, Note_on_c, 0, 58, 25
1, 27041, Note_on_c, 0, 75, 0
1, 27054, Control_c, 0, 64, 127
1, 27054, Note_on_c, 0, 67, 31
1, 27086, Note_on_c, 0, 67, 0
1, 27086, Note_on_c, 0, 48, 0
1, 27101, Note_on_c, 0, 67, 58
1, 27110, Note_on_c, 0, 58, 0
1, 27118, Note_on_c, 0, 67, 0
1, 27142, Note_on_c, 0, 67, 43
1, 27166, Note_on_c, 0, 67, 0
1, 27184, Note_on_c, 0, 67, 60
1, 27202, Note_on_c, 0, 67, 0
1, 27216, Note_on_c, 0, 63, 26
1, 27223, Note_on_c, 0, 67, 39
1, 27225, Note_on_c, 0, 56, 29
1, 27229, Note_on_c, 0, 53, 17
1, 27231, Control_c, 0, 64, 0
1, 27231, Note_on_c, 0, 60, 20
1, 27252, Note_on_c, 0, 60, 0
1, 27259, Control_c, 0, 64, 127
1, 27260, Note_on_c, 0, 63, 0
1, 27264, Note_on_c, 0, 53, 0
1, 27268, Note_on_c, 0, 68, 46
1, 27274, Note_on_c, 0, 56, 0
1, 27298, Note_on_c, 0, 67, 0
1, 27309, Note_on_c, 0, 68, 0
1, 27313, Note_on_c, 0, 70, 55
1, 27332, Note_on_c, 0, 70, 0
1, 27389, Note_on_c, 0, 63, 37
1, 27392, Note_on_c, 0, 51, 25
1, 27392, Note_on_c, 0, 41, 36
1, 27394, Note_on_c, 0, 60, 36
1, 27403, Control_c, 0, 64, 0
1, 27425, Control_c, 0, 64, 127
1, 27452, Note_on_c, 0, 41, 0
1, 27478, Note_on_c, 0, 51, 0
1, 27508, Note_on_c, 0, 60, 0
1, 27534, Note_on_c, 0, 63, 0
1, 27576, Note_on_c, 0, 62, 44
1, 27578, Note_on_c, 0, 46, 27
1, 27578, Note_on_c, 0, 59, 35
1, 27581, Note_on_c, 0, 56, 21
1, 27594, Control_c, 0, 64, 0
1, 27638, Control_c, 0, 64, 127
1, 27703, Note_on_c, 0, 59, 0
1, 27708, Note_on_c, 0, 62, 0
1, 27717, Note_on_c, 0, 56, 0
1, 27732, Note_on_c, 0, 46, 0
1, 27803, Note_on_c, 0, 63, 47
1, 27804, Note_on_c, 0, 70, 45
1, 27806, Note_on_c, 0, 56, 31
1, 27807, Note_on_c, 0, 52, 42
1, 27808, Note_on_c, 0, 40, 49
1, 27809, Note_on_c, 0, 47, 33
1, 27818, Control_c, 0, 64, 0
1, 27848, Control_c, 0, 64, 127
1, 27885, Note_on_c, 0, 40, 0
1, 27889, Note_on_c, 0, 47, 0
1, 27890, Note_on_c, 0, 56, 0
1, 27891, Note_on_c, 0, 52, 0
1, 27899, Note_on_c, 0, 70, 0
1, 27913, Note_on_c, 0, 63, 0
1, 28003, Note_on_c, 0, 46, 34
1, 28005, Note_on_c, 0, 62, 32
1, 28005, Note_on_c, 0, 69, 38
1, 28007, Note_on_c, 0, 39, 31
1, 28009, Control_c, 0, 64, 0
1, 28009, Note_on_c, 0, 57, 24
1, 28009, Note_on_c, 0, 55, 27
1, 28047, Control_c, 0, 64, 127
1, 28053, Note_on_c, 0, 55, 0
1, 28055, Note_on_c, 0, 39, 0
1, 28057, Note_on_c, 0, 57, 0
1, 28064, Note_on_c, 0, 46, 0
1, 28092, Note_on_c, 0, 62, 0
1, 28118, Note_on_c, 0, 69, 0
1, 28193, Note_on_c, 0, 65, 31
1, 28196, Note_on_c, 0, 60, 34
1, 28196, Note_on_c, 0, 58, 27
1, 28199, Note_on_c, 0, 55, 31
1, 28253, Note_on_c, 0, 84, 92
1, 28265, Note_on_c, 0, 65, 0
1, 28267, Note_on_c, 0, 60, 0
1, 28285, Note_on_c, 0, 55, 0
1, 28290, Note_on_c, 0, 84, 0
1, 28294, Note_on_c, 0, 58, 0
1, 28317, Note_on_c, 0, 82, 77
1, 28381, Note_on_c, 0, 48, 44
1, 28383, Note_on_c, 0, 58, 28
1, 28388, Control_c, 0, 64, 0
1, 28414, Control_c, 0, 64, 127
1, 28439, Note_on_c, 0, 82, 0
1, 28446, Note_on_c, 0, 48, 0
1, 28455, Note_on_c, 0, 79, 78
1, 28467, Note_on_c, 0, 58, 0
1, 28511, Note_on_c, 0, 79, 0
1, 28517, Note_on_c, 0, 75, 68
1, 28567, Note_on_c, 0, 63, 33
1, 28574, Note_on_c, 0, 52, 35
1, 28574, Note_on_c, 0, 58, 37
1, 28580, Control_c, 0, 64, 0
1, 28610, Control_c, 0, 64, 127
1, 28711, Note_on_c, 0, 52, 0
1, 28721, Note_on_c, 0, 58, 0
1, 28728, Note_on_c, 0, 63, 0
1, 28784, Note_on_c, 0, 63, 47
1, 28786, Note_on_c, 0, 59, 58
1, 28791, Note_on_c, 0, 53, 33
1, 28795, Control_c, 0, 64, 0
1, 28819, Control_c, 0, 64, 127
1, 28829, Note_on_c, 0, 75, 0
1, 28850, Note_on_c, 0, 63, 0
1, 28853, Note_on_c, 0, 59, 0
1, 28861, Note_on_c, 0, 53, 0
1, 28898, Note_on_c, 0, 67, 66
1, 28957, Note_on_c, 0, 67, 0
1, 28989, Note_on_c, 0, 67, 52
1, 28993, Note_on_c, 0, 63, 37
1, 28995, Note_on_c, 0, 59, 37
1, 28996, Note_on_c, 0, 56, 29
1, 28998, Note_on_c, 0, 49, 27
1, 28999, Control_c, 0, 64, 0
1, 29018, Control_c, 0, 64, 127
1, 29026, Note_on_c, 0, 67, 0
1, 29031, Note_on_c, 0, 59, 0
1, 29034, Note_on_c, 0, 63, 0
1, 29089, Note_on_c, 0, 70, 61
1, 29091, Note_on_c, 0, 63, 56
1, 29126, Note_on_c, 0, 56, 0
1, 29135, Note_on_c, 0, 70, 0
1, 29140, Note_on_c, 0, 63, 0
1, 29187, Note_on_c, 0, 70, 45
1, 29188, Note_on_c, 0, 63, 38
1, 29190, Note_on_c, 0, 59, 39
1, 29192, Note_on_c, 0, 58, 28
1, 29195, Note_on_c, 0, 67, 30
1, 29202, Control_c, 0, 64, 0
1, 29217, Note_on_c, 0, 59, 0
1, 29220, Control_c, 0, 64, 127
1, 29233, Note_on_c, 0, 67, 0
1, 29255, Note_on_c, 0, 70, 0
1, 29269, Note_on_c, 0, 63, 0
1, 29271, Note_on_c, 0, 58, 0
1, 29335, Note_on_c, 0, 71, 64
1, 29354, Note_on_c, 0, 49, 0
1, 29370, Note_on_c, 0, 71, 0
1, 29396, Note_on_c, 0, 49, 36
1, 29397, Note_on_c, 0, 71, 49
1, 29400, Note_on_c, 0, 63, 28
1, 29402, Note_on_c, 0, 68, 38
1, 29403, Note_on_c, 0, 59, 39
1, 29413, Control_c, 0, 64, 0
1, 29437, Control_c, 0, 64, 127
1, 29438, Note_on_c, 0, 71, 0
1, 29445, Note_on_c, 0, 68, 0
1, 29455, Note_on_c, 0, 70, 63
1, 29484, Note_on_c, 0, 70, 0
1, 29495, Note_on_c, 0, 59, 0
1, 29496, Note_on_c, 0, 63, 0
1, 29521, Note_on_c, 0, 49, 0
1, 29559, Note_on_c, 0, 68, 56
1, 29579, Note_on_c, 0, 68, 0
1, 29611, Note_on_c, 0, 67, 51
1, 29617, Note_on_c, 0, 51, 28
1, 29621, Note_on_c, 0, 41, 30
1, 29627, Note_on_c, 0, 60, 10
1, 29629, Control_c, 0, 64, 0
1, 29668, Note_on_c, 0, 60, 0
1, 29673, Note_on_c, 0, 67, 0
1, 29676, Note_on_c, 0, 51, 0
1, 29682, Note_on_c, 0, 63, 35
1, 29684, Note_on_c, 0, 56, 29
1, 29687, Note_on_c, 0, 60, 35
1, 29687, Control_c, 0, 64, 127
1, 29735, Note_on_c, 0, 60, 0
1, 29741, Note_on_c, 0, 41, 0
1, 29767, Note_on_c, 0, 56, 0
1, 29796, Note_on_c, 0, 63, 0
1, 29815, Note_on_c, 0, 56, 28
1, 29818, Note_on_c, 0, 60, 45
1, 29820, Note_on_c, 0, 55, 30
1, 29895, Note_on_c, 0, 56, 0
1, 29908, Note_on_c, 0, 60, 0
1, 29931, Note_on_c, 0, 55, 0
1, 29951, Note_on_c, 0, 65, 39
1, 29981, Note_on_c, 0, 66, 52
1, 29997, Note_on_c, 0, 65, 0
1, 30003, Note_on_c, 0, 66, 0
1, 30019, Note_on_c, 0, 46, 33
1, 30021, Note_on_c, 0, 67, 36
1, 30024, Note_on_c, 0, 64, 44
1, 30026, Note_on_c, 0, 56, 21
1, 30027, Note_on_c, 0, 62, 27
1, 30030, Note_on_c, 0, 59, 24
1, 30032, Control_c, 0, 64, 0
1, 30085, Control_c, 0, 64, 127
1, 30086, Note_on_c, 0, 67, 0
1, 30152, Note_on_c, 0, 56, 0
1, 30153, Note_on_c, 0, 59, 0
1, 30163, Note_on_c, 0, 65, 1
1, 30164, Note_on_c, 0, 62, 0
1, 30206, Note_on_c, 0, 64, 0
1, 30235, Note_on_c, 0, 65, 0
1, 30243, Note_on_c, 0, 62, 45
1, 30246, Note_on_c, 0, 59, 27
1, 30252, Note_on_c, 0, 56, 13
1, 30347, Note_on_c, 0, 65, 63
1, 30357, Note_on_c, 0, 56, 0
1, 30366, Note_on_c, 0, 62, 0
1, 30389, Note_on_c, 0, 59, 0
1, 30391, Note_on_c, 0, 46, 0
1, 30396, Note_on_c, 0, 65, 0
1, 30536, Note_on_c, 0, 58, 54
1, 30537, Note_on_c, 0, 65, 47
1, 30539, Note_on_c, 0, 43, 39
1, 30539, Note_on_c, 0, 53, 45
1, 30540, Note_on_c, 0, 62, 42
1, 30542, Control_c, 0, 64, 0
1, 30543, Note_on_c, 0, 31, 24
1, 30566, Control_c, 0, 64, 127
1, 30584, Note_on_c, 0, 62, 0
1, 30591, Note_on_c, 0, 43, 0
1, 30594, Note_on_c, 0, 31, 0
1, 30596, Note_on_c, 0, 65, 0
1, 30598, Note_on_c, 0, 53, 0
1, 30607, Note_on_c, 0, 58, 0
1, 30726, Note_on_c, 0, 30, 33
1, 30727, Note_on_c, 0, 42, 27
1, 30727, Note_on_c, 0, 63, 36
1, 30727, Note_on_c, 0, 56, 38
1, 30728, Control_c, 0, 64, 0
1, 30729, Note_on_c, 0, 52, 36
1, 30734, Note_on_c, 0, 60, 44
1, 30747, Control_c, 0, 64, 127
1, 30748, Note_on_c, 0, 52, 0
1, 30755, Note_on_c, 0, 60, 0
1, 30759, Note_on_c, 0, 56, 0
1, 30763, Note_on_c, 0, 63, 0
1, 30764, Note_on_c, 0, 30, 0
1, 30765, Note_on_c, 0, 42, 0
1, 30838, Note_on_c, 0, 70, 55
1, 30838, Note_on_c, 0, 63, 54
1, 30842, Note_on_c, 0, 29, 35
1, 30842, Note_on_c, 0, 41, 33
1, 30842, Note_on_c, 0, 56, 37
1, 30843, Control_c, 0, 64, 0
1, 30887, Control_c, 0, 64, 127
1, 30946, Note_on_c, 0, 41, 0
1, 30948, Note_on_c, 0, 29, 0
1, 30957, Note_on_c, 0, 56, 0
1, 30969, Note_on_c, 0, 70, 0
1, 30976, Note_on_c, 0, 63, 0
1, 31041, Note_on_c, 0, 63, 45
1, 31042, Note_on_c, 0, 70, 39
1, 31043, Note_on_c, 0, 40, 35
1, 31045, Note_on_c, 0, 56, 40
1, 31048, Note_on_c, 0, 28, 24
1, 31053, Control_c, 0, 64, 0
1, 31087, Control_c, 0, 64, 127
1, 31116, Note_on_c, 0, 56, 0
1, 31127, Note_on_c, 0, 28, 0
1, 31138, Note_on_c, 0, 63, 0
1, 31143, Note_on_c, 0, 40, 0
1, 31164, Note_on_c, 0, 70, 0
1, 31250, Note_on_c, 0, 39, 29
1, 31253, Note_on_c, 0, 27, 29
1, 31254, Note_on_c, 0, 62, 35
1, 31254, Note_on_c, 0, 55, 31
1, 31257, Note_on_c, 0, 67, 30
1, 31258, Control_c, 0, 64, 0
1, 31278, Note_on_c, 0, 55, 0
1, 31294, Note_on_c, 0, 62, 0
1, 31296, Control_c, 0, 64, 127
1, 31301, Note_on_c, 0, 67, 0
1, 31319, Note_on_c, 0, 27, 0
1, 31334, Note_on_c, 0, 39, 0
1, 31374, Note_on_c, 0, 84, 67
1, 31464, Note_on_c, 0, 58, 30
1, 31468, Note_on_c, 0, 60, 26
1, 31479, Note_on_c, 0, 60, 0
1, 31489, Note_on_c, 0, 58, 0
1, 31524, Note_on_c, 0, 84, 0
1, 31549, Note_on_c, 0, 79, 45
1, 31561, Note_on_c, 0, 79, 0
1, 31586, Note_on_c, 0, 82, 48
1, 31594, Note_on_c, 0, 82, 0
1, 31620, Note_on_c, 0, 86, 78
1, 31635, Note_on_c, 0, 86, 0
1, 31655, Note_on_c, 0, 89, 92
1, 31675, Note_on_c, 0, 89, 0
1, 31689, Control_c, 0, 64, 0
1, 31690, Note_on_c, 0, 58, 34
1, 31690, Note_on_c, 0, 48, 45
1, 31695, Note_on_c, 0, 87, 72
1, 31707, Note_on_c, 0, 58, 0
1, 31711, Note_on_c, 0, 87, 0
1, 31711, Note_on_c, 0, 48, 0
1, 31735, Note_on_c, 0, 79, 41
1, 31745, Note_on_c, 0, 79, 0
1, 31773, Note_on_c, 0, 86, 66
1, 31788, Note_on_c, 0, 86, 0
1, 31818, Note_on_c, 0, 84, 40
1, 31820, Note_on_c, 0, 86, 31
1, 31827, Note_on_c, 0, 84, 0
1, 31828, Note_on_c, 0, 86, 0
1, 31894, Note_on_c, 0, 63, 28
1, 31899, Note_on_c, 0, 52, 30
1, 31901, Note_on_c, 0, 58, 33
1, 31936, Control_c, 0, 64, 127
1, 31979, Note_on_c, 0, 67, 65
1, 31996, Note_on_c, 0, 67, 0
1, 32019, Note_on_c, 0, 70, 77
1, 32026, Note_on_c, 0, 52, 0
1, 32030, Control_c, 0, 64, 0
1, 32042, Note_on_c, 0, 58, 0
1, 32044, Note_on_c, 0, 70, 0
1, 32050, Control_c, 0, 64, 127
1, 32056, Note_on_c, 0, 63, 0
1, 32058, Note_on_c, 0, 68, 72
1, 32084, Note_on_c, 0, 68, 0
1, 32097, Note_on_c, 0, 67, 71
1, 32100, Note_on_c, 0, 63, 33
1, 32106, Note_on_c, 0, 60, 36
1, 32108, Control_c, 0, 64, 0
1, 32109, Note_on_c, 0, 56, 27
1, 32111, Note_on_c, 0, 53, 22
1, 32122, Note_on_c, 0, 67, 0
1, 32128, Note_on_c, 0, 68, 60
1, 32150, Note_on_c, 0, 68, 0
1, 32161, Note_on_c, 0, 67, 65
1, 32201, Control_c, 0, 64, 127
1, 32217, Note_on_c, 0, 63, 0
1, 32237, Note_on_c, 0, 60, 0
1, 32238, Note_on_c, 0, 67, 0
1, 32246, Note_on_c, 0, 63, 53
1, 32267, Note_on_c, 0, 63, 0
1, 32270, Note_on_c, 0, 56, 0
1, 32277, Note_on_c, 0, 65, 57
1, 32303, Note_on_c, 0, 65, 0
1, 32308, Note_on_c, 0, 63, 55
1, 32312, Note_on_c, 0, 60, 41
1, 32313, Control_c, 0, 64, 0
1, 32320, Note_on_c, 0, 56, 25
1, 32345, Control_c, 0, 64, 127
1, 32365, Note_on_c, 0, 63, 0
1, 32368, Note_on_c, 0, 60, 0
1, 32379, Note_on_c, 0, 62, 50
1, 32392, Note_on_c, 0, 56, 0
1, 32398, Note_on_c, 0, 53, 0
1, 32402, Note_on_c, 0, 62, 0
1, 32404, Note_on_c, 0, 63, 54
1, 32433, Note_on_c, 0, 63, 0
1, 32440, Note_on_c, 0, 62, 57
1, 32512, Note_on_c, 0, 62, 0
1, 32514, Note_on_c, 0, 61, 55
1, 32516, Note_on_c, 0, 56, 27
1, 32518, Note_on_c, 0, 46, 30
1, 32533, Control_c, 0, 64, 0
1, 32544, Note_on_c, 0, 61, 0
1, 32546, Note_on_c, 0, 62, 59
1, 32577, Note_on_c, 0, 62, 0
1, 32581, Note_on_c, 0, 61, 42
1, 32604, Control_c, 0, 64, 127
1, 32655, Note_on_c, 0, 56, 0
1, 32661, Note_on_c, 0, 59, 51
1, 32675, Note_on_c, 0, 61, 0
1, 32683, Note_on_c, 0, 59, 0
1, 32695, Note_on_c, 0, 61, 45
1, 32728, Control_c, 0, 64, 0
1, 32732, Note_on_c, 0, 61, 0
1, 32732, Note_on_c, 0, 56, 29
1, 32734, Note_on_c, 0, 59, 31
1, 32766, Control_c, 0, 64, 127
1, 32788, Note_on_c, 0, 56, 0
1, 32838, Note_on_c, 0, 46, 0
1, 32886, Note_on_c, 0, 59, 0
1, 32886, Note_on_c, 0, 57, 51
1, 32924, Note_on_c, 0, 57, 0
1, 32936, Note_on_c, 0, 58, 46
1, 32937, Note_on_c, 0, 46, 28
1, 32937, Note_on_c, 0, 39, 31
1, 32941, Control_c, 0, 64, 0
1, 32983, Control_c, 0, 64, 127
1, 33014, Note_on_c, 0, 39, 0
1, 33016, Note_on_c, 0, 58, 0
1, 33023, Note_on_c, 0, 46, 0
1, 33149, Note_on_c, 0, 58, 33
1, 33149, Note_on_c, 0, 65, 33
1, 33151, Note_on_c, 0, 60, 43
1, 33215, Note_on_c, 0, 65, 0
1, 33215, Note_on_c, 0, 84, 77
1, 33218, Note_on_c, 0, 72, 71
1, 33232, Note_on_c, 0, 60, 0
1, 33243, Note_on_c, 0, 84, 0
1, 33250, Note_on_c, 0, 58, 0
1, 33253, Note_on_c, 0, 72, 0
1, 33283, Note_on_c, 0, 82, 72
1, 33285, Note_on_c, 0, 70, 74
1, 33305, Note_on_c, 0, 82, 0
1, 33309, Note_on_c, 0, 70, 0
1, 33355, Note_on_c, 0, 79, 51
1, 33355, Note_on_c, 0, 74, 40
1, 33357, Note_on_c, 0, 67, 55
1, 33358, Note_on_c, 0, 48, 42
1, 33360, Note_on_c, 0, 55, 40
1, 33361, Note_on_c, 0, 58, 30
1, 33370, Control_c, 0, 64, 0
1, 33416, Control_c, 0, 64, 127
1, 33472, Note_on_c, 0, 74, 0
1, 33473, Note_on_c, 0, 58, 0
1, 33478, Note_on_c, 0, 79, 0
1, 33493, Note_on_c, 0, 67, 0
1, 33497, Note_on_c, 0, 55, 0
1, 33583, Note_on_c, 0, 77, 53
1, 33584, Note_on_c, 0, 58, 29
1, 33586, Note_on_c, 0, 72, 45
1, 33589, Note_on_c, 0, 65, 32
1, 33591, Note_on_c, 0, 55, 26
1, 33681, Note_on_c, 0, 77, 0
1, 33688, Note_on_c, 0, 48, 0
1, 33693, Note_on_c, 0, 55, 0
1, 33696, Note_on_c, 0, 75, 50
1, 33711, Note_on_c, 0, 58, 0
1, 33716, Note_on_c, 0, 65, 0
1, 33727, Note_on_c, 0, 72, 0
1, 33775, Note_on_c, 0, 75, 0
1, 33796, Note_on_c, 0, 49, 34
1, 33805, Control_c, 0, 64, 0
1, 33815, Control_c, 0, 64, 127
1, 33905, Note_on_c, 0, 70, 37
1, 33906, Note_on_c, 0, 63, 49
1, 33906, Note_on_c, 0, 58, 40
1, 33909, Note_on_c, 0, 59, 28
1, 33910, Note_on_c, 0, 67, 39
1, 33913, Control_c, 0, 64, 0
1, 33916, Note_on_c, 0, 58, 0
1, 33918, Note_on_c, 0, 63, 0
1, 33920, Note_on_c, 0, 67, 0
1, 33921, Note_on_c, 0, 70, 0
1, 33926, Note_on_c, 0, 59, 0
1, 34007, Note_on_c, 0, 70, 36
1, 34010, Note_on_c, 0, 63, 33
1, 34011, Note_on_c, 0, 58, 21
1, 34012, Note_on_c, 0, 67, 36
1, 34013, Note_on_c, 0, 59, 28
1, 34014, Control_c, 0, 64, 127
1, 34016, Note_on_c, 0, 53, 35
1, 34067, Note_on_c, 0, 49, 0
1, 34072, Note_on_c, 0, 58, 0
1, 34078, Note_on_c, 0, 67, 0
1, 34090, Note_on_c, 0, 63, 0
1, 34115, Note_on_c, 0, 70, 0
1, 34116, Note_on_c, 0, 49, 34
1, 34134, Note_on_c, 0, 53, 0
1, 34138, Note_on_c, 0, 49, 0
1, 34142, Note_on_c, 0, 59, 0
1, 34218, Note_on_c, 0, 75, 65
1, 34218, Note_on_c, 0, 79, 68
1, 34219, Note_on_c, 0, 71, 77
1, 34265, Note_on_c, 0, 71, 0
1, 34276, Note_on_c, 0, 75, 0
1, 34287, Note_on_c, 0, 79, 0
1, 34379, Note_on_c, 0, 65, 58
1, 34380, Note_on_c, 0, 61, 43
1, 34380, Note_on_c, 0, 63, 38
1, 34382, Note_on_c, 0, 67, 47
1, 34383, Note_on_c, 0, 71, 40
1, 34386, Note_on_c, 0, 69, 40
1, 34399, Control_c, 0, 64, 0
1, 34425, Note_on_c, 0, 67, 0
1, 34427, Note_on_c, 0, 65, 0
1, 34430, Note_on_c, 0, 69, 0
1, 34433, Note_on_c, 0, 63, 0
1, 34436, Note_on_c, 0, 61, 0
1, 34437, Control_c, 0, 64, 127
1, 34438, Note_on_c, 0, 71, 0
1, 34447, Note_on_c, 0, 71, 33
1, 34447, Note_on_c, 0, 65, 34
1, 34450, Note_on_c, 0, 67, 39
1, 34451, Note_on_c, 0, 63, 37
1, 34452, Note_on_c, 0, 69, 34
1, 34455, Note_on_c, 0, 61, 38
1, 34493, Note_on_c, 0, 67, 0
1, 34497, Note_on_c, 0, 69, 0
1, 34497, Note_on_c, 0, 63, 0
1, 34499, Note_on_c, 0, 65, 0
1, 34502, Note_on_c, 0, 61, 0
1, 34531, Note_on_c, 0, 71, 0
1, 34601, Note_on_c, 0, 42, 39
1, 34627, Note_on_c, 0, 42, 0
1, 34664, Note_on_c, 0, 63, 33
1, 34665, Note_on_c, 0, 56, 27
1, 34668, Note_on_c, 0, 51, 29
1, 34668, Note_on_c, 0, 41, 36
1, 34671, Note_on_c, 0, 60, 42
1, 34676, Control_c, 0, 64, 0
1, 34699, Note_on_c, 0, 56, 0
1, 34703, Note_on_c, 0, 60, 0
1, 34704, Control_c, 0, 64, 127
1, 34712, Note_on_c, 0, 63, 0
1, 34730, Note_on_c, 0, 41, 0
1, 34746, Note_on_c, 0, 51, 0
1, 34748, Note_on_c, 0, 79, 58
1, 34773, Note_on_c, 0, 79, 0
1, 34805, Note_on_c, 0, 68, 40
1, 34811, Note_on_c, 0, 72, 52
1, 34856, Note_on_c, 0, 72, 0
1, 34856, Note_on_c, 0, 68, 0
1, 34875, Note_on_c, 0, 63, 32
1, 34885, Note_on_c, 0, 56, 23
1, 34888, Note_on_c, 0, 60, 24
1, 34906, Note_on_c, 0, 60, 0
1, 34915, Note_on_c, 0, 63, 0
1, 34932, Note_on_c, 0, 56, 0
1, 35075, Control_c, 0, 64, 0
1, 35079, Note_on_c, 0, 46, 40
1, 35095, Control_c, 0, 64, 127
1, 35099, Note_on_c, 0, 46, 0
1, 35158, Note_on_c, 0, 90, 74
1, 35159, Note_on_c, 0, 78, 72
1, 35176, Note_on_c, 0, 78, 0
1, 35180, Note_on_c, 0, 90, 0
1, 35231, Note_on_c, 0, 85, 78
1, 35231, Note_on_c, 0, 73, 61
1, 35292, Note_on_c, 0, 66, 38
1, 35294, Note_on_c, 0, 62, 38
1, 35299, Note_on_c, 0, 56, 28
1, 35322, Note_on_c, 0, 85, 0
1, 35330, Note_on_c, 0, 73, 0
1, 35365, Note_on_c, 0, 66, 0
1, 35384, Note_on_c, 0, 62, 0
1, 35386, Note_on_c, 0, 80, 35
1, 35389, Note_on_c, 0, 68, 36
1, 35404, Note_on_c, 0, 56, 0
1, 35433, Note_on_c, 0, 68, 0
1, 35451, Note_on_c, 0, 80, 0
1, 35501, Note_on_c, 0, 79, 46
1, 35503, Note_on_c, 0, 46, 32
1, 35505, Note_on_c, 0, 39, 32
1, 35509, Note_on_c, 0, 65, 27
1, 35509, Note_on_c, 0, 67, 26
1, 35513, Note_on_c, 0, 74, 24
1, 35514, Control_c, 0, 64, 0
1, 35554, Control_c, 0, 64, 127
1, 35559, Note_on_c, 0, 39, 0
1, 35587, Note_on_c, 0, 74, 0
1, 35608, Note_on_c, 0, 65, 0
1, 35613, Note_on_c, 0, 67, 0
1, 35702, Note_on_c, 0, 74, 37
1, 35707, Note_on_c, 0, 67, 40
1, 35708, Note_on_c, 0, 65, 40
1, 35711, Note_on_c, 0, 55, 34
1, 35750, Note_on_c, 0, 46, 0
1, 35760, Note_on_c, 0, 55, 0
1, 35817, Note_on_c, 0, 65, 0
1, 35851, Note_on_c, 0, 67, 0
1, 35863, Note_on_c, 0, 74, 0
1, 35913, Note_on_c, 0, 74, 44
1, 35916, Note_on_c, 0, 67, 30
1, 35918, Note_on_c, 0, 65, 26
1, 35960, Note_on_c, 0, 65, 0
1, 35971, Note_on_c, 0, 67, 0
1, 35998, Note_on_c, 0, 74, 0
1, 36014, Note_on_c, 0, 65, 38
1, 36015, Note_on_c, 0, 62, 33
1, 36018, Note_on_c, 0, 60, 31
1, 36067, Note_on_c, 0, 65, 0
1, 36089, Note_on_c, 0, 79, 0
1, 36094, Note_on_c, 0, 60, 0
1, 36108, Note_on_c, 0, 62, 0
1, 36113, Note_on_c, 0, 79, 43
1, 36115, Note_on_c, 0, 74, 47
1, 36116, Note_on_c, 0, 67, 42
1, 36116, Note_on_c, 0, 65, 39
1, 36155, Note_on_c, 0, 65, 0
1, 36162, Note_on_c, 0, 67, 0
1, 36176, Note_on_c, 0, 74, 0
1, 36191, Note_on_c, 0, 79, 0
1, 36208, Note_on_c, 0, 62, 34
1, 36225, Note_on_c, 0, 62, 0
1, 36270, Note_on_c, 0, 86, 81
1, 36299, Note_on_c, 0, 86, 0
1, 36320, Note_on_c, 0, 45, 46
1, 36325, Note_on_c, 0, 86, 69
1, 36326, Control_c, 0, 64, 0
1, 36340, Note_on_c, 0, 45, 0
1, 36348, Control_c, 0, 64, 127
1, 36381, Note_on_c, 0, 74, 51
1, 36403, Note_on_c, 0, 74, 0
1, 36408, Note_on_c, 0, 86, 0
1, 36429, Note_on_c, 0, 74, 44
1, 36445, Note_on_c, 0, 74, 0
1, 36477, Note_on_c, 0, 86, 51
1, 36500, Note_on_c, 0, 86, 0
1, 36524, Note_on_c, 0, 86, 46
1, 36534, Note_on_c, 0, 55, 22
1, 36537, Note_on_c, 0, 86, 0
1, 36550, Note_on_c, 0, 64, 1
1, 36572, Note_on_c, 0, 98, 73
1, 36582, Note_on_c, 0, 98, 0
1, 36603, Note_on_c, 0, 64, 0
1, 36614, Note_on_c, 0, 55, 0
1, 36627, Note_on_c, 0, 98, 103
1, 36647, Note_on_c, 0, 98, 0
1, 36677, Note_on_c, 0, 98, 94
1, 36708, Note_on_c, 0, 98, 0
1, 36727, Note_on_c, 0, 50, 45
1, 36729, Control_c, 0, 64, 0
1, 36731, Note_on_c, 0, 98, 68
1, 36751, Control_c, 0, 64, 127
1, 36759, Note_on_c, 0, 98, 0
1, 36774, Note_on_c, 0, 50, 0
1, 36785, Note_on_c, 0, 98, 43
1, 36805, Note_on_c, 0, 98, 0
1, 36835, Note_on_c, 0, 98, 44
1, 36859, Note_on_c, 0, 98, 0
1, 36884, Note_on_c, 0, 98, 58
1, 36910, Note_on_c, 0, 98, 0
1, 36934, Note_on_c, 0, 54, 28
1, 36936, Note_on_c, 0, 98, 58
1, 36937, Note_on_c, 0, 64, 24
1, 36940, Note_on_c, 0, 60, 36
1, 36958, Note_on_c, 0, 98, 0
1, 36974, Note_on_c, 0, 60, 0
1, 36981, Note_on_c, 0, 64, 0
1, 36986, Note_on_c, 0, 98, 57
1, 37000, Note_on_c, 0, 54, 0
1, 37006, Note_on_c, 0, 98, 0
1, 37033, Note_on_c, 0, 98, 61
1, 37052, Note_on_c, 0, 98, 0
1, 37085, Note_on_c, 0, 98, 70
1, 37110, Note_on_c, 0, 98, 0
1, 37134, Note_on_c, 0, 54, 39
1, 37137, Note_on_c, 0, 50, 45
1, 37137, Note_on_c, 0, 98, 70
1, 37138, Note_on_c, 0, 43, 35
1, 37144, Control_c, 0, 64, 0
1, 37163, Control_c, 0, 64, 127
1, 37185, Note_on_c, 0, 43, 0
1, 37187, Note_on_c, 0, 50, 0
1, 37191, Note_on_c, 0, 98, 0
1, 37210, Note_on_c, 0, 54, 0
1, 37344, Note_on_c, 0, 64, 22
1, 37346, Note_on_c, 0, 54, 19
1, 37347, Note_on_c, 0, 59, 33
1, 37380, Note_on_c, 0, 90, 47
1, 37383, Control_c, 0, 64, 0
1, 37397, Note_on_c, 0, 90, 0
1, 37406, Note_on_c, 0, 91, 64
1, 37421, Note_on_c, 0, 91, 0
1, 37437, Note_on_c, 0, 93, 74
1, 37452, Note_on_c, 0, 93, 0
1, 37484, Note_on_c, 0, 86, 60
1, 37487, Note_on_c, 0, 64, 0
1, 37491, Note_on_c, 0, 59, 0
1, 37492, Note_on_c, 0, 86, 0
1, 37503, Note_on_c, 0, 54, 0
1, 37512, Control_c, 0, 64, 127
1, 37514, Note_on_c, 0, 88, 46
1, 37524, Note_on_c, 0, 88, 0
1, 37539, Note_on_c, 0, 90, 67
1, 37542, Note_on_c, 0, 52, 48
1, 37555, Note_on_c, 0, 90, 0
1, 37556, Control_c, 0, 64, 0
1, 37563, Note_on_c, 0, 59, 6
1, 37591, Note_on_c, 0, 83, 50
1, 37608, Note_on_c, 0, 83, 0
1, 37619, Note_on_c, 0, 85, 58
1, 37632, Note_on_c, 0, 85, 0
1, 37642, Note_on_c, 0, 86, 64
1, 37652, Note_on_c, 0, 86, 0
1, 37661, Note_on_c, 0, 59, 0
1, 37696, Control_c, 0, 64, 127
1, 37696, Note_on_c, 0, 79, 44
1, 37706, Note_on_c, 0, 79, 0
1, 37721, Note_on_c, 0, 81, 58
1, 37728, Control_c, 0, 64, 0
1, 37736, Note_on_c, 0, 81, 0
1, 37746, Note_on_c, 0, 62, 43
1, 37747, Note_on_c, 0, 83, 67
1, 37752, Note_on_c, 0, 59, 28
1, 37762, Note_on_c, 0, 59, 0
1, 37762, Note_on_c, 0, 83, 0
1, 37762, Note_on_c, 0, 62, 0
1, 37772, Note_on_c, 0, 52, 0
1, 37803, Note_on_c, 0, 76, 37
1, 37814, Note_on_c, 0, 76, 0
1, 37824, Note_on_c, 0, 78, 37
1, 37830, Control_c, 0, 64, 127
1, 37843, Note_on_c, 0, 78, 0
1, 37852, Note_on_c, 0, 79, 56
1, 37868, Note_on_c, 0, 79, 0
1, 37907, Control_c, 0, 64, 0
1, 37908, Note_on_c, 0, 76, 67
1, 37921, Note_on_c, 0, 52, 33
1, 37922, Note_on_c, 0, 45, 27
1, 37922, Note_on_c, 0, 55, 19
1, 37944, Note_on_c, 0, 76, 0
1, 37950, Note_on_c, 0, 45, 0
1, 37951, Note_on_c, 0, 52, 0
1, 37956, Note_on_c, 0, 55, 0
1, 37958, Note_on_c, 0, 71, 43
1, 37982, Note_on_c, 0, 71, 0
1, 38013, Note_on_c, 0, 71, 54
1, 38032, Note_on_c, 0, 71, 0
1, 38063, Control_c, 0, 64, 127
1, 38067, Note_on_c, 0, 71, 66
1, 38086, Note_on_c, 0, 71, 0
1, 38120, Note_on_c, 0, 72, 55
1, 38129, Note_on_c, 0, 72, 0
1, 38149, Control_c, 0, 64, 0
1, 38174, Note_on_c, 0, 71, 66
1, 38176, Note_on_c, 0, 64, 22
1, 38180, Note_on_c, 0, 60, 34
1, 38183, Note_on_c, 0, 55, 28
1, 38183, Note_on_c, 0, 59, 27
1, 38196, Control_c, 0, 64, 127
1, 38252, Note_on_c, 0, 64, 0
1, 38255, Note_on_c, 0, 60, 0
1, 38258, Note_on_c, 0, 59, 0
1, 38281, Note_on_c, 0, 55, 0
1, 38294, Note_on_c, 0, 69, 48
1, 38319, Note_on_c, 0, 71, 0
1, 38386, Note_on_c, 0, 69, 0
1, 38401, Note_on_c, 0, 54, 40
1, 38403, Note_on_c, 0, 70, 62
1, 38405, Note_on_c, 0, 60, 44
1, 38407, Note_on_c, 0, 50, 36
1, 38419, Control_c, 0, 64, 0
1, 38448, Note_on_c, 0, 70, 0
1, 38460, Note_on_c, 0, 70, 64
1, 38490, Note_on_c, 0, 70, 0
1, 38495, Control_c, 0, 64, 127
1, 38510, Note_on_c, 0, 70, 73
1, 38525, Note_on_c, 0, 60, 0
1, 38548, Note_on_c, 0, 70, 0
1, 38563, Note_on_c, 0, 72, 78
1, 38564, Note_on_c, 0, 54, 0
1, 38604, Note_on_c, 0, 72, 0
1, 38618, Note_on_c, 0, 54, 35
1, 38622, Note_on_c, 0, 70, 58
1, 38624, Note_on_c, 0, 60, 33
1, 38625, Control_c, 0, 64, 0
1, 38651, Control_c, 0, 64, 127
1, 38694, Note_on_c, 0, 60, 0
1, 38729, Note_on_c, 0, 70, 0
1, 38731, Note_on_c, 0, 66, 46
1, 38732, Note_on_c, 0, 54, 0
1, 38735, Note_on_c, 0, 50, 0
1, 38772, Note_on_c, 0, 66, 0
1, 38844, Note_on_c, 0, 66, 35
1, 38845, Note_on_c, 0, 62, 51
1, 38845, Note_on_c, 0, 57, 46
1, 38845, Note_on_c, 0, 54, 46
1, 38846, Note_on_c, 0, 69, 41
1, 38849, Note_on_c, 0, 43, 38
1, 38862, Control_c, 0, 64, 0
1, 38898, Control_c, 0, 64, 127
1, 38934, Note_on_c, 0, 54, 0
1, 38941, Note_on_c, 0, 57, 0
1, 38946, Note_on_c, 0, 62, 0
1, 38949, Note_on_c, 0, 66, 0
1, 38950, Note_on_c, 0, 69, 0
1, 38964, Note_on_c, 0, 67, 66
1, 38966, Note_on_c, 0, 66, 42
1, 38966, Note_on_c, 0, 62, 60
1, 38967, Note_on_c, 0, 52, 58
1, 38967, Note_on_c, 0, 57, 66
1, 38978, Control_c, 0, 64, 0
1, 39004, Control_c, 0, 64, 127
1, 39040, Note_on_c, 0, 67, 0
1, 39046, Note_on_c, 0, 57, 0
1, 39049, Note_on_c, 0, 66, 0
1, 39054, Note_on_c, 0, 62, 0
1, 39068, Note_on_c, 0, 52, 0
1, 39076, Note_on_c, 0, 66, 74
1, 39078, Note_on_c, 0, 51, 59
1, 39078, Note_on_c, 0, 62, 71
1, 39080, Note_on_c, 0, 57, 67
1, 39092, Control_c, 0, 64, 0
1, 39112, Control_c, 0, 64, 127
1, 39152, Note_on_c, 0, 57, 0
1, 39153, Note_on_c, 0, 62, 0
1, 39167, Note_on_c, 0, 66, 0
1, 39185, Note_on_c, 0, 67, 72
1, 39185, Note_on_c, 0, 62, 75
1, 39186, Note_on_c, 0, 57, 76
1, 39187, Note_on_c, 0, 52, 80
1, 39193, Control_c, 0, 64, 0
1, 39200, Note_on_c, 0, 43, 0
1, 39204, Note_on_c, 0, 51, 0
1, 39223, Control_c, 0, 64, 127
1, 39238, Note_on_c, 0, 67, 0
1, 39255, Note_on_c, 0, 62, 0
1, 39256, Note_on_c, 0, 57, 0
1, 39262, Note_on_c, 0, 52, 0
1, 39267, Note_on_c, 0, 51, 23
1, 39274, Note_on_c, 0, 50, 54
1, 39282, Note_on_c, 0, 50, 0
1, 39282, Note_on_c, 0, 54, 52
1, 39291, Note_on_c, 0, 53, 80
1, 39293, Note_on_c, 0, 54, 0
1, 39293, Note_on_c, 0, 51, 0
1, 39296, Note_on_c, 0, 66, 59
1, 39296, Note_on_c, 0, 62, 76
1, 39296, Note_on_c, 0, 69, 75
1, 39298, Note_on_c, 0, 57, 75
1, 39299, Note_on_c, 0, 54, 67
1, 39303, Control_c, 0, 64, 0
1, 39307, Note_on_c, 0, 53, 0
1, 39345, Control_c, 0, 64, 127
1, 39375, Note_on_c, 0, 69, 0
1, 39377, Note_on_c, 0, 49, 32
1, 39381, Note_on_c, 0, 54, 0
1, 39382, Note_on_c, 0, 51, 43
1, 39385, Note_on_c, 0, 62, 0
1, 39386, Note_on_c, 0, 57, 0
1, 39395, Note_on_c, 0, 66, 0
1, 39400, Note_on_c, 0, 49, 0
1, 39408, Note_on_c, 0, 67, 47
1, 39409, Note_on_c, 0, 62, 47
1, 39410, Note_on_c, 0, 57, 48
1, 39411, Note_on_c, 0, 52, 55
1, 39417, Control_c, 0, 64, 0
1, 39421, Note_on_c, 0, 51, 0
1, 39449, Control_c, 0, 64, 127
1, 39483, Note_on_c, 0, 57, 0
1, 39487, Note_on_c, 0, 62, 0
1, 39497, Note_on_c, 0, 67, 0
1, 39514, Note_on_c, 0, 52, 0
1, 39517, Note_on_c, 0, 51, 44
1, 39518, Note_on_c, 0, 66, 42
1, 39521, Note_on_c, 0, 57, 31
1, 39521, Note_on_c, 0, 62, 36
1, 39522, Control_c, 0, 64, 0
1, 39544, Control_c, 0, 64, 127
1, 39559, Note_on_c, 0, 62, 0
1, 39572, Note_on_c, 0, 57, 0
1, 39581, Note_on_c, 0, 66, 0
1, 39631, Note_on_c, 0, 62, 45
1, 39631, Note_on_c, 0, 57, 41
1, 39634, Note_on_c, 0, 67, 35
1, 39641, Note_on_c, 0, 57, 0
1, 39643, Note_on_c, 0, 51, 0
1, 39650, Note_on_c, 0, 62, 0
1, 39654, Note_on_c, 0, 67, 0
1, 39805, Note_on_c, 0, 75, 55
1, 39806, Note_on_c, 0, 61, 44
1, 39807, Note_on_c, 0, 68, 55
1, 39808, Note_on_c, 0, 65, 46
1, 39809, Note_on_c, 0, 63, 37
1, 39809, Note_on_c, 0, 72, 50
1, 39815, Control_c, 0, 64, 0
1, 39816, Note_on_c, 0, 68, 0
1, 39817, Note_on_c, 0, 65, 0
1, 39819, Note_on_c, 0, 72, 0
1, 39820, Note_on_c, 0, 63, 0
1, 39822, Note_on_c, 0, 75, 0
1, 39824, Note_on_c, 0, 61, 0
1, 39879, Note_on_c, 0, 75, 51
1, 39880, Note_on_c, 0, 68, 48
1, 39881, Note_on_c, 0, 63, 44
1, 39882, Note_on_c, 0, 61, 49
1, 39882, Note_on_c, 0, 72, 51
1, 39883, Note_on_c, 0, 65, 48
1, 39889, Control_c, 0, 64, 127
1, 39893, Note_on_c, 0, 65, 0
1, 39896, Note_on_c, 0, 68, 0
1, 39900, Note_on_c, 0, 61, 0
1, 39900, Note_on_c, 0, 63, 0
1, 39901, Note_on_c, 0, 72, 0
1, 39902, Note_on_c, 0, 75, 0
1, 39929, Control_c, 0, 64, 0
1, 39951, Control_c, 0, 64, 127
1, 39960, Note_on_c, 0, 75, 55
1, 39960, Note_on_c, 0, 68, 56
1, 39963, Note_on_c, 0, 72, 51
1, 39965, Note_on_c, 0, 63, 33
1, 39966, Note_on_c, 0, 65, 32
1, 39966, Note_on_c, 0, 61, 33
1, 39974, Note_on_c, 0, 65, 0
1, 39980, Note_on_c, 0, 63, 0
1, 39986, Note_on_c, 0, 61, 0
1, 40203, Note_on_c, 0, 27, 48
1, 40236, Note_on_c, 0, 27, 0
1, 40264, Note_on_c, 0, 68, 0
1, 40276, Note_on_c, 0, 72, 0
1, 40320, Note_on_c, 0, 75, 0
1, 40345, Note_on_c, 0, 75, 65
1, 40394, Note_on_c, 0, 75, 0
1, 40443, Note_on_c, 0, 67, 59
1, 40443, Note_on_c, 0, 75, 55
1, 40445, Note_on_c, 0, 70, 44
1, 40447, Note_on_c, 0, 63, 36
1, 40449, Note_on_c, 0, 64, 35
1, 40456, Control_c, 0, 64, 0
1, 40480, Control_c, 0, 64, 127
1, 40521, Note_on_c, 0, 63, 0
1, 40536, Note_on_c, 0, 75, 0
1, 40586, Note_on_c, 0, 64, 0
1, 40590, Note_on_c, 0, 70, 0
1, 40598, Note_on_c, 0, 67, 0
1, 40608, Note_on_c, 0, 73, 33
1, 40634, Note_on_c, 0, 73, 0
1, 40674, Note_on_c, 0, 72, 37
1, 40675, Note_on_c, 0, 67, 42
1, 40676, Note_on_c, 0, 60, 34
1, 40677, Note_on_c, 0, 44, 32
1, 40687, Control_c, 0, 64, 0
1, 40727, Control_c, 0, 64, 127
1, 40728, Note_on_c, 0, 51, 35
1, 40738, Note_on_c, 0, 44, 0
1, 40744, Note_on_c, 0, 51, 0
1, 40745, Note_on_c, 0, 60, 0
1, 40768, Note_on_c, 0, 67, 0
1, 40796, Note_on_c, 0, 58, 29
1, 40820, Note_on_c, 0, 72, 0
1, 40923, Note_on_c, 0, 63, 33
1, 40926, Note_on_c, 0, 60, 32
1, 40941, Note_on_c, 0, 63, 0
1, 40956, Note_on_c, 0, 60, 0
1, 40978, Note_on_c, 0, 60, 39
1, 40996, Note_on_c, 0, 60, 0
1, 41003, Note_on_c, 0, 63, 29
1, 41015, Note_on_c, 0, 67, 51
1, 41021, Note_on_c, 0, 63, 0
1, 41022, Control_c, 0, 64, 0
1, 41037, Note_on_c, 0, 67, 0
1, 41040, Note_on_c, 0, 70, 70
1, 41058, Note_on_c, 0, 70, 0
1, 41066, Note_on_c, 0, 67, 64
1, 41080, Note_on_c, 0, 58, 0
1, 41081, Note_on_c, 0, 67, 0
1, 41091, Note_on_c, 0, 68, 39
1, 41106, Note_on_c, 0, 68, 0
1, 41116, Control_c, 0, 64, 127
1, 41118, Note_on_c, 0, 70, 31
1, 41124, Note_on_c, 0, 70, 0
1, 41138, Note_on_c, 0, 72, 54
1, 41153, Note_on_c, 0, 72, 0
1, 41153, Note_on_c, 0, 75, 42
1, 41165, Note_on_c, 0, 60, 14
1, 41165, Note_on_c, 0, 56, 30
1, 41166, Control_c, 0, 64, 0
1, 41167, Note_on_c, 0, 53, 27
1, 41178, Note_on_c, 0, 75, 0
1, 41181, Note_on_c, 0, 76, 51
1, 41200, Note_on_c, 0, 76, 0
1, 41210, Note_on_c, 0, 79, 72
1, 41230, Note_on_c, 0, 79, 0
1, 41255, Note_on_c, 0, 76, 66
1, 41270, Note_on_c, 0, 76, 0
1, 41286, Note_on_c, 0, 77, 54
1, 41306, Note_on_c, 0, 77, 0
1, 41313, Note_on_c, 0, 72, 38
1, 41327, Note_on_c, 0, 72, 0
1, 41338, Note_on_c, 0, 68, 25
1, 41350, Note_on_c, 0, 68, 0
1, 41353, Control_c, 0, 64, 127
1, 41355, Note_on_c, 0, 60, 0
1, 41364, Note_on_c, 0, 67, 34
1, 41376, Note_on_c, 0, 67, 0
1, 41387, Note_on_c, 0, 70, 65
1, 41391, Note_on_c, 0, 63, 29
1, 41393, Control_c, 0, 64, 0
1, 41398, Note_on_c, 0, 60, 20
1, 41407, Note_on_c, 0, 70, 0
1, 41417, Note_on_c, 0, 68, 69
1, 41437, Note_on_c, 0, 68, 0
1, 41453, Note_on_c, 0, 70, 35
1, 41456, Note_on_c, 0, 63, 0
1, 41461, Note_on_c, 0, 68, 49
1, 41479, Note_on_c, 0, 70, 0
1, 41480, Note_on_c, 0, 67, 43
1, 41488, Note_on_c, 0, 68, 0
1, 41502, Note_on_c, 0, 67, 0
1, 41518, Note_on_c, 0, 60, 0
1, 41520, Note_on_c, 0, 65, 61
1, 41525, Control_c, 0, 64, 127
1, 41540, Note_on_c, 0, 56, 0
1, 41546, Note_on_c, 0, 65, 0
1, 41551, Note_on_c, 0, 53, 0
1, 41554, Note_on_c, 0, 64, 29
1, 41566, Note_on_c, 0, 64, 0
1, 41580, Note_on_c, 0, 65, 61
1, 41599, Note_on_c, 0, 65, 0
1, 41606, Note_on_c, 0, 67, 56
1, 41623, Note_on_c, 0, 67, 0
1, 41636, Note_on_c, 0, 68, 31
1, 41647, Note_on_c, 0, 68, 0
1, 41652, Note_on_c, 0, 69, 46
1, 41665, Note_on_c, 0, 69, 0
1, 41675, Note_on_c, 0, 56, 33
1, 41676, Control_c, 0, 64, 0
1, 41680, Note_on_c, 0, 46, 32
1, 41691, Note_on_c, 0, 70, 9
1, 41729, Note_on_c, 0, 61, 44
1, 41742, Control_c, 0, 64, 127
1, 41757, Note_on_c, 0, 70, 0
1, 41761, Note_on_c, 0, 61, 0
1, 41780, Note_on_c, 0, 65, 61
1, 41781, Note_on_c, 0, 56, 0
1, 41806, Note_on_c, 0, 46, 0
1, 41815, Note_on_c, 0, 65, 0
1, 41828, Note_on_c, 0, 72, 68
1, 41833, Note_on_c, 0, 65, 42
1, 41856, Note_on_c, 0, 65, 0
1, 41867, Note_on_c, 0, 72, 0
1, 41894, Note_on_c, 0, 72, 57
1, 41895, Note_on_c, 0, 61, 39
1, 41896, Note_on_c, 0, 65, 55
1, 41900, Note_on_c, 0, 60, 33
1, 41910, Control_c, 0, 64, 0
1, 41926, Control_c, 0, 64, 127
1, 41946, Note_on_c, 0, 72, 0
1, 41960, Note_on_c, 0, 70, 52
1, 41981, Note_on_c, 0, 60, 0
1, 42003, Note_on_c, 0, 70, 0
1, 42005, Note_on_c, 0, 61, 0
1, 42008, Note_on_c, 0, 65, 0
1, 42017, Note_on_c, 0, 72, 58
1, 42027, Note_on_c, 0, 70, 21
1, 42059, Note_on_c, 0, 72, 0
1, 42063, Note_on_c, 0, 70, 0
1, 42099, Note_on_c, 0, 72, 47
1, 42100, Note_on_c, 0, 64, 54
1, 42100, Note_on_c, 0, 61, 38
1, 42101, Note_on_c, 0, 51, 39
1, 42103, Control_c, 0, 64, 0
1, 42108, Note_on_c, 0, 60, 31
1, 42110, Note_on_c, 0, 67, 22
1, 42115, Note_on_c, 0, 61, 0
1, 42120, Note_on_c, 0, 64, 0
1, 42120, Note_on_c, 0, 67, 0
1, 42121, Control_c, 0, 64, 127
1, 42126, Note_on_c, 0, 60, 0
1, 42126, Note_on_c, 0, 51, 0
1, 42130, Note_on_c, 0, 72, 0
1, 42187, Note_on_c, 0, 76, 74
1, 42188, Note_on_c, 0, 72, 68
1, 42189, Note_on_c, 0, 73, 53
1, 42189, Note_on_c, 0, 84, 66
1, 42191, Note_on_c, 0, 83, 62
1, 42194, Note_on_c, 0, 82, 36
1, 42195, Note_on_c, 0, 79, 35
1, 42198, Note_on_c, 0, 83, 0
1, 42203, Note_on_c, 0, 72, 0
1, 42207, Note_on_c, 0, 79, 0
1, 42210, Note_on_c, 0, 84, 0
1, 42210, Note_on_c, 0, 76, 0
1, 42210, Note_on_c, 0, 82, 0
1, 42226, Note_on_c, 0, 73, 0
1, 42258, Control_c, 0, 64, 0
1, 42258, Note_on_c, 0, 81, 57
1, 42258, Note_on_c, 0, 69, 58
1, 42260, Note_on_c, 0, 73, 51
1, 42261, Note_on_c, 0, 70, 60
1, 42263, Note_on_c, 0, 76, 53
1, 42270, Control_c, 0, 64, 127
1, 42280, Note_on_c, 0, 81, 0
1, 42285, Note_on_c, 0, 76, 0
1, 42289, Note_on_c, 0, 73, 0
1, 42291, Note_on_c, 0, 70, 0
1, 42294, Note_on_c, 0, 69, 0
1, 42325, Note_on_c, 0, 78, 48
1, 42328, Note_on_c, 0, 66, 55
1, 42328, Note_on_c, 0, 70, 62
1, 42330, Note_on_c, 0, 73, 35
1, 42332, Note_on_c, 0, 67, 47
1, 42345, Note_on_c, 0, 78, 0
1, 42346, Note_on_c, 0, 70, 0
1, 42348, Note_on_c, 0, 73, 0
1, 42355, Note_on_c, 0, 67, 0
1, 42357, Note_on_c, 0, 66, 0
1, 42388, Control_c, 0, 64, 0
1, 42390, Note_on_c, 0, 75, 50
1, 42396, Note_on_c, 0, 63, 37
1, 42399, Note_on_c, 0, 64, 35
1, 42400, Note_on_c, 0, 75, 0
1, 42400, Note_on_c, 0, 65, 31
1, 42406, Control_c, 0, 64, 127
1, 42408, Note_on_c, 0, 65, 0
1, 42408, Note_on_c, 0, 64, 0
1, 42413, Note_on_c, 0, 63, 0
1, 42462, Note_on_c, 0, 72, 52
1, 42463, Note_on_c, 0, 61, 46
1, 42464, Note_on_c, 0, 64, 51
1, 42465, Control_c, 0, 64, 0
1, 42475, Control_c, 0, 64, 127
1, 42475, Note_on_c, 0, 67, 22
1, 42487, Note_on_c, 0, 64, 0
1, 42491, Note_on_c, 0, 72, 0
1, 42494, Note_on_c, 0, 67, 0
1, 42498, Note_on_c, 0, 61, 0
1, 42536, Note_on_c, 0, 70, 44
1, 42539, Note_on_c, 0, 44, 39
1, 42539, Note_on_c, 0, 63, 39
1, 42540, Note_on_c, 0, 60, 36
1, 42541, Note_on_c, 0, 67, 41
1, 42547, Control_c, 0, 64, 0
1, 42550, Note_on_c, 0, 55, 11
1, 42583, Note_on_c, 0, 55, 0
1, 42587, Control_c, 0, 64, 127
1, 42592, Note_on_c, 0, 67, 0
1, 42598, Note_on_c, 0, 60, 0
1, 42602, Note_on_c, 0, 63, 0
1, 42603, Note_on_c, 0, 70, 0
1, 42614, Note_on_c, 0, 68, 37
1, 42614, Note_on_c, 0, 63, 18
1, 42617, Note_on_c, 0, 53, 55
1, 42617, Note_on_c, 0, 60, 40
1, 42619, Control_c, 0, 64, 0
1, 42647, Control_c, 0, 64, 127
1, 42723, Note_on_c, 0, 60, 0
1, 42737, Note_on_c, 0, 68, 0
1, 42741, Note_on_c, 0, 63, 0
1, 42747, Note_on_c, 0, 53, 0
1, 42760, Note_on_c, 0, 63, 18
1, 42763, Note_on_c, 0, 51, 33
1, 42763, Note_on_c, 0, 67, 38
1, 42764, Note_on_c, 0, 60, 32
1, 42767, Control_c, 0, 64, 0
1, 42791, Control_c, 0, 64, 127
1, 42808, Note_on_c, 0, 63, 0
1, 42813, Note_on_c, 0, 60, 0
1, 42835, Note_on_c, 0, 67, 0
1, 42845, Note_on_c, 0, 68, 51
1, 42846, Note_on_c, 0, 63, 34
1, 42881, Note_on_c, 0, 44, 0
1, 42884, Note_on_c, 0, 51, 0
1, 42907, Note_on_c, 0, 68, 0
1, 42931, Note_on_c, 0, 63, 0
1, 43002, Note_on_c, 0, 67, 46
1, 43003, Note_on_c, 0, 62, 41
1, 43005, Note_on_c, 0, 56, 27
1, 43006, Note_on_c, 0, 46, 28
1, 43008, Note_on_c, 0, 59, 24
1, 43009, Note_on_c, 0, 64, 35
1, 43010, Control_c, 0, 64, 0
1, 43031, Note_on_c, 0, 59, 0
1, 43040, Note_on_c, 0, 62, 0
1, 43040, Note_on_c, 0, 64, 0
1, 43049, Note_on_c, 0, 67, 0
1, 43050, Control_c, 0, 64, 127
1, 43082, Note_on_c, 0, 79, 62
1, 43096, Note_on_c, 0, 46, 0
1, 43106, Note_on_c, 0, 56, 0
1, 43224, Note_on_c, 0, 79, 0
1, 43236, Note_on_c, 0, 71, 41
1, 43237, Note_on_c, 0, 66, 33
1, 43239, Note_on_c, 0, 74, 37
1, 43248, Note_on_c, 0, 56, 23
1, 43251, Note_on_c, 0, 62, 16
1, 43271, Note_on_c, 0, 66, 0
1, 43276, Note_on_c, 0, 62, 0
1, 43290, Note_on_c, 0, 56, 0
1, 43290, Note_on_c, 0, 74, 0
1, 43309, Note_on_c, 0, 71, 0
1, 43473, Note_on_c, 0, 39, 46
1, 43474, Note_on_c, 0, 46, 45
1, 43475, Control_c, 0, 64, 0
1, 43493, Control_c, 0, 64, 127
1, 43499, Note_on_c, 0, 39, 0
1, 43507, Note_on_c, 0, 46, 0
1, 43722, Control_c, 0, 64, 0
1, 43729, Note_on_c, 0, 84, 76
1, 43729, Note_on_c, 0, 68, 58
1, 43731, Note_on_c, 0, 72, 58
1, 43731, Note_on_c, 0, 79, 55
1, 43758, Control_c, 0, 64, 127
1, 43828, Note_on_c, 0, 84, 0
1, 43845, Note_on_c, 0, 79, 0
1, 43857, Note_on_c, 0, 82, 67
1, 43858, Note_on_c, 0, 67, 57
1, 43859, Note_on_c, 0, 68, 0
1, 43859, Control_c, 0, 64, 0
1, 43881, Control_c, 0, 64, 127
1, 43900, Note_on_c, 0, 82, 0
1, 43911, Note_on_c, 0, 72, 0
1, 43929, Note_on_c, 0, 67, 0
1, 43978, Note_on_c, 0, 79, 57
1, 43980, Note_on_c, 0, 67, 46
1, 43981, Note_on_c, 0, 74, 52
1, 43982, Note_on_c, 0, 63, 37
1, 43985, Control_c, 0, 64, 0
1, 44037, Control_c, 0, 64, 127
1, 44125, Note_on_c, 0, 79, 0
1, 44127, Note_on_c, 0, 74, 0
1, 44138, Note_on_c, 0, 67, 0
1, 44194, Note_on_c, 0, 63, 0
1, 44215, Note_on_c, 0, 77, 42
1, 44218, Note_on_c, 0, 65, 33
1, 44221, Note_on_c, 0, 61, 31
1, 44221, Note_on_c, 0, 72, 44
1, 44226, Control_c, 0, 64, 0
1, 44254, Control_c, 0, 64, 127
1, 44288, Note_on_c, 0, 61, 0
1, 44310, Note_on_c, 0, 65, 0
1, 44376, Note_on_c, 0, 72, 0
1, 44384, Note_on_c, 0, 77, 0
1, 44461, Note_on_c, 0, 79, 49
1, 44465, Note_on_c, 0, 75, 37
1, 44468, Note_on_c, 0, 71, 43
1, 44470, Note_on_c, 0, 53, 28
1, 44471, Note_on_c, 0, 63, 21
1, 44472, Control_c, 0, 64, 0
1, 44508, Control_c, 0, 64, 127
1, 44583, Note_on_c, 0, 71, 0
1, 44591, Note_on_c, 0, 59, 33
1, 44617, Note_on_c, 0, 63, 0
1, 44639, Note_on_c, 0, 79, 0
1, 44659, Note_on_c, 0, 53, 0
1, 44697, Note_on_c, 0, 75, 0
1, 44703, Note_on_c, 0, 71, 36
1, 44705, Note_on_c, 0, 67, 36
1, 44709, Note_on_c, 0, 63, 26
1, 44757, Note_on_c, 0, 63, 0
1, 44807, Note_on_c, 0, 71, 0
1, 44824, Note_on_c, 0, 59, 0
1, 44829, Note_on_c, 0, 67, 0
1, 45087, Note_on_c, 0, 62, 32
1, 45088, Note_on_c, 0, 56, 25
1, 45089, Note_on_c, 0, 46, 28
1, 45089, Note_on_c, 0, 59, 26
1, 45091, Note_on_c, 0, 64, 33
1, 45094, Control_c, 0, 64, 0
1, 45120, Control_c, 0, 64, 127
1, 45156, Note_on_c, 0, 59, 0
1, 45161, Note_on_c, 0, 64, 0
1, 45164, Note_on_c, 0, 67, 46
1, 45167, Note_on_c, 0, 62, 0
1, 45180, Note_on_c, 0, 67, 0
1, 45234, Note_on_c, 0, 71, 51
1, 45267, Note_on_c, 0, 71, 0
1, 45303, Note_on_c, 0, 84, 74
1, 45322, Note_on_c, 0, 46, 0
1, 45324, Note_on_c, 0, 56, 0
1, 45332, Note_on_c, 0, 84, 0
1, 45375, Note_on_c, 0, 84, 79
1, 45404, Note_on_c, 0, 84, 0
1, 45456, Note_on_c, 0, 84, 79
1, 45462, Note_on_c, 0, 68, 53
1, 45462, Note_on_c, 0, 79, 60
1, 45464, Note_on_c, 0, 72, 54
1, 45469, Control_c, 0, 64, 0
1, 45501, Control_c, 0, 64, 127
1, 45520, Note_on_c, 0, 84, 0
1, 45542, Note_on_c, 0, 84, 72
1, 45553, Note_on_c, 0, 79, 0
1, 45561, Note_on_c, 0, 72, 0
1, 45567, Note_on_c, 0, 84, 0
1, 45568, Note_on_c, 0, 68, 0
1, 45610, Note_on_c, 0, 82, 67
1, 45616, Note_on_c, 0, 67, 53
1, 45616, Note_on_c, 0, 77, 60
1, 45619, Note_on_c, 0, 70, 53
1, 45624, Control_c, 0, 64, 0
1, 45648, Control_c, 0, 64, 127
1, 45660, Note_on_c, 0, 82, 0
1, 45686, Note_on_c, 0, 82, 61
1, 45700, Note_on_c, 0, 67, 0
1, 45700, Note_on_c, 0, 77, 0
1, 45708, Note_on_c, 0, 70, 0
1, 45709, Note_on_c, 0, 82, 0
1, 45754, Note_on_c, 0, 79, 51
1, 45760, Note_on_c, 0, 74, 50
1, 45762, Note_on_c, 0, 67, 41
1, 45763, Note_on_c, 0, 63, 31
1, 45768, Control_c, 0, 64, 0
1, 45792, Control_c, 0, 64, 127
1, 45804, Note_on_c, 0, 79, 0
1, 45831, Note_on_c, 0, 79, 58
1, 45858, Note_on_c, 0, 74, 0
1, 45865, Note_on_c, 0, 79, 0
1, 45869, Note_on_c, 0, 67, 0
1, 45906, Note_on_c, 0, 77, 47
1, 45912, Note_on_c, 0, 65, 32
1, 45913, Note_on_c, 0, 63, 0
1, 45914, Note_on_c, 0, 61, 33
1, 45917, Note_on_c, 0, 72, 32
1, 45924, Control_c, 0, 64, 0
1, 45956, Control_c, 0, 64, 127
1, 45984, Note_on_c, 0, 77, 0
1, 46111, Note_on_c, 0, 65, 0
1, 46119, Note_on_c, 0, 72, 0
1, 46159, Note_on_c, 0, 61, 0
1, 46179, Note_on_c, 0, 75, 44
1, 46213, Note_on_c, 0, 75, 0
1, 46331, Note_on_c, 0, 77, 44
1, 46333, Note_on_c, 0, 61, 30
1, 46335, Note_on_c, 0, 65, 36
1, 46344, Control_c, 0, 64, 0
1, 46364, Control_c, 0, 64, 127
1, 46379, Note_on_c, 0, 77, 0
1, 46380, Note_on_c, 0, 65, 0
1, 46419, Note_on_c, 0, 79, 40
1, 46439, Note_on_c, 0, 79, 0
1, 46551, Note_on_c, 0, 61, 0
1, 46609, Note_on_c, 0, 61, 27
1, 46666, Note_on_c, 0, 61, 0
1, 46776, Note_on_c, 0, 71, 44
1, 46782, Note_on_c, 0, 61, 26
1, 46784, Note_on_c, 0, 59, 34
1, 46793, Control_c, 0, 64, 0
1, 46815, Control_c, 0, 64, 127
1, 46827, Note_on_c, 0, 59, 0
1, 46870, Note_on_c, 0, 71, 0
1, 46874, Note_on_c, 0, 63, 30
1, 46879, Note_on_c, 0, 65, 36
1, 46918, Note_on_c, 0, 61, 0
1, 46924, Note_on_c, 0, 65, 0
1, 46982, Note_on_c, 0, 63, 0
1, 47101, Note_on_c, 0, 83, 58
1, 47103, Note_on_c, 0, 79, 32
1, 47106, Note_on_c, 0, 77, 49
1, 47143, Note_on_c, 0, 79, 0
1, 47147, Note_on_c, 0, 77, 0
1, 47147, Note_on_c, 0, 83, 0
1, 47159, Note_on_c, 0, 75, 40
1, 47162, Note_on_c, 0, 73, 33
1, 47184, Note_on_c, 0, 75, 0
1, 47187, Note_on_c, 0, 73, 0
1, 47272, Note_on_c, 0, 65, 34
1, 47272, Note_on_c, 0, 71, 44
1, 47277, Note_on_c, 0, 67, 36
1, 47328, Note_on_c, 0, 61, 26
1, 47329, Note_on_c, 0, 63, 20
1, 47522, Note_on_c, 0, 63, 0
1, 47533, Note_on_c, 0, 61, 0
1, 47559, Note_on_c, 0, 67, 0
1, 47561, Note_on_c, 0, 65, 0
1, 47563, Note_on_c, 0, 71, 0
1, 48121, Note_on_c, 0, 67, 64
1, 48192, Note_on_c, 0, 67, 0
1, 48544, Note_on_c, 0, 48, 40
1, 48545, Note_on_c, 0, 67, 55
1, 48546, Note_on_c, 0, 41, 42
1, 48547, Note_on_c, 0, 63, 36
1, 48547, Note_on_c, 0, 58, 44
1, 48550, Control_c, 0, 64, 0
1, 48574, Control_c, 0, 64, 127
1, 48596, Note_on_c, 0, 67, 0
1, 48598, Note_on_c, 0, 48, 0
1, 48599, Note_on_c, 0, 41, 0
1, 48611, Note_on_c, 0, 58, 0
1, 48627, Note_on_c, 0, 63, 0
1, 48706, Note_on_c, 0, 65, 50
1, 48710, Note_on_c, 0, 46, 33
1, 48711, Note_on_c, 0, 39, 35
1, 48711, Note_on_c, 0, 60, 49
1, 48712, Note_on_c, 0, 55, 31
1, 48716, Control_c, 0, 64, 0
1, 48760, Control_c, 0, 64, 127
1, 48841, Note_on_c, 0, 46, 0
1, 48843, Note_on_c, 0, 55, 0
1, 48858, Note_on_c, 0, 60, 0
1, 48860, Note_on_c, 0, 39, 0
1, 48861, Note_on_c, 0, 65, 0
1, 48964, Note_on_c, 0, 63, 37
1, 48967, Note_on_c, 0, 58, 43
1, 48967, Note_on_c, 0, 53, 30
1, 48973, Note_on_c, 0, 44, 25
1, 48974, Note_on_c, 0, 37, 27
1, 48983, Control_c, 0, 64, 0
1, 49059, Control_c, 0, 64, 127
1, 49450, Note_on_c, 0, 63, 0
1, 49559, Note_on_c, 0, 63, 31
1, 49578, Note_on_c, 0, 44, 0
1, 49608, Note_on_c, 0, 37, 0
1, 49636, Note_on_c, 0, 53, 0
1, 49653, Note_on_c, 0, 63, 0
1, 49657, Note_on_c, 0, 58, 0
1, 49886, Control_c, 0, 64, 0
1, 49886, Note_on_c, 0, 63, 27
1, 49887, Note_on_c, 0, 35, 32
1, 49888, Note_on_c, 0, 49, 23
1, 49890, Note_on_c, 0, 56, 31
1, 49909, Note_on_c, 0, 49, 0
1, 49914, Control_c, 0, 64, 127
1, 49920, Note_on_c, 0, 56, 0
1, 49928, Note_on_c, 0, 63, 0
1, 49972, Note_on_c, 0, 35, 0
1, 50000, Note_on_c, 0, 75, 49
1, 50089, Note_on_c, 0, 61, 31
1, 50093, Note_on_c, 0, 68, 33
1, 50095, Note_on_c, 0, 47, 32
1, 50167, Note_on_c, 0, 54, 33
1, 50182, Note_on_c, 0, 61, 0
1, 50186, Note_on_c, 0, 68, 0
1, 50223, Note_on_c, 0, 47, 0
1, 50238, Note_on_c, 0, 61, 35
1, 50240, Note_on_c, 0, 54, 0
1, 50243, Note_on_c, 0, 68, 26
1, 50247, Note_on_c, 0, 59, 27
1, 50266, Note_on_c, 0, 61, 0
1, 50302, Note_on_c, 0, 59, 0
1, 50304, Note_on_c, 0, 68, 0
1, 50313, Note_on_c, 0, 61, 29
1, 50370, Note_on_c, 0, 75, 0
1, 50400, Note_on_c, 0, 68, 33
1, 50401, Note_on_c, 0, 63, 29
1, 50411, Note_on_c, 0, 61, 0
1, 50469, Note_on_c, 0, 63, 0
1, 50516, Note_on_c, 0, 73, 1
1, 50608, Note_on_c, 0, 68, 0
1, 50790, Note_on_c, 0, 73, 0
1, 51019, Note_on_c, 0, 71, 64
1, 51021, Note_on_c, 0, 63, 31
1, 51023, Note_on_c, 0, 57, 41
1, 51024, Note_on_c, 0, 67, 39
1, 51045, Control_c, 0, 64, 0
1, 51095, Control_c, 0, 64, 127
1, 51104, Note_on_c, 0, 71, 0
1, 51105, Note_on_c, 0, 72, 73
1, 51187, Note_on_c, 0, 72, 0
1, 51197, Note_on_c, 0, 75, 60
1, 51234, Note_on_c, 0, 75, 0
1, 51301, Note_on_c, 0, 79, 50
1, 51331, Note_on_c, 0, 57, 0
1, 51333, Note_on_c, 0, 79, 0
1, 51339, Note_on_c, 0, 67, 0
1, 51345, Note_on_c, 0, 63, 0
1, 51424, Note_on_c, 0, 84, 48
1, 51425, Note_on_c, 0, 63, 29
1, 51425, Note_on_c, 0, 67, 33
1, 51425, Note_on_c, 0, 79, 35
1, 51426, Note_on_c, 0, 72, 33
1, 51426, Control_c, 0, 64, 0
1, 51427, Note_on_c, 0, 57, 36
1, 51456, Control_c, 0, 64, 127
1, 51492, Note_on_c, 0, 72, 0
1, 51494, Note_on_c, 0, 84, 0
1, 51501, Note_on_c, 0, 79, 0
1, 51593, Note_on_c, 0, 86, 58
1, 51596, Note_on_c, 0, 74, 35
1, 51611, Note_on_c, 0, 67, 0
1, 51623, Note_on_c, 0, 57, 0
1, 51626, Note_on_c, 0, 86, 0
1, 51630, Note_on_c, 0, 63, 0
1, 51637, Note_on_c, 0, 74, 0
1, 51742, Note_on_c, 0, 83, 45
1, 51742, Note_on_c, 0, 78, 30
1, 51742, Note_on_c, 0, 71, 41
1, 51745, Note_on_c, 0, 66, 30
1, 51748, Note_on_c, 0, 62, 29
1, 51748, Note_on_c, 0, 56, 26
1, 51755, Control_c, 0, 64, 0
1, 51801, Control_c, 0, 64, 127
1, 51880, Note_on_c, 0, 71, 0
1, 51883, Note_on_c, 0, 83, 0
1, 51901, Note_on_c, 0, 78, 0
1, 51929, Note_on_c, 0, 66, 0
1, 51993, Note_on_c, 0, 85, 40
1, 51996, Note_on_c, 0, 73, 21
1, 52001, Note_on_c, 0, 62, 0
1, 52018, Note_on_c, 0, 56, 0
1, 52138, Note_on_c, 0, 85, 0
1, 52155, Note_on_c, 0, 73, 0
1, 52292, Note_on_c, 0, 82, 36
1, 52296, Note_on_c, 0, 70, 25
1, 52297, Note_on_c, 0, 39, 35
1, 52304, Control_c, 0, 64, 0
1, 52323, Control_c, 0, 64, 127
1, 52345, Note_on_c, 0, 82, 0
1, 52359, Note_on_c, 0, 70, 0
1, 52362, Note_on_c, 0, 39, 0
1, 52370, Note_on_c, 0, 46, 37
1, 52423, Note_on_c, 0, 46, 0
1, 52436, Note_on_c, 0, 55, 46
1, 52511, Note_on_c, 0, 74, 54
1, 52518, Note_on_c, 0, 55, 0
1, 52518, Note_on_c, 0, 67, 46
1, 52521, Note_on_c, 0, 58, 32
1, 52577, Note_on_c, 0, 74, 0
1, 52587, Note_on_c, 0, 67, 0
1, 52595, Note_on_c, 0, 70, 45
1, 52599, Note_on_c, 0, 62, 33
1, 52610, Note_on_c, 0, 70, 0
1, 52707, Note_on_c, 0, 67, 35
1, 52711, Note_on_c, 0, 62, 0
1, 52734, Note_on_c, 0, 58, 0
1, 52804, Note_on_c, 0, 70, 42
1, 52815, Note_on_c, 0, 67, 0
1, 52896, Note_on_c, 0, 93, 70
1, 52899, Note_on_c, 0, 86, 50
1, 52909, Note_on_c, 0, 74, 20
1, 52941, Note_on_c, 0, 93, 0
1, 52959, Note_on_c, 0, 86, 0
1, 52991, Note_on_c, 0, 74, 0
1, 52997, Note_on_c, 0, 70, 0
1, 52997, Note_on_c, 0, 86, 54
1, 52997, Note_on_c, 0, 82, 33
1, 52999, Note_on_c, 0, 79, 44
1, 53043, Note_on_c, 0, 82, 0
1, 53054, Note_on_c, 0, 86, 0
1, 53099, Note_on_c, 0, 80, 34
1, 53103, Note_on_c, 0, 79, 0
1, 53199, Note_on_c, 0, 82, 27
1, 53295, Note_on_c, 0, 82, 0
1, 53299, Note_on_c, 0, 80, 0
1, 53301, Note_on_c, 0, 86, 35
1, 53305, Note_on_c, 0, 89, 29
1, 53306, Note_on_c, 0, 101, 30
1, 53319, Note_on_c, 0, 89, 0
1, 53329, Note_on_c, 0, 101, 0
1, 53444, Note_on_c, 0, 108, 40
1, 53444, Note_on_c, 0, 91, 30
1, 53448, Note_on_c, 0, 96, 24
1, 53465, Note_on_c, 0, 86, 0
1, 53486, Note_on_c, 0, 91, 0
1, 53493, Note_on_c, 0, 108, 0
1, 53647, Note_on_c, 0, 96, 0
1, 53732, Note_on_c, 0, 27, 31
1, 53755, Note_on_c, 0, 27, 0
1, 54121, Control_c, 0, 64, 0
1, 54121, End_track
0, 0, End_of_file
