0, 0, Header, 1, 6, 384
1, 0, Start_track
1, 0, Title_t, "The More I See You"
1, 0, Text_t, "dougmck@pipeline.com.au\012"
1, 0, SMPTE_offset, 96, 0, 3, 0, 0
1, 0, System_exclusive, 8, 67, 115, 1, 17, 15, 89, 0, 247
1, 0, Time_signature, 4, 2, 24, 8
1, 0, Key_signature, 0, "major"
1, 0, Tempo, 428571
1, 0, Marker_t, "Intro - Bass pedals G - RH plays C blues scale lick."
1, 22188, Marker_t, "Using chromatic connections between melody or chord tones that are athird apart"
1, 44922, Marker_t, "Rhythmic 2 note phrase one third apart using both hands moved around changing appropraitely with the changing chords"
1, 82166, Marker_t, "Eack note in the phrase is played twice in shuffle type rhythm"
1, 88638, Marker_t, "Simple 2 note phrase repeated"
1, 89788, Marker_t, "Gradually altered to briefly slip out of key"
1, 103252, Marker_t, "Set up a simple phrase &repeat several times"
1, 104980, Marker_t, "Then 'side-slip' by a semitone"
1, 105494, Marker_t, "Up again to resolve it. "
1, 113986, Marker_t, "Another simple phrase"
1, 115216, Marker_t, "Repeat it"
1, 116534, Marker_t, "Move it out of key - up by a half step"
1, 118272, Marker_t, "Octave tremolo"
1, 119244, Marker_t, "- then both voices move in contrary motion by a half step and another Tremolo"
1, 133632, Marker_t, "'Locked hands' style - LH doubles melody note - with chromatic fall away to the next chord tone below"
1, 135376, Marker_t, "Same idea again"
1, 148992, Marker_t, "Tremolo on interval of a sixth"
1, 150528, Marker_t, "Similar tremolo moves up in diatonic steps"
1, 152134, Marker_t, "Again"
1, 160192, Marker_t, "Tongue-in-cheek deliberate childish/corny phrase - 'Who's a dirty rascal!'"
1, 171150, Marker_t, "More up and back chromatic phrases"
1, 176640, Marker_t, "Simple rhythmic phrase on Ab13#11"
1, 178176, Marker_t, "Phrase moved up a semitone while chord moves down to G7alt"
1, 178176, End_track
2, 0, Start_track
2, 0, End_track
3, 0, Start_track
3, 0, Program_c, 0, 0
3, 0, Control_c, 0, 7, 106
3, 0, Control_c, 0, 11, 127
3, 0, Control_c, 0, 64, 0
3, 0, Control_c, 0, 67, 0
3, 0, Pitch_bend_c, 0, 8192
3, 1408, Note_on_c, 0, 79, 58
3, 1448, Note_on_c, 0, 79, 0
3, 1520, Note_on_c, 0, 91, 81
3, 1520, Note_on_c, 0, 87, 77
3, 1584, Note_on_c, 0, 88, 66
3, 1600, Note_on_c, 0, 87, 0
3, 1672, Note_on_c, 0, 91, 0
3, 1728, Note_on_c, 0, 88, 0
3, 1904, Note_on_c, 0, 93, 103
3, 1912, Note_on_c, 0, 89, 91
3, 2088, Note_on_c, 0, 93, 0
3, 2104, Note_on_c, 0, 89, 0
3, 2328, Note_on_c, 0, 87, 48
3, 2336, Note_on_c, 0, 91, 61
3, 2360, Note_on_c, 0, 87, 0
3, 2424, Note_on_c, 0, 88, 67
3, 2472, Note_on_c, 0, 91, 0
3, 2480, Note_on_c, 0, 84, 65
3, 2512, Note_on_c, 0, 88, 0
3, 2544, Note_on_c, 0, 84, 0
3, 2560, Note_on_c, 0, 79, 74
3, 2624, Note_on_c, 0, 79, 0
3, 2688, Note_on_c, 0, 84, 77
3, 2688, Note_on_c, 0, 77, 60
3, 2696, Note_on_c, 0, 79, 66
3, 2760, Note_on_c, 0, 79, 0
3, 2944, Note_on_c, 0, 84, 0
3, 2968, Note_on_c, 0, 77, 0
3, 3096, Note_on_c, 0, 75, 67
3, 3096, Note_on_c, 0, 84, 68
3, 3248, Note_on_c, 0, 75, 0
3, 3256, Note_on_c, 0, 76, 40
3, 3280, Note_on_c, 0, 84, 0
3, 3296, Note_on_c, 0, 76, 0
3, 3352, Note_on_c, 0, 55, 90
3, 3440, Note_on_c, 0, 55, 0
3, 3736, Note_on_c, 0, 55, 92
3, 3840, Note_on_c, 0, 55, 0
3, 4136, Note_on_c, 0, 55, 99
3, 4208, Note_on_c, 0, 55, 0
3, 4280, Note_on_c, 0, 43, 80
3, 4656, Control_c, 0, 64, 127
3, 4696, Control_c, 0, 64, 0
3, 4784, Control_c, 0, 64, 127
3, 4888, Note_on_c, 0, 67, 76
3, 4904, Control_c, 0, 64, 0
3, 4944, Note_on_c, 0, 67, 0
3, 4984, Note_on_c, 0, 75, 67
3, 4984, Note_on_c, 0, 79, 71
3, 5088, Note_on_c, 0, 76, 62
3, 5096, Note_on_c, 0, 75, 0
3, 5120, Note_on_c, 0, 76, 0
3, 5136, Note_on_c, 0, 79, 0
3, 5256, Note_on_c, 0, 81, 92
3, 5256, Note_on_c, 0, 77, 92
3, 5344, Note_on_c, 0, 77, 0
3, 5344, Note_on_c, 0, 81, 0
3, 5496, Note_on_c, 0, 79, 42
3, 5520, Note_on_c, 0, 75, 56
3, 5568, Note_on_c, 0, 75, 0
3, 5576, Note_on_c, 0, 76, 67
3, 5592, Note_on_c, 0, 72, 68
3, 5608, Note_on_c, 0, 79, 0
3, 5616, Note_on_c, 0, 76, 0
3, 5656, Note_on_c, 0, 72, 0
3, 5672, Note_on_c, 0, 67, 71
3, 5720, Note_on_c, 0, 67, 0
3, 5768, Note_on_c, 0, 65, 74
3, 5768, Note_on_c, 0, 72, 58
3, 5800, Control_c, 0, 64, 127
3, 6024, Note_on_c, 0, 72, 0
3, 6032, Control_c, 0, 64, 0
3, 6048, Note_on_c, 0, 65, 0
3, 6160, Note_on_c, 0, 43, 0
3, 6160, Note_on_c, 0, 72, 58
3, 6184, Note_on_c, 0, 64, 24
3, 6192, Note_on_c, 0, 72, 0
3, 6216, Note_on_c, 0, 64, 0
3, 6552, Control_c, 0, 64, 127
3, 6776, Note_on_c, 0, 55, 79
3, 6784, Note_on_c, 0, 67, 88
3, 6840, Control_c, 0, 64, 0
3, 6864, Note_on_c, 0, 67, 0
3, 6864, Note_on_c, 0, 55, 0
3, 6904, Note_on_c, 0, 72, 76
3, 6904, Note_on_c, 0, 60, 81
3, 7216, Note_on_c, 0, 72, 0
3, 7232, Note_on_c, 0, 60, 0
3, 7280, Note_on_c, 0, 59, 65
3, 7288, Note_on_c, 0, 71, 66
3, 7304, Note_on_c, 0, 59, 0
3, 7328, Control_c, 0, 64, 127
3, 7504, Note_on_c, 0, 71, 0
3, 7592, Note_on_c, 0, 67, 24
3, 7632, Note_on_c, 0, 67, 0
3, 7648, Control_c, 0, 64, 0
3, 7672, Note_on_c, 0, 52, 47
3, 7680, Note_on_c, 0, 62, 37
3, 7680, Note_on_c, 0, 57, 43
3, 7688, Note_on_c, 0, 72, 62
3, 7808, Control_c, 0, 64, 127
3, 7944, Note_on_c, 0, 57, 0
3, 7944, Note_on_c, 0, 52, 0
3, 8032, Note_on_c, 0, 62, 0
3, 8392, Note_on_c, 0, 72, 0
3, 8416, Control_c, 0, 64, 0
3, 8440, Note_on_c, 0, 63, 46
3, 8448, Note_on_c, 0, 67, 50
3, 8464, Note_on_c, 0, 57, 31
3, 8560, Control_c, 0, 64, 127
3, 8728, Note_on_c, 0, 63, 0
3, 8744, Note_on_c, 0, 57, 0
3, 8808, Note_on_c, 0, 67, 0
3, 9192, Control_c, 0, 64, 0
3, 9208, Note_on_c, 0, 62, 36
3, 9216, Note_on_c, 0, 59, 27
3, 9232, Note_on_c, 0, 55, 34
3, 9240, Note_on_c, 0, 52, 22
3, 9584, Control_c, 0, 64, 127
3, 9648, Note_on_c, 0, 55, 0
3, 9656, Note_on_c, 0, 52, 0
3, 9656, Note_on_c, 0, 59, 0
3, 9744, Note_on_c, 0, 62, 0
3, 9872, Note_on_c, 0, 61, 74
3, 9872, Note_on_c, 0, 65, 80
3, 9872, Note_on_c, 0, 72, 80
3, 9872, Note_on_c, 0, 55, 74
3, 9896, Note_on_c, 0, 65, 0
3, 9904, Note_on_c, 0, 55, 0
3, 9904, Control_c, 0, 64, 0
3, 9936, Note_on_c, 0, 72, 0
3, 9952, Note_on_c, 0, 61, 0
3, 10016, Note_on_c, 0, 79, 88
3, 10200, Note_on_c, 0, 79, 0
3, 10272, Note_on_c, 0, 78, 56
3, 10296, Note_on_c, 0, 61, 33
3, 10320, Note_on_c, 0, 61, 0
3, 10336, Note_on_c, 0, 78, 0
3, 10392, Note_on_c, 0, 79, 84
3, 10536, Note_on_c, 0, 79, 0
3, 10648, Note_on_c, 0, 78, 49
3, 10656, Note_on_c, 0, 57, 39
3, 10664, Note_on_c, 0, 53, 43
3, 10672, Note_on_c, 0, 60, 25
3, 10704, Note_on_c, 0, 60, 0
3, 10704, Note_on_c, 0, 57, 0
3, 10712, Note_on_c, 0, 78, 0
3, 10744, Note_on_c, 0, 53, 0
3, 10760, Note_on_c, 0, 79, 66
3, 10992, Note_on_c, 0, 79, 0
3, 11520, Note_on_c, 0, 64, 47
3, 11520, Note_on_c, 0, 57, 54
3, 11528, Note_on_c, 0, 60, 46
3, 11560, Note_on_c, 0, 64, 0
3, 11568, Note_on_c, 0, 60, 0
3, 11600, Note_on_c, 0, 57, 0
3, 12152, Note_on_c, 0, 64, 76
3, 12152, Note_on_c, 0, 59, 68
3, 12168, Note_on_c, 0, 53, 59
3, 12184, Note_on_c, 0, 64, 0
3, 12192, Note_on_c, 0, 53, 0
3, 12192, Note_on_c, 0, 59, 0
3, 12448, Note_on_c, 0, 67, 66
3, 12480, Note_on_c, 0, 67, 0
3, 12584, Note_on_c, 0, 72, 66
3, 12592, Note_on_c, 0, 71, 73
3, 12624, Note_on_c, 0, 71, 0
3, 12664, Note_on_c, 0, 72, 0
3, 12952, Note_on_c, 0, 59, 71
3, 12952, Note_on_c, 0, 64, 74
3, 12968, Note_on_c, 0, 53, 57
3, 12984, Note_on_c, 0, 64, 0
3, 13000, Note_on_c, 0, 53, 0
3, 13016, Note_on_c, 0, 59, 0
3, 13288, Note_on_c, 0, 65, 57
3, 13304, Note_on_c, 0, 67, 45
3, 13320, Note_on_c, 0, 65, 0
3, 13336, Note_on_c, 0, 67, 0
3, 13392, Note_on_c, 0, 59, 51
3, 13408, Note_on_c, 0, 53, 50
3, 13424, Note_on_c, 0, 72, 85
3, 13432, Note_on_c, 0, 59, 0
3, 13464, Note_on_c, 0, 53, 0
3, 13520, Note_on_c, 0, 72, 0
3, 13552, Note_on_c, 0, 67, 74
3, 13600, Note_on_c, 0, 67, 0
3, 13768, Note_on_c, 0, 62, 46
3, 13768, Note_on_c, 0, 59, 39
3, 13808, Note_on_c, 0, 59, 0
3, 13808, Note_on_c, 0, 62, 0
3, 14120, Note_on_c, 0, 59, 64
3, 14120, Note_on_c, 0, 62, 55
3, 14136, Note_on_c, 0, 55, 45
3, 14144, Note_on_c, 0, 59, 0
3, 14152, Note_on_c, 0, 62, 0
3, 14160, Note_on_c, 0, 55, 0
3, 14264, Note_on_c, 0, 67, 84
3, 14320, Note_on_c, 0, 67, 0
3, 14480, Note_on_c, 0, 62, 63
3, 14488, Note_on_c, 0, 67, 68
3, 14488, Note_on_c, 0, 72, 99
3, 14496, Note_on_c, 0, 69, 68
3, 14504, Note_on_c, 0, 63, 52
3, 14528, Note_on_c, 0, 69, 0
3, 14536, Note_on_c, 0, 67, 0
3, 14536, Note_on_c, 0, 63, 0
3, 14568, Note_on_c, 0, 62, 0
3, 14584, Note_on_c, 0, 72, 0
3, 14648, Note_on_c, 0, 72, 68
3, 14904, Note_on_c, 0, 62, 35
3, 14912, Note_on_c, 0, 72, 0
3, 14920, Note_on_c, 0, 60, 29
3, 14944, Note_on_c, 0, 62, 0
3, 14960, Note_on_c, 0, 60, 0
3, 14984, Note_on_c, 0, 67, 68
3, 15224, Note_on_c, 0, 67, 0
3, 15352, Note_on_c, 0, 62, 68
3, 15360, Note_on_c, 0, 59, 54
3, 15368, Note_on_c, 0, 55, 54
3, 15384, Note_on_c, 0, 62, 0
3, 15448, Note_on_c, 0, 59, 0
3, 15464, Note_on_c, 0, 55, 0
3, 15744, Note_on_c, 0, 72, 76
3, 15768, Control_c, 0, 64, 127
3, 15824, Note_on_c, 0, 72, 0
3, 16008, Note_on_c, 0, 58, 58
3, 16008, Note_on_c, 0, 57, 66
3, 16016, Control_c, 0, 64, 0
3, 16024, Note_on_c, 0, 62, 37
3, 16032, Note_on_c, 0, 57, 0
3, 16032, Note_on_c, 0, 58, 0
3, 16056, Note_on_c, 0, 62, 0
3, 16104, Note_on_c, 0, 58, 58
3, 16112, Note_on_c, 0, 62, 67
3, 16120, Note_on_c, 0, 53, 66
3, 16120, Note_on_c, 0, 85, 71
3, 16120, Note_on_c, 0, 90, 39
3, 16128, Note_on_c, 0, 57, 40
3, 16128, Note_on_c, 0, 78, 51
3, 16152, Note_on_c, 0, 91, 30
3, 16264, Note_on_c, 0, 79, 31
3, 16280, Note_on_c, 0, 78, 0
3, 16280, Note_on_c, 0, 90, 0
3, 16304, Note_on_c, 0, 58, 0
3, 16368, Note_on_c, 0, 79, 0
3, 16368, Note_on_c, 0, 62, 0
3, 16368, Note_on_c, 0, 91, 0
3, 16392, Note_on_c, 0, 53, 0
3, 16392, Note_on_c, 0, 57, 0
3, 16408, Note_on_c, 0, 85, 0
3, 16568, Control_c, 0, 64, 127
3, 16768, Control_c, 0, 64, 0
3, 16776, Note_on_c, 0, 63, 53
3, 16784, Note_on_c, 0, 67, 53
3, 16792, Note_on_c, 0, 60, 50
3, 16816, Note_on_c, 0, 67, 0
3, 16816, Note_on_c, 0, 63, 0
3, 16824, Note_on_c, 0, 60, 0
3, 16976, Note_on_c, 0, 87, 74
3, 16976, Note_on_c, 0, 79, 82
3, 16984, Note_on_c, 0, 63, 72
3, 16984, Note_on_c, 0, 91, 72
3, 16992, Note_on_c, 0, 60, 65
3, 16992, Note_on_c, 0, 56, 61
3, 16992, Note_on_c, 0, 67, 76
3, 17048, Note_on_c, 0, 79, 0
3, 17064, Note_on_c, 0, 87, 0
3, 17064, Note_on_c, 0, 67, 0
3, 17072, Note_on_c, 0, 91, 0
3, 17096, Note_on_c, 0, 56, 0
3, 17096, Note_on_c, 0, 60, 0
3, 17112, Note_on_c, 0, 63, 0
3, 17272, Note_on_c, 0, 87, 81
3, 17272, Note_on_c, 0, 63, 75
3, 17272, Note_on_c, 0, 91, 79
3, 17272, Note_on_c, 0, 79, 81
3, 17272, Note_on_c, 0, 67, 84
3, 17280, Note_on_c, 0, 60, 70
3, 17280, Note_on_c, 0, 56, 69
3, 17288, Control_c, 0, 64, 127
3, 17440, Note_on_c, 0, 56, 0
3, 17440, Note_on_c, 0, 67, 0
3, 17456, Note_on_c, 0, 79, 0
3, 17456, Note_on_c, 0, 91, 0
3, 17464, Note_on_c, 0, 87, 0
3, 17472, Note_on_c, 0, 60, 0
3, 17480, Note_on_c, 0, 63, 0
3, 17528, Control_c, 0, 64, 0
3, 17536, Note_on_c, 0, 91, 74
3, 17536, Note_on_c, 0, 63, 71
3, 17536, Note_on_c, 0, 84, 80
3, 17536, Note_on_c, 0, 79, 62
3, 17544, Note_on_c, 0, 60, 72
3, 17544, Note_on_c, 0, 67, 82
3, 17552, Note_on_c, 0, 56, 71
3, 17568, Note_on_c, 0, 87, 32
3, 17592, Note_on_c, 0, 87, 0
3, 17680, Control_c, 0, 64, 127
3, 17944, Note_on_c, 0, 87, 25
3, 17960, Note_on_c, 0, 67, 0
3, 17968, Note_on_c, 0, 63, 0
3, 17984, Note_on_c, 0, 60, 0
3, 17984, Note_on_c, 0, 79, 0
3, 17984, Note_on_c, 0, 84, 0
3, 17984, Note_on_c, 0, 58, 19
3, 18000, Note_on_c, 0, 87, 0
3, 18024, Note_on_c, 0, 58, 0
3, 18032, Note_on_c, 0, 91, 0
3, 18048, Note_on_c, 0, 56, 0
3, 18288, Note_on_c, 0, 91, 87
3, 18296, Note_on_c, 0, 85, 87
3, 18296, Note_on_c, 0, 79, 85
3, 18304, Note_on_c, 0, 59, 77
3, 18304, Note_on_c, 0, 53, 81
3, 18304, Note_on_c, 0, 64, 85
3, 18304, Control_c, 0, 64, 0
3, 18360, Note_on_c, 0, 64, 0
3, 18392, Note_on_c, 0, 91, 0
3, 18400, Note_on_c, 0, 59, 0
3, 18432, Note_on_c, 0, 85, 0
3, 18440, Note_on_c, 0, 53, 0
3, 18504, Note_on_c, 0, 79, 0
3, 18520, Note_on_c, 0, 77, 46
3, 18552, Note_on_c, 0, 77, 0
3, 18568, Note_on_c, 0, 76, 62
3, 18600, Note_on_c, 0, 76, 0
3, 18640, Note_on_c, 0, 54, 88
3, 18648, Note_on_c, 0, 55, 103
3, 18728, Note_on_c, 0, 54, 0
3, 19448, Note_on_c, 0, 54, 46
3, 19568, Note_on_c, 0, 54, 0
3, 19584, Note_on_c, 0, 55, 0
3, 19704, Note_on_c, 0, 64, 14
3, 19784, Note_on_c, 0, 67, 71
3, 19808, Note_on_c, 0, 64, 0
3, 19832, Note_on_c, 0, 67, 0
3, 19864, Note_on_c, 0, 69, 89
3, 19888, Note_on_c, 0, 71, 70
3, 19888, Note_on_c, 0, 62, 51
3, 19920, Note_on_c, 0, 71, 0
3, 19928, Note_on_c, 0, 62, 0
3, 20008, Note_on_c, 0, 69, 0
3, 20024, Note_on_c, 0, 67, 70
3, 20272, Note_on_c, 0, 67, 0
3, 20392, Note_on_c, 0, 60, 31
3, 20400, Note_on_c, 0, 62, 28
3, 20464, Note_on_c, 0, 62, 0
3, 20472, Note_on_c, 0, 60, 0
3, 21104, Note_on_c, 0, 59, 52
3, 21120, Note_on_c, 0, 67, 61
3, 21128, Note_on_c, 0, 63, 50
3, 21280, Note_on_c, 0, 59, 0
3, 21312, Note_on_c, 0, 63, 0
3, 21312, Note_on_c, 0, 67, 0
3, 21520, Note_on_c, 0, 65, 54
3, 21536, Note_on_c, 0, 61, 46
3, 21536, Note_on_c, 0, 60, 39
3, 21536, Control_c, 0, 64, 127
3, 21544, Note_on_c, 0, 56, 36
3, 21856, Control_c, 0, 64, 0
3, 21968, Note_on_c, 0, 60, 0
3, 22008, Control_c, 0, 64, 127
3, 22024, Note_on_c, 0, 65, 0
3, 22096, Note_on_c, 0, 61, 0
3, 22136, Note_on_c, 0, 56, 0
3, 22168, Control_c, 0, 64, 0
3, 22168, Note_on_c, 0, 79, 101
3, 22192, Note_on_c, 0, 55, 73
3, 22192, Note_on_c, 0, 61, 47
3, 22192, Note_on_c, 0, 65, 59
3, 22232, Note_on_c, 0, 65, 0
3, 22232, Note_on_c, 0, 79, 0
3, 22344, Note_on_c, 0, 79, 59
3, 22376, Note_on_c, 0, 61, 0
3, 22408, Note_on_c, 0, 80, 52
3, 22440, Note_on_c, 0, 79, 0
3, 22504, Note_on_c, 0, 81, 34
3, 22544, Note_on_c, 0, 81, 0
3, 22560, Note_on_c, 0, 61, 42
3, 22576, Note_on_c, 0, 82, 59
3, 22592, Note_on_c, 0, 80, 0
3, 22664, Note_on_c, 0, 61, 0
3, 22680, Note_on_c, 0, 55, 0
3, 22704, Note_on_c, 0, 81, 61
3, 22792, Note_on_c, 0, 82, 0
3, 22816, Note_on_c, 0, 80, 46
3, 22856, Note_on_c, 0, 81, 0
3, 22904, Note_on_c, 0, 79, 62
3, 22920, Note_on_c, 0, 80, 0
3, 22984, Note_on_c, 0, 79, 0
3, 23032, Note_on_c, 0, 63, 33
3, 23048, Note_on_c, 0, 77, 49
3, 23048, Note_on_c, 0, 60, 39
3, 23056, Note_on_c, 0, 58, 45
3, 23064, Note_on_c, 0, 53, 31
3, 23136, Note_on_c, 0, 77, 0
3, 23136, Note_on_c, 0, 75, 69
3, 23184, Note_on_c, 0, 60, 0
3, 23280, Note_on_c, 0, 53, 0
3, 23296, Note_on_c, 0, 63, 0
3, 23296, Note_on_c, 0, 60, 24
3, 23312, Note_on_c, 0, 75, 0
3, 23344, Note_on_c, 0, 60, 0
3, 23424, Note_on_c, 0, 58, 0
3, 23688, Note_on_c, 0, 63, 70
3, 23696, Note_on_c, 0, 60, 60
3, 23696, Note_on_c, 0, 58, 40
3, 23720, Note_on_c, 0, 60, 0
3, 23720, Note_on_c, 0, 63, 0
3, 23752, Note_on_c, 0, 58, 0
3, 23960, Control_c, 0, 64, 127
3, 24040, Control_c, 0, 64, 0
3, 24184, Note_on_c, 0, 76, 84
3, 24272, Note_on_c, 0, 77, 65
3, 24352, Note_on_c, 0, 78, 38
3, 24360, Note_on_c, 0, 76, 0
3, 24432, Note_on_c, 0, 77, 0
3, 24432, Note_on_c, 0, 79, 69
3, 24448, Note_on_c, 0, 78, 0
3, 24520, Note_on_c, 0, 78, 49
3, 24536, Note_on_c, 0, 79, 0
3, 24576, Note_on_c, 0, 77, 62
3, 24624, Note_on_c, 0, 78, 0
3, 24680, Note_on_c, 0, 77, 0
3, 24688, Note_on_c, 0, 76, 57
3, 24784, Note_on_c, 0, 75, 51
3, 24800, Note_on_c, 0, 76, 0
3, 24816, Note_on_c, 0, 75, 0
3, 25200, Note_on_c, 0, 64, 70
3, 25216, Note_on_c, 0, 53, 52
3, 25224, Note_on_c, 0, 59, 44
3, 25240, Note_on_c, 0, 64, 0
3, 25264, Note_on_c, 0, 59, 0
3, 25272, Note_on_c, 0, 53, 0
3, 25568, Note_on_c, 0, 71, 85
3, 25576, Note_on_c, 0, 59, 74
3, 25584, Note_on_c, 0, 63, 83
3, 25592, Note_on_c, 0, 53, 74
3, 25600, Note_on_c, 0, 56, 52
3, 25712, Note_on_c, 0, 73, 28
3, 25744, Note_on_c, 0, 71, 0
3, 25760, Note_on_c, 0, 74, 28
3, 25792, Note_on_c, 0, 74, 0
3, 25800, Note_on_c, 0, 59, 0
3, 25808, Note_on_c, 0, 63, 0
3, 25840, Note_on_c, 0, 53, 0
3, 25856, Note_on_c, 0, 73, 0
3, 25856, Note_on_c, 0, 75, 55
3, 25912, Note_on_c, 0, 74, 56
3, 25936, Note_on_c, 0, 56, 0
3, 25968, Note_on_c, 0, 75, 0
3, 25976, Note_on_c, 0, 73, 55
3, 25984, Control_c, 0, 64, 127
3, 26000, Note_on_c, 0, 74, 0
3, 26048, Note_on_c, 0, 71, 58
3, 26072, Note_on_c, 0, 73, 0
3, 26088, Control_c, 0, 64, 0
3, 26112, Note_on_c, 0, 71, 0
3, 26120, Note_on_c, 0, 62, 50
3, 26144, Note_on_c, 0, 57, 40
3, 26144, Note_on_c, 0, 74, 77
3, 26144, Note_on_c, 0, 55, 41
3, 26152, Note_on_c, 0, 51, 31
3, 26208, Note_on_c, 0, 57, 0
3, 26296, Note_on_c, 0, 55, 0
3, 26328, Note_on_c, 0, 51, 0
3, 26368, Note_on_c, 0, 62, 0
3, 26392, Note_on_c, 0, 74, 0
3, 26424, Note_on_c, 0, 72, 74
3, 26504, Note_on_c, 0, 72, 0
3, 26584, Note_on_c, 0, 67, 32
3, 26816, Note_on_c, 0, 67, 0
3, 26904, Note_on_c, 0, 67, 65
3, 26968, Note_on_c, 0, 67, 0
3, 27272, Note_on_c, 0, 58, 48
3, 27272, Note_on_c, 0, 65, 49
3, 27280, Note_on_c, 0, 61, 55
3, 27376, Note_on_c, 0, 65, 0
3, 27392, Note_on_c, 0, 61, 0
3, 27456, Note_on_c, 0, 58, 0
3, 27680, Note_on_c, 0, 63, 57
3, 27688, Note_on_c, 0, 55, 47
3, 27720, Note_on_c, 0, 60, 25
3, 27728, Note_on_c, 0, 57, 24
3, 27840, Control_c, 0, 64, 127
3, 27904, Note_on_c, 0, 60, 0
3, 27968, Control_c, 0, 64, 0
3, 28008, Note_on_c, 0, 57, 0
3, 28024, Note_on_c, 0, 60, 33
3, 28032, Note_on_c, 0, 63, 0
3, 28064, Note_on_c, 0, 72, 48
3, 28128, Note_on_c, 0, 73, 53
3, 28144, Note_on_c, 0, 60, 0
3, 28152, Note_on_c, 0, 72, 0
3, 28192, Note_on_c, 0, 74, 65
3, 28288, Note_on_c, 0, 74, 0
3, 28296, Note_on_c, 0, 75, 71
3, 28304, Note_on_c, 0, 73, 0
3, 28368, Note_on_c, 0, 74, 62
3, 28416, Note_on_c, 0, 55, 0
3, 28440, Note_on_c, 0, 73, 61
3, 28448, Note_on_c, 0, 75, 0
3, 28472, Note_on_c, 0, 74, 0
3, 28560, Note_on_c, 0, 73, 0
3, 28560, Note_on_c, 0, 72, 60
3, 28624, Note_on_c, 0, 72, 0
3, 29088, Note_on_c, 0, 65, 79
3, 29088, Note_on_c, 0, 58, 61
3, 29096, Note_on_c, 0, 60, 62
3, 29096, Note_on_c, 0, 54, 57
3, 29424, Control_c, 0, 64, 127
3, 29720, Note_on_c, 0, 65, 0
3, 29784, Note_on_c, 0, 60, 0
3, 29840, Note_on_c, 0, 65, 83
3, 29880, Control_c, 0, 64, 0
3, 29904, Note_on_c, 0, 65, 0
3, 29960, Note_on_c, 0, 58, 0
3, 29960, Note_on_c, 0, 54, 0
3, 29968, Note_on_c, 0, 70, 57
3, 30040, Note_on_c, 0, 70, 0
3, 30080, Note_on_c, 0, 74, 72
3, 30104, Note_on_c, 0, 74, 0
3, 30176, Note_on_c, 0, 77, 74
3, 30264, Note_on_c, 0, 77, 0
3, 30264, Note_on_c, 0, 58, 21
3, 30296, Note_on_c, 0, 82, 65
3, 30312, Note_on_c, 0, 58, 0
3, 30368, Note_on_c, 0, 82, 0
3, 30488, Note_on_c, 0, 89, 74
3, 30560, Note_on_c, 0, 89, 0
3, 30584, Note_on_c, 0, 94, 61
3, 30664, Note_on_c, 0, 94, 0
3, 30680, Note_on_c, 0, 98, 88
3, 30752, Note_on_c, 0, 59, 45
3, 30760, Note_on_c, 0, 64, 40
3, 30760, Note_on_c, 0, 53, 52
3, 30800, Note_on_c, 0, 95, 73
3, 30832, Note_on_c, 0, 98, 0
3, 30864, Note_on_c, 0, 64, 0
3, 30880, Note_on_c, 0, 59, 0
3, 30896, Note_on_c, 0, 95, 0
3, 30928, Note_on_c, 0, 53, 0
3, 31040, Note_on_c, 0, 55, 96
3, 31040, Note_on_c, 0, 54, 81
3, 31208, Note_on_c, 0, 54, 0
3, 31376, Note_on_c, 0, 79, 77
3, 31440, Note_on_c, 0, 79, 0
3, 31512, Note_on_c, 0, 86, 79
3, 31520, Note_on_c, 0, 84, 80
3, 31560, Note_on_c, 0, 55, 0
3, 31680, Note_on_c, 0, 86, 0
3, 31696, Note_on_c, 0, 84, 0
3, 31736, Note_on_c, 0, 53, 82
3, 31736, Note_on_c, 0, 64, 89
3, 31744, Note_on_c, 0, 59, 75
3, 32088, Note_on_c, 0, 83, 95
3, 32104, Note_on_c, 0, 59, 0
3, 32184, Note_on_c, 0, 64, 0
3, 32200, Note_on_c, 0, 53, 0
3, 32240, Note_on_c, 0, 83, 0
3, 32288, Note_on_c, 0, 62, 57
3, 32288, Note_on_c, 0, 57, 40
3, 32304, Note_on_c, 0, 52, 36
3, 32312, Note_on_c, 0, 84, 65
3, 32336, Note_on_c, 0, 83, 31
3, 32480, Note_on_c, 0, 83, 0
3, 32584, Note_on_c, 0, 57, 0
3, 32584, Note_on_c, 0, 84, 0
3, 32592, Note_on_c, 0, 52, 0
3, 32656, Note_on_c, 0, 79, 60
3, 32688, Note_on_c, 0, 62, 0
3, 32688, Control_c, 0, 64, 127
3, 32848, Note_on_c, 0, 79, 0
3, 32904, Control_c, 0, 64, 0
3, 32912, Note_on_c, 0, 57, 73
3, 33104, Note_on_c, 0, 63, 26
3, 33144, Note_on_c, 0, 67, 10
3, 33328, Note_on_c, 0, 67, 0
3, 33384, Note_on_c, 0, 63, 0
3, 33448, Note_on_c, 0, 63, 47
3, 33448, Note_on_c, 0, 67, 44
3, 33456, Control_c, 0, 64, 127
3, 33576, Note_on_c, 0, 57, 0
3, 33632, Note_on_c, 0, 67, 0
3, 33664, Note_on_c, 0, 63, 0
3, 33704, Note_on_c, 0, 55, 78
3, 33704, Control_c, 0, 64, 0
3, 34184, Note_on_c, 0, 62, 24
3, 34224, Control_c, 0, 64, 127
3, 34240, Note_on_c, 0, 64, 42
3, 34312, Note_on_c, 0, 62, 0
3, 34376, Note_on_c, 0, 55, 0
3, 34432, Control_c, 0, 64, 0
3, 34440, Note_on_c, 0, 64, 0
3, 34448, Note_on_c, 0, 55, 76
3, 34960, Note_on_c, 0, 61, 46
3, 34976, Note_on_c, 0, 65, 47
3, 35120, Note_on_c, 0, 65, 0
3, 35120, Note_on_c, 0, 55, 0
3, 35120, Control_c, 0, 64, 127
3, 35192, Note_on_c, 0, 61, 0
3, 35192, Control_c, 0, 64, 0
3, 35208, Note_on_c, 0, 87, 84
3, 35232, Note_on_c, 0, 64, 62
3, 35232, Note_on_c, 0, 60, 56
3, 35240, Note_on_c, 0, 57, 55
3, 35248, Note_on_c, 0, 53, 40
3, 35304, Note_on_c, 0, 64, 0
3, 35304, Note_on_c, 0, 87, 0
3, 35360, Note_on_c, 0, 60, 0
3, 35424, Note_on_c, 0, 88, 61
3, 35504, Note_on_c, 0, 57, 0
3, 35536, Note_on_c, 0, 88, 0
3, 35608, Note_on_c, 0, 89, 80
3, 35632, Note_on_c, 0, 57, 48
3, 35632, Note_on_c, 0, 60, 50
3, 35640, Note_on_c, 0, 64, 35
3, 35680, Note_on_c, 0, 64, 0
3, 35704, Note_on_c, 0, 60, 0
3, 35712, Note_on_c, 0, 89, 0
3, 35744, Note_on_c, 0, 57, 0
3, 35784, Note_on_c, 0, 91, 89
3, 35920, Note_on_c, 0, 91, 0
3, 35992, Note_on_c, 0, 88, 89
3, 36008, Note_on_c, 0, 64, 47
3, 36016, Note_on_c, 0, 60, 46
3, 36024, Note_on_c, 0, 57, 39
3, 36048, Note_on_c, 0, 64, 0
3, 36056, Note_on_c, 0, 60, 0
3, 36096, Note_on_c, 0, 88, 0
3, 36120, Note_on_c, 0, 53, 0
3, 36168, Note_on_c, 0, 84, 50
3, 36224, Note_on_c, 0, 57, 0
3, 36352, Note_on_c, 0, 84, 0
3, 36360, Control_c, 0, 64, 127
3, 36376, Note_on_c, 0, 81, 67
3, 36392, Note_on_c, 0, 57, 50
3, 36400, Note_on_c, 0, 53, 43
3, 36400, Note_on_c, 0, 60, 46
3, 36408, Note_on_c, 0, 64, 33
3, 36408, Control_c, 0, 64, 0
3, 36464, Note_on_c, 0, 81, 0
3, 36584, Note_on_c, 0, 77, 9
3, 36608, Note_on_c, 0, 53, 0
3, 36616, Note_on_c, 0, 64, 0
3, 36648, Note_on_c, 0, 60, 0
3, 36704, Control_c, 0, 64, 127
3, 36728, Note_on_c, 0, 77, 0
3, 36752, Note_on_c, 0, 57, 0
3, 36776, Note_on_c, 0, 72, 58
3, 36792, Note_on_c, 0, 64, 66
3, 36792, Note_on_c, 0, 59, 64
3, 36800, Control_c, 0, 64, 0
3, 36800, Note_on_c, 0, 53, 58
3, 36824, Note_on_c, 0, 64, 0
3, 36832, Note_on_c, 0, 72, 0
3, 36880, Note_on_c, 0, 59, 0
3, 36928, Note_on_c, 0, 80, 56
3, 37016, Note_on_c, 0, 80, 0
3, 37064, Note_on_c, 0, 84, 83
3, 37072, Note_on_c, 0, 81, 84
3, 37104, Note_on_c, 0, 53, 0
3, 37152, Note_on_c, 0, 81, 0
3, 37152, Note_on_c, 0, 84, 0
3, 37336, Note_on_c, 0, 79, 77
3, 37344, Note_on_c, 0, 77, 66
3, 37344, Note_on_c, 0, 76, 73
3, 37376, Note_on_c, 0, 76, 0
3, 37376, Note_on_c, 0, 77, 0
3, 37416, Note_on_c, 0, 79, 0
3, 37544, Note_on_c, 0, 77, 84
3, 37560, Note_on_c, 0, 74, 74
3, 37568, Note_on_c, 0, 64, 62
3, 37568, Note_on_c, 0, 53, 61
3, 37568, Note_on_c, 0, 59, 57
3, 37600, Note_on_c, 0, 64, 0
3, 37632, Note_on_c, 0, 74, 0
3, 37648, Note_on_c, 0, 77, 0
3, 37672, Note_on_c, 0, 59, 0
3, 37728, Note_on_c, 0, 53, 0
3, 37784, Note_on_c, 0, 79, 62
3, 37840, Note_on_c, 0, 76, 60
3, 37848, Note_on_c, 0, 77, 32
3, 37888, Note_on_c, 0, 79, 0
3, 37896, Note_on_c, 0, 77, 0
3, 37896, Note_on_c, 0, 72, 68
3, 37928, Note_on_c, 0, 76, 0
3, 37960, Note_on_c, 0, 72, 0
3, 37960, Note_on_c, 0, 67, 71
3, 37976, Note_on_c, 0, 63, 49
3, 37984, Note_on_c, 0, 53, 35
3, 38008, Note_on_c, 0, 67, 0
3, 38048, Note_on_c, 0, 63, 0
3, 38064, Note_on_c, 0, 72, 59
3, 38072, Note_on_c, 0, 65, 74
3, 38168, Note_on_c, 0, 53, 0
3, 38208, Note_on_c, 0, 72, 0
3, 38264, Note_on_c, 0, 65, 0
3, 38304, Note_on_c, 0, 63, 79
3, 38304, Note_on_c, 0, 72, 42
3, 38320, Note_on_c, 0, 62, 65
3, 38320, Note_on_c, 0, 58, 47
3, 38320, Note_on_c, 0, 57, 57
3, 38352, Note_on_c, 0, 72, 0
3, 38360, Note_on_c, 0, 52, 41
3, 38384, Note_on_c, 0, 62, 0
3, 38424, Note_on_c, 0, 63, 0
3, 38440, Note_on_c, 0, 58, 0
3, 38456, Note_on_c, 0, 57, 0
3, 38488, Note_on_c, 0, 64, 57
3, 38624, Note_on_c, 0, 64, 0
3, 38680, Note_on_c, 0, 65, 79
3, 38704, Note_on_c, 0, 62, 61
3, 38704, Note_on_c, 0, 58, 35
3, 38736, Note_on_c, 0, 52, 0
3, 38752, Note_on_c, 0, 58, 0
3, 38784, Note_on_c, 0, 65, 0
3, 38824, Note_on_c, 0, 66, 59
3, 38880, Note_on_c, 0, 66, 0
3, 38944, Note_on_c, 0, 69, 62
3, 39032, Note_on_c, 0, 69, 0
3, 39048, Note_on_c, 0, 72, 47
3, 39056, Note_on_c, 0, 71, 48
3, 39104, Note_on_c, 0, 62, 0
3, 39112, Note_on_c, 0, 72, 0
3, 39120, Note_on_c, 0, 71, 0
3, 39128, Note_on_c, 0, 63, 33
3, 39144, Note_on_c, 0, 57, 50
3, 39160, Note_on_c, 0, 76, 54
3, 39168, Note_on_c, 0, 74, 55
3, 39216, Note_on_c, 0, 74, 0
3, 39224, Note_on_c, 0, 76, 0
3, 39224, Note_on_c, 0, 63, 0
3, 39248, Note_on_c, 0, 71, 68
3, 39320, Note_on_c, 0, 71, 0
3, 39336, Note_on_c, 0, 72, 63
3, 39432, Note_on_c, 0, 74, 53
3, 39440, Note_on_c, 0, 72, 0
3, 39464, Note_on_c, 0, 63, 46
3, 39472, Note_on_c, 0, 74, 0
3, 39496, Note_on_c, 0, 75, 51
3, 39520, Note_on_c, 0, 75, 0
3, 39544, Note_on_c, 0, 63, 0
3, 39576, Note_on_c, 0, 57, 0
3, 39608, Note_on_c, 0, 79, 45
3, 39688, Note_on_c, 0, 83, 60
3, 39696, Note_on_c, 0, 79, 0
3, 39768, Note_on_c, 0, 83, 0
3, 39792, Note_on_c, 0, 86, 91
3, 39920, Note_on_c, 0, 84, 81
3, 39944, Note_on_c, 0, 86, 0
3, 40048, Note_on_c, 0, 84, 0
3, 40192, Note_on_c, 0, 83, 87
3, 40240, Note_on_c, 0, 59, 49
3, 40248, Note_on_c, 0, 83, 0
3, 40248, Note_on_c, 0, 62, 40
3, 40288, Note_on_c, 0, 62, 0
3, 40288, Note_on_c, 0, 59, 0
3, 40592, Note_on_c, 0, 64, 79
3, 40600, Note_on_c, 0, 59, 72
3, 40608, Note_on_c, 0, 53, 54
3, 40624, Note_on_c, 0, 64, 0
3, 40648, Note_on_c, 0, 53, 0
3, 40664, Note_on_c, 0, 59, 0
3, 40744, Note_on_c, 0, 82, 49
3, 40872, Note_on_c, 0, 82, 0
3, 40976, Note_on_c, 0, 63, 73
3, 40976, Note_on_c, 0, 83, 78
3, 40976, Note_on_c, 0, 59, 62
3, 40992, Note_on_c, 0, 53, 40
3, 41008, Note_on_c, 0, 59, 0
3, 41016, Note_on_c, 0, 63, 0
3, 41032, Note_on_c, 0, 53, 0
3, 41056, Note_on_c, 0, 83, 0
3, 41128, Note_on_c, 0, 86, 90
3, 41264, Control_c, 0, 64, 127
3, 41288, Note_on_c, 0, 86, 0
3, 41328, Control_c, 0, 64, 0
3, 41344, Note_on_c, 0, 81, 70
3, 41352, Note_on_c, 0, 62, 66
3, 41352, Note_on_c, 0, 58, 46
3, 41360, Note_on_c, 0, 57, 36
3, 41384, Note_on_c, 0, 62, 0
3, 41400, Note_on_c, 0, 57, 0
3, 41416, Note_on_c, 0, 58, 0
3, 41432, Note_on_c, 0, 81, 0
3, 41584, Note_on_c, 0, 86, 68
3, 41664, Note_on_c, 0, 86, 0
3, 41688, Note_on_c, 0, 89, 60
3, 41744, Note_on_c, 0, 58, 35
3, 41768, Note_on_c, 0, 93, 68
3, 41776, Note_on_c, 0, 89, 0
3, 41848, Note_on_c, 0, 93, 0
3, 41896, Note_on_c, 0, 94, 71
3, 41952, Note_on_c, 0, 58, 0
3, 42016, Note_on_c, 0, 94, 0
3, 42032, Note_on_c, 0, 90, 68
3, 42096, Note_on_c, 0, 90, 0
3, 42136, Note_on_c, 0, 93, 80
3, 42224, Note_on_c, 0, 93, 0
3, 42272, Note_on_c, 0, 90, 52
3, 42296, Note_on_c, 0, 90, 0
3, 42360, Note_on_c, 0, 91, 87
3, 42480, Note_on_c, 0, 91, 0
3, 42872, Note_on_c, 0, 62, 85
3, 42872, Note_on_c, 0, 57, 72
3, 42896, Note_on_c, 0, 62, 0
3, 42944, Note_on_c, 0, 57, 0
3, 43024, Note_on_c, 0, 90, 70
3, 43088, Note_on_c, 0, 90, 0
3, 43104, Note_on_c, 0, 91, 64
3, 43176, Note_on_c, 0, 90, 57
3, 43208, Note_on_c, 0, 91, 0
3, 43288, Note_on_c, 0, 90, 0
3, 43416, Note_on_c, 0, 88, 52
3, 43560, Note_on_c, 0, 88, 0
3, 43624, Note_on_c, 0, 87, 74
3, 43648, Note_on_c, 0, 58, 56
3, 43656, Note_on_c, 0, 62, 50
3, 43672, Note_on_c, 0, 52, 47
3, 43680, Note_on_c, 0, 62, 0
3, 43712, Note_on_c, 0, 52, 0
3, 43736, Note_on_c, 0, 87, 0
3, 43744, Note_on_c, 0, 58, 0
3, 43808, Note_on_c, 0, 85, 56
3, 43896, Note_on_c, 0, 85, 0
3, 43904, Note_on_c, 0, 87, 60
3, 43952, Note_on_c, 0, 87, 0
3, 43952, Note_on_c, 0, 88, 58
3, 43984, Note_on_c, 0, 87, 34
3, 44008, Note_on_c, 0, 88, 0
3, 44072, Note_on_c, 0, 85, 63
3, 44096, Note_on_c, 0, 61, 25
3, 44104, Note_on_c, 0, 87, 0
3, 44104, Note_on_c, 0, 58, 32
3, 44120, Note_on_c, 0, 52, 43
3, 44160, Note_on_c, 0, 85, 0
3, 44168, Note_on_c, 0, 84, 66
3, 44232, Note_on_c, 0, 52, 0
3, 44248, Note_on_c, 0, 84, 0
3, 44256, Note_on_c, 0, 58, 0
3, 44264, Note_on_c, 0, 82, 54
3, 44280, Note_on_c, 0, 61, 0
3, 44392, Note_on_c, 0, 82, 0
3, 44440, Note_on_c, 0, 79, 45
3, 44464, Note_on_c, 0, 60, 27
3, 44480, Note_on_c, 0, 79, 0
3, 44480, Note_on_c, 0, 57, 40
3, 44528, Note_on_c, 0, 60, 0
3, 44528, Note_on_c, 0, 84, 80
3, 44568, Note_on_c, 0, 57, 0
3, 44640, Note_on_c, 0, 84, 0
3, 44696, Note_on_c, 0, 81, 71
3, 44776, Note_on_c, 0, 81, 0
3, 44864, Note_on_c, 0, 57, 37
3, 44912, Note_on_c, 0, 76, 44
3, 44928, Note_on_c, 0, 74, 41
3, 44944, Note_on_c, 0, 57, 0
3, 44960, Note_on_c, 0, 74, 0
3, 44984, Note_on_c, 0, 76, 0
3, 45008, Note_on_c, 0, 79, 68
3, 45200, Note_on_c, 0, 64, 61
3, 45224, Note_on_c, 0, 60, 37
3, 45232, Note_on_c, 0, 64, 0
3, 45232, Note_on_c, 0, 57, 33
3, 45240, Note_on_c, 0, 79, 0
3, 45264, Note_on_c, 0, 60, 0
3, 45288, Note_on_c, 0, 57, 0
3, 45312, Note_on_c, 0, 72, 24
3, 45344, Note_on_c, 0, 72, 0
3, 45408, Note_on_c, 0, 76, 89
3, 45600, Note_on_c, 0, 64, 56
3, 45616, Note_on_c, 0, 57, 54
3, 45616, Note_on_c, 0, 60, 54
3, 45632, Note_on_c, 0, 64, 0
3, 45632, Note_on_c, 0, 76, 0
3, 45656, Note_on_c, 0, 60, 0
3, 45704, Note_on_c, 0, 57, 0
3, 45712, Note_on_c, 0, 69, 71
3, 45776, Note_on_c, 0, 69, 0
3, 45832, Note_on_c, 0, 72, 79
3, 45992, Note_on_c, 0, 72, 0
3, 45992, Note_on_c, 0, 64, 44
3, 46000, Note_on_c, 0, 60, 48
3, 46008, Note_on_c, 0, 56, 37
3, 46024, Note_on_c, 0, 64, 0
3, 46064, Note_on_c, 0, 56, 0
3, 46072, Note_on_c, 0, 60, 0
3, 46096, Note_on_c, 0, 68, 75
3, 46184, Note_on_c, 0, 68, 0
3, 46216, Note_on_c, 0, 72, 74
3, 46368, Note_on_c, 0, 64, 59
3, 46384, Note_on_c, 0, 60, 53
3, 46392, Note_on_c, 0, 72, 0
3, 46392, Note_on_c, 0, 56, 35
3, 46400, Note_on_c, 0, 64, 0
3, 46424, Note_on_c, 0, 60, 0
3, 46448, Note_on_c, 0, 56, 0
3, 46480, Note_on_c, 0, 65, 71
3, 46552, Note_on_c, 0, 65, 0
3, 46592, Note_on_c, 0, 68, 73
3, 46728, Note_on_c, 0, 68, 0
3, 46760, Note_on_c, 0, 56, 32
3, 46776, Note_on_c, 0, 53, 26
3, 46784, Note_on_c, 0, 56, 0
3, 46808, Note_on_c, 0, 53, 0
3, 46848, Note_on_c, 0, 62, 73
3, 46952, Note_on_c, 0, 62, 0
3, 46984, Note_on_c, 0, 65, 75
3, 47072, Note_on_c, 0, 65, 0
3, 47240, Note_on_c, 0, 67, 77
3, 47240, Note_on_c, 0, 62, 68
3, 47240, Note_on_c, 0, 56, 61
3, 47432, Note_on_c, 0, 62, 0
3, 47440, Note_on_c, 0, 67, 0
3, 47520, Note_on_c, 0, 56, 0
3, 47544, Note_on_c, 0, 55, 72
3, 47552, Note_on_c, 0, 60, 73
3, 47552, Note_on_c, 0, 65, 44
3, 47552, Note_on_c, 0, 64, 62
3, 47584, Note_on_c, 0, 65, 0
3, 47736, Control_c, 0, 64, 127
3, 47768, Control_c, 0, 64, 0
3, 47960, Control_c, 0, 64, 127
3, 48000, Note_on_c, 0, 60, 0
3, 48064, Note_on_c, 0, 55, 0
3, 48160, Note_on_c, 0, 64, 0
3, 48328, Control_c, 0, 64, 0
3, 48384, Note_on_c, 0, 62, 79
3, 48384, Note_on_c, 0, 56, 80
3, 48384, Note_on_c, 0, 67, 85
3, 48392, Note_on_c, 0, 82, 86
3, 48392, Note_on_c, 0, 94, 84
3, 48416, Note_on_c, 0, 95, 66
3, 48432, Note_on_c, 0, 96, 60
3, 48472, Control_c, 0, 64, 127
3, 48504, Note_on_c, 0, 82, 0
3, 48504, Note_on_c, 0, 83, 34
3, 48512, Note_on_c, 0, 96, 0
3, 48512, Note_on_c, 0, 84, 29
3, 48528, Note_on_c, 0, 95, 0
3, 48552, Note_on_c, 0, 84, 0
3, 48560, Note_on_c, 0, 94, 0
3, 48560, Note_on_c, 0, 83, 0
3, 48584, Note_on_c, 0, 67, 0
3, 48592, Note_on_c, 0, 56, 0
3, 48608, Note_on_c, 0, 62, 0
3, 48664, Note_on_c, 0, 96, 77
3, 48680, Note_on_c, 0, 84, 73
3, 48688, Note_on_c, 0, 62, 62
3, 48688, Note_on_c, 0, 67, 66
3, 48688, Note_on_c, 0, 95, 44
3, 48688, Note_on_c, 0, 56, 57
3, 48712, Note_on_c, 0, 84, 0
3, 48720, Note_on_c, 0, 95, 0
3, 48720, Note_on_c, 0, 67, 0
3, 48720, Control_c, 0, 64, 0
3, 48736, Note_on_c, 0, 96, 0
3, 48736, Note_on_c, 0, 56, 0
3, 48760, Note_on_c, 0, 62, 0
3, 48800, Note_on_c, 0, 67, 66
3, 48800, Note_on_c, 0, 56, 67
3, 48808, Note_on_c, 0, 62, 57
3, 48816, Note_on_c, 0, 94, 67
3, 48816, Note_on_c, 0, 82, 70
3, 48856, Control_c, 0, 64, 127
3, 48920, Note_on_c, 0, 62, 0
3, 48936, Note_on_c, 0, 67, 0
3, 48960, Note_on_c, 0, 94, 0
3, 48992, Note_on_c, 0, 82, 0
3, 49016, Note_on_c, 0, 56, 0
3, 49048, Control_c, 0, 64, 0
3, 49064, Note_on_c, 0, 93, 80
3, 49064, Note_on_c, 0, 81, 74
3, 49064, Note_on_c, 0, 88, 71
3, 49064, Note_on_c, 0, 55, 85
3, 49072, Note_on_c, 0, 61, 71
3, 49072, Note_on_c, 0, 65, 69
3, 49072, Note_on_c, 0, 67, 64
3, 49104, Note_on_c, 0, 67, 0
3, 49192, Control_c, 0, 64, 127
3, 49216, Note_on_c, 0, 93, 0
3, 49248, Note_on_c, 0, 88, 0
3, 49248, Note_on_c, 0, 65, 0
3, 49256, Note_on_c, 0, 81, 0
3, 49264, Note_on_c, 0, 55, 0
3, 49288, Note_on_c, 0, 61, 0
3, 49416, Control_c, 0, 64, 0
3, 49424, Note_on_c, 0, 92, 83
3, 49424, Note_on_c, 0, 80, 83
3, 49432, Note_on_c, 0, 87, 81
3, 49432, Note_on_c, 0, 60, 83
3, 49432, Note_on_c, 0, 65, 89
3, 49440, Note_on_c, 0, 54, 79
3, 49456, Note_on_c, 0, 58, 40
3, 49488, Note_on_c, 0, 58, 0
3, 49616, Control_c, 0, 64, 127
3, 49824, Note_on_c, 0, 65, 0
3, 49832, Note_on_c, 0, 60, 0
3, 49872, Note_on_c, 0, 80, 0
3, 49872, Note_on_c, 0, 92, 0
3, 49888, Note_on_c, 0, 54, 0
3, 49888, Note_on_c, 0, 87, 0
3, 49896, Control_c, 0, 64, 0
3, 49936, Note_on_c, 0, 64, 67
3, 49944, Note_on_c, 0, 53, 58
3, 49944, Note_on_c, 0, 59, 60
3, 49952, Note_on_c, 0, 91, 61
3, 49952, Note_on_c, 0, 79, 71
3, 49968, Note_on_c, 0, 86, 62
3, 49976, Note_on_c, 0, 89, 37
3, 50096, Note_on_c, 0, 89, 0
3, 50112, Note_on_c, 0, 91, 0
3, 50160, Note_on_c, 0, 79, 0
3, 50160, Note_on_c, 0, 53, 0
3, 50160, Note_on_c, 0, 86, 0
3, 50176, Note_on_c, 0, 64, 0
3, 50224, Note_on_c, 0, 59, 0
3, 50320, Note_on_c, 0, 59, 53
3, 50320, Note_on_c, 0, 63, 69
3, 50320, Note_on_c, 0, 90, 67
3, 50328, Note_on_c, 0, 85, 71
3, 50328, Note_on_c, 0, 78, 65
3, 50328, Control_c, 0, 64, 127
3, 50336, Note_on_c, 0, 53, 51
3, 50344, Note_on_c, 0, 56, 32
3, 50448, Note_on_c, 0, 53, 0
3, 50464, Note_on_c, 0, 59, 0
3, 50464, Note_on_c, 0, 56, 0
3, 50512, Note_on_c, 0, 85, 0
3, 50520, Note_on_c, 0, 63, 0
3, 50528, Note_on_c, 0, 78, 0
3, 50560, Note_on_c, 0, 90, 0
3, 50632, Control_c, 0, 64, 0
3, 50712, Note_on_c, 0, 55, 54
3, 50712, Note_on_c, 0, 91, 67
3, 50712, Note_on_c, 0, 64, 49
3, 50720, Note_on_c, 0, 79, 60
3, 50720, Note_on_c, 0, 84, 62
3, 50736, Note_on_c, 0, 55, 0
3, 50744, Control_c, 0, 64, 127
3, 50752, Note_on_c, 0, 64, 0
3, 50760, Note_on_c, 0, 84, 0
3, 50760, Note_on_c, 0, 79, 0
3, 50824, Note_on_c, 0, 91, 0
3, 50944, Control_c, 0, 64, 0
3, 50960, Note_on_c, 0, 57, 71
3, 50968, Note_on_c, 0, 95, 94
3, 50968, Note_on_c, 0, 83, 91
3, 50976, Note_on_c, 0, 63, 76
3, 50976, Note_on_c, 0, 68, 83
3, 50992, Note_on_c, 0, 88, 56
3, 51024, Note_on_c, 0, 88, 0
3, 51096, Control_c, 0, 64, 127
3, 51240, Note_on_c, 0, 95, 0
3, 51248, Note_on_c, 0, 57, 0
3, 51264, Note_on_c, 0, 83, 0
3, 51296, Note_on_c, 0, 68, 0
3, 51320, Note_on_c, 0, 63, 0
3, 51336, Control_c, 0, 64, 0
3, 51336, Note_on_c, 0, 67, 80
3, 51336, Note_on_c, 0, 94, 81
3, 51336, Note_on_c, 0, 62, 79
3, 51336, Note_on_c, 0, 89, 84
3, 51336, Note_on_c, 0, 82, 78
3, 51352, Note_on_c, 0, 56, 72
3, 51488, Control_c, 0, 64, 127
3, 51608, Note_on_c, 0, 67, 0
3, 51616, Note_on_c, 0, 89, 0
3, 51632, Note_on_c, 0, 62, 0
3, 51640, Note_on_c, 0, 94, 0
3, 51656, Note_on_c, 0, 82, 0
3, 51664, Note_on_c, 0, 56, 0
3, 51720, Control_c, 0, 64, 0
3, 51728, Note_on_c, 0, 66, 90
3, 51736, Note_on_c, 0, 61, 74
3, 51736, Note_on_c, 0, 55, 84
3, 51736, Note_on_c, 0, 93, 87
3, 51744, Note_on_c, 0, 88, 83
3, 51752, Note_on_c, 0, 81, 71
3, 51880, Control_c, 0, 64, 127
3, 51920, Note_on_c, 0, 93, 0
3, 51952, Note_on_c, 0, 55, 0
3, 51952, Note_on_c, 0, 81, 0
3, 51968, Note_on_c, 0, 88, 0
3, 52000, Note_on_c, 0, 66, 0
3, 52032, Note_on_c, 0, 61, 0
3, 52096, Control_c, 0, 64, 0
3, 52104, Note_on_c, 0, 92, 85
3, 52104, Note_on_c, 0, 65, 88
3, 52104, Note_on_c, 0, 60, 81
3, 52104, Note_on_c, 0, 80, 88
3, 52104, Note_on_c, 0, 87, 88
3, 52112, Note_on_c, 0, 54, 80
3, 52200, Note_on_c, 0, 65, 0
3, 52232, Note_on_c, 0, 60, 0
3, 52248, Control_c, 0, 64, 127
3, 52280, Note_on_c, 0, 54, 0
3, 52320, Note_on_c, 0, 87, 0
3, 52328, Note_on_c, 0, 92, 0
3, 52336, Note_on_c, 0, 80, 0
3, 52448, Control_c, 0, 64, 0
3, 52480, Note_on_c, 0, 87, 82
3, 52480, Note_on_c, 0, 91, 88
3, 52480, Note_on_c, 0, 79, 90
3, 52480, Note_on_c, 0, 55, 110
3, 52504, Note_on_c, 0, 49, 59
3, 52504, Note_on_c, 0, 89, 40
3, 52528, Note_on_c, 0, 49, 0
3, 52536, Note_on_c, 0, 89, 0
3, 52624, Note_on_c, 0, 91, 0
3, 52632, Note_on_c, 0, 87, 0
3, 52632, Note_on_c, 0, 88, 63
3, 52656, Note_on_c, 0, 88, 0
3, 52680, Note_on_c, 0, 79, 0
3, 52784, Control_c, 0, 64, 127
3, 52824, Note_on_c, 0, 43, 99
3, 52832, Control_c, 0, 64, 0
3, 52840, Note_on_c, 0, 44, 64
3, 52872, Note_on_c, 0, 44, 0
3, 52896, Note_on_c, 0, 55, 0
3, 52976, Note_on_c, 0, 67, 79
3, 52992, Note_on_c, 0, 63, 60
3, 53112, Note_on_c, 0, 63, 0
3, 53120, Note_on_c, 0, 64, 58
3, 53152, Note_on_c, 0, 67, 0
3, 53184, Note_on_c, 0, 64, 0
3, 53232, Note_on_c, 0, 55, 58
3, 53248, Note_on_c, 0, 69, 94
3, 53248, Note_on_c, 0, 65, 95
3, 53264, Note_on_c, 0, 55, 0
3, 53328, Note_on_c, 0, 65, 0
3, 53328, Note_on_c, 0, 69, 0
3, 53400, Note_on_c, 0, 67, 58
3, 53408, Note_on_c, 0, 63, 65
3, 53504, Note_on_c, 0, 67, 0
3, 53512, Note_on_c, 0, 63, 0
3, 53560, Note_on_c, 0, 67, 32
3, 53560, Note_on_c, 0, 64, 71
3, 53584, Note_on_c, 0, 65, 53
3, 53600, Note_on_c, 0, 67, 0
3, 53608, Note_on_c, 0, 65, 0
3, 53632, Note_on_c, 0, 64, 0
3, 53656, Note_on_c, 0, 50, 38
3, 53680, Note_on_c, 0, 69, 94
3, 53680, Note_on_c, 0, 65, 92
3, 53688, Note_on_c, 0, 50, 0
3, 53712, Note_on_c, 0, 67, 28
3, 53744, Note_on_c, 0, 67, 0
3, 53744, Note_on_c, 0, 65, 0
3, 53744, Note_on_c, 0, 69, 0
3, 53760, Note_on_c, 0, 43, 48
3, 53766, Note_on_c, 0, 52, 39
3, 53784, Control_c, 0, 64, 0
3, 53968, Note_on_c, 0, 43, 0
3, 54794, Note_on_c, 0, 55, 67
3, 54862, Note_on_c, 0, 55, 0
3, 54952, Note_on_c, 0, 57, 46
3, 55022, Note_on_c, 0, 57, 0
3, 55196, Note_on_c, 0, 60, 74
3, 55246, Note_on_c, 0, 60, 0
3, 55396, Note_on_c, 0, 63, 70
3, 55480, Note_on_c, 0, 63, 0
3, 55598, Note_on_c, 0, 64, 87
3, 55668, Note_on_c, 0, 64, 0
3, 55754, Note_on_c, 0, 65, 80
3, 55858, Note_on_c, 0, 65, 0
3, 55958, Note_on_c, 0, 63, 72
3, 56046, Note_on_c, 0, 63, 0
3, 56096, Note_on_c, 0, 64, 71
3, 56114, Note_on_c, 0, 52, 0
3, 56194, Note_on_c, 0, 43, 0
3, 56240, Note_on_c, 0, 64, 0
3, 56318, Note_on_c, 0, 60, 68
3, 56394, Note_on_c, 0, 60, 0
3, 56464, Note_on_c, 0, 55, 37
3, 56642, Note_on_c, 0, 55, 0
3, 56678, Note_on_c, 0, 53, 57
3, 56704, Note_on_c, 0, 43, 31
3, 56740, Note_on_c, 0, 43, 0
3, 56782, Note_on_c, 0, 53, 0
3, 56824, Note_on_c, 0, 52, 46
3, 57094, Note_on_c, 0, 36, 44
3, 57134, Note_on_c, 0, 36, 0
3, 57474, Note_on_c, 0, 50, 31
3, 57500, Note_on_c, 0, 50, 0
3, 57500, Note_on_c, 0, 52, 0
3, 57572, Note_on_c, 0, 64, 76
3, 57782, Note_on_c, 0, 64, 0
3, 57834, Note_on_c, 0, 60, 60
3, 57854, Note_on_c, 0, 50, 38
3, 57890, Note_on_c, 0, 50, 0
3, 57924, Note_on_c, 0, 60, 0
3, 57982, Note_on_c, 0, 57, 34
3, 58186, Note_on_c, 0, 57, 0
3, 58228, Note_on_c, 0, 55, 60
3, 58332, Note_on_c, 0, 55, 0
3, 58414, Note_on_c, 0, 52, 44
3, 58604, Note_on_c, 0, 52, 0
3, 58614, Note_on_c, 0, 40, 60
3, 58678, Note_on_c, 0, 40, 0
3, 59104, Note_on_c, 0, 65, 41
3, 59110, Note_on_c, 0, 58, 45
3, 59112, Note_on_c, 0, 61, 43
3, 59120, Note_on_c, 0, 55, 29
3, 59160, Note_on_c, 0, 65, 0
3, 59178, Note_on_c, 0, 55, 0
3, 59194, Note_on_c, 0, 61, 0
3, 59208, Note_on_c, 0, 58, 0
3, 59498, Note_on_c, 0, 77, 91
3, 59744, Note_on_c, 0, 77, 0
3, 59772, Note_on_c, 0, 76, 82
3, 59778, Note_on_c, 0, 53, 55
3, 59780, Note_on_c, 0, 60, 63
3, 59782, Note_on_c, 0, 57, 51
3, 59804, Note_on_c, 0, 60, 0
3, 59812, Note_on_c, 0, 57, 0
3, 59862, Note_on_c, 0, 53, 0
3, 60028, Note_on_c, 0, 72, 43
3, 60074, Note_on_c, 0, 76, 0
3, 60104, Note_on_c, 0, 72, 0
3, 60160, Note_on_c, 0, 69, 36
3, 60234, Note_on_c, 0, 69, 0
3, 60274, Note_on_c, 0, 65, 50
3, 60542, Note_on_c, 0, 64, 51
3, 60548, Note_on_c, 0, 65, 0
3, 60942, Note_on_c, 0, 53, 45
3, 60944, Note_on_c, 0, 57, 48
3, 60944, Note_on_c, 0, 60, 49
3, 60970, Note_on_c, 0, 60, 0
3, 60970, Note_on_c, 0, 57, 0
3, 60996, Note_on_c, 0, 53, 0
3, 61364, Note_on_c, 0, 64, 0
3, 61434, Note_on_c, 0, 64, 51
3, 61438, Note_on_c, 0, 53, 38
3, 61442, Note_on_c, 0, 59, 54
3, 61844, Note_on_c, 0, 72, 91
3, 61978, Note_on_c, 0, 72, 0
3, 62018, Note_on_c, 0, 74, 44
3, 62084, Note_on_c, 0, 72, 29
3, 62114, Note_on_c, 0, 64, 0
3, 62116, Note_on_c, 0, 74, 0
3, 62160, Note_on_c, 0, 53, 0
3, 62170, Note_on_c, 0, 72, 0
3, 62172, Note_on_c, 0, 71, 51
3, 62224, Note_on_c, 0, 59, 0
3, 62248, Note_on_c, 0, 71, 0
3, 62280, Note_on_c, 0, 72, 73
3, 62492, Note_on_c, 0, 63, 51
3, 62500, Note_on_c, 0, 59, 58
3, 62504, Note_on_c, 0, 53, 40
3, 62526, Note_on_c, 0, 59, 0
3, 62532, Note_on_c, 0, 63, 0
3, 62536, Note_on_c, 0, 53, 0
3, 62744, Note_on_c, 0, 72, 0
3, 62754, Note_on_c, 0, 74, 56
3, 62828, Note_on_c, 0, 72, 24
3, 62842, Note_on_c, 0, 74, 0
3, 62904, Note_on_c, 0, 72, 0
3, 62908, Note_on_c, 0, 71, 56
3, 62968, Note_on_c, 0, 71, 0
3, 63004, Note_on_c, 0, 72, 76
3, 63222, Note_on_c, 0, 72, 0
3, 63242, Note_on_c, 0, 74, 53
3, 63276, Note_on_c, 0, 72, 44
3, 63286, Note_on_c, 0, 58, 34
3, 63316, Note_on_c, 0, 74, 0
3, 63322, Note_on_c, 0, 58, 0
3, 63362, Note_on_c, 0, 71, 63
3, 63372, Note_on_c, 0, 72, 0
3, 63624, Note_on_c, 0, 71, 0
3, 63630, Note_on_c, 0, 72, 62
3, 63732, Note_on_c, 0, 72, 0
3, 63890, Note_on_c, 0, 74, 64
3, 64014, Note_on_c, 0, 63, 27
3, 64028, Note_on_c, 0, 62, 33
3, 64046, Note_on_c, 0, 63, 0
3, 64070, Note_on_c, 0, 62, 0
3, 64074, Note_on_c, 0, 74, 0
3, 64116, Note_on_c, 0, 67, 57
3, 64324, Note_on_c, 0, 67, 0
3, 64388, Note_on_c, 0, 67, 58
3, 64438, Note_on_c, 0, 67, 0
3, 64780, Note_on_c, 0, 62, 58
3, 64788, Note_on_c, 0, 55, 54
3, 64792, Note_on_c, 0, 59, 36
3, 64808, Note_on_c, 0, 62, 0
3, 64824, Note_on_c, 0, 59, 0
3, 64850, Note_on_c, 0, 55, 0
3, 64898, Note_on_c, 0, 72, 35
3, 64940, Note_on_c, 0, 72, 0
3, 65166, Note_on_c, 0, 58, 54
3, 65170, Note_on_c, 0, 61, 46
3, 65194, Note_on_c, 0, 61, 0
3, 65194, Note_on_c, 0, 58, 0
3, 65256, Note_on_c, 0, 90, 74
3, 65260, Note_on_c, 0, 78, 71
3, 65266, Note_on_c, 0, 61, 67
3, 65268, Note_on_c, 0, 55, 80
3, 65268, Note_on_c, 0, 65, 80
3, 65272, Note_on_c, 0, 58, 62
3, 65336, Note_on_c, 0, 91, 35
3, 65376, Note_on_c, 0, 79, 34
3, 65398, Note_on_c, 0, 78, 0
3, 65404, Note_on_c, 0, 90, 0
3, 65538, Note_on_c, 0, 91, 0
3, 65546, Note_on_c, 0, 79, 0
3, 65560, Note_on_c, 0, 55, 0
3, 65568, Note_on_c, 0, 65, 0
3, 65590, Note_on_c, 0, 58, 0
3, 65590, Note_on_c, 0, 61, 0
3, 65642, Note_on_c, 0, 78, 59
3, 65644, Note_on_c, 0, 90, 60
3, 65646, Note_on_c, 0, 61, 54
3, 65650, Note_on_c, 0, 55, 55
3, 65652, Note_on_c, 0, 65, 58
3, 65656, Note_on_c, 0, 58, 56
3, 65760, Note_on_c, 0, 91, 1
3, 65780, Note_on_c, 0, 79, 25
3, 65788, Note_on_c, 0, 78, 0
3, 65828, Note_on_c, 0, 90, 0
3, 65840, Note_on_c, 0, 55, 0
3, 65840, Note_on_c, 0, 65, 0
3, 65884, Note_on_c, 0, 91, 0
3, 65890, Note_on_c, 0, 58, 0
3, 65908, Note_on_c, 0, 79, 0
3, 65968, Note_on_c, 0, 61, 0
3, 66046, Note_on_c, 0, 60, 53
3, 66050, Note_on_c, 0, 58, 48
3, 66052, Note_on_c, 0, 63, 35
3, 66060, Note_on_c, 0, 53, 32
3, 66592, Note_on_c, 0, 60, 0
3, 66708, Note_on_c, 0, 60, 30
3, 66748, Note_on_c, 0, 63, 0
3, 66818, Note_on_c, 0, 94, 85
3, 66840, Note_on_c, 0, 92, 45
3, 66864, Note_on_c, 0, 92, 0
3, 66894, Note_on_c, 0, 94, 0
3, 67006, Note_on_c, 0, 60, 0
3, 67014, Note_on_c, 0, 94, 85
3, 67020, Note_on_c, 0, 58, 0
3, 67086, Note_on_c, 0, 94, 0
3, 67116, Note_on_c, 0, 60, 31
3, 67134, Note_on_c, 0, 58, 25
3, 67202, Note_on_c, 0, 94, 81
3, 67272, Note_on_c, 0, 60, 0
3, 67280, Note_on_c, 0, 58, 0
3, 67332, Note_on_c, 0, 93, 64
3, 67338, Note_on_c, 0, 53, 0
3, 67358, Note_on_c, 0, 94, 0
3, 67380, Note_on_c, 0, 92, 49
3, 67406, Note_on_c, 0, 93, 0
3, 67470, Note_on_c, 0, 91, 54
3, 67474, Note_on_c, 0, 92, 0
3, 67538, Note_on_c, 0, 91, 0
3, 67586, Note_on_c, 0, 64, 30
3, 67592, Note_on_c, 0, 59, 36
3, 67602, Note_on_c, 0, 53, 17
3, 67602, Note_on_c, 0, 89, 62
3, 67638, Note_on_c, 0, 64, 0
3, 67664, Note_on_c, 0, 59, 0
3, 67678, Note_on_c, 0, 89, 0
3, 67698, Note_on_c, 0, 53, 0
3, 67762, Note_on_c, 0, 87, 69
3, 67860, Note_on_c, 0, 87, 0
3, 67918, Note_on_c, 0, 86, 74
3, 68000, Note_on_c, 0, 86, 0
3, 68062, Note_on_c, 0, 89, 62
3, 68136, Note_on_c, 0, 89, 0
3, 68264, Note_on_c, 0, 87, 69
3, 68354, Note_on_c, 0, 87, 0
3, 68446, Note_on_c, 0, 81, 29
3, 68558, Note_on_c, 0, 81, 0
3, 68640, Note_on_c, 0, 82, 62
3, 68640, Note_on_c, 0, 59, 52
3, 68642, Note_on_c, 0, 62, 43
3, 68656, Note_on_c, 0, 53, 29
3, 68688, Note_on_c, 0, 62, 0
3, 68708, Note_on_c, 0, 59, 0
3, 68742, Note_on_c, 0, 82, 0
3, 68764, Note_on_c, 0, 53, 0
3, 68806, Note_on_c, 0, 80, 51
3, 68934, Note_on_c, 0, 80, 0
3, 69020, Note_on_c, 0, 79, 66
3, 69020, Note_on_c, 0, 51, 56
3, 69046, Note_on_c, 0, 62, 22
3, 69048, Note_on_c, 0, 57, 36
3, 69084, Note_on_c, 0, 79, 0
3, 69090, Note_on_c, 0, 62, 0
3, 69112, Note_on_c, 0, 57, 0
3, 69138, Note_on_c, 0, 51, 0
3, 69164, Note_on_c, 0, 77, 71
3, 69422, Note_on_c, 0, 77, 0
3, 69422, Note_on_c, 0, 51, 29
3, 69436, Note_on_c, 0, 62, 24
3, 69440, Note_on_c, 0, 74, 38
3, 69456, Note_on_c, 0, 57, 28
3, 69464, Note_on_c, 0, 62, 0
3, 69464, Note_on_c, 0, 51, 0
3, 69474, Note_on_c, 0, 74, 0
3, 69500, Note_on_c, 0, 57, 0
3, 69550, Note_on_c, 0, 75, 76
3, 69590, Note_on_c, 0, 74, 36
3, 69628, Note_on_c, 0, 75, 0
3, 69638, Note_on_c, 0, 74, 0
3, 69894, Note_on_c, 0, 77, 68
3, 69910, Note_on_c, 0, 86, 63
3, 69912, Note_on_c, 0, 84, 64
3, 69960, Note_on_c, 0, 86, 0
3, 70076, Note_on_c, 0, 84, 0
3, 70124, Note_on_c, 0, 77, 0
3, 70164, Note_on_c, 0, 75, 46
3, 70224, Note_on_c, 0, 75, 0
3, 70272, Note_on_c, 0, 77, 71
3, 70282, Note_on_c, 0, 84, 75
3, 70428, Note_on_c, 0, 84, 0
3, 70434, Note_on_c, 0, 77, 0
3, 70554, Note_on_c, 0, 77, 83
3, 70560, Note_on_c, 0, 84, 80
3, 70564, Note_on_c, 0, 61, 37
3, 70566, Note_on_c, 0, 60, 51
3, 70566, Note_on_c, 0, 65, 58
3, 70572, Note_on_c, 0, 56, 35
3, 70806, Note_on_c, 0, 77, 0
3, 70812, Note_on_c, 0, 82, 46
3, 70816, Note_on_c, 0, 84, 0
3, 70840, Note_on_c, 0, 61, 0
3, 70910, Note_on_c, 0, 61, 32
3, 70914, Note_on_c, 0, 77, 40
3, 71006, Note_on_c, 0, 73, 38
3, 71014, Note_on_c, 0, 77, 0
3, 71022, Note_on_c, 0, 82, 0
3, 71050, Note_on_c, 0, 73, 0
3, 71096, Note_on_c, 0, 65, 0
3, 71112, Note_on_c, 0, 77, 66
3, 71120, Note_on_c, 0, 60, 0
3, 71124, Note_on_c, 0, 84, 67
3, 71240, Note_on_c, 0, 84, 0
3, 71244, Note_on_c, 0, 77, 0
3, 71262, Note_on_c, 0, 61, 0
3, 71292, Note_on_c, 0, 56, 0
3, 71354, Note_on_c, 0, 61, 48
3, 71356, Note_on_c, 0, 55, 65
3, 71362, Note_on_c, 0, 65, 54
3, 71880, Note_on_c, 0, 65, 0
3, 71900, Note_on_c, 0, 55, 0
3, 72018, Note_on_c, 0, 61, 0
3, 72068, Note_on_c, 0, 60, 71
3, 72070, Note_on_c, 0, 63, 70
3, 72074, Note_on_c, 0, 58, 53
3, 72078, Note_on_c, 0, 53, 59
3, 72534, Note_on_c, 0, 63, 0
3, 72552, Note_on_c, 0, 84, 84
3, 72554, Note_on_c, 0, 72, 81
3, 72568, Note_on_c, 0, 60, 0
3, 72654, Note_on_c, 0, 58, 0
3, 72694, Note_on_c, 0, 84, 0
3, 72712, Note_on_c, 0, 53, 0
3, 72720, Note_on_c, 0, 72, 0
3, 72808, Control_c, 0, 64, 127
3, 72834, Note_on_c, 0, 73, 69
3, 72836, Note_on_c, 0, 85, 86
3, 72838, Note_on_c, 0, 53, 70
3, 72838, Note_on_c, 0, 63, 71
3, 72844, Control_c, 0, 64, 0
3, 72844, Note_on_c, 0, 58, 62
3, 72934, Note_on_c, 0, 73, 0
3, 72946, Note_on_c, 0, 85, 0
3, 72956, Note_on_c, 0, 63, 0
3, 72956, Note_on_c, 0, 53, 0
3, 72992, Note_on_c, 0, 58, 0
3, 72992, Control_c, 0, 64, 127
3, 73008, Note_on_c, 0, 63, 50
3, 73016, Note_on_c, 0, 58, 21
3, 73018, Note_on_c, 0, 53, 50
3, 73020, Note_on_c, 0, 75, 62
3, 73020, Note_on_c, 0, 87, 77
3, 73124, Note_on_c, 0, 87, 0
3, 73142, Note_on_c, 0, 53, 0
3, 73152, Note_on_c, 0, 75, 0
3, 73160, Note_on_c, 0, 63, 0
3, 73186, Note_on_c, 0, 58, 0
3, 73224, Note_on_c, 0, 85, 56
3, 73226, Note_on_c, 0, 63, 49
3, 73228, Note_on_c, 0, 73, 39
3, 73238, Note_on_c, 0, 53, 44
3, 73244, Note_on_c, 0, 58, 36
3, 73298, Note_on_c, 0, 85, 0
3, 73300, Note_on_c, 0, 63, 0
3, 73302, Control_c, 0, 64, 0
3, 73306, Note_on_c, 0, 53, 0
3, 73314, Note_on_c, 0, 73, 0
3, 73372, Note_on_c, 0, 63, 46
3, 73374, Note_on_c, 0, 53, 30
3, 73384, Note_on_c, 0, 84, 41
3, 73392, Note_on_c, 0, 72, 38
3, 73438, Note_on_c, 0, 84, 0
3, 73462, Note_on_c, 0, 72, 0
3, 73472, Note_on_c, 0, 63, 0
3, 73492, Control_c, 0, 64, 127
3, 73510, Note_on_c, 0, 53, 0
3, 73530, Note_on_c, 0, 58, 0
3, 73596, Note_on_c, 0, 63, 49
3, 73606, Note_on_c, 0, 82, 55
3, 73616, Note_on_c, 0, 70, 53
3, 73618, Note_on_c, 0, 58, 31
3, 73670, Note_on_c, 0, 63, 0
3, 73680, Note_on_c, 0, 58, 0
3, 73690, Note_on_c, 0, 70, 0
3, 73690, Note_on_c, 0, 82, 0
3, 73726, Control_c, 0, 64, 0
3, 73760, Note_on_c, 0, 65, 49
3, 73766, Note_on_c, 0, 82, 34
3, 73768, Note_on_c, 0, 70, 52
3, 73772, Note_on_c, 0, 60, 46
3, 73778, Note_on_c, 0, 55, 54
3, 73884, Note_on_c, 0, 83, 36
3, 73886, Note_on_c, 0, 70, 0
3, 73886, Note_on_c, 0, 82, 0
3, 73886, Note_on_c, 0, 71, 62
3, 74002, Note_on_c, 0, 60, 0
3, 74002, Note_on_c, 0, 83, 0
3, 74008, Control_c, 0, 64, 127
3, 74028, Note_on_c, 0, 71, 0
3, 74046, Note_on_c, 0, 65, 0
3, 74050, Control_c, 0, 64, 0
3, 74056, Note_on_c, 0, 55, 0
3, 74134, Note_on_c, 0, 55, 59
3, 74138, Note_on_c, 0, 65, 46
3, 74138, Note_on_c, 0, 80, 57
3, 74142, Note_on_c, 0, 68, 54
3, 74154, Note_on_c, 0, 60, 48
3, 74228, Control_c, 0, 64, 127
3, 74340, Note_on_c, 0, 60, 0
3, 74348, Note_on_c, 0, 65, 0
3, 74370, Note_on_c, 0, 55, 0
3, 74406, Note_on_c, 0, 80, 0
3, 74434, Note_on_c, 0, 68, 0
3, 74482, Control_c, 0, 64, 0
3, 74492, Note_on_c, 0, 64, 45
3, 74494, Note_on_c, 0, 53, 46
3, 74500, Note_on_c, 0, 79, 56
3, 74500, Note_on_c, 0, 67, 53
3, 74524, Note_on_c, 0, 59, 19
3, 74600, Control_c, 0, 64, 127
3, 74650, Note_on_c, 0, 79, 0
3, 74652, Note_on_c, 0, 53, 0
3, 74660, Note_on_c, 0, 64, 0
3, 74710, Note_on_c, 0, 59, 0
3, 74712, Note_on_c, 0, 67, 0
3, 74756, Note_on_c, 0, 77, 57
3, 74780, Note_on_c, 0, 59, 67
3, 74782, Note_on_c, 0, 53, 64
3, 74784, Note_on_c, 0, 63, 50
3, 74820, Control_c, 0, 64, 0
3, 74850, Note_on_c, 0, 77, 0
3, 74864, Note_on_c, 0, 63, 0
3, 74898, Note_on_c, 0, 59, 0
3, 74904, Note_on_c, 0, 53, 0
3, 74934, Note_on_c, 0, 75, 42
3, 75132, Note_on_c, 0, 75, 0
3, 75174, Note_on_c, 0, 71, 26
3, 75228, Note_on_c, 0, 71, 0
3, 75248, Note_on_c, 0, 55, 36
3, 75258, Note_on_c, 0, 48, 36
3, 75292, Note_on_c, 0, 75, 68
3, 75516, Note_on_c, 0, 75, 0
3, 75578, Note_on_c, 0, 71, 24
3, 75600, Note_on_c, 0, 60, 24
3, 75632, Note_on_c, 0, 60, 0
3, 75638, Note_on_c, 0, 71, 0
3, 75664, Note_on_c, 0, 55, 0
3, 75668, Note_on_c, 0, 74, 68
3, 75726, Note_on_c, 0, 48, 0
3, 75890, Note_on_c, 0, 74, 0
3, 75930, Note_on_c, 0, 72, 34
3, 76026, Note_on_c, 0, 72, 0
3, 76030, Note_on_c, 0, 46, 32
3, 76056, Note_on_c, 0, 55, 24
3, 76068, Note_on_c, 0, 67, 36
3, 76300, Note_on_c, 0, 67, 0
3, 76436, Note_on_c, 0, 67, 44
3, 76636, Note_on_c, 0, 55, 0
3, 76694, Note_on_c, 0, 51, 36
3, 76742, Note_on_c, 0, 46, 0
3, 76750, Note_on_c, 0, 67, 0
3, 76780, Note_on_c, 0, 51, 0
3, 76812, Note_on_c, 0, 55, 55
3, 76820, Note_on_c, 0, 75, 70
3, 76858, Note_on_c, 0, 55, 0
3, 77090, Note_on_c, 0, 67, 40
3, 77106, Note_on_c, 0, 75, 0
3, 77120, Note_on_c, 0, 67, 0
3, 77216, Note_on_c, 0, 74, 70
3, 77232, Note_on_c, 0, 81, 46
3, 77354, Note_on_c, 0, 74, 0
3, 77398, Note_on_c, 0, 75, 43
3, 77402, Note_on_c, 0, 81, 0
3, 77456, Note_on_c, 0, 74, 68
3, 77522, Note_on_c, 0, 75, 0
3, 77530, Note_on_c, 0, 74, 0
3, 77530, Note_on_c, 0, 55, 20
3, 77542, Note_on_c, 0, 72, 33
3, 77564, Note_on_c, 0, 55, 0
3, 77606, Note_on_c, 0, 72, 0
3, 77630, Note_on_c, 0, 71, 65
3, 77752, Note_on_c, 0, 71, 0
3, 77778, Note_on_c, 0, 74, 76
3, 77862, Note_on_c, 0, 74, 0
3, 77902, Note_on_c, 0, 72, 50
3, 77908, Note_on_c, 0, 63, 34
3, 77926, Note_on_c, 0, 55, 40
3, 77968, Note_on_c, 0, 63, 0
3, 77984, Note_on_c, 0, 72, 0
3, 78040, Note_on_c, 0, 67, 43
3, 78050, Note_on_c, 0, 55, 0
3, 78132, Note_on_c, 0, 67, 0
3, 78246, Note_on_c, 0, 63, 57
3, 78360, Note_on_c, 0, 63, 0
3, 78400, Note_on_c, 0, 60, 30
3, 78610, Note_on_c, 0, 44, 58
3, 78618, Note_on_c, 0, 54, 32
3, 78640, Note_on_c, 0, 54, 0
3, 78680, Note_on_c, 0, 44, 0
3, 78980, Note_on_c, 0, 44, 51
3, 79032, Note_on_c, 0, 44, 0
3, 79270, Note_on_c, 0, 60, 0
3, 79276, Note_on_c, 0, 62, 62
3, 79360, Note_on_c, 0, 62, 0
3, 79390, Note_on_c, 0, 63, 52
3, 79480, Note_on_c, 0, 63, 0
3, 79524, Note_on_c, 0, 65, 54
3, 79592, Note_on_c, 0, 65, 0
3, 79640, Note_on_c, 0, 66, 51
3, 79726, Note_on_c, 0, 66, 0
3, 79776, Note_on_c, 0, 68, 71
3, 79782, Note_on_c, 0, 54, 37
3, 79788, Note_on_c, 0, 60, 41
3, 79830, Note_on_c, 0, 60, 0
3, 79864, Note_on_c, 0, 68, 0
3, 79882, Note_on_c, 0, 54, 0
3, 80024, Note_on_c, 0, 70, 62
3, 80108, Note_on_c, 0, 70, 0
3, 80148, Note_on_c, 0, 71, 67
3, 80156, Note_on_c, 0, 64, 41
3, 80158, Note_on_c, 0, 59, 48
3, 80174, Note_on_c, 0, 53, 29
3, 80186, Note_on_c, 0, 64, 0
3, 80200, Note_on_c, 0, 59, 0
3, 80232, Note_on_c, 0, 71, 0
3, 80248, Note_on_c, 0, 53, 0
3, 80272, Note_on_c, 0, 73, 43
3, 80352, Note_on_c, 0, 73, 0
3, 80396, Note_on_c, 0, 74, 64
3, 80446, Note_on_c, 0, 43, 54
3, 80460, Note_on_c, 0, 74, 0
3, 80498, Note_on_c, 0, 43, 0
3, 80518, Note_on_c, 0, 75, 56
3, 80596, Note_on_c, 0, 75, 0
3, 80654, Note_on_c, 0, 76, 50
3, 80706, Note_on_c, 0, 76, 0
3, 80770, Note_on_c, 0, 77, 67
3, 80850, Note_on_c, 0, 77, 0
3, 80896, Note_on_c, 0, 78, 70
3, 80898, Note_on_c, 0, 64, 68
3, 80904, Note_on_c, 0, 59, 64
3, 80906, Note_on_c, 0, 53, 59
3, 80986, Note_on_c, 0, 78, 0
3, 81026, Note_on_c, 0, 79, 53
3, 81088, Note_on_c, 0, 79, 0
3, 81108, Note_on_c, 0, 59, 0
3, 81120, Note_on_c, 0, 64, 0
3, 81150, Note_on_c, 0, 80, 52
3, 81180, Note_on_c, 0, 53, 0
3, 81214, Note_on_c, 0, 80, 0
3, 81274, Note_on_c, 0, 81, 71
3, 81344, Note_on_c, 0, 81, 0
3, 81392, Note_on_c, 0, 62, 36
3, 81402, Note_on_c, 0, 82, 54
3, 81408, Note_on_c, 0, 57, 35
3, 81430, Note_on_c, 0, 62, 0
3, 81440, Note_on_c, 0, 57, 0
3, 81468, Note_on_c, 0, 82, 0
3, 81528, Note_on_c, 0, 83, 61
3, 81582, Note_on_c, 0, 83, 0
3, 81636, Note_on_c, 0, 62, 70
3, 81638, Note_on_c, 0, 86, 94
3, 81638, Note_on_c, 0, 57, 66
3, 81646, Note_on_c, 0, 52, 47
3, 81728, Note_on_c, 0, 86, 0
3, 81776, Note_on_c, 0, 62, 0
3, 81780, Note_on_c, 0, 57, 0
3, 81782, Note_on_c, 0, 83, 50
3, 81816, Note_on_c, 0, 52, 0
3, 81848, Note_on_c, 0, 83, 0
3, 81896, Note_on_c, 0, 84, 80
3, 81968, Note_on_c, 0, 84, 0
3, 82026, Note_on_c, 0, 81, 63
3, 82112, Note_on_c, 0, 81, 0
3, 82164, Note_on_c, 0, 77, 52
3, 82170, Note_on_c, 0, 57, 49
3, 82216, Note_on_c, 0, 63, 19
3, 82360, Note_on_c, 0, 77, 0
3, 82362, Note_on_c, 0, 57, 0
3, 82378, Note_on_c, 0, 63, 0
3, 82440, Note_on_c, 0, 77, 73
3, 82516, Note_on_c, 0, 77, 0
3, 82530, Note_on_c, 0, 63, 27
3, 82534, Note_on_c, 0, 57, 27
3, 82588, Note_on_c, 0, 75, 57
3, 82592, Note_on_c, 0, 63, 0
3, 82596, Note_on_c, 0, 57, 0
3, 82768, Note_on_c, 0, 75, 0
3, 82826, Note_on_c, 0, 75, 59
3, 82928, Note_on_c, 0, 75, 0
3, 82946, Note_on_c, 0, 59, 36
3, 82946, Note_on_c, 0, 62, 34
3, 82954, Note_on_c, 0, 52, 20
3, 82956, Note_on_c, 0, 55, 44
3, 82970, Note_on_c, 0, 74, 50
3, 83082, Note_on_c, 0, 74, 0
3, 83138, Note_on_c, 0, 62, 0
3, 83140, Note_on_c, 0, 59, 0
3, 83166, Note_on_c, 0, 55, 0
3, 83220, Note_on_c, 0, 74, 58
3, 83262, Note_on_c, 0, 62, 24
3, 83264, Note_on_c, 0, 59, 24
3, 83286, Note_on_c, 0, 74, 0
3, 83348, Note_on_c, 0, 71, 51
3, 83382, Note_on_c, 0, 52, 0
3, 83412, Note_on_c, 0, 59, 0
3, 83506, Note_on_c, 0, 71, 0
3, 83580, Note_on_c, 0, 62, 0
3, 83598, Note_on_c, 0, 71, 48
3, 83682, Note_on_c, 0, 71, 0
3, 83718, Note_on_c, 0, 61, 36
3, 83732, Note_on_c, 0, 72, 57
3, 83734, Note_on_c, 0, 58, 32
3, 83746, Note_on_c, 0, 64, 18
3, 83746, Note_on_c, 0, 55, 26
3, 83904, Note_on_c, 0, 72, 0
3, 83930, Note_on_c, 0, 64, 0
3, 83956, Note_on_c, 0, 55, 0
3, 83958, Note_on_c, 0, 61, 0
3, 83976, Note_on_c, 0, 58, 0
3, 83982, Note_on_c, 0, 72, 40
3, 84090, Note_on_c, 0, 61, 35
3, 84102, Note_on_c, 0, 55, 30
3, 84108, Note_on_c, 0, 72, 0
3, 84108, Note_on_c, 0, 64, 31
3, 84114, Note_on_c, 0, 58, 29
3, 84116, Note_on_c, 0, 69, 55
3, 84162, Control_c, 0, 64, 127
3, 84172, Note_on_c, 0, 64, 0
3, 84192, Note_on_c, 0, 61, 0
3, 84198, Note_on_c, 0, 58, 0
3, 84200, Note_on_c, 0, 55, 0
3, 84312, Note_on_c, 0, 69, 0
3, 84394, Note_on_c, 0, 69, 43
3, 84466, Note_on_c, 0, 69, 0
3, 84472, Control_c, 0, 64, 0
3, 84502, Note_on_c, 0, 57, 32
3, 84510, Note_on_c, 0, 50, 24
3, 84516, Note_on_c, 0, 53, 29
3, 84516, Note_on_c, 0, 60, 20
3, 84718, Note_on_c, 0, 57, 0
3, 84732, Note_on_c, 0, 60, 0
3, 84768, Note_on_c, 0, 65, 50
3, 84816, Note_on_c, 0, 65, 0
3, 84880, Note_on_c, 0, 69, 82
3, 84902, Note_on_c, 0, 50, 0
3, 84912, Note_on_c, 0, 53, 0
3, 85056, Note_on_c, 0, 69, 0
3, 85100, Control_c, 0, 64, 127
3, 85138, Note_on_c, 0, 69, 82
3, 85174, Note_on_c, 0, 53, 41
3, 85214, Control_c, 0, 64, 0
3, 85222, Note_on_c, 0, 69, 0
3, 85298, Note_on_c, 0, 65, 47
3, 85462, Note_on_c, 0, 65, 0
3, 85482, Control_c, 0, 64, 127
3, 85528, Note_on_c, 0, 65, 62
3, 85546, Note_on_c, 0, 50, 38
3, 85600, Note_on_c, 0, 65, 0
3, 85614, Note_on_c, 0, 50, 0
3, 85618, Note_on_c, 0, 53, 0
3, 85622, Control_c, 0, 64, 0
3, 85712, Note_on_c, 0, 57, 19
3, 85816, Note_on_c, 0, 57, 0
3, 85876, Control_c, 0, 64, 127
3, 85904, Note_on_c, 0, 50, 38
3, 85914, Note_on_c, 0, 57, 54
3, 85972, Note_on_c, 0, 57, 0
3, 85974, Note_on_c, 0, 50, 0
3, 85998, Control_c, 0, 64, 0
3, 86036, Note_on_c, 0, 60, 59
3, 86036, Note_on_c, 0, 53, 45
3, 86070, Note_on_c, 0, 43, 26
3, 86150, Note_on_c, 0, 43, 0
3, 86220, Note_on_c, 0, 53, 0
3, 86222, Note_on_c, 0, 60, 0
3, 86288, Note_on_c, 0, 50, 33
3, 86292, Note_on_c, 0, 60, 60
3, 86366, Note_on_c, 0, 50, 0
3, 86382, Note_on_c, 0, 60, 0
3, 86420, Note_on_c, 0, 57, 48
3, 86624, Control_c, 0, 64, 127
3, 86634, Note_on_c, 0, 57, 0
3, 86654, Note_on_c, 0, 43, 49
3, 86730, Control_c, 0, 64, 0
3, 86736, Note_on_c, 0, 43, 0
3, 86782, Note_on_c, 0, 56, 57
3, 86786, Note_on_c, 0, 53, 58
3, 86786, Note_on_c, 0, 61, 48
3, 86798, Note_on_c, 0, 46, 39
3, 86934, Note_on_c, 0, 53, 0
3, 86992, Control_c, 0, 64, 127
3, 87002, Note_on_c, 0, 46, 0
3, 87032, Note_on_c, 0, 47, 60
3, 87040, Note_on_c, 0, 62, 52
3, 87054, Note_on_c, 0, 56, 0
3, 87064, Note_on_c, 0, 61, 0
3, 87090, Note_on_c, 0, 62, 0
3, 87132, Control_c, 0, 64, 0
3, 87142, Note_on_c, 0, 47, 0
3, 87150, Note_on_c, 0, 58, 76
3, 87156, Note_on_c, 0, 65, 81
3, 87158, Note_on_c, 0, 56, 69
3, 87164, Note_on_c, 0, 50, 69
3, 87174, Note_on_c, 0, 58, 0
3, 87186, Note_on_c, 0, 59, 47
3, 87362, Note_on_c, 0, 59, 0
3, 87366, Note_on_c, 0, 65, 0
3, 87388, Note_on_c, 0, 56, 0
3, 87388, Note_on_c, 0, 50, 0
3, 87408, Control_c, 0, 64, 127
3, 87436, Note_on_c, 0, 47, 53
3, 87458, Control_c, 0, 64, 0
3, 87518, Note_on_c, 0, 47, 0
3, 87564, Note_on_c, 0, 55, 45
3, 87564, Note_on_c, 0, 64, 54
3, 87572, Note_on_c, 0, 59, 42
3, 87578, Note_on_c, 0, 48, 38
3, 87650, Note_on_c, 0, 59, 0
3, 87690, Control_c, 0, 64, 127
3, 87698, Note_on_c, 0, 55, 0
3, 87744, Note_on_c, 0, 64, 0
3, 87796, Control_c, 0, 64, 0
3, 87808, Note_on_c, 0, 48, 0
3, 87812, Note_on_c, 0, 36, 60
3, 87814, Note_on_c, 0, 67, 53
3, 87816, Note_on_c, 0, 57, 54
3, 87822, Note_on_c, 0, 62, 57
3, 87844, Note_on_c, 0, 57, 0
3, 87876, Note_on_c, 0, 36, 0
3, 87888, Control_c, 0, 64, 127
3, 87896, Note_on_c, 0, 62, 0
3, 87922, Note_on_c, 0, 67, 0
3, 88108, Note_on_c, 0, 71, 70
3, 88170, Note_on_c, 0, 71, 0
3, 88224, Note_on_c, 0, 74, 85
3, 88296, Control_c, 0, 64, 0
3, 88314, Note_on_c, 0, 74, 0
3, 88340, Note_on_c, 0, 67, 50
3, 88344, Note_on_c, 0, 63, 33
3, 88348, Note_on_c, 0, 62, 50
3, 88350, Note_on_c, 0, 57, 44
3, 88376, Note_on_c, 0, 71, 39
3, 88570, Note_on_c, 0, 71, 0
3, 88612, Note_on_c, 0, 63, 0
3, 88670, Note_on_c, 0, 67, 0
3, 88682, Note_on_c, 0, 62, 0
3, 88710, Note_on_c, 0, 71, 60
3, 88738, Note_on_c, 0, 57, 0
3, 88774, Note_on_c, 0, 71, 0
3, 88792, Control_c, 0, 64, 127
3, 88826, Note_on_c, 0, 74, 55
3, 88902, Note_on_c, 0, 74, 0
3, 88924, Control_c, 0, 64, 0
3, 88944, Note_on_c, 0, 71, 79
3, 88956, Note_on_c, 0, 52, 42
3, 88960, Note_on_c, 0, 62, 58
3, 88962, Note_on_c, 0, 55, 54
3, 88962, Note_on_c, 0, 59, 48
3, 89116, Control_c, 0, 64, 127
3, 89168, Note_on_c, 0, 59, 0
3, 89184, Note_on_c, 0, 71, 0
3, 89242, Note_on_c, 0, 71, 61
3, 89274, Note_on_c, 0, 59, 22
3, 89328, Note_on_c, 0, 71, 0
3, 89366, Note_on_c, 0, 74, 78
3, 89406, Control_c, 0, 64, 0
3, 89468, Note_on_c, 0, 74, 0
3, 89488, Note_on_c, 0, 52, 0
3, 89504, Control_c, 0, 64, 127
3, 89504, Note_on_c, 0, 71, 69
3, 89508, Note_on_c, 0, 55, 0
3, 89514, Note_on_c, 0, 59, 0
3, 89522, Note_on_c, 0, 62, 0
3, 89668, Note_on_c, 0, 71, 0
3, 89728, Note_on_c, 0, 71, 66
3, 89748, Note_on_c, 0, 63, 65
3, 89758, Note_on_c, 0, 59, 66
3, 89758, Note_on_c, 0, 53, 66
3, 89772, Control_c, 0, 64, 0
3, 89830, Note_on_c, 0, 71, 0
3, 89856, Note_on_c, 0, 63, 0
3, 89858, Note_on_c, 0, 75, 61
3, 89970, Note_on_c, 0, 75, 0
3, 90000, Note_on_c, 0, 71, 68
3, 90016, Note_on_c, 0, 59, 0
3, 90040, Control_c, 0, 64, 127
3, 90054, Control_c, 0, 64, 0
3, 90108, Note_on_c, 0, 63, 39
3, 90124, Note_on_c, 0, 71, 0
3, 90128, Note_on_c, 0, 59, 45
3, 90152, Note_on_c, 0, 63, 0
3, 90210, Note_on_c, 0, 59, 0
3, 90244, Control_c, 0, 64, 127
3, 90246, Note_on_c, 0, 53, 0
3, 90248, Note_on_c, 0, 71, 71
3, 90356, Note_on_c, 0, 71, 0
3, 90432, Note_on_c, 0, 75, 48
3, 90458, Note_on_c, 0, 75, 0
3, 90534, Control_c, 0, 64, 0
3, 90564, Note_on_c, 0, 58, 55
3, 90566, Note_on_c, 0, 57, 55
3, 90566, Note_on_c, 0, 62, 62
3, 90806, Note_on_c, 0, 58, 0
3, 90884, Note_on_c, 0, 58, 44
3, 90994, Note_on_c, 0, 58, 0
3, 91002, Note_on_c, 0, 62, 0
3, 91106, Note_on_c, 0, 57, 0
3, 91146, Control_c, 0, 64, 127
3, 91272, Note_on_c, 0, 57, 44
3, 91272, Note_on_c, 0, 62, 60
3, 91278, Note_on_c, 0, 58, 54
3, 91304, Control_c, 0, 64, 0
3, 91522, Note_on_c, 0, 58, 0
3, 91548, Note_on_c, 0, 62, 0
3, 91606, Note_on_c, 0, 62, 41
3, 91632, Note_on_c, 0, 58, 38
3, 91708, Note_on_c, 0, 62, 0
3, 91758, Note_on_c, 0, 73, 60
3, 91816, Note_on_c, 0, 58, 0
3, 91846, Control_c, 0, 64, 127
3, 91848, Note_on_c, 0, 57, 0
3, 91850, Note_on_c, 0, 73, 0
3, 91886, Note_on_c, 0, 76, 68
3, 91984, Note_on_c, 0, 76, 0
3, 92026, Note_on_c, 0, 74, 79
3, 92048, Note_on_c, 0, 58, 43
3, 92050, Note_on_c, 0, 62, 63
3, 92068, Note_on_c, 0, 52, 56
3, 92072, Control_c, 0, 64, 0
3, 92270, Control_c, 0, 64, 127
3, 92294, Note_on_c, 0, 74, 0
3, 92314, Note_on_c, 0, 62, 0
3, 92400, Note_on_c, 0, 58, 0
3, 92440, Note_on_c, 0, 58, 25
3, 92466, Control_c, 0, 64, 0
3, 92480, Note_on_c, 0, 74, 42
3, 92508, Note_on_c, 0, 58, 0
3, 92512, Note_on_c, 0, 74, 0
3, 92564, Note_on_c, 0, 52, 0
3, 92692, Control_c, 0, 64, 127
3, 92802, Note_on_c, 0, 74, 101
3, 92808, Note_on_c, 0, 61, 63
3, 92814, Control_c, 0, 64, 0
3, 92816, Note_on_c, 0, 58, 55
3, 92820, Note_on_c, 0, 52, 45
3, 92866, Note_on_c, 0, 61, 0
3, 92900, Note_on_c, 0, 74, 0
3, 92950, Note_on_c, 0, 77, 64
3, 92976, Control_c, 0, 64, 127
3, 93044, Note_on_c, 0, 77, 0
3, 93058, Note_on_c, 0, 74, 48
3, 93122, Note_on_c, 0, 74, 0
3, 93140, Note_on_c, 0, 52, 0
3, 93172, Note_on_c, 0, 58, 0
3, 93180, Note_on_c, 0, 75, 73
3, 93222, Control_c, 0, 64, 0
3, 93224, Note_on_c, 0, 52, 34
3, 93226, Note_on_c, 0, 61, 36
3, 93230, Note_on_c, 0, 58, 23
3, 93268, Note_on_c, 0, 75, 0
3, 93310, Note_on_c, 0, 76, 38
3, 93360, Note_on_c, 0, 52, 0
3, 93364, Control_c, 0, 64, 127
3, 93368, Note_on_c, 0, 61, 0
3, 93382, Note_on_c, 0, 76, 0
3, 93394, Note_on_c, 0, 58, 0
3, 93418, Note_on_c, 0, 77, 57
3, 93506, Note_on_c, 0, 77, 0
3, 93536, Note_on_c, 0, 78, 64
3, 93610, Note_on_c, 0, 78, 0
3, 93640, Note_on_c, 0, 79, 40
3, 93646, Control_c, 0, 64, 0
3, 93672, Note_on_c, 0, 57, 44
3, 93676, Note_on_c, 0, 64, 28
3, 93686, Note_on_c, 0, 60, 34
3, 93702, Note_on_c, 0, 53, 24
3, 93728, Note_on_c, 0, 79, 0
3, 93730, Note_on_c, 0, 80, 38
3, 93820, Note_on_c, 0, 80, 0
3, 93858, Note_on_c, 0, 81, 36
3, 93898, Note_on_c, 0, 81, 0
3, 93944, Note_on_c, 0, 84, 81
3, 93952, Note_on_c, 0, 72, 55
3, 93960, Note_on_c, 0, 74, 54
3, 93976, Note_on_c, 0, 64, 0
3, 93988, Note_on_c, 0, 74, 0
3, 94014, Note_on_c, 0, 60, 0
3, 94016, Note_on_c, 0, 72, 0
3, 94032, Note_on_c, 0, 84, 0
3, 94052, Note_on_c, 0, 53, 0
3, 94074, Note_on_c, 0, 57, 0
3, 94106, Note_on_c, 0, 84, 71
3, 94108, Note_on_c, 0, 72, 62
3, 94126, Note_on_c, 0, 83, 34
3, 94148, Note_on_c, 0, 83, 0
3, 94302, Control_c, 0, 64, 127
3, 94304, Note_on_c, 0, 72, 0
3, 94308, Note_on_c, 0, 84, 0
3, 94364, Note_on_c, 0, 64, 33
3, 94366, Control_c, 0, 64, 0
3, 94370, Note_on_c, 0, 81, 47
3, 94386, Note_on_c, 0, 60, 30
3, 94396, Note_on_c, 0, 57, 35
3, 94442, Note_on_c, 0, 81, 0
3, 94442, Note_on_c, 0, 64, 0
3, 94448, Note_on_c, 0, 60, 0
3, 94490, Note_on_c, 0, 57, 0
3, 94494, Note_on_c, 0, 84, 75
3, 94500, Note_on_c, 0, 72, 50
3, 94642, Note_on_c, 0, 72, 0
3, 94646, Note_on_c, 0, 84, 0
3, 95110, Note_on_c, 0, 67, 53
3, 95118, Note_on_c, 0, 56, 29
3, 95124, Note_on_c, 0, 63, 37
3, 95128, Note_on_c, 0, 60, 41
3, 95602, Note_on_c, 0, 79, 84
3, 95604, Note_on_c, 0, 91, 83
3, 95630, Note_on_c, 0, 67, 0
3, 95672, Note_on_c, 0, 56, 0
3, 95708, Note_on_c, 0, 63, 0
3, 95796, Note_on_c, 0, 91, 0
3, 95804, Note_on_c, 0, 60, 0
3, 95816, Note_on_c, 0, 79, 0
3, 95878, Note_on_c, 0, 67, 62
3, 95880, Note_on_c, 0, 56, 50
3, 95886, Note_on_c, 0, 89, 64
3, 95888, Note_on_c, 0, 77, 66
3, 95888, Note_on_c, 0, 62, 62
3, 95986, Note_on_c, 0, 77, 0
3, 95996, Note_on_c, 0, 89, 0
3, 96058, Note_on_c, 0, 67, 0
3, 96078, Note_on_c, 0, 56, 0
3, 96096, Note_on_c, 0, 62, 0
3, 96138, Note_on_c, 0, 78, 64
3, 96138, Note_on_c, 0, 90, 53
3, 96140, Note_on_c, 0, 62, 22
3, 96140, Note_on_c, 0, 56, 51
3, 96144, Note_on_c, 0, 67, 37
3, 96160, Note_on_c, 0, 91, 51
3, 96270, Note_on_c, 0, 78, 0
3, 96276, Note_on_c, 0, 90, 0
3, 96282, Note_on_c, 0, 91, 0
3, 96284, Note_on_c, 0, 79, 25
3, 96296, Note_on_c, 0, 67, 0
3, 96324, Note_on_c, 0, 62, 0
3, 96328, Note_on_c, 0, 56, 0
3, 96338, Note_on_c, 0, 79, 0
3, 96382, Note_on_c, 0, 56, 25
3, 96384, Note_on_c, 0, 89, 56
3, 96392, Note_on_c, 0, 67, 44
3, 96400, Note_on_c, 0, 77, 55
3, 96408, Note_on_c, 0, 62, 36
3, 96452, Note_on_c, 0, 62, 0
3, 96492, Note_on_c, 0, 56, 0
3, 96522, Note_on_c, 0, 67, 0
3, 96584, Note_on_c, 0, 89, 0
3, 96588, Note_on_c, 0, 77, 0
3, 96666, Note_on_c, 0, 88, 64
3, 96672, Note_on_c, 0, 62, 40
3, 96674, Note_on_c, 0, 67, 47
3, 96684, Note_on_c, 0, 64, 39
3, 96862, Note_on_c, 0, 88, 0
3, 96898, Note_on_c, 0, 89, 54
3, 96972, Note_on_c, 0, 89, 0
3, 97008, Note_on_c, 0, 88, 54
3, 97104, Note_on_c, 0, 88, 0
3, 97116, Note_on_c, 0, 84, 49
3, 97184, Note_on_c, 0, 84, 0
3, 97230, Note_on_c, 0, 79, 33
3, 97248, Note_on_c, 0, 67, 0
3, 97278, Note_on_c, 0, 79, 0
3, 97336, Note_on_c, 0, 77, 36
3, 97482, Note_on_c, 0, 77, 0
3, 97564, Note_on_c, 0, 64, 0
3, 97566, Note_on_c, 0, 76, 56
3, 97616, Note_on_c, 0, 62, 0
3, 97640, Note_on_c, 0, 76, 0
3, 97732, Note_on_c, 0, 76, 66
3, 97836, Note_on_c, 0, 76, 0
3, 97958, Note_on_c, 0, 76, 56
3, 97964, Note_on_c, 0, 67, 39
3, 97976, Note_on_c, 0, 62, 43
3, 97978, Note_on_c, 0, 56, 21
3, 98058, Note_on_c, 0, 76, 0
3, 98200, Note_on_c, 0, 76, 63
3, 98264, Note_on_c, 0, 76, 0
3, 98304, Note_on_c, 0, 62, 0
3, 98310, Note_on_c, 0, 67, 0
3, 98342, Note_on_c, 0, 76, 51
3, 98412, Note_on_c, 0, 56, 0
3, 98482, Note_on_c, 0, 76, 0
3, 98592, Note_on_c, 0, 61, 39
3, 98598, Note_on_c, 0, 65, 44
3, 98602, Note_on_c, 0, 60, 30
3, 98606, Note_on_c, 0, 55, 41
3, 98984, Note_on_c, 0, 55, 0
3, 98994, Note_on_c, 0, 60, 0
3, 99006, Note_on_c, 0, 65, 0
3, 99124, Note_on_c, 0, 64, 50
3, 99124, Note_on_c, 0, 60, 43
3, 99140, Note_on_c, 0, 54, 21
3, 99150, Note_on_c, 0, 59, 34
3, 99482, Control_c, 0, 64, 127
3, 99556, Note_on_c, 0, 59, 0
3, 99566, Note_on_c, 0, 60, 0
3, 99572, Note_on_c, 0, 54, 0
3, 99598, Note_on_c, 0, 64, 0
3, 99662, Note_on_c, 0, 61, 0
3, 99814, Control_c, 0, 64, 0
3, 99854, Note_on_c, 0, 67, 63
3, 99856, Note_on_c, 0, 64, 54
3, 99862, Note_on_c, 0, 76, 53
3, 99864, Note_on_c, 0, 72, 34
3, 99866, Note_on_c, 0, 60, 40
3, 99878, Note_on_c, 0, 67, 0
3, 99886, Note_on_c, 0, 64, 0
3, 99892, Note_on_c, 0, 60, 0
3, 99898, Note_on_c, 0, 72, 0
3, 99942, Note_on_c, 0, 76, 0
3, 100230, Note_on_c, 0, 61, 65
3, 100232, Note_on_c, 0, 90, 86
3, 100236, Note_on_c, 0, 63, 63
3, 100238, Note_on_c, 0, 57, 76
3, 100238, Note_on_c, 0, 68, 82
3, 100240, Note_on_c, 0, 95, 75
3, 100242, Note_on_c, 0, 83, 72
3, 100242, Note_on_c, 0, 81, 74
3, 100244, Note_on_c, 0, 93, 76
3, 100316, Note_on_c, 0, 81, 0
3, 100434, Note_on_c, 0, 95, 0
3, 100440, Note_on_c, 0, 91, 42
3, 100458, Note_on_c, 0, 83, 0
3, 100464, Note_on_c, 0, 93, 0
3, 100472, Note_on_c, 0, 57, 0
3, 100476, Note_on_c, 0, 90, 0
3, 100476, Note_on_c, 0, 91, 0
3, 100500, Note_on_c, 0, 68, 0
3, 100556, Note_on_c, 0, 61, 0
3, 100570, Note_on_c, 0, 63, 0
3, 100606, Note_on_c, 0, 82, 74
3, 100608, Note_on_c, 0, 56, 67
3, 100608, Note_on_c, 0, 67, 65
3, 100610, Note_on_c, 0, 94, 81
3, 100614, Note_on_c, 0, 62, 71
3, 100614, Note_on_c, 0, 89, 71
3, 100634, Note_on_c, 0, 65, 34
3, 100660, Note_on_c, 0, 65, 0
3, 100788, Control_c, 0, 64, 127
3, 100798, Note_on_c, 0, 67, 0
3, 100816, Note_on_c, 0, 62, 0
3, 100838, Note_on_c, 0, 89, 0
3, 100866, Note_on_c, 0, 94, 0
3, 100872, Note_on_c, 0, 82, 0
3, 100894, Control_c, 0, 64, 0
3, 100912, Note_on_c, 0, 56, 0
3, 100986, Note_on_c, 0, 66, 64
3, 100994, Note_on_c, 0, 61, 58
3, 100994, Note_on_c, 0, 88, 62
3, 100994, Note_on_c, 0, 93, 70
3, 100996, Note_on_c, 0, 81, 60
3, 100996, Note_on_c, 0, 55, 64
3, 101008, Note_on_c, 0, 90, 35
3, 101032, Note_on_c, 0, 90, 0
3, 101158, Note_on_c, 0, 93, 0
3, 101180, Note_on_c, 0, 55, 0
3, 101188, Note_on_c, 0, 88, 0
3, 101198, Control_c, 0, 64, 127
3, 101216, Note_on_c, 0, 81, 0
3, 101232, Note_on_c, 0, 66, 0
3, 101260, Control_c, 0, 64, 0
3, 101290, Note_on_c, 0, 61, 0
3, 101384, Note_on_c, 0, 54, 65
3, 101386, Note_on_c, 0, 92, 77
3, 101388, Note_on_c, 0, 65, 73
3, 101388, Note_on_c, 0, 80, 67
3, 101390, Note_on_c, 0, 87, 71
3, 101390, Note_on_c, 0, 60, 62
3, 101396, Control_c, 0, 64, 127
3, 101550, Note_on_c, 0, 80, 0
3, 101560, Note_on_c, 0, 65, 0
3, 101560, Note_on_c, 0, 92, 0
3, 101570, Note_on_c, 0, 54, 0
3, 101584, Note_on_c, 0, 87, 0
3, 101588, Note_on_c, 0, 60, 0
3, 101650, Note_on_c, 0, 94, 69
3, 101654, Note_on_c, 0, 54, 59
3, 101656, Note_on_c, 0, 82, 49
3, 101656, Note_on_c, 0, 65, 61
3, 101666, Note_on_c, 0, 87, 55
3, 101676, Note_on_c, 0, 60, 34
3, 101706, Note_on_c, 0, 82, 0
3, 101710, Note_on_c, 0, 94, 0
3, 101712, Note_on_c, 0, 65, 0
3, 101714, Note_on_c, 0, 60, 0
3, 101720, Control_c, 0, 64, 0
3, 101730, Note_on_c, 0, 87, 0
3, 101778, Note_on_c, 0, 65, 55
3, 101782, Note_on_c, 0, 87, 51
3, 101788, Note_on_c, 0, 92, 61
3, 101794, Note_on_c, 0, 80, 43
3, 101804, Note_on_c, 0, 60, 45
3, 101812, Control_c, 0, 64, 127
3, 101882, Note_on_c, 0, 60, 0
3, 101902, Note_on_c, 0, 65, 0
3, 101906, Note_on_c, 0, 92, 0
3, 101930, Note_on_c, 0, 87, 0
3, 101932, Note_on_c, 0, 80, 0
3, 101974, Note_on_c, 0, 54, 0
3, 102024, Note_on_c, 0, 64, 71
3, 102028, Note_on_c, 0, 91, 65
3, 102030, Note_on_c, 0, 86, 70
3, 102032, Note_on_c, 0, 53, 64
3, 102032, Note_on_c, 0, 79, 55
3, 102038, Note_on_c, 0, 59, 68
3, 102044, Control_c, 0, 64, 0
3, 102098, Note_on_c, 0, 64, 0
3, 102116, Note_on_c, 0, 59, 0
3, 102144, Control_c, 0, 64, 127
3, 102154, Note_on_c, 0, 53, 0
3, 102254, Note_on_c, 0, 91, 0
3, 102266, Note_on_c, 0, 86, 0
3, 102324, Note_on_c, 0, 79, 0
3, 102398, Note_on_c, 0, 43, 87
3, 102404, Note_on_c, 0, 55, 85
3, 102524, Control_c, 0, 64, 0
3, 102708, Control_c, 0, 64, 127
3, 102826, Note_on_c, 0, 50, 24
3, 102934, Control_c, 0, 64, 0
3, 102938, Note_on_c, 0, 50, 0
3, 103150, Note_on_c, 0, 50, 45
3, 103154, Note_on_c, 0, 55, 0
3, 103276, Note_on_c, 0, 55, 46
3, 103344, Note_on_c, 0, 55, 0
3, 103412, Note_on_c, 0, 57, 48
3, 103472, Note_on_c, 0, 57, 0
3, 103528, Note_on_c, 0, 60, 84
3, 103550, Note_on_c, 0, 55, 45
3, 103744, Note_on_c, 0, 50, 0
3, 103862, Note_on_c, 0, 55, 24
3, 103892, Note_on_c, 0, 60, 0
3, 103906, Note_on_c, 0, 55, 0
3, 103908, Note_on_c, 0, 55, 0
3, 103976, Note_on_c, 0, 57, 58
3, 104034, Note_on_c, 0, 57, 0
3, 104094, Note_on_c, 0, 60, 91
3, 104310, Note_on_c, 0, 50, 34
3, 104400, Note_on_c, 0, 60, 0
3, 104404, Note_on_c, 0, 50, 0
3, 104450, Note_on_c, 0, 55, 26
3, 104492, Note_on_c, 0, 55, 0
3, 104588, Note_on_c, 0, 57, 22
3, 104636, Note_on_c, 0, 57, 0
3, 104688, Note_on_c, 0, 60, 90
3, 104722, Note_on_c, 0, 50, 34
3, 104870, Note_on_c, 0, 50, 0
3, 104972, Note_on_c, 0, 60, 0
3, 104990, Note_on_c, 0, 56, 72
3, 105066, Note_on_c, 0, 56, 0
3, 105082, Note_on_c, 0, 50, 10
3, 105112, Note_on_c, 0, 58, 60
3, 105192, Note_on_c, 0, 58, 0
3, 105204, Note_on_c, 0, 50, 0
3, 105236, Note_on_c, 0, 61, 77
3, 105428, Note_on_c, 0, 50, 45
3, 105488, Note_on_c, 0, 50, 0
3, 105522, Note_on_c, 0, 43, 0
3, 105554, Note_on_c, 0, 61, 0
3, 105570, Note_on_c, 0, 57, 32
3, 105644, Note_on_c, 0, 57, 0
3, 105684, Note_on_c, 0, 59, 47
3, 105784, Note_on_c, 0, 59, 0
3, 105824, Note_on_c, 0, 62, 92
3, 105840, Note_on_c, 0, 36, 58
3, 106064, Note_on_c, 0, 62, 0
3, 106080, Note_on_c, 0, 59, 37
3, 106208, Note_on_c, 0, 59, 0
3, 106224, Note_on_c, 0, 43, 24
3, 106232, Note_on_c, 0, 60, 49
3, 106246, Note_on_c, 0, 36, 0
3, 106256, Note_on_c, 0, 52, 26
3, 106314, Note_on_c, 0, 60, 0
3, 106342, Note_on_c, 0, 43, 0
3, 106348, Note_on_c, 0, 64, 83
3, 106596, Note_on_c, 0, 52, 0
3, 106924, Note_on_c, 0, 64, 0
3, 106950, Note_on_c, 0, 62, 46
3, 106998, Note_on_c, 0, 55, 34
3, 107028, Note_on_c, 0, 55, 0
3, 107042, Note_on_c, 0, 62, 0
3, 107058, Note_on_c, 0, 63, 56
3, 107116, Note_on_c, 0, 63, 0
3, 107180, Note_on_c, 0, 67, 46
3, 107258, Note_on_c, 0, 67, 0
3, 107292, Note_on_c, 0, 71, 41
3, 107376, Note_on_c, 0, 71, 0
3, 107404, Note_on_c, 0, 74, 82
3, 107486, Note_on_c, 0, 74, 0
3, 107514, Note_on_c, 0, 71, 52
3, 107560, Note_on_c, 0, 71, 0
3, 107604, Note_on_c, 0, 72, 60
3, 107696, Note_on_c, 0, 72, 0
3, 107728, Note_on_c, 0, 67, 66
3, 107782, Note_on_c, 0, 67, 0
3, 107936, Note_on_c, 0, 67, 63
3, 107990, Note_on_c, 0, 67, 0
3, 108196, Note_on_c, 0, 67, 64
3, 108248, Note_on_c, 0, 67, 0
3, 108328, Note_on_c, 0, 61, 34
3, 108332, Note_on_c, 0, 67, 59
3, 108338, Note_on_c, 0, 55, 34
3, 108342, Note_on_c, 0, 64, 24
3, 108416, Note_on_c, 0, 67, 0
3, 108432, Note_on_c, 0, 64, 0
3, 108440, Note_on_c, 0, 61, 0
3, 108468, Note_on_c, 0, 69, 24
3, 108510, Note_on_c, 0, 69, 0
3, 108518, Note_on_c, 0, 67, 36
3, 108586, Note_on_c, 0, 67, 0
3, 108592, Note_on_c, 0, 66, 52
3, 108654, Note_on_c, 0, 66, 0
3, 108694, Note_on_c, 0, 67, 63
3, 108714, Note_on_c, 0, 55, 0
3, 108954, Note_on_c, 0, 50, 37
3, 108970, Note_on_c, 0, 57, 38
3, 109014, Note_on_c, 0, 50, 0
3, 109020, Note_on_c, 0, 57, 0
3, 109694, Note_on_c, 0, 57, 58
3, 109696, Note_on_c, 0, 60, 47
3, 109702, Note_on_c, 0, 64, 34
3, 109728, Note_on_c, 0, 64, 0
3, 109728, Note_on_c, 0, 60, 0
3, 109766, Note_on_c, 0, 57, 0
3, 109940, Note_on_c, 0, 64, 54
3, 109942, Note_on_c, 0, 67, 0
3, 110012, Note_on_c, 0, 64, 0
3, 110066, Note_on_c, 0, 65, 66
3, 110140, Note_on_c, 0, 65, 0
3, 110192, Note_on_c, 0, 67, 85
3, 110458, Note_on_c, 0, 64, 62
3, 110474, Note_on_c, 0, 59, 50
3, 110482, Note_on_c, 0, 64, 0
3, 110500, Note_on_c, 0, 59, 0
3, 110830, Note_on_c, 0, 57, 60
3, 110836, Note_on_c, 0, 67, 0
3, 110854, Note_on_c, 0, 57, 0
3, 110956, Note_on_c, 0, 60, 38
3, 111000, Note_on_c, 0, 60, 0
3, 111084, Note_on_c, 0, 62, 63
3, 111166, Note_on_c, 0, 62, 0
3, 111210, Note_on_c, 0, 64, 82
3, 111260, Note_on_c, 0, 53, 36
3, 111266, Note_on_c, 0, 43, 31
3, 111294, Note_on_c, 0, 53, 0
3, 111306, Note_on_c, 0, 43, 0
3, 111454, Note_on_c, 0, 64, 0
3, 111576, Note_on_c, 0, 55, 22
3, 111622, Note_on_c, 0, 55, 0
3, 111660, Note_on_c, 0, 50, 28
3, 111694, Note_on_c, 0, 50, 0
3, 111780, Note_on_c, 0, 62, 61
3, 111782, Note_on_c, 0, 60, 65
3, 111926, Note_on_c, 0, 62, 0
3, 111960, Note_on_c, 0, 60, 0
3, 112016, Note_on_c, 0, 57, 65
3, 112022, Note_on_c, 0, 36, 47
3, 112056, Note_on_c, 0, 36, 0
3, 112090, Note_on_c, 0, 57, 0
3, 112226, Note_on_c, 0, 55, 39
3, 112398, Note_on_c, 0, 43, 39
3, 112426, Note_on_c, 0, 55, 0
3, 112430, Note_on_c, 0, 43, 0
3, 112518, Note_on_c, 0, 55, 55
3, 112750, Note_on_c, 0, 55, 0
3, 112886, Note_on_c, 0, 41, 53
3, 112978, Note_on_c, 0, 41, 0
3, 113264, Note_on_c, 0, 62, 47
3, 113266, Note_on_c, 0, 67, 61
3, 113272, Note_on_c, 0, 63, 46
3, 113280, Note_on_c, 0, 57, 35
3, 113370, Note_on_c, 0, 67, 0
3, 113380, Note_on_c, 0, 62, 0
3, 113406, Note_on_c, 0, 63, 0
3, 113408, Note_on_c, 0, 57, 0
3, 113658, Note_on_c, 0, 62, 44
3, 113660, Note_on_c, 0, 52, 34
3, 113664, Note_on_c, 0, 59, 43
3, 113666, Note_on_c, 0, 55, 53
3, 114036, Note_on_c, 0, 52, 0
3, 114052, Note_on_c, 0, 79, 81
3, 114058, Note_on_c, 0, 55, 0
3, 114062, Note_on_c, 0, 59, 0
3, 114120, Note_on_c, 0, 62, 0
3, 114126, Note_on_c, 0, 79, 0
3, 114316, Note_on_c, 0, 81, 87
3, 114334, Note_on_c, 0, 65, 43
3, 114338, Note_on_c, 0, 61, 30
3, 114360, Note_on_c, 0, 65, 0
3, 114372, Note_on_c, 0, 61, 0
3, 114376, Note_on_c, 0, 81, 0
3, 114446, Note_on_c, 0, 61, 42
3, 114450, Note_on_c, 0, 55, 47
3, 114454, Note_on_c, 0, 65, 57
3, 114456, Note_on_c, 0, 82, 69
3, 114456, Note_on_c, 0, 58, 52
3, 114618, Note_on_c, 0, 65, 0
3, 114620, Note_on_c, 0, 55, 0
3, 114640, Note_on_c, 0, 58, 0
3, 114642, Note_on_c, 0, 61, 0
3, 114658, Note_on_c, 0, 82, 0
3, 114700, Note_on_c, 0, 61, 51
3, 114704, Note_on_c, 0, 55, 53
3, 114710, Note_on_c, 0, 58, 51
3, 114712, Note_on_c, 0, 84, 66
3, 114714, Note_on_c, 0, 65, 50
3, 114746, Note_on_c, 0, 65, 0
3, 114786, Note_on_c, 0, 55, 0
3, 114796, Note_on_c, 0, 84, 0
3, 114810, Note_on_c, 0, 58, 0
3, 114836, Note_on_c, 0, 55, 34
3, 114842, Note_on_c, 0, 65, 42
3, 114848, Note_on_c, 0, 82, 51
3, 114856, Note_on_c, 0, 58, 20
3, 114922, Note_on_c, 0, 65, 0
3, 114960, Note_on_c, 0, 55, 0
3, 115022, Note_on_c, 0, 61, 0
3, 115032, Note_on_c, 0, 58, 0
3, 115158, Note_on_c, 0, 82, 0
3, 115232, Note_on_c, 0, 58, 30
3, 115232, Note_on_c, 0, 63, 26
3, 115234, Note_on_c, 0, 79, 58
3, 115240, Note_on_c, 0, 60, 38
3, 115334, Note_on_c, 0, 60, 0
3, 115336, Note_on_c, 0, 63, 0
3, 115346, Note_on_c, 0, 79, 0
3, 115382, Note_on_c, 0, 58, 0
3, 115472, Note_on_c, 0, 80, 74
3, 115472, Note_on_c, 0, 58, 43
3, 115478, Note_on_c, 0, 63, 37
3, 115480, Note_on_c, 0, 60, 53
3, 115498, Note_on_c, 0, 53, 27
3, 115528, Note_on_c, 0, 63, 0
3, 115530, Note_on_c, 0, 53, 0
3, 115548, Note_on_c, 0, 60, 0
3, 115554, Note_on_c, 0, 80, 0
3, 115566, Note_on_c, 0, 58, 0
3, 115594, Note_on_c, 0, 63, 57
3, 115598, Note_on_c, 0, 58, 35
3, 115602, Note_on_c, 0, 82, 82
3, 115602, Note_on_c, 0, 53, 68
3, 115604, Note_on_c, 0, 60, 68
3, 115728, Note_on_c, 0, 53, 0
3, 115750, Note_on_c, 0, 63, 0
3, 115766, Note_on_c, 0, 60, 0
3, 115772, Note_on_c, 0, 58, 0
3, 115774, Note_on_c, 0, 82, 0
3, 115842, Note_on_c, 0, 63, 58
3, 115848, Note_on_c, 0, 53, 64
3, 115850, Note_on_c, 0, 58, 51
3, 115854, Note_on_c, 0, 60, 60
3, 115856, Note_on_c, 0, 84, 83
3, 115926, Note_on_c, 0, 63, 0
3, 115944, Note_on_c, 0, 60, 0
3, 115946, Note_on_c, 0, 84, 0
3, 115948, Note_on_c, 0, 53, 0
3, 115990, Note_on_c, 0, 63, 37
3, 116000, Note_on_c, 0, 82, 62
3, 116002, Note_on_c, 0, 53, 22
3, 116006, Note_on_c, 0, 60, 56
3, 116184, Note_on_c, 0, 60, 0
3, 116198, Note_on_c, 0, 63, 0
3, 116202, Note_on_c, 0, 53, 0
3, 116212, Note_on_c, 0, 58, 0
3, 116244, Note_on_c, 0, 82, 0
3, 116614, Note_on_c, 0, 64, 80
3, 116618, Note_on_c, 0, 59, 74
3, 116620, Note_on_c, 0, 53, 71
3, 116640, Note_on_c, 0, 80, 77
3, 116886, Note_on_c, 0, 53, 0
3, 116890, Note_on_c, 0, 80, 0
3, 116904, Note_on_c, 0, 64, 0
3, 116920, Note_on_c, 0, 59, 0
3, 116970, Note_on_c, 0, 53, 60
3, 116970, Note_on_c, 0, 64, 64
3, 116976, Note_on_c, 0, 82, 74
3, 116976, Note_on_c, 0, 59, 68
3, 117066, Note_on_c, 0, 64, 0
3, 117082, Note_on_c, 0, 82, 0
3, 117118, Note_on_c, 0, 64, 55
3, 117134, Note_on_c, 0, 83, 71
3, 117220, Note_on_c, 0, 64, 0
3, 117238, Note_on_c, 0, 83, 0
3, 117238, Note_on_c, 0, 53, 0
3, 117300, Note_on_c, 0, 59, 0
3, 117350, Note_on_c, 0, 85, 82
3, 117358, Note_on_c, 0, 63, 79
3, 117360, Note_on_c, 0, 53, 80
3, 117360, Note_on_c, 0, 59, 80
3, 117366, Note_on_c, 0, 56, 57
3, 117500, Note_on_c, 0, 85, 0
3, 117506, Note_on_c, 0, 63, 0
3, 117596, Note_on_c, 0, 83, 59
3, 117674, Note_on_c, 0, 56, 0
3, 117706, Note_on_c, 0, 59, 0
3, 117722, Note_on_c, 0, 53, 0
3, 117728, Note_on_c, 0, 83, 0
3, 117854, Note_on_c, 0, 63, 43
3, 117858, Note_on_c, 0, 53, 45
3, 117864, Note_on_c, 0, 56, 40
3, 117864, Note_on_c, 0, 59, 49
3, 117894, Note_on_c, 0, 59, 0
3, 117908, Note_on_c, 0, 63, 0
3, 117958, Note_on_c, 0, 53, 0
3, 117986, Note_on_c, 0, 56, 0
3, 118158, Note_on_c, 0, 62, 80
3, 118164, Note_on_c, 0, 57, 71
3, 118164, Note_on_c, 0, 51, 60
3, 118182, Note_on_c, 0, 73, 71
3, 118204, Note_on_c, 0, 62, 0
3, 118204, Note_on_c, 0, 86, 51
3, 118210, Note_on_c, 0, 51, 0
3, 118214, Note_on_c, 0, 84, 37
3, 118228, Note_on_c, 0, 57, 0
3, 118292, Note_on_c, 0, 86, 0
3, 118316, Note_on_c, 0, 73, 0
3, 118322, Note_on_c, 0, 74, 40
3, 118330, Note_on_c, 0, 84, 0
3, 118404, Note_on_c, 0, 74, 0
3, 118428, Note_on_c, 0, 86, 48
3, 118482, Note_on_c, 0, 86, 0
3, 118492, Note_on_c, 0, 74, 46
3, 118582, Note_on_c, 0, 74, 0
3, 118596, Note_on_c, 0, 86, 53
3, 118660, Note_on_c, 0, 74, 31
3, 118662, Note_on_c, 0, 86, 0
3, 118756, Note_on_c, 0, 74, 0
3, 118774, Note_on_c, 0, 86, 44
3, 118838, Note_on_c, 0, 86, 0
3, 118842, Note_on_c, 0, 74, 44
3, 118936, Note_on_c, 0, 63, 59
3, 118938, Note_on_c, 0, 67, 57
3, 118940, Note_on_c, 0, 86, 49
3, 118946, Note_on_c, 0, 74, 0
3, 118952, Note_on_c, 0, 59, 44
3, 118980, Note_on_c, 0, 67, 0
3, 119012, Note_on_c, 0, 86, 0
3, 119026, Note_on_c, 0, 59, 0
3, 119032, Note_on_c, 0, 63, 0
3, 119034, Note_on_c, 0, 74, 40
3, 119124, Note_on_c, 0, 74, 0
3, 119124, Note_on_c, 0, 86, 33
3, 119194, Note_on_c, 0, 86, 0
3, 119202, Note_on_c, 0, 74, 39
3, 119290, Note_on_c, 0, 74, 0
3, 119290, Note_on_c, 0, 86, 47
3, 119366, Note_on_c, 0, 86, 0
3, 119366, Note_on_c, 0, 74, 33
3, 119452, Note_on_c, 0, 86, 53
3, 119458, Note_on_c, 0, 74, 0
3, 119542, Note_on_c, 0, 86, 0
3, 119546, Note_on_c, 0, 74, 47
3, 119644, Note_on_c, 0, 86, 50
3, 119650, Note_on_c, 0, 74, 0
3, 119704, Note_on_c, 0, 65, 75
3, 119706, Note_on_c, 0, 60, 68
3, 119708, Note_on_c, 0, 56, 55
3, 119714, Note_on_c, 0, 61, 38
3, 119732, Note_on_c, 0, 60, 0
3, 119732, Note_on_c, 0, 86, 0
3, 119732, Note_on_c, 0, 65, 0
3, 119752, Note_on_c, 0, 74, 51
3, 119754, Note_on_c, 0, 61, 0
3, 119772, Note_on_c, 0, 56, 0
3, 119982, Note_on_c, 0, 74, 0
3, 120050, Note_on_c, 0, 87, 84
3, 120070, Note_on_c, 0, 73, 72
3, 120074, Note_on_c, 0, 85, 50
3, 120140, Note_on_c, 0, 85, 0
3, 120148, Note_on_c, 0, 87, 0
3, 120198, Note_on_c, 0, 73, 0
3, 120224, Note_on_c, 0, 87, 48
3, 120282, Note_on_c, 0, 73, 44
3, 120292, Note_on_c, 0, 87, 0
3, 120368, Note_on_c, 0, 73, 0
3, 120374, Note_on_c, 0, 87, 68
3, 120458, Note_on_c, 0, 73, 38
3, 120464, Note_on_c, 0, 87, 0
3, 120538, Note_on_c, 0, 61, 51
3, 120556, Note_on_c, 0, 87, 58
3, 120562, Note_on_c, 0, 73, 0
3, 120566, Note_on_c, 0, 61, 0
3, 120646, Note_on_c, 0, 87, 0
3, 120648, Note_on_c, 0, 73, 38
3, 120730, Note_on_c, 0, 87, 55
3, 120736, Note_on_c, 0, 73, 0
3, 120824, Note_on_c, 0, 87, 0
3, 120826, Note_on_c, 0, 73, 34
3, 120858, Note_on_c, 0, 61, 75
3, 120862, Note_on_c, 0, 64, 82
3, 120866, Note_on_c, 0, 55, 82
3, 120928, Note_on_c, 0, 73, 0
3, 120932, Note_on_c, 0, 87, 57
3, 121002, Note_on_c, 0, 87, 0
3, 121010, Note_on_c, 0, 73, 35
3, 121116, Note_on_c, 0, 87, 40
3, 121124, Note_on_c, 0, 73, 0
3, 121192, Note_on_c, 0, 55, 0
3, 121198, Note_on_c, 0, 73, 30
3, 121232, Note_on_c, 0, 64, 0
3, 121248, Note_on_c, 0, 87, 0
3, 121320, Note_on_c, 0, 73, 0
3, 121350, Note_on_c, 0, 61, 0
3, 121356, Note_on_c, 0, 72, 38
3, 121358, Note_on_c, 0, 58, 45
3, 121358, Note_on_c, 0, 60, 66
3, 121362, Note_on_c, 0, 63, 63
3, 121374, Note_on_c, 0, 53, 57
3, 121376, Note_on_c, 0, 84, 42
3, 121376, Note_on_c, 0, 86, 40
3, 121410, Note_on_c, 0, 86, 0
3, 121670, Note_on_c, 0, 84, 0
3, 121692, Note_on_c, 0, 63, 0
3, 121764, Note_on_c, 0, 82, 72
3, 121812, Note_on_c, 0, 60, 0
3, 121848, Note_on_c, 0, 53, 0
3, 121862, Note_on_c, 0, 58, 0
3, 121966, Note_on_c, 0, 82, 0
3, 122014, Note_on_c, 0, 79, 68
3, 122016, Note_on_c, 0, 63, 55
3, 122036, Note_on_c, 0, 58, 35
3, 122056, Note_on_c, 0, 72, 0
3, 122080, Note_on_c, 0, 63, 0
3, 122134, Note_on_c, 0, 58, 0
3, 122136, Note_on_c, 0, 79, 0
3, 122186, Note_on_c, 0, 75, 39
3, 122388, Note_on_c, 0, 75, 0
3, 122388, Note_on_c, 0, 72, 37
3, 122472, Note_on_c, 0, 72, 0
3, 122512, Note_on_c, 0, 70, 46
3, 122686, Note_on_c, 0, 70, 0
3, 122762, Note_on_c, 0, 68, 65
3, 122784, Note_on_c, 0, 65, 38
3, 122798, Note_on_c, 0, 55, 32
3, 122800, Note_on_c, 0, 60, 34
3, 122814, Note_on_c, 0, 65, 0
3, 122840, Note_on_c, 0, 60, 0
3, 122870, Note_on_c, 0, 55, 0
3, 122902, Note_on_c, 0, 68, 0
3, 122948, Note_on_c, 0, 70, 37
3, 122998, Note_on_c, 0, 68, 46
3, 123058, Note_on_c, 0, 70, 0
3, 123082, Note_on_c, 0, 68, 0
3, 123082, Note_on_c, 0, 67, 62
3, 123148, Note_on_c, 0, 67, 0
3, 123200, Note_on_c, 0, 65, 71
3, 123200, Note_on_c, 0, 64, 40
3, 123224, Note_on_c, 0, 53, 24
3, 123230, Note_on_c, 0, 64, 0
3, 123282, Note_on_c, 0, 65, 0
3, 123304, Note_on_c, 0, 53, 0
3, 123326, Note_on_c, 0, 63, 39
3, 123434, Note_on_c, 0, 63, 0
3, 123450, Note_on_c, 0, 62, 49
3, 123532, Note_on_c, 0, 62, 0
3, 123556, Note_on_c, 0, 65, 74
3, 123654, Note_on_c, 0, 65, 0
3, 123678, Note_on_c, 0, 62, 45
3, 123704, Note_on_c, 0, 53, 22
3, 123728, Note_on_c, 0, 62, 0
3, 123732, Note_on_c, 0, 53, 0
3, 123778, Note_on_c, 0, 63, 57
3, 123908, Note_on_c, 0, 63, 0
3, 123920, Note_on_c, 0, 59, 68
3, 124030, Note_on_c, 0, 53, 54
3, 124050, Note_on_c, 0, 43, 33
3, 124054, Note_on_c, 0, 53, 0
3, 124110, Note_on_c, 0, 43, 0
3, 124146, Note_on_c, 0, 59, 0
3, 124148, Note_on_c, 0, 58, 37
3, 124274, Note_on_c, 0, 58, 0
3, 124354, Note_on_c, 0, 56, 67
3, 124434, Note_on_c, 0, 56, 0
3, 124496, Note_on_c, 0, 55, 59
3, 124638, Note_on_c, 0, 55, 0
3, 124698, Note_on_c, 0, 56, 25
3, 124732, Note_on_c, 0, 55, 60
3, 124746, Note_on_c, 0, 43, 24
3, 124786, Note_on_c, 0, 56, 0
3, 124796, Note_on_c, 0, 55, 0
3, 124808, Note_on_c, 0, 43, 0
3, 124816, Note_on_c, 0, 53, 44
3, 125060, Note_on_c, 0, 53, 0
3, 125072, Note_on_c, 0, 51, 44
3, 125092, Note_on_c, 0, 43, 32
3, 125130, Note_on_c, 0, 43, 0
3, 125176, Note_on_c, 0, 51, 0
3, 125196, Note_on_c, 0, 50, 48
3, 125452, Note_on_c, 0, 51, 44
3, 125454, Note_on_c, 0, 50, 0
3, 125546, Note_on_c, 0, 51, 0
3, 125580, Note_on_c, 0, 53, 42
3, 125794, Note_on_c, 0, 53, 0
3, 125832, Note_on_c, 0, 48, 55
3, 125908, Note_on_c, 0, 48, 0
3, 126194, Note_on_c, 0, 45, 58
3, 126262, Note_on_c, 0, 45, 0
3, 126612, Note_on_c, 0, 55, 55
3, 126650, Note_on_c, 0, 55, 0
3, 126758, Note_on_c, 0, 59, 68
3, 126814, Note_on_c, 0, 59, 0
3, 126888, Note_on_c, 0, 60, 67
3, 126954, Note_on_c, 0, 60, 0
3, 127024, Note_on_c, 0, 67, 74
3, 127072, Note_on_c, 0, 67, 0
3, 127158, Note_on_c, 0, 71, 68
3, 127194, Note_on_c, 0, 71, 0
3, 127272, Note_on_c, 0, 72, 54
3, 127342, Note_on_c, 0, 72, 0
3, 127404, Note_on_c, 0, 79, 70
3, 127470, Note_on_c, 0, 79, 0
3, 127496, Note_on_c, 0, 54, 31
3, 127508, Note_on_c, 0, 72, 55
3, 127534, Note_on_c, 0, 60, 20
3, 127576, Note_on_c, 0, 60, 0
3, 127578, Note_on_c, 0, 54, 0
3, 127610, Note_on_c, 0, 72, 0
3, 128140, Note_on_c, 0, 65, 36
3, 128142, Note_on_c, 0, 54, 31
3, 128146, Note_on_c, 0, 60, 41
3, 128172, Note_on_c, 0, 65, 0
3, 128208, Note_on_c, 0, 54, 0
3, 128228, Note_on_c, 0, 60, 0
3, 128260, Note_on_c, 0, 72, 31
3, 128314, Note_on_c, 0, 72, 0
3, 128372, Note_on_c, 0, 77, 64
3, 128468, Note_on_c, 0, 77, 0
3, 128488, Note_on_c, 0, 54, 74
3, 128490, Note_on_c, 0, 60, 78
3, 128492, Note_on_c, 0, 65, 80
3, 128494, Note_on_c, 0, 82, 69
3, 128556, Note_on_c, 0, 82, 0
3, 128628, Note_on_c, 0, 84, 73
3, 128692, Note_on_c, 0, 84, 0
3, 128744, Note_on_c, 0, 89, 74
3, 128804, Note_on_c, 0, 54, 0
3, 128822, Note_on_c, 0, 89, 0
3, 128868, Note_on_c, 0, 94, 84
3, 128872, Note_on_c, 0, 54, 67
3, 128904, Note_on_c, 0, 58, 21
3, 128928, Note_on_c, 0, 65, 0
3, 128960, Note_on_c, 0, 60, 0
3, 128966, Note_on_c, 0, 58, 0
3, 128968, Note_on_c, 0, 94, 0
3, 128990, Note_on_c, 0, 54, 0
3, 129006, Note_on_c, 0, 53, 74
3, 129008, Note_on_c, 0, 64, 74
3, 129014, Note_on_c, 0, 96, 84
3, 129014, Note_on_c, 0, 59, 66
3, 129014, Note_on_c, 0, 84, 82
3, 129322, Note_on_c, 0, 96, 0
3, 129326, Note_on_c, 0, 53, 0
3, 129338, Note_on_c, 0, 84, 0
3, 129346, Note_on_c, 0, 64, 0
3, 129358, Note_on_c, 0, 59, 0
3, 129402, Note_on_c, 0, 53, 71
3, 129404, Note_on_c, 0, 64, 64
3, 129406, Note_on_c, 0, 95, 72
3, 129410, Note_on_c, 0, 59, 76
3, 129412, Note_on_c, 0, 83, 66
3, 129580, Note_on_c, 0, 95, 0
3, 129660, Note_on_c, 0, 83, 0
3, 129716, Note_on_c, 0, 53, 0
3, 129720, Note_on_c, 0, 64, 0
3, 129750, Note_on_c, 0, 59, 0
3, 129792, Note_on_c, 0, 59, 52
3, 129792, Note_on_c, 0, 53, 64
3, 129794, Note_on_c, 0, 80, 60
3, 129796, Note_on_c, 0, 64, 58
3, 129796, Note_on_c, 0, 92, 51
3, 129960, Note_on_c, 0, 93, 33
3, 129988, Note_on_c, 0, 92, 0
3, 129994, Note_on_c, 0, 81, 51
3, 130004, Note_on_c, 0, 80, 0
3, 130042, Note_on_c, 0, 93, 0
3, 130070, Note_on_c, 0, 81, 0
3, 130076, Note_on_c, 0, 53, 0
3, 130090, Note_on_c, 0, 64, 0
3, 130122, Note_on_c, 0, 59, 0
3, 130166, Note_on_c, 0, 53, 55
3, 130172, Note_on_c, 0, 59, 44
3, 130172, Note_on_c, 0, 92, 71
3, 130174, Note_on_c, 0, 80, 60
3, 130176, Note_on_c, 0, 64, 55
3, 130408, Note_on_c, 0, 64, 0
3, 130420, Note_on_c, 0, 53, 0
3, 130462, Note_on_c, 0, 92, 0
3, 130492, Note_on_c, 0, 59, 0
3, 130510, Note_on_c, 0, 80, 0
3, 130538, Note_on_c, 0, 59, 16
3, 130556, Note_on_c, 0, 62, 46
3, 130558, Note_on_c, 0, 55, 53
3, 130560, Note_on_c, 0, 52, 40
3, 130580, Note_on_c, 0, 79, 47
3, 130582, Note_on_c, 0, 91, 51
3, 130658, Control_c, 0, 64, 127
3, 130804, Note_on_c, 0, 79, 0
3, 130824, Note_on_c, 0, 62, 0
3, 130836, Note_on_c, 0, 55, 0
3, 130838, Note_on_c, 0, 91, 0
3, 130850, Note_on_c, 0, 59, 0
3, 130856, Note_on_c, 0, 52, 0
3, 130958, Note_on_c, 0, 52, 64
3, 130962, Note_on_c, 0, 59, 57
3, 130964, Note_on_c, 0, 55, 67
3, 130964, Note_on_c, 0, 62, 70
3, 130966, Note_on_c, 0, 86, 88
3, 130968, Control_c, 0, 64, 0
3, 130968, Note_on_c, 0, 98, 85
3, 130988, Note_on_c, 0, 88, 35
3, 131014, Note_on_c, 0, 88, 0
3, 131018, Control_c, 0, 64, 127
3, 131082, Note_on_c, 0, 52, 0
3, 131088, Note_on_c, 0, 55, 0
3, 131110, Note_on_c, 0, 59, 0
3, 131126, Note_on_c, 0, 62, 0
3, 131140, Note_on_c, 0, 98, 0
3, 131182, Note_on_c, 0, 86, 0
3, 131344, Note_on_c, 0, 90, 77
3, 131348, Note_on_c, 0, 95, 78
3, 131350, Note_on_c, 0, 83, 80
3, 131350, Control_c, 0, 64, 0
3, 131352, Note_on_c, 0, 62, 80
3, 131356, Note_on_c, 0, 63, 64
3, 131358, Note_on_c, 0, 57, 74
3, 131360, Note_on_c, 0, 67, 77
3, 131362, Note_on_c, 0, 94, 45
3, 131384, Note_on_c, 0, 67, 0
3, 131386, Note_on_c, 0, 94, 0
3, 131454, Note_on_c, 0, 91, 33
3, 131518, Note_on_c, 0, 90, 0
3, 131548, Control_c, 0, 64, 127
3, 131554, Note_on_c, 0, 95, 0
3, 131554, Note_on_c, 0, 91, 0
3, 131610, Note_on_c, 0, 83, 0
3, 131648, Note_on_c, 0, 57, 0
3, 131676, Note_on_c, 0, 62, 0
3, 131688, Control_c, 0, 64, 0
3, 131736, Note_on_c, 0, 91, 61
3, 131738, Note_on_c, 0, 62, 37
3, 131738, Note_on_c, 0, 57, 50
3, 131740, Note_on_c, 0, 67, 60
3, 131744, Note_on_c, 0, 86, 68
3, 131744, Note_on_c, 0, 79, 53
3, 131756, Note_on_c, 0, 87, 35
3, 131768, Control_c, 0, 64, 127
3, 131784, Note_on_c, 0, 62, 0
3, 131792, Note_on_c, 0, 67, 0
3, 131826, Note_on_c, 0, 63, 0
3, 131844, Note_on_c, 0, 57, 0
3, 131856, Note_on_c, 0, 91, 0
3, 131870, Note_on_c, 0, 86, 0
3, 131878, Note_on_c, 0, 87, 0
3, 131898, Note_on_c, 0, 79, 0
3, 132116, Note_on_c, 0, 52, 47
3, 132118, Note_on_c, 0, 83, 60
3, 132120, Note_on_c, 0, 71, 70
3, 132122, Note_on_c, 0, 62, 53
3, 132122, Control_c, 0, 64, 0
3, 132128, Note_on_c, 0, 59, 44
3, 132136, Note_on_c, 0, 55, 55
3, 132268, Control_c, 0, 64, 127
3, 132308, Note_on_c, 0, 71, 0
3, 132336, Note_on_c, 0, 83, 0
3, 132354, Note_on_c, 0, 55, 0
3, 132360, Note_on_c, 0, 59, 0
3, 132360, Note_on_c, 0, 62, 0
3, 132374, Note_on_c, 0, 52, 0
3, 132452, Control_c, 0, 64, 0
3, 132478, Note_on_c, 0, 59, 62
3, 132480, Note_on_c, 0, 52, 66
3, 132480, Note_on_c, 0, 74, 63
3, 132482, Note_on_c, 0, 85, 57
3, 132482, Note_on_c, 0, 62, 72
3, 132484, Note_on_c, 0, 88, 71
3, 132484, Note_on_c, 0, 76, 74
3, 132486, Note_on_c, 0, 55, 66
3, 132486, Note_on_c, 0, 86, 78
3, 132494, Note_on_c, 0, 81, 50
3, 132614, Control_c, 0, 64, 127
3, 132630, Note_on_c, 0, 85, 0
3, 132636, Note_on_c, 0, 88, 0
3, 132648, Note_on_c, 0, 52, 0
3, 132660, Note_on_c, 0, 81, 0
3, 132672, Note_on_c, 0, 55, 0
3, 132674, Note_on_c, 0, 59, 0
3, 132690, Note_on_c, 0, 76, 0
3, 132702, Note_on_c, 0, 86, 0
3, 132716, Note_on_c, 0, 62, 0
3, 132738, Note_on_c, 0, 74, 0
3, 132860, Control_c, 0, 64, 0
3, 132868, Note_on_c, 0, 55, 62
3, 132874, Note_on_c, 0, 80, 55
3, 132876, Note_on_c, 0, 65, 53
3, 132880, Note_on_c, 0, 61, 42
3, 132880, Note_on_c, 0, 84, 62
3, 132880, Note_on_c, 0, 72, 48
3, 132896, Note_on_c, 0, 78, 30
3, 132922, Note_on_c, 0, 78, 0
3, 133010, Control_c, 0, 64, 127
3, 133014, Note_on_c, 0, 80, 0
3, 133014, Note_on_c, 0, 81, 36
3, 133050, Note_on_c, 0, 81, 0
3, 133068, Note_on_c, 0, 84, 0
3, 133094, Note_on_c, 0, 72, 0
3, 133130, Note_on_c, 0, 65, 0
3, 133148, Note_on_c, 0, 55, 0
3, 133184, Note_on_c, 0, 61, 0
3, 133208, Control_c, 0, 64, 0
3, 133248, Note_on_c, 0, 55, 55
3, 133254, Note_on_c, 0, 65, 54
3, 133258, Note_on_c, 0, 81, 51
3, 133258, Note_on_c, 0, 61, 33
3, 133260, Note_on_c, 0, 77, 49
3, 133262, Note_on_c, 0, 69, 55
3, 133314, Control_c, 0, 64, 127
3, 133382, Note_on_c, 0, 81, 0
3, 133390, Note_on_c, 0, 77, 0
3, 133434, Note_on_c, 0, 69, 0
3, 133440, Note_on_c, 0, 65, 0
3, 133574, Note_on_c, 0, 55, 0
3, 133610, Note_on_c, 0, 61, 0
3, 133634, Note_on_c, 0, 76, 60
3, 133636, Note_on_c, 0, 65, 64
3, 133642, Note_on_c, 0, 72, 32
3, 133642, Note_on_c, 0, 69, 57
3, 133644, Control_c, 0, 64, 0
3, 133652, Note_on_c, 0, 64, 57
3, 133676, Note_on_c, 0, 69, 0
3, 133682, Note_on_c, 0, 65, 0
3, 133688, Note_on_c, 0, 72, 0
3, 133706, Note_on_c, 0, 76, 0
3, 133748, Note_on_c, 0, 64, 0
3, 133764, Note_on_c, 0, 63, 49
3, 133846, Note_on_c, 0, 63, 0
3, 133876, Note_on_c, 0, 62, 33
3, 133918, Note_on_c, 0, 74, 68
3, 133924, Note_on_c, 0, 69, 74
3, 133926, Note_on_c, 0, 65, 60
3, 133982, Note_on_c, 0, 61, 48
3, 133996, Note_on_c, 0, 65, 0
3, 133998, Note_on_c, 0, 62, 0
3, 134016, Note_on_c, 0, 74, 0
3, 134018, Note_on_c, 0, 69, 0
3, 134124, Note_on_c, 0, 61, 0
3, 134144, Note_on_c, 0, 72, 41
3, 134166, Note_on_c, 0, 60, 33
3, 134190, Note_on_c, 0, 69, 24
3, 134192, Note_on_c, 0, 62, 24
3, 134198, Note_on_c, 0, 65, 17
3, 134272, Note_on_c, 0, 62, 0
3, 134280, Note_on_c, 0, 69, 0
3, 134280, Note_on_c, 0, 65, 0
3, 134308, Note_on_c, 0, 72, 0
3, 134356, Note_on_c, 0, 60, 0
3, 134424, Note_on_c, 0, 62, 46
3, 134424, Note_on_c, 0, 69, 47
3, 134430, Note_on_c, 0, 65, 50
3, 134430, Note_on_c, 0, 60, 49
3, 134452, Note_on_c, 0, 57, 40
3, 134518, Note_on_c, 0, 65, 0
3, 134540, Note_on_c, 0, 62, 0
3, 134550, Note_on_c, 0, 69, 0
3, 134578, Note_on_c, 0, 60, 0
3, 134654, Control_c, 0, 64, 127
3, 134668, Note_on_c, 0, 57, 0
3, 134674, Control_c, 0, 64, 0
3, 134686, Note_on_c, 0, 60, 58
3, 134688, Note_on_c, 0, 62, 51
3, 134692, Note_on_c, 0, 65, 37
3, 134696, Note_on_c, 0, 57, 26
3, 134702, Note_on_c, 0, 53, 44
3, 134770, Note_on_c, 0, 53, 0
3, 134772, Note_on_c, 0, 57, 0
3, 134794, Note_on_c, 0, 60, 0
3, 134820, Note_on_c, 0, 65, 0
3, 134820, Note_on_c, 0, 62, 0
3, 134858, Control_c, 0, 64, 127
3, 135026, Note_on_c, 0, 31, 64
3, 135028, Control_c, 0, 64, 0
3, 135080, Note_on_c, 0, 31, 0
3, 135120, Control_c, 0, 64, 127
3, 135450, Note_on_c, 0, 82, 75
3, 135454, Note_on_c, 0, 75, 80
3, 135462, Note_on_c, 0, 70, 92
3, 135464, Note_on_c, 0, 79, 65
3, 135468, Note_on_c, 0, 71, 82
3, 135494, Control_c, 0, 64, 0
3, 135608, Note_on_c, 0, 79, 0
3, 135616, Note_on_c, 0, 70, 0
3, 135638, Note_on_c, 0, 69, 63
3, 135644, Note_on_c, 0, 82, 0
3, 135660, Note_on_c, 0, 75, 0
3, 135682, Note_on_c, 0, 71, 0
3, 135720, Control_c, 0, 64, 127
3, 135722, Note_on_c, 0, 69, 0
3, 135756, Note_on_c, 0, 68, 56
3, 135818, Control_c, 0, 64, 0
3, 135868, Note_on_c, 0, 68, 0
3, 135910, Note_on_c, 0, 71, 71
3, 135912, Note_on_c, 0, 75, 60
3, 135912, Note_on_c, 0, 79, 61
3, 135920, Note_on_c, 0, 67, 59
3, 136080, Note_on_c, 0, 79, 0
3, 136120, Note_on_c, 0, 71, 0
3, 136130, Note_on_c, 0, 75, 0
3, 136150, Control_c, 0, 64, 127
3, 136178, Note_on_c, 0, 67, 0
3, 136182, Note_on_c, 0, 74, 62
3, 136184, Note_on_c, 0, 71, 55
3, 136184, Note_on_c, 0, 77, 60
3, 136188, Note_on_c, 0, 65, 62
3, 136212, Control_c, 0, 64, 0
3, 136270, Note_on_c, 0, 71, 0
3, 136292, Note_on_c, 0, 65, 0
3, 136298, Note_on_c, 0, 74, 0
3, 136310, Note_on_c, 0, 77, 0
3, 136328, Note_on_c, 0, 62, 39
3, 136552, Note_on_c, 0, 62, 0
3, 136572, Note_on_c, 0, 75, 50
3, 136580, Note_on_c, 0, 66, 42
3, 136582, Note_on_c, 0, 70, 56
3, 136588, Note_on_c, 0, 63, 55
3, 136664, Note_on_c, 0, 66, 0
3, 136666, Note_on_c, 0, 70, 0
3, 136680, Note_on_c, 0, 75, 0
3, 136728, Note_on_c, 0, 76, 48
3, 136730, Note_on_c, 0, 67, 40
3, 136738, Note_on_c, 0, 63, 0
3, 136738, Note_on_c, 0, 71, 50
3, 136748, Note_on_c, 0, 64, 51
3, 136826, Note_on_c, 0, 71, 0
3, 136832, Note_on_c, 0, 76, 0
3, 136840, Note_on_c, 0, 67, 0
3, 136864, Note_on_c, 0, 64, 0
3, 136926, Control_c, 0, 64, 127
3, 136974, Note_on_c, 0, 79, 60
3, 136974, Note_on_c, 0, 74, 63
3, 136976, Note_on_c, 0, 67, 64
3, 136976, Note_on_c, 0, 69, 62
3, 136996, Control_c, 0, 64, 0
3, 137028, Note_on_c, 0, 69, 0
3, 137050, Note_on_c, 0, 67, 0
3, 137072, Note_on_c, 0, 79, 0
3, 137074, Note_on_c, 0, 74, 0
3, 137152, Control_c, 0, 64, 127
3, 137340, Note_on_c, 0, 50, 48
3, 137388, Note_on_c, 0, 50, 0
3, 137442, Control_c, 0, 64, 0
3, 137484, Note_on_c, 0, 63, 69
3, 137484, Note_on_c, 0, 67, 71
3, 137490, Note_on_c, 0, 74, 68
3, 137490, Note_on_c, 0, 71, 61
3, 137502, Note_on_c, 0, 62, 71
3, 137608, Note_on_c, 0, 63, 0
3, 137622, Note_on_c, 0, 67, 0
3, 137628, Note_on_c, 0, 71, 0
3, 137634, Note_on_c, 0, 74, 0
3, 137676, Note_on_c, 0, 62, 0
3, 137866, Note_on_c, 0, 72, 39
3, 137870, Note_on_c, 0, 60, 56
3, 137872, Note_on_c, 0, 67, 59
3, 137872, Note_on_c, 0, 63, 50
3, 137950, Control_c, 0, 64, 127
3, 137958, Note_on_c, 0, 60, 0
3, 138028, Note_on_c, 0, 67, 0
3, 138064, Note_on_c, 0, 63, 0
3, 138084, Note_on_c, 0, 72, 0
3, 138190, Control_c, 0, 64, 0
3, 138246, Note_on_c, 0, 67, 50
3, 138248, Note_on_c, 0, 52, 43
3, 138256, Note_on_c, 0, 62, 37
3, 138276, Note_on_c, 0, 59, 24
3, 138340, Control_c, 0, 64, 127
3, 138378, Note_on_c, 0, 62, 0
3, 138504, Note_on_c, 0, 67, 0
3, 138536, Control_c, 0, 64, 0
3, 138538, Note_on_c, 0, 62, 59
3, 138590, Note_on_c, 0, 62, 0
3, 138620, Control_c, 0, 64, 127
3, 138622, Note_on_c, 0, 52, 0
3, 138642, Note_on_c, 0, 59, 0
3, 138968, Control_c, 0, 64, 0
3, 139018, Note_on_c, 0, 75, 83
3, 139024, Note_on_c, 0, 63, 60
3, 139026, Note_on_c, 0, 71, 87
3, 139026, Note_on_c, 0, 79, 74
3, 139030, Note_on_c, 0, 53, 39
3, 139074, Note_on_c, 0, 71, 0
3, 139082, Note_on_c, 0, 79, 0
3, 139112, Note_on_c, 0, 75, 0
3, 139116, Note_on_c, 0, 63, 0
3, 139156, Note_on_c, 0, 77, 35
3, 139158, Note_on_c, 0, 69, 36
3, 139162, Note_on_c, 0, 73, 37
3, 139188, Note_on_c, 0, 69, 0
3, 139204, Note_on_c, 0, 59, 22
3, 139218, Note_on_c, 0, 77, 0
3, 139222, Note_on_c, 0, 73, 0
3, 139264, Note_on_c, 0, 75, 70
3, 139268, Note_on_c, 0, 71, 75
3, 139270, Note_on_c, 0, 79, 65
3, 139282, Note_on_c, 0, 63, 55
3, 139292, Note_on_c, 0, 78, 26
3, 139314, Note_on_c, 0, 78, 0
3, 139344, Note_on_c, 0, 71, 0
3, 139350, Note_on_c, 0, 79, 0
3, 139370, Note_on_c, 0, 75, 0
3, 139402, Note_on_c, 0, 63, 0
3, 139420, Note_on_c, 0, 77, 38
3, 139428, Note_on_c, 0, 73, 30
3, 139428, Note_on_c, 0, 69, 38
3, 139454, Note_on_c, 0, 53, 0
3, 139478, Note_on_c, 0, 69, 0
3, 139498, Note_on_c, 0, 77, 0
3, 139504, Note_on_c, 0, 73, 0
3, 139508, Control_c, 0, 64, 127
3, 139526, Note_on_c, 0, 59, 0
3, 139544, Note_on_c, 0, 79, 64
3, 139552, Note_on_c, 0, 75, 45
3, 139558, Note_on_c, 0, 71, 55
3, 139622, Note_on_c, 0, 75, 0
3, 139628, Note_on_c, 0, 79, 0
3, 139674, Note_on_c, 0, 77, 34
3, 139704, Note_on_c, 0, 71, 0
3, 139756, Note_on_c, 0, 77, 0
3, 139790, Control_c, 0, 64, 0
3, 139796, Note_on_c, 0, 62, 55
3, 139798, Note_on_c, 0, 57, 48
3, 139810, Note_on_c, 0, 58, 39
3, 140028, Note_on_c, 0, 58, 0
3, 140104, Note_on_c, 0, 58, 34
3, 140148, Note_on_c, 0, 62, 0
3, 140150, Note_on_c, 0, 58, 0
3, 140192, Note_on_c, 0, 69, 54
3, 140192, Note_on_c, 0, 81, 54
3, 140196, Note_on_c, 0, 74, 40
3, 140254, Note_on_c, 0, 81, 0
3, 140260, Note_on_c, 0, 69, 0
3, 140272, Note_on_c, 0, 74, 0
3, 140278, Note_on_c, 0, 79, 34
3, 140294, Note_on_c, 0, 57, 0
3, 140368, Note_on_c, 0, 79, 0
3, 140436, Note_on_c, 0, 81, 62
3, 140436, Note_on_c, 0, 74, 51
3, 140442, Note_on_c, 0, 69, 57
3, 140444, Note_on_c, 0, 57, 24
3, 140448, Note_on_c, 0, 62, 36
3, 140450, Note_on_c, 0, 58, 40
3, 140450, Note_on_c, 0, 77, 48
3, 140520, Note_on_c, 0, 77, 0
3, 140522, Note_on_c, 0, 69, 0
3, 140532, Note_on_c, 0, 62, 0
3, 140540, Note_on_c, 0, 74, 0
3, 140546, Note_on_c, 0, 81, 0
3, 140568, Note_on_c, 0, 58, 0
3, 140570, Note_on_c, 0, 57, 0
3, 140582, Note_on_c, 0, 79, 43
3, 140658, Note_on_c, 0, 79, 0
3, 140710, Note_on_c, 0, 81, 69
3, 140720, Note_on_c, 0, 69, 55
3, 140724, Note_on_c, 0, 74, 47
3, 140758, Control_c, 0, 64, 127
3, 140772, Note_on_c, 0, 74, 0
3, 140780, Note_on_c, 0, 69, 0
3, 140806, Note_on_c, 0, 81, 0
3, 140846, Note_on_c, 0, 79, 54
3, 140870, Control_c, 0, 64, 0
3, 140874, Note_on_c, 0, 62, 34
3, 140882, Note_on_c, 0, 58, 35
3, 140886, Note_on_c, 0, 77, 22
3, 140918, Note_on_c, 0, 77, 0
3, 140918, Note_on_c, 0, 79, 0
3, 140932, Note_on_c, 0, 62, 0
3, 140968, Note_on_c, 0, 81, 66
3, 140982, Note_on_c, 0, 58, 0
3, 140986, Note_on_c, 0, 69, 49
3, 140988, Control_c, 0, 64, 127
3, 141072, Note_on_c, 0, 69, 0
3, 141116, Note_on_c, 0, 81, 0
3, 141150, Note_on_c, 0, 77, 53
3, 141220, Note_on_c, 0, 77, 0
3, 141234, Control_c, 0, 64, 0
3, 141284, Note_on_c, 0, 58, 37
3, 141292, Note_on_c, 0, 52, 46
3, 141348, Control_c, 0, 64, 127
3, 141362, Note_on_c, 0, 52, 0
3, 141380, Note_on_c, 0, 58, 0
3, 141678, Control_c, 0, 64, 0
3, 141682, Note_on_c, 0, 66, 48
3, 141682, Note_on_c, 0, 70, 60
3, 141772, Note_on_c, 0, 70, 0
3, 141804, Note_on_c, 0, 66, 0
3, 141812, Note_on_c, 0, 72, 53
3, 141866, Note_on_c, 0, 72, 0
3, 141938, Note_on_c, 0, 74, 63
3, 142020, Note_on_c, 0, 74, 0
3, 142070, Note_on_c, 0, 76, 55
3, 142102, Note_on_c, 0, 76, 0
3, 142196, Note_on_c, 0, 70, 57
3, 142210, Note_on_c, 0, 68, 35
3, 142216, Note_on_c, 0, 66, 33
3, 142256, Note_on_c, 0, 70, 0
3, 142260, Note_on_c, 0, 68, 0
3, 142276, Note_on_c, 0, 66, 0
3, 142336, Note_on_c, 0, 84, 64
3, 142392, Note_on_c, 0, 84, 0
3, 142464, Note_on_c, 0, 86, 71
3, 142524, Note_on_c, 0, 86, 0
3, 142590, Note_on_c, 0, 88, 74
3, 142664, Note_on_c, 0, 88, 0
3, 142718, Note_on_c, 0, 91, 74
3, 142806, Note_on_c, 0, 91, 0
3, 142814, Note_on_c, 0, 41, 55
3, 142850, Note_on_c, 0, 88, 56
3, 142868, Note_on_c, 0, 41, 0
3, 142930, Note_on_c, 0, 88, 0
3, 142976, Note_on_c, 0, 84, 53
3, 143018, Note_on_c, 0, 84, 0
3, 143094, Note_on_c, 0, 64, 57
3, 143096, Note_on_c, 0, 86, 82
3, 143110, Note_on_c, 0, 57, 54
3, 143118, Note_on_c, 0, 53, 24
3, 143130, Note_on_c, 0, 60, 29
3, 143178, Note_on_c, 0, 86, 0
3, 143230, Note_on_c, 0, 81, 34
3, 143310, Note_on_c, 0, 60, 0
3, 143328, Note_on_c, 0, 81, 0
3, 143366, Note_on_c, 0, 64, 0
3, 143368, Note_on_c, 0, 84, 68
3, 143488, Note_on_c, 0, 84, 0
3, 143500, Note_on_c, 0, 57, 0
3, 143542, Note_on_c, 0, 53, 0
3, 143874, Note_on_c, 0, 67, 59
3, 143880, Note_on_c, 0, 57, 54
3, 143882, Note_on_c, 0, 62, 55
3, 143906, Note_on_c, 0, 67, 0
3, 143922, Note_on_c, 0, 57, 0
3, 143962, Note_on_c, 0, 62, 0
3, 144012, Note_on_c, 0, 79, 41
3, 144052, Note_on_c, 0, 79, 0
3, 144146, Note_on_c, 0, 81, 44
3, 144212, Note_on_c, 0, 81, 0
3, 144264, Note_on_c, 0, 84, 89
3, 144354, Note_on_c, 0, 84, 0
3, 144386, Note_on_c, 0, 63, 35
3, 144398, Note_on_c, 0, 84, 29
3, 144404, Note_on_c, 0, 60, 33
3, 144406, Note_on_c, 0, 80, 51
3, 144444, Note_on_c, 0, 60, 0
3, 144464, Note_on_c, 0, 63, 0
3, 144510, Note_on_c, 0, 80, 0
3, 144512, Note_on_c, 0, 84, 0
3, 144536, Note_on_c, 0, 77, 36
3, 144590, Note_on_c, 0, 77, 0
3, 144648, Note_on_c, 0, 84, 73
3, 144654, Note_on_c, 0, 79, 75
3, 144740, Note_on_c, 0, 79, 0
3, 144748, Note_on_c, 0, 84, 0
3, 144782, Note_on_c, 0, 77, 40
3, 144926, Note_on_c, 0, 74, 70
3, 144950, Note_on_c, 0, 77, 0
3, 144976, Note_on_c, 0, 74, 0
3, 145180, Note_on_c, 0, 67, 60
3, 145180, Note_on_c, 0, 56, 45
3, 145192, Note_on_c, 0, 62, 58
3, 145618, Note_on_c, 0, 62, 0
3, 145654, Note_on_c, 0, 56, 0
3, 145674, Note_on_c, 0, 67, 0
3, 145812, Note_on_c, 0, 67, 51
3, 145812, Note_on_c, 0, 62, 53
3, 145822, Note_on_c, 0, 64, 45
3, 145862, Note_on_c, 0, 67, 0
3, 145916, Note_on_c, 0, 64, 0
3, 145946, Note_on_c, 0, 76, 66
3, 145954, Note_on_c, 0, 62, 0
3, 146024, Note_on_c, 0, 76, 0
3, 146070, Note_on_c, 0, 77, 66
3, 146154, Note_on_c, 0, 77, 0
3, 146196, Note_on_c, 0, 79, 72
3, 146208, Note_on_c, 0, 67, 49
3, 146226, Note_on_c, 0, 64, 38
3, 146226, Note_on_c, 0, 62, 43
3, 146236, Note_on_c, 0, 77, 24
3, 146242, Note_on_c, 0, 67, 0
3, 146266, Note_on_c, 0, 64, 0
3, 146284, Note_on_c, 0, 77, 0
3, 146312, Note_on_c, 0, 79, 0
3, 146324, Note_on_c, 0, 72, 51
3, 146412, Note_on_c, 0, 62, 0
3, 146512, Note_on_c, 0, 72, 0
3, 146580, Note_on_c, 0, 72, 45
3, 146634, Note_on_c, 0, 72, 0
3, 146684, Note_on_c, 0, 61, 42
3, 146710, Note_on_c, 0, 74, 66
3, 146716, Note_on_c, 0, 56, 34
3, 146730, Note_on_c, 0, 67, 25
3, 146744, Note_on_c, 0, 61, 0
3, 146786, Note_on_c, 0, 74, 0
3, 146824, Note_on_c, 0, 67, 0
3, 146850, Note_on_c, 0, 76, 53
3, 146910, Note_on_c, 0, 76, 0
3, 146914, Note_on_c, 0, 56, 0
3, 147360, Note_on_c, 0, 61, 39
3, 147384, Note_on_c, 0, 55, 28
3, 147424, Note_on_c, 0, 55, 0
3, 147438, Note_on_c, 0, 61, 0
3, 147728, Note_on_c, 0, 61, 65
3, 147728, Note_on_c, 0, 60, 73
3, 147736, Note_on_c, 0, 65, 74
3, 147740, Note_on_c, 0, 55, 70
3, 147758, Note_on_c, 0, 58, 28
3, 147878, Note_on_c, 0, 69, 31
3, 147970, Note_on_c, 0, 60, 0
3, 148004, Note_on_c, 0, 65, 0
3, 148012, Note_on_c, 0, 55, 0
3, 148026, Note_on_c, 0, 69, 0
3, 148056, Note_on_c, 0, 58, 0
3, 148082, Note_on_c, 0, 61, 0
3, 148118, Note_on_c, 0, 54, 71
3, 148118, Note_on_c, 0, 64, 76
3, 148120, Note_on_c, 0, 60, 76
3, 148124, Note_on_c, 0, 72, 68
3, 148314, Control_c, 0, 64, 127
3, 148380, Note_on_c, 0, 60, 0
3, 148388, Note_on_c, 0, 64, 0
3, 148402, Note_on_c, 0, 54, 0
3, 148498, Note_on_c, 0, 72, 0
3, 148500, Note_on_c, 0, 54, 60
3, 148504, Note_on_c, 0, 64, 62
3, 148510, Note_on_c, 0, 60, 62
3, 148534, Note_on_c, 0, 64, 0
3, 148554, Note_on_c, 0, 60, 0
3, 148584, Note_on_c, 0, 54, 0
3, 148588, Control_c, 0, 64, 0
3, 148634, Note_on_c, 0, 74, 68
3, 148726, Note_on_c, 0, 74, 0
3, 148844, Note_on_c, 0, 50, 44
3, 148872, Note_on_c, 0, 75, 62
3, 148940, Note_on_c, 0, 75, 0
3, 148982, Note_on_c, 0, 50, 0
3, 148994, Note_on_c, 0, 75, 46
3, 149008, Note_on_c, 0, 66, 46
3, 149022, Note_on_c, 0, 55, 38
3, 149058, Note_on_c, 0, 55, 0
3, 149116, Note_on_c, 0, 75, 0
3, 149134, Note_on_c, 0, 66, 0
3, 149144, Note_on_c, 0, 67, 55
3, 149216, Note_on_c, 0, 67, 0
3, 149234, Note_on_c, 0, 76, 42
3, 149290, Note_on_c, 0, 67, 46
3, 149306, Note_on_c, 0, 76, 0
3, 149376, Note_on_c, 0, 67, 0
3, 149386, Note_on_c, 0, 76, 35
3, 149440, Note_on_c, 0, 67, 44
3, 149464, Note_on_c, 0, 76, 0
3, 149546, Note_on_c, 0, 67, 0
3, 149602, Note_on_c, 0, 55, 88
3, 149880, Control_c, 0, 64, 127
3, 149986, Control_c, 0, 64, 0
3, 149988, Note_on_c, 0, 43, 62
3, 150056, Note_on_c, 0, 43, 0
3, 150068, Note_on_c, 0, 55, 0
3, 150084, Control_c, 0, 64, 127
3, 150384, Note_on_c, 0, 76, 87
3, 150388, Note_on_c, 0, 67, 90
3, 150452, Note_on_c, 0, 67, 0
3, 150468, Note_on_c, 0, 76, 0
3, 150594, Control_c, 0, 64, 0
3, 150598, Note_on_c, 0, 68, 77
3, 150598, Note_on_c, 0, 77, 73
3, 150602, Note_on_c, 0, 65, 62
3, 150606, Note_on_c, 0, 55, 54
3, 150626, Note_on_c, 0, 56, 33
3, 150626, Note_on_c, 0, 60, 33
3, 150664, Note_on_c, 0, 65, 0
3, 150666, Note_on_c, 0, 60, 0
3, 150706, Note_on_c, 0, 68, 0
3, 150714, Note_on_c, 0, 77, 0
3, 150716, Note_on_c, 0, 69, 60
3, 150760, Note_on_c, 0, 55, 0
3, 150768, Note_on_c, 0, 56, 0
3, 150798, Note_on_c, 0, 69, 0
3, 150808, Note_on_c, 0, 77, 31
3, 150862, Note_on_c, 0, 69, 42
3, 150886, Note_on_c, 0, 77, 0
3, 150958, Note_on_c, 0, 69, 0
3, 150970, Note_on_c, 0, 77, 49
3, 151048, Note_on_c, 0, 69, 44
3, 151058, Note_on_c, 0, 77, 0
3, 151108, Control_c, 0, 64, 127
3, 151110, Note_on_c, 0, 69, 0
3, 151206, Control_c, 0, 64, 0
3, 151210, Note_on_c, 0, 64, 77
3, 151212, Note_on_c, 0, 53, 72
3, 151212, Note_on_c, 0, 59, 71
3, 151362, Control_c, 0, 64, 127
3, 151492, Note_on_c, 0, 59, 0
3, 151604, Note_on_c, 0, 59, 36
3, 151620, Note_on_c, 0, 64, 0
3, 151650, Note_on_c, 0, 53, 0
3, 151658, Note_on_c, 0, 59, 0
3, 151962, Note_on_c, 0, 60, 60
3, 151966, Note_on_c, 0, 77, 77
3, 151966, Note_on_c, 0, 55, 62
3, 151966, Note_on_c, 0, 64, 49
3, 151968, Note_on_c, 0, 69, 87
3, 151972, Note_on_c, 0, 65, 34
3, 151992, Note_on_c, 0, 64, 0
3, 151996, Note_on_c, 0, 65, 0
3, 152018, Control_c, 0, 64, 0
3, 152024, Note_on_c, 0, 69, 0
3, 152026, Note_on_c, 0, 60, 0
3, 152062, Note_on_c, 0, 77, 0
3, 152074, Note_on_c, 0, 55, 0
3, 152180, Note_on_c, 0, 71, 81
3, 152182, Note_on_c, 0, 79, 76
3, 152192, Note_on_c, 0, 55, 80
3, 152198, Note_on_c, 0, 54, 54
3, 152246, Note_on_c, 0, 54, 0
3, 152248, Note_on_c, 0, 71, 0
3, 152298, Note_on_c, 0, 79, 0
3, 152318, Note_on_c, 0, 71, 48
3, 152388, Note_on_c, 0, 79, 31
3, 152390, Note_on_c, 0, 71, 0
3, 152442, Control_c, 0, 64, 127
3, 152446, Note_on_c, 0, 71, 37
3, 152462, Note_on_c, 0, 79, 0
3, 152556, Note_on_c, 0, 71, 0
3, 152560, Note_on_c, 0, 79, 37
3, 152630, Note_on_c, 0, 71, 50
3, 152632, Note_on_c, 0, 79, 0
3, 152686, Note_on_c, 0, 43, 58
3, 152712, Note_on_c, 0, 43, 0
3, 152720, Note_on_c, 0, 71, 0
3, 152722, Note_on_c, 0, 79, 36
3, 152750, Note_on_c, 0, 55, 0
3, 152786, Note_on_c, 0, 71, 48
3, 152792, Note_on_c, 0, 79, 0
3, 152884, Note_on_c, 0, 71, 0
3, 152884, Note_on_c, 0, 79, 27
3, 152970, Note_on_c, 0, 79, 0
3, 152976, Note_on_c, 0, 71, 60
3, 153034, Note_on_c, 0, 64, 61
3, 153042, Note_on_c, 0, 60, 54
3, 153044, Note_on_c, 0, 55, 50
3, 153068, Note_on_c, 0, 71, 0
3, 153078, Control_c, 0, 64, 0
3, 153084, Note_on_c, 0, 79, 53
3, 153156, Note_on_c, 0, 71, 35
3, 153168, Control_c, 0, 64, 127
3, 153176, Note_on_c, 0, 79, 0
3, 153256, Note_on_c, 0, 60, 0
3, 153266, Note_on_c, 0, 71, 0
3, 153310, Note_on_c, 0, 64, 0
3, 153332, Note_on_c, 0, 55, 0
3, 153448, Note_on_c, 0, 77, 81
3, 153450, Control_c, 0, 64, 0
3, 153452, Note_on_c, 0, 81, 80
3, 153452, Note_on_c, 0, 53, 84
3, 153454, Note_on_c, 0, 59, 78
3, 153454, Note_on_c, 0, 69, 95
3, 153456, Note_on_c, 0, 64, 83
3, 153574, Control_c, 0, 64, 127
3, 153776, Note_on_c, 0, 77, 0
3, 153792, Note_on_c, 0, 81, 0
3, 153828, Note_on_c, 0, 69, 0
3, 153838, Note_on_c, 0, 59, 0
3, 153844, Note_on_c, 0, 64, 0
3, 153866, Note_on_c, 0, 53, 0
3, 153964, Note_on_c, 0, 82, 71
3, 153968, Note_on_c, 0, 70, 74
3, 153972, Note_on_c, 0, 53, 68
3, 153974, Note_on_c, 0, 75, 65
3, 153976, Note_on_c, 0, 64, 62
3, 153976, Control_c, 0, 64, 0
3, 153978, Note_on_c, 0, 59, 65
3, 154120, Note_on_c, 0, 64, 0
3, 154120, Note_on_c, 0, 75, 0
3, 154136, Note_on_c, 0, 70, 0
3, 154136, Note_on_c, 0, 59, 0
3, 154144, Note_on_c, 0, 82, 0
3, 154146, Note_on_c, 0, 53, 0
3, 154360, Note_on_c, 0, 63, 61
3, 154366, Note_on_c, 0, 53, 59
3, 154370, Note_on_c, 0, 76, 60
3, 154372, Note_on_c, 0, 59, 56
3, 154372, Note_on_c, 0, 71, 66
3, 154374, Note_on_c, 0, 83, 57
3, 154384, Note_on_c, 0, 56, 34
3, 154392, Control_c, 0, 64, 127
3, 154394, Note_on_c, 0, 79, 36
3, 154436, Note_on_c, 0, 71, 0
3, 154440, Note_on_c, 0, 79, 0
3, 154446, Note_on_c, 0, 76, 0
3, 154458, Note_on_c, 0, 63, 0
3, 154478, Note_on_c, 0, 59, 0
3, 154482, Note_on_c, 0, 53, 0
3, 154482, Note_on_c, 0, 83, 0
3, 154488, Note_on_c, 0, 56, 0
3, 154648, Note_on_c, 0, 86, 47
3, 154668, Note_on_c, 0, 59, 31
3, 154678, Note_on_c, 0, 86, 0
3, 154696, Note_on_c, 0, 59, 0
3, 154702, Control_c, 0, 64, 0
3, 154758, Note_on_c, 0, 63, 59
3, 154760, Note_on_c, 0, 59, 45
3, 154760, Note_on_c, 0, 53, 61
3, 154772, Note_on_c, 0, 91, 60
3, 154774, Note_on_c, 0, 79, 51
3, 154786, Note_on_c, 0, 56, 29
3, 154788, Control_c, 0, 64, 127
3, 154798, Note_on_c, 0, 79, 0
3, 154800, Note_on_c, 0, 91, 0
3, 154824, Note_on_c, 0, 63, 0
3, 154842, Note_on_c, 0, 59, 0
3, 154850, Note_on_c, 0, 56, 0
3, 154884, Note_on_c, 0, 53, 0
3, 155024, Note_on_c, 0, 63, 45
3, 155026, Note_on_c, 0, 59, 64
3, 155028, Note_on_c, 0, 98, 89
3, 155030, Note_on_c, 0, 86, 91
3, 155038, Note_on_c, 0, 56, 39
3, 155052, Note_on_c, 0, 94, 32
3, 155064, Note_on_c, 0, 63, 0
3, 155076, Note_on_c, 0, 94, 0
3, 155080, Note_on_c, 0, 86, 0
3, 155106, Note_on_c, 0, 56, 0
3, 155118, Note_on_c, 0, 98, 0
3, 155180, Note_on_c, 0, 62, 53
3, 155182, Note_on_c, 0, 55, 52
3, 155184, Control_c, 0, 64, 0
3, 155190, Note_on_c, 0, 52, 53
3, 155218, Note_on_c, 0, 96, 57
3, 155232, Note_on_c, 0, 84, 42
3, 155360, Control_c, 0, 64, 127
3, 155422, Control_c, 0, 64, 0
3, 155436, Note_on_c, 0, 62, 0
3, 155438, Note_on_c, 0, 59, 0
3, 155438, Note_on_c, 0, 84, 0
3, 155448, Note_on_c, 0, 96, 0
3, 155452, Note_on_c, 0, 55, 0
3, 155456, Note_on_c, 0, 52, 0
3, 155538, Note_on_c, 0, 52, 50
3, 155548, Note_on_c, 0, 62, 66
3, 155548, Note_on_c, 0, 59, 56
3, 155552, Note_on_c, 0, 96, 70
3, 155552, Note_on_c, 0, 55, 58
3, 155564, Note_on_c, 0, 84, 72
3, 155578, Control_c, 0, 64, 127
3, 155636, Note_on_c, 0, 52, 0
3, 155644, Note_on_c, 0, 55, 0
3, 155656, Note_on_c, 0, 96, 0
3, 155666, Note_on_c, 0, 59, 0
3, 155682, Note_on_c, 0, 62, 0
3, 155686, Note_on_c, 0, 84, 0
3, 155916, Control_c, 0, 64, 0
3, 155930, Note_on_c, 0, 91, 81
3, 155932, Note_on_c, 0, 86, 89
3, 155932, Note_on_c, 0, 79, 81
3, 155934, Note_on_c, 0, 63, 60
3, 155934, Note_on_c, 0, 62, 73
3, 155940, Note_on_c, 0, 57, 70
3, 155940, Note_on_c, 0, 67, 74
3, 156130, Control_c, 0, 64, 127
3, 156254, Note_on_c, 0, 67, 0
3, 156264, Note_on_c, 0, 62, 0
3, 156282, Note_on_c, 0, 63, 0
3, 156296, Note_on_c, 0, 57, 0
3, 156646, Control_c, 0, 64, 0
3, 156660, Note_on_c, 0, 62, 45
3, 156672, Note_on_c, 0, 52, 27
3, 156676, Note_on_c, 0, 59, 37
3, 156678, Note_on_c, 0, 55, 45
3, 156822, Control_c, 0, 64, 127
3, 156936, Note_on_c, 0, 79, 0
3, 156960, Note_on_c, 0, 52, 0
3, 156980, Note_on_c, 0, 55, 0
3, 156990, Note_on_c, 0, 59, 0
3, 157002, Note_on_c, 0, 91, 0
3, 157026, Note_on_c, 0, 86, 0
3, 157038, Note_on_c, 0, 62, 0
3, 157428, Control_c, 0, 64, 0
3, 157432, Note_on_c, 0, 92, 86
3, 157436, Note_on_c, 0, 65, 82
3, 157438, Note_on_c, 0, 58, 64
3, 157438, Note_on_c, 0, 55, 80
3, 157438, Note_on_c, 0, 61, 57
3, 157440, Note_on_c, 0, 96, 80
3, 157440, Note_on_c, 0, 84, 84
3, 157442, Note_on_c, 0, 90, 62
3, 157568, Note_on_c, 0, 90, 0
3, 157626, Note_on_c, 0, 84, 0
3, 157632, Note_on_c, 0, 93, 60
3, 157646, Note_on_c, 0, 92, 0
3, 157656, Note_on_c, 0, 93, 0
3, 157662, Note_on_c, 0, 65, 0
3, 157666, Note_on_c, 0, 96, 0
3, 157672, Note_on_c, 0, 55, 0
3, 157694, Note_on_c, 0, 58, 0
3, 157714, Note_on_c, 0, 61, 0
3, 157830, Note_on_c, 0, 92, 83
3, 157836, Note_on_c, 0, 84, 79
3, 157836, Note_on_c, 0, 61, 62
3, 157838, Note_on_c, 0, 65, 72
3, 157838, Note_on_c, 0, 96, 72
3, 157840, Note_on_c, 0, 55, 72
3, 157844, Note_on_c, 0, 58, 53
3, 157926, Control_c, 0, 64, 127
3, 157928, Note_on_c, 0, 93, 30
3, 157984, Note_on_c, 0, 92, 0
3, 157986, Note_on_c, 0, 84, 0
3, 157992, Note_on_c, 0, 96, 0
3, 157994, Note_on_c, 0, 93, 0
3, 158016, Note_on_c, 0, 65, 0
3, 158020, Note_on_c, 0, 55, 0
3, 158064, Note_on_c, 0, 58, 0
3, 158086, Note_on_c, 0, 61, 0
3, 158114, Note_on_c, 0, 81, 67
3, 158124, Control_c, 0, 64, 0
3, 158124, Note_on_c, 0, 93, 49
3, 158130, Note_on_c, 0, 89, 41
3, 158140, Note_on_c, 0, 64, 46
3, 158142, Note_on_c, 0, 60, 44
3, 158142, Note_on_c, 0, 57, 56
3, 158148, Note_on_c, 0, 53, 32
3, 158178, Note_on_c, 0, 89, 0
3, 158180, Note_on_c, 0, 81, 0
3, 158188, Note_on_c, 0, 64, 0
3, 158208, Note_on_c, 0, 93, 0
3, 158218, Note_on_c, 0, 60, 0
3, 158218, Note_on_c, 0, 53, 0
3, 158228, Note_on_c, 0, 57, 0
3, 158320, Control_c, 0, 64, 127
3, 158336, Note_on_c, 0, 92, 74
3, 158344, Note_on_c, 0, 84, 66
3, 158346, Note_on_c, 0, 96, 53
3, 158352, Note_on_c, 0, 53, 50
3, 158354, Note_on_c, 0, 64, 53
3, 158356, Note_on_c, 0, 60, 41
3, 158356, Note_on_c, 0, 57, 49
3, 158356, Note_on_c, 0, 90, 34
3, 158426, Note_on_c, 0, 90, 0
3, 158470, Note_on_c, 0, 93, 44
3, 158474, Note_on_c, 0, 92, 0
3, 158482, Note_on_c, 0, 96, 0
3, 158484, Note_on_c, 0, 64, 0
3, 158488, Note_on_c, 0, 84, 0
3, 158498, Note_on_c, 0, 93, 0
3, 158506, Note_on_c, 0, 57, 0
3, 158514, Note_on_c, 0, 60, 0
3, 158518, Note_on_c, 0, 53, 0
3, 158570, Control_c, 0, 64, 0
3, 158612, Note_on_c, 0, 53, 44
3, 158616, Note_on_c, 0, 60, 53
3, 158618, Note_on_c, 0, 57, 60
3, 158620, Note_on_c, 0, 64, 48
3, 158650, Note_on_c, 0, 93, 32
3, 158660, Note_on_c, 0, 87, 21
3, 158672, Note_on_c, 0, 89, 37
3, 158676, Control_c, 0, 64, 127
3, 158678, Note_on_c, 0, 81, 11
3, 158728, Note_on_c, 0, 89, 0
3, 158742, Note_on_c, 0, 87, 0
3, 158764, Note_on_c, 0, 81, 0
3, 158764, Note_on_c, 0, 93, 0
3, 158780, Note_on_c, 0, 64, 0
3, 158782, Note_on_c, 0, 60, 0
3, 158804, Note_on_c, 0, 57, 0
3, 158804, Note_on_c, 0, 53, 0
3, 158894, Note_on_c, 0, 86, 49
3, 158898, Note_on_c, 0, 74, 41
3, 158904, Note_on_c, 0, 53, 48
3, 158918, Note_on_c, 0, 64, 53
3, 158924, Control_c, 0, 64, 0
3, 158924, Note_on_c, 0, 81, 35
3, 159080, Note_on_c, 0, 64, 0
3, 159130, Note_on_c, 0, 53, 0
3, 159248, Note_on_c, 0, 64, 60
3, 159256, Note_on_c, 0, 60, 52
3, 159260, Note_on_c, 0, 53, 30
3, 159262, Note_on_c, 0, 57, 50
3, 159274, Note_on_c, 0, 64, 0
3, 159280, Note_on_c, 0, 60, 0
3, 159294, Note_on_c, 0, 57, 0
3, 159328, Note_on_c, 0, 53, 0
3, 159338, Note_on_c, 0, 86, 0
3, 159354, Note_on_c, 0, 81, 0
3, 159366, Note_on_c, 0, 74, 0
3, 159608, Note_on_c, 0, 43, 67
3, 159674, Note_on_c, 0, 43, 0
3, 159728, Note_on_c, 0, 53, 58
3, 159742, Note_on_c, 0, 57, 45
3, 159748, Note_on_c, 0, 60, 42
3, 159760, Note_on_c, 0, 64, 17
3, 159828, Note_on_c, 0, 57, 0
3, 159830, Note_on_c, 0, 53, 0
3, 159838, Note_on_c, 0, 64, 0
3, 159846, Note_on_c, 0, 60, 0
3, 160006, Note_on_c, 0, 43, 42
3, 160034, Note_on_c, 0, 43, 0
3, 160378, Note_on_c, 0, 64, 62
3, 160390, Note_on_c, 0, 59, 48
3, 160392, Note_on_c, 0, 53, 42
3, 160402, Note_on_c, 0, 64, 0
3, 160424, Note_on_c, 0, 53, 0
3, 160428, Note_on_c, 0, 59, 0
3, 160478, Note_on_c, 0, 67, 62
3, 160542, Note_on_c, 0, 67, 0
3, 160766, Note_on_c, 0, 72, 72
3, 160778, Note_on_c, 0, 53, 49
3, 160784, Note_on_c, 0, 59, 50
3, 160784, Note_on_c, 0, 64, 40
3, 160812, Note_on_c, 0, 64, 0
3, 160816, Note_on_c, 0, 59, 0
3, 160836, Note_on_c, 0, 72, 0
3, 160848, Note_on_c, 0, 53, 0
3, 160920, Note_on_c, 0, 71, 49
3, 160956, Note_on_c, 0, 71, 0
3, 161166, Note_on_c, 0, 74, 81
3, 161180, Note_on_c, 0, 62, 57
3, 161188, Note_on_c, 0, 52, 33
3, 161198, Note_on_c, 0, 57, 34
3, 161204, Note_on_c, 0, 62, 0
3, 161224, Note_on_c, 0, 52, 0
3, 161226, Note_on_c, 0, 57, 0
3, 161230, Note_on_c, 0, 74, 0
3, 161320, Note_on_c, 0, 72, 45
3, 161500, Note_on_c, 0, 72, 0
3, 161564, Note_on_c, 0, 57, 24
3, 161588, Note_on_c, 0, 57, 0
3, 161654, Note_on_c, 0, 67, 54
3, 161708, Note_on_c, 0, 67, 0
3, 161928, Note_on_c, 0, 74, 85
3, 162016, Note_on_c, 0, 74, 0
3, 162076, Note_on_c, 0, 71, 55
3, 162150, Note_on_c, 0, 71, 0
3, 162298, Note_on_c, 0, 74, 79
3, 162338, Note_on_c, 0, 63, 25
3, 162338, Note_on_c, 0, 67, 33
3, 162366, Note_on_c, 0, 67, 0
3, 162372, Note_on_c, 0, 74, 0
3, 162400, Note_on_c, 0, 63, 0
3, 162484, Note_on_c, 0, 71, 68
3, 162538, Note_on_c, 0, 71, 0
3, 162538, Note_on_c, 0, 74, 17
3, 162644, Note_on_c, 0, 74, 0
3, 162744, Note_on_c, 0, 62, 55
3, 162748, Note_on_c, 0, 59, 37
3, 162748, Note_on_c, 0, 52, 36
3, 162750, Note_on_c, 0, 55, 49
3, 162768, Note_on_c, 0, 62, 0
3, 162784, Note_on_c, 0, 59, 0
3, 162784, Note_on_c, 0, 52, 0
3, 162810, Note_on_c, 0, 55, 0
3, 162840, Note_on_c, 0, 67, 54
3, 162948, Note_on_c, 0, 67, 0
3, 163090, Note_on_c, 0, 74, 71
3, 163162, Note_on_c, 0, 74, 0
3, 163252, Note_on_c, 0, 71, 37
3, 163290, Note_on_c, 0, 71, 0
3, 163468, Note_on_c, 0, 74, 79
3, 163542, Note_on_c, 0, 74, 0
3, 163618, Note_on_c, 0, 72, 58
3, 163858, Note_on_c, 0, 61, 49
3, 163866, Note_on_c, 0, 64, 40
3, 163878, Note_on_c, 0, 55, 33
3, 163894, Note_on_c, 0, 64, 0
3, 163918, Note_on_c, 0, 55, 0
3, 163918, Note_on_c, 0, 61, 0
3, 163932, Note_on_c, 0, 72, 0
3, 163960, Note_on_c, 0, 69, 57
3, 164326, Note_on_c, 0, 69, 0
3, 164342, Note_on_c, 0, 42, 49
3, 164364, Note_on_c, 0, 53, 24
3, 164366, Note_on_c, 0, 42, 0
3, 164404, Note_on_c, 0, 53, 0
3, 164742, Note_on_c, 0, 53, 62
3, 164744, Note_on_c, 0, 63, 59
3, 164752, Note_on_c, 0, 58, 54
3, 165122, Note_on_c, 0, 72, 82
3, 165150, Note_on_c, 0, 53, 0
3, 165214, Note_on_c, 0, 63, 0
3, 165224, Note_on_c, 0, 72, 0
3, 165228, Note_on_c, 0, 58, 0
3, 165364, Note_on_c, 0, 65, 64
3, 165376, Note_on_c, 0, 60, 49
3, 165384, Note_on_c, 0, 55, 38
3, 165392, Note_on_c, 0, 65, 0
3, 165418, Note_on_c, 0, 55, 0
3, 165450, Note_on_c, 0, 60, 0
3, 165484, Note_on_c, 0, 68, 59
3, 165608, Note_on_c, 0, 68, 0
3, 165752, Note_on_c, 0, 72, 79
3, 165752, Note_on_c, 0, 65, 60
3, 165758, Note_on_c, 0, 60, 52
3, 165758, Note_on_c, 0, 55, 55
3, 165774, Note_on_c, 0, 65, 0
3, 165842, Note_on_c, 0, 60, 0
3, 165846, Note_on_c, 0, 72, 0
3, 165858, Note_on_c, 0, 55, 0
3, 165914, Note_on_c, 0, 75, 83
3, 166032, Note_on_c, 0, 75, 0
3, 166138, Note_on_c, 0, 77, 78
3, 166146, Note_on_c, 0, 76, 58
3, 166158, Note_on_c, 0, 64, 59
3, 166160, Note_on_c, 0, 53, 53
3, 166166, Note_on_c, 0, 59, 51
3, 166168, Note_on_c, 0, 76, 0
3, 166220, Note_on_c, 0, 77, 0
3, 166308, Note_on_c, 0, 74, 40
3, 166476, Note_on_c, 0, 59, 0
3, 166520, Note_on_c, 0, 59, 22
3, 166540, Note_on_c, 0, 74, 0
3, 166578, Note_on_c, 0, 64, 0
3, 166646, Note_on_c, 0, 71, 62
3, 166654, Note_on_c, 0, 69, 57
3, 166678, Note_on_c, 0, 69, 0
3, 166688, Note_on_c, 0, 53, 0
3, 166716, Note_on_c, 0, 59, 0
3, 166824, Note_on_c, 0, 71, 0
3, 166900, Note_on_c, 0, 68, 53
3, 166920, Note_on_c, 0, 59, 60
3, 166924, Note_on_c, 0, 53, 45
3, 166996, Note_on_c, 0, 59, 0
3, 167022, Note_on_c, 0, 68, 0
3, 167056, Note_on_c, 0, 67, 40
3, 167076, Note_on_c, 0, 53, 0
3, 167216, Note_on_c, 0, 67, 0
3, 167292, Note_on_c, 0, 65, 64
3, 167332, Note_on_c, 0, 48, 42
3, 167338, Note_on_c, 0, 55, 41
3, 167364, Note_on_c, 0, 65, 0
3, 167418, Note_on_c, 0, 48, 0
3, 167422, Note_on_c, 0, 55, 0
3, 167442, Note_on_c, 0, 63, 49
3, 167506, Note_on_c, 0, 63, 0
3, 167524, Note_on_c, 0, 65, 55
3, 167590, Note_on_c, 0, 63, 34
3, 167594, Note_on_c, 0, 65, 0
3, 167688, Note_on_c, 0, 62, 63
3, 167692, Note_on_c, 0, 63, 0
3, 167738, Note_on_c, 0, 48, 38
3, 167766, Note_on_c, 0, 62, 0
3, 167802, Note_on_c, 0, 63, 64
3, 167840, Note_on_c, 0, 48, 0
3, 168064, Note_on_c, 0, 59, 54
3, 168084, Note_on_c, 0, 63, 0
3, 168184, Note_on_c, 0, 47, 37
3, 168196, Note_on_c, 0, 55, 26
3, 168530, Note_on_c, 0, 59, 0
3, 168564, Note_on_c, 0, 60, 58
3, 168586, Note_on_c, 0, 55, 0
3, 168596, Note_on_c, 0, 47, 0
3, 168638, Note_on_c, 0, 60, 0
3, 168670, Note_on_c, 0, 61, 40
3, 168722, Note_on_c, 0, 60, 36
3, 168746, Note_on_c, 0, 61, 0
3, 168782, Note_on_c, 0, 60, 0
3, 168800, Note_on_c, 0, 57, 43
3, 168830, Note_on_c, 0, 57, 0
3, 168888, Note_on_c, 0, 60, 52
3, 168906, Note_on_c, 0, 56, 23
3, 168910, Note_on_c, 0, 46, 31
3, 168948, Note_on_c, 0, 60, 0
3, 168984, Note_on_c, 0, 57, 40
3, 168996, Note_on_c, 0, 56, 0
3, 169020, Note_on_c, 0, 57, 0
3, 169080, Note_on_c, 0, 58, 29
3, 169128, Note_on_c, 0, 58, 0
3, 169168, Note_on_c, 0, 60, 41
3, 169218, Note_on_c, 0, 60, 0
3, 169246, Note_on_c, 0, 61, 45
3, 169272, Note_on_c, 0, 56, 29
3, 169328, Note_on_c, 0, 61, 0
3, 169344, Note_on_c, 0, 63, 34
3, 169370, Note_on_c, 0, 63, 0
3, 169432, Note_on_c, 0, 65, 41
3, 169482, Note_on_c, 0, 65, 0
3, 169504, Note_on_c, 0, 56, 0
3, 169528, Note_on_c, 0, 67, 45
3, 169562, Note_on_c, 0, 67, 0
3, 169620, Note_on_c, 0, 46, 0
3, 169642, Note_on_c, 0, 68, 51
3, 169696, Note_on_c, 0, 68, 0
3, 169762, Note_on_c, 0, 70, 44
3, 169788, Note_on_c, 0, 70, 0
3, 169862, Note_on_c, 0, 72, 47
3, 169900, Note_on_c, 0, 72, 0
3, 169974, Note_on_c, 0, 73, 51
3, 170030, Note_on_c, 0, 73, 0
3, 170082, Note_on_c, 0, 55, 45
3, 170088, Note_on_c, 0, 45, 39
3, 170104, Note_on_c, 0, 75, 56
3, 170108, Note_on_c, 0, 55, 0
3, 170128, Note_on_c, 0, 45, 0
3, 170160, Note_on_c, 0, 75, 0
3, 170234, Note_on_c, 0, 76, 44
3, 170268, Note_on_c, 0, 76, 0
3, 170356, Note_on_c, 0, 77, 68
3, 170414, Note_on_c, 0, 77, 0
3, 170480, Note_on_c, 0, 78, 64
3, 170484, Note_on_c, 0, 44, 46
3, 170544, Note_on_c, 0, 78, 0
3, 170554, Note_on_c, 0, 44, 0
3, 170602, Note_on_c, 0, 79, 66
3, 170682, Note_on_c, 0, 79, 0
3, 171182, Note_on_c, 0, 75, 81
3, 171188, Note_on_c, 0, 63, 36
3, 171204, Note_on_c, 0, 60, 44
3, 171220, Note_on_c, 0, 63, 0
3, 171238, Note_on_c, 0, 60, 0
3, 171374, Note_on_c, 0, 75, 0
3, 171384, Note_on_c, 0, 76, 51
3, 171458, Note_on_c, 0, 76, 0
3, 171474, Note_on_c, 0, 77, 44
3, 171508, Note_on_c, 0, 78, 50
3, 171544, Note_on_c, 0, 77, 0
3, 171572, Note_on_c, 0, 78, 0
3, 171596, Note_on_c, 0, 79, 66
3, 171690, Note_on_c, 0, 79, 0
3, 171738, Note_on_c, 0, 78, 42
3, 171810, Note_on_c, 0, 77, 52
3, 171818, Note_on_c, 0, 78, 0
3, 171868, Note_on_c, 0, 76, 58
3, 171870, Note_on_c, 0, 77, 0
3, 171938, Note_on_c, 0, 76, 0
3, 171950, Note_on_c, 0, 75, 67
3, 172024, Note_on_c, 0, 75, 0
3, 172334, Note_on_c, 0, 64, 51
3, 172346, Note_on_c, 0, 59, 48
3, 172352, Note_on_c, 0, 53, 33
3, 172364, Note_on_c, 0, 64, 0
3, 172384, Note_on_c, 0, 59, 0
3, 172440, Note_on_c, 0, 71, 67
3, 172450, Note_on_c, 0, 53, 0
3, 172532, Note_on_c, 0, 71, 0
3, 172538, Note_on_c, 0, 72, 47
3, 172606, Note_on_c, 0, 72, 0
3, 172612, Note_on_c, 0, 73, 29
3, 172652, Note_on_c, 0, 73, 0
3, 172674, Note_on_c, 0, 74, 55
3, 172742, Note_on_c, 0, 73, 27
3, 172764, Note_on_c, 0, 74, 0
3, 172794, Note_on_c, 0, 72, 45
3, 172832, Note_on_c, 0, 73, 0
3, 172848, Note_on_c, 0, 72, 0
3, 172860, Note_on_c, 0, 71, 47
3, 172918, Note_on_c, 0, 71, 0
3, 172934, Note_on_c, 0, 70, 31
3, 172958, Note_on_c, 0, 70, 0
3, 173040, Note_on_c, 0, 69, 20
3, 173090, Note_on_c, 0, 69, 0
3, 173110, Note_on_c, 0, 68, 39
3, 173150, Note_on_c, 0, 68, 0
3, 173182, Note_on_c, 0, 67, 45
3, 173194, Note_on_c, 0, 53, 27
3, 173210, Note_on_c, 0, 43, 17
3, 173224, Note_on_c, 0, 53, 0
3, 173246, Note_on_c, 0, 43, 0
3, 173260, Note_on_c, 0, 67, 0
3, 173302, Note_on_c, 0, 65, 66
3, 173370, Note_on_c, 0, 65, 0
3, 173542, Note_on_c, 0, 62, 53
3, 173566, Note_on_c, 0, 62, 0
3, 173610, Note_on_c, 0, 65, 70
3, 173706, Note_on_c, 0, 65, 0
3, 173800, Note_on_c, 0, 63, 60
3, 173898, Note_on_c, 0, 57, 49
3, 173914, Note_on_c, 0, 63, 0
3, 173940, Note_on_c, 0, 57, 0
3, 174000, Note_on_c, 0, 57, 37
3, 174088, Note_on_c, 0, 57, 0
3, 174206, Note_on_c, 0, 55, 55
3, 174252, Note_on_c, 0, 55, 0
3, 174580, Note_on_c, 0, 46, 38
3, 174672, Note_on_c, 0, 46, 0
3, 174722, Note_on_c, 0, 55, 32
3, 174752, Note_on_c, 0, 55, 0
3, 174830, Note_on_c, 0, 60, 55
3, 174882, Note_on_c, 0, 60, 0
3, 174958, Note_on_c, 0, 46, 42
3, 174972, Note_on_c, 0, 62, 89
3, 175050, Note_on_c, 0, 62, 0
3, 175060, Note_on_c, 0, 46, 0
3, 175110, Note_on_c, 0, 63, 64
3, 175128, Note_on_c, 0, 45, 33
3, 175186, Note_on_c, 0, 63, 0
3, 175260, Note_on_c, 0, 62, 43
3, 175296, Note_on_c, 0, 45, 0
3, 175308, Note_on_c, 0, 62, 0
3, 175362, Note_on_c, 0, 63, 74
3, 175396, Note_on_c, 0, 45, 38
3, 175398, Note_on_c, 0, 55, 38
3, 175436, Note_on_c, 0, 55, 0
3, 175452, Note_on_c, 0, 63, 0
3, 175488, Note_on_c, 0, 45, 0
3, 175510, Note_on_c, 0, 62, 67
3, 175596, Note_on_c, 0, 62, 0
3, 175630, Note_on_c, 0, 60, 60
3, 175688, Note_on_c, 0, 60, 0
3, 175744, Note_on_c, 0, 55, 65
3, 175840, Note_on_c, 0, 45, 48
3, 176088, Note_on_c, 0, 55, 0
3, 176120, Note_on_c, 0, 55, 32
3, 176226, Control_c, 0, 64, 127
3, 176238, Note_on_c, 0, 45, 0
3, 176274, Note_on_c, 0, 55, 0
3, 176654, Note_on_c, 0, 82, 62
3, 176654, Note_on_c, 0, 74, 78
3, 176656, Note_on_c, 0, 54, 61
3, 176656, Note_on_c, 0, 86, 78
3, 176658, Control_c, 0, 64, 0
3, 176660, Note_on_c, 0, 58, 40
3, 176660, Note_on_c, 0, 65, 71
3, 176674, Note_on_c, 0, 60, 48
3, 176686, Note_on_c, 0, 74, 0
3, 176688, Note_on_c, 0, 86, 0
3, 176698, Note_on_c, 0, 82, 0
3, 176698, Note_on_c, 0, 60, 0
3, 176700, Note_on_c, 0, 65, 0
3, 176754, Note_on_c, 0, 65, 57
3, 176756, Note_on_c, 0, 86, 69
3, 176756, Note_on_c, 0, 82, 48
3, 176760, Note_on_c, 0, 74, 55
3, 176766, Note_on_c, 0, 60, 46
3, 176828, Note_on_c, 0, 74, 0
3, 176832, Note_on_c, 0, 86, 0
3, 176834, Note_on_c, 0, 65, 0
3, 176838, Note_on_c, 0, 82, 0
3, 176840, Note_on_c, 0, 60, 0
3, 176864, Note_on_c, 0, 54, 0
3, 176896, Note_on_c, 0, 65, 55
3, 176898, Note_on_c, 0, 54, 29
3, 176898, Note_on_c, 0, 84, 60
3, 176902, Note_on_c, 0, 72, 51
3, 176908, Note_on_c, 0, 60, 49
3, 176944, Note_on_c, 0, 60, 0
3, 176944, Note_on_c, 0, 72, 0
3, 176950, Note_on_c, 0, 65, 0
3, 176954, Note_on_c, 0, 84, 0
3, 176966, Note_on_c, 0, 54, 0
3, 177016, Note_on_c, 0, 65, 66
3, 177018, Note_on_c, 0, 54, 60
3, 177018, Note_on_c, 0, 74, 74
3, 177020, Note_on_c, 0, 82, 59
3, 177020, Note_on_c, 0, 86, 77
3, 177026, Note_on_c, 0, 60, 60
3, 177086, Note_on_c, 0, 74, 0
3, 177090, Note_on_c, 0, 65, 0
3, 177094, Note_on_c, 0, 82, 0
3, 177102, Note_on_c, 0, 86, 0
3, 177108, Note_on_c, 0, 60, 0
3, 177146, Note_on_c, 0, 86, 62
3, 177152, Note_on_c, 0, 74, 49
3, 177152, Note_on_c, 0, 65, 61
3, 177154, Note_on_c, 0, 82, 45
3, 177168, Note_on_c, 0, 60, 48
3, 177188, Control_c, 0, 64, 127
3, 177200, Note_on_c, 0, 86, 0
3, 177202, Note_on_c, 0, 74, 0
3, 177208, Note_on_c, 0, 65, 0
3, 177216, Note_on_c, 0, 60, 0
3, 177228, Note_on_c, 0, 82, 0
3, 177230, Note_on_c, 0, 54, 0
3, 177274, Control_c, 0, 64, 0
3, 177282, Note_on_c, 0, 82, 37
3, 177282, Note_on_c, 0, 54, 45
3, 177288, Note_on_c, 0, 72, 34
3, 177288, Note_on_c, 0, 65, 57
3, 177298, Note_on_c, 0, 60, 45
3, 177300, Note_on_c, 0, 84, 29
3, 177318, Note_on_c, 0, 72, 0
3, 177324, Note_on_c, 0, 84, 0
3, 177332, Note_on_c, 0, 65, 0
3, 177340, Note_on_c, 0, 60, 0
3, 177344, Note_on_c, 0, 82, 0
3, 177356, Note_on_c, 0, 54, 0
3, 177408, Note_on_c, 0, 65, 63
3, 177410, Note_on_c, 0, 82, 55
3, 177410, Note_on_c, 0, 54, 42
3, 177414, Note_on_c, 0, 74, 70
3, 177416, Note_on_c, 0, 86, 75
3, 177422, Note_on_c, 0, 60, 54
3, 177518, Note_on_c, 0, 86, 0
3, 177522, Note_on_c, 0, 74, 0
3, 177548, Note_on_c, 0, 82, 0
3, 177558, Note_on_c, 0, 60, 0
3, 177560, Note_on_c, 0, 65, 0
3, 177580, Note_on_c, 0, 54, 0
3, 177580, Note_on_c, 0, 58, 0
3, 177674, Note_on_c, 0, 82, 68
3, 177676, Note_on_c, 0, 86, 75
3, 177676, Note_on_c, 0, 74, 70
3, 177676, Note_on_c, 0, 54, 46
3, 177682, Note_on_c, 0, 65, 54
3, 177682, Note_on_c, 0, 58, 46
3, 177686, Note_on_c, 0, 60, 54
3, 177722, Note_on_c, 0, 65, 0
3, 177722, Note_on_c, 0, 86, 0
3, 177728, Note_on_c, 0, 74, 0
3, 177760, Note_on_c, 0, 60, 0
3, 177804, Note_on_c, 0, 65, 57
3, 177810, Note_on_c, 0, 84, 45
3, 177816, Note_on_c, 0, 60, 42
3, 177826, Note_on_c, 0, 72, 36
3, 177872, Control_c, 0, 64, 127
3, 177980, Note_on_c, 0, 54, 0
3, 178004, Note_on_c, 0, 65, 0
3, 178010, Note_on_c, 0, 72, 0
3, 178016, Note_on_c, 0, 84, 0
3, 178022, Note_on_c, 0, 58, 0
3, 178026, Note_on_c, 0, 60, 0
3, 178042, Note_on_c, 0, 82, 0
3, 178070, Note_on_c, 0, 54, 47
3, 178100, Note_on_c, 0, 58, 19
3, 178146, Note_on_c, 0, 54, 0
3, 178148, Note_on_c, 0, 58, 0
3, 178162, Control_c, 0, 64, 0
3, 178190, Note_on_c, 0, 75, 59
3, 178196, Note_on_c, 0, 87, 50
3, 178200, Note_on_c, 0, 64, 57
3, 178204, Note_on_c, 0, 59, 55
3, 178210, Note_on_c, 0, 53, 52
3, 178244, Note_on_c, 0, 87, 0
3, 178244, Note_on_c, 0, 75, 0
3, 178258, Note_on_c, 0, 64, 0
3, 178274, Note_on_c, 0, 59, 0
3, 178286, Note_on_c, 0, 53, 0
3, 178324, Note_on_c, 0, 87, 73
3, 178326, Note_on_c, 0, 75, 51
3, 178332, Note_on_c, 0, 53, 42
3, 178340, Note_on_c, 0, 64, 44
3, 178342, Note_on_c, 0, 59, 47
3, 178392, Note_on_c, 0, 87, 0
3, 178396, Note_on_c, 0, 75, 0
3, 178398, Note_on_c, 0, 64, 0
3, 178446, Note_on_c, 0, 73, 40
3, 178450, Note_on_c, 0, 85, 50
3, 178456, Note_on_c, 0, 64, 57
3, 178462, Note_on_c, 0, 80, 47
3, 178508, Note_on_c, 0, 64, 0
3, 178512, Note_on_c, 0, 85, 0
3, 178518, Note_on_c, 0, 73, 0
3, 178524, Note_on_c, 0, 80, 0
3, 178530, Note_on_c, 0, 59, 0
3, 178544, Note_on_c, 0, 53, 0
3, 178574, Note_on_c, 0, 53, 39
3, 178576, Note_on_c, 0, 75, 57
3, 178578, Note_on_c, 0, 87, 73
3, 178580, Note_on_c, 0, 59, 58
3, 178584, Note_on_c, 0, 64, 62
3, 178606, Note_on_c, 0, 82, 31
3, 178630, Note_on_c, 0, 82, 0
3, 178648, Control_c, 0, 64, 127
3, 178738, Note_on_c, 0, 75, 0
3, 178742, Note_on_c, 0, 59, 0
3, 178742, Note_on_c, 0, 64, 0
3, 178742, Note_on_c, 0, 87, 0
3, 178746, Note_on_c, 0, 53, 0
3, 178828, Note_on_c, 0, 87, 72
3, 178834, Note_on_c, 0, 75, 67
3, 178838, Note_on_c, 0, 53, 56
3, 178840, Note_on_c, 0, 64, 58
3, 178840, Note_on_c, 0, 59, 57
3, 178846, Note_on_c, 0, 82, 47
3, 178892, Note_on_c, 0, 75, 0
3, 178900, Note_on_c, 0, 64, 0
3, 178902, Note_on_c, 0, 87, 0
3, 178910, Control_c, 0, 64, 0
3, 178920, Note_on_c, 0, 82, 0
3, 178926, Note_on_c, 0, 59, 0
3, 178972, Note_on_c, 0, 85, 37
3, 178980, Note_on_c, 0, 59, 26
3, 178984, Note_on_c, 0, 64, 49
3, 178994, Note_on_c, 0, 73, 32
3, 179036, Control_c, 0, 64, 127
3, 179064, Note_on_c, 0, 73, 0
3, 179066, Note_on_c, 0, 85, 0
3, 179106, Note_on_c, 0, 64, 0
3, 179110, Note_on_c, 0, 53, 0
3, 179142, Note_on_c, 0, 59, 0
3, 179210, Note_on_c, 0, 87, 70
3, 179214, Note_on_c, 0, 53, 71
3, 179214, Note_on_c, 0, 75, 69
3, 179214, Note_on_c, 0, 59, 65
3, 179220, Note_on_c, 0, 64, 64
3, 179252, Note_on_c, 0, 64, 0
3, 179284, Note_on_c, 0, 59, 0
3, 179284, Control_c, 0, 64, 0
3, 179292, Note_on_c, 0, 75, 0
3, 179302, Note_on_c, 0, 53, 0
3, 179302, Note_on_c, 0, 87, 0
3, 179364, Note_on_c, 0, 59, 54
3, 179378, Note_on_c, 0, 88, 64
3, 179380, Note_on_c, 0, 76, 61
3, 179408, Note_on_c, 0, 76, 0
3, 179424, Note_on_c, 0, 59, 0
3, 179442, Note_on_c, 0, 88, 0
3, 179588, Control_c, 0, 64, 127
3, 179610, Note_on_c, 0, 53, 66
3, 179612, Note_on_c, 0, 63, 73
3, 179618, Note_on_c, 0, 59, 71
3, 179622, Note_on_c, 0, 98, 77
3, 179626, Note_on_c, 0, 96, 74
3, 179628, Note_on_c, 0, 84, 64
3, 179630, Note_on_c, 0, 86, 74
3, 179632, Note_on_c, 0, 56, 37
3, 179640, Note_on_c, 0, 92, 33
3, 179652, Note_on_c, 0, 86, 0
3, 179654, Note_on_c, 0, 84, 0
3, 179662, Note_on_c, 0, 92, 0
3, 179668, Note_on_c, 0, 63, 0
3, 179676, Note_on_c, 0, 53, 0
3, 179686, Note_on_c, 0, 96, 0
3, 179696, Note_on_c, 0, 98, 0
3, 179716, Note_on_c, 0, 59, 0
3, 179726, Note_on_c, 0, 56, 0
3, 179764, Control_c, 0, 64, 0
3, 179786, Note_on_c, 0, 62, 61
3, 179790, Note_on_c, 0, 52, 49
3, 179794, Note_on_c, 0, 59, 32
3, 179798, Note_on_c, 0, 55, 60
3, 179820, Note_on_c, 0, 95, 53
3, 179822, Note_on_c, 0, 83, 62
3, 179828, Note_on_c, 0, 93, 53
3, 179830, Note_on_c, 0, 92, 42
3, 179852, Note_on_c, 0, 93, 0
3, 179854, Note_on_c, 0, 92, 0
3, 180026, Note_on_c, 0, 62, 0
3, 180026, Note_on_c, 0, 95, 0
3, 180036, Note_on_c, 0, 59, 0
3, 180050, Note_on_c, 0, 83, 0
3, 180082, Note_on_c, 0, 55, 0
3, 180128, Note_on_c, 0, 91, 60
3, 180134, Note_on_c, 0, 55, 28
3, 180134, Control_c, 0, 64, 127
3, 180138, Note_on_c, 0, 59, 52
3, 180138, Note_on_c, 0, 62, 63
3, 180138, Note_on_c, 0, 79, 51
3, 180204, Note_on_c, 0, 52, 0
3, 180218, Note_on_c, 0, 55, 0
3, 180236, Note_on_c, 0, 59, 0
3, 180260, Note_on_c, 0, 91, 0
3, 180262, Note_on_c, 0, 62, 0
3, 180356, Note_on_c, 0, 79, 0
3, 180500, Control_c, 0, 64, 0
3, 180502, Note_on_c, 0, 62, 51
3, 180506, Note_on_c, 0, 67, 57
3, 180510, Note_on_c, 0, 86, 64
3, 180510, Note_on_c, 0, 57, 54
3, 180510, Note_on_c, 0, 63, 42
3, 180512, Note_on_c, 0, 77, 49
3, 180512, Note_on_c, 0, 89, 60
3, 180606, Note_on_c, 0, 86, 0
3, 180616, Note_on_c, 0, 89, 0
3, 180638, Control_c, 0, 64, 127
3, 180666, Note_on_c, 0, 77, 0
3, 180726, Note_on_c, 0, 67, 0
3, 180740, Note_on_c, 0, 57, 0
3, 180744, Note_on_c, 0, 62, 0
3, 180760, Note_on_c, 0, 63, 0
3, 180848, Control_c, 0, 64, 0
3, 180866, Note_on_c, 0, 86, 62
3, 180870, Note_on_c, 0, 63, 29
3, 180874, Note_on_c, 0, 67, 39
3, 180880, Note_on_c, 0, 79, 40
3, 180880, Note_on_c, 0, 57, 34
3, 180880, Note_on_c, 0, 74, 41
3, 180890, Note_on_c, 0, 83, 36
3, 180912, Note_on_c, 0, 67, 0
3, 180912, Control_c, 0, 64, 127
3, 180940, Note_on_c, 0, 63, 0
3, 180960, Note_on_c, 0, 57, 0
3, 181032, Note_on_c, 0, 74, 0
3, 181054, Note_on_c, 0, 83, 0
3, 181058, Note_on_c, 0, 86, 0
3, 181060, Note_on_c, 0, 79, 0
3, 181248, Note_on_c, 0, 88, 58
3, 181250, Control_c, 0, 64, 0
3, 181258, Note_on_c, 0, 52, 38
3, 181262, Note_on_c, 0, 76, 36
3, 181264, Note_on_c, 0, 59, 33
3, 181266, Note_on_c, 0, 55, 55
3, 181268, Note_on_c, 0, 62, 35
3, 181330, Note_on_c, 0, 88, 0
3, 181354, Note_on_c, 0, 76, 0
3, 181358, Note_on_c, 0, 59, 0
3, 181376, Note_on_c, 0, 55, 0
3, 181392, Control_c, 0, 64, 127
3, 181420, Note_on_c, 0, 62, 0
3, 181590, Control_c, 0, 64, 0
3, 181652, Note_on_c, 0, 84, 43
3, 181654, Note_on_c, 0, 55, 36
3, 181660, Note_on_c, 0, 62, 34
3, 181666, Note_on_c, 0, 59, 35
3, 181670, Note_on_c, 0, 72, 24
3, 181682, Note_on_c, 0, 79, 24
3, 181710, Control_c, 0, 64, 127
3, 181756, Note_on_c, 0, 72, 0
3, 181758, Note_on_c, 0, 52, 0
3, 181766, Note_on_c, 0, 55, 0
3, 181768, Note_on_c, 0, 59, 0
3, 181776, Note_on_c, 0, 79, 0
3, 181788, Note_on_c, 0, 62, 0
3, 181800, Note_on_c, 0, 84, 0
3, 182030, Note_on_c, 0, 85, 88
3, 182032, Note_on_c, 0, 91, 76
3, 182034, Control_c, 0, 64, 0
3, 182036, Note_on_c, 0, 61, 80
3, 182036, Note_on_c, 0, 55, 82
3, 182036, Note_on_c, 0, 58, 77
3, 182038, Note_on_c, 0, 79, 81
3, 182042, Note_on_c, 0, 89, 72
3, 182044, Note_on_c, 0, 65, 81
3, 182172, Note_on_c, 0, 85, 0
3, 182184, Note_on_c, 0, 86, 56
3, 182410, Control_c, 0, 64, 127
3, 182464, Note_on_c, 0, 79, 0
3, 182466, Note_on_c, 0, 91, 0
3, 182482, Note_on_c, 0, 86, 0
3, 182484, Note_on_c, 0, 89, 0
3, 182526, Note_on_c, 0, 65, 0
3, 182556, Note_on_c, 0, 55, 0
3, 182562, Note_on_c, 0, 58, 0
3, 182564, Note_on_c, 0, 61, 0
3, 182666, Note_on_c, 0, 61, 33
3, 182676, Note_on_c, 0, 78, 60
3, 182676, Note_on_c, 0, 90, 56
3, 182682, Note_on_c, 0, 58, 35
3, 182684, Note_on_c, 0, 55, 32
3, 182692, Note_on_c, 0, 85, 42
3, 182714, Note_on_c, 0, 55, 0
3, 182716, Note_on_c, 0, 85, 0
3, 182750, Note_on_c, 0, 78, 0
3, 182772, Note_on_c, 0, 58, 0
3, 182774, Note_on_c, 0, 90, 0
3, 182780, Note_on_c, 0, 61, 0
3, 182828, Note_on_c, 0, 91, 62
3, 182830, Note_on_c, 0, 60, 47
3, 182832, Control_c, 0, 64, 0
3, 182836, Note_on_c, 0, 79, 48
3, 182840, Note_on_c, 0, 53, 41
3, 182844, Note_on_c, 0, 64, 39
3, 182844, Note_on_c, 0, 57, 50
3, 182852, Note_on_c, 0, 89, 30
3, 182968, Control_c, 0, 64, 127
3, 183128, Note_on_c, 0, 91, 0
3, 183142, Note_on_c, 0, 89, 0
3, 183172, Note_on_c, 0, 79, 0
3, 183192, Note_on_c, 0, 64, 0
3, 183250, Note_on_c, 0, 57, 0
3, 183254, Note_on_c, 0, 60, 0
3, 183286, Note_on_c, 0, 53, 0
3, 183442, Note_on_c, 0, 86, 68
3, 183452, Note_on_c, 0, 74, 36
3, 183454, Note_on_c, 0, 81, 49
3, 183454, Note_on_c, 0, 64, 46
3, 183456, Note_on_c, 0, 53, 32
3, 183462, Control_c, 0, 64, 0
3, 183464, Note_on_c, 0, 57, 45
3, 183466, Note_on_c, 0, 60, 36
3, 183496, Note_on_c, 0, 81, 0
3, 183498, Note_on_c, 0, 86, 0
3, 183506, Note_on_c, 0, 64, 0
3, 183506, Note_on_c, 0, 74, 0
3, 183508, Note_on_c, 0, 60, 0
3, 183540, Note_on_c, 0, 57, 0
3, 183576, Note_on_c, 0, 53, 0
3, 183632, Control_c, 0, 64, 127
3, 183808, Note_on_c, 0, 45, 32
3, 183810, Note_on_c, 0, 43, 33
3, 183816, Control_c, 0, 64, 0
3, 183836, Note_on_c, 0, 43, 0
3, 183846, Note_on_c, 0, 45, 0
3, 183914, Note_on_c, 0, 53, 38
3, 183920, Note_on_c, 0, 60, 52
3, 183942, Note_on_c, 0, 57, 25
3, 184054, Note_on_c, 0, 57, 0
3, 184060, Note_on_c, 0, 60, 0
3, 184078, Note_on_c, 0, 53, 0
3, 184170, Note_on_c, 0, 64, 49
3, 184172, Note_on_c, 0, 50, 47
3, 184178, Note_on_c, 0, 57, 46
3, 184202, Note_on_c, 0, 57, 0
3, 184220, Note_on_c, 0, 64, 0
3, 184240, Note_on_c, 0, 50, 0
3, 184308, Note_on_c, 0, 60, 48
3, 184310, Note_on_c, 0, 57, 54
3, 184310, Note_on_c, 0, 67, 61
3, 184320, Note_on_c, 0, 53, 55
3, 184320, Note_on_c, 0, 64, 55
3, 184348, Note_on_c, 0, 64, 0
3, 184358, Note_on_c, 0, 57, 0
3, 184362, Note_on_c, 0, 60, 0
3, 184382, Note_on_c, 0, 53, 0
3, 184390, Note_on_c, 0, 67, 0
3, 184590, Note_on_c, 0, 64, 61
3, 184598, Note_on_c, 0, 57, 60
3, 184598, Note_on_c, 0, 53, 56
3, 184602, Note_on_c, 0, 43, 53
3, 184604, Note_on_c, 0, 60, 46
3, 184860, Control_c, 0, 64, 127
3, 184968, Note_on_c, 0, 53, 0
3, 184968, Note_on_c, 0, 57, 0
3, 184976, Note_on_c, 0, 60, 0
3, 184980, Note_on_c, 0, 50, 31
3, 185006, Note_on_c, 0, 64, 0
3, 185056, Note_on_c, 0, 50, 0
3, 185058, Control_c, 0, 64, 0
3, 185088, Note_on_c, 0, 59, 46
3, 185090, Note_on_c, 0, 53, 29
3, 185096, Note_on_c, 0, 56, 28
3, 185102, Note_on_c, 0, 62, 47
3, 185118, Note_on_c, 0, 52, 28
3, 185180, Note_on_c, 0, 43, 0
3, 185348, Note_on_c, 0, 43, 51
3, 185388, Note_on_c, 0, 52, 0
3, 185410, Control_c, 0, 64, 127
3, 185426, Note_on_c, 0, 43, 0
3, 185450, Note_on_c, 0, 53, 0
3, 185470, Note_on_c, 0, 56, 0
3, 185474, Note_on_c, 0, 59, 0
3, 185504, Note_on_c, 0, 62, 0
3, 185730, Note_on_c, 0, 74, 72
3, 185812, Note_on_c, 0, 74, 0
3, 185856, Control_c, 0, 64, 0
3, 185884, Note_on_c, 0, 72, 45
3, 186090, Note_on_c, 0, 36, 47
3, 186110, Note_on_c, 0, 43, 24
3, 186122, Note_on_c, 0, 52, 36
3, 186146, Control_c, 0, 64, 127
3, 186170, Note_on_c, 0, 36, 0
3, 186196, Note_on_c, 0, 52, 0
3, 186214, Note_on_c, 0, 43, 0
3, 186644, Note_on_c, 0, 63, 39
3, 186644, Note_on_c, 0, 62, 41
3, 186646, Note_on_c, 0, 67, 33
3, 186652, Control_c, 0, 64, 0
3, 186662, Note_on_c, 0, 57, 30
3, 186684, Note_on_c, 0, 67, 0
3, 186748, Note_on_c, 0, 63, 0
3, 186760, Note_on_c, 0, 72, 0
3, 186762, Note_on_c, 0, 67, 55
3, 186806, Note_on_c, 0, 62, 0
3, 186872, Note_on_c, 0, 66, 57
3, 186882, Note_on_c, 0, 67, 0
3, 186968, Note_on_c, 0, 66, 0
3, 187004, Note_on_c, 0, 67, 57
3, 187048, Note_on_c, 0, 57, 0
3, 187146, Control_c, 0, 64, 127
3, 187272, Note_on_c, 0, 52, 43
3, 187274, Note_on_c, 0, 59, 52
3, 187282, Control_c, 0, 64, 0
3, 187286, Note_on_c, 0, 62, 55
3, 187288, Note_on_c, 0, 55, 54
3, 187332, Note_on_c, 0, 67, 0
3, 187442, Control_c, 0, 64, 127
3, 187746, Control_c, 0, 64, 0
3, 187802, Note_on_c, 0, 72, 61
3, 187884, Note_on_c, 0, 59, 0
3, 187900, Note_on_c, 0, 62, 0
3, 187902, Note_on_c, 0, 72, 0
3, 187926, Note_on_c, 0, 55, 0
3, 188176, Note_on_c, 0, 68, 71
3, 188178, Note_on_c, 0, 80, 55
3, 188268, Note_on_c, 0, 52, 0
3, 188272, Note_on_c, 0, 68, 0
3, 188284, Note_on_c, 0, 80, 0
3, 188288, Note_on_c, 0, 69, 46
3, 188368, Note_on_c, 0, 69, 0
3, 188398, Note_on_c, 0, 81, 53
3, 188470, Note_on_c, 0, 69, 20
3, 188478, Note_on_c, 0, 81, 0
3, 188494, Note_on_c, 0, 69, 0
3, 188546, Note_on_c, 0, 79, 41
3, 188556, Note_on_c, 0, 67, 59
3, 188758, Note_on_c, 0, 67, 0
3, 188774, Note_on_c, 0, 79, 0
3, 188932, Note_on_c, 0, 81, 62
3, 188938, Note_on_c, 0, 53, 42
3, 188938, Note_on_c, 0, 73, 37
3, 188940, Note_on_c, 0, 69, 55
3, 188950, Note_on_c, 0, 57, 27
3, 188952, Note_on_c, 0, 62, 32
3, 188954, Note_on_c, 0, 58, 37
3, 189162, Note_on_c, 0, 74, 29
3, 189174, Note_on_c, 0, 73, 0
3, 189184, Note_on_c, 0, 69, 0
3, 189198, Note_on_c, 0, 74, 0
3, 189218, Note_on_c, 0, 57, 0
3, 189220, Note_on_c, 0, 81, 0
3, 189220, Note_on_c, 0, 62, 0
3, 189242, Note_on_c, 0, 58, 0
3, 189280, Note_on_c, 0, 53, 0
3, 189702, Note_on_c, 0, 62, 35
3, 189704, Note_on_c, 0, 57, 29
3, 189716, Note_on_c, 0, 58, 25
3, 189776, Note_on_c, 0, 57, 0
3, 189782, Note_on_c, 0, 62, 0
3, 189786, Note_on_c, 0, 58, 0
3, 190084, Note_on_c, 0, 81, 62
3, 190088, Note_on_c, 0, 74, 58
3, 190098, Note_on_c, 0, 69, 35
3, 190226, Note_on_c, 0, 74, 0
3, 190232, Note_on_c, 0, 69, 0
3, 190248, Note_on_c, 0, 81, 0
3, 190466, Note_on_c, 0, 81, 46
3, 190468, Note_on_c, 0, 73, 36
3, 190476, Note_on_c, 0, 69, 44
3, 190476, Note_on_c, 0, 52, 35
3, 190482, Note_on_c, 0, 58, 32
3, 190486, Note_on_c, 0, 62, 24
3, 190554, Note_on_c, 0, 62, 0
3, 190560, Note_on_c, 0, 69, 0
3, 190574, Note_on_c, 0, 52, 0
3, 190574, Note_on_c, 0, 58, 0
3, 190654, Note_on_c, 0, 81, 0
3, 190672, Note_on_c, 0, 73, 0
3, 191132, Note_on_c, 0, 61, 76
3, 191136, Note_on_c, 0, 58, 67
3, 191146, Note_on_c, 0, 52, 61
3, 191156, Note_on_c, 0, 61, 0
3, 191168, Note_on_c, 0, 52, 0
3, 191186, Note_on_c, 0, 58, 0
3, 191266, Note_on_c, 0, 76, 57
3, 191266, Note_on_c, 0, 67, 60
3, 191268, Note_on_c, 0, 79, 53
3, 191276, Note_on_c, 0, 73, 26
3, 191436, Note_on_c, 0, 79, 0
3, 191440, Note_on_c, 0, 76, 0
3, 191444, Note_on_c, 0, 67, 0
3, 191492, Note_on_c, 0, 73, 0
3, 191526, Note_on_c, 0, 77, 58
3, 191532, Note_on_c, 0, 73, 39
3, 191544, Note_on_c, 0, 65, 61
3, 191580, Note_on_c, 0, 65, 0
3, 191596, Note_on_c, 0, 77, 0
3, 191618, Note_on_c, 0, 73, 0
3, 191668, Note_on_c, 0, 76, 45
3, 191690, Note_on_c, 0, 64, 31
3, 191758, Note_on_c, 0, 64, 0
3, 191846, Note_on_c, 0, 76, 0
3, 192008, Note_on_c, 0, 57, 74
3, 192008, Note_on_c, 0, 67, 76
3, 192014, Note_on_c, 0, 62, 64
3, 192032, Note_on_c, 0, 67, 0
3, 192032, Note_on_c, 0, 57, 0
3, 192038, Note_on_c, 0, 62, 0
3, 192078, Note_on_c, 0, 84, 74
3, 192080, Note_on_c, 0, 79, 65
3, 192082, Note_on_c, 0, 74, 56
3, 192160, Note_on_c, 0, 84, 0
3, 192162, Note_on_c, 0, 79, 0
3, 192168, Note_on_c, 0, 74, 0
3, 192684, Note_on_c, 0, 67, 29
3, 192694, Note_on_c, 0, 57, 26
3, 192708, Note_on_c, 0, 67, 0
3, 192720, Note_on_c, 0, 57, 0
3, 193062, Note_on_c, 0, 81, 78
3, 193124, Note_on_c, 0, 57, 32
3, 193154, Note_on_c, 0, 81, 0
3, 193184, Note_on_c, 0, 57, 0
3, 193240, Note_on_c, 0, 79, 34
3, 193394, Note_on_c, 0, 79, 0
3, 193456, Note_on_c, 0, 77, 66
3, 193472, Note_on_c, 0, 63, 45
3, 193474, Note_on_c, 0, 67, 50
3, 193480, Note_on_c, 0, 56, 32
3, 193482, Note_on_c, 0, 60, 47
3, 193542, Note_on_c, 0, 67, 0
3, 193544, Note_on_c, 0, 77, 0
3, 193564, Note_on_c, 0, 60, 0
3, 193582, Note_on_c, 0, 56, 0
3, 193584, Note_on_c, 0, 63, 0
3, 193634, Note_on_c, 0, 56, 38
3, 193646, Note_on_c, 0, 63, 32
3, 193650, Note_on_c, 0, 67, 40
3, 193658, Note_on_c, 0, 80, 57
3, 193666, Note_on_c, 0, 60, 33
3, 193796, Note_on_c, 0, 60, 0
3, 193796, Note_on_c, 0, 67, 0
3, 193814, Note_on_c, 0, 63, 0
3, 193834, Note_on_c, 0, 56, 0
3, 193852, Note_on_c, 0, 80, 0
3, 193932, Note_on_c, 0, 63, 34
3, 193934, Note_on_c, 0, 56, 33
3, 193940, Note_on_c, 0, 67, 33
3, 193944, Note_on_c, 0, 77, 55
3, 193960, Note_on_c, 0, 60, 38
3, 193994, Control_c, 0, 64, 127
3, 194078, Note_on_c, 0, 67, 0
3, 194100, Note_on_c, 0, 56, 0
3, 194168, Note_on_c, 0, 60, 0
3, 194178, Note_on_c, 0, 63, 0
3, 194220, Note_on_c, 0, 72, 51
3, 194228, Note_on_c, 0, 56, 50
3, 194232, Note_on_c, 0, 67, 55
3, 194234, Note_on_c, 0, 62, 57
3, 194240, Note_on_c, 0, 77, 0
3, 194248, Control_c, 0, 64, 0
3, 194382, Control_c, 0, 64, 127
3, 194690, Note_on_c, 0, 56, 0
3, 194692, Note_on_c, 0, 62, 0
3, 194720, Note_on_c, 0, 67, 0
3, 194890, Note_on_c, 0, 72, 0
3, 194986, Note_on_c, 0, 74, 68
3, 195062, Note_on_c, 0, 74, 0
3, 195114, Note_on_c, 0, 67, 30
3, 195120, Note_on_c, 0, 62, 37
3, 195124, Note_on_c, 0, 64, 35
3, 195130, Control_c, 0, 64, 0
3, 195152, Note_on_c, 0, 75, 47
3, 195264, Note_on_c, 0, 75, 0
3, 195276, Note_on_c, 0, 76, 62
3, 195344, Note_on_c, 0, 76, 0
3, 195388, Note_on_c, 0, 79, 71
3, 195490, Note_on_c, 0, 79, 0
3, 195532, Note_on_c, 0, 75, 36
3, 195640, Note_on_c, 0, 75, 0
3, 195662, Note_on_c, 0, 76, 44
3, 195688, Note_on_c, 0, 64, 0
3, 195704, Note_on_c, 0, 67, 0
3, 195720, Note_on_c, 0, 62, 0
3, 195732, Note_on_c, 0, 76, 0
3, 195770, Note_on_c, 0, 79, 74
3, 195876, Note_on_c, 0, 79, 0
3, 195884, Note_on_c, 0, 56, 33
3, 195888, Note_on_c, 0, 67, 33
3, 195898, Note_on_c, 0, 75, 49
3, 195910, Note_on_c, 0, 62, 43
3, 195980, Note_on_c, 0, 75, 0
3, 195982, Note_on_c, 0, 76, 51
3, 196194, Note_on_c, 0, 76, 0
3, 196208, Note_on_c, 0, 67, 0
3, 196248, Note_on_c, 0, 62, 0
3, 196264, Note_on_c, 0, 67, 58
3, 196308, Control_c, 0, 64, 127
3, 196430, Note_on_c, 0, 56, 0
3, 196548, Note_on_c, 0, 67, 0
3, 196626, Control_c, 0, 64, 0
3, 196646, Note_on_c, 0, 65, 44
3, 196646, Note_on_c, 0, 61, 39
3, 196648, Note_on_c, 0, 60, 37
3, 196652, Note_on_c, 0, 55, 50
3, 197014, Control_c, 0, 64, 127
3, 197118, Note_on_c, 0, 60, 0
3, 197128, Note_on_c, 0, 65, 0
3, 197160, Note_on_c, 0, 55, 0
3, 197430, Control_c, 0, 64, 0
3, 197500, Note_on_c, 0, 61, 0
3, 197592, Control_c, 0, 64, 127
3, 197678, Note_on_c, 0, 72, 80
3, 197678, Control_c, 0, 64, 0
3, 197680, Note_on_c, 0, 61, 43
3, 197688, Note_on_c, 0, 65, 36
3, 197712, Note_on_c, 0, 60, 27
3, 197716, Note_on_c, 0, 65, 0
3, 197726, Note_on_c, 0, 72, 0
3, 197740, Note_on_c, 0, 60, 0
3, 197790, Note_on_c, 0, 61, 0
3, 197820, Note_on_c, 0, 74, 62
3, 197874, Note_on_c, 0, 74, 0
3, 197952, Control_c, 0, 64, 127
3, 198060, Note_on_c, 0, 75, 61
3, 198136, Control_c, 0, 64, 0
3, 198140, Note_on_c, 0, 75, 0
3, 198198, Note_on_c, 0, 76, 64
3, 198278, Control_c, 0, 64, 127
3, 198290, Note_on_c, 0, 76, 0
3, 198792, Note_on_c, 0, 66, 64
3, 198796, Note_on_c, 0, 57, 66
3, 198800, Note_on_c, 0, 61, 48
3, 198808, Note_on_c, 0, 47, 63
3, 198808, Note_on_c, 0, 63, 34
3, 198858, Note_on_c, 0, 57, 0
3, 198908, Note_on_c, 0, 66, 0
3, 198910, Note_on_c, 0, 61, 0
3, 198926, Note_on_c, 0, 63, 0
3, 198946, Note_on_c, 0, 47, 0
3, 198948, Control_c, 0, 64, 0
3, 198978, Note_on_c, 0, 56, 46
3, 198988, Note_on_c, 0, 62, 54
3, 198992, Note_on_c, 0, 46, 34
3, 199000, Note_on_c, 0, 65, 53
3, 199070, Note_on_c, 0, 62, 0
3, 199100, Note_on_c, 0, 65, 0
3, 199130, Note_on_c, 0, 56, 0
3, 199230, Note_on_c, 0, 61, 56
3, 199232, Note_on_c, 0, 46, 0
3, 199234, Note_on_c, 0, 64, 54
3, 199240, Note_on_c, 0, 45, 44
3, 199242, Note_on_c, 0, 55, 32
3, 199268, Note_on_c, 0, 64, 0
3, 199276, Note_on_c, 0, 55, 0
3, 199304, Note_on_c, 0, 45, 0
3, 199308, Note_on_c, 0, 61, 0
3, 199536, Note_on_c, 0, 54, 46
3, 199538, Note_on_c, 0, 63, 37
3, 199544, Note_on_c, 0, 44, 46
3, 199568, Control_c, 0, 64, 127
3, 199628, Note_on_c, 0, 54, 0
3, 199630, Note_on_c, 0, 63, 0
3, 199704, Note_on_c, 0, 44, 0
3, 199738, Control_c, 0, 64, 0
3, 199752, Note_on_c, 0, 53, 50
3, 199760, Note_on_c, 0, 43, 36
3, 199766, Note_on_c, 0, 57, 59
3, 199770, Note_on_c, 0, 60, 39
3, 199772, Note_on_c, 0, 62, 50
3, 199986, Control_c, 0, 64, 127
3, 200002, Note_on_c, 0, 31, 63
3, 200078, Note_on_c, 0, 31, 0
3, 200100, Note_on_c, 0, 43, 0
3, 200188, Note_on_c, 0, 57, 0
3, 200234, Note_on_c, 0, 60, 0
3, 200240, Note_on_c, 0, 53, 0
3, 200328, Note_on_c, 0, 62, 0
3, 200464, Control_c, 0, 64, 0
3, 200466, Note_on_c, 0, 56, 40
3, 200472, Note_on_c, 0, 59, 51
3, 200472, Note_on_c, 0, 53, 42
3, 200474, Note_on_c, 0, 64, 44
3, 200656, Control_c, 0, 64, 127
3, 200740, Note_on_c, 0, 43, 46
3, 200832, Note_on_c, 0, 43, 0
3, 200946, Note_on_c, 0, 59, 0
3, 200950, Note_on_c, 0, 53, 0
3, 201056, Note_on_c, 0, 56, 0
3, 201096, Note_on_c, 0, 64, 0
3, 201246, Note_on_c, 0, 60, 46
3, 201254, Control_c, 0, 64, 0
3, 201284, Note_on_c, 0, 60, 0
3, 201478, Note_on_c, 0, 40, 57
3, 201542, Note_on_c, 0, 40, 0
3, 201578, Control_c, 0, 64, 127
3, 201996, Control_c, 0, 64, 0
3, 202000, Note_on_c, 0, 66, 74
3, 202000, Note_on_c, 0, 72, 57
3, 202084, Note_on_c, 0, 72, 0
3, 202092, Note_on_c, 0, 66, 0
3, 202136, Note_on_c, 0, 60, 32
3, 202178, Note_on_c, 0, 60, 0
3, 202250, Note_on_c, 0, 69, 64
3, 202260, Note_on_c, 0, 65, 66
3, 202330, Note_on_c, 0, 65, 0
3, 202336, Note_on_c, 0, 69, 0
3, 202408, Note_on_c, 0, 63, 56
3, 202434, Note_on_c, 0, 67, 27
3, 202464, Note_on_c, 0, 67, 0
3, 202518, Note_on_c, 0, 63, 0
3, 202542, Note_on_c, 0, 64, 62
3, 202608, Note_on_c, 0, 64, 0
3, 202658, Note_on_c, 0, 60, 60
3, 202728, Note_on_c, 0, 60, 0
3, 202798, Note_on_c, 0, 55, 34
3, 202846, Note_on_c, 0, 55, 0
3, 202898, Note_on_c, 0, 53, 52
3, 202978, Note_on_c, 0, 53, 0
3, 203030, Note_on_c, 0, 37, 29
3, 203108, Note_on_c, 0, 37, 0
3, 203172, Note_on_c, 0, 25, 39
3, 203238, Control_c, 0, 64, 127
3, 203402, Note_on_c, 0, 25, 0
3, 203458, Note_on_c, 0, 24, 60
3, 203464, Control_c, 0, 64, 0
3, 203604, Control_c, 0, 64, 127
3, 203696, Note_on_c, 0, 24, 0
3, 206534, Control_c, 0, 64, 0
3, 206534, End_track
4, 0, Start_track
4, 0, Control_c, 1, 0, 0
4, 0, Control_c, 1, 7, 127
4, 0, Control_c, 1, 11, 127
4, 0, Control_c, 1, 64, 0
4, 0, Control_c, 1, 67, 0
4, 0, Pitch_bend_c, 1, 8192
4, 0, Program_c, 1, 32
4, 1536, Note_on_c, 1, 43, 123
4, 2168, Note_on_c, 1, 31, 101
4, 2176, Note_on_c, 1, 43, 0
4, 2960, Note_on_c, 1, 42, 66
4, 2992, Note_on_c, 1, 42, 0
4, 3080, Note_on_c, 1, 43, 116
4, 3304, Note_on_c, 1, 43, 0
4, 3352, Note_on_c, 1, 42, 71
4, 3424, Note_on_c, 1, 42, 0
4, 3472, Note_on_c, 1, 43, 84
4, 3504, Note_on_c, 1, 31, 0
4, 3712, Note_on_c, 1, 43, 0
4, 3728, Note_on_c, 1, 31, 98
4, 4504, Note_on_c, 1, 42, 81
4, 4552, Note_on_c, 1, 42, 0
4, 4608, Note_on_c, 1, 43, 113
4, 4664, Note_on_c, 1, 31, 0
4, 4856, Note_on_c, 1, 43, 0
4, 4880, Note_on_c, 1, 42, 80
4, 4944, Note_on_c, 1, 42, 0
4, 4992, Note_on_c, 1, 43, 102
4, 5216, Note_on_c, 1, 43, 0
4, 5256, Note_on_c, 1, 42, 83
4, 5320, Note_on_c, 1, 42, 0
4, 5376, Note_on_c, 1, 43, 91
4, 5584, Note_on_c, 1, 43, 0
4, 5632, Note_on_c, 1, 31, 107
4, 5704, Note_on_c, 1, 31, 0
4, 5792, Note_on_c, 1, 30, 109
4, 6000, Note_on_c, 1, 31, 127
4, 6008, Note_on_c, 1, 30, 0
4, 6144, Note_on_c, 1, 31, 84
4, 6312, Note_on_c, 1, 31, 0
4, 6400, Note_on_c, 1, 43, 127
4, 6432, Note_on_c, 1, 31, 0
4, 6448, Note_on_c, 1, 43, 0
4, 6488, Note_on_c, 1, 42, 86
4, 6520, Note_on_c, 1, 42, 0
4, 6560, Note_on_c, 1, 43, 113
4, 6856, Pitch_bend_c, 1, 8192
4, 6864, Pitch_bend_c, 1, 8192
4, 6872, Pitch_bend_c, 1, 8712
4, 6880, Pitch_bend_c, 1, 8842
4, 6904, Pitch_bend_c, 1, 8192
4, 6904, Pitch_bend_c, 1, 8192
4, 6912, Pitch_bend_c, 1, 8192
4, 7008, Pitch_bend_c, 1, 8192
4, 7008, Pitch_bend_c, 1, 8712
4, 7016, Pitch_bend_c, 1, 9102
4, 7016, Pitch_bend_c, 1, 9492
4, 7016, Pitch_bend_c, 1, 9882
4, 7024, Pitch_bend_c, 1, 10272
4, 7024, Pitch_bend_c, 1, 10792
4, 7032, Pitch_bend_c, 1, 11052
4, 7032, Pitch_bend_c, 1, 11572
4, 7040, Pitch_bend_c, 1, 11832
4, 7040, Pitch_bend_c, 1, 12092
4, 7048, Pitch_bend_c, 1, 12352
4, 7048, Pitch_bend_c, 1, 12482
4, 7056, Pitch_bend_c, 1, 12742
4, 7072, Pitch_bend_c, 1, 12482
4, 7072, Pitch_bend_c, 1, 12352
4, 7080, Pitch_bend_c, 1, 12222
4, 7080, Pitch_bend_c, 1, 11962
4, 7088, Pitch_bend_c, 1, 11702
4, 7088, Pitch_bend_c, 1, 11442
4, 7096, Pitch_bend_c, 1, 11052
4, 7096, Pitch_bend_c, 1, 10662
4, 7104, Pitch_bend_c, 1, 10272
4, 7104, Pitch_bend_c, 1, 10012
4, 7112, Pitch_bend_c, 1, 9752
4, 7112, Pitch_bend_c, 1, 9362
4, 7112, Pitch_bend_c, 1, 9232
4, 7120, Pitch_bend_c, 1, 8972
4, 7120, Pitch_bend_c, 1, 8842
4, 7128, Pitch_bend_c, 1, 8712
4, 7144, Pitch_bend_c, 1, 8842
4, 7152, Pitch_bend_c, 1, 9102
4, 7152, Pitch_bend_c, 1, 9232
4, 7160, Pitch_bend_c, 1, 9622
4, 7160, Pitch_bend_c, 1, 9882
4, 7168, Pitch_bend_c, 1, 10142
4, 7168, Pitch_bend_c, 1, 10532
4, 7176, Pitch_bend_c, 1, 10922
4, 7176, Pitch_bend_c, 1, 11442
4, 7184, Pitch_bend_c, 1, 11702
4, 7184, Pitch_bend_c, 1, 12092
4, 7184, Pitch_bend_c, 1, 12352
4, 7192, Pitch_bend_c, 1, 12612
4, 7192, Pitch_bend_c, 1, 12872
4, 7200, Pitch_bend_c, 1, 13002
4, 7200, Pitch_bend_c, 1, 13132
4, 7224, Pitch_bend_c, 1, 12872
4, 7224, Pitch_bend_c, 1, 12742
4, 7232, Pitch_bend_c, 1, 12482
4, 7232, Pitch_bend_c, 1, 12222
4, 7240, Pitch_bend_c, 1, 11832
4, 7240, Pitch_bend_c, 1, 11572
4, 7248, Pitch_bend_c, 1, 11312
4, 7248, Pitch_bend_c, 1, 10792
4, 7256, Pitch_bend_c, 1, 10532
4, 7256, Pitch_bend_c, 1, 10272
4, 7256, Pitch_bend_c, 1, 10012
4, 7264, Pitch_bend_c, 1, 9752
4, 7264, Pitch_bend_c, 1, 9622
4, 7272, Pitch_bend_c, 1, 9362
4, 7272, Pitch_bend_c, 1, 9102
4, 7280, Pitch_bend_c, 1, 8972
4, 7280, Pitch_bend_c, 1, 8842
4, 7288, Pitch_bend_c, 1, 8712
4, 7288, Pitch_bend_c, 1, 8192
4, 7288, Pitch_bend_c, 1, 8192
4, 7296, Pitch_bend_c, 1, 8192
4, 7680, Note_on_c, 1, 35, 67
4, 7704, Note_on_c, 1, 35, 0
4, 7704, Note_on_c, 1, 43, 0
4, 7712, Note_on_c, 1, 36, 94
4, 8192, Note_on_c, 1, 36, 0
4, 8192, Note_on_c, 1, 43, 96
4, 8216, Note_on_c, 1, 43, 0
4, 8288, Note_on_c, 1, 42, 95
4, 8384, Note_on_c, 1, 42, 0
4, 8416, Note_on_c, 1, 41, 97
4, 8656, Note_on_c, 1, 36, 89
4, 8696, Note_on_c, 1, 36, 0
4, 8776, Note_on_c, 1, 29, 89
4, 8800, Note_on_c, 1, 41, 0
4, 9168, Note_on_c, 1, 29, 0
4, 9192, Note_on_c, 1, 28, 80
4, 9472, Note_on_c, 1, 31, 71
4, 9512, Note_on_c, 1, 31, 0
4, 9536, Note_on_c, 1, 28, 0
4, 9560, Note_on_c, 1, 40, 107
4, 9816, Note_on_c, 1, 32, 86
4, 9928, Note_on_c, 1, 40, 0
4, 9936, Note_on_c, 1, 32, 0
4, 9936, Note_on_c, 1, 33, 90
4, 10208, Note_on_c, 1, 39, 104
4, 10248, Note_on_c, 1, 33, 0
4, 10336, Note_on_c, 1, 39, 0
4, 10360, Note_on_c, 1, 36, 79
4, 10576, Note_on_c, 1, 36, 0
4, 10616, Note_on_c, 1, 37, 76
4, 10712, Note_on_c, 1, 37, 0
4, 10752, Note_on_c, 1, 38, 82
4, 10856, Note_on_c, 1, 38, 0
4, 11008, Note_on_c, 1, 45, 77
4, 11040, Note_on_c, 1, 45, 0
4, 11136, Note_on_c, 1, 52, 105
4, 11176, Note_on_c, 1, 52, 0
4, 11264, Note_on_c, 1, 51, 62
4, 11288, Note_on_c, 1, 51, 0
4, 11376, Note_on_c, 1, 50, 106
4, 11640, Note_on_c, 1, 50, 0
4, 11648, Note_on_c, 1, 48, 94
4, 11696, Note_on_c, 1, 48, 0
4, 11768, Note_on_c, 1, 45, 90
4, 11864, Note_on_c, 1, 45, 0
4, 11912, Note_on_c, 1, 41, 83
4, 11992, Note_on_c, 1, 41, 0
4, 12184, Note_on_c, 1, 39, 103
4, 12264, Note_on_c, 1, 39, 0
4, 12296, Note_on_c, 1, 38, 93
4, 12648, Note_on_c, 1, 38, 0
4, 12664, Note_on_c, 1, 45, 93
4, 12896, Note_on_c, 1, 33, 82
4, 12912, Note_on_c, 1, 33, 0
4, 12976, Note_on_c, 1, 45, 0
4, 13032, Note_on_c, 1, 43, 77
4, 13272, Note_on_c, 1, 33, 81
4, 13288, Note_on_c, 1, 33, 0
4, 13416, Note_on_c, 1, 43, 0
4, 13416, Note_on_c, 1, 38, 89
4, 13464, Note_on_c, 1, 38, 0
4, 13528, Note_on_c, 1, 34, 84
4, 13624, Note_on_c, 1, 34, 0
4, 13656, Note_on_c, 1, 35, 98
4, 13792, Note_on_c, 1, 35, 0
4, 13808, Note_on_c, 1, 36, 93
4, 14208, Note_on_c, 1, 45, 111
4, 14240, Note_on_c, 1, 36, 0
4, 14456, Note_on_c, 1, 36, 89
4, 14496, Note_on_c, 1, 36, 0
4, 14560, Note_on_c, 1, 45, 0
4, 14584, Note_on_c, 1, 41, 96
4, 14936, Note_on_c, 1, 41, 0
4, 14976, Note_on_c, 1, 41, 98
4, 15240, Note_on_c, 1, 36, 70
4, 15272, Note_on_c, 1, 36, 0
4, 15336, Note_on_c, 1, 41, 0
4, 15368, Note_on_c, 1, 40, 87
4, 15608, Note_on_c, 1, 35, 108
4, 15680, Note_on_c, 1, 35, 0
4, 15872, Note_on_c, 1, 31, 94
4, 15920, Note_on_c, 1, 40, 0
4, 15952, Note_on_c, 1, 31, 0
4, 15984, Note_on_c, 1, 32, 96
4, 16080, Note_on_c, 1, 32, 0
4, 16104, Note_on_c, 1, 33, 91
4, 16496, Note_on_c, 1, 40, 94
4, 16544, Note_on_c, 1, 33, 0
4, 16744, Note_on_c, 1, 33, 84
4, 16768, Note_on_c, 1, 40, 0
4, 16848, Note_on_c, 1, 33, 0
4, 16888, Note_on_c, 1, 32, 94
4, 17152, Note_on_c, 1, 48, 127
4, 17224, Note_on_c, 1, 48, 0
4, 17280, Note_on_c, 1, 32, 0
4, 17288, Note_on_c, 1, 44, 63
4, 17360, Note_on_c, 1, 44, 0
4, 17392, Note_on_c, 1, 43, 76
4, 17456, Note_on_c, 1, 43, 0
4, 17512, Note_on_c, 1, 41, 96
4, 17632, Note_on_c, 1, 41, 0
4, 17648, Note_on_c, 1, 39, 91
4, 17912, Note_on_c, 1, 32, 79
4, 17952, Note_on_c, 1, 32, 0
4, 18032, Note_on_c, 1, 39, 0
4, 18040, Note_on_c, 1, 36, 100
4, 18096, Note_on_c, 1, 36, 0
4, 18152, Note_on_c, 1, 33, 85
4, 18224, Note_on_c, 1, 33, 0
4, 18288, Note_on_c, 1, 32, 96
4, 18400, Note_on_c, 1, 32, 0
4, 18432, Note_on_c, 1, 31, 91
4, 18680, Note_on_c, 1, 43, 93
4, 18992, Note_on_c, 1, 31, 0
4, 19048, Note_on_c, 1, 43, 0
4, 19056, Note_on_c, 1, 31, 85
4, 19072, Note_on_c, 1, 31, 0
4, 19184, Note_on_c, 1, 43, 116
4, 19296, Pitch_bend_c, 1, 8192
4, 19296, Pitch_bend_c, 1, 8192
4, 19296, Pitch_bend_c, 1, 8712
4, 19304, Pitch_bend_c, 1, 9102
4, 19304, Pitch_bend_c, 1, 9492
4, 19312, Pitch_bend_c, 1, 9882
4, 19312, Pitch_bend_c, 1, 10272
4, 19320, Pitch_bend_c, 1, 10662
4, 19320, Pitch_bend_c, 1, 11052
4, 19328, Pitch_bend_c, 1, 11442
4, 19328, Pitch_bend_c, 1, 11702
4, 19336, Pitch_bend_c, 1, 11832
4, 19336, Pitch_bend_c, 1, 11962
4, 19352, Pitch_bend_c, 1, 11832
4, 19360, Pitch_bend_c, 1, 11572
4, 19360, Pitch_bend_c, 1, 11312
4, 19360, Pitch_bend_c, 1, 10792
4, 19368, Pitch_bend_c, 1, 10532
4, 19368, Pitch_bend_c, 1, 10012
4, 19376, Pitch_bend_c, 1, 9622
4, 19376, Pitch_bend_c, 1, 9102
4, 19384, Pitch_bend_c, 1, 8712
4, 19384, Pitch_bend_c, 1, 8192
4, 19384, Pitch_bend_c, 1, 8192
4, 19448, Pitch_bend_c, 1, 8192
4, 19456, Pitch_bend_c, 1, 8712
4, 19456, Pitch_bend_c, 1, 9102
4, 19456, Pitch_bend_c, 1, 9622
4, 19464, Pitch_bend_c, 1, 10142
4, 19464, Pitch_bend_c, 1, 10532
4, 19472, Pitch_bend_c, 1, 10922
4, 19472, Pitch_bend_c, 1, 11442
4, 19480, Pitch_bend_c, 1, 11702
4, 19480, Pitch_bend_c, 1, 11962
4, 19488, Pitch_bend_c, 1, 12092
4, 19504, Pitch_bend_c, 1, 12222
4, 19504, Pitch_bend_c, 1, 12092
4, 19512, Pitch_bend_c, 1, 11962
4, 19512, Pitch_bend_c, 1, 11832
4, 19512, Pitch_bend_c, 1, 11572
4, 19520, Pitch_bend_c, 1, 11312
4, 19520, Pitch_bend_c, 1, 10922
4, 19528, Pitch_bend_c, 1, 10662
4, 19528, Pitch_bend_c, 1, 10272
4, 19536, Pitch_bend_c, 1, 9882
4, 19536, Pitch_bend_c, 1, 9362
4, 19544, Pitch_bend_c, 1, 8972
4, 19544, Pitch_bend_c, 1, 8192
4, 19544, Pitch_bend_c, 1, 8192
4, 19976, Note_on_c, 1, 36, 106
4, 19992, Note_on_c, 1, 43, 0
4, 20248, Note_on_c, 1, 43, 56
4, 20264, Note_on_c, 1, 43, 0
4, 20360, Note_on_c, 1, 48, 121
4, 20392, Note_on_c, 1, 36, 0
4, 20608, Note_on_c, 1, 36, 89
4, 20648, Note_on_c, 1, 36, 0
4, 20720, Note_on_c, 1, 48, 0
4, 20736, Note_on_c, 1, 47, 99
4, 21080, Note_on_c, 1, 47, 0
4, 21128, Note_on_c, 1, 47, 95
4, 21496, Note_on_c, 1, 47, 0
4, 21520, Note_on_c, 1, 46, 92
4, 21864, Note_on_c, 1, 46, 0
4, 21912, Note_on_c, 1, 46, 90
4, 22136, Note_on_c, 1, 38, 101
4, 22208, Note_on_c, 1, 46, 0
4, 22216, Note_on_c, 1, 38, 0
4, 22248, Note_on_c, 1, 39, 80
4, 22464, Note_on_c, 1, 39, 0
4, 22496, Note_on_c, 1, 34, 105
4, 22592, Note_on_c, 1, 34, 0
4, 22624, Note_on_c, 1, 33, 87
4, 23000, Note_on_c, 1, 33, 0
4, 23016, Note_on_c, 1, 32, 78
4, 23272, Note_on_c, 1, 39, 67
4, 23320, Note_on_c, 1, 39, 0
4, 23400, Note_on_c, 1, 48, 110
4, 23440, Note_on_c, 1, 32, 0
4, 23592, Note_on_c, 1, 48, 0
4, 23656, Note_on_c, 1, 46, 92
4, 23752, Note_on_c, 1, 46, 0
4, 23800, Note_on_c, 1, 44, 75
4, 24304, Note_on_c, 1, 39, 100
4, 24320, Note_on_c, 1, 44, 0
4, 24336, Note_on_c, 1, 39, 0
4, 24432, Note_on_c, 1, 30, 105
4, 24560, Note_on_c, 1, 30, 0
4, 24576, Note_on_c, 1, 31, 102
4, 24952, Note_on_c, 1, 43, 107
4, 25032, Note_on_c, 1, 31, 0
4, 25056, Note_on_c, 1, 43, 0
4, 25064, Note_on_c, 1, 44, 78
4, 25160, Note_on_c, 1, 44, 0
4, 25208, Note_on_c, 1, 43, 110
4, 25472, Note_on_c, 1, 36, 101
4, 25504, Note_on_c, 1, 36, 0
4, 25728, Note_on_c, 1, 34, 89
4, 25840, Note_on_c, 1, 34, 0
4, 25856, Note_on_c, 1, 43, 0
4, 25856, Note_on_c, 1, 35, 91
4, 26104, Note_on_c, 1, 35, 0
4, 26120, Note_on_c, 1, 36, 85
4, 26488, Note_on_c, 1, 48, 124
4, 26512, Note_on_c, 1, 36, 0
4, 26752, Note_on_c, 1, 36, 71
4, 26800, Note_on_c, 1, 36, 0
4, 26840, Note_on_c, 1, 48, 0
4, 26872, Note_on_c, 1, 46, 93
4, 27280, Note_on_c, 1, 34, 86
4, 27288, Note_on_c, 1, 46, 0
4, 27656, Note_on_c, 1, 34, 0
4, 27656, Note_on_c, 1, 33, 87
4, 27928, Note_on_c, 1, 45, 63
4, 27944, Note_on_c, 1, 45, 0
4, 28048, Note_on_c, 1, 48, 127
4, 28072, Note_on_c, 1, 33, 0
4, 28376, Note_on_c, 1, 48, 0
4, 28432, Note_on_c, 1, 45, 78
4, 28680, Note_on_c, 1, 45, 0
4, 28680, Note_on_c, 1, 40, 95
4, 28720, Note_on_c, 1, 40, 0
4, 28824, Note_on_c, 1, 33, 71
4, 28960, Note_on_c, 1, 33, 0
4, 29176, Note_on_c, 1, 32, 107
4, 29256, Pitch_bend_c, 1, 8192
4, 29264, Pitch_bend_c, 1, 8842
4, 29272, Pitch_bend_c, 1, 9232
4, 29272, Pitch_bend_c, 1, 9492
4, 29272, Pitch_bend_c, 1, 9882
4, 29280, Pitch_bend_c, 1, 10272
4, 29280, Pitch_bend_c, 1, 10662
4, 29288, Pitch_bend_c, 1, 10922
4, 29288, Pitch_bend_c, 1, 11312
4, 29296, Pitch_bend_c, 1, 11442
4, 29296, Pitch_bend_c, 1, 11572
4, 29304, Pitch_bend_c, 1, 11702
4, 29320, Pitch_bend_c, 1, 11572
4, 29320, Pitch_bend_c, 1, 11442
4, 29328, Pitch_bend_c, 1, 11052
4, 29328, Pitch_bend_c, 1, 10792
4, 29336, Pitch_bend_c, 1, 10272
4, 29336, Pitch_bend_c, 1, 10012
4, 29344, Pitch_bend_c, 1, 9622
4, 29344, Pitch_bend_c, 1, 9232
4, 29344, Pitch_bend_c, 1, 8842
4, 29352, Pitch_bend_c, 1, 8192
4, 29352, Pitch_bend_c, 1, 8192
4, 29432, Pitch_bend_c, 1, 8192
4, 29432, Pitch_bend_c, 1, 8712
4, 29440, Pitch_bend_c, 1, 9232
4, 29440, Pitch_bend_c, 1, 9752
4, 29448, Pitch_bend_c, 1, 10142
4, 29448, Pitch_bend_c, 1, 10532
4, 29456, Pitch_bend_c, 1, 10922
4, 29456, Pitch_bend_c, 1, 11052
4, 29456, Pitch_bend_c, 1, 11442
4, 29464, Pitch_bend_c, 1, 11572
4, 29464, Pitch_bend_c, 1, 11702
4, 29472, Pitch_bend_c, 1, 11832
4, 29496, Pitch_bend_c, 1, 11702
4, 29504, Pitch_bend_c, 1, 11572
4, 29504, Pitch_bend_c, 1, 11312
4, 29504, Pitch_bend_c, 1, 10922
4, 29512, Pitch_bend_c, 1, 10662
4, 29512, Pitch_bend_c, 1, 10272
4, 29520, Pitch_bend_c, 1, 10012
4, 29520, Pitch_bend_c, 1, 9622
4, 29528, Pitch_bend_c, 1, 9232
4, 29528, Pitch_bend_c, 1, 8972
4, 29536, Pitch_bend_c, 1, 8192
4, 29536, Pitch_bend_c, 1, 8192
4, 29536, Pitch_bend_c, 1, 8192
4, 29536, Pitch_bend_c, 1, 8192
4, 30208, Note_on_c, 1, 29, 105
4, 30264, Note_on_c, 1, 32, 0
4, 30328, Note_on_c, 1, 29, 0
4, 30336, Note_on_c, 1, 30, 99
4, 30528, Note_on_c, 1, 30, 0
4, 30576, Note_on_c, 1, 31, 111
4, 30840, Note_on_c, 1, 55, 127
4, 30880, Note_on_c, 1, 55, 0
4, 31088, Note_on_c, 1, 55, 127
4, 31576, Note_on_c, 1, 55, 0
4, 31576, Note_on_c, 1, 31, 0
4, 31584, Note_on_c, 1, 50, 90
4, 31672, Note_on_c, 1, 50, 0
4, 31704, Note_on_c, 1, 46, 84
4, 31752, Note_on_c, 1, 46, 0
4, 31848, Note_on_c, 1, 43, 74
4, 31888, Note_on_c, 1, 43, 0
4, 31968, Note_on_c, 1, 34, 67
4, 32072, Note_on_c, 1, 34, 0
4, 32104, Note_on_c, 1, 35, 90
4, 32240, Note_on_c, 1, 35, 0
4, 32248, Note_on_c, 1, 36, 92
4, 32784, Note_on_c, 1, 48, 89
4, 32808, Note_on_c, 1, 48, 0
4, 32808, Note_on_c, 1, 36, 0
4, 32912, Note_on_c, 1, 42, 100
4, 33016, Note_on_c, 1, 42, 0
4, 33048, Note_on_c, 1, 41, 89
4, 33296, Note_on_c, 1, 36, 77
4, 33392, Note_on_c, 1, 36, 0
4, 33440, Note_on_c, 1, 29, 74
4, 33728, Note_on_c, 1, 29, 0
4, 33808, Note_on_c, 1, 28, 82
4, 33848, Note_on_c, 1, 41, 0
4, 34152, Note_on_c, 1, 28, 0
4, 34184, Note_on_c, 1, 40, 82
4, 34216, Note_on_c, 1, 40, 0
4, 34272, Note_on_c, 1, 35, 99
4, 34512, Note_on_c, 1, 35, 0
4, 34544, Note_on_c, 1, 33, 90
4, 34792, Note_on_c, 1, 45, 104
4, 35064, Note_on_c, 1, 45, 0
4, 35064, Note_on_c, 1, 40, 85
4, 35128, Note_on_c, 1, 40, 0
4, 35192, Note_on_c, 1, 39, 92
4, 35304, Note_on_c, 1, 33, 0
4, 35320, Note_on_c, 1, 39, 0
4, 35320, Note_on_c, 1, 38, 94
4, 35680, Note_on_c, 1, 38, 0
4, 35720, Note_on_c, 1, 38, 86
4, 36080, Note_on_c, 1, 38, 0
4, 36096, Note_on_c, 1, 33, 93
4, 36440, Note_on_c, 1, 33, 0
4, 36472, Note_on_c, 1, 32, 93
4, 36840, Note_on_c, 1, 32, 0
4, 36856, Note_on_c, 1, 31, 84
4, 37240, Note_on_c, 1, 43, 96
4, 37280, Note_on_c, 1, 31, 0
4, 37520, Note_on_c, 1, 31, 70
4, 37552, Note_on_c, 1, 31, 0
4, 37616, Note_on_c, 1, 43, 0
4, 37624, Note_on_c, 1, 50, 96
4, 37880, Note_on_c, 1, 34, 80
4, 37904, Note_on_c, 1, 50, 0
4, 37984, Note_on_c, 1, 34, 0
4, 38008, Note_on_c, 1, 35, 86
4, 38272, Note_on_c, 1, 34, 61
4, 38320, Note_on_c, 1, 35, 0
4, 38384, Note_on_c, 1, 34, 0
4, 38400, Note_on_c, 1, 36, 79
4, 38656, Note_on_c, 1, 43, 124
4, 38760, Note_on_c, 1, 43, 0
4, 38776, Note_on_c, 1, 36, 0
4, 38800, Note_on_c, 1, 42, 90
4, 39040, Note_on_c, 1, 34, 64
4, 39088, Note_on_c, 1, 34, 0
4, 39128, Note_on_c, 1, 42, 0
4, 39176, Note_on_c, 1, 41, 85
4, 39416, Note_on_c, 1, 36, 82
4, 39464, Note_on_c, 1, 36, 0
4, 39488, Note_on_c, 1, 41, 0
4, 39544, Note_on_c, 1, 29, 81
4, 39928, Note_on_c, 1, 29, 0
4, 39928, Note_on_c, 1, 40, 80
4, 40200, Note_on_c, 1, 35, 63
4, 40224, Note_on_c, 1, 35, 0
4, 40280, Note_on_c, 1, 40, 0
4, 40304, Note_on_c, 1, 44, 93
4, 40680, Note_on_c, 1, 43, 85
4, 40952, Note_on_c, 1, 38, 77
4, 41008, Note_on_c, 1, 38, 0
4, 41080, Note_on_c, 1, 34, 70
4, 41144, Note_on_c, 1, 34, 0
4, 41320, Note_on_c, 1, 32, 98
4, 41400, Note_on_c, 1, 43, 0
4, 41400, Note_on_c, 1, 44, 0
4, 41424, Note_on_c, 1, 32, 0
4, 41464, Note_on_c, 1, 31, 86
4, 41712, Note_on_c, 1, 38, 90
4, 41760, Note_on_c, 1, 38, 0
4, 41832, Note_on_c, 1, 46, 99
4, 41856, Note_on_c, 1, 31, 0
4, 42088, Note_on_c, 1, 46, 0
4, 42112, Note_on_c, 1, 31, 50
4, 42152, Note_on_c, 1, 31, 0
4, 42224, Note_on_c, 1, 45, 93
4, 42480, Note_on_c, 1, 38, 89
4, 42536, Note_on_c, 1, 38, 0
4, 42616, Note_on_c, 1, 34, 81
4, 42640, Note_on_c, 1, 34, 0
4, 42680, Note_on_c, 1, 45, 0
4, 42744, Note_on_c, 1, 35, 100
4, 43000, Note_on_c, 1, 35, 0
4, 43008, Note_on_c, 1, 36, 98
4, 43256, Note_on_c, 1, 48, 127
4, 43320, Note_on_c, 1, 48, 0
4, 43376, Note_on_c, 1, 46, 79
4, 43448, Note_on_c, 1, 36, 0
4, 43472, Note_on_c, 1, 46, 0
4, 43504, Note_on_c, 1, 45, 73
4, 43584, Note_on_c, 1, 45, 0
4, 43624, Note_on_c, 1, 43, 105
4, 43872, Note_on_c, 1, 43, 0
4, 43896, Note_on_c, 1, 40, 64
4, 44000, Note_on_c, 1, 40, 0
4, 44000, Note_on_c, 1, 38, 96
4, 44112, Note_on_c, 1, 38, 0
4, 44144, Note_on_c, 1, 37, 89
4, 44352, Note_on_c, 1, 37, 0
4, 44392, Note_on_c, 1, 30, 73
4, 44392, Note_on_c, 1, 29, 93
4, 44464, Note_on_c, 1, 29, 0
4, 44488, Note_on_c, 1, 30, 0
4, 44520, Note_on_c, 1, 29, 92
4, 44800, Note_on_c, 1, 41, 60
4, 44848, Note_on_c, 1, 41, 0
4, 44920, Note_on_c, 1, 45, 89
4, 44960, Note_on_c, 1, 29, 0
4, 45184, Note_on_c, 1, 29, 76
4, 45208, Note_on_c, 1, 29, 0
4, 45312, Note_on_c, 1, 45, 0
4, 45320, Note_on_c, 1, 41, 87
4, 45696, Note_on_c, 1, 36, 89
4, 45720, Note_on_c, 1, 36, 0
4, 45808, Note_on_c, 1, 31, 83
4, 45856, Note_on_c, 1, 31, 0
4, 45920, Note_on_c, 1, 30, 99
4, 45936, Note_on_c, 1, 41, 0
4, 46048, Note_on_c, 1, 30, 0
4, 46072, Note_on_c, 1, 29, 79
4, 46200, Note_on_c, 1, 41, 72
4, 46224, Note_on_c, 1, 41, 0
4, 46320, Note_on_c, 1, 44, 108
4, 46592, Note_on_c, 1, 43, 90
4, 46712, Note_on_c, 1, 43, 0
4, 46720, Note_on_c, 1, 41, 89
4, 46728, Note_on_c, 1, 44, 0
4, 46728, Note_on_c, 1, 29, 0
4, 46752, Note_on_c, 1, 41, 0
4, 46976, Note_on_c, 1, 34, 107
4, 47192, Note_on_c, 1, 34, 0
4, 47224, Note_on_c, 1, 35, 102
4, 47440, Note_on_c, 1, 35, 0
4, 47472, Note_on_c, 1, 36, 114
4, 47864, Note_on_c, 1, 52, 121
4, 48352, Note_on_c, 1, 52, 0
4, 48384, Note_on_c, 1, 36, 0
4, 48384, Note_on_c, 1, 50, 89
4, 48384, Note_on_c, 1, 34, 83
4, 48896, Note_on_c, 1, 34, 0
4, 48912, Note_on_c, 1, 31, 91
4, 48928, Note_on_c, 1, 50, 0
4, 49000, Note_on_c, 1, 31, 0
4, 49008, Note_on_c, 1, 32, 98
4, 49128, Note_on_c, 1, 32, 0
4, 49152, Note_on_c, 1, 33, 83
4, 49552, Note_on_c, 1, 38, 98
4, 49880, Note_on_c, 1, 33, 0
4, 49896, Note_on_c, 1, 38, 0
4, 49920, Note_on_c, 1, 44, 94
4, 50200, Note_on_c, 1, 32, 56
4, 50232, Note_on_c, 1, 32, 0
4, 50304, Note_on_c, 1, 37, 79
4, 50624, Note_on_c, 1, 37, 0
4, 50632, Note_on_c, 1, 44, 0
4, 50656, Note_on_c, 1, 36, 101
4, 50920, Note_on_c, 1, 35, 93
4, 50968, Note_on_c, 1, 35, 0
4, 51008, Note_on_c, 1, 36, 0
4, 51032, Note_on_c, 1, 47, 106
4, 51392, Note_on_c, 1, 47, 0
4, 51432, Note_on_c, 1, 46, 93
4, 51680, Note_on_c, 1, 35, 71
4, 51712, Note_on_c, 1, 35, 0
4, 51816, Note_on_c, 1, 45, 94
4, 52096, Note_on_c, 1, 34, 63
4, 52112, Note_on_c, 1, 34, 0
4, 52184, Note_on_c, 1, 45, 0
4, 52208, Note_on_c, 1, 44, 96
4, 52216, Note_on_c, 1, 46, 0
4, 52600, Note_on_c, 1, 44, 0
4, 52600, Note_on_c, 1, 32, 103
4, 52960, Note_on_c, 1, 32, 0
4, 52976, Note_on_c, 1, 31, 85
4, 53128, Note_on_c, 1, 43, 82
4, 53208, Note_on_c, 1, 43, 0
4, 53232, Note_on_c, 1, 42, 76
4, 53248, Note_on_c, 1, 31, 0
4, 53288, Note_on_c, 1, 42, 0
4, 53360, Note_on_c, 1, 43, 95
4, 53448, Note_on_c, 1, 43, 0
4, 53480, Note_on_c, 1, 42, 90
4, 53512, Note_on_c, 1, 42, 0
4, 53616, Note_on_c, 1, 43, 115
4, 53680, Control_c, 1, 1, 4
4, 53680, Control_c, 1, 1, 5
4, 53680, Control_c, 1, 1, 7
4, 53680, Control_c, 1, 1, 8
4, 53688, Control_c, 1, 1, 10
4, 53688, Control_c, 1, 1, 11
4, 53688, Control_c, 1, 1, 13
4, 53696, Control_c, 1, 1, 15
4, 53696, Control_c, 1, 1, 16
4, 53696, Control_c, 1, 1, 18
4, 53696, Control_c, 1, 1, 19
4, 53704, Control_c, 1, 1, 21
4, 53704, Control_c, 1, 1, 23
4, 53704, Control_c, 1, 1, 24
4, 53704, Control_c, 1, 1, 26
4, 53712, Control_c, 1, 1, 28
4, 53712, Control_c, 1, 1, 30
4, 53712, Control_c, 1, 1, 32
4, 53720, Control_c, 1, 1, 34
4, 53720, Control_c, 1, 1, 36
4, 53720, Control_c, 1, 1, 37
4, 53720, Control_c, 1, 1, 39
4, 53728, Control_c, 1, 1, 41
4, 53728, Control_c, 1, 1, 43
4, 53728, Control_c, 1, 1, 45
4, 53728, Control_c, 1, 1, 46
4, 53736, Control_c, 1, 1, 48
4, 53736, Control_c, 1, 1, 49
4, 53736, Control_c, 1, 1, 51
4, 53744, Control_c, 1, 1, 52
4, 53744, Control_c, 1, 1, 53
4, 53744, Control_c, 1, 1, 54
4, 53744, Control_c, 1, 1, 55
4, 53752, Control_c, 1, 1, 57
4, 53752, Control_c, 1, 1, 59
4, 53760, Control_c, 1, 1, 61
4, 53760, Control_c, 1, 1, 62
4, 53760, Control_c, 1, 1, 63
4, 53768, Control_c, 1, 1, 65
4, 53768, Control_c, 1, 1, 66
4, 53776, Control_c, 1, 1, 68
4, 53784, Control_c, 1, 1, 69
4, 53848, Control_c, 1, 1, 68
4, 53856, Control_c, 1, 1, 67
4, 53872, Control_c, 1, 1, 66
4, 53880, Control_c, 1, 1, 65
4, 53888, Control_c, 1, 1, 63
4, 53896, Control_c, 1, 1, 62
4, 53896, Control_c, 1, 1, 60
4, 53904, Control_c, 1, 1, 59
4, 53904, Control_c, 1, 1, 57
4, 53904, Control_c, 1, 1, 56
4, 53912, Control_c, 1, 1, 55
4, 53912, Control_c, 1, 1, 54
4, 53912, Control_c, 1, 1, 53
4, 53912, Control_c, 1, 1, 51
4, 53920, Control_c, 1, 1, 49
4, 53920, Control_c, 1, 1, 47
4, 53920, Control_c, 1, 1, 44
4, 53920, Control_c, 1, 1, 42
4, 53928, Control_c, 1, 1, 41
4, 53928, Control_c, 1, 1, 38
4, 53928, Control_c, 1, 1, 35
4, 53936, Control_c, 1, 1, 33
4, 53936, Control_c, 1, 1, 31
4, 53936, Control_c, 1, 1, 29
4, 53936, Control_c, 1, 1, 25
4, 53944, Control_c, 1, 1, 22
4, 53944, Control_c, 1, 1, 19
4, 53944, Control_c, 1, 1, 15
4, 53952, Control_c, 1, 1, 10
4, 53952, Control_c, 1, 1, 7
4, 53952, Control_c, 1, 1, 4
4, 53960, Control_c, 1, 1, 1
4, 54128, Note_on_c, 1, 42, 98
4, 54136, Note_on_c, 1, 43, 0
4, 54488, Note_on_c, 1, 42, 0
4, 54512, Note_on_c, 1, 43, 109
4, 54624, Pitch_bend_c, 1, 8192
4, 54632, Pitch_bend_c, 1, 8192
4, 54632, Pitch_bend_c, 1, 8192
4, 54632, Pitch_bend_c, 1, 8712
4, 54640, Pitch_bend_c, 1, 9102
4, 54640, Pitch_bend_c, 1, 9492
4, 54648, Pitch_bend_c, 1, 9882
4, 54648, Pitch_bend_c, 1, 10272
4, 54656, Pitch_bend_c, 1, 10662
4, 54656, Pitch_bend_c, 1, 10922
4, 54664, Pitch_bend_c, 1, 11312
4, 54664, Pitch_bend_c, 1, 11572
4, 54664, Pitch_bend_c, 1, 11702
4, 54672, Pitch_bend_c, 1, 11832
4, 54680, Pitch_bend_c, 1, 11962
4, 54688, Pitch_bend_c, 1, 11832
4, 54696, Pitch_bend_c, 1, 11572
4, 54704, Pitch_bend_c, 1, 11442
4, 54704, Pitch_bend_c, 1, 11312
4, 54712, Pitch_bend_c, 1, 11052
4, 54712, Pitch_bend_c, 1, 10922
4, 54712, Pitch_bend_c, 1, 10662
4, 54720, Pitch_bend_c, 1, 10402
4, 54720, Pitch_bend_c, 1, 10012
4, 54728, Pitch_bend_c, 1, 9752
4, 54728, Pitch_bend_c, 1, 9362
4, 54736, Pitch_bend_c, 1, 8972
4, 54736, Pitch_bend_c, 1, 8192
4, 54744, Pitch_bend_c, 1, 8192
4, 54744, Pitch_bend_c, 1, 8192
4, 55528, Note_on_c, 1, 30, 104
4, 55584, Note_on_c, 1, 30, 0
4, 55664, Note_on_c, 1, 31, 110
4, 55904, Note_on_c, 1, 43, 0
4, 56200, Note_on_c, 1, 43, 100
4, 56216, Note_on_c, 1, 43, 0
4, 56320, Note_on_c, 1, 34, 95
4, 56360, Note_on_c, 1, 31, 0
4, 56432, Note_on_c, 1, 34, 0
4, 56456, Note_on_c, 1, 35, 84
4, 56696, Note_on_c, 1, 35, 0
4, 56696, Note_on_c, 1, 38, 86
4, 56808, Note_on_c, 1, 38, 0
4, 56832, Note_on_c, 1, 36, 89
4, 57088, Note_on_c, 1, 43, 77
4, 57128, Note_on_c, 1, 43, 0
4, 57208, Note_on_c, 1, 48, 111
4, 57240, Note_on_c, 1, 36, 0
4, 57304, Note_on_c, 1, 48, 0
4, 57336, Note_on_c, 1, 42, 93
4, 57560, Note_on_c, 1, 42, 0
4, 57600, Note_on_c, 1, 41, 92
4, 57976, Note_on_c, 1, 36, 81
4, 58280, Note_on_c, 1, 36, 0
4, 58328, Note_on_c, 1, 41, 0
4, 58352, Note_on_c, 1, 40, 94
4, 58704, Note_on_c, 1, 40, 0
4, 58720, Note_on_c, 1, 34, 83
4, 59104, Note_on_c, 1, 34, 0
4, 59104, Note_on_c, 1, 33, 82
4, 59360, Note_on_c, 1, 39, 100
4, 59464, Note_on_c, 1, 39, 0
4, 59472, Note_on_c, 1, 33, 0
4, 59504, Note_on_c, 1, 36, 75
4, 59592, Note_on_c, 1, 36, 0
4, 59616, Note_on_c, 1, 37, 74
4, 59712, Note_on_c, 1, 37, 0
4, 59744, Note_on_c, 1, 38, 100
4, 60024, Note_on_c, 1, 38, 0
4, 60024, Note_on_c, 1, 50, 110
4, 60256, Note_on_c, 1, 50, 0
4, 60288, Note_on_c, 1, 48, 100
4, 60608, Note_on_c, 1, 36, 66
4, 60624, Note_on_c, 1, 36, 0
4, 60672, Note_on_c, 1, 48, 0
4, 60696, Note_on_c, 1, 45, 88
4, 60992, Note_on_c, 1, 36, 74
4, 61016, Note_on_c, 1, 36, 0
4, 61064, Note_on_c, 1, 45, 0
4, 61072, Note_on_c, 1, 41, 91
4, 61312, Note_on_c, 1, 42, 87
4, 61320, Note_on_c, 1, 41, 0
4, 61432, Note_on_c, 1, 42, 0
4, 61440, Note_on_c, 1, 43, 85
4, 61688, Note_on_c, 1, 38, 79
4, 61736, Note_on_c, 1, 38, 0
4, 61816, Note_on_c, 1, 31, 90
4, 62184, Note_on_c, 1, 31, 0
4, 62200, Note_on_c, 1, 34, 78
4, 62240, Note_on_c, 1, 43, 0
4, 62592, Note_on_c, 1, 35, 98
4, 62600, Note_on_c, 1, 34, 0
4, 62952, Note_on_c, 1, 35, 0
4, 62952, Note_on_c, 1, 36, 87
4, 63352, Note_on_c, 1, 30, 107
4, 63360, Note_on_c, 1, 36, 0
4, 63728, Note_on_c, 1, 30, 0
4, 63744, Note_on_c, 1, 29, 81
4, 64008, Note_on_c, 1, 41, 119
4, 64096, Note_on_c, 1, 29, 0
4, 64104, Note_on_c, 1, 41, 0
4, 64160, Note_on_c, 1, 38, 61
4, 64360, Note_on_c, 1, 38, 0
4, 64376, Note_on_c, 1, 39, 95
4, 64408, Note_on_c, 1, 29, 62
4, 64440, Note_on_c, 1, 29, 0
4, 64488, Note_on_c, 1, 39, 0
4, 64512, Note_on_c, 1, 40, 79
4, 64592, Note_on_c, 1, 40, 0
4, 64624, Note_on_c, 1, 47, 85
4, 64648, Note_on_c, 1, 47, 0
4, 64736, Note_on_c, 1, 35, 106
4, 64808, Note_on_c, 1, 35, 0
4, 64872, Note_on_c, 1, 34, 93
4, 64944, Note_on_c, 1, 34, 0
4, 65000, Note_on_c, 1, 32, 80
4, 65088, Note_on_c, 1, 32, 0
4, 65120, Note_on_c, 1, 33, 107
4, 65544, Note_on_c, 1, 49, 109
4, 65792, Note_on_c, 1, 45, 81
4, 65816, Note_on_c, 1, 33, 0
4, 65904, Note_on_c, 1, 33, 98
4, 65960, Note_on_c, 1, 33, 0
4, 65984, Note_on_c, 1, 45, 0
4, 66040, Note_on_c, 1, 49, 0
4, 66040, Note_on_c, 1, 44, 106
4, 66736, Note_on_c, 1, 44, 0
4, 66800, Note_on_c, 1, 44, 113
4, 66888, Pitch_bend_c, 1, 8192
4, 66888, Pitch_bend_c, 1, 8192
4, 66896, Pitch_bend_c, 1, 8712
4, 66896, Pitch_bend_c, 1, 9102
4, 66904, Pitch_bend_c, 1, 9492
4, 66904, Pitch_bend_c, 1, 9882
4, 66912, Pitch_bend_c, 1, 10402
4, 66912, Pitch_bend_c, 1, 10792
4, 66920, Pitch_bend_c, 1, 11312
4, 66920, Pitch_bend_c, 1, 11572
4, 66920, Pitch_bend_c, 1, 11832
4, 66928, Pitch_bend_c, 1, 12092
4, 66928, Pitch_bend_c, 1, 12222
4, 66952, Pitch_bend_c, 1, 11962
4, 66960, Pitch_bend_c, 1, 11832
4, 66960, Pitch_bend_c, 1, 11572
4, 66968, Pitch_bend_c, 1, 11312
4, 66968, Pitch_bend_c, 1, 10792
4, 66976, Pitch_bend_c, 1, 10402
4, 66976, Pitch_bend_c, 1, 10142
4, 66976, Pitch_bend_c, 1, 9752
4, 66984, Pitch_bend_c, 1, 9232
4, 66984, Pitch_bend_c, 1, 8842
4, 66992, Pitch_bend_c, 1, 8192
4, 66992, Pitch_bend_c, 1, 8192
4, 67040, Pitch_bend_c, 1, 8192
4, 67048, Pitch_bend_c, 1, 8712
4, 67048, Pitch_bend_c, 1, 9102
4, 67056, Pitch_bend_c, 1, 9492
4, 67056, Pitch_bend_c, 1, 10012
4, 67056, Pitch_bend_c, 1, 10402
4, 67064, Pitch_bend_c, 1, 10792
4, 67064, Pitch_bend_c, 1, 11312
4, 67072, Pitch_bend_c, 1, 11702
4, 67072, Pitch_bend_c, 1, 11962
4, 67080, Pitch_bend_c, 1, 12222
4, 67080, Pitch_bend_c, 1, 12482
4, 67088, Pitch_bend_c, 1, 12742
4, 67088, Pitch_bend_c, 1, 12872
4, 67096, Pitch_bend_c, 1, 13002
4, 67104, Pitch_bend_c, 1, 13132
4, 67112, Pitch_bend_c, 1, 12872
4, 67120, Pitch_bend_c, 1, 12612
4, 67120, Pitch_bend_c, 1, 12222
4, 67128, Pitch_bend_c, 1, 11832
4, 67128, Pitch_bend_c, 1, 11442
4, 67128, Pitch_bend_c, 1, 10792
4, 67136, Pitch_bend_c, 1, 10142
4, 67136, Pitch_bend_c, 1, 9362
4, 67144, Pitch_bend_c, 1, 8712
4, 67144, Pitch_bend_c, 1, 8192
4, 67448, Note_on_c, 1, 32, 70
4, 67472, Note_on_c, 1, 31, 67
4, 67488, Note_on_c, 1, 31, 0
4, 67552, Note_on_c, 1, 32, 0
4, 67584, Note_on_c, 1, 31, 87
4, 67736, Note_on_c, 1, 44, 0
4, 67832, Note_on_c, 1, 47, 100
4, 67904, Note_on_c, 1, 47, 0
4, 67944, Note_on_c, 1, 31, 0
4, 67960, Note_on_c, 1, 43, 77
4, 68216, Note_on_c, 1, 31, 79
4, 68256, Note_on_c, 1, 31, 0
4, 68336, Note_on_c, 1, 43, 0
4, 68352, Note_on_c, 1, 38, 86
4, 68592, Note_on_c, 1, 34, 91
4, 68600, Note_on_c, 1, 38, 0
4, 68696, Note_on_c, 1, 34, 0
4, 68728, Note_on_c, 1, 35, 92
4, 69040, Note_on_c, 1, 34, 59
4, 69088, Note_on_c, 1, 35, 0
4, 69104, Note_on_c, 1, 34, 0
4, 69104, Note_on_c, 1, 36, 90
4, 69488, Note_on_c, 1, 51, 88
4, 69552, Note_on_c, 1, 36, 0
4, 69744, Note_on_c, 1, 36, 75
4, 69792, Note_on_c, 1, 36, 0
4, 69856, Note_on_c, 1, 51, 0
4, 69872, Note_on_c, 1, 47, 91
4, 70168, Note_on_c, 1, 34, 63
4, 70200, Note_on_c, 1, 34, 0
4, 70264, Note_on_c, 1, 47, 0
4, 70264, Note_on_c, 1, 43, 77
4, 70496, Note_on_c, 1, 43, 0
4, 70512, Note_on_c, 1, 35, 90
4, 70624, Note_on_c, 1, 35, 0
4, 70640, Note_on_c, 1, 34, 83
4, 70896, Note_on_c, 1, 46, 105
4, 71080, Note_on_c, 1, 34, 0
4, 71168, Note_on_c, 1, 41, 83
4, 71208, Note_on_c, 1, 46, 0
4, 71264, Note_on_c, 1, 41, 0
4, 71280, Note_on_c, 1, 40, 91
4, 71376, Note_on_c, 1, 40, 0
4, 71408, Note_on_c, 1, 39, 88
4, 71456, Note_on_c, 1, 39, 0
4, 71520, Note_on_c, 1, 34, 80
4, 71768, Note_on_c, 1, 34, 0
4, 71800, Note_on_c, 1, 33, 94
4, 72152, Note_on_c, 1, 33, 0
4, 72168, Note_on_c, 1, 32, 85
4, 72544, Note_on_c, 1, 39, 98
4, 72600, Note_on_c, 1, 32, 0
4, 72800, Note_on_c, 1, 32, 81
4, 72824, Note_on_c, 1, 32, 0
4, 72920, Note_on_c, 1, 39, 0
4, 72936, Note_on_c, 1, 48, 102
4, 73272, Note_on_c, 1, 48, 0
4, 73320, Note_on_c, 1, 46, 95
4, 73680, Note_on_c, 1, 46, 0
4, 73704, Note_on_c, 1, 44, 84
4, 74048, Note_on_c, 1, 44, 0
4, 74088, Note_on_c, 1, 43, 92
4, 74488, Note_on_c, 1, 39, 87
4, 74504, Note_on_c, 1, 43, 0
4, 74736, Note_on_c, 1, 34, 78
4, 74784, Note_on_c, 1, 39, 0
4, 74864, Note_on_c, 1, 34, 0
4, 74888, Note_on_c, 1, 35, 87
4, 75088, Note_on_c, 1, 35, 0
4, 75248, Control_c, 1, 1, 4
4, 75248, Control_c, 1, 1, 6
4, 75248, Control_c, 1, 1, 8
4, 75248, Note_on_c, 1, 36, 111
4, 75248, Control_c, 1, 1, 12
4, 75248, Control_c, 1, 1, 13
4, 75256, Control_c, 1, 1, 16
4, 75264, Control_c, 1, 1, 18
4, 75264, Control_c, 1, 1, 20
4, 75264, Control_c, 1, 1, 21
4, 75264, Control_c, 1, 1, 23
4, 75272, Control_c, 1, 1, 25
4, 75272, Control_c, 1, 1, 27
4, 75272, Control_c, 1, 1, 28
4, 75280, Control_c, 1, 1, 29
4, 75280, Control_c, 1, 1, 31
4, 75280, Control_c, 1, 1, 33
4, 75280, Control_c, 1, 1, 34
4, 75288, Control_c, 1, 1, 35
4, 75288, Control_c, 1, 1, 36
4, 75288, Control_c, 1, 1, 38
4, 75288, Control_c, 1, 1, 39
4, 75296, Control_c, 1, 1, 40
4, 75296, Control_c, 1, 1, 41
4, 75296, Control_c, 1, 1, 43
4, 75304, Control_c, 1, 1, 45
4, 75304, Control_c, 1, 1, 48
4, 75312, Control_c, 1, 1, 49
4, 75312, Control_c, 1, 1, 50
4, 75312, Control_c, 1, 1, 51
4, 75312, Control_c, 1, 1, 52
4, 75320, Control_c, 1, 1, 54
4, 75328, Control_c, 1, 1, 56
4, 75336, Control_c, 1, 1, 57
4, 75344, Control_c, 1, 1, 58
4, 75352, Control_c, 1, 1, 59
4, 75384, Control_c, 1, 1, 58
4, 75392, Control_c, 1, 1, 57
4, 75400, Control_c, 1, 1, 56
4, 75408, Control_c, 1, 1, 54
4, 75416, Control_c, 1, 1, 53
4, 75424, Control_c, 1, 1, 52
4, 75424, Control_c, 1, 1, 51
4, 75432, Control_c, 1, 1, 50
4, 75432, Control_c, 1, 1, 48
4, 75440, Control_c, 1, 1, 46
4, 75448, Control_c, 1, 1, 43
4, 75448, Control_c, 1, 1, 42
4, 75456, Control_c, 1, 1, 39
4, 75456, Control_c, 1, 1, 37
4, 75456, Control_c, 1, 1, 36
4, 75464, Control_c, 1, 1, 35
4, 75464, Control_c, 1, 1, 34
4, 75464, Control_c, 1, 1, 33
4, 75472, Control_c, 1, 1, 31
4, 75472, Control_c, 1, 1, 29
4, 75472, Control_c, 1, 1, 28
4, 75472, Control_c, 1, 1, 26
4, 75480, Control_c, 1, 1, 24
4, 75480, Control_c, 1, 1, 23
4, 75480, Control_c, 1, 1, 21
4, 75480, Control_c, 1, 1, 19
4, 75488, Control_c, 1, 1, 17
4, 75488, Control_c, 1, 1, 15
4, 75488, Control_c, 1, 1, 13
4, 75496, Control_c, 1, 1, 10
4, 75496, Control_c, 1, 1, 8
4, 75496, Control_c, 1, 1, 6
4, 75496, Control_c, 1, 1, 4
4, 75504, Control_c, 1, 1, 2
4, 75504, Control_c, 1, 1, 1
4, 75608, Note_on_c, 1, 36, 0
4, 75632, Note_on_c, 1, 31, 86
4, 75848, Note_on_c, 1, 31, 0
4, 75896, Note_on_c, 1, 36, 110
4, 76016, Note_on_c, 1, 36, 0
4, 76040, Note_on_c, 1, 34, 78
4, 76288, Note_on_c, 1, 46, 116
4, 76376, Note_on_c, 1, 34, 0
4, 76768, Note_on_c, 1, 46, 0
4, 76808, Note_on_c, 1, 45, 105
4, 76904, Pitch_bend_c, 1, 8192
4, 76904, Pitch_bend_c, 1, 8192
4, 76904, Pitch_bend_c, 1, 8842
4, 76912, Pitch_bend_c, 1, 9232
4, 76912, Pitch_bend_c, 1, 9752
4, 76920, Pitch_bend_c, 1, 10142
4, 76920, Pitch_bend_c, 1, 10532
4, 76920, Pitch_bend_c, 1, 10922
4, 76928, Pitch_bend_c, 1, 11442
4, 76928, Pitch_bend_c, 1, 11832
4, 76936, Pitch_bend_c, 1, 12092
4, 76936, Pitch_bend_c, 1, 12222
4, 76944, Pitch_bend_c, 1, 12352
4, 76960, Pitch_bend_c, 1, 12092
4, 76960, Pitch_bend_c, 1, 11832
4, 76968, Pitch_bend_c, 1, 11572
4, 76968, Pitch_bend_c, 1, 11052
4, 76976, Pitch_bend_c, 1, 10792
4, 76976, Pitch_bend_c, 1, 10402
4, 76984, Pitch_bend_c, 1, 9882
4, 76984, Pitch_bend_c, 1, 9492
4, 76992, Pitch_bend_c, 1, 8972
4, 76992, Pitch_bend_c, 1, 8192
4, 76992, Pitch_bend_c, 1, 8192
4, 77000, Pitch_bend_c, 1, 8192
4, 77072, Pitch_bend_c, 1, 8192
4, 77072, Pitch_bend_c, 1, 8712
4, 77080, Pitch_bend_c, 1, 9102
4, 77080, Pitch_bend_c, 1, 9492
4, 77088, Pitch_bend_c, 1, 10012
4, 77088, Pitch_bend_c, 1, 10402
4, 77096, Pitch_bend_c, 1, 10792
4, 77096, Pitch_bend_c, 1, 11052
4, 77104, Pitch_bend_c, 1, 11442
4, 77104, Pitch_bend_c, 1, 11702
4, 77104, Pitch_bend_c, 1, 11962
4, 77112, Pitch_bend_c, 1, 12092
4, 77120, Pitch_bend_c, 1, 12222
4, 77144, Pitch_bend_c, 1, 12092
4, 77144, Pitch_bend_c, 1, 11962
4, 77152, Pitch_bend_c, 1, 11702
4, 77152, Pitch_bend_c, 1, 11442
4, 77160, Pitch_bend_c, 1, 10922
4, 77160, Pitch_bend_c, 1, 10532
4, 77168, Pitch_bend_c, 1, 10012
4, 77168, Pitch_bend_c, 1, 9492
4, 77176, Pitch_bend_c, 1, 8972
4, 77176, Pitch_bend_c, 1, 8192
4, 77176, Pitch_bend_c, 1, 8192
4, 77552, Note_on_c, 1, 33, 101
4, 77568, Note_on_c, 1, 45, 0
4, 77944, Note_on_c, 1, 45, 107
4, 77952, Note_on_c, 1, 33, 0
4, 78288, Note_on_c, 1, 45, 0
4, 78312, Note_on_c, 1, 44, 103
4, 78384, Pitch_bend_c, 1, 8192
4, 78392, Pitch_bend_c, 1, 8192
4, 78400, Pitch_bend_c, 1, 8192
4, 78408, Pitch_bend_c, 1, 8192
4, 78416, Pitch_bend_c, 1, 7680
4, 78424, Pitch_bend_c, 1, 7552
4, 78424, Pitch_bend_c, 1, 7424
4, 78424, Pitch_bend_c, 1, 7168
4, 78432, Pitch_bend_c, 1, 7040
4, 78432, Pitch_bend_c, 1, 6784
4, 78440, Pitch_bend_c, 1, 6656
4, 78440, Pitch_bend_c, 1, 6400
4, 78448, Pitch_bend_c, 1, 6144
4, 78448, Pitch_bend_c, 1, 5888
4, 78456, Pitch_bend_c, 1, 5632
4, 78456, Pitch_bend_c, 1, 5504
4, 78464, Pitch_bend_c, 1, 5120
4, 78464, Pitch_bend_c, 1, 4992
4, 78472, Pitch_bend_c, 1, 4864
4, 78472, Pitch_bend_c, 1, 4736
4, 78472, Pitch_bend_c, 1, 4608
4, 78480, Pitch_bend_c, 1, 4480
4, 78480, Pitch_bend_c, 1, 4352
4, 78488, Pitch_bend_c, 1, 4224
4, 78488, Pitch_bend_c, 1, 4096
4, 78496, Pitch_bend_c, 1, 3840
4, 78528, Pitch_bend_c, 1, 4096
4, 78528, Pitch_bend_c, 1, 4224
4, 78536, Pitch_bend_c, 1, 4480
4, 78536, Pitch_bend_c, 1, 4608
4, 78544, Pitch_bend_c, 1, 4736
4, 78544, Pitch_bend_c, 1, 4864
4, 78552, Pitch_bend_c, 1, 5120
4, 78552, Pitch_bend_c, 1, 5376
4, 78560, Pitch_bend_c, 1, 5504
4, 78560, Pitch_bend_c, 1, 5632
4, 78568, Pitch_bend_c, 1, 5888
4, 78568, Pitch_bend_c, 1, 6016
4, 78568, Pitch_bend_c, 1, 6144
4, 78576, Pitch_bend_c, 1, 6272
4, 78576, Pitch_bend_c, 1, 6528
4, 78584, Pitch_bend_c, 1, 6656
4, 78584, Pitch_bend_c, 1, 6912
4, 78592, Pitch_bend_c, 1, 7040
4, 78592, Pitch_bend_c, 1, 7296
4, 78600, Pitch_bend_c, 1, 7552
4, 78600, Pitch_bend_c, 1, 8192
4, 78600, Pitch_bend_c, 1, 8192
4, 78608, Pitch_bend_c, 1, 8192
4, 78608, Pitch_bend_c, 1, 8192
4, 78696, Pitch_bend_c, 1, 8192
4, 78704, Pitch_bend_c, 1, 8192
4, 78704, Pitch_bend_c, 1, 7424
4, 78712, Pitch_bend_c, 1, 7296
4, 78712, Pitch_bend_c, 1, 7040
4, 78720, Pitch_bend_c, 1, 6784
4, 78720, Pitch_bend_c, 1, 6528
4, 78728, Pitch_bend_c, 1, 6272
4, 78728, Pitch_bend_c, 1, 6016
4, 78736, Pitch_bend_c, 1, 5888
4, 78736, Pitch_bend_c, 1, 5632
4, 78744, Pitch_bend_c, 1, 5504
4, 78744, Pitch_bend_c, 1, 5376
4, 78752, Pitch_bend_c, 1, 5120
4, 78792, Pitch_bend_c, 1, 5376
4, 78792, Pitch_bend_c, 1, 5504
4, 78800, Pitch_bend_c, 1, 5632
4, 78808, Pitch_bend_c, 1, 5760
4, 78808, Pitch_bend_c, 1, 5888
4, 78816, Pitch_bend_c, 1, 6016
4, 78816, Pitch_bend_c, 1, 6144
4, 78824, Pitch_bend_c, 1, 6272
4, 78824, Pitch_bend_c, 1, 6528
4, 78832, Pitch_bend_c, 1, 6656
4, 78832, Pitch_bend_c, 1, 6912
4, 78832, Pitch_bend_c, 1, 7168
4, 78840, Pitch_bend_c, 1, 7424
4, 78840, Pitch_bend_c, 1, 7680
4, 78848, Pitch_bend_c, 1, 8192
4, 78848, Pitch_bend_c, 1, 8192
4, 78848, Pitch_bend_c, 1, 8192
4, 79344, Note_on_c, 1, 33, 91
4, 79408, Note_on_c, 1, 33, 0
4, 79480, Note_on_c, 1, 32, 88
4, 79728, Note_on_c, 1, 32, 0
4, 79736, Note_on_c, 1, 30, 85
4, 79768, Note_on_c, 1, 44, 0
4, 79864, Note_on_c, 1, 30, 0
4, 79872, Note_on_c, 1, 31, 86
4, 80008, Note_on_c, 1, 43, 90
4, 80064, Note_on_c, 1, 43, 0
4, 80128, Note_on_c, 1, 42, 101
4, 80240, Note_on_c, 1, 42, 0
4, 80256, Note_on_c, 1, 31, 0
4, 80264, Note_on_c, 1, 41, 97
4, 80392, Note_on_c, 1, 41, 0
4, 80392, Note_on_c, 1, 38, 93
4, 80632, Note_on_c, 1, 38, 0
4, 80640, Note_on_c, 1, 34, 88
4, 80872, Note_on_c, 1, 34, 0
4, 80896, Note_on_c, 1, 35, 89
4, 81008, Note_on_c, 1, 35, 0
4, 81024, Note_on_c, 1, 38, 84
4, 81072, Note_on_c, 1, 38, 0
4, 81144, Note_on_c, 1, 34, 80
4, 81208, Note_on_c, 1, 34, 0
4, 81256, Note_on_c, 1, 35, 93
4, 81368, Note_on_c, 1, 35, 0
4, 81400, Note_on_c, 1, 36, 87
4, 81656, Note_on_c, 1, 48, 127
4, 81752, Note_on_c, 1, 36, 0
4, 81760, Note_on_c, 1, 48, 0
4, 81792, Note_on_c, 1, 42, 97
4, 82176, Note_on_c, 1, 42, 0
4, 82184, Note_on_c, 1, 29, 90
4, 82568, Note_on_c, 1, 41, 94
4, 82616, Note_on_c, 1, 29, 0
4, 82816, Note_on_c, 1, 29, 72
4, 82848, Note_on_c, 1, 29, 0
4, 82928, Note_on_c, 1, 41, 0
4, 82936, Note_on_c, 1, 40, 84
4, 83184, Note_on_c, 1, 32, 63
4, 83208, Note_on_c, 1, 32, 0
4, 83272, Note_on_c, 1, 40, 0
4, 83304, Note_on_c, 1, 46, 97
4, 83368, Note_on_c, 1, 46, 0
4, 83472, Note_on_c, 1, 44, 57
4, 83504, Note_on_c, 1, 44, 0
4, 83544, Note_on_c, 1, 45, 107
4, 83808, Note_on_c, 1, 45, 0
4, 83816, Note_on_c, 1, 39, 85
4, 84088, Note_on_c, 1, 39, 0
4, 84088, Note_on_c, 1, 36, 84
4, 84312, Note_on_c, 1, 36, 0
4, 84336, Note_on_c, 1, 37, 86
4, 84456, Note_on_c, 1, 37, 0
4, 84472, Note_on_c, 1, 38, 93
4, 84856, Note_on_c, 1, 38, 0
4, 84856, Note_on_c, 1, 45, 91
4, 85200, Note_on_c, 1, 45, 0
4, 85232, Note_on_c, 1, 36, 87
4, 85488, Note_on_c, 1, 36, 0
4, 85488, Note_on_c, 1, 33, 106
4, 85600, Note_on_c, 1, 33, 0
4, 85616, Note_on_c, 1, 32, 82
4, 85872, Note_on_c, 1, 32, 0
4, 85872, Note_on_c, 1, 30, 80
4, 85968, Note_on_c, 1, 30, 0
4, 85992, Note_on_c, 1, 31, 77
4, 86056, Note_on_c, 1, 31, 0
4, 86248, Note_on_c, 1, 31, 76
4, 86256, Note_on_c, 1, 33, 76
4, 86280, Note_on_c, 1, 33, 0
4, 86376, Note_on_c, 1, 31, 0
4, 86384, Note_on_c, 1, 33, 75
4, 86392, Note_on_c, 1, 35, 63
4, 86408, Note_on_c, 1, 35, 0
4, 86744, Note_on_c, 1, 33, 0
4, 86768, Note_on_c, 1, 34, 82
4, 86856, Note_on_c, 1, 34, 0
4, 87008, Note_on_c, 1, 34, 112
4, 87136, Note_on_c, 1, 34, 0
4, 87144, Note_on_c, 1, 35, 95
4, 87392, Note_on_c, 1, 34, 73
4, 87424, Note_on_c, 1, 35, 0
4, 87520, Note_on_c, 1, 34, 0
4, 87536, Note_on_c, 1, 36, 90
4, 87792, Note_on_c, 1, 43, 127
4, 87912, Note_on_c, 1, 43, 0
4, 87912, Note_on_c, 1, 36, 0
4, 87936, Note_on_c, 1, 42, 93
4, 88184, Note_on_c, 1, 36, 84
4, 88208, Note_on_c, 1, 36, 0
4, 88280, Note_on_c, 1, 42, 0
4, 88320, Note_on_c, 1, 41, 71
4, 88344, Note_on_c, 1, 41, 0
4, 88424, Note_on_c, 1, 36, 76
4, 88448, Note_on_c, 1, 36, 0
4, 88544, Note_on_c, 1, 30, 91
4, 88656, Note_on_c, 1, 30, 0
4, 88688, Note_on_c, 1, 29, 78
4, 88944, Note_on_c, 1, 41, 100
4, 89056, Note_on_c, 1, 41, 0
4, 89072, Note_on_c, 1, 29, 0
4, 89080, Note_on_c, 1, 40, 84
4, 89440, Note_on_c, 1, 40, 0
4, 89488, Note_on_c, 1, 44, 56
4, 89832, Note_on_c, 1, 44, 0
4, 89832, Note_on_c, 1, 43, 93
4, 90216, Note_on_c, 1, 31, 81
4, 90448, Note_on_c, 1, 43, 0
4, 90608, Note_on_c, 1, 43, 89
4, 90616, Note_on_c, 1, 31, 0
4, 90864, Note_on_c, 1, 38, 87
4, 90920, Note_on_c, 1, 38, 0
4, 90944, Note_on_c, 1, 43, 0
4, 90984, Note_on_c, 1, 31, 100
4, 91256, Note_on_c, 1, 38, 70
4, 91280, Note_on_c, 1, 38, 0
4, 91352, Note_on_c, 1, 31, 0
4, 91376, Note_on_c, 1, 43, 86
4, 91632, Note_on_c, 1, 38, 96
4, 91672, Note_on_c, 1, 38, 0
4, 91760, Note_on_c, 1, 34, 75
4, 92000, Note_on_c, 1, 34, 0
4, 92008, Note_on_c, 1, 35, 91
4, 92032, Note_on_c, 1, 43, 0
4, 92136, Note_on_c, 1, 35, 0
4, 92144, Note_on_c, 1, 36, 82
4, 92264, Note_on_c, 1, 48, 100
4, 92328, Note_on_c, 1, 48, 0
4, 92376, Note_on_c, 1, 46, 92
4, 92472, Note_on_c, 1, 46, 0
4, 92512, Note_on_c, 1, 43, 74
4, 92608, Note_on_c, 1, 43, 0
4, 92608, Note_on_c, 1, 36, 0
4, 92632, Note_on_c, 1, 41, 93
4, 92752, Note_on_c, 1, 41, 0
4, 92768, Note_on_c, 1, 39, 92
4, 92888, Note_on_c, 1, 39, 0
4, 92912, Note_on_c, 1, 40, 79
4, 93008, Note_on_c, 1, 40, 0
4, 93024, Note_on_c, 1, 41, 89
4, 93120, Note_on_c, 1, 41, 0
4, 93152, Note_on_c, 1, 42, 85
4, 93248, Note_on_c, 1, 42, 0
4, 93288, Note_on_c, 1, 43, 97
4, 93360, Note_on_c, 1, 43, 0
4, 93400, Note_on_c, 1, 40, 88
4, 93424, Note_on_c, 1, 40, 0
4, 93528, Note_on_c, 1, 30, 97
4, 93680, Note_on_c, 1, 29, 88
4, 93688, Note_on_c, 1, 30, 0
4, 94072, Note_on_c, 1, 43, 93
4, 94440, Note_on_c, 1, 43, 0
4, 94440, Note_on_c, 1, 29, 0
4, 94448, Note_on_c, 1, 41, 91
4, 94696, Note_on_c, 1, 41, 0
4, 94704, Note_on_c, 1, 36, 102
4, 94744, Note_on_c, 1, 36, 0
4, 94968, Note_on_c, 1, 31, 72
4, 94992, Note_on_c, 1, 31, 0
4, 95088, Note_on_c, 1, 30, 91
4, 95192, Note_on_c, 1, 30, 0
4, 95232, Note_on_c, 1, 29, 78
4, 95488, Note_on_c, 1, 44, 115
4, 95560, Note_on_c, 1, 29, 0
4, 95584, Note_on_c, 1, 44, 0
4, 95616, Note_on_c, 1, 41, 87
4, 95856, Note_on_c, 1, 35, 94
4, 95872, Note_on_c, 1, 41, 0
4, 95992, Note_on_c, 1, 34, 79
4, 96000, Note_on_c, 1, 35, 0
4, 96256, Note_on_c, 1, 41, 80
4, 96344, Note_on_c, 1, 41, 0
4, 96368, Note_on_c, 1, 34, 0
4, 96376, Note_on_c, 1, 46, 103
4, 96440, Note_on_c, 1, 46, 0
4, 96496, Note_on_c, 1, 34, 82
4, 96568, Note_on_c, 1, 34, 0
4, 96624, Note_on_c, 1, 35, 89
4, 96744, Note_on_c, 1, 35, 0
4, 96768, Note_on_c, 1, 36, 91
4, 96888, Note_on_c, 1, 50, 116
4, 96960, Note_on_c, 1, 50, 0
4, 97016, Note_on_c, 1, 49, 105
4, 97104, Note_on_c, 1, 49, 0
4, 97136, Note_on_c, 1, 36, 0
4, 97152, Note_on_c, 1, 48, 104
4, 97288, Note_on_c, 1, 36, 110
4, 97328, Note_on_c, 1, 36, 0
4, 97328, Note_on_c, 1, 48, 0
4, 97400, Note_on_c, 1, 35, 106
4, 97504, Note_on_c, 1, 35, 0
4, 97544, Note_on_c, 1, 34, 110
4, 97800, Note_on_c, 1, 46, 116
4, 97920, Note_on_c, 1, 34, 0
4, 98056, Note_on_c, 1, 35, 96
4, 98096, Note_on_c, 1, 35, 0
4, 98168, Note_on_c, 1, 34, 95
4, 98232, Note_on_c, 1, 46, 0
4, 98272, Note_on_c, 1, 34, 0
4, 98304, Note_on_c, 1, 33, 107
4, 98648, Note_on_c, 1, 33, 0
4, 98688, Note_on_c, 1, 33, 104
4, 99056, Note_on_c, 1, 33, 0
4, 99088, Note_on_c, 1, 32, 101
4, 99400, Note_on_c, 1, 32, 0
4, 99464, Note_on_c, 1, 32, 96
4, 99800, Note_on_c, 1, 32, 0
4, 99832, Note_on_c, 1, 31, 86
4, 99968, Note_on_c, 1, 43, 90
4, 99992, Note_on_c, 1, 43, 0
4, 100208, Note_on_c, 1, 43, 104
4, 100264, Note_on_c, 1, 43, 0
4, 100456, Note_on_c, 1, 43, 125
4, 100864, Note_on_c, 1, 43, 0
4, 100864, Note_on_c, 1, 42, 73
4, 100992, Note_on_c, 1, 42, 0
4, 101000, Note_on_c, 1, 43, 96
4, 101008, Note_on_c, 1, 31, 0
4, 101112, Note_on_c, 1, 29, 84
4, 101184, Note_on_c, 1, 29, 0
4, 101232, Note_on_c, 1, 30, 98
4, 101344, Note_on_c, 1, 43, 0
4, 101352, Note_on_c, 1, 30, 0
4, 101376, Note_on_c, 1, 31, 102
4, 101504, Note_on_c, 1, 43, 82
4, 101608, Note_on_c, 1, 43, 0
4, 101624, Note_on_c, 1, 42, 75
4, 101720, Note_on_c, 1, 42, 0
4, 101752, Note_on_c, 1, 43, 84
4, 101840, Note_on_c, 1, 43, 0
4, 101888, Note_on_c, 1, 42, 53
4, 101984, Note_on_c, 1, 42, 0
4, 102008, Note_on_c, 1, 43, 100
4, 102120, Note_on_c, 1, 43, 0
4, 102128, Note_on_c, 1, 42, 70
4, 102232, Note_on_c, 1, 42, 0
4, 102264, Note_on_c, 1, 43, 85
4, 102368, Note_on_c, 1, 43, 0
4, 102376, Note_on_c, 1, 42, 78
4, 102480, Note_on_c, 1, 42, 0
4, 102512, Note_on_c, 1, 43, 113
4, 102536, Note_on_c, 1, 31, 0
4, 102624, Note_on_c, 1, 43, 0
4, 102624, Note_on_c, 1, 42, 75
4, 102736, Note_on_c, 1, 42, 0
4, 102752, Note_on_c, 1, 43, 109
4, 102880, Note_on_c, 1, 43, 0
4, 102888, Note_on_c, 1, 42, 80
4, 102968, Note_on_c, 1, 42, 0
4, 103016, Note_on_c, 1, 43, 103
4, 103120, Pitch_bend_c, 1, 8192
4, 103120, Pitch_bend_c, 1, 8192
4, 103120, Pitch_bend_c, 1, 8192
4, 103128, Pitch_bend_c, 1, 8712
4, 103128, Pitch_bend_c, 1, 9102
4, 103136, Pitch_bend_c, 1, 9362
4, 103136, Pitch_bend_c, 1, 9622
4, 103144, Pitch_bend_c, 1, 9882
4, 103144, Pitch_bend_c, 1, 10142
4, 103144, Pitch_bend_c, 1, 10402
4, 103152, Pitch_bend_c, 1, 10662
4, 103152, Pitch_bend_c, 1, 10922
4, 103160, Pitch_bend_c, 1, 11052
4, 103160, Pitch_bend_c, 1, 11442
4, 103168, Pitch_bend_c, 1, 11572
4, 103168, Pitch_bend_c, 1, 11702
4, 103176, Pitch_bend_c, 1, 11832
4, 103184, Pitch_bend_c, 1, 11962
4, 103200, Pitch_bend_c, 1, 11702
4, 103208, Pitch_bend_c, 1, 11572
4, 103216, Pitch_bend_c, 1, 11442
4, 103216, Pitch_bend_c, 1, 11312
4, 103224, Pitch_bend_c, 1, 10922
4, 103224, Pitch_bend_c, 1, 10792
4, 103232, Pitch_bend_c, 1, 10532
4, 103232, Pitch_bend_c, 1, 10272
4, 103232, Pitch_bend_c, 1, 10012
4, 103240, Pitch_bend_c, 1, 9882
4, 103240, Pitch_bend_c, 1, 9622
4, 103248, Pitch_bend_c, 1, 9232
4, 103248, Pitch_bend_c, 1, 8972
4, 103256, Pitch_bend_c, 1, 8712
4, 103256, Pitch_bend_c, 1, 8192
4, 103256, Pitch_bend_c, 1, 8192
4, 103264, Pitch_bend_c, 1, 8192
4, 103384, Pitch_bend_c, 1, 8192
4, 103384, Pitch_bend_c, 1, 8192
4, 103384, Pitch_bend_c, 1, 8712
4, 103392, Pitch_bend_c, 1, 8842
4, 103392, Pitch_bend_c, 1, 9232
4, 103400, Pitch_bend_c, 1, 9362
4, 103400, Pitch_bend_c, 1, 9752
4, 103408, Pitch_bend_c, 1, 10012
4, 103408, Pitch_bend_c, 1, 10272
4, 103416, Pitch_bend_c, 1, 10532
4, 103416, Pitch_bend_c, 1, 10792
4, 103416, Pitch_bend_c, 1, 10922
4, 103424, Pitch_bend_c, 1, 11312
4, 103424, Pitch_bend_c, 1, 11442
4, 103432, Pitch_bend_c, 1, 11572
4, 103432, Pitch_bend_c, 1, 11702
4, 103440, Pitch_bend_c, 1, 11832
4, 103448, Pitch_bend_c, 1, 12092
4, 103488, Pitch_bend_c, 1, 11832
4, 103488, Pitch_bend_c, 1, 11702
4, 103496, Pitch_bend_c, 1, 11572
4, 103496, Pitch_bend_c, 1, 11442
4, 103496, Pitch_bend_c, 1, 11052
4, 103504, Pitch_bend_c, 1, 10922
4, 103504, Pitch_bend_c, 1, 10662
4, 103512, Pitch_bend_c, 1, 10272
4, 103512, Pitch_bend_c, 1, 9882
4, 103520, Pitch_bend_c, 1, 9492
4, 103520, Pitch_bend_c, 1, 8972
4, 103528, Pitch_bend_c, 1, 8192
4, 103528, Pitch_bend_c, 1, 8192
4, 103944, Note_on_c, 1, 33, 86
4, 103952, Note_on_c, 1, 31, 79
4, 103968, Note_on_c, 1, 31, 0
4, 103984, Note_on_c, 1, 33, 0
4, 104320, Note_on_c, 1, 30, 100
4, 104400, Note_on_c, 1, 30, 0
4, 104440, Note_on_c, 1, 43, 0
4, 104448, Note_on_c, 1, 31, 114
4, 104680, Note_on_c, 1, 31, 0
4, 104696, Note_on_c, 1, 43, 127
4, 105216, Note_on_c, 1, 34, 89
4, 105248, Note_on_c, 1, 34, 0
4, 105456, Note_on_c, 1, 34, 87
4, 105472, Note_on_c, 1, 43, 0
4, 105544, Note_on_c, 1, 34, 0
4, 105568, Note_on_c, 1, 35, 80
4, 105736, Note_on_c, 1, 35, 0
4, 105832, Note_on_c, 1, 35, 81
4, 105960, Note_on_c, 1, 35, 0
4, 105968, Note_on_c, 1, 36, 90
4, 106232, Note_on_c, 1, 50, 117
4, 106312, Note_on_c, 1, 50, 0
4, 106352, Note_on_c, 1, 42, 97
4, 106376, Note_on_c, 1, 36, 0
4, 106616, Note_on_c, 1, 34, 66
4, 106664, Note_on_c, 1, 34, 0
4, 106720, Note_on_c, 1, 42, 0
4, 106736, Note_on_c, 1, 41, 81
4, 106992, Note_on_c, 1, 36, 89
4, 107048, Note_on_c, 1, 36, 0
4, 107112, Note_on_c, 1, 30, 81
4, 107264, Note_on_c, 1, 30, 0
4, 107376, Note_on_c, 1, 29, 72
4, 107488, Note_on_c, 1, 41, 0
4, 107504, Note_on_c, 1, 29, 0
4, 107520, Note_on_c, 1, 28, 84
4, 107776, Note_on_c, 1, 31, 68
4, 107824, Note_on_c, 1, 31, 0
4, 107840, Note_on_c, 1, 28, 0
4, 107904, Note_on_c, 1, 40, 99
4, 108144, Note_on_c, 1, 34, 80
4, 108152, Note_on_c, 1, 40, 0
4, 108264, Note_on_c, 1, 34, 0
4, 108280, Note_on_c, 1, 33, 81
4, 108528, Note_on_c, 1, 32, 75
4, 108552, Note_on_c, 1, 33, 0
4, 108576, Note_on_c, 1, 32, 0
4, 108656, Note_on_c, 1, 39, 97
4, 108928, Note_on_c, 1, 32, 67
4, 108960, Note_on_c, 1, 32, 0
4, 109032, Note_on_c, 1, 39, 0
4, 109048, Note_on_c, 1, 38, 80
4, 109120, Note_on_c, 1, 38, 0
4, 109152, Note_on_c, 1, 41, 84
4, 109216, Note_on_c, 1, 41, 0
4, 109272, Note_on_c, 1, 45, 89
4, 109336, Note_on_c, 1, 45, 0
4, 109408, Note_on_c, 1, 52, 99
4, 109480, Note_on_c, 1, 52, 0
4, 109520, Note_on_c, 1, 51, 81
4, 109608, Note_on_c, 1, 51, 0
4, 109664, Note_on_c, 1, 50, 105
4, 109920, Note_on_c, 1, 50, 0
4, 109936, Note_on_c, 1, 48, 102
4, 110024, Note_on_c, 1, 48, 0
4, 110064, Note_on_c, 1, 45, 87
4, 110176, Note_on_c, 1, 45, 0
4, 110216, Note_on_c, 1, 41, 78
4, 110296, Note_on_c, 1, 41, 0
4, 110352, Note_on_c, 1, 42, 61
4, 110376, Note_on_c, 1, 42, 0
4, 110472, Note_on_c, 1, 44, 101
4, 110600, Note_on_c, 1, 44, 0
4, 110616, Note_on_c, 1, 42, 78
4, 110696, Note_on_c, 1, 42, 0
4, 110720, Note_on_c, 1, 43, 88
4, 110784, Note_on_c, 1, 43, 0
4, 110848, Note_on_c, 1, 38, 85
4, 110968, Note_on_c, 1, 38, 0
4, 111000, Note_on_c, 1, 35, 83
4, 111216, Note_on_c, 1, 35, 0
4, 111224, Note_on_c, 1, 32, 91
4, 111352, Note_on_c, 1, 32, 0
4, 111368, Note_on_c, 1, 31, 80
4, 111608, Note_on_c, 1, 31, 0
4, 111608, Note_on_c, 1, 34, 95
4, 111720, Note_on_c, 1, 34, 0
4, 111752, Note_on_c, 1, 35, 81
4, 111960, Note_on_c, 1, 35, 0
4, 111976, Note_on_c, 1, 38, 103
4, 112104, Note_on_c, 1, 38, 0
4, 112112, Note_on_c, 1, 36, 89
4, 112488, Note_on_c, 1, 42, 105
4, 112512, Note_on_c, 1, 36, 0
4, 112752, Note_on_c, 1, 36, 73
4, 112768, Note_on_c, 1, 36, 0
4, 112864, Note_on_c, 1, 42, 0
4, 112864, Note_on_c, 1, 41, 88
4, 112888, Note_on_c, 1, 41, 0
4, 112968, Note_on_c, 1, 36, 94
4, 113008, Note_on_c, 1, 36, 0
4, 113096, Note_on_c, 1, 30, 93
4, 113360, Note_on_c, 1, 30, 0
4, 113392, Note_on_c, 1, 29, 85
4, 113632, Note_on_c, 1, 29, 0
4, 113656, Note_on_c, 1, 40, 84
4, 114040, Note_on_c, 1, 35, 70
4, 114176, Note_on_c, 1, 35, 0
4, 114272, Note_on_c, 1, 34, 81
4, 114384, Note_on_c, 1, 34, 0
4, 114408, Note_on_c, 1, 33, 91
4, 114432, Note_on_c, 1, 40, 0
4, 114672, Note_on_c, 1, 32, 80
4, 114768, Note_on_c, 1, 33, 0
4, 114784, Note_on_c, 1, 32, 0
4, 114808, Note_on_c, 1, 39, 100
4, 115192, Note_on_c, 1, 39, 0
4, 115192, Note_on_c, 1, 32, 87
4, 115576, Note_on_c, 1, 48, 116
4, 115720, Note_on_c, 1, 32, 0
4, 115992, Note_on_c, 1, 32, 61
4, 116056, Note_on_c, 1, 32, 0
4, 116160, Note_on_c, 1, 48, 0
4, 116216, Note_on_c, 1, 44, 92
4, 116312, Note_on_c, 1, 44, 0
4, 116344, Note_on_c, 1, 39, 82
4, 116360, Note_on_c, 1, 39, 0
4, 116464, Note_on_c, 1, 32, 83
4, 116512, Note_on_c, 1, 32, 0
4, 116592, Note_on_c, 1, 30, 86
4, 116688, Note_on_c, 1, 30, 0
4, 116712, Note_on_c, 1, 31, 89
4, 116776, Note_on_c, 1, 31, 0
4, 116840, Note_on_c, 1, 31, 105
4, 116896, Note_on_c, 1, 31, 0
4, 116968, Note_on_c, 1, 33, 75
4, 117000, Note_on_c, 1, 33, 0
4, 117112, Note_on_c, 1, 33, 104
4, 117232, Note_on_c, 1, 33, 0
4, 117232, Note_on_c, 1, 34, 87
4, 117312, Note_on_c, 1, 34, 0
4, 117368, Note_on_c, 1, 35, 91
4, 117640, Note_on_c, 1, 31, 110
4, 117672, Note_on_c, 1, 35, 0
4, 117904, Note_on_c, 1, 31, 0
4, 117904, Note_on_c, 1, 35, 76
4, 118112, Note_on_c, 1, 35, 0
4, 118136, Note_on_c, 1, 38, 85
4, 118272, Note_on_c, 1, 36, 90
4, 118280, Note_on_c, 1, 38, 0
4, 118576, Note_on_c, 1, 34, 51
4, 118624, Note_on_c, 1, 34, 0
4, 118640, Note_on_c, 1, 36, 0
4, 118664, Note_on_c, 1, 39, 93
4, 118896, Note_on_c, 1, 36, 83
4, 118992, Note_on_c, 1, 36, 0
4, 119024, Note_on_c, 1, 39, 0
4, 119040, Note_on_c, 1, 35, 84
4, 119280, Note_on_c, 1, 47, 105
4, 119488, Note_on_c, 1, 35, 0
4, 119536, Note_on_c, 1, 47, 0
4, 119560, Note_on_c, 1, 43, 67
4, 119584, Note_on_c, 1, 43, 0
4, 119664, Note_on_c, 1, 35, 89
4, 119784, Note_on_c, 1, 35, 0
4, 119808, Note_on_c, 1, 34, 86
4, 120064, Note_on_c, 1, 41, 78
4, 120152, Note_on_c, 1, 41, 0
4, 120176, Note_on_c, 1, 34, 0
4, 120192, Note_on_c, 1, 46, 89
4, 120304, Note_on_c, 1, 41, 90
4, 120328, Note_on_c, 1, 41, 0
4, 120424, Note_on_c, 1, 40, 93
4, 120512, Note_on_c, 1, 40, 0
4, 120544, Note_on_c, 1, 46, 0
4, 120568, Note_on_c, 1, 39, 93
4, 120960, Note_on_c, 1, 45, 93
4, 121000, Note_on_c, 1, 39, 0
4, 121208, Note_on_c, 1, 39, 69
4, 121256, Note_on_c, 1, 39, 0
4, 121336, Note_on_c, 1, 45, 0
4, 121344, Note_on_c, 1, 44, 86
4, 121584, Note_on_c, 1, 39, 86
4, 121688, Note_on_c, 1, 39, 0
4, 121744, Note_on_c, 1, 44, 0
4, 121744, Note_on_c, 1, 32, 78
4, 122016, Note_on_c, 1, 46, 100
4, 122120, Note_on_c, 1, 32, 0
4, 122128, Note_on_c, 1, 46, 0
4, 122144, Note_on_c, 1, 44, 71
4, 122376, Note_on_c, 1, 39, 91
4, 122424, Note_on_c, 1, 39, 0
4, 122496, Note_on_c, 1, 32, 82
4, 122864, Note_on_c, 1, 44, 0
4, 122888, Note_on_c, 1, 32, 0
4, 122904, Note_on_c, 1, 31, 83
4, 123152, Note_on_c, 1, 43, 73
4, 123208, Note_on_c, 1, 43, 0
4, 123280, Note_on_c, 1, 46, 105
4, 123352, Note_on_c, 1, 31, 0
4, 123512, Note_on_c, 1, 46, 0
4, 123512, Note_on_c, 1, 47, 114
4, 123768, Note_on_c, 1, 47, 0
4, 123768, Note_on_c, 1, 43, 95
4, 123896, Note_on_c, 1, 34, 82
4, 123960, Note_on_c, 1, 34, 0
4, 124056, Note_on_c, 1, 38, 102
4, 124064, Note_on_c, 1, 36, 76
4, 124080, Note_on_c, 1, 36, 0
4, 124264, Note_on_c, 1, 38, 0
4, 124296, Note_on_c, 1, 35, 82
4, 124320, Note_on_c, 1, 43, 0
4, 124424, Note_on_c, 1, 35, 0
4, 124424, Note_on_c, 1, 36, 93
4, 124808, Note_on_c, 1, 36, 0
4, 124808, Note_on_c, 1, 48, 105
4, 124840, Note_on_c, 1, 48, 0
4, 125040, Note_on_c, 1, 47, 116
4, 125160, Note_on_c, 1, 47, 0
4, 125184, Note_on_c, 1, 46, 85
4, 125416, Note_on_c, 1, 34, 101
4, 125472, Note_on_c, 1, 34, 0
4, 125560, Note_on_c, 1, 32, 76
4, 125944, Note_on_c, 1, 32, 0
4, 125952, Note_on_c, 1, 46, 0
4, 125952, Note_on_c, 1, 33, 95
4, 126336, Note_on_c, 1, 45, 107
4, 126376, Note_on_c, 1, 33, 0
4, 126600, Note_on_c, 1, 32, 73
4, 126624, Note_on_c, 1, 32, 0
4, 126680, Note_on_c, 1, 45, 0
4, 126712, Note_on_c, 1, 40, 92
4, 126976, Note_on_c, 1, 33, 74
4, 127000, Note_on_c, 1, 33, 0
4, 127080, Note_on_c, 1, 40, 0
4, 127096, Note_on_c, 1, 36, 100
4, 127200, Note_on_c, 1, 34, 78
4, 127216, Note_on_c, 1, 36, 0
4, 127280, Note_on_c, 1, 34, 0
4, 127320, Note_on_c, 1, 33, 78
4, 127472, Note_on_c, 1, 33, 0
4, 127480, Note_on_c, 1, 32, 88
4, 127728, Note_on_c, 1, 39, 74
4, 127832, Note_on_c, 1, 39, 0
4, 127872, Note_on_c, 1, 48, 88
4, 128040, Note_on_c, 1, 48, 0
4, 128112, Note_on_c, 1, 48, 110
4, 128376, Note_on_c, 1, 39, 74
4, 128392, Note_on_c, 1, 32, 0
4, 128504, Note_on_c, 1, 32, 75
4, 128536, Note_on_c, 1, 32, 0
4, 128656, Note_on_c, 1, 32, 103
4, 128784, Note_on_c, 1, 32, 0
4, 128848, Note_on_c, 1, 39, 0
4, 128888, Note_on_c, 1, 31, 121
4, 128896, Note_on_c, 1, 48, 0
4, 129656, Note_on_c, 1, 43, 127
4, 129712, Note_on_c, 1, 31, 0
4, 129912, Pitch_bend_c, 1, 8192
4, 129912, Pitch_bend_c, 1, 8192
4, 129920, Pitch_bend_c, 1, 8842
4, 129928, Pitch_bend_c, 1, 9102
4, 129928, Pitch_bend_c, 1, 9362
4, 129936, Pitch_bend_c, 1, 9622
4, 129936, Pitch_bend_c, 1, 9882
4, 129944, Pitch_bend_c, 1, 10012
4, 129944, Pitch_bend_c, 1, 10142
4, 129952, Pitch_bend_c, 1, 10272
4, 129976, Pitch_bend_c, 1, 10142
4, 129976, Pitch_bend_c, 1, 9882
4, 129976, Pitch_bend_c, 1, 9752
4, 129984, Pitch_bend_c, 1, 9492
4, 129984, Pitch_bend_c, 1, 9362
4, 129992, Pitch_bend_c, 1, 9102
4, 129992, Pitch_bend_c, 1, 8842
4, 130000, Pitch_bend_c, 1, 8712
4, 130000, Pitch_bend_c, 1, 8192
4, 130008, Pitch_bend_c, 1, 8192
4, 130008, Pitch_bend_c, 1, 8192
4, 130032, Pitch_bend_c, 1, 8192
4, 130040, Pitch_bend_c, 1, 8192
4, 130048, Pitch_bend_c, 1, 8842
4, 130048, Pitch_bend_c, 1, 8972
4, 130056, Pitch_bend_c, 1, 9232
4, 130056, Pitch_bend_c, 1, 9362
4, 130064, Pitch_bend_c, 1, 9622
4, 130064, Pitch_bend_c, 1, 9752
4, 130064, Pitch_bend_c, 1, 10012
4, 130072, Pitch_bend_c, 1, 10142
4, 130072, Pitch_bend_c, 1, 10402
4, 130080, Pitch_bend_c, 1, 10792
4, 130080, Pitch_bend_c, 1, 10922
4, 130088, Pitch_bend_c, 1, 11312
4, 130088, Pitch_bend_c, 1, 11572
4, 130096, Pitch_bend_c, 1, 11832
4, 130096, Pitch_bend_c, 1, 12092
4, 130104, Pitch_bend_c, 1, 12222
4, 130104, Pitch_bend_c, 1, 12352
4, 130104, Pitch_bend_c, 1, 12612
4, 130112, Pitch_bend_c, 1, 12872
4, 130136, Pitch_bend_c, 1, 12612
4, 130144, Pitch_bend_c, 1, 12482
4, 130144, Pitch_bend_c, 1, 12222
4, 130152, Pitch_bend_c, 1, 11962
4, 130152, Pitch_bend_c, 1, 11572
4, 130160, Pitch_bend_c, 1, 11312
4, 130160, Pitch_bend_c, 1, 10792
4, 130160, Pitch_bend_c, 1, 10272
4, 130168, Pitch_bend_c, 1, 9752
4, 130168, Pitch_bend_c, 1, 9232
4, 130176, Pitch_bend_c, 1, 8712
4, 130176, Pitch_bend_c, 1, 8192
4, 130176, Pitch_bend_c, 1, 8192
4, 130488, Note_on_c, 1, 35, 66
4, 130536, Note_on_c, 1, 35, 0
4, 130576, Note_on_c, 1, 36, 100
4, 130648, Note_on_c, 1, 43, 0
4, 130944, Note_on_c, 1, 36, 0
4, 130944, Note_on_c, 1, 30, 94
4, 131304, Note_on_c, 1, 30, 0
4, 131328, Note_on_c, 1, 29, 79
4, 131584, Note_on_c, 1, 41, 110
4, 131680, Note_on_c, 1, 41, 0
4, 131712, Note_on_c, 1, 29, 0
4, 131736, Note_on_c, 1, 38, 69
4, 131944, Note_on_c, 1, 39, 105
4, 131952, Note_on_c, 1, 38, 0
4, 132056, Note_on_c, 1, 39, 0
4, 132080, Note_on_c, 1, 40, 82
4, 132280, Note_on_c, 1, 40, 0
4, 132320, Note_on_c, 1, 43, 90
4, 132424, Note_on_c, 1, 43, 0
4, 132440, Note_on_c, 1, 34, 80
4, 132840, Note_on_c, 1, 34, 0
4, 132856, Note_on_c, 1, 33, 78
4, 133232, Note_on_c, 1, 33, 0
4, 133248, Note_on_c, 1, 45, 97
4, 133360, Note_on_c, 1, 40, 79
4, 133392, Note_on_c, 1, 40, 0
4, 133424, Note_on_c, 1, 45, 0
4, 133472, Note_on_c, 1, 39, 84
4, 133592, Note_on_c, 1, 39, 0
4, 133616, Note_on_c, 1, 38, 75
4, 133984, Note_on_c, 1, 38, 0
4, 134000, Note_on_c, 1, 33, 79
4, 134376, Note_on_c, 1, 41, 92
4, 134416, Note_on_c, 1, 33, 0
4, 134744, Note_on_c, 1, 41, 0
4, 134760, Note_on_c, 1, 42, 100
4, 135120, Note_on_c, 1, 42, 0
4, 135152, Note_on_c, 1, 43, 90
4, 135392, Note_on_c, 1, 43, 0
4, 135392, Note_on_c, 1, 37, 105
4, 136200, Note_on_c, 1, 43, 102
4, 136224, Note_on_c, 1, 43, 0
4, 136440, Note_on_c, 1, 34, 85
4, 136448, Note_on_c, 1, 37, 0
4, 136536, Note_on_c, 1, 34, 0
4, 136560, Note_on_c, 1, 35, 94
4, 136672, Note_on_c, 1, 35, 0
4, 136696, Note_on_c, 1, 36, 95
4, 137064, Note_on_c, 1, 36, 0
4, 137080, Note_on_c, 1, 30, 91
4, 137336, Note_on_c, 1, 42, 117
4, 137392, Note_on_c, 1, 30, 0
4, 137448, Note_on_c, 1, 42, 0
4, 137472, Note_on_c, 1, 41, 86
4, 137712, Note_on_c, 1, 36, 80
4, 137824, Note_on_c, 1, 36, 0
4, 137840, Note_on_c, 1, 29, 80
4, 138144, Note_on_c, 1, 29, 0
4, 138224, Note_on_c, 1, 28, 90
4, 138568, Note_on_c, 1, 28, 0
4, 138608, Note_on_c, 1, 32, 91
4, 138616, Note_on_c, 1, 41, 0
4, 138968, Note_on_c, 1, 32, 0
4, 138992, Note_on_c, 1, 31, 83
4, 139248, Note_on_c, 1, 32, 78
4, 139280, Note_on_c, 1, 32, 0
4, 139304, Note_on_c, 1, 31, 0
4, 139360, Note_on_c, 1, 44, 110
4, 139760, Note_on_c, 1, 43, 94
4, 139768, Note_on_c, 1, 44, 0
4, 140000, Note_on_c, 1, 43, 0
4, 140016, Note_on_c, 1, 50, 115
4, 140120, Note_on_c, 1, 50, 0
4, 140160, Note_on_c, 1, 43, 90
4, 140544, Note_on_c, 1, 38, 87
4, 140600, Note_on_c, 1, 38, 0
4, 140784, Note_on_c, 1, 34, 82
4, 140880, Note_on_c, 1, 34, 0
4, 140912, Note_on_c, 1, 35, 87
4, 140928, Note_on_c, 1, 43, 0
4, 141264, Note_on_c, 1, 35, 0
4, 141288, Note_on_c, 1, 36, 90
4, 141392, Note_on_c, 1, 36, 0
4, 141536, Note_on_c, 1, 30, 112
4, 142320, Note_on_c, 1, 48, 127
4, 142496, Note_on_c, 1, 30, 0
4, 142568, Note_on_c, 1, 42, 97
4, 142608, Note_on_c, 1, 48, 0
4, 142616, Note_on_c, 1, 42, 0
4, 142696, Note_on_c, 1, 40, 104
4, 142808, Note_on_c, 1, 40, 0
4, 142832, Note_on_c, 1, 41, 96
4, 143040, Note_on_c, 1, 41, 0
4, 143088, Note_on_c, 1, 36, 87
4, 143176, Note_on_c, 1, 36, 0
4, 143216, Note_on_c, 1, 33, 88
4, 143592, Note_on_c, 1, 33, 0
4, 143608, Note_on_c, 1, 29, 75
4, 143992, Note_on_c, 1, 40, 105
4, 144056, Note_on_c, 1, 29, 0
4, 144264, Note_on_c, 1, 29, 65
4, 144304, Note_on_c, 1, 29, 0
4, 144360, Note_on_c, 1, 40, 0
4, 144376, Note_on_c, 1, 41, 89
4, 144632, Note_on_c, 1, 36, 107
4, 144680, Note_on_c, 1, 36, 0
4, 144768, Note_on_c, 1, 35, 97
4, 145088, Note_on_c, 1, 41, 0
4, 145128, Note_on_c, 1, 35, 0
4, 145136, Note_on_c, 1, 34, 91
4, 145512, Note_on_c, 1, 34, 0
4, 145520, Note_on_c, 1, 35, 100
4, 145896, Note_on_c, 1, 35, 0
4, 145904, Note_on_c, 1, 36, 99
4, 146112, Note_on_c, 1, 36, 0
4, 146152, Note_on_c, 1, 52, 107
4, 146160, Note_on_c, 1, 36, 110
4, 146912, Note_on_c, 1, 36, 0
4, 146920, Note_on_c, 1, 52, 0
4, 146928, Note_on_c, 1, 50, 103
4, 146928, Note_on_c, 1, 34, 105
4, 147368, Note_on_c, 1, 32, 73
4, 147384, Note_on_c, 1, 50, 0
4, 147416, Note_on_c, 1, 34, 0
4, 147440, Note_on_c, 1, 32, 0
4, 147456, Note_on_c, 1, 33, 97
4, 147816, Note_on_c, 1, 33, 0
4, 147848, Note_on_c, 1, 33, 105
4, 148224, Note_on_c, 1, 32, 104
4, 148240, Note_on_c, 1, 33, 0
4, 148560, Note_on_c, 1, 32, 0
4, 148600, Note_on_c, 1, 32, 88
4, 148944, Note_on_c, 1, 32, 0
4, 148968, Note_on_c, 1, 31, 81
4, 149104, Note_on_c, 1, 43, 84
4, 149208, Note_on_c, 1, 43, 0
4, 149224, Note_on_c, 1, 42, 71
4, 149320, Note_on_c, 1, 42, 0
4, 149344, Note_on_c, 1, 43, 82
4, 149440, Note_on_c, 1, 43, 0
4, 149472, Note_on_c, 1, 42, 67
4, 149568, Note_on_c, 1, 42, 0
4, 149600, Note_on_c, 1, 43, 90
4, 149912, Note_on_c, 1, 31, 0
4, 150160, Note_on_c, 1, 31, 66
4, 150240, Note_on_c, 1, 31, 0
4, 150280, Note_on_c, 1, 30, 72
4, 150368, Note_on_c, 1, 30, 0
4, 150400, Note_on_c, 1, 31, 116
4, 150592, Note_on_c, 1, 43, 0
4, 150672, Note_on_c, 1, 43, 70
4, 150776, Note_on_c, 1, 43, 0
4, 150784, Note_on_c, 1, 42, 75
4, 150880, Note_on_c, 1, 42, 0
4, 150920, Note_on_c, 1, 43, 82
4, 151016, Note_on_c, 1, 43, 0
4, 151032, Note_on_c, 1, 42, 65
4, 151128, Note_on_c, 1, 42, 0
4, 151168, Note_on_c, 1, 43, 102
4, 151368, Note_on_c, 1, 31, 0
4, 151440, Note_on_c, 1, 31, 98
4, 151488, Note_on_c, 1, 31, 0
4, 151552, Note_on_c, 1, 30, 79
4, 151632, Note_on_c, 1, 30, 0
4, 151672, Note_on_c, 1, 31, 86
4, 151768, Note_on_c, 1, 31, 0
4, 151800, Note_on_c, 1, 30, 79
4, 151848, Note_on_c, 1, 30, 0
4, 151928, Note_on_c, 1, 31, 127
4, 151992, Note_on_c, 1, 43, 0
4, 152192, Note_on_c, 1, 43, 86
4, 152312, Note_on_c, 1, 43, 0
4, 152320, Note_on_c, 1, 42, 74
4, 152408, Note_on_c, 1, 42, 0
4, 152440, Note_on_c, 1, 43, 84
4, 152544, Note_on_c, 1, 43, 0
4, 152568, Note_on_c, 1, 42, 73
4, 152656, Note_on_c, 1, 42, 0
4, 152696, Note_on_c, 1, 43, 106
4, 152840, Note_on_c, 1, 31, 0
4, 152960, Note_on_c, 1, 31, 88
4, 153056, Note_on_c, 1, 31, 0
4, 153080, Note_on_c, 1, 30, 84
4, 153168, Note_on_c, 1, 30, 0
4, 153200, Note_on_c, 1, 31, 87
4, 153304, Note_on_c, 1, 31, 0
4, 153320, Note_on_c, 1, 30, 73
4, 153440, Note_on_c, 1, 30, 0
4, 153448, Note_on_c, 1, 31, 127
4, 153488, Note_on_c, 1, 43, 0
4, 153568, Note_on_c, 1, 31, 0
4, 154240, Note_on_c, 1, 43, 92
4, 154320, Note_on_c, 1, 43, 0
4, 154368, Note_on_c, 1, 34, 72
4, 154720, Note_on_c, 1, 34, 0
4, 154736, Note_on_c, 1, 35, 78
4, 155112, Note_on_c, 1, 35, 0
4, 155128, Note_on_c, 1, 36, 89
4, 155632, Note_on_c, 1, 48, 98
4, 155648, Note_on_c, 1, 36, 0
4, 155672, Note_on_c, 1, 48, 0
4, 155760, Note_on_c, 1, 42, 93
4, 155864, Note_on_c, 1, 42, 0
4, 155904, Note_on_c, 1, 41, 80
4, 156144, Note_on_c, 1, 36, 78
4, 156232, Note_on_c, 1, 36, 0
4, 156280, Note_on_c, 1, 41, 0
4, 156280, Note_on_c, 1, 29, 76
4, 156664, Note_on_c, 1, 40, 86
4, 156712, Note_on_c, 1, 29, 0
4, 157168, Note_on_c, 1, 35, 80
4, 157192, Note_on_c, 1, 35, 0
4, 157280, Note_on_c, 1, 34, 90
4, 157344, Note_on_c, 1, 40, 0
4, 157384, Note_on_c, 1, 34, 0
4, 157408, Note_on_c, 1, 33, 87
4, 157664, Note_on_c, 1, 45, 113
4, 157752, Note_on_c, 1, 45, 0
4, 157760, Note_on_c, 1, 33, 0
4, 157800, Note_on_c, 1, 37, 91
4, 158160, Note_on_c, 1, 37, 0
4, 158184, Note_on_c, 1, 38, 91
4, 158584, Note_on_c, 1, 38, 0
4, 158584, Note_on_c, 1, 40, 103
4, 158952, Note_on_c, 1, 40, 0
4, 158976, Note_on_c, 1, 41, 91
4, 159200, Note_on_c, 1, 41, 0
4, 159224, Note_on_c, 1, 48, 118
4, 159336, Note_on_c, 1, 48, 0
4, 159368, Note_on_c, 1, 45, 91
4, 159592, Note_on_c, 1, 45, 0
4, 159616, Note_on_c, 1, 44, 94
4, 159704, Note_on_c, 1, 44, 0
4, 159744, Note_on_c, 1, 43, 88
4, 159776, Note_on_c, 1, 43, 0
4, 159856, Note_on_c, 1, 38, 79
4, 159880, Note_on_c, 1, 38, 0
4, 159984, Note_on_c, 1, 32, 92
4, 160096, Note_on_c, 1, 32, 0
4, 160120, Note_on_c, 1, 31, 86
4, 160224, Note_on_c, 1, 31, 0
4, 160256, Note_on_c, 1, 31, 108
4, 160384, Note_on_c, 1, 31, 0
4, 160384, Note_on_c, 1, 33, 98
4, 160464, Note_on_c, 1, 33, 0
4, 160504, Note_on_c, 1, 33, 98
4, 160640, Note_on_c, 1, 33, 0
4, 160648, Note_on_c, 1, 34, 94
4, 160704, Note_on_c, 1, 34, 0
4, 160768, Note_on_c, 1, 34, 86
4, 160888, Note_on_c, 1, 34, 0
4, 160896, Note_on_c, 1, 35, 105
4, 160984, Note_on_c, 1, 35, 0
4, 161024, Note_on_c, 1, 35, 89
4, 161136, Note_on_c, 1, 35, 0
4, 161152, Note_on_c, 1, 38, 110
4, 161264, Note_on_c, 1, 38, 0
4, 161288, Note_on_c, 1, 36, 106
4, 161536, Note_on_c, 1, 43, 121
4, 161616, Note_on_c, 1, 36, 0
4, 161648, Note_on_c, 1, 43, 0
4, 161672, Note_on_c, 1, 42, 95
4, 161912, Note_on_c, 1, 36, 77
4, 161944, Note_on_c, 1, 36, 0
4, 162016, Note_on_c, 1, 42, 0
4, 162048, Note_on_c, 1, 41, 89
4, 162288, Note_on_c, 1, 36, 83
4, 162336, Note_on_c, 1, 36, 0
4, 162360, Note_on_c, 1, 41, 0
4, 162416, Note_on_c, 1, 29, 82
4, 162680, Note_on_c, 1, 36, 53
4, 162712, Note_on_c, 1, 36, 0
4, 162784, Note_on_c, 1, 29, 0
4, 162800, Note_on_c, 1, 40, 80
4, 163136, Note_on_c, 1, 40, 0
4, 163176, Note_on_c, 1, 40, 86
4, 163552, Note_on_c, 1, 40, 0
4, 163560, Note_on_c, 1, 33, 83
4, 163944, Note_on_c, 1, 39, 87
4, 164008, Note_on_c, 1, 33, 0
4, 164320, Note_on_c, 1, 39, 0
4, 164336, Note_on_c, 1, 38, 79
4, 164584, Note_on_c, 1, 32, 111
4, 164600, Note_on_c, 1, 38, 0
4, 165104, Note_on_c, 1, 44, 100
4, 165728, Note_on_c, 1, 44, 0
4, 165752, Note_on_c, 1, 42, 94
4, 165816, Note_on_c, 1, 32, 0
4, 165832, Note_on_c, 1, 42, 0
4, 165880, Note_on_c, 1, 43, 94
4, 166128, Note_on_c, 1, 31, 116
4, 166184, Note_on_c, 1, 43, 0
4, 166640, Note_on_c, 1, 31, 0
4, 166656, Note_on_c, 1, 33, 88
4, 166680, Note_on_c, 1, 33, 0
4, 166888, Note_on_c, 1, 33, 76
4, 166984, Note_on_c, 1, 33, 0
4, 167040, Note_on_c, 1, 34, 69
4, 167248, Note_on_c, 1, 34, 0
4, 167280, Note_on_c, 1, 35, 82
4, 167400, Note_on_c, 1, 35, 0
4, 167408, Note_on_c, 1, 36, 89
4, 167664, Note_on_c, 1, 43, 70
4, 167688, Note_on_c, 1, 43, 0
4, 167792, Note_on_c, 1, 48, 115
4, 167808, Note_on_c, 1, 36, 0
4, 167872, Note_on_c, 1, 48, 0
4, 168040, Note_on_c, 1, 47, 97
4, 168136, Note_on_c, 1, 47, 0
4, 168176, Note_on_c, 1, 46, 80
4, 168528, Note_on_c, 1, 46, 0
4, 168568, Note_on_c, 1, 46, 91
4, 168920, Note_on_c, 1, 46, 0
4, 168944, Note_on_c, 1, 34, 92
4, 169328, Note_on_c, 1, 46, 103
4, 169384, Note_on_c, 1, 34, 0
4, 169576, Note_on_c, 1, 38, 84
4, 169664, Note_on_c, 1, 38, 0
4, 169712, Note_on_c, 1, 46, 0
4, 169712, Note_on_c, 1, 39, 81
4, 170072, Note_on_c, 1, 39, 0
4, 170072, Note_on_c, 1, 34, 84
4, 170464, Note_on_c, 1, 32, 96
4, 170472, Note_on_c, 1, 34, 0
4, 170824, Note_on_c, 1, 32, 0
4, 170872, Note_on_c, 1, 32, 88
4, 171264, Note_on_c, 1, 39, 94
4, 171272, Note_on_c, 1, 32, 0
4, 171616, Note_on_c, 1, 39, 0
4, 171648, Note_on_c, 1, 32, 93
4, 171992, Note_on_c, 1, 32, 0
4, 172016, Note_on_c, 1, 31, 89
4, 172272, Note_on_c, 1, 45, 120
4, 172368, Note_on_c, 1, 45, 0
4, 172392, Note_on_c, 1, 31, 0
4, 172408, Note_on_c, 1, 44, 93
4, 172648, Note_on_c, 1, 31, 77
4, 172704, Note_on_c, 1, 31, 0
4, 172744, Note_on_c, 1, 44, 0
4, 172768, Note_on_c, 1, 43, 88
4, 172824, Note_on_c, 1, 43, 0
4, 172880, Note_on_c, 1, 34, 91
4, 173136, Note_on_c, 1, 34, 0
4, 173152, Note_on_c, 1, 35, 98
4, 173536, Note_on_c, 1, 35, 0
4, 173552, Note_on_c, 1, 36, 99
4, 173824, Note_on_c, 1, 48, 127
4, 174080, Note_on_c, 1, 36, 0
4, 174200, Note_on_c, 1, 36, 83
4, 174312, Note_on_c, 1, 48, 0
4, 174320, Note_on_c, 1, 46, 103
4, 174336, Note_on_c, 1, 36, 0
4, 174720, Note_on_c, 1, 46, 0
4, 174728, Note_on_c, 1, 34, 93
4, 175088, Note_on_c, 1, 34, 0
4, 175088, Note_on_c, 1, 33, 96
4, 175464, Note_on_c, 1, 45, 109
4, 175792, Note_on_c, 1, 45, 0
4, 175824, Note_on_c, 1, 33, 0
4, 175840, Note_on_c, 1, 48, 113
4, 175872, Note_on_c, 1, 48, 0
4, 176232, Note_on_c, 1, 33, 86
4, 176408, Note_on_c, 1, 33, 0
4, 176608, Note_on_c, 1, 32, 98
4, 176656, Control_c, 1, 1, 3
4, 176656, Control_c, 1, 1, 5
4, 176656, Control_c, 1, 1, 6
4, 176664, Control_c, 1, 1, 7
4, 176664, Control_c, 1, 1, 9
4, 176664, Control_c, 1, 1, 12
4, 176664, Control_c, 1, 1, 13
4, 176672, Control_c, 1, 1, 16
4, 176672, Control_c, 1, 1, 17
4, 176672, Control_c, 1, 1, 20
4, 176680, Control_c, 1, 1, 22
4, 176680, Control_c, 1, 1, 24
4, 176680, Control_c, 1, 1, 26
4, 176680, Control_c, 1, 1, 28
4, 176688, Control_c, 1, 1, 30
4, 176688, Control_c, 1, 1, 32
4, 176688, Control_c, 1, 1, 34
4, 176696, Control_c, 1, 1, 36
4, 176696, Control_c, 1, 1, 38
4, 176696, Control_c, 1, 1, 40
4, 176696, Control_c, 1, 1, 42
4, 176704, Control_c, 1, 1, 45
4, 176704, Control_c, 1, 1, 46
4, 176704, Control_c, 1, 1, 48
4, 176704, Control_c, 1, 1, 49
4, 176712, Control_c, 1, 1, 51
4, 176712, Control_c, 1, 1, 53
4, 176712, Control_c, 1, 1, 55
4, 176720, Control_c, 1, 1, 56
4, 176720, Control_c, 1, 1, 57
4, 176720, Control_c, 1, 1, 59
4, 176720, Control_c, 1, 1, 60
4, 176728, Control_c, 1, 1, 62
4, 176728, Control_c, 1, 1, 65
4, 176736, Control_c, 1, 1, 66
4, 176736, Control_c, 1, 1, 67
4, 176736, Control_c, 1, 1, 68
4, 176736, Control_c, 1, 1, 69
4, 176744, Control_c, 1, 1, 71
4, 176752, Control_c, 1, 1, 73
4, 176752, Control_c, 1, 1, 74
4, 176760, Control_c, 1, 1, 76
4, 176768, Control_c, 1, 1, 78
4, 176768, Control_c, 1, 1, 79
4, 176776, Control_c, 1, 1, 80
4, 176784, Control_c, 1, 1, 81
4, 176824, Control_c, 1, 1, 80
4, 176832, Control_c, 1, 1, 78
4, 176840, Control_c, 1, 1, 77
4, 176848, Control_c, 1, 1, 76
4, 176856, Control_c, 1, 1, 75
4, 176864, Control_c, 1, 1, 74
4, 176872, Control_c, 1, 1, 73
4, 176880, Control_c, 1, 1, 72
4, 176888, Control_c, 1, 1, 70
4, 176888, Control_c, 1, 1, 69
4, 176896, Control_c, 1, 1, 67
4, 176896, Control_c, 1, 1, 66
4, 176904, Control_c, 1, 1, 63
4, 176904, Control_c, 1, 1, 62
4, 176904, Control_c, 1, 1, 61
4, 176912, Control_c, 1, 1, 60
4, 176912, Control_c, 1, 1, 58
4, 176912, Control_c, 1, 1, 57
4, 176912, Control_c, 1, 1, 56
4, 176920, Control_c, 1, 1, 54
4, 176920, Control_c, 1, 1, 53
4, 176920, Control_c, 1, 1, 51
4, 176920, Control_c, 1, 1, 50
4, 176928, Control_c, 1, 1, 48
4, 176928, Control_c, 1, 1, 46
4, 176928, Control_c, 1, 1, 44
4, 176928, Control_c, 1, 1, 42
4, 176936, Control_c, 1, 1, 40
4, 176936, Control_c, 1, 1, 38
4, 176936, Control_c, 1, 1, 35
4, 176944, Control_c, 1, 1, 34
4, 176944, Control_c, 1, 1, 31
4, 176944, Control_c, 1, 1, 29
4, 176952, Control_c, 1, 1, 26
4, 176952, Control_c, 1, 1, 24
4, 176952, Control_c, 1, 1, 21
4, 176952, Control_c, 1, 1, 19
4, 176960, Control_c, 1, 1, 15
4, 176960, Control_c, 1, 1, 11
4, 176960, Control_c, 1, 1, 8
4, 176968, Control_c, 1, 1, 6
4, 176968, Control_c, 1, 1, 2
4, 176968, Control_c, 1, 1, 1
4, 177304, Note_on_c, 1, 32, 0
4, 177384, Note_on_c, 1, 32, 101
4, 177464, Pitch_bend_c, 1, 8192
4, 177464, Pitch_bend_c, 1, 8192
4, 177472, Pitch_bend_c, 1, 7680
4, 177480, Pitch_bend_c, 1, 7552
4, 177480, Pitch_bend_c, 1, 7296
4, 177488, Pitch_bend_c, 1, 7168
4, 177488, Pitch_bend_c, 1, 6912
4, 177496, Pitch_bend_c, 1, 6784
4, 177496, Pitch_bend_c, 1, 6528
4, 177504, Pitch_bend_c, 1, 6400
4, 177504, Pitch_bend_c, 1, 6272
4, 177504, Pitch_bend_c, 1, 6016
4, 177512, Pitch_bend_c, 1, 5888
4, 177512, Pitch_bend_c, 1, 5760
4, 177520, Pitch_bend_c, 1, 5632
4, 177520, Pitch_bend_c, 1, 5504
4, 177528, Pitch_bend_c, 1, 5376
4, 177528, Pitch_bend_c, 1, 5120
4, 177536, Pitch_bend_c, 1, 4992
4, 177552, Pitch_bend_c, 1, 5120
4, 177560, Pitch_bend_c, 1, 5376
4, 177560, Pitch_bend_c, 1, 5632
4, 177568, Pitch_bend_c, 1, 5888
4, 177568, Pitch_bend_c, 1, 6016
4, 177576, Pitch_bend_c, 1, 6400
4, 177576, Pitch_bend_c, 1, 6656
4, 177584, Pitch_bend_c, 1, 6912
4, 177584, Pitch_bend_c, 1, 7296
4, 177592, Pitch_bend_c, 1, 7552
4, 177592, Pitch_bend_c, 1, 8192
4, 177592, Pitch_bend_c, 1, 8192
4, 177680, Pitch_bend_c, 1, 8192
4, 177688, Pitch_bend_c, 1, 8192
4, 177696, Pitch_bend_c, 1, 7680
4, 177696, Pitch_bend_c, 1, 7424
4, 177704, Pitch_bend_c, 1, 7296
4, 177704, Pitch_bend_c, 1, 7168
4, 177712, Pitch_bend_c, 1, 7040
4, 177720, Pitch_bend_c, 1, 6912
4, 177736, Pitch_bend_c, 1, 7040
4, 177736, Pitch_bend_c, 1, 7168
4, 177744, Pitch_bend_c, 1, 7424
4, 177744, Pitch_bend_c, 1, 7680
4, 177744, Pitch_bend_c, 1, 8192
4, 177752, Pitch_bend_c, 1, 8192
4, 177752, Pitch_bend_c, 1, 8192
4, 177848, Pitch_bend_c, 1, 8192
4, 177856, Pitch_bend_c, 1, 8192
4, 177872, Pitch_bend_c, 1, 8192
4, 178168, Note_on_c, 1, 31, 100
4, 178192, Note_on_c, 1, 32, 0
4, 178432, Note_on_c, 1, 43, 124
4, 178816, Note_on_c, 1, 55, 124
4, 179296, Note_on_c, 1, 43, 0
4, 179320, Note_on_c, 1, 31, 0
4, 179344, Note_on_c, 1, 43, 78
4, 179384, Note_on_c, 1, 43, 0
4, 179400, Note_on_c, 1, 55, 0
4, 179456, Note_on_c, 1, 34, 84
4, 179520, Note_on_c, 1, 34, 0
4, 179576, Note_on_c, 1, 35, 82
4, 179680, Note_on_c, 1, 35, 0
4, 179704, Note_on_c, 1, 36, 87
4, 179960, Note_on_c, 1, 50, 110
4, 180032, Note_on_c, 1, 50, 0
4, 180096, Note_on_c, 1, 42, 91
4, 180152, Note_on_c, 1, 36, 0
4, 180352, Note_on_c, 1, 36, 66
4, 180376, Note_on_c, 1, 36, 0
4, 180464, Note_on_c, 1, 42, 0
4, 180480, Note_on_c, 1, 41, 86
4, 180736, Note_on_c, 1, 36, 77
4, 180856, Note_on_c, 1, 36, 0
4, 180872, Note_on_c, 1, 29, 77
4, 181200, Note_on_c, 1, 41, 0
4, 181232, Note_on_c, 1, 29, 0
4, 181248, Note_on_c, 1, 40, 96
4, 181520, Note_on_c, 1, 35, 60
4, 181576, Note_on_c, 1, 35, 0
4, 181624, Note_on_c, 1, 28, 86
4, 181984, Note_on_c, 1, 40, 0
4, 182000, Note_on_c, 1, 28, 0
4, 182024, Note_on_c, 1, 33, 76
4, 182392, Note_on_c, 1, 39, 97
4, 182400, Note_on_c, 1, 33, 0
4, 182648, Note_on_c, 1, 37, 63
4, 182736, Note_on_c, 1, 37, 0
4, 182768, Note_on_c, 1, 39, 0
4, 182776, Note_on_c, 1, 38, 82
4, 183392, Note_on_c, 1, 52, 127
4, 183448, Note_on_c, 1, 52, 0
4, 183528, Note_on_c, 1, 38, 0
4, 183528, Note_on_c, 1, 51, 95
4, 183584, Note_on_c, 1, 51, 0
4, 183640, Note_on_c, 1, 50, 102
4, 183688, Note_on_c, 1, 50, 0
4, 183768, Note_on_c, 1, 48, 110
4, 183840, Note_on_c, 1, 48, 0
4, 183904, Note_on_c, 1, 45, 79
4, 183992, Note_on_c, 1, 45, 0
4, 184024, Note_on_c, 1, 41, 71
4, 184128, Note_on_c, 1, 41, 0
4, 184160, Note_on_c, 1, 42, 85
4, 184256, Note_on_c, 1, 42, 0
4, 184296, Note_on_c, 1, 43, 89
4, 184328, Note_on_c, 1, 43, 0
4, 184416, Note_on_c, 1, 38, 81
4, 184456, Note_on_c, 1, 38, 0
4, 184536, Note_on_c, 1, 32, 95
4, 184664, Note_on_c, 1, 32, 0
4, 184680, Note_on_c, 1, 31, 101
4, 185056, Note_on_c, 1, 31, 0
4, 185072, Note_on_c, 1, 33, 92
4, 185320, Note_on_c, 1, 33, 0
4, 185320, Note_on_c, 1, 34, 89
4, 185440, Note_on_c, 1, 34, 0
4, 185456, Note_on_c, 1, 35, 87
4, 185832, Note_on_c, 1, 35, 0
4, 185856, Note_on_c, 1, 36, 80
4, 186352, Note_on_c, 1, 43, 93
4, 186376, Note_on_c, 1, 43, 0
4, 186384, Note_on_c, 1, 36, 0
4, 186472, Note_on_c, 1, 42, 99
4, 186552, Note_on_c, 1, 42, 0
4, 186608, Note_on_c, 1, 41, 93
4, 186864, Note_on_c, 1, 36, 85
4, 186904, Note_on_c, 1, 36, 0
4, 186992, Note_on_c, 1, 29, 93
4, 187008, Note_on_c, 1, 41, 0
4, 187352, Note_on_c, 1, 29, 0
4, 187376, Note_on_c, 1, 40, 87
4, 187704, Note_on_c, 1, 40, 0
4, 187752, Note_on_c, 1, 40, 85
4, 188128, Note_on_c, 1, 40, 0
4, 188136, Note_on_c, 1, 43, 87
4, 188528, Note_on_c, 1, 32, 96
4, 188568, Note_on_c, 1, 43, 0
4, 188888, Note_on_c, 1, 32, 0
4, 188920, Note_on_c, 1, 31, 86
4, 189288, Note_on_c, 1, 44, 104
4, 189336, Note_on_c, 1, 31, 0
4, 189560, Note_on_c, 1, 32, 68
4, 189592, Note_on_c, 1, 32, 0
4, 189672, Note_on_c, 1, 44, 0
4, 189680, Note_on_c, 1, 43, 86
4, 190064, Note_on_c, 1, 32, 98
4, 190424, Note_on_c, 1, 32, 0
4, 190456, Note_on_c, 1, 31, 75
4, 190672, Note_on_c, 1, 43, 0
4, 190688, Note_on_c, 1, 31, 0
4, 190704, Note_on_c, 1, 35, 92
4, 190824, Note_on_c, 1, 35, 0
4, 190832, Note_on_c, 1, 36, 104
4, 191080, Note_on_c, 1, 36, 0
4, 191080, Note_on_c, 1, 30, 113
4, 191464, Note_on_c, 1, 48, 126
4, 191656, Note_on_c, 1, 30, 0
4, 191736, Note_on_c, 1, 48, 0
4, 191744, Note_on_c, 1, 42, 87
4, 191816, Note_on_c, 1, 42, 0
4, 191848, Note_on_c, 1, 40, 86
4, 191920, Note_on_c, 1, 40, 0
4, 191984, Note_on_c, 1, 41, 89
4, 192024, Note_on_c, 1, 41, 0
4, 192104, Note_on_c, 1, 36, 81
4, 192120, Note_on_c, 1, 36, 0
4, 192208, Note_on_c, 1, 32, 92
4, 192352, Note_on_c, 1, 32, 0
4, 192368, Note_on_c, 1, 33, 96
4, 192744, Note_on_c, 1, 33, 0
4, 192752, Note_on_c, 1, 36, 95
4, 193120, Note_on_c, 1, 36, 0
4, 193128, Note_on_c, 1, 29, 89
4, 193408, Note_on_c, 1, 36, 68
4, 193424, Note_on_c, 1, 36, 0
4, 193432, Note_on_c, 1, 29, 0
4, 193520, Note_on_c, 1, 41, 106
4, 193768, Note_on_c, 1, 36, 94
4, 193824, Note_on_c, 1, 36, 0
4, 193896, Note_on_c, 1, 41, 0
4, 193912, Note_on_c, 1, 35, 94
4, 194288, Note_on_c, 1, 35, 0
4, 194304, Note_on_c, 1, 34, 95
4, 194464, Note_on_c, 1, 34, 0
4, 194552, Note_on_c, 1, 34, 100
4, 194552, Note_on_c, 1, 50, 119
4, 194712, Note_on_c, 1, 50, 0
4, 194792, Note_on_c, 1, 35, 98
4, 194800, Note_on_c, 1, 34, 0
4, 194800, Note_on_c, 1, 51, 100
4, 195000, Note_on_c, 1, 51, 0
4, 195040, Note_on_c, 1, 35, 0
4, 195048, Note_on_c, 1, 52, 91
4, 195048, Note_on_c, 1, 36, 93
4, 195504, Note_on_c, 1, 36, 0
4, 195592, Note_on_c, 1, 38, 100
4, 195616, Note_on_c, 1, 38, 0
4, 195648, Note_on_c, 1, 52, 0
4, 195696, Note_on_c, 1, 36, 108
4, 195736, Note_on_c, 1, 36, 0
4, 195824, Note_on_c, 1, 34, 107
4, 196320, Note_on_c, 1, 34, 0
4, 196336, Note_on_c, 1, 38, 83
4, 196360, Note_on_c, 1, 38, 0
4, 196456, Note_on_c, 1, 34, 94
4, 196568, Note_on_c, 1, 34, 0
4, 196592, Note_on_c, 1, 33, 100
4, 197304, Note_on_c, 1, 33, 0
4, 197392, Note_on_c, 1, 38, 100
4, 197768, Note_on_c, 1, 38, 0
4, 197768, Note_on_c, 1, 32, 83
4, 198096, Note_on_c, 1, 32, 0
4, 198136, Note_on_c, 1, 31, 89
4, 198376, Note_on_c, 1, 43, 104
4, 198416, Note_on_c, 1, 43, 0
4, 198776, Note_on_c, 1, 43, 126
4, 198824, Note_on_c, 1, 43, 0
4, 199152, Note_on_c, 1, 43, 112
4, 199280, Note_on_c, 1, 43, 0
4, 199296, Note_on_c, 1, 42, 81
4, 199624, Note_on_c, 1, 42, 0
4, 199656, Note_on_c, 1, 43, 83
4, 199672, Note_on_c, 1, 31, 0
4, 199904, Note_on_c, 1, 31, 98
4, 199952, Note_on_c, 1, 31, 0
4, 200040, Note_on_c, 1, 30, 83
4, 200256, Note_on_c, 1, 30, 0
4, 200288, Note_on_c, 1, 31, 98
4, 200512, Note_on_c, 1, 31, 0
4, 200688, Note_on_c, 1, 34, 105
4, 200808, Note_on_c, 1, 34, 0
4, 200840, Note_on_c, 1, 35, 85
4, 201048, Note_on_c, 1, 35, 0
4, 201056, Note_on_c, 1, 36, 112
4, 201304, Note_on_c, 1, 36, 0
4, 201304, Note_on_c, 1, 31, 89
4, 201360, Note_on_c, 1, 31, 0
4, 201424, Note_on_c, 1, 27, 95
4, 201536, Note_on_c, 1, 27, 0
4, 201552, Note_on_c, 1, 43, 0
4, 201560, Note_on_c, 1, 28, 102
4, 201952, Note_on_c, 1, 28, 0
4, 201968, Note_on_c, 1, 29, 80
4, 202056, Note_on_c, 1, 29, 0
4, 202200, Note_on_c, 1, 29, 75
4, 202320, Note_on_c, 1, 29, 0
4, 202336, Note_on_c, 1, 30, 90
4, 202408, Note_on_c, 1, 30, 0
4, 202592, Note_on_c, 1, 30, 101
4, 202664, Note_on_c, 1, 30, 0
4, 202736, Note_on_c, 1, 31, 86
4, 203000, Note_on_c, 1, 34, 92
4, 203024, Note_on_c, 1, 31, 0
4, 203120, Note_on_c, 1, 34, 0
4, 203136, Note_on_c, 1, 35, 85
4, 203384, Note_on_c, 1, 36, 114
4, 203392, Note_on_c, 1, 35, 0
4, 205440, Note_on_c, 1, 36, 0
4, 205440, End_track
5, 0, Start_track
5, 0, Program_c, 9, 32
5, 1416, Note_on_c, 9, 36, 48
5, 1480, Note_on_c, 9, 36, 0
5, 1536, Note_on_c, 9, 51, 47
5, 1550, Note_on_c, 9, 36, 45
5, 1664, Note_on_c, 9, 51, 0
5, 1676, Note_on_c, 9, 36, 0
5, 1920, Note_on_c, 9, 44, 114
5, 2174, Note_on_c, 9, 36, 45
5, 2176, Note_on_c, 9, 51, 48
5, 2202, Note_on_c, 9, 36, 0
5, 2304, Note_on_c, 9, 51, 0
5, 2304, Note_on_c, 9, 44, 0
5, 2304, Note_on_c, 9, 51, 35
5, 2432, Note_on_c, 9, 51, 0
5, 2688, Note_on_c, 9, 44, 115
5, 2944, Note_on_c, 9, 51, 55
5, 3072, Note_on_c, 9, 51, 0
5, 3072, Note_on_c, 9, 44, 0
5, 3072, Note_on_c, 9, 51, 53
5, 3098, Note_on_c, 9, 36, 7
5, 3140, Note_on_c, 9, 36, 0
5, 3200, Note_on_c, 9, 51, 0
5, 3342, Note_on_c, 9, 38, 33
5, 3376, Note_on_c, 9, 38, 0
5, 3456, Note_on_c, 9, 44, 109
5, 3712, Note_on_c, 9, 51, 53
5, 3720, Note_on_c, 9, 38, 21
5, 3748, Note_on_c, 9, 38, 19
5, 3750, Note_on_c, 9, 38, 0
5, 3784, Note_on_c, 9, 38, 0
5, 3840, Note_on_c, 9, 51, 0
5, 3840, Note_on_c, 9, 44, 0
5, 3840, Note_on_c, 9, 51, 42
5, 3968, Note_on_c, 9, 51, 0
5, 4104, Note_on_c, 9, 38, 48
5, 4138, Note_on_c, 9, 38, 0
5, 4224, Note_on_c, 9, 44, 112
5, 4480, Note_on_c, 9, 51, 48
5, 4482, Note_on_c, 9, 38, 46
5, 4510, Note_on_c, 9, 38, 0
5, 4590, Note_on_c, 9, 36, 39
5, 4608, Note_on_c, 9, 51, 0
5, 4608, Note_on_c, 9, 44, 0
5, 4608, Note_on_c, 9, 51, 39
5, 4624, Note_on_c, 9, 36, 0
5, 4736, Note_on_c, 9, 51, 0
5, 4992, Note_on_c, 9, 44, 111
5, 5248, Note_on_c, 9, 51, 59
5, 5270, Note_on_c, 9, 36, 39
5, 5304, Note_on_c, 9, 36, 0
5, 5376, Note_on_c, 9, 51, 0
5, 5376, Note_on_c, 9, 44, 0
5, 5376, Note_on_c, 9, 51, 44
5, 5398, Note_on_c, 9, 36, 34
5, 5436, Note_on_c, 9, 36, 0
5, 5504, Note_on_c, 9, 51, 0
5, 5760, Note_on_c, 9, 44, 114
5, 6016, Note_on_c, 9, 51, 34
5, 6040, Note_on_c, 9, 36, 13
5, 6072, Note_on_c, 9, 36, 0
5, 6144, Note_on_c, 9, 51, 0
5, 6144, Note_on_c, 9, 44, 0
5, 6144, Note_on_c, 9, 51, 47
5, 6158, Note_on_c, 9, 36, 30
5, 6208, Note_on_c, 9, 36, 0
5, 6272, Note_on_c, 9, 51, 0
5, 6528, Note_on_c, 9, 44, 108
5, 6784, Note_on_c, 9, 51, 50
5, 6792, Note_on_c, 9, 38, 17
5, 6830, Note_on_c, 9, 38, 0
5, 6912, Note_on_c, 9, 51, 0
5, 6912, Note_on_c, 9, 44, 0
5, 6912, Note_on_c, 9, 51, 38
5, 7040, Note_on_c, 9, 51, 0
5, 7168, Note_on_c, 9, 54, 75
5, 7184, Note_on_c, 9, 38, 31
5, 7214, Note_on_c, 9, 38, 0
5, 7296, Note_on_c, 9, 54, 0
5, 7296, Note_on_c, 9, 44, 116
5, 7296, Note_on_c, 9, 51, 42
5, 7424, Note_on_c, 9, 51, 0
5, 7470, Note_on_c, 9, 38, 45
5, 7552, Note_on_c, 9, 51, 56
5, 7602, Note_on_c, 9, 38, 0
5, 7634, Note_on_c, 9, 36, 40
5, 7638, Note_on_c, 9, 36, 40
5, 7664, Note_on_c, 9, 57, 56
5, 7666, Note_on_c, 9, 36, 0
5, 7680, Note_on_c, 9, 44, 0
5, 7680, Note_on_c, 9, 51, 0
5, 7680, Note_on_c, 9, 51, 59
5, 7706, Note_on_c, 9, 57, 0
5, 7772, Note_on_c, 9, 36, 0
5, 7808, Note_on_c, 9, 51, 0
5, 8064, Note_on_c, 9, 44, 113
5, 8320, Note_on_c, 9, 51, 50
5, 8328, Note_on_c, 9, 36, 15
5, 8368, Note_on_c, 9, 36, 0
5, 8448, Note_on_c, 9, 51, 0
5, 8448, Note_on_c, 9, 44, 0
5, 8448, Note_on_c, 9, 51, 39
5, 8456, Note_on_c, 9, 36, 34
5, 8486, Note_on_c, 9, 36, 0
5, 8576, Note_on_c, 9, 51, 0
5, 8704, Note_on_c, 9, 53, 80
5, 8832, Note_on_c, 9, 53, 0
5, 8832, Note_on_c, 9, 44, 117
5, 8832, Note_on_c, 9, 51, 49
5, 8960, Note_on_c, 9, 51, 0
5, 9088, Note_on_c, 9, 53, 80
5, 9098, Note_on_c, 9, 36, 36
5, 9130, Note_on_c, 9, 36, 0
5, 9216, Note_on_c, 9, 53, 0
5, 9216, Note_on_c, 9, 44, 0
5, 9216, Note_on_c, 9, 51, 47
5, 9344, Note_on_c, 9, 51, 0
5, 9600, Note_on_c, 9, 44, 115
5, 9856, Note_on_c, 9, 51, 55
5, 9984, Note_on_c, 9, 51, 0
5, 9984, Note_on_c, 9, 44, 0
5, 9984, Note_on_c, 9, 51, 51
5, 10112, Note_on_c, 9, 51, 0
5, 10368, Note_on_c, 9, 44, 111
5, 10624, Note_on_c, 9, 51, 65
5, 10752, Note_on_c, 9, 51, 0
5, 10752, Note_on_c, 9, 44, 0
5, 10752, Note_on_c, 9, 51, 59
5, 10880, Note_on_c, 9, 51, 0
5, 11136, Note_on_c, 9, 44, 115
5, 11140, Note_on_c, 9, 37, 38
5, 11198, Note_on_c, 9, 37, 0
5, 11392, Note_on_c, 9, 51, 60
5, 11520, Note_on_c, 9, 51, 0
5, 11520, Note_on_c, 9, 44, 0
5, 11520, Note_on_c, 9, 51, 57
5, 11648, Note_on_c, 9, 51, 0
5, 11886, Note_on_c, 9, 37, 67
5, 11904, Note_on_c, 9, 46, 111
5, 12012, Note_on_c, 9, 37, 0
5, 12160, Note_on_c, 9, 51, 57
5, 12288, Note_on_c, 9, 51, 0
5, 12288, Note_on_c, 9, 46, 0
5, 12288, Note_on_c, 9, 51, 61
5, 12416, Note_on_c, 9, 51, 0
5, 12660, Note_on_c, 9, 37, 63
5, 12672, Note_on_c, 9, 44, 104
5, 12780, Note_on_c, 9, 37, 0
5, 12928, Note_on_c, 9, 51, 64
5, 13056, Note_on_c, 9, 51, 0
5, 13056, Note_on_c, 9, 44, 0
5, 13056, Note_on_c, 9, 51, 62
5, 13312, Note_on_c, 9, 51, 0
5, 13440, Note_on_c, 9, 44, 108
5, 13696, Note_on_c, 9, 51, 70
5, 13696, Note_on_c, 9, 36, 66
5, 13760, Note_on_c, 9, 36, 0
5, 13824, Note_on_c, 9, 51, 0
5, 13824, Note_on_c, 9, 44, 0
5, 13824, Note_on_c, 9, 51, 68
5, 13832, Note_on_c, 9, 36, 55
5, 13934, Note_on_c, 9, 36, 0
5, 13952, Note_on_c, 9, 51, 0
5, 14208, Note_on_c, 9, 44, 112
5, 14208, Note_on_c, 9, 51, 52
5, 14336, Note_on_c, 9, 51, 0
5, 14592, Note_on_c, 9, 44, 0
5, 14592, Note_on_c, 9, 51, 60
5, 14720, Note_on_c, 9, 51, 0
5, 14976, Note_on_c, 9, 44, 117
5, 14976, Note_on_c, 9, 51, 52
5, 15104, Note_on_c, 9, 51, 0
5, 15218, Note_on_c, 9, 38, 37
5, 15232, Note_on_c, 9, 51, 58
5, 15248, Note_on_c, 9, 38, 0
5, 15322, Note_on_c, 9, 36, 30
5, 15360, Note_on_c, 9, 51, 0
5, 15360, Note_on_c, 9, 44, 0
5, 15360, Note_on_c, 9, 51, 59
5, 15366, Note_on_c, 9, 36, 0
5, 15616, Note_on_c, 9, 51, 0
5, 15744, Note_on_c, 9, 44, 114
5, 15744, Note_on_c, 9, 51, 73
5, 16000, Note_on_c, 9, 51, 0
5, 16128, Note_on_c, 9, 44, 0
5, 16128, Note_on_c, 9, 51, 71
5, 16384, Note_on_c, 9, 51, 0
5, 16512, Note_on_c, 9, 44, 115
5, 16512, Note_on_c, 9, 51, 77
5, 16680, Note_on_c, 9, 38, 36
5, 16708, Note_on_c, 9, 38, 0
5, 16762, Note_on_c, 9, 37, 44
5, 16768, Note_on_c, 9, 51, 0
5, 16768, Note_on_c, 9, 51, 42
5, 16790, Note_on_c, 9, 37, 0
5, 16792, Note_on_c, 9, 36, 43
5, 16826, Note_on_c, 9, 36, 0
5, 16894, Note_on_c, 9, 38, 44
5, 16896, Note_on_c, 9, 51, 0
5, 16896, Note_on_c, 9, 44, 0
5, 16896, Note_on_c, 9, 51, 60
5, 16928, Note_on_c, 9, 38, 0
5, 17152, Note_on_c, 9, 51, 0
5, 17280, Note_on_c, 9, 44, 109
5, 17280, Note_on_c, 9, 51, 80
5, 17536, Note_on_c, 9, 51, 0
5, 17664, Note_on_c, 9, 44, 0
5, 17664, Note_on_c, 9, 51, 49
5, 17792, Note_on_c, 9, 51, 0
5, 17792, Note_on_c, 9, 51, 72
5, 17920, Note_on_c, 9, 51, 0
5, 18048, Note_on_c, 9, 44, 112
5, 18048, Note_on_c, 9, 51, 83
5, 18304, Note_on_c, 9, 51, 0
5, 18432, Note_on_c, 9, 44, 0
5, 18432, Note_on_c, 9, 51, 78
5, 18688, Note_on_c, 9, 51, 0
5, 18816, Note_on_c, 9, 44, 111
5, 18816, Note_on_c, 9, 51, 79
5, 19072, Note_on_c, 9, 51, 0
5, 19072, Note_on_c, 9, 51, 53
5, 19200, Note_on_c, 9, 51, 0
5, 19200, Note_on_c, 9, 44, 0
5, 19200, Note_on_c, 9, 51, 76
5, 19456, Note_on_c, 9, 51, 0
5, 19460, Note_on_c, 9, 38, 43
5, 19500, Note_on_c, 9, 38, 0
5, 19584, Note_on_c, 9, 44, 114
5, 19584, Note_on_c, 9, 51, 74
5, 19736, Note_on_c, 9, 38, 47
5, 19780, Note_on_c, 9, 38, 0
5, 19828, Note_on_c, 9, 37, 49
5, 19840, Note_on_c, 9, 51, 0
5, 19922, Note_on_c, 9, 37, 0
5, 19956, Note_on_c, 9, 36, 46
5, 19968, Note_on_c, 9, 44, 0
5, 19968, Note_on_c, 9, 51, 65
5, 20084, Note_on_c, 9, 36, 0
5, 20224, Note_on_c, 9, 51, 0
5, 20224, Note_on_c, 9, 53, 70
5, 20352, Note_on_c, 9, 53, 0
5, 20352, Note_on_c, 9, 44, 108
5, 20352, Note_on_c, 9, 51, 52
5, 20608, Note_on_c, 9, 51, 0
5, 20736, Note_on_c, 9, 44, 0
5, 20736, Note_on_c, 9, 51, 56
5, 20988, Note_on_c, 9, 38, 36
5, 20992, Note_on_c, 9, 51, 0
5, 21032, Note_on_c, 9, 38, 0
5, 21120, Note_on_c, 9, 44, 116
5, 21120, Note_on_c, 9, 51, 60
5, 21124, Note_on_c, 9, 36, 16
5, 21182, Note_on_c, 9, 36, 0
5, 21376, Note_on_c, 9, 51, 0
5, 21504, Note_on_c, 9, 44, 0
5, 21504, Note_on_c, 9, 51, 71
5, 21760, Note_on_c, 9, 51, 0
5, 21888, Note_on_c, 9, 44, 113
5, 21888, Note_on_c, 9, 51, 71
5, 22016, Note_on_c, 9, 51, 0
5, 22144, Note_on_c, 9, 51, 46
5, 22272, Note_on_c, 9, 51, 0
5, 22272, Note_on_c, 9, 44, 0
5, 22272, Note_on_c, 9, 51, 68
5, 22528, Note_on_c, 9, 51, 0
5, 22656, Note_on_c, 9, 44, 117
5, 22656, Note_on_c, 9, 51, 79
5, 22910, Note_on_c, 9, 38, 5
5, 22912, Note_on_c, 9, 51, 0
5, 22912, Note_on_c, 9, 51, 56
5, 22938, Note_on_c, 9, 38, 0
5, 23040, Note_on_c, 9, 51, 0
5, 23040, Note_on_c, 9, 44, 0
5, 23040, Note_on_c, 9, 51, 74
5, 23066, Note_on_c, 9, 38, 19
5, 23102, Note_on_c, 9, 38, 0
5, 23294, Note_on_c, 9, 38, 26
5, 23296, Note_on_c, 9, 51, 0
5, 23330, Note_on_c, 9, 38, 0
5, 23424, Note_on_c, 9, 44, 115
5, 23424, Note_on_c, 9, 51, 77
5, 23462, Note_on_c, 9, 38, 20
5, 23498, Note_on_c, 9, 38, 0
5, 23680, Note_on_c, 9, 51, 0
5, 23690, Note_on_c, 9, 36, 35
5, 23776, Note_on_c, 9, 36, 0
5, 23808, Note_on_c, 9, 44, 0
5, 23808, Note_on_c, 9, 51, 83
5, 24064, Note_on_c, 9, 51, 0
5, 24064, Note_on_c, 9, 51, 59
5, 24192, Note_on_c, 9, 51, 0
5, 24192, Note_on_c, 9, 44, 111
5, 24192, Note_on_c, 9, 51, 80
5, 24432, Note_on_c, 9, 31, 40
5, 24448, Note_on_c, 9, 51, 0
5, 24510, Note_on_c, 9, 31, 0
5, 24576, Note_on_c, 9, 44, 0
5, 24576, Note_on_c, 9, 51, 83
5, 24832, Note_on_c, 9, 51, 0
5, 24846, Note_on_c, 9, 31, 29
5, 24884, Note_on_c, 9, 31, 0
5, 24960, Note_on_c, 9, 44, 115
5, 24960, Note_on_c, 9, 51, 82
5, 25214, Note_on_c, 9, 31, 37
5, 25216, Note_on_c, 9, 51, 0
5, 25264, Note_on_c, 9, 31, 0
5, 25344, Note_on_c, 9, 44, 0
5, 25344, Note_on_c, 9, 51, 81
5, 25598, Note_on_c, 9, 31, 48
5, 25600, Note_on_c, 9, 51, 0
5, 25600, Note_on_c, 9, 51, 62
5, 25666, Note_on_c, 9, 31, 0
5, 25728, Note_on_c, 9, 51, 0
5, 25728, Note_on_c, 9, 46, 111
5, 25728, Note_on_c, 9, 51, 80
5, 25974, Note_on_c, 9, 31, 67
5, 25984, Note_on_c, 9, 51, 0
5, 26026, Note_on_c, 9, 31, 0
5, 26098, Note_on_c, 9, 36, 46
5, 26112, Note_on_c, 9, 46, 0
5, 26112, Note_on_c, 9, 51, 79
5, 26228, Note_on_c, 9, 36, 0
5, 26368, Note_on_c, 9, 51, 0
5, 26496, Note_on_c, 9, 44, 104
5, 26496, Note_on_c, 9, 51, 78
5, 26752, Note_on_c, 9, 51, 0
5, 26880, Note_on_c, 9, 44, 0
5, 26880, Note_on_c, 9, 51, 77
5, 27136, Note_on_c, 9, 51, 0
5, 27264, Note_on_c, 9, 44, 108
5, 27264, Note_on_c, 9, 51, 77
5, 27520, Note_on_c, 9, 51, 0
5, 27520, Note_on_c, 9, 51, 48
5, 27648, Note_on_c, 9, 51, 0
5, 27648, Note_on_c, 9, 44, 0
5, 27648, Note_on_c, 9, 51, 72
5, 27904, Note_on_c, 9, 51, 0
5, 28032, Note_on_c, 9, 44, 112
5, 28032, Note_on_c, 9, 51, 73
5, 28288, Note_on_c, 9, 51, 0
5, 28416, Note_on_c, 9, 44, 0
5, 28416, Note_on_c, 9, 51, 67
5, 28672, Note_on_c, 9, 51, 0
5, 28672, Note_on_c, 9, 51, 37
5, 28684, Note_on_c, 9, 38, 27
5, 28726, Note_on_c, 9, 38, 0
5, 28800, Note_on_c, 9, 51, 0
5, 28800, Note_on_c, 9, 44, 117
5, 28800, Note_on_c, 9, 51, 70
5, 28940, Note_on_c, 9, 38, 44
5, 28976, Note_on_c, 9, 38, 0
5, 29048, Note_on_c, 9, 37, 52
5, 29056, Note_on_c, 9, 51, 0
5, 29164, Note_on_c, 9, 37, 0
5, 29184, Note_on_c, 9, 44, 0
5, 29184, Note_on_c, 9, 51, 75
5, 29184, Note_on_c, 9, 36, 56
5, 29294, Note_on_c, 9, 36, 0
5, 29440, Note_on_c, 9, 51, 0
5, 29440, Note_on_c, 9, 51, 55
5, 29568, Note_on_c, 9, 51, 0
5, 29568, Note_on_c, 9, 44, 114
5, 29568, Note_on_c, 9, 51, 77
5, 29824, Note_on_c, 9, 51, 0
5, 29824, Note_on_c, 9, 53, 81
5, 29952, Note_on_c, 9, 53, 0
5, 29952, Note_on_c, 9, 44, 0
5, 29952, Note_on_c, 9, 51, 64
5, 30084, Note_on_c, 9, 38, 43
5, 30112, Note_on_c, 9, 38, 0
5, 30206, Note_on_c, 9, 37, 39
5, 30208, Note_on_c, 9, 51, 0
5, 30306, Note_on_c, 9, 37, 0
5, 30336, Note_on_c, 9, 44, 115
5, 30336, Note_on_c, 9, 51, 60
5, 30344, Note_on_c, 9, 36, 52
5, 30480, Note_on_c, 9, 36, 0
5, 30592, Note_on_c, 9, 51, 0
5, 30720, Note_on_c, 9, 44, 0
5, 30720, Note_on_c, 9, 51, 59
5, 30976, Note_on_c, 9, 51, 0
5, 31104, Note_on_c, 9, 44, 109
5, 31104, Note_on_c, 9, 51, 68
5, 31360, Note_on_c, 9, 51, 0
5, 31360, Note_on_c, 9, 51, 61
5, 31366, Note_on_c, 9, 36, 57
5, 31438, Note_on_c, 9, 36, 0
5, 31488, Note_on_c, 9, 51, 0
5, 31488, Note_on_c, 9, 44, 0
5, 31488, Note_on_c, 9, 51, 65
5, 31498, Note_on_c, 9, 36, 49
5, 31602, Note_on_c, 9, 36, 0
5, 31744, Note_on_c, 9, 51, 0
5, 31872, Note_on_c, 9, 44, 112
5, 31872, Note_on_c, 9, 51, 75
5, 32118, Note_on_c, 9, 36, 69
5, 32128, Note_on_c, 9, 51, 0
5, 32128, Note_on_c, 9, 51, 59
5, 32230, Note_on_c, 9, 36, 0
5, 32256, Note_on_c, 9, 51, 0
5, 32256, Note_on_c, 9, 44, 0
5, 32256, Note_on_c, 9, 51, 77
5, 32284, Note_on_c, 9, 36, 47
5, 32372, Note_on_c, 9, 36, 0
5, 32512, Note_on_c, 9, 51, 0
5, 32640, Note_on_c, 9, 44, 111
5, 32640, Note_on_c, 9, 51, 70
5, 32886, Note_on_c, 9, 36, 39
5, 32896, Note_on_c, 9, 51, 0
5, 32924, Note_on_c, 9, 36, 0
5, 33024, Note_on_c, 9, 44, 0
5, 33024, Note_on_c, 9, 51, 76
5, 33280, Note_on_c, 9, 51, 0
5, 33408, Note_on_c, 9, 44, 114
5, 33408, Note_on_c, 9, 51, 76
5, 33654, Note_on_c, 9, 36, 39
5, 33664, Note_on_c, 9, 51, 0
5, 33664, Note_on_c, 9, 51, 54
5, 33714, Note_on_c, 9, 36, 0
5, 33790, Note_on_c, 9, 36, 32
5, 33792, Note_on_c, 9, 51, 0
5, 33792, Note_on_c, 9, 44, 0
5, 33792, Note_on_c, 9, 51, 77
5, 33866, Note_on_c, 9, 36, 0
5, 34048, Note_on_c, 9, 51, 0
5, 34176, Note_on_c, 9, 44, 108
5, 34176, Note_on_c, 9, 51, 77
5, 34408, Note_on_c, 9, 36, 36
5, 34432, Note_on_c, 9, 51, 0
5, 34432, Note_on_c, 9, 51, 45
5, 34444, Note_on_c, 9, 36, 0
5, 34560, Note_on_c, 9, 51, 0
5, 34560, Note_on_c, 9, 44, 0
5, 34560, Note_on_c, 9, 51, 68
5, 34816, Note_on_c, 9, 51, 0
5, 34944, Note_on_c, 9, 44, 116
5, 34944, Note_on_c, 9, 51, 77
5, 35182, Note_on_c, 9, 36, 29
5, 35200, Note_on_c, 9, 51, 0
5, 35200, Note_on_c, 9, 51, 64
5, 35224, Note_on_c, 9, 36, 0
5, 35318, Note_on_c, 9, 36, 9
5, 35328, Note_on_c, 9, 51, 0
5, 35328, Note_on_c, 9, 44, 0
5, 35328, Note_on_c, 9, 51, 67
5, 35346, Note_on_c, 9, 36, 0
5, 35456, Note_on_c, 9, 51, 0
5, 35456, Note_on_c, 9, 51, 67
5, 35584, Note_on_c, 9, 51, 0
5, 35712, Note_on_c, 9, 44, 113
5, 35712, Note_on_c, 9, 51, 83
5, 35968, Note_on_c, 9, 51, 0
5, 35970, Note_on_c, 9, 36, 33
5, 36004, Note_on_c, 9, 36, 0
5, 36096, Note_on_c, 9, 44, 0
5, 36096, Note_on_c, 9, 51, 72
5, 36224, Note_on_c, 9, 51, 0
5, 36224, Note_on_c, 9, 51, 69
5, 36352, Note_on_c, 9, 51, 0
5, 36480, Note_on_c, 9, 44, 117
5, 36608, Note_on_c, 9, 51, 80
5, 36736, Note_on_c, 9, 51, 0
5, 36774, Note_on_c, 9, 36, 49
5, 36824, Note_on_c, 9, 36, 0
5, 36864, Note_on_c, 9, 44, 0
5, 36864, Note_on_c, 9, 51, 58
5, 36942, Note_on_c, 9, 36, 7
5, 36970, Note_on_c, 9, 36, 0
5, 36992, Note_on_c, 9, 51, 0
5, 36992, Note_on_c, 9, 51, 74
5, 37120, Note_on_c, 9, 51, 0
5, 37248, Note_on_c, 9, 44, 115
5, 37248, Note_on_c, 9, 51, 79
5, 37504, Note_on_c, 9, 51, 0
5, 37536, Note_on_c, 9, 36, 28
5, 37576, Note_on_c, 9, 36, 0
5, 37632, Note_on_c, 9, 44, 0
5, 37632, Note_on_c, 9, 51, 75
5, 37760, Note_on_c, 9, 51, 0
5, 37932, Note_on_c, 9, 38, 49
5, 37972, Note_on_c, 9, 38, 0
5, 38016, Note_on_c, 9, 44, 111
5, 38016, Note_on_c, 9, 51, 76
5, 38144, Note_on_c, 9, 51, 0
5, 38214, Note_on_c, 9, 38, 55
5, 38266, Note_on_c, 9, 38, 0
5, 38272, Note_on_c, 9, 51, 60
5, 38326, Note_on_c, 9, 38, 43
5, 38370, Note_on_c, 9, 38, 0
5, 38400, Note_on_c, 9, 51, 0
5, 38400, Note_on_c, 9, 44, 0
5, 38400, Note_on_c, 9, 51, 69
5, 38442, Note_on_c, 9, 36, 52
5, 38550, Note_on_c, 9, 36, 0
5, 38656, Note_on_c, 9, 51, 0
5, 38784, Note_on_c, 9, 44, 115
5, 38784, Note_on_c, 9, 51, 76
5, 39040, Note_on_c, 9, 51, 0
5, 39168, Note_on_c, 9, 44, 0
5, 39168, Note_on_c, 9, 51, 71
5, 39296, Note_on_c, 9, 51, 0
5, 39456, Note_on_c, 9, 36, 31
5, 39490, Note_on_c, 9, 36, 0
5, 39552, Note_on_c, 9, 46, 111
5, 39552, Note_on_c, 9, 51, 77
5, 39586, Note_on_c, 9, 36, 29
5, 39642, Note_on_c, 9, 36, 0
5, 39680, Note_on_c, 9, 51, 0
5, 39808, Note_on_c, 9, 51, 44
5, 39830, Note_on_c, 9, 36, 68
5, 39926, Note_on_c, 9, 36, 0
5, 39936, Note_on_c, 9, 51, 0
5, 39936, Note_on_c, 9, 46, 0
5, 39936, Note_on_c, 9, 51, 69
5, 40064, Note_on_c, 9, 51, 0
5, 40320, Note_on_c, 9, 44, 104
5, 40320, Note_on_c, 9, 51, 77
5, 40448, Note_on_c, 9, 51, 0
5, 40602, Note_on_c, 9, 36, 26
5, 40638, Note_on_c, 9, 36, 0
5, 40704, Note_on_c, 9, 44, 0
5, 40704, Note_on_c, 9, 51, 72
5, 40832, Note_on_c, 9, 51, 0
5, 41088, Note_on_c, 9, 44, 108
5, 41088, Note_on_c, 9, 51, 70
5, 41216, Note_on_c, 9, 51, 0
5, 41344, Note_on_c, 9, 51, 61
5, 41352, Note_on_c, 9, 37, 41
5, 41432, Note_on_c, 9, 37, 0
5, 41452, Note_on_c, 9, 57, 29
5, 41458, Note_on_c, 9, 36, 53
5, 41472, Note_on_c, 9, 51, 0
5, 41472, Note_on_c, 9, 44, 0
5, 41472, Note_on_c, 9, 51, 77
5, 41488, Note_on_c, 9, 57, 0
5, 41564, Note_on_c, 9, 36, 0
5, 41600, Note_on_c, 9, 51, 0
5, 41856, Note_on_c, 9, 44, 112
5, 41856, Note_on_c, 9, 51, 79
5, 41984, Note_on_c, 9, 51, 0
5, 42240, Note_on_c, 9, 44, 0
5, 42240, Note_on_c, 9, 51, 52
5, 42240, Note_on_c, 9, 51, 71
5, 42368, Note_on_c, 9, 51, 0
5, 42496, Note_on_c, 9, 51, 0
5, 42526, Note_on_c, 9, 37, 49
5, 42608, Note_on_c, 9, 37, 0
5, 42624, Note_on_c, 9, 44, 117
5, 42624, Note_on_c, 9, 51, 80
5, 42652, Note_on_c, 9, 57, 59
5, 42658, Note_on_c, 9, 36, 56
5, 42718, Note_on_c, 9, 57, 0
5, 42752, Note_on_c, 9, 51, 0
5, 42816, Note_on_c, 9, 36, 0
5, 43008, Note_on_c, 9, 44, 0
5, 43008, Note_on_c, 9, 51, 67
5, 43264, Note_on_c, 9, 51, 0
5, 43392, Note_on_c, 9, 44, 114
5, 43392, Note_on_c, 9, 51, 73
5, 43520, Note_on_c, 9, 51, 0
5, 43648, Note_on_c, 9, 51, 64
5, 43670, Note_on_c, 9, 36, 41
5, 43698, Note_on_c, 9, 36, 0
5, 43776, Note_on_c, 9, 51, 0
5, 43776, Note_on_c, 9, 44, 0
5, 43776, Note_on_c, 9, 51, 69
5, 43794, Note_on_c, 9, 36, 34
5, 43866, Note_on_c, 9, 36, 0
5, 44032, Note_on_c, 9, 51, 0
5, 44160, Note_on_c, 9, 44, 115
5, 44160, Note_on_c, 9, 51, 81
5, 44288, Note_on_c, 9, 51, 0
5, 44414, Note_on_c, 9, 36, 56
5, 44416, Note_on_c, 9, 51, 49
5, 44482, Note_on_c, 9, 36, 0
5, 44544, Note_on_c, 9, 51, 0
5, 44544, Note_on_c, 9, 44, 0
5, 44544, Note_on_c, 9, 51, 67
5, 44556, Note_on_c, 9, 36, 35
5, 44612, Note_on_c, 9, 36, 0
5, 44800, Note_on_c, 9, 51, 0
5, 44928, Note_on_c, 9, 44, 109
5, 44928, Note_on_c, 9, 51, 74
5, 45184, Note_on_c, 9, 51, 0
5, 45312, Note_on_c, 9, 44, 0
5, 45312, Note_on_c, 9, 51, 71
5, 45568, Note_on_c, 9, 51, 0
5, 45696, Note_on_c, 9, 44, 112
5, 45696, Note_on_c, 9, 51, 72
5, 45750, Note_on_c, 9, 38, 4
5, 45788, Note_on_c, 9, 38, 0
5, 45952, Note_on_c, 9, 51, 0
5, 45952, Note_on_c, 9, 51, 40
5, 46080, Note_on_c, 9, 51, 0
5, 46080, Note_on_c, 9, 44, 0
5, 46080, Note_on_c, 9, 51, 69
5, 46336, Note_on_c, 9, 51, 0
5, 46464, Note_on_c, 9, 44, 111
5, 46464, Note_on_c, 9, 51, 77
5, 46720, Note_on_c, 9, 51, 0
5, 46722, Note_on_c, 9, 38, 32
5, 46752, Note_on_c, 9, 38, 0
5, 46848, Note_on_c, 9, 44, 0
5, 46848, Note_on_c, 9, 51, 74
5, 46868, Note_on_c, 9, 38, 23
5, 46906, Note_on_c, 9, 38, 0
5, 47104, Note_on_c, 9, 51, 0
5, 47104, Note_on_c, 9, 51, 52
5, 47124, Note_on_c, 9, 38, 36
5, 47154, Note_on_c, 9, 38, 0
5, 47232, Note_on_c, 9, 51, 0
5, 47232, Note_on_c, 9, 44, 114
5, 47232, Note_on_c, 9, 51, 82
5, 47488, Note_on_c, 9, 51, 0
5, 47504, Note_on_c, 9, 38, 47
5, 47556, Note_on_c, 9, 38, 0
5, 47616, Note_on_c, 9, 44, 0
5, 47616, Note_on_c, 9, 51, 77
5, 47672, Note_on_c, 9, 38, 42
5, 47708, Note_on_c, 9, 38, 0
5, 47872, Note_on_c, 9, 51, 0
5, 47906, Note_on_c, 9, 38, 48
5, 47940, Note_on_c, 9, 38, 0
5, 48000, Note_on_c, 9, 44, 108
5, 48000, Note_on_c, 9, 51, 74
5, 48256, Note_on_c, 9, 51, 0
5, 48256, Note_on_c, 9, 51, 55
5, 48384, Note_on_c, 9, 51, 0
5, 48384, Note_on_c, 9, 44, 0
5, 48384, Note_on_c, 9, 51, 73
5, 48640, Note_on_c, 9, 51, 0
5, 48768, Note_on_c, 9, 44, 116
5, 48768, Note_on_c, 9, 51, 74
5, 49024, Note_on_c, 9, 51, 0
5, 49024, Note_on_c, 9, 51, 52
5, 49152, Note_on_c, 9, 51, 0
5, 49152, Note_on_c, 9, 44, 0
5, 49152, Note_on_c, 9, 51, 65
5, 49408, Note_on_c, 9, 51, 0
5, 49536, Note_on_c, 9, 44, 113
5, 49536, Note_on_c, 9, 51, 62
5, 49792, Note_on_c, 9, 51, 0
5, 49800, Note_on_c, 9, 37, 40
5, 49912, Note_on_c, 9, 37, 0
5, 49920, Note_on_c, 9, 44, 0
5, 49920, Note_on_c, 9, 51, 45
5, 49932, Note_on_c, 9, 36, 20
5, 49970, Note_on_c, 9, 36, 0
5, 50048, Note_on_c, 9, 51, 0
5, 50048, Note_on_c, 9, 51, 50
5, 50176, Note_on_c, 9, 51, 0
5, 50178, Note_on_c, 9, 36, 42
5, 50292, Note_on_c, 9, 36, 0
5, 50304, Note_on_c, 9, 44, 117
5, 50304, Note_on_c, 9, 51, 77
5, 50560, Note_on_c, 9, 51, 0
5, 50570, Note_on_c, 9, 37, 52
5, 50666, Note_on_c, 9, 37, 0
5, 50688, Note_on_c, 9, 44, 0
5, 50688, Note_on_c, 9, 51, 63
5, 50726, Note_on_c, 9, 36, 23
5, 50770, Note_on_c, 9, 36, 0
5, 50816, Note_on_c, 9, 51, 0
5, 51072, Note_on_c, 9, 44, 115
5, 51072, Note_on_c, 9, 51, 72
5, 51200, Note_on_c, 9, 51, 0
5, 51344, Note_on_c, 9, 36, 19
5, 51380, Note_on_c, 9, 36, 0
5, 51450, Note_on_c, 9, 38, 16
5, 51456, Note_on_c, 9, 44, 0
5, 51456, Note_on_c, 9, 51, 63
5, 51578, Note_on_c, 9, 38, 0
5, 51584, Note_on_c, 9, 51, 0
5, 51696, Note_on_c, 9, 38, 24
5, 51730, Note_on_c, 9, 38, 0
5, 51840, Note_on_c, 9, 44, 111
5, 51840, Note_on_c, 9, 51, 70
5, 51968, Note_on_c, 9, 51, 0
5, 52096, Note_on_c, 9, 51, 49
5, 52108, Note_on_c, 9, 36, 43
5, 52136, Note_on_c, 9, 36, 0
5, 52224, Note_on_c, 9, 51, 0
5, 52224, Note_on_c, 9, 44, 0
5, 52224, Note_on_c, 9, 51, 64
5, 52480, Note_on_c, 9, 51, 0
5, 52608, Note_on_c, 9, 44, 115
5, 52608, Note_on_c, 9, 51, 71
5, 52864, Note_on_c, 9, 51, 0
5, 52912, Note_on_c, 9, 36, 34
5, 52948, Note_on_c, 9, 36, 0
5, 52992, Note_on_c, 9, 44, 0
5, 52992, Note_on_c, 9, 51, 64
5, 53022, Note_on_c, 9, 36, 28
5, 53076, Note_on_c, 9, 36, 0
5, 53120, Note_on_c, 9, 51, 0
5, 53376, Note_on_c, 9, 46, 111
5, 53376, Note_on_c, 9, 51, 65
5, 53504, Note_on_c, 9, 51, 0
5, 53632, Note_on_c, 9, 51, 46
5, 53654, Note_on_c, 9, 36, 43
5, 53684, Note_on_c, 9, 36, 0
5, 53760, Note_on_c, 9, 51, 0
5, 53760, Note_on_c, 9, 46, 0
5, 53760, Note_on_c, 9, 51, 61
5, 54016, Note_on_c, 9, 51, 0
5, 54144, Note_on_c, 9, 44, 104
5, 54144, Note_on_c, 9, 51, 69
5, 54272, Note_on_c, 9, 51, 0
5, 54464, Note_on_c, 9, 36, 46
5, 54494, Note_on_c, 9, 36, 0
5, 54528, Note_on_c, 9, 44, 0
5, 54528, Note_on_c, 9, 51, 75
5, 54578, Note_on_c, 9, 36, 31
5, 54636, Note_on_c, 9, 36, 0
5, 54656, Note_on_c, 9, 51, 0
5, 54912, Note_on_c, 9, 44, 108
5, 54912, Note_on_c, 9, 51, 77
5, 55040, Note_on_c, 9, 51, 0
5, 55168, Note_on_c, 9, 51, 55
5, 55182, Note_on_c, 9, 36, 52
5, 55240, Note_on_c, 9, 36, 0
5, 55296, Note_on_c, 9, 51, 0
5, 55296, Note_on_c, 9, 44, 0
5, 55296, Note_on_c, 9, 51, 64
5, 55552, Note_on_c, 9, 51, 0
5, 55680, Note_on_c, 9, 44, 112
5, 55680, Note_on_c, 9, 51, 76
5, 55808, Note_on_c, 9, 51, 0
5, 55936, Note_on_c, 9, 51, 55
5, 56064, Note_on_c, 9, 51, 0
5, 56064, Note_on_c, 9, 44, 0
5, 56064, Note_on_c, 9, 51, 70
5, 56192, Note_on_c, 9, 51, 0
5, 56448, Note_on_c, 9, 44, 117
5, 56448, Note_on_c, 9, 51, 78
5, 56576, Note_on_c, 9, 51, 0
5, 56726, Note_on_c, 9, 37, 72
5, 56776, Note_on_c, 9, 57, 65
5, 56830, Note_on_c, 9, 57, 0
5, 56832, Note_on_c, 9, 44, 0
5, 56832, Note_on_c, 9, 51, 69
5, 56878, Note_on_c, 9, 36, 77
5, 56920, Note_on_c, 9, 37, 0
5, 56960, Note_on_c, 9, 51, 0
5, 57088, Note_on_c, 9, 53, 80
5, 57182, Note_on_c, 9, 36, 0
5, 57216, Note_on_c, 9, 53, 0
5, 57216, Note_on_c, 9, 44, 114
5, 57216, Note_on_c, 9, 51, 39
5, 57472, Note_on_c, 9, 51, 0
5, 57522, Note_on_c, 9, 36, 55
5, 57552, Note_on_c, 9, 36, 0
5, 57600, Note_on_c, 9, 44, 0
5, 57600, Note_on_c, 9, 51, 74
5, 57648, Note_on_c, 9, 36, 30
5, 57682, Note_on_c, 9, 36, 0
5, 57728, Note_on_c, 9, 51, 0
5, 57984, Note_on_c, 9, 44, 115
5, 57984, Note_on_c, 9, 51, 72
5, 58112, Note_on_c, 9, 51, 0
5, 58258, Note_on_c, 9, 36, 42
5, 58286, Note_on_c, 9, 36, 0
5, 58368, Note_on_c, 9, 44, 0
5, 58368, Note_on_c, 9, 51, 73
5, 58496, Note_on_c, 9, 51, 0
5, 58752, Note_on_c, 9, 44, 109
5, 58752, Note_on_c, 9, 51, 79
5, 58880, Note_on_c, 9, 51, 0
5, 59008, Note_on_c, 9, 51, 53
5, 59136, Note_on_c, 9, 51, 0
5, 59136, Note_on_c, 9, 44, 0
5, 59136, Note_on_c, 9, 51, 64
5, 59392, Note_on_c, 9, 51, 0
5, 59514, Note_on_c, 9, 37, 78
5, 59520, Note_on_c, 9, 44, 112
5, 59520, Note_on_c, 9, 51, 79
5, 59638, Note_on_c, 9, 37, 0
5, 59648, Note_on_c, 9, 51, 0
5, 59776, Note_on_c, 9, 51, 50
5, 59904, Note_on_c, 9, 51, 0
5, 59904, Note_on_c, 9, 44, 0
5, 59904, Note_on_c, 9, 51, 75
5, 60160, Note_on_c, 9, 51, 0
5, 60288, Note_on_c, 9, 44, 111
5, 60288, Note_on_c, 9, 51, 80
5, 60544, Note_on_c, 9, 51, 0
5, 60544, Note_on_c, 9, 51, 51
5, 60562, Note_on_c, 9, 36, 21
5, 60600, Note_on_c, 9, 36, 0
5, 60672, Note_on_c, 9, 51, 0
5, 60672, Note_on_c, 9, 44, 0
5, 60672, Note_on_c, 9, 51, 67
5, 60928, Note_on_c, 9, 51, 0
5, 61048, Note_on_c, 9, 37, 43
5, 61056, Note_on_c, 9, 44, 114
5, 61056, Note_on_c, 9, 51, 81
5, 61118, Note_on_c, 9, 37, 0
5, 61312, Note_on_c, 9, 51, 0
5, 61440, Note_on_c, 9, 44, 0
5, 61440, Note_on_c, 9, 51, 50
5, 61440, Note_on_c, 9, 51, 64
5, 61568, Note_on_c, 9, 51, 0
5, 61696, Note_on_c, 9, 51, 0
5, 61824, Note_on_c, 9, 44, 108
5, 61824, Note_on_c, 9, 51, 75
5, 62080, Note_on_c, 9, 51, 0
5, 62208, Note_on_c, 9, 44, 0
5, 62208, Note_on_c, 9, 51, 76
5, 62464, Note_on_c, 9, 51, 0
5, 62492, Note_on_c, 9, 36, 9
5, 62520, Note_on_c, 9, 36, 0
5, 62580, Note_on_c, 9, 37, 72
5, 62592, Note_on_c, 9, 44, 116
5, 62592, Note_on_c, 9, 51, 76
5, 62720, Note_on_c, 9, 51, 0
5, 62784, Note_on_c, 9, 37, 0
5, 62842, Note_on_c, 9, 37, 40
5, 62906, Note_on_c, 9, 37, 0
5, 62976, Note_on_c, 9, 44, 0
5, 62976, Note_on_c, 9, 51, 38
5, 62976, Note_on_c, 9, 51, 64
5, 63104, Note_on_c, 9, 51, 0
5, 63232, Note_on_c, 9, 51, 0
5, 63360, Note_on_c, 9, 44, 113
5, 63360, Note_on_c, 9, 51, 72
5, 63372, Note_on_c, 9, 36, 42
5, 63416, Note_on_c, 9, 36, 0
5, 63488, Note_on_c, 9, 51, 0
5, 63488, Note_on_c, 9, 51, 74
5, 63616, Note_on_c, 9, 51, 0
5, 63744, Note_on_c, 9, 44, 0
5, 63744, Note_on_c, 9, 51, 78
5, 64000, Note_on_c, 9, 51, 0
5, 64128, Note_on_c, 9, 44, 117
5, 64128, Note_on_c, 9, 51, 75
5, 64256, Note_on_c, 9, 51, 0
5, 64398, Note_on_c, 9, 36, 29
5, 64432, Note_on_c, 9, 36, 0
5, 64504, Note_on_c, 9, 36, 36
5, 64512, Note_on_c, 9, 44, 0
5, 64512, Note_on_c, 9, 51, 67
5, 64566, Note_on_c, 9, 36, 0
5, 64640, Note_on_c, 9, 51, 0
5, 64896, Note_on_c, 9, 44, 115
5, 64896, Note_on_c, 9, 51, 71
5, 65024, Note_on_c, 9, 51, 0
5, 65152, Note_on_c, 9, 51, 51
5, 65172, Note_on_c, 9, 36, 33
5, 65206, Note_on_c, 9, 36, 0
5, 65280, Note_on_c, 9, 51, 0
5, 65280, Note_on_c, 9, 44, 0
5, 65280, Note_on_c, 9, 51, 75
5, 65536, Note_on_c, 9, 51, 0
5, 65664, Note_on_c, 9, 44, 111
5, 65664, Note_on_c, 9, 51, 71
5, 65792, Note_on_c, 9, 51, 0
5, 65946, Note_on_c, 9, 36, 10
5, 65976, Note_on_c, 9, 36, 0
5, 66048, Note_on_c, 9, 44, 0
5, 66048, Note_on_c, 9, 51, 74
5, 66176, Note_on_c, 9, 51, 0
5, 66432, Note_on_c, 9, 44, 115
5, 66432, Note_on_c, 9, 51, 72
5, 66560, Note_on_c, 9, 51, 0
5, 66816, Note_on_c, 9, 44, 0
5, 66816, Note_on_c, 9, 51, 74
5, 66944, Note_on_c, 9, 51, 0
5, 67200, Note_on_c, 9, 46, 111
5, 67200, Note_on_c, 9, 51, 76
5, 67328, Note_on_c, 9, 51, 0
5, 67456, Note_on_c, 9, 51, 74
5, 67486, Note_on_c, 9, 36, 20
5, 67524, Note_on_c, 9, 36, 0
5, 67584, Note_on_c, 9, 51, 0
5, 67584, Note_on_c, 9, 46, 0
5, 67584, Note_on_c, 9, 51, 74
5, 67596, Note_on_c, 9, 36, 21
5, 67674, Note_on_c, 9, 36, 0
5, 67712, Note_on_c, 9, 51, 0
5, 67968, Note_on_c, 9, 44, 104
5, 67968, Note_on_c, 9, 51, 74
5, 68096, Note_on_c, 9, 51, 0
5, 68224, Note_on_c, 9, 51, 69
5, 68244, Note_on_c, 9, 36, 44
5, 68276, Note_on_c, 9, 36, 0
5, 68352, Note_on_c, 9, 51, 0
5, 68352, Note_on_c, 9, 44, 0
5, 68352, Note_on_c, 9, 51, 83
5, 68480, Note_on_c, 9, 51, 0
5, 68736, Note_on_c, 9, 44, 108
5, 68736, Note_on_c, 9, 51, 75
5, 68864, Note_on_c, 9, 51, 0
5, 68992, Note_on_c, 9, 51, 74
5, 69120, Note_on_c, 9, 51, 0
5, 69120, Note_on_c, 9, 44, 0
5, 69120, Note_on_c, 9, 59, 87
5, 69376, Note_on_c, 9, 59, 0
5, 69504, Note_on_c, 9, 44, 112
5, 69504, Note_on_c, 9, 59, 85
5, 69760, Note_on_c, 9, 59, 0
5, 69888, Note_on_c, 9, 44, 0
5, 69888, Note_on_c, 9, 59, 80
5, 70144, Note_on_c, 9, 59, 0
5, 70158, Note_on_c, 9, 38, 45
5, 70196, Note_on_c, 9, 38, 0
5, 70272, Note_on_c, 9, 44, 117
5, 70272, Note_on_c, 9, 59, 73
5, 70272, Note_on_c, 9, 36, 32
5, 70340, Note_on_c, 9, 36, 0
5, 70528, Note_on_c, 9, 59, 0
5, 70528, Note_on_c, 9, 59, 57
5, 70542, Note_on_c, 9, 38, 46
5, 70602, Note_on_c, 9, 38, 0
5, 70656, Note_on_c, 9, 59, 0
5, 70656, Note_on_c, 9, 44, 0
5, 70656, Note_on_c, 9, 59, 81
5, 70668, Note_on_c, 9, 36, 22
5, 70766, Note_on_c, 9, 36, 0
5, 70912, Note_on_c, 9, 59, 0
5, 71040, Note_on_c, 9, 44, 114
5, 71040, Note_on_c, 9, 59, 89
5, 71296, Note_on_c, 9, 59, 0
5, 71296, Note_on_c, 9, 59, 60
5, 71318, Note_on_c, 9, 36, 38
5, 71350, Note_on_c, 9, 36, 0
5, 71424, Note_on_c, 9, 59, 0
5, 71424, Note_on_c, 9, 44, 0
5, 71424, Note_on_c, 9, 59, 62
5, 71448, Note_on_c, 9, 36, 15
5, 71536, Note_on_c, 9, 36, 0
5, 71680, Note_on_c, 9, 59, 0
5, 71680, Note_on_c, 9, 53, 82
5, 71808, Note_on_c, 9, 53, 0
5, 71808, Note_on_c, 9, 44, 115
5, 71808, Note_on_c, 9, 59, 63
5, 72044, Note_on_c, 9, 36, 35
5, 72064, Note_on_c, 9, 59, 0
5, 72078, Note_on_c, 9, 36, 0
5, 72162, Note_on_c, 9, 36, 23
5, 72192, Note_on_c, 9, 44, 0
5, 72192, Note_on_c, 9, 59, 75
5, 72220, Note_on_c, 9, 36, 0
5, 72320, Note_on_c, 9, 59, 0
5, 72576, Note_on_c, 9, 44, 109
5, 72576, Note_on_c, 9, 59, 77
5, 72704, Note_on_c, 9, 59, 0
5, 72832, Note_on_c, 9, 59, 53
5, 72960, Note_on_c, 9, 59, 0
5, 72960, Note_on_c, 9, 44, 0
5, 72960, Note_on_c, 9, 59, 69
5, 73216, Note_on_c, 9, 59, 0
5, 73344, Note_on_c, 9, 44, 112
5, 73344, Note_on_c, 9, 59, 88
5, 73600, Note_on_c, 9, 59, 0
5, 73600, Note_on_c, 9, 59, 59
5, 73728, Note_on_c, 9, 59, 0
5, 73728, Note_on_c, 9, 44, 0
5, 73728, Note_on_c, 9, 59, 72
5, 73984, Note_on_c, 9, 59, 0
5, 74112, Note_on_c, 9, 44, 111
5, 74112, Note_on_c, 9, 59, 85
5, 74368, Note_on_c, 9, 59, 0
5, 74368, Note_on_c, 9, 59, 43
5, 74496, Note_on_c, 9, 59, 0
5, 74496, Note_on_c, 9, 44, 0
5, 74496, Note_on_c, 9, 59, 82
5, 74512, Note_on_c, 9, 37, 29
5, 74548, Note_on_c, 9, 37, 0
5, 74624, Note_on_c, 9, 59, 0
5, 74880, Note_on_c, 9, 44, 114
5, 74880, Note_on_c, 9, 59, 87
5, 74892, Note_on_c, 9, 37, 57
5, 74948, Note_on_c, 9, 37, 0
5, 75136, Note_on_c, 9, 59, 0
5, 75182, Note_on_c, 9, 37, 76
5, 75236, Note_on_c, 9, 37, 0
5, 75264, Note_on_c, 9, 44, 0
5, 75264, Note_on_c, 9, 59, 80
5, 75284, Note_on_c, 9, 36, 1
5, 75422, Note_on_c, 9, 36, 0
5, 75520, Note_on_c, 9, 59, 0
5, 75648, Note_on_c, 9, 44, 108
5, 75648, Note_on_c, 9, 59, 83
5, 75904, Note_on_c, 9, 59, 0
5, 76032, Note_on_c, 9, 44, 0
5, 76032, Note_on_c, 9, 59, 44
5, 76160, Note_on_c, 9, 59, 0
5, 76160, Note_on_c, 9, 59, 76
5, 76288, Note_on_c, 9, 59, 0
5, 76416, Note_on_c, 9, 44, 116
5, 76416, Note_on_c, 9, 59, 80
5, 76416, Note_on_c, 9, 57, 50
5, 76544, Note_on_c, 9, 57, 0
5, 76672, Note_on_c, 9, 59, 0
5, 76690, Note_on_c, 9, 38, 46
5, 76758, Note_on_c, 9, 38, 0
5, 76800, Note_on_c, 9, 44, 0
5, 76800, Note_on_c, 9, 59, 68
5, 76928, Note_on_c, 9, 59, 0
5, 77184, Note_on_c, 9, 44, 113
5, 77184, Note_on_c, 9, 59, 77
5, 77312, Note_on_c, 9, 59, 0
5, 77440, Note_on_c, 9, 59, 55
5, 77568, Note_on_c, 9, 59, 0
5, 77568, Note_on_c, 9, 44, 0
5, 77568, Note_on_c, 9, 59, 74
5, 77824, Note_on_c, 9, 59, 0
5, 77838, Note_on_c, 9, 37, 54
5, 77932, Note_on_c, 9, 37, 0
5, 77952, Note_on_c, 9, 44, 117
5, 77952, Note_on_c, 9, 59, 79
5, 77980, Note_on_c, 9, 36, 25
5, 78080, Note_on_c, 9, 59, 0
5, 78098, Note_on_c, 9, 36, 0
5, 78208, Note_on_c, 9, 59, 60
5, 78220, Note_on_c, 9, 36, 43
5, 78304, Note_on_c, 9, 36, 0
5, 78336, Note_on_c, 9, 59, 0
5, 78336, Note_on_c, 9, 44, 0
5, 78336, Note_on_c, 9, 59, 77
5, 78592, Note_on_c, 9, 59, 0
5, 78720, Note_on_c, 9, 44, 115
5, 78720, Note_on_c, 9, 59, 77
5, 78976, Note_on_c, 9, 59, 0
5, 78976, Note_on_c, 9, 59, 38
5, 79104, Note_on_c, 9, 59, 0
5, 79104, Note_on_c, 9, 44, 0
5, 79104, Note_on_c, 9, 59, 74
5, 79188, Note_on_c, 9, 38, 33
5, 79226, Note_on_c, 9, 38, 0
5, 79360, Note_on_c, 9, 59, 0
5, 79488, Note_on_c, 9, 44, 111
5, 79488, Note_on_c, 9, 59, 74
5, 79490, Note_on_c, 9, 38, 46
5, 79526, Note_on_c, 9, 38, 0
5, 79616, Note_on_c, 9, 59, 0
5, 79744, Note_on_c, 9, 59, 53
5, 79752, Note_on_c, 9, 38, 40
5, 79782, Note_on_c, 9, 38, 0
5, 79872, Note_on_c, 9, 59, 0
5, 79872, Note_on_c, 9, 44, 0
5, 79872, Note_on_c, 9, 59, 75
5, 79986, Note_on_c, 9, 38, 48
5, 80000, Note_on_c, 9, 59, 0
5, 80028, Note_on_c, 9, 38, 0
5, 80128, Note_on_c, 9, 59, 81
5, 80128, Note_on_c, 9, 57, 74
5, 80256, Note_on_c, 9, 57, 0
5, 80256, Note_on_c, 9, 59, 0
5, 80256, Note_on_c, 9, 44, 115
5, 80276, Note_on_c, 9, 38, 34
5, 80286, Note_on_c, 9, 41, 35
5, 80314, Note_on_c, 9, 41, 0
5, 80328, Note_on_c, 9, 38, 0
5, 80526, Note_on_c, 9, 38, 59
5, 80592, Note_on_c, 9, 38, 0
5, 80640, Note_on_c, 9, 44, 0
5, 80640, Note_on_c, 9, 59, 80
5, 80768, Note_on_c, 9, 59, 0
5, 80788, Note_on_c, 9, 38, 56
5, 80852, Note_on_c, 9, 38, 0
5, 80994, Note_on_c, 9, 38, 54
5, 81024, Note_on_c, 9, 46, 111
5, 81024, Note_on_c, 9, 59, 76
5, 81042, Note_on_c, 9, 38, 0
5, 81152, Note_on_c, 9, 59, 0
5, 81250, Note_on_c, 9, 37, 65
5, 81280, Note_on_c, 9, 59, 57
5, 81356, Note_on_c, 9, 57, 75
5, 81378, Note_on_c, 9, 36, 69
5, 81394, Note_on_c, 9, 37, 0
5, 81408, Note_on_c, 9, 46, 0
5, 81408, Note_on_c, 9, 59, 0
5, 81408, Note_on_c, 9, 59, 73
5, 81462, Note_on_c, 9, 57, 0
5, 81664, Note_on_c, 9, 59, 0
5, 81678, Note_on_c, 9, 36, 0
5, 81792, Note_on_c, 9, 44, 104
5, 81792, Note_on_c, 9, 59, 83
5, 81920, Note_on_c, 9, 59, 0
5, 82048, Note_on_c, 9, 59, 42
5, 82176, Note_on_c, 9, 59, 0
5, 82176, Note_on_c, 9, 44, 0
5, 82176, Note_on_c, 9, 59, 78
5, 82432, Note_on_c, 9, 59, 0
5, 82560, Note_on_c, 9, 44, 108
5, 82560, Note_on_c, 9, 59, 77
5, 82688, Note_on_c, 9, 59, 0
5, 82816, Note_on_c, 9, 59, 55
5, 82826, Note_on_c, 9, 36, 39
5, 82860, Note_on_c, 9, 36, 0
5, 82944, Note_on_c, 9, 59, 0
5, 82944, Note_on_c, 9, 44, 0
5, 82944, Note_on_c, 9, 59, 78
5, 82968, Note_on_c, 9, 36, 43
5, 83022, Note_on_c, 9, 36, 0
5, 83200, Note_on_c, 9, 59, 0
5, 83328, Note_on_c, 9, 44, 112
5, 83328, Note_on_c, 9, 59, 75
5, 83584, Note_on_c, 9, 59, 0
5, 83618, Note_on_c, 9, 36, 39
5, 83648, Note_on_c, 9, 36, 0
5, 83712, Note_on_c, 9, 44, 0
5, 83712, Note_on_c, 9, 59, 76
5, 83968, Note_on_c, 9, 59, 0
5, 84096, Note_on_c, 9, 44, 117
5, 84096, Note_on_c, 9, 59, 73
5, 84224, Note_on_c, 9, 59, 0
5, 84352, Note_on_c, 9, 59, 49
5, 84360, Note_on_c, 9, 37, 47
5, 84456, Note_on_c, 9, 37, 0
5, 84480, Note_on_c, 9, 59, 0
5, 84480, Note_on_c, 9, 44, 0
5, 84480, Note_on_c, 9, 59, 77
5, 84500, Note_on_c, 9, 36, 19
5, 84672, Note_on_c, 9, 36, 0
5, 84736, Note_on_c, 9, 59, 0
5, 84864, Note_on_c, 9, 44, 114
5, 84864, Note_on_c, 9, 59, 80
5, 84992, Note_on_c, 9, 59, 0
5, 85120, Note_on_c, 9, 59, 53
5, 85248, Note_on_c, 9, 59, 0
5, 85248, Note_on_c, 9, 44, 0
5, 85248, Note_on_c, 9, 59, 67
5, 85504, Note_on_c, 9, 59, 0
5, 85632, Note_on_c, 9, 44, 115
5, 85632, Note_on_c, 9, 59, 88
5, 85888, Note_on_c, 9, 59, 0
5, 85890, Note_on_c, 9, 38, 32
5, 85918, Note_on_c, 9, 38, 0
5, 86016, Note_on_c, 9, 44, 0
5, 86016, Note_on_c, 9, 59, 49
5, 86144, Note_on_c, 9, 59, 0
5, 86258, Note_on_c, 9, 38, 37
5, 86288, Note_on_c, 9, 38, 0
5, 86400, Note_on_c, 9, 44, 109
5, 86400, Note_on_c, 9, 59, 90
5, 86656, Note_on_c, 9, 59, 0
5, 86656, Note_on_c, 9, 38, 28
5, 86688, Note_on_c, 9, 38, 0
5, 86784, Note_on_c, 9, 44, 0
5, 86784, Note_on_c, 9, 59, 61
5, 86912, Note_on_c, 9, 59, 0
5, 87040, Note_on_c, 9, 59, 55
5, 87042, Note_on_c, 9, 38, 30
5, 87076, Note_on_c, 9, 38, 0
5, 87168, Note_on_c, 9, 59, 0
5, 87168, Note_on_c, 9, 44, 112
5, 87168, Note_on_c, 9, 59, 73
5, 87390, Note_on_c, 9, 38, 31
5, 87420, Note_on_c, 9, 38, 0
5, 87424, Note_on_c, 9, 59, 0
5, 87432, Note_on_c, 9, 37, 59
5, 87552, Note_on_c, 9, 44, 0
5, 87556, Note_on_c, 9, 37, 0
5, 87568, Note_on_c, 9, 36, 36
5, 87680, Note_on_c, 9, 59, 63
5, 87758, Note_on_c, 9, 36, 0
5, 87808, Note_on_c, 9, 59, 0
5, 87808, Note_on_c, 9, 59, 57
5, 87936, Note_on_c, 9, 59, 0
5, 87936, Note_on_c, 9, 44, 111
5, 87936, Note_on_c, 9, 59, 80
5, 88164, Note_on_c, 9, 36, 49
5, 88192, Note_on_c, 9, 59, 0
5, 88210, Note_on_c, 9, 36, 0
5, 88312, Note_on_c, 9, 36, 26
5, 88320, Note_on_c, 9, 44, 0
5, 88320, Note_on_c, 9, 59, 49
5, 88366, Note_on_c, 9, 36, 0
5, 88448, Note_on_c, 9, 59, 0
5, 88576, Note_on_c, 9, 59, 64
5, 88704, Note_on_c, 9, 59, 0
5, 88704, Note_on_c, 9, 44, 114
5, 88704, Note_on_c, 9, 59, 82
5, 88960, Note_on_c, 9, 59, 0
5, 88972, Note_on_c, 9, 36, 29
5, 89004, Note_on_c, 9, 36, 0
5, 89088, Note_on_c, 9, 44, 0
5, 89088, Note_on_c, 9, 59, 46
5, 89216, Note_on_c, 9, 59, 0
5, 89344, Note_on_c, 9, 59, 44
5, 89472, Note_on_c, 9, 59, 0
5, 89472, Note_on_c, 9, 44, 108
5, 89472, Note_on_c, 9, 59, 82
5, 89728, Note_on_c, 9, 59, 0
5, 89856, Note_on_c, 9, 44, 0
5, 89856, Note_on_c, 9, 59, 62
5, 89984, Note_on_c, 9, 59, 0
5, 90112, Note_on_c, 9, 53, 80
5, 90142, Note_on_c, 9, 38, 36
5, 90170, Note_on_c, 9, 38, 0
5, 90238, Note_on_c, 9, 36, 32
5, 90240, Note_on_c, 9, 53, 0
5, 90240, Note_on_c, 9, 44, 116
5, 90240, Note_on_c, 9, 59, 74
5, 90364, Note_on_c, 9, 36, 0
5, 90496, Note_on_c, 9, 59, 0
5, 90624, Note_on_c, 9, 44, 0
5, 90624, Note_on_c, 9, 59, 66
5, 90752, Note_on_c, 9, 59, 0
5, 90876, Note_on_c, 9, 38, 42
5, 90904, Note_on_c, 9, 38, 0
5, 90982, Note_on_c, 9, 36, 37
5, 91008, Note_on_c, 9, 44, 113
5, 91008, Note_on_c, 9, 59, 74
5, 91012, Note_on_c, 9, 36, 0
5, 91136, Note_on_c, 9, 59, 0
5, 91264, Note_on_c, 9, 59, 57
5, 91392, Note_on_c, 9, 59, 0
5, 91392, Note_on_c, 9, 44, 0
5, 91392, Note_on_c, 9, 59, 67
5, 91520, Note_on_c, 9, 59, 0
5, 91648, Note_on_c, 9, 53, 92
5, 91776, Note_on_c, 9, 53, 0
5, 91776, Note_on_c, 9, 44, 117
5, 91776, Note_on_c, 9, 59, 50
5, 91904, Note_on_c, 9, 59, 0
5, 92160, Note_on_c, 9, 44, 0
5, 92160, Note_on_c, 9, 59, 68
5, 92288, Note_on_c, 9, 59, 0
5, 92544, Note_on_c, 9, 44, 115
5, 92544, Note_on_c, 9, 59, 74
5, 92672, Note_on_c, 9, 59, 0
5, 92824, Note_on_c, 9, 36, 36
5, 92858, Note_on_c, 9, 36, 0
5, 92928, Note_on_c, 9, 44, 0
5, 92928, Note_on_c, 9, 59, 67
5, 92938, Note_on_c, 9, 36, 36
5, 93018, Note_on_c, 9, 36, 0
5, 93056, Note_on_c, 9, 59, 0
5, 93184, Note_on_c, 9, 53, 80
5, 93312, Note_on_c, 9, 53, 0
5, 93312, Note_on_c, 9, 44, 111
5, 93312, Note_on_c, 9, 59, 57
5, 93440, Note_on_c, 9, 59, 0
5, 93566, Note_on_c, 9, 36, 39
5, 93568, Note_on_c, 9, 59, 92
5, 93568, Note_on_c, 9, 57, 79
5, 93696, Note_on_c, 9, 57, 0
5, 93696, Note_on_c, 9, 59, 0
5, 93696, Note_on_c, 9, 44, 0
5, 93776, Note_on_c, 9, 36, 0
5, 94080, Note_on_c, 9, 44, 115
5, 94080, Note_on_c, 9, 59, 50
5, 94208, Note_on_c, 9, 59, 0
5, 94336, Note_on_c, 9, 59, 37
5, 94464, Note_on_c, 9, 59, 0
5, 94464, Note_on_c, 9, 44, 0
5, 94464, Note_on_c, 9, 59, 42
5, 94592, Note_on_c, 9, 59, 0
5, 94720, Note_on_c, 9, 59, 101
5, 94720, Note_on_c, 9, 57, 94
5, 94848, Note_on_c, 9, 46, 111
5, 94976, Note_on_c, 9, 57, 0
5, 95104, Note_on_c, 9, 59, 0
5, 95118, Note_on_c, 9, 36, 59
5, 95228, Note_on_c, 9, 36, 0
5, 95232, Note_on_c, 9, 46, 0
5, 95232, Note_on_c, 9, 59, 45
5, 95360, Note_on_c, 9, 59, 0
5, 95360, Note_on_c, 9, 59, 16
5, 95488, Note_on_c, 9, 59, 0
5, 95616, Note_on_c, 9, 44, 104
5, 95616, Note_on_c, 9, 59, 72
5, 95744, Note_on_c, 9, 59, 0
5, 95872, Note_on_c, 9, 59, 62
5, 96000, Note_on_c, 9, 59, 0
5, 96000, Note_on_c, 9, 44, 0
5, 96000, Note_on_c, 9, 59, 55
5, 96128, Note_on_c, 9, 59, 0
5, 96234, Note_on_c, 9, 37, 24
5, 96302, Note_on_c, 9, 37, 0
5, 96384, Note_on_c, 9, 44, 108
5, 96384, Note_on_c, 9, 59, 72
5, 96512, Note_on_c, 9, 59, 0
5, 96618, Note_on_c, 9, 37, 43
5, 96640, Note_on_c, 9, 59, 47
5, 96718, Note_on_c, 9, 37, 0
5, 96768, Note_on_c, 9, 59, 0
5, 96768, Note_on_c, 9, 44, 0
5, 96768, Note_on_c, 9, 59, 66
5, 96774, Note_on_c, 9, 36, 29
5, 96812, Note_on_c, 9, 36, 0
5, 97024, Note_on_c, 9, 59, 0
5, 97152, Note_on_c, 9, 44, 112
5, 97152, Note_on_c, 9, 59, 71
5, 97280, Note_on_c, 9, 59, 0
5, 97408, Note_on_c, 9, 59, 44
5, 97536, Note_on_c, 9, 59, 0
5, 97536, Note_on_c, 9, 44, 0
5, 97536, Note_on_c, 9, 59, 67
5, 97792, Note_on_c, 9, 59, 0
5, 97920, Note_on_c, 9, 44, 117
5, 97920, Note_on_c, 9, 59, 73
5, 98048, Note_on_c, 9, 59, 0
5, 98304, Note_on_c, 9, 44, 0
5, 98304, Note_on_c, 9, 59, 64
5, 98560, Note_on_c, 9, 59, 0
5, 98688, Note_on_c, 9, 44, 114
5, 98688, Note_on_c, 9, 59, 69
5, 98816, Note_on_c, 9, 59, 0
5, 98944, Note_on_c, 9, 59, 54
5, 99072, Note_on_c, 9, 59, 0
5, 99072, Note_on_c, 9, 44, 0
5, 99072, Note_on_c, 9, 59, 74
5, 99328, Note_on_c, 9, 59, 0
5, 99456, Note_on_c, 9, 44, 115
5, 99456, Note_on_c, 9, 59, 79
5, 99468, Note_on_c, 9, 36, 34
5, 99498, Note_on_c, 9, 36, 0
5, 99712, Note_on_c, 9, 59, 0
5, 99712, Note_on_c, 9, 59, 48
5, 99722, Note_on_c, 9, 36, 86
5, 99782, Note_on_c, 9, 36, 0
5, 99840, Note_on_c, 9, 59, 0
5, 99840, Note_on_c, 9, 44, 0
5, 99840, Note_on_c, 9, 59, 77
5, 99874, Note_on_c, 9, 36, 46
5, 99924, Note_on_c, 9, 36, 0
5, 100096, Note_on_c, 9, 59, 0
5, 100224, Note_on_c, 9, 44, 109
5, 100224, Note_on_c, 9, 59, 74
5, 100352, Note_on_c, 9, 59, 0
5, 100608, Note_on_c, 9, 44, 0
5, 100608, Note_on_c, 9, 59, 71
5, 100864, Note_on_c, 9, 59, 0
5, 100878, Note_on_c, 9, 38, 52
5, 100940, Note_on_c, 9, 38, 0
5, 100992, Note_on_c, 9, 44, 112
5, 100992, Note_on_c, 9, 59, 73
5, 101044, Note_on_c, 9, 36, 17
5, 101082, Note_on_c, 9, 36, 0
5, 101120, Note_on_c, 9, 59, 0
5, 101248, Note_on_c, 9, 59, 60
5, 101376, Note_on_c, 9, 59, 0
5, 101376, Note_on_c, 9, 44, 0
5, 101376, Note_on_c, 9, 59, 64
5, 101632, Note_on_c, 9, 59, 0
5, 101638, Note_on_c, 9, 38, 40
5, 101672, Note_on_c, 9, 38, 0
5, 101760, Note_on_c, 9, 44, 111
5, 101760, Note_on_c, 9, 59, 77
5, 101766, Note_on_c, 9, 36, 37
5, 101814, Note_on_c, 9, 36, 0
5, 101888, Note_on_c, 9, 59, 0
5, 102144, Note_on_c, 9, 44, 0
5, 102144, Note_on_c, 9, 59, 72
5, 102400, Note_on_c, 9, 59, 0
5, 102440, Note_on_c, 9, 38, 40
5, 102478, Note_on_c, 9, 38, 0
5, 102528, Note_on_c, 9, 44, 114
5, 102528, Note_on_c, 9, 59, 74
5, 102552, Note_on_c, 9, 36, 33
5, 102656, Note_on_c, 9, 59, 0
5, 102662, Note_on_c, 9, 36, 0
5, 102784, Note_on_c, 9, 59, 59
5, 102912, Note_on_c, 9, 59, 0
5, 102912, Note_on_c, 9, 44, 0
5, 102912, Note_on_c, 9, 59, 68
5, 103168, Note_on_c, 9, 59, 0
5, 103296, Note_on_c, 9, 44, 108
5, 103296, Note_on_c, 9, 59, 80
5, 103424, Note_on_c, 9, 59, 0
5, 103552, Note_on_c, 9, 59, 55
5, 103680, Note_on_c, 9, 59, 0
5, 103680, Note_on_c, 9, 44, 0
5, 103680, Note_on_c, 9, 59, 76
5, 103808, Note_on_c, 9, 59, 0
5, 103946, Note_on_c, 9, 37, 50
5, 104036, Note_on_c, 9, 37, 0
5, 104064, Note_on_c, 9, 44, 116
5, 104064, Note_on_c, 9, 59, 72
5, 104090, Note_on_c, 9, 36, 27
5, 104172, Note_on_c, 9, 36, 0
5, 104192, Note_on_c, 9, 59, 0
5, 104448, Note_on_c, 9, 44, 0
5, 104448, Note_on_c, 9, 59, 74
5, 104692, Note_on_c, 9, 37, 53
5, 104704, Note_on_c, 9, 59, 0
5, 104790, Note_on_c, 9, 37, 0
5, 104828, Note_on_c, 9, 36, 38
5, 104832, Note_on_c, 9, 44, 113
5, 104832, Note_on_c, 9, 59, 80
5, 104890, Note_on_c, 9, 36, 0
5, 105088, Note_on_c, 9, 59, 0
5, 105216, Note_on_c, 9, 44, 0
5, 105216, Note_on_c, 9, 59, 74
5, 105460, Note_on_c, 9, 37, 42
5, 105472, Note_on_c, 9, 59, 0
5, 105554, Note_on_c, 9, 37, 0
5, 105600, Note_on_c, 9, 44, 117
5, 105600, Note_on_c, 9, 59, 76
5, 105728, Note_on_c, 9, 59, 0
5, 105856, Note_on_c, 9, 59, 53
5, 105858, Note_on_c, 9, 37, 21
5, 105868, Note_on_c, 9, 36, 52
5, 105888, Note_on_c, 9, 37, 0
5, 105984, Note_on_c, 9, 44, 0
5, 105984, Note_on_c, 9, 59, 0
5, 105984, Note_on_c, 9, 59, 65
5, 106146, Note_on_c, 9, 36, 0
5, 106240, Note_on_c, 9, 59, 0
5, 106368, Note_on_c, 9, 44, 115
5, 106368, Note_on_c, 9, 59, 72
5, 106496, Note_on_c, 9, 59, 0
5, 106624, Note_on_c, 9, 59, 57
5, 106752, Note_on_c, 9, 59, 0
5, 106752, Note_on_c, 9, 44, 0
5, 106752, Note_on_c, 9, 59, 74
5, 107008, Note_on_c, 9, 59, 0
5, 107136, Note_on_c, 9, 44, 111
5, 107136, Note_on_c, 9, 59, 77
5, 107264, Note_on_c, 9, 59, 0
5, 107392, Note_on_c, 9, 59, 45
5, 107520, Note_on_c, 9, 59, 0
5, 107520, Note_on_c, 9, 44, 0
5, 107520, Note_on_c, 9, 59, 73
5, 107776, Note_on_c, 9, 59, 0
5, 107904, Note_on_c, 9, 44, 115
5, 107904, Note_on_c, 9, 59, 74
5, 108160, Note_on_c, 9, 59, 0
5, 108160, Note_on_c, 9, 59, 52
5, 108288, Note_on_c, 9, 59, 0
5, 108288, Note_on_c, 9, 44, 0
5, 108288, Note_on_c, 9, 59, 80
5, 108544, Note_on_c, 9, 59, 0
5, 108672, Note_on_c, 9, 46, 111
5, 108672, Note_on_c, 9, 59, 80
5, 108800, Note_on_c, 9, 59, 0
5, 109056, Note_on_c, 9, 46, 0
5, 109056, Note_on_c, 9, 59, 78
5, 109312, Note_on_c, 9, 59, 0
5, 109440, Note_on_c, 9, 44, 104
5, 109440, Note_on_c, 9, 59, 79
5, 109568, Note_on_c, 9, 59, 0
5, 109694, Note_on_c, 9, 50, 65
5, 109696, Note_on_c, 9, 59, 69
5, 109738, Note_on_c, 9, 50, 0
5, 109824, Note_on_c, 9, 59, 0
5, 109824, Note_on_c, 9, 44, 0
5, 109824, Note_on_c, 9, 59, 74
5, 110080, Note_on_c, 9, 59, 0
5, 110208, Note_on_c, 9, 44, 108
5, 110208, Note_on_c, 9, 59, 79
5, 110228, Note_on_c, 9, 37, 48
5, 110336, Note_on_c, 9, 59, 0
5, 110368, Note_on_c, 9, 37, 0
5, 110592, Note_on_c, 9, 44, 0
5, 110592, Note_on_c, 9, 59, 76
5, 110720, Note_on_c, 9, 59, 0
5, 110840, Note_on_c, 9, 37, 21
5, 110868, Note_on_c, 9, 37, 0
5, 110970, Note_on_c, 9, 50, 26
5, 110976, Note_on_c, 9, 44, 112
5, 110976, Note_on_c, 9, 59, 78
5, 111092, Note_on_c, 9, 50, 0
5, 111104, Note_on_c, 9, 59, 0
5, 111220, Note_on_c, 9, 50, 90
5, 111360, Note_on_c, 9, 50, 0
5, 111360, Note_on_c, 9, 44, 0
5, 111360, Note_on_c, 9, 59, 75
5, 111616, Note_on_c, 9, 59, 0
5, 111644, Note_on_c, 9, 36, 7
5, 111672, Note_on_c, 9, 36, 0
5, 111730, Note_on_c, 9, 37, 34
5, 111744, Note_on_c, 9, 44, 117
5, 111744, Note_on_c, 9, 59, 66
5, 111906, Note_on_c, 9, 37, 0
5, 112000, Note_on_c, 9, 59, 0
5, 112000, Note_on_c, 9, 53, 79
5, 112128, Note_on_c, 9, 53, 0
5, 112128, Note_on_c, 9, 44, 0
5, 112128, Note_on_c, 9, 59, 53
5, 112256, Note_on_c, 9, 59, 0
5, 112384, Note_on_c, 9, 53, 84
5, 112500, Note_on_c, 9, 50, 36
5, 112512, Note_on_c, 9, 53, 0
5, 112512, Note_on_c, 9, 44, 114
5, 112512, Note_on_c, 9, 59, 39
5, 112592, Note_on_c, 9, 50, 0
5, 112768, Note_on_c, 9, 59, 0
5, 112772, Note_on_c, 9, 50, 100
5, 112896, Note_on_c, 9, 44, 0
5, 112896, Note_on_c, 9, 59, 60
5, 112906, Note_on_c, 9, 50, 0
5, 113024, Note_on_c, 9, 59, 0
5, 113190, Note_on_c, 9, 36, 19
5, 113228, Note_on_c, 9, 36, 0
5, 113280, Note_on_c, 9, 44, 115
5, 113280, Note_on_c, 9, 59, 70
5, 113282, Note_on_c, 9, 37, 37
5, 113406, Note_on_c, 9, 37, 0
5, 113408, Note_on_c, 9, 59, 0
5, 113536, Note_on_c, 9, 59, 67
5, 113664, Note_on_c, 9, 59, 0
5, 113664, Note_on_c, 9, 44, 0
5, 113664, Note_on_c, 9, 59, 70
5, 113792, Note_on_c, 9, 59, 0
5, 114048, Note_on_c, 9, 44, 109
5, 114048, Note_on_c, 9, 59, 72
5, 114052, Note_on_c, 9, 50, 61
5, 114176, Note_on_c, 9, 59, 0
5, 114200, Note_on_c, 9, 50, 0
5, 114304, Note_on_c, 9, 59, 56
5, 114328, Note_on_c, 9, 50, 77
5, 114432, Note_on_c, 9, 59, 0
5, 114432, Note_on_c, 9, 44, 0
5, 114432, Note_on_c, 9, 59, 74
5, 114446, Note_on_c, 9, 50, 0
5, 114688, Note_on_c, 9, 59, 0
5, 114704, Note_on_c, 9, 36, 70
5, 114812, Note_on_c, 9, 36, 0
5, 114816, Note_on_c, 9, 44, 112
5, 114816, Note_on_c, 9, 59, 79
5, 114848, Note_on_c, 9, 37, 45
5, 114920, Note_on_c, 9, 37, 0
5, 114944, Note_on_c, 9, 59, 0
5, 115072, Note_on_c, 9, 59, 51
5, 115200, Note_on_c, 9, 59, 0
5, 115200, Note_on_c, 9, 44, 0
5, 115200, Note_on_c, 9, 59, 77
5, 115456, Note_on_c, 9, 59, 0
5, 115584, Note_on_c, 9, 44, 111
5, 115584, Note_on_c, 9, 59, 80
5, 115598, Note_on_c, 9, 50, 39
5, 115670, Note_on_c, 9, 50, 0
5, 115712, Note_on_c, 9, 59, 0
5, 115844, Note_on_c, 9, 50, 90
5, 115960, Note_on_c, 9, 50, 0
5, 115968, Note_on_c, 9, 44, 0
5, 116096, Note_on_c, 9, 59, 76
5, 116196, Note_on_c, 9, 36, 51
5, 116224, Note_on_c, 9, 59, 0
5, 116284, Note_on_c, 9, 36, 0
5, 116332, Note_on_c, 9, 37, 45
5, 116352, Note_on_c, 9, 44, 114
5, 116352, Note_on_c, 9, 59, 84
5, 116432, Note_on_c, 9, 37, 0
5, 116608, Note_on_c, 9, 59, 0
5, 116736, Note_on_c, 9, 44, 0
5, 116736, Note_on_c, 9, 59, 48
5, 116864, Note_on_c, 9, 59, 0
5, 116864, Note_on_c, 9, 59, 66
5, 116992, Note_on_c, 9, 59, 0
5, 116992, Note_on_c, 9, 59, 26
5, 117120, Note_on_c, 9, 59, 0
5, 117120, Note_on_c, 9, 44, 108
5, 117130, Note_on_c, 9, 50, 46
5, 117180, Note_on_c, 9, 50, 0
5, 117248, Note_on_c, 9, 59, 82
5, 117376, Note_on_c, 9, 59, 0
5, 117396, Note_on_c, 9, 50, 88
5, 117486, Note_on_c, 9, 50, 0
5, 117504, Note_on_c, 9, 44, 0
5, 117504, Note_on_c, 9, 59, 67
5, 117632, Note_on_c, 9, 59, 0
5, 117886, Note_on_c, 9, 37, 72
5, 117888, Note_on_c, 9, 44, 116
5, 117888, Note_on_c, 9, 59, 78
5, 118006, Note_on_c, 9, 37, 0
5, 118016, Note_on_c, 9, 59, 0
5, 118144, Note_on_c, 9, 59, 54
5, 118272, Note_on_c, 9, 59, 0
5, 118272, Note_on_c, 9, 44, 0
5, 118272, Note_on_c, 9, 59, 74
5, 118400, Note_on_c, 9, 59, 0
5, 118656, Note_on_c, 9, 44, 113
5, 118656, Note_on_c, 9, 59, 82
5, 118658, Note_on_c, 9, 50, 42
5, 118694, Note_on_c, 9, 50, 0
5, 118784, Note_on_c, 9, 59, 0
5, 118912, Note_on_c, 9, 59, 48
5, 118916, Note_on_c, 9, 50, 110
5, 119008, Note_on_c, 9, 50, 0
5, 119040, Note_on_c, 9, 59, 0
5, 119040, Note_on_c, 9, 44, 0
5, 119040, Note_on_c, 9, 59, 80
5, 119296, Note_on_c, 9, 59, 0
5, 119314, Note_on_c, 9, 36, 49
5, 119392, Note_on_c, 9, 36, 0
5, 119424, Note_on_c, 9, 44, 117
5, 119424, Note_on_c, 9, 59, 78
5, 119454, Note_on_c, 9, 37, 34
5, 119510, Note_on_c, 9, 37, 0
5, 119552, Note_on_c, 9, 59, 0
5, 119680, Note_on_c, 9, 59, 60
5, 119808, Note_on_c, 9, 59, 0
5, 119808, Note_on_c, 9, 44, 0
5, 119808, Note_on_c, 9, 59, 55
5, 120064, Note_on_c, 9, 59, 0
5, 120192, Note_on_c, 9, 44, 115
5, 120192, Note_on_c, 9, 59, 80
5, 120192, Note_on_c, 9, 50, 32
5, 120260, Note_on_c, 9, 50, 0
5, 120320, Note_on_c, 9, 59, 0
5, 120458, Note_on_c, 9, 50, 112
5, 120562, Note_on_c, 9, 50, 0
5, 120576, Note_on_c, 9, 44, 0
5, 120576, Note_on_c, 9, 59, 80
5, 120832, Note_on_c, 9, 59, 0
5, 120846, Note_on_c, 9, 36, 25
5, 120936, Note_on_c, 9, 36, 0
5, 120956, Note_on_c, 9, 37, 38
5, 120960, Note_on_c, 9, 44, 111
5, 120960, Note_on_c, 9, 59, 77
5, 121088, Note_on_c, 9, 59, 0
5, 121114, Note_on_c, 9, 37, 0
5, 121216, Note_on_c, 9, 59, 60
5, 121344, Note_on_c, 9, 59, 0
5, 121344, Note_on_c, 9, 44, 0
5, 121344, Note_on_c, 9, 59, 74
5, 121600, Note_on_c, 9, 59, 0
5, 121728, Note_on_c, 9, 44, 115
5, 121728, Note_on_c, 9, 59, 76
5, 121958, Note_on_c, 9, 50, 52
5, 121984, Note_on_c, 9, 59, 0
5, 121986, Note_on_c, 9, 50, 0
5, 122112, Note_on_c, 9, 44, 0
5, 122112, Note_on_c, 9, 59, 52
5, 122112, Note_on_c, 9, 59, 74
5, 122240, Note_on_c, 9, 59, 0
5, 122358, Note_on_c, 9, 36, 30
5, 122368, Note_on_c, 9, 59, 0
5, 122396, Note_on_c, 9, 36, 0
5, 122496, Note_on_c, 9, 46, 111
5, 122496, Note_on_c, 9, 59, 80
5, 122504, Note_on_c, 9, 37, 25
5, 122606, Note_on_c, 9, 37, 0
5, 122752, Note_on_c, 9, 59, 0
5, 122752, Note_on_c, 9, 59, 54
5, 122880, Note_on_c, 9, 59, 0
5, 122880, Note_on_c, 9, 46, 0
5, 122880, Note_on_c, 9, 59, 73
5, 123136, Note_on_c, 9, 59, 0
5, 123264, Note_on_c, 9, 44, 104
5, 123264, Note_on_c, 9, 59, 88
5, 123392, Note_on_c, 9, 59, 0
5, 123520, Note_on_c, 9, 59, 62
5, 123530, Note_on_c, 9, 50, 80
5, 123598, Note_on_c, 9, 50, 0
5, 123648, Note_on_c, 9, 59, 0
5, 123648, Note_on_c, 9, 44, 0
5, 123648, Note_on_c, 9, 59, 80
5, 123776, Note_on_c, 9, 59, 0
5, 123904, Note_on_c, 9, 53, 83
5, 124032, Note_on_c, 9, 53, 0
5, 124032, Note_on_c, 9, 44, 108
5, 124032, Note_on_c, 9, 59, 67
5, 124160, Note_on_c, 9, 59, 0
5, 124288, Note_on_c, 9, 51, 83
5, 124416, Note_on_c, 9, 51, 0
5, 124416, Note_on_c, 9, 44, 0
5, 124416, Note_on_c, 9, 51, 55
5, 124544, Note_on_c, 9, 51, 0
5, 124800, Note_on_c, 9, 44, 112
5, 124800, Note_on_c, 9, 51, 87
5, 124928, Note_on_c, 9, 51, 0
5, 125054, Note_on_c, 9, 50, 60
5, 125096, Note_on_c, 9, 50, 0
5, 125184, Note_on_c, 9, 44, 0
5, 125184, Note_on_c, 9, 51, 87
5, 125440, Note_on_c, 9, 51, 0
5, 125568, Note_on_c, 9, 44, 117
5, 125568, Note_on_c, 9, 51, 88
5, 125604, Note_on_c, 9, 36, 56
5, 125660, Note_on_c, 9, 36, 0
5, 125824, Note_on_c, 9, 51, 0
5, 125824, Note_on_c, 9, 51, 61
5, 125858, Note_on_c, 9, 36, 51
5, 125894, Note_on_c, 9, 36, 0
5, 125952, Note_on_c, 9, 51, 0
5, 125952, Note_on_c, 9, 44, 0
5, 125952, Note_on_c, 9, 51, 77
5, 126080, Note_on_c, 9, 51, 0
5, 126336, Note_on_c, 9, 44, 114
5, 126336, Note_on_c, 9, 51, 84
5, 126380, Note_on_c, 9, 50, 30
5, 126436, Note_on_c, 9, 50, 0
5, 126464, Note_on_c, 9, 51, 0
5, 126592, Note_on_c, 9, 51, 57
5, 126626, Note_on_c, 9, 50, 54
5, 126656, Note_on_c, 9, 50, 0
5, 126720, Note_on_c, 9, 51, 0
5, 126720, Note_on_c, 9, 44, 0
5, 126720, Note_on_c, 9, 51, 71
5, 126976, Note_on_c, 9, 51, 0
5, 127024, Note_on_c, 9, 36, 9
5, 127052, Note_on_c, 9, 36, 0
5, 127104, Note_on_c, 9, 44, 115
5, 127104, Note_on_c, 9, 51, 85
5, 127126, Note_on_c, 9, 36, 56
5, 127232, Note_on_c, 9, 51, 0
5, 127280, Note_on_c, 9, 36, 0
5, 127374, Note_on_c, 9, 36, 58
5, 127440, Note_on_c, 9, 36, 0
5, 127488, Note_on_c, 9, 44, 0
5, 127488, Note_on_c, 9, 51, 40
5, 127488, Note_on_c, 9, 51, 68
5, 127616, Note_on_c, 9, 51, 0
5, 127744, Note_on_c, 9, 51, 0
5, 127872, Note_on_c, 9, 44, 109
5, 127872, Note_on_c, 9, 51, 82
5, 128116, Note_on_c, 9, 50, 95
5, 128128, Note_on_c, 9, 51, 0
5, 128182, Note_on_c, 9, 50, 0
5, 128256, Note_on_c, 9, 44, 0
5, 128256, Note_on_c, 9, 51, 62
5, 128256, Note_on_c, 9, 51, 78
5, 128384, Note_on_c, 9, 51, 0
5, 128384, Note_on_c, 9, 51, 0
5, 128630, Note_on_c, 9, 36, 40
5, 128640, Note_on_c, 9, 44, 112
5, 128640, Note_on_c, 9, 51, 77
5, 128680, Note_on_c, 9, 36, 0
5, 128768, Note_on_c, 9, 51, 0
5, 128896, Note_on_c, 9, 51, 57
5, 128904, Note_on_c, 9, 36, 44
5, 128946, Note_on_c, 9, 36, 0
5, 129024, Note_on_c, 9, 51, 0
5, 129024, Note_on_c, 9, 44, 0
5, 129024, Note_on_c, 9, 51, 67
5, 129280, Note_on_c, 9, 51, 0
5, 129408, Note_on_c, 9, 44, 111
5, 129408, Note_on_c, 9, 51, 82
5, 129536, Note_on_c, 9, 51, 0
5, 129792, Note_on_c, 9, 44, 0
5, 129792, Note_on_c, 9, 51, 81
5, 129920, Note_on_c, 9, 51, 0
5, 130052, Note_on_c, 9, 38, 74
5, 130110, Note_on_c, 9, 38, 0
5, 130176, Note_on_c, 9, 44, 114
5, 130176, Note_on_c, 9, 51, 79
5, 130304, Note_on_c, 9, 51, 0
5, 130414, Note_on_c, 9, 38, 74
5, 130432, Note_on_c, 9, 51, 55
5, 130490, Note_on_c, 9, 38, 0
5, 130554, Note_on_c, 9, 36, 44
5, 130560, Note_on_c, 9, 51, 0
5, 130560, Note_on_c, 9, 44, 0
5, 130560, Note_on_c, 9, 51, 51
5, 130604, Note_on_c, 9, 36, 0
5, 130688, Note_on_c, 9, 51, 0
5, 130944, Note_on_c, 9, 44, 108
5, 130944, Note_on_c, 9, 51, 80
5, 131072, Note_on_c, 9, 51, 0
5, 131200, Note_on_c, 9, 51, 58
5, 131328, Note_on_c, 9, 51, 0
5, 131328, Note_on_c, 9, 44, 0
5, 131328, Note_on_c, 9, 51, 69
5, 131456, Note_on_c, 9, 51, 0
5, 131712, Note_on_c, 9, 44, 116
5, 131712, Note_on_c, 9, 51, 81
5, 131840, Note_on_c, 9, 51, 0
5, 132096, Note_on_c, 9, 44, 0
5, 132096, Note_on_c, 9, 51, 84
5, 132224, Note_on_c, 9, 51, 0
5, 132380, Note_on_c, 9, 37, 50
5, 132468, Note_on_c, 9, 37, 0
5, 132480, Note_on_c, 9, 44, 113
5, 132480, Note_on_c, 9, 51, 84
5, 132540, Note_on_c, 9, 36, 12
5, 132574, Note_on_c, 9, 36, 0
5, 132608, Note_on_c, 9, 51, 0
5, 132608, Note_on_c, 9, 51, 70
5, 132736, Note_on_c, 9, 51, 0
5, 132864, Note_on_c, 9, 44, 0
5, 132992, Note_on_c, 9, 51, 90
5, 133120, Note_on_c, 9, 51, 0
5, 133142, Note_on_c, 9, 37, 56
5, 133234, Note_on_c, 9, 37, 0
5, 133248, Note_on_c, 9, 44, 117
5, 133376, Note_on_c, 9, 51, 86
5, 133504, Note_on_c, 9, 51, 0
5, 133524, Note_on_c, 9, 57, 69
5, 133538, Note_on_c, 9, 36, 79
5, 133542, Note_on_c, 9, 37, 54
5, 133580, Note_on_c, 9, 57, 0
5, 133628, Note_on_c, 9, 37, 0
5, 133632, Note_on_c, 9, 44, 0
5, 133632, Note_on_c, 9, 51, 84
5, 133760, Note_on_c, 9, 51, 0
5, 134016, Note_on_c, 9, 44, 115
5, 134016, Note_on_c, 9, 51, 80
5, 134144, Note_on_c, 9, 51, 0
5, 134272, Note_on_c, 9, 51, 60
5, 134400, Note_on_c, 9, 51, 0
5, 134400, Note_on_c, 9, 44, 0
5, 134400, Note_on_c, 9, 51, 68
5, 134528, Note_on_c, 9, 51, 0
5, 134784, Note_on_c, 9, 44, 111
5, 134784, Note_on_c, 9, 51, 84
5, 134912, Note_on_c, 9, 51, 0
5, 135040, Note_on_c, 9, 51, 55
5, 135060, Note_on_c, 9, 36, 0
5, 135168, Note_on_c, 9, 51, 0
5, 135168, Note_on_c, 9, 44, 0
5, 135168, Note_on_c, 9, 51, 67
5, 135296, Note_on_c, 9, 51, 0
5, 135552, Note_on_c, 9, 44, 115
5, 135552, Note_on_c, 9, 51, 78
5, 135680, Note_on_c, 9, 51, 0
5, 135936, Note_on_c, 9, 44, 0
5, 135936, Note_on_c, 9, 51, 60
5, 136064, Note_on_c, 9, 51, 0
5, 136320, Note_on_c, 9, 46, 111
5, 136320, Note_on_c, 9, 51, 75
5, 136350, Note_on_c, 9, 37, 56
5, 136368, Note_on_c, 9, 56, 38
5, 136404, Note_on_c, 9, 56, 0
5, 136448, Note_on_c, 9, 51, 0
5, 136602, Note_on_c, 9, 57, 58
5, 136614, Note_on_c, 9, 36, 69
5, 136660, Note_on_c, 9, 37, 0
5, 136670, Note_on_c, 9, 57, 0
5, 136704, Note_on_c, 9, 46, 0
5, 136704, Note_on_c, 9, 51, 77
5, 136832, Note_on_c, 9, 51, 0
5, 137088, Note_on_c, 9, 44, 104
5, 137088, Note_on_c, 9, 51, 79
5, 137216, Note_on_c, 9, 51, 0
5, 137472, Note_on_c, 9, 44, 0
5, 137472, Note_on_c, 9, 51, 79
5, 137600, Note_on_c, 9, 51, 0
5, 137714, Note_on_c, 9, 36, 0
5, 137734, Note_on_c, 9, 37, 24
5, 137820, Note_on_c, 9, 37, 0
5, 137856, Note_on_c, 9, 44, 108
5, 137856, Note_on_c, 9, 51, 80
5, 137862, Note_on_c, 9, 36, 42
5, 137984, Note_on_c, 9, 51, 0
5, 138064, Note_on_c, 9, 36, 0
5, 138112, Note_on_c, 9, 51, 64
5, 138122, Note_on_c, 9, 36, 41
5, 138190, Note_on_c, 9, 36, 0
5, 138240, Note_on_c, 9, 51, 0
5, 138240, Note_on_c, 9, 44, 0
5, 138240, Note_on_c, 9, 51, 69
5, 138368, Note_on_c, 9, 51, 0
5, 138624, Note_on_c, 9, 44, 112
5, 138624, Note_on_c, 9, 51, 79
5, 138752, Note_on_c, 9, 51, 0
5, 138878, Note_on_c, 9, 37, 17
5, 138880, Note_on_c, 9, 51, 40
5, 138908, Note_on_c, 9, 37, 0
5, 138984, Note_on_c, 9, 38, 36
5, 139008, Note_on_c, 9, 51, 0
5, 139008, Note_on_c, 9, 44, 0
5, 139008, Note_on_c, 9, 51, 72
5, 139016, Note_on_c, 9, 38, 0
5, 139104, Note_on_c, 9, 38, 32
5, 139136, Note_on_c, 9, 51, 0
5, 139142, Note_on_c, 9, 38, 0
5, 139392, Note_on_c, 9, 44, 117
5, 139392, Note_on_c, 9, 51, 77
5, 139400, Note_on_c, 9, 38, 24
5, 139440, Note_on_c, 9, 38, 0
5, 139514, Note_on_c, 9, 38, 29
5, 139556, Note_on_c, 9, 38, 0
5, 139648, Note_on_c, 9, 51, 0
5, 139776, Note_on_c, 9, 44, 0
5, 139776, Note_on_c, 9, 51, 75
5, 140032, Note_on_c, 9, 51, 0
5, 140160, Note_on_c, 9, 44, 114
5, 140160, Note_on_c, 9, 51, 74
5, 140416, Note_on_c, 9, 51, 0
5, 140530, Note_on_c, 9, 38, 25
5, 140544, Note_on_c, 9, 44, 0
5, 140544, Note_on_c, 9, 51, 75
5, 140562, Note_on_c, 9, 38, 0
5, 140638, Note_on_c, 9, 38, 28
5, 140680, Note_on_c, 9, 38, 0
5, 140800, Note_on_c, 9, 51, 0
5, 140928, Note_on_c, 9, 44, 115
5, 140928, Note_on_c, 9, 51, 75
5, 140928, Note_on_c, 9, 38, 30
5, 140960, Note_on_c, 9, 38, 0
5, 141176, Note_on_c, 9, 38, 28
5, 141184, Note_on_c, 9, 51, 0
5, 141208, Note_on_c, 9, 38, 0
5, 141312, Note_on_c, 9, 44, 0
5, 141312, Note_on_c, 9, 51, 77
5, 141444, Note_on_c, 9, 38, 32
5, 141472, Note_on_c, 9, 38, 0
5, 141568, Note_on_c, 9, 51, 0
5, 141592, Note_on_c, 9, 36, 40
5, 141626, Note_on_c, 9, 36, 0
5, 141696, Note_on_c, 9, 44, 109
5, 141696, Note_on_c, 9, 51, 75
5, 141718, Note_on_c, 9, 38, 38
5, 141758, Note_on_c, 9, 38, 0
5, 141824, Note_on_c, 9, 51, 0
5, 142080, Note_on_c, 9, 44, 0
5, 142080, Note_on_c, 9, 51, 56
5, 142080, Note_on_c, 9, 51, 71
5, 142208, Note_on_c, 9, 51, 0
5, 142324, Note_on_c, 9, 38, 25
5, 142336, Note_on_c, 9, 51, 0
5, 142358, Note_on_c, 9, 38, 0
5, 142464, Note_on_c, 9, 44, 112
5, 142464, Note_on_c, 9, 51, 80
5, 142592, Note_on_c, 9, 51, 0
5, 142606, Note_on_c, 9, 38, 39
5, 142636, Note_on_c, 9, 38, 0
5, 142762, Note_on_c, 9, 36, 57
5, 142844, Note_on_c, 9, 36, 0
5, 142848, Note_on_c, 9, 44, 0
5, 142848, Note_on_c, 9, 51, 79
5, 142976, Note_on_c, 9, 51, 0
5, 143232, Note_on_c, 9, 44, 111
5, 143232, Note_on_c, 9, 51, 79
5, 143360, Note_on_c, 9, 51, 0
5, 143616, Note_on_c, 9, 44, 0
5, 143616, Note_on_c, 9, 51, 67
5, 143744, Note_on_c, 9, 51, 0
5, 143744, Note_on_c, 9, 51, 75
5, 143872, Note_on_c, 9, 51, 0
5, 144000, Note_on_c, 9, 44, 114
5, 144000, Note_on_c, 9, 51, 83
5, 144256, Note_on_c, 9, 51, 0
5, 144292, Note_on_c, 9, 36, 14
5, 144324, Note_on_c, 9, 36, 0
5, 144384, Note_on_c, 9, 44, 0
5, 144384, Note_on_c, 9, 51, 59
5, 144420, Note_on_c, 9, 36, 14
5, 144458, Note_on_c, 9, 36, 0
5, 144512, Note_on_c, 9, 51, 0
5, 144512, Note_on_c, 9, 51, 71
5, 144640, Note_on_c, 9, 51, 0
5, 144768, Note_on_c, 9, 44, 108
5, 144768, Note_on_c, 9, 51, 83
5, 145024, Note_on_c, 9, 51, 0
5, 145040, Note_on_c, 9, 36, 45
5, 145082, Note_on_c, 9, 36, 0
5, 145152, Note_on_c, 9, 44, 0
5, 145152, Note_on_c, 9, 51, 78
5, 145408, Note_on_c, 9, 51, 0
5, 145436, Note_on_c, 9, 36, 32
5, 145470, Note_on_c, 9, 36, 0
5, 145536, Note_on_c, 9, 44, 116
5, 145536, Note_on_c, 9, 51, 79
5, 145664, Note_on_c, 9, 51, 0
5, 145792, Note_on_c, 9, 51, 47
5, 145920, Note_on_c, 9, 51, 0
5, 145920, Note_on_c, 9, 44, 0
5, 145920, Note_on_c, 9, 51, 62
5, 146048, Note_on_c, 9, 51, 0
5, 146304, Note_on_c, 9, 44, 113
5, 146304, Note_on_c, 9, 51, 80
5, 146432, Note_on_c, 9, 51, 0
5, 146578, Note_on_c, 9, 36, 47
5, 146608, Note_on_c, 9, 36, 0
5, 146688, Note_on_c, 9, 44, 0
5, 146688, Note_on_c, 9, 51, 75
5, 146816, Note_on_c, 9, 51, 0
5, 147072, Note_on_c, 9, 44, 117
5, 147072, Note_on_c, 9, 51, 76
5, 147200, Note_on_c, 9, 51, 0
5, 147316, Note_on_c, 9, 37, 64
5, 147396, Note_on_c, 9, 37, 0
5, 147456, Note_on_c, 9, 44, 0
5, 147456, Note_on_c, 9, 51, 53
5, 147456, Note_on_c, 9, 51, 58
5, 147462, Note_on_c, 9, 36, 32
5, 147554, Note_on_c, 9, 36, 0
5, 147584, Note_on_c, 9, 51, 0
5, 147584, Note_on_c, 9, 51, 0
5, 147840, Note_on_c, 9, 44, 115
5, 147840, Note_on_c, 9, 51, 74
5, 147968, Note_on_c, 9, 51, 0
5, 148132, Note_on_c, 9, 36, 25
5, 148170, Note_on_c, 9, 36, 0
5, 148224, Note_on_c, 9, 44, 0
5, 148224, Note_on_c, 9, 51, 71
5, 148352, Note_on_c, 9, 51, 0
5, 148602, Note_on_c, 9, 38, 21
5, 148608, Note_on_c, 9, 44, 111
5, 148608, Note_on_c, 9, 51, 75
5, 148648, Note_on_c, 9, 38, 0
5, 148736, Note_on_c, 9, 51, 0
5, 148876, Note_on_c, 9, 38, 38
5, 148906, Note_on_c, 9, 38, 0
5, 148992, Note_on_c, 9, 44, 0
5, 148992, Note_on_c, 9, 51, 59
5, 148992, Note_on_c, 9, 51, 61
5, 148998, Note_on_c, 9, 38, 26
5, 149044, Note_on_c, 9, 38, 0
5, 149120, Note_on_c, 9, 51, 0
5, 149248, Note_on_c, 9, 51, 0
5, 149376, Note_on_c, 9, 44, 115
5, 149376, Note_on_c, 9, 51, 76
5, 149504, Note_on_c, 9, 51, 0
5, 149760, Note_on_c, 9, 44, 0
5, 149760, Note_on_c, 9, 51, 76
5, 149760, Note_on_c, 9, 38, 21
5, 149808, Note_on_c, 9, 38, 0
5, 150016, Note_on_c, 9, 51, 0
5, 150020, Note_on_c, 9, 37, 45
5, 150138, Note_on_c, 9, 37, 0
5, 150144, Note_on_c, 9, 46, 111
5, 150144, Note_on_c, 9, 51, 74
5, 150272, Note_on_c, 9, 51, 0
5, 150528, Note_on_c, 9, 46, 0
5, 150528, Note_on_c, 9, 51, 57
5, 150528, Note_on_c, 9, 51, 60
5, 150656, Note_on_c, 9, 51, 0
5, 150656, Note_on_c, 9, 51, 0
5, 150912, Note_on_c, 9, 44, 104
5, 150912, Note_on_c, 9, 51, 74
5, 151040, Note_on_c, 9, 51, 0
5, 151168, Note_on_c, 9, 51, 52
5, 151190, Note_on_c, 9, 38, 14
5, 151224, Note_on_c, 9, 38, 0
5, 151284, Note_on_c, 9, 38, 34
5, 151296, Note_on_c, 9, 51, 0
5, 151296, Note_on_c, 9, 44, 0
5, 151296, Note_on_c, 9, 51, 54
5, 151322, Note_on_c, 9, 38, 0
5, 151424, Note_on_c, 9, 51, 0
5, 151680, Note_on_c, 9, 44, 108
5, 151680, Note_on_c, 9, 51, 77
5, 151808, Note_on_c, 9, 51, 0
5, 151936, Note_on_c, 9, 51, 64
5, 151946, Note_on_c, 9, 36, 40
5, 151984, Note_on_c, 9, 36, 0
5, 152064, Note_on_c, 9, 51, 0
5, 152064, Note_on_c, 9, 44, 0
5, 152064, Note_on_c, 9, 51, 64
5, 152090, Note_on_c, 9, 36, 24
5, 152142, Note_on_c, 9, 36, 0
5, 152192, Note_on_c, 9, 51, 0
5, 152448, Note_on_c, 9, 44, 112
5, 152448, Note_on_c, 9, 51, 74
5, 152576, Note_on_c, 9, 51, 0
5, 152702, Note_on_c, 9, 36, 53
5, 152750, Note_on_c, 9, 36, 0
5, 152830, Note_on_c, 9, 36, 36
5, 152832, Note_on_c, 9, 44, 0
5, 152832, Note_on_c, 9, 51, 78
5, 152878, Note_on_c, 9, 36, 0
5, 152960, Note_on_c, 9, 51, 0
5, 153088, Note_on_c, 9, 53, 77
5, 153216, Note_on_c, 9, 53, 0
5, 153216, Note_on_c, 9, 44, 117
5, 153216, Note_on_c, 9, 51, 55
5, 153344, Note_on_c, 9, 51, 0
5, 153448, Note_on_c, 9, 36, 51
5, 153496, Note_on_c, 9, 36, 0
5, 153600, Note_on_c, 9, 44, 0
5, 153600, Note_on_c, 9, 51, 69
5, 153728, Note_on_c, 9, 51, 0
5, 153856, Note_on_c, 9, 53, 81
5, 153984, Note_on_c, 9, 53, 0
5, 153984, Note_on_c, 9, 44, 114
5, 153984, Note_on_c, 9, 51, 44
5, 154112, Note_on_c, 9, 51, 0
5, 154236, Note_on_c, 9, 36, 56
5, 154302, Note_on_c, 9, 36, 0
5, 154368, Note_on_c, 9, 44, 0
5, 154368, Note_on_c, 9, 51, 63
5, 154496, Note_on_c, 9, 51, 0
5, 154624, Note_on_c, 9, 53, 79
5, 154624, Note_on_c, 9, 36, 63
5, 154696, Note_on_c, 9, 36, 0
5, 154752, Note_on_c, 9, 53, 0
5, 154752, Note_on_c, 9, 44, 115
5, 154752, Note_on_c, 9, 51, 39
5, 154880, Note_on_c, 9, 51, 0
5, 155008, Note_on_c, 9, 57, 85
5, 155008, Note_on_c, 9, 51, 79
5, 155010, Note_on_c, 9, 37, 55
5, 155136, Note_on_c, 9, 44, 0
5, 155138, Note_on_c, 9, 37, 0
5, 155148, Note_on_c, 9, 57, 62
5, 155150, Note_on_c, 9, 36, 59
5, 155214, Note_on_c, 9, 57, 0
5, 155224, Note_on_c, 9, 36, 0
5, 155264, Note_on_c, 9, 57, 0
5, 155264, Note_on_c, 9, 51, 0
5, 155520, Note_on_c, 9, 44, 109
5, 155520, Note_on_c, 9, 51, 36
5, 155648, Note_on_c, 9, 51, 0
5, 155776, Note_on_c, 9, 51, 46
5, 155904, Note_on_c, 9, 51, 0
5, 155904, Note_on_c, 9, 44, 0
5, 155904, Note_on_c, 9, 51, 52
5, 156032, Note_on_c, 9, 51, 0
5, 156160, Note_on_c, 9, 57, 91
5, 156160, Note_on_c, 9, 51, 84
5, 156160, Note_on_c, 9, 56, 44
5, 156180, Note_on_c, 9, 37, 25
5, 156234, Note_on_c, 9, 37, 0
5, 156288, Note_on_c, 9, 56, 0
5, 156288, Note_on_c, 9, 44, 112
5, 156320, Note_on_c, 9, 36, 35
5, 156416, Note_on_c, 9, 57, 0
5, 156544, Note_on_c, 9, 51, 0
5, 156672, Note_on_c, 9, 44, 0
5, 156672, Note_on_c, 9, 51, 34
5, 156928, Note_on_c, 9, 51, 0
5, 157056, Note_on_c, 9, 44, 111
5, 157056, Note_on_c, 9, 51, 57
5, 157102, Note_on_c, 9, 36, 0
5, 157184, Note_on_c, 9, 51, 0
5, 157312, Note_on_c, 9, 51, 50
5, 157342, Note_on_c, 9, 36, 41
5, 157402, Note_on_c, 9, 36, 0
5, 157440, Note_on_c, 9, 51, 0
5, 157440, Note_on_c, 9, 44, 0
5, 157440, Note_on_c, 9, 51, 57
5, 157488, Note_on_c, 9, 36, 22
5, 157542, Note_on_c, 9, 36, 0
5, 157696, Note_on_c, 9, 51, 0
5, 157824, Note_on_c, 9, 44, 114
5, 157824, Note_on_c, 9, 51, 62
5, 157952, Note_on_c, 9, 51, 0
5, 158080, Note_on_c, 9, 51, 44
5, 158090, Note_on_c, 9, 36, 57
5, 158152, Note_on_c, 9, 36, 0
5, 158208, Note_on_c, 9, 51, 0
5, 158208, Note_on_c, 9, 44, 0
5, 158208, Note_on_c, 9, 51, 53
5, 158336, Note_on_c, 9, 51, 0
5, 158592, Note_on_c, 9, 44, 108
5, 158592, Note_on_c, 9, 51, 62
5, 158848, Note_on_c, 9, 51, 0
5, 158848, Note_on_c, 9, 51, 30
5, 158976, Note_on_c, 9, 51, 0
5, 158976, Note_on_c, 9, 44, 0
5, 158976, Note_on_c, 9, 51, 62
5, 159232, Note_on_c, 9, 51, 0
5, 159348, Note_on_c, 9, 37, 73
5, 159360, Note_on_c, 9, 44, 116
5, 159360, Note_on_c, 9, 51, 71
5, 159466, Note_on_c, 9, 37, 0
5, 159488, Note_on_c, 9, 51, 0
5, 159744, Note_on_c, 9, 44, 0
5, 159744, Note_on_c, 9, 51, 67
5, 159872, Note_on_c, 9, 51, 0
5, 160128, Note_on_c, 9, 44, 113
5, 160128, Note_on_c, 9, 51, 71
5, 160256, Note_on_c, 9, 51, 0
5, 160384, Note_on_c, 9, 51, 55
5, 160386, Note_on_c, 9, 36, 26
5, 160426, Note_on_c, 9, 36, 0
5, 160512, Note_on_c, 9, 51, 0
5, 160512, Note_on_c, 9, 44, 0
5, 160512, Note_on_c, 9, 51, 65
5, 160640, Note_on_c, 9, 51, 0
5, 160800, Note_on_c, 9, 36, 28
5, 160836, Note_on_c, 9, 36, 0
5, 160896, Note_on_c, 9, 44, 117
5, 160896, Note_on_c, 9, 51, 72
5, 160906, Note_on_c, 9, 37, 84
5, 161024, Note_on_c, 9, 51, 0
5, 161054, Note_on_c, 9, 37, 0
5, 161152, Note_on_c, 9, 51, 48
5, 161280, Note_on_c, 9, 51, 0
5, 161280, Note_on_c, 9, 44, 0
5, 161280, Note_on_c, 9, 51, 62
5, 161536, Note_on_c, 9, 51, 0
5, 161664, Note_on_c, 9, 44, 115
5, 161664, Note_on_c, 9, 51, 77
5, 161792, Note_on_c, 9, 51, 0
5, 161920, Note_on_c, 9, 51, 57
5, 162048, Note_on_c, 9, 51, 0
5, 162048, Note_on_c, 9, 44, 0
5, 162048, Note_on_c, 9, 51, 69
5, 162176, Note_on_c, 9, 51, 0
5, 162432, Note_on_c, 9, 44, 111
5, 162432, Note_on_c, 9, 51, 74
5, 162436, Note_on_c, 9, 37, 82
5, 162560, Note_on_c, 9, 51, 0
5, 162564, Note_on_c, 9, 37, 0
5, 162816, Note_on_c, 9, 44, 0
5, 162816, Note_on_c, 9, 51, 47
5, 162816, Note_on_c, 9, 51, 64
5, 162944, Note_on_c, 9, 51, 0
5, 163072, Note_on_c, 9, 51, 0
5, 163196, Note_on_c, 9, 36, 23
5, 163200, Note_on_c, 9, 44, 115
5, 163200, Note_on_c, 9, 51, 74
5, 163232, Note_on_c, 9, 36, 0
5, 163456, Note_on_c, 9, 51, 0
5, 163456, Note_on_c, 9, 51, 48
5, 163466, Note_on_c, 9, 36, 72
5, 163558, Note_on_c, 9, 36, 0
5, 163584, Note_on_c, 9, 51, 0
5, 163584, Note_on_c, 9, 44, 0
5, 163584, Note_on_c, 9, 51, 67
5, 163712, Note_on_c, 9, 51, 0
5, 163968, Note_on_c, 9, 46, 111
5, 163968, Note_on_c, 9, 51, 76
5, 163980, Note_on_c, 9, 37, 78
5, 164096, Note_on_c, 9, 51, 0
5, 164110, Note_on_c, 9, 37, 0
5, 164224, Note_on_c, 9, 51, 50
5, 164352, Note_on_c, 9, 51, 0
5, 164352, Note_on_c, 9, 46, 0
5, 164352, Note_on_c, 9, 51, 64
5, 164608, Note_on_c, 9, 51, 0
5, 164736, Note_on_c, 9, 44, 104
5, 164736, Note_on_c, 9, 51, 74
5, 164864, Note_on_c, 9, 51, 0
5, 164998, Note_on_c, 9, 36, 35
5, 165030, Note_on_c, 9, 36, 0
5, 165120, Note_on_c, 9, 44, 0
5, 165120, Note_on_c, 9, 51, 74
5, 165248, Note_on_c, 9, 51, 0
5, 165504, Note_on_c, 9, 44, 108
5, 165504, Note_on_c, 9, 51, 79
5, 165518, Note_on_c, 9, 37, 54
5, 165632, Note_on_c, 9, 51, 0
5, 165684, Note_on_c, 9, 37, 0
5, 165764, Note_on_c, 9, 37, 68
5, 165888, Note_on_c, 9, 44, 0
5, 165888, Note_on_c, 9, 51, 78
5, 165890, Note_on_c, 9, 37, 0
5, 166016, Note_on_c, 9, 51, 0
5, 166272, Note_on_c, 9, 44, 112
5, 166272, Note_on_c, 9, 51, 74
5, 166282, Note_on_c, 9, 36, 47
5, 166368, Note_on_c, 9, 36, 0
5, 166400, Note_on_c, 9, 51, 0
5, 166656, Note_on_c, 9, 44, 0
5, 166656, Note_on_c, 9, 51, 76
5, 166784, Note_on_c, 9, 51, 0
5, 167032, Note_on_c, 9, 37, 63
5, 167040, Note_on_c, 9, 44, 117
5, 167040, Note_on_c, 9, 51, 77
5, 167168, Note_on_c, 9, 51, 0
5, 167200, Note_on_c, 9, 37, 0
5, 167278, Note_on_c, 9, 37, 63
5, 167296, Note_on_c, 9, 51, 44
5, 167396, Note_on_c, 9, 37, 0
5, 167424, Note_on_c, 9, 51, 0
5, 167424, Note_on_c, 9, 44, 0
5, 167424, Note_on_c, 9, 51, 71
5, 167552, Note_on_c, 9, 51, 0
5, 167794, Note_on_c, 9, 36, 44
5, 167808, Note_on_c, 9, 44, 114
5, 167808, Note_on_c, 9, 51, 77
5, 167856, Note_on_c, 9, 36, 0
5, 167936, Note_on_c, 9, 51, 0
5, 168192, Note_on_c, 9, 44, 0
5, 168192, Note_on_c, 9, 51, 75
5, 168320, Note_on_c, 9, 51, 0
5, 168540, Note_on_c, 9, 37, 75
5, 168576, Note_on_c, 9, 44, 115
5, 168576, Note_on_c, 9, 51, 76
5, 168692, Note_on_c, 9, 37, 0
5, 168704, Note_on_c, 9, 51, 0
5, 168960, Note_on_c, 9, 44, 0
5, 168960, Note_on_c, 9, 51, 77
5, 169088, Note_on_c, 9, 51, 0
5, 169344, Note_on_c, 9, 44, 109
5, 169344, Note_on_c, 9, 51, 74
5, 169472, Note_on_c, 9, 51, 0
5, 169600, Note_on_c, 9, 51, 42
5, 169728, Note_on_c, 9, 51, 0
5, 169728, Note_on_c, 9, 44, 0
5, 169728, Note_on_c, 9, 51, 54
5, 169856, Note_on_c, 9, 51, 0
5, 170112, Note_on_c, 9, 44, 112
5, 170112, Note_on_c, 9, 51, 73
5, 170116, Note_on_c, 9, 37, 80
5, 170240, Note_on_c, 9, 51, 0
5, 170264, Note_on_c, 9, 37, 0
5, 170496, Note_on_c, 9, 44, 0
5, 170496, Note_on_c, 9, 51, 75
5, 170624, Note_on_c, 9, 51, 0
5, 170880, Note_on_c, 9, 44, 111
5, 170880, Note_on_c, 9, 51, 72
5, 171008, Note_on_c, 9, 51, 0
5, 171188, Note_on_c, 9, 36, 18
5, 171224, Note_on_c, 9, 36, 0
5, 171264, Note_on_c, 9, 44, 0
5, 171264, Note_on_c, 9, 51, 79
5, 171302, Note_on_c, 9, 36, 31
5, 171336, Note_on_c, 9, 36, 0
5, 171392, Note_on_c, 9, 51, 0
5, 171648, Note_on_c, 9, 44, 114
5, 171648, Note_on_c, 9, 51, 76
5, 171678, Note_on_c, 9, 37, 82
5, 171776, Note_on_c, 9, 51, 0
5, 171838, Note_on_c, 9, 37, 0
5, 171904, Note_on_c, 9, 51, 44
5, 172032, Note_on_c, 9, 51, 0
5, 172032, Note_on_c, 9, 44, 0
5, 172032, Note_on_c, 9, 51, 64
5, 172160, Note_on_c, 9, 51, 0
5, 172416, Note_on_c, 9, 44, 108
5, 172416, Note_on_c, 9, 51, 82
5, 172544, Note_on_c, 9, 51, 0
5, 172658, Note_on_c, 9, 36, 20
5, 172672, Note_on_c, 9, 51, 55
5, 172698, Note_on_c, 9, 36, 0
5, 172798, Note_on_c, 9, 36, 21
5, 172800, Note_on_c, 9, 51, 0
5, 172800, Note_on_c, 9, 44, 0
5, 172800, Note_on_c, 9, 51, 69
5, 172836, Note_on_c, 9, 36, 0
5, 172928, Note_on_c, 9, 51, 0
5, 173184, Note_on_c, 9, 44, 116
5, 173184, Note_on_c, 9, 51, 79
5, 173198, Note_on_c, 9, 37, 83
5, 173288, Note_on_c, 9, 37, 0
5, 173312, Note_on_c, 9, 51, 0
5, 173440, Note_on_c, 9, 51, 48
5, 173568, Note_on_c, 9, 51, 0
5, 173568, Note_on_c, 9, 44, 0
5, 173568, Note_on_c, 9, 51, 70
5, 173696, Note_on_c, 9, 51, 0
5, 173952, Note_on_c, 9, 44, 113
5, 173952, Note_on_c, 9, 51, 77
5, 174080, Note_on_c, 9, 51, 0
5, 174242, Note_on_c, 9, 36, 11
5, 174272, Note_on_c, 9, 36, 0
5, 174336, Note_on_c, 9, 44, 0
5, 174336, Note_on_c, 9, 51, 75
5, 174464, Note_on_c, 9, 51, 0
5, 174720, Note_on_c, 9, 44, 117
5, 174720, Note_on_c, 9, 51, 77
5, 174746, Note_on_c, 9, 37, 80
5, 174848, Note_on_c, 9, 51, 0
5, 174858, Note_on_c, 9, 37, 0
5, 174976, Note_on_c, 9, 51, 56
5, 175104, Note_on_c, 9, 51, 0
5, 175104, Note_on_c, 9, 44, 0
5, 175104, Note_on_c, 9, 51, 65
5, 175232, Note_on_c, 9, 51, 0
5, 175488, Note_on_c, 9, 44, 115
5, 175488, Note_on_c, 9, 51, 73
5, 175616, Note_on_c, 9, 51, 0
5, 175744, Note_on_c, 9, 51, 47
5, 175872, Note_on_c, 9, 51, 0
5, 175872, Note_on_c, 9, 44, 0
5, 175872, Note_on_c, 9, 51, 64
5, 176000, Note_on_c, 9, 51, 0
5, 176246, Note_on_c, 9, 37, 80
5, 176256, Note_on_c, 9, 44, 111
5, 176256, Note_on_c, 9, 51, 79
5, 176384, Note_on_c, 9, 51, 0
5, 176390, Note_on_c, 9, 37, 0
5, 176512, Note_on_c, 9, 51, 57
5, 176640, Note_on_c, 9, 51, 0
5, 176640, Note_on_c, 9, 44, 0
5, 176640, Note_on_c, 9, 51, 69
5, 176768, Note_on_c, 9, 51, 0
5, 177024, Note_on_c, 9, 44, 115
5, 177024, Note_on_c, 9, 51, 77
5, 177152, Note_on_c, 9, 51, 0
5, 177280, Note_on_c, 9, 51, 46
5, 177408, Note_on_c, 9, 51, 0
5, 177408, Note_on_c, 9, 44, 0
5, 177408, Note_on_c, 9, 51, 65
5, 177536, Note_on_c, 9, 51, 0
5, 177792, Note_on_c, 9, 46, 111
5, 177792, Note_on_c, 9, 51, 83
5, 177796, Note_on_c, 9, 37, 82
5, 177920, Note_on_c, 9, 51, 0
5, 177942, Note_on_c, 9, 37, 0
5, 178048, Note_on_c, 9, 51, 59
5, 178176, Note_on_c, 9, 51, 0
5, 178176, Note_on_c, 9, 46, 0
5, 178176, Note_on_c, 9, 51, 68
5, 178304, Note_on_c, 9, 51, 0
5, 178560, Note_on_c, 9, 44, 104
5, 178560, Note_on_c, 9, 51, 80
5, 178688, Note_on_c, 9, 51, 0
5, 178816, Note_on_c, 9, 51, 60
5, 178824, Note_on_c, 9, 37, 56
5, 178876, Note_on_c, 9, 37, 0
5, 178944, Note_on_c, 9, 51, 0
5, 178944, Note_on_c, 9, 44, 0
5, 178944, Note_on_c, 9, 51, 59
5, 178948, Note_on_c, 9, 37, 56
5, 179052, Note_on_c, 9, 37, 0
5, 179072, Note_on_c, 9, 51, 0
5, 179202, Note_on_c, 9, 36, 80
5, 179328, Note_on_c, 9, 44, 108
5, 179328, Note_on_c, 9, 51, 71
5, 179456, Note_on_c, 9, 51, 0
5, 179522, Note_on_c, 9, 36, 0
5, 179584, Note_on_c, 9, 51, 62
5, 179712, Note_on_c, 9, 51, 0
5, 179712, Note_on_c, 9, 44, 0
5, 179714, Note_on_c, 9, 36, 62
5, 179852, Note_on_c, 9, 36, 0
5, 180096, Note_on_c, 9, 44, 112
5, 180096, Note_on_c, 9, 51, 67
5, 180224, Note_on_c, 9, 51, 0
5, 180480, Note_on_c, 9, 44, 0
5, 180480, Note_on_c, 9, 51, 59
5, 180608, Note_on_c, 9, 51, 0
5, 180800, Note_on_c, 9, 37, 10
5, 180828, Note_on_c, 9, 37, 0
5, 180864, Note_on_c, 9, 44, 117
5, 180864, Note_on_c, 9, 51, 58
5, 180888, Note_on_c, 9, 38, 35
5, 180916, Note_on_c, 9, 38, 0
5, 180992, Note_on_c, 9, 51, 0
5, 181120, Note_on_c, 9, 51, 69
5, 181248, Note_on_c, 9, 51, 0
5, 181248, Note_on_c, 9, 44, 0
5, 181248, Note_on_c, 9, 51, 67
5, 181504, Note_on_c, 9, 51, 0
5, 181632, Note_on_c, 9, 44, 114
5, 181632, Note_on_c, 9, 51, 77
5, 181760, Note_on_c, 9, 51, 0
5, 182016, Note_on_c, 9, 44, 0
5, 182016, Note_on_c, 9, 51, 68
5, 182144, Note_on_c, 9, 51, 0
5, 182400, Note_on_c, 9, 44, 115
5, 182400, Note_on_c, 9, 51, 77
5, 182528, Note_on_c, 9, 51, 0
5, 182656, Note_on_c, 9, 51, 56
5, 182784, Note_on_c, 9, 51, 0
5, 182784, Note_on_c, 9, 44, 0
5, 182784, Note_on_c, 9, 51, 62
5, 183040, Note_on_c, 9, 51, 0
5, 183168, Note_on_c, 9, 44, 109
5, 183168, Note_on_c, 9, 51, 83
5, 183296, Note_on_c, 9, 51, 0
5, 183424, Note_on_c, 9, 51, 56
5, 183552, Note_on_c, 9, 51, 0
5, 183552, Note_on_c, 9, 44, 0
5, 183552, Note_on_c, 9, 51, 71
5, 183556, Note_on_c, 9, 37, 38
5, 183678, Note_on_c, 9, 37, 0
5, 183808, Note_on_c, 9, 51, 0
5, 183936, Note_on_c, 9, 44, 112
5, 183936, Note_on_c, 9, 51, 85
5, 183944, Note_on_c, 9, 37, 34
5, 184064, Note_on_c, 9, 51, 0
5, 184100, Note_on_c, 9, 37, 0
5, 184192, Note_on_c, 9, 51, 55
5, 184320, Note_on_c, 9, 51, 0
5, 184320, Note_on_c, 9, 44, 0
5, 184320, Note_on_c, 9, 51, 62
5, 184576, Note_on_c, 9, 51, 0
5, 184704, Note_on_c, 9, 44, 111
5, 184704, Note_on_c, 9, 51, 82
5, 184832, Note_on_c, 9, 51, 0
5, 185088, Note_on_c, 9, 44, 0
5, 185088, Note_on_c, 9, 51, 70
5, 185216, Note_on_c, 9, 51, 0
5, 185472, Note_on_c, 9, 44, 114
5, 185472, Note_on_c, 9, 51, 83
5, 185600, Note_on_c, 9, 51, 0
5, 185728, Note_on_c, 9, 51, 55
5, 185750, Note_on_c, 9, 37, 14
5, 185778, Note_on_c, 9, 37, 0
5, 185856, Note_on_c, 9, 51, 0
5, 185856, Note_on_c, 9, 44, 0
5, 185856, Note_on_c, 9, 51, 57
5, 185860, Note_on_c, 9, 37, 33
5, 185914, Note_on_c, 9, 37, 0
5, 186112, Note_on_c, 9, 51, 0
5, 186240, Note_on_c, 9, 44, 108
5, 186240, Note_on_c, 9, 51, 77
5, 186368, Note_on_c, 9, 51, 0
5, 186496, Note_on_c, 9, 51, 56
5, 186624, Note_on_c, 9, 51, 0
5, 186624, Note_on_c, 9, 44, 0
5, 186624, Note_on_c, 9, 51, 45
5, 186752, Note_on_c, 9, 51, 0
5, 186880, Note_on_c, 9, 51, 65
5, 186884, Note_on_c, 9, 37, 40
5, 186974, Note_on_c, 9, 37, 0
5, 187008, Note_on_c, 9, 51, 0
5, 187008, Note_on_c, 9, 44, 116
5, 187008, Note_on_c, 9, 51, 76
5, 187030, Note_on_c, 9, 36, 18
5, 187192, Note_on_c, 9, 36, 0
5, 187264, Note_on_c, 9, 51, 0
5, 187392, Note_on_c, 9, 44, 0
5, 187392, Note_on_c, 9, 51, 36
5, 187520, Note_on_c, 9, 51, 0
5, 187648, Note_on_c, 9, 51, 44
5, 187776, Note_on_c, 9, 51, 0
5, 187776, Note_on_c, 9, 44, 113
5, 187776, Note_on_c, 9, 51, 79
5, 187904, Note_on_c, 9, 51, 0
5, 188156, Note_on_c, 9, 37, 43
5, 188160, Note_on_c, 9, 44, 0
5, 188160, Note_on_c, 9, 51, 52
5, 188218, Note_on_c, 9, 37, 0
5, 188288, Note_on_c, 9, 51, 0
5, 188416, Note_on_c, 9, 51, 43
5, 188544, Note_on_c, 9, 51, 0
5, 188544, Note_on_c, 9, 44, 117
5, 188544, Note_on_c, 9, 51, 83
5, 188672, Note_on_c, 9, 51, 0
5, 188792, Note_on_c, 9, 37, 35
5, 188820, Note_on_c, 9, 37, 0
5, 188928, Note_on_c, 9, 44, 0
5, 188928, Note_on_c, 9, 51, 38
5, 189056, Note_on_c, 9, 51, 0
5, 189184, Note_on_c, 9, 51, 52
5, 189312, Note_on_c, 9, 51, 0
5, 189312, Note_on_c, 9, 44, 115
5, 189312, Note_on_c, 9, 51, 81
5, 189568, Note_on_c, 9, 51, 0
5, 189696, Note_on_c, 9, 44, 0
5, 189696, Note_on_c, 9, 51, 46
5, 189824, Note_on_c, 9, 51, 0
5, 189936, Note_on_c, 9, 37, 28
5, 189998, Note_on_c, 9, 37, 0
5, 190080, Note_on_c, 9, 44, 111
5, 190080, Note_on_c, 9, 51, 59
5, 190100, Note_on_c, 9, 36, 26
5, 190208, Note_on_c, 9, 51, 0
5, 190242, Note_on_c, 9, 36, 0
5, 190336, Note_on_c, 9, 53, 74
5, 190464, Note_on_c, 9, 53, 0
5, 190464, Note_on_c, 9, 44, 0
5, 190464, Note_on_c, 9, 51, 54
5, 190592, Note_on_c, 9, 51, 0
5, 190714, Note_on_c, 9, 37, 41
5, 190720, Note_on_c, 9, 53, 88
5, 190804, Note_on_c, 9, 37, 0
5, 190848, Note_on_c, 9, 53, 0
5, 190848, Note_on_c, 9, 44, 115
5, 190848, Note_on_c, 9, 51, 32
5, 190868, Note_on_c, 9, 36, 22
5, 190942, Note_on_c, 9, 36, 0
5, 191104, Note_on_c, 9, 51, 0
5, 191232, Note_on_c, 9, 44, 0
5, 191232, Note_on_c, 9, 51, 46
5, 191454, Note_on_c, 9, 38, 28
5, 191488, Note_on_c, 9, 38, 0
5, 191488, Note_on_c, 9, 51, 0
5, 191548, Note_on_c, 9, 37, 25
5, 191616, Note_on_c, 9, 46, 111
5, 191616, Note_on_c, 9, 51, 67
5, 191744, Note_on_c, 9, 51, 0
5, 191756, Note_on_c, 9, 37, 0
5, 191872, Note_on_c, 9, 51, 54
5, 192000, Note_on_c, 9, 51, 0
5, 192000, Note_on_c, 9, 46, 0
5, 192000, Note_on_c, 9, 51, 68
5, 192256, Note_on_c, 9, 51, 0
5, 192384, Note_on_c, 9, 44, 104
5, 192384, Note_on_c, 9, 51, 67
5, 192640, Note_on_c, 9, 51, 0
5, 192768, Note_on_c, 9, 44, 0
5, 192768, Note_on_c, 9, 51, 49
5, 192768, Note_on_c, 9, 51, 71
5, 192896, Note_on_c, 9, 51, 0
5, 193024, Note_on_c, 9, 51, 0
5, 193042, Note_on_c, 9, 36, 12
5, 193072, Note_on_c, 9, 36, 0
5, 193152, Note_on_c, 9, 44, 108
5, 193152, Note_on_c, 9, 51, 71
5, 193408, Note_on_c, 9, 51, 0
5, 193536, Note_on_c, 9, 44, 0
5, 193536, Note_on_c, 9, 51, 73
5, 193792, Note_on_c, 9, 51, 0
5, 193812, Note_on_c, 9, 36, 17
5, 193846, Note_on_c, 9, 36, 0
5, 193920, Note_on_c, 9, 44, 112
5, 193920, Note_on_c, 9, 51, 74
5, 193942, Note_on_c, 9, 36, 22
5, 193988, Note_on_c, 9, 36, 0
5, 194176, Note_on_c, 9, 51, 0
5, 194304, Note_on_c, 9, 44, 0
5, 194304, Note_on_c, 9, 51, 67
5, 194432, Note_on_c, 9, 51, 0
5, 194432, Note_on_c, 9, 51, 67
5, 194560, Note_on_c, 9, 51, 0
5, 194688, Note_on_c, 9, 44, 117
5, 194688, Note_on_c, 9, 51, 74
5, 194816, Note_on_c, 9, 51, 0
5, 194816, Note_on_c, 9, 51, 54
5, 194944, Note_on_c, 9, 51, 0
5, 195072, Note_on_c, 9, 44, 0
5, 195072, Note_on_c, 9, 51, 72
5, 195328, Note_on_c, 9, 51, 0
5, 195456, Note_on_c, 9, 44, 114
5, 195456, Note_on_c, 9, 51, 69
5, 195712, Note_on_c, 9, 51, 0
5, 195734, Note_on_c, 9, 36, 28
5, 195770, Note_on_c, 9, 36, 0
5, 195840, Note_on_c, 9, 44, 0
5, 195840, Note_on_c, 9, 51, 69
5, 196096, Note_on_c, 9, 51, 0
5, 196224, Note_on_c, 9, 44, 115
5, 196224, Note_on_c, 9, 51, 70
5, 196352, Note_on_c, 9, 51, 0
5, 196480, Note_on_c, 9, 51, 46
5, 196486, Note_on_c, 9, 36, 42
5, 196522, Note_on_c, 9, 36, 0
5, 196608, Note_on_c, 9, 51, 0
5, 196608, Note_on_c, 9, 44, 0
5, 196608, Note_on_c, 9, 51, 74
5, 196610, Note_on_c, 9, 36, 28
5, 196670, Note_on_c, 9, 36, 0
5, 196864, Note_on_c, 9, 51, 0
5, 196992, Note_on_c, 9, 44, 109
5, 196992, Note_on_c, 9, 51, 74
5, 197248, Note_on_c, 9, 51, 0
5, 197248, Note_on_c, 9, 51, 60
5, 197272, Note_on_c, 9, 36, 35
5, 197308, Note_on_c, 9, 36, 0
5, 197376, Note_on_c, 9, 51, 0
5, 197376, Note_on_c, 9, 44, 0
5, 197376, Note_on_c, 9, 51, 65
5, 197632, Note_on_c, 9, 51, 0
5, 197760, Note_on_c, 9, 44, 112
5, 197760, Note_on_c, 9, 51, 70
5, 198016, Note_on_c, 9, 51, 0
5, 198018, Note_on_c, 9, 37, 41
5, 198094, Note_on_c, 9, 37, 0
5, 198140, Note_on_c, 9, 36, 31
5, 198144, Note_on_c, 9, 44, 0
5, 198144, Note_on_c, 9, 51, 67
5, 198308, Note_on_c, 9, 36, 0
5, 198400, Note_on_c, 9, 51, 0
5, 198528, Note_on_c, 9, 44, 111
5, 198528, Note_on_c, 9, 51, 71
5, 198656, Note_on_c, 9, 51, 0
5, 198784, Note_on_c, 9, 51, 45
5, 198912, Note_on_c, 9, 51, 0
5, 198912, Note_on_c, 9, 44, 0
5, 198912, Note_on_c, 9, 51, 70
5, 198918, Note_on_c, 9, 36, 22
5, 198962, Note_on_c, 9, 36, 0
5, 199168, Note_on_c, 9, 51, 0
5, 199296, Note_on_c, 9, 44, 114
5, 199296, Note_on_c, 9, 51, 77
5, 199424, Note_on_c, 9, 51, 0
5, 199552, Note_on_c, 9, 51, 48
5, 199570, Note_on_c, 9, 36, 66
5, 199628, Note_on_c, 9, 36, 0
5, 199680, Note_on_c, 9, 51, 0
5, 199680, Note_on_c, 9, 44, 0
5, 199680, Note_on_c, 9, 51, 64
5, 199808, Note_on_c, 9, 51, 0
5, 199936, Note_on_c, 9, 51, 48
5, 200064, Note_on_c, 9, 51, 0
5, 200064, Note_on_c, 9, 44, 108
5, 200064, Note_on_c, 9, 51, 73
5, 200320, Note_on_c, 9, 51, 0
5, 200352, Note_on_c, 9, 37, 10
5, 200384, Note_on_c, 9, 37, 0
5, 200448, Note_on_c, 9, 44, 0
5, 200448, Note_on_c, 9, 51, 43
5, 200448, Note_on_c, 9, 36, 47
5, 200514, Note_on_c, 9, 36, 0
5, 200576, Note_on_c, 9, 51, 0
5, 200704, Note_on_c, 9, 51, 51
5, 200832, Note_on_c, 9, 51, 0
5, 200832, Note_on_c, 9, 44, 116
5, 200832, Note_on_c, 9, 51, 84
5, 201084, Note_on_c, 9, 37, 39
5, 201088, Note_on_c, 9, 51, 0
5, 201152, Note_on_c, 9, 37, 0
5, 201216, Note_on_c, 9, 44, 0
5, 201216, Note_on_c, 9, 51, 33
5, 201232, Note_on_c, 9, 36, 19
5, 201236, Note_on_c, 9, 57, 58
5, 201264, Note_on_c, 9, 57, 0
5, 201268, Note_on_c, 9, 36, 0
5, 201344, Note_on_c, 9, 51, 0
5, 201472, Note_on_c, 9, 51, 52
5, 201600, Note_on_c, 9, 51, 0
5, 201600, Note_on_c, 9, 44, 113
5, 201600, Note_on_c, 9, 51, 77
5, 201856, Note_on_c, 9, 51, 0
5, 201858, Note_on_c, 9, 37, 43
5, 201918, Note_on_c, 9, 37, 0
5, 201984, Note_on_c, 9, 44, 0
5, 201984, Note_on_c, 9, 51, 32
5, 202014, Note_on_c, 9, 36, 38
5, 202046, Note_on_c, 9, 36, 0
5, 202112, Note_on_c, 9, 51, 0
5, 202240, Note_on_c, 9, 51, 42
5, 202368, Note_on_c, 9, 51, 0
5, 202368, Note_on_c, 9, 44, 117
5, 202368, Note_on_c, 9, 51, 76
5, 202622, Note_on_c, 9, 36, 65
5, 202624, Note_on_c, 9, 51, 0
5, 202676, Note_on_c, 9, 36, 0
5, 202752, Note_on_c, 9, 44, 0
5, 202752, Note_on_c, 9, 51, 54
5, 202880, Note_on_c, 9, 51, 0
5, 203008, Note_on_c, 9, 51, 47
5, 203136, Note_on_c, 9, 51, 0
5, 203136, Note_on_c, 9, 44, 115
5, 203136, Note_on_c, 9, 51, 78
5, 203392, Note_on_c, 9, 51, 0
5, 203520, Note_on_c, 9, 44, 0
5, 203520, Note_on_c, 9, 51, 13
5, 203648, Note_on_c, 9, 51, 0
5, 203776, Note_on_c, 9, 51, 61
5, 203808, Note_on_c, 9, 31, 18
5, 203850, Note_on_c, 9, 31, 0
5, 203882, Note_on_c, 9, 37, 64
5, 203894, Note_on_c, 9, 56, 54
5, 203904, Note_on_c, 9, 51, 0
5, 203904, Note_on_c, 9, 44, 111
5, 203904, Note_on_c, 9, 51, 80
5, 204116, Note_on_c, 9, 56, 0
5, 204160, Note_on_c, 9, 51, 0
5, 204160, Note_on_c, 9, 36, 84
5, 204162, Note_on_c, 9, 57, 80
5, 204202, Note_on_c, 9, 37, 0
5, 204288, Note_on_c, 9, 44, 0
5, 204288, Note_on_c, 9, 51, 78
5, 204544, Note_on_c, 9, 51, 0
5, 204670, Note_on_c, 9, 57, 0
5, 204796, Note_on_c, 9, 36, 0
5, 204796, End_track
6, 0, Start_track
6, 0, End_track
0, 0, End_of_file
