0, 0, Header, 0, 1, 384
1, 0, Start_track
1, 0, Title_t, "Blame It on My Youth"
1, 0, Text_t, "dougmck@pipeline.com.au. This needs a good acoustic bass sound with lots of 'rattle' on the hard plucked low strings. If you have a Creative Live sound card, Email me for a soundfont I did sampling vibrating low notes from a Ray Brown CD that is excellen\012"
1, 0, System_exclusive, 5, 126, 127, 9, 1, 247
1, 0, Time_signature, 4, 2, 24, 8
1, 0, Key_signature, -3, "major"
1, 0, Tempo, 600000
1, 0, Sequencer_specific, 21, 67, 115, 10, 0, 5, 75, 90, 79, 79, 79, 79, 79, 79, 79, 90, 79, 79, 79, 79, 79, 79
1, 0, Sequencer_specific, 6, 67, 115, 10, 0, 4, 1
1, 0, Sequencer_specific, 9, 67, 123, 0, 88, 70, 48, 50, 0, 0
1, 384, Control_c, 0, 0, 0
1, 384, Control_c, 0, 32, 0
1, 384, Program_c, 0, 0
1, 385, Control_c, 0, 7, 107
1, 385, Control_c, 0, 10, 64
1, 385, Control_c, 0, 91, 10
1, 385, Control_c, 0, 93, 0
1, 386, Control_c, 1, 0, 0
1, 386, Control_c, 1, 32, 0
1, 386, Program_c, 1, 32
1, 387, Control_c, 1, 7, 85
1, 387, Control_c, 1, 10, 64
1, 387, Control_c, 1, 91, 16
1, 387, Control_c, 1, 93, 0
1, 402, Control_c, 9, 0, 0
1, 402, Program_c, 9, 40
1, 403, Control_c, 9, 7, 59
1, 1536, Note_on_c, 9, 40, 52
1, 1536, Tempo, 845070
1, 1546, Note_on_c, 9, 57, 29
1, 1546, Note_on_c, 9, 35, 24
1, 1562, Note_on_c, 0, 83, 66
1, 1562, Note_on_c, 1, 31, 119
1, 1566, Note_on_c, 9, 57, 0
1, 1570, Note_on_c, 9, 35, 0
1, 1570, Note_on_c, 0, 59, 38
1, 1902, Note_on_c, 9, 40, 65
1, 1906, Note_on_c, 9, 40, 0
1, 1906, Note_on_c, 9, 44, 73
1, 2026, Control_c, 0, 64, 127
1, 2198, Note_on_c, 0, 59, 0
1, 2290, Note_on_c, 9, 40, 0
1, 2302, Note_on_c, 9, 40, 55
1, 2328, Note_on_c, 9, 44, 0
1, 2354, Note_on_c, 0, 83, 0
1, 2366, Note_on_c, 0, 84, 15
1, 2434, Note_on_c, 0, 84, 0
1, 2666, Note_on_c, 0, 57, 45
1, 2674, Note_on_c, 9, 40, 0
1, 2674, Note_on_c, 9, 44, 77
1, 2678, Note_on_c, 0, 62, 48
1, 2682, Note_on_c, 0, 74, 60
1, 2696, Note_on_c, 9, 40, 67
1, 2702, Note_on_c, 0, 63, 46
1, 2706, Note_on_c, 1, 41, 127
1, 2710, Note_on_c, 1, 31, 0
1, 2710, Note_on_c, 0, 79, 68
1, 2726, Control_c, 0, 64, 0
1, 2734, Note_on_c, 0, 83, 45
1, 2734, Note_on_c, 0, 67, 54
1, 2766, Note_on_c, 0, 86, 77
1, 2834, Control_c, 0, 64, 127
1, 2918, Note_on_c, 0, 74, 0
1, 2922, Note_on_c, 0, 62, 0
1, 2930, Note_on_c, 0, 67, 0
1, 2938, Note_on_c, 0, 63, 0
1, 2950, Note_on_c, 0, 79, 0
1, 2962, Note_on_c, 0, 57, 0
1, 2962, Note_on_c, 0, 83, 0
1, 2970, Note_on_c, 0, 86, 0
1, 3058, Note_on_c, 9, 40, 0
1, 3074, Note_on_c, 9, 40, 50
1, 3114, Note_on_c, 9, 44, 0
1, 3122, Note_on_c, 1, 40, 112
1, 3142, Note_on_c, 1, 41, 0
1, 3154, Note_on_c, 0, 88, 14
1, 3158, Note_on_c, 0, 81, 24
1, 3158, Note_on_c, 0, 67, 36
1, 3162, Note_on_c, 0, 76, 70
1, 3162, Note_on_c, 0, 64, 43
1, 3166, Note_on_c, 0, 69, 39
1, 3166, Control_c, 0, 64, 0
1, 3314, Control_c, 0, 64, 127
1, 3362, Note_on_c, 0, 67, 0
1, 3426, Note_on_c, 0, 64, 0
1, 3442, Note_on_c, 9, 40, 0
1, 3442, Note_on_c, 9, 44, 70
1, 3460, Note_on_c, 9, 40, 62
1, 3526, Note_on_c, 0, 65, 43
1, 3546, Note_on_c, 0, 62, 30
1, 3686, Note_on_c, 0, 88, 0
1, 3714, Note_on_c, 0, 81, 0
1, 3722, Note_on_c, 0, 76, 0
1, 3734, Note_on_c, 0, 69, 0
1, 3738, Note_on_c, 0, 62, 0
1, 3742, Note_on_c, 0, 65, 0
1, 3810, Note_on_c, 9, 44, 0
1, 3826, Note_on_c, 9, 40, 0
1, 3864, Note_on_c, 9, 40, 67
1, 3894, Note_on_c, 0, 56, 50
1, 3906, Control_c, 0, 64, 0
1, 3994, Control_c, 0, 64, 127
1, 4058, Note_on_c, 1, 52, 127
1, 4146, Note_on_c, 1, 52, 0
1, 4148, Note_on_c, 9, 39, 46
1, 4178, Note_on_c, 1, 53, 115
1, 4194, Note_on_c, 9, 39, 0
1, 4210, Note_on_c, 9, 40, 0
1, 4210, Note_on_c, 9, 46, 39
1, 4226, Note_on_c, 1, 53, 0
1, 4226, Note_on_c, 9, 40, 50
1, 4228, Note_on_c, 9, 46, 0
1, 4250, Note_on_c, 1, 52, 98
1, 4306, Note_on_c, 0, 67, 37
1, 4314, Note_on_c, 1, 40, 0
1, 4314, Note_on_c, 0, 62, 38
1, 4346, Note_on_c, 1, 52, 0
1, 4378, Note_on_c, 1, 50, 111
1, 4410, Note_on_c, 0, 62, 0
1, 4422, Note_on_c, 0, 67, 0
1, 4426, Note_on_c, 1, 50, 0
1, 4426, Note_on_c, 9, 40, 52
1, 4466, Note_on_c, 1, 48, 83
1, 4502, Note_on_c, 0, 56, 0
1, 4550, Note_on_c, 1, 48, 0
1, 4574, Note_on_c, 1, 47, 100
1, 4594, Note_on_c, 9, 40, 0
1, 4606, Note_on_c, 9, 40, 57
1, 4610, Note_on_c, 0, 76, 81
1, 4626, Note_on_c, 1, 47, 0
1, 4670, Note_on_c, 1, 49, 58
1, 4670, Note_on_c, 1, 45, 72
1, 4674, Control_c, 0, 64, 0
1, 4686, Note_on_c, 1, 49, 0
1, 4698, Note_on_c, 0, 60, 52
1, 4702, Note_on_c, 0, 59, 46
1, 4702, Note_on_c, 0, 64, 38
1, 4714, Note_on_c, 0, 76, 0
1, 4718, Note_on_c, 0, 57, 39
1, 4778, Note_on_c, 0, 81, 98
1, 4822, Note_on_c, 1, 45, 0
1, 4834, Note_on_c, 1, 40, 88
1, 4858, Control_c, 0, 64, 127
1, 4882, Note_on_c, 0, 81, 0
1, 4926, Note_on_c, 0, 81, 85
1, 4954, Note_on_c, 0, 64, 0
1, 4978, Note_on_c, 9, 40, 0
1, 4978, Note_on_c, 9, 40, 0
1, 4978, Note_on_c, 9, 44, 52
1, 4982, Note_on_c, 0, 60, 0
1, 4990, Note_on_c, 0, 59, 0
1, 5006, Note_on_c, 0, 81, 0
1, 5010, Note_on_c, 9, 40, 62
1, 5014, Note_on_c, 1, 33, 93
1, 5018, Note_on_c, 1, 40, 0
1, 5060, Note_on_c, 9, 44, 0
1, 5074, Note_on_c, 0, 64, 48
1, 5082, Note_on_c, 0, 60, 39
1, 5086, Note_on_c, 0, 59, 25
1, 5094, Note_on_c, 0, 81, 69
1, 5202, Note_on_c, 0, 81, 0
1, 5282, Note_on_c, 0, 81, 62
1, 5330, Note_on_c, 0, 81, 0
1, 5334, Note_on_c, 0, 64, 0
1, 5346, Note_on_c, 0, 59, 0
1, 5362, Note_on_c, 9, 40, 0
1, 5366, Note_on_c, 0, 81, 68
1, 5378, Note_on_c, 0, 60, 0
1, 5390, Note_on_c, 0, 57, 0
1, 5400, Note_on_c, 9, 40, 52
1, 5406, Note_on_c, 0, 81, 0
1, 5450, Note_on_c, 0, 81, 75
1, 5470, Note_on_c, 0, 64, 52
1, 5474, Note_on_c, 0, 59, 46
1, 5474, Control_c, 0, 64, 0
1, 5478, Note_on_c, 0, 60, 48
1, 5478, Note_on_c, 0, 57, 41
1, 5514, Note_on_c, 0, 81, 0
1, 5558, Note_on_c, 0, 81, 79
1, 5578, Control_c, 0, 64, 127
1, 5662, Note_on_c, 0, 81, 0
1, 5686, Note_on_c, 0, 64, 0
1, 5694, Note_on_c, 0, 60, 0
1, 5694, Note_on_c, 0, 81, 86
1, 5706, Note_on_c, 0, 59, 0
1, 5746, Note_on_c, 9, 40, 0
1, 5746, Note_on_c, 9, 44, 61
1, 5758, Note_on_c, 9, 40, 52
1, 5786, Note_on_c, 0, 81, 0
1, 5818, Note_on_c, 0, 64, 50
1, 5826, Note_on_c, 0, 60, 48
1, 5830, Note_on_c, 0, 81, 85
1, 5838, Note_on_c, 0, 59, 34
1, 5866, Note_on_c, 9, 44, 0
1, 5914, Note_on_c, 0, 59, 0
1, 5914, Note_on_c, 0, 57, 0
1, 5930, Note_on_c, 0, 60, 0
1, 5934, Note_on_c, 0, 64, 0
1, 5942, Note_on_c, 0, 81, 0
1, 5978, Note_on_c, 0, 83, 98
1, 5986, Note_on_c, 1, 31, 112
1, 6006, Note_on_c, 1, 33, 0
1, 6074, Note_on_c, 0, 83, 0
1, 6102, Note_on_c, 0, 84, 96
1, 6130, Note_on_c, 9, 40, 0
1, 6132, Note_on_c, 9, 40, 47
1, 6202, Note_on_c, 0, 84, 0
1, 6218, Note_on_c, 0, 63, 44
1, 6218, Note_on_c, 0, 86, 68
1, 6222, Control_c, 0, 64, 0
1, 6222, Note_on_c, 0, 67, 41
1, 6222, Note_on_c, 0, 58, 48
1, 6226, Note_on_c, 0, 62, 46
1, 6314, Note_on_c, 0, 86, 0
1, 6346, Note_on_c, 1, 31, 0
1, 6354, Note_on_c, 0, 87, 68
1, 6354, Control_c, 0, 64, 127
1, 6354, Note_on_c, 1, 36, 120
1, 6482, Note_on_c, 0, 67, 0
1, 6490, Note_on_c, 0, 62, 0
1, 6510, Note_on_c, 0, 63, 0
1, 6514, Note_on_c, 9, 40, 0
1, 6514, Note_on_c, 9, 44, 62
1, 6536, Note_on_c, 9, 40, 52
1, 6542, Note_on_c, 1, 48, 127
1, 6574, Note_on_c, 9, 44, 0
1, 6590, Note_on_c, 1, 36, 0
1, 6598, Note_on_c, 0, 67, 39
1, 6598, Note_on_c, 0, 63, 40
1, 6614, Note_on_c, 0, 62, 39
1, 6730, Note_on_c, 0, 62, 0
1, 6754, Note_on_c, 0, 58, 0
1, 6762, Note_on_c, 0, 67, 0
1, 6806, Note_on_c, 0, 63, 0
1, 6826, Note_on_c, 1, 36, 92
1, 6898, Note_on_c, 9, 40, 0
1, 6906, Note_on_c, 9, 40, 55
1, 6918, Note_on_c, 1, 48, 0
1, 6926, Note_on_c, 1, 36, 0
1, 6934, Note_on_c, 1, 41, 111
1, 6962, Control_c, 0, 64, 0
1, 6966, Note_on_c, 0, 87, 0
1, 6978, Note_on_c, 0, 63, 39
1, 6978, Note_on_c, 0, 67, 34
1, 6982, Note_on_c, 0, 62, 38
1, 6982, Note_on_c, 0, 57, 41
1, 7074, Control_c, 0, 64, 127
1, 7096, Note_on_c, 9, 40, 47
1, 7222, Note_on_c, 0, 67, 0
1, 7234, Note_on_c, 0, 62, 0
1, 7234, Note_on_c, 0, 63, 0
1, 7282, Note_on_c, 9, 40, 0
1, 7282, Note_on_c, 9, 44, 51
1, 7282, Note_on_c, 9, 40, 67
1, 7350, Note_on_c, 0, 67, 39
1, 7354, Note_on_c, 0, 63, 40
1, 7366, Note_on_c, 0, 62, 19
1, 7380, Note_on_c, 9, 44, 0
1, 7414, Note_on_c, 0, 67, 0
1, 7426, Note_on_c, 0, 63, 0
1, 7438, Note_on_c, 0, 62, 0
1, 7478, Note_on_c, 0, 57, 0
1, 7502, Note_on_c, 0, 74, 69
1, 7550, Note_on_c, 0, 74, 0
1, 7586, Note_on_c, 9, 35, 27
1, 7602, Note_on_c, 9, 35, 0
1, 7606, Note_on_c, 0, 76, 75
1, 7642, Note_on_c, 0, 76, 0
1, 7666, Note_on_c, 9, 40, 0
1, 7666, Note_on_c, 9, 40, 0
1, 7674, Note_on_c, 9, 40, 77
1, 7690, Control_c, 0, 64, 0
1, 7726, Note_on_c, 0, 73, 49
1, 7734, Note_on_c, 0, 79, 45
1, 7742, Note_on_c, 0, 59, 36
1, 7750, Note_on_c, 0, 64, 29
1, 7750, Note_on_c, 0, 53, 41
1, 7750, Note_on_c, 0, 67, 15
1, 7794, Note_on_c, 0, 73, 0
1, 7802, Note_on_c, 0, 74, 51
1, 7826, Note_on_c, 0, 53, 0
1, 7830, Note_on_c, 0, 67, 0
1, 7830, Note_on_c, 0, 64, 0
1, 7838, Note_on_c, 0, 79, 0
1, 7838, Note_on_c, 0, 74, 0
1, 7862, Note_on_c, 0, 59, 0
1, 7862, Note_on_c, 1, 41, 0
1, 7866, Note_on_c, 1, 38, 102
1, 7918, Note_on_c, 0, 73, 49
1, 7918, Note_on_c, 0, 67, 36
1, 7922, Note_on_c, 0, 79, 47
1, 7934, Note_on_c, 0, 53, 43
1, 7938, Note_on_c, 0, 59, 36
1, 7946, Note_on_c, 0, 64, 31
1, 7966, Note_on_c, 1, 38, 0
1, 7978, Note_on_c, 1, 31, 104
1, 8018, Note_on_c, 0, 53, 0
1, 8022, Note_on_c, 0, 67, 0
1, 8022, Note_on_c, 0, 73, 0
1, 8026, Note_on_c, 0, 64, 0
1, 8034, Note_on_c, 0, 74, 43
1, 8046, Note_on_c, 0, 59, 0
1, 8050, Note_on_c, 9, 40, 0
1, 8050, Note_on_c, 9, 44, 52
1, 8062, Note_on_c, 0, 74, 0
1, 8070, Note_on_c, 0, 79, 0
1, 8074, Note_on_c, 1, 43, 112
1, 8074, Note_on_c, 9, 40, 52
1, 8114, Note_on_c, 9, 44, 0
1, 8230, Control_c, 0, 64, 127
1, 8242, Note_on_c, 0, 74, 52
1, 8246, Note_on_c, 1, 43, 0
1, 8274, Note_on_c, 1, 43, 115
1, 8290, Note_on_c, 0, 74, 0
1, 8346, Note_on_c, 0, 76, 49
1, 8372, Note_on_c, 9, 35, 33
1, 8388, Note_on_c, 9, 35, 0
1, 8402, Note_on_c, 0, 76, 0
1, 8422, Control_c, 0, 64, 0
1, 8434, Note_on_c, 9, 40, 0
1, 8438, Note_on_c, 1, 31, 0
1, 8466, Note_on_c, 9, 40, 77
1, 8474, Note_on_c, 0, 79, 45
1, 8474, Note_on_c, 0, 74, 51
1, 8474, Note_on_c, 0, 57, 36
1, 8474, Note_on_c, 0, 67, 27
1, 8474, Note_on_c, 0, 58, 39
1, 8474, Note_on_c, 1, 36, 114
1, 8482, Note_on_c, 0, 62, 32
1, 8486, Note_on_c, 0, 52, 39
1, 8490, Note_on_c, 1, 43, 0
1, 8506, Control_c, 0, 64, 127
1, 8582, Note_on_c, 0, 67, 0
1, 8598, Note_on_c, 0, 52, 0
1, 8614, Note_on_c, 0, 57, 0
1, 8630, Note_on_c, 0, 58, 0
1, 8638, Note_on_c, 0, 62, 0
1, 8646, Note_on_c, 0, 74, 0
1, 8670, Note_on_c, 0, 79, 0
1, 8818, Note_on_c, 9, 40, 0
1, 8818, Note_on_c, 9, 44, 55
1, 8846, Note_on_c, 9, 40, 70
1, 8878, Note_on_c, 9, 44, 0
1, 9002, Note_on_c, 0, 91, 94
1, 9002, Note_on_c, 0, 67, 79
1, 9002, Note_on_c, 0, 62, 61
1, 9002, Note_on_c, 0, 86, 89
1, 9002, Note_on_c, 0, 63, 63
1, 9002, Note_on_c, 0, 79, 86
1, 9006, Note_on_c, 0, 57, 68
1, 9018, Note_on_c, 0, 89, 43
1, 9026, Note_on_c, 9, 39, 46
1, 9038, Note_on_c, 0, 89, 0
1, 9062, Note_on_c, 0, 79, 0
1, 9066, Note_on_c, 0, 57, 0
1, 9074, Note_on_c, 0, 67, 0
1, 9074, Note_on_c, 0, 91, 0
1, 9090, Note_on_c, 0, 86, 0
1, 9098, Note_on_c, 0, 62, 0
1, 9102, Note_on_c, 0, 63, 0
1, 9124, Note_on_c, 9, 39, 0
1, 9130, Note_on_c, 0, 67, 75
1, 9134, Note_on_c, 0, 63, 70
1, 9138, Note_on_c, 0, 86, 87
1, 9138, Note_on_c, 0, 93, 115
1, 9138, Note_on_c, 0, 57, 57
1, 9138, Note_on_c, 0, 62, 52
1, 9142, Note_on_c, 0, 81, 86
1, 9170, Note_on_c, 1, 41, 96
1, 9174, Note_on_c, 0, 62, 0
1, 9174, Note_on_c, 1, 36, 0
1, 9182, Note_on_c, 0, 81, 0
1, 9186, Note_on_c, 0, 57, 0
1, 9186, Note_on_c, 0, 67, 0
1, 9198, Note_on_c, 0, 86, 0
1, 9198, Note_on_c, 0, 63, 0
1, 9202, Note_on_c, 9, 40, 0
1, 9202, Note_on_c, 0, 93, 0
1, 9226, Note_on_c, 9, 40, 52
1, 9258, Note_on_c, 1, 41, 0
1, 9262, Note_on_c, 1, 34, 109
1, 9270, Control_c, 0, 64, 0
1, 9278, Note_on_c, 0, 67, 74
1, 9282, Note_on_c, 0, 62, 59
1, 9282, Note_on_c, 0, 56, 63
1, 9282, Note_on_c, 0, 94, 82
1, 9282, Note_on_c, 0, 82, 82
1, 9290, Note_on_c, 0, 89, 73
1, 9290, Note_on_c, 0, 60, 61
1, 9370, Control_c, 0, 64, 127
1, 9398, Note_on_c, 0, 94, 0
1, 9402, Note_on_c, 0, 82, 0
1, 9402, Note_on_c, 0, 56, 0
1, 9406, Note_on_c, 0, 60, 0
1, 9406, Note_on_c, 0, 67, 0
1, 9410, Note_on_c, 1, 34, 0
1, 9414, Note_on_c, 0, 89, 0
1, 9418, Note_on_c, 0, 62, 0
1, 9434, Note_on_c, 1, 34, 115
1, 9450, Note_on_c, 0, 94, 65
1, 9454, Note_on_c, 0, 67, 55
1, 9454, Note_on_c, 0, 56, 49
1, 9454, Note_on_c, 0, 82, 59
1, 9458, Note_on_c, 0, 89, 59
1, 9458, Note_on_c, 0, 60, 53
1, 9462, Note_on_c, 0, 62, 63
1, 9514, Note_on_c, 0, 94, 0
1, 9526, Note_on_c, 0, 67, 0
1, 9526, Note_on_c, 0, 82, 0
1, 9530, Note_on_c, 0, 60, 0
1, 9530, Note_on_c, 0, 62, 0
1, 9530, Note_on_c, 0, 56, 0
1, 9530, Note_on_c, 0, 89, 0
1, 9578, Note_on_c, 0, 94, 62
1, 9582, Note_on_c, 0, 56, 49
1, 9582, Note_on_c, 0, 67, 60
1, 9582, Note_on_c, 0, 82, 50
1, 9586, Note_on_c, 9, 40, 0
1, 9586, Note_on_c, 0, 89, 56
1, 9586, Note_on_c, 0, 62, 46
1, 9586, Note_on_c, 0, 60, 44
1, 9586, Note_on_c, 9, 44, 56
1, 9598, Note_on_c, 9, 40, 55
1, 9634, Note_on_c, 9, 44, 0
1, 9634, Note_on_c, 0, 94, 0
1, 9634, Note_on_c, 0, 56, 0
1, 9634, Note_on_c, 0, 82, 0
1, 9638, Note_on_c, 0, 67, 0
1, 9642, Note_on_c, 0, 60, 0
1, 9650, Note_on_c, 0, 62, 0
1, 9650, Note_on_c, 0, 89, 0
1, 9706, Note_on_c, 0, 94, 58
1, 9706, Note_on_c, 0, 67, 56
1, 9714, Note_on_c, 0, 56, 40
1, 9718, Note_on_c, 0, 62, 41
1, 9722, Note_on_c, 0, 82, 49
1, 9722, Note_on_c, 0, 89, 41
1, 9726, Note_on_c, 0, 60, 41
1, 9742, Note_on_c, 0, 89, 0
1, 9754, Note_on_c, 0, 60, 0
1, 9754, Note_on_c, 0, 94, 0
1, 9758, Note_on_c, 0, 82, 0
1, 9770, Note_on_c, 0, 67, 0
1, 9774, Note_on_c, 0, 56, 0
1, 9782, Note_on_c, 0, 62, 0
1, 9842, Note_on_c, 0, 89, 54
1, 9854, Note_on_c, 0, 67, 47
1, 9862, Note_on_c, 0, 77, 38
1, 9862, Note_on_c, 0, 62, 47
1, 9870, Note_on_c, 0, 84, 36
1, 9882, Note_on_c, 0, 67, 0
1, 9886, Note_on_c, 0, 77, 0
1, 9890, Note_on_c, 0, 62, 0
1, 9892, Note_on_c, 9, 35, 30
1, 9894, Note_on_c, 0, 84, 0
1, 9902, Note_on_c, 0, 89, 0
1, 9910, Note_on_c, 1, 41, 87
1, 9938, Note_on_c, 9, 35, 0
1, 9966, Note_on_c, 0, 67, 49
1, 9970, Note_on_c, 1, 34, 0
1, 9970, Note_on_c, 9, 40, 0
1, 9974, Note_on_c, 0, 56, 36
1, 9978, Note_on_c, 0, 91, 59
1, 9986, Note_on_c, 0, 79, 41
1, 9986, Note_on_c, 0, 60, 37
1, 9986, Note_on_c, 0, 62, 31
1, 9986, Note_on_c, 9, 40, 57
1, 9988, Note_on_c, 9, 35, 36
1, 9988, Note_on_c, 9, 59, 34
1, 9994, Note_on_c, 1, 39, 111
1, 10002, Note_on_c, 0, 79, 0
1, 10002, Note_on_c, 0, 67, 0
1, 10010, Note_on_c, 1, 41, 0
1, 10010, Note_on_c, 0, 62, 0
1, 10014, Note_on_c, 9, 35, 0
1, 10020, Note_on_c, 9, 59, 0
1, 10022, Note_on_c, 0, 91, 0
1, 10022, Note_on_c, 0, 60, 0
1, 10038, Note_on_c, 0, 56, 0
1, 10070, Control_c, 0, 64, 0
1, 10094, Note_on_c, 0, 65, 43
1, 10094, Note_on_c, 0, 94, 57
1, 10094, Note_on_c, 0, 82, 54
1, 10102, Note_on_c, 0, 60, 37
1, 10106, Note_on_c, 0, 61, 48
1, 10106, Note_on_c, 0, 89, 48
1, 10110, Note_on_c, 0, 55, 45
1, 10114, Note_on_c, 0, 58, 33
1, 10154, Note_on_c, 0, 82, 0
1, 10166, Note_on_c, 1, 39, 0
1, 10170, Note_on_c, 0, 55, 0
1, 10170, Note_on_c, 0, 89, 0
1, 10178, Note_on_c, 0, 94, 0
1, 10178, Note_on_c, 0, 60, 0
1, 10178, Note_on_c, 9, 59, 38
1, 10178, Note_on_c, 9, 35, 32
1, 10186, Note_on_c, 0, 61, 0
1, 10186, Note_on_c, 0, 58, 0
1, 10186, Note_on_c, 0, 65, 0
1, 10186, Note_on_c, 1, 39, 112
1, 10194, Control_c, 0, 64, 127
1, 10222, Note_on_c, 9, 59, 0
1, 10226, Note_on_c, 9, 35, 0
1, 10258, Note_on_c, 0, 94, 57
1, 10266, Note_on_c, 0, 82, 45
1, 10266, Note_on_c, 0, 61, 42
1, 10270, Note_on_c, 0, 65, 37
1, 10274, Note_on_c, 0, 60, 45
1, 10278, Note_on_c, 0, 89, 51
1, 10282, Note_on_c, 0, 55, 34
1, 10298, Note_on_c, 0, 58, 31
1, 10314, Note_on_c, 0, 55, 0
1, 10318, Note_on_c, 0, 65, 0
1, 10318, Note_on_c, 0, 82, 0
1, 10322, Note_on_c, 0, 89, 0
1, 10326, Note_on_c, 0, 58, 0
1, 10330, Note_on_c, 0, 60, 0
1, 10334, Note_on_c, 0, 61, 0
1, 10338, Note_on_c, 0, 94, 0
1, 10354, Note_on_c, 9, 40, 0
1, 10354, Note_on_c, 9, 46, 25
1, 10362, Note_on_c, 9, 40, 65
1, 10402, Note_on_c, 9, 46, 0
1, 10422, Note_on_c, 0, 94, 55
1, 10434, Note_on_c, 0, 89, 52
1, 10434, Note_on_c, 0, 61, 38
1, 10434, Note_on_c, 0, 60, 35
1, 10434, Note_on_c, 0, 65, 27
1, 10434, Note_on_c, 0, 82, 34
1, 10450, Note_on_c, 0, 55, 34
1, 10462, Note_on_c, 0, 58, 30
1, 10486, Note_on_c, 0, 89, 0
1, 10494, Note_on_c, 0, 58, 0
1, 10502, Note_on_c, 0, 61, 0
1, 10502, Note_on_c, 0, 55, 0
1, 10502, Note_on_c, 0, 65, 0
1, 10506, Note_on_c, 0, 60, 0
1, 10510, Note_on_c, 0, 82, 0
1, 10518, Note_on_c, 0, 94, 0
1, 10598, Note_on_c, 0, 96, 69
1, 10598, Note_on_c, 0, 65, 59
1, 10602, Note_on_c, 0, 84, 63
1, 10602, Note_on_c, 0, 61, 51
1, 10606, Note_on_c, 0, 60, 48
1, 10614, Note_on_c, 0, 55, 42
1, 10654, Note_on_c, 0, 84, 0
1, 10654, Note_on_c, 0, 65, 0
1, 10658, Note_on_c, 0, 60, 0
1, 10662, Note_on_c, 1, 32, 88
1, 10670, Note_on_c, 0, 55, 0
1, 10670, Note_on_c, 0, 96, 0
1, 10678, Note_on_c, 0, 61, 0
1, 10718, Note_on_c, 1, 32, 0
1, 10738, Note_on_c, 9, 40, 0
1, 10740, Note_on_c, 9, 40, 77
1, 10742, Note_on_c, 1, 39, 0
1, 10742, Note_on_c, 1, 33, 112
1, 10746, Note_on_c, 9, 40, 62
1, 10770, Control_c, 0, 64, 72
1, 10770, Control_c, 0, 64, 0
1, 10778, Note_on_c, 0, 97, 66
1, 10794, Note_on_c, 0, 64, 66
1, 10794, Note_on_c, 0, 60, 56
1, 10794, Note_on_c, 0, 85, 61
1, 10794, Note_on_c, 0, 91, 54
1, 10794, Note_on_c, 0, 57, 51
1, 10794, Note_on_c, 0, 55, 48
1, 10850, Note_on_c, 0, 97, 0
1, 10854, Note_on_c, 0, 85, 0
1, 10854, Note_on_c, 0, 98, 49
1, 10870, Note_on_c, 0, 96, 44
1, 10870, Note_on_c, 0, 86, 36
1, 10878, Control_c, 0, 64, 127
1, 10898, Note_on_c, 0, 86, 0
1, 10922, Note_on_c, 0, 55, 0
1, 10926, Note_on_c, 0, 91, 0
1, 10930, Note_on_c, 0, 64, 0
1, 10930, Note_on_c, 0, 60, 0
1, 10934, Note_on_c, 0, 98, 0
1, 10938, Note_on_c, 0, 57, 0
1, 10950, Note_on_c, 0, 96, 0
1, 10986, Note_on_c, 0, 98, 60
1, 10994, Note_on_c, 0, 86, 50
1, 10994, Note_on_c, 0, 64, 57
1, 10994, Note_on_c, 0, 91, 43
1, 10998, Note_on_c, 0, 95, 48
1, 11002, Note_on_c, 0, 60, 49
1, 11010, Note_on_c, 0, 57, 36
1, 11010, Note_on_c, 0, 55, 42
1, 11070, Note_on_c, 0, 55, 0
1, 11070, Note_on_c, 0, 86, 0
1, 11078, Note_on_c, 0, 91, 0
1, 11086, Note_on_c, 0, 57, 0
1, 11086, Note_on_c, 0, 64, 0
1, 11090, Note_on_c, 0, 98, 0
1, 11090, Note_on_c, 0, 95, 0
1, 11090, Note_on_c, 0, 60, 0
1, 11122, Note_on_c, 9, 40, 0
1, 11122, Note_on_c, 9, 40, 0
1, 11122, Note_on_c, 9, 44, 69
1, 11128, Note_on_c, 9, 40, 72
1, 11182, Note_on_c, 0, 64, 62
1, 11190, Note_on_c, 0, 60, 56
1, 11194, Note_on_c, 0, 55, 48
1, 11194, Note_on_c, 0, 57, 41
1, 11206, Note_on_c, 0, 85, 57
1, 11214, Note_on_c, 0, 91, 47
1, 11230, Note_on_c, 9, 44, 0
1, 11246, Note_on_c, 0, 98, 21
1, 11270, Note_on_c, 0, 85, 0
1, 11282, Note_on_c, 0, 86, 42
1, 11306, Note_on_c, 0, 96, 2
1, 11310, Note_on_c, 9, 39, 62
1, 11322, Note_on_c, 0, 86, 0
1, 11322, Note_on_c, 0, 55, 0
1, 11326, Note_on_c, 0, 60, 0
1, 11334, Note_on_c, 0, 64, 0
1, 11334, Note_on_c, 0, 57, 0
1, 11346, Control_c, 0, 64, 0
1, 11350, Note_on_c, 0, 98, 0
1, 11350, Note_on_c, 0, 91, 0
1, 11366, Note_on_c, 0, 96, 0
1, 11382, Control_c, 0, 64, 127
1, 11398, Note_on_c, 0, 98, 66
1, 11398, Note_on_c, 0, 64, 48
1, 11402, Note_on_c, 0, 57, 42
1, 11402, Note_on_c, 0, 55, 42
1, 11402, Note_on_c, 0, 60, 43
1, 11402, Note_on_c, 0, 91, 50
1, 11402, Note_on_c, 0, 86, 49
1, 11414, Note_on_c, 0, 95, 48
1, 11414, Note_on_c, 0, 96, 42
1, 11462, Note_on_c, 0, 60, 0
1, 11474, Note_on_c, 0, 55, 0
1, 11474, Note_on_c, 0, 57, 0
1, 11478, Note_on_c, 0, 95, 0
1, 11482, Note_on_c, 0, 91, 0
1, 11486, Note_on_c, 9, 39, 0
1, 11490, Note_on_c, 0, 96, 0
1, 11498, Note_on_c, 0, 98, 0
1, 11498, Note_on_c, 0, 86, 0
1, 11502, Note_on_c, 0, 64, 0
1, 11502, Note_on_c, 9, 40, 62
1, 11506, Note_on_c, 9, 40, 0
1, 11726, Note_on_c, 0, 93, 82
1, 11726, Note_on_c, 0, 81, 80
1, 11730, Note_on_c, 0, 89, 75
1, 11734, Note_on_c, 0, 65, 68
1, 11738, Note_on_c, 0, 61, 57
1, 11738, Note_on_c, 0, 60, 61
1, 11738, Note_on_c, 0, 55, 62
1, 11746, Control_c, 0, 64, 0
1, 11758, Note_on_c, 0, 58, 39
1, 11758, Note_on_c, 0, 91, 31
1, 11762, Control_c, 0, 64, 127
1, 11850, Note_on_c, 0, 55, 0
1, 11850, Note_on_c, 0, 81, 0
1, 11854, Note_on_c, 0, 58, 0
1, 11862, Note_on_c, 0, 65, 0
1, 11866, Note_on_c, 0, 60, 0
1, 11874, Note_on_c, 0, 93, 0
1, 11874, Note_on_c, 0, 91, 0
1, 11874, Note_on_c, 0, 61, 0
1, 11878, Note_on_c, 0, 89, 0
1, 11890, Note_on_c, 9, 40, 0
1, 11890, Note_on_c, 9, 44, 53
1, 11892, Note_on_c, 9, 40, 60
1, 11930, Note_on_c, 0, 93, 75
1, 11930, Note_on_c, 0, 89, 74
1, 11930, Note_on_c, 0, 65, 68
1, 11930, Note_on_c, 0, 60, 58
1, 11930, Note_on_c, 0, 55, 54
1, 11930, Note_on_c, 0, 81, 77
1, 11930, Note_on_c, 0, 61, 51
1, 11982, Note_on_c, 9, 44, 0
1, 12018, Note_on_c, 0, 55, 0
1, 12026, Note_on_c, 0, 81, 0
1, 12026, Note_on_c, 0, 65, 0
1, 12034, Note_on_c, 0, 93, 0
1, 12046, Note_on_c, 0, 89, 0
1, 12046, Note_on_c, 0, 60, 0
1, 12050, Note_on_c, 0, 61, 0
1, 12090, Note_on_c, 1, 39, 118
1, 12118, Note_on_c, 1, 33, 0
1, 12126, Note_on_c, 0, 93, 69
1, 12126, Note_on_c, 0, 61, 57
1, 12126, Note_on_c, 0, 89, 68
1, 12126, Note_on_c, 0, 81, 69
1, 12126, Note_on_c, 0, 65, 63
1, 12138, Note_on_c, 0, 60, 44
1, 12138, Note_on_c, 0, 55, 50
1, 12150, Note_on_c, 0, 81, 0
1, 12158, Note_on_c, 0, 60, 0
1, 12170, Note_on_c, 0, 65, 0
1, 12178, Note_on_c, 0, 89, 0
1, 12186, Note_on_c, 0, 55, 0
1, 12190, Note_on_c, 0, 93, 0
1, 12196, Note_on_c, 9, 35, 48
1, 12198, Note_on_c, 0, 61, 0
1, 12212, Note_on_c, 9, 35, 0
1, 12270, Note_on_c, 1, 39, 0
1, 12274, Note_on_c, 9, 40, 0
1, 12274, Note_on_c, 9, 59, 40
1, 12274, Note_on_c, 9, 40, 55
1, 12276, Note_on_c, 9, 35, 35
1, 12286, Note_on_c, 1, 38, 113
1, 12318, Control_c, 0, 64, 0
1, 12324, Note_on_c, 9, 59, 0
1, 12326, Note_on_c, 0, 98, 92
1, 12326, Note_on_c, 0, 93, 98
1, 12334, Note_on_c, 9, 35, 0
1, 12334, Note_on_c, 0, 86, 82
1, 12334, Note_on_c, 0, 64, 76
1, 12334, Note_on_c, 0, 60, 72
1, 12334, Note_on_c, 0, 55, 68
1, 12338, Note_on_c, 0, 59, 68
1, 12438, Control_c, 0, 64, 127
1, 12474, Note_on_c, 0, 55, 0
1, 12478, Note_on_c, 0, 64, 0
1, 12482, Note_on_c, 0, 98, 0
1, 12482, Note_on_c, 0, 59, 0
1, 12482, Note_on_c, 0, 86, 0
1, 12486, Note_on_c, 0, 93, 0
1, 12490, Note_on_c, 0, 60, 0
1, 12530, Note_on_c, 0, 64, 63
1, 12534, Note_on_c, 0, 60, 61
1, 12534, Note_on_c, 0, 98, 77
1, 12534, Note_on_c, 0, 55, 58
1, 12538, Note_on_c, 0, 59, 55
1, 12538, Note_on_c, 0, 93, 72
1, 12538, Note_on_c, 0, 86, 61
1, 12570, Note_on_c, 1, 53, 31
1, 12634, Note_on_c, 0, 55, 0
1, 12646, Note_on_c, 0, 86, 0
1, 12646, Note_on_c, 0, 98, 0
1, 12650, Note_on_c, 0, 93, 0
1, 12650, Note_on_c, 1, 53, 0
1, 12654, Note_on_c, 0, 64, 0
1, 12654, Note_on_c, 0, 59, 0
1, 12658, Note_on_c, 9, 40, 0
1, 12658, Note_on_c, 9, 44, 71
1, 12664, Note_on_c, 0, 60, 0
1, 12664, Note_on_c, 9, 40, 52
1, 12670, Note_on_c, 1, 54, 76
1, 12722, Note_on_c, 9, 44, 0
1, 12730, Note_on_c, 0, 98, 66
1, 12734, Note_on_c, 0, 64, 57
1, 12734, Note_on_c, 0, 93, 68
1, 12738, Note_on_c, 0, 86, 54
1, 12738, Note_on_c, 0, 60, 48
1, 12738, Note_on_c, 0, 55, 49
1, 12746, Note_on_c, 0, 59, 48
1, 12850, Note_on_c, 0, 55, 0
1, 12858, Note_on_c, 0, 59, 0
1, 12866, Note_on_c, 0, 93, 0
1, 12866, Note_on_c, 0, 98, 0
1, 12886, Note_on_c, 0, 60, 0
1, 12898, Note_on_c, 0, 86, 0
1, 12914, Note_on_c, 0, 64, 0
1, 13042, Note_on_c, 9, 40, 0
1, 13044, Note_on_c, 9, 40, 67
1, 13058, Note_on_c, 9, 35, 32
1, 13082, Control_c, 0, 64, 0
1, 13086, Note_on_c, 9, 35, 0
1, 13094, Note_on_c, 0, 94, 77
1, 13098, Note_on_c, 0, 90, 60
1, 13098, Note_on_c, 0, 65, 61
1, 13098, Note_on_c, 0, 54, 56
1, 13098, Note_on_c, 0, 88, 59
1, 13098, Note_on_c, 0, 84, 51
1, 13098, Note_on_c, 0, 60, 57
1, 13178, Control_c, 0, 64, 127
1, 13198, Note_on_c, 0, 94, 0
1, 13202, Note_on_c, 0, 88, 0
1, 13202, Note_on_c, 0, 90, 0
1, 13230, Note_on_c, 0, 84, 0
1, 13252, Note_on_c, 9, 35, 35
1, 13262, Note_on_c, 0, 65, 0
1, 13286, Note_on_c, 0, 60, 0
1, 13318, Note_on_c, 0, 54, 0
1, 13346, Note_on_c, 9, 35, 0
1, 13362, Note_on_c, 1, 38, 0
1, 13366, Note_on_c, 1, 44, 102
1, 13422, Note_on_c, 9, 40, 65
1, 13426, Note_on_c, 9, 40, 0
1, 13426, Note_on_c, 9, 46, 55
1, 13430, Note_on_c, 1, 44, 0
1, 13438, Note_on_c, 1, 32, 105
1, 13454, Note_on_c, 9, 46, 0
1, 13474, Note_on_c, 0, 70, 87
1, 13478, Note_on_c, 0, 65, 87
1, 13482, Control_c, 0, 64, 0
1, 13482, Note_on_c, 0, 62, 81
1, 13486, Note_on_c, 0, 60, 51
1, 13490, Note_on_c, 0, 54, 46
1, 13522, Control_c, 0, 64, 127
1, 13572, Note_on_c, 9, 35, 60
1, 13598, Note_on_c, 9, 35, 0
1, 13610, Note_on_c, 1, 32, 0
1, 13634, Note_on_c, 1, 32, 113
1, 13642, Note_on_c, 0, 60, 0
1, 13646, Note_on_c, 1, 54, 0
1, 13650, Note_on_c, 9, 35, 47
1, 13650, Note_on_c, 9, 59, 26
1, 13666, Note_on_c, 9, 59, 0
1, 13668, Note_on_c, 9, 35, 0
1, 13674, Note_on_c, 0, 65, 0
1, 13678, Note_on_c, 0, 70, 0
1, 13682, Note_on_c, 0, 50, 53
1, 13702, Note_on_c, 0, 50, 0
1, 13706, Note_on_c, 0, 54, 0
1, 13710, Note_on_c, 0, 62, 0
1, 13790, Note_on_c, 9, 40, 70
1, 13810, Note_on_c, 9, 40, 0
1, 13822, Note_on_c, 1, 32, 0
1, 13826, Note_on_c, 9, 35, 47
1, 13826, Note_on_c, 9, 59, 54
1, 13830, Note_on_c, 1, 31, 114
1, 13844, Note_on_c, 9, 59, 0
1, 13848, Note_on_c, 9, 35, 0
1, 13854, Control_c, 0, 64, 0
1, 13874, Note_on_c, 0, 59, 72
1, 13874, Note_on_c, 0, 57, 71
1, 13874, Note_on_c, 0, 54, 67
1, 13874, Note_on_c, 0, 43, 61
1, 13874, Note_on_c, 0, 62, 68
1, 13878, Note_on_c, 0, 50, 55
1, 13962, Control_c, 0, 64, 127
1, 14034, Note_on_c, 9, 59, 61
1, 14036, Note_on_c, 9, 35, 32
1, 14068, Note_on_c, 9, 59, 0
1, 14116, Note_on_c, 9, 35, 0
1, 14142, Note_on_c, 0, 59, 0
1, 14142, Note_on_c, 0, 57, 0
1, 14146, Note_on_c, 0, 62, 0
1, 14154, Note_on_c, 0, 54, 0
1, 14194, Note_on_c, 9, 40, 0
1, 14194, Note_on_c, 9, 44, 45
1, 14212, Note_on_c, 9, 40, 60
1, 14248, Note_on_c, 9, 44, 0
1, 14262, Note_on_c, 0, 54, 60
1, 14286, Note_on_c, 0, 43, 0
1, 14302, Note_on_c, 0, 50, 0
1, 14306, Note_on_c, 0, 54, 0
1, 14462, Note_on_c, 0, 66, 86
1, 14518, Note_on_c, 0, 66, 0
1, 14562, Note_on_c, 0, 71, 82
1, 14578, Note_on_c, 9, 40, 0
1, 14594, Note_on_c, 9, 40, 70
1, 14622, Note_on_c, 0, 71, 0
1, 14670, Control_c, 0, 64, 0
1, 14682, Note_on_c, 0, 74, 82
1, 14682, Note_on_c, 0, 41, 57
1, 14682, Note_on_c, 0, 67, 73
1, 14686, Note_on_c, 0, 57, 56
1, 14702, Note_on_c, 0, 70, 32
1, 14726, Note_on_c, 0, 70, 0
1, 14770, Note_on_c, 0, 74, 0
1, 14790, Note_on_c, 0, 67, 0
1, 14790, Control_c, 0, 64, 127
1, 14826, Note_on_c, 0, 71, 58
1, 14826, Note_on_c, 0, 63, 54
1, 14834, Note_on_c, 0, 41, 0
1, 14838, Note_on_c, 0, 57, 0
1, 14838, Note_on_c, 0, 67, 42
1, 14846, Note_on_c, 0, 63, 0
1, 14858, Note_on_c, 0, 67, 0
1, 14882, Note_on_c, 0, 71, 0
1, 14962, Note_on_c, 9, 40, 0
1, 14962, Note_on_c, 9, 44, 70
1, 14970, Note_on_c, 9, 40, 47
1, 14974, Note_on_c, 0, 79, 79
1, 14974, Note_on_c, 0, 86, 82
1, 14982, Note_on_c, 1, 41, 127
1, 14998, Note_on_c, 1, 31, 0
1, 15064, Note_on_c, 9, 44, 0
1, 15070, Note_on_c, 0, 86, 0
1, 15090, Note_on_c, 0, 67, 55
1, 15098, Note_on_c, 0, 83, 63
1, 15098, Note_on_c, 0, 62, 51
1, 15098, Note_on_c, 0, 63, 41
1, 15102, Note_on_c, 0, 57, 46
1, 15106, Note_on_c, 0, 74, 36
1, 15214, Note_on_c, 0, 79, 0
1, 15230, Note_on_c, 0, 62, 0
1, 15234, Note_on_c, 0, 67, 0
1, 15238, Note_on_c, 0, 63, 0
1, 15242, Note_on_c, 0, 74, 0
1, 15246, Note_on_c, 0, 57, 0
1, 15282, Note_on_c, 0, 83, 0
1, 15282, Note_on_c, 0, 79, 56
1, 15294, Note_on_c, 1, 39, 96
1, 15310, Note_on_c, 1, 41, 0
1, 15334, Note_on_c, 0, 79, 0
1, 15346, Note_on_c, 9, 40, 0
1, 15354, Note_on_c, 1, 39, 0
1, 15362, Note_on_c, 1, 40, 105
1, 15364, Note_on_c, 9, 40, 80
1, 15426, Control_c, 0, 64, 40
1, 15426, Control_c, 0, 64, 0
1, 15434, Note_on_c, 0, 74, 49
1, 15438, Note_on_c, 0, 77, 60
1, 15454, Note_on_c, 0, 77, 0
1, 15454, Note_on_c, 0, 74, 0
1, 15562, Note_on_c, 1, 47, 127
1, 15634, Note_on_c, 0, 77, 55
1, 15634, Note_on_c, 0, 69, 43
1, 15646, Note_on_c, 0, 74, 48
1, 15646, Control_c, 0, 64, 104
1, 15650, Control_c, 0, 64, 127
1, 15654, Note_on_c, 0, 69, 0
1, 15666, Note_on_c, 0, 74, 0
1, 15682, Note_on_c, 0, 77, 0
1, 15730, Note_on_c, 9, 40, 0
1, 15730, Note_on_c, 9, 44, 75
1, 15750, Control_c, 0, 64, 0
1, 15762, Note_on_c, 9, 40, 50
1, 15822, Note_on_c, 0, 77, 50
1, 15826, Note_on_c, 0, 69, 45
1, 15830, Note_on_c, 0, 72, 46
1, 15842, Note_on_c, 9, 44, 0
1, 15846, Note_on_c, 0, 77, 0
1, 15850, Note_on_c, 0, 72, 0
1, 15850, Control_c, 0, 64, 127
1, 15866, Note_on_c, 0, 69, 0
1, 15986, Control_c, 0, 64, 0
1, 16002, Note_on_c, 0, 71, 61
1, 16006, Note_on_c, 0, 65, 46
1, 16006, Note_on_c, 0, 64, 52
1, 16006, Note_on_c, 0, 69, 47
1, 16066, Control_c, 0, 64, 127
1, 16114, Note_on_c, 9, 40, 0
1, 16118, Note_on_c, 0, 65, 0
1, 16118, Note_on_c, 0, 69, 0
1, 16122, Note_on_c, 1, 40, 0
1, 16122, Note_on_c, 9, 40, 47
1, 16138, Note_on_c, 0, 71, 0
1, 16138, Control_c, 0, 64, 0
1, 16146, Note_on_c, 1, 35, 79
1, 16182, Note_on_c, 0, 64, 0
1, 16190, Note_on_c, 0, 74, 63
1, 16190, Note_on_c, 0, 69, 65
1, 16194, Note_on_c, 0, 65, 52
1, 16194, Note_on_c, 0, 62, 48
1, 16214, Control_c, 0, 64, 127
1, 16266, Note_on_c, 0, 69, 0
1, 16270, Note_on_c, 0, 65, 0
1, 16330, Note_on_c, 0, 74, 0
1, 16330, Note_on_c, 1, 40, 118
1, 16338, Note_on_c, 1, 47, 0
1, 16358, Note_on_c, 1, 35, 0
1, 16358, Control_c, 0, 64, 0
1, 16378, Note_on_c, 0, 76, 59
1, 16378, Note_on_c, 0, 56, 50
1, 16382, Note_on_c, 0, 68, 58
1, 16386, Note_on_c, 0, 71, 61
1, 16430, Control_c, 0, 64, 127
1, 16438, Note_on_c, 0, 62, 0
1, 16450, Note_on_c, 0, 76, 0
1, 16470, Note_on_c, 0, 68, 0
1, 16474, Note_on_c, 0, 71, 0
1, 16498, Note_on_c, 9, 40, 0
1, 16498, Note_on_c, 9, 44, 69
1, 16498, Note_on_c, 9, 40, 50
1, 16502, Note_on_c, 1, 40, 0
1, 16518, Note_on_c, 1, 40, 105
1, 16530, Control_c, 0, 64, 0
1, 16562, Note_on_c, 0, 68, 60
1, 16566, Note_on_c, 0, 64, 56
1, 16566, Note_on_c, 0, 62, 45
1, 16570, Note_on_c, 0, 56, 0
1, 16578, Control_c, 0, 64, 127
1, 16610, Note_on_c, 9, 44, 0
1, 16618, Note_on_c, 9, 39, 56
1, 16634, Note_on_c, 0, 64, 0
1, 16686, Note_on_c, 0, 68, 0
1, 16690, Note_on_c, 0, 62, 0
1, 16738, Note_on_c, 0, 68, 51
1, 16738, Note_on_c, 0, 73, 60
1, 16750, Note_on_c, 0, 64, 50
1, 16754, Note_on_c, 0, 58, 45
1, 16776, Note_on_c, 9, 39, 0
1, 16804, Note_on_c, 9, 40, 60
1, 16806, Note_on_c, 0, 64, 0
1, 16838, Note_on_c, 0, 73, 0
1, 16862, Note_on_c, 0, 68, 0
1, 16882, Note_on_c, 9, 40, 0
1, 16882, Control_c, 0, 64, 0
1, 16886, Note_on_c, 1, 40, 0
1, 16886, Note_on_c, 1, 33, 107
1, 16888, Note_on_c, 9, 40, 37
1, 16902, Note_on_c, 0, 58, 0
1, 16918, Note_on_c, 0, 64, 41
1, 16918, Note_on_c, 0, 57, 45
1, 16918, Note_on_c, 0, 67, 49
1, 16922, Note_on_c, 0, 72, 50
1, 16978, Control_c, 0, 64, 127
1, 17070, Note_on_c, 0, 72, 0
1, 17074, Note_on_c, 0, 67, 0
1, 17114, Note_on_c, 0, 45, 43
1, 17118, Note_on_c, 0, 57, 0
1, 17122, Note_on_c, 0, 64, 0
1, 17258, Note_on_c, 9, 40, 52
1, 17266, Note_on_c, 9, 40, 0
1, 17266, Note_on_c, 9, 40, 0
1, 17266, Note_on_c, 9, 44, 69
1, 17270, Note_on_c, 0, 45, 0
1, 17298, Note_on_c, 0, 64, 46
1, 17302, Note_on_c, 0, 57, 45
1, 17322, Note_on_c, 0, 64, 0
1, 17326, Note_on_c, 0, 57, 0
1, 17384, Note_on_c, 9, 44, 0
1, 17570, Note_on_c, 0, 81, 74
1, 17602, Note_on_c, 0, 81, 0
1, 17634, Note_on_c, 0, 81, 81
1, 17646, Note_on_c, 9, 40, 55
1, 17650, Note_on_c, 9, 40, 0
1, 17678, Note_on_c, 0, 81, 0
1, 17710, Control_c, 0, 64, 0
1, 17710, Note_on_c, 0, 81, 96
1, 17714, Note_on_c, 0, 55, 62
1, 17718, Note_on_c, 0, 64, 55
1, 17718, Note_on_c, 0, 60, 50
1, 17814, Note_on_c, 0, 81, 0
1, 17854, Note_on_c, 9, 39, 50
1, 17858, Note_on_c, 0, 81, 52
1, 17878, Note_on_c, 0, 81, 0
1, 17926, Note_on_c, 0, 81, 81
1, 17970, Note_on_c, 0, 81, 0
1, 17970, Note_on_c, 0, 64, 0
1, 17982, Control_c, 0, 64, 127
1, 17998, Note_on_c, 0, 81, 107
1, 18026, Note_on_c, 9, 39, 0
1, 18034, Note_on_c, 9, 40, 0
1, 18034, Note_on_c, 9, 44, 70
1, 18046, Note_on_c, 9, 40, 45
1, 18094, Note_on_c, 0, 60, 0
1, 18094, Note_on_c, 0, 81, 0
1, 18130, Note_on_c, 9, 44, 0
1, 18134, Note_on_c, 0, 81, 82
1, 18138, Note_on_c, 0, 64, 57
1, 18138, Note_on_c, 0, 60, 24
1, 18222, Note_on_c, 0, 81, 0
1, 18230, Note_on_c, 1, 31, 91
1, 18234, Note_on_c, 9, 40, 47
1, 18238, Note_on_c, 1, 33, 0
1, 18298, Note_on_c, 0, 83, 75
1, 18306, Note_on_c, 0, 60, 0
1, 18322, Note_on_c, 0, 55, 0
1, 18338, Note_on_c, 0, 64, 0
1, 18354, Note_on_c, 0, 83, 0
1, 18382, Note_on_c, 0, 84, 76
1, 18418, Note_on_c, 9, 40, 0
1, 18420, Note_on_c, 9, 40, 60
1, 18434, Note_on_c, 1, 36, 105
1, 18446, Note_on_c, 1, 31, 0
1, 18458, Note_on_c, 0, 84, 0
1, 18482, Note_on_c, 0, 84, 26
1, 18502, Control_c, 0, 64, 0
1, 18510, Note_on_c, 0, 67, 48
1, 18510, Note_on_c, 0, 58, 40
1, 18514, Note_on_c, 0, 75, 68
1, 18514, Note_on_c, 0, 63, 40
1, 18514, Note_on_c, 0, 62, 40
1, 18586, Note_on_c, 0, 75, 0
1, 18698, Note_on_c, 0, 75, 58
1, 18754, Note_on_c, 0, 75, 0
1, 18758, Note_on_c, 0, 67, 0
1, 18782, Note_on_c, 0, 62, 0
1, 18786, Control_c, 0, 64, 127
1, 18790, Note_on_c, 0, 63, 0
1, 18802, Note_on_c, 9, 40, 0
1, 18802, Note_on_c, 9, 40, 0
1, 18802, Note_on_c, 9, 44, 62
1, 18830, Note_on_c, 9, 40, 52
1, 18852, Note_on_c, 9, 37, 25
1, 18866, Note_on_c, 1, 29, 103
1, 18868, Note_on_c, 9, 37, 0
1, 18878, Note_on_c, 0, 75, 52
1, 18882, Note_on_c, 1, 36, 0
1, 18882, Note_on_c, 0, 63, 37
1, 18882, Note_on_c, 0, 67, 35
1, 18888, Note_on_c, 9, 44, 0
1, 18894, Note_on_c, 0, 62, 32
1, 18998, Note_on_c, 0, 58, 0
1, 19054, Note_on_c, 0, 58, 37
1, 19110, Note_on_c, 0, 62, 0
1, 19110, Note_on_c, 0, 67, 0
1, 19110, Note_on_c, 0, 63, 0
1, 19142, Note_on_c, 0, 58, 0
1, 19170, Note_on_c, 0, 75, 0
1, 19186, Note_on_c, 9, 40, 0
1, 19202, Note_on_c, 9, 40, 52
1, 19234, Note_on_c, 0, 84, 0
1, 19250, Control_c, 0, 64, 0
1, 19250, Note_on_c, 0, 74, 50
1, 19266, Note_on_c, 0, 62, 22
1, 19266, Note_on_c, 0, 67, 27
1, 19270, Note_on_c, 0, 63, 35
1, 19270, Note_on_c, 0, 57, 32
1, 19318, Control_c, 0, 64, 127
1, 19362, Note_on_c, 0, 74, 0
1, 19390, Note_on_c, 0, 57, 0
1, 19394, Note_on_c, 0, 67, 0
1, 19394, Note_on_c, 0, 63, 0
1, 19410, Note_on_c, 0, 62, 0
1, 19570, Note_on_c, 9, 40, 0
1, 19570, Note_on_c, 9, 44, 64
1, 19570, Note_on_c, 9, 40, 75
1, 19638, Note_on_c, 0, 86, 86
1, 19642, Note_on_c, 9, 44, 0
1, 19646, Note_on_c, 0, 82, 77
1, 19650, Note_on_c, 0, 67, 69
1, 19654, Note_on_c, 0, 79, 79
1, 19654, Note_on_c, 0, 62, 52
1, 19654, Note_on_c, 0, 63, 51
1, 19658, Note_on_c, 0, 74, 67
1, 19662, Note_on_c, 0, 57, 51
1, 19754, Note_on_c, 0, 79, 0
1, 19758, Note_on_c, 0, 67, 0
1, 19762, Note_on_c, 0, 74, 0
1, 19766, Note_on_c, 1, 41, 108
1, 19770, Note_on_c, 0, 63, 0
1, 19778, Note_on_c, 0, 82, 0
1, 19778, Note_on_c, 0, 57, 0
1, 19778, Note_on_c, 0, 62, 0
1, 19782, Note_on_c, 0, 86, 0
1, 19902, Note_on_c, 0, 88, 79
1, 19906, Note_on_c, 0, 76, 72
1, 19924, Note_on_c, 9, 35, 37
1, 19926, Note_on_c, 1, 41, 0
1, 19930, Note_on_c, 0, 76, 0
1, 19930, Note_on_c, 1, 29, 0
1, 19944, Note_on_c, 9, 40, 62
1, 19950, Note_on_c, 9, 35, 0
1, 19950, Note_on_c, 1, 43, 118
1, 19954, Note_on_c, 9, 40, 0
1, 19954, Note_on_c, 0, 88, 0
1, 20010, Note_on_c, 9, 35, 32
1, 20030, Note_on_c, 0, 91, 73
1, 20030, Control_c, 0, 64, 0
1, 20046, Note_on_c, 0, 86, 71
1, 20050, Note_on_c, 0, 62, 39
1, 20050, Note_on_c, 0, 52, 42
1, 20054, Note_on_c, 0, 59, 44
1, 20058, Note_on_c, 0, 57, 46
1, 20062, Note_on_c, 0, 79, 52
1, 20078, Note_on_c, 9, 35, 0
1, 20122, Note_on_c, 0, 91, 0
1, 20126, Note_on_c, 0, 86, 0
1, 20130, Note_on_c, 0, 59, 0
1, 20130, Note_on_c, 0, 52, 0
1, 20138, Note_on_c, 0, 57, 0
1, 20138, Note_on_c, 0, 79, 0
1, 20138, Note_on_c, 0, 62, 0
1, 20190, Note_on_c, 0, 91, 59
1, 20194, Note_on_c, 9, 59, 60
1, 20200, Note_on_c, 9, 35, 35
1, 20210, Note_on_c, 9, 59, 0
1, 20214, Note_on_c, 0, 86, 66
1, 20218, Note_on_c, 0, 62, 36
1, 20222, Note_on_c, 0, 52, 36
1, 20226, Note_on_c, 0, 57, 38
1, 20230, Note_on_c, 0, 59, 45
1, 20250, Note_on_c, 9, 35, 0
1, 20250, Note_on_c, 0, 79, 21
1, 20266, Note_on_c, 0, 89, 14
1, 20278, Control_c, 0, 64, 88
1, 20282, Control_c, 0, 64, 127
1, 20294, Note_on_c, 0, 91, 0
1, 20298, Note_on_c, 0, 59, 0
1, 20298, Note_on_c, 0, 86, 0
1, 20302, Note_on_c, 0, 89, 0
1, 20302, Note_on_c, 0, 52, 0
1, 20310, Note_on_c, 0, 57, 0
1, 20318, Note_on_c, 0, 62, 0
1, 20326, Note_on_c, 0, 79, 0
1, 20338, Note_on_c, 9, 40, 0
1, 20338, Note_on_c, 9, 44, 55
1, 20354, Note_on_c, 9, 40, 62
1, 20372, Note_on_c, 9, 44, 0
1, 20474, Note_on_c, 0, 86, 72
1, 20486, Note_on_c, 0, 62, 49
1, 20494, Note_on_c, 0, 81, 65
1, 20498, Note_on_c, 0, 57, 43
1, 20502, Note_on_c, 0, 74, 56
1, 20502, Note_on_c, 0, 59, 45
1, 20506, Note_on_c, 0, 52, 33
1, 20522, Note_on_c, 0, 74, 0
1, 20534, Note_on_c, 0, 62, 0
1, 20538, Note_on_c, 0, 52, 0
1, 20550, Note_on_c, 0, 59, 0
1, 20550, Note_on_c, 0, 81, 0
1, 20558, Note_on_c, 0, 57, 0
1, 20562, Note_on_c, 0, 86, 0
1, 20610, Note_on_c, 0, 88, 60
1, 20626, Note_on_c, 0, 81, 72
1, 20634, Note_on_c, 0, 57, 42
1, 20634, Note_on_c, 0, 62, 40
1, 20634, Note_on_c, 0, 76, 58
1, 20650, Note_on_c, 0, 76, 0
1, 20666, Note_on_c, 0, 81, 0
1, 20666, Note_on_c, 0, 62, 0
1, 20686, Note_on_c, 0, 88, 0
1, 20686, Note_on_c, 0, 57, 0
1, 20706, Note_on_c, 9, 40, 75
1, 20722, Note_on_c, 9, 40, 0
1, 20734, Note_on_c, 1, 36, 110
1, 20750, Note_on_c, 1, 43, 0
1, 20766, Control_c, 0, 64, 0
1, 20766, Note_on_c, 0, 91, 69
1, 20782, Note_on_c, 0, 62, 36
1, 20790, Note_on_c, 0, 58, 43
1, 20790, Note_on_c, 0, 86, 49
1, 20790, Note_on_c, 0, 79, 39
1, 20794, Note_on_c, 0, 52, 31
1, 20866, Note_on_c, 0, 52, 0
1, 20866, Note_on_c, 0, 86, 0
1, 20870, Note_on_c, 0, 79, 0
1, 20874, Note_on_c, 0, 91, 0
1, 20874, Note_on_c, 0, 58, 0
1, 20878, Note_on_c, 0, 62, 0
1, 20938, Note_on_c, 0, 91, 38
1, 20946, Control_c, 0, 64, 127
1, 20962, Note_on_c, 0, 62, 42
1, 20966, Note_on_c, 0, 86, 53
1, 20966, Note_on_c, 0, 58, 49
1, 20970, Note_on_c, 0, 79, 49
1, 20970, Note_on_c, 0, 52, 33
1, 21082, Note_on_c, 9, 39, 68
1, 21094, Note_on_c, 0, 58, 0
1, 21098, Note_on_c, 0, 79, 0
1, 21106, Note_on_c, 9, 40, 0
1, 21106, Note_on_c, 9, 44, 74
1, 21110, Note_on_c, 0, 86, 0
1, 21110, Note_on_c, 0, 91, 0
1, 21134, Note_on_c, 0, 52, 0
1, 21138, Note_on_c, 0, 62, 0
1, 21172, Note_on_c, 9, 44, 0
1, 21250, Note_on_c, 0, 91, 75
1, 21258, Note_on_c, 9, 39, 0
1, 21262, Note_on_c, 0, 86, 73
1, 21262, Note_on_c, 0, 58, 56
1, 21266, Note_on_c, 0, 62, 55
1, 21266, Note_on_c, 0, 79, 67
1, 21282, Note_on_c, 0, 79, 0
1, 21288, Note_on_c, 9, 40, 55
1, 21310, Note_on_c, 0, 86, 0
1, 21314, Note_on_c, 0, 91, 0
1, 21318, Note_on_c, 0, 62, 0
1, 21322, Note_on_c, 0, 58, 0
1, 21398, Note_on_c, 0, 93, 82
1, 21406, Note_on_c, 0, 86, 75
1, 21410, Note_on_c, 0, 81, 69
1, 21414, Note_on_c, 0, 65, 38
1, 21426, Note_on_c, 0, 81, 0
1, 21426, Note_on_c, 0, 62, 22
1, 21434, Note_on_c, 0, 65, 0
1, 21442, Note_on_c, 0, 62, 0
1, 21446, Note_on_c, 0, 86, 0
1, 21462, Note_on_c, 0, 93, 0
1, 21482, Note_on_c, 9, 40, 62
1, 21490, Note_on_c, 9, 40, 0
1, 21562, Control_c, 0, 64, 56
1, 21566, Control_c, 0, 64, 0
1, 21670, Note_on_c, 0, 94, 82
1, 21674, Note_on_c, 0, 82, 74
1, 21678, Note_on_c, 0, 89, 63
1, 21682, Note_on_c, 0, 67, 61
1, 21686, Note_on_c, 0, 62, 56
1, 21686, Note_on_c, 0, 56, 43
1, 21690, Note_on_c, 0, 82, 0
1, 21690, Note_on_c, 1, 50, 120
1, 21690, Note_on_c, 1, 34, 106
1, 21694, Note_on_c, 0, 89, 0
1, 21694, Note_on_c, 0, 67, 0
1, 21698, Note_on_c, 9, 40, 67
1, 21702, Note_on_c, 0, 62, 0
1, 21710, Note_on_c, 0, 56, 0
1, 21710, Note_on_c, 0, 94, 0
1, 21710, Note_on_c, 1, 36, 0
1, 21790, Control_c, 0, 64, 127
1, 21802, Note_on_c, 0, 67, 73
1, 21802, Note_on_c, 0, 56, 66
1, 21806, Note_on_c, 0, 94, 86
1, 21806, Note_on_c, 0, 82, 87
1, 21810, Note_on_c, 0, 89, 80
1, 21810, Note_on_c, 0, 62, 57
1, 21826, Note_on_c, 0, 89, 0
1, 21830, Note_on_c, 0, 62, 0
1, 21834, Note_on_c, 0, 82, 0
1, 21842, Note_on_c, 0, 94, 0
1, 21842, Note_on_c, 0, 67, 0
1, 21850, Note_on_c, 0, 56, 0
1, 21874, Note_on_c, 9, 40, 0
1, 21874, Note_on_c, 9, 44, 75
1, 21874, Note_on_c, 9, 44, 70
1, 21874, Note_on_c, 9, 44, 58
1, 21914, Note_on_c, 9, 44, 0
1, 21926, Note_on_c, 0, 94, 85
1, 21930, Note_on_c, 0, 82, 85
1, 21930, Note_on_c, 0, 67, 74
1, 21934, Note_on_c, 9, 44, 0
1, 21934, Note_on_c, 0, 56, 68
1, 21938, Note_on_c, 0, 62, 64
1, 21938, Note_on_c, 0, 89, 57
1, 21954, Note_on_c, 0, 89, 0
1, 21970, Note_on_c, 0, 67, 0
1, 21974, Note_on_c, 0, 82, 0
1, 21974, Note_on_c, 0, 94, 0
1, 21990, Note_on_c, 0, 56, 0
1, 22006, Note_on_c, 0, 62, 0
1, 22024, Note_on_c, 9, 44, 0
1, 22046, Note_on_c, 0, 89, 74
1, 22050, Note_on_c, 0, 56, 58
1, 22054, Note_on_c, 0, 77, 59
1, 22058, Note_on_c, 0, 62, 56
1, 22058, Note_on_c, 0, 67, 48
1, 22082, Note_on_c, 0, 67, 0
1, 22086, Note_on_c, 0, 77, 0
1, 22102, Note_on_c, 0, 56, 0
1, 22106, Note_on_c, 0, 89, 0
1, 22122, Note_on_c, 0, 62, 0
1, 22150, Note_on_c, 0, 56, 52
1, 22154, Note_on_c, 0, 91, 82
1, 22158, Note_on_c, 0, 67, 48
1, 22158, Note_on_c, 0, 79, 76
1, 22166, Note_on_c, 0, 62, 48
1, 22178, Note_on_c, 0, 79, 0
1, 22182, Note_on_c, 0, 62, 0
1, 22182, Note_on_c, 0, 67, 0
1, 22202, Note_on_c, 0, 91, 0
1, 22226, Note_on_c, 0, 56, 0
1, 22250, Control_c, 0, 64, 0
1, 22258, Note_on_c, 9, 40, 0
1, 22270, Note_on_c, 0, 82, 81
1, 22274, Note_on_c, 0, 94, 77
1, 22274, Note_on_c, 0, 65, 61
1, 22274, Note_on_c, 0, 61, 58
1, 22274, Note_on_c, 9, 40, 75
1, 22278, Note_on_c, 0, 60, 54
1, 22278, Note_on_c, 0, 55, 57
1, 22278, Note_on_c, 0, 89, 63
1, 22290, Note_on_c, 0, 58, 43
1, 22334, Control_c, 0, 64, 72
1, 22334, Control_c, 0, 64, 127
1, 22402, Note_on_c, 0, 58, 0
1, 22402, Note_on_c, 0, 65, 0
1, 22406, Note_on_c, 0, 55, 0
1, 22406, Note_on_c, 0, 89, 0
1, 22406, Note_on_c, 0, 61, 0
1, 22410, Note_on_c, 0, 94, 0
1, 22410, Note_on_c, 0, 60, 0
1, 22414, Note_on_c, 0, 82, 0
1, 22478, Note_on_c, 0, 94, 71
1, 22482, Note_on_c, 0, 82, 66
1, 22482, Note_on_c, 0, 65, 57
1, 22486, Note_on_c, 0, 61, 53
1, 22486, Note_on_c, 0, 55, 49
1, 22486, Note_on_c, 0, 89, 74
1, 22486, Note_on_c, 0, 60, 52
1, 22486, Note_on_c, 1, 39, 107
1, 22522, Note_on_c, 1, 50, 0
1, 22522, Note_on_c, 1, 34, 0
1, 22566, Note_on_c, 0, 55, 0
1, 22566, Note_on_c, 0, 82, 0
1, 22570, Note_on_c, 0, 60, 0
1, 22570, Note_on_c, 0, 65, 0
1, 22574, Note_on_c, 0, 89, 0
1, 22578, Note_on_c, 0, 94, 0
1, 22578, Note_on_c, 0, 61, 0
1, 22642, Note_on_c, 9, 40, 0
1, 22642, Note_on_c, 9, 44, 54
1, 22642, Note_on_c, 9, 44, 55
1, 22670, Note_on_c, 9, 40, 60
1, 22678, Note_on_c, 0, 94, 71
1, 22682, Note_on_c, 0, 65, 57
1, 22682, Note_on_c, 0, 61, 48
1, 22682, Note_on_c, 0, 82, 63
1, 22686, Note_on_c, 0, 60, 50
1, 22690, Note_on_c, 0, 89, 57
1, 22692, Note_on_c, 9, 44, 0
1, 22698, Note_on_c, 0, 55, 36
1, 22706, Note_on_c, 0, 89, 0
1, 22726, Note_on_c, 0, 82, 0
1, 22730, Note_on_c, 0, 55, 0
1, 22734, Note_on_c, 0, 65, 0
1, 22746, Note_on_c, 0, 94, 0
1, 22746, Note_on_c, 0, 60, 0
1, 22758, Note_on_c, 0, 61, 0
1, 22814, Note_on_c, 9, 44, 0
1, 22822, Note_on_c, 1, 39, 0
1, 22866, Note_on_c, 1, 39, 104
1, 22870, Note_on_c, 0, 96, 74
1, 22870, Note_on_c, 0, 61, 56
1, 22878, Note_on_c, 0, 65, 60
1, 22878, Note_on_c, 0, 91, 67
1, 22878, Note_on_c, 0, 84, 58
1, 22878, Note_on_c, 0, 60, 54
1, 22886, Note_on_c, 0, 55, 47
1, 22922, Note_on_c, 0, 65, 0
1, 22926, Note_on_c, 0, 84, 0
1, 22930, Note_on_c, 0, 60, 0
1, 22938, Note_on_c, 0, 91, 0
1, 22950, Note_on_c, 0, 96, 0
1, 22958, Note_on_c, 0, 61, 0
1, 22974, Note_on_c, 0, 55, 0
1, 23026, Note_on_c, 9, 40, 0
1, 23030, Control_c, 0, 64, 0
1, 23058, Note_on_c, 9, 40, 62
1, 23066, Note_on_c, 0, 98, 63
1, 23070, Note_on_c, 0, 64, 48
1, 23074, Note_on_c, 0, 60, 47
1, 23074, Note_on_c, 0, 86, 46
1, 23074, Note_on_c, 0, 91, 48
1, 23074, Note_on_c, 0, 55, 37
1, 23074, Note_on_c, 0, 57, 54
1, 23166, Control_c, 0, 64, 127
1, 23182, Note_on_c, 0, 86, 0
1, 23186, Note_on_c, 0, 55, 0
1, 23190, Note_on_c, 0, 64, 0
1, 23190, Note_on_c, 0, 60, 0
1, 23190, Note_on_c, 0, 57, 0
1, 23190, Note_on_c, 0, 98, 0
1, 23190, Note_on_c, 0, 91, 0
1, 23258, Note_on_c, 1, 33, 116
1, 23270, Note_on_c, 1, 39, 0
1, 23270, Note_on_c, 0, 98, 66
1, 23278, Note_on_c, 0, 64, 44
1, 23282, Note_on_c, 0, 91, 54
1, 23286, Note_on_c, 0, 86, 45
1, 23286, Note_on_c, 0, 60, 48
1, 23290, Note_on_c, 0, 55, 39
1, 23290, Note_on_c, 0, 57, 45
1, 23358, Note_on_c, 0, 86, 0
1, 23362, Note_on_c, 0, 57, 0
1, 23362, Note_on_c, 0, 55, 0
1, 23366, Note_on_c, 0, 91, 0
1, 23370, Note_on_c, 0, 64, 0
1, 23374, Note_on_c, 0, 60, 0
1, 23378, Note_on_c, 0, 98, 0
1, 23410, Note_on_c, 9, 40, 0
1, 23410, Note_on_c, 9, 44, 56
1, 23410, Note_on_c, 9, 44, 60
1, 23430, Note_on_c, 1, 33, 0
1, 23444, Note_on_c, 9, 40, 60
1, 23446, Note_on_c, 1, 33, 98
1, 23458, Note_on_c, 9, 44, 0
1, 23470, Note_on_c, 0, 98, 61
1, 23470, Note_on_c, 9, 35, 29
1, 23478, Note_on_c, 0, 64, 31
1, 23478, Note_on_c, 0, 91, 52
1, 23482, Note_on_c, 0, 86, 40
1, 23482, Note_on_c, 0, 60, 44
1, 23486, Note_on_c, 9, 35, 0
1, 23490, Note_on_c, 0, 55, 37
1, 23490, Note_on_c, 0, 57, 46
1, 23538, Note_on_c, 9, 44, 0
1, 23546, Note_on_c, 0, 86, 0
1, 23550, Note_on_c, 0, 55, 0
1, 23554, Note_on_c, 0, 91, 0
1, 23562, Note_on_c, 0, 57, 0
1, 23566, Note_on_c, 0, 64, 0
1, 23574, Note_on_c, 0, 60, 0
1, 23574, Note_on_c, 0, 98, 0
1, 23640, Note_on_c, 9, 40, 65
1, 23662, Note_on_c, 0, 98, 58
1, 23666, Note_on_c, 0, 64, 36
1, 23670, Note_on_c, 0, 60, 41
1, 23674, Note_on_c, 0, 91, 50
1, 23674, Note_on_c, 0, 86, 39
1, 23678, Note_on_c, 0, 57, 42
1, 23682, Note_on_c, 0, 55, 37
1, 23710, Note_on_c, 0, 55, 0
1, 23738, Note_on_c, 0, 86, 0
1, 23742, Note_on_c, 0, 57, 0
1, 23750, Note_on_c, 0, 91, 0
1, 23754, Note_on_c, 0, 64, 0
1, 23754, Note_on_c, 0, 60, 0
1, 23762, Note_on_c, 0, 98, 0
1, 23794, Note_on_c, 9, 40, 0
1, 23826, Note_on_c, 9, 40, 67
1, 23858, Note_on_c, 0, 98, 57
1, 23866, Note_on_c, 0, 64, 27
1, 23870, Note_on_c, 0, 60, 37
1, 23874, Note_on_c, 0, 91, 40
1, 23878, Note_on_c, 0, 86, 35
1, 23878, Note_on_c, 0, 57, 42
1, 23878, Note_on_c, 0, 55, 36
1, 23954, Note_on_c, 0, 98, 0
1, 23986, Note_on_c, 0, 60, 0
1, 23990, Note_on_c, 0, 91, 0
1, 24024, Note_on_c, 9, 35, 27
1, 24034, Note_on_c, 0, 86, 0
1, 24058, Note_on_c, 0, 55, 0
1, 24078, Note_on_c, 0, 57, 0
1, 24094, Note_on_c, 0, 64, 0
1, 24142, Note_on_c, 9, 35, 0
1, 24178, Note_on_c, 9, 40, 0
1, 24178, Note_on_c, 9, 40, 0
1, 24178, Note_on_c, 9, 44, 51
1, 24178, Note_on_c, 9, 44, 62
1, 24186, Note_on_c, 9, 40, 55
1, 24210, Note_on_c, 9, 44, 0
1, 24282, Note_on_c, 9, 44, 0
1, 24386, Note_on_c, 1, 38, 101
1, 24418, Note_on_c, 1, 33, 0
1, 24562, Note_on_c, 9, 40, 0
1, 24574, Note_on_c, 1, 36, 105
1, 24578, Note_on_c, 1, 38, 0
1, 24578, Note_on_c, 9, 40, 60
1, 24582, Note_on_c, 0, 63, 40
1, 24582, Note_on_c, 0, 67, 36
1, 24590, Note_on_c, 0, 58, 41
1, 24594, Note_on_c, 0, 62, 43
1, 24598, Control_c, 0, 64, 0
1, 24650, Control_c, 0, 64, 127
1, 24758, Note_on_c, 0, 86, 122
1, 24778, Note_on_c, 1, 48, 127
1, 24858, Note_on_c, 0, 67, 0
1, 24878, Note_on_c, 0, 86, 0
1, 24894, Note_on_c, 0, 62, 0
1, 24894, Note_on_c, 0, 79, 85
1, 24906, Note_on_c, 0, 63, 0
1, 24946, Note_on_c, 9, 40, 0
1, 24946, Note_on_c, 9, 44, 58
1, 24946, Note_on_c, 9, 44, 60
1, 24974, Note_on_c, 9, 44, 0
1, 24980, Note_on_c, 9, 40, 55
1, 24994, Note_on_c, 0, 79, 0
1, 25014, Note_on_c, 0, 62, 49
1, 25018, Note_on_c, 0, 67, 42
1, 25018, Note_on_c, 0, 63, 48
1, 25022, Note_on_c, 0, 82, 81
1, 25026, Control_c, 0, 64, 0
1, 25050, Note_on_c, 9, 44, 0
1, 25106, Control_c, 0, 64, 127
1, 25122, Note_on_c, 0, 83, 83
1, 25134, Note_on_c, 0, 82, 0
1, 25174, Note_on_c, 0, 62, 0
1, 25178, Note_on_c, 9, 35, 28
1, 25194, Note_on_c, 0, 83, 0
1, 25210, Note_on_c, 9, 35, 0
1, 25210, Note_on_c, 0, 67, 0
1, 25214, Note_on_c, 0, 58, 0
1, 25218, Note_on_c, 0, 86, 96
1, 25238, Note_on_c, 0, 63, 0
1, 25298, Note_on_c, 0, 86, 0
1, 25314, Note_on_c, 0, 83, 70
1, 25330, Note_on_c, 9, 40, 0
1, 25338, Note_on_c, 9, 40, 65
1, 25374, Note_on_c, 1, 36, 0
1, 25374, Note_on_c, 1, 41, 117
1, 25390, Note_on_c, 0, 83, 0
1, 25390, Note_on_c, 1, 48, 0
1, 25390, Note_on_c, 0, 63, 37
1, 25390, Note_on_c, 0, 62, 36
1, 25390, Note_on_c, 0, 67, 41
1, 25394, Control_c, 0, 64, 0
1, 25402, Note_on_c, 0, 57, 43
1, 25414, Note_on_c, 0, 84, 72
1, 25506, Control_c, 0, 64, 127
1, 25534, Note_on_c, 0, 82, 60
1, 25554, Note_on_c, 9, 39, 36
1, 25574, Note_on_c, 0, 63, 0
1, 25598, Note_on_c, 0, 67, 0
1, 25626, Note_on_c, 0, 62, 0
1, 25694, Note_on_c, 0, 84, 0
1, 25714, Note_on_c, 9, 40, 0
1, 25714, Note_on_c, 9, 46, 44
1, 25714, Note_on_c, 9, 46, 34
1, 25716, Note_on_c, 9, 39, 0
1, 25734, Note_on_c, 0, 82, 0
1, 25736, Note_on_c, 9, 46, 0
1, 25736, Note_on_c, 9, 40, 55
1, 25758, Note_on_c, 1, 29, 115
1, 25770, Note_on_c, 0, 81, 79
1, 25770, Note_on_c, 0, 62, 26
1, 25778, Note_on_c, 0, 63, 42
1, 25778, Note_on_c, 0, 67, 35
1, 25786, Note_on_c, 1, 41, 0
1, 25826, Note_on_c, 9, 46, 0
1, 25850, Note_on_c, 0, 67, 0
1, 25866, Note_on_c, 0, 81, 0
1, 25866, Note_on_c, 0, 82, 54
1, 25882, Note_on_c, 0, 62, 0
1, 25906, Note_on_c, 0, 82, 0
1, 25910, Note_on_c, 0, 63, 0
1, 25910, Note_on_c, 0, 83, 57
1, 25934, Note_on_c, 0, 57, 0
1, 25934, Note_on_c, 9, 39, 35
1, 25950, Note_on_c, 0, 83, 0
1, 25950, Note_on_c, 1, 32, 96
1, 25966, Note_on_c, 0, 84, 81
1, 25974, Note_on_c, 1, 29, 0
1, 26030, Note_on_c, 9, 35, 31
1, 26040, Note_on_c, 9, 39, 0
1, 26050, Note_on_c, 1, 32, 0
1, 26058, Note_on_c, 9, 35, 0
1, 26070, Note_on_c, 0, 84, 0
1, 26070, Note_on_c, 1, 33, 110
1, 26074, Note_on_c, 0, 81, 68
1, 26084, Note_on_c, 9, 40, 37
1, 26098, Note_on_c, 9, 40, 0
1, 26122, Note_on_c, 9, 35, 37
1, 26130, Note_on_c, 9, 59, 40
1, 26132, Note_on_c, 9, 40, 52
1, 26150, Control_c, 0, 64, 0
1, 26154, Note_on_c, 0, 65, 28
1, 26154, Note_on_c, 1, 34, 115
1, 26162, Note_on_c, 1, 33, 0
1, 26162, Note_on_c, 0, 60, 37
1, 26166, Note_on_c, 0, 62, 43
1, 26166, Note_on_c, 0, 55, 34
1, 26174, Note_on_c, 0, 77, 60
1, 26206, Note_on_c, 0, 81, 0
1, 26210, Note_on_c, 9, 35, 0
1, 26218, Note_on_c, 9, 59, 0
1, 26250, Control_c, 0, 64, 127
1, 26290, Note_on_c, 0, 77, 0
1, 26306, Note_on_c, 0, 74, 58
1, 26318, Note_on_c, 9, 35, 37
1, 26322, Note_on_c, 9, 59, 31
1, 26350, Note_on_c, 0, 74, 0
1, 26394, Note_on_c, 9, 59, 0
1, 26398, Note_on_c, 9, 35, 0
1, 26410, Note_on_c, 0, 60, 0
1, 26426, Note_on_c, 0, 62, 0
1, 26426, Note_on_c, 0, 65, 0
1, 26482, Note_on_c, 9, 40, 0
1, 26482, Note_on_c, 9, 40, 0
1, 26482, Note_on_c, 9, 44, 79
1, 26482, Note_on_c, 9, 44, 34
1, 26484, Note_on_c, 9, 40, 47
1, 26542, Note_on_c, 0, 65, 36
1, 26550, Note_on_c, 0, 74, 66
1, 26566, Note_on_c, 0, 60, 32
1, 26570, Note_on_c, 0, 62, 25
1, 26590, Note_on_c, 9, 44, 0
1, 26590, Note_on_c, 9, 44, 0
1, 26650, Note_on_c, 0, 74, 0
1, 26654, Note_on_c, 0, 62, 0
1, 26654, Note_on_c, 0, 65, 0
1, 26678, Note_on_c, 0, 60, 0
1, 26702, Note_on_c, 0, 55, 0
1, 26798, Note_on_c, 0, 70, 73
1, 26858, Note_on_c, 0, 70, 0
1, 26858, Note_on_c, 9, 40, 52
1, 26866, Note_on_c, 9, 40, 0
1, 26894, Note_on_c, 0, 70, 57
1, 26898, Control_c, 0, 64, 0
1, 26902, Note_on_c, 0, 62, 33
1, 26902, Note_on_c, 0, 58, 38
1, 26910, Note_on_c, 0, 55, 35
1, 26910, Note_on_c, 0, 53, 35
1, 27018, Note_on_c, 0, 70, 0
1, 27026, Note_on_c, 0, 65, 66
1, 27094, Control_c, 0, 64, 127
1, 27154, Note_on_c, 0, 58, 0
1, 27158, Note_on_c, 0, 62, 0
1, 27162, Note_on_c, 0, 65, 0
1, 27202, Note_on_c, 0, 55, 0
1, 27226, Note_on_c, 9, 40, 65
1, 27234, Note_on_c, 1, 46, 118
1, 27250, Note_on_c, 9, 40, 0
1, 27250, Note_on_c, 9, 44, 55
1, 27250, Note_on_c, 9, 44, 50
1, 27270, Note_on_c, 0, 62, 39
1, 27274, Note_on_c, 0, 65, 57
1, 27278, Note_on_c, 1, 34, 0
1, 27282, Note_on_c, 0, 58, 45
1, 27304, Note_on_c, 9, 44, 0
1, 27330, Note_on_c, 0, 62, 0
1, 27350, Note_on_c, 0, 53, 0
1, 27358, Note_on_c, 0, 58, 0
1, 27358, Note_on_c, 9, 44, 0
1, 27546, Note_on_c, 9, 39, 53
1, 27558, Note_on_c, 0, 65, 0
1, 27562, Note_on_c, 0, 62, 49
1, 27578, Note_on_c, 1, 46, 0
1, 27588, Note_on_c, 9, 39, 0
1, 27602, Note_on_c, 0, 62, 0
1, 27602, Note_on_c, 1, 45, 105
1, 27620, Note_on_c, 9, 40, 72
1, 27622, Control_c, 0, 64, 0
1, 27634, Note_on_c, 9, 40, 0
1, 27634, Note_on_c, 0, 60, 28
1, 27634, Note_on_c, 0, 63, 58
1, 27658, Note_on_c, 1, 45, 0
1, 27662, Note_on_c, 0, 55, 15
1, 27710, Note_on_c, 0, 63, 0
1, 27726, Note_on_c, 1, 39, 86
1, 27742, Note_on_c, 0, 65, 48
1, 27774, Note_on_c, 1, 39, 0
1, 27790, Note_on_c, 0, 65, 0
1, 27798, Note_on_c, 1, 36, 105
1, 27818, Note_on_c, 0, 55, 0
1, 27822, Note_on_c, 0, 63, 46
1, 27822, Note_on_c, 9, 40, 55
1, 27898, Note_on_c, 0, 63, 0
1, 27898, Note_on_c, 0, 60, 0
1, 27930, Note_on_c, 0, 65, 52
1, 27994, Note_on_c, 0, 65, 0
1, 28014, Note_on_c, 0, 55, 38
1, 28018, Note_on_c, 9, 40, 0
1, 28018, Note_on_c, 9, 40, 0
1, 28018, Note_on_c, 0, 57, 38
1, 28018, Note_on_c, 0, 63, 39
1, 28018, Note_on_c, 9, 44, 57
1, 28018, Note_on_c, 9, 44, 44
1, 28026, Note_on_c, 0, 60, 20
1, 28052, Note_on_c, 9, 44, 0
1, 28138, Note_on_c, 9, 44, 0
1, 28210, Note_on_c, 9, 40, 55
1, 28234, Control_c, 0, 64, 127
1, 28238, Note_on_c, 0, 57, 0
1, 28238, Note_on_c, 0, 55, 0
1, 28254, Note_on_c, 0, 60, 0
1, 28338, Note_on_c, 0, 63, 0
1, 28392, Note_on_c, 9, 40, 75
1, 28394, Note_on_c, 1, 36, 0
1, 28402, Note_on_c, 1, 38, 102
1, 28618, Note_on_c, 0, 63, 38
1, 28618, Note_on_c, 9, 39, 32
1, 28626, Note_on_c, 0, 60, 33
1, 28626, Note_on_c, 0, 54, 39
1, 28766, Note_on_c, 0, 63, 0
1, 28776, Note_on_c, 9, 39, 0
1, 28786, Note_on_c, 9, 40, 0
1, 28786, Note_on_c, 9, 40, 0
1, 28786, Note_on_c, 9, 44, 58
1, 28786, Note_on_c, 9, 44, 48
1, 28804, Note_on_c, 9, 40, 52
1, 28810, Note_on_c, 0, 75, 55
1, 28810, Note_on_c, 0, 87, 56
1, 28834, Note_on_c, 0, 84, 36
1, 28862, Note_on_c, 0, 54, 0
1, 28866, Note_on_c, 9, 44, 0
1, 28884, Note_on_c, 9, 44, 0
1, 29006, Note_on_c, 0, 54, 39
1, 29006, Note_on_c, 0, 63, 31
1, 29030, Note_on_c, 0, 84, 0
1, 29034, Note_on_c, 0, 60, 0
1, 29058, Note_on_c, 0, 87, 0
1, 29062, Note_on_c, 0, 63, 0
1, 29070, Note_on_c, 0, 75, 0
1, 29086, Note_on_c, 0, 54, 0
1, 29106, Note_on_c, 9, 35, 31
1, 29124, Note_on_c, 9, 35, 0
1, 29166, Note_on_c, 1, 38, 0
1, 29170, Note_on_c, 9, 40, 0
1, 29170, Note_on_c, 1, 31, 99
1, 29176, Note_on_c, 9, 40, 52
1, 29186, Note_on_c, 9, 57, 29
1, 29186, Note_on_c, 9, 35, 24
1, 29214, Note_on_c, 9, 57, 0
1, 29218, Note_on_c, 9, 35, 0
1, 29306, Note_on_c, 1, 30, 84
1, 29310, Note_on_c, 1, 31, 0
1, 29378, Note_on_c, 1, 30, 0
1, 29378, Control_c, 0, 64, 0
1, 29398, Note_on_c, 1, 31, 85
1, 29402, Note_on_c, 0, 59, 49
1, 29406, Note_on_c, 0, 53, 52
1, 29406, Note_on_c, 0, 64, 46
1, 29406, Note_on_c, 0, 87, 70
1, 29410, Note_on_c, 0, 75, 73
1, 29414, Note_on_c, 0, 82, 63
1, 29442, Control_c, 0, 64, 127
1, 29498, Note_on_c, 0, 82, 0
1, 29506, Note_on_c, 0, 64, 0
1, 29506, Note_on_c, 0, 53, 0
1, 29510, Note_on_c, 0, 87, 0
1, 29510, Note_on_c, 0, 75, 0
1, 29534, Note_on_c, 0, 59, 0
1, 29538, Control_c, 0, 64, 0
1, 29550, Note_on_c, 0, 59, 34
1, 29550, Note_on_c, 0, 53, 54
1, 29550, Note_on_c, 0, 64, 52
1, 29550, Note_on_c, 9, 40, 65
1, 29554, Note_on_c, 9, 40, 0
1, 29554, Note_on_c, 0, 89, 61
1, 29554, Note_on_c, 0, 84, 58
1, 29554, Note_on_c, 9, 44, 73
1, 29558, Note_on_c, 0, 77, 61
1, 29582, Note_on_c, 0, 77, 0
1, 29582, Note_on_c, 0, 64, 0
1, 29582, Note_on_c, 0, 53, 0
1, 29586, Note_on_c, 0, 89, 0
1, 29594, Note_on_c, 0, 59, 0
1, 29598, Note_on_c, 0, 84, 0
1, 29722, Note_on_c, 0, 87, 62
1, 29726, Note_on_c, 0, 64, 57
1, 29726, Note_on_c, 0, 59, 57
1, 29726, Note_on_c, 0, 75, 53
1, 29726, Note_on_c, 0, 82, 55
1, 29734, Note_on_c, 0, 53, 47
1, 29750, Note_on_c, 0, 82, 0
1, 29750, Note_on_c, 0, 75, 0
1, 29750, Note_on_c, 0, 64, 0
1, 29754, Note_on_c, 0, 53, 0
1, 29766, Note_on_c, 0, 59, 0
1, 29774, Note_on_c, 0, 87, 0
1, 29814, Control_c, 0, 64, 127
1, 29866, Note_on_c, 0, 59, 57
1, 29866, Note_on_c, 0, 89, 71
1, 29874, Note_on_c, 0, 53, 51
1, 29874, Note_on_c, 0, 64, 45
1, 29874, Note_on_c, 0, 77, 55
1, 29898, Note_on_c, 0, 64, 0
1, 29898, Note_on_c, 0, 53, 0
1, 29906, Note_on_c, 0, 77, 0
1, 29910, Note_on_c, 0, 89, 0
1, 29930, Note_on_c, 0, 59, 0
1, 29938, Note_on_c, 9, 40, 0
1, 29950, Note_on_c, 9, 40, 55
1, 29954, Control_c, 0, 64, 0
1, 29976, Note_on_c, 9, 44, 0
1, 29978, Note_on_c, 0, 87, 72
1, 29978, Note_on_c, 0, 75, 63
1, 29978, Note_on_c, 0, 59, 56
1, 29986, Note_on_c, 0, 64, 49
1, 29986, Control_c, 0, 64, 127
1, 29986, Note_on_c, 0, 53, 49
1, 29990, Note_on_c, 0, 82, 49
1, 30014, Note_on_c, 0, 82, 0
1, 30042, Note_on_c, 0, 82, 19
1, 30102, Note_on_c, 0, 53, 0
1, 30146, Note_on_c, 1, 38, 111
1, 30198, Note_on_c, 1, 31, 0
1, 30210, Note_on_c, 0, 64, 0
1, 30218, Note_on_c, 0, 87, 0
1, 30222, Note_on_c, 0, 82, 0
1, 30234, Note_on_c, 0, 75, 0
1, 30234, Note_on_c, 0, 59, 0
1, 30282, Note_on_c, 0, 85, 75
1, 30286, Control_c, 0, 64, 0
1, 30286, Note_on_c, 0, 73, 68
1, 30286, Note_on_c, 0, 59, 64
1, 30286, Note_on_c, 0, 64, 68
1, 30290, Note_on_c, 0, 53, 68
1, 30322, Note_on_c, 9, 40, 0
1, 30322, Note_on_c, 9, 44, 77
1, 30342, Note_on_c, 0, 64, 0
1, 30342, Note_on_c, 0, 53, 0
1, 30342, Note_on_c, 1, 43, 111
1, 30344, Note_on_c, 9, 40, 67
1, 30350, Control_c, 0, 64, 127
1, 30362, Note_on_c, 0, 73, 0
1, 30362, Note_on_c, 1, 38, 0
1, 30382, Note_on_c, 0, 85, 0
1, 30390, Note_on_c, 0, 53, 52
1, 30390, Note_on_c, 0, 64, 48
1, 30394, Note_on_c, 0, 74, 51
1, 30394, Note_on_c, 0, 86, 61
1, 30410, Note_on_c, 0, 74, 0
1, 30430, Note_on_c, 0, 64, 0
1, 30430, Note_on_c, 0, 53, 0
1, 30434, Note_on_c, 0, 86, 0
1, 30466, Note_on_c, 0, 59, 0
1, 30538, Note_on_c, 1, 49, 114
1, 30558, Note_on_c, 0, 59, 52
1, 30562, Note_on_c, 0, 64, 41
1, 30582, Note_on_c, 1, 43, 0
1, 30582, Note_on_c, 0, 53, 22
1, 30586, Note_on_c, 0, 59, 0
1, 30586, Note_on_c, 0, 64, 0
1, 30606, Note_on_c, 0, 53, 0
1, 30706, Note_on_c, 9, 40, 0
1, 30718, Note_on_c, 1, 49, 0
1, 30722, Note_on_c, 9, 40, 50
1, 30734, Note_on_c, 1, 48, 109
1, 30742, Control_c, 0, 64, 0
1, 30750, Note_on_c, 0, 81, 56
1, 30750, Note_on_c, 0, 62, 45
1, 30750, Note_on_c, 0, 93, 54
1, 30750, Note_on_c, 0, 58, 49
1, 30762, Note_on_c, 9, 44, 0
1, 30770, Note_on_c, 0, 52, 36
1, 30810, Control_c, 0, 64, 127
1, 30854, Note_on_c, 0, 81, 0
1, 30886, Note_on_c, 0, 93, 0
1, 30922, Note_on_c, 1, 37, 112
1, 30926, Note_on_c, 1, 48, 0
1, 30998, Note_on_c, 0, 96, 75
1, 30998, Note_on_c, 0, 95, 84
1, 31014, Note_on_c, 0, 95, 0
1, 31074, Note_on_c, 0, 96, 0
1, 31078, Note_on_c, 0, 97, 85
1, 31090, Note_on_c, 9, 40, 0
1, 31090, Note_on_c, 9, 44, 70
1, 31094, Note_on_c, 0, 62, 0
1, 31108, Note_on_c, 9, 40, 62
1, 31110, Note_on_c, 1, 37, 0
1, 31118, Note_on_c, 1, 36, 109
1, 31150, Note_on_c, 0, 96, 71
1, 31154, Note_on_c, 0, 97, 0
1, 31174, Control_c, 0, 64, 0
1, 31186, Note_on_c, 0, 62, 47
1, 31198, Note_on_c, 0, 96, 0
1, 31198, Note_on_c, 0, 95, 75
1, 31242, Note_on_c, 0, 95, 0
1, 31274, Note_on_c, 0, 94, 63
1, 31322, Note_on_c, 0, 94, 0
1, 31322, Note_on_c, 0, 91, 68
1, 31354, Note_on_c, 0, 91, 0
1, 31358, Note_on_c, 0, 62, 0
1, 31366, Note_on_c, 0, 88, 68
1, 31402, Note_on_c, 0, 88, 0
1, 31434, Note_on_c, 0, 85, 68
1, 31458, Note_on_c, 9, 44, 0
1, 31474, Note_on_c, 9, 40, 0
1, 31478, Note_on_c, 0, 85, 0
1, 31482, Note_on_c, 0, 84, 63
1, 31506, Note_on_c, 0, 84, 0
1, 31512, Note_on_c, 9, 40, 67
1, 31526, Note_on_c, 0, 83, 57
1, 31546, Note_on_c, 0, 83, 0
1, 31574, Note_on_c, 0, 58, 0
1, 31574, Note_on_c, 0, 82, 63
1, 31622, Note_on_c, 0, 82, 0
1, 31626, Note_on_c, 0, 79, 36
1, 31646, Note_on_c, 0, 79, 0
1, 31662, Note_on_c, 0, 76, 63
1, 31702, Note_on_c, 0, 76, 0
1, 31722, Note_on_c, 0, 73, 59
1, 31766, Note_on_c, 0, 73, 0
1, 31770, Note_on_c, 0, 72, 57
1, 31786, Note_on_c, 0, 72, 0
1, 31796, Note_on_c, 9, 39, 46
1, 31830, Note_on_c, 0, 71, 50
1, 31842, Note_on_c, 9, 39, 0
1, 31850, Note_on_c, 0, 71, 0
1, 31858, Note_on_c, 9, 40, 0
1, 31858, Note_on_c, 9, 46, 39
1, 31870, Note_on_c, 0, 70, 54
1, 31874, Note_on_c, 9, 40, 50
1, 31876, Note_on_c, 9, 46, 0
1, 31894, Note_on_c, 0, 58, 32
1, 31906, Note_on_c, 0, 70, 0
1, 31918, Note_on_c, 0, 67, 54
1, 31934, Note_on_c, 0, 67, 0
1, 31938, Note_on_c, 0, 58, 0
1, 31974, Note_on_c, 0, 64, 50
1, 31994, Note_on_c, 0, 64, 0
1, 32022, Note_on_c, 0, 52, 0
1, 32038, Note_on_c, 0, 61, 49
1, 32074, Note_on_c, 0, 60, 58
1, 32074, Note_on_c, 9, 40, 52
1, 32106, Note_on_c, 0, 61, 0
1, 32122, Note_on_c, 0, 60, 0
1, 32150, Note_on_c, 0, 59, 39
1, 32182, Note_on_c, 0, 59, 0
1, 32214, Note_on_c, 0, 58, 36
1, 32242, Note_on_c, 9, 40, 0
1, 32246, Note_on_c, 0, 58, 0
1, 32254, Note_on_c, 9, 40, 57
1, 32274, Note_on_c, 1, 48, 124
1, 32306, Note_on_c, 1, 36, 0
1, 32346, Control_c, 0, 64, 127
1, 32626, Note_on_c, 9, 40, 0
1, 32626, Note_on_c, 9, 40, 0
1, 32626, Note_on_c, 9, 44, 52
1, 32638, Control_c, 0, 64, 0
1, 32658, Note_on_c, 9, 40, 62
1, 32686, Control_c, 0, 64, 127
1, 32694, Note_on_c, 0, 67, 63
1, 32698, Note_on_c, 0, 63, 68
1, 32698, Note_on_c, 0, 58, 73
1, 32708, Note_on_c, 9, 44, 0
1, 32710, Note_on_c, 0, 55, 58
1, 32714, Note_on_c, 0, 58, 0
1, 32722, Note_on_c, 0, 67, 0
1, 32770, Note_on_c, 0, 63, 0
1, 32834, Note_on_c, 0, 69, 79
1, 32834, Note_on_c, 0, 57, 69
1, 32838, Note_on_c, 0, 60, 78
1, 32838, Note_on_c, 0, 63, 70
1, 32846, Note_on_c, 0, 65, 57
1, 32846, Control_c, 0, 64, 0
1, 32850, Note_on_c, 0, 55, 0
1, 32886, Control_c, 0, 64, 127
1, 32898, Note_on_c, 0, 60, 0
1, 32914, Note_on_c, 0, 65, 0
1, 32922, Note_on_c, 0, 69, 0
1, 32930, Note_on_c, 0, 63, 0
1, 32934, Note_on_c, 0, 57, 0
1, 32958, Note_on_c, 0, 55, 63
1, 33010, Note_on_c, 9, 40, 0
1, 33014, Note_on_c, 0, 55, 0
1, 33018, Control_c, 0, 64, 0
1, 33048, Note_on_c, 9, 40, 52
1, 33050, Note_on_c, 1, 48, 0
1, 33066, Note_on_c, 1, 41, 124
1, 33070, Note_on_c, 0, 69, 72
1, 33074, Note_on_c, 0, 63, 66
1, 33078, Note_on_c, 0, 60, 68
1, 33078, Note_on_c, 0, 57, 65
1, 33082, Note_on_c, 0, 65, 49
1, 33114, Control_c, 0, 64, 127
1, 33134, Note_on_c, 0, 65, 0
1, 33134, Note_on_c, 0, 57, 0
1, 33138, Note_on_c, 0, 69, 0
1, 33158, Note_on_c, 0, 60, 0
1, 33162, Note_on_c, 0, 63, 0
1, 33238, Control_c, 0, 64, 0
1, 33254, Note_on_c, 1, 41, 0
1, 33254, Note_on_c, 0, 67, 72
1, 33258, Note_on_c, 0, 57, 68
1, 33258, Note_on_c, 0, 53, 67
1, 33258, Note_on_c, 0, 62, 75
1, 33266, Note_on_c, 0, 63, 55
1, 33274, Note_on_c, 1, 41, 119
1, 33330, Note_on_c, 0, 53, 0
1, 33338, Control_c, 0, 64, 127
1, 33394, Note_on_c, 9, 40, 0
1, 33394, Note_on_c, 9, 44, 61
1, 33402, Note_on_c, 0, 62, 0
1, 33406, Note_on_c, 9, 40, 52
1, 33414, Note_on_c, 0, 63, 0
1, 33418, Note_on_c, 0, 57, 0
1, 33450, Note_on_c, 0, 67, 0
1, 33474, Note_on_c, 0, 57, 39
1, 33478, Note_on_c, 0, 65, 53
1, 33482, Note_on_c, 0, 51, 38
1, 33506, Note_on_c, 0, 62, 31
1, 33514, Note_on_c, 9, 44, 0
1, 33534, Note_on_c, 0, 62, 0
1, 33546, Note_on_c, 0, 51, 0
1, 33558, Note_on_c, 0, 57, 0
1, 33574, Note_on_c, 0, 65, 0
1, 33650, Note_on_c, 0, 64, 56
1, 33662, Note_on_c, 0, 52, 39
1, 33682, Note_on_c, 0, 52, 0
1, 33682, Note_on_c, 0, 64, 0
1, 33718, Note_on_c, 1, 39, 100
1, 33726, Note_on_c, 1, 41, 0
1, 33754, Note_on_c, 0, 65, 51
1, 33778, Note_on_c, 9, 40, 0
1, 33780, Note_on_c, 9, 40, 47
1, 33782, Note_on_c, 1, 39, 0
1, 33802, Note_on_c, 1, 38, 114
1, 33810, Control_c, 0, 64, 0
1, 33842, Note_on_c, 0, 72, 58
1, 33846, Note_on_c, 0, 46, 50
1, 33846, Note_on_c, 0, 65, 52
1, 33846, Note_on_c, 0, 62, 50
1, 33850, Note_on_c, 0, 65, 0
1, 33850, Note_on_c, 0, 69, 52
1, 33850, Note_on_c, 0, 57, 48
1, 33890, Control_c, 0, 64, 127
1, 33978, Note_on_c, 0, 57, 0
1, 34046, Note_on_c, 0, 53, 61
1, 34074, Note_on_c, 0, 62, 0
1, 34094, Note_on_c, 0, 69, 0
1, 34118, Note_on_c, 0, 65, 0
1, 34162, Note_on_c, 9, 40, 0
1, 34162, Note_on_c, 9, 44, 62
1, 34184, Note_on_c, 9, 40, 52
1, 34214, Note_on_c, 0, 53, 0
1, 34222, Note_on_c, 9, 44, 0
1, 34230, Note_on_c, 0, 72, 0
1, 34238, Note_on_c, 0, 69, 66
1, 34238, Note_on_c, 0, 55, 48
1, 34258, Note_on_c, 0, 46, 0
1, 34298, Note_on_c, 0, 55, 0
1, 34318, Note_on_c, 0, 69, 0
1, 34346, Note_on_c, 0, 70, 70
1, 34382, Note_on_c, 0, 70, 0
1, 34422, Note_on_c, 0, 72, 73
1, 34478, Note_on_c, 0, 72, 0
1, 34518, Note_on_c, 0, 77, 84
1, 34546, Note_on_c, 9, 40, 0
1, 34554, Note_on_c, 9, 40, 55
1, 34558, Note_on_c, 1, 39, 111
1, 34582, Note_on_c, 1, 38, 0
1, 34598, Control_c, 0, 64, 0
1, 34606, Note_on_c, 0, 65, 60
1, 34610, Note_on_c, 0, 61, 48
1, 34610, Note_on_c, 0, 60, 54
1, 34618, Note_on_c, 0, 82, 79
1, 34618, Note_on_c, 0, 55, 49
1, 34622, Note_on_c, 0, 77, 0
1, 34642, Note_on_c, 0, 58, 24
1, 34686, Note_on_c, 0, 82, 0
1, 34718, Note_on_c, 0, 84, 71
1, 34744, Note_on_c, 9, 40, 47
1, 34802, Note_on_c, 0, 89, 75
1, 34814, Control_c, 0, 64, 127
1, 34870, Note_on_c, 0, 61, 0
1, 34870, Note_on_c, 0, 65, 0
1, 34878, Note_on_c, 0, 60, 0
1, 34894, Note_on_c, 0, 94, 81
1, 34918, Note_on_c, 0, 89, 0
1, 34930, Note_on_c, 9, 40, 0
1, 34930, Note_on_c, 9, 44, 51
1, 34930, Note_on_c, 9, 40, 67
1, 34950, Note_on_c, 0, 84, 0
1, 34958, Control_c, 0, 64, 0
1, 34970, Note_on_c, 0, 94, 0
1, 34970, Note_on_c, 0, 60, 42
1, 34978, Note_on_c, 0, 61, 46
1, 34982, Note_on_c, 0, 65, 44
1, 34994, Note_on_c, 0, 96, 67
1, 35028, Note_on_c, 9, 44, 0
1, 35030, Control_c, 0, 64, 127
1, 35038, Note_on_c, 0, 96, 0
1, 35106, Note_on_c, 0, 96, 80
1, 35150, Note_on_c, 0, 65, 0
1, 35154, Note_on_c, 0, 96, 0
1, 35158, Note_on_c, 0, 60, 0
1, 35174, Note_on_c, 0, 61, 0
1, 35174, Note_on_c, 0, 58, 0
1, 35186, Note_on_c, 0, 55, 0
1, 35190, Note_on_c, 0, 96, 70
1, 35234, Note_on_c, 1, 39, 0
1, 35234, Note_on_c, 9, 35, 27
1, 35238, Note_on_c, 1, 34, 82
1, 35250, Note_on_c, 9, 35, 0
1, 35254, Note_on_c, 0, 96, 0
1, 35286, Note_on_c, 0, 94, 57
1, 35314, Note_on_c, 9, 40, 0
1, 35314, Note_on_c, 1, 34, 0
1, 35314, Note_on_c, 9, 40, 0
1, 35318, Note_on_c, 1, 40, 115
1, 35322, Note_on_c, 9, 40, 77
1, 35346, Control_c, 0, 64, 0
1, 35350, Note_on_c, 0, 94, 0
1, 35362, Note_on_c, 0, 57, 39
1, 35370, Note_on_c, 0, 62, 32
1, 35370, Note_on_c, 0, 52, 46
1, 35374, Note_on_c, 0, 93, 58
1, 35374, Note_on_c, 0, 58, 41
1, 35446, Note_on_c, 0, 58, 0
1, 35446, Control_c, 0, 64, 127
1, 35462, Note_on_c, 0, 62, 0
1, 35466, Note_on_c, 0, 57, 0
1, 35478, Note_on_c, 0, 93, 0
1, 35486, Note_on_c, 0, 52, 0
1, 35558, Note_on_c, 0, 62, 39
1, 35558, Note_on_c, 0, 57, 41
1, 35562, Note_on_c, 0, 52, 32
1, 35562, Note_on_c, 0, 93, 52
1, 35566, Note_on_c, 0, 58, 47
1, 35570, Control_c, 0, 64, 0
1, 35610, Control_c, 0, 64, 127
1, 35646, Note_on_c, 0, 58, 0
1, 35654, Note_on_c, 0, 52, 0
1, 35662, Note_on_c, 0, 57, 0
1, 35662, Note_on_c, 0, 62, 0
1, 35686, Note_on_c, 0, 93, 0
1, 35698, Note_on_c, 9, 40, 0
1, 35698, Note_on_c, 9, 44, 52
1, 35722, Note_on_c, 9, 40, 52
1, 35726, Control_c, 0, 64, 0
1, 35750, Note_on_c, 0, 93, 57
1, 35758, Note_on_c, 0, 62, 31
1, 35762, Note_on_c, 9, 44, 0
1, 35766, Note_on_c, 0, 52, 38
1, 35766, Note_on_c, 0, 57, 36
1, 35770, Note_on_c, 0, 58, 39
1, 35782, Control_c, 0, 64, 127
1, 35870, Note_on_c, 0, 52, 0
1, 35894, Note_on_c, 0, 57, 0
1, 35898, Note_on_c, 0, 58, 0
1, 35926, Note_on_c, 0, 62, 0
1, 35986, Note_on_c, 0, 93, 0
1, 36020, Note_on_c, 9, 35, 33
1, 36036, Note_on_c, 9, 35, 0
1, 36042, Note_on_c, 0, 91, 39
1, 36082, Note_on_c, 9, 40, 0
1, 36106, Note_on_c, 0, 91, 0
1, 36106, Note_on_c, 1, 40, 0
1, 36110, Note_on_c, 1, 33, 117
1, 36114, Note_on_c, 9, 40, 77
1, 36130, Control_c, 0, 64, 0
1, 36134, Note_on_c, 0, 93, 57
1, 36142, Note_on_c, 0, 65, 32
1, 36146, Note_on_c, 0, 61, 42
1, 36146, Note_on_c, 0, 55, 36
1, 36170, Control_c, 0, 64, 127
1, 36230, Note_on_c, 0, 55, 0
1, 36250, Note_on_c, 0, 61, 0
1, 36254, Note_on_c, 0, 65, 0
1, 36254, Note_on_c, 0, 88, 51
1, 36258, Note_on_c, 0, 93, 0
1, 36270, Note_on_c, 0, 88, 0
1, 36426, Control_c, 0, 64, 0
1, 36430, Note_on_c, 0, 84, 74
1, 36430, Note_on_c, 0, 73, 79
1, 36434, Note_on_c, 0, 77, 75
1, 36434, Note_on_c, 0, 72, 79
1, 36466, Note_on_c, 9, 40, 0
1, 36466, Note_on_c, 9, 44, 55
1, 36470, Note_on_c, 0, 72, 0
1, 36474, Note_on_c, 0, 77, 0
1, 36478, Note_on_c, 0, 84, 0
1, 36494, Note_on_c, 9, 40, 70
1, 36498, Note_on_c, 0, 73, 0
1, 36526, Note_on_c, 9, 44, 0
1, 36542, Note_on_c, 0, 81, 68
1, 36550, Note_on_c, 0, 69, 72
1, 36558, Note_on_c, 0, 70, 66
1, 36582, Note_on_c, 0, 81, 0
1, 36606, Note_on_c, 0, 81, 27
1, 36630, Note_on_c, 0, 81, 0
1, 36646, Note_on_c, 0, 70, 0
1, 36650, Note_on_c, 0, 69, 0
1, 36674, Note_on_c, 9, 39, 46
1, 36682, Note_on_c, 0, 70, 63
1, 36686, Note_on_c, 0, 76, 66
1, 36690, Note_on_c, 0, 67, 64
1, 36702, Note_on_c, 0, 73, 51
1, 36730, Note_on_c, 0, 76, 0
1, 36738, Note_on_c, 0, 67, 0
1, 36742, Note_on_c, 0, 73, 0
1, 36746, Note_on_c, 0, 70, 0
1, 36772, Note_on_c, 9, 39, 0
1, 36814, Note_on_c, 0, 67, 59
1, 36814, Note_on_c, 0, 63, 48
1, 36818, Note_on_c, 0, 70, 50
1, 36818, Note_on_c, 0, 73, 48
1, 36822, Control_c, 0, 64, 127
1, 36842, Note_on_c, 0, 73, 0
1, 36846, Note_on_c, 0, 70, 0
1, 36850, Note_on_c, 9, 40, 0
1, 36862, Note_on_c, 0, 67, 0
1, 36874, Note_on_c, 0, 63, 0
1, 36874, Note_on_c, 9, 40, 52
1, 36902, Control_c, 0, 64, 0
1, 37038, Note_on_c, 0, 74, 73
1, 37042, Note_on_c, 0, 67, 67
1, 37046, Note_on_c, 0, 64, 61
1, 37046, Note_on_c, 0, 62, 65
1, 37086, Note_on_c, 1, 45, 127
1, 37094, Note_on_c, 0, 64, 0
1, 37102, Note_on_c, 0, 67, 0
1, 37102, Note_on_c, 0, 74, 0
1, 37102, Note_on_c, 0, 62, 0
1, 37150, Note_on_c, 0, 72, 66
1, 37162, Note_on_c, 0, 67, 51
1, 37162, Note_on_c, 0, 64, 63
1, 37166, Note_on_c, 0, 60, 64
1, 37206, Note_on_c, 0, 64, 0
1, 37210, Note_on_c, 0, 72, 0
1, 37226, Note_on_c, 0, 67, 0
1, 37234, Note_on_c, 9, 40, 0
1, 37234, Note_on_c, 9, 44, 56
1, 37246, Note_on_c, 9, 40, 55
1, 37250, Note_on_c, 0, 60, 0
1, 37258, Note_on_c, 1, 45, 0
1, 37282, Note_on_c, 9, 44, 0
1, 37286, Note_on_c, 1, 45, 118
1, 37294, Note_on_c, 0, 74, 81
1, 37298, Note_on_c, 0, 67, 68
1, 37298, Note_on_c, 0, 62, 63
1, 37298, Note_on_c, 0, 64, 60
1, 37310, Note_on_c, 0, 65, 55
1, 37322, Control_c, 0, 64, 127
1, 37326, Note_on_c, 0, 65, 0
1, 37354, Note_on_c, 0, 74, 0
1, 37374, Note_on_c, 0, 67, 0
1, 37378, Note_on_c, 0, 64, 0
1, 37398, Note_on_c, 0, 62, 0
1, 37418, Note_on_c, 1, 33, 0
1, 37418, Note_on_c, 0, 72, 71
1, 37418, Note_on_c, 0, 60, 58
1, 37418, Note_on_c, 0, 64, 58
1, 37418, Note_on_c, 0, 67, 56
1, 37418, Note_on_c, 1, 40, 108
1, 37434, Note_on_c, 0, 60, 0
1, 37450, Note_on_c, 1, 45, 0
1, 37458, Note_on_c, 0, 67, 0
1, 37466, Note_on_c, 0, 72, 0
1, 37490, Note_on_c, 0, 64, 0
1, 37514, Note_on_c, 1, 40, 0
1, 37534, Note_on_c, 1, 39, 105
1, 37540, Note_on_c, 9, 35, 30
1, 37586, Note_on_c, 9, 35, 0
1, 37618, Note_on_c, 9, 40, 0
1, 37634, Control_c, 0, 64, 0
1, 37634, Note_on_c, 9, 40, 57
1, 37636, Note_on_c, 9, 35, 36
1, 37636, Note_on_c, 9, 59, 34
1, 37650, Note_on_c, 1, 39, 0
1, 37662, Note_on_c, 9, 35, 0
1, 37662, Note_on_c, 1, 38, 111
1, 37668, Note_on_c, 9, 59, 0
1, 37670, Note_on_c, 0, 68, 56
1, 37670, Note_on_c, 0, 60, 53
1, 37674, Note_on_c, 0, 56, 48
1, 37674, Note_on_c, 0, 63, 50
1, 37682, Note_on_c, 0, 50, 41
1, 37686, Note_on_c, 0, 66, 43
1, 37726, Control_c, 0, 64, 127
1, 37826, Note_on_c, 9, 59, 38
1, 37826, Note_on_c, 9, 35, 32
1, 37870, Note_on_c, 9, 59, 0
1, 37874, Note_on_c, 9, 35, 0
1, 37902, Note_on_c, 0, 60, 0
1, 37946, Note_on_c, 0, 66, 0
1, 37946, Note_on_c, 0, 63, 0
1, 37950, Note_on_c, 0, 68, 0
1, 38002, Note_on_c, 9, 40, 0
1, 38002, Note_on_c, 9, 46, 25
1, 38010, Note_on_c, 9, 40, 65
1, 38018, Note_on_c, 1, 32, 117
1, 38026, Note_on_c, 1, 38, 0
1, 38042, Note_on_c, 0, 60, 57
1, 38046, Note_on_c, 0, 63, 54
1, 38046, Note_on_c, 0, 69, 54
1, 38046, Note_on_c, 0, 57, 48
1, 38050, Note_on_c, 9, 46, 0
1, 38054, Note_on_c, 0, 66, 47
1, 38062, Note_on_c, 0, 56, 0
1, 38090, Note_on_c, 0, 57, 0
1, 38106, Note_on_c, 0, 50, 0
1, 38186, Note_on_c, 0, 60, 0
1, 38190, Note_on_c, 0, 69, 0
1, 38206, Note_on_c, 0, 66, 0
1, 38214, Note_on_c, 0, 63, 0
1, 38382, Note_on_c, 1, 32, 0
1, 38386, Note_on_c, 9, 40, 0
1, 38386, Control_c, 0, 64, 0
1, 38388, Note_on_c, 9, 40, 77
1, 38394, Note_on_c, 9, 40, 62
1, 38398, Note_on_c, 1, 31, 124
1, 38422, Note_on_c, 0, 71, 63
1, 38422, Note_on_c, 0, 66, 61
1, 38426, Note_on_c, 0, 54, 56
1, 38426, Note_on_c, 0, 43, 51
1, 38430, Note_on_c, 0, 59, 45
1, 38462, Control_c, 0, 64, 127
1, 38478, Note_on_c, 0, 59, 0
1, 38478, Note_on_c, 0, 43, 0
1, 38530, Note_on_c, 0, 71, 0
1, 38538, Note_on_c, 0, 66, 0
1, 38538, Note_on_c, 0, 54, 0
1, 38770, Note_on_c, 9, 40, 0
1, 38770, Note_on_c, 9, 40, 0
1, 38770, Note_on_c, 9, 44, 69
1, 38776, Note_on_c, 9, 40, 72
1, 38810, Note_on_c, 0, 83, 82
1, 38814, Note_on_c, 0, 78, 86
1, 38818, Note_on_c, 0, 62, 80
1, 38818, Note_on_c, 0, 71, 84
1, 38818, Note_on_c, 0, 59, 75
1, 38822, Note_on_c, 0, 57, 71
1, 38838, Note_on_c, 0, 81, 35
1, 38858, Note_on_c, 0, 81, 0
1, 38878, Note_on_c, 9, 44, 0
1, 38934, Note_on_c, 0, 71, 0
1, 38942, Note_on_c, 0, 57, 0
1, 38946, Note_on_c, 0, 62, 0
1, 38950, Note_on_c, 0, 78, 0
1, 38954, Note_on_c, 0, 83, 0
1, 38954, Note_on_c, 0, 59, 0
1, 38958, Note_on_c, 9, 39, 62
1, 39018, Note_on_c, 0, 62, 74
1, 39018, Note_on_c, 0, 78, 83
1, 39022, Note_on_c, 0, 83, 79
1, 39026, Note_on_c, 0, 71, 82
1, 39026, Note_on_c, 0, 59, 63
1, 39026, Note_on_c, 0, 57, 64
1, 39074, Note_on_c, 0, 71, 0
1, 39082, Note_on_c, 0, 62, 0
1, 39086, Note_on_c, 0, 57, 0
1, 39090, Note_on_c, 0, 59, 0
1, 39090, Note_on_c, 0, 78, 0
1, 39098, Note_on_c, 0, 83, 0
1, 39134, Note_on_c, 9, 39, 0
1, 39150, Note_on_c, 9, 40, 62
1, 39154, Note_on_c, 9, 40, 0
1, 39206, Control_c, 0, 64, 24
1, 39206, Control_c, 0, 64, 0
1, 39210, Note_on_c, 0, 86, 82
1, 39214, Note_on_c, 0, 83, 78
1, 39214, Note_on_c, 0, 79, 75
1, 39214, Note_on_c, 0, 64, 75
1, 39218, Note_on_c, 0, 74, 79
1, 39218, Note_on_c, 0, 53, 71
1, 39218, Note_on_c, 0, 59, 67
1, 39326, Control_c, 0, 64, 127
1, 39362, Note_on_c, 0, 74, 0
1, 39362, Note_on_c, 0, 86, 0
1, 39370, Note_on_c, 0, 79, 0
1, 39386, Note_on_c, 0, 59, 0
1, 39386, Note_on_c, 0, 53, 0
1, 39390, Note_on_c, 0, 83, 0
1, 39422, Note_on_c, 0, 64, 0
1, 39514, Note_on_c, 1, 31, 0
1, 39530, Note_on_c, 1, 29, 122
1, 39538, Note_on_c, 9, 40, 0
1, 39538, Note_on_c, 9, 44, 53
1, 39540, Note_on_c, 9, 40, 60
1, 39586, Control_c, 0, 64, 0
1, 39586, Note_on_c, 0, 86, 102
1, 39586, Note_on_c, 0, 79, 102
1, 39586, Note_on_c, 0, 63, 76
1, 39586, Note_on_c, 0, 74, 107
1, 39586, Note_on_c, 0, 62, 80
1, 39586, Note_on_c, 0, 83, 85
1, 39586, Note_on_c, 0, 69, 79
1, 39586, Note_on_c, 0, 67, 81
1, 39598, Note_on_c, 0, 57, 58
1, 39602, Note_on_c, 0, 61, 47
1, 39614, Note_on_c, 0, 64, 34
1, 39630, Note_on_c, 9, 44, 0
1, 39642, Control_c, 0, 64, 127
1, 39662, Note_on_c, 0, 64, 0
1, 39670, Note_on_c, 0, 69, 0
1, 39678, Note_on_c, 0, 63, 0
1, 39694, Note_on_c, 0, 61, 0
1, 39710, Note_on_c, 0, 57, 0
1, 39722, Note_on_c, 0, 62, 0
1, 39726, Note_on_c, 0, 67, 0
1, 39726, Note_on_c, 0, 74, 0
1, 39730, Note_on_c, 0, 86, 0
1, 39734, Note_on_c, 0, 79, 0
1, 39750, Note_on_c, 0, 83, 0
1, 39750, Control_c, 0, 64, 0
1, 39786, Note_on_c, 0, 86, 72
1, 39786, Note_on_c, 0, 62, 60
1, 39786, Note_on_c, 0, 67, 66
1, 39786, Note_on_c, 0, 83, 64
1, 39786, Note_on_c, 0, 57, 54
1, 39786, Note_on_c, 0, 79, 75
1, 39786, Note_on_c, 0, 63, 58
1, 39786, Note_on_c, 0, 74, 77
1, 39814, Control_c, 0, 64, 127
1, 39844, Note_on_c, 9, 35, 48
1, 39846, Note_on_c, 0, 74, 0
1, 39858, Note_on_c, 0, 79, 0
1, 39860, Note_on_c, 9, 35, 0
1, 39870, Note_on_c, 0, 86, 0
1, 39870, Note_on_c, 0, 83, 0
1, 39870, Note_on_c, 0, 67, 0
1, 39874, Note_on_c, 0, 57, 0
1, 39886, Note_on_c, 0, 62, 0
1, 39894, Note_on_c, 0, 63, 0
1, 39922, Note_on_c, 9, 40, 0
1, 39922, Note_on_c, 1, 28, 115
1, 39922, Note_on_c, 9, 59, 40
1, 39922, Note_on_c, 9, 40, 55
1, 39924, Note_on_c, 9, 35, 35
1, 39942, Note_on_c, 1, 29, 0
1, 39966, Control_c, 0, 64, 0
1, 39972, Note_on_c, 9, 59, 0
1, 39982, Note_on_c, 9, 35, 0
1, 39982, Note_on_c, 0, 89, 82
1, 39986, Note_on_c, 0, 84, 79
1, 39986, Note_on_c, 0, 77, 83
1, 39986, Note_on_c, 0, 65, 80
1, 39986, Note_on_c, 0, 62, 74
1, 39986, Note_on_c, 0, 57, 72
1, 40022, Control_c, 0, 64, 127
1, 40098, Note_on_c, 0, 77, 0
1, 40098, Note_on_c, 0, 89, 0
1, 40102, Note_on_c, 0, 84, 0
1, 40110, Note_on_c, 0, 65, 0
1, 40114, Note_on_c, 0, 57, 0
1, 40118, Note_on_c, 0, 62, 0
1, 40174, Note_on_c, 0, 89, 60
1, 40178, Note_on_c, 0, 84, 66
1, 40178, Note_on_c, 0, 65, 57
1, 40182, Note_on_c, 0, 57, 49
1, 40182, Note_on_c, 0, 77, 58
1, 40182, Note_on_c, 0, 62, 43
1, 40238, Note_on_c, 0, 89, 0
1, 40258, Note_on_c, 0, 84, 0
1, 40286, Note_on_c, 0, 77, 0
1, 40298, Note_on_c, 0, 65, 0
1, 40306, Note_on_c, 9, 40, 0
1, 40306, Note_on_c, 9, 44, 71
1, 40310, Note_on_c, 0, 62, 0
1, 40312, Note_on_c, 9, 40, 52
1, 40330, Note_on_c, 0, 57, 0
1, 40370, Note_on_c, 9, 44, 0
1, 40550, Note_on_c, 0, 76, 70
1, 40550, Note_on_c, 0, 65, 71
1, 40554, Note_on_c, 0, 69, 66
1, 40558, Note_on_c, 0, 64, 71
1, 40558, Control_c, 0, 64, 0
1, 40558, Note_on_c, 0, 71, 61
1, 40682, Note_on_c, 0, 65, 0
1, 40690, Note_on_c, 9, 40, 0
1, 40692, Note_on_c, 0, 64, 0
1, 40692, Note_on_c, 9, 40, 67
1, 40694, Note_on_c, 0, 69, 0
1, 40694, Note_on_c, 0, 76, 0
1, 40706, Note_on_c, 0, 71, 0
1, 40706, Note_on_c, 9, 35, 32
1, 40734, Note_on_c, 9, 35, 0
1, 40746, Note_on_c, 0, 65, 63
1, 40746, Note_on_c, 0, 76, 54
1, 40750, Note_on_c, 0, 64, 57
1, 40750, Note_on_c, 0, 69, 56
1, 40750, Note_on_c, 0, 71, 52
1, 40818, Control_c, 0, 64, 127
1, 40900, Note_on_c, 9, 35, 35
1, 40902, Note_on_c, 0, 65, 0
1, 40914, Note_on_c, 0, 69, 0
1, 40918, Note_on_c, 0, 71, 0
1, 40922, Note_on_c, 0, 76, 0
1, 40950, Note_on_c, 0, 64, 0
1, 40994, Note_on_c, 9, 35, 0
1, 41038, Note_on_c, 0, 74, 58
1, 41038, Note_on_c, 0, 65, 56
1, 41042, Note_on_c, 0, 68, 55
1, 41046, Note_on_c, 0, 62, 64
1, 41054, Note_on_c, 0, 71, 48
1, 41062, Control_c, 0, 64, 0
1, 41070, Note_on_c, 9, 40, 65
1, 41074, Note_on_c, 9, 40, 0
1, 41074, Note_on_c, 9, 46, 55
1, 41078, Note_on_c, 0, 71, 0
1, 41082, Note_on_c, 0, 65, 0
1, 41094, Note_on_c, 0, 68, 0
1, 41098, Note_on_c, 0, 62, 0
1, 41098, Note_on_c, 0, 74, 0
1, 41102, Note_on_c, 9, 46, 0
1, 41138, Note_on_c, 0, 68, 55
1, 41138, Note_on_c, 0, 74, 60
1, 41138, Note_on_c, 0, 65, 46
1, 41146, Note_on_c, 0, 71, 56
1, 41150, Note_on_c, 0, 62, 50
1, 41154, Control_c, 0, 64, 127
1, 41220, Note_on_c, 9, 35, 60
1, 41246, Note_on_c, 9, 35, 0
1, 41246, Note_on_c, 0, 62, 0
1, 41262, Note_on_c, 0, 74, 0
1, 41278, Note_on_c, 0, 65, 0
1, 41294, Note_on_c, 0, 68, 0
1, 41298, Note_on_c, 9, 35, 47
1, 41298, Note_on_c, 9, 59, 26
1, 41302, Note_on_c, 0, 71, 0
1, 41314, Note_on_c, 9, 59, 0
1, 41316, Note_on_c, 9, 35, 0
1, 41366, Note_on_c, 0, 71, 46
1, 41378, Note_on_c, 0, 59, 48
1, 41410, Note_on_c, 0, 71, 0
1, 41418, Note_on_c, 0, 59, 0
1, 41438, Control_c, 0, 64, 0
1, 41438, Note_on_c, 9, 40, 70
1, 41458, Note_on_c, 9, 40, 0
1, 41470, Note_on_c, 0, 62, 57
1, 41470, Note_on_c, 0, 69, 50
1, 41474, Note_on_c, 0, 74, 56
1, 41474, Note_on_c, 0, 65, 43
1, 41474, Note_on_c, 9, 35, 47
1, 41474, Note_on_c, 9, 59, 54
1, 41478, Note_on_c, 1, 28, 0
1, 41482, Note_on_c, 1, 33, 127
1, 41492, Note_on_c, 9, 59, 0
1, 41496, Note_on_c, 9, 35, 0
1, 41522, Control_c, 0, 64, 127
1, 41542, Note_on_c, 0, 69, 0
1, 41554, Note_on_c, 0, 62, 0
1, 41562, Note_on_c, 0, 74, 0
1, 41586, Note_on_c, 0, 65, 0
1, 41634, Control_c, 0, 64, 0
1, 41666, Note_on_c, 0, 60, 48
1, 41666, Note_on_c, 0, 64, 48
1, 41670, Note_on_c, 0, 72, 43
1, 41670, Note_on_c, 0, 67, 53
1, 41682, Note_on_c, 0, 69, 45
1, 41682, Note_on_c, 9, 59, 61
1, 41684, Note_on_c, 9, 35, 32
1, 41702, Control_c, 0, 64, 127
1, 41716, Note_on_c, 9, 59, 0
1, 41762, Note_on_c, 0, 69, 0
1, 41764, Note_on_c, 9, 35, 0
1, 41766, Note_on_c, 0, 72, 0
1, 41766, Note_on_c, 0, 67, 0
1, 41774, Note_on_c, 0, 60, 0
1, 41782, Note_on_c, 0, 64, 0
1, 41834, Control_c, 0, 64, 0
1, 41842, Note_on_c, 9, 40, 0
1, 41842, Note_on_c, 9, 44, 45
1, 41860, Note_on_c, 9, 40, 60
1, 41870, Control_c, 0, 64, 127
1, 41874, Note_on_c, 0, 60, 43
1, 41878, Note_on_c, 0, 64, 50
1, 41882, Note_on_c, 0, 67, 46
1, 41882, Note_on_c, 0, 72, 43
1, 41896, Note_on_c, 9, 44, 0
1, 41902, Note_on_c, 0, 69, 29
1, 41946, Note_on_c, 0, 69, 0
1, 42062, Note_on_c, 1, 45, 119
1, 42070, Note_on_c, 0, 57, 45
1, 42122, Note_on_c, 0, 64, 0
1, 42130, Note_on_c, 0, 67, 0
1, 42166, Note_on_c, 0, 60, 0
1, 42226, Note_on_c, 9, 40, 0
1, 42230, Note_on_c, 1, 45, 0
1, 42242, Note_on_c, 0, 57, 0
1, 42242, Note_on_c, 9, 40, 70
1, 42246, Control_c, 0, 64, 0
1, 42254, Note_on_c, 0, 72, 0
1, 42258, Note_on_c, 1, 43, 118
1, 42266, Note_on_c, 0, 64, 46
1, 42266, Note_on_c, 0, 67, 45
1, 42274, Note_on_c, 0, 60, 39
1, 42278, Note_on_c, 0, 55, 43
1, 42302, Control_c, 0, 64, 127
1, 42306, Note_on_c, 1, 33, 0
1, 42378, Note_on_c, 0, 64, 0
1, 42390, Note_on_c, 0, 60, 0
1, 42438, Note_on_c, 0, 67, 0
1, 42442, Note_on_c, 1, 43, 0
1, 42458, Note_on_c, 1, 43, 117
1, 42466, Note_on_c, 0, 60, 49
1, 42610, Note_on_c, 9, 40, 0
1, 42610, Note_on_c, 9, 44, 70
1, 42618, Note_on_c, 9, 40, 47
1, 42674, Note_on_c, 0, 69, 40
1, 42674, Note_on_c, 0, 65, 36
1, 42712, Note_on_c, 9, 44, 0
1, 42718, Note_on_c, 0, 65, 0
1, 42770, Note_on_c, 0, 69, 0
1, 42802, Note_on_c, 0, 67, 63
1, 42810, Note_on_c, 0, 71, 68
1, 42814, Note_on_c, 1, 43, 0
1, 42822, Note_on_c, 0, 55, 0
1, 42830, Note_on_c, 1, 43, 106
1, 42850, Note_on_c, 0, 60, 0
1, 42866, Note_on_c, 0, 67, 0
1, 42886, Note_on_c, 0, 71, 0
1, 42926, Note_on_c, 0, 72, 76
1, 42986, Note_on_c, 0, 72, 0
1, 42994, Note_on_c, 9, 40, 0
1, 43012, Note_on_c, 9, 40, 80
1, 43062, Control_c, 0, 64, 0
1, 43066, Note_on_c, 0, 72, 59
1, 43070, Note_on_c, 0, 58, 40
1, 43070, Note_on_c, 0, 75, 55
1, 43070, Note_on_c, 0, 62, 41
1, 43074, Note_on_c, 0, 63, 41
1, 43074, Note_on_c, 0, 67, 35
1, 43162, Control_c, 0, 64, 127
1, 43206, Note_on_c, 0, 72, 0
1, 43226, Note_on_c, 0, 75, 0
1, 43246, Note_on_c, 0, 67, 0
1, 43254, Note_on_c, 0, 62, 0
1, 43266, Note_on_c, 0, 75, 58
1, 43270, Note_on_c, 0, 72, 50
1, 43298, Note_on_c, 0, 63, 0
1, 43358, Note_on_c, 0, 72, 0
1, 43378, Note_on_c, 9, 40, 0
1, 43378, Note_on_c, 9, 44, 75
1, 43402, Note_on_c, 0, 75, 0
1, 43406, Note_on_c, 1, 36, 107
1, 43410, Note_on_c, 1, 43, 0
1, 43410, Note_on_c, 9, 40, 50
1, 43446, Note_on_c, 0, 67, 38
1, 43446, Note_on_c, 0, 63, 38
1, 43446, Note_on_c, 0, 75, 44
1, 43450, Note_on_c, 0, 62, 40
1, 43458, Note_on_c, 0, 72, 45
1, 43490, Note_on_c, 9, 44, 0
1, 43582, Note_on_c, 0, 62, 0
1, 43590, Note_on_c, 1, 36, 0
1, 43590, Note_on_c, 1, 42, 110
1, 43598, Note_on_c, 0, 63, 0
1, 43606, Note_on_c, 0, 67, 0
1, 43626, Note_on_c, 0, 58, 0
1, 43642, Note_on_c, 0, 72, 0
1, 43662, Note_on_c, 0, 75, 0
1, 43762, Note_on_c, 9, 40, 0
1, 43770, Note_on_c, 9, 40, 47
1, 43778, Note_on_c, 1, 42, 0
1, 43786, Note_on_c, 1, 41, 105
1, 43970, Note_on_c, 0, 86, 82
1, 43974, Control_c, 0, 64, 0
1, 43990, Note_on_c, 0, 81, 79
1, 43990, Note_on_c, 0, 62, 48
1, 43994, Note_on_c, 0, 63, 54
1, 43994, Note_on_c, 0, 67, 60
1, 43998, Note_on_c, 0, 57, 58
1, 43998, Note_on_c, 0, 74, 70
1, 44018, Control_c, 0, 64, 127
1, 44086, Note_on_c, 0, 67, 0
1, 44090, Note_on_c, 0, 57, 0
1, 44094, Note_on_c, 0, 63, 0
1, 44102, Note_on_c, 0, 74, 0
1, 44102, Note_on_c, 0, 86, 0
1, 44106, Note_on_c, 0, 62, 0
1, 44114, Note_on_c, 0, 81, 0
1, 44146, Note_on_c, 9, 40, 0
1, 44146, Note_on_c, 9, 44, 69
1, 44146, Note_on_c, 9, 40, 50
1, 44186, Note_on_c, 0, 86, 66
1, 44190, Note_on_c, 0, 81, 72
1, 44190, Note_on_c, 0, 63, 53
1, 44190, Note_on_c, 0, 62, 39
1, 44190, Note_on_c, 0, 67, 51
1, 44198, Note_on_c, 0, 74, 60
1, 44206, Note_on_c, 0, 57, 35
1, 44214, Note_on_c, 0, 74, 0
1, 44234, Note_on_c, 0, 57, 0
1, 44242, Note_on_c, 0, 81, 0
1, 44250, Note_on_c, 0, 86, 0
1, 44250, Note_on_c, 0, 67, 0
1, 44258, Note_on_c, 9, 44, 0
1, 44262, Note_on_c, 0, 62, 0
1, 44262, Note_on_c, 1, 38, 110
1, 44266, Note_on_c, 9, 39, 56
1, 44282, Note_on_c, 1, 41, 0
1, 44282, Note_on_c, 0, 63, 0
1, 44354, Note_on_c, 1, 38, 0
1, 44370, Note_on_c, 0, 88, 63
1, 44370, Note_on_c, 0, 57, 49
1, 44370, Note_on_c, 0, 83, 65
1, 44378, Note_on_c, 0, 76, 44
1, 44390, Note_on_c, 1, 37, 106
1, 44394, Note_on_c, 0, 76, 0
1, 44406, Note_on_c, 0, 57, 0
1, 44410, Note_on_c, 0, 83, 0
1, 44410, Note_on_c, 0, 88, 0
1, 44424, Note_on_c, 9, 39, 0
1, 44452, Note_on_c, 9, 40, 60
1, 44502, Note_on_c, 1, 37, 0
1, 44514, Note_on_c, 1, 38, 115
1, 44530, Note_on_c, 9, 40, 0
1, 44536, Note_on_c, 9, 40, 37
1, 44550, Control_c, 0, 64, 0
1, 44562, Note_on_c, 0, 78, 52
1, 44566, Note_on_c, 0, 90, 45
1, 44570, Note_on_c, 0, 53, 50
1, 44574, Note_on_c, 0, 59, 48
1, 44586, Note_on_c, 0, 90, 0
1, 44586, Note_on_c, 0, 64, 30
1, 44606, Note_on_c, 0, 78, 0
1, 44614, Note_on_c, 0, 86, 36
1, 44626, Note_on_c, 0, 79, 45
1, 44626, Note_on_c, 0, 91, 31
1, 44670, Note_on_c, 0, 79, 0
1, 44678, Note_on_c, 0, 91, 0
1, 44678, Note_on_c, 0, 53, 0
1, 44690, Note_on_c, 0, 64, 0
1, 44694, Note_on_c, 0, 86, 0
1, 44702, Note_on_c, 0, 59, 0
1, 44774, Note_on_c, 0, 91, 56
1, 44778, Note_on_c, 0, 53, 51
1, 44782, Note_on_c, 0, 59, 46
1, 44782, Note_on_c, 0, 64, 38
1, 44782, Note_on_c, 0, 79, 41
1, 44782, Note_on_c, 0, 86, 50
1, 44854, Note_on_c, 0, 79, 0
1, 44874, Note_on_c, 0, 86, 0
1, 44882, Note_on_c, 0, 53, 0
1, 44890, Note_on_c, 0, 91, 0
1, 44902, Note_on_c, 0, 64, 0
1, 44906, Note_on_c, 9, 40, 52
1, 44914, Note_on_c, 9, 40, 0
1, 44914, Note_on_c, 9, 40, 0
1, 44914, Note_on_c, 9, 44, 69
1, 44922, Note_on_c, 0, 59, 0
1, 44970, Note_on_c, 0, 91, 48
1, 44974, Note_on_c, 0, 59, 46
1, 44974, Note_on_c, 0, 64, 42
1, 44974, Note_on_c, 0, 79, 42
1, 44974, Note_on_c, 0, 53, 48
1, 44978, Control_c, 0, 64, 127
1, 44978, Note_on_c, 0, 86, 54
1, 45032, Note_on_c, 9, 44, 0
1, 45038, Note_on_c, 0, 53, 0
1, 45042, Note_on_c, 0, 79, 0
1, 45042, Note_on_c, 0, 64, 0
1, 45050, Note_on_c, 0, 86, 0
1, 45062, Note_on_c, 0, 91, 0
1, 45086, Note_on_c, 0, 59, 0
1, 45150, Note_on_c, 0, 53, 49
1, 45154, Note_on_c, 0, 59, 26
1, 45158, Note_on_c, 0, 91, 41
1, 45158, Note_on_c, 0, 64, 36
1, 45162, Note_on_c, 0, 79, 41
1, 45166, Note_on_c, 0, 86, 47
1, 45186, Note_on_c, 0, 59, 0
1, 45194, Note_on_c, 0, 64, 0
1, 45210, Note_on_c, 0, 79, 0
1, 45218, Note_on_c, 0, 86, 0
1, 45234, Note_on_c, 0, 53, 0
1, 45238, Note_on_c, 0, 91, 0
1, 45294, Note_on_c, 1, 36, 114
1, 45294, Note_on_c, 9, 40, 55
1, 45298, Note_on_c, 9, 40, 0
1, 45302, Note_on_c, 1, 38, 0
1, 45310, Control_c, 0, 64, 0
1, 45342, Note_on_c, 0, 91, 45
1, 45342, Note_on_c, 0, 52, 39
1, 45346, Note_on_c, 0, 62, 32
1, 45346, Note_on_c, 0, 79, 39
1, 45350, Note_on_c, 0, 86, 45
1, 45350, Note_on_c, 0, 58, 49
1, 45366, Control_c, 0, 64, 127
1, 45502, Note_on_c, 9, 39, 50
1, 45554, Note_on_c, 0, 58, 0
1, 45554, Note_on_c, 0, 52, 0
1, 45570, Note_on_c, 0, 62, 0
1, 45582, Note_on_c, 0, 79, 0
1, 45590, Note_on_c, 0, 86, 0
1, 45674, Note_on_c, 9, 39, 0
1, 45682, Note_on_c, 9, 40, 0
1, 45682, Note_on_c, 9, 44, 70
1, 45694, Note_on_c, 9, 40, 45
1, 45702, Note_on_c, 0, 62, 33
1, 45706, Note_on_c, 0, 58, 39
1, 45710, Note_on_c, 0, 52, 34
1, 45730, Note_on_c, 0, 91, 0
1, 45778, Note_on_c, 9, 44, 0
1, 45814, Note_on_c, 0, 52, 0
1, 45846, Note_on_c, 0, 58, 0
1, 45878, Note_on_c, 1, 41, 111
1, 45882, Note_on_c, 9, 40, 47
1, 45890, Note_on_c, 0, 62, 0
1, 45890, Note_on_c, 1, 36, 0
1, 45906, Note_on_c, 0, 97, 94
1, 45958, Note_on_c, 0, 97, 0
1, 45978, Note_on_c, 0, 99, 76
1, 46038, Note_on_c, 0, 97, 65
1, 46066, Note_on_c, 9, 40, 0
1, 46068, Note_on_c, 9, 40, 60
1, 46070, Note_on_c, 0, 99, 0
1, 46070, Note_on_c, 1, 34, 116
1, 46086, Note_on_c, 1, 41, 0
1, 46090, Control_c, 0, 64, 0
1, 46102, Note_on_c, 0, 61, 40
1, 46106, Note_on_c, 0, 56, 34
1, 46106, Note_on_c, 0, 94, 68
1, 46106, Note_on_c, 0, 65, 39
1, 46110, Note_on_c, 0, 97, 0
1, 46114, Note_on_c, 0, 60, 44
1, 46150, Note_on_c, 0, 94, 0
1, 46206, Note_on_c, 0, 92, 80
1, 46270, Note_on_c, 0, 92, 0
1, 46282, Control_c, 0, 64, 127
1, 46290, Note_on_c, 0, 94, 61
1, 46330, Note_on_c, 0, 65, 0
1, 46334, Note_on_c, 0, 92, 49
1, 46354, Note_on_c, 0, 61, 0
1, 46358, Note_on_c, 0, 60, 0
1, 46358, Note_on_c, 0, 94, 0
1, 46386, Note_on_c, 0, 89, 57
1, 46390, Note_on_c, 0, 92, 0
1, 46418, Note_on_c, 0, 89, 0
1, 46450, Note_on_c, 9, 40, 0
1, 46450, Note_on_c, 9, 40, 0
1, 46450, Note_on_c, 9, 44, 62
1, 46462, Note_on_c, 0, 85, 73
1, 46470, Note_on_c, 0, 65, 39
1, 46474, Control_c, 0, 64, 0
1, 46474, Note_on_c, 0, 61, 38
1, 46478, Note_on_c, 0, 60, 35
1, 46478, Note_on_c, 9, 40, 52
1, 46500, Note_on_c, 9, 37, 25
1, 46516, Note_on_c, 9, 37, 0
1, 46530, Note_on_c, 0, 85, 0
1, 46536, Note_on_c, 9, 44, 0
1, 46542, Note_on_c, 0, 87, 57
1, 46542, Control_c, 0, 64, 127
1, 46582, Note_on_c, 0, 65, 0
1, 46582, Note_on_c, 0, 61, 0
1, 46590, Note_on_c, 0, 85, 49
1, 46598, Note_on_c, 0, 87, 0
1, 46614, Note_on_c, 0, 60, 0
1, 46638, Note_on_c, 0, 85, 0
1, 46646, Note_on_c, 0, 82, 44
1, 46662, Note_on_c, 1, 40, 111
1, 46678, Note_on_c, 1, 34, 0
1, 46690, Note_on_c, 0, 82, 0
1, 46714, Note_on_c, 0, 80, 58
1, 46734, Note_on_c, 0, 80, 0
1, 46742, Control_c, 0, 64, 0
1, 46782, Note_on_c, 0, 56, 0
1, 46834, Note_on_c, 9, 40, 0
1, 46850, Note_on_c, 9, 40, 52
1, 46858, Note_on_c, 1, 39, 112
1, 46882, Note_on_c, 1, 40, 0
1, 46890, Control_c, 0, 64, 127
1, 47046, Note_on_c, 0, 55, 50
1, 47050, Note_on_c, 0, 61, 45
1, 47054, Note_on_c, 0, 65, 36
1, 47166, Note_on_c, 0, 65, 0
1, 47190, Note_on_c, 0, 55, 0
1, 47218, Note_on_c, 0, 61, 0
1, 47218, Note_on_c, 9, 40, 0
1, 47218, Note_on_c, 9, 44, 64
1, 47218, Note_on_c, 9, 40, 75
1, 47290, Note_on_c, 9, 44, 0
1, 47386, Note_on_c, 0, 84, 81
1, 47386, Note_on_c, 0, 65, 63
1, 47386, Note_on_c, 0, 54, 60
1, 47390, Note_on_c, 0, 72, 77
1, 47394, Note_on_c, 0, 60, 57
1, 47406, Note_on_c, 0, 72, 0
1, 47438, Note_on_c, 0, 65, 0
1, 47450, Note_on_c, 0, 84, 0
1, 47462, Note_on_c, 0, 54, 0
1, 47466, Note_on_c, 0, 60, 0
1, 47506, Note_on_c, 0, 54, 57
1, 47510, Note_on_c, 0, 84, 78
1, 47514, Note_on_c, 0, 72, 66
1, 47518, Note_on_c, 0, 60, 52
1, 47518, Note_on_c, 0, 65, 58
1, 47530, Note_on_c, 0, 74, 43
1, 47534, Note_on_c, 1, 34, 98
1, 47550, Note_on_c, 0, 74, 0
1, 47554, Note_on_c, 0, 65, 0
1, 47554, Note_on_c, 0, 72, 0
1, 47566, Note_on_c, 0, 84, 0
1, 47570, Note_on_c, 1, 39, 0
1, 47572, Note_on_c, 9, 35, 37
1, 47578, Note_on_c, 0, 60, 0
1, 47578, Note_on_c, 0, 54, 0
1, 47592, Note_on_c, 9, 40, 62
1, 47594, Note_on_c, 1, 34, 0
1, 47598, Note_on_c, 9, 35, 0
1, 47602, Note_on_c, 9, 40, 0
1, 47610, Control_c, 0, 64, 0
1, 47610, Note_on_c, 1, 33, 111
1, 47634, Note_on_c, 0, 86, 89
1, 47638, Note_on_c, 0, 79, 82
1, 47638, Note_on_c, 0, 57, 71
1, 47638, Note_on_c, 0, 74, 87
1, 47638, Note_on_c, 0, 83, 78
1, 47638, Note_on_c, 0, 64, 75
1, 47638, Note_on_c, 0, 55, 71
1, 47638, Note_on_c, 0, 60, 63
1, 47658, Note_on_c, 9, 35, 32
1, 47670, Control_c, 0, 64, 127
1, 47726, Note_on_c, 9, 35, 0
1, 47766, Note_on_c, 0, 55, 0
1, 47766, Note_on_c, 0, 74, 0
1, 47766, Note_on_c, 0, 64, 0
1, 47770, Note_on_c, 0, 86, 0
1, 47774, Note_on_c, 0, 79, 0
1, 47774, Note_on_c, 0, 60, 0
1, 47782, Note_on_c, 0, 57, 0
1, 47794, Note_on_c, 0, 83, 0
1, 47842, Note_on_c, 9, 59, 60
1, 47846, Note_on_c, 0, 86, 82
1, 47848, Note_on_c, 9, 35, 35
1, 47850, Note_on_c, 0, 64, 70
1, 47850, Note_on_c, 0, 74, 80
1, 47850, Note_on_c, 0, 55, 63
1, 47850, Note_on_c, 0, 79, 76
1, 47850, Note_on_c, 0, 83, 68
1, 47850, Note_on_c, 0, 60, 62
1, 47850, Note_on_c, 0, 57, 66
1, 47858, Note_on_c, 9, 59, 0
1, 47898, Note_on_c, 9, 35, 0
1, 47954, Note_on_c, 0, 74, 0
1, 47958, Note_on_c, 0, 55, 0
1, 47958, Note_on_c, 0, 86, 0
1, 47962, Note_on_c, 0, 79, 0
1, 47962, Note_on_c, 0, 64, 0
1, 47966, Note_on_c, 0, 57, 0
1, 47974, Note_on_c, 0, 60, 0
1, 47982, Note_on_c, 0, 83, 0
1, 47986, Note_on_c, 9, 40, 0
1, 47986, Note_on_c, 9, 44, 55
1, 48002, Note_on_c, 9, 40, 62
1, 48020, Note_on_c, 9, 44, 0
1, 48042, Note_on_c, 0, 64, 57
1, 48042, Note_on_c, 0, 86, 63
1, 48042, Note_on_c, 0, 55, 57
1, 48050, Note_on_c, 0, 60, 57
1, 48050, Note_on_c, 0, 74, 57
1, 48050, Note_on_c, 0, 57, 52
1, 48050, Note_on_c, 0, 83, 60
1, 48050, Note_on_c, 0, 79, 64
1, 48146, Note_on_c, 0, 55, 0
1, 48150, Note_on_c, 0, 64, 0
1, 48150, Note_on_c, 0, 74, 0
1, 48154, Note_on_c, 0, 57, 0
1, 48158, Note_on_c, 0, 79, 0
1, 48170, Note_on_c, 0, 86, 0
1, 48170, Note_on_c, 0, 60, 0
1, 48174, Note_on_c, 0, 83, 0
1, 48234, Note_on_c, 0, 86, 57
1, 48234, Note_on_c, 0, 55, 54
1, 48238, Note_on_c, 0, 64, 45
1, 48242, Note_on_c, 0, 60, 45
1, 48242, Note_on_c, 0, 79, 60
1, 48242, Note_on_c, 0, 74, 52
1, 48246, Note_on_c, 0, 57, 48
1, 48278, Note_on_c, 0, 57, 0
1, 48278, Note_on_c, 0, 86, 0
1, 48282, Note_on_c, 0, 64, 0
1, 48286, Note_on_c, 0, 74, 0
1, 48290, Note_on_c, 0, 55, 0
1, 48290, Note_on_c, 0, 79, 0
1, 48310, Note_on_c, 0, 60, 0
1, 48354, Note_on_c, 9, 40, 75
1, 48370, Note_on_c, 9, 40, 0
1, 48386, Note_on_c, 1, 33, 0
1, 48386, Note_on_c, 1, 38, 115
1, 48418, Control_c, 0, 64, 0
1, 48422, Note_on_c, 0, 82, 73
1, 48430, Note_on_c, 0, 74, 65
1, 48430, Note_on_c, 0, 54, 58
1, 48430, Note_on_c, 0, 77, 68
1, 48430, Note_on_c, 0, 65, 56
1, 48434, Note_on_c, 0, 60, 59
1, 48506, Control_c, 0, 64, 127
1, 48554, Note_on_c, 0, 65, 0
1, 48554, Note_on_c, 0, 82, 0
1, 48558, Note_on_c, 0, 74, 0
1, 48558, Note_on_c, 0, 77, 0
1, 48562, Note_on_c, 0, 54, 0
1, 48570, Note_on_c, 0, 60, 0
1, 48574, Control_c, 0, 64, 0
1, 48626, Note_on_c, 0, 82, 59
1, 48630, Note_on_c, 0, 54, 52
1, 48630, Note_on_c, 0, 65, 51
1, 48634, Note_on_c, 0, 74, 43
1, 48634, Note_on_c, 0, 77, 66
1, 48642, Note_on_c, 0, 60, 48
1, 48642, Control_c, 0, 64, 127
1, 48730, Note_on_c, 9, 39, 68
1, 48734, Note_on_c, 0, 60, 0
1, 48734, Note_on_c, 0, 77, 0
1, 48738, Note_on_c, 0, 54, 0
1, 48738, Note_on_c, 0, 82, 0
1, 48738, Note_on_c, 0, 65, 0
1, 48742, Note_on_c, 0, 74, 0
1, 48754, Note_on_c, 9, 40, 0
1, 48754, Note_on_c, 9, 44, 74
1, 48818, Note_on_c, 0, 54, 49
1, 48818, Note_on_c, 0, 82, 55
1, 48820, Note_on_c, 9, 44, 0
1, 48822, Note_on_c, 0, 65, 42
1, 48826, Note_on_c, 0, 74, 43
1, 48830, Note_on_c, 0, 60, 46
1, 48830, Note_on_c, 0, 77, 50
1, 48866, Note_on_c, 0, 65, 0
1, 48866, Note_on_c, 0, 82, 0
1, 48870, Note_on_c, 0, 74, 0
1, 48878, Note_on_c, 0, 77, 0
1, 48882, Note_on_c, 0, 54, 0
1, 48882, Note_on_c, 0, 60, 0
1, 48906, Note_on_c, 9, 39, 0
1, 48936, Note_on_c, 9, 40, 55
1, 48998, Note_on_c, 0, 82, 60
1, 49006, Note_on_c, 0, 54, 48
1, 49014, Note_on_c, 0, 74, 54
1, 49026, Note_on_c, 0, 82, 0
1, 49030, Note_on_c, 0, 74, 0
1, 49102, Note_on_c, 0, 54, 0
1, 49130, Note_on_c, 9, 40, 62
1, 49138, Note_on_c, 9, 40, 0
1, 49154, Control_c, 0, 64, 0
1, 49178, Note_on_c, 0, 79, 60
1, 49182, Note_on_c, 0, 62, 43
1, 49182, Note_on_c, 0, 71, 57
1, 49182, Note_on_c, 0, 69, 49
1, 49182, Note_on_c, 0, 74, 54
1, 49182, Note_on_c, 0, 59, 43
1, 49198, Note_on_c, 0, 57, 36
1, 49214, Control_c, 0, 64, 127
1, 49306, Note_on_c, 0, 62, 0
1, 49310, Note_on_c, 0, 59, 0
1, 49322, Note_on_c, 0, 57, 0
1, 49322, Note_on_c, 1, 50, 120
1, 49346, Note_on_c, 9, 40, 67
1, 49478, Note_on_c, 1, 50, 0
1, 49510, Note_on_c, 0, 79, 0
1, 49510, Note_on_c, 1, 50, 116
1, 49522, Note_on_c, 9, 40, 0
1, 49522, Note_on_c, 9, 44, 75
1, 49522, Note_on_c, 9, 44, 70
1, 49522, Note_on_c, 9, 44, 58
1, 49530, Note_on_c, 0, 69, 0
1, 49534, Note_on_c, 0, 71, 0
1, 49538, Note_on_c, 0, 74, 0
1, 49562, Note_on_c, 9, 44, 0
1, 49582, Note_on_c, 9, 44, 0
1, 49672, Note_on_c, 9, 44, 0
1, 49714, Note_on_c, 0, 50, 79
1, 49726, Note_on_c, 0, 49, 50
1, 49746, Note_on_c, 0, 49, 0
1, 49790, Note_on_c, 1, 50, 0
1, 49822, Note_on_c, 1, 49, 96
1, 49882, Note_on_c, 1, 49, 0
1, 49906, Note_on_c, 9, 40, 0
1, 49906, Note_on_c, 1, 50, 98
1, 49922, Note_on_c, 9, 40, 75
1, 50018, Note_on_c, 1, 50, 0
1, 50022, Note_on_c, 1, 49, 81
1, 50050, Control_c, 0, 64, 0
1, 50058, Note_on_c, 1, 49, 0
1, 50090, Note_on_c, 1, 50, 94
1, 50166, Note_on_c, 1, 38, 0
1, 50214, Note_on_c, 0, 62, 72
1, 50250, Note_on_c, 0, 62, 0
1, 50290, Note_on_c, 9, 40, 0
1, 50290, Note_on_c, 9, 44, 54
1, 50290, Note_on_c, 9, 44, 55
1, 50302, Note_on_c, 0, 66, 58
1, 50318, Note_on_c, 9, 40, 60
1, 50322, Note_on_c, 0, 66, 0
1, 50340, Note_on_c, 9, 44, 0
1, 50406, Note_on_c, 0, 50, 0
1, 50462, Note_on_c, 9, 44, 0
1, 50490, Note_on_c, 0, 74, 68
1, 50542, Note_on_c, 0, 74, 0
1, 50602, Note_on_c, 0, 78, 69
1, 50626, Note_on_c, 1, 38, 102
1, 50650, Note_on_c, 0, 78, 0
1, 50674, Note_on_c, 1, 50, 0
1, 50674, Note_on_c, 9, 40, 0
1, 50686, Note_on_c, 1, 38, 0
1, 50690, Note_on_c, 0, 79, 66
1, 50698, Note_on_c, 0, 62, 36
1, 50698, Note_on_c, 1, 31, 111
1, 50706, Note_on_c, 9, 40, 62
1, 50710, Note_on_c, 0, 59, 30
1, 50710, Note_on_c, 0, 57, 36
1, 50742, Note_on_c, 0, 79, 0
1, 50806, Note_on_c, 0, 78, 39
1, 50834, Note_on_c, 0, 78, 0
1, 50894, Note_on_c, 0, 79, 56
1, 50910, Note_on_c, 0, 62, 0
1, 50922, Note_on_c, 0, 59, 0
1, 50922, Note_on_c, 0, 79, 0
1, 51002, Note_on_c, 0, 78, 57
1, 51026, Note_on_c, 0, 57, 0
1, 51058, Note_on_c, 9, 40, 0
1, 51058, Note_on_c, 0, 78, 0
1, 51058, Note_on_c, 9, 44, 56
1, 51058, Note_on_c, 9, 44, 60
1, 51082, Note_on_c, 1, 31, 0
1, 51082, Note_on_c, 1, 43, 117
1, 51092, Note_on_c, 9, 40, 60
1, 51094, Note_on_c, 0, 74, 49
1, 51098, Note_on_c, 0, 62, 37
1, 51102, Note_on_c, 0, 59, 37
1, 51102, Control_c, 0, 64, 127
1, 51106, Note_on_c, 9, 44, 0
1, 51106, Note_on_c, 0, 57, 15
1, 51118, Note_on_c, 9, 35, 29
1, 51134, Note_on_c, 9, 35, 0
1, 51186, Note_on_c, 9, 44, 0
1, 51234, Note_on_c, 0, 57, 0
1, 51242, Note_on_c, 0, 59, 0
1, 51254, Note_on_c, 0, 74, 0
1, 51266, Note_on_c, 0, 62, 0
1, 51278, Note_on_c, 0, 71, 43
1, 51288, Note_on_c, 9, 40, 65
1, 51422, Note_on_c, 1, 43, 0
1, 51422, Note_on_c, 1, 40, 76
1, 51442, Note_on_c, 9, 40, 0
1, 51446, Control_c, 0, 64, 0
1, 51462, Note_on_c, 0, 62, 42
1, 51466, Note_on_c, 0, 57, 38
1, 51466, Note_on_c, 0, 67, 34
1, 51466, Note_on_c, 0, 63, 42
1, 51470, Note_on_c, 1, 40, 0
1, 51474, Note_on_c, 1, 41, 101
1, 51474, Note_on_c, 9, 40, 67
1, 51510, Control_c, 0, 64, 127
1, 51526, Note_on_c, 0, 71, 0
1, 51672, Note_on_c, 9, 35, 27
1, 51674, Note_on_c, 0, 82, 102
1, 51694, Control_c, 0, 64, 72
1, 51694, Control_c, 0, 64, 0
1, 51698, Note_on_c, 0, 63, 0
1, 51702, Note_on_c, 0, 67, 0
1, 51710, Note_on_c, 0, 57, 0
1, 51726, Note_on_c, 0, 62, 0
1, 51758, Note_on_c, 0, 82, 0
1, 51786, Note_on_c, 0, 86, 86
1, 51790, Note_on_c, 9, 35, 0
1, 51790, Note_on_c, 0, 83, 94
1, 51826, Note_on_c, 0, 83, 0
1, 51826, Note_on_c, 9, 40, 0
1, 51826, Note_on_c, 9, 40, 0
1, 51826, Note_on_c, 9, 44, 51
1, 51826, Note_on_c, 9, 44, 62
1, 51834, Note_on_c, 0, 86, 0
1, 51834, Note_on_c, 9, 40, 55
1, 51858, Note_on_c, 9, 44, 0
1, 51886, Note_on_c, 0, 78, 79
1, 51886, Note_on_c, 0, 82, 67
1, 51930, Note_on_c, 9, 44, 0
1, 51942, Note_on_c, 0, 78, 0
1, 51950, Note_on_c, 0, 82, 0
1, 51994, Note_on_c, 0, 83, 55
1, 51994, Note_on_c, 0, 79, 60
1, 52010, Note_on_c, 0, 83, 0
1, 52018, Note_on_c, 0, 79, 0
1, 52026, Note_on_c, 1, 38, 73
1, 52030, Note_on_c, 1, 41, 0
1, 52078, Note_on_c, 0, 78, 55
1, 52082, Note_on_c, 0, 73, 64
1, 52086, Note_on_c, 1, 38, 0
1, 52098, Note_on_c, 0, 73, 0
1, 52098, Note_on_c, 0, 63, 19
1, 52106, Note_on_c, 0, 78, 0
1, 52126, Note_on_c, 0, 63, 0
1, 52142, Note_on_c, 1, 39, 86
1, 52182, Note_on_c, 0, 74, 68
1, 52190, Note_on_c, 0, 79, 55
1, 52206, Note_on_c, 1, 39, 0
1, 52210, Note_on_c, 9, 40, 0
1, 52210, Note_on_c, 0, 79, 0
1, 52218, Note_on_c, 0, 74, 0
1, 52218, Note_on_c, 1, 40, 79
1, 52226, Note_on_c, 9, 40, 60
1, 52290, Note_on_c, 0, 71, 27
1, 52310, Note_on_c, 0, 71, 0
1, 52446, Note_on_c, 0, 67, 40
1, 52470, Note_on_c, 0, 67, 0
1, 52594, Note_on_c, 9, 40, 0
1, 52594, Note_on_c, 9, 44, 58
1, 52594, Note_on_c, 9, 44, 60
1, 52618, Note_on_c, 0, 65, 40
1, 52618, Note_on_c, 0, 64, 45
1, 52622, Note_on_c, 9, 44, 0
1, 52622, Note_on_c, 1, 52, 111
1, 52626, Note_on_c, 0, 69, 45
1, 52626, Note_on_c, 0, 71, 45
1, 52628, Note_on_c, 9, 40, 55
1, 52698, Note_on_c, 9, 44, 0
1, 52770, Note_on_c, 0, 65, 0
1, 52814, Note_on_c, 0, 65, 23
1, 52814, Note_on_c, 0, 74, 66
1, 52818, Note_on_c, 0, 64, 0
1, 52818, Note_on_c, 0, 62, 41
1, 52826, Control_c, 0, 64, 127
1, 52826, Note_on_c, 9, 35, 28
1, 52838, Note_on_c, 0, 69, 0
1, 52846, Note_on_c, 0, 71, 0
1, 52846, Note_on_c, 0, 65, 0
1, 52858, Note_on_c, 9, 35, 0
1, 52894, Note_on_c, 0, 62, 0
1, 52918, Note_on_c, 0, 74, 0
1, 52978, Note_on_c, 9, 40, 0
1, 52986, Control_c, 0, 64, 0
1, 52986, Note_on_c, 9, 40, 65
1, 53006, Note_on_c, 0, 76, 58
1, 53010, Note_on_c, 0, 65, 54
1, 53014, Note_on_c, 0, 68, 49
1, 53018, Note_on_c, 0, 64, 39
1, 53018, Note_on_c, 0, 71, 54
1, 53026, Note_on_c, 0, 56, 34
1, 53082, Control_c, 0, 64, 127
1, 53166, Note_on_c, 1, 40, 0
1, 53182, Note_on_c, 1, 49, 63
1, 53202, Note_on_c, 0, 64, 0
1, 53202, Note_on_c, 9, 39, 36
1, 53218, Note_on_c, 0, 76, 0
1, 53230, Note_on_c, 0, 71, 0
1, 53238, Note_on_c, 0, 65, 0
1, 53278, Note_on_c, 1, 49, 0
1, 53286, Note_on_c, 0, 68, 0
1, 53306, Note_on_c, 1, 52, 0
1, 53306, Note_on_c, 1, 47, 96
1, 53306, Note_on_c, 1, 49, 50
1, 53334, Note_on_c, 1, 49, 0
1, 53346, Note_on_c, 1, 47, 0
1, 53362, Note_on_c, 9, 40, 0
1, 53362, Control_c, 0, 64, 0
1, 53362, Note_on_c, 9, 46, 44
1, 53362, Note_on_c, 9, 46, 34
1, 53364, Note_on_c, 9, 39, 0
1, 53378, Note_on_c, 1, 44, 100
1, 53384, Note_on_c, 9, 46, 0
1, 53384, Note_on_c, 9, 40, 55
1, 53390, Note_on_c, 0, 68, 56
1, 53402, Note_on_c, 0, 65, 54
1, 53402, Note_on_c, 0, 64, 41
1, 53434, Control_c, 0, 64, 127
1, 53474, Note_on_c, 9, 46, 0
1, 53490, Note_on_c, 0, 65, 0
1, 53494, Note_on_c, 0, 64, 0
1, 53514, Note_on_c, 0, 74, 81
1, 53574, Note_on_c, 0, 56, 0
1, 53582, Note_on_c, 9, 39, 35
1, 53598, Note_on_c, 0, 74, 0
1, 53614, Note_on_c, 0, 68, 0
1, 53634, Note_on_c, 0, 72, 74
1, 53678, Note_on_c, 9, 35, 31
1, 53688, Note_on_c, 9, 39, 0
1, 53702, Note_on_c, 1, 44, 0
1, 53702, Note_on_c, 1, 40, 87
1, 53706, Note_on_c, 9, 35, 0
1, 53722, Note_on_c, 0, 72, 0
1, 53732, Note_on_c, 9, 40, 37
1, 53746, Note_on_c, 9, 40, 0
1, 53746, Control_c, 0, 64, 0
1, 53766, Note_on_c, 1, 40, 0
1, 53766, Note_on_c, 0, 69, 57
1, 53766, Note_on_c, 1, 45, 112
1, 53770, Note_on_c, 9, 35, 37
1, 53778, Note_on_c, 9, 59, 40
1, 53780, Note_on_c, 9, 40, 52
1, 53782, Note_on_c, 0, 64, 31
1, 53814, Note_on_c, 0, 64, 0
1, 53858, Note_on_c, 9, 35, 0
1, 53866, Note_on_c, 9, 59, 0
1, 53958, Note_on_c, 0, 64, 39
1, 53966, Note_on_c, 0, 60, 41
1, 53966, Note_on_c, 9, 35, 37
1, 53970, Note_on_c, 0, 59, 35
1, 53970, Note_on_c, 9, 59, 31
1, 54042, Note_on_c, 9, 59, 0
1, 54046, Note_on_c, 9, 35, 0
1, 54130, Note_on_c, 9, 40, 0
1, 54130, Note_on_c, 9, 40, 0
1, 54130, Note_on_c, 9, 44, 79
1, 54130, Note_on_c, 9, 44, 34
1, 54132, Note_on_c, 9, 40, 47
1, 54154, Note_on_c, 0, 69, 0
1, 54166, Note_on_c, 0, 68, 50
1, 54222, Note_on_c, 0, 68, 0
1, 54238, Note_on_c, 9, 44, 0
1, 54238, Note_on_c, 9, 44, 0
1, 54274, Note_on_c, 0, 69, 68
1, 54330, Note_on_c, 0, 69, 0
1, 54354, Note_on_c, 0, 64, 0
1, 54354, Note_on_c, 0, 59, 0
1, 54362, Note_on_c, 0, 72, 57
1, 54390, Note_on_c, 0, 60, 0
1, 54422, Note_on_c, 0, 72, 0
1, 54466, Note_on_c, 0, 76, 87
1, 54506, Note_on_c, 9, 40, 52
1, 54514, Note_on_c, 9, 40, 0
1, 54522, Note_on_c, 1, 45, 0
1, 54522, Note_on_c, 1, 40, 111
1, 54542, Note_on_c, 0, 64, 57
1, 54550, Note_on_c, 0, 76, 0
1, 54554, Note_on_c, 0, 60, 51
1, 54558, Note_on_c, 0, 79, 84
1, 54558, Note_on_c, 0, 57, 49
1, 54622, Note_on_c, 0, 79, 0
1, 54666, Note_on_c, 0, 83, 115
1, 54726, Note_on_c, 0, 83, 0
1, 54750, Note_on_c, 0, 86, 102
1, 54770, Note_on_c, 0, 64, 0
1, 54834, Note_on_c, 0, 60, 0
1, 54834, Note_on_c, 0, 86, 0
1, 54862, Note_on_c, 0, 84, 81
1, 54874, Note_on_c, 9, 40, 65
1, 54898, Note_on_c, 9, 40, 0
1, 54898, Note_on_c, 9, 44, 55
1, 54898, Note_on_c, 9, 44, 50
1, 54922, Note_on_c, 0, 64, 31
1, 54922, Note_on_c, 0, 60, 27
1, 54934, Note_on_c, 0, 84, 0
1, 54950, Note_on_c, 0, 80, 48
1, 54952, Note_on_c, 9, 44, 0
1, 55006, Note_on_c, 9, 44, 0
1, 55034, Note_on_c, 0, 80, 0
1, 55046, Note_on_c, 0, 83, 78
1, 55062, Note_on_c, 0, 64, 0
1, 55066, Note_on_c, 0, 60, 0
1, 55082, Note_on_c, 0, 57, 0
1, 55110, Note_on_c, 0, 83, 0
1, 55138, Note_on_c, 0, 81, 48
1, 55194, Note_on_c, 9, 39, 53
1, 55218, Note_on_c, 0, 81, 0
1, 55226, Control_c, 0, 64, 127
1, 55236, Note_on_c, 9, 39, 0
1, 55250, Note_on_c, 0, 76, 50
1, 55254, Control_c, 0, 64, 0
1, 55258, Note_on_c, 1, 40, 0
1, 55262, Note_on_c, 1, 36, 112
1, 55268, Note_on_c, 9, 40, 72
1, 55282, Note_on_c, 9, 40, 0
1, 55318, Note_on_c, 0, 63, 32
1, 55318, Note_on_c, 0, 58, 33
1, 55318, Note_on_c, 0, 67, 28
1, 55326, Note_on_c, 0, 76, 0
1, 55326, Note_on_c, 0, 75, 52
1, 55338, Note_on_c, 0, 62, 24
1, 55422, Note_on_c, 0, 75, 0
1, 55466, Note_on_c, 0, 74, 36
1, 55470, Note_on_c, 9, 40, 55
1, 55486, Note_on_c, 0, 74, 0
1, 55494, Note_on_c, 0, 67, 0
1, 55506, Note_on_c, 0, 62, 0
1, 55510, Note_on_c, 0, 77, 66
1, 55518, Note_on_c, 0, 63, 0
1, 55614, Note_on_c, 0, 77, 0
1, 55634, Note_on_c, 0, 74, 39
1, 55666, Note_on_c, 9, 40, 0
1, 55666, Note_on_c, 9, 40, 0
1, 55666, Note_on_c, 9, 44, 57
1, 55666, Note_on_c, 9, 44, 44
1, 55674, Note_on_c, 0, 74, 0
1, 55674, Note_on_c, 0, 67, 39
1, 55690, Note_on_c, 0, 63, 33
1, 55690, Note_on_c, 0, 75, 53
1, 55698, Note_on_c, 0, 62, 25
1, 55700, Note_on_c, 9, 44, 0
1, 55730, Note_on_c, 0, 67, 0
1, 55774, Control_c, 0, 64, 88
1, 55774, Control_c, 0, 64, 127
1, 55786, Note_on_c, 9, 44, 0
1, 55802, Note_on_c, 0, 75, 0
1, 55842, Note_on_c, 0, 62, 0
1, 55858, Note_on_c, 9, 40, 55
1, 55862, Note_on_c, 0, 63, 0
1, 55862, Note_on_c, 0, 65, 52
1, 55994, Note_on_c, 0, 58, 0
1, 56040, Note_on_c, 9, 40, 75
1, 56050, Note_on_c, 0, 63, 39
1, 56058, Control_c, 0, 64, 0
1, 56062, Note_on_c, 0, 57, 44
1, 56062, Note_on_c, 1, 55, 110
1, 56086, Note_on_c, 0, 57, 0
1, 56138, Note_on_c, 0, 57, 12
1, 56150, Note_on_c, 0, 65, 0
1, 56154, Note_on_c, 0, 67, 61
1, 56178, Note_on_c, 1, 55, 0
1, 56182, Note_on_c, 1, 43, 78
1, 56198, Note_on_c, 1, 43, 0
1, 56210, Note_on_c, 0, 67, 0
1, 56230, Note_on_c, 0, 69, 49
1, 56250, Note_on_c, 0, 69, 0
1, 56250, Note_on_c, 1, 54, 101
1, 56254, Note_on_c, 1, 36, 0
1, 56262, Note_on_c, 0, 63, 0
1, 56266, Note_on_c, 9, 39, 32
1, 56286, Note_on_c, 0, 70, 59
1, 56310, Note_on_c, 0, 70, 0
1, 56346, Note_on_c, 0, 72, 58
1, 56378, Note_on_c, 0, 72, 0
1, 56398, Note_on_c, 0, 63, 34
1, 56398, Note_on_c, 1, 41, 61
1, 56402, Note_on_c, 0, 74, 60
1, 56422, Note_on_c, 1, 41, 0
1, 56422, Note_on_c, 1, 54, 0
1, 56424, Note_on_c, 9, 39, 0
1, 56426, Note_on_c, 0, 63, 0
1, 56434, Note_on_c, 9, 40, 0
1, 56434, Note_on_c, 9, 40, 0
1, 56434, Note_on_c, 9, 44, 58
1, 56434, Note_on_c, 9, 44, 48
1, 56442, Note_on_c, 1, 53, 95
1, 56452, Note_on_c, 9, 40, 52
1, 56454, Note_on_c, 0, 74, 0
1, 56458, Note_on_c, 0, 75, 58
1, 56474, Note_on_c, 0, 75, 0
1, 56498, Note_on_c, 0, 76, 63
1, 56514, Note_on_c, 9, 44, 0
1, 56532, Note_on_c, 9, 44, 0
1, 56542, Note_on_c, 0, 76, 0
1, 56550, Note_on_c, 0, 77, 46
1, 56554, Note_on_c, 0, 63, 32
1, 56566, Note_on_c, 1, 41, 78
1, 56574, Note_on_c, 0, 77, 0
1, 56582, Note_on_c, 0, 63, 0
1, 56590, Note_on_c, 1, 41, 0
1, 56594, Note_on_c, 1, 53, 0
1, 56598, Note_on_c, 0, 57, 0
1, 56622, Note_on_c, 1, 51, 98
1, 56754, Note_on_c, 9, 35, 31
1, 56772, Note_on_c, 9, 35, 0
1, 56778, Control_c, 0, 64, 127
1, 56798, Note_on_c, 1, 51, 0
1, 56818, Note_on_c, 9, 40, 0
1, 56818, Note_on_c, 1, 50, 96
1, 56824, Note_on_c, 9, 40, 52
1, 56834, Note_on_c, 9, 57, 29
1, 56834, Note_on_c, 9, 35, 24
1, 56862, Note_on_c, 9, 57, 0
1, 56866, Note_on_c, 9, 35, 0
1, 56866, Control_c, 0, 64, 0
1, 57034, Note_on_c, 0, 64, 39
1, 57038, Note_on_c, 0, 59, 43
1, 57042, Note_on_c, 0, 53, 41
1, 57198, Note_on_c, 9, 40, 65
1, 57202, Note_on_c, 9, 40, 0
1, 57202, Note_on_c, 9, 44, 73
1, 57222, Note_on_c, 0, 64, 0
1, 57234, Note_on_c, 0, 81, 44
1, 57270, Note_on_c, 0, 81, 0
1, 57270, Note_on_c, 0, 82, 44
1, 57286, Note_on_c, 0, 82, 0
1, 57298, Note_on_c, 0, 53, 0
1, 57302, Note_on_c, 0, 83, 52
1, 57330, Note_on_c, 1, 50, 0
1, 57334, Note_on_c, 1, 47, 92
1, 57342, Note_on_c, 0, 83, 0
1, 57346, Note_on_c, 0, 59, 0
1, 57366, Note_on_c, 1, 47, 0
1, 57370, Note_on_c, 0, 59, 26
1, 57370, Note_on_c, 0, 86, 83
1, 57374, Note_on_c, 0, 74, 69
1, 57378, Note_on_c, 0, 64, 48
1, 57382, Control_c, 0, 64, 127
1, 57382, Note_on_c, 0, 53, 42
1, 57390, Note_on_c, 0, 76, 36
1, 57394, Note_on_c, 1, 49, 107
1, 57402, Note_on_c, 0, 64, 0
1, 57406, Note_on_c, 0, 53, 0
1, 57410, Note_on_c, 0, 76, 0
1, 57410, Note_on_c, 0, 74, 0
1, 57418, Note_on_c, 0, 86, 0
1, 57418, Control_c, 0, 64, 0
1, 57446, Note_on_c, 0, 88, 88
1, 57446, Note_on_c, 0, 53, 51
1, 57446, Note_on_c, 0, 64, 57
1, 57454, Note_on_c, 0, 76, 66
1, 57454, Note_on_c, 0, 82, 57
1, 57462, Note_on_c, 0, 85, 44
1, 57474, Note_on_c, 0, 82, 0
1, 57478, Note_on_c, 0, 85, 0
1, 57486, Control_c, 0, 64, 127
1, 57490, Note_on_c, 0, 64, 0
1, 57502, Note_on_c, 0, 59, 0
1, 57506, Note_on_c, 0, 76, 0
1, 57510, Note_on_c, 0, 88, 0
1, 57518, Note_on_c, 1, 47, 85
1, 57522, Note_on_c, 0, 53, 0
1, 57542, Note_on_c, 1, 49, 0
1, 57546, Note_on_c, 1, 47, 0
1, 57574, Control_c, 0, 64, 0
1, 57586, Note_on_c, 9, 40, 0
1, 57590, Note_on_c, 1, 48, 94
1, 57598, Note_on_c, 9, 40, 55
1, 57618, Note_on_c, 0, 86, 71
1, 57622, Note_on_c, 0, 62, 42
1, 57622, Note_on_c, 0, 74, 64
1, 57622, Note_on_c, 0, 52, 50
1, 57624, Note_on_c, 9, 44, 0
1, 57626, Note_on_c, 0, 58, 47
1, 57658, Control_c, 0, 64, 127
1, 57830, Note_on_c, 0, 58, 0
1, 57838, Note_on_c, 0, 62, 0
1, 57858, Note_on_c, 0, 52, 0
1, 57862, Note_on_c, 0, 74, 0
1, 57910, Note_on_c, 0, 86, 0
1, 57970, Note_on_c, 9, 40, 0
1, 57970, Note_on_c, 9, 44, 77
1, 57982, Note_on_c, 0, 52, 35
1, 57990, Note_on_c, 0, 58, 40
1, 57990, Note_on_c, 0, 62, 31
1, 57992, Note_on_c, 9, 40, 67
1, 57998, Note_on_c, 0, 74, 42
1, 58022, Note_on_c, 0, 74, 0
1, 58058, Note_on_c, 0, 52, 0
1, 58082, Note_on_c, 0, 58, 0
1, 58102, Note_on_c, 0, 62, 0
1, 58310, Note_on_c, 1, 47, 106
1, 58318, Note_on_c, 1, 48, 0
1, 58338, Note_on_c, 1, 47, 0
1, 58354, Note_on_c, 9, 40, 0
1, 58358, Control_c, 0, 64, 0
1, 58370, Note_on_c, 9, 40, 50
1, 58378, Note_on_c, 0, 56, 37
1, 58378, Note_on_c, 0, 85, 60
1, 58378, Note_on_c, 0, 70, 56
1, 58378, Note_on_c, 1, 46, 101
1, 58382, Note_on_c, 0, 61, 39
1, 58386, Note_on_c, 0, 65, 17
1, 58394, Note_on_c, 0, 60, 31
1, 58410, Note_on_c, 9, 44, 0
1, 58434, Note_on_c, 0, 60, 0
1, 58458, Note_on_c, 0, 70, 0
1, 58458, Note_on_c, 0, 65, 0
1, 58458, Note_on_c, 0, 61, 0
1, 58462, Note_on_c, 0, 85, 0
1, 58470, Note_on_c, 0, 56, 0
1, 58490, Note_on_c, 1, 46, 0
1, 58562, Note_on_c, 1, 46, 93
1, 58578, Note_on_c, 0, 56, 36
1, 58578, Note_on_c, 0, 65, 31
1, 58578, Note_on_c, 0, 85, 66
1, 58586, Note_on_c, 0, 61, 41
1, 58586, Note_on_c, 0, 70, 47
1, 58594, Note_on_c, 0, 60, 37
1, 58622, Note_on_c, 0, 60, 0
1, 58658, Note_on_c, 0, 85, 0
1, 58662, Note_on_c, 0, 61, 0
1, 58662, Note_on_c, 0, 70, 0
1, 58666, Note_on_c, 0, 56, 0
1, 58666, Note_on_c, 0, 65, 0
1, 58706, Note_on_c, 0, 85, 57
1, 58722, Note_on_c, 0, 70, 48
1, 58738, Note_on_c, 9, 40, 0
1, 58738, Note_on_c, 9, 44, 70
1, 58746, Note_on_c, 0, 70, 0
1, 58756, Note_on_c, 0, 85, 0
1, 58756, Note_on_c, 9, 40, 62
1, 58766, Note_on_c, 1, 46, 0
1, 58766, Note_on_c, 1, 41, 93
1, 58774, Control_c, 0, 64, 127
1, 58790, Note_on_c, 0, 56, 37
1, 58794, Note_on_c, 0, 65, 29
1, 58798, Note_on_c, 0, 82, 38
1, 58802, Note_on_c, 0, 61, 39
1, 58810, Note_on_c, 0, 60, 40
1, 58890, Note_on_c, 0, 61, 0
1, 58890, Note_on_c, 0, 82, 0
1, 58914, Note_on_c, 0, 60, 0
1, 58922, Note_on_c, 0, 85, 50
1, 58938, Note_on_c, 0, 65, 0
1, 58942, Note_on_c, 1, 41, 0
1, 58946, Note_on_c, 0, 82, 37
1, 58950, Note_on_c, 1, 38, 86
1, 58966, Note_on_c, 0, 82, 0
1, 58978, Note_on_c, 0, 85, 0
1, 59018, Note_on_c, 0, 56, 0
1, 59050, Control_c, 0, 64, 0
1, 59090, Note_on_c, 0, 87, 69
1, 59094, Note_on_c, 0, 65, 61
1, 59094, Note_on_c, 0, 75, 51
1, 59098, Note_on_c, 0, 61, 50
1, 59098, Note_on_c, 0, 82, 62
1, 59102, Note_on_c, 0, 55, 42
1, 59106, Note_on_c, 9, 44, 0
1, 59114, Note_on_c, 0, 82, 0
1, 59118, Note_on_c, 0, 75, 0
1, 59122, Note_on_c, 9, 40, 0
1, 59130, Note_on_c, 0, 55, 0
1, 59134, Note_on_c, 1, 38, 0
1, 59138, Note_on_c, 0, 87, 0
1, 59138, Note_on_c, 0, 65, 0
1, 59146, Note_on_c, 0, 61, 0
1, 59150, Note_on_c, 1, 39, 105
1, 59160, Note_on_c, 9, 40, 67
1, 59282, Note_on_c, 0, 87, 62
1, 59290, Note_on_c, 0, 75, 46
1, 59294, Note_on_c, 0, 82, 56
1, 59298, Note_on_c, 0, 65, 48
1, 59302, Note_on_c, 0, 61, 48
1, 59302, Note_on_c, 0, 55, 46
1, 59314, Control_c, 0, 64, 127
1, 59426, Note_on_c, 0, 65, 0
1, 59444, Note_on_c, 9, 39, 46
1, 59446, Note_on_c, 0, 87, 0
1, 59450, Note_on_c, 0, 75, 0
1, 59454, Note_on_c, 0, 55, 0
1, 59462, Note_on_c, 0, 82, 0
1, 59470, Note_on_c, 0, 61, 0
1, 59490, Note_on_c, 9, 39, 0
1, 59506, Note_on_c, 9, 40, 0
1, 59506, Note_on_c, 9, 46, 39
1, 59522, Note_on_c, 9, 40, 50
1, 59524, Note_on_c, 9, 46, 0
1, 59650, Note_on_c, 1, 39, 0
1, 59654, Note_on_c, 1, 34, 112
1, 59714, Note_on_c, 0, 85, 68
1, 59714, Note_on_c, 0, 61, 51
1, 59714, Note_on_c, 0, 73, 63
1, 59718, Note_on_c, 0, 65, 46
1, 59722, Note_on_c, 0, 80, 57
1, 59722, Note_on_c, 0, 55, 42
1, 59722, Note_on_c, 9, 40, 52
1, 59778, Note_on_c, 0, 65, 0
1, 59790, Note_on_c, 0, 73, 0
1, 59798, Note_on_c, 0, 80, 0
1, 59802, Note_on_c, 0, 55, 0
1, 59814, Note_on_c, 0, 85, 0
1, 59818, Note_on_c, 0, 61, 0
1, 59874, Control_c, 0, 64, 0
1, 59890, Note_on_c, 9, 40, 0
1, 59902, Note_on_c, 9, 40, 57
1, 59906, Note_on_c, 1, 34, 0
1, 59910, Note_on_c, 0, 64, 68
1, 59910, Note_on_c, 1, 33, 103
1, 59914, Note_on_c, 0, 55, 61
1, 59918, Note_on_c, 0, 86, 75
1, 59918, Note_on_c, 0, 57, 56
1, 59918, Note_on_c, 0, 60, 58
1, 59918, Note_on_c, 0, 74, 66
1, 59926, Note_on_c, 0, 79, 55
1, 59934, Note_on_c, 0, 83, 40
1, 59938, Note_on_c, 0, 76, 35
1, 59942, Control_c, 0, 64, 127
1, 59958, Note_on_c, 0, 76, 0
1, 59982, Note_on_c, 0, 74, 0
1, 59986, Note_on_c, 0, 79, 0
1, 59990, Note_on_c, 0, 86, 0
1, 59990, Note_on_c, 0, 64, 0
1, 59990, Note_on_c, 0, 83, 0
1, 59990, Note_on_c, 0, 55, 0
1, 59998, Note_on_c, 0, 60, 0
1, 60002, Note_on_c, 0, 57, 0
1, 60034, Note_on_c, 0, 86, 66
1, 60034, Note_on_c, 0, 79, 60
1, 60038, Note_on_c, 0, 74, 65
1, 60042, Note_on_c, 0, 55, 56
1, 60042, Note_on_c, 0, 64, 60
1, 60042, Note_on_c, 0, 60, 56
1, 60046, Note_on_c, 0, 57, 57
1, 60046, Note_on_c, 0, 83, 41
1, 60070, Note_on_c, 0, 83, 0
1, 60070, Note_on_c, 0, 57, 0
1, 60074, Note_on_c, 0, 74, 0
1, 60082, Note_on_c, 0, 64, 0
1, 60082, Note_on_c, 0, 60, 0
1, 60082, Note_on_c, 0, 79, 0
1, 60082, Note_on_c, 0, 55, 0
1, 60090, Note_on_c, 0, 86, 0
1, 60118, Note_on_c, 0, 86, 54
1, 60122, Note_on_c, 0, 64, 54
1, 60126, Note_on_c, 0, 74, 50
1, 60126, Note_on_c, 0, 79, 63
1, 60130, Note_on_c, 0, 55, 47
1, 60130, Note_on_c, 0, 60, 57
1, 60134, Note_on_c, 0, 83, 49
1, 60138, Note_on_c, 0, 57, 48
1, 60186, Note_on_c, 0, 83, 0
1, 60186, Note_on_c, 0, 79, 0
1, 60186, Note_on_c, 0, 74, 0
1, 60186, Note_on_c, 0, 64, 0
1, 60194, Note_on_c, 0, 55, 0
1, 60198, Note_on_c, 0, 60, 0
1, 60198, Note_on_c, 0, 57, 0
1, 60198, Note_on_c, 0, 86, 0
1, 60254, Control_c, 0, 64, 0
1, 60274, Note_on_c, 9, 40, 0
1, 60274, Note_on_c, 9, 40, 0
1, 60274, Note_on_c, 9, 44, 52
1, 60302, Note_on_c, 0, 86, 67
1, 60306, Note_on_c, 0, 79, 63
1, 60306, Note_on_c, 0, 55, 52
1, 60306, Note_on_c, 0, 57, 54
1, 60306, Note_on_c, 0, 74, 55
1, 60306, Note_on_c, 0, 64, 41
1, 60306, Note_on_c, 0, 83, 52
1, 60306, Note_on_c, 0, 60, 50
1, 60306, Note_on_c, 9, 40, 62
1, 60322, Control_c, 0, 64, 127
1, 60356, Note_on_c, 9, 44, 0
1, 60418, Note_on_c, 0, 74, 0
1, 60430, Note_on_c, 0, 64, 0
1, 60430, Note_on_c, 0, 55, 0
1, 60438, Note_on_c, 0, 60, 0
1, 60446, Note_on_c, 0, 57, 0
1, 60450, Note_on_c, 0, 79, 0
1, 60450, Note_on_c, 0, 83, 0
1, 60474, Note_on_c, 0, 86, 0
1, 60658, Note_on_c, 9, 40, 0
1, 60682, Note_on_c, 1, 39, 115
1, 60694, Note_on_c, 1, 33, 0
1, 60696, Note_on_c, 9, 40, 52
1, 60722, Control_c, 0, 64, 0
1, 60770, Note_on_c, 0, 65, 66
1, 60774, Note_on_c, 0, 93, 57
1, 60774, Note_on_c, 0, 81, 58
1, 60774, Note_on_c, 0, 61, 51
1, 60774, Note_on_c, 0, 89, 50
1, 60774, Note_on_c, 0, 60, 50
1, 60786, Note_on_c, 0, 93, 0
1, 60790, Note_on_c, 0, 81, 0
1, 60790, Note_on_c, 0, 89, 0
1, 60794, Note_on_c, 0, 60, 0
1, 60794, Note_on_c, 0, 65, 0
1, 60794, Note_on_c, 0, 55, 30
1, 60798, Note_on_c, 0, 61, 0
1, 60814, Note_on_c, 0, 55, 0
1, 60842, Note_on_c, 0, 93, 66
1, 60842, Note_on_c, 0, 81, 66
1, 60842, Note_on_c, 0, 89, 57
1, 60842, Note_on_c, 0, 65, 59
1, 60842, Note_on_c, 0, 61, 46
1, 60850, Note_on_c, 0, 60, 44
1, 60866, Note_on_c, 0, 93, 0
1, 60870, Note_on_c, 0, 81, 0
1, 60870, Note_on_c, 0, 65, 0
1, 60874, Note_on_c, 0, 60, 0
1, 60878, Note_on_c, 0, 89, 0
1, 60886, Note_on_c, 0, 61, 0
1, 60914, Note_on_c, 0, 65, 76
1, 60918, Note_on_c, 0, 93, 84
1, 60918, Note_on_c, 0, 89, 85
1, 60918, Note_on_c, 0, 60, 75
1, 60918, Note_on_c, 0, 61, 79
1, 60918, Note_on_c, 0, 81, 83
1, 60918, Note_on_c, 0, 55, 79
1, 60930, Note_on_c, 0, 58, 52
1, 60950, Note_on_c, 0, 58, 0
1, 60990, Control_c, 0, 64, 127
1, 61042, Note_on_c, 0, 93, 0
1, 61042, Note_on_c, 9, 40, 0
1, 61042, Note_on_c, 9, 44, 61
1, 61046, Note_on_c, 0, 81, 0
1, 61046, Note_on_c, 0, 55, 0
1, 61050, Note_on_c, 0, 61, 0
1, 61054, Note_on_c, 0, 89, 0
1, 61054, Note_on_c, 0, 65, 0
1, 61054, Note_on_c, 9, 40, 52
1, 61058, Note_on_c, 0, 60, 0
1, 61086, Control_c, 0, 64, 0
1, 61094, Note_on_c, 0, 93, 50
1, 61094, Note_on_c, 0, 81, 52
1, 61098, Note_on_c, 0, 65, 47
1, 61102, Note_on_c, 0, 61, 41
1, 61110, Note_on_c, 0, 60, 39
1, 61114, Note_on_c, 0, 93, 0
1, 61118, Note_on_c, 0, 65, 0
1, 61122, Note_on_c, 0, 81, 0
1, 61126, Note_on_c, 0, 61, 0
1, 61130, Note_on_c, 0, 60, 0
1, 61162, Note_on_c, 9, 44, 0
1, 61166, Note_on_c, 0, 81, 60
1, 61170, Note_on_c, 0, 93, 49
1, 61170, Note_on_c, 0, 89, 52
1, 61170, Note_on_c, 0, 65, 56
1, 61170, Note_on_c, 0, 61, 48
1, 61170, Note_on_c, 0, 60, 49
1, 61186, Note_on_c, 0, 93, 0
1, 61190, Note_on_c, 0, 89, 0
1, 61190, Note_on_c, 0, 81, 0
1, 61190, Note_on_c, 0, 65, 0
1, 61194, Note_on_c, 0, 60, 0
1, 61206, Note_on_c, 0, 61, 0
1, 61238, Note_on_c, 0, 93, 85
1, 61238, Note_on_c, 0, 65, 83
1, 61238, Note_on_c, 0, 89, 85
1, 61238, Note_on_c, 0, 60, 75
1, 61238, Note_on_c, 0, 81, 86
1, 61238, Note_on_c, 0, 61, 69
1, 61238, Note_on_c, 0, 55, 81
1, 61254, Note_on_c, 0, 58, 44
1, 61278, Note_on_c, 0, 58, 0
1, 61282, Control_c, 0, 64, 127
1, 61330, Note_on_c, 0, 81, 0
1, 61334, Note_on_c, 0, 93, 0
1, 61334, Note_on_c, 0, 55, 0
1, 61334, Note_on_c, 0, 89, 0
1, 61338, Note_on_c, 0, 65, 0
1, 61342, Note_on_c, 0, 61, 0
1, 61350, Note_on_c, 0, 60, 0
1, 61378, Note_on_c, 0, 89, 53
1, 61378, Note_on_c, 0, 93, 45
1, 61386, Note_on_c, 0, 81, 37
1, 61386, Note_on_c, 0, 60, 54
1, 61394, Note_on_c, 0, 93, 0
1, 61398, Note_on_c, 0, 89, 0
1, 61402, Note_on_c, 0, 60, 0
1, 61406, Note_on_c, 0, 81, 0
1, 61426, Note_on_c, 9, 40, 0
1, 61428, Note_on_c, 9, 40, 47
1, 61438, Note_on_c, 1, 39, 0
1, 61438, Note_on_c, 0, 55, 42
1, 61442, Note_on_c, 0, 89, 58
1, 61446, Note_on_c, 0, 61, 63
1, 61446, Note_on_c, 0, 81, 54
1, 61450, Note_on_c, 0, 93, 38
1, 61450, Note_on_c, 1, 38, 103
1, 61454, Note_on_c, 0, 58, 40
1, 61462, Note_on_c, 0, 81, 0
1, 61462, Note_on_c, 0, 55, 0
1, 61466, Note_on_c, 0, 93, 0
1, 61474, Note_on_c, 0, 58, 0
1, 61478, Note_on_c, 0, 89, 0
1, 61478, Control_c, 0, 64, 40
1, 61478, Control_c, 0, 64, 0
1, 61482, Note_on_c, 0, 61, 0
1, 61518, Note_on_c, 0, 98, 96
1, 61518, Note_on_c, 0, 54, 79
1, 61518, Note_on_c, 0, 60, 65
1, 61518, Note_on_c, 0, 64, 81
1, 61518, Note_on_c, 0, 86, 79
1, 61518, Note_on_c, 0, 93, 73
1, 61562, Note_on_c, 1, 38, 0
1, 61578, Note_on_c, 1, 38, 61
1, 61626, Control_c, 0, 64, 127
1, 61654, Note_on_c, 1, 44, 103
1, 61674, Note_on_c, 1, 38, 0
1, 61738, Note_on_c, 0, 64, 0
1, 61742, Note_on_c, 0, 60, 0
1, 61766, Note_on_c, 0, 54, 0
1, 61774, Note_on_c, 0, 86, 0
1, 61778, Note_on_c, 0, 93, 0
1, 61782, Note_on_c, 0, 98, 0
1, 61810, Note_on_c, 9, 40, 0
1, 61810, Note_on_c, 9, 44, 62
1, 61832, Note_on_c, 9, 40, 52
1, 61838, Note_on_c, 1, 45, 104
1, 61846, Note_on_c, 1, 44, 0
1, 61862, Note_on_c, 0, 54, 50
1, 61866, Note_on_c, 0, 98, 63
1, 61866, Note_on_c, 0, 86, 54
1, 61866, Note_on_c, 0, 93, 63
1, 61870, Note_on_c, 9, 44, 0
1, 61870, Note_on_c, 0, 60, 51
1, 61870, Note_on_c, 0, 64, 43
1, 61974, Note_on_c, 0, 98, 0
1, 61974, Note_on_c, 0, 86, 0
1, 61986, Note_on_c, 0, 93, 0
1, 62010, Note_on_c, 0, 60, 0
1, 62054, Note_on_c, 0, 54, 0
1, 62058, Note_on_c, 0, 64, 0
1, 62094, Note_on_c, 0, 96, 82
1, 62150, Note_on_c, 1, 51, 104
1, 62158, Note_on_c, 0, 96, 0
1, 62166, Note_on_c, 1, 45, 0
1, 62182, Note_on_c, 1, 38, 54
1, 62194, Note_on_c, 9, 40, 0
1, 62202, Note_on_c, 9, 40, 55
1, 62206, Note_on_c, 1, 38, 0
1, 62230, Note_on_c, 1, 51, 0
1, 62234, Note_on_c, 0, 94, 85
1, 62238, Note_on_c, 1, 50, 98
1, 62242, Note_on_c, 0, 65, 46
1, 62250, Control_c, 0, 64, 0
1, 62250, Note_on_c, 0, 54, 36
1, 62254, Note_on_c, 0, 60, 43
1, 62294, Note_on_c, 0, 94, 0
1, 62334, Note_on_c, 0, 90, 72
1, 62382, Note_on_c, 0, 90, 0
1, 62392, Note_on_c, 9, 40, 47
1, 62398, Note_on_c, 0, 65, 0
1, 62406, Note_on_c, 0, 88, 50
1, 62446, Note_on_c, 0, 88, 0
1, 62470, Note_on_c, 0, 87, 56
1, 62486, Note_on_c, 0, 87, 0
1, 62502, Note_on_c, 0, 60, 0
1, 62526, Note_on_c, 0, 86, 26
1, 62554, Note_on_c, 0, 86, 0
1, 62554, Note_on_c, 0, 85, 70
1, 62578, Note_on_c, 9, 40, 0
1, 62578, Note_on_c, 9, 44, 51
1, 62578, Note_on_c, 9, 40, 67
1, 62594, Note_on_c, 0, 85, 0
1, 62594, Note_on_c, 1, 44, 107
1, 62602, Note_on_c, 1, 50, 0
1, 62602, Note_on_c, 0, 84, 51
1, 62614, Note_on_c, 0, 84, 0
1, 62638, Note_on_c, 0, 60, 40
1, 62650, Note_on_c, 0, 82, 57
1, 62676, Note_on_c, 9, 44, 0
1, 62702, Note_on_c, 0, 78, 52
1, 62714, Note_on_c, 0, 82, 0
1, 62726, Note_on_c, 1, 44, 0
1, 62738, Note_on_c, 1, 42, 78
1, 62754, Note_on_c, 0, 78, 0
1, 62766, Note_on_c, 0, 76, 36
1, 62770, Note_on_c, 1, 42, 0
1, 62786, Note_on_c, 0, 60, 0
1, 62786, Note_on_c, 0, 76, 0
1, 62798, Note_on_c, 1, 42, 105
1, 62818, Note_on_c, 0, 75, 45
1, 62842, Note_on_c, 0, 75, 0
1, 62862, Note_on_c, 0, 74, 47
1, 62866, Note_on_c, 0, 54, 0
1, 62882, Note_on_c, 0, 74, 0
1, 62882, Note_on_c, 9, 35, 27
1, 62898, Note_on_c, 9, 35, 0
1, 62898, Note_on_c, 0, 73, 50
1, 62954, Note_on_c, 0, 73, 0
1, 62962, Note_on_c, 9, 40, 0
1, 62962, Note_on_c, 9, 40, 0
1, 62966, Note_on_c, 1, 42, 0
1, 62970, Note_on_c, 0, 72, 47
1, 62970, Note_on_c, 9, 40, 77
1, 62978, Note_on_c, 1, 43, 95
1, 62998, Note_on_c, 0, 72, 0
1, 63022, Note_on_c, 0, 71, 39
1, 63026, Note_on_c, 0, 59, 32
1, 63026, Note_on_c, 0, 62, 36
1, 63030, Note_on_c, 0, 57, 42
1, 63098, Note_on_c, 1, 43, 0
1, 63102, Note_on_c, 1, 38, 84
1, 63142, Note_on_c, 1, 38, 0
1, 63154, Note_on_c, 0, 74, 66
1, 63158, Note_on_c, 0, 71, 0
1, 63166, Note_on_c, 1, 31, 104
1, 63198, Note_on_c, 0, 74, 0
1, 63218, Note_on_c, 0, 62, 0
1, 63238, Note_on_c, 0, 59, 0
1, 63238, Note_on_c, 0, 71, 58
1, 63346, Note_on_c, 9, 40, 0
1, 63346, Note_on_c, 9, 44, 52
1, 63370, Note_on_c, 0, 71, 0
1, 63370, Note_on_c, 9, 40, 52
1, 63410, Note_on_c, 9, 44, 0
1, 63450, Note_on_c, 0, 57, 0
1, 63538, Note_on_c, 0, 62, 61
1, 63582, Note_on_c, 0, 62, 0
1, 63618, Note_on_c, 0, 64, 68
1, 63668, Note_on_c, 9, 35, 33
1, 63682, Note_on_c, 0, 64, 0
1, 63684, Note_on_c, 9, 35, 0
1, 63718, Note_on_c, 0, 66, 81
1, 63730, Note_on_c, 9, 40, 0
1, 63730, Note_on_c, 1, 41, 90
1, 63734, Note_on_c, 1, 31, 0
1, 63762, Note_on_c, 9, 40, 77
1, 63782, Note_on_c, 0, 66, 0
1, 63798, Note_on_c, 0, 62, 36
1, 63802, Note_on_c, 0, 69, 75
1, 63810, Note_on_c, 0, 57, 43
1, 63822, Note_on_c, 0, 51, 32
1, 63882, Note_on_c, 0, 51, 0
1, 63882, Note_on_c, 0, 69, 0
1, 63886, Note_on_c, 0, 62, 0
1, 63898, Note_on_c, 0, 57, 0
1, 63962, Note_on_c, 0, 69, 58
1, 64010, Note_on_c, 0, 69, 0
1, 64114, Note_on_c, 9, 40, 0
1, 64114, Note_on_c, 9, 44, 55
1, 64142, Note_on_c, 9, 40, 70
1, 64146, Note_on_c, 0, 71, 77
1, 64146, Note_on_c, 1, 29, 86
1, 64150, Note_on_c, 0, 63, 69
1, 64158, Note_on_c, 0, 67, 53
1, 64174, Note_on_c, 9, 44, 0
1, 64178, Note_on_c, 0, 67, 0
1, 64234, Note_on_c, 0, 63, 0
1, 64246, Note_on_c, 0, 71, 0
1, 64270, Note_on_c, 0, 63, 60
1, 64274, Note_on_c, 0, 74, 73
1, 64274, Note_on_c, 0, 62, 57
1, 64278, Note_on_c, 0, 67, 31
1, 64306, Note_on_c, 0, 67, 0
1, 64314, Note_on_c, 0, 74, 0
1, 64318, Note_on_c, 0, 63, 0
1, 64322, Note_on_c, 0, 62, 0
1, 64322, Note_on_c, 9, 39, 46
1, 64358, Note_on_c, 0, 59, 45
1, 64358, Note_on_c, 0, 71, 49
1, 64362, Note_on_c, 0, 63, 36
1, 64382, Note_on_c, 0, 59, 0
1, 64386, Note_on_c, 0, 67, 24
1, 64418, Note_on_c, 0, 67, 0
1, 64420, Note_on_c, 9, 39, 0
1, 64426, Note_on_c, 0, 63, 0
1, 64426, Control_c, 0, 64, 127
1, 64434, Note_on_c, 0, 71, 0
1, 64446, Control_c, 0, 64, 0
1, 64474, Note_on_c, 1, 29, 0
1, 64498, Note_on_c, 9, 40, 0
1, 64502, Note_on_c, 1, 41, 0
1, 64522, Note_on_c, 1, 28, 91
1, 64522, Note_on_c, 9, 40, 52
1, 64530, Note_on_c, 0, 62, 42
1, 64538, Note_on_c, 0, 57, 45
1, 64542, Note_on_c, 0, 65, 51
1, 64622, Control_c, 0, 64, 127
1, 64634, Note_on_c, 0, 65, 0
1, 64646, Note_on_c, 0, 62, 0
1, 64650, Note_on_c, 0, 57, 0
1, 64718, Note_on_c, 0, 47, 54
1, 64726, Note_on_c, 1, 39, 98
1, 64882, Note_on_c, 9, 40, 0
1, 64882, Note_on_c, 9, 44, 56
1, 64894, Note_on_c, 9, 40, 55
1, 64902, Control_c, 0, 64, 0
1, 64914, Note_on_c, 1, 40, 98
1, 64922, Note_on_c, 1, 39, 0
1, 64930, Note_on_c, 9, 44, 0
1, 64938, Note_on_c, 0, 47, 0
1, 64938, Note_on_c, 0, 55, 31
1, 64942, Note_on_c, 0, 60, 67
1, 64962, Note_on_c, 0, 55, 0
1, 64966, Note_on_c, 0, 57, 49
1, 64974, Note_on_c, 0, 62, 49
1, 64978, Note_on_c, 0, 60, 0
1, 64982, Note_on_c, 0, 57, 0
1, 64994, Note_on_c, 0, 62, 0
1, 65002, Note_on_c, 0, 59, 42
1, 65014, Note_on_c, 0, 64, 49
1, 65022, Note_on_c, 0, 59, 0
1, 65034, Note_on_c, 0, 60, 46
1, 65054, Note_on_c, 0, 65, 39
1, 65058, Note_on_c, 0, 60, 0
1, 65062, Note_on_c, 0, 64, 0
1, 65074, Note_on_c, 0, 65, 0
1, 65074, Note_on_c, 0, 62, 49
1, 65090, Note_on_c, 0, 67, 37
1, 65098, Note_on_c, 0, 62, 0
1, 65114, Note_on_c, 0, 64, 56
1, 65130, Note_on_c, 0, 64, 0
1, 65130, Note_on_c, 0, 69, 39
1, 65134, Note_on_c, 0, 67, 0
1, 65150, Note_on_c, 0, 65, 49
1, 65166, Note_on_c, 0, 71, 37
1, 65170, Note_on_c, 0, 65, 0
1, 65182, Note_on_c, 1, 28, 0
1, 65186, Note_on_c, 0, 69, 0
1, 65188, Note_on_c, 9, 35, 30
1, 65194, Note_on_c, 0, 67, 49
1, 65206, Note_on_c, 0, 72, 36
1, 65210, Note_on_c, 0, 67, 0
1, 65226, Note_on_c, 0, 71, 0
1, 65234, Note_on_c, 9, 35, 0
1, 65238, Note_on_c, 0, 69, 54
1, 65250, Note_on_c, 0, 74, 39
1, 65254, Note_on_c, 0, 69, 0
1, 65266, Note_on_c, 9, 40, 0
1, 65266, Note_on_c, 0, 72, 0
1, 65282, Note_on_c, 0, 71, 54
1, 65282, Note_on_c, 9, 40, 57
1, 65284, Note_on_c, 9, 35, 36
1, 65284, Note_on_c, 9, 59, 34
1, 65290, Note_on_c, 0, 74, 0
1, 65298, Note_on_c, 0, 71, 0
1, 65298, Note_on_c, 0, 76, 40
1, 65310, Note_on_c, 9, 35, 0
1, 65316, Note_on_c, 9, 59, 0
1, 65322, Note_on_c, 0, 72, 57
1, 65338, Note_on_c, 0, 77, 42
1, 65342, Note_on_c, 0, 76, 0
1, 65346, Note_on_c, 0, 72, 0
1, 65362, Note_on_c, 0, 74, 51
1, 65374, Note_on_c, 0, 77, 0
1, 65382, Note_on_c, 0, 79, 38
1, 65390, Note_on_c, 0, 74, 0
1, 65402, Note_on_c, 0, 76, 54
1, 65414, Note_on_c, 0, 79, 0
1, 65422, Note_on_c, 0, 81, 33
1, 65430, Note_on_c, 0, 76, 0
1, 65442, Note_on_c, 0, 77, 48
1, 65458, Note_on_c, 0, 81, 0
1, 65466, Note_on_c, 0, 83, 26
1, 65474, Note_on_c, 0, 77, 0
1, 65474, Note_on_c, 9, 59, 38
1, 65474, Note_on_c, 9, 35, 32
1, 65478, Note_on_c, 1, 40, 0
1, 65482, Note_on_c, 1, 35, 127
1, 65490, Note_on_c, 0, 79, 46
1, 65502, Note_on_c, 0, 83, 0
1, 65506, Note_on_c, 0, 84, 37
1, 65518, Note_on_c, 9, 59, 0
1, 65518, Note_on_c, 0, 79, 0
1, 65522, Note_on_c, 9, 35, 0
1, 65534, Note_on_c, 0, 81, 48
1, 65550, Note_on_c, 0, 84, 0
1, 65554, Note_on_c, 0, 86, 36
1, 65566, Note_on_c, 0, 81, 0
1, 65586, Note_on_c, 0, 83, 49
1, 65598, Note_on_c, 0, 86, 0
1, 65618, Note_on_c, 0, 83, 0
1, 65618, Note_on_c, 0, 88, 22
1, 65634, Note_on_c, 0, 84, 52
1, 65642, Note_on_c, 0, 88, 0
1, 65650, Note_on_c, 9, 40, 0
1, 65650, Note_on_c, 9, 46, 25
1, 65654, Note_on_c, 0, 84, 0
1, 65658, Note_on_c, 9, 40, 65
1, 65670, Note_on_c, 0, 86, 52
1, 65678, Note_on_c, 0, 56, 53
1, 65678, Note_on_c, 0, 62, 52
1, 65678, Note_on_c, 0, 67, 54
1, 65686, Note_on_c, 0, 86, 0
1, 65698, Note_on_c, 9, 46, 0
1, 65698, Note_on_c, 0, 88, 49
1, 65778, Note_on_c, 1, 35, 0
1, 65782, Note_on_c, 1, 31, 85
1, 65826, Note_on_c, 1, 31, 0
1, 65842, Note_on_c, 1, 32, 112
1, 65850, Note_on_c, 0, 88, 0
1, 65874, Note_on_c, 0, 67, 0
1, 65878, Note_on_c, 0, 62, 0
1, 65886, Note_on_c, 0, 86, 85
1, 65942, Note_on_c, 0, 56, 0
1, 65982, Note_on_c, 0, 86, 0
1, 65986, Note_on_c, 0, 88, 61
1, 66026, Note_on_c, 1, 32, 0
1, 66026, Note_on_c, 0, 86, 68
1, 66030, Note_on_c, 0, 88, 0
1, 66030, Note_on_c, 1, 33, 106
1, 66034, Note_on_c, 9, 40, 0
1, 66036, Note_on_c, 9, 40, 77
1, 66042, Note_on_c, 0, 84, 50
1, 66042, Note_on_c, 9, 40, 62
1, 66050, Note_on_c, 0, 86, 0
1, 66070, Note_on_c, 0, 59, 39
1, 66074, Note_on_c, 0, 64, 37
1, 66074, Note_on_c, 0, 60, 47
1, 66082, Note_on_c, 0, 57, 39
1, 66186, Note_on_c, 0, 84, 0
1, 66242, Note_on_c, 0, 83, 61
1, 66322, Note_on_c, 0, 60, 0
1, 66330, Note_on_c, 0, 83, 0
1, 66338, Note_on_c, 0, 64, 0
1, 66358, Note_on_c, 0, 59, 0
1, 66414, Note_on_c, 1, 45, 127
1, 66418, Note_on_c, 9, 40, 0
1, 66418, Note_on_c, 9, 40, 0
1, 66418, Note_on_c, 9, 44, 69
1, 66424, Note_on_c, 9, 40, 72
1, 66438, Note_on_c, 0, 83, 63
1, 66442, Note_on_c, 0, 64, 32
1, 66446, Note_on_c, 0, 60, 39
1, 66526, Note_on_c, 0, 83, 0
1, 66526, Note_on_c, 9, 44, 0
1, 66554, Note_on_c, 0, 86, 68
1, 66598, Note_on_c, 0, 86, 0
1, 66606, Note_on_c, 0, 60, 0
1, 66606, Note_on_c, 9, 39, 62
1, 66610, Note_on_c, 0, 64, 0
1, 66634, Note_on_c, 0, 84, 50
1, 66694, Note_on_c, 1, 33, 0
1, 66698, Note_on_c, 0, 57, 0
1, 66730, Note_on_c, 1, 33, 96
1, 66742, Note_on_c, 0, 84, 0
1, 66746, Note_on_c, 0, 80, 57
1, 66762, Note_on_c, 0, 56, 55
1, 66766, Note_on_c, 0, 64, 48
1, 66778, Note_on_c, 1, 45, 0
1, 66778, Note_on_c, 0, 60, 27
1, 66782, Note_on_c, 9, 39, 0
1, 66794, Note_on_c, 1, 43, 109
1, 66798, Note_on_c, 1, 33, 0
1, 66798, Note_on_c, 9, 40, 62
1, 66802, Note_on_c, 9, 40, 0
1, 66810, Note_on_c, 0, 80, 0
1, 66822, Note_on_c, 0, 56, 0
1, 66830, Note_on_c, 0, 83, 73
1, 66834, Note_on_c, 0, 64, 0
1, 66870, Note_on_c, 0, 60, 0
1, 66946, Note_on_c, 0, 83, 0
1, 66974, Note_on_c, 1, 43, 0
1, 66994, Note_on_c, 1, 43, 109
1, 67002, Note_on_c, 0, 80, 50
1, 67006, Note_on_c, 0, 56, 49
1, 67014, Note_on_c, 0, 64, 34
1, 67062, Note_on_c, 0, 64, 0
1, 67090, Note_on_c, 0, 80, 0
1, 67106, Note_on_c, 0, 56, 0
1, 67114, Note_on_c, 0, 81, 63
1, 67158, Note_on_c, 0, 81, 0
1, 67186, Note_on_c, 9, 40, 0
1, 67186, Note_on_c, 9, 44, 53
1, 67188, Note_on_c, 9, 40, 60
1, 67190, Note_on_c, 0, 76, 56
1, 67194, Note_on_c, 0, 64, 36
1, 67202, Note_on_c, 0, 60, 36
1, 67210, Note_on_c, 0, 55, 33
1, 67278, Note_on_c, 9, 44, 0
1, 67298, Note_on_c, 0, 60, 0
1, 67318, Note_on_c, 0, 76, 0
1, 67334, Note_on_c, 0, 55, 0
1, 67342, Control_c, 0, 64, 127
1, 67374, Note_on_c, 0, 76, 60
1, 67382, Note_on_c, 0, 64, 0
1, 67418, Note_on_c, 0, 76, 0
1, 67492, Note_on_c, 9, 35, 48
1, 67508, Note_on_c, 9, 35, 0
1, 67526, Control_c, 0, 64, 0
1, 67550, Note_on_c, 1, 36, 72
1, 67562, Note_on_c, 1, 43, 0
1, 67566, Note_on_c, 0, 67, 32
1, 67566, Note_on_c, 0, 82, 66
1, 67566, Note_on_c, 0, 63, 41
1, 67570, Note_on_c, 1, 36, 0
1, 67570, Note_on_c, 9, 40, 0
1, 67570, Note_on_c, 0, 86, 67
1, 67570, Note_on_c, 9, 59, 40
1, 67570, Note_on_c, 9, 40, 55
1, 67572, Note_on_c, 9, 35, 35
1, 67578, Note_on_c, 0, 58, 37
1, 67582, Note_on_c, 1, 48, 96
1, 67590, Note_on_c, 0, 62, 24
1, 67620, Note_on_c, 9, 59, 0
1, 67630, Note_on_c, 9, 35, 0
1, 67638, Note_on_c, 0, 86, 0
1, 67638, Note_on_c, 0, 82, 0
1, 67698, Note_on_c, 0, 81, 36
1, 67722, Note_on_c, 0, 81, 0
1, 67722, Note_on_c, 0, 67, 0
1, 67730, Note_on_c, 0, 62, 0
1, 67734, Note_on_c, 0, 63, 0
1, 67742, Note_on_c, 1, 48, 0
1, 67758, Note_on_c, 0, 86, 59
1, 67758, Note_on_c, 0, 82, 58
1, 67770, Note_on_c, 1, 48, 110
1, 67838, Note_on_c, 0, 82, 0
1, 67838, Note_on_c, 0, 86, 0
1, 67878, Note_on_c, 0, 81, 57
1, 67882, Note_on_c, 0, 84, 56
1, 67926, Note_on_c, 0, 81, 0
1, 67934, Note_on_c, 0, 84, 0
1, 67954, Note_on_c, 9, 40, 0
1, 67954, Note_on_c, 9, 44, 71
1, 67958, Note_on_c, 0, 67, 31
1, 67960, Note_on_c, 9, 40, 52
1, 67962, Note_on_c, 0, 63, 37
1, 67970, Note_on_c, 0, 62, 31
1, 67974, Note_on_c, 0, 79, 34
1, 67978, Note_on_c, 0, 82, 50
1, 68018, Note_on_c, 9, 44, 0
1, 68046, Note_on_c, 0, 79, 0
1, 68058, Control_c, 0, 64, 127
1, 68090, Note_on_c, 0, 67, 0
1, 68114, Note_on_c, 0, 63, 0
1, 68118, Note_on_c, 0, 82, 0
1, 68146, Note_on_c, 0, 62, 0
1, 68154, Note_on_c, 0, 77, 52
1, 68158, Note_on_c, 0, 81, 39
1, 68162, Note_on_c, 1, 41, 115
1, 68166, Note_on_c, 1, 48, 0
1, 68170, Note_on_c, 0, 82, 31
1, 68194, Note_on_c, 0, 82, 0
1, 68198, Note_on_c, 0, 81, 0
1, 68206, Note_on_c, 0, 77, 0
1, 68242, Note_on_c, 0, 58, 0
1, 68310, Control_c, 0, 64, 0
1, 68338, Note_on_c, 1, 41, 0
1, 68338, Note_on_c, 9, 40, 0
1, 68340, Note_on_c, 9, 40, 67
1, 68350, Note_on_c, 0, 75, 52
1, 68350, Note_on_c, 0, 79, 54
1, 68350, Note_on_c, 1, 41, 84
1, 68354, Note_on_c, 9, 35, 32
1, 68358, Note_on_c, 0, 67, 32
1, 68358, Note_on_c, 0, 57, 38
1, 68358, Note_on_c, 0, 63, 39
1, 68382, Note_on_c, 9, 35, 0
1, 68418, Note_on_c, 0, 79, 0
1, 68446, Control_c, 0, 64, 127
1, 68458, Note_on_c, 0, 75, 0
1, 68486, Note_on_c, 0, 67, 0
1, 68506, Note_on_c, 0, 63, 0
1, 68546, Note_on_c, 0, 77, 55
1, 68546, Note_on_c, 0, 74, 46
1, 68548, Note_on_c, 9, 35, 35
1, 68558, Note_on_c, 0, 63, 31
1, 68582, Note_on_c, 0, 63, 0
1, 68602, Note_on_c, 0, 74, 0
1, 68606, Note_on_c, 0, 57, 0
1, 68634, Note_on_c, 0, 77, 0
1, 68642, Note_on_c, 9, 35, 0
1, 68718, Note_on_c, 9, 40, 65
1, 68722, Note_on_c, 9, 40, 0
1, 68722, Control_c, 0, 64, 0
1, 68722, Note_on_c, 9, 46, 55
1, 68742, Note_on_c, 0, 78, 78
1, 68750, Note_on_c, 9, 46, 0
1, 68750, Note_on_c, 0, 74, 75
1, 68770, Control_c, 0, 64, 127
1, 68862, Note_on_c, 0, 74, 0
1, 68868, Note_on_c, 9, 35, 60
1, 68870, Note_on_c, 0, 78, 0
1, 68894, Note_on_c, 9, 35, 0
1, 68910, Note_on_c, 1, 39, 116
1, 68918, Note_on_c, 1, 41, 0
1, 68946, Note_on_c, 0, 75, 59
1, 68946, Note_on_c, 9, 35, 47
1, 68946, Note_on_c, 9, 59, 26
1, 68950, Note_on_c, 0, 79, 49
1, 68962, Note_on_c, 9, 59, 0
1, 68964, Note_on_c, 9, 35, 0
1, 68994, Note_on_c, 0, 79, 0
1, 69022, Note_on_c, 0, 75, 0
1, 69078, Control_c, 0, 64, 0
1, 69086, Note_on_c, 9, 40, 70
1, 69090, Note_on_c, 1, 39, 0
1, 69106, Note_on_c, 9, 40, 0
1, 69106, Note_on_c, 1, 38, 127
1, 69122, Note_on_c, 9, 35, 47
1, 69122, Note_on_c, 9, 59, 54
1, 69130, Note_on_c, 0, 59, 41
1, 69130, Note_on_c, 0, 79, 55
1, 69130, Note_on_c, 0, 64, 43
1, 69130, Note_on_c, 0, 74, 50
1, 69130, Note_on_c, 0, 67, 39
1, 69140, Note_on_c, 9, 59, 0
1, 69144, Note_on_c, 9, 35, 0
1, 69146, Note_on_c, 0, 53, 41
1, 69162, Control_c, 0, 64, 127
1, 69234, Note_on_c, 0, 67, 0
1, 69254, Note_on_c, 0, 53, 0
1, 69262, Note_on_c, 0, 64, 0
1, 69274, Note_on_c, 0, 59, 0
1, 69278, Note_on_c, 0, 74, 0
1, 69294, Note_on_c, 0, 79, 0
1, 69330, Note_on_c, 9, 59, 61
1, 69332, Note_on_c, 9, 35, 32
1, 69364, Note_on_c, 9, 59, 0
1, 69412, Note_on_c, 9, 35, 0
1, 69478, Control_c, 0, 64, 0
1, 69490, Note_on_c, 9, 40, 0
1, 69490, Note_on_c, 9, 44, 45
1, 69502, Note_on_c, 0, 78, 72
1, 69508, Note_on_c, 9, 40, 60
1, 69518, Note_on_c, 0, 78, 0
1, 69518, Note_on_c, 0, 91, 48
1, 69518, Note_on_c, 0, 86, 60
1, 69518, Note_on_c, 0, 64, 57
1, 69522, Note_on_c, 0, 59, 57
1, 69526, Note_on_c, 0, 79, 68
1, 69526, Note_on_c, 0, 53, 48
1, 69544, Note_on_c, 9, 44, 0
1, 69546, Note_on_c, 0, 79, 0
1, 69554, Note_on_c, 0, 53, 0
1, 69566, Note_on_c, 0, 91, 0
1, 69570, Note_on_c, 0, 64, 0
1, 69578, Note_on_c, 0, 86, 0
1, 69594, Note_on_c, 0, 59, 0
1, 69650, Note_on_c, 0, 92, 1
1, 69654, Note_on_c, 0, 59, 63
1, 69658, Note_on_c, 0, 64, 65
1, 69658, Note_on_c, 0, 81, 56
1, 69658, Note_on_c, 0, 83, 61
1, 69662, Note_on_c, 0, 53, 53
1, 69662, Note_on_c, 0, 95, 49
1, 69666, Note_on_c, 0, 92, 0
1, 69670, Note_on_c, 0, 93, 41
1, 69674, Note_on_c, 0, 64, 0
1, 69674, Note_on_c, 0, 83, 0
1, 69674, Note_on_c, 0, 81, 0
1, 69678, Note_on_c, 0, 53, 0
1, 69690, Note_on_c, 0, 93, 0
1, 69698, Note_on_c, 0, 95, 0
1, 69702, Note_on_c, 0, 59, 0
1, 69758, Note_on_c, 0, 92, 60
1, 69762, Note_on_c, 0, 64, 69
1, 69762, Note_on_c, 0, 86, 78
1, 69762, Note_on_c, 0, 98, 68
1, 69766, Note_on_c, 0, 59, 63
1, 69766, Note_on_c, 0, 53, 59
1, 69774, Note_on_c, 0, 93, 59
1, 69778, Note_on_c, 0, 92, 0
1, 69782, Note_on_c, 0, 86, 0
1, 69790, Note_on_c, 0, 93, 0
1, 69798, Note_on_c, 0, 53, 0
1, 69798, Note_on_c, 0, 98, 0
1, 69806, Note_on_c, 0, 64, 0
1, 69810, Control_c, 0, 64, 127
1, 69822, Note_on_c, 0, 59, 0
1, 69854, Note_on_c, 0, 100, 72
1, 69854, Note_on_c, 0, 88, 71
1, 69858, Note_on_c, 0, 95, 68
1, 69862, Note_on_c, 0, 64, 61
1, 69862, Note_on_c, 0, 59, 71
1, 69862, Note_on_c, 0, 53, 58
1, 69870, Note_on_c, 1, 38, 0
1, 69874, Note_on_c, 9, 40, 0
1, 69878, Note_on_c, 0, 88, 0
1, 69878, Note_on_c, 1, 36, 117
1, 69882, Note_on_c, 0, 53, 0
1, 69890, Note_on_c, 0, 95, 0
1, 69890, Note_on_c, 9, 40, 70
1, 69894, Note_on_c, 0, 100, 0
1, 69902, Note_on_c, 0, 64, 0
1, 69918, Note_on_c, 0, 59, 0
1, 69922, Control_c, 0, 64, 0
1, 69954, Note_on_c, 0, 103, 89
1, 69958, Note_on_c, 0, 98, 82
1, 69958, Note_on_c, 0, 59, 75
1, 69958, Note_on_c, 0, 64, 63
1, 69958, Note_on_c, 0, 91, 66
1, 69962, Note_on_c, 0, 53, 68
1, 69974, Note_on_c, 0, 93, 43
1, 69994, Note_on_c, 0, 93, 0
1, 70010, Control_c, 0, 64, 127
1, 70026, Note_on_c, 0, 53, 0
1, 70030, Note_on_c, 0, 91, 0
1, 70030, Note_on_c, 0, 64, 0
1, 70034, Note_on_c, 0, 103, 0
1, 70034, Note_on_c, 0, 98, 0
1, 70050, Note_on_c, 0, 59, 0
1, 70066, Note_on_c, 1, 36, 0
1, 70078, Note_on_c, 0, 64, 59
1, 70078, Note_on_c, 0, 103, 68
1, 70082, Note_on_c, 0, 53, 52
1, 70082, Note_on_c, 0, 98, 61
1, 70082, Note_on_c, 0, 91, 66
1, 70086, Note_on_c, 0, 59, 57
1, 70090, Note_on_c, 1, 36, 116
1, 70098, Note_on_c, 0, 59, 0
1, 70098, Note_on_c, 0, 64, 0
1, 70098, Note_on_c, 0, 98, 0
1, 70114, Note_on_c, 0, 103, 0
1, 70130, Note_on_c, 0, 53, 0
1, 70130, Note_on_c, 0, 91, 0
1, 70138, Control_c, 0, 64, 0
1, 70258, Note_on_c, 9, 40, 0
1, 70258, Note_on_c, 9, 44, 70
1, 70266, Note_on_c, 9, 40, 47
1, 70282, Note_on_c, 0, 62, 63
1, 70282, Note_on_c, 0, 100, 71
1, 70282, Note_on_c, 0, 58, 51
1, 70286, Note_on_c, 0, 88, 67
1, 70290, Note_on_c, 0, 52, 56
1, 70290, Note_on_c, 0, 95, 60
1, 70302, Control_c, 0, 64, 127
1, 70346, Note_on_c, 0, 95, 0
1, 70360, Note_on_c, 9, 44, 0
1, 70362, Note_on_c, 0, 100, 0
1, 70390, Note_on_c, 0, 88, 0
1, 70394, Note_on_c, 0, 58, 0
1, 70398, Note_on_c, 0, 62, 0
1, 70406, Note_on_c, 0, 52, 0
1, 70450, Note_on_c, 1, 36, 0
1, 70462, Note_on_c, 1, 35, 112
1, 70474, Note_on_c, 0, 98, 72
1, 70478, Note_on_c, 0, 62, 56
1, 70482, Note_on_c, 0, 93, 70
1, 70482, Note_on_c, 0, 58, 52
1, 70486, Note_on_c, 0, 86, 54
1, 70506, Note_on_c, 0, 58, 0
1, 70522, Note_on_c, 0, 98, 0
1, 70522, Note_on_c, 0, 93, 0
1, 70526, Note_on_c, 0, 62, 0
1, 70534, Note_on_c, 0, 86, 0
1, 70642, Note_on_c, 9, 40, 0
1, 70646, Note_on_c, 1, 34, 113
1, 70650, Note_on_c, 1, 35, 0
1, 70654, Control_c, 0, 64, 0
1, 70660, Note_on_c, 9, 40, 80
1, 70666, Note_on_c, 0, 56, 57
1, 70670, Note_on_c, 0, 94, 51
1, 70670, Note_on_c, 0, 82, 54
1, 70678, Note_on_c, 0, 67, 30
1, 70682, Note_on_c, 0, 62, 52
1, 70682, Note_on_c, 0, 89, 48
1, 70762, Note_on_c, 0, 89, 0
1, 70774, Note_on_c, 0, 82, 0
1, 70774, Note_on_c, 0, 94, 0
1, 70782, Note_on_c, 0, 67, 0
1, 70782, Note_on_c, 0, 62, 0
1, 70790, Note_on_c, 0, 56, 0
1, 70866, Note_on_c, 0, 94, 62
1, 70870, Note_on_c, 0, 56, 52
1, 70874, Note_on_c, 0, 82, 55
1, 70874, Note_on_c, 0, 67, 51
1, 70882, Note_on_c, 0, 62, 52
1, 70882, Note_on_c, 0, 89, 56
1, 70966, Note_on_c, 0, 89, 0
1, 70966, Note_on_c, 0, 82, 0
1, 70970, Note_on_c, 0, 94, 0
1, 70970, Note_on_c, 0, 67, 0
1, 70978, Note_on_c, 0, 56, 0
1, 70982, Note_on_c, 0, 62, 0
1, 71026, Note_on_c, 9, 40, 0
1, 71026, Note_on_c, 9, 44, 75
1, 71030, Control_c, 0, 64, 127
1, 71046, Note_on_c, 1, 40, 118
1, 71058, Note_on_c, 9, 40, 50
1, 71066, Note_on_c, 1, 34, 0
1, 71070, Note_on_c, 0, 56, 45
1, 71070, Note_on_c, 0, 94, 55
1, 71074, Note_on_c, 0, 67, 42
1, 71078, Note_on_c, 0, 82, 43
1, 71078, Note_on_c, 0, 62, 52
1, 71086, Note_on_c, 0, 89, 46
1, 71138, Note_on_c, 9, 44, 0
1, 71218, Note_on_c, 0, 62, 0
1, 71222, Note_on_c, 0, 67, 0
1, 71226, Note_on_c, 0, 89, 0
1, 71230, Note_on_c, 0, 82, 0
1, 71294, Note_on_c, 0, 56, 0
1, 71318, Note_on_c, 0, 94, 0
1, 71382, Note_on_c, 1, 34, 91
1, 71386, Note_on_c, 1, 40, 0
1, 71410, Note_on_c, 9, 40, 0
1, 71414, Control_c, 0, 64, 0
1, 71418, Note_on_c, 9, 40, 47
1, 71422, Note_on_c, 1, 34, 0
1, 71442, Note_on_c, 1, 39, 118
1, 71446, Note_on_c, 0, 94, 53
1, 71446, Note_on_c, 0, 65, 37
1, 71454, Note_on_c, 0, 61, 37
1, 71458, Note_on_c, 0, 80, 39
1, 71458, Note_on_c, 0, 60, 39
1, 71462, Note_on_c, 0, 55, 35
1, 71478, Note_on_c, 0, 58, 31
1, 71514, Note_on_c, 0, 58, 0
1, 71526, Note_on_c, 0, 60, 0
1, 71530, Note_on_c, 0, 55, 0
1, 71530, Note_on_c, 0, 61, 0
1, 71534, Note_on_c, 0, 80, 0
1, 71538, Note_on_c, 0, 94, 0
1, 71538, Note_on_c, 0, 65, 0
1, 71646, Note_on_c, 0, 65, 34
1, 71646, Note_on_c, 0, 94, 56
1, 71650, Note_on_c, 0, 61, 39
1, 71654, Note_on_c, 0, 60, 42
1, 71654, Note_on_c, 0, 80, 46
1, 71662, Note_on_c, 0, 55, 36
1, 71766, Control_c, 0, 64, 127
1, 71794, Note_on_c, 0, 80, 0
1, 71794, Note_on_c, 9, 40, 0
1, 71794, Note_on_c, 9, 44, 69
1, 71794, Note_on_c, 9, 40, 50
1, 71814, Note_on_c, 0, 61, 0
1, 71822, Note_on_c, 0, 94, 0
1, 71822, Note_on_c, 0, 65, 0
1, 71838, Note_on_c, 0, 55, 0
1, 71838, Note_on_c, 0, 60, 0
1, 71906, Note_on_c, 9, 44, 0
1, 71914, Note_on_c, 9, 39, 56
1, 71922, Note_on_c, 1, 34, 88
1, 71950, Note_on_c, 0, 96, 68
1, 71954, Note_on_c, 0, 65, 51
1, 71954, Note_on_c, 0, 61, 48
1, 71954, Note_on_c, 0, 84, 62
1, 71958, Note_on_c, 1, 39, 0
1, 71958, Note_on_c, 0, 60, 48
1, 71966, Note_on_c, 0, 55, 39
1, 71974, Note_on_c, 1, 34, 0
1, 72006, Note_on_c, 1, 33, 107
1, 72030, Note_on_c, 0, 84, 0
1, 72046, Note_on_c, 0, 96, 0
1, 72050, Note_on_c, 0, 65, 0
1, 72062, Note_on_c, 0, 60, 0
1, 72070, Note_on_c, 0, 61, 0
1, 72072, Note_on_c, 9, 39, 0
1, 72094, Note_on_c, 1, 33, 0
1, 72098, Note_on_c, 0, 55, 0
1, 72100, Note_on_c, 9, 40, 60
1, 72110, Note_on_c, 1, 32, 102
1, 72158, Note_on_c, 1, 32, 0
1, 72166, Control_c, 0, 64, 0
1, 72178, Note_on_c, 9, 40, 0
1, 72182, Note_on_c, 1, 33, 116
1, 72184, Note_on_c, 9, 40, 37
1, 72194, Note_on_c, 0, 98, 94
1, 72198, Note_on_c, 0, 64, 80
1, 72202, Note_on_c, 0, 57, 66
1, 72202, Note_on_c, 0, 60, 67
1, 72202, Note_on_c, 0, 86, 81
1, 72202, Note_on_c, 0, 91, 79
1, 72202, Note_on_c, 0, 55, 61
1, 72210, Note_on_c, 0, 95, 56
1, 72226, Note_on_c, 0, 95, 0
1, 72254, Control_c, 0, 64, 127
1, 72274, Note_on_c, 0, 91, 0
1, 72274, Note_on_c, 0, 64, 0
1, 72274, Note_on_c, 0, 86, 0
1, 72278, Note_on_c, 0, 55, 0
1, 72282, Note_on_c, 0, 98, 0
1, 72282, Note_on_c, 0, 60, 0
1, 72286, Note_on_c, 0, 57, 0
1, 72314, Note_on_c, 0, 98, 80
1, 72318, Note_on_c, 0, 91, 65
1, 72318, Note_on_c, 0, 64, 60
1, 72318, Note_on_c, 0, 86, 63
1, 72322, Note_on_c, 0, 55, 52
1, 72322, Note_on_c, 0, 60, 71
1, 72326, Note_on_c, 0, 57, 65
1, 72334, Note_on_c, 0, 95, 43
1, 72344, Note_on_c, 0, 57, 0
1, 72350, Note_on_c, 0, 55, 0
1, 72354, Note_on_c, 0, 64, 0
1, 72354, Note_on_c, 0, 95, 0
1, 72354, Note_on_c, 0, 91, 0
1, 72358, Note_on_c, 0, 86, 0
1, 72362, Note_on_c, 0, 98, 0
1, 72362, Note_on_c, 0, 60, 0
1, 72394, Note_on_c, 0, 98, 66
1, 72394, Note_on_c, 0, 64, 57
1, 72398, Note_on_c, 0, 86, 60
1, 72398, Note_on_c, 0, 91, 60
1, 72402, Note_on_c, 0, 60, 65
1, 72402, Note_on_c, 0, 55, 48
1, 72406, Note_on_c, 0, 57, 64
1, 72450, Note_on_c, 0, 55, 0
1, 72450, Note_on_c, 0, 64, 0
1, 72454, Note_on_c, 0, 91, 0
1, 72454, Note_on_c, 0, 86, 0
1, 72458, Note_on_c, 0, 57, 0
1, 72462, Note_on_c, 0, 60, 0
1, 72462, Note_on_c, 0, 98, 0
1, 72498, Note_on_c, 0, 98, 76
1, 72498, Note_on_c, 0, 86, 60
1, 72502, Note_on_c, 0, 91, 66
1, 72502, Note_on_c, 0, 64, 66
1, 72502, Note_on_c, 0, 60, 59
1, 72510, Note_on_c, 0, 57, 54
1, 72510, Note_on_c, 0, 55, 55
1, 72534, Note_on_c, 0, 55, 0
1, 72542, Note_on_c, 0, 64, 0
1, 72542, Note_on_c, 0, 91, 0
1, 72546, Note_on_c, 0, 60, 0
1, 72546, Note_on_c, 0, 86, 0
1, 72550, Note_on_c, 0, 57, 0
1, 72550, Note_on_c, 0, 98, 0
1, 72554, Note_on_c, 9, 40, 52
1, 72562, Note_on_c, 9, 40, 0
1, 72562, Note_on_c, 9, 40, 0
1, 72562, Note_on_c, 9, 44, 69
1, 72582, Note_on_c, 0, 64, 56
1, 72582, Note_on_c, 0, 98, 68
1, 72590, Note_on_c, 0, 86, 57
1, 72590, Note_on_c, 0, 60, 60
1, 72590, Note_on_c, 0, 91, 65
1, 72594, Note_on_c, 0, 57, 61
1, 72594, Note_on_c, 0, 55, 52
1, 72650, Note_on_c, 0, 91, 0
1, 72650, Note_on_c, 0, 86, 0
1, 72650, Note_on_c, 0, 64, 0
1, 72658, Note_on_c, 0, 57, 0
1, 72658, Note_on_c, 0, 55, 0
1, 72670, Note_on_c, 0, 60, 0
1, 72678, Note_on_c, 0, 98, 0
1, 72678, Control_c, 0, 64, 0
1, 72680, Note_on_c, 9, 44, 0
1, 72758, Note_on_c, 0, 64, 59
1, 72762, Note_on_c, 0, 98, 77
1, 72762, Note_on_c, 0, 60, 57
1, 72762, Note_on_c, 0, 55, 56
1, 72762, Note_on_c, 0, 57, 61
1, 72762, Note_on_c, 0, 86, 61
1, 72762, Note_on_c, 0, 91, 64
1, 72806, Control_c, 0, 64, 127
1, 72834, Note_on_c, 0, 86, 0
1, 72834, Note_on_c, 0, 55, 0
1, 72838, Note_on_c, 0, 91, 0
1, 72842, Note_on_c, 0, 57, 0
1, 72846, Note_on_c, 0, 64, 0
1, 72850, Note_on_c, 0, 98, 0
1, 72850, Note_on_c, 0, 60, 0
1, 72910, Control_c, 0, 64, 0
1, 72922, Control_c, 0, 64, 24
1, 72922, Control_c, 0, 64, 127
1, 72926, Note_on_c, 1, 39, 122
1, 72934, Note_on_c, 1, 33, 0
1, 72942, Note_on_c, 9, 40, 55
1, 72946, Note_on_c, 9, 40, 0
1, 72954, Note_on_c, 0, 98, 78
1, 72958, Note_on_c, 0, 64, 60
1, 72958, Note_on_c, 0, 60, 52
1, 72962, Note_on_c, 0, 55, 52
1, 72962, Note_on_c, 0, 86, 61
1, 72962, Note_on_c, 0, 91, 65
1, 72966, Note_on_c, 0, 57, 49
1, 73070, Note_on_c, 0, 98, 0
1, 73118, Note_on_c, 0, 91, 0
1, 73118, Note_on_c, 0, 60, 0
1, 73150, Note_on_c, 9, 39, 50
1, 73162, Note_on_c, 0, 64, 0
1, 73162, Note_on_c, 0, 55, 0
1, 73170, Note_on_c, 0, 57, 0
1, 73178, Note_on_c, 0, 86, 0
1, 73322, Note_on_c, 9, 39, 0
1, 73330, Note_on_c, 9, 40, 0
1, 73330, Note_on_c, 9, 44, 70
1, 73342, Note_on_c, 0, 64, 40
1, 73342, Note_on_c, 9, 40, 45
1, 73354, Note_on_c, 0, 60, 45
1, 73358, Note_on_c, 0, 55, 36
1, 73370, Note_on_c, 0, 57, 36
1, 73426, Note_on_c, 9, 44, 0
1, 73438, Note_on_c, 0, 57, 0
1, 73442, Note_on_c, 0, 60, 0
1, 73442, Note_on_c, 0, 55, 0
1, 73470, Note_on_c, 0, 64, 0
1, 73530, Note_on_c, 9, 40, 47
1, 73646, Note_on_c, 1, 37, 78
1, 73682, Note_on_c, 1, 39, 0
1, 73694, Note_on_c, 1, 37, 0
1, 73702, Note_on_c, 1, 38, 102
1, 73713, Control_c, 1, 0, 0
1, 73713, Control_c, 1, 32, 122
1, 73714, Note_on_c, 9, 40, 0
1, 73714, Control_c, 1, 0, 0
1, 73714, Control_c, 1, 32, 122
1, 73714, Control_c, 1, 32, 122
1, 73714, Control_c, 1, 94, 0
1, 73714, Control_c, 1, 93, 0
1, 73714, Control_c, 1, 0, 0
1, 73714, Control_c, 1, 91, 16
1, 73714, Control_c, 1, 7, 127
1, 73714, Control_c, 1, 11, 127
1, 73714, Note_on_c, 1, 48, 122
1, 73714, Control_c, 1, 10, 64
1, 73714, Control_c, 1, 0, 0
1, 73714, Control_c, 1, 32, 122
1, 73714, Program_c, 1, 32
1, 73714, Control_c, 1, 101, 0
1, 73715, Control_c, 1, 100, 1
1, 73716, Control_c, 1, 6, 64
1, 73717, Control_c, 1, 38, 0
1, 73718, Note_on_c, 9, 40, 60
1, 73722, Note_on_c, 0, 63, 48
1, 73730, Note_on_c, 0, 67, 43
1, 73730, Note_on_c, 0, 58, 40
1, 73734, Note_on_c, 0, 62, 45
1, 73742, Control_c, 0, 64, 0
1, 73838, Note_on_c, 0, 96, 102
1, 73902, Note_on_c, 0, 91, 79
1, 73934, Note_on_c, 0, 96, 0
1, 73962, Note_on_c, 0, 91, 0
1, 73974, Note_on_c, 0, 89, 69
1, 74010, Note_on_c, 0, 89, 0
1, 74030, Note_on_c, 0, 94, 75
1, 74094, Note_on_c, 0, 91, 60
1, 74098, Note_on_c, 9, 40, 0
1, 74098, Note_on_c, 9, 40, 0
1, 74098, Note_on_c, 9, 44, 62
1, 74118, Note_on_c, 0, 94, 0
1, 74126, Note_on_c, 9, 40, 52
1, 74130, Note_on_c, 0, 67, 0
1, 74148, Note_on_c, 9, 37, 25
1, 74154, Note_on_c, 0, 63, 0
1, 74154, Note_on_c, 0, 91, 0
1, 74154, Note_on_c, 0, 87, 60
1, 74164, Note_on_c, 9, 37, 0
1, 74174, Note_on_c, 0, 62, 0
1, 74184, Note_on_c, 9, 44, 0
1, 74198, Note_on_c, 0, 87, 0
1, 74214, Note_on_c, 0, 84, 57
1, 74234, Note_on_c, 0, 84, 0
1, 74278, Note_on_c, 0, 89, 82
1, 74322, Note_on_c, 0, 63, 31
1, 74334, Note_on_c, 0, 89, 0
1, 74346, Note_on_c, 0, 84, 45
1, 74386, Note_on_c, 0, 84, 0
1, 74394, Note_on_c, 0, 63, 0
1, 74410, Note_on_c, 0, 87, 75
1, 74458, Note_on_c, 0, 58, 0
1, 74462, Note_on_c, 0, 87, 0
1, 74482, Note_on_c, 9, 40, 0
1, 74490, Note_on_c, 0, 84, 52
1, 74498, Note_on_c, 9, 40, 52
1, 74510, Note_on_c, 0, 67, 36
1, 74514, Note_on_c, 0, 57, 37
1, 74518, Note_on_c, 0, 63, 39
1, 74522, Note_on_c, 1, 41, 115
1, 74530, Note_on_c, 0, 84, 0
1, 74534, Note_on_c, 1, 48, 0
1, 74594, Note_on_c, 0, 85, 72
1, 74662, Note_on_c, 0, 86, 77
1, 74670, Note_on_c, 0, 85, 0
1, 74722, Note_on_c, 0, 86, 0
1, 74722, Note_on_c, 0, 67, 0
1, 74742, Note_on_c, 0, 63, 0
1, 74770, Note_on_c, 0, 84, 68
1, 74842, Note_on_c, 0, 84, 0
1, 74866, Note_on_c, 9, 40, 0
1, 74866, Note_on_c, 9, 44, 64
1, 74866, Note_on_c, 9, 40, 75
1, 74926, Note_on_c, 0, 67, 41
1, 74934, Note_on_c, 0, 63, 42
1, 74938, Note_on_c, 9, 44, 0
1, 75002, Note_on_c, 1, 32, 95
1, 75034, Note_on_c, 1, 32, 0
1, 75038, Control_c, 0, 64, 127
1, 75038, Note_on_c, 0, 83, 75
1, 75066, Note_on_c, 1, 41, 0
1, 75066, Note_on_c, 1, 33, 104
1, 75106, Note_on_c, 0, 67, 0
1, 75138, Note_on_c, 0, 82, 48
1, 75142, Note_on_c, 0, 83, 0
1, 75142, Note_on_c, 0, 57, 0
1, 75158, Note_on_c, 0, 63, 0
1, 75158, Note_on_c, 0, 82, 0
1, 75182, Note_on_c, 0, 81, 50
1, 75220, Note_on_c, 9, 35, 37
1, 75234, Note_on_c, 0, 81, 0
1, 75234, Note_on_c, 1, 33, 0
1, 75240, Note_on_c, 9, 40, 62
1, 75242, Note_on_c, 1, 34, 102
1, 75246, Note_on_c, 1, 38, 0
1, 75246, Note_on_c, 9, 35, 0
1, 75250, Note_on_c, 9, 40, 0
1, 75250, Note_on_c, 0, 80, 50
1, 75274, Control_c, 0, 64, 0
1, 75302, Note_on_c, 0, 80, 0
1, 75306, Note_on_c, 9, 35, 32
1, 75314, Note_on_c, 0, 62, 40
1, 75314, Note_on_c, 0, 60, 41
1, 75314, Note_on_c, 0, 65, 31
1, 75314, Note_on_c, 0, 81, 57
1, 75318, Note_on_c, 0, 55, 38
1, 75374, Note_on_c, 9, 35, 0
1, 75458, Note_on_c, 0, 77, 56
1, 75462, Control_c, 0, 64, 127
1, 75466, Note_on_c, 0, 81, 0
1, 75490, Note_on_c, 9, 59, 60
1, 75496, Note_on_c, 9, 35, 35
1, 75506, Note_on_c, 9, 59, 0
1, 75522, Note_on_c, 0, 65, 0
1, 75526, Note_on_c, 0, 60, 0
1, 75526, Note_on_c, 0, 62, 0
1, 75542, Note_on_c, 0, 77, 0
1, 75546, Note_on_c, 9, 35, 0
1, 75554, Note_on_c, 0, 74, 56
1, 75610, Note_on_c, 0, 74, 0
1, 75634, Note_on_c, 9, 40, 0
1, 75634, Note_on_c, 9, 44, 55
1, 75650, Note_on_c, 9, 40, 62
1, 75662, Note_on_c, 0, 65, 39
1, 75662, Note_on_c, 0, 86, 69
1, 75668, Note_on_c, 9, 44, 0
1, 75686, Note_on_c, 0, 60, 36
1, 75690, Note_on_c, 0, 62, 31
1, 75766, Note_on_c, 0, 86, 0
1, 75802, Note_on_c, 0, 65, 0
1, 75802, Note_on_c, 0, 62, 0
1, 75826, Note_on_c, 0, 60, 0
1, 75858, Note_on_c, 0, 86, 57
1, 75870, Note_on_c, 0, 55, 0
1, 75934, Note_on_c, 0, 86, 0
1, 75970, Note_on_c, 0, 74, 56
1, 75994, Note_on_c, 1, 38, 63
1, 76002, Note_on_c, 9, 40, 75
1, 76014, Note_on_c, 1, 38, 0
1, 76018, Note_on_c, 9, 40, 0
1, 76022, Note_on_c, 0, 74, 0
1, 76038, Note_on_c, 1, 41, 105
1, 76042, Control_c, 0, 64, 0
1, 76050, Note_on_c, 1, 34, 0
1, 76054, Note_on_c, 0, 62, 37
1, 76054, Note_on_c, 0, 55, 39
1, 76054, Note_on_c, 0, 58, 44
1, 76058, Note_on_c, 0, 81, 57
1, 76058, Note_on_c, 0, 53, 37
1, 76142, Note_on_c, 0, 81, 0
1, 76242, Note_on_c, 0, 81, 62
1, 76274, Note_on_c, 0, 62, 0
1, 76282, Note_on_c, 0, 58, 0
1, 76310, Control_c, 0, 64, 127
1, 76342, Note_on_c, 0, 81, 0
1, 76366, Note_on_c, 0, 74, 56
1, 76378, Note_on_c, 9, 39, 68
1, 76386, Control_c, 0, 64, 0
1, 76402, Note_on_c, 9, 40, 0
1, 76402, Note_on_c, 9, 44, 74
1, 76410, Note_on_c, 0, 74, 0
1, 76422, Control_c, 0, 64, 127
1, 76442, Note_on_c, 0, 58, 33
1, 76446, Note_on_c, 0, 62, 25
1, 76458, Note_on_c, 0, 77, 52
1, 76468, Note_on_c, 9, 44, 0
1, 76526, Note_on_c, 0, 55, 0
1, 76530, Note_on_c, 0, 77, 0
1, 76530, Note_on_c, 1, 39, 73
1, 76546, Note_on_c, 0, 53, 0
1, 76554, Note_on_c, 9, 39, 0
1, 76554, Note_on_c, 0, 58, 0
1, 76584, Note_on_c, 9, 40, 55
1, 76586, Note_on_c, 1, 39, 0
1, 76586, Note_on_c, 1, 46, 113
1, 76590, Note_on_c, 1, 41, 0
1, 76590, Note_on_c, 0, 62, 0
1, 76622, Note_on_c, 0, 77, 68
1, 76706, Note_on_c, 0, 77, 0
1, 76718, Note_on_c, 1, 46, 0
1, 76718, Note_on_c, 1, 44, 91
1, 76742, Note_on_c, 0, 74, 58
1, 76758, Note_on_c, 1, 44, 0
1, 76770, Control_c, 0, 64, 0
1, 76774, Note_on_c, 0, 74, 0
1, 76778, Note_on_c, 1, 45, 108
1, 76778, Note_on_c, 9, 40, 62
1, 76782, Note_on_c, 0, 63, 32
1, 76786, Note_on_c, 9, 40, 0
1, 76790, Note_on_c, 0, 60, 14
1, 76802, Note_on_c, 0, 55, 36
1, 76814, Note_on_c, 0, 75, 66
1, 76874, Note_on_c, 0, 75, 0
1, 76942, Note_on_c, 0, 63, 0
1, 76946, Note_on_c, 1, 39, 112
1, 76954, Note_on_c, 0, 55, 0
1, 76982, Note_on_c, 1, 45, 0
1, 76994, Note_on_c, 9, 40, 67
1, 77006, Note_on_c, 0, 72, 65
1, 77022, Note_on_c, 0, 72, 0
1, 77070, Note_on_c, 0, 60, 0
1, 77154, Note_on_c, 1, 33, 115
1, 77166, Note_on_c, 1, 39, 0
1, 77166, Note_on_c, 0, 74, 102
1, 77166, Note_on_c, 0, 60, 28
1, 77170, Note_on_c, 9, 40, 0
1, 77170, Note_on_c, 0, 63, 48
1, 77170, Note_on_c, 0, 81, 81
1, 77170, Note_on_c, 9, 44, 75
1, 77170, Note_on_c, 9, 44, 70
1, 77170, Note_on_c, 9, 44, 58
1, 77186, Note_on_c, 0, 55, 35
1, 77190, Note_on_c, 0, 57, 34
1, 77210, Note_on_c, 9, 44, 0
1, 77230, Note_on_c, 9, 44, 0
1, 77234, Note_on_c, 0, 74, 0
1, 77266, Note_on_c, 0, 75, 56
1, 77278, Note_on_c, 0, 81, 0
1, 77302, Note_on_c, 0, 74, 56
1, 77314, Note_on_c, 0, 63, 0
1, 77314, Note_on_c, 0, 55, 0
1, 77320, Note_on_c, 9, 44, 0
1, 77322, Note_on_c, 0, 57, 0
1, 77338, Note_on_c, 0, 75, 0
1, 77354, Note_on_c, 0, 74, 0
1, 77366, Note_on_c, 0, 72, 50
1, 77438, Note_on_c, 0, 60, 0
1, 77446, Note_on_c, 0, 72, 0
1, 77478, Note_on_c, 0, 70, 66
1, 77486, Note_on_c, 0, 60, 35
1, 77490, Note_on_c, 0, 63, 51
1, 77498, Note_on_c, 0, 54, 42
1, 77510, Note_on_c, 0, 63, 0
1, 77542, Note_on_c, 0, 70, 0
1, 77554, Note_on_c, 9, 40, 0
1, 77554, Note_on_c, 1, 38, 112
1, 77570, Note_on_c, 1, 33, 0
1, 77570, Note_on_c, 9, 40, 75
1, 77582, Note_on_c, 0, 69, 37
1, 77622, Note_on_c, 0, 69, 0
1, 77626, Note_on_c, 0, 60, 0
1, 77670, Note_on_c, 0, 60, 38
1, 77670, Note_on_c, 0, 70, 65
1, 77718, Note_on_c, 0, 70, 0
1, 77738, Note_on_c, 0, 54, 0
1, 77750, Note_on_c, 0, 72, 63
1, 77762, Note_on_c, 0, 71, 47
1, 77782, Note_on_c, 0, 71, 0
1, 77798, Note_on_c, 0, 60, 0
1, 77806, Note_on_c, 0, 72, 0
1, 77866, Note_on_c, 0, 69, 58
1, 77866, Note_on_c, 0, 60, 54
1, 77874, Note_on_c, 0, 70, 42
1, 77898, Note_on_c, 0, 54, 25
1, 77902, Note_on_c, 0, 70, 0
1, 77906, Note_on_c, 0, 60, 0
1, 77930, Note_on_c, 0, 54, 0
1, 77934, Note_on_c, 0, 69, 0
1, 77938, Note_on_c, 9, 40, 0
1, 77938, Note_on_c, 9, 44, 54
1, 77938, Note_on_c, 9, 44, 55
1, 77962, Note_on_c, 0, 66, 42
1, 77966, Note_on_c, 9, 40, 60
1, 77988, Note_on_c, 9, 44, 0
1, 77998, Note_on_c, 0, 66, 0
1, 78066, Note_on_c, 0, 65, 72
1, 78110, Note_on_c, 9, 44, 0
1, 78114, Note_on_c, 0, 65, 0
1, 78162, Note_on_c, 0, 63, 35
1, 78234, Note_on_c, 0, 63, 0
1, 78262, Note_on_c, 0, 59, 43
1, 78266, Note_on_c, 0, 50, 52
1, 78286, Note_on_c, 0, 59, 0
1, 78310, Note_on_c, 0, 50, 0
1, 78322, Note_on_c, 9, 40, 0
1, 78330, Note_on_c, 0, 58, 58
1, 78338, Note_on_c, 0, 51, 42
1, 78342, Note_on_c, 1, 38, 0
1, 78350, Note_on_c, 0, 58, 0
1, 78350, Note_on_c, 1, 31, 110
1, 78354, Note_on_c, 9, 40, 62
1, 78370, Note_on_c, 0, 63, 28
1, 78430, Note_on_c, 0, 63, 0
1, 78474, Note_on_c, 0, 51, 0
1, 78498, Note_on_c, 0, 50, 40
1, 78534, Note_on_c, 0, 50, 0
1, 78538, Note_on_c, 0, 65, 58
1, 78538, Note_on_c, 0, 57, 57
1, 78538, Note_on_c, 0, 61, 50
1, 78558, Note_on_c, 0, 53, 34
1, 78610, Note_on_c, 0, 65, 0
1, 78618, Note_on_c, 0, 57, 0
1, 78634, Note_on_c, 0, 61, 0
1, 78650, Note_on_c, 0, 53, 0
1, 78682, Note_on_c, 1, 46, 98
1, 78706, Note_on_c, 9, 40, 0
1, 78706, Note_on_c, 9, 44, 56
1, 78706, Note_on_c, 9, 44, 60
1, 78718, Note_on_c, 0, 63, 49
1, 78734, Note_on_c, 0, 51, 42
1, 78738, Note_on_c, 1, 46, 0
1, 78738, Note_on_c, 0, 58, 45
1, 78740, Note_on_c, 9, 40, 60
1, 78750, Note_on_c, 1, 47, 99
1, 78754, Note_on_c, 9, 44, 0
1, 78766, Note_on_c, 9, 35, 29
1, 78782, Note_on_c, 9, 35, 0
1, 78810, Note_on_c, 0, 63, 0
1, 78810, Note_on_c, 0, 58, 0
1, 78834, Note_on_c, 9, 44, 0
1, 78858, Note_on_c, 0, 49, 42
1, 78922, Note_on_c, 0, 49, 0
1, 78922, Note_on_c, 0, 57, 54
1, 78926, Note_on_c, 0, 65, 48
1, 78926, Note_on_c, 0, 53, 52
1, 78930, Note_on_c, 0, 51, 0
1, 78934, Note_on_c, 0, 59, 46
1, 78934, Note_on_c, 0, 61, 45
1, 78936, Note_on_c, 9, 40, 65
1, 78998, Note_on_c, 0, 59, 0
1, 79006, Note_on_c, 0, 57, 0
1, 79030, Note_on_c, 0, 61, 0
1, 79034, Note_on_c, 0, 65, 0
1, 79038, Note_on_c, 0, 53, 0
1, 79074, Note_on_c, 1, 38, 73
1, 79090, Note_on_c, 9, 40, 0
1, 79102, Note_on_c, 1, 38, 0
1, 79106, Note_on_c, 1, 47, 0
1, 79122, Note_on_c, 9, 40, 67
1, 79130, Note_on_c, 0, 55, 50
1, 79138, Note_on_c, 0, 63, 46
1, 79138, Note_on_c, 0, 43, 48
1, 79138, Note_on_c, 1, 50, 98
1, 79142, Note_on_c, 0, 59, 48
1, 79182, Note_on_c, 1, 50, 0
1, 79182, Note_on_c, 0, 55, 0
1, 79210, Note_on_c, 0, 59, 0
1, 79210, Control_c, 0, 64, 127
1, 79270, Note_on_c, 1, 46, 98
1, 79290, Note_on_c, 0, 43, 0
1, 79294, Note_on_c, 0, 63, 0
1, 79310, Note_on_c, 1, 46, 0
1, 79320, Note_on_c, 9, 35, 27
1, 79330, Note_on_c, 1, 47, 88
1, 79438, Note_on_c, 9, 35, 0
1, 79458, Note_on_c, 0, 61, 69
1, 79462, Note_on_c, 1, 38, 77
1, 79474, Note_on_c, 9, 40, 0
1, 79474, Note_on_c, 1, 47, 0
1, 79474, Note_on_c, 9, 40, 0
1, 79474, Note_on_c, 9, 44, 51
1, 79474, Note_on_c, 9, 44, 62
1, 79482, Control_c, 0, 64, 0
1, 79482, Note_on_c, 9, 40, 55
1, 79486, Note_on_c, 1, 31, 0
1, 79494, Note_on_c, 1, 38, 0
1, 79494, Note_on_c, 0, 59, 19
1, 79506, Note_on_c, 9, 44, 0
1, 79514, Note_on_c, 1, 43, 88
1, 79530, Note_on_c, 0, 61, 0
1, 79534, Note_on_c, 0, 59, 0
1, 79550, Note_on_c, 0, 63, 46
1, 79578, Note_on_c, 9, 44, 0
1, 79622, Note_on_c, 0, 63, 0
1, 79642, Note_on_c, 0, 65, 68
1, 79654, Note_on_c, 0, 59, 55
1, 79654, Note_on_c, 0, 64, 41
1, 79682, Note_on_c, 0, 64, 0
1, 79686, Note_on_c, 0, 65, 0
1, 79714, Note_on_c, 0, 59, 0
1, 79726, Note_on_c, 0, 67, 49
1, 79762, Note_on_c, 1, 38, 98
1, 79782, Note_on_c, 1, 38, 0
1, 79786, Note_on_c, 1, 43, 0
1, 79802, Note_on_c, 0, 67, 0
1, 79826, Note_on_c, 1, 37, 102
1, 79834, Note_on_c, 0, 69, 65
1, 79858, Note_on_c, 9, 40, 0
1, 79862, Note_on_c, 1, 37, 0
1, 79874, Note_on_c, 9, 40, 60
1, 79890, Note_on_c, 0, 69, 0
1, 79890, Note_on_c, 1, 36, 108
1, 79926, Note_on_c, 0, 70, 55
1, 79962, Note_on_c, 0, 70, 0
1, 80042, Note_on_c, 0, 57, 34
1, 80042, Note_on_c, 0, 62, 31
1, 80046, Note_on_c, 0, 58, 31
1, 80050, Note_on_c, 0, 72, 30
1, 80066, Note_on_c, 0, 62, 0
1, 80066, Note_on_c, 0, 57, 0
1, 80070, Note_on_c, 0, 58, 0
1, 80074, Note_on_c, 0, 72, 0
1, 80182, Note_on_c, 1, 49, 104
1, 80218, Note_on_c, 0, 62, 46
1, 80218, Note_on_c, 0, 58, 47
1, 80222, Note_on_c, 0, 57, 43
1, 80234, Note_on_c, 0, 62, 0
1, 80234, Note_on_c, 1, 49, 0
1, 80242, Note_on_c, 0, 58, 0
1, 80242, Note_on_c, 9, 40, 0
1, 80242, Note_on_c, 9, 44, 58
1, 80242, Note_on_c, 9, 44, 60
1, 80246, Note_on_c, 0, 57, 0
1, 80258, Note_on_c, 1, 48, 89
1, 80270, Note_on_c, 9, 44, 0
1, 80276, Note_on_c, 9, 40, 55
1, 80306, Note_on_c, 0, 72, 43
1, 80330, Note_on_c, 0, 72, 0
1, 80342, Note_on_c, 0, 73, 56
1, 80346, Note_on_c, 9, 44, 0
1, 80378, Note_on_c, 0, 72, 46
1, 80402, Note_on_c, 0, 73, 0
1, 80422, Note_on_c, 0, 72, 0
1, 80430, Note_on_c, 0, 71, 49
1, 80442, Note_on_c, 0, 57, 21
1, 80462, Note_on_c, 0, 71, 0
1, 80474, Note_on_c, 9, 35, 28
1, 80478, Note_on_c, 0, 57, 0
1, 80494, Note_on_c, 0, 70, 58
1, 80498, Note_on_c, 1, 36, 0
1, 80506, Note_on_c, 9, 35, 0
1, 80586, Note_on_c, 0, 70, 0
1, 80598, Note_on_c, 0, 71, 58
1, 80626, Note_on_c, 9, 40, 0
1, 80634, Note_on_c, 9, 40, 65
1, 80642, Note_on_c, 0, 71, 0
1, 80682, Note_on_c, 0, 72, 45
1, 80766, Note_on_c, 0, 72, 0
1, 80782, Note_on_c, 0, 73, 68
1, 80790, Note_on_c, 0, 57, 44
1, 80790, Note_on_c, 0, 58, 48
1, 80794, Note_on_c, 0, 62, 40
1, 80814, Note_on_c, 0, 62, 0
1, 80818, Note_on_c, 0, 58, 0
1, 80822, Note_on_c, 0, 73, 0
1, 80822, Note_on_c, 0, 57, 0
1, 80838, Note_on_c, 1, 43, 117
1, 80850, Note_on_c, 9, 39, 36
1, 80870, Note_on_c, 1, 48, 0
1, 80878, Note_on_c, 0, 76, 41
1, 80942, Note_on_c, 0, 76, 0
1, 80978, Note_on_c, 0, 79, 75
1, 80994, Note_on_c, 0, 58, 32
1, 81010, Note_on_c, 9, 40, 0
1, 81010, Note_on_c, 9, 46, 44
1, 81010, Note_on_c, 9, 46, 34
1, 81012, Note_on_c, 9, 39, 0
1, 81022, Note_on_c, 0, 58, 0
1, 81022, Note_on_c, 0, 79, 0
1, 81032, Note_on_c, 9, 46, 0
1, 81032, Note_on_c, 9, 40, 55
1, 81058, Note_on_c, 0, 82, 62
1, 81122, Note_on_c, 9, 46, 0
1, 81134, Note_on_c, 0, 82, 0
1, 81166, Note_on_c, 0, 84, 66
1, 81170, Note_on_c, 0, 62, 56
1, 81170, Note_on_c, 0, 58, 50
1, 81174, Note_on_c, 0, 57, 44
1, 81194, Note_on_c, 0, 57, 0
1, 81202, Note_on_c, 0, 62, 0
1, 81214, Note_on_c, 0, 84, 0
1, 81218, Note_on_c, 0, 58, 0
1, 81218, Note_on_c, 1, 43, 0
1, 81222, Note_on_c, 1, 37, 113
1, 81230, Note_on_c, 9, 39, 35
1, 81258, Note_on_c, 0, 85, 58
1, 81306, Note_on_c, 0, 85, 0
1, 81326, Note_on_c, 9, 35, 31
1, 81336, Note_on_c, 9, 39, 0
1, 81354, Note_on_c, 9, 35, 0
1, 81358, Note_on_c, 0, 86, 72
1, 81380, Note_on_c, 9, 40, 37
1, 81394, Note_on_c, 9, 40, 0
1, 81406, Note_on_c, 0, 86, 0
1, 81418, Note_on_c, 0, 58, 40
1, 81418, Note_on_c, 9, 35, 37
1, 81422, Note_on_c, 1, 37, 0
1, 81422, Note_on_c, 0, 62, 61
1, 81422, Note_on_c, 0, 63, 35
1, 81422, Note_on_c, 1, 36, 112
1, 81426, Note_on_c, 0, 67, 54
1, 81426, Note_on_c, 9, 59, 40
1, 81428, Note_on_c, 9, 40, 52
1, 81430, Note_on_c, 0, 87, 82
1, 81506, Note_on_c, 9, 35, 0
1, 81514, Note_on_c, 0, 87, 0
1, 81514, Note_on_c, 9, 59, 0
1, 81546, Note_on_c, 0, 89, 120
1, 81566, Note_on_c, 0, 62, 0
1, 81586, Note_on_c, 0, 67, 0
1, 81614, Note_on_c, 9, 35, 37
1, 81618, Note_on_c, 9, 59, 31
1, 81622, Note_on_c, 0, 89, 0
1, 81634, Note_on_c, 0, 86, 60
1, 81646, Note_on_c, 0, 63, 0
1, 81666, Note_on_c, 0, 58, 0
1, 81690, Note_on_c, 9, 59, 0
1, 81694, Note_on_c, 9, 35, 0
1, 81718, Note_on_c, 0, 86, 0
1, 81738, Note_on_c, 0, 87, 78
1, 81754, Note_on_c, 0, 67, 48
1, 81758, Note_on_c, 0, 63, 43
1, 81762, Note_on_c, 0, 58, 38
1, 81762, Note_on_c, 0, 62, 39
1, 81778, Note_on_c, 9, 40, 0
1, 81778, Note_on_c, 9, 40, 0
1, 81778, Note_on_c, 9, 44, 79
1, 81778, Note_on_c, 9, 44, 34
1, 81780, Note_on_c, 9, 40, 47
1, 81810, Note_on_c, 0, 87, 0
1, 81818, Note_on_c, 0, 67, 0
1, 81818, Note_on_c, 1, 30, 115
1, 81834, Note_on_c, 1, 36, 0
1, 81846, Note_on_c, 0, 83, 49
1, 81870, Note_on_c, 0, 62, 0
1, 81874, Note_on_c, 0, 63, 0
1, 81886, Note_on_c, 9, 44, 0
1, 81886, Note_on_c, 9, 44, 0
1, 81906, Note_on_c, 0, 83, 0
1, 81934, Note_on_c, 0, 86, 81
1, 81954, Note_on_c, 0, 67, 41
1, 81962, Note_on_c, 0, 63, 37
1, 81994, Note_on_c, 0, 86, 0
1, 82002, Note_on_c, 0, 67, 0
1, 82018, Note_on_c, 0, 63, 0
1, 82022, Note_on_c, 0, 58, 0
1, 82026, Note_on_c, 0, 84, 49
1, 82134, Note_on_c, 0, 84, 0
1, 82134, Note_on_c, 0, 77, 52
1, 82154, Note_on_c, 9, 40, 52
1, 82162, Note_on_c, 9, 40, 0
1, 82170, Note_on_c, 0, 77, 0
1, 82182, Note_on_c, 0, 67, 43
1, 82194, Note_on_c, 0, 63, 40
1, 82194, Note_on_c, 0, 62, 22
1, 82202, Note_on_c, 1, 29, 111
1, 82206, Note_on_c, 0, 57, 41
1, 82214, Note_on_c, 0, 82, 63
1, 82238, Note_on_c, 1, 30, 0
1, 82258, Note_on_c, 0, 82, 0
1, 82262, Note_on_c, 0, 63, 0
1, 82274, Note_on_c, 0, 83, 37
1, 82278, Note_on_c, 0, 84, 47
1, 82294, Note_on_c, 0, 84, 0
1, 82338, Note_on_c, 0, 67, 0
1, 82342, Note_on_c, 0, 63, 37
1, 82354, Note_on_c, 0, 83, 0
1, 82366, Note_on_c, 0, 57, 0
1, 82366, Note_on_c, 0, 63, 0
1, 82402, Note_on_c, 0, 82, 75
1, 82442, Note_on_c, 0, 62, 0
1, 82518, Note_on_c, 0, 82, 0
1, 82522, Note_on_c, 0, 63, 47
1, 82522, Note_on_c, 0, 67, 35
1, 82522, Note_on_c, 9, 40, 65
1, 82526, Note_on_c, 0, 62, 25
1, 82546, Note_on_c, 9, 40, 0
1, 82546, Note_on_c, 9, 44, 55
1, 82546, Note_on_c, 9, 44, 50
1, 82550, Note_on_c, 0, 67, 0
1, 82562, Note_on_c, 0, 63, 0
1, 82590, Note_on_c, 0, 80, 35
1, 82598, Note_on_c, 0, 62, 0
1, 82600, Note_on_c, 9, 44, 0
1, 82614, Note_on_c, 0, 81, 72
1, 82638, Note_on_c, 0, 80, 0
1, 82654, Note_on_c, 9, 44, 0
1, 82710, Note_on_c, 0, 62, 45
1, 82714, Note_on_c, 0, 63, 53
1, 82722, Note_on_c, 0, 67, 43
1, 82742, Note_on_c, 0, 67, 0
1, 82746, Note_on_c, 0, 81, 0
1, 82746, Note_on_c, 0, 62, 0
1, 82746, Note_on_c, 1, 39, 115
1, 82758, Note_on_c, 1, 29, 0
1, 82778, Note_on_c, 0, 63, 0
1, 82782, Note_on_c, 0, 77, 63
1, 82802, Control_c, 0, 64, 127
1, 82842, Note_on_c, 9, 39, 53
1, 82874, Note_on_c, 0, 77, 0
1, 82884, Note_on_c, 9, 39, 0
1, 82898, Note_on_c, 0, 74, 63
1, 82914, Note_on_c, 0, 74, 0
1, 82916, Note_on_c, 9, 40, 72
1, 82922, Note_on_c, 1, 39, 0
1, 82926, Note_on_c, 1, 38, 110
1, 82930, Note_on_c, 9, 40, 0
1, 82938, Control_c, 0, 64, 0
1, 82958, Note_on_c, 0, 65, 63
1, 82966, Note_on_c, 0, 55, 48
1, 82966, Note_on_c, 0, 84, 79
1, 82966, Note_on_c, 0, 74, 73
1, 82970, Note_on_c, 0, 62, 48
1, 82970, Note_on_c, 0, 80, 66
1, 82974, Note_on_c, 0, 60, 51
1, 83074, Note_on_c, 0, 81, 57
1, 83078, Note_on_c, 0, 80, 0
1, 83094, Note_on_c, 0, 74, 0
1, 83102, Note_on_c, 0, 65, 0
1, 83102, Note_on_c, 0, 62, 0
1, 83102, Note_on_c, 0, 55, 0
1, 83106, Note_on_c, 0, 84, 0
1, 83106, Note_on_c, 0, 81, 0
1, 83110, Note_on_c, 0, 60, 0
1, 83118, Note_on_c, 9, 40, 55
1, 83150, Note_on_c, 0, 65, 52
1, 83154, Note_on_c, 0, 84, 68
1, 83154, Note_on_c, 0, 55, 41
1, 83158, Note_on_c, 0, 62, 52
1, 83158, Note_on_c, 0, 60, 51
1, 83162, Note_on_c, 0, 81, 69
1, 83166, Note_on_c, 0, 74, 72
1, 83242, Control_c, 0, 64, 127
1, 83298, Note_on_c, 0, 81, 0
1, 83298, Note_on_c, 0, 84, 0
1, 83306, Note_on_c, 0, 65, 0
1, 83314, Note_on_c, 9, 40, 0
1, 83314, Note_on_c, 9, 40, 0
1, 83314, Note_on_c, 9, 44, 57
1, 83314, Note_on_c, 9, 44, 44
1, 83322, Note_on_c, 0, 74, 0
1, 83346, Note_on_c, 0, 55, 0
1, 83348, Note_on_c, 9, 44, 0
1, 83358, Note_on_c, 0, 60, 0
1, 83358, Note_on_c, 0, 62, 0
1, 83434, Note_on_c, 9, 44, 0
1, 83434, Note_on_c, 0, 81, 67
1, 83438, Note_on_c, 0, 65, 54
1, 83442, Note_on_c, 0, 62, 57
1, 83442, Note_on_c, 0, 69, 63
1, 83442, Note_on_c, 0, 74, 66
1, 83442, Note_on_c, 0, 60, 58
1, 83442, Note_on_c, 0, 77, 61
1, 83446, Note_on_c, 0, 55, 45
1, 83458, Note_on_c, 0, 65, 0
1, 83486, Note_on_c, 0, 69, 0
1, 83490, Note_on_c, 0, 55, 0
1, 83494, Note_on_c, 0, 62, 0
1, 83498, Note_on_c, 0, 81, 0
1, 83498, Note_on_c, 0, 60, 0
1, 83506, Note_on_c, 0, 74, 0
1, 83506, Note_on_c, 9, 40, 55
1, 83514, Note_on_c, 0, 77, 0
1, 83558, Note_on_c, 0, 65, 66
1, 83558, Note_on_c, 0, 81, 68
1, 83562, Note_on_c, 0, 55, 54
1, 83562, Note_on_c, 0, 60, 55
1, 83562, Note_on_c, 0, 62, 51
1, 83562, Note_on_c, 0, 74, 61
1, 83562, Note_on_c, 0, 69, 57
1, 83574, Note_on_c, 0, 77, 38
1, 83582, Note_on_c, 0, 69, 0
1, 83586, Note_on_c, 0, 74, 0
1, 83594, Note_on_c, 0, 62, 0
1, 83594, Note_on_c, 0, 77, 0
1, 83602, Note_on_c, 0, 65, 0
1, 83610, Note_on_c, 0, 81, 0
1, 83614, Note_on_c, 0, 55, 0
1, 83634, Note_on_c, 0, 60, 0
1, 83666, Control_c, 0, 64, 0
1, 83688, Note_on_c, 9, 40, 75
1, 83702, Note_on_c, 0, 81, 78
1, 83702, Note_on_c, 0, 65, 81
1, 83702, Note_on_c, 0, 84, 76
1, 83702, Note_on_c, 0, 77, 84
1, 83702, Note_on_c, 0, 61, 63
1, 83706, Note_on_c, 0, 55, 66
1, 83706, Note_on_c, 0, 60, 64
1, 83706, Note_on_c, 0, 72, 66
1, 83706, Note_on_c, 1, 39, 109
1, 83718, Note_on_c, 0, 58, 49
1, 83730, Note_on_c, 1, 38, 0
1, 83758, Control_c, 0, 64, 127
1, 83830, Note_on_c, 0, 55, 0
1, 83834, Note_on_c, 0, 65, 0
1, 83834, Note_on_c, 0, 72, 0
1, 83834, Note_on_c, 0, 77, 0
1, 83842, Note_on_c, 0, 58, 0
1, 83842, Note_on_c, 0, 84, 0
1, 83850, Note_on_c, 0, 60, 0
1, 83850, Note_on_c, 0, 61, 0
1, 83850, Note_on_c, 0, 81, 0
1, 83910, Note_on_c, 0, 65, 76
1, 83910, Note_on_c, 0, 84, 76
1, 83910, Note_on_c, 0, 81, 65
1, 83910, Note_on_c, 0, 77, 79
1, 83910, Note_on_c, 0, 61, 63
1, 83910, Note_on_c, 0, 60, 57
1, 83910, Note_on_c, 0, 55, 57
1, 83910, Note_on_c, 0, 72, 74
1, 83914, Note_on_c, 9, 39, 32
1, 83942, Note_on_c, 0, 58, 22
1, 84022, Note_on_c, 0, 81, 0
1, 84026, Note_on_c, 0, 65, 0
1, 84030, Note_on_c, 0, 84, 0
1, 84034, Note_on_c, 0, 77, 0
1, 84046, Note_on_c, 0, 72, 0
1, 84070, Note_on_c, 0, 55, 0
1, 84072, Note_on_c, 9, 39, 0
1, 84074, Note_on_c, 0, 61, 0
1, 84074, Note_on_c, 0, 58, 0
1, 84082, Note_on_c, 9, 40, 0
1, 84082, Note_on_c, 0, 60, 0
1, 84082, Note_on_c, 9, 40, 0
1, 84082, Note_on_c, 9, 44, 58
1, 84082, Note_on_c, 9, 44, 48
1, 84100, Note_on_c, 9, 40, 52
1, 84162, Note_on_c, 9, 44, 0
1, 84180, Note_on_c, 9, 44, 0
1, 84198, Note_on_c, 0, 65, 79
1, 84202, Note_on_c, 0, 81, 75
1, 84202, Note_on_c, 0, 61, 63
1, 84206, Note_on_c, 0, 55, 63
1, 84206, Note_on_c, 0, 74, 81
1, 84206, Note_on_c, 0, 60, 57
1, 84206, Note_on_c, 0, 69, 78
1, 84206, Note_on_c, 0, 77, 68
1, 84226, Note_on_c, 0, 60, 0
1, 84226, Note_on_c, 0, 79, 36
1, 84246, Note_on_c, 0, 65, 0
1, 84266, Note_on_c, 0, 79, 0
1, 84266, Note_on_c, 0, 81, 0
1, 84270, Note_on_c, 0, 61, 0
1, 84274, Note_on_c, 0, 77, 0
1, 84282, Note_on_c, 0, 74, 0
1, 84286, Note_on_c, 0, 55, 0
1, 84294, Note_on_c, 0, 69, 0
1, 84402, Note_on_c, 9, 35, 31
1, 84420, Note_on_c, 9, 35, 0
1, 84450, Control_c, 0, 64, 0
1, 84466, Note_on_c, 9, 40, 0
1, 84472, Note_on_c, 9, 40, 52
1, 84474, Note_on_c, 0, 69, 86
1, 84474, Note_on_c, 0, 66, 84
1, 84478, Note_on_c, 0, 57, 68
1, 84478, Note_on_c, 0, 62, 83
1, 84478, Note_on_c, 0, 59, 75
1, 84478, Note_on_c, 0, 55, 63
1, 84482, Note_on_c, 1, 40, 126
1, 84482, Note_on_c, 9, 57, 29
1, 84482, Note_on_c, 9, 35, 24
1, 84486, Note_on_c, 1, 39, 0
1, 84510, Note_on_c, 9, 57, 0
1, 84514, Note_on_c, 9, 35, 0
1, 84558, Note_on_c, 0, 59, 0
1, 84570, Note_on_c, 0, 55, 0
1, 84574, Note_on_c, 0, 57, 0
1, 84574, Note_on_c, 0, 62, 0
1, 84582, Note_on_c, 0, 66, 0
1, 84582, Note_on_c, 0, 69, 0
1, 84606, Note_on_c, 0, 66, 60
1, 84610, Note_on_c, 0, 69, 41
1, 84610, Note_on_c, 0, 62, 77
1, 84610, Note_on_c, 0, 59, 60
1, 84618, Note_on_c, 0, 55, 50
1, 84618, Note_on_c, 0, 57, 63
1, 84638, Note_on_c, 0, 57, 0
1, 84642, Note_on_c, 0, 59, 0
1, 84650, Note_on_c, 0, 62, 0
1, 84658, Note_on_c, 0, 55, 0
1, 84662, Note_on_c, 0, 69, 0
1, 84666, Note_on_c, 0, 66, 0
1, 84690, Note_on_c, 0, 62, 68
1, 84690, Note_on_c, 0, 59, 61
1, 84690, Note_on_c, 0, 66, 65
1, 84694, Note_on_c, 0, 57, 41
1, 84694, Note_on_c, 0, 55, 41
1, 84694, Note_on_c, 0, 69, 65
1, 84758, Note_on_c, 0, 59, 0
1, 84770, Note_on_c, 0, 57, 0
1, 84774, Note_on_c, 0, 62, 0
1, 84774, Note_on_c, 0, 55, 0
1, 84790, Note_on_c, 0, 66, 0
1, 84790, Note_on_c, 0, 69, 0
1, 84846, Note_on_c, 9, 40, 65
1, 84850, Note_on_c, 9, 40, 0
1, 84850, Note_on_c, 9, 44, 73
1, 84878, Note_on_c, 0, 66, 82
1, 84878, Note_on_c, 0, 69, 77
1, 84878, Note_on_c, 0, 59, 72
1, 84882, Note_on_c, 0, 57, 61
1, 84882, Note_on_c, 0, 55, 61
1, 84882, Note_on_c, 0, 62, 80
1, 84942, Note_on_c, 0, 62, 0
1, 84942, Note_on_c, 0, 55, 0
1, 84942, Note_on_c, 0, 59, 0
1, 84950, Note_on_c, 0, 57, 0
1, 84962, Note_on_c, 0, 69, 0
1, 84962, Control_c, 0, 64, 127
1, 84974, Note_on_c, 0, 66, 0
1, 84978, Note_on_c, 1, 35, 104
1, 84994, Note_on_c, 1, 40, 0
1, 85006, Control_c, 0, 64, 0
1, 85066, Note_on_c, 0, 57, 56
1, 85066, Note_on_c, 0, 59, 53
1, 85066, Note_on_c, 0, 69, 74
1, 85066, Note_on_c, 0, 55, 51
1, 85070, Note_on_c, 0, 66, 69
1, 85070, Note_on_c, 0, 62, 72
1, 85082, Note_on_c, 0, 59, 0
1, 85086, Note_on_c, 1, 35, 0
1, 85086, Note_on_c, 0, 55, 0
1, 85090, Note_on_c, 0, 57, 0
1, 85106, Note_on_c, 1, 34, 107
1, 85114, Note_on_c, 0, 62, 0
1, 85130, Note_on_c, 0, 69, 0
1, 85130, Control_c, 0, 64, 127
1, 85138, Note_on_c, 0, 66, 0
1, 85170, Note_on_c, 0, 66, 64
1, 85190, Note_on_c, 0, 55, 68
1, 85198, Note_on_c, 0, 57, 57
1, 85218, Note_on_c, 0, 57, 0
1, 85230, Note_on_c, 0, 66, 0
1, 85230, Note_on_c, 0, 55, 0
1, 85230, Control_c, 0, 64, 88
1, 85230, Control_c, 0, 64, 0
1, 85234, Note_on_c, 9, 40, 0
1, 85234, Note_on_c, 1, 33, 109
1, 85246, Note_on_c, 9, 40, 55
1, 85258, Note_on_c, 1, 34, 0
1, 85262, Note_on_c, 0, 72, 80
1, 85266, Note_on_c, 0, 69, 73
1, 85272, Note_on_c, 9, 44, 0
1, 85274, Note_on_c, 0, 62, 72
1, 85278, Note_on_c, 0, 60, 81
1, 85278, Note_on_c, 0, 61, 67
1, 85282, Note_on_c, 0, 65, 42
1, 85282, Note_on_c, 0, 64, 66
1, 85298, Note_on_c, 0, 65, 0
1, 85326, Note_on_c, 0, 64, 0
1, 85330, Note_on_c, 0, 72, 0
1, 85334, Note_on_c, 0, 62, 0
1, 85334, Note_on_c, 0, 61, 0
1, 85346, Note_on_c, 0, 60, 0
1, 85362, Note_on_c, 0, 69, 0
1, 85390, Note_on_c, 0, 69, 35
1, 85390, Note_on_c, 0, 72, 69
1, 85398, Note_on_c, 0, 61, 81
1, 85398, Note_on_c, 0, 60, 79
1, 85402, Note_on_c, 0, 64, 68
1, 85422, Note_on_c, 0, 64, 0
1, 85422, Note_on_c, 0, 54, 22
1, 85430, Note_on_c, 0, 69, 0
1, 85438, Note_on_c, 0, 72, 0
1, 85442, Note_on_c, 0, 60, 0
1, 85478, Note_on_c, 0, 61, 0
1, 85478, Note_on_c, 0, 54, 0
1, 85550, Note_on_c, 0, 69, 78
1, 85550, Note_on_c, 0, 61, 67
1, 85554, Note_on_c, 0, 58, 81
1, 85554, Note_on_c, 0, 57, 77
1, 85566, Note_on_c, 0, 64, 51
1, 85610, Note_on_c, 0, 58, 0
1, 85614, Note_on_c, 0, 57, 0
1, 85618, Note_on_c, 0, 69, 0
1, 85618, Note_on_c, 9, 40, 0
1, 85618, Note_on_c, 9, 44, 77
1, 85634, Note_on_c, 0, 61, 0
1, 85640, Note_on_c, 0, 64, 0
1, 85640, Note_on_c, 9, 40, 67
1, 85666, Note_on_c, 0, 57, 66
1, 85666, Note_on_c, 0, 58, 69
1, 85666, Note_on_c, 0, 69, 57
1, 85670, Note_on_c, 0, 61, 63
1, 85690, Control_c, 0, 64, 127
1, 85754, Note_on_c, 0, 69, 0
1, 85758, Note_on_c, 0, 58, 0
1, 85762, Note_on_c, 0, 61, 0
1, 85786, Control_c, 0, 64, 0
1, 85794, Note_on_c, 0, 57, 0
1, 85806, Note_on_c, 0, 58, 66
1, 85810, Note_on_c, 0, 61, 53
1, 85810, Note_on_c, 0, 55, 55
1, 85818, Control_c, 0, 64, 127
1, 85822, Note_on_c, 0, 64, 52
1, 85830, Note_on_c, 0, 55, 0
1, 85878, Note_on_c, 0, 58, 0
1, 85894, Note_on_c, 0, 61, 0
1, 85918, Note_on_c, 0, 64, 0
1, 85934, Note_on_c, 0, 68, 26
1, 85946, Control_c, 0, 64, 0
1, 85958, Note_on_c, 0, 68, 0
1, 85998, Note_on_c, 0, 60, 53
1, 86002, Note_on_c, 9, 40, 0
1, 86002, Note_on_c, 0, 55, 51
1, 86006, Control_c, 0, 64, 127
1, 86006, Note_on_c, 0, 45, 48
1, 86018, Note_on_c, 9, 40, 50
1, 86058, Note_on_c, 9, 44, 0
1, 86090, Note_on_c, 0, 60, 0
1, 86154, Note_on_c, 0, 55, 0
1, 86174, Note_on_c, 0, 52, 69
1, 86178, Note_on_c, 0, 45, 0
1, 86198, Note_on_c, 0, 52, 0
1, 86198, Note_on_c, 1, 33, 0
1, 86206, Note_on_c, 1, 38, 124
1, 86326, Note_on_c, 0, 86, 82
1, 86330, Note_on_c, 0, 74, 84
1, 86330, Note_on_c, 0, 64, 72
1, 86330, Note_on_c, 0, 55, 64
1, 86330, Note_on_c, 0, 81, 81
1, 86330, Note_on_c, 0, 57, 58
1, 86334, Note_on_c, 0, 60, 65
1, 86386, Note_on_c, 0, 64, 0
1, 86386, Note_on_c, 0, 74, 0
1, 86386, Note_on_c, 0, 86, 0
1, 86386, Note_on_c, 9, 40, 0
1, 86386, Note_on_c, 9, 44, 70
1, 86390, Note_on_c, 0, 55, 0
1, 86390, Control_c, 0, 64, 0
1, 86398, Note_on_c, 0, 81, 0
1, 86402, Note_on_c, 0, 57, 0
1, 86402, Note_on_c, 0, 60, 0
1, 86404, Note_on_c, 9, 40, 62
1, 86426, Note_on_c, 0, 64, 72
1, 86426, Note_on_c, 0, 86, 79
1, 86430, Note_on_c, 0, 81, 85
1, 86430, Note_on_c, 0, 74, 70
1, 86430, Note_on_c, 0, 55, 58
1, 86434, Control_c, 0, 64, 127
1, 86438, Note_on_c, 0, 57, 63
1, 86438, Note_on_c, 0, 60, 74
1, 86506, Note_on_c, 0, 55, 0
1, 86518, Note_on_c, 0, 86, 0
1, 86538, Note_on_c, 0, 57, 0
1, 86538, Note_on_c, 0, 64, 0
1, 86546, Note_on_c, 0, 74, 0
1, 86554, Note_on_c, 0, 60, 0
1, 86554, Note_on_c, 0, 81, 0
1, 86586, Note_on_c, 1, 50, 98
1, 86602, Note_on_c, 0, 84, 73
1, 86606, Note_on_c, 0, 55, 58
1, 86606, Note_on_c, 0, 64, 57
1, 86610, Note_on_c, 0, 72, 61
1, 86610, Note_on_c, 0, 60, 50
1, 86658, Note_on_c, 0, 72, 0
1, 86678, Note_on_c, 0, 84, 0
1, 86682, Note_on_c, 0, 64, 0
1, 86686, Note_on_c, 0, 55, 0
1, 86710, Note_on_c, 0, 60, 0
1, 86754, Note_on_c, 9, 44, 0
1, 86758, Control_c, 0, 64, 0
1, 86770, Note_on_c, 9, 40, 0
1, 86798, Note_on_c, 0, 86, 85
1, 86798, Note_on_c, 0, 54, 66
1, 86798, Note_on_c, 0, 81, 80
1, 86798, Note_on_c, 0, 60, 58
1, 86798, Note_on_c, 0, 74, 78
1, 86798, Note_on_c, 0, 64, 66
1, 86808, Note_on_c, 9, 40, 67
1, 86838, Control_c, 0, 64, 127
1, 86934, Note_on_c, 0, 64, 0
1, 86954, Control_c, 0, 64, 0
1, 86962, Note_on_c, 0, 60, 0
1, 86962, Note_on_c, 0, 86, 0
1, 86966, Note_on_c, 0, 54, 0
1, 86970, Note_on_c, 0, 74, 0
1, 86974, Note_on_c, 1, 50, 0
1, 86982, Note_on_c, 0, 81, 0
1, 86994, Note_on_c, 0, 54, 54
1, 87002, Note_on_c, 0, 86, 79
1, 87002, Note_on_c, 0, 64, 66
1, 87006, Note_on_c, 0, 74, 76
1, 87006, Note_on_c, 0, 60, 58
1, 87006, Note_on_c, 0, 81, 72
1, 87006, Note_on_c, 1, 54, 116
1, 87092, Note_on_c, 9, 39, 46
1, 87138, Note_on_c, 9, 39, 0
1, 87154, Note_on_c, 9, 40, 0
1, 87154, Note_on_c, 9, 46, 39
1, 87162, Note_on_c, 0, 86, 0
1, 87166, Note_on_c, 0, 74, 0
1, 87170, Note_on_c, 0, 64, 0
1, 87170, Note_on_c, 9, 40, 50
1, 87172, Note_on_c, 9, 46, 0
1, 87178, Note_on_c, 1, 54, 0
1, 87186, Note_on_c, 0, 81, 0
1, 87190, Note_on_c, 0, 60, 0
1, 87198, Note_on_c, 1, 48, 105
1, 87202, Note_on_c, 0, 86, 66
1, 87202, Note_on_c, 0, 81, 51
1, 87206, Note_on_c, 0, 74, 71
1, 87206, Note_on_c, 0, 64, 72
1, 87214, Note_on_c, 0, 60, 42
1, 87222, Note_on_c, 0, 84, 37
1, 87226, Note_on_c, 1, 38, 0
1, 87290, Note_on_c, 1, 48, 0
1, 87330, Note_on_c, 1, 38, 88
1, 87342, Note_on_c, 0, 81, 0
1, 87350, Note_on_c, 0, 86, 0
1, 87366, Note_on_c, 0, 84, 0
1, 87370, Note_on_c, 9, 40, 52
1, 87378, Note_on_c, 0, 54, 0
1, 87390, Note_on_c, 0, 74, 0
1, 87390, Note_on_c, 1, 46, 97
1, 87394, Note_on_c, 1, 38, 0
1, 87414, Note_on_c, 0, 54, 69
1, 87514, Note_on_c, 0, 60, 0
1, 87526, Note_on_c, 0, 64, 0
1, 87534, Note_on_c, 1, 38, 77
1, 87538, Note_on_c, 9, 40, 0
1, 87550, Note_on_c, 9, 40, 57
1, 87554, Note_on_c, 0, 54, 0
1, 87558, Note_on_c, 1, 38, 0
1, 87558, Note_on_c, 1, 46, 0
1, 87558, Note_on_c, 0, 82, 81
1, 87558, Note_on_c, 0, 70, 85
1, 87562, Note_on_c, 0, 78, 74
1, 87570, Note_on_c, 0, 62, 63
1, 87570, Note_on_c, 0, 59, 60
1, 87574, Note_on_c, 1, 47, 103
1, 87634, Note_on_c, 0, 62, 0
1, 87650, Note_on_c, 0, 70, 0
1, 87662, Note_on_c, 0, 82, 0
1, 87670, Note_on_c, 0, 62, 61
1, 87682, Note_on_c, 0, 83, 73
1, 87682, Note_on_c, 0, 71, 66
1, 87686, Note_on_c, 0, 79, 63
1, 87686, Note_on_c, 0, 57, 51
1, 87690, Note_on_c, 0, 52, 50
1, 87702, Note_on_c, 0, 78, 0
1, 87702, Note_on_c, 0, 53, 34
1, 87726, Note_on_c, 0, 53, 0
1, 87826, Control_c, 0, 64, 127
1, 87862, Note_on_c, 1, 45, 96
1, 87878, Note_on_c, 1, 47, 0
1, 87906, Note_on_c, 1, 45, 0
1, 87918, Note_on_c, 0, 59, 0
1, 87922, Note_on_c, 9, 40, 0
1, 87922, Note_on_c, 9, 40, 0
1, 87922, Note_on_c, 0, 62, 0
1, 87922, Note_on_c, 9, 44, 52
1, 87930, Note_on_c, 0, 71, 0
1, 87930, Note_on_c, 0, 57, 0
1, 87938, Note_on_c, 0, 79, 0
1, 87938, Note_on_c, 1, 43, 103
1, 87946, Note_on_c, 0, 83, 0
1, 87954, Note_on_c, 9, 40, 62
1, 87974, Note_on_c, 0, 71, 72
1, 87974, Note_on_c, 0, 62, 57
1, 87978, Note_on_c, 0, 83, 74
1, 87982, Note_on_c, 0, 79, 68
1, 87982, Note_on_c, 0, 59, 48
1, 87982, Note_on_c, 0, 57, 56
1, 88004, Note_on_c, 9, 44, 0
1, 88106, Note_on_c, 0, 71, 0
1, 88126, Note_on_c, 0, 79, 0
1, 88138, Note_on_c, 0, 59, 0
1, 88146, Note_on_c, 0, 83, 0
1, 88162, Note_on_c, 0, 57, 0
1, 88162, Note_on_c, 0, 62, 0
1, 88170, Note_on_c, 0, 52, 0
1, 88278, Note_on_c, 0, 51, 69
1, 88298, Note_on_c, 1, 43, 0
1, 88298, Note_on_c, 1, 39, 69
1, 88306, Note_on_c, 9, 40, 0
1, 88306, Note_on_c, 0, 57, 53
1, 88310, Note_on_c, 0, 74, 72
1, 88318, Note_on_c, 1, 39, 0
1, 88326, Note_on_c, 1, 41, 117
1, 88330, Note_on_c, 0, 62, 77
1, 88330, Note_on_c, 0, 79, 68
1, 88338, Note_on_c, 0, 83, 75
1, 88342, Control_c, 0, 64, 0
1, 88344, Note_on_c, 9, 40, 52
1, 88350, Note_on_c, 0, 86, 81
1, 88470, Control_c, 0, 64, 127
1, 88510, Note_on_c, 0, 74, 0
1, 88514, Note_on_c, 0, 86, 0
1, 88534, Note_on_c, 0, 83, 0
1, 88534, Note_on_c, 0, 79, 0
1, 88550, Note_on_c, 0, 86, 79
1, 88562, Note_on_c, 0, 62, 0
1, 88574, Note_on_c, 0, 57, 0
1, 88662, Note_on_c, 0, 86, 0
1, 88670, Note_on_c, 0, 51, 0
1, 88690, Note_on_c, 9, 40, 0
1, 88690, Note_on_c, 9, 44, 61
1, 88702, Note_on_c, 9, 40, 52
1, 88734, Note_on_c, 0, 86, 84
1, 88810, Note_on_c, 9, 44, 0
1, 88862, Note_on_c, 0, 86, 0
1, 88934, Control_c, 0, 64, 0
1, 88934, Note_on_c, 0, 57, 72
1, 88934, Note_on_c, 0, 74, 76
1, 88934, Note_on_c, 0, 63, 61
1, 88938, Note_on_c, 0, 79, 75
1, 88938, Note_on_c, 0, 67, 63
1, 88938, Note_on_c, 0, 62, 57
1, 88942, Note_on_c, 0, 83, 68
1, 88946, Note_on_c, 0, 86, 80
1, 88946, Note_on_c, 0, 61, 50
1, 88970, Note_on_c, 0, 61, 0
1, 88970, Note_on_c, 1, 38, 89
1, 88978, Note_on_c, 1, 41, 0
1, 88990, Note_on_c, 1, 38, 0
1, 88990, Control_c, 0, 64, 127
1, 89010, Note_on_c, 0, 74, 0
1, 89014, Note_on_c, 0, 67, 0
1, 89022, Note_on_c, 0, 79, 0
1, 89026, Note_on_c, 0, 62, 0
1, 89034, Note_on_c, 0, 83, 0
1, 89034, Note_on_c, 1, 34, 110
1, 89038, Note_on_c, 0, 63, 0
1, 89042, Note_on_c, 0, 86, 0
1, 89054, Note_on_c, 0, 57, 0
1, 89070, Note_on_c, 1, 34, 0
1, 89074, Note_on_c, 9, 40, 0
1, 89076, Note_on_c, 9, 40, 47
1, 89106, Note_on_c, 1, 35, 122
1, 89142, Note_on_c, 0, 65, 69
1, 89142, Note_on_c, 0, 89, 69
1, 89142, Note_on_c, 0, 57, 66
1, 89146, Note_on_c, 0, 84, 72
1, 89146, Note_on_c, 0, 77, 63
1, 89146, Control_c, 0, 64, 0
1, 89150, Note_on_c, 0, 63, 57
1, 89166, Note_on_c, 0, 63, 0
1, 89198, Note_on_c, 0, 62, 43
1, 89254, Control_c, 0, 64, 127
1, 89270, Note_on_c, 0, 62, 0
1, 89270, Note_on_c, 0, 89, 0
1, 89274, Note_on_c, 0, 77, 0
1, 89282, Note_on_c, 0, 65, 0
1, 89282, Note_on_c, 0, 84, 0
1, 89286, Note_on_c, 0, 57, 0
1, 89326, Note_on_c, 0, 89, 60
1, 89330, Note_on_c, 0, 57, 56
1, 89330, Note_on_c, 0, 65, 46
1, 89330, Note_on_c, 0, 84, 53
1, 89334, Note_on_c, 0, 77, 56
1, 89334, Note_on_c, 0, 62, 48
1, 89410, Note_on_c, 0, 65, 0
1, 89422, Note_on_c, 0, 62, 0
1, 89426, Note_on_c, 0, 77, 0
1, 89430, Note_on_c, 0, 57, 0
1, 89438, Note_on_c, 0, 89, 0
1, 89438, Note_on_c, 0, 84, 0
1, 89458, Note_on_c, 9, 40, 0
1, 89458, Note_on_c, 9, 44, 62
1, 89480, Note_on_c, 9, 40, 52
1, 89518, Note_on_c, 9, 44, 0
1, 89522, Note_on_c, 0, 65, 50
1, 89522, Note_on_c, 0, 89, 57
1, 89522, Note_on_c, 0, 57, 49
1, 89530, Note_on_c, 0, 62, 47
1, 89530, Note_on_c, 0, 77, 41
1, 89534, Note_on_c, 0, 84, 51
1, 89634, Note_on_c, 0, 77, 0
1, 89638, Note_on_c, 0, 65, 0
1, 89642, Note_on_c, 0, 57, 0
1, 89642, Note_on_c, 0, 89, 0
1, 89646, Note_on_c, 0, 84, 0
1, 89646, Note_on_c, 0, 62, 0
1, 89706, Note_on_c, 0, 57, 44
1, 89710, Note_on_c, 0, 89, 48
1, 89710, Note_on_c, 0, 65, 49
1, 89718, Note_on_c, 0, 84, 56
1, 89718, Note_on_c, 0, 62, 42
1, 89722, Note_on_c, 0, 77, 39
1, 89778, Note_on_c, 0, 57, 0
1, 89786, Note_on_c, 0, 62, 0
1, 89786, Note_on_c, 0, 84, 0
1, 89794, Note_on_c, 0, 77, 0
1, 89798, Note_on_c, 0, 65, 0
1, 89802, Note_on_c, 0, 89, 0
1, 89842, Note_on_c, 9, 40, 0
1, 89850, Note_on_c, 9, 40, 55
1, 89866, Note_on_c, 1, 35, 0
1, 89874, Note_on_c, 1, 40, 101
1, 89898, Control_c, 0, 64, 0
1, 89910, Note_on_c, 1, 40, 0
1, 89910, Note_on_c, 0, 89, 57
1, 89910, Note_on_c, 0, 56, 51
1, 89910, Note_on_c, 0, 67, 45
1, 89914, Note_on_c, 0, 77, 45
1, 89918, Note_on_c, 0, 83, 50
1, 89922, Note_on_c, 0, 62, 49
1, 89974, Control_c, 0, 64, 127
1, 89982, Note_on_c, 1, 35, 87
1, 90002, Note_on_c, 1, 35, 0
1, 90040, Note_on_c, 9, 40, 47
1, 90046, Note_on_c, 1, 32, 108
1, 90098, Note_on_c, 0, 67, 0
1, 90154, Note_on_c, 0, 62, 0
1, 90158, Note_on_c, 0, 56, 0
1, 90214, Note_on_c, 0, 77, 0
1, 90226, Note_on_c, 9, 40, 0
1, 90226, Note_on_c, 9, 44, 51
1, 90226, Note_on_c, 9, 40, 67
1, 90238, Note_on_c, 0, 89, 0
1, 90242, Note_on_c, 0, 83, 0
1, 90324, Note_on_c, 9, 44, 0
1, 90406, Note_on_c, 1, 32, 0
1, 90422, Note_on_c, 0, 56, 55
1, 90422, Note_on_c, 0, 83, 56
1, 90426, Note_on_c, 0, 65, 47
1, 90426, Note_on_c, 0, 76, 52
1, 90426, Note_on_c, 0, 88, 49
1, 90426, Note_on_c, 1, 35, 78
1, 90434, Note_on_c, 0, 62, 41
1, 90446, Note_on_c, 1, 35, 0
1, 90446, Note_on_c, 0, 76, 0
1, 90450, Note_on_c, 0, 62, 0
1, 90454, Note_on_c, 0, 65, 0
1, 90470, Note_on_c, 0, 83, 0
1, 90482, Note_on_c, 0, 88, 0
1, 90506, Note_on_c, 0, 56, 0
1, 90518, Note_on_c, 1, 32, 90
1, 90530, Note_on_c, 9, 35, 27
1, 90546, Note_on_c, 9, 35, 0
1, 90562, Note_on_c, 1, 32, 0
1, 90590, Note_on_c, 1, 33, 106
1, 90610, Note_on_c, 9, 40, 0
1, 90610, Note_on_c, 9, 40, 0
1, 90610, Control_c, 0, 64, 0
1, 90618, Note_on_c, 9, 40, 77
1, 90706, System_exclusive, 9, 67, 16, 76, 3, 1, 0, 64, 0, 247
1, 90734, Note_on_c, 0, 64, 59
1, 90734, Note_on_c, 0, 81, 68
1, 90734, Note_on_c, 0, 93, 60
1, 90738, Note_on_c, 0, 88, 61
1, 90742, Note_on_c, 0, 60, 47
1, 90742, Note_on_c, 0, 57, 41
1, 90750, Note_on_c, 0, 55, 34
1, 90758, Note_on_c, 0, 93, 0
1, 90762, Note_on_c, 0, 81, 0
1, 90762, Note_on_c, 0, 64, 0
1, 90762, Note_on_c, 0, 88, 0
1, 90762, Note_on_c, 0, 60, 0
1, 90766, Note_on_c, 0, 57, 0
1, 90770, Note_on_c, 0, 55, 0
1, 90834, Control_c, 0, 64, 127
1, 90870, Note_on_c, 0, 64, 72
1, 90874, Note_on_c, 0, 57, 57
1, 90874, Note_on_c, 0, 60, 63
1, 90874, Note_on_c, 0, 93, 77
1, 90874, Note_on_c, 0, 88, 77
1, 90878, Note_on_c, 0, 81, 75
1, 90878, Note_on_c, 0, 55, 54
1, 90898, Note_on_c, 0, 55, 0
1, 90914, Note_on_c, 0, 81, 0
1, 90918, Note_on_c, 0, 64, 0
1, 90922, Note_on_c, 0, 93, 0
1, 90926, Note_on_c, 0, 88, 0
1, 90930, Note_on_c, 0, 57, 0
1, 90934, Note_on_c, 0, 60, 0
1, 90978, Note_on_c, 1, 33, 0
1, 90982, Note_on_c, 0, 64, 79
1, 90982, Note_on_c, 0, 60, 62
1, 90986, Note_on_c, 0, 57, 61
1, 90986, Note_on_c, 0, 93, 88
1, 90986, Note_on_c, 0, 55, 63
1, 90986, Note_on_c, 0, 88, 84
1, 90986, Note_on_c, 0, 81, 80
1, 90990, Note_on_c, 1, 45, 124
1, 90994, Note_on_c, 9, 40, 0
1, 90994, Note_on_c, 9, 44, 52
1, 91018, Note_on_c, 9, 40, 52
1, 91058, Note_on_c, 9, 44, 0
1, 91082, Note_on_c, 0, 81, 0
1, 91090, Note_on_c, 0, 93, 0
1, 91090, Note_on_c, 0, 64, 0
1, 91098, Note_on_c, 0, 60, 0
1, 91098, Note_on_c, 0, 88, 0
1, 91102, Note_on_c, 0, 57, 0
1, 91106, Note_on_c, 0, 55, 0
1, 91162, Control_c, 0, 64, 0
1, 91170, Note_on_c, 0, 64, 36
1, 91190, Note_on_c, 0, 60, 29
1, 91198, Note_on_c, 0, 64, 0
1, 91214, Note_on_c, 0, 60, 0
1, 91218, Control_c, 0, 64, 127
1, 91258, Note_on_c, 0, 64, 55
1, 91262, Note_on_c, 0, 60, 48
1, 91266, Note_on_c, 0, 81, 58
1, 91266, Note_on_c, 0, 88, 64
1, 91266, Note_on_c, 0, 93, 57
1, 91270, Note_on_c, 0, 57, 38
1, 91278, Note_on_c, 0, 55, 33
1, 91290, Note_on_c, 0, 93, 0
1, 91294, Note_on_c, 0, 81, 0
1, 91298, Note_on_c, 0, 57, 0
1, 91302, Note_on_c, 0, 88, 0
1, 91302, Note_on_c, 0, 55, 0
1, 91302, Note_on_c, 0, 64, 0
1, 91310, Note_on_c, 0, 60, 0
1, 91316, Note_on_c, 9, 35, 33
1, 91322, Note_on_c, 1, 45, 0
1, 91322, Control_c, 0, 64, 0
1, 91322, Note_on_c, 1, 44, 102
1, 91332, Note_on_c, 9, 35, 0
1, 91346, Note_on_c, 0, 88, 83
1, 91346, Note_on_c, 0, 64, 76
1, 91346, Note_on_c, 0, 93, 85
1, 91346, Note_on_c, 0, 57, 71
1, 91346, Note_on_c, 0, 60, 72
1, 91346, Note_on_c, 0, 81, 82
1, 91346, Note_on_c, 0, 55, 66
1, 91370, Note_on_c, 1, 44, 0
1, 91378, Note_on_c, 9, 40, 0
1, 91394, Note_on_c, 1, 43, 104
1, 91410, Note_on_c, 9, 40, 77
1, 91414, Control_c, 0, 64, 127
1, 91458, Note_on_c, 0, 81, 0
1, 91462, Note_on_c, 0, 64, 0
1, 91462, Note_on_c, 0, 55, 0
1, 91462, Note_on_c, 0, 93, 0
1, 91462, Note_on_c, 0, 88, 0
1, 91462, Note_on_c, 0, 57, 0
1, 91466, Note_on_c, 0, 60, 0
1, 91570, Note_on_c, 1, 43, 0
1, 91590, Note_on_c, 0, 93, 69
1, 91590, Note_on_c, 0, 81, 62
1, 91594, Note_on_c, 0, 88, 68
1, 91594, Note_on_c, 0, 64, 62
1, 91594, Note_on_c, 1, 43, 122
1, 91598, Note_on_c, 0, 60, 60
1, 91598, Note_on_c, 0, 55, 56
1, 91606, Note_on_c, 0, 57, 53
1, 91666, Note_on_c, 0, 81, 0
1, 91674, Note_on_c, 0, 55, 0
1, 91678, Note_on_c, 0, 64, 0
1, 91678, Note_on_c, 0, 88, 0
1, 91678, Note_on_c, 0, 93, 0
1, 91682, Note_on_c, 0, 57, 0
1, 91686, Note_on_c, 0, 60, 0
1, 91762, Note_on_c, 9, 40, 0
1, 91762, Note_on_c, 9, 44, 55
1, 91770, Note_on_c, 0, 93, 63
1, 91774, Note_on_c, 0, 64, 60
1, 91774, Note_on_c, 0, 88, 63
1, 91778, Note_on_c, 0, 81, 52
1, 91782, Note_on_c, 0, 55, 52
1, 91782, Note_on_c, 0, 57, 48
1, 91786, Note_on_c, 0, 60, 54
1, 91786, Note_on_c, 0, 90, 40
1, 91790, Note_on_c, 9, 40, 70
1, 91810, Note_on_c, 0, 90, 0
1, 91818, Note_on_c, 0, 81, 0
1, 91822, Note_on_c, 9, 44, 0
1, 91842, Note_on_c, 0, 93, 0
1, 91846, Note_on_c, 0, 55, 0
1, 91850, Note_on_c, 0, 88, 0
1, 91850, Note_on_c, 0, 57, 0
1, 91850, Note_on_c, 0, 64, 0
1, 91862, Note_on_c, 0, 60, 0
1, 91918, Note_on_c, 0, 95, 72
1, 91922, Note_on_c, 0, 55, 56
1, 91922, Note_on_c, 0, 64, 55
1, 91922, Note_on_c, 0, 60, 46
1, 91930, Note_on_c, 0, 83, 63
1, 91958, Note_on_c, 0, 83, 0
1, 91958, Note_on_c, 0, 64, 0
1, 91970, Note_on_c, 9, 39, 46
1, 91982, Note_on_c, 0, 55, 0
1, 91982, Note_on_c, 0, 95, 0
1, 91990, Note_on_c, 0, 60, 0
1, 92038, Note_on_c, 0, 64, 44
1, 92046, Note_on_c, 0, 96, 75
1, 92054, Note_on_c, 0, 84, 55
1, 92058, Note_on_c, 0, 96, 0
1, 92068, Note_on_c, 9, 39, 0
1, 92078, Note_on_c, 0, 84, 0
1, 92098, Note_on_c, 0, 64, 0
1, 92146, Note_on_c, 9, 40, 0
1, 92170, Control_c, 0, 64, 0
1, 92170, Note_on_c, 9, 40, 52
1, 92174, Note_on_c, 1, 43, 0
1, 92182, Note_on_c, 0, 87, 71
1, 92182, Note_on_c, 0, 67, 40
1, 92186, Note_on_c, 0, 75, 68
1, 92186, Note_on_c, 0, 58, 46
1, 92186, Note_on_c, 0, 63, 54
1, 92186, Note_on_c, 0, 62, 47
1, 92186, Note_on_c, 1, 36, 107
1, 92246, Control_c, 0, 64, 127
1, 92298, Note_on_c, 0, 62, 0
1, 92302, Note_on_c, 0, 67, 0
1, 92306, Note_on_c, 0, 58, 0
1, 92306, Note_on_c, 0, 75, 0
1, 92310, Note_on_c, 0, 63, 0
1, 92310, Note_on_c, 0, 87, 0
1, 92378, Note_on_c, 0, 67, 57
1, 92378, Note_on_c, 0, 87, 68
1, 92378, Note_on_c, 0, 63, 46
1, 92378, Note_on_c, 0, 58, 48
1, 92386, Note_on_c, 0, 75, 54
1, 92390, Note_on_c, 0, 62, 45
1, 92450, Note_on_c, 0, 62, 0
1, 92466, Note_on_c, 0, 67, 0
1, 92474, Note_on_c, 0, 58, 0
1, 92474, Note_on_c, 0, 63, 0
1, 92474, Note_on_c, 0, 75, 0
1, 92478, Note_on_c, 0, 87, 0
1, 92530, Note_on_c, 9, 40, 0
1, 92530, Note_on_c, 9, 44, 56
1, 92542, Note_on_c, 9, 40, 55
1, 92570, Note_on_c, 0, 67, 53
1, 92574, Note_on_c, 0, 58, 44
1, 92574, Note_on_c, 0, 87, 61
1, 92578, Note_on_c, 9, 44, 0
1, 92578, Note_on_c, 0, 63, 45
1, 92586, Note_on_c, 0, 75, 47
1, 92586, Note_on_c, 0, 62, 46
1, 92658, Note_on_c, 0, 62, 0
1, 92658, Note_on_c, 0, 75, 0
1, 92658, Note_on_c, 0, 67, 0
1, 92662, Note_on_c, 0, 58, 0
1, 92666, Note_on_c, 0, 87, 0
1, 92678, Note_on_c, 0, 63, 0
1, 92758, Note_on_c, 0, 58, 52
1, 92762, Note_on_c, 0, 87, 57
1, 92766, Note_on_c, 0, 67, 45
1, 92778, Note_on_c, 0, 75, 39
1, 92782, Note_on_c, 0, 63, 39
1, 92806, Note_on_c, 0, 63, 0
1, 92810, Note_on_c, 0, 67, 0
1, 92826, Note_on_c, 0, 75, 0
1, 92830, Note_on_c, 0, 87, 0
1, 92836, Note_on_c, 9, 35, 30
1, 92850, Note_on_c, 0, 58, 0
1, 92882, Note_on_c, 9, 35, 0
1, 92914, Note_on_c, 9, 40, 0
1, 92914, Control_c, 0, 64, 0
1, 92930, Note_on_c, 9, 40, 57
1, 92932, Note_on_c, 9, 35, 36
1, 92932, Note_on_c, 9, 59, 34
1, 92942, Note_on_c, 0, 87, 61
1, 92942, Note_on_c, 1, 41, 109
1, 92950, Note_on_c, 0, 67, 52
1, 92954, Note_on_c, 1, 36, 0
1, 92954, Note_on_c, 0, 63, 47
1, 92958, Note_on_c, 9, 35, 0
1, 92958, Note_on_c, 0, 75, 50
1, 92958, Note_on_c, 0, 57, 46
1, 92964, Note_on_c, 9, 59, 0
1, 92966, Control_c, 0, 64, 127
1, 93050, Note_on_c, 0, 87, 0
1, 93094, Note_on_c, 0, 57, 0
1, 93094, Note_on_c, 0, 75, 0
1, 93118, Note_on_c, 0, 67, 0
1, 93122, Note_on_c, 9, 59, 38
1, 93122, Note_on_c, 9, 35, 32
1, 93158, Note_on_c, 0, 57, 50
1, 93166, Note_on_c, 9, 59, 0
1, 93170, Note_on_c, 9, 35, 0
1, 93186, Note_on_c, 0, 63, 0
1, 93274, Note_on_c, 0, 57, 0
1, 93298, Note_on_c, 9, 40, 0
1, 93298, Note_on_c, 9, 46, 25
1, 93306, Note_on_c, 9, 40, 65
1, 93346, Note_on_c, 9, 46, 0
1, 93354, Note_on_c, 0, 62, 98
1, 93426, Note_on_c, 0, 62, 0
1, 93454, Note_on_c, 0, 62, 82
1, 93510, Note_on_c, 0, 62, 0
1, 93530, Note_on_c, 0, 64, 81
1, 93582, Note_on_c, 0, 64, 0
1, 93666, Note_on_c, 1, 34, 75
1, 93682, Note_on_c, 9, 40, 0
1, 93684, Note_on_c, 9, 40, 77
1, 93686, Note_on_c, 1, 34, 0
1, 93686, Control_c, 0, 64, 0
1, 93690, Note_on_c, 9, 40, 62
1, 93710, Note_on_c, 0, 67, 59
1, 93710, Note_on_c, 0, 59, 60
1, 93710, Note_on_c, 0, 62, 58
1, 93710, Note_on_c, 0, 43, 49
1, 93710, Note_on_c, 0, 50, 47
1, 93710, Note_on_c, 1, 38, 118
1, 93718, Note_on_c, 1, 41, 0
1, 93722, Note_on_c, 0, 52, 39
1, 93722, Note_on_c, 0, 64, 48
1, 93750, Note_on_c, 0, 50, 0
1, 93838, Note_on_c, 0, 67, 0
1, 93862, Note_on_c, 0, 52, 0
1, 93882, Note_on_c, 0, 59, 0
1, 93886, Control_c, 0, 64, 127
1, 93890, Note_on_c, 0, 64, 0
1, 93918, Note_on_c, 0, 67, 62
1, 93918, Note_on_c, 0, 59, 70
1, 93930, Note_on_c, 0, 52, 41
1, 93934, Note_on_c, 0, 64, 22
1, 94010, Note_on_c, 0, 62, 0
1, 94058, Note_on_c, 0, 59, 0
1, 94066, Note_on_c, 9, 40, 0
1, 94066, Note_on_c, 0, 67, 0
1, 94066, Note_on_c, 9, 40, 0
1, 94066, Note_on_c, 9, 44, 69
1, 94072, Note_on_c, 9, 40, 72
1, 94074, Note_on_c, 0, 64, 0
1, 94078, Note_on_c, 0, 43, 0
1, 94086, Note_on_c, 0, 52, 0
1, 94106, Note_on_c, 0, 50, 31
1, 94110, Note_on_c, 0, 62, 67
1, 94134, Note_on_c, 0, 50, 0
1, 94174, Note_on_c, 9, 44, 0
1, 94254, Note_on_c, 0, 62, 0
1, 94254, Note_on_c, 9, 39, 62
1, 94258, Note_on_c, 1, 37, 112
1, 94282, Note_on_c, 1, 38, 0
1, 94282, Note_on_c, 0, 64, 66
1, 94410, Note_on_c, 0, 64, 0
1, 94430, Note_on_c, 9, 39, 0
1, 94446, Note_on_c, 1, 37, 0
1, 94446, Note_on_c, 9, 40, 62
1, 94450, Note_on_c, 9, 40, 0
1, 94458, Control_c, 0, 64, 0
1, 94458, Note_on_c, 1, 36, 118
1, 94474, Note_on_c, 0, 58, 54
1, 94478, Note_on_c, 0, 67, 48
1, 94478, Note_on_c, 0, 55, 38
1, 94482, Note_on_c, 0, 48, 43
1, 94486, Note_on_c, 0, 62, 47
1, 94490, Note_on_c, 0, 64, 28
1, 94538, Control_c, 0, 64, 127
1, 94582, Note_on_c, 0, 64, 0
1, 94590, Note_on_c, 0, 67, 0
1, 94594, Note_on_c, 0, 58, 0
1, 94606, Note_on_c, 0, 62, 0
1, 94790, Note_on_c, 0, 55, 0
1, 94798, Note_on_c, 0, 48, 0
1, 94834, Note_on_c, 9, 40, 0
1, 94834, Note_on_c, 9, 44, 53
1, 94836, Note_on_c, 9, 40, 60
1, 94846, Note_on_c, 0, 67, 115
1, 94914, Note_on_c, 0, 67, 0
1, 94926, Note_on_c, 9, 44, 0
1, 94950, Note_on_c, 0, 67, 81
1, 95014, Note_on_c, 1, 36, 0
1, 95018, Note_on_c, 0, 67, 0
1, 95022, Note_on_c, 1, 35, 111
1, 95034, Note_on_c, 0, 69, 85
1, 95094, Note_on_c, 0, 69, 0
1, 95140, Note_on_c, 9, 35, 48
1, 95156, Note_on_c, 9, 35, 0
1, 95202, Note_on_c, 1, 35, 0
1, 95210, Note_on_c, 1, 34, 115
1, 95218, Note_on_c, 9, 40, 0
1, 95218, Note_on_c, 9, 59, 40
1, 95218, Note_on_c, 9, 40, 55
1, 95220, Note_on_c, 9, 35, 35
1, 95222, Note_on_c, 0, 46, 56
1, 95226, Note_on_c, 0, 70, 83
1, 95226, Note_on_c, 0, 65, 82
1, 95226, Note_on_c, 0, 56, 52
1, 95230, Note_on_c, 0, 62, 79
1, 95238, Control_c, 0, 64, 0
1, 95268, Note_on_c, 9, 59, 0
1, 95278, Note_on_c, 9, 35, 0
1, 95358, Note_on_c, 0, 70, 0
1, 95362, Control_c, 0, 64, 127
1, 95390, Note_on_c, 0, 62, 0
1, 95410, Note_on_c, 0, 65, 0
1, 95426, Note_on_c, 0, 70, 85
1, 95430, Note_on_c, 0, 62, 77
1, 95450, Note_on_c, 0, 68, 31
1, 95474, Note_on_c, 0, 68, 0
1, 95558, Note_on_c, 0, 62, 0
1, 95594, Note_on_c, 0, 70, 0
1, 95602, Note_on_c, 9, 40, 0
1, 95602, Note_on_c, 9, 44, 71
1, 95608, Note_on_c, 9, 40, 52
1, 95618, Note_on_c, 0, 56, 0
1, 95618, Note_on_c, 0, 65, 82
1, 95650, Note_on_c, 0, 46, 0
1, 95666, Note_on_c, 9, 44, 0
1, 95766, Note_on_c, 0, 65, 0
1, 95794, Note_on_c, 1, 33, 109
1, 95798, Note_on_c, 1, 34, 0
1, 95806, Note_on_c, 0, 67, 81
1, 95906, Note_on_c, 0, 67, 0
1, 95938, Note_on_c, 0, 39, 58
1, 95970, Note_on_c, 0, 46, 56
1, 95982, Note_on_c, 0, 39, 0
1, 95986, Note_on_c, 9, 40, 0
1, 95988, Note_on_c, 9, 40, 67
1, 95994, Note_on_c, 1, 39, 111
1, 95998, Control_c, 0, 64, 0
1, 96002, Note_on_c, 9, 35, 32
1, 96014, Note_on_c, 1, 33, 0
1, 96018, Note_on_c, 0, 61, 79
1, 96018, Note_on_c, 0, 65, 85
1, 96018, Note_on_c, 0, 70, 85
1, 96030, Note_on_c, 9, 35, 0
1, 96030, Note_on_c, 0, 55, 76
1, 96046, Note_on_c, 0, 49, 26
1, 96062, Note_on_c, 0, 49, 0
1, 96066, Control_c, 0, 64, 127
1, 96196, Note_on_c, 9, 35, 35
1, 96262, Note_on_c, 0, 61, 0
1, 96274, Note_on_c, 0, 65, 0
1, 96278, Note_on_c, 0, 70, 0
1, 96290, Note_on_c, 9, 35, 0
1, 96342, Note_on_c, 0, 55, 0
1, 96346, Note_on_c, 0, 46, 0
1, 96366, Note_on_c, 9, 40, 65
1, 96370, Note_on_c, 9, 40, 0
1, 96370, Note_on_c, 9, 46, 55
1, 96398, Note_on_c, 9, 46, 0
1, 96418, Note_on_c, 0, 72, 115
1, 96510, Note_on_c, 0, 72, 0
1, 96516, Note_on_c, 9, 35, 60
1, 96542, Note_on_c, 9, 35, 0
1, 96582, Note_on_c, 1, 39, 0
1, 96594, Note_on_c, 9, 35, 47
1, 96594, Note_on_c, 9, 59, 26
1, 96610, Note_on_c, 9, 59, 0
1, 96612, Note_on_c, 9, 35, 0
1, 96734, Note_on_c, 9, 40, 70
1, 96754, Note_on_c, 9, 40, 0
1, 96754, Note_on_c, 1, 33, 90
1, 96758, Control_c, 0, 64, 0
1, 96790, Note_on_c, 0, 67, 111
1, 96794, Note_on_c, 0, 74, 98
1, 96794, Note_on_c, 0, 45, 69
1, 96802, Note_on_c, 0, 55, 70
1, 96830, Control_c, 0, 64, 127
1, 96878, Note_on_c, 0, 45, 0
1, 96902, Note_on_c, 0, 67, 0
1, 96906, Note_on_c, 0, 55, 0
1, 96938, Note_on_c, 0, 74, 0
1, 97138, Note_on_c, 9, 40, 0
1, 97246, Note_on_c, 0, 86, 75
1, 97246, Note_on_c, 0, 64, 56
1, 97246, Note_on_c, 0, 55, 50
1, 97246, Note_on_c, 0, 81, 73
1, 97250, Note_on_c, 0, 74, 59
1, 97254, Note_on_c, 0, 60, 51
1, 97258, Note_on_c, 0, 57, 48
1, 97406, Note_on_c, 0, 60, 0
1, 97406, Note_on_c, 0, 64, 0
1, 97422, Note_on_c, 0, 57, 0
1, 97434, Note_on_c, 0, 55, 0
1, 97438, Note_on_c, 0, 81, 0
1, 97442, Note_on_c, 0, 86, 0
1, 97482, Note_on_c, 0, 74, 0
1, 97682, Note_on_c, 0, 82, 62
1, 97690, Note_on_c, 0, 60, 53
1, 97694, Note_on_c, 0, 72, 49
1, 97694, Note_on_c, 0, 54, 47
1, 97694, Note_on_c, 0, 76, 69
1, 97698, Note_on_c, 0, 50, 49
1, 97706, Control_c, 0, 64, 0
1, 97770, Control_c, 0, 64, 127
1, 97898, Note_on_c, 0, 76, 0
1, 97906, Note_on_c, 1, 33, 0
1, 97914, Note_on_c, 0, 82, 0
1, 97946, Note_on_c, 0, 72, 0
1, 97966, Note_on_c, 0, 60, 0
1, 98214, Note_on_c, 0, 66, 55
1, 98218, Note_on_c, 0, 60, 49
1, 98218, Note_on_c, 0, 72, 61
1, 98322, Note_on_c, 0, 60, 0
1, 98358, Note_on_c, 0, 54, 0
1, 98362, Note_on_c, 0, 72, 0
1, 98366, Note_on_c, 0, 50, 0
1, 98406, Note_on_c, 0, 66, 0
1, 98622, System_exclusive, 9, 67, 16, 76, 3, 1, 0, 64, 0, 247
1, 99142, Control_c, 0, 64, 0
1, 99142, Note_on_c, 0, 67, 79
1, 99142, Note_on_c, 0, 60, 80
1, 99146, Note_on_c, 0, 55, 79
1, 99146, Note_on_c, 0, 62, 75
1, 99150, Note_on_c, 0, 39, 82
1, 99222, Control_c, 0, 64, 127
1, 99266, Note_on_c, 0, 55, 0
1, 99310, Note_on_c, 0, 60, 0
1, 99314, Note_on_c, 0, 62, 0
1, 99338, Note_on_c, 0, 67, 0
1, 99350, Note_on_c, 0, 46, 76
1, 99354, Note_on_c, 0, 39, 0
1, 99470, Note_on_c, 0, 46, 0
1, 99494, Note_on_c, 0, 55, 59
1, 99494, Note_on_c, 0, 62, 82
1, 99582, Note_on_c, 0, 62, 0
1, 99610, Note_on_c, 0, 67, 80
1, 99618, Note_on_c, 0, 58, 54
1, 99642, Note_on_c, 0, 55, 0
1, 99690, Note_on_c, 0, 67, 0
1, 99710, Note_on_c, 0, 69, 84
1, 99758, Note_on_c, 0, 62, 31
1, 99770, System_exclusive, 9, 67, 16, 76, 3, 1, 0, 64, 0, 247
1, 99778, Note_on_c, 0, 69, 0
1, 99794, Note_on_c, 0, 70, 80
1, 99846, Note_on_c, 0, 70, 0
1, 99874, Note_on_c, 0, 72, 86
1, 99878, Note_on_c, 0, 67, 68
1, 99930, Note_on_c, 0, 72, 0
1, 99946, Note_on_c, 0, 74, 85
1, 100018, Note_on_c, 0, 75, 85
1, 100030, Note_on_c, 0, 74, 0
1, 100062, Note_on_c, 0, 75, 0
1, 100074, Note_on_c, 0, 67, 0
1, 100074, Note_on_c, 0, 77, 85
1, 100138, Note_on_c, 0, 79, 77
1, 100142, Note_on_c, 0, 77, 0
1, 100182, System_exclusive, 9, 67, 16, 76, 3, 1, 0, 64, 0, 247
1, 100210, Note_on_c, 0, 82, 85
1, 100226, Note_on_c, 0, 79, 0
1, 100270, Note_on_c, 0, 82, 0
1, 100294, Note_on_c, 0, 84, 81
1, 100354, Note_on_c, 0, 84, 0
1, 100366, Note_on_c, 0, 86, 85
1, 100426, Note_on_c, 0, 86, 0
1, 100442, Note_on_c, 0, 87, 82
1, 100474, Note_on_c, 0, 87, 0
1, 100510, Note_on_c, 0, 89, 80
1, 100578, Note_on_c, 0, 89, 0
1, 100590, Note_on_c, 0, 91, 75
1, 100654, Note_on_c, 0, 91, 0
1, 100670, Note_on_c, 0, 94, 63
1, 100714, Note_on_c, 0, 94, 0
1, 100758, Note_on_c, 0, 96, 74
1, 100774, Note_on_c, 0, 55, 54
1, 100782, Note_on_c, 0, 62, 0
1, 100854, Note_on_c, 0, 96, 0
1, 100854, Note_on_c, 0, 98, 70
1, 100866, Note_on_c, 0, 58, 0
1, 100910, Note_on_c, 0, 98, 0
1, 100938, Note_on_c, 0, 99, 64
1, 100990, Note_on_c, 0, 99, 0
1, 101026, Note_on_c, 0, 101, 71
1, 101094, Note_on_c, 0, 101, 0
1, 101122, Note_on_c, 0, 103, 67
1, 101146, Note_on_c, 0, 65, 35
1, 101146, Note_on_c, 0, 60, 46
1, 101222, Note_on_c, 0, 103, 0
1, 101230, Note_on_c, 0, 105, 75
1, 101302, Note_on_c, 0, 105, 0
1, 101338, Note_on_c, 0, 65, 0
1, 101342, Note_on_c, 0, 106, 68
1, 101378, Note_on_c, 0, 60, 0
1, 101398, Note_on_c, 0, 55, 0
1, 101446, Note_on_c, 0, 106, 0
1, 101466, Note_on_c, 0, 108, 69
1, 101618, Note_on_c, 0, 103, 46
1, 101646, Note_on_c, 0, 108, 0
1, 101650, Note_on_c, 0, 105, 49
1, 101678, Note_on_c, 0, 105, 0
1, 101802, Note_on_c, 0, 105, 75
1, 101810, Note_on_c, 0, 103, 0
1, 101906, Note_on_c, 0, 105, 0
1, 101942, Note_on_c, 0, 106, 55
1, 102086, Note_on_c, 0, 106, 0
1, 102094, Note_on_c, 0, 108, 60
1, 102238, Note_on_c, 0, 108, 0
1, 102306, Control_c, 0, 64, 0
1, 102318, Note_on_c, 0, 107, 63
1, 102326, Note_on_c, 0, 31, 46
1, 102354, Control_c, 0, 64, 127
1, 102382, Note_on_c, 0, 31, 0
1, 102386, Note_on_c, 0, 107, 0
1, 102646, Note_on_c, 0, 81, 72
1, 102654, Note_on_c, 0, 78, 63
1, 102666, Note_on_c, 0, 74, 68
1, 102666, Note_on_c, 0, 66, 56
1, 102686, Note_on_c, 0, 71, 46
1, 102722, Note_on_c, 0, 66, 0
1, 102722, Note_on_c, 0, 74, 0
1, 102730, Note_on_c, 0, 81, 0
1, 102734, Note_on_c, 0, 78, 0
1, 102758, Note_on_c, 0, 71, 0
1, 102854, Note_on_c, 0, 78, 63
1, 102870, Note_on_c, 0, 71, 55
1, 102878, Note_on_c, 0, 69, 56
1, 102878, Note_on_c, 0, 62, 47
1, 102878, Note_on_c, 0, 74, 32
1, 102894, Note_on_c, 0, 62, 0
1, 102902, Note_on_c, 0, 74, 0
1, 102906, Note_on_c, 0, 78, 0
1, 102906, Note_on_c, 0, 71, 0
1, 102930, Note_on_c, 0, 69, 0
1, 103050, Note_on_c, 0, 66, 61
1, 103058, Note_on_c, 0, 74, 48
1, 103058, Note_on_c, 0, 59, 46
1, 103074, Note_on_c, 0, 74, 0
1, 103078, Note_on_c, 0, 59, 0
1, 103106, Note_on_c, 0, 66, 0
1, 103258, Note_on_c, 0, 71, 44
1, 103258, Note_on_c, 0, 62, 51
1, 103258, Note_on_c, 0, 66, 48
1, 103258, Note_on_c, 0, 54, 46
1, 103278, Note_on_c, 0, 71, 0
1, 103282, Note_on_c, 0, 54, 0
1, 103282, Note_on_c, 0, 66, 0
1, 103302, Note_on_c, 0, 62, 0
1, 103458, Note_on_c, 0, 66, 55
1, 103470, Note_on_c, 0, 59, 48
1, 103474, Note_on_c, 0, 57, 45
1, 103478, Note_on_c, 0, 66, 0
1, 103478, Note_on_c, 0, 50, 40
1, 103494, Note_on_c, 0, 50, 0
1, 103498, Note_on_c, 0, 59, 0
1, 103522, Note_on_c, 0, 57, 0
1, 103670, Note_on_c, 0, 54, 49
1, 103694, Note_on_c, 0, 54, 0
1, 103882, Note_on_c, 0, 42, 37
1, 103882, Note_on_c, 0, 59, 38
1, 103906, Note_on_c, 0, 59, 0
1, 103914, Note_on_c, 0, 42, 0
1, 104226, Note_on_c, 0, 54, 38
1, 104226, Note_on_c, 0, 50, 48
1, 104226, Note_on_c, 0, 47, 49
1, 104234, Note_on_c, 0, 42, 33
1, 104242, Control_c, 0, 64, 0
1, 104242, Note_on_c, 0, 31, 39
1, 104242, Note_on_c, 0, 45, 35
1, 104318, Control_c, 0, 64, 127
1, 104370, Note_on_c, 0, 45, 0
1, 104382, Note_on_c, 0, 47, 0
1, 104386, Note_on_c, 0, 50, 0
1, 104422, Note_on_c, 0, 31, 0
1, 104422, Note_on_c, 0, 54, 0
1, 104478, Note_on_c, 0, 42, 0
1, 105178, Note_on_c, 0, 95, 55
1, 105190, Note_on_c, 0, 59, 36
1, 105366, Note_on_c, 0, 59, 0
1, 105378, Note_on_c, 0, 95, 0
1, 105378, Note_on_c, 0, 62, 46
1, 105378, Note_on_c, 0, 98, 60
1, 106506, Note_on_c, 0, 98, 0
1, 106586, Note_on_c, 0, 62, 0
1, 106586, End_track
0, 0, End_of_file
