0, 0, Header, 1, 7, 960
1, 0, Start_track
1, 0, Title_t, "My Romance"
1, 0, Text_t, "Rodgers and Hart  dougmck@pipeline.com.au When improvising from about bar 133 I tried to focus on the chord tones with secondary passing/neighbouring tones and  to have the improvised line resolve as much as possible from the 7th of each chord to the3rd \012"
1, 0, Time_signature, 4, 2, 24, 8
1, 0, Key_signature, 0, "major"
1, 0, Tempo, 333333
1, 105600, Marker_t, "Whole Tone Scale - sustain pedal down"
1, 127680, Marker_t, "Beginning on 9th, surround the notes of CMaj7 chord"
1, 144210, Marker_t, "Diatonic 'Fourthy' chords"
1, 161280, Marker_t, "Simple phrase - moves down - uses C Major scale notes"
1, 218880, Marker_t, "Melody Harmonised in 6ths - easy in Key of C"
1, 238126, Marker_t, "Very Common descending phrase on G7 - contains all altered tones #9,b9,b13"
1, 247590, Marker_t, "Arpeggiated accompaniment - using both hands in turn on each chord"
1, 313783, Marker_t, "Locked Hands style"
1, 455610, Marker_t, "Notes of C triad with 2 upper diatonic neighbours"
1, 543030, Marker_t, "Surround tones on 3rd of C7 then 3rd of FMaj7"
1, 628140, Marker_t, "Notes of C Maj with 2 Lower diatonic neighbours"
1, 628140, End_track
2, 0, Start_track
2, 381, Note_on_c, 0, 76, 66
2, 623, Control_c, 0, 64, 127
2, 1161, Note_on_c, 0, 77, 71
2, 1164, Note_on_c, 0, 76, 0
2, 2086, Note_on_c, 0, 77, 0
2, 2218, Note_on_c, 0, 79, 55
2, 2256, Note_on_c, 0, 67, 34
2, 2282, Note_on_c, 0, 62, 26
2, 2291, Note_on_c, 0, 64, 40
2, 2409, Control_c, 0, 64, 0
2, 3133, Control_c, 0, 64, 127
2, 3688, Note_on_c, 0, 67, 0
2, 4468, Note_on_c, 0, 55, 36
2, 4584, Note_on_c, 0, 79, 0
2, 6210, Note_on_c, 0, 91, 94
2, 7340, Note_on_c, 0, 62, 0
2, 7357, Note_on_c, 0, 64, 0
2, 7676, Note_on_c, 0, 55, 0
2, 10075, Note_on_c, 0, 89, 62
2, 10213, Note_on_c, 0, 91, 0
2, 11049, Note_on_c, 0, 88, 63
2, 11078, Note_on_c, 0, 89, 0
2, 12120, Note_on_c, 0, 88, 0
2, 12149, Note_on_c, 0, 41, 40
2, 12163, Note_on_c, 0, 86, 59
2, 12198, Control_c, 0, 64, 0
2, 12774, Control_c, 0, 64, 127
2, 13123, Note_on_c, 0, 86, 0
2, 13362, Note_on_c, 0, 48, 33
2, 14574, Note_on_c, 0, 71, 42
2, 14706, Note_on_c, 0, 67, 29
2, 14847, Note_on_c, 0, 57, 32
2, 15081, Note_on_c, 0, 62, 5
2, 16665, Note_on_c, 0, 62, 0
2, 17031, Note_on_c, 0, 62, 24
2, 17034, Note_on_c, 0, 67, 0
2, 17083, Note_on_c, 0, 71, 0
2, 18042, Note_on_c, 0, 62, 0
2, 18146, Note_on_c, 0, 41, 0
2, 18212, Note_on_c, 0, 64, 74
2, 18328, Note_on_c, 0, 48, 0
2, 18411, Note_on_c, 0, 57, 0
2, 18665, Note_on_c, 0, 64, 0
2, 18947, Note_on_c, 0, 65, 92
2, 19586, Note_on_c, 0, 65, 0
2, 19701, Note_on_c, 0, 52, 54
2, 19712, Note_on_c, 0, 67, 81
2, 19729, Control_c, 0, 64, 0
2, 20338, Control_c, 0, 64, 127
2, 20479, Note_on_c, 0, 67, 0
2, 20577, Note_on_c, 0, 62, 55
2, 20592, Note_on_c, 0, 69, 80
2, 20891, Note_on_c, 0, 52, 0
2, 21320, Note_on_c, 0, 62, 0
2, 22488, Note_on_c, 0, 69, 0
2, 23658, Control_c, 0, 64, 0
2, 23664, Note_on_c, 0, 71, 60
2, 23675, Note_on_c, 0, 66, 55
2, 23695, Note_on_c, 0, 63, 45
2, 23727, Note_on_c, 0, 59, 45
2, 23730, Note_on_c, 0, 60, 43
2, 24320, Control_c, 0, 64, 127
2, 24591, Note_on_c, 0, 60, 0
2, 24660, Note_on_c, 0, 71, 0
2, 24715, Note_on_c, 0, 66, 0
2, 24721, Note_on_c, 0, 63, 0
2, 25492, Note_on_c, 0, 66, 47
2, 25498, Note_on_c, 0, 59, 0
2, 25504, Note_on_c, 0, 72, 33
2, 25510, Note_on_c, 0, 63, 43
2, 25590, Control_c, 0, 64, 0
2, 25602, Note_on_c, 0, 57, 33
2, 26025, Control_c, 0, 64, 127
2, 26463, Note_on_c, 0, 63, 0
2, 26687, Note_on_c, 0, 72, 0
2, 26874, Note_on_c, 0, 66, 0
2, 27061, Control_c, 0, 64, 0
2, 27107, Note_on_c, 0, 57, 0
2, 27173, Note_on_c, 0, 65, 51
2, 27179, Note_on_c, 0, 72, 35
2, 27217, Note_on_c, 0, 69, 47
2, 27243, Note_on_c, 0, 61, 32
2, 27640, Control_c, 0, 64, 127
2, 28102, Note_on_c, 0, 65, 0
2, 28108, Note_on_c, 0, 69, 0
2, 28261, Note_on_c, 0, 72, 0
2, 28562, Note_on_c, 0, 61, 0
2, 28916, Note_on_c, 0, 76, 65
2, 28939, Note_on_c, 0, 69, 70
2, 28953, Note_on_c, 0, 65, 58
2, 28965, Note_on_c, 0, 64, 46
2, 29022, Control_c, 0, 64, 0
2, 29573, Control_c, 0, 64, 127
2, 30291, Note_on_c, 0, 76, 0
2, 30343, Note_on_c, 0, 69, 0
2, 30426, Note_on_c, 0, 65, 0
2, 30700, Control_c, 0, 64, 0
2, 30726, Note_on_c, 0, 69, 60
2, 30734, Note_on_c, 0, 65, 48
2, 30749, Note_on_c, 0, 74, 51
2, 30766, Note_on_c, 0, 64, 0
2, 30789, Note_on_c, 0, 62, 41
2, 31164, Control_c, 0, 64, 127
2, 31845, Note_on_c, 0, 62, 0
2, 31958, Note_on_c, 0, 69, 0
2, 31960, Note_on_c, 0, 74, 0
2, 32107, Note_on_c, 0, 65, 0
2, 33222, Note_on_c, 0, 62, 39
2, 33225, Note_on_c, 0, 71, 46
2, 33250, Note_on_c, 0, 65, 44
2, 33270, Note_on_c, 0, 68, 34
2, 33296, Control_c, 0, 64, 0
2, 33311, Note_on_c, 0, 59, 31
2, 33845, Control_c, 0, 64, 127
2, 34524, Note_on_c, 0, 59, 0
2, 35532, Note_on_c, 0, 65, 0
2, 35650, Note_on_c, 0, 68, 0
2, 35696, Note_on_c, 0, 62, 0
2, 35921, Note_on_c, 0, 71, 0
2, 38780, Note_on_c, 0, 67, 67
2, 39926, Note_on_c, 0, 67, 0
2, 40433, Note_on_c, 0, 36, 57
2, 40525, Note_on_c, 0, 43, 24
2, 40732, Note_on_c, 0, 56, 27
2, 40804, Control_c, 0, 64, 0
2, 40893, Note_on_c, 0, 59, 57
2, 40994, Note_on_c, 0, 52, 29
2, 41089, Note_on_c, 0, 64, 39
2, 41144, Note_on_c, 0, 67, 57
2, 41958, Control_c, 0, 64, 127
2, 42180, Note_on_c, 0, 59, 0
2, 42194, Note_on_c, 0, 56, 0
2, 42298, Note_on_c, 0, 64, 0
2, 42428, Note_on_c, 0, 67, 0
2, 43132, Note_on_c, 0, 76, 54
2, 43201, Note_on_c, 0, 36, 0
2, 43362, Note_on_c, 0, 43, 0
2, 43556, Note_on_c, 0, 52, 0
2, 44414, Note_on_c, 0, 71, 53
2, 44440, Note_on_c, 0, 76, 0
2, 44460, Note_on_c, 0, 68, 28
2, 44463, Note_on_c, 0, 64, 41
2, 44489, Note_on_c, 0, 56, 32
2, 44892, Note_on_c, 0, 64, 0
2, 45183, Note_on_c, 0, 68, 0
2, 45197, Note_on_c, 0, 71, 0
2, 45520, Note_on_c, 0, 62, 29
2, 46241, Note_on_c, 0, 79, 54
2, 46607, Note_on_c, 0, 56, 0
2, 46837, Note_on_c, 0, 79, 0
2, 46903, Note_on_c, 0, 88, 83
2, 47372, Note_on_c, 0, 88, 0
2, 47649, Control_c, 0, 64, 0
2, 47649, Note_on_c, 0, 56, 37
2, 47654, Note_on_c, 0, 91, 82
2, 47721, Note_on_c, 0, 62, 0
2, 48645, Note_on_c, 0, 62, 36
2, 48690, Note_on_c, 0, 89, 66
2, 48802, Control_c, 0, 64, 127
2, 48903, Note_on_c, 0, 91, 0
2, 49695, Control_c, 0, 64, 0
2, 49868, Note_on_c, 0, 83, 30
2, 49894, Note_on_c, 0, 67, 35
2, 50326, Control_c, 0, 64, 127
2, 50456, Note_on_c, 0, 89, 0
2, 51174, Note_on_c, 0, 88, 71
2, 52012, Note_on_c, 0, 67, 0
2, 52101, Note_on_c, 0, 83, 0
2, 52147, Note_on_c, 0, 86, 70
2, 52185, Note_on_c, 0, 62, 0
2, 52392, Note_on_c, 0, 56, 0
2, 52881, Note_on_c, 0, 86, 0
2, 52913, Note_on_c, 0, 83, 55
2, 52933, Note_on_c, 0, 88, 0
2, 53478, Control_c, 0, 64, 0
2, 53705, Note_on_c, 0, 45, 44
2, 53780, Note_on_c, 0, 84, 75
2, 53783, Note_on_c, 0, 83, 0
2, 54082, Control_c, 0, 64, 127
2, 54143, Note_on_c, 0, 45, 0
2, 54987, Note_on_c, 0, 81, 36
2, 55030, Note_on_c, 0, 64, 29
2, 55143, Note_on_c, 0, 60, 35
2, 55272, Note_on_c, 0, 84, 0
2, 55330, Note_on_c, 0, 59, 7
2, 56075, Note_on_c, 0, 83, 69
2, 56159, Note_on_c, 0, 81, 0
2, 56487, Note_on_c, 0, 59, 0
2, 56493, Note_on_c, 0, 60, 0
2, 56536, Note_on_c, 0, 64, 0
2, 57020, Note_on_c, 0, 84, 80
2, 57169, Note_on_c, 0, 83, 0
2, 57723, Note_on_c, 0, 84, 0
2, 57896, Control_c, 0, 64, 0
2, 57927, Note_on_c, 0, 84, 70
2, 57936, Note_on_c, 0, 56, 36
2, 58791, Note_on_c, 0, 86, 74
2, 58814, Note_on_c, 0, 62, 35
2, 58874, Control_c, 0, 64, 127
2, 59009, Note_on_c, 0, 84, 0
2, 59578, Note_on_c, 0, 86, 0
2, 60073, Note_on_c, 0, 86, 67
2, 60107, Note_on_c, 0, 67, 36
2, 61005, Note_on_c, 0, 86, 0
2, 61163, Note_on_c, 0, 67, 0
2, 61371, Note_on_c, 0, 62, 0
2, 61432, Note_on_c, 0, 88, 62
2, 61467, Note_on_c, 0, 56, 0
2, 63696, Control_c, 0, 64, 0
2, 63724, Note_on_c, 0, 83, 40
2, 63868, Note_on_c, 0, 33, 24
2, 64156, Control_c, 0, 64, 127
2, 64430, Note_on_c, 0, 33, 0
2, 64922, Note_on_c, 0, 88, 0
2, 65780, Note_on_c, 0, 64, 17
2, 65803, Note_on_c, 0, 60, 30
2, 65840, Note_on_c, 0, 59, 24
2, 66408, Note_on_c, 0, 59, 0
2, 66474, Note_on_c, 0, 60, 0
2, 66610, Note_on_c, 0, 64, 0
2, 67215, Note_on_c, 0, 64, 39
2, 67255, Note_on_c, 0, 60, 46
2, 67264, Note_on_c, 0, 59, 40
2, 67667, Note_on_c, 0, 59, 0
2, 67739, Note_on_c, 0, 60, 0
2, 67799, Note_on_c, 0, 64, 0
2, 68592, Note_on_c, 0, 64, 40
2, 68603, Note_on_c, 0, 60, 47
2, 68758, Note_on_c, 0, 64, 0
2, 68874, Note_on_c, 0, 60, 0
2, 70809, Note_on_c, 0, 21, 75
2, 70941, Control_c, 0, 64, 0
2, 71375, Control_c, 0, 64, 127
2, 71885, Note_on_c, 0, 21, 0
2, 72913, Note_on_c, 0, 83, 0
2, 74598, Note_on_c, 0, 61, 67
2, 74607, Note_on_c, 0, 101, 81
2, 74613, Note_on_c, 0, 66, 79
2, 74616, Note_on_c, 0, 89, 81
2, 74619, Note_on_c, 0, 55, 78
2, 74639, Note_on_c, 0, 96, 66
2, 76529, Note_on_c, 0, 101, 0
2, 76722, Note_on_c, 0, 96, 0
2, 76774, Note_on_c, 0, 89, 0
2, 76889, Note_on_c, 0, 100, 83
2, 77588, Note_on_c, 0, 66, 0
2, 77889, Note_on_c, 0, 100, 0
2, 78177, Note_on_c, 0, 99, 86
2, 78850, Note_on_c, 0, 61, 0
2, 78885, Note_on_c, 0, 55, 0
2, 79057, Note_on_c, 0, 99, 0
2, 79204, Note_on_c, 0, 98, 82
2, 79775, Note_on_c, 0, 98, 0
2, 79908, Note_on_c, 0, 97, 81
2, 80383, Note_on_c, 0, 97, 0
2, 80553, Note_on_c, 0, 96, 71
2, 81010, Note_on_c, 0, 96, 0
2, 81246, Note_on_c, 0, 93, 81
2, 81823, Control_c, 0, 64, 0
2, 81895, Note_on_c, 0, 93, 0
2, 81904, Note_on_c, 0, 50, 33
2, 81967, Note_on_c, 0, 89, 53
2, 82004, Note_on_c, 0, 57, 32
2, 82019, Note_on_c, 0, 65, 48
2, 82405, Control_c, 0, 64, 127
2, 82594, Note_on_c, 0, 89, 0
2, 82651, Note_on_c, 0, 88, 64
2, 83144, Note_on_c, 0, 88, 0
2, 83210, Note_on_c, 0, 50, 0
2, 83282, Note_on_c, 0, 91, 79
2, 83302, Note_on_c, 0, 57, 0
2, 83626, Note_on_c, 0, 65, 0
2, 83914, Note_on_c, 0, 88, 72
2, 83955, Note_on_c, 0, 91, 0
2, 84480, Note_on_c, 0, 88, 0
2, 84583, Note_on_c, 0, 89, 74
2, 85305, Note_on_c, 0, 89, 0
2, 85334, Note_on_c, 0, 84, 61
2, 86040, Note_on_c, 0, 84, 0
2, 86138, Note_on_c, 0, 88, 74
2, 86942, Note_on_c, 0, 87, 71
2, 87141, Note_on_c, 0, 88, 0
2, 87639, Note_on_c, 0, 87, 0
2, 87814, Note_on_c, 0, 86, 61
2, 87875, Note_on_c, 0, 64, 34
2, 87895, Note_on_c, 0, 59, 42
2, 87915, Note_on_c, 0, 53, 25
2, 88053, Control_c, 0, 64, 0
2, 89092, Note_on_c, 0, 81, 45
2, 89268, Control_c, 0, 64, 127
2, 90055, Note_on_c, 0, 86, 0
2, 90133, Note_on_c, 0, 84, 68
2, 90153, Note_on_c, 0, 81, 0
2, 90921, Note_on_c, 0, 81, 58
2, 91168, Note_on_c, 0, 84, 0
2, 91785, Note_on_c, 0, 81, 0
2, 91883, Note_on_c, 0, 83, 66
2, 92583, Note_on_c, 0, 86, 87
2, 92727, Note_on_c, 0, 83, 0
2, 93085, Note_on_c, 0, 86, 0
2, 93471, Note_on_c, 0, 89, 96
2, 94669, Note_on_c, 0, 64, 0
2, 94747, Note_on_c, 0, 59, 0
2, 94833, Note_on_c, 0, 53, 0
2, 94842, Note_on_c, 0, 88, 70
2, 95026, Note_on_c, 0, 89, 0
2, 95565, Note_on_c, 0, 87, 71
2, 95567, Note_on_c, 0, 88, 0
2, 96021, Note_on_c, 0, 87, 0
2, 96199, Control_c, 0, 64, 0
2, 96245, Note_on_c, 0, 88, 60
2, 96291, Note_on_c, 0, 59, 34
2, 96294, Note_on_c, 0, 62, 32
2, 96340, Note_on_c, 0, 55, 36
2, 96352, Note_on_c, 0, 52, 29
2, 97276, Note_on_c, 0, 83, 57
2, 97381, Control_c, 0, 64, 127
2, 97899, Note_on_c, 0, 88, 0
2, 98005, Note_on_c, 0, 83, 0
2, 98040, Note_on_c, 0, 79, 53
2, 98358, Note_on_c, 0, 79, 0
2, 98778, Note_on_c, 0, 76, 49
2, 99597, Note_on_c, 0, 76, 0
2, 99678, Note_on_c, 0, 71, 42
2, 100668, Note_on_c, 0, 71, 0
2, 100728, Note_on_c, 0, 69, 46
2, 100869, Note_on_c, 0, 62, 0
2, 101160, Note_on_c, 0, 59, 0
2, 101175, Note_on_c, 0, 55, 0
2, 101520, Note_on_c, 0, 52, 0
2, 101667, Note_on_c, 0, 69, 0
2, 101759, Note_on_c, 0, 67, 37
2, 102497, Note_on_c, 0, 67, 0
2, 102629, Note_on_c, 0, 65, 37
2, 103511, Note_on_c, 0, 65, 0
2, 103928, Control_c, 0, 64, 0
2, 103999, Note_on_c, 0, 72, 44
2, 104005, Note_on_c, 0, 48, 35
2, 104020, Note_on_c, 0, 64, 50
2, 104688, Control_c, 0, 64, 127
2, 105373, Note_on_c, 0, 64, 0
2, 105900, Note_on_c, 0, 64, 53
2, 105958, Note_on_c, 0, 55, 36
2, 106361, Note_on_c, 0, 72, 0
2, 106638, Note_on_c, 0, 66, 70
2, 106660, Note_on_c, 0, 64, 0
2, 107090, Note_on_c, 0, 68, 63
2, 107222, Note_on_c, 0, 66, 0
2, 107455, Note_on_c, 0, 70, 64
2, 107545, Note_on_c, 0, 68, 0
2, 107660, Note_on_c, 0, 70, 0
2, 107815, Note_on_c, 0, 72, 64
2, 108049, Note_on_c, 0, 72, 0
2, 108150, Note_on_c, 0, 74, 66
2, 108377, Note_on_c, 0, 74, 0
2, 108541, Note_on_c, 0, 76, 79
2, 108858, Note_on_c, 0, 76, 0
2, 108896, Note_on_c, 0, 78, 69
2, 109276, Note_on_c, 0, 80, 55
2, 109368, Note_on_c, 0, 78, 0
2, 109587, Note_on_c, 0, 80, 0
2, 109604, Note_on_c, 0, 82, 43
2, 109702, Note_on_c, 0, 82, 0
2, 109875, Note_on_c, 0, 84, 62
2, 110096, Note_on_c, 0, 84, 0
2, 110269, Note_on_c, 0, 86, 65
2, 110376, Note_on_c, 0, 86, 0
2, 110698, Note_on_c, 0, 88, 51
2, 110917, Note_on_c, 0, 88, 0
2, 111139, Note_on_c, 0, 90, 43
2, 111208, Note_on_c, 0, 55, 0
2, 111340, Note_on_c, 0, 48, 0
2, 111473, Note_on_c, 0, 92, 67
2, 111542, Note_on_c, 0, 90, 0
2, 111758, Note_on_c, 0, 92, 0
2, 111902, Note_on_c, 0, 94, 52
2, 112167, Note_on_c, 0, 94, 0
2, 112409, Note_on_c, 0, 96, 61
2, 112843, Note_on_c, 0, 96, 0
2, 113756, Note_on_c, 0, 103, 24
2, 113958, Note_on_c, 0, 103, 0
2, 113989, Note_on_c, 0, 104, 50
2, 114341, Note_on_c, 0, 104, 0
2, 114387, Note_on_c, 0, 105, 57
2, 114522, Note_on_c, 0, 105, 0
2, 114701, Note_on_c, 0, 106, 50
2, 115095, Note_on_c, 0, 106, 0
2, 115161, Control_c, 0, 64, 0
2, 115187, Note_on_c, 0, 41, 51
2, 115208, Note_on_c, 0, 105, 58
2, 115239, Note_on_c, 0, 57, 41
2, 116274, Note_on_c, 0, 105, 0
2, 116288, Control_c, 0, 64, 127
2, 116732, Note_on_c, 0, 57, 0
2, 116778, Note_on_c, 0, 48, 47
2, 116911, Note_on_c, 0, 41, 0
2, 117443, Note_on_c, 0, 48, 0
2, 117677, Note_on_c, 0, 57, 61
2, 117919, Note_on_c, 0, 57, 0
2, 118426, Note_on_c, 0, 60, 66
2, 119192, Note_on_c, 0, 65, 50
2, 119203, Note_on_c, 0, 64, 51
2, 119497, Note_on_c, 0, 65, 0
2, 119736, Note_on_c, 0, 69, 58
2, 119938, Note_on_c, 0, 64, 0
2, 120076, Note_on_c, 0, 60, 0
2, 120128, Note_on_c, 0, 69, 0
2, 120258, Note_on_c, 0, 72, 61
2, 120649, Note_on_c, 0, 72, 0
2, 120802, Note_on_c, 0, 76, 79
2, 121280, Control_c, 0, 64, 0
2, 121297, Note_on_c, 0, 76, 0
2, 121446, Note_on_c, 0, 79, 68
2, 121457, Note_on_c, 0, 34, 35
2, 121480, Note_on_c, 0, 72, 59
2, 121745, Control_c, 0, 64, 127
2, 121938, Note_on_c, 0, 34, 0
2, 122007, Note_on_c, 0, 72, 0
2, 122130, Note_on_c, 0, 79, 0
2, 122695, Note_on_c, 0, 91, 74
2, 123608, Note_on_c, 0, 91, 0
2, 123988, Note_on_c, 0, 88, 48
2, 124011, Note_on_c, 0, 79, 34
2, 124028, Note_on_c, 0, 84, 42
2, 124178, Note_on_c, 0, 56, 20
2, 125493, Note_on_c, 0, 84, 0
2, 125606, Note_on_c, 0, 62, 27
2, 125623, Note_on_c, 0, 88, 0
2, 125983, Note_on_c, 0, 79, 0
2, 127818, Note_on_c, 0, 62, 0
2, 127856, Note_on_c, 0, 86, 108
2, 127994, Note_on_c, 0, 56, 0
2, 128618, Note_on_c, 0, 85, 58
2, 128829, Note_on_c, 0, 84, 54
2, 128832, Note_on_c, 0, 86, 0
2, 129013, Note_on_c, 0, 85, 0
2, 129215, Note_on_c, 0, 83, 55
2, 129226, Note_on_c, 0, 84, 0
2, 129321, Note_on_c, 0, 67, 34
2, 129335, Control_c, 0, 64, 0
2, 129384, Note_on_c, 0, 64, 32
2, 129422, Note_on_c, 0, 62, 24
2, 129456, Note_on_c, 0, 83, 0
2, 129941, Note_on_c, 0, 79, 47
2, 130053, Note_on_c, 0, 79, 0
2, 130065, Note_on_c, 0, 67, 0
2, 130696, Note_on_c, 0, 76, 45
2, 130863, Note_on_c, 0, 76, 0
2, 131452, Note_on_c, 0, 55, 40
2, 131495, Note_on_c, 0, 77, 40
2, 131691, Note_on_c, 0, 77, 0
2, 132253, Note_on_c, 0, 74, 58
2, 132412, Note_on_c, 0, 74, 0
2, 133018, Note_on_c, 0, 75, 71
2, 133257, Note_on_c, 0, 75, 0
2, 133592, Note_on_c, 0, 76, 69
2, 133865, Note_on_c, 0, 76, 0
2, 134085, Note_on_c, 0, 72, 46
2, 134324, Note_on_c, 0, 72, 0
2, 134580, Note_on_c, 0, 67, 49
2, 134586, Note_on_c, 0, 64, 0
2, 134808, Note_on_c, 0, 67, 0
2, 134885, Note_on_c, 0, 62, 0
2, 135141, Note_on_c, 0, 65, 56
2, 135435, Note_on_c, 0, 65, 0
2, 135726, Note_on_c, 0, 64, 46
2, 135893, Note_on_c, 0, 64, 0
2, 136291, Note_on_c, 0, 65, 66
2, 136570, Note_on_c, 0, 65, 0
2, 136639, Control_c, 0, 64, 127
2, 136760, Note_on_c, 0, 55, 0
2, 136872, Note_on_c, 0, 67, 52
2, 137534, Note_on_c, 0, 67, 0
2, 137638, Note_on_c, 0, 65, 63
2, 137675, Note_on_c, 0, 48, 36
2, 137785, Note_on_c, 0, 58, 30
2, 137820, Control_c, 0, 64, 0
2, 138730, Note_on_c, 0, 62, 67
2, 138733, Note_on_c, 0, 58, 0
2, 138759, Note_on_c, 0, 65, 0
2, 138773, Note_on_c, 0, 55, 49
2, 138889, Control_c, 0, 64, 127
2, 139358, Note_on_c, 0, 55, 0
2, 139470, Note_on_c, 0, 62, 0
2, 139879, Note_on_c, 0, 48, 0
2, 140046, Control_c, 0, 64, 0
2, 140063, Note_on_c, 0, 64, 70
2, 140069, Note_on_c, 0, 48, 36
2, 140449, Control_c, 0, 64, 127
2, 140670, Note_on_c, 0, 48, 0
2, 141210, Note_on_c, 0, 64, 0
2, 141386, Note_on_c, 0, 61, 51
2, 141400, Note_on_c, 0, 42, 39
2, 141406, Note_on_c, 0, 58, 47
2, 141426, Note_on_c, 0, 55, 45
2, 141458, Control_c, 0, 64, 0
2, 141547, Note_on_c, 0, 49, 15
2, 141893, Control_c, 0, 64, 127
2, 142071, Note_on_c, 0, 55, 0
2, 142289, Note_on_c, 0, 42, 0
2, 142379, Note_on_c, 0, 61, 0
2, 142419, Note_on_c, 0, 58, 0
2, 142511, Note_on_c, 0, 49, 0
2, 142816, Control_c, 0, 64, 0
2, 142960, Note_on_c, 0, 57, 50
2, 142983, Note_on_c, 0, 55, 35
2, 142998, Note_on_c, 0, 48, 30
2, 143006, Note_on_c, 0, 41, 29
2, 143335, Control_c, 0, 64, 127
2, 143381, Note_on_c, 0, 55, 0
2, 143456, Note_on_c, 0, 57, 0
2, 143603, Note_on_c, 0, 41, 0
2, 143663, Note_on_c, 0, 48, 0
2, 144439, Note_on_c, 0, 67, 81
2, 144442, Note_on_c, 0, 72, 66
2, 144453, Note_on_c, 0, 62, 82
2, 144456, Note_on_c, 0, 57, 63
2, 144962, Note_on_c, 0, 57, 0
2, 144982, Note_on_c, 0, 62, 0
2, 145161, Note_on_c, 0, 67, 0
2, 145204, Note_on_c, 0, 72, 0
2, 146022, Control_c, 0, 64, 0
2, 146068, Note_on_c, 0, 56, 58
2, 146080, Note_on_c, 0, 76, 89
2, 146083, Note_on_c, 0, 72, 80
2, 146097, Note_on_c, 0, 67, 94
2, 146108, Note_on_c, 0, 62, 62
2, 146506, Control_c, 0, 64, 127
2, 146973, Note_on_c, 0, 62, 0
2, 146990, Note_on_c, 0, 72, 0
2, 147016, Note_on_c, 0, 76, 0
2, 147100, Note_on_c, 0, 67, 0
2, 147126, Note_on_c, 0, 56, 0
2, 147701, Note_on_c, 0, 46, 45
2, 147712, Note_on_c, 0, 56, 39
2, 147721, Note_on_c, 0, 72, 57
2, 147750, Note_on_c, 0, 67, 77
2, 147767, Note_on_c, 0, 64, 66
2, 148023, Note_on_c, 0, 56, 0
2, 148242, Note_on_c, 0, 46, 0
2, 148281, Note_on_c, 0, 72, 0
2, 148301, Note_on_c, 0, 67, 0
2, 148419, Note_on_c, 0, 64, 0
2, 149283, Control_c, 0, 64, 0
2, 149335, Note_on_c, 0, 67, 58
2, 149361, Note_on_c, 0, 57, 50
2, 149364, Note_on_c, 0, 62, 63
2, 149375, Note_on_c, 0, 43, 45
2, 149404, Note_on_c, 0, 59, 53
2, 149421, Note_on_c, 0, 52, 40
2, 149629, Control_c, 0, 64, 127
2, 149718, Note_on_c, 0, 59, 0
2, 149798, Note_on_c, 0, 57, 0
2, 149911, Note_on_c, 0, 43, 0
2, 149994, Note_on_c, 0, 62, 0
2, 150052, Note_on_c, 0, 52, 0
2, 150075, Note_on_c, 0, 67, 0
2, 151133, Note_on_c, 0, 79, 85
2, 151141, Note_on_c, 0, 74, 90
2, 151147, Note_on_c, 0, 69, 91
2, 151167, Note_on_c, 0, 64, 74
2, 152494, Note_on_c, 0, 69, 0
2, 152643, Note_on_c, 0, 74, 0
2, 152675, Note_on_c, 0, 79, 0
2, 152762, Note_on_c, 0, 64, 0
2, 153772, Note_on_c, 0, 67, 49
2, 153781, Note_on_c, 0, 83, 70
2, 153795, Note_on_c, 0, 79, 60
2, 153804, Note_on_c, 0, 76, 66
2, 153821, Note_on_c, 0, 72, 51
2, 153902, Control_c, 0, 64, 0
2, 154476, Control_c, 0, 64, 127
2, 155000, Note_on_c, 0, 83, 0
2, 155035, Note_on_c, 0, 79, 0
2, 155142, Note_on_c, 0, 76, 0
2, 155176, Note_on_c, 0, 72, 0
2, 155591, Note_on_c, 0, 67, 0
2, 156237, Note_on_c, 0, 79, 40
2, 156263, Note_on_c, 0, 74, 40
2, 156292, Note_on_c, 0, 71, 44
2, 156344, Note_on_c, 0, 64, 33
2, 157209, Note_on_c, 0, 64, 0
2, 158435, Note_on_c, 0, 71, 0
2, 158685, Note_on_c, 0, 74, 0
2, 159434, Note_on_c, 0, 79, 0
2, 159559, Control_c, 0, 64, 0
2, 159646, Note_on_c, 0, 54, 25
2, 159672, Note_on_c, 0, 69, 34
2, 159680, Note_on_c, 0, 76, 39
2, 159729, Note_on_c, 0, 64, 20
2, 159801, Note_on_c, 0, 60, 29
2, 160164, Control_c, 0, 64, 127
2, 160676, Note_on_c, 0, 69, 0
2, 160975, Note_on_c, 0, 76, 0
2, 161381, Note_on_c, 0, 84, 73
2, 162326, Note_on_c, 0, 84, 0
2, 162430, Note_on_c, 0, 83, 60
2, 163009, Note_on_c, 0, 64, 0
2, 163124, Note_on_c, 0, 60, 0
2, 163202, Note_on_c, 0, 83, 0
2, 163265, Note_on_c, 0, 84, 56
2, 163311, Note_on_c, 0, 84, 0
2, 163311, Note_on_c, 0, 54, 0
2, 164141, Note_on_c, 0, 51, 37
2, 164158, Note_on_c, 0, 83, 47
2, 164236, Control_c, 0, 64, 0
2, 165275, Control_c, 0, 64, 127
2, 165396, Note_on_c, 0, 57, 29
2, 166750, Note_on_c, 0, 62, 35
2, 166752, Note_on_c, 0, 81, 55
2, 166761, Note_on_c, 0, 83, 0
2, 167513, Note_on_c, 0, 83, 68
2, 167634, Note_on_c, 0, 81, 0
2, 167680, Note_on_c, 0, 51, 0
2, 168103, Note_on_c, 0, 83, 0
2, 168138, Note_on_c, 0, 57, 0
2, 168190, Control_c, 0, 64, 0
2, 168227, Note_on_c, 0, 52, 44
2, 168247, Note_on_c, 0, 81, 58
2, 168262, Note_on_c, 0, 62, 0
2, 168912, Control_c, 0, 64, 127
2, 169073, Note_on_c, 0, 59, 40
2, 169823, Note_on_c, 0, 79, 65
2, 169872, Note_on_c, 0, 81, 0
2, 169886, Note_on_c, 0, 62, 40
2, 170078, Note_on_c, 0, 52, 0
2, 170130, Note_on_c, 0, 59, 0
2, 170286, Note_on_c, 0, 79, 0
2, 170453, Note_on_c, 0, 81, 65
2, 171082, Note_on_c, 0, 81, 0
2, 171113, Note_on_c, 0, 62, 0
2, 171188, Note_on_c, 0, 79, 70
2, 171197, Control_c, 0, 64, 0
2, 171200, Note_on_c, 0, 55, 59
2, 172058, Control_c, 0, 64, 127
2, 172116, Note_on_c, 0, 55, 0
2, 172478, Note_on_c, 0, 56, 54
2, 173760, Control_c, 0, 64, 0
2, 173768, Note_on_c, 0, 67, 42
2, 173800, Note_on_c, 0, 62, 37
2, 174540, Control_c, 0, 64, 127
2, 175217, Note_on_c, 0, 77, 51
2, 175351, Note_on_c, 0, 62, 0
2, 175371, Note_on_c, 0, 67, 0
2, 175446, Note_on_c, 0, 79, 0
2, 175700, Note_on_c, 0, 56, 0
2, 176438, Note_on_c, 0, 76, 64
2, 176556, Note_on_c, 0, 77, 0
2, 176936, Note_on_c, 0, 77, 57
2, 177037, Note_on_c, 0, 76, 0
2, 177281, Control_c, 0, 64, 0
2, 177506, Note_on_c, 0, 77, 0
2, 177521, Note_on_c, 0, 45, 39
2, 177570, Note_on_c, 0, 76, 55
2, 177745, Control_c, 0, 64, 127
2, 177780, Note_on_c, 0, 45, 0
2, 178717, Note_on_c, 0, 64, 33
2, 178725, Note_on_c, 0, 74, 59
2, 178789, Note_on_c, 0, 60, 34
2, 178794, Note_on_c, 0, 59, 25
2, 178829, Note_on_c, 0, 76, 0
2, 179713, Note_on_c, 0, 72, 47
2, 179893, Note_on_c, 0, 74, 0
2, 180423, Note_on_c, 0, 72, 0
2, 180579, Note_on_c, 0, 71, 54
2, 180637, Note_on_c, 0, 59, 0
2, 180812, Note_on_c, 0, 64, 0
2, 181553, Control_c, 0, 64, 0
2, 181588, Note_on_c, 0, 54, 33
2, 181596, Note_on_c, 0, 60, 0
2, 181617, Note_on_c, 0, 69, 51
2, 181804, Note_on_c, 0, 71, 0
2, 182593, Control_c, 0, 64, 127
2, 182662, Note_on_c, 0, 60, 42
2, 183759, Note_on_c, 0, 71, 66
2, 183814, Note_on_c, 0, 64, 37
2, 184047, Note_on_c, 0, 69, 0
2, 184563, Note_on_c, 0, 64, 0
2, 184640, Note_on_c, 0, 60, 0
2, 184856, Note_on_c, 0, 72, 61
2, 184911, Note_on_c, 0, 54, 0
2, 185046, Note_on_c, 0, 71, 0
2, 185830, Note_on_c, 0, 72, 0
2, 185885, Control_c, 0, 64, 0
2, 186052, Note_on_c, 0, 50, 37
2, 186055, Note_on_c, 0, 74, 57
2, 186075, Note_on_c, 0, 69, 51
2, 186104, Note_on_c, 0, 65, 42
2, 186147, Note_on_c, 0, 60, 26
2, 186521, Control_c, 0, 64, 127
2, 186961, Note_on_c, 0, 74, 0
2, 187273, Note_on_c, 0, 76, 69
2, 187319, Note_on_c, 0, 60, 0
2, 187330, Note_on_c, 0, 57, 45
2, 187535, Note_on_c, 0, 69, 0
2, 187828, Note_on_c, 0, 76, 0
2, 188051, Note_on_c, 0, 65, 0
2, 188592, Note_on_c, 0, 77, 56
2, 188621, Note_on_c, 0, 65, 53
2, 188652, Note_on_c, 0, 60, 32
2, 188690, Note_on_c, 0, 72, 30
2, 189184, Note_on_c, 0, 65, 0
2, 189279, Note_on_c, 0, 77, 0
2, 189549, Note_on_c, 0, 72, 0
2, 190102, Note_on_c, 0, 81, 63
2, 190579, Note_on_c, 0, 50, 0
2, 190599, Note_on_c, 0, 57, 0
2, 190783, Note_on_c, 0, 60, 0
2, 191495, Note_on_c, 0, 81, 0
2, 191731, Note_on_c, 0, 71, 48
2, 191745, Note_on_c, 0, 79, 48
2, 191774, Control_c, 0, 64, 0
2, 191780, Note_on_c, 0, 76, 47
2, 191834, Note_on_c, 0, 65, 36
2, 192295, Control_c, 0, 64, 127
2, 193696, Note_on_c, 0, 55, 46
2, 193711, Note_on_c, 0, 65, 0
2, 193954, Note_on_c, 0, 55, 0
2, 194100, Note_on_c, 0, 79, 0
2, 194158, Note_on_c, 0, 76, 0
2, 194567, Note_on_c, 0, 71, 0
2, 196332, Note_on_c, 0, 31, 38
2, 196566, Control_c, 0, 64, 0
2, 197234, Note_on_c, 0, 43, 1
2, 197346, Control_c, 0, 64, 127
2, 198452, Note_on_c, 0, 31, 0
2, 198550, Note_on_c, 0, 43, 0
2, 201372, Note_on_c, 0, 76, 57
2, 201445, Control_c, 0, 64, 0
2, 201448, Note_on_c, 0, 71, 63
2, 201491, Note_on_c, 0, 68, 42
2, 201523, Note_on_c, 0, 74, 29
2, 201555, Note_on_c, 0, 53, 31
2, 201558, Note_on_c, 0, 65, 40
2, 201595, Note_on_c, 0, 59, 30
2, 202456, Control_c, 0, 64, 127
2, 203026, Note_on_c, 0, 74, 0
2, 203046, Note_on_c, 0, 71, 0
2, 203132, Note_on_c, 0, 68, 0
2, 203181, Note_on_c, 0, 76, 0
2, 203193, Note_on_c, 0, 53, 0
2, 203492, Note_on_c, 0, 59, 0
2, 203928, Note_on_c, 0, 65, 0
2, 204360, Note_on_c, 0, 77, 51
2, 206448, Note_on_c, 0, 77, 0
2, 207562, Control_c, 0, 64, 0
2, 207568, Note_on_c, 0, 67, 46
2, 207585, Note_on_c, 0, 79, 76
2, 207631, Note_on_c, 0, 64, 35
2, 207640, Note_on_c, 0, 62, 50
2, 208199, Control_c, 0, 64, 127
2, 208297, Note_on_c, 0, 67, 0
2, 208786, Note_on_c, 0, 79, 0
2, 208809, Note_on_c, 0, 67, 52
2, 209892, Note_on_c, 0, 69, 71
2, 209982, Note_on_c, 0, 67, 0
2, 210341, Note_on_c, 0, 64, 0
2, 210571, Note_on_c, 0, 62, 0
2, 210571, Note_on_c, 0, 69, 0
2, 212387, Control_c, 0, 64, 0
2, 212430, Note_on_c, 0, 79, 63
2, 212453, Note_on_c, 0, 53, 34
2, 213135, Control_c, 0, 64, 127
2, 213244, Note_on_c, 0, 79, 0
2, 213700, Note_on_c, 0, 67, 43
2, 214779, Note_on_c, 0, 67, 0
2, 215036, Note_on_c, 0, 67, 35
2, 215093, Note_on_c, 0, 60, 1
2, 215142, Note_on_c, 0, 69, 24
2, 215151, Note_on_c, 0, 64, 16
2, 216413, Note_on_c, 0, 53, 0
2, 216655, Note_on_c, 0, 69, 0
2, 216747, Note_on_c, 0, 64, 0
2, 216787, Note_on_c, 0, 60, 0
2, 217502, Note_on_c, 0, 67, 0
2, 217671, Note_on_c, 0, 64, 35
2, 217694, Control_c, 0, 64, 0
2, 217781, Note_on_c, 0, 52, 20
2, 218360, Control_c, 0, 64, 127
2, 218527, Note_on_c, 0, 64, 0
2, 218811, Note_on_c, 0, 59, 24
2, 219702, Note_on_c, 0, 79, 58
2, 219754, Note_on_c, 0, 71, 54
2, 219837, Note_on_c, 0, 62, 30
2, 220249, Note_on_c, 0, 71, 0
2, 220266, Note_on_c, 0, 79, 0
2, 220701, Note_on_c, 0, 81, 68
2, 220707, Note_on_c, 0, 72, 60
2, 220744, Note_on_c, 0, 59, 0
2, 220767, Note_on_c, 0, 62, 0
2, 220937, Note_on_c, 0, 52, 0
2, 221317, Note_on_c, 0, 72, 0
2, 221334, Note_on_c, 0, 81, 0
2, 221507, Control_c, 0, 64, 0
2, 221682, Note_on_c, 0, 45, 40
2, 221694, Note_on_c, 0, 74, 51
2, 221700, Note_on_c, 0, 83, 60
2, 221878, Note_on_c, 0, 45, 0
2, 222025, Control_c, 0, 64, 127
2, 222833, Note_on_c, 0, 57, 28
2, 222859, Note_on_c, 0, 55, 25
2, 223299, Note_on_c, 0, 57, 0
2, 223426, Note_on_c, 0, 83, 0
2, 223437, Note_on_c, 0, 74, 0
2, 223829, Note_on_c, 0, 58, 29
2, 223840, Note_on_c, 0, 76, 46
2, 223849, Note_on_c, 0, 61, 21
2, 223855, Note_on_c, 0, 84, 48
2, 223860, Note_on_c, 0, 64, 28
2, 224281, Note_on_c, 0, 55, 0
2, 224497, Note_on_c, 0, 64, 0
2, 224584, Note_on_c, 0, 61, 0
2, 224627, Note_on_c, 0, 58, 0
2, 225830, Note_on_c, 0, 45, 66
2, 225894, Control_c, 0, 64, 0
2, 226976, Note_on_c, 0, 38, 61
2, 226994, Control_c, 0, 64, 127
2, 227022, Note_on_c, 0, 45, 0
2, 227279, Note_on_c, 0, 38, 0
2, 227546, Note_on_c, 0, 76, 0
2, 227765, Note_on_c, 0, 84, 0
2, 228422, Note_on_c, 0, 50, 43
2, 228425, Note_on_c, 0, 84, 79
2, 228440, Note_on_c, 0, 77, 76
2, 228443, Note_on_c, 0, 60, 66
2, 228457, Note_on_c, 0, 57, 57
2, 228466, Note_on_c, 0, 53, 34
2, 228471, Note_on_c, 0, 72, 64
2, 228543, Note_on_c, 0, 81, 30
2, 228693, Note_on_c, 0, 81, 0
2, 229053, Note_on_c, 0, 72, 0
2, 229090, Note_on_c, 0, 53, 0
2, 229128, Note_on_c, 0, 50, 0
2, 229136, Note_on_c, 0, 57, 0
2, 229226, Note_on_c, 0, 60, 0
2, 229272, Note_on_c, 0, 77, 0
2, 229356, Note_on_c, 0, 84, 0
2, 230241, Note_on_c, 0, 96, 80
2, 230244, Note_on_c, 0, 89, 77
2, 230247, Note_on_c, 0, 84, 82
2, 230255, Note_on_c, 0, 64, 74
2, 230273, Note_on_c, 0, 60, 65
2, 230275, Note_on_c, 0, 57, 69
2, 230278, Note_on_c, 0, 93, 68
2, 230284, Note_on_c, 0, 53, 64
2, 230316, Control_c, 0, 64, 0
2, 232253, Control_c, 0, 64, 127
2, 232860, Note_on_c, 0, 64, 0
2, 232929, Note_on_c, 0, 60, 0
2, 232950, Note_on_c, 0, 57, 0
2, 233122, Note_on_c, 0, 53, 0
2, 234534, Control_c, 0, 64, 0
2, 234635, Note_on_c, 0, 31, 63
2, 235458, Control_c, 0, 64, 127
2, 235702, Note_on_c, 0, 96, 0
2, 236224, Note_on_c, 0, 31, 0
2, 236235, Note_on_c, 0, 93, 0
2, 236310, Note_on_c, 0, 89, 0
2, 236642, Note_on_c, 0, 84, 0
2, 238473, Note_on_c, 0, 94, 77
2, 238712, Note_on_c, 0, 94, 0
2, 238920, Control_c, 0, 64, 0
2, 239188, Note_on_c, 0, 92, 62
2, 239522, Note_on_c, 0, 92, 0
2, 239629, Note_on_c, 0, 87, 54
2, 239900, Note_on_c, 0, 87, 0
2, 240012, Note_on_c, 0, 83, 46
2, 240245, Note_on_c, 0, 83, 0
2, 240428, Note_on_c, 0, 82, 42
2, 240800, Note_on_c, 0, 82, 0
2, 240831, Note_on_c, 0, 80, 32
2, 241132, Note_on_c, 0, 80, 0
2, 241227, Note_on_c, 0, 79, 34
2, 241385, Note_on_c, 0, 79, 0
2, 241642, Note_on_c, 0, 64, 40
2, 241656, Note_on_c, 0, 59, 36
2, 241673, Note_on_c, 0, 53, 31
2, 243686, Note_on_c, 0, 75, 70
2, 244392, Note_on_c, 0, 75, 0
2, 244461, Note_on_c, 0, 71, 54
2, 244893, Note_on_c, 0, 71, 0
2, 245158, Note_on_c, 0, 74, 81
2, 245576, Note_on_c, 0, 74, 0
2, 245731, Note_on_c, 0, 75, 74
2, 246313, Note_on_c, 0, 76, 73
2, 246397, Control_c, 0, 64, 127
2, 246523, Note_on_c, 0, 75, 0
2, 246526, Note_on_c, 0, 64, 0
2, 246647, Note_on_c, 0, 59, 0
2, 246791, Note_on_c, 0, 76, 0
2, 246823, Note_on_c, 0, 53, 0
2, 246866, Note_on_c, 0, 77, 60
2, 247358, Note_on_c, 0, 77, 0
2, 247435, Control_c, 0, 64, 0
2, 247536, Note_on_c, 0, 76, 44
2, 247602, Note_on_c, 0, 48, 42
2, 248406, Note_on_c, 0, 55, 37
2, 248501, Control_c, 0, 64, 127
2, 248950, Note_on_c, 0, 60, 44
2, 249515, Note_on_c, 0, 48, 0
2, 249524, Note_on_c, 0, 76, 0
2, 249541, Note_on_c, 0, 64, 57
2, 249564, Note_on_c, 0, 55, 0
2, 249944, Note_on_c, 0, 64, 0
2, 250091, Note_on_c, 0, 72, 55
2, 250237, Note_on_c, 0, 60, 0
2, 250487, Note_on_c, 0, 72, 0
2, 250623, Note_on_c, 0, 76, 78
2, 251119, Note_on_c, 0, 76, 0
2, 251162, Control_c, 0, 64, 0
2, 251185, Note_on_c, 0, 72, 42
2, 251191, Note_on_c, 0, 56, 39
2, 251880, Note_on_c, 0, 62, 54
2, 252116, Control_c, 0, 64, 127
2, 252311, Note_on_c, 0, 72, 0
2, 252352, Note_on_c, 0, 64, 46
2, 252666, Note_on_c, 0, 64, 0
2, 252842, Note_on_c, 0, 68, 55
2, 252928, Note_on_c, 0, 62, 0
2, 253142, Note_on_c, 0, 68, 0
2, 253176, Note_on_c, 0, 56, 0
2, 253314, Note_on_c, 0, 71, 80
2, 253671, Note_on_c, 0, 71, 0
2, 253763, Note_on_c, 0, 74, 80
2, 254046, Control_c, 0, 64, 0
2, 254213, Note_on_c, 0, 45, 40
2, 254256, Note_on_c, 0, 72, 49
2, 254282, Note_on_c, 0, 74, 0
2, 254843, Note_on_c, 0, 52, 38
2, 255200, Control_c, 0, 64, 127
2, 255269, Note_on_c, 0, 45, 0
2, 255298, Note_on_c, 0, 57, 39
2, 255489, Note_on_c, 0, 52, 0
2, 255642, Note_on_c, 0, 64, 47
2, 255665, Note_on_c, 0, 57, 0
2, 255757, Note_on_c, 0, 72, 0
2, 255936, Note_on_c, 0, 64, 0
2, 256019, Note_on_c, 0, 69, 60
2, 256491, Note_on_c, 0, 69, 0
2, 256586, Note_on_c, 0, 72, 66
2, 256873, Note_on_c, 0, 72, 0
2, 257193, Note_on_c, 0, 79, 82
2, 257504, Note_on_c, 0, 56, 38
2, 257623, Control_c, 0, 64, 0
2, 258322, Note_on_c, 0, 62, 37
2, 258995, Note_on_c, 0, 67, 33
2, 259126, Control_c, 0, 64, 127
2, 259468, Note_on_c, 0, 79, 0
2, 259589, Note_on_c, 0, 67, 0
2, 259678, Note_on_c, 0, 72, 36
2, 260102, Note_on_c, 0, 72, 0
2, 260237, Note_on_c, 0, 62, 0
2, 260248, Note_on_c, 0, 74, 74
2, 260667, Note_on_c, 0, 74, 0
2, 260730, Note_on_c, 0, 56, 0
2, 260834, Note_on_c, 0, 76, 84
2, 260886, Control_c, 0, 64, 0
2, 260943, Note_on_c, 0, 57, 56
2, 261562, Note_on_c, 0, 76, 0
2, 261669, Note_on_c, 0, 77, 61
2, 261703, Note_on_c, 0, 64, 35
2, 261723, Note_on_c, 0, 60, 36
2, 262014, Control_c, 0, 64, 127
2, 262225, Note_on_c, 0, 77, 0
2, 262230, Note_on_c, 0, 60, 0
2, 262299, Note_on_c, 0, 64, 0
2, 262415, Note_on_c, 0, 57, 0
2, 262564, Control_c, 0, 64, 0
2, 262642, Note_on_c, 0, 79, 57
2, 262671, Note_on_c, 0, 58, 53
2, 262726, Note_on_c, 0, 73, 31
2, 262734, Note_on_c, 0, 69, 57
2, 262786, Note_on_c, 0, 64, 28
2, 262847, Note_on_c, 0, 61, 15
2, 263461, Control_c, 0, 64, 127
2, 263570, Note_on_c, 0, 69, 0
2, 263694, Note_on_c, 0, 73, 0
2, 263714, Note_on_c, 0, 81, 61
2, 263841, Note_on_c, 0, 57, 49
2, 263908, Note_on_c, 0, 64, 0
2, 264005, Note_on_c, 0, 61, 0
2, 264051, Note_on_c, 0, 58, 0
2, 264098, Note_on_c, 0, 57, 0
2, 264454, Note_on_c, 0, 81, 0
2, 264506, Note_on_c, 0, 79, 0
2, 264673, Control_c, 0, 64, 0
2, 264779, Note_on_c, 0, 81, 66
2, 264796, Note_on_c, 0, 77, 63
2, 264825, Note_on_c, 0, 50, 36
2, 265307, Control_c, 0, 64, 127
2, 265673, Note_on_c, 0, 57, 62
2, 265676, Note_on_c, 0, 81, 0
2, 265733, Note_on_c, 0, 77, 0
2, 265831, Note_on_c, 0, 50, 0
2, 266038, Note_on_c, 0, 57, 0
2, 266545, Control_c, 0, 64, 0
2, 266640, Note_on_c, 0, 79, 69
2, 266669, Note_on_c, 0, 76, 64
2, 266672, Note_on_c, 0, 69, 72
2, 266678, Note_on_c, 0, 72, 51
2, 266680, Note_on_c, 0, 64, 64
2, 266977, Control_c, 0, 64, 127
2, 267389, Note_on_c, 0, 79, 0
2, 267395, Note_on_c, 0, 76, 0
2, 267432, Note_on_c, 0, 69, 0
2, 267453, Note_on_c, 0, 72, 0
2, 267790, Control_c, 0, 64, 0
2, 267818, Note_on_c, 0, 77, 62
2, 267830, Note_on_c, 0, 72, 53
2, 267841, Note_on_c, 0, 69, 63
2, 267882, Note_on_c, 0, 62, 56
2, 267896, Note_on_c, 0, 64, 0
2, 268135, Control_c, 0, 64, 127
2, 268351, Note_on_c, 0, 77, 0
2, 268432, Note_on_c, 0, 72, 0
2, 268466, Note_on_c, 0, 69, 0
2, 268800, Control_c, 0, 64, 0
2, 268835, Note_on_c, 0, 62, 0
2, 268956, Note_on_c, 0, 76, 62
2, 268976, Note_on_c, 0, 71, 68
2, 268991, Note_on_c, 0, 67, 57
2, 269045, Note_on_c, 0, 60, 48
2, 269402, Control_c, 0, 64, 127
2, 269647, Note_on_c, 0, 76, 0
2, 269708, Note_on_c, 0, 71, 0
2, 269803, Note_on_c, 0, 67, 0
2, 270128, Note_on_c, 0, 74, 51
2, 270131, Note_on_c, 0, 60, 0
2, 270183, Note_on_c, 0, 69, 56
2, 270200, Note_on_c, 0, 65, 42
2, 270223, Note_on_c, 0, 59, 44
2, 270353, Note_on_c, 0, 59, 0
2, 270531, Note_on_c, 0, 69, 0
2, 270646, Note_on_c, 0, 65, 0
2, 270736, Note_on_c, 0, 74, 0
2, 271311, Control_c, 0, 64, 0
2, 271446, Note_on_c, 0, 48, 41
2, 271489, Note_on_c, 0, 72, 37
2, 271544, Note_on_c, 0, 65, 44
2, 271547, Note_on_c, 0, 58, 32
2, 271567, Note_on_c, 0, 62, 40
2, 271916, Control_c, 0, 64, 127
2, 272501, Note_on_c, 0, 65, 0
2, 272506, Note_on_c, 0, 62, 0
2, 272665, Note_on_c, 0, 58, 0
2, 272752, Note_on_c, 0, 72, 0
2, 272821, Note_on_c, 0, 70, 45
2, 272867, Note_on_c, 0, 62, 46
2, 272881, Note_on_c, 0, 65, 39
2, 272936, Note_on_c, 0, 55, 29
2, 273189, Note_on_c, 0, 48, 0
2, 273270, Note_on_c, 0, 62, 0
2, 273284, Note_on_c, 0, 70, 0
2, 273419, Note_on_c, 0, 65, 0
2, 274024, Control_c, 0, 64, 0
2, 274146, Note_on_c, 0, 55, 0
2, 274169, Note_on_c, 0, 69, 49
2, 274198, Note_on_c, 0, 64, 43
2, 274212, Note_on_c, 0, 61, 34
2, 274218, Note_on_c, 0, 58, 37
2, 274543, Control_c, 0, 64, 127
2, 274693, Note_on_c, 0, 61, 0
2, 274733, Note_on_c, 0, 64, 0
2, 274846, Note_on_c, 0, 69, 0
2, 275468, Control_c, 0, 64, 0
2, 275505, Note_on_c, 0, 58, 0
2, 275566, Note_on_c, 0, 58, 38
2, 275588, Note_on_c, 0, 67, 63
2, 275593, Note_on_c, 0, 52, 38
2, 275599, Note_on_c, 0, 62, 54
2, 275752, Control_c, 0, 64, 127
2, 275844, Note_on_c, 0, 52, 0
2, 276175, Note_on_c, 0, 67, 0
2, 276192, Note_on_c, 0, 58, 0
2, 276423, Note_on_c, 0, 62, 0
2, 277256, Control_c, 0, 64, 0
2, 277342, Note_on_c, 0, 61, 38
2, 277348, Note_on_c, 0, 45, 36
2, 277380, Note_on_c, 0, 64, 48
2, 277391, Note_on_c, 0, 58, 25
2, 277460, Note_on_c, 0, 55, 20
2, 278148, Control_c, 0, 64, 127
2, 278620, Note_on_c, 0, 64, 0
2, 278738, Note_on_c, 0, 58, 0
2, 278822, Note_on_c, 0, 61, 0
2, 279072, Note_on_c, 0, 65, 74
2, 279306, Note_on_c, 0, 45, 0
2, 279686, Note_on_c, 0, 65, 0
2, 279698, Note_on_c, 0, 55, 0
2, 279727, Note_on_c, 0, 67, 66
2, 280377, Note_on_c, 0, 67, 0
2, 280461, Control_c, 0, 64, 0
2, 280558, Note_on_c, 0, 65, 64
2, 280576, Note_on_c, 0, 60, 57
2, 280581, Note_on_c, 0, 69, 67
2, 280599, Note_on_c, 0, 50, 45
2, 280642, Note_on_c, 0, 67, 44
2, 281095, Control_c, 0, 64, 127
2, 281150, Note_on_c, 0, 69, 0
2, 281227, Note_on_c, 0, 60, 0
2, 281279, Note_on_c, 0, 67, 0
2, 281340, Note_on_c, 0, 65, 0
2, 281538, Note_on_c, 0, 71, 79
2, 281598, Note_on_c, 0, 57, 22
2, 281710, Note_on_c, 0, 69, 36
2, 281727, Note_on_c, 0, 57, 0
2, 281825, Note_on_c, 0, 69, 0
2, 281846, Note_on_c, 0, 50, 0
2, 281940, Note_on_c, 0, 71, 0
2, 282367, Control_c, 0, 64, 0
2, 282393, Note_on_c, 0, 48, 48
2, 282497, Note_on_c, 0, 72, 68
2, 282500, Note_on_c, 0, 65, 76
2, 282972, Control_c, 0, 64, 127
2, 283044, Note_on_c, 0, 72, 0
2, 283252, Note_on_c, 0, 65, 0
2, 283445, Note_on_c, 0, 74, 76
2, 283477, Note_on_c, 0, 57, 42
2, 283793, Note_on_c, 0, 74, 0
2, 284053, Note_on_c, 0, 48, 0
2, 284317, Note_on_c, 0, 57, 0
2, 284326, Control_c, 0, 64, 0
2, 284476, Note_on_c, 0, 76, 72
2, 284507, Note_on_c, 0, 69, 63
2, 284536, Note_on_c, 0, 47, 41
2, 284610, Note_on_c, 0, 64, 35
2, 284760, Note_on_c, 0, 64, 0
2, 284852, Control_c, 0, 64, 127
2, 284855, Note_on_c, 0, 47, 0
2, 285004, Note_on_c, 0, 69, 0
2, 285151, Note_on_c, 0, 76, 0
2, 285895, Note_on_c, 0, 88, 74
2, 285921, Note_on_c, 0, 76, 68
2, 286036, Note_on_c, 0, 57, 29
2, 286093, Note_on_c, 0, 65, 17
2, 286096, Note_on_c, 0, 62, 24
2, 286806, Note_on_c, 0, 57, 0
2, 286939, Note_on_c, 0, 76, 0
2, 286985, Note_on_c, 0, 88, 0
2, 287477, Control_c, 0, 64, 0
2, 287571, Note_on_c, 0, 88, 48
2, 287600, Note_on_c, 0, 76, 37
2, 287603, Note_on_c, 0, 56, 32
2, 287612, Note_on_c, 0, 80, 28
2, 287626, Note_on_c, 0, 83, 35
2, 287658, Note_on_c, 0, 65, 0
2, 287848, Note_on_c, 0, 62, 0
2, 288023, Control_c, 0, 64, 127
2, 288208, Note_on_c, 0, 76, 0
2, 288277, Note_on_c, 0, 80, 0
2, 288474, Note_on_c, 0, 83, 0
2, 288857, Note_on_c, 0, 88, 0
2, 288955, Note_on_c, 0, 65, 33
2, 289023, Note_on_c, 0, 62, 29
2, 289853, Note_on_c, 0, 86, 99
2, 289989, Note_on_c, 0, 65, 0
2, 290133, Note_on_c, 0, 62, 0
2, 290296, Note_on_c, 0, 56, 0
2, 290576, Note_on_c, 0, 85, 59
2, 290749, Note_on_c, 0, 86, 0
2, 290887, Note_on_c, 0, 84, 38
2, 290944, Note_on_c, 0, 85, 0
2, 291247, Note_on_c, 0, 84, 0
2, 291281, Note_on_c, 0, 83, 47
2, 291459, Control_c, 0, 64, 0
2, 291536, Note_on_c, 0, 83, 0
2, 291669, Note_on_c, 0, 45, 38
2, 291758, Note_on_c, 0, 84, 77
2, 292325, Control_c, 0, 64, 127
2, 292745, Note_on_c, 0, 81, 37
2, 292940, Note_on_c, 0, 55, 13
2, 293493, Note_on_c, 0, 81, 0
2, 293630, Note_on_c, 0, 74, 44
2, 293633, Note_on_c, 0, 84, 0
2, 294025, Note_on_c, 0, 74, 0
2, 294397, Note_on_c, 0, 77, 44
2, 294921, Note_on_c, 0, 82, 53
2, 294944, Note_on_c, 0, 77, 0
2, 295120, Note_on_c, 0, 45, 0
2, 295125, Note_on_c, 0, 82, 0
2, 295143, Note_on_c, 0, 55, 0
2, 295373, Note_on_c, 0, 84, 69
2, 295874, Note_on_c, 0, 89, 58
2, 295992, Note_on_c, 0, 84, 0
2, 296076, Control_c, 0, 64, 0
2, 296329, Note_on_c, 0, 94, 62
2, 296378, Note_on_c, 0, 89, 0
2, 296419, Note_on_c, 0, 44, 50
2, 296618, Note_on_c, 0, 94, 0
2, 296627, Control_c, 0, 64, 127
2, 296990, Note_on_c, 0, 96, 40
2, 297321, Note_on_c, 0, 44, 0
2, 297540, Note_on_c, 0, 101, 40
2, 297644, Note_on_c, 0, 96, 0
2, 298065, Note_on_c, 0, 101, 0
2, 298160, Note_on_c, 0, 106, 55
2, 298719, Note_on_c, 0, 106, 0
2, 298759, Note_on_c, 0, 108, 44
2, 299217, Note_on_c, 0, 108, 0
2, 299425, Note_on_c, 0, 54, 25
2, 299488, Note_on_c, 0, 106, 46
2, 299576, Note_on_c, 0, 65, 24
2, 299619, Note_on_c, 0, 60, 26
2, 299694, Note_on_c, 0, 58, 25
2, 300109, Note_on_c, 0, 106, 0
2, 302620, Note_on_c, 0, 60, 0
2, 302718, Note_on_c, 0, 72, 40
2, 302908, Note_on_c, 0, 65, 0
2, 302931, Note_on_c, 0, 54, 0
2, 303075, Note_on_c, 0, 72, 0
2, 303167, Note_on_c, 0, 58, 0
2, 303195, Note_on_c, 0, 74, 64
2, 303631, Note_on_c, 0, 74, 0
2, 303772, Note_on_c, 0, 55, 50
2, 303775, Note_on_c, 0, 76, 71
2, 303781, Note_on_c, 0, 67, 71
2, 303784, Note_on_c, 0, 72, 54
2, 303813, Control_c, 0, 64, 0
2, 303827, Note_on_c, 0, 64, 52
2, 304679, Control_c, 0, 64, 127
2, 304766, Note_on_c, 0, 76, 0
2, 304953, Note_on_c, 0, 76, 70
2, 305618, Note_on_c, 0, 76, 0
2, 306030, Note_on_c, 0, 76, 60
2, 306111, Note_on_c, 0, 72, 0
2, 306340, Note_on_c, 0, 76, 0
2, 306343, Note_on_c, 0, 67, 0
2, 306487, Note_on_c, 0, 64, 0
2, 307089, Note_on_c, 0, 72, 36
2, 307636, Note_on_c, 0, 72, 0
2, 308216, Note_on_c, 0, 72, 28
2, 308285, Note_on_c, 0, 55, 0
2, 308616, Note_on_c, 0, 72, 0
2, 309350, Note_on_c, 0, 67, 34
2, 309390, Note_on_c, 0, 60, 26
2, 309399, Note_on_c, 0, 64, 32
2, 309661, Note_on_c, 0, 55, 6
2, 310122, Note_on_c, 0, 64, 0
2, 310157, Note_on_c, 0, 55, 0
2, 310183, Note_on_c, 0, 60, 0
2, 310200, Note_on_c, 0, 67, 0
2, 310759, Note_on_c, 0, 67, 36
2, 310802, Control_c, 0, 64, 0
2, 310817, Note_on_c, 0, 55, 27
2, 310822, Note_on_c, 0, 64, 34
2, 310845, Note_on_c, 0, 60, 20
2, 311234, Control_c, 0, 64, 127
2, 311493, Note_on_c, 0, 60, 0
2, 311857, Note_on_c, 0, 64, 0
2, 312143, Note_on_c, 0, 67, 0
2, 312249, Note_on_c, 0, 43, 43
2, 312471, Note_on_c, 0, 43, 0
2, 312537, Note_on_c, 0, 55, 0
2, 313757, Note_on_c, 0, 70, 51
2, 313840, Note_on_c, 0, 71, 70
2, 313972, Control_c, 0, 64, 0
2, 314016, Note_on_c, 0, 70, 0
2, 314056, Note_on_c, 0, 77, 81
2, 314059, Note_on_c, 0, 81, 78
2, 314065, Note_on_c, 0, 88, 88
2, 314079, Note_on_c, 0, 84, 71
2, 314099, Note_on_c, 0, 72, 57
2, 314211, Note_on_c, 0, 71, 0
2, 314462, Control_c, 0, 64, 127
2, 314619, Note_on_c, 0, 84, 0
2, 314679, Note_on_c, 0, 88, 0
2, 314691, Note_on_c, 0, 81, 0
2, 314849, Note_on_c, 0, 72, 0
2, 314870, Note_on_c, 0, 77, 0
2, 315189, Control_c, 0, 64, 0
2, 315273, Note_on_c, 0, 84, 71
2, 315299, Note_on_c, 0, 77, 67
2, 315304, Note_on_c, 0, 69, 59
2, 315310, Note_on_c, 0, 74, 64
2, 315313, Note_on_c, 0, 81, 64
2, 315420, Note_on_c, 0, 83, 34
2, 315477, Control_c, 0, 64, 127
2, 315546, Note_on_c, 0, 83, 0
2, 315664, Note_on_c, 0, 81, 0
2, 315719, Note_on_c, 0, 77, 0
2, 315731, Note_on_c, 0, 84, 0
2, 315967, Note_on_c, 0, 74, 0
2, 316450, Note_on_c, 0, 69, 0
2, 316458, Control_c, 0, 64, 0
2, 316545, Note_on_c, 0, 81, 56
2, 316582, Note_on_c, 0, 72, 35
2, 316596, Note_on_c, 0, 74, 48
2, 316605, Note_on_c, 0, 77, 48
2, 316645, Note_on_c, 0, 65, 54
2, 316804, Control_c, 0, 64, 127
2, 316945, Note_on_c, 0, 77, 0
2, 317017, Note_on_c, 0, 81, 0
2, 317049, Note_on_c, 0, 74, 0
2, 317184, Note_on_c, 0, 72, 0
2, 317853, Note_on_c, 0, 77, 41
2, 317873, Note_on_c, 0, 65, 0
2, 317902, Control_c, 0, 64, 0
2, 317933, Note_on_c, 0, 62, 46
2, 317942, Note_on_c, 0, 69, 28
2, 317948, Note_on_c, 0, 74, 30
2, 318028, Note_on_c, 0, 71, 22
2, 318219, Control_c, 0, 64, 127
2, 318221, Note_on_c, 0, 69, 0
2, 318279, Note_on_c, 0, 71, 0
2, 318351, Note_on_c, 0, 62, 0
2, 318374, Note_on_c, 0, 74, 0
2, 318435, Note_on_c, 0, 77, 0
2, 319200, Control_c, 0, 64, 0
2, 319309, Note_on_c, 0, 86, 87
2, 319338, Note_on_c, 0, 71, 83
2, 319344, Note_on_c, 0, 83, 77
2, 319349, Note_on_c, 0, 76, 84
2, 319355, Note_on_c, 0, 79, 76
2, 319663, Control_c, 0, 64, 127
2, 319866, Note_on_c, 0, 83, 0
2, 319926, Note_on_c, 0, 86, 0
2, 319975, Note_on_c, 0, 79, 0
2, 320312, Note_on_c, 0, 76, 0
2, 320617, Control_c, 0, 64, 0
2, 320663, Note_on_c, 0, 83, 52
2, 320700, Note_on_c, 0, 79, 55
2, 320703, Note_on_c, 0, 74, 56
2, 320706, Note_on_c, 0, 71, 0
2, 320712, Note_on_c, 0, 76, 58
2, 320741, Note_on_c, 0, 67, 58
2, 320876, Note_on_c, 0, 81, 22
2, 320962, Control_c, 0, 64, 127
2, 321074, Note_on_c, 0, 79, 0
2, 321092, Note_on_c, 0, 83, 0
2, 321143, Note_on_c, 0, 81, 0
2, 321161, Note_on_c, 0, 76, 0
2, 321210, Note_on_c, 0, 74, 0
2, 321694, Note_on_c, 0, 67, 0
2, 321916, Control_c, 0, 64, 0
2, 322008, Note_on_c, 0, 79, 46
2, 322011, Note_on_c, 0, 71, 47
2, 322020, Note_on_c, 0, 74, 49
2, 322063, Note_on_c, 0, 64, 32
2, 322262, Control_c, 0, 64, 127
2, 322668, Note_on_c, 0, 74, 0
2, 323206, Note_on_c, 0, 71, 0
2, 324649, Note_on_c, 0, 79, 0
2, 324772, Control_c, 0, 64, 0
2, 324885, Note_on_c, 0, 73, 29
2, 324888, Note_on_c, 0, 69, 42
2, 324922, Note_on_c, 0, 76, 36
2, 324937, Note_on_c, 0, 61, 35
2, 324948, Note_on_c, 0, 64, 0
2, 325182, Control_c, 0, 64, 127
2, 325839, Note_on_c, 0, 69, 0
2, 326008, Note_on_c, 0, 73, 0
2, 326150, Note_on_c, 0, 76, 0
2, 326973, Control_c, 0, 64, 0
2, 327091, Note_on_c, 0, 84, 84
2, 327105, Note_on_c, 0, 69, 74
2, 327108, Note_on_c, 0, 77, 82
2, 327119, Note_on_c, 0, 81, 71
2, 327122, Note_on_c, 0, 74, 81
2, 327215, Note_on_c, 0, 61, 0
2, 327434, Control_c, 0, 64, 127
2, 327589, Note_on_c, 0, 81, 0
2, 327664, Note_on_c, 0, 84, 0
2, 327684, Note_on_c, 0, 77, 0
2, 327828, Note_on_c, 0, 74, 0
2, 328537, Note_on_c, 0, 69, 0
2, 328554, Note_on_c, 0, 81, 65
2, 328586, Note_on_c, 0, 77, 60
2, 328589, Note_on_c, 0, 72, 48
2, 328601, Note_on_c, 0, 65, 48
2, 328615, Control_c, 0, 64, 0
2, 329023, Control_c, 0, 64, 127
2, 329089, Note_on_c, 0, 77, 0
2, 329121, Note_on_c, 0, 81, 0
2, 329216, Note_on_c, 0, 72, 0
2, 329669, Note_on_c, 0, 65, 0
2, 329917, Control_c, 0, 64, 0
2, 330009, Note_on_c, 0, 77, 51
2, 330038, Note_on_c, 0, 69, 42
2, 330046, Note_on_c, 0, 72, 32
2, 330095, Note_on_c, 0, 74, 37
2, 330110, Note_on_c, 0, 60, 44
2, 330271, Note_on_c, 0, 74, 0
2, 330323, Control_c, 0, 64, 127
2, 330412, Note_on_c, 0, 72, 0
2, 330631, Note_on_c, 0, 69, 0
2, 330884, Note_on_c, 0, 77, 0
2, 331065, Note_on_c, 0, 60, 0
2, 331376, Note_on_c, 0, 72, 35
2, 331422, Note_on_c, 0, 55, 49
2, 331448, Note_on_c, 0, 69, 46
2, 331471, Note_on_c, 0, 65, 33
2, 331630, Note_on_c, 0, 65, 0
2, 331760, Note_on_c, 0, 69, 0
2, 331861, Note_on_c, 0, 72, 0
2, 332921, Note_on_c, 0, 55, 0
2, 333528, Control_c, 0, 64, 0
2, 333557, Note_on_c, 0, 79, 66
2, 333560, Note_on_c, 0, 83, 68
2, 333565, Note_on_c, 0, 74, 74
2, 333568, Note_on_c, 0, 67, 61
2, 334047, Control_c, 0, 64, 127
2, 334355, Note_on_c, 0, 79, 0
2, 334378, Note_on_c, 0, 83, 0
2, 334554, Note_on_c, 0, 74, 0
2, 335237, Note_on_c, 0, 67, 0
2, 335283, Note_on_c, 0, 71, 51
2, 335288, Control_c, 0, 64, 0
2, 335317, Note_on_c, 0, 79, 38
2, 335346, Note_on_c, 0, 76, 50
2, 335401, Note_on_c, 0, 64, 35
2, 335633, Control_c, 0, 64, 127
2, 335820, Note_on_c, 0, 79, 0
2, 335837, Note_on_c, 0, 76, 0
2, 336114, Note_on_c, 0, 71, 0
2, 337042, Note_on_c, 0, 64, 0
2, 337105, Note_on_c, 0, 70, 37
2, 337114, Note_on_c, 0, 73, 26
2, 337116, Note_on_c, 0, 76, 29
2, 337122, Note_on_c, 0, 67, 27
2, 337131, Control_c, 0, 64, 0
2, 337134, Note_on_c, 0, 61, 33
2, 337738, Control_c, 0, 64, 127
2, 338055, Note_on_c, 0, 61, 0
2, 338075, Note_on_c, 0, 70, 0
2, 338098, Note_on_c, 0, 73, 0
2, 338300, Note_on_c, 0, 76, 0
2, 338308, Note_on_c, 0, 67, 0
2, 340598, Note_on_c, 0, 73, 31
2, 340630, Note_on_c, 0, 70, 34
2, 340644, Note_on_c, 0, 67, 36
2, 340653, Control_c, 0, 64, 0
2, 340656, Note_on_c, 0, 64, 34
2, 340676, Note_on_c, 0, 58, 34
2, 341233, Control_c, 0, 64, 127
2, 341769, Note_on_c, 0, 58, 0
2, 341829, Note_on_c, 0, 67, 0
2, 342275, Note_on_c, 0, 64, 0
2, 342692, Note_on_c, 0, 73, 0
2, 342851, Control_c, 0, 64, 0
2, 342859, Note_on_c, 0, 70, 0
2, 342946, Note_on_c, 0, 74, 57
2, 342951, Note_on_c, 0, 50, 47
2, 342982, Note_on_c, 0, 65, 41
2, 343020, Note_on_c, 0, 69, 52
2, 343250, Note_on_c, 0, 60, 9
2, 343397, Control_c, 0, 64, 127
2, 343749, Note_on_c, 0, 74, 0
2, 343864, Note_on_c, 0, 69, 0
2, 344080, Note_on_c, 0, 65, 0
2, 344276, Note_on_c, 0, 60, 0
2, 344287, Note_on_c, 0, 76, 56
2, 344342, Note_on_c, 0, 65, 57
2, 344345, Note_on_c, 0, 72, 36
2, 344356, Note_on_c, 0, 57, 41
2, 344778, Note_on_c, 0, 72, 0
2, 344864, Note_on_c, 0, 65, 0
2, 344881, Note_on_c, 0, 76, 0
2, 345627, Note_on_c, 0, 77, 53
2, 345682, Note_on_c, 0, 65, 47
2, 345688, Note_on_c, 0, 72, 35
2, 345771, Note_on_c, 0, 57, 0
2, 345780, Note_on_c, 0, 60, 22
2, 346021, Note_on_c, 0, 65, 0
2, 346255, Note_on_c, 0, 72, 0
2, 346275, Note_on_c, 0, 77, 0
2, 346961, Note_on_c, 0, 60, 0
2, 347113, Note_on_c, 0, 79, 43
2, 347145, Note_on_c, 0, 76, 54
2, 347156, Note_on_c, 0, 67, 41
2, 347251, Note_on_c, 0, 57, 28
2, 347361, Note_on_c, 0, 57, 0
2, 347458, Note_on_c, 0, 50, 0
2, 347878, Note_on_c, 0, 67, 0
2, 348100, Note_on_c, 0, 76, 0
2, 348103, Note_on_c, 0, 79, 0
2, 348881, Control_c, 0, 64, 0
2, 349010, Note_on_c, 0, 81, 49
2, 349038, Note_on_c, 0, 31, 37
2, 349053, Note_on_c, 0, 77, 43
2, 349067, Note_on_c, 0, 69, 36
2, 349079, Note_on_c, 0, 43, 16
2, 349315, Control_c, 0, 64, 127
2, 349433, Note_on_c, 0, 43, 0
2, 349467, Note_on_c, 0, 31, 0
2, 349779, Note_on_c, 0, 69, 0
2, 349977, Note_on_c, 0, 77, 0
2, 350084, Note_on_c, 0, 81, 0
2, 351063, Note_on_c, 0, 83, 44
2, 351129, Note_on_c, 0, 71, 32
2, 351138, Note_on_c, 0, 64, 27
2, 351141, Note_on_c, 0, 79, 37
2, 351147, Note_on_c, 0, 76, 45
2, 351170, Note_on_c, 0, 53, 24
2, 351173, Note_on_c, 0, 59, 34
2, 352352, Note_on_c, 0, 59, 0
2, 352419, Note_on_c, 0, 71, 0
2, 352427, Note_on_c, 0, 76, 0
2, 352450, Note_on_c, 0, 64, 0
2, 352505, Note_on_c, 0, 79, 0
2, 352735, Note_on_c, 0, 53, 0
2, 352778, Note_on_c, 0, 83, 0
2, 353820, Note_on_c, 0, 84, 36
2, 353875, Note_on_c, 0, 72, 26
2, 353890, Note_on_c, 0, 79, 32
2, 353935, Note_on_c, 0, 64, 31
2, 353961, Note_on_c, 0, 59, 25
2, 354010, Note_on_c, 0, 53, 20
2, 356105, Note_on_c, 0, 72, 0
2, 356301, Note_on_c, 0, 79, 0
2, 356344, Note_on_c, 0, 84, 0
2, 357275, Note_on_c, 0, 86, 52
2, 357329, Note_on_c, 0, 74, 31
2, 357373, Note_on_c, 0, 64, 0
2, 357519, Note_on_c, 0, 59, 0
2, 357802, Note_on_c, 0, 53, 0
2, 359492, Note_on_c, 0, 74, 0
2, 360354, Note_on_c, 0, 86, 0
2, 361266, Control_c, 0, 64, 0
2, 361350, Note_on_c, 0, 84, 40
2, 361399, Note_on_c, 0, 72, 24
2, 361427, Note_on_c, 0, 36, 34
2, 361817, Control_c, 0, 64, 127
2, 361956, Note_on_c, 0, 72, 0
2, 362321, Note_on_c, 0, 84, 0
2, 362473, Note_on_c, 0, 36, 0
2, 362490, Note_on_c, 0, 43, 36
2, 362617, Note_on_c, 0, 43, 0
2, 363612, Note_on_c, 0, 62, 43
2, 363658, Note_on_c, 0, 91, 52
2, 363727, Note_on_c, 0, 83, 42
2, 364235, Note_on_c, 0, 91, 0
2, 364431, Note_on_c, 0, 83, 0
2, 364850, Note_on_c, 0, 64, 27
2, 366072, Note_on_c, 0, 67, 40
2, 366092, Note_on_c, 0, 79, 36
2, 366112, Note_on_c, 0, 76, 26
2, 367325, Note_on_c, 0, 64, 0
2, 367976, Note_on_c, 0, 79, 0
2, 368336, Note_on_c, 0, 76, 0
2, 368587, Note_on_c, 0, 64, 31
2, 369085, Note_on_c, 0, 67, 0
2, 369955, Note_on_c, 0, 64, 0
2, 370099, Note_on_c, 0, 69, 40
2, 370113, Note_on_c, 0, 62, 0
2, 370611, Note_on_c, 0, 69, 0
2, 372167, Note_on_c, 0, 57, 30
2, 372173, Note_on_c, 0, 53, 24
2, 372178, Note_on_c, 0, 43, 29
2, 372196, Note_on_c, 0, 60, 34
2, 372207, Control_c, 0, 64, 0
2, 372253, Note_on_c, 0, 50, 24
2, 372812, Control_c, 0, 64, 127
2, 373092, Note_on_c, 0, 53, 0
2, 373210, Note_on_c, 0, 57, 0
2, 373273, Note_on_c, 0, 60, 0
2, 374239, Note_on_c, 0, 69, 58
2, 375426, Note_on_c, 0, 69, 0
2, 375786, Note_on_c, 0, 69, 47
2, 376949, Note_on_c, 0, 43, 0
2, 377266, Note_on_c, 0, 76, 44
2, 377390, Note_on_c, 0, 50, 0
2, 378056, Note_on_c, 0, 69, 0
2, 379179, Note_on_c, 0, 76, 0
2, 380232, Note_on_c, 0, 76, 60
2, 380264, Note_on_c, 0, 71, 64
2, 380274, Note_on_c, 0, 68, 50
2, 380282, Note_on_c, 0, 74, 55
2, 380290, Control_c, 0, 64, 0
2, 380314, Note_on_c, 0, 64, 44
2, 380324, Note_on_c, 0, 59, 44
2, 380332, Note_on_c, 0, 53, 33
2, 380732, Control_c, 0, 64, 127
2, 381302, Note_on_c, 0, 64, 0
2, 381388, Note_on_c, 0, 71, 0
2, 381402, Note_on_c, 0, 74, 0
2, 381404, Note_on_c, 0, 68, 0
2, 381418, Note_on_c, 0, 59, 0
2, 381480, Note_on_c, 0, 76, 0
2, 381488, Note_on_c, 0, 53, 0
2, 382184, Note_on_c, 0, 77, 74
2, 382234, Control_c, 0, 64, 0
2, 382238, Note_on_c, 0, 74, 69
2, 382256, Note_on_c, 0, 53, 52
2, 382264, Note_on_c, 0, 71, 66
2, 382284, Note_on_c, 0, 59, 51
2, 382286, Note_on_c, 0, 65, 58
2, 382536, Control_c, 0, 64, 127
2, 382828, Note_on_c, 0, 53, 0
2, 382858, Note_on_c, 0, 59, 0
2, 383151, Control_c, 0, 64, 0
2, 383172, Note_on_c, 0, 65, 0
2, 383211, Note_on_c, 0, 43, 30
2, 383223, Note_on_c, 0, 71, 40
2, 383270, Note_on_c, 0, 71, 0
2, 383306, Note_on_c, 0, 68, 28
2, 383326, Note_on_c, 0, 65, 31
2, 383346, Note_on_c, 0, 55, 20
2, 383364, Note_on_c, 0, 74, 0
2, 383410, Note_on_c, 0, 77, 0
2, 384130, Note_on_c, 0, 79, 53
2, 384188, Note_on_c, 0, 74, 61
2, 384200, Control_c, 0, 64, 0
2, 384232, Note_on_c, 0, 52, 30
2, 384242, Note_on_c, 0, 62, 29
2, 384244, Note_on_c, 0, 67, 51
2, 384250, Note_on_c, 0, 59, 24
2, 384276, Note_on_c, 0, 55, 30
2, 384568, Note_on_c, 0, 65, 0
2, 384586, Note_on_c, 0, 55, 0
2, 384617, Note_on_c, 0, 43, 0
2, 384620, Note_on_c, 0, 68, 0
2, 384658, Note_on_c, 0, 71, 0
2, 384680, Control_c, 0, 64, 127
2, 385072, Note_on_c, 0, 52, 0
2, 385086, Note_on_c, 0, 55, 0
2, 385152, Note_on_c, 0, 59, 0
2, 385234, Note_on_c, 0, 62, 0
2, 385320, Note_on_c, 0, 67, 0
2, 385742, Note_on_c, 0, 74, 0
2, 385816, Note_on_c, 0, 79, 0
2, 386004, Note_on_c, 0, 64, 36
2, 386030, Note_on_c, 0, 57, 42
2, 386044, Control_c, 0, 64, 0
2, 386046, Note_on_c, 0, 53, 35
2, 386050, Note_on_c, 0, 60, 42
2, 386486, Control_c, 0, 64, 127
2, 386686, Control_c, 0, 64, 0
2, 386926, Control_c, 0, 64, 127
2, 387198, Note_on_c, 0, 57, 0
2, 387218, Note_on_c, 0, 60, 0
2, 387252, Note_on_c, 0, 64, 0
2, 387276, Note_on_c, 0, 76, 66
2, 387280, Note_on_c, 0, 53, 0
2, 387446, Note_on_c, 0, 76, 0
2, 387588, Note_on_c, 0, 77, 77
2, 387802, Note_on_c, 0, 77, 0
2, 387890, Control_c, 0, 64, 0
2, 387936, Note_on_c, 0, 62, 68
2, 387938, Note_on_c, 0, 79, 95
2, 387940, Note_on_c, 0, 59, 54
2, 387954, Note_on_c, 0, 52, 51
2, 387964, Note_on_c, 0, 55, 60
2, 388792, Control_c, 0, 64, 127
2, 388794, Note_on_c, 0, 52, 0
2, 388822, Note_on_c, 0, 79, 0
2, 388848, Note_on_c, 0, 55, 0
2, 388876, Note_on_c, 0, 62, 0
2, 388898, Note_on_c, 0, 59, 0
2, 389454, Control_c, 0, 64, 0
2, 389512, Note_on_c, 0, 81, 64
2, 389696, Note_on_c, 0, 81, 0
2, 389884, Note_on_c, 0, 83, 56
2, 390062, Note_on_c, 0, 83, 0
2, 390830, Note_on_c, 0, 61, 32
2, 390834, Note_on_c, 0, 64, 29
2, 390836, Note_on_c, 0, 84, 57
2, 390852, Note_on_c, 0, 72, 33
2, 390870, Note_on_c, 0, 58, 33
2, 390884, Note_on_c, 0, 55, 25
2, 391004, Note_on_c, 0, 84, 0
2, 391040, Note_on_c, 0, 72, 0
2, 391072, Note_on_c, 0, 55, 0
2, 391102, Note_on_c, 0, 64, 0
2, 391132, Note_on_c, 0, 58, 0
2, 391166, Note_on_c, 0, 61, 0
2, 391794, Note_on_c, 0, 53, 26
2, 391802, Note_on_c, 0, 84, 57
2, 391812, Note_on_c, 0, 64, 33
2, 391818, Note_on_c, 0, 72, 33
2, 391830, Note_on_c, 0, 57, 41
2, 391838, Note_on_c, 0, 60, 39
2, 392522, Control_c, 0, 64, 127
2, 392750, Note_on_c, 0, 84, 0
2, 392830, Note_on_c, 0, 72, 0
2, 392834, Note_on_c, 0, 60, 0
2, 392860, Note_on_c, 0, 64, 0
2, 392974, Note_on_c, 0, 57, 0
2, 393004, Note_on_c, 0, 53, 0
2, 393564, Control_c, 0, 64, 0
2, 393658, Note_on_c, 0, 74, 87
2, 393660, Note_on_c, 0, 78, 69
2, 393662, Note_on_c, 0, 83, 80
2, 393664, Note_on_c, 0, 53, 69
2, 393668, Note_on_c, 0, 59, 66
2, 393672, Note_on_c, 0, 64, 64
2, 394288, Note_on_c, 0, 74, 0
2, 394290, Note_on_c, 0, 78, 0
2, 394298, Note_on_c, 0, 79, 30
2, 394334, Note_on_c, 0, 83, 0
2, 394338, Note_on_c, 0, 53, 0
2, 394356, Note_on_c, 0, 64, 0
2, 394382, Note_on_c, 0, 79, 0
2, 394418, Note_on_c, 0, 59, 0
2, 395288, Note_on_c, 0, 53, 55
2, 395290, Note_on_c, 0, 81, 63
2, 395292, Note_on_c, 0, 59, 50
2, 395294, Note_on_c, 0, 71, 68
2, 395300, Note_on_c, 0, 77, 54
2, 395302, Note_on_c, 0, 64, 44
2, 395398, Note_on_c, 0, 64, 0
2, 395426, Note_on_c, 0, 71, 0
2, 395444, Note_on_c, 0, 59, 0
2, 395458, Note_on_c, 0, 77, 0
2, 395472, Note_on_c, 0, 81, 0
2, 395514, Note_on_c, 0, 53, 0
2, 396212, Note_on_c, 0, 79, 62
2, 396236, Note_on_c, 0, 74, 60
2, 396240, Note_on_c, 0, 67, 49
2, 396248, Note_on_c, 0, 62, 57
2, 396262, Note_on_c, 0, 55, 44
2, 396280, Note_on_c, 0, 59, 36
2, 396330, Note_on_c, 0, 67, 0
2, 396346, Note_on_c, 0, 74, 0
2, 396362, Note_on_c, 0, 62, 0
2, 396378, Note_on_c, 0, 59, 0
2, 396388, Note_on_c, 0, 55, 0
2, 396394, Note_on_c, 0, 79, 0
2, 397474, Note_on_c, 0, 62, 43
2, 397478, Note_on_c, 0, 72, 43
2, 397482, Note_on_c, 0, 67, 46
2, 397514, Note_on_c, 0, 56, 37
2, 397772, Note_on_c, 0, 67, 0
2, 397818, Note_on_c, 0, 72, 0
2, 397820, Note_on_c, 0, 56, 0
2, 397884, Note_on_c, 0, 62, 0
2, 398148, Note_on_c, 0, 72, 59
2, 398174, Note_on_c, 0, 67, 50
2, 398180, Note_on_c, 0, 56, 45
2, 398186, Note_on_c, 0, 62, 46
2, 398280, Note_on_c, 0, 67, 0
2, 398352, Note_on_c, 0, 72, 0
2, 398378, Note_on_c, 0, 62, 0
2, 398472, Note_on_c, 0, 62, 26
2, 398498, Note_on_c, 0, 74, 60
2, 398764, Note_on_c, 0, 62, 0
2, 398996, Note_on_c, 0, 56, 0
2, 399208, Control_c, 0, 64, 127
2, 399216, Note_on_c, 0, 74, 0
2, 399228, Control_c, 0, 64, 0
2, 399450, Note_on_c, 0, 76, 44
2, 399452, Note_on_c, 0, 67, 39
2, 399458, Note_on_c, 0, 64, 30
2, 399462, Note_on_c, 0, 57, 32
2, 399464, Note_on_c, 0, 72, 26
2, 399472, Note_on_c, 0, 60, 38
2, 399896, Control_c, 0, 64, 127
2, 400344, Note_on_c, 0, 60, 0
2, 400404, Note_on_c, 0, 67, 0
2, 400424, Note_on_c, 0, 57, 0
2, 400434, Note_on_c, 0, 64, 0
2, 400620, Note_on_c, 0, 72, 0
2, 400746, Note_on_c, 0, 76, 0
2, 401398, Control_c, 0, 64, 0
2, 401432, Note_on_c, 0, 84, 78
2, 401440, Note_on_c, 0, 67, 38
2, 401442, Note_on_c, 0, 76, 66
2, 401450, Note_on_c, 0, 56, 31
2, 401460, Note_on_c, 0, 62, 47
2, 401720, Control_c, 0, 64, 127
2, 402120, Note_on_c, 0, 84, 0
2, 402276, Note_on_c, 0, 76, 0
2, 402332, Note_on_c, 0, 62, 0
2, 402352, Note_on_c, 0, 67, 0
2, 402550, Note_on_c, 0, 56, 0
2, 402902, Note_on_c, 0, 86, 80
2, 402920, Note_on_c, 0, 77, 68
2, 403208, Note_on_c, 0, 77, 0
2, 403242, Note_on_c, 0, 86, 0
2, 403284, Control_c, 0, 64, 0
2, 403374, Note_on_c, 0, 57, 39
2, 403376, Note_on_c, 0, 60, 41
2, 403388, Note_on_c, 0, 64, 33
2, 403512, Note_on_c, 0, 88, 75
2, 403528, Note_on_c, 0, 79, 68
2, 403604, Control_c, 0, 64, 127
2, 403982, Note_on_c, 0, 79, 0
2, 404028, Note_on_c, 0, 88, 0
2, 404254, Note_on_c, 0, 60, 0
2, 404282, Note_on_c, 0, 81, 66
2, 404290, Note_on_c, 0, 89, 57
2, 404298, Note_on_c, 0, 64, 0
2, 404316, Note_on_c, 0, 57, 0
2, 404474, Note_on_c, 0, 81, 0
2, 404524, Note_on_c, 0, 89, 0
2, 404988, Control_c, 0, 64, 0
2, 404992, Note_on_c, 0, 91, 56
2, 405002, Note_on_c, 0, 66, 50
2, 405004, Note_on_c, 0, 61, 48
2, 405014, Note_on_c, 0, 81, 45
2, 405024, Note_on_c, 0, 55, 51
2, 405118, Note_on_c, 0, 55, 0
2, 405162, Note_on_c, 0, 66, 0
2, 405190, Note_on_c, 0, 81, 0
2, 405208, Note_on_c, 0, 61, 0
2, 405226, Note_on_c, 0, 91, 0
2, 405958, Note_on_c, 0, 93, 66
2, 405962, Note_on_c, 0, 81, 53
2, 405968, Note_on_c, 0, 55, 50
2, 405986, Note_on_c, 0, 61, 46
2, 405988, Note_on_c, 0, 65, 37
2, 406192, Control_c, 0, 64, 127
2, 406548, Note_on_c, 0, 55, 0
2, 406604, Note_on_c, 0, 65, 0
2, 406792, Note_on_c, 0, 61, 0
2, 406820, Note_on_c, 0, 93, 0
2, 406842, Note_on_c, 0, 81, 0
2, 407160, Note_on_c, 0, 53, 29
2, 407162, Note_on_c, 0, 93, 51
2, 407168, Note_on_c, 0, 81, 40
2, 407186, Note_on_c, 0, 64, 35
2, 407194, Control_c, 0, 64, 0
2, 407198, Note_on_c, 0, 60, 40
2, 407204, Note_on_c, 0, 89, 40
2, 407208, Note_on_c, 0, 57, 46
2, 407554, Control_c, 0, 64, 127
2, 407982, Note_on_c, 0, 60, 0
2, 407994, Note_on_c, 0, 64, 0
2, 408042, Note_on_c, 0, 81, 0
2, 408124, Note_on_c, 0, 93, 0
2, 408128, Note_on_c, 0, 89, 0
2, 408130, Note_on_c, 0, 57, 0
2, 408254, Note_on_c, 0, 53, 0
2, 409032, Note_on_c, 0, 53, 80
2, 409036, Note_on_c, 0, 59, 77
2, 409040, Control_c, 0, 64, 0
2, 409044, Note_on_c, 0, 64, 79
2, 409048, Note_on_c, 0, 95, 83
2, 409050, Note_on_c, 0, 90, 83
2, 409052, Note_on_c, 0, 83, 89
2, 409588, Note_on_c, 0, 91, 52
2, 409618, Note_on_c, 0, 90, 0
2, 409646, Note_on_c, 0, 53, 0
2, 409676, Note_on_c, 0, 91, 0
2, 409692, Note_on_c, 0, 95, 0
2, 409694, Note_on_c, 0, 64, 0
2, 409696, Note_on_c, 0, 83, 0
2, 409722, Note_on_c, 0, 59, 0
2, 409968, Note_on_c, 0, 93, 75
2, 409986, Note_on_c, 0, 81, 64
2, 409990, Note_on_c, 0, 53, 59
2, 410010, Note_on_c, 0, 89, 58
2, 410012, Note_on_c, 0, 59, 63
2, 410020, Note_on_c, 0, 64, 57
2, 410440, Note_on_c, 0, 93, 0
2, 410444, Note_on_c, 0, 89, 0
2, 410450, Note_on_c, 0, 81, 0
2, 410452, Note_on_c, 0, 64, 0
2, 410478, Note_on_c, 0, 53, 0
2, 410532, Note_on_c, 0, 59, 0
2, 410652, Note_on_c, 0, 91, 50
2, 410698, Note_on_c, 0, 79, 56
2, 410700, Note_on_c, 0, 59, 55
2, 410702, Note_on_c, 0, 88, 56
2, 410734, Note_on_c, 0, 52, 57
2, 410742, Note_on_c, 0, 62, 60
2, 410760, Note_on_c, 0, 55, 58
2, 410972, Note_on_c, 0, 91, 0
2, 410974, Note_on_c, 0, 88, 0
2, 411032, Note_on_c, 0, 79, 0
2, 411038, Note_on_c, 0, 62, 0
2, 411062, Note_on_c, 0, 55, 0
2, 411092, Note_on_c, 0, 52, 0
2, 411128, Note_on_c, 0, 59, 0
2, 411250, Note_on_c, 0, 89, 47
2, 411298, Note_on_c, 0, 86, 62
2, 411310, Note_on_c, 0, 77, 48
2, 411328, Note_on_c, 0, 59, 31
2, 411336, Note_on_c, 0, 62, 40
2, 411338, Note_on_c, 0, 52, 35
2, 411372, Note_on_c, 0, 55, 43
2, 411430, Control_c, 0, 64, 127
2, 411552, Note_on_c, 0, 86, 0
2, 411596, Note_on_c, 0, 62, 0
2, 411608, Note_on_c, 0, 55, 0
2, 411652, Note_on_c, 0, 52, 0
2, 411662, Note_on_c, 0, 89, 0
2, 411708, Note_on_c, 0, 77, 0
2, 411716, Note_on_c, 0, 59, 0
2, 411730, Control_c, 0, 64, 0
2, 411962, Note_on_c, 0, 88, 48
2, 411986, Note_on_c, 0, 84, 52
2, 411990, Note_on_c, 0, 62, 46
2, 411994, Note_on_c, 0, 76, 37
2, 412006, Note_on_c, 0, 52, 34
2, 412010, Note_on_c, 0, 59, 26
2, 412024, Note_on_c, 0, 55, 45
2, 412112, Control_c, 0, 64, 127
2, 412138, Note_on_c, 0, 59, 0
2, 412174, Note_on_c, 0, 62, 0
2, 412190, Note_on_c, 0, 84, 0
2, 412192, Note_on_c, 0, 52, 0
2, 412218, Note_on_c, 0, 55, 0
2, 412240, Note_on_c, 0, 76, 0
2, 412294, Note_on_c, 0, 88, 0
2, 412652, Control_c, 0, 64, 0
2, 412656, Note_on_c, 0, 62, 58
2, 412664, Note_on_c, 0, 88, 48
2, 412666, Note_on_c, 0, 80, 45
2, 412670, Note_on_c, 0, 76, 55
2, 412688, Note_on_c, 0, 84, 50
2, 412690, Note_on_c, 0, 52, 41
2, 412706, Note_on_c, 0, 58, 44
2, 413174, Control_c, 0, 64, 127
2, 413710, Note_on_c, 0, 84, 0
2, 413724, Note_on_c, 0, 88, 0
2, 413870, Note_on_c, 0, 80, 0
2, 413890, Note_on_c, 0, 76, 0
2, 414054, Note_on_c, 0, 62, 0
2, 414154, Note_on_c, 0, 52, 0
2, 414202, Note_on_c, 0, 58, 0
2, 414486, Note_on_c, 0, 73, 63
2, 414500, Note_on_c, 0, 63, 71
2, 414502, Note_on_c, 0, 68, 71
2, 414526, Note_on_c, 0, 58, 82
2, 414598, Control_c, 0, 64, 0
2, 414788, Note_on_c, 0, 63, 0
2, 414816, Note_on_c, 0, 68, 0
2, 414888, Note_on_c, 0, 58, 0
2, 414894, Note_on_c, 0, 73, 0
2, 415014, Note_on_c, 0, 67, 31
2, 415016, Note_on_c, 0, 72, 43
2, 415032, Note_on_c, 0, 57, 51
2, 415042, Note_on_c, 0, 62, 51
2, 415480, Control_c, 0, 64, 127
2, 415784, Note_on_c, 0, 67, 0
2, 415806, Note_on_c, 0, 72, 0
2, 416018, Note_on_c, 0, 62, 0
2, 416320, Note_on_c, 0, 57, 0
2, 416398, Note_on_c, 0, 69, 64
2, 416424, Note_on_c, 0, 64, 61
2, 416430, Note_on_c, 0, 60, 48
2, 416434, Note_on_c, 0, 53, 47
2, 416462, Control_c, 0, 64, 0
2, 416598, Note_on_c, 0, 60, 0
2, 416624, Note_on_c, 0, 53, 0
2, 416642, Note_on_c, 0, 64, 0
2, 416676, Note_on_c, 0, 69, 0
2, 416888, Note_on_c, 0, 46, 36
2, 416910, Note_on_c, 0, 64, 42
2, 416918, Note_on_c, 0, 56, 34
2, 416926, Note_on_c, 0, 60, 33
2, 416940, Note_on_c, 0, 67, 33
2, 417304, Control_c, 0, 64, 127
2, 417792, Note_on_c, 0, 56, 0
2, 417888, Note_on_c, 0, 64, 0
2, 417892, Note_on_c, 0, 46, 0
2, 417942, Note_on_c, 0, 67, 0
2, 418008, Note_on_c, 0, 60, 0
2, 418422, Note_on_c, 0, 51, 26
2, 418628, Control_c, 0, 64, 0
2, 418658, Note_on_c, 0, 51, 0
2, 418668, Note_on_c, 0, 52, 46
2, 418676, Note_on_c, 0, 67, 40
2, 418680, Note_on_c, 0, 62, 48
2, 418696, Note_on_c, 0, 57, 33
2, 419130, Control_c, 0, 64, 127
2, 419388, Note_on_c, 0, 52, 0
2, 419566, Note_on_c, 0, 57, 0
2, 419734, Note_on_c, 0, 62, 0
2, 419820, Note_on_c, 0, 67, 0
2, 420682, Note_on_c, 0, 48, 36
2, 420702, Note_on_c, 0, 61, 35
2, 420714, Control_c, 0, 64, 0
2, 420720, Note_on_c, 0, 58, 23
2, 420722, Note_on_c, 0, 64, 34
2, 420780, Note_on_c, 0, 55, 34
2, 421254, Note_on_c, 0, 58, 0
2, 421262, Note_on_c, 0, 64, 0
2, 421288, Note_on_c, 0, 61, 0
2, 421304, Note_on_c, 0, 55, 0
2, 421436, Note_on_c, 0, 55, 57
2, 421438, Note_on_c, 0, 67, 62
2, 421440, Note_on_c, 0, 61, 68
2, 421444, Note_on_c, 0, 58, 69
2, 421460, Note_on_c, 0, 64, 64
2, 421606, Note_on_c, 0, 48, 0
2, 421640, Note_on_c, 0, 67, 0
2, 421662, Note_on_c, 0, 58, 0
2, 421672, Note_on_c, 0, 55, 0
2, 421698, Note_on_c, 0, 64, 0
2, 421748, Note_on_c, 0, 52, 54
2, 421770, Note_on_c, 0, 61, 0
2, 422238, Control_c, 0, 64, 127
2, 422332, Note_on_c, 0, 52, 0
2, 422518, Control_c, 0, 64, 0
2, 422624, Note_on_c, 0, 48, 45
2, 422646, Note_on_c, 0, 55, 50
2, 422654, Note_on_c, 0, 60, 52
2, 422670, Note_on_c, 0, 57, 53
2, 422960, Control_c, 0, 64, 127
2, 423080, Note_on_c, 0, 55, 0
2, 423272, Note_on_c, 0, 57, 0
2, 423408, Note_on_c, 0, 60, 0
2, 423456, Note_on_c, 0, 48, 0
2, 424454, Note_on_c, 0, 72, 44
2, 424458, Note_on_c, 0, 84, 63
2, 424460, Note_on_c, 0, 79, 61
2, 424466, Control_c, 0, 64, 0
2, 424500, Note_on_c, 0, 62, 56
2, 424502, Note_on_c, 0, 67, 57
2, 424506, Note_on_c, 0, 56, 46
2, 424868, Control_c, 0, 64, 127
2, 425272, Note_on_c, 0, 62, 0
2, 425292, Note_on_c, 0, 67, 0
2, 425394, Note_on_c, 0, 84, 0
2, 425464, Note_on_c, 0, 79, 0
2, 425492, Note_on_c, 0, 56, 0
2, 425532, Note_on_c, 0, 72, 0
2, 426288, Note_on_c, 0, 79, 45
2, 426336, Note_on_c, 0, 72, 34
2, 426360, Note_on_c, 0, 55, 35
2, 426372, Note_on_c, 0, 67, 33
2, 426382, Note_on_c, 0, 64, 30
2, 426392, Control_c, 0, 64, 0
2, 426412, Note_on_c, 0, 60, 35
2, 426974, Control_c, 0, 64, 127
2, 427054, Note_on_c, 0, 67, 0
2, 427062, Note_on_c, 0, 64, 0
2, 427076, Note_on_c, 0, 60, 0
2, 427096, Note_on_c, 0, 55, 0
2, 427150, Note_on_c, 0, 72, 0
2, 427232, Note_on_c, 0, 79, 0
2, 428138, Control_c, 0, 64, 0
2, 428186, Note_on_c, 0, 84, 72
2, 428196, Note_on_c, 0, 64, 62
2, 428204, Note_on_c, 0, 60, 53
2, 428210, Note_on_c, 0, 72, 53
2, 428212, Note_on_c, 0, 79, 63
2, 428226, Note_on_c, 0, 55, 46
2, 428262, Note_on_c, 0, 64, 0
2, 428278, Note_on_c, 0, 60, 0
2, 428280, Note_on_c, 0, 79, 0
2, 428286, Note_on_c, 0, 72, 0
2, 428302, Note_on_c, 0, 55, 0
2, 428342, Note_on_c, 0, 84, 0
2, 428824, Note_on_c, 0, 83, 57
2, 428826, Note_on_c, 0, 71, 66
2, 428876, Note_on_c, 0, 60, 48
2, 428896, Note_on_c, 0, 55, 38
2, 428904, Note_on_c, 0, 71, 0
2, 428940, Note_on_c, 0, 83, 0
2, 428960, Note_on_c, 0, 60, 0
2, 428972, Note_on_c, 0, 55, 0
2, 429138, Note_on_c, 0, 55, 59
2, 429160, Note_on_c, 0, 64, 44
2, 429168, Note_on_c, 0, 84, 74
2, 429170, Note_on_c, 0, 60, 49
2, 429172, Note_on_c, 0, 72, 60
2, 429326, Note_on_c, 0, 84, 0
2, 429330, Note_on_c, 0, 72, 0
2, 429652, Note_on_c, 0, 55, 0
2, 429752, Note_on_c, 0, 64, 0
2, 429842, Note_on_c, 0, 60, 0
2, 430118, Note_on_c, 0, 64, 48
2, 430126, Note_on_c, 0, 83, 54
2, 430136, Note_on_c, 0, 60, 44
2, 430144, Note_on_c, 0, 71, 59
2, 430150, Note_on_c, 0, 54, 31
2, 430214, Note_on_c, 0, 64, 0
2, 430218, Note_on_c, 0, 60, 0
2, 430246, Note_on_c, 0, 71, 0
2, 430282, Note_on_c, 0, 83, 0
2, 430300, Note_on_c, 0, 54, 0
2, 430770, Note_on_c, 0, 81, 47
2, 430802, Note_on_c, 0, 69, 36
2, 430882, Note_on_c, 0, 69, 0
2, 430886, Note_on_c, 0, 81, 0
2, 431058, Note_on_c, 0, 54, 51
2, 431070, Note_on_c, 0, 71, 64
2, 431072, Note_on_c, 0, 83, 66
2, 431092, Note_on_c, 0, 64, 46
2, 431126, Note_on_c, 0, 60, 40
2, 431294, Note_on_c, 0, 60, 0
2, 431428, Note_on_c, 0, 64, 0
2, 431612, Note_on_c, 0, 54, 0
2, 431646, Control_c, 0, 64, 127
2, 432022, Note_on_c, 0, 51, 37
2, 432034, Note_on_c, 0, 62, 35
2, 432106, Note_on_c, 0, 57, 36
2, 432148, Note_on_c, 0, 83, 0
2, 432718, Note_on_c, 0, 57, 0
2, 432824, Note_on_c, 0, 71, 0
2, 432826, Note_on_c, 0, 62, 0
2, 432912, Note_on_c, 0, 51, 0
2, 433472, Control_c, 0, 64, 0
2, 433632, Control_c, 0, 64, 127
2, 433674, Note_on_c, 0, 51, 46
2, 433694, Note_on_c, 0, 62, 40
2, 433696, Note_on_c, 0, 81, 71
2, 433700, Note_on_c, 0, 75, 74
2, 433718, Note_on_c, 0, 69, 76
2, 433770, Note_on_c, 0, 51, 0
2, 433814, Note_on_c, 0, 62, 0
2, 433842, Note_on_c, 0, 75, 0
2, 433848, Note_on_c, 0, 69, 0
2, 433868, Note_on_c, 0, 81, 0
2, 434012, Control_c, 0, 64, 0
2, 434116, Note_on_c, 0, 62, 54
2, 434120, Note_on_c, 0, 52, 34
2, 434124, Note_on_c, 0, 79, 60
2, 434142, Note_on_c, 0, 55, 46
2, 434152, Note_on_c, 0, 67, 49
2, 434196, Note_on_c, 0, 62, 0
2, 434250, Note_on_c, 0, 67, 0
2, 434254, Note_on_c, 0, 52, 0
2, 434260, Note_on_c, 0, 55, 0
2, 434292, Note_on_c, 0, 79, 0
2, 434760, Note_on_c, 0, 79, 66
2, 434766, Note_on_c, 0, 67, 68
2, 434804, Note_on_c, 0, 62, 57
2, 434816, Note_on_c, 0, 55, 46
2, 434836, Note_on_c, 0, 67, 0
2, 434874, Note_on_c, 0, 62, 0
2, 434906, Note_on_c, 0, 55, 0
2, 434942, Note_on_c, 0, 79, 0
2, 435176, Control_c, 0, 64, 127
2, 435638, Note_on_c, 0, 76, 89
2, 435642, Note_on_c, 0, 84, 83
2, 435648, Note_on_c, 0, 72, 75
2, 435650, Note_on_c, 0, 79, 70
2, 435656, Control_c, 0, 64, 0
2, 435658, Note_on_c, 0, 56, 75
2, 435664, Note_on_c, 0, 67, 82
2, 435672, Note_on_c, 0, 62, 80
2, 435856, Note_on_c, 0, 67, 0
2, 435882, Note_on_c, 0, 79, 0
2, 435890, Note_on_c, 0, 76, 0
2, 435910, Note_on_c, 0, 72, 0
2, 435914, Note_on_c, 0, 62, 0
2, 435946, Note_on_c, 0, 56, 0
2, 435968, Note_on_c, 0, 84, 0
2, 436558, Note_on_c, 0, 84, 73
2, 436574, Note_on_c, 0, 79, 69
2, 436576, Note_on_c, 0, 76, 77
2, 436584, Note_on_c, 0, 72, 66
2, 436594, Note_on_c, 0, 56, 62
2, 436604, Note_on_c, 0, 67, 76
2, 436606, Note_on_c, 0, 62, 72
2, 436900, Control_c, 0, 64, 127
2, 437218, Note_on_c, 0, 62, 0
2, 437254, Note_on_c, 0, 67, 0
2, 437308, Note_on_c, 0, 84, 0
2, 437364, Note_on_c, 0, 76, 0
2, 437368, Note_on_c, 0, 72, 0
2, 437414, Note_on_c, 0, 79, 0
2, 437428, Note_on_c, 0, 56, 0
2, 437782, Control_c, 0, 64, 0
2, 437818, Note_on_c, 0, 64, 70
2, 437822, Note_on_c, 0, 60, 66
2, 437824, Note_on_c, 0, 83, 80
2, 437838, Note_on_c, 0, 55, 55
2, 437840, Note_on_c, 0, 76, 80
2, 437842, Note_on_c, 0, 71, 82
2, 437846, Note_on_c, 0, 79, 72
2, 437868, Note_on_c, 0, 59, 66
2, 438228, Control_c, 0, 64, 127
2, 438840, Note_on_c, 0, 79, 0
2, 438912, Note_on_c, 0, 59, 0
2, 438948, Note_on_c, 0, 64, 0
2, 438950, Note_on_c, 0, 76, 0
2, 438954, Note_on_c, 0, 60, 0
2, 438994, Note_on_c, 0, 71, 0
2, 439076, Note_on_c, 0, 55, 0
2, 439220, Note_on_c, 0, 83, 0
2, 439712, Control_c, 0, 64, 0
2, 439760, Note_on_c, 0, 80, 40
2, 439762, Note_on_c, 0, 83, 59
2, 439766, Note_on_c, 0, 71, 62
2, 439768, Note_on_c, 0, 60, 46
2, 439784, Note_on_c, 0, 54, 47
2, 439786, Note_on_c, 0, 64, 44
2, 439788, Note_on_c, 0, 76, 55
2, 440214, Control_c, 0, 64, 127
2, 440724, Note_on_c, 0, 64, 0
2, 440780, Note_on_c, 0, 80, 0
2, 440786, Note_on_c, 0, 83, 0
2, 440800, Note_on_c, 0, 60, 0
2, 440858, Note_on_c, 0, 54, 0
2, 440878, Note_on_c, 0, 76, 0
2, 440952, Note_on_c, 0, 71, 0
2, 441672, Note_on_c, 0, 79, 55
2, 441680, Note_on_c, 0, 76, 53
2, 441682, Note_on_c, 0, 69, 52
2, 441694, Note_on_c, 0, 72, 35
2, 441700, Control_c, 0, 64, 0
2, 441726, Note_on_c, 0, 64, 44
2, 442156, Note_on_c, 0, 76, 0
2, 442178, Control_c, 0, 64, 127
2, 442222, Note_on_c, 0, 72, 0
2, 442226, Note_on_c, 0, 79, 0
2, 442304, Note_on_c, 0, 69, 0
2, 442562, Note_on_c, 0, 72, 41
2, 442570, Note_on_c, 0, 64, 0
2, 442604, Note_on_c, 0, 69, 44
2, 442632, Note_on_c, 0, 65, 44
2, 442634, Note_on_c, 0, 53, 42
2, 442902, Note_on_c, 0, 72, 0
2, 442906, Note_on_c, 0, 69, 0
2, 442962, Note_on_c, 0, 53, 0
2, 443048, Note_on_c, 0, 65, 0
2, 443536, Note_on_c, 0, 68, 51
2, 443544, Note_on_c, 0, 59, 58
2, 443552, Note_on_c, 0, 63, 49
2, 443562, Control_c, 0, 64, 0
2, 443570, Note_on_c, 0, 53, 49
2, 443924, Control_c, 0, 64, 127
2, 444248, Note_on_c, 0, 63, 0
2, 444302, Note_on_c, 0, 59, 0
2, 444484, Control_c, 0, 64, 0
2, 444504, Note_on_c, 0, 43, 45
2, 444506, Note_on_c, 0, 68, 0
2, 444532, Note_on_c, 0, 63, 36
2, 444554, Note_on_c, 0, 59, 37
2, 444586, Note_on_c, 0, 53, 0
2, 444764, Control_c, 0, 64, 127
2, 445014, Note_on_c, 0, 59, 0
2, 445190, Note_on_c, 0, 63, 0
2, 445488, Control_c, 0, 64, 0
2, 445498, Note_on_c, 0, 67, 50
2, 445508, Note_on_c, 0, 62, 40
2, 445514, Note_on_c, 0, 57, 44
2, 445516, Note_on_c, 0, 52, 45
2, 445522, Note_on_c, 0, 59, 44
2, 445530, Note_on_c, 0, 43, 0
2, 445948, Control_c, 0, 64, 127
2, 446586, Note_on_c, 0, 67, 0
2, 446634, Note_on_c, 0, 52, 0
2, 446656, Note_on_c, 0, 62, 0
2, 446750, Note_on_c, 0, 59, 0
2, 446780, Note_on_c, 0, 57, 0
2, 447440, Note_on_c, 0, 64, 64
2, 447454, Note_on_c, 0, 55, 68
2, 447464, Note_on_c, 0, 60, 64
2, 447470, Note_on_c, 0, 41, 55
2, 447474, Control_c, 0, 64, 0
2, 447874, Control_c, 0, 64, 127
2, 447958, Note_on_c, 0, 41, 0
2, 448148, Note_on_c, 0, 64, 0
2, 448152, Note_on_c, 0, 55, 0
2, 448206, Note_on_c, 0, 60, 0
2, 448414, Note_on_c, 0, 65, 75
2, 448688, Note_on_c, 0, 65, 0
2, 449288, Note_on_c, 0, 40, 45
2, 449296, Control_c, 0, 64, 0
2, 449354, Note_on_c, 0, 47, 27
2, 449358, Note_on_c, 0, 67, 61
2, 449366, Note_on_c, 0, 59, 51
2, 449384, Note_on_c, 0, 62, 58
2, 449390, Note_on_c, 0, 55, 39
2, 449778, Control_c, 0, 64, 127
2, 449792, Note_on_c, 0, 67, 0
2, 450004, Note_on_c, 0, 40, 0
2, 450092, Note_on_c, 0, 47, 0
2, 450202, Note_on_c, 0, 55, 0
2, 450424, Note_on_c, 0, 59, 0
2, 450438, Note_on_c, 0, 62, 0
2, 450852, Note_on_c, 0, 69, 78
2, 451050, Note_on_c, 0, 69, 0
2, 451342, Control_c, 0, 64, 0
2, 451366, Note_on_c, 0, 71, 71
2, 451380, Note_on_c, 0, 66, 60
2, 451394, Note_on_c, 0, 60, 62
2, 451396, Note_on_c, 0, 59, 58
2, 451400, Note_on_c, 0, 63, 55
2, 451888, Control_c, 0, 64, 127
2, 452200, Note_on_c, 0, 60, 0
2, 452248, Note_on_c, 0, 66, 0
2, 452264, Note_on_c, 0, 71, 0
2, 452272, Note_on_c, 0, 63, 0
2, 452412, Note_on_c, 0, 59, 0
2, 452760, Note_on_c, 0, 72, 63
2, 453054, Note_on_c, 0, 72, 0
2, 453252, Control_c, 0, 64, 0
2, 453278, Note_on_c, 0, 72, 49
2, 453330, Note_on_c, 0, 69, 71
2, 453380, Note_on_c, 0, 60, 48
2, 453382, Note_on_c, 0, 65, 63
2, 453414, Note_on_c, 0, 64, 50
2, 453438, Note_on_c, 0, 71, 19
2, 453510, Note_on_c, 0, 71, 0
2, 453854, Control_c, 0, 64, 127
2, 454244, Note_on_c, 0, 64, 0
2, 454288, Note_on_c, 0, 60, 0
2, 454314, Note_on_c, 0, 65, 0
2, 454416, Note_on_c, 0, 69, 0
2, 454900, Note_on_c, 0, 72, 0
2, 455066, Note_on_c, 0, 68, 37
2, 455070, Note_on_c, 0, 53, 32
2, 455076, Control_c, 0, 64, 0
2, 455078, Note_on_c, 0, 59, 40
2, 455112, Note_on_c, 0, 64, 27
2, 455380, Note_on_c, 0, 68, 0
2, 455746, Note_on_c, 0, 71, 85
2, 455958, Note_on_c, 0, 71, 0
2, 456182, Note_on_c, 0, 64, 0
2, 456190, Note_on_c, 0, 69, 43
2, 456198, Note_on_c, 0, 59, 0
2, 456216, Note_on_c, 0, 53, 0
2, 456638, Note_on_c, 0, 69, 0
2, 456750, Note_on_c, 0, 67, 50
2, 456786, Note_on_c, 0, 52, 30
2, 456804, Note_on_c, 0, 59, 22
2, 456808, Note_on_c, 0, 62, 29
2, 456922, Note_on_c, 0, 67, 0
2, 456930, Note_on_c, 0, 62, 0
2, 456948, Note_on_c, 0, 59, 0
2, 456978, Note_on_c, 0, 52, 0
2, 457624, Note_on_c, 0, 76, 78
2, 457840, Note_on_c, 0, 76, 0
2, 458052, Note_on_c, 0, 74, 48
2, 458378, Note_on_c, 0, 74, 0
2, 458586, Note_on_c, 0, 72, 52
2, 458594, Note_on_c, 0, 65, 32
2, 458596, Note_on_c, 0, 62, 36
2, 458644, Note_on_c, 0, 56, 21
2, 458724, Note_on_c, 0, 65, 0
2, 458762, Note_on_c, 0, 72, 0
2, 458770, Note_on_c, 0, 62, 0
2, 458798, Note_on_c, 0, 56, 0
2, 459504, Note_on_c, 0, 83, 79
2, 459768, Note_on_c, 0, 83, 0
2, 459954, Note_on_c, 0, 81, 53
2, 460178, Note_on_c, 0, 81, 0
2, 460494, Note_on_c, 0, 79, 50
2, 460508, Note_on_c, 0, 64, 38
2, 460536, Note_on_c, 0, 60, 36
2, 460546, Note_on_c, 0, 57, 35
2, 460588, Note_on_c, 0, 79, 0
2, 460632, Note_on_c, 0, 60, 0
2, 460640, Note_on_c, 0, 64, 0
2, 460672, Note_on_c, 0, 57, 0
2, 461006, Note_on_c, 0, 76, 43
2, 461252, Control_c, 0, 64, 127
2, 461422, Note_on_c, 0, 76, 0
2, 461614, Control_c, 0, 64, 0
2, 461774, Control_c, 0, 64, 127
2, 461776, Note_on_c, 0, 72, 33
2, 462360, Note_on_c, 0, 72, 0
2, 462736, Control_c, 0, 64, 0
2, 462804, Note_on_c, 0, 65, 33
2, 462814, Note_on_c, 0, 62, 36
2, 462848, Note_on_c, 0, 56, 26
2, 463730, Note_on_c, 0, 62, 0
2, 463780, Note_on_c, 0, 65, 0
2, 464008, Note_on_c, 0, 56, 0
2, 464084, Note_on_c, 0, 72, 52
2, 464238, Note_on_c, 0, 72, 0
2, 464404, Note_on_c, 0, 74, 83
2, 464606, Note_on_c, 0, 74, 0
2, 464720, Note_on_c, 0, 57, 37
2, 464762, Note_on_c, 0, 60, 35
2, 464766, Note_on_c, 0, 76, 71
2, 464792, Note_on_c, 0, 64, 22
2, 465034, Note_on_c, 0, 76, 0
2, 465102, Note_on_c, 0, 75, 52
2, 465322, Note_on_c, 0, 75, 0
2, 465434, Note_on_c, 0, 76, 74
2, 465608, Note_on_c, 0, 64, 0
2, 465624, Note_on_c, 0, 60, 0
2, 465710, Note_on_c, 0, 76, 0
2, 465738, Note_on_c, 0, 57, 0
2, 465804, Note_on_c, 0, 77, 73
2, 466218, Note_on_c, 0, 77, 0
2, 466726, Control_c, 0, 64, 127
2, 467292, Note_on_c, 0, 66, 46
2, 467306, Note_on_c, 0, 55, 50
2, 467314, Note_on_c, 0, 61, 36
2, 467428, Control_c, 0, 64, 0
2, 467472, Note_on_c, 0, 66, 0
2, 467532, Note_on_c, 0, 55, 0
2, 467594, Note_on_c, 0, 61, 0
2, 467998, Note_on_c, 0, 79, 58
2, 468010, Control_c, 0, 64, 127
2, 468158, Note_on_c, 0, 79, 0
2, 468298, Note_on_c, 0, 80, 68
2, 468532, Control_c, 0, 64, 0
2, 468540, Note_on_c, 0, 80, 0
2, 468630, Note_on_c, 0, 64, 40
2, 468636, Note_on_c, 0, 53, 41
2, 468648, Note_on_c, 0, 60, 38
2, 468650, Note_on_c, 0, 57, 51
2, 468674, Note_on_c, 0, 81, 66
2, 468776, Note_on_c, 0, 60, 0
2, 468782, Note_on_c, 0, 57, 0
2, 468798, Note_on_c, 0, 64, 0
2, 468848, Note_on_c, 0, 53, 0
2, 468958, Note_on_c, 0, 81, 0
2, 469618, Note_on_c, 0, 81, 44
2, 469858, Note_on_c, 0, 81, 0
2, 470220, Note_on_c, 0, 64, 48
2, 470254, Note_on_c, 0, 59, 44
2, 470318, Note_on_c, 0, 64, 0
2, 470338, Note_on_c, 0, 59, 0
2, 471138, Note_on_c, 0, 83, 63
2, 471150, Note_on_c, 0, 71, 69
2, 471316, Note_on_c, 0, 71, 0
2, 471352, Note_on_c, 0, 83, 0
2, 471548, Note_on_c, 0, 81, 49
2, 472076, Note_on_c, 0, 79, 70
2, 472128, Note_on_c, 0, 62, 24
2, 472168, Note_on_c, 0, 81, 0
2, 472186, Note_on_c, 0, 55, 30
2, 472194, Note_on_c, 0, 62, 0
2, 472282, Note_on_c, 0, 55, 0
2, 472368, Note_on_c, 0, 79, 0
2, 472578, Note_on_c, 0, 76, 65
2, 473026, Note_on_c, 0, 76, 0
2, 473348, Note_on_c, 0, 76, 64
2, 473444, Control_c, 0, 64, 127
2, 473998, Note_on_c, 0, 76, 0
2, 474036, Note_on_c, 0, 62, 60
2, 474038, Note_on_c, 0, 58, 51
2, 474066, Control_c, 0, 64, 0
2, 474122, Note_on_c, 0, 62, 0
2, 474198, Note_on_c, 0, 58, 0
2, 474346, Control_c, 0, 64, 127
2, 474936, Note_on_c, 0, 89, 77
2, 474938, Note_on_c, 0, 77, 79
2, 474948, Note_on_c, 0, 58, 74
2, 474950, Note_on_c, 0, 62, 82
2, 474968, Note_on_c, 0, 52, 71
2, 475036, Note_on_c, 0, 52, 0
2, 475048, Control_c, 0, 64, 0
2, 475102, Note_on_c, 0, 77, 0
2, 475102, Note_on_c, 0, 62, 0
2, 475106, Note_on_c, 0, 89, 0
2, 475132, Note_on_c, 0, 58, 0
2, 475268, Note_on_c, 0, 52, 66
2, 475272, Note_on_c, 0, 58, 67
2, 475276, Note_on_c, 0, 62, 70
2, 475302, Note_on_c, 0, 91, 73
2, 475324, Note_on_c, 0, 79, 53
2, 475340, Note_on_c, 0, 77, 39
2, 475432, Note_on_c, 0, 77, 0
2, 475466, Note_on_c, 0, 62, 0
2, 475474, Note_on_c, 0, 79, 0
2, 475498, Note_on_c, 0, 52, 0
2, 475512, Note_on_c, 0, 91, 0
2, 475534, Note_on_c, 0, 58, 0
2, 476330, Control_c, 0, 64, 127
2, 476932, Control_c, 0, 64, 0
2, 477252, Note_on_c, 0, 93, 80
2, 477256, Note_on_c, 0, 81, 68
2, 477262, Note_on_c, 0, 87, 73
2, 477282, Note_on_c, 0, 60, 60
2, 477286, Note_on_c, 0, 64, 68
2, 477294, Note_on_c, 0, 57, 64
2, 477298, Note_on_c, 0, 53, 57
2, 477634, Note_on_c, 0, 88, 65
2, 477676, Note_on_c, 0, 87, 0
2, 477794, Note_on_c, 0, 93, 0
2, 477804, Note_on_c, 0, 53, 0
2, 477814, Note_on_c, 0, 64, 0
2, 477830, Note_on_c, 0, 88, 0
2, 477848, Note_on_c, 0, 81, 0
2, 477850, Note_on_c, 0, 60, 0
2, 477878, Note_on_c, 0, 57, 0
2, 478136, Control_c, 0, 64, 127
2, 478738, Control_c, 0, 64, 0
2, 478768, Note_on_c, 0, 89, 64
2, 478770, Note_on_c, 0, 61, 60
2, 478774, Note_on_c, 0, 77, 64
2, 478778, Note_on_c, 0, 64, 67
2, 478784, Note_on_c, 0, 82, 47
2, 478796, Note_on_c, 0, 58, 46
2, 478814, Note_on_c, 0, 55, 39
2, 478838, Note_on_c, 0, 85, 29
2, 478906, Note_on_c, 0, 85, 0
2, 478914, Note_on_c, 0, 55, 0
2, 478930, Note_on_c, 0, 64, 0
2, 478938, Note_on_c, 0, 82, 0
2, 478940, Note_on_c, 0, 58, 0
2, 478952, Note_on_c, 0, 61, 0
2, 478974, Note_on_c, 0, 77, 0
2, 478984, Note_on_c, 0, 89, 0
2, 479298, Control_c, 0, 64, 127
2, 479450, Note_on_c, 0, 91, 64
2, 479452, Note_on_c, 0, 79, 64
2, 479456, Note_on_c, 0, 61, 52
2, 479466, Note_on_c, 0, 64, 62
2, 479474, Note_on_c, 0, 58, 46
2, 479502, Note_on_c, 0, 55, 44
2, 479598, Note_on_c, 0, 55, 0
2, 479690, Note_on_c, 0, 64, 0
2, 479718, Note_on_c, 0, 79, 0
2, 479810, Note_on_c, 0, 91, 0
2, 479818, Note_on_c, 0, 58, 0
2, 479850, Note_on_c, 0, 61, 0
2, 479980, Control_c, 0, 64, 0
2, 480132, Note_on_c, 0, 93, 71
2, 480138, Note_on_c, 0, 64, 49
2, 480142, Note_on_c, 0, 57, 49
2, 480144, Note_on_c, 0, 60, 43
2, 480148, Note_on_c, 0, 81, 53
2, 480160, Note_on_c, 0, 53, 45
2, 480322, Control_c, 0, 64, 127
2, 480766, Note_on_c, 0, 64, 0
2, 480802, Note_on_c, 0, 60, 0
2, 480810, Note_on_c, 0, 81, 0
2, 480842, Note_on_c, 0, 93, 0
2, 480846, Note_on_c, 0, 57, 0
2, 480942, Note_on_c, 0, 53, 0
2, 481660, Note_on_c, 0, 95, 57
2, 481662, Note_on_c, 0, 83, 60
2, 481854, Note_on_c, 0, 83, 0
2, 481900, Note_on_c, 0, 95, 0
2, 482086, Control_c, 0, 64, 0
2, 482626, Note_on_c, 0, 48, 40
2, 482644, Note_on_c, 0, 57, 49
2, 482646, Note_on_c, 0, 96, 57
2, 482676, Note_on_c, 0, 84, 46
2, 482750, Note_on_c, 0, 57, 0
2, 482760, Note_on_c, 0, 84, 0
2, 482800, Note_on_c, 0, 48, 0
2, 482840, Note_on_c, 0, 96, 0
2, 483028, Control_c, 0, 64, 127
2, 483252, Note_on_c, 0, 98, 71
2, 483264, Note_on_c, 0, 86, 70
2, 483426, Note_on_c, 0, 86, 0
2, 483524, Note_on_c, 0, 98, 0
2, 483770, Control_c, 0, 64, 0
2, 483858, Note_on_c, 0, 47, 40
2, 483866, Note_on_c, 0, 100, 74
2, 483870, Note_on_c, 0, 88, 64
2, 483948, Note_on_c, 0, 47, 0
2, 483970, Control_c, 0, 64, 127
2, 484030, Note_on_c, 0, 100, 0
2, 484126, Note_on_c, 0, 88, 0
2, 485470, Note_on_c, 0, 76, 80
2, 485480, Note_on_c, 0, 71, 71
2, 485484, Note_on_c, 0, 65, 82
2, 485488, Note_on_c, 0, 69, 73
2, 485494, Note_on_c, 0, 64, 62
2, 485656, Note_on_c, 0, 69, 0
2, 485732, Note_on_c, 0, 65, 0
2, 485750, Note_on_c, 0, 71, 0
2, 485804, Note_on_c, 0, 76, 0
2, 485814, Note_on_c, 0, 64, 0
2, 485956, Control_c, 0, 64, 0
2, 485990, Note_on_c, 0, 76, 62
2, 486026, Note_on_c, 0, 71, 60
2, 486038, Note_on_c, 0, 65, 54
2, 486040, Note_on_c, 0, 68, 46
2, 486044, Note_on_c, 0, 56, 47
2, 486060, Note_on_c, 0, 62, 56
2, 486478, Control_c, 0, 64, 127
2, 486746, Note_on_c, 0, 76, 0
2, 486756, Note_on_c, 0, 62, 0
2, 486884, Note_on_c, 0, 56, 0
2, 487070, Note_on_c, 0, 65, 0
2, 487126, Note_on_c, 0, 71, 0
2, 487128, Note_on_c, 0, 68, 0
2, 487474, Note_on_c, 0, 74, 63
2, 487728, Note_on_c, 0, 74, 0
2, 487800, Control_c, 0, 64, 0
2, 487880, Note_on_c, 0, 72, 35
2, 487886, Note_on_c, 0, 57, 48
2, 487888, Note_on_c, 0, 64, 45
2, 487896, Note_on_c, 0, 67, 47
2, 488140, Control_c, 0, 64, 127
2, 488288, Note_on_c, 0, 64, 0
2, 488292, Note_on_c, 0, 57, 0
2, 488396, Note_on_c, 0, 67, 0
2, 488566, Note_on_c, 0, 72, 0
2, 489644, Note_on_c, 0, 61, 49
2, 489664, Note_on_c, 0, 65, 48
2, 489674, Note_on_c, 0, 55, 48
2, 489684, Control_c, 0, 64, 0
2, 489688, Note_on_c, 0, 72, 45
2, 489690, Note_on_c, 0, 80, 36
2, 489692, Note_on_c, 0, 77, 47
2, 489696, Note_on_c, 0, 84, 60
2, 489752, Note_on_c, 0, 65, 0
2, 489762, Note_on_c, 0, 55, 0
2, 489822, Note_on_c, 0, 61, 0
2, 489826, Note_on_c, 0, 72, 0
2, 489840, Note_on_c, 0, 77, 0
2, 489862, Note_on_c, 0, 80, 0
2, 489892, Note_on_c, 0, 84, 0
2, 490614, Note_on_c, 0, 61, 50
2, 490646, Note_on_c, 0, 86, 56
2, 490650, Note_on_c, 0, 65, 38
2, 490652, Note_on_c, 0, 74, 46
2, 490654, Note_on_c, 0, 55, 44
2, 490740, Note_on_c, 0, 55, 0
2, 490744, Note_on_c, 0, 65, 0
2, 490792, Note_on_c, 0, 74, 0
2, 490862, Note_on_c, 0, 61, 0
2, 490868, Note_on_c, 0, 86, 0
2, 491590, Note_on_c, 0, 88, 58
2, 491594, Note_on_c, 0, 55, 42
2, 491602, Note_on_c, 0, 76, 54
2, 491616, Note_on_c, 0, 64, 37
2, 491620, Control_c, 0, 64, 127
2, 491638, Note_on_c, 0, 60, 40
2, 491640, Note_on_c, 0, 84, 43
2, 492692, Note_on_c, 0, 60, 0
2, 492708, Note_on_c, 0, 64, 0
2, 492848, Note_on_c, 0, 55, 0
2, 492918, Note_on_c, 0, 88, 0
2, 492942, Note_on_c, 0, 76, 0
2, 492952, Note_on_c, 0, 84, 0
2, 493516, Note_on_c, 0, 55, 61
2, 493518, Note_on_c, 0, 64, 54
2, 493544, Note_on_c, 0, 60, 54
2, 493566, Note_on_c, 0, 88, 74
2, 493568, Note_on_c, 0, 76, 75
2, 493582, Note_on_c, 0, 84, 65
2, 493834, Note_on_c, 0, 76, 0
2, 493850, Note_on_c, 0, 55, 0
2, 493856, Note_on_c, 0, 64, 0
2, 493876, Note_on_c, 0, 60, 0
2, 493880, Note_on_c, 0, 84, 0
2, 493922, Note_on_c, 0, 88, 0
2, 494214, Note_on_c, 0, 55, 55
2, 494218, Note_on_c, 0, 89, 66
2, 494222, Note_on_c, 0, 64, 48
2, 494234, Note_on_c, 0, 77, 55
2, 494240, Note_on_c, 0, 60, 48
2, 494294, Note_on_c, 0, 55, 0
2, 494316, Note_on_c, 0, 64, 0
2, 494318, Note_on_c, 0, 60, 0
2, 494338, Note_on_c, 0, 77, 0
2, 494374, Note_on_c, 0, 89, 0
2, 494508, Note_on_c, 0, 55, 71
2, 494522, Note_on_c, 0, 64, 72
2, 494524, Note_on_c, 0, 91, 80
2, 494528, Note_on_c, 0, 79, 79
2, 494532, Note_on_c, 0, 60, 71
2, 494860, Note_on_c, 0, 91, 0
2, 494922, Note_on_c, 0, 64, 0
2, 494924, Note_on_c, 0, 79, 0
2, 494942, Note_on_c, 0, 60, 0
2, 495002, Note_on_c, 0, 55, 0
2, 495394, Control_c, 0, 64, 0
2, 495430, Note_on_c, 0, 55, 66
2, 495442, Note_on_c, 0, 88, 74
2, 495444, Note_on_c, 0, 60, 64
2, 495452, Note_on_c, 0, 65, 67
2, 495462, Note_on_c, 0, 76, 66
2, 495464, Note_on_c, 0, 57, 66
2, 495468, Note_on_c, 0, 84, 66
2, 495480, Note_on_c, 0, 81, 58
2, 495816, Control_c, 0, 64, 127
2, 496274, Note_on_c, 0, 84, 0
2, 496298, Note_on_c, 0, 88, 0
2, 496314, Note_on_c, 0, 65, 0
2, 496320, Note_on_c, 0, 81, 0
2, 496376, Note_on_c, 0, 60, 0
2, 496404, Note_on_c, 0, 76, 0
2, 496406, Note_on_c, 0, 55, 0
2, 496440, Note_on_c, 0, 57, 0
2, 496958, Note_on_c, 0, 84, 64
2, 496992, Note_on_c, 0, 65, 48
2, 496996, Note_on_c, 0, 57, 49
2, 496998, Note_on_c, 0, 77, 56
2, 497002, Note_on_c, 0, 55, 49
2, 497014, Note_on_c, 0, 72, 34
2, 497016, Note_on_c, 0, 60, 44
2, 497024, Control_c, 0, 64, 0
2, 497046, Note_on_c, 0, 81, 24
2, 497128, Note_on_c, 0, 81, 0
2, 497146, Note_on_c, 0, 77, 0
2, 497164, Note_on_c, 0, 84, 0
2, 497204, Note_on_c, 0, 65, 0
2, 497206, Note_on_c, 0, 72, 0
2, 497242, Note_on_c, 0, 55, 0
2, 497284, Control_c, 0, 64, 127
2, 497290, Note_on_c, 0, 60, 0
2, 497314, Note_on_c, 0, 57, 0
2, 497522, Note_on_c, 0, 81, 48
2, 497530, Note_on_c, 0, 55, 43
2, 497558, Note_on_c, 0, 65, 37
2, 497564, Note_on_c, 0, 57, 42
2, 497570, Note_on_c, 0, 74, 45
2, 497578, Note_on_c, 0, 60, 38
2, 497592, Note_on_c, 0, 77, 24
2, 497610, Note_on_c, 0, 69, 38
2, 497910, Note_on_c, 0, 65, 0
2, 497924, Note_on_c, 0, 55, 0
2, 497930, Note_on_c, 0, 60, 0
2, 497966, Note_on_c, 0, 57, 0
2, 498038, Note_on_c, 0, 69, 0
2, 498290, Note_on_c, 0, 55, 46
2, 498316, Note_on_c, 0, 65, 30
2, 498358, Note_on_c, 0, 60, 34
2, 498360, Note_on_c, 0, 57, 38
2, 498374, Note_on_c, 0, 74, 0
2, 498426, Note_on_c, 0, 81, 0
2, 498444, Note_on_c, 0, 77, 0
2, 498464, Note_on_c, 0, 60, 0
2, 498486, Note_on_c, 0, 65, 0
2, 498496, Note_on_c, 0, 57, 0
2, 499230, Control_c, 0, 64, 0
2, 499258, Note_on_c, 0, 79, 80
2, 499276, Note_on_c, 0, 71, 85
2, 499278, Note_on_c, 0, 64, 65
2, 499282, Note_on_c, 0, 74, 85
2, 499296, Note_on_c, 0, 67, 74
2, 499306, Note_on_c, 0, 62, 48
2, 499590, Control_c, 0, 64, 127
2, 500032, Note_on_c, 0, 67, 0
2, 500126, Note_on_c, 0, 79, 0
2, 500182, Note_on_c, 0, 74, 0
2, 500250, Note_on_c, 0, 71, 0
2, 500726, Note_on_c, 0, 55, 0
2, 501180, Note_on_c, 0, 76, 54
2, 501192, Note_on_c, 0, 55, 38
2, 501194, Note_on_c, 0, 71, 54
2, 501200, Note_on_c, 0, 67, 51
2, 501284, Note_on_c, 0, 71, 0
2, 501314, Note_on_c, 0, 76, 0
2, 501336, Note_on_c, 0, 67, 0
2, 501472, Note_on_c, 0, 64, 0
2, 501556, Note_on_c, 0, 62, 0
2, 501774, Note_on_c, 0, 55, 0
2, 501802, Note_on_c, 0, 72, 56
2, 502156, Note_on_c, 0, 67, 53
2, 502160, Note_on_c, 0, 72, 0
2, 502240, Note_on_c, 0, 67, 0
2, 503068, Note_on_c, 0, 56, 52
2, 503098, Note_on_c, 0, 62, 65
2, 503104, Note_on_c, 0, 60, 58
2, 503140, Note_on_c, 0, 55, 48
2, 503164, Control_c, 0, 64, 0
2, 503766, Control_c, 0, 64, 127
2, 504966, Note_on_c, 0, 43, 50
2, 505072, Note_on_c, 0, 55, 0
2, 505126, Note_on_c, 0, 43, 0
2, 505765, Note_on_c, 0, 76, 69
2, 505940, Note_on_c, 0, 60, 0
2, 505950, Note_on_c, 0, 56, 0
2, 505986, Note_on_c, 0, 62, 0
2, 506064, Note_on_c, 0, 76, 0
2, 506131, Note_on_c, 0, 77, 66
2, 506705, Note_on_c, 0, 77, 0
2, 506880, Control_c, 0, 64, 0
2, 506944, Note_on_c, 0, 67, 44
2, 506964, Note_on_c, 0, 79, 71
2, 506976, Note_on_c, 0, 64, 42
2, 506994, Note_on_c, 0, 62, 36
2, 507063, Control_c, 0, 64, 127
2, 507162, Control_c, 0, 64, 0
2, 508469, Note_on_c, 0, 79, 0
2, 508896, Note_on_c, 0, 76, 105
2, 508968, Note_on_c, 0, 67, 0
2, 508990, Note_on_c, 0, 64, 0
2, 509035, Note_on_c, 0, 62, 0
2, 509235, Note_on_c, 0, 76, 0
2, 509851, Note_on_c, 0, 72, 73
2, 510148, Note_on_c, 0, 72, 0
2, 510828, Note_on_c, 0, 71, 60
2, 510862, Note_on_c, 0, 62, 32
2, 510865, Note_on_c, 0, 59, 32
2, 510882, Note_on_c, 0, 52, 30
2, 510929, Note_on_c, 0, 55, 29
2, 511281, Note_on_c, 0, 55, 0
2, 511301, Note_on_c, 0, 52, 0
2, 511358, Note_on_c, 0, 59, 0
2, 511502, Note_on_c, 0, 62, 0
2, 511812, Note_on_c, 0, 67, 72
2, 511941, Note_on_c, 0, 71, 0
2, 512167, Note_on_c, 0, 67, 0
2, 512769, Note_on_c, 0, 61, 28
2, 512772, Note_on_c, 0, 69, 63
2, 512789, Note_on_c, 0, 58, 35
2, 512812, Note_on_c, 0, 64, 24
2, 512864, Note_on_c, 0, 55, 31
2, 514195, Note_on_c, 0, 55, 0
2, 514260, Note_on_c, 0, 58, 0
2, 514374, Note_on_c, 0, 64, 0
2, 514488, Note_on_c, 0, 61, 0
2, 514677, Note_on_c, 0, 60, 40
2, 514679, Note_on_c, 0, 53, 44
2, 514736, Note_on_c, 0, 64, 29
2, 514744, Note_on_c, 0, 57, 38
2, 515827, Note_on_c, 0, 69, 0
2, 516083, Note_on_c, 0, 60, 0
2, 516125, Note_on_c, 0, 64, 0
2, 516207, Note_on_c, 0, 57, 0
2, 516222, Note_on_c, 0, 72, 103
2, 516256, Note_on_c, 0, 53, 0
2, 516286, Note_on_c, 0, 73, 36
2, 516370, Note_on_c, 0, 73, 0
2, 516648, Note_on_c, 0, 71, 78
2, 516658, Note_on_c, 0, 59, 43
2, 516673, Note_on_c, 0, 53, 22
2, 516678, Note_on_c, 0, 64, 34
2, 516745, Note_on_c, 0, 72, 0
2, 517117, Note_on_c, 0, 71, 0
2, 517199, Note_on_c, 0, 69, 80
2, 517467, Note_on_c, 0, 69, 0
2, 517568, Note_on_c, 0, 64, 0
2, 517625, Note_on_c, 0, 67, 39
2, 517638, Note_on_c, 0, 59, 0
2, 517695, Note_on_c, 0, 53, 0
2, 517901, Note_on_c, 0, 67, 0
2, 518131, Note_on_c, 0, 65, 49
2, 518446, Note_on_c, 0, 65, 0
2, 518508, Note_on_c, 0, 59, 17
2, 518516, Note_on_c, 0, 52, 22
2, 518518, Note_on_c, 0, 64, 39
2, 518548, Note_on_c, 0, 62, 17
2, 518578, Note_on_c, 0, 55, 24
2, 518957, Note_on_c, 0, 62, 0
2, 519019, Note_on_c, 0, 55, 0
2, 519029, Note_on_c, 0, 64, 0
2, 519074, Note_on_c, 0, 52, 0
2, 519091, Note_on_c, 0, 59, 0
2, 519151, Note_on_c, 0, 65, 50
2, 519359, Note_on_c, 0, 65, 0
2, 519486, Note_on_c, 0, 67, 62
2, 520180, Note_on_c, 0, 67, 0
2, 520378, Note_on_c, 0, 68, 45
2, 520443, Note_on_c, 0, 56, 29
2, 520465, Note_on_c, 0, 62, 27
2, 520867, Note_on_c, 0, 68, 0
2, 520978, Note_on_c, 0, 69, 70
2, 521011, Note_on_c, 0, 62, 0
2, 521209, Note_on_c, 0, 69, 0
2, 521340, Note_on_c, 0, 71, 85
2, 521368, Note_on_c, 0, 56, 0
2, 521390, Note_on_c, 0, 69, 48
2, 521482, Note_on_c, 0, 69, 0
2, 521804, Note_on_c, 0, 71, 0
2, 521909, Note_on_c, 0, 74, 80
2, 522233, Note_on_c, 0, 60, 29
2, 522258, Note_on_c, 0, 57, 20
2, 522293, Note_on_c, 0, 74, 0
2, 522298, Note_on_c, 0, 64, 22
2, 522313, Note_on_c, 0, 72, 44
2, 523066, Note_on_c, 0, 60, 0
2, 523126, Note_on_c, 0, 72, 0
2, 523138, Note_on_c, 0, 57, 0
2, 523163, Note_on_c, 0, 64, 0
2, 523203, Note_on_c, 0, 69, 50
2, 523907, Note_on_c, 0, 69, 0
2, 524175, Note_on_c, 0, 68, 44
2, 524979, Note_on_c, 0, 68, 0
2, 525048, Note_on_c, 0, 71, 68
2, 525494, Note_on_c, 0, 71, 0
2, 527106, Note_on_c, 0, 67, 62
2, 527166, Note_on_c, 0, 60, 26
2, 527211, Note_on_c, 0, 55, 24
2, 527367, Note_on_c, 0, 67, 0
2, 527374, Note_on_c, 0, 60, 0
2, 527399, Note_on_c, 0, 55, 0
2, 530935, Note_on_c, 0, 64, 32
2, 530945, Note_on_c, 0, 53, 26
2, 530953, Note_on_c, 0, 57, 48
2, 530963, Note_on_c, 0, 60, 34
2, 531811, Note_on_c, 0, 64, 0
2, 531861, Note_on_c, 0, 60, 0
2, 531940, Note_on_c, 0, 76, 105
2, 531970, Note_on_c, 0, 57, 0
2, 532034, Note_on_c, 0, 53, 0
2, 532505, Note_on_c, 0, 76, 0
2, 532550, Note_on_c, 0, 72, 51
2, 532857, Note_on_c, 0, 72, 0
2, 533103, Note_on_c, 0, 71, 35
2, 533364, Note_on_c, 0, 71, 0
2, 533842, Note_on_c, 0, 64, 25
2, 533884, Note_on_c, 0, 59, 31
2, 533978, Note_on_c, 0, 64, 0
2, 533996, Note_on_c, 0, 59, 0
2, 534797, Note_on_c, 0, 74, 105
2, 534799, Note_on_c, 0, 62, 47
2, 534846, Note_on_c, 0, 59, 36
2, 534849, Note_on_c, 0, 55, 52
2, 534859, Note_on_c, 0, 52, 24
2, 534993, Note_on_c, 0, 59, 0
2, 535027, Note_on_c, 0, 62, 0
2, 535114, Note_on_c, 0, 52, 0
2, 535119, Note_on_c, 0, 55, 0
2, 535313, Note_on_c, 0, 74, 0
2, 535447, Note_on_c, 0, 71, 58
2, 535759, Note_on_c, 0, 71, 0
2, 535769, Note_on_c, 0, 67, 35
2, 536196, Note_on_c, 0, 67, 0
2, 536406, Note_on_c, 0, 58, 34
2, 536597, Note_on_c, 0, 58, 0
2, 536664, Note_on_c, 0, 72, 80
2, 537183, Note_on_c, 0, 72, 0
2, 537274, Note_on_c, 0, 68, 45
2, 537532, Note_on_c, 0, 68, 0
2, 537679, Note_on_c, 0, 57, 39
2, 537684, Note_on_c, 0, 69, 62
2, 537696, Note_on_c, 0, 60, 27
2, 537808, Note_on_c, 0, 60, 0
2, 537840, Note_on_c, 0, 57, 0
2, 538083, Note_on_c, 0, 69, 0
2, 538251, Note_on_c, 0, 65, 53
2, 538490, Note_on_c, 0, 65, 0
2, 538666, Note_on_c, 0, 64, 33
2, 539261, Note_on_c, 0, 64, 0
2, 539586, Note_on_c, 0, 64, 46
2, 540369, Note_on_c, 0, 64, 0
2, 540464, Note_on_c, 0, 62, 44
2, 542981, Note_on_c, 0, 62, 0
2, 543200, Note_on_c, 0, 55, 25
2, 543298, Note_on_c, 0, 55, 0
2, 543407, Note_on_c, 0, 65, 83
2, 543913, Note_on_c, 0, 65, 0
2, 544010, Note_on_c, 0, 63, 47
2, 544278, Note_on_c, 0, 63, 0
2, 544456, Note_on_c, 0, 64, 33
2, 544908, Note_on_c, 0, 64, 0
2, 545032, Note_on_c, 0, 67, 71
2, 545302, Note_on_c, 0, 67, 0
2, 545427, Note_on_c, 0, 70, 75
2, 545962, Note_on_c, 0, 70, 0
2, 546029, Note_on_c, 0, 68, 50
2, 546249, Note_on_c, 0, 68, 0
2, 546408, Note_on_c, 0, 69, 57
2, 546807, Note_on_c, 0, 69, 0
2, 546961, Note_on_c, 0, 72, 58
2, 547130, Note_on_c, 0, 60, 26
2, 547215, Note_on_c, 0, 72, 0
2, 547239, Note_on_c, 0, 60, 0
2, 547353, Note_on_c, 0, 76, 84
2, 547827, Note_on_c, 0, 76, 0
2, 547897, Note_on_c, 0, 79, 80
2, 548320, Note_on_c, 0, 77, 54
2, 548348, Note_on_c, 0, 79, 0
2, 548938, Note_on_c, 0, 77, 0
2, 549201, Note_on_c, 0, 67, 42
2, 549290, Note_on_c, 0, 62, 27
2, 549307, Note_on_c, 0, 64, 25
2, 549955, Note_on_c, 0, 67, 0
2, 551110, Note_on_c, 0, 76, 80
2, 551152, Note_on_c, 0, 55, 38
2, 551331, Note_on_c, 0, 76, 0
2, 551368, Note_on_c, 0, 64, 0
2, 551408, Note_on_c, 0, 62, 0
2, 551420, Note_on_c, 0, 55, 0
2, 551728, Note_on_c, 0, 77, 62
2, 551939, Note_on_c, 0, 77, 0
2, 552100, Note_on_c, 0, 79, 62
2, 552482, Note_on_c, 0, 79, 0
2, 552653, Note_on_c, 0, 81, 61
2, 552888, Note_on_c, 0, 81, 0
2, 552988, Note_on_c, 0, 54, 34
2, 552993, Note_on_c, 0, 60, 32
2, 553075, Note_on_c, 0, 64, 19
2, 553136, Note_on_c, 0, 84, 74
2, 554049, Note_on_c, 0, 81, 35
2, 554166, Note_on_c, 0, 84, 0
2, 554404, Note_on_c, 0, 81, 0
2, 554530, Note_on_c, 0, 60, 0
2, 554538, Note_on_c, 0, 64, 0
2, 554602, Note_on_c, 0, 78, 56
2, 554786, Note_on_c, 0, 54, 0
2, 554937, Note_on_c, 0, 78, 0
2, 555106, Note_on_c, 0, 76, 32
2, 555763, Note_on_c, 0, 76, 0
2, 555904, Note_on_c, 0, 75, 71
2, 556601, Note_on_c, 0, 75, 0
2, 556847, Note_on_c, 0, 83, 96
2, 556872, Note_on_c, 0, 62, 55
2, 556923, Note_on_c, 0, 52, 33
2, 556936, Note_on_c, 0, 55, 45
2, 556941, Note_on_c, 0, 59, 29
2, 557045, Note_on_c, 0, 55, 0
2, 557085, Note_on_c, 0, 59, 0
2, 557097, Note_on_c, 0, 62, 0
2, 557129, Note_on_c, 0, 52, 0
2, 557685, Note_on_c, 0, 83, 0
2, 557799, Note_on_c, 0, 79, 57
2, 558245, Note_on_c, 0, 79, 0
2, 558362, Note_on_c, 0, 76, 62
2, 558684, Note_on_c, 0, 76, 0
2, 558843, Note_on_c, 0, 75, 49
2, 559530, Note_on_c, 0, 75, 0
2, 559684, Note_on_c, 0, 62, 19
2, 559736, Note_on_c, 0, 74, 57
2, 559793, Note_on_c, 0, 62, 0
2, 560487, Note_on_c, 0, 74, 0
2, 560735, Note_on_c, 0, 64, 57
2, 560755, Note_on_c, 0, 60, 50
2, 560787, Note_on_c, 0, 55, 29
2, 560842, Note_on_c, 0, 57, 26
2, 561581, Note_on_c, 0, 60, 0
2, 561738, Note_on_c, 0, 64, 0
2, 561769, Note_on_c, 0, 55, 0
2, 561834, Note_on_c, 0, 57, 0
2, 562600, Note_on_c, 0, 60, 51
2, 562600, Note_on_c, 0, 54, 49
2, 562613, Note_on_c, 0, 64, 48
2, 563647, Note_on_c, 0, 54, 0
2, 563820, Note_on_c, 0, 64, 0
2, 563902, Note_on_c, 0, 60, 0
2, 564212, Note_on_c, 0, 60, 36
2, 564227, Note_on_c, 0, 53, 34
2, 564249, Note_on_c, 0, 57, 39
2, 564539, Note_on_c, 0, 81, 103
2, 564711, Note_on_c, 0, 60, 0
2, 564733, Note_on_c, 0, 57, 0
2, 564788, Note_on_c, 0, 53, 0
2, 565350, Note_on_c, 0, 81, 0
2, 565484, Note_on_c, 0, 77, 74
2, 565993, Note_on_c, 0, 77, 0
2, 566085, Note_on_c, 0, 74, 66
2, 566382, Note_on_c, 0, 59, 22
2, 566417, Note_on_c, 0, 53, 27
2, 566469, Note_on_c, 0, 64, 22
2, 566516, Note_on_c, 0, 74, 0
2, 566556, Note_on_c, 0, 72, 27
2, 566794, Note_on_c, 0, 59, 0
2, 567109, Note_on_c, 0, 59, 42
2, 567230, Note_on_c, 0, 72, 0
2, 567387, Note_on_c, 0, 64, 0
2, 567409, Note_on_c, 0, 71, 82
2, 567543, Note_on_c, 0, 53, 0
2, 567903, Note_on_c, 0, 71, 0
2, 567979, Note_on_c, 0, 59, 0
2, 568337, Note_on_c, 0, 74, 113
2, 568406, Note_on_c, 0, 59, 44
2, 568429, Note_on_c, 0, 62, 58
2, 568450, Note_on_c, 0, 55, 51
2, 568470, Note_on_c, 0, 52, 34
2, 569051, Note_on_c, 0, 62, 0
2, 569251, Note_on_c, 0, 74, 0
2, 569279, Note_on_c, 0, 52, 0
2, 569291, Note_on_c, 0, 55, 0
2, 569343, Note_on_c, 0, 71, 40
2, 569344, Note_on_c, 0, 59, 0
2, 569876, Note_on_c, 0, 71, 0
2, 570048, Note_on_c, 0, 67, 32
2, 570353, Note_on_c, 0, 67, 0
2, 570429, Note_on_c, 0, 57, 31
2, 570467, Note_on_c, 0, 60, 24
2, 570556, Note_on_c, 0, 53, 16
2, 570635, Note_on_c, 0, 69, 64
2, 570673, Note_on_c, 0, 60, 0
2, 570749, Note_on_c, 0, 57, 0
2, 570794, Note_on_c, 0, 53, 0
2, 571171, Note_on_c, 0, 69, 0
2, 571307, Note_on_c, 0, 64, 46
2, 572017, Note_on_c, 0, 64, 0
2, 572208, Note_on_c, 0, 67, 54
2, 572245, Note_on_c, 0, 55, 34
2, 572366, Note_on_c, 0, 55, 0
2, 572716, Note_on_c, 0, 67, 0
2, 573177, Note_on_c, 0, 62, 35
2, 573619, Note_on_c, 0, 62, 0
2, 574145, Note_on_c, 0, 61, 34
2, 574266, Note_on_c, 0, 55, 30
2, 574546, Note_on_c, 0, 55, 0
2, 574613, Note_on_c, 0, 61, 0
2, 576089, Note_on_c, 0, 62, 60
2, 576156, Note_on_c, 0, 53, 35
2, 576161, Note_on_c, 0, 57, 36
2, 576183, Note_on_c, 0, 60, 19
2, 576193, Note_on_c, 0, 50, 24
2, 576600, Note_on_c, 0, 62, 0
2, 576704, Note_on_c, 0, 64, 53
2, 576815, Note_on_c, 0, 60, 0
2, 576818, Note_on_c, 0, 50, 0
2, 576828, Note_on_c, 0, 57, 0
2, 576853, Note_on_c, 0, 53, 0
2, 576952, Note_on_c, 0, 64, 0
2, 578636, Note_on_c, 0, 64, 36
2, 578643, Note_on_c, 0, 59, 54
2, 578735, Note_on_c, 0, 64, 0
2, 578747, Note_on_c, 0, 59, 0
2, 578959, Note_on_c, 0, 69, 94
2, 579412, Note_on_c, 0, 69, 0
2, 579551, Note_on_c, 0, 72, 80
2, 579893, Note_on_c, 0, 72, 0
2, 579990, Note_on_c, 0, 71, 62
2, 580523, Note_on_c, 0, 71, 0
2, 580530, Note_on_c, 0, 67, 73
2, 580769, Note_on_c, 0, 67, 0
2, 580935, Note_on_c, 0, 64, 24
2, 581349, Note_on_c, 0, 64, 0
2, 581441, Note_on_c, 0, 62, 40
2, 581723, Note_on_c, 0, 62, 0
2, 581823, Note_on_c, 0, 67, 73
2, 582286, Note_on_c, 0, 67, 0
2, 582378, Note_on_c, 0, 62, 80
2, 582694, Note_on_c, 0, 62, 0
2, 582812, Note_on_c, 0, 56, 43
2, 583301, Note_on_c, 0, 56, 0
2, 583499, Note_on_c, 0, 55, 34
2, 583591, Note_on_c, 0, 55, 0
2, 583727, Note_on_c, 0, 60, 65
2, 584166, Note_on_c, 0, 45, 57
2, 584268, Note_on_c, 0, 60, 0
2, 584415, Note_on_c, 0, 45, 0
2, 584482, Note_on_c, 0, 57, 34
2, 585014, Note_on_c, 0, 57, 0
2, 585230, Note_on_c, 0, 60, 62
2, 585483, Note_on_c, 0, 60, 0
2, 585637, Note_on_c, 0, 62, 56
2, 586019, Note_on_c, 0, 62, 0
2, 586205, Note_on_c, 0, 63, 53
2, 586227, Note_on_c, 0, 56, 52
2, 586443, Note_on_c, 0, 63, 0
2, 586455, Note_on_c, 0, 56, 0
2, 586604, Note_on_c, 0, 64, 45
2, 587001, Note_on_c, 0, 64, 0
2, 587217, Note_on_c, 0, 67, 76
2, 587355, Note_on_c, 0, 60, 32
2, 587391, Note_on_c, 0, 57, 34
2, 587477, Note_on_c, 0, 67, 0
2, 587492, Note_on_c, 0, 60, 0
2, 587509, Note_on_c, 0, 57, 0
2, 587695, Note_on_c, 0, 64, 36
2, 588040, Note_on_c, 0, 64, 0
2, 589109, Note_on_c, 0, 64, 37
2, 589134, Note_on_c, 0, 61, 20
2, 589137, Note_on_c, 0, 55, 33
2, 589300, Note_on_c, 0, 64, 0
2, 589332, Note_on_c, 0, 55, 0
2, 589525, Note_on_c, 0, 61, 0
2, 590046, Note_on_c, 0, 67, 51
2, 590277, Note_on_c, 0, 67, 0
2, 590381, Note_on_c, 0, 69, 43
2, 590676, Note_on_c, 0, 69, 0
2, 590751, Note_on_c, 0, 70, 56
2, 590927, Note_on_c, 0, 70, 0
2, 591026, Note_on_c, 0, 72, 56
2, 591254, Note_on_c, 0, 72, 0
2, 591770, Note_on_c, 0, 75, 39
2, 591901, Note_on_c, 0, 75, 0
2, 591986, Note_on_c, 0, 76, 49
2, 592132, Note_on_c, 0, 76, 0
2, 592253, Note_on_c, 0, 79, 83
2, 592626, Note_on_c, 0, 79, 0
2, 592645, Note_on_c, 0, 76, 58
2, 592871, Note_on_c, 0, 76, 0
2, 592943, Note_on_c, 0, 77, 73
2, 593236, Note_on_c, 0, 77, 0
2, 593402, Note_on_c, 0, 72, 49
2, 593586, Note_on_c, 0, 72, 0
2, 594084, Note_on_c, 0, 64, 42
2, 594099, Note_on_c, 0, 59, 51
2, 594180, Note_on_c, 0, 64, 0
2, 594195, Note_on_c, 0, 59, 0
2, 595016, Note_on_c, 0, 62, 50
2, 595031, Note_on_c, 0, 59, 48
2, 595063, Note_on_c, 0, 55, 51
2, 595105, Note_on_c, 0, 62, 0
2, 595168, Note_on_c, 0, 55, 0
2, 595170, Note_on_c, 0, 59, 0
2, 596799, Note_on_c, 0, 58, 56
2, 596820, Note_on_c, 0, 62, 52
2, 596874, Note_on_c, 0, 52, 22
2, 596911, Note_on_c, 0, 62, 0
2, 596963, Note_on_c, 0, 52, 0
2, 597000, Note_on_c, 0, 58, 0
2, 598129, Note_on_c, 0, 69, 80
2, 598134, Note_on_c, 0, 81, 70
2, 598141, Note_on_c, 0, 73, 44
2, 598153, Note_on_c, 0, 76, 67
2, 598201, Note_on_c, 0, 79, 41
2, 598320, Note_on_c, 0, 79, 0
2, 598349, Note_on_c, 0, 73, 0
2, 598399, Note_on_c, 0, 69, 0
2, 598488, Note_on_c, 0, 81, 0
2, 598533, Note_on_c, 0, 76, 0
2, 598778, Note_on_c, 0, 81, 66
2, 598801, Note_on_c, 0, 69, 69
2, 598806, Note_on_c, 0, 76, 60
2, 598843, Note_on_c, 0, 73, 34
2, 598845, Note_on_c, 0, 79, 48
2, 598868, Note_on_c, 0, 64, 45
2, 598873, Note_on_c, 0, 60, 47
2, 598910, Note_on_c, 0, 57, 38
2, 598949, Note_on_c, 0, 79, 0
2, 598962, Note_on_c, 0, 64, 0
2, 598972, Note_on_c, 0, 60, 0
2, 598980, Note_on_c, 0, 69, 0
2, 599047, Note_on_c, 0, 76, 0
2, 599064, Note_on_c, 0, 81, 0
2, 599071, Note_on_c, 0, 73, 0
2, 599091, Note_on_c, 0, 57, 0
2, 599297, Note_on_c, 0, 81, 38
2, 599307, Note_on_c, 0, 69, 60
2, 599364, Note_on_c, 0, 79, 31
2, 599654, Note_on_c, 0, 79, 0
2, 599691, Note_on_c, 0, 69, 0
2, 599750, Note_on_c, 0, 81, 0
2, 600135, Note_on_c, 0, 81, 63
2, 600180, Note_on_c, 0, 69, 47
2, 600438, Note_on_c, 0, 69, 0
2, 600460, Note_on_c, 0, 81, 0
2, 601082, Note_on_c, 0, 64, 36
2, 601122, Note_on_c, 0, 55, 33
2, 601127, Note_on_c, 0, 61, 23
2, 601283, Note_on_c, 0, 64, 0
2, 601387, Note_on_c, 0, 55, 0
2, 601486, Note_on_c, 0, 61, 0
2, 602620, Note_on_c, 0, 60, 35
2, 602640, Note_on_c, 0, 57, 37
2, 602645, Note_on_c, 0, 53, 44
2, 602764, Note_on_c, 0, 57, 0
2, 602771, Note_on_c, 0, 60, 0
2, 602868, Note_on_c, 0, 53, 0
2, 603882, Note_on_c, 0, 81, 96
2, 604262, Note_on_c, 0, 81, 0
2, 604537, Note_on_c, 0, 84, 92
2, 604914, Note_on_c, 0, 84, 0
2, 605194, Note_on_c, 0, 84, 79
2, 605698, Note_on_c, 0, 84, 0
2, 605913, Note_on_c, 0, 83, 74
2, 606412, Note_on_c, 0, 83, 0
2, 606501, Note_on_c, 0, 81, 66
2, 606570, Note_on_c, 0, 62, 36
2, 606575, Note_on_c, 0, 57, 30
2, 606692, Note_on_c, 0, 57, 0
2, 606724, Note_on_c, 0, 62, 0
2, 606779, Note_on_c, 0, 81, 0
2, 606972, Note_on_c, 0, 88, 68
2, 606975, Note_on_c, 0, 76, 66
2, 606990, Note_on_c, 0, 57, 45
2, 606993, Note_on_c, 0, 65, 50
2, 607007, Note_on_c, 0, 81, 37
2, 607009, Note_on_c, 0, 62, 44
2, 607451, Note_on_c, 0, 57, 0
2, 607461, Note_on_c, 0, 65, 0
2, 607478, Note_on_c, 0, 88, 0
2, 607496, Note_on_c, 0, 81, 0
2, 607528, Note_on_c, 0, 76, 0
2, 607543, Note_on_c, 0, 62, 0
2, 607863, Note_on_c, 0, 86, 77
2, 608294, Note_on_c, 0, 86, 0
2, 608460, Note_on_c, 0, 84, 57
2, 608644, Note_on_c, 0, 84, 0
2, 609008, Note_on_c, 0, 65, 57
2, 609013, Note_on_c, 0, 56, 47
2, 609031, Note_on_c, 0, 62, 50
2, 609033, Note_on_c, 0, 91, 79
2, 609055, Note_on_c, 0, 79, 67
2, 609465, Note_on_c, 0, 65, 0
2, 609472, Note_on_c, 0, 56, 0
2, 609604, Note_on_c, 0, 79, 0
2, 609613, Note_on_c, 0, 91, 0
2, 609631, Note_on_c, 0, 62, 0
2, 609725, Note_on_c, 0, 56, 43
2, 609742, Note_on_c, 0, 89, 60
2, 609750, Note_on_c, 0, 65, 43
2, 609770, Note_on_c, 0, 62, 19
2, 609921, Note_on_c, 0, 62, 0
2, 609993, Note_on_c, 0, 65, 0
2, 610189, Note_on_c, 0, 89, 0
2, 610248, Note_on_c, 0, 56, 0
2, 610343, Note_on_c, 0, 88, 67
2, 610586, Note_on_c, 0, 55, 37
2, 610613, Note_on_c, 0, 57, 36
2, 610692, Note_on_c, 0, 88, 0
2, 610729, Control_c, 0, 64, 127
2, 610844, Note_on_c, 0, 86, 68
2, 611191, Note_on_c, 0, 55, 0
2, 611287, Note_on_c, 0, 57, 0
2, 611501, Note_on_c, 0, 86, 0
2, 611600, Note_on_c, 0, 57, 36
2, 611602, Note_on_c, 0, 64, 36
2, 611607, Note_on_c, 0, 84, 45
2, 611637, Note_on_c, 0, 55, 33
2, 611754, Note_on_c, 0, 55, 0
2, 611771, Note_on_c, 0, 64, 0
2, 611808, Note_on_c, 0, 57, 0
2, 611816, Note_on_c, 0, 84, 0
2, 612570, Control_c, 0, 64, 0
2, 612572, Note_on_c, 0, 61, 64
2, 612577, Note_on_c, 0, 65, 76
2, 612580, Note_on_c, 0, 55, 80
2, 612582, Note_on_c, 0, 96, 80
2, 612584, Note_on_c, 0, 84, 84
2, 612622, Note_on_c, 0, 90, 46
2, 612637, Note_on_c, 0, 92, 51
2, 612706, Note_on_c, 0, 90, 0
2, 613346, Control_c, 0, 64, 127
2, 613638, Note_on_c, 0, 84, 0
2, 613708, Note_on_c, 0, 92, 0
2, 613728, Note_on_c, 0, 96, 0
2, 613743, Note_on_c, 0, 65, 0
2, 613867, Note_on_c, 0, 55, 0
2, 613946, Note_on_c, 0, 61, 0
2, 614472, Note_on_c, 0, 64, 89
2, 614479, Note_on_c, 0, 60, 84
2, 614482, Note_on_c, 0, 55, 87
2, 614487, Note_on_c, 0, 100, 92
2, 614489, Note_on_c, 0, 96, 88
2, 614492, Note_on_c, 0, 88, 88
2, 614596, Control_c, 0, 64, 0
2, 615293, Control_c, 0, 64, 127
2, 615890, Note_on_c, 0, 100, 0
2, 615975, Note_on_c, 0, 96, 0
2, 616111, Note_on_c, 0, 88, 0
2, 617515, Note_on_c, 0, 60, 0
2, 617604, Note_on_c, 0, 64, 0
2, 618229, Note_on_c, 0, 55, 0
2, 618291, Note_on_c, 0, 76, 72
2, 618311, Note_on_c, 0, 72, 46
2, 618323, Note_on_c, 0, 69, 64
2, 618329, Note_on_c, 0, 65, 63
2, 618368, Note_on_c, 0, 64, 52
2, 618376, Control_c, 0, 64, 0
2, 619072, Control_c, 0, 64, 127
2, 619335, Note_on_c, 0, 64, 0
2, 619377, Note_on_c, 0, 76, 0
2, 619397, Note_on_c, 0, 72, 0
2, 619417, Note_on_c, 0, 69, 0
2, 619449, Note_on_c, 0, 65, 0
2, 620215, Note_on_c, 0, 71, 53
2, 620223, Note_on_c, 0, 62, 57
2, 620235, Note_on_c, 0, 74, 57
2, 620243, Control_c, 0, 64, 0
2, 620245, Note_on_c, 0, 68, 49
2, 620253, Note_on_c, 0, 65, 55
2, 621012, Control_c, 0, 64, 127
2, 621069, Note_on_c, 0, 62, 0
2, 621252, Note_on_c, 0, 65, 0
2, 621260, Note_on_c, 0, 71, 0
2, 621324, Note_on_c, 0, 74, 0
2, 621346, Note_on_c, 0, 68, 0
2, 622098, Note_on_c, 0, 72, 39
2, 622108, Note_on_c, 0, 67, 57
2, 622115, Note_on_c, 0, 62, 48
2, 622132, Note_on_c, 0, 57, 45
2, 622155, Control_c, 0, 64, 0
2, 622750, Control_c, 0, 64, 127
2, 622859, Note_on_c, 0, 57, 0
2, 622958, Note_on_c, 0, 67, 0
2, 622966, Note_on_c, 0, 72, 0
2, 623105, Note_on_c, 0, 62, 0
2, 623983, Note_on_c, 0, 67, 51
2, 623990, Note_on_c, 0, 61, 47
2, 624008, Note_on_c, 0, 58, 44
2, 624027, Note_on_c, 0, 64, 45
2, 624037, Note_on_c, 0, 55, 41
2, 624094, Control_c, 0, 64, 0
2, 624741, Control_c, 0, 64, 127
2, 624779, Note_on_c, 0, 55, 0
2, 624920, Note_on_c, 0, 64, 0
2, 624955, Note_on_c, 0, 67, 0
2, 624957, Note_on_c, 0, 58, 0
2, 625352, Note_on_c, 0, 61, 0
2, 625924, Note_on_c, 0, 65, 53
2, 625947, Note_on_c, 0, 53, 38
2, 625952, Note_on_c, 0, 57, 36
2, 625957, Note_on_c, 0, 60, 46
2, 625981, Note_on_c, 0, 62, 36
2, 626034, Control_c, 0, 64, 0
2, 626631, Control_c, 0, 64, 127
2, 626840, Note_on_c, 0, 60, 0
2, 626865, Note_on_c, 0, 57, 0
2, 626887, Note_on_c, 0, 62, 0
2, 626946, Note_on_c, 0, 65, 0
2, 627140, Note_on_c, 0, 53, 0
2, 627894, Note_on_c, 0, 43, 39
2, 627998, Note_on_c, 0, 43, 0
2, 628526, Note_on_c, 0, 76, 68
2, 628546, Control_c, 0, 64, 0
2, 628764, Note_on_c, 0, 76, 0
2, 628905, Note_on_c, 0, 77, 74
2, 629334, Note_on_c, 0, 77, 0
2, 629501, Note_on_c, 0, 79, 67
2, 629580, Note_on_c, 0, 64, 40
2, 629729, Note_on_c, 0, 79, 0
2, 629984, Note_on_c, 0, 62, 1
2, 630411, Note_on_c, 0, 71, 58
2, 630644, Note_on_c, 0, 64, 0
2, 630661, Note_on_c, 0, 71, 0
2, 630820, Note_on_c, 0, 72, 40
2, 630874, Note_on_c, 0, 62, 0
2, 631296, Note_on_c, 0, 72, 0
2, 631423, Note_on_c, 0, 74, 73
2, 631614, Note_on_c, 0, 74, 0
2, 632340, Note_on_c, 0, 67, 57
2, 632551, Note_on_c, 0, 67, 0
2, 632739, Note_on_c, 0, 69, 45
2, 633191, Note_on_c, 0, 69, 0
2, 633347, Note_on_c, 0, 71, 68
2, 633357, Note_on_c, 0, 62, 47
2, 633404, Note_on_c, 0, 55, 46
2, 633456, Note_on_c, 0, 62, 0
2, 633508, Note_on_c, 0, 55, 0
2, 633555, Note_on_c, 0, 71, 0
2, 634287, Note_on_c, 0, 64, 38
2, 634438, Note_on_c, 0, 64, 0
2, 634704, Note_on_c, 0, 65, 34
2, 635011, Note_on_c, 0, 65, 0
2, 635264, Note_on_c, 0, 51, 38
2, 635272, Note_on_c, 0, 60, 48
2, 635274, Note_on_c, 0, 54, 37
2, 635309, Note_on_c, 0, 57, 45
2, 635400, Note_on_c, 0, 60, 0
2, 635418, Note_on_c, 0, 57, 0
2, 635520, Note_on_c, 0, 51, 0
2, 635534, Note_on_c, 0, 54, 0
2, 637154, Note_on_c, 0, 60, 64
2, 637191, Note_on_c, 0, 57, 48
2, 637221, Note_on_c, 0, 53, 42
2, 637241, Note_on_c, 0, 60, 0
2, 637280, Note_on_c, 0, 57, 0
2, 637322, Note_on_c, 0, 53, 0
2, 638200, Note_on_c, 0, 69, 40
2, 638300, Note_on_c, 0, 69, 0
2, 638543, Note_on_c, 0, 72, 43
2, 638731, Note_on_c, 0, 72, 0
2, 639088, Note_on_c, 0, 79, 89
2, 639136, Note_on_c, 0, 60, 62
2, 639143, Note_on_c, 0, 64, 63
2, 639148, Note_on_c, 0, 57, 58
2, 639225, Note_on_c, 0, 64, 0
2, 639230, Note_on_c, 0, 60, 0
2, 639344, Note_on_c, 0, 79, 0
2, 639383, Note_on_c, 0, 57, 0
2, 639517, Note_on_c, 0, 76, 57
2, 639961, Note_on_c, 0, 76, 0
2, 640390, Note_on_c, 0, 76, 75
2, 640415, Note_on_c, 0, 64, 44
2, 640418, Note_on_c, 0, 59, 56
2, 640445, Note_on_c, 0, 53, 37
2, 640760, Note_on_c, 0, 64, 0
2, 640790, Note_on_c, 0, 76, 0
2, 640805, Note_on_c, 0, 53, 0
2, 640812, Note_on_c, 0, 59, 0
2, 641305, Note_on_c, 0, 59, 37
2, 641336, Note_on_c, 0, 62, 51
2, 641341, Note_on_c, 0, 74, 68
2, 641368, Note_on_c, 0, 55, 48
2, 641414, Note_on_c, 0, 52, 29
2, 641566, Note_on_c, 0, 62, 0
2, 641645, Note_on_c, 0, 74, 0
2, 641653, Note_on_c, 0, 55, 0
2, 641656, Note_on_c, 0, 52, 0
2, 641675, Note_on_c, 0, 59, 0
2, 642266, Note_on_c, 0, 74, 79
2, 642794, Note_on_c, 0, 74, 0
2, 642895, Note_on_c, 0, 72, 48
2, 643217, Note_on_c, 0, 72, 0
2, 643289, Note_on_c, 0, 71, 50
2, 643292, Note_on_c, 0, 56, 19
2, 643867, Note_on_c, 0, 71, 0
2, 643872, Note_on_c, 0, 69, 57
2, 644217, Note_on_c, 0, 69, 0
2, 644227, Note_on_c, 0, 56, 0
2, 644353, Note_on_c, 0, 68, 35
2, 644691, Note_on_c, 0, 68, 0
2, 644864, Note_on_c, 0, 71, 54
2, 645013, Note_on_c, 0, 64, 26
2, 645018, Note_on_c, 0, 60, 30
2, 645048, Note_on_c, 0, 57, 22
2, 645258, Note_on_c, 0, 71, 0
2, 645318, Note_on_c, 0, 69, 55
2, 645365, Note_on_c, 0, 64, 0
2, 645869, Note_on_c, 0, 60, 0
2, 645963, Note_on_c, 0, 69, 0
2, 646126, Note_on_c, 0, 57, 0
2, 646161, Note_on_c, 0, 64, 33
2, 646689, Note_on_c, 0, 64, 0
2, 647153, Note_on_c, 0, 65, 32
2, 647158, Note_on_c, 0, 56, 23
2, 647173, Note_on_c, 0, 62, 38
2, 647766, Note_on_c, 0, 62, 0
2, 647833, Note_on_c, 0, 65, 0
2, 648004, Note_on_c, 0, 56, 0
2, 648148, Note_on_c, 0, 68, 31
2, 648358, Note_on_c, 0, 68, 0
2, 648453, Note_on_c, 0, 71, 66
2, 648721, Note_on_c, 0, 71, 0
2, 648790, Note_on_c, 0, 74, 80
2, 648993, Note_on_c, 0, 64, 24
2, 649003, Note_on_c, 0, 60, 28
2, 649048, Note_on_c, 0, 74, 0
2, 649053, Note_on_c, 0, 57, 29
2, 649152, Note_on_c, 0, 71, 54
2, 649453, Note_on_c, 0, 71, 0
2, 649479, Note_on_c, 0, 60, 0
2, 649487, Note_on_c, 0, 72, 46
2, 649603, Note_on_c, 0, 64, 0
2, 649829, Note_on_c, 0, 72, 0
2, 649891, Note_on_c, 0, 60, 30
2, 649951, Note_on_c, 0, 79, 59
2, 650023, Note_on_c, 0, 60, 0
2, 650127, Note_on_c, 0, 79, 0
2, 650134, Note_on_c, 0, 57, 0
2, 650422, Note_on_c, 0, 83, 58
2, 650623, Note_on_c, 0, 83, 0
2, 650727, Note_on_c, 0, 84, 74
2, 650992, Note_on_c, 0, 61, 45
2, 651005, Note_on_c, 0, 66, 54
2, 651034, Note_on_c, 0, 84, 0
2, 651069, Note_on_c, 0, 55, 57
2, 651275, Note_on_c, 0, 81, 35
2, 651394, Note_on_c, 0, 81, 0
2, 652250, Note_on_c, 0, 66, 0
2, 652292, Note_on_c, 0, 55, 0
2, 652798, Note_on_c, 0, 64, 24
2, 652800, Note_on_c, 0, 60, 43
2, 652813, Note_on_c, 0, 57, 38
2, 652852, Note_on_c, 0, 53, 30
2, 652991, Note_on_c, 0, 61, 0
2, 653966, Note_on_c, 0, 64, 0
2, 654020, Note_on_c, 0, 60, 0
2, 654040, Note_on_c, 0, 53, 0
2, 654043, Note_on_c, 0, 57, 0
2, 654437, Note_on_c, 0, 64, 36
2, 654467, Note_on_c, 0, 57, 38
2, 654487, Note_on_c, 0, 60, 32
2, 654541, Note_on_c, 0, 64, 0
2, 654623, Note_on_c, 0, 60, 0
2, 654643, Note_on_c, 0, 57, 0
2, 654759, Note_on_c, 0, 93, 55
2, 654816, Note_on_c, 0, 81, 30
2, 654911, Note_on_c, 0, 93, 0
2, 655000, Note_on_c, 0, 81, 0
2, 655089, Note_on_c, 0, 91, 48
2, 655312, Note_on_c, 0, 91, 0
2, 655419, Note_on_c, 0, 93, 87
2, 655446, Note_on_c, 0, 81, 60
2, 655511, Note_on_c, 0, 64, 46
2, 655518, Note_on_c, 0, 59, 53
2, 655598, Note_on_c, 0, 57, 31
2, 655613, Note_on_c, 0, 53, 31
2, 655652, Note_on_c, 0, 81, 0
2, 655727, Note_on_c, 0, 93, 0
2, 655883, Note_on_c, 0, 91, 38
2, 656027, Note_on_c, 0, 91, 0
2, 656066, Note_on_c, 0, 57, 0
2, 656113, Note_on_c, 0, 64, 0
2, 656168, Note_on_c, 0, 59, 0
2, 656245, Note_on_c, 0, 53, 0
2, 656699, Note_on_c, 0, 62, 29
2, 656733, Note_on_c, 0, 59, 32
2, 656766, Note_on_c, 0, 52, 30
2, 656768, Note_on_c, 0, 55, 35
2, 657281, Note_on_c, 0, 59, 0
2, 657487, Note_on_c, 0, 62, 0
2, 657609, Note_on_c, 0, 52, 0
2, 657658, Note_on_c, 0, 91, 55
2, 657701, Note_on_c, 0, 79, 46
2, 657763, Note_on_c, 0, 55, 0
2, 657812, Note_on_c, 0, 79, 0
2, 657842, Note_on_c, 0, 91, 0
2, 658008, Note_on_c, 0, 89, 45
2, 658145, Note_on_c, 0, 89, 0
2, 658306, Note_on_c, 0, 91, 76
2, 658328, Note_on_c, 0, 79, 49
2, 658512, Note_on_c, 0, 58, 51
2, 658515, Note_on_c, 0, 79, 0
2, 658534, Note_on_c, 0, 62, 39
2, 658574, Note_on_c, 0, 52, 34
2, 658606, Note_on_c, 0, 91, 0
2, 658707, Note_on_c, 0, 89, 44
2, 658958, Note_on_c, 0, 89, 0
2, 659328, Note_on_c, 0, 52, 0
2, 659434, Note_on_c, 0, 58, 0
2, 659541, Note_on_c, 0, 62, 0
2, 660262, Note_on_c, 0, 60, 43
2, 660265, Note_on_c, 0, 64, 36
2, 660270, Note_on_c, 0, 57, 48
2, 660275, Note_on_c, 0, 53, 34
2, 660362, Note_on_c, 0, 64, 0
2, 660362, Note_on_c, 0, 60, 0
2, 660379, Note_on_c, 0, 57, 0
2, 660394, Note_on_c, 0, 53, 0
2, 660535, Note_on_c, 0, 92, 77
2, 660550, Note_on_c, 0, 80, 72
2, 660629, Note_on_c, 0, 86, 51
2, 660915, Note_on_c, 0, 86, 0
2, 661034, Note_on_c, 0, 92, 0
2, 661121, Note_on_c, 0, 80, 0
2, 661143, Note_on_c, 0, 93, 72
2, 661168, Note_on_c, 0, 81, 51
2, 661173, Note_on_c, 0, 86, 55
2, 661180, Note_on_c, 0, 89, 34
2, 661324, Note_on_c, 0, 86, 0
2, 661326, Note_on_c, 0, 81, 0
2, 661359, Note_on_c, 0, 93, 0
2, 661398, Note_on_c, 0, 89, 0
2, 661555, Note_on_c, 0, 93, 50
2, 661577, Note_on_c, 0, 81, 30
2, 661619, Note_on_c, 0, 86, 40
2, 661634, Note_on_c, 0, 89, 40
2, 661872, Note_on_c, 0, 93, 0
2, 661879, Note_on_c, 0, 86, 0
2, 661929, Note_on_c, 0, 89, 0
2, 661941, Note_on_c, 0, 81, 0
2, 662118, Note_on_c, 0, 93, 70
2, 662167, Note_on_c, 0, 81, 51
2, 662179, Note_on_c, 0, 86, 63
2, 662197, Note_on_c, 0, 89, 38
2, 662219, Note_on_c, 0, 91, 25
2, 662239, Note_on_c, 0, 64, 53
2, 662329, Note_on_c, 0, 64, 0
2, 662331, Note_on_c, 0, 89, 0
2, 662343, Note_on_c, 0, 81, 0
2, 662346, Note_on_c, 0, 91, 0
2, 662358, Note_on_c, 0, 93, 0
2, 662368, Note_on_c, 0, 57, 24
2, 662437, Note_on_c, 0, 86, 0
2, 662480, Note_on_c, 0, 57, 0
2, 662581, Note_on_c, 0, 91, 40
2, 662639, Note_on_c, 0, 86, 44
2, 662644, Note_on_c, 0, 79, 40
2, 662951, Note_on_c, 0, 91, 0
2, 662996, Note_on_c, 0, 86, 0
2, 663005, Note_on_c, 0, 79, 0
2, 663181, Note_on_c, 0, 57, 27
2, 663286, Note_on_c, 0, 57, 0
2, 663434, Note_on_c, 0, 91, 64
2, 663462, Note_on_c, 0, 86, 70
2, 663472, Note_on_c, 0, 79, 53
2, 663779, Note_on_c, 0, 86, 0
2, 663858, Note_on_c, 0, 91, 0
2, 663915, Note_on_c, 0, 79, 0
2, 664092, Note_on_c, 0, 89, 66
2, 664116, Note_on_c, 0, 77, 60
2, 664161, Note_on_c, 0, 84, 64
2, 664399, Note_on_c, 0, 84, 0
2, 664444, Note_on_c, 0, 77, 0
2, 664446, Note_on_c, 0, 89, 0
2, 664657, Note_on_c, 0, 88, 47
2, 664694, Note_on_c, 0, 67, 35
2, 664702, Note_on_c, 0, 83, 29
2, 664719, Note_on_c, 0, 76, 38
2, 664796, Note_on_c, 0, 67, 0
2, 665051, Note_on_c, 0, 88, 0
2, 665061, Note_on_c, 0, 76, 0
2, 665106, Note_on_c, 0, 83, 0
2, 665416, Note_on_c, 0, 88, 60
2, 665428, Note_on_c, 0, 83, 48
2, 665448, Note_on_c, 0, 76, 53
2, 665739, Note_on_c, 0, 83, 0
2, 665783, Note_on_c, 0, 88, 0
2, 665793, Note_on_c, 0, 76, 0
2, 666333, Note_on_c, 0, 86, 68
2, 666368, Note_on_c, 0, 58, 32
2, 666376, Note_on_c, 0, 82, 36
2, 666378, Note_on_c, 0, 74, 42
2, 666386, Note_on_c, 0, 62, 37
2, 666408, Note_on_c, 0, 79, 46
2, 666460, Note_on_c, 0, 52, 32
2, 666634, Note_on_c, 0, 62, 0
2, 666686, Note_on_c, 0, 52, 0
2, 666705, Note_on_c, 0, 86, 0
2, 666723, Note_on_c, 0, 58, 0
2, 666738, Note_on_c, 0, 79, 0
2, 666767, Note_on_c, 0, 74, 0
2, 666797, Note_on_c, 0, 82, 0
2, 667293, Note_on_c, 0, 84, 55
2, 667323, Note_on_c, 0, 58, 36
2, 667325, Note_on_c, 0, 79, 44
2, 667348, Note_on_c, 0, 72, 32
2, 667350, Note_on_c, 0, 62, 44
2, 667392, Note_on_c, 0, 52, 24
2, 667516, Note_on_c, 0, 52, 0
2, 667529, Note_on_c, 0, 79, 0
2, 667539, Note_on_c, 0, 84, 0
2, 667645, Note_on_c, 0, 62, 0
2, 667670, Note_on_c, 0, 72, 0
2, 667702, Note_on_c, 0, 58, 0
2, 668218, Note_on_c, 0, 81, 49
2, 668233, Note_on_c, 0, 76, 51
2, 668258, Note_on_c, 0, 64, 24
2, 668268, Note_on_c, 0, 69, 33
2, 668271, Note_on_c, 0, 57, 37
2, 668300, Note_on_c, 0, 60, 38
2, 668313, Note_on_c, 0, 53, 18
2, 668441, Note_on_c, 0, 69, 0
2, 668528, Note_on_c, 0, 64, 0
2, 668531, Note_on_c, 0, 76, 0
2, 668553, Note_on_c, 0, 81, 0
2, 668563, Note_on_c, 0, 57, 0
2, 668565, Note_on_c, 0, 60, 0
2, 668620, Note_on_c, 0, 53, 0
2, 670215, Control_c, 0, 64, 127
2, 671088, Control_c, 0, 64, 0
2, 671167, Note_on_c, 0, 86, 79
2, 671172, Note_on_c, 0, 67, 71
2, 671184, Note_on_c, 0, 74, 78
2, 671192, Note_on_c, 0, 62, 68
2, 671197, Note_on_c, 0, 56, 50
2, 671199, Note_on_c, 0, 83, 67
2, 671202, Note_on_c, 0, 79, 66
2, 671227, Note_on_c, 0, 60, 55
2, 671708, Control_c, 0, 64, 127
2, 671745, Note_on_c, 0, 60, 0
2, 671802, Note_on_c, 0, 62, 0
2, 671881, Note_on_c, 0, 56, 0
2, 671906, Note_on_c, 0, 74, 0
2, 671961, Note_on_c, 0, 79, 0
2, 671983, Note_on_c, 0, 67, 0
2, 672045, Note_on_c, 0, 83, 0
2, 672055, Note_on_c, 0, 86, 0
2, 672739, Note_on_c, 0, 91, 71
2, 672767, Note_on_c, 0, 86, 88
2, 672777, Control_c, 0, 64, 0
2, 672786, Note_on_c, 0, 79, 69
2, 672794, Note_on_c, 0, 67, 74
2, 672804, Note_on_c, 0, 64, 72
2, 672816, Note_on_c, 0, 62, 66
2, 673223, Control_c, 0, 64, 127
2, 673230, Note_on_c, 0, 67, 0
2, 673302, Note_on_c, 0, 91, 0
2, 673349, Note_on_c, 0, 86, 0
2, 673496, Note_on_c, 0, 79, 0
2, 674096, Control_c, 0, 64, 0
2, 674111, Note_on_c, 0, 88, 78
2, 674118, Note_on_c, 0, 55, 66
2, 674129, Note_on_c, 0, 83, 66
2, 674131, Note_on_c, 0, 76, 69
2, 674666, Control_c, 0, 64, 127
2, 674669, Note_on_c, 0, 55, 0
2, 674676, Note_on_c, 0, 64, 0
2, 674728, Note_on_c, 0, 88, 0
2, 674738, Note_on_c, 0, 62, 0
2, 674793, Note_on_c, 0, 83, 0
2, 674862, Note_on_c, 0, 76, 0
2, 675609, Note_on_c, 0, 72, 66
2, 675616, Note_on_c, 0, 84, 74
2, 675638, Note_on_c, 0, 54, 59
2, 675643, Note_on_c, 0, 60, 65
2, 675668, Note_on_c, 0, 64, 59
2, 675710, Control_c, 0, 64, 0
2, 676251, Note_on_c, 0, 60, 0
2, 676256, Note_on_c, 0, 64, 0
2, 676278, Note_on_c, 0, 72, 0
2, 676308, Control_c, 0, 64, 127
2, 676358, Note_on_c, 0, 84, 0
2, 676430, Note_on_c, 0, 54, 0
2, 676980, Control_c, 0, 64, 0
2, 676997, Note_on_c, 0, 62, 74
2, 677002, Note_on_c, 0, 57, 71
2, 677005, Note_on_c, 0, 51, 67
2, 677040, Note_on_c, 0, 76, 50
2, 677045, Note_on_c, 0, 89, 45
2, 677062, Note_on_c, 0, 88, 36
2, 677067, Note_on_c, 0, 77, 42
2, 677573, Note_on_c, 0, 88, 0
2, 677585, Note_on_c, 0, 89, 0
2, 677637, Note_on_c, 0, 76, 0
2, 677655, Note_on_c, 0, 77, 0
2, 677699, Control_c, 0, 64, 127
2, 677878, Note_on_c, 0, 57, 0
2, 677947, Note_on_c, 0, 62, 0
2, 677992, Note_on_c, 0, 51, 0
2, 678535, Note_on_c, 0, 95, 71
2, 678543, Note_on_c, 0, 51, 68
2, 678547, Control_c, 0, 64, 0
2, 678562, Note_on_c, 0, 57, 71
2, 678577, Note_on_c, 0, 62, 62
2, 678593, Note_on_c, 0, 83, 36
2, 678598, Note_on_c, 0, 94, 51
2, 678637, Note_on_c, 0, 84, 34
2, 678719, Note_on_c, 0, 84, 0
2, 679041, Control_c, 0, 64, 127
2, 679192, Note_on_c, 0, 57, 0
2, 679259, Note_on_c, 0, 95, 0
2, 679274, Note_on_c, 0, 51, 0
2, 679279, Note_on_c, 0, 94, 0
2, 679455, Note_on_c, 0, 83, 0
2, 679532, Note_on_c, 0, 62, 0
2, 679763, Control_c, 0, 64, 0
2, 679877, Note_on_c, 0, 52, 36
2, 679879, Note_on_c, 0, 62, 47
2, 679899, Note_on_c, 0, 59, 36
2, 679907, Note_on_c, 0, 55, 55
2, 679921, Note_on_c, 0, 91, 42
2, 679924, Note_on_c, 0, 88, 46
2, 679947, Note_on_c, 0, 83, 39
2, 680386, Control_c, 0, 64, 127
2, 680519, Note_on_c, 0, 52, 0
2, 680561, Note_on_c, 0, 55, 0
2, 680564, Note_on_c, 0, 83, 0
2, 680576, Note_on_c, 0, 88, 0
2, 680601, Note_on_c, 0, 91, 0
2, 680606, Note_on_c, 0, 59, 0
2, 680678, Note_on_c, 0, 62, 0
2, 681417, Note_on_c, 0, 93, 70
2, 681422, Note_on_c, 0, 96, 66
2, 681427, Note_on_c, 0, 84, 64
2, 681439, Note_on_c, 0, 62, 76
2, 681450, Note_on_c, 0, 90, 37
2, 681461, Note_on_c, 0, 67, 76
2, 681464, Note_on_c, 0, 56, 67
2, 681479, Control_c, 0, 64, 0
2, 681538, Note_on_c, 0, 90, 0
2, 682178, Note_on_c, 0, 62, 0
2, 682196, Note_on_c, 0, 67, 0
2, 682208, Note_on_c, 0, 96, 0
2, 682233, Note_on_c, 0, 93, 0
2, 682315, Note_on_c, 0, 84, 0
2, 682369, Note_on_c, 0, 56, 0
2, 682374, Control_c, 0, 64, 127
2, 682597, Control_c, 0, 64, 0
2, 682741, Note_on_c, 0, 57, 60
2, 682756, Note_on_c, 0, 91, 69
2, 682766, Note_on_c, 0, 95, 61
2, 682771, Note_on_c, 0, 64, 54
2, 682778, Note_on_c, 0, 55, 57
2, 682781, Note_on_c, 0, 83, 62
2, 682786, Note_on_c, 0, 60, 59
2, 682825, Note_on_c, 0, 88, 50
2, 683443, Control_c, 0, 64, 127
2, 683651, Note_on_c, 0, 60, 0
2, 683656, Note_on_c, 0, 91, 0
2, 683674, Note_on_c, 0, 95, 0
2, 683679, Note_on_c, 0, 88, 0
2, 683753, Note_on_c, 0, 55, 0
2, 683758, Note_on_c, 0, 64, 0
2, 683830, Note_on_c, 0, 57, 0
2, 683867, Note_on_c, 0, 83, 0
2, 684240, Control_c, 0, 64, 0
2, 684242, Note_on_c, 0, 86, 55
2, 684247, Note_on_c, 0, 93, 35
2, 684252, Note_on_c, 0, 91, 36
2, 684257, Note_on_c, 0, 79, 36
2, 684269, Note_on_c, 0, 55, 53
2, 684271, Note_on_c, 0, 81, 38
2, 684274, Note_on_c, 0, 64, 48
2, 684296, Note_on_c, 0, 60, 45
2, 684299, Note_on_c, 0, 57, 51
2, 684366, Note_on_c, 0, 93, 0
2, 684656, Note_on_c, 0, 81, 0
2, 684661, Control_c, 0, 64, 127
2, 684844, Note_on_c, 0, 79, 0
2, 684847, Note_on_c, 0, 91, 0
2, 684884, Note_on_c, 0, 86, 0
2, 684901, Note_on_c, 0, 60, 0
2, 684963, Note_on_c, 0, 55, 0
2, 685020, Note_on_c, 0, 57, 0
2, 685067, Note_on_c, 0, 64, 0
2, 685459, Control_c, 0, 64, 0
2, 685553, Note_on_c, 0, 92, 61
2, 685576, Note_on_c, 0, 80, 39
2, 685578, Note_on_c, 0, 54, 55
2, 685581, Note_on_c, 0, 87, 60
2, 685586, Note_on_c, 0, 65, 62
2, 685591, Note_on_c, 0, 60, 59
2, 686359, Control_c, 0, 64, 127
2, 686818, Note_on_c, 0, 65, 0
2, 687024, Note_on_c, 0, 54, 0
2, 687051, Note_on_c, 0, 87, 0
2, 687056, Note_on_c, 0, 80, 0
2, 687154, Note_on_c, 0, 60, 0
2, 687161, Note_on_c, 0, 92, 0
2, 687428, Note_on_c, 0, 60, 31
2, 687436, Note_on_c, 0, 64, 42
2, 687453, Note_on_c, 0, 53, 46
2, 687463, Note_on_c, 0, 93, 50
2, 687473, Note_on_c, 0, 57, 51
2, 687483, Note_on_c, 0, 81, 40
2, 687513, Note_on_c, 0, 88, 47
2, 687776, Control_c, 0, 64, 0
2, 688197, Control_c, 0, 64, 127
2, 688356, Note_on_c, 0, 81, 0
2, 688373, Note_on_c, 0, 93, 0
2, 688410, Note_on_c, 0, 88, 0
2, 688500, Note_on_c, 0, 60, 0
2, 688599, Note_on_c, 0, 64, 0
2, 688617, Note_on_c, 0, 57, 0
2, 688622, Note_on_c, 0, 53, 0
2, 688983, Note_on_c, 0, 94, 68
2, 688998, Note_on_c, 0, 64, 70
2, 689011, Note_on_c, 0, 59, 68
2, 689013, Note_on_c, 0, 53, 59
2, 689016, Note_on_c, 0, 82, 52
2, 689021, Note_on_c, 0, 88, 66
2, 689050, Control_c, 0, 64, 0
2, 689397, Control_c, 0, 64, 127
2, 689733, Note_on_c, 0, 88, 0
2, 689841, Note_on_c, 0, 82, 0
2, 689879, Note_on_c, 0, 94, 0
2, 689891, Note_on_c, 0, 64, 0
2, 689918, Note_on_c, 0, 59, 0
2, 689958, Note_on_c, 0, 53, 0
2, 690169, Control_c, 0, 64, 0
2, 690298, Note_on_c, 0, 95, 60
2, 690300, Note_on_c, 0, 53, 60
2, 690305, Note_on_c, 0, 59, 65
2, 690308, Note_on_c, 0, 64, 62
2, 690310, Note_on_c, 0, 88, 62
2, 690330, Note_on_c, 0, 83, 50
2, 690429, Note_on_c, 0, 83, 0
2, 690437, Note_on_c, 0, 64, 0
2, 690474, Note_on_c, 0, 88, 0
2, 690501, Note_on_c, 0, 59, 0
2, 690538, Note_on_c, 0, 95, 0
2, 690543, Note_on_c, 0, 53, 0
2, 691255, Note_on_c, 0, 96, 82
2, 691265, Note_on_c, 0, 84, 78
2, 691275, Note_on_c, 0, 59, 60
2, 691282, Note_on_c, 0, 62, 70
2, 691302, Note_on_c, 0, 52, 57
2, 691312, Note_on_c, 0, 55, 57
2, 691885, Control_c, 0, 64, 127
2, 692056, Note_on_c, 0, 96, 0
2, 692187, Note_on_c, 0, 84, 0
2, 692364, Note_on_c, 0, 55, 0
2, 692411, Note_on_c, 0, 59, 0
2, 692411, Note_on_c, 0, 52, 0
2, 692542, Note_on_c, 0, 62, 0
2, 693266, Note_on_c, 0, 91, 58
2, 693277, Control_c, 0, 64, 0
2, 693279, Note_on_c, 0, 79, 48
2, 693284, Note_on_c, 0, 64, 43
2, 693286, Note_on_c, 0, 86, 62
2, 693294, Note_on_c, 0, 60, 45
2, 693306, Note_on_c, 0, 53, 30
2, 693318, Note_on_c, 0, 57, 47
2, 693928, Control_c, 0, 64, 127
2, 694080, Note_on_c, 0, 91, 0
2, 694100, Note_on_c, 0, 53, 0
2, 694159, Note_on_c, 0, 60, 0
2, 694181, Note_on_c, 0, 57, 0
2, 694194, Note_on_c, 0, 64, 0
2, 694211, Note_on_c, 0, 86, 0
2, 694348, Note_on_c, 0, 79, 0
2, 695099, Control_c, 0, 64, 0
2, 695201, Note_on_c, 0, 91, 42
2, 695228, Note_on_c, 0, 86, 56
2, 695233, Note_on_c, 0, 79, 39
2, 695238, Note_on_c, 0, 62, 32
2, 695245, Note_on_c, 0, 59, 34
2, 695248, Note_on_c, 0, 52, 36
2, 695255, Note_on_c, 0, 55, 37
2, 695848, Note_on_c, 0, 52, 0
2, 695907, Note_on_c, 0, 79, 0
2, 695920, Control_c, 0, 64, 127
2, 695947, Note_on_c, 0, 55, 0
2, 695965, Note_on_c, 0, 59, 0
2, 695989, Note_on_c, 0, 86, 0
2, 696036, Note_on_c, 0, 62, 0
2, 696051, Note_on_c, 0, 91, 0
2, 697088, Control_c, 0, 64, 0
2, 697090, Note_on_c, 0, 61, 87
2, 697100, Note_on_c, 0, 55, 91
2, 697103, Note_on_c, 0, 58, 79
2, 697108, Note_on_c, 0, 65, 95
2, 697110, Note_on_c, 0, 96, 89
2, 697113, Note_on_c, 0, 84, 103
2, 697115, Note_on_c, 0, 90, 84
2, 697120, Note_on_c, 0, 93, 92
2, 697431, Note_on_c, 0, 93, 0
2, 697440, Note_on_c, 0, 84, 0
2, 697490, Note_on_c, 0, 65, 0
2, 697497, Note_on_c, 0, 90, 0
2, 697500, Note_on_c, 0, 96, 0
2, 697562, Note_on_c, 0, 58, 0
2, 697589, Note_on_c, 0, 55, 0
2, 697629, Note_on_c, 0, 61, 0
2, 698018, Note_on_c, 0, 61, 70
2, 698028, Note_on_c, 0, 65, 79
2, 698030, Note_on_c, 0, 93, 83
2, 698033, Note_on_c, 0, 55, 79
2, 698038, Note_on_c, 0, 81, 80
2, 698043, Note_on_c, 0, 88, 77
2, 698048, Note_on_c, 0, 58, 62
2, 698412, Note_on_c, 0, 88, 0
2, 698425, Note_on_c, 0, 93, 0
2, 698507, Note_on_c, 0, 81, 0
2, 698534, Note_on_c, 0, 65, 0
2, 698539, Note_on_c, 0, 55, 0
2, 698697, Note_on_c, 0, 58, 0
2, 698772, Note_on_c, 0, 61, 0
2, 699005, Note_on_c, 0, 89, 54
2, 699023, Note_on_c, 0, 77, 43
2, 699040, Note_on_c, 0, 60, 49
2, 699045, Note_on_c, 0, 84, 54
2, 699062, Note_on_c, 0, 64, 59
2, 699065, Note_on_c, 0, 53, 49
2, 699087, Note_on_c, 0, 57, 52
2, 699258, Control_c, 0, 64, 127
2, 700086, Note_on_c, 0, 64, 0
2, 700156, Note_on_c, 0, 89, 0
2, 700158, Note_on_c, 0, 60, 0
2, 700171, Note_on_c, 0, 84, 0
2, 700258, Note_on_c, 0, 77, 0
2, 700277, Note_on_c, 0, 57, 0
2, 700399, Note_on_c, 0, 53, 0
2, 701768, Control_c, 0, 64, 0
2, 701830, Note_on_c, 0, 95, 72
2, 701850, Note_on_c, 0, 83, 65
2, 701864, Note_on_c, 0, 88, 57
2, 701872, Note_on_c, 0, 64, 64
2, 701882, Note_on_c, 0, 59, 59
2, 701942, Note_on_c, 0, 83, 0
2, 701949, Note_on_c, 0, 88, 0
2, 701954, Note_on_c, 0, 95, 0
2, 701956, Note_on_c, 0, 64, 0
2, 701957, Note_on_c, 0, 57, 33
2, 701989, Note_on_c, 0, 59, 0
2, 702055, Note_on_c, 0, 57, 0
2, 702487, Note_on_c, 0, 64, 53
2, 702504, Note_on_c, 0, 59, 38
2, 702537, Note_on_c, 0, 57, 43
2, 702541, Note_on_c, 0, 91, 75
2, 702549, Note_on_c, 0, 79, 51
2, 702554, Note_on_c, 0, 53, 20
2, 702577, Note_on_c, 0, 64, 0
2, 702623, Note_on_c, 0, 59, 0
2, 702631, Note_on_c, 0, 57, 0
2, 702638, Note_on_c, 0, 91, 0
2, 702661, Note_on_c, 0, 79, 0
2, 702678, Note_on_c, 0, 53, 0
2, 703035, Note_on_c, 0, 59, 42
2, 703077, Note_on_c, 0, 88, 74
2, 703092, Note_on_c, 0, 62, 51
2, 703097, Note_on_c, 0, 76, 65
2, 703099, Note_on_c, 0, 52, 45
2, 703109, Note_on_c, 0, 55, 55
2, 703856, Control_c, 0, 64, 127
2, 703972, Note_on_c, 0, 62, 0
2, 704007, Note_on_c, 0, 52, 0
2, 704029, Note_on_c, 0, 59, 0
2, 704032, Note_on_c, 0, 55, 0
2, 704689, Note_on_c, 0, 76, 0
2, 705041, Note_on_c, 0, 88, 0
2, 705398, Control_c, 0, 64, 0
2, 705438, Note_on_c, 0, 84, 62
2, 705473, Note_on_c, 0, 76, 44
2, 705475, Note_on_c, 0, 56, 60
2, 705478, Note_on_c, 0, 62, 66
2, 705486, Note_on_c, 0, 67, 64
2, 706301, Note_on_c, 0, 67, 0
2, 706331, Note_on_c, 0, 62, 0
2, 706460, Note_on_c, 0, 84, 0
2, 706535, Note_on_c, 0, 76, 0
2, 706557, Note_on_c, 0, 56, 0
2, 706730, Note_on_c, 0, 83, 55
2, 706738, Note_on_c, 0, 57, 52
2, 706750, Note_on_c, 0, 64, 44
2, 706829, Note_on_c, 0, 60, 39
2, 707727, Note_on_c, 0, 60, 0
2, 707908, Note_on_c, 0, 57, 0
2, 707975, Note_on_c, 0, 64, 0
2, 708583, Note_on_c, 0, 56, 44
2, 708585, Note_on_c, 0, 67, 53
2, 708625, Note_on_c, 0, 62, 55
2, 708761, Note_on_c, 0, 67, 0
2, 708796, Note_on_c, 0, 62, 0
2, 708915, Note_on_c, 0, 56, 0
2, 710215, Note_on_c, 0, 64, 36
2, 710244, Note_on_c, 0, 57, 44
2, 710262, Note_on_c, 0, 60, 42
2, 710296, Note_on_c, 0, 55, 34
2, 710426, Note_on_c, 0, 83, 0
2, 711410, Note_on_c, 0, 60, 0
2, 711514, Note_on_c, 0, 55, 0
2, 711554, Note_on_c, 0, 84, 78
2, 711571, Note_on_c, 0, 64, 0
2, 711750, Note_on_c, 0, 57, 0
2, 711965, Note_on_c, 0, 84, 0
2, 712122, Note_on_c, 0, 85, 76
2, 712370, Note_on_c, 0, 85, 0
2, 712471, Note_on_c, 0, 61, 39
2, 712514, Note_on_c, 0, 55, 40
2, 712551, Note_on_c, 0, 64, 27
2, 712556, Note_on_c, 0, 87, 63
2, 712980, Note_on_c, 0, 87, 0
2, 713116, Note_on_c, 0, 88, 67
2, 713344, Note_on_c, 0, 55, 0
2, 713379, Note_on_c, 0, 88, 0
2, 713538, Note_on_c, 0, 89, 40
2, 713560, Note_on_c, 0, 64, 0
2, 713692, Note_on_c, 0, 61, 0
2, 713912, Note_on_c, 0, 89, 0
2, 714086, Note_on_c, 0, 93, 48
2, 714091, Note_on_c, 0, 95, 54
2, 714205, Note_on_c, 0, 60, 22
2, 714257, Note_on_c, 0, 57, 25
2, 714319, Note_on_c, 0, 95, 0
2, 714406, Note_on_c, 0, 60, 0
2, 714411, Note_on_c, 0, 57, 0
2, 714423, Note_on_c, 0, 93, 0
2, 714540, Note_on_c, 0, 89, 45
2, 715093, Note_on_c, 0, 89, 0
2, 715440, Note_on_c, 0, 89, 57
2, 715755, Note_on_c, 0, 89, 0
2, 716370, Note_on_c, 0, 91, 63
2, 716412, Note_on_c, 0, 59, 45
2, 716417, Note_on_c, 0, 64, 34
2, 716457, Note_on_c, 0, 53, 29
2, 716645, Note_on_c, 0, 53, 0
2, 716655, Note_on_c, 0, 59, 0
2, 716663, Note_on_c, 0, 64, 0
2, 716811, Note_on_c, 0, 91, 0
2, 716933, Note_on_c, 0, 92, 67
2, 717243, Note_on_c, 0, 92, 0
2, 717382, Note_on_c, 0, 94, 60
2, 717769, Note_on_c, 0, 94, 0
2, 717860, Note_on_c, 0, 95, 64
2, 718084, Note_on_c, 0, 95, 0
2, 718902, Note_on_c, 0, 62, 70
2, 718966, Note_on_c, 0, 59, 40
2, 719019, Note_on_c, 0, 55, 27
2, 719083, Note_on_c, 0, 62, 0
2, 719100, Note_on_c, 0, 59, 0
2, 719131, Note_on_c, 0, 55, 0
2, 720229, Note_on_c, 0, 99, 87
2, 720762, Note_on_c, 0, 99, 0
2, 720779, Note_on_c, 0, 100, 77
2, 720789, Note_on_c, 0, 63, 62
2, 720819, Note_on_c, 0, 58, 57
2, 720841, Note_on_c, 0, 52, 51
2, 721161, Note_on_c, 0, 63, 0
2, 721164, Note_on_c, 0, 100, 0
2, 721176, Note_on_c, 0, 52, 0
2, 721236, Note_on_c, 0, 58, 0
2, 722778, Note_on_c, 0, 64, 32
2, 722828, Note_on_c, 0, 57, 37
2, 722872, Note_on_c, 0, 64, 0
2, 722942, Note_on_c, 0, 57, 0
2, 723063, Note_on_c, 0, 96, 95
2, 723582, Note_on_c, 0, 96, 0
2, 723679, Note_on_c, 0, 97, 64
2, 723926, Note_on_c, 0, 97, 0
2, 724142, Note_on_c, 0, 93, 39
2, 724519, Note_on_c, 0, 93, 0
2, 724938, Note_on_c, 0, 93, 75
2, 725385, Note_on_c, 0, 93, 0
2, 725566, Note_on_c, 0, 94, 67
2, 725603, Note_on_c, 0, 61, 47
2, 725811, Note_on_c, 0, 61, 0
2, 725858, Note_on_c, 0, 94, 0
2, 726082, Note_on_c, 0, 91, 17
2, 726416, Note_on_c, 0, 91, 0
2, 726545, Note_on_c, 0, 50, 26
2, 726669, Note_on_c, 0, 50, 0
2, 726873, Note_on_c, 0, 93, 90
2, 727403, Note_on_c, 0, 93, 0
2, 727743, Note_on_c, 0, 91, 87
2, 728185, Note_on_c, 0, 91, 0
2, 728383, Note_on_c, 0, 89, 77
2, 728753, Note_on_c, 0, 89, 0
2, 728830, Note_on_c, 0, 88, 49
2, 729201, Note_on_c, 0, 88, 0
2, 729373, Note_on_c, 0, 86, 57
2, 729638, Note_on_c, 0, 86, 0
2, 729777, Note_on_c, 0, 88, 62
2, 730454, Note_on_c, 0, 88, 0
2, 730623, Note_on_c, 0, 65, 41
2, 730662, Note_on_c, 0, 57, 25
2, 730746, Note_on_c, 0, 65, 0
2, 730883, Note_on_c, 0, 57, 0
2, 731312, Note_on_c, 0, 86, 71
2, 731520, Note_on_c, 0, 86, 0
2, 731684, Note_on_c, 0, 56, 67
2, 731689, Note_on_c, 0, 62, 66
2, 731691, Note_on_c, 0, 65, 66
2, 731696, Note_on_c, 0, 89, 81
2, 731709, Note_on_c, 0, 77, 76
2, 731721, Note_on_c, 0, 84, 73
2, 731754, Control_c, 0, 64, 127
2, 732259, Note_on_c, 0, 65, 0
2, 732269, Note_on_c, 0, 84, 0
2, 732279, Note_on_c, 0, 89, 0
2, 732326, Note_on_c, 0, 56, 0
2, 732349, Note_on_c, 0, 77, 0
2, 732391, Note_on_c, 0, 62, 0
2, 732525, Control_c, 0, 64, 0
2, 732621, Note_on_c, 0, 88, 76
2, 732644, Note_on_c, 0, 56, 67
2, 732651, Note_on_c, 0, 83, 73
2, 732654, Note_on_c, 0, 65, 71
2, 732656, Note_on_c, 0, 76, 74
2, 732661, Note_on_c, 0, 62, 67
2, 732676, Note_on_c, 0, 85, 50
2, 732974, Note_on_c, 0, 85, 0
2, 733053, Note_on_c, 0, 88, 0
2, 733055, Note_on_c, 0, 83, 0
2, 733058, Note_on_c, 0, 62, 0
2, 733070, Control_c, 0, 64, 127
2, 733127, Note_on_c, 0, 65, 0
2, 733174, Note_on_c, 0, 76, 0
2, 733301, Note_on_c, 0, 56, 0
2, 733395, Control_c, 0, 64, 0
2, 733576, Note_on_c, 0, 84, 56
2, 733598, Note_on_c, 0, 79, 53
2, 733608, Note_on_c, 0, 72, 36
2, 733626, Note_on_c, 0, 57, 50
2, 733633, Note_on_c, 0, 64, 46
2, 733636, Note_on_c, 0, 55, 51
2, 733648, Note_on_c, 0, 60, 47
2, 733866, Control_c, 0, 64, 127
2, 734102, Note_on_c, 0, 72, 0
2, 734159, Note_on_c, 0, 64, 0
2, 734164, Note_on_c, 0, 84, 0
2, 734176, Note_on_c, 0, 55, 0
2, 734209, Note_on_c, 0, 79, 0
2, 734238, Control_c, 0, 64, 0
2, 734241, Note_on_c, 0, 60, 0
2, 734269, Note_on_c, 0, 57, 0
2, 734541, Note_on_c, 0, 79, 71
2, 734543, Note_on_c, 0, 86, 85
2, 734561, Note_on_c, 0, 74, 74
2, 734571, Note_on_c, 0, 64, 60
2, 734573, Note_on_c, 0, 55, 64
2, 734586, Note_on_c, 0, 57, 52
2, 734595, Note_on_c, 0, 60, 49
2, 734618, Note_on_c, 0, 82, 30
2, 734687, Control_c, 0, 64, 127
2, 734710, Note_on_c, 0, 82, 0
2, 734834, Note_on_c, 0, 60, 0
2, 734883, Note_on_c, 0, 64, 0
2, 734903, Note_on_c, 0, 74, 0
2, 734938, Note_on_c, 0, 79, 0
2, 734958, Note_on_c, 0, 57, 0
2, 734968, Note_on_c, 0, 55, 0
2, 734977, Note_on_c, 0, 86, 0
2, 735413, Control_c, 0, 64, 0
2, 735466, Note_on_c, 0, 61, 60
2, 735491, Note_on_c, 0, 65, 68
2, 735498, Note_on_c, 0, 58, 52
2, 735523, Note_on_c, 0, 54, 46
2, 735525, Note_on_c, 0, 82, 71
2, 735530, Note_on_c, 0, 87, 73
2, 735533, Note_on_c, 0, 75, 74
2, 735848, Control_c, 0, 64, 127
2, 736041, Note_on_c, 0, 82, 0
2, 736046, Note_on_c, 0, 54, 0
2, 736076, Note_on_c, 0, 65, 0
2, 736088, Note_on_c, 0, 75, 0
2, 736145, Note_on_c, 0, 58, 0
2, 736150, Note_on_c, 0, 87, 0
2, 736183, Note_on_c, 0, 61, 0
2, 736867, Note_on_c, 0, 44, 69
2, 737768, Control_c, 0, 64, 0
2, 738388, Control_c, 0, 64, 127
2, 742342, Control_c, 0, 64, 0
2, 742575, Note_on_c, 0, 44, 0
2, 742673, Note_on_c, 0, 64, 78
2, 742676, Note_on_c, 0, 43, 54
2, 742690, Note_on_c, 0, 55, 78
2, 742702, Note_on_c, 0, 60, 75
2, 742745, Note_on_c, 0, 52, 57
2, 743356, Control_c, 0, 64, 127
2, 743906, Note_on_c, 0, 43, 0
2, 744084, Note_on_c, 0, 43, 76
2, 744410, Note_on_c, 0, 55, 0
2, 744974, Note_on_c, 0, 60, 0
2, 745052, Note_on_c, 0, 55, 80
2, 745392, Note_on_c, 0, 64, 0
2, 746170, Note_on_c, 0, 64, 75
2, 747483, Note_on_c, 0, 55, 0
2, 747615, Note_on_c, 0, 64, 0
2, 749338, Note_on_c, 0, 52, 0
2, 749508, Note_on_c, 0, 43, 0
2, 750512, Note_on_c, 0, 72, 70
2, 750515, Note_on_c, 0, 67, 89
2, 750530, Note_on_c, 0, 64, 85
2, 750570, Note_on_c, 0, 57, 63
2, 751079, Note_on_c, 0, 72, 0
2, 751474, Note_on_c, 0, 64, 0
2, 751489, Note_on_c, 0, 67, 0
2, 751584, Control_c, 0, 64, 0
2, 751627, Note_on_c, 0, 74, 88
2, 751650, Note_on_c, 0, 59, 78
2, 751662, Note_on_c, 0, 67, 67
2, 751664, Note_on_c, 0, 64, 66
2, 751745, Note_on_c, 0, 57, 0
2, 751962, Control_c, 0, 64, 127
2, 752255, Note_on_c, 0, 64, 0
2, 752258, Note_on_c, 0, 67, 0
2, 752351, Note_on_c, 0, 74, 0
2, 752765, Control_c, 0, 64, 0
2, 752854, Note_on_c, 0, 76, 85
2, 752869, Note_on_c, 0, 72, 67
2, 752877, Note_on_c, 0, 69, 81
2, 752886, Note_on_c, 0, 65, 80
2, 752920, Note_on_c, 0, 60, 80
2, 752998, Note_on_c, 0, 59, 0
2, 753338, Control_c, 0, 64, 127
2, 753658, Note_on_c, 0, 72, 0
2, 753673, Note_on_c, 0, 76, 0
2, 753707, Note_on_c, 0, 69, 0
2, 753877, Note_on_c, 0, 65, 0
2, 754353, Note_on_c, 0, 60, 0
2, 754402, Note_on_c, 0, 72, 43
2, 754431, Note_on_c, 0, 62, 62
2, 754443, Note_on_c, 0, 65, 55
2, 754446, Note_on_c, 0, 69, 64
2, 754466, Note_on_c, 0, 57, 61
2, 754974, Note_on_c, 0, 57, 0
2, 755045, Note_on_c, 0, 69, 0
2, 755103, Note_on_c, 0, 72, 0
2, 755172, Note_on_c, 0, 65, 0
2, 755316, Note_on_c, 0, 62, 0
2, 755993, Note_on_c, 0, 53, 49
2, 756002, Note_on_c, 0, 69, 55
2, 756011, Control_c, 0, 64, 0
2, 756039, Note_on_c, 0, 60, 38
2, 756045, Note_on_c, 0, 64, 53
2, 756086, Note_on_c, 0, 65, 51
2, 756878, Control_c, 0, 64, 127
2, 757093, Note_on_c, 0, 65, 0
2, 757148, Note_on_c, 0, 64, 0
2, 757191, Note_on_c, 0, 69, 0
2, 757289, Note_on_c, 0, 53, 0
2, 757340, Note_on_c, 0, 60, 0
2, 758294, Control_c, 0, 64, 0
2, 758325, Note_on_c, 0, 65, 44
2, 758348, Note_on_c, 0, 59, 54
2, 758354, Note_on_c, 0, 43, 33
2, 758368, Note_on_c, 0, 62, 55
2, 758383, Note_on_c, 0, 56, 28
2, 758461, Note_on_c, 0, 53, 25
2, 759098, Control_c, 0, 64, 127
2, 759769, Note_on_c, 0, 43, 0
2, 759826, Note_on_c, 0, 56, 0
2, 759887, Note_on_c, 0, 53, 0
2, 759921, Note_on_c, 0, 59, 0
2, 759979, Note_on_c, 0, 62, 0
2, 759982, Note_on_c, 0, 65, 0
2, 761404, Note_on_c, 0, 40, 29
2, 761465, Control_c, 0, 64, 0
2, 761476, Note_on_c, 0, 47, 24
2, 761479, Note_on_c, 0, 74, 63
2, 761505, Note_on_c, 0, 67, 57
2, 761517, Note_on_c, 0, 62, 54
2, 761558, Note_on_c, 0, 55, 36
2, 761563, Note_on_c, 0, 71, 48
2, 761917, Note_on_c, 0, 71, 0
2, 762122, Note_on_c, 0, 74, 0
2, 762159, Control_c, 0, 64, 127
2, 762228, Note_on_c, 0, 67, 0
2, 762675, Note_on_c, 0, 62, 0
2, 762873, Note_on_c, 0, 40, 0
2, 762893, Note_on_c, 0, 71, 68
2, 763023, Note_on_c, 0, 47, 0
2, 763265, Note_on_c, 0, 55, 0
2, 763403, Note_on_c, 0, 62, 13
2, 763521, Note_on_c, 0, 71, 0
2, 763639, Note_on_c, 0, 62, 0
2, 764383, Control_c, 0, 64, 0
2, 764449, Note_on_c, 0, 59, 35
2, 764454, Note_on_c, 0, 67, 40
2, 764457, Note_on_c, 0, 62, 49
2, 764463, Note_on_c, 0, 55, 38
2, 764480, Note_on_c, 0, 64, 43
2, 764538, Note_on_c, 0, 45, 26
2, 765042, Control_c, 0, 64, 127
2, 765108, Note_on_c, 0, 64, 0
2, 765195, Note_on_c, 0, 62, 0
2, 765376, Note_on_c, 0, 67, 0
2, 765419, Note_on_c, 0, 59, 0
2, 765618, Note_on_c, 0, 55, 0
2, 766228, Note_on_c, 0, 45, 0
2, 766430, Note_on_c, 0, 61, 36
2, 766447, Note_on_c, 0, 58, 39
2, 766456, Note_on_c, 0, 64, 50
2, 766458, Note_on_c, 0, 55, 35
2, 766487, Control_c, 0, 64, 0
2, 766505, Note_on_c, 0, 49, 32
2, 767062, Control_c, 0, 64, 127
2, 767697, Note_on_c, 0, 55, 0
2, 767841, Note_on_c, 0, 58, 0
2, 768109, Note_on_c, 0, 64, 0
2, 768193, Control_c, 0, 64, 0
2, 768297, Note_on_c, 0, 65, 52
2, 768325, Note_on_c, 0, 60, 51
2, 768348, Note_on_c, 0, 57, 22
2, 768363, Note_on_c, 0, 50, 48
2, 768406, Note_on_c, 0, 49, 0
2, 768970, Control_c, 0, 64, 127
2, 769082, Note_on_c, 0, 65, 0
2, 769261, Note_on_c, 0, 61, 0
2, 769376, Note_on_c, 0, 57, 0
2, 769494, Note_on_c, 0, 60, 0
2, 769552, Control_c, 0, 64, 0
2, 769705, Note_on_c, 0, 67, 71
2, 769708, Note_on_c, 0, 50, 0
2, 769716, Note_on_c, 0, 60, 63
2, 769740, Note_on_c, 0, 57, 62
2, 769746, Note_on_c, 0, 52, 57
2, 770037, Control_c, 0, 64, 127
2, 770244, Note_on_c, 0, 57, 0
2, 770455, Note_on_c, 0, 67, 0
2, 770534, Note_on_c, 0, 60, 0
2, 770987, Control_c, 0, 64, 0
2, 771110, Note_on_c, 0, 69, 65
2, 771128, Note_on_c, 0, 62, 67
2, 771157, Note_on_c, 0, 60, 59
2, 771165, Note_on_c, 0, 65, 61
2, 771171, Note_on_c, 0, 53, 58
2, 771220, Note_on_c, 0, 52, 0
2, 771626, Note_on_c, 0, 60, 0
2, 771790, Note_on_c, 0, 62, 0
2, 771828, Control_c, 0, 64, 127
2, 771862, Note_on_c, 0, 69, 0
2, 771868, Note_on_c, 0, 65, 0
2, 772706, Note_on_c, 0, 72, 44
2, 772718, Note_on_c, 0, 69, 57
2, 772721, Note_on_c, 0, 65, 61
2, 772735, Note_on_c, 0, 62, 60
2, 772761, Note_on_c, 0, 57, 50
2, 772825, Note_on_c, 0, 53, 0
2, 773352, Note_on_c, 0, 57, 0
2, 773361, Note_on_c, 0, 62, 0
2, 773524, Note_on_c, 0, 65, 0
2, 773607, Note_on_c, 0, 69, 0
2, 773630, Note_on_c, 0, 72, 0
2, 774650, Note_on_c, 0, 69, 55
2, 774659, Control_c, 0, 64, 0
2, 774662, Note_on_c, 0, 76, 60
2, 774679, Note_on_c, 0, 65, 58
2, 774690, Note_on_c, 0, 72, 30
2, 774759, Note_on_c, 0, 64, 44
2, 775350, Control_c, 0, 64, 127
2, 776262, Note_on_c, 0, 65, 0
2, 776346, Note_on_c, 0, 69, 0
2, 776450, Note_on_c, 0, 72, 0
2, 776611, Note_on_c, 0, 64, 0
2, 776660, Note_on_c, 0, 76, 0
2, 776804, Note_on_c, 0, 65, 43
2, 776813, Note_on_c, 0, 74, 45
2, 776841, Note_on_c, 0, 69, 40
2, 776916, Note_on_c, 0, 62, 22
2, 777907, Note_on_c, 0, 65, 0
2, 777927, Note_on_c, 0, 62, 0
2, 778043, Note_on_c, 0, 69, 0
2, 778270, Note_on_c, 0, 74, 0
2, 779851, Control_c, 0, 64, 0
2, 779984, Note_on_c, 0, 83, 45
2, 780012, Note_on_c, 0, 71, 36
2, 780032, Note_on_c, 0, 80, 37
2, 780038, Note_on_c, 0, 76, 53
2, 780081, Note_on_c, 0, 63, 21
2, 780096, Note_on_c, 0, 59, 37
2, 780150, Note_on_c, 0, 53, 26
2, 780542, Control_c, 0, 64, 127
2, 780807, Note_on_c, 0, 59, 0
2, 780825, Note_on_c, 0, 63, 0
2, 780957, Note_on_c, 0, 53, 0
2, 782751, Note_on_c, 0, 31, 45
2, 782972, Note_on_c, 0, 31, 0
2, 785694, Note_on_c, 0, 76, 0
2, 785697, Note_on_c, 0, 71, 0
2, 786017, Note_on_c, 0, 83, 0
2, 786126, Note_on_c, 0, 80, 0
2, 788139, Control_c, 0, 64, 0
2, 788185, Note_on_c, 0, 84, 75
2, 788194, Note_on_c, 0, 77, 69
2, 788205, Note_on_c, 0, 79, 67
2, 788214, Note_on_c, 0, 72, 53
2, 788272, Note_on_c, 0, 44, 61
2, 788802, Control_c, 0, 64, 127
2, 789159, Note_on_c, 0, 84, 0
2, 789441, Note_on_c, 0, 79, 0
2, 789465, Note_on_c, 0, 77, 0
2, 789577, Note_on_c, 0, 72, 0
2, 790297, Note_on_c, 0, 51, 35
2, 791382, Note_on_c, 0, 44, 0
2, 791440, Note_on_c, 0, 65, 56
2, 791446, Note_on_c, 0, 60, 44
2, 791457, Note_on_c, 0, 67, 54
2, 791478, Note_on_c, 0, 51, 0
2, 791521, Note_on_c, 0, 55, 30
2, 792307, Note_on_c, 0, 60, 0
2, 792511, Note_on_c, 0, 65, 0
2, 792535, Note_on_c, 0, 67, 0
2, 792581, Note_on_c, 0, 56, 57
2, 792661, Note_on_c, 0, 55, 0
2, 793629, Note_on_c, 0, 79, 58
2, 793655, Note_on_c, 0, 72, 45
2, 793683, Note_on_c, 0, 60, 38
2, 794251, Note_on_c, 0, 72, 0
2, 794712, Note_on_c, 0, 79, 0
2, 794772, Note_on_c, 0, 72, 35
2, 794781, Note_on_c, 0, 67, 46
2, 794813, Note_on_c, 0, 65, 47
2, 794916, Note_on_c, 0, 60, 0
2, 794983, Note_on_c, 0, 67, 0
2, 795086, Note_on_c, 0, 72, 0
2, 796157, Note_on_c, 0, 84, 48
2, 796215, Note_on_c, 0, 77, 26
2, 796226, Note_on_c, 0, 60, 40
2, 796298, Note_on_c, 0, 65, 0
2, 796503, Note_on_c, 0, 56, 0
2, 797028, Note_on_c, 0, 77, 0
2, 797071, Note_on_c, 0, 84, 0
2, 797523, Note_on_c, 0, 60, 0
2, 797546, Note_on_c, 0, 56, 33
2, 797563, Note_on_c, 0, 72, 27
2, 797572, Note_on_c, 0, 79, 43
2, 797583, Note_on_c, 0, 77, 38
2, 797811, Note_on_c, 0, 56, 0
2, 798231, Note_on_c, 0, 79, 0
2, 798280, Note_on_c, 0, 77, 0
2, 798410, Note_on_c, 0, 72, 0
2, 799207, Note_on_c, 0, 36, 34
2, 799311, Control_c, 0, 64, 0
2, 799360, Note_on_c, 0, 78, 39
2, 799365, Note_on_c, 0, 74, 50
2, 799383, Note_on_c, 0, 69, 45
2, 799420, Note_on_c, 0, 52, 42
2, 800377, Control_c, 0, 64, 127
2, 800933, Note_on_c, 0, 43, 40
2, 800953, Note_on_c, 0, 36, 0
2, 801034, Note_on_c, 0, 79, 51
2, 801048, Note_on_c, 0, 69, 0
2, 801143, Note_on_c, 0, 52, 0
2, 801149, Note_on_c, 0, 43, 0
2, 801218, Note_on_c, 0, 78, 0
2, 801783, Note_on_c, 0, 74, 0
2, 802228, Note_on_c, 0, 79, 0
2, 802631, Note_on_c, 0, 78, 34
2, 802655, Note_on_c, 0, 74, 42
2, 802686, Note_on_c, 0, 69, 36
2, 802733, Note_on_c, 0, 57, 36
2, 804199, Note_on_c, 0, 57, 0
2, 804409, Note_on_c, 0, 62, 34
2, 805534, Note_on_c, 0, 74, 0
2, 805621, Note_on_c, 0, 69, 0
2, 806289, Note_on_c, 0, 78, 0
2, 806387, Note_on_c, 0, 74, 34
2, 806393, Note_on_c, 0, 69, 37
2, 806422, Note_on_c, 0, 64, 35
2, 806425, Note_on_c, 0, 62, 0
2, 806744, Note_on_c, 0, 69, 0
2, 807087, Note_on_c, 0, 74, 0
2, 807168, Note_on_c, 0, 64, 0
2, 812101, Note_on_c, 0, 24, 37
2, 812452, Note_on_c, 0, 24, 0
2, 821826, Control_c, 0, 64, 0
2, 821826, End_track
3, 0, Start_track
3, 0, End_track
4, 0, Start_track
4, 0, Program_c, 1, 33
4, 0, Control_c, 1, 7, 115
4, 383084, Note_on_c, 1, 31, 51
4, 384044, Note_on_c, 1, 31, 0
4, 384073, Note_on_c, 1, 36, 52
4, 386659, Note_on_c, 1, 34, 51
4, 386825, Note_on_c, 1, 36, 0
4, 386893, Note_on_c, 1, 34, 0
4, 386923, Note_on_c, 1, 41, 76
4, 387780, Note_on_c, 1, 41, 0
4, 387962, Note_on_c, 1, 40, 62
4, 389649, Note_on_c, 1, 40, 0
4, 389771, Note_on_c, 1, 39, 59
4, 390696, Note_on_c, 1, 39, 0
4, 390786, Note_on_c, 1, 38, 66
4, 392369, Note_on_c, 1, 37, 52
4, 392475, Note_on_c, 1, 37, 0
4, 392665, Note_on_c, 1, 45, 113
4, 392714, Note_on_c, 1, 38, 0
4, 393478, Note_on_c, 1, 45, 0
4, 393691, Note_on_c, 1, 43, 83
4, 395105, Note_on_c, 1, 38, 65
4, 395206, Note_on_c, 1, 38, 0
4, 395483, Note_on_c, 1, 43, 0
4, 395570, Note_on_c, 1, 36, 50
4, 397208, Note_on_c, 1, 36, 98
4, 397235, Note_on_c, 1, 36, 0
4, 397926, Note_on_c, 1, 36, 0
4, 398184, Note_on_c, 1, 36, 64
4, 398323, Note_on_c, 1, 36, 0
4, 398472, Note_on_c, 1, 40, 79
4, 399242, Note_on_c, 1, 40, 0
4, 399471, Note_on_c, 1, 33, 70
4, 401353, Note_on_c, 1, 40, 79
4, 401388, Note_on_c, 1, 33, 0
4, 403058, Note_on_c, 1, 35, 61
4, 403151, Note_on_c, 1, 40, 0
4, 403181, Note_on_c, 1, 35, 0
4, 403289, Note_on_c, 1, 45, 69
4, 404862, Note_on_c, 1, 49, 93
4, 404968, Note_on_c, 1, 45, 0
4, 406861, Note_on_c, 1, 45, 56
4, 406991, Note_on_c, 1, 45, 0
4, 407027, Note_on_c, 1, 49, 0
4, 407100, Note_on_c, 1, 52, 75
4, 407663, Note_on_c, 1, 52, 0
4, 408055, Note_on_c, 1, 51, 78
4, 408789, Note_on_c, 1, 51, 0
4, 409048, Note_on_c, 1, 50, 67
4, 409758, Note_on_c, 1, 50, 0
4, 409945, Note_on_c, 1, 43, 58
4, 410859, Note_on_c, 1, 43, 0
4, 410949, Note_on_c, 1, 48, 92
4, 412777, Note_on_c, 1, 48, 0
4, 412929, Note_on_c, 1, 40, 79
4, 414344, Note_on_c, 1, 40, 0
4, 414428, Note_on_c, 1, 41, 87
4, 415437, Note_on_c, 1, 48, 99
4, 415611, Note_on_c, 1, 41, 0
4, 416767, Note_on_c, 1, 46, 68
4, 416781, Note_on_c, 1, 48, 0
4, 418755, Note_on_c, 1, 36, 79
4, 418785, Note_on_c, 1, 46, 0
4, 421201, Note_on_c, 1, 34, 63
4, 421391, Note_on_c, 1, 34, 0
4, 421538, Note_on_c, 1, 36, 0
4, 421571, Note_on_c, 1, 40, 69
4, 422229, Note_on_c, 1, 40, 0
4, 422446, Note_on_c, 1, 41, 81
4, 424489, Note_on_c, 1, 34, 74
4, 424497, Note_on_c, 1, 41, 0
4, 425819, Note_on_c, 1, 34, 0
4, 425904, Note_on_c, 1, 35, 71
4, 426162, Note_on_c, 1, 35, 0
4, 426287, Note_on_c, 1, 36, 57
4, 427884, Note_on_c, 1, 34, 64
4, 428069, Note_on_c, 1, 36, 0
4, 428172, Note_on_c, 1, 34, 0
4, 428264, Note_on_c, 1, 48, 71
4, 428615, Note_on_c, 1, 48, 0
4, 429203, Note_on_c, 1, 42, 78
4, 431112, Note_on_c, 1, 51, 80
4, 431276, Note_on_c, 1, 42, 0
4, 431431, Note_on_c, 1, 51, 0
4, 431743, Note_on_c, 1, 42, 41
4, 431839, Note_on_c, 1, 42, 0
4, 432067, Note_on_c, 1, 47, 75
4, 432772, Note_on_c, 1, 47, 0
4, 432965, Note_on_c, 1, 40, 76
4, 434991, Note_on_c, 1, 46, 104
4, 435315, Note_on_c, 1, 46, 0
4, 435783, Note_on_c, 1, 40, 0
4, 435902, Note_on_c, 1, 46, 99
4, 437483, Note_on_c, 1, 40, 58
4, 437591, Note_on_c, 1, 46, 0
4, 437616, Note_on_c, 1, 40, 0
4, 437820, Note_on_c, 1, 45, 84
4, 439656, Note_on_c, 1, 45, 0
4, 439751, Note_on_c, 1, 38, 73
4, 440997, Note_on_c, 1, 38, 0
4, 441304, Note_on_c, 1, 38, 61
4, 441524, Note_on_c, 1, 38, 0
4, 441625, Note_on_c, 1, 43, 85
4, 442566, Note_on_c, 1, 31, 103
4, 442724, Note_on_c, 1, 43, 0
4, 444185, Note_on_c, 1, 38, 74
4, 444288, Note_on_c, 1, 38, 0
4, 444478, Note_on_c, 1, 31, 0
4, 444530, Note_on_c, 1, 43, 83
4, 446181, Note_on_c, 1, 43, 0
4, 446214, Note_on_c, 1, 38, 58
4, 446363, Note_on_c, 1, 38, 0
4, 446453, Note_on_c, 1, 43, 83
4, 448039, Note_on_c, 1, 40, 59
4, 448126, Note_on_c, 1, 43, 0
4, 448325, Note_on_c, 1, 40, 0
4, 448390, Note_on_c, 1, 41, 79
4, 449053, Note_on_c, 1, 41, 0
4, 449165, Note_on_c, 1, 39, 47
4, 449296, Note_on_c, 1, 39, 0
4, 449366, Note_on_c, 1, 40, 76
4, 451012, Note_on_c, 1, 37, 47
4, 451058, Note_on_c, 1, 40, 0
4, 451142, Note_on_c, 1, 37, 0
4, 451240, Note_on_c, 1, 39, 71
4, 452810, Note_on_c, 1, 37, 46
4, 452946, Note_on_c, 1, 39, 0
4, 452973, Note_on_c, 1, 37, 0
4, 453090, Note_on_c, 1, 38, 57
4, 453974, Note_on_c, 1, 38, 0
4, 454104, Note_on_c, 1, 45, 108
4, 454926, Note_on_c, 1, 45, 0
4, 455108, Note_on_c, 1, 43, 86
4, 456063, Note_on_c, 1, 36, 88
4, 456068, Note_on_c, 1, 43, 0
4, 458013, Note_on_c, 1, 40, 82
4, 458144, Note_on_c, 1, 36, 0
4, 459330, Note_on_c, 1, 40, 0
4, 459477, Note_on_c, 1, 50, 87
4, 459871, Note_on_c, 1, 46, 60
4, 459906, Note_on_c, 1, 50, 0
4, 460116, Note_on_c, 1, 46, 0
4, 460483, Note_on_c, 1, 34, 51
4, 460592, Note_on_c, 1, 34, 0
4, 460828, Note_on_c, 1, 48, 83
4, 462354, Note_on_c, 1, 45, 76
4, 462390, Note_on_c, 1, 48, 0
4, 462640, Note_on_c, 1, 45, 0
4, 462754, Note_on_c, 1, 40, 77
4, 464761, Note_on_c, 1, 45, 99
4, 464843, Note_on_c, 1, 40, 0
4, 466551, Note_on_c, 1, 45, 0
4, 466714, Note_on_c, 1, 49, 91
4, 468270, Note_on_c, 1, 40, 70
4, 468420, Note_on_c, 1, 40, 0
4, 468469, Note_on_c, 1, 49, 0
4, 468608, Note_on_c, 1, 50, 89
4, 470354, Note_on_c, 1, 50, 0
4, 470479, Note_on_c, 1, 43, 70
4, 471847, Note_on_c, 1, 43, 0
4, 472024, Note_on_c, 1, 42, 52
4, 472138, Note_on_c, 1, 42, 0
4, 472149, Note_on_c, 1, 43, 59
4, 472391, Note_on_c, 1, 43, 0
4, 472426, Note_on_c, 1, 48, 103
4, 474067, Note_on_c, 1, 43, 66
4, 474175, Note_on_c, 1, 43, 0
4, 474235, Note_on_c, 1, 48, 0
4, 474292, Note_on_c, 1, 46, 77
4, 475231, Note_on_c, 1, 40, 69
4, 475233, Note_on_c, 1, 46, 0
4, 476142, Note_on_c, 1, 40, 0
4, 476229, Note_on_c, 1, 41, 68
4, 477815, Note_on_c, 1, 39, 58
4, 478106, Note_on_c, 1, 41, 0
4, 478171, Note_on_c, 1, 45, 76
4, 478193, Note_on_c, 1, 39, 0
4, 479925, Note_on_c, 1, 45, 0
4, 480075, Note_on_c, 1, 38, 78
4, 481846, Note_on_c, 1, 38, 0
4, 481960, Note_on_c, 1, 36, 95
4, 483847, Note_on_c, 1, 36, 0
4, 483880, Note_on_c, 1, 35, 95
4, 485861, Note_on_c, 1, 46, 109
4, 485977, Note_on_c, 1, 35, 0
4, 487408, Note_on_c, 1, 40, 73
4, 487501, Note_on_c, 1, 40, 0
4, 487626, Note_on_c, 1, 46, 0
4, 487729, Note_on_c, 1, 45, 92
4, 489348, Note_on_c, 1, 39, 69
4, 489421, Note_on_c, 1, 45, 0
4, 489445, Note_on_c, 1, 39, 0
4, 489696, Note_on_c, 1, 44, 98
4, 491491, Note_on_c, 1, 44, 0
4, 491578, Note_on_c, 1, 43, 90
4, 492595, Note_on_c, 1, 31, 102
4, 492709, Note_on_c, 1, 43, 0
4, 493234, Note_on_c, 1, 31, 0
4, 493525, Note_on_c, 1, 31, 98
4, 495304, Note_on_c, 1, 43, 80
4, 495718, Note_on_c, 1, 43, 0
4, 496360, Note_on_c, 1, 43, 105
4, 497336, Note_on_c, 1, 31, 0
4, 498266, Note_on_c, 1, 31, 106
4, 498816, Note_on_c, 1, 31, 0
4, 499194, Note_on_c, 1, 31, 108
4, 499634, Note_on_c, 1, 43, 0
4, 501155, Note_on_c, 1, 43, 99
4, 501403, Note_on_c, 1, 43, 0
4, 502134, Note_on_c, 1, 43, 110
4, 502567, Note_on_c, 1, 31, 0
4, 504025, Note_on_c, 1, 31, 89
4, 504419, Note_on_c, 1, 31, 0
4, 504974, Note_on_c, 1, 31, 99
4, 505279, Note_on_c, 1, 43, 0
4, 506250, Note_on_c, 1, 31, 0
4, 506985, Note_on_c, 1, 36, 67
4, 508856, Note_on_c, 1, 36, 0
4, 508901, Note_on_c, 1, 41, 75
4, 510478, Note_on_c, 1, 41, 0
4, 510729, Note_on_c, 1, 40, 67
4, 513645, Note_on_c, 1, 33, 63
4, 513647, Note_on_c, 1, 40, 0
4, 515509, Note_on_c, 1, 33, 0
4, 515517, Note_on_c, 1, 38, 67
4, 516552, Note_on_c, 1, 45, 95
4, 516576, Note_on_c, 1, 38, 0
4, 516740, Note_on_c, 1, 45, 0
4, 517150, Note_on_c, 1, 44, 77
4, 517390, Note_on_c, 1, 44, 0
4, 517507, Note_on_c, 1, 43, 59
4, 518297, Note_on_c, 1, 43, 0
4, 518513, Note_on_c, 1, 36, 63
4, 519123, Note_on_c, 1, 48, 105
4, 519192, Note_on_c, 1, 36, 0
4, 519522, Note_on_c, 1, 48, 0
4, 519803, Note_on_c, 1, 47, 90
4, 520304, Note_on_c, 1, 47, 0
4, 520468, Note_on_c, 1, 45, 69
4, 520971, Note_on_c, 1, 45, 0
4, 521107, Note_on_c, 1, 40, 69
4, 521727, Note_on_c, 1, 44, 60
4, 521734, Note_on_c, 1, 40, 0
4, 522267, Note_on_c, 1, 44, 0
4, 522408, Note_on_c, 1, 45, 67
4, 525162, Note_on_c, 1, 40, 61
4, 525179, Note_on_c, 1, 45, 0
4, 527047, Note_on_c, 1, 33, 64
4, 527067, Note_on_c, 1, 40, 0
4, 528270, Note_on_c, 1, 33, 0
4, 528473, Note_on_c, 1, 35, 53
4, 528728, Note_on_c, 1, 36, 78
4, 528734, Note_on_c, 1, 35, 0
4, 528983, Note_on_c, 1, 36, 0
4, 529039, Note_on_c, 1, 37, 81
4, 529896, Note_on_c, 1, 37, 0
4, 529905, Note_on_c, 1, 38, 80
4, 531560, Note_on_c, 1, 45, 74
4, 531629, Note_on_c, 1, 38, 0
4, 531765, Note_on_c, 1, 45, 0
4, 531897, Note_on_c, 1, 43, 67
4, 532540, Note_on_c, 1, 38, 63
4, 532547, Note_on_c, 1, 43, 0
4, 532627, Note_on_c, 1, 38, 0
4, 532927, Note_on_c, 1, 50, 92
4, 533702, Note_on_c, 1, 50, 0
4, 533836, Note_on_c, 1, 48, 74
4, 534592, Note_on_c, 1, 48, 0
4, 534765, Note_on_c, 1, 43, 55
4, 536532, Note_on_c, 1, 43, 0
4, 536614, Note_on_c, 1, 46, 69
4, 536895, Note_on_c, 1, 46, 0
4, 537290, Note_on_c, 1, 40, 54
4, 537506, Note_on_c, 1, 40, 0
4, 537638, Note_on_c, 1, 41, 60
4, 539524, Note_on_c, 1, 46, 64
4, 539526, Note_on_c, 1, 41, 0
4, 541390, Note_on_c, 1, 46, 0
4, 541442, Note_on_c, 1, 43, 64
4, 541591, Note_on_c, 1, 43, 0
4, 541783, Note_on_c, 1, 45, 68
4, 542044, Note_on_c, 1, 45, 0
4, 542122, Note_on_c, 1, 47, 69
4, 542381, Note_on_c, 1, 47, 0
4, 542522, Note_on_c, 1, 48, 85
4, 543392, Note_on_c, 1, 48, 0
4, 543524, Note_on_c, 1, 43, 56
4, 544295, Note_on_c, 1, 43, 0
4, 544405, Note_on_c, 1, 40, 63
4, 545261, Note_on_c, 1, 40, 0
4, 545334, Note_on_c, 1, 41, 65
4, 546107, Note_on_c, 1, 41, 0
4, 546341, Note_on_c, 1, 33, 74
4, 547289, Note_on_c, 1, 33, 0
4, 547304, Note_on_c, 1, 34, 83
4, 550034, Note_on_c, 1, 34, 0
4, 550067, Note_on_c, 1, 36, 66
4, 551654, Note_on_c, 1, 45, 85
4, 551870, Note_on_c, 1, 36, 0
4, 551918, Note_on_c, 1, 45, 0
4, 552069, Note_on_c, 1, 43, 56
4, 552907, Note_on_c, 1, 43, 0
4, 552948, Note_on_c, 1, 42, 71
4, 554536, Note_on_c, 1, 42, 0
4, 554568, Note_on_c, 1, 45, 75
4, 554780, Note_on_c, 1, 45, 0
4, 554991, Note_on_c, 1, 46, 80
4, 555577, Note_on_c, 1, 47, 75
4, 555579, Note_on_c, 1, 46, 0
4, 556830, Note_on_c, 1, 47, 0
4, 556866, Note_on_c, 1, 40, 67
4, 559663, Note_on_c, 1, 46, 85
4, 559763, Note_on_c, 1, 40, 0
4, 560279, Note_on_c, 1, 40, 55
4, 560424, Note_on_c, 1, 46, 0
4, 560452, Note_on_c, 1, 40, 0
4, 560659, Note_on_c, 1, 45, 70
4, 561243, Note_on_c, 1, 45, 0
4, 561262, Note_on_c, 1, 39, 80
4, 561664, Note_on_c, 1, 39, 0
4, 561705, Note_on_c, 1, 38, 87
4, 563551, Note_on_c, 1, 50, 83
4, 563631, Note_on_c, 1, 38, 0
4, 564517, Note_on_c, 1, 50, 0
4, 564543, Note_on_c, 1, 43, 58
4, 565470, Note_on_c, 1, 57, 98
4, 566200, Note_on_c, 1, 57, 0
4, 566435, Note_on_c, 1, 55, 83
4, 566748, Note_on_c, 1, 43, 0
4, 567917, Note_on_c, 1, 55, 0
4, 568023, Note_on_c, 1, 53, 76
4, 568284, Note_on_c, 1, 53, 0
4, 568433, Note_on_c, 1, 52, 66
4, 569809, Note_on_c, 1, 52, 0
4, 569878, Note_on_c, 1, 50, 73
4, 570116, Note_on_c, 1, 50, 0
4, 570487, Note_on_c, 1, 48, 27
4, 571122, Note_on_c, 1, 48, 0
4, 571159, Note_on_c, 1, 40, 71
4, 572909, Note_on_c, 1, 40, 0
4, 573097, Note_on_c, 1, 40, 78
4, 575008, Note_on_c, 1, 40, 0
4, 575030, Note_on_c, 1, 45, 76
4, 575911, Note_on_c, 1, 45, 0
4, 575948, Note_on_c, 1, 38, 74
4, 576784, Note_on_c, 1, 38, 0
4, 576952, Note_on_c, 1, 38, 84
4, 578814, Note_on_c, 1, 38, 0
4, 578855, Note_on_c, 1, 43, 66
4, 579747, Note_on_c, 1, 43, 0
4, 579838, Note_on_c, 1, 36, 64
4, 581011, Note_on_c, 1, 36, 0
4, 581160, Note_on_c, 1, 38, 70
4, 581346, Note_on_c, 1, 38, 0
4, 581464, Note_on_c, 1, 39, 73
4, 581717, Note_on_c, 1, 39, 0
4, 581793, Note_on_c, 1, 40, 69
4, 582633, Note_on_c, 1, 40, 0
4, 582691, Note_on_c, 1, 44, 63
4, 582944, Note_on_c, 1, 44, 0
4, 583043, Note_on_c, 1, 47, 68
4, 583225, Note_on_c, 1, 47, 0
4, 583357, Note_on_c, 1, 50, 112
4, 584028, Note_on_c, 1, 48, 91
4, 584069, Note_on_c, 1, 50, 0
4, 584584, Note_on_c, 1, 48, 0
4, 584750, Note_on_c, 1, 45, 64
4, 585478, Note_on_c, 1, 45, 0
4, 585583, Note_on_c, 1, 40, 59
4, 586540, Note_on_c, 1, 44, 59
4, 586584, Note_on_c, 1, 40, 0
4, 587273, Note_on_c, 1, 40, 50
4, 587333, Note_on_c, 1, 44, 0
4, 587387, Note_on_c, 1, 40, 0
4, 587495, Note_on_c, 1, 45, 65
4, 589160, Note_on_c, 1, 40, 47
4, 589281, Note_on_c, 1, 40, 0
4, 589340, Note_on_c, 1, 45, 0
4, 589523, Note_on_c, 1, 49, 59
4, 590191, Note_on_c, 1, 47, 65
4, 590400, Note_on_c, 1, 49, 0
4, 590720, Note_on_c, 1, 47, 0
4, 590845, Note_on_c, 1, 45, 60
4, 591379, Note_on_c, 1, 45, 0
4, 591489, Note_on_c, 1, 41, 67
4, 592366, Note_on_c, 1, 41, 0
4, 592403, Note_on_c, 1, 38, 60
4, 593332, Note_on_c, 1, 43, 68
4, 593394, Note_on_c, 1, 38, 0
4, 594846, Note_on_c, 1, 31, 64
4, 594895, Note_on_c, 1, 43, 0
4, 595118, Note_on_c, 1, 31, 0
4, 595245, Note_on_c, 1, 36, 83
4, 597913, Note_on_c, 1, 36, 0
4, 598008, Note_on_c, 1, 40, 70
4, 598181, Note_on_c, 1, 40, 0
4, 598358, Note_on_c, 1, 36, 55
4, 598675, Note_on_c, 1, 36, 0
4, 598773, Note_on_c, 1, 41, 89
4, 600920, Note_on_c, 1, 41, 0
4, 600982, Note_on_c, 1, 46, 86
4, 601283, Note_on_c, 1, 46, 0
4, 601630, Note_on_c, 1, 41, 54
4, 601755, Note_on_c, 1, 41, 0
4, 601952, Note_on_c, 1, 45, 91
4, 602794, Note_on_c, 1, 45, 0
4, 602928, Note_on_c, 1, 38, 78
4, 604741, Note_on_c, 1, 38, 0
4, 604840, Note_on_c, 1, 36, 58
4, 605784, Note_on_c, 1, 48, 96
4, 605816, Note_on_c, 1, 36, 0
4, 606261, Note_on_c, 1, 48, 0
4, 606434, Note_on_c, 1, 45, 52
4, 606594, Note_on_c, 1, 45, 0
4, 606814, Note_on_c, 1, 47, 43
4, 607492, Note_on_c, 1, 47, 0
4, 607672, Note_on_c, 1, 53, 94
4, 608056, Note_on_c, 1, 53, 0
4, 608363, Note_on_c, 1, 47, 56
4, 608521, Note_on_c, 1, 47, 0
4, 608687, Note_on_c, 1, 52, 87
4, 609458, Note_on_c, 1, 52, 0
4, 609618, Note_on_c, 1, 44, 68
4, 610128, Note_on_c, 1, 44, 0
4, 611339, Note_on_c, 1, 40, 43
4, 611419, Note_on_c, 1, 40, 0
4, 612195, Note_on_c, 1, 45, 82
4, 612372, Note_on_c, 1, 45, 0
4, 612694, Note_on_c, 1, 48, 91
4, 613197, Note_on_c, 1, 48, 0
4, 613216, Note_on_c, 1, 39, 57
4, 613316, Note_on_c, 1, 39, 0
4, 613445, Note_on_c, 1, 44, 63
4, 613966, Note_on_c, 1, 44, 0
4, 614357, Note_on_c, 1, 43, 64
4, 614739, Note_on_c, 1, 43, 0
4, 614985, Note_on_c, 1, 31, 71
4, 615299, Note_on_c, 1, 31, 0
4, 615478, Note_on_c, 1, 31, 96
4, 618295, Note_on_c, 1, 38, 60
4, 618358, Note_on_c, 1, 31, 0
4, 618804, Note_on_c, 1, 38, 0
4, 619245, Note_on_c, 1, 48, 109
4, 619729, Note_on_c, 1, 48, 0
4, 619912, Note_on_c, 1, 45, 52
4, 620098, Note_on_c, 1, 45, 0
4, 620254, Note_on_c, 1, 47, 85
4, 620761, Note_on_c, 1, 47, 0
4, 620826, Note_on_c, 1, 45, 78
4, 621098, Note_on_c, 1, 45, 0
4, 621226, Note_on_c, 1, 43, 47
4, 621619, Note_on_c, 1, 43, 0
4, 621744, Note_on_c, 1, 41, 75
4, 622023, Note_on_c, 1, 41, 0
4, 622146, Note_on_c, 1, 40, 47
4, 622824, Note_on_c, 1, 40, 0
4, 622991, Note_on_c, 1, 41, 64
4, 623936, Note_on_c, 1, 41, 0
4, 623956, Note_on_c, 1, 43, 71
4, 624921, Note_on_c, 1, 31, 76
4, 624924, Note_on_c, 1, 43, 0
4, 627650, Note_on_c, 1, 38, 53
4, 627764, Note_on_c, 1, 38, 0
4, 627829, Note_on_c, 1, 31, 0
4, 627896, Note_on_c, 1, 45, 108
4, 628524, Note_on_c, 1, 45, 0
4, 628550, Note_on_c, 1, 44, 98
4, 628658, Note_on_c, 1, 31, 41
4, 628753, Note_on_c, 1, 31, 0
4, 628840, Note_on_c, 1, 44, 0
4, 628933, Note_on_c, 1, 43, 62
4, 629423, Note_on_c, 1, 43, 0
4, 629505, Note_on_c, 1, 41, 85
4, 629767, Note_on_c, 1, 41, 0
4, 629931, Note_on_c, 1, 40, 52
4, 630699, Note_on_c, 1, 40, 0
4, 630788, Note_on_c, 1, 41, 75
4, 631548, Note_on_c, 1, 41, 0
4, 631697, Note_on_c, 1, 43, 63
4, 633255, Note_on_c, 1, 43, 0
4, 633279, Note_on_c, 1, 41, 73
4, 633538, Note_on_c, 1, 41, 0
4, 633721, Note_on_c, 1, 40, 54
4, 635570, Note_on_c, 1, 40, 0
4, 635598, Note_on_c, 1, 39, 64
4, 637415, Note_on_c, 1, 39, 0
4, 637424, Note_on_c, 1, 38, 60
4, 638070, Note_on_c, 1, 45, 75
4, 638247, Note_on_c, 1, 45, 0
4, 638443, Note_on_c, 1, 48, 97
4, 638488, Note_on_c, 1, 38, 0
4, 638996, Note_on_c, 1, 48, 0
4, 639011, Note_on_c, 1, 45, 65
4, 639240, Note_on_c, 1, 45, 0
4, 639409, Note_on_c, 1, 47, 78
4, 639836, Note_on_c, 1, 47, 0
4, 639966, Note_on_c, 1, 43, 50
4, 640143, Note_on_c, 1, 43, 0
4, 640344, Note_on_c, 1, 38, 53
4, 640916, Note_on_c, 1, 38, 0
4, 642802, Note_on_c, 1, 36, 72
4, 643137, Note_on_c, 1, 36, 0
4, 643418, Note_on_c, 1, 47, 60
4, 643929, Note_on_c, 1, 47, 0
4, 644158, Note_on_c, 1, 53, 94
4, 644670, Note_on_c, 1, 53, 0
4, 644815, Note_on_c, 1, 52, 89
4, 645364, Note_on_c, 1, 52, 0
4, 645528, Note_on_c, 1, 50, 64
4, 645927, Note_on_c, 1, 50, 0
4, 646126, Note_on_c, 1, 48, 62
4, 646675, Note_on_c, 1, 48, 0
4, 646742, Note_on_c, 1, 47, 62
4, 647133, Note_on_c, 1, 47, 0
4, 647334, Note_on_c, 1, 45, 53
4, 647815, Note_on_c, 1, 45, 0
4, 648025, Note_on_c, 1, 44, 54
4, 648669, Note_on_c, 1, 44, 0
4, 648692, Note_on_c, 1, 45, 67
4, 650552, Note_on_c, 1, 40, 54
4, 650591, Note_on_c, 1, 45, 0
4, 650764, Note_on_c, 1, 40, 0
4, 650919, Note_on_c, 1, 49, 81
4, 651468, Note_on_c, 1, 52, 90
4, 651500, Note_on_c, 1, 49, 0
4, 651801, Note_on_c, 1, 52, 0
4, 651932, Note_on_c, 1, 49, 46
4, 652388, Note_on_c, 1, 49, 0
4, 652464, Note_on_c, 1, 50, 92
4, 653624, Note_on_c, 1, 50, 0
4, 653777, Note_on_c, 1, 45, 53
4, 654360, Note_on_c, 1, 45, 0
4, 654380, Note_on_c, 1, 48, 78
4, 654680, Note_on_c, 1, 48, 0
4, 654812, Note_on_c, 1, 47, 55
4, 656302, Note_on_c, 1, 47, 0
4, 656356, Note_on_c, 1, 45, 63
4, 656602, Note_on_c, 1, 45, 0
4, 656702, Note_on_c, 1, 43, 48
4, 657471, Note_on_c, 1, 43, 0
4, 657600, Note_on_c, 1, 41, 56
4, 659186, Note_on_c, 1, 40, 70
4, 659188, Note_on_c, 1, 41, 0
4, 660348, Note_on_c, 1, 40, 0
4, 660460, Note_on_c, 1, 41, 65
4, 662011, Note_on_c, 1, 34, 78
4, 662080, Note_on_c, 1, 41, 0
4, 664318, Note_on_c, 1, 34, 0
4, 664380, Note_on_c, 1, 36, 61
4, 666344, Note_on_c, 1, 40, 89
4, 666370, Note_on_c, 1, 36, 0
4, 668320, Note_on_c, 1, 41, 68
4, 668344, Note_on_c, 1, 40, 0
4, 670182, Note_on_c, 1, 46, 85
4, 670359, Note_on_c, 1, 41, 0
4, 670813, Note_on_c, 1, 53, 89
4, 670817, Note_on_c, 1, 46, 0
4, 671828, Note_on_c, 1, 41, 53
4, 671934, Note_on_c, 1, 53, 0
4, 671951, Note_on_c, 1, 41, 0
4, 672079, Note_on_c, 1, 52, 74
4, 673025, Note_on_c, 1, 52, 0
4, 673059, Note_on_c, 1, 48, 64
4, 673915, Note_on_c, 1, 48, 0
4, 674016, Note_on_c, 1, 43, 60
4, 674930, Note_on_c, 1, 43, 0
4, 674969, Note_on_c, 1, 42, 92
4, 676904, Note_on_c, 1, 45, 75
4, 677142, Note_on_c, 1, 42, 0
4, 677535, Note_on_c, 1, 42, 59
4, 677667, Note_on_c, 1, 45, 0
4, 677688, Note_on_c, 1, 42, 0
4, 677908, Note_on_c, 1, 51, 97
4, 679747, Note_on_c, 1, 51, 0
4, 679840, Note_on_c, 1, 40, 60
4, 682179, Note_on_c, 1, 40, 0
4, 682464, Note_on_c, 1, 40, 46
4, 682632, Note_on_c, 1, 40, 0
4, 682665, Note_on_c, 1, 46, 83
4, 682872, Note_on_c, 1, 46, 0
4, 683350, Note_on_c, 1, 46, 73
4, 683578, Note_on_c, 1, 46, 0
4, 683704, Note_on_c, 1, 45, 68
4, 684613, Note_on_c, 1, 45, 0
4, 684622, Note_on_c, 1, 38, 66
4, 685335, Note_on_c, 1, 38, 0
4, 685548, Note_on_c, 1, 38, 67
4, 687065, Note_on_c, 1, 45, 82
4, 687257, Note_on_c, 1, 38, 0
4, 687335, Note_on_c, 1, 45, 0
4, 687445, Note_on_c, 1, 43, 58
4, 688266, Note_on_c, 1, 43, 0
4, 688378, Note_on_c, 1, 31, 71
4, 689143, Note_on_c, 1, 31, 0
4, 689331, Note_on_c, 1, 31, 73
4, 690951, Note_on_c, 1, 45, 75
4, 691169, Note_on_c, 1, 31, 0
4, 691197, Note_on_c, 1, 45, 0
4, 691344, Note_on_c, 1, 43, 60
4, 692188, Note_on_c, 1, 43, 0
4, 692268, Note_on_c, 1, 31, 83
4, 693044, Note_on_c, 1, 31, 0
4, 693260, Note_on_c, 1, 31, 77
4, 693918, Note_on_c, 1, 31, 0
4, 694180, Note_on_c, 1, 29, 67
4, 695020, Note_on_c, 1, 29, 0
4, 695167, Note_on_c, 1, 28, 66
4, 697089, Note_on_c, 1, 28, 82
4, 697102, Note_on_c, 1, 28, 0
4, 699042, Note_on_c, 1, 28, 0
4, 699070, Note_on_c, 1, 38, 83
4, 700776, Note_on_c, 1, 38, 0
4, 700900, Note_on_c, 1, 38, 57
4, 701796, Note_on_c, 1, 38, 0
4, 701813, Note_on_c, 1, 31, 84
4, 703794, Note_on_c, 1, 36, 81
4, 703828, Note_on_c, 1, 31, 0
4, 705664, Note_on_c, 1, 36, 0
4, 705680, Note_on_c, 1, 40, 80
4, 706660, Note_on_c, 1, 40, 0
4, 706684, Note_on_c, 1, 45, 110
4, 708544, Note_on_c, 1, 45, 0
4, 708600, Note_on_c, 1, 52, 93
4, 710537, Note_on_c, 1, 45, 73
4, 710561, Note_on_c, 1, 52, 0
4, 712315, Note_on_c, 1, 45, 0
4, 712410, Note_on_c, 1, 49, 88
4, 714259, Note_on_c, 1, 49, 0
4, 714339, Note_on_c, 1, 38, 82
4, 716259, Note_on_c, 1, 43, 70
4, 716426, Note_on_c, 1, 38, 0
4, 718087, Note_on_c, 1, 43, 0
4, 718216, Note_on_c, 1, 36, 71
4, 720121, Note_on_c, 1, 46, 89
4, 720197, Note_on_c, 1, 36, 0
4, 721670, Note_on_c, 1, 40, 70
4, 721785, Note_on_c, 1, 46, 0
4, 721957, Note_on_c, 1, 40, 0
4, 722044, Note_on_c, 1, 41, 78
4, 723990, Note_on_c, 1, 49, 92
4, 724066, Note_on_c, 1, 41, 0
4, 725880, Note_on_c, 1, 49, 0
4, 725945, Note_on_c, 1, 50, 76
4, 727807, Note_on_c, 1, 50, 0
4, 727854, Note_on_c, 1, 48, 74
4, 729522, Note_on_c, 1, 48, 0
4, 729751, Note_on_c, 1, 47, 72
4, 731662, Note_on_c, 1, 47, 0
4, 731703, Note_on_c, 1, 40, 66
4, 733548, Note_on_c, 1, 40, 0
4, 733632, Note_on_c, 1, 45, 66
4, 733725, Note_on_c, 1, 45, 0
4, 734526, Note_on_c, 1, 45, 87
4, 735410, Note_on_c, 1, 45, 0
4, 735511, Note_on_c, 1, 44, 98
4, 735660, Note_on_c, 1, 44, 0
4, 736800, Note_on_c, 1, 32, 121
4, 744480, Note_on_c, 1, 32, 0
4, 744480, End_track
5, 0, Start_track
5, 0, Title_t, "MIDI 2"
5, 0, Program_c, 9, 40
5, 384000, Note_on_c, 9, 40, 21
5, 384000, Note_on_c, 9, 38, 59
5, 384732, Note_on_c, 9, 38, 0
5, 384813, Note_on_c, 9, 40, 0
5, 384960, Note_on_c, 9, 40, 26
5, 384960, Note_on_c, 9, 38, 59
5, 385417, Note_on_c, 9, 38, 0
5, 385600, Note_on_c, 9, 38, 67
5, 385719, Note_on_c, 9, 38, 0
5, 385724, Note_on_c, 9, 40, 0
5, 385920, Note_on_c, 9, 40, 16
5, 385920, Note_on_c, 9, 38, 74
5, 386597, Note_on_c, 9, 38, 0
5, 386603, Note_on_c, 9, 40, 0
5, 386880, Note_on_c, 9, 40, 25
5, 386880, Note_on_c, 9, 38, 65
5, 387483, Note_on_c, 9, 38, 0
5, 387540, Note_on_c, 9, 40, 0
5, 387840, Note_on_c, 9, 40, 25
5, 387840, Note_on_c, 9, 38, 66
5, 388235, Note_on_c, 9, 38, 0
5, 388474, Note_on_c, 9, 40, 0
5, 388480, Note_on_c, 9, 38, 67
5, 388581, Note_on_c, 9, 38, 0
5, 388800, Note_on_c, 9, 40, 25
5, 388800, Note_on_c, 9, 38, 75
5, 389532, Note_on_c, 9, 38, 0
5, 389595, Note_on_c, 9, 40, 0
5, 389760, Note_on_c, 9, 40, 28
5, 389760, Note_on_c, 9, 38, 71
5, 390323, Note_on_c, 9, 38, 0
5, 390331, Note_on_c, 9, 40, 0
5, 390720, Note_on_c, 9, 40, 30
5, 390720, Note_on_c, 9, 38, 75
5, 391282, Note_on_c, 9, 38, 0
5, 391282, Note_on_c, 9, 40, 0
5, 391360, Note_on_c, 9, 39, 61
5, 391360, Note_on_c, 9, 40, 28
5, 391568, Note_on_c, 9, 39, 0
5, 391680, Note_on_c, 9, 38, 42
5, 392185, Note_on_c, 9, 40, 0
5, 392352, Note_on_c, 9, 38, 0
5, 392640, Note_on_c, 9, 40, 25
5, 392640, Note_on_c, 9, 38, 55
5, 393225, Note_on_c, 9, 40, 0
5, 393234, Note_on_c, 9, 38, 0
5, 393600, Note_on_c, 9, 40, 22
5, 393600, Note_on_c, 9, 38, 62
5, 394165, Note_on_c, 9, 40, 0
5, 394185, Note_on_c, 9, 38, 0
5, 394560, Note_on_c, 9, 40, 25
5, 394560, Note_on_c, 9, 38, 66
5, 395098, Note_on_c, 9, 38, 0
5, 395098, Note_on_c, 9, 40, 0
5, 395200, Note_on_c, 9, 39, 63
5, 395472, Note_on_c, 9, 39, 0
5, 395520, Note_on_c, 9, 40, 33
5, 395520, Note_on_c, 9, 38, 57
5, 396203, Note_on_c, 9, 38, 0
5, 396331, Note_on_c, 9, 40, 0
5, 396480, Note_on_c, 9, 40, 22
5, 396480, Note_on_c, 9, 38, 65
5, 396997, Note_on_c, 9, 40, 0
5, 397084, Note_on_c, 9, 38, 0
5, 397440, Note_on_c, 9, 40, 25
5, 397440, Note_on_c, 9, 38, 55
5, 397944, Note_on_c, 9, 40, 0
5, 398058, Note_on_c, 9, 38, 0
5, 398400, Note_on_c, 9, 40, 22
5, 398400, Note_on_c, 9, 38, 67
5, 398765, Note_on_c, 9, 38, 0
5, 398863, Note_on_c, 9, 40, 0
5, 399040, Note_on_c, 9, 38, 62
5, 399157, Note_on_c, 9, 38, 0
5, 399360, Note_on_c, 9, 40, 25
5, 399360, Note_on_c, 9, 38, 65
5, 400039, Note_on_c, 9, 38, 0
5, 400140, Note_on_c, 9, 40, 0
5, 400320, Note_on_c, 9, 40, 27
5, 400320, Note_on_c, 9, 38, 67
5, 400723, Note_on_c, 9, 38, 0
5, 400876, Note_on_c, 9, 40, 0
5, 400960, Note_on_c, 9, 38, 63
5, 401087, Note_on_c, 9, 38, 0
5, 401280, Note_on_c, 9, 40, 22
5, 401280, Note_on_c, 9, 38, 66
5, 401979, Note_on_c, 9, 38, 0
5, 402029, Note_on_c, 9, 40, 0
5, 402240, Note_on_c, 9, 40, 27
5, 402240, Note_on_c, 9, 38, 80
5, 402836, Note_on_c, 9, 38, 0
5, 402836, Note_on_c, 9, 40, 0
5, 403200, Note_on_c, 9, 40, 25
5, 403200, Note_on_c, 9, 38, 65
5, 403677, Note_on_c, 9, 38, 0
5, 403718, Note_on_c, 9, 40, 0
5, 403840, Note_on_c, 9, 39, 63
5, 404089, Note_on_c, 9, 39, 0
5, 404160, Note_on_c, 9, 40, 30
5, 404160, Note_on_c, 9, 38, 54
5, 404861, Note_on_c, 9, 38, 0
5, 404997, Note_on_c, 9, 40, 0
5, 405120, Note_on_c, 9, 40, 21
5, 405120, Note_on_c, 9, 38, 67
5, 405647, Note_on_c, 9, 40, 0
5, 405715, Note_on_c, 9, 38, 0
5, 406080, Note_on_c, 9, 40, 26
5, 406080, Note_on_c, 9, 38, 65
5, 406454, Note_on_c, 9, 38, 0
5, 406635, Note_on_c, 9, 40, 0
5, 406720, Note_on_c, 9, 38, 88
5, 406855, Note_on_c, 9, 38, 0
5, 407040, Note_on_c, 9, 40, 28
5, 407040, Note_on_c, 9, 38, 81
5, 407766, Note_on_c, 9, 38, 0
5, 407813, Note_on_c, 9, 40, 0
5, 408000, Note_on_c, 9, 40, 34
5, 408000, Note_on_c, 9, 38, 81
5, 408634, Note_on_c, 9, 38, 0
5, 408665, Note_on_c, 9, 40, 0
5, 408960, Note_on_c, 9, 40, 21
5, 408960, Note_on_c, 9, 38, 72
5, 409599, Note_on_c, 9, 40, 0
5, 409632, Note_on_c, 9, 38, 0
5, 409920, Note_on_c, 9, 40, 24
5, 409920, Note_on_c, 9, 38, 62
5, 410475, Note_on_c, 9, 38, 0
5, 410556, Note_on_c, 9, 40, 0
5, 410880, Note_on_c, 9, 40, 26
5, 410880, Note_on_c, 9, 38, 74
5, 410990, Note_on_c, 9, 38, 0
5, 411200, Note_on_c, 9, 38, 85
5, 411332, Note_on_c, 9, 38, 0
5, 411550, Note_on_c, 9, 40, 0
5, 411840, Note_on_c, 9, 40, 31
5, 411840, Note_on_c, 9, 38, 89
5, 412501, Note_on_c, 9, 38, 0
5, 412544, Note_on_c, 9, 40, 0
5, 412800, Note_on_c, 9, 40, 24
5, 412800, Note_on_c, 9, 38, 70
5, 413381, Note_on_c, 9, 38, 0
5, 413463, Note_on_c, 9, 40, 0
5, 413760, Note_on_c, 9, 40, 34
5, 413760, Note_on_c, 9, 38, 81
5, 413851, Note_on_c, 9, 38, 0
5, 414080, Note_on_c, 9, 38, 81
5, 414205, Note_on_c, 9, 38, 0
5, 414298, Note_on_c, 9, 40, 0
5, 414720, Note_on_c, 9, 40, 31
5, 414720, Note_on_c, 9, 38, 88
5, 415396, Note_on_c, 9, 38, 0
5, 415502, Note_on_c, 9, 40, 0
5, 415680, Note_on_c, 9, 40, 28
5, 415680, Note_on_c, 9, 38, 83
5, 416193, Note_on_c, 9, 38, 0
5, 416264, Note_on_c, 9, 40, 0
5, 416640, Note_on_c, 9, 40, 26
5, 416640, Note_on_c, 9, 38, 67
5, 417111, Note_on_c, 9, 38, 0
5, 417169, Note_on_c, 9, 40, 0
5, 417570, Note_on_c, 9, 40, 20
5, 417600, Note_on_c, 9, 38, 26
5, 418241, Note_on_c, 9, 38, 0
5, 418530, Note_on_c, 9, 40, 0
5, 418560, Note_on_c, 9, 40, 31
5, 418560, Note_on_c, 9, 38, 65
5, 419317, Note_on_c, 9, 40, 0
5, 419392, Note_on_c, 9, 38, 0
5, 419520, Note_on_c, 9, 39, 61
5, 419520, Note_on_c, 9, 40, 32
5, 419636, Note_on_c, 9, 39, 0
5, 419840, Note_on_c, 9, 39, 50
5, 420116, Note_on_c, 9, 39, 0
5, 420122, Note_on_c, 9, 40, 0
5, 420480, Note_on_c, 9, 40, 24
5, 420480, Note_on_c, 9, 38, 70
5, 421128, Note_on_c, 9, 38, 0
5, 421205, Note_on_c, 9, 40, 0
5, 421440, Note_on_c, 9, 40, 22
5, 421440, Note_on_c, 9, 38, 52
5, 421907, Note_on_c, 9, 38, 0
5, 421985, Note_on_c, 9, 40, 0
5, 422400, Note_on_c, 9, 40, 15
5, 422400, Note_on_c, 9, 38, 33
5, 422976, Note_on_c, 9, 38, 0
5, 423067, Note_on_c, 9, 40, 0
5, 423360, Note_on_c, 9, 40, 26
5, 423360, Note_on_c, 9, 38, 79
5, 424023, Note_on_c, 9, 38, 0
5, 424063, Note_on_c, 9, 40, 0
5, 424320, Note_on_c, 9, 40, 24
5, 424320, Note_on_c, 9, 38, 44
5, 424831, Note_on_c, 9, 38, 0
5, 424842, Note_on_c, 9, 40, 0
5, 424960, Note_on_c, 9, 39, 64
5, 425256, Note_on_c, 9, 39, 0
5, 425280, Note_on_c, 9, 40, 33
5, 425280, Note_on_c, 9, 38, 62
5, 425972, Note_on_c, 9, 38, 0
5, 426113, Note_on_c, 9, 40, 0
5, 426240, Note_on_c, 9, 40, 26
5, 426240, Note_on_c, 9, 38, 63
5, 426823, Note_on_c, 9, 40, 0
5, 426854, Note_on_c, 9, 38, 0
5, 427200, Note_on_c, 9, 40, 22
5, 427200, Note_on_c, 9, 38, 66
5, 427581, Note_on_c, 9, 38, 0
5, 427695, Note_on_c, 9, 40, 0
5, 427840, Note_on_c, 9, 38, 72
5, 427964, Note_on_c, 9, 38, 0
5, 428160, Note_on_c, 9, 40, 26
5, 428160, Note_on_c, 9, 38, 72
5, 428863, Note_on_c, 9, 38, 0
5, 428980, Note_on_c, 9, 40, 0
5, 429120, Note_on_c, 9, 40, 30
5, 429120, Note_on_c, 9, 38, 59
5, 429595, Note_on_c, 9, 38, 0
5, 429732, Note_on_c, 9, 40, 0
5, 429760, Note_on_c, 9, 38, 48
5, 429855, Note_on_c, 9, 38, 0
5, 430080, Note_on_c, 9, 40, 26
5, 430080, Note_on_c, 9, 38, 65
5, 430738, Note_on_c, 9, 38, 0
5, 430832, Note_on_c, 9, 40, 0
5, 431040, Note_on_c, 9, 40, 25
5, 431040, Note_on_c, 9, 38, 59
5, 431635, Note_on_c, 9, 38, 0
5, 431700, Note_on_c, 9, 40, 0
5, 432000, Note_on_c, 9, 40, 27
5, 432000, Note_on_c, 9, 38, 54
5, 432562, Note_on_c, 9, 38, 0
5, 432710, Note_on_c, 9, 40, 0
5, 432960, Note_on_c, 9, 40, 25
5, 432960, Note_on_c, 9, 38, 75
5, 433410, Note_on_c, 9, 38, 0
5, 433596, Note_on_c, 9, 40, 0
5, 433600, Note_on_c, 9, 38, 81
5, 433717, Note_on_c, 9, 38, 0
5, 433920, Note_on_c, 9, 40, 32
5, 433920, Note_on_c, 9, 38, 71
5, 434619, Note_on_c, 9, 38, 0
5, 434744, Note_on_c, 9, 40, 0
5, 434880, Note_on_c, 9, 40, 32
5, 434880, Note_on_c, 9, 38, 83
5, 435295, Note_on_c, 9, 38, 0
5, 435437, Note_on_c, 9, 40, 0
5, 435520, Note_on_c, 9, 38, 72
5, 435621, Note_on_c, 9, 38, 0
5, 435840, Note_on_c, 9, 40, 33
5, 435840, Note_on_c, 9, 38, 83
5, 436505, Note_on_c, 9, 38, 0
5, 436800, Note_on_c, 9, 38, 78
5, 437295, Note_on_c, 9, 38, 0
5, 437387, Note_on_c, 9, 40, 0
5, 437760, Note_on_c, 9, 40, 30
5, 437760, Note_on_c, 9, 38, 65
5, 438262, Note_on_c, 9, 38, 0
5, 438383, Note_on_c, 9, 40, 0
5, 438400, Note_on_c, 9, 39, 66
5, 438635, Note_on_c, 9, 39, 0
5, 438720, Note_on_c, 9, 40, 33
5, 438720, Note_on_c, 9, 38, 52
5, 439416, Note_on_c, 9, 38, 0
5, 439475, Note_on_c, 9, 40, 0
5, 439680, Note_on_c, 9, 40, 30
5, 439680, Note_on_c, 9, 38, 63
5, 440272, Note_on_c, 9, 38, 0
5, 440319, Note_on_c, 9, 40, 0
5, 440640, Note_on_c, 9, 40, 27
5, 440640, Note_on_c, 9, 38, 58
5, 441184, Note_on_c, 9, 40, 0
5, 441253, Note_on_c, 9, 38, 0
5, 441280, Note_on_c, 9, 39, 62
5, 441526, Note_on_c, 9, 39, 0
5, 441600, Note_on_c, 9, 40, 28
5, 441600, Note_on_c, 9, 38, 57
5, 442231, Note_on_c, 9, 38, 0
5, 442306, Note_on_c, 9, 40, 0
5, 442560, Note_on_c, 9, 40, 22
5, 442560, Note_on_c, 9, 38, 55
5, 443060, Note_on_c, 9, 38, 0
5, 443109, Note_on_c, 9, 40, 0
5, 443520, Note_on_c, 9, 40, 22
5, 443520, Note_on_c, 9, 38, 50
5, 444091, Note_on_c, 9, 38, 0
5, 444138, Note_on_c, 9, 40, 0
5, 444480, Note_on_c, 9, 40, 25
5, 444480, Note_on_c, 9, 38, 62
5, 444791, Note_on_c, 9, 38, 0
5, 445024, Note_on_c, 9, 40, 0
5, 445440, Note_on_c, 9, 40, 24
5, 445440, Note_on_c, 9, 38, 81
5, 446135, Note_on_c, 9, 38, 0
5, 446206, Note_on_c, 9, 40, 0
5, 446400, Note_on_c, 9, 40, 32
5, 446400, Note_on_c, 9, 38, 67
5, 446855, Note_on_c, 9, 38, 0
5, 446947, Note_on_c, 9, 40, 0
5, 447040, Note_on_c, 9, 38, 49
5, 447131, Note_on_c, 9, 38, 0
5, 447360, Note_on_c, 9, 40, 32
5, 447360, Note_on_c, 9, 38, 85
5, 448097, Note_on_c, 9, 38, 0
5, 448131, Note_on_c, 9, 40, 0
5, 448320, Note_on_c, 9, 40, 31
5, 448320, Note_on_c, 9, 38, 83
5, 448784, Note_on_c, 9, 38, 0
5, 448896, Note_on_c, 9, 40, 0
5, 448960, Note_on_c, 9, 38, 72
5, 449042, Note_on_c, 9, 38, 0
5, 449280, Note_on_c, 9, 40, 24
5, 449280, Note_on_c, 9, 38, 78
5, 449824, Note_on_c, 9, 38, 0
5, 449876, Note_on_c, 9, 40, 0
5, 450240, Note_on_c, 9, 40, 22
5, 450240, Note_on_c, 9, 38, 83
5, 450783, Note_on_c, 9, 40, 0
5, 450833, Note_on_c, 9, 38, 0
5, 451200, Note_on_c, 9, 40, 15
5, 451200, Note_on_c, 9, 38, 75
5, 451738, Note_on_c, 9, 40, 0
5, 451798, Note_on_c, 9, 38, 0
5, 452160, Note_on_c, 9, 40, 27
5, 452160, Note_on_c, 9, 38, 79
5, 452521, Note_on_c, 9, 38, 0
5, 452632, Note_on_c, 9, 40, 0
5, 452800, Note_on_c, 9, 38, 58
5, 452928, Note_on_c, 9, 38, 0
5, 453120, Note_on_c, 9, 40, 21
5, 453120, Note_on_c, 9, 38, 52
5, 453859, Note_on_c, 9, 38, 0
5, 453873, Note_on_c, 9, 40, 0
5, 454080, Note_on_c, 9, 40, 31
5, 454080, Note_on_c, 9, 38, 66
5, 454741, Note_on_c, 9, 40, 0
5, 454743, Note_on_c, 9, 38, 0
5, 455040, Note_on_c, 9, 40, 25
5, 455040, Note_on_c, 9, 38, 71
5, 455638, Note_on_c, 9, 38, 0
5, 455638, Note_on_c, 9, 40, 0
5, 456000, Note_on_c, 9, 40, 25
5, 456000, Note_on_c, 9, 38, 79
5, 456555, Note_on_c, 9, 40, 0
5, 456602, Note_on_c, 9, 38, 0
5, 456960, Note_on_c, 9, 40, 25
5, 456960, Note_on_c, 9, 38, 66
5, 457500, Note_on_c, 9, 38, 0
5, 457518, Note_on_c, 9, 40, 0
5, 457600, Note_on_c, 9, 39, 68
5, 457880, Note_on_c, 9, 39, 0
5, 457920, Note_on_c, 9, 40, 26
5, 457920, Note_on_c, 9, 38, 52
5, 458619, Note_on_c, 9, 38, 0
5, 458700, Note_on_c, 9, 40, 0
5, 458880, Note_on_c, 9, 40, 26
5, 458880, Note_on_c, 9, 38, 63
5, 459465, Note_on_c, 9, 40, 0
5, 459545, Note_on_c, 9, 38, 0
5, 459840, Note_on_c, 9, 40, 26
5, 459840, Note_on_c, 9, 38, 71
5, 460342, Note_on_c, 9, 38, 0
5, 460453, Note_on_c, 9, 40, 0
5, 460480, Note_on_c, 9, 38, 85
5, 460590, Note_on_c, 9, 38, 0
5, 460800, Note_on_c, 9, 40, 24
5, 460800, Note_on_c, 9, 38, 70
5, 461531, Note_on_c, 9, 38, 0
5, 461548, Note_on_c, 9, 40, 0
5, 461760, Note_on_c, 9, 40, 28
5, 461760, Note_on_c, 9, 38, 81
5, 462380, Note_on_c, 9, 40, 0
5, 462383, Note_on_c, 9, 38, 0
5, 462720, Note_on_c, 9, 40, 24
5, 462720, Note_on_c, 9, 38, 57
5, 463334, Note_on_c, 9, 40, 0
5, 463365, Note_on_c, 9, 38, 0
5, 463680, Note_on_c, 9, 40, 25
5, 463680, Note_on_c, 9, 38, 70
5, 464327, Note_on_c, 9, 38, 0
5, 464363, Note_on_c, 9, 40, 0
5, 464640, Note_on_c, 9, 40, 25
5, 464640, Note_on_c, 9, 38, 65
5, 465289, Note_on_c, 9, 40, 0
5, 465330, Note_on_c, 9, 38, 0
5, 465600, Note_on_c, 9, 40, 28
5, 465600, Note_on_c, 9, 38, 71
5, 466000, Note_on_c, 9, 38, 0
5, 466207, Note_on_c, 9, 40, 0
5, 466240, Note_on_c, 9, 38, 83
5, 466361, Note_on_c, 9, 38, 0
5, 466560, Note_on_c, 9, 40, 24
5, 466560, Note_on_c, 9, 38, 75
5, 467209, Note_on_c, 9, 38, 0
5, 467324, Note_on_c, 9, 40, 0
5, 467520, Note_on_c, 9, 40, 26
5, 467520, Note_on_c, 9, 38, 67
5, 467993, Note_on_c, 9, 38, 0
5, 468053, Note_on_c, 9, 40, 0
5, 468160, Note_on_c, 9, 38, 72
5, 468301, Note_on_c, 9, 38, 0
5, 468480, Note_on_c, 9, 40, 26
5, 468480, Note_on_c, 9, 38, 65
5, 469160, Note_on_c, 9, 38, 0
5, 469240, Note_on_c, 9, 40, 0
5, 469440, Note_on_c, 9, 40, 22
5, 469440, Note_on_c, 9, 38, 78
5, 469865, Note_on_c, 9, 40, 0
5, 469881, Note_on_c, 9, 38, 0
5, 470080, Note_on_c, 9, 38, 55
5, 470183, Note_on_c, 9, 38, 0
5, 470400, Note_on_c, 9, 40, 32
5, 470400, Note_on_c, 9, 38, 57
5, 471068, Note_on_c, 9, 38, 0
5, 471068, Note_on_c, 9, 40, 0
5, 471360, Note_on_c, 9, 40, 30
5, 471360, Note_on_c, 9, 38, 62
5, 471743, Note_on_c, 9, 38, 0
5, 471810, Note_on_c, 9, 40, 0
5, 472000, Note_on_c, 9, 38, 55
5, 472130, Note_on_c, 9, 38, 0
5, 472320, Note_on_c, 9, 40, 19
5, 472320, Note_on_c, 9, 38, 58
5, 472970, Note_on_c, 9, 38, 0
5, 473195, Note_on_c, 9, 40, 0
5, 473280, Note_on_c, 9, 40, 28
5, 473280, Note_on_c, 9, 38, 74
5, 473920, Note_on_c, 9, 38, 0
5, 474013, Note_on_c, 9, 40, 0
5, 474240, Note_on_c, 9, 40, 28
5, 474240, Note_on_c, 9, 38, 72
5, 474892, Note_on_c, 9, 38, 0
5, 474988, Note_on_c, 9, 40, 0
5, 475200, Note_on_c, 9, 40, 28
5, 475200, Note_on_c, 9, 38, 67
5, 475498, Note_on_c, 9, 38, 0
5, 475786, Note_on_c, 9, 40, 0
5, 475840, Note_on_c, 9, 38, 79
5, 475940, Note_on_c, 9, 38, 0
5, 476160, Note_on_c, 9, 40, 25
5, 476160, Note_on_c, 9, 38, 78
5, 476803, Note_on_c, 9, 38, 0
5, 476866, Note_on_c, 9, 40, 0
5, 477120, Note_on_c, 9, 40, 25
5, 477120, Note_on_c, 9, 38, 72
5, 477604, Note_on_c, 9, 38, 0
5, 477769, Note_on_c, 9, 40, 0
5, 478080, Note_on_c, 9, 40, 32
5, 478080, Note_on_c, 9, 38, 81
5, 478562, Note_on_c, 9, 38, 0
5, 479040, Note_on_c, 9, 38, 79
5, 479313, Note_on_c, 9, 38, 0
5, 479519, Note_on_c, 9, 40, 0
5, 479680, Note_on_c, 9, 38, 50
5, 479819, Note_on_c, 9, 38, 0
5, 480000, Note_on_c, 9, 40, 19
5, 480000, Note_on_c, 9, 38, 85
5, 480573, Note_on_c, 9, 38, 0
5, 480822, Note_on_c, 9, 40, 0
5, 480960, Note_on_c, 9, 40, 33
5, 480960, Note_on_c, 9, 38, 83
5, 481517, Note_on_c, 9, 38, 0
5, 481708, Note_on_c, 9, 40, 0
5, 481920, Note_on_c, 9, 40, 26
5, 481920, Note_on_c, 9, 38, 70
5, 482406, Note_on_c, 9, 38, 0
5, 482482, Note_on_c, 9, 40, 0
5, 482560, Note_on_c, 9, 39, 70
5, 482847, Note_on_c, 9, 39, 0
5, 482880, Note_on_c, 9, 40, 26
5, 482880, Note_on_c, 9, 38, 55
5, 483387, Note_on_c, 9, 38, 0
5, 483556, Note_on_c, 9, 40, 0
5, 483840, Note_on_c, 9, 40, 25
5, 483840, Note_on_c, 9, 38, 78
5, 484369, Note_on_c, 9, 38, 0
5, 484450, Note_on_c, 9, 40, 0
5, 484800, Note_on_c, 9, 40, 28
5, 484800, Note_on_c, 9, 38, 80
5, 485237, Note_on_c, 9, 38, 0
5, 485355, Note_on_c, 9, 40, 0
5, 485440, Note_on_c, 9, 38, 58
5, 485584, Note_on_c, 9, 38, 0
5, 485760, Note_on_c, 9, 40, 32
5, 485760, Note_on_c, 9, 38, 67
5, 486318, Note_on_c, 9, 38, 0
5, 486443, Note_on_c, 9, 40, 0
5, 486720, Note_on_c, 9, 40, 31
5, 486720, Note_on_c, 9, 38, 75
5, 487130, Note_on_c, 9, 38, 0
5, 487231, Note_on_c, 9, 40, 0
5, 487680, Note_on_c, 9, 40, 16
5, 487680, Note_on_c, 9, 38, 67
5, 488133, Note_on_c, 9, 38, 0
5, 488269, Note_on_c, 9, 40, 0
5, 488320, Note_on_c, 9, 39, 63
5, 488564, Note_on_c, 9, 39, 0
5, 488640, Note_on_c, 9, 40, 33
5, 488640, Note_on_c, 9, 38, 74
5, 489296, Note_on_c, 9, 38, 0
5, 489433, Note_on_c, 9, 40, 0
5, 489600, Note_on_c, 9, 40, 30
5, 489600, Note_on_c, 9, 38, 67
5, 490149, Note_on_c, 9, 40, 0
5, 490207, Note_on_c, 9, 38, 0
5, 490560, Note_on_c, 9, 40, 31
5, 490560, Note_on_c, 9, 38, 78
5, 491131, Note_on_c, 9, 38, 0
5, 491154, Note_on_c, 9, 40, 0
5, 491520, Note_on_c, 9, 40, 26
5, 491520, Note_on_c, 9, 38, 66
5, 492047, Note_on_c, 9, 38, 0
5, 492066, Note_on_c, 9, 40, 0
5, 492160, Note_on_c, 9, 39, 67
5, 492433, Note_on_c, 9, 39, 0
5, 492480, Note_on_c, 9, 40, 30
5, 492480, Note_on_c, 9, 38, 75
5, 493011, Note_on_c, 9, 38, 0
5, 493089, Note_on_c, 9, 40, 0
5, 493440, Note_on_c, 9, 40, 25
5, 493440, Note_on_c, 9, 38, 67
5, 494013, Note_on_c, 9, 40, 0
5, 494065, Note_on_c, 9, 38, 0
5, 494400, Note_on_c, 9, 40, 25
5, 494400, Note_on_c, 9, 38, 74
5, 494810, Note_on_c, 9, 38, 0
5, 494936, Note_on_c, 9, 40, 0
5, 495040, Note_on_c, 9, 38, 80
5, 495232, Note_on_c, 9, 38, 0
5, 495360, Note_on_c, 9, 40, 22
5, 495360, Note_on_c, 9, 38, 65
5, 495850, Note_on_c, 9, 38, 0
5, 496008, Note_on_c, 9, 40, 0
5, 496320, Note_on_c, 9, 40, 27
5, 496320, Note_on_c, 9, 38, 72
5, 496748, Note_on_c, 9, 38, 0
5, 496830, Note_on_c, 9, 40, 0
5, 496960, Note_on_c, 9, 38, 67
5, 497144, Note_on_c, 9, 38, 0
5, 497280, Note_on_c, 9, 40, 25
5, 497280, Note_on_c, 9, 38, 49
5, 497777, Note_on_c, 9, 38, 0
5, 497838, Note_on_c, 9, 40, 0
5, 498240, Note_on_c, 9, 40, 26
5, 498240, Note_on_c, 9, 38, 70
5, 498782, Note_on_c, 9, 38, 0
5, 498834, Note_on_c, 9, 40, 0
5, 499200, Note_on_c, 9, 40, 30
5, 499200, Note_on_c, 9, 38, 80
5, 499749, Note_on_c, 9, 40, 0
5, 499760, Note_on_c, 9, 38, 0
5, 500160, Note_on_c, 9, 40, 27
5, 500160, Note_on_c, 9, 38, 63
5, 500545, Note_on_c, 9, 38, 0
5, 500690, Note_on_c, 9, 40, 0
5, 500800, Note_on_c, 9, 38, 67
5, 500941, Note_on_c, 9, 38, 0
5, 501120, Note_on_c, 9, 40, 25
5, 501120, Note_on_c, 9, 38, 67
5, 501775, Note_on_c, 9, 38, 0
5, 501839, Note_on_c, 9, 40, 0
5, 502080, Note_on_c, 9, 40, 33
5, 502080, Note_on_c, 9, 38, 78
5, 502416, Note_on_c, 9, 38, 0
5, 502662, Note_on_c, 9, 40, 0
5, 502720, Note_on_c, 9, 38, 79
5, 502866, Note_on_c, 9, 38, 0
5, 503040, Note_on_c, 9, 40, 32
5, 503040, Note_on_c, 9, 38, 80
5, 503564, Note_on_c, 9, 38, 0
5, 503712, Note_on_c, 9, 40, 0
5, 504000, Note_on_c, 9, 40, 30
5, 504000, Note_on_c, 9, 38, 75
5, 504385, Note_on_c, 9, 38, 0
5, 504517, Note_on_c, 9, 40, 0
5, 504640, Note_on_c, 9, 40, 21
5, 504640, Note_on_c, 9, 38, 80
5, 504792, Note_on_c, 9, 38, 0
5, 504960, Note_on_c, 9, 38, 59
5, 505262, Note_on_c, 9, 38, 0
5, 505326, Note_on_c, 9, 40, 0
5, 505920, Note_on_c, 9, 40, 26
5, 505920, Note_on_c, 9, 38, 66
5, 506294, Note_on_c, 9, 38, 0
5, 506440, Note_on_c, 9, 40, 0
5, 506560, Note_on_c, 9, 39, 55
5, 506704, Note_on_c, 9, 39, 0
5, 506880, Note_on_c, 9, 40, 26
5, 506880, Note_on_c, 9, 40, 21
5, 506880, Note_on_c, 9, 38, 67
5, 507031, Note_on_c, 9, 40, 0
5, 507370, Note_on_c, 9, 40, 0
5, 507424, Note_on_c, 9, 38, 0
5, 507840, Note_on_c, 9, 40, 19
5, 507840, Note_on_c, 9, 38, 44
5, 508435, Note_on_c, 9, 38, 0
5, 508445, Note_on_c, 9, 40, 0
5, 508800, Note_on_c, 9, 40, 22
5, 508800, Note_on_c, 9, 38, 44
5, 509344, Note_on_c, 9, 40, 0
5, 509391, Note_on_c, 9, 38, 0
5, 509760, Note_on_c, 9, 40, 22
5, 509760, Note_on_c, 9, 38, 41
5, 510094, Note_on_c, 9, 38, 0
5, 510351, Note_on_c, 9, 40, 0
5, 510400, Note_on_c, 9, 38, 70
5, 510487, Note_on_c, 9, 38, 0
5, 510720, Note_on_c, 9, 40, 18
5, 510720, Note_on_c, 9, 38, 65
5, 511386, Note_on_c, 9, 38, 0
5, 511491, Note_on_c, 9, 40, 0
5, 511680, Note_on_c, 9, 40, 19
5, 511680, Note_on_c, 9, 38, 55
5, 512235, Note_on_c, 9, 38, 0
5, 512240, Note_on_c, 9, 40, 0
5, 512640, Note_on_c, 9, 40, 18
5, 512640, Note_on_c, 9, 38, 49
5, 513151, Note_on_c, 9, 38, 0
5, 513213, Note_on_c, 9, 40, 0
5, 513600, Note_on_c, 9, 40, 24
5, 513600, Note_on_c, 9, 38, 62
5, 514267, Note_on_c, 9, 38, 0
5, 514281, Note_on_c, 9, 40, 0
5, 514560, Note_on_c, 9, 40, 25
5, 514560, Note_on_c, 9, 38, 48
5, 515117, Note_on_c, 9, 38, 0
5, 515167, Note_on_c, 9, 40, 0
5, 515520, Note_on_c, 9, 40, 22
5, 515520, Note_on_c, 9, 38, 49
5, 516044, Note_on_c, 9, 38, 0
5, 516064, Note_on_c, 9, 40, 0
5, 516480, Note_on_c, 9, 40, 24
5, 516480, Note_on_c, 9, 38, 55
5, 516930, Note_on_c, 9, 38, 0
5, 517440, Note_on_c, 9, 38, 63
5, 517673, Note_on_c, 9, 38, 0
5, 518015, Note_on_c, 9, 40, 0
5, 518080, Note_on_c, 9, 38, 55
5, 518172, Note_on_c, 9, 38, 0
5, 518400, Note_on_c, 9, 40, 33
5, 518400, Note_on_c, 9, 38, 79
5, 519034, Note_on_c, 9, 38, 0
5, 519360, Note_on_c, 9, 38, 62
5, 519777, Note_on_c, 9, 38, 0
5, 520134, Note_on_c, 9, 40, 0
5, 520320, Note_on_c, 9, 40, 22
5, 520320, Note_on_c, 9, 38, 66
5, 520833, Note_on_c, 9, 38, 0
5, 521070, Note_on_c, 9, 40, 0
5, 521280, Note_on_c, 9, 40, 26
5, 521280, Note_on_c, 9, 38, 63
5, 521614, Note_on_c, 9, 38, 0
5, 522039, Note_on_c, 9, 40, 0
5, 522240, Note_on_c, 9, 40, 22
5, 522240, Note_on_c, 9, 38, 75
5, 522748, Note_on_c, 9, 38, 0
5, 522932, Note_on_c, 9, 40, 0
5, 523200, Note_on_c, 9, 40, 21
5, 523200, Note_on_c, 9, 38, 59
5, 523776, Note_on_c, 9, 38, 0
5, 523833, Note_on_c, 9, 40, 0
5, 524160, Note_on_c, 9, 40, 21
5, 524160, Note_on_c, 9, 38, 42
5, 524548, Note_on_c, 9, 38, 0
5, 524709, Note_on_c, 9, 40, 0
5, 524800, Note_on_c, 9, 38, 59
5, 524886, Note_on_c, 9, 38, 0
5, 525120, Note_on_c, 9, 40, 25
5, 525120, Note_on_c, 9, 38, 83
5, 525790, Note_on_c, 9, 38, 0
5, 525861, Note_on_c, 9, 40, 0
5, 526080, Note_on_c, 9, 40, 26
5, 526080, Note_on_c, 9, 38, 55
5, 526631, Note_on_c, 9, 38, 0
5, 526631, Note_on_c, 9, 40, 0
5, 527040, Note_on_c, 9, 40, 24
5, 527040, Note_on_c, 9, 38, 55
5, 527492, Note_on_c, 9, 38, 0
5, 527535, Note_on_c, 9, 40, 0
5, 527680, Note_on_c, 9, 39, 48
5, 527680, Note_on_c, 9, 40, 26
5, 527949, Note_on_c, 9, 39, 0
5, 528000, Note_on_c, 9, 38, 49
5, 528381, Note_on_c, 9, 40, 0
5, 528628, Note_on_c, 9, 38, 0
5, 528960, Note_on_c, 9, 40, 24
5, 528960, Note_on_c, 9, 38, 59
5, 529470, Note_on_c, 9, 40, 0
5, 529491, Note_on_c, 9, 38, 0
5, 529920, Note_on_c, 9, 40, 22
5, 529920, Note_on_c, 9, 38, 48
5, 530485, Note_on_c, 9, 38, 0
5, 530496, Note_on_c, 9, 40, 0
5, 530880, Note_on_c, 9, 40, 22
5, 530880, Note_on_c, 9, 38, 55
5, 531395, Note_on_c, 9, 40, 0
5, 531447, Note_on_c, 9, 38, 0
5, 531840, Note_on_c, 9, 40, 22
5, 531840, Note_on_c, 9, 38, 55
5, 532438, Note_on_c, 9, 38, 0
5, 532445, Note_on_c, 9, 40, 0
5, 532800, Note_on_c, 9, 40, 22
5, 532800, Note_on_c, 9, 38, 48
5, 533405, Note_on_c, 9, 38, 0
5, 533450, Note_on_c, 9, 40, 0
5, 533760, Note_on_c, 9, 40, 22
5, 533760, Note_on_c, 9, 38, 50
5, 534146, Note_on_c, 9, 38, 0
5, 534248, Note_on_c, 9, 40, 0
5, 534720, Note_on_c, 9, 40, 22
5, 534720, Note_on_c, 9, 38, 52
5, 535301, Note_on_c, 9, 38, 0
5, 535358, Note_on_c, 9, 40, 0
5, 535680, Note_on_c, 9, 40, 26
5, 535680, Note_on_c, 9, 38, 59
5, 536395, Note_on_c, 9, 40, 0
5, 536397, Note_on_c, 9, 38, 0
5, 536640, Note_on_c, 9, 40, 22
5, 536640, Note_on_c, 9, 38, 54
5, 537041, Note_on_c, 9, 38, 0
5, 537186, Note_on_c, 9, 40, 0
5, 537280, Note_on_c, 9, 38, 62
5, 537396, Note_on_c, 9, 38, 0
5, 537600, Note_on_c, 9, 40, 21
5, 537600, Note_on_c, 9, 38, 59
5, 538332, Note_on_c, 9, 38, 0
5, 538413, Note_on_c, 9, 40, 0
5, 538560, Note_on_c, 9, 40, 26
5, 538560, Note_on_c, 9, 38, 59
5, 539017, Note_on_c, 9, 38, 0
5, 539200, Note_on_c, 9, 38, 67
5, 539319, Note_on_c, 9, 38, 0
5, 539324, Note_on_c, 9, 40, 0
5, 539520, Note_on_c, 9, 40, 16
5, 539520, Note_on_c, 9, 38, 74
5, 540197, Note_on_c, 9, 38, 0
5, 540203, Note_on_c, 9, 40, 0
5, 540480, Note_on_c, 9, 40, 25
5, 540480, Note_on_c, 9, 38, 65
5, 541083, Note_on_c, 9, 38, 0
5, 541140, Note_on_c, 9, 40, 0
5, 541440, Note_on_c, 9, 40, 25
5, 541440, Note_on_c, 9, 38, 66
5, 541835, Note_on_c, 9, 38, 0
5, 542074, Note_on_c, 9, 40, 0
5, 542080, Note_on_c, 9, 38, 67
5, 542181, Note_on_c, 9, 38, 0
5, 542400, Note_on_c, 9, 40, 25
5, 542400, Note_on_c, 9, 38, 75
5, 543132, Note_on_c, 9, 38, 0
5, 543195, Note_on_c, 9, 40, 0
5, 543360, Note_on_c, 9, 40, 28
5, 543360, Note_on_c, 9, 38, 71
5, 543923, Note_on_c, 9, 38, 0
5, 543931, Note_on_c, 9, 40, 0
5, 544320, Note_on_c, 9, 40, 30
5, 544320, Note_on_c, 9, 38, 75
5, 544882, Note_on_c, 9, 38, 0
5, 544882, Note_on_c, 9, 40, 0
5, 544960, Note_on_c, 9, 39, 61
5, 544960, Note_on_c, 9, 40, 28
5, 545168, Note_on_c, 9, 39, 0
5, 545280, Note_on_c, 9, 38, 42
5, 545785, Note_on_c, 9, 40, 0
5, 545952, Note_on_c, 9, 38, 0
5, 546240, Note_on_c, 9, 40, 25
5, 546240, Note_on_c, 9, 38, 55
5, 546825, Note_on_c, 9, 40, 0
5, 546834, Note_on_c, 9, 38, 0
5, 547200, Note_on_c, 9, 40, 22
5, 547200, Note_on_c, 9, 38, 62
5, 547765, Note_on_c, 9, 40, 0
5, 547785, Note_on_c, 9, 38, 0
5, 548160, Note_on_c, 9, 40, 25
5, 548160, Note_on_c, 9, 38, 66
5, 548698, Note_on_c, 9, 38, 0
5, 548698, Note_on_c, 9, 40, 0
5, 548800, Note_on_c, 9, 39, 63
5, 549072, Note_on_c, 9, 39, 0
5, 549120, Note_on_c, 9, 40, 33
5, 549120, Note_on_c, 9, 38, 57
5, 549803, Note_on_c, 9, 38, 0
5, 549931, Note_on_c, 9, 40, 0
5, 550080, Note_on_c, 9, 40, 22
5, 550080, Note_on_c, 9, 38, 65
5, 550597, Note_on_c, 9, 40, 0
5, 550684, Note_on_c, 9, 38, 0
5, 551040, Note_on_c, 9, 40, 25
5, 551040, Note_on_c, 9, 38, 55
5, 551544, Note_on_c, 9, 40, 0
5, 551658, Note_on_c, 9, 38, 0
5, 552000, Note_on_c, 9, 40, 22
5, 552000, Note_on_c, 9, 38, 67
5, 552365, Note_on_c, 9, 38, 0
5, 552463, Note_on_c, 9, 40, 0
5, 552640, Note_on_c, 9, 38, 62
5, 552757, Note_on_c, 9, 38, 0
5, 552960, Note_on_c, 9, 40, 25
5, 552960, Note_on_c, 9, 38, 65
5, 553639, Note_on_c, 9, 38, 0
5, 553740, Note_on_c, 9, 40, 0
5, 553920, Note_on_c, 9, 40, 27
5, 553920, Note_on_c, 9, 38, 67
5, 554323, Note_on_c, 9, 38, 0
5, 554476, Note_on_c, 9, 40, 0
5, 554560, Note_on_c, 9, 38, 63
5, 554687, Note_on_c, 9, 38, 0
5, 554880, Note_on_c, 9, 40, 22
5, 554880, Note_on_c, 9, 38, 66
5, 555579, Note_on_c, 9, 38, 0
5, 555629, Note_on_c, 9, 40, 0
5, 555840, Note_on_c, 9, 40, 27
5, 555840, Note_on_c, 9, 38, 80
5, 556436, Note_on_c, 9, 38, 0
5, 556436, Note_on_c, 9, 40, 0
5, 556800, Note_on_c, 9, 40, 25
5, 556800, Note_on_c, 9, 38, 65
5, 557277, Note_on_c, 9, 38, 0
5, 557318, Note_on_c, 9, 40, 0
5, 557440, Note_on_c, 9, 39, 63
5, 557689, Note_on_c, 9, 39, 0
5, 557760, Note_on_c, 9, 40, 30
5, 557760, Note_on_c, 9, 38, 54
5, 558461, Note_on_c, 9, 38, 0
5, 558597, Note_on_c, 9, 40, 0
5, 558720, Note_on_c, 9, 40, 21
5, 558720, Note_on_c, 9, 38, 67
5, 559247, Note_on_c, 9, 40, 0
5, 559315, Note_on_c, 9, 38, 0
5, 559680, Note_on_c, 9, 40, 26
5, 559680, Note_on_c, 9, 38, 65
5, 560054, Note_on_c, 9, 38, 0
5, 560235, Note_on_c, 9, 40, 0
5, 560320, Note_on_c, 9, 38, 88
5, 560455, Note_on_c, 9, 38, 0
5, 560640, Note_on_c, 9, 40, 28
5, 560640, Note_on_c, 9, 38, 81
5, 561366, Note_on_c, 9, 38, 0
5, 561413, Note_on_c, 9, 40, 0
5, 561600, Note_on_c, 9, 40, 34
5, 561600, Note_on_c, 9, 38, 81
5, 562234, Note_on_c, 9, 38, 0
5, 562265, Note_on_c, 9, 40, 0
5, 562560, Note_on_c, 9, 40, 21
5, 562560, Note_on_c, 9, 38, 72
5, 563199, Note_on_c, 9, 40, 0
5, 563232, Note_on_c, 9, 38, 0
5, 563520, Note_on_c, 9, 40, 24
5, 563520, Note_on_c, 9, 38, 62
5, 564075, Note_on_c, 9, 38, 0
5, 564156, Note_on_c, 9, 40, 0
5, 564480, Note_on_c, 9, 40, 26
5, 564480, Note_on_c, 9, 38, 74
5, 564590, Note_on_c, 9, 38, 0
5, 564800, Note_on_c, 9, 38, 85
5, 564932, Note_on_c, 9, 38, 0
5, 565150, Note_on_c, 9, 40, 0
5, 565440, Note_on_c, 9, 40, 31
5, 565440, Note_on_c, 9, 38, 89
5, 566101, Note_on_c, 9, 38, 0
5, 566144, Note_on_c, 9, 40, 0
5, 566400, Note_on_c, 9, 40, 24
5, 566400, Note_on_c, 9, 38, 70
5, 566981, Note_on_c, 9, 38, 0
5, 567063, Note_on_c, 9, 40, 0
5, 567360, Note_on_c, 9, 40, 34
5, 567360, Note_on_c, 9, 38, 81
5, 567451, Note_on_c, 9, 38, 0
5, 567680, Note_on_c, 9, 38, 81
5, 567805, Note_on_c, 9, 38, 0
5, 567898, Note_on_c, 9, 40, 0
5, 568320, Note_on_c, 9, 40, 31
5, 568320, Note_on_c, 9, 38, 88
5, 568996, Note_on_c, 9, 38, 0
5, 569102, Note_on_c, 9, 40, 0
5, 569280, Note_on_c, 9, 40, 28
5, 569280, Note_on_c, 9, 38, 83
5, 569793, Note_on_c, 9, 38, 0
5, 569864, Note_on_c, 9, 40, 0
5, 570240, Note_on_c, 9, 40, 26
5, 570240, Note_on_c, 9, 38, 67
5, 570711, Note_on_c, 9, 38, 0
5, 570769, Note_on_c, 9, 40, 0
5, 570880, Note_on_c, 9, 39, 56
5, 570880, Note_on_c, 9, 40, 28
5, 571133, Note_on_c, 9, 39, 0
5, 571200, Note_on_c, 9, 38, 36
5, 571684, Note_on_c, 9, 40, 0
5, 571841, Note_on_c, 9, 38, 0
5, 572160, Note_on_c, 9, 40, 31
5, 572160, Note_on_c, 9, 38, 65
5, 572917, Note_on_c, 9, 40, 0
5, 572992, Note_on_c, 9, 38, 0
5, 573120, Note_on_c, 9, 39, 61
5, 573120, Note_on_c, 9, 40, 32
5, 573236, Note_on_c, 9, 39, 0
5, 573440, Note_on_c, 9, 39, 50
5, 573716, Note_on_c, 9, 39, 0
5, 573722, Note_on_c, 9, 40, 0
5, 574080, Note_on_c, 9, 40, 24
5, 574080, Note_on_c, 9, 38, 70
5, 574728, Note_on_c, 9, 38, 0
5, 574805, Note_on_c, 9, 40, 0
5, 575040, Note_on_c, 9, 40, 22
5, 575040, Note_on_c, 9, 38, 52
5, 575507, Note_on_c, 9, 38, 0
5, 575585, Note_on_c, 9, 40, 0
5, 576000, Note_on_c, 9, 40, 15
5, 576000, Note_on_c, 9, 38, 33
5, 576576, Note_on_c, 9, 38, 0
5, 576667, Note_on_c, 9, 40, 0
5, 576960, Note_on_c, 9, 40, 26
5, 576960, Note_on_c, 9, 38, 79
5, 577623, Note_on_c, 9, 38, 0
5, 577663, Note_on_c, 9, 40, 0
5, 577920, Note_on_c, 9, 40, 24
5, 577920, Note_on_c, 9, 38, 44
5, 578431, Note_on_c, 9, 38, 0
5, 578442, Note_on_c, 9, 40, 0
5, 578560, Note_on_c, 9, 39, 64
5, 578856, Note_on_c, 9, 39, 0
5, 578880, Note_on_c, 9, 40, 33
5, 578880, Note_on_c, 9, 38, 62
5, 579572, Note_on_c, 9, 38, 0
5, 579713, Note_on_c, 9, 40, 0
5, 579840, Note_on_c, 9, 40, 26
5, 579840, Note_on_c, 9, 38, 63
5, 580423, Note_on_c, 9, 40, 0
5, 580454, Note_on_c, 9, 38, 0
5, 580800, Note_on_c, 9, 40, 22
5, 580800, Note_on_c, 9, 38, 66
5, 581181, Note_on_c, 9, 38, 0
5, 581295, Note_on_c, 9, 40, 0
5, 581440, Note_on_c, 9, 38, 72
5, 581564, Note_on_c, 9, 38, 0
5, 581760, Note_on_c, 9, 40, 26
5, 581760, Note_on_c, 9, 38, 72
5, 582463, Note_on_c, 9, 38, 0
5, 582580, Note_on_c, 9, 40, 0
5, 582720, Note_on_c, 9, 40, 30
5, 582720, Note_on_c, 9, 38, 59
5, 583195, Note_on_c, 9, 38, 0
5, 583332, Note_on_c, 9, 40, 0
5, 583360, Note_on_c, 9, 38, 48
5, 583455, Note_on_c, 9, 38, 0
5, 583680, Note_on_c, 9, 40, 26
5, 583680, Note_on_c, 9, 38, 65
5, 584338, Note_on_c, 9, 38, 0
5, 584432, Note_on_c, 9, 40, 0
5, 584640, Note_on_c, 9, 40, 25
5, 584640, Note_on_c, 9, 38, 59
5, 585235, Note_on_c, 9, 38, 0
5, 585300, Note_on_c, 9, 40, 0
5, 585600, Note_on_c, 9, 40, 27
5, 585600, Note_on_c, 9, 38, 54
5, 586162, Note_on_c, 9, 38, 0
5, 586310, Note_on_c, 9, 40, 0
5, 586560, Note_on_c, 9, 40, 25
5, 586560, Note_on_c, 9, 38, 75
5, 587010, Note_on_c, 9, 38, 0
5, 587196, Note_on_c, 9, 40, 0
5, 587200, Note_on_c, 9, 38, 81
5, 587317, Note_on_c, 9, 38, 0
5, 587520, Note_on_c, 9, 40, 32
5, 587520, Note_on_c, 9, 38, 71
5, 588219, Note_on_c, 9, 38, 0
5, 588344, Note_on_c, 9, 40, 0
5, 588480, Note_on_c, 9, 40, 32
5, 588480, Note_on_c, 9, 38, 83
5, 588895, Note_on_c, 9, 38, 0
5, 589037, Note_on_c, 9, 40, 0
5, 589120, Note_on_c, 9, 38, 72
5, 589221, Note_on_c, 9, 38, 0
5, 589440, Note_on_c, 9, 40, 33
5, 589440, Note_on_c, 9, 38, 83
5, 590105, Note_on_c, 9, 38, 0
5, 590400, Note_on_c, 9, 38, 78
5, 590895, Note_on_c, 9, 38, 0
5, 590987, Note_on_c, 9, 40, 0
5, 591360, Note_on_c, 9, 40, 30
5, 591360, Note_on_c, 9, 38, 65
5, 591862, Note_on_c, 9, 38, 0
5, 591983, Note_on_c, 9, 40, 0
5, 592000, Note_on_c, 9, 39, 66
5, 592235, Note_on_c, 9, 39, 0
5, 592320, Note_on_c, 9, 40, 33
5, 592320, Note_on_c, 9, 38, 52
5, 593016, Note_on_c, 9, 38, 0
5, 593075, Note_on_c, 9, 40, 0
5, 593280, Note_on_c, 9, 40, 30
5, 593280, Note_on_c, 9, 38, 63
5, 593872, Note_on_c, 9, 38, 0
5, 593919, Note_on_c, 9, 40, 0
5, 594240, Note_on_c, 9, 40, 27
5, 594240, Note_on_c, 9, 38, 58
5, 594784, Note_on_c, 9, 40, 0
5, 594853, Note_on_c, 9, 38, 0
5, 594880, Note_on_c, 9, 39, 62
5, 595126, Note_on_c, 9, 39, 0
5, 595200, Note_on_c, 9, 40, 28
5, 595200, Note_on_c, 9, 38, 57
5, 595831, Note_on_c, 9, 38, 0
5, 595906, Note_on_c, 9, 40, 0
5, 596160, Note_on_c, 9, 40, 22
5, 596160, Note_on_c, 9, 38, 55
5, 596660, Note_on_c, 9, 38, 0
5, 596709, Note_on_c, 9, 40, 0
5, 597120, Note_on_c, 9, 40, 22
5, 597120, Note_on_c, 9, 38, 50
5, 597691, Note_on_c, 9, 38, 0
5, 597738, Note_on_c, 9, 40, 0
5, 598080, Note_on_c, 9, 40, 25
5, 598080, Note_on_c, 9, 38, 62
5, 598391, Note_on_c, 9, 38, 0
5, 598624, Note_on_c, 9, 40, 0
5, 599040, Note_on_c, 9, 40, 24
5, 599040, Note_on_c, 9, 38, 81
5, 599735, Note_on_c, 9, 38, 0
5, 599806, Note_on_c, 9, 40, 0
5, 600000, Note_on_c, 9, 40, 32
5, 600000, Note_on_c, 9, 38, 67
5, 600455, Note_on_c, 9, 38, 0
5, 600547, Note_on_c, 9, 40, 0
5, 600640, Note_on_c, 9, 38, 49
5, 600731, Note_on_c, 9, 38, 0
5, 600960, Note_on_c, 9, 40, 32
5, 600960, Note_on_c, 9, 38, 85
5, 601697, Note_on_c, 9, 38, 0
5, 601731, Note_on_c, 9, 40, 0
5, 601920, Note_on_c, 9, 40, 31
5, 601920, Note_on_c, 9, 38, 83
5, 602384, Note_on_c, 9, 38, 0
5, 602496, Note_on_c, 9, 40, 0
5, 602560, Note_on_c, 9, 38, 72
5, 602642, Note_on_c, 9, 38, 0
5, 602880, Note_on_c, 9, 40, 24
5, 602880, Note_on_c, 9, 38, 78
5, 603424, Note_on_c, 9, 38, 0
5, 603476, Note_on_c, 9, 40, 0
5, 603840, Note_on_c, 9, 40, 22
5, 603840, Note_on_c, 9, 38, 83
5, 604383, Note_on_c, 9, 40, 0
5, 604433, Note_on_c, 9, 38, 0
5, 604800, Note_on_c, 9, 40, 15
5, 604800, Note_on_c, 9, 38, 75
5, 605338, Note_on_c, 9, 40, 0
5, 605398, Note_on_c, 9, 38, 0
5, 605760, Note_on_c, 9, 40, 27
5, 605760, Note_on_c, 9, 38, 79
5, 606121, Note_on_c, 9, 38, 0
5, 606232, Note_on_c, 9, 40, 0
5, 606400, Note_on_c, 9, 38, 58
5, 606528, Note_on_c, 9, 38, 0
5, 606720, Note_on_c, 9, 40, 21
5, 606720, Note_on_c, 9, 38, 52
5, 607459, Note_on_c, 9, 38, 0
5, 607473, Note_on_c, 9, 40, 0
5, 607680, Note_on_c, 9, 40, 31
5, 607680, Note_on_c, 9, 38, 66
5, 608341, Note_on_c, 9, 40, 0
5, 608343, Note_on_c, 9, 38, 0
5, 608640, Note_on_c, 9, 40, 25
5, 608640, Note_on_c, 9, 38, 71
5, 609238, Note_on_c, 9, 38, 0
5, 609238, Note_on_c, 9, 40, 0
5, 609600, Note_on_c, 9, 40, 25
5, 609600, Note_on_c, 9, 38, 79
5, 610155, Note_on_c, 9, 40, 0
5, 610202, Note_on_c, 9, 38, 0
5, 610560, Note_on_c, 9, 40, 25
5, 610560, Note_on_c, 9, 38, 66
5, 611100, Note_on_c, 9, 38, 0
5, 611118, Note_on_c, 9, 40, 0
5, 611200, Note_on_c, 9, 39, 68
5, 611480, Note_on_c, 9, 39, 0
5, 611520, Note_on_c, 9, 40, 26
5, 611520, Note_on_c, 9, 38, 52
5, 612219, Note_on_c, 9, 38, 0
5, 612300, Note_on_c, 9, 40, 0
5, 612480, Note_on_c, 9, 40, 26
5, 612480, Note_on_c, 9, 38, 63
5, 613065, Note_on_c, 9, 40, 0
5, 613145, Note_on_c, 9, 38, 0
5, 613440, Note_on_c, 9, 40, 26
5, 613440, Note_on_c, 9, 38, 71
5, 613942, Note_on_c, 9, 38, 0
5, 614053, Note_on_c, 9, 40, 0
5, 614080, Note_on_c, 9, 38, 85
5, 614190, Note_on_c, 9, 38, 0
5, 614400, Note_on_c, 9, 40, 24
5, 614400, Note_on_c, 9, 38, 70
5, 615131, Note_on_c, 9, 38, 0
5, 615148, Note_on_c, 9, 40, 0
5, 615360, Note_on_c, 9, 40, 28
5, 615360, Note_on_c, 9, 38, 81
5, 615980, Note_on_c, 9, 40, 0
5, 615983, Note_on_c, 9, 38, 0
5, 616320, Note_on_c, 9, 40, 24
5, 616320, Note_on_c, 9, 38, 57
5, 616934, Note_on_c, 9, 40, 0
5, 616965, Note_on_c, 9, 38, 0
5, 617280, Note_on_c, 9, 40, 25
5, 617280, Note_on_c, 9, 38, 70
5, 617927, Note_on_c, 9, 38, 0
5, 617963, Note_on_c, 9, 40, 0
5, 618240, Note_on_c, 9, 40, 25
5, 618240, Note_on_c, 9, 38, 65
5, 618889, Note_on_c, 9, 40, 0
5, 618930, Note_on_c, 9, 38, 0
5, 619200, Note_on_c, 9, 40, 28
5, 619200, Note_on_c, 9, 38, 71
5, 619600, Note_on_c, 9, 38, 0
5, 619807, Note_on_c, 9, 40, 0
5, 619840, Note_on_c, 9, 38, 83
5, 619961, Note_on_c, 9, 38, 0
5, 620160, Note_on_c, 9, 40, 24
5, 620160, Note_on_c, 9, 38, 75
5, 620809, Note_on_c, 9, 38, 0
5, 620924, Note_on_c, 9, 40, 0
5, 621120, Note_on_c, 9, 40, 26
5, 621120, Note_on_c, 9, 38, 67
5, 621593, Note_on_c, 9, 38, 0
5, 621653, Note_on_c, 9, 40, 0
5, 621760, Note_on_c, 9, 38, 72
5, 621901, Note_on_c, 9, 38, 0
5, 622080, Note_on_c, 9, 40, 26
5, 622080, Note_on_c, 9, 38, 65
5, 622760, Note_on_c, 9, 38, 0
5, 622840, Note_on_c, 9, 40, 0
5, 623040, Note_on_c, 9, 40, 22
5, 623040, Note_on_c, 9, 38, 78
5, 623465, Note_on_c, 9, 40, 0
5, 623481, Note_on_c, 9, 38, 0
5, 623680, Note_on_c, 9, 38, 55
5, 623783, Note_on_c, 9, 38, 0
5, 624000, Note_on_c, 9, 40, 32
5, 624000, Note_on_c, 9, 38, 57
5, 624668, Note_on_c, 9, 38, 0
5, 624668, Note_on_c, 9, 40, 0
5, 624960, Note_on_c, 9, 40, 30
5, 624960, Note_on_c, 9, 38, 62
5, 625343, Note_on_c, 9, 38, 0
5, 625410, Note_on_c, 9, 40, 0
5, 625600, Note_on_c, 9, 38, 55
5, 625730, Note_on_c, 9, 38, 0
5, 625920, Note_on_c, 9, 40, 19
5, 625920, Note_on_c, 9, 38, 58
5, 626570, Note_on_c, 9, 38, 0
5, 626795, Note_on_c, 9, 40, 0
5, 626880, Note_on_c, 9, 40, 28
5, 626880, Note_on_c, 9, 38, 74
5, 627520, Note_on_c, 9, 38, 0
5, 627613, Note_on_c, 9, 40, 0
5, 627840, Note_on_c, 9, 40, 28
5, 627840, Note_on_c, 9, 38, 72
5, 628492, Note_on_c, 9, 38, 0
5, 628588, Note_on_c, 9, 40, 0
5, 628800, Note_on_c, 9, 40, 28
5, 628800, Note_on_c, 9, 38, 67
5, 629098, Note_on_c, 9, 38, 0
5, 629386, Note_on_c, 9, 40, 0
5, 629440, Note_on_c, 9, 38, 79
5, 629540, Note_on_c, 9, 38, 0
5, 629760, Note_on_c, 9, 40, 25
5, 629760, Note_on_c, 9, 38, 78
5, 630403, Note_on_c, 9, 38, 0
5, 630466, Note_on_c, 9, 40, 0
5, 630720, Note_on_c, 9, 40, 25
5, 630720, Note_on_c, 9, 38, 72
5, 631204, Note_on_c, 9, 38, 0
5, 631369, Note_on_c, 9, 40, 0
5, 631680, Note_on_c, 9, 40, 32
5, 631680, Note_on_c, 9, 38, 81
5, 632162, Note_on_c, 9, 38, 0
5, 632640, Note_on_c, 9, 38, 79
5, 632913, Note_on_c, 9, 38, 0
5, 633119, Note_on_c, 9, 40, 0
5, 633280, Note_on_c, 9, 38, 50
5, 633419, Note_on_c, 9, 38, 0
5, 633600, Note_on_c, 9, 40, 19
5, 633600, Note_on_c, 9, 38, 85
5, 634173, Note_on_c, 9, 38, 0
5, 634422, Note_on_c, 9, 40, 0
5, 634560, Note_on_c, 9, 40, 33
5, 634560, Note_on_c, 9, 38, 83
5, 635117, Note_on_c, 9, 38, 0
5, 635308, Note_on_c, 9, 40, 0
5, 635520, Note_on_c, 9, 40, 26
5, 635520, Note_on_c, 9, 38, 70
5, 636006, Note_on_c, 9, 38, 0
5, 636082, Note_on_c, 9, 40, 0
5, 636160, Note_on_c, 9, 39, 70
5, 636447, Note_on_c, 9, 39, 0
5, 636480, Note_on_c, 9, 40, 26
5, 636480, Note_on_c, 9, 38, 55
5, 636987, Note_on_c, 9, 38, 0
5, 637156, Note_on_c, 9, 40, 0
5, 637440, Note_on_c, 9, 40, 25
5, 637440, Note_on_c, 9, 38, 78
5, 637969, Note_on_c, 9, 38, 0
5, 638050, Note_on_c, 9, 40, 0
5, 638400, Note_on_c, 9, 40, 28
5, 638400, Note_on_c, 9, 38, 80
5, 638837, Note_on_c, 9, 38, 0
5, 638955, Note_on_c, 9, 40, 0
5, 639040, Note_on_c, 9, 38, 58
5, 639184, Note_on_c, 9, 38, 0
5, 639360, Note_on_c, 9, 40, 32
5, 639360, Note_on_c, 9, 38, 67
5, 639918, Note_on_c, 9, 38, 0
5, 640043, Note_on_c, 9, 40, 0
5, 640320, Note_on_c, 9, 40, 31
5, 640320, Note_on_c, 9, 38, 75
5, 640730, Note_on_c, 9, 38, 0
5, 640831, Note_on_c, 9, 40, 0
5, 641280, Note_on_c, 9, 40, 16
5, 641280, Note_on_c, 9, 38, 67
5, 641733, Note_on_c, 9, 38, 0
5, 641869, Note_on_c, 9, 40, 0
5, 641920, Note_on_c, 9, 39, 63
5, 642164, Note_on_c, 9, 39, 0
5, 642240, Note_on_c, 9, 40, 33
5, 642240, Note_on_c, 9, 38, 74
5, 642896, Note_on_c, 9, 38, 0
5, 643033, Note_on_c, 9, 40, 0
5, 643200, Note_on_c, 9, 40, 30
5, 643200, Note_on_c, 9, 38, 67
5, 643749, Note_on_c, 9, 40, 0
5, 643807, Note_on_c, 9, 38, 0
5, 644160, Note_on_c, 9, 40, 31
5, 644160, Note_on_c, 9, 38, 78
5, 644731, Note_on_c, 9, 38, 0
5, 644754, Note_on_c, 9, 40, 0
5, 645120, Note_on_c, 9, 40, 26
5, 645120, Note_on_c, 9, 38, 66
5, 645647, Note_on_c, 9, 38, 0
5, 645666, Note_on_c, 9, 40, 0
5, 645760, Note_on_c, 9, 39, 67
5, 646033, Note_on_c, 9, 39, 0
5, 646080, Note_on_c, 9, 40, 30
5, 646080, Note_on_c, 9, 38, 75
5, 646611, Note_on_c, 9, 38, 0
5, 646689, Note_on_c, 9, 40, 0
5, 647040, Note_on_c, 9, 40, 25
5, 647040, Note_on_c, 9, 38, 67
5, 647613, Note_on_c, 9, 40, 0
5, 647665, Note_on_c, 9, 38, 0
5, 648000, Note_on_c, 9, 40, 25
5, 648000, Note_on_c, 9, 38, 74
5, 648410, Note_on_c, 9, 38, 0
5, 648536, Note_on_c, 9, 40, 0
5, 648640, Note_on_c, 9, 38, 80
5, 648832, Note_on_c, 9, 38, 0
5, 648960, Note_on_c, 9, 40, 22
5, 648960, Note_on_c, 9, 38, 65
5, 649450, Note_on_c, 9, 38, 0
5, 649608, Note_on_c, 9, 40, 0
5, 649920, Note_on_c, 9, 40, 27
5, 649920, Note_on_c, 9, 38, 72
5, 650348, Note_on_c, 9, 38, 0
5, 650430, Note_on_c, 9, 40, 0
5, 650560, Note_on_c, 9, 38, 67
5, 650744, Note_on_c, 9, 38, 0
5, 650880, Note_on_c, 9, 40, 25
5, 650880, Note_on_c, 9, 38, 49
5, 651377, Note_on_c, 9, 38, 0
5, 651438, Note_on_c, 9, 40, 0
5, 651840, Note_on_c, 9, 40, 26
5, 651840, Note_on_c, 9, 38, 70
5, 652382, Note_on_c, 9, 38, 0
5, 652434, Note_on_c, 9, 40, 0
5, 652800, Note_on_c, 9, 40, 30
5, 652800, Note_on_c, 9, 38, 80
5, 653349, Note_on_c, 9, 40, 0
5, 653360, Note_on_c, 9, 38, 0
5, 653760, Note_on_c, 9, 40, 27
5, 653760, Note_on_c, 9, 38, 63
5, 654145, Note_on_c, 9, 38, 0
5, 654290, Note_on_c, 9, 40, 0
5, 654400, Note_on_c, 9, 38, 67
5, 654541, Note_on_c, 9, 38, 0
5, 654720, Note_on_c, 9, 40, 25
5, 654720, Note_on_c, 9, 38, 67
5, 655375, Note_on_c, 9, 38, 0
5, 655439, Note_on_c, 9, 40, 0
5, 655680, Note_on_c, 9, 40, 33
5, 655680, Note_on_c, 9, 38, 78
5, 656016, Note_on_c, 9, 38, 0
5, 656262, Note_on_c, 9, 40, 0
5, 656320, Note_on_c, 9, 38, 79
5, 656466, Note_on_c, 9, 38, 0
5, 656640, Note_on_c, 9, 40, 32
5, 656640, Note_on_c, 9, 38, 80
5, 657164, Note_on_c, 9, 38, 0
5, 657312, Note_on_c, 9, 40, 0
5, 657600, Note_on_c, 9, 40, 30
5, 657600, Note_on_c, 9, 38, 75
5, 657985, Note_on_c, 9, 38, 0
5, 658117, Note_on_c, 9, 40, 0
5, 658240, Note_on_c, 9, 40, 21
5, 658240, Note_on_c, 9, 38, 80
5, 658392, Note_on_c, 9, 38, 0
5, 658560, Note_on_c, 9, 38, 59
5, 658862, Note_on_c, 9, 38, 0
5, 658926, Note_on_c, 9, 40, 0
5, 659520, Note_on_c, 9, 40, 26
5, 659520, Note_on_c, 9, 38, 66
5, 659894, Note_on_c, 9, 38, 0
5, 660040, Note_on_c, 9, 40, 0
5, 660160, Note_on_c, 9, 39, 55
5, 660304, Note_on_c, 9, 39, 0
5, 660480, Note_on_c, 9, 40, 26
5, 660631, Note_on_c, 9, 40, 0
5, 660631, Note_on_c, 9, 40, 21
5, 660631, Note_on_c, 9, 38, 67
5, 661121, Note_on_c, 9, 40, 0
5, 661175, Note_on_c, 9, 38, 0
5, 661591, Note_on_c, 9, 40, 19
5, 661591, Note_on_c, 9, 38, 44
5, 662186, Note_on_c, 9, 38, 0
5, 662196, Note_on_c, 9, 40, 0
5, 662551, Note_on_c, 9, 40, 22
5, 662551, Note_on_c, 9, 38, 44
5, 663095, Note_on_c, 9, 40, 0
5, 663142, Note_on_c, 9, 38, 0
5, 663511, Note_on_c, 9, 40, 22
5, 663511, Note_on_c, 9, 38, 41
5, 663845, Note_on_c, 9, 38, 0
5, 664102, Note_on_c, 9, 40, 0
5, 664151, Note_on_c, 9, 38, 70
5, 664238, Note_on_c, 9, 38, 0
5, 664471, Note_on_c, 9, 40, 18
5, 664471, Note_on_c, 9, 38, 65
5, 665137, Note_on_c, 9, 38, 0
5, 665242, Note_on_c, 9, 40, 0
5, 665431, Note_on_c, 9, 40, 19
5, 665431, Note_on_c, 9, 38, 55
5, 665986, Note_on_c, 9, 38, 0
5, 665991, Note_on_c, 9, 40, 0
5, 666391, Note_on_c, 9, 40, 18
5, 666391, Note_on_c, 9, 38, 49
5, 666902, Note_on_c, 9, 38, 0
5, 666964, Note_on_c, 9, 40, 0
5, 667351, Note_on_c, 9, 40, 24
5, 667351, Note_on_c, 9, 38, 62
5, 668018, Note_on_c, 9, 38, 0
5, 668032, Note_on_c, 9, 40, 0
5, 668311, Note_on_c, 9, 40, 25
5, 668311, Note_on_c, 9, 38, 48
5, 668868, Note_on_c, 9, 38, 0
5, 668918, Note_on_c, 9, 40, 0
5, 669271, Note_on_c, 9, 40, 22
5, 669271, Note_on_c, 9, 38, 49
5, 669795, Note_on_c, 9, 38, 0
5, 669815, Note_on_c, 9, 40, 0
5, 670231, Note_on_c, 9, 40, 24
5, 670231, Note_on_c, 9, 38, 55
5, 670681, Note_on_c, 9, 38, 0
5, 671191, Note_on_c, 9, 38, 63
5, 671424, Note_on_c, 9, 38, 0
5, 671766, Note_on_c, 9, 40, 0
5, 671831, Note_on_c, 9, 38, 55
5, 671923, Note_on_c, 9, 38, 0
5, 672151, Note_on_c, 9, 40, 33
5, 672151, Note_on_c, 9, 38, 79
5, 672785, Note_on_c, 9, 38, 0
5, 673111, Note_on_c, 9, 38, 62
5, 673528, Note_on_c, 9, 38, 0
5, 673885, Note_on_c, 9, 40, 0
5, 674071, Note_on_c, 9, 40, 22
5, 674071, Note_on_c, 9, 38, 66
5, 674584, Note_on_c, 9, 38, 0
5, 674821, Note_on_c, 9, 40, 0
5, 675031, Note_on_c, 9, 40, 26
5, 675031, Note_on_c, 9, 38, 63
5, 675365, Note_on_c, 9, 38, 0
5, 675790, Note_on_c, 9, 40, 0
5, 675991, Note_on_c, 9, 40, 22
5, 675991, Note_on_c, 9, 38, 75
5, 676499, Note_on_c, 9, 38, 0
5, 676683, Note_on_c, 9, 40, 0
5, 676951, Note_on_c, 9, 40, 21
5, 676951, Note_on_c, 9, 38, 59
5, 677527, Note_on_c, 9, 38, 0
5, 677584, Note_on_c, 9, 40, 0
5, 677911, Note_on_c, 9, 40, 21
5, 677911, Note_on_c, 9, 38, 42
5, 678299, Note_on_c, 9, 38, 0
5, 678460, Note_on_c, 9, 40, 0
5, 678551, Note_on_c, 9, 38, 59
5, 678637, Note_on_c, 9, 38, 0
5, 678871, Note_on_c, 9, 40, 25
5, 678871, Note_on_c, 9, 38, 83
5, 679541, Note_on_c, 9, 38, 0
5, 679612, Note_on_c, 9, 40, 0
5, 679831, Note_on_c, 9, 40, 26
5, 679831, Note_on_c, 9, 38, 55
5, 680382, Note_on_c, 9, 38, 0
5, 680382, Note_on_c, 9, 40, 0
5, 680791, Note_on_c, 9, 40, 24
5, 680791, Note_on_c, 9, 38, 55
5, 681243, Note_on_c, 9, 38, 0
5, 681286, Note_on_c, 9, 40, 0
5, 681431, Note_on_c, 9, 39, 48
5, 681431, Note_on_c, 9, 40, 26
5, 681700, Note_on_c, 9, 39, 0
5, 681751, Note_on_c, 9, 38, 49
5, 682132, Note_on_c, 9, 40, 0
5, 682379, Note_on_c, 9, 38, 0
5, 682711, Note_on_c, 9, 40, 24
5, 682711, Note_on_c, 9, 38, 59
5, 683221, Note_on_c, 9, 40, 0
5, 683242, Note_on_c, 9, 38, 0
5, 683671, Note_on_c, 9, 40, 22
5, 683671, Note_on_c, 9, 38, 48
5, 684236, Note_on_c, 9, 38, 0
5, 684247, Note_on_c, 9, 40, 0
5, 684631, Note_on_c, 9, 40, 22
5, 684631, Note_on_c, 9, 38, 55
5, 685146, Note_on_c, 9, 40, 0
5, 685198, Note_on_c, 9, 38, 0
5, 685591, Note_on_c, 9, 40, 22
5, 685591, Note_on_c, 9, 38, 55
5, 686189, Note_on_c, 9, 38, 0
5, 686196, Note_on_c, 9, 40, 0
5, 686551, Note_on_c, 9, 40, 22
5, 686551, Note_on_c, 9, 38, 48
5, 687156, Note_on_c, 9, 38, 0
5, 687201, Note_on_c, 9, 40, 0
5, 687511, Note_on_c, 9, 40, 22
5, 687511, Note_on_c, 9, 38, 50
5, 687897, Note_on_c, 9, 38, 0
5, 687999, Note_on_c, 9, 40, 0
5, 688471, Note_on_c, 9, 40, 22
5, 688471, Note_on_c, 9, 38, 52
5, 689052, Note_on_c, 9, 38, 0
5, 689109, Note_on_c, 9, 40, 0
5, 689431, Note_on_c, 9, 40, 26
5, 689431, Note_on_c, 9, 38, 59
5, 690146, Note_on_c, 9, 40, 0
5, 690148, Note_on_c, 9, 38, 0
5, 690391, Note_on_c, 9, 40, 22
5, 690391, Note_on_c, 9, 38, 54
5, 690792, Note_on_c, 9, 38, 0
5, 690937, Note_on_c, 9, 40, 0
5, 691031, Note_on_c, 9, 38, 62
5, 691147, Note_on_c, 9, 38, 0
5, 691351, Note_on_c, 9, 40, 21
5, 691351, Note_on_c, 9, 38, 59
5, 692083, Note_on_c, 9, 38, 0
5, 692164, Note_on_c, 9, 40, 0
5, 692311, Note_on_c, 9, 40, 26
5, 692311, Note_on_c, 9, 38, 59
5, 692768, Note_on_c, 9, 38, 0
5, 692951, Note_on_c, 9, 38, 67
5, 693070, Note_on_c, 9, 38, 0
5, 693075, Note_on_c, 9, 40, 0
5, 693271, Note_on_c, 9, 40, 16
5, 693271, Note_on_c, 9, 38, 74
5, 693948, Note_on_c, 9, 38, 0
5, 693954, Note_on_c, 9, 40, 0
5, 694231, Note_on_c, 9, 40, 25
5, 694231, Note_on_c, 9, 38, 65
5, 694834, Note_on_c, 9, 38, 0
5, 694891, Note_on_c, 9, 40, 0
5, 695191, Note_on_c, 9, 40, 25
5, 695191, Note_on_c, 9, 38, 66
5, 695586, Note_on_c, 9, 38, 0
5, 695825, Note_on_c, 9, 40, 0
5, 695831, Note_on_c, 9, 38, 67
5, 695932, Note_on_c, 9, 38, 0
5, 696151, Note_on_c, 9, 40, 25
5, 696151, Note_on_c, 9, 38, 75
5, 696883, Note_on_c, 9, 38, 0
5, 696946, Note_on_c, 9, 40, 0
5, 697111, Note_on_c, 9, 40, 28
5, 697111, Note_on_c, 9, 38, 71
5, 697674, Note_on_c, 9, 38, 0
5, 697682, Note_on_c, 9, 40, 0
5, 698071, Note_on_c, 9, 40, 30
5, 698071, Note_on_c, 9, 38, 75
5, 698633, Note_on_c, 9, 38, 0
5, 698633, Note_on_c, 9, 40, 0
5, 698711, Note_on_c, 9, 39, 61
5, 698711, Note_on_c, 9, 40, 28
5, 698919, Note_on_c, 9, 39, 0
5, 699031, Note_on_c, 9, 38, 42
5, 699536, Note_on_c, 9, 40, 0
5, 699703, Note_on_c, 9, 38, 0
5, 699991, Note_on_c, 9, 40, 25
5, 699991, Note_on_c, 9, 38, 55
5, 700576, Note_on_c, 9, 40, 0
5, 700585, Note_on_c, 9, 38, 0
5, 700951, Note_on_c, 9, 40, 22
5, 700951, Note_on_c, 9, 38, 62
5, 701516, Note_on_c, 9, 40, 0
5, 701536, Note_on_c, 9, 38, 0
5, 701911, Note_on_c, 9, 40, 25
5, 701911, Note_on_c, 9, 38, 66
5, 702449, Note_on_c, 9, 38, 0
5, 702449, Note_on_c, 9, 40, 0
5, 702551, Note_on_c, 9, 39, 63
5, 702823, Note_on_c, 9, 39, 0
5, 702871, Note_on_c, 9, 40, 33
5, 702871, Note_on_c, 9, 38, 57
5, 703554, Note_on_c, 9, 38, 0
5, 703682, Note_on_c, 9, 40, 0
5, 703831, Note_on_c, 9, 40, 22
5, 703831, Note_on_c, 9, 38, 65
5, 704348, Note_on_c, 9, 40, 0
5, 704435, Note_on_c, 9, 38, 0
5, 704791, Note_on_c, 9, 40, 25
5, 704791, Note_on_c, 9, 38, 55
5, 705295, Note_on_c, 9, 40, 0
5, 705409, Note_on_c, 9, 38, 0
5, 705751, Note_on_c, 9, 40, 22
5, 705751, Note_on_c, 9, 38, 67
5, 706116, Note_on_c, 9, 38, 0
5, 706214, Note_on_c, 9, 40, 0
5, 706391, Note_on_c, 9, 38, 62
5, 706508, Note_on_c, 9, 38, 0
5, 706711, Note_on_c, 9, 40, 25
5, 706711, Note_on_c, 9, 38, 65
5, 707390, Note_on_c, 9, 38, 0
5, 707491, Note_on_c, 9, 40, 0
5, 707671, Note_on_c, 9, 40, 27
5, 707671, Note_on_c, 9, 38, 67
5, 708074, Note_on_c, 9, 38, 0
5, 708227, Note_on_c, 9, 40, 0
5, 708311, Note_on_c, 9, 38, 63
5, 708438, Note_on_c, 9, 38, 0
5, 708631, Note_on_c, 9, 40, 22
5, 708631, Note_on_c, 9, 38, 66
5, 709330, Note_on_c, 9, 38, 0
5, 709380, Note_on_c, 9, 40, 0
5, 709591, Note_on_c, 9, 40, 27
5, 709591, Note_on_c, 9, 38, 80
5, 710187, Note_on_c, 9, 38, 0
5, 710187, Note_on_c, 9, 40, 0
5, 710551, Note_on_c, 9, 40, 25
5, 710551, Note_on_c, 9, 38, 65
5, 711028, Note_on_c, 9, 38, 0
5, 711069, Note_on_c, 9, 40, 0
5, 711191, Note_on_c, 9, 39, 63
5, 711440, Note_on_c, 9, 39, 0
5, 711511, Note_on_c, 9, 40, 30
5, 711511, Note_on_c, 9, 38, 54
5, 712212, Note_on_c, 9, 38, 0
5, 712348, Note_on_c, 9, 40, 0
5, 712471, Note_on_c, 9, 40, 21
5, 712471, Note_on_c, 9, 38, 67
5, 712998, Note_on_c, 9, 40, 0
5, 713066, Note_on_c, 9, 38, 0
5, 713431, Note_on_c, 9, 40, 26
5, 713431, Note_on_c, 9, 38, 65
5, 713805, Note_on_c, 9, 38, 0
5, 713986, Note_on_c, 9, 40, 0
5, 714071, Note_on_c, 9, 38, 88
5, 714206, Note_on_c, 9, 38, 0
5, 714391, Note_on_c, 9, 40, 28
5, 714391, Note_on_c, 9, 38, 81
5, 715117, Note_on_c, 9, 38, 0
5, 715164, Note_on_c, 9, 40, 0
5, 715351, Note_on_c, 9, 40, 34
5, 715351, Note_on_c, 9, 38, 81
5, 715985, Note_on_c, 9, 38, 0
5, 716016, Note_on_c, 9, 40, 0
5, 716311, Note_on_c, 9, 40, 21
5, 716311, Note_on_c, 9, 38, 72
5, 716950, Note_on_c, 9, 40, 0
5, 716983, Note_on_c, 9, 38, 0
5, 717271, Note_on_c, 9, 40, 24
5, 717271, Note_on_c, 9, 38, 62
5, 717826, Note_on_c, 9, 38, 0
5, 717907, Note_on_c, 9, 40, 0
5, 718231, Note_on_c, 9, 40, 26
5, 718231, Note_on_c, 9, 38, 74
5, 718341, Note_on_c, 9, 38, 0
5, 718551, Note_on_c, 9, 38, 85
5, 718683, Note_on_c, 9, 38, 0
5, 718901, Note_on_c, 9, 40, 0
5, 719191, Note_on_c, 9, 40, 31
5, 719191, Note_on_c, 9, 38, 89
5, 719852, Note_on_c, 9, 38, 0
5, 719895, Note_on_c, 9, 40, 0
5, 720151, Note_on_c, 9, 40, 24
5, 720151, Note_on_c, 9, 38, 70
5, 720732, Note_on_c, 9, 38, 0
5, 720814, Note_on_c, 9, 40, 0
5, 721111, Note_on_c, 9, 40, 34
5, 721111, Note_on_c, 9, 38, 81
5, 721202, Note_on_c, 9, 38, 0
5, 721431, Note_on_c, 9, 38, 81
5, 721556, Note_on_c, 9, 38, 0
5, 721649, Note_on_c, 9, 40, 0
5, 722071, Note_on_c, 9, 40, 31
5, 722071, Note_on_c, 9, 38, 88
5, 722747, Note_on_c, 9, 38, 0
5, 722853, Note_on_c, 9, 40, 0
5, 723031, Note_on_c, 9, 40, 28
5, 723031, Note_on_c, 9, 38, 83
5, 723544, Note_on_c, 9, 38, 0
5, 723615, Note_on_c, 9, 40, 0
5, 723991, Note_on_c, 9, 40, 26
5, 723991, Note_on_c, 9, 38, 67
5, 724462, Note_on_c, 9, 38, 0
5, 724520, Note_on_c, 9, 40, 0
5, 724631, Note_on_c, 9, 39, 56
5, 724631, Note_on_c, 9, 40, 28
5, 724884, Note_on_c, 9, 39, 0
5, 724951, Note_on_c, 9, 38, 36
5, 725435, Note_on_c, 9, 40, 0
5, 725592, Note_on_c, 9, 38, 0
5, 725911, Note_on_c, 9, 40, 31
5, 725911, Note_on_c, 9, 38, 65
5, 726668, Note_on_c, 9, 40, 0
5, 726743, Note_on_c, 9, 38, 0
5, 726871, Note_on_c, 9, 39, 61
5, 726871, Note_on_c, 9, 40, 32
5, 726987, Note_on_c, 9, 39, 0
5, 727191, Note_on_c, 9, 39, 50
5, 727467, Note_on_c, 9, 39, 0
5, 727473, Note_on_c, 9, 40, 0
5, 727831, Note_on_c, 9, 40, 24
5, 727831, Note_on_c, 9, 38, 70
5, 728479, Note_on_c, 9, 38, 0
5, 728556, Note_on_c, 9, 40, 0
5, 728791, Note_on_c, 9, 40, 22
5, 728791, Note_on_c, 9, 38, 52
5, 729258, Note_on_c, 9, 38, 0
5, 729336, Note_on_c, 9, 40, 0
5, 729751, Note_on_c, 9, 40, 15
5, 729751, Note_on_c, 9, 38, 33
5, 730327, Note_on_c, 9, 38, 0
5, 730418, Note_on_c, 9, 40, 0
5, 730711, Note_on_c, 9, 40, 26
5, 730711, Note_on_c, 9, 38, 79
5, 731374, Note_on_c, 9, 38, 0
5, 731414, Note_on_c, 9, 40, 0
5, 731671, Note_on_c, 9, 40, 24
5, 731671, Note_on_c, 9, 38, 44
5, 732182, Note_on_c, 9, 38, 0
5, 732193, Note_on_c, 9, 40, 0
5, 732311, Note_on_c, 9, 39, 64
5, 732607, Note_on_c, 9, 39, 0
5, 732631, Note_on_c, 9, 40, 33
5, 732631, Note_on_c, 9, 38, 62
5, 733323, Note_on_c, 9, 38, 0
5, 733464, Note_on_c, 9, 40, 0
5, 733591, Note_on_c, 9, 40, 26
5, 733591, Note_on_c, 9, 38, 63
5, 734174, Note_on_c, 9, 40, 0
5, 734205, Note_on_c, 9, 38, 0
5, 734551, Note_on_c, 9, 40, 22
5, 734551, Note_on_c, 9, 38, 66
5, 734932, Note_on_c, 9, 38, 0
5, 735046, Note_on_c, 9, 40, 0
5, 735191, Note_on_c, 9, 38, 72
5, 735315, Note_on_c, 9, 38, 0
5, 735511, Note_on_c, 9, 40, 26
5, 735511, Note_on_c, 9, 38, 72
5, 736214, Note_on_c, 9, 38, 0
5, 736331, Note_on_c, 9, 40, 0
5, 736800, Note_on_c, 9, 53, 100
5, 737760, Note_on_c, 9, 53, 0
5, 737760, End_track
6, 0, Start_track
6, 0, Control_c, 9, 7, 107
6, 384987, Note_on_c, 9, 44, 62
6, 385106, Note_on_c, 9, 44, 0
6, 386915, Note_on_c, 9, 44, 62
6, 387095, Note_on_c, 9, 44, 0
6, 388898, Note_on_c, 9, 44, 58
6, 389135, Note_on_c, 9, 44, 0
6, 390364, Note_on_c, 9, 36, 37
6, 390456, Note_on_c, 9, 36, 0
6, 392689, Note_on_c, 9, 44, 57
6, 392847, Note_on_c, 9, 44, 0
6, 394607, Note_on_c, 9, 44, 50
6, 394825, Note_on_c, 9, 44, 0
6, 396552, Note_on_c, 9, 44, 49
6, 396715, Note_on_c, 9, 44, 0
6, 398374, Note_on_c, 9, 44, 58
6, 398548, Note_on_c, 9, 44, 0
6, 400346, Note_on_c, 9, 44, 71
6, 400599, Note_on_c, 9, 44, 0
6, 402294, Note_on_c, 9, 46, 40
6, 402509, Note_on_c, 9, 46, 0
6, 406080, Note_on_c, 9, 44, 67
6, 406292, Note_on_c, 9, 44, 0
6, 408065, Note_on_c, 9, 44, 67
6, 408286, Note_on_c, 9, 44, 0
6, 409953, Note_on_c, 9, 46, 37
6, 410092, Note_on_c, 9, 46, 0
6, 413832, Note_on_c, 9, 44, 76
6, 413987, Note_on_c, 9, 44, 0
6, 414771, Note_on_c, 9, 44, 78
6, 414994, Note_on_c, 9, 44, 0
6, 419628, Note_on_c, 9, 44, 80
6, 419827, Note_on_c, 9, 44, 0
6, 421484, Note_on_c, 9, 44, 75
6, 421707, Note_on_c, 9, 44, 0
6, 425297, Note_on_c, 9, 44, 89
6, 425547, Note_on_c, 9, 44, 0
6, 427217, Note_on_c, 9, 44, 83
6, 427427, Note_on_c, 9, 44, 0
6, 429108, Note_on_c, 9, 44, 87
6, 429304, Note_on_c, 9, 44, 0
6, 431033, Note_on_c, 9, 44, 76
6, 431213, Note_on_c, 9, 44, 0
6, 432959, Note_on_c, 9, 44, 72
6, 433144, Note_on_c, 9, 44, 0
6, 434896, Note_on_c, 9, 44, 76
6, 435072, Note_on_c, 9, 44, 0
6, 435859, Note_on_c, 9, 46, 47
6, 436109, Note_on_c, 9, 46, 0
6, 438772, Note_on_c, 9, 44, 80
6, 438968, Note_on_c, 9, 44, 0
6, 440717, Note_on_c, 9, 44, 67
6, 440861, Note_on_c, 9, 44, 0
6, 442555, Note_on_c, 9, 44, 59
6, 442808, Note_on_c, 9, 44, 0
6, 444468, Note_on_c, 9, 44, 46
6, 444642, Note_on_c, 9, 44, 0
6, 445501, Note_on_c, 9, 57, 32
6, 445599, Note_on_c, 9, 57, 0
6, 448311, Note_on_c, 9, 44, 66
6, 448436, Note_on_c, 9, 44, 0
6, 450294, Note_on_c, 9, 44, 63
6, 450430, Note_on_c, 9, 44, 0
6, 452211, Note_on_c, 9, 44, 54
6, 452323, Note_on_c, 9, 44, 0
6, 452807, Note_on_c, 9, 36, 34
6, 452902, Note_on_c, 9, 36, 0
6, 453180, Note_on_c, 9, 36, 24
6, 453327, Note_on_c, 9, 36, 0
6, 454216, Note_on_c, 9, 44, 66
6, 454412, Note_on_c, 9, 44, 0
6, 457956, Note_on_c, 9, 44, 62
6, 458081, Note_on_c, 9, 44, 0
6, 459455, Note_on_c, 9, 36, 30
6, 459547, Note_on_c, 9, 36, 0
6, 460828, Note_on_c, 9, 44, 66
6, 460994, Note_on_c, 9, 44, 0
6, 463627, Note_on_c, 9, 44, 67
6, 463777, Note_on_c, 9, 44, 0
6, 465637, Note_on_c, 9, 44, 71
6, 465773, Note_on_c, 9, 44, 0
6, 467612, Note_on_c, 9, 44, 66
6, 467748, Note_on_c, 9, 44, 0
6, 469486, Note_on_c, 9, 44, 55
6, 469614, Note_on_c, 9, 44, 0
6, 471371, Note_on_c, 9, 44, 62
6, 471583, Note_on_c, 9, 44, 0
6, 472927, Note_on_c, 9, 36, 19
6, 473038, Note_on_c, 9, 36, 0
6, 473272, Note_on_c, 9, 36, 28
6, 473378, Note_on_c, 9, 36, 0
6, 475220, Note_on_c, 9, 44, 75
6, 475476, Note_on_c, 9, 44, 0
6, 477127, Note_on_c, 9, 44, 71
6, 477347, Note_on_c, 9, 44, 0
6, 479050, Note_on_c, 9, 46, 51
6, 479330, Note_on_c, 9, 46, 0
6, 480940, Note_on_c, 9, 44, 68
6, 481144, Note_on_c, 9, 44, 0
6, 481955, Note_on_c, 9, 44, 63
6, 482186, Note_on_c, 9, 44, 0
6, 484843, Note_on_c, 9, 44, 79
6, 485069, Note_on_c, 9, 44, 0
6, 486818, Note_on_c, 9, 44, 78
6, 487049, Note_on_c, 9, 44, 0
6, 488668, Note_on_c, 9, 44, 80
6, 488901, Note_on_c, 9, 44, 0
6, 489625, Note_on_c, 9, 44, 70
6, 489867, Note_on_c, 9, 44, 0
6, 491567, Note_on_c, 9, 44, 76
6, 491765, Note_on_c, 9, 44, 0
6, 492546, Note_on_c, 9, 44, 76
6, 492780, Note_on_c, 9, 44, 0
6, 494439, Note_on_c, 9, 44, 80
6, 494652, Note_on_c, 9, 44, 0
6, 495410, Note_on_c, 9, 44, 81
6, 495650, Note_on_c, 9, 44, 0
6, 497342, Note_on_c, 9, 44, 80
6, 497548, Note_on_c, 9, 44, 0
6, 498275, Note_on_c, 9, 44, 76
6, 498525, Note_on_c, 9, 44, 0
6, 500200, Note_on_c, 9, 44, 84
6, 500407, Note_on_c, 9, 44, 0
6, 501174, Note_on_c, 9, 44, 84
6, 501373, Note_on_c, 9, 44, 0
6, 503103, Note_on_c, 9, 44, 87
6, 503266, Note_on_c, 9, 44, 0
6, 504027, Note_on_c, 9, 44, 87
6, 504188, Note_on_c, 9, 44, 0
6, 505948, Note_on_c, 9, 44, 59
6, 506203, Note_on_c, 9, 44, 0
6, 506783, Note_on_c, 9, 44, 62
6, 507006, Note_on_c, 9, 44, 0
6, 507880, Note_on_c, 9, 44, 53
6, 508302, Note_on_c, 9, 44, 0
6, 509812, Note_on_c, 9, 44, 47
6, 510072, Note_on_c, 9, 44, 0
6, 511720, Note_on_c, 9, 46, 42
6, 512385, Note_on_c, 9, 46, 0
6, 513729, Note_on_c, 9, 44, 39
6, 513949, Note_on_c, 9, 44, 0
6, 515620, Note_on_c, 9, 44, 37
6, 515928, Note_on_c, 9, 44, 0
6, 517585, Note_on_c, 9, 44, 23
6, 517893, Note_on_c, 9, 44, 0
6, 518099, Note_on_c, 9, 36, 51
6, 518182, Note_on_c, 9, 36, 0
6, 519418, Note_on_c, 9, 44, 47
6, 519780, Note_on_c, 9, 44, 0
6, 521333, Note_on_c, 9, 44, 44
6, 521589, Note_on_c, 9, 44, 0
6, 523260, Note_on_c, 9, 44, 36
6, 523572, Note_on_c, 9, 44, 0
6, 525161, Note_on_c, 9, 44, 38
6, 525396, Note_on_c, 9, 44, 0
6, 525728, Note_on_c, 9, 39, 58
6, 525943, Note_on_c, 9, 39, 0
6, 526101, Note_on_c, 9, 39, 38
6, 526194, Note_on_c, 9, 39, 0
6, 527070, Note_on_c, 9, 44, 34
6, 527365, Note_on_c, 9, 44, 0
6, 528940, Note_on_c, 9, 44, 43
6, 529346, Note_on_c, 9, 44, 0
6, 530856, Note_on_c, 9, 39, 38
6, 531141, Note_on_c, 9, 39, 0
6, 531505, Note_on_c, 9, 39, 40
6, 531677, Note_on_c, 9, 39, 0
6, 532838, Note_on_c, 9, 44, 57
6, 533069, Note_on_c, 9, 44, 0
6, 534812, Note_on_c, 9, 44, 39
6, 535136, Note_on_c, 9, 44, 0
6, 536395, Note_on_c, 9, 39, 53
6, 536559, Note_on_c, 9, 39, 0
6, 536705, Note_on_c, 9, 39, 52
6, 536975, Note_on_c, 9, 39, 0
6, 537331, Note_on_c, 9, 44, 57
6, 537547, Note_on_c, 9, 44, 0
6, 537732, Note_on_c, 9, 44, 36
6, 537946, Note_on_c, 9, 44, 0
6, 540565, Note_on_c, 9, 39, 21
6, 540711, Note_on_c, 9, 39, 0
6, 542389, Note_on_c, 9, 44, 48
6, 542664, Note_on_c, 9, 44, 0
6, 544396, Note_on_c, 9, 46, 50
6, 544648, Note_on_c, 9, 46, 0
6, 546314, Note_on_c, 9, 44, 52
6, 546474, Note_on_c, 9, 44, 0
6, 548292, Note_on_c, 9, 44, 45
6, 548480, Note_on_c, 9, 44, 0
6, 550117, Note_on_c, 9, 44, 37
6, 550252, Note_on_c, 9, 44, 0
6, 550595, Note_on_c, 9, 39, 48
6, 550811, Note_on_c, 9, 39, 0
6, 551013, Note_on_c, 9, 39, 37
6, 551256, Note_on_c, 9, 39, 0
6, 552009, Note_on_c, 9, 44, 34
6, 552224, Note_on_c, 9, 44, 0
6, 553950, Note_on_c, 9, 44, 37
6, 554154, Note_on_c, 9, 44, 0
6, 555849, Note_on_c, 9, 46, 39
6, 556248, Note_on_c, 9, 46, 0
6, 557761, Note_on_c, 9, 44, 56
6, 557937, Note_on_c, 9, 44, 0
6, 559321, Note_on_c, 9, 39, 48
6, 559504, Note_on_c, 9, 39, 0
6, 559687, Note_on_c, 9, 39, 36
6, 559849, Note_on_c, 9, 39, 0
6, 561600, Note_on_c, 9, 46, 55
6, 561789, Note_on_c, 9, 46, 0
6, 563518, Note_on_c, 9, 44, 49
6, 563670, Note_on_c, 9, 44, 0
6, 565465, Note_on_c, 9, 44, 60
6, 565631, Note_on_c, 9, 44, 0
6, 575012, Note_on_c, 9, 44, 59
6, 575266, Note_on_c, 9, 44, 0
6, 578860, Note_on_c, 9, 44, 62
6, 579049, Note_on_c, 9, 44, 0
6, 580761, Note_on_c, 9, 39, 43
6, 581161, Note_on_c, 9, 39, 0
6, 582702, Note_on_c, 9, 44, 46
6, 582968, Note_on_c, 9, 44, 0
6, 586200, Note_on_c, 9, 36, 48
6, 586286, Note_on_c, 9, 36, 0
6, 587561, Note_on_c, 9, 44, 51
6, 587767, Note_on_c, 9, 44, 0
6, 590377, Note_on_c, 9, 44, 52
6, 590570, Note_on_c, 9, 44, 0
6, 592266, Note_on_c, 9, 44, 51
6, 592428, Note_on_c, 9, 44, 0
6, 594273, Note_on_c, 9, 44, 55
6, 594441, Note_on_c, 9, 44, 0
6, 596164, Note_on_c, 9, 46, 46
6, 596380, Note_on_c, 9, 46, 0
6, 598108, Note_on_c, 9, 44, 58
6, 598291, Note_on_c, 9, 44, 0
6, 600053, Note_on_c, 9, 44, 58
6, 600218, Note_on_c, 9, 44, 0
6, 602006, Note_on_c, 9, 44, 56
6, 602244, Note_on_c, 9, 44, 0
6, 603885, Note_on_c, 9, 44, 62
6, 604126, Note_on_c, 9, 44, 0
6, 604858, Note_on_c, 9, 44, 62
6, 605060, Note_on_c, 9, 44, 0
6, 607753, Note_on_c, 9, 44, 52
6, 607853, Note_on_c, 9, 44, 0
6, 608361, Note_on_c, 9, 36, 49
6, 608527, Note_on_c, 9, 36, 0
6, 608727, Note_on_c, 9, 36, 40
6, 608870, Note_on_c, 9, 36, 0
6, 609717, Note_on_c, 9, 44, 44
6, 609942, Note_on_c, 9, 44, 0
6, 613548, Note_on_c, 9, 44, 59
6, 613738, Note_on_c, 9, 44, 0
6, 615478, Note_on_c, 9, 44, 53
6, 615649, Note_on_c, 9, 44, 0
6, 617313, Note_on_c, 9, 44, 55
6, 617484, Note_on_c, 9, 44, 0
6, 619235, Note_on_c, 9, 59, 54
6, 619241, Note_on_c, 9, 44, 45
6, 619393, Note_on_c, 9, 59, 0
6, 619464, Note_on_c, 9, 44, 0
6, 620889, Note_on_c, 9, 44, 37
6, 621003, Note_on_c, 9, 44, 0
6, 621257, Note_on_c, 9, 59, 60
6, 621263, Note_on_c, 9, 44, 40
6, 621434, Note_on_c, 9, 59, 0
6, 621575, Note_on_c, 9, 44, 0
6, 623100, Note_on_c, 9, 59, 52
6, 623110, Note_on_c, 9, 44, 39
6, 623191, Note_on_c, 9, 59, 0
6, 623324, Note_on_c, 9, 44, 0
6, 624951, Note_on_c, 9, 59, 60
6, 625001, Note_on_c, 9, 44, 43
6, 625034, Note_on_c, 9, 59, 0
6, 625186, Note_on_c, 9, 44, 0
6, 626914, Note_on_c, 9, 59, 58
6, 626931, Note_on_c, 9, 44, 46
6, 626985, Note_on_c, 9, 59, 0
6, 627124, Note_on_c, 9, 44, 0
6, 628533, Note_on_c, 9, 36, 65
6, 628693, Note_on_c, 9, 36, 0
6, 629439, Note_on_c, 9, 36, 56
6, 629554, Note_on_c, 9, 36, 0
6, 629774, Note_on_c, 9, 59, 48
6, 629864, Note_on_c, 9, 59, 0
6, 634523, Note_on_c, 9, 44, 46
6, 634729, Note_on_c, 9, 44, 0
6, 636495, Note_on_c, 9, 44, 44
6, 636726, Note_on_c, 9, 44, 0
6, 638359, Note_on_c, 9, 44, 48
6, 638581, Note_on_c, 9, 44, 0
6, 640301, Note_on_c, 9, 46, 37
6, 640582, Note_on_c, 9, 46, 0
6, 642290, Note_on_c, 9, 44, 48
6, 642548, Note_on_c, 9, 44, 0
6, 644149, Note_on_c, 9, 44, 38
6, 644276, Note_on_c, 9, 44, 0
6, 645788, Note_on_c, 9, 36, 42
6, 645874, Note_on_c, 9, 36, 0
6, 646154, Note_on_c, 9, 36, 24
6, 646375, Note_on_c, 9, 36, 0
6, 647987, Note_on_c, 9, 44, 52
6, 648236, Note_on_c, 9, 44, 0
6, 649917, Note_on_c, 9, 44, 52
6, 650115, Note_on_c, 9, 44, 0
6, 651525, Note_on_c, 9, 39, 52
6, 651627, Note_on_c, 9, 39, 0
6, 653761, Note_on_c, 9, 44, 57
6, 653959, Note_on_c, 9, 44, 0
6, 657678, Note_on_c, 9, 44, 40
6, 657767, Note_on_c, 9, 44, 0
6, 658252, Note_on_c, 9, 39, 53
6, 658426, Note_on_c, 9, 39, 0
6, 661436, Note_on_c, 9, 44, 49
6, 661565, Note_on_c, 9, 44, 0
6, 663373, Note_on_c, 9, 44, 47
6, 663529, Note_on_c, 9, 44, 0
6, 665390, Note_on_c, 9, 44, 29
6, 665540, Note_on_c, 9, 44, 0
6, 666027, Note_on_c, 9, 39, 53
6, 666172, Note_on_c, 9, 39, 0
6, 667393, Note_on_c, 9, 44, 49
6, 667599, Note_on_c, 9, 44, 0
6, 669282, Note_on_c, 9, 44, 44
6, 669463, Note_on_c, 9, 44, 0
6, 669952, Note_on_c, 9, 39, 37
6, 670027, Note_on_c, 9, 39, 0
6, 671239, Note_on_c, 9, 44, 37
6, 671399, Note_on_c, 9, 44, 0
6, 671799, Note_on_c, 9, 39, 51
6, 671998, Note_on_c, 9, 39, 0
6, 673196, Note_on_c, 9, 44, 32
6, 673367, Note_on_c, 9, 44, 0
6, 673735, Note_on_c, 9, 39, 70
6, 673954, Note_on_c, 9, 39, 0
6, 674669, Note_on_c, 9, 39, 70
6, 674877, Note_on_c, 9, 39, 0
6, 675112, Note_on_c, 9, 44, 33
6, 675308, Note_on_c, 9, 44, 0
6, 676880, Note_on_c, 9, 44, 59
6, 677105, Note_on_c, 9, 44, 0
6, 678840, Note_on_c, 9, 44, 61
6, 679016, Note_on_c, 9, 44, 0
6, 680880, Note_on_c, 9, 39, 67
6, 681198, Note_on_c, 9, 39, 0
6, 682727, Note_on_c, 9, 44, 57
6, 682920, Note_on_c, 9, 44, 0
6, 684674, Note_on_c, 9, 44, 63
6, 684892, Note_on_c, 9, 44, 0
6, 686550, Note_on_c, 9, 44, 60
6, 686771, Note_on_c, 9, 44, 0
6, 688460, Note_on_c, 9, 44, 60
6, 688655, Note_on_c, 9, 44, 0
6, 690323, Note_on_c, 9, 46, 52
6, 690521, Note_on_c, 9, 46, 0
6, 692247, Note_on_c, 9, 44, 54
6, 692401, Note_on_c, 9, 44, 0
6, 694209, Note_on_c, 9, 39, 53
6, 694417, Note_on_c, 9, 39, 0
6, 696147, Note_on_c, 9, 44, 60
6, 696330, Note_on_c, 9, 44, 0
6, 698100, Note_on_c, 9, 44, 63
6, 698298, Note_on_c, 9, 44, 0
6, 700037, Note_on_c, 9, 44, 55
6, 700212, Note_on_c, 9, 44, 0
6, 700680, Note_on_c, 9, 39, 44
6, 700808, Note_on_c, 9, 39, 0
6, 701940, Note_on_c, 9, 44, 59
6, 702111, Note_on_c, 9, 44, 0
6, 703806, Note_on_c, 9, 44, 60
6, 703980, Note_on_c, 9, 44, 0
6, 705740, Note_on_c, 9, 44, 60
6, 705911, Note_on_c, 9, 44, 0
6, 707710, Note_on_c, 9, 44, 43
6, 707872, Note_on_c, 9, 44, 0
6, 708288, Note_on_c, 9, 36, 52
6, 708419, Note_on_c, 9, 36, 0
6, 708690, Note_on_c, 9, 36, 29
6, 708794, Note_on_c, 9, 36, 0
6, 709592, Note_on_c, 9, 44, 47
6, 709780, Note_on_c, 9, 44, 0
6, 711527, Note_on_c, 9, 44, 45
6, 711706, Note_on_c, 9, 44, 0
6, 712155, Note_on_c, 9, 36, 69
6, 712309, Note_on_c, 9, 36, 0
6, 713424, Note_on_c, 9, 44, 56
6, 713611, Note_on_c, 9, 44, 0
6, 715396, Note_on_c, 9, 44, 52
6, 715606, Note_on_c, 9, 44, 0
6, 717317, Note_on_c, 9, 44, 38
6, 717451, Note_on_c, 9, 44, 0
6, 719177, Note_on_c, 9, 44, 49
6, 719337, Note_on_c, 9, 44, 0
6, 719772, Note_on_c, 9, 36, 63
6, 719880, Note_on_c, 9, 36, 0
6, 721155, Note_on_c, 9, 44, 48
6, 721311, Note_on_c, 9, 44, 0
6, 721744, Note_on_c, 9, 36, 65
6, 721927, Note_on_c, 9, 36, 0
6, 722093, Note_on_c, 9, 36, 52
6, 722199, Note_on_c, 9, 36, 0
6, 723054, Note_on_c, 9, 44, 53
6, 723239, Note_on_c, 9, 44, 0
6, 724949, Note_on_c, 9, 44, 53
6, 725165, Note_on_c, 9, 44, 0
6, 726871, Note_on_c, 9, 44, 56
6, 727025, Note_on_c, 9, 44, 0
6, 728749, Note_on_c, 9, 46, 51
6, 728901, Note_on_c, 9, 46, 0
6, 730704, Note_on_c, 9, 44, 46
6, 730960, Note_on_c, 9, 44, 0
6, 731663, Note_on_c, 9, 44, 48
6, 731880, Note_on_c, 9, 44, 0
6, 732670, Note_on_c, 9, 36, 51
6, 732776, Note_on_c, 9, 36, 0
6, 733498, Note_on_c, 9, 36, 57
6, 733608, Note_on_c, 9, 36, 0
6, 734511, Note_on_c, 9, 44, 40
6, 734702, Note_on_c, 9, 44, 0
6, 734702, End_track
7, 0, Start_track
7, 0, End_track
0, 0, End_of_file
