0, 0, Header, 1, 5, 960
1, 0, Start_track
1, 0, Title_t, "My Shining Hour"
1, 0, Text_t, "dougmck@pipeline.com.au\012"
1, 0, Time_signature, 4, 2, 24, 8
1, 0, Key_signature, 0, "major"
1, 0, Tempo, 230769
1, 0, End_track
2, 0, Start_track
2, 0, End_track
3, 0, Start_track
3, 0, Program_c, 0, 0
3, 0, Control_c, 0, 91, 0
3, 0, Control_c, 0, 93, 0
3, 0, Control_c, 0, 64, 127
3, 0, Control_c, 0, 64, 0
3, 10, Note_on_c, 0, 76, 53
3, 49, Note_on_c, 0, 57, 32
3, 52, Note_on_c, 0, 67, 41
3, 70, Note_on_c, 0, 71, 49
3, 88, Note_on_c, 0, 52, 29
3, 123, Note_on_c, 0, 62, 24
3, 454, Control_c, 0, 64, 127
3, 1298, Note_on_c, 0, 67, 0
3, 1519, Note_on_c, 0, 76, 0
3, 1572, Note_on_c, 0, 71, 0
3, 1941, Note_on_c, 0, 77, 90
3, 2735, Note_on_c, 0, 57, 0
3, 2785, Note_on_c, 0, 52, 0
3, 2973, Note_on_c, 0, 62, 0
3, 3158, Note_on_c, 0, 77, 0
3, 3832, Note_on_c, 0, 79, 83
3, 3878, Control_c, 0, 64, 0
3, 3899, Note_on_c, 0, 76, 71
3, 3906, Note_on_c, 0, 71, 89
3, 3913, Note_on_c, 0, 72, 74
3, 3956, Note_on_c, 0, 64, 68
3, 4442, Control_c, 0, 64, 127
3, 4786, Note_on_c, 0, 76, 0
3, 4829, Note_on_c, 0, 79, 0
3, 4839, Note_on_c, 0, 72, 0
3, 4963, Note_on_c, 0, 71, 0
3, 5505, Note_on_c, 0, 64, 0
3, 5776, Control_c, 0, 64, 0
3, 5828, Note_on_c, 0, 64, 36
3, 5846, Note_on_c, 0, 72, 47
3, 5860, Note_on_c, 0, 57, 44
3, 5877, Note_on_c, 0, 67, 49
3, 5971, Note_on_c, 0, 69, 41
3, 6027, Control_c, 0, 64, 127
3, 6638, Note_on_c, 0, 64, 0
3, 6824, Note_on_c, 0, 69, 0
3, 6851, Note_on_c, 0, 57, 0
3, 6854, Note_on_c, 0, 67, 0
3, 6858, Note_on_c, 0, 72, 0
3, 7722, Control_c, 0, 64, 0
3, 7801, Note_on_c, 0, 76, 59
3, 7822, Note_on_c, 0, 65, 46
3, 7861, Note_on_c, 0, 72, 46
3, 7864, Note_on_c, 0, 69, 50
3, 7899, Note_on_c, 0, 64, 42
3, 8177, Control_c, 0, 64, 127
3, 9053, Note_on_c, 0, 65, 0
3, 9134, Note_on_c, 0, 69, 0
3, 9169, Note_on_c, 0, 72, 0
3, 9271, Note_on_c, 0, 76, 0
3, 9426, Note_on_c, 0, 64, 0
3, 9684, Note_on_c, 0, 76, 49
3, 9691, Note_on_c, 0, 62, 37
3, 9740, Note_on_c, 0, 69, 53
3, 9768, Note_on_c, 0, 65, 41
3, 9772, Note_on_c, 0, 72, 45
3, 10260, Note_on_c, 0, 72, 0
3, 10288, Note_on_c, 0, 69, 0
3, 10408, Note_on_c, 0, 65, 0
3, 10508, Note_on_c, 0, 62, 0
3, 10701, Note_on_c, 0, 76, 0
3, 11672, Control_c, 0, 64, 0
3, 11732, Note_on_c, 0, 76, 57
3, 11746, Note_on_c, 0, 73, 35
3, 11771, Note_on_c, 0, 69, 57
3, 11781, Note_on_c, 0, 65, 44
3, 11862, Note_on_c, 0, 64, 46
3, 12271, Control_c, 0, 64, 127
3, 12749, Note_on_c, 0, 69, 0
3, 12756, Note_on_c, 0, 64, 0
3, 12802, Note_on_c, 0, 73, 0
3, 12918, Note_on_c, 0, 65, 0
3, 13155, Note_on_c, 0, 76, 0
3, 13362, Control_c, 0, 64, 0
3, 13373, Note_on_c, 0, 65, 41
3, 13380, Note_on_c, 0, 74, 55
3, 13415, Note_on_c, 0, 68, 33
3, 13478, Note_on_c, 0, 71, 41
3, 13503, Note_on_c, 0, 62, 24
3, 13520, Note_on_c, 0, 64, 30
3, 13721, Control_c, 0, 64, 127
3, 14133, Note_on_c, 0, 64, 0
3, 14383, Note_on_c, 0, 62, 0
3, 14534, Control_c, 0, 64, 0
3, 14601, Note_on_c, 0, 47, 32
3, 14695, Note_on_c, 0, 53, 32
3, 14882, Note_on_c, 0, 53, 0
3, 14999, Note_on_c, 0, 47, 0
3, 15235, Note_on_c, 0, 65, 0
3, 15474, Note_on_c, 0, 68, 0
3, 15519, Note_on_c, 0, 71, 0
3, 15579, Note_on_c, 0, 52, 36
3, 15621, Control_c, 0, 64, 127
3, 15628, Note_on_c, 0, 48, 38
3, 15762, Note_on_c, 0, 74, 0
3, 17404, Note_on_c, 0, 76, 99
3, 17939, Note_on_c, 0, 76, 0
3, 18372, Note_on_c, 0, 77, 103
3, 18699, Note_on_c, 0, 48, 0
3, 18713, Note_on_c, 0, 52, 0
3, 18956, Note_on_c, 0, 77, 0
3, 19330, Control_c, 0, 64, 0
3, 19372, Note_on_c, 0, 72, 78
3, 19376, Note_on_c, 0, 79, 87
3, 19383, Note_on_c, 0, 69, 81
3, 19404, Note_on_c, 0, 75, 53
3, 19411, Note_on_c, 0, 64, 71
3, 19516, Note_on_c, 0, 75, 0
3, 19889, Control_c, 0, 64, 127
3, 20111, Note_on_c, 0, 79, 0
3, 20171, Note_on_c, 0, 72, 0
3, 20312, Note_on_c, 0, 69, 0
3, 20656, Note_on_c, 0, 64, 0
3, 21097, Control_c, 0, 64, 0
3, 21199, Note_on_c, 0, 67, 49
3, 21217, Note_on_c, 0, 72, 50
3, 21248, Note_on_c, 0, 64, 51
3, 21269, Note_on_c, 0, 57, 46
3, 21300, Note_on_c, 0, 69, 46
3, 21522, Control_c, 0, 64, 127
3, 21973, Note_on_c, 0, 64, 0
3, 22054, Note_on_c, 0, 57, 0
3, 22184, Note_on_c, 0, 69, 0
3, 22201, Note_on_c, 0, 67, 0
3, 22328, Note_on_c, 0, 72, 0
3, 23106, Control_c, 0, 64, 0
3, 23113, Note_on_c, 0, 65, 48
3, 23138, Note_on_c, 0, 67, 64
3, 23184, Note_on_c, 0, 64, 54
3, 23740, Control_c, 0, 64, 127
3, 24250, Note_on_c, 0, 67, 0
3, 24370, Note_on_c, 0, 64, 0
3, 24419, Note_on_c, 0, 65, 0
3, 25032, Note_on_c, 0, 62, 46
3, 25074, Note_on_c, 0, 65, 55
3, 25866, Note_on_c, 0, 65, 0
3, 26052, Note_on_c, 0, 62, 0
3, 26880, Control_c, 0, 64, 0
3, 26954, Note_on_c, 0, 62, 38
3, 26968, Note_on_c, 0, 47, 40
3, 27063, Note_on_c, 0, 57, 24
3, 27443, Control_c, 0, 64, 127
3, 27735, Note_on_c, 0, 47, 0
3, 27802, Note_on_c, 0, 57, 0
3, 28288, Note_on_c, 0, 62, 0
3, 28826, Control_c, 0, 64, 0
3, 28925, Note_on_c, 0, 56, 42
3, 28932, Note_on_c, 0, 67, 48
3, 28946, Note_on_c, 0, 40, 30
3, 28988, Note_on_c, 0, 62, 43
3, 28999, Note_on_c, 0, 52, 20
3, 29527, Control_c, 0, 64, 127
3, 29766, Note_on_c, 0, 62, 0
3, 29830, Note_on_c, 0, 67, 0
3, 29985, Note_on_c, 0, 56, 0
3, 30287, Note_on_c, 0, 40, 0
3, 30378, Note_on_c, 0, 52, 0
3, 30548, Control_c, 0, 64, 0
3, 30695, Note_on_c, 0, 55, 32
3, 30748, Note_on_c, 0, 45, 36
3, 30759, Note_on_c, 0, 60, 40
3, 30939, Control_c, 0, 64, 127
3, 31037, Note_on_c, 0, 55, 0
3, 31216, Note_on_c, 0, 45, 0
3, 31396, Note_on_c, 0, 60, 0
3, 32670, Note_on_c, 0, 64, 38
3, 32733, Note_on_c, 0, 60, 39
3, 32758, Note_on_c, 0, 59, 28
3, 33096, Control_c, 0, 64, 0
3, 33444, Note_on_c, 0, 72, 80
3, 33684, Note_on_c, 0, 72, 0
3, 34183, Note_on_c, 0, 74, 79
3, 34437, Note_on_c, 0, 74, 0
3, 34690, Note_on_c, 0, 76, 95
3, 34711, Control_c, 0, 64, 127
3, 35225, Note_on_c, 0, 59, 0
3, 35366, Note_on_c, 0, 64, 0
3, 35686, Note_on_c, 0, 69, 50
3, 36091, Note_on_c, 0, 69, 0
3, 36267, Note_on_c, 0, 60, 0
3, 36619, Note_on_c, 0, 69, 33
3, 36957, Note_on_c, 0, 69, 0
3, 37584, Note_on_c, 0, 69, 50
3, 37682, Note_on_c, 0, 76, 0
3, 37901, Note_on_c, 0, 69, 0
3, 38460, Control_c, 0, 64, 0
3, 38471, Note_on_c, 0, 65, 44
3, 38538, Note_on_c, 0, 71, 49
3, 38538, Note_on_c, 0, 74, 34
3, 38541, Note_on_c, 0, 69, 42
3, 38573, Note_on_c, 0, 64, 43
3, 39442, Note_on_c, 0, 64, 0
3, 39523, Note_on_c, 0, 62, 34
3, 40122, Note_on_c, 0, 74, 0
3, 40241, Note_on_c, 0, 69, 0
3, 40277, Note_on_c, 0, 65, 0
3, 40312, Note_on_c, 0, 71, 0
3, 40442, Note_on_c, 0, 65, 20
3, 40453, Note_on_c, 0, 74, 45
3, 40456, Note_on_c, 0, 62, 0
3, 40502, Note_on_c, 0, 64, 46
3, 40519, Note_on_c, 0, 69, 24
3, 40590, Note_on_c, 0, 71, 17
3, 41262, Note_on_c, 0, 69, 0
3, 41280, Note_on_c, 0, 71, 0
3, 41343, Control_c, 0, 64, 127
3, 41375, Note_on_c, 0, 64, 0
3, 41445, Note_on_c, 0, 65, 0
3, 41480, Note_on_c, 0, 74, 0
3, 41516, Note_on_c, 0, 62, 30
3, 42301, Control_c, 0, 64, 0
3, 42304, Note_on_c, 0, 62, 0
3, 42371, Note_on_c, 0, 65, 34
3, 42413, Note_on_c, 0, 64, 42
3, 42417, Note_on_c, 0, 74, 45
3, 42427, Note_on_c, 0, 68, 38
3, 42473, Note_on_c, 0, 70, 44
3, 43290, Note_on_c, 0, 64, 0
3, 43469, Note_on_c, 0, 62, 24
3, 44008, Note_on_c, 0, 74, 0
3, 44142, Note_on_c, 0, 65, 0
3, 44163, Note_on_c, 0, 68, 0
3, 44307, Note_on_c, 0, 62, 0
3, 44374, Note_on_c, 0, 64, 42
3, 44384, Note_on_c, 0, 74, 57
3, 44395, Note_on_c, 0, 65, 45
3, 44413, Control_c, 0, 64, 127
3, 44416, Note_on_c, 0, 68, 59
3, 45183, Note_on_c, 0, 64, 0
3, 45356, Note_on_c, 0, 62, 40
3, 45381, Note_on_c, 0, 74, 0
3, 45469, Note_on_c, 0, 65, 0
3, 45873, Note_on_c, 0, 70, 0
3, 45923, Note_on_c, 0, 68, 0
3, 45930, Note_on_c, 0, 62, 0
3, 46261, Control_c, 0, 64, 0
3, 46289, Note_on_c, 0, 64, 55
3, 46306, Note_on_c, 0, 72, 53
3, 46314, Note_on_c, 0, 67, 54
3, 46342, Note_on_c, 0, 60, 41
3, 46395, Note_on_c, 0, 69, 50
3, 47032, Control_c, 0, 64, 127
3, 47419, Note_on_c, 0, 72, 0
3, 47521, Note_on_c, 0, 69, 0
3, 47549, Note_on_c, 0, 64, 0
3, 47619, Note_on_c, 0, 67, 0
3, 48021, Note_on_c, 0, 60, 0
3, 48169, Note_on_c, 0, 74, 78
3, 48193, Note_on_c, 0, 67, 80
3, 48204, Note_on_c, 0, 62, 56
3, 48211, Note_on_c, 0, 64, 77
3, 48228, Control_c, 0, 64, 0
3, 48239, Note_on_c, 0, 69, 67
3, 48542, Control_c, 0, 64, 127
3, 48711, Note_on_c, 0, 62, 0
3, 48827, Note_on_c, 0, 64, 0
3, 48996, Note_on_c, 0, 67, 0
3, 49003, Note_on_c, 0, 69, 0
3, 49066, Note_on_c, 0, 74, 0
3, 50101, Control_c, 0, 64, 0
3, 50111, Note_on_c, 0, 65, 65
3, 50118, Note_on_c, 0, 76, 74
3, 50129, Note_on_c, 0, 60, 55
3, 50136, Note_on_c, 0, 54, 62
3, 50150, Note_on_c, 0, 68, 75
3, 50157, Note_on_c, 0, 72, 62
3, 50816, Control_c, 0, 64, 127
3, 51065, Note_on_c, 0, 65, 0
3, 51245, Note_on_c, 0, 60, 0
3, 51358, Note_on_c, 0, 72, 0
3, 51421, Note_on_c, 0, 68, 0
3, 51689, Note_on_c, 0, 76, 0
3, 52055, Note_on_c, 0, 72, 61
3, 52072, Note_on_c, 0, 68, 57
3, 52076, Note_on_c, 0, 60, 44
3, 52100, Note_on_c, 0, 64, 53
3, 52393, Note_on_c, 0, 60, 0
3, 52586, Note_on_c, 0, 72, 0
3, 52643, Note_on_c, 0, 64, 0
3, 52674, Note_on_c, 0, 54, 0
3, 52716, Note_on_c, 0, 68, 0
3, 53881, Control_c, 0, 64, 0
3, 53895, Note_on_c, 0, 56, 67
3, 53906, Note_on_c, 0, 60, 65
3, 53910, Note_on_c, 0, 67, 62
3, 53952, Note_on_c, 0, 62, 47
3, 54012, Note_on_c, 0, 55, 51
3, 54804, Control_c, 0, 64, 127
3, 55416, Note_on_c, 0, 67, 0
3, 55466, Note_on_c, 0, 56, 0
3, 55501, Note_on_c, 0, 55, 0
3, 55504, Note_on_c, 0, 60, 0
3, 55666, Note_on_c, 0, 62, 0
3, 55782, Control_c, 0, 64, 0
3, 55881, Note_on_c, 0, 56, 50
3, 55927, Note_on_c, 0, 60, 36
3, 55941, Note_on_c, 0, 65, 35
3, 55972, Note_on_c, 0, 43, 42
3, 55986, Note_on_c, 0, 53, 30
3, 56018, Note_on_c, 0, 62, 35
3, 56275, Control_c, 0, 64, 127
3, 56771, Note_on_c, 0, 65, 0
3, 56905, Note_on_c, 0, 62, 0
3, 57028, Note_on_c, 0, 53, 0
3, 57071, Note_on_c, 0, 60, 0
3, 57289, Note_on_c, 0, 56, 0
3, 57592, Control_c, 0, 64, 0
3, 57768, Note_on_c, 0, 56, 33
3, 57792, Note_on_c, 0, 63, 38
3, 57813, Note_on_c, 0, 53, 30
3, 57849, Note_on_c, 0, 59, 46
3, 58120, Control_c, 0, 64, 127
3, 58348, Note_on_c, 0, 43, 0
3, 58545, Note_on_c, 0, 53, 0
3, 58750, Note_on_c, 0, 59, 0
3, 58771, Note_on_c, 0, 56, 0
3, 59566, Control_c, 0, 64, 0
3, 59665, Note_on_c, 0, 60, 45
3, 59686, Note_on_c, 0, 44, 38
3, 59700, Note_on_c, 0, 54, 32
3, 59718, Note_on_c, 0, 57, 43
3, 60027, Control_c, 0, 64, 127
3, 60555, Note_on_c, 0, 57, 0
3, 60601, Note_on_c, 0, 54, 0
3, 60622, Note_on_c, 0, 60, 0
3, 60890, Note_on_c, 0, 44, 0
3, 61009, Control_c, 0, 64, 0
3, 61066, Note_on_c, 0, 58, 48
3, 61185, Note_on_c, 0, 43, 35
3, 61214, Note_on_c, 0, 53, 28
3, 61502, Control_c, 0, 64, 127
3, 61984, Note_on_c, 0, 43, 0
3, 62027, Note_on_c, 0, 58, 0
3, 62196, Note_on_c, 0, 53, 0
3, 62227, Note_on_c, 0, 63, 0
3, 63347, Note_on_c, 0, 67, 78
3, 63371, Note_on_c, 0, 60, 32
3, 63519, Note_on_c, 0, 60, 0
3, 63544, Control_c, 0, 64, 0
3, 63600, Note_on_c, 0, 67, 0
3, 64336, Note_on_c, 0, 69, 64
3, 64512, Note_on_c, 0, 69, 0
3, 65321, Control_c, 0, 64, 127
3, 65335, Note_on_c, 0, 72, 49
3, 65360, Note_on_c, 0, 60, 26
3, 65381, Note_on_c, 0, 58, 25
3, 65413, Note_on_c, 0, 52, 27
3, 65434, Note_on_c, 0, 68, 33
3, 65554, Note_on_c, 0, 68, 0
3, 65761, Note_on_c, 0, 60, 0
3, 65814, Note_on_c, 0, 72, 0
3, 66096, Note_on_c, 0, 58, 0
3, 66698, Note_on_c, 0, 52, 0
3, 66941, Control_c, 0, 64, 0
3, 67194, Note_on_c, 0, 58, 49
3, 67212, Note_on_c, 0, 69, 48
3, 67254, Note_on_c, 0, 61, 40
3, 67264, Note_on_c, 0, 64, 40
3, 67405, Control_c, 0, 64, 127
3, 67733, Note_on_c, 0, 69, 0
3, 67838, Note_on_c, 0, 58, 0
3, 67944, Note_on_c, 0, 64, 0
3, 68236, Note_on_c, 0, 61, 0
3, 68877, Control_c, 0, 64, 0
3, 69091, Note_on_c, 0, 67, 41
3, 69141, Note_on_c, 0, 60, 45
3, 69148, Note_on_c, 0, 57, 43
3, 69179, Note_on_c, 0, 64, 36
3, 69193, Note_on_c, 0, 41, 36
3, 69246, Note_on_c, 0, 52, 26
3, 69999, Control_c, 0, 64, 127
3, 70278, Note_on_c, 0, 64, 0
3, 70570, Note_on_c, 0, 67, 0
3, 70651, Note_on_c, 0, 57, 0
3, 70665, Note_on_c, 0, 60, 0
3, 71101, Control_c, 0, 64, 0
3, 71158, Note_on_c, 0, 64, 50
3, 71179, Note_on_c, 0, 52, 0
3, 71193, Note_on_c, 0, 57, 38
3, 71224, Note_on_c, 0, 60, 38
3, 71228, Note_on_c, 0, 50, 42
3, 71668, Control_c, 0, 64, 127
3, 72449, Note_on_c, 0, 57, 0
3, 72488, Note_on_c, 0, 60, 0
3, 72731, Note_on_c, 0, 50, 0
3, 72847, Note_on_c, 0, 64, 0
3, 72896, Control_c, 0, 64, 0
3, 73020, Note_on_c, 0, 49, 45
3, 73023, Note_on_c, 0, 61, 51
3, 73030, Note_on_c, 0, 57, 48
3, 73576, Control_c, 0, 64, 127
3, 74160, Note_on_c, 0, 57, 0
3, 74371, Note_on_c, 0, 61, 0
3, 74385, Note_on_c, 0, 49, 0
3, 74487, Note_on_c, 0, 57, 55
3, 74516, Control_c, 0, 64, 0
3, 74575, Note_on_c, 0, 62, 54
3, 74646, Note_on_c, 0, 50, 41
3, 74804, Note_on_c, 0, 57, 0
3, 74910, Note_on_c, 0, 62, 0
3, 75082, Note_on_c, 0, 50, 0
3, 75223, Note_on_c, 0, 48, 31
3, 75371, Note_on_c, 0, 48, 0
3, 75899, Control_c, 0, 64, 127
3, 76004, Note_on_c, 0, 48, 41
3, 76043, Note_on_c, 0, 41, 0
3, 76395, Control_c, 0, 64, 0
3, 76772, Note_on_c, 0, 48, 0
3, 76940, Note_on_c, 0, 56, 57
3, 76958, Note_on_c, 0, 60, 55
3, 77014, Note_on_c, 0, 41, 39
3, 77102, Control_c, 0, 64, 127
3, 77208, Note_on_c, 0, 56, 0
3, 77324, Note_on_c, 0, 60, 0
3, 77374, Note_on_c, 0, 41, 0
3, 78866, Note_on_c, 0, 84, 73
3, 78876, Note_on_c, 0, 56, 35
3, 78890, Note_on_c, 0, 63, 45
3, 78908, Note_on_c, 0, 60, 44
3, 78915, Note_on_c, 0, 72, 66
3, 79201, Note_on_c, 0, 72, 0
3, 79299, Note_on_c, 0, 84, 0
3, 79443, Note_on_c, 0, 60, 0
3, 79464, Note_on_c, 0, 56, 0
3, 79475, Note_on_c, 0, 63, 0
3, 79809, Note_on_c, 0, 86, 79
3, 79813, Note_on_c, 0, 56, 46
3, 79816, Note_on_c, 0, 63, 57
3, 79830, Note_on_c, 0, 74, 80
3, 79841, Note_on_c, 0, 67, 53
3, 79870, Note_on_c, 0, 60, 46
3, 79968, Note_on_c, 0, 67, 0
3, 79989, Control_c, 0, 64, 0
3, 80007, Note_on_c, 0, 74, 0
3, 80010, Note_on_c, 0, 60, 0
3, 80049, Note_on_c, 0, 86, 0
3, 80077, Note_on_c, 0, 63, 0
3, 80105, Note_on_c, 0, 56, 0
3, 80841, Control_c, 0, 64, 127
3, 81640, Note_on_c, 0, 67, 57
3, 81654, Note_on_c, 0, 56, 57
3, 81658, Note_on_c, 0, 84, 73
3, 81686, Note_on_c, 0, 62, 44
3, 81689, Note_on_c, 0, 72, 51
3, 81830, Note_on_c, 0, 62, 0
3, 81837, Note_on_c, 0, 72, 0
3, 81841, Note_on_c, 0, 67, 0
3, 81943, Note_on_c, 0, 56, 0
3, 81946, Note_on_c, 0, 84, 0
3, 83118, Note_on_c, 0, 91, 74
3, 83129, Control_c, 0, 64, 0
3, 83157, Note_on_c, 0, 90, 58
3, 83178, Note_on_c, 0, 79, 57
3, 83192, Note_on_c, 0, 56, 73
3, 83195, Note_on_c, 0, 67, 72
3, 83199, Note_on_c, 0, 62, 64
3, 83203, Note_on_c, 0, 86, 63
3, 83315, Note_on_c, 0, 90, 0
3, 83565, Note_on_c, 0, 86, 0
3, 83576, Note_on_c, 0, 62, 0
3, 83580, Note_on_c, 0, 67, 0
3, 83636, Note_on_c, 0, 91, 0
3, 83650, Note_on_c, 0, 56, 0
3, 83678, Control_c, 0, 64, 127
3, 83703, Note_on_c, 0, 79, 0
3, 84276, Control_c, 0, 64, 0
3, 84445, Note_on_c, 0, 88, 71
3, 84449, Note_on_c, 0, 76, 74
3, 84467, Note_on_c, 0, 84, 72
3, 84470, Note_on_c, 0, 62, 69
3, 84484, Note_on_c, 0, 56, 77
3, 84488, Note_on_c, 0, 67, 82
3, 85043, Control_c, 0, 64, 127
3, 85691, Note_on_c, 0, 76, 0
3, 85730, Note_on_c, 0, 84, 0
3, 85755, Note_on_c, 0, 67, 0
3, 85769, Note_on_c, 0, 62, 0
3, 85843, Note_on_c, 0, 88, 0
3, 86022, Note_on_c, 0, 56, 0
3, 86322, Control_c, 0, 64, 0
3, 86441, Note_on_c, 0, 61, 57
3, 86448, Note_on_c, 0, 89, 69
3, 86459, Note_on_c, 0, 85, 60
3, 86462, Note_on_c, 0, 66, 69
3, 86466, Note_on_c, 0, 55, 62
3, 86483, Note_on_c, 0, 77, 64
3, 86965, Control_c, 0, 64, 127
3, 87219, Note_on_c, 0, 89, 0
3, 87349, Note_on_c, 0, 77, 0
3, 87620, Note_on_c, 0, 85, 0
3, 87655, Note_on_c, 0, 55, 0
3, 87694, Note_on_c, 0, 66, 0
3, 88152, Note_on_c, 0, 61, 0
3, 88198, Control_c, 0, 64, 0
3, 88384, Note_on_c, 0, 65, 55
3, 88391, Note_on_c, 0, 54, 49
3, 88398, Note_on_c, 0, 60, 48
3, 88412, Note_on_c, 0, 75, 56
3, 88898, Control_c, 0, 64, 127
3, 88930, Note_on_c, 0, 87, 1
3, 89546, Note_on_c, 0, 65, 0
3, 89550, Note_on_c, 0, 60, 0
3, 89641, Note_on_c, 0, 87, 0
3, 89719, Note_on_c, 0, 75, 0
3, 89986, Note_on_c, 0, 54, 0
3, 89997, Control_c, 0, 64, 0
3, 90264, Note_on_c, 0, 64, 44
3, 90296, Note_on_c, 0, 53, 35
3, 90317, Note_on_c, 0, 88, 54
3, 90352, Note_on_c, 0, 76, 45
3, 90356, Note_on_c, 0, 59, 50
3, 90525, Control_c, 0, 64, 127
3, 90771, Note_on_c, 0, 76, 0
3, 90905, Note_on_c, 0, 88, 0
3, 91197, Note_on_c, 0, 59, 0
3, 91306, Note_on_c, 0, 64, 0
3, 91363, Note_on_c, 0, 53, 0
3, 92468, Control_c, 0, 64, 0
3, 93200, Note_on_c, 0, 62, 71
3, 93207, Note_on_c, 0, 59, 59
3, 93211, Note_on_c, 0, 88, 78
3, 93218, Note_on_c, 0, 55, 60
3, 93235, Note_on_c, 0, 52, 58
3, 93242, Note_on_c, 0, 76, 80
3, 93242, Note_on_c, 0, 83, 77
3, 93503, Control_c, 0, 64, 127
3, 94140, Note_on_c, 0, 76, 0
3, 94168, Note_on_c, 0, 52, 0
3, 94221, Note_on_c, 0, 62, 0
3, 94245, Note_on_c, 0, 55, 0
3, 94266, Note_on_c, 0, 83, 0
3, 94333, Note_on_c, 0, 59, 0
3, 94344, Note_on_c, 0, 88, 0
3, 94671, Note_on_c, 0, 89, 73
3, 94685, Note_on_c, 0, 77, 70
3, 94706, Note_on_c, 0, 84, 68
3, 94706, Note_on_c, 0, 59, 49
3, 94714, Note_on_c, 0, 62, 62
3, 94738, Note_on_c, 0, 52, 48
3, 94784, Note_on_c, 0, 55, 44
3, 94798, Control_c, 0, 64, 0
3, 94883, Note_on_c, 0, 52, 0
3, 94928, Note_on_c, 0, 55, 0
3, 95006, Note_on_c, 0, 77, 0
3, 95041, Note_on_c, 0, 62, 0
3, 95044, Note_on_c, 0, 59, 0
3, 95083, Control_c, 0, 64, 127
3, 95133, Note_on_c, 0, 84, 0
3, 95277, Note_on_c, 0, 89, 0
3, 95474, Control_c, 0, 64, 0
3, 95858, Note_on_c, 0, 62, 22
3, 95896, Note_on_c, 0, 67, 59
3, 95921, Note_on_c, 0, 57, 53
3, 95932, Note_on_c, 0, 63, 59
3, 95967, Note_on_c, 0, 91, 74
3, 96005, Note_on_c, 0, 79, 62
3, 96009, Note_on_c, 0, 86, 67
3, 96283, Control_c, 0, 64, 127
3, 96385, Note_on_c, 0, 91, 0
3, 96396, Note_on_c, 0, 86, 0
3, 96449, Note_on_c, 0, 79, 0
3, 96773, Note_on_c, 0, 63, 0
3, 96843, Note_on_c, 0, 67, 0
3, 96854, Note_on_c, 0, 62, 0
3, 96991, Note_on_c, 0, 57, 0
3, 98001, Note_on_c, 0, 84, 59
3, 98040, Note_on_c, 0, 67, 42
3, 98054, Control_c, 0, 64, 0
3, 98068, Note_on_c, 0, 63, 45
3, 98079, Note_on_c, 0, 72, 28
3, 98093, Note_on_c, 0, 62, 33
3, 98110, Note_on_c, 0, 79, 38
3, 98114, Note_on_c, 0, 57, 37
3, 98688, Control_c, 0, 64, 127
3, 98832, Note_on_c, 0, 72, 0
3, 98909, Note_on_c, 0, 62, 0
3, 99008, Note_on_c, 0, 57, 0
3, 99015, Note_on_c, 0, 67, 0
3, 99040, Note_on_c, 0, 79, 0
3, 99040, Note_on_c, 0, 63, 0
3, 99082, Note_on_c, 0, 84, 0
3, 99849, Control_c, 0, 64, 0
3, 99962, Note_on_c, 0, 88, 69
3, 99983, Note_on_c, 0, 56, 63
3, 99990, Note_on_c, 0, 77, 64
3, 100001, Note_on_c, 0, 67, 48
3, 100004, Note_on_c, 0, 62, 52
3, 100032, Note_on_c, 0, 84, 40
3, 100771, Control_c, 0, 64, 127
3, 101004, Note_on_c, 0, 77, 0
3, 101127, Note_on_c, 0, 84, 0
3, 101180, Note_on_c, 0, 88, 0
3, 101204, Note_on_c, 0, 62, 0
3, 101282, Note_on_c, 0, 67, 0
3, 101328, Note_on_c, 0, 56, 0
3, 101715, Control_c, 0, 64, 0
3, 101842, Note_on_c, 0, 89, 70
3, 101891, Note_on_c, 0, 67, 55
3, 101894, Note_on_c, 0, 56, 60
3, 101905, Note_on_c, 0, 77, 52
3, 101908, Note_on_c, 0, 62, 51
3, 101954, Note_on_c, 0, 76, 27
3, 102394, Control_c, 0, 64, 127
3, 102862, Note_on_c, 0, 76, 0
3, 102880, Note_on_c, 0, 62, 0
3, 102908, Note_on_c, 0, 77, 0
3, 102936, Note_on_c, 0, 67, 0
3, 103105, Note_on_c, 0, 89, 0
3, 103246, Note_on_c, 0, 56, 0
3, 103482, Control_c, 0, 64, 0
3, 103640, Note_on_c, 0, 91, 69
3, 103654, Note_on_c, 0, 61, 60
3, 103675, Note_on_c, 0, 79, 55
3, 103700, Note_on_c, 0, 55, 55
3, 103711, Note_on_c, 0, 66, 55
3, 104189, Control_c, 0, 64, 127
3, 104390, Note_on_c, 0, 79, 0
3, 104467, Note_on_c, 0, 91, 0
3, 104517, Note_on_c, 0, 66, 0
3, 104605, Note_on_c, 0, 55, 0
3, 104816, Note_on_c, 0, 61, 0
3, 104858, Control_c, 0, 64, 0
3, 105087, Note_on_c, 0, 61, 49
3, 105111, Note_on_c, 0, 64, 60
3, 105119, Note_on_c, 0, 55, 58
3, 105122, Note_on_c, 0, 93, 75
3, 105143, Note_on_c, 0, 88, 63
3, 105147, Note_on_c, 0, 81, 68
3, 105921, Control_c, 0, 64, 127
3, 106076, Note_on_c, 0, 93, 0
3, 106245, Note_on_c, 0, 88, 0
3, 106358, Note_on_c, 0, 81, 0
3, 106889, Note_on_c, 0, 55, 0
3, 106942, Note_on_c, 0, 64, 0
3, 106984, Note_on_c, 0, 61, 0
3, 108533, Control_c, 0, 64, 0
3, 108540, Note_on_c, 0, 84, 77
3, 108575, Note_on_c, 0, 77, 75
3, 108582, Note_on_c, 0, 72, 71
3, 108596, Note_on_c, 0, 74, 78
3, 108600, Note_on_c, 0, 81, 59
3, 109131, Note_on_c, 0, 74, 0
3, 109167, Note_on_c, 0, 81, 0
3, 109167, Control_c, 0, 64, 127
3, 109191, Note_on_c, 0, 84, 0
3, 109332, Note_on_c, 0, 77, 0
3, 109364, Note_on_c, 0, 72, 0
3, 109888, Control_c, 0, 64, 0
3, 109960, Note_on_c, 0, 81, 57
3, 110035, Note_on_c, 0, 69, 60
3, 110077, Note_on_c, 0, 72, 34
3, 110211, Note_on_c, 0, 72, 0
3, 110245, Note_on_c, 0, 81, 0
3, 110290, Note_on_c, 0, 69, 0
3, 111170, Note_on_c, 0, 76, 63
3, 111215, Note_on_c, 0, 65, 50
3, 111222, Note_on_c, 0, 68, 47
3, 111267, Note_on_c, 0, 71, 56
3, 111619, Control_c, 0, 64, 127
3, 112366, Note_on_c, 0, 76, 0
3, 112640, Note_on_c, 0, 65, 0
3, 112721, Note_on_c, 0, 68, 0
3, 112879, Note_on_c, 0, 71, 0
3, 113104, Control_c, 0, 64, 0
3, 113351, Note_on_c, 0, 65, 50
3, 113366, Note_on_c, 0, 55, 45
3, 113373, Note_on_c, 0, 68, 36
3, 113376, Note_on_c, 0, 71, 34
3, 113380, Note_on_c, 0, 74, 53
3, 113636, Control_c, 0, 64, 127
3, 113980, Note_on_c, 0, 55, 0
3, 114073, Note_on_c, 0, 71, 0
3, 114175, Note_on_c, 0, 74, 0
3, 114267, Note_on_c, 0, 68, 0
3, 114288, Note_on_c, 0, 65, 0
3, 114797, Control_c, 0, 64, 0
3, 115192, Note_on_c, 0, 72, 44
3, 115231, Note_on_c, 0, 62, 39
3, 115238, Note_on_c, 0, 67, 44
3, 115242, Note_on_c, 0, 57, 33
3, 115368, Control_c, 0, 64, 127
3, 115400, Note_on_c, 0, 57, 0
3, 116181, Control_c, 0, 64, 0
3, 116273, Note_on_c, 0, 55, 66
3, 116332, Note_on_c, 0, 54, 57
3, 116652, Note_on_c, 0, 54, 0
3, 117160, Control_c, 0, 64, 127
3, 117759, Note_on_c, 0, 67, 0
3, 117801, Note_on_c, 0, 43, 38
3, 117811, Note_on_c, 0, 72, 0
3, 117969, Note_on_c, 0, 62, 0
3, 118068, Note_on_c, 0, 55, 0
3, 118254, Note_on_c, 0, 43, 0
3, 119029, Control_c, 0, 64, 0
3, 119067, Note_on_c, 0, 43, 44
3, 119666, Control_c, 0, 64, 127
3, 120508, Note_on_c, 0, 31, 44
3, 121665, Note_on_c, 0, 31, 0
3, 121932, Note_on_c, 0, 31, 47
3, 122010, Note_on_c, 0, 43, 0
3, 122342, Note_on_c, 0, 31, 0
3, 122880, Note_on_c, 0, 76, 60
3, 122880, Note_on_c, 0, 71, 46
3, 122880, Note_on_c, 0, 69, 39
3, 122880, Note_on_c, 0, 57, 35
3, 122880, Note_on_c, 0, 62, 26
3, 122880, Note_on_c, 0, 52, 32
3, 122880, Control_c, 0, 64, 0
3, 124260, Control_c, 0, 64, 127
3, 124591, Control_c, 0, 64, 0
3, 125024, Control_c, 0, 64, 127
3, 126002, Note_on_c, 0, 57, 0
3, 126004, Note_on_c, 0, 69, 0
3, 126062, Note_on_c, 0, 52, 0
3, 126153, Note_on_c, 0, 62, 0
3, 126179, Note_on_c, 0, 71, 0
3, 126356, Note_on_c, 0, 76, 0
3, 128247, Note_on_c, 0, 89, 60
3, 128685, Note_on_c, 0, 64, 52
3, 128694, Control_c, 0, 64, 0
3, 128696, Note_on_c, 0, 60, 49
3, 128720, Note_on_c, 0, 91, 89
3, 128727, Note_on_c, 0, 89, 0
3, 128763, Note_on_c, 0, 55, 30
3, 128777, Note_on_c, 0, 59, 39
3, 128895, Note_on_c, 0, 59, 0
3, 128907, Note_on_c, 0, 64, 0
3, 128976, Note_on_c, 0, 91, 0
3, 128979, Note_on_c, 0, 60, 0
3, 129008, Note_on_c, 0, 55, 0
3, 130286, Note_on_c, 0, 84, 55
3, 130523, Note_on_c, 0, 84, 0
3, 130655, Note_on_c, 0, 60, 24
3, 130666, Note_on_c, 0, 64, 30
3, 130669, Note_on_c, 0, 57, 37
3, 130675, Note_on_c, 0, 88, 62
3, 130707, Note_on_c, 0, 53, 24
3, 130975, Note_on_c, 0, 88, 0
3, 131029, Note_on_c, 0, 64, 0
3, 131067, Note_on_c, 0, 60, 0
3, 131093, Note_on_c, 0, 57, 0
3, 131159, Note_on_c, 0, 53, 0
3, 131576, Note_on_c, 0, 88, 58
3, 131599, Note_on_c, 0, 64, 31
3, 131620, Note_on_c, 0, 60, 31
3, 131646, Note_on_c, 0, 57, 34
3, 131674, Note_on_c, 0, 53, 19
3, 131827, Note_on_c, 0, 88, 0
3, 131885, Note_on_c, 0, 64, 0
3, 131980, Note_on_c, 0, 60, 0
3, 132012, Note_on_c, 0, 57, 0
3, 132029, Note_on_c, 0, 53, 0
3, 132478, Note_on_c, 0, 88, 63
3, 132492, Note_on_c, 0, 64, 30
3, 132539, Note_on_c, 0, 60, 30
3, 132556, Note_on_c, 0, 57, 35
3, 132573, Note_on_c, 0, 53, 14
3, 132985, Note_on_c, 0, 88, 0
3, 133068, Note_on_c, 0, 87, 42
3, 133261, Note_on_c, 0, 64, 0
3, 133345, Note_on_c, 0, 60, 0
3, 133354, Note_on_c, 0, 53, 0
3, 133385, Note_on_c, 0, 87, 0
3, 133429, Note_on_c, 0, 57, 0
3, 133449, Note_on_c, 0, 88, 48
3, 133489, Control_c, 0, 64, 127
3, 133581, Control_c, 0, 64, 0
3, 133817, Note_on_c, 0, 88, 0
3, 134048, Note_on_c, 0, 91, 41
3, 134347, Note_on_c, 0, 91, 0
3, 136297, Note_on_c, 0, 59, 24
3, 136335, Note_on_c, 0, 64, 24
3, 136360, Note_on_c, 0, 53, 17
3, 136366, Note_on_c, 0, 79, 54
3, 136870, Note_on_c, 0, 79, 0
3, 136907, Note_on_c, 0, 78, 37
3, 137227, Note_on_c, 0, 78, 0
3, 137336, Note_on_c, 0, 79, 36
3, 137604, Note_on_c, 0, 79, 0
3, 137743, Note_on_c, 0, 53, 0
3, 137751, Note_on_c, 0, 59, 0
3, 137861, Note_on_c, 0, 89, 73
3, 137887, Note_on_c, 0, 64, 0
3, 138298, Note_on_c, 0, 88, 64
3, 138339, Note_on_c, 0, 89, 0
3, 138776, Note_on_c, 0, 88, 0
3, 139180, Note_on_c, 0, 84, 40
3, 139574, Note_on_c, 0, 84, 0
3, 140144, Note_on_c, 0, 79, 29
3, 140761, Note_on_c, 0, 79, 0
3, 142970, Note_on_c, 0, 60, 35
3, 143004, Note_on_c, 0, 64, 26
3, 143056, Note_on_c, 0, 59, 32
3, 143534, Note_on_c, 0, 59, 0
3, 143574, Note_on_c, 0, 60, 0
3, 143612, Note_on_c, 0, 64, 0
3, 144038, Note_on_c, 0, 76, 96
3, 144571, Note_on_c, 0, 77, 78
3, 144631, Note_on_c, 0, 76, 0
3, 145000, Note_on_c, 0, 76, 60
3, 145078, Note_on_c, 0, 77, 0
3, 145464, Note_on_c, 0, 76, 0
3, 145559, Note_on_c, 0, 74, 53
3, 145922, Note_on_c, 0, 74, 0
3, 146048, Note_on_c, 0, 72, 20
3, 146639, Note_on_c, 0, 72, 0
3, 147019, Note_on_c, 0, 69, 11
3, 147915, Note_on_c, 0, 69, 0
3, 148004, Note_on_c, 0, 65, 19
3, 149447, Note_on_c, 0, 64, 50
3, 149481, Note_on_c, 0, 62, 35
3, 149510, Note_on_c, 0, 65, 0
3, 149556, Note_on_c, 0, 64, 0
3, 149611, Note_on_c, 0, 62, 0
3, 149824, Note_on_c, 0, 68, 73
3, 150354, Note_on_c, 0, 68, 0
3, 150432, Note_on_c, 0, 67, 49
3, 150553, Note_on_c, 0, 67, 0
3, 150760, Note_on_c, 0, 69, 57
3, 151244, Note_on_c, 0, 69, 0
3, 151293, Note_on_c, 0, 68, 60
3, 151434, Note_on_c, 0, 62, 24
3, 151549, Note_on_c, 0, 68, 0
3, 151673, Note_on_c, 0, 70, 68
3, 151751, Note_on_c, 0, 62, 0
3, 152240, Note_on_c, 0, 70, 0
3, 152269, Note_on_c, 0, 62, 32
3, 152376, Note_on_c, 0, 56, 30
3, 152517, Note_on_c, 0, 69, 44
3, 152548, Note_on_c, 0, 62, 0
3, 152571, Note_on_c, 0, 56, 0
3, 153078, Note_on_c, 0, 70, 75
3, 153185, Note_on_c, 0, 69, 0
3, 153323, Note_on_c, 0, 60, 42
3, 153412, Note_on_c, 0, 70, 0
3, 153513, Note_on_c, 0, 71, 56
3, 153666, Note_on_c, 0, 60, 0
3, 153974, Note_on_c, 0, 71, 0
3, 154040, Note_on_c, 0, 74, 80
3, 154533, Note_on_c, 0, 72, 53
3, 154671, Note_on_c, 0, 74, 0
3, 155201, Note_on_c, 0, 72, 0
3, 155581, Note_on_c, 0, 69, 38
3, 156307, Note_on_c, 0, 69, 0
3, 156419, Note_on_c, 0, 64, 47
3, 157179, Note_on_c, 0, 64, 0
3, 157369, Note_on_c, 0, 76, 65
3, 160356, Note_on_c, 0, 60, 41
3, 160362, Note_on_c, 0, 64, 42
3, 160393, Note_on_c, 0, 69, 44
3, 160483, Note_on_c, 0, 64, 0
3, 160486, Note_on_c, 0, 60, 0
3, 160503, Note_on_c, 0, 76, 0
3, 160563, Note_on_c, 0, 69, 0
3, 161407, Control_c, 0, 64, 127
3, 161632, Control_c, 0, 64, 0
3, 161692, Control_c, 0, 64, 127
3, 162211, Control_c, 0, 64, 0
3, 162294, Note_on_c, 0, 74, 75
3, 162306, Note_on_c, 0, 65, 76
3, 162314, Note_on_c, 0, 69, 69
3, 162317, Note_on_c, 0, 64, 75
3, 162323, Note_on_c, 0, 71, 64
3, 162873, Note_on_c, 0, 71, 0
3, 162879, Note_on_c, 0, 69, 0
3, 162905, Note_on_c, 0, 64, 0
3, 162925, Note_on_c, 0, 74, 0
3, 162928, Note_on_c, 0, 65, 0
3, 162965, Note_on_c, 0, 62, 37
3, 163320, Note_on_c, 0, 74, 66
3, 163325, Note_on_c, 0, 65, 51
3, 163343, Note_on_c, 0, 69, 64
3, 163371, Note_on_c, 0, 64, 69
3, 163377, Note_on_c, 0, 71, 62
3, 163415, Note_on_c, 0, 62, 0
3, 164120, Note_on_c, 0, 65, 0
3, 164158, Note_on_c, 0, 69, 0
3, 164207, Note_on_c, 0, 71, 0
3, 164209, Note_on_c, 0, 74, 0
3, 164281, Note_on_c, 0, 64, 0
3, 165212, Note_on_c, 0, 74, 44
3, 165226, Note_on_c, 0, 65, 20
3, 165232, Note_on_c, 0, 62, 31
3, 165246, Note_on_c, 0, 56, 47
3, 165246, Note_on_c, 0, 68, 34
3, 165264, Note_on_c, 0, 70, 40
3, 166024, Control_c, 0, 64, 127
3, 166257, Note_on_c, 0, 62, 0
3, 166332, Note_on_c, 0, 65, 0
3, 166355, Note_on_c, 0, 70, 0
3, 166384, Note_on_c, 0, 74, 0
3, 166410, Note_on_c, 0, 68, 0
3, 166609, Note_on_c, 0, 56, 0
3, 167095, Control_c, 0, 64, 0
3, 167115, Note_on_c, 0, 68, 37
3, 167133, Note_on_c, 0, 64, 33
3, 167136, Note_on_c, 0, 71, 40
3, 167176, Note_on_c, 0, 56, 37
3, 167233, Note_on_c, 0, 62, 19
3, 167576, Note_on_c, 0, 62, 0
3, 167812, Control_c, 0, 64, 127
3, 167864, Note_on_c, 0, 64, 0
3, 167968, Note_on_c, 0, 56, 0
3, 168063, Note_on_c, 0, 68, 0
3, 168103, Note_on_c, 0, 71, 0
3, 168769, Control_c, 0, 64, 0
3, 168901, Note_on_c, 0, 64, 33
3, 168915, Note_on_c, 0, 72, 58
3, 168944, Note_on_c, 0, 60, 26
3, 168976, Note_on_c, 0, 55, 20
3, 169022, Note_on_c, 0, 59, 30
3, 169339, Note_on_c, 0, 72, 0
3, 169463, Note_on_c, 0, 74, 47
3, 169465, Note_on_c, 0, 55, 0
3, 169609, Note_on_c, 0, 64, 0
3, 169647, Note_on_c, 0, 72, 45
3, 169728, Note_on_c, 0, 74, 0
3, 169912, Note_on_c, 0, 71, 50
3, 169987, Note_on_c, 0, 72, 0
3, 170096, Note_on_c, 0, 59, 0
3, 170183, Note_on_c, 0, 60, 0
3, 170332, Note_on_c, 0, 71, 0
3, 170499, Note_on_c, 0, 72, 60
3, 170966, Note_on_c, 0, 72, 0
3, 171012, Note_on_c, 0, 74, 49
3, 171317, Note_on_c, 0, 74, 0
3, 171470, Note_on_c, 0, 75, 50
3, 171677, Note_on_c, 0, 75, 0
3, 171948, Note_on_c, 0, 76, 24
3, 172265, Note_on_c, 0, 76, 0
3, 172406, Note_on_c, 0, 79, 54
3, 172697, Note_on_c, 0, 79, 0
3, 172809, Note_on_c, 0, 83, 60
3, 173244, Note_on_c, 0, 83, 0
3, 173348, Note_on_c, 0, 86, 68
3, 173820, Note_on_c, 0, 84, 53
3, 173950, Note_on_c, 0, 86, 0
3, 174194, Note_on_c, 0, 84, 0
3, 174583, Note_on_c, 0, 80, 49
3, 175401, Note_on_c, 0, 80, 0
3, 175617, Note_on_c, 0, 80, 46
3, 177184, Note_on_c, 0, 80, 0
3, 177587, Note_on_c, 0, 65, 33
3, 177616, Note_on_c, 0, 55, 31
3, 177625, Note_on_c, 0, 79, 64
3, 177645, Note_on_c, 0, 60, 34
3, 177691, Note_on_c, 0, 56, 48
3, 178137, Note_on_c, 0, 79, 0
3, 178160, Note_on_c, 0, 78, 45
3, 178402, Note_on_c, 0, 78, 0
3, 178641, Note_on_c, 0, 79, 29
3, 179019, Note_on_c, 0, 79, 0
3, 179226, Note_on_c, 0, 80, 62
3, 179543, Note_on_c, 0, 60, 0
3, 179574, Note_on_c, 0, 80, 0
3, 179643, Note_on_c, 0, 65, 0
3, 179885, Note_on_c, 0, 55, 0
3, 179992, Note_on_c, 0, 56, 0
3, 180153, Note_on_c, 0, 82, 73
3, 180173, Note_on_c, 0, 64, 34
3, 180194, Note_on_c, 0, 59, 36
3, 180219, Note_on_c, 0, 53, 28
3, 180467, Note_on_c, 0, 64, 0
3, 180508, Note_on_c, 0, 82, 0
3, 180513, Note_on_c, 0, 53, 0
3, 180519, Note_on_c, 0, 59, 0
3, 181072, Note_on_c, 0, 83, 80
3, 181418, Note_on_c, 0, 83, 0
3, 181948, Note_on_c, 0, 84, 78
3, 182008, Note_on_c, 0, 63, 53
3, 182011, Note_on_c, 0, 59, 48
3, 182014, Note_on_c, 0, 53, 40
3, 182287, Note_on_c, 0, 84, 0
3, 182428, Note_on_c, 0, 85, 56
3, 182898, Note_on_c, 0, 85, 0
3, 182912, Note_on_c, 0, 86, 67
3, 183025, Note_on_c, 0, 63, 0
3, 183169, Note_on_c, 0, 59, 0
3, 183183, Note_on_c, 0, 86, 0
3, 183333, Note_on_c, 0, 89, 83
3, 183704, Note_on_c, 0, 53, 0
3, 183750, Note_on_c, 0, 89, 0
3, 183903, Note_on_c, 0, 86, 70
3, 184073, Note_on_c, 0, 62, 33
3, 184084, Note_on_c, 0, 58, 38
3, 184226, Note_on_c, 0, 86, 0
3, 184514, Note_on_c, 0, 82, 15
3, 184833, Note_on_c, 0, 82, 0
3, 184949, Note_on_c, 0, 81, 36
3, 185225, Note_on_c, 0, 81, 0
3, 185352, Note_on_c, 0, 84, 62
3, 185787, Note_on_c, 0, 84, 0
3, 185959, Note_on_c, 0, 81, 33
3, 186207, Note_on_c, 0, 81, 0
3, 186314, Note_on_c, 0, 82, 46
3, 187497, Note_on_c, 0, 62, 0
3, 187670, Note_on_c, 0, 58, 0
3, 188079, Note_on_c, 0, 82, 0
3, 188131, Note_on_c, 0, 74, 60
3, 189551, Note_on_c, 0, 74, 0
3, 189680, Note_on_c, 0, 73, 33
3, 190063, Note_on_c, 0, 73, 0
3, 190109, Note_on_c, 0, 72, 34
3, 190705, Note_on_c, 0, 72, 0
3, 191077, Note_on_c, 0, 72, 27
3, 191665, Note_on_c, 0, 72, 0
3, 194890, Note_on_c, 0, 57, 31
3, 194905, Note_on_c, 0, 67, 24
3, 194913, Note_on_c, 0, 62, 33
3, 196823, Note_on_c, 0, 74, 96
3, 197315, Note_on_c, 0, 74, 0
3, 197401, Note_on_c, 0, 72, 46
3, 197681, Note_on_c, 0, 72, 0
3, 197764, Note_on_c, 0, 74, 70
3, 198150, Note_on_c, 0, 74, 0
3, 198323, Note_on_c, 0, 79, 64
3, 198657, Note_on_c, 0, 79, 0
3, 198810, Note_on_c, 0, 74, 36
3, 199017, Note_on_c, 0, 74, 0
3, 199524, Note_on_c, 0, 57, 0
3, 199550, Note_on_c, 0, 67, 0
3, 199582, Note_on_c, 0, 62, 0
3, 200593, Note_on_c, 0, 64, 43
3, 200624, Note_on_c, 0, 67, 35
3, 200690, Note_on_c, 0, 56, 32
3, 200705, Note_on_c, 0, 60, 30
3, 201661, Note_on_c, 0, 74, 89
3, 202105, Note_on_c, 0, 74, 0
3, 202214, Note_on_c, 0, 72, 47
3, 202637, Note_on_c, 0, 72, 0
3, 202666, Note_on_c, 0, 74, 40
3, 202954, Note_on_c, 0, 74, 0
3, 203159, Note_on_c, 0, 79, 62
3, 203524, Note_on_c, 0, 79, 0
3, 203594, Note_on_c, 0, 74, 53
3, 203755, Note_on_c, 0, 64, 0
3, 203936, Note_on_c, 0, 74, 0
3, 203974, Note_on_c, 0, 60, 0
3, 204011, Note_on_c, 0, 67, 0
3, 204031, Note_on_c, 0, 56, 0
3, 204449, Note_on_c, 0, 67, 45
3, 204455, Note_on_c, 0, 56, 50
3, 204469, Note_on_c, 0, 74, 82
3, 204481, Note_on_c, 0, 62, 44
3, 204913, Note_on_c, 0, 74, 0
3, 205062, Note_on_c, 0, 72, 41
3, 205471, Note_on_c, 0, 74, 46
3, 205555, Note_on_c, 0, 72, 0
3, 205849, Note_on_c, 0, 74, 0
3, 205921, Note_on_c, 0, 62, 0
3, 206039, Note_on_c, 0, 79, 74
3, 206393, Note_on_c, 0, 67, 0
3, 206425, Note_on_c, 0, 79, 0
3, 206436, Note_on_c, 0, 56, 0
3, 206471, Note_on_c, 0, 74, 44
3, 206929, Note_on_c, 0, 74, 0
3, 209293, Note_on_c, 0, 74, 89
3, 209305, Note_on_c, 0, 67, 58
3, 209328, Note_on_c, 0, 62, 52
3, 209339, Note_on_c, 0, 56, 57
3, 209561, Note_on_c, 0, 67, 0
3, 209618, Note_on_c, 0, 62, 0
3, 209708, Note_on_c, 0, 74, 0
3, 209820, Note_on_c, 0, 56, 0
3, 210266, Note_on_c, 0, 75, 80
3, 210269, Note_on_c, 0, 66, 70
3, 210278, Note_on_c, 0, 61, 51
3, 210287, Note_on_c, 0, 55, 61
3, 211447, Note_on_c, 0, 55, 0
3, 211634, Note_on_c, 0, 66, 0
3, 211784, Note_on_c, 0, 75, 0
3, 211891, Note_on_c, 0, 72, 68
3, 211894, Note_on_c, 0, 61, 0
3, 211899, Note_on_c, 0, 65, 51
3, 211934, Note_on_c, 0, 60, 51
3, 211948, Note_on_c, 0, 54, 38
3, 212568, Note_on_c, 0, 65, 0
3, 212602, Note_on_c, 0, 60, 0
3, 212950, Note_on_c, 0, 54, 0
3, 213005, Note_on_c, 0, 72, 0
3, 213141, Note_on_c, 0, 64, 36
3, 213167, Note_on_c, 0, 74, 64
3, 213172, Note_on_c, 0, 53, 30
3, 213195, Note_on_c, 0, 59, 47
3, 214008, Note_on_c, 0, 59, 0
3, 214042, Note_on_c, 0, 74, 0
3, 214071, Note_on_c, 0, 71, 56
3, 214094, Note_on_c, 0, 64, 0
3, 214287, Note_on_c, 0, 53, 0
3, 214540, Note_on_c, 0, 71, 0
3, 215004, Note_on_c, 0, 67, 38
3, 215064, Note_on_c, 0, 62, 18
3, 215067, Note_on_c, 0, 57, 30
3, 215090, Note_on_c, 0, 52, 20
3, 217268, Note_on_c, 0, 57, 0
3, 217308, Note_on_c, 0, 67, 0
3, 217691, Note_on_c, 0, 57, 18
3, 217919, Note_on_c, 0, 76, 96
3, 217956, Note_on_c, 0, 57, 0
3, 218002, Note_on_c, 0, 62, 0
3, 219206, Note_on_c, 0, 76, 0
3, 219396, Note_on_c, 0, 74, 66
3, 219802, Note_on_c, 0, 71, 47
3, 219811, Note_on_c, 0, 74, 0
3, 219897, Note_on_c, 0, 52, 0
3, 220191, Note_on_c, 0, 71, 0
3, 220315, Note_on_c, 0, 68, 48
3, 220681, Note_on_c, 0, 68, 0
3, 220750, Note_on_c, 0, 64, 44
3, 221602, Note_on_c, 0, 64, 0
3, 221717, Note_on_c, 0, 74, 71
3, 222247, Note_on_c, 0, 74, 0
3, 222371, Note_on_c, 0, 71, 41
3, 222535, Note_on_c, 0, 71, 0
3, 222780, Note_on_c, 0, 72, 57
3, 223670, Note_on_c, 0, 67, 67
3, 223673, Note_on_c, 0, 62, 60
3, 223705, Note_on_c, 0, 56, 60
3, 224917, Note_on_c, 0, 62, 0
3, 225297, Note_on_c, 0, 62, 15
3, 225441, Note_on_c, 0, 67, 0
3, 225484, Note_on_c, 0, 72, 0
3, 225585, Note_on_c, 0, 70, 64
3, 225666, Note_on_c, 0, 62, 0
3, 226008, Note_on_c, 0, 70, 0
3, 226161, Note_on_c, 0, 56, 0
3, 226585, Note_on_c, 0, 61, 35
3, 226602, Note_on_c, 0, 69, 67
3, 226613, Note_on_c, 0, 65, 28
3, 226622, Note_on_c, 0, 55, 33
3, 226996, Note_on_c, 0, 69, 0
3, 227083, Note_on_c, 0, 65, 0
3, 227134, Note_on_c, 0, 70, 43
3, 227339, Note_on_c, 0, 69, 44
3, 227400, Note_on_c, 0, 70, 0
3, 227538, Note_on_c, 0, 67, 31
3, 227584, Note_on_c, 0, 69, 0
3, 227906, Note_on_c, 0, 61, 0
3, 227981, Note_on_c, 0, 67, 0
3, 228157, Note_on_c, 0, 69, 39
3, 228258, Note_on_c, 0, 61, 32
3, 228428, Note_on_c, 0, 69, 0
3, 228485, Note_on_c, 0, 70, 38
3, 228615, Note_on_c, 0, 61, 0
3, 228822, Note_on_c, 0, 70, 0
3, 229004, Note_on_c, 0, 72, 57
3, 229136, Note_on_c, 0, 61, 31
3, 229294, Note_on_c, 0, 72, 0
3, 229375, Note_on_c, 0, 73, 44
3, 229393, Note_on_c, 0, 55, 0
3, 229430, Note_on_c, 0, 61, 0
3, 229744, Note_on_c, 0, 73, 0
3, 229983, Note_on_c, 0, 75, 57
3, 230113, Note_on_c, 0, 60, 32
3, 230173, Note_on_c, 0, 57, 34
3, 230176, Note_on_c, 0, 53, 28
3, 230199, Note_on_c, 0, 75, 0
3, 230242, Note_on_c, 0, 76, 35
3, 230262, Note_on_c, 0, 50, 22
3, 230326, Note_on_c, 0, 60, 0
3, 230400, Note_on_c, 0, 76, 0
3, 230441, Note_on_c, 0, 50, 0
3, 230579, Note_on_c, 0, 76, 33
3, 230608, Note_on_c, 0, 53, 0
3, 230660, Note_on_c, 0, 57, 0
3, 230933, Note_on_c, 0, 76, 0
3, 231051, Note_on_c, 0, 79, 85
3, 231423, Note_on_c, 0, 76, 66
3, 231521, Note_on_c, 0, 79, 0
3, 232151, Note_on_c, 0, 76, 0
3, 232370, Note_on_c, 0, 77, 80
3, 232866, Note_on_c, 0, 77, 0
3, 233295, Note_on_c, 0, 69, 43
3, 233710, Note_on_c, 0, 69, 0
3, 234257, Note_on_c, 0, 65, 28
3, 234309, Note_on_c, 0, 69, 40
3, 234335, Note_on_c, 0, 60, 31
3, 234355, Note_on_c, 0, 55, 16
3, 234412, Note_on_c, 0, 57, 24
3, 234718, Note_on_c, 0, 69, 0
3, 235173, Note_on_c, 0, 60, 0
3, 235199, Note_on_c, 0, 65, 0
3, 235222, Note_on_c, 0, 72, 74
3, 235409, Note_on_c, 0, 57, 0
3, 235562, Note_on_c, 0, 55, 0
3, 235726, Note_on_c, 0, 72, 0
3, 236152, Note_on_c, 0, 64, 24
3, 236189, Note_on_c, 0, 71, 59
3, 236215, Note_on_c, 0, 59, 31
3, 236667, Note_on_c, 0, 71, 0
3, 236734, Note_on_c, 0, 72, 51
3, 237019, Note_on_c, 0, 72, 0
3, 237105, Note_on_c, 0, 64, 0
3, 237128, Note_on_c, 0, 59, 0
3, 237146, Note_on_c, 0, 74, 60
3, 237523, Note_on_c, 0, 74, 0
3, 237722, Note_on_c, 0, 71, 55
3, 237969, Note_on_c, 0, 71, 0
3, 238082, Note_on_c, 0, 67, 29
3, 238611, Note_on_c, 0, 67, 0
3, 238951, Note_on_c, 0, 67, 43
3, 239530, Note_on_c, 0, 67, 0
3, 239925, Note_on_c, 0, 67, 49
3, 240460, Note_on_c, 0, 67, 0
3, 240504, Note_on_c, 0, 66, 46
3, 240746, Note_on_c, 0, 66, 0
3, 240941, Note_on_c, 0, 69, 49
3, 241022, Note_on_c, 0, 57, 44
3, 242338, Note_on_c, 0, 57, 0
3, 242393, Note_on_c, 0, 69, 0
3, 242462, Note_on_c, 0, 54, 36
3, 242474, Note_on_c, 0, 66, 28
3, 242675, Note_on_c, 0, 66, 0
3, 242762, Note_on_c, 0, 54, 0
3, 242796, Note_on_c, 0, 67, 54
3, 242836, Note_on_c, 0, 55, 32
3, 243289, Note_on_c, 0, 67, 0
3, 243410, Note_on_c, 0, 55, 0
3, 243447, Note_on_c, 0, 64, 41
3, 243510, Note_on_c, 0, 52, 28
3, 243767, Note_on_c, 0, 64, 0
3, 243833, Note_on_c, 0, 52, 0
3, 244389, Note_on_c, 0, 64, 34
3, 244449, Note_on_c, 0, 52, 24
3, 244582, Note_on_c, 0, 52, 0
3, 244628, Note_on_c, 0, 64, 0
3, 244636, Note_on_c, 0, 50, 47
3, 244688, Note_on_c, 0, 62, 49
3, 245132, Note_on_c, 0, 50, 0
3, 245626, Note_on_c, 0, 76, 82
3, 245760, Note_on_c, 0, 62, 0
3, 245929, Note_on_c, 0, 76, 0
3, 249611, Note_on_c, 0, 64, 34
3, 249631, Note_on_c, 0, 60, 41
3, 249643, Note_on_c, 0, 59, 37
3, 249811, Note_on_c, 0, 60, 0
3, 249820, Note_on_c, 0, 64, 0
3, 249827, Note_on_c, 0, 59, 0
3, 251288, Note_on_c, 0, 64, 33
3, 251298, Note_on_c, 0, 60, 41
3, 251417, Note_on_c, 0, 60, 0
3, 251420, Note_on_c, 0, 64, 0
3, 251622, Note_on_c, 0, 79, 91
3, 252233, Note_on_c, 0, 74, 60
3, 252255, Note_on_c, 0, 79, 0
3, 252693, Note_on_c, 0, 74, 0
3, 252770, Note_on_c, 0, 76, 52
3, 253110, Note_on_c, 0, 76, 0
3, 253212, Note_on_c, 0, 77, 84
3, 253378, Note_on_c, 0, 64, 36
3, 253433, Note_on_c, 0, 60, 24
3, 253471, Note_on_c, 0, 57, 24
3, 253516, Note_on_c, 0, 64, 0
3, 253554, Note_on_c, 0, 60, 0
3, 253612, Note_on_c, 0, 57, 0
3, 253749, Note_on_c, 0, 76, 57
3, 253891, Note_on_c, 0, 77, 0
3, 254274, Note_on_c, 0, 76, 0
3, 254495, Note_on_c, 0, 72, 59
3, 255196, Note_on_c, 0, 72, 0
3, 255494, Note_on_c, 0, 69, 32
3, 256117, Note_on_c, 0, 69, 0
3, 257337, Note_on_c, 0, 64, 24
3, 257340, Note_on_c, 0, 59, 34
3, 257567, Note_on_c, 0, 59, 0
3, 257583, Note_on_c, 0, 64, 0
3, 258976, Note_on_c, 0, 59, 41
3, 259129, Note_on_c, 0, 59, 0
3, 259286, Note_on_c, 0, 67, 80
3, 259830, Note_on_c, 0, 67, 0
3, 259840, Note_on_c, 0, 66, 53
3, 260115, Note_on_c, 0, 66, 0
3, 260230, Note_on_c, 0, 67, 44
3, 260624, Note_on_c, 0, 67, 0
3, 260876, Note_on_c, 0, 74, 68
3, 260880, Note_on_c, 0, 76, 64
3, 260960, Note_on_c, 0, 62, 30
3, 260992, Note_on_c, 0, 76, 0
3, 261120, Note_on_c, 0, 62, 0
3, 261388, Note_on_c, 0, 74, 0
3, 261404, Note_on_c, 0, 67, 52
3, 261910, Note_on_c, 0, 67, 0
3, 262195, Note_on_c, 0, 67, 56
3, 262688, Note_on_c, 0, 67, 0
3, 262745, Note_on_c, 0, 66, 50
3, 263040, Note_on_c, 0, 66, 0
3, 263075, Note_on_c, 0, 67, 38
3, 263465, Note_on_c, 0, 67, 0
3, 263628, Note_on_c, 0, 74, 61
3, 263955, Note_on_c, 0, 74, 0
3, 264976, Note_on_c, 0, 67, 69
3, 265648, Note_on_c, 0, 67, 0
3, 266006, Note_on_c, 0, 67, 39
3, 266432, Note_on_c, 0, 67, 0
3, 266521, Note_on_c, 0, 66, 49
3, 266809, Note_on_c, 0, 66, 0
3, 266899, Note_on_c, 0, 67, 31
3, 267209, Note_on_c, 0, 67, 0
3, 267440, Note_on_c, 0, 76, 62
3, 267779, Note_on_c, 0, 76, 0
3, 268771, Note_on_c, 0, 64, 30
3, 268774, Note_on_c, 0, 57, 41
3, 268806, Note_on_c, 0, 60, 24
3, 268934, Note_on_c, 0, 64, 0
3, 268953, Note_on_c, 0, 60, 0
3, 268995, Note_on_c, 0, 57, 0
3, 270400, Note_on_c, 0, 57, 36
3, 270592, Note_on_c, 0, 57, 0
3, 270748, Note_on_c, 0, 67, 73
3, 271091, Note_on_c, 0, 67, 0
3, 271312, Note_on_c, 0, 68, 51
3, 271648, Note_on_c, 0, 68, 0
3, 271737, Note_on_c, 0, 69, 39
3, 272172, Note_on_c, 0, 69, 0
3, 272288, Note_on_c, 0, 70, 70
3, 272291, Note_on_c, 0, 62, 37
3, 272294, Note_on_c, 0, 65, 30
3, 272428, Note_on_c, 0, 65, 0
3, 272489, Note_on_c, 0, 62, 0
3, 272624, Note_on_c, 0, 70, 0
3, 272774, Note_on_c, 0, 71, 60
3, 273129, Note_on_c, 0, 71, 0
3, 273260, Note_on_c, 0, 74, 59
3, 273350, Note_on_c, 0, 72, 30
3, 273462, Note_on_c, 0, 72, 0
3, 273577, Note_on_c, 0, 74, 0
3, 273657, Note_on_c, 0, 71, 52
3, 274092, Note_on_c, 0, 71, 0
3, 274124, Note_on_c, 0, 72, 68
3, 274153, Note_on_c, 0, 62, 30
3, 274444, Note_on_c, 0, 62, 0
3, 274579, Note_on_c, 0, 72, 0
3, 274611, Note_on_c, 0, 73, 55
3, 274960, Note_on_c, 0, 73, 0
3, 275110, Note_on_c, 0, 74, 58
3, 275174, Note_on_c, 0, 76, 46
3, 275200, Note_on_c, 0, 65, 57
3, 275222, Note_on_c, 0, 62, 44
3, 275321, Note_on_c, 0, 76, 0
3, 275350, Note_on_c, 0, 65, 0
3, 275360, Note_on_c, 0, 62, 0
3, 275376, Note_on_c, 0, 74, 0
3, 275529, Note_on_c, 0, 75, 46
3, 275907, Note_on_c, 0, 75, 0
3, 276115, Note_on_c, 0, 76, 68
3, 276192, Note_on_c, 0, 64, 45
3, 276329, Note_on_c, 0, 64, 0
3, 276425, Note_on_c, 0, 78, 44
3, 276428, Note_on_c, 0, 76, 0
3, 276534, Note_on_c, 0, 78, 0
3, 276988, Note_on_c, 0, 83, 72
3, 277212, Note_on_c, 0, 64, 27
3, 277292, Note_on_c, 0, 83, 0
3, 277347, Note_on_c, 0, 64, 0
3, 277417, Note_on_c, 0, 86, 89
3, 278038, Note_on_c, 0, 83, 62
3, 278048, Note_on_c, 0, 86, 0
3, 278300, Note_on_c, 0, 83, 0
3, 278454, Note_on_c, 0, 84, 82
3, 279139, Note_on_c, 0, 57, 17
3, 279142, Note_on_c, 0, 84, 0
3, 279283, Note_on_c, 0, 81, 67
3, 279436, Note_on_c, 0, 57, 0
3, 280262, Note_on_c, 0, 64, 44
3, 280329, Note_on_c, 0, 60, 28
3, 280400, Note_on_c, 0, 64, 0
3, 280470, Note_on_c, 0, 60, 0
3, 280960, Note_on_c, 0, 84, 68
3, 281075, Note_on_c, 0, 81, 0
3, 281299, Note_on_c, 0, 76, 46
3, 281449, Note_on_c, 0, 84, 0
3, 282780, Note_on_c, 0, 76, 0
3, 282838, Note_on_c, 0, 81, 54
3, 282841, Note_on_c, 0, 60, 40
3, 282844, Note_on_c, 0, 64, 36
3, 282982, Note_on_c, 0, 64, 0
3, 282985, Note_on_c, 0, 60, 0
3, 283177, Note_on_c, 0, 81, 0
3, 283209, Note_on_c, 0, 72, 56
3, 284598, Note_on_c, 0, 72, 0
3, 284694, Note_on_c, 0, 76, 49
3, 284752, Note_on_c, 0, 57, 39
3, 284780, Note_on_c, 0, 62, 24
3, 284934, Note_on_c, 0, 57, 0
3, 284998, Note_on_c, 0, 62, 0
3, 285088, Note_on_c, 0, 76, 0
3, 285097, Note_on_c, 0, 69, 54
3, 286646, Note_on_c, 0, 64, 48
3, 286700, Note_on_c, 0, 62, 37
3, 286704, Note_on_c, 0, 57, 31
3, 286774, Note_on_c, 0, 64, 0
3, 286841, Note_on_c, 0, 57, 0
3, 286848, Note_on_c, 0, 62, 0
3, 287987, Note_on_c, 0, 62, 38
3, 288000, Note_on_c, 0, 64, 42
3, 288025, Note_on_c, 0, 56, 46
3, 288176, Note_on_c, 0, 69, 0
3, 288342, Note_on_c, 0, 64, 0
3, 288569, Note_on_c, 0, 62, 0
3, 288588, Note_on_c, 0, 56, 0
3, 289526, Note_on_c, 0, 62, 40
3, 289532, Note_on_c, 0, 64, 31
3, 289577, Note_on_c, 0, 56, 31
3, 289657, Note_on_c, 0, 64, 0
3, 289676, Note_on_c, 0, 62, 0
3, 289728, Note_on_c, 0, 56, 0
3, 289920, Note_on_c, 0, 68, 84
3, 289926, Note_on_c, 0, 70, 78
3, 290419, Note_on_c, 0, 68, 0
3, 290432, Note_on_c, 0, 70, 0
3, 290854, Note_on_c, 0, 69, 92
3, 290876, Note_on_c, 0, 71, 81
3, 291350, Note_on_c, 0, 69, 0
3, 291555, Note_on_c, 0, 71, 0
3, 291632, Note_on_c, 0, 60, 30
3, 291827, Note_on_c, 0, 60, 0
3, 291872, Note_on_c, 0, 72, 53
3, 291875, Note_on_c, 0, 68, 58
3, 292416, Note_on_c, 0, 68, 0
3, 292454, Note_on_c, 0, 72, 0
3, 293404, Note_on_c, 0, 74, 62
3, 293411, Note_on_c, 0, 67, 66
3, 294265, Note_on_c, 0, 67, 0
3, 294457, Note_on_c, 0, 74, 0
3, 294748, Note_on_c, 0, 72, 6
3, 294819, Note_on_c, 0, 66, 64
3, 295212, Note_on_c, 0, 66, 0
3, 295440, Note_on_c, 0, 72, 0
3, 296243, Note_on_c, 0, 64, 39
3, 296281, Note_on_c, 0, 60, 36
3, 296329, Note_on_c, 0, 54, 27
3, 296499, Note_on_c, 0, 64, 0
3, 296524, Note_on_c, 0, 60, 0
3, 296592, Note_on_c, 0, 54, 0
3, 297590, Note_on_c, 0, 64, 39
3, 297644, Note_on_c, 0, 54, 33
3, 297660, Note_on_c, 0, 60, 33
3, 297811, Note_on_c, 0, 60, 0
3, 297833, Note_on_c, 0, 64, 0
3, 297939, Note_on_c, 0, 54, 0
3, 299212, Note_on_c, 0, 65, 42
3, 299280, Note_on_c, 0, 56, 35
3, 299308, Note_on_c, 0, 60, 30
3, 299420, Note_on_c, 0, 65, 0
3, 299449, Note_on_c, 0, 60, 0
3, 299468, Note_on_c, 0, 56, 0
3, 300464, Note_on_c, 0, 65, 32
3, 300521, Note_on_c, 0, 56, 37
3, 300579, Note_on_c, 0, 55, 25
3, 300582, Note_on_c, 0, 60, 33
3, 301488, Note_on_c, 0, 79, 89
3, 302006, Note_on_c, 0, 79, 0
3, 302102, Note_on_c, 0, 80, 50
3, 302313, Note_on_c, 0, 60, 0
3, 302316, Note_on_c, 0, 65, 0
3, 302368, Note_on_c, 0, 55, 0
3, 302534, Note_on_c, 0, 80, 0
3, 302726, Note_on_c, 0, 56, 0
3, 303177, Note_on_c, 0, 64, 35
3, 303200, Note_on_c, 0, 59, 43
3, 303209, Note_on_c, 0, 53, 32
3, 304355, Note_on_c, 0, 79, 85
3, 304361, Note_on_c, 0, 53, 0
3, 304409, Note_on_c, 0, 59, 0
3, 304412, Note_on_c, 0, 64, 0
3, 304790, Note_on_c, 0, 79, 0
3, 304870, Note_on_c, 0, 80, 52
3, 304950, Note_on_c, 0, 59, 22
3, 305120, Note_on_c, 0, 79, 51
3, 305222, Note_on_c, 0, 80, 0
3, 305420, Note_on_c, 0, 59, 0
3, 305491, Note_on_c, 0, 77, 58
3, 305494, Note_on_c, 0, 79, 0
3, 305872, Note_on_c, 0, 77, 0
3, 305888, Note_on_c, 0, 59, 20
3, 306019, Note_on_c, 0, 53, 20
3, 306163, Note_on_c, 0, 59, 0
3, 306281, Note_on_c, 0, 74, 40
3, 306483, Note_on_c, 0, 53, 0
3, 306656, Note_on_c, 0, 74, 0
3, 306886, Note_on_c, 0, 62, 45
3, 306915, Note_on_c, 0, 58, 44
3, 306953, Note_on_c, 0, 57, 28
3, 307046, Note_on_c, 0, 62, 0
3, 307107, Note_on_c, 0, 57, 0
3, 307152, Note_on_c, 0, 58, 0
3, 307344, Note_on_c, 0, 77, 85
3, 307961, Note_on_c, 0, 77, 0
3, 308182, Note_on_c, 0, 74, 40
3, 308576, Note_on_c, 0, 74, 0
3, 308745, Note_on_c, 0, 65, 38
3, 309158, Note_on_c, 0, 65, 0
3, 309392, Note_on_c, 0, 65, 59
3, 309801, Note_on_c, 0, 58, 23
3, 309804, Note_on_c, 0, 65, 0
3, 309984, Note_on_c, 0, 58, 0
3, 310108, Note_on_c, 0, 65, 50
3, 310534, Note_on_c, 0, 65, 0
3, 310774, Note_on_c, 0, 65, 58
3, 311718, Note_on_c, 0, 62, 29
3, 311859, Note_on_c, 0, 62, 0
3, 311971, Note_on_c, 0, 65, 0
3, 312076, Note_on_c, 0, 64, 51
3, 312624, Note_on_c, 0, 64, 0
3, 312720, Note_on_c, 0, 67, 61
3, 313600, Note_on_c, 0, 58, 38
3, 313721, Note_on_c, 0, 58, 0
3, 314000, Note_on_c, 0, 60, 48
3, 314662, Note_on_c, 0, 67, 0
3, 314899, Note_on_c, 0, 60, 0
3, 318659, Note_on_c, 0, 61, 35
3, 318662, Note_on_c, 0, 67, 37
3, 318668, Note_on_c, 0, 73, 74
3, 318691, Note_on_c, 0, 57, 30
3, 318720, Note_on_c, 0, 64, 31
3, 318742, Note_on_c, 0, 65, 24
3, 318876, Note_on_c, 0, 65, 0
3, 319747, Note_on_c, 0, 67, 0
3, 319792, Note_on_c, 0, 64, 0
3, 319948, Note_on_c, 0, 61, 0
3, 320147, Note_on_c, 0, 64, 29
3, 320227, Note_on_c, 0, 76, 62
3, 320249, Note_on_c, 0, 73, 0
3, 320492, Note_on_c, 0, 76, 0
3, 320508, Note_on_c, 0, 64, 0
3, 320550, Note_on_c, 0, 57, 0
3, 320617, Note_on_c, 0, 79, 81
3, 321180, Note_on_c, 0, 79, 0
3, 321219, Note_on_c, 0, 76, 42
3, 321376, Note_on_c, 0, 76, 0
3, 321612, Note_on_c, 0, 77, 74
3, 322051, Note_on_c, 0, 77, 0
3, 322208, Note_on_c, 0, 74, 38
3, 322524, Note_on_c, 0, 74, 0
3, 323171, Note_on_c, 0, 68, 56
3, 323468, Note_on_c, 0, 68, 0
3, 323584, Note_on_c, 0, 67, 36
3, 324121, Note_on_c, 0, 63, 45
3, 324179, Note_on_c, 0, 60, 28
3, 324182, Note_on_c, 0, 67, 0
3, 324220, Note_on_c, 0, 70, 78
3, 324281, Note_on_c, 0, 63, 0
3, 324566, Note_on_c, 0, 60, 0
3, 324720, Note_on_c, 0, 68, 53
3, 324764, Note_on_c, 0, 70, 0
3, 325532, Note_on_c, 0, 68, 0
3, 325577, Note_on_c, 0, 67, 58
3, 325945, Note_on_c, 0, 67, 0
3, 326553, Note_on_c, 0, 67, 39
3, 326588, Note_on_c, 0, 56, 33
3, 326636, Note_on_c, 0, 62, 33
3, 326867, Note_on_c, 0, 67, 0
3, 327001, Note_on_c, 0, 56, 0
3, 327062, Note_on_c, 0, 62, 0
3, 327980, Note_on_c, 0, 56, 49
3, 328000, Note_on_c, 0, 67, 42
3, 328057, Note_on_c, 0, 62, 35
3, 329420, Note_on_c, 0, 62, 0
3, 329504, Note_on_c, 0, 67, 0
3, 329504, Note_on_c, 0, 56, 0
3, 330227, Note_on_c, 0, 76, 83
3, 330249, Note_on_c, 0, 67, 37
3, 330249, Note_on_c, 0, 56, 46
3, 330320, Note_on_c, 0, 62, 38
3, 330729, Note_on_c, 0, 76, 0
3, 330764, Note_on_c, 0, 75, 56
3, 330883, Note_on_c, 0, 67, 0
3, 330960, Note_on_c, 0, 62, 0
3, 331264, Note_on_c, 0, 75, 0
3, 331276, Note_on_c, 0, 76, 51
3, 331408, Note_on_c, 0, 56, 0
3, 331820, Note_on_c, 0, 77, 80
3, 331875, Note_on_c, 0, 61, 39
3, 331881, Note_on_c, 0, 66, 43
3, 331916, Note_on_c, 0, 76, 0
3, 331936, Note_on_c, 0, 55, 33
3, 332611, Note_on_c, 0, 77, 0
3, 332793, Note_on_c, 0, 76, 38
3, 332896, Note_on_c, 0, 66, 0
3, 333126, Note_on_c, 0, 76, 0
3, 333136, Note_on_c, 0, 77, 67
3, 333177, Note_on_c, 0, 55, 0
3, 333635, Note_on_c, 0, 61, 0
3, 333708, Note_on_c, 0, 77, 0
3, 333731, Note_on_c, 0, 78, 71
3, 333769, Note_on_c, 0, 65, 51
3, 333808, Note_on_c, 0, 60, 46
3, 333811, Note_on_c, 0, 54, 48
3, 334489, Note_on_c, 0, 60, 0
3, 334569, Note_on_c, 0, 78, 0
3, 334713, Note_on_c, 0, 77, 42
3, 334809, Note_on_c, 0, 60, 14
3, 334937, Note_on_c, 0, 77, 0
3, 335072, Note_on_c, 0, 65, 0
3, 335155, Note_on_c, 0, 60, 0
3, 335174, Note_on_c, 0, 78, 55
3, 335564, Note_on_c, 0, 54, 0
3, 335737, Note_on_c, 0, 78, 0
3, 335747, Note_on_c, 0, 79, 76
3, 335801, Note_on_c, 0, 64, 45
3, 335843, Note_on_c, 0, 59, 48
3, 335849, Note_on_c, 0, 53, 30
3, 336281, Note_on_c, 0, 59, 0
3, 336604, Note_on_c, 0, 79, 0
3, 336681, Note_on_c, 0, 78, 26
3, 336825, Note_on_c, 0, 64, 0
3, 336966, Note_on_c, 0, 78, 0
3, 337049, Note_on_c, 0, 79, 44
3, 337068, Note_on_c, 0, 53, 0
3, 337411, Note_on_c, 0, 79, 0
3, 337632, Note_on_c, 0, 81, 78
3, 337676, Note_on_c, 0, 62, 40
3, 337708, Note_on_c, 0, 59, 19
3, 337788, Note_on_c, 0, 52, 24
3, 337833, Note_on_c, 0, 55, 19
3, 337952, Note_on_c, 0, 59, 0
3, 338019, Note_on_c, 0, 62, 0
3, 338134, Note_on_c, 0, 79, 52
3, 338592, Note_on_c, 0, 81, 0
3, 338624, Note_on_c, 0, 79, 0
3, 338704, Note_on_c, 0, 52, 0
3, 338864, Note_on_c, 0, 76, 49
3, 339008, Note_on_c, 0, 55, 0
3, 339590, Note_on_c, 0, 76, 0
3, 339907, Note_on_c, 0, 72, 31
3, 340214, Note_on_c, 0, 72, 0
3, 341737, Note_on_c, 0, 62, 48
3, 341744, Note_on_c, 0, 63, 42
3, 341756, Note_on_c, 0, 57, 36
3, 341763, Note_on_c, 0, 67, 36
3, 342144, Note_on_c, 0, 67, 0
3, 342147, Note_on_c, 0, 62, 0
3, 342230, Note_on_c, 0, 57, 0
3, 342252, Note_on_c, 0, 63, 0
3, 343180, Note_on_c, 0, 67, 40
3, 343209, Note_on_c, 0, 63, 42
3, 343212, Note_on_c, 0, 62, 32
3, 343219, Note_on_c, 0, 57, 33
3, 344540, Note_on_c, 0, 62, 0
3, 344691, Note_on_c, 0, 67, 0
3, 344784, Note_on_c, 0, 63, 0
3, 344787, Note_on_c, 0, 57, 0
3, 345606, Note_on_c, 0, 67, 54
3, 345612, Note_on_c, 0, 56, 57
3, 345616, Note_on_c, 0, 62, 52
3, 345628, Note_on_c, 0, 88, 91
3, 346364, Note_on_c, 0, 84, 74
3, 346457, Note_on_c, 0, 88, 0
3, 346566, Note_on_c, 0, 62, 0
3, 346630, Note_on_c, 0, 67, 0
3, 346723, Note_on_c, 0, 56, 0
3, 346809, Note_on_c, 0, 84, 0
3, 347171, Note_on_c, 0, 79, 64
3, 347200, Note_on_c, 0, 62, 44
3, 347206, Note_on_c, 0, 56, 52
3, 347248, Note_on_c, 0, 67, 33
3, 347436, Note_on_c, 0, 67, 0
3, 347497, Note_on_c, 0, 79, 0
3, 347657, Note_on_c, 0, 62, 0
3, 347782, Note_on_c, 0, 76, 31
3, 347932, Note_on_c, 0, 56, 0
3, 348243, Note_on_c, 0, 56, 9
3, 348416, Note_on_c, 0, 76, 0
3, 348441, Note_on_c, 0, 72, 55
3, 348806, Note_on_c, 0, 56, 0
3, 348902, Note_on_c, 0, 72, 0
3, 349353, Note_on_c, 0, 61, 38
3, 349392, Note_on_c, 0, 65, 36
3, 349446, Note_on_c, 0, 55, 33
3, 349660, Note_on_c, 0, 65, 0
3, 349760, Note_on_c, 0, 55, 0
3, 349952, Note_on_c, 0, 61, 0
3, 350950, Note_on_c, 0, 61, 44
3, 350966, Note_on_c, 0, 65, 36
3, 351116, Note_on_c, 0, 65, 0
3, 351318, Note_on_c, 0, 61, 0
3, 351369, Note_on_c, 0, 84, 99
3, 351750, Note_on_c, 0, 84, 0
3, 351904, Note_on_c, 0, 61, 54
3, 351926, Note_on_c, 0, 82, 67
3, 351964, Note_on_c, 0, 55, 38
3, 352028, Note_on_c, 0, 65, 24
3, 352150, Note_on_c, 0, 65, 0
3, 352233, Note_on_c, 0, 82, 0
3, 352249, Note_on_c, 0, 55, 0
3, 352380, Note_on_c, 0, 84, 84
3, 352784, Note_on_c, 0, 84, 0
3, 352883, Note_on_c, 0, 82, 67
3, 353020, Note_on_c, 0, 64, 22
3, 353059, Note_on_c, 0, 57, 40
3, 353120, Note_on_c, 0, 61, 0
3, 353120, Note_on_c, 0, 60, 24
3, 353212, Note_on_c, 0, 82, 0
3, 353273, Note_on_c, 0, 64, 0
3, 353296, Note_on_c, 0, 60, 0
3, 353366, Note_on_c, 0, 81, 37
3, 353510, Note_on_c, 0, 57, 0
3, 353910, Note_on_c, 0, 81, 0
3, 354176, Note_on_c, 0, 77, 60
3, 354726, Note_on_c, 0, 60, 34
3, 354816, Note_on_c, 0, 77, 0
3, 355084, Note_on_c, 0, 60, 0
3, 355142, Note_on_c, 0, 74, 50
3, 355683, Note_on_c, 0, 74, 0
3, 355795, Note_on_c, 0, 60, 24
3, 355913, Note_on_c, 0, 57, 20
3, 355993, Note_on_c, 0, 60, 0
3, 356060, Note_on_c, 0, 72, 55
3, 356102, Note_on_c, 0, 57, 0
3, 356672, Note_on_c, 0, 72, 0
3, 356937, Note_on_c, 0, 71, 57
3, 357001, Note_on_c, 0, 64, 30
3, 357008, Note_on_c, 0, 59, 37
3, 357075, Note_on_c, 0, 53, 22
3, 358630, Note_on_c, 0, 53, 0
3, 358662, Note_on_c, 0, 64, 0
3, 358809, Note_on_c, 0, 59, 0
3, 359027, Note_on_c, 0, 71, 0
3, 360896, Note_on_c, 0, 57, 60
3, 360902, Note_on_c, 0, 62, 55
3, 360908, Note_on_c, 0, 74, 96
3, 360915, Note_on_c, 0, 52, 57
3, 362076, Note_on_c, 0, 62, 0
3, 362128, Note_on_c, 0, 52, 0
3, 362236, Note_on_c, 0, 57, 0
3, 362313, Note_on_c, 0, 74, 0
3, 362438, Note_on_c, 0, 72, 66
3, 362796, Note_on_c, 0, 57, 33
3, 362803, Note_on_c, 0, 52, 37
3, 362812, Note_on_c, 0, 72, 0
3, 362828, Note_on_c, 0, 62, 25
3, 362953, Note_on_c, 0, 71, 62
3, 363324, Note_on_c, 0, 62, 0
3, 363350, Note_on_c, 0, 71, 0
3, 363465, Note_on_c, 0, 57, 0
3, 363545, Note_on_c, 0, 67, 44
3, 363737, Note_on_c, 0, 52, 0
3, 363849, Note_on_c, 0, 67, 0
3, 364332, Note_on_c, 0, 55, 58
3, 364416, Note_on_c, 0, 54, 47
3, 364627, Note_on_c, 0, 55, 0
3, 364646, Note_on_c, 0, 54, 0
3, 365344, Note_on_c, 0, 55, 68
3, 365654, Note_on_c, 0, 55, 0
3, 366233, Note_on_c, 0, 43, 56
3, 366636, Note_on_c, 0, 66, 48
3, 366646, Note_on_c, 0, 55, 57
3, 366662, Note_on_c, 0, 59, 46
3, 366681, Note_on_c, 0, 63, 47
3, 366960, Note_on_c, 0, 55, 0
3, 366972, Note_on_c, 0, 43, 0
3, 366982, Note_on_c, 0, 59, 0
3, 367065, Note_on_c, 0, 66, 0
3, 367088, Note_on_c, 0, 63, 0
3, 367603, Note_on_c, 0, 66, 59
3, 367606, Note_on_c, 0, 63, 62
3, 367616, Note_on_c, 0, 55, 53
3, 367628, Note_on_c, 0, 59, 55
3, 367833, Note_on_c, 0, 55, 0
3, 367884, Note_on_c, 0, 59, 0
3, 368000, Note_on_c, 0, 66, 0
3, 368016, Note_on_c, 0, 63, 0
3, 368649, Note_on_c, 0, 67, 50
3, 368662, Note_on_c, 0, 62, 40
3, 368662, Note_on_c, 0, 60, 50
3, 369622, Note_on_c, 0, 60, 0
3, 369622, Note_on_c, 0, 62, 0
3, 370569, Note_on_c, 0, 67, 0
3, 370657, Note_on_c, 0, 76, 105
3, 371100, Note_on_c, 0, 76, 0
3, 371237, Note_on_c, 0, 77, 78
3, 371708, Note_on_c, 0, 76, 75
3, 371866, Note_on_c, 0, 77, 0
3, 372111, Note_on_c, 0, 76, 0
3, 372542, Note_on_c, 0, 72, 65
3, 373024, Note_on_c, 0, 72, 0
3, 373586, Note_on_c, 0, 72, 68
3, 374225, Note_on_c, 0, 72, 0
3, 374332, Note_on_c, 0, 60, 24
3, 374530, Note_on_c, 0, 60, 0
3, 374624, Note_on_c, 0, 69, 38
3, 375464, Note_on_c, 0, 69, 0
3, 376438, Note_on_c, 0, 53, 29
3, 376442, Note_on_c, 0, 60, 27
3, 376452, Note_on_c, 0, 64, 24
3, 376462, Note_on_c, 0, 57, 30
3, 376796, Note_on_c, 0, 64, 0
3, 376863, Note_on_c, 0, 60, 0
3, 376900, Note_on_c, 0, 57, 0
3, 376910, Note_on_c, 0, 53, 0
3, 378279, Note_on_c, 0, 68, 79
3, 378858, Note_on_c, 0, 68, 0
3, 378952, Note_on_c, 0, 70, 59
3, 379292, Note_on_c, 0, 70, 0
3, 379888, Note_on_c, 0, 67, 72
3, 379988, Note_on_c, 0, 64, 29
3, 380042, Note_on_c, 0, 59, 34
3, 380270, Note_on_c, 0, 64, 0
3, 380358, Note_on_c, 0, 59, 0
3, 380361, Note_on_c, 0, 67, 0
3, 381974, Note_on_c, 0, 64, 29
3, 381990, Note_on_c, 0, 59, 33
3, 382101, Note_on_c, 0, 64, 0
3, 382159, Note_on_c, 0, 59, 0
3, 382186, Note_on_c, 0, 65, 82
3, 382589, Note_on_c, 0, 65, 0
3, 382783, Note_on_c, 0, 62, 56
3, 382810, Note_on_c, 0, 59, 37
3, 383046, Note_on_c, 0, 59, 0
3, 383086, Note_on_c, 0, 62, 0
3, 383231, Note_on_c, 0, 63, 33
3, 383613, Note_on_c, 0, 63, 0
3, 383670, Note_on_c, 0, 64, 60
3, 383842, Note_on_c, 0, 64, 0
3, 384007, Note_on_c, 0, 55, 34
3, 384044, Note_on_c, 0, 52, 15
3, 384050, Note_on_c, 0, 67, 68
3, 384377, Note_on_c, 0, 55, 0
3, 384779, Note_on_c, 0, 67, 0
3, 384991, Note_on_c, 0, 52, 0
3, 384991, Note_on_c, 0, 67, 72
3, 385653, Note_on_c, 0, 67, 0
3, 385986, Note_on_c, 0, 67, 46
3, 386739, Note_on_c, 0, 67, 0
3, 386920, Note_on_c, 0, 64, 46
3, 386954, Note_on_c, 0, 63, 29
3, 387104, Note_on_c, 0, 63, 0
3, 387511, Note_on_c, 0, 64, 0
3, 387854, Note_on_c, 0, 60, 42
3, 387881, Note_on_c, 0, 52, 20
3, 388513, Note_on_c, 0, 60, 0
3, 388811, Note_on_c, 0, 60, 50
3, 388842, Note_on_c, 0, 52, 0
3, 389356, Note_on_c, 0, 60, 0
3, 389755, Note_on_c, 0, 55, 39
3, 389809, Note_on_c, 0, 45, 28
3, 389856, Note_on_c, 0, 60, 46
3, 389866, Note_on_c, 0, 52, 32
3, 390041, Note_on_c, 0, 45, 0
3, 390061, Note_on_c, 0, 52, 0
3, 390159, Note_on_c, 0, 55, 0
3, 390575, Note_on_c, 0, 60, 0
3, 391405, Note_on_c, 0, 60, 37
3, 391462, Note_on_c, 0, 57, 38
3, 391533, Note_on_c, 0, 53, 33
3, 391715, Note_on_c, 0, 60, 0
3, 391725, Note_on_c, 0, 53, 0
3, 391755, Note_on_c, 0, 57, 0
3, 393414, Note_on_c, 0, 57, 47
3, 393421, Note_on_c, 0, 60, 34
3, 393428, Note_on_c, 0, 53, 34
3, 393566, Note_on_c, 0, 57, 0
3, 393569, Note_on_c, 0, 60, 0
3, 393653, Note_on_c, 0, 53, 0
3, 393713, Note_on_c, 0, 79, 82
3, 393717, Note_on_c, 0, 67, 85
3, 394426, Note_on_c, 0, 79, 0
3, 394432, Note_on_c, 0, 67, 0
3, 394718, Note_on_c, 0, 76, 57
3, 395199, Note_on_c, 0, 76, 0
3, 395387, Note_on_c, 0, 57, 55
3, 395397, Note_on_c, 0, 64, 48
3, 395404, Note_on_c, 0, 62, 56
3, 395528, Note_on_c, 0, 64, 0
3, 395548, Note_on_c, 0, 62, 0
3, 395656, Note_on_c, 0, 77, 85
3, 395669, Note_on_c, 0, 69, 80
3, 395672, Note_on_c, 0, 57, 0
3, 396462, Note_on_c, 0, 69, 0
3, 396519, Note_on_c, 0, 62, 30
3, 396536, Note_on_c, 0, 77, 0
3, 396610, Note_on_c, 0, 74, 55
3, 396694, Note_on_c, 0, 62, 0
3, 397157, Note_on_c, 0, 74, 0
3, 397275, Note_on_c, 0, 62, 57
3, 397336, Note_on_c, 0, 56, 43
3, 397420, Note_on_c, 0, 62, 0
3, 397483, Note_on_c, 0, 56, 0
3, 397487, Note_on_c, 0, 76, 87
3, 397510, Note_on_c, 0, 67, 82
3, 398142, Note_on_c, 0, 76, 0
3, 398206, Note_on_c, 0, 62, 54
3, 398209, Note_on_c, 0, 67, 0
3, 398236, Note_on_c, 0, 56, 49
3, 398468, Note_on_c, 0, 62, 0
3, 398515, Note_on_c, 0, 68, 54
3, 398522, Note_on_c, 0, 65, 54
3, 398545, Note_on_c, 0, 56, 0
3, 398844, Note_on_c, 0, 68, 0
3, 399039, Note_on_c, 0, 65, 0
3, 399197, Note_on_c, 0, 64, 44
3, 399311, Note_on_c, 0, 60, 22
3, 399338, Note_on_c, 0, 64, 0
3, 399345, Note_on_c, 0, 57, 24
3, 399436, Note_on_c, 0, 74, 83
3, 399442, Note_on_c, 0, 68, 83
3, 399446, Note_on_c, 0, 60, 0
3, 399530, Note_on_c, 0, 73, 50
3, 399570, Note_on_c, 0, 57, 0
3, 399640, Note_on_c, 0, 73, 0
3, 400111, Note_on_c, 0, 64, 28
3, 400128, Note_on_c, 0, 60, 40
3, 400228, Note_on_c, 0, 68, 0
3, 400232, Note_on_c, 0, 74, 0
3, 400239, Note_on_c, 0, 64, 0
3, 400440, Note_on_c, 0, 69, 50
3, 400447, Note_on_c, 0, 72, 50
3, 400477, Note_on_c, 0, 60, 0
3, 400921, Note_on_c, 0, 72, 0
3, 400968, Note_on_c, 0, 69, 0
3, 401394, Note_on_c, 0, 64, 46
3, 401784, Note_on_c, 0, 64, 0
3, 402231, Note_on_c, 0, 60, 50
3, 402402, Note_on_c, 0, 60, 0
3, 403330, Note_on_c, 0, 58, 62
3, 403592, Note_on_c, 0, 58, 0
3, 404852, Note_on_c, 0, 51, 50
3, 404875, Note_on_c, 0, 57, 48
3, 405080, Note_on_c, 0, 57, 0
3, 405127, Note_on_c, 0, 51, 0
3, 405870, Note_on_c, 0, 84, 61
3, 405877, Note_on_c, 0, 72, 49
3, 406135, Note_on_c, 0, 72, 0
3, 406233, Note_on_c, 0, 84, 0
3, 406713, Note_on_c, 0, 85, 78
3, 406720, Note_on_c, 0, 73, 79
3, 406740, Note_on_c, 0, 62, 43
3, 406834, Note_on_c, 0, 57, 24
3, 406881, Note_on_c, 0, 62, 0
3, 406982, Note_on_c, 0, 57, 0
3, 407268, Note_on_c, 0, 73, 0
3, 407318, Note_on_c, 0, 74, 60
3, 407321, Note_on_c, 0, 85, 0
3, 407661, Note_on_c, 0, 74, 0
3, 407778, Note_on_c, 0, 86, 47
3, 407980, Note_on_c, 0, 74, 45
3, 408077, Note_on_c, 0, 86, 0
3, 408450, Note_on_c, 0, 86, 30
3, 408497, Note_on_c, 0, 74, 0
3, 408817, Note_on_c, 0, 74, 46
3, 408820, Note_on_c, 0, 86, 0
3, 409247, Note_on_c, 0, 86, 34
3, 409287, Note_on_c, 0, 74, 0
3, 409633, Note_on_c, 0, 86, 0
3, 409707, Note_on_c, 0, 74, 39
3, 410083, Note_on_c, 0, 86, 37
3, 410174, Note_on_c, 0, 74, 0
3, 410497, Note_on_c, 0, 86, 0
3, 410527, Note_on_c, 0, 74, 35
3, 410937, Note_on_c, 0, 86, 35
3, 410964, Note_on_c, 0, 65, 37
3, 410987, Note_on_c, 0, 74, 0
3, 411001, Note_on_c, 0, 62, 32
3, 411021, Note_on_c, 0, 56, 29
3, 411112, Note_on_c, 0, 65, 0
3, 411172, Note_on_c, 0, 62, 0
3, 411209, Note_on_c, 0, 56, 0
3, 411387, Note_on_c, 0, 86, 0
3, 411394, Note_on_c, 0, 74, 31
3, 411854, Note_on_c, 0, 86, 32
3, 411881, Note_on_c, 0, 74, 0
3, 412190, Note_on_c, 0, 74, 37
3, 412207, Note_on_c, 0, 86, 0
3, 412593, Note_on_c, 0, 74, 0
3, 412687, Note_on_c, 0, 88, 68
3, 412748, Note_on_c, 0, 65, 45
3, 412785, Note_on_c, 0, 56, 42
3, 412812, Note_on_c, 0, 62, 34
3, 412899, Note_on_c, 0, 65, 0
3, 412963, Note_on_c, 0, 62, 0
3, 413017, Note_on_c, 0, 76, 50
3, 413050, Note_on_c, 0, 56, 0
3, 413070, Note_on_c, 0, 88, 0
3, 413487, Note_on_c, 0, 76, 0
3, 413494, Note_on_c, 0, 88, 43
3, 413873, Note_on_c, 0, 76, 40
3, 414018, Note_on_c, 0, 88, 0
3, 414371, Note_on_c, 0, 76, 0
3, 414515, Note_on_c, 0, 64, 50
3, 414556, Note_on_c, 0, 60, 45
3, 414559, Note_on_c, 0, 57, 47
3, 414764, Note_on_c, 0, 60, 0
3, 414781, Note_on_c, 0, 64, 0
3, 414814, Note_on_c, 0, 57, 0
3, 416494, Note_on_c, 0, 64, 48
3, 416504, Note_on_c, 0, 57, 49
3, 416592, Note_on_c, 0, 60, 29
3, 416632, Note_on_c, 0, 64, 0
3, 416736, Note_on_c, 0, 60, 0
3, 416813, Note_on_c, 0, 81, 80
3, 416827, Note_on_c, 0, 57, 0
3, 417321, Note_on_c, 0, 81, 0
3, 417385, Note_on_c, 0, 80, 62
3, 417798, Note_on_c, 0, 81, 67
3, 417842, Note_on_c, 0, 80, 0
3, 418315, Note_on_c, 0, 81, 0
3, 418517, Note_on_c, 0, 64, 32
3, 418541, Note_on_c, 0, 60, 34
3, 418631, Note_on_c, 0, 82, 71
3, 418661, Note_on_c, 0, 64, 0
3, 418705, Note_on_c, 0, 60, 0
3, 419172, Note_on_c, 0, 82, 0
3, 419283, Note_on_c, 0, 81, 47
3, 419428, Note_on_c, 0, 60, 26
3, 419619, Note_on_c, 0, 60, 0
3, 419636, Note_on_c, 0, 82, 62
3, 419680, Note_on_c, 0, 81, 0
3, 420261, Note_on_c, 0, 60, 34
3, 420271, Note_on_c, 0, 64, 25
3, 420278, Note_on_c, 0, 54, 31
3, 420301, Note_on_c, 0, 82, 0
3, 420395, Note_on_c, 0, 64, 0
3, 420506, Note_on_c, 0, 54, 0
3, 420516, Note_on_c, 0, 60, 0
3, 420543, Note_on_c, 0, 83, 66
3, 421010, Note_on_c, 0, 83, 0
3, 421098, Note_on_c, 0, 82, 49
3, 421192, Note_on_c, 0, 60, 36
3, 421437, Note_on_c, 0, 82, 0
3, 421514, Note_on_c, 0, 60, 0
3, 421575, Note_on_c, 0, 83, 56
3, 422045, Note_on_c, 0, 84, 73
3, 422052, Note_on_c, 0, 72, 60
3, 422062, Note_on_c, 0, 55, 39
3, 422072, Note_on_c, 0, 65, 39
3, 422136, Note_on_c, 0, 60, 43
3, 422166, Note_on_c, 0, 57, 36
3, 422307, Note_on_c, 0, 83, 0
3, 422630, Note_on_c, 0, 60, 0
3, 422778, Note_on_c, 0, 84, 0
3, 422956, Note_on_c, 0, 72, 0
3, 422986, Note_on_c, 0, 60, 28
3, 422989, Note_on_c, 0, 83, 54
3, 423154, Note_on_c, 0, 83, 0
3, 423197, Note_on_c, 0, 65, 0
3, 423352, Note_on_c, 0, 60, 0
3, 423355, Note_on_c, 0, 55, 0
3, 423372, Note_on_c, 0, 84, 66
3, 423403, Note_on_c, 0, 72, 51
3, 423476, Note_on_c, 0, 57, 0
3, 423722, Note_on_c, 0, 72, 0
3, 423755, Note_on_c, 0, 84, 0
3, 423903, Note_on_c, 0, 60, 34
3, 424007, Note_on_c, 0, 73, 59
3, 424011, Note_on_c, 0, 85, 71
3, 424071, Note_on_c, 0, 57, 16
3, 424303, Note_on_c, 0, 60, 0
3, 424468, Note_on_c, 0, 57, 0
3, 424646, Note_on_c, 0, 73, 0
3, 424686, Note_on_c, 0, 85, 0
3, 424871, Note_on_c, 0, 65, 24
3, 424891, Note_on_c, 0, 60, 33
3, 424914, Note_on_c, 0, 82, 44
3, 424975, Note_on_c, 0, 57, 22
3, 425012, Note_on_c, 0, 65, 0
3, 425237, Note_on_c, 0, 60, 0
3, 425301, Note_on_c, 0, 73, 57
3, 425308, Note_on_c, 0, 85, 64
3, 425311, Note_on_c, 0, 57, 0
3, 425842, Note_on_c, 0, 85, 0
3, 425852, Note_on_c, 0, 73, 0
3, 425889, Note_on_c, 0, 82, 0
3, 425902, Note_on_c, 0, 65, 31
3, 425906, Note_on_c, 0, 60, 40
3, 425973, Note_on_c, 0, 86, 71
3, 425976, Note_on_c, 0, 74, 75
3, 426047, Note_on_c, 0, 57, 22
3, 426074, Note_on_c, 0, 84, 50
3, 426077, Note_on_c, 0, 65, 0
3, 426279, Note_on_c, 0, 60, 0
3, 426333, Note_on_c, 0, 57, 0
3, 426406, Note_on_c, 0, 74, 0
3, 426453, Note_on_c, 0, 86, 0
3, 426524, Note_on_c, 0, 84, 0
3, 426890, Note_on_c, 0, 87, 71
3, 426894, Note_on_c, 0, 75, 74
3, 426934, Note_on_c, 0, 60, 49
3, 426964, Note_on_c, 0, 57, 40
3, 426967, Note_on_c, 0, 65, 39
3, 427112, Note_on_c, 0, 65, 0
3, 427173, Note_on_c, 0, 57, 0
3, 427186, Note_on_c, 0, 60, 0
3, 427260, Note_on_c, 0, 75, 0
3, 427378, Note_on_c, 0, 87, 0
3, 427750, Note_on_c, 0, 88, 61
3, 427757, Note_on_c, 0, 76, 72
3, 427777, Note_on_c, 0, 81, 57
3, 427811, Note_on_c, 0, 83, 46
3, 427821, Note_on_c, 0, 86, 47
3, 427824, Note_on_c, 0, 60, 58
3, 427831, Note_on_c, 0, 57, 53
3, 427841, Note_on_c, 0, 65, 55
3, 427868, Note_on_c, 0, 55, 44
3, 427945, Note_on_c, 0, 83, 0
3, 427952, Note_on_c, 0, 81, 0
3, 427965, Note_on_c, 0, 65, 0
3, 427969, Note_on_c, 0, 86, 0
3, 427992, Note_on_c, 0, 55, 0
3, 428002, Note_on_c, 0, 88, 0
3, 428023, Note_on_c, 0, 76, 0
3, 428090, Note_on_c, 0, 60, 0
3, 428130, Note_on_c, 0, 57, 0
3, 428278, Note_on_c, 0, 89, 70
3, 428288, Note_on_c, 0, 55, 57
3, 428291, Note_on_c, 0, 77, 71
3, 428305, Note_on_c, 0, 60, 56
3, 428308, Note_on_c, 0, 65, 33
3, 428321, Note_on_c, 0, 57, 32
3, 428533, Note_on_c, 0, 77, 0
3, 428560, Note_on_c, 0, 65, 0
3, 428634, Note_on_c, 0, 89, 0
3, 428647, Note_on_c, 0, 55, 0
3, 428812, Note_on_c, 0, 57, 0
3, 428839, Note_on_c, 0, 60, 0
3, 429027, Note_on_c, 0, 55, 51
3, 429031, Note_on_c, 0, 65, 49
3, 429041, Note_on_c, 0, 90, 74
3, 429058, Note_on_c, 0, 60, 36
3, 429068, Note_on_c, 0, 78, 71
3, 429111, Note_on_c, 0, 58, 39
3, 429131, Note_on_c, 0, 57, 22
3, 429155, Note_on_c, 0, 85, 34
3, 429246, Note_on_c, 0, 65, 0
3, 429282, Note_on_c, 0, 57, 0
3, 429299, Note_on_c, 0, 85, 0
3, 429306, Note_on_c, 0, 60, 0
3, 429343, Note_on_c, 0, 55, 0
3, 429447, Note_on_c, 0, 78, 0
3, 429494, Note_on_c, 0, 90, 0
3, 429498, Note_on_c, 0, 58, 0
3, 429656, Note_on_c, 0, 57, 61
3, 429672, Note_on_c, 0, 91, 79
3, 429686, Note_on_c, 0, 62, 67
3, 429696, Note_on_c, 0, 58, 49
3, 429703, Note_on_c, 0, 79, 69
3, 429706, Note_on_c, 0, 86, 71
3, 429726, Note_on_c, 0, 53, 50
3, 429813, Note_on_c, 0, 89, 32
3, 429995, Note_on_c, 0, 89, 0
3, 432256, Note_on_c, 0, 91, 0
3, 432367, Note_on_c, 0, 86, 0
3, 432569, Note_on_c, 0, 79, 0
3, 432619, Note_on_c, 0, 62, 0
3, 432787, Note_on_c, 0, 58, 0
3, 433083, Note_on_c, 0, 89, 66
3, 433089, Note_on_c, 0, 62, 44
3, 433106, Note_on_c, 0, 58, 47
3, 433140, Note_on_c, 0, 77, 60
3, 433429, Note_on_c, 0, 53, 0
3, 433493, Note_on_c, 0, 89, 0
3, 433587, Note_on_c, 0, 57, 0
3, 433617, Note_on_c, 0, 62, 0
3, 433677, Note_on_c, 0, 77, 0
3, 433832, Note_on_c, 0, 58, 0
3, 435888, Note_on_c, 0, 61, 48
3, 435972, Note_on_c, 0, 58, 39
3, 436194, Note_on_c, 0, 58, 0
3, 436238, Note_on_c, 0, 61, 0
3, 437367, Note_on_c, 0, 61, 51
3, 437424, Note_on_c, 0, 64, 51
3, 437521, Note_on_c, 0, 57, 36
3, 437551, Note_on_c, 0, 64, 0
3, 437746, Note_on_c, 0, 57, 0
3, 437756, Note_on_c, 0, 61, 0
3, 437884, Note_on_c, 0, 76, 96
3, 438324, Note_on_c, 0, 76, 0
3, 438438, Note_on_c, 0, 69, 64
3, 438737, Note_on_c, 0, 69, 0
3, 438875, Note_on_c, 0, 73, 37
3, 439151, Note_on_c, 0, 73, 0
3, 439315, Note_on_c, 0, 61, 47
3, 439369, Note_on_c, 0, 76, 58
3, 439712, Note_on_c, 0, 61, 0
3, 439749, Note_on_c, 0, 76, 0
3, 439789, Note_on_c, 0, 81, 58
3, 440260, Note_on_c, 0, 61, 51
3, 440394, Note_on_c, 0, 81, 0
3, 440454, Note_on_c, 0, 88, 70
3, 440616, Note_on_c, 0, 61, 0
3, 440683, Note_on_c, 0, 88, 0
3, 441029, Note_on_c, 0, 89, 61
3, 441184, Note_on_c, 0, 89, 0
3, 441617, Note_on_c, 0, 93, 64
3, 441919, Note_on_c, 0, 93, 0
3, 442232, Note_on_c, 0, 97, 53
3, 442444, Note_on_c, 0, 97, 0
3, 442682, Note_on_c, 0, 100, 72
3, 443021, Note_on_c, 0, 100, 0
3, 443357, Note_on_c, 0, 100, 76
3, 443687, Note_on_c, 0, 100, 0
3, 443929, Note_on_c, 0, 100, 69
3, 444530, Note_on_c, 0, 100, 0
3, 444644, Note_on_c, 0, 97, 48
3, 445051, Note_on_c, 0, 97, 0
3, 447067, Note_on_c, 0, 64, 67
3, 447104, Note_on_c, 0, 56, 55
3, 447124, Note_on_c, 0, 60, 38
3, 447295, Note_on_c, 0, 60, 0
3, 447312, Note_on_c, 0, 64, 0
3, 447574, Note_on_c, 0, 56, 0
3, 448152, Note_on_c, 0, 96, 66
3, 448159, Note_on_c, 0, 60, 28
3, 448307, Note_on_c, 0, 60, 0
3, 448445, Note_on_c, 0, 96, 0
3, 448542, Note_on_c, 0, 99, 71
3, 448949, Note_on_c, 0, 99, 0
3, 449076, Note_on_c, 0, 103, 81
3, 449083, Note_on_c, 0, 67, 65
3, 449106, Note_on_c, 0, 56, 53
3, 449120, Note_on_c, 0, 62, 46
3, 449604, Note_on_c, 0, 101, 67
3, 449607, Note_on_c, 0, 62, 0
3, 449765, Note_on_c, 0, 103, 0
3, 449970, Note_on_c, 0, 62, 26
3, 450054, Note_on_c, 0, 67, 0
3, 450057, Note_on_c, 0, 101, 0
3, 450098, Note_on_c, 0, 56, 0
3, 450343, Note_on_c, 0, 101, 70
3, 450545, Note_on_c, 0, 62, 0
3, 450837, Note_on_c, 0, 101, 0
3, 450995, Note_on_c, 0, 67, 45
3, 451049, Note_on_c, 0, 56, 34
3, 451096, Note_on_c, 0, 62, 46
3, 451250, Note_on_c, 0, 101, 78
3, 451267, Note_on_c, 0, 67, 0
3, 451354, Note_on_c, 0, 56, 0
3, 451566, Note_on_c, 0, 62, 0
3, 451771, Note_on_c, 0, 101, 0
3, 451784, Note_on_c, 0, 100, 62
3, 452171, Note_on_c, 0, 100, 0
3, 452262, Note_on_c, 0, 98, 35
3, 452668, Note_on_c, 0, 98, 0
3, 452786, Note_on_c, 0, 100, 71
3, 452816, Note_on_c, 0, 67, 60
3, 452846, Note_on_c, 0, 56, 70
3, 452863, Note_on_c, 0, 62, 58
3, 454429, Note_on_c, 0, 67, 0
3, 454496, Note_on_c, 0, 62, 0
3, 454634, Note_on_c, 0, 100, 0
3, 454691, Note_on_c, 0, 56, 0
3, 455030, Note_on_c, 0, 61, 65
3, 455054, Note_on_c, 0, 66, 71
3, 455074, Note_on_c, 0, 99, 64
3, 455084, Note_on_c, 0, 97, 74
3, 455118, Note_on_c, 0, 55, 49
3, 456250, Note_on_c, 0, 55, 0
3, 456277, Note_on_c, 0, 99, 0
3, 456283, Note_on_c, 0, 97, 0
3, 456414, Note_on_c, 0, 66, 0
3, 456747, Note_on_c, 0, 61, 0
3, 456976, Note_on_c, 0, 60, 61
3, 456989, Note_on_c, 0, 65, 66
3, 456999, Note_on_c, 0, 96, 92
3, 457013, Note_on_c, 0, 98, 74
3, 457016, Note_on_c, 0, 54, 62
3, 458044, Note_on_c, 0, 65, 0
3, 458108, Note_on_c, 0, 96, 0
3, 458115, Note_on_c, 0, 98, 0
3, 458131, Note_on_c, 0, 60, 0
3, 458400, Note_on_c, 0, 54, 0
3, 458484, Note_on_c, 0, 97, 75
3, 458494, Note_on_c, 0, 64, 68
3, 458498, Note_on_c, 0, 95, 80
3, 458528, Note_on_c, 0, 59, 62
3, 458531, Note_on_c, 0, 53, 58
3, 459092, Note_on_c, 0, 95, 0
3, 459119, Note_on_c, 0, 64, 0
3, 459133, Note_on_c, 0, 59, 0
3, 459183, Note_on_c, 0, 97, 0
3, 459291, Note_on_c, 0, 53, 0
3, 459828, Note_on_c, 0, 96, 84
3, 459835, Note_on_c, 0, 62, 76
3, 459842, Note_on_c, 0, 91, 88
3, 459862, Note_on_c, 0, 57, 71
3, 459875, Note_on_c, 0, 52, 71
3, 461471, Note_on_c, 0, 91, 0
3, 461538, Note_on_c, 0, 96, 0
3, 461797, Note_on_c, 0, 88, 56
3, 462214, Note_on_c, 0, 88, 0
3, 462798, Note_on_c, 0, 88, 83
3, 462866, Note_on_c, 0, 57, 0
3, 462869, Note_on_c, 0, 52, 0
3, 463088, Note_on_c, 0, 62, 0
3, 463289, Note_on_c, 0, 88, 0
3, 464630, Note_on_c, 0, 95, 89
3, 464633, Note_on_c, 0, 87, 83
3, 464636, Note_on_c, 0, 62, 79
3, 464640, Note_on_c, 0, 63, 75
3, 464647, Note_on_c, 0, 91, 76
3, 464650, Note_on_c, 0, 67, 81
3, 464653, Note_on_c, 0, 83, 90
3, 464704, Note_on_c, 0, 57, 66
3, 464744, Note_on_c, 0, 93, 33
3, 464885, Note_on_c, 0, 93, 0
3, 465167, Note_on_c, 0, 83, 0
3, 465184, Note_on_c, 0, 95, 0
3, 465188, Note_on_c, 0, 91, 0
3, 465305, Note_on_c, 0, 57, 0
3, 465325, Note_on_c, 0, 87, 0
3, 465376, Note_on_c, 0, 67, 0
3, 465456, Note_on_c, 0, 63, 0
3, 465463, Note_on_c, 0, 62, 0
3, 465634, Note_on_c, 0, 91, 60
3, 465671, Note_on_c, 0, 67, 53
3, 465698, Note_on_c, 0, 63, 61
3, 465702, Note_on_c, 0, 79, 43
3, 465705, Note_on_c, 0, 86, 54
3, 465729, Note_on_c, 0, 62, 38
3, 465776, Note_on_c, 0, 57, 37
3, 466061, Note_on_c, 0, 79, 0
3, 466098, Note_on_c, 0, 86, 0
3, 466102, Note_on_c, 0, 57, 0
3, 466118, Note_on_c, 0, 67, 0
3, 466169, Note_on_c, 0, 91, 0
3, 466172, Note_on_c, 0, 62, 0
3, 466290, Note_on_c, 0, 63, 0
3, 466673, Note_on_c, 0, 67, 60
3, 466679, Note_on_c, 0, 63, 51
3, 466686, Note_on_c, 0, 62, 43
3, 466703, Note_on_c, 0, 91, 68
3, 466733, Note_on_c, 0, 79, 60
3, 466737, Note_on_c, 0, 86, 62
3, 467009, Note_on_c, 0, 91, 0
3, 467156, Note_on_c, 0, 67, 0
3, 467187, Note_on_c, 0, 86, 0
3, 467230, Note_on_c, 0, 79, 0
3, 467338, Note_on_c, 0, 63, 0
3, 467422, Note_on_c, 0, 62, 0
3, 468548, Note_on_c, 0, 76, 71
3, 468551, Note_on_c, 0, 72, 75
3, 468578, Note_on_c, 0, 67, 80
3, 468585, Note_on_c, 0, 62, 68
3, 468591, Note_on_c, 0, 56, 77
3, 469223, Note_on_c, 0, 67, 0
3, 469253, Note_on_c, 0, 72, 0
3, 469317, Note_on_c, 0, 56, 0
3, 469398, Note_on_c, 0, 62, 0
3, 469509, Note_on_c, 0, 67, 35
3, 469556, Note_on_c, 0, 72, 48
3, 469586, Note_on_c, 0, 56, 40
3, 469602, Note_on_c, 0, 62, 52
3, 469952, Note_on_c, 0, 72, 0
3, 469959, Note_on_c, 0, 67, 0
3, 469989, Note_on_c, 0, 62, 0
3, 470009, Note_on_c, 0, 56, 0
3, 470144, Note_on_c, 0, 76, 0
3, 470520, Note_on_c, 0, 67, 54
3, 470523, Note_on_c, 0, 72, 57
3, 470553, Note_on_c, 0, 62, 51
3, 470560, Note_on_c, 0, 56, 53
3, 470853, Note_on_c, 0, 67, 0
3, 470889, Note_on_c, 0, 62, 0
3, 470987, Note_on_c, 0, 72, 0
3, 471125, Note_on_c, 0, 56, 0
3, 472381, Note_on_c, 0, 73, 68
3, 472385, Note_on_c, 0, 70, 83
3, 472388, Note_on_c, 0, 81, 80
3, 472415, Note_on_c, 0, 61, 67
3, 472422, Note_on_c, 0, 76, 64
3, 472425, Note_on_c, 0, 67, 69
3, 472452, Note_on_c, 0, 65, 72
3, 472499, Note_on_c, 0, 55, 33
3, 472559, Note_on_c, 0, 76, 0
3, 472580, Note_on_c, 0, 67, 0
3, 472633, Note_on_c, 0, 55, 0
3, 472717, Note_on_c, 0, 76, 15
3, 472838, Note_on_c, 0, 81, 0
3, 472899, Note_on_c, 0, 76, 0
3, 472939, Note_on_c, 0, 65, 0
3, 472963, Note_on_c, 0, 73, 0
3, 472996, Note_on_c, 0, 70, 0
3, 473215, Note_on_c, 0, 61, 0
3, 473900, Note_on_c, 0, 76, 62
3, 473910, Note_on_c, 0, 67, 67
3, 473930, Note_on_c, 0, 70, 68
3, 473944, Note_on_c, 0, 73, 44
3, 473994, Note_on_c, 0, 61, 60
3, 474001, Note_on_c, 0, 64, 58
3, 474535, Note_on_c, 0, 67, 0
3, 474579, Note_on_c, 0, 64, 0
3, 474592, Note_on_c, 0, 76, 0
3, 474626, Note_on_c, 0, 73, 0
3, 474676, Note_on_c, 0, 70, 0
3, 475170, Note_on_c, 0, 61, 0
3, 475281, Note_on_c, 0, 64, 82
3, 475301, Note_on_c, 0, 79, 84
3, 475301, Note_on_c, 0, 72, 81
3, 475315, Note_on_c, 0, 69, 84
3, 475368, Note_on_c, 0, 75, 39
3, 475483, Note_on_c, 0, 75, 0
3, 476104, Note_on_c, 0, 79, 0
3, 476121, Note_on_c, 0, 64, 0
3, 476161, Note_on_c, 0, 69, 0
3, 476195, Note_on_c, 0, 72, 0
3, 476729, Note_on_c, 0, 77, 75
3, 476736, Note_on_c, 0, 62, 76
3, 476742, Note_on_c, 0, 72, 79
3, 476759, Note_on_c, 0, 69, 72
3, 477283, Note_on_c, 0, 77, 0
3, 477287, Note_on_c, 0, 72, 0
3, 477411, Note_on_c, 0, 69, 0
3, 477640, Note_on_c, 0, 62, 0
3, 478056, Note_on_c, 0, 65, 54
3, 478060, Note_on_c, 0, 69, 66
3, 478090, Note_on_c, 0, 57, 62
3, 478422, Note_on_c, 0, 57, 0
3, 478500, Note_on_c, 0, 65, 0
3, 478513, Note_on_c, 0, 69, 0
3, 479541, Note_on_c, 0, 69, 66
3, 479555, Note_on_c, 0, 43, 59
3, 479585, Note_on_c, 0, 53, 49
3, 479588, Note_on_c, 0, 60, 55
3, 479598, Note_on_c, 0, 65, 47
3, 479921, Note_on_c, 0, 53, 0
3, 479928, Note_on_c, 0, 60, 0
3, 480032, Note_on_c, 0, 43, 0
3, 480069, Note_on_c, 0, 69, 0
3, 480102, Note_on_c, 0, 65, 0
3, 480986, Note_on_c, 0, 68, 54
3, 480996, Note_on_c, 0, 63, 67
3, 481033, Note_on_c, 0, 43, 51
3, 481060, Note_on_c, 0, 53, 38
3, 481063, Note_on_c, 0, 59, 47
3, 482018, Note_on_c, 0, 43, 0
3, 482058, Note_on_c, 0, 53, 0
3, 482112, Note_on_c, 0, 59, 0
3, 482256, Note_on_c, 0, 63, 0
3, 482270, Note_on_c, 0, 68, 0
3, 482508, Note_on_c, 0, 63, 47
3, 482559, Note_on_c, 0, 59, 37
3, 482592, Note_on_c, 0, 43, 44
3, 482696, Note_on_c, 0, 53, 26
3, 482992, Note_on_c, 0, 53, 0
3, 483194, Note_on_c, 0, 59, 0
3, 483426, Note_on_c, 0, 63, 0
3, 483590, Note_on_c, 0, 50, 28
3, 483832, Note_on_c, 0, 50, 0
3, 483863, Note_on_c, 0, 67, 46
3, 483868, Note_on_c, 0, 62, 51
3, 483874, Note_on_c, 0, 76, 47
3, 483883, Note_on_c, 0, 72, 53
3, 484099, Control_c, 0, 64, 127
3, 484642, Note_on_c, 0, 43, 0
3, 484977, Note_on_c, 0, 76, 0
3, 484994, Note_on_c, 0, 72, 0
3, 485187, Note_on_c, 0, 67, 0
3, 485717, Control_c, 0, 64, 0
3, 485792, Note_on_c, 0, 77, 78
3, 485801, Note_on_c, 0, 68, 68
3, 485807, Note_on_c, 0, 73, 58
3, 485835, Note_on_c, 0, 63, 68
3, 485997, Note_on_c, 0, 62, 0
3, 486498, Control_c, 0, 64, 127
3, 486564, Note_on_c, 0, 77, 0
3, 486650, Note_on_c, 0, 68, 0
3, 486699, Note_on_c, 0, 73, 0
3, 487566, Control_c, 0, 64, 0
3, 487644, Note_on_c, 0, 79, 80
3, 487653, Note_on_c, 0, 70, 83
3, 487658, Note_on_c, 0, 75, 77
3, 487693, Note_on_c, 0, 65, 66
3, 487800, Note_on_c, 0, 63, 0
3, 488145, Control_c, 0, 64, 127
3, 488358, Note_on_c, 0, 79, 0
3, 488583, Note_on_c, 0, 75, 0
3, 488658, Note_on_c, 0, 70, 0
3, 489052, Note_on_c, 0, 73, 15
3, 489153, Note_on_c, 0, 73, 0
3, 489254, Note_on_c, 0, 65, 0
3, 489787, Note_on_c, 0, 72, 47
3, 489795, Control_c, 0, 64, 0
3, 489813, Note_on_c, 0, 58, 47
3, 489816, Note_on_c, 0, 63, 29
3, 489824, Note_on_c, 0, 68, 40
3, 490887, Control_c, 0, 64, 127
3, 491163, Note_on_c, 0, 63, 0
3, 491405, Note_on_c, 0, 72, 0
3, 491440, Note_on_c, 0, 68, 0
3, 491598, Note_on_c, 0, 58, 0
3, 496921, Control_c, 0, 64, 0
3, 498277, Control_c, 0, 64, 127
3, 499265, Note_on_c, 0, 88, 48
3, 499328, Note_on_c, 0, 84, 59
3, 499348, Control_c, 0, 64, 0
3, 499495, Note_on_c, 0, 74, 28
3, 499651, Note_on_c, 0, 79, 9
3, 499896, Control_c, 0, 64, 127
3, 500376, Note_on_c, 0, 88, 0
3, 500397, Note_on_c, 0, 79, 0
3, 500402, Note_on_c, 0, 84, 0
3, 500477, Note_on_c, 0, 74, 0
3, 501241, Note_on_c, 0, 89, 56
3, 501313, Note_on_c, 0, 85, 49
3, 501318, Note_on_c, 0, 75, 35
3, 501341, Control_c, 0, 64, 0
3, 501370, Note_on_c, 0, 80, 35
3, 501776, Control_c, 0, 64, 127
3, 502200, Note_on_c, 0, 89, 0
3, 502246, Note_on_c, 0, 80, 0
3, 502318, Note_on_c, 0, 85, 0
3, 503069, Control_c, 0, 64, 0
3, 503118, Note_on_c, 0, 91, 51
3, 503153, Note_on_c, 0, 87, 42
3, 503182, Note_on_c, 0, 77, 31
3, 503222, Note_on_c, 0, 82, 33
3, 503280, Note_on_c, 0, 75, 0
3, 503473, Control_c, 0, 64, 127
3, 503617, Note_on_c, 0, 91, 0
3, 503815, Note_on_c, 0, 87, 0
3, 503893, Note_on_c, 0, 82, 0
3, 503905, Note_on_c, 0, 77, 0
3, 505025, Note_on_c, 0, 84, 46
3, 505057, Note_on_c, 0, 76, 32
3, 505123, Note_on_c, 0, 70, 39
3, 505198, Note_on_c, 0, 79, 30
3, 505206, Control_c, 0, 64, 0
3, 506390, Control_c, 0, 64, 127
3, 509025, Note_on_c, 0, 70, 0
3, 510540, Note_on_c, 0, 84, 0
3, 510770, Note_on_c, 0, 79, 0
3, 510969, Note_on_c, 0, 76, 0
3, 514641, Note_on_c, 0, 62, 62
3, 514647, Note_on_c, 0, 76, 78
3, 514650, Note_on_c, 0, 72, 76
3, 514670, Note_on_c, 0, 67, 73
3, 514722, Note_on_c, 0, 64, 29
3, 514756, Control_c, 0, 64, 0
3, 514828, Note_on_c, 0, 64, 0
3, 515396, Control_c, 0, 64, 127
3, 515865, Note_on_c, 0, 62, 0
3, 515868, Note_on_c, 0, 67, 0
3, 515885, Note_on_c, 0, 72, 0
3, 515908, Note_on_c, 0, 76, 0
3, 516623, Note_on_c, 0, 77, 58
3, 516649, Note_on_c, 0, 63, 46
3, 516654, Note_on_c, 0, 73, 43
3, 516657, Note_on_c, 0, 68, 49
3, 516726, Control_c, 0, 64, 0
3, 517245, Control_c, 0, 64, 127
3, 517608, Note_on_c, 0, 77, 0
3, 517625, Note_on_c, 0, 68, 0
3, 517700, Note_on_c, 0, 73, 0
3, 518457, Control_c, 0, 64, 0
3, 518477, Note_on_c, 0, 79, 43
3, 518483, Note_on_c, 0, 70, 33
3, 518486, Note_on_c, 0, 65, 29
3, 518497, Note_on_c, 0, 75, 42
3, 518523, Note_on_c, 0, 63, 0
3, 519004, Control_c, 0, 64, 127
3, 519151, Note_on_c, 0, 79, 0
3, 519387, Note_on_c, 0, 75, 0
3, 519442, Note_on_c, 0, 65, 0
3, 519465, Note_on_c, 0, 70, 0
3, 530098, Note_on_c, 0, 88, 41
3, 530199, Note_on_c, 0, 79, 22
3, 530208, Control_c, 0, 64, 0
3, 530210, Note_on_c, 0, 74, 29
3, 530213, Note_on_c, 0, 84, 35
3, 530637, Control_c, 0, 64, 127
3, 530905, Note_on_c, 0, 79, 0
3, 530930, Note_on_c, 0, 84, 0
3, 530959, Note_on_c, 0, 88, 0
3, 530982, Note_on_c, 0, 74, 0
3, 531933, Note_on_c, 0, 89, 35
3, 531962, Note_on_c, 0, 75, 31
3, 531967, Note_on_c, 0, 80, 25
3, 531999, Control_c, 0, 64, 0
3, 532005, Note_on_c, 0, 85, 38
3, 532258, Control_c, 0, 64, 127
3, 532589, Note_on_c, 0, 89, 0
3, 532754, Note_on_c, 0, 80, 0
3, 532854, Note_on_c, 0, 85, 0
3, 533923, Note_on_c, 0, 75, 0
3, 533957, Note_on_c, 0, 91, 41
3, 533989, Note_on_c, 0, 82, 25
3, 534003, Note_on_c, 0, 77, 30
3, 534055, Note_on_c, 0, 87, 34
3, 534107, Control_c, 0, 64, 0
3, 534741, Control_c, 0, 64, 127
3, 535026, Note_on_c, 0, 82, 0
3, 535104, Note_on_c, 0, 91, 0
3, 535155, Note_on_c, 0, 77, 0
3, 535184, Note_on_c, 0, 87, 0
3, 537906, Note_on_c, 0, 91, 34
3, 537926, Note_on_c, 0, 100, 33
3, 537949, Note_on_c, 0, 96, 40
3, 537961, Note_on_c, 0, 84, 32
3, 538243, Note_on_c, 0, 84, 0
3, 538283, Note_on_c, 0, 91, 0
3, 538416, Note_on_c, 0, 96, 0
3, 538418, Note_on_c, 0, 100, 0
3, 539720, Note_on_c, 0, 101, 30
3, 539881, Note_on_c, 0, 101, 0
3, 545328, Note_on_c, 0, 24, 32
3, 550356, Control_c, 0, 64, 0
3, 553377, Note_on_c, 0, 24, 0
3, 553377, End_track
4, 0, Start_track
4, 0, Title_t, "MIDI 1"
4, 0, Control_c, 1, 0, 0
4, 0, Control_c, 1, 7, 93
4, 1, Program_c, 1, 32
4, 122947, Note_on_c, 1, 48, 74
4, 130592, Note_on_c, 1, 38, 81
4, 130615, Note_on_c, 1, 48, 0
4, 136295, Note_on_c, 1, 43, 85
4, 136451, Note_on_c, 1, 38, 0
4, 137712, Note_on_c, 1, 43, 0
4, 137802, Note_on_c, 1, 50, 74
4, 138044, Note_on_c, 1, 50, 0
4, 138208, Note_on_c, 1, 48, 83
4, 138781, Note_on_c, 1, 48, 0
4, 139033, Note_on_c, 1, 48, 79
4, 143017, Note_on_c, 1, 45, 73
4, 143097, Note_on_c, 1, 48, 0
4, 144492, Note_on_c, 1, 45, 0
4, 144544, Note_on_c, 1, 41, 65
4, 145875, Note_on_c, 1, 41, 0
4, 145907, Note_on_c, 1, 43, 71
4, 148793, Note_on_c, 1, 40, 77
4, 148822, Note_on_c, 1, 43, 0
4, 150819, Note_on_c, 1, 47, 91
4, 150841, Note_on_c, 1, 40, 0
4, 153644, Note_on_c, 1, 47, 0
4, 153702, Note_on_c, 1, 45, 52
4, 154006, Note_on_c, 1, 45, 0
4, 154627, Note_on_c, 1, 45, 74
4, 155219, Note_on_c, 1, 45, 0
4, 155523, Note_on_c, 1, 45, 65
4, 161523, Note_on_c, 1, 45, 0
4, 164137, Note_on_c, 1, 47, 74
4, 166054, Note_on_c, 1, 41, 57
4, 166092, Note_on_c, 1, 47, 0
4, 166336, Note_on_c, 1, 41, 0
4, 167011, Note_on_c, 1, 40, 67
4, 167382, Note_on_c, 1, 40, 0
4, 167897, Note_on_c, 1, 40, 63
4, 168268, Note_on_c, 1, 40, 0
4, 168860, Note_on_c, 1, 40, 63
4, 170265, Note_on_c, 1, 40, 0
4, 170281, Note_on_c, 1, 45, 59
4, 171814, Note_on_c, 1, 45, 0
4, 171836, Note_on_c, 1, 33, 60
4, 173804, Note_on_c, 1, 38, 72
4, 173910, Note_on_c, 1, 33, 0
4, 175324, Note_on_c, 1, 42, 58
4, 175542, Note_on_c, 1, 38, 0
4, 176425, Note_on_c, 1, 42, 0
4, 176611, Note_on_c, 1, 43, 65
4, 177836, Note_on_c, 1, 43, 0
4, 178076, Note_on_c, 1, 32, 70
4, 179475, Note_on_c, 1, 32, 0
4, 179571, Note_on_c, 1, 31, 74
4, 187085, Note_on_c, 1, 31, 0
4, 187097, Note_on_c, 1, 43, 66
4, 187734, Note_on_c, 1, 42, 59
4, 187766, Note_on_c, 1, 43, 0
4, 188160, Note_on_c, 1, 42, 0
4, 188166, Note_on_c, 1, 43, 61
4, 189497, Note_on_c, 1, 43, 0
4, 189571, Note_on_c, 1, 36, 63
4, 190854, Note_on_c, 1, 36, 0
4, 191030, Note_on_c, 1, 40, 69
4, 191945, Note_on_c, 1, 40, 0
4, 191952, Note_on_c, 1, 41, 65
4, 195856, Note_on_c, 1, 50, 70
4, 195897, Note_on_c, 1, 41, 0
4, 196320, Note_on_c, 1, 50, 0
4, 196483, Note_on_c, 1, 48, 51
4, 196758, Note_on_c, 1, 48, 0
4, 196880, Note_on_c, 1, 50, 68
4, 198784, Note_on_c, 1, 50, 0
4, 198800, Note_on_c, 1, 48, 66
4, 200652, Note_on_c, 1, 48, 0
4, 200716, Note_on_c, 1, 50, 67
4, 201164, Note_on_c, 1, 50, 0
4, 201254, Note_on_c, 1, 48, 58
4, 201683, Note_on_c, 1, 50, 75
4, 201782, Note_on_c, 1, 48, 0
4, 203625, Note_on_c, 1, 48, 70
4, 203628, Note_on_c, 1, 50, 0
4, 205385, Note_on_c, 1, 48, 0
4, 205500, Note_on_c, 1, 50, 64
4, 205916, Note_on_c, 1, 50, 0
4, 206060, Note_on_c, 1, 48, 46
4, 206281, Note_on_c, 1, 48, 0
4, 206393, Note_on_c, 1, 50, 69
4, 207065, Note_on_c, 1, 50, 0
4, 207430, Note_on_c, 1, 52, 75
4, 209232, Note_on_c, 1, 45, 71
4, 209244, Note_on_c, 1, 52, 0
4, 212137, Note_on_c, 1, 45, 0
4, 212208, Note_on_c, 1, 50, 75
4, 214073, Note_on_c, 1, 50, 0
4, 214128, Note_on_c, 1, 43, 57
4, 214982, Note_on_c, 1, 43, 0
4, 215084, Note_on_c, 1, 48, 73
4, 215520, Note_on_c, 1, 48, 0
4, 216057, Note_on_c, 1, 48, 77
4, 216716, Note_on_c, 1, 48, 0
4, 217017, Note_on_c, 1, 48, 77
4, 224489, Note_on_c, 1, 48, 0
4, 224630, Note_on_c, 1, 62, 86
4, 224633, Note_on_c, 1, 46, 74
4, 226086, Note_on_c, 1, 61, 85
4, 226089, Note_on_c, 1, 46, 0
4, 226134, Note_on_c, 1, 62, 0
4, 226156, Note_on_c, 1, 45, 69
4, 228860, Note_on_c, 1, 44, 50
4, 228995, Note_on_c, 1, 61, 0
4, 229104, Note_on_c, 1, 45, 0
4, 229251, Note_on_c, 1, 49, 58
4, 229417, Note_on_c, 1, 44, 0
4, 230124, Note_on_c, 1, 49, 0
4, 230316, Note_on_c, 1, 50, 66
4, 233200, Note_on_c, 1, 44, 72
4, 233219, Note_on_c, 1, 50, 0
4, 236057, Note_on_c, 1, 44, 0
4, 236163, Note_on_c, 1, 43, 59
4, 238025, Note_on_c, 1, 31, 64
4, 238352, Note_on_c, 1, 31, 0
4, 238905, Note_on_c, 1, 31, 74
4, 239446, Note_on_c, 1, 43, 0
4, 242838, Note_on_c, 1, 43, 65
4, 245785, Note_on_c, 1, 43, 0
4, 245797, Note_on_c, 1, 38, 49
4, 245811, Note_on_c, 1, 36, 73
4, 245824, Note_on_c, 1, 31, 0
4, 245909, Note_on_c, 1, 38, 0
4, 246675, Note_on_c, 1, 38, 59
4, 246684, Note_on_c, 1, 36, 0
4, 247696, Note_on_c, 1, 38, 0
4, 247744, Note_on_c, 1, 40, 52
4, 248644, Note_on_c, 1, 40, 0
4, 248708, Note_on_c, 1, 36, 54
4, 249559, Note_on_c, 1, 36, 0
4, 249681, Note_on_c, 1, 33, 51
4, 250635, Note_on_c, 1, 33, 0
4, 250722, Note_on_c, 1, 40, 49
4, 251544, Note_on_c, 1, 40, 0
4, 251651, Note_on_c, 1, 36, 57
4, 252508, Note_on_c, 1, 36, 0
4, 252563, Note_on_c, 1, 37, 80
4, 253353, Note_on_c, 1, 37, 0
4, 253554, Note_on_c, 1, 38, 69
4, 254463, Note_on_c, 1, 52, 66
4, 254514, Note_on_c, 1, 38, 0
4, 255439, Note_on_c, 1, 52, 0
4, 255480, Note_on_c, 1, 50, 69
4, 256418, Note_on_c, 1, 49, 80
4, 256539, Note_on_c, 1, 50, 0
4, 257275, Note_on_c, 1, 49, 0
4, 257394, Note_on_c, 1, 50, 75
4, 258323, Note_on_c, 1, 50, 0
4, 258374, Note_on_c, 1, 42, 84
4, 259330, Note_on_c, 1, 43, 75
4, 259388, Note_on_c, 1, 42, 0
4, 260153, Note_on_c, 1, 43, 0
4, 260332, Note_on_c, 1, 35, 77
4, 261125, Note_on_c, 1, 35, 0
4, 261199, Note_on_c, 1, 36, 61
4, 261954, Note_on_c, 1, 36, 0
4, 262146, Note_on_c, 1, 36, 77
4, 262943, Note_on_c, 1, 36, 0
4, 263058, Note_on_c, 1, 34, 67
4, 263851, Note_on_c, 1, 34, 0
4, 264019, Note_on_c, 1, 34, 71
4, 264931, Note_on_c, 1, 34, 0
4, 264969, Note_on_c, 1, 33, 67
4, 265923, Note_on_c, 1, 33, 0
4, 265939, Note_on_c, 1, 40, 67
4, 266854, Note_on_c, 1, 36, 60
4, 266857, Note_on_c, 1, 40, 0
4, 267763, Note_on_c, 1, 36, 0
4, 267846, Note_on_c, 1, 37, 65
4, 268758, Note_on_c, 1, 37, 0
4, 268796, Note_on_c, 1, 38, 66
4, 269728, Note_on_c, 1, 45, 83
4, 269776, Note_on_c, 1, 38, 0
4, 270620, Note_on_c, 1, 45, 0
4, 270739, Note_on_c, 1, 46, 77
4, 271536, Note_on_c, 1, 46, 0
4, 271702, Note_on_c, 1, 48, 77
4, 272512, Note_on_c, 1, 48, 0
4, 272668, Note_on_c, 1, 46, 63
4, 273475, Note_on_c, 1, 46, 0
4, 273612, Note_on_c, 1, 47, 68
4, 274531, Note_on_c, 1, 40, 58
4, 274611, Note_on_c, 1, 47, 0
4, 275353, Note_on_c, 1, 40, 0
4, 275475, Note_on_c, 1, 34, 63
4, 276454, Note_on_c, 1, 33, 69
4, 276470, Note_on_c, 1, 34, 0
4, 277280, Note_on_c, 1, 33, 0
4, 277475, Note_on_c, 1, 36, 54
4, 278342, Note_on_c, 1, 36, 0
4, 278393, Note_on_c, 1, 40, 52
4, 279308, Note_on_c, 1, 40, 0
4, 279353, Note_on_c, 1, 31, 46
4, 280307, Note_on_c, 1, 30, 75
4, 280441, Note_on_c, 1, 31, 0
4, 281222, Note_on_c, 1, 30, 0
4, 281305, Note_on_c, 1, 35, 64
4, 282060, Note_on_c, 1, 35, 0
4, 282233, Note_on_c, 1, 41, 64
4, 282249, Note_on_c, 1, 40, 56
4, 282892, Note_on_c, 1, 41, 0
4, 282924, Note_on_c, 1, 40, 0
4, 283206, Note_on_c, 1, 34, 74
4, 284019, Note_on_c, 1, 34, 0
4, 284147, Note_on_c, 1, 35, 65
4, 284963, Note_on_c, 1, 34, 39
4, 285123, Note_on_c, 1, 34, 0
4, 285164, Note_on_c, 1, 47, 58
4, 285228, Note_on_c, 1, 35, 0
4, 286041, Note_on_c, 1, 47, 0
4, 286172, Note_on_c, 1, 41, 58
4, 286256, Note_on_c, 1, 43, 32
4, 286880, Note_on_c, 1, 43, 0
4, 286908, Note_on_c, 1, 41, 0
4, 286940, Note_on_c, 1, 38, 69
4, 287843, Note_on_c, 1, 38, 0
4, 287945, Note_on_c, 1, 40, 57
4, 288867, Note_on_c, 1, 40, 0
4, 288937, Note_on_c, 1, 44, 70
4, 289740, Note_on_c, 1, 44, 0
4, 289920, Note_on_c, 1, 52, 70
4, 290579, Note_on_c, 1, 40, 38
4, 290726, Note_on_c, 1, 52, 0
4, 290764, Note_on_c, 1, 40, 0
4, 290912, Note_on_c, 1, 50, 71
4, 291718, Note_on_c, 1, 50, 0
4, 291884, Note_on_c, 1, 48, 63
4, 292688, Note_on_c, 1, 48, 0
4, 292812, Note_on_c, 1, 47, 50
4, 293708, Note_on_c, 1, 47, 0
4, 293753, Note_on_c, 1, 45, 62
4, 294662, Note_on_c, 1, 39, 67
4, 294710, Note_on_c, 1, 45, 0
4, 295638, Note_on_c, 1, 38, 65
4, 295734, Note_on_c, 1, 39, 0
4, 297513, Note_on_c, 1, 38, 0
4, 297558, Note_on_c, 1, 50, 88
4, 298272, Note_on_c, 1, 39, 50
4, 298396, Note_on_c, 1, 39, 0
4, 298512, Note_on_c, 1, 49, 67
4, 298672, Note_on_c, 1, 50, 0
4, 299408, Note_on_c, 1, 49, 0
4, 299523, Note_on_c, 1, 48, 65
4, 300464, Note_on_c, 1, 44, 58
4, 300473, Note_on_c, 1, 48, 0
4, 301337, Note_on_c, 1, 44, 0
4, 301395, Note_on_c, 1, 41, 53
4, 302345, Note_on_c, 1, 41, 0
4, 302416, Note_on_c, 1, 42, 59
4, 303241, Note_on_c, 1, 42, 0
4, 303350, Note_on_c, 1, 43, 64
4, 304320, Note_on_c, 1, 43, 0
4, 304348, Note_on_c, 1, 31, 69
4, 305219, Note_on_c, 1, 31, 0
4, 305331, Note_on_c, 1, 43, 61
4, 306288, Note_on_c, 1, 42, 67
4, 306409, Note_on_c, 1, 43, 0
4, 307136, Note_on_c, 1, 42, 0
4, 307241, Note_on_c, 1, 43, 61
4, 308192, Note_on_c, 1, 31, 60
4, 308236, Note_on_c, 1, 43, 0
4, 309120, Note_on_c, 1, 31, 0
4, 309168, Note_on_c, 1, 43, 63
4, 310131, Note_on_c, 1, 43, 0
4, 310153, Note_on_c, 1, 42, 63
4, 311046, Note_on_c, 1, 42, 0
4, 311142, Note_on_c, 1, 43, 61
4, 312086, Note_on_c, 1, 35, 58
4, 312112, Note_on_c, 1, 43, 0
4, 312940, Note_on_c, 1, 35, 0
4, 313072, Note_on_c, 1, 36, 63
4, 313884, Note_on_c, 1, 36, 0
4, 313977, Note_on_c, 1, 40, 60
4, 314550, Note_on_c, 1, 40, 0
4, 314870, Note_on_c, 1, 41, 53
4, 315734, Note_on_c, 1, 41, 0
4, 315795, Note_on_c, 1, 36, 55
4, 316512, Note_on_c, 1, 36, 0
4, 316771, Note_on_c, 1, 33, 59
4, 317676, Note_on_c, 1, 33, 0
4, 317686, Note_on_c, 1, 31, 55
4, 318512, Note_on_c, 1, 31, 0
4, 318691, Note_on_c, 1, 29, 52
4, 319577, Note_on_c, 1, 29, 0
4, 319660, Note_on_c, 1, 36, 58
4, 320521, Note_on_c, 1, 36, 0
4, 320601, Note_on_c, 1, 40, 54
4, 321417, Note_on_c, 1, 40, 0
4, 321622, Note_on_c, 1, 36, 54
4, 322476, Note_on_c, 1, 36, 0
4, 322576, Note_on_c, 1, 41, 65
4, 323484, Note_on_c, 1, 46, 74
4, 323516, Note_on_c, 1, 41, 0
4, 324451, Note_on_c, 1, 46, 0
4, 324508, Note_on_c, 1, 41, 35
4, 325174, Note_on_c, 1, 41, 0
4, 325459, Note_on_c, 1, 46, 70
4, 326480, Note_on_c, 1, 34, 59
4, 326505, Note_on_c, 1, 46, 0
4, 327078, Note_on_c, 1, 34, 0
4, 327299, Note_on_c, 1, 34, 52
4, 328240, Note_on_c, 1, 34, 0
4, 328278, Note_on_c, 1, 46, 70
4, 329206, Note_on_c, 1, 39, 70
4, 329299, Note_on_c, 1, 46, 0
4, 330185, Note_on_c, 1, 40, 65
4, 330230, Note_on_c, 1, 39, 0
4, 331155, Note_on_c, 1, 56, 80
4, 332003, Note_on_c, 1, 56, 0
4, 332041, Note_on_c, 1, 40, 0
4, 332179, Note_on_c, 1, 55, 66
4, 333036, Note_on_c, 1, 55, 0
4, 333238, Note_on_c, 1, 52, 67
4, 333625, Note_on_c, 1, 52, 0
4, 334086, Note_on_c, 1, 40, 30
4, 334217, Note_on_c, 1, 54, 60
4, 334230, Note_on_c, 1, 40, 0
4, 335113, Note_on_c, 1, 50, 67
4, 335382, Note_on_c, 1, 54, 0
4, 335712, Note_on_c, 1, 50, 0
4, 335875, Note_on_c, 1, 42, 24
4, 335980, Note_on_c, 1, 42, 0
4, 336009, Note_on_c, 1, 52, 69
4, 336819, Note_on_c, 1, 52, 0
4, 336956, Note_on_c, 1, 47, 54
4, 337734, Note_on_c, 1, 47, 0
4, 337913, Note_on_c, 1, 48, 64
4, 338518, Note_on_c, 1, 48, 0
4, 338800, Note_on_c, 1, 48, 63
4, 339814, Note_on_c, 1, 43, 54
4, 340435, Note_on_c, 1, 43, 0
4, 340700, Note_on_c, 1, 42, 47
4, 340803, Note_on_c, 1, 48, 0
4, 341536, Note_on_c, 1, 42, 0
4, 341664, Note_on_c, 1, 41, 53
4, 342416, Note_on_c, 1, 41, 0
4, 342643, Note_on_c, 1, 41, 60
4, 343664, Note_on_c, 1, 41, 0
4, 343712, Note_on_c, 1, 36, 56
4, 344368, Note_on_c, 1, 36, 0
4, 344611, Note_on_c, 1, 36, 56
4, 345440, Note_on_c, 1, 36, 0
4, 345596, Note_on_c, 1, 34, 53
4, 346521, Note_on_c, 1, 41, 57
4, 346793, Note_on_c, 1, 34, 0
4, 347395, Note_on_c, 1, 41, 0
4, 347475, Note_on_c, 1, 38, 54
4, 348265, Note_on_c, 1, 38, 0
4, 348441, Note_on_c, 1, 39, 68
4, 349308, Note_on_c, 1, 39, 0
4, 349420, Note_on_c, 1, 40, 58
4, 350332, Note_on_c, 1, 34, 56
4, 350364, Note_on_c, 1, 40, 0
4, 351222, Note_on_c, 1, 34, 0
4, 351283, Note_on_c, 1, 33, 60
4, 352224, Note_on_c, 1, 37, 60
4, 352240, Note_on_c, 1, 33, 0
4, 353225, Note_on_c, 1, 37, 0
4, 353241, Note_on_c, 1, 38, 61
4, 354188, Note_on_c, 1, 45, 84
4, 354297, Note_on_c, 1, 38, 0
4, 354979, Note_on_c, 1, 45, 0
4, 355168, Note_on_c, 1, 41, 73
4, 355942, Note_on_c, 1, 39, 48
4, 355948, Note_on_c, 1, 41, 0
4, 356134, Note_on_c, 1, 48, 76
4, 356208, Note_on_c, 1, 39, 0
4, 356822, Note_on_c, 1, 39, 36
4, 356944, Note_on_c, 1, 39, 0
4, 357056, Note_on_c, 1, 48, 0
4, 357072, Note_on_c, 1, 45, 58
4, 357833, Note_on_c, 1, 38, 29
4, 357865, Note_on_c, 1, 45, 0
4, 357980, Note_on_c, 1, 38, 0
4, 358019, Note_on_c, 1, 46, 56
4, 358518, Note_on_c, 1, 39, 43
4, 358627, Note_on_c, 1, 39, 0
4, 358969, Note_on_c, 1, 46, 0
4, 358972, Note_on_c, 1, 47, 56
4, 359686, Note_on_c, 1, 47, 0
4, 359900, Note_on_c, 1, 50, 72
4, 360665, Note_on_c, 1, 50, 0
4, 360908, Note_on_c, 1, 53, 70
4, 361740, Note_on_c, 1, 53, 0
4, 361747, Note_on_c, 1, 43, 23
4, 361878, Note_on_c, 1, 43, 0
4, 361900, Note_on_c, 1, 52, 63
4, 362841, Note_on_c, 1, 48, 59
4, 363708, Note_on_c, 1, 48, 0
4, 363760, Note_on_c, 1, 41, 69
4, 363785, Note_on_c, 1, 52, 0
4, 364483, Note_on_c, 1, 41, 0
4, 364691, Note_on_c, 1, 42, 58
4, 365596, Note_on_c, 1, 42, 0
4, 365702, Note_on_c, 1, 43, 61
4, 366633, Note_on_c, 1, 31, 61
4, 366662, Note_on_c, 1, 43, 0
4, 367408, Note_on_c, 1, 31, 0
4, 367622, Note_on_c, 1, 31, 61
4, 367974, Note_on_c, 1, 31, 0
4, 368746, Note_on_c, 1, 48, 47
4, 369634, Note_on_c, 1, 48, 0
4, 369695, Note_on_c, 1, 39, 46
4, 370597, Note_on_c, 1, 39, 0
4, 370692, Note_on_c, 1, 40, 50
4, 371644, Note_on_c, 1, 40, 0
4, 371671, Note_on_c, 1, 43, 46
4, 372542, Note_on_c, 1, 43, 0
4, 372569, Note_on_c, 1, 40, 52
4, 373448, Note_on_c, 1, 40, 0
4, 373483, Note_on_c, 1, 36, 50
4, 374318, Note_on_c, 1, 36, 0
4, 374421, Note_on_c, 1, 33, 47
4, 375384, Note_on_c, 1, 37, 55
4, 375428, Note_on_c, 1, 33, 0
4, 376374, Note_on_c, 1, 37, 0
4, 376404, Note_on_c, 1, 38, 45
4, 377324, Note_on_c, 1, 47, 83
4, 377419, Note_on_c, 1, 38, 0
4, 378354, Note_on_c, 1, 46, 58
4, 378403, Note_on_c, 1, 47, 0
4, 379111, Note_on_c, 1, 46, 0
4, 379320, Note_on_c, 1, 45, 57
4, 380169, Note_on_c, 1, 45, 0
4, 380204, Note_on_c, 1, 44, 58
4, 381091, Note_on_c, 1, 44, 0
4, 381189, Note_on_c, 1, 43, 50
4, 382130, Note_on_c, 1, 43, 0
4, 382171, Note_on_c, 1, 41, 49
4, 383098, Note_on_c, 1, 35, 52
4, 383106, Note_on_c, 1, 41, 0
4, 383996, Note_on_c, 1, 35, 0
4, 384015, Note_on_c, 1, 36, 52
4, 384980, Note_on_c, 1, 36, 0
4, 385021, Note_on_c, 1, 38, 48
4, 385924, Note_on_c, 1, 40, 49
4, 385932, Note_on_c, 1, 38, 0
4, 386689, Note_on_c, 1, 35, 42
4, 386773, Note_on_c, 1, 40, 0
4, 386849, Note_on_c, 1, 35, 0
4, 386917, Note_on_c, 1, 47, 58
4, 387904, Note_on_c, 1, 45, 58
4, 387997, Note_on_c, 1, 47, 0
4, 388788, Note_on_c, 1, 45, 0
4, 388818, Note_on_c, 1, 40, 42
4, 389754, Note_on_c, 1, 40, 0
4, 389781, Note_on_c, 1, 33, 47
4, 390793, Note_on_c, 1, 37, 49
4, 390796, Note_on_c, 1, 33, 0
4, 391669, Note_on_c, 1, 37, 0
4, 391707, Note_on_c, 1, 38, 51
4, 392686, Note_on_c, 1, 52, 81
4, 392817, Note_on_c, 1, 38, 0
4, 393625, Note_on_c, 1, 52, 0
4, 393657, Note_on_c, 1, 50, 56
4, 394500, Note_on_c, 1, 50, 0
4, 394585, Note_on_c, 1, 46, 50
4, 395461, Note_on_c, 1, 46, 0
4, 395567, Note_on_c, 1, 47, 47
4, 396464, Note_on_c, 1, 47, 0
4, 396529, Note_on_c, 1, 39, 59
4, 397400, Note_on_c, 1, 39, 0
4, 397525, Note_on_c, 1, 40, 45
4, 398472, Note_on_c, 1, 40, 0
4, 398474, Note_on_c, 1, 34, 46
4, 399399, Note_on_c, 1, 34, 0
4, 399437, Note_on_c, 1, 33, 53
4, 400172, Note_on_c, 1, 33, 0
4, 400370, Note_on_c, 1, 33, 47
4, 401260, Note_on_c, 1, 33, 0
4, 401379, Note_on_c, 1, 36, 57
4, 402307, Note_on_c, 1, 36, 0
4, 402348, Note_on_c, 1, 40, 52
4, 403256, Note_on_c, 1, 40, 0
4, 403289, Note_on_c, 1, 42, 51
4, 404246, Note_on_c, 1, 32, 37
4, 404312, Note_on_c, 1, 42, 0
4, 404344, Note_on_c, 1, 30, 31
4, 404526, Note_on_c, 1, 32, 0
4, 405130, Note_on_c, 1, 30, 0
4, 405171, Note_on_c, 1, 40, 52
4, 406069, Note_on_c, 1, 40, 0
4, 406147, Note_on_c, 1, 34, 58
4, 407026, Note_on_c, 1, 34, 0
4, 407078, Note_on_c, 1, 35, 47
4, 407975, Note_on_c, 1, 35, 0
4, 408119, Note_on_c, 1, 47, 82
4, 408979, Note_on_c, 1, 47, 0
4, 409001, Note_on_c, 1, 38, 39
4, 409912, Note_on_c, 1, 39, 62
4, 409934, Note_on_c, 1, 38, 0
4, 410788, Note_on_c, 1, 39, 0
4, 410937, Note_on_c, 1, 40, 52
4, 411884, Note_on_c, 1, 52, 97
4, 411933, Note_on_c, 1, 40, 0
4, 412798, Note_on_c, 1, 52, 0
4, 412833, Note_on_c, 1, 50, 69
4, 414065, Note_on_c, 1, 47, 27
4, 414087, Note_on_c, 1, 50, 0
4, 414196, Note_on_c, 1, 47, 0
4, 414794, Note_on_c, 1, 48, 75
4, 415684, Note_on_c, 1, 48, 0
4, 415735, Note_on_c, 1, 45, 56
4, 416660, Note_on_c, 1, 45, 0
4, 416758, Note_on_c, 1, 40, 41
4, 417574, Note_on_c, 1, 40, 0
4, 417582, Note_on_c, 1, 37, 64
4, 418559, Note_on_c, 1, 37, 0
4, 418613, Note_on_c, 1, 38, 65
4, 419358, Note_on_c, 1, 38, 0
4, 419535, Note_on_c, 1, 38, 73
4, 420414, Note_on_c, 1, 38, 0
4, 420506, Note_on_c, 1, 40, 55
4, 421415, Note_on_c, 1, 40, 0
4, 421502, Note_on_c, 1, 41, 56
4, 421967, Note_on_c, 1, 41, 0
4, 422040, Note_on_c, 1, 42, 51
4, 422296, Note_on_c, 1, 42, 0
4, 422399, Note_on_c, 1, 43, 53
4, 423330, Note_on_c, 1, 31, 57
4, 423335, Note_on_c, 1, 43, 0
4, 424246, Note_on_c, 1, 31, 0
4, 424322, Note_on_c, 1, 33, 63
4, 425283, Note_on_c, 1, 34, 70
4, 425332, Note_on_c, 1, 33, 0
4, 426123, Note_on_c, 1, 34, 0
4, 426240, Note_on_c, 1, 35, 56
4, 427078, Note_on_c, 1, 35, 0
4, 427211, Note_on_c, 1, 29, 61
4, 428188, Note_on_c, 1, 30, 63
4, 428275, Note_on_c, 1, 29, 0
4, 428944, Note_on_c, 1, 30, 0
4, 429129, Note_on_c, 1, 30, 51
4, 430048, Note_on_c, 1, 30, 0
4, 430127, Note_on_c, 1, 31, 61
4, 431112, Note_on_c, 1, 50, 94
4, 431169, Note_on_c, 1, 31, 0
4, 432099, Note_on_c, 1, 43, 50
4, 432314, Note_on_c, 1, 50, 0
4, 432934, Note_on_c, 1, 43, 0
4, 433016, Note_on_c, 1, 37, 60
4, 433992, Note_on_c, 1, 37, 0
4, 434033, Note_on_c, 1, 36, 51
4, 434952, Note_on_c, 1, 50, 94
4, 435066, Note_on_c, 1, 36, 0
4, 435863, Note_on_c, 1, 50, 0
4, 435948, Note_on_c, 1, 48, 63
4, 436818, Note_on_c, 1, 48, 0
4, 436837, Note_on_c, 1, 40, 61
4, 437743, Note_on_c, 1, 40, 0
4, 437751, Note_on_c, 1, 41, 54
4, 438733, Note_on_c, 1, 50, 82
4, 438785, Note_on_c, 1, 52, 67
4, 438839, Note_on_c, 1, 41, 0
4, 438877, Note_on_c, 1, 52, 0
4, 439718, Note_on_c, 1, 48, 65
4, 439821, Note_on_c, 1, 50, 0
4, 440390, Note_on_c, 1, 40, 35
4, 440547, Note_on_c, 1, 40, 0
4, 440594, Note_on_c, 1, 48, 0
4, 440670, Note_on_c, 1, 44, 50
4, 441546, Note_on_c, 1, 44, 0
4, 441622, Note_on_c, 1, 45, 61
4, 442525, Note_on_c, 1, 45, 0
4, 442574, Note_on_c, 1, 40, 58
4, 443401, Note_on_c, 1, 40, 0
4, 443515, Note_on_c, 1, 41, 54
4, 444456, Note_on_c, 1, 30, 62
4, 444494, Note_on_c, 1, 41, 0
4, 445403, Note_on_c, 1, 30, 0
4, 445479, Note_on_c, 1, 29, 56
4, 446235, Note_on_c, 1, 29, 0
4, 446406, Note_on_c, 1, 29, 56
4, 447361, Note_on_c, 1, 29, 0
4, 447385, Note_on_c, 1, 32, 65
4, 448120, Note_on_c, 1, 32, 0
4, 448318, Note_on_c, 1, 32, 60
4, 449238, Note_on_c, 1, 32, 0
4, 449327, Note_on_c, 1, 34, 59
4, 450062, Note_on_c, 1, 34, 0
4, 450288, Note_on_c, 1, 34, 49
4, 451144, Note_on_c, 1, 34, 0
4, 451210, Note_on_c, 1, 41, 64
4, 452105, Note_on_c, 1, 41, 0
4, 452173, Note_on_c, 1, 39, 64
4, 453038, Note_on_c, 1, 39, 0
4, 453144, Note_on_c, 1, 40, 55
4, 453987, Note_on_c, 1, 39, 31
4, 454049, Note_on_c, 1, 44, 62
4, 454161, Note_on_c, 1, 39, 0
4, 454710, Note_on_c, 1, 40, 0
4, 454920, Note_on_c, 1, 44, 0
4, 455088, Note_on_c, 1, 45, 58
4, 455926, Note_on_c, 1, 45, 0
4, 455997, Note_on_c, 1, 37, 63
4, 456897, Note_on_c, 1, 37, 0
4, 456941, Note_on_c, 1, 38, 65
4, 457662, Note_on_c, 1, 37, 51
4, 457893, Note_on_c, 1, 37, 0
4, 457906, Note_on_c, 1, 38, 0
4, 457944, Note_on_c, 1, 44, 74
4, 458899, Note_on_c, 1, 44, 0
4, 458905, Note_on_c, 1, 43, 49
4, 459726, Note_on_c, 1, 43, 0
4, 459827, Note_on_c, 1, 35, 67
4, 460798, Note_on_c, 1, 35, 0
4, 460849, Note_on_c, 1, 36, 63
4, 461771, Note_on_c, 1, 36, 0
4, 461807, Note_on_c, 1, 38, 56
4, 462751, Note_on_c, 1, 40, 54
4, 462789, Note_on_c, 1, 38, 0
4, 463624, Note_on_c, 1, 53, 64
4, 463757, Note_on_c, 1, 40, 0
4, 464519, Note_on_c, 1, 53, 0
4, 464660, Note_on_c, 1, 51, 67
4, 465631, Note_on_c, 1, 48, 57
4, 466485, Note_on_c, 1, 48, 0
4, 466605, Note_on_c, 1, 43, 47
4, 466700, Note_on_c, 1, 51, 0
4, 467323, Note_on_c, 1, 43, 0
4, 467497, Note_on_c, 1, 41, 68
4, 468354, Note_on_c, 1, 41, 0
4, 468550, Note_on_c, 1, 46, 58
4, 469439, Note_on_c, 1, 41, 50
4, 469494, Note_on_c, 1, 46, 0
4, 470337, Note_on_c, 1, 41, 0
4, 470386, Note_on_c, 1, 34, 48
4, 471161, Note_on_c, 1, 34, 0
4, 471378, Note_on_c, 1, 34, 46
4, 472262, Note_on_c, 1, 34, 0
4, 472366, Note_on_c, 1, 33, 47
4, 473337, Note_on_c, 1, 35, 58
4, 473348, Note_on_c, 1, 33, 0
4, 474142, Note_on_c, 1, 35, 0
4, 474234, Note_on_c, 1, 36, 54
4, 475108, Note_on_c, 1, 36, 0
4, 475173, Note_on_c, 1, 37, 49
4, 476051, Note_on_c, 1, 37, 0
4, 476147, Note_on_c, 1, 38, 55
4, 476797, Note_on_c, 1, 37, 54
4, 477014, Note_on_c, 1, 38, 0
4, 477123, Note_on_c, 1, 37, 0
4, 477188, Note_on_c, 1, 45, 61
4, 477838, Note_on_c, 1, 38, 22
4, 477947, Note_on_c, 1, 38, 0
4, 478097, Note_on_c, 1, 45, 0
4, 478110, Note_on_c, 1, 41, 49
4, 478929, Note_on_c, 1, 41, 0
4, 478940, Note_on_c, 1, 38, 25
4, 479043, Note_on_c, 1, 42, 51
4, 479095, Note_on_c, 1, 38, 0
4, 479938, Note_on_c, 1, 42, 0
4, 480028, Note_on_c, 1, 43, 46
4, 480947, Note_on_c, 1, 43, 0
4, 480953, Note_on_c, 1, 32, 59
4, 481899, Note_on_c, 1, 32, 0
4, 481957, Note_on_c, 1, 31, 51
4, 482852, Note_on_c, 1, 31, 0
4, 482857, Note_on_c, 1, 35, 52
4, 483717, Note_on_c, 1, 35, 0
4, 484053, Note_on_c, 1, 48, 84
4, 492028, Note_on_c, 1, 36, 47
4, 492074, Note_on_c, 1, 48, 0
4, 498372, Note_on_c, 1, 31, 35
4, 498468, Note_on_c, 1, 36, 0
4, 499387, Note_on_c, 1, 31, 0
4, 499450, Note_on_c, 1, 36, 48
4, 504292, Note_on_c, 1, 50, 56
4, 505190, Note_on_c, 1, 50, 0
4, 505390, Note_on_c, 1, 48, 30
4, 513718, Note_on_c, 1, 48, 0
4, 513789, Note_on_c, 1, 31, 42
4, 513822, Note_on_c, 1, 36, 0
4, 514837, Note_on_c, 1, 31, 0
4, 514895, Note_on_c, 1, 36, 40
4, 521593, Note_on_c, 1, 31, 29
4, 521622, Note_on_c, 1, 36, 0
4, 522633, Note_on_c, 1, 36, 46
4, 522716, Note_on_c, 1, 31, 0
4, 529339, Note_on_c, 1, 31, 41
4, 529414, Note_on_c, 1, 36, 0
4, 530371, Note_on_c, 1, 31, 0
4, 530391, Note_on_c, 1, 36, 40
4, 537027, Note_on_c, 1, 31, 33
4, 537060, Note_on_c, 1, 36, 0
4, 538038, Note_on_c, 1, 36, 43
4, 538121, Note_on_c, 1, 31, 0
4, 556520, Note_on_c, 1, 36, 0
4, 556520, End_track
5, 0, Start_track
5, 0, Title_t, "MIDI 2"
5, 0, Program_c, 9, 32
5, 0, Control_c, 9, 7, 106
5, 122905, Note_on_c, 9, 59, 71
5, 123174, Note_on_c, 9, 59, 0
5, 125890, Note_on_c, 9, 59, 83
5, 127982, Note_on_c, 9, 59, 0
5, 128756, Note_on_c, 9, 59, 64
5, 129425, Note_on_c, 9, 59, 0
5, 130606, Note_on_c, 9, 59, 58
5, 131947, Note_on_c, 9, 59, 0
5, 134375, Note_on_c, 9, 38, 17
5, 134680, Note_on_c, 9, 38, 0
5, 135360, Note_on_c, 9, 44, 60
5, 135377, Note_on_c, 9, 38, 17
5, 135786, Note_on_c, 9, 38, 0
5, 135840, Note_on_c, 9, 44, 0
5, 136459, Note_on_c, 9, 59, 34
5, 136600, Note_on_c, 9, 59, 0
5, 136894, Note_on_c, 9, 59, 32
5, 137137, Note_on_c, 9, 59, 0
5, 137280, Note_on_c, 9, 44, 60
5, 137291, Note_on_c, 9, 59, 60
5, 137760, Note_on_c, 9, 44, 0
5, 137871, Note_on_c, 9, 38, 22
5, 137917, Note_on_c, 9, 59, 0
5, 137989, Note_on_c, 9, 38, 0
5, 138155, Note_on_c, 9, 59, 45
5, 138269, Note_on_c, 9, 36, 18
5, 138427, Note_on_c, 9, 36, 0
5, 138558, Note_on_c, 9, 59, 0
5, 138740, Note_on_c, 9, 59, 52
5, 138883, Note_on_c, 9, 36, 18
5, 138904, Note_on_c, 9, 59, 0
5, 139173, Note_on_c, 9, 36, 0
5, 139227, Note_on_c, 9, 59, 91
5, 139931, Note_on_c, 9, 59, 0
5, 140199, Note_on_c, 9, 59, 30
5, 140238, Note_on_c, 9, 36, 18
5, 140372, Note_on_c, 9, 59, 0
5, 140582, Note_on_c, 9, 36, 0
5, 141079, Note_on_c, 9, 59, 66
5, 141659, Note_on_c, 9, 59, 0
5, 143934, Note_on_c, 9, 59, 74
5, 144248, Note_on_c, 9, 59, 0
5, 144459, Note_on_c, 9, 59, 55
5, 144683, Note_on_c, 9, 59, 0
5, 145650, Note_on_c, 9, 59, 73
5, 145813, Note_on_c, 9, 59, 0
5, 146056, Note_on_c, 9, 59, 71
5, 146456, Note_on_c, 9, 59, 0
5, 146880, Note_on_c, 9, 44, 60
5, 146881, Note_on_c, 9, 37, 28
5, 147600, Note_on_c, 9, 44, 0
5, 147627, Note_on_c, 9, 37, 0
5, 147934, Note_on_c, 9, 53, 54
5, 148056, Note_on_c, 9, 59, 38
5, 148399, Note_on_c, 9, 53, 0
5, 148581, Note_on_c, 9, 59, 0
5, 148778, Note_on_c, 9, 37, 26
5, 149362, Note_on_c, 9, 53, 50
5, 149371, Note_on_c, 9, 59, 58
5, 149441, Note_on_c, 9, 37, 0
5, 149855, Note_on_c, 9, 53, 0
5, 149915, Note_on_c, 9, 59, 0
5, 151832, Note_on_c, 9, 59, 57
5, 152002, Note_on_c, 9, 59, 0
5, 153643, Note_on_c, 9, 38, 12
5, 153965, Note_on_c, 9, 38, 0
5, 154560, Note_on_c, 9, 44, 60
5, 154594, Note_on_c, 9, 59, 96
5, 154875, Note_on_c, 9, 59, 0
5, 155034, Note_on_c, 9, 38, 19
5, 155040, Note_on_c, 9, 44, 0
5, 155296, Note_on_c, 9, 38, 0
5, 155557, Note_on_c, 9, 59, 101
5, 156872, Note_on_c, 9, 59, 0
5, 159496, Note_on_c, 9, 59, 73
5, 159666, Note_on_c, 9, 59, 0
5, 159927, Note_on_c, 9, 38, 12
5, 160137, Note_on_c, 9, 38, 0
5, 160344, Note_on_c, 9, 36, 12
5, 160347, Note_on_c, 9, 59, 96
5, 160529, Note_on_c, 9, 36, 0
5, 160606, Note_on_c, 9, 59, 0
5, 161355, Note_on_c, 9, 59, 90
5, 161476, Note_on_c, 9, 36, 12
5, 161646, Note_on_c, 9, 59, 0
5, 161661, Note_on_c, 9, 36, 0
5, 161842, Note_on_c, 9, 59, 68
5, 162069, Note_on_c, 9, 59, 0
5, 162240, Note_on_c, 9, 44, 60
5, 162450, Note_on_c, 9, 59, 82
5, 162654, Note_on_c, 9, 59, 0
5, 162960, Note_on_c, 9, 44, 0
5, 164160, Note_on_c, 9, 44, 60
5, 164880, Note_on_c, 9, 44, 0
5, 166741, Note_on_c, 9, 59, 47
5, 166894, Note_on_c, 9, 59, 0
5, 167195, Note_on_c, 9, 59, 51
5, 167416, Note_on_c, 9, 59, 0
5, 167826, Note_on_c, 9, 53, 26
5, 168178, Note_on_c, 9, 53, 0
5, 168603, Note_on_c, 9, 59, 47
5, 168738, Note_on_c, 9, 59, 0
5, 169115, Note_on_c, 9, 59, 62
5, 169227, Note_on_c, 9, 59, 0
5, 169794, Note_on_c, 9, 53, 32
5, 170152, Note_on_c, 9, 53, 0
5, 170446, Note_on_c, 9, 59, 42
5, 170610, Note_on_c, 9, 59, 0
5, 174673, Note_on_c, 9, 38, 18
5, 174989, Note_on_c, 9, 38, 0
5, 175208, Note_on_c, 9, 38, 17
5, 175278, Note_on_c, 9, 59, 53
5, 175479, Note_on_c, 9, 38, 0
5, 175496, Note_on_c, 9, 59, 0
5, 175640, Note_on_c, 9, 36, 15
5, 175707, Note_on_c, 9, 59, 74
5, 176006, Note_on_c, 9, 36, 0
5, 176034, Note_on_c, 9, 59, 0
5, 176668, Note_on_c, 9, 36, 15
5, 177100, Note_on_c, 9, 36, 0
5, 177195, Note_on_c, 9, 59, 74
5, 177360, Note_on_c, 9, 44, 60
5, 177458, Note_on_c, 9, 59, 0
5, 178080, Note_on_c, 9, 44, 0
5, 178616, Note_on_c, 9, 59, 75
5, 178994, Note_on_c, 9, 59, 0
5, 179520, Note_on_c, 9, 44, 60
5, 180240, Note_on_c, 9, 44, 0
5, 180267, Note_on_c, 9, 59, 79
5, 180482, Note_on_c, 9, 59, 0
5, 180859, Note_on_c, 9, 59, 35
5, 181000, Note_on_c, 9, 59, 0
5, 181055, Note_on_c, 9, 38, 19
5, 181259, Note_on_c, 9, 38, 0
5, 181489, Note_on_c, 9, 38, 10
5, 181847, Note_on_c, 9, 38, 0
5, 182043, Note_on_c, 9, 59, 67
5, 182162, Note_on_c, 9, 59, 0
5, 182462, Note_on_c, 9, 59, 74
5, 182466, Note_on_c, 9, 38, 18
5, 182673, Note_on_c, 9, 38, 0
5, 182930, Note_on_c, 9, 59, 0
5, 182990, Note_on_c, 9, 38, 17
5, 183157, Note_on_c, 9, 38, 0
5, 183851, Note_on_c, 9, 38, 20
5, 184001, Note_on_c, 9, 38, 0
5, 184254, Note_on_c, 9, 38, 11
5, 184545, Note_on_c, 9, 38, 0
5, 184920, Note_on_c, 9, 36, 12
5, 185257, Note_on_c, 9, 36, 0
5, 185280, Note_on_c, 9, 44, 60
5, 185760, Note_on_c, 9, 44, 0
5, 186241, Note_on_c, 9, 36, 18
5, 186334, Note_on_c, 9, 59, 62
5, 186469, Note_on_c, 9, 59, 0
5, 186578, Note_on_c, 9, 36, 0
5, 186840, Note_on_c, 9, 59, 62
5, 186962, Note_on_c, 9, 59, 0
5, 187832, Note_on_c, 9, 59, 71
5, 187941, Note_on_c, 9, 59, 0
5, 188712, Note_on_c, 9, 59, 77
5, 188914, Note_on_c, 9, 59, 0
5, 189531, Note_on_c, 9, 59, 62
5, 189659, Note_on_c, 9, 59, 0
5, 190002, Note_on_c, 9, 59, 69
5, 190421, Note_on_c, 9, 59, 0
5, 191040, Note_on_c, 9, 44, 60
5, 191520, Note_on_c, 9, 44, 0
5, 192000, Note_on_c, 9, 44, 60
5, 192480, Note_on_c, 9, 44, 0
5, 192955, Note_on_c, 9, 59, 77
5, 193144, Note_on_c, 9, 59, 0
5, 193931, Note_on_c, 9, 59, 92
5, 194539, Note_on_c, 9, 38, 15
5, 194668, Note_on_c, 9, 38, 0
5, 195478, Note_on_c, 9, 38, 14
5, 195714, Note_on_c, 9, 38, 0
5, 195959, Note_on_c, 9, 38, 23
5, 196235, Note_on_c, 9, 38, 0
5, 196800, Note_on_c, 9, 44, 60
5, 197280, Note_on_c, 9, 44, 0
5, 197324, Note_on_c, 9, 38, 23
5, 197572, Note_on_c, 9, 38, 0
5, 198082, Note_on_c, 9, 59, 0
5, 198346, Note_on_c, 9, 38, 15
5, 198510, Note_on_c, 9, 38, 0
5, 198706, Note_on_c, 9, 38, 16
5, 198720, Note_on_c, 9, 44, 60
5, 198837, Note_on_c, 9, 59, 90
5, 199173, Note_on_c, 9, 38, 0
5, 199200, Note_on_c, 9, 44, 0
5, 200706, Note_on_c, 9, 59, 0
5, 201609, Note_on_c, 9, 38, 15
5, 201634, Note_on_c, 9, 59, 62
5, 201867, Note_on_c, 9, 59, 0
5, 201903, Note_on_c, 9, 38, 0
5, 202117, Note_on_c, 9, 59, 65
5, 202130, Note_on_c, 9, 38, 24
5, 202323, Note_on_c, 9, 38, 0
5, 202354, Note_on_c, 9, 59, 0
5, 202549, Note_on_c, 9, 59, 65
5, 202649, Note_on_c, 9, 36, 18
5, 202792, Note_on_c, 9, 59, 0
5, 202894, Note_on_c, 9, 36, 0
5, 203280, Note_on_c, 9, 36, 27
5, 203557, Note_on_c, 9, 59, 83
5, 203640, Note_on_c, 9, 36, 0
5, 203906, Note_on_c, 9, 59, 0
5, 204450, Note_on_c, 9, 59, 84
5, 204542, Note_on_c, 9, 46, 36
5, 204602, Note_on_c, 9, 36, 25
5, 204987, Note_on_c, 9, 46, 0
5, 205013, Note_on_c, 9, 36, 0
5, 205259, Note_on_c, 9, 59, 0
5, 206422, Note_on_c, 9, 46, 38
5, 206437, Note_on_c, 9, 59, 55
5, 206549, Note_on_c, 9, 59, 0
5, 206913, Note_on_c, 9, 46, 0
5, 207422, Note_on_c, 9, 59, 69
5, 207458, Note_on_c, 9, 53, 53
5, 207678, Note_on_c, 9, 59, 0
5, 207976, Note_on_c, 9, 53, 0
5, 207982, Note_on_c, 9, 59, 46
5, 208114, Note_on_c, 9, 59, 0
5, 208827, Note_on_c, 9, 59, 75
5, 208926, Note_on_c, 9, 53, 45
5, 209090, Note_on_c, 9, 59, 0
5, 209266, Note_on_c, 9, 59, 74
5, 209267, Note_on_c, 9, 38, 22
5, 209498, Note_on_c, 9, 38, 0
5, 209525, Note_on_c, 9, 59, 0
5, 209579, Note_on_c, 9, 53, 0
5, 210137, Note_on_c, 9, 36, 16
5, 210306, Note_on_c, 9, 59, 76
5, 210336, Note_on_c, 9, 36, 0
5, 210398, Note_on_c, 9, 53, 59
5, 210667, Note_on_c, 9, 59, 0
5, 210818, Note_on_c, 9, 53, 0
5, 210856, Note_on_c, 9, 59, 58
5, 210987, Note_on_c, 9, 59, 0
5, 211672, Note_on_c, 9, 59, 70
5, 211934, Note_on_c, 9, 59, 0
5, 212107, Note_on_c, 9, 53, 59
5, 212120, Note_on_c, 9, 59, 72
5, 212453, Note_on_c, 9, 59, 0
5, 212578, Note_on_c, 9, 53, 0
5, 213146, Note_on_c, 9, 38, 17
5, 213214, Note_on_c, 9, 59, 79
5, 213218, Note_on_c, 9, 53, 62
5, 213302, Note_on_c, 9, 38, 0
5, 213557, Note_on_c, 9, 59, 0
5, 213730, Note_on_c, 9, 53, 0
5, 213736, Note_on_c, 9, 59, 69
5, 213979, Note_on_c, 9, 59, 0
5, 214619, Note_on_c, 9, 59, 76
5, 214638, Note_on_c, 9, 53, 61
5, 214872, Note_on_c, 9, 59, 0
5, 215080, Note_on_c, 9, 59, 68
5, 215426, Note_on_c, 9, 59, 0
5, 215483, Note_on_c, 9, 53, 0
5, 216000, Note_on_c, 9, 44, 60
5, 216009, Note_on_c, 9, 37, 30
5, 216059, Note_on_c, 9, 59, 74
5, 216402, Note_on_c, 9, 59, 0
5, 216441, Note_on_c, 9, 37, 0
5, 216480, Note_on_c, 9, 44, 0
5, 216987, Note_on_c, 9, 59, 74
5, 217873, Note_on_c, 9, 37, 30
5, 217920, Note_on_c, 9, 44, 60
5, 218174, Note_on_c, 9, 59, 0
5, 218388, Note_on_c, 9, 37, 0
5, 218640, Note_on_c, 9, 44, 0
5, 221689, Note_on_c, 9, 37, 26
5, 222106, Note_on_c, 9, 37, 0
5, 222171, Note_on_c, 9, 53, 55
5, 222363, Note_on_c, 9, 53, 0
5, 222654, Note_on_c, 9, 59, 57
5, 222952, Note_on_c, 9, 59, 0
5, 223634, Note_on_c, 9, 59, 65
5, 223670, Note_on_c, 9, 37, 29
5, 223909, Note_on_c, 9, 59, 0
5, 224039, Note_on_c, 9, 37, 0
5, 224622, Note_on_c, 9, 59, 62
5, 224990, Note_on_c, 9, 59, 0
5, 225112, Note_on_c, 9, 53, 50
5, 225326, Note_on_c, 9, 53, 0
5, 225585, Note_on_c, 9, 38, 21
5, 225764, Note_on_c, 9, 38, 0
5, 227520, Note_on_c, 9, 44, 60
5, 228000, Note_on_c, 9, 44, 0
5, 228122, Note_on_c, 9, 38, 16
5, 228301, Note_on_c, 9, 38, 0
5, 228448, Note_on_c, 9, 38, 16
5, 228745, Note_on_c, 9, 38, 0
5, 228981, Note_on_c, 9, 53, 61
5, 229067, Note_on_c, 9, 36, 15
5, 229272, Note_on_c, 9, 53, 0
5, 229338, Note_on_c, 9, 36, 0
5, 229477, Note_on_c, 9, 53, 49
5, 229602, Note_on_c, 9, 53, 0
5, 230398, Note_on_c, 9, 36, 22
5, 230434, Note_on_c, 9, 53, 34
5, 230545, Note_on_c, 9, 36, 0
5, 230578, Note_on_c, 9, 53, 0
5, 231016, Note_on_c, 9, 53, 44
5, 231144, Note_on_c, 9, 53, 0
5, 231360, Note_on_c, 9, 44, 60
5, 231451, Note_on_c, 9, 53, 54
5, 231771, Note_on_c, 9, 53, 0
5, 231840, Note_on_c, 9, 44, 0
5, 232939, Note_on_c, 9, 53, 57
5, 233067, Note_on_c, 9, 53, 0
5, 233309, Note_on_c, 9, 38, 18
5, 233580, Note_on_c, 9, 38, 0
5, 233814, Note_on_c, 9, 38, 29
5, 233829, Note_on_c, 9, 53, 45
5, 233954, Note_on_c, 9, 53, 0
5, 234047, Note_on_c, 9, 38, 0
5, 234312, Note_on_c, 9, 59, 63
5, 234664, Note_on_c, 9, 59, 0
5, 234744, Note_on_c, 9, 38, 29
5, 235037, Note_on_c, 9, 38, 0
5, 235200, Note_on_c, 9, 44, 60
5, 235236, Note_on_c, 9, 38, 27
5, 235397, Note_on_c, 9, 38, 0
5, 235680, Note_on_c, 9, 44, 0
5, 236238, Note_on_c, 9, 36, 16
5, 236428, Note_on_c, 9, 36, 0
5, 236616, Note_on_c, 9, 53, 57
5, 236741, Note_on_c, 9, 53, 0
5, 236987, Note_on_c, 9, 53, 57
5, 237237, Note_on_c, 9, 53, 0
5, 238504, Note_on_c, 9, 53, 58
5, 238786, Note_on_c, 9, 53, 0
5, 239018, Note_on_c, 9, 38, 33
5, 239040, Note_on_c, 9, 44, 60
5, 239448, Note_on_c, 9, 53, 53
5, 239520, Note_on_c, 9, 44, 0
5, 239566, Note_on_c, 9, 53, 0
5, 239947, Note_on_c, 9, 59, 77
5, 240008, Note_on_c, 9, 38, 0
5, 240373, Note_on_c, 9, 59, 0
5, 240429, Note_on_c, 9, 38, 27
5, 240561, Note_on_c, 9, 38, 0
5, 241406, Note_on_c, 9, 53, 60
5, 241411, Note_on_c, 9, 36, 14
5, 241512, Note_on_c, 9, 36, 0
5, 241605, Note_on_c, 9, 53, 0
5, 241851, Note_on_c, 9, 38, 26
5, 242263, Note_on_c, 9, 38, 0
5, 242370, Note_on_c, 9, 53, 66
5, 242549, Note_on_c, 9, 53, 0
5, 242880, Note_on_c, 9, 44, 60
5, 243306, Note_on_c, 9, 38, 27
5, 243360, Note_on_c, 9, 44, 0
5, 243365, Note_on_c, 9, 53, 64
5, 243410, Note_on_c, 9, 38, 0
5, 243474, Note_on_c, 9, 53, 0
5, 243797, Note_on_c, 9, 53, 59
5, 244248, Note_on_c, 9, 53, 0
5, 244274, Note_on_c, 9, 38, 23
5, 244602, Note_on_c, 9, 38, 0
5, 244670, Note_on_c, 9, 53, 66
5, 244914, Note_on_c, 9, 53, 0
5, 245264, Note_on_c, 9, 57, 33
5, 245307, Note_on_c, 9, 36, 25
5, 245506, Note_on_c, 9, 57, 0
5, 245521, Note_on_c, 9, 36, 0
5, 245807, Note_on_c, 9, 59, 64
5, 246098, Note_on_c, 9, 59, 0
5, 247245, Note_on_c, 9, 59, 45
5, 247419, Note_on_c, 9, 59, 0
5, 247725, Note_on_c, 9, 59, 50
5, 248212, Note_on_c, 9, 59, 0
5, 249383, Note_on_c, 9, 59, 51
5, 249554, Note_on_c, 9, 59, 0
5, 249760, Note_on_c, 9, 59, 33
5, 250147, Note_on_c, 9, 59, 0
5, 251193, Note_on_c, 9, 59, 57
5, 251346, Note_on_c, 9, 59, 0
5, 251583, Note_on_c, 9, 59, 47
5, 251916, Note_on_c, 9, 59, 0
5, 252536, Note_on_c, 9, 59, 60
5, 252924, Note_on_c, 9, 59, 0
5, 253564, Note_on_c, 9, 59, 67
5, 254101, Note_on_c, 9, 59, 0
5, 254559, Note_on_c, 9, 59, 43
5, 254693, Note_on_c, 9, 59, 0
5, 255113, Note_on_c, 9, 59, 72
5, 255391, Note_on_c, 9, 59, 0
5, 256019, Note_on_c, 9, 59, 50
5, 256147, Note_on_c, 9, 59, 0
5, 256367, Note_on_c, 9, 59, 59
5, 256896, Note_on_c, 9, 59, 0
5, 257340, Note_on_c, 9, 38, 49
5, 257346, Note_on_c, 9, 59, 39
5, 257533, Note_on_c, 9, 59, 0
5, 257622, Note_on_c, 9, 38, 0
5, 258251, Note_on_c, 9, 59, 52
5, 258300, Note_on_c, 9, 38, 53
5, 258461, Note_on_c, 9, 59, 0
5, 258678, Note_on_c, 9, 38, 0
5, 258908, Note_on_c, 9, 59, 58
5, 259152, Note_on_c, 9, 59, 0
5, 259254, Note_on_c, 9, 38, 49
5, 259277, Note_on_c, 9, 59, 45
5, 259455, Note_on_c, 9, 59, 0
5, 259744, Note_on_c, 9, 38, 0
5, 259868, Note_on_c, 9, 36, 43
5, 260140, Note_on_c, 9, 36, 0
5, 260201, Note_on_c, 9, 59, 37
5, 260358, Note_on_c, 9, 59, 0
5, 260790, Note_on_c, 9, 59, 45
5, 260873, Note_on_c, 9, 36, 48
5, 260880, Note_on_c, 9, 57, 49
5, 260931, Note_on_c, 9, 59, 0
5, 261152, Note_on_c, 9, 59, 68
5, 261238, Note_on_c, 9, 57, 0
5, 261564, Note_on_c, 9, 36, 0
5, 261601, Note_on_c, 9, 59, 0
5, 262157, Note_on_c, 9, 59, 28
5, 262362, Note_on_c, 9, 59, 0
5, 262723, Note_on_c, 9, 59, 53
5, 262852, Note_on_c, 9, 59, 0
5, 263101, Note_on_c, 9, 59, 59
5, 263629, Note_on_c, 9, 59, 0
5, 264007, Note_on_c, 9, 59, 37
5, 264150, Note_on_c, 9, 59, 0
5, 264628, Note_on_c, 9, 59, 85
5, 265274, Note_on_c, 9, 59, 0
5, 265936, Note_on_c, 9, 59, 60
5, 266253, Note_on_c, 9, 59, 0
5, 267619, Note_on_c, 9, 59, 74
5, 267840, Note_on_c, 9, 44, 60
5, 267860, Note_on_c, 9, 59, 0
5, 268320, Note_on_c, 9, 44, 0
5, 269002, Note_on_c, 9, 59, 76
5, 269760, Note_on_c, 9, 44, 60
5, 270125, Note_on_c, 9, 59, 0
5, 270240, Note_on_c, 9, 44, 0
5, 270848, Note_on_c, 9, 59, 73
5, 271261, Note_on_c, 9, 59, 0
5, 271680, Note_on_c, 9, 44, 60
5, 271744, Note_on_c, 9, 59, 78
5, 272160, Note_on_c, 9, 44, 0
5, 272164, Note_on_c, 9, 59, 0
5, 272666, Note_on_c, 9, 59, 33
5, 272804, Note_on_c, 9, 59, 0
5, 273184, Note_on_c, 9, 59, 77
5, 273668, Note_on_c, 9, 59, 0
5, 274234, Note_on_c, 9, 59, 64
5, 274368, Note_on_c, 9, 59, 0
5, 274646, Note_on_c, 9, 59, 75
5, 275232, Note_on_c, 9, 59, 0
5, 275400, Note_on_c, 9, 46, 33
5, 275603, Note_on_c, 9, 59, 51
5, 275718, Note_on_c, 9, 59, 0
5, 276478, Note_on_c, 9, 46, 0
5, 276528, Note_on_c, 9, 59, 81
5, 276781, Note_on_c, 9, 59, 0
5, 277267, Note_on_c, 9, 59, 33
5, 277408, Note_on_c, 9, 59, 0
5, 278064, Note_on_c, 9, 59, 78
5, 278448, Note_on_c, 9, 59, 0
5, 279181, Note_on_c, 9, 59, 36
5, 279322, Note_on_c, 9, 59, 0
5, 279594, Note_on_c, 9, 59, 60
5, 279818, Note_on_c, 9, 59, 0
5, 279840, Note_on_c, 9, 38, 24
5, 280179, Note_on_c, 9, 38, 0
5, 280390, Note_on_c, 9, 38, 22
5, 280787, Note_on_c, 9, 38, 0
5, 280966, Note_on_c, 9, 59, 68
5, 281184, Note_on_c, 9, 59, 0
5, 281846, Note_on_c, 9, 38, 21
5, 282105, Note_on_c, 9, 38, 0
5, 282268, Note_on_c, 9, 38, 10
5, 282355, Note_on_c, 9, 59, 72
5, 282563, Note_on_c, 9, 38, 0
5, 282630, Note_on_c, 9, 59, 0
5, 282867, Note_on_c, 9, 36, 26
5, 283120, Note_on_c, 9, 36, 0
5, 283200, Note_on_c, 9, 44, 60
5, 283261, Note_on_c, 9, 59, 41
5, 283398, Note_on_c, 9, 59, 0
5, 283680, Note_on_c, 9, 44, 0
5, 283917, Note_on_c, 9, 59, 57
5, 284048, Note_on_c, 9, 59, 0
5, 284169, Note_on_c, 9, 36, 24
5, 284269, Note_on_c, 9, 59, 67
5, 284537, Note_on_c, 9, 36, 0
5, 284768, Note_on_c, 9, 59, 0
5, 285120, Note_on_c, 9, 44, 60
5, 285600, Note_on_c, 9, 44, 0
5, 285776, Note_on_c, 9, 59, 60
5, 285904, Note_on_c, 9, 59, 0
5, 286154, Note_on_c, 9, 59, 57
5, 286682, Note_on_c, 9, 59, 0
5, 287040, Note_on_c, 9, 44, 60
5, 287104, Note_on_c, 9, 59, 64
5, 287472, Note_on_c, 9, 59, 0
5, 287520, Note_on_c, 9, 44, 0
5, 288067, Note_on_c, 9, 59, 55
5, 288394, Note_on_c, 9, 59, 0
5, 288960, Note_on_c, 9, 44, 60
5, 289030, Note_on_c, 9, 59, 67
5, 289373, Note_on_c, 9, 59, 0
5, 289440, Note_on_c, 9, 44, 0
5, 289725, Note_on_c, 9, 59, 30
5, 289862, Note_on_c, 9, 59, 0
5, 289994, Note_on_c, 9, 59, 45
5, 290541, Note_on_c, 9, 59, 0
5, 290808, Note_on_c, 9, 46, 36
5, 290903, Note_on_c, 9, 59, 71
5, 291307, Note_on_c, 9, 46, 0
5, 291392, Note_on_c, 9, 59, 0
5, 292576, Note_on_c, 9, 59, 75
5, 292825, Note_on_c, 9, 38, 22
5, 293034, Note_on_c, 9, 59, 0
5, 293292, Note_on_c, 9, 38, 0
5, 293574, Note_on_c, 9, 59, 44
5, 293709, Note_on_c, 9, 59, 0
5, 293978, Note_on_c, 9, 59, 68
5, 294534, Note_on_c, 9, 59, 0
5, 294858, Note_on_c, 9, 59, 32
5, 294999, Note_on_c, 9, 59, 0
5, 295337, Note_on_c, 9, 38, 29
5, 295405, Note_on_c, 9, 59, 82
5, 295686, Note_on_c, 9, 38, 0
5, 295930, Note_on_c, 9, 59, 0
5, 295980, Note_on_c, 9, 36, 9
5, 296252, Note_on_c, 9, 36, 0
5, 296314, Note_on_c, 9, 59, 44
5, 296445, Note_on_c, 9, 59, 0
5, 296669, Note_on_c, 9, 59, 57
5, 297101, Note_on_c, 9, 59, 0
5, 297148, Note_on_c, 9, 38, 25
5, 297481, Note_on_c, 9, 38, 0
5, 297577, Note_on_c, 9, 36, 21
5, 297651, Note_on_c, 9, 59, 66
5, 297744, Note_on_c, 9, 53, 36
5, 298035, Note_on_c, 9, 59, 0
5, 298077, Note_on_c, 9, 53, 0
5, 298096, Note_on_c, 9, 36, 0
5, 298311, Note_on_c, 9, 59, 61
5, 298410, Note_on_c, 9, 53, 31
5, 298557, Note_on_c, 9, 53, 0
5, 298605, Note_on_c, 9, 59, 0
5, 299149, Note_on_c, 9, 59, 49
5, 299302, Note_on_c, 9, 59, 0
5, 299629, Note_on_c, 9, 53, 49
5, 299661, Note_on_c, 9, 59, 67
5, 300045, Note_on_c, 9, 53, 0
5, 300173, Note_on_c, 9, 59, 0
5, 300435, Note_on_c, 9, 59, 41
5, 300713, Note_on_c, 9, 59, 0
5, 301037, Note_on_c, 9, 59, 62
5, 301472, Note_on_c, 9, 59, 0
5, 301981, Note_on_c, 9, 59, 52
5, 302137, Note_on_c, 9, 59, 0
5, 302406, Note_on_c, 9, 59, 68
5, 302829, Note_on_c, 9, 59, 0
5, 303302, Note_on_c, 9, 59, 60
5, 303539, Note_on_c, 9, 59, 0
5, 304256, Note_on_c, 9, 59, 80
5, 304320, Note_on_c, 9, 44, 60
5, 304800, Note_on_c, 9, 44, 0
5, 304809, Note_on_c, 9, 59, 0
5, 305257, Note_on_c, 9, 59, 54
5, 305561, Note_on_c, 9, 59, 0
5, 305990, Note_on_c, 9, 38, 25
5, 306131, Note_on_c, 9, 38, 0
5, 306208, Note_on_c, 9, 59, 65
5, 306451, Note_on_c, 9, 59, 0
5, 306873, Note_on_c, 9, 38, 36
5, 307193, Note_on_c, 9, 38, 0
5, 307228, Note_on_c, 9, 57, 34
5, 307260, Note_on_c, 9, 59, 74
5, 307328, Note_on_c, 9, 36, 34
5, 307517, Note_on_c, 9, 59, 0
5, 308160, Note_on_c, 9, 44, 60
5, 308198, Note_on_c, 9, 59, 65
5, 308438, Note_on_c, 9, 59, 0
5, 308640, Note_on_c, 9, 44, 0
5, 308889, Note_on_c, 9, 59, 36
5, 309046, Note_on_c, 9, 59, 0
5, 309744, Note_on_c, 9, 59, 73
5, 310018, Note_on_c, 9, 37, 41
5, 310038, Note_on_c, 9, 59, 0
5, 310355, Note_on_c, 9, 57, 0
5, 310523, Note_on_c, 9, 37, 0
5, 310742, Note_on_c, 9, 59, 64
5, 310867, Note_on_c, 9, 59, 0
5, 311129, Note_on_c, 9, 59, 66
5, 311273, Note_on_c, 9, 36, 0
5, 311670, Note_on_c, 9, 59, 0
5, 312598, Note_on_c, 9, 59, 77
5, 313055, Note_on_c, 9, 59, 0
5, 313562, Note_on_c, 9, 59, 44
5, 313699, Note_on_c, 9, 59, 0
5, 313904, Note_on_c, 9, 59, 68
5, 313915, Note_on_c, 9, 37, 33
5, 314379, Note_on_c, 9, 37, 0
5, 314406, Note_on_c, 9, 59, 0
5, 314886, Note_on_c, 9, 59, 81
5, 315475, Note_on_c, 9, 59, 0
5, 315794, Note_on_c, 9, 37, 39
5, 316461, Note_on_c, 9, 59, 55
5, 316523, Note_on_c, 9, 37, 0
5, 316608, Note_on_c, 9, 59, 0
5, 316902, Note_on_c, 9, 59, 64
5, 317382, Note_on_c, 9, 59, 0
5, 317781, Note_on_c, 9, 37, 33
5, 317882, Note_on_c, 9, 59, 31
5, 318010, Note_on_c, 9, 59, 0
5, 318203, Note_on_c, 9, 37, 0
5, 318406, Note_on_c, 9, 59, 75
5, 318810, Note_on_c, 9, 59, 0
5, 319270, Note_on_c, 9, 38, 16
5, 319421, Note_on_c, 9, 59, 73
5, 319696, Note_on_c, 9, 38, 0
5, 319818, Note_on_c, 9, 59, 0
5, 320349, Note_on_c, 9, 59, 53
5, 320490, Note_on_c, 9, 59, 0
5, 320627, Note_on_c, 9, 38, 15
5, 320749, Note_on_c, 9, 59, 65
5, 320876, Note_on_c, 9, 38, 0
5, 321178, Note_on_c, 9, 59, 0
5, 321541, Note_on_c, 9, 37, 38
5, 322051, Note_on_c, 9, 38, 24
5, 322139, Note_on_c, 9, 37, 0
5, 322396, Note_on_c, 9, 38, 0
5, 322614, Note_on_c, 9, 59, 6
5, 322861, Note_on_c, 9, 59, 0
5, 323468, Note_on_c, 9, 38, 21
5, 323490, Note_on_c, 9, 37, 33
5, 323530, Note_on_c, 9, 59, 76
5, 323760, Note_on_c, 9, 38, 0
5, 323941, Note_on_c, 9, 37, 0
5, 324109, Note_on_c, 9, 59, 0
5, 324605, Note_on_c, 9, 59, 30
5, 324733, Note_on_c, 9, 59, 0
5, 325133, Note_on_c, 9, 59, 68
5, 325379, Note_on_c, 9, 59, 0
5, 326090, Note_on_c, 9, 59, 57
5, 326224, Note_on_c, 9, 59, 0
5, 326474, Note_on_c, 9, 59, 66
5, 326896, Note_on_c, 9, 59, 0
5, 327498, Note_on_c, 9, 59, 25
5, 327610, Note_on_c, 9, 59, 0
5, 328013, Note_on_c, 9, 59, 64
5, 328131, Note_on_c, 9, 59, 0
5, 328342, Note_on_c, 9, 38, 17
5, 328467, Note_on_c, 9, 59, 73
5, 328601, Note_on_c, 9, 38, 0
5, 328861, Note_on_c, 9, 59, 0
5, 328899, Note_on_c, 9, 38, 18
5, 329100, Note_on_c, 9, 38, 0
5, 329277, Note_on_c, 9, 59, 59
5, 329392, Note_on_c, 9, 59, 0
5, 329875, Note_on_c, 9, 59, 72
5, 330243, Note_on_c, 9, 59, 0
5, 330845, Note_on_c, 9, 59, 62
5, 331011, Note_on_c, 9, 59, 0
5, 331232, Note_on_c, 9, 59, 73
5, 331754, Note_on_c, 9, 59, 0
5, 332176, Note_on_c, 9, 59, 77
5, 332675, Note_on_c, 9, 59, 0
5, 334099, Note_on_c, 9, 38, 15
5, 334150, Note_on_c, 9, 59, 72
5, 334284, Note_on_c, 9, 38, 0
5, 334432, Note_on_c, 9, 59, 0
5, 335504, Note_on_c, 9, 38, 26
5, 335667, Note_on_c, 9, 38, 0
5, 335693, Note_on_c, 9, 59, 68
5, 336016, Note_on_c, 9, 36, 14
5, 336115, Note_on_c, 9, 59, 0
5, 336246, Note_on_c, 9, 36, 0
5, 336698, Note_on_c, 9, 59, 68
5, 336982, Note_on_c, 9, 38, 20
5, 337030, Note_on_c, 9, 59, 0
5, 337200, Note_on_c, 9, 38, 0
5, 337507, Note_on_c, 9, 38, 21
5, 337512, Note_on_c, 9, 37, 36
5, 337674, Note_on_c, 9, 59, 27
5, 337795, Note_on_c, 9, 59, 0
5, 337803, Note_on_c, 9, 37, 0
5, 337817, Note_on_c, 9, 38, 0
5, 337994, Note_on_c, 9, 59, 66
5, 338053, Note_on_c, 9, 37, 40
5, 338314, Note_on_c, 9, 59, 0
5, 338460, Note_on_c, 9, 36, 27
5, 338565, Note_on_c, 9, 37, 0
5, 338832, Note_on_c, 9, 36, 0
5, 339526, Note_on_c, 9, 59, 57
5, 339642, Note_on_c, 9, 59, 0
5, 339882, Note_on_c, 9, 59, 60
5, 339939, Note_on_c, 9, 36, 17
5, 340156, Note_on_c, 9, 36, 0
5, 340400, Note_on_c, 9, 59, 0
5, 341472, Note_on_c, 9, 59, 53
5, 341936, Note_on_c, 9, 59, 0
5, 342602, Note_on_c, 9, 59, 68
5, 343338, Note_on_c, 9, 59, 0
5, 343798, Note_on_c, 9, 59, 71
5, 344122, Note_on_c, 9, 59, 0
5, 344384, Note_on_c, 9, 59, 55
5, 344682, Note_on_c, 9, 59, 0
5, 345238, Note_on_c, 9, 59, 70
5, 345530, Note_on_c, 9, 59, 0
5, 346234, Note_on_c, 9, 59, 69
5, 346560, Note_on_c, 9, 44, 60
5, 346800, Note_on_c, 9, 44, 0
5, 346986, Note_on_c, 9, 59, 0
5, 347581, Note_on_c, 9, 59, 76
5, 348006, Note_on_c, 9, 59, 0
5, 348480, Note_on_c, 9, 44, 60
5, 348486, Note_on_c, 9, 38, 30
5, 348509, Note_on_c, 9, 59, 51
5, 348627, Note_on_c, 9, 59, 0
5, 348720, Note_on_c, 9, 44, 0
5, 348755, Note_on_c, 9, 38, 0
5, 349107, Note_on_c, 9, 59, 60
5, 349235, Note_on_c, 9, 59, 0
5, 349536, Note_on_c, 9, 59, 71
5, 349981, Note_on_c, 9, 59, 0
5, 350054, Note_on_c, 9, 38, 27
5, 350316, Note_on_c, 9, 38, 0
5, 350357, Note_on_c, 9, 46, 37
5, 351369, Note_on_c, 9, 38, 28
5, 351560, Note_on_c, 9, 46, 0
5, 351808, Note_on_c, 9, 38, 0
5, 352003, Note_on_c, 9, 59, 79
5, 352259, Note_on_c, 9, 59, 0
5, 352355, Note_on_c, 9, 38, 24
5, 352505, Note_on_c, 9, 38, 0
5, 352960, Note_on_c, 9, 59, 33
5, 352998, Note_on_c, 9, 38, 26
5, 353094, Note_on_c, 9, 59, 0
5, 353305, Note_on_c, 9, 38, 0
5, 353328, Note_on_c, 9, 59, 68
5, 353747, Note_on_c, 9, 59, 0
5, 354240, Note_on_c, 9, 44, 60
5, 354480, Note_on_c, 9, 44, 0
5, 354797, Note_on_c, 9, 59, 65
5, 355085, Note_on_c, 9, 59, 0
5, 355821, Note_on_c, 9, 59, 48
5, 355946, Note_on_c, 9, 59, 0
5, 356195, Note_on_c, 9, 59, 60
5, 356659, Note_on_c, 9, 59, 0
5, 357162, Note_on_c, 9, 59, 57
5, 357334, Note_on_c, 9, 59, 0
5, 358080, Note_on_c, 9, 44, 60
5, 358131, Note_on_c, 9, 59, 87
5, 358320, Note_on_c, 9, 44, 0
5, 358525, Note_on_c, 9, 59, 0
5, 359117, Note_on_c, 9, 59, 27
5, 359245, Note_on_c, 9, 59, 0
5, 359664, Note_on_c, 9, 38, 30
5, 359696, Note_on_c, 9, 59, 76
5, 359849, Note_on_c, 9, 38, 0
5, 360000, Note_on_c, 9, 44, 60
5, 360013, Note_on_c, 9, 59, 0
5, 360240, Note_on_c, 9, 44, 0
5, 360691, Note_on_c, 9, 59, 52
5, 360810, Note_on_c, 9, 59, 0
5, 360988, Note_on_c, 9, 38, 36
5, 361101, Note_on_c, 9, 59, 67
5, 361190, Note_on_c, 9, 38, 0
5, 361555, Note_on_c, 9, 59, 0
5, 362054, Note_on_c, 9, 59, 38
5, 362195, Note_on_c, 9, 59, 0
5, 362499, Note_on_c, 9, 38, 36
5, 362598, Note_on_c, 9, 59, 74
5, 362736, Note_on_c, 9, 38, 0
5, 362867, Note_on_c, 9, 59, 0
5, 363478, Note_on_c, 9, 59, 57
5, 363603, Note_on_c, 9, 59, 0
5, 363801, Note_on_c, 9, 38, 44
5, 363840, Note_on_c, 9, 44, 60
5, 363878, Note_on_c, 9, 59, 66
5, 364057, Note_on_c, 9, 38, 0
5, 364080, Note_on_c, 9, 44, 0
5, 364227, Note_on_c, 9, 59, 0
5, 364842, Note_on_c, 9, 59, 83
5, 365152, Note_on_c, 9, 59, 0
5, 365344, Note_on_c, 9, 38, 48
5, 365590, Note_on_c, 9, 38, 0
5, 365760, Note_on_c, 9, 44, 60
5, 365850, Note_on_c, 9, 59, 70
5, 366000, Note_on_c, 9, 44, 0
5, 366099, Note_on_c, 9, 59, 0
5, 366736, Note_on_c, 9, 38, 44
5, 366778, Note_on_c, 9, 59, 74
5, 367069, Note_on_c, 9, 59, 0
5, 367334, Note_on_c, 9, 59, 57
5, 367571, Note_on_c, 9, 59, 0
5, 367689, Note_on_c, 9, 38, 0
5, 368252, Note_on_c, 9, 38, 18
5, 368352, Note_on_c, 9, 57, 51
5, 368358, Note_on_c, 9, 36, 49
5, 368387, Note_on_c, 9, 59, 81
5, 368393, Note_on_c, 9, 38, 0
5, 368572, Note_on_c, 9, 57, 0
5, 368646, Note_on_c, 9, 59, 0
5, 369299, Note_on_c, 9, 36, 0
5, 369306, Note_on_c, 9, 59, 74
5, 369642, Note_on_c, 9, 59, 0
5, 370211, Note_on_c, 9, 59, 44
5, 370352, Note_on_c, 9, 59, 0
5, 370570, Note_on_c, 9, 59, 64
5, 370986, Note_on_c, 9, 59, 0
5, 371552, Note_on_c, 9, 59, 55
5, 371674, Note_on_c, 9, 59, 0
5, 372118, Note_on_c, 9, 59, 73
5, 372451, Note_on_c, 9, 59, 0
5, 374115, Note_on_c, 9, 59, 44
5, 374253, Note_on_c, 9, 59, 0
5, 374502, Note_on_c, 9, 59, 63
5, 374874, Note_on_c, 9, 59, 0
5, 375360, Note_on_c, 9, 44, 47
5, 375437, Note_on_c, 9, 59, 62
5, 375600, Note_on_c, 9, 44, 0
5, 375651, Note_on_c, 9, 59, 0
5, 376046, Note_on_c, 9, 36, 30
5, 376177, Note_on_c, 9, 36, 0
5, 376394, Note_on_c, 9, 59, 74
5, 376669, Note_on_c, 9, 59, 0
5, 377280, Note_on_c, 9, 44, 45
5, 377357, Note_on_c, 9, 59, 49
5, 377498, Note_on_c, 9, 59, 0
5, 377760, Note_on_c, 9, 44, 0
5, 377910, Note_on_c, 9, 59, 71
5, 378014, Note_on_c, 9, 36, 22
5, 378158, Note_on_c, 9, 36, 0
5, 378246, Note_on_c, 9, 59, 0
5, 378822, Note_on_c, 9, 59, 61
5, 378848, Note_on_c, 9, 53, 55
5, 379062, Note_on_c, 9, 59, 0
5, 379133, Note_on_c, 9, 53, 0
5, 380154, Note_on_c, 9, 59, 68
5, 380419, Note_on_c, 9, 59, 0
5, 381127, Note_on_c, 9, 59, 61
5, 381270, Note_on_c, 9, 59, 0
5, 381686, Note_on_c, 9, 59, 67
5, 381952, Note_on_c, 9, 59, 0
5, 382135, Note_on_c, 9, 38, 23
5, 382318, Note_on_c, 9, 38, 0
5, 382644, Note_on_c, 9, 38, 24
5, 382730, Note_on_c, 9, 59, 66
5, 382858, Note_on_c, 9, 38, 0
5, 382966, Note_on_c, 9, 59, 0
5, 383152, Note_on_c, 9, 59, 71
5, 383280, Note_on_c, 9, 44, 52
5, 383427, Note_on_c, 9, 59, 0
5, 383520, Note_on_c, 9, 44, 0
5, 384019, Note_on_c, 9, 59, 50
5, 384020, Note_on_c, 9, 38, 22
5, 384144, Note_on_c, 9, 59, 0
5, 384375, Note_on_c, 9, 38, 0
5, 385014, Note_on_c, 9, 59, 82
5, 385338, Note_on_c, 9, 59, 0
5, 385718, Note_on_c, 9, 59, 45
5, 385846, Note_on_c, 9, 59, 0
5, 386029, Note_on_c, 9, 59, 71
5, 386557, Note_on_c, 9, 59, 0
5, 386880, Note_on_c, 9, 44, 53
5, 386954, Note_on_c, 9, 38, 20
5, 387197, Note_on_c, 9, 38, 0
5, 387360, Note_on_c, 9, 44, 0
5, 387482, Note_on_c, 9, 38, 22
5, 387511, Note_on_c, 9, 59, 46
5, 387658, Note_on_c, 9, 59, 0
5, 387738, Note_on_c, 9, 38, 0
5, 387872, Note_on_c, 9, 59, 68
5, 388384, Note_on_c, 9, 59, 0
5, 388442, Note_on_c, 9, 36, 20
5, 388797, Note_on_c, 9, 36, 0
5, 388800, Note_on_c, 9, 44, 53
5, 389280, Note_on_c, 9, 44, 0
5, 389462, Note_on_c, 9, 59, 55
5, 389626, Note_on_c, 9, 59, 0
5, 389809, Note_on_c, 9, 36, 26
5, 389830, Note_on_c, 9, 59, 56
5, 390157, Note_on_c, 9, 36, 0
5, 390202, Note_on_c, 9, 59, 0
5, 391267, Note_on_c, 9, 59, 50
5, 391405, Note_on_c, 9, 59, 0
5, 391796, Note_on_c, 9, 38, 20
5, 392013, Note_on_c, 9, 38, 0
5, 392330, Note_on_c, 9, 59, 51
5, 392531, Note_on_c, 9, 59, 0
5, 392669, Note_on_c, 9, 38, 29
5, 392813, Note_on_c, 9, 59, 66
5, 393158, Note_on_c, 9, 59, 0
5, 393261, Note_on_c, 9, 38, 0
5, 393338, Note_on_c, 9, 59, 71
5, 393552, Note_on_c, 9, 59, 0
5, 393626, Note_on_c, 9, 38, 23
5, 393722, Note_on_c, 9, 59, 85
5, 394138, Note_on_c, 9, 38, 0
5, 394173, Note_on_c, 9, 59, 0
5, 394263, Note_on_c, 9, 36, 29
5, 394560, Note_on_c, 9, 59, 42
5, 394618, Note_on_c, 9, 36, 0
5, 394701, Note_on_c, 9, 59, 0
5, 395184, Note_on_c, 9, 59, 57
5, 395299, Note_on_c, 9, 59, 0
5, 395700, Note_on_c, 9, 38, 17
5, 396074, Note_on_c, 9, 38, 0
5, 396086, Note_on_c, 9, 59, 50
5, 396218, Note_on_c, 9, 59, 0
5, 396447, Note_on_c, 9, 46, 44
5, 396557, Note_on_c, 9, 59, 84
5, 396573, Note_on_c, 9, 38, 26
5, 397028, Note_on_c, 9, 38, 0
5, 397133, Note_on_c, 9, 59, 0
5, 397421, Note_on_c, 9, 59, 35
5, 397505, Note_on_c, 9, 38, 25
5, 397557, Note_on_c, 9, 46, 0
5, 397562, Note_on_c, 9, 59, 0
5, 397895, Note_on_c, 9, 38, 0
5, 398054, Note_on_c, 9, 59, 71
5, 398109, Note_on_c, 9, 36, 22
5, 398307, Note_on_c, 9, 59, 0
5, 398356, Note_on_c, 9, 36, 0
5, 398503, Note_on_c, 9, 46, 45
5, 398909, Note_on_c, 9, 59, 58
5, 399053, Note_on_c, 9, 59, 0
5, 399319, Note_on_c, 9, 46, 0
5, 399360, Note_on_c, 9, 59, 82
5, 399875, Note_on_c, 9, 59, 0
5, 400333, Note_on_c, 9, 59, 64
5, 400637, Note_on_c, 9, 59, 0
5, 400922, Note_on_c, 9, 59, 68
5, 401341, Note_on_c, 9, 59, 0
5, 401814, Note_on_c, 9, 59, 57
5, 402035, Note_on_c, 9, 59, 0
5, 402240, Note_on_c, 9, 59, 73
5, 402240, Note_on_c, 9, 44, 55
5, 402720, Note_on_c, 9, 44, 0
5, 402838, Note_on_c, 9, 59, 0
5, 403254, Note_on_c, 9, 59, 67
5, 403523, Note_on_c, 9, 59, 0
5, 403795, Note_on_c, 9, 59, 62
5, 404109, Note_on_c, 9, 59, 0
5, 404787, Note_on_c, 9, 59, 80
5, 405158, Note_on_c, 9, 59, 0
5, 405718, Note_on_c, 9, 59, 58
5, 405875, Note_on_c, 9, 59, 0
5, 406109, Note_on_c, 9, 59, 68
5, 406490, Note_on_c, 9, 59, 0
5, 406672, Note_on_c, 9, 59, 66
5, 406861, Note_on_c, 9, 59, 0
5, 407053, Note_on_c, 9, 59, 81
5, 407488, Note_on_c, 9, 59, 0
5, 408000, Note_on_c, 9, 44, 36
5, 408240, Note_on_c, 9, 44, 0
5, 408573, Note_on_c, 9, 59, 64
5, 408806, Note_on_c, 9, 59, 0
5, 409021, Note_on_c, 9, 59, 74
5, 409395, Note_on_c, 9, 59, 0
5, 409939, Note_on_c, 9, 59, 71
5, 410166, Note_on_c, 9, 59, 0
5, 410490, Note_on_c, 9, 59, 75
5, 410842, Note_on_c, 9, 59, 0
5, 410861, Note_on_c, 9, 38, 29
5, 411002, Note_on_c, 9, 38, 0
5, 411398, Note_on_c, 9, 59, 76
5, 411661, Note_on_c, 9, 59, 0
5, 411837, Note_on_c, 9, 59, 71
5, 411853, Note_on_c, 9, 38, 28
5, 412083, Note_on_c, 9, 59, 0
5, 412356, Note_on_c, 9, 38, 0
5, 412861, Note_on_c, 9, 59, 62
5, 413302, Note_on_c, 9, 59, 0
5, 413431, Note_on_c, 9, 38, 18
5, 413601, Note_on_c, 9, 38, 0
5, 413760, Note_on_c, 9, 44, 51
5, 413894, Note_on_c, 9, 59, 75
5, 413908, Note_on_c, 9, 38, 11
5, 414000, Note_on_c, 9, 44, 0
5, 414231, Note_on_c, 9, 38, 0
5, 414438, Note_on_c, 9, 59, 0
5, 414478, Note_on_c, 9, 38, 37
5, 414689, Note_on_c, 9, 38, 0
5, 414755, Note_on_c, 9, 59, 68
5, 415594, Note_on_c, 9, 59, 0
5, 416291, Note_on_c, 9, 59, 73
5, 416874, Note_on_c, 9, 59, 0
5, 417405, Note_on_c, 9, 59, 56
5, 417536, Note_on_c, 9, 59, 0
5, 417735, Note_on_c, 9, 36, 18
5, 417821, Note_on_c, 9, 59, 67
5, 417892, Note_on_c, 9, 36, 0
5, 418704, Note_on_c, 9, 59, 0
5, 419280, Note_on_c, 9, 59, 73
5, 419520, Note_on_c, 9, 44, 44
5, 419741, Note_on_c, 9, 59, 0
5, 420000, Note_on_c, 9, 44, 0
5, 420170, Note_on_c, 9, 59, 62
5, 420355, Note_on_c, 9, 59, 30
5, 420464, Note_on_c, 9, 59, 0
5, 421021, Note_on_c, 9, 59, 0
5, 421440, Note_on_c, 9, 44, 34
5, 421456, Note_on_c, 9, 59, 62
5, 421562, Note_on_c, 9, 38, 20
5, 421834, Note_on_c, 9, 38, 0
5, 421846, Note_on_c, 9, 59, 0
5, 421920, Note_on_c, 9, 44, 0
5, 423360, Note_on_c, 9, 44, 33
5, 423840, Note_on_c, 9, 44, 0
5, 423942, Note_on_c, 9, 59, 37
5, 424255, Note_on_c, 9, 59, 0
5, 424282, Note_on_c, 9, 38, 28
5, 424367, Note_on_c, 9, 59, 24
5, 424617, Note_on_c, 9, 59, 0
5, 424701, Note_on_c, 9, 38, 0
5, 425233, Note_on_c, 9, 38, 20
5, 425280, Note_on_c, 9, 44, 35
5, 425321, Note_on_c, 9, 59, 37
5, 425520, Note_on_c, 9, 44, 0
5, 425569, Note_on_c, 9, 38, 0
5, 425792, Note_on_c, 9, 59, 0
5, 425933, Note_on_c, 9, 38, 41
5, 426276, Note_on_c, 9, 59, 39
5, 426641, Note_on_c, 9, 38, 0
5, 426836, Note_on_c, 9, 59, 0
5, 426845, Note_on_c, 9, 38, 18
5, 426999, Note_on_c, 9, 38, 0
5, 427200, Note_on_c, 9, 44, 28
5, 427239, Note_on_c, 9, 38, 23
5, 427261, Note_on_c, 9, 59, 30
5, 427393, Note_on_c, 9, 38, 0
5, 427604, Note_on_c, 9, 59, 0
5, 427680, Note_on_c, 9, 44, 0
5, 427777, Note_on_c, 9, 38, 43
5, 427848, Note_on_c, 9, 59, 23
5, 427990, Note_on_c, 9, 59, 0
5, 428097, Note_on_c, 9, 38, 0
5, 428175, Note_on_c, 9, 59, 31
5, 428650, Note_on_c, 9, 38, 45
5, 428884, Note_on_c, 9, 38, 0
5, 428904, Note_on_c, 9, 59, 0
5, 429120, Note_on_c, 9, 44, 33
5, 429137, Note_on_c, 9, 38, 34
5, 429360, Note_on_c, 9, 44, 0
5, 429591, Note_on_c, 9, 38, 0
5, 429786, Note_on_c, 9, 57, 56
5, 429799, Note_on_c, 9, 36, 56
5, 429801, Note_on_c, 9, 59, 30
5, 429921, Note_on_c, 9, 59, 0
5, 430100, Note_on_c, 9, 59, 31
5, 430829, Note_on_c, 9, 59, 0
5, 431040, Note_on_c, 9, 44, 44
5, 431520, Note_on_c, 9, 44, 0
5, 431722, Note_on_c, 9, 59, 30
5, 431757, Note_on_c, 9, 57, 0
5, 431866, Note_on_c, 9, 59, 0
5, 432070, Note_on_c, 9, 59, 30
5, 432652, Note_on_c, 9, 59, 0
5, 433015, Note_on_c, 9, 38, 20
5, 433041, Note_on_c, 9, 36, 0
5, 433044, Note_on_c, 9, 59, 44
5, 433146, Note_on_c, 9, 46, 36
5, 433338, Note_on_c, 9, 38, 0
5, 433468, Note_on_c, 9, 59, 0
5, 433571, Note_on_c, 9, 46, 0
5, 433588, Note_on_c, 9, 38, 32
5, 433905, Note_on_c, 9, 38, 0
5, 434012, Note_on_c, 9, 59, 27
5, 434651, Note_on_c, 9, 59, 0
5, 434940, Note_on_c, 9, 59, 42
5, 435505, Note_on_c, 9, 59, 0
5, 436019, Note_on_c, 9, 59, 36
5, 436558, Note_on_c, 9, 59, 0
5, 436800, Note_on_c, 9, 44, 34
5, 436901, Note_on_c, 9, 59, 50
5, 437040, Note_on_c, 9, 44, 0
5, 438408, Note_on_c, 9, 59, 0
5, 438747, Note_on_c, 9, 59, 45
5, 438762, Note_on_c, 9, 38, 18
5, 439149, Note_on_c, 9, 38, 0
5, 439226, Note_on_c, 9, 59, 0
5, 439348, Note_on_c, 9, 38, 24
5, 439378, Note_on_c, 9, 59, 49
5, 439575, Note_on_c, 9, 38, 0
5, 440230, Note_on_c, 9, 59, 0
5, 440423, Note_on_c, 9, 59, 28
5, 440551, Note_on_c, 9, 59, 0
5, 440801, Note_on_c, 9, 59, 49
5, 441519, Note_on_c, 9, 59, 0
5, 441712, Note_on_c, 9, 59, 26
5, 441827, Note_on_c, 9, 59, 0
5, 442321, Note_on_c, 9, 59, 52
5, 442560, Note_on_c, 9, 44, 33
5, 442800, Note_on_c, 9, 44, 0
5, 443050, Note_on_c, 9, 59, 0
5, 443322, Note_on_c, 9, 59, 23
5, 443442, Note_on_c, 9, 59, 0
5, 443627, Note_on_c, 9, 59, 47
5, 444264, Note_on_c, 9, 59, 0
5, 444480, Note_on_c, 9, 44, 36
5, 444522, Note_on_c, 9, 59, 25
5, 444633, Note_on_c, 9, 59, 0
5, 444960, Note_on_c, 9, 44, 0
5, 445194, Note_on_c, 9, 36, 18
5, 445218, Note_on_c, 9, 59, 20
5, 445338, Note_on_c, 9, 59, 0
5, 445402, Note_on_c, 9, 36, 0
5, 445477, Note_on_c, 9, 59, 49
5, 446189, Note_on_c, 9, 59, 0
5, 446400, Note_on_c, 9, 44, 47
5, 446459, Note_on_c, 9, 59, 36
5, 446567, Note_on_c, 9, 59, 0
5, 446880, Note_on_c, 9, 44, 0
5, 447100, Note_on_c, 9, 59, 55
5, 447334, Note_on_c, 9, 59, 0
5, 447354, Note_on_c, 9, 38, 19
5, 447473, Note_on_c, 9, 59, 46
5, 447703, Note_on_c, 9, 38, 0
5, 447972, Note_on_c, 9, 38, 31
5, 448186, Note_on_c, 9, 38, 0
5, 448188, Note_on_c, 9, 59, 0
5, 448330, Note_on_c, 9, 38, 15
5, 448593, Note_on_c, 9, 38, 0
5, 448934, Note_on_c, 9, 59, 30
5, 449029, Note_on_c, 9, 59, 0
5, 449293, Note_on_c, 9, 59, 46
5, 450005, Note_on_c, 9, 59, 0
5, 450240, Note_on_c, 9, 44, 35
5, 450264, Note_on_c, 9, 59, 46
5, 450480, Note_on_c, 9, 44, 0
5, 450726, Note_on_c, 9, 59, 0
5, 450913, Note_on_c, 9, 38, 35
5, 451079, Note_on_c, 9, 38, 0
5, 451200, Note_on_c, 9, 44, 39
5, 451238, Note_on_c, 9, 59, 48
5, 451380, Note_on_c, 9, 38, 23
5, 451678, Note_on_c, 9, 59, 0
5, 451680, Note_on_c, 9, 44, 0
5, 451681, Note_on_c, 9, 38, 0
5, 451893, Note_on_c, 9, 59, 30
5, 452024, Note_on_c, 9, 59, 0
5, 452206, Note_on_c, 9, 59, 43
5, 452570, Note_on_c, 9, 59, 0
5, 452690, Note_on_c, 9, 53, 37
5, 453008, Note_on_c, 9, 53, 0
5, 453190, Note_on_c, 9, 59, 27
5, 453645, Note_on_c, 9, 59, 0
5, 453850, Note_on_c, 9, 38, 29
5, 454007, Note_on_c, 9, 38, 0
5, 454053, Note_on_c, 9, 59, 37
5, 454080, Note_on_c, 9, 44, 39
5, 454215, Note_on_c, 9, 38, 22
5, 454522, Note_on_c, 9, 38, 0
5, 454560, Note_on_c, 9, 44, 0
5, 454594, Note_on_c, 9, 59, 0
5, 455051, Note_on_c, 9, 59, 41
5, 455522, Note_on_c, 9, 59, 0
5, 455575, Note_on_c, 9, 38, 33
5, 455754, Note_on_c, 9, 38, 0
5, 455998, Note_on_c, 9, 59, 40
5, 456000, Note_on_c, 9, 44, 35
5, 456411, Note_on_c, 9, 59, 0
5, 456480, Note_on_c, 9, 44, 0
5, 456596, Note_on_c, 9, 38, 22
5, 456620, Note_on_c, 9, 59, 23
5, 456748, Note_on_c, 9, 59, 0
5, 456749, Note_on_c, 9, 38, 0
5, 456936, Note_on_c, 9, 59, 41
5, 456989, Note_on_c, 9, 38, 20
5, 457453, Note_on_c, 9, 38, 0
5, 457510, Note_on_c, 9, 59, 0
5, 457915, Note_on_c, 9, 59, 54
5, 458092, Note_on_c, 9, 46, 36
5, 458436, Note_on_c, 9, 38, 35
5, 458438, Note_on_c, 9, 46, 0
5, 458605, Note_on_c, 9, 38, 0
5, 458843, Note_on_c, 9, 59, 0
5, 459447, Note_on_c, 9, 38, 40
5, 459525, Note_on_c, 9, 59, 33
5, 459621, Note_on_c, 9, 59, 0
5, 459684, Note_on_c, 9, 38, 0
5, 459855, Note_on_c, 9, 59, 44
5, 459940, Note_on_c, 9, 38, 34
5, 460545, Note_on_c, 9, 38, 0
5, 460561, Note_on_c, 9, 36, 43
5, 460573, Note_on_c, 9, 59, 0
5, 460809, Note_on_c, 9, 59, 46
5, 460874, Note_on_c, 9, 57, 32
5, 461274, Note_on_c, 9, 57, 0
5, 461468, Note_on_c, 9, 59, 0
5, 461760, Note_on_c, 9, 44, 36
5, 462000, Note_on_c, 9, 44, 0
5, 462414, Note_on_c, 9, 59, 34
5, 462520, Note_on_c, 9, 59, 0
5, 462765, Note_on_c, 9, 59, 43
5, 463192, Note_on_c, 9, 59, 0
5, 463445, Note_on_c, 9, 53, 38
5, 463549, Note_on_c, 9, 36, 0
5, 463913, Note_on_c, 9, 53, 0
5, 463920, Note_on_c, 9, 44, 38
5, 464160, Note_on_c, 9, 44, 0
5, 464359, Note_on_c, 9, 53, 32
5, 464506, Note_on_c, 9, 53, 0
5, 464669, Note_on_c, 9, 38, 29
5, 464770, Note_on_c, 9, 53, 37
5, 464839, Note_on_c, 9, 38, 0
5, 465118, Note_on_c, 9, 53, 0
5, 465591, Note_on_c, 9, 38, 53
5, 465784, Note_on_c, 9, 59, 28
5, 465840, Note_on_c, 9, 44, 46
5, 465898, Note_on_c, 9, 59, 0
5, 466080, Note_on_c, 9, 44, 0
5, 466231, Note_on_c, 9, 38, 0
5, 466304, Note_on_c, 9, 59, 45
5, 466524, Note_on_c, 9, 59, 0
5, 466687, Note_on_c, 9, 59, 36
5, 467125, Note_on_c, 9, 59, 0
5, 467577, Note_on_c, 9, 59, 48
5, 467642, Note_on_c, 9, 36, 22
5, 467760, Note_on_c, 9, 44, 37
5, 467815, Note_on_c, 9, 36, 0
5, 468000, Note_on_c, 9, 44, 0
5, 468080, Note_on_c, 9, 59, 0
5, 468257, Note_on_c, 9, 59, 40
5, 468444, Note_on_c, 9, 59, 0
5, 468548, Note_on_c, 9, 59, 33
5, 469122, Note_on_c, 9, 59, 0
5, 469426, Note_on_c, 9, 59, 45
5, 470006, Note_on_c, 9, 59, 0
5, 470482, Note_on_c, 9, 59, 21
5, 470620, Note_on_c, 9, 59, 0
5, 471360, Note_on_c, 9, 44, 36
5, 471404, Note_on_c, 9, 59, 51
5, 471600, Note_on_c, 9, 44, 0
5, 471812, Note_on_c, 9, 59, 0
5, 472018, Note_on_c, 9, 59, 25
5, 472074, Note_on_c, 9, 36, 20
5, 472209, Note_on_c, 9, 36, 0
5, 472212, Note_on_c, 9, 59, 0
5, 472343, Note_on_c, 9, 38, 47
5, 472348, Note_on_c, 9, 59, 33
5, 472919, Note_on_c, 9, 38, 0
5, 472984, Note_on_c, 9, 59, 0
5, 473280, Note_on_c, 9, 44, 38
5, 473290, Note_on_c, 9, 38, 48
5, 473305, Note_on_c, 9, 59, 39
5, 473686, Note_on_c, 9, 59, 0
5, 473760, Note_on_c, 9, 44, 0
5, 473853, Note_on_c, 9, 38, 0
5, 473947, Note_on_c, 9, 59, 21
5, 474069, Note_on_c, 9, 59, 0
5, 474246, Note_on_c, 9, 59, 36
5, 474292, Note_on_c, 9, 38, 59
5, 474853, Note_on_c, 9, 59, 0
5, 474961, Note_on_c, 9, 38, 0
5, 475200, Note_on_c, 9, 44, 37
5, 475245, Note_on_c, 9, 36, 20
5, 475272, Note_on_c, 9, 59, 42
5, 475482, Note_on_c, 9, 36, 0
5, 475641, Note_on_c, 9, 59, 0
5, 475680, Note_on_c, 9, 44, 0
5, 475901, Note_on_c, 9, 38, 45
5, 475946, Note_on_c, 9, 59, 18
5, 476069, Note_on_c, 9, 59, 0
5, 476248, Note_on_c, 9, 59, 31
5, 476610, Note_on_c, 9, 59, 0
5, 476618, Note_on_c, 9, 38, 0
5, 477135, Note_on_c, 9, 59, 52
5, 477210, Note_on_c, 9, 38, 52
5, 477360, Note_on_c, 9, 44, 38
5, 477600, Note_on_c, 9, 44, 0
5, 477700, Note_on_c, 9, 59, 0
5, 477953, Note_on_c, 9, 38, 0
5, 478161, Note_on_c, 9, 38, 51
5, 478740, Note_on_c, 9, 59, 46
5, 478810, Note_on_c, 9, 38, 0
5, 479079, Note_on_c, 9, 46, 44
5, 479085, Note_on_c, 9, 36, 20
5, 479397, Note_on_c, 9, 46, 0
5, 479479, Note_on_c, 9, 59, 0
5, 479505, Note_on_c, 9, 36, 0
5, 479765, Note_on_c, 9, 59, 26
5, 479896, Note_on_c, 9, 59, 0
5, 480138, Note_on_c, 9, 59, 42
5, 480679, Note_on_c, 9, 59, 0
5, 481086, Note_on_c, 9, 46, 39
5, 481478, Note_on_c, 9, 46, 0
5, 481634, Note_on_c, 9, 59, 46
5, 481848, Note_on_c, 9, 59, 0
5, 481949, Note_on_c, 9, 38, 30
5, 481998, Note_on_c, 9, 59, 46
5, 482285, Note_on_c, 9, 38, 0
5, 482390, Note_on_c, 9, 59, 0
5, 482509, Note_on_c, 9, 38, 35
5, 482727, Note_on_c, 9, 38, 0
5, 482885, Note_on_c, 9, 59, 23
5, 483007, Note_on_c, 9, 59, 0
5, 483451, Note_on_c, 9, 59, 49
5, 483674, Note_on_c, 9, 59, 0
5, 483859, Note_on_c, 9, 59, 39
5, 484114, Note_on_c, 9, 59, 0
5, 484800, Note_on_c, 9, 44, 35
5, 484800, Note_on_c, 9, 44, 50
5, 484810, Note_on_c, 9, 38, 27
5, 484841, Note_on_c, 9, 59, 40
5, 485040, Note_on_c, 9, 44, 0
5, 485050, Note_on_c, 9, 38, 0
5, 485094, Note_on_c, 9, 59, 0
5, 485280, Note_on_c, 9, 44, 0
5, 485383, Note_on_c, 9, 38, 27
5, 485431, Note_on_c, 9, 59, 37
5, 485526, Note_on_c, 9, 59, 0
5, 485738, Note_on_c, 9, 38, 0
5, 485828, Note_on_c, 9, 59, 40
5, 486026, Note_on_c, 9, 59, 0
5, 486365, Note_on_c, 9, 38, 37
5, 486391, Note_on_c, 9, 53, 42
5, 486544, Note_on_c, 9, 46, 38
5, 486554, Note_on_c, 9, 38, 0
5, 486720, Note_on_c, 9, 44, 50
5, 486753, Note_on_c, 9, 53, 0
5, 486761, Note_on_c, 9, 51, 37
5, 486856, Note_on_c, 9, 51, 0
5, 486960, Note_on_c, 9, 44, 0
5, 487381, Note_on_c, 9, 59, 28
5, 487492, Note_on_c, 9, 59, 0
5, 487717, Note_on_c, 9, 51, 62
5, 487770, Note_on_c, 9, 59, 38
5, 487783, Note_on_c, 9, 36, 32
5, 487868, Note_on_c, 9, 46, 0
5, 487913, Note_on_c, 9, 51, 0
5, 488349, Note_on_c, 9, 59, 0
5, 488417, Note_on_c, 9, 36, 0
5, 488559, Note_on_c, 9, 53, 30
5, 488640, Note_on_c, 9, 44, 36
5, 488640, Note_on_c, 9, 44, 49
5, 488771, Note_on_c, 9, 51, 54
5, 488880, Note_on_c, 9, 44, 0
5, 488880, Note_on_c, 9, 53, 0
5, 488924, Note_on_c, 9, 51, 0
5, 489120, Note_on_c, 9, 44, 0
5, 489225, Note_on_c, 9, 59, 45
5, 489380, Note_on_c, 9, 38, 34
5, 489505, Note_on_c, 9, 38, 0
5, 489530, Note_on_c, 9, 59, 0
5, 489799, Note_on_c, 9, 51, 55
5, 489815, Note_on_c, 9, 38, 23
5, 490018, Note_on_c, 9, 51, 0
5, 490148, Note_on_c, 9, 38, 0
5, 490207, Note_on_c, 9, 59, 37
5, 490349, Note_on_c, 9, 51, 51
5, 490444, Note_on_c, 9, 59, 0
5, 490560, Note_on_c, 9, 44, 56
5, 490574, Note_on_c, 9, 59, 40
5, 490577, Note_on_c, 9, 51, 0
5, 490612, Note_on_c, 9, 36, 30
5, 490800, Note_on_c, 9, 44, 0
5, 490925, Note_on_c, 9, 36, 0
5, 491020, Note_on_c, 9, 59, 0
5, 491380, Note_on_c, 9, 51, 49
5, 491504, Note_on_c, 9, 51, 0
5, 491504, Note_on_c, 9, 59, 43
5, 491776, Note_on_c, 9, 59, 0
5, 493292, Note_on_c, 9, 51, 46
5, 493419, Note_on_c, 9, 51, 0
5, 493690, Note_on_c, 9, 51, 43
5, 493984, Note_on_c, 9, 51, 0
5, 494400, Note_on_c, 9, 44, 31
5, 494880, Note_on_c, 9, 44, 0
5, 495277, Note_on_c, 9, 51, 33
5, 495383, Note_on_c, 9, 51, 0
5, 495643, Note_on_c, 9, 51, 37
5, 496184, Note_on_c, 9, 51, 0
5, 496320, Note_on_c, 9, 44, 21
5, 496800, Note_on_c, 9, 44, 0
5, 497143, Note_on_c, 9, 51, 50
5, 497356, Note_on_c, 9, 51, 0
5, 497598, Note_on_c, 9, 51, 40
5, 497990, Note_on_c, 9, 51, 0
5, 498134, Note_on_c, 9, 53, 50
5, 498240, Note_on_c, 9, 44, 31
5, 498480, Note_on_c, 9, 44, 0
5, 499090, Note_on_c, 9, 53, 0
5, 499588, Note_on_c, 9, 51, 36
5, 499974, Note_on_c, 9, 51, 0
5, 500160, Note_on_c, 9, 44, 30
5, 500640, Note_on_c, 9, 44, 0
5, 500999, Note_on_c, 9, 51, 39
5, 501120, Note_on_c, 9, 51, 0
5, 501420, Note_on_c, 9, 51, 38
5, 501702, Note_on_c, 9, 51, 0
5, 502130, Note_on_c, 9, 46, 27
5, 502324, Note_on_c, 9, 51, 42
5, 502497, Note_on_c, 9, 51, 0
5, 502583, Note_on_c, 9, 46, 0
5, 504000, Note_on_c, 9, 44, 28
5, 504234, Note_on_c, 9, 51, 31
5, 504412, Note_on_c, 9, 51, 0
5, 504480, Note_on_c, 9, 44, 0
5, 504743, Note_on_c, 9, 51, 36
5, 504942, Note_on_c, 9, 51, 0
5, 505920, Note_on_c, 9, 44, 25
5, 506042, Note_on_c, 9, 51, 39
5, 506330, Note_on_c, 9, 51, 0
5, 506400, Note_on_c, 9, 44, 0
5, 507050, Note_on_c, 9, 51, 48
5, 507353, Note_on_c, 9, 51, 0
5, 508009, Note_on_c, 9, 51, 42
5, 508479, Note_on_c, 9, 51, 0
5, 509086, Note_on_c, 9, 51, 32
5, 509228, Note_on_c, 9, 51, 0
5, 509533, Note_on_c, 9, 53, 41
5, 509824, Note_on_c, 9, 53, 0
5, 510498, Note_on_c, 9, 51, 47
5, 510843, Note_on_c, 9, 51, 0
5, 511503, Note_on_c, 9, 51, 47
5, 511680, Note_on_c, 9, 44, 26
5, 511774, Note_on_c, 9, 51, 0
5, 512160, Note_on_c, 9, 44, 0
5, 512375, Note_on_c, 9, 51, 39
5, 512744, Note_on_c, 9, 51, 0
5, 512816, Note_on_c, 9, 53, 40
5, 513303, Note_on_c, 9, 53, 0
5, 513340, Note_on_c, 9, 51, 52
5, 513527, Note_on_c, 9, 51, 0
5, 513720, Note_on_c, 9, 51, 42
5, 513840, Note_on_c, 9, 44, 18
5, 514080, Note_on_c, 9, 44, 0
5, 514127, Note_on_c, 9, 51, 0
5, 514726, Note_on_c, 9, 51, 49
5, 515013, Note_on_c, 9, 51, 0
5, 515520, Note_on_c, 9, 44, 35
5, 515639, Note_on_c, 9, 51, 46
5, 515760, Note_on_c, 9, 44, 0
5, 515981, Note_on_c, 9, 51, 0
5, 516480, Note_on_c, 9, 44, 25
5, 516603, Note_on_c, 9, 51, 40
5, 516825, Note_on_c, 9, 51, 0
5, 516960, Note_on_c, 9, 44, 0
5, 517064, Note_on_c, 9, 51, 46
5, 517303, Note_on_c, 9, 51, 0
5, 518063, Note_on_c, 9, 51, 51
5, 518907, Note_on_c, 9, 51, 0
5, 519370, Note_on_c, 9, 46, 25
5, 519762, Note_on_c, 9, 46, 0
5, 520100, Note_on_c, 9, 51, 34
5, 520267, Note_on_c, 9, 51, 0
5, 520486, Note_on_c, 9, 51, 31
5, 520722, Note_on_c, 9, 51, 0
5, 521522, Note_on_c, 9, 51, 47
5, 521528, Note_on_c, 9, 53, 39
5, 521761, Note_on_c, 9, 51, 0
5, 521822, Note_on_c, 9, 53, 0
5, 523009, Note_on_c, 9, 53, 26
5, 523017, Note_on_c, 9, 51, 25
5, 523200, Note_on_c, 9, 44, 25
5, 523216, Note_on_c, 9, 53, 0
5, 523236, Note_on_c, 9, 51, 0
5, 523440, Note_on_c, 9, 44, 0
5, 523867, Note_on_c, 9, 51, 32
5, 524085, Note_on_c, 9, 51, 0
5, 524460, Note_on_c, 9, 51, 34
5, 524489, Note_on_c, 9, 53, 32
5, 524932, Note_on_c, 9, 51, 0
5, 524947, Note_on_c, 9, 53, 0
5, 525868, Note_on_c, 9, 51, 31
5, 525920, Note_on_c, 9, 53, 19
5, 526110, Note_on_c, 9, 53, 0
5, 526142, Note_on_c, 9, 51, 0
5, 527187, Note_on_c, 9, 51, 34
5, 527193, Note_on_c, 9, 53, 33
5, 527795, Note_on_c, 9, 51, 0
5, 527815, Note_on_c, 9, 53, 0
5, 528538, Note_on_c, 9, 51, 37
5, 528803, Note_on_c, 9, 51, 0
5, 529451, Note_on_c, 9, 51, 36
5, 529664, Note_on_c, 9, 51, 0
5, 529915, Note_on_c, 9, 51, 43
5, 531208, Note_on_c, 9, 51, 0
5, 531527, Note_on_c, 9, 51, 31
5, 531787, Note_on_c, 9, 51, 0
5, 532000, Note_on_c, 9, 51, 25
5, 532567, Note_on_c, 9, 51, 0
5, 532982, Note_on_c, 9, 51, 34
5, 533042, Note_on_c, 9, 53, 28
5, 533235, Note_on_c, 9, 53, 0
5, 533362, Note_on_c, 9, 51, 0
5, 534485, Note_on_c, 9, 51, 34
5, 534710, Note_on_c, 9, 51, 0
5, 534960, Note_on_c, 9, 44, 20
5, 535200, Note_on_c, 9, 44, 0
5, 535381, Note_on_c, 9, 51, 29
5, 535560, Note_on_c, 9, 51, 0
5, 535862, Note_on_c, 9, 51, 30
5, 535974, Note_on_c, 9, 53, 25
5, 536880, Note_on_c, 9, 44, 25
5, 537221, Note_on_c, 9, 51, 0
5, 537270, Note_on_c, 9, 53, 0
5, 537360, Note_on_c, 9, 44, 0
5, 537509, Note_on_c, 9, 51, 30
5, 537725, Note_on_c, 9, 51, 0
5, 538696, Note_on_c, 9, 51, 31
5, 538745, Note_on_c, 9, 53, 28
5, 540480, Note_on_c, 9, 44, 35
5, 540960, Note_on_c, 9, 44, 0
5, 541798, Note_on_c, 9, 53, 0
5, 541841, Note_on_c, 9, 51, 0
5, 542400, Note_on_c, 9, 44, 18
5, 542595, Note_on_c, 9, 51, 18
5, 542803, Note_on_c, 9, 51, 0
5, 542880, Note_on_c, 9, 44, 0
5, 543177, Note_on_c, 9, 51, 26
5, 543402, Note_on_c, 9, 51, 0
5, 544007, Note_on_c, 9, 51, 28
5, 544202, Note_on_c, 9, 51, 0
5, 544649, Note_on_c, 9, 51, 26
5, 544695, Note_on_c, 9, 53, 24
5, 546189, Note_on_c, 9, 46, 26
5, 546623, Note_on_c, 9, 46, 0
5, 547788, Note_on_c, 9, 53, 0
5, 550046, Note_on_c, 9, 51, 0
5, 550046, End_track
0, 0, End_of_file
