0, 0, Header, 1, 4, 960
1, 0, Start_track
1, 0, Title_t, "My Foolish Heart"
1, 0, Text_t, "Doug McKenzie  dougmck@tpg.com.au\012"
1, 0, Time_signature, 4, 2, 24, 8
1, 0, Key_signature, -2, "major"
1, 0, Tempo, 545455
1, 48, Marker_t, "Last 8 Bars intro - rubato"
1, 1360, Marker_t, "The style here is melody phrases played in unison  2 octaves apart "
1, 11520, Marker_t, "On Ebm7 - a fast Db Major scale (Eb dorian)"
1, 15360, Marker_t, "Arrives on the third of Ab7 (i.e. a C) on a downbeat"
1, 22544, Marker_t, "Chords played in 'gaps' between melodic phrases"
1, 77672, Marker_t, "Chromatic scale in RH & LH starting on 3rd  (D) in RH & 5th (F) in LH"
1, 81903, Marker_t, "This chromatic scale played in triplets with  crescendo"
1, 86564, Marker_t, "Must arrive on F (the melody note) on downbeat  to begin chorus in tempo"
1, 129865, Marker_t, "This 3 note arpeggio on GbMaj7 - C,F,Bb"
1, 203520, Marker_t, "Melody  surrounded by upper and lower neighbors"
1, 211040, Marker_t, "Same thing is repeated on other chord tones"
1, 246624, Marker_t, "Staccato 'drumming' on a note instead of just  holding it"
1, 311040, Tempo, 428571
1, 314880, Marker_t, "'Trio' begins introduction  - double time latinish feel"
1, 344832, Marker_t, "Song begins = Bass plays very freely and melodically"
1, 422400, Marker_t, "More rhythmic 'drumming' instead of just sustaining a note"
1, 449293, Marker_t, "Easy to execute descending run on C7alt  C(4),Bb(3),Ab(2),E(1),Db(2),C(1),Bb(3)....etc."
1, 513680, Marker_t, "3 note melodic fragment repeated in another octave"
1, 538901, Marker_t, "Ascending Db scale on Ebm7"
1, 542138, Marker_t, "Turns into chromatic scale  that arrives on D, the melody note"
1, 547936, Marker_t, "Deliberate wrong note which is held and then finally ....."
1, 551120, Marker_t, "resolved!"
1, 591360, Marker_t, "On 2nd chorus, improvising a little more freely"
1, 698768, Marker_t, "Fourths in RH"
1, 702720, Marker_t, "On G7alt , similar run to the one on C7alt (above)"
1, 713680, Marker_t, "Instead of holding the F, the note is 'decorated' with neighbor tones and repeated rhythmically "
1, 837120, Marker_t, "Bass solo"
1, 958960, Marker_t, "Final 16 bars"
1, 1098240, Marker_t, "Final arpeggio of D triad over a pedalled Bb bass note"
1, 1098240, End_track
2, 0, Start_track
2, 0, Title_t, "Piano"
2, 0, Control_c, 0, 0, 0
2, 0, Control_c, 0, 7, 111
2, 0, Control_c, 0, 91, 13
2, 1, Control_c, 0, 32, 0
2, 2, Program_c, 0, 0
2, 1408, Note_on_c, 0, 79, 75
2, 1440, Note_on_c, 0, 55, 66
2, 1927, Note_on_c, 0, 81, 75
2, 1934, Note_on_c, 0, 79, 0
2, 1947, Note_on_c, 0, 57, 69
2, 1951, Note_on_c, 0, 55, 0
2, 2062, Control_c, 0, 64, 127
2, 2384, Control_c, 0, 64, 0
2, 2485, Note_on_c, 0, 81, 0
2, 2574, Note_on_c, 0, 57, 0
2, 2581, Note_on_c, 0, 58, 71
2, 2595, Note_on_c, 0, 82, 69
2, 2706, Control_c, 0, 64, 127
2, 3157, Note_on_c, 0, 58, 0
2, 3210, Note_on_c, 0, 82, 0
2, 4340, Control_c, 0, 64, 0
2, 4382, Note_on_c, 0, 57, 45
2, 4388, Note_on_c, 0, 62, 54
2, 4401, Note_on_c, 0, 58, 42
2, 4414, Note_on_c, 0, 43, 41
2, 4430, Note_on_c, 0, 50, 35
2, 4677, Control_c, 0, 64, 127
2, 5103, Note_on_c, 0, 57, 0
2, 5130, Note_on_c, 0, 62, 0
2, 5143, Note_on_c, 0, 58, 0
2, 5599, Note_on_c, 0, 70, 78
2, 5898, Note_on_c, 0, 50, 0
2, 5914, Note_on_c, 0, 43, 0
2, 6101, Note_on_c, 0, 70, 0
2, 6343, Note_on_c, 0, 70, 74
2, 6389, Note_on_c, 0, 54, 77
2, 6391, Note_on_c, 0, 62, 77
2, 6418, Note_on_c, 0, 58, 55
2, 6441, Control_c, 0, 64, 0
2, 6953, Control_c, 0, 64, 127
2, 7067, Note_on_c, 0, 58, 0
2, 7218, Note_on_c, 0, 58, 50
2, 7370, Note_on_c, 0, 62, 0
2, 7394, Note_on_c, 0, 70, 0
2, 7538, Note_on_c, 0, 54, 0
2, 7560, Note_on_c, 0, 58, 0
2, 7955, Note_on_c, 0, 69, 69
2, 7960, Note_on_c, 0, 58, 53
2, 7968, Note_on_c, 0, 62, 65
2, 7984, Note_on_c, 0, 53, 49
2, 7999, Control_c, 0, 64, 0
2, 8384, Control_c, 0, 64, 127
2, 8740, Note_on_c, 0, 53, 0
2, 8767, Note_on_c, 0, 69, 0
2, 8836, Note_on_c, 0, 67, 70
2, 8947, Note_on_c, 0, 62, 0
2, 8988, Note_on_c, 0, 58, 0
2, 9210, Note_on_c, 0, 67, 0
2, 9936, Note_on_c, 0, 61, 69
2, 9936, Note_on_c, 0, 70, 63
2, 9949, Note_on_c, 0, 39, 41
2, 9952, Note_on_c, 0, 66, 49
2, 9959, Note_on_c, 0, 54, 37
2, 9973, Control_c, 0, 64, 0
2, 10482, Control_c, 0, 64, 127
2, 10679, Note_on_c, 0, 54, 0
2, 10690, Note_on_c, 0, 46, 55
2, 10704, Note_on_c, 0, 61, 0
2, 10719, Note_on_c, 0, 66, 0
2, 10780, Note_on_c, 0, 39, 0
2, 10801, Note_on_c, 0, 70, 0
2, 11164, Note_on_c, 0, 54, 73
2, 11297, Note_on_c, 0, 46, 0
2, 11521, Note_on_c, 0, 54, 0
2, 11550, Note_on_c, 0, 60, 70
2, 11883, Note_on_c, 0, 60, 0
2, 11901, Note_on_c, 0, 61, 66
2, 12214, Note_on_c, 0, 63, 81
2, 12288, Note_on_c, 0, 61, 0
2, 12382, Note_on_c, 0, 63, 0
2, 12467, Note_on_c, 0, 65, 77
2, 12643, Note_on_c, 0, 65, 0
2, 12704, Note_on_c, 0, 66, 69
2, 12867, Note_on_c, 0, 68, 63
2, 12931, Note_on_c, 0, 66, 0
2, 13055, Note_on_c, 0, 70, 61
2, 13077, Note_on_c, 0, 68, 0
2, 13108, Note_on_c, 0, 70, 0
2, 13170, Note_on_c, 0, 72, 67
2, 13302, Note_on_c, 0, 72, 0
2, 13348, Note_on_c, 0, 73, 55
2, 13492, Note_on_c, 0, 75, 74
2, 13500, Note_on_c, 0, 73, 0
2, 13600, Note_on_c, 0, 75, 0
2, 13641, Note_on_c, 0, 77, 69
2, 13763, Note_on_c, 0, 77, 0
2, 13787, Note_on_c, 0, 78, 55
2, 13939, Note_on_c, 0, 80, 41
2, 13954, Note_on_c, 0, 78, 0
2, 14008, Note_on_c, 0, 80, 0
2, 14043, Note_on_c, 0, 82, 57
2, 14108, Note_on_c, 0, 82, 0
2, 14197, Note_on_c, 0, 84, 75
2, 14308, Note_on_c, 0, 84, 0
2, 14375, Note_on_c, 0, 85, 71
2, 14511, Note_on_c, 0, 85, 0
2, 14551, Note_on_c, 0, 87, 55
2, 14615, Note_on_c, 0, 87, 0
2, 14658, Note_on_c, 0, 89, 69
2, 14793, Note_on_c, 0, 89, 0
2, 14826, Note_on_c, 0, 90, 55
2, 14955, Note_on_c, 0, 92, 54
2, 15002, Note_on_c, 0, 90, 0
2, 15098, Note_on_c, 0, 94, 54
2, 15194, Note_on_c, 0, 92, 0
2, 15258, Note_on_c, 0, 95, 61
2, 15302, Note_on_c, 0, 94, 0
2, 15422, Note_on_c, 0, 54, 53
2, 15423, Note_on_c, 0, 44, 53
2, 15471, Note_on_c, 0, 96, 78
2, 15492, Control_c, 0, 64, 0
2, 15527, Note_on_c, 0, 95, 0
2, 16090, Control_c, 0, 64, 127
2, 16267, Note_on_c, 0, 44, 0
2, 16330, Note_on_c, 0, 54, 0
2, 17652, Note_on_c, 0, 54, 30
2, 17669, Note_on_c, 0, 84, 29
2, 17673, Note_on_c, 0, 65, 37
2, 17692, Note_on_c, 0, 60, 41
2, 18421, Note_on_c, 0, 84, 0
2, 18726, Note_on_c, 0, 96, 0
2, 18738, Note_on_c, 0, 65, 0
2, 18923, Note_on_c, 0, 60, 0
2, 19032, Note_on_c, 0, 54, 0
2, 20093, Note_on_c, 0, 94, 49
2, 20146, Note_on_c, 0, 58, 42
2, 20307, Note_on_c, 0, 94, 0
2, 20387, Note_on_c, 0, 96, 61
2, 20411, Note_on_c, 0, 60, 51
2, 20499, Note_on_c, 0, 60, 0
2, 20633, Note_on_c, 0, 96, 0
2, 20636, Control_c, 0, 64, 0
2, 20695, Note_on_c, 0, 62, 77
2, 20758, Note_on_c, 0, 98, 78
2, 20789, Note_on_c, 0, 58, 0
2, 21214, Control_c, 0, 64, 127
2, 21568, Note_on_c, 0, 98, 0
2, 21774, Note_on_c, 0, 62, 0
2, 22651, Note_on_c, 0, 46, 33
2, 22659, Note_on_c, 0, 62, 55
2, 22669, Note_on_c, 0, 65, 58
2, 22707, Note_on_c, 0, 53, 38
2, 22923, Note_on_c, 0, 65, 0
2, 22977, Note_on_c, 0, 53, 0
2, 23014, Note_on_c, 0, 62, 0
2, 23102, Note_on_c, 0, 46, 0
2, 25809, Note_on_c, 0, 62, 49
2, 25816, Control_c, 0, 64, 0
2, 25835, Note_on_c, 0, 58, 34
2, 25841, Note_on_c, 0, 39, 31
2, 25844, Note_on_c, 0, 46, 30
2, 25851, Note_on_c, 0, 53, 37
2, 25859, Note_on_c, 0, 55, 37
2, 26491, Control_c, 0, 64, 127
2, 26619, Note_on_c, 0, 55, 0
2, 26624, Note_on_c, 0, 53, 0
2, 26740, Note_on_c, 0, 62, 0
2, 26747, Note_on_c, 0, 58, 0
2, 27161, Note_on_c, 0, 39, 0
2, 27208, Note_on_c, 0, 46, 0
2, 28200, Note_on_c, 0, 86, 78
2, 28224, Note_on_c, 0, 74, 54
2, 28224, Control_c, 0, 64, 0
2, 28499, Control_c, 0, 64, 127
2, 29493, Note_on_c, 0, 86, 0
2, 29557, Note_on_c, 0, 84, 57
2, 29589, Note_on_c, 0, 72, 35
2, 29653, Note_on_c, 0, 74, 0
2, 30654, Note_on_c, 0, 84, 0
2, 30684, Note_on_c, 0, 72, 0
2, 30772, Note_on_c, 0, 82, 34
2, 30806, Note_on_c, 0, 70, 35
2, 31066, Note_on_c, 0, 70, 0
2, 31375, Note_on_c, 0, 82, 0
2, 32162, Note_on_c, 0, 86, 63
2, 32167, Control_c, 0, 64, 0
2, 32215, Note_on_c, 0, 82, 57
2, 32234, Note_on_c, 0, 32, 41
2, 32273, Note_on_c, 0, 44, 29
2, 32316, Note_on_c, 0, 77, 33
2, 32359, Control_c, 0, 64, 127
2, 32434, Note_on_c, 0, 32, 0
2, 32551, Note_on_c, 0, 44, 0
2, 32662, Note_on_c, 0, 86, 0
2, 32666, Note_on_c, 0, 82, 0
2, 32791, Note_on_c, 0, 77, 0
2, 33154, Note_on_c, 0, 86, 50
2, 33206, Note_on_c, 0, 82, 47
2, 33244, Note_on_c, 0, 54, 61
2, 33303, Note_on_c, 0, 77, 53
2, 33410, Note_on_c, 0, 86, 0
2, 33458, Note_on_c, 0, 82, 0
2, 33527, Note_on_c, 0, 77, 0
2, 33936, Note_on_c, 0, 82, 39
2, 34024, Note_on_c, 0, 77, 50
2, 34039, Note_on_c, 0, 60, 51
2, 34098, Note_on_c, 0, 74, 47
2, 34272, Note_on_c, 0, 82, 0
2, 34279, Note_on_c, 0, 77, 0
2, 34389, Note_on_c, 0, 74, 0
2, 34883, Note_on_c, 0, 77, 45
2, 34911, Note_on_c, 0, 74, 57
2, 34939, Note_on_c, 0, 65, 45
2, 34944, Note_on_c, 0, 70, 30
2, 35155, Note_on_c, 0, 65, 0
2, 35251, Note_on_c, 0, 77, 0
2, 35264, Note_on_c, 0, 74, 0
2, 35287, Note_on_c, 0, 70, 0
2, 35348, Note_on_c, 0, 60, 0
2, 35465, Note_on_c, 0, 54, 0
2, 35930, Note_on_c, 0, 70, 53
2, 35973, Note_on_c, 0, 67, 49
2, 35989, Note_on_c, 0, 63, 37
2, 36001, Note_on_c, 0, 43, 35
2, 36037, Note_on_c, 0, 59, 49
2, 36041, Note_on_c, 0, 53, 34
2, 36063, Control_c, 0, 64, 0
2, 36595, Control_c, 0, 64, 127
2, 36936, Note_on_c, 0, 67, 0
2, 37172, Note_on_c, 0, 68, 45
2, 37176, Note_on_c, 0, 70, 0
2, 37200, Note_on_c, 0, 50, 33
2, 37629, Note_on_c, 0, 68, 0
2, 37798, Note_on_c, 0, 63, 0
2, 37880, Note_on_c, 0, 53, 0
2, 37892, Note_on_c, 0, 50, 0
2, 37905, Note_on_c, 0, 59, 0
2, 37931, Note_on_c, 0, 43, 0
2, 38974, Note_on_c, 0, 67, 37
2, 39000, Note_on_c, 0, 47, 30
2, 39024, Note_on_c, 0, 56, 18
2, 39030, Note_on_c, 0, 59, 41
2, 39035, Note_on_c, 0, 62, 38
2, 39041, Control_c, 0, 64, 0
2, 39046, Note_on_c, 0, 53, 21
2, 39721, Control_c, 0, 64, 127
2, 40092, Note_on_c, 0, 59, 0
2, 40116, Note_on_c, 0, 56, 0
2, 40158, Note_on_c, 0, 62, 0
2, 40262, Note_on_c, 0, 67, 0
2, 42425, Note_on_c, 0, 67, 66
2, 42940, Note_on_c, 0, 67, 0
2, 43036, Note_on_c, 0, 47, 0
2, 43048, Note_on_c, 0, 53, 0
2, 43140, Note_on_c, 0, 67, 85
2, 43499, Note_on_c, 0, 67, 0
2, 43740, Note_on_c, 0, 67, 93
2, 44155, Note_on_c, 0, 67, 0
2, 44353, Note_on_c, 0, 67, 94
2, 44700, Note_on_c, 0, 67, 0
2, 44969, Note_on_c, 0, 67, 77
2, 45489, Note_on_c, 0, 67, 0
2, 47322, Note_on_c, 0, 70, 45
2, 47358, Note_on_c, 0, 58, 37
2, 47360, Note_on_c, 0, 63, 51
2, 47385, Control_c, 0, 64, 0
2, 47392, Note_on_c, 0, 36, 41
2, 47393, Note_on_c, 0, 48, 29
2, 48157, Note_on_c, 0, 70, 0
2, 48172, Control_c, 0, 64, 127
2, 48298, Note_on_c, 0, 70, 61
2, 48763, Note_on_c, 0, 70, 0
2, 48968, Note_on_c, 0, 70, 65
2, 49218, Note_on_c, 0, 36, 0
2, 49282, Note_on_c, 0, 70, 0
2, 49476, Note_on_c, 0, 48, 0
2, 49553, Note_on_c, 0, 70, 58
2, 49601, Note_on_c, 0, 58, 0
2, 49713, Note_on_c, 0, 63, 0
2, 49939, Note_on_c, 0, 70, 0
2, 50326, Note_on_c, 0, 70, 41
2, 50351, Note_on_c, 0, 65, 57
2, 50361, Note_on_c, 0, 60, 42
2, 50367, Control_c, 0, 64, 0
2, 50371, Note_on_c, 0, 38, 42
2, 50398, Note_on_c, 0, 50, 29
2, 51010, Control_c, 0, 64, 127
2, 51248, Note_on_c, 0, 65, 0
2, 51416, Note_on_c, 0, 63, 78
2, 51479, Note_on_c, 0, 70, 0
2, 51652, Note_on_c, 0, 60, 0
2, 51851, Note_on_c, 0, 63, 0
2, 52238, Note_on_c, 0, 67, 91
2, 53023, Note_on_c, 0, 67, 0
2, 53047, Note_on_c, 0, 38, 0
2, 53081, Note_on_c, 0, 50, 0
2, 53174, Note_on_c, 0, 70, 87
2, 54226, Note_on_c, 0, 70, 0
2, 55686, Note_on_c, 0, 72, 61
2, 55710, Control_c, 0, 64, 0
2, 55729, Note_on_c, 0, 67, 61
2, 55729, Note_on_c, 0, 51, 37
2, 55764, Note_on_c, 0, 58, 33
2, 56225, Control_c, 0, 64, 127
2, 56691, Note_on_c, 0, 72, 0
2, 56788, Note_on_c, 0, 51, 0
2, 56984, Note_on_c, 0, 67, 0
2, 57024, Note_on_c, 0, 58, 0
2, 58626, Note_on_c, 0, 74, 57
2, 58634, Note_on_c, 0, 52, 38
2, 58677, Note_on_c, 0, 67, 37
2, 58683, Note_on_c, 0, 64, 34
2, 58707, Control_c, 0, 64, 0
2, 58730, Note_on_c, 0, 60, 33
2, 59383, Control_c, 0, 64, 127
2, 59680, Note_on_c, 0, 52, 0
2, 59730, Note_on_c, 0, 60, 0
2, 59828, Note_on_c, 0, 74, 0
2, 59951, Note_on_c, 0, 67, 0
2, 60116, Note_on_c, 0, 64, 0
2, 61174, Note_on_c, 0, 70, 49
2, 61257, Note_on_c, 0, 67, 50
2, 61278, Note_on_c, 0, 53, 38
2, 61289, Note_on_c, 0, 63, 49
2, 61307, Control_c, 0, 64, 0
2, 61332, Note_on_c, 0, 58, 37
2, 61933, Control_c, 0, 64, 127
2, 62172, Note_on_c, 0, 53, 0
2, 63375, Note_on_c, 0, 29, 41
2, 63422, Note_on_c, 0, 58, 0
2, 63489, Note_on_c, 0, 63, 0
2, 63510, Note_on_c, 0, 67, 0
2, 63783, Note_on_c, 0, 70, 0
2, 63795, Note_on_c, 0, 29, 0
2, 64830, Note_on_c, 0, 51, 45
2, 65190, Note_on_c, 0, 57, 49
2, 65267, Control_c, 0, 64, 0
2, 65544, Note_on_c, 0, 62, 53
2, 65877, Control_c, 0, 64, 127
2, 65924, Note_on_c, 0, 62, 0
2, 65948, Note_on_c, 0, 66, 51
2, 66218, Note_on_c, 0, 66, 0
2, 66404, Note_on_c, 0, 69, 37
2, 66737, Note_on_c, 0, 69, 0
2, 67411, Note_on_c, 0, 72, 38
2, 67558, Note_on_c, 0, 72, 0
2, 68241, Note_on_c, 0, 77, 41
2, 68424, Note_on_c, 0, 77, 0
2, 68953, Note_on_c, 0, 81, 45
2, 69076, Note_on_c, 0, 81, 0
2, 70373, Note_on_c, 0, 86, 50
2, 70528, Note_on_c, 0, 86, 0
2, 71007, Note_on_c, 0, 90, 41
2, 71165, Note_on_c, 0, 90, 0
2, 71655, Note_on_c, 0, 93, 49
2, 71762, Note_on_c, 0, 93, 0
2, 72503, Note_on_c, 0, 98, 50
2, 73052, Note_on_c, 0, 98, 0
2, 73440, Note_on_c, 0, 98, 37
2, 73877, Note_on_c, 0, 98, 0
2, 74403, Note_on_c, 0, 98, 39
2, 75010, Note_on_c, 0, 98, 0
2, 76554, Note_on_c, 0, 98, 34
2, 76762, Note_on_c, 0, 57, 0
2, 76789, Note_on_c, 0, 98, 0
2, 76821, Note_on_c, 0, 51, 0
2, 77408, Control_c, 0, 64, 0
2, 77975, Note_on_c, 0, 53, 41
2, 77995, Note_on_c, 0, 46, 35
2, 78020, Note_on_c, 0, 62, 46
2, 78031, Note_on_c, 0, 70, 29
2, 78046, Control_c, 0, 64, 0
2, 78396, Note_on_c, 0, 62, 0
2, 78425, Note_on_c, 0, 53, 0
2, 78430, Note_on_c, 0, 54, 47
2, 78433, Note_on_c, 0, 63, 59
2, 78708, Note_on_c, 0, 54, 0
2, 78763, Note_on_c, 0, 46, 0
2, 78780, Note_on_c, 0, 63, 0
2, 78833, Note_on_c, 0, 70, 0
2, 78833, Note_on_c, 0, 64, 54
2, 78864, Note_on_c, 0, 55, 39
2, 79183, Note_on_c, 0, 64, 0
2, 79235, Note_on_c, 0, 55, 0
2, 79250, Note_on_c, 0, 65, 50
2, 79290, Note_on_c, 0, 56, 35
2, 79634, Note_on_c, 0, 65, 0
2, 79635, Note_on_c, 0, 56, 0
2, 79674, Note_on_c, 0, 66, 49
2, 79707, Note_on_c, 0, 57, 37
2, 80030, Note_on_c, 0, 66, 0
2, 80051, Note_on_c, 0, 57, 0
2, 80067, Note_on_c, 0, 67, 45
2, 80075, Note_on_c, 0, 58, 49
2, 80385, Note_on_c, 0, 67, 0
2, 80487, Note_on_c, 0, 58, 0
2, 80501, Note_on_c, 0, 68, 37
2, 80533, Note_on_c, 0, 59, 39
2, 80777, Note_on_c, 0, 68, 0
2, 80784, Note_on_c, 0, 59, 0
2, 80865, Note_on_c, 0, 69, 43
2, 80892, Note_on_c, 0, 60, 34
2, 81110, Note_on_c, 0, 69, 0
2, 81172, Note_on_c, 0, 60, 0
2, 81256, Note_on_c, 0, 61, 46
2, 81257, Note_on_c, 0, 70, 51
2, 81470, Note_on_c, 0, 70, 0
2, 81559, Note_on_c, 0, 61, 0
2, 81681, Note_on_c, 0, 62, 59
2, 81682, Note_on_c, 0, 71, 59
2, 81866, Note_on_c, 0, 71, 0
2, 81943, Note_on_c, 0, 62, 0
2, 82055, Note_on_c, 0, 63, 41
2, 82056, Note_on_c, 0, 72, 61
2, 82205, Note_on_c, 0, 72, 0
2, 82333, Note_on_c, 0, 63, 0
2, 82460, Note_on_c, 0, 73, 63
2, 82471, Note_on_c, 0, 64, 75
2, 82724, Note_on_c, 0, 73, 0
2, 82807, Note_on_c, 0, 64, 0
2, 82903, Note_on_c, 0, 74, 54
2, 82917, Note_on_c, 0, 65, 45
2, 83103, Note_on_c, 0, 74, 0
2, 83159, Note_on_c, 0, 65, 0
2, 83286, Note_on_c, 0, 75, 53
2, 83295, Note_on_c, 0, 66, 37
2, 83479, Note_on_c, 0, 75, 0
2, 83559, Note_on_c, 0, 66, 0
2, 83687, Note_on_c, 0, 67, 42
2, 83703, Note_on_c, 0, 76, 38
2, 83911, Note_on_c, 0, 76, 0
2, 84015, Note_on_c, 0, 67, 0
2, 84085, Note_on_c, 0, 77, 37
2, 84092, Note_on_c, 0, 68, 37
2, 84228, Note_on_c, 0, 77, 0
2, 84409, Note_on_c, 0, 68, 0
2, 84457, Note_on_c, 0, 78, 41
2, 84523, Note_on_c, 0, 69, 42
2, 84764, Note_on_c, 0, 78, 0
2, 84868, Note_on_c, 0, 70, 53
2, 84874, Note_on_c, 0, 69, 0
2, 84876, Note_on_c, 0, 79, 50
2, 85135, Note_on_c, 0, 79, 0
2, 85250, Note_on_c, 0, 80, 61
2, 85279, Note_on_c, 0, 71, 66
2, 85289, Note_on_c, 0, 70, 0
2, 85504, Control_c, 0, 64, 127
2, 85591, Note_on_c, 0, 80, 0
2, 85639, Note_on_c, 0, 81, 77
2, 85661, Note_on_c, 0, 72, 67
2, 85663, Note_on_c, 0, 71, 0
2, 85967, Note_on_c, 0, 81, 0
2, 85987, Note_on_c, 0, 72, 0
2, 86007, Note_on_c, 0, 73, 49
2, 86028, Note_on_c, 0, 82, 69
2, 86327, Note_on_c, 0, 82, 0
2, 86421, Note_on_c, 0, 73, 0
2, 86431, Note_on_c, 0, 83, 73
2, 86464, Note_on_c, 0, 74, 61
2, 86529, Note_on_c, 0, 74, 0
2, 86698, Note_on_c, 0, 83, 0
2, 86825, Note_on_c, 0, 84, 69
2, 87055, Note_on_c, 0, 86, 73
2, 87057, Note_on_c, 0, 84, 0
2, 87281, Note_on_c, 0, 86, 0
2, 87298, Note_on_c, 0, 87, 53
2, 87494, Note_on_c, 0, 87, 0
2, 87514, Note_on_c, 0, 88, 62
2, 87673, Note_on_c, 0, 88, 0
2, 87673, Control_c, 0, 64, 0
2, 87737, Note_on_c, 0, 46, 41
2, 87753, Note_on_c, 0, 89, 62
2, 87961, Control_c, 0, 64, 127
2, 88191, Note_on_c, 0, 46, 0
2, 88481, Note_on_c, 0, 89, 0
2, 89180, Note_on_c, 0, 74, 57
2, 89197, Note_on_c, 0, 67, 42
2, 89231, Note_on_c, 0, 65, 33
2, 89257, Note_on_c, 0, 62, 37
2, 89261, Note_on_c, 0, 60, 33
2, 89487, Note_on_c, 0, 65, 0
2, 89503, Note_on_c, 0, 62, 0
2, 89530, Note_on_c, 0, 74, 0
2, 89570, Note_on_c, 0, 60, 0
2, 89719, Note_on_c, 0, 67, 0
2, 90690, Note_on_c, 0, 62, 58
2, 90711, Note_on_c, 0, 46, 33
2, 90717, Control_c, 0, 64, 0
2, 90720, Note_on_c, 0, 39, 34
2, 90743, Note_on_c, 0, 55, 33
2, 90743, Note_on_c, 0, 53, 33
2, 90744, Note_on_c, 0, 58, 27
2, 91119, Control_c, 0, 64, 127
2, 91164, Note_on_c, 0, 53, 0
2, 91184, Note_on_c, 0, 39, 0
2, 91207, Note_on_c, 0, 55, 0
2, 91226, Note_on_c, 0, 46, 0
2, 91335, Note_on_c, 0, 58, 0
2, 91341, Note_on_c, 0, 62, 0
2, 92137, Note_on_c, 0, 70, 53
2, 92150, Note_on_c, 0, 51, 35
2, 92150, Note_on_c, 0, 58, 42
2, 92158, Note_on_c, 0, 62, 37
2, 92169, Note_on_c, 0, 55, 49
2, 92770, Note_on_c, 0, 62, 0
2, 92779, Note_on_c, 0, 55, 0
2, 92925, Note_on_c, 0, 70, 0
2, 92941, Note_on_c, 0, 58, 0
2, 92973, Note_on_c, 0, 51, 0
2, 93554, Note_on_c, 0, 79, 73
2, 93573, Note_on_c, 0, 72, 67
2, 93600, Note_on_c, 0, 65, 54
2, 93605, Control_c, 0, 64, 0
2, 93614, Note_on_c, 0, 50, 45
2, 93624, Note_on_c, 0, 67, 61
2, 93637, Note_on_c, 0, 57, 37
2, 93657, Note_on_c, 0, 60, 31
2, 94023, Control_c, 0, 64, 127
2, 94310, Note_on_c, 0, 60, 0
2, 94366, Note_on_c, 0, 65, 0
2, 94377, Note_on_c, 0, 50, 0
2, 94396, Note_on_c, 0, 67, 0
2, 94505, Note_on_c, 0, 79, 0
2, 94660, Note_on_c, 0, 72, 0
2, 94972, Note_on_c, 0, 81, 66
2, 94983, Note_on_c, 0, 72, 61
2, 95002, Note_on_c, 0, 64, 37
2, 95521, Note_on_c, 0, 57, 0
2, 95619, Note_on_c, 0, 81, 0
2, 95711, Note_on_c, 0, 64, 0
2, 96046, Note_on_c, 0, 72, 0
2, 96393, Note_on_c, 0, 79, 61
2, 96416, Note_on_c, 0, 71, 47
2, 96427, Control_c, 0, 64, 0
2, 96428, Note_on_c, 0, 75, 43
2, 96459, Note_on_c, 0, 63, 29
2, 96732, Control_c, 0, 64, 127
2, 96986, Note_on_c, 0, 63, 0
2, 97170, Note_on_c, 0, 79, 0
2, 97193, Note_on_c, 0, 75, 0
2, 97201, Note_on_c, 0, 71, 0
2, 97784, Note_on_c, 0, 68, 42
2, 97801, Note_on_c, 0, 71, 38
2, 97804, Note_on_c, 0, 65, 38
2, 97846, Note_on_c, 0, 59, 34
2, 97979, Note_on_c, 0, 59, 0
2, 98075, Note_on_c, 0, 71, 0
2, 98147, Note_on_c, 0, 68, 0
2, 98262, Note_on_c, 0, 65, 0
2, 98831, Note_on_c, 0, 67, 78
2, 99372, Note_on_c, 0, 63, 69
2, 99416, Note_on_c, 0, 58, 39
2, 99430, Control_c, 0, 64, 0
2, 99459, Note_on_c, 0, 55, 37
2, 99481, Note_on_c, 0, 48, 33
2, 99898, Control_c, 0, 64, 127
2, 100091, Note_on_c, 0, 58, 0
2, 100358, Note_on_c, 0, 63, 0
2, 100460, Note_on_c, 0, 55, 0
2, 100854, Note_on_c, 0, 62, 50
2, 100864, Note_on_c, 0, 58, 35
2, 100880, Note_on_c, 0, 60, 29
2, 100886, Note_on_c, 0, 55, 34
2, 101292, Note_on_c, 0, 55, 0
2, 101356, Note_on_c, 0, 58, 0
2, 101542, Note_on_c, 0, 48, 0
2, 101692, Note_on_c, 0, 60, 0
2, 101823, Note_on_c, 0, 62, 0
2, 102076, Note_on_c, 0, 67, 0
2, 102262, Note_on_c, 0, 46, 38
2, 102262, Note_on_c, 0, 62, 59
2, 102287, Note_on_c, 0, 55, 41
2, 102315, Control_c, 0, 64, 0
2, 102780, Control_c, 0, 64, 127
2, 103096, Note_on_c, 0, 55, 0
2, 103136, Note_on_c, 0, 62, 0
2, 103237, Note_on_c, 0, 60, 69
2, 103598, Note_on_c, 0, 60, 0
2, 103758, Control_c, 0, 64, 0
2, 103772, Note_on_c, 0, 63, 81
2, 103782, Note_on_c, 0, 55, 53
2, 104032, Control_c, 0, 64, 127
2, 104055, Note_on_c, 0, 63, 0
2, 104090, Note_on_c, 0, 55, 0
2, 104092, Note_on_c, 0, 46, 0
2, 104197, Note_on_c, 0, 67, 58
2, 104381, Note_on_c, 0, 67, 0
2, 104645, Note_on_c, 0, 70, 85
2, 105106, Control_c, 0, 64, 0
2, 105113, Note_on_c, 0, 40, 46
2, 105495, Control_c, 0, 64, 127
2, 105607, Note_on_c, 0, 40, 0
2, 105616, Note_on_c, 0, 69, 82
2, 105860, Note_on_c, 0, 70, 0
2, 106009, Note_on_c, 0, 69, 0
2, 106607, Note_on_c, 0, 62, 61
2, 106614, Note_on_c, 0, 57, 45
2, 106617, Note_on_c, 0, 81, 93
2, 106630, Note_on_c, 0, 52, 51
2, 106634, Note_on_c, 0, 58, 53
2, 106646, Control_c, 0, 64, 0
2, 107079, Control_c, 0, 64, 127
2, 107323, Note_on_c, 0, 79, 81
2, 107395, Note_on_c, 0, 52, 0
2, 107423, Note_on_c, 0, 81, 0
2, 107449, Note_on_c, 0, 57, 0
2, 107503, Note_on_c, 0, 58, 0
2, 107518, Note_on_c, 0, 62, 0
2, 107671, Note_on_c, 0, 79, 0
2, 108121, Note_on_c, 0, 66, 71
2, 108126, Note_on_c, 0, 61, 61
2, 108135, Note_on_c, 0, 55, 71
2, 108214, Control_c, 0, 64, 0
2, 108600, Note_on_c, 0, 84, 93
2, 108601, Note_on_c, 0, 83, 91
2, 108638, Control_c, 0, 64, 127
2, 108931, Note_on_c, 0, 83, 0
2, 109261, Note_on_c, 0, 66, 0
2, 109573, Note_on_c, 0, 61, 0
2, 109726, Note_on_c, 0, 61, 38
2, 109742, Note_on_c, 0, 64, 46
2, 109760, Control_c, 0, 64, 0
2, 109855, Control_c, 0, 64, 127
2, 110257, Note_on_c, 0, 64, 0
2, 110349, Note_on_c, 0, 61, 0
2, 110391, Note_on_c, 0, 55, 0
2, 110391, Note_on_c, 0, 82, 66
2, 110623, Note_on_c, 0, 84, 0
2, 110718, Note_on_c, 0, 82, 0
2, 110790, Note_on_c, 0, 81, 66
2, 111012, Note_on_c, 0, 81, 0
2, 111025, Note_on_c, 0, 79, 62
2, 111172, Control_c, 0, 64, 0
2, 111175, Note_on_c, 0, 50, 33
2, 111177, Note_on_c, 0, 60, 33
2, 111185, Note_on_c, 0, 79, 0
2, 111191, Note_on_c, 0, 57, 45
2, 111282, Note_on_c, 0, 81, 57
2, 111623, Control_c, 0, 64, 127
2, 112014, Note_on_c, 0, 60, 0
2, 112133, Note_on_c, 0, 76, 57
2, 112152, Note_on_c, 0, 81, 0
2, 112701, Note_on_c, 0, 76, 0
2, 112730, Note_on_c, 0, 79, 74
2, 112743, Note_on_c, 0, 60, 45
2, 112944, Note_on_c, 0, 57, 0
2, 113180, Note_on_c, 0, 77, 71
2, 113345, Note_on_c, 0, 50, 0
2, 113434, Note_on_c, 0, 60, 0
2, 113630, Note_on_c, 0, 77, 0
2, 113659, Note_on_c, 0, 79, 0
2, 113667, Note_on_c, 0, 72, 59
2, 114204, Note_on_c, 0, 54, 37
2, 114217, Note_on_c, 0, 65, 45
2, 114233, Note_on_c, 0, 60, 42
2, 114300, Control_c, 0, 64, 0
2, 114702, Control_c, 0, 64, 127
2, 114860, Note_on_c, 0, 65, 0
2, 114890, Note_on_c, 0, 60, 0
2, 115000, Note_on_c, 0, 54, 0
2, 115784, Note_on_c, 0, 26, 57
2, 116011, Note_on_c, 0, 26, 0
2, 116415, Note_on_c, 0, 72, 0
2, 117407, Note_on_c, 0, 62, 61
2, 117408, Note_on_c, 0, 43, 41
2, 117410, Note_on_c, 0, 50, 41
2, 117423, Note_on_c, 0, 58, 41
2, 117424, Note_on_c, 0, 57, 45
2, 117431, Control_c, 0, 64, 0
2, 117800, Control_c, 0, 64, 127
2, 117910, Note_on_c, 0, 57, 0
2, 117942, Note_on_c, 0, 58, 0
2, 117960, Note_on_c, 0, 62, 0
2, 117974, Note_on_c, 0, 43, 0
2, 118049, Note_on_c, 0, 50, 0
2, 118429, Note_on_c, 0, 70, 78
2, 118434, Note_on_c, 0, 65, 85
2, 118438, Note_on_c, 0, 60, 78
2, 118458, Control_c, 0, 64, 0
2, 118461, Note_on_c, 0, 55, 67
2, 118618, Control_c, 0, 64, 127
2, 118806, Note_on_c, 0, 60, 0
2, 118909, Note_on_c, 0, 70, 0
2, 118918, Note_on_c, 0, 65, 0
2, 118920, Note_on_c, 0, 55, 0
2, 119067, Note_on_c, 0, 65, 77
2, 119069, Note_on_c, 0, 72, 77
2, 119085, Control_c, 0, 64, 0
2, 119088, Note_on_c, 0, 62, 81
2, 119089, Note_on_c, 0, 57, 79
2, 119485, Control_c, 0, 64, 127
2, 119538, Note_on_c, 0, 65, 0
2, 119586, Note_on_c, 0, 62, 0
2, 119666, Note_on_c, 0, 72, 0
2, 120584, Note_on_c, 0, 57, 0
2, 120798, Note_on_c, 0, 70, 59
2, 120803, Note_on_c, 0, 63, 53
2, 120811, Note_on_c, 0, 59, 59
2, 120818, Note_on_c, 0, 67, 57
2, 120822, Note_on_c, 0, 49, 41
2, 120824, Note_on_c, 0, 56, 49
2, 120862, Control_c, 0, 64, 0
2, 121361, Control_c, 0, 64, 127
2, 121363, Note_on_c, 0, 56, 0
2, 121440, Note_on_c, 0, 49, 0
2, 121834, Note_on_c, 0, 59, 0
2, 121906, Note_on_c, 0, 67, 0
2, 121922, Note_on_c, 0, 63, 0
2, 122145, Note_on_c, 0, 70, 0
2, 122389, Note_on_c, 0, 67, 49
2, 122407, Note_on_c, 0, 59, 43
2, 122423, Note_on_c, 0, 63, 38
2, 122455, Note_on_c, 0, 44, 27
2, 122455, Note_on_c, 0, 37, 29
2, 122759, Note_on_c, 0, 67, 0
2, 122776, Note_on_c, 0, 37, 0
2, 122872, Note_on_c, 0, 44, 0
2, 123023, Note_on_c, 0, 63, 0
2, 123082, Note_on_c, 0, 59, 0
2, 123896, Control_c, 0, 64, 0
2, 123909, Note_on_c, 0, 58, 50
2, 123928, Note_on_c, 0, 36, 47
2, 123942, Note_on_c, 0, 48, 33
2, 123945, Note_on_c, 0, 55, 35
2, 124243, Control_c, 0, 64, 127
2, 124353, Note_on_c, 0, 55, 0
2, 124420, Note_on_c, 0, 58, 0
2, 124444, Note_on_c, 0, 36, 0
2, 124539, Note_on_c, 0, 48, 0
2, 124964, Note_on_c, 0, 70, 81
2, 125463, Note_on_c, 0, 48, 46
2, 125463, Note_on_c, 0, 62, 57
2, 125471, Note_on_c, 0, 58, 41
2, 125482, Control_c, 0, 64, 0
2, 125769, Note_on_c, 0, 70, 0
2, 125852, Note_on_c, 0, 62, 0
2, 125865, Note_on_c, 0, 63, 62
2, 125980, Note_on_c, 0, 63, 0
2, 126232, Note_on_c, 0, 67, 61
2, 126299, Note_on_c, 0, 67, 0
2, 126579, Note_on_c, 0, 71, 69
2, 126627, Note_on_c, 0, 48, 0
2, 126653, Control_c, 0, 64, 127
2, 126694, Note_on_c, 0, 58, 0
2, 126726, Note_on_c, 0, 71, 0
2, 126830, Control_c, 0, 64, 0
2, 126950, Note_on_c, 0, 74, 87
2, 126956, Note_on_c, 0, 46, 54
2, 126983, Note_on_c, 0, 55, 45
2, 127193, Note_on_c, 0, 74, 0
2, 127319, Note_on_c, 0, 71, 57
2, 127521, Note_on_c, 0, 71, 0
2, 127652, Note_on_c, 0, 72, 71
2, 127923, Note_on_c, 0, 72, 0
2, 128008, Note_on_c, 0, 55, 0
2, 128014, Note_on_c, 0, 67, 58
2, 128139, Control_c, 0, 64, 127
2, 128287, Note_on_c, 0, 67, 0
2, 128315, Control_c, 0, 64, 0
2, 128406, Note_on_c, 0, 63, 49
2, 128439, Note_on_c, 0, 55, 37
2, 128529, Control_c, 0, 64, 127
2, 128721, Note_on_c, 0, 63, 0
2, 128886, Note_on_c, 0, 63, 61
2, 129052, Note_on_c, 0, 55, 0
2, 129204, Note_on_c, 0, 63, 0
2, 129208, Note_on_c, 0, 46, 0
2, 129365, Note_on_c, 0, 65, 67
2, 129845, Note_on_c, 0, 42, 45
2, 129885, Note_on_c, 0, 53, 30
2, 129911, Control_c, 0, 64, 0
2, 130284, Note_on_c, 0, 60, 62
2, 130327, Control_c, 0, 64, 127
2, 130397, Note_on_c, 0, 65, 0
2, 130437, Note_on_c, 0, 42, 0
2, 130528, Note_on_c, 0, 60, 0
2, 130565, Note_on_c, 0, 53, 0
2, 130599, Note_on_c, 0, 65, 66
2, 130872, Note_on_c, 0, 65, 0
2, 130872, Note_on_c, 0, 70, 71
2, 131005, Note_on_c, 0, 70, 0
2, 131108, Note_on_c, 0, 72, 79
2, 131322, Note_on_c, 0, 77, 69
2, 131351, Control_c, 0, 64, 0
2, 131396, Note_on_c, 0, 72, 0
2, 131405, Note_on_c, 0, 65, 35
2, 131409, Note_on_c, 0, 54, 33
2, 131425, Note_on_c, 0, 60, 41
2, 131433, Note_on_c, 0, 58, 46
2, 131585, Note_on_c, 0, 77, 0
2, 131590, Control_c, 0, 64, 127
2, 131591, Note_on_c, 0, 82, 55
2, 131689, Note_on_c, 0, 82, 0
2, 131830, Note_on_c, 0, 84, 62
2, 131963, Note_on_c, 0, 65, 0
2, 132014, Note_on_c, 0, 84, 0
2, 132057, Note_on_c, 0, 89, 69
2, 132156, Note_on_c, 0, 60, 0
2, 132159, Note_on_c, 0, 58, 0
2, 132273, Note_on_c, 0, 54, 0
2, 132278, Note_on_c, 0, 94, 63
2, 132366, Note_on_c, 0, 89, 0
2, 132470, Note_on_c, 0, 94, 0
2, 132536, Note_on_c, 0, 96, 71
2, 132741, Note_on_c, 0, 96, 0
2, 132814, Note_on_c, 0, 94, 65
2, 132905, Note_on_c, 0, 63, 37
2, 132934, Note_on_c, 0, 60, 62
2, 132947, Note_on_c, 0, 53, 49
2, 133005, Control_c, 0, 64, 0
2, 133027, Note_on_c, 0, 94, 0
2, 133121, Note_on_c, 0, 90, 49
2, 133438, Control_c, 0, 64, 127
2, 133703, Note_on_c, 0, 63, 0
2, 134030, Note_on_c, 0, 89, 79
2, 134095, Note_on_c, 0, 90, 0
2, 134127, Note_on_c, 0, 60, 0
2, 134377, Note_on_c, 0, 89, 0
2, 134529, Note_on_c, 0, 87, 82
2, 134547, Note_on_c, 0, 63, 42
2, 134558, Note_on_c, 0, 60, 41
2, 134906, Note_on_c, 0, 63, 0
2, 135224, Note_on_c, 0, 87, 0
2, 135283, Note_on_c, 0, 60, 0
2, 135459, Note_on_c, 0, 86, 78
2, 135625, Note_on_c, 0, 86, 0
2, 135769, Note_on_c, 0, 87, 83
2, 135996, Note_on_c, 0, 87, 0
2, 136074, Note_on_c, 0, 89, 70
2, 136101, Note_on_c, 0, 65, 41
2, 136127, Note_on_c, 0, 62, 38
2, 136132, Control_c, 0, 64, 0
2, 136186, Note_on_c, 0, 60, 26
2, 136250, Note_on_c, 0, 89, 0
2, 136571, Note_on_c, 0, 87, 75
2, 136707, Note_on_c, 0, 53, 0
2, 136754, Note_on_c, 0, 87, 0
2, 136782, Note_on_c, 0, 65, 0
2, 136941, Note_on_c, 0, 85, 51
2, 137075, Note_on_c, 0, 85, 0
2, 137198, Note_on_c, 0, 86, 69
2, 137383, Control_c, 0, 64, 127
2, 137401, Note_on_c, 0, 86, 0
2, 137433, Note_on_c, 0, 84, 62
2, 137540, Note_on_c, 0, 53, 49
2, 137543, Control_c, 0, 64, 0
2, 137599, Note_on_c, 0, 84, 0
2, 137681, Note_on_c, 0, 81, 49
2, 137805, Note_on_c, 0, 81, 0
2, 137930, Note_on_c, 0, 84, 67
2, 138027, Note_on_c, 0, 60, 0
2, 138091, Note_on_c, 0, 84, 0
2, 138150, Note_on_c, 0, 81, 49
2, 138270, Note_on_c, 0, 81, 0
2, 138411, Note_on_c, 0, 82, 50
2, 138459, Note_on_c, 0, 62, 0
2, 138617, Control_c, 0, 64, 127
2, 138649, Note_on_c, 0, 82, 0
2, 138681, Note_on_c, 0, 77, 53
2, 138854, Note_on_c, 0, 77, 0
2, 138993, Note_on_c, 0, 77, 51
2, 139130, Note_on_c, 0, 77, 0
2, 139212, Note_on_c, 0, 62, 39
2, 139255, Note_on_c, 0, 65, 37
2, 139274, Note_on_c, 0, 60, 33
2, 139297, Note_on_c, 0, 77, 57
2, 139483, Note_on_c, 0, 77, 0
2, 139645, Note_on_c, 0, 65, 0
2, 139654, Note_on_c, 0, 74, 61
2, 139762, Note_on_c, 0, 74, 0
2, 139818, Note_on_c, 0, 60, 0
2, 139974, Note_on_c, 0, 74, 61
2, 139982, Note_on_c, 0, 62, 0
2, 140142, Note_on_c, 0, 74, 0
2, 140252, Note_on_c, 0, 69, 61
2, 140403, Note_on_c, 0, 69, 0
2, 140571, Note_on_c, 0, 69, 57
2, 140714, Note_on_c, 0, 69, 0
2, 140859, Note_on_c, 0, 62, 39
2, 140872, Note_on_c, 0, 65, 34
2, 140914, Note_on_c, 0, 60, 29
2, 141116, Note_on_c, 0, 65, 0
2, 141632, Note_on_c, 0, 53, 0
2, 141672, Note_on_c, 0, 62, 0
2, 141692, Note_on_c, 0, 60, 0
2, 141796, Note_on_c, 0, 69, 70
2, 142042, Note_on_c, 0, 69, 0
2, 142117, Note_on_c, 0, 70, 73
2, 142399, Note_on_c, 0, 70, 0
2, 142493, Note_on_c, 0, 68, 50
2, 142509, Note_on_c, 0, 63, 30
2, 142514, Control_c, 0, 64, 0
2, 142522, Note_on_c, 0, 72, 47
2, 142536, Note_on_c, 0, 60, 38
2, 142564, Note_on_c, 0, 53, 26
2, 142588, Note_on_c, 0, 56, 29
2, 143046, Control_c, 0, 64, 127
2, 143132, Note_on_c, 0, 63, 0
2, 143168, Note_on_c, 0, 60, 0
2, 143171, Note_on_c, 0, 68, 0
2, 143251, Note_on_c, 0, 72, 0
2, 143260, Note_on_c, 0, 56, 0
2, 143294, Note_on_c, 0, 53, 0
2, 144184, Note_on_c, 0, 67, 54
2, 144187, Note_on_c, 0, 63, 42
2, 144205, Note_on_c, 0, 60, 38
2, 144384, Control_c, 0, 64, 0
2, 144653, Note_on_c, 0, 58, 65
2, 145000, Note_on_c, 0, 58, 0
2, 145128, Control_c, 0, 64, 127
2, 145144, Note_on_c, 0, 46, 54
2, 145165, Note_on_c, 0, 60, 0
2, 145329, Note_on_c, 0, 63, 0
2, 145640, Control_c, 0, 64, 0
2, 145680, Note_on_c, 0, 62, 61
2, 145689, Note_on_c, 0, 56, 34
2, 145699, Note_on_c, 0, 59, 53
2, 145864, Control_c, 0, 64, 127
2, 145974, Note_on_c, 0, 46, 0
2, 145984, Note_on_c, 0, 59, 0
2, 145997, Note_on_c, 0, 56, 0
2, 146061, Note_on_c, 0, 67, 0
2, 146062, Note_on_c, 0, 62, 0
2, 146776, Note_on_c, 0, 56, 49
2, 146776, Note_on_c, 0, 70, 61
2, 146777, Note_on_c, 0, 66, 61
2, 146779, Note_on_c, 0, 61, 63
2, 146792, Note_on_c, 0, 62, 63
2, 146829, Control_c, 0, 64, 0
2, 147567, Control_c, 0, 64, 127
2, 147884, Note_on_c, 0, 62, 0
2, 148083, Note_on_c, 0, 56, 0
2, 148316, Note_on_c, 0, 70, 0
2, 148329, Note_on_c, 0, 61, 0
2, 148339, Note_on_c, 0, 66, 0
2, 149317, Note_on_c, 0, 55, 53
2, 149356, Note_on_c, 0, 46, 37
2, 149359, Note_on_c, 0, 60, 51
2, 149366, Control_c, 0, 64, 0
2, 149372, Note_on_c, 0, 39, 33
2, 149763, Control_c, 0, 64, 127
2, 149858, Note_on_c, 0, 55, 0
2, 150013, Note_on_c, 0, 39, 0
2, 150040, Note_on_c, 0, 60, 0
2, 150048, Note_on_c, 0, 46, 0
2, 151008, Note_on_c, 0, 71, 67
2, 151018, Note_on_c, 0, 67, 66
2, 151036, Note_on_c, 0, 62, 57
2, 151044, Control_c, 0, 64, 0
2, 151045, Note_on_c, 0, 51, 49
2, 151052, Note_on_c, 0, 59, 41
2, 151479, Control_c, 0, 64, 127
2, 151693, Note_on_c, 0, 62, 0
2, 151750, Note_on_c, 0, 71, 0
2, 151819, Note_on_c, 0, 74, 89
2, 151943, Note_on_c, 0, 67, 0
2, 152444, Note_on_c, 0, 74, 0
2, 152599, Control_c, 0, 64, 0
2, 152610, Note_on_c, 0, 72, 69
2, 152631, Note_on_c, 0, 59, 0
2, 152637, Note_on_c, 0, 67, 77
2, 152680, Note_on_c, 0, 60, 41
2, 153147, Control_c, 0, 64, 127
2, 153307, Note_on_c, 0, 51, 0
2, 153753, Note_on_c, 0, 67, 0
2, 154262, Note_on_c, 0, 67, 47
2, 154296, Note_on_c, 0, 62, 47
2, 154878, Note_on_c, 0, 60, 0
2, 155072, Note_on_c, 0, 62, 0
2, 155088, Note_on_c, 0, 51, 45
2, 155227, Note_on_c, 0, 51, 0
2, 155566, Note_on_c, 0, 67, 0
2, 155887, Control_c, 0, 64, 0
2, 155898, Note_on_c, 0, 65, 61
2, 155900, Note_on_c, 0, 61, 49
2, 155913, Note_on_c, 0, 60, 42
2, 155927, Note_on_c, 0, 55, 49
2, 156260, Control_c, 0, 64, 127
2, 156397, Note_on_c, 0, 72, 0
2, 156708, Note_on_c, 0, 72, 78
2, 157056, Note_on_c, 0, 73, 77
2, 157085, Note_on_c, 0, 72, 0
2, 157219, Note_on_c, 0, 65, 0
2, 157237, Note_on_c, 0, 60, 0
2, 157261, Note_on_c, 0, 61, 0
2, 157308, Note_on_c, 0, 73, 0
2, 157468, Note_on_c, 0, 77, 81
2, 157469, Note_on_c, 0, 61, 46
2, 157471, Note_on_c, 0, 60, 42
2, 157484, Note_on_c, 0, 65, 58
2, 157536, Control_c, 0, 64, 0
2, 157804, Note_on_c, 0, 77, 0
2, 157855, Note_on_c, 0, 82, 82
2, 157895, Control_c, 0, 64, 127
2, 158078, Note_on_c, 0, 60, 0
2, 158079, Note_on_c, 0, 65, 0
2, 158140, Note_on_c, 0, 82, 0
2, 158156, Note_on_c, 0, 55, 0
2, 158185, Note_on_c, 0, 61, 0
2, 158241, Note_on_c, 0, 84, 94
2, 158534, Note_on_c, 0, 84, 0
2, 158609, Note_on_c, 0, 86, 93
2, 158913, Note_on_c, 0, 86, 0
2, 159003, Note_on_c, 0, 54, 55
2, 159008, Note_on_c, 0, 65, 57
2, 159024, Note_on_c, 0, 60, 53
2, 159028, Note_on_c, 0, 87, 78
2, 159046, Control_c, 0, 64, 0
2, 159455, Note_on_c, 0, 87, 0
2, 159508, Note_on_c, 0, 86, 73
2, 160021, Control_c, 0, 64, 127
2, 160233, Note_on_c, 0, 86, 0
2, 160247, Note_on_c, 0, 65, 0
2, 160260, Note_on_c, 0, 84, 77
2, 160375, Note_on_c, 0, 60, 0
2, 160422, Note_on_c, 0, 84, 0
2, 160564, Note_on_c, 0, 82, 31
2, 160808, Control_c, 0, 64, 0
2, 160837, Note_on_c, 0, 82, 0
2, 160904, Note_on_c, 0, 64, 42
2, 160909, Note_on_c, 0, 60, 37
2, 161010, Note_on_c, 0, 84, 75
2, 161295, Control_c, 0, 64, 127
2, 161373, Note_on_c, 0, 84, 0
2, 161383, Note_on_c, 0, 82, 59
2, 161619, Note_on_c, 0, 60, 0
2, 161723, Note_on_c, 0, 64, 0
2, 161744, Note_on_c, 0, 54, 0
2, 161983, Note_on_c, 0, 81, 69
2, 162064, Note_on_c, 0, 82, 0
2, 162244, Note_on_c, 0, 81, 0
2, 162612, Note_on_c, 0, 62, 50
2, 162653, Note_on_c, 0, 57, 41
2, 162656, Control_c, 0, 64, 0
2, 162659, Note_on_c, 0, 58, 42
2, 162662, Note_on_c, 0, 55, 35
2, 163041, Control_c, 0, 64, 127
2, 163257, Note_on_c, 0, 62, 0
2, 163264, Note_on_c, 0, 57, 0
2, 163305, Note_on_c, 0, 58, 0
2, 163396, Note_on_c, 0, 55, 0
2, 164245, Note_on_c, 0, 62, 55
2, 164279, Note_on_c, 0, 58, 37
2, 164293, Note_on_c, 0, 53, 35
2, 164295, Note_on_c, 0, 50, 34
2, 164298, Note_on_c, 0, 57, 39
2, 164300, Note_on_c, 0, 43, 34
2, 164343, Control_c, 0, 64, 0
2, 164612, Control_c, 0, 64, 127
2, 164775, Note_on_c, 0, 57, 0
2, 164840, Note_on_c, 0, 58, 0
2, 164874, Note_on_c, 0, 62, 0
2, 164920, Note_on_c, 0, 43, 0
2, 164930, Note_on_c, 0, 50, 0
2, 164976, Note_on_c, 0, 53, 0
2, 165277, Note_on_c, 0, 77, 86
2, 165820, Note_on_c, 0, 77, 0
2, 165912, Control_c, 0, 64, 0
2, 165942, Note_on_c, 0, 74, 54
2, 165944, Note_on_c, 0, 54, 37
2, 165955, Note_on_c, 0, 60, 33
2, 165958, Note_on_c, 0, 50, 34
2, 165960, Note_on_c, 0, 70, 39
2, 165995, Note_on_c, 0, 65, 29
2, 166265, Control_c, 0, 64, 127
2, 166480, Note_on_c, 0, 50, 0
2, 166534, Note_on_c, 0, 60, 0
2, 166593, Note_on_c, 0, 54, 0
2, 166736, Note_on_c, 0, 65, 0
2, 166861, Note_on_c, 0, 70, 0
2, 167008, Note_on_c, 0, 74, 0
2, 167588, Note_on_c, 0, 54, 65
2, 167598, Note_on_c, 0, 65, 77
2, 167611, Note_on_c, 0, 60, 70
2, 167649, Control_c, 0, 64, 0
2, 167658, Note_on_c, 0, 65, 0
2, 167663, Note_on_c, 0, 60, 0
2, 167725, Note_on_c, 0, 54, 0
2, 168450, Note_on_c, 0, 84, 81
2, 168620, Control_c, 0, 64, 127
2, 168678, Note_on_c, 0, 84, 0
2, 168740, Note_on_c, 0, 81, 62
2, 168921, Note_on_c, 0, 81, 0
2, 169025, Control_c, 0, 64, 0
2, 169117, Note_on_c, 0, 43, 50
2, 169121, Note_on_c, 0, 50, 49
2, 169134, Note_on_c, 0, 82, 69
2, 169214, Note_on_c, 0, 50, 0
2, 169237, Note_on_c, 0, 43, 0
2, 169294, Note_on_c, 0, 82, 0
2, 169583, Note_on_c, 0, 78, 47
2, 169709, Note_on_c, 0, 78, 0
2, 169833, Note_on_c, 0, 81, 71
2, 170017, Note_on_c, 0, 81, 0
2, 170139, Note_on_c, 0, 79, 58
2, 170294, Note_on_c, 0, 79, 0
2, 170425, Note_on_c, 0, 74, 49
2, 170470, Control_c, 0, 64, 127
2, 170495, Note_on_c, 0, 74, 0
2, 170517, Control_c, 0, 64, 0
2, 170674, Note_on_c, 0, 62, 49
2, 170692, Note_on_c, 0, 55, 39
2, 170711, Note_on_c, 0, 58, 34
2, 171000, Control_c, 0, 64, 127
2, 171460, Note_on_c, 0, 62, 0
2, 171606, Note_on_c, 0, 58, 0
2, 171620, Note_on_c, 0, 70, 61
2, 171630, Note_on_c, 0, 55, 0
2, 171946, Note_on_c, 0, 65, 57
2, 172151, Note_on_c, 0, 65, 0
2, 172319, Note_on_c, 0, 65, 58
2, 172323, Note_on_c, 0, 62, 53
2, 172345, Note_on_c, 0, 48, 38
2, 172363, Note_on_c, 0, 58, 31
2, 172366, Note_on_c, 0, 55, 47
2, 172379, Control_c, 0, 64, 0
2, 172812, Control_c, 0, 64, 127
2, 173208, Note_on_c, 0, 58, 0
2, 173418, Note_on_c, 0, 55, 0
2, 173532, Note_on_c, 0, 65, 0
2, 173611, Note_on_c, 0, 62, 0
2, 173931, Note_on_c, 0, 70, 0
2, 173966, Note_on_c, 0, 64, 59
2, 174012, Note_on_c, 0, 60, 46
2, 174041, Note_on_c, 0, 58, 27
2, 174528, Note_on_c, 0, 58, 0
2, 174720, Note_on_c, 0, 60, 0
2, 174775, Note_on_c, 0, 64, 0
2, 174922, Note_on_c, 0, 69, 98
2, 175410, Note_on_c, 0, 69, 0
2, 175527, Note_on_c, 0, 69, 75
2, 175544, Note_on_c, 0, 63, 83
2, 175571, Note_on_c, 0, 60, 75
2, 175577, Note_on_c, 0, 57, 65
2, 175582, Control_c, 0, 64, 0
2, 176067, Control_c, 0, 64, 127
2, 176306, Note_on_c, 0, 69, 0
2, 176573, Note_on_c, 0, 69, 78
2, 177011, Note_on_c, 0, 48, 0
2, 177049, Note_on_c, 0, 69, 0
2, 177230, Note_on_c, 0, 48, 35
2, 177248, Note_on_c, 0, 69, 62
2, 177919, Note_on_c, 0, 57, 0
2, 178008, Note_on_c, 0, 69, 0
2, 178048, Note_on_c, 0, 48, 0
2, 178359, Note_on_c, 0, 69, 46
2, 178392, Note_on_c, 0, 60, 0
2, 178520, Note_on_c, 0, 63, 0
2, 178680, Note_on_c, 0, 69, 0
2, 178961, Note_on_c, 0, 69, 62
2, 178981, Note_on_c, 0, 63, 53
2, 178985, Note_on_c, 0, 61, 49
2, 178987, Note_on_c, 0, 59, 58
2, 178992, Control_c, 0, 64, 0
2, 179001, Note_on_c, 0, 53, 46
2, 179024, Note_on_c, 0, 43, 29
2, 179456, Control_c, 0, 64, 127
2, 179994, Note_on_c, 0, 53, 0
2, 180097, Note_on_c, 0, 59, 0
2, 180267, Note_on_c, 0, 61, 0
2, 180382, Note_on_c, 0, 63, 0
2, 180795, Note_on_c, 0, 63, 29
2, 180803, Note_on_c, 0, 61, 31
2, 180808, Note_on_c, 0, 59, 43
2, 180858, Note_on_c, 0, 53, 22
2, 181807, Note_on_c, 0, 69, 0
2, 182156, Note_on_c, 0, 59, 0
2, 182240, Note_on_c, 0, 63, 0
2, 182280, Note_on_c, 0, 43, 0
2, 182342, Note_on_c, 0, 61, 0
2, 182397, Note_on_c, 0, 53, 0
2, 183390, Note_on_c, 0, 69, 74
2, 183420, Note_on_c, 0, 63, 57
2, 183422, Note_on_c, 0, 58, 50
2, 183426, Note_on_c, 0, 67, 67
2, 183449, Note_on_c, 0, 48, 39
2, 183465, Control_c, 0, 64, 0
2, 184058, Control_c, 0, 64, 127
2, 184084, Note_on_c, 0, 69, 0
2, 184286, Note_on_c, 0, 69, 75
2, 184758, Note_on_c, 0, 69, 0
2, 184923, Note_on_c, 0, 67, 0
2, 185093, Note_on_c, 0, 48, 0
2, 185093, Note_on_c, 0, 69, 69
2, 185343, Note_on_c, 0, 58, 0
2, 185479, Note_on_c, 0, 63, 0
2, 185677, Note_on_c, 0, 69, 0
2, 186035, Note_on_c, 0, 69, 42
2, 186048, Note_on_c, 0, 61, 53
2, 186060, Note_on_c, 0, 65, 54
2, 186064, Control_c, 0, 64, 0
2, 186070, Note_on_c, 0, 41, 37
2, 186089, Note_on_c, 0, 51, 31
2, 186097, Note_on_c, 0, 57, 53
2, 186771, Control_c, 0, 64, 127
2, 187156, Note_on_c, 0, 57, 0
2, 187211, Note_on_c, 0, 51, 0
2, 187298, Note_on_c, 0, 65, 0
2, 187441, Note_on_c, 0, 61, 0
2, 188038, Note_on_c, 0, 69, 0
2, 188368, Note_on_c, 0, 41, 0
2, 188864, Note_on_c, 0, 77, 79
2, 189387, Note_on_c, 0, 77, 0
2, 189559, Control_c, 0, 64, 0
2, 189584, Note_on_c, 0, 77, 77
2, 189589, Note_on_c, 0, 65, 45
2, 189600, Note_on_c, 0, 60, 42
2, 189616, Note_on_c, 0, 62, 41
2, 189961, Control_c, 0, 64, 127
2, 190257, Note_on_c, 0, 65, 0
2, 190659, Note_on_c, 0, 53, 46
2, 191798, Note_on_c, 0, 60, 0
2, 191860, Note_on_c, 0, 62, 0
2, 192870, Note_on_c, 0, 53, 0
2, 193061, Note_on_c, 0, 67, 61
2, 193099, Note_on_c, 0, 58, 34
2, 193103, Control_c, 0, 64, 0
2, 193113, Note_on_c, 0, 60, 49
2, 193429, Note_on_c, 0, 67, 0
2, 193522, Control_c, 0, 64, 127
2, 194132, Note_on_c, 0, 77, 0
2, 194152, Note_on_c, 0, 51, 54
2, 194812, Note_on_c, 0, 70, 59
2, 195070, Note_on_c, 0, 70, 0
2, 195310, Note_on_c, 0, 74, 89
2, 195406, Note_on_c, 0, 60, 0
2, 195490, Note_on_c, 0, 58, 0
2, 195539, Note_on_c, 0, 74, 0
2, 195696, Note_on_c, 0, 51, 0
2, 195797, Note_on_c, 0, 77, 93
2, 196208, Note_on_c, 0, 77, 0
2, 196338, Note_on_c, 0, 79, 69
2, 196341, Note_on_c, 0, 50, 45
2, 196354, Note_on_c, 0, 57, 49
2, 196360, Note_on_c, 0, 72, 53
2, 196368, Note_on_c, 0, 60, 35
2, 196384, Note_on_c, 0, 65, 54
2, 196394, Control_c, 0, 64, 0
2, 196872, Control_c, 0, 64, 127
2, 197403, Note_on_c, 0, 60, 0
2, 197536, Note_on_c, 0, 57, 0
2, 197576, Note_on_c, 0, 65, 0
2, 197627, Note_on_c, 0, 72, 0
2, 197981, Note_on_c, 0, 79, 0
2, 198146, Note_on_c, 0, 72, 30
2, 198162, Note_on_c, 0, 57, 31
2, 198170, Note_on_c, 0, 65, 31
2, 198175, Note_on_c, 0, 60, 25
2, 198301, Note_on_c, 0, 65, 0
2, 198579, Note_on_c, 0, 72, 0
2, 199054, Note_on_c, 0, 57, 0
2, 199060, Note_on_c, 0, 50, 0
2, 199166, Note_on_c, 0, 60, 0
2, 199535, Note_on_c, 0, 80, 75
2, 199775, Note_on_c, 0, 78, 65
2, 199829, Note_on_c, 0, 80, 0
2, 199971, Note_on_c, 0, 78, 0
2, 199999, Note_on_c, 0, 79, 69
2, 200002, Control_c, 0, 64, 0
2, 200010, Note_on_c, 0, 59, 35
2, 200019, Note_on_c, 0, 64, 38
2, 200027, Note_on_c, 0, 53, 42
2, 200435, Control_c, 0, 64, 127
2, 200626, Note_on_c, 0, 64, 0
2, 200667, Note_on_c, 0, 59, 0
2, 200778, Note_on_c, 0, 53, 0
2, 201735, Note_on_c, 0, 43, 41
2, 201967, Note_on_c, 0, 43, 0
2, 202958, Note_on_c, 0, 79, 0
2, 203536, Note_on_c, 0, 77, 70
2, 203622, Note_on_c, 0, 48, 37
2, 203625, Control_c, 0, 64, 0
2, 203635, Note_on_c, 0, 58, 33
2, 203750, Note_on_c, 0, 74, 50
2, 203752, Note_on_c, 0, 77, 0
2, 203953, Note_on_c, 0, 74, 0
2, 203984, Note_on_c, 0, 75, 86
2, 204217, Control_c, 0, 64, 127
2, 204492, Note_on_c, 0, 48, 0
2, 204654, Note_on_c, 0, 58, 0
2, 205385, Note_on_c, 0, 67, 46
2, 205410, Note_on_c, 0, 62, 54
2, 205417, Note_on_c, 0, 63, 35
2, 205832, Note_on_c, 0, 67, 0
2, 205878, Note_on_c, 0, 62, 0
2, 205911, Note_on_c, 0, 63, 0
2, 207086, Control_c, 0, 64, 0
2, 207089, Note_on_c, 0, 46, 41
2, 207099, Note_on_c, 0, 55, 45
2, 207474, Control_c, 0, 64, 127
2, 207831, Note_on_c, 0, 46, 0
2, 207852, Note_on_c, 0, 55, 0
2, 208253, Note_on_c, 0, 75, 0
2, 208884, Note_on_c, 0, 63, 25
2, 208924, Note_on_c, 0, 58, 39
2, 208927, Note_on_c, 0, 60, 39
2, 209447, Note_on_c, 0, 63, 0
2, 209485, Note_on_c, 0, 60, 0
2, 209607, Note_on_c, 0, 58, 0
2, 209767, Note_on_c, 0, 72, 81
2, 209965, Note_on_c, 0, 72, 0
2, 210015, Note_on_c, 0, 70, 69
2, 210202, Note_on_c, 0, 70, 0
2, 210284, Note_on_c, 0, 72, 74
2, 210521, Control_c, 0, 64, 0
2, 210546, Note_on_c, 0, 40, 53
2, 210889, Control_c, 0, 64, 127
2, 211113, Note_on_c, 0, 40, 0
2, 211149, Note_on_c, 0, 69, 66
2, 211213, Note_on_c, 0, 72, 0
2, 211377, Note_on_c, 0, 69, 0
2, 211380, Note_on_c, 0, 68, 51
2, 211504, Note_on_c, 0, 68, 0
2, 211611, Note_on_c, 0, 69, 86
2, 212153, Note_on_c, 0, 62, 54
2, 212160, Note_on_c, 0, 57, 37
2, 212168, Note_on_c, 0, 52, 47
2, 212173, Control_c, 0, 64, 0
2, 212174, Note_on_c, 0, 58, 42
2, 212574, Control_c, 0, 64, 127
2, 213062, Note_on_c, 0, 52, 0
2, 213081, Note_on_c, 0, 57, 0
2, 213142, Note_on_c, 0, 58, 0
2, 213190, Note_on_c, 0, 62, 0
2, 213806, Control_c, 0, 64, 0
2, 213830, Note_on_c, 0, 65, 53
2, 213842, Note_on_c, 0, 61, 41
2, 213869, Note_on_c, 0, 60, 41
2, 213886, Note_on_c, 0, 55, 41
2, 214176, Control_c, 0, 64, 127
2, 214652, Note_on_c, 0, 65, 0
2, 214654, Note_on_c, 0, 69, 0
2, 214705, Note_on_c, 0, 60, 0
2, 214713, Note_on_c, 0, 61, 0
2, 214791, Note_on_c, 0, 55, 0
2, 214967, Note_on_c, 0, 65, 95
2, 215214, Note_on_c, 0, 65, 0
2, 215245, Note_on_c, 0, 64, 69
2, 215416, Note_on_c, 0, 64, 0
2, 215511, Note_on_c, 0, 65, 82
2, 215541, Note_on_c, 0, 55, 61
2, 215561, Control_c, 0, 64, 0
2, 215567, Note_on_c, 0, 45, 45
2, 215968, Note_on_c, 0, 67, 30
2, 216021, Control_c, 0, 64, 127
2, 216112, Note_on_c, 0, 67, 0
2, 216457, Note_on_c, 0, 45, 0
2, 216510, Note_on_c, 0, 65, 0
2, 216596, Note_on_c, 0, 64, 73
2, 216617, Note_on_c, 0, 55, 0
2, 216792, Note_on_c, 0, 64, 0
2, 216845, Note_on_c, 0, 63, 53
2, 217089, Note_on_c, 0, 63, 0
2, 217188, Note_on_c, 0, 65, 73
2, 217204, Note_on_c, 0, 50, 45
2, 217207, Control_c, 0, 64, 0
2, 217218, Note_on_c, 0, 57, 47
2, 217633, Note_on_c, 0, 63, 42
2, 217815, Note_on_c, 0, 65, 0
2, 217884, Note_on_c, 0, 63, 0
2, 217948, Note_on_c, 0, 64, 62
2, 218474, Control_c, 0, 64, 127
2, 218690, Note_on_c, 0, 57, 0
2, 218859, Note_on_c, 0, 62, 61
2, 218898, Note_on_c, 0, 64, 0
2, 218907, Note_on_c, 0, 57, 33
2, 218923, Control_c, 0, 64, 0
2, 219101, Control_c, 0, 64, 127
2, 219232, Note_on_c, 0, 57, 0
2, 219694, Note_on_c, 0, 57, 62
2, 219986, Note_on_c, 0, 57, 0
2, 220121, Note_on_c, 0, 62, 0
2, 220496, Control_c, 0, 64, 0
2, 220520, Note_on_c, 0, 64, 55
2, 220520, Note_on_c, 0, 69, 65
2, 220523, Note_on_c, 0, 60, 47
2, 220526, Note_on_c, 0, 65, 66
2, 220783, Control_c, 0, 64, 127
2, 220843, Note_on_c, 0, 64, 0
2, 220855, Note_on_c, 0, 65, 0
2, 220919, Note_on_c, 0, 69, 0
2, 221388, Note_on_c, 0, 72, 86
2, 221485, Note_on_c, 0, 50, 0
2, 221621, Note_on_c, 0, 60, 0
2, 221671, Note_on_c, 0, 72, 0
2, 222184, Note_on_c, 0, 77, 85
2, 222187, Note_on_c, 0, 54, 53
2, 222216, Note_on_c, 0, 65, 59
2, 222216, Note_on_c, 0, 60, 47
2, 222248, Control_c, 0, 64, 0
2, 222579, Control_c, 0, 64, 127
2, 222638, Note_on_c, 0, 78, 66
2, 222672, Note_on_c, 0, 77, 0
2, 222781, Note_on_c, 0, 78, 0
2, 223045, Note_on_c, 0, 84, 65
2, 223059, Note_on_c, 0, 65, 0
2, 223117, Note_on_c, 0, 60, 0
2, 223296, Note_on_c, 0, 54, 0
2, 223317, Note_on_c, 0, 84, 0
2, 223509, Note_on_c, 0, 93, 69
2, 223661, Note_on_c, 0, 93, 0
2, 223928, Control_c, 0, 64, 0
2, 223952, Note_on_c, 0, 55, 49
2, 223962, Note_on_c, 0, 58, 57
2, 223965, Note_on_c, 0, 94, 67
2, 223976, Note_on_c, 0, 62, 54
2, 224553, Control_c, 0, 64, 127
2, 224677, Note_on_c, 0, 94, 0
2, 224893, Note_on_c, 0, 94, 81
2, 225152, Note_on_c, 0, 62, 0
2, 225286, Note_on_c, 0, 58, 0
2, 225512, Note_on_c, 0, 94, 0
2, 225659, Note_on_c, 0, 58, 51
2, 225663, Note_on_c, 0, 62, 55
2, 225674, Note_on_c, 0, 96, 87
2, 225707, Control_c, 0, 64, 0
2, 226205, Control_c, 0, 64, 127
2, 226236, Note_on_c, 0, 96, 0
2, 226282, Note_on_c, 0, 93, 86
2, 226705, Note_on_c, 0, 93, 0
2, 226742, Note_on_c, 0, 55, 0
2, 226792, Note_on_c, 0, 62, 0
2, 226836, Note_on_c, 0, 94, 87
2, 226980, Note_on_c, 0, 58, 0
2, 227340, Note_on_c, 0, 63, 39
2, 227348, Note_on_c, 0, 53, 41
2, 227354, Note_on_c, 0, 59, 53
2, 227369, Note_on_c, 0, 92, 78
2, 227381, Note_on_c, 0, 56, 38
2, 227389, Note_on_c, 0, 94, 0
2, 227436, Control_c, 0, 64, 0
2, 227901, Control_c, 0, 64, 127
2, 227945, Note_on_c, 0, 87, 55
2, 227990, Note_on_c, 0, 63, 0
2, 228052, Note_on_c, 0, 59, 0
2, 228190, Note_on_c, 0, 53, 0
2, 228203, Note_on_c, 0, 56, 0
2, 228481, Note_on_c, 0, 83, 45
2, 228757, Note_on_c, 0, 87, 0
2, 228804, Note_on_c, 0, 92, 0
2, 229053, Note_on_c, 0, 59, 41
2, 229068, Note_on_c, 0, 49, 31
2, 229100, Note_on_c, 0, 83, 0
2, 229881, Note_on_c, 0, 59, 0
2, 230223, Note_on_c, 0, 49, 0
2, 230725, Note_on_c, 0, 70, 45
2, 230764, Note_on_c, 0, 67, 46
2, 230764, Note_on_c, 0, 63, 39
2, 230777, Control_c, 0, 64, 0
2, 230797, Note_on_c, 0, 62, 41
2, 230802, Note_on_c, 0, 58, 29
2, 230807, Note_on_c, 0, 48, 37
2, 231213, Control_c, 0, 64, 127
2, 231313, Note_on_c, 0, 67, 0
2, 231322, Note_on_c, 0, 58, 0
2, 231364, Note_on_c, 0, 70, 0
2, 231426, Note_on_c, 0, 63, 0
2, 231445, Note_on_c, 0, 62, 0
2, 231674, Note_on_c, 0, 67, 73
2, 232116, Note_on_c, 0, 67, 0
2, 232483, Note_on_c, 0, 67, 62
2, 232497, Note_on_c, 0, 63, 46
2, 232534, Note_on_c, 0, 58, 31
2, 232534, Note_on_c, 0, 55, 33
2, 232781, Note_on_c, 0, 55, 0
2, 232846, Note_on_c, 0, 63, 0
2, 232857, Note_on_c, 0, 48, 0
2, 232864, Note_on_c, 0, 58, 0
2, 233005, Note_on_c, 0, 67, 0
2, 233333, Note_on_c, 0, 63, 55
2, 233820, Note_on_c, 0, 63, 0
2, 234180, Note_on_c, 0, 63, 54
2, 234208, Note_on_c, 0, 58, 55
2, 234212, Control_c, 0, 64, 0
2, 234263, Note_on_c, 0, 46, 37
2, 234268, Note_on_c, 0, 55, 37
2, 234515, Control_c, 0, 64, 127
2, 234603, Note_on_c, 0, 55, 0
2, 234887, Note_on_c, 0, 58, 0
2, 235091, Note_on_c, 0, 55, 57
2, 235511, Note_on_c, 0, 55, 0
2, 235831, Note_on_c, 0, 46, 0
2, 235852, Note_on_c, 0, 58, 61
2, 235884, Note_on_c, 0, 55, 57
2, 235947, Note_on_c, 0, 55, 0
2, 236012, Note_on_c, 0, 58, 0
2, 236028, Note_on_c, 0, 63, 0
2, 236654, Note_on_c, 0, 74, 98
2, 236682, Note_on_c, 0, 46, 43
2, 236968, Note_on_c, 0, 46, 0
2, 237104, Note_on_c, 0, 74, 0
2, 237482, Note_on_c, 0, 74, 77
2, 237504, Note_on_c, 0, 67, 78
2, 237514, Note_on_c, 0, 63, 61
2, 237514, Control_c, 0, 64, 0
2, 237552, Note_on_c, 0, 45, 61
2, 238040, Control_c, 0, 64, 127
2, 238051, Note_on_c, 0, 51, 69
2, 238152, Note_on_c, 0, 74, 0
2, 238226, Note_on_c, 0, 67, 0
2, 238314, Note_on_c, 0, 63, 0
2, 238399, Note_on_c, 0, 45, 0
2, 238540, Note_on_c, 0, 57, 70
2, 238964, Note_on_c, 0, 59, 85
2, 239305, Note_on_c, 0, 59, 0
2, 239401, Note_on_c, 0, 60, 93
2, 239731, Note_on_c, 0, 60, 0
2, 239837, Note_on_c, 0, 63, 81
2, 240024, Note_on_c, 0, 51, 0
2, 240030, Note_on_c, 0, 63, 0
2, 240182, Note_on_c, 0, 57, 0
2, 240246, Note_on_c, 0, 65, 89
2, 240541, Note_on_c, 0, 65, 0
2, 240642, Note_on_c, 0, 70, 81
2, 240970, Note_on_c, 0, 70, 0
2, 241066, Note_on_c, 0, 54, 42
2, 241071, Note_on_c, 0, 72, 62
2, 241074, Note_on_c, 0, 60, 53
2, 241079, Note_on_c, 0, 50, 45
2, 241137, Control_c, 0, 64, 0
2, 241464, Note_on_c, 0, 77, 66
2, 241531, Note_on_c, 0, 72, 0
2, 241569, Control_c, 0, 64, 127
2, 241804, Note_on_c, 0, 50, 0
2, 241820, Note_on_c, 0, 77, 0
2, 241857, Note_on_c, 0, 82, 59
2, 241870, Note_on_c, 0, 54, 0
2, 241965, Note_on_c, 0, 60, 0
2, 242005, Note_on_c, 0, 82, 0
2, 242275, Note_on_c, 0, 84, 70
2, 242560, Note_on_c, 0, 84, 0
2, 242695, Note_on_c, 0, 54, 33
2, 242696, Note_on_c, 0, 89, 59
2, 242728, Note_on_c, 0, 65, 33
2, 242740, Note_on_c, 0, 60, 42
2, 243146, Note_on_c, 0, 94, 57
2, 243246, Note_on_c, 0, 89, 0
2, 243296, Note_on_c, 0, 65, 0
2, 243353, Note_on_c, 0, 60, 0
2, 243476, Note_on_c, 0, 54, 0
2, 243503, Note_on_c, 0, 94, 0
2, 243575, Note_on_c, 0, 96, 57
2, 243951, Note_on_c, 0, 96, 0
2, 244031, Note_on_c, 0, 93, 53
2, 244371, Note_on_c, 0, 93, 0
2, 244475, Note_on_c, 0, 94, 58
2, 244493, Note_on_c, 0, 50, 34
2, 244495, Note_on_c, 0, 43, 30
2, 244504, Control_c, 0, 64, 0
2, 244856, Control_c, 0, 64, 127
2, 244936, Note_on_c, 0, 90, 42
2, 244987, Note_on_c, 0, 43, 0
2, 245061, Note_on_c, 0, 94, 0
2, 245077, Note_on_c, 0, 50, 0
2, 245309, Note_on_c, 0, 90, 0
2, 245390, Note_on_c, 0, 93, 61
2, 245812, Note_on_c, 0, 90, 37
2, 246032, Note_on_c, 0, 93, 0
2, 246134, Note_on_c, 0, 90, 0
2, 246269, Note_on_c, 0, 91, 49
2, 246280, Note_on_c, 0, 62, 42
2, 246290, Note_on_c, 0, 57, 33
2, 246314, Note_on_c, 0, 58, 41
2, 246379, Control_c, 0, 64, 0
2, 246660, Note_on_c, 0, 91, 0
2, 246689, Note_on_c, 0, 86, 57
2, 246757, Note_on_c, 0, 86, 0
2, 247134, Note_on_c, 0, 86, 61
2, 247203, Note_on_c, 0, 86, 0
2, 247454, Note_on_c, 0, 62, 0
2, 247503, Control_c, 0, 64, 127
2, 247580, Note_on_c, 0, 86, 63
2, 247660, Note_on_c, 0, 86, 0
2, 247676, Note_on_c, 0, 57, 0
2, 247999, Control_c, 0, 64, 0
2, 248009, Note_on_c, 0, 86, 73
2, 248015, Note_on_c, 0, 62, 45
2, 248047, Note_on_c, 0, 55, 41
2, 248083, Note_on_c, 0, 86, 0
2, 248485, Note_on_c, 0, 86, 73
2, 248539, Note_on_c, 0, 86, 0
2, 248944, Note_on_c, 0, 86, 101
2, 248957, Note_on_c, 0, 62, 0
2, 249007, Note_on_c, 0, 58, 0
2, 249039, Note_on_c, 0, 86, 0
2, 249382, Note_on_c, 0, 86, 106
2, 249521, Note_on_c, 0, 86, 0
2, 249849, Note_on_c, 0, 86, 103
2, 249863, Note_on_c, 0, 62, 53
2, 249879, Note_on_c, 0, 58, 39
2, 250104, Note_on_c, 0, 86, 0
2, 250283, Control_c, 0, 64, 127
2, 250286, Note_on_c, 0, 86, 65
2, 250436, Note_on_c, 0, 86, 0
2, 250732, Note_on_c, 0, 86, 73
2, 250740, Note_on_c, 0, 53, 33
2, 250861, Note_on_c, 0, 86, 0
2, 250989, Note_on_c, 0, 62, 0
2, 250992, Note_on_c, 0, 55, 0
2, 251042, Note_on_c, 0, 53, 0
2, 251098, Note_on_c, 0, 58, 0
2, 251154, Note_on_c, 0, 86, 69
2, 251545, Note_on_c, 0, 86, 0
2, 251598, Note_on_c, 0, 85, 73
2, 251617, Note_on_c, 0, 61, 38
2, 251629, Control_c, 0, 64, 0
2, 251640, Note_on_c, 0, 51, 37
2, 251671, Note_on_c, 0, 58, 27
2, 251950, Note_on_c, 0, 58, 0
2, 252073, Control_c, 0, 64, 127
2, 252184, Note_on_c, 0, 58, 39
2, 252193, Note_on_c, 0, 61, 0
2, 252493, Note_on_c, 0, 85, 0
2, 252719, Note_on_c, 0, 73, 37
2, 253380, Note_on_c, 0, 58, 0
2, 253442, Note_on_c, 0, 73, 0
2, 253679, Note_on_c, 0, 61, 33
2, 253682, Note_on_c, 0, 73, 41
2, 253739, Note_on_c, 0, 58, 34
2, 253937, Note_on_c, 0, 51, 0
2, 253965, Note_on_c, 0, 73, 0
2, 254061, Note_on_c, 0, 61, 0
2, 254614, Note_on_c, 0, 58, 0
2, 254622, Note_on_c, 0, 51, 33
2, 254815, Note_on_c, 0, 51, 0
2, 255626, Note_on_c, 0, 70, 50
2, 255636, Note_on_c, 0, 65, 57
2, 255647, Note_on_c, 0, 60, 37
2, 255649, Note_on_c, 0, 54, 34
2, 255661, Note_on_c, 0, 44, 37
2, 255698, Control_c, 0, 64, 0
2, 256228, Control_c, 0, 64, 127
2, 256531, Note_on_c, 0, 65, 0
2, 256574, Note_on_c, 0, 60, 0
2, 256622, Note_on_c, 0, 70, 0
2, 256748, Note_on_c, 0, 54, 0
2, 256950, Note_on_c, 0, 44, 0
2, 257517, Note_on_c, 0, 66, 38
2, 257522, Note_on_c, 0, 54, 38
2, 257525, Note_on_c, 0, 62, 62
2, 257531, Note_on_c, 0, 57, 41
2, 257565, Note_on_c, 0, 44, 29
2, 257606, Control_c, 0, 64, 0
2, 258090, Control_c, 0, 64, 127
2, 258594, Note_on_c, 0, 44, 0
2, 258658, Note_on_c, 0, 54, 0
2, 258717, Note_on_c, 0, 62, 0
2, 258810, Note_on_c, 0, 66, 0
2, 258844, Note_on_c, 0, 57, 0
2, 259349, Note_on_c, 0, 62, 49
2, 259367, Note_on_c, 0, 57, 38
2, 259394, Note_on_c, 0, 46, 37
2, 259399, Note_on_c, 0, 60, 41
2, 259415, Note_on_c, 0, 53, 34
2, 259432, Control_c, 0, 64, 0
2, 259837, Control_c, 0, 64, 127
2, 259919, Note_on_c, 0, 57, 0
2, 259984, Note_on_c, 0, 60, 0
2, 260000, Note_on_c, 0, 62, 0
2, 260216, Note_on_c, 0, 46, 0
2, 260253, Note_on_c, 0, 53, 0
2, 261225, Note_on_c, 0, 86, 79
2, 261268, Note_on_c, 0, 65, 55
2, 261273, Note_on_c, 0, 62, 53
2, 261293, Note_on_c, 0, 74, 75
2, 261297, Note_on_c, 0, 60, 42
2, 261908, Note_on_c, 0, 86, 0
2, 261973, Note_on_c, 0, 74, 0
2, 262040, Note_on_c, 0, 86, 73
2, 262114, Note_on_c, 0, 65, 0
2, 262122, Note_on_c, 0, 74, 33
2, 262180, Note_on_c, 0, 74, 0
2, 262198, Note_on_c, 0, 62, 0
2, 262338, Note_on_c, 0, 86, 0
2, 262346, Note_on_c, 0, 60, 0
2, 262520, Note_on_c, 0, 86, 70
2, 262778, Note_on_c, 0, 86, 0
2, 263092, Note_on_c, 0, 86, 62
2, 263153, Note_on_c, 0, 79, 49
2, 263157, Control_c, 0, 64, 0
2, 263164, Note_on_c, 0, 74, 49
2, 263180, Note_on_c, 0, 51, 35
2, 263185, Note_on_c, 0, 58, 39
2, 263590, Control_c, 0, 64, 127
2, 263948, Note_on_c, 0, 58, 0
2, 264121, Note_on_c, 0, 59, 35
2, 264151, Control_c, 0, 64, 0
2, 264267, Control_c, 0, 64, 127
2, 264850, Note_on_c, 0, 86, 0
2, 264903, Note_on_c, 0, 74, 0
2, 264962, Note_on_c, 0, 79, 0
2, 265077, Control_c, 0, 64, 0
2, 265098, Note_on_c, 0, 60, 41
2, 265106, Note_on_c, 0, 59, 0
2, 265119, Note_on_c, 0, 79, 42
2, 265127, Note_on_c, 0, 84, 65
2, 265351, Control_c, 0, 64, 127
2, 265891, Note_on_c, 0, 84, 0
2, 266009, Note_on_c, 0, 82, 49
2, 266844, Note_on_c, 0, 60, 0
2, 266938, Note_on_c, 0, 51, 0
2, 266984, Note_on_c, 0, 79, 0
2, 267125, Note_on_c, 0, 82, 0
2, 267612, Note_on_c, 0, 86, 70
2, 267636, Note_on_c, 0, 32, 50
2, 267644, Control_c, 0, 64, 0
2, 267647, Note_on_c, 0, 77, 57
2, 267884, Control_c, 0, 64, 127
2, 267931, Note_on_c, 0, 86, 0
2, 268006, Note_on_c, 0, 77, 0
2, 268414, Note_on_c, 0, 44, 43
2, 268425, Note_on_c, 0, 32, 0
2, 268502, Note_on_c, 0, 44, 0
2, 268997, Note_on_c, 0, 54, 66
2, 269546, Note_on_c, 0, 60, 54
2, 270109, Note_on_c, 0, 65, 53
2, 270130, Note_on_c, 0, 70, 58
2, 270414, Note_on_c, 0, 60, 0
2, 270593, Note_on_c, 0, 65, 0
2, 270710, Note_on_c, 0, 74, 66
2, 270720, Note_on_c, 0, 70, 0
2, 270745, Note_on_c, 0, 60, 38
2, 270861, Note_on_c, 0, 74, 0
2, 271380, Note_on_c, 0, 77, 51
2, 271388, Note_on_c, 0, 82, 42
2, 271391, Note_on_c, 0, 65, 41
2, 271651, Note_on_c, 0, 54, 0
2, 272036, Note_on_c, 0, 54, 39
2, 272066, Note_on_c, 0, 86, 65
2, 272324, Note_on_c, 0, 60, 0
2, 272396, Note_on_c, 0, 54, 0
2, 272597, Note_on_c, 0, 65, 0
2, 272656, Note_on_c, 0, 77, 0
2, 272669, Note_on_c, 0, 82, 0
2, 272731, Note_on_c, 0, 86, 0
2, 272904, Note_on_c, 0, 80, 49
2, 272920, Note_on_c, 0, 77, 45
2, 272936, Note_on_c, 0, 55, 49
2, 272967, Note_on_c, 0, 65, 37
2, 272982, Control_c, 0, 64, 0
2, 273373, Control_c, 0, 64, 127
2, 273590, Note_on_c, 0, 80, 0
2, 273620, Note_on_c, 0, 77, 0
2, 273644, Note_on_c, 0, 65, 0
2, 273668, Note_on_c, 0, 63, 38
2, 273850, Note_on_c, 0, 63, 0
2, 274182, Note_on_c, 0, 55, 0
2, 274391, Note_on_c, 0, 63, 43
2, 274462, Note_on_c, 0, 59, 25
2, 275080, Note_on_c, 0, 65, 49
2, 275384, Note_on_c, 0, 59, 0
2, 275459, Note_on_c, 0, 63, 0
2, 276067, Note_on_c, 0, 56, 22
2, 276078, Note_on_c, 0, 43, 41
2, 276080, Note_on_c, 0, 62, 57
2, 276099, Note_on_c, 0, 59, 41
2, 276131, Note_on_c, 0, 53, 30
2, 276193, Control_c, 0, 64, 0
2, 276316, Note_on_c, 0, 53, 0
2, 276980, Note_on_c, 0, 65, 0
2, 276996, Control_c, 0, 64, 127
2, 277129, Note_on_c, 0, 50, 37
2, 277486, Note_on_c, 0, 50, 0
2, 277769, Note_on_c, 0, 59, 0
2, 277793, Note_on_c, 0, 56, 0
2, 278073, Note_on_c, 0, 62, 0
2, 278175, Note_on_c, 0, 59, 49
2, 278185, Note_on_c, 0, 56, 29
2, 278231, Note_on_c, 0, 53, 29
2, 278602, Note_on_c, 0, 56, 0
2, 278683, Note_on_c, 0, 59, 0
2, 280205, Note_on_c, 0, 67, 93
2, 280720, Note_on_c, 0, 43, 0
2, 281224, Note_on_c, 0, 53, 0
2, 281452, Note_on_c, 0, 68, 38
2, 281549, Note_on_c, 0, 67, 0
2, 281607, Note_on_c, 0, 69, 65
2, 281661, Note_on_c, 0, 68, 0
2, 281832, Note_on_c, 0, 69, 0
2, 281912, Note_on_c, 0, 70, 87
2, 281949, Note_on_c, 0, 48, 67
2, 281983, Control_c, 0, 64, 0
2, 282721, Control_c, 0, 64, 127
2, 283230, Note_on_c, 0, 48, 0
2, 283528, Note_on_c, 0, 70, 0
2, 284861, Note_on_c, 0, 63, 61
2, 284879, Note_on_c, 0, 51, 50
2, 284882, Note_on_c, 0, 24, 45
2, 284885, Note_on_c, 0, 58, 61
2, 284909, Note_on_c, 0, 36, 35
2, 284917, Control_c, 0, 64, 0
2, 285208, Control_c, 0, 64, 127
2, 285371, Note_on_c, 0, 24, 0
2, 285454, Note_on_c, 0, 51, 0
2, 285476, Note_on_c, 0, 63, 0
2, 285481, Note_on_c, 0, 36, 0
2, 285488, Note_on_c, 0, 58, 0
2, 286089, Note_on_c, 0, 65, 55
2, 286105, Note_on_c, 0, 53, 37
2, 286107, Note_on_c, 0, 60, 54
2, 286136, Note_on_c, 0, 38, 41
2, 286139, Control_c, 0, 64, 0
2, 286163, Note_on_c, 0, 26, 38
2, 286779, Control_c, 0, 64, 127
2, 287304, Note_on_c, 0, 53, 0
2, 287396, Note_on_c, 0, 26, 0
2, 287510, Note_on_c, 0, 38, 0
2, 287544, Note_on_c, 0, 60, 0
2, 287643, Note_on_c, 0, 65, 0
2, 288658, Note_on_c, 0, 75, 75
2, 288702, Note_on_c, 0, 51, 57
2, 289277, Note_on_c, 0, 75, 0
2, 289448, Note_on_c, 0, 55, 55
2, 289465, Note_on_c, 0, 79, 70
2, 290282, Note_on_c, 0, 55, 0
2, 290442, Note_on_c, 0, 82, 57
2, 290444, Note_on_c, 0, 58, 53
2, 290509, Control_c, 0, 64, 0
2, 291509, Control_c, 0, 64, 127
2, 292578, Note_on_c, 0, 58, 0
2, 292650, Note_on_c, 0, 51, 0
2, 292835, Note_on_c, 0, 84, 62
2, 292924, Note_on_c, 0, 51, 37
2, 292948, Control_c, 0, 64, 0
2, 293092, Note_on_c, 0, 79, 0
2, 293292, Note_on_c, 0, 82, 0
2, 293333, Control_c, 0, 64, 127
2, 293531, Note_on_c, 0, 84, 0
2, 293662, Note_on_c, 0, 58, 35
2, 294442, Note_on_c, 0, 67, 49
2, 294495, Note_on_c, 0, 62, 30
2, 294822, Note_on_c, 0, 62, 0
2, 295006, Note_on_c, 0, 51, 0
2, 295105, Note_on_c, 0, 67, 0
2, 295303, Note_on_c, 0, 58, 0
2, 295409, Note_on_c, 0, 70, 78
2, 295414, Note_on_c, 0, 52, 51
2, 295433, Note_on_c, 0, 61, 34
2, 295487, Note_on_c, 0, 58, 42
2, 295500, Control_c, 0, 64, 0
2, 295937, Control_c, 0, 64, 127
2, 296833, Note_on_c, 0, 74, 85
2, 296881, Note_on_c, 0, 70, 0
2, 297119, Note_on_c, 0, 52, 0
2, 297212, Note_on_c, 0, 58, 0
2, 297276, Note_on_c, 0, 61, 0
2, 298819, Note_on_c, 0, 74, 0
2, 299811, Note_on_c, 0, 70, 53
2, 299867, Note_on_c, 0, 67, 57
2, 299900, Note_on_c, 0, 63, 53
2, 299924, Control_c, 0, 64, 0
2, 299927, Note_on_c, 0, 58, 50
2, 299935, Note_on_c, 0, 41, 41
2, 299979, Note_on_c, 0, 53, 22
2, 300585, Control_c, 0, 64, 127
2, 300724, Note_on_c, 0, 53, 0
2, 300859, Note_on_c, 0, 41, 0
2, 302333, Note_on_c, 0, 29, 53
2, 302504, Note_on_c, 0, 29, 0
2, 303509, Note_on_c, 0, 58, 0
2, 303645, Note_on_c, 0, 67, 0
2, 303714, Note_on_c, 0, 63, 0
2, 303837, Note_on_c, 0, 70, 0
2, 304931, Note_on_c, 0, 41, 69
2, 305495, Note_on_c, 0, 51, 62
2, 305844, Note_on_c, 0, 41, 0
2, 306069, Note_on_c, 0, 57, 53
2, 306565, Note_on_c, 0, 62, 62
2, 307108, Note_on_c, 0, 66, 54
2, 307705, Note_on_c, 0, 72, 51
2, 308507, Note_on_c, 0, 72, 0
2, 308673, Note_on_c, 0, 72, 38
2, 309403, Note_on_c, 0, 72, 0
2, 310443, Note_on_c, 0, 72, 38
2, 311288, Note_on_c, 0, 57, 0
2, 311664, Note_on_c, 0, 51, 0
2, 314007, Note_on_c, 0, 72, 0
2, 314107, Note_on_c, 0, 66, 0
2, 314166, Note_on_c, 0, 62, 0
2, 314994, Note_on_c, 0, 65, 52
2, 315025, Note_on_c, 0, 62, 55
2, 315036, Note_on_c, 0, 60, 49
2, 317673, Note_on_c, 0, 53, 54
2, 318246, Control_c, 0, 64, 127
2, 319219, Note_on_c, 0, 86, 127
2, 319306, Control_c, 0, 64, 0
2, 319719, Note_on_c, 0, 87, 79
2, 319872, Note_on_c, 0, 86, 0
2, 319883, Note_on_c, 0, 88, 96
2, 319926, Note_on_c, 0, 87, 0
2, 320062, Note_on_c, 0, 88, 0
2, 320106, Note_on_c, 0, 89, 127
2, 320569, Note_on_c, 0, 89, 0
2, 320691, Control_c, 0, 64, 127
2, 320708, Note_on_c, 0, 86, 114
2, 321438, Note_on_c, 0, 77, 74
2, 321448, Note_on_c, 0, 86, 0
2, 321953, Note_on_c, 0, 77, 0
2, 322032, Note_on_c, 0, 60, 0
2, 322051, Note_on_c, 0, 62, 0
2, 322113, Note_on_c, 0, 65, 0
2, 322191, Note_on_c, 0, 77, 63
2, 322549, Note_on_c, 0, 77, 0
2, 322745, Note_on_c, 0, 63, 46
2, 322752, Control_c, 0, 64, 0
2, 322756, Note_on_c, 0, 65, 40
2, 322758, Note_on_c, 0, 58, 44
2, 322758, Note_on_c, 0, 77, 59
2, 323101, Control_c, 0, 64, 127
2, 324075, Note_on_c, 0, 82, 81
2, 324149, Note_on_c, 0, 77, 0
2, 324553, Note_on_c, 0, 82, 0
2, 324597, Note_on_c, 0, 87, 87
2, 325026, Note_on_c, 0, 83, 61
2, 325074, Note_on_c, 0, 87, 0
2, 325381, Control_c, 0, 64, 0
2, 325469, Note_on_c, 0, 84, 75
2, 325497, Note_on_c, 0, 83, 0
2, 325576, Control_c, 0, 64, 127
2, 325889, Note_on_c, 0, 84, 0
2, 325898, Note_on_c, 0, 87, 96
2, 326308, Note_on_c, 0, 87, 0
2, 326373, Note_on_c, 0, 91, 97
2, 326581, Note_on_c, 0, 91, 0
2, 326851, Note_on_c, 0, 94, 86
2, 327136, Note_on_c, 0, 94, 0
2, 327331, Note_on_c, 0, 101, 127
2, 327821, Note_on_c, 0, 101, 0
2, 327907, Note_on_c, 0, 65, 0
2, 328049, Note_on_c, 0, 101, 127
2, 328077, Note_on_c, 0, 65, 50
2, 328660, Note_on_c, 0, 101, 0
2, 328750, Note_on_c, 0, 99, 107
2, 329188, Note_on_c, 0, 58, 0
2, 329227, Note_on_c, 0, 99, 0
2, 329370, Note_on_c, 0, 98, 93
2, 329482, Note_on_c, 0, 63, 0
2, 329563, Note_on_c, 0, 65, 0
2, 329769, Note_on_c, 0, 98, 0
2, 329843, Note_on_c, 0, 99, 82
2, 330224, Control_c, 0, 64, 0
2, 330244, Note_on_c, 0, 99, 0
2, 330250, Note_on_c, 0, 60, 41
2, 330292, Note_on_c, 0, 65, 45
2, 330297, Note_on_c, 0, 62, 47
2, 330349, Note_on_c, 0, 98, 78
2, 330570, Control_c, 0, 64, 127
2, 331081, Note_on_c, 0, 89, 53
2, 331348, Note_on_c, 0, 62, 0
2, 331357, Note_on_c, 0, 65, 0
2, 331392, Note_on_c, 0, 60, 0
2, 331429, Note_on_c, 0, 89, 0
2, 331738, Note_on_c, 0, 89, 56
2, 331764, Note_on_c, 0, 60, 38
2, 331766, Note_on_c, 0, 65, 41
2, 331771, Note_on_c, 0, 62, 45
2, 331784, Note_on_c, 0, 98, 0
2, 333050, Note_on_c, 0, 89, 0
2, 335621, Note_on_c, 0, 77, 121
2, 335622, Note_on_c, 0, 84, 114
2, 335994, Note_on_c, 0, 84, 0
2, 336099, Note_on_c, 0, 81, 78
2, 336117, Note_on_c, 0, 74, 70
2, 336200, Note_on_c, 0, 77, 0
2, 336469, Note_on_c, 0, 74, 0
2, 336519, Note_on_c, 0, 81, 0
2, 336577, Note_on_c, 0, 84, 89
2, 336587, Note_on_c, 0, 77, 82
2, 336890, Note_on_c, 0, 84, 0
2, 336949, Note_on_c, 0, 77, 0
2, 336971, Note_on_c, 0, 65, 0
2, 337021, Note_on_c, 0, 60, 0
2, 337059, Note_on_c, 0, 81, 61
2, 337063, Note_on_c, 0, 77, 41
2, 337065, Note_on_c, 0, 62, 0
2, 337067, Note_on_c, 0, 74, 48
2, 337312, Note_on_c, 0, 77, 0
2, 337394, Note_on_c, 0, 81, 0
2, 337411, Note_on_c, 0, 74, 0
2, 337490, Note_on_c, 0, 84, 85
2, 337496, Note_on_c, 0, 77, 56
2, 337665, Note_on_c, 0, 77, 0
2, 337772, Note_on_c, 0, 84, 0
2, 337985, Note_on_c, 0, 63, 56
2, 338002, Note_on_c, 0, 75, 60
2, 338009, Note_on_c, 0, 65, 47
2, 338013, Control_c, 0, 64, 0
2, 338014, Note_on_c, 0, 79, 69
2, 338033, Note_on_c, 0, 58, 43
2, 338414, Control_c, 0, 64, 127
2, 338463, Note_on_c, 0, 84, 75
2, 338500, Note_on_c, 0, 75, 0
2, 338727, Note_on_c, 0, 79, 0
2, 338861, Note_on_c, 0, 84, 0
2, 338962, Note_on_c, 0, 79, 56
2, 338962, Note_on_c, 0, 75, 45
2, 339840, Note_on_c, 0, 79, 0
2, 339917, Note_on_c, 0, 58, 0
2, 339928, Note_on_c, 0, 63, 0
2, 339937, Note_on_c, 0, 65, 0
2, 339961, Note_on_c, 0, 75, 0
2, 340859, Note_on_c, 0, 70, 51
2, 340874, Note_on_c, 0, 75, 48
2, 340896, Note_on_c, 0, 58, 34
2, 340900, Note_on_c, 0, 65, 25
2, 340903, Note_on_c, 0, 63, 37
2, 341797, Note_on_c, 0, 58, 0
2, 341897, Note_on_c, 0, 63, 0
2, 342027, Note_on_c, 0, 65, 0
2, 342749, Note_on_c, 0, 70, 0
2, 343419, Note_on_c, 0, 75, 0
2, 343676, Note_on_c, 0, 58, 47
2, 343728, Note_on_c, 0, 63, 35
2, 343759, Note_on_c, 0, 65, 40
2, 344740, Note_on_c, 0, 58, 0
2, 344811, Note_on_c, 0, 63, 0
2, 344846, Note_on_c, 0, 65, 0
2, 345076, Note_on_c, 0, 91, 87
2, 345207, Note_on_c, 0, 79, 75
2, 345398, Note_on_c, 0, 91, 0
2, 345509, Note_on_c, 0, 79, 0
2, 345698, Note_on_c, 0, 89, 78
2, 345739, Note_on_c, 0, 65, 47
2, 345748, Control_c, 0, 64, 0
2, 345752, Note_on_c, 0, 77, 60
2, 345752, Note_on_c, 0, 60, 32
2, 345755, Note_on_c, 0, 62, 45
2, 346202, Control_c, 0, 64, 127
2, 346495, Note_on_c, 0, 65, 0
2, 346513, Note_on_c, 0, 53, 0
2, 346547, Note_on_c, 0, 60, 0
2, 346609, Note_on_c, 0, 62, 0
2, 347054, Note_on_c, 0, 77, 0
2, 347485, Note_on_c, 0, 89, 0
2, 347553, Note_on_c, 0, 65, 33
2, 347571, Note_on_c, 0, 62, 40
2, 347603, Note_on_c, 0, 60, 40
2, 347720, Note_on_c, 0, 53, 24
2, 347903, Note_on_c, 0, 53, 0
2, 348028, Note_on_c, 0, 62, 0
2, 348090, Note_on_c, 0, 65, 0
2, 348153, Note_on_c, 0, 60, 0
2, 349001, Control_c, 0, 64, 0
2, 349058, Note_on_c, 0, 55, 42
2, 349060, Note_on_c, 0, 60, 48
2, 349062, Note_on_c, 0, 61, 58
2, 349064, Note_on_c, 0, 65, 37
2, 349332, Note_on_c, 0, 60, 0
2, 349343, Note_on_c, 0, 65, 0
2, 349349, Note_on_c, 0, 61, 0
2, 349356, Note_on_c, 0, 55, 0
2, 349627, Note_on_c, 0, 65, 50
2, 349630, Note_on_c, 0, 55, 48
2, 349656, Note_on_c, 0, 61, 56
2, 349662, Note_on_c, 0, 60, 42
2, 350033, Note_on_c, 0, 65, 0
2, 350041, Note_on_c, 0, 61, 0
2, 350061, Note_on_c, 0, 60, 0
2, 350083, Note_on_c, 0, 55, 0
2, 350521, Note_on_c, 0, 65, 44
2, 350528, Note_on_c, 0, 55, 50
2, 350532, Note_on_c, 0, 60, 47
2, 350536, Note_on_c, 0, 61, 56
2, 351967, Note_on_c, 0, 70, 45
2, 352094, Note_on_c, 0, 70, 0
2, 352602, Note_on_c, 0, 75, 60
2, 352804, Note_on_c, 0, 75, 0
2, 352814, Note_on_c, 0, 60, 0
2, 352821, Note_on_c, 0, 65, 0
2, 352867, Note_on_c, 0, 61, 0
2, 352972, Note_on_c, 0, 55, 0
2, 353034, Note_on_c, 0, 77, 123
2, 353320, Note_on_c, 0, 54, 28
2, 353351, Note_on_c, 0, 77, 0
2, 353432, Note_on_c, 0, 50, 52
2, 353470, Note_on_c, 0, 54, 0
2, 353487, Note_on_c, 0, 60, 40
2, 353487, Note_on_c, 0, 53, 60
2, 353516, Note_on_c, 0, 57, 59
2, 353642, Note_on_c, 0, 79, 125
2, 354078, Note_on_c, 0, 79, 0
2, 354567, Note_on_c, 0, 81, 97
2, 354847, Note_on_c, 0, 81, 0
2, 355130, Note_on_c, 0, 79, 74
2, 355425, Note_on_c, 0, 79, 0
2, 355478, Note_on_c, 0, 81, 74
2, 355734, Note_on_c, 0, 81, 0
2, 355859, Note_on_c, 0, 79, 67
2, 356166, Control_c, 0, 64, 127
2, 356219, Note_on_c, 0, 57, 0
2, 356229, Note_on_c, 0, 53, 0
2, 356256, Note_on_c, 0, 79, 0
2, 356266, Note_on_c, 0, 50, 0
2, 356271, Note_on_c, 0, 81, 65
2, 356418, Note_on_c, 0, 60, 0
2, 356521, Note_on_c, 0, 81, 0
2, 356683, Note_on_c, 0, 79, 48
2, 357325, Note_on_c, 0, 69, 54
2, 357338, Control_c, 0, 64, 0
2, 357377, Note_on_c, 0, 59, 41
2, 357379, Note_on_c, 0, 64, 41
2, 357412, Note_on_c, 0, 53, 46
2, 357848, Control_c, 0, 64, 127
2, 358987, Note_on_c, 0, 64, 0
2, 359537, Note_on_c, 0, 59, 0
2, 359647, Note_on_c, 0, 53, 0
2, 360168, Note_on_c, 0, 79, 0
2, 360188, Note_on_c, 0, 69, 0
2, 360453, Note_on_c, 0, 74, 75
2, 360794, Note_on_c, 0, 74, 0
2, 360923, Note_on_c, 0, 62, 51
2, 360924, Note_on_c, 0, 63, 57
2, 360926, Note_on_c, 0, 77, 127
2, 360928, Note_on_c, 0, 60, 55
2, 360932, Control_c, 0, 64, 0
2, 360958, Note_on_c, 0, 67, 34
2, 361388, Note_on_c, 0, 74, 67
2, 361491, Note_on_c, 0, 77, 0
2, 361811, Note_on_c, 0, 74, 0
2, 361833, Note_on_c, 0, 75, 75
2, 362295, Note_on_c, 0, 75, 0
2, 362336, Note_on_c, 0, 79, 69
2, 362347, Control_c, 0, 64, 127
2, 362501, Note_on_c, 0, 67, 0
2, 362659, Note_on_c, 0, 79, 0
2, 362803, Control_c, 0, 64, 0
2, 362812, Note_on_c, 0, 67, 59
2, 362935, Control_c, 0, 64, 127
2, 363162, Note_on_c, 0, 67, 0
2, 363430, Note_on_c, 0, 67, 49
2, 363570, Note_on_c, 0, 62, 0
2, 363682, Note_on_c, 0, 67, 0
2, 364223, Note_on_c, 0, 67, 45
2, 364371, Note_on_c, 0, 67, 0
2, 364632, Note_on_c, 0, 63, 0
2, 364891, Note_on_c, 0, 67, 45
2, 365062, Note_on_c, 0, 60, 0
2, 365186, Note_on_c, 0, 67, 0
2, 366617, Control_c, 0, 64, 0
2, 366669, Note_on_c, 0, 84, 87
2, 366696, Note_on_c, 0, 67, 63
2, 366728, Note_on_c, 0, 63, 55
2, 366728, Note_on_c, 0, 79, 81
2, 366731, Note_on_c, 0, 60, 52
2, 366750, Note_on_c, 0, 72, 75
2, 366761, Note_on_c, 0, 58, 50
2, 366919, Control_c, 0, 64, 127
2, 366937, Note_on_c, 0, 72, 0
2, 367009, Note_on_c, 0, 84, 0
2, 367057, Note_on_c, 0, 79, 0
2, 367109, Note_on_c, 0, 60, 0
2, 367132, Note_on_c, 0, 67, 0
2, 367145, Note_on_c, 0, 58, 0
2, 367252, Note_on_c, 0, 63, 0
2, 367412, Note_on_c, 0, 87, 88
2, 367480, Note_on_c, 0, 75, 75
2, 367491, Note_on_c, 0, 67, 63
2, 367504, Note_on_c, 0, 63, 53
2, 367539, Note_on_c, 0, 58, 46
2, 367548, Note_on_c, 0, 75, 0
2, 367583, Note_on_c, 0, 67, 0
2, 367587, Note_on_c, 0, 60, 44
2, 367635, Note_on_c, 0, 58, 0
2, 367635, Note_on_c, 0, 87, 0
2, 367677, Note_on_c, 0, 60, 0
2, 367705, Note_on_c, 0, 63, 0
2, 368045, Note_on_c, 0, 58, 69
2, 368052, Note_on_c, 0, 91, 94
2, 368069, Note_on_c, 0, 63, 60
2, 368086, Note_on_c, 0, 79, 83
2, 368098, Note_on_c, 0, 86, 81
2, 368157, Note_on_c, 0, 63, 0
2, 368231, Note_on_c, 0, 79, 0
2, 368240, Note_on_c, 0, 58, 0
2, 368286, Note_on_c, 0, 86, 0
2, 368305, Note_on_c, 0, 91, 0
2, 368669, Note_on_c, 0, 93, 95
2, 368674, Note_on_c, 0, 60, 72
2, 368676, Note_on_c, 0, 89, 83
2, 368682, Note_on_c, 0, 55, 74
2, 368695, Control_c, 0, 64, 0
2, 368698, Note_on_c, 0, 81, 81
2, 368702, Note_on_c, 0, 65, 59
2, 368704, Note_on_c, 0, 61, 70
2, 369180, Control_c, 0, 64, 127
2, 369208, Note_on_c, 0, 55, 0
2, 369217, Note_on_c, 0, 81, 0
2, 369269, Note_on_c, 0, 65, 0
2, 369276, Note_on_c, 0, 93, 0
2, 369300, Note_on_c, 0, 61, 0
2, 369304, Note_on_c, 0, 89, 0
2, 369304, Note_on_c, 0, 60, 0
2, 369416, Control_c, 0, 64, 0
2, 369491, Note_on_c, 0, 93, 78
2, 369501, Note_on_c, 0, 89, 73
2, 369512, Note_on_c, 0, 60, 69
2, 369513, Note_on_c, 0, 81, 77
2, 369515, Note_on_c, 0, 61, 63
2, 369517, Note_on_c, 0, 65, 70
2, 369526, Note_on_c, 0, 55, 69
2, 369773, Control_c, 0, 64, 127
2, 369922, Note_on_c, 0, 55, 0
2, 369929, Note_on_c, 0, 81, 0
2, 369938, Note_on_c, 0, 89, 0
2, 369966, Note_on_c, 0, 65, 0
2, 369995, Note_on_c, 0, 93, 0
2, 369997, Note_on_c, 0, 60, 0
2, 369999, Note_on_c, 0, 61, 0
2, 370104, Control_c, 0, 64, 0
2, 370133, Control_c, 0, 64, 127
2, 370214, Note_on_c, 0, 93, 63
2, 370227, Note_on_c, 0, 61, 53
2, 370235, Note_on_c, 0, 65, 60
2, 370237, Note_on_c, 0, 55, 61
2, 370238, Note_on_c, 0, 89, 72
2, 370242, Note_on_c, 0, 60, 53
2, 370248, Note_on_c, 0, 81, 65
2, 370538, Note_on_c, 0, 81, 0
2, 370540, Note_on_c, 0, 55, 0
2, 370542, Note_on_c, 0, 65, 0
2, 370564, Note_on_c, 0, 60, 0
2, 370575, Note_on_c, 0, 89, 0
2, 370588, Note_on_c, 0, 61, 0
2, 370610, Note_on_c, 0, 93, 0
2, 370857, Note_on_c, 0, 93, 67
2, 370857, Note_on_c, 0, 65, 54
2, 370858, Note_on_c, 0, 55, 55
2, 370868, Note_on_c, 0, 61, 48
2, 370882, Note_on_c, 0, 60, 51
2, 370899, Note_on_c, 0, 81, 59
2, 370903, Note_on_c, 0, 89, 60
2, 371094, Note_on_c, 0, 81, 0
2, 371157, Note_on_c, 0, 93, 0
2, 371175, Note_on_c, 0, 89, 0
2, 371219, Note_on_c, 0, 55, 0
2, 371221, Note_on_c, 0, 60, 0
2, 371221, Note_on_c, 0, 65, 0
2, 371226, Note_on_c, 0, 61, 0
2, 371506, Note_on_c, 0, 94, 70
2, 371547, Note_on_c, 0, 82, 53
2, 371587, Note_on_c, 0, 65, 36
2, 371609, Note_on_c, 0, 60, 41
2, 371611, Note_on_c, 0, 61, 44
2, 371731, Note_on_c, 0, 61, 0
2, 371736, Note_on_c, 0, 65, 0
2, 371740, Note_on_c, 0, 82, 0
2, 371773, Note_on_c, 0, 60, 0
2, 371801, Note_on_c, 0, 94, 0
2, 372181, Control_c, 0, 64, 0
2, 372246, Note_on_c, 0, 61, 51
2, 372248, Note_on_c, 0, 93, 54
2, 372253, Note_on_c, 0, 65, 43
2, 372257, Note_on_c, 0, 89, 63
2, 372264, Note_on_c, 0, 81, 44
2, 372281, Note_on_c, 0, 55, 49
2, 372498, Control_c, 0, 64, 127
2, 373228, Note_on_c, 0, 93, 0
2, 373296, Note_on_c, 0, 89, 0
2, 373328, Note_on_c, 0, 61, 0
2, 373405, Note_on_c, 0, 65, 0
2, 373464, Note_on_c, 0, 55, 0
2, 373503, Note_on_c, 0, 81, 0
2, 374340, Note_on_c, 0, 61, 49
2, 374354, Note_on_c, 0, 65, 42
2, 374386, Note_on_c, 0, 55, 41
2, 375041, Note_on_c, 0, 65, 0
2, 375212, Note_on_c, 0, 61, 0
2, 375260, Note_on_c, 0, 55, 0
2, 375355, Note_on_c, 0, 77, 127
2, 375363, Note_on_c, 0, 81, 119
2, 375624, Note_on_c, 0, 77, 0
2, 375631, Note_on_c, 0, 81, 0
2, 375836, Note_on_c, 0, 80, 80
2, 375856, Note_on_c, 0, 76, 88
2, 376176, Note_on_c, 0, 76, 0
2, 376231, Note_on_c, 0, 80, 0
2, 376355, Control_c, 0, 64, 0
2, 376358, Note_on_c, 0, 50, 38
2, 376367, Note_on_c, 0, 76, 54
2, 376377, Note_on_c, 0, 60, 38
2, 376378, Note_on_c, 0, 72, 52
2, 376386, Note_on_c, 0, 79, 70
2, 376406, Note_on_c, 0, 57, 48
2, 376423, Note_on_c, 0, 53, 49
2, 376818, Control_c, 0, 64, 40
2, 376826, Control_c, 0, 64, 127
2, 377389, Note_on_c, 0, 79, 0
2, 377398, Note_on_c, 0, 76, 0
2, 377451, Note_on_c, 0, 72, 0
2, 377622, Note_on_c, 0, 57, 0
2, 377784, Note_on_c, 0, 60, 0
2, 377815, Note_on_c, 0, 57, 56
2, 377970, Note_on_c, 0, 57, 0
2, 377994, Note_on_c, 0, 53, 0
2, 378281, Note_on_c, 0, 57, 79
2, 378292, Note_on_c, 0, 69, 76
2, 378294, Note_on_c, 0, 60, 69
2, 378303, Note_on_c, 0, 64, 79
2, 378305, Note_on_c, 0, 65, 81
2, 378318, Control_c, 0, 64, 0
2, 378798, Note_on_c, 0, 57, 0
2, 378827, Note_on_c, 0, 55, 56
2, 378829, Note_on_c, 0, 69, 0
2, 378831, Note_on_c, 0, 60, 0
2, 378855, Note_on_c, 0, 65, 0
2, 378859, Note_on_c, 0, 64, 0
2, 378883, Note_on_c, 0, 50, 0
2, 379265, Note_on_c, 0, 55, 0
2, 379271, Note_on_c, 0, 57, 62
2, 379273, Note_on_c, 0, 60, 62
2, 379293, Note_on_c, 0, 69, 63
2, 379293, Note_on_c, 0, 64, 63
2, 379295, Note_on_c, 0, 65, 65
2, 379672, Note_on_c, 0, 60, 0
2, 379725, Note_on_c, 0, 64, 0
2, 380149, Note_on_c, 0, 57, 0
2, 380152, Control_c, 0, 64, 127
2, 380242, Note_on_c, 0, 65, 0
2, 380255, Note_on_c, 0, 69, 0
2, 380708, Note_on_c, 0, 50, 70
2, 380842, Note_on_c, 0, 50, 0
2, 381529, Control_c, 0, 64, 0
2, 381624, Note_on_c, 0, 86, 112
2, 381632, Note_on_c, 0, 81, 112
2, 381632, Note_on_c, 0, 74, 106
2, 381635, Note_on_c, 0, 65, 91
2, 381637, Note_on_c, 0, 58, 75
2, 381645, Note_on_c, 0, 54, 81
2, 381650, Note_on_c, 0, 60, 83
2, 381733, Control_c, 0, 64, 127
2, 381904, Note_on_c, 0, 74, 0
2, 381979, Note_on_c, 0, 81, 0
2, 382016, Note_on_c, 0, 86, 0
2, 382070, Note_on_c, 0, 65, 0
2, 382071, Note_on_c, 0, 54, 0
2, 382082, Note_on_c, 0, 60, 0
2, 382130, Note_on_c, 0, 58, 0
2, 382211, Control_c, 0, 64, 0
2, 382294, Note_on_c, 0, 89, 100
2, 382294, Note_on_c, 0, 84, 97
2, 382296, Note_on_c, 0, 77, 100
2, 382301, Note_on_c, 0, 58, 70
2, 382305, Note_on_c, 0, 65, 85
2, 382314, Note_on_c, 0, 54, 75
2, 382323, Note_on_c, 0, 60, 70
2, 382495, Note_on_c, 0, 77, 0
2, 382507, Control_c, 0, 64, 127
2, 382574, Note_on_c, 0, 84, 0
2, 382605, Note_on_c, 0, 89, 0
2, 382642, Note_on_c, 0, 65, 0
2, 382664, Note_on_c, 0, 60, 0
2, 382703, Note_on_c, 0, 58, 0
2, 382774, Note_on_c, 0, 54, 0
2, 383538, Note_on_c, 0, 65, 62
2, 383547, Note_on_c, 0, 54, 63
2, 383571, Note_on_c, 0, 93, 78
2, 383591, Note_on_c, 0, 58, 52
2, 383604, Note_on_c, 0, 81, 59
2, 383606, Note_on_c, 0, 88, 70
2, 383619, Note_on_c, 0, 60, 50
2, 383626, Note_on_c, 0, 65, 0
2, 383678, Note_on_c, 0, 81, 0
2, 383692, Note_on_c, 0, 60, 0
2, 383709, Note_on_c, 0, 58, 0
2, 383727, Note_on_c, 0, 93, 0
2, 383801, Note_on_c, 0, 88, 0
2, 383829, Note_on_c, 0, 54, 0
2, 383978, Control_c, 0, 64, 0
2, 384079, Note_on_c, 0, 62, 56
2, 384090, Note_on_c, 0, 58, 52
2, 384103, Note_on_c, 0, 57, 65
2, 384110, Note_on_c, 0, 94, 81
2, 384119, Note_on_c, 0, 82, 69
2, 384152, Note_on_c, 0, 89, 65
2, 384313, Note_on_c, 0, 55, 30
2, 384362, Control_c, 0, 64, 127
2, 384434, Note_on_c, 0, 89, 0
2, 384511, Note_on_c, 0, 82, 0
2, 384539, Note_on_c, 0, 62, 0
2, 384543, Note_on_c, 0, 94, 0
2, 384555, Note_on_c, 0, 55, 0
2, 384557, Note_on_c, 0, 58, 0
2, 384566, Note_on_c, 0, 57, 0
2, 384686, Control_c, 0, 64, 0
2, 384714, Note_on_c, 0, 96, 85
2, 384734, Note_on_c, 0, 84, 70
2, 384749, Note_on_c, 0, 62, 45
2, 384771, Note_on_c, 0, 58, 46
2, 384784, Note_on_c, 0, 57, 51
2, 384804, Note_on_c, 0, 55, 47
2, 384914, Note_on_c, 0, 96, 0
2, 384990, Note_on_c, 0, 84, 0
2, 384999, Note_on_c, 0, 62, 0
2, 385015, Note_on_c, 0, 57, 0
2, 385036, Note_on_c, 0, 55, 0
2, 385036, Note_on_c, 0, 58, 0
2, 385085, Control_c, 0, 64, 127
2, 385313, Note_on_c, 0, 94, 65
2, 385354, Note_on_c, 0, 62, 50
2, 385358, Note_on_c, 0, 82, 55
2, 385385, Note_on_c, 0, 58, 57
2, 385398, Note_on_c, 0, 57, 57
2, 385418, Note_on_c, 0, 55, 53
2, 385566, Note_on_c, 0, 62, 0
2, 385588, Note_on_c, 0, 55, 0
2, 385590, Note_on_c, 0, 94, 0
2, 385591, Note_on_c, 0, 58, 0
2, 385601, Note_on_c, 0, 82, 0
2, 385606, Note_on_c, 0, 57, 0
2, 385733, Note_on_c, 0, 96, 73
2, 385763, Note_on_c, 0, 84, 58
2, 385764, Note_on_c, 0, 62, 43
2, 385827, Note_on_c, 0, 58, 45
2, 385845, Note_on_c, 0, 55, 35
2, 385862, Note_on_c, 0, 57, 36
2, 385912, Note_on_c, 0, 96, 0
2, 385915, Note_on_c, 0, 84, 0
2, 385956, Note_on_c, 0, 55, 0
2, 385961, Note_on_c, 0, 57, 0
2, 385963, Note_on_c, 0, 62, 0
2, 385978, Note_on_c, 0, 58, 0
2, 386097, Control_c, 0, 64, 0
2, 386173, Note_on_c, 0, 94, 70
2, 386189, Note_on_c, 0, 82, 65
2, 386191, Note_on_c, 0, 62, 49
2, 386206, Note_on_c, 0, 58, 49
2, 386217, Note_on_c, 0, 55, 53
2, 386223, Control_c, 0, 64, 127
2, 386786, Note_on_c, 0, 55, 0
2, 386844, Note_on_c, 0, 62, 0
2, 386876, Note_on_c, 0, 58, 0
2, 386924, Note_on_c, 0, 82, 0
2, 387073, Note_on_c, 0, 94, 0
2, 387845, Note_on_c, 0, 94, 70
2, 387917, Note_on_c, 0, 63, 55
2, 387921, Note_on_c, 0, 59, 51
2, 387932, Control_c, 0, 64, 0
2, 387939, Note_on_c, 0, 91, 56
2, 387941, Note_on_c, 0, 87, 54
2, 387952, Note_on_c, 0, 53, 50
2, 387980, Note_on_c, 0, 82, 52
2, 388339, Control_c, 0, 64, 127
2, 388708, Note_on_c, 0, 91, 0
2, 388784, Note_on_c, 0, 94, 0
2, 388808, Note_on_c, 0, 87, 0
2, 388913, Note_on_c, 0, 82, 0
2, 389192, Note_on_c, 0, 59, 0
2, 389350, Note_on_c, 0, 63, 0
2, 389755, Note_on_c, 0, 63, 49
2, 389763, Note_on_c, 0, 59, 54
2, 390379, Note_on_c, 0, 53, 0
2, 390425, Note_on_c, 0, 59, 0
2, 390534, Note_on_c, 0, 63, 0
2, 391857, Note_on_c, 0, 63, 48
2, 391866, Note_on_c, 0, 62, 45
2, 391879, Note_on_c, 0, 60, 41
2, 391904, Note_on_c, 0, 67, 24
2, 391939, Control_c, 0, 64, 0
2, 392747, Control_c, 0, 64, 127
2, 393233, Note_on_c, 0, 67, 0
2, 393314, Note_on_c, 0, 63, 0
2, 393490, Control_c, 0, 64, 0
2, 393501, Note_on_c, 0, 82, 81
2, 393505, Note_on_c, 0, 63, 49
2, 393536, Note_on_c, 0, 67, 45
2, 393687, Note_on_c, 0, 82, 0
2, 393772, Note_on_c, 0, 81, 63
2, 393919, Note_on_c, 0, 81, 0
2, 394068, Note_on_c, 0, 82, 88
2, 394484, Control_c, 0, 64, 127
2, 394806, Note_on_c, 0, 82, 0
2, 394898, Note_on_c, 0, 79, 56
2, 395117, Note_on_c, 0, 79, 0
2, 395128, Note_on_c, 0, 67, 0
2, 395200, Note_on_c, 0, 62, 0
2, 395406, Control_c, 0, 64, 0
2, 395533, Note_on_c, 0, 67, 45
2, 395557, Note_on_c, 0, 75, 69
2, 395617, Note_on_c, 0, 58, 48
2, 396000, Note_on_c, 0, 75, 0
2, 396057, Note_on_c, 0, 58, 0
2, 396158, Note_on_c, 0, 75, 65
2, 396239, Note_on_c, 0, 75, 0
2, 396617, Note_on_c, 0, 67, 0
2, 396681, Control_c, 0, 64, 127
2, 396911, Note_on_c, 0, 63, 0
2, 397089, Note_on_c, 0, 60, 0
2, 397511, Note_on_c, 0, 67, 42
2, 397516, Note_on_c, 0, 63, 43
2, 397592, Note_on_c, 0, 60, 31
2, 398054, Note_on_c, 0, 67, 0
2, 398085, Note_on_c, 0, 63, 0
2, 398149, Note_on_c, 0, 60, 0
2, 399358, Note_on_c, 0, 58, 45
2, 399362, Control_c, 0, 64, 0
2, 399371, Note_on_c, 0, 60, 53
2, 399377, Note_on_c, 0, 65, 32
2, 399386, Note_on_c, 0, 54, 44
2, 400385, Note_on_c, 0, 83, 60
2, 400394, Note_on_c, 0, 84, 90
2, 400488, Note_on_c, 0, 83, 0
2, 400878, Note_on_c, 0, 84, 0
2, 400976, Note_on_c, 0, 83, 88
2, 401125, Note_on_c, 0, 84, 90
2, 401198, Note_on_c, 0, 83, 0
2, 401540, Note_on_c, 0, 84, 0
2, 401763, Note_on_c, 0, 84, 78
2, 402039, Control_c, 0, 64, 127
2, 402140, Control_c, 0, 64, 0
2, 402146, Note_on_c, 0, 84, 0
2, 402278, Note_on_c, 0, 82, 72
2, 402337, Note_on_c, 0, 83, 90
2, 402429, Note_on_c, 0, 82, 0
2, 402514, Note_on_c, 0, 84, 62
2, 402563, Note_on_c, 0, 83, 0
2, 402591, Control_c, 0, 64, 127
2, 402814, Note_on_c, 0, 60, 0
2, 402897, Note_on_c, 0, 84, 0
2, 402948, Note_on_c, 0, 58, 0
2, 402974, Note_on_c, 0, 54, 0
2, 403049, Note_on_c, 0, 84, 83
2, 403160, Note_on_c, 0, 65, 0
2, 403399, Note_on_c, 0, 84, 0
2, 403581, Control_c, 0, 64, 0
2, 403695, Note_on_c, 0, 84, 82
2, 403739, Note_on_c, 0, 65, 48
2, 403741, Note_on_c, 0, 63, 49
2, 403804, Note_on_c, 0, 57, 44
2, 403988, Control_c, 0, 64, 127
2, 404378, Note_on_c, 0, 84, 0
2, 404381, Note_on_c, 0, 77, 62
2, 404935, Note_on_c, 0, 65, 0
2, 404974, Note_on_c, 0, 63, 0
2, 405060, Note_on_c, 0, 89, 127
2, 405086, Note_on_c, 0, 65, 43
2, 405108, Note_on_c, 0, 63, 31
2, 405644, Note_on_c, 0, 89, 0
2, 405833, Note_on_c, 0, 89, 110
2, 406164, Note_on_c, 0, 63, 0
2, 406232, Note_on_c, 0, 65, 0
2, 406267, Note_on_c, 0, 57, 0
2, 406361, Note_on_c, 0, 77, 0
2, 406532, Note_on_c, 0, 77, 86
2, 406963, Note_on_c, 0, 77, 0
2, 407049, Note_on_c, 0, 89, 0
2, 407083, Control_c, 0, 64, 0
2, 407108, Note_on_c, 0, 65, 51
2, 407138, Note_on_c, 0, 60, 46
2, 407140, Note_on_c, 0, 62, 53
2, 407160, Note_on_c, 0, 77, 73
2, 407425, Control_c, 0, 64, 127
2, 407988, Note_on_c, 0, 65, 0
2, 408050, Note_on_c, 0, 87, 119
2, 408525, Note_on_c, 0, 85, 84
2, 408599, Note_on_c, 0, 87, 0
2, 408878, Note_on_c, 0, 77, 0
2, 408943, Control_c, 0, 64, 0
2, 408945, Note_on_c, 0, 85, 0
2, 408970, Note_on_c, 0, 53, 68
2, 409015, Note_on_c, 0, 86, 67
2, 409418, Control_c, 0, 64, 127
2, 409513, Note_on_c, 0, 81, 62
2, 409543, Note_on_c, 0, 86, 0
2, 409821, Note_on_c, 0, 81, 0
2, 409931, Note_on_c, 0, 84, 97
2, 410142, Note_on_c, 0, 60, 0
2, 410198, Note_on_c, 0, 62, 0
2, 410396, Note_on_c, 0, 82, 80
2, 410696, Note_on_c, 0, 84, 0
2, 410799, Note_on_c, 0, 82, 0
2, 410891, Note_on_c, 0, 74, 65
2, 412829, Note_on_c, 0, 65, 47
2, 412858, Note_on_c, 0, 62, 50
2, 412873, Note_on_c, 0, 60, 46
2, 413596, Note_on_c, 0, 74, 0
2, 413685, Note_on_c, 0, 65, 0
2, 413734, Note_on_c, 0, 53, 0
2, 413742, Note_on_c, 0, 62, 0
2, 413905, Note_on_c, 0, 60, 0
2, 414746, Control_c, 0, 64, 0
2, 414763, Note_on_c, 0, 67, 48
2, 414772, Note_on_c, 0, 63, 48
2, 414803, Note_on_c, 0, 56, 47
2, 414820, Note_on_c, 0, 60, 52
2, 415232, Control_c, 0, 64, 127
2, 415747, Note_on_c, 0, 67, 0
2, 416095, Note_on_c, 0, 67, 55
2, 416238, Note_on_c, 0, 67, 0
2, 416428, Note_on_c, 0, 68, 83
2, 416593, Note_on_c, 0, 68, 0
2, 416645, Control_c, 0, 64, 72
2, 416652, Control_c, 0, 64, 0
2, 416779, Note_on_c, 0, 75, 102
2, 416796, Note_on_c, 0, 67, 47
2, 417129, Note_on_c, 0, 75, 0
2, 417136, Note_on_c, 0, 72, 60
2, 417335, Note_on_c, 0, 72, 0
2, 417444, Note_on_c, 0, 74, 98
2, 417710, Note_on_c, 0, 74, 0
2, 417777, Note_on_c, 0, 75, 85
2, 417867, Note_on_c, 0, 67, 0
2, 417927, Note_on_c, 0, 75, 0
2, 418056, Note_on_c, 0, 56, 0
2, 418060, Note_on_c, 0, 77, 86
2, 418069, Note_on_c, 0, 63, 0
2, 418189, Control_c, 0, 64, 127
2, 418288, Note_on_c, 0, 77, 0
2, 418334, Note_on_c, 0, 60, 0
2, 418384, Note_on_c, 0, 78, 104
2, 418527, Control_c, 0, 64, 0
2, 418630, Note_on_c, 0, 66, 52
2, 418651, Note_on_c, 0, 62, 56
2, 418700, Note_on_c, 0, 82, 83
2, 418713, Note_on_c, 0, 56, 49
2, 418735, Note_on_c, 0, 78, 0
2, 418857, Note_on_c, 0, 82, 0
2, 419035, Control_c, 0, 64, 127
2, 419037, Note_on_c, 0, 86, 81
2, 419271, Note_on_c, 0, 86, 0
2, 419331, Note_on_c, 0, 90, 97
2, 419646, Note_on_c, 0, 94, 92
2, 419790, Note_on_c, 0, 90, 0
2, 419896, Note_on_c, 0, 94, 0
2, 419979, Note_on_c, 0, 96, 91
2, 420031, Note_on_c, 0, 66, 0
2, 420233, Note_on_c, 0, 96, 0
2, 420308, Note_on_c, 0, 93, 77
2, 420428, Note_on_c, 0, 62, 0
2, 420450, Note_on_c, 0, 93, 0
2, 420632, Control_c, 0, 64, 0
2, 420700, Note_on_c, 0, 56, 0
2, 420921, Control_c, 0, 64, 127
2, 421199, Control_c, 0, 64, 0
2, 421238, Note_on_c, 0, 66, 65
2, 421280, Note_on_c, 0, 56, 56
2, 421280, Note_on_c, 0, 62, 60
2, 421720, Control_c, 0, 64, 127
2, 421994, Note_on_c, 0, 93, 96
2, 422176, Note_on_c, 0, 93, 0
2, 422206, Note_on_c, 0, 66, 0
2, 422229, Note_on_c, 0, 62, 0
2, 422259, Note_on_c, 0, 94, 100
2, 422458, Note_on_c, 0, 56, 0
2, 422493, Note_on_c, 0, 94, 0
2, 422537, Control_c, 0, 64, 0
2, 422540, Note_on_c, 0, 62, 35
2, 422562, Note_on_c, 0, 96, 106
2, 422583, Note_on_c, 0, 65, 51
2, 422594, Note_on_c, 0, 60, 60
2, 422629, Note_on_c, 0, 55, 55
2, 422781, Note_on_c, 0, 96, 0
2, 423032, Note_on_c, 0, 96, 85
2, 423179, Note_on_c, 0, 96, 0
2, 423448, Note_on_c, 0, 96, 83
2, 423608, Note_on_c, 0, 96, 0
2, 423858, Note_on_c, 0, 96, 76
2, 424022, Note_on_c, 0, 96, 0
2, 424207, Note_on_c, 0, 96, 69
2, 424257, Control_c, 0, 64, 127
2, 424373, Note_on_c, 0, 96, 0
2, 424592, Note_on_c, 0, 96, 70
2, 424765, Note_on_c, 0, 96, 0
2, 424954, Note_on_c, 0, 60, 0
2, 424986, Note_on_c, 0, 65, 0
2, 424989, Note_on_c, 0, 96, 76
2, 424991, Note_on_c, 0, 62, 0
2, 425067, Note_on_c, 0, 96, 0
2, 425286, Note_on_c, 0, 55, 0
2, 425446, Note_on_c, 0, 96, 86
2, 425549, Note_on_c, 0, 96, 0
2, 425856, Note_on_c, 0, 96, 90
2, 425994, Note_on_c, 0, 96, 0
2, 426121, Note_on_c, 0, 96, 93
2, 426287, Note_on_c, 0, 96, 0
2, 426368, Note_on_c, 0, 96, 94
2, 426533, Note_on_c, 0, 96, 0
2, 426623, Control_c, 0, 64, 0
2, 426647, Note_on_c, 0, 96, 109
2, 426708, Note_on_c, 0, 65, 42
2, 426715, Note_on_c, 0, 62, 55
2, 426748, Note_on_c, 0, 60, 58
2, 426758, Note_on_c, 0, 55, 51
2, 426852, Note_on_c, 0, 96, 0
2, 427047, Note_on_c, 0, 96, 87
2, 427205, Note_on_c, 0, 96, 0
2, 427317, Control_c, 0, 64, 127
2, 427444, Note_on_c, 0, 96, 76
2, 427595, Note_on_c, 0, 96, 0
2, 427851, Note_on_c, 0, 96, 69
2, 428002, Note_on_c, 0, 96, 0
2, 428180, Note_on_c, 0, 96, 66
2, 428226, Note_on_c, 0, 65, 0
2, 428276, Note_on_c, 0, 60, 0
2, 428338, Note_on_c, 0, 62, 0
2, 428382, Note_on_c, 0, 96, 0
2, 428535, Note_on_c, 0, 96, 80
2, 428704, Note_on_c, 0, 96, 0
2, 429063, Note_on_c, 0, 96, 75
2, 429159, Note_on_c, 0, 96, 0
2, 429672, Note_on_c, 0, 55, 0
2, 429692, Note_on_c, 0, 96, 75
2, 429781, Note_on_c, 0, 96, 0
2, 429952, Note_on_c, 0, 96, 81
2, 430130, Note_on_c, 0, 96, 0
2, 430279, Note_on_c, 0, 96, 80
2, 430364, Control_c, 0, 64, 0
2, 430373, Note_on_c, 0, 63, 81
2, 430382, Note_on_c, 0, 60, 70
2, 430445, Note_on_c, 0, 57, 53
2, 430495, Note_on_c, 0, 55, 46
2, 430907, Note_on_c, 0, 96, 0
2, 430962, Control_c, 0, 64, 127
2, 431017, Note_on_c, 0, 96, 75
2, 431168, Note_on_c, 0, 96, 0
2, 431656, Note_on_c, 0, 96, 78
2, 431832, Note_on_c, 0, 96, 0
2, 431836, Note_on_c, 0, 55, 0
2, 431864, Note_on_c, 0, 57, 0
2, 431928, Note_on_c, 0, 63, 0
2, 432092, Note_on_c, 0, 60, 0
2, 432142, Note_on_c, 0, 96, 77
2, 432590, Note_on_c, 0, 96, 0
2, 432648, Note_on_c, 0, 103, 81
2, 432920, Note_on_c, 0, 103, 0
2, 433222, Note_on_c, 0, 96, 67
2, 433345, Note_on_c, 0, 63, 30
2, 433510, Note_on_c, 0, 96, 0
2, 433560, Note_on_c, 0, 63, 0
2, 433936, Note_on_c, 0, 101, 78
2, 434007, Control_c, 0, 64, 0
2, 434016, Note_on_c, 0, 54, 50
2, 434022, Note_on_c, 0, 60, 48
2, 434383, Note_on_c, 0, 101, 0
2, 434392, Control_c, 0, 64, 127
2, 434596, Note_on_c, 0, 90, 67
2, 434902, Note_on_c, 0, 54, 0
2, 434960, Note_on_c, 0, 60, 0
2, 435507, Note_on_c, 0, 90, 0
2, 435735, Note_on_c, 0, 54, 44
2, 435763, Note_on_c, 0, 89, 67
2, 435772, Note_on_c, 0, 60, 46
2, 435781, Note_on_c, 0, 65, 38
2, 436374, Note_on_c, 0, 60, 0
2, 436408, Note_on_c, 0, 65, 0
2, 436451, Note_on_c, 0, 89, 0
2, 436616, Note_on_c, 0, 54, 0
2, 437724, Note_on_c, 0, 58, 47
2, 437726, Note_on_c, 0, 57, 42
2, 437728, Note_on_c, 0, 62, 35
2, 437731, Note_on_c, 0, 55, 42
2, 437750, Control_c, 0, 64, 0
2, 439724, Note_on_c, 0, 70, 83
2, 439842, Note_on_c, 0, 70, 0
2, 440223, Note_on_c, 0, 69, 73
2, 440284, Note_on_c, 0, 69, 0
2, 440677, Note_on_c, 0, 70, 79
2, 440758, Note_on_c, 0, 70, 0
2, 441020, Note_on_c, 0, 57, 0
2, 441090, Note_on_c, 0, 55, 0
2, 441137, Note_on_c, 0, 72, 127
2, 441170, Note_on_c, 0, 58, 0
2, 441485, Note_on_c, 0, 62, 0
2, 441566, Note_on_c, 0, 72, 0
2, 441641, Note_on_c, 0, 70, 80
2, 441643, Note_on_c, 0, 54, 56
2, 441682, Note_on_c, 0, 60, 45
2, 442055, Note_on_c, 0, 70, 0
2, 442168, Note_on_c, 0, 69, 75
2, 442361, Note_on_c, 0, 69, 0
2, 442646, Note_on_c, 0, 69, 69
2, 442698, Control_c, 0, 64, 127
2, 442953, Note_on_c, 0, 60, 0
2, 442990, Note_on_c, 0, 69, 0
2, 443078, Note_on_c, 0, 67, 56
2, 443123, Note_on_c, 0, 60, 24
2, 443310, Note_on_c, 0, 67, 0
2, 443507, Control_c, 0, 64, 0
2, 443577, Note_on_c, 0, 67, 66
2, 443590, Note_on_c, 0, 64, 45
2, 443759, Control_c, 0, 64, 127
2, 444074, Note_on_c, 0, 60, 0
2, 444267, Note_on_c, 0, 64, 0
2, 444418, Note_on_c, 0, 69, 72
2, 444438, Note_on_c, 0, 54, 0
2, 444470, Note_on_c, 0, 67, 0
2, 445068, Note_on_c, 0, 69, 0
2, 445303, Control_c, 0, 64, 0
2, 445349, Note_on_c, 0, 70, 67
2, 445395, Note_on_c, 0, 58, 45
2, 445406, Note_on_c, 0, 62, 31
2, 445408, Note_on_c, 0, 57, 44
2, 445419, Note_on_c, 0, 55, 49
2, 445816, Control_c, 0, 64, 127
2, 446229, Note_on_c, 0, 70, 0
2, 446416, Note_on_c, 0, 70, 71
2, 446885, Note_on_c, 0, 70, 0
2, 447132, Note_on_c, 0, 62, 0
2, 447287, Note_on_c, 0, 58, 0
2, 447296, Note_on_c, 0, 57, 0
2, 447458, Note_on_c, 0, 55, 0
2, 448008, Note_on_c, 0, 58, 48
2, 448017, Note_on_c, 0, 62, 35
2, 448017, Note_on_c, 0, 55, 49
2, 448216, Note_on_c, 0, 62, 0
2, 448308, Note_on_c, 0, 58, 0
2, 448359, Note_on_c, 0, 55, 0
2, 449386, Note_on_c, 0, 58, 45
2, 449388, Control_c, 0, 64, 0
2, 449393, Note_on_c, 0, 52, 42
2, 449395, Note_on_c, 0, 62, 32
2, 449835, Note_on_c, 0, 96, 98
2, 450049, Note_on_c, 0, 96, 0
2, 450177, Note_on_c, 0, 94, 98
2, 450376, Note_on_c, 0, 94, 0
2, 450470, Note_on_c, 0, 92, 87
2, 450705, Note_on_c, 0, 92, 0
2, 450742, Note_on_c, 0, 88, 82
2, 450895, Note_on_c, 0, 88, 0
2, 451040, Note_on_c, 0, 85, 85
2, 451237, Note_on_c, 0, 85, 0
2, 451307, Note_on_c, 0, 84, 72
2, 451436, Note_on_c, 0, 84, 0
2, 451640, Note_on_c, 0, 82, 75
2, 451850, Note_on_c, 0, 82, 0
2, 451898, Note_on_c, 0, 80, 70
2, 452102, Note_on_c, 0, 80, 0
2, 452177, Note_on_c, 0, 76, 74
2, 452343, Note_on_c, 0, 76, 0
2, 452496, Note_on_c, 0, 75, 63
2, 452580, Note_on_c, 0, 75, 0
2, 452722, Note_on_c, 0, 52, 0
2, 452762, Note_on_c, 0, 58, 0
2, 452812, Note_on_c, 0, 73, 58
2, 452875, Note_on_c, 0, 62, 0
2, 453013, Control_c, 0, 64, 127
2, 453086, Note_on_c, 0, 73, 0
2, 453112, Note_on_c, 0, 72, 64
2, 453243, Note_on_c, 0, 72, 0
2, 453278, Control_c, 0, 64, 0
2, 453438, Note_on_c, 0, 70, 55
2, 453513, Note_on_c, 0, 63, 24
2, 453552, Note_on_c, 0, 58, 33
2, 453579, Note_on_c, 0, 60, 40
2, 454196, Control_c, 0, 64, 127
2, 454429, Note_on_c, 0, 70, 0
2, 454512, Note_on_c, 0, 63, 0
2, 454582, Note_on_c, 0, 58, 0
2, 454718, Note_on_c, 0, 60, 0
2, 455594, Control_c, 0, 64, 0
2, 455601, Note_on_c, 0, 69, 104
2, 455655, Note_on_c, 0, 63, 75
2, 455662, Note_on_c, 0, 67, 67
2, 455666, Note_on_c, 0, 58, 64
2, 455681, Note_on_c, 0, 55, 61
2, 455977, Control_c, 0, 64, 127
2, 456041, Note_on_c, 0, 69, 0
2, 456152, Note_on_c, 0, 55, 0
2, 456157, Note_on_c, 0, 67, 0
2, 456275, Note_on_c, 0, 69, 91
2, 456349, Note_on_c, 0, 67, 34
2, 456459, Note_on_c, 0, 58, 0
2, 456547, Note_on_c, 0, 67, 0
2, 456571, Note_on_c, 0, 69, 0
2, 456612, Note_on_c, 0, 63, 0
2, 456853, Control_c, 0, 64, 0
2, 456904, Note_on_c, 0, 69, 70
2, 456946, Note_on_c, 0, 59, 60
2, 456948, Note_on_c, 0, 63, 59
2, 456958, Note_on_c, 0, 43, 51
2, 456970, Note_on_c, 0, 53, 43
2, 457197, Control_c, 0, 64, 127
2, 457388, Note_on_c, 0, 59, 0
2, 457475, Note_on_c, 0, 43, 0
2, 457565, Note_on_c, 0, 69, 0
2, 457594, Note_on_c, 0, 53, 0
2, 457603, Note_on_c, 0, 63, 0
2, 458823, Control_c, 0, 64, 0
2, 458867, Note_on_c, 0, 79, 99
2, 458884, Note_on_c, 0, 63, 66
2, 458886, Note_on_c, 0, 71, 89
2, 458888, Note_on_c, 0, 59, 65
2, 458901, Note_on_c, 0, 75, 75
2, 458919, Note_on_c, 0, 53, 61
2, 459024, Control_c, 0, 64, 127
2, 459107, Note_on_c, 0, 79, 0
2, 459184, Note_on_c, 0, 53, 0
2, 459221, Note_on_c, 0, 63, 0
2, 459313, Note_on_c, 0, 75, 0
2, 459316, Note_on_c, 0, 71, 0
2, 459322, Note_on_c, 0, 59, 0
2, 459388, Note_on_c, 0, 80, 88
2, 459405, Note_on_c, 0, 71, 42
2, 459429, Note_on_c, 0, 59, 47
2, 459432, Note_on_c, 0, 63, 55
2, 459482, Note_on_c, 0, 53, 45
2, 459521, Note_on_c, 0, 71, 0
2, 459552, Note_on_c, 0, 63, 0
2, 459572, Note_on_c, 0, 53, 0
2, 459576, Note_on_c, 0, 80, 0
2, 459824, Note_on_c, 0, 82, 98
2, 459832, Note_on_c, 0, 63, 78
2, 459914, Note_on_c, 0, 59, 0
2, 460113, Note_on_c, 0, 63, 0
2, 460385, Note_on_c, 0, 82, 0
2, 460774, Control_c, 0, 64, 0
2, 460801, Note_on_c, 0, 63, 44
2, 460801, Note_on_c, 0, 81, 64
2, 460816, Note_on_c, 0, 58, 51
2, 460829, Note_on_c, 0, 69, 46
2, 460836, Note_on_c, 0, 75, 59
2, 460862, Note_on_c, 0, 62, 42
2, 461258, Control_c, 0, 64, 127
2, 461443, Note_on_c, 0, 81, 0
2, 461501, Note_on_c, 0, 69, 0
2, 461504, Note_on_c, 0, 62, 0
2, 461508, Note_on_c, 0, 58, 0
2, 461543, Note_on_c, 0, 63, 0
2, 461591, Note_on_c, 0, 75, 0
2, 461765, Note_on_c, 0, 79, 58
2, 461773, Note_on_c, 0, 58, 48
2, 461793, Note_on_c, 0, 63, 39
2, 461839, Note_on_c, 0, 67, 43
2, 461852, Note_on_c, 0, 62, 38
2, 462179, Note_on_c, 0, 62, 0
2, 462253, Note_on_c, 0, 67, 0
2, 462262, Note_on_c, 0, 58, 0
2, 462264, Note_on_c, 0, 63, 0
2, 462338, Note_on_c, 0, 79, 0
2, 462621, Control_c, 0, 64, 0
2, 462724, Note_on_c, 0, 79, 70
2, 462726, Note_on_c, 0, 63, 49
2, 462757, Note_on_c, 0, 67, 55
2, 462766, Note_on_c, 0, 58, 52
2, 462779, Note_on_c, 0, 75, 57
2, 462800, Note_on_c, 0, 62, 52
2, 462958, Control_c, 0, 64, 127
2, 463653, Note_on_c, 0, 62, 0
2, 463662, Note_on_c, 0, 67, 0
2, 463813, Note_on_c, 0, 63, 0
2, 463926, Note_on_c, 0, 58, 0
2, 464176, Note_on_c, 0, 79, 0
2, 464240, Note_on_c, 0, 75, 0
2, 464586, Control_c, 0, 64, 0
2, 464649, Note_on_c, 0, 79, 63
2, 464658, Note_on_c, 0, 69, 49
2, 464665, Note_on_c, 0, 63, 43
2, 464673, Note_on_c, 0, 67, 38
2, 464675, Note_on_c, 0, 57, 49
2, 464697, Note_on_c, 0, 74, 60
2, 464962, Control_c, 0, 64, 127
2, 465412, Note_on_c, 0, 67, 0
2, 465473, Note_on_c, 0, 57, 0
2, 465534, Note_on_c, 0, 69, 0
2, 465565, Note_on_c, 0, 79, 0
2, 465611, Note_on_c, 0, 63, 0
2, 465642, Note_on_c, 0, 74, 0
2, 466132, Note_on_c, 0, 78, 96
2, 466156, Note_on_c, 0, 70, 81
2, 466159, Note_on_c, 0, 73, 91
2, 466169, Note_on_c, 0, 63, 72
2, 466183, Note_on_c, 0, 57, 69
2, 466422, Note_on_c, 0, 57, 0
2, 466500, Note_on_c, 0, 63, 0
2, 466522, Note_on_c, 0, 70, 0
2, 466597, Control_c, 0, 64, 0
2, 466616, Note_on_c, 0, 78, 0
2, 466697, Note_on_c, 0, 63, 58
2, 466711, Note_on_c, 0, 77, 75
2, 466713, Note_on_c, 0, 57, 56
2, 466739, Note_on_c, 0, 69, 63
2, 466866, Note_on_c, 0, 73, 0
2, 466884, Control_c, 0, 64, 127
2, 466899, Note_on_c, 0, 72, 61
2, 466969, Note_on_c, 0, 72, 0
2, 467142, Note_on_c, 0, 77, 0
2, 467216, Note_on_c, 0, 69, 0
2, 467230, Note_on_c, 0, 57, 0
2, 467335, Note_on_c, 0, 63, 0
2, 467445, Control_c, 0, 64, 0
2, 467528, Note_on_c, 0, 63, 53
2, 467536, Note_on_c, 0, 78, 69
2, 467541, Note_on_c, 0, 57, 59
2, 467556, Note_on_c, 0, 70, 53
2, 467560, Note_on_c, 0, 73, 70
2, 467637, Control_c, 0, 64, 127
2, 467790, Note_on_c, 0, 57, 0
2, 467979, Note_on_c, 0, 63, 0
2, 468055, Note_on_c, 0, 70, 0
2, 468115, Note_on_c, 0, 78, 0
2, 468119, Note_on_c, 0, 73, 0
2, 468491, Control_c, 0, 64, 0
2, 468516, Note_on_c, 0, 55, 44
2, 468566, Note_on_c, 0, 65, 39
2, 468575, Note_on_c, 0, 77, 53
2, 468577, Note_on_c, 0, 62, 53
2, 468601, Note_on_c, 0, 60, 49
2, 468603, Note_on_c, 0, 72, 52
2, 468621, Note_on_c, 0, 69, 35
2, 468988, Control_c, 0, 64, 127
2, 469611, Note_on_c, 0, 60, 0
2, 469690, Note_on_c, 0, 62, 0
2, 469755, Note_on_c, 0, 69, 0
2, 469768, Note_on_c, 0, 65, 0
2, 469944, Note_on_c, 0, 55, 0
2, 470042, Note_on_c, 0, 72, 0
2, 470276, Note_on_c, 0, 77, 0
2, 470441, Note_on_c, 0, 55, 32
2, 470465, Note_on_c, 0, 60, 51
2, 470483, Note_on_c, 0, 65, 28
2, 470487, Note_on_c, 0, 62, 48
2, 471194, Note_on_c, 0, 62, 0
2, 471249, Note_on_c, 0, 60, 0
2, 471299, Note_on_c, 0, 65, 0
2, 471613, Note_on_c, 0, 55, 0
2, 472438, Note_on_c, 0, 67, 72
2, 472450, Control_c, 0, 64, 0
2, 472456, Note_on_c, 0, 60, 49
2, 472467, Note_on_c, 0, 58, 42
2, 472474, Note_on_c, 0, 55, 45
2, 472507, Note_on_c, 0, 65, 40
2, 472564, Note_on_c, 0, 67, 0
2, 472690, Note_on_c, 0, 70, 85
2, 472837, Note_on_c, 0, 70, 0
2, 472955, Note_on_c, 0, 74, 75
2, 473135, Note_on_c, 0, 74, 0
2, 473192, Note_on_c, 0, 77, 78
2, 473356, Note_on_c, 0, 77, 0
2, 473426, Note_on_c, 0, 74, 80
2, 473499, Note_on_c, 0, 74, 0
2, 473898, Note_on_c, 0, 75, 86
2, 474042, Note_on_c, 0, 75, 0
2, 474395, Note_on_c, 0, 79, 55
2, 474467, Note_on_c, 0, 79, 0
2, 474789, Note_on_c, 0, 82, 81
2, 474859, Note_on_c, 0, 82, 0
2, 475225, Note_on_c, 0, 86, 86
2, 475306, Note_on_c, 0, 86, 0
2, 475694, Note_on_c, 0, 89, 127
2, 475724, Note_on_c, 0, 65, 0
2, 475764, Note_on_c, 0, 55, 0
2, 475860, Note_on_c, 0, 60, 0
2, 475897, Note_on_c, 0, 58, 0
2, 475970, Note_on_c, 0, 89, 0
2, 476809, Note_on_c, 0, 50, 58
2, 476975, Note_on_c, 0, 50, 0
2, 477696, Control_c, 0, 64, 127
2, 477716, Note_on_c, 0, 91, 78
2, 477718, Note_on_c, 0, 79, 78
2, 477737, Note_on_c, 0, 60, 48
2, 477739, Note_on_c, 0, 88, 71
2, 477759, Note_on_c, 0, 53, 47
2, 477761, Note_on_c, 0, 50, 49
2, 477796, Note_on_c, 0, 57, 48
2, 478033, Note_on_c, 0, 50, 0
2, 478050, Note_on_c, 0, 79, 0
2, 478051, Note_on_c, 0, 57, 0
2, 478072, Note_on_c, 0, 91, 0
2, 478073, Note_on_c, 0, 60, 0
2, 478075, Note_on_c, 0, 53, 0
2, 478140, Note_on_c, 0, 88, 0
2, 478335, Note_on_c, 0, 91, 71
2, 478337, Note_on_c, 0, 60, 52
2, 478353, Note_on_c, 0, 79, 67
2, 478355, Note_on_c, 0, 88, 74
2, 478359, Note_on_c, 0, 50, 46
2, 478362, Note_on_c, 0, 53, 50
2, 478377, Note_on_c, 0, 57, 50
2, 478544, Note_on_c, 0, 79, 0
2, 478563, Note_on_c, 0, 57, 0
2, 478567, Note_on_c, 0, 60, 0
2, 478646, Note_on_c, 0, 53, 0
2, 478649, Note_on_c, 0, 50, 0
2, 478681, Note_on_c, 0, 88, 0
2, 478732, Note_on_c, 0, 91, 0
2, 479558, Note_on_c, 0, 50, 60
2, 479568, Note_on_c, 0, 60, 63
2, 479569, Note_on_c, 0, 93, 96
2, 479579, Note_on_c, 0, 53, 55
2, 479580, Note_on_c, 0, 57, 55
2, 479606, Note_on_c, 0, 88, 81
2, 479608, Note_on_c, 0, 81, 73
2, 479628, Note_on_c, 0, 50, 0
2, 479660, Note_on_c, 0, 57, 0
2, 479660, Note_on_c, 0, 53, 0
2, 479717, Note_on_c, 0, 60, 0
2, 479768, Note_on_c, 0, 93, 0
2, 479770, Note_on_c, 0, 81, 0
2, 479775, Note_on_c, 0, 88, 0
2, 480077, Control_c, 0, 64, 0
2, 480099, Note_on_c, 0, 91, 81
2, 480112, Note_on_c, 0, 85, 81
2, 480114, Note_on_c, 0, 79, 73
2, 480116, Note_on_c, 0, 64, 75
2, 480125, Note_on_c, 0, 59, 68
2, 480140, Note_on_c, 0, 53, 60
2, 480311, Note_on_c, 0, 85, 0
2, 480383, Note_on_c, 0, 86, 48
2, 480556, Control_c, 0, 64, 127
2, 481021, Note_on_c, 0, 86, 0
2, 481060, Note_on_c, 0, 64, 0
2, 481076, Note_on_c, 0, 53, 0
2, 481080, Note_on_c, 0, 91, 0
2, 481102, Note_on_c, 0, 59, 0
2, 481109, Note_on_c, 0, 79, 0
2, 481430, Control_c, 0, 64, 0
2, 481454, Note_on_c, 0, 90, 88
2, 481472, Note_on_c, 0, 63, 76
2, 481481, Note_on_c, 0, 59, 70
2, 481490, Note_on_c, 0, 78, 72
2, 481500, Note_on_c, 0, 85, 81
2, 481503, Note_on_c, 0, 53, 67
2, 481777, Control_c, 0, 64, 127
2, 481823, Note_on_c, 0, 53, 0
2, 481932, Note_on_c, 0, 85, 0
2, 481934, Note_on_c, 0, 90, 0
2, 481934, Note_on_c, 0, 63, 0
2, 481936, Note_on_c, 0, 78, 0
2, 481948, Note_on_c, 0, 59, 0
2, 482092, Note_on_c, 0, 63, 66
2, 482118, Note_on_c, 0, 89, 75
2, 482127, Note_on_c, 0, 59, 66
2, 482142, Note_on_c, 0, 84, 76
2, 482158, Note_on_c, 0, 77, 60
2, 482173, Note_on_c, 0, 53, 58
2, 482339, Note_on_c, 0, 89, 0
2, 482375, Note_on_c, 0, 84, 0
2, 482438, Note_on_c, 0, 63, 0
2, 482478, Note_on_c, 0, 77, 0
2, 482513, Note_on_c, 0, 53, 0
2, 482683, Note_on_c, 0, 59, 0
2, 482891, Note_on_c, 0, 86, 71
2, 482902, Note_on_c, 0, 59, 38
2, 482903, Note_on_c, 0, 63, 67
2, 482922, Note_on_c, 0, 74, 60
2, 483029, Note_on_c, 0, 59, 0
2, 483102, Note_on_c, 0, 74, 0
2, 483128, Note_on_c, 0, 63, 0
2, 483154, Note_on_c, 0, 86, 0
2, 483812, Control_c, 0, 64, 0
2, 483864, Note_on_c, 0, 91, 82
2, 483866, Note_on_c, 0, 85, 81
2, 483870, Note_on_c, 0, 62, 59
2, 483875, Note_on_c, 0, 63, 61
2, 483879, Note_on_c, 0, 79, 69
2, 483882, Note_on_c, 0, 67, 57
2, 483890, Note_on_c, 0, 58, 53
2, 484234, Control_c, 0, 64, 127
2, 484238, Note_on_c, 0, 86, 60
2, 484241, Note_on_c, 0, 85, 0
2, 484460, Note_on_c, 0, 86, 0
2, 484488, Note_on_c, 0, 91, 0
2, 484508, Note_on_c, 0, 79, 0
2, 484545, Note_on_c, 0, 67, 0
2, 484550, Note_on_c, 0, 58, 0
2, 484602, Note_on_c, 0, 63, 0
2, 484607, Note_on_c, 0, 62, 0
2, 484742, Note_on_c, 0, 89, 78
2, 484767, Note_on_c, 0, 67, 46
2, 484777, Note_on_c, 0, 58, 43
2, 484790, Note_on_c, 0, 63, 50
2, 484790, Note_on_c, 0, 77, 65
2, 484790, Note_on_c, 0, 62, 49
2, 484830, Note_on_c, 0, 84, 63
2, 485045, Note_on_c, 0, 89, 0
2, 485054, Note_on_c, 0, 84, 0
2, 485148, Note_on_c, 0, 77, 0
2, 485213, Note_on_c, 0, 58, 0
2, 485270, Note_on_c, 0, 62, 0
2, 485279, Note_on_c, 0, 67, 0
2, 485319, Note_on_c, 0, 63, 0
2, 485649, Control_c, 0, 64, 0
2, 485721, Note_on_c, 0, 86, 70
2, 485735, Note_on_c, 0, 67, 56
2, 485744, Note_on_c, 0, 74, 55
2, 485752, Note_on_c, 0, 63, 52
2, 485783, Note_on_c, 0, 62, 49
2, 485787, Note_on_c, 0, 79, 55
2, 485835, Note_on_c, 0, 58, 43
2, 485982, Control_c, 0, 64, 127
2, 486131, Note_on_c, 0, 86, 0
2, 486166, Note_on_c, 0, 79, 0
2, 486297, Note_on_c, 0, 74, 0
2, 486306, Note_on_c, 0, 67, 0
2, 486355, Note_on_c, 0, 58, 0
2, 486372, Note_on_c, 0, 62, 0
2, 486399, Note_on_c, 0, 63, 0
2, 486685, Note_on_c, 0, 82, 71
2, 486718, Note_on_c, 0, 67, 45
2, 486723, Note_on_c, 0, 70, 55
2, 486755, Note_on_c, 0, 63, 41
2, 486775, Note_on_c, 0, 58, 41
2, 486782, Note_on_c, 0, 62, 37
2, 487132, Note_on_c, 0, 58, 0
2, 487134, Note_on_c, 0, 62, 0
2, 487218, Note_on_c, 0, 67, 0
2, 487321, Note_on_c, 0, 70, 0
2, 487375, Note_on_c, 0, 82, 0
2, 487388, Note_on_c, 0, 63, 0
2, 487708, Control_c, 0, 64, 0
2, 487726, Note_on_c, 0, 82, 62
2, 487743, Note_on_c, 0, 63, 49
2, 487752, Note_on_c, 0, 67, 47
2, 487765, Note_on_c, 0, 58, 52
2, 487767, Note_on_c, 0, 62, 41
2, 487779, Note_on_c, 0, 70, 53
2, 488298, Control_c, 0, 64, 127
2, 488615, Note_on_c, 0, 62, 0
2, 488681, Note_on_c, 0, 58, 0
2, 488736, Note_on_c, 0, 67, 0
2, 488876, Note_on_c, 0, 63, 0
2, 489566, Note_on_c, 0, 58, 48
2, 489616, Note_on_c, 0, 67, 32
2, 489621, Note_on_c, 0, 62, 47
2, 489625, Note_on_c, 0, 63, 45
2, 490192, Note_on_c, 0, 62, 0
2, 490287, Note_on_c, 0, 67, 0
2, 490306, Note_on_c, 0, 63, 0
2, 490466, Note_on_c, 0, 58, 0
2, 490503, Note_on_c, 0, 70, 0
2, 490683, Note_on_c, 0, 82, 0
2, 491540, Control_c, 0, 64, 0
2, 491544, Note_on_c, 0, 60, 53
2, 491562, Note_on_c, 0, 65, 42
2, 491572, Note_on_c, 0, 61, 51
2, 491575, Note_on_c, 0, 55, 51
2, 491991, Control_c, 0, 64, 127
2, 493570, Note_on_c, 0, 65, 0
2, 494008, Note_on_c, 0, 65, 57
2, 494023, Note_on_c, 0, 81, 110
2, 494034, Note_on_c, 0, 72, 95
2, 494201, Note_on_c, 0, 65, 0
2, 494243, Note_on_c, 0, 81, 0
2, 494249, Note_on_c, 0, 72, 0
2, 494438, Note_on_c, 0, 61, 0
2, 494705, Note_on_c, 0, 77, 76
2, 494722, Note_on_c, 0, 69, 66
2, 494735, Note_on_c, 0, 65, 51
2, 494865, Note_on_c, 0, 65, 0
2, 494924, Note_on_c, 0, 77, 0
2, 495011, Note_on_c, 0, 69, 0
2, 495060, Note_on_c, 0, 60, 0
2, 495127, Note_on_c, 0, 55, 0
2, 496310, Note_on_c, 0, 73, 61
2, 496312, Note_on_c, 0, 61, 45
2, 496323, Note_on_c, 0, 67, 50
2, 496383, Control_c, 0, 64, 0
2, 496407, Note_on_c, 0, 55, 45
2, 496440, Note_on_c, 0, 69, 33
2, 496622, Note_on_c, 0, 69, 0
2, 496656, Control_c, 0, 64, 127
2, 496755, Note_on_c, 0, 67, 0
2, 496852, Note_on_c, 0, 73, 0
2, 496871, Control_c, 0, 64, 0
2, 496917, Note_on_c, 0, 76, 97
2, 496926, Note_on_c, 0, 67, 81
2, 496952, Note_on_c, 0, 64, 70
2, 496994, Note_on_c, 0, 70, 55
2, 497088, Note_on_c, 0, 70, 0
2, 497136, Control_c, 0, 64, 127
2, 497154, Note_on_c, 0, 67, 0
2, 497162, Note_on_c, 0, 76, 0
2, 497261, Note_on_c, 0, 64, 0
2, 497456, Control_c, 0, 64, 0
2, 497530, Note_on_c, 0, 79, 110
2, 497546, Note_on_c, 0, 70, 86
2, 497555, Note_on_c, 0, 61, 0
2, 497572, Note_on_c, 0, 64, 72
2, 497576, Note_on_c, 0, 73, 78
2, 497728, Control_c, 0, 64, 127
2, 497934, Note_on_c, 0, 79, 0
2, 498034, Note_on_c, 0, 70, 0
2, 498061, Note_on_c, 0, 73, 0
2, 498082, Control_c, 0, 64, 0
2, 498163, Note_on_c, 0, 64, 0
2, 498203, Note_on_c, 0, 77, 92
2, 498210, Note_on_c, 0, 63, 61
2, 498229, Note_on_c, 0, 69, 72
2, 498323, Control_c, 0, 64, 127
2, 498470, Note_on_c, 0, 77, 0
2, 498562, Note_on_c, 0, 69, 0
2, 498759, Control_c, 0, 64, 0
2, 498766, Note_on_c, 0, 63, 0
2, 498853, Note_on_c, 0, 76, 78
2, 498882, Note_on_c, 0, 65, 51
2, 498895, Note_on_c, 0, 62, 53
2, 498902, Note_on_c, 0, 69, 61
2, 498913, Note_on_c, 0, 55, 0
2, 499233, Control_c, 0, 64, 127
2, 499283, Note_on_c, 0, 65, 0
2, 499292, Note_on_c, 0, 69, 0
2, 499359, Control_c, 0, 64, 0
2, 499375, Note_on_c, 0, 76, 0
2, 499432, Control_c, 0, 64, 127
2, 499434, Note_on_c, 0, 62, 0
2, 499504, Note_on_c, 0, 65, 52
2, 499508, Note_on_c, 0, 74, 65
2, 499513, Note_on_c, 0, 61, 54
2, 499533, Note_on_c, 0, 69, 52
2, 499618, Note_on_c, 0, 69, 0
2, 499677, Note_on_c, 0, 74, 0
2, 499752, Note_on_c, 0, 65, 0
2, 499993, Note_on_c, 0, 61, 0
2, 500019, Control_c, 0, 64, 0
2, 500128, Note_on_c, 0, 72, 66
2, 500146, Note_on_c, 0, 65, 66
2, 500183, Note_on_c, 0, 60, 56
2, 500284, Control_c, 0, 64, 127
2, 500439, Note_on_c, 0, 65, 0
2, 500621, Note_on_c, 0, 72, 0
2, 500645, Control_c, 0, 64, 0
2, 500672, Note_on_c, 0, 60, 0
2, 500814, Note_on_c, 0, 65, 63
2, 500820, Note_on_c, 0, 69, 58
2, 500849, Note_on_c, 0, 62, 42
2, 500856, Note_on_c, 0, 57, 55
2, 500902, Note_on_c, 0, 69, 0
2, 500939, Control_c, 0, 64, 127
2, 501002, Note_on_c, 0, 65, 0
2, 501101, Note_on_c, 0, 62, 0
2, 501366, Note_on_c, 0, 57, 0
2, 501530, Note_on_c, 0, 60, 40
2, 501537, Note_on_c, 0, 53, 47
2, 501544, Note_on_c, 0, 65, 52
2, 501579, Note_on_c, 0, 62, 58
2, 501694, Note_on_c, 0, 53, 0
2, 502014, Control_c, 0, 64, 0
2, 502104, Note_on_c, 0, 39, 78
2, 502266, Control_c, 0, 64, 127
2, 502271, Note_on_c, 0, 60, 0
2, 502542, Note_on_c, 0, 39, 0
2, 502588, Note_on_c, 0, 65, 0
2, 502648, Note_on_c, 0, 62, 0
2, 502742, Control_c, 0, 64, 0
2, 502752, Note_on_c, 0, 50, 65
2, 502757, Note_on_c, 0, 54, 70
2, 502761, Note_on_c, 0, 38, 69
2, 502774, Note_on_c, 0, 60, 70
2, 503088, Control_c, 0, 64, 127
2, 503160, Note_on_c, 0, 54, 0
2, 503351, Note_on_c, 0, 60, 0
2, 503381, Note_on_c, 0, 38, 0
2, 503478, Note_on_c, 0, 50, 0
2, 504288, Note_on_c, 0, 87, 33
2, 504400, Note_on_c, 0, 87, 0
2, 504509, Note_on_c, 0, 82, 97
2, 504518, Control_c, 0, 64, 0
2, 504520, Note_on_c, 0, 86, 97
2, 504522, Note_on_c, 0, 89, 102
2, 504533, Note_on_c, 0, 77, 103
2, 504534, Note_on_c, 0, 65, 106
2, 504534, Note_on_c, 0, 54, 97
2, 504536, Note_on_c, 0, 58, 90
2, 504555, Note_on_c, 0, 60, 89
2, 504621, Note_on_c, 0, 88, 42
2, 504730, Note_on_c, 0, 88, 0
2, 504842, Control_c, 0, 64, 127
2, 504960, Note_on_c, 0, 54, 0
2, 504967, Note_on_c, 0, 65, 0
2, 504993, Note_on_c, 0, 89, 0
2, 504996, Note_on_c, 0, 82, 0
2, 505009, Note_on_c, 0, 77, 0
2, 505042, Note_on_c, 0, 60, 0
2, 505046, Control_c, 0, 64, 0
2, 505052, Note_on_c, 0, 86, 0
2, 505144, Note_on_c, 0, 65, 85
2, 505151, Note_on_c, 0, 89, 88
2, 505151, Note_on_c, 0, 82, 88
2, 505156, Note_on_c, 0, 54, 71
2, 505162, Note_on_c, 0, 77, 90
2, 505177, Note_on_c, 0, 60, 81
2, 505195, Note_on_c, 0, 86, 88
2, 505224, Note_on_c, 0, 88, 54
2, 505329, Control_c, 0, 64, 127
2, 505495, Note_on_c, 0, 89, 0
2, 505508, Note_on_c, 0, 86, 0
2, 505524, Note_on_c, 0, 88, 0
2, 505532, Note_on_c, 0, 77, 0
2, 505637, Note_on_c, 0, 60, 0
2, 505659, Note_on_c, 0, 65, 0
2, 505672, Note_on_c, 0, 54, 0
2, 505701, Note_on_c, 0, 58, 0
2, 505738, Note_on_c, 0, 82, 0
2, 505880, Control_c, 0, 64, 0
2, 505909, Note_on_c, 0, 87, 85
2, 505911, Note_on_c, 0, 82, 75
2, 505935, Note_on_c, 0, 65, 66
2, 505938, Note_on_c, 0, 54, 69
2, 505955, Note_on_c, 0, 75, 61
2, 505964, Note_on_c, 0, 58, 54
2, 506043, Note_on_c, 0, 60, 40
2, 506045, Control_c, 0, 64, 127
2, 506115, Note_on_c, 0, 65, 0
2, 506157, Note_on_c, 0, 60, 0
2, 506306, Note_on_c, 0, 75, 0
2, 506347, Note_on_c, 0, 87, 0
2, 506364, Note_on_c, 0, 54, 0
2, 506371, Note_on_c, 0, 82, 0
2, 506448, Note_on_c, 0, 58, 0
2, 506680, Control_c, 0, 64, 0
2, 506836, Note_on_c, 0, 62, 59
2, 506842, Note_on_c, 0, 57, 56
2, 506860, Note_on_c, 0, 86, 66
2, 506866, Note_on_c, 0, 58, 51
2, 506871, Note_on_c, 0, 74, 59
2, 506877, Note_on_c, 0, 55, 54
2, 506877, Note_on_c, 0, 81, 70
2, 507061, Control_c, 0, 64, 127
2, 507637, Note_on_c, 0, 81, 0
2, 507644, Note_on_c, 0, 57, 0
2, 507681, Note_on_c, 0, 58, 0
2, 507696, Note_on_c, 0, 86, 0
2, 507701, Note_on_c, 0, 62, 0
2, 507727, Note_on_c, 0, 55, 0
2, 507801, Note_on_c, 0, 74, 0
2, 508176, Control_c, 0, 64, 0
2, 508334, Note_on_c, 0, 72, 57
2, 508338, Note_on_c, 0, 84, 61
2, 508360, Note_on_c, 0, 79, 62
2, 508364, Note_on_c, 0, 62, 40
2, 508375, Note_on_c, 0, 57, 48
2, 508384, Control_c, 0, 64, 127
2, 508391, Note_on_c, 0, 58, 46
2, 508408, Note_on_c, 0, 55, 49
2, 508616, Note_on_c, 0, 62, 0
2, 508617, Note_on_c, 0, 79, 0
2, 508629, Note_on_c, 0, 72, 0
2, 508632, Note_on_c, 0, 58, 0
2, 508636, Note_on_c, 0, 55, 0
2, 508638, Note_on_c, 0, 84, 0
2, 508665, Note_on_c, 0, 57, 0
2, 508710, Control_c, 0, 64, 0
2, 508888, Note_on_c, 0, 84, 56
2, 508899, Note_on_c, 0, 72, 58
2, 508903, Note_on_c, 0, 62, 47
2, 508906, Note_on_c, 0, 57, 49
2, 508923, Note_on_c, 0, 79, 63
2, 508938, Note_on_c, 0, 58, 46
2, 508967, Control_c, 0, 64, 127
2, 508969, Note_on_c, 0, 55, 46
2, 509574, Note_on_c, 0, 84, 0
2, 509629, Note_on_c, 0, 72, 0
2, 509633, Note_on_c, 0, 57, 0
2, 509679, Note_on_c, 0, 82, 61
2, 509687, Note_on_c, 0, 58, 0
2, 509714, Note_on_c, 0, 55, 0
2, 509740, Note_on_c, 0, 79, 0
2, 509760, Note_on_c, 0, 62, 0
2, 510093, Note_on_c, 0, 82, 0
2, 510630, Control_c, 0, 64, 0
2, 510640, Note_on_c, 0, 82, 59
2, 510673, Note_on_c, 0, 63, 47
2, 510686, Note_on_c, 0, 59, 48
2, 510697, Note_on_c, 0, 70, 47
2, 510706, Note_on_c, 0, 53, 48
2, 510719, Note_on_c, 0, 75, 54
2, 510728, Note_on_c, 0, 79, 55
2, 511102, Control_c, 0, 64, 127
2, 511608, Note_on_c, 0, 63, 0
2, 511797, Note_on_c, 0, 79, 0
2, 511825, Note_on_c, 0, 70, 0
2, 511929, Note_on_c, 0, 75, 0
2, 512053, Note_on_c, 0, 53, 0
2, 512069, Note_on_c, 0, 59, 0
2, 512555, Note_on_c, 0, 59, 27
2, 512620, Note_on_c, 0, 63, 46
2, 512640, Note_on_c, 0, 70, 45
2, 512642, Note_on_c, 0, 75, 48
2, 513068, Note_on_c, 0, 59, 0
2, 513120, Note_on_c, 0, 70, 0
2, 513230, Note_on_c, 0, 63, 0
2, 513330, Note_on_c, 0, 75, 0
2, 513573, Note_on_c, 0, 82, 0
2, 514117, Note_on_c, 0, 82, 72
2, 514309, Note_on_c, 0, 82, 0
2, 514375, Note_on_c, 0, 81, 63
2, 514524, Control_c, 0, 64, 0
2, 514529, Note_on_c, 0, 81, 0
2, 514632, Note_on_c, 0, 63, 50
2, 514638, Note_on_c, 0, 62, 45
2, 514640, Note_on_c, 0, 82, 75
2, 514656, Note_on_c, 0, 67, 39
2, 514666, Note_on_c, 0, 60, 53
2, 515078, Control_c, 0, 64, 127
2, 515368, Note_on_c, 0, 82, 0
2, 515762, Note_on_c, 0, 67, 0
2, 515922, Note_on_c, 0, 70, 65
2, 515941, Note_on_c, 0, 62, 0
2, 516110, Note_on_c, 0, 70, 0
2, 516182, Note_on_c, 0, 69, 49
2, 516287, Note_on_c, 0, 69, 0
2, 516340, Control_c, 0, 64, 0
2, 516397, Note_on_c, 0, 70, 73
2, 516465, Note_on_c, 0, 67, 49
2, 516564, Note_on_c, 0, 70, 0
2, 516675, Control_c, 0, 64, 127
2, 517104, Note_on_c, 0, 82, 80
2, 517161, Control_c, 0, 64, 0
2, 517291, Note_on_c, 0, 82, 0
2, 517306, Control_c, 0, 64, 127
2, 517308, Note_on_c, 0, 81, 75
2, 517368, Note_on_c, 0, 67, 0
2, 517473, Note_on_c, 0, 81, 0
2, 517606, Note_on_c, 0, 82, 94
2, 518114, Note_on_c, 0, 60, 0
2, 518344, Control_c, 0, 64, 0
2, 518346, Note_on_c, 0, 58, 62
2, 518357, Note_on_c, 0, 67, 53
2, 518756, Control_c, 0, 64, 127
2, 519183, Note_on_c, 0, 82, 0
2, 519197, Note_on_c, 0, 67, 0
2, 519461, Note_on_c, 0, 63, 0
2, 519851, Note_on_c, 0, 63, 65
2, 520077, Note_on_c, 0, 63, 0
2, 520342, Note_on_c, 0, 67, 99
2, 520600, Note_on_c, 0, 67, 0
2, 520806, Note_on_c, 0, 70, 112
2, 520839, Note_on_c, 0, 63, 67
2, 521067, Note_on_c, 0, 63, 0
2, 521091, Note_on_c, 0, 70, 0
2, 521122, Note_on_c, 0, 58, 0
2, 521260, Note_on_c, 0, 72, 116
2, 521543, Note_on_c, 0, 72, 0
2, 521735, Note_on_c, 0, 74, 106
2, 522125, Note_on_c, 0, 74, 0
2, 522226, Control_c, 0, 64, 0
2, 522246, Note_on_c, 0, 75, 110
2, 522256, Note_on_c, 0, 60, 66
2, 522270, Note_on_c, 0, 63, 75
2, 522300, Note_on_c, 0, 55, 60
2, 522309, Note_on_c, 0, 57, 69
2, 522692, Note_on_c, 0, 75, 0
2, 522765, Note_on_c, 0, 74, 68
2, 523049, Note_on_c, 0, 74, 0
2, 523190, Note_on_c, 0, 75, 73
2, 523560, Note_on_c, 0, 75, 0
2, 523689, Control_c, 0, 64, 127
2, 523715, Note_on_c, 0, 74, 50
2, 523991, Control_c, 0, 64, 0
2, 524073, Note_on_c, 0, 74, 0
2, 524182, Control_c, 0, 64, 127
2, 524186, Note_on_c, 0, 65, 53
2, 524532, Note_on_c, 0, 65, 0
2, 524778, Note_on_c, 0, 65, 56
2, 524914, Note_on_c, 0, 65, 0
2, 525247, Note_on_c, 0, 57, 0
2, 525376, Note_on_c, 0, 63, 0
2, 525503, Note_on_c, 0, 67, 63
2, 525614, Note_on_c, 0, 55, 0
2, 525698, Note_on_c, 0, 60, 0
2, 526029, Note_on_c, 0, 67, 0
2, 526077, Note_on_c, 0, 60, 29
2, 526090, Control_c, 0, 64, 0
2, 526118, Note_on_c, 0, 66, 56
2, 526140, Note_on_c, 0, 54, 48
2, 526486, Control_c, 0, 64, 127
2, 526751, Note_on_c, 0, 66, 0
2, 527056, Note_on_c, 0, 54, 0
2, 527113, Note_on_c, 0, 60, 0
2, 527639, Note_on_c, 0, 89, 88
2, 527672, Note_on_c, 0, 77, 76
2, 527685, Note_on_c, 0, 54, 57
2, 527689, Note_on_c, 0, 65, 56
2, 527709, Note_on_c, 0, 60, 53
2, 527985, Note_on_c, 0, 65, 0
2, 528013, Note_on_c, 0, 77, 0
2, 528035, Note_on_c, 0, 54, 0
2, 528040, Note_on_c, 0, 89, 0
2, 528068, Note_on_c, 0, 60, 0
2, 528197, Note_on_c, 0, 54, 63
2, 528210, Note_on_c, 0, 89, 86
2, 528213, Note_on_c, 0, 65, 54
2, 528223, Note_on_c, 0, 77, 76
2, 528232, Note_on_c, 0, 60, 61
2, 528377, Note_on_c, 0, 77, 0
2, 528471, Note_on_c, 0, 89, 0
2, 528517, Note_on_c, 0, 65, 0
2, 528615, Note_on_c, 0, 54, 0
2, 528624, Note_on_c, 0, 60, 0
2, 529012, Note_on_c, 0, 96, 86
2, 529027, Note_on_c, 0, 65, 63
2, 529034, Note_on_c, 0, 54, 60
2, 529052, Note_on_c, 0, 84, 60
2, 529065, Note_on_c, 0, 60, 56
2, 529110, Note_on_c, 0, 65, 0
2, 529141, Note_on_c, 0, 60, 0
2, 529181, Note_on_c, 0, 84, 0
2, 529218, Note_on_c, 0, 96, 0
2, 529255, Note_on_c, 0, 54, 0
2, 529391, Control_c, 0, 64, 56
2, 529398, Control_c, 0, 64, 0
2, 529625, Note_on_c, 0, 53, 46
2, 529625, Note_on_c, 0, 96, 90
2, 529628, Note_on_c, 0, 58, 60
2, 529630, Note_on_c, 0, 57, 56
2, 529650, Note_on_c, 0, 62, 49
2, 529658, Note_on_c, 0, 84, 70
2, 529796, Control_c, 0, 64, 127
2, 530050, Note_on_c, 0, 96, 0
2, 530109, Note_on_c, 0, 53, 0
2, 530136, Note_on_c, 0, 62, 0
2, 530145, Note_on_c, 0, 57, 0
2, 530158, Note_on_c, 0, 84, 0
2, 530180, Note_on_c, 0, 58, 0
2, 530342, Control_c, 0, 64, 0
2, 530423, Note_on_c, 0, 58, 43
2, 530431, Note_on_c, 0, 94, 71
2, 530434, Note_on_c, 0, 62, 51
2, 530467, Note_on_c, 0, 82, 57
2, 530469, Note_on_c, 0, 53, 46
2, 530473, Control_c, 0, 64, 127
2, 530486, Note_on_c, 0, 57, 40
2, 530563, Note_on_c, 0, 82, 0
2, 530582, Note_on_c, 0, 53, 0
2, 530600, Note_on_c, 0, 57, 0
2, 530616, Note_on_c, 0, 94, 0
2, 530644, Note_on_c, 0, 62, 0
2, 530650, Note_on_c, 0, 58, 0
2, 530806, Control_c, 0, 64, 0
2, 531086, Note_on_c, 0, 94, 83
2, 531088, Control_c, 0, 64, 127
2, 531089, Note_on_c, 0, 62, 44
2, 531093, Note_on_c, 0, 58, 57
2, 531108, Note_on_c, 0, 82, 70
2, 531117, Note_on_c, 0, 53, 46
2, 531137, Note_on_c, 0, 57, 53
2, 531908, Note_on_c, 0, 53, 0
2, 531963, Note_on_c, 0, 62, 0
2, 532017, Note_on_c, 0, 57, 0
2, 532096, Note_on_c, 0, 82, 0
2, 532138, Note_on_c, 0, 58, 0
2, 532322, Note_on_c, 0, 94, 0
2, 532569, Note_on_c, 0, 58, 40
2, 532753, Note_on_c, 0, 58, 0
2, 533310, Note_on_c, 0, 58, 53
2, 533325, Note_on_c, 0, 62, 48
2, 533386, Note_on_c, 0, 57, 40
2, 533426, Note_on_c, 0, 53, 35
2, 533527, Note_on_c, 0, 53, 0
2, 533533, Note_on_c, 0, 62, 0
2, 533549, Note_on_c, 0, 57, 0
2, 533586, Note_on_c, 0, 58, 0
2, 533838, Note_on_c, 0, 91, 127
2, 533840, Note_on_c, 0, 94, 110
2, 533870, Note_on_c, 0, 62, 53
2, 533892, Note_on_c, 0, 58, 59
2, 533912, Note_on_c, 0, 53, 49
2, 533921, Note_on_c, 0, 57, 47
2, 534239, Note_on_c, 0, 62, 0
2, 534300, Note_on_c, 0, 94, 0
2, 534322, Note_on_c, 0, 89, 82
2, 534333, Note_on_c, 0, 93, 81
2, 534366, Note_on_c, 0, 91, 0
2, 534412, Note_on_c, 0, 62, 22
2, 534528, Note_on_c, 0, 89, 0
2, 534595, Note_on_c, 0, 62, 0
2, 534692, Note_on_c, 0, 93, 0
2, 534779, Note_on_c, 0, 87, 65
2, 534806, Note_on_c, 0, 91, 59
2, 534911, Note_on_c, 0, 87, 0
2, 534952, Note_on_c, 0, 91, 0
2, 534981, Note_on_c, 0, 58, 0
2, 535119, Note_on_c, 0, 53, 0
2, 535316, Note_on_c, 0, 57, 0
2, 536188, Note_on_c, 0, 91, 83
2, 536203, Note_on_c, 0, 88, 91
2, 536227, Note_on_c, 0, 62, 49
2, 536232, Note_on_c, 0, 58, 54
2, 536282, Note_on_c, 0, 57, 56
2, 536282, Note_on_c, 0, 53, 45
2, 536459, Note_on_c, 0, 88, 0
2, 536560, Note_on_c, 0, 91, 0
2, 536626, Note_on_c, 0, 58, 0
2, 536648, Note_on_c, 0, 89, 75
2, 536668, Note_on_c, 0, 93, 81
2, 536705, Note_on_c, 0, 53, 0
2, 536725, Note_on_c, 0, 62, 0
2, 536836, Note_on_c, 0, 57, 0
2, 536983, Note_on_c, 0, 89, 0
2, 536998, Note_on_c, 0, 93, 0
2, 537141, Note_on_c, 0, 94, 89
2, 537167, Note_on_c, 0, 91, 84
2, 537189, Note_on_c, 0, 58, 48
2, 537275, Note_on_c, 0, 58, 0
2, 537331, Note_on_c, 0, 91, 0
2, 537498, Note_on_c, 0, 94, 0
2, 537627, Control_c, 0, 64, 0
2, 537647, Note_on_c, 0, 90, 85
2, 537658, Note_on_c, 0, 94, 78
2, 537677, Note_on_c, 0, 54, 51
2, 537682, Note_on_c, 0, 65, 50
2, 537695, Note_on_c, 0, 58, 53
2, 537708, Note_on_c, 0, 61, 56
2, 537982, Control_c, 0, 64, 127
2, 538085, Note_on_c, 0, 94, 0
2, 538116, Note_on_c, 0, 90, 0
2, 538205, Note_on_c, 0, 65, 0
2, 538304, Note_on_c, 0, 61, 0
2, 538503, Note_on_c, 0, 58, 0
2, 539046, Note_on_c, 0, 61, 74
2, 539187, Note_on_c, 0, 61, 0
2, 539226, Control_c, 0, 64, 0
2, 539307, Note_on_c, 0, 63, 87
2, 539410, Note_on_c, 0, 63, 0
2, 539563, Note_on_c, 0, 65, 75
2, 539625, Note_on_c, 0, 65, 0
2, 539811, Note_on_c, 0, 66, 69
2, 539888, Note_on_c, 0, 66, 0
2, 540059, Note_on_c, 0, 68, 86
2, 540196, Note_on_c, 0, 68, 0
2, 540341, Note_on_c, 0, 70, 75
2, 540391, Note_on_c, 0, 61, 42
2, 540400, Note_on_c, 0, 70, 0
2, 540505, Note_on_c, 0, 61, 0
2, 540556, Note_on_c, 0, 54, 0
2, 540582, Note_on_c, 0, 72, 67
2, 540665, Note_on_c, 0, 72, 0
2, 540841, Note_on_c, 0, 73, 74
2, 540908, Note_on_c, 0, 73, 0
2, 541097, Note_on_c, 0, 75, 73
2, 541163, Note_on_c, 0, 75, 0
2, 541382, Note_on_c, 0, 77, 71
2, 541449, Note_on_c, 0, 54, 47
2, 541450, Note_on_c, 0, 77, 0
2, 541471, Note_on_c, 0, 60, 45
2, 541482, Note_on_c, 0, 64, 35
2, 541653, Note_on_c, 0, 78, 80
2, 541715, Note_on_c, 0, 78, 0
2, 542082, Note_on_c, 0, 80, 79
2, 542232, Note_on_c, 0, 64, 0
2, 542279, Note_on_c, 0, 80, 0
2, 542483, Note_on_c, 0, 81, 71
2, 542600, Note_on_c, 0, 60, 0
2, 542643, Note_on_c, 0, 81, 0
2, 542748, Note_on_c, 0, 54, 0
2, 542790, Note_on_c, 0, 82, 77
2, 542957, Note_on_c, 0, 82, 0
2, 543103, Note_on_c, 0, 83, 94
2, 543132, Note_on_c, 0, 54, 61
2, 543175, Note_on_c, 0, 60, 52
2, 543182, Note_on_c, 0, 64, 46
2, 543300, Note_on_c, 0, 83, 0
2, 543403, Note_on_c, 0, 84, 77
2, 543520, Note_on_c, 0, 64, 0
2, 543594, Note_on_c, 0, 84, 0
2, 543618, Note_on_c, 0, 85, 77
2, 543695, Note_on_c, 0, 85, 0
2, 543830, Note_on_c, 0, 86, 69
2, 543846, Control_c, 0, 64, 127
2, 543859, Note_on_c, 0, 54, 0
2, 543899, Note_on_c, 0, 86, 0
2, 544010, Note_on_c, 0, 87, 69
2, 544087, Note_on_c, 0, 87, 0
2, 544094, Note_on_c, 0, 54, 29
2, 544096, Note_on_c, 0, 64, 44
2, 544216, Note_on_c, 0, 88, 65
2, 544383, Note_on_c, 0, 88, 0
2, 544404, Note_on_c, 0, 60, 0
2, 544405, Note_on_c, 0, 89, 62
2, 544547, Note_on_c, 0, 54, 0
2, 544580, Note_on_c, 0, 89, 0
2, 544843, Note_on_c, 0, 64, 0
2, 544991, Note_on_c, 0, 94, 50
2, 545088, Note_on_c, 0, 94, 0
2, 545283, Note_on_c, 0, 98, 90
2, 545388, Control_c, 0, 64, 0
2, 545390, Note_on_c, 0, 65, 47
2, 545403, Note_on_c, 0, 62, 55
2, 545454, Note_on_c, 0, 60, 39
2, 545787, Note_on_c, 0, 96, 93
2, 545861, Note_on_c, 0, 65, 0
2, 545916, Note_on_c, 0, 98, 0
2, 546100, Note_on_c, 0, 96, 0
2, 546253, Note_on_c, 0, 93, 78
2, 546453, Note_on_c, 0, 93, 0
2, 546704, Note_on_c, 0, 89, 71
2, 547050, Note_on_c, 0, 89, 0
2, 547219, Control_c, 0, 64, 127
2, 547221, Note_on_c, 0, 86, 55
2, 547222, Note_on_c, 0, 53, 49
2, 547462, Note_on_c, 0, 86, 0
2, 547725, Note_on_c, 0, 81, 63
2, 547968, Note_on_c, 0, 53, 0
2, 547971, Note_on_c, 0, 81, 0
2, 548166, Note_on_c, 0, 62, 0
2, 548166, Note_on_c, 0, 60, 0
2, 548227, Note_on_c, 0, 76, 58
2, 549092, Note_on_c, 0, 58, 42
2, 549114, Note_on_c, 0, 65, 50
2, 549138, Control_c, 0, 64, 0
2, 549156, Note_on_c, 0, 60, 52
2, 549224, Note_on_c, 0, 55, 36
2, 550374, Control_c, 0, 64, 127
2, 550433, Control_c, 0, 64, 0
2, 550689, Note_on_c, 0, 77, 110
2, 550698, Note_on_c, 0, 76, 0
2, 550834, Control_c, 0, 64, 127
2, 551202, Control_c, 0, 64, 0
2, 551287, Note_on_c, 0, 75, 64
2, 551403, Note_on_c, 0, 77, 0
2, 551624, Control_c, 0, 64, 127
2, 551708, Note_on_c, 0, 75, 0
2, 551868, Note_on_c, 0, 75, 70
2, 552579, Note_on_c, 0, 75, 0
2, 552608, Note_on_c, 0, 55, 0
2, 552645, Note_on_c, 0, 86, 83
2, 552684, Note_on_c, 0, 65, 0
2, 552706, Note_on_c, 0, 58, 0
2, 552709, Note_on_c, 0, 60, 0
2, 553153, Control_c, 0, 64, 0
2, 553158, Note_on_c, 0, 86, 0
2, 553199, Note_on_c, 0, 74, 60
2, 553629, Note_on_c, 0, 74, 0
2, 553791, Note_on_c, 0, 65, 44
2, 553793, Note_on_c, 0, 74, 63
2, 553799, Note_on_c, 0, 54, 44
2, 553874, Note_on_c, 0, 58, 42
2, 553885, Note_on_c, 0, 60, 39
2, 554516, Note_on_c, 0, 86, 67
2, 554533, Control_c, 0, 64, 127
2, 554768, Note_on_c, 0, 74, 0
2, 554987, Note_on_c, 0, 86, 0
2, 555076, Note_on_c, 0, 74, 65
2, 555221, Note_on_c, 0, 65, 0
2, 555247, Note_on_c, 0, 58, 0
2, 555272, Note_on_c, 0, 60, 0
2, 555324, Note_on_c, 0, 54, 0
2, 555445, Note_on_c, 0, 74, 0
2, 555639, Note_on_c, 0, 65, 46
2, 555661, Note_on_c, 0, 54, 33
2, 555663, Note_on_c, 0, 74, 60
2, 555683, Note_on_c, 0, 58, 40
2, 555740, Note_on_c, 0, 60, 34
2, 555810, Note_on_c, 0, 65, 0
2, 555841, Note_on_c, 0, 74, 0
2, 555852, Note_on_c, 0, 60, 0
2, 555893, Note_on_c, 0, 58, 0
2, 556025, Note_on_c, 0, 54, 0
2, 556250, Note_on_c, 0, 86, 62
2, 556428, Note_on_c, 0, 86, 0
2, 556743, Control_c, 0, 64, 0
2, 556765, Note_on_c, 0, 63, 56
2, 556805, Note_on_c, 0, 87, 88
2, 556844, Note_on_c, 0, 75, 58
2, 556844, Note_on_c, 0, 53, 42
2, 556859, Note_on_c, 0, 59, 48
2, 556886, Note_on_c, 0, 58, 38
2, 557236, Control_c, 0, 64, 127
2, 557260, Note_on_c, 0, 87, 0
2, 557381, Note_on_c, 0, 75, 0
2, 557466, Note_on_c, 0, 87, 69
2, 557512, Note_on_c, 0, 53, 0
2, 557563, Note_on_c, 0, 75, 53
2, 557650, Note_on_c, 0, 63, 0
2, 557861, Note_on_c, 0, 87, 0
2, 557896, Note_on_c, 0, 59, 0
2, 557898, Note_on_c, 0, 75, 0
2, 557909, Note_on_c, 0, 58, 0
2, 558126, Control_c, 0, 64, 0
2, 558204, Note_on_c, 0, 63, 69
2, 558220, Note_on_c, 0, 86, 86
2, 558242, Note_on_c, 0, 58, 55
2, 558253, Note_on_c, 0, 53, 50
2, 558255, Note_on_c, 0, 74, 75
2, 558264, Note_on_c, 0, 59, 63
2, 558388, Control_c, 0, 64, 127
2, 558557, Note_on_c, 0, 53, 0
2, 558603, Note_on_c, 0, 63, 0
2, 558658, Note_on_c, 0, 59, 0
2, 558665, Note_on_c, 0, 86, 0
2, 558682, Note_on_c, 0, 74, 0
2, 558686, Note_on_c, 0, 58, 0
2, 558824, Note_on_c, 0, 86, 85
2, 558849, Note_on_c, 0, 74, 76
2, 558872, Note_on_c, 0, 63, 59
2, 558873, Note_on_c, 0, 53, 66
2, 558875, Note_on_c, 0, 59, 55
2, 558884, Note_on_c, 0, 58, 52
2, 559092, Note_on_c, 0, 86, 0
2, 559096, Note_on_c, 0, 63, 0
2, 559151, Note_on_c, 0, 53, 0
2, 559153, Note_on_c, 0, 74, 0
2, 559260, Note_on_c, 0, 59, 0
2, 559300, Note_on_c, 0, 58, 0
2, 559630, Control_c, 0, 64, 0
2, 559700, Note_on_c, 0, 63, 65
2, 559711, Note_on_c, 0, 83, 77
2, 559751, Note_on_c, 0, 71, 69
2, 559753, Note_on_c, 0, 59, 55
2, 559771, Note_on_c, 0, 58, 44
2, 559793, Note_on_c, 0, 53, 42
2, 559854, Note_on_c, 0, 59, 0
2, 559939, Note_on_c, 0, 53, 0
2, 559941, Note_on_c, 0, 58, 0
2, 559970, Control_c, 0, 64, 127
2, 559979, Note_on_c, 0, 83, 0
2, 560007, Note_on_c, 0, 63, 0
2, 560108, Note_on_c, 0, 71, 0
2, 560583, Control_c, 0, 64, 0
2, 560673, Note_on_c, 0, 58, 66
2, 560682, Note_on_c, 0, 82, 75
2, 560695, Note_on_c, 0, 48, 54
2, 560706, Note_on_c, 0, 70, 59
2, 560725, Note_on_c, 0, 55, 52
2, 560726, Note_on_c, 0, 75, 60
2, 560759, Note_on_c, 0, 79, 59
2, 560980, Control_c, 0, 64, 127
2, 561326, Note_on_c, 0, 79, 0
2, 561416, Note_on_c, 0, 82, 0
2, 561505, Note_on_c, 0, 58, 0
2, 561538, Note_on_c, 0, 75, 0
2, 561580, Note_on_c, 0, 70, 0
2, 561930, Note_on_c, 0, 55, 0
2, 562160, Note_on_c, 0, 48, 0
2, 562552, Note_on_c, 0, 70, 96
2, 562570, Note_on_c, 0, 63, 86
2, 562587, Note_on_c, 0, 48, 70
2, 562594, Note_on_c, 0, 58, 69
2, 562599, Note_on_c, 0, 67, 78
2, 562629, Note_on_c, 0, 55, 61
2, 562949, Note_on_c, 0, 70, 0
2, 563179, Note_on_c, 0, 55, 0
2, 563194, Note_on_c, 0, 48, 0
2, 563212, Note_on_c, 0, 67, 0
2, 563256, Note_on_c, 0, 58, 0
2, 563271, Note_on_c, 0, 70, 99
2, 563485, Note_on_c, 0, 63, 0
2, 563602, Note_on_c, 0, 70, 0
2, 563875, Note_on_c, 0, 70, 78
2, 564125, Note_on_c, 0, 70, 0
2, 564430, Control_c, 0, 64, 0
2, 564463, Note_on_c, 0, 70, 69
2, 564497, Note_on_c, 0, 59, 54
2, 564500, Note_on_c, 0, 63, 55
2, 564506, Note_on_c, 0, 43, 55
2, 564524, Note_on_c, 0, 53, 48
2, 564526, Note_on_c, 0, 67, 63
2, 564879, Control_c, 0, 64, 127
2, 565275, Note_on_c, 0, 43, 0
2, 565278, Note_on_c, 0, 59, 0
2, 565442, Note_on_c, 0, 67, 0
2, 565626, Note_on_c, 0, 63, 0
2, 565696, Note_on_c, 0, 53, 0
2, 565832, Note_on_c, 0, 70, 0
2, 566471, Note_on_c, 0, 63, 72
2, 566513, Note_on_c, 0, 51, 66
2, 566916, Note_on_c, 0, 63, 0
2, 567006, Note_on_c, 0, 63, 54
2, 567010, Note_on_c, 0, 51, 0
2, 567025, Note_on_c, 0, 67, 86
2, 567032, Note_on_c, 0, 55, 72
2, 567203, Note_on_c, 0, 63, 0
2, 567350, Note_on_c, 0, 55, 0
2, 567367, Note_on_c, 0, 67, 0
2, 567477, Note_on_c, 0, 58, 62
2, 567481, Note_on_c, 0, 70, 92
2, 567720, Note_on_c, 0, 58, 0
2, 567779, Note_on_c, 0, 70, 0
2, 568476, Note_on_c, 0, 64, 92
2, 568480, Control_c, 0, 64, 0
2, 568480, Note_on_c, 0, 72, 87
2, 568489, Note_on_c, 0, 67, 84
2, 568493, Note_on_c, 0, 70, 74
2, 568532, Note_on_c, 0, 60, 82
2, 569032, Control_c, 0, 64, 127
2, 569393, Note_on_c, 0, 60, 0
2, 569424, Note_on_c, 0, 67, 0
2, 569556, Note_on_c, 0, 72, 0
2, 569683, Note_on_c, 0, 70, 0
2, 569700, Note_on_c, 0, 64, 0
2, 570405, Control_c, 0, 64, 0
2, 570434, Note_on_c, 0, 64, 67
2, 570441, Note_on_c, 0, 68, 69
2, 570443, Note_on_c, 0, 74, 70
2, 570445, Note_on_c, 0, 58, 59
2, 570458, Note_on_c, 0, 48, 59
2, 570844, Control_c, 0, 64, 127
2, 571100, Note_on_c, 0, 48, 0
2, 571194, Note_on_c, 0, 58, 0
2, 571273, Note_on_c, 0, 74, 0
2, 571376, Note_on_c, 0, 68, 0
2, 571439, Note_on_c, 0, 64, 0
2, 572223, Control_c, 0, 64, 0
2, 572258, Note_on_c, 0, 70, 61
2, 572300, Note_on_c, 0, 58, 53
2, 572309, Note_on_c, 0, 63, 54
2, 572322, Note_on_c, 0, 53, 44
2, 572327, Note_on_c, 0, 67, 53
2, 572651, Control_c, 0, 64, 127
2, 573268, Note_on_c, 0, 67, 0
2, 573334, Note_on_c, 0, 58, 0
2, 573455, Note_on_c, 0, 63, 0
2, 573608, Note_on_c, 0, 70, 0
2, 573862, Note_on_c, 0, 53, 0
2, 574101, Control_c, 0, 64, 0
2, 574120, Note_on_c, 0, 63, 63
2, 574147, Note_on_c, 0, 51, 56
2, 574155, Note_on_c, 0, 72, 59
2, 574169, Note_on_c, 0, 66, 57
2, 574221, Note_on_c, 0, 57, 41
2, 574285, Note_on_c, 0, 69, 34
2, 574528, Control_c, 0, 64, 127
2, 574850, Note_on_c, 0, 57, 0
2, 574916, Note_on_c, 0, 69, 0
2, 575014, Note_on_c, 0, 63, 0
2, 575041, Note_on_c, 0, 72, 0
2, 575319, Note_on_c, 0, 66, 0
2, 575367, Note_on_c, 0, 51, 0
2, 575963, Control_c, 0, 64, 0
2, 576055, Note_on_c, 0, 70, 51
2, 576081, Note_on_c, 0, 62, 44
2, 576092, Note_on_c, 0, 50, 46
2, 576103, Note_on_c, 0, 65, 47
2, 576134, Note_on_c, 0, 55, 44
2, 576346, Control_c, 0, 64, 127
2, 576431, Note_on_c, 0, 62, 0
2, 576447, Note_on_c, 0, 65, 0
2, 576651, Note_on_c, 0, 70, 0
2, 576904, Note_on_c, 0, 50, 0
2, 576944, Note_on_c, 0, 55, 0
2, 577524, Note_on_c, 0, 84, 118
2, 577906, Note_on_c, 0, 84, 0
2, 578030, Note_on_c, 0, 81, 92
2, 578490, Note_on_c, 0, 81, 0
2, 578622, Note_on_c, 0, 77, 66
2, 578915, Note_on_c, 0, 77, 0
2, 579435, Note_on_c, 0, 77, 67
2, 579698, Note_on_c, 0, 77, 0
2, 579997, Note_on_c, 0, 77, 67
2, 580444, Note_on_c, 0, 77, 0
2, 580744, Note_on_c, 0, 77, 67
2, 580780, Note_on_c, 0, 62, 42
2, 580788, Note_on_c, 0, 58, 44
2, 580812, Note_on_c, 0, 57, 46
2, 580814, Control_c, 0, 64, 0
2, 581156, Control_c, 0, 64, 127
2, 581807, Note_on_c, 0, 58, 0
2, 581838, Note_on_c, 0, 62, 0
2, 581969, Note_on_c, 0, 57, 0
2, 582335, Note_on_c, 0, 62, 45
2, 582355, Note_on_c, 0, 58, 46
2, 582355, Note_on_c, 0, 57, 37
2, 582519, Note_on_c, 0, 58, 0
2, 582528, Note_on_c, 0, 62, 0
2, 582622, Note_on_c, 0, 57, 0
2, 582878, Note_on_c, 0, 77, 0
2, 583250, Note_on_c, 0, 84, 127
2, 583816, Note_on_c, 0, 84, 0
2, 583864, Note_on_c, 0, 82, 104
2, 583864, Note_on_c, 0, 63, 59
2, 583892, Control_c, 0, 64, 0
2, 583892, Note_on_c, 0, 52, 61
2, 583901, Note_on_c, 0, 58, 61
2, 584527, Note_on_c, 0, 77, 70
2, 584713, Note_on_c, 0, 77, 0
2, 584931, Control_c, 0, 64, 127
2, 585220, Note_on_c, 0, 77, 67
2, 585397, Note_on_c, 0, 77, 0
2, 585857, Note_on_c, 0, 77, 58
2, 586126, Note_on_c, 0, 77, 0
2, 586438, Note_on_c, 0, 52, 0
2, 586512, Note_on_c, 0, 63, 0
2, 586597, Note_on_c, 0, 77, 66
2, 586779, Note_on_c, 0, 58, 0
2, 587193, Note_on_c, 0, 77, 0
2, 587414, Note_on_c, 0, 82, 0
2, 587537, Control_c, 0, 64, 0
2, 587550, Note_on_c, 0, 51, 50
2, 587557, Note_on_c, 0, 77, 60
2, 587579, Note_on_c, 0, 62, 35
2, 587581, Note_on_c, 0, 57, 45
2, 588107, Note_on_c, 0, 89, 83
2, 588271, Note_on_c, 0, 89, 0
2, 588606, Note_on_c, 0, 89, 77
2, 588777, Note_on_c, 0, 89, 0
2, 589458, Note_on_c, 0, 89, 58
2, 590021, Note_on_c, 0, 89, 0
2, 590415, Note_on_c, 0, 77, 0
2, 590426, Note_on_c, 0, 89, 49
2, 590562, Note_on_c, 0, 89, 0
2, 590700, Note_on_c, 0, 57, 0
2, 590722, Note_on_c, 0, 62, 0
2, 590792, Note_on_c, 0, 51, 0
2, 591389, Note_on_c, 0, 65, 48
2, 591392, Note_on_c, 0, 60, 44
2, 591429, Note_on_c, 0, 62, 48
2, 592870, Note_on_c, 0, 77, 84
2, 592930, Note_on_c, 0, 77, 0
2, 593354, Note_on_c, 0, 77, 127
2, 593486, Note_on_c, 0, 77, 0
2, 593794, Note_on_c, 0, 79, 93
2, 593918, Note_on_c, 0, 79, 0
2, 594014, Note_on_c, 0, 62, 0
2, 594117, Note_on_c, 0, 60, 0
2, 594250, Note_on_c, 0, 77, 91
2, 594280, Note_on_c, 0, 65, 0
2, 594379, Note_on_c, 0, 77, 0
2, 594734, Note_on_c, 0, 75, 75
2, 594808, Control_c, 0, 64, 127
2, 594970, Note_on_c, 0, 75, 0
2, 595188, Control_c, 0, 64, 0
2, 595215, Note_on_c, 0, 74, 72
2, 595229, Note_on_c, 0, 58, 29
2, 595231, Note_on_c, 0, 60, 48
2, 595248, Note_on_c, 0, 65, 45
2, 595283, Note_on_c, 0, 55, 46
2, 595679, Note_on_c, 0, 74, 0
2, 595701, Note_on_c, 0, 75, 63
2, 595922, Note_on_c, 0, 75, 0
2, 596741, Note_on_c, 0, 74, 99
2, 597179, Control_c, 0, 64, 127
2, 597262, Note_on_c, 0, 74, 0
2, 597270, Note_on_c, 0, 70, 85
2, 597410, Note_on_c, 0, 65, 0
2, 597806, Note_on_c, 0, 60, 0
2, 597895, Note_on_c, 0, 58, 0
2, 597932, Note_on_c, 0, 55, 0
2, 598492, Note_on_c, 0, 67, 53
2, 598494, Note_on_c, 0, 70, 0
2, 598832, Note_on_c, 0, 67, 0
2, 598999, Note_on_c, 0, 53, 44
2, 599004, Note_on_c, 0, 50, 46
2, 599006, Note_on_c, 0, 65, 58
2, 599023, Note_on_c, 0, 57, 49
2, 599036, Note_on_c, 0, 60, 37
2, 599039, Control_c, 0, 64, 0
2, 600134, Control_c, 0, 64, 127
2, 600986, Note_on_c, 0, 60, 0
2, 600991, Note_on_c, 0, 57, 0
2, 601039, Note_on_c, 0, 53, 0
2, 601074, Note_on_c, 0, 50, 0
2, 601598, Note_on_c, 0, 65, 0
2, 602829, Note_on_c, 0, 43, 55
2, 602846, Control_c, 0, 64, 0
2, 603247, Note_on_c, 0, 55, 66
2, 603511, Note_on_c, 0, 55, 0
2, 603561, Note_on_c, 0, 56, 80
2, 603863, Note_on_c, 0, 58, 81
2, 603890, Note_on_c, 0, 56, 0
2, 603916, Note_on_c, 0, 43, 0
2, 604126, Note_on_c, 0, 58, 0
2, 604145, Note_on_c, 0, 59, 68
2, 604372, Note_on_c, 0, 59, 0
2, 604455, Note_on_c, 0, 61, 85
2, 604738, Note_on_c, 0, 61, 0
2, 604786, Note_on_c, 0, 62, 68
2, 605004, Note_on_c, 0, 62, 0
2, 605102, Note_on_c, 0, 63, 78
2, 605400, Note_on_c, 0, 63, 0
2, 605432, Note_on_c, 0, 64, 81
2, 605467, Note_on_c, 0, 59, 56
2, 605516, Note_on_c, 0, 53, 58
2, 605673, Note_on_c, 0, 64, 0
2, 605761, Note_on_c, 0, 65, 81
2, 606079, Note_on_c, 0, 65, 0
2, 606106, Note_on_c, 0, 62, 48
2, 606107, Note_on_c, 0, 59, 0
2, 606246, Note_on_c, 0, 53, 0
2, 606356, Note_on_c, 0, 62, 0
2, 606403, Note_on_c, 0, 63, 83
2, 606695, Note_on_c, 0, 63, 0
2, 606767, Note_on_c, 0, 67, 59
2, 606980, Note_on_c, 0, 67, 0
2, 607030, Note_on_c, 0, 70, 94
2, 607346, Note_on_c, 0, 70, 0
2, 607354, Note_on_c, 0, 71, 109
2, 607610, Note_on_c, 0, 71, 0
2, 607681, Note_on_c, 0, 74, 99
2, 607683, Note_on_c, 0, 76, 110
2, 607723, Note_on_c, 0, 73, 64
2, 607746, Note_on_c, 0, 67, 61
2, 607751, Note_on_c, 0, 63, 61
2, 607853, Note_on_c, 0, 58, 46
2, 607918, Note_on_c, 0, 73, 0
2, 608017, Note_on_c, 0, 74, 0
2, 608031, Note_on_c, 0, 76, 0
2, 608040, Note_on_c, 0, 71, 53
2, 608293, Note_on_c, 0, 71, 0
2, 608366, Note_on_c, 0, 72, 67
2, 608714, Note_on_c, 0, 74, 89
2, 608751, Note_on_c, 0, 72, 0
2, 608923, Note_on_c, 0, 74, 0
2, 609027, Note_on_c, 0, 75, 81
2, 609159, Control_c, 0, 64, 127
2, 609205, Note_on_c, 0, 75, 0
2, 609355, Note_on_c, 0, 79, 78
2, 609488, Note_on_c, 0, 58, 0
2, 609594, Note_on_c, 0, 79, 0
2, 609687, Note_on_c, 0, 82, 86
2, 609698, Note_on_c, 0, 67, 0
2, 609818, Note_on_c, 0, 63, 0
2, 609923, Note_on_c, 0, 82, 0
2, 610023, Note_on_c, 0, 86, 116
2, 610298, Note_on_c, 0, 86, 0
2, 610368, Note_on_c, 0, 84, 91
2, 610647, Note_on_c, 0, 84, 0
2, 610720, Control_c, 0, 64, 0
2, 610733, Note_on_c, 0, 63, 52
2, 610735, Note_on_c, 0, 86, 90
2, 610745, Note_on_c, 0, 58, 49
2, 610749, Note_on_c, 0, 67, 48
2, 611974, Control_c, 0, 64, 127
2, 612449, Note_on_c, 0, 84, 60
2, 613056, Note_on_c, 0, 67, 0
2, 613130, Note_on_c, 0, 63, 0
2, 613343, Note_on_c, 0, 58, 0
2, 613412, Note_on_c, 0, 74, 60
2, 613808, Note_on_c, 0, 86, 0
2, 613885, Note_on_c, 0, 84, 0
2, 614265, Note_on_c, 0, 74, 0
2, 614401, Note_on_c, 0, 81, 62
2, 614409, Note_on_c, 0, 55, 40
2, 614411, Control_c, 0, 64, 0
2, 614453, Note_on_c, 0, 60, 40
2, 614474, Note_on_c, 0, 65, 29
2, 614496, Note_on_c, 0, 61, 42
2, 615186, Control_c, 0, 64, 127
2, 616025, Note_on_c, 0, 81, 0
2, 616220, Note_on_c, 0, 61, 0
2, 616349, Note_on_c, 0, 65, 0
2, 616396, Note_on_c, 0, 55, 0
2, 616435, Note_on_c, 0, 60, 0
2, 616810, Note_on_c, 0, 93, 118
2, 616814, Note_on_c, 0, 84, 106
2, 617021, Note_on_c, 0, 93, 0
2, 617023, Note_on_c, 0, 84, 0
2, 617304, Note_on_c, 0, 89, 91
2, 617308, Note_on_c, 0, 81, 89
2, 617627, Note_on_c, 0, 89, 0
2, 617711, Note_on_c, 0, 81, 0
2, 618234, Note_on_c, 0, 77, 64
2, 618246, Control_c, 0, 64, 0
2, 618248, Note_on_c, 0, 84, 62
2, 618267, Note_on_c, 0, 60, 47
2, 618290, Note_on_c, 0, 55, 40
2, 618299, Note_on_c, 0, 65, 27
2, 618309, Note_on_c, 0, 61, 36
2, 618577, Control_c, 0, 64, 127
2, 618825, Note_on_c, 0, 84, 0
2, 619133, Note_on_c, 0, 82, 42
2, 619207, Note_on_c, 0, 77, 0
2, 619217, Note_on_c, 0, 82, 0
2, 619381, Note_on_c, 0, 61, 0
2, 619424, Note_on_c, 0, 60, 0
2, 619501, Note_on_c, 0, 65, 0
2, 619573, Note_on_c, 0, 55, 0
2, 619672, Note_on_c, 0, 81, 96
2, 619920, Note_on_c, 0, 81, 0
2, 620082, Control_c, 0, 64, 104
2, 620089, Control_c, 0, 64, 0
2, 620133, Note_on_c, 0, 81, 77
2, 620171, Note_on_c, 0, 73, 74
2, 620178, Note_on_c, 0, 55, 51
2, 620201, Note_on_c, 0, 64, 43
2, 620205, Note_on_c, 0, 61, 48
2, 620485, Note_on_c, 0, 81, 0
2, 620529, Note_on_c, 0, 73, 0
2, 620654, Note_on_c, 0, 72, 66
2, 621050, Note_on_c, 0, 72, 0
2, 621102, Note_on_c, 0, 70, 53
2, 621118, Note_on_c, 0, 61, 0
2, 621131, Note_on_c, 0, 64, 0
2, 621177, Note_on_c, 0, 55, 0
2, 621574, Note_on_c, 0, 70, 0
2, 621720, Note_on_c, 0, 69, 72
2, 621884, Note_on_c, 0, 53, 38
2, 621944, Note_on_c, 0, 50, 34
2, 621993, Note_on_c, 0, 60, 34
2, 622002, Note_on_c, 0, 57, 37
2, 622034, Note_on_c, 0, 69, 0
2, 622188, Note_on_c, 0, 67, 45
2, 622671, Note_on_c, 0, 67, 0
2, 622984, Note_on_c, 0, 67, 60
2, 623401, Note_on_c, 0, 67, 0
2, 623957, Note_on_c, 0, 67, 56
2, 624359, Note_on_c, 0, 67, 0
2, 624452, Note_on_c, 0, 69, 74
2, 624936, Note_on_c, 0, 65, 61
2, 625533, Note_on_c, 0, 69, 0
2, 625661, Note_on_c, 0, 65, 0
2, 625863, Note_on_c, 0, 53, 0
2, 625914, Note_on_c, 0, 65, 58
2, 626018, Note_on_c, 0, 57, 0
2, 626296, Note_on_c, 0, 50, 0
2, 626305, Note_on_c, 0, 60, 0
2, 626486, Note_on_c, 0, 66, 88
2, 626493, Note_on_c, 0, 65, 0
2, 626937, Note_on_c, 0, 60, 49
2, 626944, Note_on_c, 0, 66, 0
2, 626948, Note_on_c, 0, 50, 49
2, 626979, Note_on_c, 0, 54, 52
2, 626981, Note_on_c, 0, 65, 61
2, 627432, Note_on_c, 0, 63, 62
2, 627602, Note_on_c, 0, 65, 0
2, 627854, Note_on_c, 0, 63, 0
2, 627924, Note_on_c, 0, 62, 63
2, 628377, Control_c, 0, 64, 127
2, 628403, Note_on_c, 0, 60, 0
2, 628727, Note_on_c, 0, 54, 0
2, 628769, Note_on_c, 0, 50, 0
2, 629218, Note_on_c, 0, 62, 0
2, 629253, Note_on_c, 0, 60, 64
2, 629521, Note_on_c, 0, 60, 0
2, 629588, Control_c, 0, 64, 0
2, 629721, Note_on_c, 0, 58, 60
2, 629881, Note_on_c, 0, 58, 0
2, 629887, Note_on_c, 0, 60, 75
2, 630093, Note_on_c, 0, 58, 56
2, 630135, Note_on_c, 0, 60, 0
2, 630336, Note_on_c, 0, 58, 0
2, 630341, Note_on_c, 0, 57, 66
2, 630520, Note_on_c, 0, 43, 42
2, 630559, Note_on_c, 0, 57, 0
2, 630614, Note_on_c, 0, 43, 0
2, 630635, Note_on_c, 0, 58, 66
2, 631147, Note_on_c, 0, 58, 0
2, 631209, Note_on_c, 0, 62, 85
2, 632226, Note_on_c, 0, 67, 76
2, 632286, Note_on_c, 0, 62, 0
2, 633039, Note_on_c, 0, 67, 0
2, 633065, Control_c, 0, 64, 127
2, 633101, Note_on_c, 0, 69, 60
2, 633175, Note_on_c, 0, 69, 0
2, 635008, Note_on_c, 0, 62, 77
2, 635015, Note_on_c, 0, 71, 84
2, 635028, Note_on_c, 0, 67, 79
2, 635044, Note_on_c, 0, 53, 64
2, 635049, Note_on_c, 0, 59, 58
2, 635058, Control_c, 0, 64, 0
2, 635274, Note_on_c, 0, 62, 0
2, 635355, Control_c, 0, 64, 127
2, 635378, Note_on_c, 0, 67, 0
2, 635452, Note_on_c, 0, 59, 0
2, 635473, Note_on_c, 0, 53, 0
2, 635478, Note_on_c, 0, 71, 0
2, 636041, Note_on_c, 0, 73, 94
2, 636054, Note_on_c, 0, 69, 88
2, 636056, Note_on_c, 0, 64, 85
2, 636070, Control_c, 0, 64, 0
2, 636089, Note_on_c, 0, 53, 66
2, 636096, Note_on_c, 0, 59, 65
2, 636385, Note_on_c, 0, 64, 0
2, 636401, Control_c, 0, 64, 127
2, 636478, Note_on_c, 0, 59, 0
2, 636481, Note_on_c, 0, 53, 0
2, 636489, Note_on_c, 0, 69, 0
2, 636594, Note_on_c, 0, 73, 0
2, 636703, Note_on_c, 0, 59, 63
2, 636717, Note_on_c, 0, 76, 97
2, 636795, Note_on_c, 0, 59, 0
2, 636944, Note_on_c, 0, 76, 0
2, 637309, Control_c, 0, 64, 0
2, 637353, Note_on_c, 0, 62, 47
2, 637356, Note_on_c, 0, 70, 61
2, 637365, Note_on_c, 0, 63, 59
2, 637370, Note_on_c, 0, 77, 83
2, 637374, Note_on_c, 0, 67, 67
2, 637386, Note_on_c, 0, 74, 69
2, 637814, Control_c, 0, 64, 127
2, 637828, Note_on_c, 0, 74, 0
2, 637875, Note_on_c, 0, 77, 0
2, 638039, Note_on_c, 0, 67, 0
2, 638051, Note_on_c, 0, 75, 73
2, 638087, Note_on_c, 0, 62, 0
2, 638088, Note_on_c, 0, 63, 0
2, 638152, Note_on_c, 0, 70, 0
2, 638162, Note_on_c, 0, 75, 0
2, 638634, Note_on_c, 0, 63, 64
2, 638662, Note_on_c, 0, 67, 58
2, 639100, Note_on_c, 0, 63, 0
2, 639185, Note_on_c, 0, 67, 0
2, 639243, Control_c, 0, 64, 0
2, 639294, Note_on_c, 0, 74, 69
2, 639297, Note_on_c, 0, 67, 45
2, 639308, Note_on_c, 0, 63, 45
2, 639319, Note_on_c, 0, 62, 60
2, 639820, Control_c, 0, 64, 127
2, 639996, Note_on_c, 0, 74, 0
2, 640038, Note_on_c, 0, 72, 61
2, 640260, Note_on_c, 0, 67, 0
2, 640470, Note_on_c, 0, 63, 0
2, 640866, Note_on_c, 0, 63, 48
2, 640876, Note_on_c, 0, 67, 50
2, 641802, Note_on_c, 0, 63, 0
2, 641955, Note_on_c, 0, 67, 0
2, 642011, Note_on_c, 0, 72, 0
2, 643221, Note_on_c, 0, 62, 0
2, 645030, Control_c, 0, 64, 0
2, 645086, Note_on_c, 0, 54, 48
2, 645111, Note_on_c, 0, 58, 48
2, 645121, Note_on_c, 0, 65, 37
2, 645128, Note_on_c, 0, 60, 51
2, 645655, Note_on_c, 0, 84, 106
2, 646012, Note_on_c, 0, 84, 0
2, 646061, Note_on_c, 0, 85, 74
2, 646441, Note_on_c, 0, 85, 0
2, 646554, Note_on_c, 0, 84, 69
2, 646681, Note_on_c, 0, 84, 0
2, 647019, Note_on_c, 0, 82, 58
2, 647175, Note_on_c, 0, 82, 0
2, 647527, Note_on_c, 0, 81, 58
2, 647640, Note_on_c, 0, 81, 0
2, 648214, Note_on_c, 0, 54, 0
2, 648518, Note_on_c, 0, 54, 57
2, 648812, Note_on_c, 0, 54, 0
2, 648853, Control_c, 0, 64, 127
2, 648872, Note_on_c, 0, 60, 0
2, 648923, Control_c, 0, 64, 0
2, 648963, Note_on_c, 0, 65, 0
2, 649018, Note_on_c, 0, 58, 0
2, 649055, Note_on_c, 0, 53, 66
2, 649548, Note_on_c, 0, 89, 96
2, 649752, Note_on_c, 0, 89, 0
2, 649801, Note_on_c, 0, 90, 74
2, 649919, Note_on_c, 0, 89, 78
2, 650023, Note_on_c, 0, 90, 0
2, 650130, Note_on_c, 0, 89, 0
2, 650160, Note_on_c, 0, 88, 60
2, 650275, Note_on_c, 0, 88, 0
2, 650576, Note_on_c, 0, 87, 81
2, 650630, Note_on_c, 0, 63, 49
2, 650658, Note_on_c, 0, 65, 42
2, 650667, Note_on_c, 0, 87, 0
2, 651045, Note_on_c, 0, 84, 78
2, 651144, Note_on_c, 0, 84, 0
2, 651225, Note_on_c, 0, 65, 0
2, 651369, Note_on_c, 0, 63, 0
2, 651482, Note_on_c, 0, 81, 61
2, 651515, Note_on_c, 0, 63, 32
2, 651547, Note_on_c, 0, 81, 0
2, 651572, Note_on_c, 0, 65, 40
2, 651700, Note_on_c, 0, 65, 0
2, 651785, Note_on_c, 0, 63, 0
2, 651894, Note_on_c, 0, 78, 68
2, 651978, Note_on_c, 0, 78, 0
2, 652369, Note_on_c, 0, 77, 95
2, 652563, Note_on_c, 0, 77, 0
2, 652830, Note_on_c, 0, 75, 78
2, 652853, Note_on_c, 0, 53, 0
2, 652869, Note_on_c, 0, 60, 38
2, 652885, Note_on_c, 0, 62, 39
2, 652893, Note_on_c, 0, 65, 30
2, 652955, Note_on_c, 0, 75, 0
2, 653289, Note_on_c, 0, 73, 75
2, 653557, Note_on_c, 0, 73, 0
2, 653696, Note_on_c, 0, 74, 78
2, 654118, Note_on_c, 0, 74, 0
2, 654210, Note_on_c, 0, 69, 60
2, 654222, Control_c, 0, 64, 127
2, 654488, Note_on_c, 0, 69, 0
2, 654646, Note_on_c, 0, 72, 102
2, 654669, Control_c, 0, 64, 0
2, 655035, Note_on_c, 0, 62, 0
2, 655115, Note_on_c, 0, 70, 87
2, 655160, Note_on_c, 0, 62, 40
2, 655192, Control_c, 0, 64, 127
2, 655280, Note_on_c, 0, 65, 0
2, 655331, Control_c, 0, 64, 0
2, 655525, Note_on_c, 0, 72, 0
2, 655553, Note_on_c, 0, 70, 0
2, 655599, Note_on_c, 0, 69, 67
2, 655741, Note_on_c, 0, 60, 0
2, 655799, Note_on_c, 0, 62, 0
2, 656120, Note_on_c, 0, 65, 63
2, 656276, Control_c, 0, 64, 127
2, 656355, Note_on_c, 0, 69, 0
2, 656503, Note_on_c, 0, 65, 0
2, 656635, Note_on_c, 0, 62, 42
2, 656957, Note_on_c, 0, 62, 0
2, 657503, Control_c, 0, 64, 0
2, 657586, Note_on_c, 0, 62, 60
2, 657777, Control_c, 0, 64, 127
2, 659840, Note_on_c, 0, 62, 0
2, 660458, Control_c, 0, 64, 0
2, 660467, Note_on_c, 0, 63, 37
2, 660483, Note_on_c, 0, 56, 29
2, 660509, Note_on_c, 0, 60, 48
2, 661257, Note_on_c, 0, 63, 0
2, 662047, Note_on_c, 0, 62, 87
2, 662246, Note_on_c, 0, 62, 0
2, 662357, Note_on_c, 0, 63, 85
2, 662665, Note_on_c, 0, 63, 0
2, 662674, Note_on_c, 0, 62, 67
2, 662771, Note_on_c, 0, 62, 0
2, 662910, Note_on_c, 0, 63, 85
2, 663163, Note_on_c, 0, 63, 0
2, 663226, Note_on_c, 0, 65, 71
2, 663411, Note_on_c, 0, 60, 0
2, 663452, Note_on_c, 0, 65, 0
2, 663534, Note_on_c, 0, 56, 0
2, 663622, Note_on_c, 0, 63, 62
2, 663823, Note_on_c, 0, 63, 0
2, 663922, Note_on_c, 0, 65, 81
2, 664205, Note_on_c, 0, 65, 0
2, 664279, Note_on_c, 0, 66, 76
2, 664312, Note_on_c, 0, 56, 51
2, 664353, Note_on_c, 0, 62, 39
2, 664490, Note_on_c, 0, 62, 0
2, 664573, Note_on_c, 0, 66, 0
2, 664664, Note_on_c, 0, 62, 68
2, 664837, Note_on_c, 0, 62, 0
2, 664964, Note_on_c, 0, 66, 81
2, 665300, Note_on_c, 0, 70, 85
2, 665370, Note_on_c, 0, 66, 0
2, 665467, Note_on_c, 0, 70, 0
2, 665585, Note_on_c, 0, 74, 97
2, 665733, Note_on_c, 0, 62, 21
2, 665773, Note_on_c, 0, 74, 0
2, 665916, Note_on_c, 0, 56, 0
2, 665919, Note_on_c, 0, 78, 99
2, 666014, Note_on_c, 0, 66, 59
2, 666028, Note_on_c, 0, 56, 49
2, 666101, Control_c, 0, 64, 127
2, 666250, Note_on_c, 0, 82, 84
2, 666294, Note_on_c, 0, 78, 0
2, 666365, Note_on_c, 0, 66, 0
2, 666417, Note_on_c, 0, 82, 0
2, 666607, Note_on_c, 0, 86, 58
2, 666629, Note_on_c, 0, 88, 54
2, 666699, Note_on_c, 0, 88, 0
2, 666709, Note_on_c, 0, 56, 0
2, 666783, Note_on_c, 0, 86, 0
2, 666938, Note_on_c, 0, 90, 104
2, 666940, Note_on_c, 0, 66, 67
2, 666965, Note_on_c, 0, 56, 56
2, 667215, Note_on_c, 0, 90, 0
2, 667285, Note_on_c, 0, 94, 99
2, 667487, Note_on_c, 0, 56, 0
2, 667510, Note_on_c, 0, 66, 0
2, 667523, Note_on_c, 0, 94, 0
2, 667611, Note_on_c, 0, 96, 95
2, 667674, Note_on_c, 0, 66, 48
2, 667702, Note_on_c, 0, 56, 51
2, 667850, Note_on_c, 0, 96, 0
2, 667868, Note_on_c, 0, 66, 0
2, 667947, Note_on_c, 0, 93, 85
2, 667956, Note_on_c, 0, 56, 0
2, 668035, Note_on_c, 0, 62, 0
2, 668174, Note_on_c, 0, 93, 0
2, 668202, Note_on_c, 0, 65, 54
2, 668214, Control_c, 0, 64, 0
2, 668216, Note_on_c, 0, 62, 33
2, 668251, Note_on_c, 0, 55, 52
2, 668269, Note_on_c, 0, 60, 53
2, 668281, Note_on_c, 0, 94, 85
2, 668591, Note_on_c, 0, 94, 0
2, 668682, Note_on_c, 0, 91, 63
2, 668895, Note_on_c, 0, 91, 0
2, 669217, Note_on_c, 0, 91, 60
2, 669436, Note_on_c, 0, 91, 0
2, 669774, Note_on_c, 0, 91, 60
2, 670113, Note_on_c, 0, 91, 0
2, 670384, Note_on_c, 0, 91, 61
2, 670435, Control_c, 0, 64, 127
2, 670997, Note_on_c, 0, 98, 86
2, 671335, Note_on_c, 0, 98, 0
2, 671616, Note_on_c, 0, 98, 74
2, 672037, Note_on_c, 0, 98, 0
2, 672164, Note_on_c, 0, 91, 0
2, 672187, Note_on_c, 0, 96, 81
2, 672672, Note_on_c, 0, 96, 0
2, 672887, Note_on_c, 0, 96, 74
2, 673494, Note_on_c, 0, 91, 69
2, 673799, Note_on_c, 0, 91, 0
2, 674152, Note_on_c, 0, 91, 60
2, 674154, Note_on_c, 0, 96, 0
2, 674441, Note_on_c, 0, 65, 0
2, 674453, Note_on_c, 0, 60, 0
2, 674464, Note_on_c, 0, 62, 0
2, 674596, Note_on_c, 0, 55, 0
2, 675687, Note_on_c, 0, 91, 0
2, 675858, Note_on_c, 0, 60, 38
2, 675860, Note_on_c, 0, 63, 39
2, 675879, Control_c, 0, 64, 0
2, 675897, Note_on_c, 0, 55, 40
2, 675905, Note_on_c, 0, 57, 49
2, 676652, Control_c, 0, 64, 127
2, 678243, Note_on_c, 0, 74, 127
2, 678491, Control_c, 0, 64, 0
2, 678605, Note_on_c, 0, 74, 0
2, 678693, Note_on_c, 0, 75, 100
2, 679073, Note_on_c, 0, 55, 0
2, 679095, Note_on_c, 0, 75, 0
2, 679163, Note_on_c, 0, 77, 116
2, 679212, Note_on_c, 0, 57, 0
2, 679271, Note_on_c, 0, 63, 0
2, 679381, Note_on_c, 0, 77, 0
2, 679480, Note_on_c, 0, 60, 0
2, 679642, Note_on_c, 0, 75, 79
2, 679674, Note_on_c, 0, 54, 46
2, 679730, Note_on_c, 0, 63, 26
2, 679772, Note_on_c, 0, 54, 0
2, 679797, Note_on_c, 0, 75, 0
2, 679828, Note_on_c, 0, 63, 0
2, 680144, Note_on_c, 0, 74, 75
2, 680272, Note_on_c, 0, 74, 0
2, 680594, Note_on_c, 0, 72, 58
2, 680717, Note_on_c, 0, 72, 0
2, 681085, Note_on_c, 0, 70, 77
2, 681113, Note_on_c, 0, 54, 56
2, 681141, Note_on_c, 0, 60, 49
2, 681170, Note_on_c, 0, 64, 41
2, 681509, Note_on_c, 0, 70, 0
2, 681650, Note_on_c, 0, 69, 51
2, 682044, Note_on_c, 0, 69, 0
2, 682095, Note_on_c, 0, 72, 94
2, 682518, Note_on_c, 0, 60, 0
2, 682528, Note_on_c, 0, 72, 0
2, 682535, Note_on_c, 0, 64, 0
2, 682579, Note_on_c, 0, 69, 52
2, 682796, Note_on_c, 0, 54, 0
2, 682851, Note_on_c, 0, 69, 0
2, 682928, Note_on_c, 0, 70, 81
2, 683224, Note_on_c, 0, 70, 0
2, 683292, Note_on_c, 0, 66, 67
2, 683356, Note_on_c, 0, 57, 34
2, 683368, Note_on_c, 0, 55, 48
2, 683391, Note_on_c, 0, 58, 45
2, 683468, Note_on_c, 0, 62, 19
2, 683606, Note_on_c, 0, 66, 0
2, 683702, Note_on_c, 0, 69, 57
2, 683993, Note_on_c, 0, 69, 0
2, 684058, Note_on_c, 0, 66, 65
2, 684313, Note_on_c, 0, 66, 0
2, 684433, Note_on_c, 0, 67, 47
2, 684442, Note_on_c, 0, 62, 0
2, 684661, Note_on_c, 0, 67, 0
2, 684739, Note_on_c, 0, 62, 40
2, 685026, Note_on_c, 0, 62, 0
2, 685189, Note_on_c, 0, 62, 55
2, 685415, Note_on_c, 0, 62, 0
2, 685670, Note_on_c, 0, 62, 56
2, 685897, Note_on_c, 0, 62, 0
2, 686080, Note_on_c, 0, 62, 56
2, 686249, Note_on_c, 0, 62, 0
2, 686459, Note_on_c, 0, 62, 60
2, 686476, Note_on_c, 0, 57, 0
2, 686506, Note_on_c, 0, 55, 0
2, 686603, Note_on_c, 0, 58, 0
2, 686641, Note_on_c, 0, 62, 0
2, 686819, Note_on_c, 0, 62, 63
2, 686951, Note_on_c, 0, 62, 0
2, 687099, Control_c, 0, 64, 127
2, 687173, Note_on_c, 0, 62, 47
2, 687294, Note_on_c, 0, 62, 0
2, 687442, Control_c, 0, 64, 0
2, 687573, Note_on_c, 0, 62, 57
2, 687602, Note_on_c, 0, 54, 36
2, 687668, Note_on_c, 0, 60, 37
2, 688062, Note_on_c, 0, 62, 0
2, 688240, Note_on_c, 0, 62, 51
2, 688312, Control_c, 0, 64, 127
2, 689273, Note_on_c, 0, 62, 0
2, 689273, Note_on_c, 0, 65, 69
2, 689419, Note_on_c, 0, 54, 0
2, 689579, Note_on_c, 0, 60, 0
2, 689736, Note_on_c, 0, 66, 103
2, 689801, Note_on_c, 0, 60, 51
2, 689808, Note_on_c, 0, 54, 65
2, 689816, Note_on_c, 0, 65, 0
2, 690049, Note_on_c, 0, 66, 0
2, 690232, Note_on_c, 0, 72, 103
2, 690265, Note_on_c, 0, 60, 0
2, 690498, Note_on_c, 0, 72, 0
2, 690557, Note_on_c, 0, 54, 0
2, 690693, Note_on_c, 0, 77, 127
2, 691059, Note_on_c, 0, 77, 0
2, 691091, Control_c, 0, 64, 0
2, 691131, Note_on_c, 0, 82, 114
2, 691165, Note_on_c, 0, 58, 57
2, 691172, Note_on_c, 0, 62, 48
2, 691175, Note_on_c, 0, 57, 52
2, 691189, Note_on_c, 0, 55, 60
2, 691499, Note_on_c, 0, 80, 27
2, 691576, Note_on_c, 0, 80, 0
2, 691603, Note_on_c, 0, 82, 0
2, 691647, Note_on_c, 0, 84, 107
2, 692140, Note_on_c, 0, 81, 72
2, 692148, Note_on_c, 0, 84, 0
2, 692560, Note_on_c, 0, 81, 0
2, 692636, Note_on_c, 0, 82, 79
2, 693166, Note_on_c, 0, 74, 58
2, 693356, Control_c, 0, 64, 127
2, 693625, Note_on_c, 0, 74, 0
2, 693880, Note_on_c, 0, 74, 55
2, 693977, Note_on_c, 0, 58, 0
2, 694040, Note_on_c, 0, 57, 0
2, 694081, Note_on_c, 0, 62, 0
2, 694268, Note_on_c, 0, 55, 0
2, 695072, Note_on_c, 0, 74, 0
2, 695100, Control_c, 0, 64, 0
2, 695170, Note_on_c, 0, 62, 34
2, 695204, Note_on_c, 0, 58, 41
2, 695250, Note_on_c, 0, 52, 40
2, 695887, Control_c, 0, 64, 127
2, 695952, Note_on_c, 0, 82, 0
2, 697096, Note_on_c, 0, 52, 0
2, 697129, Note_on_c, 0, 58, 0
2, 697304, Note_on_c, 0, 62, 0
2, 698777, Control_c, 0, 64, 0
2, 698807, Note_on_c, 0, 75, 85
2, 698817, Note_on_c, 0, 81, 85
2, 698845, Note_on_c, 0, 58, 43
2, 698863, Note_on_c, 0, 63, 38
2, 698928, Note_on_c, 0, 67, 25
2, 698930, Note_on_c, 0, 62, 39
2, 699196, Note_on_c, 0, 81, 0
2, 699342, Note_on_c, 0, 74, 65
2, 699356, Note_on_c, 0, 79, 56
2, 699431, Control_c, 0, 64, 127
2, 699460, Note_on_c, 0, 75, 0
2, 699692, Note_on_c, 0, 74, 0
2, 699718, Note_on_c, 0, 79, 0
2, 699803, Note_on_c, 0, 75, 63
2, 699817, Note_on_c, 0, 81, 75
2, 700171, Note_on_c, 0, 81, 0
2, 700299, Note_on_c, 0, 75, 0
2, 700311, Note_on_c, 0, 74, 53
2, 700366, Note_on_c, 0, 79, 50
2, 700618, Control_c, 0, 64, 0
2, 700637, Note_on_c, 0, 74, 0
2, 700672, Note_on_c, 0, 79, 0
2, 700730, Control_c, 0, 64, 127
2, 700802, Note_on_c, 0, 75, 65
2, 700816, Note_on_c, 0, 62, 0
2, 700827, Note_on_c, 0, 67, 0
2, 700834, Note_on_c, 0, 63, 0
2, 700846, Note_on_c, 0, 81, 60
2, 701114, Note_on_c, 0, 58, 0
2, 701373, Note_on_c, 0, 75, 0
2, 701552, Note_on_c, 0, 81, 0
2, 702712, Note_on_c, 0, 63, 43
2, 702724, Control_c, 0, 64, 0
2, 702737, Note_on_c, 0, 53, 49
2, 702745, Note_on_c, 0, 59, 56
2, 703219, Control_c, 0, 64, 127
2, 703235, Note_on_c, 0, 91, 121
2, 703321, Note_on_c, 0, 90, 52
2, 703398, Note_on_c, 0, 90, 0
2, 703490, Note_on_c, 0, 91, 0
2, 703578, Note_on_c, 0, 89, 94
2, 703824, Note_on_c, 0, 89, 0
2, 703962, Note_on_c, 0, 87, 92
2, 704259, Note_on_c, 0, 87, 0
2, 704278, Note_on_c, 0, 83, 81
2, 704446, Note_on_c, 0, 83, 0
2, 704564, Control_c, 0, 64, 0
2, 704611, Note_on_c, 0, 80, 83
2, 704877, Note_on_c, 0, 80, 0
2, 704923, Control_c, 0, 64, 127
2, 704924, Note_on_c, 0, 79, 69
2, 705139, Note_on_c, 0, 79, 0
2, 705282, Note_on_c, 0, 77, 69
2, 705403, Note_on_c, 0, 77, 0
2, 705605, Control_c, 0, 64, 0
2, 705628, Note_on_c, 0, 75, 69
2, 705808, Note_on_c, 0, 53, 0
2, 705859, Note_on_c, 0, 59, 0
2, 705878, Note_on_c, 0, 75, 0
2, 705913, Control_c, 0, 64, 127
2, 705952, Note_on_c, 0, 71, 56
2, 706010, Note_on_c, 0, 63, 0
2, 706132, Note_on_c, 0, 71, 0
2, 706265, Note_on_c, 0, 77, 86
2, 706325, Control_c, 0, 64, 0
2, 706556, Note_on_c, 0, 77, 0
2, 706580, Note_on_c, 0, 74, 65
2, 706811, Note_on_c, 0, 74, 0
2, 706908, Note_on_c, 0, 75, 69
2, 707235, Note_on_c, 0, 75, 0
2, 707283, Note_on_c, 0, 67, 53
2, 707473, Note_on_c, 0, 67, 0
2, 707689, Note_on_c, 0, 67, 58
2, 708138, Note_on_c, 0, 74, 77
2, 708140, Note_on_c, 0, 67, 0
2, 708520, Note_on_c, 0, 74, 0
2, 708610, Note_on_c, 0, 72, 62
2, 709096, Note_on_c, 0, 63, 60
2, 709132, Note_on_c, 0, 62, 50
2, 709150, Note_on_c, 0, 58, 43
2, 709483, Note_on_c, 0, 63, 0
2, 709601, Note_on_c, 0, 63, 63
2, 709643, Control_c, 0, 64, 127
2, 709757, Note_on_c, 0, 72, 0
2, 709872, Note_on_c, 0, 62, 0
2, 709986, Note_on_c, 0, 58, 0
2, 710041, Note_on_c, 0, 72, 74
2, 710048, Note_on_c, 0, 63, 0
2, 710357, Note_on_c, 0, 72, 0
2, 710463, Note_on_c, 0, 63, 59
2, 710488, Control_c, 0, 64, 0
2, 710512, Note_on_c, 0, 51, 53
2, 710512, Note_on_c, 0, 70, 71
2, 710530, Note_on_c, 0, 57, 53
2, 710820, Note_on_c, 0, 63, 0
2, 710929, Note_on_c, 0, 70, 0
2, 710963, Note_on_c, 0, 63, 53
2, 711186, Control_c, 0, 64, 127
2, 711227, Note_on_c, 0, 63, 0
2, 711327, Control_c, 0, 64, 0
2, 711461, Note_on_c, 0, 69, 59
2, 711922, Control_c, 0, 64, 127
2, 712367, Note_on_c, 0, 51, 0
2, 712383, Note_on_c, 0, 57, 0
2, 712670, Note_on_c, 0, 69, 0
2, 712850, Note_on_c, 0, 66, 107
2, 713260, Note_on_c, 0, 66, 0
2, 713323, Note_on_c, 0, 65, 109
2, 713416, Note_on_c, 0, 66, 39
2, 713420, Control_c, 0, 64, 0
2, 713497, Note_on_c, 0, 66, 0
2, 713694, Note_on_c, 0, 65, 0
2, 713807, Note_on_c, 0, 67, 85
2, 713895, Control_c, 0, 64, 127
2, 714147, Control_c, 0, 64, 56
2, 714154, Control_c, 0, 64, 0
2, 714189, Note_on_c, 0, 67, 0
2, 714303, Note_on_c, 0, 62, 46
2, 714316, Note_on_c, 0, 65, 72
2, 714332, Note_on_c, 0, 60, 51
2, 714354, Note_on_c, 0, 55, 51
2, 714664, Note_on_c, 0, 65, 0
2, 714784, Note_on_c, 0, 67, 52
2, 714872, Note_on_c, 0, 67, 0
2, 714884, Note_on_c, 0, 65, 59
2, 715029, Note_on_c, 0, 64, 52
2, 715087, Note_on_c, 0, 65, 0
2, 715229, Note_on_c, 0, 64, 0
2, 715308, Note_on_c, 0, 65, 85
2, 716097, Note_on_c, 0, 55, 0
2, 716136, Note_on_c, 0, 62, 0
2, 716204, Note_on_c, 0, 67, 73
2, 716216, Note_on_c, 0, 65, 0
2, 716232, Note_on_c, 0, 60, 0
2, 716403, Note_on_c, 0, 67, 0
2, 716424, Note_on_c, 0, 65, 63
2, 716600, Note_on_c, 0, 65, 0
2, 716614, Note_on_c, 0, 64, 53
2, 716746, Note_on_c, 0, 64, 0
2, 716831, Note_on_c, 0, 65, 91
2, 717389, Note_on_c, 0, 67, 60
2, 717394, Note_on_c, 0, 65, 0
2, 717508, Note_on_c, 0, 67, 0
2, 717558, Note_on_c, 0, 65, 53
2, 717712, Note_on_c, 0, 65, 0
2, 717734, Note_on_c, 0, 64, 55
2, 717843, Note_on_c, 0, 64, 0
2, 718008, Note_on_c, 0, 65, 75
2, 718022, Note_on_c, 0, 60, 52
2, 718045, Note_on_c, 0, 55, 48
2, 718330, Note_on_c, 0, 67, 78
2, 718365, Note_on_c, 0, 65, 0
2, 718645, Note_on_c, 0, 67, 0
2, 718712, Note_on_c, 0, 62, 61
2, 718754, Note_on_c, 0, 60, 0
2, 719010, Note_on_c, 0, 62, 0
2, 719200, Note_on_c, 0, 62, 50
2, 719617, Note_on_c, 0, 74, 81
2, 719842, Note_on_c, 0, 60, 6
2, 720048, Note_on_c, 0, 62, 0
2, 720104, Note_on_c, 0, 67, 58
2, 720206, Control_c, 0, 64, 127
2, 720307, Note_on_c, 0, 60, 0
2, 720518, Note_on_c, 0, 55, 0
2, 721405, Note_on_c, 0, 67, 0
2, 721681, Note_on_c, 0, 74, 0
2, 721963, Control_c, 0, 64, 0
2, 722037, Note_on_c, 0, 60, 31
2, 722056, Note_on_c, 0, 53, 45
2, 722060, Note_on_c, 0, 50, 44
2, 722075, Note_on_c, 0, 57, 44
2, 722633, Control_c, 0, 64, 127
2, 723843, Note_on_c, 0, 76, 116
2, 723844, Control_c, 0, 64, 0
2, 723857, Note_on_c, 0, 79, 99
2, 723994, Note_on_c, 0, 57, 0
2, 723994, Note_on_c, 0, 53, 0
2, 723999, Note_on_c, 0, 50, 0
2, 724059, Note_on_c, 0, 60, 0
2, 724210, Control_c, 0, 64, 127
2, 724233, Note_on_c, 0, 79, 0
2, 724258, Note_on_c, 0, 77, 77
2, 724268, Note_on_c, 0, 76, 0
2, 724349, Note_on_c, 0, 74, 56
2, 724583, Note_on_c, 0, 77, 0
2, 724680, Note_on_c, 0, 74, 0
2, 724751, Note_on_c, 0, 76, 77
2, 724774, Note_on_c, 0, 79, 71
2, 724950, Control_c, 0, 64, 0
2, 725103, Note_on_c, 0, 79, 0
2, 725122, Note_on_c, 0, 76, 0
2, 725233, Note_on_c, 0, 77, 58
2, 725238, Control_c, 0, 64, 127
2, 725265, Note_on_c, 0, 74, 62
2, 725520, Note_on_c, 0, 77, 0
2, 725581, Note_on_c, 0, 74, 0
2, 725683, Control_c, 0, 64, 0
2, 725736, Note_on_c, 0, 76, 69
2, 725740, Note_on_c, 0, 59, 29
2, 725750, Note_on_c, 0, 64, 43
2, 725761, Note_on_c, 0, 79, 58
2, 725789, Note_on_c, 0, 53, 42
2, 726150, Note_on_c, 0, 79, 0
2, 726192, Note_on_c, 0, 76, 0
2, 726217, Control_c, 0, 64, 127
2, 726220, Note_on_c, 0, 77, 68
2, 726243, Note_on_c, 0, 74, 56
2, 726493, Note_on_c, 0, 74, 0
2, 726704, Note_on_c, 0, 71, 61
2, 726755, Note_on_c, 0, 75, 61
2, 727311, Note_on_c, 0, 53, 0
2, 727498, Note_on_c, 0, 64, 0
2, 727540, Note_on_c, 0, 77, 0
2, 727632, Note_on_c, 0, 71, 0
2, 727637, Note_on_c, 0, 75, 0
2, 727949, Note_on_c, 0, 59, 0
2, 728162, Note_on_c, 0, 71, 85
2, 728172, Control_c, 0, 64, 0
2, 728176, Note_on_c, 0, 74, 85
2, 728186, Note_on_c, 0, 59, 33
2, 728223, Note_on_c, 0, 64, 50
2, 728538, Note_on_c, 0, 71, 0
2, 728551, Control_c, 0, 64, 127
2, 728617, Note_on_c, 0, 64, 0
2, 728633, Note_on_c, 0, 59, 0
2, 728695, Note_on_c, 0, 68, 62
2, 729531, Control_c, 0, 64, 0
2, 729545, Note_on_c, 0, 68, 0
2, 729564, Note_on_c, 0, 74, 0
2, 729582, Note_on_c, 0, 63, 44
2, 729628, Note_on_c, 0, 58, 42
2, 729633, Note_on_c, 0, 67, 54
2, 729682, Note_on_c, 0, 62, 33
2, 729974, Control_c, 0, 64, 127
2, 730154, Note_on_c, 0, 67, 0
2, 730242, Note_on_c, 0, 79, 70
2, 730817, Note_on_c, 0, 79, 0
2, 730847, Note_on_c, 0, 74, 59
2, 731377, Note_on_c, 0, 74, 0
2, 731463, Note_on_c, 0, 75, 74
2, 731488, Note_on_c, 0, 67, 43
2, 731828, Note_on_c, 0, 75, 0
2, 732122, Note_on_c, 0, 79, 67
2, 732183, Note_on_c, 0, 58, 0
2, 732335, Note_on_c, 0, 62, 0
2, 732371, Note_on_c, 0, 67, 0
2, 732412, Note_on_c, 0, 79, 0
2, 732518, Note_on_c, 0, 63, 0
2, 732731, Note_on_c, 0, 86, 85
2, 732915, Note_on_c, 0, 86, 0
2, 733024, Note_on_c, 0, 87, 107
2, 733310, Note_on_c, 0, 87, 0
2, 733391, Control_c, 0, 64, 0
2, 733410, Note_on_c, 0, 89, 119
2, 733415, Note_on_c, 0, 58, 43
2, 733447, Note_on_c, 0, 67, 40
2, 733459, Note_on_c, 0, 63, 50
2, 733772, Note_on_c, 0, 89, 0
2, 733862, Note_on_c, 0, 79, 71
2, 733971, Note_on_c, 0, 79, 0
2, 734285, Note_on_c, 0, 79, 69
2, 734374, Note_on_c, 0, 79, 0
2, 734633, Note_on_c, 0, 79, 61
2, 734740, Note_on_c, 0, 79, 0
2, 734973, Control_c, 0, 64, 127
2, 735001, Note_on_c, 0, 79, 60
2, 735066, Control_c, 0, 64, 0
2, 735089, Note_on_c, 0, 79, 0
2, 735325, Note_on_c, 0, 79, 61
2, 735499, Note_on_c, 0, 79, 0
2, 735719, Note_on_c, 0, 79, 61
2, 735832, Note_on_c, 0, 79, 0
2, 736011, Control_c, 0, 64, 127
2, 736087, Note_on_c, 0, 79, 65
2, 736113, Note_on_c, 0, 67, 0
2, 736184, Note_on_c, 0, 63, 0
2, 736314, Note_on_c, 0, 79, 0
2, 736365, Note_on_c, 0, 58, 0
2, 736497, Note_on_c, 0, 89, 71
2, 736687, Note_on_c, 0, 89, 0
2, 737002, Note_on_c, 0, 79, 60
2, 737206, Note_on_c, 0, 79, 0
2, 737454, Control_c, 0, 64, 0
2, 737608, Control_c, 0, 64, 127
2, 738780, Control_c, 0, 64, 0
2, 738817, Note_on_c, 0, 93, 100
2, 738838, Note_on_c, 0, 65, 80
2, 738847, Note_on_c, 0, 89, 92
2, 738857, Note_on_c, 0, 55, 71
2, 738857, Note_on_c, 0, 60, 73
2, 738871, Note_on_c, 0, 61, 61
2, 738892, Note_on_c, 0, 81, 81
2, 739030, Control_c, 0, 64, 127
2, 739209, Note_on_c, 0, 55, 0
2, 739216, Note_on_c, 0, 81, 0
2, 739232, Note_on_c, 0, 65, 0
2, 739278, Note_on_c, 0, 89, 0
2, 739292, Note_on_c, 0, 61, 0
2, 739295, Note_on_c, 0, 93, 0
2, 739304, Note_on_c, 0, 60, 0
2, 739452, Note_on_c, 0, 93, 86
2, 739512, Note_on_c, 0, 89, 89
2, 739526, Note_on_c, 0, 55, 66
2, 739528, Note_on_c, 0, 65, 66
2, 739528, Note_on_c, 0, 60, 60
2, 739549, Note_on_c, 0, 61, 65
2, 739556, Note_on_c, 0, 81, 94
2, 739771, Note_on_c, 0, 81, 0
2, 739827, Note_on_c, 0, 55, 0
2, 739834, Note_on_c, 0, 89, 0
2, 739869, Note_on_c, 0, 93, 0
2, 739888, Note_on_c, 0, 65, 0
2, 739911, Note_on_c, 0, 60, 0
2, 739932, Note_on_c, 0, 61, 0
2, 740235, Control_c, 0, 64, 0
2, 740249, Note_on_c, 0, 96, 91
2, 740267, Note_on_c, 0, 93, 97
2, 740284, Note_on_c, 0, 60, 72
2, 740318, Note_on_c, 0, 65, 75
2, 740334, Note_on_c, 0, 61, 60
2, 740341, Note_on_c, 0, 84, 66
2, 740343, Note_on_c, 0, 55, 63
2, 740561, Control_c, 0, 64, 127
2, 740656, Note_on_c, 0, 55, 0
2, 740670, Note_on_c, 0, 93, 0
2, 740689, Note_on_c, 0, 61, 0
2, 740695, Note_on_c, 0, 84, 0
2, 740700, Note_on_c, 0, 65, 0
2, 740744, Note_on_c, 0, 60, 0
2, 740744, Note_on_c, 0, 96, 0
2, 740900, Control_c, 0, 64, 0
2, 740920, Note_on_c, 0, 96, 73
2, 740973, Note_on_c, 0, 60, 65
2, 740981, Note_on_c, 0, 93, 83
2, 740992, Note_on_c, 0, 65, 69
2, 741003, Note_on_c, 0, 84, 79
2, 741010, Note_on_c, 0, 61, 56
2, 741032, Note_on_c, 0, 55, 53
2, 741135, Control_c, 0, 64, 127
2, 741198, Note_on_c, 0, 93, 0
2, 741212, Note_on_c, 0, 96, 0
2, 741224, Note_on_c, 0, 55, 0
2, 741258, Note_on_c, 0, 60, 0
2, 741274, Note_on_c, 0, 65, 0
2, 741316, Note_on_c, 0, 61, 0
2, 741318, Note_on_c, 0, 84, 0
2, 741560, Control_c, 0, 64, 0
2, 741603, Note_on_c, 0, 93, 75
2, 741657, Control_c, 0, 64, 127
2, 741666, Note_on_c, 0, 89, 63
2, 741668, Note_on_c, 0, 61, 58
2, 741675, Note_on_c, 0, 65, 55
2, 741685, Note_on_c, 0, 60, 50
2, 741687, Note_on_c, 0, 81, 72
2, 741714, Note_on_c, 0, 55, 52
2, 741821, Note_on_c, 0, 55, 0
2, 741856, Note_on_c, 0, 65, 0
2, 741879, Note_on_c, 0, 60, 0
2, 741898, Note_on_c, 0, 81, 0
2, 741912, Note_on_c, 0, 89, 0
2, 741942, Note_on_c, 0, 61, 0
2, 741971, Note_on_c, 0, 93, 0
2, 742250, Note_on_c, 0, 93, 61
2, 742263, Note_on_c, 0, 65, 56
2, 742266, Note_on_c, 0, 60, 55
2, 742284, Note_on_c, 0, 61, 49
2, 742287, Note_on_c, 0, 89, 63
2, 742303, Note_on_c, 0, 55, 50
2, 742307, Note_on_c, 0, 81, 52
2, 742323, Control_c, 0, 64, 40
2, 742331, Control_c, 0, 64, 0
2, 742467, Control_c, 0, 64, 127
2, 742768, Note_on_c, 0, 93, 0
2, 742833, Note_on_c, 0, 81, 0
2, 742870, Note_on_c, 0, 89, 0
2, 742872, Note_on_c, 0, 55, 0
2, 742898, Note_on_c, 0, 65, 0
2, 743085, Note_on_c, 0, 61, 0
2, 743155, Note_on_c, 0, 60, 0
2, 743576, Control_c, 0, 64, 0
2, 743635, Note_on_c, 0, 88, 80
2, 743637, Note_on_c, 0, 91, 70
2, 743648, Note_on_c, 0, 65, 51
2, 743651, Note_on_c, 0, 60, 47
2, 743674, Note_on_c, 0, 61, 44
2, 743718, Note_on_c, 0, 55, 46
2, 743810, Control_c, 0, 64, 127
2, 743892, Note_on_c, 0, 60, 0
2, 743894, Note_on_c, 0, 65, 0
2, 743933, Note_on_c, 0, 61, 0
2, 743993, Note_on_c, 0, 55, 0
2, 744190, Note_on_c, 0, 88, 0
2, 744202, Note_on_c, 0, 91, 0
2, 744303, Note_on_c, 0, 86, 69
2, 744308, Note_on_c, 0, 89, 58
2, 744704, Note_on_c, 0, 89, 0
2, 744709, Note_on_c, 0, 86, 0
2, 744901, Control_c, 0, 64, 0
2, 744903, Note_on_c, 0, 53, 48
2, 744908, Note_on_c, 0, 88, 70
2, 744911, Note_on_c, 0, 91, 67
2, 744920, Note_on_c, 0, 60, 34
2, 744945, Note_on_c, 0, 50, 45
2, 744945, Note_on_c, 0, 57, 49
2, 745674, Note_on_c, 0, 88, 0
2, 745700, Control_c, 0, 64, 127
2, 745769, Note_on_c, 0, 86, 51
2, 745783, Note_on_c, 0, 89, 56
2, 745881, Note_on_c, 0, 91, 0
2, 745923, Note_on_c, 0, 60, 0
2, 745973, Note_on_c, 0, 57, 0
2, 746034, Note_on_c, 0, 86, 0
2, 746187, Note_on_c, 0, 89, 0
2, 746416, Note_on_c, 0, 81, 55
2, 746487, Note_on_c, 0, 84, 50
2, 746494, Note_on_c, 0, 60, 43
2, 746506, Note_on_c, 0, 57, 40
2, 746835, Note_on_c, 0, 57, 0
2, 746978, Note_on_c, 0, 60, 0
2, 746979, Note_on_c, 0, 53, 0
2, 747152, Note_on_c, 0, 84, 0
2, 747182, Note_on_c, 0, 81, 0
2, 747428, Note_on_c, 0, 53, 53
2, 747460, Note_on_c, 0, 60, 45
2, 747543, Note_on_c, 0, 57, 28
2, 747712, Note_on_c, 0, 57, 0
2, 747756, Note_on_c, 0, 50, 0
2, 747756, Note_on_c, 0, 53, 0
2, 747969, Note_on_c, 0, 60, 0
2, 748817, Note_on_c, 0, 58, 53
2, 748843, Note_on_c, 0, 65, 40
2, 748852, Note_on_c, 0, 54, 45
2, 748891, Note_on_c, 0, 60, 45
2, 748933, Control_c, 0, 64, 0
2, 749294, Note_on_c, 0, 89, 123
2, 749600, Note_on_c, 0, 87, 89
2, 749667, Note_on_c, 0, 89, 0
2, 749854, Note_on_c, 0, 87, 0
2, 749913, Note_on_c, 0, 84, 74
2, 750100, Note_on_c, 0, 84, 0
2, 750213, Note_on_c, 0, 78, 75
2, 750309, Note_on_c, 0, 78, 0
2, 750440, Note_on_c, 0, 65, 0
2, 750529, Note_on_c, 0, 77, 71
2, 750698, Note_on_c, 0, 77, 0
2, 750807, Note_on_c, 0, 75, 73
2, 751029, Note_on_c, 0, 75, 0
2, 751168, Note_on_c, 0, 74, 71
2, 751365, Note_on_c, 0, 74, 0
2, 751397, Note_on_c, 0, 60, 0
2, 751441, Note_on_c, 0, 72, 69
2, 751624, Note_on_c, 0, 72, 0
2, 751758, Note_on_c, 0, 70, 62
2, 751761, Note_on_c, 0, 58, 0
2, 751951, Note_on_c, 0, 54, 0
2, 751959, Note_on_c, 0, 70, 0
2, 752091, Note_on_c, 0, 69, 59
2, 752251, Note_on_c, 0, 69, 0
2, 752346, Note_on_c, 0, 72, 73
2, 752457, Note_on_c, 0, 57, 35
2, 752502, Note_on_c, 0, 58, 45
2, 752523, Note_on_c, 0, 62, 38
2, 752569, Note_on_c, 0, 55, 40
2, 752604, Note_on_c, 0, 72, 0
2, 752671, Note_on_c, 0, 69, 56
2, 752927, Note_on_c, 0, 69, 0
2, 753025, Note_on_c, 0, 70, 67
2, 753127, Note_on_c, 0, 62, 0
2, 753229, Note_on_c, 0, 70, 0
2, 753317, Note_on_c, 0, 62, 55
2, 753595, Note_on_c, 0, 62, 0
2, 753787, Note_on_c, 0, 62, 58
2, 754049, Note_on_c, 0, 62, 0
2, 754095, Control_c, 0, 64, 127
2, 754188, Note_on_c, 0, 57, 0
2, 754264, Note_on_c, 0, 62, 61
2, 754285, Note_on_c, 0, 58, 0
2, 754447, Note_on_c, 0, 62, 0
2, 754741, Note_on_c, 0, 58, 46
2, 754750, Control_c, 0, 64, 0
2, 754755, Note_on_c, 0, 62, 61
2, 754870, Control_c, 0, 64, 127
2, 755271, Note_on_c, 0, 62, 0
2, 755454, Note_on_c, 0, 58, 0
2, 755477, Note_on_c, 0, 55, 0
2, 755584, Note_on_c, 0, 62, 49
2, 755693, Note_on_c, 0, 62, 0
2, 756450, Control_c, 0, 64, 0
2, 756452, Note_on_c, 0, 70, 53
2, 756454, Note_on_c, 0, 63, 58
2, 756473, Note_on_c, 0, 67, 63
2, 756487, Note_on_c, 0, 53, 45
2, 756519, Note_on_c, 0, 59, 45
2, 757098, Control_c, 0, 64, 127
2, 757650, Note_on_c, 0, 59, 0
2, 757666, Note_on_c, 0, 53, 0
2, 757877, Note_on_c, 0, 67, 0
2, 757978, Note_on_c, 0, 63, 0
2, 758324, Note_on_c, 0, 70, 0
2, 760268, Control_c, 0, 64, 0
2, 760297, Note_on_c, 0, 58, 42
2, 760305, Note_on_c, 0, 82, 78
2, 760340, Note_on_c, 0, 63, 41
2, 760348, Note_on_c, 0, 67, 28
2, 760357, Note_on_c, 0, 62, 37
2, 760382, Note_on_c, 0, 82, 0
2, 760827, Note_on_c, 0, 81, 64
2, 760896, Note_on_c, 0, 81, 0
2, 761255, Note_on_c, 0, 82, 70
2, 761322, Note_on_c, 0, 82, 0
2, 761749, Note_on_c, 0, 84, 127
2, 762128, Note_on_c, 0, 84, 0
2, 762288, Note_on_c, 0, 82, 81
2, 762751, Note_on_c, 0, 74, 63
2, 762871, Note_on_c, 0, 74, 0
2, 763288, Note_on_c, 0, 74, 71
2, 763613, Note_on_c, 0, 82, 0
2, 764275, Note_on_c, 0, 62, 0
2, 764426, Note_on_c, 0, 63, 0
2, 764507, Note_on_c, 0, 74, 0
2, 764810, Note_on_c, 0, 75, 75
2, 764875, Note_on_c, 0, 58, 0
2, 765044, Note_on_c, 0, 67, 0
2, 765085, Note_on_c, 0, 75, 0
2, 765276, Note_on_c, 0, 75, 76
2, 766160, Note_on_c, 0, 67, 55
2, 766176, Note_on_c, 0, 58, 48
2, 766209, Note_on_c, 0, 63, 50
2, 766449, Control_c, 0, 64, 127
2, 766792, Note_on_c, 0, 67, 0
2, 766809, Note_on_c, 0, 63, 0
2, 766948, Note_on_c, 0, 58, 0
2, 767879, Note_on_c, 0, 75, 0
2, 767957, Note_on_c, 0, 60, 38
2, 767962, Control_c, 0, 64, 0
2, 767976, Note_on_c, 0, 63, 38
2, 768003, Note_on_c, 0, 57, 54
2, 768003, Note_on_c, 0, 55, 48
2, 768422, Control_c, 0, 64, 127
2, 768745, Note_on_c, 0, 57, 0
2, 768789, Note_on_c, 0, 63, 0
2, 768807, Note_on_c, 0, 55, 0
2, 769154, Note_on_c, 0, 60, 0
2, 769840, Note_on_c, 0, 86, 98
2, 769872, Control_c, 0, 64, 0
2, 769932, Note_on_c, 0, 81, 99
2, 769953, Note_on_c, 0, 63, 59
2, 769969, Note_on_c, 0, 60, 51
2, 769974, Note_on_c, 0, 57, 51
2, 770002, Note_on_c, 0, 55, 50
2, 770004, Note_on_c, 0, 74, 76
2, 770190, Control_c, 0, 64, 127
2, 770234, Note_on_c, 0, 74, 0
2, 770285, Note_on_c, 0, 86, 0
2, 770306, Note_on_c, 0, 55, 0
2, 770317, Note_on_c, 0, 63, 0
2, 770368, Note_on_c, 0, 81, 0
2, 770435, Note_on_c, 0, 57, 0
2, 770463, Note_on_c, 0, 60, 0
2, 770609, Note_on_c, 0, 87, 107
2, 770613, Control_c, 0, 64, 0
2, 770678, Note_on_c, 0, 81, 82
2, 770713, Note_on_c, 0, 75, 78
2, 770741, Note_on_c, 0, 57, 57
2, 770754, Note_on_c, 0, 63, 40
2, 770778, Note_on_c, 0, 60, 31
2, 770857, Control_c, 0, 64, 127
2, 770873, Note_on_c, 0, 63, 0
2, 770924, Note_on_c, 0, 81, 0
2, 770954, Note_on_c, 0, 57, 0
2, 770965, Note_on_c, 0, 60, 0
2, 770968, Note_on_c, 0, 75, 0
2, 771040, Note_on_c, 0, 87, 0
2, 771760, Note_on_c, 0, 89, 99
2, 771785, Control_c, 0, 64, 0
2, 771829, Note_on_c, 0, 86, 74
2, 771861, Note_on_c, 0, 82, 86
2, 771894, Note_on_c, 0, 58, 50
2, 771896, Note_on_c, 0, 54, 52
2, 771915, Note_on_c, 0, 60, 53
2, 771936, Note_on_c, 0, 65, 38
2, 771950, Note_on_c, 0, 77, 48
2, 772158, Control_c, 0, 64, 127
2, 772237, Note_on_c, 0, 89, 0
2, 772255, Note_on_c, 0, 86, 0
2, 772285, Note_on_c, 0, 60, 0
2, 772294, Note_on_c, 0, 65, 0
2, 772301, Note_on_c, 0, 77, 0
2, 772336, Note_on_c, 0, 58, 0
2, 772353, Note_on_c, 0, 54, 0
2, 772364, Note_on_c, 0, 82, 0
2, 772521, Note_on_c, 0, 87, 77
2, 772547, Control_c, 0, 64, 0
2, 772575, Note_on_c, 0, 82, 63
2, 772614, Note_on_c, 0, 75, 65
2, 772614, Note_on_c, 0, 54, 41
2, 772626, Note_on_c, 0, 65, 43
2, 772721, Note_on_c, 0, 58, 31
2, 772843, Control_c, 0, 64, 127
2, 772996, Note_on_c, 0, 65, 0
2, 773089, Note_on_c, 0, 58, 0
2, 773108, Note_on_c, 0, 87, 0
2, 773121, Note_on_c, 0, 75, 0
2, 773163, Note_on_c, 0, 54, 0
2, 773225, Note_on_c, 0, 82, 0
2, 773598, Control_c, 0, 64, 0
2, 773733, Note_on_c, 0, 86, 66
2, 773765, Note_on_c, 0, 81, 65
2, 773790, Note_on_c, 0, 64, 35
2, 773800, Note_on_c, 0, 74, 45
2, 773823, Note_on_c, 0, 58, 38
2, 773842, Note_on_c, 0, 54, 33
2, 773876, Note_on_c, 0, 60, 32
2, 773913, Control_c, 0, 64, 127
2, 774187, Note_on_c, 0, 74, 0
2, 774279, Note_on_c, 0, 86, 0
2, 774281, Note_on_c, 0, 81, 0
2, 774472, Note_on_c, 0, 84, 71
2, 774511, Note_on_c, 0, 81, 58
2, 774552, Note_on_c, 0, 60, 0
2, 774638, Note_on_c, 0, 64, 0
2, 774847, Note_on_c, 0, 54, 0
2, 774860, Note_on_c, 0, 58, 0
2, 775175, Note_on_c, 0, 81, 0
2, 775183, Note_on_c, 0, 84, 0
2, 775541, Control_c, 0, 64, 0
2, 775578, Note_on_c, 0, 57, 46
2, 775597, Note_on_c, 0, 82, 60
2, 775618, Note_on_c, 0, 79, 53
2, 775620, Note_on_c, 0, 58, 49
2, 775632, Note_on_c, 0, 55, 48
2, 775858, Note_on_c, 0, 62, 6
2, 775998, Control_c, 0, 64, 127
2, 776125, Control_c, 0, 64, 88
2, 776132, Control_c, 0, 64, 0
2, 776150, Note_on_c, 0, 82, 0
2, 776151, Note_on_c, 0, 79, 0
2, 776204, Note_on_c, 0, 77, 58
2, 776248, Note_on_c, 0, 81, 67
2, 776440, Control_c, 0, 64, 127
2, 776539, Note_on_c, 0, 81, 0
2, 776750, Note_on_c, 0, 62, 0
2, 776859, Note_on_c, 0, 77, 0
2, 776864, Note_on_c, 0, 57, 0
2, 776887, Note_on_c, 0, 55, 0
2, 776903, Note_on_c, 0, 58, 0
2, 777450, Control_c, 0, 64, 0
2, 777505, Note_on_c, 0, 75, 55
2, 777530, Note_on_c, 0, 79, 61
2, 777570, Note_on_c, 0, 57, 34
2, 777572, Note_on_c, 0, 62, 32
2, 777577, Note_on_c, 0, 58, 31
2, 777609, Note_on_c, 0, 55, 45
2, 777883, Control_c, 0, 64, 127
2, 777941, Note_on_c, 0, 79, 0
2, 778035, Note_on_c, 0, 75, 0
2, 778119, Note_on_c, 0, 74, 53
2, 778165, Note_on_c, 0, 77, 58
2, 778302, Note_on_c, 0, 74, 0
2, 778327, Note_on_c, 0, 57, 0
2, 778390, Note_on_c, 0, 77, 0
2, 778406, Note_on_c, 0, 62, 0
2, 778508, Note_on_c, 0, 58, 0
2, 778594, Note_on_c, 0, 55, 0
2, 780145, Note_on_c, 0, 62, 50
2, 780155, Note_on_c, 0, 58, 53
2, 780168, Note_on_c, 0, 57, 49
2, 780187, Control_c, 0, 64, 0
2, 780201, Note_on_c, 0, 55, 55
2, 780476, Control_c, 0, 64, 127
2, 780891, Note_on_c, 0, 57, 0
2, 780970, Note_on_c, 0, 55, 0
2, 781014, Note_on_c, 0, 62, 0
2, 781042, Note_on_c, 0, 58, 0
2, 781502, Note_on_c, 0, 62, 47
2, 781512, Note_on_c, 0, 58, 49
2, 781523, Note_on_c, 0, 55, 48
2, 782238, Note_on_c, 0, 55, 0
2, 782371, Note_on_c, 0, 58, 0
2, 782403, Note_on_c, 0, 62, 0
2, 783359, Note_on_c, 0, 65, 45
2, 783369, Note_on_c, 0, 61, 49
2, 783382, Note_on_c, 0, 58, 51
2, 783410, Note_on_c, 0, 54, 40
2, 783419, Control_c, 0, 64, 0
2, 784694, Note_on_c, 0, 72, 93
2, 784934, Note_on_c, 0, 72, 0
2, 784997, Note_on_c, 0, 69, 70
2, 785233, Note_on_c, 0, 69, 0
2, 785302, Note_on_c, 0, 70, 75
2, 785495, Note_on_c, 0, 70, 0
2, 785608, Note_on_c, 0, 72, 81
2, 785787, Note_on_c, 0, 72, 0
2, 785849, Note_on_c, 0, 65, 0
2, 785861, Note_on_c, 0, 61, 0
2, 785881, Note_on_c, 0, 73, 90
2, 785897, Control_c, 0, 64, 127
2, 786027, Note_on_c, 0, 58, 0
2, 786164, Control_c, 0, 64, 0
2, 786198, Note_on_c, 0, 75, 83
2, 786247, Note_on_c, 0, 73, 0
2, 786252, Note_on_c, 0, 58, 44
2, 786291, Note_on_c, 0, 61, 35
2, 786354, Note_on_c, 0, 75, 0
2, 786416, Note_on_c, 0, 61, 0
2, 786523, Note_on_c, 0, 77, 67
2, 786601, Note_on_c, 0, 54, 0
2, 786609, Control_c, 0, 64, 127
2, 786713, Note_on_c, 0, 77, 0
2, 786925, Note_on_c, 0, 78, 33
2, 786926, Control_c, 0, 64, 88
2, 786928, Note_on_c, 0, 79, 58
2, 786931, Control_c, 0, 64, 0
2, 786947, Note_on_c, 0, 58, 0
2, 786993, Note_on_c, 0, 79, 0
2, 787019, Note_on_c, 0, 78, 0
2, 787127, Note_on_c, 0, 64, 41
2, 787134, Note_on_c, 0, 60, 35
2, 787139, Note_on_c, 0, 54, 51
2, 788148, Control_c, 0, 64, 127
2, 788260, Note_on_c, 0, 64, 0
2, 788339, Note_on_c, 0, 54, 0
2, 788403, Note_on_c, 0, 60, 0
2, 788750, Note_on_c, 0, 60, 48
2, 788751, Note_on_c, 0, 54, 51
2, 788859, Control_c, 0, 64, 0
2, 788959, Note_on_c, 0, 60, 0
2, 789086, Note_on_c, 0, 54, 0
2, 789225, Note_on_c, 0, 80, 94
2, 789253, Control_c, 0, 64, 127
2, 789586, Note_on_c, 0, 82, 98
2, 789631, Note_on_c, 0, 65, 60
2, 789637, Note_on_c, 0, 60, 62
2, 789638, Note_on_c, 0, 58, 57
2, 789654, Note_on_c, 0, 54, 51
2, 789679, Note_on_c, 0, 80, 0
2, 789878, Note_on_c, 0, 82, 0
2, 789955, Note_on_c, 0, 84, 85
2, 790094, Note_on_c, 0, 60, 0
2, 790182, Note_on_c, 0, 58, 0
2, 790193, Note_on_c, 0, 54, 0
2, 790207, Note_on_c, 0, 84, 0
2, 790274, Note_on_c, 0, 85, 92
2, 790316, Note_on_c, 0, 65, 0
2, 790504, Note_on_c, 0, 85, 0
2, 790562, Note_on_c, 0, 86, 96
2, 790779, Note_on_c, 0, 86, 0
2, 790851, Note_on_c, 0, 87, 107
2, 791013, Control_c, 0, 64, 24
2, 791020, Control_c, 0, 64, 0
2, 791030, Note_on_c, 0, 65, 44
2, 791060, Note_on_c, 0, 60, 52
2, 791074, Note_on_c, 0, 62, 49
2, 791094, Note_on_c, 0, 87, 0
2, 791143, Note_on_c, 0, 89, 96
2, 791439, Note_on_c, 0, 89, 0
2, 791478, Note_on_c, 0, 85, 85
2, 791555, Note_on_c, 0, 65, 0
2, 791699, Note_on_c, 0, 85, 0
2, 791745, Note_on_c, 0, 87, 97
2, 791903, Note_on_c, 0, 53, 53
2, 792028, Note_on_c, 0, 87, 0
2, 792062, Note_on_c, 0, 85, 69
2, 792255, Note_on_c, 0, 85, 0
2, 792356, Note_on_c, 0, 86, 85
2, 792609, Note_on_c, 0, 86, 0
2, 792623, Control_c, 0, 64, 127
2, 792629, Note_on_c, 0, 60, 0
2, 792676, Note_on_c, 0, 81, 65
2, 792755, Note_on_c, 0, 62, 0
2, 792896, Note_on_c, 0, 81, 0
2, 792970, Control_c, 0, 64, 0
2, 792977, Note_on_c, 0, 84, 75
2, 793051, Note_on_c, 0, 62, 41
2, 793111, Note_on_c, 0, 65, 42
2, 793132, Note_on_c, 0, 60, 26
2, 793289, Note_on_c, 0, 84, 0
2, 793324, Note_on_c, 0, 82, 72
2, 793604, Note_on_c, 0, 82, 0
2, 793623, Control_c, 0, 64, 127
2, 793634, Note_on_c, 0, 74, 65
2, 793771, Control_c, 0, 64, 88
2, 793780, Control_c, 0, 64, 0
2, 793843, Note_on_c, 0, 74, 0
2, 794070, Note_on_c, 0, 74, 68
2, 794074, Note_on_c, 0, 53, 0
2, 794100, Note_on_c, 0, 65, 0
2, 794110, Control_c, 0, 64, 127
2, 794130, Note_on_c, 0, 62, 0
2, 794153, Note_on_c, 0, 60, 0
2, 794230, Note_on_c, 0, 74, 0
2, 794455, Note_on_c, 0, 74, 59
2, 794640, Note_on_c, 0, 74, 0
2, 794830, Note_on_c, 0, 74, 61
2, 794957, Note_on_c, 0, 74, 0
2, 795070, Note_on_c, 0, 58, 34
2, 795117, Control_c, 0, 64, 0
2, 795140, Note_on_c, 0, 65, 45
2, 795168, Note_on_c, 0, 55, 34
2, 795179, Note_on_c, 0, 60, 42
2, 795202, Note_on_c, 0, 74, 63
2, 795487, Note_on_c, 0, 74, 0
2, 795601, Note_on_c, 0, 75, 50
2, 795811, Note_on_c, 0, 75, 0
2, 795906, Note_on_c, 0, 77, 68
2, 796983, Note_on_c, 0, 70, 60
2, 797287, Control_c, 0, 64, 127
2, 797592, Note_on_c, 0, 70, 0
2, 797951, Note_on_c, 0, 70, 45
2, 798048, Note_on_c, 0, 77, 0
2, 798053, Note_on_c, 0, 65, 0
2, 798167, Note_on_c, 0, 70, 0
2, 798169, Note_on_c, 0, 55, 0
2, 798176, Note_on_c, 0, 60, 0
2, 798298, Note_on_c, 0, 58, 0
2, 798838, Control_c, 0, 64, 0
2, 798863, Note_on_c, 0, 74, 61
2, 798884, Note_on_c, 0, 70, 60
2, 798915, Note_on_c, 0, 54, 45
2, 798928, Note_on_c, 0, 62, 25
2, 799111, Note_on_c, 0, 60, 12
2, 799246, Control_c, 0, 64, 127
2, 799486, Note_on_c, 0, 62, 0
2, 799743, Note_on_c, 0, 60, 0
2, 799744, Note_on_c, 0, 70, 0
2, 799831, Note_on_c, 0, 74, 0
2, 799853, Note_on_c, 0, 54, 0
2, 801240, Note_on_c, 0, 86, 106
2, 801267, Control_c, 0, 64, 0
2, 801291, Note_on_c, 0, 82, 98
2, 801302, Note_on_c, 0, 54, 63
2, 801304, Note_on_c, 0, 65, 73
2, 801330, Note_on_c, 0, 58, 55
2, 801341, Note_on_c, 0, 60, 60
2, 801399, Note_on_c, 0, 74, 49
2, 801561, Note_on_c, 0, 65, 0
2, 801569, Control_c, 0, 64, 127
2, 801617, Note_on_c, 0, 86, 0
2, 801661, Note_on_c, 0, 54, 0
2, 801689, Note_on_c, 0, 74, 0
2, 801724, Note_on_c, 0, 58, 0
2, 801747, Note_on_c, 0, 60, 0
2, 801830, Note_on_c, 0, 82, 0
2, 801974, Note_on_c, 0, 87, 106
2, 802023, Note_on_c, 0, 82, 83
2, 802052, Note_on_c, 0, 58, 56
2, 802055, Note_on_c, 0, 75, 85
2, 802073, Note_on_c, 0, 54, 58
2, 802103, Note_on_c, 0, 60, 48
2, 802177, Note_on_c, 0, 60, 0
2, 802309, Note_on_c, 0, 58, 0
2, 802316, Note_on_c, 0, 54, 0
2, 802337, Note_on_c, 0, 75, 0
2, 802344, Note_on_c, 0, 82, 0
2, 802361, Note_on_c, 0, 87, 0
2, 802631, Control_c, 0, 64, 0
2, 802659, Note_on_c, 0, 83, 86
2, 802661, Note_on_c, 0, 87, 78
2, 802661, Note_on_c, 0, 63, 64
2, 802682, Note_on_c, 0, 58, 50
2, 802685, Note_on_c, 0, 53, 56
2, 802719, Note_on_c, 0, 59, 61
2, 802740, Note_on_c, 0, 75, 62
2, 802768, Note_on_c, 0, 85, 39
2, 803064, Control_c, 0, 64, 127
2, 803361, Note_on_c, 0, 53, 0
2, 803384, Note_on_c, 0, 63, 0
2, 803516, Note_on_c, 0, 83, 0
2, 803553, Note_on_c, 0, 75, 0
2, 803595, Note_on_c, 0, 87, 0
2, 803662, Note_on_c, 0, 85, 0
2, 803725, Note_on_c, 0, 58, 0
2, 803741, Note_on_c, 0, 59, 0
2, 804023, Note_on_c, 0, 63, 63
2, 804044, Note_on_c, 0, 86, 85
2, 804081, Note_on_c, 0, 74, 73
2, 804086, Note_on_c, 0, 82, 69
2, 804116, Note_on_c, 0, 58, 42
2, 804130, Note_on_c, 0, 59, 33
2, 804320, Note_on_c, 0, 63, 0
2, 804361, Note_on_c, 0, 74, 0
2, 804380, Note_on_c, 0, 58, 0
2, 804380, Note_on_c, 0, 59, 0
2, 804426, Note_on_c, 0, 82, 0
2, 804429, Note_on_c, 0, 86, 0
2, 804512, Control_c, 0, 64, 0
2, 804635, Note_on_c, 0, 63, 60
2, 804642, Note_on_c, 0, 86, 71
2, 804667, Note_on_c, 0, 74, 62
2, 804670, Note_on_c, 0, 59, 47
2, 804688, Note_on_c, 0, 82, 46
2, 804716, Note_on_c, 0, 58, 40
2, 804721, Note_on_c, 0, 53, 37
2, 804857, Control_c, 0, 64, 127
2, 805063, Note_on_c, 0, 53, 0
2, 805123, Note_on_c, 0, 59, 0
2, 805175, Note_on_c, 0, 58, 0
2, 805219, Note_on_c, 0, 74, 0
2, 805297, Note_on_c, 0, 63, 0
2, 805299, Note_on_c, 0, 86, 0
2, 805545, Note_on_c, 0, 82, 0
2, 805869, Note_on_c, 0, 87, 72
2, 805901, Note_on_c, 0, 75, 58
2, 806085, Note_on_c, 0, 87, 0
2, 806117, Note_on_c, 0, 75, 0
2, 806279, Control_c, 0, 64, 0
2, 806330, Note_on_c, 0, 58, 61
2, 806374, Note_on_c, 0, 62, 46
2, 806383, Note_on_c, 0, 67, 46
2, 806406, Note_on_c, 0, 63, 47
2, 806408, Note_on_c, 0, 87, 79
2, 806432, Note_on_c, 0, 75, 61
2, 806539, Note_on_c, 0, 60, 28
2, 806608, Control_c, 0, 64, 127
2, 806768, Note_on_c, 0, 75, 0
2, 806786, Note_on_c, 0, 87, 0
2, 806965, Note_on_c, 0, 77, 65
2, 806971, Note_on_c, 0, 89, 56
2, 807207, Note_on_c, 0, 62, 0
2, 807237, Note_on_c, 0, 77, 0
2, 807307, Note_on_c, 0, 60, 0
2, 807309, Note_on_c, 0, 89, 0
2, 807335, Note_on_c, 0, 58, 0
2, 807337, Note_on_c, 0, 67, 0
2, 807493, Note_on_c, 0, 63, 0
2, 807786, Control_c, 0, 64, 0
2, 807851, Note_on_c, 0, 67, 51
2, 807867, Note_on_c, 0, 91, 81
2, 807884, Note_on_c, 0, 63, 47
2, 807893, Note_on_c, 0, 62, 55
2, 807895, Note_on_c, 0, 58, 50
2, 807896, Note_on_c, 0, 60, 55
2, 807896, Note_on_c, 0, 79, 70
2, 808093, Control_c, 0, 64, 127
2, 808185, Note_on_c, 0, 91, 0
2, 808273, Note_on_c, 0, 79, 0
2, 808303, Note_on_c, 0, 58, 0
2, 808319, Note_on_c, 0, 62, 0
2, 808354, Note_on_c, 0, 67, 0
2, 808389, Note_on_c, 0, 60, 0
2, 808500, Note_on_c, 0, 63, 0
2, 808768, Note_on_c, 0, 87, 75
2, 808783, Control_c, 0, 64, 0
2, 808801, Note_on_c, 0, 75, 67
2, 808813, Note_on_c, 0, 67, 57
2, 808824, Note_on_c, 0, 63, 52
2, 808864, Note_on_c, 0, 60, 50
2, 808878, Note_on_c, 0, 58, 45
2, 809011, Control_c, 0, 64, 127
2, 809086, Note_on_c, 0, 87, 0
2, 809118, Note_on_c, 0, 75, 0
2, 809176, Note_on_c, 0, 67, 0
2, 809201, Note_on_c, 0, 58, 0
2, 809236, Note_on_c, 0, 63, 0
2, 809238, Note_on_c, 0, 60, 0
2, 809516, Note_on_c, 0, 67, 55
2, 809525, Note_on_c, 0, 86, 78
2, 809539, Note_on_c, 0, 63, 46
2, 809542, Note_on_c, 0, 58, 49
2, 809558, Note_on_c, 0, 74, 72
2, 809597, Note_on_c, 0, 67, 0
2, 809630, Note_on_c, 0, 63, 0
2, 809646, Note_on_c, 0, 58, 0
2, 809720, Note_on_c, 0, 86, 0
2, 809737, Note_on_c, 0, 74, 0
2, 810209, Note_on_c, 0, 84, 72
2, 810216, Control_c, 0, 64, 0
2, 810241, Note_on_c, 0, 59, 57
2, 810248, Note_on_c, 0, 72, 59
2, 810257, Note_on_c, 0, 53, 60
2, 810517, Control_c, 0, 64, 127
2, 810542, Note_on_c, 0, 84, 0
2, 810714, Note_on_c, 0, 53, 0
2, 810733, Note_on_c, 0, 72, 0
2, 810904, Note_on_c, 0, 71, 69
2, 810904, Note_on_c, 0, 83, 72
2, 810924, Control_c, 0, 64, 0
2, 810966, Note_on_c, 0, 53, 49
2, 811036, Note_on_c, 0, 62, 32
2, 811233, Control_c, 0, 64, 127
2, 811267, Note_on_c, 0, 83, 0
2, 811385, Note_on_c, 0, 62, 0
2, 811385, Note_on_c, 0, 71, 0
2, 811422, Note_on_c, 0, 53, 0
2, 811483, Note_on_c, 0, 59, 0
2, 811650, Note_on_c, 0, 80, 74
2, 811680, Note_on_c, 0, 68, 59
2, 811728, Note_on_c, 0, 53, 45
2, 811730, Note_on_c, 0, 59, 47
2, 811754, Note_on_c, 0, 62, 49
2, 811901, Note_on_c, 0, 62, 0
2, 811957, Note_on_c, 0, 53, 0
2, 811980, Note_on_c, 0, 80, 0
2, 812073, Note_on_c, 0, 68, 0
2, 812094, Note_on_c, 0, 59, 0
2, 812191, Control_c, 0, 64, 0
2, 812256, Note_on_c, 0, 67, 61
2, 812256, Note_on_c, 0, 79, 69
2, 812268, Note_on_c, 0, 59, 33
2, 812275, Note_on_c, 0, 62, 53
2, 812302, Note_on_c, 0, 53, 44
2, 812547, Control_c, 0, 64, 127
2, 812932, Note_on_c, 0, 59, 0
2, 813054, Note_on_c, 0, 62, 0
2, 813131, Note_on_c, 0, 53, 0
2, 813400, Note_on_c, 0, 79, 0
2, 813423, Note_on_c, 0, 67, 0
2, 813532, Note_on_c, 0, 77, 66
2, 813846, Note_on_c, 0, 77, 0
2, 814069, Control_c, 0, 64, 0
2, 814071, Note_on_c, 0, 62, 46
2, 814085, Note_on_c, 0, 58, 50
2, 814095, Note_on_c, 0, 72, 67
2, 814120, Note_on_c, 0, 52, 48
2, 814611, Control_c, 0, 64, 127
2, 815171, Note_on_c, 0, 62, 0
2, 815579, Note_on_c, 0, 58, 0
2, 815593, Note_on_c, 0, 52, 0
2, 815957, Note_on_c, 0, 72, 0
2, 815998, Control_c, 0, 64, 0
2, 816000, Note_on_c, 0, 68, 73
2, 816030, Note_on_c, 0, 64, 71
2, 816045, Note_on_c, 0, 56, 55
2, 816065, Note_on_c, 0, 62, 52
2, 816295, Note_on_c, 0, 64, 0
2, 816470, Control_c, 0, 64, 127
2, 816519, Note_on_c, 0, 70, 99
2, 816621, Note_on_c, 0, 68, 0
2, 816839, Note_on_c, 0, 56, 0
2, 816864, Note_on_c, 0, 70, 0
2, 816952, Note_on_c, 0, 72, 92
2, 817072, Note_on_c, 0, 62, 0
2, 817126, Note_on_c, 0, 72, 0
2, 817409, Note_on_c, 0, 75, 109
2, 817835, Note_on_c, 0, 75, 0
2, 817934, Note_on_c, 0, 63, 53
2, 817936, Control_c, 0, 64, 0
2, 817946, Note_on_c, 0, 58, 51
2, 817957, Note_on_c, 0, 77, 93
2, 817974, Note_on_c, 0, 53, 52
2, 818504, Note_on_c, 0, 67, 55
2, 818601, Control_c, 0, 64, 127
2, 818835, Note_on_c, 0, 63, 0
2, 818858, Note_on_c, 0, 77, 0
2, 819014, Note_on_c, 0, 70, 58
2, 819338, Note_on_c, 0, 67, 0
2, 819502, Note_on_c, 0, 75, 69
2, 819683, Note_on_c, 0, 70, 0
2, 819720, Note_on_c, 0, 58, 0
2, 819975, Control_c, 0, 64, 0
2, 820000, Note_on_c, 0, 66, 57
2, 820051, Note_on_c, 0, 62, 38
2, 820070, Note_on_c, 0, 69, 53
2, 820433, Control_c, 0, 64, 127
2, 820633, Note_on_c, 0, 66, 0
2, 820924, Note_on_c, 0, 66, 58
2, 820940, Note_on_c, 0, 62, 0
2, 821068, Note_on_c, 0, 69, 0
2, 821612, Note_on_c, 0, 66, 0
2, 821746, Note_on_c, 0, 75, 0
2, 821841, Note_on_c, 0, 60, 36
2, 821851, Note_on_c, 0, 65, 63
2, 821855, Control_c, 0, 64, 0
2, 821885, Note_on_c, 0, 62, 37
2, 822103, Note_on_c, 0, 65, 0
2, 822342, Note_on_c, 0, 67, 56
2, 822563, Note_on_c, 0, 67, 0
2, 822760, Note_on_c, 0, 65, 49
2, 823066, Note_on_c, 0, 65, 0
2, 823244, Note_on_c, 0, 67, 51
2, 823539, Note_on_c, 0, 67, 0
2, 823705, Note_on_c, 0, 65, 57
2, 824206, Note_on_c, 0, 77, 70
2, 824511, Note_on_c, 0, 65, 0
2, 824681, Note_on_c, 0, 77, 0
2, 824720, Note_on_c, 0, 65, 55
2, 825197, Control_c, 0, 64, 127
2, 825292, Note_on_c, 0, 60, 0
2, 825342, Note_on_c, 0, 62, 0
2, 825391, Note_on_c, 0, 65, 0
2, 825632, Note_on_c, 0, 65, 52
2, 825963, Note_on_c, 0, 65, 0
2, 826088, Note_on_c, 0, 67, 52
2, 826491, Note_on_c, 0, 67, 0
2, 826568, Note_on_c, 0, 65, 67
2, 826589, Note_on_c, 0, 62, 39
2, 826635, Note_on_c, 0, 60, 34
2, 827058, Note_on_c, 0, 77, 100
2, 827061, Note_on_c, 0, 53, 0
2, 827399, Note_on_c, 0, 65, 0
2, 827433, Note_on_c, 0, 77, 0
2, 827533, Control_c, 0, 64, 0
2, 827558, Note_on_c, 0, 77, 47
2, 827559, Note_on_c, 0, 53, 61
2, 827582, Note_on_c, 0, 65, 69
2, 827762, Note_on_c, 0, 77, 0
2, 827943, Control_c, 0, 64, 127
2, 828244, Note_on_c, 0, 62, 0
2, 828246, Note_on_c, 0, 60, 0
2, 828281, Note_on_c, 0, 53, 0
2, 828927, Note_on_c, 0, 65, 0
2, 829017, Note_on_c, 0, 66, 107
2, 829428, Control_c, 0, 64, 0
2, 829492, Note_on_c, 0, 60, 48
2, 829520, Note_on_c, 0, 58, 45
2, 829529, Note_on_c, 0, 66, 0
2, 829545, Note_on_c, 0, 65, 81
2, 829548, Note_on_c, 0, 54, 50
2, 829835, Control_c, 0, 64, 127
2, 829976, Note_on_c, 0, 77, 88
2, 829986, Note_on_c, 0, 65, 0
2, 830300, Note_on_c, 0, 77, 0
2, 830440, Note_on_c, 0, 65, 58
2, 830539, Note_on_c, 0, 60, 0
2, 830711, Note_on_c, 0, 65, 0
2, 830914, Note_on_c, 0, 65, 53
2, 831099, Note_on_c, 0, 65, 0
2, 831456, Note_on_c, 0, 60, 29
2, 831459, Note_on_c, 0, 65, 61
2, 831817, Note_on_c, 0, 65, 0
2, 831949, Note_on_c, 0, 66, 52
2, 831980, Note_on_c, 0, 60, 0
2, 832391, Note_on_c, 0, 66, 0
2, 832429, Note_on_c, 0, 65, 52
2, 832605, Note_on_c, 0, 65, 0
2, 832653, Note_on_c, 0, 54, 0
2, 832901, Note_on_c, 0, 58, 0
2, 832908, Note_on_c, 0, 65, 48
2, 833038, Note_on_c, 0, 65, 0
2, 833290, Control_c, 0, 64, 0
2, 833360, Note_on_c, 0, 65, 62
2, 833369, Note_on_c, 0, 53, 45
2, 833408, Note_on_c, 0, 60, 44
2, 833631, Note_on_c, 0, 60, 0
2, 833642, Control_c, 0, 64, 127
2, 833776, Note_on_c, 0, 53, 0
2, 833827, Note_on_c, 0, 66, 63
2, 833832, Note_on_c, 0, 65, 0
2, 834105, Note_on_c, 0, 66, 0
2, 834316, Note_on_c, 0, 65, 44
2, 834580, Note_on_c, 0, 65, 0
2, 835291, Note_on_c, 0, 55, 57
2, 835310, Note_on_c, 0, 63, 54
2, 835330, Note_on_c, 0, 58, 61
2, 835338, Note_on_c, 0, 65, 49
2, 835340, Control_c, 0, 64, 0
2, 835367, Note_on_c, 0, 41, 28
2, 836118, Note_on_c, 0, 55, 0
2, 836176, Note_on_c, 0, 58, 0
2, 836215, Note_on_c, 0, 29, 45
2, 836238, Note_on_c, 0, 65, 0
2, 836247, Note_on_c, 0, 63, 0
2, 836549, Note_on_c, 0, 29, 0
2, 836574, Note_on_c, 0, 41, 0
2, 837115, Note_on_c, 0, 93, 69
2, 837169, Note_on_c, 0, 89, 67
2, 837185, Note_on_c, 0, 86, 70
2, 837203, Note_on_c, 0, 60, 45
2, 837233, Note_on_c, 0, 65, 43
2, 837243, Note_on_c, 0, 62, 45
2, 837263, Note_on_c, 0, 81, 60
2, 837784, Control_c, 0, 64, 127
2, 838452, Note_on_c, 0, 93, 0
2, 838468, Note_on_c, 0, 89, 0
2, 838516, Note_on_c, 0, 86, 0
2, 838650, Note_on_c, 0, 81, 0
2, 839026, Note_on_c, 0, 89, 65
2, 839079, Note_on_c, 0, 77, 58
2, 839121, Note_on_c, 0, 53, 51
2, 840017, Note_on_c, 0, 53, 0
2, 840100, Note_on_c, 0, 89, 0
2, 840121, Note_on_c, 0, 62, 0
2, 840130, Note_on_c, 0, 60, 0
2, 840181, Note_on_c, 0, 65, 0
2, 840309, Note_on_c, 0, 77, 0
2, 840994, Note_on_c, 0, 74, 52
2, 841003, Note_on_c, 0, 79, 60
2, 841019, Note_on_c, 0, 65, 43
2, 841026, Note_on_c, 0, 60, 52
2, 841041, Note_on_c, 0, 55, 50
2, 842669, Note_on_c, 0, 79, 0
2, 842770, Note_on_c, 0, 74, 0
2, 842867, Note_on_c, 0, 65, 0
2, 842881, Note_on_c, 0, 60, 0
2, 842884, Note_on_c, 0, 55, 0
2, 844845, Control_c, 0, 64, 0
2, 847765, Note_on_c, 0, 72, 73
2, 847773, Note_on_c, 0, 79, 77
2, 847780, Note_on_c, 0, 65, 54
2, 847823, Note_on_c, 0, 55, 42
2, 847832, Note_on_c, 0, 60, 50
2, 847888, Note_on_c, 0, 57, 33
2, 848161, Note_on_c, 0, 79, 0
2, 848235, Control_c, 0, 64, 127
2, 848236, Note_on_c, 0, 60, 0
2, 848284, Note_on_c, 0, 65, 0
2, 848310, Note_on_c, 0, 76, 52
2, 848351, Note_on_c, 0, 57, 0
2, 848368, Note_on_c, 0, 69, 32
2, 848386, Note_on_c, 0, 71, 30
2, 848430, Note_on_c, 0, 55, 0
2, 848463, Note_on_c, 0, 72, 0
2, 848479, Note_on_c, 0, 69, 0
2, 848609, Note_on_c, 0, 71, 0
2, 848632, Note_on_c, 0, 76, 0
2, 848939, Control_c, 0, 64, 0
2, 849018, Note_on_c, 0, 71, 49
2, 849039, Note_on_c, 0, 75, 56
2, 849046, Note_on_c, 0, 59, 35
2, 849062, Note_on_c, 0, 64, 44
2, 849081, Note_on_c, 0, 53, 42
2, 849718, Note_on_c, 0, 71, 0
2, 849754, Note_on_c, 0, 74, 58
2, 849768, Note_on_c, 0, 75, 0
2, 849773, Note_on_c, 0, 77, 70
2, 849975, Control_c, 0, 64, 127
2, 851228, Note_on_c, 0, 53, 0
2, 851292, Note_on_c, 0, 59, 0
2, 851552, Note_on_c, 0, 64, 0
2, 851681, Note_on_c, 0, 74, 0
2, 851832, Note_on_c, 0, 77, 0
2, 851880, Note_on_c, 0, 75, 58
2, 852200, Note_on_c, 0, 75, 0
2, 852381, Control_c, 0, 64, 0
2, 852392, Note_on_c, 0, 62, 44
2, 852395, Note_on_c, 0, 63, 46
2, 852404, Note_on_c, 0, 75, 43
2, 852430, Note_on_c, 0, 74, 58
2, 852446, Note_on_c, 0, 60, 44
2, 852624, Note_on_c, 0, 67, 7
2, 853332, Note_on_c, 0, 74, 0
2, 853381, Note_on_c, 0, 72, 58
2, 853886, Control_c, 0, 64, 127
2, 854094, Note_on_c, 0, 72, 0
2, 854282, Control_c, 0, 64, 0
2, 854393, Note_on_c, 0, 72, 51
2, 855114, Control_c, 0, 64, 127
2, 856600, Note_on_c, 0, 72, 0
2, 856748, Note_on_c, 0, 67, 0
2, 856764, Note_on_c, 0, 75, 0
2, 856813, Note_on_c, 0, 63, 0
2, 856874, Note_on_c, 0, 62, 0
2, 856918, Note_on_c, 0, 60, 0
2, 859643, Note_on_c, 0, 86, 79
2, 859697, Note_on_c, 0, 82, 67
2, 859697, Note_on_c, 0, 79, 72
2, 859699, Note_on_c, 0, 58, 52
2, 859701, Note_on_c, 0, 67, 40
2, 859703, Note_on_c, 0, 63, 46
2, 859708, Note_on_c, 0, 74, 66
2, 859796, Note_on_c, 0, 67, 0
2, 859807, Note_on_c, 0, 63, 0
2, 859838, Note_on_c, 0, 58, 0
2, 859937, Note_on_c, 0, 79, 0
2, 859951, Note_on_c, 0, 86, 0
2, 860049, Note_on_c, 0, 74, 0
2, 860056, Note_on_c, 0, 82, 0
2, 860250, Note_on_c, 0, 84, 67
2, 860278, Note_on_c, 0, 60, 51
2, 860292, Note_on_c, 0, 81, 61
2, 860301, Control_c, 0, 64, 0
2, 860310, Note_on_c, 0, 77, 62
2, 860326, Note_on_c, 0, 55, 46
2, 860349, Note_on_c, 0, 61, 41
2, 860361, Note_on_c, 0, 65, 36
2, 860379, Note_on_c, 0, 72, 54
2, 861215, Control_c, 0, 64, 127
2, 863543, Note_on_c, 0, 72, 0
2, 863561, Note_on_c, 0, 84, 0
2, 863617, Note_on_c, 0, 81, 0
2, 863730, Note_on_c, 0, 77, 0
2, 863999, Note_on_c, 0, 65, 0
2, 864020, Note_on_c, 0, 60, 0
2, 864029, Note_on_c, 0, 61, 0
2, 864923, Note_on_c, 0, 55, 0
2, 866426, Note_on_c, 0, 70, 56
2, 866431, Note_on_c, 0, 64, 66
2, 866447, Note_on_c, 0, 79, 62
2, 866454, Note_on_c, 0, 73, 65
2, 866702, Control_c, 0, 64, 0
2, 866757, Note_on_c, 0, 79, 0
2, 866767, Note_on_c, 0, 73, 0
2, 866796, Note_on_c, 0, 70, 0
2, 866852, Note_on_c, 0, 64, 0
2, 866901, Note_on_c, 0, 70, 24
2, 866908, Note_on_c, 0, 63, 50
2, 866924, Note_on_c, 0, 78, 58
2, 866929, Note_on_c, 0, 73, 25
2, 867236, Note_on_c, 0, 78, 0
2, 867237, Note_on_c, 0, 73, 0
2, 867271, Note_on_c, 0, 70, 0
2, 867348, Note_on_c, 0, 63, 0
2, 867802, Note_on_c, 0, 62, 50
2, 867808, Note_on_c, 0, 69, 40
2, 867811, Note_on_c, 0, 72, 50
2, 867818, Note_on_c, 0, 77, 52
2, 867952, Note_on_c, 0, 72, 0
2, 867973, Note_on_c, 0, 69, 0
2, 867992, Note_on_c, 0, 77, 0
2, 868028, Note_on_c, 0, 62, 0
2, 868751, Note_on_c, 0, 62, 49
2, 868753, Note_on_c, 0, 77, 52
2, 868776, Note_on_c, 0, 72, 49
2, 868816, Note_on_c, 0, 69, 23
2, 868960, Note_on_c, 0, 72, 0
2, 868996, Note_on_c, 0, 62, 0
2, 869004, Note_on_c, 0, 69, 0
2, 869010, Note_on_c, 0, 77, 0
2, 869773, Note_on_c, 0, 62, 48
2, 869800, Note_on_c, 0, 69, 32
2, 869814, Note_on_c, 0, 77, 37
2, 869823, Note_on_c, 0, 72, 48
2, 871373, Control_c, 0, 64, 127
2, 871942, Note_on_c, 0, 69, 0
2, 872297, Note_on_c, 0, 72, 0
2, 872361, Note_on_c, 0, 77, 0
2, 872433, Note_on_c, 0, 62, 0
2, 874196, Note_on_c, 0, 89, 95
2, 874240, Note_on_c, 0, 86, 82
2, 874249, Control_c, 0, 64, 0
2, 874253, Note_on_c, 0, 54, 65
2, 874258, Note_on_c, 0, 65, 57
2, 874258, Note_on_c, 0, 82, 77
2, 874268, Note_on_c, 0, 60, 63
2, 874312, Note_on_c, 0, 77, 61
2, 874541, Control_c, 0, 64, 127
2, 874767, Note_on_c, 0, 86, 0
2, 874851, Note_on_c, 0, 65, 0
2, 874853, Note_on_c, 0, 60, 0
2, 874918, Note_on_c, 0, 89, 0
2, 875004, Note_on_c, 0, 77, 0
2, 875011, Note_on_c, 0, 87, 79
2, 875090, Note_on_c, 0, 54, 0
2, 875323, Note_on_c, 0, 82, 0
2, 875395, Note_on_c, 0, 87, 0
2, 875530, Control_c, 0, 64, 0
2, 875536, Note_on_c, 0, 57, 52
2, 875559, Note_on_c, 0, 86, 72
2, 875560, Note_on_c, 0, 82, 57
2, 875573, Note_on_c, 0, 55, 53
2, 875585, Note_on_c, 0, 62, 48
2, 875597, Note_on_c, 0, 58, 52
2, 876358, Control_c, 0, 64, 127
2, 878329, Note_on_c, 0, 82, 0
2, 878387, Note_on_c, 0, 62, 0
2, 878436, Note_on_c, 0, 84, 63
2, 878440, Note_on_c, 0, 81, 53
2, 878450, Note_on_c, 0, 57, 0
2, 878464, Note_on_c, 0, 86, 0
2, 878484, Note_on_c, 0, 58, 0
2, 878544, Note_on_c, 0, 55, 0
2, 878637, Note_on_c, 0, 84, 0
2, 878651, Note_on_c, 0, 81, 0
2, 879452, Note_on_c, 0, 75, 53
2, 879466, Note_on_c, 0, 82, 58
2, 879471, Note_on_c, 0, 63, 44
2, 879487, Note_on_c, 0, 59, 44
2, 879497, Control_c, 0, 64, 0
2, 879499, Note_on_c, 0, 53, 51
2, 880201, Control_c, 0, 64, 127
2, 881080, Note_on_c, 0, 75, 0
2, 881175, Note_on_c, 0, 82, 0
2, 881335, Note_on_c, 0, 75, 39
2, 881354, Note_on_c, 0, 79, 50
2, 881411, Note_on_c, 0, 71, 44
2, 881682, Note_on_c, 0, 53, 0
2, 881775, Note_on_c, 0, 59, 0
2, 882028, Note_on_c, 0, 63, 0
2, 882081, Note_on_c, 0, 79, 0
2, 882384, Note_on_c, 0, 75, 0
2, 882414, Note_on_c, 0, 71, 0
2, 883209, Note_on_c, 0, 75, 45
2, 883230, Note_on_c, 0, 70, 53
2, 883252, Note_on_c, 0, 63, 43
2, 883271, Note_on_c, 0, 60, 46
2, 883281, Control_c, 0, 64, 0
2, 883290, Note_on_c, 0, 67, 22
2, 883950, Control_c, 0, 64, 127
2, 885015, Note_on_c, 0, 63, 0
2, 885182, Note_on_c, 0, 75, 0
2, 885216, Note_on_c, 0, 60, 0
2, 885267, Note_on_c, 0, 70, 0
2, 885462, Note_on_c, 0, 67, 0
2, 889570, Note_on_c, 0, 63, 76
2, 889573, Note_on_c, 0, 74, 85
2, 889577, Note_on_c, 0, 67, 78
2, 889596, Note_on_c, 0, 62, 66
2, 890042, Note_on_c, 0, 74, 0
2, 890131, Note_on_c, 0, 63, 0
2, 890158, Note_on_c, 0, 62, 0
2, 890200, Note_on_c, 0, 67, 0
2, 890216, Note_on_c, 0, 72, 86
2, 890557, Note_on_c, 0, 72, 0
2, 890878, Note_on_c, 0, 54, 52
2, 890885, Note_on_c, 0, 70, 85
2, 890890, Note_on_c, 0, 72, 81
2, 890893, Note_on_c, 0, 58, 57
2, 890895, Note_on_c, 0, 65, 40
2, 890906, Control_c, 0, 64, 0
2, 890920, Note_on_c, 0, 60, 61
2, 891546, Note_on_c, 0, 66, 69
2, 891594, Note_on_c, 0, 65, 0
2, 891831, Control_c, 0, 64, 127
2, 891997, Note_on_c, 0, 66, 0
2, 892036, Note_on_c, 0, 70, 0
2, 892222, Note_on_c, 0, 66, 69
2, 892236, Note_on_c, 0, 70, 55
2, 892616, Note_on_c, 0, 70, 0
2, 892622, Note_on_c, 0, 66, 0
2, 892738, Note_on_c, 0, 72, 0
2, 892963, Note_on_c, 0, 66, 60
2, 892975, Note_on_c, 0, 70, 66
2, 892979, Note_on_c, 0, 72, 53
2, 893435, Note_on_c, 0, 60, 0
2, 893595, Note_on_c, 0, 65, 62
2, 893607, Note_on_c, 0, 54, 0
2, 893725, Note_on_c, 0, 58, 0
2, 893887, Note_on_c, 0, 66, 0
2, 893947, Note_on_c, 0, 70, 0
2, 894012, Note_on_c, 0, 72, 0
2, 894063, Note_on_c, 0, 65, 0
2, 894308, Note_on_c, 0, 66, 67
2, 894336, Note_on_c, 0, 70, 66
2, 894345, Control_c, 0, 64, 0
2, 894353, Note_on_c, 0, 72, 57
2, 894385, Note_on_c, 0, 60, 46
2, 894406, Note_on_c, 0, 53, 45
2, 894670, Note_on_c, 0, 70, 0
2, 894718, Note_on_c, 0, 66, 0
2, 894718, Note_on_c, 0, 72, 0
2, 895022, Note_on_c, 0, 66, 50
2, 895042, Note_on_c, 0, 70, 65
2, 895047, Note_on_c, 0, 72, 52
2, 895156, Control_c, 0, 64, 127
2, 895666, Note_on_c, 0, 65, 65
2, 895765, Note_on_c, 0, 60, 0
2, 895848, Note_on_c, 0, 66, 0
2, 895909, Note_on_c, 0, 70, 0
2, 896017, Note_on_c, 0, 72, 0
2, 896152, Note_on_c, 0, 65, 0
2, 896275, Note_on_c, 0, 66, 69
2, 896281, Control_c, 0, 64, 0
2, 896291, Note_on_c, 0, 70, 66
2, 896309, Note_on_c, 0, 72, 65
2, 896334, Note_on_c, 0, 60, 45
2, 896656, Control_c, 0, 64, 127
2, 896710, Note_on_c, 0, 72, 0
2, 896715, Note_on_c, 0, 66, 0
2, 896717, Note_on_c, 0, 70, 0
2, 896944, Note_on_c, 0, 66, 63
2, 896950, Note_on_c, 0, 72, 55
2, 897073, Note_on_c, 0, 60, 0
2, 897228, Note_on_c, 0, 53, 0
2, 897592, Note_on_c, 0, 65, 61
2, 897595, Note_on_c, 0, 70, 60
2, 897608, Note_on_c, 0, 72, 0
2, 898138, Note_on_c, 0, 65, 0
2, 898164, Note_on_c, 0, 70, 0
2, 898197, Note_on_c, 0, 66, 0
2, 898595, Note_on_c, 0, 69, 60
2, 898600, Control_c, 0, 64, 0
2, 898609, Note_on_c, 0, 46, 40
2, 898623, Note_on_c, 0, 65, 43
2, 898651, Note_on_c, 0, 53, 40
2, 898681, Note_on_c, 0, 57, 44
2, 899106, Control_c, 0, 64, 127
2, 899304, Note_on_c, 0, 65, 0
2, 899341, Note_on_c, 0, 53, 0
2, 899370, Note_on_c, 0, 46, 0
2, 899431, Note_on_c, 0, 69, 0
2, 899521, Note_on_c, 0, 57, 0
2, 901687, Note_on_c, 0, 89, 89
2, 901749, Note_on_c, 0, 86, 88
2, 901795, Note_on_c, 0, 77, 78
2, 901950, Note_on_c, 0, 89, 0
2, 901962, Note_on_c, 0, 86, 0
2, 902024, Note_on_c, 0, 77, 0
2, 902307, Note_on_c, 0, 86, 65
2, 902386, Note_on_c, 0, 81, 61
2, 902399, Note_on_c, 0, 74, 67
2, 902414, Control_c, 0, 64, 0
2, 902458, Note_on_c, 0, 65, 34
2, 902465, Note_on_c, 0, 62, 39
2, 902488, Note_on_c, 0, 55, 49
2, 902490, Note_on_c, 0, 60, 45
2, 903027, Control_c, 0, 64, 127
2, 904525, Note_on_c, 0, 74, 0
2, 904602, Note_on_c, 0, 81, 0
2, 904621, Note_on_c, 0, 60, 0
2, 904628, Note_on_c, 0, 62, 0
2, 904676, Note_on_c, 0, 65, 0
2, 904819, Note_on_c, 0, 55, 0
2, 904882, Note_on_c, 0, 86, 0
2, 906227, Note_on_c, 0, 91, 81
2, 906256, Control_c, 0, 64, 0
2, 906271, Note_on_c, 0, 87, 80
2, 906281, Note_on_c, 0, 56, 55
2, 906295, Note_on_c, 0, 63, 56
2, 906304, Note_on_c, 0, 84, 69
2, 906306, Note_on_c, 0, 67, 48
2, 906364, Note_on_c, 0, 60, 48
2, 906366, Note_on_c, 0, 79, 45
2, 906675, Control_c, 0, 64, 127
2, 907325, Note_on_c, 0, 79, 0
2, 907372, Note_on_c, 0, 60, 0
2, 907453, Note_on_c, 0, 84, 0
2, 907478, Note_on_c, 0, 91, 0
2, 907525, Note_on_c, 0, 63, 0
2, 907552, Note_on_c, 0, 87, 0
2, 907562, Note_on_c, 0, 56, 0
2, 907571, Note_on_c, 0, 67, 0
2, 908715, Note_on_c, 0, 94, 69
2, 908784, Note_on_c, 0, 87, 62
2, 908789, Note_on_c, 0, 63, 47
2, 908793, Note_on_c, 0, 67, 36
2, 908805, Note_on_c, 0, 56, 41
2, 908828, Note_on_c, 0, 60, 54
2, 908976, Note_on_c, 0, 82, 11
2, 909224, Note_on_c, 0, 82, 0
2, 909226, Note_on_c, 0, 87, 0
2, 909345, Note_on_c, 0, 94, 0
2, 909361, Note_on_c, 0, 63, 0
2, 909393, Note_on_c, 0, 60, 0
2, 909396, Note_on_c, 0, 67, 0
2, 909453, Note_on_c, 0, 56, 0
2, 910655, Note_on_c, 0, 98, 81
2, 910663, Control_c, 0, 64, 0
2, 910681, Note_on_c, 0, 90, 65
2, 910699, Note_on_c, 0, 94, 64
2, 910700, Note_on_c, 0, 66, 46
2, 910704, Note_on_c, 0, 86, 55
2, 910706, Note_on_c, 0, 56, 52
2, 910759, Note_on_c, 0, 62, 51
2, 910769, Note_on_c, 0, 60, 55
2, 911026, Control_c, 0, 64, 127
2, 911146, Note_on_c, 0, 86, 0
2, 911169, Note_on_c, 0, 98, 0
2, 911170, Note_on_c, 0, 56, 0
2, 911193, Note_on_c, 0, 66, 0
2, 911195, Note_on_c, 0, 60, 0
2, 911221, Note_on_c, 0, 62, 0
2, 911234, Note_on_c, 0, 94, 0
2, 911243, Note_on_c, 0, 90, 0
2, 911438, Note_on_c, 0, 94, 72
2, 911447, Note_on_c, 0, 66, 65
2, 911478, Note_on_c, 0, 56, 53
2, 911482, Note_on_c, 0, 82, 65
2, 911499, Note_on_c, 0, 62, 43
2, 911579, Note_on_c, 0, 60, 40
2, 911818, Note_on_c, 0, 56, 0
2, 911837, Note_on_c, 0, 60, 0
2, 911871, Note_on_c, 0, 94, 0
2, 911883, Note_on_c, 0, 66, 0
2, 911908, Note_on_c, 0, 82, 0
2, 911957, Note_on_c, 0, 62, 0
2, 912761, Control_c, 0, 64, 0
2, 912765, Note_on_c, 0, 66, 65
2, 912779, Note_on_c, 0, 91, 72
2, 912793, Note_on_c, 0, 79, 77
2, 912818, Note_on_c, 0, 56, 49
2, 912837, Note_on_c, 0, 62, 49
2, 912876, Note_on_c, 0, 60, 46
2, 913038, Control_c, 0, 64, 127
2, 913055, Note_on_c, 0, 91, 0
2, 913127, Note_on_c, 0, 56, 0
2, 913136, Note_on_c, 0, 79, 0
2, 913157, Note_on_c, 0, 60, 0
2, 913179, Note_on_c, 0, 66, 0
2, 913205, Note_on_c, 0, 62, 0
2, 913457, Note_on_c, 0, 66, 63
2, 913472, Note_on_c, 0, 89, 57
2, 913492, Note_on_c, 0, 56, 57
2, 913499, Note_on_c, 0, 77, 67
2, 913638, Note_on_c, 0, 89, 0
2, 913717, Note_on_c, 0, 77, 0
2, 913742, Note_on_c, 0, 66, 0
2, 913839, Note_on_c, 0, 56, 0
2, 914074, Control_c, 0, 64, 0
2, 914080, Note_on_c, 0, 86, 69
2, 914088, Note_on_c, 0, 74, 64
2, 914101, Note_on_c, 0, 62, 50
2, 914110, Note_on_c, 0, 65, 50
2, 914120, Note_on_c, 0, 60, 52
2, 914150, Note_on_c, 0, 55, 52
2, 914467, Control_c, 0, 64, 127
2, 914808, Note_on_c, 0, 86, 0
2, 914937, Note_on_c, 0, 55, 0
2, 914960, Note_on_c, 0, 60, 0
2, 914974, Note_on_c, 0, 74, 0
2, 914979, Note_on_c, 0, 62, 0
2, 915021, Note_on_c, 0, 65, 0
2, 915827, Control_c, 0, 64, 104
2, 915834, Control_c, 0, 64, 0
2, 915840, Note_on_c, 0, 70, 52
2, 915843, Note_on_c, 0, 82, 54
2, 915871, Note_on_c, 0, 65, 40
2, 915884, Note_on_c, 0, 55, 47
2, 915887, Note_on_c, 0, 62, 51
2, 915896, Note_on_c, 0, 60, 46
2, 916375, Control_c, 0, 64, 127
2, 916878, Note_on_c, 0, 82, 0
2, 916947, Note_on_c, 0, 70, 0
2, 916975, Note_on_c, 0, 65, 0
2, 916992, Note_on_c, 0, 60, 0
2, 917014, Note_on_c, 0, 62, 0
2, 917139, Note_on_c, 0, 55, 0
2, 921403, Control_c, 0, 64, 0
2, 921484, Note_on_c, 0, 63, 53
2, 921503, Note_on_c, 0, 62, 47
2, 921519, Note_on_c, 0, 69, 56
2, 921524, Note_on_c, 0, 67, 52
2, 921630, Note_on_c, 0, 67, 0
2, 921642, Note_on_c, 0, 63, 0
2, 921649, Note_on_c, 0, 62, 0
2, 921702, Note_on_c, 0, 69, 0
2, 922047, Note_on_c, 0, 63, 40
2, 922065, Note_on_c, 0, 62, 46
2, 922068, Note_on_c, 0, 69, 47
2, 922089, Note_on_c, 0, 67, 42
2, 922179, Note_on_c, 0, 62, 0
2, 922186, Note_on_c, 0, 63, 0
2, 922190, Note_on_c, 0, 67, 0
2, 922228, Note_on_c, 0, 69, 0
2, 922948, Note_on_c, 0, 63, 41
2, 922991, Note_on_c, 0, 69, 54
2, 922994, Note_on_c, 0, 67, 48
2, 923031, Note_on_c, 0, 62, 39
2, 923156, Note_on_c, 0, 62, 0
2, 923170, Note_on_c, 0, 67, 0
2, 923207, Note_on_c, 0, 69, 0
2, 923228, Note_on_c, 0, 63, 0
2, 923541, Note_on_c, 0, 63, 37
2, 923573, Note_on_c, 0, 62, 40
2, 923575, Note_on_c, 0, 67, 47
2, 923585, Note_on_c, 0, 69, 49
2, 923747, Note_on_c, 0, 62, 0
2, 923767, Note_on_c, 0, 67, 0
2, 923769, Note_on_c, 0, 69, 0
2, 923825, Note_on_c, 0, 63, 0
2, 924935, Note_on_c, 0, 67, 61
2, 924949, Note_on_c, 0, 63, 37
2, 924953, Note_on_c, 0, 62, 53
2, 924983, Note_on_c, 0, 69, 54
2, 925083, Note_on_c, 0, 63, 0
2, 925103, Note_on_c, 0, 62, 0
2, 925115, Note_on_c, 0, 67, 0
2, 925157, Note_on_c, 0, 69, 0
2, 925902, Note_on_c, 0, 66, 50
2, 925909, Note_on_c, 0, 62, 49
2, 925910, Note_on_c, 0, 69, 50
2, 925935, Note_on_c, 0, 63, 24
2, 926020, Note_on_c, 0, 66, 0
2, 926042, Note_on_c, 0, 62, 0
2, 926063, Note_on_c, 0, 63, 0
2, 926093, Note_on_c, 0, 69, 0
2, 926401, Note_on_c, 0, 66, 49
2, 926405, Note_on_c, 0, 63, 28
2, 926409, Note_on_c, 0, 69, 51
2, 926410, Note_on_c, 0, 62, 45
2, 926644, Note_on_c, 0, 62, 0
2, 926657, Note_on_c, 0, 66, 0
2, 926680, Note_on_c, 0, 69, 0
2, 926697, Note_on_c, 0, 63, 0
2, 927765, Note_on_c, 0, 63, 51
2, 927780, Note_on_c, 0, 66, 56
2, 927794, Note_on_c, 0, 62, 52
2, 927804, Note_on_c, 0, 69, 51
2, 927917, Note_on_c, 0, 69, 0
2, 927934, Note_on_c, 0, 63, 0
2, 927970, Note_on_c, 0, 66, 0
2, 927980, Note_on_c, 0, 62, 0
2, 928700, Note_on_c, 0, 62, 53
2, 928703, Note_on_c, 0, 63, 52
2, 928730, Note_on_c, 0, 66, 46
2, 928753, Note_on_c, 0, 69, 49
2, 928872, Note_on_c, 0, 62, 0
2, 928876, Note_on_c, 0, 69, 0
2, 928899, Note_on_c, 0, 63, 0
2, 928980, Note_on_c, 0, 66, 0
2, 929664, Note_on_c, 0, 62, 48
2, 929693, Note_on_c, 0, 67, 49
2, 929696, Note_on_c, 0, 65, 43
2, 929701, Note_on_c, 0, 70, 50
2, 929705, Note_on_c, 0, 58, 46
2, 929811, Note_on_c, 0, 70, 0
2, 929819, Note_on_c, 0, 65, 0
2, 929835, Note_on_c, 0, 67, 0
2, 929862, Note_on_c, 0, 62, 0
2, 929921, Note_on_c, 0, 58, 0
2, 930157, Note_on_c, 0, 65, 46
2, 930171, Note_on_c, 0, 67, 55
2, 930175, Note_on_c, 0, 70, 49
2, 930178, Note_on_c, 0, 58, 43
2, 930201, Note_on_c, 0, 62, 34
2, 930286, Note_on_c, 0, 60, 32
2, 930400, Note_on_c, 0, 60, 0
2, 930428, Note_on_c, 0, 65, 0
2, 930435, Note_on_c, 0, 62, 0
2, 930446, Note_on_c, 0, 67, 0
2, 930467, Note_on_c, 0, 70, 0
2, 930502, Note_on_c, 0, 58, 0
2, 931727, Note_on_c, 0, 58, 48
2, 931736, Note_on_c, 0, 67, 56
2, 931738, Note_on_c, 0, 70, 45
2, 931741, Note_on_c, 0, 65, 47
2, 931776, Note_on_c, 0, 62, 33
2, 931798, Note_on_c, 0, 60, 45
2, 931908, Note_on_c, 0, 60, 0
2, 931915, Note_on_c, 0, 62, 0
2, 931940, Note_on_c, 0, 67, 0
2, 931944, Note_on_c, 0, 65, 0
2, 931979, Note_on_c, 0, 58, 0
2, 931986, Note_on_c, 0, 70, 0
2, 932583, Note_on_c, 0, 65, 55
2, 932583, Note_on_c, 0, 70, 46
2, 932600, Note_on_c, 0, 67, 55
2, 932600, Note_on_c, 0, 62, 42
2, 932614, Note_on_c, 0, 58, 48
2, 932662, Note_on_c, 0, 60, 44
2, 932723, Note_on_c, 0, 67, 0
2, 932723, Note_on_c, 0, 70, 0
2, 932736, Note_on_c, 0, 65, 0
2, 932755, Note_on_c, 0, 60, 0
2, 932764, Note_on_c, 0, 62, 0
2, 932841, Note_on_c, 0, 58, 0
2, 933489, Note_on_c, 0, 70, 47
2, 933491, Note_on_c, 0, 62, 40
2, 933492, Note_on_c, 0, 58, 45
2, 933505, Note_on_c, 0, 65, 40
2, 933593, Note_on_c, 0, 65, 0
2, 933686, Note_on_c, 0, 70, 0
2, 933700, Control_c, 0, 64, 127
2, 933769, Control_c, 0, 64, 0
2, 933844, Note_on_c, 0, 58, 0
2, 933850, Note_on_c, 0, 62, 0
2, 933968, Note_on_c, 0, 54, 60
2, 933976, Note_on_c, 0, 72, 42
2, 933990, Note_on_c, 0, 71, 40
2, 934015, Note_on_c, 0, 77, 46
2, 934029, Note_on_c, 0, 60, 36
2, 934235, Note_on_c, 0, 71, 0
2, 934480, Control_c, 0, 64, 127
2, 934804, Note_on_c, 0, 77, 0
2, 934816, Note_on_c, 0, 72, 0
2, 934876, Control_c, 0, 64, 0
2, 934929, Note_on_c, 0, 75, 63
2, 934939, Note_on_c, 0, 66, 59
2, 934948, Note_on_c, 0, 65, 53
2, 934966, Note_on_c, 0, 72, 39
2, 935279, Control_c, 0, 64, 127
2, 935685, Note_on_c, 0, 60, 0
2, 935698, Note_on_c, 0, 65, 0
2, 935893, Note_on_c, 0, 72, 0
2, 935916, Note_on_c, 0, 54, 0
2, 935955, Note_on_c, 0, 66, 0
2, 935999, Note_on_c, 0, 75, 0
2, 936889, Control_c, 0, 64, 0
2, 936907, Note_on_c, 0, 74, 54
2, 936907, Note_on_c, 0, 58, 43
2, 936909, Note_on_c, 0, 65, 48
2, 936926, Note_on_c, 0, 69, 58
2, 936935, Note_on_c, 0, 70, 47
2, 936954, Note_on_c, 0, 62, 43
2, 936986, Note_on_c, 0, 57, 39
2, 936997, Note_on_c, 0, 55, 45
2, 938774, Control_c, 0, 64, 127
2, 939823, Note_on_c, 0, 62, 0
2, 939855, Note_on_c, 0, 57, 0
2, 939883, Note_on_c, 0, 58, 0
2, 939915, Note_on_c, 0, 69, 0
2, 940015, Note_on_c, 0, 65, 0
2, 940047, Note_on_c, 0, 55, 0
2, 940128, Note_on_c, 0, 70, 0
2, 940809, Note_on_c, 0, 67, 45
2, 940812, Note_on_c, 0, 64, 47
2, 940839, Control_c, 0, 64, 0
2, 940856, Note_on_c, 0, 62, 38
2, 940860, Note_on_c, 0, 58, 33
2, 940920, Note_on_c, 0, 52, 45
2, 941388, Control_c, 0, 64, 127
2, 941627, Note_on_c, 0, 64, 0
2, 942201, Note_on_c, 0, 67, 0
2, 942387, Note_on_c, 0, 74, 0
2, 943213, Note_on_c, 0, 58, 0
2, 943215, Note_on_c, 0, 52, 0
2, 943359, Note_on_c, 0, 62, 0
2, 944179, Note_on_c, 0, 81, 102
2, 944424, Note_on_c, 0, 81, 0
2, 944651, Note_on_c, 0, 81, 84
2, 944725, Note_on_c, 0, 75, 78
2, 944737, Note_on_c, 0, 79, 72
2, 944755, Note_on_c, 0, 70, 70
2, 944764, Control_c, 0, 64, 0
2, 944772, Note_on_c, 0, 69, 65
2, 945262, Control_c, 0, 64, 127
2, 945373, Note_on_c, 0, 79, 0
2, 945452, Note_on_c, 0, 69, 0
2, 945661, Note_on_c, 0, 79, 66
2, 945684, Note_on_c, 0, 67, 60
2, 945906, Note_on_c, 0, 79, 0
2, 946335, Note_on_c, 0, 75, 0
2, 946420, Note_on_c, 0, 70, 0
2, 946687, Note_on_c, 0, 63, 50
2, 946787, Note_on_c, 0, 67, 0
2, 946789, Note_on_c, 0, 80, 6
2, 947162, Note_on_c, 0, 81, 0
2, 947273, Note_on_c, 0, 63, 0
2, 947442, Note_on_c, 0, 80, 0
2, 948530, Note_on_c, 0, 75, 61
2, 948577, Note_on_c, 0, 71, 55
2, 948586, Note_on_c, 0, 67, 49
2, 948600, Note_on_c, 0, 63, 29
2, 948614, Control_c, 0, 64, 0
2, 948616, Note_on_c, 0, 53, 45
2, 948634, Note_on_c, 0, 59, 51
2, 949253, Control_c, 0, 64, 127
2, 951085, Note_on_c, 0, 71, 0
2, 951112, Note_on_c, 0, 63, 0
2, 951180, Note_on_c, 0, 53, 0
2, 951186, Note_on_c, 0, 59, 0
2, 951210, Note_on_c, 0, 67, 0
2, 951231, Note_on_c, 0, 75, 0
2, 952323, Note_on_c, 0, 74, 89
2, 952379, Note_on_c, 0, 67, 69
2, 952407, Note_on_c, 0, 70, 69
2, 952430, Note_on_c, 0, 63, 87
2, 952451, Control_c, 0, 64, 0
2, 953352, Note_on_c, 0, 62, 72
2, 953542, Control_c, 0, 64, 127
2, 954331, Note_on_c, 0, 72, 80
2, 954357, Note_on_c, 0, 62, 0
2, 954370, Note_on_c, 0, 74, 0
2, 954658, Note_on_c, 0, 67, 0
2, 955522, Note_on_c, 0, 63, 0
2, 955637, Note_on_c, 0, 67, 62
2, 955790, Note_on_c, 0, 70, 0
2, 955878, Note_on_c, 0, 67, 0
2, 955902, Note_on_c, 0, 72, 0
2, 956247, Note_on_c, 0, 62, 51
2, 956254, Note_on_c, 0, 66, 54
2, 956267, Note_on_c, 0, 57, 40
2, 956284, Note_on_c, 0, 51, 47
2, 956295, Control_c, 0, 64, 0
2, 957226, Note_on_c, 0, 57, 0
2, 957240, Note_on_c, 0, 51, 0
2, 957240, Note_on_c, 0, 62, 0
2, 957435, Note_on_c, 0, 66, 0
2, 958104, Note_on_c, 0, 51, 45
2, 958108, Note_on_c, 0, 57, 40
2, 958682, Note_on_c, 0, 51, 0
2, 958718, Note_on_c, 0, 57, 0
2, 959102, Note_on_c, 0, 77, 106
2, 959346, Note_on_c, 0, 77, 0
2, 960045, Note_on_c, 0, 65, 51
2, 960110, Note_on_c, 0, 77, 79
2, 960133, Note_on_c, 0, 60, 43
2, 960135, Note_on_c, 0, 62, 49
2, 961761, Control_c, 0, 64, 127
2, 962456, Note_on_c, 0, 74, 76
2, 962662, Note_on_c, 0, 62, 0
2, 962767, Note_on_c, 0, 60, 0
2, 962935, Note_on_c, 0, 70, 64
2, 962939, Note_on_c, 0, 65, 0
2, 963820, Note_on_c, 0, 74, 0
2, 963851, Note_on_c, 0, 70, 0
2, 963943, Note_on_c, 0, 77, 0
2, 963968, Note_on_c, 0, 67, 52
2, 963986, Note_on_c, 0, 60, 46
2, 963997, Note_on_c, 0, 65, 41
2, 964008, Control_c, 0, 64, 0
2, 964010, Note_on_c, 0, 55, 48
2, 964908, Control_c, 0, 64, 127
2, 965204, Note_on_c, 0, 67, 0
2, 965822, Note_on_c, 0, 70, 59
2, 965993, Note_on_c, 0, 70, 0
2, 966488, Note_on_c, 0, 74, 107
2, 966573, Note_on_c, 0, 65, 0
2, 966705, Note_on_c, 0, 60, 0
2, 966801, Note_on_c, 0, 74, 0
2, 966817, Note_on_c, 0, 55, 0
2, 967081, Note_on_c, 0, 77, 127
2, 967594, Note_on_c, 0, 77, 0
2, 967695, Control_c, 0, 64, 0
2, 967720, Note_on_c, 0, 79, 102
2, 967762, Note_on_c, 0, 76, 89
2, 967773, Note_on_c, 0, 72, 92
2, 967785, Note_on_c, 0, 50, 61
2, 967803, Note_on_c, 0, 57, 53
2, 967805, Note_on_c, 0, 60, 63
2, 967825, Note_on_c, 0, 67, 78
2, 967829, Note_on_c, 0, 53, 50
2, 968235, Control_c, 0, 64, 127
2, 968909, Note_on_c, 0, 67, 0
2, 969019, Note_on_c, 0, 79, 0
2, 969259, Note_on_c, 0, 72, 0
2, 969312, Note_on_c, 0, 76, 0
2, 969379, Note_on_c, 0, 81, 86
2, 969758, Note_on_c, 0, 81, 0
2, 970085, Note_on_c, 0, 79, 77
2, 970385, Note_on_c, 0, 53, 0
2, 970486, Note_on_c, 0, 57, 0
2, 970569, Note_on_c, 0, 50, 0
2, 970793, Note_on_c, 0, 60, 0
2, 971420, Note_on_c, 0, 79, 0
2, 971584, Note_on_c, 0, 68, 59
2, 971640, Note_on_c, 0, 74, 61
2, 971678, Note_on_c, 0, 62, 58
2, 971696, Note_on_c, 0, 71, 53
2, 971711, Control_c, 0, 64, 0
2, 972052, Control_c, 0, 64, 127
2, 972751, Note_on_c, 0, 68, 0
2, 973201, Note_on_c, 0, 71, 0
2, 973232, Note_on_c, 0, 74, 0
2, 973387, Note_on_c, 0, 62, 0
2, 973501, Note_on_c, 0, 59, 50
2, 973593, Note_on_c, 0, 59, 0
2, 973987, Note_on_c, 0, 74, 86
2, 974274, Note_on_c, 0, 74, 0
2, 974455, Note_on_c, 0, 75, 112
2, 974762, Note_on_c, 0, 75, 0
2, 974955, Note_on_c, 0, 77, 127
2, 975022, Note_on_c, 0, 76, 53
2, 975107, Note_on_c, 0, 76, 0
2, 975327, Note_on_c, 0, 77, 0
2, 975472, Note_on_c, 0, 63, 53
2, 975477, Note_on_c, 0, 62, 56
2, 975481, Note_on_c, 0, 67, 56
2, 975488, Note_on_c, 0, 79, 127
2, 975492, Note_on_c, 0, 60, 63
2, 975526, Control_c, 0, 64, 0
2, 975813, Note_on_c, 0, 79, 0
2, 975985, Note_on_c, 0, 79, 91
2, 976227, Note_on_c, 0, 79, 0
2, 976456, Note_on_c, 0, 79, 69
2, 976651, Note_on_c, 0, 79, 0
2, 976942, Note_on_c, 0, 79, 78
2, 977043, Control_c, 0, 64, 127
2, 977139, Note_on_c, 0, 79, 0
2, 977188, Control_c, 0, 64, 0
2, 977423, Note_on_c, 0, 79, 82
2, 977547, Control_c, 0, 64, 127
2, 977869, Note_on_c, 0, 72, 58
2, 978064, Note_on_c, 0, 72, 0
2, 978140, Note_on_c, 0, 79, 0
2, 978409, Note_on_c, 0, 67, 0
2, 978447, Note_on_c, 0, 72, 44
2, 978673, Note_on_c, 0, 62, 0
2, 978747, Note_on_c, 0, 63, 0
2, 978877, Note_on_c, 0, 60, 0
2, 979356, Note_on_c, 0, 84, 75
2, 979372, Control_c, 0, 64, 0
2, 979388, Note_on_c, 0, 72, 0
2, 979406, Note_on_c, 0, 58, 52
2, 979408, Note_on_c, 0, 60, 40
2, 979437, Note_on_c, 0, 67, 34
2, 979455, Note_on_c, 0, 63, 40
2, 979941, Control_c, 0, 64, 127
2, 980053, Note_on_c, 0, 84, 0
2, 980259, Note_on_c, 0, 84, 76
2, 980541, Note_on_c, 0, 84, 0
2, 980772, Note_on_c, 0, 84, 81
2, 980853, Note_on_c, 0, 67, 0
2, 980864, Note_on_c, 0, 63, 0
2, 981090, Note_on_c, 0, 84, 0
2, 981263, Note_on_c, 0, 84, 112
2, 981328, Note_on_c, 0, 67, 46
2, 981359, Note_on_c, 0, 63, 47
2, 981460, Note_on_c, 0, 67, 0
2, 981487, Note_on_c, 0, 60, 0
2, 981491, Note_on_c, 0, 63, 0
2, 981675, Note_on_c, 0, 58, 0
2, 981756, Note_on_c, 0, 72, 81
2, 981962, Note_on_c, 0, 72, 0
2, 982325, Note_on_c, 0, 72, 73
2, 982983, Note_on_c, 0, 72, 0
2, 982983, Note_on_c, 0, 84, 0
2, 983216, Note_on_c, 0, 60, 79
2, 983220, Control_c, 0, 64, 0
2, 983220, Note_on_c, 0, 55, 80
2, 983220, Note_on_c, 0, 81, 114
2, 983220, Note_on_c, 0, 65, 81
2, 983220, Note_on_c, 0, 61, 73
2, 983346, Note_on_c, 0, 78, 46
2, 983456, Note_on_c, 0, 78, 0
2, 983610, Note_on_c, 0, 81, 0
2, 983709, Control_c, 0, 64, 127
2, 983745, Note_on_c, 0, 81, 102
2, 984029, Note_on_c, 0, 81, 0
2, 984038, Note_on_c, 0, 55, 0
2, 984065, Note_on_c, 0, 65, 0
2, 984132, Note_on_c, 0, 61, 0
2, 984199, Note_on_c, 0, 81, 96
2, 984224, Note_on_c, 0, 55, 74
2, 984229, Note_on_c, 0, 65, 85
2, 984233, Note_on_c, 0, 61, 52
2, 984352, Note_on_c, 0, 58, 38
2, 984464, Note_on_c, 0, 58, 0
2, 984464, Note_on_c, 0, 65, 0
2, 984468, Note_on_c, 0, 81, 0
2, 984477, Note_on_c, 0, 55, 0
2, 984533, Note_on_c, 0, 60, 0
2, 984535, Note_on_c, 0, 61, 0
2, 984663, Note_on_c, 0, 81, 103
2, 984683, Note_on_c, 0, 65, 72
2, 984697, Note_on_c, 0, 55, 69
2, 984699, Note_on_c, 0, 60, 75
2, 984703, Note_on_c, 0, 61, 75
2, 984943, Note_on_c, 0, 55, 0
2, 984970, Note_on_c, 0, 65, 0
2, 984986, Note_on_c, 0, 81, 0
2, 985051, Note_on_c, 0, 61, 0
2, 985089, Note_on_c, 0, 60, 0
2, 985145, Note_on_c, 0, 81, 107
2, 985156, Note_on_c, 0, 60, 49
2, 985165, Note_on_c, 0, 55, 78
2, 985167, Note_on_c, 0, 65, 87
2, 985187, Note_on_c, 0, 61, 87
2, 985203, Control_c, 0, 64, 0
2, 985295, Control_c, 0, 64, 127
2, 986038, Note_on_c, 0, 81, 0
2, 986052, Note_on_c, 0, 72, 75
2, 986067, Note_on_c, 0, 65, 0
2, 986144, Note_on_c, 0, 60, 0
2, 986437, Note_on_c, 0, 61, 0
2, 986464, Note_on_c, 0, 72, 0
2, 986547, Note_on_c, 0, 55, 0
2, 987017, Note_on_c, 0, 69, 68
2, 987017, Note_on_c, 0, 73, 65
2, 987022, Note_on_c, 0, 61, 56
2, 987037, Control_c, 0, 64, 0
2, 987044, Note_on_c, 0, 55, 58
2, 987046, Note_on_c, 0, 64, 55
2, 987582, Control_c, 0, 64, 127
2, 988173, Note_on_c, 0, 69, 0
2, 988312, Note_on_c, 0, 61, 0
2, 988319, Note_on_c, 0, 64, 0
2, 988328, Note_on_c, 0, 73, 0
2, 988411, Note_on_c, 0, 55, 0
2, 988903, Note_on_c, 0, 81, 98
2, 988932, Note_on_c, 0, 76, 95
2, 988957, Note_on_c, 0, 73, 85
2, 988966, Note_on_c, 0, 61, 67
2, 988971, Note_on_c, 0, 69, 96
2, 988971, Note_on_c, 0, 64, 75
2, 988975, Note_on_c, 0, 55, 70
2, 989777, Note_on_c, 0, 81, 0
2, 990095, Note_on_c, 0, 64, 0
2, 990111, Note_on_c, 0, 76, 0
2, 990144, Note_on_c, 0, 69, 0
2, 990169, Note_on_c, 0, 61, 0
2, 990207, Note_on_c, 0, 55, 0
2, 990250, Note_on_c, 0, 79, 86
2, 990456, Note_on_c, 0, 73, 0
2, 990586, Note_on_c, 0, 79, 0
2, 990794, Note_on_c, 0, 69, 71
2, 990807, Note_on_c, 0, 79, 82
2, 990823, Note_on_c, 0, 72, 70
2, 990827, Control_c, 0, 64, 0
2, 990850, Note_on_c, 0, 64, 59
2, 990870, Note_on_c, 0, 76, 75
2, 991287, Control_c, 0, 64, 127
2, 991421, Note_on_c, 0, 76, 0
2, 991511, Note_on_c, 0, 79, 0
2, 991701, Note_on_c, 0, 72, 0
2, 991788, Note_on_c, 0, 72, 29
2, 991791, Note_on_c, 0, 77, 81
2, 991793, Note_on_c, 0, 64, 0
2, 991849, Note_on_c, 0, 62, 53
2, 992131, Note_on_c, 0, 72, 0
2, 992362, Note_on_c, 0, 62, 0
2, 992407, Note_on_c, 0, 69, 0
2, 992808, Note_on_c, 0, 69, 56
2, 993045, Note_on_c, 0, 69, 0
2, 993108, Note_on_c, 0, 77, 0
2, 994544, Control_c, 0, 64, 0
2, 994568, Note_on_c, 0, 54, 48
2, 994571, Note_on_c, 0, 60, 40
2, 994591, Note_on_c, 0, 50, 46
2, 995164, Note_on_c, 0, 62, 72
2, 995171, Control_c, 0, 64, 127
2, 995572, Note_on_c, 0, 50, 0
2, 995572, Note_on_c, 0, 54, 0
2, 995637, Note_on_c, 0, 62, 0
2, 995673, Note_on_c, 0, 60, 0
2, 996087, Note_on_c, 0, 65, 123
2, 996414, Note_on_c, 0, 65, 0
2, 996618, Note_on_c, 0, 65, 107
2, 996658, Note_on_c, 0, 60, 68
2, 996667, Note_on_c, 0, 54, 67
2, 997032, Note_on_c, 0, 65, 0
2, 997267, Note_on_c, 0, 60, 0
2, 997474, Note_on_c, 0, 69, 127
2, 997543, Note_on_c, 0, 54, 0
2, 997917, Note_on_c, 0, 69, 0
2, 998473, Note_on_c, 0, 72, 119
2, 998486, Note_on_c, 0, 57, 61
2, 998488, Note_on_c, 0, 58, 64
2, 998504, Note_on_c, 0, 62, 56
2, 998542, Control_c, 0, 64, 0
2, 998547, Note_on_c, 0, 55, 44
2, 999317, Control_c, 0, 64, 127
2, 999395, Note_on_c, 0, 69, 69
2, 999467, Note_on_c, 0, 72, 0
2, 999633, Note_on_c, 0, 62, 0
2, 999637, Note_on_c, 0, 58, 0
2, 999843, Note_on_c, 0, 69, 0
2, 999967, Note_on_c, 0, 57, 0
2, 1000005, Note_on_c, 0, 70, 81
2, 1000016, Control_c, 0, 64, 0
2, 1000020, Note_on_c, 0, 62, 67
2, 1000041, Note_on_c, 0, 58, 52
2, 1000350, Note_on_c, 0, 62, 0
2, 1000390, Control_c, 0, 64, 127
2, 1000587, Note_on_c, 0, 58, 0
2, 1000804, Note_on_c, 0, 55, 0
2, 1002319, Note_on_c, 0, 63, 58
2, 1002319, Note_on_c, 0, 59, 55
2, 1002339, Control_c, 0, 64, 0
2, 1002379, Note_on_c, 0, 49, 51
2, 1002381, Note_on_c, 0, 67, 51
2, 1002384, Note_on_c, 0, 56, 52
2, 1002744, Control_c, 0, 64, 127
2, 1003318, Note_on_c, 0, 56, 0
2, 1003329, Note_on_c, 0, 59, 0
2, 1003555, Note_on_c, 0, 63, 0
2, 1004041, Note_on_c, 0, 67, 0
2, 1004147, Note_on_c, 0, 63, 56
2, 1004171, Note_on_c, 0, 70, 0
2, 1004191, Note_on_c, 0, 56, 44
2, 1004420, Note_on_c, 0, 63, 0
2, 1004458, Note_on_c, 0, 49, 0
2, 1004489, Note_on_c, 0, 56, 0
2, 1006133, Control_c, 0, 64, 0
2, 1006169, Note_on_c, 0, 94, 70
2, 1006178, Note_on_c, 0, 67, 55
2, 1006187, Note_on_c, 0, 60, 59
2, 1006212, Note_on_c, 0, 82, 56
2, 1006214, Note_on_c, 0, 63, 56
2, 1006317, Note_on_c, 0, 91, 52
2, 1006418, Control_c, 0, 64, 127
2, 1006799, Note_on_c, 0, 91, 0
2, 1006803, Note_on_c, 0, 82, 0
2, 1006808, Note_on_c, 0, 94, 0
2, 1006886, Note_on_c, 0, 60, 0
2, 1006931, Note_on_c, 0, 67, 0
2, 1006982, Note_on_c, 0, 63, 0
2, 1007590, Note_on_c, 0, 94, 85
2, 1007596, Note_on_c, 0, 67, 78
2, 1007601, Note_on_c, 0, 63, 69
2, 1007610, Note_on_c, 0, 82, 90
2, 1007632, Note_on_c, 0, 60, 69
2, 1007641, Note_on_c, 0, 91, 72
2, 1007800, Note_on_c, 0, 82, 0
2, 1007874, Note_on_c, 0, 67, 0
2, 1007876, Note_on_c, 0, 94, 0
2, 1007896, Note_on_c, 0, 60, 0
2, 1007914, Note_on_c, 0, 91, 0
2, 1007966, Note_on_c, 0, 63, 0
2, 1008170, Note_on_c, 0, 63, 70
2, 1008185, Note_on_c, 0, 94, 92
2, 1008192, Note_on_c, 0, 67, 85
2, 1008206, Note_on_c, 0, 82, 98
2, 1008217, Note_on_c, 0, 60, 77
2, 1008230, Note_on_c, 0, 91, 85
2, 1008494, Note_on_c, 0, 82, 0
2, 1008521, Note_on_c, 0, 94, 0
2, 1008591, Note_on_c, 0, 67, 0
2, 1008613, Note_on_c, 0, 91, 0
2, 1008651, Note_on_c, 0, 60, 0
2, 1008662, Note_on_c, 0, 63, 0
2, 1008869, Note_on_c, 0, 94, 86
2, 1008878, Note_on_c, 0, 63, 67
2, 1008893, Note_on_c, 0, 82, 88
2, 1008893, Note_on_c, 0, 60, 77
2, 1008900, Note_on_c, 0, 67, 78
2, 1008907, Note_on_c, 0, 91, 78
2, 1009122, Note_on_c, 0, 82, 0
2, 1009164, Note_on_c, 0, 94, 0
2, 1009211, Note_on_c, 0, 67, 0
2, 1009229, Note_on_c, 0, 91, 0
2, 1009285, Note_on_c, 0, 63, 0
2, 1009292, Note_on_c, 0, 60, 0
2, 1009621, Control_c, 0, 64, 0
2, 1009650, Note_on_c, 0, 94, 100
2, 1009650, Note_on_c, 0, 58, 102
2, 1009673, Note_on_c, 0, 67, 94
2, 1009677, Note_on_c, 0, 82, 99
2, 1009686, Note_on_c, 0, 63, 86
2, 1009695, Note_on_c, 0, 91, 86
2, 1009953, Control_c, 0, 64, 127
2, 1009959, Note_on_c, 0, 91, 0
2, 1009975, Note_on_c, 0, 94, 0
2, 1010007, Note_on_c, 0, 82, 0
2, 1010165, Note_on_c, 0, 58, 0
2, 1010188, Note_on_c, 0, 67, 0
2, 1010190, Note_on_c, 0, 63, 0
2, 1010582, Note_on_c, 0, 87, 98
2, 1010587, Note_on_c, 0, 75, 96
2, 1010593, Note_on_c, 0, 58, 97
2, 1010607, Note_on_c, 0, 63, 83
2, 1010609, Note_on_c, 0, 67, 89
2, 1010759, Note_on_c, 0, 75, 0
2, 1010797, Note_on_c, 0, 67, 0
2, 1010860, Note_on_c, 0, 87, 0
2, 1010898, Note_on_c, 0, 58, 0
2, 1010923, Note_on_c, 0, 63, 0
2, 1011371, Note_on_c, 0, 91, 98
2, 1011384, Note_on_c, 0, 58, 92
2, 1011386, Note_on_c, 0, 79, 95
2, 1011391, Note_on_c, 0, 63, 86
2, 1011400, Note_on_c, 0, 67, 85
2, 1011545, Note_on_c, 0, 67, 0
2, 1011552, Note_on_c, 0, 79, 0
2, 1011574, Note_on_c, 0, 91, 0
2, 1011595, Note_on_c, 0, 58, 0
2, 1011673, Note_on_c, 0, 63, 0
2, 1011884, Note_on_c, 0, 94, 109
2, 1011888, Note_on_c, 0, 82, 107
2, 1011908, Note_on_c, 0, 67, 89
2, 1011908, Note_on_c, 0, 58, 97
2, 1011913, Note_on_c, 0, 63, 81
2, 1012193, Note_on_c, 0, 82, 0
2, 1012226, Note_on_c, 0, 94, 0
2, 1012278, Note_on_c, 0, 67, 0
2, 1012298, Note_on_c, 0, 58, 0
2, 1012345, Note_on_c, 0, 63, 0
2, 1012764, Note_on_c, 0, 58, 94
2, 1012777, Note_on_c, 0, 63, 91
2, 1012780, Note_on_c, 0, 67, 88
2, 1012795, Note_on_c, 0, 96, 118
2, 1012818, Note_on_c, 0, 84, 103
2, 1012943, Note_on_c, 0, 67, 0
2, 1012990, Note_on_c, 0, 84, 0
2, 1013044, Note_on_c, 0, 63, 0
2, 1013082, Note_on_c, 0, 58, 0
2, 1013100, Note_on_c, 0, 96, 0
2, 1013732, Control_c, 0, 64, 0
2, 1013788, Note_on_c, 0, 98, 127
2, 1013792, Note_on_c, 0, 63, 109
2, 1013803, Note_on_c, 0, 55, 96
2, 1013803, Note_on_c, 0, 86, 121
2, 1013810, Note_on_c, 0, 91, 109
2, 1013817, Note_on_c, 0, 93, 106
2, 1013826, Note_on_c, 0, 57, 78
2, 1013828, Note_on_c, 0, 60, 85
2, 1014126, Control_c, 0, 64, 127
2, 1014412, Note_on_c, 0, 86, 0
2, 1014426, Note_on_c, 0, 93, 0
2, 1014435, Note_on_c, 0, 98, 0
2, 1014502, Note_on_c, 0, 91, 0
2, 1014511, Note_on_c, 0, 55, 0
2, 1014533, Note_on_c, 0, 63, 0
2, 1014536, Note_on_c, 0, 57, 0
2, 1014650, Note_on_c, 0, 60, 0
2, 1014722, Note_on_c, 0, 91, 85
2, 1014726, Note_on_c, 0, 99, 96
2, 1014746, Note_on_c, 0, 63, 81
2, 1014751, Note_on_c, 0, 87, 85
2, 1014760, Note_on_c, 0, 57, 84
2, 1014775, Note_on_c, 0, 60, 57
2, 1014789, Note_on_c, 0, 55, 74
2, 1014827, Note_on_c, 0, 93, 48
2, 1014829, Note_on_c, 0, 97, 50
2, 1015055, Note_on_c, 0, 99, 0
2, 1015105, Note_on_c, 0, 55, 0
2, 1015143, Note_on_c, 0, 63, 0
2, 1015161, Note_on_c, 0, 93, 0
2, 1015172, Note_on_c, 0, 91, 0
2, 1015192, Note_on_c, 0, 57, 0
2, 1015201, Note_on_c, 0, 87, 0
2, 1015241, Note_on_c, 0, 97, 0
2, 1015270, Note_on_c, 0, 60, 0
2, 1015331, Control_c, 0, 64, 0
2, 1015385, Note_on_c, 0, 63, 66
2, 1015394, Note_on_c, 0, 55, 73
2, 1015400, Note_on_c, 0, 60, 48
2, 1015403, Note_on_c, 0, 98, 78
2, 1015407, Note_on_c, 0, 91, 81
2, 1015409, Note_on_c, 0, 86, 82
2, 1015416, Note_on_c, 0, 57, 74
2, 1015450, Note_on_c, 0, 96, 62
2, 1015463, Note_on_c, 0, 93, 54
2, 1015606, Control_c, 0, 64, 127
2, 1015741, Note_on_c, 0, 98, 0
2, 1015748, Note_on_c, 0, 96, 0
2, 1015759, Note_on_c, 0, 93, 0
2, 1015783, Note_on_c, 0, 86, 0
2, 1015826, Note_on_c, 0, 55, 0
2, 1015844, Note_on_c, 0, 63, 0
2, 1015884, Note_on_c, 0, 91, 0
2, 1015889, Note_on_c, 0, 57, 0
2, 1016028, Note_on_c, 0, 60, 0
2, 1016204, Note_on_c, 0, 99, 71
2, 1016220, Note_on_c, 0, 87, 69
2, 1016236, Note_on_c, 0, 63, 66
2, 1016240, Note_on_c, 0, 91, 67
2, 1016252, Note_on_c, 0, 60, 53
2, 1016252, Note_on_c, 0, 55, 64
2, 1016417, Note_on_c, 0, 91, 0
2, 1016484, Note_on_c, 0, 63, 0
2, 1016516, Note_on_c, 0, 99, 0
2, 1016538, Note_on_c, 0, 87, 0
2, 1016543, Note_on_c, 0, 55, 0
2, 1016661, Note_on_c, 0, 60, 0
2, 1016782, Note_on_c, 0, 63, 67
2, 1016796, Note_on_c, 0, 55, 61
2, 1016825, Note_on_c, 0, 98, 63
2, 1016825, Note_on_c, 0, 60, 37
2, 1016827, Note_on_c, 0, 91, 75
2, 1016834, Note_on_c, 0, 86, 70
2, 1016870, Note_on_c, 0, 96, 56
2, 1016984, Note_on_c, 0, 96, 0
2, 1017051, Note_on_c, 0, 86, 0
2, 1017154, Note_on_c, 0, 91, 0
2, 1017168, Note_on_c, 0, 55, 0
2, 1017204, Note_on_c, 0, 98, 0
2, 1017246, Note_on_c, 0, 63, 0
2, 1017351, Note_on_c, 0, 60, 0
2, 1017528, Control_c, 0, 64, 0
2, 1017660, Note_on_c, 0, 63, 67
2, 1017665, Note_on_c, 0, 60, 60
2, 1017683, Note_on_c, 0, 54, 64
2, 1017851, Control_c, 0, 64, 127
2, 1018117, Note_on_c, 0, 63, 0
2, 1018131, Note_on_c, 0, 54, 0
2, 1018225, Note_on_c, 0, 60, 0
2, 1018292, Note_on_c, 0, 99, 67
2, 1018344, Note_on_c, 0, 87, 56
2, 1018350, Note_on_c, 0, 54, 58
2, 1018357, Note_on_c, 0, 63, 60
2, 1018371, Note_on_c, 0, 94, 69
2, 1018377, Note_on_c, 0, 60, 44
2, 1018671, Note_on_c, 0, 94, 0
2, 1018671, Note_on_c, 0, 63, 0
2, 1018673, Note_on_c, 0, 99, 0
2, 1018704, Note_on_c, 0, 87, 0
2, 1018704, Note_on_c, 0, 54, 0
2, 1018848, Note_on_c, 0, 60, 0
2, 1019060, Note_on_c, 0, 98, 70
2, 1019074, Note_on_c, 0, 86, 65
2, 1019112, Note_on_c, 0, 54, 60
2, 1019114, Note_on_c, 0, 60, 38
2, 1019119, Note_on_c, 0, 63, 59
2, 1019224, Note_on_c, 0, 93, 38
2, 1019343, Note_on_c, 0, 98, 0
2, 1019376, Note_on_c, 0, 86, 0
2, 1019376, Note_on_c, 0, 93, 0
2, 1019405, Note_on_c, 0, 63, 0
2, 1019432, Note_on_c, 0, 54, 0
2, 1019567, Note_on_c, 0, 60, 0
2, 1019762, Note_on_c, 0, 99, 81
2, 1019788, Note_on_c, 0, 63, 61
2, 1019793, Note_on_c, 0, 87, 66
2, 1019802, Note_on_c, 0, 60, 49
2, 1019804, Note_on_c, 0, 54, 60
2, 1019921, Note_on_c, 0, 93, 40
2, 1020037, Note_on_c, 0, 93, 0
2, 1020091, Note_on_c, 0, 63, 0
2, 1020118, Note_on_c, 0, 54, 0
2, 1020149, Note_on_c, 0, 87, 0
2, 1020160, Note_on_c, 0, 99, 0
2, 1020279, Note_on_c, 0, 60, 0
2, 1020463, Note_on_c, 0, 98, 61
2, 1020508, Note_on_c, 0, 63, 55
2, 1020508, Note_on_c, 0, 86, 60
2, 1020508, Note_on_c, 0, 54, 55
2, 1020523, Note_on_c, 0, 60, 41
2, 1020575, Note_on_c, 0, 93, 44
2, 1020680, Note_on_c, 0, 93, 0
2, 1020693, Note_on_c, 0, 98, 0
2, 1020693, Note_on_c, 0, 54, 0
2, 1020709, Note_on_c, 0, 63, 0
2, 1020796, Note_on_c, 0, 86, 0
2, 1020841, Note_on_c, 0, 60, 0
2, 1021036, Note_on_c, 0, 54, 58
2, 1021085, Note_on_c, 0, 96, 69
2, 1021101, Note_on_c, 0, 63, 48
2, 1021175, Note_on_c, 0, 84, 55
2, 1021244, Note_on_c, 0, 63, 0
2, 1021276, Note_on_c, 0, 96, 0
2, 1021289, Note_on_c, 0, 84, 0
2, 1021383, Note_on_c, 0, 54, 0
2, 1021625, Note_on_c, 0, 62, 53
2, 1021650, Control_c, 0, 64, 0
2, 1021654, Note_on_c, 0, 94, 77
2, 1021670, Note_on_c, 0, 57, 50
2, 1021675, Note_on_c, 0, 58, 51
2, 1021699, Note_on_c, 0, 82, 61
2, 1021701, Note_on_c, 0, 55, 58
2, 1022071, Control_c, 0, 64, 127
2, 1022317, Note_on_c, 0, 82, 0
2, 1022373, Note_on_c, 0, 62, 0
2, 1022376, Note_on_c, 0, 94, 0
2, 1022409, Note_on_c, 0, 58, 0
2, 1022432, Note_on_c, 0, 57, 0
2, 1022474, Note_on_c, 0, 55, 0
2, 1022562, Note_on_c, 0, 94, 66
2, 1022597, Note_on_c, 0, 82, 54
2, 1022624, Note_on_c, 0, 62, 51
2, 1022689, Note_on_c, 0, 55, 29
2, 1022716, Note_on_c, 0, 58, 45
2, 1022721, Note_on_c, 0, 57, 47
2, 1023045, Note_on_c, 0, 62, 0
2, 1023054, Note_on_c, 0, 58, 0
2, 1023171, Note_on_c, 0, 94, 0
2, 1023254, Note_on_c, 0, 57, 0
2, 1023283, Note_on_c, 0, 82, 0
2, 1023502, Note_on_c, 0, 57, 33
2, 1023507, Note_on_c, 0, 62, 54
2, 1023538, Note_on_c, 0, 58, 48
2, 1024354, Note_on_c, 0, 55, 0
2, 1024356, Note_on_c, 0, 57, 0
2, 1024457, Note_on_c, 0, 62, 0
2, 1024490, Note_on_c, 0, 58, 0
2, 1024900, Note_on_c, 0, 58, 49
2, 1025070, Note_on_c, 0, 58, 0
2, 1025397, Note_on_c, 0, 62, 61
2, 1025411, Note_on_c, 0, 57, 50
2, 1025413, Note_on_c, 0, 58, 53
2, 1025433, Note_on_c, 0, 55, 34
2, 1026363, Note_on_c, 0, 62, 0
2, 1026403, Note_on_c, 0, 55, 0
2, 1026428, Note_on_c, 0, 57, 0
2, 1026482, Note_on_c, 0, 58, 0
2, 1026721, Note_on_c, 0, 70, 119
2, 1026764, Note_on_c, 0, 58, 69
2, 1026766, Note_on_c, 0, 62, 79
2, 1026793, Note_on_c, 0, 57, 71
2, 1026836, Note_on_c, 0, 55, 58
2, 1027172, Note_on_c, 0, 70, 0
2, 1027304, Note_on_c, 0, 70, 114
2, 1027696, Note_on_c, 0, 70, 0
2, 1027839, Note_on_c, 0, 69, 87
2, 1028157, Note_on_c, 0, 62, 0
2, 1028173, Note_on_c, 0, 69, 0
2, 1028180, Note_on_c, 0, 57, 0
2, 1028218, Note_on_c, 0, 55, 0
2, 1028307, Note_on_c, 0, 67, 58
2, 1028332, Note_on_c, 0, 58, 0
2, 1028589, Note_on_c, 0, 67, 0
2, 1028778, Note_on_c, 0, 69, 95
2, 1029129, Note_on_c, 0, 69, 0
2, 1029246, Note_on_c, 0, 61, 65
2, 1029266, Control_c, 0, 64, 0
2, 1029277, Note_on_c, 0, 51, 54
2, 1029288, Note_on_c, 0, 58, 61
2, 1029308, Note_on_c, 0, 70, 103
2, 1029322, Note_on_c, 0, 54, 58
2, 1029692, Note_on_c, 0, 61, 0
2, 1029692, Control_c, 0, 64, 127
2, 1029853, Note_on_c, 0, 70, 0
2, 1029916, Note_on_c, 0, 60, 86
2, 1030180, Note_on_c, 0, 54, 0
2, 1030339, Note_on_c, 0, 58, 0
2, 1030455, Note_on_c, 0, 61, 89
2, 1030610, Note_on_c, 0, 60, 0
2, 1030921, Note_on_c, 0, 61, 0
2, 1031123, Note_on_c, 0, 61, 57
2, 1031145, Note_on_c, 0, 65, 91
2, 1031148, Note_on_c, 0, 58, 61
2, 1031239, Note_on_c, 0, 54, 42
2, 1031544, Note_on_c, 0, 65, 0
2, 1031772, Note_on_c, 0, 61, 0
2, 1031909, Note_on_c, 0, 66, 85
2, 1032057, Note_on_c, 0, 58, 0
2, 1032077, Note_on_c, 0, 54, 0
2, 1032189, Note_on_c, 0, 51, 0
2, 1032232, Note_on_c, 0, 66, 0
2, 1032548, Note_on_c, 0, 68, 71
2, 1032989, Note_on_c, 0, 68, 0
2, 1033166, Note_on_c, 0, 60, 63
2, 1033166, Note_on_c, 0, 69, 76
2, 1033188, Note_on_c, 0, 64, 66
2, 1033188, Note_on_c, 0, 54, 51
2, 1033204, Note_on_c, 0, 44, 55
2, 1033226, Control_c, 0, 64, 0
2, 1033652, Control_c, 0, 64, 127
2, 1033847, Note_on_c, 0, 70, 67
2, 1034033, Note_on_c, 0, 60, 0
2, 1034035, Note_on_c, 0, 64, 0
2, 1034089, Note_on_c, 0, 69, 0
2, 1034124, Note_on_c, 0, 70, 0
2, 1034196, Note_on_c, 0, 54, 0
2, 1034528, Note_on_c, 0, 72, 70
2, 1034537, Note_on_c, 0, 65, 67
2, 1034570, Note_on_c, 0, 54, 54
2, 1034597, Note_on_c, 0, 60, 49
2, 1034830, Note_on_c, 0, 72, 0
2, 1034837, Note_on_c, 0, 60, 0
2, 1034969, Note_on_c, 0, 54, 0
2, 1035117, Note_on_c, 0, 65, 0
2, 1035233, Note_on_c, 0, 73, 83
2, 1035251, Note_on_c, 0, 44, 0
2, 1035258, Note_on_c, 0, 61, 67
2, 1035516, Note_on_c, 0, 61, 0
2, 1035589, Note_on_c, 0, 73, 0
2, 1035948, Note_on_c, 0, 74, 90
2, 1035981, Note_on_c, 0, 62, 78
2, 1036188, Note_on_c, 0, 62, 0
2, 1036196, Note_on_c, 0, 74, 0
2, 1036604, Note_on_c, 0, 75, 88
2, 1036624, Note_on_c, 0, 63, 68
2, 1036942, Note_on_c, 0, 75, 0
2, 1036963, Note_on_c, 0, 63, 0
2, 1037088, Control_c, 0, 64, 0
2, 1037144, Note_on_c, 0, 74, 79
2, 1037146, Note_on_c, 0, 62, 70
2, 1037151, Note_on_c, 0, 60, 59
2, 1037496, Control_c, 0, 64, 127
2, 1037796, Note_on_c, 0, 62, 0
2, 1038006, Note_on_c, 0, 53, 36
2, 1038331, Note_on_c, 0, 60, 0
2, 1038889, Note_on_c, 0, 65, 32
2, 1039037, Note_on_c, 0, 65, 0
2, 1039147, Note_on_c, 0, 74, 0
2, 1039469, Note_on_c, 0, 65, 52
2, 1039525, Note_on_c, 0, 74, 118
2, 1039543, Note_on_c, 0, 62, 51
2, 1039574, Note_on_c, 0, 60, 42
2, 1039677, Note_on_c, 0, 65, 0
2, 1039689, Note_on_c, 0, 62, 0
2, 1039718, Note_on_c, 0, 60, 0
2, 1039924, Note_on_c, 0, 53, 0
2, 1039933, Note_on_c, 0, 74, 0
2, 1040157, Note_on_c, 0, 74, 102
2, 1040531, Note_on_c, 0, 74, 0
2, 1040730, Note_on_c, 0, 74, 85
2, 1040782, Control_c, 0, 64, 0
2, 1040791, Note_on_c, 0, 51, 45
2, 1040797, Note_on_c, 0, 67, 60
2, 1040800, Note_on_c, 0, 62, 69
2, 1040802, Note_on_c, 0, 70, 64
2, 1040858, Note_on_c, 0, 55, 46
2, 1040883, Note_on_c, 0, 58, 43
2, 1041266, Control_c, 0, 64, 127
2, 1041434, Note_on_c, 0, 62, 0
2, 1041496, Note_on_c, 0, 72, 77
2, 1041579, Note_on_c, 0, 74, 0
2, 1041806, Note_on_c, 0, 67, 0
2, 1042047, Note_on_c, 0, 70, 0
2, 1042585, Note_on_c, 0, 70, 85
2, 1042616, Note_on_c, 0, 62, 48
2, 1043553, Note_on_c, 0, 55, 0
2, 1043598, Note_on_c, 0, 62, 0
2, 1043716, Note_on_c, 0, 58, 0
2, 1043837, Note_on_c, 0, 51, 0
2, 1044256, Note_on_c, 0, 70, 0
2, 1044429, Note_on_c, 0, 72, 0
2, 1044507, Control_c, 0, 64, 0
2, 1044538, Note_on_c, 0, 44, 57
2, 1044541, Note_on_c, 0, 62, 65
2, 1044874, Control_c, 0, 64, 127
2, 1044899, Note_on_c, 0, 62, 0
2, 1045018, Note_on_c, 0, 44, 0
2, 1046498, Note_on_c, 0, 86, 70
2, 1046501, Note_on_c, 0, 77, 72
2, 1046503, Note_on_c, 0, 82, 65
2, 1046514, Note_on_c, 0, 65, 56
2, 1046534, Note_on_c, 0, 54, 50
2, 1046583, Note_on_c, 0, 58, 49
2, 1046606, Note_on_c, 0, 60, 49
2, 1047388, Note_on_c, 0, 65, 0
2, 1047397, Note_on_c, 0, 60, 0
2, 1047529, Note_on_c, 0, 77, 0
2, 1047547, Note_on_c, 0, 58, 0
2, 1047634, Note_on_c, 0, 54, 0
2, 1047717, Note_on_c, 0, 82, 0
2, 1047849, Note_on_c, 0, 86, 0
2, 1048328, Note_on_c, 0, 63, 56
2, 1048378, Note_on_c, 0, 53, 48
2, 1048387, Note_on_c, 0, 77, 65
2, 1048396, Note_on_c, 0, 80, 65
2, 1048418, Note_on_c, 0, 59, 58
2, 1048456, Control_c, 0, 64, 0
2, 1048458, Note_on_c, 0, 58, 47
2, 1048922, Control_c, 0, 64, 127
2, 1049110, Note_on_c, 0, 53, 0
2, 1049168, Note_on_c, 0, 63, 0
2, 1049184, Note_on_c, 0, 77, 0
2, 1049236, Note_on_c, 0, 59, 0
2, 1049269, Note_on_c, 0, 80, 0
2, 1049511, Note_on_c, 0, 58, 0
2, 1050297, Note_on_c, 0, 91, 127
2, 1050300, Note_on_c, 0, 63, 99
2, 1050322, Note_on_c, 0, 79, 125
2, 1050322, Note_on_c, 0, 59, 86
2, 1050326, Note_on_c, 0, 53, 83
2, 1050335, Note_on_c, 0, 58, 68
2, 1050385, Note_on_c, 0, 86, 61
2, 1050468, Note_on_c, 0, 86, 0
2, 1050745, Note_on_c, 0, 53, 0
2, 1050819, Note_on_c, 0, 79, 0
2, 1050846, Note_on_c, 0, 91, 0
2, 1050862, Note_on_c, 0, 63, 0
2, 1050871, Note_on_c, 0, 59, 0
2, 1050884, Note_on_c, 0, 58, 0
2, 1051101, Note_on_c, 0, 59, 77
2, 1051104, Note_on_c, 0, 91, 118
2, 1051106, Note_on_c, 0, 63, 92
2, 1051106, Note_on_c, 0, 58, 60
2, 1051124, Note_on_c, 0, 79, 112
2, 1051128, Note_on_c, 0, 53, 74
2, 1051411, Note_on_c, 0, 53, 0
2, 1051424, Note_on_c, 0, 63, 0
2, 1051431, Note_on_c, 0, 79, 0
2, 1051437, Note_on_c, 0, 91, 0
2, 1051514, Note_on_c, 0, 59, 0
2, 1051547, Note_on_c, 0, 58, 0
2, 1051722, Note_on_c, 0, 63, 81
2, 1051778, Note_on_c, 0, 91, 99
2, 1051816, Note_on_c, 0, 79, 90
2, 1051899, Note_on_c, 0, 79, 0
2, 1051912, Note_on_c, 0, 63, 0
2, 1052020, Note_on_c, 0, 91, 0
2, 1052356, Note_on_c, 0, 63, 77
2, 1052365, Note_on_c, 0, 58, 78
2, 1052367, Note_on_c, 0, 67, 91
2, 1052369, Note_on_c, 0, 62, 84
2, 1052372, Control_c, 0, 64, 0
2, 1052383, Note_on_c, 0, 94, 112
2, 1052403, Note_on_c, 0, 82, 109
2, 1052445, Note_on_c, 0, 87, 76
2, 1052519, Note_on_c, 0, 87, 0
2, 1052705, Note_on_c, 0, 87, 32
2, 1052853, Control_c, 0, 64, 127
2, 1053268, Note_on_c, 0, 62, 0
2, 1053317, Note_on_c, 0, 87, 0
2, 1053366, Note_on_c, 0, 63, 0
2, 1053377, Note_on_c, 0, 82, 0
2, 1053418, Note_on_c, 0, 58, 0
2, 1053447, Note_on_c, 0, 67, 0
2, 1053469, Note_on_c, 0, 94, 0
2, 1053745, Note_on_c, 0, 94, 79
2, 1053789, Note_on_c, 0, 82, 75
2, 1053798, Note_on_c, 0, 63, 66
2, 1053803, Note_on_c, 0, 67, 72
2, 1053805, Note_on_c, 0, 58, 63
2, 1053819, Note_on_c, 0, 87, 72
2, 1053830, Note_on_c, 0, 62, 67
2, 1054343, Note_on_c, 0, 94, 0
2, 1054399, Note_on_c, 0, 87, 0
2, 1054437, Note_on_c, 0, 62, 0
2, 1054479, Note_on_c, 0, 67, 0
2, 1054515, Note_on_c, 0, 82, 0
2, 1054556, Note_on_c, 0, 63, 0
2, 1054625, Note_on_c, 0, 58, 0
2, 1056032, Note_on_c, 0, 56, 60
2, 1056079, Note_on_c, 0, 63, 60
2, 1056081, Note_on_c, 0, 53, 52
2, 1056085, Control_c, 0, 64, 0
2, 1056099, Note_on_c, 0, 43, 54
2, 1056103, Note_on_c, 0, 59, 61
2, 1056130, Note_on_c, 0, 50, 56
2, 1056589, Control_c, 0, 64, 127
2, 1056784, Note_on_c, 0, 56, 0
2, 1056896, Note_on_c, 0, 59, 0
2, 1057060, Note_on_c, 0, 63, 0
2, 1058014, Note_on_c, 0, 63, 69
2, 1058124, Note_on_c, 0, 43, 0
2, 1058157, Note_on_c, 0, 50, 0
2, 1058287, Note_on_c, 0, 53, 0
2, 1058480, Note_on_c, 0, 63, 0
2, 1058682, Note_on_c, 0, 67, 92
2, 1059071, Note_on_c, 0, 67, 0
2, 1059313, Note_on_c, 0, 70, 103
2, 1059703, Note_on_c, 0, 70, 0
2, 1059988, Control_c, 0, 64, 0
2, 1059997, Note_on_c, 0, 72, 103
2, 1060030, Note_on_c, 0, 67, 92
2, 1060035, Note_on_c, 0, 58, 75
2, 1060037, Note_on_c, 0, 63, 90
2, 1060053, Note_on_c, 0, 48, 67
2, 1060091, Note_on_c, 0, 55, 60
2, 1060359, Control_c, 0, 64, 127
2, 1060550, Note_on_c, 0, 48, 0
2, 1060570, Note_on_c, 0, 55, 0
2, 1060828, Note_on_c, 0, 58, 0
2, 1060872, Note_on_c, 0, 72, 0
2, 1060937, Note_on_c, 0, 63, 0
2, 1060969, Note_on_c, 0, 67, 0
2, 1061871, Note_on_c, 0, 74, 97
2, 1061883, Note_on_c, 0, 70, 86
2, 1061889, Note_on_c, 0, 66, 94
2, 1061901, Control_c, 0, 64, 0
2, 1061923, Note_on_c, 0, 64, 78
2, 1061932, Note_on_c, 0, 58, 74
2, 1061934, Note_on_c, 0, 54, 67
2, 1062400, Control_c, 0, 64, 127
2, 1062741, Note_on_c, 0, 64, 0
2, 1062844, Note_on_c, 0, 74, 0
2, 1062873, Note_on_c, 0, 58, 0
2, 1062882, Note_on_c, 0, 54, 0
2, 1062991, Note_on_c, 0, 70, 0
2, 1063072, Note_on_c, 0, 66, 0
2, 1063829, Note_on_c, 0, 70, 71
2, 1063831, Control_c, 0, 64, 0
2, 1063834, Note_on_c, 0, 58, 75
2, 1063867, Note_on_c, 0, 53, 58
2, 1063870, Note_on_c, 0, 63, 65
2, 1063894, Note_on_c, 0, 67, 66
2, 1064255, Control_c, 0, 64, 127
2, 1064618, Note_on_c, 0, 53, 0
2, 1064620, Note_on_c, 0, 58, 0
2, 1064736, Note_on_c, 0, 67, 0
2, 1064786, Note_on_c, 0, 63, 0
2, 1064943, Note_on_c, 0, 70, 0
2, 1065724, Control_c, 0, 64, 0
2, 1065782, Note_on_c, 0, 62, 53
2, 1065785, Note_on_c, 0, 72, 51
2, 1065807, Note_on_c, 0, 51, 53
2, 1065807, Note_on_c, 0, 66, 53
2, 1065854, Note_on_c, 0, 57, 43
2, 1065868, Note_on_c, 0, 69, 49
2, 1066011, Control_c, 0, 64, 127
2, 1066206, Note_on_c, 0, 62, 0
2, 1066224, Note_on_c, 0, 69, 0
2, 1066271, Note_on_c, 0, 51, 0
2, 1066428, Note_on_c, 0, 57, 0
2, 1066454, Note_on_c, 0, 66, 0
2, 1066587, Note_on_c, 0, 72, 0
2, 1067588, Control_c, 0, 64, 0
2, 1067624, Note_on_c, 0, 65, 65
2, 1067678, Note_on_c, 0, 60, 60
2, 1067680, Note_on_c, 0, 62, 59
2, 1068569, Note_on_c, 0, 89, 73
2, 1068674, Note_on_c, 0, 89, 0
2, 1069252, Note_on_c, 0, 77, 52
2, 1069349, Note_on_c, 0, 77, 0
2, 1070059, Note_on_c, 0, 77, 51
2, 1070189, Note_on_c, 0, 77, 0
2, 1070661, Note_on_c, 0, 77, 60
2, 1070749, Note_on_c, 0, 77, 0
2, 1071508, Note_on_c, 0, 77, 69
2, 1071606, Note_on_c, 0, 77, 0
2, 1072162, Note_on_c, 0, 77, 52
2, 1072261, Note_on_c, 0, 77, 0
2, 1072832, Note_on_c, 0, 89, 87
2, 1073062, Note_on_c, 0, 89, 0
2, 1073405, Note_on_c, 0, 77, 73
2, 1073537, Control_c, 0, 64, 127
2, 1073927, Note_on_c, 0, 77, 0
2, 1073974, Note_on_c, 0, 62, 0
2, 1073974, Note_on_c, 0, 60, 0
2, 1074178, Note_on_c, 0, 65, 0
2, 1074371, Note_on_c, 0, 77, 72
2, 1075139, Note_on_c, 0, 77, 0
2, 1075311, Control_c, 0, 64, 0
2, 1075327, Note_on_c, 0, 89, 72
2, 1075341, Note_on_c, 0, 53, 56
2, 1075607, Note_on_c, 0, 89, 0
2, 1075670, Control_c, 0, 64, 127
2, 1075847, Note_on_c, 0, 58, 66
2, 1076373, Note_on_c, 0, 63, 65
2, 1076920, Note_on_c, 0, 65, 76
2, 1077592, Note_on_c, 0, 67, 69
2, 1077852, Note_on_c, 0, 67, 0
2, 1077939, Note_on_c, 0, 69, 75
2, 1078250, Note_on_c, 0, 69, 0
2, 1078302, Note_on_c, 0, 70, 98
2, 1078528, Note_on_c, 0, 70, 0
2, 1078636, Note_on_c, 0, 72, 90
2, 1078880, Note_on_c, 0, 72, 0
2, 1078976, Note_on_c, 0, 74, 100
2, 1079323, Note_on_c, 0, 75, 100
2, 1079332, Note_on_c, 0, 74, 0
2, 1079545, Note_on_c, 0, 75, 0
2, 1079592, Note_on_c, 0, 65, 0
2, 1079632, Note_on_c, 0, 77, 98
2, 1079879, Note_on_c, 0, 77, 0
2, 1079975, Note_on_c, 0, 79, 102
2, 1080331, Note_on_c, 0, 81, 94
2, 1080349, Note_on_c, 0, 79, 0
2, 1080616, Note_on_c, 0, 81, 0
2, 1080649, Note_on_c, 0, 82, 81
2, 1080661, Note_on_c, 0, 65, 44
2, 1080802, Note_on_c, 0, 82, 0
2, 1080943, Note_on_c, 0, 84, 90
2, 1081185, Note_on_c, 0, 86, 89
2, 1081212, Note_on_c, 0, 84, 0
2, 1081453, Note_on_c, 0, 87, 86
2, 1081467, Note_on_c, 0, 86, 0
2, 1081525, Note_on_c, 0, 87, 0
2, 1081669, Note_on_c, 0, 89, 87
2, 1081895, Note_on_c, 0, 91, 83
2, 1081953, Note_on_c, 0, 89, 0
2, 1081958, Note_on_c, 0, 58, 0
2, 1082061, Note_on_c, 0, 63, 0
2, 1082105, Note_on_c, 0, 93, 65
2, 1082238, Note_on_c, 0, 93, 0
2, 1082258, Note_on_c, 0, 94, 76
2, 1082309, Note_on_c, 0, 65, 0
2, 1082329, Note_on_c, 0, 91, 0
2, 1082504, Note_on_c, 0, 94, 0
2, 1082509, Note_on_c, 0, 95, 81
2, 1082768, Note_on_c, 0, 96, 116
2, 1082907, Note_on_c, 0, 60, 61
2, 1082912, Note_on_c, 0, 65, 61
2, 1082921, Note_on_c, 0, 62, 67
2, 1082932, Control_c, 0, 64, 0
2, 1082950, Note_on_c, 0, 95, 0
2, 1082981, Note_on_c, 0, 93, 106
2, 1083523, Control_c, 0, 64, 127
2, 1083633, Note_on_c, 0, 93, 0
2, 1083655, Note_on_c, 0, 89, 87
2, 1083850, Note_on_c, 0, 53, 0
2, 1084314, Note_on_c, 0, 96, 0
2, 1084442, Note_on_c, 0, 86, 81
2, 1084448, Note_on_c, 0, 53, 66
2, 1084507, Note_on_c, 0, 89, 0
2, 1084684, Note_on_c, 0, 86, 0
2, 1084975, Note_on_c, 0, 86, 57
2, 1085120, Note_on_c, 0, 86, 0
2, 1085423, Note_on_c, 0, 65, 0
2, 1085557, Note_on_c, 0, 62, 0
2, 1085586, Note_on_c, 0, 60, 0
2, 1085880, Note_on_c, 0, 62, 43
2, 1085884, Note_on_c, 0, 79, 40
2, 1085916, Note_on_c, 0, 77, 46
2, 1085929, Note_on_c, 0, 65, 43
2, 1085949, Note_on_c, 0, 60, 38
2, 1086043, Note_on_c, 0, 77, 0
2, 1086068, Note_on_c, 0, 79, 0
2, 1086131, Note_on_c, 0, 65, 0
2, 1086158, Note_on_c, 0, 62, 0
2, 1086240, Note_on_c, 0, 60, 0
2, 1086838, Note_on_c, 0, 65, 49
2, 1086847, Note_on_c, 0, 77, 60
2, 1086881, Note_on_c, 0, 62, 44
2, 1086928, Note_on_c, 0, 60, 45
2, 1087546, Note_on_c, 0, 65, 0
2, 1087710, Note_on_c, 0, 77, 0
2, 1087728, Note_on_c, 0, 53, 0
2, 1087763, Note_on_c, 0, 74, 53
2, 1088003, Note_on_c, 0, 74, 0
2, 1088288, Note_on_c, 0, 74, 61
2, 1088409, Note_on_c, 0, 53, 50
2, 1088456, Note_on_c, 0, 74, 0
2, 1088731, Note_on_c, 0, 53, 0
2, 1089130, Note_on_c, 0, 60, 0
2, 1089231, Note_on_c, 0, 77, 75
2, 1089240, Note_on_c, 0, 62, 0
2, 1089419, Note_on_c, 0, 53, 14
2, 1089468, Note_on_c, 0, 77, 0
2, 1089867, Note_on_c, 0, 77, 69
2, 1090102, Note_on_c, 0, 77, 0
2, 1090514, Note_on_c, 0, 77, 65
2, 1090577, Note_on_c, 0, 67, 52
2, 1090595, Note_on_c, 0, 63, 41
2, 1090597, Note_on_c, 0, 58, 39
2, 1090599, Note_on_c, 0, 75, 51
2, 1090611, Note_on_c, 0, 65, 48
2, 1090613, Note_on_c, 0, 70, 51
2, 1090635, Control_c, 0, 64, 0
2, 1091099, Control_c, 0, 64, 127
2, 1091534, Note_on_c, 0, 63, 0
2, 1091558, Note_on_c, 0, 58, 0
2, 1091643, Note_on_c, 0, 53, 0
2, 1092031, Note_on_c, 0, 53, 56
2, 1092329, Note_on_c, 0, 53, 0
2, 1092564, Note_on_c, 0, 53, 60
2, 1093182, Note_on_c, 0, 65, 0
2, 1093341, Note_on_c, 0, 67, 0
2, 1093384, Note_on_c, 0, 70, 0
2, 1094051, Note_on_c, 0, 67, 36
2, 1094118, Note_on_c, 0, 65, 32
2, 1094208, Note_on_c, 0, 65, 0
2, 1094246, Note_on_c, 0, 67, 0
2, 1094468, Note_on_c, 0, 67, 33
2, 1094506, Note_on_c, 0, 65, 43
2, 1094508, Note_on_c, 0, 70, 53
2, 1095350, Note_on_c, 0, 70, 0
2, 1095525, Note_on_c, 0, 53, 0
2, 1095883, Note_on_c, 0, 53, 51
2, 1096060, Note_on_c, 0, 53, 0
2, 1096473, Note_on_c, 0, 53, 41
2, 1096506, Note_on_c, 0, 65, 0
2, 1096643, Note_on_c, 0, 53, 0
2, 1096672, Note_on_c, 0, 67, 0
2, 1097304, Note_on_c, 0, 77, 0
2, 1097335, Note_on_c, 0, 75, 0
2, 1098258, Note_on_c, 0, 46, 48
2, 1098265, Note_on_c, 0, 77, 40
2, 1098269, Note_on_c, 0, 81, 50
2, 1098273, Note_on_c, 0, 74, 45
2, 1098333, Control_c, 0, 64, 0
2, 1098410, Note_on_c, 0, 34, 54
2, 1098462, Control_c, 0, 64, 0
2, 1099014, Control_c, 0, 64, 127
2, 1099248, Note_on_c, 0, 53, 38
2, 1099911, Note_on_c, 0, 53, 0
2, 1099943, Note_on_c, 0, 46, 0
2, 1099996, Note_on_c, 0, 57, 51
2, 1100820, Note_on_c, 0, 61, 47
2, 1100927, Note_on_c, 0, 57, 0
2, 1101604, Note_on_c, 0, 81, 0
2, 1101624, Note_on_c, 0, 77, 0
2, 1101638, Note_on_c, 0, 62, 73
2, 1101665, Note_on_c, 0, 74, 0
2, 1102240, Note_on_c, 0, 66, 47
2, 1102241, Note_on_c, 0, 34, 0
2, 1102634, Note_on_c, 0, 69, 45
2, 1102781, Note_on_c, 0, 69, 0
2, 1102933, Note_on_c, 0, 74, 53
2, 1103137, Note_on_c, 0, 74, 0
2, 1103196, Note_on_c, 0, 78, 61
2, 1103321, Note_on_c, 0, 78, 0
2, 1103486, Note_on_c, 0, 81, 62
2, 1103593, Note_on_c, 0, 81, 0
2, 1103769, Note_on_c, 0, 86, 71
2, 1103936, Note_on_c, 0, 86, 0
2, 1104027, Note_on_c, 0, 90, 65
2, 1104113, Note_on_c, 0, 90, 0
2, 1104333, Note_on_c, 0, 93, 72
2, 1104455, Note_on_c, 0, 93, 0
2, 1104615, Note_on_c, 0, 98, 82
2, 1104790, Note_on_c, 0, 98, 0
2, 1104894, Note_on_c, 0, 102, 70
2, 1105094, Note_on_c, 0, 102, 0
2, 1105193, Note_on_c, 0, 105, 91
2, 1105361, Note_on_c, 0, 105, 0
2, 1105574, Note_on_c, 0, 105, 83
2, 1105723, Note_on_c, 0, 105, 0
2, 1106020, Note_on_c, 0, 105, 80
2, 1106208, Note_on_c, 0, 105, 0
2, 1106540, Note_on_c, 0, 105, 62
2, 1106748, Note_on_c, 0, 105, 0
2, 1107093, Note_on_c, 0, 105, 60
2, 1107343, Note_on_c, 0, 105, 0
2, 1107723, Note_on_c, 0, 105, 51
2, 1108037, Note_on_c, 0, 105, 0
2, 1108307, Note_on_c, 0, 105, 47
2, 1108599, Note_on_c, 0, 105, 0
2, 1108969, Note_on_c, 0, 105, 46
2, 1109157, Note_on_c, 0, 105, 0
2, 1109356, Note_on_c, 0, 62, 0
2, 1109398, Note_on_c, 0, 66, 0
2, 1109430, Note_on_c, 0, 61, 0
2, 1112307, Control_c, 0, 64, 0
2, 1112307, End_track
3, 0, Start_track
3, 0, Title_t, "Bass"
3, 0, Control_c, 1, 0, 121
3, 0, Control_c, 1, 7, 87
3, 1, Control_c, 1, 32, 0
3, 2, Program_c, 1, 35
3, 314880, Note_on_c, 1, 46, 95
3, 322038, Note_on_c, 1, 34, 85
3, 322357, Note_on_c, 1, 34, 0
3, 322725, Note_on_c, 1, 34, 84
3, 325626, Note_on_c, 1, 46, 0
3, 328289, Note_on_c, 1, 46, 83
3, 328673, Note_on_c, 1, 46, 0
3, 328746, Note_on_c, 1, 48, 99
3, 329128, Note_on_c, 1, 48, 0
3, 329234, Note_on_c, 1, 46, 66
3, 329635, Note_on_c, 1, 46, 0
3, 329726, Note_on_c, 1, 45, 43
3, 330131, Note_on_c, 1, 45, 0
3, 330204, Note_on_c, 1, 46, 81
3, 330365, Note_on_c, 1, 34, 0
3, 330906, Note_on_c, 1, 41, 50
3, 331048, Note_on_c, 1, 41, 0
3, 331217, Note_on_c, 1, 34, 86
3, 332260, Note_on_c, 1, 46, 0
3, 336972, Note_on_c, 1, 46, 82
3, 337315, Note_on_c, 1, 46, 0
3, 337488, Note_on_c, 1, 46, 83
3, 337811, Note_on_c, 1, 46, 0
3, 337999, Note_on_c, 1, 46, 79
3, 340357, Note_on_c, 1, 53, 69
3, 341793, Note_on_c, 1, 34, 0
3, 343296, Note_on_c, 1, 41, 67
3, 343409, Note_on_c, 1, 41, 0
3, 343786, Note_on_c, 1, 41, 71
3, 345195, Note_on_c, 1, 34, 73
3, 345418, Note_on_c, 1, 34, 0
3, 345560, Note_on_c, 1, 41, 0
3, 345642, Note_on_c, 1, 34, 75
3, 346272, Note_on_c, 1, 46, 0
3, 346324, Note_on_c, 1, 53, 0
3, 352339, Note_on_c, 1, 39, 91
3, 352430, Note_on_c, 1, 34, 0
3, 353274, Note_on_c, 1, 50, 127
3, 353370, Note_on_c, 1, 39, 0
3, 355659, Note_on_c, 1, 38, 99
3, 355866, Note_on_c, 1, 38, 0
3, 356072, Note_on_c, 1, 31, 101
3, 356141, Note_on_c, 1, 50, 0
3, 360411, Note_on_c, 1, 35, 68
3, 360474, Note_on_c, 1, 31, 0
3, 360828, Note_on_c, 1, 35, 0
3, 360897, Note_on_c, 1, 36, 73
3, 363784, Note_on_c, 1, 48, 74
3, 363907, Note_on_c, 1, 48, 0
3, 364007, Note_on_c, 1, 47, 61
3, 364184, Note_on_c, 1, 47, 0
3, 364266, Note_on_c, 1, 48, 92
3, 364958, Note_on_c, 1, 36, 0
3, 365349, Note_on_c, 1, 46, 84
3, 365407, Note_on_c, 1, 48, 0
3, 365516, Note_on_c, 1, 46, 0
3, 365816, Note_on_c, 1, 46, 84
3, 368536, Note_on_c, 1, 46, 0
3, 368584, Note_on_c, 1, 45, 81
3, 368663, Note_on_c, 1, 45, 0
3, 369063, Note_on_c, 1, 45, 83
3, 369134, Note_on_c, 1, 45, 0
3, 369631, Note_on_c, 1, 40, 68
3, 370917, Note_on_c, 1, 40, 0
3, 371021, Note_on_c, 1, 33, 69
3, 371303, Note_on_c, 1, 33, 0
3, 371501, Note_on_c, 1, 33, 75
3, 373826, Note_on_c, 1, 33, 0
3, 373918, Note_on_c, 1, 37, 101
3, 374218, Note_on_c, 1, 37, 0
3, 374358, Note_on_c, 1, 37, 87
3, 374844, Note_on_c, 1, 38, 90
3, 375145, Note_on_c, 1, 38, 0
3, 375249, Note_on_c, 1, 37, 0
3, 375270, Note_on_c, 1, 40, 102
3, 375783, Note_on_c, 1, 37, 75
3, 375788, Note_on_c, 1, 40, 0
3, 376226, Note_on_c, 1, 37, 0
3, 376247, Note_on_c, 1, 38, 75
3, 376852, Note_on_c, 1, 45, 74
3, 377205, Note_on_c, 1, 45, 0
3, 377286, Note_on_c, 1, 50, 99
3, 380154, Note_on_c, 1, 50, 0
3, 380654, Note_on_c, 1, 52, 84
3, 380978, Note_on_c, 1, 52, 0
3, 381109, Note_on_c, 1, 53, 105
3, 381556, Note_on_c, 1, 53, 0
3, 381614, Note_on_c, 1, 54, 117
3, 381988, Note_on_c, 1, 54, 0
3, 382099, Note_on_c, 1, 54, 117
3, 382332, Note_on_c, 1, 38, 0
3, 383474, Note_on_c, 1, 50, 86
3, 383520, Note_on_c, 1, 54, 0
3, 383906, Note_on_c, 1, 50, 0
3, 383981, Note_on_c, 1, 55, 124
3, 386356, Note_on_c, 1, 50, 91
3, 386487, Note_on_c, 1, 50, 0
3, 386508, Note_on_c, 1, 55, 0
3, 386809, Note_on_c, 1, 43, 83
3, 387646, Note_on_c, 1, 43, 0
3, 387710, Note_on_c, 1, 37, 81
3, 392337, Note_on_c, 1, 37, 0
3, 392690, Note_on_c, 1, 48, 67
3, 393130, Note_on_c, 1, 48, 0
3, 393162, Note_on_c, 1, 47, 75
3, 393568, Note_on_c, 1, 47, 0
3, 393662, Note_on_c, 1, 48, 71
3, 397951, Note_on_c, 1, 46, 95
3, 398007, Note_on_c, 1, 48, 0
3, 398878, Note_on_c, 1, 42, 89
3, 399178, Note_on_c, 1, 46, 0
3, 399374, Note_on_c, 1, 36, 96
3, 399397, Note_on_c, 1, 42, 0
3, 401860, Note_on_c, 1, 42, 86
3, 401991, Note_on_c, 1, 36, 0
3, 403838, Note_on_c, 1, 41, 98
3, 403849, Note_on_c, 1, 42, 0
3, 404648, Note_on_c, 1, 53, 112
3, 405016, Note_on_c, 1, 53, 0
3, 405168, Note_on_c, 1, 53, 114
3, 406474, Note_on_c, 1, 51, 96
3, 406510, Note_on_c, 1, 53, 0
3, 406912, Note_on_c, 1, 51, 0
3, 406961, Note_on_c, 1, 50, 84
3, 407180, Note_on_c, 1, 50, 0
3, 407196, Note_on_c, 1, 41, 0
3, 407393, Note_on_c, 1, 48, 86
3, 407870, Note_on_c, 1, 48, 0
3, 407946, Note_on_c, 1, 46, 81
3, 410389, Note_on_c, 1, 41, 74
3, 410535, Note_on_c, 1, 41, 0
3, 410863, Note_on_c, 1, 34, 82
3, 411662, Note_on_c, 1, 34, 0
3, 411664, Note_on_c, 1, 46, 0
3, 411798, Note_on_c, 1, 34, 89
3, 416191, Note_on_c, 1, 46, 121
3, 416636, Note_on_c, 1, 46, 0
3, 416819, Note_on_c, 1, 46, 111
3, 417577, Note_on_c, 1, 48, 106
3, 417637, Note_on_c, 1, 46, 0
3, 418251, Note_on_c, 1, 46, 96
3, 418299, Note_on_c, 1, 48, 0
3, 418497, Note_on_c, 1, 34, 0
3, 420133, Note_on_c, 1, 34, 75
3, 420369, Note_on_c, 1, 34, 0
3, 420622, Note_on_c, 1, 34, 80
3, 422199, Note_on_c, 1, 46, 0
3, 422404, Note_on_c, 1, 34, 0
3, 422435, Note_on_c, 1, 39, 81
3, 428168, Note_on_c, 1, 50, 117
3, 429395, Note_on_c, 1, 39, 0
3, 429600, Note_on_c, 1, 39, 74
3, 429863, Note_on_c, 1, 39, 0
3, 430069, Note_on_c, 1, 50, 0
3, 430101, Note_on_c, 1, 48, 90
3, 431524, Note_on_c, 1, 45, 91
3, 431841, Note_on_c, 1, 45, 0
3, 431991, Note_on_c, 1, 39, 106
3, 433454, Note_on_c, 1, 48, 0
3, 433456, Note_on_c, 1, 37, 81
3, 433515, Note_on_c, 1, 39, 0
3, 433811, Note_on_c, 1, 37, 0
3, 433916, Note_on_c, 1, 38, 86
3, 435305, Note_on_c, 1, 52, 49
3, 435477, Note_on_c, 1, 52, 0
3, 435562, Note_on_c, 1, 53, 80
3, 435811, Note_on_c, 1, 53, 0
3, 435886, Note_on_c, 1, 54, 86
3, 437280, Note_on_c, 1, 56, 81
3, 437305, Note_on_c, 1, 54, 0
3, 437572, Note_on_c, 1, 56, 0
3, 437804, Note_on_c, 1, 56, 79
3, 438252, Note_on_c, 1, 56, 0
3, 438267, Note_on_c, 1, 54, 65
3, 438666, Note_on_c, 1, 54, 0
3, 438714, Note_on_c, 1, 55, 82
3, 439563, Note_on_c, 1, 38, 0
3, 439644, Note_on_c, 1, 50, 67
3, 439776, Note_on_c, 1, 55, 0
3, 440625, Note_on_c, 1, 43, 87
3, 440652, Note_on_c, 1, 50, 0
3, 441479, Note_on_c, 1, 43, 0
3, 441556, Note_on_c, 1, 38, 99
3, 444948, Note_on_c, 1, 32, 91
3, 445002, Note_on_c, 1, 38, 0
3, 445334, Note_on_c, 1, 32, 0
3, 445392, Note_on_c, 1, 31, 95
3, 448783, Note_on_c, 1, 38, 75
3, 449023, Note_on_c, 1, 38, 0
3, 449269, Note_on_c, 1, 43, 87
3, 449733, Note_on_c, 1, 43, 0
3, 449758, Note_on_c, 1, 50, 95
3, 450206, Note_on_c, 1, 50, 0
3, 450275, Note_on_c, 1, 48, 92
3, 451073, Note_on_c, 1, 31, 0
3, 451709, Note_on_c, 1, 43, 82
3, 452028, Note_on_c, 1, 43, 0
3, 452172, Note_on_c, 1, 40, 74
3, 453164, Note_on_c, 1, 40, 0
3, 453168, Note_on_c, 1, 48, 0
3, 453170, Note_on_c, 1, 36, 79
3, 456931, Note_on_c, 1, 43, 102
3, 457004, Note_on_c, 1, 36, 0
3, 458362, Note_on_c, 1, 39, 93
3, 458385, Note_on_c, 1, 43, 0
3, 458725, Note_on_c, 1, 39, 0
3, 458832, Note_on_c, 1, 31, 103
3, 459752, Note_on_c, 1, 31, 0
3, 459859, Note_on_c, 1, 31, 127
3, 464197, Note_on_c, 1, 30, 107
3, 464264, Note_on_c, 1, 31, 0
3, 464675, Note_on_c, 1, 42, 116
3, 464757, Note_on_c, 1, 30, 0
3, 465149, Note_on_c, 1, 30, 90
3, 465429, Note_on_c, 1, 42, 0
3, 465564, Note_on_c, 1, 30, 0
3, 465614, Note_on_c, 1, 41, 91
3, 467033, Note_on_c, 1, 36, 77
3, 467355, Note_on_c, 1, 36, 0
3, 467416, Note_on_c, 1, 41, 0
3, 467509, Note_on_c, 1, 29, 92
3, 468496, Note_on_c, 1, 29, 0
3, 468509, Note_on_c, 1, 34, 89
3, 469342, Note_on_c, 1, 34, 0
3, 469484, Note_on_c, 1, 34, 99
3, 472405, Note_on_c, 1, 39, 87
3, 472474, Note_on_c, 1, 34, 0
3, 474889, Note_on_c, 1, 51, 94
3, 475022, Note_on_c, 1, 51, 0
3, 475340, Note_on_c, 1, 51, 83
3, 476168, Note_on_c, 1, 51, 0
3, 476224, Note_on_c, 1, 39, 0
3, 476243, Note_on_c, 1, 50, 89
3, 478587, Note_on_c, 1, 45, 86
3, 478720, Note_on_c, 1, 45, 0
3, 478781, Note_on_c, 1, 50, 0
3, 479084, Note_on_c, 1, 43, 63
3, 479998, Note_on_c, 1, 31, 79
3, 481857, Note_on_c, 1, 31, 0
3, 481901, Note_on_c, 1, 35, 117
3, 482003, Note_on_c, 1, 43, 0
3, 483842, Note_on_c, 1, 35, 0
3, 483875, Note_on_c, 1, 36, 99
3, 486647, Note_on_c, 1, 48, 112
3, 487640, Note_on_c, 1, 46, 124
3, 487655, Note_on_c, 1, 48, 0
3, 488512, Note_on_c, 1, 36, 0
3, 489585, Note_on_c, 1, 34, 117
3, 489690, Note_on_c, 1, 46, 0
3, 491541, Note_on_c, 1, 33, 102
3, 491616, Note_on_c, 1, 34, 0
3, 497240, Note_on_c, 1, 33, 0
3, 497274, Note_on_c, 1, 37, 88
3, 498787, Note_on_c, 1, 52, 127
3, 499206, Note_on_c, 1, 52, 0
3, 499310, Note_on_c, 1, 50, 99
3, 499425, Note_on_c, 1, 37, 0
3, 500648, Note_on_c, 1, 45, 80
3, 500736, Note_on_c, 1, 50, 0
3, 501053, Note_on_c, 1, 45, 0
3, 501130, Note_on_c, 1, 41, 88
3, 502529, Note_on_c, 1, 37, 71
3, 502673, Note_on_c, 1, 41, 0
3, 502904, Note_on_c, 1, 37, 0
3, 503006, Note_on_c, 1, 38, 73
3, 503520, Note_on_c, 1, 38, 0
3, 503536, Note_on_c, 1, 33, 81
3, 503825, Note_on_c, 1, 33, 0
3, 503946, Note_on_c, 1, 30, 103
3, 505884, Note_on_c, 1, 38, 68
3, 505980, Note_on_c, 1, 30, 0
3, 506172, Note_on_c, 1, 38, 0
3, 506362, Note_on_c, 1, 33, 96
3, 506600, Note_on_c, 1, 33, 0
3, 506830, Note_on_c, 1, 31, 103
3, 508723, Note_on_c, 1, 31, 0
3, 508743, Note_on_c, 1, 38, 77
3, 508819, Note_on_c, 1, 38, 0
3, 509240, Note_on_c, 1, 34, 86
3, 509413, Note_on_c, 1, 34, 0
3, 509699, Note_on_c, 1, 31, 95
3, 511667, Note_on_c, 1, 37, 102
3, 511686, Note_on_c, 1, 31, 0
3, 514526, Note_on_c, 1, 37, 0
3, 514552, Note_on_c, 1, 36, 79
3, 516171, Note_on_c, 1, 47, 71
3, 516434, Note_on_c, 1, 47, 0
3, 516538, Note_on_c, 1, 48, 92
3, 518387, Note_on_c, 1, 48, 0
3, 518488, Note_on_c, 1, 48, 75
3, 519335, Note_on_c, 1, 46, 108
3, 519345, Note_on_c, 1, 48, 0
3, 520288, Note_on_c, 1, 36, 0
3, 520867, Note_on_c, 1, 36, 67
3, 520961, Note_on_c, 1, 36, 0
3, 522161, Note_on_c, 1, 46, 0
3, 522179, Note_on_c, 1, 45, 83
3, 524118, Note_on_c, 1, 45, 0
3, 524147, Note_on_c, 1, 39, 77
3, 525635, Note_on_c, 1, 50, 89
3, 525819, Note_on_c, 1, 50, 0
3, 525865, Note_on_c, 1, 49, 84
3, 526103, Note_on_c, 1, 49, 0
3, 526155, Note_on_c, 1, 50, 86
3, 527315, Note_on_c, 1, 39, 0
3, 528069, Note_on_c, 1, 38, 80
3, 529494, Note_on_c, 1, 50, 0
3, 529505, Note_on_c, 1, 48, 77
3, 529663, Note_on_c, 1, 48, 0
3, 529972, Note_on_c, 1, 46, 80
3, 530174, Note_on_c, 1, 38, 0
3, 530483, Note_on_c, 1, 46, 0
3, 530512, Note_on_c, 1, 45, 83
3, 530775, Note_on_c, 1, 45, 0
3, 530940, Note_on_c, 1, 43, 82
3, 532933, Note_on_c, 1, 38, 76
3, 533042, Note_on_c, 1, 38, 0
3, 533415, Note_on_c, 1, 38, 85
3, 533741, Note_on_c, 1, 38, 0
3, 533850, Note_on_c, 1, 43, 0
3, 533870, Note_on_c, 1, 31, 99
3, 537520, Note_on_c, 1, 41, 83
3, 537535, Note_on_c, 1, 31, 0
3, 538090, Note_on_c, 1, 38, 81
3, 538228, Note_on_c, 1, 41, 0
3, 538526, Note_on_c, 1, 38, 0
3, 538552, Note_on_c, 1, 39, 99
3, 541392, Note_on_c, 1, 44, 91
3, 541578, Note_on_c, 1, 39, 0
3, 543159, Note_on_c, 1, 39, 37
3, 543310, Note_on_c, 1, 39, 0
3, 543360, Note_on_c, 1, 51, 111
3, 543393, Note_on_c, 1, 44, 0
3, 543500, Note_on_c, 1, 49, 48
3, 543585, Note_on_c, 1, 49, 0
3, 544821, Note_on_c, 1, 39, 67
3, 545073, Note_on_c, 1, 39, 0
3, 545282, Note_on_c, 1, 51, 0
3, 545307, Note_on_c, 1, 46, 89
3, 549201, Note_on_c, 1, 39, 77
3, 549345, Note_on_c, 1, 39, 0
3, 549717, Note_on_c, 1, 39, 75
3, 549842, Note_on_c, 1, 39, 0
3, 550184, Note_on_c, 1, 39, 82
3, 550220, Note_on_c, 1, 46, 0
3, 552895, Note_on_c, 1, 32, 89
3, 552926, Note_on_c, 1, 39, 0
3, 554913, Note_on_c, 1, 44, 123
3, 556453, Note_on_c, 1, 39, 83
3, 556529, Note_on_c, 1, 39, 0
3, 556537, Note_on_c, 1, 32, 0
3, 556783, Note_on_c, 1, 44, 0
3, 556839, Note_on_c, 1, 43, 97
3, 557002, Note_on_c, 1, 43, 0
3, 557332, Note_on_c, 1, 38, 92
3, 557668, Note_on_c, 1, 38, 0
3, 557800, Note_on_c, 1, 31, 114
3, 559717, Note_on_c, 1, 38, 87
3, 560118, Note_on_c, 1, 31, 0
3, 560168, Note_on_c, 1, 38, 0
3, 560189, Note_on_c, 1, 35, 99
3, 560709, Note_on_c, 1, 36, 118
3, 560786, Note_on_c, 1, 35, 0
3, 563497, Note_on_c, 1, 43, 102
3, 563537, Note_on_c, 1, 44, 81
3, 563610, Note_on_c, 1, 44, 0
3, 564039, Note_on_c, 1, 42, 77
3, 564060, Note_on_c, 1, 43, 0
3, 564352, Note_on_c, 1, 42, 0
3, 564457, Note_on_c, 1, 43, 87
3, 564549, Note_on_c, 1, 44, 48
3, 564601, Note_on_c, 1, 36, 0
3, 564739, Note_on_c, 1, 44, 0
3, 565409, Note_on_c, 1, 31, 124
3, 565444, Note_on_c, 1, 43, 0
3, 569397, Note_on_c, 1, 31, 0
3, 569420, Note_on_c, 1, 36, 112
3, 571323, Note_on_c, 1, 42, 93
3, 571440, Note_on_c, 1, 36, 0
3, 572241, Note_on_c, 1, 42, 0
3, 572295, Note_on_c, 1, 41, 85
3, 574061, Note_on_c, 1, 41, 0
3, 574103, Note_on_c, 1, 29, 84
3, 575929, Note_on_c, 1, 29, 0
3, 576012, Note_on_c, 1, 34, 71
3, 576227, Note_on_c, 1, 34, 0
3, 576469, Note_on_c, 1, 34, 77
3, 576663, Note_on_c, 1, 34, 0
3, 576958, Note_on_c, 1, 34, 84
3, 577901, Note_on_c, 1, 46, 87
3, 581311, Note_on_c, 1, 43, 77
3, 581351, Note_on_c, 1, 46, 0
3, 581639, Note_on_c, 1, 43, 0
3, 581816, Note_on_c, 1, 43, 88
3, 583169, Note_on_c, 1, 42, 80
3, 583189, Note_on_c, 1, 43, 0
3, 583390, Note_on_c, 1, 42, 0
3, 583584, Note_on_c, 1, 34, 0
3, 583665, Note_on_c, 1, 42, 74
3, 583876, Note_on_c, 1, 42, 0
3, 584152, Note_on_c, 1, 37, 69
3, 584256, Note_on_c, 1, 37, 0
3, 584638, Note_on_c, 1, 30, 93
3, 587134, Note_on_c, 1, 42, 77
3, 587411, Note_on_c, 1, 42, 0
3, 587539, Note_on_c, 1, 30, 0
3, 587545, Note_on_c, 1, 41, 64
3, 587816, Note_on_c, 1, 41, 0
3, 588042, Note_on_c, 1, 36, 74
3, 588165, Note_on_c, 1, 36, 0
3, 588490, Note_on_c, 1, 29, 95
3, 591097, Note_on_c, 1, 29, 0
3, 591328, Note_on_c, 1, 34, 79
3, 594691, Note_on_c, 1, 41, 75
3, 594872, Note_on_c, 1, 34, 0
3, 595123, Note_on_c, 1, 41, 0
3, 595186, Note_on_c, 1, 39, 67
3, 597116, Note_on_c, 1, 51, 70
3, 597272, Note_on_c, 1, 51, 0
3, 597419, Note_on_c, 1, 50, 46
3, 597559, Note_on_c, 1, 50, 0
3, 597671, Note_on_c, 1, 51, 88
3, 598919, Note_on_c, 1, 51, 0
3, 598920, Note_on_c, 1, 50, 64
3, 599017, Note_on_c, 1, 39, 0
3, 599096, Note_on_c, 1, 50, 0
3, 599424, Note_on_c, 1, 45, 83
3, 599601, Note_on_c, 1, 45, 0
3, 599938, Note_on_c, 1, 41, 73
3, 601361, Note_on_c, 1, 41, 0
3, 601456, Note_on_c, 1, 38, 65
3, 601816, Note_on_c, 1, 38, 0
3, 601861, Note_on_c, 1, 32, 65
3, 602859, Note_on_c, 1, 32, 0
3, 602875, Note_on_c, 1, 31, 73
3, 606171, Note_on_c, 1, 31, 0
3, 606176, Note_on_c, 1, 35, 65
3, 606551, Note_on_c, 1, 35, 0
3, 606626, Note_on_c, 1, 36, 81
3, 612047, Note_on_c, 1, 48, 105
3, 612498, Note_on_c, 1, 48, 0
3, 612498, Note_on_c, 1, 36, 0
3, 612547, Note_on_c, 1, 46, 87
3, 613923, Note_on_c, 1, 36, 77
3, 613989, Note_on_c, 1, 36, 0
3, 614373, Note_on_c, 1, 46, 0
3, 614380, Note_on_c, 1, 45, 80
3, 616625, Note_on_c, 1, 40, 65
3, 616737, Note_on_c, 1, 40, 0
3, 616887, Note_on_c, 1, 34, 99
3, 616952, Note_on_c, 1, 34, 0
3, 617106, Note_on_c, 1, 45, 0
3, 617245, Note_on_c, 1, 33, 94
3, 621410, Note_on_c, 1, 40, 69
3, 621467, Note_on_c, 1, 33, 0
3, 621555, Note_on_c, 1, 40, 0
3, 621648, Note_on_c, 1, 37, 98
3, 621768, Note_on_c, 1, 37, 0
3, 622000, Note_on_c, 1, 38, 96
3, 624460, Note_on_c, 1, 45, 72
3, 624542, Note_on_c, 1, 45, 0
3, 625422, Note_on_c, 1, 52, 71
3, 625575, Note_on_c, 1, 52, 0
3, 626406, Note_on_c, 1, 53, 97
3, 626847, Note_on_c, 1, 53, 0
3, 626922, Note_on_c, 1, 54, 88
3, 627677, Note_on_c, 1, 38, 0
3, 628376, Note_on_c, 1, 50, 83
3, 628449, Note_on_c, 1, 54, 0
3, 628451, Note_on_c, 1, 50, 0
3, 628842, Note_on_c, 1, 42, 73
3, 629008, Note_on_c, 1, 42, 0
3, 629352, Note_on_c, 1, 42, 75
3, 629700, Note_on_c, 1, 42, 0
3, 629818, Note_on_c, 1, 43, 69
3, 630114, Note_on_c, 1, 43, 0
3, 630306, Note_on_c, 1, 38, 73
3, 630492, Note_on_c, 1, 38, 0
3, 630750, Note_on_c, 1, 34, 65
3, 631013, Note_on_c, 1, 34, 0
3, 631214, Note_on_c, 1, 33, 77
3, 631472, Note_on_c, 1, 33, 0
3, 631664, Note_on_c, 1, 31, 85
3, 634164, Note_on_c, 1, 37, 98
3, 634212, Note_on_c, 1, 31, 0
3, 635522, Note_on_c, 1, 49, 95
3, 635771, Note_on_c, 1, 49, 0
3, 636026, Note_on_c, 1, 49, 101
3, 636271, Note_on_c, 1, 49, 0
3, 636483, Note_on_c, 1, 49, 83
3, 636690, Note_on_c, 1, 37, 0
3, 636981, Note_on_c, 1, 37, 72
3, 637251, Note_on_c, 1, 37, 0
3, 637354, Note_on_c, 1, 49, 0
3, 637454, Note_on_c, 1, 48, 87
3, 638905, Note_on_c, 1, 43, 74
3, 639181, Note_on_c, 1, 43, 0
3, 639361, Note_on_c, 1, 43, 79
3, 639368, Note_on_c, 1, 48, 0
3, 640697, Note_on_c, 1, 36, 88
3, 640739, Note_on_c, 1, 43, 0
3, 641160, Note_on_c, 1, 36, 0
3, 641212, Note_on_c, 1, 36, 72
3, 645122, Note_on_c, 1, 48, 110
3, 645226, Note_on_c, 1, 36, 0
3, 647828, Note_on_c, 1, 48, 0
3, 647910, Note_on_c, 1, 42, 95
3, 648514, Note_on_c, 1, 42, 0
3, 648892, Note_on_c, 1, 41, 105
3, 649050, Control_c, 1, 1, 0
3, 649086, Control_c, 1, 1, 1
3, 649104, Control_c, 1, 1, 3
3, 649122, Control_c, 1, 1, 5
3, 649140, Control_c, 1, 1, 7
3, 649157, Control_c, 1, 1, 8
3, 649174, Control_c, 1, 1, 10
3, 649191, Control_c, 1, 1, 11
3, 649211, Control_c, 1, 1, 13
3, 649229, Control_c, 1, 1, 14
3, 649245, Control_c, 1, 1, 15
3, 649263, Control_c, 1, 1, 17
3, 649281, Control_c, 1, 1, 19
3, 649299, Control_c, 1, 1, 21
3, 649319, Control_c, 1, 1, 22
3, 649335, Control_c, 1, 1, 24
3, 649353, Control_c, 1, 1, 25
3, 649371, Control_c, 1, 1, 26
3, 649389, Control_c, 1, 1, 27
3, 649405, Control_c, 1, 1, 28
3, 649424, Control_c, 1, 1, 29
3, 649442, Control_c, 1, 1, 30
3, 649460, Control_c, 1, 1, 31
3, 649476, Control_c, 1, 1, 32
3, 649494, Control_c, 1, 1, 33
3, 649512, Control_c, 1, 1, 34
3, 649532, Control_c, 1, 1, 35
3, 649548, Control_c, 1, 1, 38
3, 649566, Control_c, 1, 1, 39
3, 649584, Control_c, 1, 1, 40
3, 649604, Control_c, 1, 1, 42
3, 649620, Control_c, 1, 1, 43
3, 649636, Control_c, 1, 1, 45
3, 649656, Control_c, 1, 1, 46
3, 649674, Control_c, 1, 1, 48
3, 649691, Control_c, 1, 1, 49
3, 649709, Control_c, 1, 1, 51
3, 649727, Control_c, 1, 1, 52
3, 649745, Control_c, 1, 1, 55
3, 649763, Control_c, 1, 1, 56
3, 649779, Control_c, 1, 1, 58
3, 649797, Control_c, 1, 1, 59
3, 649815, Control_c, 1, 1, 61
3, 649835, Control_c, 1, 1, 62
3, 649851, Control_c, 1, 1, 63
3, 649869, Control_c, 1, 1, 64
3, 649887, Control_c, 1, 1, 65
3, 649905, Control_c, 1, 1, 66
3, 649921, Control_c, 1, 1, 67
3, 649941, Control_c, 1, 1, 68
3, 649958, Control_c, 1, 1, 69
3, 649976, Control_c, 1, 1, 70
3, 649992, Control_c, 1, 1, 71
3, 650030, Control_c, 1, 1, 72
3, 650048, Control_c, 1, 1, 74
3, 650082, Control_c, 1, 1, 75
3, 650118, Control_c, 1, 1, 76
3, 650154, Control_c, 1, 1, 77
3, 650190, Control_c, 1, 1, 78
3, 650208, Control_c, 1, 1, 79
3, 650242, Control_c, 1, 1, 80
3, 650279, Control_c, 1, 1, 81
3, 650313, Control_c, 1, 1, 82
3, 650331, Control_c, 1, 1, 83
3, 650367, Control_c, 1, 1, 84
3, 650403, Control_c, 1, 1, 85
3, 650439, Control_c, 1, 1, 86
3, 650457, Control_c, 1, 1, 87
3, 650492, Control_c, 1, 1, 88
3, 650564, Control_c, 1, 1, 89
3, 650670, Control_c, 1, 1, 88
3, 650756, Control_c, 1, 1, 87
3, 650813, Control_c, 1, 1, 86
3, 650865, Control_c, 1, 1, 85
3, 650901, Control_c, 1, 1, 84
3, 650919, Control_c, 1, 1, 83
3, 650955, Control_c, 1, 1, 82
3, 650973, Control_c, 1, 1, 81
3, 650991, Control_c, 1, 1, 80
3, 651009, Control_c, 1, 1, 79
3, 651043, Control_c, 1, 1, 78
3, 651061, Control_c, 1, 1, 77
3, 651080, Control_c, 1, 1, 76
3, 651114, Control_c, 1, 1, 75
3, 651132, Control_c, 1, 1, 74
3, 651152, Control_c, 1, 1, 72
3, 651168, Control_c, 1, 1, 71
3, 651186, Control_c, 1, 1, 69
3, 651204, Control_c, 1, 1, 68
3, 651222, Control_c, 1, 1, 66
3, 651240, Control_c, 1, 1, 64
3, 651258, Control_c, 1, 1, 62
3, 651274, Control_c, 1, 1, 61
3, 651293, Control_c, 1, 1, 59
3, 651311, Control_c, 1, 1, 58
3, 651329, Control_c, 1, 1, 57
3, 651347, Control_c, 1, 1, 56
3, 651365, Control_c, 1, 1, 55
3, 651403, Control_c, 1, 1, 53
3, 651419, Control_c, 1, 1, 52
3, 651437, Control_c, 1, 1, 51
3, 651473, Control_c, 1, 1, 50
3, 651491, Control_c, 1, 1, 49
3, 651509, Control_c, 1, 1, 48
3, 651526, Control_c, 1, 1, 47
3, 651562, Control_c, 1, 1, 46
3, 651582, Control_c, 1, 1, 45
3, 651596, Control_c, 1, 1, 44
3, 651616, Control_c, 1, 1, 43
3, 651634, Control_c, 1, 1, 42
3, 651650, Control_c, 1, 1, 41
3, 651668, Control_c, 1, 1, 39
3, 651686, Control_c, 1, 1, 37
3, 651706, Control_c, 1, 1, 34
3, 651722, Control_c, 1, 1, 32
3, 651740, Control_c, 1, 1, 30
3, 651758, Control_c, 1, 1, 28
3, 651776, Control_c, 1, 1, 26
3, 651793, Control_c, 1, 1, 24
3, 651811, Control_c, 1, 1, 22
3, 651829, Control_c, 1, 1, 21
3, 651847, Control_c, 1, 1, 19
3, 651863, Control_c, 1, 1, 17
3, 651881, Control_c, 1, 1, 15
3, 651901, Control_c, 1, 1, 14
3, 651919, Control_c, 1, 1, 12
3, 651935, Control_c, 1, 1, 10
3, 651953, Control_c, 1, 1, 8
3, 651971, Control_c, 1, 1, 6
3, 651989, Control_c, 1, 1, 4
3, 652007, Control_c, 1, 1, 1
3, 652025, Control_c, 1, 1, 0
3, 652835, Note_on_c, 1, 41, 0
3, 652860, Note_on_c, 1, 46, 75
3, 658091, Note_on_c, 1, 34, 80
3, 658304, Note_on_c, 1, 34, 0
3, 658345, Note_on_c, 1, 33, 70
3, 658562, Note_on_c, 1, 33, 0
3, 658589, Note_on_c, 1, 34, 80
3, 660171, Note_on_c, 1, 36, 62
3, 660268, Note_on_c, 1, 36, 0
3, 660388, Note_on_c, 1, 34, 0
3, 660388, Note_on_c, 1, 46, 0
3, 660422, Note_on_c, 1, 41, 95
3, 663931, Note_on_c, 1, 48, 127
3, 664002, Note_on_c, 1, 50, 66
3, 664069, Note_on_c, 1, 50, 0
3, 664330, Note_on_c, 1, 41, 0
3, 664404, Note_on_c, 1, 48, 0
3, 664447, Note_on_c, 1, 46, 85
3, 666744, Note_on_c, 1, 41, 87
3, 667025, Note_on_c, 1, 41, 0
3, 667176, Note_on_c, 1, 38, 84
3, 667938, Note_on_c, 1, 46, 0
3, 668140, Note_on_c, 1, 39, 81
3, 668142, Note_on_c, 1, 38, 0
3, 670074, Note_on_c, 1, 39, 0
3, 670101, Note_on_c, 1, 34, 91
3, 672000, Note_on_c, 1, 46, 101
3, 672204, Note_on_c, 1, 34, 0
3, 673805, Note_on_c, 1, 46, 0
3, 673846, Note_on_c, 1, 39, 82
3, 675844, Note_on_c, 1, 45, 84
3, 675858, Note_on_c, 1, 39, 0
3, 678286, Note_on_c, 1, 33, 67
3, 678559, Note_on_c, 1, 33, 0
3, 678720, Note_on_c, 1, 33, 89
3, 679591, Note_on_c, 1, 45, 0
3, 679663, Note_on_c, 1, 38, 87
3, 679707, Note_on_c, 1, 33, 0
3, 682917, Note_on_c, 1, 45, 74
3, 683152, Note_on_c, 1, 45, 0
3, 683204, Note_on_c, 1, 42, 72
3, 683372, Note_on_c, 1, 42, 0
3, 683494, Note_on_c, 1, 43, 77
3, 683523, Note_on_c, 1, 38, 0
3, 684949, Note_on_c, 1, 38, 89
3, 685193, Note_on_c, 1, 38, 0
3, 685200, Note_on_c, 1, 43, 0
3, 685347, Note_on_c, 1, 31, 89
3, 686220, Note_on_c, 1, 31, 0
3, 686343, Note_on_c, 1, 31, 105
3, 689245, Note_on_c, 1, 38, 95
3, 689280, Note_on_c, 1, 31, 0
3, 689700, Note_on_c, 1, 38, 0
3, 689795, Note_on_c, 1, 38, 101
3, 690182, Note_on_c, 1, 38, 0
3, 690277, Note_on_c, 1, 38, 97
3, 691207, Note_on_c, 1, 43, 113
3, 691296, Note_on_c, 1, 38, 0
3, 695472, Note_on_c, 1, 50, 87
3, 695914, Note_on_c, 1, 43, 0
3, 696007, Note_on_c, 1, 50, 0
3, 696052, Note_on_c, 1, 48, 85
3, 697559, Note_on_c, 1, 43, 87
3, 697756, Note_on_c, 1, 43, 0
3, 698968, Note_on_c, 1, 36, 92
3, 699016, Note_on_c, 1, 48, 0
3, 702158, Note_on_c, 1, 43, 87
3, 702357, Note_on_c, 1, 36, 0
3, 702699, Note_on_c, 1, 43, 0
3, 702713, Note_on_c, 1, 43, 77
3, 703654, Note_on_c, 1, 43, 0
3, 703686, Note_on_c, 1, 43, 81
3, 704670, Note_on_c, 1, 31, 79
3, 706530, Note_on_c, 1, 43, 0
3, 706546, Note_on_c, 1, 36, 89
3, 706600, Note_on_c, 1, 31, 0
3, 708519, Note_on_c, 1, 42, 92
3, 708575, Note_on_c, 1, 36, 0
3, 710440, Note_on_c, 1, 42, 0
3, 710481, Note_on_c, 1, 41, 89
3, 712419, Note_on_c, 1, 35, 127
3, 712440, Note_on_c, 1, 41, 0
3, 714218, Note_on_c, 1, 35, 0
3, 714220, Note_on_c, 1, 34, 111
3, 718110, Note_on_c, 1, 34, 0
3, 718110, Note_on_c, 1, 39, 77
3, 721467, Note_on_c, 1, 51, 88
3, 721909, Note_on_c, 1, 51, 0
3, 721975, Note_on_c, 1, 50, 63
3, 722032, Note_on_c, 1, 39, 0
3, 722325, Note_on_c, 1, 50, 0
3, 723325, Note_on_c, 1, 50, 92
3, 723741, Note_on_c, 1, 50, 0
3, 723882, Note_on_c, 1, 50, 69
3, 725081, Note_on_c, 1, 45, 74
3, 725205, Note_on_c, 1, 45, 0
3, 725316, Note_on_c, 1, 50, 0
3, 725361, Note_on_c, 1, 44, 80
3, 725576, Note_on_c, 1, 44, 0
3, 725683, Note_on_c, 1, 43, 81
3, 728918, Note_on_c, 1, 38, 85
3, 728970, Note_on_c, 1, 43, 0
3, 729075, Note_on_c, 1, 38, 0
3, 729222, Note_on_c, 1, 35, 82
3, 729448, Note_on_c, 1, 35, 0
3, 729573, Note_on_c, 1, 36, 83
3, 732131, Note_on_c, 1, 43, 63
3, 732220, Note_on_c, 1, 43, 0
3, 732935, Note_on_c, 1, 48, 89
3, 733091, Note_on_c, 1, 48, 0
3, 733510, Note_on_c, 1, 48, 91
3, 734260, Note_on_c, 1, 48, 0
3, 734326, Note_on_c, 1, 46, 79
3, 734944, Note_on_c, 1, 46, 0
3, 735299, Note_on_c, 1, 46, 80
3, 735817, Note_on_c, 1, 36, 0
3, 737044, Note_on_c, 1, 36, 55
3, 737159, Note_on_c, 1, 36, 0
3, 737188, Note_on_c, 1, 46, 0
3, 737299, Note_on_c, 1, 45, 73
3, 737775, Note_on_c, 1, 45, 0
3, 737881, Note_on_c, 1, 45, 76
3, 740713, Note_on_c, 1, 44, 80
3, 740718, Note_on_c, 1, 45, 0
3, 741094, Note_on_c, 1, 44, 0
3, 741209, Note_on_c, 1, 45, 64
3, 741494, Note_on_c, 1, 45, 0
3, 741630, Note_on_c, 1, 40, 89
3, 742157, Note_on_c, 1, 37, 79
3, 742164, Note_on_c, 1, 40, 0
3, 744413, Note_on_c, 1, 37, 0
3, 744465, Note_on_c, 1, 40, 83
3, 744581, Note_on_c, 1, 40, 0
3, 744687, Note_on_c, 1, 37, 72
3, 744768, Note_on_c, 1, 37, 0
3, 744933, Note_on_c, 1, 37, 59
3, 745021, Note_on_c, 1, 38, 81
3, 745033, Note_on_c, 1, 37, 0
3, 748325, Note_on_c, 1, 45, 91
3, 748739, Note_on_c, 1, 45, 0
3, 748845, Note_on_c, 1, 42, 76
3, 748877, Note_on_c, 1, 38, 0
3, 750214, Note_on_c, 1, 37, 86
3, 750352, Note_on_c, 1, 42, 0
3, 750696, Note_on_c, 1, 38, 85
3, 750724, Note_on_c, 1, 37, 0
3, 751871, Note_on_c, 1, 38, 0
3, 751898, Note_on_c, 1, 33, 75
3, 751973, Note_on_c, 1, 33, 0
3, 752196, Note_on_c, 1, 32, 77
3, 752325, Note_on_c, 1, 32, 0
3, 752533, Note_on_c, 1, 31, 96
3, 755997, Note_on_c, 1, 43, 90
3, 756020, Note_on_c, 1, 31, 0
3, 756475, Note_on_c, 1, 43, 0
3, 756480, Note_on_c, 1, 42, 73
3, 760351, Note_on_c, 1, 42, 0
3, 760353, Note_on_c, 1, 36, 80
3, 764182, Note_on_c, 1, 48, 79
3, 764360, Note_on_c, 1, 48, 0
3, 764630, Note_on_c, 1, 46, 78
3, 764738, Note_on_c, 1, 46, 0
3, 765093, Note_on_c, 1, 48, 85
3, 765560, Note_on_c, 1, 48, 0
3, 765587, Note_on_c, 1, 50, 77
3, 765818, Note_on_c, 1, 36, 0
3, 766023, Note_on_c, 1, 50, 0
3, 766093, Note_on_c, 1, 48, 77
3, 767555, Note_on_c, 1, 46, 87
3, 767661, Note_on_c, 1, 48, 0
3, 767960, Note_on_c, 1, 46, 0
3, 768046, Note_on_c, 1, 45, 79
3, 768521, Note_on_c, 1, 40, 77
3, 768530, Note_on_c, 1, 45, 0
3, 768972, Note_on_c, 1, 40, 0
3, 768990, Note_on_c, 1, 33, 99
3, 770528, Note_on_c, 1, 39, 113
3, 770560, Note_on_c, 1, 33, 0
3, 771350, Note_on_c, 1, 39, 0
3, 771350, Note_on_c, 1, 37, 107
3, 771883, Note_on_c, 1, 37, 0
3, 771938, Note_on_c, 1, 38, 99
3, 773417, Note_on_c, 1, 45, 79
3, 773863, Note_on_c, 1, 45, 0
3, 773909, Note_on_c, 1, 54, 92
3, 775173, Note_on_c, 1, 38, 0
3, 775339, Note_on_c, 1, 38, 70
3, 775646, Note_on_c, 1, 54, 0
3, 775795, Note_on_c, 1, 55, 92
3, 775798, Note_on_c, 1, 38, 0
3, 781307, Note_on_c, 1, 55, 0
3, 781443, Note_on_c, 1, 50, 78
3, 781909, Note_on_c, 1, 46, 84
3, 781920, Note_on_c, 1, 50, 0
3, 782219, Note_on_c, 1, 46, 0
3, 782441, Note_on_c, 1, 43, 68
3, 782584, Note_on_c, 1, 43, 0
3, 782945, Note_on_c, 1, 40, 81
3, 783475, Note_on_c, 1, 39, 84
3, 783484, Note_on_c, 1, 40, 0
3, 788615, Note_on_c, 1, 32, 86
3, 788674, Note_on_c, 1, 39, 0
3, 789088, Note_on_c, 1, 32, 0
3, 789177, Note_on_c, 1, 32, 81
3, 790439, Note_on_c, 1, 32, 0
3, 790545, Note_on_c, 1, 33, 81
3, 790966, Note_on_c, 1, 33, 0
3, 790993, Note_on_c, 1, 34, 83
3, 792869, Note_on_c, 1, 34, 0
3, 792883, Note_on_c, 1, 41, 91
3, 794865, Note_on_c, 1, 41, 0
3, 794908, Note_on_c, 1, 39, 83
3, 798300, Note_on_c, 1, 51, 106
3, 798777, Note_on_c, 1, 39, 0
3, 798807, Note_on_c, 1, 51, 0
3, 798874, Note_on_c, 1, 53, 84
3, 799361, Note_on_c, 1, 44, 68
3, 799415, Note_on_c, 1, 53, 0
3, 799689, Note_on_c, 1, 44, 0
3, 799868, Note_on_c, 1, 39, 62
3, 800361, Note_on_c, 1, 39, 0
3, 800363, Note_on_c, 1, 32, 83
3, 800779, Note_on_c, 1, 32, 0
3, 800890, Note_on_c, 1, 32, 87
3, 802524, Note_on_c, 1, 32, 0
3, 802590, Note_on_c, 1, 31, 91
3, 804484, Note_on_c, 1, 43, 103
3, 805753, Note_on_c, 1, 38, 82
3, 805793, Note_on_c, 1, 43, 0
3, 805798, Note_on_c, 1, 31, 0
3, 805965, Note_on_c, 1, 38, 0
3, 806006, Note_on_c, 1, 35, 74
3, 806092, Note_on_c, 1, 35, 0
3, 806278, Note_on_c, 1, 36, 101
3, 808278, Note_on_c, 1, 48, 99
3, 810136, Note_on_c, 1, 48, 0
3, 810185, Note_on_c, 1, 43, 96
3, 810212, Note_on_c, 1, 36, 0
3, 814065, Note_on_c, 1, 43, 0
3, 814083, Note_on_c, 1, 36, 97
3, 815977, Note_on_c, 1, 30, 111
3, 816030, Note_on_c, 1, 36, 0
3, 817869, Note_on_c, 1, 30, 0
3, 817907, Note_on_c, 1, 29, 102
3, 819896, Note_on_c, 1, 41, 127
3, 820046, Note_on_c, 1, 29, 0
3, 821926, Note_on_c, 1, 34, 84
3, 821955, Note_on_c, 1, 41, 0
3, 828037, Note_on_c, 1, 43, 100
3, 828302, Note_on_c, 1, 34, 0
3, 828823, Note_on_c, 1, 43, 0
3, 828965, Note_on_c, 1, 43, 87
3, 829524, Note_on_c, 1, 42, 83
3, 829546, Note_on_c, 1, 43, 0
3, 831843, Note_on_c, 1, 42, 0
3, 831847, Note_on_c, 1, 37, 77
3, 832341, Note_on_c, 1, 37, 0
3, 832357, Note_on_c, 1, 30, 89
3, 833343, Note_on_c, 1, 30, 0
3, 833363, Note_on_c, 1, 29, 92
3, 834778, Note_on_c, 1, 41, 75
3, 834954, Note_on_c, 1, 41, 0
3, 835287, Note_on_c, 1, 41, 78
3, 835300, Note_on_c, 1, 29, 0
3, 836431, Note_on_c, 1, 41, 0
3, 836731, Note_on_c, 1, 53, 108
3, 836737, Note_on_c, 1, 52, 96
3, 836797, Note_on_c, 1, 52, 0
3, 837187, Note_on_c, 1, 53, 0
3, 837296, Note_on_c, 1, 53, 101
3, 841473, Note_on_c, 1, 46, 116
3, 841943, Note_on_c, 1, 46, 0
3, 842033, Note_on_c, 1, 46, 127
3, 842219, Note_on_c, 1, 53, 0
3, 842823, Note_on_c, 1, 50, 95
3, 844167, Note_on_c, 1, 50, 0
3, 844264, Note_on_c, 1, 53, 89
3, 844868, Note_on_c, 1, 55, 106
3, 844963, Note_on_c, 1, 53, 0
3, 845403, Note_on_c, 1, 46, 0
3, 846190, Note_on_c, 1, 57, 86
3, 846228, Note_on_c, 1, 55, 0
3, 846834, Note_on_c, 1, 57, 0
3, 846860, Note_on_c, 1, 55, 76
3, 847962, Note_on_c, 1, 45, 74
3, 848171, Note_on_c, 1, 45, 0
3, 848244, Note_on_c, 1, 44, 76
3, 848502, Note_on_c, 1, 44, 0
3, 848627, Note_on_c, 1, 43, 101
3, 850963, Note_on_c, 1, 38, 79
3, 851035, Note_on_c, 1, 43, 0
3, 851352, Note_on_c, 1, 38, 0
3, 851406, Note_on_c, 1, 35, 77
3, 851445, Note_on_c, 1, 55, 0
3, 852367, Note_on_c, 1, 35, 0
3, 852464, Note_on_c, 1, 36, 75
3, 853439, Note_on_c, 1, 50, 79
3, 853689, Note_on_c, 1, 50, 0
3, 853752, Note_on_c, 1, 51, 99
3, 854023, Note_on_c, 1, 51, 0
3, 854085, Note_on_c, 1, 50, 104
3, 855398, Note_on_c, 1, 48, 82
3, 855405, Note_on_c, 1, 50, 0
3, 855509, Note_on_c, 1, 48, 0
3, 855702, Note_on_c, 1, 50, 89
3, 855734, Note_on_c, 1, 36, 0
3, 855931, Note_on_c, 1, 50, 0
3, 855996, Note_on_c, 1, 48, 95
3, 858211, Note_on_c, 1, 48, 0
3, 858218, Note_on_c, 1, 46, 75
3, 859909, Note_on_c, 1, 44, 47
3, 859930, Note_on_c, 1, 46, 0
3, 860036, Note_on_c, 1, 44, 0
3, 860180, Note_on_c, 1, 45, 57
3, 862561, Note_on_c, 1, 58, 126
3, 863119, Note_on_c, 1, 58, 0
3, 863149, Note_on_c, 1, 57, 105
3, 864546, Note_on_c, 1, 55, 92
3, 864622, Note_on_c, 1, 57, 0
3, 865038, Note_on_c, 1, 55, 0
3, 865085, Note_on_c, 1, 53, 81
3, 866382, Note_on_c, 1, 53, 0
3, 866405, Note_on_c, 1, 52, 86
3, 866775, Note_on_c, 1, 52, 0
3, 866799, Note_on_c, 1, 45, 0
3, 866831, Note_on_c, 1, 50, 77
3, 867239, Note_on_c, 1, 50, 0
3, 867308, Note_on_c, 1, 45, 74
3, 867718, Note_on_c, 1, 45, 0
3, 867850, Note_on_c, 1, 45, 83
3, 868665, Note_on_c, 1, 45, 0
3, 868762, Note_on_c, 1, 45, 74
3, 869811, Note_on_c, 1, 38, 71
3, 870168, Note_on_c, 1, 45, 0
3, 872966, Note_on_c, 1, 38, 0
3, 873091, Note_on_c, 1, 38, 114
3, 874024, Note_on_c, 1, 41, 123
3, 874279, Note_on_c, 1, 38, 0
3, 874765, Note_on_c, 1, 41, 0
3, 874786, Note_on_c, 1, 45, 112
3, 875416, Note_on_c, 1, 43, 91
3, 875501, Note_on_c, 1, 45, 0
3, 876157, Note_on_c, 1, 46, 82
3, 876205, Note_on_c, 1, 43, 0
3, 876852, Note_on_c, 1, 48, 86
3, 877599, Note_on_c, 1, 48, 0
3, 877683, Note_on_c, 1, 48, 61
3, 877718, Note_on_c, 1, 46, 0
3, 878475, Note_on_c, 1, 48, 0
3, 878487, Note_on_c, 1, 46, 72
3, 882770, Note_on_c, 1, 58, 80
3, 882907, Note_on_c, 1, 58, 0
3, 883298, Note_on_c, 1, 58, 77
3, 883627, Note_on_c, 1, 58, 0
3, 883792, Note_on_c, 1, 57, 38
3, 884090, Note_on_c, 1, 57, 0
3, 884174, Note_on_c, 1, 58, 80
3, 884514, Note_on_c, 1, 46, 0
3, 885056, Note_on_c, 1, 55, 75
3, 885057, Note_on_c, 1, 58, 0
3, 886504, Note_on_c, 1, 51, 76
3, 886539, Note_on_c, 1, 55, 0
3, 887002, Note_on_c, 1, 51, 0
3, 887087, Note_on_c, 1, 46, 67
3, 888505, Note_on_c, 1, 43, 79
3, 888674, Note_on_c, 1, 46, 0
3, 888977, Note_on_c, 1, 39, 87
3, 888995, Note_on_c, 1, 43, 0
3, 889494, Note_on_c, 1, 43, 99
3, 889521, Note_on_c, 1, 39, 0
3, 889908, Note_on_c, 1, 46, 108
3, 889949, Note_on_c, 1, 43, 0
3, 890793, Note_on_c, 1, 46, 0
3, 890825, Note_on_c, 1, 48, 98
3, 891341, Note_on_c, 1, 49, 75
3, 891487, Note_on_c, 1, 48, 0
3, 891753, Note_on_c, 1, 49, 0
3, 891805, Note_on_c, 1, 48, 74
3, 894280, Note_on_c, 1, 54, 84
3, 894319, Note_on_c, 1, 48, 0
3, 894794, Note_on_c, 1, 53, 70
3, 894950, Note_on_c, 1, 54, 0
3, 896198, Note_on_c, 1, 48, 76
3, 896395, Note_on_c, 1, 48, 0
3, 896677, Note_on_c, 1, 41, 74
3, 897446, Note_on_c, 1, 41, 0
3, 898157, Note_on_c, 1, 41, 72
3, 898483, Note_on_c, 1, 41, 0
3, 898678, Note_on_c, 1, 50, 87
3, 898793, Note_on_c, 1, 53, 0
3, 899331, Note_on_c, 1, 50, 0
3, 899574, Note_on_c, 1, 50, 76
3, 900067, Note_on_c, 1, 50, 0
3, 900076, Note_on_c, 1, 49, 74
3, 900507, Note_on_c, 1, 49, 0
3, 900539, Note_on_c, 1, 50, 67
3, 903851, Note_on_c, 1, 55, 127
3, 904764, Note_on_c, 1, 50, 0
3, 904870, Note_on_c, 1, 55, 0
3, 904872, Note_on_c, 1, 53, 105
3, 905581, Note_on_c, 1, 53, 0
3, 905613, Note_on_c, 1, 50, 87
3, 906185, Note_on_c, 1, 50, 0
3, 906220, Note_on_c, 1, 46, 83
3, 909770, Note_on_c, 1, 50, 118
3, 910313, Note_on_c, 1, 50, 0
3, 910451, Note_on_c, 1, 50, 94
3, 911056, Note_on_c, 1, 50, 0
3, 911232, Note_on_c, 1, 50, 97
3, 911982, Note_on_c, 1, 50, 0
3, 912176, Note_on_c, 1, 50, 89
3, 912814, Note_on_c, 1, 46, 0
3, 913455, Note_on_c, 1, 46, 84
3, 913751, Note_on_c, 1, 46, 0
3, 913883, Note_on_c, 1, 50, 0
3, 913895, Note_on_c, 1, 48, 101
3, 915308, Note_on_c, 1, 46, 76
3, 915486, Note_on_c, 1, 48, 0
3, 915822, Note_on_c, 1, 46, 0
3, 915843, Note_on_c, 1, 39, 82
3, 918209, Note_on_c, 1, 48, 108
3, 919047, Note_on_c, 1, 48, 0
3, 919157, Note_on_c, 1, 48, 116
3, 919520, Note_on_c, 1, 48, 0
3, 919648, Note_on_c, 1, 48, 104
3, 920492, Note_on_c, 1, 48, 0
3, 920521, Note_on_c, 1, 46, 88
3, 921442, Note_on_c, 1, 39, 0
3, 921451, Note_on_c, 1, 46, 0
3, 921479, Note_on_c, 1, 45, 80
3, 924027, Note_on_c, 1, 48, 77
3, 924316, Note_on_c, 1, 48, 0
3, 924534, Note_on_c, 1, 51, 79
3, 925965, Note_on_c, 1, 50, 89
3, 926136, Note_on_c, 1, 51, 0
3, 926745, Note_on_c, 1, 45, 0
3, 926877, Note_on_c, 1, 38, 78
3, 927178, Note_on_c, 1, 38, 0
3, 927320, Note_on_c, 1, 50, 0
3, 927326, Note_on_c, 1, 38, 88
3, 928304, Note_on_c, 1, 38, 0
3, 928753, Note_on_c, 1, 44, 102
3, 929031, Note_on_c, 1, 44, 0
3, 929239, Note_on_c, 1, 43, 105
3, 929703, Pitch_bend_c, 1, 8064
3, 929719, Pitch_bend_c, 1, 7936
3, 929737, Pitch_bend_c, 1, 7808
3, 929754, Pitch_bend_c, 1, 7552
3, 929772, Pitch_bend_c, 1, 7424
3, 929790, Pitch_bend_c, 1, 7040
3, 929806, Pitch_bend_c, 1, 6784
3, 929823, Pitch_bend_c, 1, 6656
3, 929843, Pitch_bend_c, 1, 6400
3, 929860, Pitch_bend_c, 1, 6016
3, 929876, Pitch_bend_c, 1, 5760
3, 929893, Pitch_bend_c, 1, 5504
3, 929911, Pitch_bend_c, 1, 5120
3, 929930, Pitch_bend_c, 1, 4864
3, 929946, Pitch_bend_c, 1, 4608
3, 929964, Pitch_bend_c, 1, 4224
3, 929981, Pitch_bend_c, 1, 3968
3, 929999, Pitch_bend_c, 1, 3712
3, 930015, Pitch_bend_c, 1, 3328
3, 930034, Pitch_bend_c, 1, 2944
3, 930052, Pitch_bend_c, 1, 2560
3, 930069, Pitch_bend_c, 1, 2304
3, 930087, Pitch_bend_c, 1, 1920
3, 930103, Pitch_bend_c, 1, 1536
3, 930114, Note_on_c, 1, 43, 0
3, 930122, Pitch_bend_c, 1, 1152
3, 930140, Pitch_bend_c, 1, 768
3, 930158, Pitch_bend_c, 1, 512
3, 930173, Pitch_bend_c, 1, 128
3, 930191, Pitch_bend_c, 1, 0
3, 930506, Pitch_bend_c, 1, 128
3, 930524, Pitch_bend_c, 1, 1408
3, 930541, Pitch_bend_c, 1, 3840
3, 930559, Pitch_bend_c, 1, 6528
3, 930576, Pitch_bend_c, 1, 7808
3, 930594, Pitch_bend_c, 1, 8192
3, 931497, Note_on_c, 1, 43, 102
3, 931835, Note_on_c, 1, 43, 0
3, 932069, Note_on_c, 1, 43, 100
3, 934044, Note_on_c, 1, 38, 89
3, 934142, Note_on_c, 1, 43, 0
3, 936472, Note_on_c, 1, 48, 127
3, 936676, Note_on_c, 1, 38, 0
3, 936912, Note_on_c, 1, 48, 0
3, 936970, Note_on_c, 1, 46, 94
3, 937769, Note_on_c, 1, 46, 0
3, 937831, Note_on_c, 1, 45, 93
3, 938832, Note_on_c, 1, 45, 0
3, 938894, Note_on_c, 1, 43, 77
3, 940297, Note_on_c, 1, 46, 87
3, 940360, Note_on_c, 1, 43, 0
3, 940703, Note_on_c, 1, 46, 0
3, 940869, Note_on_c, 1, 46, 75
3, 943213, Note_on_c, 1, 46, 0
3, 943213, Note_on_c, 1, 45, 98
3, 943567, Note_on_c, 1, 45, 0
3, 943711, Note_on_c, 1, 45, 94
3, 944208, Note_on_c, 1, 43, 75
3, 944253, Note_on_c, 1, 45, 0
3, 944551, Note_on_c, 1, 43, 0
3, 944676, Note_on_c, 1, 45, 79
3, 945014, Note_on_c, 1, 45, 0
3, 945140, Note_on_c, 1, 45, 66
3, 945373, Note_on_c, 1, 45, 0
3, 945580, Note_on_c, 1, 45, 80
3, 949908, Note_on_c, 1, 43, 110
3, 949947, Note_on_c, 1, 45, 0
3, 950500, Note_on_c, 1, 43, 0
3, 950526, Note_on_c, 1, 41, 89
3, 951848, Note_on_c, 1, 43, 99
3, 951922, Note_on_c, 1, 41, 0
3, 952420, Note_on_c, 1, 43, 0
3, 952446, Note_on_c, 1, 45, 89
3, 954738, Note_on_c, 1, 36, 79
3, 955076, Note_on_c, 1, 36, 0
3, 955250, Note_on_c, 1, 30, 70
3, 956204, Note_on_c, 1, 30, 0
3, 956209, Note_on_c, 1, 29, 89
3, 956235, Note_on_c, 1, 45, 0
3, 958073, Note_on_c, 1, 29, 0
3, 958119, Note_on_c, 1, 33, 87
3, 960009, Note_on_c, 1, 33, 0
3, 960018, Note_on_c, 1, 34, 89
3, 963400, Note_on_c, 1, 41, 120
3, 963567, Note_on_c, 1, 34, 0
3, 963930, Note_on_c, 1, 39, 111
3, 963963, Note_on_c, 1, 41, 0
3, 965757, Note_on_c, 1, 46, 108
3, 966551, Note_on_c, 1, 46, 0
3, 966667, Note_on_c, 1, 46, 102
3, 967645, Note_on_c, 1, 46, 0
3, 967659, Note_on_c, 1, 50, 103
3, 967698, Note_on_c, 1, 39, 0
3, 968191, Note_on_c, 1, 45, 90
3, 968260, Note_on_c, 1, 50, 0
3, 968610, Note_on_c, 1, 45, 0
3, 968636, Note_on_c, 1, 38, 83
3, 970138, Note_on_c, 1, 45, 72
3, 970541, Note_on_c, 1, 45, 0
3, 970607, Note_on_c, 1, 43, 83
3, 970692, Note_on_c, 1, 38, 0
3, 972931, Note_on_c, 1, 38, 84
3, 973330, Note_on_c, 1, 38, 0
3, 973432, Note_on_c, 1, 35, 81
3, 973746, Note_on_c, 1, 35, 0
3, 973871, Note_on_c, 1, 35, 81
3, 974360, Note_on_c, 1, 38, 99
3, 974376, Note_on_c, 1, 35, 0
3, 974832, Note_on_c, 1, 35, 81
3, 974879, Note_on_c, 1, 38, 0
3, 975324, Note_on_c, 1, 36, 85
3, 975333, Note_on_c, 1, 35, 0
3, 975337, Note_on_c, 1, 43, 0
3, 979244, Note_on_c, 1, 48, 74
3, 979309, Note_on_c, 1, 48, 0
3, 979740, Note_on_c, 1, 48, 83
3, 980212, Note_on_c, 1, 48, 0
3, 980258, Note_on_c, 1, 46, 92
3, 982070, Note_on_c, 1, 46, 0
3, 982651, Note_on_c, 1, 45, 64
3, 982730, Note_on_c, 1, 45, 0
3, 983125, Note_on_c, 1, 45, 82
3, 983610, Note_on_c, 1, 45, 0
3, 983621, Note_on_c, 1, 46, 67
3, 984017, Note_on_c, 1, 46, 0
3, 984063, Note_on_c, 1, 45, 66
3, 984130, Note_on_c, 1, 36, 0
3, 985036, Note_on_c, 1, 33, 65
3, 985867, Note_on_c, 1, 33, 0
3, 985955, Note_on_c, 1, 33, 66
3, 988077, Note_on_c, 1, 33, 0
3, 988163, Note_on_c, 1, 35, 61
3, 988332, Note_on_c, 1, 36, 76
3, 988348, Note_on_c, 1, 35, 0
3, 988693, Note_on_c, 1, 36, 0
3, 988723, Note_on_c, 1, 37, 101
3, 988725, Note_on_c, 1, 45, 0
3, 990749, Note_on_c, 1, 38, 75
3, 990777, Note_on_c, 1, 37, 0
3, 991236, Note_on_c, 1, 45, 65
3, 991590, Note_on_c, 1, 45, 0
3, 991735, Note_on_c, 1, 52, 94
3, 992208, Note_on_c, 1, 51, 81
3, 992264, Note_on_c, 1, 52, 0
3, 992583, Note_on_c, 1, 51, 0
3, 992681, Note_on_c, 1, 50, 75
3, 993262, Note_on_c, 1, 38, 0
3, 993269, Note_on_c, 1, 45, 32
3, 993582, Note_on_c, 1, 50, 0
3, 993660, Note_on_c, 1, 45, 0
3, 993669, Note_on_c, 1, 38, 86
3, 995059, Note_on_c, 1, 52, 80
3, 996023, Note_on_c, 1, 54, 105
3, 996091, Note_on_c, 1, 52, 0
3, 996942, Note_on_c, 1, 50, 84
3, 997067, Note_on_c, 1, 54, 0
3, 997745, Note_on_c, 1, 50, 0
3, 997813, Note_on_c, 1, 46, 81
3, 998243, Note_on_c, 1, 46, 0
3, 998375, Note_on_c, 1, 45, 73
3, 998690, Note_on_c, 1, 38, 0
3, 998831, Note_on_c, 1, 45, 0
3, 998873, Note_on_c, 1, 44, 79
3, 999290, Note_on_c, 1, 44, 0
3, 999341, Note_on_c, 1, 43, 79
3, 1000836, Note_on_c, 1, 38, 82
3, 1001161, Note_on_c, 1, 38, 0
3, 1001342, Note_on_c, 1, 38, 86
3, 1001707, Note_on_c, 1, 38, 0
3, 1001823, Note_on_c, 1, 38, 74
3, 1002244, Note_on_c, 1, 38, 0
3, 1002261, Note_on_c, 1, 43, 0
3, 1002291, Note_on_c, 1, 37, 99
3, 1003958, Note_on_c, 1, 37, 0
3, 1004231, Note_on_c, 1, 37, 72
3, 1004334, Note_on_c, 1, 37, 0
3, 1004707, Note_on_c, 1, 37, 103
3, 1005079, Note_on_c, 1, 37, 0
3, 1005183, Note_on_c, 1, 37, 112
3, 1006047, Note_on_c, 1, 37, 0
3, 1006174, Note_on_c, 1, 36, 69
3, 1006406, Note_on_c, 1, 36, 0
3, 1006564, Note_on_c, 1, 36, 98
3, 1006951, Note_on_c, 1, 36, 0
3, 1007039, Note_on_c, 1, 36, 117
3, 1009401, Note_on_c, 1, 34, 89
3, 1009405, Note_on_c, 1, 36, 0
3, 1009811, Note_on_c, 1, 34, 0
3, 1009935, Note_on_c, 1, 34, 101
3, 1011802, Note_on_c, 1, 46, 60
3, 1011890, Note_on_c, 1, 46, 0
3, 1012290, Note_on_c, 1, 46, 100
3, 1012624, Note_on_c, 1, 46, 0
3, 1012751, Note_on_c, 1, 46, 95
3, 1013009, Note_on_c, 1, 34, 0
3, 1013265, Note_on_c, 1, 34, 79
3, 1013657, Note_on_c, 1, 46, 0
3, 1013682, Note_on_c, 1, 34, 0
3, 1013740, Note_on_c, 1, 45, 103
3, 1015718, Note_on_c, 1, 45, 0
3, 1015729, Note_on_c, 1, 39, 95
3, 1017631, Note_on_c, 1, 38, 92
3, 1017642, Note_on_c, 1, 39, 0
3, 1020062, Note_on_c, 1, 32, 75
3, 1020194, Note_on_c, 1, 32, 0
3, 1020248, Note_on_c, 1, 38, 0
3, 1020509, Note_on_c, 1, 30, 104
3, 1021477, Note_on_c, 1, 30, 0
3, 1021566, Note_on_c, 1, 31, 104
3, 1023425, Note_on_c, 1, 38, 104
3, 1023520, Note_on_c, 1, 31, 0
3, 1025321, Note_on_c, 1, 46, 95
3, 1026758, Note_on_c, 1, 45, 95
3, 1027174, Note_on_c, 1, 46, 0
3, 1027177, Note_on_c, 1, 45, 0
3, 1027274, Note_on_c, 1, 43, 87
3, 1027309, Note_on_c, 1, 38, 0
3, 1028629, Note_on_c, 1, 40, 83
3, 1028871, Note_on_c, 1, 43, 0
3, 1029134, Note_on_c, 1, 39, 89
3, 1029159, Note_on_c, 1, 40, 0
3, 1032897, Note_on_c, 1, 32, 80
3, 1032933, Note_on_c, 1, 39, 0
3, 1034872, Note_on_c, 1, 44, 112
3, 1036277, Note_on_c, 1, 46, 88
3, 1036400, Note_on_c, 1, 44, 0
3, 1036651, Note_on_c, 1, 46, 0
3, 1036752, Note_on_c, 1, 41, 87
3, 1037582, Note_on_c, 1, 41, 0
3, 1037750, Note_on_c, 1, 41, 86
3, 1039765, Note_on_c, 1, 32, 0
3, 1040173, Note_on_c, 1, 39, 81
3, 1040478, Note_on_c, 1, 39, 0
3, 1040691, Note_on_c, 1, 38, 79
3, 1041171, Note_on_c, 1, 39, 92
3, 1041236, Note_on_c, 1, 38, 0
3, 1041564, Note_on_c, 1, 39, 0
3, 1041678, Note_on_c, 1, 39, 105
3, 1042558, Note_on_c, 1, 39, 0
3, 1042586, Note_on_c, 1, 34, 102
3, 1042607, Note_on_c, 1, 41, 0
3, 1044475, Note_on_c, 1, 34, 0
3, 1044480, Note_on_c, 1, 32, 89
3, 1045466, Note_on_c, 1, 46, 70
3, 1045619, Note_on_c, 1, 46, 0
3, 1045846, Note_on_c, 1, 47, 57
3, 1045971, Note_on_c, 1, 47, 0
3, 1046080, Note_on_c, 1, 48, 108
3, 1047847, Note_on_c, 1, 48, 0
3, 1047854, Note_on_c, 1, 44, 85
3, 1048308, Note_on_c, 1, 44, 0
3, 1048378, Note_on_c, 1, 43, 89
3, 1048450, Note_on_c, 1, 32, 0
3, 1049776, Note_on_c, 1, 38, 94
3, 1050061, Note_on_c, 1, 43, 0
3, 1050196, Note_on_c, 1, 38, 0
3, 1050291, Note_on_c, 1, 35, 95
3, 1051513, Note_on_c, 1, 35, 0
3, 1051675, Note_on_c, 1, 35, 89
3, 1052217, Note_on_c, 1, 35, 0
3, 1052227, Note_on_c, 1, 36, 92
3, 1055927, Note_on_c, 1, 36, 0
3, 1055962, Note_on_c, 1, 43, 89
3, 1056462, Note_on_c, 1, 42, 70
3, 1056494, Note_on_c, 1, 43, 0
3, 1056847, Note_on_c, 1, 42, 0
3, 1056895, Note_on_c, 1, 43, 75
3, 1057865, Note_on_c, 1, 43, 0
3, 1057917, Note_on_c, 1, 31, 105
3, 1059859, Note_on_c, 1, 36, 113
3, 1059866, Note_on_c, 1, 31, 0
3, 1061779, Note_on_c, 1, 30, 117
3, 1061812, Note_on_c, 1, 36, 0
3, 1063724, Note_on_c, 1, 29, 98
3, 1063747, Note_on_c, 1, 30, 0
3, 1065612, Note_on_c, 1, 41, 75
3, 1067457, Note_on_c, 1, 29, 0
3, 1067515, Note_on_c, 1, 34, 78
3, 1067557, Note_on_c, 1, 41, 0
3, 1070269, Note_on_c, 1, 46, 63
3, 1070408, Note_on_c, 1, 46, 0
3, 1070970, Note_on_c, 1, 46, 63
3, 1071122, Note_on_c, 1, 46, 0
3, 1071282, Note_on_c, 1, 34, 0
3, 1071490, Note_on_c, 1, 46, 65
3, 1075257, Note_on_c, 1, 34, 64
3, 1078754, Note_on_c, 1, 46, 0
3, 1082445, Note_on_c, 1, 46, 54
3, 1082616, Note_on_c, 1, 46, 0
3, 1082952, Note_on_c, 1, 46, 69
3, 1084883, Note_on_c, 1, 34, 0
3, 1085364, Note_on_c, 1, 34, 53
3, 1085521, Note_on_c, 1, 34, 0
3, 1085843, Note_on_c, 1, 34, 66
3, 1086594, Note_on_c, 1, 34, 0
3, 1086860, Note_on_c, 1, 34, 60
3, 1089725, Note_on_c, 1, 46, 0
3, 1090095, Note_on_c, 1, 46, 72
3, 1091367, Note_on_c, 1, 46, 0
3, 1091630, Note_on_c, 1, 46, 70
3, 1093605, Note_on_c, 1, 34, 0
3, 1093910, Note_on_c, 1, 34, 54
3, 1094116, Note_on_c, 1, 34, 0
3, 1094474, Note_on_c, 1, 34, 58
3, 1095780, Note_on_c, 1, 34, 0
3, 1095988, Note_on_c, 1, 34, 65
3, 1096201, Note_on_c, 1, 34, 0
3, 1096477, Note_on_c, 1, 34, 59
3, 1096961, Note_on_c, 1, 34, 0
3, 1097346, Note_on_c, 1, 34, 67
3, 1097671, Note_on_c, 1, 34, 0
3, 1098320, Note_on_c, 1, 34, 81
3, 1098520, Note_on_c, 1, 46, 0
3, 1112038, Note_on_c, 1, 34, 0
3, 1112038, End_track
4, 0, Start_track
4, 0, Title_t, "Drums"
4, 0, Control_c, 9, 0, 0
4, 0, Control_c, 9, 7, 84
4, 1, Control_c, 9, 32, 0
4, 2, Program_c, 9, 0
4, 314938, Note_on_c, 9, 51, 45
4, 315563, Note_on_c, 9, 51, 0
4, 315838, Note_on_c, 9, 51, 52
4, 316474, Note_on_c, 9, 51, 0
4, 316851, Note_on_c, 9, 51, 60
4, 317473, Note_on_c, 9, 51, 0
4, 317706, Note_on_c, 9, 51, 67
4, 318450, Note_on_c, 9, 51, 0
4, 318701, Note_on_c, 9, 51, 50
4, 319252, Note_on_c, 9, 51, 0
4, 319696, Note_on_c, 9, 51, 51
4, 320157, Note_on_c, 9, 51, 0
4, 320648, Note_on_c, 9, 51, 46
4, 321111, Note_on_c, 9, 51, 0
4, 321653, Note_on_c, 9, 51, 44
4, 321974, Note_on_c, 9, 51, 0
4, 322148, Note_on_c, 9, 51, 70
4, 322560, Note_on_c, 9, 51, 0
4, 322657, Note_on_c, 9, 51, 60
4, 323398, Note_on_c, 9, 51, 0
4, 323544, Note_on_c, 9, 51, 47
4, 324232, Note_on_c, 9, 51, 0
4, 324494, Note_on_c, 9, 51, 51
4, 325096, Note_on_c, 9, 51, 0
4, 325455, Note_on_c, 9, 51, 48
4, 325994, Note_on_c, 9, 51, 0
4, 326400, Note_on_c, 9, 80, 41
4, 326420, Note_on_c, 9, 51, 54
4, 326510, Note_on_c, 9, 80, 0
4, 326886, Note_on_c, 9, 80, 45
4, 327036, Note_on_c, 9, 51, 0
4, 327141, Note_on_c, 9, 80, 0
4, 327336, Note_on_c, 9, 51, 56
4, 327361, Note_on_c, 9, 81, 58
4, 327889, Note_on_c, 9, 51, 0
4, 328284, Note_on_c, 9, 51, 51
4, 328297, Note_on_c, 9, 81, 0
4, 328841, Note_on_c, 9, 51, 0
4, 329211, Note_on_c, 9, 51, 49
4, 330116, Note_on_c, 9, 51, 0
4, 330228, Note_on_c, 9, 51, 98
4, 331028, Note_on_c, 9, 51, 0
4, 331191, Note_on_c, 9, 51, 70
4, 332134, Note_on_c, 9, 51, 0
4, 332235, Note_on_c, 9, 51, 32
4, 332782, Note_on_c, 9, 80, 41
4, 332925, Note_on_c, 9, 80, 0
4, 332932, Note_on_c, 9, 51, 0
4, 333165, Note_on_c, 9, 51, 59
4, 333259, Note_on_c, 9, 81, 46
4, 333843, Note_on_c, 9, 51, 0
4, 334052, Note_on_c, 9, 81, 0
4, 334063, Note_on_c, 9, 51, 39
4, 334643, Note_on_c, 9, 80, 58
4, 334670, Note_on_c, 9, 51, 0
4, 334728, Note_on_c, 9, 80, 0
4, 334954, Note_on_c, 9, 51, 43
4, 335483, Note_on_c, 9, 80, 48
4, 335573, Note_on_c, 9, 51, 0
4, 335727, Note_on_c, 9, 80, 0
4, 335962, Note_on_c, 9, 51, 59
4, 336048, Note_on_c, 9, 80, 44
4, 336619, Note_on_c, 9, 51, 0
4, 336827, Note_on_c, 9, 80, 0
4, 336944, Note_on_c, 9, 51, 55
4, 337060, Note_on_c, 9, 81, 39
4, 337584, Note_on_c, 9, 51, 0
4, 337587, Note_on_c, 9, 81, 0
4, 337931, Note_on_c, 9, 51, 97
4, 338648, Note_on_c, 9, 51, 0
4, 338863, Note_on_c, 9, 51, 64
4, 339531, Note_on_c, 9, 51, 0
4, 339862, Note_on_c, 9, 51, 60
4, 340483, Note_on_c, 9, 51, 0
4, 340808, Note_on_c, 9, 51, 60
4, 341363, Note_on_c, 9, 51, 0
4, 341842, Note_on_c, 9, 51, 62
4, 342620, Note_on_c, 9, 51, 0
4, 342848, Note_on_c, 9, 51, 60
4, 343112, Note_on_c, 9, 51, 0
4, 343341, Note_on_c, 9, 51, 71
4, 343699, Note_on_c, 9, 51, 0
4, 343867, Note_on_c, 9, 51, 65
4, 344577, Note_on_c, 9, 51, 0
4, 344745, Note_on_c, 9, 51, 81
4, 345473, Note_on_c, 9, 51, 0
4, 345638, Note_on_c, 9, 51, 44
4, 345697, Note_on_c, 9, 51, 69
4, 346143, Note_on_c, 9, 51, 0
4, 346381, Note_on_c, 9, 51, 0
4, 346574, Note_on_c, 9, 51, 40
4, 346984, Note_on_c, 9, 51, 0
4, 347120, Note_on_c, 9, 51, 35
4, 347452, Note_on_c, 9, 51, 0
4, 347586, Note_on_c, 9, 51, 18
4, 347927, Note_on_c, 9, 51, 0
4, 348093, Note_on_c, 9, 51, 37
4, 348355, Note_on_c, 9, 51, 0
4, 348529, Note_on_c, 9, 51, 24
4, 348865, Note_on_c, 9, 51, 0
4, 349072, Note_on_c, 9, 51, 37
4, 349186, Note_on_c, 9, 51, 0
4, 349392, Note_on_c, 9, 51, 49
4, 350200, Note_on_c, 9, 51, 0
4, 350395, Note_on_c, 9, 51, 42
4, 351079, Note_on_c, 9, 51, 0
4, 351345, Note_on_c, 9, 51, 41
4, 351762, Note_on_c, 9, 51, 0
4, 351811, Note_on_c, 9, 44, 30
4, 352075, Note_on_c, 9, 44, 0
4, 352286, Note_on_c, 9, 51, 35
4, 352611, Note_on_c, 9, 51, 0
4, 352754, Note_on_c, 9, 51, 36
4, 352927, Note_on_c, 9, 51, 0
4, 353211, Note_on_c, 9, 51, 53
4, 353979, Note_on_c, 9, 51, 0
4, 354212, Note_on_c, 9, 51, 32
4, 354483, Note_on_c, 9, 51, 0
4, 354732, Note_on_c, 9, 51, 45
4, 355052, Note_on_c, 9, 51, 0
4, 355720, Note_on_c, 9, 51, 42
4, 355946, Note_on_c, 9, 51, 0
4, 356131, Note_on_c, 9, 44, 50
4, 356197, Note_on_c, 9, 51, 44
4, 356387, Note_on_c, 9, 44, 0
4, 356667, Note_on_c, 9, 51, 0
4, 357622, Note_on_c, 9, 51, 39
4, 357707, Note_on_c, 9, 51, 0
4, 358148, Note_on_c, 9, 51, 43
4, 358784, Note_on_c, 9, 51, 0
4, 359033, Note_on_c, 9, 51, 30
4, 359255, Note_on_c, 9, 51, 0
4, 359528, Note_on_c, 9, 51, 43
4, 359633, Note_on_c, 9, 51, 0
4, 359951, Note_on_c, 9, 44, 45
4, 360021, Note_on_c, 9, 51, 65
4, 360298, Note_on_c, 9, 51, 0
4, 360354, Note_on_c, 9, 44, 0
4, 360478, Note_on_c, 9, 51, 70
4, 360809, Note_on_c, 9, 51, 0
4, 360948, Note_on_c, 9, 51, 65
4, 361640, Note_on_c, 9, 51, 0
4, 361931, Note_on_c, 9, 51, 42
4, 362048, Note_on_c, 9, 51, 0
4, 362453, Note_on_c, 9, 51, 42
4, 362559, Note_on_c, 9, 51, 0
4, 362906, Note_on_c, 9, 51, 42
4, 363130, Note_on_c, 9, 51, 0
4, 363309, Note_on_c, 9, 37, 46
4, 363318, Note_on_c, 9, 44, 32
4, 363503, Note_on_c, 9, 37, 0
4, 363571, Note_on_c, 9, 44, 0
4, 363835, Note_on_c, 9, 36, 40
4, 363943, Note_on_c, 9, 51, 30
4, 364086, Note_on_c, 9, 36, 0
4, 364106, Note_on_c, 9, 51, 0
4, 364352, Note_on_c, 9, 36, 47
4, 364353, Note_on_c, 9, 51, 42
4, 364438, Note_on_c, 9, 51, 0
4, 364644, Note_on_c, 9, 36, 0
4, 364810, Note_on_c, 9, 51, 45
4, 364899, Note_on_c, 9, 36, 26
4, 365166, Note_on_c, 9, 51, 0
4, 365220, Note_on_c, 9, 44, 32
4, 365266, Note_on_c, 9, 36, 0
4, 365486, Note_on_c, 9, 44, 0
4, 365701, Note_on_c, 9, 51, 39
4, 365824, Note_on_c, 9, 51, 0
4, 365831, Note_on_c, 9, 36, 30
4, 366201, Note_on_c, 9, 51, 42
4, 366236, Note_on_c, 9, 36, 0
4, 366476, Note_on_c, 9, 51, 0
4, 366687, Note_on_c, 9, 51, 42
4, 367473, Note_on_c, 9, 51, 0
4, 368232, Note_on_c, 9, 51, 39
4, 368445, Note_on_c, 9, 51, 0
4, 368736, Note_on_c, 9, 51, 38
4, 369223, Note_on_c, 9, 51, 0
4, 369682, Note_on_c, 9, 51, 32
4, 369778, Note_on_c, 9, 51, 0
4, 370213, Note_on_c, 9, 51, 39
4, 370472, Note_on_c, 9, 51, 0
4, 371124, Note_on_c, 9, 51, 35
4, 371335, Note_on_c, 9, 51, 0
4, 371588, Note_on_c, 9, 51, 39
4, 372108, Note_on_c, 9, 51, 0
4, 372520, Note_on_c, 9, 51, 31
4, 372648, Note_on_c, 9, 51, 0
4, 373069, Note_on_c, 9, 51, 42
4, 373391, Note_on_c, 9, 51, 0
4, 373922, Note_on_c, 9, 51, 43
4, 374616, Note_on_c, 9, 51, 0
4, 374898, Note_on_c, 9, 37, 39
4, 375098, Note_on_c, 9, 51, 39
4, 375113, Note_on_c, 9, 37, 0
4, 375215, Note_on_c, 9, 51, 0
4, 375931, Note_on_c, 9, 51, 40
4, 375953, Note_on_c, 9, 36, 29
4, 376115, Note_on_c, 9, 36, 0
4, 376184, Note_on_c, 9, 51, 0
4, 376368, Note_on_c, 9, 51, 47
4, 376406, Note_on_c, 9, 36, 32
4, 376773, Note_on_c, 9, 36, 0
4, 376899, Note_on_c, 9, 51, 0
4, 377355, Note_on_c, 9, 36, 29
4, 377360, Note_on_c, 9, 51, 37
4, 377484, Note_on_c, 9, 51, 0
4, 377783, Note_on_c, 9, 36, 0
4, 377853, Note_on_c, 9, 51, 35
4, 377936, Note_on_c, 9, 51, 0
4, 378270, Note_on_c, 9, 51, 35
4, 378393, Note_on_c, 9, 51, 0
4, 378758, Note_on_c, 9, 44, 29
4, 378879, Note_on_c, 9, 37, 40
4, 378958, Note_on_c, 9, 44, 0
4, 379022, Note_on_c, 9, 37, 0
4, 379206, Note_on_c, 9, 51, 33
4, 379325, Note_on_c, 9, 51, 0
4, 379333, Note_on_c, 9, 36, 40
4, 379584, Note_on_c, 9, 36, 0
4, 379695, Note_on_c, 9, 44, 31
4, 379880, Note_on_c, 9, 36, 53
4, 380069, Note_on_c, 9, 44, 0
4, 380160, Note_on_c, 9, 36, 0
4, 380163, Note_on_c, 9, 51, 30
4, 380382, Note_on_c, 9, 51, 0
4, 380404, Note_on_c, 9, 36, 32
4, 380591, Note_on_c, 9, 51, 38
4, 380808, Note_on_c, 9, 51, 0
4, 380854, Note_on_c, 9, 36, 0
4, 381099, Note_on_c, 9, 51, 37
4, 381266, Note_on_c, 9, 36, 34
4, 381545, Note_on_c, 9, 51, 0
4, 381681, Note_on_c, 9, 36, 0
4, 382091, Note_on_c, 9, 51, 40
4, 382479, Note_on_c, 9, 51, 0
4, 382586, Note_on_c, 9, 51, 29
4, 382813, Note_on_c, 9, 51, 0
4, 383012, Note_on_c, 9, 51, 37
4, 383473, Note_on_c, 9, 51, 0
4, 384013, Note_on_c, 9, 51, 60
4, 384616, Note_on_c, 9, 51, 0
4, 384990, Note_on_c, 9, 51, 33
4, 385093, Note_on_c, 9, 51, 0
4, 385501, Note_on_c, 9, 51, 57
4, 386280, Note_on_c, 9, 51, 0
4, 386500, Note_on_c, 9, 51, 40
4, 386594, Note_on_c, 9, 51, 0
4, 386993, Note_on_c, 9, 51, 60
4, 387595, Note_on_c, 9, 51, 0
4, 388399, Note_on_c, 9, 51, 44
4, 388634, Note_on_c, 9, 51, 0
4, 389383, Note_on_c, 9, 51, 46
4, 389530, Note_on_c, 9, 51, 0
4, 389918, Note_on_c, 9, 51, 49
4, 390733, Note_on_c, 9, 51, 0
4, 391237, Note_on_c, 9, 51, 44
4, 391412, Note_on_c, 9, 51, 0
4, 391717, Note_on_c, 9, 51, 31
4, 392180, Note_on_c, 9, 51, 0
4, 392637, Note_on_c, 9, 51, 38
4, 393260, Note_on_c, 9, 51, 0
4, 393587, Note_on_c, 9, 51, 32
4, 394035, Note_on_c, 9, 51, 0
4, 394505, Note_on_c, 9, 51, 38
4, 395063, Note_on_c, 9, 51, 0
4, 395478, Note_on_c, 9, 51, 35
4, 395679, Note_on_c, 9, 51, 0
4, 396376, Note_on_c, 9, 59, 43
4, 396378, Note_on_c, 9, 51, 33
4, 396873, Note_on_c, 9, 51, 0
4, 397359, Note_on_c, 9, 51, 28
4, 397532, Note_on_c, 9, 59, 0
4, 397731, Note_on_c, 9, 51, 0
4, 398331, Note_on_c, 9, 51, 35
4, 398661, Note_on_c, 9, 51, 0
4, 399317, Note_on_c, 9, 51, 30
4, 399351, Note_on_c, 9, 53, 28
4, 399633, Note_on_c, 9, 53, 0
4, 399745, Note_on_c, 9, 51, 0
4, 400363, Note_on_c, 9, 51, 31
4, 400601, Note_on_c, 9, 51, 0
4, 400881, Note_on_c, 9, 53, 44
4, 400919, Note_on_c, 9, 51, 39
4, 401404, Note_on_c, 9, 36, 25
4, 401528, Note_on_c, 9, 53, 0
4, 401539, Note_on_c, 9, 51, 0
4, 401886, Note_on_c, 9, 53, 34
4, 401911, Note_on_c, 9, 36, 0
4, 401994, Note_on_c, 9, 53, 0
4, 402343, Note_on_c, 9, 51, 40
4, 402384, Note_on_c, 9, 53, 44
4, 402775, Note_on_c, 9, 36, 33
4, 402805, Note_on_c, 9, 53, 0
4, 402968, Note_on_c, 9, 36, 0
4, 403022, Note_on_c, 9, 51, 0
4, 403259, Note_on_c, 9, 36, 37
4, 403266, Note_on_c, 9, 51, 39
4, 403416, Note_on_c, 9, 51, 0
4, 403806, Note_on_c, 9, 51, 42
4, 403895, Note_on_c, 9, 36, 0
4, 403927, Note_on_c, 9, 51, 0
4, 404601, Note_on_c, 9, 36, 45
4, 404655, Note_on_c, 9, 51, 47
4, 404792, Note_on_c, 9, 51, 0
4, 404825, Note_on_c, 9, 36, 0
4, 405125, Note_on_c, 9, 51, 42
4, 405170, Note_on_c, 9, 36, 36
4, 405638, Note_on_c, 9, 51, 0
4, 405669, Note_on_c, 9, 36, 0
4, 406089, Note_on_c, 9, 51, 42
4, 406536, Note_on_c, 9, 36, 47
4, 406552, Note_on_c, 9, 51, 0
4, 406590, Note_on_c, 9, 44, 32
4, 406675, Note_on_c, 9, 36, 0
4, 406687, Note_on_c, 9, 44, 0
4, 407004, Note_on_c, 9, 36, 46
4, 407052, Note_on_c, 9, 51, 40
4, 407177, Note_on_c, 9, 51, 0
4, 407576, Note_on_c, 9, 44, 39
4, 407589, Note_on_c, 9, 36, 0
4, 407898, Note_on_c, 9, 44, 0
4, 408033, Note_on_c, 9, 51, 43
4, 408331, Note_on_c, 9, 51, 0
4, 408479, Note_on_c, 9, 44, 25
4, 408797, Note_on_c, 9, 44, 0
4, 408929, Note_on_c, 9, 51, 40
4, 409617, Note_on_c, 9, 51, 0
4, 409921, Note_on_c, 9, 51, 40
4, 410385, Note_on_c, 9, 51, 0
4, 410835, Note_on_c, 9, 51, 39
4, 411509, Note_on_c, 9, 51, 0
4, 411769, Note_on_c, 9, 51, 38
4, 412369, Note_on_c, 9, 51, 0
4, 412800, Note_on_c, 9, 51, 28
4, 412941, Note_on_c, 9, 51, 0
4, 413274, Note_on_c, 9, 51, 39
4, 413305, Note_on_c, 9, 37, 38
4, 413351, Note_on_c, 9, 51, 0
4, 413603, Note_on_c, 9, 37, 0
4, 413749, Note_on_c, 9, 51, 65
4, 413850, Note_on_c, 9, 36, 28
4, 414009, Note_on_c, 9, 36, 0
4, 414318, Note_on_c, 9, 36, 44
4, 414481, Note_on_c, 9, 36, 0
4, 414601, Note_on_c, 9, 51, 0
4, 414829, Note_on_c, 9, 51, 27
4, 414853, Note_on_c, 9, 36, 37
4, 414945, Note_on_c, 9, 51, 0
4, 415238, Note_on_c, 9, 36, 0
4, 415295, Note_on_c, 9, 51, 46
4, 415767, Note_on_c, 9, 36, 38
4, 416052, Note_on_c, 9, 51, 0
4, 416119, Note_on_c, 9, 36, 0
4, 416345, Note_on_c, 9, 51, 37
4, 416437, Note_on_c, 9, 51, 0
4, 416800, Note_on_c, 9, 51, 56
4, 417524, Note_on_c, 9, 51, 0
4, 418191, Note_on_c, 9, 51, 37
4, 418290, Note_on_c, 9, 51, 0
4, 418686, Note_on_c, 9, 51, 36
4, 419824, Note_on_c, 9, 51, 0
4, 420064, Note_on_c, 9, 51, 39
4, 420156, Note_on_c, 9, 51, 0
4, 420476, Note_on_c, 9, 51, 23
4, 420812, Note_on_c, 9, 51, 0
4, 421038, Note_on_c, 9, 51, 29
4, 421144, Note_on_c, 9, 51, 0
4, 421484, Note_on_c, 9, 51, 45
4, 422194, Note_on_c, 9, 51, 0
4, 422922, Note_on_c, 9, 51, 33
4, 423124, Note_on_c, 9, 51, 0
4, 423377, Note_on_c, 9, 51, 38
4, 423493, Note_on_c, 9, 51, 0
4, 423881, Note_on_c, 9, 51, 35
4, 423970, Note_on_c, 9, 51, 0
4, 424342, Note_on_c, 9, 53, 44
4, 424356, Note_on_c, 9, 51, 36
4, 424849, Note_on_c, 9, 51, 0
4, 424952, Note_on_c, 9, 53, 0
4, 425225, Note_on_c, 9, 51, 30
4, 425364, Note_on_c, 9, 51, 0
4, 425720, Note_on_c, 9, 51, 44
4, 425745, Note_on_c, 9, 53, 44
4, 426058, Note_on_c, 9, 51, 0
4, 426408, Note_on_c, 9, 53, 0
4, 426656, Note_on_c, 9, 51, 30
4, 426833, Note_on_c, 9, 51, 0
4, 427138, Note_on_c, 9, 51, 42
4, 427796, Note_on_c, 9, 51, 0
4, 428179, Note_on_c, 9, 51, 43
4, 428809, Note_on_c, 9, 51, 0
4, 429172, Note_on_c, 9, 51, 39
4, 429273, Note_on_c, 9, 51, 0
4, 429550, Note_on_c, 9, 37, 49
4, 429685, Note_on_c, 9, 51, 45
4, 429790, Note_on_c, 9, 37, 0
4, 429799, Note_on_c, 9, 51, 0
4, 430150, Note_on_c, 9, 36, 23
4, 430338, Note_on_c, 9, 36, 0
4, 430655, Note_on_c, 9, 51, 38
4, 430663, Note_on_c, 9, 36, 40
4, 430789, Note_on_c, 9, 51, 0
4, 430847, Note_on_c, 9, 36, 0
4, 431118, Note_on_c, 9, 51, 31
4, 431239, Note_on_c, 9, 36, 27
4, 431304, Note_on_c, 9, 51, 0
4, 431487, Note_on_c, 9, 36, 0
4, 431582, Note_on_c, 9, 51, 32
4, 431692, Note_on_c, 9, 51, 0
4, 432077, Note_on_c, 9, 59, 43
4, 432084, Note_on_c, 9, 51, 32
4, 432177, Note_on_c, 9, 36, 34
4, 432397, Note_on_c, 9, 59, 0
4, 432406, Note_on_c, 9, 36, 0
4, 432556, Note_on_c, 9, 51, 0
4, 432866, Note_on_c, 9, 51, 28
4, 433083, Note_on_c, 9, 51, 0
4, 433255, Note_on_c, 9, 44, 57
4, 433429, Note_on_c, 9, 44, 0
4, 433468, Note_on_c, 9, 59, 43
4, 433477, Note_on_c, 9, 51, 37
4, 433941, Note_on_c, 9, 59, 0
4, 433972, Note_on_c, 9, 51, 0
4, 434523, Note_on_c, 9, 51, 26
4, 434640, Note_on_c, 9, 51, 0
4, 434949, Note_on_c, 9, 51, 37
4, 434960, Note_on_c, 9, 59, 49
4, 435426, Note_on_c, 9, 59, 0
4, 435493, Note_on_c, 9, 51, 0
4, 435986, Note_on_c, 9, 51, 25
4, 436098, Note_on_c, 9, 51, 0
4, 436420, Note_on_c, 9, 51, 52
4, 436618, Note_on_c, 9, 51, 0
4, 436772, Note_on_c, 9, 44, 37
4, 437110, Note_on_c, 9, 44, 0
4, 437249, Note_on_c, 9, 51, 64
4, 437462, Note_on_c, 9, 51, 0
4, 437780, Note_on_c, 9, 51, 62
4, 438197, Note_on_c, 9, 51, 0
4, 438779, Note_on_c, 9, 51, 35
4, 439030, Note_on_c, 9, 51, 0
4, 439250, Note_on_c, 9, 51, 36
4, 439344, Note_on_c, 9, 51, 0
4, 439776, Note_on_c, 9, 51, 31
4, 439838, Note_on_c, 9, 36, 30
4, 440110, Note_on_c, 9, 51, 0
4, 440214, Note_on_c, 9, 36, 0
4, 440231, Note_on_c, 9, 44, 22
4, 440452, Note_on_c, 9, 44, 0
4, 440667, Note_on_c, 9, 36, 35
4, 441154, Note_on_c, 9, 51, 32
4, 441189, Note_on_c, 9, 36, 0
4, 441266, Note_on_c, 9, 51, 0
4, 441653, Note_on_c, 9, 51, 35
4, 442262, Note_on_c, 9, 51, 0
4, 442621, Note_on_c, 9, 51, 39
4, 442932, Note_on_c, 9, 51, 0
4, 443140, Note_on_c, 9, 51, 40
4, 443217, Note_on_c, 9, 51, 0
4, 443584, Note_on_c, 9, 51, 30
4, 443680, Note_on_c, 9, 51, 0
4, 444031, Note_on_c, 9, 44, 44
4, 444088, Note_on_c, 9, 44, 33
4, 444168, Note_on_c, 9, 44, 0
4, 444290, Note_on_c, 9, 44, 0
4, 444571, Note_on_c, 9, 36, 32
4, 444764, Note_on_c, 9, 36, 0
4, 445046, Note_on_c, 9, 36, 45
4, 445049, Note_on_c, 9, 51, 42
4, 445196, Note_on_c, 9, 36, 0
4, 445264, Note_on_c, 9, 51, 0
4, 445486, Note_on_c, 9, 51, 37
4, 445557, Note_on_c, 9, 36, 38
4, 445831, Note_on_c, 9, 51, 0
4, 445904, Note_on_c, 9, 36, 0
4, 446444, Note_on_c, 9, 36, 42
4, 446516, Note_on_c, 9, 51, 37
4, 446856, Note_on_c, 9, 36, 0
4, 446924, Note_on_c, 9, 51, 0
4, 447448, Note_on_c, 9, 51, 30
4, 447571, Note_on_c, 9, 51, 0
4, 447930, Note_on_c, 9, 51, 37
4, 448015, Note_on_c, 9, 51, 0
4, 448382, Note_on_c, 9, 51, 38
4, 448490, Note_on_c, 9, 51, 0
4, 449294, Note_on_c, 9, 51, 55
4, 449809, Note_on_c, 9, 51, 0
4, 450759, Note_on_c, 9, 51, 43
4, 450823, Note_on_c, 9, 37, 41
4, 450998, Note_on_c, 9, 37, 0
4, 451043, Note_on_c, 9, 51, 0
4, 451690, Note_on_c, 9, 51, 35
4, 451773, Note_on_c, 9, 37, 39
4, 451791, Note_on_c, 9, 51, 0
4, 452022, Note_on_c, 9, 37, 0
4, 452170, Note_on_c, 9, 51, 37
4, 452360, Note_on_c, 9, 51, 0
4, 452598, Note_on_c, 9, 44, 34
4, 452734, Note_on_c, 9, 37, 35
4, 452853, Note_on_c, 9, 44, 0
4, 452924, Note_on_c, 9, 37, 0
4, 453146, Note_on_c, 9, 51, 35
4, 453238, Note_on_c, 9, 36, 29
4, 453247, Note_on_c, 9, 51, 0
4, 453590, Note_on_c, 9, 36, 0
4, 453639, Note_on_c, 9, 51, 37
4, 453758, Note_on_c, 9, 51, 0
4, 454096, Note_on_c, 9, 51, 53
4, 454576, Note_on_c, 9, 51, 0
4, 454972, Note_on_c, 9, 51, 69
4, 455599, Note_on_c, 9, 37, 38
4, 455622, Note_on_c, 9, 51, 0
4, 455749, Note_on_c, 9, 37, 0
4, 456103, Note_on_c, 9, 36, 31
4, 456284, Note_on_c, 9, 36, 0
4, 456551, Note_on_c, 9, 51, 49
4, 456616, Note_on_c, 9, 36, 35
4, 456779, Note_on_c, 9, 36, 0
4, 456798, Note_on_c, 9, 51, 0
4, 457205, Note_on_c, 9, 36, 26
4, 457400, Note_on_c, 9, 36, 0
4, 457414, Note_on_c, 9, 51, 42
4, 457546, Note_on_c, 9, 51, 0
4, 457931, Note_on_c, 9, 59, 32
4, 458157, Note_on_c, 9, 59, 0
4, 458397, Note_on_c, 9, 51, 39
4, 458484, Note_on_c, 9, 51, 0
4, 458841, Note_on_c, 9, 51, 36
4, 459181, Note_on_c, 9, 51, 0
4, 459398, Note_on_c, 9, 51, 46
4, 459595, Note_on_c, 9, 51, 0
4, 459864, Note_on_c, 9, 51, 61
4, 459906, Note_on_c, 9, 36, 42
4, 460308, Note_on_c, 9, 51, 0
4, 460377, Note_on_c, 9, 36, 0
4, 460881, Note_on_c, 9, 51, 29
4, 460982, Note_on_c, 9, 51, 0
4, 461372, Note_on_c, 9, 51, 53
4, 461596, Note_on_c, 9, 51, 0
4, 462344, Note_on_c, 9, 51, 37
4, 462485, Note_on_c, 9, 51, 0
4, 462834, Note_on_c, 9, 51, 45
4, 462845, Note_on_c, 9, 36, 34
4, 463229, Note_on_c, 9, 51, 0
4, 463257, Note_on_c, 9, 36, 0
4, 463677, Note_on_c, 9, 51, 43
4, 464053, Note_on_c, 9, 51, 0
4, 464633, Note_on_c, 9, 51, 38
4, 464747, Note_on_c, 9, 36, 36
4, 465074, Note_on_c, 9, 36, 0
4, 465074, Note_on_c, 9, 51, 0
4, 465554, Note_on_c, 9, 51, 37
4, 466013, Note_on_c, 9, 51, 0
4, 466093, Note_on_c, 9, 36, 32
4, 466217, Note_on_c, 9, 36, 0
4, 466546, Note_on_c, 9, 51, 35
4, 466617, Note_on_c, 9, 36, 21
4, 467030, Note_on_c, 9, 36, 0
4, 467232, Note_on_c, 9, 51, 0
4, 467530, Note_on_c, 9, 51, 32
4, 467959, Note_on_c, 9, 36, 30
4, 468034, Note_on_c, 9, 51, 0
4, 468034, Note_on_c, 9, 44, 31
4, 468134, Note_on_c, 9, 36, 0
4, 468278, Note_on_c, 9, 44, 0
4, 468425, Note_on_c, 9, 36, 35
4, 468558, Note_on_c, 9, 51, 24
4, 468824, Note_on_c, 9, 36, 0
4, 468887, Note_on_c, 9, 51, 0
4, 469017, Note_on_c, 9, 44, 26
4, 469252, Note_on_c, 9, 44, 0
4, 469577, Note_on_c, 9, 51, 39
4, 469901, Note_on_c, 9, 37, 37
4, 470058, Note_on_c, 9, 37, 0
4, 470159, Note_on_c, 9, 51, 0
4, 470394, Note_on_c, 9, 36, 31
4, 470567, Note_on_c, 9, 51, 36
4, 470573, Note_on_c, 9, 36, 0
4, 470918, Note_on_c, 9, 36, 37
4, 471111, Note_on_c, 9, 36, 0
4, 471114, Note_on_c, 9, 51, 0
4, 471433, Note_on_c, 9, 36, 40
4, 471436, Note_on_c, 9, 51, 34
4, 471801, Note_on_c, 9, 36, 0
4, 471821, Note_on_c, 9, 51, 0
4, 472392, Note_on_c, 9, 36, 39
4, 472395, Note_on_c, 9, 51, 33
4, 472617, Note_on_c, 9, 51, 0
4, 472659, Note_on_c, 9, 36, 0
4, 472892, Note_on_c, 9, 51, 37
4, 473062, Note_on_c, 9, 51, 0
4, 473318, Note_on_c, 9, 51, 47
4, 473533, Note_on_c, 9, 51, 0
4, 473846, Note_on_c, 9, 53, 58
4, 474182, Note_on_c, 9, 53, 0
4, 474272, Note_on_c, 9, 51, 43
4, 474624, Note_on_c, 9, 51, 0
4, 474827, Note_on_c, 9, 51, 43
4, 475034, Note_on_c, 9, 51, 0
4, 475242, Note_on_c, 9, 51, 44
4, 475840, Note_on_c, 9, 51, 0
4, 476147, Note_on_c, 9, 51, 35
4, 476738, Note_on_c, 9, 51, 0
4, 477097, Note_on_c, 9, 51, 35
4, 477531, Note_on_c, 9, 51, 0
4, 478152, Note_on_c, 9, 51, 27
4, 478299, Note_on_c, 9, 51, 0
4, 478658, Note_on_c, 9, 51, 35
4, 478741, Note_on_c, 9, 51, 0
4, 479106, Note_on_c, 9, 51, 38
4, 479505, Note_on_c, 9, 51, 0
4, 480009, Note_on_c, 9, 51, 35
4, 480354, Note_on_c, 9, 51, 0
4, 480969, Note_on_c, 9, 44, 48
4, 481292, Note_on_c, 9, 44, 0
4, 481480, Note_on_c, 9, 51, 37
4, 481588, Note_on_c, 9, 51, 0
4, 481984, Note_on_c, 9, 51, 33
4, 482450, Note_on_c, 9, 51, 0
4, 482819, Note_on_c, 9, 44, 44
4, 483229, Note_on_c, 9, 44, 0
4, 483384, Note_on_c, 9, 51, 37
4, 483478, Note_on_c, 9, 51, 0
4, 483877, Note_on_c, 9, 51, 34
4, 484260, Note_on_c, 9, 51, 0
4, 484901, Note_on_c, 9, 51, 30
4, 484990, Note_on_c, 9, 51, 0
4, 485351, Note_on_c, 9, 51, 43
4, 485640, Note_on_c, 9, 51, 0
4, 486330, Note_on_c, 9, 51, 33
4, 486480, Note_on_c, 9, 51, 0
4, 486800, Note_on_c, 9, 59, 35
4, 486986, Note_on_c, 9, 59, 0
4, 487277, Note_on_c, 9, 59, 45
4, 487492, Note_on_c, 9, 59, 0
4, 487781, Note_on_c, 9, 59, 65
4, 488211, Note_on_c, 9, 59, 0
4, 488637, Note_on_c, 9, 51, 25
4, 488756, Note_on_c, 9, 51, 0
4, 489661, Note_on_c, 9, 51, 39
4, 489988, Note_on_c, 9, 51, 0
4, 490187, Note_on_c, 9, 51, 39
4, 490286, Note_on_c, 9, 51, 0
4, 490714, Note_on_c, 9, 51, 30
4, 491076, Note_on_c, 9, 51, 0
4, 491592, Note_on_c, 9, 51, 35
4, 492011, Note_on_c, 9, 51, 0
4, 492492, Note_on_c, 9, 51, 30
4, 492633, Note_on_c, 9, 51, 0
4, 493025, Note_on_c, 9, 51, 39
4, 493639, Note_on_c, 9, 51, 0
4, 493979, Note_on_c, 9, 51, 34
4, 494089, Note_on_c, 9, 51, 0
4, 494481, Note_on_c, 9, 51, 32
4, 494752, Note_on_c, 9, 51, 0
4, 494900, Note_on_c, 9, 44, 25
4, 495010, Note_on_c, 9, 44, 0
4, 495418, Note_on_c, 9, 51, 28
4, 495552, Note_on_c, 9, 51, 0
4, 495872, Note_on_c, 9, 51, 30
4, 495993, Note_on_c, 9, 51, 0
4, 496358, Note_on_c, 9, 51, 39
4, 496900, Note_on_c, 9, 51, 0
4, 497339, Note_on_c, 9, 51, 41
4, 497796, Note_on_c, 9, 36, 36
4, 497989, Note_on_c, 9, 36, 0
4, 498072, Note_on_c, 9, 51, 0
4, 498683, Note_on_c, 9, 36, 38
4, 498800, Note_on_c, 9, 51, 35
4, 498885, Note_on_c, 9, 36, 0
4, 498892, Note_on_c, 9, 51, 0
4, 499277, Note_on_c, 9, 36, 28
4, 499288, Note_on_c, 9, 51, 38
4, 499385, Note_on_c, 9, 51, 0
4, 499527, Note_on_c, 9, 36, 0
4, 499792, Note_on_c, 9, 53, 30
4, 500484, Note_on_c, 9, 53, 0
4, 500773, Note_on_c, 9, 51, 24
4, 500899, Note_on_c, 9, 51, 0
4, 501206, Note_on_c, 9, 53, 37
4, 501974, Note_on_c, 9, 53, 0
4, 502621, Note_on_c, 9, 53, 53
4, 503408, Note_on_c, 9, 53, 0
4, 503578, Note_on_c, 9, 51, 29
4, 503732, Note_on_c, 9, 51, 0
4, 503997, Note_on_c, 9, 53, 49
4, 504687, Note_on_c, 9, 53, 0
4, 504982, Note_on_c, 9, 51, 30
4, 505159, Note_on_c, 9, 51, 0
4, 505433, Note_on_c, 9, 51, 43
4, 505493, Note_on_c, 9, 80, 54
4, 505538, Note_on_c, 9, 51, 0
4, 505625, Note_on_c, 9, 80, 0
4, 505910, Note_on_c, 9, 51, 45
4, 506012, Note_on_c, 9, 81, 41
4, 506400, Note_on_c, 9, 51, 0
4, 506637, Note_on_c, 9, 81, 0
4, 506871, Note_on_c, 9, 51, 52
4, 507009, Note_on_c, 9, 80, 26
4, 507096, Note_on_c, 9, 80, 0
4, 507142, Note_on_c, 9, 51, 0
4, 507785, Note_on_c, 9, 51, 30
4, 507899, Note_on_c, 9, 51, 0
4, 507919, Note_on_c, 9, 81, 50
4, 508356, Note_on_c, 9, 51, 40
4, 508618, Note_on_c, 9, 51, 0
4, 508837, Note_on_c, 9, 81, 0
4, 509079, Note_on_c, 9, 80, 39
4, 509186, Note_on_c, 9, 80, 0
4, 509310, Note_on_c, 9, 51, 39
4, 509406, Note_on_c, 9, 51, 0
4, 509803, Note_on_c, 9, 51, 31
4, 509917, Note_on_c, 9, 51, 0
4, 510692, Note_on_c, 9, 51, 39
4, 511026, Note_on_c, 9, 51, 0
4, 511095, Note_on_c, 9, 80, 40
4, 511207, Note_on_c, 9, 80, 0
4, 511725, Note_on_c, 9, 51, 33
4, 511929, Note_on_c, 9, 51, 0
4, 512076, Note_on_c, 9, 80, 58
4, 512159, Note_on_c, 9, 80, 0
4, 512215, Note_on_c, 9, 59, 44
4, 512359, Note_on_c, 9, 59, 0
4, 512564, Note_on_c, 9, 80, 46
4, 512687, Note_on_c, 9, 80, 0
4, 512724, Note_on_c, 9, 59, 37
4, 513011, Note_on_c, 9, 59, 0
4, 513039, Note_on_c, 9, 80, 54
4, 513156, Note_on_c, 9, 80, 0
4, 513199, Note_on_c, 9, 51, 40
4, 513387, Note_on_c, 9, 51, 0
4, 513669, Note_on_c, 9, 81, 35
4, 514065, Note_on_c, 9, 81, 0
4, 514173, Note_on_c, 9, 51, 40
4, 514355, Note_on_c, 9, 51, 0
4, 514605, Note_on_c, 9, 51, 46
4, 515080, Note_on_c, 9, 51, 0
4, 516122, Note_on_c, 9, 51, 33
4, 516252, Note_on_c, 9, 51, 0
4, 517038, Note_on_c, 9, 51, 40
4, 517116, Note_on_c, 9, 51, 0
4, 517511, Note_on_c, 9, 51, 73
4, 517947, Note_on_c, 9, 37, 34
4, 518093, Note_on_c, 9, 37, 0
4, 518248, Note_on_c, 9, 51, 0
4, 518350, Note_on_c, 9, 37, 47
4, 518454, Note_on_c, 9, 51, 35
4, 518559, Note_on_c, 9, 51, 0
4, 518987, Note_on_c, 9, 51, 40
4, 519094, Note_on_c, 9, 37, 0
4, 519141, Note_on_c, 9, 51, 0
4, 519455, Note_on_c, 9, 36, 32
4, 519634, Note_on_c, 9, 36, 0
4, 519937, Note_on_c, 9, 51, 38
4, 520042, Note_on_c, 9, 51, 0
4, 520432, Note_on_c, 9, 51, 33
4, 520613, Note_on_c, 9, 51, 0
4, 520918, Note_on_c, 9, 46, 28
4, 521036, Note_on_c, 9, 46, 0
4, 521393, Note_on_c, 9, 51, 21
4, 521520, Note_on_c, 9, 51, 0
4, 521901, Note_on_c, 9, 51, 32
4, 522004, Note_on_c, 9, 51, 0
4, 522322, Note_on_c, 9, 51, 35
4, 522914, Note_on_c, 9, 51, 0
4, 523274, Note_on_c, 9, 51, 38
4, 523561, Note_on_c, 9, 51, 0
4, 523769, Note_on_c, 9, 51, 34
4, 523881, Note_on_c, 9, 51, 0
4, 524215, Note_on_c, 9, 51, 37
4, 524683, Note_on_c, 9, 51, 0
4, 525174, Note_on_c, 9, 51, 25
4, 525288, Note_on_c, 9, 51, 0
4, 525631, Note_on_c, 9, 51, 53
4, 525653, Note_on_c, 9, 37, 42
4, 525771, Note_on_c, 9, 37, 0
4, 525998, Note_on_c, 9, 51, 0
4, 526143, Note_on_c, 9, 37, 35
4, 526527, Note_on_c, 9, 51, 42
4, 526623, Note_on_c, 9, 51, 0
4, 526654, Note_on_c, 9, 37, 0
4, 527020, Note_on_c, 9, 51, 35
4, 527291, Note_on_c, 9, 51, 0
4, 527505, Note_on_c, 9, 37, 36
4, 527580, Note_on_c, 9, 44, 23
4, 527655, Note_on_c, 9, 37, 0
4, 527723, Note_on_c, 9, 44, 0
4, 528084, Note_on_c, 9, 51, 30
4, 528152, Note_on_c, 9, 37, 25
4, 528220, Note_on_c, 9, 51, 0
4, 528426, Note_on_c, 9, 37, 0
4, 528605, Note_on_c, 9, 44, 29
4, 528720, Note_on_c, 9, 44, 0
4, 529100, Note_on_c, 9, 51, 32
4, 529289, Note_on_c, 9, 51, 0
4, 529595, Note_on_c, 9, 37, 37
4, 529609, Note_on_c, 9, 44, 31
4, 529703, Note_on_c, 9, 44, 0
4, 529727, Note_on_c, 9, 37, 0
4, 530059, Note_on_c, 9, 37, 35
4, 530082, Note_on_c, 9, 51, 33
4, 530350, Note_on_c, 9, 51, 0
4, 530590, Note_on_c, 9, 37, 0
4, 530606, Note_on_c, 9, 51, 39
4, 530749, Note_on_c, 9, 51, 0
4, 531099, Note_on_c, 9, 51, 46
4, 531463, Note_on_c, 9, 37, 40
4, 531524, Note_on_c, 9, 51, 0
4, 531595, Note_on_c, 9, 37, 0
4, 532019, Note_on_c, 9, 37, 31
4, 532024, Note_on_c, 9, 51, 51
4, 532285, Note_on_c, 9, 37, 0
4, 532574, Note_on_c, 9, 36, 35
4, 532678, Note_on_c, 9, 51, 0
4, 532760, Note_on_c, 9, 36, 0
4, 533471, Note_on_c, 9, 51, 32
4, 533511, Note_on_c, 9, 36, 29
4, 533569, Note_on_c, 9, 51, 0
4, 533670, Note_on_c, 9, 36, 0
4, 533874, Note_on_c, 9, 51, 30
4, 534012, Note_on_c, 9, 36, 34
4, 534398, Note_on_c, 9, 36, 0
4, 534745, Note_on_c, 9, 51, 0
4, 535299, Note_on_c, 9, 51, 30
4, 535402, Note_on_c, 9, 51, 0
4, 535782, Note_on_c, 9, 51, 31
4, 535993, Note_on_c, 9, 51, 0
4, 536282, Note_on_c, 9, 53, 36
4, 536414, Note_on_c, 9, 53, 0
4, 536786, Note_on_c, 9, 53, 32
4, 537044, Note_on_c, 9, 53, 0
4, 537637, Note_on_c, 9, 51, 39
4, 537940, Note_on_c, 9, 51, 0
4, 538181, Note_on_c, 9, 53, 32
4, 538291, Note_on_c, 9, 53, 0
4, 539055, Note_on_c, 9, 51, 32
4, 539167, Note_on_c, 9, 51, 0
4, 539548, Note_on_c, 9, 53, 35
4, 540072, Note_on_c, 9, 53, 0
4, 540352, Note_on_c, 9, 51, 31
4, 540460, Note_on_c, 9, 51, 0
4, 540912, Note_on_c, 9, 53, 37
4, 541096, Note_on_c, 9, 53, 0
4, 541373, Note_on_c, 9, 53, 35
4, 541562, Note_on_c, 9, 53, 0
4, 541864, Note_on_c, 9, 51, 32
4, 541998, Note_on_c, 9, 51, 0
4, 542785, Note_on_c, 9, 53, 38
4, 542941, Note_on_c, 9, 53, 0
4, 543217, Note_on_c, 9, 53, 30
4, 543636, Note_on_c, 9, 53, 0
4, 543824, Note_on_c, 9, 51, 42
4, 543920, Note_on_c, 9, 51, 0
4, 544776, Note_on_c, 9, 51, 39
4, 544807, Note_on_c, 9, 37, 35
4, 544939, Note_on_c, 9, 37, 0
4, 545054, Note_on_c, 9, 51, 0
4, 545242, Note_on_c, 9, 51, 49
4, 545506, Note_on_c, 9, 51, 0
4, 546270, Note_on_c, 9, 51, 35
4, 546362, Note_on_c, 9, 51, 0
4, 546783, Note_on_c, 9, 51, 53
4, 547305, Note_on_c, 9, 51, 0
4, 547343, Note_on_c, 9, 36, 41
4, 547493, Note_on_c, 9, 36, 0
4, 547757, Note_on_c, 9, 51, 37
4, 547928, Note_on_c, 9, 51, 0
4, 548266, Note_on_c, 9, 51, 56
4, 548324, Note_on_c, 9, 36, 39
4, 548748, Note_on_c, 9, 51, 0
4, 548821, Note_on_c, 9, 36, 0
4, 549119, Note_on_c, 9, 51, 37
4, 549231, Note_on_c, 9, 51, 0
4, 549693, Note_on_c, 9, 51, 46
4, 549982, Note_on_c, 9, 51, 0
4, 550676, Note_on_c, 9, 51, 43
4, 550786, Note_on_c, 9, 51, 0
4, 551171, Note_on_c, 9, 51, 37
4, 551449, Note_on_c, 9, 51, 0
4, 551624, Note_on_c, 9, 44, 29
4, 551731, Note_on_c, 9, 44, 0
4, 552170, Note_on_c, 9, 51, 26
4, 552285, Note_on_c, 9, 51, 0
4, 552632, Note_on_c, 9, 51, 42
4, 552721, Note_on_c, 9, 51, 0
4, 553116, Note_on_c, 9, 51, 44
4, 553707, Note_on_c, 9, 51, 0
4, 553960, Note_on_c, 9, 51, 35
4, 554059, Note_on_c, 9, 51, 0
4, 554495, Note_on_c, 9, 51, 49
4, 554796, Note_on_c, 9, 51, 0
4, 555438, Note_on_c, 9, 51, 44
4, 555535, Note_on_c, 9, 51, 0
4, 555907, Note_on_c, 9, 51, 42
4, 556220, Note_on_c, 9, 51, 0
4, 556827, Note_on_c, 9, 51, 64
4, 557221, Note_on_c, 9, 51, 0
4, 557360, Note_on_c, 9, 51, 29
4, 557463, Note_on_c, 9, 51, 0
4, 558292, Note_on_c, 9, 51, 63
4, 558756, Note_on_c, 9, 51, 0
4, 559273, Note_on_c, 9, 51, 56
4, 559612, Note_on_c, 9, 51, 0
4, 560221, Note_on_c, 9, 51, 44
4, 560351, Note_on_c, 9, 51, 0
4, 560687, Note_on_c, 9, 51, 46
4, 561099, Note_on_c, 9, 51, 0
4, 561630, Note_on_c, 9, 51, 45
4, 561937, Note_on_c, 9, 51, 0
4, 562622, Note_on_c, 9, 51, 33
4, 562721, Note_on_c, 9, 51, 0
4, 563068, Note_on_c, 9, 51, 43
4, 563222, Note_on_c, 9, 51, 0
4, 563608, Note_on_c, 9, 51, 32
4, 563762, Note_on_c, 9, 51, 0
4, 564524, Note_on_c, 9, 51, 49
4, 564748, Note_on_c, 9, 51, 0
4, 565514, Note_on_c, 9, 51, 32
4, 565617, Note_on_c, 9, 51, 0
4, 566005, Note_on_c, 9, 51, 37
4, 566085, Note_on_c, 9, 51, 0
4, 566493, Note_on_c, 9, 51, 77
4, 566907, Note_on_c, 9, 51, 0
4, 567454, Note_on_c, 9, 51, 20
4, 567552, Note_on_c, 9, 51, 0
4, 567933, Note_on_c, 9, 51, 53
4, 568016, Note_on_c, 9, 36, 27
4, 568121, Note_on_c, 9, 36, 0
4, 568144, Note_on_c, 9, 51, 0
4, 568424, Note_on_c, 9, 51, 43
4, 568481, Note_on_c, 9, 36, 29
4, 568677, Note_on_c, 9, 51, 0
4, 568970, Note_on_c, 9, 36, 0
4, 569342, Note_on_c, 9, 51, 37
4, 569427, Note_on_c, 9, 51, 0
4, 569899, Note_on_c, 9, 36, 37
4, 569900, Note_on_c, 9, 51, 35
4, 569992, Note_on_c, 9, 51, 0
4, 570137, Note_on_c, 9, 36, 0
4, 570373, Note_on_c, 9, 51, 32
4, 570381, Note_on_c, 9, 36, 36
4, 570469, Note_on_c, 9, 51, 0
4, 570791, Note_on_c, 9, 44, 24
4, 570933, Note_on_c, 9, 44, 0
4, 571275, Note_on_c, 9, 36, 0
4, 571797, Note_on_c, 9, 36, 50
4, 571806, Note_on_c, 9, 51, 35
4, 571891, Note_on_c, 9, 51, 0
4, 571940, Note_on_c, 9, 36, 0
4, 572256, Note_on_c, 9, 51, 44
4, 572368, Note_on_c, 9, 36, 35
4, 572588, Note_on_c, 9, 51, 0
4, 572787, Note_on_c, 9, 51, 24
4, 572901, Note_on_c, 9, 51, 0
4, 572986, Note_on_c, 9, 36, 0
4, 573705, Note_on_c, 9, 36, 47
4, 573728, Note_on_c, 9, 51, 44
4, 573802, Note_on_c, 9, 51, 0
4, 573840, Note_on_c, 9, 36, 0
4, 574192, Note_on_c, 9, 51, 38
4, 574216, Note_on_c, 9, 36, 39
4, 574272, Note_on_c, 9, 51, 0
4, 574538, Note_on_c, 9, 36, 0
4, 574702, Note_on_c, 9, 51, 46
4, 574779, Note_on_c, 9, 51, 0
4, 575157, Note_on_c, 9, 51, 62
4, 575545, Note_on_c, 9, 51, 0
4, 575625, Note_on_c, 9, 36, 32
4, 575732, Note_on_c, 9, 36, 0
4, 576095, Note_on_c, 9, 36, 21
4, 576400, Note_on_c, 9, 36, 0
4, 576546, Note_on_c, 9, 51, 42
4, 576631, Note_on_c, 9, 51, 0
4, 576996, Note_on_c, 9, 37, 35
4, 577093, Note_on_c, 9, 51, 42
4, 577350, Note_on_c, 9, 37, 0
4, 577509, Note_on_c, 9, 51, 0
4, 578022, Note_on_c, 9, 51, 50
4, 578360, Note_on_c, 9, 51, 0
4, 578943, Note_on_c, 9, 51, 32
4, 579037, Note_on_c, 9, 51, 0
4, 579487, Note_on_c, 9, 51, 43
4, 579642, Note_on_c, 9, 51, 0
4, 579903, Note_on_c, 9, 37, 40
4, 580051, Note_on_c, 9, 37, 0
4, 580405, Note_on_c, 9, 51, 42
4, 580582, Note_on_c, 9, 51, 0
4, 580889, Note_on_c, 9, 53, 40
4, 580892, Note_on_c, 9, 51, 43
4, 581245, Note_on_c, 9, 51, 0
4, 581265, Note_on_c, 9, 36, 47
4, 581366, Note_on_c, 9, 53, 0
4, 581424, Note_on_c, 9, 36, 0
4, 581758, Note_on_c, 9, 51, 33
4, 581857, Note_on_c, 9, 36, 26
4, 581861, Note_on_c, 9, 51, 0
4, 582237, Note_on_c, 9, 36, 0
4, 582327, Note_on_c, 9, 53, 51
4, 582332, Note_on_c, 9, 51, 53
4, 582639, Note_on_c, 9, 51, 0
4, 582672, Note_on_c, 9, 53, 0
4, 583279, Note_on_c, 9, 51, 43
4, 583376, Note_on_c, 9, 51, 0
4, 583765, Note_on_c, 9, 51, 44
4, 584169, Note_on_c, 9, 51, 0
4, 584664, Note_on_c, 9, 51, 35
4, 584760, Note_on_c, 9, 51, 0
4, 585172, Note_on_c, 9, 36, 49
4, 585226, Note_on_c, 9, 51, 39
4, 585295, Note_on_c, 9, 36, 0
4, 585533, Note_on_c, 9, 51, 0
4, 585696, Note_on_c, 9, 36, 42
4, 585889, Note_on_c, 9, 36, 0
4, 586149, Note_on_c, 9, 51, 38
4, 586254, Note_on_c, 9, 51, 0
4, 586671, Note_on_c, 9, 51, 47
4, 587114, Note_on_c, 9, 51, 0
4, 588116, Note_on_c, 9, 51, 38
4, 588198, Note_on_c, 9, 51, 0
4, 589005, Note_on_c, 9, 51, 44
4, 589224, Note_on_c, 9, 51, 0
4, 589437, Note_on_c, 9, 51, 35
4, 589455, Note_on_c, 9, 37, 43
4, 589529, Note_on_c, 9, 51, 0
4, 589703, Note_on_c, 9, 37, 0
4, 590430, Note_on_c, 9, 51, 35
4, 590638, Note_on_c, 9, 51, 0
4, 590810, Note_on_c, 9, 59, 50
4, 590993, Note_on_c, 9, 59, 0
4, 591262, Note_on_c, 9, 49, 21
4, 591331, Note_on_c, 9, 59, 61
4, 591332, Note_on_c, 9, 51, 35
4, 591431, Note_on_c, 9, 51, 0
4, 591887, Note_on_c, 9, 49, 0
4, 592617, Note_on_c, 9, 59, 0
4, 592848, Note_on_c, 9, 59, 55
4, 592960, Note_on_c, 9, 59, 0
4, 593316, Note_on_c, 9, 59, 45
4, 594295, Note_on_c, 9, 59, 0
4, 594727, Note_on_c, 9, 59, 53
4, 594842, Note_on_c, 9, 59, 0
4, 595198, Note_on_c, 9, 59, 60
4, 596322, Note_on_c, 9, 59, 0
4, 596584, Note_on_c, 9, 59, 53
4, 596646, Note_on_c, 9, 37, 31
4, 596775, Note_on_c, 9, 37, 0
4, 596835, Note_on_c, 9, 59, 0
4, 597064, Note_on_c, 9, 59, 51
4, 597153, Note_on_c, 9, 37, 24
4, 597180, Note_on_c, 9, 59, 0
4, 597467, Note_on_c, 9, 37, 0
4, 597633, Note_on_c, 9, 36, 28
4, 597657, Note_on_c, 9, 59, 48
4, 597751, Note_on_c, 9, 59, 0
4, 597791, Note_on_c, 9, 36, 0
4, 598078, Note_on_c, 9, 59, 62
4, 598111, Note_on_c, 9, 36, 25
4, 598526, Note_on_c, 9, 36, 0
4, 598665, Note_on_c, 9, 59, 0
4, 599010, Note_on_c, 9, 59, 58
4, 599534, Note_on_c, 9, 59, 0
4, 599935, Note_on_c, 9, 59, 56
4, 600619, Note_on_c, 9, 59, 0
4, 600977, Note_on_c, 9, 59, 34
4, 601080, Note_on_c, 9, 59, 0
4, 601465, Note_on_c, 9, 59, 50
4, 601555, Note_on_c, 9, 59, 0
4, 601920, Note_on_c, 9, 59, 71
4, 602639, Note_on_c, 9, 59, 0
4, 603439, Note_on_c, 9, 59, 51
4, 603533, Note_on_c, 9, 59, 0
4, 604395, Note_on_c, 9, 59, 59
4, 605065, Note_on_c, 9, 59, 0
4, 605356, Note_on_c, 9, 59, 55
4, 606104, Note_on_c, 9, 59, 0
4, 606238, Note_on_c, 9, 36, 30
4, 606367, Note_on_c, 9, 36, 0
4, 606380, Note_on_c, 9, 59, 64
4, 606505, Note_on_c, 9, 59, 0
4, 606794, Note_on_c, 9, 59, 54
4, 607110, Note_on_c, 9, 59, 0
4, 607163, Note_on_c, 9, 36, 30
4, 607314, Note_on_c, 9, 59, 62
4, 607332, Note_on_c, 9, 36, 0
4, 607403, Note_on_c, 9, 59, 0
4, 607739, Note_on_c, 9, 59, 49
4, 607959, Note_on_c, 9, 59, 0
4, 608063, Note_on_c, 9, 36, 25
4, 608210, Note_on_c, 9, 44, 53
4, 608267, Note_on_c, 9, 36, 0
4, 608400, Note_on_c, 9, 44, 0
4, 608627, Note_on_c, 9, 36, 19
4, 608935, Note_on_c, 9, 36, 0
4, 609144, Note_on_c, 9, 59, 69
4, 609350, Note_on_c, 9, 59, 0
4, 610067, Note_on_c, 9, 59, 55
4, 610103, Note_on_c, 9, 37, 33
4, 610237, Note_on_c, 9, 59, 0
4, 610265, Note_on_c, 9, 37, 0
4, 610551, Note_on_c, 9, 59, 55
4, 611067, Note_on_c, 9, 36, 27
4, 611212, Note_on_c, 9, 59, 0
4, 611228, Note_on_c, 9, 36, 0
4, 611521, Note_on_c, 9, 59, 58
4, 611590, Note_on_c, 9, 36, 23
4, 611815, Note_on_c, 9, 36, 0
4, 612045, Note_on_c, 9, 59, 0
4, 612576, Note_on_c, 9, 59, 44
4, 612876, Note_on_c, 9, 59, 0
4, 613095, Note_on_c, 9, 54, 31
4, 613203, Note_on_c, 9, 54, 0
4, 614038, Note_on_c, 9, 59, 61
4, 614130, Note_on_c, 9, 59, 0
4, 614491, Note_on_c, 9, 59, 65
4, 614737, Note_on_c, 9, 59, 0
4, 614943, Note_on_c, 9, 53, 60
4, 615046, Note_on_c, 9, 53, 0
4, 615880, Note_on_c, 9, 59, 62
4, 616115, Note_on_c, 9, 59, 0
4, 616399, Note_on_c, 9, 53, 73
4, 616751, Note_on_c, 9, 53, 0
4, 616897, Note_on_c, 9, 59, 52
4, 617047, Note_on_c, 9, 59, 0
4, 617786, Note_on_c, 9, 59, 82
4, 618491, Note_on_c, 9, 59, 0
4, 618758, Note_on_c, 9, 59, 51
4, 618919, Note_on_c, 9, 59, 0
4, 619267, Note_on_c, 9, 59, 62
4, 619885, Note_on_c, 9, 59, 0
4, 620599, Note_on_c, 9, 59, 78
4, 620647, Note_on_c, 9, 37, 21
4, 620750, Note_on_c, 9, 37, 0
4, 620801, Note_on_c, 9, 59, 0
4, 621072, Note_on_c, 9, 59, 53
4, 621092, Note_on_c, 9, 37, 23
4, 621191, Note_on_c, 9, 59, 0
4, 621254, Note_on_c, 9, 37, 0
4, 621551, Note_on_c, 9, 36, 28
4, 621578, Note_on_c, 9, 59, 71
4, 621654, Note_on_c, 9, 59, 0
4, 621681, Note_on_c, 9, 36, 0
4, 622064, Note_on_c, 9, 59, 109
4, 622070, Note_on_c, 9, 36, 27
4, 622531, Note_on_c, 9, 36, 0
4, 622602, Note_on_c, 9, 59, 0
4, 623090, Note_on_c, 9, 59, 45
4, 623200, Note_on_c, 9, 59, 0
4, 623594, Note_on_c, 9, 59, 83
4, 623803, Note_on_c, 9, 59, 0
4, 624468, Note_on_c, 9, 37, 34
4, 624539, Note_on_c, 9, 59, 62
4, 624561, Note_on_c, 9, 37, 0
4, 624627, Note_on_c, 9, 59, 0
4, 624887, Note_on_c, 9, 36, 26
4, 624979, Note_on_c, 9, 59, 73
4, 625067, Note_on_c, 9, 36, 0
4, 625390, Note_on_c, 9, 36, 37
4, 625444, Note_on_c, 9, 59, 0
4, 625739, Note_on_c, 9, 36, 0
4, 625948, Note_on_c, 9, 59, 40
4, 626092, Note_on_c, 9, 59, 0
4, 626439, Note_on_c, 9, 44, 52
4, 626564, Note_on_c, 9, 44, 0
4, 627436, Note_on_c, 9, 59, 61
4, 627675, Note_on_c, 9, 59, 0
4, 628395, Note_on_c, 9, 59, 55
4, 628522, Note_on_c, 9, 59, 0
4, 628811, Note_on_c, 9, 59, 55
4, 628979, Note_on_c, 9, 59, 0
4, 629369, Note_on_c, 9, 59, 60
4, 629456, Note_on_c, 9, 59, 0
4, 629803, Note_on_c, 9, 59, 60
4, 629922, Note_on_c, 9, 59, 0
4, 630278, Note_on_c, 9, 44, 55
4, 630386, Note_on_c, 9, 44, 0
4, 630702, Note_on_c, 9, 59, 65
4, 630811, Note_on_c, 9, 59, 0
4, 631235, Note_on_c, 9, 59, 47
4, 631492, Note_on_c, 9, 59, 0
4, 631690, Note_on_c, 9, 59, 61
4, 631920, Note_on_c, 9, 59, 0
4, 632205, Note_on_c, 9, 44, 60
4, 632404, Note_on_c, 9, 44, 0
4, 632655, Note_on_c, 9, 59, 53
4, 632792, Note_on_c, 9, 59, 0
4, 633163, Note_on_c, 9, 59, 54
4, 633392, Note_on_c, 9, 59, 0
4, 633625, Note_on_c, 9, 59, 68
4, 634281, Note_on_c, 9, 59, 0
4, 634534, Note_on_c, 9, 59, 33
4, 634642, Note_on_c, 9, 59, 0
4, 635041, Note_on_c, 9, 59, 88
4, 635073, Note_on_c, 9, 45, 23
4, 635196, Note_on_c, 9, 45, 0
4, 635668, Note_on_c, 9, 59, 0
4, 635975, Note_on_c, 9, 59, 58
4, 636046, Note_on_c, 9, 45, 34
4, 636111, Note_on_c, 9, 59, 0
4, 636209, Note_on_c, 9, 45, 0
4, 636488, Note_on_c, 9, 59, 91
4, 636979, Note_on_c, 9, 37, 42
4, 637126, Note_on_c, 9, 59, 0
4, 637331, Note_on_c, 9, 37, 0
4, 637470, Note_on_c, 9, 36, 27
4, 637502, Note_on_c, 9, 59, 61
4, 637749, Note_on_c, 9, 59, 0
4, 637763, Note_on_c, 9, 36, 0
4, 637942, Note_on_c, 9, 36, 33
4, 638155, Note_on_c, 9, 36, 0
4, 638385, Note_on_c, 9, 36, 33
4, 638398, Note_on_c, 9, 59, 58
4, 638540, Note_on_c, 9, 59, 0
4, 638727, Note_on_c, 9, 36, 0
4, 639335, Note_on_c, 9, 59, 56
4, 639374, Note_on_c, 9, 45, 23
4, 639687, Note_on_c, 9, 45, 0
4, 639761, Note_on_c, 9, 37, 36
4, 639845, Note_on_c, 9, 59, 0
4, 640052, Note_on_c, 9, 37, 0
4, 640217, Note_on_c, 9, 37, 31
4, 640320, Note_on_c, 9, 59, 35
4, 640437, Note_on_c, 9, 59, 0
4, 640609, Note_on_c, 9, 37, 0
4, 640663, Note_on_c, 9, 36, 54
4, 640889, Note_on_c, 9, 59, 60
4, 640988, Note_on_c, 9, 59, 0
4, 641031, Note_on_c, 9, 36, 0
4, 641171, Note_on_c, 9, 36, 42
4, 641335, Note_on_c, 9, 59, 61
4, 641483, Note_on_c, 9, 36, 0
4, 641788, Note_on_c, 9, 59, 0
4, 642240, Note_on_c, 9, 59, 51
4, 642706, Note_on_c, 9, 59, 0
4, 643183, Note_on_c, 9, 36, 26
4, 643192, Note_on_c, 9, 59, 51
4, 643355, Note_on_c, 9, 36, 0
4, 643765, Note_on_c, 9, 59, 0
4, 644169, Note_on_c, 9, 59, 101
4, 644805, Note_on_c, 9, 59, 0
4, 645089, Note_on_c, 9, 59, 48
4, 645454, Note_on_c, 9, 59, 0
4, 645660, Note_on_c, 9, 59, 61
4, 645797, Note_on_c, 9, 59, 0
4, 646182, Note_on_c, 9, 59, 70
4, 646601, Note_on_c, 9, 64, 36
4, 646729, Note_on_c, 9, 59, 0
4, 647425, Note_on_c, 9, 64, 0
4, 647461, Note_on_c, 9, 59, 67
4, 647636, Note_on_c, 9, 59, 0
4, 647965, Note_on_c, 9, 59, 76
4, 647983, Note_on_c, 9, 63, 32
4, 648329, Note_on_c, 9, 63, 0
4, 648451, Note_on_c, 9, 63, 23
4, 648689, Note_on_c, 9, 59, 0
4, 649055, Note_on_c, 9, 63, 0
4, 649460, Note_on_c, 9, 59, 62
4, 649560, Note_on_c, 9, 59, 0
4, 649860, Note_on_c, 9, 63, 39
4, 649935, Note_on_c, 9, 64, 28
4, 649981, Note_on_c, 9, 59, 45
4, 650082, Note_on_c, 9, 59, 0
4, 650123, Note_on_c, 9, 63, 0
4, 650302, Note_on_c, 9, 64, 0
4, 650443, Note_on_c, 9, 59, 64
4, 650471, Note_on_c, 9, 63, 40
4, 650507, Note_on_c, 9, 64, 38
4, 650602, Note_on_c, 9, 59, 0
4, 650790, Note_on_c, 9, 63, 0
4, 650919, Note_on_c, 9, 64, 0
4, 650976, Note_on_c, 9, 59, 55
4, 651113, Note_on_c, 9, 59, 0
4, 651225, Note_on_c, 9, 62, 35
4, 651417, Note_on_c, 9, 53, 54
4, 651502, Note_on_c, 9, 53, 0
4, 651553, Note_on_c, 9, 62, 0
4, 651868, Note_on_c, 9, 59, 57
4, 651903, Note_on_c, 9, 62, 27
4, 651957, Note_on_c, 9, 59, 0
4, 652227, Note_on_c, 9, 62, 0
4, 652428, Note_on_c, 9, 53, 70
4, 652507, Note_on_c, 9, 62, 35
4, 652602, Note_on_c, 9, 53, 0
4, 652769, Note_on_c, 9, 62, 0
4, 652880, Note_on_c, 9, 59, 51
4, 653088, Note_on_c, 9, 59, 0
4, 653180, Note_on_c, 9, 62, 29
4, 653406, Note_on_c, 9, 59, 50
4, 653467, Note_on_c, 9, 62, 0
4, 653563, Note_on_c, 9, 59, 0
4, 653817, Note_on_c, 9, 62, 32
4, 653901, Note_on_c, 9, 59, 56
4, 654089, Note_on_c, 9, 62, 0
4, 654349, Note_on_c, 9, 59, 0
4, 654425, Note_on_c, 9, 62, 29
4, 654788, Note_on_c, 9, 59, 73
4, 655548, Note_on_c, 9, 59, 0
4, 655815, Note_on_c, 9, 62, 0
4, 656197, Note_on_c, 9, 59, 58
4, 656294, Note_on_c, 9, 59, 0
4, 656628, Note_on_c, 9, 36, 18
4, 656704, Note_on_c, 9, 59, 69
4, 656827, Note_on_c, 9, 36, 0
4, 657140, Note_on_c, 9, 36, 27
4, 657338, Note_on_c, 9, 59, 0
4, 657430, Note_on_c, 9, 36, 0
4, 658122, Note_on_c, 9, 59, 54
4, 658207, Note_on_c, 9, 59, 0
4, 658596, Note_on_c, 9, 59, 53
4, 658870, Note_on_c, 9, 59, 0
4, 659096, Note_on_c, 9, 59, 50
4, 659181, Note_on_c, 9, 59, 0
4, 659560, Note_on_c, 9, 59, 86
4, 660256, Note_on_c, 9, 59, 0
4, 660498, Note_on_c, 9, 59, 48
4, 660610, Note_on_c, 9, 59, 0
4, 661054, Note_on_c, 9, 59, 68
4, 661511, Note_on_c, 9, 59, 0
4, 661916, Note_on_c, 9, 59, 68
4, 662077, Note_on_c, 9, 59, 0
4, 662436, Note_on_c, 9, 59, 47
4, 662754, Note_on_c, 9, 59, 0
4, 662846, Note_on_c, 9, 37, 38
4, 662902, Note_on_c, 9, 44, 47
4, 663027, Note_on_c, 9, 44, 0
4, 663185, Note_on_c, 9, 37, 0
4, 663308, Note_on_c, 9, 36, 25
4, 663550, Note_on_c, 9, 36, 0
4, 663764, Note_on_c, 9, 59, 64
4, 663785, Note_on_c, 9, 36, 36
4, 663937, Note_on_c, 9, 59, 0
4, 664151, Note_on_c, 9, 36, 0
4, 664286, Note_on_c, 9, 59, 54
4, 664669, Note_on_c, 9, 59, 0
4, 664777, Note_on_c, 9, 44, 47
4, 665030, Note_on_c, 9, 44, 0
4, 665744, Note_on_c, 9, 59, 54
4, 665856, Note_on_c, 9, 59, 0
4, 666230, Note_on_c, 9, 59, 65
4, 666535, Note_on_c, 9, 59, 0
4, 666746, Note_on_c, 9, 59, 58
4, 666772, Note_on_c, 9, 37, 29
4, 666840, Note_on_c, 9, 59, 0
4, 666993, Note_on_c, 9, 37, 0
4, 667218, Note_on_c, 9, 59, 52
4, 667337, Note_on_c, 9, 59, 0
4, 667655, Note_on_c, 9, 36, 29
4, 667702, Note_on_c, 9, 59, 67
4, 667794, Note_on_c, 9, 59, 0
4, 667859, Note_on_c, 9, 36, 0
4, 668103, Note_on_c, 9, 36, 36
4, 668186, Note_on_c, 9, 59, 76
4, 668582, Note_on_c, 9, 36, 0
4, 668748, Note_on_c, 9, 59, 0
4, 669149, Note_on_c, 9, 59, 40
4, 669179, Note_on_c, 9, 36, 27
4, 669259, Note_on_c, 9, 59, 0
4, 669680, Note_on_c, 9, 59, 58
4, 669697, Note_on_c, 9, 36, 0
4, 669776, Note_on_c, 9, 59, 0
4, 670164, Note_on_c, 9, 59, 60
4, 670522, Note_on_c, 9, 59, 0
4, 670657, Note_on_c, 9, 36, 27
4, 670690, Note_on_c, 9, 59, 47
4, 670756, Note_on_c, 9, 36, 0
4, 670778, Note_on_c, 9, 59, 0
4, 671543, Note_on_c, 9, 36, 30
4, 671671, Note_on_c, 9, 59, 41
4, 671675, Note_on_c, 9, 36, 0
4, 671779, Note_on_c, 9, 59, 0
4, 672055, Note_on_c, 9, 36, 21
4, 672158, Note_on_c, 9, 59, 62
4, 672337, Note_on_c, 9, 36, 0
4, 672485, Note_on_c, 9, 59, 0
4, 672697, Note_on_c, 9, 59, 61
4, 672776, Note_on_c, 9, 59, 0
4, 673546, Note_on_c, 9, 59, 63
4, 673678, Note_on_c, 9, 59, 0
4, 674053, Note_on_c, 9, 59, 79
4, 674852, Note_on_c, 9, 59, 0
4, 674933, Note_on_c, 9, 59, 29
4, 675197, Note_on_c, 9, 59, 0
4, 675401, Note_on_c, 9, 36, 27
4, 675505, Note_on_c, 9, 36, 0
4, 675513, Note_on_c, 9, 59, 52
4, 675605, Note_on_c, 9, 59, 0
4, 675905, Note_on_c, 9, 36, 25
4, 675970, Note_on_c, 9, 59, 84
4, 676223, Note_on_c, 9, 36, 0
4, 676452, Note_on_c, 9, 36, 25
4, 676559, Note_on_c, 9, 59, 0
4, 676585, Note_on_c, 9, 36, 0
4, 676792, Note_on_c, 9, 59, 52
4, 676960, Note_on_c, 9, 59, 0
4, 677316, Note_on_c, 9, 36, 29
4, 677325, Note_on_c, 9, 59, 68
4, 677551, Note_on_c, 9, 36, 0
4, 678185, Note_on_c, 9, 59, 0
4, 678268, Note_on_c, 9, 53, 62
4, 678490, Note_on_c, 9, 53, 0
4, 679218, Note_on_c, 9, 53, 73
4, 679312, Note_on_c, 9, 53, 0
4, 679751, Note_on_c, 9, 59, 48
4, 680076, Note_on_c, 9, 59, 0
4, 680100, Note_on_c, 9, 45, 38
4, 680260, Note_on_c, 9, 59, 76
4, 680319, Note_on_c, 9, 45, 0
4, 680383, Note_on_c, 9, 59, 0
4, 680535, Note_on_c, 9, 45, 29
4, 680699, Note_on_c, 9, 59, 70
4, 680964, Note_on_c, 9, 45, 0
4, 681044, Note_on_c, 9, 59, 0
4, 681099, Note_on_c, 9, 36, 25
4, 681206, Note_on_c, 9, 36, 0
4, 681207, Note_on_c, 9, 53, 76
4, 681552, Note_on_c, 9, 53, 0
4, 682118, Note_on_c, 9, 36, 25
4, 682132, Note_on_c, 9, 53, 81
4, 682233, Note_on_c, 9, 36, 0
4, 682446, Note_on_c, 9, 53, 0
4, 682575, Note_on_c, 9, 43, 41
4, 682947, Note_on_c, 9, 43, 0
4, 683049, Note_on_c, 9, 37, 36
4, 683095, Note_on_c, 9, 59, 68
4, 683248, Note_on_c, 9, 59, 0
4, 683388, Note_on_c, 9, 37, 0
4, 683485, Note_on_c, 9, 59, 67
4, 683522, Note_on_c, 9, 36, 34
4, 683545, Note_on_c, 9, 57, 21
4, 683639, Note_on_c, 9, 57, 0
4, 683831, Note_on_c, 9, 36, 0
4, 684099, Note_on_c, 9, 59, 0
4, 684448, Note_on_c, 9, 59, 73
4, 685696, Note_on_c, 9, 59, 0
4, 685898, Note_on_c, 9, 59, 63
4, 685938, Note_on_c, 9, 37, 31
4, 686115, Note_on_c, 9, 59, 0
4, 686235, Note_on_c, 9, 37, 0
4, 686339, Note_on_c, 9, 59, 56
4, 686841, Note_on_c, 9, 36, 26
4, 686935, Note_on_c, 9, 59, 0
4, 687051, Note_on_c, 9, 36, 0
4, 687327, Note_on_c, 9, 36, 26
4, 687599, Note_on_c, 9, 36, 0
4, 687840, Note_on_c, 9, 59, 66
4, 688070, Note_on_c, 9, 59, 0
4, 688316, Note_on_c, 9, 36, 25
4, 688703, Note_on_c, 9, 36, 0
4, 688819, Note_on_c, 9, 59, 71
4, 689022, Note_on_c, 9, 59, 0
4, 689278, Note_on_c, 9, 59, 53
4, 689385, Note_on_c, 9, 59, 0
4, 689818, Note_on_c, 9, 53, 40
4, 689914, Note_on_c, 9, 53, 0
4, 690198, Note_on_c, 9, 59, 44
4, 690331, Note_on_c, 9, 59, 0
4, 690736, Note_on_c, 9, 53, 42
4, 690832, Note_on_c, 9, 53, 0
4, 691227, Note_on_c, 9, 59, 51
4, 691343, Note_on_c, 9, 59, 0
4, 691728, Note_on_c, 9, 59, 50
4, 691822, Note_on_c, 9, 59, 0
4, 692208, Note_on_c, 9, 59, 46
4, 692309, Note_on_c, 9, 59, 0
4, 692689, Note_on_c, 9, 59, 57
4, 692801, Note_on_c, 9, 59, 0
4, 693211, Note_on_c, 9, 59, 50
4, 693473, Note_on_c, 9, 59, 0
4, 693615, Note_on_c, 9, 37, 29
4, 693686, Note_on_c, 9, 53, 51
4, 693767, Note_on_c, 9, 53, 0
4, 693919, Note_on_c, 9, 37, 0
4, 694537, Note_on_c, 9, 36, 29
4, 694611, Note_on_c, 9, 59, 55
4, 694714, Note_on_c, 9, 59, 0
4, 694764, Note_on_c, 9, 36, 0
4, 695051, Note_on_c, 9, 36, 25
4, 695091, Note_on_c, 9, 59, 68
4, 695364, Note_on_c, 9, 59, 0
4, 695508, Note_on_c, 9, 36, 0
4, 695597, Note_on_c, 9, 59, 48
4, 695689, Note_on_c, 9, 59, 0
4, 696069, Note_on_c, 9, 59, 55
4, 696285, Note_on_c, 9, 59, 0
4, 696560, Note_on_c, 9, 44, 56
4, 696659, Note_on_c, 9, 44, 0
4, 697483, Note_on_c, 9, 59, 60
4, 697745, Note_on_c, 9, 59, 0
4, 697951, Note_on_c, 9, 44, 33
4, 698388, Note_on_c, 9, 44, 0
4, 698493, Note_on_c, 9, 59, 61
4, 698612, Note_on_c, 9, 59, 0
4, 698968, Note_on_c, 9, 59, 58
4, 699105, Note_on_c, 9, 59, 0
4, 699342, Note_on_c, 9, 36, 32
4, 699519, Note_on_c, 9, 36, 0
4, 699821, Note_on_c, 9, 59, 53
4, 699822, Note_on_c, 9, 36, 26
4, 700030, Note_on_c, 9, 59, 0
4, 700110, Note_on_c, 9, 36, 0
4, 700295, Note_on_c, 9, 37, 27
4, 700377, Note_on_c, 9, 59, 68
4, 700464, Note_on_c, 9, 59, 0
4, 700622, Note_on_c, 9, 37, 0
4, 700719, Note_on_c, 9, 36, 23
4, 700861, Note_on_c, 9, 59, 82
4, 701051, Note_on_c, 9, 36, 0
4, 701267, Note_on_c, 9, 36, 34
4, 701387, Note_on_c, 9, 59, 0
4, 701499, Note_on_c, 9, 36, 0
4, 701761, Note_on_c, 9, 36, 30
4, 702054, Note_on_c, 9, 36, 0
4, 702315, Note_on_c, 9, 59, 57
4, 702415, Note_on_c, 9, 59, 0
4, 702756, Note_on_c, 9, 59, 53
4, 702884, Note_on_c, 9, 59, 0
4, 703220, Note_on_c, 9, 53, 45
4, 703312, Note_on_c, 9, 53, 0
4, 703619, Note_on_c, 9, 44, 38
4, 704073, Note_on_c, 9, 44, 0
4, 704219, Note_on_c, 9, 59, 58
4, 704322, Note_on_c, 9, 59, 0
4, 704698, Note_on_c, 9, 53, 57
4, 704998, Note_on_c, 9, 53, 0
4, 705119, Note_on_c, 9, 37, 29
4, 705218, Note_on_c, 9, 59, 46
4, 705319, Note_on_c, 9, 59, 0
4, 705326, Note_on_c, 9, 37, 0
4, 705708, Note_on_c, 9, 59, 41
4, 705818, Note_on_c, 9, 59, 0
4, 706051, Note_on_c, 9, 36, 37
4, 706154, Note_on_c, 9, 59, 89
4, 706385, Note_on_c, 9, 36, 0
4, 706566, Note_on_c, 9, 36, 33
4, 706770, Note_on_c, 9, 59, 0
4, 706913, Note_on_c, 9, 36, 0
4, 707084, Note_on_c, 9, 53, 68
4, 707297, Note_on_c, 9, 53, 0
4, 707583, Note_on_c, 9, 59, 45
4, 707709, Note_on_c, 9, 59, 0
4, 708069, Note_on_c, 9, 59, 56
4, 708181, Note_on_c, 9, 59, 0
4, 708578, Note_on_c, 9, 53, 70
4, 708938, Note_on_c, 9, 53, 0
4, 709091, Note_on_c, 9, 59, 51
4, 709346, Note_on_c, 9, 59, 0
4, 709541, Note_on_c, 9, 59, 55
4, 709626, Note_on_c, 9, 59, 0
4, 710038, Note_on_c, 9, 59, 98
4, 710325, Note_on_c, 9, 59, 0
4, 710549, Note_on_c, 9, 59, 102
4, 711169, Note_on_c, 9, 59, 0
4, 711875, Note_on_c, 9, 37, 31
4, 711971, Note_on_c, 9, 59, 64
4, 712020, Note_on_c, 9, 37, 0
4, 712068, Note_on_c, 9, 59, 0
4, 712361, Note_on_c, 9, 37, 31
4, 712444, Note_on_c, 9, 59, 75
4, 712633, Note_on_c, 9, 37, 0
4, 712728, Note_on_c, 9, 59, 0
4, 712831, Note_on_c, 9, 36, 29
4, 712937, Note_on_c, 9, 59, 66
4, 712951, Note_on_c, 9, 36, 0
4, 713109, Note_on_c, 9, 59, 0
4, 713340, Note_on_c, 9, 36, 19
4, 713387, Note_on_c, 9, 59, 60
4, 713449, Note_on_c, 9, 36, 0
4, 713593, Note_on_c, 9, 59, 0
4, 713791, Note_on_c, 9, 36, 38
4, 713819, Note_on_c, 9, 53, 64
4, 713907, Note_on_c, 9, 53, 0
4, 714006, Note_on_c, 9, 36, 0
4, 714300, Note_on_c, 9, 49, 16
4, 714321, Note_on_c, 9, 36, 30
4, 714514, Note_on_c, 9, 57, 4
4, 714753, Note_on_c, 9, 57, 0
4, 715279, Note_on_c, 9, 49, 0
4, 715284, Note_on_c, 9, 59, 46
4, 715387, Note_on_c, 9, 59, 0
4, 715470, Note_on_c, 9, 36, 0
4, 715770, Note_on_c, 9, 59, 65
4, 716588, Note_on_c, 9, 59, 0
4, 716691, Note_on_c, 9, 37, 37
4, 716790, Note_on_c, 9, 53, 47
4, 716830, Note_on_c, 9, 37, 0
4, 716879, Note_on_c, 9, 53, 0
4, 717158, Note_on_c, 9, 49, 14
4, 717185, Note_on_c, 9, 36, 30
4, 717271, Note_on_c, 9, 59, 31
4, 717370, Note_on_c, 9, 59, 0
4, 717703, Note_on_c, 9, 59, 67
4, 717889, Note_on_c, 9, 59, 0
4, 718052, Note_on_c, 9, 49, 0
4, 718201, Note_on_c, 9, 59, 84
4, 718519, Note_on_c, 9, 36, 0
4, 718779, Note_on_c, 9, 59, 0
4, 719596, Note_on_c, 9, 59, 60
4, 719713, Note_on_c, 9, 59, 0
4, 720040, Note_on_c, 9, 59, 57
4, 720678, Note_on_c, 9, 59, 0
4, 721460, Note_on_c, 9, 59, 59
4, 721563, Note_on_c, 9, 59, 0
4, 721906, Note_on_c, 9, 59, 66
4, 722011, Note_on_c, 9, 59, 0
4, 723445, Note_on_c, 9, 53, 57
4, 723521, Note_on_c, 9, 53, 0
4, 723886, Note_on_c, 9, 53, 56
4, 723993, Note_on_c, 9, 53, 0
4, 725308, Note_on_c, 9, 59, 51
4, 725418, Note_on_c, 9, 59, 0
4, 725729, Note_on_c, 9, 59, 49
4, 725971, Note_on_c, 9, 59, 0
4, 726265, Note_on_c, 9, 53, 53
4, 726350, Note_on_c, 9, 53, 0
4, 726713, Note_on_c, 9, 59, 51
4, 726921, Note_on_c, 9, 59, 0
4, 727223, Note_on_c, 9, 59, 60
4, 727358, Note_on_c, 9, 59, 0
4, 727710, Note_on_c, 9, 59, 61
4, 728386, Note_on_c, 9, 59, 0
4, 728722, Note_on_c, 9, 59, 64
4, 729253, Note_on_c, 9, 59, 0
4, 729672, Note_on_c, 9, 59, 46
4, 730017, Note_on_c, 9, 59, 0
4, 730115, Note_on_c, 9, 44, 60
4, 730350, Note_on_c, 9, 44, 0
4, 731114, Note_on_c, 9, 59, 55
4, 731296, Note_on_c, 9, 59, 0
4, 731583, Note_on_c, 9, 59, 50
4, 731979, Note_on_c, 9, 59, 0
4, 732048, Note_on_c, 9, 44, 55
4, 732066, Note_on_c, 9, 37, 21
4, 732204, Note_on_c, 9, 37, 0
4, 732326, Note_on_c, 9, 44, 0
4, 733023, Note_on_c, 9, 37, 31
4, 733043, Note_on_c, 9, 59, 48
4, 733163, Note_on_c, 9, 37, 0
4, 733231, Note_on_c, 9, 59, 0
4, 733527, Note_on_c, 9, 59, 54
4, 733987, Note_on_c, 9, 37, 33
4, 734078, Note_on_c, 9, 59, 0
4, 734084, Note_on_c, 9, 37, 0
4, 734456, Note_on_c, 9, 59, 60
4, 734892, Note_on_c, 9, 37, 38
4, 735087, Note_on_c, 9, 37, 0
4, 735279, Note_on_c, 9, 59, 0
4, 735435, Note_on_c, 9, 44, 46
4, 735823, Note_on_c, 9, 37, 36
4, 735915, Note_on_c, 9, 44, 0
4, 736156, Note_on_c, 9, 37, 0
4, 736360, Note_on_c, 9, 59, 62
4, 736649, Note_on_c, 9, 59, 0
4, 736743, Note_on_c, 9, 37, 34
4, 736878, Note_on_c, 9, 59, 64
4, 737046, Note_on_c, 9, 37, 0
4, 737100, Note_on_c, 9, 59, 0
4, 737259, Note_on_c, 9, 36, 27
4, 737328, Note_on_c, 9, 59, 68
4, 737881, Note_on_c, 9, 36, 0
4, 737984, Note_on_c, 9, 59, 0
4, 738231, Note_on_c, 9, 36, 27
4, 738762, Note_on_c, 9, 59, 60
4, 738796, Note_on_c, 9, 36, 0
4, 738883, Note_on_c, 9, 59, 0
4, 739241, Note_on_c, 9, 59, 54
4, 739508, Note_on_c, 9, 59, 0
4, 739729, Note_on_c, 9, 59, 55
4, 739864, Note_on_c, 9, 59, 0
4, 740224, Note_on_c, 9, 59, 60
4, 740755, Note_on_c, 9, 53, 69
4, 740758, Note_on_c, 9, 59, 0
4, 740988, Note_on_c, 9, 53, 0
4, 741737, Note_on_c, 9, 45, 34
4, 741743, Note_on_c, 9, 59, 63
4, 741884, Note_on_c, 9, 59, 0
4, 741948, Note_on_c, 9, 45, 0
4, 742166, Note_on_c, 9, 59, 76
4, 742252, Note_on_c, 9, 45, 31
4, 742767, Note_on_c, 9, 59, 0
4, 742876, Note_on_c, 9, 45, 0
4, 743071, Note_on_c, 9, 59, 65
4, 743155, Note_on_c, 9, 45, 28
4, 743421, Note_on_c, 9, 59, 0
4, 743572, Note_on_c, 9, 45, 0
4, 743638, Note_on_c, 9, 59, 84
4, 743737, Note_on_c, 9, 45, 28
4, 743971, Note_on_c, 9, 45, 0
4, 744100, Note_on_c, 9, 59, 0
4, 744371, Note_on_c, 9, 59, 83
4, 744502, Note_on_c, 9, 37, 42
4, 744765, Note_on_c, 9, 59, 0
4, 744772, Note_on_c, 9, 37, 0
4, 745000, Note_on_c, 9, 59, 95
4, 745012, Note_on_c, 9, 45, 29
4, 745052, Note_on_c, 9, 36, 31
4, 745308, Note_on_c, 9, 45, 0
4, 745327, Note_on_c, 9, 36, 0
4, 745609, Note_on_c, 9, 59, 0
4, 745847, Note_on_c, 9, 59, 64
4, 746042, Note_on_c, 9, 59, 0
4, 746434, Note_on_c, 9, 59, 85
4, 746985, Note_on_c, 9, 59, 0
4, 747368, Note_on_c, 9, 59, 64
4, 747576, Note_on_c, 9, 59, 0
4, 747937, Note_on_c, 9, 53, 87
4, 747946, Note_on_c, 9, 59, 79
4, 748479, Note_on_c, 9, 59, 0
4, 748658, Note_on_c, 9, 53, 0
4, 748864, Note_on_c, 9, 59, 55
4, 749059, Note_on_c, 9, 59, 0
4, 749417, Note_on_c, 9, 59, 83
4, 749442, Note_on_c, 9, 53, 86
4, 749959, Note_on_c, 9, 59, 0
4, 750040, Note_on_c, 9, 53, 0
4, 750284, Note_on_c, 9, 59, 62
4, 750452, Note_on_c, 9, 59, 0
4, 750811, Note_on_c, 9, 59, 85
4, 750835, Note_on_c, 9, 53, 81
4, 751307, Note_on_c, 9, 36, 21
4, 751384, Note_on_c, 9, 59, 0
4, 751459, Note_on_c, 9, 36, 0
4, 751525, Note_on_c, 9, 53, 0
4, 751700, Note_on_c, 9, 59, 58
4, 751904, Note_on_c, 9, 59, 0
4, 752193, Note_on_c, 9, 59, 80
4, 752195, Note_on_c, 9, 53, 79
4, 752211, Note_on_c, 9, 36, 25
4, 752345, Note_on_c, 9, 36, 0
4, 752569, Note_on_c, 9, 53, 0
4, 752729, Note_on_c, 9, 36, 25
4, 752880, Note_on_c, 9, 59, 0
4, 752940, Note_on_c, 9, 36, 0
4, 753151, Note_on_c, 9, 59, 65
4, 753335, Note_on_c, 9, 59, 0
4, 753613, Note_on_c, 9, 59, 83
4, 754068, Note_on_c, 9, 36, 23
4, 754173, Note_on_c, 9, 59, 0
4, 754183, Note_on_c, 9, 36, 0
4, 754529, Note_on_c, 9, 59, 79
4, 754641, Note_on_c, 9, 36, 12
4, 754839, Note_on_c, 9, 36, 0
4, 755152, Note_on_c, 9, 59, 0
4, 756050, Note_on_c, 9, 59, 64
4, 756160, Note_on_c, 9, 59, 0
4, 756529, Note_on_c, 9, 59, 76
4, 756991, Note_on_c, 9, 59, 0
4, 757911, Note_on_c, 9, 59, 56
4, 758010, Note_on_c, 9, 59, 0
4, 758377, Note_on_c, 9, 59, 58
4, 758575, Note_on_c, 9, 59, 0
4, 758828, Note_on_c, 9, 53, 58
4, 758870, Note_on_c, 9, 45, 46
4, 758924, Note_on_c, 9, 53, 0
4, 759212, Note_on_c, 9, 45, 0
4, 759355, Note_on_c, 9, 36, 23
4, 759394, Note_on_c, 9, 59, 40
4, 759468, Note_on_c, 9, 36, 0
4, 759504, Note_on_c, 9, 59, 0
4, 759814, Note_on_c, 9, 43, 36
4, 759849, Note_on_c, 9, 53, 68
4, 759932, Note_on_c, 9, 53, 0
4, 760230, Note_on_c, 9, 43, 0
4, 760360, Note_on_c, 9, 59, 68
4, 760640, Note_on_c, 9, 59, 0
4, 760843, Note_on_c, 9, 36, 27
4, 760855, Note_on_c, 9, 59, 60
4, 761012, Note_on_c, 9, 59, 0
4, 761025, Note_on_c, 9, 36, 0
4, 761297, Note_on_c, 9, 36, 30
4, 761323, Note_on_c, 9, 59, 68
4, 761628, Note_on_c, 9, 59, 0
4, 761657, Note_on_c, 9, 36, 0
4, 762219, Note_on_c, 9, 59, 76
4, 762521, Note_on_c, 9, 59, 0
4, 762678, Note_on_c, 9, 45, 37
4, 763007, Note_on_c, 9, 45, 0
4, 763191, Note_on_c, 9, 59, 62
4, 763233, Note_on_c, 9, 36, 16
4, 763303, Note_on_c, 9, 59, 0
4, 763353, Note_on_c, 9, 36, 0
4, 763692, Note_on_c, 9, 36, 28
4, 763720, Note_on_c, 9, 59, 63
4, 763859, Note_on_c, 9, 59, 0
4, 763959, Note_on_c, 9, 36, 0
4, 764188, Note_on_c, 9, 36, 33
4, 764266, Note_on_c, 9, 59, 47
4, 764392, Note_on_c, 9, 59, 0
4, 764663, Note_on_c, 9, 44, 56
4, 764721, Note_on_c, 9, 36, 0
4, 764923, Note_on_c, 9, 44, 0
4, 765617, Note_on_c, 9, 59, 56
4, 765893, Note_on_c, 9, 59, 0
4, 766096, Note_on_c, 9, 59, 62
4, 766661, Note_on_c, 9, 59, 0
4, 766674, Note_on_c, 9, 44, 60
4, 766934, Note_on_c, 9, 44, 0
4, 767122, Note_on_c, 9, 59, 64
4, 767295, Note_on_c, 9, 59, 0
4, 767611, Note_on_c, 9, 44, 80
4, 767931, Note_on_c, 9, 44, 0
4, 768067, Note_on_c, 9, 37, 40
4, 768097, Note_on_c, 9, 59, 41
4, 768195, Note_on_c, 9, 37, 0
4, 768260, Note_on_c, 9, 59, 0
4, 768567, Note_on_c, 9, 37, 36
4, 768576, Note_on_c, 9, 59, 60
4, 768737, Note_on_c, 9, 37, 0
4, 768784, Note_on_c, 9, 59, 0
4, 769024, Note_on_c, 9, 59, 62
4, 769049, Note_on_c, 9, 37, 27
4, 769323, Note_on_c, 9, 37, 0
4, 769358, Note_on_c, 9, 59, 0
4, 769463, Note_on_c, 9, 44, 64
4, 769495, Note_on_c, 9, 37, 32
4, 769734, Note_on_c, 9, 44, 0
4, 769804, Note_on_c, 9, 37, 0
4, 769936, Note_on_c, 9, 59, 61
4, 769971, Note_on_c, 9, 37, 31
4, 770169, Note_on_c, 9, 59, 0
4, 770409, Note_on_c, 9, 37, 0
4, 770433, Note_on_c, 9, 59, 55
4, 770486, Note_on_c, 9, 36, 30
4, 770601, Note_on_c, 9, 59, 0
4, 770711, Note_on_c, 9, 36, 0
4, 770937, Note_on_c, 9, 59, 70
4, 770943, Note_on_c, 9, 36, 24
4, 771214, Note_on_c, 9, 36, 0
4, 771325, Note_on_c, 9, 59, 0
4, 771430, Note_on_c, 9, 36, 42
4, 771947, Note_on_c, 9, 36, 0
4, 772344, Note_on_c, 9, 59, 68
4, 772478, Note_on_c, 9, 59, 0
4, 772863, Note_on_c, 9, 59, 40
4, 773110, Note_on_c, 9, 59, 0
4, 773307, Note_on_c, 9, 59, 70
4, 773412, Note_on_c, 9, 59, 0
4, 773858, Note_on_c, 9, 59, 64
4, 774172, Note_on_c, 9, 59, 0
4, 774332, Note_on_c, 9, 37, 40
4, 774623, Note_on_c, 9, 37, 0
4, 775279, Note_on_c, 9, 36, 30
4, 775292, Note_on_c, 9, 59, 66
4, 775386, Note_on_c, 9, 59, 0
4, 775441, Note_on_c, 9, 36, 0
4, 775751, Note_on_c, 9, 59, 55
4, 775758, Note_on_c, 9, 36, 29
4, 775977, Note_on_c, 9, 36, 0
4, 776253, Note_on_c, 9, 59, 0
4, 776656, Note_on_c, 9, 59, 53
4, 776783, Note_on_c, 9, 59, 0
4, 777209, Note_on_c, 9, 59, 65
4, 777303, Note_on_c, 9, 59, 0
4, 777713, Note_on_c, 9, 59, 74
4, 778101, Note_on_c, 9, 59, 0
4, 778148, Note_on_c, 9, 37, 19
4, 778244, Note_on_c, 9, 37, 0
4, 778562, Note_on_c, 9, 59, 62
4, 778649, Note_on_c, 9, 59, 0
4, 779075, Note_on_c, 9, 59, 67
4, 779095, Note_on_c, 9, 64, 40
4, 779635, Note_on_c, 9, 59, 0
4, 780007, Note_on_c, 9, 59, 64
4, 780083, Note_on_c, 9, 53, 57
4, 780139, Note_on_c, 9, 64, 0
4, 780401, Note_on_c, 9, 53, 0
4, 780410, Note_on_c, 9, 59, 0
4, 780503, Note_on_c, 9, 63, 25
4, 780891, Note_on_c, 9, 63, 0
4, 780966, Note_on_c, 9, 59, 49
4, 781036, Note_on_c, 9, 63, 31
4, 781084, Note_on_c, 9, 59, 0
4, 781366, Note_on_c, 9, 63, 0
4, 781579, Note_on_c, 9, 59, 76
4, 781615, Note_on_c, 9, 53, 62
4, 782034, Note_on_c, 9, 59, 0
4, 782054, Note_on_c, 9, 36, 24
4, 782140, Note_on_c, 9, 36, 0
4, 782271, Note_on_c, 9, 53, 0
4, 782455, Note_on_c, 9, 59, 56
4, 782476, Note_on_c, 9, 64, 26
4, 782697, Note_on_c, 9, 59, 0
4, 782859, Note_on_c, 9, 64, 0
4, 782940, Note_on_c, 9, 64, 37
4, 782966, Note_on_c, 9, 59, 74
4, 783011, Note_on_c, 9, 53, 67
4, 783313, Note_on_c, 9, 53, 0
4, 783416, Note_on_c, 9, 59, 0
4, 783927, Note_on_c, 9, 59, 65
4, 783956, Note_on_c, 9, 64, 0
4, 783966, Note_on_c, 9, 37, 15
4, 784030, Note_on_c, 9, 59, 0
4, 784039, Note_on_c, 9, 37, 0
4, 784371, Note_on_c, 9, 63, 26
4, 784429, Note_on_c, 9, 59, 74
4, 784742, Note_on_c, 9, 63, 0
4, 784878, Note_on_c, 9, 63, 38
4, 784892, Note_on_c, 9, 59, 0
4, 785340, Note_on_c, 9, 59, 62
4, 785582, Note_on_c, 9, 59, 0
4, 785743, Note_on_c, 9, 63, 0
4, 785873, Note_on_c, 9, 59, 64
4, 786053, Note_on_c, 9, 59, 0
4, 786781, Note_on_c, 9, 59, 64
4, 786933, Note_on_c, 9, 59, 0
4, 787287, Note_on_c, 9, 59, 76
4, 787811, Note_on_c, 9, 59, 0
4, 788216, Note_on_c, 9, 59, 62
4, 788324, Note_on_c, 9, 59, 0
4, 788734, Note_on_c, 9, 59, 81
4, 788765, Note_on_c, 9, 53, 76
4, 788931, Note_on_c, 9, 59, 0
4, 789177, Note_on_c, 9, 53, 0
4, 789630, Note_on_c, 9, 59, 70
4, 789858, Note_on_c, 9, 59, 0
4, 790134, Note_on_c, 9, 51, 80
4, 790174, Note_on_c, 9, 59, 73
4, 790347, Note_on_c, 9, 59, 0
4, 790499, Note_on_c, 9, 51, 0
4, 790553, Note_on_c, 9, 36, 29
4, 790756, Note_on_c, 9, 36, 0
4, 791016, Note_on_c, 9, 59, 64
4, 791035, Note_on_c, 9, 36, 23
4, 791283, Note_on_c, 9, 59, 0
4, 791364, Note_on_c, 9, 36, 0
4, 791507, Note_on_c, 9, 59, 59
4, 791765, Note_on_c, 9, 59, 0
4, 792468, Note_on_c, 9, 59, 70
4, 792515, Note_on_c, 9, 36, 24
4, 792667, Note_on_c, 9, 59, 0
4, 792695, Note_on_c, 9, 36, 0
4, 792981, Note_on_c, 9, 59, 76
4, 793017, Note_on_c, 9, 36, 19
4, 793246, Note_on_c, 9, 36, 0
4, 793420, Note_on_c, 9, 59, 0
4, 793814, Note_on_c, 9, 59, 53
4, 793920, Note_on_c, 9, 59, 0
4, 794403, Note_on_c, 9, 36, 25
4, 794410, Note_on_c, 9, 59, 71
4, 794534, Note_on_c, 9, 36, 0
4, 794576, Note_on_c, 9, 59, 0
4, 794895, Note_on_c, 9, 36, 18
4, 794912, Note_on_c, 9, 59, 84
4, 795078, Note_on_c, 9, 36, 0
4, 795379, Note_on_c, 9, 37, 46
4, 795526, Note_on_c, 9, 59, 0
4, 795655, Note_on_c, 9, 37, 0
4, 795833, Note_on_c, 9, 36, 17
4, 795959, Note_on_c, 9, 36, 0
4, 796359, Note_on_c, 9, 59, 65
4, 796377, Note_on_c, 9, 36, 23
4, 796487, Note_on_c, 9, 36, 0
4, 796489, Note_on_c, 9, 59, 0
4, 796865, Note_on_c, 9, 59, 76
4, 796886, Note_on_c, 9, 36, 23
4, 797148, Note_on_c, 9, 36, 0
4, 797517, Note_on_c, 9, 59, 0
4, 798321, Note_on_c, 9, 59, 67
4, 798500, Note_on_c, 9, 59, 0
4, 798756, Note_on_c, 9, 59, 59
4, 798995, Note_on_c, 9, 59, 0
4, 799292, Note_on_c, 9, 37, 31
4, 799352, Note_on_c, 9, 53, 61
4, 799526, Note_on_c, 9, 37, 0
4, 799562, Note_on_c, 9, 53, 0
4, 799817, Note_on_c, 9, 36, 17
4, 799912, Note_on_c, 9, 59, 37
4, 799964, Note_on_c, 9, 36, 0
4, 800037, Note_on_c, 9, 59, 0
4, 800275, Note_on_c, 9, 36, 27
4, 800348, Note_on_c, 9, 59, 67
4, 800452, Note_on_c, 9, 36, 0
4, 800581, Note_on_c, 9, 59, 0
4, 800780, Note_on_c, 9, 36, 25
4, 800868, Note_on_c, 9, 53, 82
4, 800980, Note_on_c, 9, 36, 0
4, 801269, Note_on_c, 9, 53, 0
4, 801453, Note_on_c, 9, 59, 64
4, 801531, Note_on_c, 9, 59, 0
4, 802344, Note_on_c, 9, 59, 85
4, 802985, Note_on_c, 9, 59, 0
4, 803328, Note_on_c, 9, 59, 65
4, 803480, Note_on_c, 9, 59, 0
4, 803778, Note_on_c, 9, 59, 64
4, 804114, Note_on_c, 9, 59, 0
4, 804232, Note_on_c, 9, 53, 60
4, 804423, Note_on_c, 9, 53, 0
4, 804556, Note_on_c, 9, 45, 30
4, 804641, Note_on_c, 9, 45, 0
4, 804694, Note_on_c, 9, 59, 62
4, 804787, Note_on_c, 9, 45, 22
4, 804833, Note_on_c, 9, 59, 0
4, 804891, Note_on_c, 9, 45, 0
4, 805223, Note_on_c, 9, 59, 67
4, 805312, Note_on_c, 9, 59, 0
4, 805626, Note_on_c, 9, 59, 65
4, 805877, Note_on_c, 9, 59, 0
4, 805939, Note_on_c, 9, 37, 40
4, 806101, Note_on_c, 9, 59, 67
4, 806217, Note_on_c, 9, 59, 0
4, 806255, Note_on_c, 9, 37, 0
4, 806473, Note_on_c, 9, 36, 22
4, 806560, Note_on_c, 9, 59, 80
4, 806779, Note_on_c, 9, 36, 0
4, 806936, Note_on_c, 9, 59, 0
4, 807420, Note_on_c, 9, 59, 40
4, 807532, Note_on_c, 9, 59, 0
4, 807886, Note_on_c, 9, 59, 77
4, 808352, Note_on_c, 9, 59, 0
4, 808829, Note_on_c, 9, 59, 58
4, 808930, Note_on_c, 9, 59, 0
4, 809266, Note_on_c, 9, 59, 61
4, 809550, Note_on_c, 9, 59, 0
4, 809776, Note_on_c, 9, 53, 70
4, 809969, Note_on_c, 9, 53, 0
4, 810139, Note_on_c, 9, 37, 27
4, 810222, Note_on_c, 9, 37, 0
4, 810272, Note_on_c, 9, 59, 54
4, 810367, Note_on_c, 9, 37, 30
4, 810399, Note_on_c, 9, 59, 0
4, 810443, Note_on_c, 9, 37, 0
4, 810820, Note_on_c, 9, 59, 46
4, 810921, Note_on_c, 9, 59, 0
4, 811105, Note_on_c, 9, 37, 33
4, 811300, Note_on_c, 9, 59, 99
4, 811543, Note_on_c, 9, 37, 0
4, 811646, Note_on_c, 9, 36, 23
4, 811764, Note_on_c, 9, 36, 0
4, 811826, Note_on_c, 9, 59, 0
4, 812147, Note_on_c, 9, 36, 28
4, 812267, Note_on_c, 9, 59, 80
4, 812292, Note_on_c, 9, 36, 0
4, 812695, Note_on_c, 9, 36, 26
4, 812835, Note_on_c, 9, 36, 0
4, 812904, Note_on_c, 9, 59, 0
4, 813248, Note_on_c, 9, 59, 78
4, 813439, Note_on_c, 9, 59, 0
4, 814252, Note_on_c, 9, 59, 77
4, 814743, Note_on_c, 9, 59, 0
4, 815193, Note_on_c, 9, 59, 69
4, 815417, Note_on_c, 9, 59, 0
4, 815726, Note_on_c, 9, 59, 70
4, 816040, Note_on_c, 9, 59, 0
4, 816660, Note_on_c, 9, 59, 62
4, 816850, Note_on_c, 9, 59, 0
4, 817063, Note_on_c, 9, 59, 64
4, 817348, Note_on_c, 9, 59, 0
4, 817518, Note_on_c, 9, 44, 64
4, 817666, Note_on_c, 9, 44, 0
4, 817993, Note_on_c, 9, 59, 61
4, 818112, Note_on_c, 9, 59, 0
4, 818447, Note_on_c, 9, 40, 23
4, 818512, Note_on_c, 9, 59, 62
4, 818579, Note_on_c, 9, 40, 0
4, 818633, Note_on_c, 9, 59, 0
4, 819012, Note_on_c, 9, 59, 61
4, 819252, Note_on_c, 9, 59, 0
4, 819401, Note_on_c, 9, 40, 27
4, 819438, Note_on_c, 9, 44, 44
4, 819604, Note_on_c, 9, 40, 0
4, 819639, Note_on_c, 9, 44, 0
4, 819944, Note_on_c, 9, 59, 47
4, 820208, Note_on_c, 9, 59, 0
4, 820457, Note_on_c, 9, 44, 67
4, 820685, Note_on_c, 9, 44, 0
4, 820940, Note_on_c, 9, 36, 22
4, 820972, Note_on_c, 9, 59, 55
4, 821036, Note_on_c, 9, 36, 0
4, 821068, Note_on_c, 9, 59, 0
4, 821369, Note_on_c, 9, 36, 28
4, 821494, Note_on_c, 9, 59, 51
4, 821595, Note_on_c, 9, 59, 0
4, 821623, Note_on_c, 9, 36, 0
4, 821851, Note_on_c, 9, 36, 25
4, 821953, Note_on_c, 9, 59, 75
4, 822095, Note_on_c, 9, 36, 0
4, 822466, Note_on_c, 9, 59, 0
4, 823281, Note_on_c, 9, 40, 33
4, 823340, Note_on_c, 9, 59, 95
4, 823401, Note_on_c, 9, 40, 0
4, 823734, Note_on_c, 9, 59, 0
4, 824215, Note_on_c, 9, 40, 31
4, 824267, Note_on_c, 9, 59, 59
4, 824354, Note_on_c, 9, 59, 0
4, 824380, Note_on_c, 9, 40, 0
4, 824720, Note_on_c, 9, 59, 99
4, 824759, Note_on_c, 9, 36, 17
4, 824878, Note_on_c, 9, 36, 0
4, 825236, Note_on_c, 9, 36, 19
4, 825304, Note_on_c, 9, 59, 0
4, 825379, Note_on_c, 9, 36, 0
4, 825710, Note_on_c, 9, 36, 29
4, 825725, Note_on_c, 9, 59, 33
4, 825826, Note_on_c, 9, 59, 0
4, 825833, Note_on_c, 9, 36, 0
4, 826164, Note_on_c, 9, 59, 91
4, 826460, Note_on_c, 9, 59, 0
4, 827114, Note_on_c, 9, 59, 60
4, 827206, Note_on_c, 9, 59, 0
4, 827544, Note_on_c, 9, 59, 69
4, 828004, Note_on_c, 9, 45, 36
4, 828247, Note_on_c, 9, 45, 0
4, 828716, Note_on_c, 9, 59, 0
4, 829011, Note_on_c, 9, 59, 48
4, 829019, Note_on_c, 9, 36, 29
4, 829126, Note_on_c, 9, 36, 0
4, 829155, Note_on_c, 9, 59, 0
4, 829464, Note_on_c, 9, 59, 68
4, 829508, Note_on_c, 9, 36, 25
4, 829727, Note_on_c, 9, 36, 0
4, 830828, Note_on_c, 9, 59, 0
4, 830926, Note_on_c, 9, 40, 27
4, 830929, Note_on_c, 9, 59, 45
4, 831052, Note_on_c, 9, 40, 0
4, 831166, Note_on_c, 9, 59, 0
4, 831381, Note_on_c, 9, 59, 64
4, 831860, Note_on_c, 9, 40, 29
4, 831974, Note_on_c, 9, 40, 0
4, 832595, Note_on_c, 9, 59, 0
4, 832824, Note_on_c, 9, 59, 65
4, 832833, Note_on_c, 9, 36, 19
4, 832982, Note_on_c, 9, 36, 0
4, 833041, Note_on_c, 9, 59, 0
4, 833292, Note_on_c, 9, 59, 58
4, 833361, Note_on_c, 9, 36, 27
4, 833478, Note_on_c, 9, 36, 0
4, 833536, Note_on_c, 9, 59, 0
4, 833825, Note_on_c, 9, 53, 64
4, 834051, Note_on_c, 9, 53, 0
4, 834777, Note_on_c, 9, 40, 42
4, 834806, Note_on_c, 9, 53, 76
4, 834990, Note_on_c, 9, 40, 0
4, 835030, Note_on_c, 9, 53, 0
4, 835737, Note_on_c, 9, 36, 31
4, 835825, Note_on_c, 9, 36, 0
4, 835841, Note_on_c, 9, 53, 79
4, 836023, Note_on_c, 9, 53, 0
4, 836251, Note_on_c, 9, 40, 25
4, 836379, Note_on_c, 9, 53, 76
4, 836509, Note_on_c, 9, 53, 0
4, 836526, Note_on_c, 9, 40, 0
4, 836777, Note_on_c, 9, 36, 20
4, 836831, Note_on_c, 9, 53, 64
4, 836852, Note_on_c, 9, 36, 0
4, 837105, Note_on_c, 9, 53, 0
4, 837252, Note_on_c, 9, 49, 15
4, 837297, Note_on_c, 9, 36, 25
4, 837329, Note_on_c, 9, 51, 64
4, 837909, Note_on_c, 9, 51, 0
4, 838175, Note_on_c, 9, 49, 0
4, 838614, Note_on_c, 9, 51, 64
4, 838744, Note_on_c, 9, 51, 0
4, 839174, Note_on_c, 9, 51, 67
4, 839647, Note_on_c, 9, 51, 0
4, 840363, Note_on_c, 9, 36, 0
4, 840516, Note_on_c, 9, 51, 46
4, 840633, Note_on_c, 9, 51, 0
4, 841020, Note_on_c, 9, 51, 55
4, 841096, Note_on_c, 9, 51, 0
4, 841535, Note_on_c, 9, 51, 68
4, 841620, Note_on_c, 9, 51, 0
4, 842039, Note_on_c, 9, 51, 70
4, 842333, Note_on_c, 9, 51, 0
4, 842949, Note_on_c, 9, 51, 56
4, 843067, Note_on_c, 9, 51, 0
4, 843480, Note_on_c, 9, 51, 62
4, 843556, Note_on_c, 9, 51, 0
4, 843963, Note_on_c, 9, 51, 84
4, 844405, Note_on_c, 9, 51, 0
4, 845359, Note_on_c, 9, 51, 55
4, 845471, Note_on_c, 9, 51, 0
4, 846320, Note_on_c, 9, 51, 54
4, 846414, Note_on_c, 9, 51, 0
4, 846788, Note_on_c, 9, 51, 55
4, 847234, Note_on_c, 9, 51, 0
4, 847279, Note_on_c, 9, 40, 23
4, 847399, Note_on_c, 9, 40, 0
4, 848228, Note_on_c, 9, 51, 44
4, 848270, Note_on_c, 9, 36, 21
4, 848345, Note_on_c, 9, 51, 0
4, 848435, Note_on_c, 9, 36, 0
4, 848737, Note_on_c, 9, 51, 50
4, 848785, Note_on_c, 9, 36, 17
4, 849188, Note_on_c, 9, 36, 0
4, 849754, Note_on_c, 9, 51, 0
4, 850200, Note_on_c, 9, 51, 47
4, 850241, Note_on_c, 9, 36, 16
4, 850332, Note_on_c, 9, 51, 0
4, 850350, Note_on_c, 9, 36, 0
4, 850641, Note_on_c, 9, 51, 37
4, 850689, Note_on_c, 9, 36, 24
4, 850844, Note_on_c, 9, 36, 0
4, 850898, Note_on_c, 9, 51, 0
4, 851176, Note_on_c, 9, 59, 55
4, 851862, Note_on_c, 9, 59, 0
4, 852083, Note_on_c, 9, 51, 48
4, 852189, Note_on_c, 9, 51, 0
4, 852581, Note_on_c, 9, 59, 57
4, 853262, Note_on_c, 9, 59, 0
4, 853466, Note_on_c, 9, 51, 39
4, 853600, Note_on_c, 9, 51, 0
4, 853990, Note_on_c, 9, 59, 46
4, 854615, Note_on_c, 9, 59, 0
4, 854906, Note_on_c, 9, 51, 47
4, 855018, Note_on_c, 9, 51, 0
4, 855379, Note_on_c, 9, 62, 20
4, 855403, Note_on_c, 9, 59, 46
4, 855667, Note_on_c, 9, 62, 0
4, 855839, Note_on_c, 9, 62, 25
4, 856019, Note_on_c, 9, 59, 0
4, 856203, Note_on_c, 9, 62, 0
4, 856353, Note_on_c, 9, 51, 33
4, 856512, Note_on_c, 9, 51, 0
4, 857243, Note_on_c, 9, 64, 21
4, 857598, Note_on_c, 9, 64, 0
4, 857748, Note_on_c, 9, 51, 54
4, 857764, Note_on_c, 9, 64, 25
4, 857831, Note_on_c, 9, 51, 0
4, 858250, Note_on_c, 9, 51, 48
4, 858295, Note_on_c, 9, 64, 0
4, 858676, Note_on_c, 9, 51, 0
4, 860138, Note_on_c, 9, 51, 50
4, 860815, Note_on_c, 9, 51, 0
4, 861606, Note_on_c, 9, 51, 50
4, 861762, Note_on_c, 9, 51, 0
4, 862098, Note_on_c, 9, 51, 43
4, 862376, Note_on_c, 9, 51, 0
4, 862576, Note_on_c, 9, 44, 46
4, 862898, Note_on_c, 9, 44, 0
4, 863073, Note_on_c, 9, 62, 18
4, 863086, Note_on_c, 9, 63, 17
4, 863324, Note_on_c, 9, 63, 0
4, 863375, Note_on_c, 9, 62, 0
4, 863505, Note_on_c, 9, 51, 49
4, 863564, Note_on_c, 9, 63, 29
4, 863591, Note_on_c, 9, 62, 22
4, 863649, Note_on_c, 9, 51, 0
4, 863788, Note_on_c, 9, 63, 0
4, 863830, Note_on_c, 9, 62, 0
4, 864014, Note_on_c, 9, 51, 46
4, 865028, Note_on_c, 9, 64, 21
4, 865096, Note_on_c, 9, 51, 0
4, 865203, Note_on_c, 9, 64, 0
4, 865458, Note_on_c, 9, 51, 50
4, 865503, Note_on_c, 9, 64, 25
4, 865629, Note_on_c, 9, 51, 0
4, 865652, Note_on_c, 9, 64, 0
4, 865956, Note_on_c, 9, 51, 42
4, 866883, Note_on_c, 9, 44, 58
4, 866953, Note_on_c, 9, 63, 18
4, 866969, Note_on_c, 9, 62, 21
4, 866970, Note_on_c, 9, 51, 0
4, 867063, Note_on_c, 9, 63, 0
4, 867100, Note_on_c, 9, 62, 0
4, 867197, Note_on_c, 9, 44, 0
4, 867398, Note_on_c, 9, 63, 42
4, 867399, Note_on_c, 9, 62, 36
4, 867639, Note_on_c, 9, 63, 0
4, 867798, Note_on_c, 9, 62, 0
4, 867857, Note_on_c, 9, 51, 53
4, 868543, Note_on_c, 9, 51, 0
4, 868961, Note_on_c, 9, 64, 2
4, 869092, Note_on_c, 9, 64, 0
4, 869319, Note_on_c, 9, 64, 25
4, 869331, Note_on_c, 9, 51, 48
4, 869411, Note_on_c, 9, 64, 0
4, 869441, Note_on_c, 9, 51, 0
4, 869793, Note_on_c, 9, 51, 53
4, 870929, Note_on_c, 9, 51, 0
4, 871170, Note_on_c, 9, 51, 47
4, 871368, Note_on_c, 9, 51, 0
4, 871679, Note_on_c, 9, 51, 46
4, 872251, Note_on_c, 9, 62, 19
4, 872252, Note_on_c, 9, 63, 20
4, 872348, Note_on_c, 9, 62, 0
4, 872385, Note_on_c, 9, 63, 0
4, 872497, Note_on_c, 9, 51, 0
4, 872631, Note_on_c, 9, 44, 46
4, 873041, Note_on_c, 9, 44, 0
4, 873083, Note_on_c, 9, 62, 29
4, 873086, Note_on_c, 9, 63, 25
4, 873361, Note_on_c, 9, 62, 0
4, 873457, Note_on_c, 9, 63, 0
4, 873812, Note_on_c, 9, 62, 23
4, 873844, Note_on_c, 9, 63, 26
4, 874035, Note_on_c, 9, 62, 0
4, 874113, Note_on_c, 9, 63, 0
4, 874116, Note_on_c, 9, 51, 47
4, 874255, Note_on_c, 9, 51, 0
4, 874491, Note_on_c, 9, 62, 17
4, 874507, Note_on_c, 9, 63, 31
4, 874557, Note_on_c, 9, 51, 51
4, 874636, Note_on_c, 9, 62, 0
4, 874743, Note_on_c, 9, 63, 0
4, 875012, Note_on_c, 9, 51, 0
4, 875552, Note_on_c, 9, 51, 55
4, 876703, Note_on_c, 9, 51, 0
4, 876959, Note_on_c, 9, 51, 43
4, 877077, Note_on_c, 9, 51, 0
4, 877391, Note_on_c, 9, 51, 46
4, 877763, Note_on_c, 9, 51, 0
4, 878468, Note_on_c, 9, 51, 41
4, 878477, Note_on_c, 9, 53, 55
4, 878942, Note_on_c, 9, 36, 21
4, 879071, Note_on_c, 9, 36, 0
4, 879472, Note_on_c, 9, 51, 0
4, 879492, Note_on_c, 9, 36, 19
4, 879512, Note_on_c, 9, 53, 0
4, 879815, Note_on_c, 9, 36, 0
4, 879938, Note_on_c, 9, 51, 46
4, 879969, Note_on_c, 9, 53, 43
4, 880581, Note_on_c, 9, 51, 0
4, 880612, Note_on_c, 9, 53, 0
4, 881430, Note_on_c, 9, 51, 53
4, 881486, Note_on_c, 9, 53, 51
4, 882061, Note_on_c, 9, 51, 0
4, 882099, Note_on_c, 9, 53, 0
4, 882413, Note_on_c, 9, 51, 53
4, 882597, Note_on_c, 9, 51, 0
4, 882771, Note_on_c, 9, 37, 26
4, 882910, Note_on_c, 9, 51, 64
4, 882924, Note_on_c, 9, 53, 58
4, 883036, Note_on_c, 9, 37, 0
4, 883283, Note_on_c, 9, 36, 16
4, 883421, Note_on_c, 9, 51, 0
4, 883455, Note_on_c, 9, 36, 0
4, 883466, Note_on_c, 9, 53, 0
4, 883727, Note_on_c, 9, 36, 27
4, 883753, Note_on_c, 9, 44, 50
4, 883911, Note_on_c, 9, 36, 0
4, 883921, Note_on_c, 9, 44, 0
4, 884212, Note_on_c, 9, 36, 24
4, 884524, Note_on_c, 9, 36, 0
4, 884673, Note_on_c, 9, 44, 57
4, 884868, Note_on_c, 9, 44, 0
4, 885177, Note_on_c, 9, 51, 53
4, 885242, Note_on_c, 9, 53, 39
4, 885748, Note_on_c, 9, 51, 0
4, 885757, Note_on_c, 9, 53, 0
4, 886145, Note_on_c, 9, 51, 44
4, 886149, Note_on_c, 9, 53, 48
4, 886656, Note_on_c, 9, 51, 0
4, 886709, Note_on_c, 9, 53, 0
4, 887487, Note_on_c, 9, 51, 53
4, 887591, Note_on_c, 9, 37, 18
4, 887648, Note_on_c, 9, 51, 0
4, 887695, Note_on_c, 9, 37, 0
4, 887937, Note_on_c, 9, 51, 48
4, 888441, Note_on_c, 9, 51, 0
4, 888449, Note_on_c, 9, 37, 31
4, 888641, Note_on_c, 9, 37, 0
4, 888900, Note_on_c, 9, 51, 51
4, 888945, Note_on_c, 9, 37, 26
4, 889255, Note_on_c, 9, 37, 0
4, 889462, Note_on_c, 9, 36, 17
4, 889595, Note_on_c, 9, 36, 0
4, 889695, Note_on_c, 9, 51, 0
4, 889905, Note_on_c, 9, 36, 23
4, 890070, Note_on_c, 9, 36, 0
4, 890394, Note_on_c, 9, 51, 47
4, 890398, Note_on_c, 9, 36, 26
4, 890506, Note_on_c, 9, 51, 0
4, 890601, Note_on_c, 9, 36, 0
4, 890894, Note_on_c, 9, 51, 49
4, 891293, Note_on_c, 9, 51, 0
4, 891393, Note_on_c, 9, 37, 23
4, 891494, Note_on_c, 9, 59, 46
4, 891502, Note_on_c, 9, 37, 0
4, 891523, Note_on_c, 9, 51, 52
4, 891799, Note_on_c, 9, 59, 0
4, 891808, Note_on_c, 9, 51, 0
4, 891835, Note_on_c, 9, 37, 21
4, 892118, Note_on_c, 9, 37, 0
4, 892377, Note_on_c, 9, 51, 42
4, 892513, Note_on_c, 9, 51, 0
4, 892937, Note_on_c, 9, 59, 54
4, 892979, Note_on_c, 9, 51, 46
4, 893369, Note_on_c, 9, 37, 23
4, 893396, Note_on_c, 9, 51, 0
4, 893411, Note_on_c, 9, 59, 0
4, 893585, Note_on_c, 9, 37, 0
4, 893889, Note_on_c, 9, 51, 32
4, 894039, Note_on_c, 9, 51, 0
4, 894084, Note_on_c, 9, 37, 24
4, 894342, Note_on_c, 9, 37, 0
4, 894395, Note_on_c, 9, 59, 63
4, 894484, Note_on_c, 9, 51, 51
4, 894743, Note_on_c, 9, 37, 28
4, 894764, Note_on_c, 9, 51, 0
4, 894800, Note_on_c, 9, 59, 0
4, 895132, Note_on_c, 9, 37, 0
4, 895374, Note_on_c, 9, 51, 42
4, 895476, Note_on_c, 9, 37, 19
4, 895501, Note_on_c, 9, 51, 0
4, 895631, Note_on_c, 9, 37, 0
4, 895813, Note_on_c, 9, 59, 64
4, 895842, Note_on_c, 9, 51, 51
4, 896084, Note_on_c, 9, 37, 27
4, 896366, Note_on_c, 9, 37, 0
4, 896386, Note_on_c, 9, 59, 0
4, 896444, Note_on_c, 9, 51, 0
4, 896734, Note_on_c, 9, 37, 29
4, 897006, Note_on_c, 9, 37, 0
4, 897260, Note_on_c, 9, 51, 55
4, 897262, Note_on_c, 9, 59, 62
4, 897427, Note_on_c, 9, 37, 23
4, 897497, Note_on_c, 9, 59, 0
4, 897517, Note_on_c, 9, 51, 0
4, 897603, Note_on_c, 9, 37, 0
4, 898057, Note_on_c, 9, 37, 31
4, 898136, Note_on_c, 9, 51, 64
4, 898140, Note_on_c, 9, 37, 0
4, 898243, Note_on_c, 9, 51, 0
4, 898343, Note_on_c, 9, 37, 42
4, 898513, Note_on_c, 9, 37, 0
4, 898662, Note_on_c, 9, 51, 57
4, 898708, Note_on_c, 9, 36, 31
4, 898985, Note_on_c, 9, 36, 0
4, 899005, Note_on_c, 9, 51, 0
4, 900066, Note_on_c, 9, 51, 51
4, 900183, Note_on_c, 9, 51, 0
4, 900597, Note_on_c, 9, 51, 52
4, 900958, Note_on_c, 9, 51, 0
4, 900967, Note_on_c, 9, 37, 32
4, 901079, Note_on_c, 9, 37, 0
4, 901931, Note_on_c, 9, 36, 20
4, 902031, Note_on_c, 9, 51, 47
4, 902079, Note_on_c, 9, 36, 0
4, 902123, Note_on_c, 9, 51, 0
4, 902374, Note_on_c, 9, 36, 26
4, 902513, Note_on_c, 9, 51, 51
4, 902582, Note_on_c, 9, 36, 0
4, 902914, Note_on_c, 9, 51, 0
4, 904016, Note_on_c, 9, 51, 47
4, 904114, Note_on_c, 9, 51, 0
4, 904482, Note_on_c, 9, 51, 46
4, 904609, Note_on_c, 9, 51, 0
4, 905315, Note_on_c, 9, 53, 62
4, 905633, Note_on_c, 9, 53, 0
4, 906213, Note_on_c, 9, 51, 30
4, 906359, Note_on_c, 9, 51, 0
4, 906742, Note_on_c, 9, 51, 44
4, 906887, Note_on_c, 9, 51, 0
4, 907134, Note_on_c, 9, 51, 46
4, 907389, Note_on_c, 9, 51, 0
4, 908137, Note_on_c, 9, 51, 55
4, 908442, Note_on_c, 9, 51, 0
4, 908635, Note_on_c, 9, 36, 24
4, 908742, Note_on_c, 9, 36, 0
4, 909555, Note_on_c, 9, 51, 48
4, 909757, Note_on_c, 9, 51, 0
4, 910075, Note_on_c, 9, 51, 39
4, 910256, Note_on_c, 9, 51, 0
4, 911650, Note_on_c, 9, 51, 59
4, 911654, Note_on_c, 9, 53, 52
4, 911788, Note_on_c, 9, 51, 0
4, 911797, Note_on_c, 9, 53, 0
4, 912178, Note_on_c, 9, 51, 40
4, 912185, Note_on_c, 9, 53, 50
4, 912611, Note_on_c, 9, 53, 0
4, 912644, Note_on_c, 9, 51, 0
4, 913023, Note_on_c, 9, 51, 50
4, 913094, Note_on_c, 9, 36, 26
4, 913126, Note_on_c, 9, 51, 0
4, 913246, Note_on_c, 9, 36, 0
4, 913611, Note_on_c, 9, 36, 25
4, 913614, Note_on_c, 9, 51, 56
4, 913800, Note_on_c, 9, 51, 0
4, 913947, Note_on_c, 9, 36, 0
4, 914053, Note_on_c, 9, 51, 51
4, 914472, Note_on_c, 9, 51, 0
4, 914933, Note_on_c, 9, 51, 60
4, 915272, Note_on_c, 9, 51, 0
4, 915885, Note_on_c, 9, 51, 57
4, 916183, Note_on_c, 9, 51, 0
4, 916276, Note_on_c, 9, 37, 25
4, 916566, Note_on_c, 9, 37, 0
4, 916788, Note_on_c, 9, 36, 18
4, 916929, Note_on_c, 9, 36, 0
4, 917201, Note_on_c, 9, 36, 31
4, 917259, Note_on_c, 9, 51, 45
4, 917359, Note_on_c, 9, 51, 0
4, 917431, Note_on_c, 9, 36, 0
4, 917727, Note_on_c, 9, 51, 49
4, 917753, Note_on_c, 9, 36, 19
4, 917859, Note_on_c, 9, 36, 0
4, 918307, Note_on_c, 9, 51, 0
4, 919167, Note_on_c, 9, 51, 43
4, 919281, Note_on_c, 9, 51, 0
4, 919644, Note_on_c, 9, 51, 41
4, 920061, Note_on_c, 9, 51, 0
4, 920061, Note_on_c, 9, 44, 58
4, 920406, Note_on_c, 9, 44, 0
4, 921042, Note_on_c, 9, 51, 54
4, 921237, Note_on_c, 9, 51, 0
4, 921537, Note_on_c, 9, 51, 46
4, 922007, Note_on_c, 9, 51, 0
4, 922057, Note_on_c, 9, 44, 47
4, 922272, Note_on_c, 9, 44, 0
4, 923044, Note_on_c, 9, 51, 46
4, 923183, Note_on_c, 9, 51, 0
4, 923526, Note_on_c, 9, 51, 39
4, 923660, Note_on_c, 9, 51, 0
4, 924030, Note_on_c, 9, 44, 33
4, 924061, Note_on_c, 9, 51, 46
4, 924164, Note_on_c, 9, 51, 0
4, 924177, Note_on_c, 9, 44, 0
4, 924932, Note_on_c, 9, 37, 30
4, 924933, Note_on_c, 9, 59, 60
4, 925022, Note_on_c, 9, 59, 0
4, 925043, Note_on_c, 9, 37, 0
4, 925495, Note_on_c, 9, 59, 45
4, 925627, Note_on_c, 9, 59, 0
4, 925934, Note_on_c, 9, 36, 24
4, 926010, Note_on_c, 9, 59, 44
4, 926062, Note_on_c, 9, 36, 0
4, 926109, Note_on_c, 9, 59, 0
4, 926407, Note_on_c, 9, 36, 21
4, 926703, Note_on_c, 9, 36, 0
4, 926893, Note_on_c, 9, 51, 57
4, 926969, Note_on_c, 9, 51, 0
4, 927491, Note_on_c, 9, 51, 45
4, 927890, Note_on_c, 9, 51, 0
4, 928810, Note_on_c, 9, 51, 42
4, 928927, Note_on_c, 9, 51, 0
4, 929301, Note_on_c, 9, 53, 47
4, 929323, Note_on_c, 9, 51, 33
4, 929460, Note_on_c, 9, 53, 0
4, 929471, Note_on_c, 9, 51, 0
4, 929796, Note_on_c, 9, 51, 32
4, 929807, Note_on_c, 9, 53, 44
4, 929926, Note_on_c, 9, 53, 0
4, 929973, Note_on_c, 9, 51, 0
4, 930662, Note_on_c, 9, 37, 36
4, 930692, Note_on_c, 9, 51, 43
4, 930752, Note_on_c, 9, 53, 33
4, 930767, Note_on_c, 9, 37, 0
4, 930835, Note_on_c, 9, 51, 0
4, 930862, Note_on_c, 9, 53, 0
4, 931195, Note_on_c, 9, 37, 22
4, 931252, Note_on_c, 9, 51, 41
4, 931256, Note_on_c, 9, 53, 40
4, 931565, Note_on_c, 9, 51, 0
4, 931570, Note_on_c, 9, 53, 0
4, 931635, Note_on_c, 9, 37, 0
4, 932079, Note_on_c, 9, 37, 24
4, 932081, Note_on_c, 9, 51, 40
4, 932166, Note_on_c, 9, 53, 41
4, 932236, Note_on_c, 9, 37, 0
4, 932280, Note_on_c, 9, 53, 0
4, 932298, Note_on_c, 9, 51, 0
4, 932616, Note_on_c, 9, 51, 46
4, 932629, Note_on_c, 9, 53, 49
4, 932744, Note_on_c, 9, 53, 0
4, 932824, Note_on_c, 9, 51, 0
4, 933519, Note_on_c, 9, 37, 25
4, 933541, Note_on_c, 9, 51, 42
4, 933557, Note_on_c, 9, 53, 38
4, 933669, Note_on_c, 9, 51, 0
4, 933684, Note_on_c, 9, 53, 0
4, 933772, Note_on_c, 9, 37, 0
4, 933990, Note_on_c, 9, 37, 23
4, 934020, Note_on_c, 9, 51, 43
4, 934038, Note_on_c, 9, 53, 50
4, 934291, Note_on_c, 9, 53, 0
4, 934334, Note_on_c, 9, 51, 0
4, 934462, Note_on_c, 9, 37, 0
4, 934995, Note_on_c, 9, 51, 41
4, 934998, Note_on_c, 9, 37, 22
4, 934999, Note_on_c, 9, 53, 46
4, 935093, Note_on_c, 9, 53, 0
4, 935105, Note_on_c, 9, 51, 0
4, 935228, Note_on_c, 9, 37, 0
4, 935516, Note_on_c, 9, 37, 22
4, 935544, Note_on_c, 9, 53, 55
4, 935575, Note_on_c, 9, 51, 47
4, 935675, Note_on_c, 9, 37, 0
4, 935698, Note_on_c, 9, 53, 0
4, 935759, Note_on_c, 9, 51, 0
4, 936384, Note_on_c, 9, 51, 48
4, 936422, Note_on_c, 9, 53, 46
4, 936423, Note_on_c, 9, 37, 22
4, 936502, Note_on_c, 9, 51, 0
4, 936536, Note_on_c, 9, 53, 0
4, 936665, Note_on_c, 9, 37, 0
4, 936941, Note_on_c, 9, 53, 50
4, 936950, Note_on_c, 9, 37, 19
4, 936968, Note_on_c, 9, 51, 50
4, 937181, Note_on_c, 9, 53, 0
4, 937197, Note_on_c, 9, 51, 0
4, 937260, Note_on_c, 9, 37, 0
4, 937855, Note_on_c, 9, 53, 46
4, 937869, Note_on_c, 9, 51, 47
4, 937905, Note_on_c, 9, 37, 19
4, 937963, Note_on_c, 9, 53, 0
4, 937970, Note_on_c, 9, 51, 0
4, 938052, Note_on_c, 9, 37, 0
4, 938373, Note_on_c, 9, 53, 53
4, 938391, Note_on_c, 9, 51, 48
4, 938411, Note_on_c, 9, 37, 24
4, 938536, Note_on_c, 9, 53, 0
4, 938561, Note_on_c, 9, 37, 0
4, 938635, Note_on_c, 9, 51, 0
4, 939249, Note_on_c, 9, 37, 27
4, 939280, Note_on_c, 9, 51, 45
4, 939298, Note_on_c, 9, 53, 30
4, 939426, Note_on_c, 9, 53, 0
4, 939443, Note_on_c, 9, 51, 0
4, 939491, Note_on_c, 9, 37, 0
4, 939728, Note_on_c, 9, 53, 49
4, 939771, Note_on_c, 9, 37, 17
4, 939779, Note_on_c, 9, 51, 46
4, 940022, Note_on_c, 9, 37, 0
4, 940131, Note_on_c, 9, 53, 0
4, 940243, Note_on_c, 9, 36, 23
4, 940378, Note_on_c, 9, 51, 0
4, 940439, Note_on_c, 9, 36, 0
4, 940670, Note_on_c, 9, 36, 25
4, 941014, Note_on_c, 9, 36, 0
4, 941283, Note_on_c, 9, 51, 56
4, 941482, Note_on_c, 9, 51, 0
4, 941727, Note_on_c, 9, 36, 27
4, 942123, Note_on_c, 9, 36, 0
4, 942228, Note_on_c, 9, 51, 46
4, 942340, Note_on_c, 9, 51, 0
4, 942743, Note_on_c, 9, 51, 52
4, 943072, Note_on_c, 9, 51, 0
4, 943684, Note_on_c, 9, 51, 54
4, 943910, Note_on_c, 9, 51, 0
4, 944170, Note_on_c, 9, 51, 52
4, 944378, Note_on_c, 9, 51, 0
4, 944665, Note_on_c, 9, 51, 45
4, 944905, Note_on_c, 9, 51, 0
4, 945646, Note_on_c, 9, 51, 40
4, 945789, Note_on_c, 9, 51, 0
4, 946166, Note_on_c, 9, 53, 37
4, 946280, Note_on_c, 9, 53, 0
4, 946676, Note_on_c, 9, 51, 39
4, 946804, Note_on_c, 9, 51, 0
4, 947230, Note_on_c, 9, 51, 41
4, 947413, Note_on_c, 9, 51, 0
4, 947729, Note_on_c, 9, 51, 53
4, 947888, Note_on_c, 9, 51, 0
4, 948236, Note_on_c, 9, 51, 58
4, 948372, Note_on_c, 9, 51, 0
4, 948711, Note_on_c, 9, 51, 75
4, 948973, Note_on_c, 9, 51, 0
4, 949562, Note_on_c, 9, 51, 50
4, 949662, Note_on_c, 9, 51, 0
4, 950108, Note_on_c, 9, 51, 57
4, 950429, Note_on_c, 9, 51, 0
4, 950924, Note_on_c, 9, 59, 78
4, 951145, Note_on_c, 9, 59, 0
4, 951820, Note_on_c, 9, 37, 26
4, 951947, Note_on_c, 9, 51, 56
4, 952032, Note_on_c, 9, 51, 0
4, 952081, Note_on_c, 9, 37, 0
4, 952415, Note_on_c, 9, 51, 65
4, 952720, Note_on_c, 9, 51, 0
4, 952788, Note_on_c, 9, 36, 19
4, 952983, Note_on_c, 9, 36, 0
4, 953302, Note_on_c, 9, 36, 20
4, 953513, Note_on_c, 9, 36, 0
4, 953790, Note_on_c, 9, 36, 27
4, 953798, Note_on_c, 9, 51, 58
4, 953880, Note_on_c, 9, 51, 0
4, 954067, Note_on_c, 9, 36, 0
4, 954276, Note_on_c, 9, 36, 34
4, 954328, Note_on_c, 9, 51, 62
4, 954595, Note_on_c, 9, 51, 0
4, 954659, Note_on_c, 9, 36, 0
4, 955713, Note_on_c, 9, 51, 56
4, 955798, Note_on_c, 9, 51, 0
4, 956264, Note_on_c, 9, 51, 66
4, 956501, Note_on_c, 9, 51, 0
4, 956700, Note_on_c, 9, 37, 31
4, 956878, Note_on_c, 9, 37, 0
4, 957628, Note_on_c, 9, 36, 29
4, 957695, Note_on_c, 9, 51, 55
4, 957778, Note_on_c, 9, 51, 0
4, 957788, Note_on_c, 9, 36, 0
4, 958134, Note_on_c, 9, 36, 23
4, 958168, Note_on_c, 9, 51, 58
4, 958411, Note_on_c, 9, 36, 0
4, 958484, Note_on_c, 9, 51, 0
4, 959583, Note_on_c, 9, 51, 42
4, 959623, Note_on_c, 9, 45, 25
4, 959684, Note_on_c, 9, 51, 0
4, 959735, Note_on_c, 9, 45, 0
4, 960114, Note_on_c, 9, 59, 55
4, 960137, Note_on_c, 9, 51, 58
4, 960244, Note_on_c, 9, 51, 0
4, 960446, Note_on_c, 9, 51, 23
4, 960561, Note_on_c, 9, 36, 25
4, 960671, Note_on_c, 9, 36, 0
4, 960822, Note_on_c, 9, 51, 0
4, 960831, Note_on_c, 9, 59, 0
4, 961065, Note_on_c, 9, 36, 27
4, 961299, Note_on_c, 9, 36, 0
4, 961447, Note_on_c, 9, 51, 51
4, 961478, Note_on_c, 9, 59, 45
4, 961588, Note_on_c, 9, 51, 0
4, 961608, Note_on_c, 9, 59, 0
4, 962025, Note_on_c, 9, 51, 55
4, 962047, Note_on_c, 9, 59, 47
4, 962507, Note_on_c, 9, 51, 0
4, 962520, Note_on_c, 9, 59, 0
4, 962914, Note_on_c, 9, 51, 48
4, 962930, Note_on_c, 9, 59, 50
4, 963300, Note_on_c, 9, 51, 0
4, 963340, Note_on_c, 9, 59, 0
4, 963904, Note_on_c, 9, 59, 43
4, 963942, Note_on_c, 9, 51, 39
4, 964093, Note_on_c, 9, 51, 0
4, 964283, Note_on_c, 9, 59, 0
4, 964854, Note_on_c, 9, 59, 57
4, 964863, Note_on_c, 9, 51, 60
4, 965251, Note_on_c, 9, 51, 0
4, 965322, Note_on_c, 9, 59, 0
4, 966291, Note_on_c, 9, 40, 23
4, 966491, Note_on_c, 9, 40, 0
4, 966722, Note_on_c, 9, 59, 49
4, 966756, Note_on_c, 9, 51, 45
4, 966764, Note_on_c, 9, 36, 13
4, 966923, Note_on_c, 9, 36, 0
4, 967072, Note_on_c, 9, 59, 0
4, 967143, Note_on_c, 9, 51, 0
4, 967219, Note_on_c, 9, 36, 26
4, 967479, Note_on_c, 9, 36, 0
4, 967681, Note_on_c, 9, 53, 43
4, 967683, Note_on_c, 9, 36, 31
4, 967706, Note_on_c, 9, 51, 37
4, 967851, Note_on_c, 9, 36, 0
4, 967874, Note_on_c, 9, 53, 0
4, 967968, Note_on_c, 9, 51, 0
4, 968666, Note_on_c, 9, 53, 58
4, 968673, Note_on_c, 9, 51, 56
4, 969289, Note_on_c, 9, 51, 0
4, 969309, Note_on_c, 9, 53, 0
4, 969630, Note_on_c, 9, 51, 42
4, 969633, Note_on_c, 9, 40, 30
4, 969729, Note_on_c, 9, 40, 0
4, 969735, Note_on_c, 9, 51, 0
4, 969854, Note_on_c, 9, 40, 16
4, 969964, Note_on_c, 9, 40, 0
4, 970230, Note_on_c, 9, 51, 61
4, 970472, Note_on_c, 9, 51, 0
4, 971031, Note_on_c, 9, 36, 31
4, 971135, Note_on_c, 9, 36, 0
4, 971151, Note_on_c, 9, 51, 53
4, 971260, Note_on_c, 9, 51, 0
4, 971503, Note_on_c, 9, 36, 26
4, 971661, Note_on_c, 9, 51, 68
4, 971673, Note_on_c, 9, 36, 0
4, 972815, Note_on_c, 9, 51, 0
4, 973008, Note_on_c, 9, 51, 63
4, 973187, Note_on_c, 9, 51, 0
4, 973518, Note_on_c, 9, 51, 65
4, 973940, Note_on_c, 9, 37, 33
4, 974212, Note_on_c, 9, 37, 0
4, 974388, Note_on_c, 9, 36, 15
4, 974497, Note_on_c, 9, 36, 0
4, 974560, Note_on_c, 9, 51, 0
4, 974902, Note_on_c, 9, 36, 27
4, 974918, Note_on_c, 9, 51, 51
4, 975017, Note_on_c, 9, 36, 0
4, 975021, Note_on_c, 9, 51, 0
4, 975429, Note_on_c, 9, 51, 73
4, 975452, Note_on_c, 9, 36, 19
4, 975601, Note_on_c, 9, 36, 0
4, 976014, Note_on_c, 9, 51, 0
4, 976334, Note_on_c, 9, 44, 31
4, 976386, Note_on_c, 9, 51, 48
4, 976668, Note_on_c, 9, 44, 0
4, 976717, Note_on_c, 9, 51, 0
4, 977333, Note_on_c, 9, 51, 51
4, 977627, Note_on_c, 9, 51, 0
4, 977839, Note_on_c, 9, 51, 51
4, 977882, Note_on_c, 9, 53, 56
4, 978444, Note_on_c, 9, 51, 0
4, 978511, Note_on_c, 9, 53, 0
4, 978791, Note_on_c, 9, 40, 36
4, 978816, Note_on_c, 9, 51, 48
4, 978958, Note_on_c, 9, 40, 0
4, 978968, Note_on_c, 9, 51, 0
4, 979249, Note_on_c, 9, 36, 18
4, 979365, Note_on_c, 9, 51, 53
4, 979380, Note_on_c, 9, 36, 0
4, 979416, Note_on_c, 9, 53, 58
4, 979775, Note_on_c, 9, 36, 21
4, 979891, Note_on_c, 9, 51, 0
4, 979903, Note_on_c, 9, 36, 0
4, 979909, Note_on_c, 9, 53, 0
4, 980265, Note_on_c, 9, 51, 47
4, 980299, Note_on_c, 9, 36, 18
4, 980467, Note_on_c, 9, 36, 0
4, 980489, Note_on_c, 9, 51, 0
4, 980799, Note_on_c, 9, 51, 58
4, 981311, Note_on_c, 9, 51, 0
4, 981710, Note_on_c, 9, 51, 51
4, 981892, Note_on_c, 9, 51, 0
4, 982165, Note_on_c, 9, 51, 58
4, 982615, Note_on_c, 9, 51, 0
4, 982694, Note_on_c, 9, 40, 29
4, 982942, Note_on_c, 9, 40, 0
4, 983153, Note_on_c, 9, 51, 74
4, 983179, Note_on_c, 9, 36, 26
4, 983278, Note_on_c, 9, 36, 0
4, 983684, Note_on_c, 9, 36, 26
4, 983811, Note_on_c, 9, 36, 0
4, 984207, Note_on_c, 9, 36, 20
4, 984223, Note_on_c, 9, 51, 0
4, 984347, Note_on_c, 9, 36, 0
4, 984595, Note_on_c, 9, 51, 46
4, 984723, Note_on_c, 9, 51, 0
4, 985088, Note_on_c, 9, 51, 50
4, 985563, Note_on_c, 9, 40, 44
4, 985641, Note_on_c, 9, 40, 0
4, 986284, Note_on_c, 9, 51, 0
4, 986486, Note_on_c, 9, 36, 33
4, 986521, Note_on_c, 9, 51, 53
4, 986619, Note_on_c, 9, 36, 0
4, 986705, Note_on_c, 9, 51, 0
4, 987006, Note_on_c, 9, 36, 25
4, 987028, Note_on_c, 9, 51, 35
4, 987148, Note_on_c, 9, 36, 0
4, 987319, Note_on_c, 9, 51, 0
4, 987471, Note_on_c, 9, 44, 61
4, 987962, Note_on_c, 9, 44, 0
4, 988390, Note_on_c, 9, 51, 46
4, 988549, Note_on_c, 9, 51, 0
4, 988925, Note_on_c, 9, 51, 48
4, 989274, Note_on_c, 9, 51, 0
4, 989294, Note_on_c, 9, 37, 33
4, 989404, Note_on_c, 9, 44, 46
4, 989435, Note_on_c, 9, 37, 0
4, 989684, Note_on_c, 9, 44, 0
4, 989819, Note_on_c, 9, 37, 22
4, 989958, Note_on_c, 9, 37, 0
4, 990276, Note_on_c, 9, 36, 33
4, 990361, Note_on_c, 9, 36, 0
4, 990363, Note_on_c, 9, 44, 46
4, 990576, Note_on_c, 9, 44, 0
4, 990743, Note_on_c, 9, 57, 13
4, 990798, Note_on_c, 9, 36, 21
4, 990876, Note_on_c, 9, 51, 39
4, 991060, Note_on_c, 9, 51, 0
4, 991743, Note_on_c, 9, 51, 45
4, 991998, Note_on_c, 9, 51, 0
4, 992247, Note_on_c, 9, 57, 0
4, 992713, Note_on_c, 9, 51, 46
4, 992831, Note_on_c, 9, 36, 0
4, 993167, Note_on_c, 9, 40, 31
4, 993315, Note_on_c, 9, 51, 0
4, 993363, Note_on_c, 9, 40, 0
4, 993631, Note_on_c, 9, 36, 26
4, 993745, Note_on_c, 9, 36, 0
4, 994105, Note_on_c, 9, 36, 33
4, 994109, Note_on_c, 9, 51, 54
4, 994270, Note_on_c, 9, 51, 0
4, 994607, Note_on_c, 9, 36, 0
4, 994642, Note_on_c, 9, 51, 49
4, 995728, Note_on_c, 9, 51, 0
4, 996958, Note_on_c, 9, 51, 61
4, 997068, Note_on_c, 9, 51, 0
4, 997480, Note_on_c, 9, 51, 50
4, 997603, Note_on_c, 9, 51, 0
4, 997966, Note_on_c, 9, 51, 76
4, 998165, Note_on_c, 9, 51, 0
4, 998443, Note_on_c, 9, 51, 91
4, 999054, Note_on_c, 9, 51, 0
4, 999399, Note_on_c, 9, 51, 36
4, 999556, Note_on_c, 9, 51, 0
4, 999946, Note_on_c, 9, 51, 70
4, 1000770, Note_on_c, 9, 44, 62
4, 1000777, Note_on_c, 9, 51, 0
4, 1001095, Note_on_c, 9, 44, 0
4, 1001377, Note_on_c, 9, 51, 37
4, 1001534, Note_on_c, 9, 51, 0
4, 1001735, Note_on_c, 9, 36, 28
4, 1001834, Note_on_c, 9, 51, 58
4, 1001854, Note_on_c, 9, 36, 0
4, 1002011, Note_on_c, 9, 51, 0
4, 1002235, Note_on_c, 9, 36, 23
4, 1002255, Note_on_c, 9, 51, 70
4, 1002508, Note_on_c, 9, 36, 0
4, 1002787, Note_on_c, 9, 36, 21
4, 1002961, Note_on_c, 9, 36, 0
4, 1002988, Note_on_c, 9, 51, 0
4, 1003237, Note_on_c, 9, 51, 47
4, 1003436, Note_on_c, 9, 51, 0
4, 1003761, Note_on_c, 9, 51, 63
4, 1004276, Note_on_c, 9, 51, 0
4, 1004652, Note_on_c, 9, 51, 57
4, 1004836, Note_on_c, 9, 51, 0
4, 1005125, Note_on_c, 9, 51, 53
4, 1005176, Note_on_c, 9, 53, 58
4, 1005772, Note_on_c, 9, 51, 0
4, 1005855, Note_on_c, 9, 53, 0
4, 1006166, Note_on_c, 9, 51, 31
4, 1006317, Note_on_c, 9, 51, 0
4, 1006653, Note_on_c, 9, 51, 62
4, 1006686, Note_on_c, 9, 53, 58
4, 1007013, Note_on_c, 9, 51, 0
4, 1007125, Note_on_c, 9, 53, 0
4, 1007564, Note_on_c, 9, 51, 53
4, 1007625, Note_on_c, 9, 36, 13
4, 1007719, Note_on_c, 9, 36, 0
4, 1007766, Note_on_c, 9, 51, 0
4, 1008041, Note_on_c, 9, 51, 55
4, 1008447, Note_on_c, 9, 51, 0
4, 1008580, Note_on_c, 9, 36, 31
4, 1008703, Note_on_c, 9, 36, 0
4, 1009076, Note_on_c, 9, 51, 54
4, 1009089, Note_on_c, 9, 36, 27
4, 1009280, Note_on_c, 9, 51, 0
4, 1009375, Note_on_c, 9, 36, 0
4, 1009526, Note_on_c, 9, 37, 29
4, 1009573, Note_on_c, 9, 59, 76
4, 1009623, Note_on_c, 9, 51, 62
4, 1009822, Note_on_c, 9, 37, 0
4, 1009972, Note_on_c, 9, 36, 19
4, 1010131, Note_on_c, 9, 51, 0
4, 1010190, Note_on_c, 9, 36, 0
4, 1010212, Note_on_c, 9, 59, 0
4, 1010457, Note_on_c, 9, 36, 29
4, 1010490, Note_on_c, 9, 51, 64
4, 1010663, Note_on_c, 9, 36, 0
4, 1010700, Note_on_c, 9, 51, 0
4, 1010966, Note_on_c, 9, 36, 25
4, 1011043, Note_on_c, 9, 59, 80
4, 1011065, Note_on_c, 9, 51, 71
4, 1011155, Note_on_c, 9, 36, 0
4, 1011538, Note_on_c, 9, 59, 0
4, 1011652, Note_on_c, 9, 51, 0
4, 1011937, Note_on_c, 9, 51, 51
4, 1012060, Note_on_c, 9, 51, 0
4, 1012494, Note_on_c, 9, 59, 85
4, 1012494, Note_on_c, 9, 37, 28
4, 1012515, Note_on_c, 9, 51, 73
4, 1012687, Note_on_c, 9, 37, 0
4, 1012866, Note_on_c, 9, 51, 0
4, 1012875, Note_on_c, 9, 59, 0
4, 1013233, Note_on_c, 9, 37, 36
4, 1013296, Note_on_c, 9, 51, 61
4, 1013388, Note_on_c, 9, 51, 0
4, 1013614, Note_on_c, 9, 37, 0
4, 1013751, Note_on_c, 9, 59, 73
4, 1013798, Note_on_c, 9, 51, 70
4, 1013830, Note_on_c, 9, 37, 35
4, 1014243, Note_on_c, 9, 37, 0
4, 1014329, Note_on_c, 9, 59, 0
4, 1014434, Note_on_c, 9, 51, 0
4, 1014476, Note_on_c, 9, 37, 28
4, 1014815, Note_on_c, 9, 37, 0
4, 1015132, Note_on_c, 9, 37, 30
4, 1015214, Note_on_c, 9, 51, 73
4, 1015254, Note_on_c, 9, 59, 80
4, 1015483, Note_on_c, 9, 37, 0
4, 1015796, Note_on_c, 9, 51, 0
4, 1015812, Note_on_c, 9, 37, 29
4, 1015839, Note_on_c, 9, 59, 0
4, 1016179, Note_on_c, 9, 37, 0
4, 1016503, Note_on_c, 9, 37, 27
4, 1016703, Note_on_c, 9, 51, 79
4, 1016717, Note_on_c, 9, 59, 84
4, 1016766, Note_on_c, 9, 37, 0
4, 1017078, Note_on_c, 9, 37, 26
4, 1017154, Note_on_c, 9, 59, 0
4, 1017167, Note_on_c, 9, 37, 0
4, 1017332, Note_on_c, 9, 37, 30
4, 1017415, Note_on_c, 9, 37, 0
4, 1017608, Note_on_c, 9, 51, 0
4, 1017646, Note_on_c, 9, 36, 23
4, 1017807, Note_on_c, 9, 36, 0
4, 1018156, Note_on_c, 9, 36, 23
4, 1018220, Note_on_c, 9, 51, 78
4, 1018231, Note_on_c, 9, 59, 82
4, 1018257, Note_on_c, 9, 36, 0
4, 1018502, Note_on_c, 9, 59, 0
4, 1018591, Note_on_c, 9, 36, 24
4, 1018677, Note_on_c, 9, 51, 0
4, 1018740, Note_on_c, 9, 36, 0
4, 1019143, Note_on_c, 9, 59, 51
4, 1019250, Note_on_c, 9, 59, 0
4, 1019687, Note_on_c, 9, 59, 73
4, 1019694, Note_on_c, 9, 51, 67
4, 1019698, Note_on_c, 9, 53, 65
4, 1019983, Note_on_c, 9, 59, 0
4, 1020319, Note_on_c, 9, 53, 0
4, 1020388, Note_on_c, 9, 51, 0
4, 1020574, Note_on_c, 9, 59, 48
4, 1020677, Note_on_c, 9, 59, 0
4, 1020998, Note_on_c, 9, 37, 33
4, 1021098, Note_on_c, 9, 59, 80
4, 1021114, Note_on_c, 9, 51, 75
4, 1021134, Note_on_c, 9, 53, 65
4, 1021209, Note_on_c, 9, 37, 0
4, 1021477, Note_on_c, 9, 59, 0
4, 1021488, Note_on_c, 9, 53, 0
4, 1021502, Note_on_c, 9, 36, 23
4, 1021564, Note_on_c, 9, 51, 0
4, 1021638, Note_on_c, 9, 36, 0
4, 1022006, Note_on_c, 9, 36, 26
4, 1022035, Note_on_c, 9, 59, 39
4, 1022121, Note_on_c, 9, 36, 0
4, 1022234, Note_on_c, 9, 59, 0
4, 1022521, Note_on_c, 9, 36, 25
4, 1022557, Note_on_c, 9, 51, 80
4, 1022565, Note_on_c, 9, 59, 85
4, 1022568, Note_on_c, 9, 53, 79
4, 1022689, Note_on_c, 9, 36, 0
4, 1023045, Note_on_c, 9, 59, 0
4, 1023226, Note_on_c, 9, 53, 0
4, 1023311, Note_on_c, 9, 51, 0
4, 1023437, Note_on_c, 9, 59, 52
4, 1023578, Note_on_c, 9, 59, 0
4, 1024048, Note_on_c, 9, 51, 64
4, 1024051, Note_on_c, 9, 59, 67
4, 1024051, Note_on_c, 9, 53, 65
4, 1024384, Note_on_c, 9, 59, 0
4, 1024400, Note_on_c, 9, 53, 0
4, 1024454, Note_on_c, 9, 51, 0
4, 1024913, Note_on_c, 9, 59, 48
4, 1025072, Note_on_c, 9, 59, 0
4, 1025415, Note_on_c, 9, 53, 58
4, 1025435, Note_on_c, 9, 51, 58
4, 1025437, Note_on_c, 9, 59, 60
4, 1025834, Note_on_c, 9, 59, 0
4, 1025957, Note_on_c, 9, 51, 0
4, 1025957, Note_on_c, 9, 53, 0
4, 1026302, Note_on_c, 9, 59, 51
4, 1026494, Note_on_c, 9, 59, 0
4, 1026862, Note_on_c, 9, 59, 62
4, 1026869, Note_on_c, 9, 51, 59
4, 1026873, Note_on_c, 9, 53, 54
4, 1027099, Note_on_c, 9, 59, 0
4, 1027175, Note_on_c, 9, 53, 0
4, 1027234, Note_on_c, 9, 51, 0
4, 1027742, Note_on_c, 9, 59, 45
4, 1027885, Note_on_c, 9, 59, 0
4, 1028219, Note_on_c, 9, 59, 58
4, 1028239, Note_on_c, 9, 53, 55
4, 1028248, Note_on_c, 9, 51, 53
4, 1028479, Note_on_c, 9, 59, 0
4, 1028627, Note_on_c, 9, 36, 23
4, 1028647, Note_on_c, 9, 53, 0
4, 1028672, Note_on_c, 9, 51, 0
4, 1028831, Note_on_c, 9, 36, 0
4, 1029182, Note_on_c, 9, 36, 24
4, 1029729, Note_on_c, 9, 51, 60
4, 1029845, Note_on_c, 9, 51, 0
4, 1030057, Note_on_c, 9, 36, 0
4, 1030657, Note_on_c, 9, 36, 27
4, 1030745, Note_on_c, 9, 36, 0
4, 1031069, Note_on_c, 9, 51, 64
4, 1031225, Note_on_c, 9, 51, 0
4, 1032115, Note_on_c, 9, 51, 24
4, 1032233, Note_on_c, 9, 51, 0
4, 1032502, Note_on_c, 9, 51, 64
4, 1032619, Note_on_c, 9, 51, 0
4, 1032999, Note_on_c, 9, 51, 55
4, 1033367, Note_on_c, 9, 51, 0
4, 1034402, Note_on_c, 9, 51, 57
4, 1034505, Note_on_c, 9, 51, 0
4, 1034545, Note_on_c, 9, 36, 26
4, 1034631, Note_on_c, 9, 36, 0
4, 1034892, Note_on_c, 9, 51, 52
4, 1035237, Note_on_c, 9, 51, 0
4, 1035459, Note_on_c, 9, 36, 28
4, 1035539, Note_on_c, 9, 36, 0
4, 1035938, Note_on_c, 9, 51, 64
4, 1036035, Note_on_c, 9, 51, 0
4, 1036393, Note_on_c, 9, 51, 68
4, 1036498, Note_on_c, 9, 51, 0
4, 1036879, Note_on_c, 9, 51, 62
4, 1037724, Note_on_c, 9, 51, 0
4, 1038284, Note_on_c, 9, 51, 55
4, 1038420, Note_on_c, 9, 51, 0
4, 1038770, Note_on_c, 9, 51, 40
4, 1038942, Note_on_c, 9, 51, 0
4, 1039166, Note_on_c, 9, 44, 58
4, 1039269, Note_on_c, 9, 44, 0
4, 1040067, Note_on_c, 9, 37, 28
4, 1040183, Note_on_c, 9, 37, 0
4, 1040241, Note_on_c, 9, 51, 44
4, 1040371, Note_on_c, 9, 51, 0
4, 1040575, Note_on_c, 9, 36, 15
4, 1040703, Note_on_c, 9, 51, 51
4, 1040705, Note_on_c, 9, 36, 0
4, 1041105, Note_on_c, 9, 36, 25
4, 1041244, Note_on_c, 9, 36, 0
4, 1041276, Note_on_c, 9, 51, 0
4, 1041628, Note_on_c, 9, 36, 22
4, 1041633, Note_on_c, 9, 51, 44
4, 1041890, Note_on_c, 9, 51, 0
4, 1041943, Note_on_c, 9, 36, 0
4, 1042537, Note_on_c, 9, 51, 37
4, 1042572, Note_on_c, 9, 36, 23
4, 1042690, Note_on_c, 9, 51, 0
4, 1042983, Note_on_c, 9, 44, 56
4, 1043060, Note_on_c, 9, 36, 0
4, 1043257, Note_on_c, 9, 44, 0
4, 1043436, Note_on_c, 9, 51, 40
4, 1043628, Note_on_c, 9, 51, 0
4, 1044029, Note_on_c, 9, 51, 43
4, 1044155, Note_on_c, 9, 51, 0
4, 1044522, Note_on_c, 9, 51, 55
4, 1045136, Note_on_c, 9, 51, 0
4, 1045454, Note_on_c, 9, 51, 35
4, 1045635, Note_on_c, 9, 51, 0
4, 1045987, Note_on_c, 9, 51, 59
4, 1046599, Note_on_c, 9, 51, 0
4, 1046885, Note_on_c, 9, 51, 50
4, 1047087, Note_on_c, 9, 51, 0
4, 1047445, Note_on_c, 9, 51, 41
4, 1047649, Note_on_c, 9, 51, 0
4, 1047926, Note_on_c, 9, 37, 27
4, 1048035, Note_on_c, 9, 37, 0
4, 1048327, Note_on_c, 9, 37, 31
4, 1048344, Note_on_c, 9, 51, 55
4, 1048565, Note_on_c, 9, 51, 0
4, 1048721, Note_on_c, 9, 37, 0
4, 1048843, Note_on_c, 9, 51, 50
4, 1048887, Note_on_c, 9, 36, 18
4, 1048953, Note_on_c, 9, 51, 0
4, 1049030, Note_on_c, 9, 36, 0
4, 1049316, Note_on_c, 9, 36, 29
4, 1049401, Note_on_c, 9, 51, 39
4, 1049506, Note_on_c, 9, 51, 0
4, 1049876, Note_on_c, 9, 36, 0
4, 1049878, Note_on_c, 9, 51, 44
4, 1049974, Note_on_c, 9, 51, 0
4, 1050267, Note_on_c, 9, 45, 25
4, 1050324, Note_on_c, 9, 51, 76
4, 1050497, Note_on_c, 9, 45, 0
4, 1050759, Note_on_c, 9, 45, 28
4, 1051014, Note_on_c, 9, 45, 0
4, 1051022, Note_on_c, 9, 51, 0
4, 1051319, Note_on_c, 9, 43, 16
4, 1051356, Note_on_c, 9, 51, 47
4, 1051446, Note_on_c, 9, 51, 0
4, 1051447, Note_on_c, 9, 43, 0
4, 1051715, Note_on_c, 9, 37, 35
4, 1051802, Note_on_c, 9, 51, 61
4, 1051896, Note_on_c, 9, 51, 0
4, 1052079, Note_on_c, 9, 37, 0
4, 1052233, Note_on_c, 9, 36, 23
4, 1052279, Note_on_c, 9, 51, 62
4, 1052419, Note_on_c, 9, 36, 0
4, 1052758, Note_on_c, 9, 36, 31
4, 1052953, Note_on_c, 9, 51, 0
4, 1052987, Note_on_c, 9, 36, 0
4, 1053278, Note_on_c, 9, 36, 33
4, 1053735, Note_on_c, 9, 36, 0
4, 1053878, Note_on_c, 9, 51, 54
4, 1053905, Note_on_c, 9, 53, 58
4, 1054035, Note_on_c, 9, 53, 0
4, 1054062, Note_on_c, 9, 51, 0
4, 1054322, Note_on_c, 9, 53, 50
4, 1054358, Note_on_c, 9, 51, 39
4, 1054441, Note_on_c, 9, 53, 0
4, 1054463, Note_on_c, 9, 51, 0
4, 1054743, Note_on_c, 9, 37, 26
4, 1055094, Note_on_c, 9, 37, 0
4, 1055249, Note_on_c, 9, 51, 52
4, 1055272, Note_on_c, 9, 53, 62
4, 1055659, Note_on_c, 9, 51, 0
4, 1055713, Note_on_c, 9, 53, 0
4, 1055743, Note_on_c, 9, 36, 28
4, 1055892, Note_on_c, 9, 36, 0
4, 1056257, Note_on_c, 9, 36, 33
4, 1056479, Note_on_c, 9, 36, 0
4, 1056522, Note_on_c, 9, 51, 53
4, 1056643, Note_on_c, 9, 51, 0
4, 1057418, Note_on_c, 9, 53, 53
4, 1057436, Note_on_c, 9, 51, 51
4, 1057550, Note_on_c, 9, 51, 0
4, 1057583, Note_on_c, 9, 53, 0
4, 1057984, Note_on_c, 9, 53, 58
4, 1057996, Note_on_c, 9, 51, 59
4, 1058350, Note_on_c, 9, 53, 0
4, 1058352, Note_on_c, 9, 51, 0
4, 1058457, Note_on_c, 9, 37, 29
4, 1058692, Note_on_c, 9, 37, 0
4, 1058916, Note_on_c, 9, 53, 63
4, 1058927, Note_on_c, 9, 51, 64
4, 1059416, Note_on_c, 9, 51, 0
4, 1059422, Note_on_c, 9, 53, 0
4, 1059428, Note_on_c, 9, 36, 23
4, 1059601, Note_on_c, 9, 36, 0
4, 1059924, Note_on_c, 9, 36, 24
4, 1060352, Note_on_c, 9, 51, 50
4, 1060444, Note_on_c, 9, 51, 0
4, 1060861, Note_on_c, 9, 53, 50
4, 1060872, Note_on_c, 9, 51, 51
4, 1061129, Note_on_c, 9, 36, 0
4, 1061161, Note_on_c, 9, 51, 0
4, 1061192, Note_on_c, 9, 53, 0
4, 1061763, Note_on_c, 9, 37, 30
4, 1061786, Note_on_c, 9, 53, 46
4, 1061799, Note_on_c, 9, 51, 42
4, 1061978, Note_on_c, 9, 37, 0
4, 1062115, Note_on_c, 9, 51, 0
4, 1062131, Note_on_c, 9, 53, 0
4, 1062256, Note_on_c, 9, 44, 51
4, 1062327, Note_on_c, 9, 37, 31
4, 1062476, Note_on_c, 9, 44, 0
4, 1062550, Note_on_c, 9, 37, 0
4, 1063228, Note_on_c, 9, 36, 26
4, 1063251, Note_on_c, 9, 51, 36
4, 1063320, Note_on_c, 9, 53, 31
4, 1063335, Note_on_c, 9, 36, 0
4, 1063430, Note_on_c, 9, 51, 0
4, 1063439, Note_on_c, 9, 53, 0
4, 1063712, Note_on_c, 9, 51, 48
4, 1063728, Note_on_c, 9, 53, 49
4, 1063748, Note_on_c, 9, 36, 29
4, 1064046, Note_on_c, 9, 36, 0
4, 1064738, Note_on_c, 9, 51, 0
4, 1064814, Note_on_c, 9, 53, 0
4, 1065185, Note_on_c, 9, 37, 21
4, 1065215, Note_on_c, 9, 51, 37
4, 1065231, Note_on_c, 9, 53, 34
4, 1065299, Note_on_c, 9, 37, 0
4, 1065354, Note_on_c, 9, 51, 0
4, 1065358, Note_on_c, 9, 53, 0
4, 1065663, Note_on_c, 9, 37, 23
4, 1065672, Note_on_c, 9, 51, 43
4, 1065721, Note_on_c, 9, 53, 28
4, 1065876, Note_on_c, 9, 37, 0
4, 1065892, Note_on_c, 9, 53, 0
4, 1065930, Note_on_c, 9, 51, 0
4, 1066115, Note_on_c, 9, 37, 27
4, 1066295, Note_on_c, 9, 37, 0
4, 1066534, Note_on_c, 9, 51, 50
4, 1066785, Note_on_c, 9, 51, 0
4, 1067044, Note_on_c, 9, 36, 28
4, 1067142, Note_on_c, 9, 59, 31
4, 1067179, Note_on_c, 9, 36, 0
4, 1067249, Note_on_c, 9, 59, 0
4, 1067526, Note_on_c, 9, 49, 15
4, 1067556, Note_on_c, 9, 36, 19
4, 1067581, Note_on_c, 9, 59, 56
4, 1068054, Note_on_c, 9, 49, 0
4, 1068228, Note_on_c, 9, 59, 0
4, 1068355, Note_on_c, 9, 36, 0
4, 1069010, Note_on_c, 9, 59, 42
4, 1069115, Note_on_c, 9, 59, 0
4, 1069469, Note_on_c, 9, 59, 51
4, 1069877, Note_on_c, 9, 59, 0
4, 1070941, Note_on_c, 9, 59, 34
4, 1071073, Note_on_c, 9, 59, 0
4, 1071427, Note_on_c, 9, 59, 45
4, 1071799, Note_on_c, 9, 59, 0
4, 1072885, Note_on_c, 9, 59, 38
4, 1073028, Note_on_c, 9, 59, 0
4, 1073293, Note_on_c, 9, 59, 44
4, 1073350, Note_on_c, 9, 37, 17
4, 1073535, Note_on_c, 9, 37, 0
4, 1073633, Note_on_c, 9, 59, 0
4, 1073921, Note_on_c, 9, 37, 26
4, 1074172, Note_on_c, 9, 37, 0
4, 1074312, Note_on_c, 9, 51, 55
4, 1074567, Note_on_c, 9, 51, 0
4, 1074612, Note_on_c, 9, 37, 25
4, 1074755, Note_on_c, 9, 37, 0
4, 1075251, Note_on_c, 9, 37, 27
4, 1075280, Note_on_c, 9, 51, 18
4, 1075636, Note_on_c, 9, 51, 0
4, 1075679, Note_on_c, 9, 37, 0
4, 1075883, Note_on_c, 9, 36, 19
4, 1076199, Note_on_c, 9, 36, 0
4, 1076252, Note_on_c, 9, 59, 45
4, 1076386, Note_on_c, 9, 59, 0
4, 1076649, Note_on_c, 9, 36, 23
4, 1076818, Note_on_c, 9, 59, 42
4, 1076915, Note_on_c, 9, 36, 0
4, 1076964, Note_on_c, 9, 59, 0
4, 1077332, Note_on_c, 9, 36, 21
4, 1077752, Note_on_c, 9, 59, 50
4, 1077869, Note_on_c, 9, 59, 0
4, 1078288, Note_on_c, 9, 59, 54
4, 1078460, Note_on_c, 9, 59, 0
4, 1079242, Note_on_c, 9, 59, 47
4, 1079356, Note_on_c, 9, 59, 0
4, 1079759, Note_on_c, 9, 59, 52
4, 1079874, Note_on_c, 9, 59, 0
4, 1080593, Note_on_c, 9, 51, 51
4, 1080703, Note_on_c, 9, 51, 0
4, 1081099, Note_on_c, 9, 59, 43
4, 1081219, Note_on_c, 9, 36, 0
4, 1081381, Note_on_c, 9, 59, 0
4, 1081612, Note_on_c, 9, 51, 40
4, 1081724, Note_on_c, 9, 51, 0
4, 1081986, Note_on_c, 9, 59, 43
4, 1082163, Note_on_c, 9, 59, 0
4, 1082452, Note_on_c, 9, 51, 44
4, 1082499, Note_on_c, 9, 37, 25
4, 1082580, Note_on_c, 9, 51, 0
4, 1082764, Note_on_c, 9, 37, 0
4, 1082931, Note_on_c, 9, 51, 61
4, 1083218, Note_on_c, 9, 51, 0
4, 1083481, Note_on_c, 9, 36, 21
4, 1083623, Note_on_c, 9, 36, 0
4, 1083961, Note_on_c, 9, 36, 19
4, 1084281, Note_on_c, 9, 36, 0
4, 1084399, Note_on_c, 9, 59, 44
4, 1084658, Note_on_c, 9, 59, 0
4, 1084913, Note_on_c, 9, 36, 17
4, 1085337, Note_on_c, 9, 59, 48
4, 1085449, Note_on_c, 9, 59, 0
4, 1085868, Note_on_c, 9, 59, 42
4, 1085924, Note_on_c, 9, 36, 0
4, 1085993, Note_on_c, 9, 51, 57
4, 1086005, Note_on_c, 9, 59, 0
4, 1086313, Note_on_c, 9, 36, 21
4, 1086441, Note_on_c, 9, 36, 0
4, 1086531, Note_on_c, 9, 51, 0
4, 1086803, Note_on_c, 9, 36, 23
4, 1086905, Note_on_c, 9, 59, 28
4, 1086999, Note_on_c, 9, 59, 0
4, 1087423, Note_on_c, 9, 59, 54
4, 1087436, Note_on_c, 9, 51, 58
4, 1087700, Note_on_c, 9, 59, 0
4, 1087705, Note_on_c, 9, 51, 0
4, 1088312, Note_on_c, 9, 59, 51
4, 1088408, Note_on_c, 9, 59, 0
4, 1088849, Note_on_c, 9, 59, 48
4, 1088867, Note_on_c, 9, 51, 48
4, 1089123, Note_on_c, 9, 51, 0
4, 1089141, Note_on_c, 9, 59, 0
4, 1089857, Note_on_c, 9, 59, 34
4, 1089987, Note_on_c, 9, 59, 0
4, 1090087, Note_on_c, 9, 36, 0
4, 1090179, Note_on_c, 9, 37, 31
4, 1090314, Note_on_c, 9, 59, 35
4, 1090440, Note_on_c, 9, 59, 0
4, 1090500, Note_on_c, 9, 37, 0
4, 1090686, Note_on_c, 9, 36, 23
4, 1090780, Note_on_c, 9, 51, 50
4, 1090783, Note_on_c, 9, 59, 46
4, 1091007, Note_on_c, 9, 59, 0
4, 1091316, Note_on_c, 9, 51, 0
4, 1092003, Note_on_c, 9, 51, 51
4, 1092312, Note_on_c, 9, 51, 0
4, 1092539, Note_on_c, 9, 59, 39
4, 1092590, Note_on_c, 9, 51, 46
4, 1093117, Note_on_c, 9, 59, 0
4, 1093148, Note_on_c, 9, 51, 0
4, 1093905, Note_on_c, 9, 51, 48
4, 1094033, Note_on_c, 9, 51, 0
4, 1094429, Note_on_c, 9, 59, 44
4, 1094481, Note_on_c, 9, 51, 41
4, 1095294, Note_on_c, 9, 59, 0
4, 1095370, Note_on_c, 9, 51, 0
4, 1095715, Note_on_c, 9, 36, 0
4, 1095803, Note_on_c, 9, 37, 29
4, 1095867, Note_on_c, 9, 51, 47
4, 1095899, Note_on_c, 9, 37, 0
4, 1096004, Note_on_c, 9, 51, 0
4, 1096347, Note_on_c, 9, 37, 23
4, 1096414, Note_on_c, 9, 51, 44
4, 1096587, Note_on_c, 9, 37, 0
4, 1096593, Note_on_c, 9, 51, 0
4, 1097404, Note_on_c, 9, 51, 42
4, 1097724, Note_on_c, 9, 51, 0
4, 1097807, Note_on_c, 9, 37, 21
4, 1098007, Note_on_c, 9, 37, 0
4, 1098339, Note_on_c, 9, 36, 25
4, 1098363, Note_on_c, 9, 57, 23
4, 1099564, Note_on_c, 9, 36, 0
4, 1102016, Note_on_c, 9, 57, 0
4, 1102016, End_track
0, 0, End_of_file
