0, 0, Header, 1, 8, 480
1, 0, Start_track
1, 0, Title_t, "My Funny Valentine"
1, 0, Text_t, "New age-ish type treatment\012"
1, 0, Text_t, "dougmck@pipeline.com.au\012"
1, 0, Time_signature, 4, 2, 24, 8
1, 0, Key_signature, -3, "major"
1, 0, Tempo, 1000000
1, 69120, Tempo, 1000000
1, 69120, End_track
2, 0, Start_track
2, 0, Title_t, "Rhodes Piano"
2, 0, Program_c, 0, 4
2, 0, Control_c, 0, 7, 127
2, 0, Control_c, 0, 10, 24
2, 665, Note_on_c, 0, 72, 87
2, 671, Note_on_c, 0, 60, 92
2, 1057, Control_c, 0, 64, 127
2, 1164, Note_on_c, 0, 60, 0
2, 1814, Note_on_c, 0, 72, 0
2, 1847, Note_on_c, 0, 62, 65
2, 1848, Control_c, 0, 64, 0
2, 1852, Note_on_c, 0, 74, 69
2, 1922, Note_on_c, 0, 74, 0
2, 1926, Note_on_c, 0, 62, 0
2, 1934, Note_on_c, 0, 75, 69
2, 1935, Note_on_c, 0, 63, 62
2, 2001, Note_on_c, 0, 63, 0
2, 2007, Note_on_c, 0, 75, 0
2, 2025, Note_on_c, 0, 74, 68
2, 2031, Note_on_c, 0, 63, 50
2, 2112, Note_on_c, 0, 74, 0
2, 2113, Note_on_c, 0, 75, 64
2, 2203, Note_on_c, 0, 62, 54
2, 2204, Note_on_c, 0, 75, 0
2, 2209, Note_on_c, 0, 74, 62
2, 2210, Note_on_c, 0, 63, 0
2, 2429, Control_c, 0, 64, 127
2, 2538, Note_on_c, 0, 74, 0
2, 2669, Note_on_c, 0, 62, 0
2, 2765, Note_on_c, 0, 72, 60
2, 2840, Note_on_c, 0, 67, 53
2, 2875, Note_on_c, 0, 72, 0
2, 2908, Note_on_c, 0, 67, 0
2, 2935, Control_c, 0, 64, 0
2, 2939, Note_on_c, 0, 63, 45
2, 2975, Note_on_c, 0, 55, 20
2, 2976, Note_on_c, 0, 58, 25
2, 2979, Note_on_c, 0, 48, 34
2, 2983, Note_on_c, 0, 63, 0
2, 3006, Note_on_c, 0, 62, 20
2, 3070, Note_on_c, 0, 62, 0
2, 3117, Note_on_c, 0, 62, 51
2, 3282, Control_c, 0, 64, 127
2, 3599, Note_on_c, 0, 55, 0
2, 3607, Note_on_c, 0, 48, 0
2, 3666, Note_on_c, 0, 58, 0
2, 3696, Note_on_c, 0, 62, 0
2, 4356, Note_on_c, 0, 67, 45
2, 4359, Note_on_c, 0, 58, 34
2, 4361, Control_c, 0, 64, 0
2, 4362, Note_on_c, 0, 63, 35
2, 4364, Note_on_c, 0, 60, 44
2, 4962, Note_on_c, 0, 72, 71
2, 4992, Note_on_c, 0, 72, 0
2, 5092, Note_on_c, 0, 74, 101
2, 5094, Note_on_c, 0, 79, 80
2, 5168, Note_on_c, 0, 75, 70
2, 5183, Note_on_c, 0, 74, 0
2, 5193, Note_on_c, 0, 79, 0
2, 5207, Note_on_c, 0, 75, 0
2, 5262, Note_on_c, 0, 74, 99
2, 5266, Note_on_c, 0, 79, 83
2, 5330, Note_on_c, 0, 75, 61
2, 5344, Note_on_c, 0, 74, 0
2, 5359, Note_on_c, 0, 79, 0
2, 5392, Note_on_c, 0, 75, 0
2, 5424, Note_on_c, 0, 74, 95
2, 5427, Note_on_c, 0, 79, 77
2, 5491, Note_on_c, 0, 74, 0
2, 5499, Note_on_c, 0, 75, 70
2, 5550, Note_on_c, 0, 79, 0
2, 5565, Note_on_c, 0, 75, 0
2, 5599, Note_on_c, 0, 79, 62
2, 5601, Note_on_c, 0, 74, 90
2, 5665, Note_on_c, 0, 74, 0
2, 5678, Note_on_c, 0, 75, 64
2, 5696, Note_on_c, 0, 67, 0
2, 5709, Note_on_c, 0, 63, 0
2, 5726, Note_on_c, 0, 60, 0
2, 5731, Note_on_c, 0, 79, 0
2, 5741, Note_on_c, 0, 58, 0
2, 5748, Note_on_c, 0, 75, 0
2, 5778, Note_on_c, 0, 74, 80
2, 5779, Note_on_c, 0, 79, 46
2, 5785, Note_on_c, 0, 63, 38
2, 5790, Note_on_c, 0, 67, 51
2, 5790, Note_on_c, 0, 57, 50
2, 5855, Note_on_c, 0, 74, 0
2, 5867, Note_on_c, 0, 75, 60
2, 5930, Note_on_c, 0, 75, 0
2, 5938, Note_on_c, 0, 79, 0
2, 5968, Note_on_c, 0, 74, 66
2, 5979, Note_on_c, 0, 79, 38
2, 6060, Note_on_c, 0, 74, 0
2, 6087, Note_on_c, 0, 72, 39
2, 6091, Note_on_c, 0, 67, 0
2, 6102, Control_c, 0, 64, 127
2, 6135, Note_on_c, 0, 79, 0
2, 6152, Note_on_c, 0, 72, 0
2, 6254, Note_on_c, 0, 69, 46
2, 6373, Note_on_c, 0, 63, 0
2, 6384, Note_on_c, 0, 69, 0
2, 6485, Note_on_c, 0, 60, 36
2, 6652, Note_on_c, 0, 60, 0
2, 6742, Note_on_c, 0, 60, 28
2, 7098, Note_on_c, 0, 57, 0
2, 7213, Note_on_c, 0, 60, 0
2, 7662, Control_c, 0, 64, 0
2, 7681, Note_on_c, 0, 63, 19
2, 7685, Note_on_c, 0, 53, 35
2, 7692, Note_on_c, 0, 60, 42
2, 7697, Note_on_c, 0, 58, 31
2, 8100, Control_c, 0, 64, 127
2, 8110, Note_on_c, 0, 63, 0
2, 8249, Control_c, 0, 64, 0
2, 8276, Note_on_c, 0, 63, 44
2, 8313, Note_on_c, 0, 63, 0
2, 8333, Note_on_c, 0, 67, 60
2, 8372, Note_on_c, 0, 67, 0
2, 8396, Note_on_c, 0, 70, 74
2, 8441, Note_on_c, 0, 70, 0
2, 8458, Note_on_c, 0, 67, 72
2, 8496, Note_on_c, 0, 67, 0
2, 8757, Note_on_c, 0, 68, 58
2, 8802, Note_on_c, 0, 68, 0
2, 8832, Note_on_c, 0, 70, 67
2, 8865, Note_on_c, 0, 70, 0
2, 8909, Note_on_c, 0, 72, 62
2, 8929, Note_on_c, 0, 72, 0
2, 8977, Note_on_c, 0, 75, 65
2, 9011, Note_on_c, 0, 75, 0
2, 9065, Note_on_c, 0, 76, 71
2, 9095, Note_on_c, 0, 76, 0
2, 9168, Note_on_c, 0, 79, 90
2, 9217, Note_on_c, 0, 79, 0
2, 9286, Note_on_c, 0, 77, 75
2, 9343, Note_on_c, 0, 77, 0
2, 9362, Note_on_c, 0, 72, 62
2, 9412, Note_on_c, 0, 72, 0
2, 9442, Note_on_c, 0, 68, 53
2, 9456, Note_on_c, 0, 60, 0
2, 9466, Note_on_c, 0, 53, 0
2, 9473, Note_on_c, 0, 58, 0
2, 9483, Note_on_c, 0, 68, 0
2, 9500, Note_on_c, 0, 67, 40
2, 9542, Note_on_c, 0, 67, 0
2, 9576, Note_on_c, 0, 70, 74
2, 9630, Note_on_c, 0, 70, 0
2, 9651, Note_on_c, 0, 68, 81
2, 9719, Note_on_c, 0, 68, 0
2, 9752, Note_on_c, 0, 70, 47
2, 9775, Note_on_c, 0, 68, 53
2, 9818, Note_on_c, 0, 70, 0
2, 9837, Note_on_c, 0, 67, 54
2, 9843, Note_on_c, 0, 68, 0
2, 9887, Note_on_c, 0, 67, 0
2, 9929, Note_on_c, 0, 65, 61
2, 9980, Note_on_c, 0, 65, 0
2, 9989, Note_on_c, 0, 64, 52
2, 10024, Note_on_c, 0, 64, 0
2, 10064, Note_on_c, 0, 67, 53
2, 10123, Note_on_c, 0, 67, 0
2, 10139, Note_on_c, 0, 64, 27
2, 10162, Note_on_c, 0, 64, 0
2, 10202, Note_on_c, 0, 65, 58
2, 10267, Note_on_c, 0, 65, 0
2, 10301, Note_on_c, 0, 60, 28
2, 10420, Note_on_c, 0, 60, 0
2, 11054, Note_on_c, 0, 63, 28
2, 11068, Note_on_c, 0, 56, 32
2, 11069, Note_on_c, 0, 53, 33
2, 11072, Note_on_c, 0, 60, 40
2, 11272, Note_on_c, 0, 60, 0
2, 11296, Note_on_c, 0, 53, 0
2, 11304, Note_on_c, 0, 63, 0
2, 11325, Note_on_c, 0, 56, 0
2, 11547, Note_on_c, 0, 60, 36
2, 11553, Note_on_c, 0, 56, 25
2, 11557, Note_on_c, 0, 50, 34
2, 11728, Note_on_c, 0, 67, 46
2, 11785, Note_on_c, 0, 67, 0
2, 11808, Note_on_c, 0, 68, 48
2, 11825, Note_on_c, 0, 68, 0
2, 11884, Note_on_c, 0, 72, 58
2, 11923, Note_on_c, 0, 72, 0
2, 11952, Note_on_c, 0, 74, 59
2, 11979, Note_on_c, 0, 74, 0
2, 12024, Note_on_c, 0, 77, 63
2, 12075, Note_on_c, 0, 77, 0
2, 12095, Note_on_c, 0, 79, 64
2, 12131, Note_on_c, 0, 79, 0
2, 12469, Note_on_c, 0, 77, 65
2, 12503, Note_on_c, 0, 77, 0
2, 12576, Note_on_c, 0, 79, 105
2, 12579, Note_on_c, 0, 86, 89
2, 12646, Note_on_c, 0, 80, 67
2, 12657, Note_on_c, 0, 79, 0
2, 12674, Note_on_c, 0, 86, 0
2, 12692, Note_on_c, 0, 80, 0
2, 12748, Note_on_c, 0, 79, 99
2, 12752, Note_on_c, 0, 86, 87
2, 12822, Note_on_c, 0, 79, 0
2, 12831, Note_on_c, 0, 80, 64
2, 12878, Note_on_c, 0, 86, 0
2, 12889, Note_on_c, 0, 80, 0
2, 12915, Note_on_c, 0, 79, 68
2, 12922, Note_on_c, 0, 86, 63
2, 13080, Note_on_c, 0, 50, 0
2, 13084, Note_on_c, 0, 56, 0
2, 13138, Note_on_c, 0, 60, 0
2, 13206, Note_on_c, 0, 86, 0
2, 13222, Note_on_c, 0, 79, 0
2, 13227, Note_on_c, 0, 77, 54
2, 13274, Note_on_c, 0, 77, 0
2, 13301, Note_on_c, 0, 75, 60
2, 13355, Note_on_c, 0, 75, 0
2, 13370, Note_on_c, 0, 71, 55
2, 13414, Note_on_c, 0, 71, 0
2, 13445, Note_on_c, 0, 82, 83
2, 13476, Note_on_c, 0, 64, 28
2, 13479, Note_on_c, 0, 59, 26
2, 13495, Note_on_c, 0, 53, 34
2, 13525, Note_on_c, 0, 82, 0
2, 13525, Note_on_c, 0, 80, 58
2, 13595, Note_on_c, 0, 80, 0
2, 13599, Note_on_c, 0, 75, 59
2, 13652, Note_on_c, 0, 75, 0
2, 13668, Note_on_c, 0, 71, 51
2, 13714, Note_on_c, 0, 71, 0
2, 13749, Note_on_c, 0, 70, 42
2, 13805, Note_on_c, 0, 70, 0
2, 13813, Note_on_c, 0, 64, 0
2, 13827, Note_on_c, 0, 68, 43
2, 13901, Note_on_c, 0, 68, 0
2, 13908, Note_on_c, 0, 67, 36
2, 13916, Note_on_c, 0, 59, 0
2, 13963, Note_on_c, 0, 53, 0
2, 14406, Note_on_c, 0, 67, 0
2, 14428, Note_on_c, 0, 43, 37
2, 14431, Note_on_c, 0, 53, 37
2, 14667, Note_on_c, 0, 65, 118
2, 14763, Note_on_c, 0, 65, 0
2, 14804, Note_on_c, 0, 63, 88
2, 14899, Note_on_c, 0, 63, 0
2, 14922, Note_on_c, 0, 59, 61
2, 14940, Note_on_c, 0, 53, 0
2, 15010, Note_on_c, 0, 59, 0
2, 15042, Note_on_c, 0, 55, 73
2, 15108, Note_on_c, 0, 55, 0
2, 15139, Note_on_c, 0, 51, 48
2, 15144, Note_on_c, 0, 43, 0
2, 15241, Note_on_c, 0, 51, 0
2, 15275, Note_on_c, 0, 50, 58
2, 15330, Note_on_c, 0, 50, 0
2, 15358, Note_on_c, 0, 53, 83
2, 15487, Note_on_c, 0, 53, 0
2, 15503, Note_on_c, 0, 50, 46
2, 15536, Note_on_c, 0, 50, 0
2, 15552, Note_on_c, 0, 24, 43
2, 15577, Note_on_c, 0, 51, 67
2, 15580, Note_on_c, 0, 24, 0
2, 15753, Note_on_c, 0, 47, 39
2, 15757, Note_on_c, 0, 51, 0
2, 15778, Note_on_c, 0, 47, 0
2, 15819, Note_on_c, 0, 50, 59
2, 15965, Note_on_c, 0, 50, 0
2, 15983, Note_on_c, 0, 47, 40
2, 16028, Note_on_c, 0, 47, 0
2, 16061, Note_on_c, 0, 48, 59
2, 16207, Note_on_c, 0, 48, 0
2, 16565, Note_on_c, 0, 67, 47
2, 16566, Note_on_c, 0, 63, 34
2, 16567, Note_on_c, 0, 62, 43
2, 16603, Note_on_c, 0, 67, 0
2, 16613, Note_on_c, 0, 62, 0
2, 16621, Note_on_c, 0, 63, 0
2, 16793, Note_on_c, 0, 63, 37
2, 16794, Note_on_c, 0, 62, 54
2, 16795, Note_on_c, 0, 67, 43
2, 16838, Note_on_c, 0, 67, 0
2, 16861, Note_on_c, 0, 62, 0
2, 16867, Note_on_c, 0, 63, 0
2, 17030, Note_on_c, 0, 62, 48
2, 17032, Note_on_c, 0, 63, 32
2, 17036, Note_on_c, 0, 67, 36
2, 17127, Note_on_c, 0, 63, 0
2, 17132, Note_on_c, 0, 62, 0
2, 17134, Note_on_c, 0, 67, 0
2, 17523, Note_on_c, 0, 59, 43
2, 17525, Note_on_c, 0, 67, 46
2, 17532, Note_on_c, 0, 63, 39
2, 17534, Note_on_c, 0, 62, 45
2, 17608, Note_on_c, 0, 62, 0
2, 17627, Note_on_c, 0, 67, 0
2, 17635, Note_on_c, 0, 59, 0
2, 17640, Note_on_c, 0, 63, 0
2, 17754, Note_on_c, 0, 59, 36
2, 17755, Note_on_c, 0, 63, 34
2, 17757, Note_on_c, 0, 67, 40
2, 17764, Note_on_c, 0, 62, 40
2, 17846, Note_on_c, 0, 62, 0
2, 17866, Note_on_c, 0, 67, 0
2, 17874, Note_on_c, 0, 59, 0
2, 17876, Note_on_c, 0, 63, 0
2, 18001, Note_on_c, 0, 67, 36
2, 18001, Note_on_c, 0, 59, 34
2, 18005, Note_on_c, 0, 63, 32
2, 18007, Note_on_c, 0, 62, 39
2, 18095, Note_on_c, 0, 63, 0
2, 18097, Note_on_c, 0, 67, 0
2, 18099, Note_on_c, 0, 62, 0
2, 18104, Note_on_c, 0, 59, 0
2, 18243, Note_on_c, 0, 74, 85
2, 18311, Note_on_c, 0, 74, 0
2, 18402, Note_on_c, 0, 79, 48
2, 18425, Note_on_c, 0, 79, 0
2, 18479, Note_on_c, 0, 67, 55
2, 18480, Note_on_c, 0, 63, 40
2, 18481, Note_on_c, 0, 74, 95
2, 18482, Note_on_c, 0, 62, 44
2, 18484, Note_on_c, 0, 83, 87
2, 18486, Note_on_c, 0, 59, 44
2, 18488, Note_on_c, 0, 86, 80
2, 18613, Note_on_c, 0, 86, 0
2, 18619, Note_on_c, 0, 74, 0
2, 18623, Note_on_c, 0, 83, 0
2, 18638, Note_on_c, 0, 59, 0
2, 18644, Note_on_c, 0, 67, 0
2, 18650, Note_on_c, 0, 62, 0
2, 18672, Note_on_c, 0, 63, 0
2, 18714, Note_on_c, 0, 74, 66
2, 18791, Note_on_c, 0, 74, 0
2, 18890, Note_on_c, 0, 79, 38
2, 18912, Note_on_c, 0, 79, 0
2, 18950, Note_on_c, 0, 67, 66
2, 18952, Note_on_c, 0, 62, 60
2, 18955, Note_on_c, 0, 59, 57
2, 18956, Note_on_c, 0, 63, 39
2, 18962, Note_on_c, 0, 74, 84
2, 18967, Note_on_c, 0, 86, 89
2, 18975, Note_on_c, 0, 84, 36
2, 18991, Note_on_c, 0, 84, 0
2, 19078, Note_on_c, 0, 59, 0
2, 19099, Note_on_c, 0, 86, 0
2, 19104, Note_on_c, 0, 74, 0
2, 19109, Note_on_c, 0, 62, 0
2, 19119, Note_on_c, 0, 67, 0
2, 19124, Note_on_c, 0, 63, 0
2, 19205, Note_on_c, 0, 67, 68
2, 19210, Note_on_c, 0, 58, 47
2, 19210, Note_on_c, 0, 62, 58
2, 19215, Note_on_c, 0, 63, 36
2, 19216, Note_on_c, 0, 74, 71
2, 19277, Note_on_c, 0, 62, 0
2, 19284, Note_on_c, 0, 67, 0
2, 19290, Note_on_c, 0, 63, 0
2, 19294, Note_on_c, 0, 58, 0
2, 19305, Note_on_c, 0, 74, 0
2, 19364, Note_on_c, 0, 80, 49
2, 19409, Note_on_c, 0, 80, 0
2, 19460, Note_on_c, 0, 74, 96
2, 19461, Note_on_c, 0, 86, 85
2, 19465, Note_on_c, 0, 85, 71
2, 19469, Note_on_c, 0, 80, 51
2, 19486, Note_on_c, 0, 80, 0
2, 19509, Note_on_c, 0, 85, 0
2, 19577, Note_on_c, 0, 86, 0
2, 19584, Note_on_c, 0, 80, 25
2, 19599, Note_on_c, 0, 74, 0
2, 19603, Note_on_c, 0, 80, 0
2, 19693, Note_on_c, 0, 75, 87
2, 19694, Note_on_c, 0, 87, 81
2, 19696, Note_on_c, 0, 58, 57
2, 19697, Note_on_c, 0, 67, 63
2, 19699, Note_on_c, 0, 62, 59
2, 19699, Note_on_c, 0, 79, 66
2, 19700, Note_on_c, 0, 82, 61
2, 19701, Note_on_c, 0, 63, 37
2, 19803, Note_on_c, 0, 79, 0
2, 19817, Note_on_c, 0, 75, 0
2, 19818, Note_on_c, 0, 87, 0
2, 19823, Note_on_c, 0, 82, 0
2, 19864, Note_on_c, 0, 86, 53
2, 19865, Note_on_c, 0, 74, 62
2, 19866, Note_on_c, 0, 82, 33
2, 19873, Note_on_c, 0, 79, 33
2, 19892, Note_on_c, 0, 86, 0
2, 19899, Note_on_c, 0, 74, 0
2, 19913, Note_on_c, 0, 67, 0
2, 19915, Note_on_c, 0, 79, 0
2, 19919, Note_on_c, 0, 82, 0
2, 19960, Note_on_c, 0, 82, 44
2, 19961, Note_on_c, 0, 70, 64
2, 20058, Note_on_c, 0, 82, 0
2, 20081, Note_on_c, 0, 70, 0
2, 20171, Note_on_c, 0, 79, 48
2, 20177, Note_on_c, 0, 74, 39
2, 20181, Note_on_c, 0, 67, 30
2, 20241, Note_on_c, 0, 63, 0
2, 20243, Note_on_c, 0, 67, 0
2, 20254, Note_on_c, 0, 74, 0
2, 20256, Note_on_c, 0, 58, 0
2, 20265, Note_on_c, 0, 62, 0
2, 20269, Note_on_c, 0, 79, 0
2, 20664, Note_on_c, 0, 58, 32
2, 20666, Note_on_c, 0, 67, 26
2, 20667, Note_on_c, 0, 62, 32
2, 20675, Note_on_c, 0, 63, 27
2, 20743, Note_on_c, 0, 67, 0
2, 20752, Note_on_c, 0, 62, 0
2, 20756, Note_on_c, 0, 63, 0
2, 20828, Note_on_c, 0, 58, 0
2, 21144, Note_on_c, 0, 63, 36
2, 21146, Note_on_c, 0, 67, 41
2, 21148, Note_on_c, 0, 57, 45
2, 21883, Note_on_c, 0, 74, 101
2, 21935, Note_on_c, 0, 74, 0
2, 21961, Note_on_c, 0, 77, 67
2, 22037, Note_on_c, 0, 77, 0
2, 22045, Note_on_c, 0, 75, 68
2, 22102, Note_on_c, 0, 75, 0
2, 22125, Note_on_c, 0, 71, 48
2, 22169, Note_on_c, 0, 71, 0
2, 22198, Note_on_c, 0, 74, 74
2, 22262, Note_on_c, 0, 67, 0
2, 22283, Note_on_c, 0, 74, 0
2, 22288, Note_on_c, 0, 72, 58
2, 22333, Note_on_c, 0, 72, 0
2, 22364, Note_on_c, 0, 67, 45
2, 22391, Note_on_c, 0, 63, 0
2, 22416, Note_on_c, 0, 67, 0
2, 22455, Note_on_c, 0, 63, 53
2, 22482, Note_on_c, 0, 57, 0
2, 22526, Note_on_c, 0, 63, 0
2, 22543, Note_on_c, 0, 60, 50
2, 22579, Note_on_c, 0, 60, 0
2, 22629, Note_on_c, 0, 62, 95
2, 22704, Note_on_c, 0, 62, 0
2, 22720, Note_on_c, 0, 63, 49
2, 22751, Note_on_c, 0, 62, 55
2, 22790, Note_on_c, 0, 63, 0
2, 22813, Note_on_c, 0, 62, 0
2, 22816, Note_on_c, 0, 60, 57
2, 22911, Note_on_c, 0, 60, 0
2, 22945, Note_on_c, 0, 58, 59
2, 23004, Note_on_c, 0, 58, 0
2, 23048, Note_on_c, 0, 56, 63
2, 23133, Note_on_c, 0, 56, 0
2, 23232, Note_on_c, 0, 55, 68
2, 23322, Note_on_c, 0, 55, 0
2, 23379, Note_on_c, 0, 48, 20
2, 23411, Note_on_c, 0, 48, 0
2, 23431, Note_on_c, 0, 51, 60
2, 23964, Note_on_c, 0, 51, 0
2, 24016, Note_on_c, 0, 51, 27
2, 24021, Note_on_c, 0, 44, 29
2, 24155, Note_on_c, 0, 53, 45
2, 24188, Note_on_c, 0, 53, 0
2, 24258, Note_on_c, 0, 55, 35
2, 24281, Note_on_c, 0, 55, 0
2, 24327, Note_on_c, 0, 56, 43
2, 24372, Note_on_c, 0, 56, 0
2, 24397, Note_on_c, 0, 58, 57
2, 24427, Note_on_c, 0, 58, 0
2, 24447, Note_on_c, 0, 44, 0
2, 24461, Note_on_c, 0, 51, 0
2, 24467, Note_on_c, 0, 60, 66
2, 24516, Note_on_c, 0, 60, 0
2, 24537, Note_on_c, 0, 63, 49
2, 24573, Note_on_c, 0, 63, 0
2, 24613, Note_on_c, 0, 65, 66
2, 24658, Note_on_c, 0, 65, 0
2, 24668, Note_on_c, 0, 68, 58
2, 24721, Note_on_c, 0, 68, 0
2, 24726, Note_on_c, 0, 70, 59
2, 24758, Note_on_c, 0, 70, 0
2, 24779, Note_on_c, 0, 72, 64
2, 24817, Note_on_c, 0, 72, 0
2, 24830, Note_on_c, 0, 75, 56
2, 24865, Note_on_c, 0, 75, 0
2, 24897, Note_on_c, 0, 77, 44
2, 24942, Note_on_c, 0, 77, 0
2, 24943, Note_on_c, 0, 80, 51
2, 25006, Note_on_c, 0, 80, 0
2, 25006, Note_on_c, 0, 82, 57
2, 25050, Note_on_c, 0, 82, 0
2, 25055, Note_on_c, 0, 84, 56
2, 25108, Note_on_c, 0, 84, 0
2, 25110, Note_on_c, 0, 63, 35
2, 25118, Note_on_c, 0, 82, 64
2, 25127, Note_on_c, 0, 58, 34
2, 25128, Note_on_c, 0, 53, 45
2, 25177, Note_on_c, 0, 82, 0
2, 25354, Note_on_c, 0, 80, 73
2, 25402, Note_on_c, 0, 80, 0
2, 25429, Note_on_c, 0, 82, 57
2, 25440, Note_on_c, 0, 80, 42
2, 25476, Note_on_c, 0, 82, 0
2, 25496, Note_on_c, 0, 77, 52
2, 25504, Note_on_c, 0, 80, 0
2, 25540, Note_on_c, 0, 77, 0
2, 25564, Note_on_c, 0, 75, 60
2, 25600, Note_on_c, 0, 75, 0
2, 25700, Note_on_c, 0, 79, 68
2, 25760, Note_on_c, 0, 79, 0
2, 25836, Note_on_c, 0, 75, 77
2, 25885, Note_on_c, 0, 75, 0
2, 25920, Note_on_c, 0, 77, 51
2, 25936, Note_on_c, 0, 75, 50
2, 25963, Note_on_c, 0, 77, 0
2, 25992, Note_on_c, 0, 75, 0
2, 25996, Note_on_c, 0, 72, 43
2, 26020, Note_on_c, 0, 72, 0
2, 26064, Note_on_c, 0, 68, 64
2, 26099, Note_on_c, 0, 68, 0
2, 26146, Note_on_c, 0, 70, 70
2, 26195, Note_on_c, 0, 70, 0
2, 26251, Note_on_c, 0, 65, 58
2, 26272, Note_on_c, 0, 65, 0
2, 26331, Note_on_c, 0, 68, 69
2, 26380, Note_on_c, 0, 68, 0
2, 26415, Note_on_c, 0, 70, 56
2, 26440, Note_on_c, 0, 68, 59
2, 26460, Note_on_c, 0, 63, 0
2, 26471, Note_on_c, 0, 70, 0
2, 26498, Note_on_c, 0, 65, 44
2, 26501, Note_on_c, 0, 68, 0
2, 26536, Note_on_c, 0, 65, 0
2, 26595, Note_on_c, 0, 63, 56
2, 26663, Note_on_c, 0, 63, 0
2, 26670, Note_on_c, 0, 58, 0
2, 26674, Note_on_c, 0, 60, 44
2, 26703, Note_on_c, 0, 53, 0
2, 26747, Note_on_c, 0, 60, 0
2, 26774, Note_on_c, 0, 62, 63
2, 26828, Note_on_c, 0, 62, 0
2, 26866, Note_on_c, 0, 63, 60
2, 26937, Note_on_c, 0, 63, 0
2, 26976, Note_on_c, 0, 62, 66
2, 27188, Note_on_c, 0, 56, 53
2, 27188, Note_on_c, 0, 50, 57
2, 27623, Note_on_c, 0, 62, 0
2, 27625, Note_on_c, 0, 60, 61
2, 27714, Note_on_c, 0, 60, 0
2, 27754, Note_on_c, 0, 62, 80
2, 27822, Note_on_c, 0, 62, 0
2, 27856, Note_on_c, 0, 60, 51
2, 27858, Note_on_c, 0, 63, 84
2, 27953, Note_on_c, 0, 63, 0
2, 27979, Note_on_c, 0, 65, 81
2, 28060, Note_on_c, 0, 65, 0
2, 28082, Note_on_c, 0, 63, 65
2, 28087, Note_on_c, 0, 60, 0
2, 28371, Control_c, 0, 64, 127
2, 28581, Note_on_c, 0, 63, 0
2, 28586, Note_on_c, 0, 56, 0
2, 28593, Note_on_c, 0, 62, 61
2, 28618, Note_on_c, 0, 50, 0
2, 28697, Note_on_c, 0, 62, 0
2, 28704, Note_on_c, 0, 60, 55
2, 28766, Note_on_c, 0, 60, 0
2, 28809, Control_c, 0, 64, 0
2, 28816, Note_on_c, 0, 46, 59
2, 28821, Note_on_c, 0, 56, 34
2, 28826, Note_on_c, 0, 63, 53
2, 28826, Note_on_c, 0, 70, 56
2, 28830, Note_on_c, 0, 60, 52
2, 28842, Note_on_c, 0, 65, 34
2, 29036, Note_on_c, 0, 70, 0
2, 29063, Note_on_c, 0, 68, 56
2, 29146, Control_c, 0, 64, 127
2, 29195, Note_on_c, 0, 63, 0
2, 29281, Note_on_c, 0, 65, 0
2, 29287, Note_on_c, 0, 60, 0
2, 29308, Note_on_c, 0, 63, 46
2, 29373, Note_on_c, 0, 56, 0
2, 29376, Note_on_c, 0, 46, 0
2, 29528, Note_on_c, 0, 60, 49
2, 29538, Note_on_c, 0, 68, 0
2, 29555, Note_on_c, 0, 63, 0
2, 29571, Note_on_c, 0, 60, 0
2, 29753, Control_c, 0, 64, 0
2, 29772, Note_on_c, 0, 67, 46
2, 29773, Note_on_c, 0, 62, 35
2, 29777, Note_on_c, 0, 74, 45
2, 29783, Note_on_c, 0, 66, 32
2, 29785, Note_on_c, 0, 60, 34
2, 29790, Note_on_c, 0, 56, 25
2, 29863, Control_c, 0, 64, 127
2, 30008, Note_on_c, 0, 67, 0
2, 30036, Note_on_c, 0, 60, 0
2, 30051, Note_on_c, 0, 74, 0
2, 30068, Note_on_c, 0, 66, 0
2, 30124, Note_on_c, 0, 62, 0
2, 30272, Control_c, 0, 64, 0
2, 30283, Note_on_c, 0, 66, 50
2, 30291, Note_on_c, 0, 62, 39
2, 30302, Note_on_c, 0, 89, 83
2, 30310, Note_on_c, 0, 60, 30
2, 30352, Note_on_c, 0, 89, 0
2, 30447, Note_on_c, 0, 86, 73
2, 30484, Note_on_c, 0, 86, 0
2, 30529, Note_on_c, 0, 87, 71
2, 30541, Note_on_c, 0, 66, 0
2, 30564, Note_on_c, 0, 60, 0
2, 30565, Note_on_c, 0, 87, 0
2, 30598, Note_on_c, 0, 62, 0
2, 30683, Note_on_c, 0, 89, 79
2, 30711, Note_on_c, 0, 56, 0
2, 30720, Note_on_c, 0, 89, 0
2, 30746, Note_on_c, 0, 55, 43
2, 30747, Note_on_c, 0, 62, 36
2, 30751, Note_on_c, 0, 65, 43
2, 30756, Note_on_c, 0, 60, 47
2, 30759, Note_on_c, 0, 86, 66
2, 30795, Note_on_c, 0, 86, 0
2, 30839, Note_on_c, 0, 82, 53
2, 30883, Note_on_c, 0, 82, 0
2, 30916, Note_on_c, 0, 84, 59
2, 30956, Note_on_c, 0, 84, 0
2, 30989, Note_on_c, 0, 86, 64
2, 31031, Note_on_c, 0, 86, 0
2, 31063, Note_on_c, 0, 82, 53
2, 31111, Note_on_c, 0, 82, 0
2, 31176, Note_on_c, 0, 79, 54
2, 31220, Note_on_c, 0, 79, 0
2, 31306, Note_on_c, 0, 80, 63
2, 31359, Note_on_c, 0, 80, 0
2, 31378, Note_on_c, 0, 82, 64
2, 31434, Note_on_c, 0, 82, 0
2, 31460, Note_on_c, 0, 79, 50
2, 31509, Note_on_c, 0, 79, 0
2, 31569, Note_on_c, 0, 74, 45
2, 31621, Note_on_c, 0, 74, 0
2, 31629, Note_on_c, 0, 75, 47
2, 31674, Note_on_c, 0, 75, 0
2, 31697, Note_on_c, 0, 77, 52
2, 31740, Note_on_c, 0, 77, 0
2, 31771, Note_on_c, 0, 75, 62
2, 31804, Note_on_c, 0, 75, 0
2, 31933, Note_on_c, 0, 69, 61
2, 31972, Note_on_c, 0, 69, 0
2, 31997, Note_on_c, 0, 70, 62
2, 32036, Note_on_c, 0, 70, 0
2, 32067, Note_on_c, 0, 72, 57
2, 32113, Note_on_c, 0, 72, 0
2, 32148, Note_on_c, 0, 70, 51
2, 32246, Note_on_c, 0, 65, 0
2, 32272, Note_on_c, 0, 62, 0
2, 32299, Note_on_c, 0, 60, 0
2, 32359, Note_on_c, 0, 55, 0
2, 32626, Control_c, 0, 64, 127
2, 32721, Note_on_c, 0, 70, 0
2, 32867, Control_c, 0, 64, 0
2, 32905, Note_on_c, 0, 70, 62
2, 32909, Note_on_c, 0, 60, 64
2, 32911, Note_on_c, 0, 55, 57
2, 32912, Note_on_c, 0, 65, 68
2, 33007, Note_on_c, 0, 60, 0
2, 33009, Note_on_c, 0, 65, 0
2, 33016, Note_on_c, 0, 70, 0
2, 33029, Note_on_c, 0, 55, 0
2, 33061, Note_on_c, 0, 54, 30
2, 33155, Note_on_c, 0, 70, 57
2, 33160, Note_on_c, 0, 65, 55
2, 33161, Note_on_c, 0, 60, 49
2, 33165, Note_on_c, 0, 55, 51
2, 33174, Note_on_c, 0, 54, 0
2, 33185, Control_c, 0, 64, 127
2, 33245, Note_on_c, 0, 65, 0
2, 33265, Note_on_c, 0, 60, 0
2, 33291, Note_on_c, 0, 70, 0
2, 33347, Note_on_c, 0, 55, 0
2, 33391, Note_on_c, 0, 62, 69
2, 33392, Note_on_c, 0, 72, 68
2, 33395, Note_on_c, 0, 67, 67
2, 33395, Note_on_c, 0, 58, 52
2, 33402, Control_c, 0, 64, 0
2, 33512, Control_c, 0, 64, 127
2, 33643, Note_on_c, 0, 67, 0
2, 33646, Note_on_c, 0, 72, 0
2, 33669, Note_on_c, 0, 58, 0
2, 33670, Note_on_c, 0, 62, 0
2, 33854, Control_c, 0, 64, 0
2, 33855, Note_on_c, 0, 70, 60
2, 33861, Note_on_c, 0, 65, 66
2, 33863, Note_on_c, 0, 60, 48
2, 33875, Note_on_c, 0, 56, 49
2, 33964, Control_c, 0, 64, 127
2, 33996, Note_on_c, 0, 56, 0
2, 34024, Note_on_c, 0, 65, 0
2, 34031, Note_on_c, 0, 60, 0
2, 34038, Note_on_c, 0, 70, 0
2, 34097, Note_on_c, 0, 46, 50
2, 34104, Control_c, 0, 64, 0
2, 34107, Note_on_c, 0, 63, 52
2, 34108, Note_on_c, 0, 68, 54
2, 34108, Note_on_c, 0, 56, 45
2, 34109, Note_on_c, 0, 60, 49
2, 34201, Control_c, 0, 64, 127
2, 34287, Note_on_c, 0, 46, 0
2, 34299, Note_on_c, 0, 60, 0
2, 34303, Note_on_c, 0, 56, 0
2, 34353, Note_on_c, 0, 60, 47
2, 34364, Note_on_c, 0, 68, 0
2, 34392, Note_on_c, 0, 60, 0
2, 34408, Note_on_c, 0, 63, 0
2, 34562, Control_c, 0, 64, 0
2, 34576, Note_on_c, 0, 67, 47
2, 34580, Note_on_c, 0, 62, 42
2, 34584, Note_on_c, 0, 39, 35
2, 34585, Note_on_c, 0, 55, 35
2, 34592, Note_on_c, 0, 46, 33
2, 34679, Control_c, 0, 64, 127
2, 34682, Note_on_c, 0, 55, 0
2, 34759, Note_on_c, 0, 62, 0
2, 34763, Note_on_c, 0, 39, 0
2, 34783, Note_on_c, 0, 46, 0
2, 34792, Note_on_c, 0, 67, 0
2, 35179, Control_c, 0, 64, 0
2, 35190, Note_on_c, 0, 70, 59
2, 35191, Note_on_c, 0, 77, 61
2, 35192, Note_on_c, 0, 62, 44
2, 35193, Note_on_c, 0, 65, 69
2, 35194, Note_on_c, 0, 74, 54
2, 35196, Note_on_c, 0, 60, 61
2, 35199, Note_on_c, 0, 67, 47
2, 35203, Note_on_c, 0, 55, 43
2, 35237, Control_c, 0, 64, 127
2, 35242, Note_on_c, 0, 67, 0
2, 35265, Note_on_c, 0, 65, 0
2, 35279, Note_on_c, 0, 70, 0
2, 35285, Note_on_c, 0, 62, 0
2, 35286, Note_on_c, 0, 60, 0
2, 35291, Note_on_c, 0, 55, 0
2, 35299, Note_on_c, 0, 74, 0
2, 35323, Note_on_c, 0, 77, 0
2, 35777, Control_c, 0, 64, 0
2, 35783, Note_on_c, 0, 94, 91
2, 35783, Note_on_c, 0, 68, 82
2, 35784, Note_on_c, 0, 58, 63
2, 35784, Note_on_c, 0, 63, 60
2, 35784, Note_on_c, 0, 82, 95
2, 35785, Note_on_c, 0, 87, 90
2, 35786, Note_on_c, 0, 60, 74
2, 35799, Note_on_c, 0, 92, 33
2, 35814, Note_on_c, 0, 92, 0
2, 35868, Control_c, 0, 64, 127
2, 35899, Note_on_c, 0, 87, 0
2, 35899, Note_on_c, 0, 58, 0
2, 35900, Note_on_c, 0, 94, 0
2, 35903, Note_on_c, 0, 82, 0
2, 35905, Note_on_c, 0, 68, 0
2, 35906, Control_c, 0, 64, 0
2, 35915, Note_on_c, 0, 60, 0
2, 35925, Note_on_c, 0, 63, 0
2, 35948, Note_on_c, 0, 58, 55
2, 35949, Note_on_c, 0, 68, 60
2, 35949, Note_on_c, 0, 94, 70
2, 35952, Note_on_c, 0, 82, 67
2, 35954, Note_on_c, 0, 87, 76
2, 35958, Note_on_c, 0, 63, 46
2, 35962, Note_on_c, 0, 60, 64
2, 35970, Note_on_c, 0, 92, 30
2, 35989, Note_on_c, 0, 92, 0
2, 35994, Control_c, 0, 64, 127
2, 36022, Note_on_c, 0, 94, 0
2, 36037, Note_on_c, 0, 82, 0
2, 36039, Note_on_c, 0, 68, 0
2, 36043, Note_on_c, 0, 58, 0
2, 36045, Note_on_c, 0, 87, 0
2, 36048, Note_on_c, 0, 60, 0
2, 36068, Note_on_c, 0, 63, 0
2, 36099, Control_c, 0, 64, 0
2, 36105, Note_on_c, 0, 90, 62
2, 36106, Note_on_c, 0, 66, 67
2, 36108, Note_on_c, 0, 78, 70
2, 36109, Note_on_c, 0, 62, 72
2, 36110, Note_on_c, 0, 85, 77
2, 36118, Note_on_c, 0, 56, 55
2, 36171, Control_c, 0, 64, 127
2, 36203, Note_on_c, 0, 66, 0
2, 36207, Note_on_c, 0, 90, 0
2, 36211, Note_on_c, 0, 78, 0
2, 36216, Note_on_c, 0, 56, 0
2, 36219, Note_on_c, 0, 85, 0
2, 36235, Note_on_c, 0, 62, 0
2, 36247, Note_on_c, 0, 66, 52
2, 36250, Note_on_c, 0, 62, 22
2, 36252, Note_on_c, 0, 56, 61
2, 36254, Note_on_c, 0, 78, 55
2, 36255, Note_on_c, 0, 90, 49
2, 36257, Note_on_c, 0, 85, 70
2, 36313, Note_on_c, 0, 90, 0
2, 36315, Note_on_c, 0, 78, 0
2, 36318, Note_on_c, 0, 85, 0
2, 36330, Note_on_c, 0, 66, 0
2, 36351, Note_on_c, 0, 62, 0
2, 36357, Note_on_c, 0, 56, 0
2, 36388, Control_c, 0, 64, 0
2, 36398, Note_on_c, 0, 62, 42
2, 36399, Note_on_c, 0, 86, 71
2, 36402, Note_on_c, 0, 74, 70
2, 36405, Note_on_c, 0, 65, 65
2, 36413, Note_on_c, 0, 60, 44
2, 36415, Note_on_c, 0, 55, 55
2, 36426, Note_on_c, 0, 58, 34
2, 36470, Control_c, 0, 64, 127
2, 36508, Note_on_c, 0, 86, 0
2, 36511, Note_on_c, 0, 55, 0
2, 36522, Note_on_c, 0, 65, 0
2, 36524, Note_on_c, 0, 60, 0
2, 36528, Note_on_c, 0, 74, 0
2, 36529, Note_on_c, 0, 58, 0
2, 36532, Note_on_c, 0, 62, 0
2, 36542, Control_c, 0, 64, 0
2, 36562, Note_on_c, 0, 86, 44
2, 36563, Note_on_c, 0, 74, 70
2, 36567, Note_on_c, 0, 65, 51
2, 36572, Note_on_c, 0, 62, 43
2, 36576, Note_on_c, 0, 55, 30
2, 36584, Note_on_c, 0, 60, 36
2, 36595, Control_c, 0, 64, 127
2, 36609, Note_on_c, 0, 86, 0
2, 36638, Note_on_c, 0, 74, 0
2, 36641, Note_on_c, 0, 55, 0
2, 36642, Note_on_c, 0, 60, 0
2, 36645, Note_on_c, 0, 65, 0
2, 36657, Note_on_c, 0, 62, 0
2, 36687, Control_c, 0, 64, 0
2, 36708, Note_on_c, 0, 82, 60
2, 36711, Note_on_c, 0, 65, 49
2, 36718, Note_on_c, 0, 70, 59
2, 36720, Note_on_c, 0, 62, 40
2, 36724, Note_on_c, 0, 55, 42
2, 36729, Note_on_c, 0, 60, 42
2, 36744, Control_c, 0, 64, 127
2, 36803, Note_on_c, 0, 60, 0
2, 36804, Note_on_c, 0, 65, 0
2, 36809, Note_on_c, 0, 62, 0
2, 36813, Note_on_c, 0, 82, 0
2, 36824, Note_on_c, 0, 55, 0
2, 36829, Note_on_c, 0, 70, 0
2, 36859, Note_on_c, 0, 82, 52
2, 36864, Note_on_c, 0, 70, 62
2, 36864, Note_on_c, 0, 55, 22
2, 36872, Note_on_c, 0, 65, 46
2, 36878, Note_on_c, 0, 62, 31
2, 36937, Note_on_c, 0, 82, 0
2, 36939, Note_on_c, 0, 65, 0
2, 36944, Note_on_c, 0, 62, 0
2, 36948, Note_on_c, 0, 70, 0
2, 36975, Note_on_c, 0, 55, 0
2, 37009, Control_c, 0, 64, 0
2, 37017, Note_on_c, 0, 79, 54
2, 37019, Note_on_c, 0, 65, 50
2, 37021, Note_on_c, 0, 55, 39
2, 37022, Note_on_c, 0, 62, 43
2, 37022, Note_on_c, 0, 67, 49
2, 37035, Note_on_c, 0, 60, 34
2, 37067, Control_c, 0, 64, 127
2, 37085, Note_on_c, 0, 65, 0
2, 37097, Note_on_c, 0, 67, 0
2, 37098, Note_on_c, 0, 79, 0
2, 37099, Note_on_c, 0, 60, 0
2, 37100, Note_on_c, 0, 62, 0
2, 37134, Control_c, 0, 64, 0
2, 37158, Note_on_c, 0, 79, 33
2, 37162, Note_on_c, 0, 65, 46
2, 37166, Note_on_c, 0, 67, 48
2, 37168, Control_c, 0, 64, 127
2, 37169, Note_on_c, 0, 62, 32
2, 37176, Note_on_c, 0, 60, 36
2, 37192, Note_on_c, 0, 58, 1
2, 37202, Note_on_c, 0, 55, 0
2, 37213, Note_on_c, 0, 65, 0
2, 37230, Note_on_c, 0, 79, 0
2, 37235, Note_on_c, 0, 62, 0
2, 37244, Note_on_c, 0, 67, 0
2, 37256, Note_on_c, 0, 60, 0
2, 37287, Note_on_c, 0, 58, 0
2, 37322, Control_c, 0, 64, 0
2, 37337, Note_on_c, 0, 77, 56
2, 37340, Note_on_c, 0, 66, 46
2, 37340, Note_on_c, 0, 62, 53
2, 37341, Note_on_c, 0, 70, 59
2, 37343, Note_on_c, 0, 56, 46
2, 37433, Control_c, 0, 64, 127
2, 37680, Note_on_c, 0, 66, 0
2, 37755, Note_on_c, 0, 62, 0
2, 37812, Note_on_c, 0, 70, 0
2, 37819, Note_on_c, 0, 56, 0
2, 37895, Control_c, 0, 64, 0
2, 37896, Note_on_c, 0, 70, 38
2, 37900, Note_on_c, 0, 73, 28
2, 37900, Note_on_c, 0, 65, 55
2, 37901, Note_on_c, 0, 56, 49
2, 37907, Note_on_c, 0, 66, 40
2, 37917, Note_on_c, 0, 63, 36
2, 37926, Note_on_c, 0, 61, 34
2, 37976, Control_c, 0, 64, 127
2, 38102, Note_on_c, 0, 65, 0
2, 38182, Note_on_c, 0, 66, 0
2, 38208, Note_on_c, 0, 70, 0
2, 38219, Note_on_c, 0, 73, 0
2, 38228, Note_on_c, 0, 61, 0
2, 38229, Note_on_c, 0, 63, 0
2, 38267, Note_on_c, 0, 56, 0
2, 38290, Note_on_c, 0, 77, 0
2, 38367, Control_c, 0, 64, 0
2, 38385, Note_on_c, 0, 70, 35
2, 38386, Note_on_c, 0, 67, 34
2, 38387, Note_on_c, 0, 62, 30
2, 38390, Note_on_c, 0, 55, 36
2, 38397, Note_on_c, 0, 60, 33
2, 38477, Control_c, 0, 64, 127
2, 38646, Note_on_c, 0, 67, 0
2, 38685, Note_on_c, 0, 70, 0
2, 38698, Note_on_c, 0, 60, 0
2, 38751, Note_on_c, 0, 62, 0
2, 38867, Note_on_c, 0, 62, 29
2, 38880, Note_on_c, 0, 65, 24
2, 38934, Control_c, 0, 64, 0
2, 39025, Note_on_c, 0, 65, 0
2, 39033, Note_on_c, 0, 79, 47
2, 39065, Note_on_c, 0, 62, 0
2, 39088, Note_on_c, 0, 79, 0
2, 39120, Note_on_c, 0, 80, 25
2, 39126, Note_on_c, 0, 55, 0
2, 39144, Note_on_c, 0, 80, 0
2, 39196, Note_on_c, 0, 84, 60
2, 39252, Note_on_c, 0, 84, 0
2, 39275, Note_on_c, 0, 88, 82
2, 39322, Note_on_c, 0, 88, 0
2, 39356, Note_on_c, 0, 91, 92
2, 39373, Note_on_c, 0, 56, 36
2, 39377, Note_on_c, 0, 60, 35
2, 39381, Note_on_c, 0, 50, 35
2, 39418, Note_on_c, 0, 91, 0
2, 39439, Note_on_c, 0, 89, 71
2, 39497, Note_on_c, 0, 89, 0
2, 39508, Note_on_c, 0, 84, 57
2, 39568, Note_on_c, 0, 84, 0
2, 39581, Note_on_c, 0, 80, 42
2, 39618, Note_on_c, 0, 50, 0
2, 39637, Note_on_c, 0, 56, 0
2, 39649, Note_on_c, 0, 80, 0
2, 39662, Note_on_c, 0, 79, 36
2, 39693, Note_on_c, 0, 79, 0
2, 39694, Note_on_c, 0, 60, 0
2, 39729, Note_on_c, 0, 82, 75
2, 39787, Note_on_c, 0, 82, 0
2, 39811, Note_on_c, 0, 80, 77
2, 39828, Note_on_c, 0, 64, 30
2, 39837, Note_on_c, 0, 59, 32
2, 39847, Note_on_c, 0, 53, 28
2, 39859, Note_on_c, 0, 80, 0
2, 39881, Note_on_c, 0, 82, 48
2, 39912, Note_on_c, 0, 80, 44
2, 39954, Note_on_c, 0, 82, 0
2, 39961, Note_on_c, 0, 79, 40
2, 39976, Note_on_c, 0, 80, 0
2, 40006, Note_on_c, 0, 79, 0
2, 40054, Note_on_c, 0, 78, 67
2, 40126, Note_on_c, 0, 78, 0
2, 40133, Note_on_c, 0, 77, 55
2, 40176, Note_on_c, 0, 59, 0
2, 40178, Note_on_c, 0, 77, 0
2, 40182, Note_on_c, 0, 53, 0
2, 40208, Note_on_c, 0, 75, 54
2, 40233, Note_on_c, 0, 64, 0
2, 40267, Note_on_c, 0, 75, 0
2, 40284, Note_on_c, 0, 74, 49
2, 40331, Note_on_c, 0, 74, 0
2, 40352, Note_on_c, 0, 67, 30
2, 40356, Note_on_c, 0, 77, 45
2, 40356, Note_on_c, 0, 62, 25
2, 40360, Note_on_c, 0, 63, 23
2, 40366, Note_on_c, 0, 60, 25
2, 40406, Note_on_c, 0, 77, 0
2, 40415, Note_on_c, 0, 74, 43
2, 40453, Note_on_c, 0, 74, 0
2, 40485, Note_on_c, 0, 67, 0
2, 40488, Note_on_c, 0, 75, 64
2, 40539, Note_on_c, 0, 75, 0
2, 40577, Note_on_c, 0, 65, 38
2, 40591, Note_on_c, 0, 63, 0
2, 40613, Note_on_c, 0, 65, 0
2, 40683, Note_on_c, 0, 67, 53
2, 40722, Note_on_c, 0, 67, 0
2, 40751, Note_on_c, 0, 62, 0
2, 40793, Note_on_c, 0, 67, 39
2, 40822, Note_on_c, 0, 67, 0
2, 40888, Note_on_c, 0, 67, 41
2, 40938, Note_on_c, 0, 67, 0
2, 40962, Note_on_c, 0, 60, 0
2, 41005, Note_on_c, 0, 67, 58
2, 41045, Note_on_c, 0, 67, 0
2, 41136, Note_on_c, 0, 47, 68
2, 41197, Note_on_c, 0, 47, 0
2, 41259, Control_c, 0, 64, 127
2, 41368, Note_on_c, 0, 56, 37
2, 41370, Note_on_c, 0, 46, 48
2, 41389, Control_c, 0, 64, 0
2, 41545, Note_on_c, 0, 61, 53
2, 41582, Note_on_c, 0, 60, 48
2, 41604, Note_on_c, 0, 61, 0
2, 41623, Note_on_c, 0, 60, 0
2, 41629, Note_on_c, 0, 56, 0
2, 41631, Note_on_c, 0, 57, 48
2, 41658, Note_on_c, 0, 57, 0
2, 41686, Note_on_c, 0, 46, 0
2, 41736, Note_on_c, 0, 60, 56
2, 41760, Note_on_c, 0, 60, 0
2, 41778, Note_on_c, 0, 61, 59
2, 41814, Note_on_c, 0, 61, 0
2, 41820, Note_on_c, 0, 63, 50
2, 41849, Note_on_c, 0, 63, 0
2, 41876, Note_on_c, 0, 64, 24
2, 41897, Note_on_c, 0, 64, 0
2, 41966, Note_on_c, 0, 67, 61
2, 41975, Note_on_c, 0, 61, 38
2, 41978, Note_on_c, 0, 55, 34
2, 41978, Note_on_c, 0, 64, 32
2, 41998, Note_on_c, 0, 64, 0
2, 42011, Note_on_c, 0, 67, 0
2, 42017, Note_on_c, 0, 68, 60
2, 42023, Note_on_c, 0, 55, 0
2, 42024, Note_on_c, 0, 61, 0
2, 42084, Note_on_c, 0, 68, 0
2, 42100, Note_on_c, 0, 70, 49
2, 42136, Note_on_c, 0, 70, 0
2, 42152, Note_on_c, 0, 71, 38
2, 42191, Note_on_c, 0, 71, 0
2, 42204, Note_on_c, 0, 72, 80
2, 42245, Note_on_c, 0, 44, 36
2, 42260, Note_on_c, 0, 72, 0
2, 42260, Note_on_c, 0, 51, 31
2, 42266, Note_on_c, 0, 55, 24
2, 42299, Note_on_c, 0, 67, 38
2, 42302, Note_on_c, 0, 55, 0
2, 42331, Note_on_c, 0, 67, 0
2, 42404, Note_on_c, 0, 63, 61
2, 42442, Note_on_c, 0, 63, 0
2, 42492, Note_on_c, 0, 60, 60
2, 42539, Note_on_c, 0, 60, 0
2, 42631, Note_on_c, 0, 70, 73
2, 42679, Note_on_c, 0, 70, 0
2, 42735, Note_on_c, 0, 44, 0
2, 42735, Note_on_c, 0, 67, 55
2, 42775, Note_on_c, 0, 67, 0
2, 42813, Note_on_c, 0, 63, 29
2, 42875, Note_on_c, 0, 63, 0
2, 42882, Note_on_c, 0, 60, 49
2, 42919, Note_on_c, 0, 60, 0
2, 42965, Note_on_c, 0, 67, 71
2, 43015, Note_on_c, 0, 67, 0
2, 43049, Note_on_c, 0, 65, 67
2, 43092, Note_on_c, 0, 65, 0
2, 43113, Note_on_c, 0, 63, 53
2, 43161, Note_on_c, 0, 63, 0
2, 43211, Note_on_c, 0, 60, 35
2, 43264, Note_on_c, 0, 60, 0
2, 43282, Note_on_c, 0, 56, 47
2, 43343, Note_on_c, 0, 56, 0
2, 43376, Note_on_c, 0, 63, 57
2, 43417, Note_on_c, 0, 63, 0
2, 43458, Note_on_c, 0, 60, 38
2, 43512, Note_on_c, 0, 60, 0
2, 43533, Note_on_c, 0, 56, 65
2, 43595, Note_on_c, 0, 56, 0
2, 43629, Note_on_c, 0, 55, 27
2, 43657, Note_on_c, 0, 55, 0
2, 43707, Note_on_c, 0, 58, 64
2, 43759, Note_on_c, 0, 51, 0
2, 43787, Note_on_c, 0, 56, 58
2, 43806, Note_on_c, 0, 58, 0
2, 43861, Note_on_c, 0, 56, 0
2, 43871, Note_on_c, 0, 55, 60
2, 43924, Note_on_c, 0, 55, 0
2, 43959, Note_on_c, 0, 53, 37
2, 43988, Note_on_c, 0, 53, 0
2, 44047, Note_on_c, 0, 55, 54
2, 44077, Note_on_c, 0, 55, 0
2, 44097, Note_on_c, 0, 56, 53
2, 44168, Note_on_c, 0, 56, 0
2, 44181, Note_on_c, 0, 55, 58
2, 44200, Note_on_c, 0, 38, 36
2, 44283, Note_on_c, 0, 38, 0
2, 44306, Control_c, 0, 64, 127
2, 44591, Note_on_c, 0, 55, 0
2, 44668, Note_on_c, 0, 54, 47
2, 44668, Note_on_c, 0, 44, 49
2, 44677, Control_c, 0, 64, 0
2, 44749, Control_c, 0, 64, 127
2, 44926, Note_on_c, 0, 54, 0
2, 45000, Note_on_c, 0, 44, 0
2, 45135, Note_on_c, 0, 43, 40
2, 45140, Note_on_c, 0, 53, 36
2, 45143, Control_c, 0, 64, 0
2, 45269, Note_on_c, 0, 95, 71
2, 45293, Note_on_c, 0, 43, 0
2, 45326, Note_on_c, 0, 95, 0
2, 45326, Note_on_c, 0, 94, 62
2, 45329, Note_on_c, 0, 53, 0
2, 45357, Note_on_c, 0, 92, 42
2, 45405, Note_on_c, 0, 94, 0
2, 45409, Note_on_c, 0, 90, 45
2, 45431, Note_on_c, 0, 92, 0
2, 45455, Note_on_c, 0, 90, 0
2, 45457, Note_on_c, 0, 89, 40
2, 45478, Note_on_c, 0, 89, 0
2, 45521, Note_on_c, 0, 87, 59
2, 45561, Note_on_c, 0, 85, 49
2, 45576, Note_on_c, 0, 87, 0
2, 45604, Note_on_c, 0, 85, 0
2, 45618, Note_on_c, 0, 83, 32
2, 45638, Note_on_c, 0, 63, 31
2, 45644, Note_on_c, 0, 83, 0
2, 45648, Note_on_c, 0, 58, 33
2, 45657, Note_on_c, 0, 53, 25
2, 45679, Note_on_c, 0, 82, 40
2, 45721, Note_on_c, 0, 80, 43
2, 45748, Note_on_c, 0, 82, 0
2, 45777, Note_on_c, 0, 78, 46
2, 45795, Note_on_c, 0, 80, 0
2, 45824, Note_on_c, 0, 78, 0
2, 45831, Note_on_c, 0, 77, 43
2, 45870, Note_on_c, 0, 77, 0
2, 45899, Note_on_c, 0, 63, 0
2, 45902, Note_on_c, 0, 53, 0
2, 45970, Note_on_c, 0, 74, 57
2, 46007, Note_on_c, 0, 74, 0
2, 46024, Note_on_c, 0, 58, 0
2, 46029, Note_on_c, 0, 77, 74
2, 46055, Note_on_c, 0, 55, 44
2, 46057, Note_on_c, 0, 51, 25
2, 46058, Note_on_c, 0, 62, 18
2, 46068, Note_on_c, 0, 57, 27
2, 46098, Note_on_c, 0, 77, 0
2, 46104, Note_on_c, 0, 74, 62
2, 46149, Note_on_c, 0, 74, 0
2, 46184, Note_on_c, 0, 75, 64
2, 46236, Note_on_c, 0, 75, 0
2, 46263, Note_on_c, 0, 69, 57
2, 46290, Note_on_c, 0, 69, 0
2, 46332, Note_on_c, 0, 74, 63
2, 46392, Note_on_c, 0, 62, 0
2, 46416, Note_on_c, 0, 72, 49
2, 46434, Note_on_c, 0, 74, 0
2, 46444, Note_on_c, 0, 72, 0
2, 46473, Note_on_c, 0, 67, 60
2, 46513, Note_on_c, 0, 67, 0
2, 46556, Note_on_c, 0, 65, 47
2, 46584, Note_on_c, 0, 65, 0
2, 46624, Note_on_c, 0, 63, 44
2, 46667, Note_on_c, 0, 63, 0
2, 46691, Note_on_c, 0, 62, 41
2, 46738, Note_on_c, 0, 62, 0
2, 46768, Note_on_c, 0, 65, 59
2, 46798, Note_on_c, 0, 65, 0
2, 46828, Note_on_c, 0, 62, 47
2, 46865, Note_on_c, 0, 62, 0
2, 46900, Note_on_c, 0, 57, 0
2, 46901, Note_on_c, 0, 63, 44
2, 46903, Note_on_c, 0, 55, 0
2, 46950, Note_on_c, 0, 63, 0
2, 46961, Note_on_c, 0, 59, 33
2, 46984, Note_on_c, 0, 59, 0
2, 47012, Note_on_c, 0, 62, 57
2, 47079, Note_on_c, 0, 62, 0
2, 47079, Note_on_c, 0, 59, 35
2, 47111, Note_on_c, 0, 59, 0
2, 47154, Note_on_c, 0, 60, 44
2, 47205, Note_on_c, 0, 60, 0
2, 47212, Note_on_c, 0, 51, 0
2, 47213, Note_on_c, 0, 55, 62
2, 47327, Note_on_c, 0, 55, 0
2, 47357, Note_on_c, 0, 55, 68
2, 47425, Control_c, 0, 64, 127
2, 47573, Note_on_c, 0, 55, 0
2, 47610, Note_on_c, 0, 55, 73
2, 47675, Note_on_c, 0, 55, 0
2, 47709, Note_on_c, 0, 55, 62
2, 47764, Note_on_c, 0, 55, 0
2, 47796, Note_on_c, 0, 55, 60
2, 47854, Note_on_c, 0, 55, 0
2, 47859, Control_c, 0, 64, 0
2, 47889, Note_on_c, 0, 55, 64
2, 47927, Control_c, 0, 64, 127
2, 47932, Note_on_c, 0, 55, 0
2, 47973, Note_on_c, 0, 55, 62
2, 48022, Note_on_c, 0, 55, 0
2, 48047, Control_c, 0, 64, 0
2, 48053, Note_on_c, 0, 62, 45
2, 48056, Note_on_c, 0, 48, 46
2, 48059, Note_on_c, 0, 59, 43
2, 48083, Note_on_c, 0, 55, 26
2, 48138, Control_c, 0, 64, 127
2, 48181, Note_on_c, 0, 55, 0
2, 48209, Note_on_c, 0, 59, 0
2, 48231, Note_on_c, 0, 62, 0
2, 48256, Note_on_c, 0, 55, 40
2, 48395, Note_on_c, 0, 74, 66
2, 48398, Note_on_c, 0, 63, 63
2, 48399, Note_on_c, 0, 67, 68
2, 48402, Note_on_c, 0, 59, 52
2, 48403, Control_c, 0, 64, 0
2, 48465, Control_c, 0, 64, 127
2, 48494, Note_on_c, 0, 55, 0
2, 48551, Note_on_c, 0, 59, 0
2, 48557, Note_on_c, 0, 63, 0
2, 48558, Note_on_c, 0, 67, 0
2, 48591, Note_on_c, 0, 63, 55
2, 48597, Note_on_c, 0, 67, 64
2, 48600, Note_on_c, 0, 59, 41
2, 48664, Note_on_c, 0, 67, 0
2, 48672, Note_on_c, 0, 74, 0
2, 48702, Note_on_c, 0, 63, 0
2, 48728, Note_on_c, 0, 59, 0
2, 48754, Control_c, 0, 64, 0
2, 48761, Note_on_c, 0, 62, 64
2, 48766, Note_on_c, 0, 71, 66
2, 48767, Note_on_c, 0, 63, 46
2, 48775, Note_on_c, 0, 55, 36
2, 48778, Note_on_c, 0, 67, 25
2, 48812, Control_c, 0, 64, 127
2, 48886, Note_on_c, 0, 62, 0
2, 48903, Note_on_c, 0, 67, 0
2, 48918, Note_on_c, 0, 63, 0
2, 48940, Note_on_c, 0, 55, 0
2, 48945, Note_on_c, 0, 48, 0
2, 48947, Note_on_c, 0, 71, 0
2, 49003, Note_on_c, 0, 63, 37
2, 49005, Control_c, 0, 64, 0
2, 49007, Note_on_c, 0, 59, 47
2, 49009, Note_on_c, 0, 67, 50
2, 49017, Note_on_c, 0, 48, 26
2, 49020, Note_on_c, 0, 55, 34
2, 49096, Control_c, 0, 64, 127
2, 49301, Note_on_c, 0, 55, 0
2, 49349, Note_on_c, 0, 59, 0
2, 49381, Note_on_c, 0, 63, 0
2, 49467, Note_on_c, 0, 63, 31
2, 49475, Note_on_c, 0, 59, 34
2, 49488, Note_on_c, 0, 55, 22
2, 49502, Note_on_c, 0, 67, 0
2, 49528, Note_on_c, 0, 59, 0
2, 49559, Note_on_c, 0, 55, 0
2, 49565, Note_on_c, 0, 48, 0
2, 49596, Note_on_c, 0, 63, 0
2, 50125, Note_on_c, 0, 87, 83
2, 50126, Note_on_c, 0, 75, 84
2, 50130, Note_on_c, 0, 63, 67
2, 50131, Note_on_c, 0, 60, 78
2, 50131, Note_on_c, 0, 58, 67
2, 50132, Note_on_c, 0, 67, 78
2, 50133, Control_c, 0, 64, 0
2, 50213, Control_c, 0, 64, 127
2, 50281, Note_on_c, 0, 67, 0
2, 50283, Note_on_c, 0, 87, 0
2, 50283, Note_on_c, 0, 58, 0
2, 50284, Note_on_c, 0, 75, 0
2, 50298, Note_on_c, 0, 60, 0
2, 50309, Note_on_c, 0, 63, 0
2, 50332, Note_on_c, 0, 87, 67
2, 50336, Note_on_c, 0, 67, 64
2, 50336, Note_on_c, 0, 58, 67
2, 50337, Note_on_c, 0, 75, 74
2, 50338, Note_on_c, 0, 63, 61
2, 50339, Note_on_c, 0, 60, 74
2, 50343, Note_on_c, 0, 82, 65
2, 50427, Note_on_c, 0, 82, 0
2, 50427, Note_on_c, 0, 75, 0
2, 50435, Note_on_c, 0, 58, 0
2, 50437, Note_on_c, 0, 67, 0
2, 50440, Note_on_c, 0, 87, 0
2, 50449, Note_on_c, 0, 60, 0
2, 50453, Note_on_c, 0, 63, 0
2, 50473, Control_c, 0, 64, 0
2, 50497, Note_on_c, 0, 87, 76
2, 50498, Note_on_c, 0, 75, 74
2, 50500, Note_on_c, 0, 58, 61
2, 50502, Note_on_c, 0, 63, 58
2, 50502, Note_on_c, 0, 67, 60
2, 50504, Note_on_c, 0, 60, 62
2, 50524, Note_on_c, 0, 82, 28
2, 50526, Control_c, 0, 64, 127
2, 50554, Note_on_c, 0, 82, 0
2, 50600, Note_on_c, 0, 58, 0
2, 50604, Note_on_c, 0, 75, 0
2, 50608, Note_on_c, 0, 87, 0
2, 50609, Note_on_c, 0, 67, 0
2, 50609, Note_on_c, 0, 60, 0
2, 50628, Note_on_c, 0, 63, 0
2, 50663, Note_on_c, 0, 63, 53
2, 50664, Note_on_c, 0, 87, 72
2, 50664, Note_on_c, 0, 75, 74
2, 50664, Note_on_c, 0, 67, 55
2, 50666, Note_on_c, 0, 58, 57
2, 50670, Note_on_c, 0, 82, 60
2, 50671, Note_on_c, 0, 60, 60
2, 50739, Note_on_c, 0, 87, 0
2, 50744, Note_on_c, 0, 75, 0
2, 50751, Note_on_c, 0, 58, 0
2, 50752, Note_on_c, 0, 67, 0
2, 50753, Note_on_c, 0, 60, 0
2, 50754, Note_on_c, 0, 82, 0
2, 50771, Note_on_c, 0, 63, 0
2, 50788, Control_c, 0, 64, 0
2, 50803, Note_on_c, 0, 87, 73
2, 50803, Note_on_c, 0, 67, 52
2, 50804, Note_on_c, 0, 63, 57
2, 50804, Note_on_c, 0, 75, 71
2, 50805, Note_on_c, 0, 58, 52
2, 50807, Control_c, 0, 64, 127
2, 50809, Note_on_c, 0, 60, 59
2, 50809, Note_on_c, 0, 82, 57
2, 50873, Note_on_c, 0, 75, 0
2, 50879, Note_on_c, 0, 82, 0
2, 50880, Note_on_c, 0, 60, 0
2, 50884, Note_on_c, 0, 58, 0
2, 50886, Note_on_c, 0, 67, 0
2, 50903, Note_on_c, 0, 87, 0
2, 50909, Note_on_c, 0, 63, 0
2, 50941, Note_on_c, 0, 63, 59
2, 50943, Note_on_c, 0, 58, 55
2, 50945, Note_on_c, 0, 67, 53
2, 50947, Control_c, 0, 64, 0
2, 50951, Note_on_c, 0, 62, 74
2, 50954, Note_on_c, 0, 89, 74
2, 50955, Note_on_c, 0, 77, 66
2, 50957, Note_on_c, 0, 84, 59
2, 51028, Control_c, 0, 64, 127
2, 51075, Note_on_c, 0, 84, 0
2, 51075, Note_on_c, 0, 89, 0
2, 51081, Note_on_c, 0, 77, 0
2, 51085, Note_on_c, 0, 67, 0
2, 51088, Note_on_c, 0, 58, 0
2, 51090, Note_on_c, 0, 62, 0
2, 51100, Control_c, 0, 64, 0
2, 51102, Note_on_c, 0, 63, 0
2, 51117, Note_on_c, 0, 58, 33
2, 51120, Note_on_c, 0, 89, 58
2, 51121, Note_on_c, 0, 62, 42
2, 51122, Note_on_c, 0, 63, 25
2, 51126, Note_on_c, 0, 67, 57
2, 51128, Note_on_c, 0, 77, 49
2, 51128, Note_on_c, 0, 84, 49
2, 51149, Control_c, 0, 64, 127
2, 51227, Note_on_c, 0, 67, 0
2, 51230, Note_on_c, 0, 77, 0
2, 51231, Note_on_c, 0, 84, 0
2, 51234, Note_on_c, 0, 58, 0
2, 51240, Note_on_c, 0, 62, 0
2, 51244, Note_on_c, 0, 89, 0
2, 51284, Note_on_c, 0, 67, 51
2, 51288, Note_on_c, 0, 58, 36
2, 51290, Note_on_c, 0, 91, 76
2, 51291, Note_on_c, 0, 79, 55
2, 51293, Note_on_c, 0, 60, 68
2, 51294, Note_on_c, 0, 84, 48
2, 51386, Note_on_c, 0, 67, 0
2, 51387, Note_on_c, 0, 58, 0
2, 51390, Note_on_c, 0, 79, 0
2, 51393, Note_on_c, 0, 60, 0
2, 51400, Note_on_c, 0, 91, 0
2, 51404, Control_c, 0, 64, 0
2, 51405, Note_on_c, 0, 63, 0
2, 51407, Note_on_c, 0, 84, 0
2, 51446, Note_on_c, 0, 58, 52
2, 51448, Note_on_c, 0, 67, 48
2, 51450, Note_on_c, 0, 63, 34
2, 51452, Note_on_c, 0, 91, 49
2, 51455, Note_on_c, 0, 60, 51
2, 51456, Note_on_c, 0, 79, 41
2, 51457, Note_on_c, 0, 84, 50
2, 51486, Control_c, 0, 64, 127
2, 51550, Note_on_c, 0, 67, 0
2, 51561, Note_on_c, 0, 79, 0
2, 51565, Note_on_c, 0, 84, 0
2, 51566, Note_on_c, 0, 91, 0
2, 51568, Note_on_c, 0, 60, 0
2, 51576, Note_on_c, 0, 58, 0
2, 51583, Note_on_c, 0, 63, 0
2, 51615, Note_on_c, 0, 91, 49
2, 51617, Note_on_c, 0, 79, 43
2, 51618, Note_on_c, 0, 58, 45
2, 51620, Note_on_c, 0, 67, 39
2, 51620, Note_on_c, 0, 63, 29
2, 51624, Note_on_c, 0, 84, 40
2, 51655, Note_on_c, 0, 67, 0
2, 51695, Note_on_c, 0, 63, 0
2, 51702, Note_on_c, 0, 58, 0
2, 51797, Note_on_c, 0, 79, 0
2, 51804, Note_on_c, 0, 91, 0
2, 51815, Note_on_c, 0, 84, 0
2, 51862, Control_c, 0, 64, 0
2, 51873, Note_on_c, 0, 89, 57
2, 51874, Note_on_c, 0, 60, 48
2, 51876, Note_on_c, 0, 63, 35
2, 51877, Note_on_c, 0, 77, 48
2, 51880, Note_on_c, 0, 55, 48
2, 51881, Note_on_c, 0, 84, 37
2, 51885, Note_on_c, 0, 57, 37
2, 51958, Control_c, 0, 64, 127
2, 52300, Note_on_c, 0, 63, 0
2, 52303, Note_on_c, 0, 57, 0
2, 52477, Note_on_c, 0, 77, 0
2, 52496, Note_on_c, 0, 60, 0
2, 52497, Note_on_c, 0, 89, 0
2, 52509, Note_on_c, 0, 84, 0
2, 52574, Control_c, 0, 64, 0
2, 52688, Note_on_c, 0, 63, 71
2, 52696, Note_on_c, 0, 60, 74
2, 52698, Note_on_c, 0, 57, 66
2, 52700, Note_on_c, 0, 91, 89
2, 52701, Note_on_c, 0, 84, 91
2, 52703, Note_on_c, 0, 79, 82
2, 52717, Note_on_c, 0, 88, 38
2, 52735, Note_on_c, 0, 88, 0
2, 52770, Note_on_c, 0, 55, 0
2, 52803, Note_on_c, 0, 91, 0
2, 52804, Note_on_c, 0, 63, 0
2, 52818, Note_on_c, 0, 57, 0
2, 52823, Note_on_c, 0, 79, 0
2, 52836, Note_on_c, 0, 84, 0
2, 52853, Note_on_c, 0, 63, 60
2, 52862, Note_on_c, 0, 55, 62
2, 52863, Note_on_c, 0, 57, 71
2, 52865, Note_on_c, 0, 79, 50
2, 52866, Note_on_c, 0, 91, 63
2, 52867, Note_on_c, 0, 89, 65
2, 52869, Note_on_c, 0, 84, 70
2, 52879, Note_on_c, 0, 87, 47
2, 52922, Note_on_c, 0, 91, 0
2, 52929, Note_on_c, 0, 79, 0
2, 52939, Note_on_c, 0, 87, 0
2, 52946, Note_on_c, 0, 84, 0
2, 52949, Note_on_c, 0, 89, 0
2, 53001, Note_on_c, 0, 55, 0
2, 53013, Note_on_c, 0, 57, 0
2, 53025, Note_on_c, 0, 63, 0
2, 53037, Note_on_c, 0, 60, 0
2, 53144, Note_on_c, 0, 63, 62
2, 53152, Note_on_c, 0, 57, 68
2, 53153, Note_on_c, 0, 55, 68
2, 53156, Note_on_c, 0, 60, 73
2, 53269, Note_on_c, 0, 55, 0
2, 53274, Note_on_c, 0, 60, 0
2, 53279, Note_on_c, 0, 63, 0
2, 53284, Note_on_c, 0, 57, 0
2, 53352, Note_on_c, 0, 63, 52
2, 53352, Note_on_c, 0, 55, 66
2, 53360, Note_on_c, 0, 57, 53
2, 53368, Note_on_c, 0, 60, 53
2, 53449, Note_on_c, 0, 55, 0
2, 53452, Note_on_c, 0, 63, 0
2, 53462, Note_on_c, 0, 60, 0
2, 53466, Note_on_c, 0, 57, 0
2, 53518, Note_on_c, 0, 55, 58
2, 53519, Note_on_c, 0, 63, 48
2, 53536, Note_on_c, 0, 60, 35
2, 53537, Note_on_c, 0, 57, 25
2, 53620, Note_on_c, 0, 55, 0
2, 53632, Note_on_c, 0, 57, 0
2, 53633, Note_on_c, 0, 60, 0
2, 53665, Note_on_c, 0, 63, 0
2, 53758, Note_on_c, 0, 63, 47
2, 53763, Note_on_c, 0, 60, 46
2, 53770, Note_on_c, 0, 58, 47
2, 53774, Note_on_c, 0, 53, 44
2, 53975, Note_on_c, 0, 53, 0
2, 54076, Control_c, 0, 64, 127
2, 54216, Note_on_c, 0, 63, 0
2, 54251, Note_on_c, 0, 60, 0
2, 54265, Note_on_c, 0, 53, 7
2, 54280, Note_on_c, 0, 58, 0
2, 54383, Note_on_c, 0, 55, 35
2, 54385, Note_on_c, 0, 53, 0
2, 54390, Note_on_c, 0, 56, 64
2, 54398, Note_on_c, 0, 57, 71
2, 54403, Note_on_c, 0, 55, 0
2, 54412, Note_on_c, 0, 70, 79
2, 54413, Control_c, 0, 64, 0
2, 54417, Note_on_c, 0, 63, 74
2, 54418, Note_on_c, 0, 60, 87
2, 54419, Note_on_c, 0, 67, 72
2, 54426, Note_on_c, 0, 58, 83
2, 54446, Note_on_c, 0, 57, 0
2, 54456, Note_on_c, 0, 56, 0
2, 54506, Note_on_c, 0, 67, 0
2, 54525, Control_c, 0, 64, 127
2, 54728, Note_on_c, 0, 60, 0
2, 54731, Control_c, 0, 64, 0
2, 54742, Note_on_c, 0, 70, 0
2, 54762, Note_on_c, 0, 56, 52
2, 54763, Note_on_c, 0, 68, 52
2, 54764, Note_on_c, 0, 58, 0
2, 54768, Note_on_c, 0, 60, 34
2, 54859, Note_on_c, 0, 60, 0
2, 54868, Note_on_c, 0, 68, 0
2, 54869, Note_on_c, 0, 63, 0
2, 54896, Note_on_c, 0, 70, 62
2, 54901, Note_on_c, 0, 63, 35
2, 54902, Note_on_c, 0, 60, 57
2, 54902, Note_on_c, 0, 58, 62
2, 54908, Note_on_c, 0, 56, 0
2, 54912, Note_on_c, 0, 67, 42
2, 54938, Note_on_c, 0, 67, 0
2, 54954, Note_on_c, 0, 60, 0
2, 54955, Note_on_c, 0, 70, 0
2, 54963, Note_on_c, 0, 63, 0
2, 54987, Note_on_c, 0, 56, 56
2, 54988, Note_on_c, 0, 68, 58
2, 54989, Note_on_c, 0, 58, 0
2, 54991, Note_on_c, 0, 63, 37
2, 55001, Note_on_c, 0, 60, 49
2, 55044, Control_c, 0, 64, 127
2, 55080, Note_on_c, 0, 68, 0
2, 55094, Note_on_c, 0, 63, 0
2, 55104, Note_on_c, 0, 60, 0
2, 55171, Note_on_c, 0, 56, 0
2, 55194, Control_c, 0, 64, 0
2, 55201, Note_on_c, 0, 67, 51
2, 55208, Note_on_c, 0, 55, 46
2, 55215, Note_on_c, 0, 56, 31
2, 55220, Note_on_c, 0, 60, 53
2, 55271, Note_on_c, 0, 56, 0
2, 55273, Note_on_c, 0, 67, 0
2, 55310, Note_on_c, 0, 60, 0
2, 55337, Note_on_c, 0, 55, 0
2, 55349, Note_on_c, 0, 56, 56
2, 55352, Note_on_c, 0, 68, 65
2, 55373, Note_on_c, 0, 60, 34
2, 55408, Note_on_c, 0, 68, 0
2, 55416, Note_on_c, 0, 60, 0
2, 55432, Note_on_c, 0, 56, 0
2, 55448, Note_on_c, 0, 67, 47
2, 55451, Note_on_c, 0, 60, 24
2, 55460, Note_on_c, 0, 55, 46
2, 55461, Note_on_c, 0, 63, 19
2, 55536, Control_c, 0, 64, 127
2, 55581, Note_on_c, 0, 60, 0
2, 55583, Note_on_c, 0, 67, 0
2, 55586, Note_on_c, 0, 55, 0
2, 55609, Note_on_c, 0, 51, 33
2, 55615, Note_on_c, 0, 63, 0
2, 55641, Control_c, 0, 64, 0
2, 55650, Note_on_c, 0, 51, 0
2, 55658, Note_on_c, 0, 56, 49
2, 55665, Note_on_c, 0, 65, 55
2, 55667, Note_on_c, 0, 53, 41
2, 55672, Note_on_c, 0, 60, 48
2, 56002, Control_c, 0, 64, 127
2, 56006, Note_on_c, 0, 60, 0
2, 56044, Note_on_c, 0, 56, 0
2, 56145, Note_on_c, 0, 56, 35
2, 56151, Note_on_c, 0, 53, 0
2, 56152, Note_on_c, 0, 60, 50
2, 56157, Note_on_c, 0, 50, 37
2, 56160, Control_c, 0, 64, 0
2, 56257, Control_c, 0, 64, 127
2, 56453, Note_on_c, 0, 65, 0
2, 56460, Note_on_c, 0, 60, 0
2, 56496, Note_on_c, 0, 56, 0
2, 56623, Control_c, 0, 64, 0
2, 56629, Note_on_c, 0, 56, 39
2, 56636, Note_on_c, 0, 61, 37
2, 56638, Note_on_c, 0, 59, 45
2, 56639, Note_on_c, 0, 43, 29
2, 56644, Note_on_c, 0, 53, 28
2, 56649, Note_on_c, 0, 50, 0
2, 56762, Control_c, 0, 64, 127
2, 56813, Note_on_c, 0, 59, 0
2, 56840, Note_on_c, 0, 56, 0
2, 56868, Note_on_c, 0, 61, 0
2, 56884, Note_on_c, 0, 58, 36
2, 56917, Control_c, 0, 64, 0
2, 56932, Note_on_c, 0, 58, 0
2, 56973, Note_on_c, 0, 59, 34
2, 56999, Note_on_c, 0, 59, 0
2, 57034, Note_on_c, 0, 62, 80
2, 57095, Note_on_c, 0, 62, 0
2, 57108, Note_on_c, 0, 59, 52
2, 57161, Note_on_c, 0, 59, 0
2, 57206, Note_on_c, 0, 60, 59
2, 57259, Note_on_c, 0, 60, 0
2, 57280, Note_on_c, 0, 62, 66
2, 57291, Note_on_c, 0, 43, 0
2, 57319, Note_on_c, 0, 62, 0
2, 57350, Note_on_c, 0, 63, 45
2, 57364, Note_on_c, 0, 53, 0
2, 57366, Note_on_c, 0, 63, 0
2, 57434, Note_on_c, 0, 67, 37
2, 57467, Note_on_c, 0, 67, 0
2, 57512, Note_on_c, 0, 71, 56
2, 57557, Note_on_c, 0, 71, 0
2, 57591, Note_on_c, 0, 74, 89
2, 57652, Note_on_c, 0, 74, 0
2, 57676, Note_on_c, 0, 72, 64
2, 57734, Note_on_c, 0, 72, 0
2, 57787, Note_on_c, 0, 67, 48
2, 57850, Note_on_c, 0, 67, 0
2, 57938, Note_on_c, 0, 63, 56
2, 58003, Note_on_c, 0, 63, 0
2, 58024, Note_on_c, 0, 62, 32
2, 58070, Note_on_c, 0, 62, 0
2, 58102, Note_on_c, 0, 65, 64
2, 58175, Note_on_c, 0, 65, 0
2, 58200, Note_on_c, 0, 62, 39
2, 58231, Note_on_c, 0, 62, 0
2, 58269, Note_on_c, 0, 63, 46
2, 58344, Note_on_c, 0, 63, 0
2, 58426, Note_on_c, 0, 62, 54
2, 58496, Note_on_c, 0, 62, 0
2, 58603, Note_on_c, 0, 60, 50
2, 58842, Control_c, 0, 64, 127
2, 58847, Control_c, 0, 64, 0
2, 58867, Control_c, 0, 64, 127
2, 58983, Note_on_c, 0, 60, 0
2, 59301, Note_on_c, 0, 74, 77
2, 59303, Note_on_c, 0, 62, 81
2, 59304, Control_c, 0, 64, 0
2, 59304, Note_on_c, 0, 67, 73
2, 59311, Note_on_c, 0, 57, 66
2, 59315, Note_on_c, 0, 47, 57
2, 59321, Note_on_c, 0, 70, 27
2, 59337, Note_on_c, 0, 70, 0
2, 59381, Note_on_c, 0, 70, 15
2, 59391, Control_c, 0, 64, 127
2, 59393, Note_on_c, 0, 74, 0
2, 59408, Note_on_c, 0, 67, 0
2, 59411, Note_on_c, 0, 62, 0
2, 59416, Note_on_c, 0, 70, 0
2, 59421, Note_on_c, 0, 47, 0
2, 59435, Note_on_c, 0, 57, 0
2, 59535, Note_on_c, 0, 73, 54
2, 59536, Control_c, 0, 64, 0
2, 59540, Note_on_c, 0, 65, 75
2, 59542, Note_on_c, 0, 61, 62
2, 59546, Note_on_c, 0, 56, 55
2, 59550, Note_on_c, 0, 46, 56
2, 59646, Control_c, 0, 64, 127
2, 59753, Note_on_c, 0, 65, 0
2, 59768, Note_on_c, 0, 61, 0
2, 59769, Note_on_c, 0, 46, 0
2, 59795, Note_on_c, 0, 56, 0
2, 59833, Note_on_c, 0, 73, 0
2, 60007, Control_c, 0, 64, 0
2, 60019, Note_on_c, 0, 56, 61
2, 60021, Note_on_c, 0, 60, 80
2, 60022, Note_on_c, 0, 61, 64
2, 60022, Note_on_c, 0, 85, 84
2, 60023, Note_on_c, 0, 65, 82
2, 60024, Note_on_c, 0, 73, 67
2, 60024, Note_on_c, 0, 80, 73
2, 60081, Control_c, 0, 64, 127
2, 60119, Note_on_c, 0, 73, 0
2, 60127, Note_on_c, 0, 85, 0
2, 60137, Note_on_c, 0, 80, 0
2, 60140, Note_on_c, 0, 65, 0
2, 60145, Note_on_c, 0, 56, 0
2, 60152, Note_on_c, 0, 60, 0
2, 60153, Note_on_c, 0, 61, 0
2, 60164, Control_c, 0, 64, 0
2, 60174, Note_on_c, 0, 87, 83
2, 60175, Note_on_c, 0, 65, 79
2, 60176, Note_on_c, 0, 75, 76
2, 60177, Note_on_c, 0, 56, 70
2, 60177, Note_on_c, 0, 61, 49
2, 60178, Note_on_c, 0, 82, 71
2, 60181, Note_on_c, 0, 60, 60
2, 60240, Control_c, 0, 64, 127
2, 60321, Note_on_c, 0, 65, 0
2, 60329, Note_on_c, 0, 60, 0
2, 60353, Note_on_c, 0, 82, 0
2, 60361, Note_on_c, 0, 75, 0
2, 60364, Note_on_c, 0, 87, 0
2, 60373, Note_on_c, 0, 61, 0
2, 60385, Note_on_c, 0, 56, 0
2, 60477, Control_c, 0, 64, 0
2, 60487, Note_on_c, 0, 61, 54
2, 60488, Note_on_c, 0, 55, 65
2, 60489, Note_on_c, 0, 66, 57
2, 60492, Note_on_c, 0, 82, 68
2, 60492, Note_on_c, 0, 88, 71
2, 60495, Note_on_c, 0, 76, 57
2, 60568, Control_c, 0, 64, 127
2, 60667, Note_on_c, 0, 88, 0
2, 60685, Note_on_c, 0, 82, 0
2, 60703, Note_on_c, 0, 76, 0
2, 60710, Note_on_c, 0, 55, 0
2, 60740, Note_on_c, 0, 61, 0
2, 60751, Note_on_c, 0, 66, 0
2, 60814, Control_c, 0, 64, 0
2, 60816, Note_on_c, 0, 73, 64
2, 60816, Note_on_c, 0, 76, 69
2, 60817, Note_on_c, 0, 84, 73
2, 60823, Note_on_c, 0, 82, 51
2, 60840, Note_on_c, 0, 74, 68
2, 60844, Note_on_c, 0, 72, 69
2, 60881, Control_c, 0, 64, 127
2, 60884, Note_on_c, 0, 82, 0
2, 60886, Note_on_c, 0, 76, 0
2, 60887, Note_on_c, 0, 84, 0
2, 60888, Note_on_c, 0, 74, 0
2, 60903, Note_on_c, 0, 72, 0
2, 60937, Note_on_c, 0, 73, 0
2, 60972, Control_c, 0, 64, 0
2, 60993, Note_on_c, 0, 81, 68
2, 60994, Note_on_c, 0, 69, 68
2, 60996, Note_on_c, 0, 73, 42
2, 60998, Note_on_c, 0, 70, 62
2, 61002, Note_on_c, 0, 76, 48
2, 61058, Control_c, 0, 64, 127
2, 61068, Note_on_c, 0, 81, 0
2, 61079, Note_on_c, 0, 76, 0
2, 61091, Note_on_c, 0, 73, 0
2, 61100, Note_on_c, 0, 70, 0
2, 61123, Note_on_c, 0, 69, 0
2, 61146, Control_c, 0, 64, 0
2, 61147, Note_on_c, 0, 78, 62
2, 61157, Note_on_c, 0, 66, 57
2, 61158, Note_on_c, 0, 67, 53
2, 61159, Note_on_c, 0, 70, 59
2, 61162, Note_on_c, 0, 73, 30
2, 61175, Note_on_c, 0, 69, 24
2, 61191, Note_on_c, 0, 69, 0
2, 61221, Note_on_c, 0, 73, 0
2, 61227, Control_c, 0, 64, 127
2, 61241, Note_on_c, 0, 70, 0
2, 61248, Note_on_c, 0, 67, 0
2, 61249, Note_on_c, 0, 66, 0
2, 61271, Control_c, 0, 64, 0
2, 61272, Note_on_c, 0, 78, 0
2, 61286, Note_on_c, 0, 70, 53
2, 61287, Note_on_c, 0, 63, 54
2, 61288, Note_on_c, 0, 73, 42
2, 61288, Note_on_c, 0, 67, 58
2, 61329, Note_on_c, 0, 67, 0
2, 61351, Note_on_c, 0, 63, 0
2, 61368, Note_on_c, 0, 73, 0
2, 61380, Note_on_c, 0, 70, 0
2, 61389, Note_on_c, 0, 67, 36
2, 61405, Control_c, 0, 64, 127
2, 61416, Note_on_c, 0, 67, 0
2, 61450, Note_on_c, 0, 58, 9
2, 61468, Control_c, 0, 64, 0
2, 61489, Note_on_c, 0, 75, 63
2, 61491, Note_on_c, 0, 70, 57
2, 61493, Note_on_c, 0, 67, 66
2, 61494, Note_on_c, 0, 58, 0
2, 61505, Note_on_c, 0, 72, 30
2, 61508, Note_on_c, 0, 60, 61
2, 61550, Control_c, 0, 64, 127
2, 61554, Note_on_c, 0, 72, 0
2, 61565, Note_on_c, 0, 75, 0
2, 61574, Note_on_c, 0, 70, 0
2, 61588, Note_on_c, 0, 67, 0
2, 61654, Note_on_c, 0, 60, 0
2, 61660, Note_on_c, 0, 72, 56
2, 61665, Control_c, 0, 64, 0
2, 61666, Note_on_c, 0, 58, 55
2, 61671, Note_on_c, 0, 67, 57
2, 61737, Control_c, 0, 64, 127
2, 61744, Note_on_c, 0, 63, 1
2, 61755, Note_on_c, 0, 67, 0
2, 61767, Note_on_c, 0, 72, 0
2, 61802, Note_on_c, 0, 63, 0
2, 61863, Note_on_c, 0, 58, 0
2, 61959, Control_c, 0, 64, 0
2, 61963, Note_on_c, 0, 70, 49
2, 61971, Note_on_c, 0, 63, 37
2, 61972, Note_on_c, 0, 60, 46
2, 61973, Note_on_c, 0, 55, 46
2, 61973, Note_on_c, 0, 67, 45
2, 62033, Control_c, 0, 64, 127
2, 62055, Note_on_c, 0, 67, 0
2, 62072, Note_on_c, 0, 70, 0
2, 62087, Note_on_c, 0, 63, 0
2, 62100, Note_on_c, 0, 60, 0
2, 62172, Note_on_c, 0, 55, 0
2, 62204, Note_on_c, 0, 67, 61
2, 62206, Note_on_c, 0, 60, 64
2, 62210, Control_c, 0, 64, 0
2, 62214, Note_on_c, 0, 51, 50
2, 62228, Note_on_c, 0, 63, 21
2, 62292, Control_c, 0, 64, 127
2, 62370, Note_on_c, 0, 60, 0
2, 62379, Note_on_c, 0, 63, 0
2, 62388, Note_on_c, 0, 51, 0
2, 62397, Note_on_c, 0, 67, 0
2, 62447, Control_c, 0, 64, 0
2, 62448, Note_on_c, 0, 56, 35
2, 62449, Note_on_c, 0, 63, 39
2, 62456, Note_on_c, 0, 51, 51
2, 62457, Note_on_c, 0, 60, 55
2, 62610, Control_c, 0, 64, 127
2, 62709, Note_on_c, 0, 51, 0
2, 62791, Note_on_c, 0, 60, 0
2, 62817, Note_on_c, 0, 56, 0
2, 62895, Note_on_c, 0, 56, 33
2, 62908, Note_on_c, 0, 60, 46
2, 63043, Note_on_c, 0, 56, 0
2, 63149, Note_on_c, 0, 60, 0
2, 63270, Note_on_c, 0, 63, 0
2, 63363, Note_on_c, 0, 63, 61
2, 63369, Note_on_c, 0, 60, 71
2, 63371, Note_on_c, 0, 67, 63
2, 63377, Note_on_c, 0, 58, 51
2, 63380, Control_c, 0, 64, 0
2, 63544, Control_c, 0, 64, 127
2, 63636, Note_on_c, 0, 46, 60
2, 63767, Note_on_c, 0, 60, 0
2, 63798, Note_on_c, 0, 63, 0
2, 63801, Note_on_c, 0, 58, 0
2, 63837, Note_on_c, 0, 67, 0
2, 63873, Note_on_c, 0, 58, 37
2, 63875, Note_on_c, 0, 63, 31
2, 63879, Note_on_c, 0, 60, 51
2, 63951, Note_on_c, 0, 60, 0
2, 63985, Note_on_c, 0, 63, 0
2, 64015, Note_on_c, 0, 46, 0
2, 64094, Note_on_c, 0, 46, 65
2, 64169, Note_on_c, 0, 58, 0
2, 64323, Note_on_c, 0, 73, 70
2, 64333, Note_on_c, 0, 70, 71
2, 64337, Note_on_c, 0, 66, 77
2, 64338, Control_c, 0, 64, 0
2, 64339, Note_on_c, 0, 56, 68
2, 64340, Note_on_c, 0, 61, 85
2, 64511, Note_on_c, 0, 46, 0
2, 64574, Note_on_c, 0, 46, 54
2, 64584, Control_c, 0, 64, 127
2, 64586, Note_on_c, 0, 56, 0
2, 64629, Note_on_c, 0, 46, 0
2, 64707, Note_on_c, 0, 66, 0
2, 64713, Note_on_c, 0, 70, 0
2, 64727, Note_on_c, 0, 61, 0
2, 64807, Note_on_c, 0, 70, 51
2, 64815, Note_on_c, 0, 66, 50
2, 64815, Note_on_c, 0, 61, 45
2, 64817, Note_on_c, 0, 62, 50
2, 64825, Note_on_c, 0, 73, 0
2, 64827, Note_on_c, 0, 56, 35
2, 64858, Control_c, 0, 64, 0
2, 64877, Control_c, 0, 64, 127
2, 64971, Note_on_c, 0, 56, 0
2, 64978, Note_on_c, 0, 62, 0
2, 65039, Note_on_c, 0, 56, 44
2, 65087, Note_on_c, 0, 56, 0
2, 65104, Note_on_c, 0, 61, 0
2, 65146, Note_on_c, 0, 66, 0
2, 65210, Note_on_c, 0, 70, 0
2, 65286, Control_c, 0, 64, 0
2, 65287, Note_on_c, 0, 74, 60
2, 65294, Note_on_c, 0, 70, 60
2, 65302, Note_on_c, 0, 39, 51
2, 65305, Note_on_c, 0, 67, 49
2, 65307, Note_on_c, 0, 62, 60
2, 65397, Control_c, 0, 64, 127
2, 65492, Note_on_c, 0, 39, 0
2, 65506, Note_on_c, 0, 67, 0
2, 65527, Note_on_c, 0, 46, 46
2, 65535, Note_on_c, 0, 62, 0
2, 65544, Note_on_c, 0, 70, 0
2, 65653, Note_on_c, 0, 74, 0
2, 65748, Note_on_c, 0, 66, 53
2, 65750, Note_on_c, 0, 62, 66
2, 65755, Note_on_c, 0, 69, 55
2, 65762, Note_on_c, 0, 46, 0
2, 65764, Note_on_c, 0, 55, 45
2, 65913, Note_on_c, 0, 62, 0
2, 65954, Note_on_c, 0, 66, 0
2, 65970, Note_on_c, 0, 58, 57
2, 65979, Note_on_c, 0, 69, 0
2, 65989, Note_on_c, 0, 55, 0
2, 66210, Note_on_c, 0, 62, 55
2, 66212, Note_on_c, 0, 70, 94
2, 66215, Note_on_c, 0, 77, 82
2, 66333, Note_on_c, 0, 77, 0
2, 66337, Note_on_c, 0, 62, 0
2, 66352, Note_on_c, 0, 67, 67
2, 66352, Note_on_c, 0, 74, 50
2, 66404, Note_on_c, 0, 74, 0
2, 66408, Note_on_c, 0, 70, 0
2, 66434, Note_on_c, 0, 67, 0
2, 66487, Note_on_c, 0, 74, 57
2, 66491, Note_on_c, 0, 67, 62
2, 66584, Note_on_c, 0, 74, 0
2, 66599, Note_on_c, 0, 70, 56
2, 66602, Note_on_c, 0, 67, 0
2, 66608, Note_on_c, 0, 62, 66
2, 66683, Note_on_c, 0, 58, 0
2, 66706, Note_on_c, 0, 62, 0
2, 66729, Note_on_c, 0, 70, 0
2, 66752, Note_on_c, 0, 67, 68
2, 66765, Note_on_c, 0, 62, 30
2, 66789, Note_on_c, 0, 62, 0
2, 66847, Note_on_c, 0, 67, 0
2, 66850, Note_on_c, 0, 62, 46
2, 66919, Note_on_c, 0, 62, 0
2, 66966, Note_on_c, 0, 65, 51
2, 67039, Note_on_c, 0, 65, 0
2, 67064, Note_on_c, 0, 60, 38
2, 67095, Note_on_c, 0, 60, 0
2, 67185, Note_on_c, 0, 68, 46
2, 67187, Note_on_c, 0, 65, 48
2, 67191, Note_on_c, 0, 56, 26
2, 67192, Note_on_c, 0, 60, 39
2, 67194, Note_on_c, 0, 50, 32
2, 67198, Control_c, 0, 64, 0
2, 67285, Note_on_c, 0, 65, 0
2, 67295, Note_on_c, 0, 60, 0
2, 67317, Note_on_c, 0, 67, 47
2, 67424, Note_on_c, 0, 65, 54
2, 67466, Control_c, 0, 64, 127
2, 67507, Note_on_c, 0, 67, 0
2, 67521, Note_on_c, 0, 65, 0
2, 67533, Note_on_c, 0, 68, 0
2, 67543, Note_on_c, 0, 60, 37
2, 67601, Note_on_c, 0, 60, 0
2, 67614, Note_on_c, 0, 56, 0
2, 67667, Note_on_c, 0, 63, 43
2, 67671, Note_on_c, 0, 56, 31
2, 67674, Note_on_c, 0, 59, 31
2, 67683, Control_c, 0, 64, 0
2, 67760, Control_c, 0, 64, 127
2, 67888, Note_on_c, 0, 56, 0
2, 67922, Note_on_c, 0, 65, 46
2, 67923, Note_on_c, 0, 50, 0
2, 67980, Note_on_c, 0, 59, 0
2, 67995, Note_on_c, 0, 63, 0
2, 68052, Note_on_c, 0, 65, 0
2, 68157, Note_on_c, 0, 56, 52
2, 68165, Note_on_c, 0, 61, 36
2, 68169, Control_c, 0, 64, 0
2, 68175, Note_on_c, 0, 59, 34
2, 68176, Note_on_c, 0, 53, 34
2, 68184, Note_on_c, 0, 43, 34
2, 68453, Control_c, 0, 64, 127
2, 68533, Note_on_c, 0, 53, 0
2, 68585, Note_on_c, 0, 56, 0
2, 68607, Note_on_c, 0, 59, 0
2, 68647, Note_on_c, 0, 61, 0
2, 68672, Note_on_c, 0, 56, 33
2, 68678, Note_on_c, 0, 62, 39
2, 68681, Note_on_c, 0, 53, 36
2, 68688, Note_on_c, 0, 59, 29
2, 68704, Control_c, 0, 64, 0
2, 68882, Note_on_c, 0, 56, 0
2, 68895, Note_on_c, 0, 59, 0
2, 68910, Note_on_c, 0, 62, 0
2, 68989, Note_on_c, 0, 43, 0
2, 68999, Note_on_c, 0, 53, 0
2, 69165, Note_on_c, 0, 67, 34
2, 69168, Note_on_c, 0, 63, 25
2, 69178, Note_on_c, 0, 62, 28
2, 69422, Note_on_c, 0, 72, 64
2, 69449, Note_on_c, 0, 72, 0
2, 69644, Note_on_c, 0, 72, 60
2, 69665, Note_on_c, 0, 72, 0
2, 69876, Note_on_c, 0, 72, 54
2, 69900, Note_on_c, 0, 72, 0
2, 69992, Note_on_c, 0, 72, 42
2, 70019, Note_on_c, 0, 72, 0
2, 70083, Note_on_c, 0, 74, 53
2, 70229, Note_on_c, 0, 75, 53
2, 70235, Note_on_c, 0, 74, 0
2, 70305, Note_on_c, 0, 75, 0
2, 70325, Note_on_c, 0, 74, 45
2, 70621, Control_c, 0, 64, 127
2, 70750, Note_on_c, 0, 62, 0
2, 70770, Note_on_c, 0, 67, 0
2, 70801, Note_on_c, 0, 63, 0
2, 71045, Control_c, 0, 64, 0
2, 71047, Note_on_c, 0, 62, 36
2, 71049, Note_on_c, 0, 67, 24
2, 71050, Note_on_c, 0, 59, 29
2, 71056, Note_on_c, 0, 74, 0
2, 71156, Control_c, 0, 64, 127
2, 71301, Note_on_c, 0, 67, 0
2, 71543, Note_on_c, 0, 67, 35
2, 71652, Control_c, 0, 64, 0
2, 71717, Note_on_c, 0, 68, 36
2, 71720, Note_on_c, 0, 67, 0
2, 71756, Note_on_c, 0, 68, 0
2, 71767, Note_on_c, 0, 70, 52
2, 71801, Note_on_c, 0, 70, 0
2, 71821, Note_on_c, 0, 71, 62
2, 71860, Note_on_c, 0, 71, 0
2, 71866, Note_on_c, 0, 73, 51
2, 71898, Note_on_c, 0, 73, 0
2, 71923, Note_on_c, 0, 74, 57
2, 71974, Note_on_c, 0, 74, 0
2, 71976, Note_on_c, 0, 76, 54
2, 72015, Note_on_c, 0, 76, 0
2, 72026, Note_on_c, 0, 77, 52
2, 72053, Note_on_c, 0, 77, 0
2, 72091, Note_on_c, 0, 79, 58
2, 72124, Note_on_c, 0, 79, 0
2, 72157, Note_on_c, 0, 80, 58
2, 72192, Note_on_c, 0, 80, 0
2, 72196, Note_on_c, 0, 67, 28
2, 72227, Note_on_c, 0, 82, 49
2, 72244, Note_on_c, 0, 82, 0
2, 72287, Note_on_c, 0, 83, 59
2, 72328, Note_on_c, 0, 83, 0
2, 72336, Note_on_c, 0, 59, 0
2, 72348, Note_on_c, 0, 85, 55
2, 72365, Note_on_c, 0, 85, 0
2, 72408, Note_on_c, 0, 86, 62
2, 72413, Note_on_c, 0, 67, 0
2, 72451, Note_on_c, 0, 86, 0
2, 72467, Note_on_c, 0, 88, 54
2, 72505, Note_on_c, 0, 88, 0
2, 72509, Control_c, 0, 64, 127
2, 72528, Note_on_c, 0, 89, 47
2, 72533, Control_c, 0, 64, 0
2, 72559, Note_on_c, 0, 67, 24
2, 72562, Note_on_c, 0, 59, 24
2, 72568, Note_on_c, 0, 89, 0
2, 72599, Note_on_c, 0, 91, 50
2, 72639, Note_on_c, 0, 91, 0
2, 72683, Note_on_c, 0, 92, 60
2, 72707, Control_c, 0, 64, 127
2, 72708, Note_on_c, 0, 92, 0
2, 72741, Note_on_c, 0, 59, 0
2, 72764, Note_on_c, 0, 94, 56
2, 72797, Note_on_c, 0, 94, 0
2, 72797, Note_on_c, 0, 67, 0
2, 72844, Note_on_c, 0, 95, 56
2, 72871, Note_on_c, 0, 95, 0
2, 72888, Note_on_c, 0, 62, 0
2, 72923, Note_on_c, 0, 96, 54
2, 72966, Note_on_c, 0, 96, 0
2, 73014, Note_on_c, 0, 98, 71
2, 73021, Note_on_c, 0, 67, 34
2, 73025, Note_on_c, 0, 58, 32
2, 73029, Control_c, 0, 64, 0
2, 73074, Note_on_c, 0, 98, 0
2, 73130, Control_c, 0, 64, 127
2, 73147, Note_on_c, 0, 91, 47
2, 73226, Note_on_c, 0, 91, 0
2, 73327, Note_on_c, 0, 94, 76
2, 73404, Note_on_c, 0, 94, 0
2, 73418, Note_on_c, 0, 67, 0
2, 73445, Note_on_c, 0, 84, 60
2, 73488, Note_on_c, 0, 58, 0
2, 73512, Note_on_c, 0, 84, 0
2, 73536, Note_on_c, 0, 91, 74
2, 73611, Note_on_c, 0, 91, 0
2, 73640, Note_on_c, 0, 87, 68
2, 73745, Note_on_c, 0, 79, 45
2, 73788, Note_on_c, 0, 79, 0
2, 73852, Note_on_c, 0, 79, 33
2, 73930, Note_on_c, 0, 87, 0
2, 73931, Note_on_c, 0, 79, 0
2, 74449, Note_on_c, 0, 63, 40
2, 74455, Note_on_c, 0, 58, 37
2, 74464, Note_on_c, 0, 55, 36
2, 74468, Note_on_c, 0, 46, 27
2, 74629, Note_on_c, 0, 46, 0
2, 74691, Note_on_c, 0, 63, 0
2, 74693, Note_on_c, 0, 55, 0
2, 74761, Note_on_c, 0, 58, 0
2, 74916, Control_c, 0, 64, 0
2, 74918, Note_on_c, 0, 63, 33
2, 74922, Note_on_c, 0, 55, 34
2, 74927, Note_on_c, 0, 45, 32
2, 74930, Note_on_c, 0, 57, 33
2, 74934, Note_on_c, 0, 60, 31
2, 74957, Note_on_c, 0, 33, 17
2, 74977, Note_on_c, 0, 33, 0
2, 74984, Note_on_c, 0, 55, 0
2, 74986, Note_on_c, 0, 57, 0
2, 74990, Note_on_c, 0, 60, 0
2, 74998, Control_c, 0, 64, 127
2, 75024, Note_on_c, 0, 45, 0
2, 75036, Note_on_c, 0, 63, 0
2, 75182, Note_on_c, 0, 67, 55
2, 75184, Note_on_c, 0, 79, 39
2, 75221, Note_on_c, 0, 67, 0
2, 75234, Note_on_c, 0, 79, 0
2, 75422, Note_on_c, 0, 84, 80
2, 75424, Note_on_c, 0, 63, 60
2, 75431, Note_on_c, 0, 60, 51
2, 75434, Note_on_c, 0, 72, 74
2, 75438, Note_on_c, 0, 55, 47
2, 75441, Note_on_c, 0, 57, 37
2, 75502, Note_on_c, 0, 72, 0
2, 75522, Note_on_c, 0, 55, 0
2, 75525, Note_on_c, 0, 84, 0
2, 75526, Note_on_c, 0, 60, 0
2, 75533, Note_on_c, 0, 57, 0
2, 75548, Note_on_c, 0, 63, 0
2, 75655, Note_on_c, 0, 89, 80
2, 75663, Note_on_c, 0, 63, 64
2, 75667, Note_on_c, 0, 77, 77
2, 75670, Note_on_c, 0, 55, 53
2, 75685, Note_on_c, 0, 60, 26
2, 75706, Note_on_c, 0, 60, 0
2, 75711, Note_on_c, 0, 77, 0
2, 75715, Note_on_c, 0, 63, 0
2, 75722, Note_on_c, 0, 55, 0
2, 75740, Note_on_c, 0, 89, 0
2, 75888, Control_c, 0, 64, 0
2, 75888, Note_on_c, 0, 93, 83
2, 75891, Note_on_c, 0, 60, 71
2, 75896, Note_on_c, 0, 61, 59
2, 75897, Note_on_c, 0, 65, 69
2, 75898, Note_on_c, 0, 58, 50
2, 75900, Note_on_c, 0, 55, 67
2, 75900, Note_on_c, 0, 81, 80
2, 75950, Control_c, 0, 64, 127
2, 75997, Note_on_c, 0, 81, 0
2, 76013, Note_on_c, 0, 93, 0
2, 76019, Note_on_c, 0, 55, 0
2, 76032, Note_on_c, 0, 65, 0
2, 76036, Note_on_c, 0, 60, 0
2, 76037, Note_on_c, 0, 61, 0
2, 76040, Note_on_c, 0, 58, 0
2, 76127, Note_on_c, 0, 96, 75
2, 76127, Note_on_c, 0, 60, 66
2, 76128, Note_on_c, 0, 65, 65
2, 76129, Note_on_c, 0, 61, 55
2, 76130, Note_on_c, 0, 55, 67
2, 76134, Note_on_c, 0, 84, 74
2, 76140, Note_on_c, 0, 58, 39
2, 76194, Note_on_c, 0, 84, 0
2, 76217, Note_on_c, 0, 96, 0
2, 76242, Note_on_c, 0, 55, 0
2, 76262, Note_on_c, 0, 60, 0
2, 76267, Note_on_c, 0, 61, 0
2, 76268, Note_on_c, 0, 58, 0
2, 76269, Note_on_c, 0, 65, 0
2, 76365, Control_c, 0, 64, 0
2, 76368, Note_on_c, 0, 61, 48
2, 76368, Note_on_c, 0, 89, 64
2, 76368, Note_on_c, 0, 101, 64
2, 76369, Note_on_c, 0, 65, 64
2, 76369, Note_on_c, 0, 60, 57
2, 76377, Note_on_c, 0, 55, 50
2, 76400, Control_c, 0, 64, 127
2, 76409, Note_on_c, 0, 89, 0
2, 76431, Note_on_c, 0, 101, 0
2, 76462, Note_on_c, 0, 55, 0
2, 76473, Note_on_c, 0, 65, 0
2, 76476, Note_on_c, 0, 60, 0
2, 76476, Note_on_c, 0, 61, 0
2, 76597, Note_on_c, 0, 61, 48
2, 76598, Note_on_c, 0, 65, 58
2, 76600, Note_on_c, 0, 108, 68
2, 76602, Note_on_c, 0, 55, 53
2, 76607, Note_on_c, 0, 60, 40
2, 76608, Note_on_c, 0, 96, 34
2, 76634, Note_on_c, 0, 60, 0
2, 76656, Note_on_c, 0, 65, 0
2, 76668, Note_on_c, 0, 55, 0
2, 76688, Note_on_c, 0, 61, 0
2, 76714, Note_on_c, 0, 96, 0
2, 76746, Note_on_c, 0, 108, 0
2, 76829, Note_on_c, 0, 65, 48
2, 76831, Note_on_c, 0, 108, 65
2, 76832, Note_on_c, 0, 54, 39
2, 76838, Note_on_c, 0, 96, 46
2, 76838, Note_on_c, 0, 60, 50
2, 76842, Control_c, 0, 64, 0
2, 76905, Control_c, 0, 64, 127
2, 77074, Note_on_c, 0, 65, 0
2, 77080, Note_on_c, 0, 60, 0
2, 77133, Note_on_c, 0, 54, 0
2, 77143, Note_on_c, 0, 108, 0
2, 77200, Note_on_c, 0, 96, 0
2, 77739, Note_on_c, 0, 70, 71
2, 77744, Note_on_c, 0, 53, 49
2, 77744, Note_on_c, 0, 63, 64
2, 77746, Note_on_c, 0, 67, 62
2, 77747, Note_on_c, 0, 60, 74
2, 77749, Note_on_c, 0, 55, 57
2, 77794, Note_on_c, 0, 53, 0
2, 77796, Control_c, 0, 64, 0
2, 77964, Control_c, 0, 64, 127
2, 77976, Note_on_c, 0, 70, 0
2, 77984, Note_on_c, 0, 55, 0
2, 77985, Note_on_c, 0, 60, 0
2, 77991, Note_on_c, 0, 67, 0
2, 77993, Note_on_c, 0, 51, 32
2, 77994, Note_on_c, 0, 63, 0
2, 77998, Control_c, 0, 64, 0
2, 78022, Note_on_c, 0, 51, 0
2, 78023, Note_on_c, 0, 68, 48
2, 78023, Note_on_c, 0, 63, 40
2, 78027, Note_on_c, 0, 60, 48
2, 78039, Note_on_c, 0, 53, 48
2, 78113, Control_c, 0, 64, 127
2, 78206, Note_on_c, 0, 68, 0
2, 78209, Note_on_c, 0, 63, 0
2, 78211, Note_on_c, 0, 60, 0
2, 78256, Note_on_c, 0, 53, 0
2, 78256, Note_on_c, 0, 51, 38
2, 78264, Note_on_c, 0, 67, 53
2, 78264, Note_on_c, 0, 63, 37
2, 78265, Note_on_c, 0, 60, 39
2, 78267, Control_c, 0, 64, 0
2, 78368, Control_c, 0, 64, 127
2, 78390, Note_on_c, 0, 60, 0
2, 78398, Note_on_c, 0, 63, 0
2, 78432, Note_on_c, 0, 67, 0
2, 78486, Note_on_c, 0, 68, 56
2, 78490, Note_on_c, 0, 53, 39
2, 78492, Note_on_c, 0, 51, 0
2, 78494, Note_on_c, 0, 63, 39
2, 78496, Note_on_c, 0, 60, 51
2, 78540, Note_on_c, 0, 53, 0
2, 78553, Note_on_c, 0, 68, 0
2, 78558, Note_on_c, 0, 63, 0
2, 78566, Note_on_c, 0, 60, 0
2, 78732, Note_on_c, 0, 67, 46
2, 78736, Note_on_c, 0, 56, 29
2, 78736, Note_on_c, 0, 60, 49
2, 78740, Note_on_c, 0, 52, 34
2, 78744, Control_c, 0, 64, 0
2, 78744, Note_on_c, 0, 41, 34
2, 78752, Note_on_c, 0, 64, 29
2, 78859, Control_c, 0, 64, 127
2, 79021, Note_on_c, 0, 64, 0
2, 79032, Note_on_c, 0, 52, 0
2, 79080, Note_on_c, 0, 60, 0
2, 79090, Note_on_c, 0, 56, 0
2, 79104, Note_on_c, 0, 67, 0
2, 79188, Note_on_c, 0, 51, 38
2, 79192, Note_on_c, 0, 65, 48
2, 79198, Note_on_c, 0, 56, 26
2, 79202, Note_on_c, 0, 60, 46
2, 79211, Control_c, 0, 64, 0
2, 79317, Control_c, 0, 64, 127
2, 79495, Note_on_c, 0, 60, 0
2, 79508, Note_on_c, 0, 56, 0
2, 79534, Note_on_c, 0, 51, 0
2, 79694, Note_on_c, 0, 56, 18
2, 79699, Note_on_c, 0, 60, 35
2, 79701, Note_on_c, 0, 51, 19
2, 80052, Note_on_c, 0, 56, 0
2, 80058, Note_on_c, 0, 60, 0
2, 80069, Note_on_c, 0, 41, 0
2, 80079, Note_on_c, 0, 51, 0
2, 80138, Note_on_c, 0, 65, 0
2, 80639, Note_on_c, 0, 50, 29
2, 80641, Note_on_c, 0, 55, 40
2, 80642, Note_on_c, 0, 56, 23
2, 80645, Control_c, 0, 64, 0
2, 80703, Note_on_c, 0, 60, 1
2, 80884, Note_on_c, 0, 67, 46
2, 80972, Note_on_c, 0, 67, 0
2, 80990, Note_on_c, 0, 68, 55
2, 81024, Note_on_c, 0, 68, 0
2, 81117, Note_on_c, 0, 72, 47
2, 81153, Note_on_c, 0, 55, 0
2, 81168, Note_on_c, 0, 50, 0
2, 81169, Note_on_c, 0, 72, 0
2, 81176, Note_on_c, 0, 56, 0
2, 81201, Note_on_c, 0, 60, 0
2, 81750, Note_on_c, 0, 77, 57
2, 81766, Note_on_c, 0, 54, 33
2, 81777, Note_on_c, 0, 65, 30
2, 81778, Note_on_c, 0, 60, 45
2, 81794, Note_on_c, 0, 77, 0
2, 81831, Note_on_c, 0, 82, 57
2, 81874, Note_on_c, 0, 82, 0
2, 81948, Note_on_c, 0, 86, 94
2, 81984, Note_on_c, 0, 86, 0
2, 82076, Note_on_c, 0, 89, 92
2, 82077, Note_on_c, 0, 77, 91
2, 82115, Note_on_c, 0, 77, 0
2, 82133, Note_on_c, 0, 89, 0
2, 82243, Note_on_c, 0, 89, 80
2, 82245, Note_on_c, 0, 77, 79
2, 82282, Note_on_c, 0, 89, 0
2, 82284, Note_on_c, 0, 77, 0
2, 82313, Note_on_c, 0, 65, 0
2, 82324, Note_on_c, 0, 54, 0
2, 82332, Note_on_c, 0, 60, 0
2, 82368, Control_c, 0, 64, 127
2, 82413, Note_on_c, 0, 77, 70
2, 82414, Note_on_c, 0, 89, 70
2, 82417, Note_on_c, 0, 54, 37
2, 82420, Note_on_c, 0, 65, 36
2, 82428, Note_on_c, 0, 60, 38
2, 82447, Note_on_c, 0, 65, 0
2, 82450, Note_on_c, 0, 89, 0
2, 82450, Note_on_c, 0, 77, 0
2, 82453, Note_on_c, 0, 60, 0
2, 82470, Control_c, 0, 64, 0
2, 82514, Note_on_c, 0, 54, 0
2, 82576, Note_on_c, 0, 64, 34
2, 82586, Note_on_c, 0, 53, 24
2, 82586, Note_on_c, 0, 59, 45
2, 82587, Note_on_c, 0, 89, 65
2, 82588, Note_on_c, 0, 77, 54
2, 82623, Control_c, 0, 64, 127
2, 82699, Note_on_c, 0, 89, 0
2, 82707, Note_on_c, 0, 77, 0
2, 82755, Note_on_c, 0, 90, 55
2, 82761, Note_on_c, 0, 78, 38
2, 82792, Control_c, 0, 64, 0
2, 82831, Control_c, 0, 64, 127
2, 82844, Note_on_c, 0, 78, 0
2, 82862, Note_on_c, 0, 90, 0
2, 82947, Note_on_c, 0, 64, 0
2, 82955, Note_on_c, 0, 59, 0
2, 82960, Note_on_c, 0, 53, 0
2, 83029, Note_on_c, 0, 89, 53
2, 83036, Note_on_c, 0, 77, 43
2, 83037, Control_c, 0, 64, 0
2, 83040, Note_on_c, 0, 59, 35
2, 83044, Note_on_c, 0, 64, 27
2, 83050, Note_on_c, 0, 53, 18
2, 83110, Control_c, 0, 64, 127
2, 83355, Note_on_c, 0, 89, 0
2, 83371, Note_on_c, 0, 77, 0
2, 83384, Note_on_c, 0, 64, 0
2, 83423, Note_on_c, 0, 53, 0
2, 83441, Note_on_c, 0, 87, 60
2, 83475, Note_on_c, 0, 59, 0
2, 83491, Note_on_c, 0, 87, 0
2, 83569, Note_on_c, 0, 89, 69
2, 83582, Note_on_c, 0, 59, 30
2, 83584, Note_on_c, 0, 53, 31
2, 83588, Note_on_c, 0, 64, 32
2, 83601, Control_c, 0, 64, 0
2, 83606, Note_on_c, 0, 89, 0
2, 83607, Note_on_c, 0, 90, 49
2, 83656, Note_on_c, 0, 89, 37
2, 83690, Note_on_c, 0, 90, 0
2, 83735, Note_on_c, 0, 89, 0
2, 83735, Note_on_c, 0, 87, 49
2, 83790, Note_on_c, 0, 87, 0
2, 83791, Note_on_c, 0, 84, 31
2, 83811, Note_on_c, 0, 84, 0
2, 83857, Note_on_c, 0, 89, 49
2, 83861, Note_on_c, 0, 91, 55
2, 83889, Note_on_c, 0, 91, 0
2, 83910, Note_on_c, 0, 89, 0
2, 83974, Note_on_c, 0, 87, 74
2, 84041, Note_on_c, 0, 87, 0
2, 84072, Control_c, 0, 64, 127
2, 84080, Note_on_c, 0, 84, 57
2, 84130, Note_on_c, 0, 84, 0
2, 84162, Note_on_c, 0, 79, 39
2, 84198, Note_on_c, 0, 79, 0
2, 84227, Note_on_c, 0, 64, 0
2, 84240, Note_on_c, 0, 77, 44
2, 84274, Note_on_c, 0, 59, 0
2, 84301, Note_on_c, 0, 77, 0
2, 84307, Note_on_c, 0, 72, 43
2, 84325, Note_on_c, 0, 53, 0
2, 84349, Note_on_c, 0, 72, 0
2, 84396, Note_on_c, 0, 75, 62
2, 84397, Note_on_c, 0, 79, 49
2, 84468, Note_on_c, 0, 75, 0
2, 84471, Note_on_c, 0, 79, 0
2, 84492, Note_on_c, 0, 72, 35
2, 84519, Note_on_c, 0, 72, 0
2, 84564, Control_c, 0, 64, 0
2, 84567, Note_on_c, 0, 48, 41
2, 84571, Note_on_c, 0, 75, 63
2, 84660, Note_on_c, 0, 75, 0
2, 84674, Note_on_c, 0, 72, 55
2, 84724, Note_on_c, 0, 72, 0
2, 84769, Note_on_c, 0, 67, 36
2, 84798, Note_on_c, 0, 67, 0
2, 84840, Note_on_c, 0, 65, 30
2, 84908, Note_on_c, 0, 65, 0
2, 84915, Note_on_c, 0, 63, 37
2, 84968, Note_on_c, 0, 63, 0
2, 85019, Note_on_c, 0, 62, 46
2, 85020, Note_on_c, 0, 55, 17
2, 85271, Control_c, 0, 64, 127
2, 85733, Note_on_c, 0, 55, 0
2, 85934, Note_on_c, 0, 62, 0
2, 85952, Note_on_c, 0, 55, 26
2, 86111, Note_on_c, 0, 55, 0
2, 86140, Note_on_c, 0, 48, 0
2, 86214, Note_on_c, 0, 60, 38
2, 86265, Note_on_c, 0, 60, 0
2, 86351, Note_on_c, 0, 62, 83
2, 86442, Note_on_c, 0, 62, 0
2, 86443, Note_on_c, 0, 63, 53
2, 86460, Control_c, 0, 64, 0
2, 86466, Note_on_c, 0, 47, 20
2, 86494, Note_on_c, 0, 55, 7
2, 86497, Note_on_c, 0, 62, 48
2, 86532, Note_on_c, 0, 63, 0
2, 86560, Note_on_c, 0, 62, 0
2, 86572, Note_on_c, 0, 60, 44
2, 86628, Note_on_c, 0, 60, 0
2, 86651, Note_on_c, 0, 62, 53
2, 86720, Control_c, 0, 64, 127
2, 86784, Note_on_c, 0, 59, 38
2, 86786, Note_on_c, 0, 62, 0
2, 86864, Note_on_c, 0, 59, 0
2, 86887, Note_on_c, 0, 55, 0
2, 86958, Note_on_c, 0, 59, 50
2, 86986, Note_on_c, 0, 55, 19
2, 87005, Note_on_c, 0, 59, 0
2, 87107, Note_on_c, 0, 74, 55
2, 87172, Note_on_c, 0, 74, 0
2, 87183, Note_on_c, 0, 55, 0
2, 87414, Note_on_c, 0, 68, 32
2, 87418, Note_on_c, 0, 65, 35
2, 87440, Note_on_c, 0, 56, 20
2, 87441, Note_on_c, 0, 59, 22
2, 87569, Note_on_c, 0, 56, 0
2, 87631, Note_on_c, 0, 47, 0
2, 87686, Note_on_c, 0, 47, 30
2, 87724, Note_on_c, 0, 59, 0
2, 87750, Note_on_c, 0, 65, 0
2, 87780, Note_on_c, 0, 68, 0
2, 87924, Note_on_c, 0, 65, 36
2, 87929, Note_on_c, 0, 59, 25
2, 87932, Note_on_c, 0, 56, 25
2, 87937, Note_on_c, 0, 68, 18
2, 88037, Note_on_c, 0, 56, 0
2, 88077, Note_on_c, 0, 68, 0
2, 88080, Note_on_c, 0, 65, 0
2, 88086, Note_on_c, 0, 59, 0
2, 88087, Note_on_c, 0, 47, 0
2, 88156, Note_on_c, 0, 47, 24
2, 88205, Note_on_c, 0, 47, 0
2, 88393, Note_on_c, 0, 63, 32
2, 88395, Note_on_c, 0, 55, 30
2, 88396, Note_on_c, 0, 58, 25
2, 88397, Note_on_c, 0, 46, 25
2, 88414, Control_c, 0, 64, 0
2, 88496, Control_c, 0, 64, 127
2, 89010, Note_on_c, 0, 46, 0
2, 89089, Note_on_c, 0, 46, 31
2, 89100, Note_on_c, 0, 58, 0
2, 89133, Note_on_c, 0, 63, 0
2, 89475, Note_on_c, 0, 46, 0
2, 89539, Note_on_c, 0, 55, 0
2, 89543, Note_on_c, 0, 46, 30
2, 89692, Note_on_c, 0, 46, 0
2, 89792, Note_on_c, 0, 63, 71
2, 89795, Note_on_c, 0, 58, 74
2, 89795, Note_on_c, 0, 46, 37
2, 89796, Note_on_c, 0, 55, 74
2, 89978, Note_on_c, 0, 55, 0
2, 90003, Note_on_c, 0, 46, 0
2, 90018, Note_on_c, 0, 63, 0
2, 90026, Note_on_c, 0, 58, 0
2, 90062, Note_on_c, 0, 65, 71
2, 90063, Note_on_c, 0, 46, 32
2, 90074, Note_on_c, 0, 55, 34
2, 90136, Note_on_c, 0, 55, 0
2, 90187, Note_on_c, 0, 65, 0
2, 90248, Note_on_c, 0, 46, 0
2, 90309, Note_on_c, 0, 67, 64
2, 90314, Note_on_c, 0, 60, 61
2, 90323, Note_on_c, 0, 45, 34
2, 90326, Note_on_c, 0, 55, 40
2, 90330, Control_c, 0, 64, 0
2, 90417, Control_c, 0, 64, 127
2, 90463, Note_on_c, 0, 45, 0
2, 90472, Note_on_c, 0, 60, 0
2, 90481, Note_on_c, 0, 55, 0
2, 90511, Note_on_c, 0, 67, 0
2, 90729, Note_on_c, 0, 72, 71
2, 90732, Note_on_c, 0, 69, 76
2, 90733, Note_on_c, 0, 61, 36
2, 90739, Note_on_c, 0, 55, 58
2, 90741, Note_on_c, 0, 65, 68
2, 90758, Control_c, 0, 64, 0
2, 90802, Control_c, 0, 64, 127
2, 90878, Note_on_c, 0, 65, 0
2, 90884, Note_on_c, 0, 69, 0
2, 90886, Note_on_c, 0, 72, 0
2, 90907, Note_on_c, 0, 61, 0
2, 90983, Note_on_c, 0, 77, 64
2, 90983, Note_on_c, 0, 61, 49
2, 91026, Note_on_c, 0, 55, 0
2, 91036, Note_on_c, 0, 61, 0
2, 91056, Note_on_c, 0, 77, 0
2, 91212, Note_on_c, 0, 81, 66
2, 91216, Control_c, 0, 64, 0
2, 91220, Note_on_c, 0, 65, 32
2, 91222, Note_on_c, 0, 77, 50
2, 91228, Note_on_c, 0, 72, 53
2, 91229, Note_on_c, 0, 55, 30
2, 91242, Note_on_c, 0, 61, 14
2, 91253, Note_on_c, 0, 60, 11
2, 91264, Control_c, 0, 64, 127
2, 91323, Note_on_c, 0, 77, 0
2, 91329, Note_on_c, 0, 81, 0
2, 91352, Note_on_c, 0, 60, 0
2, 91359, Note_on_c, 0, 55, 0
2, 91363, Note_on_c, 0, 65, 0
2, 91372, Note_on_c, 0, 72, 0
2, 91379, Note_on_c, 0, 61, 0
2, 91451, Note_on_c, 0, 72, 48
2, 91451, Note_on_c, 0, 65, 28
2, 91452, Note_on_c, 0, 84, 54
2, 91457, Note_on_c, 0, 61, 20
2, 91460, Note_on_c, 0, 60, 34
2, 91500, Note_on_c, 0, 72, 0
2, 91507, Note_on_c, 0, 65, 0
2, 91516, Note_on_c, 0, 60, 0
2, 91529, Note_on_c, 0, 84, 0
2, 91536, Note_on_c, 0, 61, 0
2, 91690, Note_on_c, 0, 89, 36
2, 91692, Note_on_c, 0, 77, 35
2, 91694, Note_on_c, 0, 61, 25
2, 91694, Note_on_c, 0, 60, 32
2, 91699, Note_on_c, 0, 65, 25
2, 91702, Note_on_c, 0, 55, 33
2, 91733, Note_on_c, 0, 77, 0
2, 91746, Note_on_c, 0, 89, 0
2, 91747, Note_on_c, 0, 65, 0
2, 91764, Note_on_c, 0, 61, 0
2, 91768, Note_on_c, 0, 60, 0
2, 91776, Note_on_c, 0, 55, 0
2, 92079, Note_on_c, 0, 96, 49
2, 92088, Note_on_c, 0, 84, 36
2, 92135, Note_on_c, 0, 96, 0
2, 92136, Note_on_c, 0, 84, 0
2, 92173, Control_c, 0, 64, 0
2, 92192, Note_on_c, 0, 51, 40
2, 92196, Note_on_c, 0, 44, 33
2, 92205, Note_on_c, 0, 96, 44
2, 92209, Note_on_c, 0, 84, 34
2, 92222, Control_c, 0, 64, 127
2, 92239, Note_on_c, 0, 44, 0
2, 92251, Note_on_c, 0, 51, 0
2, 92264, Note_on_c, 0, 84, 0
2, 92304, Note_on_c, 0, 96, 0
2, 92440, Note_on_c, 0, 94, 48
2, 92444, Note_on_c, 0, 60, 43
2, 92446, Note_on_c, 0, 63, 25
2, 92447, Note_on_c, 0, 58, 39
2, 92452, Note_on_c, 0, 53, 26
2, 92455, Note_on_c, 0, 82, 33
2, 92490, Note_on_c, 0, 63, 0
2, 92496, Note_on_c, 0, 53, 0
2, 92512, Note_on_c, 0, 60, 0
2, 92530, Note_on_c, 0, 58, 0
2, 92549, Note_on_c, 0, 82, 0
2, 92577, Note_on_c, 0, 94, 0
2, 92684, Note_on_c, 0, 94, 37
2, 92685, Note_on_c, 0, 63, 30
2, 92689, Note_on_c, 0, 82, 34
2, 92693, Note_on_c, 0, 58, 36
2, 92716, Note_on_c, 0, 94, 0
2, 92722, Note_on_c, 0, 82, 0
2, 92723, Note_on_c, 0, 63, 0
2, 92753, Note_on_c, 0, 58, 0
2, 93053, Note_on_c, 0, 72, 85
2, 93132, Note_on_c, 0, 72, 0
2, 93188, Note_on_c, 0, 72, 51
2, 93191, Note_on_c, 0, 44, 39
2, 93192, Note_on_c, 0, 64, 61
2, 93195, Note_on_c, 0, 60, 64
2, 93196, Note_on_c, 0, 52, 48
2, 93197, Note_on_c, 0, 67, 55
2, 93223, Control_c, 0, 64, 0
2, 93329, Control_c, 0, 64, 127
2, 93468, Note_on_c, 0, 64, 0
2, 93541, Note_on_c, 0, 60, 0
2, 93599, Note_on_c, 0, 67, 0
2, 93613, Note_on_c, 0, 52, 0
2, 93630, Note_on_c, 0, 65, 52
2, 93641, Note_on_c, 0, 60, 33
2, 93641, Note_on_c, 0, 53, 32
2, 93680, Control_c, 0, 64, 0
2, 93772, Control_c, 0, 64, 127
2, 93805, Note_on_c, 0, 72, 0
2, 93838, Note_on_c, 0, 44, 0
2, 93886, Note_on_c, 0, 65, 0
2, 93887, Note_on_c, 0, 53, 0
2, 93912, Note_on_c, 0, 60, 0
2, 94091, Note_on_c, 0, 56, 46
2, 94097, Note_on_c, 0, 63, 42
2, 94106, Note_on_c, 0, 41, 30
2, 94107, Note_on_c, 0, 48, 29
2, 94128, Control_c, 0, 64, 0
2, 94248, Control_c, 0, 64, 127
2, 94412, Note_on_c, 0, 56, 0
2, 94547, Note_on_c, 0, 56, 33
2, 94554, Note_on_c, 0, 51, 23
2, 94560, Note_on_c, 0, 60, 39
2, 94745, Note_on_c, 0, 56, 0
2, 94775, Note_on_c, 0, 60, 0
2, 94848, Note_on_c, 0, 63, 0
2, 94865, Note_on_c, 0, 51, 0
2, 94876, Note_on_c, 0, 48, 0
2, 94954, Note_on_c, 0, 41, 0
2, 95287, Note_on_c, 0, 70, 68
2, 95291, Note_on_c, 0, 63, 68
2, 95292, Note_on_c, 0, 58, 71
2, 95293, Note_on_c, 0, 65, 71
2, 95298, Note_on_c, 0, 59, 78
2, 95338, Control_c, 0, 64, 0
2, 95419, Control_c, 0, 64, 127
2, 95680, Note_on_c, 0, 59, 0
2, 95703, Note_on_c, 0, 58, 0
2, 95710, Note_on_c, 0, 63, 0
2, 95718, Note_on_c, 0, 65, 0
2, 95724, Note_on_c, 0, 70, 0
2, 95767, Note_on_c, 0, 56, 35
2, 95776, Note_on_c, 0, 63, 33
2, 95780, Note_on_c, 0, 68, 39
2, 95782, Note_on_c, 0, 65, 36
2, 95783, Note_on_c, 0, 59, 39
2, 95813, Note_on_c, 0, 56, 0
2, 95880, Note_on_c, 0, 63, 0
2, 95931, Note_on_c, 0, 59, 0
2, 95932, Note_on_c, 0, 65, 0
2, 95978, Note_on_c, 0, 68, 0
2, 96014, Note_on_c, 0, 63, 46
2, 96023, Note_on_c, 0, 59, 49
2, 96028, Note_on_c, 0, 56, 28
2, 96030, Note_on_c, 0, 46, 27
2, 96049, Control_c, 0, 64, 0
2, 96136, Control_c, 0, 64, 127
2, 96267, Note_on_c, 0, 56, 0
2, 96335, Note_on_c, 0, 59, 0
2, 96371, Note_on_c, 0, 63, 0
2, 96485, Note_on_c, 0, 63, 37
2, 96493, Note_on_c, 0, 59, 33
2, 96503, Note_on_c, 0, 56, 21
2, 96673, Note_on_c, 0, 46, 0
2, 96730, Note_on_c, 0, 46, 30
2, 96913, Note_on_c, 0, 46, 0
2, 96963, Note_on_c, 0, 46, 31
2, 96966, Note_on_c, 0, 59, 0
2, 97042, Note_on_c, 0, 63, 0
2, 97226, Note_on_c, 0, 56, 0
2, 97244, Note_on_c, 0, 46, 0
2, 97457, Note_on_c, 0, 82, 90
2, 97526, Note_on_c, 0, 82, 0
2, 97579, Note_on_c, 0, 83, 85
2, 97668, Note_on_c, 0, 83, 0
2, 97713, Note_on_c, 0, 82, 77
2, 97832, Note_on_c, 0, 82, 0
2, 97832, Note_on_c, 0, 80, 49
2, 97907, Note_on_c, 0, 80, 0
2, 97940, Note_on_c, 0, 82, 45
2, 97955, Note_on_c, 0, 62, 36
2, 97956, Note_on_c, 0, 56, 28
2, 97960, Control_c, 0, 64, 0
2, 98048, Control_c, 0, 64, 127
2, 98317, Note_on_c, 0, 56, 0
2, 98317, Note_on_c, 0, 62, 0
2, 98434, Note_on_c, 0, 65, 29
2, 98436, Note_on_c, 0, 62, 28
2, 98441, Note_on_c, 0, 56, 25
2, 98729, Note_on_c, 0, 65, 0
2, 98775, Note_on_c, 0, 62, 0
2, 98785, Note_on_c, 0, 56, 0
2, 98806, Note_on_c, 0, 82, 0
2, 98808, Note_on_c, 0, 80, 59
2, 98880, Note_on_c, 0, 80, 0
2, 98929, Note_on_c, 0, 79, 60
2, 98947, Note_on_c, 0, 65, 24
2, 98947, Note_on_c, 0, 62, 22
2, 98954, Note_on_c, 0, 56, 20
2, 98966, Control_c, 0, 64, 0
2, 99015, Note_on_c, 0, 80, 44
2, 99031, Note_on_c, 0, 79, 0
2, 99089, Note_on_c, 0, 82, 67
2, 99100, Note_on_c, 0, 80, 0
2, 99144, Control_c, 0, 64, 127
2, 99252, Note_on_c, 0, 65, 0
2, 99383, Note_on_c, 0, 82, 0
2, 99409, Note_on_c, 0, 74, 44
2, 99418, Note_on_c, 0, 65, 30
2, 99456, Note_on_c, 0, 65, 0
2, 99470, Note_on_c, 0, 62, 0
2, 99484, Note_on_c, 0, 74, 0
2, 99487, Note_on_c, 0, 75, 56
2, 99496, Note_on_c, 0, 56, 0
2, 99543, Note_on_c, 0, 75, 0
2, 99571, Note_on_c, 0, 77, 55
2, 99876, Note_on_c, 0, 71, 43
2, 99877, Note_on_c, 0, 67, 39
2, 99888, Note_on_c, 0, 51, 17
2, 99896, Note_on_c, 0, 55, 33
2, 99897, Note_on_c, 0, 62, 24
2, 99898, Note_on_c, 0, 59, 22
2, 99900, Control_c, 0, 64, 0
2, 99982, Control_c, 0, 64, 127
2, 100020, Note_on_c, 0, 77, 0
2, 100074, Note_on_c, 0, 67, 0
2, 100098, Note_on_c, 0, 79, 58
2, 100104, Note_on_c, 0, 71, 0
2, 100187, Note_on_c, 0, 62, 0
2, 100197, Note_on_c, 0, 59, 0
2, 100209, Note_on_c, 0, 77, 1
2, 100301, Note_on_c, 0, 79, 0
2, 100312, Note_on_c, 0, 77, 0
2, 100331, Note_on_c, 0, 74, 55
2, 100336, Note_on_c, 0, 67, 38
2, 100338, Note_on_c, 0, 71, 39
2, 100346, Note_on_c, 0, 59, 24
2, 100347, Note_on_c, 0, 62, 27
2, 100429, Note_on_c, 0, 51, 0
2, 100539, Note_on_c, 0, 55, 0
2, 100582, Note_on_c, 0, 62, 0
2, 100584, Note_on_c, 0, 51, 39
2, 100600, Note_on_c, 0, 59, 0
2, 100608, Note_on_c, 0, 74, 0
2, 100627, Note_on_c, 0, 71, 0
2, 100635, Note_on_c, 0, 51, 0
2, 100687, Note_on_c, 0, 67, 0
2, 100829, Note_on_c, 0, 65, 59
2, 100830, Note_on_c, 0, 72, 57
2, 100831, Note_on_c, 0, 68, 51
2, 100836, Note_on_c, 0, 63, 37
2, 100837, Note_on_c, 0, 60, 57
2, 100868, Control_c, 0, 64, 0
2, 100979, Control_c, 0, 64, 127
2, 101076, Note_on_c, 0, 58, 52
2, 101103, Note_on_c, 0, 63, 0
2, 101104, Note_on_c, 0, 72, 0
2, 101113, Note_on_c, 0, 60, 0
2, 101122, Note_on_c, 0, 68, 0
2, 101141, Note_on_c, 0, 65, 0
2, 101141, Note_on_c, 0, 58, 0
2, 101333, Note_on_c, 0, 63, 37
2, 101338, Note_on_c, 0, 56, 36
2, 101340, Note_on_c, 0, 60, 44
2, 101374, Control_c, 0, 64, 0
2, 101417, Control_c, 0, 64, 127
2, 101527, Note_on_c, 0, 56, 0
2, 101545, Note_on_c, 0, 63, 0
2, 101565, Note_on_c, 0, 46, 29
2, 101571, Note_on_c, 0, 60, 0
2, 101629, Note_on_c, 0, 46, 0
2, 101806, Note_on_c, 0, 62, 41
2, 101810, Note_on_c, 0, 39, 30
2, 101811, Note_on_c, 0, 55, 32
2, 101814, Note_on_c, 0, 58, 28
2, 101821, Control_c, 0, 64, 0
2, 101822, Note_on_c, 0, 46, 25
2, 101893, Control_c, 0, 64, 127
2, 102050, Note_on_c, 0, 39, 0
2, 102099, Note_on_c, 0, 55, 0
2, 102169, Note_on_c, 0, 62, 0
2, 102204, Note_on_c, 0, 58, 0
2, 102270, Note_on_c, 0, 55, 44
2, 102313, Note_on_c, 0, 55, 0
2, 102432, Note_on_c, 0, 53, 31
2, 102484, Note_on_c, 0, 53, 0
2, 102509, Note_on_c, 0, 55, 45
2, 102535, Note_on_c, 0, 55, 0
2, 102560, Note_on_c, 0, 58, 56
2, 102597, Note_on_c, 0, 58, 0
2, 102623, Note_on_c, 0, 59, 34
2, 102651, Note_on_c, 0, 59, 0
2, 102672, Note_on_c, 0, 62, 72
2, 102707, Note_on_c, 0, 62, 0
2, 102717, Note_on_c, 0, 46, 0
2, 102762, Note_on_c, 0, 65, 37
2, 102766, Note_on_c, 0, 67, 37
2, 102786, Note_on_c, 0, 67, 0
2, 102798, Note_on_c, 0, 65, 0
2, 102816, Note_on_c, 0, 67, 56
2, 102856, Note_on_c, 0, 67, 0
2, 102861, Note_on_c, 0, 70, 57
2, 102888, Note_on_c, 0, 70, 0
2, 102907, Note_on_c, 0, 72, 55
2, 102952, Note_on_c, 0, 72, 0
2, 102954, Note_on_c, 0, 74, 62
2, 102982, Note_on_c, 0, 74, 0
2, 103018, Note_on_c, 0, 77, 50
2, 103065, Note_on_c, 0, 79, 54
2, 103081, Note_on_c, 0, 77, 0
2, 103108, Note_on_c, 0, 82, 49
2, 103109, Note_on_c, 0, 79, 0
2, 103147, Note_on_c, 0, 82, 0
2, 103165, Note_on_c, 0, 86, 83
2, 103224, Note_on_c, 0, 68, 32
2, 103229, Note_on_c, 0, 84, 66
2, 103230, Note_on_c, 0, 58, 32
2, 103235, Note_on_c, 0, 86, 0
2, 103236, Note_on_c, 0, 63, 40
2, 103238, Note_on_c, 0, 60, 48
2, 103256, Control_c, 0, 64, 0
2, 103273, Note_on_c, 0, 84, 0
2, 103364, Note_on_c, 0, 80, 50
2, 103386, Note_on_c, 0, 80, 0
2, 103484, Note_on_c, 0, 77, 42
2, 103518, Note_on_c, 0, 77, 0
2, 103525, Control_c, 0, 64, 127
2, 103530, Note_on_c, 0, 68, 0
2, 103553, Note_on_c, 0, 63, 0
2, 103560, Note_on_c, 0, 60, 0
2, 103582, Note_on_c, 0, 58, 0
2, 103608, Note_on_c, 0, 84, 74
2, 103666, Note_on_c, 0, 84, 0
2, 103728, Note_on_c, 0, 51, 21
2, 103732, Control_c, 0, 64, 0
2, 103736, Note_on_c, 0, 82, 53
2, 103738, Note_on_c, 0, 58, 28
2, 103783, Note_on_c, 0, 82, 0
2, 103855, Note_on_c, 0, 79, 40
2, 103904, Note_on_c, 0, 79, 0
2, 103941, Note_on_c, 0, 74, 45
2, 103983, Note_on_c, 0, 74, 0
2, 104026, Note_on_c, 0, 70, 47
2, 104064, Control_c, 0, 64, 127
2, 104082, Note_on_c, 0, 70, 0
2, 104109, Note_on_c, 0, 67, 58
2, 104129, Note_on_c, 0, 67, 0
2, 104165, Control_c, 0, 64, 0
2, 104210, Note_on_c, 0, 62, 30
2, 104243, Control_c, 0, 64, 127
2, 104339, Note_on_c, 0, 51, 0
2, 104353, Note_on_c, 0, 58, 0
2, 104387, Note_on_c, 0, 62, 0
2, 104529, Note_on_c, 0, 87, 83
2, 104575, Note_on_c, 0, 87, 0
2, 104618, Note_on_c, 0, 84, 80
2, 104679, Note_on_c, 0, 84, 0
2, 104703, Note_on_c, 0, 80, 62
2, 104706, Note_on_c, 0, 68, 25
2, 104716, Note_on_c, 0, 63, 31
2, 104717, Note_on_c, 0, 60, 33
2, 104724, Control_c, 0, 64, 0
2, 104731, Note_on_c, 0, 58, 19
2, 104758, Note_on_c, 0, 80, 0
2, 104784, Note_on_c, 0, 77, 30
2, 104811, Note_on_c, 0, 77, 0
2, 104847, Note_on_c, 0, 75, 45
2, 104890, Note_on_c, 0, 68, 0
2, 104904, Note_on_c, 0, 75, 0
2, 104930, Note_on_c, 0, 72, 32
2, 104955, Note_on_c, 0, 72, 0
2, 105000, Note_on_c, 0, 68, 30
2, 105032, Control_c, 0, 64, 127
2, 105049, Note_on_c, 0, 68, 0
2, 105070, Note_on_c, 0, 63, 0
2, 105074, Note_on_c, 0, 65, 38
2, 105096, Note_on_c, 0, 65, 0
2, 105193, Note_on_c, 0, 68, 36
2, 105211, Note_on_c, 0, 63, 27
2, 105330, Note_on_c, 0, 68, 0
2, 105386, Note_on_c, 0, 94, 77
2, 105434, Note_on_c, 0, 60, 0
2, 105456, Note_on_c, 0, 94, 0
2, 105481, Note_on_c, 0, 58, 0
2, 105498, Note_on_c, 0, 92, 76
2, 105529, Note_on_c, 0, 63, 0
2, 105571, Note_on_c, 0, 92, 0
2, 105584, Note_on_c, 0, 87, 69
2, 105648, Note_on_c, 0, 87, 0
2, 105653, Control_c, 0, 64, 0
2, 105667, Note_on_c, 0, 83, 40
2, 105683, Note_on_c, 0, 56, 29
2, 105684, Note_on_c, 0, 62, 33
2, 105716, Note_on_c, 0, 83, 0
2, 105874, Control_c, 0, 64, 127
2, 105934, Note_on_c, 0, 86, 74
2, 105995, Note_on_c, 0, 86, 0
2, 106029, Note_on_c, 0, 82, 67
2, 106041, Note_on_c, 0, 56, 0
2, 106087, Note_on_c, 0, 82, 0
2, 106113, Note_on_c, 0, 79, 57
2, 106133, Note_on_c, 0, 65, 20
2, 106133, Note_on_c, 0, 55, 24
2, 106134, Note_on_c, 0, 60, 32
2, 106144, Control_c, 0, 64, 0
2, 106175, Note_on_c, 0, 79, 0
2, 106205, Note_on_c, 0, 74, 45
2, 106254, Note_on_c, 0, 74, 0
2, 106305, Note_on_c, 0, 70, 50
2, 106317, Control_c, 0, 64, 127
2, 106331, Note_on_c, 0, 65, 0
2, 106376, Note_on_c, 0, 70, 0
2, 106383, Note_on_c, 0, 62, 0
2, 106389, Note_on_c, 0, 60, 0
2, 106416, Note_on_c, 0, 77, 64
2, 106421, Note_on_c, 0, 55, 0
2, 106533, Note_on_c, 0, 77, 0
2, 106563, Note_on_c, 0, 73, 38
2, 106565, Note_on_c, 0, 75, 62
2, 106569, Note_on_c, 0, 63, 34
2, 106576, Note_on_c, 0, 60, 40
2, 106578, Control_c, 0, 64, 0
2, 106647, Note_on_c, 0, 73, 0
2, 106683, Control_c, 0, 64, 127
2, 106768, Note_on_c, 0, 60, 0
2, 106803, Note_on_c, 0, 58, 35
2, 106807, Note_on_c, 0, 75, 0
2, 106818, Note_on_c, 0, 63, 0
2, 106857, Note_on_c, 0, 58, 0
2, 107052, Note_on_c, 0, 68, 30
2, 107054, Note_on_c, 0, 56, 27
2, 107056, Note_on_c, 0, 60, 36
2, 107061, Note_on_c, 0, 63, 33
2, 107087, Control_c, 0, 64, 0
2, 107164, Control_c, 0, 64, 127
2, 107279, Note_on_c, 0, 68, 0
2, 107281, Note_on_c, 0, 56, 0
2, 107288, Note_on_c, 0, 60, 0
2, 107292, Note_on_c, 0, 46, 33
2, 107293, Note_on_c, 0, 63, 0
2, 107350, Note_on_c, 0, 46, 0
2, 107535, Note_on_c, 0, 67, 44
2, 107541, Note_on_c, 0, 58, 33
2, 107544, Control_c, 0, 64, 0
2, 107546, Note_on_c, 0, 39, 31
2, 107552, Note_on_c, 0, 55, 36
2, 107556, Note_on_c, 0, 46, 25
2, 107651, Control_c, 0, 64, 127
2, 107730, Note_on_c, 0, 39, 0
2, 107777, Note_on_c, 0, 55, 0
2, 107847, Note_on_c, 0, 58, 0
2, 108036, Note_on_c, 0, 58, 37
2, 108047, Note_on_c, 0, 55, 24
2, 108136, Note_on_c, 0, 46, 0
2, 108169, Note_on_c, 0, 55, 0
2, 108236, Note_on_c, 0, 58, 0
2, 108395, Note_on_c, 0, 67, 0
2, 108490, Note_on_c, 0, 55, 24
2, 108494, Note_on_c, 0, 56, 25
2, 108495, Note_on_c, 0, 60, 31
2, 108498, Note_on_c, 0, 50, 22
2, 108517, Control_c, 0, 64, 0
2, 108623, Control_c, 0, 64, 127
2, 108665, Note_on_c, 0, 67, 46
2, 108729, Note_on_c, 0, 67, 0
2, 108750, Note_on_c, 0, 68, 36
2, 108757, Note_on_c, 0, 50, 0
2, 108771, Note_on_c, 0, 68, 0
2, 108776, Note_on_c, 0, 55, 0
2, 108782, Note_on_c, 0, 60, 0
2, 108789, Note_on_c, 0, 56, 0
2, 108791, Control_c, 0, 64, 0
2, 108829, Note_on_c, 0, 72, 50
2, 108857, Note_on_c, 0, 72, 0
2, 108899, Note_on_c, 0, 76, 74
2, 108952, Note_on_c, 0, 76, 0
2, 108983, Note_on_c, 0, 79, 73
2, 108997, Note_on_c, 0, 64, 37
2, 109009, Note_on_c, 0, 59, 38
2, 109018, Note_on_c, 0, 53, 19
2, 109037, Note_on_c, 0, 79, 0
2, 109073, Note_on_c, 0, 77, 58
2, 109124, Note_on_c, 0, 77, 0
2, 109184, Note_on_c, 0, 75, 61
2, 109239, Note_on_c, 0, 75, 0
2, 109270, Note_on_c, 0, 71, 47
2, 109286, Note_on_c, 0, 64, 0
2, 109312, Note_on_c, 0, 59, 0
2, 109322, Note_on_c, 0, 71, 0
2, 109349, Note_on_c, 0, 74, 68
2, 109356, Note_on_c, 0, 53, 0
2, 109414, Note_on_c, 0, 74, 0
2, 109441, Note_on_c, 0, 72, 47
2, 109491, Note_on_c, 0, 48, 26
2, 109492, Note_on_c, 0, 72, 0
2, 109504, Note_on_c, 0, 55, 25
2, 109520, Note_on_c, 0, 67, 46
2, 109595, Note_on_c, 0, 67, 0
2, 109663, Control_c, 0, 64, 127
2, 109681, Note_on_c, 0, 63, 48
2, 109727, Note_on_c, 0, 63, 0
2, 109738, Note_on_c, 0, 55, 0
2, 109754, Note_on_c, 0, 48, 0
2, 109826, Note_on_c, 0, 62, 54
2, 109878, Note_on_c, 0, 62, 0
2, 109899, Note_on_c, 0, 63, 43
2, 109968, Note_on_c, 0, 63, 0
2, 110002, Note_on_c, 0, 62, 52
2, 110010, Note_on_c, 0, 47, 38
2, 110028, Control_c, 0, 64, 0
2, 110129, Control_c, 0, 64, 127
2, 110268, Note_on_c, 0, 47, 0
2, 110304, Note_on_c, 0, 62, 0
2, 110455, Note_on_c, 0, 61, 35
2, 110462, Note_on_c, 0, 56, 33
2, 110466, Note_on_c, 0, 46, 34
2, 110472, Control_c, 0, 64, 0
2, 110553, Control_c, 0, 64, 127
2, 110635, Note_on_c, 0, 56, 0
2, 110699, Note_on_c, 0, 61, 0
2, 110729, Note_on_c, 0, 46, 0
2, 110910, Note_on_c, 0, 61, 38
2, 110914, Note_on_c, 0, 66, 36
2, 110922, Note_on_c, 0, 55, 32
2, 110923, Note_on_c, 0, 45, 29
2, 110924, Control_c, 0, 64, 0
2, 111020, Control_c, 0, 64, 127
2, 111094, Note_on_c, 0, 66, 0
2, 111153, Note_on_c, 0, 61, 0
2, 111159, Note_on_c, 0, 73, 47
2, 111183, Note_on_c, 0, 55, 0
2, 111209, Note_on_c, 0, 45, 0
2, 111316, Note_on_c, 0, 73, 0
2, 111388, Note_on_c, 0, 73, 35
2, 111409, Note_on_c, 0, 44, 33
2, 111415, Control_c, 0, 64, 0
2, 111487, Control_c, 0, 64, 127
2, 111552, Note_on_c, 0, 73, 0
2, 111652, Note_on_c, 0, 52, 32
2, 111661, Note_on_c, 0, 60, 34
2, 111684, Note_on_c, 0, 60, 0
2, 111891, Note_on_c, 0, 60, 42
2, 111894, Note_on_c, 0, 52, 0
2, 111894, Note_on_c, 0, 64, 38
2, 111896, Note_on_c, 0, 55, 34
2, 111915, Control_c, 0, 64, 0
2, 111987, Control_c, 0, 64, 127
2, 112121, Note_on_c, 0, 55, 0
2, 112130, Note_on_c, 0, 52, 32
2, 112147, Note_on_c, 0, 64, 0
2, 112194, Note_on_c, 0, 60, 0
2, 112298, Note_on_c, 0, 52, 0
2, 112339, Note_on_c, 0, 60, 36
2, 112340, Note_on_c, 0, 53, 34
2, 112354, Note_on_c, 0, 65, 20
2, 112363, Control_c, 0, 64, 0
2, 112469, Control_c, 0, 64, 127
2, 112563, Note_on_c, 0, 44, 0
2, 112638, Note_on_c, 0, 65, 0
2, 112677, Note_on_c, 0, 60, 0
2, 112800, Note_on_c, 0, 44, 31
2, 112804, Note_on_c, 0, 60, 36
2, 113154, Note_on_c, 0, 44, 0
2, 113337, Note_on_c, 0, 60, 0
2, 113343, Note_on_c, 0, 53, 0
2, 113538, Note_on_c, 0, 67, 68
2, 113545, Note_on_c, 0, 56, 36
2, 113547, Note_on_c, 0, 60, 55
2, 113547, Note_on_c, 0, 62, 50
2, 113556, Note_on_c, 0, 55, 37
2, 113580, Control_c, 0, 64, 0
2, 113667, Control_c, 0, 64, 127
2, 113789, Note_on_c, 0, 43, 27
2, 114026, Note_on_c, 0, 67, 0
2, 114043, Note_on_c, 0, 55, 0
2, 114090, Note_on_c, 0, 62, 0
2, 114091, Note_on_c, 0, 60, 0
2, 114131, Note_on_c, 0, 56, 0
2, 114256, Note_on_c, 0, 65, 39
2, 114258, Note_on_c, 0, 53, 32
2, 114259, Note_on_c, 0, 56, 18
2, 114264, Note_on_c, 0, 59, 41
2, 114283, Control_c, 0, 64, 0
2, 114370, Control_c, 0, 64, 127
2, 114471, Note_on_c, 0, 43, 0
2, 114546, Note_on_c, 0, 56, 0
2, 114588, Note_on_c, 0, 59, 0
2, 114675, Note_on_c, 0, 65, 0
2, 114705, Note_on_c, 0, 43, 35
2, 114820, Note_on_c, 0, 43, 0
2, 114884, Note_on_c, 0, 53, 0
2, 115033, Note_on_c, 0, 62, 31
2, 115088, Note_on_c, 0, 62, 0
2, 115117, Note_on_c, 0, 63, 51
2, 115168, Note_on_c, 0, 63, 0
2, 115186, Note_on_c, 0, 65, 58
2, 115229, Note_on_c, 0, 48, 31
2, 115236, Control_c, 0, 64, 0
2, 115237, Note_on_c, 0, 55, 34
2, 115244, Note_on_c, 0, 65, 0
2, 115261, Note_on_c, 0, 63, 42
2, 115347, Control_c, 0, 64, 127
2, 115719, Note_on_c, 0, 60, 39
2, 115834, Note_on_c, 0, 55, 0
2, 115952, Note_on_c, 0, 55, 34
2, 115972, Note_on_c, 0, 60, 0
2, 116182, Note_on_c, 0, 55, 0
2, 116216, Note_on_c, 0, 63, 0
2, 116446, Note_on_c, 0, 60, 24
2, 116528, Note_on_c, 0, 48, 0
2, 116547, Note_on_c, 0, 60, 0
2, 116636, Note_on_c, 0, 86, 66
2, 116667, Note_on_c, 0, 74, 54
2, 116749, Note_on_c, 0, 86, 0
2, 116787, Note_on_c, 0, 74, 0
2, 116880, Note_on_c, 0, 87, 63
2, 116904, Note_on_c, 0, 75, 46
2, 117011, Note_on_c, 0, 87, 0
2, 117032, Note_on_c, 0, 75, 0
2, 117368, Note_on_c, 0, 86, 68
2, 117389, Note_on_c, 0, 67, 31
2, 117394, Note_on_c, 0, 74, 49
2, 117400, Note_on_c, 0, 63, 17
2, 117403, Control_c, 0, 64, 0
2, 117403, Note_on_c, 0, 59, 33
2, 117470, Control_c, 0, 64, 127
2, 117525, Note_on_c, 0, 63, 0
2, 117562, Note_on_c, 0, 86, 0
2, 117602, Note_on_c, 0, 67, 0
2, 117602, Note_on_c, 0, 74, 0
2, 117612, Note_on_c, 0, 63, 35
2, 117826, Note_on_c, 0, 87, 47
2, 117839, Note_on_c, 0, 67, 29
2, 117840, Note_on_c, 0, 75, 47
2, 117856, Note_on_c, 0, 59, 0
2, 117941, Note_on_c, 0, 63, 0
2, 117957, Note_on_c, 0, 87, 0
2, 117990, Note_on_c, 0, 75, 0
2, 118025, Note_on_c, 0, 67, 0
2, 118072, Note_on_c, 0, 86, 65
2, 118079, Note_on_c, 0, 74, 44
2, 118080, Note_on_c, 0, 60, 33
2, 118288, Note_on_c, 0, 74, 0
2, 118290, Note_on_c, 0, 86, 0
2, 118322, Note_on_c, 0, 67, 33
2, 118547, Note_on_c, 0, 71, 36
2, 118566, Note_on_c, 0, 77, 46
2, 118707, Note_on_c, 0, 60, 0
2, 118739, Note_on_c, 0, 89, 77
2, 118826, Note_on_c, 0, 89, 0
2, 118879, Note_on_c, 0, 77, 0
2, 118901, Note_on_c, 0, 88, 57
2, 118905, Note_on_c, 0, 71, 0
2, 118941, Note_on_c, 0, 88, 0
2, 119043, Note_on_c, 0, 87, 40
2, 119047, Note_on_c, 0, 75, 40
2, 119052, Note_on_c, 0, 67, 0
2, 119052, Note_on_c, 0, 85, 30
2, 119057, Note_on_c, 0, 70, 37
2, 119064, Control_c, 0, 64, 0
2, 119067, Note_on_c, 0, 60, 38
2, 119150, Control_c, 0, 64, 127
2, 119247, Note_on_c, 0, 70, 0
2, 119261, Note_on_c, 0, 67, 36
2, 119265, Note_on_c, 0, 79, 41
2, 119301, Note_on_c, 0, 87, 0
2, 119325, Note_on_c, 0, 79, 0
2, 119343, Note_on_c, 0, 75, 0
2, 119347, Note_on_c, 0, 85, 0
2, 119368, Note_on_c, 0, 67, 0
2, 119430, Note_on_c, 0, 60, 0
2, 119513, Note_on_c, 0, 67, 52
2, 119683, Note_on_c, 0, 67, 0
2, 119760, Note_on_c, 0, 48, 32
2, 119829, Note_on_c, 0, 48, 0
2, 120005, Note_on_c, 0, 63, 57
2, 120012, Note_on_c, 0, 48, 36
2, 120016, Note_on_c, 0, 60, 57
2, 120017, Note_on_c, 0, 55, 46
2, 120036, Control_c, 0, 64, 0
2, 120132, Control_c, 0, 64, 127
2, 120133, Note_on_c, 0, 48, 0
2, 120262, Note_on_c, 0, 48, 44
2, 120379, Note_on_c, 0, 55, 0
2, 120384, Note_on_c, 0, 60, 0
2, 120398, Note_on_c, 0, 48, 0
2, 120419, Note_on_c, 0, 63, 0
2, 120515, Note_on_c, 0, 65, 49
2, 120524, Note_on_c, 0, 48, 31
2, 120529, Note_on_c, 0, 60, 47
2, 120531, Note_on_c, 0, 55, 34
2, 120636, Note_on_c, 0, 65, 0
2, 120783, Note_on_c, 0, 48, 0
2, 120792, Note_on_c, 0, 55, 0
2, 120857, Note_on_c, 0, 60, 0
2, 120877, Note_on_c, 0, 67, 49
2, 120956, Note_on_c, 0, 67, 0
2, 121008, Note_on_c, 0, 65, 51
2, 121015, Note_on_c, 0, 55, 47
2, 121021, Note_on_c, 0, 60, 49
2, 121022, Note_on_c, 0, 63, 33
2, 121026, Note_on_c, 0, 45, 35
2, 121032, Control_c, 0, 64, 0
2, 121138, Control_c, 0, 64, 127
2, 121232, Note_on_c, 0, 55, 0
2, 121243, Note_on_c, 0, 65, 0
2, 121261, Note_on_c, 0, 67, 60
2, 121292, Note_on_c, 0, 60, 0
2, 121379, Note_on_c, 0, 67, 0
2, 121386, Note_on_c, 0, 63, 0
2, 121488, Note_on_c, 0, 65, 47
2, 121489, Note_on_c, 0, 63, 33
2, 121496, Note_on_c, 0, 57, 33
2, 121497, Note_on_c, 0, 60, 52
2, 121577, Note_on_c, 0, 57, 0
2, 121624, Note_on_c, 0, 45, 0
2, 121728, Note_on_c, 0, 45, 43
2, 121770, Note_on_c, 0, 60, 0
2, 121800, Note_on_c, 0, 45, 0
2, 121851, Note_on_c, 0, 63, 0
2, 121960, Note_on_c, 0, 63, 33
2, 121972, Note_on_c, 0, 60, 45
2, 121974, Note_on_c, 0, 45, 32
2, 121979, Note_on_c, 0, 55, 34
2, 122218, Note_on_c, 0, 55, 0
2, 122548, Note_on_c, 0, 45, 0
2, 122657, Note_on_c, 0, 45, 32
2, 122659, Note_on_c, 0, 55, 39
2, 122708, Note_on_c, 0, 55, 0
2, 122717, Note_on_c, 0, 45, 0
2, 122720, Note_on_c, 0, 60, 0
2, 122746, Note_on_c, 0, 63, 0
2, 122897, Note_on_c, 0, 65, 0
2, 122905, Note_on_c, 0, 63, 35
2, 122912, Note_on_c, 0, 56, 17
2, 122913, Note_on_c, 0, 44, 30
2, 122918, Note_on_c, 0, 60, 40
2, 122924, Control_c, 0, 64, 0
2, 122925, Note_on_c, 0, 51, 25
2, 123010, Control_c, 0, 64, 127
2, 123148, Note_on_c, 0, 67, 37
2, 123225, Note_on_c, 0, 67, 0
2, 123256, Note_on_c, 0, 60, 0
2, 123261, Note_on_c, 0, 56, 0
2, 123292, Note_on_c, 0, 63, 0
2, 123590, Note_on_c, 0, 72, 53
2, 123614, Note_on_c, 0, 51, 0
2, 123624, Note_on_c, 0, 44, 0
2, 123668, Note_on_c, 0, 72, 0
2, 123822, Note_on_c, 0, 72, 68
2, 123843, Note_on_c, 0, 44, 28
2, 123847, Note_on_c, 0, 60, 57
2, 123849, Note_on_c, 0, 51, 27
2, 124080, Note_on_c, 0, 60, 0
2, 124088, Note_on_c, 0, 55, 31
2, 124156, Note_on_c, 0, 72, 0
2, 124279, Note_on_c, 0, 44, 0
2, 124300, Note_on_c, 0, 74, 51
2, 124307, Note_on_c, 0, 51, 0
2, 124316, Note_on_c, 0, 62, 61
2, 124391, Note_on_c, 0, 55, 0
2, 124392, Note_on_c, 0, 74, 0
2, 124398, Note_on_c, 0, 62, 0
2, 124549, Note_on_c, 0, 75, 57
2, 124620, Note_on_c, 0, 75, 0
2, 124766, Note_on_c, 0, 74, 51
2, 124778, Note_on_c, 0, 68, 43
2, 124781, Note_on_c, 0, 62, 30
2, 124785, Note_on_c, 0, 56, 36
2, 124797, Note_on_c, 0, 50, 28
2, 124800, Control_c, 0, 64, 0
2, 124878, Control_c, 0, 64, 127
2, 124964, Note_on_c, 0, 56, 0
2, 124982, Note_on_c, 0, 74, 0
2, 124997, Note_on_c, 0, 62, 0
2, 125046, Note_on_c, 0, 75, 49
2, 125165, Note_on_c, 0, 75, 0
2, 125209, Note_on_c, 0, 68, 0
2, 125469, Note_on_c, 0, 50, 0
2, 125514, Note_on_c, 0, 74, 74
2, 125521, Note_on_c, 0, 54, 36
2, 125524, Note_on_c, 0, 70, 69
2, 125541, Note_on_c, 0, 60, 44
2, 125544, Note_on_c, 0, 65, 36
2, 125547, Control_c, 0, 64, 0
2, 125629, Control_c, 0, 64, 127
2, 125689, Note_on_c, 0, 60, 0
2, 125702, Note_on_c, 0, 65, 0
2, 125727, Note_on_c, 0, 70, 0
2, 125728, Note_on_c, 0, 54, 0
2, 125736, Note_on_c, 0, 74, 0
2, 125782, Note_on_c, 0, 74, 41
2, 125790, Note_on_c, 0, 71, 46
2, 125793, Note_on_c, 0, 53, 41
2, 125796, Note_on_c, 0, 65, 44
2, 125802, Note_on_c, 0, 68, 29
2, 125807, Control_c, 0, 64, 0
2, 125814, Note_on_c, 0, 59, 32
2, 125908, Control_c, 0, 64, 127
2, 125954, Note_on_c, 0, 59, 0
2, 125957, Note_on_c, 0, 53, 0
2, 126239, Note_on_c, 0, 43, 25
2, 126264, Note_on_c, 0, 65, 0
2, 126276, Note_on_c, 0, 71, 0
2, 126279, Note_on_c, 0, 74, 0
2, 126279, Note_on_c, 0, 68, 0
2, 126360, Note_on_c, 0, 43, 0
2, 126493, Note_on_c, 0, 77, 54
2, 126554, Note_on_c, 0, 77, 0
2, 126719, Note_on_c, 0, 48, 33
2, 126724, Note_on_c, 0, 75, 46
2, 126741, Control_c, 0, 64, 0
2, 126828, Control_c, 0, 64, 127
2, 126983, Note_on_c, 0, 55, 32
2, 127230, Note_on_c, 0, 63, 25
2, 127233, Note_on_c, 0, 75, 0
2, 127240, Note_on_c, 0, 67, 30
2, 127477, Note_on_c, 0, 75, 43
2, 127512, Note_on_c, 0, 55, 0
2, 127514, Note_on_c, 0, 48, 0
2, 127588, Note_on_c, 0, 75, 0
2, 127629, Note_on_c, 0, 67, 0
2, 127684, Note_on_c, 0, 63, 0
2, 127719, Note_on_c, 0, 75, 35
2, 127723, Note_on_c, 0, 47, 31
2, 127737, Control_c, 0, 64, 0
2, 127805, Control_c, 0, 64, 127
2, 127965, Note_on_c, 0, 59, 15
2, 128184, Note_on_c, 0, 68, 34
2, 128185, Note_on_c, 0, 75, 0
2, 128193, Note_on_c, 0, 65, 28
2, 128198, Note_on_c, 0, 56, 15
2, 128261, Note_on_c, 0, 56, 0
2, 128275, Note_on_c, 0, 59, 0
2, 128317, Note_on_c, 0, 47, 0
2, 128353, Note_on_c, 0, 65, 0
2, 128375, Note_on_c, 0, 68, 0
2, 128412, Note_on_c, 0, 47, 26
2, 128449, Note_on_c, 0, 47, 0
2, 128648, Note_on_c, 0, 75, 52
2, 128652, Note_on_c, 0, 61, 40
2, 128654, Note_on_c, 0, 46, 32
2, 128657, Note_on_c, 0, 56, 23
2, 128681, Control_c, 0, 64, 0
2, 128748, Control_c, 0, 64, 127
2, 128824, Note_on_c, 0, 56, 0
2, 128925, Note_on_c, 0, 56, 20
2, 129042, Note_on_c, 0, 61, 0
2, 129136, Note_on_c, 0, 61, 35
2, 129228, Note_on_c, 0, 46, 0
2, 129296, Note_on_c, 0, 75, 0
2, 129338, Note_on_c, 0, 61, 0
2, 129353, Note_on_c, 0, 46, 28
2, 129421, Note_on_c, 0, 56, 0
2, 129454, Note_on_c, 0, 46, 0
2, 129597, Note_on_c, 0, 75, 37
2, 129608, Note_on_c, 0, 61, 28
2, 129612, Note_on_c, 0, 45, 33
2, 129616, Note_on_c, 0, 67, 33
2, 129619, Control_c, 0, 64, 0
2, 129636, Note_on_c, 0, 55, 24
2, 129716, Control_c, 0, 64, 127
2, 129886, Note_on_c, 0, 55, 0
2, 130078, Note_on_c, 0, 55, 24
2, 130230, Note_on_c, 0, 45, 0
2, 130321, Note_on_c, 0, 45, 28
2, 130343, Note_on_c, 0, 61, 0
2, 130349, Note_on_c, 0, 55, 0
2, 130370, Note_on_c, 0, 45, 0
2, 130404, Note_on_c, 0, 67, 0
2, 130479, Note_on_c, 0, 75, 0
2, 130548, Control_c, 0, 64, 0
2, 130580, Note_on_c, 0, 44, 33
2, 130601, Control_c, 0, 64, 127
2, 130626, Note_on_c, 0, 44, 0
2, 130819, Note_on_c, 0, 75, 60
2, 130832, Note_on_c, 0, 68, 64
2, 130833, Note_on_c, 0, 60, 68
2, 130836, Note_on_c, 0, 65, 63
2, 130838, Note_on_c, 0, 72, 48
2, 130961, Note_on_c, 0, 65, 0
2, 130968, Note_on_c, 0, 68, 0
2, 130976, Note_on_c, 0, 75, 0
2, 130976, Note_on_c, 0, 72, 0
2, 130979, Note_on_c, 0, 60, 0
2, 131049, Note_on_c, 0, 75, 67
2, 131056, Note_on_c, 0, 72, 53
2, 131058, Note_on_c, 0, 68, 53
2, 131059, Note_on_c, 0, 65, 64
2, 131069, Note_on_c, 0, 60, 60
2, 131122, Note_on_c, 0, 72, 0
2, 131130, Note_on_c, 0, 75, 0
2, 131147, Note_on_c, 0, 68, 0
2, 131156, Note_on_c, 0, 65, 0
2, 131218, Note_on_c, 0, 60, 0
2, 131280, Note_on_c, 0, 72, 56
2, 131286, Note_on_c, 0, 65, 66
2, 131291, Note_on_c, 0, 68, 44
2, 131293, Note_on_c, 0, 56, 47
2, 131296, Note_on_c, 0, 60, 58
2, 131299, Control_c, 0, 64, 0
2, 131338, Control_c, 0, 64, 127
2, 131435, Note_on_c, 0, 60, 0
2, 131445, Note_on_c, 0, 56, 0
2, 131448, Note_on_c, 0, 65, 0
2, 131450, Note_on_c, 0, 68, 0
2, 131460, Note_on_c, 0, 72, 0
2, 131526, Control_c, 0, 64, 0
2, 131529, Note_on_c, 0, 72, 30
2, 131531, Note_on_c, 0, 65, 47
2, 131533, Note_on_c, 0, 56, 38
2, 131537, Note_on_c, 0, 60, 43
2, 131540, Note_on_c, 0, 68, 33
2, 131550, Control_c, 0, 64, 127
2, 131591, Note_on_c, 0, 72, 0
2, 131614, Note_on_c, 0, 68, 0
2, 131643, Note_on_c, 0, 65, 0
2, 131644, Note_on_c, 0, 60, 0
2, 131726, Note_on_c, 0, 56, 0
2, 131762, Note_on_c, 0, 53, 40
2, 131768, Note_on_c, 0, 68, 30
2, 131770, Note_on_c, 0, 60, 35
2, 131773, Note_on_c, 0, 65, 42
2, 131842, Note_on_c, 0, 53, 0
2, 131847, Note_on_c, 0, 65, 0
2, 131855, Note_on_c, 0, 60, 0
2, 131868, Note_on_c, 0, 68, 0
2, 131986, Note_on_c, 0, 68, 42
2, 131991, Note_on_c, 0, 53, 37
2, 131996, Note_on_c, 0, 60, 43
2, 131996, Note_on_c, 0, 65, 44
2, 132053, Note_on_c, 0, 65, 0
2, 132111, Note_on_c, 0, 68, 0
2, 132127, Note_on_c, 0, 60, 0
2, 132128, Note_on_c, 0, 53, 0
2, 132221, Note_on_c, 0, 60, 43
2, 132285, Note_on_c, 0, 60, 0
2, 132450, Control_c, 0, 64, 0
2, 132453, Note_on_c, 0, 34, 32
2, 132460, Note_on_c, 0, 56, 26
2, 132464, Note_on_c, 0, 46, 17
2, 132464, Note_on_c, 0, 60, 48
2, 132498, Control_c, 0, 64, 127
2, 132516, Note_on_c, 0, 34, 0
2, 132552, Note_on_c, 0, 56, 0
2, 132552, Note_on_c, 0, 46, 0
2, 132582, Note_on_c, 0, 60, 0
2, 132720, Note_on_c, 0, 46, 26
2, 132720, Note_on_c, 0, 63, 34
2, 132721, Note_on_c, 0, 56, 25
2, 132721, Note_on_c, 0, 60, 45
2, 132809, Note_on_c, 0, 60, 0
2, 132827, Note_on_c, 0, 63, 0
2, 132835, Note_on_c, 0, 46, 0
2, 132856, Note_on_c, 0, 56, 0
2, 132960, Note_on_c, 0, 46, 28
2, 132970, Note_on_c, 0, 56, 21
2, 132971, Note_on_c, 0, 63, 31
2, 132977, Note_on_c, 0, 60, 38
2, 133038, Note_on_c, 0, 60, 0
2, 133052, Note_on_c, 0, 46, 0
2, 133055, Note_on_c, 0, 63, 0
2, 133072, Note_on_c, 0, 56, 0
2, 133204, Note_on_c, 0, 46, 26
2, 133205, Note_on_c, 0, 63, 37
2, 133210, Note_on_c, 0, 56, 23
2, 133224, Note_on_c, 0, 60, 32
2, 133268, Note_on_c, 0, 60, 0
2, 133283, Note_on_c, 0, 46, 0
2, 133300, Note_on_c, 0, 56, 0
2, 133317, Note_on_c, 0, 63, 0
2, 133463, Note_on_c, 0, 62, 45
2, 133467, Note_on_c, 0, 59, 44
2, 133469, Note_on_c, 0, 46, 25
2, 133469, Note_on_c, 0, 56, 25
2, 133603, Note_on_c, 0, 56, 0
2, 133641, Note_on_c, 0, 46, 0
2, 133685, Note_on_c, 0, 59, 0
2, 133702, Note_on_c, 0, 62, 0
2, 133932, Note_on_c, 0, 34, 60
2, 133933, Note_on_c, 0, 46, 72
2, 134079, Note_on_c, 0, 34, 0
2, 134089, Note_on_c, 0, 46, 0
2, 134400, Control_c, 0, 64, 0
2, 134406, Note_on_c, 0, 39, 73
2, 134571, Control_c, 0, 64, 127
2, 135089, Note_on_c, 0, 39, 0
2, 135213, Note_on_c, 0, 74, 63
2, 135223, Note_on_c, 0, 46, 51
2, 135391, Control_c, 0, 64, 127
2, 135424, Control_c, 0, 64, 0
2, 135450, Note_on_c, 0, 62, 40
2, 135452, Note_on_c, 0, 67, 50
2, 135453, Note_on_c, 0, 70, 46
2, 135455, Note_on_c, 0, 55, 54
2, 135521, Control_c, 0, 64, 127
2, 135648, Note_on_c, 0, 55, 0
2, 135700, Note_on_c, 0, 55, 47
2, 135764, Note_on_c, 0, 62, 0
2, 135940, Note_on_c, 0, 67, 0
2, 136159, Note_on_c, 0, 74, 0
2, 136164, Note_on_c, 0, 62, 43
2, 136168, Note_on_c, 0, 70, 0
2, 136208, Note_on_c, 0, 62, 0
2, 136253, Note_on_c, 0, 46, 0
2, 136293, Note_on_c, 0, 55, 0
2, 136320, Control_c, 0, 64, 0
2, 136394, Note_on_c, 0, 79, 88
2, 136549, Note_on_c, 0, 79, 0
2, 136617, Note_on_c, 0, 79, 68
2, 136625, Note_on_c, 0, 60, 43
2, 136626, Note_on_c, 0, 72, 60
2, 136627, Note_on_c, 0, 68, 38
2, 136635, Note_on_c, 0, 63, 39
2, 136638, Control_c, 0, 64, 0
2, 136710, Control_c, 0, 64, 127
2, 136860, Note_on_c, 0, 75, 38
2, 136862, Note_on_c, 0, 58, 42
2, 136920, Note_on_c, 0, 72, 0
2, 136963, Note_on_c, 0, 75, 0
2, 136968, Note_on_c, 0, 79, 0
2, 137106, Note_on_c, 0, 86, 79
2, 137187, Note_on_c, 0, 63, 0
2, 137188, Note_on_c, 0, 68, 0
2, 137319, Note_on_c, 0, 86, 0
2, 137333, Note_on_c, 0, 83, 37
2, 137335, Note_on_c, 0, 68, 30
2, 137344, Note_on_c, 0, 74, 34
2, 137365, Note_on_c, 0, 63, 18
2, 137448, Note_on_c, 0, 74, 0
2, 137470, Note_on_c, 0, 83, 0
2, 137522, Note_on_c, 0, 58, 0
2, 137552, Note_on_c, 0, 60, 0
2, 137571, Note_on_c, 0, 58, 48
2, 137577, Note_on_c, 0, 68, 0
2, 137587, Note_on_c, 0, 91, 60
2, 137588, Note_on_c, 0, 89, 66
2, 137616, Note_on_c, 0, 63, 0
2, 137646, Note_on_c, 0, 91, 0
2, 137823, Note_on_c, 0, 77, 34
2, 137827, Note_on_c, 0, 89, 0
2, 137827, Note_on_c, 0, 86, 46
2, 137836, Note_on_c, 0, 82, 26
2, 137922, Note_on_c, 0, 82, 0
2, 137925, Note_on_c, 0, 77, 0
2, 137929, Note_on_c, 0, 86, 0
2, 138060, Note_on_c, 0, 86, 67
2, 138063, Note_on_c, 0, 94, 46
2, 138167, Note_on_c, 0, 58, 0
2, 138260, Note_on_c, 0, 94, 0
2, 138264, Note_on_c, 0, 86, 0
2, 138294, Note_on_c, 0, 86, 26
2, 138295, Note_on_c, 0, 58, 37
2, 138303, Note_on_c, 0, 91, 33
2, 138351, Note_on_c, 0, 58, 0
2, 138357, Note_on_c, 0, 91, 0
2, 138402, Note_on_c, 0, 86, 0
2, 138557, Note_on_c, 0, 98, 62
2, 138559, Note_on_c, 0, 39, 36
2, 138567, Note_on_c, 0, 86, 44
2, 138578, Control_c, 0, 64, 0
2, 138640, Control_c, 0, 64, 127
2, 138683, Note_on_c, 0, 98, 0
2, 138730, Note_on_c, 0, 86, 0
2, 138790, Note_on_c, 0, 46, 33
2, 138809, Note_on_c, 0, 39, 0
2, 139031, Note_on_c, 0, 74, 39
2, 139033, Note_on_c, 0, 71, 31
2, 139038, Note_on_c, 0, 67, 39
2, 139042, Note_on_c, 0, 62, 32
2, 139050, Note_on_c, 0, 55, 33
2, 139222, Note_on_c, 0, 62, 0
2, 139232, Note_on_c, 0, 67, 0
2, 139253, Note_on_c, 0, 71, 0
2, 139258, Note_on_c, 0, 74, 0
2, 139402, Note_on_c, 0, 79, 44
2, 139406, Note_on_c, 0, 67, 45
2, 139434, Note_on_c, 0, 67, 0
2, 139453, Note_on_c, 0, 79, 0
2, 139601, Note_on_c, 0, 86, 67
2, 139606, Note_on_c, 0, 74, 42
2, 139644, Note_on_c, 0, 86, 0
2, 139646, Note_on_c, 0, 74, 0
2, 139800, Note_on_c, 0, 91, 57
2, 139800, Note_on_c, 0, 79, 44
2, 139840, Note_on_c, 0, 79, 0
2, 139845, Note_on_c, 0, 91, 0
2, 139981, Note_on_c, 0, 95, 50
2, 139990, Note_on_c, 0, 83, 40
2, 140020, Note_on_c, 0, 83, 0
2, 140027, Note_on_c, 0, 95, 0
2, 140166, Note_on_c, 0, 86, 55
2, 140168, Note_on_c, 0, 98, 48
2, 140195, Note_on_c, 0, 86, 0
2, 140208, Note_on_c, 0, 98, 0
2, 140359, Note_on_c, 0, 91, 36
2, 140360, Note_on_c, 0, 103, 49
2, 140423, Note_on_c, 0, 103, 0
2, 140425, Note_on_c, 0, 91, 0
2, 140543, Note_on_c, 0, 95, 48
2, 140670, Note_on_c, 0, 95, 0
2, 140724, Note_on_c, 0, 98, 43
2, 140766, Note_on_c, 0, 98, 0
2, 140804, Note_on_c, 0, 55, 0
2, 140857, Note_on_c, 0, 46, 0
2, 140894, Note_on_c, 0, 103, 43
2, 141075, Note_on_c, 0, 107, 55
2, 141076, Note_on_c, 0, 103, 0
2, 141157, Note_on_c, 0, 107, 0
2, 141369, Note_on_c, 0, 27, 34
2, 141467, Note_on_c, 0, 27, 0
2, 142459, Control_c, 0, 64, 0
2, 142459, End_track
3, 0, Start_track
3, 0, Title_t, "Pad"
3, 0, Program_c, 2, 88
3, 0, Control_c, 2, 7, 60
3, 0, Control_c, 2, 64, 127
3, 0, Control_c, 2, 64, 0
3, 44, Note_on_c, 2, 75, 64
3, 50, Note_on_c, 2, 63, 46
3, 52, Note_on_c, 2, 60, 52
3, 54, Note_on_c, 2, 67, 43
3, 875, Control_c, 2, 64, 127
3, 1949, Note_on_c, 2, 74, 57
3, 1959, Note_on_c, 2, 79, 73
3, 1962, Note_on_c, 2, 83, 75
3, 1963, Note_on_c, 2, 75, 0
3, 1985, Note_on_c, 2, 81, 33
3, 2001, Control_c, 2, 64, 0
3, 2003, Note_on_c, 2, 81, 0
3, 2205, Note_on_c, 2, 63, 0
3, 2298, Note_on_c, 2, 67, 0
3, 2362, Control_c, 2, 64, 127
3, 2377, Note_on_c, 2, 60, 0
3, 2530, Note_on_c, 2, 63, 64
3, 3604, Note_on_c, 2, 83, 0
3, 3611, Note_on_c, 2, 79, 0
3, 3644, Note_on_c, 2, 74, 0
3, 3823, Note_on_c, 2, 75, 72
3, 3826, Note_on_c, 2, 70, 74
3, 3827, Note_on_c, 2, 67, 71
3, 3836, Note_on_c, 2, 60, 67
3, 3850, Control_c, 2, 64, 0
3, 3856, Note_on_c, 2, 63, 0
3, 4052, Control_c, 2, 64, 127
3, 4853, Note_on_c, 2, 63, 59
3, 4856, Note_on_c, 2, 48, 57
3, 4856, Note_on_c, 2, 55, 50
3, 4871, Note_on_c, 2, 75, 0
3, 4875, Note_on_c, 2, 60, 0
3, 4885, Control_c, 2, 64, 0
3, 5419, Control_c, 2, 64, 127
3, 5646, Note_on_c, 2, 67, 0
3, 5734, Note_on_c, 2, 70, 0
3, 5743, Note_on_c, 2, 63, 0
3, 5757, Note_on_c, 2, 48, 0
3, 5782, Note_on_c, 2, 63, 64
3, 5783, Note_on_c, 2, 69, 74
3, 5787, Note_on_c, 2, 60, 81
3, 5796, Note_on_c, 2, 48, 62
3, 5818, Control_c, 2, 64, 0
3, 6391, Control_c, 2, 64, 127
3, 6792, Note_on_c, 2, 72, 71
3, 6797, Note_on_c, 2, 71, 58
3, 6923, Note_on_c, 2, 71, 0
3, 7052, Note_on_c, 2, 60, 0
3, 7263, Note_on_c, 2, 55, 0
3, 7361, Note_on_c, 2, 48, 0
3, 7389, Note_on_c, 2, 69, 0
3, 7444, Note_on_c, 2, 63, 0
3, 7667, Note_on_c, 2, 63, 53
3, 7671, Note_on_c, 2, 70, 71
3, 7679, Note_on_c, 2, 67, 58
3, 7680, Note_on_c, 2, 44, 51
3, 7684, Note_on_c, 2, 51, 48
3, 7696, Control_c, 2, 64, 0
3, 8341, Control_c, 2, 64, 127
3, 9263, Note_on_c, 2, 44, 0
3, 9372, Note_on_c, 2, 51, 0
3, 9623, Note_on_c, 2, 58, 64
3, 9626, Note_on_c, 2, 56, 57
3, 9627, Note_on_c, 2, 60, 71
3, 9634, Note_on_c, 2, 72, 0
3, 9660, Control_c, 2, 64, 0
3, 10194, Control_c, 2, 64, 127
3, 10363, Control_c, 2, 64, 0
3, 10656, Control_c, 2, 64, 127
3, 11280, Note_on_c, 2, 60, 0
3, 11285, Note_on_c, 2, 58, 0
3, 11335, Note_on_c, 2, 56, 0
3, 11436, Note_on_c, 2, 63, 0
3, 11503, Note_on_c, 2, 67, 0
3, 11528, Note_on_c, 2, 68, 69
3, 11529, Note_on_c, 2, 65, 69
3, 11530, Note_on_c, 2, 56, 33
3, 11534, Note_on_c, 2, 50, 53
3, 11535, Note_on_c, 2, 60, 57
3, 11546, Control_c, 2, 64, 0
3, 11561, Note_on_c, 2, 70, 0
3, 11893, Control_c, 2, 64, 127
3, 12459, Note_on_c, 2, 60, 0
3, 12492, Note_on_c, 2, 68, 0
3, 12522, Note_on_c, 2, 54, 71
3, 12524, Note_on_c, 2, 74, 67
3, 12527, Note_on_c, 2, 70, 71
3, 12534, Note_on_c, 2, 60, 69
3, 12537, Note_on_c, 2, 50, 0
3, 12548, Note_on_c, 2, 56, 0
3, 12562, Control_c, 2, 64, 0
3, 13198, Control_c, 2, 64, 127
3, 13317, Note_on_c, 2, 74, 0
3, 13433, Note_on_c, 2, 65, 0
3, 13465, Note_on_c, 2, 60, 0
3, 13483, Note_on_c, 2, 70, 0
3, 13503, Note_on_c, 2, 75, 62
3, 13509, Note_on_c, 2, 70, 81
3, 13510, Note_on_c, 2, 54, 0
3, 13511, Note_on_c, 2, 67, 50
3, 13513, Note_on_c, 2, 53, 60
3, 13518, Note_on_c, 2, 59, 64
3, 13544, Control_c, 2, 64, 0
3, 13905, Control_c, 2, 64, 127
3, 15016, Note_on_c, 2, 53, 0
3, 15132, Note_on_c, 2, 77, 57
3, 15197, Note_on_c, 2, 70, 0
3, 15318, Note_on_c, 2, 75, 0
3, 15377, Note_on_c, 2, 75, 51
3, 15384, Note_on_c, 2, 77, 0
3, 15398, Note_on_c, 2, 60, 74
3, 15402, Control_c, 2, 64, 0
3, 15427, Note_on_c, 2, 59, 0
3, 16131, Note_on_c, 2, 48, 68
3, 16851, Control_c, 2, 64, 127
3, 17380, Note_on_c, 2, 75, 0
3, 17415, Note_on_c, 2, 67, 0
3, 17773, Note_on_c, 2, 71, 87
3, 17774, Note_on_c, 2, 67, 89
3, 17775, Control_c, 2, 64, 0
3, 17776, Note_on_c, 2, 63, 86
3, 17777, Note_on_c, 2, 60, 0
3, 17792, Note_on_c, 2, 69, 42
3, 17800, Note_on_c, 2, 60, 35
3, 17861, Note_on_c, 2, 69, 0
3, 17973, Note_on_c, 2, 60, 0
3, 18704, Control_c, 2, 64, 127
3, 19076, Note_on_c, 2, 71, 0
3, 19188, Note_on_c, 2, 63, 0
3, 19202, Note_on_c, 2, 67, 0
3, 19216, Note_on_c, 2, 48, 0
3, 19236, Note_on_c, 2, 63, 76
3, 19237, Note_on_c, 2, 70, 80
3, 19239, Note_on_c, 2, 67, 80
3, 19241, Note_on_c, 2, 58, 70
3, 19241, Note_on_c, 2, 62, 83
3, 19248, Control_c, 2, 64, 0
3, 19253, Note_on_c, 2, 48, 69
3, 20076, Control_c, 2, 64, 127
3, 21111, Note_on_c, 2, 58, 0
3, 21125, Note_on_c, 2, 63, 0
3, 21210, Note_on_c, 2, 62, 0
3, 21328, Note_on_c, 2, 67, 0
3, 21348, Note_on_c, 2, 69, 61
3, 21349, Note_on_c, 2, 63, 62
3, 21353, Note_on_c, 2, 60, 75
3, 21376, Note_on_c, 2, 70, 0
3, 21376, Control_c, 2, 64, 0
3, 21799, Control_c, 2, 64, 127
3, 22985, Note_on_c, 2, 63, 0
3, 22992, Note_on_c, 2, 69, 0
3, 23014, Note_on_c, 2, 60, 0
3, 23032, Note_on_c, 2, 60, 42
3, 23036, Note_on_c, 2, 65, 79
3, 23040, Note_on_c, 2, 44, 67
3, 23041, Note_on_c, 2, 68, 71
3, 23052, Control_c, 2, 64, 0
3, 23068, Note_on_c, 2, 48, 0
3, 23692, Control_c, 2, 64, 127
3, 24300, Note_on_c, 2, 65, 0
3, 24332, Note_on_c, 2, 68, 0
3, 24410, Note_on_c, 2, 60, 0
3, 24540, Control_c, 2, 64, 0
3, 24597, Note_on_c, 2, 67, 77
3, 24597, Note_on_c, 2, 56, 76
3, 24601, Note_on_c, 2, 60, 82
3, 24606, Note_on_c, 2, 41, 83
3, 24620, Note_on_c, 2, 63, 30
3, 24634, Note_on_c, 2, 44, 0
3, 25728, Control_c, 2, 64, 127
3, 25844, Control_c, 2, 64, 0
3, 25955, Control_c, 2, 64, 127
3, 26483, Note_on_c, 2, 41, 0
3, 26619, Note_on_c, 2, 56, 0
3, 26669, Note_on_c, 2, 60, 0
3, 26759, Note_on_c, 2, 67, 0
3, 26761, Note_on_c, 2, 63, 0
3, 26902, Note_on_c, 2, 70, 59
3, 26902, Note_on_c, 2, 63, 62
3, 26903, Note_on_c, 2, 58, 64
3, 26903, Control_c, 2, 64, 0
3, 26904, Note_on_c, 2, 67, 57
3, 26908, Note_on_c, 2, 60, 69
3, 27622, Note_on_c, 2, 46, 64
3, 27647, Note_on_c, 2, 58, 0
3, 28410, Control_c, 2, 64, 127
3, 28767, Note_on_c, 2, 63, 0
3, 28780, Note_on_c, 2, 60, 0
3, 28792, Note_on_c, 2, 67, 0
3, 28806, Note_on_c, 2, 60, 34
3, 28809, Note_on_c, 2, 65, 64
3, 28812, Note_on_c, 2, 56, 46
3, 28813, Note_on_c, 2, 70, 0
3, 28821, Note_on_c, 2, 68, 59
3, 28828, Control_c, 2, 64, 0
3, 29382, Control_c, 2, 64, 127
3, 29688, Note_on_c, 2, 65, 0
3, 29730, Note_on_c, 2, 56, 0
3, 29759, Note_on_c, 2, 60, 0
3, 29778, Note_on_c, 2, 68, 0
3, 29800, Note_on_c, 2, 63, 71
3, 29801, Note_on_c, 2, 60, 74
3, 29804, Note_on_c, 2, 67, 73
3, 29805, Note_on_c, 2, 56, 57
3, 29844, Control_c, 2, 64, 0
3, 30157, Control_c, 2, 64, 127
3, 30208, Note_on_c, 2, 60, 0
3, 30240, Note_on_c, 2, 56, 0
3, 30266, Note_on_c, 2, 59, 64
3, 30274, Note_on_c, 2, 56, 39
3, 30291, Control_c, 2, 64, 0
3, 30763, Note_on_c, 2, 59, 0
3, 30770, Note_on_c, 2, 51, 63
3, 30790, Note_on_c, 2, 63, 0
3, 30792, Note_on_c, 2, 67, 0
3, 30797, Note_on_c, 2, 46, 0
3, 30878, Note_on_c, 2, 56, 0
3, 31242, Note_on_c, 2, 51, 0
3, 69120, Control_c, 2, 64, 127
3, 69120, Control_c, 2, 64, 0
3, 69164, Note_on_c, 2, 75, 64
3, 69170, Note_on_c, 2, 63, 46
3, 69172, Note_on_c, 2, 60, 52
3, 69174, Note_on_c, 2, 67, 43
3, 69995, Control_c, 2, 64, 127
3, 71069, Note_on_c, 2, 74, 57
3, 71079, Note_on_c, 2, 79, 73
3, 71082, Note_on_c, 2, 83, 75
3, 71083, Note_on_c, 2, 75, 0
3, 71105, Note_on_c, 2, 81, 33
3, 71121, Control_c, 2, 64, 0
3, 71123, Note_on_c, 2, 81, 0
3, 71325, Note_on_c, 2, 63, 0
3, 71418, Note_on_c, 2, 67, 0
3, 71482, Control_c, 2, 64, 127
3, 71497, Note_on_c, 2, 60, 0
3, 71650, Note_on_c, 2, 63, 64
3, 72724, Note_on_c, 2, 83, 0
3, 72731, Note_on_c, 2, 79, 0
3, 72764, Note_on_c, 2, 74, 0
3, 72943, Note_on_c, 2, 75, 72
3, 72946, Note_on_c, 2, 70, 74
3, 72947, Note_on_c, 2, 67, 71
3, 72956, Note_on_c, 2, 60, 67
3, 72970, Control_c, 2, 64, 0
3, 72976, Note_on_c, 2, 63, 0
3, 73172, Control_c, 2, 64, 127
3, 73973, Note_on_c, 2, 63, 59
3, 73976, Note_on_c, 2, 48, 57
3, 73976, Note_on_c, 2, 55, 50
3, 73991, Note_on_c, 2, 75, 0
3, 73995, Note_on_c, 2, 60, 0
3, 74005, Control_c, 2, 64, 0
3, 74539, Control_c, 2, 64, 127
3, 74766, Note_on_c, 2, 67, 0
3, 74854, Note_on_c, 2, 70, 0
3, 74863, Note_on_c, 2, 63, 0
3, 74877, Note_on_c, 2, 48, 0
3, 74902, Note_on_c, 2, 63, 64
3, 74903, Note_on_c, 2, 69, 74
3, 74907, Note_on_c, 2, 60, 81
3, 74916, Note_on_c, 2, 48, 62
3, 74938, Control_c, 2, 64, 0
3, 75511, Control_c, 2, 64, 127
3, 75912, Note_on_c, 2, 72, 71
3, 75917, Note_on_c, 2, 71, 58
3, 76043, Note_on_c, 2, 71, 0
3, 76172, Note_on_c, 2, 60, 0
3, 76383, Note_on_c, 2, 55, 0
3, 76481, Note_on_c, 2, 48, 0
3, 76509, Note_on_c, 2, 69, 0
3, 76564, Note_on_c, 2, 63, 0
3, 76787, Note_on_c, 2, 63, 53
3, 76791, Note_on_c, 2, 70, 71
3, 76799, Note_on_c, 2, 67, 58
3, 76800, Note_on_c, 2, 44, 51
3, 76804, Note_on_c, 2, 51, 48
3, 76816, Control_c, 2, 64, 0
3, 77461, Control_c, 2, 64, 127
3, 78383, Note_on_c, 2, 44, 0
3, 78492, Note_on_c, 2, 51, 0
3, 78743, Note_on_c, 2, 58, 64
3, 78746, Note_on_c, 2, 56, 57
3, 78747, Note_on_c, 2, 60, 71
3, 78754, Note_on_c, 2, 72, 0
3, 78780, Control_c, 2, 64, 0
3, 79314, Control_c, 2, 64, 127
3, 79483, Control_c, 2, 64, 0
3, 79776, Control_c, 2, 64, 127
3, 80400, Note_on_c, 2, 60, 0
3, 80405, Note_on_c, 2, 58, 0
3, 80455, Note_on_c, 2, 56, 0
3, 80556, Note_on_c, 2, 63, 0
3, 80623, Note_on_c, 2, 67, 0
3, 80648, Note_on_c, 2, 68, 69
3, 80649, Note_on_c, 2, 65, 69
3, 80650, Note_on_c, 2, 56, 33
3, 80654, Note_on_c, 2, 50, 53
3, 80655, Note_on_c, 2, 60, 57
3, 80666, Control_c, 2, 64, 0
3, 80681, Note_on_c, 2, 70, 0
3, 81013, Control_c, 2, 64, 127
3, 81579, Note_on_c, 2, 60, 0
3, 81612, Note_on_c, 2, 68, 0
3, 81642, Note_on_c, 2, 54, 71
3, 81644, Note_on_c, 2, 74, 67
3, 81647, Note_on_c, 2, 70, 71
3, 81654, Note_on_c, 2, 60, 69
3, 81657, Note_on_c, 2, 50, 0
3, 81668, Note_on_c, 2, 56, 0
3, 81682, Control_c, 2, 64, 0
3, 82318, Control_c, 2, 64, 127
3, 82437, Note_on_c, 2, 74, 0
3, 82553, Note_on_c, 2, 65, 0
3, 82585, Note_on_c, 2, 60, 0
3, 82603, Note_on_c, 2, 70, 0
3, 82623, Note_on_c, 2, 75, 62
3, 82629, Note_on_c, 2, 70, 81
3, 82630, Note_on_c, 2, 54, 0
3, 82631, Note_on_c, 2, 67, 50
3, 82633, Note_on_c, 2, 53, 60
3, 82638, Note_on_c, 2, 59, 64
3, 82664, Control_c, 2, 64, 0
3, 83025, Control_c, 2, 64, 127
3, 84136, Note_on_c, 2, 53, 0
3, 84252, Note_on_c, 2, 77, 57
3, 84317, Note_on_c, 2, 70, 0
3, 84438, Note_on_c, 2, 75, 0
3, 84497, Note_on_c, 2, 75, 51
3, 84504, Note_on_c, 2, 77, 0
3, 84518, Note_on_c, 2, 60, 74
3, 84522, Control_c, 2, 64, 0
3, 84547, Note_on_c, 2, 59, 0
3, 85251, Note_on_c, 2, 48, 68
3, 85971, Control_c, 2, 64, 127
3, 86500, Note_on_c, 2, 75, 0
3, 86535, Note_on_c, 2, 67, 0
3, 86893, Note_on_c, 2, 71, 87
3, 86894, Note_on_c, 2, 67, 89
3, 86895, Control_c, 2, 64, 0
3, 86896, Note_on_c, 2, 63, 86
3, 86897, Note_on_c, 2, 60, 0
3, 86912, Note_on_c, 2, 69, 42
3, 86920, Note_on_c, 2, 60, 35
3, 86981, Note_on_c, 2, 69, 0
3, 87093, Note_on_c, 2, 60, 0
3, 87824, Control_c, 2, 64, 127
3, 88196, Note_on_c, 2, 71, 0
3, 88308, Note_on_c, 2, 63, 0
3, 88322, Note_on_c, 2, 67, 0
3, 88336, Note_on_c, 2, 48, 0
3, 88356, Note_on_c, 2, 63, 76
3, 88357, Note_on_c, 2, 70, 80
3, 88359, Note_on_c, 2, 67, 80
3, 88361, Note_on_c, 2, 58, 70
3, 88361, Note_on_c, 2, 62, 83
3, 88368, Control_c, 2, 64, 0
3, 88373, Note_on_c, 2, 48, 69
3, 89196, Control_c, 2, 64, 127
3, 90231, Note_on_c, 2, 58, 0
3, 90245, Note_on_c, 2, 63, 0
3, 90330, Note_on_c, 2, 62, 0
3, 90448, Note_on_c, 2, 67, 0
3, 90468, Note_on_c, 2, 69, 61
3, 90469, Note_on_c, 2, 63, 62
3, 90473, Note_on_c, 2, 60, 75
3, 90496, Note_on_c, 2, 70, 0
3, 90496, Control_c, 2, 64, 0
3, 90919, Control_c, 2, 64, 127
3, 92105, Note_on_c, 2, 63, 0
3, 92112, Note_on_c, 2, 69, 0
3, 92134, Note_on_c, 2, 60, 0
3, 92152, Note_on_c, 2, 60, 42
3, 92156, Note_on_c, 2, 65, 79
3, 92160, Note_on_c, 2, 44, 67
3, 92161, Note_on_c, 2, 68, 71
3, 92172, Control_c, 2, 64, 0
3, 92188, Note_on_c, 2, 48, 0
3, 92812, Control_c, 2, 64, 127
3, 93420, Note_on_c, 2, 65, 0
3, 93452, Note_on_c, 2, 68, 0
3, 93530, Note_on_c, 2, 60, 0
3, 93660, Control_c, 2, 64, 0
3, 93717, Note_on_c, 2, 67, 77
3, 93717, Note_on_c, 2, 56, 76
3, 93721, Note_on_c, 2, 60, 82
3, 93726, Note_on_c, 2, 41, 83
3, 93740, Note_on_c, 2, 63, 30
3, 93754, Note_on_c, 2, 44, 0
3, 94848, Control_c, 2, 64, 127
3, 94964, Control_c, 2, 64, 0
3, 95075, Control_c, 2, 64, 127
3, 95603, Note_on_c, 2, 41, 0
3, 95739, Note_on_c, 2, 56, 0
3, 95789, Note_on_c, 2, 60, 0
3, 95879, Note_on_c, 2, 67, 0
3, 95881, Note_on_c, 2, 63, 0
3, 96022, Note_on_c, 2, 70, 59
3, 96022, Note_on_c, 2, 63, 62
3, 96023, Note_on_c, 2, 58, 64
3, 96023, Control_c, 2, 64, 0
3, 96024, Note_on_c, 2, 67, 57
3, 96028, Note_on_c, 2, 60, 69
3, 96742, Note_on_c, 2, 46, 64
3, 96767, Note_on_c, 2, 58, 0
3, 97530, Control_c, 2, 64, 127
3, 97887, Note_on_c, 2, 63, 0
3, 97900, Note_on_c, 2, 60, 0
3, 97912, Note_on_c, 2, 67, 0
3, 97926, Note_on_c, 2, 60, 34
3, 97929, Note_on_c, 2, 65, 64
3, 97932, Note_on_c, 2, 56, 46
3, 97933, Note_on_c, 2, 70, 0
3, 97941, Note_on_c, 2, 68, 59
3, 97948, Control_c, 2, 64, 0
3, 98502, Control_c, 2, 64, 127
3, 98808, Note_on_c, 2, 65, 0
3, 98850, Note_on_c, 2, 56, 0
3, 98879, Note_on_c, 2, 60, 0
3, 98898, Note_on_c, 2, 68, 0
3, 98920, Note_on_c, 2, 63, 71
3, 98921, Note_on_c, 2, 60, 74
3, 98924, Note_on_c, 2, 67, 73
3, 98925, Note_on_c, 2, 56, 57
3, 98964, Control_c, 2, 64, 0
3, 99277, Control_c, 2, 64, 127
3, 99328, Note_on_c, 2, 60, 0
3, 99360, Note_on_c, 2, 56, 0
3, 99386, Note_on_c, 2, 59, 64
3, 99394, Note_on_c, 2, 56, 39
3, 99411, Control_c, 2, 64, 0
3, 99883, Note_on_c, 2, 59, 0
3, 99890, Note_on_c, 2, 51, 63
3, 99910, Note_on_c, 2, 63, 0
3, 99912, Note_on_c, 2, 67, 0
3, 99917, Note_on_c, 2, 46, 0
3, 99998, Note_on_c, 2, 56, 0
3, 100362, Note_on_c, 2, 51, 0
3, 102259, Note_on_c, 2, 58, 76
3, 102264, Note_on_c, 2, 55, 81
3, 102672, Note_on_c, 2, 58, 0
3, 102738, Note_on_c, 2, 55, 0
3, 102749, Note_on_c, 2, 56, 80
3, 102752, Note_on_c, 2, 60, 76
3, 102760, Note_on_c, 2, 59, 63
3, 102776, Note_on_c, 2, 59, 0
3, 103485, Note_on_c, 2, 60, 0
3, 103673, Note_on_c, 2, 56, 0
3, 103680, Note_on_c, 2, 58, 72
3, 103689, Note_on_c, 2, 55, 82
3, 104723, Note_on_c, 2, 55, 0
3, 104868, Note_on_c, 2, 58, 0
3, 104906, Note_on_c, 2, 56, 82
3, 104914, Note_on_c, 2, 60, 81
3, 105560, Note_on_c, 2, 60, 0
3, 105592, Note_on_c, 2, 56, 0
3, 105619, Note_on_c, 2, 58, 64
3, 105627, Note_on_c, 2, 55, 77
3, 105696, Note_on_c, 2, 55, 0
3, 105707, Note_on_c, 2, 58, 0
3, 105850, Note_on_c, 2, 58, 64
3, 105852, Note_on_c, 2, 55, 73
3, 106506, Note_on_c, 2, 55, 0
3, 106576, Note_on_c, 2, 58, 0
3, 106586, Note_on_c, 2, 60, 68
3, 106587, Note_on_c, 2, 56, 63
3, 107355, Note_on_c, 2, 60, 0
3, 107496, Note_on_c, 2, 56, 0
3, 107545, Note_on_c, 2, 67, 77
3, 107553, Note_on_c, 2, 63, 39
3, 107566, Note_on_c, 2, 62, 46
3, 107583, Note_on_c, 2, 62, 0
3, 108008, Note_on_c, 2, 64, 39
3, 108058, Note_on_c, 2, 64, 0
3, 108352, Note_on_c, 2, 67, 0
3, 108478, Note_on_c, 2, 63, 0
3, 108492, Note_on_c, 2, 68, 83
3, 108493, Note_on_c, 2, 62, 80
3, 108897, Note_on_c, 2, 68, 0
3, 108944, Note_on_c, 2, 62, 0
3, 108973, Note_on_c, 2, 65, 80
3, 108980, Note_on_c, 2, 59, 73
3, 109405, Note_on_c, 2, 65, 0
3, 109452, Note_on_c, 2, 59, 0
3, 109464, Note_on_c, 2, 67, 73
3, 109469, Note_on_c, 2, 60, 59
3, 110493, Note_on_c, 2, 60, 0
3, 110579, Note_on_c, 2, 67, 0
3, 111401, Note_on_c, 2, 63, 57
3, 111405, Note_on_c, 2, 56, 50
3, 112343, Note_on_c, 2, 72, 68
3, 112373, Note_on_c, 2, 63, 0
3, 113271, Note_on_c, 2, 68, 80
3, 113274, Note_on_c, 2, 62, 75
3, 113286, Note_on_c, 2, 72, 0
3, 113287, Note_on_c, 2, 56, 0
3, 113787, Note_on_c, 2, 60, 94
3, 113806, Note_on_c, 2, 62, 0
3, 114277, Note_on_c, 2, 65, 68
3, 114281, Note_on_c, 2, 55, 68
3, 114289, Note_on_c, 2, 60, 0
3, 114303, Note_on_c, 2, 68, 0
3, 114760, Note_on_c, 2, 71, 79
3, 114762, Note_on_c, 2, 59, 73
3, 114775, Note_on_c, 2, 55, 0
3, 114836, Note_on_c, 2, 65, 0
3, 115161, Note_on_c, 2, 71, 0
3, 115216, Note_on_c, 2, 75, 69
3, 115228, Note_on_c, 2, 60, 73
3, 115241, Note_on_c, 2, 59, 0
3, 117114, Note_on_c, 2, 74, 79
3, 117120, Note_on_c, 2, 59, 66
3, 117126, Note_on_c, 2, 75, 0
3, 117137, Note_on_c, 2, 60, 0
3, 119060, Note_on_c, 2, 58, 75
3, 119067, Note_on_c, 2, 72, 55
3, 119075, Note_on_c, 2, 59, 0
3, 119095, Note_on_c, 2, 74, 0
3, 119376, Note_on_c, 2, 72, 0
3, 120952, Note_on_c, 2, 58, 0
3, 120960, Note_on_c, 2, 57, 80
3, 122911, Note_on_c, 2, 56, 48
3, 122915, Note_on_c, 2, 67, 55
3, 122941, Note_on_c, 2, 57, 0
3, 123401, Note_on_c, 2, 72, 62
3, 124508, Note_on_c, 2, 72, 0
3, 124530, Note_on_c, 2, 70, 71
3, 124535, Note_on_c, 2, 55, 77
3, 124548, Note_on_c, 2, 67, 0
3, 124556, Note_on_c, 2, 56, 0
3, 124780, Note_on_c, 2, 68, 82
3, 124792, Note_on_c, 2, 53, 79
3, 124806, Note_on_c, 2, 70, 0
3, 124822, Note_on_c, 2, 55, 0
3, 125524, Note_on_c, 2, 53, 0
3, 125543, Note_on_c, 2, 67, 84
3, 125550, Note_on_c, 2, 52, 71
3, 125580, Note_on_c, 2, 68, 0
3, 125782, Note_on_c, 2, 65, 78
3, 125784, Note_on_c, 2, 50, 69
3, 125796, Note_on_c, 2, 52, 0
3, 125808, Note_on_c, 2, 67, 0
3, 125920, Note_on_c, 2, 65, 0
3, 125920, Note_on_c, 2, 50, 0
3, 127210, Note_on_c, 2, 75, 35
3, 127214, Note_on_c, 2, 60, 39
3, 127708, Note_on_c, 2, 59, 40
3, 127714, Note_on_c, 2, 75, 0
3, 127717, Note_on_c, 2, 74, 42
3, 127726, Note_on_c, 2, 60, 0
3, 128660, Note_on_c, 2, 73, 40
3, 128665, Note_on_c, 2, 58, 49
3, 128678, Note_on_c, 2, 74, 0
3, 128686, Note_on_c, 2, 59, 0
3, 129610, Note_on_c, 2, 57, 48
3, 129616, Note_on_c, 2, 58, 0
3, 130563, Note_on_c, 2, 73, 0
3, 130571, Note_on_c, 2, 72, 30
3, 130577, Note_on_c, 2, 56, 36
3, 130601, Note_on_c, 2, 57, 0
3, 131512, Note_on_c, 2, 68, 38
3, 131518, Note_on_c, 2, 53, 42
3, 131534, Note_on_c, 2, 56, 0
3, 131539, Note_on_c, 2, 72, 0
3, 132530, Note_on_c, 2, 68, 0
3, 132546, Note_on_c, 2, 68, 21
3, 132549, Note_on_c, 2, 53, 0
3, 132559, Note_on_c, 2, 62, 44
3, 134439, Note_on_c, 2, 51, 36
3, 134444, Note_on_c, 2, 67, 42
3, 134449, Note_on_c, 2, 62, 0
3, 134467, Note_on_c, 2, 68, 0
3, 136363, Note_on_c, 2, 51, 0
3, 136363, Note_on_c, 2, 67, 0
3, 136839, Note_on_c, 2, 68, 28
3, 136849, Note_on_c, 2, 56, 27
3, 138307, Note_on_c, 2, 67, 29
3, 138318, Note_on_c, 2, 51, 27
3, 138338, Note_on_c, 2, 56, 0
3, 138350, Note_on_c, 2, 68, 0
3, 141138, Note_on_c, 2, 67, 0
3, 141281, Note_on_c, 2, 51, 0
3, 141281, End_track
4, 0, Start_track
4, 0, Program_c, 1, 32
4, 0, Control_c, 1, 7, 127
4, 0, Note_on_c, 1, 36, 78
4, 738, Note_on_c, 1, 48, 105
4, 1685, Note_on_c, 1, 50, 76
4, 1696, Note_on_c, 1, 48, 0
4, 1784, Note_on_c, 1, 50, 0
4, 1809, Note_on_c, 1, 51, 79
4, 1909, Note_on_c, 1, 51, 0
4, 1921, Note_on_c, 1, 50, 87
4, 2252, Note_on_c, 1, 36, 0
4, 2650, Note_on_c, 1, 36, 110
4, 3507, Note_on_c, 1, 36, 0
4, 3591, Note_on_c, 1, 36, 112
4, 3805, Note_on_c, 1, 36, 0
4, 3833, Note_on_c, 1, 36, 108
4, 3877, Note_on_c, 1, 50, 0
4, 5203, Note_on_c, 1, 51, 92
4, 5272, Note_on_c, 1, 51, 0
4, 5300, Note_on_c, 1, 50, 89
4, 5642, Note_on_c, 1, 50, 0
4, 5653, Note_on_c, 1, 48, 85
4, 5704, Note_on_c, 1, 36, 0
4, 5783, Note_on_c, 1, 36, 96
4, 5795, Note_on_c, 1, 48, 0
4, 6008, Note_on_c, 1, 36, 0
4, 6028, Note_on_c, 1, 36, 101
4, 7586, Note_on_c, 1, 50, 89
4, 7627, Note_on_c, 1, 36, 0
4, 7663, Note_on_c, 1, 50, 0
4, 7680, Note_on_c, 1, 48, 87
4, 7917, Note_on_c, 1, 32, 97
4, 9038, Note_on_c, 1, 48, 0
4, 9262, Note_on_c, 1, 43, 100
4, 9321, Note_on_c, 1, 43, 0
4, 9338, Note_on_c, 1, 32, 0
4, 9362, Note_on_c, 1, 42, 104
4, 9432, Note_on_c, 1, 42, 0
4, 9504, Note_on_c, 1, 32, 71
4, 9545, Note_on_c, 1, 32, 0
4, 9588, Note_on_c, 1, 41, 104
4, 9813, Note_on_c, 1, 41, 0
4, 9834, Note_on_c, 1, 36, 100
4, 10058, Note_on_c, 1, 36, 0
4, 10065, Note_on_c, 1, 29, 94
4, 11016, Note_on_c, 1, 29, 0
4, 11025, Note_on_c, 1, 39, 95
4, 11497, Note_on_c, 1, 39, 0
4, 11522, Note_on_c, 1, 38, 90
4, 12977, Note_on_c, 1, 44, 115
4, 13014, Note_on_c, 1, 38, 0
4, 13719, Note_on_c, 1, 43, 90
4, 13752, Note_on_c, 1, 44, 0
4, 13946, Note_on_c, 1, 31, 100
4, 13952, Note_on_c, 1, 43, 0
4, 14159, Note_on_c, 1, 31, 0
4, 14192, Note_on_c, 1, 31, 89
4, 14424, Note_on_c, 1, 50, 119
4, 14608, Note_on_c, 1, 31, 0
4, 14669, Note_on_c, 1, 47, 98
4, 14672, Note_on_c, 1, 50, 0
4, 14911, Note_on_c, 1, 35, 99
4, 14929, Note_on_c, 1, 47, 0
4, 15352, Note_on_c, 1, 35, 0
4, 15378, Note_on_c, 1, 36, 117
4, 15391, Note_on_c, 1, 35, 71
4, 15408, Note_on_c, 1, 35, 0
4, 16275, Note_on_c, 1, 51, 83
4, 17162, Note_on_c, 1, 36, 0
4, 17167, Note_on_c, 1, 35, 57
4, 17263, Note_on_c, 1, 35, 0
4, 17278, Note_on_c, 1, 36, 96
4, 17297, Note_on_c, 1, 51, 0
4, 18128, Note_on_c, 1, 47, 73
4, 18254, Note_on_c, 1, 47, 0
4, 18271, Note_on_c, 1, 51, 96
4, 18513, Note_on_c, 1, 51, 0
4, 18531, Note_on_c, 1, 51, 84
4, 19130, Note_on_c, 1, 35, 85
4, 19155, Note_on_c, 1, 36, 0
4, 19241, Note_on_c, 1, 51, 0
4, 19255, Note_on_c, 1, 35, 0
4, 19259, Note_on_c, 1, 36, 110
4, 19273, Note_on_c, 1, 35, 42
4, 19294, Note_on_c, 1, 35, 0
4, 20035, Note_on_c, 1, 46, 80
4, 20129, Note_on_c, 1, 46, 0
4, 20155, Note_on_c, 1, 51, 95
4, 20402, Note_on_c, 1, 51, 0
4, 20428, Note_on_c, 1, 51, 93
4, 21017, Note_on_c, 1, 35, 92
4, 21044, Note_on_c, 1, 36, 0
4, 21133, Note_on_c, 1, 35, 0
4, 21134, Note_on_c, 1, 51, 0
4, 21138, Note_on_c, 1, 36, 110
4, 21944, Note_on_c, 1, 45, 66
4, 22050, Note_on_c, 1, 45, 0
4, 22079, Note_on_c, 1, 51, 96
4, 22311, Note_on_c, 1, 51, 0
4, 22335, Note_on_c, 1, 51, 102
4, 22539, Note_on_c, 1, 36, 0
4, 22565, Note_on_c, 1, 34, 95
4, 22770, Note_on_c, 1, 34, 0
4, 22794, Note_on_c, 1, 33, 105
4, 23013, Note_on_c, 1, 32, 97
4, 23025, Note_on_c, 1, 51, 0
4, 23040, Note_on_c, 1, 33, 0
4, 23504, Note_on_c, 1, 48, 127
4, 24200, Note_on_c, 1, 32, 0
4, 24233, Note_on_c, 1, 31, 108
4, 24438, Note_on_c, 1, 31, 0
4, 24463, Note_on_c, 1, 31, 100
4, 24670, Note_on_c, 1, 31, 0
4, 24709, Note_on_c, 1, 30, 97
4, 24921, Note_on_c, 1, 48, 0
4, 24931, Note_on_c, 1, 30, 0
4, 24946, Note_on_c, 1, 29, 86
4, 24948, Note_on_c, 1, 30, 39
4, 24989, Note_on_c, 1, 30, 0
4, 25447, Note_on_c, 1, 41, 112
4, 25458, Note_on_c, 1, 37, 58
4, 25474, Note_on_c, 1, 37, 0
4, 25597, Note_on_c, 1, 29, 0
4, 25944, Note_on_c, 1, 39, 103
4, 25975, Note_on_c, 1, 41, 0
4, 27182, Note_on_c, 1, 39, 0
4, 27384, Note_on_c, 1, 38, 108
4, 28560, Note_on_c, 1, 43, 92
4, 28779, Note_on_c, 1, 38, 0
4, 28787, Note_on_c, 1, 43, 0
4, 28798, Note_on_c, 1, 41, 89
4, 29063, Note_on_c, 1, 34, 99
4, 29113, Note_on_c, 1, 41, 0
4, 29308, Note_on_c, 1, 46, 97
4, 29524, Note_on_c, 1, 46, 0
4, 29551, Note_on_c, 1, 46, 102
4, 29884, Note_on_c, 1, 34, 0
4, 30030, Note_on_c, 1, 34, 99
4, 30237, Note_on_c, 1, 34, 0
4, 30268, Note_on_c, 1, 34, 90
4, 30503, Note_on_c, 1, 38, 85
4, 30504, Note_on_c, 1, 34, 0
4, 30743, Note_on_c, 1, 39, 92
4, 30755, Note_on_c, 1, 38, 0
4, 30760, Note_on_c, 1, 46, 0
4, 31191, Note_on_c, 1, 46, 107
4, 31202, Note_on_c, 1, 39, 0
4, 31935, Note_on_c, 1, 34, 94
4, 32122, Note_on_c, 1, 34, 0
4, 32165, Note_on_c, 1, 34, 87
4, 32417, Note_on_c, 1, 46, 0
4, 32668, Note_on_c, 1, 46, 106
4, 32937, Note_on_c, 1, 34, 0
4, 34068, Note_on_c, 1, 34, 96
4, 34098, Note_on_c, 1, 46, 0
4, 35040, Note_on_c, 1, 46, 117
4, 35112, Note_on_c, 1, 34, 0
4, 35770, Note_on_c, 1, 34, 93
4, 35963, Note_on_c, 1, 34, 0
4, 36001, Note_on_c, 1, 34, 93
4, 36186, Note_on_c, 1, 46, 0
4, 37200, Note_on_c, 1, 46, 113
4, 37366, Note_on_c, 1, 46, 0
4, 37444, Note_on_c, 1, 46, 113
4, 37497, Note_on_c, 1, 34, 0
4, 37672, Note_on_c, 1, 34, 97
4, 37865, Note_on_c, 1, 34, 0
4, 37903, Note_on_c, 1, 34, 92
4, 38275, Note_on_c, 1, 33, 77
4, 38277, Note_on_c, 1, 34, 0
4, 38365, Note_on_c, 1, 33, 0
4, 38382, Note_on_c, 1, 34, 96
4, 38426, Note_on_c, 1, 46, 0
4, 38628, Note_on_c, 1, 46, 117
4, 39811, Note_on_c, 1, 34, 0
4, 39848, Note_on_c, 1, 31, 91
4, 40081, Note_on_c, 1, 35, 96
4, 40086, Note_on_c, 1, 31, 0
4, 40149, Note_on_c, 1, 46, 0
4, 40314, Note_on_c, 1, 35, 0
4, 40326, Note_on_c, 1, 36, 110
4, 40332, Note_on_c, 1, 35, 33
4, 40354, Note_on_c, 1, 35, 0
4, 40837, Note_on_c, 1, 35, 108
4, 40861, Note_on_c, 1, 36, 0
4, 41313, Note_on_c, 1, 35, 0
4, 41329, Note_on_c, 1, 34, 94
4, 41766, Note_on_c, 1, 33, 99
4, 41813, Note_on_c, 1, 34, 0
4, 42240, Note_on_c, 1, 32, 89
4, 42269, Note_on_c, 1, 33, 0
4, 42704, Note_on_c, 1, 48, 110
4, 43813, Note_on_c, 1, 32, 0
4, 43834, Note_on_c, 1, 31, 90
4, 43841, Note_on_c, 1, 33, 80
4, 43857, Note_on_c, 1, 33, 0
4, 44016, Note_on_c, 1, 30, 91
4, 44027, Note_on_c, 1, 31, 0
4, 44157, Note_on_c, 1, 30, 0
4, 44171, Note_on_c, 1, 31, 103
4, 44210, Note_on_c, 1, 48, 0
4, 45360, Note_on_c, 1, 43, 119
4, 45803, Note_on_c, 1, 43, 0
4, 45841, Note_on_c, 1, 46, 94
4, 45896, Note_on_c, 1, 46, 0
4, 45976, Note_on_c, 1, 47, 94
4, 46009, Note_on_c, 1, 47, 0
4, 46038, Note_on_c, 1, 31, 0
4, 46096, Note_on_c, 1, 48, 101
4, 46135, Note_on_c, 1, 48, 0
4, 46225, Note_on_c, 1, 43, 75
4, 46248, Note_on_c, 1, 43, 0
4, 46335, Note_on_c, 1, 36, 112
4, 47524, Note_on_c, 1, 48, 114
4, 48119, Note_on_c, 1, 36, 0
4, 48153, Note_on_c, 1, 36, 88
4, 48173, Note_on_c, 1, 48, 0
4, 48256, Note_on_c, 1, 47, 108
4, 48602, Note_on_c, 1, 36, 0
4, 48701, Note_on_c, 1, 36, 110
4, 48851, Note_on_c, 1, 47, 0
4, 49469, Note_on_c, 1, 51, 100
4, 49592, Note_on_c, 1, 47, 77
4, 49607, Note_on_c, 1, 36, 0
4, 49620, Note_on_c, 1, 51, 0
4, 49676, Note_on_c, 1, 47, 0
4, 49709, Note_on_c, 1, 43, 69
4, 49833, Note_on_c, 1, 36, 93
4, 49933, Note_on_c, 1, 36, 0
4, 49947, Note_on_c, 1, 43, 0
4, 49964, Note_on_c, 1, 36, 100
4, 50299, Note_on_c, 1, 46, 28
4, 50344, Note_on_c, 1, 46, 0
4, 50428, Note_on_c, 1, 51, 88
4, 50526, Note_on_c, 1, 51, 0
4, 50555, Note_on_c, 1, 46, 80
4, 50658, Note_on_c, 1, 46, 0
4, 50685, Note_on_c, 1, 46, 91
4, 50920, Note_on_c, 1, 43, 80
4, 50954, Note_on_c, 1, 46, 0
4, 51484, Note_on_c, 1, 36, 0
4, 51632, Note_on_c, 1, 36, 112
4, 51659, Note_on_c, 1, 43, 0
4, 51841, Note_on_c, 1, 36, 0
4, 51878, Note_on_c, 1, 36, 100
4, 52125, Note_on_c, 1, 45, 89
4, 52334, Note_on_c, 1, 45, 0
4, 52350, Note_on_c, 1, 51, 93
4, 53043, Note_on_c, 1, 48, 86
4, 53534, Note_on_c, 1, 36, 0
4, 53535, Note_on_c, 1, 34, 69
4, 53574, Note_on_c, 1, 34, 0
4, 53659, Note_on_c, 1, 33, 77
4, 53717, Note_on_c, 1, 33, 0
4, 53761, Note_on_c, 1, 48, 0
4, 53777, Note_on_c, 1, 32, 89
4, 53800, Note_on_c, 1, 51, 0
4, 54025, Note_on_c, 1, 48, 88
4, 55132, Note_on_c, 1, 32, 0
4, 55174, Note_on_c, 1, 31, 92
4, 55259, Note_on_c, 1, 31, 0
4, 55335, Note_on_c, 1, 31, 88
4, 55411, Note_on_c, 1, 31, 0
4, 55496, Note_on_c, 1, 30, 86
4, 55646, Note_on_c, 1, 30, 0
4, 55675, Note_on_c, 1, 29, 80
4, 56520, Note_on_c, 1, 30, 86
4, 56545, Note_on_c, 1, 29, 0
4, 56613, Note_on_c, 1, 30, 0
4, 56636, Note_on_c, 1, 31, 91
4, 56666, Note_on_c, 1, 48, 0
4, 57127, Note_on_c, 1, 31, 0
4, 57131, Note_on_c, 1, 35, 103
4, 57642, Note_on_c, 1, 36, 110
4, 57670, Note_on_c, 1, 35, 0
4, 58106, Note_on_c, 1, 36, 0
4, 58133, Note_on_c, 1, 36, 101
4, 58586, Note_on_c, 1, 35, 96
4, 58609, Note_on_c, 1, 36, 0
4, 59232, Note_on_c, 1, 35, 0
4, 59265, Note_on_c, 1, 35, 90
4, 59478, Note_on_c, 1, 35, 0
4, 59505, Note_on_c, 1, 34, 92
4, 60187, Note_on_c, 1, 34, 0
4, 60232, Note_on_c, 1, 34, 85
4, 60234, Note_on_c, 1, 49, 100
4, 60450, Note_on_c, 1, 49, 0
4, 60477, Note_on_c, 1, 34, 0
4, 60483, Note_on_c, 1, 33, 93
4, 61171, Note_on_c, 1, 33, 0
4, 61201, Note_on_c, 1, 33, 90
4, 61399, Note_on_c, 1, 33, 0
4, 61443, Note_on_c, 1, 32, 95
4, 62372, Note_on_c, 1, 32, 0
4, 62385, Note_on_c, 1, 29, 93
4, 63356, Note_on_c, 1, 29, 0
4, 63375, Note_on_c, 1, 34, 94
4, 63830, Note_on_c, 1, 46, 106
4, 65274, Note_on_c, 1, 39, 90
4, 65287, Note_on_c, 1, 46, 0
4, 65295, Note_on_c, 1, 34, 0
4, 67669, Note_on_c, 1, 39, 0
4, 67680, Note_on_c, 1, 31, 86
4, 68194, Note_on_c, 1, 43, 112
4, 68642, Note_on_c, 1, 31, 0
4, 68651, Note_on_c, 1, 35, 94
4, 68668, Note_on_c, 1, 43, 0
4, 69013, Note_on_c, 1, 35, 0
4, 69144, Note_on_c, 1, 48, 92
4, 69743, Note_on_c, 1, 43, 76
4, 69783, Note_on_c, 1, 43, 0
4, 69862, Note_on_c, 1, 36, 87
4, 70113, Note_on_c, 1, 48, 0
4, 70692, Note_on_c, 1, 43, 56
4, 70730, Note_on_c, 1, 43, 0
4, 70805, Note_on_c, 1, 48, 115
4, 70984, Note_on_c, 1, 48, 0
4, 71038, Note_on_c, 1, 47, 94
4, 71106, Note_on_c, 1, 36, 0
4, 71657, Note_on_c, 1, 43, 71
4, 71695, Note_on_c, 1, 43, 0
4, 71766, Note_on_c, 1, 36, 94
4, 71803, Note_on_c, 1, 47, 0
4, 72752, Note_on_c, 1, 47, 96
4, 72776, Note_on_c, 1, 36, 0
4, 72884, Note_on_c, 1, 36, 74
4, 72931, Note_on_c, 1, 47, 0
4, 72989, Note_on_c, 1, 46, 95
4, 73000, Note_on_c, 1, 36, 0
4, 73598, Note_on_c, 1, 35, 60
4, 73644, Note_on_c, 1, 35, 0
4, 73701, Note_on_c, 1, 36, 90
4, 73883, Note_on_c, 1, 46, 0
4, 74664, Note_on_c, 1, 46, 95
4, 74692, Note_on_c, 1, 36, 0
4, 74796, Note_on_c, 1, 36, 71
4, 74826, Note_on_c, 1, 46, 0
4, 74882, Note_on_c, 1, 36, 0
4, 74903, Note_on_c, 1, 45, 103
4, 75639, Note_on_c, 1, 36, 101
4, 75795, Note_on_c, 1, 36, 0
4, 75879, Note_on_c, 1, 36, 94
4, 75888, Note_on_c, 1, 45, 0
4, 76371, Note_on_c, 1, 45, 95
4, 76435, Note_on_c, 1, 36, 0
4, 76759, Note_on_c, 1, 36, 60
4, 76800, Note_on_c, 1, 36, 0
4, 76830, Note_on_c, 1, 45, 0
4, 76850, Note_on_c, 1, 44, 88
4, 77288, Note_on_c, 1, 36, 82
4, 77332, Note_on_c, 1, 44, 0
4, 78241, Note_on_c, 1, 44, 83
4, 78265, Note_on_c, 1, 36, 0
4, 78351, Note_on_c, 1, 44, 0
4, 78408, Note_on_c, 1, 36, 66
4, 78454, Note_on_c, 1, 36, 0
4, 78487, Note_on_c, 1, 43, 99
4, 78576, Note_on_c, 1, 43, 0
4, 78642, Note_on_c, 1, 42, 88
4, 78701, Note_on_c, 1, 42, 0
4, 78738, Note_on_c, 1, 41, 83
4, 79134, Note_on_c, 1, 36, 65
4, 79175, Note_on_c, 1, 41, 0
4, 79177, Note_on_c, 1, 36, 0
4, 79216, Note_on_c, 1, 32, 84
4, 79435, Note_on_c, 1, 32, 0
4, 79456, Note_on_c, 1, 31, 80
4, 79680, Note_on_c, 1, 31, 0
4, 79696, Note_on_c, 1, 29, 73
4, 80611, Note_on_c, 1, 29, 0
4, 80666, Note_on_c, 1, 38, 92
4, 81144, Note_on_c, 1, 41, 82
4, 81186, Note_on_c, 1, 41, 0
4, 81277, Note_on_c, 1, 43, 94
4, 81313, Note_on_c, 1, 43, 0
4, 81378, Note_on_c, 1, 44, 87
4, 81412, Note_on_c, 1, 38, 0
4, 81504, Note_on_c, 1, 44, 0
4, 81505, Note_on_c, 1, 43, 80
4, 81578, Note_on_c, 1, 43, 0
4, 81606, Note_on_c, 1, 41, 74
4, 82336, Note_on_c, 1, 38, 71
4, 82357, Note_on_c, 1, 41, 0
4, 82378, Note_on_c, 1, 38, 0
4, 82474, Note_on_c, 1, 32, 77
4, 82532, Note_on_c, 1, 32, 0
4, 82566, Note_on_c, 1, 31, 82
4, 83276, Note_on_c, 1, 48, 99
4, 83508, Note_on_c, 1, 47, 80
4, 83512, Note_on_c, 1, 31, 0
4, 83526, Note_on_c, 1, 48, 0
4, 83952, Note_on_c, 1, 43, 74
4, 83969, Note_on_c, 1, 47, 0
4, 83989, Note_on_c, 1, 43, 0
4, 84036, Note_on_c, 1, 38, 79
4, 84388, Note_on_c, 1, 38, 0
4, 84409, Note_on_c, 1, 35, 57
4, 84479, Note_on_c, 1, 35, 0
4, 84495, Note_on_c, 1, 36, 84
4, 85376, Note_on_c, 1, 38, 68
4, 85445, Note_on_c, 1, 38, 0
4, 85455, Note_on_c, 1, 36, 0
4, 85474, Note_on_c, 1, 39, 74
4, 85596, Note_on_c, 1, 39, 0
4, 85613, Note_on_c, 1, 38, 69
4, 85677, Note_on_c, 1, 38, 0
4, 85705, Note_on_c, 1, 36, 64
4, 86316, Note_on_c, 1, 36, 0
4, 86388, Note_on_c, 1, 36, 79
4, 87252, Note_on_c, 1, 43, 66
4, 87286, Note_on_c, 1, 43, 0
4, 87348, Note_on_c, 1, 47, 78
4, 87490, Note_on_c, 1, 47, 0
4, 87506, Note_on_c, 1, 50, 82
4, 87568, Note_on_c, 1, 50, 0
4, 87610, Note_on_c, 1, 48, 85
4, 87844, Note_on_c, 1, 48, 0
4, 87862, Note_on_c, 1, 47, 71
4, 87877, Note_on_c, 1, 36, 0
4, 88217, Note_on_c, 1, 43, 71
4, 88261, Note_on_c, 1, 43, 0
4, 88274, Note_on_c, 1, 47, 0
4, 88285, Note_on_c, 1, 43, 42
4, 88347, Note_on_c, 1, 43, 0
4, 88376, Note_on_c, 1, 36, 81
4, 88820, Note_on_c, 1, 46, 86
4, 88954, Note_on_c, 1, 46, 0
4, 89075, Note_on_c, 1, 46, 86
4, 89138, Note_on_c, 1, 36, 0
4, 89785, Note_on_c, 1, 36, 81
4, 89955, Note_on_c, 1, 46, 0
4, 89977, Note_on_c, 1, 36, 0
4, 90035, Note_on_c, 1, 36, 91
4, 90756, Note_on_c, 1, 45, 103
4, 90836, Note_on_c, 1, 45, 0
4, 90981, Note_on_c, 1, 45, 110
4, 91002, Note_on_c, 1, 36, 0
4, 91446, Note_on_c, 1, 36, 83
4, 91563, Note_on_c, 1, 36, 0
4, 91585, Note_on_c, 1, 45, 0
4, 91690, Note_on_c, 1, 36, 91
4, 92167, Note_on_c, 1, 44, 93
4, 92188, Note_on_c, 1, 36, 0
4, 92296, Note_on_c, 1, 44, 0
4, 92408, Note_on_c, 1, 44, 95
4, 92662, Note_on_c, 1, 36, 88
4, 92664, Note_on_c, 1, 44, 0
4, 92844, Note_on_c, 1, 36, 0
4, 92902, Note_on_c, 1, 36, 88
4, 93763, Note_on_c, 1, 43, 99
4, 93804, Note_on_c, 1, 36, 0
4, 93833, Note_on_c, 1, 43, 0
4, 93912, Note_on_c, 1, 42, 92
4, 94034, Note_on_c, 1, 42, 0
4, 94071, Note_on_c, 1, 41, 89
4, 94479, Note_on_c, 1, 36, 68
4, 94532, Note_on_c, 1, 36, 0
4, 94539, Note_on_c, 1, 41, 0
4, 94567, Note_on_c, 1, 32, 84
4, 94646, Note_on_c, 1, 32, 0
4, 94692, Note_on_c, 1, 31, 80
4, 94760, Note_on_c, 1, 31, 0
4, 94804, Note_on_c, 1, 29, 80
4, 96003, Note_on_c, 1, 29, 0
4, 96265, Note_on_c, 1, 41, 96
4, 96306, Note_on_c, 1, 41, 0
4, 96493, Note_on_c, 1, 41, 94
4, 96971, Note_on_c, 1, 29, 74
4, 96976, Note_on_c, 1, 41, 0
4, 97152, Note_on_c, 1, 29, 0
4, 97221, Note_on_c, 1, 29, 78
4, 97905, Note_on_c, 1, 29, 0
4, 97925, Note_on_c, 1, 34, 85
4, 98426, Note_on_c, 1, 46, 98
4, 98569, Note_on_c, 1, 46, 0
4, 98670, Note_on_c, 1, 46, 94
4, 99148, Note_on_c, 1, 34, 0
4, 99327, Note_on_c, 1, 46, 0
4, 99402, Note_on_c, 1, 46, 77
4, 100036, Note_on_c, 1, 46, 0
4, 100110, Note_on_c, 1, 39, 81
4, 100219, Note_on_c, 1, 39, 0
4, 100354, Note_on_c, 1, 39, 83
4, 101052, Note_on_c, 1, 46, 95
4, 101080, Note_on_c, 1, 39, 0
4, 101148, Note_on_c, 1, 46, 0
4, 101297, Note_on_c, 1, 46, 92
4, 101543, Note_on_c, 1, 34, 84
4, 101555, Note_on_c, 1, 46, 0
4, 102039, Note_on_c, 1, 46, 88
4, 102057, Note_on_c, 1, 34, 0
4, 102107, Note_on_c, 1, 46, 0
4, 102265, Note_on_c, 1, 46, 91
4, 102506, Note_on_c, 1, 46, 0
4, 102510, Note_on_c, 1, 34, 83
4, 102982, Note_on_c, 1, 46, 97
4, 103003, Note_on_c, 1, 34, 0
4, 103071, Note_on_c, 1, 46, 0
4, 103212, Note_on_c, 1, 46, 97
4, 103446, Note_on_c, 1, 34, 85
4, 103451, Note_on_c, 1, 46, 0
4, 103942, Note_on_c, 1, 46, 93
4, 103961, Note_on_c, 1, 34, 0
4, 104000, Note_on_c, 1, 46, 0
4, 104172, Note_on_c, 1, 46, 92
4, 104417, Note_on_c, 1, 34, 83
4, 104436, Note_on_c, 1, 46, 0
4, 104663, Note_on_c, 1, 46, 88
4, 104705, Note_on_c, 1, 46, 0
4, 104874, Note_on_c, 1, 34, 0
4, 104902, Note_on_c, 1, 46, 94
4, 105133, Note_on_c, 1, 34, 90
4, 105152, Note_on_c, 1, 46, 0
4, 105873, Note_on_c, 1, 46, 98
4, 105881, Note_on_c, 1, 34, 0
4, 105918, Note_on_c, 1, 46, 0
4, 106103, Note_on_c, 1, 46, 90
4, 106350, Note_on_c, 1, 34, 84
4, 106355, Note_on_c, 1, 46, 0
4, 106579, Note_on_c, 1, 46, 90
4, 106583, Note_on_c, 1, 34, 0
4, 106621, Note_on_c, 1, 46, 0
4, 106815, Note_on_c, 1, 46, 91
4, 107280, Note_on_c, 1, 34, 78
4, 107288, Note_on_c, 1, 46, 0
4, 107758, Note_on_c, 1, 34, 0
4, 107768, Note_on_c, 1, 46, 86
4, 107814, Note_on_c, 1, 46, 0
4, 107991, Note_on_c, 1, 46, 88
4, 108482, Note_on_c, 1, 46, 0
4, 108496, Note_on_c, 1, 38, 89
4, 108624, Note_on_c, 1, 38, 0
4, 108744, Note_on_c, 1, 38, 90
4, 109205, Note_on_c, 1, 38, 0
4, 109209, Note_on_c, 1, 43, 99
4, 109420, Note_on_c, 1, 43, 0
4, 109449, Note_on_c, 1, 36, 91
4, 109839, Note_on_c, 1, 51, 82
4, 109910, Note_on_c, 1, 51, 0
4, 109952, Note_on_c, 1, 36, 0
4, 109952, Note_on_c, 1, 50, 90
4, 110170, Note_on_c, 1, 50, 0
4, 110187, Note_on_c, 1, 35, 92
4, 110411, Note_on_c, 1, 35, 0
4, 110427, Note_on_c, 1, 34, 83
4, 110889, Note_on_c, 1, 34, 0
4, 110916, Note_on_c, 1, 33, 101
4, 111340, Note_on_c, 1, 33, 0
4, 111371, Note_on_c, 1, 32, 86
4, 112331, Note_on_c, 1, 48, 77
4, 112370, Note_on_c, 1, 48, 0
4, 112557, Note_on_c, 1, 32, 0
4, 112564, Note_on_c, 1, 48, 89
4, 113417, Note_on_c, 1, 48, 0
4, 113531, Note_on_c, 1, 38, 105
4, 113998, Note_on_c, 1, 44, 99
4, 114032, Note_on_c, 1, 38, 0
4, 114082, Note_on_c, 1, 44, 0
4, 114233, Note_on_c, 1, 43, 105
4, 114619, Note_on_c, 1, 38, 76
4, 114667, Note_on_c, 1, 38, 0
4, 114736, Note_on_c, 1, 35, 91
4, 114743, Note_on_c, 1, 43, 0
4, 115096, Note_on_c, 1, 35, 0
4, 115103, Note_on_c, 1, 31, 68
4, 115141, Note_on_c, 1, 31, 0
4, 115203, Note_on_c, 1, 36, 87
4, 115817, Note_on_c, 1, 38, 68
4, 115821, Note_on_c, 1, 36, 0
4, 115873, Note_on_c, 1, 38, 0
4, 115929, Note_on_c, 1, 39, 80
4, 116057, Note_on_c, 1, 38, 50
4, 116058, Note_on_c, 1, 39, 0
4, 116143, Note_on_c, 1, 38, 0
4, 116180, Note_on_c, 1, 36, 79
4, 117614, Note_on_c, 1, 47, 101
4, 117616, Note_on_c, 1, 36, 0
4, 118320, Note_on_c, 1, 36, 82
4, 118440, Note_on_c, 1, 36, 0
4, 118567, Note_on_c, 1, 36, 83
4, 118624, Note_on_c, 1, 36, 0
4, 118804, Note_on_c, 1, 36, 82
4, 118844, Note_on_c, 1, 47, 0
4, 119041, Note_on_c, 1, 46, 95
4, 119141, Note_on_c, 1, 46, 0
4, 119160, Note_on_c, 1, 36, 0
4, 119283, Note_on_c, 1, 46, 86
4, 119645, Note_on_c, 1, 43, 65
4, 119652, Note_on_c, 1, 46, 0
4, 119698, Note_on_c, 1, 43, 0
4, 119757, Note_on_c, 1, 39, 70
4, 119888, Note_on_c, 1, 36, 72
4, 119903, Note_on_c, 1, 39, 0
4, 119963, Note_on_c, 1, 36, 0
4, 120019, Note_on_c, 1, 36, 81
4, 120147, Note_on_c, 1, 36, 0
4, 120266, Note_on_c, 1, 36, 81
4, 120981, Note_on_c, 1, 45, 115
4, 121001, Note_on_c, 1, 36, 0
4, 121729, Note_on_c, 1, 36, 80
4, 121757, Note_on_c, 1, 45, 0
4, 121776, Note_on_c, 1, 36, 0
4, 121946, Note_on_c, 1, 36, 87
4, 121997, Note_on_c, 1, 36, 0
4, 122189, Note_on_c, 1, 36, 85
4, 122659, Note_on_c, 1, 45, 80
4, 122672, Note_on_c, 1, 36, 0
4, 122717, Note_on_c, 1, 45, 0
4, 122785, Note_on_c, 1, 36, 71
4, 122833, Note_on_c, 1, 36, 0
4, 122890, Note_on_c, 1, 32, 85
4, 123614, Note_on_c, 1, 44, 94
4, 123660, Note_on_c, 1, 32, 0
4, 123690, Note_on_c, 1, 44, 0
4, 123845, Note_on_c, 1, 44, 87
4, 124234, Note_on_c, 1, 32, 28
4, 124283, Note_on_c, 1, 32, 0
4, 124305, Note_on_c, 1, 44, 0
4, 124320, Note_on_c, 1, 43, 95
4, 124769, Note_on_c, 1, 43, 0
4, 124775, Note_on_c, 1, 41, 88
4, 125735, Note_on_c, 1, 41, 0
4, 125763, Note_on_c, 1, 43, 87
4, 126182, Note_on_c, 1, 38, 43
4, 126200, Note_on_c, 1, 38, 0
4, 126252, Note_on_c, 1, 43, 0
4, 126252, Note_on_c, 1, 31, 92
4, 126630, Note_on_c, 1, 35, 69
4, 126636, Note_on_c, 1, 31, 0
4, 126686, Note_on_c, 1, 35, 0
4, 126722, Note_on_c, 1, 36, 91
4, 127464, Note_on_c, 1, 48, 101
4, 127479, Note_on_c, 1, 36, 0
4, 127607, Note_on_c, 1, 36, 79
4, 127673, Note_on_c, 1, 36, 0
4, 127674, Note_on_c, 1, 48, 0
4, 127706, Note_on_c, 1, 47, 91
4, 127939, Note_on_c, 1, 35, 90
4, 127971, Note_on_c, 1, 47, 0
4, 128156, Note_on_c, 1, 35, 0
4, 128187, Note_on_c, 1, 35, 87
4, 128550, Note_on_c, 1, 47, 71
4, 128562, Note_on_c, 1, 35, 0
4, 128624, Note_on_c, 1, 47, 0
4, 128650, Note_on_c, 1, 46, 92
4, 128896, Note_on_c, 1, 34, 80
4, 128902, Note_on_c, 1, 46, 0
4, 128988, Note_on_c, 1, 34, 0
4, 129124, Note_on_c, 1, 34, 81
4, 129496, Note_on_c, 1, 46, 76
4, 129518, Note_on_c, 1, 34, 0
4, 129579, Note_on_c, 1, 46, 0
4, 129614, Note_on_c, 1, 45, 83
4, 129833, Note_on_c, 1, 45, 0
4, 129845, Note_on_c, 1, 33, 81
4, 129983, Note_on_c, 1, 33, 0
4, 130086, Note_on_c, 1, 33, 88
4, 130403, Note_on_c, 1, 33, 0
4, 130452, Note_on_c, 1, 33, 74
4, 130512, Note_on_c, 1, 33, 0
4, 130555, Note_on_c, 1, 32, 85
4, 131511, Note_on_c, 1, 32, 0
4, 131535, Note_on_c, 1, 29, 82
4, 132453, Note_on_c, 1, 29, 0
4, 132456, Note_on_c, 1, 34, 87
4, 132993, Note_on_c, 1, 46, 97
4, 133048, Note_on_c, 1, 34, 0
4, 133460, Note_on_c, 1, 34, 84
4, 133475, Note_on_c, 1, 46, 0
4, 133936, Note_on_c, 1, 46, 98
4, 133970, Note_on_c, 1, 34, 0
4, 134189, Note_on_c, 1, 34, 82
4, 134239, Note_on_c, 1, 46, 0
4, 134382, Note_on_c, 1, 34, 0
4, 134424, Note_on_c, 1, 39, 93
4, 137082, Note_on_c, 1, 34, 77
4, 137102, Note_on_c, 1, 39, 0
4, 137348, Note_on_c, 1, 46, 77
4, 137381, Note_on_c, 1, 34, 0
4, 137589, Note_on_c, 1, 46, 0
4, 137617, Note_on_c, 1, 46, 68
4, 138307, Note_on_c, 1, 39, 73
4, 138322, Note_on_c, 1, 46, 0
4, 141889, Note_on_c, 1, 39, 0
4, 141889, End_track
5, 0, Start_track
5, 0, Title_t, "Brush Kit"
5, 0, Program_c, 9, 40
5, 0, Control_c, 9, 7, 111
5, 0, Control_c, 9, 91, 127
5, 0, Control_c, 9, 93, 20
5, 20, Note_on_c, 9, 51, 44
5, 45, Note_on_c, 9, 59, 63
5, 480, Note_on_c, 9, 44, 47
5, 591, Note_on_c, 9, 44, 0
5, 895, Note_on_c, 9, 51, 0
5, 953, Note_on_c, 9, 59, 0
5, 1440, Note_on_c, 9, 69, 34
5, 1442, Note_on_c, 9, 44, 47
5, 1533, Note_on_c, 9, 44, 0
5, 1639, Note_on_c, 9, 69, 0
5, 2401, Note_on_c, 9, 44, 47
5, 2478, Note_on_c, 9, 44, 0
5, 3360, Note_on_c, 9, 44, 47
5, 3361, Note_on_c, 9, 69, 36
5, 3433, Note_on_c, 9, 44, 0
5, 3569, Note_on_c, 9, 69, 0
5, 4321, Note_on_c, 9, 44, 47
5, 4401, Note_on_c, 9, 44, 0
5, 5280, Note_on_c, 9, 44, 47
5, 5280, Note_on_c, 9, 69, 36
5, 5376, Note_on_c, 9, 44, 0
5, 5474, Note_on_c, 9, 69, 0
5, 6240, Note_on_c, 9, 44, 47
5, 6335, Note_on_c, 9, 44, 0
5, 6960, Note_on_c, 9, 70, 25
5, 7110, Note_on_c, 9, 70, 0
5, 7200, Note_on_c, 9, 44, 47
5, 7200, Note_on_c, 9, 69, 31
5, 7285, Note_on_c, 9, 44, 0
5, 7433, Note_on_c, 9, 69, 0
5, 8160, Note_on_c, 9, 44, 47
5, 8290, Note_on_c, 9, 44, 0
5, 9120, Note_on_c, 9, 44, 47
5, 9120, Note_on_c, 9, 69, 41
5, 9243, Note_on_c, 9, 44, 0
5, 9343, Note_on_c, 9, 69, 0
5, 10080, Note_on_c, 9, 44, 47
5, 10170, Note_on_c, 9, 44, 0
5, 10920, Note_on_c, 9, 70, 19
5, 11013, Note_on_c, 9, 70, 0
5, 11040, Note_on_c, 9, 69, 31
5, 11040, Note_on_c, 9, 44, 47
5, 11126, Note_on_c, 9, 44, 0
5, 11260, Note_on_c, 9, 69, 0
5, 12000, Note_on_c, 9, 44, 47
5, 12101, Note_on_c, 9, 44, 0
5, 12840, Note_on_c, 9, 64, 55
5, 12930, Note_on_c, 9, 64, 0
5, 12960, Note_on_c, 9, 69, 38
5, 12960, Note_on_c, 9, 44, 47
5, 12960, Note_on_c, 9, 62, 80
5, 13113, Note_on_c, 9, 44, 0
5, 13205, Note_on_c, 9, 69, 0
5, 13216, Note_on_c, 9, 62, 0
5, 13800, Note_on_c, 9, 61, 28
5, 13821, Note_on_c, 9, 61, 0
5, 13860, Note_on_c, 9, 61, 44
5, 13879, Note_on_c, 9, 61, 0
5, 13920, Note_on_c, 9, 61, 59
5, 13920, Note_on_c, 9, 44, 47
5, 13961, Note_on_c, 9, 61, 0
5, 13987, Note_on_c, 9, 44, 0
5, 14040, Note_on_c, 9, 61, 35
5, 14071, Note_on_c, 9, 61, 0
5, 14160, Note_on_c, 9, 61, 41
5, 14160, Note_on_c, 9, 70, 22
5, 14196, Note_on_c, 9, 61, 0
5, 14241, Note_on_c, 9, 70, 0
5, 14280, Note_on_c, 9, 61, 54
5, 14324, Note_on_c, 9, 61, 0
5, 14400, Note_on_c, 9, 60, 67
5, 14400, Note_on_c, 9, 70, 31
5, 14528, Note_on_c, 9, 70, 0
5, 14605, Note_on_c, 9, 60, 0
5, 14760, Note_on_c, 9, 62, 80
5, 14834, Note_on_c, 9, 62, 0
5, 14880, Note_on_c, 9, 44, 47
5, 14880, Note_on_c, 9, 69, 34
5, 14882, Note_on_c, 9, 64, 59
5, 14925, Note_on_c, 9, 44, 0
5, 15045, Note_on_c, 9, 64, 0
5, 15075, Note_on_c, 9, 69, 0
5, 15122, Note_on_c, 9, 63, 51
5, 15326, Note_on_c, 9, 63, 0
5, 15373, Note_on_c, 9, 51, 46
5, 15398, Note_on_c, 9, 59, 66
5, 15840, Note_on_c, 9, 44, 47
5, 15951, Note_on_c, 9, 44, 0
5, 16248, Note_on_c, 9, 51, 0
5, 16306, Note_on_c, 9, 59, 0
5, 16560, Note_on_c, 9, 64, 35
5, 16622, Note_on_c, 9, 64, 0
5, 16680, Note_on_c, 9, 63, 63
5, 16739, Note_on_c, 9, 63, 0
5, 16800, Note_on_c, 9, 44, 47
5, 16800, Note_on_c, 9, 62, 88
5, 16800, Note_on_c, 9, 69, 38
5, 16885, Note_on_c, 9, 62, 0
5, 16891, Note_on_c, 9, 44, 0
5, 17058, Note_on_c, 9, 69, 0
5, 17760, Note_on_c, 9, 44, 47
5, 17837, Note_on_c, 9, 44, 0
5, 18600, Note_on_c, 9, 70, 21
5, 18710, Note_on_c, 9, 70, 0
5, 18720, Note_on_c, 9, 44, 47
5, 18720, Note_on_c, 9, 69, 34
5, 18793, Note_on_c, 9, 44, 0
5, 18961, Note_on_c, 9, 69, 0
5, 19680, Note_on_c, 9, 44, 47
5, 19760, Note_on_c, 9, 44, 0
5, 20640, Note_on_c, 9, 44, 47
5, 20644, Note_on_c, 9, 69, 23
5, 20736, Note_on_c, 9, 44, 0
5, 20846, Note_on_c, 9, 69, 0
5, 21600, Note_on_c, 9, 44, 47
5, 21695, Note_on_c, 9, 44, 0
5, 22443, Note_on_c, 9, 69, 23
5, 22546, Note_on_c, 9, 69, 0
5, 22560, Note_on_c, 9, 44, 47
5, 22575, Note_on_c, 9, 70, 34
5, 22645, Note_on_c, 9, 44, 0
5, 22787, Note_on_c, 9, 70, 0
5, 22800, Note_on_c, 9, 69, 26
5, 23021, Note_on_c, 9, 69, 0
5, 23520, Note_on_c, 9, 44, 47
5, 23650, Note_on_c, 9, 44, 0
5, 24480, Note_on_c, 9, 44, 47
5, 24480, Note_on_c, 9, 70, 34
5, 24603, Note_on_c, 9, 44, 0
5, 24718, Note_on_c, 9, 70, 0
5, 25440, Note_on_c, 9, 44, 47
5, 25530, Note_on_c, 9, 44, 0
5, 26172, Note_on_c, 9, 70, 25
5, 26390, Note_on_c, 9, 70, 0
5, 26400, Note_on_c, 9, 44, 47
5, 26400, Note_on_c, 9, 69, 36
5, 26486, Note_on_c, 9, 44, 0
5, 26648, Note_on_c, 9, 69, 0
5, 27360, Note_on_c, 9, 44, 47
5, 27461, Note_on_c, 9, 44, 0
5, 28320, Note_on_c, 9, 44, 47
5, 28320, Note_on_c, 9, 69, 36
5, 28473, Note_on_c, 9, 44, 0
5, 28541, Note_on_c, 9, 69, 0
5, 29280, Note_on_c, 9, 44, 47
5, 29347, Note_on_c, 9, 44, 0
5, 29605, Note_on_c, 9, 75, 21
5, 29617, Note_on_c, 9, 75, 0
5, 29659, Note_on_c, 9, 75, 27
5, 29690, Note_on_c, 9, 75, 0
5, 29725, Note_on_c, 9, 75, 35
5, 29760, Note_on_c, 9, 75, 0
5, 29795, Note_on_c, 9, 75, 43
5, 29836, Note_on_c, 9, 75, 0
5, 29859, Note_on_c, 9, 75, 50
5, 29880, Note_on_c, 9, 70, 21
5, 29905, Note_on_c, 9, 75, 0
5, 29949, Note_on_c, 9, 75, 53
5, 29985, Note_on_c, 9, 70, 0
5, 29998, Note_on_c, 9, 75, 0
5, 30000, Note_on_c, 9, 69, 21
5, 30032, Note_on_c, 9, 75, 48
5, 30085, Note_on_c, 9, 75, 0
5, 30130, Note_on_c, 9, 75, 42
5, 30134, Note_on_c, 9, 69, 0
5, 30186, Note_on_c, 9, 75, 0
5, 30232, Note_on_c, 9, 75, 35
5, 30240, Note_on_c, 9, 44, 47
5, 30240, Note_on_c, 9, 69, 41
5, 30285, Note_on_c, 9, 44, 0
5, 30290, Note_on_c, 9, 75, 0
5, 30350, Note_on_c, 9, 75, 27
5, 30410, Note_on_c, 9, 75, 0
5, 30436, Note_on_c, 9, 69, 0
5, 30494, Note_on_c, 9, 75, 18
5, 30536, Note_on_c, 9, 75, 0
5, 30740, Note_on_c, 9, 51, 44
5, 30765, Note_on_c, 9, 59, 63
5, 31200, Note_on_c, 9, 44, 47
5, 31311, Note_on_c, 9, 44, 0
5, 31615, Note_on_c, 9, 51, 0
5, 31673, Note_on_c, 9, 59, 0
5, 32160, Note_on_c, 9, 44, 47
5, 32160, Note_on_c, 9, 69, 34
5, 32251, Note_on_c, 9, 44, 0
5, 32359, Note_on_c, 9, 69, 0
5, 33120, Note_on_c, 9, 44, 47
5, 33197, Note_on_c, 9, 44, 0
5, 34080, Note_on_c, 9, 44, 47
5, 34080, Note_on_c, 9, 69, 36
5, 34153, Note_on_c, 9, 44, 0
5, 34288, Note_on_c, 9, 69, 0
5, 35040, Note_on_c, 9, 44, 47
5, 35120, Note_on_c, 9, 44, 0
5, 36000, Note_on_c, 9, 44, 47
5, 36000, Note_on_c, 9, 69, 36
5, 36096, Note_on_c, 9, 44, 0
5, 36194, Note_on_c, 9, 69, 0
5, 36960, Note_on_c, 9, 44, 47
5, 37055, Note_on_c, 9, 44, 0
5, 37680, Note_on_c, 9, 70, 25
5, 37830, Note_on_c, 9, 70, 0
5, 37920, Note_on_c, 9, 44, 47
5, 37920, Note_on_c, 9, 69, 31
5, 38005, Note_on_c, 9, 44, 0
5, 38153, Note_on_c, 9, 69, 0
5, 38880, Note_on_c, 9, 44, 47
5, 39010, Note_on_c, 9, 44, 0
5, 39840, Note_on_c, 9, 44, 47
5, 39840, Note_on_c, 9, 69, 41
5, 39963, Note_on_c, 9, 44, 0
5, 40063, Note_on_c, 9, 69, 0
5, 40800, Note_on_c, 9, 44, 47
5, 40890, Note_on_c, 9, 44, 0
5, 41640, Note_on_c, 9, 70, 19
5, 41733, Note_on_c, 9, 70, 0
5, 41760, Note_on_c, 9, 44, 47
5, 41760, Note_on_c, 9, 69, 31
5, 41846, Note_on_c, 9, 44, 0
5, 41980, Note_on_c, 9, 69, 0
5, 42720, Note_on_c, 9, 44, 47
5, 42821, Note_on_c, 9, 44, 0
5, 43560, Note_on_c, 9, 64, 55
5, 43650, Note_on_c, 9, 64, 0
5, 43680, Note_on_c, 9, 44, 47
5, 43680, Note_on_c, 9, 69, 38
5, 43680, Note_on_c, 9, 62, 80
5, 43833, Note_on_c, 9, 44, 0
5, 43925, Note_on_c, 9, 69, 0
5, 43936, Note_on_c, 9, 62, 0
5, 44520, Note_on_c, 9, 61, 28
5, 44541, Note_on_c, 9, 61, 0
5, 44580, Note_on_c, 9, 61, 44
5, 44599, Note_on_c, 9, 61, 0
5, 44640, Note_on_c, 9, 44, 47
5, 44640, Note_on_c, 9, 61, 59
5, 44681, Note_on_c, 9, 61, 0
5, 44707, Note_on_c, 9, 44, 0
5, 44760, Note_on_c, 9, 61, 35
5, 44791, Note_on_c, 9, 61, 0
5, 44880, Note_on_c, 9, 70, 22
5, 44880, Note_on_c, 9, 61, 41
5, 44916, Note_on_c, 9, 61, 0
5, 44961, Note_on_c, 9, 70, 0
5, 45000, Note_on_c, 9, 61, 54
5, 45044, Note_on_c, 9, 61, 0
5, 45120, Note_on_c, 9, 70, 31
5, 45120, Note_on_c, 9, 60, 67
5, 45248, Note_on_c, 9, 70, 0
5, 45325, Note_on_c, 9, 60, 0
5, 45480, Note_on_c, 9, 62, 80
5, 45554, Note_on_c, 9, 62, 0
5, 45600, Note_on_c, 9, 44, 47
5, 45600, Note_on_c, 9, 69, 34
5, 45600, Note_on_c, 9, 64, 59
5, 45645, Note_on_c, 9, 44, 0
5, 45763, Note_on_c, 9, 64, 0
5, 45795, Note_on_c, 9, 69, 0
5, 45840, Note_on_c, 9, 63, 51
5, 46044, Note_on_c, 9, 63, 0
5, 46560, Note_on_c, 9, 44, 47
5, 46671, Note_on_c, 9, 44, 0
5, 47520, Note_on_c, 9, 44, 47
5, 47520, Note_on_c, 9, 69, 34
5, 47611, Note_on_c, 9, 44, 0
5, 47719, Note_on_c, 9, 69, 0
5, 48480, Note_on_c, 9, 44, 47
5, 48557, Note_on_c, 9, 44, 0
5, 49440, Note_on_c, 9, 44, 47
5, 49440, Note_on_c, 9, 69, 36
5, 49513, Note_on_c, 9, 44, 0
5, 49648, Note_on_c, 9, 69, 0
5, 50400, Note_on_c, 9, 44, 47
5, 50480, Note_on_c, 9, 44, 0
5, 51360, Note_on_c, 9, 44, 47
5, 51360, Note_on_c, 9, 69, 36
5, 51456, Note_on_c, 9, 44, 0
5, 51554, Note_on_c, 9, 69, 0
5, 52320, Note_on_c, 9, 44, 47
5, 52415, Note_on_c, 9, 44, 0
5, 53040, Note_on_c, 9, 70, 25
5, 53190, Note_on_c, 9, 70, 0
5, 53280, Note_on_c, 9, 44, 47
5, 53280, Note_on_c, 9, 69, 31
5, 53365, Note_on_c, 9, 44, 0
5, 53513, Note_on_c, 9, 69, 0
5, 54240, Note_on_c, 9, 44, 47
5, 54370, Note_on_c, 9, 44, 0
5, 55200, Note_on_c, 9, 44, 47
5, 55200, Note_on_c, 9, 69, 41
5, 55323, Note_on_c, 9, 44, 0
5, 55423, Note_on_c, 9, 69, 0
5, 56160, Note_on_c, 9, 44, 47
5, 56250, Note_on_c, 9, 44, 0
5, 57000, Note_on_c, 9, 70, 19
5, 57093, Note_on_c, 9, 70, 0
5, 57120, Note_on_c, 9, 44, 47
5, 57120, Note_on_c, 9, 69, 31
5, 57206, Note_on_c, 9, 44, 0
5, 57340, Note_on_c, 9, 69, 0
5, 58080, Note_on_c, 9, 44, 47
5, 58181, Note_on_c, 9, 44, 0
5, 59040, Note_on_c, 9, 44, 47
5, 59040, Note_on_c, 9, 69, 38
5, 59193, Note_on_c, 9, 44, 0
5, 59285, Note_on_c, 9, 69, 0
5, 60000, Note_on_c, 9, 44, 47
5, 60067, Note_on_c, 9, 44, 0
5, 60240, Note_on_c, 9, 70, 22
5, 60321, Note_on_c, 9, 70, 0
5, 60480, Note_on_c, 9, 70, 31
5, 60608, Note_on_c, 9, 70, 0
5, 60960, Note_on_c, 9, 44, 47
5, 60960, Note_on_c, 9, 69, 34
5, 61005, Note_on_c, 9, 44, 0
5, 61155, Note_on_c, 9, 69, 0
5, 61920, Note_on_c, 9, 44, 47
5, 62031, Note_on_c, 9, 44, 0
5, 62880, Note_on_c, 9, 44, 47
5, 62880, Note_on_c, 9, 69, 38
5, 62971, Note_on_c, 9, 44, 0
5, 63138, Note_on_c, 9, 69, 0
5, 63840, Note_on_c, 9, 44, 47
5, 63917, Note_on_c, 9, 44, 0
5, 64680, Note_on_c, 9, 70, 21
5, 64790, Note_on_c, 9, 70, 0
5, 64800, Note_on_c, 9, 44, 47
5, 64800, Note_on_c, 9, 69, 34
5, 64873, Note_on_c, 9, 44, 0
5, 65041, Note_on_c, 9, 69, 0
5, 65760, Note_on_c, 9, 44, 47
5, 65840, Note_on_c, 9, 44, 0
5, 66720, Note_on_c, 9, 44, 47
5, 66720, Note_on_c, 9, 69, 23
5, 66816, Note_on_c, 9, 44, 0
5, 66922, Note_on_c, 9, 69, 0
5, 67680, Note_on_c, 9, 44, 47
5, 67775, Note_on_c, 9, 44, 0
5, 68520, Note_on_c, 9, 69, 23
5, 68623, Note_on_c, 9, 69, 0
5, 68640, Note_on_c, 9, 44, 47
5, 68640, Note_on_c, 9, 70, 34
5, 68725, Note_on_c, 9, 44, 0
5, 68852, Note_on_c, 9, 70, 0
5, 68880, Note_on_c, 9, 69, 26
5, 69101, Note_on_c, 9, 69, 0
5, 69120, Control_c, 9, 91, 127
5, 69120, Control_c, 9, 93, 20
5, 69140, Note_on_c, 9, 51, 44
5, 69165, Note_on_c, 9, 59, 63
5, 69600, Note_on_c, 9, 44, 47
5, 69711, Note_on_c, 9, 44, 0
5, 70015, Note_on_c, 9, 51, 0
5, 70073, Note_on_c, 9, 59, 0
5, 70560, Note_on_c, 9, 69, 34
5, 70562, Note_on_c, 9, 44, 47
5, 70653, Note_on_c, 9, 44, 0
5, 70759, Note_on_c, 9, 69, 0
5, 71521, Note_on_c, 9, 44, 47
5, 71598, Note_on_c, 9, 44, 0
5, 72480, Note_on_c, 9, 44, 47
5, 72481, Note_on_c, 9, 69, 36
5, 72553, Note_on_c, 9, 44, 0
5, 72689, Note_on_c, 9, 69, 0
5, 73441, Note_on_c, 9, 44, 47
5, 73521, Note_on_c, 9, 44, 0
5, 74400, Note_on_c, 9, 44, 47
5, 74400, Note_on_c, 9, 69, 36
5, 74496, Note_on_c, 9, 44, 0
5, 74594, Note_on_c, 9, 69, 0
5, 75360, Note_on_c, 9, 44, 47
5, 75455, Note_on_c, 9, 44, 0
5, 76080, Note_on_c, 9, 70, 25
5, 76230, Note_on_c, 9, 70, 0
5, 76320, Note_on_c, 9, 44, 47
5, 76320, Note_on_c, 9, 69, 31
5, 76405, Note_on_c, 9, 44, 0
5, 76553, Note_on_c, 9, 69, 0
5, 77280, Note_on_c, 9, 44, 47
5, 77410, Note_on_c, 9, 44, 0
5, 78240, Note_on_c, 9, 44, 47
5, 78240, Note_on_c, 9, 69, 41
5, 78363, Note_on_c, 9, 44, 0
5, 78463, Note_on_c, 9, 69, 0
5, 79200, Note_on_c, 9, 44, 47
5, 79290, Note_on_c, 9, 44, 0
5, 80040, Note_on_c, 9, 70, 19
5, 80133, Note_on_c, 9, 70, 0
5, 80160, Note_on_c, 9, 69, 31
5, 80160, Note_on_c, 9, 44, 47
5, 80246, Note_on_c, 9, 44, 0
5, 80380, Note_on_c, 9, 69, 0
5, 81120, Note_on_c, 9, 44, 47
5, 81221, Note_on_c, 9, 44, 0
5, 81960, Note_on_c, 9, 64, 55
5, 82050, Note_on_c, 9, 64, 0
5, 82080, Note_on_c, 9, 69, 38
5, 82080, Note_on_c, 9, 44, 47
5, 82080, Note_on_c, 9, 62, 80
5, 82233, Note_on_c, 9, 44, 0
5, 82325, Note_on_c, 9, 69, 0
5, 82336, Note_on_c, 9, 62, 0
5, 82920, Note_on_c, 9, 61, 28
5, 82941, Note_on_c, 9, 61, 0
5, 82980, Note_on_c, 9, 61, 44
5, 82999, Note_on_c, 9, 61, 0
5, 83040, Note_on_c, 9, 61, 59
5, 83040, Note_on_c, 9, 44, 47
5, 83081, Note_on_c, 9, 61, 0
5, 83107, Note_on_c, 9, 44, 0
5, 83160, Note_on_c, 9, 61, 35
5, 83191, Note_on_c, 9, 61, 0
5, 83280, Note_on_c, 9, 61, 41
5, 83280, Note_on_c, 9, 70, 22
5, 83316, Note_on_c, 9, 61, 0
5, 83361, Note_on_c, 9, 70, 0
5, 83400, Note_on_c, 9, 61, 54
5, 83444, Note_on_c, 9, 61, 0
5, 83520, Note_on_c, 9, 60, 67
5, 83520, Note_on_c, 9, 70, 31
5, 83648, Note_on_c, 9, 70, 0
5, 83725, Note_on_c, 9, 60, 0
5, 83880, Note_on_c, 9, 62, 80
5, 83954, Note_on_c, 9, 62, 0
5, 84000, Note_on_c, 9, 44, 47
5, 84000, Note_on_c, 9, 69, 34
5, 84002, Note_on_c, 9, 64, 59
5, 84045, Note_on_c, 9, 44, 0
5, 84165, Note_on_c, 9, 64, 0
5, 84195, Note_on_c, 9, 69, 0
5, 84242, Note_on_c, 9, 63, 51
5, 84446, Note_on_c, 9, 63, 0
5, 84493, Note_on_c, 9, 51, 46
5, 84518, Note_on_c, 9, 59, 66
5, 84960, Note_on_c, 9, 44, 47
5, 85071, Note_on_c, 9, 44, 0
5, 85368, Note_on_c, 9, 51, 0
5, 85426, Note_on_c, 9, 59, 0
5, 85680, Note_on_c, 9, 64, 35
5, 85742, Note_on_c, 9, 64, 0
5, 85800, Note_on_c, 9, 63, 63
5, 85859, Note_on_c, 9, 63, 0
5, 85920, Note_on_c, 9, 44, 47
5, 85920, Note_on_c, 9, 62, 88
5, 85920, Note_on_c, 9, 69, 38
5, 86005, Note_on_c, 9, 62, 0
5, 86011, Note_on_c, 9, 44, 0
5, 86178, Note_on_c, 9, 69, 0
5, 86880, Note_on_c, 9, 44, 47
5, 86957, Note_on_c, 9, 44, 0
5, 87720, Note_on_c, 9, 70, 21
5, 87830, Note_on_c, 9, 70, 0
5, 87840, Note_on_c, 9, 44, 47
5, 87840, Note_on_c, 9, 69, 34
5, 87913, Note_on_c, 9, 44, 0
5, 88081, Note_on_c, 9, 69, 0
5, 88800, Note_on_c, 9, 44, 47
5, 88880, Note_on_c, 9, 44, 0
5, 89760, Note_on_c, 9, 44, 47
5, 89764, Note_on_c, 9, 69, 23
5, 89856, Note_on_c, 9, 44, 0
5, 89966, Note_on_c, 9, 69, 0
5, 90720, Note_on_c, 9, 44, 47
5, 90815, Note_on_c, 9, 44, 0
5, 91563, Note_on_c, 9, 69, 23
5, 91666, Note_on_c, 9, 69, 0
5, 91680, Note_on_c, 9, 44, 47
5, 91695, Note_on_c, 9, 70, 34
5, 91765, Note_on_c, 9, 44, 0
5, 91907, Note_on_c, 9, 70, 0
5, 91920, Note_on_c, 9, 69, 26
5, 92141, Note_on_c, 9, 69, 0
5, 92640, Note_on_c, 9, 44, 47
5, 92770, Note_on_c, 9, 44, 0
5, 93600, Note_on_c, 9, 44, 47
5, 93600, Note_on_c, 9, 70, 34
5, 93723, Note_on_c, 9, 44, 0
5, 93838, Note_on_c, 9, 70, 0
5, 94560, Note_on_c, 9, 44, 47
5, 94650, Note_on_c, 9, 44, 0
5, 95292, Note_on_c, 9, 70, 25
5, 95510, Note_on_c, 9, 70, 0
5, 95520, Note_on_c, 9, 44, 47
5, 95520, Note_on_c, 9, 69, 36
5, 95606, Note_on_c, 9, 44, 0
5, 95768, Note_on_c, 9, 69, 0
5, 96480, Note_on_c, 9, 44, 47
5, 96581, Note_on_c, 9, 44, 0
5, 97440, Note_on_c, 9, 44, 47
5, 97440, Note_on_c, 9, 69, 36
5, 97593, Note_on_c, 9, 44, 0
5, 97661, Note_on_c, 9, 69, 0
5, 98400, Note_on_c, 9, 44, 47
5, 98467, Note_on_c, 9, 44, 0
5, 98725, Note_on_c, 9, 75, 21
5, 98737, Note_on_c, 9, 75, 0
5, 98779, Note_on_c, 9, 75, 27
5, 98810, Note_on_c, 9, 75, 0
5, 98845, Note_on_c, 9, 75, 35
5, 98880, Note_on_c, 9, 75, 0
5, 98915, Note_on_c, 9, 75, 43
5, 98956, Note_on_c, 9, 75, 0
5, 98979, Note_on_c, 9, 75, 50
5, 99000, Note_on_c, 9, 70, 21
5, 99025, Note_on_c, 9, 75, 0
5, 99069, Note_on_c, 9, 75, 53
5, 99105, Note_on_c, 9, 70, 0
5, 99118, Note_on_c, 9, 75, 0
5, 99120, Note_on_c, 9, 69, 21
5, 99152, Note_on_c, 9, 75, 48
5, 99205, Note_on_c, 9, 75, 0
5, 99250, Note_on_c, 9, 75, 42
5, 99254, Note_on_c, 9, 69, 0
5, 99306, Note_on_c, 9, 75, 0
5, 99352, Note_on_c, 9, 75, 35
5, 99360, Note_on_c, 9, 44, 47
5, 99360, Note_on_c, 9, 69, 41
5, 99405, Note_on_c, 9, 44, 0
5, 99410, Note_on_c, 9, 75, 0
5, 99470, Note_on_c, 9, 75, 27
5, 99530, Note_on_c, 9, 75, 0
5, 99556, Note_on_c, 9, 69, 0
5, 99614, Note_on_c, 9, 75, 18
5, 99656, Note_on_c, 9, 75, 0
5, 99860, Note_on_c, 9, 51, 44
5, 99885, Note_on_c, 9, 59, 63
5, 100320, Note_on_c, 9, 44, 47
5, 100431, Note_on_c, 9, 44, 0
5, 100735, Note_on_c, 9, 51, 0
5, 100793, Note_on_c, 9, 59, 0
5, 101280, Note_on_c, 9, 44, 47
5, 101280, Note_on_c, 9, 69, 34
5, 101371, Note_on_c, 9, 44, 0
5, 101479, Note_on_c, 9, 69, 0
5, 102240, Note_on_c, 9, 44, 47
5, 102317, Note_on_c, 9, 44, 0
5, 103200, Note_on_c, 9, 44, 47
5, 103200, Note_on_c, 9, 69, 36
5, 103273, Note_on_c, 9, 44, 0
5, 103408, Note_on_c, 9, 69, 0
5, 104160, Note_on_c, 9, 44, 47
5, 104240, Note_on_c, 9, 44, 0
5, 105120, Note_on_c, 9, 44, 47
5, 105120, Note_on_c, 9, 69, 36
5, 105216, Note_on_c, 9, 44, 0
5, 105314, Note_on_c, 9, 69, 0
5, 106080, Note_on_c, 9, 44, 47
5, 106175, Note_on_c, 9, 44, 0
5, 106800, Note_on_c, 9, 70, 25
5, 106950, Note_on_c, 9, 70, 0
5, 107040, Note_on_c, 9, 44, 47
5, 107040, Note_on_c, 9, 69, 31
5, 107125, Note_on_c, 9, 44, 0
5, 107273, Note_on_c, 9, 69, 0
5, 108000, Note_on_c, 9, 44, 47
5, 108130, Note_on_c, 9, 44, 0
5, 108960, Note_on_c, 9, 44, 47
5, 108960, Note_on_c, 9, 69, 41
5, 109083, Note_on_c, 9, 44, 0
5, 109183, Note_on_c, 9, 69, 0
5, 109920, Note_on_c, 9, 44, 47
5, 110010, Note_on_c, 9, 44, 0
5, 110760, Note_on_c, 9, 70, 19
5, 110853, Note_on_c, 9, 70, 0
5, 110880, Note_on_c, 9, 44, 47
5, 110880, Note_on_c, 9, 69, 31
5, 110966, Note_on_c, 9, 44, 0
5, 111100, Note_on_c, 9, 69, 0
5, 111840, Note_on_c, 9, 44, 47
5, 111941, Note_on_c, 9, 44, 0
5, 112680, Note_on_c, 9, 64, 55
5, 112770, Note_on_c, 9, 64, 0
5, 112800, Note_on_c, 9, 44, 47
5, 112800, Note_on_c, 9, 69, 38
5, 112800, Note_on_c, 9, 62, 80
5, 112953, Note_on_c, 9, 44, 0
5, 113045, Note_on_c, 9, 69, 0
5, 113056, Note_on_c, 9, 62, 0
5, 113640, Note_on_c, 9, 61, 28
5, 113661, Note_on_c, 9, 61, 0
5, 113700, Note_on_c, 9, 61, 44
5, 113719, Note_on_c, 9, 61, 0
5, 113760, Note_on_c, 9, 44, 47
5, 113760, Note_on_c, 9, 61, 59
5, 113801, Note_on_c, 9, 61, 0
5, 113827, Note_on_c, 9, 44, 0
5, 113880, Note_on_c, 9, 61, 35
5, 113911, Note_on_c, 9, 61, 0
5, 114000, Note_on_c, 9, 70, 22
5, 114000, Note_on_c, 9, 61, 41
5, 114036, Note_on_c, 9, 61, 0
5, 114081, Note_on_c, 9, 70, 0
5, 114120, Note_on_c, 9, 61, 54
5, 114164, Note_on_c, 9, 61, 0
5, 114240, Note_on_c, 9, 70, 31
5, 114240, Note_on_c, 9, 60, 67
5, 114368, Note_on_c, 9, 70, 0
5, 114445, Note_on_c, 9, 60, 0
5, 114600, Note_on_c, 9, 62, 80
5, 114674, Note_on_c, 9, 62, 0
5, 114720, Note_on_c, 9, 44, 47
5, 114720, Note_on_c, 9, 69, 34
5, 114720, Note_on_c, 9, 64, 59
5, 114765, Note_on_c, 9, 44, 0
5, 114883, Note_on_c, 9, 64, 0
5, 114915, Note_on_c, 9, 69, 0
5, 114960, Note_on_c, 9, 63, 51
5, 115164, Note_on_c, 9, 63, 0
5, 115680, Note_on_c, 9, 44, 47
5, 115791, Note_on_c, 9, 44, 0
5, 116640, Note_on_c, 9, 44, 47
5, 116640, Note_on_c, 9, 69, 34
5, 116731, Note_on_c, 9, 44, 0
5, 116839, Note_on_c, 9, 69, 0
5, 117600, Note_on_c, 9, 44, 47
5, 117677, Note_on_c, 9, 44, 0
5, 118560, Note_on_c, 9, 44, 47
5, 118560, Note_on_c, 9, 69, 36
5, 118633, Note_on_c, 9, 44, 0
5, 118768, Note_on_c, 9, 69, 0
5, 119520, Note_on_c, 9, 44, 47
5, 119600, Note_on_c, 9, 44, 0
5, 120480, Note_on_c, 9, 44, 47
5, 120480, Note_on_c, 9, 69, 36
5, 120576, Note_on_c, 9, 44, 0
5, 120674, Note_on_c, 9, 69, 0
5, 121440, Note_on_c, 9, 44, 47
5, 121535, Note_on_c, 9, 44, 0
5, 122160, Note_on_c, 9, 70, 25
5, 122310, Note_on_c, 9, 70, 0
5, 122400, Note_on_c, 9, 44, 47
5, 122400, Note_on_c, 9, 69, 31
5, 122485, Note_on_c, 9, 44, 0
5, 122633, Note_on_c, 9, 69, 0
5, 123360, Note_on_c, 9, 44, 47
5, 123490, Note_on_c, 9, 44, 0
5, 124320, Note_on_c, 9, 44, 47
5, 124320, Note_on_c, 9, 69, 41
5, 124443, Note_on_c, 9, 44, 0
5, 124543, Note_on_c, 9, 69, 0
5, 125280, Note_on_c, 9, 44, 47
5, 125370, Note_on_c, 9, 44, 0
5, 126120, Note_on_c, 9, 70, 19
5, 126213, Note_on_c, 9, 70, 0
5, 126240, Note_on_c, 9, 44, 47
5, 126240, Note_on_c, 9, 69, 31
5, 126326, Note_on_c, 9, 44, 0
5, 126460, Note_on_c, 9, 69, 0
5, 127200, Note_on_c, 9, 44, 47
5, 127301, Note_on_c, 9, 44, 0
5, 128160, Note_on_c, 9, 44, 47
5, 128160, Note_on_c, 9, 69, 38
5, 128313, Note_on_c, 9, 44, 0
5, 128405, Note_on_c, 9, 69, 0
5, 129120, Note_on_c, 9, 44, 47
5, 129187, Note_on_c, 9, 44, 0
5, 129360, Note_on_c, 9, 70, 22
5, 129441, Note_on_c, 9, 70, 0
5, 129600, Note_on_c, 9, 70, 31
5, 129728, Note_on_c, 9, 70, 0
5, 130080, Note_on_c, 9, 44, 47
5, 130080, Note_on_c, 9, 69, 34
5, 130125, Note_on_c, 9, 44, 0
5, 130275, Note_on_c, 9, 69, 0
5, 130464, Note_on_c, 9, 59, 30
5, 130497, Note_on_c, 9, 59, 0
5, 130570, Note_on_c, 9, 59, 37
5, 130999, Note_on_c, 9, 59, 0
5, 131040, Note_on_c, 9, 44, 47
5, 131151, Note_on_c, 9, 44, 0
5, 131431, Note_on_c, 9, 59, 29
5, 131464, Note_on_c, 9, 59, 0
5, 131531, Note_on_c, 9, 59, 45
5, 131735, Note_on_c, 9, 59, 0
5, 131789, Note_on_c, 9, 59, 49
5, 132000, Note_on_c, 9, 44, 47
5, 132000, Note_on_c, 9, 69, 38
5, 132091, Note_on_c, 9, 44, 0
5, 132237, Note_on_c, 9, 59, 0
5, 132258, Note_on_c, 9, 69, 0
5, 132485, Note_on_c, 9, 59, 46
5, 132960, Note_on_c, 9, 44, 47
5, 133037, Note_on_c, 9, 44, 0
5, 133301, Note_on_c, 9, 59, 0
5, 133461, Note_on_c, 9, 59, 36
5, 133800, Note_on_c, 9, 70, 21
5, 133910, Note_on_c, 9, 70, 0
5, 133920, Note_on_c, 9, 44, 47
5, 133920, Note_on_c, 9, 69, 34
5, 133993, Note_on_c, 9, 44, 0
5, 134158, Note_on_c, 9, 53, 39
5, 134161, Note_on_c, 9, 69, 0
5, 134206, Note_on_c, 9, 53, 0
5, 134285, Note_on_c, 9, 59, 0
5, 134293, Note_on_c, 9, 53, 22
5, 134379, Note_on_c, 9, 53, 0
5, 134422, Note_on_c, 9, 59, 79
5, 136123, Note_on_c, 9, 53, 41
5, 136167, Note_on_c, 9, 53, 0
5, 136193, Note_on_c, 9, 59, 0
5, 136383, Note_on_c, 9, 59, 48
5, 136434, Note_on_c, 9, 59, 0
5, 136619, Note_on_c, 9, 59, 44
5, 137585, Note_on_c, 9, 59, 0
5, 137847, Note_on_c, 9, 59, 49
5, 137894, Note_on_c, 9, 59, 0
5, 138074, Note_on_c, 9, 59, 37
5, 138147, Note_on_c, 9, 59, 0
5, 138316, Note_on_c, 9, 59, 43
5, 138375, Note_on_c, 9, 59, 0
5, 138532, Note_on_c, 9, 59, 42
5, 142346, Note_on_c, 9, 59, 0
5, 142557, Note_on_c, 9, 59, 66
5, 142773, Note_on_c, 9, 59, 0
5, 142773, End_track
6, 0, Start_track
6, 0, Note_on_c, 9, 40, 20
6, 480, Note_on_c, 9, 40, 0
6, 480, Note_on_c, 9, 40, 32
6, 960, Note_on_c, 9, 40, 0
6, 960, Note_on_c, 9, 40, 26
6, 1440, Note_on_c, 9, 40, 0
6, 1440, Note_on_c, 9, 40, 32
6, 1920, Note_on_c, 9, 40, 0
6, 1920, Note_on_c, 9, 40, 18
6, 2400, Note_on_c, 9, 40, 0
6, 2400, Note_on_c, 9, 40, 14
6, 2880, Note_on_c, 9, 40, 0
6, 2880, Note_on_c, 9, 40, 18
6, 3360, Note_on_c, 9, 40, 0
6, 3360, Note_on_c, 9, 40, 12
6, 3840, Note_on_c, 9, 40, 0
6, 3840, Note_on_c, 9, 40, 12
6, 4320, Note_on_c, 9, 40, 0
6, 4320, Note_on_c, 9, 40, 20
6, 4800, Note_on_c, 9, 40, 0
6, 4800, Note_on_c, 9, 40, 12
6, 5280, Note_on_c, 9, 40, 0
6, 5280, Note_on_c, 9, 40, 20
6, 5760, Note_on_c, 9, 40, 0
6, 5760, Note_on_c, 9, 40, 8
6, 6240, Note_on_c, 9, 40, 0
6, 6240, Note_on_c, 9, 40, 8
6, 6480, Note_on_c, 9, 40, 20
6, 6720, Note_on_c, 9, 40, 0
6, 6720, Note_on_c, 9, 40, 20
6, 7200, Note_on_c, 9, 40, 0
6, 7200, Note_on_c, 9, 40, 0
6, 7200, Note_on_c, 9, 40, 6
6, 7680, Note_on_c, 9, 40, 0
6, 7680, Note_on_c, 9, 40, 12
6, 8160, Note_on_c, 9, 40, 0
6, 8160, Note_on_c, 9, 40, 18
6, 8640, Note_on_c, 9, 40, 0
6, 8640, Note_on_c, 9, 40, 18
6, 9120, Note_on_c, 9, 40, 0
6, 9120, Note_on_c, 9, 40, 16
6, 9600, Note_on_c, 9, 40, 0
6, 9600, Note_on_c, 9, 40, 16
6, 10080, Note_on_c, 9, 40, 0
6, 10080, Note_on_c, 9, 40, 12
6, 10560, Note_on_c, 9, 40, 0
6, 10560, Note_on_c, 9, 40, 14
6, 11040, Note_on_c, 9, 40, 0
6, 11040, Note_on_c, 9, 40, 16
6, 11520, Note_on_c, 9, 40, 0
6, 11520, Note_on_c, 9, 40, 10
6, 12000, Note_on_c, 9, 40, 0
6, 12000, Note_on_c, 9, 40, 16
6, 12480, Note_on_c, 9, 40, 0
6, 12480, Note_on_c, 9, 40, 10
6, 12960, Note_on_c, 9, 40, 0
6, 12960, Note_on_c, 9, 40, 14
6, 13440, Note_on_c, 9, 40, 0
6, 13440, Note_on_c, 9, 40, 14
6, 13920, Note_on_c, 9, 40, 0
6, 13920, Note_on_c, 9, 40, 10
6, 14400, Note_on_c, 9, 40, 0
6, 14400, Note_on_c, 9, 40, 4
6, 14880, Note_on_c, 9, 40, 0
6, 14880, Note_on_c, 9, 40, 12
6, 15360, Note_on_c, 9, 40, 0
6, 15360, Note_on_c, 9, 40, 20
6, 15840, Note_on_c, 9, 40, 0
6, 15840, Note_on_c, 9, 40, 32
6, 16320, Note_on_c, 9, 40, 0
6, 16320, Note_on_c, 9, 40, 26
6, 16800, Note_on_c, 9, 40, 0
6, 16800, Note_on_c, 9, 40, 32
6, 17280, Note_on_c, 9, 40, 0
6, 17280, Note_on_c, 9, 40, 18
6, 17760, Note_on_c, 9, 40, 0
6, 17760, Note_on_c, 9, 40, 14
6, 18240, Note_on_c, 9, 40, 0
6, 18240, Note_on_c, 9, 40, 18
6, 18720, Note_on_c, 9, 40, 0
6, 18720, Note_on_c, 9, 40, 12
6, 19200, Note_on_c, 9, 40, 0
6, 19200, Note_on_c, 9, 40, 12
6, 19680, Note_on_c, 9, 40, 0
6, 19680, Note_on_c, 9, 40, 20
6, 20160, Note_on_c, 9, 40, 0
6, 20160, Note_on_c, 9, 40, 12
6, 20640, Note_on_c, 9, 40, 0
6, 20640, Note_on_c, 9, 40, 20
6, 21120, Note_on_c, 9, 40, 0
6, 21120, Note_on_c, 9, 40, 8
6, 21600, Note_on_c, 9, 40, 0
6, 21600, Note_on_c, 9, 40, 8
6, 21840, Note_on_c, 9, 40, 20
6, 22080, Note_on_c, 9, 40, 0
6, 22080, Note_on_c, 9, 40, 20
6, 22560, Note_on_c, 9, 40, 0
6, 22560, Note_on_c, 9, 40, 0
6, 22560, Note_on_c, 9, 40, 6
6, 23040, Note_on_c, 9, 40, 0
6, 23040, Note_on_c, 9, 40, 12
6, 23520, Note_on_c, 9, 40, 0
6, 23520, Note_on_c, 9, 40, 18
6, 24000, Note_on_c, 9, 40, 0
6, 24000, Note_on_c, 9, 40, 18
6, 24480, Note_on_c, 9, 40, 0
6, 24480, Note_on_c, 9, 40, 16
6, 24960, Note_on_c, 9, 40, 0
6, 24960, Note_on_c, 9, 40, 16
6, 25440, Note_on_c, 9, 40, 0
6, 25440, Note_on_c, 9, 40, 12
6, 25920, Note_on_c, 9, 40, 0
6, 25920, Note_on_c, 9, 40, 14
6, 26400, Note_on_c, 9, 40, 0
6, 26400, Note_on_c, 9, 40, 16
6, 26880, Note_on_c, 9, 40, 0
6, 26880, Note_on_c, 9, 40, 10
6, 27360, Note_on_c, 9, 40, 0
6, 27360, Note_on_c, 9, 40, 16
6, 27840, Note_on_c, 9, 40, 0
6, 27840, Note_on_c, 9, 40, 10
6, 28320, Note_on_c, 9, 40, 0
6, 28320, Note_on_c, 9, 40, 14
6, 28800, Note_on_c, 9, 40, 0
6, 28800, Note_on_c, 9, 40, 14
6, 29280, Note_on_c, 9, 40, 0
6, 29280, Note_on_c, 9, 40, 10
6, 29760, Note_on_c, 9, 40, 0
6, 29760, Note_on_c, 9, 40, 4
6, 30240, Note_on_c, 9, 40, 0
6, 30240, Note_on_c, 9, 40, 12
6, 30720, Note_on_c, 9, 40, 0
6, 30720, Note_on_c, 9, 40, 20
6, 31200, Note_on_c, 9, 40, 0
6, 31200, Note_on_c, 9, 40, 32
6, 31680, Note_on_c, 9, 40, 0
6, 31680, Note_on_c, 9, 40, 26
6, 32160, Note_on_c, 9, 40, 0
6, 32160, Note_on_c, 9, 40, 32
6, 32640, Note_on_c, 9, 40, 0
6, 32640, Note_on_c, 9, 40, 18
6, 33120, Note_on_c, 9, 40, 0
6, 33120, Note_on_c, 9, 40, 14
6, 33600, Note_on_c, 9, 40, 0
6, 33600, Note_on_c, 9, 40, 18
6, 34080, Note_on_c, 9, 40, 0
6, 34080, Note_on_c, 9, 40, 12
6, 34560, Note_on_c, 9, 40, 0
6, 34560, Note_on_c, 9, 40, 12
6, 35040, Note_on_c, 9, 40, 0
6, 35040, Note_on_c, 9, 40, 20
6, 35520, Note_on_c, 9, 40, 0
6, 35520, Note_on_c, 9, 40, 12
6, 36000, Note_on_c, 9, 40, 0
6, 36000, Note_on_c, 9, 40, 20
6, 36480, Note_on_c, 9, 40, 0
6, 36480, Note_on_c, 9, 40, 8
6, 36960, Note_on_c, 9, 40, 0
6, 36960, Note_on_c, 9, 40, 8
6, 37200, Note_on_c, 9, 40, 20
6, 37440, Note_on_c, 9, 40, 0
6, 37440, Note_on_c, 9, 40, 20
6, 37920, Note_on_c, 9, 40, 0
6, 37920, Note_on_c, 9, 40, 0
6, 37920, Note_on_c, 9, 40, 6
6, 38400, Note_on_c, 9, 40, 0
6, 38400, Note_on_c, 9, 40, 12
6, 38880, Note_on_c, 9, 40, 0
6, 38880, Note_on_c, 9, 40, 18
6, 39360, Note_on_c, 9, 40, 0
6, 39360, Note_on_c, 9, 40, 18
6, 39840, Note_on_c, 9, 40, 0
6, 39840, Note_on_c, 9, 40, 16
6, 40320, Note_on_c, 9, 40, 0
6, 40320, Note_on_c, 9, 40, 16
6, 40800, Note_on_c, 9, 40, 0
6, 40800, Note_on_c, 9, 40, 12
6, 41280, Note_on_c, 9, 40, 0
6, 41280, Note_on_c, 9, 40, 14
6, 41760, Note_on_c, 9, 40, 0
6, 41760, Note_on_c, 9, 40, 16
6, 42240, Note_on_c, 9, 40, 0
6, 42240, Note_on_c, 9, 40, 10
6, 42720, Note_on_c, 9, 40, 0
6, 42720, Note_on_c, 9, 40, 16
6, 43200, Note_on_c, 9, 40, 0
6, 43200, Note_on_c, 9, 40, 10
6, 43680, Note_on_c, 9, 40, 0
6, 43680, Note_on_c, 9, 40, 14
6, 44160, Note_on_c, 9, 40, 0
6, 44160, Note_on_c, 9, 40, 14
6, 44640, Note_on_c, 9, 40, 0
6, 44640, Note_on_c, 9, 40, 10
6, 45120, Note_on_c, 9, 40, 0
6, 45120, Note_on_c, 9, 40, 4
6, 45600, Note_on_c, 9, 40, 0
6, 45600, Note_on_c, 9, 40, 12
6, 46080, Note_on_c, 9, 40, 0
6, 46080, Note_on_c, 9, 40, 20
6, 46560, Note_on_c, 9, 40, 0
6, 46560, Note_on_c, 9, 40, 32
6, 47040, Note_on_c, 9, 40, 0
6, 47040, Note_on_c, 9, 40, 26
6, 47520, Note_on_c, 9, 40, 0
6, 47520, Note_on_c, 9, 40, 32
6, 48000, Note_on_c, 9, 40, 0
6, 48000, Note_on_c, 9, 40, 18
6, 48480, Note_on_c, 9, 40, 0
6, 48480, Note_on_c, 9, 40, 14
6, 48960, Note_on_c, 9, 40, 0
6, 48960, Note_on_c, 9, 40, 18
6, 49440, Note_on_c, 9, 40, 0
6, 49440, Note_on_c, 9, 40, 12
6, 49920, Note_on_c, 9, 40, 0
6, 49920, Note_on_c, 9, 40, 12
6, 50400, Note_on_c, 9, 40, 0
6, 50400, Note_on_c, 9, 40, 20
6, 50880, Note_on_c, 9, 40, 0
6, 50880, Note_on_c, 9, 40, 12
6, 51360, Note_on_c, 9, 40, 0
6, 51360, Note_on_c, 9, 40, 20
6, 51840, Note_on_c, 9, 40, 0
6, 51840, Note_on_c, 9, 40, 8
6, 52320, Note_on_c, 9, 40, 0
6, 52320, Note_on_c, 9, 40, 8
6, 52560, Note_on_c, 9, 40, 20
6, 52800, Note_on_c, 9, 40, 0
6, 52800, Note_on_c, 9, 40, 20
6, 53280, Note_on_c, 9, 40, 0
6, 53280, Note_on_c, 9, 40, 0
6, 53280, Note_on_c, 9, 40, 6
6, 53760, Note_on_c, 9, 40, 0
6, 53760, Note_on_c, 9, 40, 12
6, 54240, Note_on_c, 9, 40, 0
6, 54240, Note_on_c, 9, 40, 18
6, 54720, Note_on_c, 9, 40, 0
6, 54720, Note_on_c, 9, 40, 18
6, 55200, Note_on_c, 9, 40, 0
6, 55200, Note_on_c, 9, 40, 16
6, 55680, Note_on_c, 9, 40, 0
6, 55680, Note_on_c, 9, 40, 16
6, 56160, Note_on_c, 9, 40, 0
6, 56160, Note_on_c, 9, 40, 12
6, 56640, Note_on_c, 9, 40, 0
6, 56640, Note_on_c, 9, 40, 14
6, 57120, Note_on_c, 9, 40, 0
6, 57120, Note_on_c, 9, 40, 16
6, 57600, Note_on_c, 9, 40, 0
6, 57600, Note_on_c, 9, 40, 10
6, 58080, Note_on_c, 9, 40, 0
6, 58080, Note_on_c, 9, 40, 16
6, 58560, Note_on_c, 9, 40, 0
6, 58560, Note_on_c, 9, 40, 10
6, 59040, Note_on_c, 9, 40, 0
6, 59040, Note_on_c, 9, 40, 14
6, 59520, Note_on_c, 9, 40, 0
6, 59520, Note_on_c, 9, 40, 14
6, 60000, Note_on_c, 9, 40, 0
6, 60000, Note_on_c, 9, 40, 10
6, 60480, Note_on_c, 9, 40, 0
6, 60480, Note_on_c, 9, 40, 4
6, 60960, Note_on_c, 9, 40, 0
6, 60960, Note_on_c, 9, 40, 12
6, 61440, Note_on_c, 9, 40, 0
6, 61440, Note_on_c, 9, 40, 20
6, 61920, Note_on_c, 9, 40, 0
6, 61920, Note_on_c, 9, 40, 32
6, 62400, Note_on_c, 9, 40, 0
6, 62400, Note_on_c, 9, 40, 26
6, 62880, Note_on_c, 9, 40, 0
6, 62880, Note_on_c, 9, 40, 32
6, 63360, Note_on_c, 9, 40, 0
6, 63360, Note_on_c, 9, 40, 18
6, 63840, Note_on_c, 9, 40, 0
6, 63840, Note_on_c, 9, 40, 14
6, 64320, Note_on_c, 9, 40, 0
6, 64320, Note_on_c, 9, 40, 18
6, 64800, Note_on_c, 9, 40, 0
6, 64800, Note_on_c, 9, 40, 12
6, 65280, Note_on_c, 9, 40, 0
6, 65280, Note_on_c, 9, 40, 12
6, 65760, Note_on_c, 9, 40, 0
6, 65760, Note_on_c, 9, 40, 20
6, 66240, Note_on_c, 9, 40, 0
6, 66240, Note_on_c, 9, 40, 12
6, 66720, Note_on_c, 9, 40, 0
6, 66720, Note_on_c, 9, 40, 20
6, 67200, Note_on_c, 9, 40, 0
6, 67200, Note_on_c, 9, 40, 8
6, 67680, Note_on_c, 9, 40, 0
6, 67680, Note_on_c, 9, 40, 8
6, 67920, Note_on_c, 9, 40, 20
6, 68160, Note_on_c, 9, 40, 0
6, 68160, Note_on_c, 9, 40, 20
6, 68640, Note_on_c, 9, 40, 0
6, 68640, Note_on_c, 9, 40, 0
6, 68640, Note_on_c, 9, 40, 6
6, 69120, Note_on_c, 9, 40, 0
6, 69120, Note_on_c, 9, 40, 20
6, 69600, Note_on_c, 9, 40, 0
6, 69600, Note_on_c, 9, 40, 32
6, 70080, Note_on_c, 9, 40, 0
6, 70080, Note_on_c, 9, 40, 26
6, 70560, Note_on_c, 9, 40, 0
6, 70560, Note_on_c, 9, 40, 32
6, 71040, Note_on_c, 9, 40, 0
6, 71040, Note_on_c, 9, 40, 18
6, 71520, Note_on_c, 9, 40, 0
6, 71520, Note_on_c, 9, 40, 14
6, 72000, Note_on_c, 9, 40, 0
6, 72000, Note_on_c, 9, 40, 18
6, 72480, Note_on_c, 9, 40, 0
6, 72480, Note_on_c, 9, 40, 12
6, 72960, Note_on_c, 9, 40, 0
6, 72960, Note_on_c, 9, 40, 12
6, 73440, Note_on_c, 9, 40, 0
6, 73440, Note_on_c, 9, 40, 20
6, 73920, Note_on_c, 9, 40, 0
6, 73920, Note_on_c, 9, 40, 12
6, 74400, Note_on_c, 9, 40, 0
6, 74400, Note_on_c, 9, 40, 20
6, 74880, Note_on_c, 9, 40, 0
6, 74880, Note_on_c, 9, 40, 8
6, 75360, Note_on_c, 9, 40, 0
6, 75360, Note_on_c, 9, 40, 8
6, 75600, Note_on_c, 9, 40, 20
6, 75840, Note_on_c, 9, 40, 0
6, 75840, Note_on_c, 9, 40, 20
6, 76320, Note_on_c, 9, 40, 0
6, 76320, Note_on_c, 9, 40, 0
6, 76320, Note_on_c, 9, 40, 6
6, 76800, Note_on_c, 9, 40, 0
6, 76800, Note_on_c, 9, 40, 12
6, 77280, Note_on_c, 9, 40, 0
6, 77280, Note_on_c, 9, 40, 18
6, 77760, Note_on_c, 9, 40, 0
6, 77760, Note_on_c, 9, 40, 18
6, 78240, Note_on_c, 9, 40, 0
6, 78240, Note_on_c, 9, 40, 16
6, 78720, Note_on_c, 9, 40, 0
6, 78720, Note_on_c, 9, 40, 16
6, 79200, Note_on_c, 9, 40, 0
6, 79200, Note_on_c, 9, 40, 12
6, 79680, Note_on_c, 9, 40, 0
6, 79680, Note_on_c, 9, 40, 14
6, 80160, Note_on_c, 9, 40, 0
6, 80160, Note_on_c, 9, 40, 16
6, 80640, Note_on_c, 9, 40, 0
6, 80640, Note_on_c, 9, 40, 10
6, 81120, Note_on_c, 9, 40, 0
6, 81120, Note_on_c, 9, 40, 16
6, 81600, Note_on_c, 9, 40, 0
6, 81600, Note_on_c, 9, 40, 10
6, 82080, Note_on_c, 9, 40, 0
6, 82080, Note_on_c, 9, 40, 14
6, 82560, Note_on_c, 9, 40, 0
6, 82560, Note_on_c, 9, 40, 14
6, 83040, Note_on_c, 9, 40, 0
6, 83040, Note_on_c, 9, 40, 10
6, 83520, Note_on_c, 9, 40, 0
6, 83520, Note_on_c, 9, 40, 4
6, 84000, Note_on_c, 9, 40, 0
6, 84000, Note_on_c, 9, 40, 12
6, 84480, Note_on_c, 9, 40, 0
6, 84480, Note_on_c, 9, 40, 20
6, 84960, Note_on_c, 9, 40, 0
6, 84960, Note_on_c, 9, 40, 32
6, 85440, Note_on_c, 9, 40, 0
6, 85440, Note_on_c, 9, 40, 26
6, 85920, Note_on_c, 9, 40, 0
6, 85920, Note_on_c, 9, 40, 32
6, 86400, Note_on_c, 9, 40, 0
6, 86400, Note_on_c, 9, 40, 18
6, 86880, Note_on_c, 9, 40, 0
6, 86880, Note_on_c, 9, 40, 14
6, 87360, Note_on_c, 9, 40, 0
6, 87360, Note_on_c, 9, 40, 18
6, 87840, Note_on_c, 9, 40, 0
6, 87840, Note_on_c, 9, 40, 12
6, 88320, Note_on_c, 9, 40, 0
6, 88320, Note_on_c, 9, 40, 12
6, 88800, Note_on_c, 9, 40, 0
6, 88800, Note_on_c, 9, 40, 20
6, 89280, Note_on_c, 9, 40, 0
6, 89280, Note_on_c, 9, 40, 12
6, 89760, Note_on_c, 9, 40, 0
6, 89760, Note_on_c, 9, 40, 20
6, 90240, Note_on_c, 9, 40, 0
6, 90240, Note_on_c, 9, 40, 8
6, 90720, Note_on_c, 9, 40, 0
6, 90720, Note_on_c, 9, 40, 8
6, 90960, Note_on_c, 9, 40, 20
6, 91200, Note_on_c, 9, 40, 0
6, 91200, Note_on_c, 9, 40, 20
6, 91680, Note_on_c, 9, 40, 0
6, 91680, Note_on_c, 9, 40, 0
6, 91680, Note_on_c, 9, 40, 6
6, 92160, Note_on_c, 9, 40, 0
6, 92160, Note_on_c, 9, 40, 12
6, 92640, Note_on_c, 9, 40, 0
6, 92640, Note_on_c, 9, 40, 18
6, 93120, Note_on_c, 9, 40, 0
6, 93120, Note_on_c, 9, 40, 18
6, 93600, Note_on_c, 9, 40, 0
6, 93600, Note_on_c, 9, 40, 16
6, 94080, Note_on_c, 9, 40, 0
6, 94080, Note_on_c, 9, 40, 16
6, 94560, Note_on_c, 9, 40, 0
6, 94560, Note_on_c, 9, 40, 12
6, 95040, Note_on_c, 9, 40, 0
6, 95040, Note_on_c, 9, 40, 14
6, 95520, Note_on_c, 9, 40, 0
6, 95520, Note_on_c, 9, 40, 16
6, 96000, Note_on_c, 9, 40, 0
6, 96000, Note_on_c, 9, 40, 10
6, 96480, Note_on_c, 9, 40, 0
6, 96480, Note_on_c, 9, 40, 16
6, 96960, Note_on_c, 9, 40, 0
6, 96960, Note_on_c, 9, 40, 10
6, 97440, Note_on_c, 9, 40, 0
6, 97440, Note_on_c, 9, 40, 14
6, 97920, Note_on_c, 9, 40, 0
6, 97920, Note_on_c, 9, 40, 14
6, 98400, Note_on_c, 9, 40, 0
6, 98400, Note_on_c, 9, 40, 10
6, 98880, Note_on_c, 9, 40, 0
6, 98880, Note_on_c, 9, 40, 4
6, 99360, Note_on_c, 9, 40, 0
6, 99360, Note_on_c, 9, 40, 12
6, 99840, Note_on_c, 9, 40, 0
6, 99840, Note_on_c, 9, 40, 20
6, 100320, Note_on_c, 9, 40, 0
6, 100320, Note_on_c, 9, 40, 32
6, 100800, Note_on_c, 9, 40, 0
6, 100800, Note_on_c, 9, 40, 26
6, 101280, Note_on_c, 9, 40, 0
6, 101280, Note_on_c, 9, 40, 32
6, 101760, Note_on_c, 9, 40, 0
6, 101760, Note_on_c, 9, 40, 18
6, 102240, Note_on_c, 9, 40, 0
6, 102240, Note_on_c, 9, 40, 14
6, 102720, Note_on_c, 9, 40, 0
6, 102720, Note_on_c, 9, 40, 18
6, 103200, Note_on_c, 9, 40, 0
6, 103200, Note_on_c, 9, 40, 12
6, 103680, Note_on_c, 9, 40, 0
6, 103680, Note_on_c, 9, 40, 12
6, 104160, Note_on_c, 9, 40, 0
6, 104160, Note_on_c, 9, 40, 20
6, 104640, Note_on_c, 9, 40, 0
6, 104640, Note_on_c, 9, 40, 12
6, 105120, Note_on_c, 9, 40, 0
6, 105120, Note_on_c, 9, 40, 20
6, 105600, Note_on_c, 9, 40, 0
6, 105600, Note_on_c, 9, 40, 8
6, 106080, Note_on_c, 9, 40, 0
6, 106080, Note_on_c, 9, 40, 8
6, 106320, Note_on_c, 9, 40, 20
6, 106560, Note_on_c, 9, 40, 0
6, 106560, Note_on_c, 9, 40, 20
6, 107040, Note_on_c, 9, 40, 0
6, 107040, Note_on_c, 9, 40, 0
6, 107040, Note_on_c, 9, 40, 6
6, 107520, Note_on_c, 9, 40, 0
6, 107520, Note_on_c, 9, 40, 12
6, 108000, Note_on_c, 9, 40, 0
6, 108000, Note_on_c, 9, 40, 18
6, 108480, Note_on_c, 9, 40, 0
6, 108480, Note_on_c, 9, 40, 18
6, 108960, Note_on_c, 9, 40, 0
6, 108960, Note_on_c, 9, 40, 16
6, 109440, Note_on_c, 9, 40, 0
6, 109440, Note_on_c, 9, 40, 16
6, 109920, Note_on_c, 9, 40, 0
6, 109920, Note_on_c, 9, 40, 12
6, 110400, Note_on_c, 9, 40, 0
6, 110400, Note_on_c, 9, 40, 14
6, 110880, Note_on_c, 9, 40, 0
6, 110880, Note_on_c, 9, 40, 16
6, 111360, Note_on_c, 9, 40, 0
6, 111360, Note_on_c, 9, 40, 10
6, 111840, Note_on_c, 9, 40, 0
6, 111840, Note_on_c, 9, 40, 16
6, 112320, Note_on_c, 9, 40, 0
6, 112320, Note_on_c, 9, 40, 10
6, 112800, Note_on_c, 9, 40, 0
6, 112800, Note_on_c, 9, 40, 14
6, 113280, Note_on_c, 9, 40, 0
6, 113280, Note_on_c, 9, 40, 14
6, 113760, Note_on_c, 9, 40, 0
6, 113760, Note_on_c, 9, 40, 10
6, 114240, Note_on_c, 9, 40, 0
6, 114240, Note_on_c, 9, 40, 4
6, 114720, Note_on_c, 9, 40, 0
6, 114720, Note_on_c, 9, 40, 12
6, 115200, Note_on_c, 9, 40, 0
6, 115200, Note_on_c, 9, 40, 20
6, 115680, Note_on_c, 9, 40, 0
6, 115680, Note_on_c, 9, 40, 32
6, 116160, Note_on_c, 9, 40, 0
6, 116160, Note_on_c, 9, 40, 26
6, 116640, Note_on_c, 9, 40, 0
6, 116640, Note_on_c, 9, 40, 32
6, 117120, Note_on_c, 9, 40, 0
6, 117120, Note_on_c, 9, 40, 18
6, 117600, Note_on_c, 9, 40, 0
6, 117600, Note_on_c, 9, 40, 14
6, 118080, Note_on_c, 9, 40, 0
6, 118080, Note_on_c, 9, 40, 18
6, 118560, Note_on_c, 9, 40, 0
6, 118560, Note_on_c, 9, 40, 12
6, 119040, Note_on_c, 9, 40, 0
6, 119040, Note_on_c, 9, 40, 12
6, 119520, Note_on_c, 9, 40, 0
6, 119520, Note_on_c, 9, 40, 20
6, 120000, Note_on_c, 9, 40, 0
6, 120000, Note_on_c, 9, 40, 12
6, 120480, Note_on_c, 9, 40, 0
6, 120480, Note_on_c, 9, 40, 20
6, 120960, Note_on_c, 9, 40, 0
6, 120960, Note_on_c, 9, 40, 8
6, 121440, Note_on_c, 9, 40, 0
6, 121440, Note_on_c, 9, 40, 8
6, 121680, Note_on_c, 9, 40, 20
6, 121920, Note_on_c, 9, 40, 0
6, 121920, Note_on_c, 9, 40, 20
6, 122400, Note_on_c, 9, 40, 0
6, 122400, Note_on_c, 9, 40, 0
6, 122400, Note_on_c, 9, 40, 6
6, 122880, Note_on_c, 9, 40, 0
6, 122880, Note_on_c, 9, 40, 12
6, 123360, Note_on_c, 9, 40, 0
6, 123360, Note_on_c, 9, 40, 18
6, 123840, Note_on_c, 9, 40, 0
6, 123840, Note_on_c, 9, 40, 18
6, 124320, Note_on_c, 9, 40, 0
6, 124320, Note_on_c, 9, 40, 16
6, 124800, Note_on_c, 9, 40, 0
6, 124800, Note_on_c, 9, 40, 16
6, 125280, Note_on_c, 9, 40, 0
6, 125280, Note_on_c, 9, 40, 12
6, 125760, Note_on_c, 9, 40, 0
6, 125760, Note_on_c, 9, 40, 14
6, 126240, Note_on_c, 9, 40, 0
6, 126240, Note_on_c, 9, 40, 16
6, 126720, Note_on_c, 9, 40, 0
6, 126720, Note_on_c, 9, 40, 10
6, 127200, Note_on_c, 9, 40, 0
6, 127200, Note_on_c, 9, 40, 16
6, 127680, Note_on_c, 9, 40, 0
6, 127680, Note_on_c, 9, 40, 10
6, 128160, Note_on_c, 9, 40, 0
6, 128160, Note_on_c, 9, 40, 14
6, 128640, Note_on_c, 9, 40, 0
6, 128640, Note_on_c, 9, 40, 14
6, 129120, Note_on_c, 9, 40, 0
6, 129120, Note_on_c, 9, 40, 10
6, 129600, Note_on_c, 9, 40, 0
6, 129600, Note_on_c, 9, 40, 4
6, 130080, Note_on_c, 9, 40, 0
6, 130080, Note_on_c, 9, 40, 12
6, 130560, Note_on_c, 9, 40, 0
6, 130560, Note_on_c, 9, 40, 20
6, 131040, Note_on_c, 9, 40, 0
6, 131040, Note_on_c, 9, 40, 32
6, 131520, Note_on_c, 9, 40, 0
6, 131520, Note_on_c, 9, 40, 26
6, 132000, Note_on_c, 9, 40, 0
6, 132000, Note_on_c, 9, 40, 32
6, 132480, Note_on_c, 9, 40, 0
6, 132480, Note_on_c, 9, 40, 18
6, 132960, Note_on_c, 9, 40, 0
6, 132960, Note_on_c, 9, 40, 14
6, 133440, Note_on_c, 9, 40, 0
6, 133440, Note_on_c, 9, 40, 18
6, 133920, Note_on_c, 9, 40, 0
6, 133920, Note_on_c, 9, 40, 12
6, 134400, Note_on_c, 9, 40, 0
6, 134400, End_track
7, 0, Start_track
7, 0, Pitch_bend_c, 9, 8192
7, 0, Pitch_bend_c, 9, 8192
7, 40, Note_on_c, 9, 38, 40
7, 125, Note_on_c, 9, 38, 0
7, 261, Note_on_c, 9, 38, 43
7, 401, Note_on_c, 9, 38, 0
7, 497, Note_on_c, 9, 38, 36
7, 618, Note_on_c, 9, 38, 0
7, 745, Note_on_c, 9, 38, 43
7, 867, Note_on_c, 9, 38, 0
7, 886, Note_on_c, 9, 39, 50
7, 956, Note_on_c, 9, 39, 0
7, 984, Note_on_c, 9, 38, 40
7, 1158, Note_on_c, 9, 38, 0
7, 1217, Note_on_c, 9, 38, 50
7, 1380, Note_on_c, 9, 38, 0
7, 1453, Note_on_c, 9, 38, 43
7, 1626, Note_on_c, 9, 38, 0
7, 1700, Note_on_c, 9, 38, 39
7, 1835, Note_on_c, 9, 38, 0
7, 1928, Note_on_c, 9, 38, 28
7, 2022, Note_on_c, 9, 38, 0
7, 2148, Note_on_c, 9, 38, 76
7, 2250, Note_on_c, 9, 38, 0
7, 2380, Note_on_c, 9, 38, 37
7, 2537, Note_on_c, 9, 38, 0
7, 2647, Note_on_c, 9, 38, 44
7, 2731, Note_on_c, 9, 38, 0
7, 2897, Note_on_c, 9, 38, 38
7, 2948, Note_on_c, 9, 38, 0
7, 3147, Note_on_c, 9, 38, 61
7, 3231, Note_on_c, 9, 38, 0
7, 3388, Note_on_c, 9, 38, 26
7, 3490, Note_on_c, 9, 38, 0
7, 3626, Note_on_c, 9, 38, 39
7, 3693, Note_on_c, 9, 38, 0
7, 4074, Note_on_c, 9, 38, 43
7, 4129, Note_on_c, 9, 38, 0
7, 4325, Note_on_c, 9, 38, 28
7, 4433, Note_on_c, 9, 38, 0
7, 4570, Note_on_c, 9, 38, 31
7, 4643, Note_on_c, 9, 38, 0
7, 4705, Note_on_c, 9, 38, 32
7, 4744, Note_on_c, 9, 38, 0
7, 4796, Note_on_c, 9, 38, 38
7, 4972, Note_on_c, 9, 38, 0
7, 5048, Note_on_c, 9, 38, 32
7, 5177, Note_on_c, 9, 38, 0
7, 5287, Note_on_c, 9, 38, 40
7, 5424, Note_on_c, 9, 38, 0
7, 5433, Note_on_c, 9, 39, 47
7, 5494, Note_on_c, 9, 39, 0
7, 5531, Note_on_c, 9, 38, 30
7, 5685, Note_on_c, 9, 38, 0
7, 5750, Note_on_c, 9, 38, 33
7, 5922, Note_on_c, 9, 38, 0
7, 6003, Note_on_c, 9, 38, 37
7, 6145, Note_on_c, 9, 38, 0
7, 6253, Note_on_c, 9, 38, 28
7, 6425, Note_on_c, 9, 38, 0
7, 6491, Note_on_c, 9, 38, 32
7, 6624, Note_on_c, 9, 38, 0
7, 6637, Note_on_c, 9, 39, 43
7, 6699, Note_on_c, 9, 39, 0
7, 6845, Note_on_c, 9, 38, 1
7, 6886, Note_on_c, 9, 38, 0
7, 6976, Note_on_c, 9, 38, 37
7, 7127, Note_on_c, 9, 38, 0
7, 7218, Note_on_c, 9, 38, 34
7, 7356, Note_on_c, 9, 38, 0
7, 7366, Note_on_c, 9, 39, 35
7, 7422, Note_on_c, 9, 39, 0
7, 7689, Note_on_c, 9, 38, 40
7, 7827, Note_on_c, 9, 38, 0
7, 7945, Note_on_c, 9, 38, 30
7, 8028, Note_on_c, 9, 38, 0
7, 8171, Note_on_c, 9, 38, 38
7, 8228, Note_on_c, 9, 38, 0
7, 8408, Note_on_c, 9, 38, 30
7, 8490, Note_on_c, 9, 38, 0
7, 8627, Note_on_c, 9, 38, 32
7, 8718, Note_on_c, 9, 38, 0
7, 8871, Note_on_c, 9, 38, 30
7, 8954, Note_on_c, 9, 38, 0
7, 9344, Note_on_c, 9, 38, 66
7, 9432, Note_on_c, 9, 38, 0
7, 9579, Note_on_c, 9, 38, 38
7, 9638, Note_on_c, 9, 38, 0
7, 9833, Note_on_c, 9, 38, 33
7, 9904, Note_on_c, 9, 38, 0
7, 10075, Note_on_c, 9, 38, 30
7, 10136, Note_on_c, 9, 38, 0
7, 10320, Note_on_c, 9, 38, 69
7, 10416, Note_on_c, 9, 38, 0
7, 10570, Note_on_c, 9, 38, 33
7, 10604, Note_on_c, 9, 38, 0
7, 10822, Note_on_c, 9, 38, 34
7, 10947, Note_on_c, 9, 38, 0
7, 10957, Note_on_c, 9, 39, 44
7, 11014, Note_on_c, 9, 39, 0
7, 11057, Note_on_c, 9, 38, 28
7, 11209, Note_on_c, 9, 38, 0
7, 11297, Note_on_c, 9, 38, 36
7, 11425, Note_on_c, 9, 38, 0
7, 11529, Note_on_c, 9, 38, 36
7, 11670, Note_on_c, 9, 38, 0
7, 11687, Note_on_c, 9, 39, 38
7, 11740, Note_on_c, 9, 39, 0
7, 11785, Note_on_c, 9, 38, 21
7, 11932, Note_on_c, 9, 38, 0
7, 12013, Note_on_c, 9, 38, 40
7, 12154, Note_on_c, 9, 38, 0
7, 12253, Note_on_c, 9, 38, 38
7, 12350, Note_on_c, 9, 38, 0
7, 12502, Note_on_c, 9, 38, 26
7, 12589, Note_on_c, 9, 38, 0
7, 12732, Note_on_c, 9, 38, 48
7, 12854, Note_on_c, 9, 38, 0
7, 12968, Note_on_c, 9, 38, 43
7, 13022, Note_on_c, 9, 38, 0
7, 13198, Note_on_c, 9, 38, 40
7, 13287, Note_on_c, 9, 38, 0
7, 13434, Note_on_c, 9, 38, 36
7, 13523, Note_on_c, 9, 38, 0
7, 13681, Note_on_c, 9, 38, 32
7, 13760, Note_on_c, 9, 38, 0
7, 13935, Note_on_c, 9, 38, 36
7, 14020, Note_on_c, 9, 38, 0
7, 14157, Note_on_c, 9, 38, 38
7, 14201, Note_on_c, 9, 38, 0
7, 14397, Note_on_c, 9, 38, 37
7, 14454, Note_on_c, 9, 38, 0
7, 14639, Note_on_c, 9, 38, 33
7, 14737, Note_on_c, 9, 38, 0
7, 14882, Note_on_c, 9, 38, 38
7, 15006, Note_on_c, 9, 38, 0
7, 15033, Note_on_c, 9, 39, 37
7, 15095, Note_on_c, 9, 39, 0
7, 15149, Note_on_c, 9, 38, 34
7, 15178, Note_on_c, 9, 38, 0
7, 15272, Note_on_c, 9, 39, 45
7, 15353, Note_on_c, 9, 39, 0
7, 15392, Note_on_c, 9, 38, 30
7, 15536, Note_on_c, 9, 38, 0
7, 15605, Note_on_c, 9, 38, 44
7, 15687, Note_on_c, 9, 38, 0
7, 15851, Note_on_c, 9, 38, 36
7, 15959, Note_on_c, 9, 38, 0
7, 16077, Note_on_c, 9, 38, 36
7, 16149, Note_on_c, 9, 38, 0
7, 16307, Note_on_c, 9, 38, 32
7, 16375, Note_on_c, 9, 38, 0
7, 16548, Note_on_c, 9, 38, 39
7, 16596, Note_on_c, 9, 38, 0
7, 16795, Note_on_c, 9, 38, 36
7, 16872, Note_on_c, 9, 38, 0
7, 17031, Note_on_c, 9, 38, 36
7, 17076, Note_on_c, 9, 38, 0
7, 17249, Note_on_c, 9, 38, 40
7, 17375, Note_on_c, 9, 38, 0
7, 17517, Note_on_c, 9, 38, 40
7, 17567, Note_on_c, 9, 38, 0
7, 17760, Note_on_c, 9, 38, 40
7, 17802, Note_on_c, 9, 38, 0
7, 17909, Note_on_c, 9, 38, 30
7, 17941, Note_on_c, 9, 38, 0
7, 18007, Note_on_c, 9, 38, 60
7, 18177, Note_on_c, 9, 38, 0
7, 18244, Note_on_c, 9, 38, 45
7, 18381, Note_on_c, 9, 38, 0
7, 18495, Note_on_c, 9, 38, 43
7, 18601, Note_on_c, 9, 38, 0
7, 18630, Note_on_c, 9, 39, 37
7, 18695, Note_on_c, 9, 39, 0
7, 18730, Note_on_c, 9, 38, 44
7, 18819, Note_on_c, 9, 38, 0
7, 18875, Note_on_c, 9, 38, 43
7, 18907, Note_on_c, 9, 38, 0
7, 18960, Note_on_c, 9, 38, 34
7, 19086, Note_on_c, 9, 38, 0
7, 19105, Note_on_c, 9, 39, 44
7, 19176, Note_on_c, 9, 39, 0
7, 19214, Note_on_c, 9, 38, 46
7, 19264, Note_on_c, 9, 38, 0
7, 19358, Note_on_c, 9, 38, 44
7, 19386, Note_on_c, 9, 38, 0
7, 19465, Note_on_c, 9, 38, 51
7, 19524, Note_on_c, 9, 38, 0
7, 19694, Note_on_c, 9, 38, 46
7, 19825, Note_on_c, 9, 38, 0
7, 19925, Note_on_c, 9, 38, 37
7, 20005, Note_on_c, 9, 38, 0
7, 20155, Note_on_c, 9, 38, 40
7, 20255, Note_on_c, 9, 38, 0
7, 20412, Note_on_c, 9, 38, 40
7, 20472, Note_on_c, 9, 38, 0
7, 20655, Note_on_c, 9, 38, 43
7, 20773, Note_on_c, 9, 38, 0
7, 20798, Note_on_c, 9, 39, 46
7, 20862, Note_on_c, 9, 39, 0
7, 21125, Note_on_c, 9, 38, 40
7, 21256, Note_on_c, 9, 38, 0
7, 21368, Note_on_c, 9, 38, 40
7, 21475, Note_on_c, 9, 38, 0
7, 21610, Note_on_c, 9, 38, 42
7, 21717, Note_on_c, 9, 38, 0
7, 21853, Note_on_c, 9, 38, 43
7, 21911, Note_on_c, 9, 38, 0
7, 22083, Note_on_c, 9, 38, 48
7, 22233, Note_on_c, 9, 38, 0
7, 22331, Note_on_c, 9, 38, 33
7, 22426, Note_on_c, 9, 38, 0
7, 22567, Note_on_c, 9, 38, 39
7, 22665, Note_on_c, 9, 38, 0
7, 22796, Note_on_c, 9, 38, 43
7, 22849, Note_on_c, 9, 38, 0
7, 23028, Note_on_c, 9, 38, 66
7, 23092, Note_on_c, 9, 38, 0
7, 23290, Note_on_c, 9, 38, 37
7, 23373, Note_on_c, 9, 38, 0
7, 23525, Note_on_c, 9, 38, 38
7, 23610, Note_on_c, 9, 38, 0
7, 23769, Note_on_c, 9, 38, 30
7, 23817, Note_on_c, 9, 38, 0
7, 23894, Note_on_c, 9, 38, 37
7, 23920, Note_on_c, 9, 38, 0
7, 23973, Note_on_c, 9, 38, 45
7, 24036, Note_on_c, 9, 38, 0
7, 24239, Note_on_c, 9, 38, 45
7, 24303, Note_on_c, 9, 38, 0
7, 24474, Note_on_c, 9, 38, 38
7, 24529, Note_on_c, 9, 38, 0
7, 24630, Note_on_c, 9, 38, 45
7, 24654, Note_on_c, 9, 38, 0
7, 24706, Note_on_c, 9, 38, 43
7, 24840, Note_on_c, 9, 38, 0
7, 24938, Note_on_c, 9, 38, 46
7, 25029, Note_on_c, 9, 38, 0
7, 25193, Note_on_c, 9, 38, 56
7, 25323, Note_on_c, 9, 38, 0
7, 25344, Note_on_c, 9, 39, 45
7, 25404, Note_on_c, 9, 39, 0
7, 25584, Note_on_c, 9, 39, 44
7, 25651, Note_on_c, 9, 39, 0
7, 25692, Note_on_c, 9, 38, 22
7, 25723, Note_on_c, 9, 38, 0
7, 25945, Note_on_c, 9, 38, 50
7, 26088, Note_on_c, 9, 38, 0
7, 26180, Note_on_c, 9, 38, 36
7, 26233, Note_on_c, 9, 38, 0
7, 26427, Note_on_c, 9, 38, 13
7, 26485, Note_on_c, 9, 38, 0
7, 26643, Note_on_c, 9, 38, 66
7, 26701, Note_on_c, 9, 38, 0
7, 26895, Note_on_c, 9, 38, 21
7, 26965, Note_on_c, 9, 38, 0
7, 27126, Note_on_c, 9, 38, 38
7, 27207, Note_on_c, 9, 38, 0
7, 27382, Note_on_c, 9, 38, 32
7, 27426, Note_on_c, 9, 38, 0
7, 27631, Note_on_c, 9, 38, 37
7, 27676, Note_on_c, 9, 38, 0
7, 27863, Note_on_c, 9, 38, 39
7, 27914, Note_on_c, 9, 38, 0
7, 28097, Note_on_c, 9, 38, 42
7, 28150, Note_on_c, 9, 38, 0
7, 28331, Note_on_c, 9, 38, 33
7, 28430, Note_on_c, 9, 38, 0
7, 28476, Note_on_c, 9, 39, 40
7, 28536, Note_on_c, 9, 39, 0
7, 28797, Note_on_c, 9, 38, 40
7, 28959, Note_on_c, 9, 38, 0
7, 29046, Note_on_c, 9, 38, 33
7, 29112, Note_on_c, 9, 38, 0
7, 29200, Note_on_c, 9, 38, 31
7, 29234, Note_on_c, 9, 38, 0
7, 29293, Note_on_c, 9, 39, 39
7, 29472, Note_on_c, 9, 39, 0
7, 29771, Note_on_c, 9, 38, 56
7, 29936, Note_on_c, 9, 38, 0
7, 30016, Note_on_c, 9, 38, 26
7, 30054, Note_on_c, 9, 38, 0
7, 30159, Note_on_c, 9, 38, 24
7, 30189, Note_on_c, 9, 38, 0
7, 30257, Note_on_c, 9, 38, 46
7, 30436, Note_on_c, 9, 38, 0
7, 30513, Note_on_c, 9, 38, 37
7, 30611, Note_on_c, 9, 38, 0
7, 30748, Note_on_c, 9, 38, 38
7, 30828, Note_on_c, 9, 38, 0
7, 30985, Note_on_c, 9, 38, 43
7, 31040, Note_on_c, 9, 38, 0
7, 31219, Note_on_c, 9, 38, 33
7, 31367, Note_on_c, 9, 38, 0
7, 31428, Note_on_c, 9, 39, 25
7, 31507, Note_on_c, 9, 39, 0
7, 31611, Note_on_c, 9, 38, 21
7, 31643, Note_on_c, 9, 38, 0
7, 31692, Note_on_c, 9, 38, 39
7, 31854, Note_on_c, 9, 38, 0
7, 31918, Note_on_c, 9, 38, 39
7, 32065, Note_on_c, 9, 38, 0
7, 32160, Note_on_c, 9, 38, 40
7, 32295, Note_on_c, 9, 38, 0
7, 32306, Note_on_c, 9, 39, 38
7, 32366, Note_on_c, 9, 39, 0
7, 32421, Note_on_c, 9, 38, 32
7, 32554, Note_on_c, 9, 38, 0
7, 32641, Note_on_c, 9, 38, 43
7, 32801, Note_on_c, 9, 38, 0
7, 32895, Note_on_c, 9, 38, 37
7, 33010, Note_on_c, 9, 38, 0
7, 33142, Note_on_c, 9, 38, 38
7, 33236, Note_on_c, 9, 38, 0
7, 33376, Note_on_c, 9, 38, 40
7, 33490, Note_on_c, 9, 38, 0
7, 33609, Note_on_c, 9, 38, 36
7, 33667, Note_on_c, 9, 38, 0
7, 33859, Note_on_c, 9, 38, 33
7, 33898, Note_on_c, 9, 38, 0
7, 33996, Note_on_c, 9, 38, 43
7, 34022, Note_on_c, 9, 38, 0
7, 34080, Note_on_c, 9, 38, 42
7, 34217, Note_on_c, 9, 38, 0
7, 34329, Note_on_c, 9, 38, 40
7, 34378, Note_on_c, 9, 38, 0
7, 34484, Note_on_c, 9, 38, 32
7, 34510, Note_on_c, 9, 38, 0
7, 34566, Note_on_c, 9, 38, 34
7, 34695, Note_on_c, 9, 38, 0
7, 34724, Note_on_c, 9, 39, 37
7, 34783, Note_on_c, 9, 39, 0
7, 34813, Note_on_c, 9, 38, 30
7, 34950, Note_on_c, 9, 38, 0
7, 35052, Note_on_c, 9, 38, 36
7, 35170, Note_on_c, 9, 38, 0
7, 35284, Note_on_c, 9, 38, 38
7, 35353, Note_on_c, 9, 38, 0
7, 35518, Note_on_c, 9, 38, 42
7, 35650, Note_on_c, 9, 38, 0
7, 35676, Note_on_c, 9, 39, 34
7, 35729, Note_on_c, 9, 39, 0
7, 36003, Note_on_c, 9, 38, 33
7, 36113, Note_on_c, 9, 38, 0
7, 36248, Note_on_c, 9, 38, 40
7, 36297, Note_on_c, 9, 38, 0
7, 36480, Note_on_c, 9, 38, 30
7, 36613, Note_on_c, 9, 38, 0
7, 36632, Note_on_c, 9, 39, 38
7, 36693, Note_on_c, 9, 39, 0
7, 36725, Note_on_c, 9, 38, 43
7, 36788, Note_on_c, 9, 38, 0
7, 36950, Note_on_c, 9, 38, 38
7, 37064, Note_on_c, 9, 38, 0
7, 37189, Note_on_c, 9, 38, 44
7, 37243, Note_on_c, 9, 38, 0
7, 37416, Note_on_c, 9, 38, 28
7, 37485, Note_on_c, 9, 38, 0
7, 37664, Note_on_c, 9, 38, 55
7, 37757, Note_on_c, 9, 38, 0
7, 37908, Note_on_c, 9, 38, 24
7, 38014, Note_on_c, 9, 38, 0
7, 38145, Note_on_c, 9, 38, 38
7, 38201, Note_on_c, 9, 38, 0
7, 38381, Note_on_c, 9, 38, 40
7, 38523, Note_on_c, 9, 38, 0
7, 38640, Note_on_c, 9, 38, 38
7, 38687, Note_on_c, 9, 38, 0
7, 38870, Note_on_c, 9, 38, 46
7, 39010, Note_on_c, 9, 38, 0
7, 39125, Note_on_c, 9, 38, 56
7, 39170, Note_on_c, 9, 38, 0
7, 39344, Note_on_c, 9, 38, 32
7, 39468, Note_on_c, 9, 38, 0
7, 39597, Note_on_c, 9, 38, 34
7, 39671, Note_on_c, 9, 38, 0
7, 39818, Note_on_c, 9, 38, 36
7, 39969, Note_on_c, 9, 38, 0
7, 39995, Note_on_c, 9, 39, 33
7, 40050, Note_on_c, 9, 39, 0
7, 40086, Note_on_c, 9, 38, 28
7, 40233, Note_on_c, 9, 38, 0
7, 40322, Note_on_c, 9, 38, 43
7, 40458, Note_on_c, 9, 38, 0
7, 40572, Note_on_c, 9, 38, 33
7, 40673, Note_on_c, 9, 38, 0
7, 40807, Note_on_c, 9, 38, 36
7, 40853, Note_on_c, 9, 38, 0
7, 41052, Note_on_c, 9, 38, 39
7, 41176, Note_on_c, 9, 38, 0
7, 41202, Note_on_c, 9, 39, 35
7, 41266, Note_on_c, 9, 39, 0
7, 41302, Note_on_c, 9, 38, 33
7, 41467, Note_on_c, 9, 38, 0
7, 41540, Note_on_c, 9, 38, 40
7, 41673, Note_on_c, 9, 38, 0
7, 41779, Note_on_c, 9, 38, 37
7, 41882, Note_on_c, 9, 38, 0
7, 42013, Note_on_c, 9, 38, 32
7, 42062, Note_on_c, 9, 38, 0
7, 42249, Note_on_c, 9, 38, 48
7, 42297, Note_on_c, 9, 38, 0
7, 42503, Note_on_c, 9, 38, 26
7, 42556, Note_on_c, 9, 38, 0
7, 42733, Note_on_c, 9, 38, 37
7, 42808, Note_on_c, 9, 38, 0
7, 42966, Note_on_c, 9, 38, 61
7, 43056, Note_on_c, 9, 38, 0
7, 43193, Note_on_c, 9, 38, 26
7, 43289, Note_on_c, 9, 38, 0
7, 43437, Note_on_c, 9, 38, 40
7, 43516, Note_on_c, 9, 38, 0
7, 43612, Note_on_c, 9, 38, 39
7, 43636, Note_on_c, 9, 38, 0
7, 43681, Note_on_c, 9, 38, 56
7, 43853, Note_on_c, 9, 38, 0
7, 43918, Note_on_c, 9, 38, 40
7, 44006, Note_on_c, 9, 38, 0
7, 44147, Note_on_c, 9, 38, 43
7, 44332, Note_on_c, 9, 38, 0
7, 44401, Note_on_c, 9, 38, 40
7, 44569, Note_on_c, 9, 38, 0
7, 44652, Note_on_c, 9, 38, 40
7, 44798, Note_on_c, 9, 38, 0
7, 44820, Note_on_c, 9, 39, 35
7, 44890, Note_on_c, 9, 39, 0
7, 44923, Note_on_c, 9, 38, 34
7, 44990, Note_on_c, 9, 38, 0
7, 45051, Note_on_c, 9, 38, 42
7, 45097, Note_on_c, 9, 38, 0
7, 45152, Note_on_c, 9, 38, 45
7, 45309, Note_on_c, 9, 38, 0
7, 45382, Note_on_c, 9, 38, 43
7, 45432, Note_on_c, 9, 38, 0
7, 45512, Note_on_c, 9, 38, 44
7, 45558, Note_on_c, 9, 38, 0
7, 45629, Note_on_c, 9, 38, 40
7, 45705, Note_on_c, 9, 38, 0
7, 45751, Note_on_c, 9, 39, 32
7, 45827, Note_on_c, 9, 39, 0
7, 45860, Note_on_c, 9, 38, 34
7, 45944, Note_on_c, 9, 38, 0
7, 45980, Note_on_c, 9, 39, 38
7, 46062, Note_on_c, 9, 39, 0
7, 46114, Note_on_c, 9, 38, 28
7, 46182, Note_on_c, 9, 38, 0
7, 46238, Note_on_c, 9, 38, 40
7, 46292, Note_on_c, 9, 38, 0
7, 46359, Note_on_c, 9, 38, 45
7, 46498, Note_on_c, 9, 38, 0
7, 46586, Note_on_c, 9, 38, 33
7, 46700, Note_on_c, 9, 38, 0
7, 46828, Note_on_c, 9, 38, 31
7, 46882, Note_on_c, 9, 38, 0
7, 47064, Note_on_c, 9, 38, 31
7, 47166, Note_on_c, 9, 38, 0
7, 47306, Note_on_c, 9, 38, 43
7, 47426, Note_on_c, 9, 38, 0
7, 47543, Note_on_c, 9, 38, 40
7, 47660, Note_on_c, 9, 38, 0
7, 47684, Note_on_c, 9, 39, 38
7, 47760, Note_on_c, 9, 39, 0
7, 47809, Note_on_c, 9, 38, 26
7, 47860, Note_on_c, 9, 38, 0
7, 47919, Note_on_c, 9, 38, 44
7, 47978, Note_on_c, 9, 38, 0
7, 48043, Note_on_c, 9, 38, 49
7, 48194, Note_on_c, 9, 38, 0
7, 48277, Note_on_c, 9, 38, 43
7, 48386, Note_on_c, 9, 38, 0
7, 48510, Note_on_c, 9, 38, 43
7, 48609, Note_on_c, 9, 38, 0
7, 48741, Note_on_c, 9, 38, 39
7, 48844, Note_on_c, 9, 38, 0
7, 48963, Note_on_c, 9, 38, 39
7, 49123, Note_on_c, 9, 38, 0
7, 49203, Note_on_c, 9, 38, 40
7, 49332, Note_on_c, 9, 38, 0
7, 49440, Note_on_c, 9, 38, 37
7, 49596, Note_on_c, 9, 38, 0
7, 49684, Note_on_c, 9, 38, 39
7, 49826, Note_on_c, 9, 38, 0
7, 49930, Note_on_c, 9, 38, 26
7, 50050, Note_on_c, 9, 38, 0
7, 50172, Note_on_c, 9, 38, 40
7, 50299, Note_on_c, 9, 38, 0
7, 50306, Note_on_c, 9, 39, 37
7, 50368, Note_on_c, 9, 39, 0
7, 50428, Note_on_c, 9, 38, 34
7, 50504, Note_on_c, 9, 38, 0
7, 50556, Note_on_c, 9, 38, 48
7, 50616, Note_on_c, 9, 38, 0
7, 50679, Note_on_c, 9, 38, 46
7, 50813, Note_on_c, 9, 38, 0
7, 50905, Note_on_c, 9, 38, 36
7, 51037, Note_on_c, 9, 38, 0
7, 51136, Note_on_c, 9, 38, 37
7, 51239, Note_on_c, 9, 38, 0
7, 51361, Note_on_c, 9, 38, 39
7, 51504, Note_on_c, 9, 38, 0
7, 51513, Note_on_c, 9, 39, 43
7, 51586, Note_on_c, 9, 39, 0
7, 51747, Note_on_c, 9, 39, 43
7, 51837, Note_on_c, 9, 39, 0
7, 51866, Note_on_c, 9, 38, 50
7, 51897, Note_on_c, 9, 38, 0
7, 52148, Note_on_c, 9, 38, 32
7, 52183, Note_on_c, 9, 38, 0
7, 52347, Note_on_c, 9, 38, 48
7, 52419, Note_on_c, 9, 38, 0
7, 52569, Note_on_c, 9, 38, 37
7, 52623, Note_on_c, 9, 38, 0
7, 52799, Note_on_c, 9, 38, 37
7, 52857, Note_on_c, 9, 38, 0
7, 53028, Note_on_c, 9, 38, 54
7, 53097, Note_on_c, 9, 38, 0
7, 53272, Note_on_c, 9, 38, 40
7, 53319, Note_on_c, 9, 38, 0
7, 53513, Note_on_c, 9, 38, 39
7, 53568, Note_on_c, 9, 38, 0
7, 53666, Note_on_c, 9, 38, 33
7, 53690, Note_on_c, 9, 38, 0
7, 53742, Note_on_c, 9, 38, 44
7, 53923, Note_on_c, 9, 38, 0
7, 54000, Note_on_c, 9, 38, 36
7, 54098, Note_on_c, 9, 38, 0
7, 54244, Note_on_c, 9, 38, 36
7, 54414, Note_on_c, 9, 38, 0
7, 54499, Note_on_c, 9, 38, 39
7, 54549, Note_on_c, 9, 38, 0
7, 54714, Note_on_c, 9, 38, 34
7, 54819, Note_on_c, 9, 38, 0
7, 54965, Note_on_c, 9, 38, 34
7, 55018, Note_on_c, 9, 38, 0
7, 55180, Note_on_c, 9, 38, 28
7, 55323, Note_on_c, 9, 38, 0
7, 55341, Note_on_c, 9, 39, 42
7, 55411, Note_on_c, 9, 39, 0
7, 55453, Note_on_c, 9, 38, 26
7, 55564, Note_on_c, 9, 38, 0
7, 55672, Note_on_c, 9, 38, 49
7, 55851, Note_on_c, 9, 38, 0
7, 55923, Note_on_c, 9, 38, 45
7, 56065, Note_on_c, 9, 38, 0
7, 56172, Note_on_c, 9, 38, 38
7, 56310, Note_on_c, 9, 38, 0
7, 56405, Note_on_c, 9, 38, 34
7, 56531, Note_on_c, 9, 38, 0
7, 56546, Note_on_c, 9, 39, 46
7, 56613, Note_on_c, 9, 39, 0
7, 56656, Note_on_c, 9, 38, 31
7, 56803, Note_on_c, 9, 38, 0
7, 56886, Note_on_c, 9, 38, 42
7, 57036, Note_on_c, 9, 38, 0
7, 57129, Note_on_c, 9, 38, 39
7, 57263, Note_on_c, 9, 38, 0
7, 57365, Note_on_c, 9, 38, 40
7, 57467, Note_on_c, 9, 38, 0
7, 57598, Note_on_c, 9, 38, 32
7, 57708, Note_on_c, 9, 38, 0
7, 57841, Note_on_c, 9, 38, 44
7, 57999, Note_on_c, 9, 38, 0
7, 58096, Note_on_c, 9, 38, 30
7, 58205, Note_on_c, 9, 38, 0
7, 58342, Note_on_c, 9, 38, 40
7, 58489, Note_on_c, 9, 38, 0
7, 58502, Note_on_c, 9, 39, 35
7, 58563, Note_on_c, 9, 39, 0
7, 58589, Note_on_c, 9, 38, 38
7, 58745, Note_on_c, 9, 38, 0
7, 58808, Note_on_c, 9, 38, 43
7, 58968, Note_on_c, 9, 38, 0
7, 59047, Note_on_c, 9, 38, 37
7, 59168, Note_on_c, 9, 38, 0
7, 59186, Note_on_c, 9, 39, 39
7, 59259, Note_on_c, 9, 39, 0
7, 59290, Note_on_c, 9, 38, 33
7, 59406, Note_on_c, 9, 38, 0
7, 59510, Note_on_c, 9, 38, 50
7, 59653, Note_on_c, 9, 38, 0
7, 59749, Note_on_c, 9, 38, 42
7, 59822, Note_on_c, 9, 38, 0
7, 59997, Note_on_c, 9, 38, 37
7, 60118, Note_on_c, 9, 38, 0
7, 60247, Note_on_c, 9, 38, 43
7, 60373, Note_on_c, 9, 38, 0
7, 60482, Note_on_c, 9, 38, 49
7, 60610, Note_on_c, 9, 38, 0
7, 60715, Note_on_c, 9, 38, 43
7, 60869, Note_on_c, 9, 38, 0
7, 60960, Note_on_c, 9, 38, 45
7, 61100, Note_on_c, 9, 38, 0
7, 61197, Note_on_c, 9, 38, 45
7, 61333, Note_on_c, 9, 38, 0
7, 61435, Note_on_c, 9, 38, 38
7, 61599, Note_on_c, 9, 38, 0
7, 61707, Note_on_c, 9, 38, 43
7, 61842, Note_on_c, 9, 38, 0
7, 61954, Note_on_c, 9, 38, 28
7, 62070, Note_on_c, 9, 38, 0
7, 62180, Note_on_c, 9, 38, 43
7, 62286, Note_on_c, 9, 38, 0
7, 62414, Note_on_c, 9, 38, 30
7, 62519, Note_on_c, 9, 38, 0
7, 62660, Note_on_c, 9, 38, 69
7, 62789, Note_on_c, 9, 38, 0
7, 62902, Note_on_c, 9, 38, 33
7, 63033, Note_on_c, 9, 38, 0
7, 63138, Note_on_c, 9, 38, 33
7, 63226, Note_on_c, 9, 38, 0
7, 63272, Note_on_c, 9, 38, 54
7, 63330, Note_on_c, 9, 38, 0
7, 63396, Note_on_c, 9, 38, 55
7, 63563, Note_on_c, 9, 38, 0
7, 63621, Note_on_c, 9, 38, 39
7, 63680, Note_on_c, 9, 38, 0
7, 63741, Note_on_c, 9, 38, 43
7, 63813, Note_on_c, 9, 38, 0
7, 63871, Note_on_c, 9, 38, 40
7, 63933, Note_on_c, 9, 38, 0
7, 63984, Note_on_c, 9, 38, 52
7, 64038, Note_on_c, 9, 38, 0
7, 64094, Note_on_c, 9, 38, 49
7, 64205, Note_on_c, 9, 38, 0
7, 64213, Note_on_c, 9, 39, 48
7, 64294, Note_on_c, 9, 39, 0
7, 64330, Note_on_c, 9, 38, 37
7, 64404, Note_on_c, 9, 38, 0
7, 64457, Note_on_c, 9, 38, 46
7, 64522, Note_on_c, 9, 38, 0
7, 64580, Note_on_c, 9, 38, 43
7, 64697, Note_on_c, 9, 38, 0
7, 64705, Note_on_c, 9, 39, 54
7, 64790, Note_on_c, 9, 39, 0
7, 64856, Note_on_c, 9, 38, 9
7, 64903, Note_on_c, 9, 38, 0
7, 64950, Note_on_c, 9, 38, 48
7, 65019, Note_on_c, 9, 38, 0
7, 65075, Note_on_c, 9, 38, 40
7, 65134, Note_on_c, 9, 38, 0
7, 65292, Note_on_c, 9, 38, 40
7, 65429, Note_on_c, 9, 38, 0
7, 65529, Note_on_c, 9, 38, 42
7, 65689, Note_on_c, 9, 38, 0
7, 65767, Note_on_c, 9, 38, 39
7, 65907, Note_on_c, 9, 38, 0
7, 65909, Note_on_c, 9, 39, 36
7, 66000, Note_on_c, 9, 39, 0
7, 66065, Note_on_c, 9, 38, 8
7, 66143, Note_on_c, 9, 38, 0
7, 66235, Note_on_c, 9, 38, 49
7, 66341, Note_on_c, 9, 38, 0
7, 66457, Note_on_c, 9, 38, 37
7, 66579, Note_on_c, 9, 38, 0
7, 66704, Note_on_c, 9, 38, 33
7, 66831, Note_on_c, 9, 38, 0
7, 66862, Note_on_c, 9, 39, 38
7, 66939, Note_on_c, 9, 39, 0
7, 67098, Note_on_c, 9, 39, 48
7, 67177, Note_on_c, 9, 39, 0
7, 67340, Note_on_c, 9, 38, 50
7, 67392, Note_on_c, 9, 38, 0
7, 67445, Note_on_c, 9, 38, 40
7, 67581, Note_on_c, 9, 38, 0
7, 67673, Note_on_c, 9, 38, 39
7, 67832, Note_on_c, 9, 38, 0
7, 67916, Note_on_c, 9, 38, 37
7, 67982, Note_on_c, 9, 38, 0
7, 68052, Note_on_c, 9, 38, 39
7, 68109, Note_on_c, 9, 38, 0
7, 68165, Note_on_c, 9, 38, 46
7, 68353, Note_on_c, 9, 38, 0
7, 68423, Note_on_c, 9, 38, 42
7, 68498, Note_on_c, 9, 38, 0
7, 68559, Note_on_c, 9, 38, 43
7, 68597, Note_on_c, 9, 38, 0
7, 68651, Note_on_c, 9, 38, 40
7, 68766, Note_on_c, 9, 38, 0
7, 68909, Note_on_c, 9, 39, 36
7, 68986, Note_on_c, 9, 39, 0
7, 69043, Note_on_c, 9, 38, 39
7, 69080, Note_on_c, 9, 38, 0
7, 69120, Pitch_bend_c, 9, 8192
7, 69120, Pitch_bend_c, 9, 8192
7, 69158, Note_on_c, 9, 38, 49
7, 69160, Note_on_c, 9, 38, 40
7, 69245, Note_on_c, 9, 38, 0
7, 69367, Note_on_c, 9, 38, 0
7, 69381, Note_on_c, 9, 38, 43
7, 69521, Note_on_c, 9, 38, 0
7, 69617, Note_on_c, 9, 38, 36
7, 69738, Note_on_c, 9, 38, 0
7, 69865, Note_on_c, 9, 38, 43
7, 69987, Note_on_c, 9, 38, 0
7, 70006, Note_on_c, 9, 39, 50
7, 70076, Note_on_c, 9, 39, 0
7, 70104, Note_on_c, 9, 38, 40
7, 70278, Note_on_c, 9, 38, 0
7, 70337, Note_on_c, 9, 38, 50
7, 70500, Note_on_c, 9, 38, 0
7, 70573, Note_on_c, 9, 38, 43
7, 70746, Note_on_c, 9, 38, 0
7, 70820, Note_on_c, 9, 38, 39
7, 70955, Note_on_c, 9, 38, 0
7, 71048, Note_on_c, 9, 38, 28
7, 71142, Note_on_c, 9, 38, 0
7, 71268, Note_on_c, 9, 38, 76
7, 71370, Note_on_c, 9, 38, 0
7, 71500, Note_on_c, 9, 38, 37
7, 71657, Note_on_c, 9, 38, 0
7, 71767, Note_on_c, 9, 38, 44
7, 71851, Note_on_c, 9, 38, 0
7, 72017, Note_on_c, 9, 38, 38
7, 72068, Note_on_c, 9, 38, 0
7, 72267, Note_on_c, 9, 38, 61
7, 72351, Note_on_c, 9, 38, 0
7, 72508, Note_on_c, 9, 38, 26
7, 72610, Note_on_c, 9, 38, 0
7, 72746, Note_on_c, 9, 38, 39
7, 72813, Note_on_c, 9, 38, 0
7, 73194, Note_on_c, 9, 38, 43
7, 73249, Note_on_c, 9, 38, 0
7, 73445, Note_on_c, 9, 38, 28
7, 73553, Note_on_c, 9, 38, 0
7, 73690, Note_on_c, 9, 38, 31
7, 73763, Note_on_c, 9, 38, 0
7, 73825, Note_on_c, 9, 38, 32
7, 73864, Note_on_c, 9, 38, 0
7, 73916, Note_on_c, 9, 38, 38
7, 74092, Note_on_c, 9, 38, 0
7, 74168, Note_on_c, 9, 38, 32
7, 74297, Note_on_c, 9, 38, 0
7, 74407, Note_on_c, 9, 38, 40
7, 74544, Note_on_c, 9, 38, 0
7, 74553, Note_on_c, 9, 39, 47
7, 74614, Note_on_c, 9, 39, 0
7, 74651, Note_on_c, 9, 38, 30
7, 74805, Note_on_c, 9, 38, 0
7, 74870, Note_on_c, 9, 38, 33
7, 75042, Note_on_c, 9, 38, 0
7, 75123, Note_on_c, 9, 38, 37
7, 75265, Note_on_c, 9, 38, 0
7, 75373, Note_on_c, 9, 38, 28
7, 75545, Note_on_c, 9, 38, 0
7, 75611, Note_on_c, 9, 38, 32
7, 75744, Note_on_c, 9, 38, 0
7, 75757, Note_on_c, 9, 39, 43
7, 75819, Note_on_c, 9, 39, 0
7, 75965, Note_on_c, 9, 38, 1
7, 76006, Note_on_c, 9, 38, 0
7, 76096, Note_on_c, 9, 38, 37
7, 76247, Note_on_c, 9, 38, 0
7, 76338, Note_on_c, 9, 38, 34
7, 76476, Note_on_c, 9, 38, 0
7, 76486, Note_on_c, 9, 39, 35
7, 76542, Note_on_c, 9, 39, 0
7, 76809, Note_on_c, 9, 38, 40
7, 76947, Note_on_c, 9, 38, 0
7, 77065, Note_on_c, 9, 38, 30
7, 77148, Note_on_c, 9, 38, 0
7, 77291, Note_on_c, 9, 38, 38
7, 77348, Note_on_c, 9, 38, 0
7, 77528, Note_on_c, 9, 38, 30
7, 77610, Note_on_c, 9, 38, 0
7, 77747, Note_on_c, 9, 38, 32
7, 77838, Note_on_c, 9, 38, 0
7, 77991, Note_on_c, 9, 38, 30
7, 78074, Note_on_c, 9, 38, 0
7, 78464, Note_on_c, 9, 38, 66
7, 78552, Note_on_c, 9, 38, 0
7, 78699, Note_on_c, 9, 38, 38
7, 78758, Note_on_c, 9, 38, 0
7, 78953, Note_on_c, 9, 38, 33
7, 79024, Note_on_c, 9, 38, 0
7, 79195, Note_on_c, 9, 38, 30
7, 79256, Note_on_c, 9, 38, 0
7, 79440, Note_on_c, 9, 38, 69
7, 79536, Note_on_c, 9, 38, 0
7, 79690, Note_on_c, 9, 38, 33
7, 79724, Note_on_c, 9, 38, 0
7, 79942, Note_on_c, 9, 38, 34
7, 80067, Note_on_c, 9, 38, 0
7, 80077, Note_on_c, 9, 39, 44
7, 80134, Note_on_c, 9, 39, 0
7, 80177, Note_on_c, 9, 38, 28
7, 80329, Note_on_c, 9, 38, 0
7, 80417, Note_on_c, 9, 38, 36
7, 80545, Note_on_c, 9, 38, 0
7, 80649, Note_on_c, 9, 38, 36
7, 80790, Note_on_c, 9, 38, 0
7, 80807, Note_on_c, 9, 39, 38
7, 80860, Note_on_c, 9, 39, 0
7, 80905, Note_on_c, 9, 38, 21
7, 81052, Note_on_c, 9, 38, 0
7, 81133, Note_on_c, 9, 38, 40
7, 81274, Note_on_c, 9, 38, 0
7, 81373, Note_on_c, 9, 38, 38
7, 81470, Note_on_c, 9, 38, 0
7, 81622, Note_on_c, 9, 38, 26
7, 81709, Note_on_c, 9, 38, 0
7, 81852, Note_on_c, 9, 38, 48
7, 81974, Note_on_c, 9, 38, 0
7, 82088, Note_on_c, 9, 38, 43
7, 82142, Note_on_c, 9, 38, 0
7, 82318, Note_on_c, 9, 38, 40
7, 82407, Note_on_c, 9, 38, 0
7, 82554, Note_on_c, 9, 38, 36
7, 82643, Note_on_c, 9, 38, 0
7, 82801, Note_on_c, 9, 38, 32
7, 82880, Note_on_c, 9, 38, 0
7, 83055, Note_on_c, 9, 38, 36
7, 83140, Note_on_c, 9, 38, 0
7, 83277, Note_on_c, 9, 38, 38
7, 83321, Note_on_c, 9, 38, 0
7, 83517, Note_on_c, 9, 38, 37
7, 83574, Note_on_c, 9, 38, 0
7, 83759, Note_on_c, 9, 38, 33
7, 83857, Note_on_c, 9, 38, 0
7, 84002, Note_on_c, 9, 38, 38
7, 84126, Note_on_c, 9, 38, 0
7, 84153, Note_on_c, 9, 39, 37
7, 84215, Note_on_c, 9, 39, 0
7, 84269, Note_on_c, 9, 38, 34
7, 84298, Note_on_c, 9, 38, 0
7, 84392, Note_on_c, 9, 39, 45
7, 84473, Note_on_c, 9, 39, 0
7, 84512, Note_on_c, 9, 38, 30
7, 84656, Note_on_c, 9, 38, 0
7, 84725, Note_on_c, 9, 38, 44
7, 84807, Note_on_c, 9, 38, 0
7, 84971, Note_on_c, 9, 38, 36
7, 85079, Note_on_c, 9, 38, 0
7, 85197, Note_on_c, 9, 38, 36
7, 85269, Note_on_c, 9, 38, 0
7, 85427, Note_on_c, 9, 38, 32
7, 85495, Note_on_c, 9, 38, 0
7, 85668, Note_on_c, 9, 38, 39
7, 85716, Note_on_c, 9, 38, 0
7, 85915, Note_on_c, 9, 38, 36
7, 85992, Note_on_c, 9, 38, 0
7, 86151, Note_on_c, 9, 38, 36
7, 86196, Note_on_c, 9, 38, 0
7, 86369, Note_on_c, 9, 38, 40
7, 86495, Note_on_c, 9, 38, 0
7, 86637, Note_on_c, 9, 38, 40
7, 86687, Note_on_c, 9, 38, 0
7, 86880, Note_on_c, 9, 38, 40
7, 86922, Note_on_c, 9, 38, 0
7, 87029, Note_on_c, 9, 38, 30
7, 87061, Note_on_c, 9, 38, 0
7, 87127, Note_on_c, 9, 38, 60
7, 87297, Note_on_c, 9, 38, 0
7, 87364, Note_on_c, 9, 38, 45
7, 87501, Note_on_c, 9, 38, 0
7, 87615, Note_on_c, 9, 38, 43
7, 87721, Note_on_c, 9, 38, 0
7, 87750, Note_on_c, 9, 39, 37
7, 87815, Note_on_c, 9, 39, 0
7, 87850, Note_on_c, 9, 38, 44
7, 87939, Note_on_c, 9, 38, 0
7, 87995, Note_on_c, 9, 38, 43
7, 88027, Note_on_c, 9, 38, 0
7, 88080, Note_on_c, 9, 38, 34
7, 88206, Note_on_c, 9, 38, 0
7, 88225, Note_on_c, 9, 39, 44
7, 88296, Note_on_c, 9, 39, 0
7, 88334, Note_on_c, 9, 38, 46
7, 88384, Note_on_c, 9, 38, 0
7, 88478, Note_on_c, 9, 38, 44
7, 88506, Note_on_c, 9, 38, 0
7, 88585, Note_on_c, 9, 38, 51
7, 88644, Note_on_c, 9, 38, 0
7, 88814, Note_on_c, 9, 38, 46
7, 88945, Note_on_c, 9, 38, 0
7, 89045, Note_on_c, 9, 38, 37
7, 89125, Note_on_c, 9, 38, 0
7, 89275, Note_on_c, 9, 38, 40
7, 89375, Note_on_c, 9, 38, 0
7, 89532, Note_on_c, 9, 38, 40
7, 89592, Note_on_c, 9, 38, 0
7, 89775, Note_on_c, 9, 38, 43
7, 89893, Note_on_c, 9, 38, 0
7, 89918, Note_on_c, 9, 39, 46
7, 89982, Note_on_c, 9, 39, 0
7, 90245, Note_on_c, 9, 38, 40
7, 90376, Note_on_c, 9, 38, 0
7, 90488, Note_on_c, 9, 38, 40
7, 90595, Note_on_c, 9, 38, 0
7, 90730, Note_on_c, 9, 38, 42
7, 90837, Note_on_c, 9, 38, 0
7, 90973, Note_on_c, 9, 38, 43
7, 91031, Note_on_c, 9, 38, 0
7, 91203, Note_on_c, 9, 38, 48
7, 91353, Note_on_c, 9, 38, 0
7, 91451, Note_on_c, 9, 38, 33
7, 91546, Note_on_c, 9, 38, 0
7, 91687, Note_on_c, 9, 38, 39
7, 91785, Note_on_c, 9, 38, 0
7, 91916, Note_on_c, 9, 38, 43
7, 91969, Note_on_c, 9, 38, 0
7, 92148, Note_on_c, 9, 38, 66
7, 92212, Note_on_c, 9, 38, 0
7, 92410, Note_on_c, 9, 38, 37
7, 92493, Note_on_c, 9, 38, 0
7, 92645, Note_on_c, 9, 38, 38
7, 92730, Note_on_c, 9, 38, 0
7, 92889, Note_on_c, 9, 38, 30
7, 92937, Note_on_c, 9, 38, 0
7, 93014, Note_on_c, 9, 38, 37
7, 93040, Note_on_c, 9, 38, 0
7, 93093, Note_on_c, 9, 38, 45
7, 93156, Note_on_c, 9, 38, 0
7, 93359, Note_on_c, 9, 38, 45
7, 93423, Note_on_c, 9, 38, 0
7, 93594, Note_on_c, 9, 38, 38
7, 93649, Note_on_c, 9, 38, 0
7, 93750, Note_on_c, 9, 38, 45
7, 93774, Note_on_c, 9, 38, 0
7, 93826, Note_on_c, 9, 38, 43
7, 93960, Note_on_c, 9, 38, 0
7, 94058, Note_on_c, 9, 38, 46
7, 94149, Note_on_c, 9, 38, 0
7, 94313, Note_on_c, 9, 38, 56
7, 94443, Note_on_c, 9, 38, 0
7, 94464, Note_on_c, 9, 39, 45
7, 94524, Note_on_c, 9, 39, 0
7, 94704, Note_on_c, 9, 39, 44
7, 94771, Note_on_c, 9, 39, 0
7, 94812, Note_on_c, 9, 38, 22
7, 94843, Note_on_c, 9, 38, 0
7, 95065, Note_on_c, 9, 38, 50
7, 95208, Note_on_c, 9, 38, 0
7, 95300, Note_on_c, 9, 38, 36
7, 95353, Note_on_c, 9, 38, 0
7, 95547, Note_on_c, 9, 38, 13
7, 95605, Note_on_c, 9, 38, 0
7, 95763, Note_on_c, 9, 38, 66
7, 95821, Note_on_c, 9, 38, 0
7, 96015, Note_on_c, 9, 38, 21
7, 96085, Note_on_c, 9, 38, 0
7, 96246, Note_on_c, 9, 38, 38
7, 96327, Note_on_c, 9, 38, 0
7, 96502, Note_on_c, 9, 38, 32
7, 96546, Note_on_c, 9, 38, 0
7, 96751, Note_on_c, 9, 38, 37
7, 96796, Note_on_c, 9, 38, 0
7, 96983, Note_on_c, 9, 38, 39
7, 97034, Note_on_c, 9, 38, 0
7, 97217, Note_on_c, 9, 38, 42
7, 97270, Note_on_c, 9, 38, 0
7, 97451, Note_on_c, 9, 38, 33
7, 97550, Note_on_c, 9, 38, 0
7, 97596, Note_on_c, 9, 39, 40
7, 97656, Note_on_c, 9, 39, 0
7, 97917, Note_on_c, 9, 38, 40
7, 98079, Note_on_c, 9, 38, 0
7, 98166, Note_on_c, 9, 38, 33
7, 98232, Note_on_c, 9, 38, 0
7, 98320, Note_on_c, 9, 38, 31
7, 98354, Note_on_c, 9, 38, 0
7, 98413, Note_on_c, 9, 39, 39
7, 98592, Note_on_c, 9, 39, 0
7, 98891, Note_on_c, 9, 38, 56
7, 99056, Note_on_c, 9, 38, 0
7, 99136, Note_on_c, 9, 38, 26
7, 99174, Note_on_c, 9, 38, 0
7, 99279, Note_on_c, 9, 38, 24
7, 99309, Note_on_c, 9, 38, 0
7, 99377, Note_on_c, 9, 38, 46
7, 99556, Note_on_c, 9, 38, 0
7, 99633, Note_on_c, 9, 38, 37
7, 99731, Note_on_c, 9, 38, 0
7, 99868, Note_on_c, 9, 38, 38
7, 99948, Note_on_c, 9, 38, 0
7, 100105, Note_on_c, 9, 38, 43
7, 100160, Note_on_c, 9, 38, 0
7, 100339, Note_on_c, 9, 38, 33
7, 100487, Note_on_c, 9, 38, 0
7, 100548, Note_on_c, 9, 39, 25
7, 100627, Note_on_c, 9, 39, 0
7, 100731, Note_on_c, 9, 38, 21
7, 100763, Note_on_c, 9, 38, 0
7, 100812, Note_on_c, 9, 38, 39
7, 100974, Note_on_c, 9, 38, 0
7, 101038, Note_on_c, 9, 38, 39
7, 101185, Note_on_c, 9, 38, 0
7, 101280, Note_on_c, 9, 38, 40
7, 101415, Note_on_c, 9, 38, 0
7, 101426, Note_on_c, 9, 39, 38
7, 101486, Note_on_c, 9, 39, 0
7, 101541, Note_on_c, 9, 38, 32
7, 101674, Note_on_c, 9, 38, 0
7, 101761, Note_on_c, 9, 38, 43
7, 101921, Note_on_c, 9, 38, 0
7, 102015, Note_on_c, 9, 38, 37
7, 102130, Note_on_c, 9, 38, 0
7, 102262, Note_on_c, 9, 38, 38
7, 102356, Note_on_c, 9, 38, 0
7, 102496, Note_on_c, 9, 38, 40
7, 102610, Note_on_c, 9, 38, 0
7, 102729, Note_on_c, 9, 38, 36
7, 102787, Note_on_c, 9, 38, 0
7, 102979, Note_on_c, 9, 38, 33
7, 103018, Note_on_c, 9, 38, 0
7, 103116, Note_on_c, 9, 38, 43
7, 103142, Note_on_c, 9, 38, 0
7, 103200, Note_on_c, 9, 38, 42
7, 103337, Note_on_c, 9, 38, 0
7, 103449, Note_on_c, 9, 38, 40
7, 103498, Note_on_c, 9, 38, 0
7, 103604, Note_on_c, 9, 38, 32
7, 103630, Note_on_c, 9, 38, 0
7, 103686, Note_on_c, 9, 38, 34
7, 103815, Note_on_c, 9, 38, 0
7, 103844, Note_on_c, 9, 39, 37
7, 103903, Note_on_c, 9, 39, 0
7, 103933, Note_on_c, 9, 38, 30
7, 104070, Note_on_c, 9, 38, 0
7, 104172, Note_on_c, 9, 38, 36
7, 104290, Note_on_c, 9, 38, 0
7, 104404, Note_on_c, 9, 38, 38
7, 104473, Note_on_c, 9, 38, 0
7, 104638, Note_on_c, 9, 38, 42
7, 104770, Note_on_c, 9, 38, 0
7, 104796, Note_on_c, 9, 39, 34
7, 104849, Note_on_c, 9, 39, 0
7, 105123, Note_on_c, 9, 38, 33
7, 105233, Note_on_c, 9, 38, 0
7, 105368, Note_on_c, 9, 38, 40
7, 105417, Note_on_c, 9, 38, 0
7, 105600, Note_on_c, 9, 38, 30
7, 105733, Note_on_c, 9, 38, 0
7, 105752, Note_on_c, 9, 39, 38
7, 105813, Note_on_c, 9, 39, 0
7, 105845, Note_on_c, 9, 38, 43
7, 105908, Note_on_c, 9, 38, 0
7, 106070, Note_on_c, 9, 38, 38
7, 106184, Note_on_c, 9, 38, 0
7, 106309, Note_on_c, 9, 38, 44
7, 106363, Note_on_c, 9, 38, 0
7, 106536, Note_on_c, 9, 38, 28
7, 106605, Note_on_c, 9, 38, 0
7, 106784, Note_on_c, 9, 38, 55
7, 106877, Note_on_c, 9, 38, 0
7, 107028, Note_on_c, 9, 38, 24
7, 107134, Note_on_c, 9, 38, 0
7, 107265, Note_on_c, 9, 38, 38
7, 107321, Note_on_c, 9, 38, 0
7, 107501, Note_on_c, 9, 38, 40
7, 107643, Note_on_c, 9, 38, 0
7, 107760, Note_on_c, 9, 38, 38
7, 107807, Note_on_c, 9, 38, 0
7, 107990, Note_on_c, 9, 38, 46
7, 108130, Note_on_c, 9, 38, 0
7, 108245, Note_on_c, 9, 38, 56
7, 108290, Note_on_c, 9, 38, 0
7, 108464, Note_on_c, 9, 38, 32
7, 108588, Note_on_c, 9, 38, 0
7, 108717, Note_on_c, 9, 38, 34
7, 108791, Note_on_c, 9, 38, 0
7, 108938, Note_on_c, 9, 38, 36
7, 109089, Note_on_c, 9, 38, 0
7, 109115, Note_on_c, 9, 39, 33
7, 109170, Note_on_c, 9, 39, 0
7, 109206, Note_on_c, 9, 38, 28
7, 109353, Note_on_c, 9, 38, 0
7, 109442, Note_on_c, 9, 38, 43
7, 109578, Note_on_c, 9, 38, 0
7, 109692, Note_on_c, 9, 38, 33
7, 109793, Note_on_c, 9, 38, 0
7, 109927, Note_on_c, 9, 38, 36
7, 109973, Note_on_c, 9, 38, 0
7, 110172, Note_on_c, 9, 38, 39
7, 110296, Note_on_c, 9, 38, 0
7, 110322, Note_on_c, 9, 39, 35
7, 110386, Note_on_c, 9, 39, 0
7, 110422, Note_on_c, 9, 38, 33
7, 110587, Note_on_c, 9, 38, 0
7, 110660, Note_on_c, 9, 38, 40
7, 110793, Note_on_c, 9, 38, 0
7, 110899, Note_on_c, 9, 38, 37
7, 111002, Note_on_c, 9, 38, 0
7, 111133, Note_on_c, 9, 38, 32
7, 111182, Note_on_c, 9, 38, 0
7, 111369, Note_on_c, 9, 38, 48
7, 111417, Note_on_c, 9, 38, 0
7, 111623, Note_on_c, 9, 38, 26
7, 111676, Note_on_c, 9, 38, 0
7, 111853, Note_on_c, 9, 38, 37
7, 111928, Note_on_c, 9, 38, 0
7, 112086, Note_on_c, 9, 38, 61
7, 112176, Note_on_c, 9, 38, 0
7, 112313, Note_on_c, 9, 38, 26
7, 112409, Note_on_c, 9, 38, 0
7, 112557, Note_on_c, 9, 38, 40
7, 112636, Note_on_c, 9, 38, 0
7, 112732, Note_on_c, 9, 38, 39
7, 112756, Note_on_c, 9, 38, 0
7, 112801, Note_on_c, 9, 38, 56
7, 112973, Note_on_c, 9, 38, 0
7, 113038, Note_on_c, 9, 38, 40
7, 113126, Note_on_c, 9, 38, 0
7, 113267, Note_on_c, 9, 38, 43
7, 113452, Note_on_c, 9, 38, 0
7, 113521, Note_on_c, 9, 38, 40
7, 113689, Note_on_c, 9, 38, 0
7, 113772, Note_on_c, 9, 38, 40
7, 113918, Note_on_c, 9, 38, 0
7, 113940, Note_on_c, 9, 39, 35
7, 114010, Note_on_c, 9, 39, 0
7, 114043, Note_on_c, 9, 38, 34
7, 114110, Note_on_c, 9, 38, 0
7, 114171, Note_on_c, 9, 38, 42
7, 114217, Note_on_c, 9, 38, 0
7, 114272, Note_on_c, 9, 38, 45
7, 114429, Note_on_c, 9, 38, 0
7, 114502, Note_on_c, 9, 38, 43
7, 114552, Note_on_c, 9, 38, 0
7, 114632, Note_on_c, 9, 38, 44
7, 114678, Note_on_c, 9, 38, 0
7, 114749, Note_on_c, 9, 38, 40
7, 114825, Note_on_c, 9, 38, 0
7, 114871, Note_on_c, 9, 39, 32
7, 114947, Note_on_c, 9, 39, 0
7, 114980, Note_on_c, 9, 38, 34
7, 115064, Note_on_c, 9, 38, 0
7, 115100, Note_on_c, 9, 39, 38
7, 115182, Note_on_c, 9, 39, 0
7, 115234, Note_on_c, 9, 38, 28
7, 115302, Note_on_c, 9, 38, 0
7, 115358, Note_on_c, 9, 38, 40
7, 115412, Note_on_c, 9, 38, 0
7, 115479, Note_on_c, 9, 38, 45
7, 115618, Note_on_c, 9, 38, 0
7, 115706, Note_on_c, 9, 38, 33
7, 115820, Note_on_c, 9, 38, 0
7, 115948, Note_on_c, 9, 38, 31
7, 116002, Note_on_c, 9, 38, 0
7, 116184, Note_on_c, 9, 38, 31
7, 116286, Note_on_c, 9, 38, 0
7, 116426, Note_on_c, 9, 38, 43
7, 116546, Note_on_c, 9, 38, 0
7, 116663, Note_on_c, 9, 38, 40
7, 116780, Note_on_c, 9, 38, 0
7, 116804, Note_on_c, 9, 39, 38
7, 116880, Note_on_c, 9, 39, 0
7, 116929, Note_on_c, 9, 38, 26
7, 116980, Note_on_c, 9, 38, 0
7, 117039, Note_on_c, 9, 38, 44
7, 117098, Note_on_c, 9, 38, 0
7, 117163, Note_on_c, 9, 38, 49
7, 117314, Note_on_c, 9, 38, 0
7, 117397, Note_on_c, 9, 38, 43
7, 117506, Note_on_c, 9, 38, 0
7, 117630, Note_on_c, 9, 38, 43
7, 117729, Note_on_c, 9, 38, 0
7, 117861, Note_on_c, 9, 38, 39
7, 117964, Note_on_c, 9, 38, 0
7, 118083, Note_on_c, 9, 38, 39
7, 118243, Note_on_c, 9, 38, 0
7, 118323, Note_on_c, 9, 38, 40
7, 118452, Note_on_c, 9, 38, 0
7, 118560, Note_on_c, 9, 38, 37
7, 118716, Note_on_c, 9, 38, 0
7, 118804, Note_on_c, 9, 38, 39
7, 118946, Note_on_c, 9, 38, 0
7, 119050, Note_on_c, 9, 38, 26
7, 119170, Note_on_c, 9, 38, 0
7, 119292, Note_on_c, 9, 38, 40
7, 119419, Note_on_c, 9, 38, 0
7, 119426, Note_on_c, 9, 39, 37
7, 119488, Note_on_c, 9, 39, 0
7, 119548, Note_on_c, 9, 38, 34
7, 119624, Note_on_c, 9, 38, 0
7, 119676, Note_on_c, 9, 38, 48
7, 119736, Note_on_c, 9, 38, 0
7, 119799, Note_on_c, 9, 38, 46
7, 119933, Note_on_c, 9, 38, 0
7, 120025, Note_on_c, 9, 38, 36
7, 120157, Note_on_c, 9, 38, 0
7, 120256, Note_on_c, 9, 38, 37
7, 120359, Note_on_c, 9, 38, 0
7, 120481, Note_on_c, 9, 38, 39
7, 120624, Note_on_c, 9, 38, 0
7, 120633, Note_on_c, 9, 39, 43
7, 120706, Note_on_c, 9, 39, 0
7, 120867, Note_on_c, 9, 39, 43
7, 120957, Note_on_c, 9, 39, 0
7, 120986, Note_on_c, 9, 38, 50
7, 121017, Note_on_c, 9, 38, 0
7, 121268, Note_on_c, 9, 38, 32
7, 121303, Note_on_c, 9, 38, 0
7, 121467, Note_on_c, 9, 38, 48
7, 121539, Note_on_c, 9, 38, 0
7, 121689, Note_on_c, 9, 38, 37
7, 121743, Note_on_c, 9, 38, 0
7, 121919, Note_on_c, 9, 38, 37
7, 121977, Note_on_c, 9, 38, 0
7, 122148, Note_on_c, 9, 38, 54
7, 122217, Note_on_c, 9, 38, 0
7, 122392, Note_on_c, 9, 38, 40
7, 122439, Note_on_c, 9, 38, 0
7, 122633, Note_on_c, 9, 38, 39
7, 122688, Note_on_c, 9, 38, 0
7, 122786, Note_on_c, 9, 38, 33
7, 122810, Note_on_c, 9, 38, 0
7, 122862, Note_on_c, 9, 38, 44
7, 123043, Note_on_c, 9, 38, 0
7, 123120, Note_on_c, 9, 38, 36
7, 123218, Note_on_c, 9, 38, 0
7, 123364, Note_on_c, 9, 38, 36
7, 123534, Note_on_c, 9, 38, 0
7, 123619, Note_on_c, 9, 38, 39
7, 123669, Note_on_c, 9, 38, 0
7, 123834, Note_on_c, 9, 38, 34
7, 123939, Note_on_c, 9, 38, 0
7, 124085, Note_on_c, 9, 38, 34
7, 124138, Note_on_c, 9, 38, 0
7, 124300, Note_on_c, 9, 38, 28
7, 124443, Note_on_c, 9, 38, 0
7, 124461, Note_on_c, 9, 39, 42
7, 124531, Note_on_c, 9, 39, 0
7, 124573, Note_on_c, 9, 38, 26
7, 124684, Note_on_c, 9, 38, 0
7, 124792, Note_on_c, 9, 38, 49
7, 124971, Note_on_c, 9, 38, 0
7, 125043, Note_on_c, 9, 38, 45
7, 125185, Note_on_c, 9, 38, 0
7, 125292, Note_on_c, 9, 38, 38
7, 125430, Note_on_c, 9, 38, 0
7, 125525, Note_on_c, 9, 38, 34
7, 125651, Note_on_c, 9, 38, 0
7, 125666, Note_on_c, 9, 39, 46
7, 125733, Note_on_c, 9, 39, 0
7, 125776, Note_on_c, 9, 38, 31
7, 125923, Note_on_c, 9, 38, 0
7, 126006, Note_on_c, 9, 38, 42
7, 126156, Note_on_c, 9, 38, 0
7, 126249, Note_on_c, 9, 38, 39
7, 126383, Note_on_c, 9, 38, 0
7, 126485, Note_on_c, 9, 38, 40
7, 126587, Note_on_c, 9, 38, 0
7, 126718, Note_on_c, 9, 38, 32
7, 126828, Note_on_c, 9, 38, 0
7, 126961, Note_on_c, 9, 38, 44
7, 127119, Note_on_c, 9, 38, 0
7, 127216, Note_on_c, 9, 38, 30
7, 127325, Note_on_c, 9, 38, 0
7, 127462, Note_on_c, 9, 38, 40
7, 127609, Note_on_c, 9, 38, 0
7, 127622, Note_on_c, 9, 39, 35
7, 127683, Note_on_c, 9, 39, 0
7, 127709, Note_on_c, 9, 38, 38
7, 127865, Note_on_c, 9, 38, 0
7, 127928, Note_on_c, 9, 38, 43
7, 128088, Note_on_c, 9, 38, 0
7, 128167, Note_on_c, 9, 38, 37
7, 128288, Note_on_c, 9, 38, 0
7, 128306, Note_on_c, 9, 39, 39
7, 128379, Note_on_c, 9, 39, 0
7, 128410, Note_on_c, 9, 38, 33
7, 128526, Note_on_c, 9, 38, 0
7, 128630, Note_on_c, 9, 38, 50
7, 128773, Note_on_c, 9, 38, 0
7, 128869, Note_on_c, 9, 38, 42
7, 128942, Note_on_c, 9, 38, 0
7, 129117, Note_on_c, 9, 38, 37
7, 129238, Note_on_c, 9, 38, 0
7, 129367, Note_on_c, 9, 38, 43
7, 129493, Note_on_c, 9, 38, 0
7, 129602, Note_on_c, 9, 38, 49
7, 129730, Note_on_c, 9, 38, 0
7, 129835, Note_on_c, 9, 38, 43
7, 129989, Note_on_c, 9, 38, 0
7, 130080, Note_on_c, 9, 38, 45
7, 130220, Note_on_c, 9, 38, 0
7, 130317, Note_on_c, 9, 38, 45
7, 130453, Note_on_c, 9, 38, 0
7, 130555, Note_on_c, 9, 38, 38
7, 130719, Note_on_c, 9, 38, 0
7, 130827, Note_on_c, 9, 38, 43
7, 130962, Note_on_c, 9, 38, 0
7, 131074, Note_on_c, 9, 38, 28
7, 131190, Note_on_c, 9, 38, 0
7, 131300, Note_on_c, 9, 38, 43
7, 131406, Note_on_c, 9, 38, 0
7, 131534, Note_on_c, 9, 38, 30
7, 131639, Note_on_c, 9, 38, 0
7, 131780, Note_on_c, 9, 38, 69
7, 131909, Note_on_c, 9, 38, 0
7, 132022, Note_on_c, 9, 38, 33
7, 132153, Note_on_c, 9, 38, 0
7, 132258, Note_on_c, 9, 38, 33
7, 132346, Note_on_c, 9, 38, 0
7, 132392, Note_on_c, 9, 38, 54
7, 132450, Note_on_c, 9, 38, 0
7, 132516, Note_on_c, 9, 38, 55
7, 132683, Note_on_c, 9, 38, 0
7, 132741, Note_on_c, 9, 38, 39
7, 132800, Note_on_c, 9, 38, 0
7, 132861, Note_on_c, 9, 38, 43
7, 132933, Note_on_c, 9, 38, 0
7, 132991, Note_on_c, 9, 38, 40
7, 133053, Note_on_c, 9, 38, 0
7, 133104, Note_on_c, 9, 38, 52
7, 133158, Note_on_c, 9, 38, 0
7, 133214, Note_on_c, 9, 38, 49
7, 133325, Note_on_c, 9, 38, 0
7, 133333, Note_on_c, 9, 39, 48
7, 133414, Note_on_c, 9, 39, 0
7, 133450, Note_on_c, 9, 38, 37
7, 133524, Note_on_c, 9, 38, 0
7, 133577, Note_on_c, 9, 38, 46
7, 133642, Note_on_c, 9, 38, 0
7, 133700, Note_on_c, 9, 38, 43
7, 133817, Note_on_c, 9, 38, 0
7, 133825, Note_on_c, 9, 39, 54
7, 133910, Note_on_c, 9, 39, 0
7, 133976, Note_on_c, 9, 38, 9
7, 134023, Note_on_c, 9, 38, 0
7, 134070, Note_on_c, 9, 38, 48
7, 134139, Note_on_c, 9, 38, 0
7, 134195, Note_on_c, 9, 38, 40
7, 134254, Note_on_c, 9, 38, 0
7, 134254, End_track
8, 0, Start_track
8, 0, End_track
0, 0, End_of_file
