0, 0, Header, 1, 2, 120
1, 0, Start_track
1, 0, Title_t, "untitled"
1, 0, Copyright_t, "Copyright © 1998 by Doug McKenzie"
1, 0, Text_t, "Doug McKenzie\012"
1, 0, Time_signature, 4, 2, 24, 8
1, 0, Key_signature, -1, "major"
1, 0, Tempo, 480000
1, 0, End_track
2, 0, Start_track
2, 0, Title_t, ""
2, 382, Note_on_c, 0, 48, 33
2, 440, Note_on_c, 0, 41, 53
2, 441, Note_on_c, 0, 48, 0
2, 447, Control_c, 0, 64, 127
2, 459, Note_on_c, 0, 41, 0
2, 736, Note_on_c, 0, 63, 57
2, 738, Note_on_c, 0, 77, 69
2, 741, Note_on_c, 0, 72, 58
2, 741, Note_on_c, 0, 69, 54
2, 764, Note_on_c, 0, 72, 0
2, 764, Note_on_c, 0, 77, 0
2, 768, Note_on_c, 0, 63, 0
2, 771, Note_on_c, 0, 69, 0
2, 812, Note_on_c, 0, 76, 60
2, 816, Note_on_c, 0, 65, 34
2, 816, Note_on_c, 0, 69, 39
2, 817, Note_on_c, 0, 61, 46
2, 821, Control_c, 0, 64, 0
2, 853, Control_c, 0, 64, 127
2, 902, Note_on_c, 0, 61, 0
2, 908, Note_on_c, 0, 76, 0
2, 910, Note_on_c, 0, 65, 0
2, 932, Note_on_c, 0, 69, 0
2, 980, Note_on_c, 0, 74, 34
2, 982, Note_on_c, 0, 69, 44
2, 982, Note_on_c, 0, 65, 33
2, 984, Note_on_c, 0, 60, 43
2, 1008, Note_on_c, 0, 60, 0
2, 1017, Note_on_c, 0, 74, 0
2, 1020, Note_on_c, 0, 69, 0
2, 1034, Note_on_c, 0, 65, 0
2, 1095, Note_on_c, 0, 50, 40
2, 1154, Note_on_c, 0, 58, 46
2, 1157, Note_on_c, 0, 43, 35
2, 1158, Note_on_c, 0, 50, 0
2, 1160, Control_c, 0, 64, 0
2, 1186, Control_c, 0, 64, 127
2, 1194, Note_on_c, 0, 43, 0
2, 1213, Note_on_c, 0, 58, 0
2, 1325, Note_on_c, 0, 58, 33
2, 1327, Note_on_c, 0, 62, 33
2, 1356, Note_on_c, 0, 62, 0
2, 1356, Note_on_c, 0, 58, 0
2, 1497, Note_on_c, 0, 58, 37
2, 1497, Note_on_c, 0, 77, 52
2, 1499, Note_on_c, 0, 48, 45
2, 1500, Note_on_c, 0, 65, 31
2, 1500, Note_on_c, 0, 70, 42
2, 1501, Note_on_c, 0, 74, 31
2, 1511, Control_c, 0, 64, 0
2, 1536, Control_c, 0, 64, 127
2, 1557, Note_on_c, 0, 74, 0
2, 1557, Note_on_c, 0, 77, 0
2, 1576, Note_on_c, 0, 65, 0
2, 1585, Note_on_c, 0, 58, 0
2, 1586, Note_on_c, 0, 70, 0
2, 1670, Note_on_c, 0, 73, 49
2, 1672, Note_on_c, 0, 68, 42
2, 1672, Note_on_c, 0, 76, 40
2, 1674, Note_on_c, 0, 58, 30
2, 1674, Note_on_c, 0, 64, 36
2, 1709, Note_on_c, 0, 64, 0
2, 1710, Note_on_c, 0, 48, 0
2, 1716, Note_on_c, 0, 58, 0
2, 1716, Note_on_c, 0, 68, 0
2, 1727, Note_on_c, 0, 73, 0
2, 1730, Note_on_c, 0, 76, 0
2, 1845, Note_on_c, 0, 39, 52
2, 1846, Note_on_c, 0, 81, 78
2, 1848, Note_on_c, 0, 46, 52
2, 1848, Control_c, 0, 64, 0
2, 1848, Note_on_c, 0, 77, 73
2, 1880, Control_c, 0, 64, 127
2, 1895, Note_on_c, 0, 39, 0
2, 1903, Note_on_c, 0, 46, 0
2, 2024, Note_on_c, 0, 60, 29
2, 2025, Note_on_c, 0, 65, 34
2, 2032, Note_on_c, 0, 55, 34
2, 2032, Note_on_c, 0, 61, 18
2, 2045, Note_on_c, 0, 81, 0
2, 2055, Note_on_c, 0, 77, 0
2, 2071, Note_on_c, 0, 65, 0
2, 2078, Note_on_c, 0, 60, 0
2, 2079, Note_on_c, 0, 61, 0
2, 2089, Note_on_c, 0, 55, 0
2, 2207, Note_on_c, 0, 79, 80
2, 2207, Note_on_c, 0, 72, 72
2, 2208, Note_on_c, 0, 65, 71
2, 2209, Note_on_c, 0, 50, 49
2, 2210, Note_on_c, 0, 60, 50
2, 2217, Control_c, 0, 64, 0
2, 2255, Control_c, 0, 64, 127
2, 2304, Note_on_c, 0, 57, 57
2, 2305, Note_on_c, 0, 60, 0
2, 2331, Note_on_c, 0, 79, 0
2, 2332, Note_on_c, 0, 72, 0
2, 2333, Note_on_c, 0, 65, 0
2, 2389, Note_on_c, 0, 72, 53
2, 2392, Note_on_c, 0, 60, 50
2, 2393, Note_on_c, 0, 65, 48
2, 2433, Note_on_c, 0, 50, 0
2, 2447, Note_on_c, 0, 65, 0
2, 2458, Note_on_c, 0, 72, 0
2, 2477, Note_on_c, 0, 77, 62
2, 2483, Note_on_c, 0, 50, 49
2, 2500, Note_on_c, 0, 60, 0
2, 2507, Note_on_c, 0, 57, 0
2, 2508, Note_on_c, 0, 50, 0
2, 2510, Note_on_c, 0, 77, 0
2, 2567, Note_on_c, 0, 82, 69
2, 2569, Note_on_c, 0, 49, 48
2, 2569, Note_on_c, 0, 79, 58
2, 2570, Control_c, 0, 64, 0
2, 2570, Note_on_c, 0, 75, 62
2, 2571, Note_on_c, 0, 71, 62
2, 2602, Control_c, 0, 64, 127
2, 2622, Note_on_c, 0, 79, 0
2, 2629, Note_on_c, 0, 82, 0
2, 2642, Note_on_c, 0, 75, 0
2, 2649, Note_on_c, 0, 71, 0
2, 2659, Note_on_c, 0, 56, 38
2, 2751, Note_on_c, 0, 59, 30
2, 2751, Note_on_c, 0, 67, 35
2, 2752, Note_on_c, 0, 63, 36
2, 2767, Note_on_c, 0, 58, 8
2, 2797, Note_on_c, 0, 49, 0
2, 2837, Note_on_c, 0, 58, 0
2, 2839, Note_on_c, 0, 67, 0
2, 2845, Note_on_c, 0, 49, 27
2, 2859, Note_on_c, 0, 59, 0
2, 2872, Note_on_c, 0, 56, 0
2, 2884, Note_on_c, 0, 63, 0
2, 2899, Note_on_c, 0, 49, 0
2, 2930, Note_on_c, 0, 69, 64
2, 2933, Note_on_c, 0, 48, 41
2, 2934, Note_on_c, 0, 62, 48
2, 2936, Note_on_c, 0, 65, 45
2, 2936, Note_on_c, 0, 58, 25
2, 2938, Note_on_c, 0, 57, 29
2, 2942, Control_c, 0, 64, 0
2, 2981, Control_c, 0, 64, 127
2, 3026, Note_on_c, 0, 57, 0
2, 3027, Note_on_c, 0, 62, 0
2, 3031, Note_on_c, 0, 58, 0
2, 3032, Note_on_c, 0, 48, 0
2, 3062, Note_on_c, 0, 69, 0
2, 3071, Note_on_c, 0, 65, 0
2, 3115, Note_on_c, 0, 67, 52
2, 3120, Note_on_c, 0, 46, 37
2, 3120, Note_on_c, 0, 60, 52
2, 3120, Note_on_c, 0, 64, 43
2, 3122, Note_on_c, 0, 55, 38
2, 3134, Control_c, 0, 64, 0
2, 3175, Control_c, 0, 64, 127
2, 3201, Note_on_c, 0, 55, 0
2, 3212, Note_on_c, 0, 64, 0
2, 3216, Note_on_c, 0, 67, 0
2, 3220, Note_on_c, 0, 60, 0
2, 3224, Note_on_c, 0, 46, 0
2, 3303, Note_on_c, 0, 60, 52
2, 3306, Control_c, 0, 64, 0
2, 3306, Note_on_c, 0, 45, 44
2, 3309, Note_on_c, 0, 55, 31
2, 3336, Control_c, 0, 64, 127
2, 3351, Note_on_c, 0, 55, 0
2, 3351, Note_on_c, 0, 45, 0
2, 3364, Note_on_c, 0, 60, 0
2, 3485, Note_on_c, 0, 72, 84
2, 3486, Note_on_c, 0, 65, 89
2, 3487, Note_on_c, 0, 69, 83
2, 3489, Note_on_c, 0, 60, 65
2, 3539, Note_on_c, 0, 69, 0
2, 3559, Note_on_c, 0, 60, 0
2, 3601, Note_on_c, 0, 72, 0
2, 3606, Note_on_c, 0, 65, 0
2, 3673, Note_on_c, 0, 70, 52
2, 3679, Note_on_c, 0, 58, 35
2, 3680, Note_on_c, 0, 67, 40
2, 3680, Note_on_c, 0, 63, 36
2, 3681, Note_on_c, 0, 48, 36
2, 3686, Control_c, 0, 64, 0
2, 3720, Control_c, 0, 64, 127
2, 3752, Note_on_c, 0, 67, 0
2, 3753, Note_on_c, 0, 48, 0
2, 3760, Note_on_c, 0, 58, 0
2, 3770, Note_on_c, 0, 70, 0
2, 3787, Note_on_c, 0, 63, 0
2, 3855, Note_on_c, 0, 69, 37
2, 3855, Note_on_c, 0, 63, 37
2, 3856, Note_on_c, 0, 65, 35
2, 3856, Note_on_c, 0, 57, 26
2, 3858, Note_on_c, 0, 47, 34
2, 3866, Control_c, 0, 64, 0
2, 3895, Control_c, 0, 64, 127
2, 3936, Note_on_c, 0, 69, 0
2, 3942, Note_on_c, 0, 65, 0
2, 3943, Note_on_c, 0, 47, 0
2, 3948, Note_on_c, 0, 57, 0
2, 3948, Note_on_c, 0, 63, 0
2, 4037, Note_on_c, 0, 65, 57
2, 4042, Note_on_c, 0, 46, 31
2, 4046, Note_on_c, 0, 53, 30
2, 4049, Control_c, 0, 64, 0
2, 4064, Note_on_c, 0, 60, 11
2, 4092, Control_c, 0, 64, 127
2, 4134, Note_on_c, 0, 60, 0
2, 4140, Note_on_c, 0, 53, 0
2, 4214, Note_on_c, 0, 57, 26
2, 4215, Note_on_c, 0, 60, 33
2, 4247, Note_on_c, 0, 57, 0
2, 4257, Note_on_c, 0, 53, 1
2, 4271, Note_on_c, 0, 60, 0
2, 4278, Note_on_c, 0, 65, 0
2, 4284, Note_on_c, 0, 46, 0
2, 4392, Note_on_c, 0, 53, 0
2, 4401, Note_on_c, 0, 74, 54
2, 4403, Note_on_c, 0, 66, 39
2, 4407, Note_on_c, 0, 62, 41
2, 4409, Note_on_c, 0, 69, 46
2, 4409, Note_on_c, 0, 58, 25
2, 4410, Control_c, 0, 64, 0
2, 4413, Note_on_c, 0, 48, 35
2, 4448, Control_c, 0, 64, 127
2, 4449, Note_on_c, 0, 48, 0
2, 4473, Note_on_c, 0, 58, 0
2, 4512, Note_on_c, 0, 62, 0
2, 4514, Note_on_c, 0, 58, 83
2, 4518, Note_on_c, 0, 66, 0
2, 4550, Note_on_c, 0, 69, 0
2, 4637, Note_on_c, 0, 58, 0
2, 4659, Note_on_c, 0, 74, 0
2, 4667, Note_on_c, 0, 66, 33
2, 4705, Note_on_c, 0, 66, 0
2, 4721, Note_on_c, 0, 74, 55
2, 4726, Note_on_c, 0, 72, 34
2, 4734, Note_on_c, 0, 72, 0
2, 4741, Note_on_c, 0, 74, 0
2, 4773, Note_on_c, 0, 72, 53
2, 4776, Note_on_c, 0, 60, 49
2, 4778, Note_on_c, 0, 45, 39
2, 4779, Control_c, 0, 64, 0
2, 4780, Note_on_c, 0, 55, 30
2, 4804, Note_on_c, 0, 60, 0
2, 4809, Control_c, 0, 64, 127
2, 4823, Note_on_c, 0, 72, 0
2, 4846, Note_on_c, 0, 45, 0
2, 4859, Note_on_c, 0, 84, 77
2, 4861, Note_on_c, 0, 55, 0
2, 4879, Note_on_c, 0, 84, 0
2, 4908, Note_on_c, 0, 84, 81
2, 4932, Note_on_c, 0, 84, 0
2, 4960, Note_on_c, 0, 65, 39
2, 4963, Note_on_c, 0, 84, 76
2, 4963, Note_on_c, 0, 60, 35
2, 4965, Note_on_c, 0, 55, 37
2, 4967, Note_on_c, 0, 61, 23
2, 4992, Note_on_c, 0, 84, 0
2, 5021, Note_on_c, 0, 72, 55
2, 5084, Note_on_c, 0, 55, 0
2, 5085, Note_on_c, 0, 60, 0
2, 5090, Note_on_c, 0, 65, 0
2, 5092, Note_on_c, 0, 61, 0
2, 5105, Note_on_c, 0, 72, 0
2, 5137, Note_on_c, 0, 77, 70
2, 5137, Note_on_c, 0, 65, 49
2, 5140, Note_on_c, 0, 54, 40
2, 5142, Note_on_c, 0, 60, 44
2, 5152, Control_c, 0, 64, 0
2, 5153, Note_on_c, 0, 77, 0
2, 5199, Note_on_c, 0, 77, 74
2, 5207, Control_c, 0, 64, 127
2, 5216, Note_on_c, 0, 77, 0
2, 5237, Note_on_c, 0, 65, 0
2, 5241, Note_on_c, 0, 60, 0
2, 5254, Note_on_c, 0, 54, 0
2, 5260, Note_on_c, 0, 77, 87
2, 5284, Note_on_c, 0, 77, 0
2, 5314, Note_on_c, 0, 50, 49
2, 5315, Control_c, 0, 64, 0
2, 5318, Note_on_c, 0, 77, 83
2, 5318, Note_on_c, 0, 60, 35
2, 5322, Note_on_c, 0, 54, 33
2, 5353, Note_on_c, 0, 77, 0
2, 5355, Control_c, 0, 64, 127
2, 5372, Note_on_c, 0, 66, 67
2, 5376, Note_on_c, 0, 60, 0
2, 5392, Note_on_c, 0, 54, 0
2, 5396, Note_on_c, 0, 50, 0
2, 5460, Note_on_c, 0, 50, 33
2, 5485, Note_on_c, 0, 50, 0
2, 5485, Note_on_c, 0, 66, 0
2, 5499, Note_on_c, 0, 53, 44
2, 5500, Note_on_c, 0, 43, 38
2, 5502, Note_on_c, 0, 65, 60
2, 5505, Control_c, 0, 64, 0
2, 5537, Control_c, 0, 64, 127
2, 5561, Note_on_c, 0, 65, 0
2, 5600, Note_on_c, 0, 53, 0
2, 5676, Note_on_c, 0, 56, 94
2, 5683, Note_on_c, 0, 53, 44
2, 5718, Note_on_c, 0, 53, 0
2, 5732, Note_on_c, 0, 43, 0
2, 5806, Note_on_c, 0, 43, 17
2, 5854, Note_on_c, 0, 56, 0
2, 5860, Note_on_c, 0, 43, 0
2, 5868, Note_on_c, 0, 36, 45
2, 5869, Note_on_c, 0, 48, 31
2, 5870, Note_on_c, 0, 55, 53
2, 5882, Control_c, 0, 64, 0
2, 5924, Control_c, 0, 64, 127
2, 5968, Note_on_c, 0, 48, 0
2, 5976, Note_on_c, 0, 55, 0
2, 6020, Note_on_c, 0, 36, 0
2, 6056, Note_on_c, 0, 56, 38
2, 6057, Note_on_c, 0, 62, 44
2, 6058, Note_on_c, 0, 40, 35
2, 6066, Control_c, 0, 64, 0
2, 6081, Note_on_c, 0, 40, 0
2, 6092, Control_c, 0, 64, 127
2, 6178, Note_on_c, 0, 36, 32
2, 6195, Note_on_c, 0, 56, 0
2, 6215, Note_on_c, 0, 62, 0
2, 6219, Note_on_c, 0, 36, 0
2, 6245, Note_on_c, 0, 60, 49
2, 6249, Control_c, 0, 64, 0
2, 6250, Note_on_c, 0, 29, 31
2, 6250, Note_on_c, 0, 57, 31
2, 6288, Control_c, 0, 64, 127
2, 6290, Note_on_c, 0, 29, 0
2, 6300, Note_on_c, 0, 57, 0
2, 6306, Note_on_c, 0, 60, 0
2, 6429, Note_on_c, 0, 64, 35
2, 6432, Note_on_c, 0, 60, 34
2, 6432, Note_on_c, 0, 57, 36
2, 6433, Note_on_c, 0, 53, 24
2, 6464, Note_on_c, 0, 64, 0
2, 6482, Note_on_c, 0, 60, 0
2, 6514, Note_on_c, 0, 57, 0
2, 6524, Note_on_c, 0, 53, 0
2, 6548, Note_on_c, 0, 77, 79
2, 6552, Note_on_c, 0, 65, 85
2, 6584, Note_on_c, 0, 77, 0
2, 6597, Note_on_c, 0, 65, 0
2, 6690, Note_on_c, 0, 76, 75
2, 6692, Note_on_c, 0, 65, 58
2, 6695, Note_on_c, 0, 69, 55
2, 6696, Note_on_c, 0, 61, 44
2, 6704, Control_c, 0, 64, 0
2, 6730, Control_c, 0, 64, 127
2, 6763, Note_on_c, 0, 76, 0
2, 6772, Note_on_c, 0, 69, 0
2, 6774, Note_on_c, 0, 65, 0
2, 6776, Note_on_c, 0, 61, 0
2, 6804, Note_on_c, 0, 74, 47
2, 6807, Note_on_c, 0, 65, 38
2, 6808, Note_on_c, 0, 69, 47
2, 6812, Note_on_c, 0, 60, 42
2, 6814, Control_c, 0, 64, 0
2, 6838, Control_c, 0, 64, 127
2, 6856, Note_on_c, 0, 60, 0
2, 6856, Note_on_c, 0, 69, 0
2, 6858, Note_on_c, 0, 74, 0
2, 6866, Note_on_c, 0, 65, 0
2, 6930, Note_on_c, 0, 50, 24
2, 6940, Note_on_c, 0, 50, 0
2, 6992, Note_on_c, 0, 53, 36
2, 6993, Note_on_c, 0, 58, 31
2, 6993, Note_on_c, 0, 62, 44
2, 6999, Control_c, 0, 64, 0
2, 6999, Note_on_c, 0, 43, 28
2, 7033, Control_c, 0, 64, 127
2, 7047, Note_on_c, 0, 43, 0
2, 7048, Note_on_c, 0, 58, 0
2, 7060, Note_on_c, 0, 62, 0
2, 7063, Note_on_c, 0, 53, 0
2, 7180, Note_on_c, 0, 58, 36
2, 7185, Note_on_c, 0, 64, 24
2, 7207, Note_on_c, 0, 64, 0
2, 7225, Note_on_c, 0, 58, 0
2, 7248, Note_on_c, 0, 74, 57
2, 7255, Note_on_c, 0, 74, 0
2, 7302, Note_on_c, 0, 79, 101
2, 7347, Note_on_c, 0, 79, 0
2, 7357, Note_on_c, 0, 69, 42
2, 7361, Note_on_c, 0, 58, 31
2, 7362, Note_on_c, 0, 64, 38
2, 7363, Note_on_c, 0, 77, 76
2, 7366, Control_c, 0, 64, 0
2, 7394, Control_c, 0, 64, 127
2, 7403, Note_on_c, 0, 69, 0
2, 7412, Note_on_c, 0, 64, 0
2, 7426, Note_on_c, 0, 58, 0
2, 7438, Note_on_c, 0, 77, 0
2, 7488, Note_on_c, 0, 48, 47
2, 7554, Note_on_c, 0, 76, 40
2, 7555, Note_on_c, 0, 68, 38
2, 7555, Note_on_c, 0, 64, 36
2, 7556, Note_on_c, 0, 73, 37
2, 7560, Note_on_c, 0, 58, 30
2, 7568, Control_c, 0, 64, 0
2, 7594, Control_c, 0, 64, 127
2, 7632, Note_on_c, 0, 76, 0
2, 7641, Note_on_c, 0, 73, 0
2, 7657, Note_on_c, 0, 64, 0
2, 7658, Note_on_c, 0, 68, 0
2, 7662, Note_on_c, 0, 58, 0
2, 7746, Note_on_c, 0, 72, 30
2, 7746, Note_on_c, 0, 62, 34
2, 7747, Note_on_c, 0, 57, 44
2, 7747, Note_on_c, 0, 67, 40
2, 7751, Control_c, 0, 64, 0
2, 7770, Note_on_c, 0, 48, 0
2, 7773, Control_c, 0, 64, 127
2, 7778, Note_on_c, 0, 62, 0
2, 7784, Note_on_c, 0, 57, 0
2, 7792, Note_on_c, 0, 67, 0
2, 7794, Note_on_c, 0, 72, 0
2, 7939, Note_on_c, 0, 65, 36
2, 7940, Note_on_c, 0, 60, 53
2, 8031, Note_on_c, 0, 81, 110
2, 8045, Note_on_c, 0, 81, 0
2, 8090, Note_on_c, 0, 81, 113
2, 8097, Note_on_c, 0, 65, 0
2, 8106, Note_on_c, 0, 81, 0
2, 8133, Note_on_c, 0, 60, 0
2, 8150, Note_on_c, 0, 60, 32
2, 8151, Note_on_c, 0, 81, 113
2, 8154, Note_on_c, 0, 65, 38
2, 8176, Note_on_c, 0, 65, 0
2, 8197, Note_on_c, 0, 60, 0
2, 8199, Note_on_c, 0, 81, 0
2, 8207, Note_on_c, 0, 84, 80
2, 8251, Note_on_c, 0, 84, 0
2, 8266, Note_on_c, 0, 74, 58
2, 8334, Note_on_c, 0, 60, 35
2, 8335, Note_on_c, 0, 50, 29
2, 8421, Note_on_c, 0, 60, 0
2, 8426, Note_on_c, 0, 50, 0
2, 8432, Note_on_c, 0, 74, 0
2, 8521, Note_on_c, 0, 82, 55
2, 8527, Note_on_c, 0, 79, 47
2, 8528, Note_on_c, 0, 71, 41
2, 8529, Note_on_c, 0, 75, 43
2, 8529, Note_on_c, 0, 59, 46
2, 8531, Note_on_c, 0, 49, 34
2, 8533, Control_c, 0, 64, 0
2, 8563, Control_c, 0, 64, 127
2, 8574, Note_on_c, 0, 79, 0
2, 8575, Note_on_c, 0, 82, 0
2, 8588, Note_on_c, 0, 75, 0
2, 8595, Note_on_c, 0, 71, 0
2, 8602, Note_on_c, 0, 59, 0
2, 8706, Note_on_c, 0, 67, 33
2, 8708, Note_on_c, 0, 63, 37
2, 8709, Note_on_c, 0, 59, 40
2, 8712, Note_on_c, 0, 58, 25
2, 8788, Note_on_c, 0, 49, 0
2, 8800, Note_on_c, 0, 58, 0
2, 8802, Note_on_c, 0, 67, 0
2, 8845, Note_on_c, 0, 59, 0
2, 8855, Note_on_c, 0, 63, 0
2, 8902, Note_on_c, 0, 69, 55
2, 8904, Note_on_c, 0, 61, 56
2, 8904, Note_on_c, 0, 58, 45
2, 8908, Note_on_c, 0, 64, 50
2, 8908, Note_on_c, 0, 57, 46
2, 8914, Control_c, 0, 64, 0
2, 8952, Control_c, 0, 64, 127
2, 9012, Note_on_c, 0, 57, 0
2, 9070, Note_on_c, 0, 56, 15
2, 9078, Note_on_c, 0, 64, 0
2, 9086, Note_on_c, 0, 58, 0
2, 9089, Note_on_c, 0, 61, 0
2, 9098, Note_on_c, 0, 69, 0
2, 9115, Note_on_c, 0, 58, 43
2, 9119, Note_on_c, 0, 56, 0
2, 9119, Note_on_c, 0, 67, 44
2, 9125, Note_on_c, 0, 55, 38
2, 9126, Note_on_c, 0, 62, 31
2, 9132, Note_on_c, 0, 65, 27
2, 9134, Control_c, 0, 64, 0
2, 9186, Control_c, 0, 64, 127
2, 9238, Note_on_c, 0, 65, 0
2, 9239, Note_on_c, 0, 62, 0
2, 9239, Note_on_c, 0, 48, 32
2, 9250, Note_on_c, 0, 58, 0
2, 9251, Note_on_c, 0, 55, 0
2, 9255, Note_on_c, 0, 48, 0
2, 9258, Note_on_c, 0, 67, 0
2, 9311, Note_on_c, 0, 60, 53
2, 9315, Control_c, 0, 64, 0
2, 9318, Note_on_c, 0, 45, 30
2, 9320, Note_on_c, 0, 55, 16
2, 9324, Note_on_c, 0, 52, 18
2, 9347, Note_on_c, 0, 55, 0
2, 9349, Control_c, 0, 64, 127
2, 9357, Note_on_c, 0, 45, 0
2, 9368, Note_on_c, 0, 60, 0
2, 9369, Note_on_c, 0, 52, 0
2, 9494, Note_on_c, 0, 64, 26
2, 9497, Note_on_c, 0, 57, 26
2, 9498, Note_on_c, 0, 60, 32
2, 9552, Note_on_c, 0, 64, 0
2, 9582, Note_on_c, 0, 60, 0
2, 9599, Note_on_c, 0, 57, 0
2, 9610, Note_on_c, 0, 72, 83
2, 9629, Note_on_c, 0, 72, 0
2, 9678, Note_on_c, 0, 70, 53
2, 9680, Note_on_c, 0, 63, 42
2, 9681, Note_on_c, 0, 67, 40
2, 9683, Note_on_c, 0, 58, 32
2, 9688, Control_c, 0, 64, 0
2, 9743, Note_on_c, 0, 55, 41
2, 9750, Note_on_c, 0, 55, 0
2, 9804, Control_c, 0, 64, 127
2, 9816, Note_on_c, 0, 67, 0
2, 9858, Note_on_c, 0, 58, 0
2, 9863, Note_on_c, 0, 70, 0
2, 9889, Note_on_c, 0, 63, 0
2, 9929, Note_on_c, 0, 69, 45
2, 9931, Note_on_c, 0, 63, 40
2, 9932, Note_on_c, 0, 57, 33
2, 9935, Note_on_c, 0, 54, 37
2, 9938, Control_c, 0, 64, 0
2, 9978, Control_c, 0, 64, 127
2, 10007, Note_on_c, 0, 57, 0
2, 10014, Note_on_c, 0, 54, 0
2, 10014, Note_on_c, 0, 63, 0
2, 10033, Note_on_c, 0, 69, 0
2, 10053, Note_on_c, 0, 65, 36
2, 10057, Note_on_c, 0, 62, 33
2, 10057, Note_on_c, 0, 57, 26
2, 10060, Note_on_c, 0, 46, 29
2, 10061, Control_c, 0, 64, 0
2, 10089, Note_on_c, 0, 53, 1
2, 10102, Control_c, 0, 64, 127
2, 10135, Note_on_c, 0, 57, 0
2, 10164, Note_on_c, 0, 62, 0
2, 10165, Note_on_c, 0, 53, 0
2, 10201, Note_on_c, 0, 65, 0
2, 10235, Note_on_c, 0, 62, 30
2, 10239, Note_on_c, 0, 53, 20
2, 10262, Note_on_c, 0, 62, 0
2, 10340, Note_on_c, 0, 46, 0
2, 10341, Note_on_c, 0, 53, 0
2, 10423, Note_on_c, 0, 58, 36
2, 10424, Note_on_c, 0, 64, 26
2, 10480, Note_on_c, 0, 64, 0
2, 10483, Note_on_c, 0, 86, 79
2, 10496, Note_on_c, 0, 58, 0
2, 10518, Note_on_c, 0, 86, 0
2, 10541, Note_on_c, 0, 74, 50
2, 10553, Note_on_c, 0, 74, 0
2, 10608, Note_on_c, 0, 58, 32
2, 10610, Note_on_c, 0, 48, 35
2, 10625, Note_on_c, 0, 58, 0
2, 10629, Note_on_c, 0, 48, 0
2, 10725, Note_on_c, 0, 74, 73
2, 10778, Note_on_c, 0, 74, 0
2, 10790, Note_on_c, 0, 72, 51
2, 10795, Note_on_c, 0, 41, 22
2, 10798, Note_on_c, 0, 48, 29
2, 10799, Note_on_c, 0, 57, 30
2, 10800, Note_on_c, 0, 55, 27
2, 10802, Control_c, 0, 64, 0
2, 10812, Note_on_c, 0, 55, 0
2, 10836, Control_c, 0, 64, 127
2, 10853, Note_on_c, 0, 57, 0
2, 10868, Note_on_c, 0, 72, 0
2, 10960, Note_on_c, 0, 48, 0
2, 10979, Note_on_c, 0, 48, 17
2, 11016, Note_on_c, 0, 48, 0
2, 11030, Note_on_c, 0, 49, 36
2, 11032, Note_on_c, 0, 58, 70
2, 11033, Note_on_c, 0, 65, 58
2, 11068, Note_on_c, 0, 65, 0
2, 11069, Note_on_c, 0, 49, 0
2, 11080, Note_on_c, 0, 58, 0
2, 11081, Control_c, 0, 64, 0
2, 11089, Note_on_c, 0, 50, 41
2, 11090, Note_on_c, 0, 59, 62
2, 11091, Note_on_c, 0, 65, 54
2, 11101, Control_c, 0, 64, 127
2, 11119, Note_on_c, 0, 41, 0
2, 11123, Note_on_c, 0, 59, 0
2, 11128, Note_on_c, 0, 65, 0
2, 11149, Note_on_c, 0, 51, 54
2, 11151, Control_c, 0, 64, 0
2, 11152, Note_on_c, 0, 65, 49
2, 11153, Note_on_c, 0, 60, 54
2, 11157, Note_on_c, 0, 50, 0
2, 11194, Note_on_c, 0, 60, 0
2, 11196, Note_on_c, 0, 51, 0
2, 11208, Note_on_c, 0, 52, 46
2, 11208, Note_on_c, 0, 61, 52
2, 11240, Control_c, 0, 64, 127
2, 11246, Note_on_c, 0, 61, 0
2, 11246, Note_on_c, 0, 65, 0
2, 11252, Control_c, 0, 64, 0
2, 11263, Note_on_c, 0, 52, 0
2, 11266, Note_on_c, 0, 65, 56
2, 11266, Note_on_c, 0, 62, 68
2, 11266, Note_on_c, 0, 53, 58
2, 11322, Control_c, 0, 64, 127
2, 11379, Note_on_c, 0, 62, 0
2, 11380, Control_c, 0, 64, 0
2, 11382, Note_on_c, 0, 53, 0
2, 11386, Note_on_c, 0, 61, 38
2, 11387, Note_on_c, 0, 52, 37
2, 11431, Note_on_c, 0, 61, 0
2, 11436, Note_on_c, 0, 52, 0
2, 11443, Note_on_c, 0, 60, 51
2, 11443, Note_on_c, 0, 51, 37
2, 11487, Note_on_c, 0, 51, 0
2, 11499, Note_on_c, 0, 60, 0
2, 11500, Note_on_c, 0, 50, 37
2, 11500, Control_c, 0, 64, 127
2, 11500, Note_on_c, 0, 59, 44
2, 11516, Control_c, 0, 64, 0
2, 11540, Note_on_c, 0, 65, 0
2, 11550, Control_c, 0, 64, 127
2, 11553, Note_on_c, 0, 59, 0
2, 11558, Note_on_c, 0, 50, 0
2, 11559, Note_on_c, 0, 58, 34
2, 11560, Note_on_c, 0, 65, 8
2, 11566, Note_on_c, 0, 49, 28
2, 11600, Control_c, 0, 64, 0
2, 11605, Note_on_c, 0, 58, 0
2, 11611, Note_on_c, 0, 49, 0
2, 11619, Note_on_c, 0, 57, 51
2, 11621, Note_on_c, 0, 48, 36
2, 11642, Control_c, 0, 64, 127
2, 11681, Note_on_c, 0, 57, 0
2, 11685, Note_on_c, 0, 48, 0
2, 11686, Note_on_c, 0, 41, 58
2, 11693, Note_on_c, 0, 65, 0
2, 11705, Note_on_c, 0, 41, 0
2, 11804, Note_on_c, 0, 50, 70
2, 11804, Note_on_c, 0, 48, 66
2, 11805, Note_on_c, 0, 72, 84
2, 11806, Note_on_c, 0, 60, 85
2, 11813, Note_on_c, 0, 60, 0
2, 11824, Note_on_c, 0, 72, 0
2, 11855, Note_on_c, 0, 48, 0
2, 11858, Note_on_c, 0, 50, 0
2, 11863, Control_c, 0, 64, 0
2, 11868, Note_on_c, 0, 53, 73
2, 11869, Note_on_c, 0, 77, 90
2, 11869, Note_on_c, 0, 65, 96
2, 11904, Control_c, 0, 64, 127
2, 11980, Note_on_c, 0, 65, 0
2, 11988, Note_on_c, 0, 77, 0
2, 12087, Note_on_c, 0, 53, 0
2, 12178, Note_on_c, 0, 79, 34
2, 12178, Note_on_c, 0, 67, 40
2, 12180, Note_on_c, 0, 48, 31
2, 12196, Note_on_c, 0, 67, 0
2, 12196, Note_on_c, 0, 79, 0
2, 12236, Control_c, 0, 64, 0
2, 12237, Note_on_c, 0, 48, 0
2, 12237, Note_on_c, 0, 41, 40
2, 12240, Note_on_c, 0, 68, 46
2, 12240, Note_on_c, 0, 80, 50
2, 12244, Note_on_c, 0, 53, 26
2, 12262, Note_on_c, 0, 41, 0
2, 12262, Control_c, 0, 64, 127
2, 12274, Note_on_c, 0, 53, 0
2, 12333, Note_on_c, 0, 68, 0
2, 12397, Note_on_c, 0, 80, 0
2, 12413, Note_on_c, 0, 68, 48
2, 12414, Note_on_c, 0, 63, 25
2, 12417, Note_on_c, 0, 72, 25
2, 12418, Note_on_c, 0, 58, 35
2, 12420, Note_on_c, 0, 53, 19
2, 12426, Note_on_c, 0, 72, 0
2, 12434, Note_on_c, 0, 68, 0
2, 12437, Note_on_c, 0, 63, 0
2, 12443, Note_on_c, 0, 53, 0
2, 12452, Note_on_c, 0, 58, 0
2, 12528, Note_on_c, 0, 70, 68
2, 12529, Note_on_c, 0, 64, 64
2, 12530, Note_on_c, 0, 67, 55
2, 12531, Note_on_c, 0, 58, 33
2, 12531, Note_on_c, 0, 52, 59
2, 12544, Note_on_c, 0, 58, 0
2, 12546, Note_on_c, 0, 67, 0
2, 12555, Note_on_c, 0, 64, 0
2, 12578, Note_on_c, 0, 70, 0
2, 12586, Note_on_c, 0, 52, 0
2, 12596, Note_on_c, 0, 72, 67
2, 12598, Note_on_c, 0, 63, 58
2, 12600, Note_on_c, 0, 68, 57
2, 12604, Note_on_c, 0, 53, 55
2, 12611, Control_c, 0, 64, 0
2, 12650, Control_c, 0, 64, 127
2, 12680, Note_on_c, 0, 72, 0
2, 12686, Note_on_c, 0, 63, 0
2, 12697, Note_on_c, 0, 68, 0
2, 12777, Note_on_c, 0, 74, 59
2, 12781, Note_on_c, 0, 53, 0
2, 12781, Note_on_c, 0, 65, 54
2, 12783, Note_on_c, 0, 68, 53
2, 12784, Note_on_c, 0, 53, 42
2, 12838, Note_on_c, 0, 53, 0
2, 12875, Note_on_c, 0, 74, 0
2, 12897, Note_on_c, 0, 68, 0
2, 12899, Note_on_c, 0, 65, 0
2, 12962, Note_on_c, 0, 70, 71
2, 12963, Note_on_c, 0, 74, 70
2, 12963, Note_on_c, 0, 65, 76
2, 12968, Note_on_c, 0, 60, 63
2, 12968, Control_c, 0, 64, 0
2, 13000, Control_c, 0, 64, 127
2, 13054, Note_on_c, 0, 65, 0
2, 13091, Note_on_c, 0, 74, 0
2, 13100, Note_on_c, 0, 70, 0
2, 13135, Note_on_c, 0, 60, 0
2, 13142, Note_on_c, 0, 63, 45
2, 13143, Note_on_c, 0, 68, 50
2, 13145, Note_on_c, 0, 72, 49
2, 13145, Note_on_c, 0, 58, 42
2, 13157, Control_c, 0, 64, 0
2, 13191, Control_c, 0, 64, 127
2, 13222, Note_on_c, 0, 72, 0
2, 13233, Note_on_c, 0, 63, 0
2, 13239, Note_on_c, 0, 68, 0
2, 13320, Note_on_c, 0, 58, 0
2, 13324, Note_on_c, 0, 61, 31
2, 13325, Note_on_c, 0, 70, 42
2, 13327, Note_on_c, 0, 66, 40
2, 13333, Control_c, 0, 64, 0
2, 13335, Note_on_c, 0, 56, 25
2, 13359, Control_c, 0, 64, 127
2, 13400, Note_on_c, 0, 70, 0
2, 13402, Note_on_c, 0, 61, 0
2, 13403, Note_on_c, 0, 66, 0
2, 13500, Note_on_c, 0, 68, 40
2, 13501, Note_on_c, 0, 64, 34
2, 13503, Note_on_c, 0, 59, 31
2, 13506, Note_on_c, 0, 54, 34
2, 13510, Note_on_c, 0, 56, 0
2, 13510, Control_c, 0, 64, 0
2, 13525, Control_c, 0, 64, 127
2, 13542, Note_on_c, 0, 54, 0
2, 13612, Note_on_c, 0, 44, 59
2, 13617, Note_on_c, 0, 64, 0
2, 13620, Note_on_c, 0, 59, 0
2, 13664, Note_on_c, 0, 44, 0
2, 13682, Note_on_c, 0, 59, 42
2, 13684, Note_on_c, 0, 63, 44
2, 13685, Note_on_c, 0, 53, 40
2, 13686, Note_on_c, 0, 43, 37
2, 13697, Control_c, 0, 64, 0
2, 13748, Control_c, 0, 64, 127
2, 13758, Note_on_c, 0, 53, 0
2, 13808, Note_on_c, 0, 59, 0
2, 13812, Note_on_c, 0, 63, 0
2, 13860, Note_on_c, 0, 59, 37
2, 13861, Note_on_c, 0, 63, 43
2, 13863, Note_on_c, 0, 53, 35
2, 13951, Note_on_c, 0, 53, 0
2, 13970, Note_on_c, 0, 59, 0
2, 13984, Note_on_c, 0, 68, 0
2, 13987, Note_on_c, 0, 63, 0
2, 14036, Note_on_c, 0, 67, 42
2, 14038, Note_on_c, 0, 59, 44
2, 14039, Note_on_c, 0, 64, 44
2, 14040, Note_on_c, 0, 53, 39
2, 14051, Control_c, 0, 64, 0
2, 14093, Control_c, 0, 64, 127
2, 14113, Note_on_c, 0, 64, 0
2, 14115, Note_on_c, 0, 43, 0
2, 14134, Note_on_c, 0, 63, 57
2, 14192, Note_on_c, 0, 63, 0
2, 14193, Note_on_c, 0, 59, 0
2, 14197, Note_on_c, 0, 53, 0
2, 14206, Note_on_c, 0, 67, 0
2, 14223, Note_on_c, 0, 63, 48
2, 14223, Note_on_c, 0, 53, 30
2, 14225, Note_on_c, 0, 67, 35
2, 14225, Note_on_c, 0, 59, 40
2, 14253, Note_on_c, 0, 53, 0
2, 14297, Note_on_c, 0, 59, 0
2, 14302, Note_on_c, 0, 63, 0
2, 14310, Note_on_c, 0, 62, 51
2, 14358, Note_on_c, 0, 62, 0
2, 14395, Note_on_c, 0, 67, 0
2, 14404, Note_on_c, 0, 36, 30
2, 14406, Note_on_c, 0, 62, 37
2, 14406, Note_on_c, 0, 67, 18
2, 14407, Note_on_c, 0, 59, 37
2, 14408, Note_on_c, 0, 52, 35
2, 14414, Control_c, 0, 64, 0
2, 14458, Control_c, 0, 64, 127
2, 14485, Note_on_c, 0, 62, 0
2, 14487, Note_on_c, 0, 59, 0
2, 14506, Note_on_c, 0, 64, 47
2, 14512, Note_on_c, 0, 59, 16
2, 14515, Note_on_c, 0, 52, 0
2, 14553, Note_on_c, 0, 64, 0
2, 14554, Note_on_c, 0, 59, 0
2, 14580, Note_on_c, 0, 67, 0
2, 14598, Note_on_c, 0, 52, 48
2, 14600, Note_on_c, 0, 59, 34
2, 14601, Note_on_c, 0, 64, 40
2, 14602, Control_c, 0, 64, 0
2, 14629, Note_on_c, 0, 59, 0
2, 14630, Control_c, 0, 64, 127
2, 14646, Note_on_c, 0, 64, 0
2, 14646, Note_on_c, 0, 36, 0
2, 14666, Note_on_c, 0, 52, 0
2, 14851, Note_on_c, 0, 48, 67
2, 14851, Note_on_c, 0, 84, 81
2, 14852, Note_on_c, 0, 72, 77
2, 14885, Note_on_c, 0, 72, 0
2, 14886, Note_on_c, 0, 84, 0
2, 14889, Note_on_c, 0, 48, 0
2, 14900, Note_on_c, 0, 72, 58
2, 14901, Note_on_c, 0, 84, 63
2, 14902, Note_on_c, 0, 48, 60
2, 14919, Note_on_c, 0, 72, 0
2, 14925, Note_on_c, 0, 84, 0
2, 14944, Note_on_c, 0, 48, 0
2, 14957, Note_on_c, 0, 52, 56
2, 14957, Note_on_c, 0, 88, 53
2, 14958, Note_on_c, 0, 86, 44
2, 14958, Note_on_c, 0, 76, 36
2, 14967, Note_on_c, 0, 86, 0
2, 14968, Note_on_c, 0, 76, 0
2, 14968, Note_on_c, 0, 88, 0
2, 14972, Note_on_c, 0, 52, 0
2, 15010, Note_on_c, 0, 52, 53
2, 15011, Note_on_c, 0, 88, 53
2, 15012, Note_on_c, 0, 76, 44
2, 15021, Note_on_c, 0, 76, 0
2, 15028, Note_on_c, 0, 88, 0
2, 15060, Note_on_c, 0, 52, 0
2, 15067, Note_on_c, 0, 79, 67
2, 15067, Note_on_c, 0, 91, 49
2, 15069, Note_on_c, 0, 55, 46
2, 15076, Note_on_c, 0, 55, 0
2, 15083, Note_on_c, 0, 79, 0
2, 15085, Note_on_c, 0, 91, 0
2, 15129, Note_on_c, 0, 92, 74
2, 15130, Note_on_c, 0, 56, 42
2, 15131, Note_on_c, 0, 80, 59
2, 15132, Note_on_c, 0, 60, 45
2, 15133, Note_on_c, 0, 50, 32
2, 15142, Control_c, 0, 64, 0
2, 15172, Control_c, 0, 64, 127
2, 15204, Note_on_c, 0, 50, 0
2, 15212, Note_on_c, 0, 92, 0
2, 15212, Note_on_c, 0, 56, 0
2, 15216, Note_on_c, 0, 60, 0
2, 15223, Note_on_c, 0, 80, 0
2, 15307, Note_on_c, 0, 68, 62
2, 15310, Note_on_c, 0, 72, 63
2, 15313, Note_on_c, 0, 64, 42
2, 15362, Note_on_c, 0, 68, 0
2, 15375, Note_on_c, 0, 76, 64
2, 15381, Note_on_c, 0, 72, 0
2, 15383, Note_on_c, 0, 64, 0
2, 15416, Note_on_c, 0, 76, 0
2, 15437, Note_on_c, 0, 79, 88
2, 15481, Note_on_c, 0, 79, 0
2, 15495, Note_on_c, 0, 79, 71
2, 15503, Note_on_c, 0, 72, 59
2, 15503, Note_on_c, 0, 67, 43
2, 15506, Note_on_c, 0, 68, 45
2, 15509, Control_c, 0, 64, 0
2, 15535, Control_c, 0, 64, 127
2, 15545, Note_on_c, 0, 72, 0
2, 15555, Note_on_c, 0, 68, 0
2, 15566, Note_on_c, 0, 72, 39
2, 15572, Note_on_c, 0, 79, 0
2, 15585, Note_on_c, 0, 67, 0
2, 15596, Note_on_c, 0, 72, 0
2, 15688, Note_on_c, 0, 72, 41
2, 15688, Note_on_c, 0, 68, 35
2, 15690, Note_on_c, 0, 65, 30
2, 15712, Note_on_c, 0, 65, 0
2, 15738, Note_on_c, 0, 72, 0
2, 15748, Note_on_c, 0, 68, 0
2, 15806, Note_on_c, 0, 56, 31
2, 15832, Note_on_c, 0, 56, 0
2, 15873, Note_on_c, 0, 67, 47
2, 15876, Note_on_c, 0, 60, 55
2, 15880, Note_on_c, 0, 50, 32
2, 15880, Note_on_c, 0, 56, 28
2, 15891, Control_c, 0, 64, 0
2, 15922, Control_c, 0, 64, 127
2, 15939, Note_on_c, 0, 56, 0
2, 15944, Note_on_c, 0, 50, 0
2, 15972, Note_on_c, 0, 60, 0
2, 15979, Note_on_c, 0, 67, 0
2, 16058, Note_on_c, 0, 62, 54
2, 16059, Note_on_c, 0, 56, 55
2, 16060, Note_on_c, 0, 53, 63
2, 16062, Note_on_c, 0, 60, 64
2, 16079, Control_c, 0, 64, 0
2, 16122, Note_on_c, 0, 53, 0
2, 16149, Control_c, 0, 64, 127
2, 16156, Note_on_c, 0, 55, 83
2, 16205, Note_on_c, 0, 60, 0
2, 16214, Note_on_c, 0, 56, 0
2, 16232, Note_on_c, 0, 62, 0
2, 16248, Note_on_c, 0, 59, 51
2, 16249, Note_on_c, 0, 56, 40
2, 16250, Note_on_c, 0, 64, 48
2, 16253, Note_on_c, 0, 62, 24
2, 16322, Note_on_c, 0, 59, 0
2, 16326, Note_on_c, 0, 62, 0
2, 16327, Note_on_c, 0, 64, 0
2, 16329, Note_on_c, 0, 56, 0
2, 16337, Note_on_c, 0, 43, 37
2, 16372, Note_on_c, 0, 55, 0
2, 16418, Control_c, 0, 64, 0
2, 16418, Note_on_c, 0, 65, 48
2, 16419, Note_on_c, 0, 56, 33
2, 16420, Note_on_c, 0, 62, 46
2, 16421, Note_on_c, 0, 53, 35
2, 16446, Control_c, 0, 64, 127
2, 16463, Note_on_c, 0, 43, 0
2, 16505, Note_on_c, 0, 56, 0
2, 16512, Note_on_c, 0, 65, 0
2, 16513, Note_on_c, 0, 62, 0
2, 16514, Note_on_c, 0, 43, 34
2, 16527, Note_on_c, 0, 43, 0
2, 16540, Note_on_c, 0, 53, 0
2, 16601, Note_on_c, 0, 68, 42
2, 16601, Note_on_c, 0, 59, 41
2, 16604, Note_on_c, 0, 65, 48
2, 16606, Note_on_c, 0, 63, 46
2, 16609, Note_on_c, 0, 49, 42
2, 16616, Control_c, 0, 64, 0
2, 16657, Control_c, 0, 64, 127
2, 16686, Note_on_c, 0, 59, 0
2, 16714, Note_on_c, 0, 65, 0
2, 16717, Note_on_c, 0, 63, 0
2, 16787, Note_on_c, 0, 63, 38
2, 16789, Note_on_c, 0, 56, 34
2, 16790, Note_on_c, 0, 65, 31
2, 16792, Note_on_c, 0, 59, 36
2, 16810, Note_on_c, 0, 65, 0
2, 16812, Note_on_c, 0, 59, 0
2, 16819, Note_on_c, 0, 68, 0
2, 16820, Note_on_c, 0, 63, 0
2, 16882, Note_on_c, 0, 79, 69
2, 16897, Note_on_c, 0, 49, 0
2, 16904, Note_on_c, 0, 79, 0
2, 16922, Note_on_c, 0, 79, 64
2, 16953, Note_on_c, 0, 79, 0
2, 16960, Note_on_c, 0, 56, 0
2, 16972, Note_on_c, 0, 79, 51
2, 16974, Note_on_c, 0, 70, 60
2, 16974, Control_c, 0, 64, 0
2, 16976, Note_on_c, 0, 75, 55
2, 16976, Note_on_c, 0, 59, 36
2, 16978, Note_on_c, 0, 53, 51
2, 16978, Note_on_c, 0, 49, 33
2, 17013, Control_c, 0, 64, 127
2, 17039, Note_on_c, 0, 53, 0
2, 17044, Note_on_c, 0, 70, 0
2, 17044, Note_on_c, 0, 49, 0
2, 17054, Note_on_c, 0, 77, 15
2, 17058, Note_on_c, 0, 59, 0
2, 17078, Note_on_c, 0, 79, 0
2, 17084, Note_on_c, 0, 77, 0
2, 17104, Note_on_c, 0, 75, 0
2, 17155, Note_on_c, 0, 63, 32
2, 17158, Note_on_c, 0, 70, 38
2, 17158, Note_on_c, 0, 59, 32
2, 17158, Note_on_c, 0, 67, 35
2, 17161, Note_on_c, 0, 53, 26
2, 17204, Note_on_c, 0, 63, 0
2, 17213, Note_on_c, 0, 59, 0
2, 17220, Note_on_c, 0, 70, 0
2, 17230, Note_on_c, 0, 67, 0
2, 17237, Note_on_c, 0, 53, 0
2, 17336, Note_on_c, 0, 65, 34
2, 17338, Note_on_c, 0, 67, 49
2, 17344, Note_on_c, 0, 62, 36
2, 17345, Note_on_c, 0, 58, 31
2, 17364, Control_c, 0, 64, 0
2, 17432, Note_on_c, 0, 55, 52
2, 17449, Control_c, 0, 64, 127
2, 17514, Note_on_c, 0, 55, 0
2, 17520, Note_on_c, 0, 48, 35
2, 17531, Note_on_c, 0, 48, 0
2, 17608, Note_on_c, 0, 43, 42
2, 17622, Note_on_c, 0, 43, 0
2, 17701, Note_on_c, 0, 36, 50
2, 17741, Control_c, 0, 64, 0
2, 17747, Control_c, 0, 64, 127
2, 17786, Note_on_c, 0, 67, 0
2, 17788, Note_on_c, 0, 36, 0
2, 17788, Note_on_c, 0, 62, 0
2, 17790, Note_on_c, 0, 65, 0
2, 17792, Note_on_c, 0, 24, 44
2, 17798, Note_on_c, 0, 58, 0
2, 17800, Note_on_c, 0, 24, 0
2, 17888, Note_on_c, 0, 63, 52
2, 17890, Note_on_c, 0, 58, 40
2, 17890, Note_on_c, 0, 56, 39
2, 17890, Note_on_c, 0, 52, 43
2, 17892, Note_on_c, 0, 42, 39
2, 17895, Note_on_c, 0, 49, 32
2, 17903, Control_c, 0, 64, 0
2, 17942, Control_c, 0, 64, 127
2, 17981, Note_on_c, 0, 52, 0
2, 17991, Note_on_c, 0, 42, 0
2, 18002, Note_on_c, 0, 49, 0
2, 18004, Note_on_c, 0, 58, 0
2, 18014, Note_on_c, 0, 63, 0
2, 18016, Note_on_c, 0, 56, 0
2, 18079, Note_on_c, 0, 41, 35
2, 18079, Note_on_c, 0, 48, 43
2, 18079, Note_on_c, 0, 60, 46
2, 18080, Note_on_c, 0, 55, 32
2, 18081, Control_c, 0, 64, 0
2, 18082, Note_on_c, 0, 57, 44
2, 18118, Control_c, 0, 64, 127
2, 18132, Note_on_c, 0, 55, 0
2, 18136, Note_on_c, 0, 41, 0
2, 18141, Note_on_c, 0, 57, 0
2, 18144, Note_on_c, 0, 48, 0
2, 18147, Note_on_c, 0, 60, 0
2, 18266, Note_on_c, 0, 60, 41
2, 18378, Note_on_c, 0, 77, 80
2, 18407, Note_on_c, 0, 77, 0
2, 18434, Note_on_c, 0, 60, 0
2, 18446, Note_on_c, 0, 76, 65
2, 18450, Note_on_c, 0, 65, 42
2, 18450, Note_on_c, 0, 61, 36
2, 18451, Note_on_c, 0, 73, 51
2, 18451, Note_on_c, 0, 69, 55
2, 18459, Control_c, 0, 64, 0
2, 18491, Control_c, 0, 64, 127
2, 18576, Note_on_c, 0, 61, 0
2, 18586, Note_on_c, 0, 65, 0
2, 18587, Note_on_c, 0, 69, 0
2, 18595, Note_on_c, 0, 73, 0
2, 18607, Note_on_c, 0, 76, 0
2, 18628, Note_on_c, 0, 74, 49
2, 18631, Note_on_c, 0, 65, 38
2, 18632, Note_on_c, 0, 62, 40
2, 18632, Note_on_c, 0, 69, 47
2, 18670, Note_on_c, 0, 62, 0
2, 18681, Note_on_c, 0, 74, 0
2, 18684, Note_on_c, 0, 69, 0
2, 18692, Note_on_c, 0, 65, 0
2, 18753, Note_on_c, 0, 50, 34
2, 18802, Note_on_c, 0, 50, 0
2, 18819, Note_on_c, 0, 58, 35
2, 18820, Note_on_c, 0, 43, 34
2, 18821, Note_on_c, 0, 57, 22
2, 18824, Note_on_c, 0, 53, 22
2, 18826, Control_c, 0, 64, 0
2, 18857, Control_c, 0, 64, 127
2, 18873, Note_on_c, 0, 57, 0
2, 18874, Note_on_c, 0, 43, 0
2, 18886, Note_on_c, 0, 53, 0
2, 18890, Note_on_c, 0, 58, 0
2, 18998, Note_on_c, 0, 58, 36
2, 19003, Note_on_c, 0, 62, 19
2, 19054, Note_on_c, 0, 62, 0
2, 19071, Note_on_c, 0, 58, 0
2, 19112, Note_on_c, 0, 77, 89
2, 19153, Note_on_c, 0, 77, 0
2, 19187, Note_on_c, 0, 77, 68
2, 19191, Note_on_c, 0, 70, 60
2, 19193, Note_on_c, 0, 58, 29
2, 19194, Note_on_c, 0, 74, 41
2, 19194, Note_on_c, 0, 48, 33
2, 19196, Control_c, 0, 64, 0
2, 19196, Note_on_c, 0, 65, 52
2, 19229, Control_c, 0, 64, 127
2, 19266, Note_on_c, 0, 74, 0
2, 19274, Note_on_c, 0, 77, 0
2, 19284, Note_on_c, 0, 65, 0
2, 19287, Note_on_c, 0, 58, 0
2, 19294, Note_on_c, 0, 70, 0
2, 19369, Note_on_c, 0, 76, 55
2, 19369, Note_on_c, 0, 73, 56
2, 19371, Note_on_c, 0, 68, 60
2, 19373, Note_on_c, 0, 58, 35
2, 19375, Note_on_c, 0, 64, 50
2, 19381, Control_c, 0, 64, 0
2, 19397, Control_c, 0, 64, 127
2, 19417, Note_on_c, 0, 48, 0
2, 19472, Note_on_c, 0, 76, 0
2, 19476, Note_on_c, 0, 73, 0
2, 19480, Note_on_c, 0, 64, 0
2, 19483, Note_on_c, 0, 68, 0
2, 19487, Note_on_c, 0, 48, 34
2, 19511, Note_on_c, 0, 58, 0
2, 19558, Note_on_c, 0, 65, 37
2, 19559, Note_on_c, 0, 72, 52
2, 19560, Note_on_c, 0, 60, 49
2, 19561, Note_on_c, 0, 57, 35
2, 19568, Control_c, 0, 64, 0
2, 19608, Control_c, 0, 64, 127
2, 19625, Note_on_c, 0, 48, 0
2, 19658, Note_on_c, 0, 72, 0
2, 19701, Note_on_c, 0, 65, 0
2, 19737, Note_on_c, 0, 48, 48
2, 19788, Note_on_c, 0, 60, 0
2, 19822, Note_on_c, 0, 57, 0
2, 19838, Note_on_c, 0, 48, 0
2, 19842, Note_on_c, 0, 69, 90
2, 19866, Note_on_c, 0, 69, 0
2, 19894, Note_on_c, 0, 66, 27
2, 19902, Note_on_c, 0, 66, 0
2, 19922, Note_on_c, 0, 67, 62
2, 19924, Note_on_c, 0, 61, 57
2, 19926, Note_on_c, 0, 55, 37
2, 19926, Note_on_c, 0, 58, 48
2, 19928, Note_on_c, 0, 45, 30
2, 19928, Control_c, 0, 64, 0
2, 19972, Control_c, 0, 64, 127
2, 20035, Note_on_c, 0, 55, 0
2, 20111, Note_on_c, 0, 55, 39
2, 20120, Note_on_c, 0, 58, 0
2, 20131, Note_on_c, 0, 61, 0
2, 20162, Note_on_c, 0, 45, 0
2, 20186, Note_on_c, 0, 55, 0
2, 20195, Note_on_c, 0, 67, 0
2, 20218, Note_on_c, 0, 65, 55
2, 20235, Note_on_c, 0, 65, 0
2, 20295, Note_on_c, 0, 70, 55
2, 20299, Note_on_c, 0, 62, 28
2, 20302, Control_c, 0, 64, 0
2, 20302, Note_on_c, 0, 58, 30
2, 20304, Note_on_c, 0, 65, 36
2, 20305, Note_on_c, 0, 50, 42
2, 20352, Control_c, 0, 64, 127
2, 20374, Note_on_c, 0, 58, 0
2, 20400, Note_on_c, 0, 65, 0
2, 20419, Note_on_c, 0, 62, 0
2, 20424, Note_on_c, 0, 70, 0
2, 20486, Note_on_c, 0, 74, 82
2, 20487, Note_on_c, 0, 70, 87
2, 20488, Note_on_c, 0, 62, 90
2, 20489, Note_on_c, 0, 58, 61
2, 20552, Note_on_c, 0, 50, 0
2, 20602, Note_on_c, 0, 50, 34
2, 20606, Note_on_c, 0, 62, 0
2, 20612, Note_on_c, 0, 74, 0
2, 20613, Note_on_c, 0, 58, 0
2, 20620, Note_on_c, 0, 70, 0
2, 20682, Note_on_c, 0, 63, 44
2, 20682, Note_on_c, 0, 72, 54
2, 20683, Note_on_c, 0, 57, 39
2, 20684, Note_on_c, 0, 69, 57
2, 20685, Note_on_c, 0, 66, 46
2, 20686, Control_c, 0, 64, 0
2, 20728, Control_c, 0, 64, 127
2, 20761, Note_on_c, 0, 72, 0
2, 20771, Note_on_c, 0, 63, 0
2, 20772, Note_on_c, 0, 69, 0
2, 20773, Note_on_c, 0, 57, 0
2, 20790, Note_on_c, 0, 66, 0
2, 20866, Note_on_c, 0, 70, 55
2, 20870, Note_on_c, 0, 62, 33
2, 20871, Note_on_c, 0, 65, 37
2, 20874, Note_on_c, 0, 55, 35
2, 20910, Note_on_c, 0, 50, 0
2, 20946, Note_on_c, 0, 70, 0
2, 20950, Note_on_c, 0, 65, 0
2, 20950, Note_on_c, 0, 55, 0
2, 20963, Note_on_c, 0, 62, 0
2, 21053, Note_on_c, 0, 60, 43
2, 21056, Note_on_c, 0, 69, 46
2, 21056, Note_on_c, 0, 65, 50
2, 21056, Note_on_c, 0, 48, 41
2, 21060, Note_on_c, 0, 57, 32
2, 21061, Control_c, 0, 64, 0
2, 21102, Control_c, 0, 64, 127
2, 21140, Note_on_c, 0, 57, 0
2, 21149, Note_on_c, 0, 60, 0
2, 21166, Note_on_c, 0, 65, 0
2, 21193, Note_on_c, 0, 69, 0
2, 21240, Note_on_c, 0, 67, 41
2, 21242, Note_on_c, 0, 57, 24
2, 21243, Note_on_c, 0, 60, 39
2, 21244, Note_on_c, 0, 65, 48
2, 21249, Note_on_c, 0, 57, 0
2, 21260, Note_on_c, 0, 48, 0
2, 21337, Note_on_c, 0, 65, 0
2, 21342, Note_on_c, 0, 67, 0
2, 21349, Note_on_c, 0, 48, 43
2, 21349, Note_on_c, 0, 36, 38
2, 21352, Note_on_c, 0, 60, 0
2, 21392, Note_on_c, 0, 48, 0
2, 21398, Note_on_c, 0, 36, 0
2, 21451, Note_on_c, 0, 65, 45
2, 21452, Note_on_c, 0, 62, 39
2, 21453, Note_on_c, 0, 55, 39
2, 21454, Note_on_c, 0, 59, 45
2, 21454, Note_on_c, 0, 36, 50
2, 21458, Control_c, 0, 64, 0
2, 21458, Note_on_c, 0, 48, 22
2, 21504, Control_c, 0, 64, 127
2, 21534, Note_on_c, 0, 48, 0
2, 21545, Note_on_c, 0, 65, 0
2, 21553, Note_on_c, 0, 55, 0
2, 21563, Note_on_c, 0, 59, 0
2, 21572, Note_on_c, 0, 62, 0
2, 21651, Note_on_c, 0, 67, 40
2, 21654, Note_on_c, 0, 59, 47
2, 21654, Note_on_c, 0, 55, 34
2, 21656, Note_on_c, 0, 62, 35
2, 21657, Note_on_c, 0, 48, 39
2, 21666, Note_on_c, 0, 48, 0
2, 21686, Note_on_c, 0, 36, 0
2, 21727, Note_on_c, 0, 67, 0
2, 21732, Note_on_c, 0, 62, 0
2, 21737, Note_on_c, 0, 59, 0
2, 21742, Note_on_c, 0, 55, 0
2, 21862, Note_on_c, 0, 53, 45
2, 21864, Note_on_c, 0, 58, 38
2, 21865, Note_on_c, 0, 36, 31
2, 21865, Note_on_c, 0, 60, 51
2, 21867, Note_on_c, 0, 24, 30
2, 21877, Control_c, 0, 64, 0
2, 21938, Control_c, 0, 64, 127
2, 21958, Note_on_c, 0, 36, 0
2, 21978, Note_on_c, 0, 53, 0
2, 22090, Note_on_c, 0, 53, 43
2, 22091, Note_on_c, 0, 36, 41
2, 22168, Note_on_c, 0, 60, 0
2, 22173, Note_on_c, 0, 24, 0
2, 22180, Note_on_c, 0, 53, 0
2, 22199, Note_on_c, 0, 58, 0
2, 22203, Note_on_c, 0, 36, 0
2, 22327, Note_on_c, 0, 24, 41
2, 22363, Note_on_c, 0, 36, 54
2, 22391, Note_on_c, 0, 52, 53
2, 22437, Note_on_c, 0, 64, 68
2, 22441, Note_on_c, 0, 58, 59
2, 22698, Note_on_c, 0, 64, 0
2, 22729, Note_on_c, 0, 64, 47
2, 22760, Note_on_c, 0, 24, 0
2, 22782, Note_on_c, 0, 36, 0
2, 22829, Note_on_c, 0, 52, 0
2, 22922, Note_on_c, 0, 58, 0
2, 22958, Note_on_c, 0, 64, 0
2, 23215, Control_c, 0, 64, 0
2, 23304, Note_on_c, 0, 41, 33
2, 23386, Note_on_c, 0, 65, 50
2, 23387, Note_on_c, 0, 57, 41
2, 23390, Note_on_c, 0, 60, 43
2, 23391, Note_on_c, 0, 53, 38
2, 23436, Control_c, 0, 64, 127
2, 23463, Note_on_c, 0, 65, 0
2, 23464, Note_on_c, 0, 60, 0
2, 23467, Note_on_c, 0, 53, 0
2, 23481, Note_on_c, 0, 57, 0
2, 23518, Note_on_c, 0, 46, 30
2, 23519, Note_on_c, 0, 41, 0
2, 23535, Note_on_c, 0, 46, 0
2, 23540, Control_c, 0, 64, 0
2, 23540, Note_on_c, 0, 64, 37
2, 23542, Note_on_c, 0, 61, 37
2, 23544, Note_on_c, 0, 53, 26
2, 23544, Note_on_c, 0, 57, 44
2, 23546, Note_on_c, 0, 49, 35
2, 23584, Control_c, 0, 64, 127
2, 23600, Note_on_c, 0, 57, 0
2, 23600, Note_on_c, 0, 53, 0
2, 23606, Note_on_c, 0, 61, 0
2, 23618, Note_on_c, 0, 64, 0
2, 23624, Note_on_c, 0, 49, 0
2, 23635, Note_on_c, 0, 62, 51
2, 23636, Control_c, 0, 64, 0
2, 23639, Note_on_c, 0, 53, 34
2, 23639, Note_on_c, 0, 57, 39
2, 23646, Note_on_c, 0, 53, 0
2, 23648, Note_on_c, 0, 57, 0
2, 23648, Note_on_c, 0, 50, 35
2, 23657, Note_on_c, 0, 62, 0
2, 23682, Control_c, 0, 64, 127
2, 23748, Note_on_c, 0, 67, 58
2, 23748, Note_on_c, 0, 58, 57
2, 23751, Note_on_c, 0, 62, 58
2, 23752, Control_c, 0, 64, 0
2, 23758, Note_on_c, 0, 62, 0
2, 23758, Note_on_c, 0, 50, 0
2, 23760, Note_on_c, 0, 58, 0
2, 23767, Note_on_c, 0, 67, 0
2, 23773, Note_on_c, 0, 43, 24
2, 23783, Note_on_c, 0, 43, 0
2, 23784, Control_c, 0, 64, 127
2, 23863, Note_on_c, 0, 77, 70
2, 23866, Note_on_c, 0, 74, 50
2, 23866, Note_on_c, 0, 70, 64
2, 23866, Note_on_c, 0, 65, 60
2, 23883, Control_c, 0, 64, 0
2, 23884, Note_on_c, 0, 65, 0
2, 23886, Note_on_c, 0, 70, 0
2, 23886, Note_on_c, 0, 62, 29
2, 23890, Note_on_c, 0, 74, 0
2, 23891, Note_on_c, 0, 58, 33
2, 23892, Note_on_c, 0, 77, 0
2, 23896, Note_on_c, 0, 62, 0
2, 23912, Note_on_c, 0, 58, 0
2, 23938, Control_c, 0, 64, 127
2, 23980, Note_on_c, 0, 76, 54
2, 23982, Note_on_c, 0, 73, 57
2, 23983, Note_on_c, 0, 68, 56
2, 23985, Note_on_c, 0, 64, 49
2, 23987, Control_c, 0, 64, 0
2, 24006, Note_on_c, 0, 58, 21
2, 24011, Note_on_c, 0, 48, 27
2, 24019, Control_c, 0, 64, 127
2, 24074, Note_on_c, 0, 58, 0
2, 24088, Note_on_c, 0, 68, 0
2, 24091, Note_on_c, 0, 64, 0
2, 24116, Note_on_c, 0, 76, 0
2, 24124, Note_on_c, 0, 73, 0
2, 24135, Note_on_c, 0, 68, 42
2, 24140, Note_on_c, 0, 58, 34
2, 24146, Note_on_c, 0, 64, 19
2, 24187, Note_on_c, 0, 68, 0
2, 24188, Note_on_c, 0, 64, 0
2, 24201, Note_on_c, 0, 58, 0
2, 24220, Note_on_c, 0, 67, 35
2, 24221, Note_on_c, 0, 62, 32
2, 24225, Note_on_c, 0, 72, 24
2, 24226, Note_on_c, 0, 57, 32
2, 24235, Control_c, 0, 64, 0
2, 24265, Note_on_c, 0, 72, 0
2, 24272, Control_c, 0, 64, 127
2, 24285, Note_on_c, 0, 48, 0
2, 24310, Note_on_c, 0, 67, 0
2, 24321, Note_on_c, 0, 62, 0
2, 24370, Note_on_c, 0, 57, 0
2, 24389, Note_on_c, 0, 69, 77
2, 24389, Note_on_c, 0, 61, 74
2, 24390, Note_on_c, 0, 65, 78
2, 24394, Control_c, 0, 64, 0
2, 24395, Note_on_c, 0, 57, 42
2, 24396, Note_on_c, 0, 51, 49
2, 24425, Control_c, 0, 64, 127
2, 24436, Note_on_c, 0, 57, 0
2, 24447, Note_on_c, 0, 69, 0
2, 24458, Note_on_c, 0, 65, 0
2, 24470, Note_on_c, 0, 61, 0
2, 24584, Note_on_c, 0, 67, 55
2, 24584, Control_c, 0, 64, 0
2, 24585, Note_on_c, 0, 60, 60
2, 24586, Note_on_c, 0, 51, 0
2, 24586, Note_on_c, 0, 64, 45
2, 24587, Note_on_c, 0, 55, 49
2, 24591, Note_on_c, 0, 50, 36
2, 24623, Control_c, 0, 64, 127
2, 24640, Note_on_c, 0, 60, 0
2, 24646, Note_on_c, 0, 50, 0
2, 24653, Note_on_c, 0, 55, 0
2, 24654, Note_on_c, 0, 64, 0
2, 24658, Note_on_c, 0, 67, 0
2, 24664, Note_on_c, 0, 65, 64
2, 24668, Note_on_c, 0, 60, 28
2, 24678, Note_on_c, 0, 60, 0
2, 24678, Note_on_c, 0, 65, 0
2, 24741, Note_on_c, 0, 68, 44
2, 24742, Control_c, 0, 64, 0
2, 24748, Note_on_c, 0, 68, 0
2, 24748, Note_on_c, 0, 59, 61
2, 24748, Note_on_c, 0, 70, 55
2, 24749, Note_on_c, 0, 49, 39
2, 24752, Note_on_c, 0, 63, 44
2, 24752, Note_on_c, 0, 67, 44
2, 24754, Note_on_c, 0, 58, 18
2, 24801, Control_c, 0, 64, 127
2, 24839, Note_on_c, 0, 63, 0
2, 24854, Note_on_c, 0, 59, 0
2, 24866, Note_on_c, 0, 58, 0
2, 24871, Note_on_c, 0, 67, 0
2, 24882, Note_on_c, 0, 59, 17
2, 24882, Note_on_c, 0, 63, 37
2, 24898, Note_on_c, 0, 70, 0
2, 24903, Note_on_c, 0, 59, 0
2, 24910, Note_on_c, 0, 49, 0
2, 24917, Note_on_c, 0, 63, 0
2, 24968, Note_on_c, 0, 69, 57
2, 24969, Note_on_c, 0, 58, 35
2, 24970, Note_on_c, 0, 61, 45
2, 24971, Note_on_c, 0, 64, 45
2, 24976, Control_c, 0, 64, 0
2, 24977, Note_on_c, 0, 55, 25
2, 24995, Note_on_c, 0, 48, 1
2, 25018, Control_c, 0, 64, 127
2, 25051, Note_on_c, 0, 64, 0
2, 25058, Note_on_c, 0, 61, 0
2, 25059, Note_on_c, 0, 58, 0
2, 25063, Note_on_c, 0, 48, 0
2, 25064, Note_on_c, 0, 69, 0
2, 25071, Note_on_c, 0, 55, 0
2, 25096, Note_on_c, 0, 58, 42
2, 25098, Note_on_c, 0, 61, 48
2, 25099, Note_on_c, 0, 67, 36
2, 25102, Note_on_c, 0, 64, 45
2, 25130, Control_c, 0, 64, 0
2, 25131, Note_on_c, 0, 58, 0
2, 25136, Note_on_c, 0, 67, 0
2, 25137, Note_on_c, 0, 46, 45
2, 25138, Note_on_c, 0, 61, 0
2, 25138, Note_on_c, 0, 64, 0
2, 25158, Control_c, 0, 64, 127
2, 25219, Note_on_c, 0, 72, 60
2, 25223, Note_on_c, 0, 67, 48
2, 25224, Note_on_c, 0, 60, 57
2, 25230, Note_on_c, 0, 46, 0
2, 25236, Control_c, 0, 64, 0
2, 25250, Note_on_c, 0, 45, 37
2, 25266, Control_c, 0, 64, 127
2, 25268, Note_on_c, 0, 45, 0
2, 25293, Note_on_c, 0, 60, 0
2, 25328, Note_on_c, 0, 67, 0
2, 25377, Note_on_c, 0, 60, 48
2, 25378, Note_on_c, 0, 67, 46
2, 25416, Note_on_c, 0, 72, 0
2, 25425, Note_on_c, 0, 67, 0
2, 25444, Note_on_c, 0, 60, 0
2, 25510, Note_on_c, 0, 48, 33
2, 25510, Note_on_c, 0, 58, 35
2, 25511, Control_c, 0, 64, 0
2, 25511, Note_on_c, 0, 67, 36
2, 25513, Note_on_c, 0, 63, 33
2, 25541, Control_c, 0, 64, 127
2, 25556, Note_on_c, 0, 58, 0
2, 25560, Note_on_c, 0, 67, 0
2, 25564, Note_on_c, 0, 63, 0
2, 25568, Note_on_c, 0, 48, 0
2, 25642, Note_on_c, 0, 61, 36
2, 25642, Note_on_c, 0, 68, 43
2, 25644, Control_c, 0, 64, 0
2, 25644, Note_on_c, 0, 65, 39
2, 25646, Note_on_c, 0, 51, 26
2, 25649, Note_on_c, 0, 57, 18
2, 25652, Note_on_c, 0, 47, 29
2, 25680, Note_on_c, 0, 47, 0
2, 25680, Control_c, 0, 64, 127
2, 25684, Note_on_c, 0, 57, 0
2, 25690, Note_on_c, 0, 65, 0
2, 25698, Note_on_c, 0, 68, 0
2, 25701, Note_on_c, 0, 61, 0
2, 25738, Note_on_c, 0, 51, 0
2, 25760, Control_c, 0, 64, 0
2, 25769, Note_on_c, 0, 62, 34
2, 25771, Note_on_c, 0, 65, 41
2, 25773, Note_on_c, 0, 46, 35
2, 25773, Note_on_c, 0, 60, 38
2, 25777, Note_on_c, 0, 55, 31
2, 25788, Control_c, 0, 64, 127
2, 25791, Note_on_c, 0, 60, 0
2, 25794, Note_on_c, 0, 62, 0
2, 25796, Note_on_c, 0, 65, 0
2, 25802, Note_on_c, 0, 46, 0
2, 25812, Note_on_c, 0, 55, 0
2, 25864, Note_on_c, 0, 77, 81
2, 25891, Note_on_c, 0, 77, 0
2, 25894, Control_c, 0, 64, 0
2, 25897, Note_on_c, 0, 58, 38
2, 25906, Note_on_c, 0, 74, 51
2, 25923, Note_on_c, 0, 74, 0
2, 25923, Note_on_c, 0, 58, 0
2, 25930, Control_c, 0, 64, 127
2, 25943, Note_on_c, 0, 75, 53
2, 25962, Note_on_c, 0, 75, 0
2, 25982, Note_on_c, 0, 77, 77
2, 26011, Note_on_c, 0, 77, 0
2, 26016, Control_c, 0, 64, 0
2, 26024, Note_on_c, 0, 74, 62
2, 26024, Note_on_c, 0, 58, 23
2, 26033, Note_on_c, 0, 48, 19
2, 26056, Control_c, 0, 64, 127
2, 26075, Note_on_c, 0, 58, 0
2, 26082, Note_on_c, 0, 74, 0
2, 26110, Note_on_c, 0, 64, 24
2, 26124, Note_on_c, 0, 64, 0
2, 26150, Control_c, 0, 64, 0
2, 26152, Note_on_c, 0, 73, 53
2, 26154, Note_on_c, 0, 58, 44
2, 26155, Note_on_c, 0, 64, 42
2, 26156, Note_on_c, 0, 68, 44
2, 26173, Control_c, 0, 64, 127
2, 26191, Note_on_c, 0, 64, 0
2, 26194, Note_on_c, 0, 73, 0
2, 26197, Note_on_c, 0, 68, 0
2, 26199, Note_on_c, 0, 58, 0
2, 26242, Note_on_c, 0, 67, 42
2, 26243, Note_on_c, 0, 72, 48
2, 26247, Control_c, 0, 64, 0
2, 26251, Note_on_c, 0, 57, 32
2, 26253, Note_on_c, 0, 60, 20
2, 26260, Note_on_c, 0, 60, 0
2, 26272, Note_on_c, 0, 67, 0
2, 26275, Note_on_c, 0, 72, 0
2, 26275, Control_c, 0, 64, 127
2, 26339, Note_on_c, 0, 84, 84
2, 26355, Note_on_c, 0, 48, 0
2, 26363, Note_on_c, 0, 84, 0
2, 26375, Note_on_c, 0, 57, 0
2, 26380, Note_on_c, 0, 82, 49
2, 26388, Note_on_c, 0, 82, 0
2, 26389, Control_c, 0, 64, 0
2, 26401, Control_c, 0, 64, 127
2, 26421, Note_on_c, 0, 77, 37
2, 26444, Note_on_c, 0, 77, 0
2, 26460, Note_on_c, 0, 73, 40
2, 26474, Note_on_c, 0, 73, 0
2, 26504, Note_on_c, 0, 72, 47
2, 26523, Note_on_c, 0, 72, 0
2, 26548, Note_on_c, 0, 70, 56
2, 26553, Note_on_c, 0, 65, 31
2, 26553, Note_on_c, 0, 60, 24
2, 26554, Control_c, 0, 64, 0
2, 26559, Note_on_c, 0, 61, 14
2, 26564, Note_on_c, 0, 55, 19
2, 26576, Note_on_c, 0, 70, 0
2, 26593, Note_on_c, 0, 72, 49
2, 26610, Note_on_c, 0, 65, 0
2, 26615, Note_on_c, 0, 72, 0
2, 26622, Note_on_c, 0, 61, 0
2, 26622, Note_on_c, 0, 60, 0
2, 26624, Note_on_c, 0, 55, 0
2, 26634, Control_c, 0, 64, 127
2, 26637, Note_on_c, 0, 69, 58
2, 26682, Control_c, 0, 64, 0
2, 26682, Note_on_c, 0, 64, 35
2, 26687, Note_on_c, 0, 54, 33
2, 26689, Note_on_c, 0, 60, 37
2, 26702, Note_on_c, 0, 60, 0
2, 26706, Control_c, 0, 64, 127
2, 26708, Note_on_c, 0, 64, 0
2, 26721, Note_on_c, 0, 54, 0
2, 26744, Note_on_c, 0, 69, 0
2, 26815, Note_on_c, 0, 68, 57
2, 26817, Note_on_c, 0, 63, 47
2, 26818, Control_c, 0, 64, 0
2, 26819, Note_on_c, 0, 59, 38
2, 26820, Note_on_c, 0, 53, 47
2, 26854, Control_c, 0, 64, 127
2, 26907, Note_on_c, 0, 63, 0
2, 26912, Note_on_c, 0, 59, 0
2, 26945, Note_on_c, 0, 53, 0
2, 26950, Control_c, 0, 64, 0
2, 26951, Note_on_c, 0, 63, 29
2, 26951, Note_on_c, 0, 50, 30
2, 26952, Note_on_c, 0, 59, 28
2, 26958, Note_on_c, 0, 50, 0
2, 26967, Control_c, 0, 64, 127
2, 26974, Note_on_c, 0, 59, 0
2, 26987, Note_on_c, 0, 63, 0
2, 26987, Note_on_c, 0, 68, 0
2, 27038, Note_on_c, 0, 36, 40
2, 27053, Note_on_c, 0, 43, 28
2, 27070, Note_on_c, 0, 36, 0
2, 27076, Note_on_c, 0, 43, 0
2, 27078, Note_on_c, 0, 52, 24
2, 27079, Note_on_c, 0, 70, 62
2, 27086, Note_on_c, 0, 52, 0
2, 27090, Control_c, 0, 64, 0
2, 27092, Note_on_c, 0, 70, 0
2, 27104, Note_on_c, 0, 75, 62
2, 27116, Note_on_c, 0, 73, 48
2, 27123, Note_on_c, 0, 70, 44
2, 27130, Note_on_c, 0, 75, 0
2, 27143, Note_on_c, 0, 68, 51
2, 27145, Note_on_c, 0, 73, 0
2, 27152, Note_on_c, 0, 70, 0
2, 27162, Note_on_c, 0, 68, 0
2, 27170, Note_on_c, 0, 64, 36
2, 27179, Control_c, 0, 64, 127
2, 27182, Note_on_c, 0, 64, 0
2, 27190, Note_on_c, 0, 63, 44
2, 27195, Control_c, 0, 64, 0
2, 27199, Note_on_c, 0, 42, 31
2, 27203, Note_on_c, 0, 63, 0
2, 27207, Note_on_c, 0, 62, 55
2, 27226, Note_on_c, 0, 62, 0
2, 27231, Note_on_c, 0, 61, 46
2, 27239, Note_on_c, 0, 61, 0
2, 27248, Note_on_c, 0, 60, 32
2, 27271, Note_on_c, 0, 60, 0
2, 27275, Control_c, 0, 64, 127
2, 27280, Note_on_c, 0, 58, 36
2, 27299, Note_on_c, 0, 58, 0
2, 27306, Note_on_c, 0, 42, 0
2, 27306, Note_on_c, 0, 57, 40
2, 27317, Note_on_c, 0, 57, 0
2, 27327, Note_on_c, 0, 55, 30
2, 27334, Note_on_c, 0, 55, 0
2, 27337, Note_on_c, 0, 41, 33
2, 27340, Control_c, 0, 64, 0
2, 27341, Note_on_c, 0, 48, 24
2, 27348, Note_on_c, 0, 57, 46
2, 27393, Control_c, 0, 64, 127
2, 27409, Note_on_c, 0, 57, 0
2, 27421, Note_on_c, 0, 48, 0
2, 27469, Note_on_c, 0, 48, 65
2, 27478, Control_c, 0, 64, 0
2, 27489, Note_on_c, 0, 48, 0
2, 27508, Note_on_c, 0, 50, 68
2, 27526, Note_on_c, 0, 50, 0
2, 27540, Note_on_c, 0, 52, 75
2, 27552, Control_c, 0, 64, 127
2, 27564, Note_on_c, 0, 52, 0
2, 27571, Note_on_c, 0, 41, 0
2, 27575, Note_on_c, 0, 53, 68
2, 27594, Note_on_c, 0, 53, 0
2, 27610, Control_c, 0, 64, 0
2, 27610, Note_on_c, 0, 41, 45
2, 27614, Note_on_c, 0, 57, 68
2, 27644, Control_c, 0, 64, 127
2, 27671, Note_on_c, 0, 57, 0
2, 27694, Note_on_c, 0, 64, 57
2, 27694, Note_on_c, 0, 57, 60
2, 27697, Note_on_c, 0, 61, 59
2, 27698, Note_on_c, 0, 49, 48
2, 27699, Note_on_c, 0, 53, 63
2, 27720, Note_on_c, 0, 57, 0
2, 27722, Note_on_c, 0, 53, 0
2, 27734, Note_on_c, 0, 64, 0
2, 27735, Note_on_c, 0, 61, 0
2, 27744, Control_c, 0, 64, 0
2, 27747, Note_on_c, 0, 49, 0
2, 27747, Note_on_c, 0, 41, 0
2, 27748, Note_on_c, 0, 62, 56
2, 27752, Note_on_c, 0, 57, 39
2, 27752, Note_on_c, 0, 53, 29
2, 27755, Note_on_c, 0, 50, 50
2, 27783, Control_c, 0, 64, 127
2, 27798, Note_on_c, 0, 53, 0
2, 27806, Note_on_c, 0, 57, 0
2, 27810, Note_on_c, 0, 62, 0
2, 27825, Note_on_c, 0, 50, 0
2, 27836, Note_on_c, 0, 44, 33
2, 27864, Note_on_c, 0, 44, 0
2, 27867, Control_c, 0, 64, 0
2, 27875, Note_on_c, 0, 55, 44
2, 27876, Note_on_c, 0, 62, 32
2, 27876, Note_on_c, 0, 58, 39
2, 27877, Note_on_c, 0, 43, 43
2, 27879, Note_on_c, 0, 65, 30
2, 27881, Note_on_c, 0, 53, 37
2, 27891, Note_on_c, 0, 55, 0
2, 27896, Control_c, 0, 64, 127
2, 27911, Note_on_c, 0, 43, 0
2, 27914, Note_on_c, 0, 65, 0
2, 27914, Note_on_c, 0, 58, 0
2, 27919, Note_on_c, 0, 62, 0
2, 27928, Note_on_c, 0, 53, 0
2, 27936, Note_on_c, 0, 59, 50
2, 27954, Note_on_c, 0, 59, 0
2, 27974, Note_on_c, 0, 58, 72
2, 27999, Note_on_c, 0, 58, 0
2, 28008, Note_on_c, 0, 58, 20
2, 28011, Control_c, 0, 64, 0
2, 28020, Note_on_c, 0, 62, 53
2, 28046, Note_on_c, 0, 62, 0
2, 28051, Control_c, 0, 64, 127
2, 28059, Note_on_c, 0, 65, 68
2, 28066, Note_on_c, 0, 58, 0
2, 28088, Note_on_c, 0, 65, 0
2, 28101, Note_on_c, 0, 69, 71
2, 28130, Control_c, 0, 64, 0
2, 28131, Note_on_c, 0, 69, 0
2, 28136, Note_on_c, 0, 63, 36
2, 28139, Note_on_c, 0, 58, 37
2, 28142, Note_on_c, 0, 52, 35
2, 28148, Note_on_c, 0, 70, 52
2, 28155, Note_on_c, 0, 63, 0
2, 28164, Note_on_c, 0, 52, 0
2, 28171, Note_on_c, 0, 70, 0
2, 28178, Control_c, 0, 64, 127
2, 28181, Note_on_c, 0, 58, 0
2, 28191, Note_on_c, 0, 72, 61
2, 28213, Note_on_c, 0, 72, 0
2, 28227, Note_on_c, 0, 73, 59
2, 28248, Note_on_c, 0, 73, 0
2, 28272, Note_on_c, 0, 58, 29
2, 28272, Control_c, 0, 64, 0
2, 28274, Note_on_c, 0, 76, 53
2, 28274, Note_on_c, 0, 48, 27
2, 28282, Note_on_c, 0, 58, 0
2, 28283, Note_on_c, 0, 48, 0
2, 28299, Note_on_c, 0, 76, 0
2, 28300, Control_c, 0, 64, 127
2, 28313, Note_on_c, 0, 80, 54
2, 28342, Note_on_c, 0, 80, 0
2, 28357, Note_on_c, 0, 85, 76
2, 28385, Note_on_c, 0, 85, 0
2, 28401, Note_on_c, 0, 45, 54
2, 28402, Note_on_c, 0, 84, 83
2, 28406, Control_c, 0, 64, 0
2, 28408, Note_on_c, 0, 45, 0
2, 28434, Control_c, 0, 64, 127
2, 28451, Note_on_c, 0, 81, 63
2, 28458, Note_on_c, 0, 84, 0
2, 28458, Note_on_c, 0, 83, 28
2, 28465, Note_on_c, 0, 83, 0
2, 28477, Note_on_c, 0, 81, 0
2, 28492, Note_on_c, 0, 77, 60
2, 28520, Note_on_c, 0, 77, 0
2, 28534, Note_on_c, 0, 73, 39
2, 28536, Note_on_c, 0, 65, 34
2, 28540, Note_on_c, 0, 61, 25
2, 28540, Note_on_c, 0, 55, 33
2, 28542, Note_on_c, 0, 60, 26
2, 28548, Control_c, 0, 64, 0
2, 28556, Note_on_c, 0, 73, 0
2, 28569, Control_c, 0, 64, 127
2, 28582, Note_on_c, 0, 72, 40
2, 28605, Note_on_c, 0, 72, 0
2, 28622, Note_on_c, 0, 70, 51
2, 28635, Note_on_c, 0, 65, 0
2, 28650, Note_on_c, 0, 60, 0
2, 28652, Note_on_c, 0, 70, 0
2, 28652, Note_on_c, 0, 61, 0
2, 28671, Control_c, 0, 64, 0
2, 28672, Note_on_c, 0, 69, 59
2, 28690, Control_c, 0, 64, 127
2, 28704, Note_on_c, 0, 69, 0
2, 28715, Note_on_c, 0, 72, 48
2, 28721, Note_on_c, 0, 55, 0
2, 28741, Note_on_c, 0, 72, 0
2, 28764, Note_on_c, 0, 70, 60
2, 28812, Note_on_c, 0, 70, 0
2, 28817, Note_on_c, 0, 67, 28
2, 28826, Note_on_c, 0, 67, 0
2, 28864, Note_on_c, 0, 44, 42
2, 28947, Note_on_c, 0, 44, 0
2, 28960, Note_on_c, 0, 70, 44
2, 28961, Note_on_c, 0, 62, 43
2, 28963, Note_on_c, 0, 58, 25
2, 28967, Note_on_c, 0, 65, 41
2, 28968, Note_on_c, 0, 53, 31
2, 28972, Control_c, 0, 64, 0
2, 28982, Note_on_c, 0, 53, 0
2, 29014, Control_c, 0, 64, 127
2, 29040, Note_on_c, 0, 62, 0
2, 29051, Note_on_c, 0, 65, 0
2, 29057, Note_on_c, 0, 58, 0
2, 29090, Note_on_c, 0, 70, 0
2, 29102, Note_on_c, 0, 65, 35
2, 29102, Note_on_c, 0, 57, 30
2, 29104, Note_on_c, 0, 58, 25
2, 29104, Note_on_c, 0, 62, 33
2, 29145, Note_on_c, 0, 62, 0
2, 29158, Note_on_c, 0, 58, 0
2, 29200, Note_on_c, 0, 65, 0
2, 29208, Note_on_c, 0, 57, 0
2, 29241, Note_on_c, 0, 69, 50
2, 29246, Note_on_c, 0, 63, 42
2, 29246, Note_on_c, 0, 56, 34
2, 29247, Note_on_c, 0, 59, 39
2, 29252, Control_c, 0, 64, 0
2, 29292, Control_c, 0, 64, 127
2, 29328, Note_on_c, 0, 59, 0
2, 29344, Note_on_c, 0, 63, 0
2, 29349, Note_on_c, 0, 49, 25
2, 29354, Note_on_c, 0, 69, 0
2, 29370, Note_on_c, 0, 56, 0
2, 29374, Note_on_c, 0, 49, 0
2, 29391, Note_on_c, 0, 67, 32
2, 29393, Control_c, 0, 64, 0
2, 29393, Note_on_c, 0, 58, 25
2, 29396, Note_on_c, 0, 61, 27
2, 29397, Note_on_c, 0, 48, 29
2, 29398, Note_on_c, 0, 55, 19
2, 29399, Note_on_c, 0, 64, 26
2, 29414, Note_on_c, 0, 64, 0
2, 29414, Note_on_c, 0, 58, 0
2, 29415, Note_on_c, 0, 61, 0
2, 29419, Control_c, 0, 64, 127
2, 29422, Note_on_c, 0, 67, 0
2, 29428, Note_on_c, 0, 55, 0
2, 29433, Note_on_c, 0, 48, 0
2, 29489, Note_on_c, 0, 73, 75
2, 29490, Note_on_c, 0, 63, 77
2, 29492, Note_on_c, 0, 68, 76
2, 29492, Note_on_c, 0, 56, 42
2, 29524, Note_on_c, 0, 56, 0
2, 29528, Note_on_c, 0, 73, 0
2, 29530, Note_on_c, 0, 68, 0
2, 29535, Note_on_c, 0, 63, 0
2, 29535, Control_c, 0, 64, 0
2, 29548, Note_on_c, 0, 72, 54
2, 29549, Note_on_c, 0, 67, 46
2, 29549, Note_on_c, 0, 62, 53
2, 29552, Note_on_c, 0, 57, 44
2, 29565, Control_c, 0, 64, 127
2, 29582, Note_on_c, 0, 62, 0
2, 29594, Note_on_c, 0, 67, 0
2, 29595, Note_on_c, 0, 57, 0
2, 29598, Note_on_c, 0, 72, 0
2, 29641, Control_c, 0, 64, 0
2, 29648, Note_on_c, 0, 74, 76
2, 29650, Note_on_c, 0, 58, 64
2, 29654, Note_on_c, 0, 64, 38
2, 29656, Note_on_c, 0, 65, 44
2, 29659, Note_on_c, 0, 73, 25
2, 29660, Control_c, 0, 64, 127
2, 29662, Note_on_c, 0, 65, 0
2, 29663, Note_on_c, 0, 68, 18
2, 29670, Note_on_c, 0, 73, 0
2, 29678, Note_on_c, 0, 68, 0
2, 29681, Note_on_c, 0, 74, 0
2, 29689, Note_on_c, 0, 64, 0
2, 29704, Note_on_c, 0, 58, 0
2, 29704, Control_c, 0, 64, 0
2, 29708, Note_on_c, 0, 72, 48
2, 29709, Note_on_c, 0, 62, 46
2, 29710, Note_on_c, 0, 67, 48
2, 29711, Note_on_c, 0, 57, 44
2, 29729, Note_on_c, 0, 67, 0
2, 29729, Note_on_c, 0, 72, 0
2, 29738, Note_on_c, 0, 62, 0
2, 29738, Control_c, 0, 64, 127
2, 29771, Note_on_c, 0, 57, 0
2, 29784, Control_c, 0, 64, 0
2, 29792, Control_c, 0, 64, 127
2, 29794, Note_on_c, 0, 69, 53
2, 29798, Note_on_c, 0, 60, 42
2, 29799, Note_on_c, 0, 65, 43
2, 29799, Note_on_c, 0, 53, 47
2, 29812, Note_on_c, 0, 60, 0
2, 29812, Note_on_c, 0, 69, 0
2, 29824, Note_on_c, 0, 53, 0
2, 29828, Note_on_c, 0, 65, 0
2, 29852, Note_on_c, 0, 67, 44
2, 29855, Note_on_c, 0, 63, 48
2, 29856, Control_c, 0, 64, 0
2, 29856, Note_on_c, 0, 58, 32
2, 29869, Note_on_c, 0, 48, 43
2, 29894, Control_c, 0, 64, 127
2, 29932, Note_on_c, 0, 67, 0
2, 29937, Note_on_c, 0, 63, 0
2, 29942, Note_on_c, 0, 58, 0
2, 29972, Note_on_c, 0, 48, 0
2, 29995, Note_on_c, 0, 66, 38
2, 29998, Control_c, 0, 64, 0
2, 29998, Note_on_c, 0, 57, 33
2, 29999, Note_on_c, 0, 47, 31
2, 30000, Note_on_c, 0, 63, 34
2, 30001, Note_on_c, 0, 61, 37
2, 30036, Control_c, 0, 64, 127
2, 30070, Note_on_c, 0, 47, 0
2, 30076, Note_on_c, 0, 66, 0
2, 30083, Note_on_c, 0, 61, 0
2, 30084, Note_on_c, 0, 57, 0
2, 30086, Note_on_c, 0, 63, 0
2, 30150, Note_on_c, 0, 46, 34
2, 30160, Note_on_c, 0, 50, 38
2, 30175, Control_c, 0, 64, 0
2, 30178, Note_on_c, 0, 50, 0
2, 30191, Note_on_c, 0, 53, 52
2, 30208, Note_on_c, 0, 53, 0
2, 30225, Note_on_c, 0, 57, 65
2, 30245, Control_c, 0, 64, 127
2, 30247, Note_on_c, 0, 57, 0
2, 30261, Note_on_c, 0, 60, 87
2, 30274, Control_c, 0, 64, 0
2, 30285, Note_on_c, 0, 60, 0
2, 30294, Note_on_c, 0, 57, 66
2, 30300, Note_on_c, 0, 53, 27
2, 30326, Note_on_c, 0, 57, 0
2, 30331, Note_on_c, 0, 46, 0
2, 30331, Control_c, 0, 64, 127
2, 30332, Note_on_c, 0, 58, 60
2, 30346, Note_on_c, 0, 58, 0
2, 30364, Note_on_c, 0, 62, 62
2, 30386, Note_on_c, 0, 62, 0
2, 30398, Note_on_c, 0, 65, 67
2, 30403, Note_on_c, 0, 53, 0
2, 30421, Control_c, 0, 64, 0
2, 30422, Note_on_c, 0, 65, 0
2, 30432, Note_on_c, 0, 69, 67
2, 30432, Note_on_c, 0, 58, 33
2, 30434, Note_on_c, 0, 48, 38
2, 30453, Note_on_c, 0, 69, 0
2, 30454, Control_c, 0, 64, 127
2, 30460, Note_on_c, 0, 48, 0
2, 30470, Note_on_c, 0, 70, 59
2, 30477, Note_on_c, 0, 70, 0
2, 30484, Note_on_c, 0, 58, 0
2, 30503, Note_on_c, 0, 74, 62
2, 30521, Note_on_c, 0, 74, 0
2, 30538, Note_on_c, 0, 77, 65
2, 30556, Note_on_c, 0, 58, 36
2, 30560, Note_on_c, 0, 77, 0
2, 30562, Control_c, 0, 64, 0
2, 30564, Note_on_c, 0, 58, 0
2, 30582, Note_on_c, 0, 86, 80
2, 30584, Control_c, 0, 64, 127
2, 30606, Note_on_c, 0, 86, 0
2, 30631, Note_on_c, 0, 86, 77
2, 30658, Note_on_c, 0, 86, 0
2, 30676, Note_on_c, 0, 84, 74
2, 30687, Note_on_c, 0, 41, 25
2, 30695, Note_on_c, 0, 57, 34
2, 30698, Control_c, 0, 64, 0
2, 30703, Note_on_c, 0, 84, 0
2, 30717, Note_on_c, 0, 41, 0
2, 30727, Control_c, 0, 64, 127
2, 30729, Note_on_c, 0, 80, 46
2, 30735, Note_on_c, 0, 57, 0
2, 30741, Note_on_c, 0, 80, 0
2, 30746, Note_on_c, 0, 81, 49
2, 30760, Note_on_c, 0, 81, 0
2, 30782, Note_on_c, 0, 74, 47
2, 30843, Note_on_c, 0, 57, 47
2, 30848, Note_on_c, 0, 63, 30
2, 30849, Note_on_c, 0, 77, 58
2, 30850, Control_c, 0, 64, 0
2, 30855, Note_on_c, 0, 67, 15
2, 30870, Note_on_c, 0, 74, 0
2, 30880, Control_c, 0, 64, 127
2, 30892, Note_on_c, 0, 79, 52
2, 30893, Note_on_c, 0, 77, 0
2, 30895, Note_on_c, 0, 67, 0
2, 30903, Note_on_c, 0, 57, 0
2, 30916, Note_on_c, 0, 63, 0
2, 30923, Note_on_c, 0, 79, 0
2, 30934, Note_on_c, 0, 77, 57
2, 30984, Note_on_c, 0, 64, 50
2, 30986, Note_on_c, 0, 68, 42
2, 30990, Note_on_c, 0, 58, 35
2, 30997, Control_c, 0, 64, 0
2, 31021, Control_c, 0, 64, 127
2, 31077, Note_on_c, 0, 58, 0
2, 31085, Note_on_c, 0, 64, 0
2, 31088, Note_on_c, 0, 68, 0
2, 31123, Note_on_c, 0, 68, 40
2, 31125, Note_on_c, 0, 58, 42
2, 31127, Note_on_c, 0, 64, 31
2, 31156, Note_on_c, 0, 64, 0
2, 31161, Note_on_c, 0, 68, 0
2, 31168, Note_on_c, 0, 77, 0
2, 31196, Note_on_c, 0, 58, 0
2, 31226, Note_on_c, 0, 77, 36
2, 31227, Note_on_c, 0, 74, 30
2, 31242, Note_on_c, 0, 79, 20
2, 31248, Control_c, 0, 64, 0
2, 31258, Note_on_c, 0, 63, 35
2, 31259, Note_on_c, 0, 67, 26
2, 31262, Note_on_c, 0, 57, 29
2, 31266, Note_on_c, 0, 74, 0
2, 31270, Note_on_c, 0, 67, 0
2, 31270, Note_on_c, 0, 79, 0
2, 31272, Note_on_c, 0, 77, 0
2, 31272, Control_c, 0, 64, 127
2, 31281, Note_on_c, 0, 63, 0
2, 31287, Note_on_c, 0, 57, 0
2, 31364, Note_on_c, 0, 72, 42
2, 31364, Note_on_c, 0, 48, 62
2, 31366, Note_on_c, 0, 60, 71
2, 31368, Note_on_c, 0, 71, 34
2, 31396, Control_c, 0, 64, 0
2, 31398, Note_on_c, 0, 71, 0
2, 31398, Note_on_c, 0, 48, 0
2, 31399, Note_on_c, 0, 60, 0
2, 31400, Note_on_c, 0, 72, 0
2, 31417, Note_on_c, 0, 48, 55
2, 31418, Note_on_c, 0, 72, 45
2, 31420, Control_c, 0, 64, 127
2, 31421, Note_on_c, 0, 60, 56
2, 31437, Note_on_c, 0, 60, 0
2, 31445, Note_on_c, 0, 72, 0
2, 31449, Note_on_c, 0, 48, 0
2, 31512, Note_on_c, 0, 77, 65
2, 31515, Note_on_c, 0, 65, 67
2, 31516, Note_on_c, 0, 53, 62
2, 31549, Note_on_c, 0, 77, 0
2, 31551, Note_on_c, 0, 53, 0
2, 31552, Note_on_c, 0, 65, 0
2, 31562, Control_c, 0, 64, 0
2, 31568, Note_on_c, 0, 77, 52
2, 31572, Note_on_c, 0, 65, 44
2, 31572, Note_on_c, 0, 53, 42
2, 31584, Control_c, 0, 64, 127
2, 31610, Note_on_c, 0, 65, 0
2, 31614, Note_on_c, 0, 77, 0
2, 31646, Note_on_c, 0, 53, 0
2, 31660, Note_on_c, 0, 79, 63
2, 31661, Note_on_c, 0, 67, 59
2, 31661, Note_on_c, 0, 55, 65
2, 31687, Note_on_c, 0, 67, 0
2, 31693, Note_on_c, 0, 79, 0
2, 31707, Control_c, 0, 64, 0
2, 31714, Control_c, 0, 64, 127
2, 31727, Note_on_c, 0, 55, 0
2, 31810, Note_on_c, 0, 48, 43
2, 31854, Note_on_c, 0, 48, 0
2, 31858, Control_c, 0, 64, 0
2, 31862, Note_on_c, 0, 41, 35
2, 31864, Note_on_c, 0, 50, 35
2, 31865, Note_on_c, 0, 67, 50
2, 31878, Note_on_c, 0, 41, 0
2, 31884, Note_on_c, 0, 67, 0
2, 31888, Note_on_c, 0, 50, 0
2, 31888, Note_on_c, 0, 68, 50
2, 31915, Note_on_c, 0, 67, 27
2, 31919, Control_c, 0, 64, 127
2, 31924, Note_on_c, 0, 68, 0
2, 31950, Note_on_c, 0, 67, 0
2, 31954, Note_on_c, 0, 65, 41
2, 31976, Note_on_c, 0, 65, 0
2, 31996, Note_on_c, 0, 62, 34
2, 31996, Note_on_c, 0, 60, 37
2, 31997, Note_on_c, 0, 67, 58
2, 31998, Note_on_c, 0, 53, 37
2, 31998, Note_on_c, 0, 56, 35
2, 31999, Control_c, 0, 64, 0
2, 32011, Note_on_c, 0, 62, 0
2, 32013, Note_on_c, 0, 60, 0
2, 32022, Note_on_c, 0, 56, 0
2, 32024, Note_on_c, 0, 53, 0
2, 32033, Control_c, 0, 64, 127
2, 32074, Note_on_c, 0, 67, 0
2, 32091, Note_on_c, 0, 68, 49
2, 32125, Note_on_c, 0, 68, 0
2, 32140, Note_on_c, 0, 67, 33
2, 32141, Note_on_c, 0, 70, 50
2, 32143, Note_on_c, 0, 58, 31
2, 32143, Note_on_c, 0, 64, 36
2, 32144, Control_c, 0, 64, 0
2, 32152, Note_on_c, 0, 52, 38
2, 32186, Control_c, 0, 64, 127
2, 32201, Note_on_c, 0, 58, 0
2, 32205, Note_on_c, 0, 64, 0
2, 32210, Note_on_c, 0, 52, 0
2, 32214, Note_on_c, 0, 67, 0
2, 32224, Note_on_c, 0, 70, 0
2, 32247, Note_on_c, 0, 72, 36
2, 32255, Note_on_c, 0, 72, 0
2, 32285, Note_on_c, 0, 74, 69
2, 32290, Note_on_c, 0, 65, 54
2, 32292, Control_c, 0, 64, 0
2, 32294, Note_on_c, 0, 62, 28
2, 32308, Note_on_c, 0, 62, 0
2, 32318, Control_c, 0, 64, 127
2, 32348, Note_on_c, 0, 65, 0
2, 32371, Note_on_c, 0, 74, 0
2, 32433, Note_on_c, 0, 74, 44
2, 32433, Note_on_c, 0, 68, 44
2, 32435, Note_on_c, 0, 62, 34
2, 32436, Control_c, 0, 64, 0
2, 32439, Note_on_c, 0, 56, 23
2, 32439, Note_on_c, 0, 46, 26
2, 32468, Control_c, 0, 64, 127
2, 32490, Note_on_c, 0, 46, 0
2, 32510, Note_on_c, 0, 56, 0
2, 32511, Note_on_c, 0, 62, 0
2, 32520, Note_on_c, 0, 74, 0
2, 32544, Note_on_c, 0, 68, 0
2, 32580, Note_on_c, 0, 72, 44
2, 32580, Note_on_c, 0, 58, 34
2, 32581, Note_on_c, 0, 64, 32
2, 32582, Note_on_c, 0, 67, 46
2, 32585, Note_on_c, 0, 48, 28
2, 32587, Control_c, 0, 64, 0
2, 32619, Control_c, 0, 64, 127
2, 32631, Note_on_c, 0, 48, 0
2, 32636, Note_on_c, 0, 72, 0
2, 32644, Note_on_c, 0, 67, 0
2, 32660, Note_on_c, 0, 64, 0
2, 32671, Note_on_c, 0, 58, 0
2, 32720, Note_on_c, 0, 70, 33
2, 32721, Note_on_c, 0, 61, 35
2, 32724, Note_on_c, 0, 67, 32
2, 32725, Note_on_c, 0, 58, 27
2, 32727, Control_c, 0, 64, 0
2, 32729, Note_on_c, 0, 49, 29
2, 32729, Note_on_c, 0, 64, 26
2, 32753, Control_c, 0, 64, 127
2, 32778, Note_on_c, 0, 64, 0
2, 32801, Note_on_c, 0, 49, 0
2, 32802, Note_on_c, 0, 67, 0
2, 32809, Note_on_c, 0, 61, 0
2, 32817, Note_on_c, 0, 58, 0
2, 32837, Note_on_c, 0, 70, 0
2, 32867, Note_on_c, 0, 68, 39
2, 32869, Note_on_c, 0, 62, 32
2, 32869, Control_c, 0, 64, 0
2, 32870, Note_on_c, 0, 58, 28
2, 32874, Note_on_c, 0, 50, 31
2, 32876, Note_on_c, 0, 65, 33
2, 32904, Control_c, 0, 64, 127
2, 32930, Note_on_c, 0, 50, 0
2, 32934, Note_on_c, 0, 58, 0
2, 32937, Note_on_c, 0, 65, 0
2, 32943, Note_on_c, 0, 62, 0
2, 32958, Note_on_c, 0, 68, 0
2, 33012, Note_on_c, 0, 68, 45
2, 33014, Control_c, 0, 64, 0
2, 33015, Note_on_c, 0, 64, 40
2, 33016, Note_on_c, 0, 53, 37
2, 33021, Note_on_c, 0, 59, 19
2, 33021, Note_on_c, 0, 43, 24
2, 33056, Control_c, 0, 64, 127
2, 33098, Note_on_c, 0, 64, 0
2, 33103, Note_on_c, 0, 53, 0
2, 33120, Note_on_c, 0, 59, 0
2, 33164, Note_on_c, 0, 59, 36
2, 33165, Note_on_c, 0, 63, 37
2, 33167, Note_on_c, 0, 53, 28
2, 33168, Control_c, 0, 64, 0
2, 33192, Control_c, 0, 64, 127
2, 33201, Note_on_c, 0, 68, 0
2, 33245, Note_on_c, 0, 53, 0
2, 33268, Note_on_c, 0, 59, 0
2, 33268, Note_on_c, 0, 50, 24
2, 33274, Note_on_c, 0, 63, 0
2, 33293, Note_on_c, 0, 50, 0
2, 33312, Note_on_c, 0, 62, 40
2, 33313, Note_on_c, 0, 59, 34
2, 33313, Note_on_c, 0, 67, 35
2, 33315, Control_c, 0, 64, 0
2, 33315, Note_on_c, 0, 53, 29
2, 33329, Note_on_c, 0, 43, 0
2, 33331, Note_on_c, 0, 53, 0
2, 33349, Control_c, 0, 64, 127
2, 33411, Note_on_c, 0, 43, 38
2, 33418, Note_on_c, 0, 59, 0
2, 33430, Note_on_c, 0, 62, 0
2, 33441, Note_on_c, 0, 67, 0
2, 33535, Note_on_c, 0, 83, 79
2, 33558, Note_on_c, 0, 83, 0
2, 33573, Note_on_c, 0, 86, 91
2, 33605, Note_on_c, 0, 86, 0
2, 33605, Note_on_c, 0, 43, 0
2, 33609, Note_on_c, 0, 36, 42
2, 33616, Control_c, 0, 64, 0
2, 33621, Note_on_c, 0, 79, 59
2, 33637, Note_on_c, 0, 36, 0
2, 33650, Control_c, 0, 64, 127
2, 33700, Note_on_c, 0, 79, 0
2, 33763, Note_on_c, 0, 62, 44
2, 33770, Note_on_c, 0, 57, 24
2, 33775, Note_on_c, 0, 52, 20
2, 33804, Note_on_c, 0, 57, 0
2, 33810, Note_on_c, 0, 52, 0
2, 33810, Note_on_c, 0, 74, 76
2, 33834, Note_on_c, 0, 62, 0
2, 33856, Note_on_c, 0, 67, 55
2, 33910, Note_on_c, 0, 64, 43
2, 33919, Note_on_c, 0, 60, 28
2, 33920, Note_on_c, 0, 59, 34
2, 33920, Control_c, 0, 64, 0
2, 33932, Note_on_c, 0, 60, 0
2, 33934, Control_c, 0, 64, 127
2, 33938, Note_on_c, 0, 64, 0
2, 33944, Note_on_c, 0, 59, 0
2, 33971, Note_on_c, 0, 74, 0
2, 33988, Note_on_c, 0, 67, 0
2, 34066, Note_on_c, 0, 60, 66
2, 34093, Note_on_c, 0, 60, 0
2, 34112, Note_on_c, 0, 64, 62
2, 34141, Note_on_c, 0, 64, 0
2, 34161, Note_on_c, 0, 67, 68
2, 34178, Note_on_c, 0, 67, 0
2, 34210, Note_on_c, 0, 56, 36
2, 34214, Note_on_c, 0, 67, 55
2, 34216, Note_on_c, 0, 60, 31
2, 34217, Note_on_c, 0, 50, 33
2, 34221, Control_c, 0, 64, 0
2, 34228, Note_on_c, 0, 67, 0
2, 34231, Note_on_c, 0, 68, 57
2, 34251, Note_on_c, 0, 68, 0
2, 34253, Note_on_c, 0, 67, 29
2, 34266, Note_on_c, 0, 60, 0
2, 34267, Note_on_c, 0, 67, 0
2, 34277, Note_on_c, 0, 65, 30
2, 34293, Note_on_c, 0, 65, 0
2, 34301, Note_on_c, 0, 56, 0
2, 34317, Note_on_c, 0, 68, 35
2, 34323, Note_on_c, 0, 68, 0
2, 34342, Note_on_c, 0, 72, 45
2, 34359, Note_on_c, 0, 76, 69
2, 34361, Note_on_c, 0, 72, 0
2, 34373, Note_on_c, 0, 56, 31
2, 34377, Note_on_c, 0, 60, 33
2, 34379, Note_on_c, 0, 76, 0
2, 34391, Note_on_c, 0, 79, 45
2, 34406, Note_on_c, 0, 79, 0
2, 34406, Note_on_c, 0, 50, 0
2, 34412, Note_on_c, 0, 76, 49
2, 34415, Note_on_c, 0, 56, 0
2, 34420, Note_on_c, 0, 60, 0
2, 34434, Note_on_c, 0, 76, 0
2, 34435, Note_on_c, 0, 77, 37
2, 34453, Note_on_c, 0, 79, 45
2, 34457, Note_on_c, 0, 77, 0
2, 34462, Note_on_c, 0, 79, 0
2, 34499, Note_on_c, 0, 84, 57
2, 34514, Note_on_c, 0, 84, 0
2, 34514, Note_on_c, 0, 88, 69
2, 34519, Note_on_c, 0, 60, 36
2, 34522, Note_on_c, 0, 54, 35
2, 34528, Note_on_c, 0, 65, 9
2, 34529, Note_on_c, 0, 88, 0
2, 34538, Note_on_c, 0, 91, 81
2, 34562, Note_on_c, 0, 91, 0
2, 34567, Note_on_c, 0, 65, 0
2, 34570, Note_on_c, 0, 89, 75
2, 34574, Note_on_c, 0, 60, 0
2, 34593, Note_on_c, 0, 89, 0
2, 34598, Note_on_c, 0, 84, 65
2, 34600, Note_on_c, 0, 54, 0
2, 34619, Note_on_c, 0, 84, 0
2, 34628, Note_on_c, 0, 80, 49
2, 34646, Note_on_c, 0, 80, 0
2, 34660, Note_on_c, 0, 79, 40
2, 34663, Note_on_c, 0, 60, 32
2, 34665, Note_on_c, 0, 56, 30
2, 34666, Note_on_c, 0, 64, 22
2, 34668, Note_on_c, 0, 53, 28
2, 34687, Note_on_c, 0, 79, 0
2, 34705, Note_on_c, 0, 82, 61
2, 34717, Note_on_c, 0, 64, 0
2, 34721, Note_on_c, 0, 60, 0
2, 34722, Note_on_c, 0, 82, 0
2, 34735, Note_on_c, 0, 53, 0
2, 34736, Note_on_c, 0, 56, 0
2, 34742, Note_on_c, 0, 80, 67
2, 34762, Note_on_c, 0, 80, 0
2, 34764, Control_c, 0, 64, 127
2, 34788, Note_on_c, 0, 50, 39
2, 34792, Note_on_c, 0, 43, 58
2, 34792, Note_on_c, 0, 79, 47
2, 34799, Note_on_c, 0, 79, 0
2, 34800, Control_c, 0, 64, 0
2, 34815, Note_on_c, 0, 50, 0
2, 34827, Note_on_c, 0, 43, 0
2, 34828, Control_c, 0, 64, 127
2, 34951, Note_on_c, 0, 74, 39
2, 34953, Note_on_c, 0, 59, 33
2, 34954, Note_on_c, 0, 53, 20
2, 34987, Note_on_c, 0, 74, 0
2, 34996, Note_on_c, 0, 59, 0
2, 35013, Note_on_c, 0, 53, 0
2, 35079, Note_on_c, 0, 48, 35
2, 35090, Note_on_c, 0, 48, 0
2, 35096, Note_on_c, 0, 49, 36
2, 35098, Note_on_c, 0, 62, 48
2, 35100, Note_on_c, 0, 59, 35
2, 35101, Note_on_c, 0, 56, 46
2, 35101, Note_on_c, 0, 53, 54
2, 35103, Note_on_c, 0, 50, 60
2, 35103, Control_c, 0, 64, 0
2, 35105, Note_on_c, 0, 49, 0
2, 35131, Control_c, 0, 64, 127
2, 35135, Note_on_c, 0, 62, 0
2, 35159, Note_on_c, 0, 56, 0
2, 35166, Note_on_c, 0, 53, 0
2, 35177, Note_on_c, 0, 59, 0
2, 35194, Note_on_c, 0, 63, 50
2, 35195, Note_on_c, 0, 50, 0
2, 35195, Note_on_c, 0, 51, 55
2, 35196, Note_on_c, 0, 56, 37
2, 35207, Note_on_c, 0, 56, 0
2, 35215, Note_on_c, 0, 63, 0
2, 35249, Note_on_c, 0, 65, 55
2, 35250, Note_on_c, 0, 56, 57
2, 35252, Control_c, 0, 64, 0
2, 35254, Note_on_c, 0, 53, 49
2, 35255, Note_on_c, 0, 59, 48
2, 35255, Note_on_c, 0, 62, 44
2, 35269, Note_on_c, 0, 51, 0
2, 35286, Control_c, 0, 64, 127
2, 35296, Note_on_c, 0, 59, 0
2, 35299, Note_on_c, 0, 62, 0
2, 35302, Note_on_c, 0, 56, 0
2, 35303, Note_on_c, 0, 65, 0
2, 35305, Note_on_c, 0, 53, 0
2, 35394, Note_on_c, 0, 68, 57
2, 35398, Note_on_c, 0, 49, 34
2, 35398, Note_on_c, 0, 59, 39
2, 35400, Note_on_c, 0, 63, 43
2, 35402, Control_c, 0, 64, 0
2, 35404, Note_on_c, 0, 65, 42
2, 35432, Control_c, 0, 64, 127
2, 35440, Note_on_c, 0, 68, 0
2, 35453, Note_on_c, 0, 63, 0
2, 35453, Note_on_c, 0, 65, 0
2, 35458, Note_on_c, 0, 59, 0
2, 35501, Note_on_c, 0, 70, 74
2, 35502, Note_on_c, 0, 63, 64
2, 35503, Note_on_c, 0, 59, 69
2, 35505, Note_on_c, 0, 65, 60
2, 35506, Note_on_c, 0, 58, 64
2, 35511, Control_c, 0, 64, 0
2, 35536, Note_on_c, 0, 58, 0
2, 35538, Note_on_c, 0, 65, 0
2, 35539, Note_on_c, 0, 70, 0
2, 35541, Note_on_c, 0, 59, 0
2, 35545, Note_on_c, 0, 63, 0
2, 35559, Note_on_c, 0, 70, 49
2, 35560, Note_on_c, 0, 58, 37
2, 35563, Note_on_c, 0, 59, 53
2, 35563, Note_on_c, 0, 63, 45
2, 35567, Note_on_c, 0, 65, 44
2, 35586, Note_on_c, 0, 70, 0
2, 35589, Note_on_c, 0, 59, 0
2, 35589, Note_on_c, 0, 65, 0
2, 35596, Note_on_c, 0, 58, 0
2, 35597, Note_on_c, 0, 63, 0
2, 35612, Note_on_c, 0, 56, 33
2, 35618, Control_c, 0, 64, 127
2, 35645, Control_c, 0, 64, 0
2, 35655, Note_on_c, 0, 56, 0
2, 35657, Note_on_c, 0, 70, 62
2, 35658, Note_on_c, 0, 63, 45
2, 35659, Note_on_c, 0, 59, 51
2, 35663, Note_on_c, 0, 65, 38
2, 35666, Note_on_c, 0, 58, 36
2, 35681, Note_on_c, 0, 58, 0
2, 35684, Note_on_c, 0, 65, 0
2, 35685, Note_on_c, 0, 59, 0
2, 35688, Note_on_c, 0, 63, 0
2, 35688, Note_on_c, 0, 70, 0
2, 35713, Note_on_c, 0, 70, 55
2, 35714, Note_on_c, 0, 59, 44
2, 35715, Note_on_c, 0, 63, 39
2, 35716, Note_on_c, 0, 58, 35
2, 35717, Control_c, 0, 64, 127
2, 35722, Note_on_c, 0, 65, 32
2, 35734, Note_on_c, 0, 65, 0
2, 35744, Note_on_c, 0, 70, 0
2, 35745, Note_on_c, 0, 59, 0
2, 35747, Note_on_c, 0, 58, 0
2, 35764, Note_on_c, 0, 68, 34
2, 35764, Note_on_c, 0, 56, 18
2, 35768, Note_on_c, 0, 63, 0
2, 35786, Note_on_c, 0, 68, 0
2, 35803, Note_on_c, 0, 56, 0
2, 35809, Note_on_c, 0, 70, 52
2, 35812, Note_on_c, 0, 59, 37
2, 35813, Note_on_c, 0, 63, 47
2, 35813, Note_on_c, 0, 67, 48
2, 35815, Note_on_c, 0, 58, 35
2, 35818, Note_on_c, 0, 53, 35
2, 35820, Control_c, 0, 64, 0
2, 35859, Control_c, 0, 64, 127
2, 35880, Note_on_c, 0, 49, 0
2, 35937, Note_on_c, 0, 49, 38
2, 35942, Note_on_c, 0, 67, 0
2, 35952, Note_on_c, 0, 58, 0
2, 35958, Note_on_c, 0, 63, 0
2, 35965, Note_on_c, 0, 59, 0
2, 35975, Note_on_c, 0, 70, 0
2, 35985, Note_on_c, 0, 53, 0
2, 36003, Note_on_c, 0, 49, 0
2, 36020, Control_c, 0, 64, 0
2, 36024, Note_on_c, 0, 62, 32
2, 36024, Note_on_c, 0, 72, 33
2, 36026, Note_on_c, 0, 58, 32
2, 36028, Note_on_c, 0, 65, 34
2, 36028, Note_on_c, 0, 70, 36
2, 36028, Note_on_c, 0, 48, 40
2, 36052, Control_c, 0, 64, 127
2, 36054, Note_on_c, 0, 62, 0
2, 36055, Note_on_c, 0, 65, 0
2, 36064, Note_on_c, 0, 72, 0
2, 36065, Note_on_c, 0, 70, 0
2, 36074, Note_on_c, 0, 48, 0
2, 36088, Note_on_c, 0, 58, 0
2, 36119, Note_on_c, 0, 84, 74
2, 36168, Note_on_c, 0, 84, 0
2, 36173, Note_on_c, 0, 72, 52
2, 36178, Note_on_c, 0, 58, 33
2, 36183, Note_on_c, 0, 72, 0
2, 36225, Note_on_c, 0, 58, 0
2, 36254, Note_on_c, 0, 87, 83
2, 36294, Note_on_c, 0, 85, 64
2, 36308, Note_on_c, 0, 87, 0
2, 36313, Note_on_c, 0, 82, 37
2, 36326, Note_on_c, 0, 80, 51
2, 36329, Note_on_c, 0, 63, 27
2, 36331, Note_on_c, 0, 85, 0
2, 36333, Note_on_c, 0, 52, 34
2, 36336, Note_on_c, 0, 58, 32
2, 36342, Note_on_c, 0, 82, 0
2, 36344, Control_c, 0, 64, 0
2, 36356, Note_on_c, 0, 80, 0
2, 36362, Note_on_c, 0, 63, 0
2, 36362, Note_on_c, 0, 52, 0
2, 36367, Note_on_c, 0, 76, 24
2, 36376, Note_on_c, 0, 76, 0
2, 36381, Note_on_c, 0, 58, 0
2, 36387, Note_on_c, 0, 75, 36
2, 36410, Note_on_c, 0, 75, 0
2, 36414, Note_on_c, 0, 74, 44
2, 36430, Note_on_c, 0, 74, 0
2, 36432, Note_on_c, 0, 73, 43
2, 36445, Control_c, 0, 64, 127
2, 36450, Note_on_c, 0, 73, 0
2, 36458, Note_on_c, 0, 72, 34
2, 36466, Note_on_c, 0, 72, 0
2, 36481, Note_on_c, 0, 58, 27
2, 36482, Note_on_c, 0, 70, 57
2, 36486, Note_on_c, 0, 48, 30
2, 36489, Note_on_c, 0, 68, 52
2, 36491, Note_on_c, 0, 58, 0
2, 36497, Note_on_c, 0, 48, 0
2, 36499, Control_c, 0, 64, 0
2, 36507, Note_on_c, 0, 70, 0
2, 36512, Note_on_c, 0, 66, 40
2, 36514, Note_on_c, 0, 68, 0
2, 36520, Note_on_c, 0, 66, 0
2, 36528, Note_on_c, 0, 64, 43
2, 36536, Note_on_c, 0, 64, 0
2, 36544, Note_on_c, 0, 42, 33
2, 36558, Note_on_c, 0, 62, 53
2, 36577, Control_c, 0, 64, 127
2, 36580, Note_on_c, 0, 62, 0
2, 36586, Note_on_c, 0, 61, 47
2, 36598, Note_on_c, 0, 61, 0
2, 36604, Note_on_c, 0, 42, 0
2, 36611, Note_on_c, 0, 60, 32
2, 36630, Note_on_c, 0, 60, 0
2, 36635, Note_on_c, 0, 58, 52
2, 36641, Note_on_c, 0, 50, 33
2, 36644, Note_on_c, 0, 41, 36
2, 36645, Control_c, 0, 64, 0
2, 36646, Note_on_c, 0, 48, 18
2, 36649, Note_on_c, 0, 58, 0
2, 36650, Note_on_c, 0, 57, 64
2, 36693, Control_c, 0, 64, 127
2, 36720, Note_on_c, 0, 50, 0
2, 36762, Note_on_c, 0, 57, 0
2, 36800, Note_on_c, 0, 57, 40
2, 36804, Note_on_c, 0, 52, 20
2, 36805, Note_on_c, 0, 53, 24
2, 36815, Note_on_c, 0, 53, 0
2, 36828, Note_on_c, 0, 57, 0
2, 36851, Note_on_c, 0, 52, 0
2, 36902, Note_on_c, 0, 48, 0
2, 36903, Note_on_c, 0, 50, 45
2, 36904, Note_on_c, 0, 65, 62
2, 36905, Note_on_c, 0, 60, 70
2, 36906, Note_on_c, 0, 57, 60
2, 36928, Note_on_c, 0, 60, 0
2, 36928, Note_on_c, 0, 65, 0
2, 36932, Note_on_c, 0, 50, 0
2, 36937, Note_on_c, 0, 57, 0
2, 36968, Note_on_c, 0, 64, 43
2, 36971, Note_on_c, 0, 61, 46
2, 36971, Note_on_c, 0, 49, 34
2, 36973, Note_on_c, 0, 53, 38
2, 36973, Note_on_c, 0, 57, 51
2, 36978, Control_c, 0, 64, 0
2, 37016, Control_c, 0, 64, 127
2, 37056, Note_on_c, 0, 53, 0
2, 37061, Note_on_c, 0, 49, 0
2, 37066, Note_on_c, 0, 61, 0
2, 37082, Note_on_c, 0, 57, 0
2, 37100, Note_on_c, 0, 64, 0
2, 37124, Note_on_c, 0, 62, 41
2, 37124, Control_c, 0, 64, 0
2, 37126, Note_on_c, 0, 50, 35
2, 37130, Note_on_c, 0, 53, 32
2, 37131, Note_on_c, 0, 57, 34
2, 37156, Control_c, 0, 64, 127
2, 37175, Note_on_c, 0, 41, 0
2, 37181, Note_on_c, 0, 53, 0
2, 37187, Note_on_c, 0, 57, 0
2, 37195, Note_on_c, 0, 50, 0
2, 37262, Note_on_c, 0, 62, 0
2, 37267, Control_c, 0, 64, 0
2, 37273, Note_on_c, 0, 58, 34
2, 37273, Note_on_c, 0, 43, 27
2, 37274, Note_on_c, 0, 55, 35
2, 37276, Note_on_c, 0, 53, 27
2, 37290, Note_on_c, 0, 55, 0
2, 37295, Control_c, 0, 64, 127
2, 37300, Note_on_c, 0, 58, 0
2, 37308, Note_on_c, 0, 43, 0
2, 37318, Note_on_c, 0, 53, 0
2, 37378, Note_on_c, 0, 79, 78
2, 37406, Note_on_c, 0, 79, 0
2, 37425, Control_c, 0, 64, 0
2, 37428, Note_on_c, 0, 62, 32
2, 37430, Note_on_c, 0, 67, 35
2, 37431, Note_on_c, 0, 58, 25
2, 37433, Note_on_c, 0, 57, 26
2, 37449, Control_c, 0, 64, 127
2, 37454, Note_on_c, 0, 67, 0
2, 37459, Note_on_c, 0, 62, 0
2, 37471, Note_on_c, 0, 57, 0
2, 37474, Note_on_c, 0, 58, 0
2, 37476, Note_on_c, 0, 67, 44
2, 37496, Note_on_c, 0, 67, 0
2, 37528, Note_on_c, 0, 77, 78
2, 37579, Note_on_c, 0, 58, 34
2, 37580, Control_c, 0, 64, 0
2, 37584, Note_on_c, 0, 48, 31
2, 37596, Control_c, 0, 64, 127
2, 37627, Note_on_c, 0, 77, 0
2, 37632, Note_on_c, 0, 65, 44
2, 37642, Note_on_c, 0, 65, 0
2, 37642, Note_on_c, 0, 58, 0
2, 37676, Note_on_c, 0, 76, 57
2, 37679, Note_on_c, 0, 68, 55
2, 37680, Note_on_c, 0, 64, 51
2, 37682, Note_on_c, 0, 73, 60
2, 37718, Note_on_c, 0, 68, 0
2, 37725, Note_on_c, 0, 64, 0
2, 37734, Control_c, 0, 64, 0
2, 37735, Note_on_c, 0, 64, 24
2, 37736, Note_on_c, 0, 58, 38
2, 37737, Note_on_c, 0, 73, 0
2, 37744, Note_on_c, 0, 76, 0
2, 37744, Control_c, 0, 64, 127
2, 37760, Note_on_c, 0, 64, 0
2, 37766, Note_on_c, 0, 48, 0
2, 37781, Note_on_c, 0, 64, 37
2, 37799, Note_on_c, 0, 58, 0
2, 37800, Note_on_c, 0, 64, 0
2, 37824, Note_on_c, 0, 76, 61
2, 37825, Note_on_c, 0, 58, 27
2, 37827, Note_on_c, 0, 48, 35
2, 37829, Note_on_c, 0, 68, 44
2, 37829, Note_on_c, 0, 64, 46
2, 37849, Note_on_c, 0, 76, 0
2, 37854, Note_on_c, 0, 68, 0
2, 37856, Note_on_c, 0, 64, 0
2, 37858, Note_on_c, 0, 58, 0
2, 37884, Note_on_c, 0, 72, 26
2, 37888, Note_on_c, 0, 57, 27
2, 37894, Control_c, 0, 64, 0
2, 37909, Note_on_c, 0, 72, 0
2, 37938, Note_on_c, 0, 72, 57
2, 37942, Note_on_c, 0, 57, 0
2, 37944, Note_on_c, 0, 60, 25
2, 37948, Control_c, 0, 64, 127
2, 37953, Note_on_c, 0, 60, 0
2, 37968, Note_on_c, 0, 72, 0
2, 37988, Note_on_c, 0, 65, 36
2, 37994, Note_on_c, 0, 60, 32
2, 38035, Control_c, 0, 64, 0
2, 38035, Note_on_c, 0, 57, 36
2, 38055, Control_c, 0, 64, 127
2, 38073, Note_on_c, 0, 60, 0
2, 38080, Note_on_c, 0, 48, 0
2, 38104, Note_on_c, 0, 65, 0
2, 38132, Note_on_c, 0, 60, 53
2, 38137, Note_on_c, 0, 48, 35
2, 38140, Note_on_c, 0, 60, 0
2, 38148, Note_on_c, 0, 57, 0
2, 38158, Note_on_c, 0, 48, 0
2, 38275, Note_on_c, 0, 54, 53
2, 38284, Note_on_c, 0, 64, 66
2, 38284, Note_on_c, 0, 67, 68
2, 38284, Note_on_c, 0, 61, 68
2, 38286, Note_on_c, 0, 55, 70
2, 38286, Note_on_c, 0, 58, 59
2, 38287, Control_c, 0, 64, 0
2, 38298, Note_on_c, 0, 54, 0
2, 38325, Control_c, 0, 64, 127
2, 38351, Note_on_c, 0, 64, 0
2, 38352, Note_on_c, 0, 61, 0
2, 38355, Note_on_c, 0, 58, 0
2, 38362, Note_on_c, 0, 67, 0
2, 38366, Note_on_c, 0, 55, 0
2, 38380, Note_on_c, 0, 58, 53
2, 38380, Note_on_c, 0, 61, 58
2, 38384, Note_on_c, 0, 65, 55
2, 38386, Control_c, 0, 64, 0
2, 38386, Note_on_c, 0, 53, 36
2, 38392, Control_c, 0, 64, 127
2, 38401, Note_on_c, 0, 58, 0
2, 38406, Note_on_c, 0, 61, 0
2, 38408, Note_on_c, 0, 65, 0
2, 38412, Note_on_c, 0, 53, 0
2, 38493, Control_c, 0, 64, 0
2, 38493, Note_on_c, 0, 70, 57
2, 38497, Note_on_c, 0, 62, 51
2, 38500, Note_on_c, 0, 65, 57
2, 38501, Note_on_c, 0, 50, 54
2, 38530, Control_c, 0, 64, 127
2, 38537, Note_on_c, 0, 65, 0
2, 38541, Note_on_c, 0, 70, 0
2, 38555, Note_on_c, 0, 62, 0
2, 38602, Note_on_c, 0, 74, 90
2, 38614, Note_on_c, 0, 73, 31
2, 38621, Note_on_c, 0, 73, 0
2, 38639, Note_on_c, 0, 74, 0
2, 38661, Note_on_c, 0, 58, 35
2, 38664, Note_on_c, 0, 74, 56
2, 38668, Note_on_c, 0, 62, 63
2, 38726, Note_on_c, 0, 74, 0
2, 38729, Note_on_c, 0, 62, 0
2, 38761, Note_on_c, 0, 58, 0
2, 38769, Note_on_c, 0, 74, 64
2, 38770, Note_on_c, 0, 62, 52
2, 38787, Note_on_c, 0, 62, 0
2, 38796, Note_on_c, 0, 74, 0
2, 38834, Note_on_c, 0, 72, 53
2, 38835, Note_on_c, 0, 69, 54
2, 38837, Note_on_c, 0, 63, 34
2, 38837, Note_on_c, 0, 66, 37
2, 38839, Note_on_c, 0, 57, 37
2, 38841, Control_c, 0, 64, 0
2, 38867, Control_c, 0, 64, 127
2, 38903, Note_on_c, 0, 72, 0
2, 38908, Note_on_c, 0, 63, 0
2, 38909, Note_on_c, 0, 69, 0
2, 38924, Note_on_c, 0, 57, 0
2, 38935, Note_on_c, 0, 66, 0
2, 38988, Note_on_c, 0, 70, 51
2, 38991, Note_on_c, 0, 60, 39
2, 38994, Note_on_c, 0, 65, 47
2, 38997, Note_on_c, 0, 55, 35
2, 38999, Control_c, 0, 64, 0
2, 39023, Control_c, 0, 64, 127
2, 39050, Note_on_c, 0, 50, 0
2, 39053, Note_on_c, 0, 55, 0
2, 39062, Note_on_c, 0, 65, 0
2, 39066, Note_on_c, 0, 70, 0
2, 39081, Note_on_c, 0, 60, 0
2, 39144, Note_on_c, 0, 69, 43
2, 39144, Note_on_c, 0, 60, 39
2, 39145, Note_on_c, 0, 48, 34
2, 39146, Note_on_c, 0, 65, 42
2, 39149, Control_c, 0, 64, 0
2, 39160, Note_on_c, 0, 57, 6
2, 39188, Control_c, 0, 64, 127
2, 39225, Note_on_c, 0, 57, 0
2, 39240, Note_on_c, 0, 60, 0
2, 39252, Note_on_c, 0, 65, 0
2, 39290, Note_on_c, 0, 69, 0
2, 39307, Note_on_c, 0, 57, 30
2, 39330, Note_on_c, 0, 57, 0
2, 39404, Note_on_c, 0, 79, 76
2, 39407, Note_on_c, 0, 71, 71
2, 39446, Note_on_c, 0, 71, 0
2, 39449, Note_on_c, 0, 79, 0
2, 39464, Control_c, 0, 64, 0
2, 39469, Note_on_c, 0, 59, 36
2, 39471, Note_on_c, 0, 67, 31
2, 39472, Note_on_c, 0, 62, 26
2, 39480, Note_on_c, 0, 77, 53
2, 39492, Control_c, 0, 64, 127
2, 39511, Note_on_c, 0, 62, 0
2, 39537, Note_on_c, 0, 59, 0
2, 39540, Note_on_c, 0, 77, 0
2, 39544, Note_on_c, 0, 67, 0
2, 39548, Note_on_c, 0, 48, 0
2, 39566, Note_on_c, 0, 48, 54
2, 39664, Note_on_c, 0, 48, 0
2, 39679, Note_on_c, 0, 67, 44
2, 39680, Note_on_c, 0, 62, 48
2, 39686, Note_on_c, 0, 79, 53
2, 39689, Note_on_c, 0, 67, 0
2, 39701, Note_on_c, 0, 62, 0
2, 39728, Note_on_c, 0, 48, 30
2, 39737, Note_on_c, 0, 48, 0
2, 39746, Note_on_c, 0, 79, 0
2, 39775, Note_on_c, 0, 72, 37
2, 39780, Note_on_c, 0, 48, 31
2, 39782, Note_on_c, 0, 58, 40
2, 39783, Note_on_c, 0, 53, 30
2, 39791, Control_c, 0, 64, 0
2, 39823, Note_on_c, 0, 48, 0
2, 39827, Control_c, 0, 64, 127
2, 39885, Note_on_c, 0, 36, 55
2, 39900, Note_on_c, 0, 53, 0
2, 39913, Note_on_c, 0, 58, 0
2, 39952, Note_on_c, 0, 53, 9
2, 39955, Note_on_c, 0, 72, 0
2, 39980, Note_on_c, 0, 58, 6
2, 39999, Note_on_c, 0, 36, 0
2, 40039, Note_on_c, 0, 58, 0
2, 40047, Note_on_c, 0, 53, 0
2, 40048, Note_on_c, 0, 36, 38
2, 40108, Note_on_c, 0, 61, 33
2, 40109, Note_on_c, 0, 52, 40
2, 40110, Note_on_c, 0, 64, 30
2, 40110, Note_on_c, 0, 56, 42
2, 40114, Note_on_c, 0, 48, 29
2, 40118, Control_c, 0, 64, 0
2, 40168, Note_on_c, 0, 48, 0
2, 40168, Control_c, 0, 64, 127
2, 40209, Note_on_c, 0, 48, 71
2, 40244, Note_on_c, 0, 48, 0
2, 40276, Note_on_c, 0, 48, 49
2, 40291, Note_on_c, 0, 36, 0
2, 40294, Note_on_c, 0, 48, 0
2, 40355, Note_on_c, 0, 52, 0
2, 40365, Note_on_c, 0, 48, 85
2, 40370, Note_on_c, 0, 47, 53
2, 40377, Note_on_c, 0, 47, 0
2, 40390, Note_on_c, 0, 56, 0
2, 40404, Note_on_c, 0, 61, 0
2, 40427, Note_on_c, 0, 64, 0
2, 40485, Control_c, 0, 64, 0
2, 40487, Note_on_c, 0, 55, 37
2, 40489, Note_on_c, 0, 60, 40
2, 40490, Note_on_c, 0, 57, 24
2, 40498, Note_on_c, 0, 60, 0
2, 40500, Note_on_c, 0, 55, 0
2, 40501, Note_on_c, 0, 57, 0
2, 40578, Note_on_c, 0, 65, 42
2, 40579, Note_on_c, 0, 57, 36
2, 40580, Note_on_c, 0, 55, 32
2, 40581, Note_on_c, 0, 60, 47
2, 40589, Control_c, 0, 64, 127
2, 40609, Note_on_c, 0, 48, 0
2, 40667, Control_c, 0, 64, 0
2, 40675, Note_on_c, 0, 48, 64
2, 40683, Note_on_c, 0, 48, 0
2, 40760, Note_on_c, 0, 48, 68
2, 40782, Control_c, 0, 64, 127
2, 40851, Control_c, 0, 64, 0
2, 40863, Note_on_c, 0, 36, 42
2, 40874, Control_c, 0, 64, 127
2, 40885, Note_on_c, 0, 36, 0
2, 40961, Note_on_c, 0, 36, 81
2, 40974, Control_c, 0, 64, 0
2, 40999, Note_on_c, 0, 48, 0
2, 41009, Control_c, 0, 64, 127
2, 41011, Note_on_c, 0, 55, 0
2, 41025, Note_on_c, 0, 36, 0
2, 41110, Note_on_c, 0, 48, 110
2, 41127, Note_on_c, 0, 57, 0
2, 41128, Note_on_c, 0, 60, 0
2, 41144, Control_c, 0, 64, 0
2, 41168, Note_on_c, 0, 60, 48
2, 41169, Note_on_c, 0, 55, 40
2, 41169, Note_on_c, 0, 57, 34
2, 41243, Control_c, 0, 64, 127
2, 41246, Note_on_c, 0, 55, 0
2, 41259, Note_on_c, 0, 60, 0
2, 41261, Note_on_c, 0, 57, 0
2, 41271, Note_on_c, 0, 36, 50
2, 41280, Note_on_c, 0, 48, 0
2, 41284, Note_on_c, 0, 65, 0
2, 41316, Control_c, 0, 64, 0
2, 41320, Note_on_c, 0, 65, 41
2, 41320, Note_on_c, 0, 57, 47
2, 41320, Note_on_c, 0, 55, 52
2, 41320, Note_on_c, 0, 60, 56
2, 41321, Note_on_c, 0, 36, 0
2, 41325, Note_on_c, 0, 48, 45
2, 41349, Control_c, 0, 64, 127
2, 41383, Note_on_c, 0, 55, 0
2, 41402, Note_on_c, 0, 57, 0
2, 41409, Note_on_c, 0, 60, 0
2, 41416, Note_on_c, 0, 48, 0
2, 41416, Note_on_c, 0, 65, 0
2, 41469, Note_on_c, 0, 56, 44
2, 41472, Note_on_c, 0, 48, 44
2, 41473, Note_on_c, 0, 53, 41
2, 41477, Control_c, 0, 64, 0
2, 41508, Note_on_c, 0, 48, 0
2, 41515, Control_c, 0, 64, 127
2, 41541, Note_on_c, 0, 53, 0
2, 41558, Note_on_c, 0, 56, 0
2, 41583, Note_on_c, 0, 57, 55
2, 41612, Control_c, 0, 64, 0
2, 41620, Note_on_c, 0, 57, 0
2, 41627, Note_on_c, 0, 41, 20
2, 41634, Note_on_c, 0, 57, 24
2, 41636, Note_on_c, 0, 48, 22
2, 41639, Control_c, 0, 64, 127
2, 41670, Note_on_c, 0, 48, 0
2, 41670, Note_on_c, 0, 41, 0
2, 41689, Note_on_c, 0, 57, 0
2, 41741, Note_on_c, 0, 79, 83
2, 41785, Note_on_c, 0, 79, 0
2, 41794, Control_c, 0, 64, 0
2, 41794, Note_on_c, 0, 60, 28
2, 41795, Note_on_c, 0, 53, 20
2, 41801, Note_on_c, 0, 76, 53
2, 41817, Control_c, 0, 64, 127
2, 41828, Note_on_c, 0, 60, 0
2, 41834, Note_on_c, 0, 76, 0
2, 41848, Note_on_c, 0, 53, 0
2, 41848, Note_on_c, 0, 77, 54
2, 41877, Note_on_c, 0, 77, 0
2, 41900, Note_on_c, 0, 79, 83
2, 41935, Note_on_c, 0, 79, 0
2, 41940, Control_c, 0, 64, 0
2, 41947, Note_on_c, 0, 77, 60
2, 41949, Note_on_c, 0, 50, 38
2, 41950, Note_on_c, 0, 61, 31
2, 41950, Note_on_c, 0, 57, 28
2, 41981, Control_c, 0, 64, 127
2, 41994, Note_on_c, 0, 77, 0
2, 42002, Note_on_c, 0, 73, 33
2, 42009, Note_on_c, 0, 61, 0
2, 42022, Note_on_c, 0, 73, 0
2, 42045, Note_on_c, 0, 57, 0
2, 42048, Note_on_c, 0, 76, 84
2, 42085, Control_c, 0, 64, 0
2, 42109, Note_on_c, 0, 74, 31
2, 42116, Control_c, 0, 64, 127
2, 42119, Note_on_c, 0, 50, 0
2, 42142, Note_on_c, 0, 74, 0
2, 42146, Note_on_c, 0, 76, 0
2, 42154, Note_on_c, 0, 69, 46
2, 42175, Note_on_c, 0, 69, 0
2, 42193, Note_on_c, 0, 50, 36
2, 42202, Note_on_c, 0, 66, 48
2, 42241, Note_on_c, 0, 50, 0
2, 42245, Control_c, 0, 64, 0
2, 42248, Note_on_c, 0, 43, 31
2, 42250, Note_on_c, 0, 53, 20
2, 42273, Control_c, 0, 64, 127
2, 42294, Note_on_c, 0, 43, 0
2, 42306, Note_on_c, 0, 53, 0
2, 42307, Note_on_c, 0, 69, 64
2, 42308, Note_on_c, 0, 66, 0
2, 42344, Note_on_c, 0, 69, 0
2, 42356, Note_on_c, 0, 66, 36
2, 42394, Note_on_c, 0, 66, 0
2, 42409, Note_on_c, 0, 58, 34
2, 42409, Control_c, 0, 64, 0
2, 42411, Note_on_c, 0, 67, 35
2, 42431, Note_on_c, 0, 58, 0
2, 42441, Control_c, 0, 64, 127
2, 42449, Note_on_c, 0, 67, 0
2, 42460, Note_on_c, 0, 62, 39
2, 42480, Note_on_c, 0, 62, 0
2, 42515, Note_on_c, 0, 65, 84
2, 42542, Note_on_c, 0, 65, 0
2, 42563, Note_on_c, 0, 58, 37
2, 42567, Control_c, 0, 64, 0
2, 42568, Note_on_c, 0, 50, 41
2, 42599, Control_c, 0, 64, 127
2, 42634, Note_on_c, 0, 67, 51
2, 42634, Note_on_c, 0, 69, 44
2, 42641, Note_on_c, 0, 69, 0
2, 42646, Note_on_c, 0, 58, 0
2, 42653, Note_on_c, 0, 67, 0
2, 42656, Note_on_c, 0, 65, 57
2, 42683, Note_on_c, 0, 65, 0
2, 42688, Note_on_c, 0, 62, 32
2, 42699, Note_on_c, 0, 50, 0
2, 42705, Note_on_c, 0, 62, 0
2, 42720, Note_on_c, 0, 58, 23
2, 42722, Note_on_c, 0, 65, 61
2, 42723, Note_on_c, 0, 52, 35
2, 42726, Control_c, 0, 64, 0
2, 42750, Note_on_c, 0, 65, 0
2, 42752, Note_on_c, 0, 62, 37
2, 42772, Note_on_c, 0, 62, 0
2, 42791, Note_on_c, 0, 64, 39
2, 42795, Control_c, 0, 64, 127
2, 42823, Note_on_c, 0, 58, 0
2, 42834, Note_on_c, 0, 60, 53
2, 42839, Note_on_c, 0, 64, 0
2, 42861, Note_on_c, 0, 60, 0
2, 42863, Note_on_c, 0, 52, 0
2, 42879, Note_on_c, 0, 60, 55
2, 42881, Note_on_c, 0, 69, 50
2, 42881, Note_on_c, 0, 64, 50
2, 42882, Note_on_c, 0, 57, 40
2, 42883, Control_c, 0, 64, 0
2, 42919, Control_c, 0, 64, 127
2, 42974, Note_on_c, 0, 64, 0
2, 42990, Note_on_c, 0, 57, 0
2, 42992, Note_on_c, 0, 60, 0
2, 43044, Note_on_c, 0, 53, 40
2, 43044, Note_on_c, 0, 60, 30
2, 43044, Note_on_c, 0, 64, 29
2, 43075, Note_on_c, 0, 53, 0
2, 43110, Note_on_c, 0, 60, 0
2, 43121, Note_on_c, 0, 64, 0
2, 43125, Note_on_c, 0, 69, 0
2, 43221, Control_c, 0, 64, 0
2, 43227, Control_c, 0, 64, 127
2, 43306, Note_on_c, 0, 67, 50
2, 43307, Note_on_c, 0, 64, 52
2, 43308, Note_on_c, 0, 55, 54
2, 43308, Note_on_c, 0, 60, 68
2, 43310, Note_on_c, 0, 50, 48
2, 43316, Control_c, 0, 64, 0
2, 43348, Control_c, 0, 64, 127
2, 43380, Note_on_c, 0, 60, 0
2, 43397, Note_on_c, 0, 65, 70
2, 43398, Note_on_c, 0, 60, 24
2, 43402, Note_on_c, 0, 67, 0
2, 43407, Note_on_c, 0, 50, 0
2, 43407, Note_on_c, 0, 64, 0
2, 43411, Note_on_c, 0, 55, 0
2, 43423, Note_on_c, 0, 60, 0
2, 43426, Note_on_c, 0, 65, 0
2, 43502, Note_on_c, 0, 67, 44
2, 43502, Note_on_c, 0, 70, 52
2, 43504, Note_on_c, 0, 59, 45
2, 43504, Note_on_c, 0, 63, 49
2, 43505, Control_c, 0, 64, 0
2, 43506, Note_on_c, 0, 58, 33
2, 43510, Note_on_c, 0, 49, 33
2, 43536, Note_on_c, 0, 59, 0
2, 43538, Control_c, 0, 64, 127
2, 43555, Note_on_c, 0, 67, 0
2, 43559, Note_on_c, 0, 63, 0
2, 43568, Note_on_c, 0, 49, 0
2, 43569, Note_on_c, 0, 70, 0
2, 43577, Note_on_c, 0, 58, 0
2, 43669, Note_on_c, 0, 59, 41
2, 43669, Note_on_c, 0, 63, 35
2, 43670, Note_on_c, 0, 82, 50
2, 43672, Note_on_c, 0, 79, 42
2, 43673, Note_on_c, 0, 75, 40
2, 43674, Note_on_c, 0, 71, 34
2, 43676, Note_on_c, 0, 53, 29
2, 43678, Note_on_c, 0, 59, 0
2, 43681, Note_on_c, 0, 63, 0
2, 43690, Note_on_c, 0, 53, 0
2, 43722, Note_on_c, 0, 79, 0
2, 43744, Note_on_c, 0, 71, 0
2, 43748, Note_on_c, 0, 82, 0
2, 43760, Note_on_c, 0, 75, 0
2, 43828, Note_on_c, 0, 36, 34
2, 43830, Note_on_c, 0, 43, 20
2, 43831, Control_c, 0, 64, 0
2, 43832, Note_on_c, 0, 81, 46
2, 43833, Note_on_c, 0, 74, 40
2, 43834, Note_on_c, 0, 78, 38
2, 43834, Note_on_c, 0, 70, 31
2, 43835, Note_on_c, 0, 52, 45
2, 43855, Control_c, 0, 64, 127
2, 43856, Note_on_c, 0, 74, 0
2, 43857, Note_on_c, 0, 70, 0
2, 43864, Note_on_c, 0, 78, 0
2, 43867, Note_on_c, 0, 81, 0
2, 43869, Note_on_c, 0, 36, 0
2, 43871, Note_on_c, 0, 43, 0
2, 43888, Note_on_c, 0, 52, 0
2, 43940, Note_on_c, 0, 93, 70
2, 43940, Note_on_c, 0, 86, 69
2, 43976, Note_on_c, 0, 86, 0
2, 43992, Note_on_c, 0, 93, 0
2, 43996, Note_on_c, 0, 58, 38
2, 43996, Note_on_c, 0, 62, 22
2, 43996, Note_on_c, 0, 90, 48
2, 43998, Note_on_c, 0, 52, 31
2, 44001, Note_on_c, 0, 81, 37
2, 44004, Note_on_c, 0, 86, 25
2, 44011, Note_on_c, 0, 62, 0
2, 44018, Note_on_c, 0, 58, 0
2, 44021, Note_on_c, 0, 52, 0
2, 44043, Note_on_c, 0, 86, 0
2, 44066, Note_on_c, 0, 90, 0
2, 44080, Note_on_c, 0, 81, 0
2, 44098, Note_on_c, 0, 56, 31
2, 44103, Note_on_c, 0, 46, 31
2, 44131, Note_on_c, 0, 56, 0
2, 44140, Note_on_c, 0, 46, 0
2, 44159, Note_on_c, 0, 79, 34
2, 44160, Control_c, 0, 64, 0
2, 44160, Note_on_c, 0, 84, 50
2, 44162, Note_on_c, 0, 52, 15
2, 44162, Note_on_c, 0, 55, 31
2, 44166, Note_on_c, 0, 45, 31
2, 44184, Control_c, 0, 64, 127
2, 44186, Note_on_c, 0, 84, 0
2, 44186, Note_on_c, 0, 79, 0
2, 44189, Note_on_c, 0, 45, 0
2, 44198, Note_on_c, 0, 52, 0
2, 44212, Note_on_c, 0, 55, 0
2, 44263, Note_on_c, 0, 96, 87
2, 44290, Note_on_c, 0, 96, 0
2, 44312, Note_on_c, 0, 64, 26
2, 44313, Note_on_c, 0, 60, 33
2, 44316, Note_on_c, 0, 84, 54
2, 44323, Note_on_c, 0, 60, 0
2, 44325, Note_on_c, 0, 84, 0
2, 44325, Note_on_c, 0, 64, 0
2, 44366, Note_on_c, 0, 84, 51
2, 44374, Note_on_c, 0, 84, 0
2, 44418, Note_on_c, 0, 96, 84
2, 44451, Note_on_c, 0, 96, 0
2, 44474, Note_on_c, 0, 84, 57
2, 44484, Note_on_c, 0, 84, 0
2, 44520, Note_on_c, 0, 84, 52
2, 44532, Note_on_c, 0, 84, 0
2, 44575, Note_on_c, 0, 96, 81
2, 44603, Note_on_c, 0, 96, 0
2, 44626, Note_on_c, 0, 84, 62
2, 44627, Note_on_c, 0, 58, 38
2, 44637, Note_on_c, 0, 48, 36
2, 44658, Note_on_c, 0, 84, 0
2, 44673, Note_on_c, 0, 48, 0
2, 44683, Note_on_c, 0, 96, 54
2, 44684, Note_on_c, 0, 58, 0
2, 44700, Note_on_c, 0, 96, 0
2, 44737, Note_on_c, 0, 83, 66
2, 44738, Control_c, 0, 64, 0
2, 44739, Note_on_c, 0, 57, 38
2, 44740, Note_on_c, 0, 47, 40
2, 44754, Control_c, 0, 64, 127
2, 44784, Note_on_c, 0, 47, 0
2, 44786, Note_on_c, 0, 57, 0
2, 44792, Note_on_c, 0, 95, 42
2, 44802, Note_on_c, 0, 83, 0
2, 44804, Note_on_c, 0, 95, 0
2, 44846, Note_on_c, 0, 82, 57
2, 44848, Note_on_c, 0, 46, 42
2, 44848, Note_on_c, 0, 55, 44
2, 44854, Control_c, 0, 64, 0
2, 44860, Control_c, 0, 64, 127
2, 44863, Note_on_c, 0, 82, 0
2, 44893, Note_on_c, 0, 55, 0
2, 44909, Note_on_c, 0, 54, 40
2, 44964, Note_on_c, 0, 54, 0
2, 44964, Note_on_c, 0, 70, 65
2, 44968, Note_on_c, 0, 65, 60
2, 44970, Note_on_c, 0, 60, 40
2, 44970, Note_on_c, 0, 55, 58
2, 44982, Control_c, 0, 64, 0
2, 45006, Control_c, 0, 64, 127
2, 45016, Note_on_c, 0, 55, 0
2, 45018, Note_on_c, 0, 54, 42
2, 45044, Note_on_c, 0, 54, 0
2, 45046, Note_on_c, 0, 65, 0
2, 45053, Note_on_c, 0, 46, 0
2, 45059, Note_on_c, 0, 70, 0
2, 45074, Note_on_c, 0, 60, 0
2, 45074, Note_on_c, 0, 55, 60
2, 45135, Note_on_c, 0, 62, 43
2, 45137, Note_on_c, 0, 58, 34
2, 45137, Note_on_c, 0, 57, 42
2, 45138, Note_on_c, 0, 55, 0
2, 45138, Control_c, 0, 64, 0
2, 45139, Note_on_c, 0, 65, 37
2, 45173, Control_c, 0, 64, 127
2, 45187, Note_on_c, 0, 57, 0
2, 45189, Note_on_c, 0, 65, 0
2, 45191, Note_on_c, 0, 62, 0
2, 45194, Note_on_c, 0, 55, 42
2, 45205, Note_on_c, 0, 58, 0
2, 45223, Note_on_c, 0, 55, 0
2, 45252, Note_on_c, 0, 48, 37
2, 45266, Note_on_c, 0, 48, 0
2, 45306, Note_on_c, 0, 58, 37
2, 45307, Note_on_c, 0, 65, 36
2, 45308, Note_on_c, 0, 53, 37
2, 45311, Control_c, 0, 64, 0
2, 45323, Control_c, 0, 64, 127
2, 45325, Note_on_c, 0, 65, 0
2, 45353, Note_on_c, 0, 58, 0
2, 45355, Note_on_c, 0, 53, 0
2, 45358, Note_on_c, 0, 34, 35
2, 45447, Note_on_c, 0, 34, 0
2, 45470, Note_on_c, 0, 33, 39
2, 45472, Control_c, 0, 64, 0
2, 45472, Note_on_c, 0, 53, 50
2, 45473, Note_on_c, 0, 57, 42
2, 45473, Note_on_c, 0, 45, 25
2, 45474, Note_on_c, 0, 60, 47
2, 45496, Control_c, 0, 64, 127
2, 45504, Note_on_c, 0, 53, 0
2, 45504, Note_on_c, 0, 33, 0
2, 45514, Note_on_c, 0, 57, 0
2, 45519, Note_on_c, 0, 60, 0
2, 45522, Note_on_c, 0, 45, 0
2, 45638, Note_on_c, 0, 72, 87
2, 45639, Note_on_c, 0, 65, 90
2, 45641, Note_on_c, 0, 55, 64
2, 45642, Note_on_c, 0, 61, 55
2, 45654, Control_c, 0, 64, 0
2, 45680, Control_c, 0, 64, 127
2, 45698, Note_on_c, 0, 69, 58
2, 45699, Note_on_c, 0, 60, 60
2, 45701, Note_on_c, 0, 72, 0
2, 45735, Note_on_c, 0, 60, 0
2, 45744, Note_on_c, 0, 65, 0
2, 45750, Note_on_c, 0, 55, 0
2, 45751, Note_on_c, 0, 69, 0
2, 45754, Note_on_c, 0, 61, 0
2, 45795, Note_on_c, 0, 74, 74
2, 45797, Note_on_c, 0, 65, 76
2, 45798, Note_on_c, 0, 60, 62
2, 45800, Note_on_c, 0, 54, 58
2, 45800, Note_on_c, 0, 70, 69
2, 45805, Control_c, 0, 64, 0
2, 45829, Note_on_c, 0, 70, 0
2, 45847, Control_c, 0, 64, 127
2, 45859, Note_on_c, 0, 70, 57
2, 45875, Note_on_c, 0, 74, 0
2, 45883, Note_on_c, 0, 65, 0
2, 45893, Note_on_c, 0, 70, 0
2, 45929, Note_on_c, 0, 60, 0
2, 45963, Note_on_c, 0, 70, 47
2, 45964, Note_on_c, 0, 77, 60
2, 45964, Note_on_c, 0, 74, 41
2, 45967, Control_c, 0, 64, 0
2, 45968, Note_on_c, 0, 60, 42
2, 45968, Note_on_c, 0, 65, 37
2, 45972, Note_on_c, 0, 50, 28
2, 45997, Control_c, 0, 64, 127
2, 46014, Note_on_c, 0, 60, 0
2, 46014, Note_on_c, 0, 77, 0
2, 46017, Note_on_c, 0, 74, 0
2, 46033, Note_on_c, 0, 54, 0
2, 46035, Note_on_c, 0, 65, 0
2, 46036, Note_on_c, 0, 70, 0
2, 46038, Note_on_c, 0, 50, 0
2, 46106, Note_on_c, 0, 49, 19
2, 46120, Note_on_c, 0, 49, 0
2, 46123, Note_on_c, 0, 68, 44
2, 46125, Note_on_c, 0, 59, 42
2, 46130, Control_c, 0, 64, 0
2, 46130, Note_on_c, 0, 63, 39
2, 46131, Note_on_c, 0, 53, 44
2, 46162, Control_c, 0, 64, 127
2, 46202, Note_on_c, 0, 63, 0
2, 46205, Note_on_c, 0, 59, 0
2, 46209, Control_c, 0, 64, 0
2, 46215, Note_on_c, 0, 68, 0
2, 46227, Note_on_c, 0, 53, 0
2, 46230, Control_c, 0, 64, 127
2, 46230, Note_on_c, 0, 63, 43
2, 46230, Note_on_c, 0, 55, 53
2, 46231, Note_on_c, 0, 70, 67
2, 46231, Note_on_c, 0, 59, 51
2, 46242, Note_on_c, 0, 65, 24
2, 46255, Note_on_c, 0, 65, 0
2, 46262, Note_on_c, 0, 59, 0
2, 46270, Note_on_c, 0, 63, 0
2, 46276, Note_on_c, 0, 70, 0
2, 46280, Control_c, 0, 64, 0
2, 46285, Note_on_c, 0, 55, 0
2, 46287, Note_on_c, 0, 68, 31
2, 46291, Note_on_c, 0, 63, 34
2, 46292, Note_on_c, 0, 59, 33
2, 46295, Note_on_c, 0, 53, 36
2, 46295, Note_on_c, 0, 65, 32
2, 46312, Control_c, 0, 64, 127
2, 46335, Note_on_c, 0, 68, 0
2, 46345, Note_on_c, 0, 65, 0
2, 46348, Note_on_c, 0, 59, 0
2, 46355, Note_on_c, 0, 53, 0
2, 46360, Note_on_c, 0, 63, 0
2, 46393, Note_on_c, 0, 67, 42
2, 46394, Note_on_c, 0, 58, 37
2, 46396, Note_on_c, 0, 62, 46
2, 46400, Note_on_c, 0, 52, 31
2, 46418, Note_on_c, 0, 67, 0
2, 46421, Note_on_c, 0, 62, 0
2, 46426, Note_on_c, 0, 52, 0
2, 46432, Note_on_c, 0, 58, 0
2, 46460, Control_c, 0, 64, 0
2, 46462, Note_on_c, 0, 62, 42
2, 46465, Note_on_c, 0, 65, 35
2, 46466, Note_on_c, 0, 55, 24
2, 46466, Note_on_c, 0, 58, 32
2, 46472, Note_on_c, 0, 50, 16
2, 46504, Control_c, 0, 64, 127
2, 46522, Control_c, 0, 64, 0
2, 46524, Note_on_c, 0, 50, 0
2, 46531, Note_on_c, 0, 62, 0
2, 46532, Note_on_c, 0, 65, 0
2, 46537, Control_c, 0, 64, 127
2, 46547, Note_on_c, 0, 55, 0
2, 46550, Note_on_c, 0, 58, 0
2, 46564, Note_on_c, 0, 43, 33
2, 46609, Note_on_c, 0, 43, 0
2, 46619, Control_c, 0, 64, 0
2, 46620, Note_on_c, 0, 61, 42
2, 46621, Note_on_c, 0, 56, 40
2, 46623, Note_on_c, 0, 52, 42
2, 46624, Note_on_c, 0, 64, 32
2, 46627, Note_on_c, 0, 48, 35
2, 46652, Control_c, 0, 64, 127
2, 46661, Note_on_c, 0, 48, 0
2, 46674, Note_on_c, 0, 52, 0
2, 46695, Note_on_c, 0, 61, 0
2, 46702, Note_on_c, 0, 56, 0
2, 46729, Note_on_c, 0, 48, 41
2, 46753, Note_on_c, 0, 64, 0
2, 46771, Control_c, 0, 64, 0
2, 46772, Note_on_c, 0, 48, 0
2, 46785, Note_on_c, 0, 55, 44
2, 46786, Note_on_c, 0, 60, 52
2, 46787, Note_on_c, 0, 41, 40
2, 46788, Note_on_c, 0, 57, 42
2, 46799, Control_c, 0, 64, 127
2, 46803, Note_on_c, 0, 55, 0
2, 46806, Note_on_c, 0, 41, 0
2, 46818, Note_on_c, 0, 57, 0
2, 46827, Note_on_c, 0, 60, 0
2, 46903, Note_on_c, 0, 62, 65
2, 46903, Note_on_c, 0, 68, 82
2, 46903, Note_on_c, 0, 77, 60
2, 46903, Note_on_c, 0, 73, 64
2, 46916, Control_c, 0, 64, 0
2, 46931, Control_c, 0, 64, 127
2, 47023, Note_on_c, 0, 62, 0
2, 47056, Note_on_c, 0, 77, 0
2, 47058, Note_on_c, 0, 73, 0
2, 47072, Note_on_c, 0, 68, 0
2, 47075, Note_on_c, 0, 61, 37
2, 47127, Note_on_c, 0, 61, 0
2, 47142, Note_on_c, 0, 76, 51
2, 47144, Note_on_c, 0, 65, 49
2, 47145, Note_on_c, 0, 69, 55
2, 47147, Note_on_c, 0, 60, 44
2, 47147, Note_on_c, 0, 72, 44
2, 47157, Control_c, 0, 64, 0
2, 47187, Control_c, 0, 64, 127
2, 47227, Note_on_c, 0, 76, 0
2, 47234, Note_on_c, 0, 72, 0
2, 47241, Note_on_c, 0, 65, 0
2, 47244, Note_on_c, 0, 69, 0
2, 47258, Note_on_c, 0, 58, 64
2, 47261, Note_on_c, 0, 60, 0
2, 47319, Note_on_c, 0, 58, 0
2, 47320, Note_on_c, 0, 74, 47
2, 47321, Control_c, 0, 64, 0
2, 47322, Note_on_c, 0, 64, 41
2, 47322, Note_on_c, 0, 69, 57
2, 47325, Note_on_c, 0, 57, 47
2, 47355, Control_c, 0, 64, 127
2, 47379, Note_on_c, 0, 57, 0
2, 47381, Note_on_c, 0, 74, 0
2, 47385, Note_on_c, 0, 69, 0
2, 47398, Note_on_c, 0, 64, 0
2, 47430, Note_on_c, 0, 44, 29
2, 47458, Note_on_c, 0, 44, 0
2, 47486, Control_c, 0, 64, 0
2, 47487, Note_on_c, 0, 43, 36
2, 47487, Note_on_c, 0, 58, 35
2, 47489, Note_on_c, 0, 62, 40
2, 47492, Note_on_c, 0, 65, 45
2, 47510, Control_c, 0, 64, 127
2, 47514, Note_on_c, 0, 53, 1
2, 47523, Note_on_c, 0, 43, 0
2, 47541, Note_on_c, 0, 53, 0
2, 47559, Note_on_c, 0, 58, 0
2, 47594, Note_on_c, 0, 62, 0
2, 47607, Note_on_c, 0, 65, 0
2, 47652, Note_on_c, 0, 58, 36
2, 47654, Note_on_c, 0, 62, 42
2, 47664, Note_on_c, 0, 57, 24
2, 47679, Note_on_c, 0, 57, 0
2, 47710, Note_on_c, 0, 62, 0
2, 47720, Note_on_c, 0, 58, 0
2, 47779, Note_on_c, 0, 46, 27
2, 47812, Note_on_c, 0, 58, 60
2, 47813, Note_on_c, 0, 62, 58
2, 47813, Note_on_c, 0, 55, 67
2, 47814, Note_on_c, 0, 65, 61
2, 47816, Note_on_c, 0, 48, 62
2, 47819, Note_on_c, 0, 46, 0
2, 47832, Control_c, 0, 64, 0
2, 47843, Note_on_c, 0, 48, 0
2, 47864, Note_on_c, 0, 49, 33
2, 47871, Note_on_c, 0, 49, 0
2, 47880, Note_on_c, 0, 50, 65
2, 47907, Note_on_c, 0, 51, 49
2, 47908, Note_on_c, 0, 50, 0
2, 47938, Note_on_c, 0, 52, 39
2, 47948, Note_on_c, 0, 51, 0
2, 47949, Control_c, 0, 64, 127
2, 47954, Note_on_c, 0, 52, 0
2, 47957, Note_on_c, 0, 53, 62
2, 47972, Control_c, 0, 64, 0
2, 47980, Note_on_c, 0, 53, 0
2, 47987, Note_on_c, 0, 54, 55
2, 48018, Control_c, 0, 64, 127
2, 48049, Note_on_c, 0, 54, 0
2, 48067, Note_on_c, 0, 55, 0
2, 48070, Note_on_c, 0, 58, 0
2, 48094, Note_on_c, 0, 62, 0
2, 48114, Note_on_c, 0, 65, 0
2, 48138, Control_c, 0, 64, 0
2, 48152, Note_on_c, 0, 57, 57
2, 48152, Note_on_c, 0, 60, 68
2, 48248, Note_on_c, 0, 53, 82
2, 48249, Note_on_c, 0, 57, 0
2, 48252, Note_on_c, 0, 60, 0
2, 48314, Note_on_c, 0, 64, 75
2, 48314, Note_on_c, 0, 69, 76
2, 48316, Note_on_c, 0, 60, 66
2, 48350, Control_c, 0, 64, 127
2, 48400, Note_on_c, 0, 69, 0
2, 48402, Note_on_c, 0, 64, 0
2, 48404, Note_on_c, 0, 60, 0
2, 48414, Note_on_c, 0, 53, 0
2, 48565, Note_on_c, 0, 57, 47
2, 48565, Note_on_c, 0, 67, 54
2, 48566, Note_on_c, 0, 50, 58
2, 48567, Note_on_c, 0, 64, 49
2, 48569, Note_on_c, 0, 60, 53
2, 48576, Control_c, 0, 64, 0
2, 48612, Control_c, 0, 64, 127
2, 48646, Note_on_c, 0, 64, 0
2, 48649, Note_on_c, 0, 50, 0
2, 48649, Note_on_c, 0, 67, 0
2, 48660, Note_on_c, 0, 57, 0
2, 48660, Note_on_c, 0, 65, 58
2, 48669, Note_on_c, 0, 60, 0
2, 48679, Note_on_c, 0, 65, 0
2, 48746, Note_on_c, 0, 70, 58
2, 48748, Note_on_c, 0, 63, 45
2, 48748, Note_on_c, 0, 59, 49
2, 48749, Note_on_c, 0, 67, 44
2, 48750, Note_on_c, 0, 49, 38
2, 48750, Note_on_c, 0, 58, 33
2, 48765, Control_c, 0, 64, 0
2, 48807, Control_c, 0, 64, 127
2, 48857, Note_on_c, 0, 58, 0
2, 48872, Note_on_c, 0, 59, 0
2, 48883, Note_on_c, 0, 67, 0
2, 48885, Note_on_c, 0, 63, 0
2, 48943, Note_on_c, 0, 67, 29
2, 48944, Note_on_c, 0, 63, 32
2, 48948, Note_on_c, 0, 59, 32
2, 48950, Note_on_c, 0, 58, 25
2, 49028, Note_on_c, 0, 58, 0
2, 49038, Note_on_c, 0, 67, 0
2, 49048, Note_on_c, 0, 70, 0
2, 49049, Note_on_c, 0, 59, 0
2, 49074, Note_on_c, 0, 63, 0
2, 49088, Note_on_c, 0, 49, 0
2, 49109, Note_on_c, 0, 69, 69
2, 49112, Note_on_c, 0, 62, 62
2, 49112, Note_on_c, 0, 58, 52
2, 49113, Note_on_c, 0, 57, 51
2, 49115, Note_on_c, 0, 65, 54
2, 49121, Note_on_c, 0, 48, 32
2, 49124, Control_c, 0, 64, 0
2, 49160, Control_c, 0, 64, 127
2, 49214, Note_on_c, 0, 57, 0
2, 49223, Note_on_c, 0, 56, 34
2, 49226, Note_on_c, 0, 65, 0
2, 49232, Note_on_c, 0, 62, 0
2, 49240, Note_on_c, 0, 58, 0
2, 49247, Note_on_c, 0, 69, 0
2, 49272, Note_on_c, 0, 56, 0
2, 49282, Note_on_c, 0, 67, 46
2, 49286, Control_c, 0, 64, 0
2, 49286, Note_on_c, 0, 58, 26
2, 49289, Note_on_c, 0, 61, 32
2, 49290, Note_on_c, 0, 55, 27
2, 49291, Note_on_c, 0, 64, 32
2, 49314, Note_on_c, 0, 48, 0
2, 49315, Control_c, 0, 64, 127
2, 49342, Note_on_c, 0, 55, 0
2, 49354, Note_on_c, 0, 67, 0
2, 49367, Note_on_c, 0, 58, 0
2, 49375, Note_on_c, 0, 64, 0
2, 49382, Note_on_c, 0, 66, 1
2, 49390, Note_on_c, 0, 61, 0
2, 49391, Note_on_c, 0, 46, 33
2, 49421, Note_on_c, 0, 46, 0
2, 49424, Note_on_c, 0, 66, 0
2, 49434, Control_c, 0, 64, 0
2, 49445, Note_on_c, 0, 60, 48
2, 49446, Note_on_c, 0, 55, 33
2, 49448, Note_on_c, 0, 45, 37
2, 49458, Control_c, 0, 64, 127
2, 49462, Note_on_c, 0, 55, 0
2, 49468, Note_on_c, 0, 60, 0
2, 49474, Note_on_c, 0, 45, 0
2, 49560, Note_on_c, 0, 84, 68
2, 49562, Note_on_c, 0, 79, 65
2, 49562, Note_on_c, 0, 74, 58
2, 49565, Note_on_c, 0, 70, 50
2, 49655, Note_on_c, 0, 79, 0
2, 49662, Note_on_c, 0, 84, 0
2, 49662, Note_on_c, 0, 70, 0
2, 49670, Note_on_c, 0, 74, 0
2, 49728, Note_on_c, 0, 82, 64
2, 49731, Note_on_c, 0, 77, 47
2, 49735, Note_on_c, 0, 72, 34
2, 49736, Note_on_c, 0, 67, 34
2, 49755, Control_c, 0, 64, 0
2, 49767, Control_c, 0, 64, 127
2, 49808, Note_on_c, 0, 82, 0
2, 49810, Note_on_c, 0, 77, 0
2, 49812, Note_on_c, 0, 67, 0
2, 49818, Note_on_c, 0, 72, 0
2, 49884, Note_on_c, 0, 70, 36
2, 49885, Note_on_c, 0, 81, 54
2, 49886, Note_on_c, 0, 76, 47
2, 49890, Note_on_c, 0, 65, 36
2, 49898, Control_c, 0, 64, 0
2, 49919, Control_c, 0, 64, 127
2, 49930, Note_on_c, 0, 65, 0
2, 49940, Note_on_c, 0, 81, 0
2, 49944, Note_on_c, 0, 76, 0
2, 49968, Note_on_c, 0, 70, 0
2, 49994, Note_on_c, 0, 78, 45
2, 50042, Note_on_c, 0, 78, 0
2, 50047, Note_on_c, 0, 73, 44
2, 50073, Note_on_c, 0, 73, 0
2, 50092, Note_on_c, 0, 77, 38
2, 50095, Note_on_c, 0, 65, 24
2, 50100, Control_c, 0, 64, 0
2, 50104, Note_on_c, 0, 62, 17
2, 50104, Note_on_c, 0, 60, 31
2, 50126, Note_on_c, 0, 65, 0
2, 50127, Control_c, 0, 64, 127
2, 50130, Note_on_c, 0, 77, 0
2, 50146, Note_on_c, 0, 65, 41
2, 50175, Note_on_c, 0, 65, 0
2, 50200, Note_on_c, 0, 53, 38
2, 50201, Note_on_c, 0, 67, 56
2, 50296, Note_on_c, 0, 62, 0
2, 50298, Note_on_c, 0, 60, 0
2, 50321, Note_on_c, 0, 53, 0
2, 50324, Note_on_c, 0, 69, 54
2, 50338, Note_on_c, 0, 67, 0
2, 50354, Note_on_c, 0, 69, 0
2, 50372, Note_on_c, 0, 70, 63
2, 50408, Note_on_c, 0, 70, 0
2, 50426, Control_c, 0, 64, 0
2, 50428, Note_on_c, 0, 67, 38
2, 50428, Note_on_c, 0, 72, 38
2, 50429, Note_on_c, 0, 48, 34
2, 50433, Note_on_c, 0, 58, 13
2, 50452, Note_on_c, 0, 72, 0
2, 50457, Control_c, 0, 64, 127
2, 50460, Note_on_c, 0, 67, 0
2, 50486, Note_on_c, 0, 62, 35
2, 50487, Note_on_c, 0, 74, 33
2, 50497, Note_on_c, 0, 70, 21
2, 50506, Note_on_c, 0, 62, 0
2, 50510, Note_on_c, 0, 58, 0
2, 50512, Note_on_c, 0, 70, 0
2, 50516, Note_on_c, 0, 74, 0
2, 50598, Control_c, 0, 64, 0
2, 50598, Note_on_c, 0, 76, 30
2, 50598, Note_on_c, 0, 68, 38
2, 50598, Note_on_c, 0, 73, 35
2, 50600, Note_on_c, 0, 64, 30
2, 50600, Note_on_c, 0, 58, 29
2, 50618, Control_c, 0, 64, 127
2, 50630, Note_on_c, 0, 64, 0
2, 50630, Note_on_c, 0, 68, 0
2, 50635, Note_on_c, 0, 73, 0
2, 50636, Note_on_c, 0, 76, 0
2, 50677, Note_on_c, 0, 48, 0
2, 50703, Note_on_c, 0, 48, 47
2, 50714, Note_on_c, 0, 58, 0
2, 50798, Note_on_c, 0, 48, 0
2, 50832, Note_on_c, 0, 48, 50
2, 50882, Note_on_c, 0, 48, 0
2, 50934, Note_on_c, 0, 48, 55
2, 51040, Note_on_c, 0, 65, 63
2, 51040, Note_on_c, 0, 62, 57
2, 51041, Note_on_c, 0, 60, 60
2, 51044, Note_on_c, 0, 57, 35
2, 51046, Control_c, 0, 64, 0
2, 51087, Control_c, 0, 64, 127
2, 51099, Note_on_c, 0, 48, 0
2, 51144, Note_on_c, 0, 48, 49
2, 51169, Note_on_c, 0, 48, 0
2, 51248, Control_c, 0, 64, 0
2, 51250, Note_on_c, 0, 48, 51
2, 51267, Control_c, 0, 64, 127
2, 51278, Note_on_c, 0, 48, 0
2, 51353, Note_on_c, 0, 48, 77
2, 51371, Control_c, 0, 64, 0
2, 51391, Control_c, 0, 64, 127
2, 51414, Note_on_c, 0, 48, 0
2, 51464, Note_on_c, 0, 48, 81
2, 51527, Note_on_c, 0, 48, 0
2, 51566, Control_c, 0, 64, 0
2, 51568, Note_on_c, 0, 48, 82
2, 51574, Control_c, 0, 64, 127
2, 51579, Note_on_c, 0, 60, 0
2, 51581, Note_on_c, 0, 62, 0
2, 51583, Note_on_c, 0, 65, 0
2, 51584, Note_on_c, 0, 57, 0
2, 51598, Note_on_c, 0, 48, 0
2, 51672, Note_on_c, 0, 72, 71
2, 51672, Note_on_c, 0, 48, 68
2, 51674, Note_on_c, 0, 60, 71
2, 51684, Note_on_c, 0, 60, 0
2, 51689, Note_on_c, 0, 48, 0
2, 51693, Note_on_c, 0, 72, 0
2, 51733, Note_on_c, 0, 53, 84
2, 51735, Note_on_c, 0, 65, 91
2, 51735, Note_on_c, 0, 77, 89
2, 51736, Control_c, 0, 64, 0
2, 51768, Control_c, 0, 64, 127
2, 51816, Note_on_c, 0, 77, 0
2, 51817, Note_on_c, 0, 53, 0
2, 51818, Note_on_c, 0, 65, 0
2, 51839, Note_on_c, 0, 65, 44
2, 51840, Note_on_c, 0, 77, 34
2, 51842, Note_on_c, 0, 53, 49
2, 51858, Note_on_c, 0, 65, 0
2, 51862, Note_on_c, 0, 77, 0
2, 51897, Note_on_c, 0, 67, 60
2, 51897, Note_on_c, 0, 55, 63
2, 51898, Note_on_c, 0, 79, 48
2, 51898, Control_c, 0, 64, 0
2, 51905, Note_on_c, 0, 53, 0
2, 51905, Control_c, 0, 64, 127
2, 51941, Note_on_c, 0, 79, 0
2, 51962, Note_on_c, 0, 67, 0
2, 51982, Note_on_c, 0, 55, 0
2, 52066, Note_on_c, 0, 60, 43
2, 52066, Note_on_c, 0, 68, 53
2, 52070, Note_on_c, 0, 64, 43
2, 52072, Note_on_c, 0, 53, 35
2, 52079, Control_c, 0, 64, 0
2, 52119, Control_c, 0, 64, 127
2, 52166, Note_on_c, 0, 60, 0
2, 52170, Note_on_c, 0, 64, 0
2, 52187, Note_on_c, 0, 68, 0
2, 52340, Note_on_c, 0, 70, 61
2, 52342, Note_on_c, 0, 62, 35
2, 52345, Note_on_c, 0, 53, 0
2, 52345, Note_on_c, 0, 67, 37
2, 52349, Note_on_c, 0, 55, 43
2, 52352, Control_c, 0, 64, 0
2, 52352, Note_on_c, 0, 65, 30
2, 52372, Control_c, 0, 64, 127
2, 52379, Note_on_c, 0, 65, 0
2, 52380, Note_on_c, 0, 67, 0
2, 52383, Note_on_c, 0, 62, 0
2, 52396, Note_on_c, 0, 70, 0
2, 52428, Note_on_c, 0, 63, 50
2, 52429, Note_on_c, 0, 72, 53
2, 52430, Note_on_c, 0, 55, 0
2, 52430, Note_on_c, 0, 68, 59
2, 52434, Note_on_c, 0, 57, 44
2, 52440, Control_c, 0, 64, 0
2, 52468, Control_c, 0, 64, 127
2, 52494, Note_on_c, 0, 68, 0
2, 52495, Note_on_c, 0, 72, 0
2, 52496, Note_on_c, 0, 63, 0
2, 52566, Note_on_c, 0, 57, 0
2, 52591, Note_on_c, 0, 74, 61
2, 52593, Note_on_c, 0, 65, 46
2, 52594, Note_on_c, 0, 68, 56
2, 52598, Note_on_c, 0, 58, 30
2, 52673, Note_on_c, 0, 65, 0
2, 52679, Note_on_c, 0, 58, 0
2, 52699, Note_on_c, 0, 68, 0
2, 52716, Note_on_c, 0, 74, 0
2, 52932, Note_on_c, 0, 58, 70
2, 52934, Note_on_c, 0, 70, 68
2, 52935, Note_on_c, 0, 74, 71
2, 52935, Control_c, 0, 64, 0
2, 52936, Note_on_c, 0, 65, 76
2, 52956, Control_c, 0, 64, 127
2, 52990, Note_on_c, 0, 65, 0
2, 53004, Note_on_c, 0, 74, 0
2, 53016, Note_on_c, 0, 70, 0
2, 53038, Note_on_c, 0, 68, 59
2, 53040, Note_on_c, 0, 63, 50
2, 53040, Note_on_c, 0, 72, 53
2, 53044, Note_on_c, 0, 58, 0
2, 53044, Note_on_c, 0, 56, 45
2, 53048, Control_c, 0, 64, 0
2, 53071, Note_on_c, 0, 72, 0
2, 53071, Control_c, 0, 64, 127
2, 53075, Note_on_c, 0, 68, 0
2, 53080, Note_on_c, 0, 63, 0
2, 53096, Note_on_c, 0, 56, 0
2, 53146, Note_on_c, 0, 70, 50
2, 53151, Note_on_c, 0, 63, 51
2, 53153, Note_on_c, 0, 60, 48
2, 53156, Note_on_c, 0, 53, 37
2, 53160, Control_c, 0, 64, 0
2, 53180, Control_c, 0, 64, 127
2, 53200, Note_on_c, 0, 63, 0
2, 53202, Note_on_c, 0, 60, 0
2, 53212, Note_on_c, 0, 70, 0
2, 53215, Note_on_c, 0, 53, 0
2, 53242, Note_on_c, 0, 68, 48
2, 53245, Note_on_c, 0, 43, 30
2, 53247, Note_on_c, 0, 63, 38
2, 53250, Note_on_c, 0, 59, 36
2, 53290, Note_on_c, 0, 43, 0
2, 53298, Note_on_c, 0, 59, 0
2, 53302, Note_on_c, 0, 68, 0
2, 53306, Note_on_c, 0, 63, 0
2, 53346, Note_on_c, 0, 68, 42
2, 53347, Note_on_c, 0, 59, 43
2, 53348, Note_on_c, 0, 65, 50
2, 53352, Note_on_c, 0, 63, 40
2, 53355, Note_on_c, 0, 43, 30
2, 53357, Control_c, 0, 64, 0
2, 53357, Note_on_c, 0, 53, 24
2, 53380, Note_on_c, 0, 53, 0
2, 53394, Control_c, 0, 64, 127
2, 53396, Note_on_c, 0, 43, 0
2, 53465, Note_on_c, 0, 43, 41
2, 53476, Note_on_c, 0, 43, 0
2, 53513, Control_c, 0, 64, 0
2, 53515, Note_on_c, 0, 38, 41
2, 53525, Note_on_c, 0, 38, 0
2, 53600, Note_on_c, 0, 25, 32
2, 53627, Note_on_c, 0, 25, 0
2, 53642, Control_c, 0, 64, 127
2, 53663, Note_on_c, 0, 24, 43
2, 53681, Note_on_c, 0, 24, 0
2, 53688, Note_on_c, 0, 59, 0
2, 53696, Note_on_c, 0, 63, 0
2, 53698, Note_on_c, 0, 65, 0
2, 53708, Note_on_c, 0, 68, 0
2, 53716, Control_c, 0, 64, 0
2, 53740, Control_c, 0, 64, 127
2, 53838, Note_on_c, 0, 84, 75
2, 53874, Note_on_c, 0, 84, 0
2, 53892, Note_on_c, 0, 64, 29
2, 53893, Note_on_c, 0, 58, 35
2, 53895, Note_on_c, 0, 72, 33
2, 53905, Note_on_c, 0, 64, 0
2, 53920, Note_on_c, 0, 58, 0
2, 53946, Note_on_c, 0, 72, 0
2, 53994, Note_on_c, 0, 55, 22
2, 54042, Note_on_c, 0, 55, 0
2, 54049, Note_on_c, 0, 48, 49
2, 54050, Note_on_c, 0, 58, 34
2, 54057, Control_c, 0, 64, 0
2, 54075, Control_c, 0, 64, 127
2, 54087, Note_on_c, 0, 48, 0
2, 54108, Note_on_c, 0, 58, 0
2, 54208, Note_on_c, 0, 64, 40
2, 54211, Note_on_c, 0, 59, 39
2, 54213, Note_on_c, 0, 60, 37
2, 54242, Note_on_c, 0, 60, 0
2, 54244, Note_on_c, 0, 64, 0
2, 54248, Note_on_c, 0, 59, 0
2, 54308, Note_on_c, 0, 72, 79
2, 54351, Note_on_c, 0, 72, 0
2, 54366, Note_on_c, 0, 58, 40
2, 54368, Note_on_c, 0, 76, 62
2, 54370, Note_on_c, 0, 52, 56
2, 54370, Note_on_c, 0, 67, 38
2, 54372, Control_c, 0, 64, 0
2, 54372, Note_on_c, 0, 65, 34
2, 54388, Note_on_c, 0, 65, 0
2, 54392, Note_on_c, 0, 67, 0
2, 54406, Control_c, 0, 64, 127
2, 54410, Note_on_c, 0, 76, 0
2, 54423, Note_on_c, 0, 76, 36
2, 54429, Note_on_c, 0, 58, 0
2, 54448, Note_on_c, 0, 76, 0
2, 54523, Note_on_c, 0, 52, 0
2, 54530, Note_on_c, 0, 58, 53
2, 54531, Control_c, 0, 64, 0
2, 54533, Note_on_c, 0, 79, 81
2, 54533, Note_on_c, 0, 48, 54
2, 54534, Note_on_c, 0, 67, 73
2, 54574, Control_c, 0, 64, 127
2, 54585, Note_on_c, 0, 79, 0
2, 54591, Note_on_c, 0, 48, 0
2, 54598, Note_on_c, 0, 67, 0
2, 54612, Note_on_c, 0, 58, 0
2, 54633, Note_on_c, 0, 79, 47
2, 54636, Note_on_c, 0, 67, 40
2, 54649, Note_on_c, 0, 79, 0
2, 54657, Note_on_c, 0, 67, 0
2, 54684, Control_c, 0, 64, 0
2, 54693, Note_on_c, 0, 80, 67
2, 54695, Note_on_c, 0, 50, 31
2, 54695, Note_on_c, 0, 68, 59
2, 54698, Note_on_c, 0, 56, 25
2, 54701, Note_on_c, 0, 60, 22
2, 54704, Note_on_c, 0, 50, 0
2, 54708, Control_c, 0, 64, 127
2, 54709, Note_on_c, 0, 60, 0
2, 54712, Note_on_c, 0, 56, 0
2, 54761, Note_on_c, 0, 67, 85
2, 54822, Note_on_c, 0, 68, 0
2, 54866, Note_on_c, 0, 68, 54
2, 54867, Note_on_c, 0, 72, 49
2, 54910, Note_on_c, 0, 67, 0
2, 54917, Note_on_c, 0, 80, 0
2, 54920, Note_on_c, 0, 72, 0
2, 54920, Note_on_c, 0, 65, 45
2, 54933, Note_on_c, 0, 68, 0
2, 54934, Note_on_c, 0, 65, 0
2, 55024, Note_on_c, 0, 67, 31
2, 55024, Note_on_c, 0, 60, 61
2, 55026, Note_on_c, 0, 56, 45
2, 55080, Note_on_c, 0, 55, 51
2, 55136, Note_on_c, 0, 60, 0
2, 55156, Note_on_c, 0, 56, 0
2, 55184, Note_on_c, 0, 56, 42
2, 55191, Note_on_c, 0, 60, 44
2, 55236, Note_on_c, 0, 55, 0
2, 55245, Note_on_c, 0, 50, 25
2, 55278, Note_on_c, 0, 56, 0
2, 55284, Note_on_c, 0, 60, 0
2, 55300, Note_on_c, 0, 43, 39
2, 55314, Note_on_c, 0, 67, 0
2, 55315, Note_on_c, 0, 50, 0
2, 55364, Note_on_c, 0, 59, 59
2, 55365, Note_on_c, 0, 61, 56
2, 55371, Note_on_c, 0, 53, 36
2, 55380, Control_c, 0, 64, 0
2, 55420, Control_c, 0, 64, 127
2, 55451, Note_on_c, 0, 43, 0
2, 55477, Note_on_c, 0, 59, 0
2, 55477, Note_on_c, 0, 43, 28
2, 55482, Note_on_c, 0, 53, 0
2, 55505, Note_on_c, 0, 61, 0
2, 55531, Note_on_c, 0, 62, 50
2, 55533, Note_on_c, 0, 59, 55
2, 55536, Note_on_c, 0, 53, 39
2, 55540, Control_c, 0, 64, 0
2, 55582, Control_c, 0, 64, 127
2, 55598, Note_on_c, 0, 43, 0
2, 55618, Note_on_c, 0, 53, 0
2, 55622, Note_on_c, 0, 59, 0
2, 55631, Note_on_c, 0, 43, 36
2, 55656, Note_on_c, 0, 62, 0
2, 55697, Control_c, 0, 64, 0
2, 55698, Note_on_c, 0, 50, 45
2, 55699, Note_on_c, 0, 62, 45
2, 55702, Note_on_c, 0, 53, 40
2, 55702, Note_on_c, 0, 56, 37
2, 55702, Note_on_c, 0, 59, 43
2, 55729, Control_c, 0, 64, 127
2, 55760, Note_on_c, 0, 53, 0
2, 55762, Note_on_c, 0, 56, 0
2, 55775, Note_on_c, 0, 62, 0
2, 55790, Note_on_c, 0, 50, 0
2, 55794, Note_on_c, 0, 56, 19
2, 55799, Note_on_c, 0, 51, 50
2, 55799, Note_on_c, 0, 53, 61
2, 55800, Note_on_c, 0, 63, 55
2, 55811, Note_on_c, 0, 59, 0
2, 55816, Note_on_c, 0, 53, 0
2, 55821, Note_on_c, 0, 56, 0
2, 55828, Note_on_c, 0, 63, 0
2, 55835, Note_on_c, 0, 51, 0
2, 55861, Note_on_c, 0, 65, 65
2, 55863, Note_on_c, 0, 53, 66
2, 55864, Note_on_c, 0, 56, 59
2, 55866, Note_on_c, 0, 62, 53
2, 55866, Note_on_c, 0, 59, 66
2, 55871, Control_c, 0, 64, 0
2, 55898, Note_on_c, 0, 43, 0
2, 55899, Control_c, 0, 64, 127
2, 55909, Note_on_c, 0, 59, 0
2, 55911, Note_on_c, 0, 62, 0
2, 55914, Note_on_c, 0, 65, 0
2, 55915, Note_on_c, 0, 53, 0
2, 55918, Note_on_c, 0, 56, 0
2, 55974, Note_on_c, 0, 68, 78
2, 55976, Note_on_c, 0, 58, 74
2, 55976, Note_on_c, 0, 59, 79
2, 55976, Note_on_c, 0, 63, 74
2, 55977, Note_on_c, 0, 65, 74
2, 55992, Control_c, 0, 64, 0
2, 56026, Control_c, 0, 64, 127
2, 56069, Note_on_c, 0, 68, 0
2, 56073, Note_on_c, 0, 59, 0
2, 56074, Note_on_c, 0, 63, 0
2, 56081, Note_on_c, 0, 58, 0
2, 56097, Note_on_c, 0, 58, 52
2, 56098, Note_on_c, 0, 63, 40
2, 56099, Note_on_c, 0, 70, 63
2, 56100, Note_on_c, 0, 59, 54
2, 56110, Control_c, 0, 64, 0
2, 56130, Control_c, 0, 64, 127
2, 56138, Note_on_c, 0, 65, 0
2, 56144, Note_on_c, 0, 70, 0
2, 56146, Note_on_c, 0, 63, 0
2, 56148, Note_on_c, 0, 58, 0
2, 56149, Note_on_c, 0, 59, 0
2, 56153, Note_on_c, 0, 56, 28
2, 56180, Control_c, 0, 64, 0
2, 56195, Note_on_c, 0, 56, 0
2, 56202, Note_on_c, 0, 58, 39
2, 56202, Note_on_c, 0, 59, 50
2, 56202, Note_on_c, 0, 63, 46
2, 56204, Note_on_c, 0, 70, 56
2, 56204, Note_on_c, 0, 65, 44
2, 56217, Control_c, 0, 64, 127
2, 56271, Note_on_c, 0, 63, 0
2, 56271, Note_on_c, 0, 58, 0
2, 56274, Note_on_c, 0, 59, 0
2, 56277, Note_on_c, 0, 65, 0
2, 56294, Note_on_c, 0, 70, 0
2, 56372, Note_on_c, 0, 67, 45
2, 56373, Note_on_c, 0, 58, 26
2, 56374, Note_on_c, 0, 59, 24
2, 56374, Note_on_c, 0, 63, 38
2, 56376, Note_on_c, 0, 53, 34
2, 56378, Note_on_c, 0, 49, 27
2, 56384, Control_c, 0, 64, 0
2, 56427, Control_c, 0, 64, 127
2, 56441, Note_on_c, 0, 59, 0
2, 56450, Note_on_c, 0, 53, 0
2, 56478, Note_on_c, 0, 58, 0
2, 56482, Note_on_c, 0, 63, 0
2, 56530, Note_on_c, 0, 63, 39
2, 56535, Note_on_c, 0, 59, 18
2, 56536, Note_on_c, 0, 58, 29
2, 56539, Note_on_c, 0, 53, 24
2, 56591, Note_on_c, 0, 59, 0
2, 56598, Note_on_c, 0, 53, 0
2, 56613, Note_on_c, 0, 49, 0
2, 56619, Note_on_c, 0, 58, 0
2, 56636, Note_on_c, 0, 63, 0
2, 56641, Note_on_c, 0, 67, 0
2, 56687, Control_c, 0, 64, 0
2, 56695, Note_on_c, 0, 62, 29
2, 56695, Note_on_c, 0, 48, 37
2, 56696, Note_on_c, 0, 65, 43
2, 56698, Note_on_c, 0, 55, 35
2, 56699, Note_on_c, 0, 58, 20
2, 56710, Control_c, 0, 64, 127
2, 56713, Note_on_c, 0, 62, 0
2, 56715, Note_on_c, 0, 58, 0
2, 56717, Note_on_c, 0, 65, 0
2, 56750, Note_on_c, 0, 48, 0
2, 56758, Note_on_c, 0, 55, 0
2, 56800, Note_on_c, 0, 77, 87
2, 56852, Note_on_c, 0, 77, 0
2, 56858, Note_on_c, 0, 58, 42
2, 56860, Note_on_c, 0, 65, 47
2, 56937, Note_on_c, 0, 58, 0
2, 56948, Note_on_c, 0, 65, 0
2, 56968, Note_on_c, 0, 70, 77
2, 57024, Note_on_c, 0, 70, 0
2, 57054, Note_on_c, 0, 75, 74
2, 57058, Note_on_c, 0, 68, 61
2, 57058, Note_on_c, 0, 70, 60
2, 57060, Note_on_c, 0, 64, 57
2, 57061, Note_on_c, 0, 63, 52
2, 57071, Control_c, 0, 64, 0
2, 57105, Control_c, 0, 64, 127
2, 57158, Note_on_c, 0, 63, 0
2, 57175, Note_on_c, 0, 68, 0
2, 57176, Note_on_c, 0, 64, 0
2, 57177, Note_on_c, 0, 70, 0
2, 57197, Note_on_c, 0, 75, 0
2, 57214, Note_on_c, 0, 73, 40
2, 57215, Note_on_c, 0, 64, 32
2, 57216, Note_on_c, 0, 58, 23
2, 57216, Note_on_c, 0, 68, 34
2, 57218, Note_on_c, 0, 70, 35
2, 57225, Note_on_c, 0, 58, 0
2, 57299, Note_on_c, 0, 73, 0
2, 57307, Note_on_c, 0, 64, 0
2, 57322, Note_on_c, 0, 70, 0
2, 57322, Note_on_c, 0, 68, 0
2, 57379, Note_on_c, 0, 41, 13
2, 57382, Note_on_c, 0, 62, 36
2, 57383, Note_on_c, 0, 67, 34
2, 57384, Note_on_c, 0, 48, 31
2, 57385, Note_on_c, 0, 72, 33
2, 57392, Note_on_c, 0, 57, 26
2, 57396, Control_c, 0, 64, 0
2, 57418, Control_c, 0, 64, 127
2, 57422, Note_on_c, 0, 41, 0
2, 57434, Note_on_c, 0, 48, 0
2, 57442, Note_on_c, 0, 57, 0
2, 57477, Note_on_c, 0, 62, 0
2, 57481, Note_on_c, 0, 67, 0
2, 57508, Note_on_c, 0, 72, 0
2, 57552, Note_on_c, 0, 60, 36
2, 57554, Note_on_c, 0, 57, 28
2, 57605, Note_on_c, 0, 60, 0
2, 57644, Note_on_c, 0, 57, 0
2, 57654, Note_on_c, 0, 77, 68
2, 57679, Note_on_c, 0, 77, 0
2, 57716, Note_on_c, 0, 76, 53
2, 57720, Note_on_c, 0, 65, 36
2, 57721, Note_on_c, 0, 69, 53
2, 57722, Note_on_c, 0, 61, 38
2, 57731, Control_c, 0, 64, 0
2, 57765, Control_c, 0, 64, 127
2, 57815, Note_on_c, 0, 76, 0
2, 57819, Note_on_c, 0, 61, 0
2, 57822, Note_on_c, 0, 65, 0
2, 57836, Note_on_c, 0, 69, 0
2, 57882, Note_on_c, 0, 74, 28
2, 57884, Note_on_c, 0, 69, 39
2, 57885, Note_on_c, 0, 65, 32
2, 57888, Note_on_c, 0, 60, 32
2, 57891, Control_c, 0, 64, 0
2, 57901, Control_c, 0, 64, 127
2, 57927, Note_on_c, 0, 74, 0
2, 57928, Note_on_c, 0, 69, 0
2, 57928, Note_on_c, 0, 60, 0
2, 57935, Note_on_c, 0, 65, 0
2, 58059, Note_on_c, 0, 58, 33
2, 58061, Note_on_c, 0, 43, 26
2, 58063, Note_on_c, 0, 50, 24
2, 58066, Note_on_c, 0, 53, 20
2, 58071, Control_c, 0, 64, 0
2, 58108, Control_c, 0, 64, 127
2, 58118, Note_on_c, 0, 53, 0
2, 58168, Note_on_c, 0, 58, 0
2, 58185, Note_on_c, 0, 50, 0
2, 58224, Note_on_c, 0, 55, 39
2, 58240, Note_on_c, 0, 55, 0
2, 58270, Note_on_c, 0, 43, 0
2, 58394, Note_on_c, 0, 62, 31
2, 58394, Note_on_c, 0, 65, 37
2, 58396, Note_on_c, 0, 48, 38
2, 58396, Note_on_c, 0, 58, 31
2, 58406, Control_c, 0, 64, 0
2, 58415, Note_on_c, 0, 55, 10
2, 58437, Note_on_c, 0, 62, 0
2, 58439, Control_c, 0, 64, 127
2, 58440, Note_on_c, 0, 58, 0
2, 58452, Note_on_c, 0, 65, 0
2, 58654, Note_on_c, 0, 73, 51
2, 58655, Note_on_c, 0, 76, 52
2, 58655, Note_on_c, 0, 68, 57
2, 58658, Note_on_c, 0, 64, 45
2, 58660, Note_on_c, 0, 58, 47
2, 58676, Note_on_c, 0, 55, 0
2, 58690, Note_on_c, 0, 76, 0
2, 58694, Note_on_c, 0, 73, 0
2, 58700, Note_on_c, 0, 64, 0
2, 58710, Note_on_c, 0, 68, 0
2, 58733, Note_on_c, 0, 58, 0
2, 58754, Note_on_c, 0, 72, 49
2, 58755, Note_on_c, 0, 62, 34
2, 58758, Note_on_c, 0, 57, 37
2, 58758, Note_on_c, 0, 67, 36
2, 58770, Control_c, 0, 64, 0
2, 58806, Control_c, 0, 64, 127
2, 58815, Note_on_c, 0, 48, 0
2, 58853, Note_on_c, 0, 48, 44
2, 58854, Note_on_c, 0, 72, 0
2, 58866, Note_on_c, 0, 67, 0
2, 58891, Note_on_c, 0, 62, 0
2, 58974, Note_on_c, 0, 48, 0
2, 59023, Note_on_c, 0, 48, 42
2, 59027, Note_on_c, 0, 69, 66
2, 59029, Note_on_c, 0, 65, 57
2, 59030, Note_on_c, 0, 60, 54
2, 59065, Note_on_c, 0, 57, 0
2, 59076, Note_on_c, 0, 48, 0
2, 59076, Note_on_c, 0, 69, 0
2, 59080, Note_on_c, 0, 65, 0
2, 59082, Note_on_c, 0, 60, 0
2, 59193, Note_on_c, 0, 67, 64
2, 59194, Note_on_c, 0, 61, 61
2, 59197, Note_on_c, 0, 58, 40
2, 59198, Note_on_c, 0, 55, 43
2, 59199, Note_on_c, 0, 45, 33
2, 59210, Control_c, 0, 64, 0
2, 59249, Control_c, 0, 64, 127
2, 59274, Note_on_c, 0, 55, 0
2, 59364, Note_on_c, 0, 67, 0
2, 59364, Note_on_c, 0, 65, 64
2, 59367, Note_on_c, 0, 58, 0
2, 59371, Note_on_c, 0, 61, 0
2, 59373, Note_on_c, 0, 45, 0
2, 59382, Note_on_c, 0, 65, 0
2, 59457, Note_on_c, 0, 74, 58
2, 59461, Note_on_c, 0, 62, 58
2, 59465, Note_on_c, 0, 46, 33
2, 59467, Control_c, 0, 64, 0
2, 59471, Note_on_c, 0, 58, 21
2, 59508, Control_c, 0, 64, 127
2, 59523, Note_on_c, 0, 46, 0
2, 59538, Note_on_c, 0, 58, 0
2, 59572, Note_on_c, 0, 62, 0
2, 59627, Note_on_c, 0, 70, 37
2, 59628, Note_on_c, 0, 62, 40
2, 59630, Note_on_c, 0, 58, 27
2, 59703, Note_on_c, 0, 74, 0
2, 59736, Note_on_c, 0, 62, 0
2, 59738, Note_on_c, 0, 70, 0
2, 59800, Note_on_c, 0, 58, 0
2, 59801, Note_on_c, 0, 72, 48
2, 59803, Note_on_c, 0, 63, 48
2, 59804, Note_on_c, 0, 66, 45
2, 59807, Note_on_c, 0, 69, 46
2, 59808, Note_on_c, 0, 57, 36
2, 59816, Control_c, 0, 64, 0
2, 59852, Control_c, 0, 64, 127
2, 59885, Note_on_c, 0, 69, 0
2, 59896, Note_on_c, 0, 63, 0
2, 59910, Note_on_c, 0, 72, 0
2, 59910, Note_on_c, 0, 66, 0
2, 59929, Note_on_c, 0, 57, 0
2, 59988, Note_on_c, 0, 70, 46
2, 59992, Note_on_c, 0, 62, 31
2, 59992, Note_on_c, 0, 60, 34
2, 59993, Note_on_c, 0, 65, 38
2, 59994, Note_on_c, 0, 55, 39
2, 60005, Control_c, 0, 64, 0
2, 60045, Control_c, 0, 64, 127
2, 60079, Note_on_c, 0, 60, 0
2, 60080, Note_on_c, 0, 62, 0
2, 60088, Note_on_c, 0, 65, 0
2, 60091, Note_on_c, 0, 70, 0
2, 60176, Note_on_c, 0, 55, 0
2, 60176, Note_on_c, 0, 60, 46
2, 60180, Note_on_c, 0, 69, 40
2, 60182, Note_on_c, 0, 48, 35
2, 60182, Note_on_c, 0, 65, 35
2, 60185, Control_c, 0, 64, 0
2, 60186, Note_on_c, 0, 57, 22
2, 60231, Control_c, 0, 64, 127
2, 60254, Note_on_c, 0, 57, 0
2, 60260, Note_on_c, 0, 60, 0
2, 60288, Note_on_c, 0, 65, 0
2, 60303, Note_on_c, 0, 69, 0
2, 60358, Note_on_c, 0, 67, 39
2, 60359, Note_on_c, 0, 60, 29
2, 60360, Note_on_c, 0, 64, 35
2, 60361, Note_on_c, 0, 57, 34
2, 60373, Note_on_c, 0, 57, 0
2, 60388, Note_on_c, 0, 48, 0
2, 60449, Note_on_c, 0, 64, 0
2, 60452, Note_on_c, 0, 60, 0
2, 60452, Note_on_c, 0, 67, 0
2, 60455, Note_on_c, 0, 36, 47
2, 60475, Note_on_c, 0, 36, 0
2, 60560, Note_on_c, 0, 65, 42
2, 60563, Note_on_c, 0, 48, 33
2, 60564, Note_on_c, 0, 55, 29
2, 60564, Note_on_c, 0, 59, 40
2, 60564, Note_on_c, 0, 62, 34
2, 60565, Note_on_c, 0, 36, 31
2, 60570, Control_c, 0, 64, 0
2, 60586, Control_c, 0, 64, 127
2, 60635, Note_on_c, 0, 36, 0
2, 60660, Note_on_c, 0, 36, 29
2, 60671, Note_on_c, 0, 55, 0
2, 60674, Note_on_c, 0, 65, 0
2, 60686, Note_on_c, 0, 59, 0
2, 60692, Note_on_c, 0, 62, 0
2, 60700, Note_on_c, 0, 48, 0
2, 60759, Note_on_c, 0, 67, 29
2, 60763, Note_on_c, 0, 59, 34
2, 60764, Note_on_c, 0, 55, 25
2, 60764, Note_on_c, 0, 62, 25
2, 60800, Note_on_c, 0, 36, 0
2, 60810, Note_on_c, 0, 67, 0
2, 60817, Note_on_c, 0, 62, 0
2, 60826, Note_on_c, 0, 59, 0
2, 60834, Note_on_c, 0, 55, 0
2, 60862, Note_on_c, 0, 36, 44
2, 60886, Note_on_c, 0, 36, 0
2, 60984, Note_on_c, 0, 60, 47
2, 60984, Note_on_c, 0, 58, 33
2, 60985, Note_on_c, 0, 50, 32
2, 60986, Note_on_c, 0, 24, 39
2, 60987, Note_on_c, 0, 53, 36
2, 60989, Note_on_c, 0, 36, 32
2, 60997, Control_c, 0, 64, 0
2, 61026, Note_on_c, 0, 50, 0
2, 61028, Note_on_c, 0, 53, 0
2, 61037, Control_c, 0, 64, 127
2, 61049, Note_on_c, 0, 60, 0
2, 61050, Note_on_c, 0, 58, 0
2, 61053, Note_on_c, 0, 24, 0
2, 61061, Note_on_c, 0, 36, 0
2, 61232, Note_on_c, 0, 72, 38
2, 61234, Note_on_c, 0, 60, 32
2, 61234, Note_on_c, 0, 48, 34
2, 61256, Note_on_c, 0, 48, 0
2, 61258, Note_on_c, 0, 60, 0
2, 61302, Note_on_c, 0, 72, 0
2, 61469, Note_on_c, 0, 58, 44
2, 61500, Note_on_c, 0, 64, 48
2, 61543, Note_on_c, 0, 67, 54
2, 61574, Note_on_c, 0, 67, 0
2, 61592, Note_on_c, 0, 72, 53
2, 61606, Note_on_c, 0, 72, 0
2, 61648, Note_on_c, 0, 79, 58
2, 61665, Note_on_c, 0, 79, 0
2, 61710, Note_on_c, 0, 84, 54
2, 61720, Note_on_c, 0, 84, 0
2, 61784, Note_on_c, 0, 88, 44
2, 61797, Note_on_c, 0, 88, 0
2, 61862, Note_on_c, 0, 91, 27
2, 61879, Note_on_c, 0, 91, 0
2, 61952, Note_on_c, 0, 96, 39
2, 61969, Note_on_c, 0, 96, 0
2, 62047, Note_on_c, 0, 103, 47
2, 62058, Note_on_c, 0, 103, 0
2, 62436, Note_on_c, 0, 64, 0
2, 62457, Note_on_c, 0, 58, 0
2, 62875, Note_on_c, 0, 29, 82
2, 62875, Note_on_c, 0, 41, 36
2, 64513, Note_on_c, 0, 29, 0
2, 64532, Note_on_c, 0, 41, 0
2, 65462, Control_c, 0, 64, 0
2, 65462, End_track
0, 0, End_of_file
