0, 0, Header, 0, 1, 120
1, 0, Start_track
1, 0, Title_t, "MyOneAndOnlyLove"
1, 0, Copyright_t, "Copyright © 1998 by Doug McKenzie"
1, 0, Text_t, "Doug McKenzie\012"
1, 0, Time_signature, 4, 2, 24, 8
1, 0, Key_signature, 0, "major"
1, 0, Tempo, 857143
1, 48, Control_c, 0, 64, 127
1, 94, Control_c, 0, 64, 0
1, 101, Note_on_c, 0, 67, 59
1, 103, Note_on_c, 0, 62, 54
1, 103, Note_on_c, 0, 59, 64
1, 104, Note_on_c, 0, 64, 51
1, 108, Note_on_c, 0, 52, 51
1, 128, Control_c, 0, 64, 127
1, 145, Note_on_c, 0, 59, 0
1, 149, Note_on_c, 0, 67, 0
1, 151, Note_on_c, 0, 64, 0
1, 156, Note_on_c, 0, 62, 0
1, 183, Note_on_c, 0, 52, 0
1, 183, Note_on_c, 0, 69, 64
1, 184, Note_on_c, 0, 62, 51
1, 185, Note_on_c, 0, 65, 58
1, 185, Control_c, 0, 64, 0
1, 186, Note_on_c, 0, 60, 54
1, 187, Note_on_c, 0, 53, 45
1, 211, Control_c, 0, 64, 127
1, 217, Note_on_c, 0, 62, 0
1, 220, Note_on_c, 0, 65, 0
1, 227, Note_on_c, 0, 69, 0
1, 308, Note_on_c, 0, 60, 0
1, 374, Control_c, 0, 64, 0
1, 374, Note_on_c, 0, 72, 63
1, 375, Note_on_c, 0, 64, 53
1, 376, Note_on_c, 0, 67, 50
1, 376, Note_on_c, 0, 69, 58
1, 377, Note_on_c, 0, 57, 46
1, 380, Note_on_c, 0, 53, 0
1, 392, Control_c, 0, 64, 127
1, 403, Note_on_c, 0, 69, 0
1, 405, Note_on_c, 0, 67, 0
1, 408, Note_on_c, 0, 72, 0
1, 410, Note_on_c, 0, 64, 0
1, 433, Control_c, 0, 64, 0
1, 435, Note_on_c, 0, 74, 65
1, 436, Note_on_c, 0, 68, 63
1, 438, Note_on_c, 0, 65, 59
1, 438, Note_on_c, 0, 59, 57
1, 438, Note_on_c, 0, 71, 56
1, 439, Note_on_c, 0, 57, 0
1, 455, Control_c, 0, 64, 127
1, 469, Note_on_c, 0, 71, 0
1, 472, Note_on_c, 0, 74, 0
1, 475, Note_on_c, 0, 65, 0
1, 477, Note_on_c, 0, 68, 0
1, 501, Note_on_c, 0, 59, 0
1, 502, Note_on_c, 0, 76, 56
1, 503, Note_on_c, 0, 72, 53
1, 504, Note_on_c, 0, 67, 43
1, 504, Control_c, 0, 64, 0
1, 505, Note_on_c, 0, 60, 54
1, 505, Note_on_c, 0, 69, 57
1, 522, Control_c, 0, 64, 127
1, 531, Note_on_c, 0, 67, 0
1, 536, Note_on_c, 0, 69, 0
1, 541, Note_on_c, 0, 72, 0
1, 545, Note_on_c, 0, 76, 0
1, 594, Note_on_c, 0, 83, 52
1, 596, Note_on_c, 0, 72, 31
1, 596, Note_on_c, 0, 76, 44
1, 596, Note_on_c, 0, 79, 48
1, 596, Note_on_c, 0, 64, 31
1, 598, Control_c, 0, 64, 0
1, 601, Note_on_c, 0, 60, 0
1, 621, Control_c, 0, 64, 127
1, 668, Note_on_c, 0, 79, 0
1, 669, Note_on_c, 0, 83, 0
1, 672, Note_on_c, 0, 76, 0
1, 681, Note_on_c, 0, 72, 0
1, 720, Note_on_c, 0, 55, 24
1, 720, Note_on_c, 0, 79, 48
1, 750, Note_on_c, 0, 79, 0
1, 759, Note_on_c, 0, 55, 0
1, 890, Note_on_c, 0, 64, 0
1, 893, Note_on_c, 0, 81, 40
1, 895, Note_on_c, 0, 69, 33
1, 896, Note_on_c, 0, 74, 36
1, 899, Control_c, 0, 64, 0
1, 904, Note_on_c, 0, 54, 19
1, 929, Control_c, 0, 64, 127
1, 953, Note_on_c, 0, 69, 0
1, 960, Note_on_c, 0, 57, 26
1, 961, Note_on_c, 0, 74, 0
1, 988, Note_on_c, 0, 81, 0
1, 997, Note_on_c, 0, 64, 34
1, 997, Note_on_c, 0, 74, 37
1, 999, Note_on_c, 0, 69, 29
1, 1004, Note_on_c, 0, 69, 0
1, 1004, Note_on_c, 0, 64, 0
1, 1005, Note_on_c, 0, 74, 0
1, 1014, Note_on_c, 0, 54, 0
1, 1018, Note_on_c, 0, 57, 0
1, 1049, Note_on_c, 0, 86, 60
1, 1063, Note_on_c, 0, 86, 0
1, 1105, Note_on_c, 0, 83, 44
1, 1107, Note_on_c, 0, 75, 31
1, 1109, Control_c, 0, 64, 0
1, 1109, Note_on_c, 0, 71, 33
1, 1109, Note_on_c, 0, 79, 36
1, 1116, Note_on_c, 0, 57, 25
1, 1136, Control_c, 0, 64, 127
1, 1149, Note_on_c, 0, 79, 0
1, 1150, Note_on_c, 0, 83, 0
1, 1160, Note_on_c, 0, 75, 0
1, 1164, Note_on_c, 0, 71, 0
1, 1167, Note_on_c, 0, 48, 36
1, 1170, Note_on_c, 0, 57, 0
1, 1224, Note_on_c, 0, 48, 0
1, 1244, Note_on_c, 0, 48, 18
1, 1247, Note_on_c, 0, 63, 23
1, 1249, Note_on_c, 0, 59, 17
1, 1249, Note_on_c, 0, 67, 20
1, 1303, Note_on_c, 0, 67, 0
1, 1352, Note_on_c, 0, 59, 0
1, 1382, Note_on_c, 0, 63, 0
1, 1392, Note_on_c, 0, 48, 0
1, 1450, Note_on_c, 0, 67, 52
1, 1476, Note_on_c, 0, 67, 0
1, 1477, Note_on_c, 0, 65, 56
1, 1513, Note_on_c, 0, 65, 0
1, 1519, Note_on_c, 0, 64, 45
1, 1521, Note_on_c, 0, 40, 34
1, 1526, Control_c, 0, 64, 0
1, 1554, Control_c, 0, 64, 127
1, 1580, Note_on_c, 0, 64, 0
1, 1587, Note_on_c, 0, 47, 26
1, 1666, Note_on_c, 0, 67, 36
1, 1667, Note_on_c, 0, 64, 54
1, 1668, Note_on_c, 0, 55, 31
1, 1712, Note_on_c, 0, 40, 0
1, 1721, Note_on_c, 0, 47, 0
1, 1732, Note_on_c, 0, 72, 75
1, 1747, Note_on_c, 0, 67, 0
1, 1748, Note_on_c, 0, 55, 0
1, 1753, Note_on_c, 0, 72, 0
1, 1760, Note_on_c, 0, 64, 0
1, 1792, Note_on_c, 0, 69, 54
1, 1793, Control_c, 0, 64, 0
1, 1795, Note_on_c, 0, 41, 31
1, 1795, Note_on_c, 0, 64, 44
1, 1796, Note_on_c, 0, 60, 47
1, 1810, Note_on_c, 0, 60, 0
1, 1812, Control_c, 0, 64, 127
1, 1816, Note_on_c, 0, 64, 0
1, 1818, Note_on_c, 0, 69, 0
1, 1858, Note_on_c, 0, 48, 38
1, 1860, Note_on_c, 0, 76, 65
1, 1861, Note_on_c, 0, 81, 71
1, 1878, Note_on_c, 0, 41, 0
1, 1883, Note_on_c, 0, 48, 0
1, 1886, Note_on_c, 0, 76, 0
1, 1890, Note_on_c, 0, 81, 0
1, 1944, Note_on_c, 0, 76, 38
1, 1947, Note_on_c, 0, 60, 32
1, 1948, Note_on_c, 0, 69, 34
1, 1951, Note_on_c, 0, 64, 30
1, 2049, Note_on_c, 0, 76, 0
1, 2057, Note_on_c, 0, 64, 0
1, 2099, Note_on_c, 0, 69, 0
1, 2114, Note_on_c, 0, 60, 0
1, 2116, Note_on_c, 0, 76, 47
1, 2236, Note_on_c, 0, 76, 0
1, 2251, Note_on_c, 0, 76, 49
1, 2293, Note_on_c, 0, 76, 0
1, 2310, Note_on_c, 0, 77, 66
1, 2350, Note_on_c, 0, 76, 66
1, 2355, Note_on_c, 0, 77, 0
1, 2403, Note_on_c, 0, 66, 25
1, 2404, Note_on_c, 0, 76, 0
1, 2404, Note_on_c, 0, 64, 35
1, 2405, Note_on_c, 0, 74, 57
1, 2405, Control_c, 0, 64, 0
1, 2408, Note_on_c, 0, 62, 27
1, 2432, Control_c, 0, 64, 127
1, 2460, Note_on_c, 0, 74, 0
1, 2469, Note_on_c, 0, 74, 32
1, 2474, Note_on_c, 0, 64, 0
1, 2491, Note_on_c, 0, 62, 0
1, 2492, Note_on_c, 0, 66, 0
1, 2505, Note_on_c, 0, 74, 0
1, 2571, Note_on_c, 0, 83, 53
1, 2573, Note_on_c, 0, 71, 36
1, 2574, Note_on_c, 0, 62, 32
1, 2575, Note_on_c, 0, 67, 29
1, 2578, Note_on_c, 0, 56, 28
1, 2579, Control_c, 0, 64, 0
1, 2604, Control_c, 0, 64, 127
1, 2622, Note_on_c, 0, 83, 0
1, 2639, Note_on_c, 0, 67, 0
1, 2639, Note_on_c, 0, 62, 0
1, 2639, Note_on_c, 0, 83, 62
1, 2672, Note_on_c, 0, 83, 0
1, 2676, Note_on_c, 0, 56, 0
1, 2684, Note_on_c, 0, 71, 0
1, 2863, Note_on_c, 0, 79, 42
1, 2866, Note_on_c, 0, 45, 37
1, 2866, Note_on_c, 0, 71, 45
1, 2866, Note_on_c, 0, 67, 30
1, 2867, Note_on_c, 0, 74, 31
1, 2869, Control_c, 0, 64, 0
1, 2869, Note_on_c, 0, 57, 32
1, 2893, Control_c, 0, 64, 127
1, 2901, Note_on_c, 0, 79, 0
1, 2908, Note_on_c, 0, 74, 0
1, 2912, Note_on_c, 0, 71, 0
1, 2928, Note_on_c, 0, 67, 0
1, 2936, Note_on_c, 0, 52, 53
1, 2942, Note_on_c, 0, 57, 0
1, 2996, Note_on_c, 0, 62, 55
1, 2997, Note_on_c, 0, 55, 52
1, 2997, Note_on_c, 0, 59, 61
1, 3039, Note_on_c, 0, 55, 0
1, 3050, Note_on_c, 0, 62, 0
1, 3053, Note_on_c, 0, 59, 0
1, 3058, Note_on_c, 0, 64, 73
1, 3059, Note_on_c, 0, 59, 20
1, 3062, Note_on_c, 0, 62, 53
1, 3099, Note_on_c, 0, 45, 0
1, 3100, Note_on_c, 0, 62, 0
1, 3100, Note_on_c, 0, 64, 0
1, 3106, Note_on_c, 0, 59, 0
1, 3139, Note_on_c, 0, 52, 0
1, 3145, Note_on_c, 0, 63, 48
1, 3152, Note_on_c, 0, 58, 29
1, 3152, Note_on_c, 0, 45, 28
1, 3152, Note_on_c, 0, 55, 28
1, 3153, Note_on_c, 0, 61, 31
1, 3156, Control_c, 0, 64, 0
1, 3184, Control_c, 0, 64, 127
1, 3200, Note_on_c, 0, 61, 0
1, 3200, Note_on_c, 0, 55, 0
1, 3202, Note_on_c, 0, 58, 0
1, 3204, Note_on_c, 0, 63, 0
1, 3213, Note_on_c, 0, 58, 29
1, 3214, Note_on_c, 0, 64, 53
1, 3214, Note_on_c, 0, 55, 44
1, 3216, Note_on_c, 0, 52, 35
1, 3216, Note_on_c, 0, 61, 36
1, 3232, Note_on_c, 0, 55, 0
1, 3233, Note_on_c, 0, 64, 0
1, 3239, Note_on_c, 0, 61, 0
1, 3241, Note_on_c, 0, 58, 0
1, 3291, Note_on_c, 0, 67, 41
1, 3293, Note_on_c, 0, 58, 42
1, 3293, Note_on_c, 0, 61, 50
1, 3295, Control_c, 0, 64, 0
1, 3296, Note_on_c, 0, 64, 31
1, 3297, Note_on_c, 0, 55, 29
1, 3311, Note_on_c, 0, 52, 0
1, 3317, Control_c, 0, 64, 127
1, 3335, Note_on_c, 0, 64, 0
1, 3338, Note_on_c, 0, 58, 0
1, 3344, Note_on_c, 0, 67, 0
1, 3345, Note_on_c, 0, 45, 0
1, 3345, Note_on_c, 0, 61, 0
1, 3363, Note_on_c, 0, 55, 0
1, 3414, Control_c, 0, 64, 0
1, 3416, Note_on_c, 0, 70, 57
1, 3419, Note_on_c, 0, 61, 46
1, 3419, Note_on_c, 0, 51, 33
1, 3420, Note_on_c, 0, 66, 53
1, 3424, Note_on_c, 0, 58, 23
1, 3436, Control_c, 0, 64, 127
1, 3469, Note_on_c, 0, 66, 0
1, 3471, Note_on_c, 0, 51, 0
1, 3471, Note_on_c, 0, 58, 0
1, 3474, Note_on_c, 0, 70, 0
1, 3478, Note_on_c, 0, 61, 0
1, 3494, Control_c, 0, 64, 0
1, 3497, Note_on_c, 0, 69, 54
1, 3499, Note_on_c, 0, 60, 44
1, 3500, Note_on_c, 0, 50, 38
1, 3500, Note_on_c, 0, 65, 46
1, 3503, Note_on_c, 0, 57, 28
1, 3512, Control_c, 0, 64, 127
1, 3518, Note_on_c, 0, 60, 0
1, 3526, Note_on_c, 0, 50, 0
1, 3531, Note_on_c, 0, 57, 0
1, 3532, Note_on_c, 0, 65, 0
1, 3534, Note_on_c, 0, 69, 0
1, 3648, Note_on_c, 0, 65, 71
1, 3648, Note_on_c, 0, 71, 51
1, 3648, Note_on_c, 0, 76, 59
1, 3648, Note_on_c, 0, 81, 80
1, 3648, Control_c, 0, 64, 0
1, 3665, Control_c, 0, 64, 127
1, 3678, Note_on_c, 0, 76, 0
1, 3679, Note_on_c, 0, 81, 0
1, 3693, Note_on_c, 0, 71, 0
1, 3715, Note_on_c, 0, 79, 57
1, 3716, Note_on_c, 0, 76, 59
1, 3717, Note_on_c, 0, 65, 0
1, 3717, Control_c, 0, 64, 0
1, 3718, Note_on_c, 0, 70, 58
1, 3718, Note_on_c, 0, 73, 60
1, 3719, Note_on_c, 0, 64, 48
1, 3740, Control_c, 0, 64, 127
1, 3746, Note_on_c, 0, 79, 0
1, 3749, Note_on_c, 0, 76, 0
1, 3761, Note_on_c, 0, 73, 0
1, 3764, Note_on_c, 0, 70, 0
1, 3781, Note_on_c, 0, 77, 54
1, 3783, Note_on_c, 0, 64, 0
1, 3783, Note_on_c, 0, 69, 43
1, 3784, Note_on_c, 0, 62, 36
1, 3784, Note_on_c, 0, 72, 52
1, 3787, Control_c, 0, 64, 0
1, 3808, Control_c, 0, 64, 127
1, 3812, Note_on_c, 0, 77, 0
1, 3820, Note_on_c, 0, 72, 0
1, 3830, Note_on_c, 0, 69, 0
1, 3855, Note_on_c, 0, 67, 35
1, 3856, Note_on_c, 0, 76, 36
1, 3856, Note_on_c, 0, 70, 49
1, 3857, Note_on_c, 0, 73, 46
1, 3858, Note_on_c, 0, 62, 0
1, 3858, Note_on_c, 0, 61, 38
1, 3865, Control_c, 0, 64, 0
1, 3890, Control_c, 0, 64, 127
1, 3937, Note_on_c, 0, 67, 0
1, 4005, Note_on_c, 0, 61, 0
1, 4080, Note_on_c, 0, 73, 0
1, 4092, Note_on_c, 0, 70, 0
1, 4107, Note_on_c, 0, 76, 0
1, 4124, Note_on_c, 0, 74, 40
1, 4126, Note_on_c, 0, 69, 48
1, 4128, Note_on_c, 0, 60, 39
1, 4154, Note_on_c, 0, 60, 0
1, 4192, Note_on_c, 0, 69, 0
1, 4210, Note_on_c, 0, 74, 0
1, 4299, Note_on_c, 0, 79, 71
1, 4300, Note_on_c, 0, 62, 44
1, 4300, Note_on_c, 0, 76, 67
1, 4300, Note_on_c, 0, 67, 48
1, 4301, Note_on_c, 0, 56, 46
1, 4302, Note_on_c, 0, 72, 66
1, 4303, Control_c, 0, 64, 0
1, 4332, Control_c, 0, 64, 127
1, 4350, Note_on_c, 0, 67, 0
1, 4353, Note_on_c, 0, 62, 0
1, 4355, Note_on_c, 0, 79, 0
1, 4357, Note_on_c, 0, 76, 0
1, 4369, Note_on_c, 0, 72, 0
1, 4369, Note_on_c, 0, 56, 0
1, 4419, Note_on_c, 0, 76, 50
1, 4421, Note_on_c, 0, 67, 38
1, 4421, Note_on_c, 0, 56, 39
1, 4423, Note_on_c, 0, 72, 47
1, 4423, Note_on_c, 0, 62, 32
1, 4426, Control_c, 0, 64, 0
1, 4450, Control_c, 0, 64, 127
1, 4466, Note_on_c, 0, 62, 0
1, 4469, Note_on_c, 0, 76, 0
1, 4471, Note_on_c, 0, 72, 0
1, 4477, Note_on_c, 0, 56, 0
1, 4477, Note_on_c, 0, 67, 0
1, 4537, Note_on_c, 0, 45, 37
1, 4537, Note_on_c, 0, 72, 40
1, 4538, Note_on_c, 0, 60, 40
1, 4540, Note_on_c, 0, 67, 26
1, 4542, Note_on_c, 0, 55, 27
1, 4544, Control_c, 0, 64, 0
1, 4577, Control_c, 0, 64, 127
1, 4600, Note_on_c, 0, 55, 0
1, 4613, Note_on_c, 0, 52, 30
1, 4619, Note_on_c, 0, 60, 0
1, 4626, Note_on_c, 0, 67, 0
1, 4639, Note_on_c, 0, 45, 0
1, 4642, Note_on_c, 0, 52, 0
1, 4814, Note_on_c, 0, 61, 50
1, 4815, Note_on_c, 0, 65, 57
1, 4818, Note_on_c, 0, 60, 57
1, 4818, Note_on_c, 0, 69, 45
1, 4818, Note_on_c, 0, 59, 30
1, 4824, Note_on_c, 0, 59, 0
1, 4826, Control_c, 0, 64, 0
1, 4872, Note_on_c, 0, 60, 0
1, 4873, Note_on_c, 0, 59, 32
1, 4882, Note_on_c, 0, 59, 0
1, 4884, Note_on_c, 0, 58, 37
1, 4902, Note_on_c, 0, 58, 0
1, 4907, Note_on_c, 0, 57, 32
1, 4962, Control_c, 0, 64, 127
1, 5011, Note_on_c, 0, 65, 0
1, 5032, Note_on_c, 0, 61, 0
1, 5050, Note_on_c, 0, 65, 38
1, 5051, Note_on_c, 0, 57, 0
1, 5064, Note_on_c, 0, 69, 0
1, 5066, Note_on_c, 0, 72, 0
1, 5076, Note_on_c, 0, 61, 32
1, 5078, Note_on_c, 0, 65, 0
1, 5092, Note_on_c, 0, 61, 0
1, 5118, Note_on_c, 0, 50, 37
1, 5120, Note_on_c, 0, 60, 26
1, 5121, Note_on_c, 0, 64, 33
1, 5123, Control_c, 0, 64, 0
1, 5147, Control_c, 0, 64, 127
1, 5158, Note_on_c, 0, 60, 0
1, 5173, Note_on_c, 0, 57, 29
1, 5193, Note_on_c, 0, 64, 0
1, 5207, Note_on_c, 0, 57, 0
1, 5221, Note_on_c, 0, 62, 28
1, 5222, Note_on_c, 0, 67, 36
1, 5255, Note_on_c, 0, 62, 0
1, 5260, Note_on_c, 0, 50, 0
1, 5263, Note_on_c, 0, 67, 0
1, 5269, Note_on_c, 0, 50, 13
1, 5269, Note_on_c, 0, 69, 60
1, 5284, Note_on_c, 0, 50, 0
1, 5285, Note_on_c, 0, 69, 0
1, 5330, Note_on_c, 0, 68, 51
1, 5333, Note_on_c, 0, 60, 37
1, 5334, Note_on_c, 0, 63, 39
1, 5334, Note_on_c, 0, 50, 42
1, 5335, Note_on_c, 0, 66, 36
1, 5337, Control_c, 0, 64, 0
1, 5373, Control_c, 0, 64, 127
1, 5375, Note_on_c, 0, 60, 0
1, 5389, Note_on_c, 0, 68, 0
1, 5389, Note_on_c, 0, 63, 0
1, 5391, Note_on_c, 0, 66, 0
1, 5400, Note_on_c, 0, 63, 29
1, 5402, Note_on_c, 0, 69, 54
1, 5403, Note_on_c, 0, 66, 35
1, 5404, Note_on_c, 0, 60, 38
1, 5436, Note_on_c, 0, 69, 0
1, 5447, Note_on_c, 0, 60, 0
1, 5456, Note_on_c, 0, 66, 0
1, 5460, Note_on_c, 0, 63, 0
1, 5581, Note_on_c, 0, 50, 0
1, 5597, Note_on_c, 0, 50, 49
1, 5653, Note_on_c, 0, 50, 0
1, 5787, Note_on_c, 0, 65, 29
1, 5787, Note_on_c, 0, 62, 44
1, 5788, Note_on_c, 0, 43, 33
1, 5788, Note_on_c, 0, 57, 27
1, 5788, Note_on_c, 0, 60, 48
1, 5790, Note_on_c, 0, 50, 26
1, 5792, Note_on_c, 0, 55, 24
1, 5794, Control_c, 0, 64, 0
1, 5828, Control_c, 0, 64, 127
1, 5928, Note_on_c, 0, 57, 0
1, 5930, Note_on_c, 0, 65, 0
1, 5935, Note_on_c, 0, 62, 0
1, 5937, Note_on_c, 0, 60, 0
1, 5952, Note_on_c, 0, 55, 0
1, 6014, Note_on_c, 0, 50, 0
1, 6049, Note_on_c, 0, 43, 0
1, 6055, Note_on_c, 0, 77, 77
1, 6056, Note_on_c, 0, 69, 77
1, 6086, Note_on_c, 0, 77, 0
1, 6088, Note_on_c, 0, 69, 0
1, 6114, Note_on_c, 0, 79, 73
1, 6116, Note_on_c, 0, 71, 76
1, 6147, Note_on_c, 0, 71, 0
1, 6148, Note_on_c, 0, 79, 0
1, 6170, Note_on_c, 0, 81, 75
1, 6172, Note_on_c, 0, 72, 64
1, 6204, Note_on_c, 0, 81, 0
1, 6230, Note_on_c, 0, 72, 0
1, 6349, Note_on_c, 0, 79, 47
1, 6349, Note_on_c, 0, 71, 43
1, 6350, Note_on_c, 0, 55, 26
1, 6354, Note_on_c, 0, 60, 38
1, 6354, Note_on_c, 0, 65, 32
1, 6359, Control_c, 0, 64, 0
1, 6385, Control_c, 0, 64, 127
1, 6420, Note_on_c, 0, 71, 0
1, 6422, Note_on_c, 0, 79, 0
1, 6448, Note_on_c, 0, 79, 34
1, 6450, Note_on_c, 0, 71, 32
1, 6463, Note_on_c, 0, 65, 0
1, 6483, Note_on_c, 0, 55, 0
1, 6491, Note_on_c, 0, 71, 0
1, 6495, Note_on_c, 0, 60, 0
1, 6520, Note_on_c, 0, 79, 0
1, 6595, Note_on_c, 0, 86, 80
1, 6595, Note_on_c, 0, 79, 72
1, 6596, Note_on_c, 0, 74, 72
1, 6597, Note_on_c, 0, 53, 40
1, 6597, Note_on_c, 0, 62, 38
1, 6601, Control_c, 0, 64, 0
1, 6630, Control_c, 0, 64, 127
1, 6671, Note_on_c, 0, 79, 0
1, 6705, Note_on_c, 0, 83, 70
1, 6707, Note_on_c, 0, 74, 0
1, 6723, Note_on_c, 0, 86, 0
1, 6739, Note_on_c, 0, 83, 0
1, 6747, Note_on_c, 0, 79, 54
1, 6771, Note_on_c, 0, 79, 0
1, 6779, Note_on_c, 0, 74, 54
1, 6793, Note_on_c, 0, 74, 0
1, 6799, Note_on_c, 0, 62, 0
1, 6811, Note_on_c, 0, 53, 0
1, 6819, Note_on_c, 0, 71, 43
1, 6848, Note_on_c, 0, 71, 0
1, 6852, Note_on_c, 0, 67, 45
1, 6884, Note_on_c, 0, 67, 0
1, 6901, Note_on_c, 0, 62, 27
1, 6903, Control_c, 0, 64, 0
1, 6903, Note_on_c, 0, 52, 41
1, 6908, Note_on_c, 0, 64, 15
1, 6933, Control_c, 0, 64, 127
1, 6946, Note_on_c, 0, 64, 0
1, 6960, Note_on_c, 0, 59, 35
1, 6966, Note_on_c, 0, 62, 0
1, 7008, Note_on_c, 0, 67, 36
1, 7012, Note_on_c, 0, 62, 20
1, 7035, Note_on_c, 0, 67, 0
1, 7036, Note_on_c, 0, 59, 0
1, 7038, Note_on_c, 0, 52, 0
1, 7052, Note_on_c, 0, 72, 64
1, 7053, Note_on_c, 0, 62, 0
1, 7083, Note_on_c, 0, 72, 0
1, 7124, Note_on_c, 0, 75, 59
1, 7124, Note_on_c, 0, 55, 24
1, 7125, Note_on_c, 0, 61, 37
1, 7125, Note_on_c, 0, 65, 31
1, 7125, Note_on_c, 0, 67, 44
1, 7129, Control_c, 0, 64, 0
1, 7156, Control_c, 0, 64, 127
1, 7169, Note_on_c, 0, 75, 0
1, 7173, Note_on_c, 0, 76, 73
1, 7184, Note_on_c, 0, 65, 0
1, 7185, Note_on_c, 0, 67, 0
1, 7193, Note_on_c, 0, 76, 0
1, 7226, Note_on_c, 0, 79, 58
1, 7230, Note_on_c, 0, 70, 71
1, 7230, Note_on_c, 0, 73, 67
1, 7231, Note_on_c, 0, 65, 39
1, 7251, Note_on_c, 0, 79, 0
1, 7269, Note_on_c, 0, 70, 0
1, 7271, Note_on_c, 0, 73, 0
1, 7291, Note_on_c, 0, 65, 0
1, 7291, Note_on_c, 0, 81, 80
1, 7310, Note_on_c, 0, 81, 0
1, 7323, Note_on_c, 0, 61, 0
1, 7355, Note_on_c, 0, 79, 64
1, 7358, Note_on_c, 0, 72, 56
1, 7358, Note_on_c, 0, 69, 60
1, 7360, Note_on_c, 0, 64, 44
1, 7362, Control_c, 0, 64, 0
1, 7387, Control_c, 0, 64, 127
1, 7404, Note_on_c, 0, 79, 0
1, 7422, Note_on_c, 0, 77, 66
1, 7437, Note_on_c, 0, 72, 0
1, 7444, Note_on_c, 0, 69, 0
1, 7446, Note_on_c, 0, 77, 0
1, 7466, Note_on_c, 0, 64, 0
1, 7492, Note_on_c, 0, 61, 33
1, 7494, Note_on_c, 0, 69, 43
1, 7494, Note_on_c, 0, 65, 25
1, 7503, Control_c, 0, 64, 0
1, 7524, Control_c, 0, 64, 127
1, 7561, Note_on_c, 0, 76, 53
1, 7572, Note_on_c, 0, 61, 0
1, 7576, Note_on_c, 0, 55, 0
1, 7604, Note_on_c, 0, 69, 0
1, 7605, Note_on_c, 0, 65, 0
1, 7625, Note_on_c, 0, 76, 0
1, 7639, Note_on_c, 0, 74, 39
1, 7640, Note_on_c, 0, 65, 26
1, 7640, Note_on_c, 0, 60, 40
1, 7640, Note_on_c, 0, 69, 44
1, 7640, Control_c, 0, 64, 0
1, 7664, Control_c, 0, 64, 127
1, 7685, Note_on_c, 0, 74, 0
1, 7686, Note_on_c, 0, 69, 0
1, 7719, Note_on_c, 0, 65, 0
1, 7732, Note_on_c, 0, 60, 0
1, 7743, Note_on_c, 0, 69, 29
1, 7774, Note_on_c, 0, 69, 0
1, 7880, Note_on_c, 0, 63, 34
1, 7880, Note_on_c, 0, 68, 40
1, 7880, Note_on_c, 0, 71, 31
1, 7881, Note_on_c, 0, 59, 30
1, 7881, Note_on_c, 0, 43, 31
1, 7883, Control_c, 0, 64, 0
1, 7887, Note_on_c, 0, 53, 18
1, 7908, Control_c, 0, 64, 127
1, 7924, Note_on_c, 0, 53, 0
1, 7937, Note_on_c, 0, 43, 0
1, 8066, Note_on_c, 0, 31, 34
1, 8085, Note_on_c, 0, 31, 0
1, 8170, Note_on_c, 0, 71, 0
1, 8175, Note_on_c, 0, 59, 0
1, 8180, Note_on_c, 0, 68, 0
1, 8202, Note_on_c, 0, 63, 0
1, 8316, Note_on_c, 0, 67, 24
1, 8319, Note_on_c, 0, 36, 32
1, 8320, Note_on_c, 0, 62, 31
1, 8321, Note_on_c, 0, 43, 24
1, 8322, Note_on_c, 0, 59, 24
1, 8322, Note_on_c, 0, 57, 24
1, 8324, Note_on_c, 0, 64, 18
1, 8325, Note_on_c, 0, 52, 32
1, 8333, Control_c, 0, 64, 0
1, 8373, Control_c, 0, 64, 127
1, 8399, Note_on_c, 0, 57, 0
1, 8400, Note_on_c, 0, 59, 0
1, 8412, Note_on_c, 0, 64, 0
1, 8422, Note_on_c, 0, 67, 0
1, 8425, Note_on_c, 0, 62, 0
1, 8433, Note_on_c, 0, 36, 0
1, 8440, Note_on_c, 0, 43, 0
1, 8454, Note_on_c, 0, 52, 0
1, 8494, Note_on_c, 0, 67, 67
1, 8549, Note_on_c, 0, 67, 0
1, 8555, Note_on_c, 0, 67, 56
1, 8555, Note_on_c, 0, 60, 80
1, 8556, Note_on_c, 0, 69, 74
1, 8562, Control_c, 0, 64, 0
1, 8582, Control_c, 0, 64, 127
1, 8620, Note_on_c, 0, 72, 78
1, 8657, Note_on_c, 0, 69, 0
1, 8662, Note_on_c, 0, 67, 0
1, 8674, Note_on_c, 0, 72, 0
1, 8681, Note_on_c, 0, 59, 61
1, 8681, Note_on_c, 0, 74, 68
1, 8682, Note_on_c, 0, 67, 64
1, 8683, Note_on_c, 0, 72, 60
1, 8683, Note_on_c, 0, 69, 62
1, 8687, Control_c, 0, 64, 0
1, 8694, Note_on_c, 0, 60, 0
1, 8718, Control_c, 0, 64, 127
1, 8745, Note_on_c, 0, 74, 0
1, 8753, Note_on_c, 0, 76, 66
1, 8759, Note_on_c, 0, 72, 0
1, 8759, Note_on_c, 0, 74, 29
1, 8761, Note_on_c, 0, 69, 0
1, 8763, Note_on_c, 0, 67, 0
1, 8772, Note_on_c, 0, 76, 0
1, 8773, Note_on_c, 0, 74, 0
1, 8840, Note_on_c, 0, 83, 61
1, 8841, Note_on_c, 0, 76, 43
1, 8843, Note_on_c, 0, 57, 31
1, 8845, Note_on_c, 0, 59, 0
1, 8849, Control_c, 0, 64, 0
1, 8850, Note_on_c, 0, 69, 43
1, 8871, Control_c, 0, 64, 127
1, 8899, Note_on_c, 0, 76, 0
1, 8905, Note_on_c, 0, 69, 0
1, 8915, Note_on_c, 0, 83, 0
1, 8924, Note_on_c, 0, 79, 50
1, 8924, Note_on_c, 0, 71, 32
1, 8930, Note_on_c, 0, 76, 29
1, 8930, Note_on_c, 0, 55, 41
1, 8931, Note_on_c, 0, 57, 0
1, 8950, Note_on_c, 0, 76, 0
1, 8959, Note_on_c, 0, 55, 0
1, 8965, Note_on_c, 0, 71, 0
1, 8970, Note_on_c, 0, 79, 0
1, 9002, Note_on_c, 0, 81, 47
1, 9005, Note_on_c, 0, 69, 34
1, 9005, Note_on_c, 0, 74, 36
1, 9009, Note_on_c, 0, 54, 45
1, 9010, Control_c, 0, 64, 0
1, 9034, Control_c, 0, 64, 127
1, 9054, Note_on_c, 0, 69, 0
1, 9059, Note_on_c, 0, 64, 37
1, 9070, Note_on_c, 0, 74, 0
1, 9090, Note_on_c, 0, 64, 0
1, 9094, Note_on_c, 0, 81, 0
1, 9098, Note_on_c, 0, 54, 0
1, 9103, Note_on_c, 0, 69, 68
1, 9114, Note_on_c, 0, 69, 0
1, 9144, Note_on_c, 0, 86, 78
1, 9159, Note_on_c, 0, 86, 0
1, 9198, Note_on_c, 0, 41, 28
1, 9198, Note_on_c, 0, 71, 35
1, 9198, Note_on_c, 0, 75, 35
1, 9199, Note_on_c, 0, 83, 40
1, 9201, Control_c, 0, 64, 0
1, 9201, Note_on_c, 0, 79, 39
1, 9230, Control_c, 0, 64, 127
1, 9240, Note_on_c, 0, 50, 52
1, 9255, Note_on_c, 0, 50, 0
1, 9256, Note_on_c, 0, 41, 0
1, 9278, Note_on_c, 0, 71, 0
1, 9279, Note_on_c, 0, 75, 0
1, 9296, Note_on_c, 0, 79, 0
1, 9305, Note_on_c, 0, 83, 0
1, 9311, Note_on_c, 0, 75, 45
1, 9314, Note_on_c, 0, 71, 45
1, 9318, Note_on_c, 0, 67, 22
1, 9318, Note_on_c, 0, 62, 24
1, 9320, Note_on_c, 0, 57, 14
1, 9322, Note_on_c, 0, 63, 19
1, 9329, Note_on_c, 0, 75, 0
1, 9354, Note_on_c, 0, 71, 0
1, 9360, Note_on_c, 0, 67, 0
1, 9363, Note_on_c, 0, 57, 0
1, 9363, Note_on_c, 0, 79, 65
1, 9367, Note_on_c, 0, 62, 0
1, 9370, Note_on_c, 0, 63, 0
1, 9398, Note_on_c, 0, 77, 67
1, 9407, Note_on_c, 0, 79, 0
1, 9423, Note_on_c, 0, 77, 0
1, 9444, Note_on_c, 0, 76, 50
1, 9444, Note_on_c, 0, 62, 33
1, 9444, Note_on_c, 0, 67, 45
1, 9445, Note_on_c, 0, 52, 38
1, 9448, Control_c, 0, 64, 0
1, 9473, Note_on_c, 0, 76, 0
1, 9473, Control_c, 0, 64, 127
1, 9489, Note_on_c, 0, 67, 0
1, 9493, Note_on_c, 0, 59, 49
1, 9496, Note_on_c, 0, 62, 0
1, 9524, Note_on_c, 0, 59, 0
1, 9530, Note_on_c, 0, 52, 0
1, 9536, Note_on_c, 0, 72, 82
1, 9553, Note_on_c, 0, 72, 0
1, 9583, Note_on_c, 0, 41, 51
1, 9584, Note_on_c, 0, 69, 62
1, 9585, Note_on_c, 0, 64, 62
1, 9593, Control_c, 0, 64, 0
1, 9616, Control_c, 0, 64, 127
1, 9636, Note_on_c, 0, 64, 0
1, 9636, Note_on_c, 0, 48, 35
1, 9641, Note_on_c, 0, 57, 60
1, 9643, Note_on_c, 0, 69, 0
1, 9667, Note_on_c, 0, 57, 0
1, 9701, Note_on_c, 0, 65, 71
1, 9705, Note_on_c, 0, 53, 30
1, 9707, Note_on_c, 0, 62, 29
1, 9712, Note_on_c, 0, 62, 0
1, 9739, Note_on_c, 0, 41, 0
1, 9741, Note_on_c, 0, 48, 0
1, 9745, Note_on_c, 0, 65, 0
1, 9750, Note_on_c, 0, 53, 0
1, 9750, Note_on_c, 0, 64, 65
1, 9837, Note_on_c, 0, 64, 0
1, 9874, Note_on_c, 0, 62, 48
1, 9875, Note_on_c, 0, 57, 34
1, 9880, Note_on_c, 0, 47, 36
1, 9889, Control_c, 0, 64, 0
1, 9922, Control_c, 0, 64, 127
1, 9949, Note_on_c, 0, 57, 0
1, 9965, Note_on_c, 0, 62, 0
1, 9966, Note_on_c, 0, 47, 0
1, 10064, Note_on_c, 0, 74, 35
1, 10065, Note_on_c, 0, 65, 28
1, 10067, Note_on_c, 0, 64, 29
1, 10069, Note_on_c, 0, 69, 34
1, 10071, Note_on_c, 0, 71, 22
1, 10147, Note_on_c, 0, 65, 0
1, 10163, Note_on_c, 0, 74, 0
1, 10165, Note_on_c, 0, 69, 0
1, 10167, Note_on_c, 0, 71, 0
1, 10218, Note_on_c, 0, 64, 0
1, 10315, Note_on_c, 0, 67, 34
1, 10315, Note_on_c, 0, 83, 74
1, 10315, Note_on_c, 0, 62, 34
1, 10317, Note_on_c, 0, 71, 58
1, 10317, Note_on_c, 0, 56, 29
1, 10319, Control_c, 0, 64, 0
1, 10333, Control_c, 0, 64, 127
1, 10340, Note_on_c, 0, 62, 0
1, 10341, Note_on_c, 0, 67, 0
1, 10342, Note_on_c, 0, 83, 0
1, 10352, Note_on_c, 0, 71, 0
1, 10361, Note_on_c, 0, 56, 0
1, 10400, Note_on_c, 0, 79, 48
1, 10402, Note_on_c, 0, 67, 34
1, 10403, Note_on_c, 0, 72, 43
1, 10405, Note_on_c, 0, 65, 19
1, 10405, Note_on_c, 0, 55, 33
1, 10406, Note_on_c, 0, 61, 25
1, 10406, Note_on_c, 0, 60, 32
1, 10409, Control_c, 0, 64, 0
1, 10439, Control_c, 0, 64, 127
1, 10457, Note_on_c, 0, 67, 0
1, 10464, Note_on_c, 0, 72, 0
1, 10476, Note_on_c, 0, 79, 0
1, 10550, Note_on_c, 0, 96, 89
1, 10590, Note_on_c, 0, 94, 37
1, 10606, Note_on_c, 0, 96, 0
1, 10607, Note_on_c, 0, 65, 0
1, 10608, Note_on_c, 0, 60, 0
1, 10613, Note_on_c, 0, 61, 0
1, 10614, Note_on_c, 0, 55, 0
1, 10623, Note_on_c, 0, 94, 0
1, 10624, Note_on_c, 0, 89, 64
1, 10646, Note_on_c, 0, 89, 0
1, 10647, Note_on_c, 0, 85, 56
1, 10660, Note_on_c, 0, 85, 0
1, 10673, Note_on_c, 0, 84, 51
1, 10687, Note_on_c, 0, 84, 0
1, 10705, Note_on_c, 0, 82, 37
1, 10732, Note_on_c, 0, 82, 0
1, 10740, Note_on_c, 0, 66, 32
1, 10740, Note_on_c, 0, 81, 47
1, 10740, Note_on_c, 0, 61, 42
1, 10742, Note_on_c, 0, 55, 35
1, 10746, Control_c, 0, 64, 0
1, 10771, Control_c, 0, 64, 127
1, 10780, Note_on_c, 0, 81, 0
1, 10783, Note_on_c, 0, 79, 43
1, 10822, Note_on_c, 0, 79, 0
1, 10832, Note_on_c, 0, 77, 49
1, 10878, Note_on_c, 0, 77, 0
1, 10878, Note_on_c, 0, 66, 0
1, 10880, Note_on_c, 0, 76, 49
1, 10881, Note_on_c, 0, 55, 0
1, 10890, Note_on_c, 0, 61, 0
1, 10915, Note_on_c, 0, 76, 0
1, 10933, Note_on_c, 0, 76, 42
1, 10935, Note_on_c, 0, 60, 32
1, 10937, Note_on_c, 0, 50, 33
1, 10943, Control_c, 0, 64, 0
1, 10968, Note_on_c, 0, 76, 0
1, 10968, Control_c, 0, 64, 127
1, 10970, Note_on_c, 0, 77, 51
1, 11000, Note_on_c, 0, 77, 0
1, 11005, Note_on_c, 0, 73, 38
1, 11029, Note_on_c, 0, 76, 40
1, 11031, Note_on_c, 0, 73, 0
1, 11059, Note_on_c, 0, 76, 0
1, 11063, Note_on_c, 0, 74, 44
1, 11080, Note_on_c, 0, 74, 0
1, 11090, Note_on_c, 0, 69, 45
1, 11108, Note_on_c, 0, 69, 0
1, 11123, Note_on_c, 0, 65, 33
1, 11159, Note_on_c, 0, 65, 0
1, 11186, Note_on_c, 0, 60, 0
1, 11219, Note_on_c, 0, 62, 43
1, 11332, Note_on_c, 0, 62, 0
1, 11394, Note_on_c, 0, 50, 0
1, 11522, Note_on_c, 0, 81, 54
1, 11523, Note_on_c, 0, 77, 51
1, 11525, Note_on_c, 0, 72, 40
1, 11525, Note_on_c, 0, 65, 36
1, 11540, Note_on_c, 0, 81, 0
1, 11542, Note_on_c, 0, 77, 0
1, 11551, Note_on_c, 0, 72, 0
1, 11576, Note_on_c, 0, 65, 0
1, 11576, Note_on_c, 0, 79, 45
1, 11577, Note_on_c, 0, 76, 52
1, 11578, Note_on_c, 0, 70, 44
1, 11580, Control_c, 0, 64, 0
1, 11581, Note_on_c, 0, 64, 27
1, 11590, Control_c, 0, 64, 127
1, 11597, Note_on_c, 0, 79, 0
1, 11600, Note_on_c, 0, 76, 0
1, 11614, Note_on_c, 0, 70, 0
1, 11628, Note_on_c, 0, 64, 0
1, 11632, Note_on_c, 0, 77, 44
1, 11633, Note_on_c, 0, 62, 32
1, 11633, Note_on_c, 0, 69, 41
1, 11634, Note_on_c, 0, 74, 36
1, 11637, Control_c, 0, 64, 0
1, 11656, Note_on_c, 0, 74, 0
1, 11657, Note_on_c, 0, 77, 0
1, 11657, Control_c, 0, 64, 127
1, 11672, Note_on_c, 0, 69, 0
1, 11698, Note_on_c, 0, 62, 0
1, 11700, Note_on_c, 0, 76, 40
1, 11701, Note_on_c, 0, 73, 37
1, 11701, Note_on_c, 0, 61, 36
1, 11702, Note_on_c, 0, 69, 36
1, 11706, Control_c, 0, 64, 0
1, 11726, Control_c, 0, 64, 127
1, 11780, Note_on_c, 0, 69, 0
1, 11781, Note_on_c, 0, 61, 0
1, 11811, Note_on_c, 0, 73, 0
1, 11838, Note_on_c, 0, 76, 0
1, 11873, Note_on_c, 0, 74, 58
1, 11873, Note_on_c, 0, 69, 45
1, 11874, Note_on_c, 0, 62, 38
1, 11874, Note_on_c, 0, 66, 29
1, 11876, Note_on_c, 0, 64, 26
1, 11893, Note_on_c, 0, 64, 0
1, 11903, Note_on_c, 0, 74, 0
1, 11905, Note_on_c, 0, 62, 0
1, 11906, Note_on_c, 0, 69, 0
1, 11913, Note_on_c, 0, 66, 0
1, 11950, Note_on_c, 0, 62, 34
1, 11951, Note_on_c, 0, 67, 45
1, 11951, Note_on_c, 0, 79, 53
1, 11952, Note_on_c, 0, 76, 47
1, 11952, Note_on_c, 0, 72, 47
1, 11954, Note_on_c, 0, 56, 38
1, 11959, Control_c, 0, 64, 0
1, 11984, Control_c, 0, 64, 127
1, 11992, Note_on_c, 0, 79, 0
1, 11993, Note_on_c, 0, 76, 0
1, 12005, Note_on_c, 0, 72, 0
1, 12034, Note_on_c, 0, 67, 0
1, 12038, Note_on_c, 0, 62, 0
1, 12041, Note_on_c, 0, 76, 62
1, 12051, Note_on_c, 0, 56, 0
1, 12060, Note_on_c, 0, 76, 0
1, 12132, Note_on_c, 0, 72, 43
1, 12134, Note_on_c, 0, 67, 30
1, 12135, Note_on_c, 0, 60, 35
1, 12136, Note_on_c, 0, 45, 36
1, 12136, Note_on_c, 0, 55, 20
1, 12138, Control_c, 0, 64, 0
1, 12168, Control_c, 0, 64, 127
1, 12184, Note_on_c, 0, 55, 0
1, 12193, Note_on_c, 0, 67, 0
1, 12195, Note_on_c, 0, 60, 0
1, 12195, Note_on_c, 0, 52, 35
1, 12200, Note_on_c, 0, 45, 0
1, 12206, Note_on_c, 0, 52, 0
1, 12258, Note_on_c, 0, 61, 40
1, 12259, Note_on_c, 0, 65, 48
1, 12260, Note_on_c, 0, 69, 41
1, 12260, Note_on_c, 0, 51, 23
1, 12262, Note_on_c, 0, 57, 29
1, 12263, Control_c, 0, 64, 0
1, 12290, Control_c, 0, 64, 127
1, 12291, Note_on_c, 0, 57, 0
1, 12297, Note_on_c, 0, 51, 0
1, 12348, Note_on_c, 0, 39, 40
1, 12370, Note_on_c, 0, 39, 0
1, 12431, Note_on_c, 0, 65, 0
1, 12439, Control_c, 0, 64, 0
1, 12443, Note_on_c, 0, 26, 55
1, 12452, Note_on_c, 0, 26, 0
1, 12454, Control_c, 0, 64, 127
1, 12469, Note_on_c, 0, 69, 0
1, 12479, Note_on_c, 0, 72, 0
1, 12482, Note_on_c, 0, 61, 0
1, 12546, Note_on_c, 0, 60, 35
1, 12547, Note_on_c, 0, 67, 35
1, 12547, Note_on_c, 0, 64, 43
1, 12547, Note_on_c, 0, 50, 39
1, 12549, Note_on_c, 0, 59, 36
1, 12614, Note_on_c, 0, 67, 0
1, 12620, Note_on_c, 0, 64, 0
1, 12629, Note_on_c, 0, 59, 0
1, 12633, Note_on_c, 0, 60, 0
1, 12676, Note_on_c, 0, 66, 44
1, 12676, Note_on_c, 0, 63, 37
1, 12678, Note_on_c, 0, 60, 27
1, 12680, Note_on_c, 0, 56, 20
1, 12682, Note_on_c, 0, 57, 22
1, 12687, Control_c, 0, 64, 0
1, 12700, Note_on_c, 0, 56, 0
1, 12710, Control_c, 0, 64, 127
1, 12791, Note_on_c, 0, 60, 0
1, 12793, Note_on_c, 0, 63, 0
1, 12795, Note_on_c, 0, 57, 0
1, 12886, Note_on_c, 0, 66, 0
1, 12977, Note_on_c, 0, 50, 0
1, 12991, Note_on_c, 0, 66, 44
1, 12993, Note_on_c, 0, 58, 34
1, 12996, Note_on_c, 0, 61, 45
1, 13038, Note_on_c, 0, 66, 0
1, 13039, Note_on_c, 0, 58, 0
1, 13049, Note_on_c, 0, 61, 0
1, 13064, Note_on_c, 0, 65, 43
1, 13065, Note_on_c, 0, 57, 31
1, 13068, Note_on_c, 0, 60, 45
1, 13068, Note_on_c, 0, 43, 36
1, 13069, Note_on_c, 0, 53, 31
1, 13076, Control_c, 0, 64, 0
1, 13105, Control_c, 0, 64, 127
1, 13151, Note_on_c, 0, 53, 0
1, 13173, Note_on_c, 0, 57, 0
1, 13177, Note_on_c, 0, 55, 72
1, 13182, Note_on_c, 0, 65, 0
1, 13196, Note_on_c, 0, 60, 0
1, 13242, Note_on_c, 0, 67, 61
1, 13243, Note_on_c, 0, 60, 68
1, 13264, Note_on_c, 0, 60, 0
1, 13268, Note_on_c, 0, 67, 0
1, 13291, Note_on_c, 0, 69, 81
1, 13305, Note_on_c, 0, 55, 0
1, 13310, Note_on_c, 0, 69, 0
1, 13319, Note_on_c, 0, 43, 0
1, 13329, Note_on_c, 0, 67, 52
1, 13344, Note_on_c, 0, 67, 0
1, 13399, Note_on_c, 0, 67, 40
1, 13400, Note_on_c, 0, 56, 25
1, 13401, Note_on_c, 0, 62, 35
1, 13401, Note_on_c, 0, 59, 47
1, 13402, Note_on_c, 0, 43, 35
1, 13404, Note_on_c, 0, 53, 35
1, 13406, Control_c, 0, 64, 0
1, 13441, Control_c, 0, 64, 127
1, 13577, Note_on_c, 0, 59, 0
1, 13577, Note_on_c, 0, 67, 0
1, 13581, Note_on_c, 0, 62, 0
1, 13586, Note_on_c, 0, 56, 0
1, 13632, Note_on_c, 0, 53, 0
1, 13660, Note_on_c, 0, 43, 0
1, 13662, Note_on_c, 0, 64, 59
1, 13775, Note_on_c, 0, 64, 0
1, 13865, Control_c, 0, 64, 0
1, 13867, Note_on_c, 0, 60, 61
1, 13868, Note_on_c, 0, 42, 35
1, 13886, Control_c, 0, 64, 127
1, 13906, Note_on_c, 0, 60, 0
1, 13991, Note_on_c, 0, 42, 0
1, 13993, Note_on_c, 0, 72, 62
1, 14093, Note_on_c, 0, 72, 0
1, 14120, Note_on_c, 0, 72, 46
1, 14178, Note_on_c, 0, 72, 0
1, 14238, Note_on_c, 0, 72, 44
1, 14320, Note_on_c, 0, 72, 0
1, 14507, Note_on_c, 0, 60, 27
1, 14512, Note_on_c, 0, 62, 44
1, 14517, Note_on_c, 0, 54, 36
1, 14517, Note_on_c, 0, 72, 53
1, 14520, Note_on_c, 0, 64, 33
1, 14522, Note_on_c, 0, 69, 44
1, 14527, Note_on_c, 0, 57, 22
1, 14560, Note_on_c, 0, 60, 0
1, 14562, Note_on_c, 0, 72, 0
1, 14563, Note_on_c, 0, 54, 0
1, 14570, Note_on_c, 0, 57, 0
1, 14575, Note_on_c, 0, 72, 55
1, 14582, Note_on_c, 0, 64, 0
1, 14608, Note_on_c, 0, 62, 0
1, 14618, Note_on_c, 0, 69, 0
1, 14622, Note_on_c, 0, 72, 0
1, 14635, Note_on_c, 0, 71, 49
1, 14635, Note_on_c, 0, 47, 35
1, 14635, Note_on_c, 0, 62, 40
1, 14636, Note_on_c, 0, 67, 30
1, 14639, Note_on_c, 0, 57, 29
1, 14644, Control_c, 0, 64, 0
1, 14679, Control_c, 0, 64, 127
1, 14691, Note_on_c, 0, 62, 0
1, 14693, Note_on_c, 0, 51, 47
1, 14695, Note_on_c, 0, 67, 0
1, 14696, Note_on_c, 0, 71, 0
1, 14700, Note_on_c, 0, 57, 0
1, 14744, Note_on_c, 0, 47, 0
1, 14744, Note_on_c, 0, 74, 52
1, 14745, Note_on_c, 0, 67, 50
1, 14746, Note_on_c, 0, 57, 51
1, 14747, Note_on_c, 0, 51, 0
1, 14750, Note_on_c, 0, 67, 0
1, 14757, Note_on_c, 0, 57, 0
1, 14759, Note_on_c, 0, 74, 0
1, 14811, Note_on_c, 0, 86, 57
1, 14811, Note_on_c, 0, 60, 41
1, 14811, Note_on_c, 0, 74, 53
1, 14816, Note_on_c, 0, 60, 0
1, 14838, Note_on_c, 0, 86, 0
1, 14847, Note_on_c, 0, 74, 0
1, 14910, Note_on_c, 0, 71, 39
1, 14911, Note_on_c, 0, 83, 38
1, 14912, Note_on_c, 0, 40, 45
1, 14929, Control_c, 0, 64, 0
1, 14958, Control_c, 0, 64, 127
1, 14982, Note_on_c, 0, 83, 0
1, 14982, Note_on_c, 0, 47, 37
1, 14993, Note_on_c, 0, 71, 0
1, 15016, Note_on_c, 0, 40, 0
1, 15029, Note_on_c, 0, 47, 0
1, 15032, Note_on_c, 0, 55, 58
1, 15046, Note_on_c, 0, 55, 0
1, 15077, Note_on_c, 0, 59, 70
1, 15124, Note_on_c, 0, 83, 92
1, 15125, Note_on_c, 0, 74, 89
1, 15126, Note_on_c, 0, 64, 53
1, 15158, Note_on_c, 0, 59, 0
1, 15177, Note_on_c, 0, 59, 57
1, 15188, Note_on_c, 0, 83, 0
1, 15207, Note_on_c, 0, 74, 0
1, 15216, Note_on_c, 0, 64, 0
1, 15222, Note_on_c, 0, 59, 0
1, 15228, Note_on_c, 0, 59, 20
1, 15231, Note_on_c, 0, 81, 66
1, 15234, Note_on_c, 0, 72, 40
1, 15276, Note_on_c, 0, 72, 0
1, 15286, Note_on_c, 0, 81, 0
1, 15293, Note_on_c, 0, 79, 49
1, 15295, Note_on_c, 0, 52, 24
1, 15305, Note_on_c, 0, 52, 0
1, 15323, Note_on_c, 0, 79, 0
1, 15397, Note_on_c, 0, 59, 0
1, 15405, Note_on_c, 0, 49, 44
1, 15406, Note_on_c, 0, 83, 62
1, 15406, Note_on_c, 0, 74, 54
1, 15414, Control_c, 0, 64, 0
1, 15434, Control_c, 0, 64, 127
1, 15465, Note_on_c, 0, 59, 35
1, 15475, Note_on_c, 0, 83, 0
1, 15480, Note_on_c, 0, 74, 0
1, 15520, Note_on_c, 0, 81, 59
1, 15527, Note_on_c, 0, 72, 30
1, 15546, Note_on_c, 0, 72, 0
1, 15550, Note_on_c, 0, 81, 0
1, 15554, Note_on_c, 0, 49, 0
1, 15574, Note_on_c, 0, 79, 45
1, 15577, Note_on_c, 0, 69, 39
1, 15577, Note_on_c, 0, 49, 32
1, 15591, Note_on_c, 0, 59, 0
1, 15593, Note_on_c, 0, 69, 0
1, 15597, Note_on_c, 0, 79, 0
1, 15603, Note_on_c, 0, 49, 0
1, 15650, Note_on_c, 0, 83, 57
1, 15651, Control_c, 0, 64, 0
1, 15652, Note_on_c, 0, 42, 35
1, 15653, Note_on_c, 0, 71, 31
1, 15653, Note_on_c, 0, 80, 33
1, 15655, Note_on_c, 0, 76, 34
1, 15671, Control_c, 0, 64, 127
1, 15677, Note_on_c, 0, 83, 0
1, 15678, Note_on_c, 0, 76, 0
1, 15680, Note_on_c, 0, 80, 0
1, 15694, Note_on_c, 0, 71, 0
1, 15715, Note_on_c, 0, 52, 42
1, 15720, Note_on_c, 0, 42, 0
1, 15722, Note_on_c, 0, 52, 0
1, 15787, Note_on_c, 0, 59, 35
1, 15789, Note_on_c, 0, 71, 48
1, 15790, Note_on_c, 0, 64, 44
1, 15790, Note_on_c, 0, 68, 46
1, 15790, Note_on_c, 0, 61, 26
1, 15791, Note_on_c, 0, 57, 25
1, 15833, Note_on_c, 0, 57, 0
1, 15834, Note_on_c, 0, 59, 0
1, 15842, Note_on_c, 0, 64, 0
1, 15844, Note_on_c, 0, 61, 0
1, 15846, Note_on_c, 0, 68, 0
1, 15847, Note_on_c, 0, 71, 0
1, 15877, Note_on_c, 0, 71, 48
1, 15917, Note_on_c, 0, 71, 0
1, 15975, Note_on_c, 0, 51, 31
1, 15976, Control_c, 0, 64, 0
1, 15976, Note_on_c, 0, 71, 35
1, 15977, Note_on_c, 0, 57, 31
1, 15978, Note_on_c, 0, 47, 30
1, 15978, Note_on_c, 0, 62, 30
1, 15979, Note_on_c, 0, 67, 34
1, 15994, Control_c, 0, 64, 127
1, 16001, Note_on_c, 0, 62, 0
1, 16006, Note_on_c, 0, 67, 0
1, 16013, Note_on_c, 0, 71, 0
1, 16050, Note_on_c, 0, 86, 48
1, 16054, Note_on_c, 0, 74, 27
1, 16057, Note_on_c, 0, 86, 0
1, 16063, Note_on_c, 0, 74, 0
1, 16111, Note_on_c, 0, 95, 66
1, 16115, Note_on_c, 0, 83, 33
1, 16129, Note_on_c, 0, 83, 0
1, 16133, Note_on_c, 0, 95, 0
1, 16173, Note_on_c, 0, 100, 54
1, 16175, Note_on_c, 0, 88, 33
1, 16182, Note_on_c, 0, 88, 0
1, 16187, Note_on_c, 0, 100, 0
1, 16247, Note_on_c, 0, 107, 69
1, 16250, Note_on_c, 0, 95, 30
1, 16267, Note_on_c, 0, 95, 0
1, 16267, Note_on_c, 0, 107, 0
1, 16413, Note_on_c, 0, 57, 0
1, 16472, Note_on_c, 0, 59, 50
1, 16512, Note_on_c, 0, 59, 0
1, 16528, Note_on_c, 0, 59, 57
1, 16549, Note_on_c, 0, 59, 0
1, 16574, Note_on_c, 0, 51, 0
1, 16578, Note_on_c, 0, 47, 0
1, 16589, Note_on_c, 0, 59, 45
1, 16610, Note_on_c, 0, 59, 0
1, 16731, Note_on_c, 0, 71, 66
1, 16731, Note_on_c, 0, 40, 29
1, 16735, Note_on_c, 0, 62, 51
1, 16738, Note_on_c, 0, 55, 30
1, 16742, Control_c, 0, 64, 0
1, 16743, Note_on_c, 0, 55, 0
1, 16771, Control_c, 0, 64, 127
1, 16788, Note_on_c, 0, 47, 50
1, 16814, Note_on_c, 0, 62, 0
1, 16826, Note_on_c, 0, 40, 0
1, 16829, Note_on_c, 0, 71, 0
1, 16837, Note_on_c, 0, 47, 0
1, 16839, Note_on_c, 0, 62, 63
1, 16839, Note_on_c, 0, 69, 69
1, 16841, Note_on_c, 0, 55, 39
1, 16855, Note_on_c, 0, 55, 0
1, 16871, Note_on_c, 0, 62, 0
1, 16885, Note_on_c, 0, 55, 33
1, 16889, Note_on_c, 0, 67, 57
1, 16896, Note_on_c, 0, 55, 0
1, 16908, Note_on_c, 0, 67, 0
1, 16928, Note_on_c, 0, 69, 0
1, 16952, Note_on_c, 0, 71, 47
1, 16952, Note_on_c, 0, 64, 51
1, 16953, Note_on_c, 0, 49, 39
1, 16960, Control_c, 0, 64, 0
1, 16992, Control_c, 0, 64, 127
1, 17020, Note_on_c, 0, 55, 28
1, 17065, Note_on_c, 0, 64, 0
1, 17069, Note_on_c, 0, 71, 0
1, 17076, Note_on_c, 0, 64, 20
1, 17080, Note_on_c, 0, 59, 34
1, 17184, Note_on_c, 0, 55, 0
1, 17188, Note_on_c, 0, 64, 0
1, 17190, Note_on_c, 0, 59, 0
1, 17190, Note_on_c, 0, 69, 50
1, 17209, Note_on_c, 0, 49, 0
1, 17291, Note_on_c, 0, 69, 0
1, 17313, Note_on_c, 0, 67, 44
1, 17407, Note_on_c, 0, 67, 0
1, 17511, Note_on_c, 0, 42, 33
1, 17529, Note_on_c, 0, 49, 33
1, 17532, Note_on_c, 0, 57, 46
1, 17539, Note_on_c, 0, 56, 33
1, 17540, Note_on_c, 0, 64, 53
1, 17549, Note_on_c, 0, 71, 55
1, 17556, Control_c, 0, 64, 0
1, 17590, Control_c, 0, 64, 127
1, 17612, Note_on_c, 0, 49, 0
1, 17630, Note_on_c, 0, 64, 0
1, 17632, Note_on_c, 0, 56, 0
1, 17633, Note_on_c, 0, 57, 0
1, 17640, Note_on_c, 0, 49, 35
1, 17670, Note_on_c, 0, 71, 0
1, 17706, Note_on_c, 0, 56, 46
1, 17727, Note_on_c, 0, 69, 1
1, 17741, Note_on_c, 0, 57, 62
1, 17765, Note_on_c, 0, 57, 0
1, 17772, Note_on_c, 0, 69, 0
1, 17773, Note_on_c, 0, 64, 74
1, 17804, Note_on_c, 0, 64, 0
1, 17810, Note_on_c, 0, 71, 82
1, 17811, Note_on_c, 0, 64, 42
1, 17823, Note_on_c, 0, 64, 0
1, 17835, Note_on_c, 0, 64, 24
1, 17837, Note_on_c, 0, 71, 0
1, 17850, Note_on_c, 0, 64, 0
1, 17855, Note_on_c, 0, 71, 73
1, 17858, Note_on_c, 0, 64, 48
1, 17862, Note_on_c, 0, 42, 0
1, 17871, Note_on_c, 0, 49, 0
1, 17876, Note_on_c, 0, 56, 0
1, 17880, Note_on_c, 0, 71, 0
1, 17894, Note_on_c, 0, 64, 0
1, 17897, Note_on_c, 0, 71, 51
1, 17902, Note_on_c, 0, 64, 20
1, 17912, Note_on_c, 0, 64, 0
1, 17920, Note_on_c, 0, 71, 0
1, 17935, Note_on_c, 0, 71, 41
1, 17949, Note_on_c, 0, 71, 0
1, 17982, Note_on_c, 0, 74, 49
1, 17982, Note_on_c, 0, 67, 52
1, 17986, Note_on_c, 0, 47, 37
1, 17988, Note_on_c, 0, 57, 30
1, 17994, Control_c, 0, 64, 0
1, 18012, Note_on_c, 0, 74, 0
1, 18013, Note_on_c, 0, 67, 0
1, 18017, Note_on_c, 0, 62, 50
1, 18021, Note_on_c, 0, 71, 24
1, 18022, Control_c, 0, 64, 127
1, 18040, Note_on_c, 0, 62, 0
1, 18047, Note_on_c, 0, 71, 0
1, 18058, Note_on_c, 0, 74, 43
1, 18061, Note_on_c, 0, 67, 33
1, 18083, Note_on_c, 0, 67, 0
1, 18091, Note_on_c, 0, 74, 0
1, 18093, Note_on_c, 0, 57, 0
1, 18096, Note_on_c, 0, 62, 50
1, 18098, Note_on_c, 0, 71, 29
1, 18121, Note_on_c, 0, 62, 0
1, 18131, Note_on_c, 0, 71, 0
1, 18143, Note_on_c, 0, 74, 28
1, 18146, Note_on_c, 0, 67, 33
1, 18149, Note_on_c, 0, 57, 27
1, 18154, Control_c, 0, 64, 0
1, 18177, Control_c, 0, 64, 127
1, 18178, Note_on_c, 0, 67, 0
1, 18191, Note_on_c, 0, 74, 0
1, 18195, Note_on_c, 0, 71, 24
1, 18203, Note_on_c, 0, 62, 8
1, 18211, Note_on_c, 0, 51, 23
1, 18218, Note_on_c, 0, 57, 0
1, 18222, Note_on_c, 0, 62, 0
1, 18224, Note_on_c, 0, 71, 0
1, 18227, Note_on_c, 0, 51, 0
1, 18258, Note_on_c, 0, 62, 32
1, 18261, Note_on_c, 0, 67, 31
1, 18265, Note_on_c, 0, 57, 18
1, 18347, Note_on_c, 0, 62, 0
1, 18382, Note_on_c, 0, 67, 0
1, 18391, Note_on_c, 0, 57, 0
1, 18439, Note_on_c, 0, 59, 44
1, 18442, Note_on_c, 0, 47, 0
1, 18470, Note_on_c, 0, 59, 0
1, 18547, Note_on_c, 0, 64, 52
1, 18551, Note_on_c, 0, 52, 39
1, 18553, Note_on_c, 0, 59, 28
1, 18557, Control_c, 0, 64, 0
1, 18579, Control_c, 0, 64, 127
1, 18591, Note_on_c, 0, 64, 0
1, 18608, Note_on_c, 0, 64, 40
1, 18653, Note_on_c, 0, 66, 57
1, 18681, Note_on_c, 0, 52, 0
1, 18693, Note_on_c, 0, 66, 0
1, 18699, Note_on_c, 0, 52, 36
1, 18702, Note_on_c, 0, 67, 46
1, 18726, Note_on_c, 0, 64, 0
1, 18756, Note_on_c, 0, 67, 0
1, 18760, Note_on_c, 0, 64, 62
1, 18763, Note_on_c, 0, 63, 57
1, 18769, Control_c, 0, 64, 0
1, 18795, Control_c, 0, 64, 127
1, 18813, Note_on_c, 0, 59, 0
1, 18842, Note_on_c, 0, 59, 27
1, 18908, Note_on_c, 0, 59, 0
1, 18952, Note_on_c, 0, 63, 0
1, 18987, Note_on_c, 0, 64, 0
1, 18993, Note_on_c, 0, 59, 51
1, 19033, Note_on_c, 0, 52, 0
1, 19052, Note_on_c, 0, 52, 54
1, 19054, Note_on_c, 0, 59, 0
1, 19055, Note_on_c, 0, 64, 82
1, 19065, Control_c, 0, 64, 0
1, 19085, Control_c, 0, 64, 127
1, 19110, Note_on_c, 0, 62, 68
1, 19161, Note_on_c, 0, 64, 0
1, 19171, Note_on_c, 0, 66, 59
1, 19200, Note_on_c, 0, 52, 0
1, 19235, Note_on_c, 0, 67, 45
1, 19236, Note_on_c, 0, 52, 34
1, 19251, Note_on_c, 0, 62, 0
1, 19256, Note_on_c, 0, 52, 0
1, 19357, Note_on_c, 0, 66, 0
1, 19499, Note_on_c, 0, 64, 50
1, 19500, Note_on_c, 0, 67, 0
1, 19504, Note_on_c, 0, 49, 26
1, 19506, Note_on_c, 0, 59, 27
1, 19513, Control_c, 0, 64, 0
1, 19542, Control_c, 0, 64, 127
1, 19562, Note_on_c, 0, 59, 0
1, 19582, Note_on_c, 0, 58, 38
1, 19591, Control_c, 0, 64, 0
1, 19605, Control_c, 0, 64, 127
1, 19650, Note_on_c, 0, 58, 0
1, 19677, Control_c, 0, 64, 0
1, 19682, Note_on_c, 0, 57, 30
1, 19687, Control_c, 0, 64, 127
1, 19796, Note_on_c, 0, 64, 0
1, 19816, Note_on_c, 0, 57, 0
1, 19819, Note_on_c, 0, 64, 24
1, 19851, Note_on_c, 0, 49, 0
1, 19856, Note_on_c, 0, 64, 0
1, 19941, Note_on_c, 0, 62, 34
1, 19944, Note_on_c, 0, 57, 34
1, 19944, Note_on_c, 0, 60, 40
1, 19946, Note_on_c, 0, 53, 24
1, 19949, Note_on_c, 0, 50, 24
1, 19949, Control_c, 0, 64, 0
1, 19972, Control_c, 0, 64, 127
1, 19988, Note_on_c, 0, 62, 0
1, 20002, Note_on_c, 0, 62, 53
1, 20050, Note_on_c, 0, 62, 0
1, 20054, Note_on_c, 0, 53, 0
1, 20069, Note_on_c, 0, 62, 43
1, 20116, Note_on_c, 0, 62, 0
1, 20150, Note_on_c, 0, 62, 40
1, 20163, Note_on_c, 0, 57, 0
1, 20189, Note_on_c, 0, 60, 0
1, 20190, Note_on_c, 0, 50, 0
1, 20197, Note_on_c, 0, 62, 0
1, 20241, Note_on_c, 0, 49, 35
1, 20247, Note_on_c, 0, 54, 37
1, 20248, Note_on_c, 0, 65, 44
1, 20248, Note_on_c, 0, 50, 49
1, 20249, Note_on_c, 0, 49, 0
1, 20249, Note_on_c, 0, 60, 52
1, 20275, Control_c, 0, 64, 0
1, 20286, Note_on_c, 0, 51, 54
1, 20287, Note_on_c, 0, 50, 0
1, 20308, Note_on_c, 0, 51, 0
1, 20313, Note_on_c, 0, 52, 44
1, 20327, Note_on_c, 0, 52, 0
1, 20334, Note_on_c, 0, 51, 43
1, 20344, Note_on_c, 0, 51, 0
1, 20352, Note_on_c, 0, 50, 34
1, 20360, Note_on_c, 0, 50, 0
1, 20369, Note_on_c, 0, 49, 37
1, 20383, Note_on_c, 0, 49, 0
1, 20390, Note_on_c, 0, 48, 30
1, 20401, Note_on_c, 0, 48, 0
1, 20409, Note_on_c, 0, 47, 17
1, 20422, Note_on_c, 0, 47, 0
1, 20427, Note_on_c, 0, 46, 30
1, 20436, Note_on_c, 0, 46, 0
1, 20446, Note_on_c, 0, 45, 20
1, 20473, Note_on_c, 0, 45, 0
1, 20475, Note_on_c, 0, 44, 42
1, 20518, Control_c, 0, 64, 127
1, 20589, Note_on_c, 0, 54, 0
1, 20610, Note_on_c, 0, 54, 52
1, 20613, Note_on_c, 0, 60, 0
1, 20647, Note_on_c, 0, 54, 0
1, 20652, Note_on_c, 0, 65, 0
1, 20655, Note_on_c, 0, 62, 67
1, 20689, Note_on_c, 0, 65, 64
1, 20691, Note_on_c, 0, 44, 0
1, 20693, Note_on_c, 0, 62, 0
1, 20707, Note_on_c, 0, 65, 0
1, 20739, Note_on_c, 0, 62, 42
1, 20740, Note_on_c, 0, 53, 54
1, 20742, Note_on_c, 0, 43, 37
1, 20742, Control_c, 0, 64, 0
1, 20743, Note_on_c, 0, 60, 56
1, 20744, Note_on_c, 0, 57, 44
1, 20752, Note_on_c, 0, 50, 30
1, 20760, Control_c, 0, 64, 127
1, 20770, Note_on_c, 0, 53, 0
1, 20773, Note_on_c, 0, 57, 0
1, 20777, Note_on_c, 0, 60, 0
1, 20781, Note_on_c, 0, 62, 0
1, 20810, Note_on_c, 0, 50, 0
1, 20815, Note_on_c, 0, 43, 0
1, 20817, Note_on_c, 0, 55, 56
1, 20819, Note_on_c, 0, 65, 75
1, 20819, Note_on_c, 0, 76, 66
1, 20820, Note_on_c, 0, 74, 71
1, 20833, Note_on_c, 0, 55, 0
1, 20836, Note_on_c, 0, 76, 0
1, 20900, Note_on_c, 0, 60, 49
1, 20936, Note_on_c, 0, 65, 0
1, 20996, Note_on_c, 0, 65, 35
1, 20998, Note_on_c, 0, 69, 38
1, 21018, Note_on_c, 0, 65, 0
1, 21036, Note_on_c, 0, 74, 0
1, 21042, Note_on_c, 0, 60, 0
1, 21042, Note_on_c, 0, 69, 0
1, 21108, Note_on_c, 0, 68, 47
1, 21111, Note_on_c, 0, 63, 35
1, 21112, Note_on_c, 0, 43, 24
1, 21113, Note_on_c, 0, 59, 38
1, 21114, Note_on_c, 0, 53, 24
1, 21114, Note_on_c, 0, 65, 31
1, 21115, Control_c, 0, 64, 0
1, 21127, Control_c, 0, 64, 127
1, 21141, Note_on_c, 0, 59, 0
1, 21144, Note_on_c, 0, 65, 0
1, 21147, Note_on_c, 0, 63, 0
1, 21152, Note_on_c, 0, 68, 0
1, 21187, Note_on_c, 0, 82, 56
1, 21190, Note_on_c, 0, 70, 38
1, 21197, Note_on_c, 0, 70, 0
1, 21209, Note_on_c, 0, 82, 0
1, 21261, Note_on_c, 0, 94, 45
1, 21262, Note_on_c, 0, 82, 37
1, 21277, Note_on_c, 0, 82, 0
1, 21287, Note_on_c, 0, 94, 0
1, 21357, Note_on_c, 0, 106, 46
1, 21359, Note_on_c, 0, 94, 31
1, 21376, Note_on_c, 0, 94, 0
1, 21381, Note_on_c, 0, 106, 0
1, 21447, Note_on_c, 0, 53, 0
1, 21448, Note_on_c, 0, 43, 0
1, 21597, Note_on_c, 0, 36, 36
1, 21597, Note_on_c, 0, 67, 30
1, 21597, Note_on_c, 0, 43, 19
1, 21598, Note_on_c, 0, 57, 25
1, 21599, Note_on_c, 0, 62, 31
1, 21611, Control_c, 0, 64, 0
1, 21632, Control_c, 0, 64, 127
1, 21643, Note_on_c, 0, 57, 0
1, 21649, Note_on_c, 0, 62, 0
1, 21651, Note_on_c, 0, 36, 0
1, 21658, Note_on_c, 0, 43, 0
1, 21661, Note_on_c, 0, 67, 0
1, 21806, Note_on_c, 0, 68, 57
1, 21806, Note_on_c, 0, 71, 55
1, 21806, Note_on_c, 0, 79, 41
1, 21810, Note_on_c, 0, 67, 35
1, 21810, Note_on_c, 0, 74, 32
1, 21832, Note_on_c, 0, 74, 0
1, 21832, Note_on_c, 0, 71, 0
1, 21836, Note_on_c, 0, 68, 0
1, 21838, Note_on_c, 0, 79, 0
1, 21845, Note_on_c, 0, 67, 0
1, 21869, Note_on_c, 0, 81, 63
1, 21869, Note_on_c, 0, 73, 71
1, 21870, Note_on_c, 0, 70, 68
1, 21870, Note_on_c, 0, 76, 63
1, 21871, Note_on_c, 0, 69, 62
1, 21873, Control_c, 0, 64, 0
1, 21882, Control_c, 0, 64, 127
1, 21888, Note_on_c, 0, 70, 0
1, 21889, Note_on_c, 0, 73, 0
1, 21892, Note_on_c, 0, 81, 0
1, 21892, Note_on_c, 0, 76, 0
1, 21903, Note_on_c, 0, 69, 0
1, 21926, Note_on_c, 0, 73, 77
1, 21927, Note_on_c, 0, 84, 66
1, 21927, Note_on_c, 0, 76, 73
1, 21928, Note_on_c, 0, 79, 60
1, 21929, Note_on_c, 0, 72, 58
1, 21930, Note_on_c, 0, 82, 48
1, 21931, Control_c, 0, 64, 0
1, 21941, Control_c, 0, 64, 127
1, 21945, Note_on_c, 0, 76, 0
1, 21947, Note_on_c, 0, 79, 0
1, 21949, Note_on_c, 0, 73, 0
1, 21950, Note_on_c, 0, 84, 0
1, 21951, Note_on_c, 0, 82, 0
1, 21963, Note_on_c, 0, 72, 0
1, 21982, Note_on_c, 0, 78, 69
1, 21982, Note_on_c, 0, 86, 68
1, 21983, Note_on_c, 0, 75, 73
1, 21984, Note_on_c, 0, 74, 64
1, 21984, Control_c, 0, 64, 0
1, 21985, Note_on_c, 0, 81, 69
1, 21997, Control_c, 0, 64, 127
1, 22005, Note_on_c, 0, 81, 0
1, 22009, Note_on_c, 0, 75, 0
1, 22009, Note_on_c, 0, 78, 0
1, 22010, Note_on_c, 0, 86, 0
1, 22025, Note_on_c, 0, 74, 0
1, 22050, Note_on_c, 0, 88, 62
1, 22050, Note_on_c, 0, 77, 46
1, 22051, Note_on_c, 0, 80, 48
1, 22051, Note_on_c, 0, 83, 60
1, 22051, Note_on_c, 0, 76, 54
1, 22059, Control_c, 0, 64, 0
1, 22069, Control_c, 0, 64, 127
1, 22091, Note_on_c, 0, 77, 0
1, 22095, Note_on_c, 0, 83, 0
1, 22100, Note_on_c, 0, 76, 0
1, 22101, Note_on_c, 0, 80, 0
1, 22105, Note_on_c, 0, 88, 0
1, 22163, Note_on_c, 0, 95, 57
1, 22165, Note_on_c, 0, 85, 39
1, 22165, Note_on_c, 0, 83, 46
1, 22166, Note_on_c, 0, 88, 51
1, 22169, Note_on_c, 0, 91, 36
1, 22187, Note_on_c, 0, 95, 0
1, 22188, Note_on_c, 0, 83, 0
1, 22190, Note_on_c, 0, 91, 0
1, 22193, Note_on_c, 0, 88, 0
1, 22202, Note_on_c, 0, 85, 0
1, 22344, Note_on_c, 0, 91, 43
1, 22360, Note_on_c, 0, 91, 0
1, 22396, Note_on_c, 0, 93, 44
1, 22399, Note_on_c, 0, 54, 29
1, 22401, Note_on_c, 0, 81, 27
1, 22402, Note_on_c, 0, 86, 29
1, 22408, Control_c, 0, 64, 0
1, 22424, Control_c, 0, 64, 127
1, 22428, Note_on_c, 0, 93, 0
1, 22431, Note_on_c, 0, 86, 0
1, 22442, Note_on_c, 0, 81, 0
1, 22445, Note_on_c, 0, 60, 33
1, 22493, Note_on_c, 0, 64, 32
1, 22519, Note_on_c, 0, 64, 0
1, 22540, Note_on_c, 0, 74, 53
1, 22558, Note_on_c, 0, 54, 0
1, 22583, Note_on_c, 0, 74, 0
1, 22583, Note_on_c, 0, 60, 0
1, 22591, Note_on_c, 0, 71, 36
1, 22593, Note_on_c, 0, 67, 30
1, 22593, Note_on_c, 0, 63, 28
1, 22593, Note_on_c, 0, 53, 26
1, 22602, Control_c, 0, 64, 0
1, 22630, Control_c, 0, 64, 127
1, 22645, Note_on_c, 0, 59, 44
1, 22652, Note_on_c, 0, 67, 0
1, 22659, Note_on_c, 0, 71, 0
1, 22669, Note_on_c, 0, 63, 0
1, 22707, Note_on_c, 0, 67, 62
1, 22727, Note_on_c, 0, 67, 0
1, 22755, Note_on_c, 0, 59, 0
1, 22778, Note_on_c, 0, 53, 0
1, 22825, Note_on_c, 0, 65, 22
1, 22841, Note_on_c, 0, 65, 0
1, 22962, Note_on_c, 0, 60, 49
1, 22962, Note_on_c, 0, 55, 35
1, 22963, Note_on_c, 0, 64, 38
1, 22963, Note_on_c, 0, 40, 24
1, 22965, Note_on_c, 0, 48, 25
1, 22967, Note_on_c, 0, 52, 22
1, 22970, Control_c, 0, 64, 0
1, 22985, Control_c, 0, 64, 127
1, 22987, Note_on_c, 0, 55, 0
1, 22996, Note_on_c, 0, 60, 0
1, 22999, Note_on_c, 0, 64, 0
1, 23005, Note_on_c, 0, 40, 0
1, 23011, Note_on_c, 0, 52, 0
1, 23013, Note_on_c, 0, 48, 0
1, 23041, Note_on_c, 0, 72, 65
1, 23057, Note_on_c, 0, 72, 0
1, 23104, Note_on_c, 0, 48, 30
1, 23105, Note_on_c, 0, 69, 64
1, 23106, Note_on_c, 0, 41, 24
1, 23108, Note_on_c, 0, 64, 59
1, 23110, Note_on_c, 0, 57, 37
1, 23114, Control_c, 0, 64, 0
1, 23138, Control_c, 0, 64, 127
1, 23165, Note_on_c, 0, 69, 0
1, 23169, Note_on_c, 0, 64, 0
1, 23183, Note_on_c, 0, 41, 0
1, 23186, Note_on_c, 0, 65, 71
1, 23190, Note_on_c, 0, 48, 0
1, 23202, Note_on_c, 0, 57, 0
1, 23237, Note_on_c, 0, 65, 0
1, 23238, Note_on_c, 0, 64, 60
1, 23254, Note_on_c, 0, 64, 0
1, 23312, Note_on_c, 0, 62, 46
1, 23314, Note_on_c, 0, 47, 40
1, 23316, Note_on_c, 0, 57, 27
1, 23316, Control_c, 0, 64, 0
1, 23329, Control_c, 0, 64, 127
1, 23339, Note_on_c, 0, 57, 0
1, 23345, Note_on_c, 0, 47, 0
1, 23357, Note_on_c, 0, 62, 0
1, 23428, Note_on_c, 0, 64, 28
1, 23436, Note_on_c, 0, 64, 0
1, 23444, Note_on_c, 0, 65, 36
1, 23449, Note_on_c, 0, 65, 0
1, 23453, Control_c, 0, 64, 0
1, 23456, Note_on_c, 0, 67, 34
1, 23463, Note_on_c, 0, 67, 0
1, 23469, Note_on_c, 0, 69, 43
1, 23475, Note_on_c, 0, 69, 0
1, 23480, Note_on_c, 0, 71, 40
1, 23486, Note_on_c, 0, 71, 0
1, 23493, Note_on_c, 0, 72, 43
1, 23493, Control_c, 0, 64, 127
1, 23498, Note_on_c, 0, 72, 0
1, 23502, Note_on_c, 0, 74, 34
1, 23509, Note_on_c, 0, 74, 0
1, 23512, Note_on_c, 0, 76, 36
1, 23519, Note_on_c, 0, 76, 0
1, 23524, Note_on_c, 0, 77, 42
1, 23529, Note_on_c, 0, 77, 0
1, 23534, Note_on_c, 0, 79, 33
1, 23540, Note_on_c, 0, 79, 0
1, 23545, Note_on_c, 0, 81, 40
1, 23550, Note_on_c, 0, 81, 0
1, 23555, Note_on_c, 0, 83, 45
1, 23560, Note_on_c, 0, 83, 0
1, 23565, Note_on_c, 0, 84, 49
1, 23570, Note_on_c, 0, 84, 0
1, 23575, Note_on_c, 0, 86, 45
1, 23580, Note_on_c, 0, 86, 0
1, 23586, Note_on_c, 0, 88, 40
1, 23596, Note_on_c, 0, 67, 44
1, 23597, Note_on_c, 0, 62, 41
1, 23597, Note_on_c, 0, 56, 44
1, 23598, Control_c, 0, 64, 0
1, 23646, Control_c, 0, 64, 127
1, 23668, Note_on_c, 0, 67, 0
1, 23759, Note_on_c, 0, 86, 59
1, 23801, Note_on_c, 0, 88, 0
1, 23802, Note_on_c, 0, 86, 0
1, 23805, Note_on_c, 0, 83, 54
1, 23810, Note_on_c, 0, 62, 0
1, 23824, Note_on_c, 0, 56, 0
1, 23840, Note_on_c, 0, 83, 0
1, 23843, Note_on_c, 0, 84, 78
1, 23896, Note_on_c, 0, 45, 54
1, 23902, Control_c, 0, 64, 0
1, 23910, Control_c, 0, 64, 127
1, 23940, Note_on_c, 0, 82, 76
1, 23946, Note_on_c, 0, 45, 0
1, 23959, Note_on_c, 0, 84, 0
1, 23966, Note_on_c, 0, 82, 0
1, 23969, Note_on_c, 0, 77, 71
1, 23991, Note_on_c, 0, 77, 0
1, 23992, Note_on_c, 0, 73, 64
1, 24005, Note_on_c, 0, 73, 0
1, 24024, Note_on_c, 0, 72, 48
1, 24045, Note_on_c, 0, 72, 0
1, 24050, Note_on_c, 0, 70, 59
1, 24070, Note_on_c, 0, 70, 0
1, 24087, Note_on_c, 0, 69, 46
1, 24088, Note_on_c, 0, 66, 30
1, 24090, Note_on_c, 0, 61, 35
1, 24092, Note_on_c, 0, 55, 32
1, 24092, Control_c, 0, 64, 0
1, 24121, Control_c, 0, 64, 127
1, 24128, Note_on_c, 0, 69, 0
1, 24130, Note_on_c, 0, 67, 38
1, 24137, Note_on_c, 0, 66, 0
1, 24170, Note_on_c, 0, 67, 0
1, 24177, Note_on_c, 0, 65, 48
1, 24203, Note_on_c, 0, 61, 0
1, 24212, Note_on_c, 0, 55, 0
1, 24227, Note_on_c, 0, 65, 0
1, 24228, Note_on_c, 0, 64, 45
1, 24300, Note_on_c, 0, 61, 50
1, 24307, Note_on_c, 0, 64, 0
1, 24321, Note_on_c, 0, 61, 0
1, 24325, Note_on_c, 0, 64, 48
1, 24354, Note_on_c, 0, 64, 0
1, 24362, Note_on_c, 0, 62, 51
1, 24365, Note_on_c, 0, 57, 24
1, 24366, Note_on_c, 0, 50, 35
1, 24370, Control_c, 0, 64, 0
1, 24397, Control_c, 0, 64, 127
1, 24409, Note_on_c, 0, 62, 0
1, 24411, Note_on_c, 0, 57, 0
1, 24428, Note_on_c, 0, 57, 24
1, 24430, Note_on_c, 0, 69, 69
1, 24433, Note_on_c, 0, 65, 60
1, 24472, Note_on_c, 0, 50, 0
1, 24491, Note_on_c, 0, 65, 0
1, 24491, Note_on_c, 0, 69, 0
1, 24498, Note_on_c, 0, 60, 58
1, 24499, Note_on_c, 0, 48, 39
1, 24500, Note_on_c, 0, 67, 49
1, 24500, Note_on_c, 0, 64, 41
1, 24504, Control_c, 0, 64, 0
1, 24526, Control_c, 0, 64, 127
1, 24536, Note_on_c, 0, 60, 0
1, 24539, Note_on_c, 0, 64, 0
1, 24540, Note_on_c, 0, 67, 0
1, 24545, Note_on_c, 0, 65, 67
1, 24551, Note_on_c, 0, 57, 0
1, 24567, Note_on_c, 0, 65, 0
1, 24576, Note_on_c, 0, 48, 0
1, 24616, Note_on_c, 0, 64, 55
1, 24618, Note_on_c, 0, 57, 44
1, 24618, Note_on_c, 0, 61, 43
1, 24618, Note_on_c, 0, 47, 45
1, 24620, Control_c, 0, 64, 0
1, 24647, Control_c, 0, 64, 127
1, 24667, Note_on_c, 0, 61, 0
1, 24681, Note_on_c, 0, 62, 58
1, 24695, Note_on_c, 0, 64, 0
1, 24706, Note_on_c, 0, 62, 0
1, 24707, Note_on_c, 0, 57, 0
1, 24713, Note_on_c, 0, 47, 0
1, 24752, Note_on_c, 0, 67, 45
1, 24753, Note_on_c, 0, 64, 46
1, 24754, Note_on_c, 0, 46, 36
1, 24755, Note_on_c, 0, 60, 64
1, 24756, Note_on_c, 0, 55, 30
1, 24762, Control_c, 0, 64, 0
1, 24789, Control_c, 0, 64, 127
1, 24793, Note_on_c, 0, 64, 0
1, 24796, Note_on_c, 0, 67, 0
1, 24823, Note_on_c, 0, 55, 0
1, 24824, Note_on_c, 0, 64, 56
1, 24837, Note_on_c, 0, 60, 0
1, 24841, Note_on_c, 0, 64, 0
1, 24858, Note_on_c, 0, 46, 0
1, 24903, Note_on_c, 0, 60, 55
1, 24904, Note_on_c, 0, 55, 34
1, 24904, Note_on_c, 0, 45, 37
1, 24905, Note_on_c, 0, 57, 37
1, 24909, Control_c, 0, 64, 0
1, 24933, Control_c, 0, 64, 127
1, 24974, Note_on_c, 0, 60, 0
1, 24987, Note_on_c, 0, 45, 0
1, 24998, Note_on_c, 0, 57, 0
1, 25004, Note_on_c, 0, 55, 0
1, 25175, Note_on_c, 0, 39, 47
1, 25205, Note_on_c, 0, 39, 0
1, 25250, Note_on_c, 0, 57, 40
1, 25252, Control_c, 0, 64, 0
1, 25255, Note_on_c, 0, 38, 38
1, 25259, Note_on_c, 0, 52, 15
1, 25259, Note_on_c, 0, 55, 24
1, 25272, Note_on_c, 0, 52, 0
1, 25277, Note_on_c, 0, 55, 0
1, 25278, Note_on_c, 0, 57, 0
1, 25279, Control_c, 0, 64, 127
1, 25304, Note_on_c, 0, 38, 0
1, 25315, Note_on_c, 0, 74, 62
1, 25373, Note_on_c, 0, 67, 39
1, 25376, Note_on_c, 0, 64, 35
1, 25377, Note_on_c, 0, 62, 35
1, 25378, Note_on_c, 0, 69, 29
1, 25427, Note_on_c, 0, 67, 0
1, 25433, Note_on_c, 0, 50, 42
1, 25435, Note_on_c, 0, 74, 0
1, 25436, Note_on_c, 0, 69, 0
1, 25450, Note_on_c, 0, 64, 0
1, 25451, Note_on_c, 0, 62, 0
1, 25481, Note_on_c, 0, 50, 0
1, 25513, Note_on_c, 0, 68, 42
1, 25517, Note_on_c, 0, 63, 37
1, 25517, Note_on_c, 0, 60, 29
1, 25518, Note_on_c, 0, 50, 36
1, 25518, Note_on_c, 0, 66, 35
1, 25530, Control_c, 0, 64, 0
1, 25556, Control_c, 0, 64, 127
1, 25597, Note_on_c, 0, 57, 30
1, 25635, Note_on_c, 0, 60, 0
1, 25653, Note_on_c, 0, 66, 0
1, 25653, Note_on_c, 0, 63, 0
1, 25656, Note_on_c, 0, 68, 0
1, 25679, Note_on_c, 0, 57, 0
1, 25684, Note_on_c, 0, 63, 38
1, 25684, Note_on_c, 0, 66, 36
1, 25687, Note_on_c, 0, 69, 40
1, 25689, Note_on_c, 0, 60, 30
1, 25747, Note_on_c, 0, 60, 0
1, 25747, Note_on_c, 0, 50, 0
1, 25794, Note_on_c, 0, 50, 44
1, 25810, Note_on_c, 0, 69, 0
1, 25813, Note_on_c, 0, 50, 0
1, 25844, Note_on_c, 0, 63, 0
1, 25847, Note_on_c, 0, 66, 0
1, 26031, Note_on_c, 0, 65, 49
1, 26033, Note_on_c, 0, 43, 32
1, 26034, Note_on_c, 0, 57, 28
1, 26034, Note_on_c, 0, 60, 48
1, 26034, Note_on_c, 0, 62, 36
1, 26036, Note_on_c, 0, 50, 30
1, 26039, Note_on_c, 0, 55, 25
1, 26046, Control_c, 0, 64, 0
1, 26072, Control_c, 0, 64, 127
1, 26100, Note_on_c, 0, 43, 0
1, 26110, Note_on_c, 0, 43, 54
1, 26129, Note_on_c, 0, 65, 0
1, 26140, Note_on_c, 0, 62, 0
1, 26145, Note_on_c, 0, 57, 0
1, 26152, Note_on_c, 0, 55, 0
1, 26158, Note_on_c, 0, 60, 0
1, 26174, Note_on_c, 0, 67, 61
1, 26174, Note_on_c, 0, 60, 57
1, 26176, Note_on_c, 0, 55, 39
1, 26177, Note_on_c, 0, 57, 38
1, 26199, Note_on_c, 0, 60, 0
1, 26201, Note_on_c, 0, 57, 0
1, 26203, Note_on_c, 0, 67, 0
1, 26212, Note_on_c, 0, 43, 0
1, 26235, Note_on_c, 0, 43, 50
1, 26238, Note_on_c, 0, 69, 69
1, 26274, Note_on_c, 0, 69, 0
1, 26280, Note_on_c, 0, 43, 0
1, 26285, Note_on_c, 0, 55, 0
1, 26296, Note_on_c, 0, 50, 0
1, 26320, Note_on_c, 0, 68, 38
1, 26321, Note_on_c, 0, 43, 36
1, 26323, Note_on_c, 0, 59, 31
1, 26324, Note_on_c, 0, 63, 36
1, 26325, Note_on_c, 0, 53, 31
1, 26325, Note_on_c, 0, 65, 37
1, 26329, Control_c, 0, 64, 0
1, 26357, Control_c, 0, 64, 127
1, 26395, Note_on_c, 0, 43, 0
1, 26413, Note_on_c, 0, 43, 32
1, 26455, Note_on_c, 0, 53, 0
1, 26461, Note_on_c, 0, 59, 0
1, 26466, Note_on_c, 0, 65, 0
1, 26467, Note_on_c, 0, 68, 0
1, 26470, Note_on_c, 0, 63, 0
1, 26519, Note_on_c, 0, 70, 39
1, 26520, Note_on_c, 0, 63, 34
1, 26521, Note_on_c, 0, 59, 33
1, 26521, Note_on_c, 0, 53, 33
1, 26524, Note_on_c, 0, 65, 27
1, 26712, Note_on_c, 0, 43, 0
1, 26722, Note_on_c, 0, 53, 0
1, 26791, Note_on_c, 0, 70, 0
1, 26796, Note_on_c, 0, 65, 0
1, 26806, Note_on_c, 0, 68, 36
1, 26835, Note_on_c, 0, 59, 0
1, 26849, Note_on_c, 0, 68, 0
1, 26880, Note_on_c, 0, 63, 0
1, 26939, Note_on_c, 0, 36, 29
1, 26941, Note_on_c, 0, 43, 20
1, 26943, Note_on_c, 0, 67, 38
1, 26944, Note_on_c, 0, 62, 32
1, 26944, Note_on_c, 0, 57, 25
1, 26946, Note_on_c, 0, 52, 28
1, 26950, Control_c, 0, 64, 0
1, 26973, Control_c, 0, 64, 127
1, 26980, Note_on_c, 0, 57, 0
1, 26982, Note_on_c, 0, 36, 0
1, 26989, Note_on_c, 0, 43, 0
1, 26997, Note_on_c, 0, 62, 0
1, 27002, Note_on_c, 0, 52, 0
1, 27018, Note_on_c, 0, 67, 0
1, 27063, Note_on_c, 0, 67, 65
1, 27118, Note_on_c, 0, 64, 26
1, 27121, Note_on_c, 0, 60, 36
1, 27122, Note_on_c, 0, 59, 31
1, 27179, Note_on_c, 0, 69, 59
1, 27196, Note_on_c, 0, 67, 0
1, 27205, Note_on_c, 0, 69, 0
1, 27227, Note_on_c, 0, 72, 88
1, 27242, Note_on_c, 0, 64, 0
1, 27248, Note_on_c, 0, 59, 0
1, 27258, Note_on_c, 0, 60, 0
1, 27265, Note_on_c, 0, 72, 0
1, 27281, Note_on_c, 0, 74, 84
1, 27284, Note_on_c, 0, 57, 33
1, 27285, Note_on_c, 0, 64, 25
1, 27285, Note_on_c, 0, 60, 47
1, 27287, Control_c, 0, 64, 0
1, 27311, Control_c, 0, 64, 127
1, 27326, Note_on_c, 0, 74, 0
1, 27333, Note_on_c, 0, 76, 63
1, 27383, Note_on_c, 0, 64, 0
1, 27391, Note_on_c, 0, 76, 0
1, 27392, Note_on_c, 0, 57, 0
1, 27394, Note_on_c, 0, 60, 0
1, 27450, Note_on_c, 0, 55, 34
1, 27452, Note_on_c, 0, 64, 26
1, 27455, Note_on_c, 0, 60, 39
1, 27513, Note_on_c, 0, 83, 79
1, 27564, Note_on_c, 0, 64, 0
1, 27567, Note_on_c, 0, 55, 0
1, 27567, Note_on_c, 0, 60, 0
1, 27569, Note_on_c, 0, 83, 0
1, 27599, Note_on_c, 0, 79, 41
1, 27612, Note_on_c, 0, 79, 0
1, 27636, Note_on_c, 0, 81, 53
1, 27637, Note_on_c, 0, 69, 37
1, 27637, Note_on_c, 0, 64, 27
1, 27640, Control_c, 0, 64, 0
1, 27640, Note_on_c, 0, 60, 27
1, 27641, Note_on_c, 0, 54, 29
1, 27662, Control_c, 0, 64, 127
1, 27678, Note_on_c, 0, 64, 0
1, 27679, Note_on_c, 0, 60, 0
1, 27687, Note_on_c, 0, 81, 0
1, 27692, Note_on_c, 0, 54, 0
1, 27707, Note_on_c, 0, 69, 0
1, 27804, Note_on_c, 0, 42, 30
1, 27807, Note_on_c, 0, 57, 36
1, 27810, Note_on_c, 0, 52, 22
1, 27827, Note_on_c, 0, 57, 0
1, 27831, Note_on_c, 0, 52, 0
1, 27835, Note_on_c, 0, 42, 0
1, 27930, Note_on_c, 0, 74, 55
1, 27955, Note_on_c, 0, 74, 0
1, 27984, Note_on_c, 0, 63, 37
1, 27984, Note_on_c, 0, 48, 20
1, 27985, Control_c, 0, 64, 0
1, 27987, Note_on_c, 0, 71, 31
1, 27988, Note_on_c, 0, 67, 32
1, 27988, Note_on_c, 0, 57, 32
1, 27990, Note_on_c, 0, 41, 19
1, 28006, Control_c, 0, 64, 127
1, 28009, Note_on_c, 0, 63, 0
1, 28010, Note_on_c, 0, 67, 0
1, 28017, Note_on_c, 0, 71, 0
1, 28037, Note_on_c, 0, 41, 0
1, 28041, Note_on_c, 0, 48, 0
1, 28054, Note_on_c, 0, 57, 0
1, 28064, Note_on_c, 0, 86, 66
1, 28066, Note_on_c, 0, 79, 71
1, 28088, Note_on_c, 0, 86, 0
1, 28090, Note_on_c, 0, 79, 0
1, 28095, Note_on_c, 0, 83, 53
1, 28098, Note_on_c, 0, 74, 43
1, 28110, Note_on_c, 0, 83, 0
1, 28119, Note_on_c, 0, 74, 0
1, 28168, Note_on_c, 0, 63, 27
1, 28169, Note_on_c, 0, 67, 28
1, 28170, Note_on_c, 0, 57, 35
1, 28170, Note_on_c, 0, 62, 31
1, 28202, Note_on_c, 0, 67, 0
1, 28204, Note_on_c, 0, 62, 0
1, 28209, Note_on_c, 0, 63, 0
1, 28214, Note_on_c, 0, 57, 0
1, 28277, Note_on_c, 0, 71, 60
1, 28278, Note_on_c, 0, 79, 69
1, 28299, Note_on_c, 0, 71, 0
1, 28302, Note_on_c, 0, 79, 0
1, 28320, Note_on_c, 0, 76, 53
1, 28320, Note_on_c, 0, 67, 1
1, 28331, Note_on_c, 0, 67, 0
1, 28345, Note_on_c, 0, 76, 0
1, 28352, Note_on_c, 0, 67, 22
1, 28358, Note_on_c, 0, 67, 0
1, 28371, Note_on_c, 0, 65, 22
1, 28377, Note_on_c, 0, 65, 0
1, 28396, Note_on_c, 0, 72, 40
1, 28396, Control_c, 0, 64, 0
1, 28396, Note_on_c, 0, 64, 31
1, 28397, Note_on_c, 0, 43, 33
1, 28398, Note_on_c, 0, 52, 30
1, 28400, Note_on_c, 0, 67, 28
1, 28423, Control_c, 0, 64, 127
1, 28452, Note_on_c, 0, 43, 0
1, 28461, Note_on_c, 0, 52, 0
1, 28487, Note_on_c, 0, 64, 0
1, 28488, Note_on_c, 0, 67, 0
1, 28576, Note_on_c, 0, 67, 47
1, 28577, Note_on_c, 0, 64, 37
1, 28579, Note_on_c, 0, 60, 33
1, 28625, Note_on_c, 0, 64, 0
1, 28637, Note_on_c, 0, 72, 0
1, 28637, Note_on_c, 0, 52, 52
1, 28652, Note_on_c, 0, 67, 0
1, 28701, Note_on_c, 0, 76, 60
1, 28704, Note_on_c, 0, 52, 0
1, 28719, Note_on_c, 0, 60, 0
1, 28741, Note_on_c, 0, 76, 0
1, 28757, Note_on_c, 0, 69, 37
1, 28757, Note_on_c, 0, 72, 51
1, 28757, Note_on_c, 0, 64, 25
1, 28760, Note_on_c, 0, 53, 30
1, 28761, Note_on_c, 0, 60, 26
1, 28762, Control_c, 0, 64, 0
1, 28788, Control_c, 0, 64, 127
1, 28799, Note_on_c, 0, 69, 0
1, 28805, Note_on_c, 0, 64, 0
1, 28815, Note_on_c, 0, 72, 0
1, 28863, Note_on_c, 0, 84, 82
1, 28877, Note_on_c, 0, 84, 0
1, 28906, Note_on_c, 0, 81, 71
1, 28909, Note_on_c, 0, 76, 64
1, 28923, Note_on_c, 0, 76, 0
1, 28925, Note_on_c, 0, 81, 0
1, 28949, Note_on_c, 0, 76, 60
1, 28951, Note_on_c, 0, 69, 55
1, 28951, Note_on_c, 0, 64, 20
1, 28969, Note_on_c, 0, 64, 0
1, 28982, Note_on_c, 0, 69, 0
1, 28986, Note_on_c, 0, 76, 0
1, 28992, Note_on_c, 0, 72, 54
1, 28995, Note_on_c, 0, 64, 43
1, 28999, Note_on_c, 0, 53, 0
1, 29011, Note_on_c, 0, 64, 0
1, 29012, Note_on_c, 0, 72, 0
1, 29035, Note_on_c, 0, 64, 38
1, 29039, Note_on_c, 0, 53, 26
1, 29043, Note_on_c, 0, 60, 0
1, 29050, Note_on_c, 0, 53, 0
1, 29054, Note_on_c, 0, 64, 0
1, 29074, Note_on_c, 0, 60, 39
1, 29081, Note_on_c, 0, 60, 0
1, 29122, Note_on_c, 0, 57, 24
1, 29123, Note_on_c, 0, 61, 44
1, 29125, Control_c, 0, 64, 0
1, 29125, Note_on_c, 0, 47, 31
1, 29140, Note_on_c, 0, 57, 0
1, 29146, Note_on_c, 0, 61, 0
1, 29146, Control_c, 0, 64, 127
1, 29162, Note_on_c, 0, 47, 0
1, 29174, Note_on_c, 0, 76, 72
1, 29217, Note_on_c, 0, 76, 0
1, 29227, Note_on_c, 0, 73, 67
1, 29229, Note_on_c, 0, 69, 69
1, 29233, Note_on_c, 0, 66, 67
1, 29237, Note_on_c, 0, 62, 32
1, 29241, Note_on_c, 0, 64, 32
1, 29265, Note_on_c, 0, 64, 0
1, 29269, Note_on_c, 0, 62, 0
1, 29273, Note_on_c, 0, 69, 0
1, 29274, Note_on_c, 0, 66, 0
1, 29286, Note_on_c, 0, 73, 0
1, 29295, Note_on_c, 0, 67, 57
1, 29295, Note_on_c, 0, 62, 55
1, 29295, Note_on_c, 0, 72, 62
1, 29296, Note_on_c, 0, 56, 49
1, 29304, Control_c, 0, 64, 0
1, 29334, Control_c, 0, 64, 127
1, 29371, Note_on_c, 0, 74, 67
1, 29381, Note_on_c, 0, 67, 0
1, 29387, Note_on_c, 0, 72, 0
1, 29399, Note_on_c, 0, 74, 0
1, 29415, Note_on_c, 0, 62, 0
1, 29418, Note_on_c, 0, 84, 92
1, 29448, Note_on_c, 0, 56, 0
1, 29468, Note_on_c, 0, 65, 47
1, 29469, Note_on_c, 0, 61, 39
1, 29470, Note_on_c, 0, 55, 39
1, 29471, Note_on_c, 0, 60, 38
1, 29474, Control_c, 0, 64, 0
1, 29498, Control_c, 0, 64, 127
1, 29525, Note_on_c, 0, 65, 0
1, 29532, Note_on_c, 0, 60, 0
1, 29534, Note_on_c, 0, 61, 0
1, 29538, Note_on_c, 0, 55, 0
1, 29548, Note_on_c, 0, 82, 68
1, 29562, Note_on_c, 0, 84, 0
1, 29593, Note_on_c, 0, 45, 59
1, 29601, Note_on_c, 0, 45, 0
1, 29650, Note_on_c, 0, 65, 64
1, 29651, Note_on_c, 0, 60, 60
1, 29652, Note_on_c, 0, 61, 44
1, 29653, Note_on_c, 0, 55, 51
1, 29659, Control_c, 0, 64, 0
1, 29669, Control_c, 0, 64, 127
1, 29720, Note_on_c, 0, 65, 0
1, 29725, Note_on_c, 0, 60, 0
1, 29727, Note_on_c, 0, 61, 0
1, 29732, Note_on_c, 0, 55, 0
1, 29762, Note_on_c, 0, 82, 0
1, 29771, Note_on_c, 0, 81, 57
1, 29787, Note_on_c, 0, 81, 0
1, 29805, Note_on_c, 0, 77, 25
1, 29823, Note_on_c, 0, 77, 0
1, 29834, Note_on_c, 0, 38, 40
1, 29836, Note_on_c, 0, 79, 57
1, 29836, Note_on_c, 0, 45, 29
1, 29840, Note_on_c, 0, 53, 38
1, 29840, Control_c, 0, 64, 0
1, 29871, Control_c, 0, 64, 127
1, 29871, Note_on_c, 0, 76, 32
1, 29873, Note_on_c, 0, 79, 0
1, 29887, Note_on_c, 0, 76, 0
1, 29896, Note_on_c, 0, 38, 0
1, 29902, Note_on_c, 0, 77, 55
1, 29903, Note_on_c, 0, 45, 0
1, 29918, Note_on_c, 0, 53, 0
1, 30009, Note_on_c, 0, 60, 24
1, 30010, Note_on_c, 0, 57, 29
1, 30011, Note_on_c, 0, 50, 24
1, 30013, Note_on_c, 0, 53, 24
1, 30060, Note_on_c, 0, 53, 0
1, 30063, Note_on_c, 0, 57, 0
1, 30064, Note_on_c, 0, 50, 0
1, 30065, Note_on_c, 0, 60, 0
1, 30129, Note_on_c, 0, 77, 0
1, 30198, Note_on_c, 0, 76, 91
1, 30202, Note_on_c, 0, 66, 67
1, 30203, Note_on_c, 0, 73, 75
1, 30203, Note_on_c, 0, 69, 80
1, 30204, Note_on_c, 0, 64, 53
1, 30204, Note_on_c, 0, 62, 40
1, 30207, Control_c, 0, 64, 0
1, 30239, Control_c, 0, 64, 127
1, 30267, Note_on_c, 0, 76, 0
1, 30277, Note_on_c, 0, 73, 0
1, 30279, Note_on_c, 0, 76, 60
1, 30309, Note_on_c, 0, 76, 0
1, 30318, Note_on_c, 0, 69, 0
1, 30332, Note_on_c, 0, 76, 66
1, 30339, Note_on_c, 0, 64, 0
1, 30341, Note_on_c, 0, 66, 0
1, 30345, Note_on_c, 0, 62, 0
1, 30357, Note_on_c, 0, 74, 45
1, 30360, Note_on_c, 0, 76, 0
1, 30372, Note_on_c, 0, 74, 0
1, 30389, Note_on_c, 0, 79, 66
1, 30392, Note_on_c, 0, 67, 37
1, 30392, Note_on_c, 0, 62, 34
1, 30393, Note_on_c, 0, 73, 34
1, 30394, Note_on_c, 0, 72, 47
1, 30394, Note_on_c, 0, 56, 39
1, 30397, Control_c, 0, 64, 0
1, 30408, Note_on_c, 0, 73, 0
1, 30426, Control_c, 0, 64, 127
1, 30481, Note_on_c, 0, 62, 0
1, 30496, Note_on_c, 0, 56, 0
1, 30500, Note_on_c, 0, 72, 0
1, 30505, Note_on_c, 0, 67, 0
1, 30513, Note_on_c, 0, 79, 0
1, 30521, Note_on_c, 0, 76, 47
1, 30540, Note_on_c, 0, 76, 0
1, 30557, Note_on_c, 0, 72, 36
1, 30580, Control_c, 0, 64, 0
1, 30585, Note_on_c, 0, 72, 0
1, 30589, Note_on_c, 0, 71, 32
1, 30589, Note_on_c, 0, 45, 27
1, 30590, Note_on_c, 0, 52, 31
1, 30603, Control_c, 0, 64, 127
1, 30605, Note_on_c, 0, 45, 0
1, 30609, Note_on_c, 0, 52, 0
1, 30649, Note_on_c, 0, 71, 0
1, 30656, Note_on_c, 0, 74, 54
1, 30664, Note_on_c, 0, 64, 24
1, 30664, Note_on_c, 0, 60, 26
1, 30666, Note_on_c, 0, 55, 29
1, 30714, Note_on_c, 0, 59, 1
1, 30746, Note_on_c, 0, 55, 0
1, 30747, Note_on_c, 0, 60, 0
1, 30749, Note_on_c, 0, 59, 0
1, 30749, Note_on_c, 0, 64, 0
1, 30749, Note_on_c, 0, 71, 49
1, 30752, Note_on_c, 0, 74, 0
1, 30763, Note_on_c, 0, 71, 0
1, 30777, Note_on_c, 0, 72, 55
1, 30790, Note_on_c, 0, 72, 0
1, 30807, Note_on_c, 0, 60, 39
1, 30807, Note_on_c, 0, 65, 34
1, 30808, Control_c, 0, 64, 0
1, 30808, Note_on_c, 0, 61, 37
1, 30809, Note_on_c, 0, 55, 38
1, 30810, Note_on_c, 0, 77, 60
1, 30824, Note_on_c, 0, 77, 0
1, 30858, Note_on_c, 0, 84, 84
1, 30889, Control_c, 0, 64, 127
1, 30921, Note_on_c, 0, 65, 0
1, 30925, Note_on_c, 0, 61, 0
1, 30926, Note_on_c, 0, 60, 0
1, 30935, Note_on_c, 0, 55, 0
1, 30955, Note_on_c, 0, 82, 57
1, 30973, Note_on_c, 0, 84, 0
1, 30996, Note_on_c, 0, 82, 0
1, 31004, Note_on_c, 0, 76, 30
1, 31004, Control_c, 0, 64, 0
1, 31005, Note_on_c, 0, 81, 47
1, 31006, Note_on_c, 0, 38, 41
1, 31006, Note_on_c, 0, 50, 33
1, 31022, Control_c, 0, 64, 127
1, 31029, Note_on_c, 0, 38, 0
1, 31040, Note_on_c, 0, 50, 0
1, 31041, Note_on_c, 0, 81, 0
1, 31048, Note_on_c, 0, 76, 0
1, 31100, Note_on_c, 0, 64, 51
1, 31103, Note_on_c, 0, 55, 36
1, 31104, Note_on_c, 0, 60, 44
1, 31106, Note_on_c, 0, 59, 35
1, 31220, Note_on_c, 0, 55, 0
1, 31221, Note_on_c, 0, 64, 0
1, 31228, Note_on_c, 0, 59, 0
1, 31229, Note_on_c, 0, 60, 0
1, 31273, Note_on_c, 0, 64, 44
1, 31275, Note_on_c, 0, 60, 41
1, 31277, Note_on_c, 0, 59, 31
1, 31279, Note_on_c, 0, 54, 48
1, 31285, Control_c, 0, 64, 0
1, 31299, Control_c, 0, 64, 127
1, 31315, Note_on_c, 0, 64, 0
1, 31317, Note_on_c, 0, 59, 0
1, 31319, Note_on_c, 0, 60, 0
1, 31319, Note_on_c, 0, 54, 0
1, 31349, Note_on_c, 0, 76, 74
1, 31366, Note_on_c, 0, 76, 0
1, 31377, Note_on_c, 0, 79, 89
1, 31403, Note_on_c, 0, 79, 0
1, 31407, Control_c, 0, 64, 0
1, 31409, Note_on_c, 0, 77, 66
1, 31411, Note_on_c, 0, 60, 34
1, 31414, Note_on_c, 0, 57, 31
1, 31414, Note_on_c, 0, 50, 33
1, 31416, Note_on_c, 0, 53, 28
1, 31435, Control_c, 0, 64, 127
1, 31441, Note_on_c, 0, 77, 0
1, 31443, Note_on_c, 0, 69, 49
1, 31464, Note_on_c, 0, 69, 0
1, 31473, Note_on_c, 0, 76, 62
1, 31493, Note_on_c, 0, 53, 0
1, 31496, Note_on_c, 0, 50, 0
1, 31498, Note_on_c, 0, 76, 0
1, 31498, Note_on_c, 0, 57, 0
1, 31507, Note_on_c, 0, 60, 0
1, 31507, Note_on_c, 0, 72, 54
1, 31613, Note_on_c, 0, 65, 29
1, 31615, Note_on_c, 0, 60, 32
1, 31615, Note_on_c, 0, 57, 31
1, 31673, Note_on_c, 0, 65, 0
1, 31676, Note_on_c, 0, 60, 0
1, 31688, Note_on_c, 0, 57, 0
1, 31749, Note_on_c, 0, 72, 0
1, 31813, Note_on_c, 0, 43, 31
1, 31814, Control_c, 0, 64, 0
1, 31815, Note_on_c, 0, 50, 33
1, 31837, Control_c, 0, 64, 127
1, 31885, Note_on_c, 0, 43, 0
1, 31888, Note_on_c, 0, 82, 87
1, 31891, Note_on_c, 0, 50, 0
1, 31908, Note_on_c, 0, 82, 0
1, 31915, Note_on_c, 0, 80, 58
1, 31926, Note_on_c, 0, 80, 0
1, 31940, Note_on_c, 0, 82, 93
1, 31962, Note_on_c, 0, 80, 64
1, 31969, Note_on_c, 0, 82, 0
1, 31986, Note_on_c, 0, 75, 69
1, 31995, Note_on_c, 0, 80, 0
1, 32005, Note_on_c, 0, 75, 0
1, 32006, Control_c, 0, 64, 0
1, 32010, Note_on_c, 0, 59, 32
1, 32011, Note_on_c, 0, 64, 30
1, 32013, Note_on_c, 0, 71, 26
1, 32014, Note_on_c, 0, 53, 29
1, 32039, Note_on_c, 0, 71, 0
1, 32042, Note_on_c, 0, 70, 54
1, 32046, Control_c, 0, 64, 127
1, 32058, Note_on_c, 0, 70, 0
1, 32060, Control_c, 0, 64, 0
1, 32070, Control_c, 0, 64, 127
1, 32075, Note_on_c, 0, 68, 58
1, 32080, Note_on_c, 0, 64, 0
1, 32095, Note_on_c, 0, 68, 0
1, 32103, Note_on_c, 0, 67, 34
1, 32115, Note_on_c, 0, 67, 0
1, 32130, Note_on_c, 0, 65, 45
1, 32145, Note_on_c, 0, 65, 0
1, 32151, Note_on_c, 0, 59, 0
1, 32153, Note_on_c, 0, 53, 0
1, 32158, Note_on_c, 0, 62, 28
1, 32170, Note_on_c, 0, 62, 0
1, 32184, Note_on_c, 0, 63, 30
1, 32191, Note_on_c, 0, 63, 0
1, 32209, Note_on_c, 0, 62, 30
1, 32210, Note_on_c, 0, 52, 38
1, 32213, Control_c, 0, 64, 0
1, 32213, Note_on_c, 0, 59, 22
1, 32215, Note_on_c, 0, 64, 30
1, 32239, Control_c, 0, 64, 127
1, 32243, Note_on_c, 0, 64, 0
1, 32247, Note_on_c, 0, 67, 43
1, 32255, Note_on_c, 0, 67, 0
1, 32280, Note_on_c, 0, 72, 76
1, 32292, Note_on_c, 0, 72, 0
1, 32303, Note_on_c, 0, 52, 0
1, 32306, Note_on_c, 0, 59, 0
1, 32310, Note_on_c, 0, 62, 0
1, 32310, Note_on_c, 0, 76, 87
1, 32328, Note_on_c, 0, 76, 0
1, 32339, Note_on_c, 0, 79, 88
1, 32354, Note_on_c, 0, 79, 0
1, 32370, Note_on_c, 0, 84, 101
1, 32397, Note_on_c, 0, 84, 0
1, 32404, Note_on_c, 0, 65, 43
1, 32405, Note_on_c, 0, 82, 67
1, 32405, Note_on_c, 0, 61, 45
1, 32407, Note_on_c, 0, 55, 46
1, 32410, Note_on_c, 0, 60, 22
1, 32411, Control_c, 0, 64, 0
1, 32446, Control_c, 0, 64, 127
1, 32451, Note_on_c, 0, 73, 55
1, 32531, Note_on_c, 0, 60, 0
1, 32538, Note_on_c, 0, 65, 0
1, 32541, Note_on_c, 0, 55, 0
1, 32552, Note_on_c, 0, 61, 0
1, 32577, Note_on_c, 0, 73, 0
1, 32584, Note_on_c, 0, 82, 0
1, 32591, Note_on_c, 0, 53, 29
1, 32594, Note_on_c, 0, 72, 44
1, 32594, Note_on_c, 0, 60, 31
1, 32594, Note_on_c, 0, 57, 34
1, 32594, Control_c, 0, 64, 0
1, 32595, Note_on_c, 0, 64, 26
1, 32620, Control_c, 0, 64, 127
1, 32626, Note_on_c, 0, 72, 0
1, 32629, Note_on_c, 0, 77, 56
1, 32646, Note_on_c, 0, 77, 0
1, 32655, Note_on_c, 0, 81, 76
1, 32674, Note_on_c, 0, 81, 0
1, 32681, Note_on_c, 0, 84, 79
1, 32692, Note_on_c, 0, 64, 0
1, 32695, Note_on_c, 0, 84, 0
1, 32695, Note_on_c, 0, 60, 0
1, 32697, Note_on_c, 0, 53, 0
1, 32707, Note_on_c, 0, 57, 0
1, 32709, Note_on_c, 0, 88, 85
1, 32725, Note_on_c, 0, 88, 0
1, 32737, Note_on_c, 0, 91, 61
1, 32738, Note_on_c, 0, 89, 77
1, 32738, Note_on_c, 0, 79, 66
1, 32742, Note_on_c, 0, 89, 0
1, 32749, Note_on_c, 0, 79, 0
1, 32750, Note_on_c, 0, 91, 0
1, 32768, Note_on_c, 0, 92, 71
1, 32768, Note_on_c, 0, 80, 64
1, 32770, Note_on_c, 0, 64, 48
1, 32772, Note_on_c, 0, 59, 42
1, 32773, Control_c, 0, 64, 0
1, 32775, Note_on_c, 0, 53, 34
1, 32791, Note_on_c, 0, 80, 0
1, 32793, Note_on_c, 0, 92, 0
1, 32806, Control_c, 0, 64, 127
1, 32807, Note_on_c, 0, 94, 71
1, 32809, Note_on_c, 0, 82, 42
1, 32826, Note_on_c, 0, 94, 0
1, 32827, Note_on_c, 0, 82, 0
1, 32840, Note_on_c, 0, 80, 44
1, 32842, Note_on_c, 0, 92, 37
1, 32854, Note_on_c, 0, 80, 0
1, 32855, Note_on_c, 0, 92, 0
1, 32870, Note_on_c, 0, 64, 0
1, 32870, Note_on_c, 0, 94, 62
1, 32870, Note_on_c, 0, 82, 46
1, 32874, Note_on_c, 0, 59, 0
1, 32882, Note_on_c, 0, 53, 0
1, 32883, Note_on_c, 0, 94, 0
1, 32884, Note_on_c, 0, 82, 0
1, 32899, Note_on_c, 0, 92, 38
1, 32899, Note_on_c, 0, 80, 36
1, 32910, Note_on_c, 0, 80, 0
1, 32912, Note_on_c, 0, 92, 0
1, 32930, Note_on_c, 0, 94, 63
1, 32931, Note_on_c, 0, 82, 51
1, 32941, Note_on_c, 0, 94, 0
1, 32942, Note_on_c, 0, 82, 0
1, 32958, Note_on_c, 0, 92, 39
1, 32959, Note_on_c, 0, 80, 37
1, 32969, Note_on_c, 0, 80, 0
1, 32969, Note_on_c, 0, 92, 0
1, 32986, Note_on_c, 0, 36, 43
1, 32987, Note_on_c, 0, 94, 72
1, 32988, Note_on_c, 0, 43, 31
1, 32988, Note_on_c, 0, 82, 58
1, 32992, Control_c, 0, 64, 0
1, 32992, Note_on_c, 0, 52, 43
1, 33003, Note_on_c, 0, 82, 0
1, 33004, Note_on_c, 0, 95, 44
1, 33010, Note_on_c, 0, 95, 0
1, 33015, Note_on_c, 0, 94, 0
1, 33021, Control_c, 0, 64, 127
1, 33033, Note_on_c, 0, 82, 55
1, 33034, Note_on_c, 0, 94, 35
1, 33039, Note_on_c, 0, 82, 0
1, 33039, Note_on_c, 0, 95, 64
1, 33046, Note_on_c, 0, 83, 22
1, 33047, Note_on_c, 0, 94, 0
1, 33053, Note_on_c, 0, 36, 0
1, 33062, Note_on_c, 0, 95, 0
1, 33064, Note_on_c, 0, 43, 0
1, 33070, Note_on_c, 0, 83, 0
1, 33078, Note_on_c, 0, 52, 0
1, 33086, Note_on_c, 0, 91, 53
1, 33090, Note_on_c, 0, 79, 32
1, 33093, Note_on_c, 0, 90, 26
1, 33105, Note_on_c, 0, 91, 0
1, 33106, Note_on_c, 0, 79, 0
1, 33116, Note_on_c, 0, 90, 0
1, 33142, Note_on_c, 0, 91, 60
1, 33145, Note_on_c, 0, 79, 32
1, 33157, Note_on_c, 0, 79, 0
1, 33158, Note_on_c, 0, 91, 0
1, 33191, Note_on_c, 0, 64, 34
1, 33194, Note_on_c, 0, 60, 31
1, 33196, Note_on_c, 0, 88, 38
1, 33196, Note_on_c, 0, 59, 35
1, 33197, Note_on_c, 0, 76, 26
1, 33214, Note_on_c, 0, 88, 0
1, 33222, Note_on_c, 0, 76, 0
1, 33331, Note_on_c, 0, 64, 0
1, 33340, Note_on_c, 0, 59, 0
1, 33344, Note_on_c, 0, 83, 50
1, 33350, Note_on_c, 0, 83, 0
1, 33350, Note_on_c, 0, 60, 0
1, 33370, Note_on_c, 0, 86, 84
1, 33394, Note_on_c, 0, 86, 0
1, 33403, Note_on_c, 0, 64, 20
1, 33403, Note_on_c, 0, 84, 82
1, 33406, Note_on_c, 0, 60, 26
1, 33408, Note_on_c, 0, 57, 47
1, 33411, Control_c, 0, 64, 0
1, 33449, Control_c, 0, 64, 127
1, 33455, Note_on_c, 0, 84, 0
1, 33466, Note_on_c, 0, 81, 64
1, 33494, Note_on_c, 0, 81, 0
1, 33494, Note_on_c, 0, 64, 0
1, 33509, Note_on_c, 0, 72, 22
1, 33510, Note_on_c, 0, 74, 22
1, 33516, Note_on_c, 0, 74, 0
1, 33535, Note_on_c, 0, 57, 0
1, 33554, Note_on_c, 0, 60, 0
1, 33556, Note_on_c, 0, 72, 0
1, 33575, Note_on_c, 0, 57, 43
1, 33576, Note_on_c, 0, 60, 24
1, 33577, Note_on_c, 0, 64, 31
1, 33592, Note_on_c, 0, 64, 0
1, 33601, Note_on_c, 0, 57, 0
1, 33614, Note_on_c, 0, 55, 47
1, 33615, Note_on_c, 0, 64, 29
1, 33615, Note_on_c, 0, 75, 71
1, 33616, Note_on_c, 0, 81, 55
1, 33619, Control_c, 0, 64, 0
1, 33622, Note_on_c, 0, 81, 0
1, 33622, Note_on_c, 0, 75, 0
1, 33624, Note_on_c, 0, 74, 51
1, 33645, Note_on_c, 0, 74, 0
1, 33672, Note_on_c, 0, 69, 41
1, 33685, Note_on_c, 0, 69, 0
1, 33698, Note_on_c, 0, 72, 78
1, 33717, Note_on_c, 0, 72, 0
1, 33720, Note_on_c, 0, 64, 0
1, 33722, Note_on_c, 0, 74, 79
1, 33729, Control_c, 0, 64, 127
1, 33732, Note_on_c, 0, 60, 0
1, 33743, Note_on_c, 0, 74, 0
1, 33750, Note_on_c, 0, 72, 66
1, 33769, Note_on_c, 0, 72, 0
1, 33776, Note_on_c, 0, 69, 60
1, 33782, Note_on_c, 0, 55, 0
1, 33790, Note_on_c, 0, 69, 0
1, 33800, Note_on_c, 0, 64, 49
1, 33811, Note_on_c, 0, 64, 0
1, 33842, Note_on_c, 0, 60, 61
1, 33855, Note_on_c, 0, 57, 58
1, 33857, Note_on_c, 0, 42, 33
1, 33858, Control_c, 0, 64, 0
1, 33858, Note_on_c, 0, 52, 31
1, 33864, Note_on_c, 0, 60, 0
1, 33897, Control_c, 0, 64, 127
1, 33910, Note_on_c, 0, 57, 0
1, 33912, Note_on_c, 0, 52, 0
1, 33925, Note_on_c, 0, 54, 67
1, 33954, Note_on_c, 0, 54, 0
1, 33968, Note_on_c, 0, 42, 0
1, 34064, Note_on_c, 0, 69, 40
1, 34065, Note_on_c, 0, 66, 32
1, 34065, Note_on_c, 0, 64, 33
1, 34067, Note_on_c, 0, 60, 34
1, 34068, Note_on_c, 0, 54, 35
1, 34079, Note_on_c, 0, 60, 0
1, 34087, Note_on_c, 0, 54, 0
1, 34105, Note_on_c, 0, 69, 0
1, 34107, Note_on_c, 0, 64, 0
1, 34116, Note_on_c, 0, 66, 0
1, 34137, Note_on_c, 0, 72, 58
1, 34148, Note_on_c, 0, 72, 0
1, 34202, Note_on_c, 0, 86, 71
1, 34202, Note_on_c, 0, 79, 72
1, 34219, Note_on_c, 0, 86, 0
1, 34223, Note_on_c, 0, 79, 0
1, 34231, Note_on_c, 0, 74, 38
1, 34232, Note_on_c, 0, 83, 49
1, 34247, Note_on_c, 0, 74, 0
1, 34256, Note_on_c, 0, 83, 0
1, 34266, Note_on_c, 0, 48, 36
1, 34267, Note_on_c, 0, 86, 64
1, 34269, Control_c, 0, 64, 0
1, 34269, Note_on_c, 0, 79, 55
1, 34270, Note_on_c, 0, 41, 22
1, 34273, Note_on_c, 0, 57, 36
1, 34291, Note_on_c, 0, 79, 0
1, 34293, Note_on_c, 0, 86, 0
1, 34293, Control_c, 0, 64, 127
1, 34299, Note_on_c, 0, 74, 37
1, 34301, Note_on_c, 0, 41, 0
1, 34302, Note_on_c, 0, 48, 0
1, 34305, Note_on_c, 0, 83, 24
1, 34313, Note_on_c, 0, 74, 0
1, 34317, Note_on_c, 0, 57, 0
1, 34326, Note_on_c, 0, 83, 0
1, 34335, Note_on_c, 0, 86, 48
1, 34335, Note_on_c, 0, 79, 41
1, 34350, Note_on_c, 0, 79, 0
1, 34355, Note_on_c, 0, 86, 0
1, 34369, Note_on_c, 0, 83, 38
1, 34373, Note_on_c, 0, 74, 28
1, 34379, Note_on_c, 0, 83, 0
1, 34385, Note_on_c, 0, 74, 0
1, 34489, Note_on_c, 0, 67, 25
1, 34490, Note_on_c, 0, 57, 30
1, 34490, Note_on_c, 0, 63, 19
1, 34492, Note_on_c, 0, 62, 27
1, 34521, Note_on_c, 0, 67, 0
1, 34529, Note_on_c, 0, 62, 0
1, 34530, Note_on_c, 0, 63, 0
1, 34544, Note_on_c, 0, 57, 0
1, 34560, Note_on_c, 0, 67, 29
1, 34576, Note_on_c, 0, 67, 0
1, 34593, Note_on_c, 0, 71, 50
1, 34606, Note_on_c, 0, 71, 0
1, 34623, Note_on_c, 0, 74, 61
1, 34634, Note_on_c, 0, 74, 0
1, 34656, Note_on_c, 0, 79, 87
1, 34670, Note_on_c, 0, 79, 0
1, 34695, Note_on_c, 0, 76, 57
1, 34696, Note_on_c, 0, 67, 38
1, 34698, Note_on_c, 0, 62, 30
1, 34698, Note_on_c, 0, 72, 40
1, 34698, Note_on_c, 0, 52, 46
1, 34702, Control_c, 0, 64, 0
1, 34729, Control_c, 0, 64, 127
1, 34748, Note_on_c, 0, 67, 0
1, 34757, Note_on_c, 0, 62, 0
1, 34762, Note_on_c, 0, 72, 0
1, 34766, Note_on_c, 0, 76, 0
1, 34821, Note_on_c, 0, 52, 0
1, 34926, Control_c, 0, 64, 0
1, 34927, Note_on_c, 0, 60, 47
1, 34927, Note_on_c, 0, 55, 48
1, 34928, Note_on_c, 0, 52, 39
1, 34928, Note_on_c, 0, 64, 36
1, 34928, Note_on_c, 0, 57, 45
1, 34941, Control_c, 0, 64, 127
1, 34943, Note_on_c, 0, 55, 0
1, 34945, Note_on_c, 0, 52, 0
1, 34946, Note_on_c, 0, 57, 0
1, 34947, Note_on_c, 0, 60, 0
1, 34951, Note_on_c, 0, 64, 0
1, 34998, Note_on_c, 0, 62, 71
1, 34998, Note_on_c, 0, 72, 74
1, 34998, Note_on_c, 0, 67, 72
1, 35001, Note_on_c, 0, 57, 32
1, 35008, Note_on_c, 0, 57, 0
1, 35027, Note_on_c, 0, 72, 0
1, 35029, Note_on_c, 0, 67, 0
1, 35029, Note_on_c, 0, 62, 0
1, 35043, Note_on_c, 0, 72, 51
1, 35044, Note_on_c, 0, 67, 49
1, 35045, Note_on_c, 0, 62, 44
1, 35057, Note_on_c, 0, 67, 0
1, 35057, Note_on_c, 0, 72, 0
1, 35065, Note_on_c, 0, 62, 0
1, 35109, Note_on_c, 0, 48, 29
1, 35112, Note_on_c, 0, 69, 50
1, 35112, Note_on_c, 0, 60, 53
1, 35113, Note_on_c, 0, 64, 50
1, 35113, Note_on_c, 0, 41, 20
1, 35117, Control_c, 0, 64, 0
1, 35142, Control_c, 0, 64, 127
1, 35150, Note_on_c, 0, 60, 0
1, 35157, Note_on_c, 0, 64, 0
1, 35160, Note_on_c, 0, 69, 0
1, 35176, Note_on_c, 0, 41, 0
1, 35180, Note_on_c, 0, 48, 0
1, 35194, Note_on_c, 0, 79, 66
1, 35196, Note_on_c, 0, 72, 70
1, 35213, Note_on_c, 0, 79, 0
1, 35215, Note_on_c, 0, 72, 0
1, 35228, Note_on_c, 0, 79, 62
1, 35232, Note_on_c, 0, 72, 55
1, 35240, Note_on_c, 0, 72, 0
1, 35241, Note_on_c, 0, 79, 0
1, 35264, Note_on_c, 0, 69, 61
1, 35264, Note_on_c, 0, 76, 62
1, 35268, Note_on_c, 0, 60, 37
1, 35294, Note_on_c, 0, 69, 0
1, 35300, Note_on_c, 0, 76, 0
1, 35359, Note_on_c, 0, 84, 79
1, 35361, Note_on_c, 0, 72, 58
1, 35367, Note_on_c, 0, 72, 0
1, 35370, Note_on_c, 0, 84, 0
1, 35393, Note_on_c, 0, 84, 64
1, 35399, Note_on_c, 0, 84, 0
1, 35405, Note_on_c, 0, 60, 0
1, 35427, Note_on_c, 0, 53, 25
1, 35428, Note_on_c, 0, 81, 54
1, 35428, Note_on_c, 0, 64, 25
1, 35428, Note_on_c, 0, 60, 32
1, 35428, Note_on_c, 0, 69, 59
1, 35430, Control_c, 0, 64, 0
1, 35432, Note_on_c, 0, 57, 22
1, 35445, Note_on_c, 0, 69, 0
1, 35446, Control_c, 0, 64, 127
1, 35456, Note_on_c, 0, 81, 0
1, 35463, Note_on_c, 0, 64, 0
1, 35473, Note_on_c, 0, 60, 0
1, 35479, Note_on_c, 0, 57, 0
1, 35486, Note_on_c, 0, 53, 0
1, 35504, Note_on_c, 0, 88, 66
1, 35508, Note_on_c, 0, 76, 34
1, 35514, Note_on_c, 0, 76, 0
1, 35517, Note_on_c, 0, 88, 0
1, 35537, Note_on_c, 0, 88, 64
1, 35540, Note_on_c, 0, 76, 33
1, 35546, Note_on_c, 0, 88, 0
1, 35547, Note_on_c, 0, 76, 0
1, 35566, Control_c, 0, 64, 0
1, 35572, Note_on_c, 0, 47, 50
1, 35573, Note_on_c, 0, 85, 59
1, 35574, Note_on_c, 0, 73, 62
1, 35577, Note_on_c, 0, 47, 0
1, 35578, Control_c, 0, 64, 127
1, 35584, Note_on_c, 0, 73, 0
1, 35588, Note_on_c, 0, 85, 0
1, 35679, Note_on_c, 0, 62, 31
1, 35680, Note_on_c, 0, 66, 31
1, 35684, Note_on_c, 0, 57, 32
1, 35738, Note_on_c, 0, 57, 0
1, 35740, Note_on_c, 0, 62, 0
1, 35748, Note_on_c, 0, 66, 0
1, 35792, Note_on_c, 0, 67, 45
1, 35794, Note_on_c, 0, 56, 36
1, 35794, Note_on_c, 0, 62, 41
1, 35799, Control_c, 0, 64, 0
1, 35811, Control_c, 0, 64, 127
1, 35835, Note_on_c, 0, 95, 80
1, 35852, Note_on_c, 0, 95, 0
1, 35866, Note_on_c, 0, 98, 95
1, 35890, Note_on_c, 0, 67, 0
1, 35893, Note_on_c, 0, 98, 0
1, 35893, Note_on_c, 0, 62, 0
1, 35900, Note_on_c, 0, 96, 70
1, 35907, Note_on_c, 0, 56, 0
1, 35920, Note_on_c, 0, 96, 0
1, 35934, Note_on_c, 0, 91, 44
1, 35962, Note_on_c, 0, 91, 0
1, 35969, Note_on_c, 0, 85, 72
1, 35979, Note_on_c, 0, 55, 44
1, 35981, Note_on_c, 0, 45, 33
1, 35985, Control_c, 0, 64, 0
1, 35997, Note_on_c, 0, 85, 0
1, 36002, Control_c, 0, 64, 127
1, 36011, Note_on_c, 0, 84, 50
1, 36030, Note_on_c, 0, 45, 0
1, 36037, Note_on_c, 0, 84, 0
1, 36041, Note_on_c, 0, 55, 0
1, 36041, Note_on_c, 0, 94, 75
1, 36069, Note_on_c, 0, 94, 0
1, 36163, Note_on_c, 0, 66, 46
1, 36164, Note_on_c, 0, 56, 49
1, 36167, Note_on_c, 0, 61, 51
1, 36209, Note_on_c, 0, 61, 0
1, 36214, Note_on_c, 0, 66, 0
1, 36218, Note_on_c, 0, 56, 0
1, 36234, Note_on_c, 0, 65, 44
1, 36236, Note_on_c, 0, 61, 33
1, 36236, Note_on_c, 0, 55, 43
1, 36242, Control_c, 0, 64, 0
1, 36263, Control_c, 0, 64, 127
1, 36297, Note_on_c, 0, 93, 89
1, 36298, Note_on_c, 0, 81, 74
1, 36301, Note_on_c, 0, 83, 56
1, 36306, Note_on_c, 0, 83, 0
1, 36328, Note_on_c, 0, 92, 33
1, 36329, Note_on_c, 0, 65, 0
1, 36331, Note_on_c, 0, 81, 0
1, 36332, Note_on_c, 0, 91, 56
1, 36333, Note_on_c, 0, 92, 0
1, 36336, Note_on_c, 0, 61, 0
1, 36339, Note_on_c, 0, 55, 0
1, 36346, Note_on_c, 0, 93, 0
1, 36357, Note_on_c, 0, 91, 0
1, 36407, Note_on_c, 0, 89, 81
1, 36427, Note_on_c, 0, 89, 0
1, 36438, Note_on_c, 0, 85, 78
1, 36468, Note_on_c, 0, 85, 0
1, 36471, Note_on_c, 0, 38, 36
1, 36473, Note_on_c, 0, 45, 24
1, 36474, Note_on_c, 0, 88, 74
1, 36476, Note_on_c, 0, 53, 44
1, 36478, Control_c, 0, 64, 0
1, 36502, Note_on_c, 0, 88, 0
1, 36505, Note_on_c, 0, 86, 64
1, 36508, Control_c, 0, 64, 127
1, 36522, Note_on_c, 0, 38, 0
1, 36524, Note_on_c, 0, 86, 0
1, 36529, Note_on_c, 0, 45, 0
1, 36531, Note_on_c, 0, 81, 42
1, 36542, Note_on_c, 0, 81, 0
1, 36542, Note_on_c, 0, 53, 0
1, 36557, Note_on_c, 0, 77, 57
1, 36580, Note_on_c, 0, 77, 0
1, 36587, Note_on_c, 0, 76, 41
1, 36601, Note_on_c, 0, 76, 0
1, 36611, Note_on_c, 0, 79, 74
1, 36637, Note_on_c, 0, 77, 68
1, 36646, Note_on_c, 0, 79, 0
1, 36649, Note_on_c, 0, 77, 0
1, 36664, Note_on_c, 0, 73, 58
1, 36682, Note_on_c, 0, 73, 0
1, 36688, Note_on_c, 0, 76, 68
1, 36690, Note_on_c, 0, 60, 45
1, 36691, Note_on_c, 0, 57, 33
1, 36693, Note_on_c, 0, 50, 37
1, 36697, Control_c, 0, 64, 0
1, 36711, Note_on_c, 0, 76, 0
1, 36742, Note_on_c, 0, 74, 67
1, 36757, Control_c, 0, 64, 127
1, 36762, Note_on_c, 0, 74, 0
1, 36770, Note_on_c, 0, 69, 53
1, 36788, Note_on_c, 0, 69, 0
1, 36804, Note_on_c, 0, 72, 55
1, 36823, Note_on_c, 0, 72, 0
1, 36829, Note_on_c, 0, 57, 0
1, 36830, Note_on_c, 0, 50, 0
1, 36832, Note_on_c, 0, 60, 0
1, 36833, Note_on_c, 0, 74, 52
1, 36858, Note_on_c, 0, 74, 0
1, 36870, Note_on_c, 0, 69, 40
1, 36952, Note_on_c, 0, 69, 0
1, 37047, Note_on_c, 0, 64, 62
1, 37054, Control_c, 0, 64, 0
1, 37065, Control_c, 0, 64, 127
1, 37089, Note_on_c, 0, 76, 80
1, 37110, Note_on_c, 0, 76, 0
1, 37126, Note_on_c, 0, 73, 64
1, 37126, Note_on_c, 0, 66, 51
1, 37126, Note_on_c, 0, 69, 65
1, 37136, Note_on_c, 0, 62, 17
1, 37140, Note_on_c, 0, 64, 0
1, 37145, Note_on_c, 0, 62, 0
1, 37147, Note_on_c, 0, 69, 0
1, 37153, Note_on_c, 0, 66, 0
1, 37164, Note_on_c, 0, 73, 0
1, 37174, Note_on_c, 0, 62, 39
1, 37174, Note_on_c, 0, 67, 49
1, 37175, Note_on_c, 0, 72, 58
1, 37176, Note_on_c, 0, 56, 33
1, 37180, Control_c, 0, 64, 0
1, 37202, Control_c, 0, 64, 127
1, 37215, Note_on_c, 0, 76, 54
1, 37245, Note_on_c, 0, 72, 0
1, 37248, Note_on_c, 0, 67, 0
1, 37254, Note_on_c, 0, 76, 0
1, 37274, Note_on_c, 0, 62, 0
1, 37288, Note_on_c, 0, 56, 0
1, 37288, Note_on_c, 0, 68, 56
1, 37290, Note_on_c, 0, 64, 49
1, 37313, Note_on_c, 0, 64, 0
1, 37321, Note_on_c, 0, 74, 59
1, 37335, Note_on_c, 0, 74, 0
1, 37341, Note_on_c, 0, 68, 0
1, 37359, Note_on_c, 0, 72, 41
1, 37362, Note_on_c, 0, 60, 38
1, 37362, Note_on_c, 0, 67, 41
1, 37363, Note_on_c, 0, 55, 35
1, 37364, Note_on_c, 0, 45, 34
1, 37366, Control_c, 0, 64, 0
1, 37367, Note_on_c, 0, 52, 22
1, 37395, Control_c, 0, 64, 127
1, 37409, Note_on_c, 0, 67, 0
1, 37422, Note_on_c, 0, 72, 0
1, 37423, Note_on_c, 0, 60, 0
1, 37463, Note_on_c, 0, 64, 32
1, 37474, Note_on_c, 0, 64, 0
1, 37493, Note_on_c, 0, 64, 56
1, 37508, Note_on_c, 0, 64, 0
1, 37511, Note_on_c, 0, 52, 0
1, 37518, Note_on_c, 0, 55, 0
1, 37528, Note_on_c, 0, 64, 62
1, 37536, Note_on_c, 0, 45, 0
1, 37539, Note_on_c, 0, 64, 0
1, 37562, Note_on_c, 0, 69, 50
1, 37577, Note_on_c, 0, 69, 0
1, 37599, Note_on_c, 0, 61, 42
1, 37600, Note_on_c, 0, 65, 45
1, 37602, Note_on_c, 0, 39, 36
1, 37605, Note_on_c, 0, 69, 27
1, 37605, Note_on_c, 0, 46, 38
1, 37607, Control_c, 0, 64, 0
1, 37629, Control_c, 0, 64, 127
1, 37635, Note_on_c, 0, 39, 0
1, 37673, Note_on_c, 0, 46, 0
1, 37706, Note_on_c, 0, 57, 49
1, 37732, Note_on_c, 0, 57, 0
1, 37739, Note_on_c, 0, 65, 0
1, 37747, Note_on_c, 0, 69, 0
1, 37751, Note_on_c, 0, 61, 0
1, 37793, Note_on_c, 0, 45, 47
1, 37815, Note_on_c, 0, 45, 0
1, 37825, Note_on_c, 0, 39, 42
1, 37843, Note_on_c, 0, 39, 0
1, 37862, Control_c, 0, 64, 0
1, 37862, Note_on_c, 0, 38, 53
1, 37864, Note_on_c, 0, 62, 32
1, 37865, Note_on_c, 0, 55, 36
1, 37866, Note_on_c, 0, 57, 38
1, 37866, Note_on_c, 0, 60, 45
1, 37876, Note_on_c, 0, 55, 0
1, 37877, Control_c, 0, 64, 127
1, 37880, Note_on_c, 0, 57, 0
1, 37882, Note_on_c, 0, 60, 0
1, 37887, Note_on_c, 0, 62, 0
1, 37904, Note_on_c, 0, 38, 0
1, 37939, Note_on_c, 0, 72, 85
1, 37977, Note_on_c, 0, 67, 55
1, 37978, Note_on_c, 0, 64, 56
1, 37990, Note_on_c, 0, 62, 24
1, 38016, Note_on_c, 0, 57, 32
1, 38018, Note_on_c, 0, 62, 0
1, 38035, Note_on_c, 0, 67, 0
1, 38036, Note_on_c, 0, 64, 0
1, 38047, Note_on_c, 0, 72, 0
1, 38050, Note_on_c, 0, 57, 0
1, 38055, Note_on_c, 0, 50, 50
1, 38093, Note_on_c, 0, 68, 48
1, 38095, Note_on_c, 0, 63, 42
1, 38096, Note_on_c, 0, 60, 43
1, 38097, Note_on_c, 0, 56, 40
1, 38097, Note_on_c, 0, 66, 38
1, 38099, Control_c, 0, 64, 0
1, 38119, Control_c, 0, 64, 127
1, 38127, Note_on_c, 0, 60, 0
1, 38128, Note_on_c, 0, 63, 0
1, 38130, Note_on_c, 0, 68, 0
1, 38134, Note_on_c, 0, 63, 37
1, 38135, Note_on_c, 0, 69, 67
1, 38137, Note_on_c, 0, 56, 0
1, 38137, Note_on_c, 0, 60, 56
1, 38139, Note_on_c, 0, 57, 53
1, 38162, Note_on_c, 0, 60, 0
1, 38167, Note_on_c, 0, 63, 0
1, 38167, Note_on_c, 0, 69, 0
1, 38169, Note_on_c, 0, 66, 0
1, 38177, Note_on_c, 0, 57, 0
1, 38209, Note_on_c, 0, 72, 60
1, 38211, Note_on_c, 0, 62, 51
1, 38211, Note_on_c, 0, 69, 54
1, 38212, Note_on_c, 0, 65, 55
1, 38215, Note_on_c, 0, 60, 33
1, 38217, Note_on_c, 0, 62, 0
1, 38221, Note_on_c, 0, 65, 0
1, 38225, Note_on_c, 0, 69, 0
1, 38226, Note_on_c, 0, 72, 0
1, 38230, Note_on_c, 0, 60, 0
1, 38250, Note_on_c, 0, 76, 68
1, 38251, Note_on_c, 0, 65, 72
1, 38252, Note_on_c, 0, 69, 68
1, 38252, Note_on_c, 0, 72, 57
1, 38254, Note_on_c, 0, 62, 49
1, 38254, Note_on_c, 0, 64, 38
1, 38258, Control_c, 0, 64, 0
1, 38265, Control_c, 0, 64, 127
1, 38280, Note_on_c, 0, 50, 0
1, 38283, Note_on_c, 0, 65, 0
1, 38288, Note_on_c, 0, 69, 0
1, 38292, Note_on_c, 0, 72, 0
1, 38292, Note_on_c, 0, 76, 0
1, 38292, Note_on_c, 0, 64, 0
1, 38293, Note_on_c, 0, 62, 0
1, 38332, Note_on_c, 0, 79, 80
1, 38333, Note_on_c, 0, 64, 76
1, 38333, Control_c, 0, 64, 0
1, 38334, Note_on_c, 0, 76, 71
1, 38334, Note_on_c, 0, 72, 80
1, 38334, Note_on_c, 0, 69, 84
1, 38340, Note_on_c, 0, 77, 28
1, 38352, Control_c, 0, 64, 127
1, 38385, Note_on_c, 0, 76, 0
1, 38391, Note_on_c, 0, 79, 0
1, 38394, Note_on_c, 0, 72, 0
1, 38394, Note_on_c, 0, 77, 0
1, 38399, Note_on_c, 0, 69, 0
1, 38401, Note_on_c, 0, 64, 0
1, 38402, Note_on_c, 0, 63, 34
1, 38416, Note_on_c, 0, 63, 0
1, 38423, Note_on_c, 0, 62, 24
1, 38426, Note_on_c, 0, 61, 30
1, 38428, Note_on_c, 0, 62, 0
1, 38437, Note_on_c, 0, 61, 0
1, 38442, Note_on_c, 0, 76, 56
1, 38442, Note_on_c, 0, 65, 55
1, 38443, Note_on_c, 0, 69, 64
1, 38443, Note_on_c, 0, 72, 53
1, 38443, Note_on_c, 0, 60, 68
1, 38444, Control_c, 0, 64, 0
1, 38466, Note_on_c, 0, 76, 0
1, 38467, Control_c, 0, 64, 127
1, 38468, Note_on_c, 0, 72, 0
1, 38469, Note_on_c, 0, 69, 0
1, 38475, Note_on_c, 0, 65, 0
1, 38485, Note_on_c, 0, 60, 0
1, 38486, Note_on_c, 0, 72, 50
1, 38487, Note_on_c, 0, 65, 44
1, 38489, Note_on_c, 0, 57, 45
1, 38494, Control_c, 0, 64, 0
1, 38505, Control_c, 0, 64, 127
1, 38522, Note_on_c, 0, 65, 0
1, 38533, Note_on_c, 0, 72, 0
1, 38533, Note_on_c, 0, 69, 35
1, 38535, Note_on_c, 0, 60, 25
1, 38536, Note_on_c, 0, 57, 0
1, 38536, Note_on_c, 0, 65, 38
1, 38539, Note_on_c, 0, 53, 26
1, 38549, Note_on_c, 0, 53, 0
1, 38551, Note_on_c, 0, 69, 0
1, 38556, Note_on_c, 0, 65, 0
1, 38565, Note_on_c, 0, 60, 0
1, 38606, Note_on_c, 0, 63, 44
1, 38607, Note_on_c, 0, 69, 38
1, 38608, Note_on_c, 0, 59, 36
1, 38611, Note_on_c, 0, 53, 24
1, 38612, Note_on_c, 0, 43, 34
1, 38614, Control_c, 0, 64, 0
1, 38641, Control_c, 0, 64, 127
1, 38676, Note_on_c, 0, 53, 0
1, 38768, Note_on_c, 0, 59, 0
1, 38780, Note_on_c, 0, 63, 0
1, 38830, Note_on_c, 0, 69, 0
1, 38838, Note_on_c, 0, 67, 34
1, 38839, Note_on_c, 0, 63, 38
1, 38839, Note_on_c, 0, 59, 41
1, 38841, Note_on_c, 0, 53, 29
1, 38884, Note_on_c, 0, 43, 0
1, 38901, Note_on_c, 0, 53, 0
1, 38903, Note_on_c, 0, 43, 37
1, 38924, Note_on_c, 0, 43, 0
1, 38970, Note_on_c, 0, 31, 47
1, 39012, Note_on_c, 0, 59, 0
1, 39026, Note_on_c, 0, 63, 0
1, 39039, Note_on_c, 0, 67, 0
1, 39046, Note_on_c, 0, 64, 52
1, 39047, Note_on_c, 0, 59, 39
1, 39047, Note_on_c, 0, 43, 26
1, 39054, Note_on_c, 0, 31, 0
1, 39069, Note_on_c, 0, 43, 0
1, 39073, Note_on_c, 0, 64, 0
1, 39081, Note_on_c, 0, 59, 0
1, 39142, Note_on_c, 0, 60, 58
1, 39144, Control_c, 0, 64, 0
1, 39144, Note_on_c, 0, 57, 51
1, 39144, Note_on_c, 0, 42, 43
1, 39162, Control_c, 0, 64, 127
1, 39173, Note_on_c, 0, 57, 0
1, 39176, Note_on_c, 0, 60, 0
1, 39183, Note_on_c, 0, 52, 50
1, 39185, Note_on_c, 0, 42, 0
1, 39189, Note_on_c, 0, 52, 0
1, 39225, Note_on_c, 0, 64, 64
1, 39227, Note_on_c, 0, 60, 54
1, 39241, Note_on_c, 0, 60, 0
1, 39250, Note_on_c, 0, 64, 0
1, 39262, Note_on_c, 0, 72, 72
1, 39291, Note_on_c, 0, 72, 0
1, 39307, Note_on_c, 0, 71, 57
1, 39308, Note_on_c, 0, 62, 42
1, 39309, Note_on_c, 0, 67, 47
1, 39309, Control_c, 0, 64, 0
1, 39310, Note_on_c, 0, 47, 37
1, 39312, Note_on_c, 0, 57, 31
1, 39336, Control_c, 0, 64, 127
1, 39343, Note_on_c, 0, 62, 0
1, 39350, Note_on_c, 0, 67, 0
1, 39353, Note_on_c, 0, 57, 0
1, 39354, Note_on_c, 0, 71, 0
1, 39357, Note_on_c, 0, 51, 38
1, 39412, Note_on_c, 0, 83, 68
1, 39413, Note_on_c, 0, 75, 46
1, 39415, Note_on_c, 0, 57, 43
1, 39415, Note_on_c, 0, 71, 36
1, 39429, Note_on_c, 0, 51, 0
1, 39431, Note_on_c, 0, 57, 0
1, 39431, Note_on_c, 0, 47, 0
1, 39583, Note_on_c, 0, 83, 0
1, 39589, Note_on_c, 0, 81, 54
1, 39636, Note_on_c, 0, 71, 0
1, 39651, Note_on_c, 0, 75, 0
1, 39666, Note_on_c, 0, 81, 0
1, 39687, Note_on_c, 0, 40, 32
1, 39688, Note_on_c, 0, 79, 50
1, 39693, Note_on_c, 0, 71, 18
1, 39694, Control_c, 0, 64, 0
1, 39703, Note_on_c, 0, 79, 0
1, 39711, Control_c, 0, 64, 127
1, 39712, Note_on_c, 0, 71, 0
1, 39773, Note_on_c, 0, 40, 0
1, 39775, Note_on_c, 0, 76, 90
1, 39793, Note_on_c, 0, 76, 0
1, 39807, Note_on_c, 0, 70, 55
1, 39812, Note_on_c, 0, 70, 0
1, 39822, Note_on_c, 0, 69, 24
1, 39834, Note_on_c, 0, 69, 0
1, 39843, Note_on_c, 0, 67, 31
1, 39856, Note_on_c, 0, 67, 0
1, 39863, Note_on_c, 0, 64, 39
1, 39870, Note_on_c, 0, 64, 0
1, 39885, Note_on_c, 0, 67, 55
1, 39906, Note_on_c, 0, 67, 0
1, 39911, Note_on_c, 0, 69, 63
1, 39929, Note_on_c, 0, 69, 0
1, 39929, Note_on_c, 0, 59, 26
1, 39933, Note_on_c, 0, 51, 31
1, 39934, Control_c, 0, 64, 0
1, 39934, Note_on_c, 0, 67, 42
1, 39955, Control_c, 0, 64, 127
1, 39988, Note_on_c, 0, 51, 0
1, 39992, Note_on_c, 0, 59, 0
1, 40047, Note_on_c, 0, 59, 37
1, 40048, Control_c, 0, 64, 0
1, 40049, Note_on_c, 0, 50, 34
1, 40067, Control_c, 0, 64, 127
1, 40120, Note_on_c, 0, 59, 0
1, 40124, Note_on_c, 0, 50, 0
1, 40144, Note_on_c, 0, 64, 35
1, 40151, Note_on_c, 0, 67, 0
1, 40152, Note_on_c, 0, 64, 0
1, 40178, Control_c, 0, 64, 0
1, 40178, Note_on_c, 0, 71, 58
1, 40179, Note_on_c, 0, 42, 43
1, 40190, Note_on_c, 0, 42, 0
1, 40199, Control_c, 0, 64, 127
1, 40254, Note_on_c, 0, 61, 39
1, 40258, Note_on_c, 0, 59, 40
1, 40259, Note_on_c, 0, 64, 30
1, 40259, Note_on_c, 0, 68, 27
1, 40263, Note_on_c, 0, 57, 22
1, 40301, Note_on_c, 0, 59, 0
1, 40304, Note_on_c, 0, 61, 0
1, 40304, Note_on_c, 0, 57, 0
1, 40411, Control_c, 0, 64, 0
1, 40419, Note_on_c, 0, 35, 50
1, 40424, Control_c, 0, 64, 127
1, 40426, Note_on_c, 0, 35, 0
1, 40436, Note_on_c, 0, 64, 0
1, 40451, Note_on_c, 0, 68, 0
1, 40468, Note_on_c, 0, 71, 0
1, 40501, Note_on_c, 0, 62, 43
1, 40505, Note_on_c, 0, 51, 28
1, 40507, Note_on_c, 0, 57, 31
1, 40512, Note_on_c, 0, 62, 0
1, 40515, Note_on_c, 0, 57, 0
1, 40521, Note_on_c, 0, 51, 0
1, 40546, Note_on_c, 0, 74, 25
1, 40552, Note_on_c, 0, 74, 0
1, 40584, Note_on_c, 0, 79, 64
1, 40592, Note_on_c, 0, 79, 0
1, 40621, Note_on_c, 0, 86, 75
1, 40631, Note_on_c, 0, 86, 0
1, 40655, Control_c, 0, 64, 0
1, 40660, Note_on_c, 0, 40, 38
1, 40664, Note_on_c, 0, 47, 28
1, 40664, Note_on_c, 0, 95, 60
1, 40665, Note_on_c, 0, 55, 24
1, 40665, Note_on_c, 0, 83, 59
1, 40666, Note_on_c, 0, 93, 55
1, 40675, Control_c, 0, 64, 127
1, 40678, Note_on_c, 0, 93, 0
1, 40689, Note_on_c, 0, 40, 0
1, 40689, Note_on_c, 0, 95, 0
1, 40691, Note_on_c, 0, 47, 0
1, 40696, Note_on_c, 0, 83, 0
1, 40704, Note_on_c, 0, 95, 60
1, 40707, Note_on_c, 0, 83, 26
1, 40710, Note_on_c, 0, 55, 0
1, 40722, Note_on_c, 0, 95, 0
1, 40724, Note_on_c, 0, 83, 0
1, 40742, Note_on_c, 0, 93, 57
1, 40744, Note_on_c, 0, 81, 51
1, 40761, Note_on_c, 0, 81, 0
1, 40764, Note_on_c, 0, 93, 0
1, 40781, Note_on_c, 0, 62, 34
1, 40784, Note_on_c, 0, 59, 26
1, 40785, Note_on_c, 0, 79, 32
1, 40786, Note_on_c, 0, 52, 33
1, 40786, Note_on_c, 0, 91, 29
1, 40787, Note_on_c, 0, 55, 29
1, 40797, Note_on_c, 0, 91, 0
1, 40803, Note_on_c, 0, 79, 0
1, 40822, Note_on_c, 0, 59, 0
1, 40825, Note_on_c, 0, 62, 0
1, 40826, Note_on_c, 0, 55, 0
1, 40838, Note_on_c, 0, 52, 0
1, 40866, Note_on_c, 0, 95, 75
1, 40869, Note_on_c, 0, 83, 74
1, 40901, Control_c, 0, 64, 0
1, 40905, Note_on_c, 0, 59, 46
1, 40908, Note_on_c, 0, 49, 32
1, 40921, Control_c, 0, 64, 127
1, 40939, Note_on_c, 0, 49, 0
1, 40946, Note_on_c, 0, 59, 0
1, 41031, Note_on_c, 0, 61, 32
1, 41036, Note_on_c, 0, 59, 30
1, 41038, Note_on_c, 0, 95, 0
1, 41048, Note_on_c, 0, 83, 0
1, 41086, Note_on_c, 0, 61, 0
1, 41089, Note_on_c, 0, 93, 66
1, 41093, Note_on_c, 0, 81, 47
1, 41096, Note_on_c, 0, 59, 0
1, 41104, Note_on_c, 0, 93, 0
1, 41106, Note_on_c, 0, 81, 0
1, 41123, Note_on_c, 0, 79, 50
1, 41124, Note_on_c, 0, 91, 30
1, 41129, Note_on_c, 0, 79, 0
1, 41135, Note_on_c, 0, 91, 0
1, 41159, Control_c, 0, 64, 0
1, 41160, Note_on_c, 0, 95, 46
1, 41160, Note_on_c, 0, 83, 62
1, 41163, Note_on_c, 0, 42, 45
1, 41171, Note_on_c, 0, 95, 0
1, 41174, Note_on_c, 0, 83, 0
1, 41175, Control_c, 0, 64, 127
1, 41188, Note_on_c, 0, 42, 0
1, 41282, Note_on_c, 0, 71, 49
1, 41284, Note_on_c, 0, 68, 43
1, 41284, Note_on_c, 0, 64, 49
1, 41285, Note_on_c, 0, 61, 26
1, 41291, Note_on_c, 0, 59, 27
1, 41291, Note_on_c, 0, 57, 30
1, 41346, Note_on_c, 0, 59, 0
1, 41348, Note_on_c, 0, 57, 0
1, 41355, Note_on_c, 0, 61, 0
1, 41364, Note_on_c, 0, 64, 0
1, 41368, Note_on_c, 0, 68, 0
1, 41369, Note_on_c, 0, 71, 0
1, 41398, Note_on_c, 0, 47, 52
1, 41408, Note_on_c, 0, 71, 53
1, 41411, Note_on_c, 0, 57, 37
1, 41411, Note_on_c, 0, 62, 47
1, 41413, Note_on_c, 0, 47, 0
1, 41413, Note_on_c, 0, 67, 38
1, 41417, Control_c, 0, 64, 0
1, 41439, Control_c, 0, 64, 127
1, 41468, Note_on_c, 0, 62, 0
1, 41478, Note_on_c, 0, 71, 0
1, 41487, Note_on_c, 0, 67, 0
1, 41515, Note_on_c, 0, 57, 0
1, 41537, Note_on_c, 0, 74, 44
1, 41538, Note_on_c, 0, 67, 48
1, 41542, Note_on_c, 0, 35, 31
1, 41543, Note_on_c, 0, 62, 29
1, 41592, Note_on_c, 0, 62, 0
1, 41606, Note_on_c, 0, 67, 0
1, 41646, Note_on_c, 0, 35, 0
1, 41653, Note_on_c, 0, 74, 0
1, 41666, Note_on_c, 0, 64, 32
1, 41666, Note_on_c, 0, 71, 33
1, 41667, Note_on_c, 0, 67, 30
1, 41668, Note_on_c, 0, 52, 36
1, 41670, Note_on_c, 0, 59, 26
1, 41670, Control_c, 0, 64, 0
1, 41694, Control_c, 0, 64, 127
1, 41695, Note_on_c, 0, 64, 0
1, 41715, Note_on_c, 0, 67, 0
1, 41734, Note_on_c, 0, 71, 0
1, 41746, Note_on_c, 0, 59, 0
1, 41792, Note_on_c, 0, 64, 33
1, 41792, Note_on_c, 0, 59, 40
1, 41837, Note_on_c, 0, 76, 87
1, 41864, Note_on_c, 0, 76, 0
1, 41876, Note_on_c, 0, 64, 0
1, 41884, Note_on_c, 0, 78, 65
1, 41887, Note_on_c, 0, 52, 0
1, 41899, Note_on_c, 0, 78, 0
1, 41906, Note_on_c, 0, 79, 70
1, 41922, Note_on_c, 0, 79, 0
1, 41925, Note_on_c, 0, 63, 44
1, 41926, Note_on_c, 0, 52, 47
1, 41931, Note_on_c, 0, 76, 50
1, 41935, Control_c, 0, 64, 0
1, 41969, Control_c, 0, 64, 127
1, 42015, Note_on_c, 0, 59, 0
1, 42025, Note_on_c, 0, 63, 0
1, 42063, Note_on_c, 0, 63, 30
1, 42065, Note_on_c, 0, 59, 36
1, 42113, Note_on_c, 0, 67, 50
1, 42120, Note_on_c, 0, 52, 0
1, 42125, Note_on_c, 0, 67, 0
1, 42139, Note_on_c, 0, 76, 0
1, 42140, Note_on_c, 0, 67, 44
1, 42150, Note_on_c, 0, 67, 0
1, 42164, Note_on_c, 0, 67, 45
1, 42166, Note_on_c, 0, 52, 37
1, 42173, Note_on_c, 0, 52, 0
1, 42174, Note_on_c, 0, 67, 0
1, 42180, Note_on_c, 0, 63, 0
1, 42180, Note_on_c, 0, 59, 0
1, 42190, Note_on_c, 0, 76, 66
1, 42191, Note_on_c, 0, 59, 27
1, 42192, Note_on_c, 0, 67, 61
1, 42192, Note_on_c, 0, 62, 61
1, 42193, Note_on_c, 0, 52, 47
1, 42198, Control_c, 0, 64, 0
1, 42220, Control_c, 0, 64, 127
1, 42282, Note_on_c, 0, 62, 0
1, 42286, Note_on_c, 0, 59, 0
1, 42309, Note_on_c, 0, 67, 0
1, 42319, Note_on_c, 0, 59, 36
1, 42320, Note_on_c, 0, 62, 32
1, 42337, Note_on_c, 0, 62, 0
1, 42354, Note_on_c, 0, 76, 0
1, 42361, Note_on_c, 0, 78, 48
1, 42364, Note_on_c, 0, 52, 0
1, 42365, Note_on_c, 0, 67, 24
1, 42374, Note_on_c, 0, 67, 0
1, 42383, Note_on_c, 0, 78, 0
1, 42383, Note_on_c, 0, 59, 0
1, 42395, Note_on_c, 0, 79, 58
1, 42403, Note_on_c, 0, 79, 0
1, 42440, Note_on_c, 0, 76, 44
1, 42441, Note_on_c, 0, 49, 33
1, 42443, Note_on_c, 0, 69, 39
1, 42444, Note_on_c, 0, 64, 39
1, 42446, Control_c, 0, 64, 0
1, 42468, Note_on_c, 0, 59, 1
1, 42477, Control_c, 0, 64, 127
1, 42508, Note_on_c, 0, 69, 0
1, 42512, Note_on_c, 0, 59, 0
1, 42524, Note_on_c, 0, 64, 0
1, 42566, Note_on_c, 0, 64, 44
1, 42568, Note_on_c, 0, 69, 41
1, 42570, Note_on_c, 0, 59, 30
1, 42622, Note_on_c, 0, 49, 0
1, 42625, Note_on_c, 0, 59, 0
1, 42649, Note_on_c, 0, 63, 58
1, 42652, Note_on_c, 0, 76, 0
1, 42653, Note_on_c, 0, 64, 0
1, 42653, Note_on_c, 0, 51, 35
1, 42654, Note_on_c, 0, 69, 0
1, 42694, Note_on_c, 0, 63, 0
1, 42697, Note_on_c, 0, 51, 0
1, 42703, Note_on_c, 0, 74, 54
1, 42703, Note_on_c, 0, 69, 64
1, 42704, Note_on_c, 0, 65, 58
1, 42707, Note_on_c, 0, 50, 52
1, 42707, Note_on_c, 0, 60, 59
1, 42707, Control_c, 0, 64, 0
1, 42737, Control_c, 0, 64, 127
1, 42756, Note_on_c, 0, 74, 0
1, 42769, Note_on_c, 0, 74, 59
1, 42780, Note_on_c, 0, 60, 0
1, 42797, Note_on_c, 0, 65, 0
1, 42805, Note_on_c, 0, 69, 0
1, 42811, Note_on_c, 0, 74, 0
1, 42832, Note_on_c, 0, 74, 46
1, 42834, Note_on_c, 0, 65, 43
1, 42834, Note_on_c, 0, 69, 53
1, 42834, Note_on_c, 0, 60, 44
1, 42883, Note_on_c, 0, 74, 0
1, 42896, Note_on_c, 0, 50, 0
1, 42899, Note_on_c, 0, 74, 58
1, 42907, Note_on_c, 0, 65, 0
1, 42908, Note_on_c, 0, 69, 0
1, 42915, Note_on_c, 0, 74, 0
1, 42918, Note_on_c, 0, 60, 0
1, 42960, Note_on_c, 0, 77, 59
1, 42962, Note_on_c, 0, 74, 53
1, 42962, Note_on_c, 0, 70, 52
1, 42963, Note_on_c, 0, 54, 37
1, 42963, Note_on_c, 0, 65, 51
1, 42964, Control_c, 0, 64, 0
1, 42967, Note_on_c, 0, 60, 26
1, 42991, Control_c, 0, 64, 127
1, 43006, Note_on_c, 0, 60, 0
1, 43011, Note_on_c, 0, 77, 0
1, 43014, Note_on_c, 0, 74, 0
1, 43018, Note_on_c, 0, 54, 0
1, 43020, Note_on_c, 0, 70, 0
1, 43023, Note_on_c, 0, 65, 0
1, 43093, Note_on_c, 0, 58, 36
1, 43094, Note_on_c, 0, 44, 31
1, 43094, Note_on_c, 0, 62, 40
1, 43095, Note_on_c, 0, 54, 29
1, 43100, Note_on_c, 0, 53, 17
1, 43149, Note_on_c, 0, 62, 0
1, 43153, Note_on_c, 0, 54, 0
1, 43174, Note_on_c, 0, 53, 0
1, 43175, Note_on_c, 0, 44, 0
1, 43188, Note_on_c, 0, 58, 0
1, 43230, Note_on_c, 0, 62, 33
1, 43230, Note_on_c, 0, 43, 33
1, 43231, Note_on_c, 0, 53, 30
1, 43232, Note_on_c, 0, 57, 37
1, 43232, Note_on_c, 0, 60, 50
1, 43234, Note_on_c, 0, 50, 30
1, 43235, Control_c, 0, 64, 0
1, 43259, Control_c, 0, 64, 127
1, 43268, Note_on_c, 0, 53, 0
1, 43300, Note_on_c, 0, 50, 0
1, 43307, Note_on_c, 0, 55, 92
1, 43331, Note_on_c, 0, 57, 0
1, 43356, Note_on_c, 0, 60, 0
1, 43356, Note_on_c, 0, 62, 0
1, 43373, Note_on_c, 0, 62, 42
1, 43374, Note_on_c, 0, 60, 53
1, 43375, Note_on_c, 0, 57, 51
1, 43396, Note_on_c, 0, 43, 0
1, 43439, Note_on_c, 0, 43, 71
1, 43470, Note_on_c, 0, 60, 0
1, 43471, Note_on_c, 0, 57, 0
1, 43483, Note_on_c, 0, 55, 0
1, 43494, Note_on_c, 0, 62, 0
1, 43501, Note_on_c, 0, 63, 63
1, 43504, Note_on_c, 0, 56, 64
1, 43504, Note_on_c, 0, 59, 66
1, 43505, Note_on_c, 0, 53, 56
1, 43514, Control_c, 0, 64, 0
1, 43537, Control_c, 0, 64, 127
1, 43552, Note_on_c, 0, 43, 0
1, 43568, Note_on_c, 0, 43, 51
1, 43569, Note_on_c, 0, 59, 0
1, 43570, Note_on_c, 0, 56, 0
1, 43575, Note_on_c, 0, 63, 0
1, 43596, Note_on_c, 0, 53, 0
1, 43636, Note_on_c, 0, 67, 58
1, 43639, Note_on_c, 0, 62, 46
1, 43639, Note_on_c, 0, 57, 50
1, 43639, Note_on_c, 0, 59, 61
1, 43641, Note_on_c, 0, 64, 39
1, 43642, Note_on_c, 0, 53, 44
1, 43682, Note_on_c, 0, 43, 0
1, 43709, Note_on_c, 0, 59, 0
1, 43709, Note_on_c, 0, 43, 44
1, 43710, Note_on_c, 0, 57, 0
1, 43710, Note_on_c, 0, 62, 0
1, 43717, Note_on_c, 0, 64, 0
1, 43725, Note_on_c, 0, 53, 0
1, 43726, Note_on_c, 0, 43, 0
1, 43727, Note_on_c, 0, 67, 0
1, 43788, Note_on_c, 0, 67, 54
1, 43789, Note_on_c, 0, 64, 51
1, 43790, Note_on_c, 0, 62, 54
1, 43794, Control_c, 0, 64, 0
1, 43814, Control_c, 0, 64, 127
1, 43891, Note_on_c, 0, 67, 0
1, 43895, Note_on_c, 0, 64, 0
1, 43899, Note_on_c, 0, 62, 0
1, 43920, Note_on_c, 0, 64, 35
1, 43920, Note_on_c, 0, 67, 29
1, 43920, Note_on_c, 0, 47, 74
1, 43921, Note_on_c, 0, 62, 29
1, 43930, Control_c, 0, 64, 0
1, 43944, Control_c, 0, 64, 127
1, 43990, Note_on_c, 0, 47, 0
1, 44008, Note_on_c, 0, 67, 0
1, 44011, Note_on_c, 0, 64, 0
1, 44016, Note_on_c, 0, 62, 0
1, 44025, Note_on_c, 0, 43, 79
1, 44052, Note_on_c, 0, 67, 32
1, 44053, Note_on_c, 0, 64, 37
1, 44056, Note_on_c, 0, 62, 30
1, 44065, Control_c, 0, 64, 0
1, 44072, Note_on_c, 0, 43, 0
1, 44077, Note_on_c, 0, 45, 68
1, 44079, Note_on_c, 0, 46, 34
1, 44094, Control_c, 0, 64, 127
1, 44095, Note_on_c, 0, 46, 0
1, 44108, Note_on_c, 0, 45, 0
1, 44112, Note_on_c, 0, 48, 71
1, 44115, Note_on_c, 0, 64, 0
1, 44116, Note_on_c, 0, 62, 0
1, 44119, Note_on_c, 0, 67, 0
1, 44147, Note_on_c, 0, 48, 0
1, 44150, Note_on_c, 0, 50, 78
1, 44185, Note_on_c, 0, 50, 0
1, 44193, Note_on_c, 0, 52, 57
1, 44193, Note_on_c, 0, 50, 65
1, 44194, Note_on_c, 0, 64, 32
1, 44194, Note_on_c, 0, 60, 38
1, 44195, Note_on_c, 0, 59, 33
1, 44198, Note_on_c, 0, 50, 0
1, 44198, Control_c, 0, 64, 0
1, 44228, Note_on_c, 0, 64, 0
1, 44229, Note_on_c, 0, 60, 0
1, 44236, Control_c, 0, 64, 127
1, 44243, Note_on_c, 0, 59, 0
1, 44247, Note_on_c, 0, 52, 0
1, 44251, Note_on_c, 0, 59, 72
1, 44295, Note_on_c, 0, 59, 0
1, 44308, Note_on_c, 0, 55, 76
1, 44343, Control_c, 0, 64, 0
1, 44344, Note_on_c, 0, 42, 51
1, 44362, Control_c, 0, 64, 127
1, 44364, Note_on_c, 0, 55, 0
1, 44395, Note_on_c, 0, 69, 74
1, 44407, Note_on_c, 0, 42, 0
1, 44435, Note_on_c, 0, 69, 0
1, 44438, Note_on_c, 0, 64, 53
1, 44450, Note_on_c, 0, 64, 0
1, 44481, Note_on_c, 0, 64, 44
1, 44484, Note_on_c, 0, 54, 35
1, 44485, Note_on_c, 0, 60, 38
1, 44491, Note_on_c, 0, 60, 0
1, 44492, Note_on_c, 0, 64, 0
1, 44500, Note_on_c, 0, 54, 0
1, 44533, Note_on_c, 0, 69, 52
1, 44539, Note_on_c, 0, 69, 0
1, 44570, Note_on_c, 0, 81, 75
1, 44586, Note_on_c, 0, 81, 0
1, 44603, Note_on_c, 0, 86, 74
1, 44627, Note_on_c, 0, 41, 34
1, 44628, Control_c, 0, 64, 0
1, 44628, Note_on_c, 0, 48, 30
1, 44629, Note_on_c, 0, 57, 31
1, 44636, Note_on_c, 0, 83, 40
1, 44649, Note_on_c, 0, 41, 0
1, 44649, Control_c, 0, 64, 127
1, 44653, Note_on_c, 0, 48, 0
1, 44668, Note_on_c, 0, 57, 0
1, 44696, Note_on_c, 0, 83, 0
1, 44700, Note_on_c, 0, 86, 0
1, 44758, Note_on_c, 0, 85, 69
1, 44758, Note_on_c, 0, 82, 69
1, 44774, Note_on_c, 0, 82, 0
1, 44775, Note_on_c, 0, 85, 0
1, 44779, Note_on_c, 0, 83, 68
1, 44780, Note_on_c, 0, 86, 51
1, 44782, Note_on_c, 0, 63, 27
1, 44782, Note_on_c, 0, 67, 30
1, 44783, Note_on_c, 0, 62, 29
1, 44784, Note_on_c, 0, 57, 38
1, 44787, Note_on_c, 0, 86, 0
1, 44791, Note_on_c, 0, 83, 0
1, 44791, Control_c, 0, 64, 0
1, 44798, Note_on_c, 0, 79, 48
1, 44812, Note_on_c, 0, 79, 0
1, 44816, Note_on_c, 0, 78, 58
1, 44817, Note_on_c, 0, 82, 52
1, 44826, Control_c, 0, 64, 127
1, 44829, Note_on_c, 0, 82, 0
1, 44829, Note_on_c, 0, 78, 0
1, 44836, Note_on_c, 0, 79, 29
1, 44842, Note_on_c, 0, 79, 0
1, 44850, Note_on_c, 0, 76, 26
1, 44855, Note_on_c, 0, 76, 0
1, 44863, Note_on_c, 0, 67, 0
1, 44866, Note_on_c, 0, 73, 47
1, 44868, Note_on_c, 0, 79, 40
1, 44869, Note_on_c, 0, 62, 0
1, 44870, Note_on_c, 0, 63, 0
1, 44876, Note_on_c, 0, 73, 0
1, 44879, Note_on_c, 0, 57, 0
1, 44882, Note_on_c, 0, 74, 31
1, 44889, Note_on_c, 0, 74, 0
1, 44889, Note_on_c, 0, 79, 0
1, 44898, Note_on_c, 0, 71, 33
1, 44910, Note_on_c, 0, 70, 56
1, 44911, Note_on_c, 0, 71, 0
1, 44911, Note_on_c, 0, 73, 46
1, 44925, Note_on_c, 0, 73, 0
1, 44927, Note_on_c, 0, 70, 0
1, 44928, Note_on_c, 0, 62, 29
1, 44929, Note_on_c, 0, 74, 38
1, 44930, Note_on_c, 0, 59, 24
1, 44931, Note_on_c, 0, 52, 34
1, 44934, Note_on_c, 0, 55, 24
1, 44936, Control_c, 0, 64, 0
1, 44938, Note_on_c, 0, 71, 24
1, 44947, Note_on_c, 0, 71, 0
1, 44953, Note_on_c, 0, 74, 0
1, 44958, Note_on_c, 0, 67, 33
1, 44982, Note_on_c, 0, 62, 0
1, 44983, Note_on_c, 0, 67, 0
1, 44987, Control_c, 0, 64, 127
1, 45008, Note_on_c, 0, 59, 0
1, 45008, Note_on_c, 0, 64, 35
1, 45015, Note_on_c, 0, 64, 0
1, 45020, Note_on_c, 0, 55, 0
1, 45044, Note_on_c, 0, 64, 50
1, 45055, Note_on_c, 0, 64, 0
1, 45077, Note_on_c, 0, 52, 0
1, 45077, Note_on_c, 0, 55, 61
1, 45094, Note_on_c, 0, 55, 0
1, 45110, Note_on_c, 0, 55, 64
1, 45128, Note_on_c, 0, 55, 0
1, 45140, Note_on_c, 0, 60, 73
1, 45157, Note_on_c, 0, 60, 0
1, 45170, Note_on_c, 0, 60, 68
1, 45183, Note_on_c, 0, 60, 0
1, 45201, Note_on_c, 0, 69, 69
1, 45203, Note_on_c, 0, 64, 50
1, 45215, Note_on_c, 0, 64, 0
1, 45235, Note_on_c, 0, 48, 24
1, 45236, Note_on_c, 0, 41, 28
1, 45237, Note_on_c, 0, 64, 50
1, 45237, Note_on_c, 0, 57, 39
1, 45238, Control_c, 0, 64, 0
1, 45268, Control_c, 0, 64, 127
1, 45272, Note_on_c, 0, 69, 0
1, 45273, Note_on_c, 0, 64, 0
1, 45274, Note_on_c, 0, 60, 56
1, 45284, Note_on_c, 0, 60, 0
1, 45300, Note_on_c, 0, 41, 0
1, 45303, Note_on_c, 0, 48, 0
1, 45308, Note_on_c, 0, 60, 60
1, 45312, Note_on_c, 0, 57, 0
1, 45320, Note_on_c, 0, 60, 0
1, 45339, Note_on_c, 0, 72, 71
1, 45360, Note_on_c, 0, 72, 0
1, 45375, Note_on_c, 0, 72, 80
1, 45376, Note_on_c, 0, 53, 32
1, 45377, Note_on_c, 0, 64, 42
1, 45379, Note_on_c, 0, 60, 42
1, 45379, Note_on_c, 0, 57, 33
1, 45395, Note_on_c, 0, 64, 0
1, 45401, Note_on_c, 0, 57, 0
1, 45408, Note_on_c, 0, 64, 62
1, 45413, Note_on_c, 0, 60, 0
1, 45426, Note_on_c, 0, 64, 0
1, 45429, Note_on_c, 0, 53, 0
1, 45447, Note_on_c, 0, 72, 0
1, 45449, Note_on_c, 0, 64, 66
1, 45465, Note_on_c, 0, 64, 0
1, 45483, Note_on_c, 0, 74, 78
1, 45505, Note_on_c, 0, 74, 0
1, 45520, Note_on_c, 0, 74, 54
1, 45524, Note_on_c, 0, 57, 37
1, 45525, Control_c, 0, 64, 0
1, 45525, Note_on_c, 0, 47, 39
1, 45547, Control_c, 0, 64, 127
1, 45556, Note_on_c, 0, 62, 45
1, 45572, Note_on_c, 0, 47, 0
1, 45574, Note_on_c, 0, 62, 0
1, 45585, Note_on_c, 0, 57, 0
1, 45595, Note_on_c, 0, 74, 0
1, 45596, Note_on_c, 0, 62, 38
1, 45602, Note_on_c, 0, 62, 0
1, 45632, Note_on_c, 0, 84, 80
1, 45662, Note_on_c, 0, 84, 0
1, 45674, Note_on_c, 0, 65, 43
1, 45674, Note_on_c, 0, 84, 60
1, 45676, Control_c, 0, 64, 0
1, 45676, Note_on_c, 0, 60, 36
1, 45677, Note_on_c, 0, 61, 27
1, 45678, Note_on_c, 0, 55, 33
1, 45704, Control_c, 0, 64, 127
1, 45713, Note_on_c, 0, 73, 46
1, 45733, Note_on_c, 0, 73, 0
1, 45757, Note_on_c, 0, 73, 43
1, 45759, Note_on_c, 0, 65, 0
1, 45763, Note_on_c, 0, 60, 0
1, 45768, Note_on_c, 0, 61, 0
1, 45771, Note_on_c, 0, 55, 0
1, 45777, Note_on_c, 0, 84, 0
1, 45778, Note_on_c, 0, 73, 0
1, 45795, Note_on_c, 0, 72, 30
1, 45810, Note_on_c, 0, 72, 0
1, 45837, Note_on_c, 0, 72, 57
1, 45839, Control_c, 0, 64, 0
1, 45839, Note_on_c, 0, 65, 33
1, 45841, Note_on_c, 0, 60, 27
1, 45842, Note_on_c, 0, 61, 21
1, 45848, Note_on_c, 0, 55, 20
1, 45866, Control_c, 0, 64, 127
1, 45884, Note_on_c, 0, 70, 56
1, 45889, Note_on_c, 0, 72, 0
1, 45908, Note_on_c, 0, 70, 0
1, 45919, Note_on_c, 0, 65, 0
1, 45923, Note_on_c, 0, 60, 0
1, 45923, Note_on_c, 0, 70, 42
1, 45932, Note_on_c, 0, 61, 0
1, 45947, Note_on_c, 0, 70, 0
1, 45961, Note_on_c, 0, 69, 51
1, 45978, Note_on_c, 0, 55, 0
1, 45980, Note_on_c, 0, 69, 0
1, 46005, Note_on_c, 0, 69, 58
1, 46006, Note_on_c, 0, 60, 40
1, 46011, Note_on_c, 0, 55, 43
1, 46012, Control_c, 0, 64, 0
1, 46037, Control_c, 0, 64, 127
1, 46073, Note_on_c, 0, 60, 0
1, 46077, Note_on_c, 0, 55, 0
1, 46112, Note_on_c, 0, 69, 0
1, 46119, Note_on_c, 0, 67, 41
1, 46138, Note_on_c, 0, 67, 0
1, 46175, Note_on_c, 0, 69, 51
1, 46177, Note_on_c, 0, 60, 33
1, 46179, Note_on_c, 0, 50, 30
1, 46182, Note_on_c, 0, 57, 22
1, 46186, Control_c, 0, 64, 0
1, 46212, Control_c, 0, 64, 127
1, 46253, Note_on_c, 0, 60, 0
1, 46268, Note_on_c, 0, 57, 0
1, 46288, Note_on_c, 0, 69, 0
1, 46296, Note_on_c, 0, 50, 0
1, 46357, Note_on_c, 0, 67, 67
1, 46358, Note_on_c, 0, 64, 75
1, 46361, Note_on_c, 0, 48, 49
1, 46362, Note_on_c, 0, 57, 41
1, 46367, Control_c, 0, 64, 0
1, 46395, Control_c, 0, 64, 127
1, 46431, Note_on_c, 0, 64, 0
1, 46433, Note_on_c, 0, 67, 0
1, 46441, Note_on_c, 0, 62, 53
1, 46442, Note_on_c, 0, 65, 66
1, 46447, Note_on_c, 0, 57, 0
1, 46461, Note_on_c, 0, 62, 0
1, 46464, Note_on_c, 0, 48, 0
1, 46475, Note_on_c, 0, 65, 0
1, 46535, Note_on_c, 0, 76, 77
1, 46537, Note_on_c, 0, 73, 68
1, 46537, Note_on_c, 0, 69, 80
1, 46538, Note_on_c, 0, 64, 79
1, 46541, Control_c, 0, 64, 0
1, 46541, Note_on_c, 0, 57, 55
1, 46541, Note_on_c, 0, 47, 52
1, 46574, Control_c, 0, 64, 127
1, 46608, Note_on_c, 0, 64, 0
1, 46609, Note_on_c, 0, 69, 0
1, 46614, Note_on_c, 0, 73, 0
1, 46619, Note_on_c, 0, 76, 0
1, 46628, Note_on_c, 0, 74, 60
1, 46639, Note_on_c, 0, 57, 0
1, 46644, Note_on_c, 0, 47, 0
1, 46654, Note_on_c, 0, 74, 0
1, 46724, Control_c, 0, 64, 0
1, 46725, Note_on_c, 0, 79, 52
1, 46726, Note_on_c, 0, 76, 49
1, 46727, Note_on_c, 0, 72, 45
1, 46728, Note_on_c, 0, 67, 36
1, 46729, Note_on_c, 0, 46, 34
1, 46730, Note_on_c, 0, 34, 38
1, 46749, Control_c, 0, 64, 127
1, 46770, Note_on_c, 0, 34, 0
1, 46773, Note_on_c, 0, 46, 0
1, 46791, Note_on_c, 0, 67, 0
1, 46797, Note_on_c, 0, 72, 0
1, 46800, Note_on_c, 0, 76, 0
1, 46831, Note_on_c, 0, 79, 0
1, 46846, Note_on_c, 0, 76, 46
1, 46849, Note_on_c, 0, 62, 24
1, 46849, Note_on_c, 0, 67, 29
1, 46850, Note_on_c, 0, 72, 39
1, 46852, Note_on_c, 0, 56, 37
1, 46919, Note_on_c, 0, 62, 0
1, 46929, Note_on_c, 0, 76, 0
1, 46933, Note_on_c, 0, 72, 0
1, 46933, Note_on_c, 0, 56, 0
1, 46938, Note_on_c, 0, 67, 0
1, 47001, Note_on_c, 0, 72, 57
1, 47003, Note_on_c, 0, 64, 42
1, 47003, Note_on_c, 0, 67, 49
1, 47004, Note_on_c, 0, 55, 36
1, 47006, Note_on_c, 0, 45, 25
1, 47008, Control_c, 0, 64, 0
1, 47025, Control_c, 0, 64, 127
1, 47045, Note_on_c, 0, 45, 0
1, 47055, Note_on_c, 0, 72, 0
1, 47056, Note_on_c, 0, 55, 0
1, 47057, Note_on_c, 0, 67, 0
1, 47068, Note_on_c, 0, 64, 0
1, 47116, Note_on_c, 0, 61, 45
1, 47116, Note_on_c, 0, 69, 46
1, 47118, Note_on_c, 0, 57, 36
1, 47118, Note_on_c, 0, 51, 38
1, 47119, Note_on_c, 0, 65, 47
1, 47126, Control_c, 0, 64, 0
1, 47155, Control_c, 0, 64, 127
1, 47183, Note_on_c, 0, 51, 0
1, 47184, Note_on_c, 0, 57, 0
1, 47190, Note_on_c, 0, 69, 0
1, 47192, Note_on_c, 0, 61, 0
1, 47192, Note_on_c, 0, 65, 0
1, 47263, Note_on_c, 0, 60, 43
1, 47263, Note_on_c, 0, 69, 46
1, 47265, Note_on_c, 0, 64, 40
1, 47266, Note_on_c, 0, 59, 34
1, 47266, Note_on_c, 0, 50, 37
1, 47267, Control_c, 0, 64, 0
1, 47267, Note_on_c, 0, 67, 36
1, 47290, Control_c, 0, 64, 127
1, 47295, Note_on_c, 0, 59, 0
1, 47307, Note_on_c, 0, 50, 0
1, 47333, Note_on_c, 0, 67, 0
1, 47348, Note_on_c, 0, 60, 0
1, 47350, Note_on_c, 0, 69, 0
1, 47362, Note_on_c, 0, 64, 0
1, 47440, Note_on_c, 0, 63, 36
1, 47440, Note_on_c, 0, 69, 32
1, 47440, Note_on_c, 0, 66, 36
1, 47442, Note_on_c, 0, 60, 29
1, 47443, Note_on_c, 0, 38, 32
1, 47444, Note_on_c, 0, 26, 32
1, 47576, Note_on_c, 0, 26, 0
1, 47593, Note_on_c, 0, 38, 0
1, 47639, Note_on_c, 0, 69, 0
1, 47658, Note_on_c, 0, 66, 0
1, 47671, Note_on_c, 0, 60, 0
1, 47699, Note_on_c, 0, 63, 0
1, 47886, Note_on_c, 0, 62, 34
1, 47889, Note_on_c, 0, 60, 39
1, 47889, Note_on_c, 0, 57, 37
1, 47890, Note_on_c, 0, 53, 18
1, 47891, Note_on_c, 0, 43, 31
1, 47892, Note_on_c, 0, 50, 30
1, 47902, Control_c, 0, 64, 0
1, 47934, Control_c, 0, 64, 127
1, 47971, Note_on_c, 0, 53, 0
1, 47981, Note_on_c, 0, 57, 0
1, 47988, Note_on_c, 0, 60, 0
1, 47991, Note_on_c, 0, 62, 0
1, 48090, Note_on_c, 0, 77, 68
1, 48094, Note_on_c, 0, 69, 62
1, 48138, Note_on_c, 0, 77, 0
1, 48140, Note_on_c, 0, 69, 0
1, 48172, Note_on_c, 0, 79, 64
1, 48176, Note_on_c, 0, 71, 57
1, 48236, Note_on_c, 0, 79, 0
1, 48242, Note_on_c, 0, 71, 0
1, 48297, Note_on_c, 0, 81, 55
1, 48298, Note_on_c, 0, 72, 53
1, 48354, Note_on_c, 0, 43, 0
1, 48369, Note_on_c, 0, 81, 0
1, 48377, Note_on_c, 0, 72, 0
1, 48390, Note_on_c, 0, 50, 0
1, 48515, Note_on_c, 0, 80, 45
1, 48515, Note_on_c, 0, 71, 35
1, 48521, Note_on_c, 0, 43, 34
1, 48524, Note_on_c, 0, 53, 31
1, 48524, Control_c, 0, 64, 0
1, 48555, Control_c, 0, 64, 127
1, 48597, Note_on_c, 0, 71, 0
1, 48633, Note_on_c, 0, 80, 0
1, 48998, Note_on_c, 0, 91, 68
1, 49060, Note_on_c, 0, 89, 64
1, 49201, Note_on_c, 0, 84, 52
1, 49203, Note_on_c, 0, 91, 0
1, 49393, Note_on_c, 0, 80, 47
1, 49394, Note_on_c, 0, 89, 0
1, 49396, Note_on_c, 0, 84, 0
1, 49443, Note_on_c, 0, 80, 0
1, 49450, Note_on_c, 0, 79, 57
1, 49490, Note_on_c, 0, 79, 0
1, 49494, Note_on_c, 0, 77, 45
1, 49507, Note_on_c, 0, 77, 0
1, 49537, Note_on_c, 0, 94, 77
1, 49576, Note_on_c, 0, 92, 64
1, 49610, Note_on_c, 0, 87, 63
1, 49629, Note_on_c, 0, 94, 0
1, 49638, Note_on_c, 0, 92, 0
1, 49642, Note_on_c, 0, 87, 0
1, 49644, Note_on_c, 0, 83, 51
1, 49672, Note_on_c, 0, 83, 0
1, 49676, Note_on_c, 0, 82, 48
1, 49689, Note_on_c, 0, 83, 29
1, 49712, Note_on_c, 0, 82, 0
1, 49715, Note_on_c, 0, 83, 0
1, 49718, Note_on_c, 0, 80, 64
1, 49769, Note_on_c, 0, 91, 57
1, 49855, Note_on_c, 0, 89, 54
1, 49860, Note_on_c, 0, 80, 0
1, 50059, Note_on_c, 0, 84, 47
1, 50104, Note_on_c, 0, 91, 0
1, 50105, Note_on_c, 0, 80, 54
1, 50106, Note_on_c, 0, 84, 0
1, 50107, Note_on_c, 0, 89, 0
1, 50144, Note_on_c, 0, 80, 0
1, 50149, Note_on_c, 0, 79, 52
1, 50188, Note_on_c, 0, 79, 0
1, 50188, Note_on_c, 0, 77, 37
1, 50213, Note_on_c, 0, 77, 0
1, 50221, Note_on_c, 0, 88, 68
1, 50250, Note_on_c, 0, 86, 59
1, 50278, Note_on_c, 0, 81, 67
1, 50292, Note_on_c, 0, 88, 0
1, 50295, Note_on_c, 0, 86, 0
1, 50298, Note_on_c, 0, 81, 0
1, 50303, Note_on_c, 0, 77, 54
1, 50332, Note_on_c, 0, 76, 54
1, 50333, Note_on_c, 0, 77, 0
1, 50379, Note_on_c, 0, 74, 40
1, 50391, Note_on_c, 0, 76, 0
1, 50428, Note_on_c, 0, 85, 57
1, 50441, Note_on_c, 0, 74, 0
1, 50469, Note_on_c, 0, 83, 45
1, 50514, Note_on_c, 0, 77, 32
1, 50553, Note_on_c, 0, 85, 0
1, 50556, Note_on_c, 0, 83, 0
1, 50558, Note_on_c, 0, 74, 28
1, 50563, Note_on_c, 0, 77, 0
1, 50609, Note_on_c, 0, 74, 0
1, 50613, Note_on_c, 0, 73, 43
1, 50703, Note_on_c, 0, 71, 32
1, 50763, Note_on_c, 0, 71, 0
1, 50808, Note_on_c, 0, 43, 33
1, 50810, Note_on_c, 0, 53, 24
1, 50810, Note_on_c, 0, 65, 47
1, 50810, Note_on_c, 0, 71, 50
1, 50811, Note_on_c, 0, 68, 40
1, 50811, Note_on_c, 0, 59, 50
1, 50815, Note_on_c, 0, 43, 0
1, 50817, Note_on_c, 0, 73, 0
1, 50839, Note_on_c, 0, 53, 0
1, 50840, Control_c, 0, 64, 0
1, 50862, Control_c, 0, 64, 127
1, 50930, Note_on_c, 0, 71, 0
1, 50931, Note_on_c, 0, 59, 0
1, 50931, Note_on_c, 0, 68, 0
1, 50965, Note_on_c, 0, 53, 0
1, 50973, Note_on_c, 0, 43, 0
1, 50994, Note_on_c, 0, 65, 0
1, 51128, Note_on_c, 0, 72, 40
1, 51129, Note_on_c, 0, 57, 32
1, 51129, Note_on_c, 0, 67, 40
1, 51130, Note_on_c, 0, 62, 32
1, 51131, Note_on_c, 0, 24, 40
1, 51132, Note_on_c, 0, 52, 31
1, 51134, Control_c, 0, 64, 0
1, 51179, Control_c, 0, 64, 127
1, 51200, Note_on_c, 0, 62, 0
1, 51202, Note_on_c, 0, 57, 0
1, 51210, Note_on_c, 0, 67, 0
1, 51218, Note_on_c, 0, 24, 0
1, 51220, Note_on_c, 0, 72, 0
1, 51230, Note_on_c, 0, 52, 0
1, 51426, Note_on_c, 0, 68, 31
1, 51426, Note_on_c, 0, 71, 38
1, 51426, Note_on_c, 0, 79, 36
1, 51427, Note_on_c, 0, 67, 33
1, 51431, Note_on_c, 0, 74, 22
1, 51443, Note_on_c, 0, 68, 0
1, 51444, Note_on_c, 0, 71, 0
1, 51444, Note_on_c, 0, 74, 0
1, 51449, Note_on_c, 0, 79, 0
1, 51455, Note_on_c, 0, 67, 0
1, 51487, Note_on_c, 0, 70, 39
1, 51488, Note_on_c, 0, 73, 42
1, 51489, Note_on_c, 0, 81, 40
1, 51489, Note_on_c, 0, 76, 40
1, 51492, Note_on_c, 0, 69, 35
1, 51503, Note_on_c, 0, 73, 0
1, 51504, Note_on_c, 0, 76, 0
1, 51505, Note_on_c, 0, 70, 0
1, 51505, Note_on_c, 0, 81, 0
1, 51517, Note_on_c, 0, 69, 0
1, 51551, Note_on_c, 0, 73, 45
1, 51553, Note_on_c, 0, 84, 47
1, 51553, Note_on_c, 0, 76, 45
1, 51558, Note_on_c, 0, 72, 29
1, 51574, Note_on_c, 0, 76, 0
1, 51578, Note_on_c, 0, 84, 0
1, 51580, Note_on_c, 0, 73, 0
1, 51590, Note_on_c, 0, 72, 0
1, 51615, Note_on_c, 0, 78, 38
1, 51617, Note_on_c, 0, 86, 49
1, 51617, Note_on_c, 0, 75, 35
1, 51618, Note_on_c, 0, 85, 25
1, 51622, Note_on_c, 0, 74, 34
1, 51636, Note_on_c, 0, 75, 0
1, 51637, Note_on_c, 0, 86, 0
1, 51638, Note_on_c, 0, 78, 0
1, 51638, Note_on_c, 0, 85, 0
1, 51648, Note_on_c, 0, 74, 0
1, 51682, Note_on_c, 0, 80, 35
1, 51682, Note_on_c, 0, 88, 36
1, 51683, Note_on_c, 0, 77, 32
1, 51684, Note_on_c, 0, 76, 35
1, 51687, Note_on_c, 0, 83, 40
1, 51704, Note_on_c, 0, 77, 0
1, 51707, Note_on_c, 0, 83, 0
1, 51709, Note_on_c, 0, 76, 0
1, 51712, Note_on_c, 0, 80, 0
1, 51715, Note_on_c, 0, 88, 0
1, 51763, Note_on_c, 0, 85, 56
1, 51764, Note_on_c, 0, 93, 57
1, 51766, Note_on_c, 0, 82, 37
1, 51767, Note_on_c, 0, 81, 28
1, 51768, Note_on_c, 0, 88, 44
1, 51791, Note_on_c, 0, 93, 0
1, 51795, Note_on_c, 0, 81, 0
1, 51796, Note_on_c, 0, 88, 0
1, 51800, Note_on_c, 0, 85, 0
1, 51805, Note_on_c, 0, 82, 0
1, 52075, Note_on_c, 0, 90, 55
1, 52078, Note_on_c, 0, 87, 40
1, 52080, Note_on_c, 0, 98, 22
1, 52083, Note_on_c, 0, 95, 27
1, 52084, Note_on_c, 0, 83, 25
1, 52098, Note_on_c, 0, 83, 0
1, 52108, Note_on_c, 0, 95, 0
1, 52112, Note_on_c, 0, 98, 0
1, 52123, Note_on_c, 0, 87, 0
1, 52131, Note_on_c, 0, 90, 0
1, 52241, Note_on_c, 0, 83, 34
1, 52243, Note_on_c, 0, 88, 37
1, 52243, Note_on_c, 0, 90, 32
1, 52243, Note_on_c, 0, 76, 30
1, 52243, Note_on_c, 0, 79, 32
1, 52268, Note_on_c, 0, 79, 0
1, 52271, Note_on_c, 0, 76, 0
1, 52340, Note_on_c, 0, 88, 0
1, 52347, Note_on_c, 0, 83, 0
1, 52348, Note_on_c, 0, 90, 0
1, 52366, Note_on_c, 0, 36, 36
1, 52403, Note_on_c, 0, 43, 35
1, 52428, Note_on_c, 0, 52, 31
1, 52450, Note_on_c, 0, 57, 30
1, 52458, Note_on_c, 0, 57, 0
1, 52459, Note_on_c, 0, 62, 48
1, 52473, Note_on_c, 0, 62, 0
1, 52478, Note_on_c, 0, 66, 46
1, 52483, Note_on_c, 0, 66, 0
1, 52494, Note_on_c, 0, 69, 66
1, 52503, Note_on_c, 0, 69, 0
1, 52512, Note_on_c, 0, 74, 58
1, 52518, Note_on_c, 0, 74, 0
1, 52538, Note_on_c, 0, 81, 72
1, 52550, Note_on_c, 0, 81, 0
1, 52550, Note_on_c, 0, 86, 59
1, 52561, Note_on_c, 0, 86, 0
1, 52565, Note_on_c, 0, 93, 55
1, 52569, Note_on_c, 0, 93, 0
1, 52578, Note_on_c, 0, 93, 69
1, 52595, Note_on_c, 0, 98, 41
1, 52602, Note_on_c, 0, 93, 0
1, 52603, Note_on_c, 0, 102, 55
1, 52617, Note_on_c, 0, 98, 0
1, 52618, Note_on_c, 0, 102, 0
1, 52618, Note_on_c, 0, 105, 44
1, 52633, Note_on_c, 0, 102, 55
1, 52643, Note_on_c, 0, 102, 0
1, 52659, Note_on_c, 0, 102, 59
1, 52670, Note_on_c, 0, 102, 0
1, 52687, Note_on_c, 0, 102, 36
1, 52693, Note_on_c, 0, 102, 0
1, 52712, Note_on_c, 0, 102, 43
1, 52722, Note_on_c, 0, 102, 0
1, 52740, Note_on_c, 0, 102, 56
1, 52751, Note_on_c, 0, 93, 1
1, 52752, Note_on_c, 0, 102, 0
1, 52770, Note_on_c, 0, 102, 42
1, 52782, Note_on_c, 0, 102, 0
1, 52799, Note_on_c, 0, 102, 37
1, 52814, Note_on_c, 0, 102, 0
1, 52831, Note_on_c, 0, 102, 43
1, 52847, Note_on_c, 0, 102, 0
1, 52865, Note_on_c, 0, 102, 42
1, 52882, Note_on_c, 0, 102, 0
1, 52896, Note_on_c, 0, 102, 34
1, 52913, Note_on_c, 0, 102, 0
1, 52931, Note_on_c, 0, 102, 38
1, 52946, Note_on_c, 0, 102, 0
1, 52962, Note_on_c, 0, 102, 37
1, 52979, Note_on_c, 0, 102, 0
1, 53002, Note_on_c, 0, 102, 33
1, 53033, Note_on_c, 0, 102, 0
1, 53037, Note_on_c, 0, 36, 0
1, 53038, Note_on_c, 0, 105, 0
1, 53038, Note_on_c, 0, 93, 0
1, 53042, Note_on_c, 0, 43, 0
1, 53042, Note_on_c, 0, 52, 0
1, 53125, Control_c, 0, 64, 0
1, 53125, End_track
0, 0, End_of_file
