0, 0, Header, 1, 2, 960
1, 0, Start_track
1, 0, Title_t, "My Shining Hour solo "
1, 0, Text_t, "dougmck@tpg.com.au - improvised solo piano version\012"
1, 0, Time_signature, 4, 2, 24, 8
1, 0, Key_signature, 0, "major"
1, 0, Tempo, 400000
1, 1664, Marker_t, "Diatonic I,ii,iii chords follow melody"
1, 44240, Marker_t, "Deliberate dissonance - "
1, 55124, Marker_t, "Staccato LH arpeggios with wide intervals - No pedal"
1, 71504, Marker_t, "Gradually back to legato"
1, 100000, Marker_t, "More staccato type playing"
1, 180528, Marker_t, "Little chord vamp figure on turnaround sets tempo - C to Gm7"
1, 198512, Marker_t, "Second chorus begins with LH walking bass lines  - in 2"
1, 202825, Marker_t, "Hold each bass note for its full value"
1, 206198, Marker_t, " RH  plays  chords under melody"
1, 264960, Marker_t, "LH Begins walking in 4"
1, 275015, Marker_t, "Melody played as 8th noteschords  - note slight crescendo in each group"
1, 322560, Marker_t, "Same vamp figure as above"
1, 351616, Marker_t, "Finish with brief quote from melody in the first measure"
1, 351616, End_track
2, 0, Start_track
2, 0, Title_t, "MIDI 1"
2, 0, Control_c, 0, 64, 127
2, 1801, Control_c, 0, 64, 0
2, 1945, Note_on_c, 0, 64, 61
2, 1951, Note_on_c, 0, 52, 55
2, 1953, Note_on_c, 0, 59, 60
2, 2010, Note_on_c, 0, 43, 32
2, 2046, Note_on_c, 0, 36, 36
2, 2204, Control_c, 0, 64, 127
2, 2692, Note_on_c, 0, 52, 0
2, 2749, Note_on_c, 0, 36, 0
2, 2764, Note_on_c, 0, 43, 0
2, 2773, Note_on_c, 0, 59, 0
2, 2804, Note_on_c, 0, 64, 0
2, 3168, Note_on_c, 0, 65, 74
2, 3191, Note_on_c, 0, 60, 62
2, 3193, Note_on_c, 0, 53, 68
2, 3204, Note_on_c, 0, 38, 45
2, 3208, Note_on_c, 0, 45, 50
2, 3222, Control_c, 0, 64, 0
2, 3560, Control_c, 0, 64, 127
2, 3753, Note_on_c, 0, 38, 0
2, 3778, Note_on_c, 0, 53, 0
2, 3807, Note_on_c, 0, 45, 0
2, 3818, Note_on_c, 0, 60, 0
2, 3905, Note_on_c, 0, 65, 0
2, 4682, Control_c, 0, 64, 0
2, 4726, Note_on_c, 0, 67, 55
2, 4754, Note_on_c, 0, 62, 53
2, 4758, Note_on_c, 0, 55, 38
2, 4783, Note_on_c, 0, 47, 33
2, 4787, Note_on_c, 0, 40, 36
2, 5615, Control_c, 0, 64, 127
2, 6202, Note_on_c, 0, 55, 0
2, 6591, Note_on_c, 0, 67, 0
2, 6745, Note_on_c, 0, 62, 0
2, 7518, Note_on_c, 0, 40, 0
2, 7628, Note_on_c, 0, 47, 0
2, 7778, Note_on_c, 0, 72, 90
2, 8817, Note_on_c, 0, 72, 0
2, 9155, Note_on_c, 0, 72, 74
2, 9185, Note_on_c, 0, 61, 52
2, 9191, Note_on_c, 0, 69, 70
2, 9193, Note_on_c, 0, 65, 71
2, 9204, Note_on_c, 0, 55, 49
2, 9242, Control_c, 0, 64, 0
2, 9772, Control_c, 0, 64, 127
2, 9932, Note_on_c, 0, 72, 0
2, 10192, Note_on_c, 0, 72, 75
2, 10378, Note_on_c, 0, 69, 0
2, 10384, Note_on_c, 0, 65, 0
2, 10481, Note_on_c, 0, 55, 0
2, 10522, Note_on_c, 0, 61, 0
2, 10583, Note_on_c, 0, 72, 0
2, 11269, Note_on_c, 0, 76, 62
2, 11275, Control_c, 0, 64, 0
2, 11278, Note_on_c, 0, 71, 54
2, 11292, Note_on_c, 0, 68, 44
2, 11295, Note_on_c, 0, 64, 46
2, 11318, Note_on_c, 0, 54, 39
2, 11324, Note_on_c, 0, 60, 30
2, 12144, Control_c, 0, 64, 127
2, 12847, Note_on_c, 0, 50, 24
2, 13445, Note_on_c, 0, 60, 0
2, 13844, Note_on_c, 0, 64, 0
2, 14034, Note_on_c, 0, 68, 0
2, 14127, Note_on_c, 0, 71, 0
2, 14237, Note_on_c, 0, 69, 53
2, 14256, Note_on_c, 0, 60, 28
2, 14266, Note_on_c, 0, 64, 35
2, 14323, Control_c, 0, 64, 0
2, 14642, Control_c, 0, 64, 127
2, 15312, Note_on_c, 0, 76, 0
2, 15385, Note_on_c, 0, 64, 0
2, 15485, Note_on_c, 0, 76, 83
2, 16260, Note_on_c, 0, 50, 0
2, 16325, Note_on_c, 0, 54, 0
2, 16387, Note_on_c, 0, 60, 0
2, 16714, Note_on_c, 0, 69, 0
2, 16820, Note_on_c, 0, 76, 0
2, 17113, Note_on_c, 0, 76, 88
2, 17119, Control_c, 0, 64, 0
2, 17134, Note_on_c, 0, 69, 80
2, 17145, Note_on_c, 0, 65, 74
2, 17149, Note_on_c, 0, 72, 64
2, 17149, Note_on_c, 0, 64, 62
2, 17187, Note_on_c, 0, 67, 39
2, 17259, Note_on_c, 0, 67, 0
2, 17500, Control_c, 0, 64, 127
2, 18613, Note_on_c, 0, 74, 58
2, 18644, Note_on_c, 0, 62, 56
2, 18684, Note_on_c, 0, 64, 0
2, 18735, Note_on_c, 0, 76, 0
2, 18915, Note_on_c, 0, 62, 0
2, 19320, Note_on_c, 0, 74, 0
2, 19381, Note_on_c, 0, 69, 0
2, 19419, Note_on_c, 0, 65, 0
2, 19457, Note_on_c, 0, 72, 0
2, 20718, Control_c, 0, 64, 0
2, 20722, Note_on_c, 0, 65, 45
2, 20744, Note_on_c, 0, 60, 42
2, 20754, Note_on_c, 0, 57, 38
2, 20769, Note_on_c, 0, 67, 33
2, 20777, Note_on_c, 0, 43, 32
2, 20788, Note_on_c, 0, 53, 32
2, 21354, Control_c, 0, 64, 127
2, 22114, Note_on_c, 0, 60, 0
2, 22186, Note_on_c, 0, 57, 0
2, 22357, Note_on_c, 0, 53, 0
2, 22944, Note_on_c, 0, 65, 0
2, 22972, Note_on_c, 0, 61, 48
2, 23006, Note_on_c, 0, 59, 44
2, 23010, Note_on_c, 0, 53, 36
2, 23048, Control_c, 0, 64, 0
2, 23662, Control_c, 0, 64, 127
2, 24110, Note_on_c, 0, 43, 0
2, 24402, Note_on_c, 0, 53, 0
2, 25158, Note_on_c, 0, 61, 0
2, 25187, Note_on_c, 0, 62, 63
2, 25924, Note_on_c, 0, 59, 0
2, 26203, Note_on_c, 0, 62, 0
2, 26271, Note_on_c, 0, 67, 0
2, 26837, Control_c, 0, 64, 0
2, 26862, Note_on_c, 0, 62, 58
2, 26879, Note_on_c, 0, 36, 53
2, 26902, Note_on_c, 0, 59, 38
2, 27282, Control_c, 0, 64, 127
2, 27707, Control_c, 0, 64, 0
2, 27815, Note_on_c, 0, 64, 66
2, 27867, Note_on_c, 0, 62, 0
2, 27876, Control_c, 0, 64, 127
2, 27891, Note_on_c, 0, 59, 0
2, 27899, Note_on_c, 0, 43, 40
2, 28060, Note_on_c, 0, 64, 0
2, 28503, Note_on_c, 0, 36, 0
2, 28738, Note_on_c, 0, 76, 95
2, 28742, Note_on_c, 0, 52, 54
2, 28744, Note_on_c, 0, 43, 0
2, 28915, Note_on_c, 0, 52, 0
2, 29639, Note_on_c, 0, 60, 51
2, 30598, Note_on_c, 0, 67, 46
2, 30651, Note_on_c, 0, 64, 30
2, 31333, Note_on_c, 0, 60, 0
2, 31779, Note_on_c, 0, 67, 0
2, 31855, Note_on_c, 0, 76, 0
2, 32474, Note_on_c, 0, 60, 33
2, 32744, Note_on_c, 0, 64, 0
2, 33346, Note_on_c, 0, 77, 91
2, 33764, Note_on_c, 0, 60, 0
2, 33853, Note_on_c, 0, 77, 0
2, 34011, Note_on_c, 0, 77, 77
2, 34425, Note_on_c, 0, 77, 0
2, 34609, Control_c, 0, 64, 0
2, 34658, Note_on_c, 0, 79, 84
2, 34687, Note_on_c, 0, 45, 46
2, 35074, Control_c, 0, 64, 127
2, 35397, Note_on_c, 0, 52, 42
2, 35414, Note_on_c, 0, 45, 0
2, 35481, Note_on_c, 0, 72, 57
2, 35487, Note_on_c, 0, 52, 0
2, 36115, Note_on_c, 0, 72, 0
2, 36398, Note_on_c, 0, 72, 51
2, 36432, Note_on_c, 0, 60, 33
2, 36440, Note_on_c, 0, 64, 32
2, 36463, Note_on_c, 0, 59, 31
2, 36571, Note_on_c, 0, 79, 0
2, 37416, Note_on_c, 0, 77, 62
2, 37559, Note_on_c, 0, 64, 0
2, 37597, Note_on_c, 0, 60, 0
2, 37606, Note_on_c, 0, 59, 0
2, 37783, Note_on_c, 0, 72, 0
2, 38066, Note_on_c, 0, 77, 0
2, 38681, Note_on_c, 0, 67, 26
2, 38683, Note_on_c, 0, 60, 22
2, 38685, Note_on_c, 0, 50, 31
2, 38696, Control_c, 0, 64, 0
2, 38896, Note_on_c, 0, 65, 1
2, 39395, Control_c, 0, 64, 127
2, 39625, Note_on_c, 0, 57, 33
2, 39652, Note_on_c, 0, 67, 0
2, 39745, Note_on_c, 0, 60, 0
2, 39935, Note_on_c, 0, 65, 0
2, 40641, Note_on_c, 0, 67, 50
2, 40645, Note_on_c, 0, 65, 53
2, 40677, Note_on_c, 0, 60, 24
2, 41602, Note_on_c, 0, 65, 0
2, 41617, Note_on_c, 0, 60, 0
2, 41629, Note_on_c, 0, 64, 52
2, 41720, Note_on_c, 0, 57, 0
2, 41859, Note_on_c, 0, 50, 0
2, 42318, Note_on_c, 0, 64, 0
2, 42377, Note_on_c, 0, 67, 0
2, 42816, Note_on_c, 0, 64, 33
2, 42827, Note_on_c, 0, 62, 48
2, 42860, Note_on_c, 0, 57, 30
2, 42877, Note_on_c, 0, 47, 36
2, 42888, Control_c, 0, 64, 0
2, 43460, Control_c, 0, 64, 127
2, 43853, Note_on_c, 0, 62, 0
2, 43938, Note_on_c, 0, 64, 0
2, 44565, Note_on_c, 0, 62, 55
2, 44573, Note_on_c, 0, 60, 58
2, 44698, Note_on_c, 0, 57, 0
2, 44928, Note_on_c, 0, 47, 0
2, 45127, Note_on_c, 0, 62, 0
2, 45365, Note_on_c, 0, 60, 0
2, 45845, Note_on_c, 0, 59, 46
2, 45864, Note_on_c, 0, 60, 48
2, 45872, Control_c, 0, 64, 0
2, 45921, Note_on_c, 0, 40, 38
2, 46069, Note_on_c, 0, 52, 12
2, 46381, Control_c, 0, 64, 127
2, 46605, Note_on_c, 0, 59, 0
2, 46692, Note_on_c, 0, 52, 0
2, 47006, Note_on_c, 0, 60, 0
2, 47555, Note_on_c, 0, 58, 54
2, 47568, Note_on_c, 0, 56, 36
2, 47610, Control_c, 0, 64, 0
2, 47623, Note_on_c, 0, 50, 26
2, 48181, Control_c, 0, 64, 127
2, 48544, Note_on_c, 0, 40, 0
2, 48780, Note_on_c, 0, 50, 0
2, 49148, Note_on_c, 0, 56, 0
2, 49365, Note_on_c, 0, 58, 0
2, 49579, Control_c, 0, 64, 0
2, 49606, Note_on_c, 0, 57, 44
2, 49632, Note_on_c, 0, 59, 50
2, 49676, Note_on_c, 0, 45, 35
2, 50236, Control_c, 0, 64, 127
2, 50531, Control_c, 0, 64, 0
2, 50533, Note_on_c, 0, 57, 0
2, 50590, Note_on_c, 0, 59, 0
2, 50694, Note_on_c, 0, 60, 48
2, 50696, Note_on_c, 0, 52, 44
2, 50742, Note_on_c, 0, 59, 72
2, 50808, Control_c, 0, 64, 127
2, 50964, Note_on_c, 0, 59, 0
2, 51611, Note_on_c, 0, 60, 0
2, 53720, Note_on_c, 0, 72, 75
2, 53794, Note_on_c, 0, 64, 70
2, 53860, Note_on_c, 0, 45, 0
2, 53889, Note_on_c, 0, 57, 28
2, 53934, Note_on_c, 0, 52, 0
2, 54388, Note_on_c, 0, 72, 0
2, 54468, Note_on_c, 0, 64, 0
2, 54529, Note_on_c, 0, 57, 0
2, 54758, Note_on_c, 0, 74, 77
2, 54787, Note_on_c, 0, 60, 32
2, 54802, Note_on_c, 0, 65, 64
2, 55060, Note_on_c, 0, 60, 0
2, 55178, Note_on_c, 0, 74, 0
2, 55334, Note_on_c, 0, 65, 0
2, 55528, Control_c, 0, 64, 0
2, 55596, Note_on_c, 0, 76, 73
2, 55655, Note_on_c, 0, 54, 42
2, 56191, Note_on_c, 0, 54, 0
2, 56227, Note_on_c, 0, 60, 36
2, 56382, Note_on_c, 0, 60, 0
2, 56612, Note_on_c, 0, 76, 0
2, 56874, Note_on_c, 0, 64, 28
2, 57389, Note_on_c, 0, 42, 43
2, 57718, Note_on_c, 0, 42, 0
2, 58308, Note_on_c, 0, 60, 32
2, 58713, Note_on_c, 0, 60, 0
2, 59005, Note_on_c, 0, 64, 0
2, 59117, Note_on_c, 0, 69, 56
2, 59613, Note_on_c, 0, 69, 0
2, 59721, Note_on_c, 0, 74, 75
2, 60137, Note_on_c, 0, 47, 46
2, 60219, Note_on_c, 0, 47, 0
2, 60293, Control_c, 0, 64, 127
2, 60950, Control_c, 0, 64, 0
2, 60973, Note_on_c, 0, 62, 24
2, 61662, Note_on_c, 0, 65, 38
2, 61776, Control_c, 0, 64, 127
2, 61830, Note_on_c, 0, 74, 0
2, 62392, Note_on_c, 0, 65, 0
2, 62416, Note_on_c, 0, 74, 58
2, 62542, Note_on_c, 0, 62, 0
2, 62601, Control_c, 0, 64, 0
2, 62732, Note_on_c, 0, 74, 0
2, 62834, Note_on_c, 0, 77, 72
2, 63093, Note_on_c, 0, 77, 0
2, 63256, Note_on_c, 0, 76, 71
2, 63480, Note_on_c, 0, 76, 0
2, 63624, Note_on_c, 0, 52, 43
2, 63668, Note_on_c, 0, 74, 42
2, 63740, Note_on_c, 0, 52, 0
2, 63786, Control_c, 0, 64, 127
2, 63788, Note_on_c, 0, 74, 0
2, 64105, Note_on_c, 0, 72, 40
2, 64253, Control_c, 0, 64, 0
2, 64405, Note_on_c, 0, 72, 0
2, 64490, Note_on_c, 0, 71, 42
2, 64745, Note_on_c, 0, 65, 25
2, 64766, Note_on_c, 0, 71, 0
2, 64834, Note_on_c, 0, 65, 0
2, 64952, Note_on_c, 0, 69, 39
2, 65231, Note_on_c, 0, 69, 0
2, 65423, Note_on_c, 0, 74, 58
2, 65812, Note_on_c, 0, 74, 0
2, 65900, Note_on_c, 0, 68, 46
2, 65947, Note_on_c, 0, 62, 26
2, 66004, Note_on_c, 0, 56, 28
2, 66093, Note_on_c, 0, 62, 0
2, 66240, Note_on_c, 0, 56, 0
2, 66264, Note_on_c, 0, 68, 0
2, 66348, Note_on_c, 0, 65, 46
2, 66587, Note_on_c, 0, 65, 0
2, 66802, Note_on_c, 0, 46, 39
2, 66834, Note_on_c, 0, 64, 36
2, 67201, Note_on_c, 0, 64, 0
2, 67294, Note_on_c, 0, 62, 41
2, 67370, Note_on_c, 0, 46, 0
2, 67617, Note_on_c, 0, 62, 0
2, 67742, Note_on_c, 0, 60, 50
2, 67776, Note_on_c, 0, 45, 36
2, 68363, Note_on_c, 0, 52, 24
2, 68777, Note_on_c, 0, 60, 0
2, 68809, Note_on_c, 0, 59, 45
2, 69203, Note_on_c, 0, 59, 0
2, 69303, Note_on_c, 0, 60, 42
2, 69539, Note_on_c, 0, 60, 0
2, 69884, Note_on_c, 0, 60, 46
2, 69907, Control_c, 0, 64, 127
2, 69909, Note_on_c, 0, 55, 32
2, 70395, Note_on_c, 0, 60, 0
2, 70498, Note_on_c, 0, 59, 35
2, 70815, Note_on_c, 0, 59, 0
2, 70845, Note_on_c, 0, 45, 0
2, 71043, Note_on_c, 0, 60, 47
2, 71085, Note_on_c, 0, 45, 33
2, 71337, Note_on_c, 0, 60, 0
2, 71419, Note_on_c, 0, 55, 0
2, 71440, Note_on_c, 0, 52, 0
2, 71624, Note_on_c, 0, 62, 87
2, 71654, Note_on_c, 0, 45, 0
2, 72492, Note_on_c, 0, 62, 0
2, 72562, Note_on_c, 0, 64, 61
2, 72568, Note_on_c, 0, 60, 59
2, 72574, Control_c, 0, 64, 0
2, 72583, Note_on_c, 0, 55, 61
2, 72597, Note_on_c, 0, 50, 41
2, 72604, Note_on_c, 0, 38, 35
2, 73168, Control_c, 0, 64, 127
2, 73341, Note_on_c, 0, 60, 0
2, 73421, Note_on_c, 0, 55, 0
2, 73506, Note_on_c, 0, 60, 61
2, 73694, Note_on_c, 0, 50, 0
2, 73844, Note_on_c, 0, 60, 0
2, 73867, Note_on_c, 0, 64, 0
2, 74722, Note_on_c, 0, 66, 60
2, 74733, Note_on_c, 0, 57, 59
2, 74754, Note_on_c, 0, 50, 34
2, 74777, Control_c, 0, 64, 0
2, 75582, Note_on_c, 0, 38, 0
2, 75582, Control_c, 0, 64, 127
2, 75821, Note_on_c, 0, 57, 0
2, 75987, Note_on_c, 0, 38, 35
2, 76051, Note_on_c, 0, 60, 17
2, 76055, Note_on_c, 0, 57, 20
2, 76847, Note_on_c, 0, 50, 0
2, 76929, Note_on_c, 0, 57, 0
2, 76963, Note_on_c, 0, 60, 0
2, 77014, Note_on_c, 0, 38, 0
2, 77271, Note_on_c, 0, 66, 0
2, 78948, Control_c, 0, 64, 0
2, 78961, Note_on_c, 0, 60, 53
2, 78965, Note_on_c, 0, 67, 63
2, 78988, Note_on_c, 0, 44, 53
2, 78997, Note_on_c, 0, 53, 54
2, 78999, Note_on_c, 0, 55, 56
2, 79005, Note_on_c, 0, 32, 45
2, 79521, Control_c, 0, 64, 127
2, 79611, Note_on_c, 0, 53, 0
2, 79628, Note_on_c, 0, 55, 0
2, 79673, Note_on_c, 0, 60, 0
2, 79797, Note_on_c, 0, 67, 0
2, 80040, Note_on_c, 0, 32, 0
2, 80218, Note_on_c, 0, 44, 0
2, 80551, Note_on_c, 0, 79, 82
2, 81593, Note_on_c, 0, 72, 64
2, 81605, Note_on_c, 0, 65, 64
2, 81614, Note_on_c, 0, 67, 60
2, 83595, Note_on_c, 0, 60, 34
2, 84359, Note_on_c, 0, 65, 0
2, 84363, Note_on_c, 0, 67, 0
2, 84710, Note_on_c, 0, 72, 0
2, 84818, Note_on_c, 0, 65, 33
2, 84828, Note_on_c, 0, 67, 27
2, 85464, Note_on_c, 0, 72, 53
2, 85692, Note_on_c, 0, 60, 0
2, 85749, Note_on_c, 0, 65, 0
2, 85895, Note_on_c, 0, 72, 0
2, 85935, Note_on_c, 0, 67, 0
2, 86053, Note_on_c, 0, 79, 0
2, 86228, Note_on_c, 0, 71, 51
2, 86273, Note_on_c, 0, 73, 44
2, 86298, Note_on_c, 0, 65, 40
2, 86315, Control_c, 0, 64, 0
2, 86987, Note_on_c, 0, 73, 0
2, 87016, Note_on_c, 0, 74, 60
2, 87041, Note_on_c, 0, 62, 33
2, 87071, Note_on_c, 0, 65, 0
2, 87185, Control_c, 0, 64, 127
2, 87238, Note_on_c, 0, 62, 0
2, 87762, Note_on_c, 0, 74, 0
2, 87829, Note_on_c, 0, 43, 36
2, 87842, Control_c, 0, 64, 0
2, 87874, Note_on_c, 0, 75, 49
2, 87988, Note_on_c, 0, 43, 0
2, 88138, Control_c, 0, 64, 127
2, 88661, Note_on_c, 0, 75, 0
2, 88666, Note_on_c, 0, 71, 0
2, 88748, Note_on_c, 0, 64, 28
2, 88775, Note_on_c, 0, 59, 36
2, 88778, Note_on_c, 0, 76, 58
2, 88875, Note_on_c, 0, 53, 15
2, 89118, Note_on_c, 0, 53, 0
2, 89126, Note_on_c, 0, 59, 0
2, 89251, Note_on_c, 0, 64, 0
2, 89536, Control_c, 0, 64, 0
2, 89631, Note_on_c, 0, 67, 41
2, 89671, Note_on_c, 0, 62, 40
2, 89673, Note_on_c, 0, 77, 64
2, 89684, Note_on_c, 0, 64, 30
2, 89705, Control_c, 0, 64, 127
2, 89992, Note_on_c, 0, 67, 0
2, 90100, Note_on_c, 0, 64, 0
2, 90133, Note_on_c, 0, 62, 0
2, 90180, Note_on_c, 0, 77, 0
2, 90345, Note_on_c, 0, 76, 0
2, 90518, Note_on_c, 0, 62, 49
2, 90530, Control_c, 0, 64, 0
2, 90537, Note_on_c, 0, 58, 55
2, 90545, Note_on_c, 0, 79, 72
2, 90562, Note_on_c, 0, 67, 66
2, 90571, Note_on_c, 0, 57, 25
2, 90805, Control_c, 0, 64, 127
2, 90900, Note_on_c, 0, 62, 0
2, 90932, Note_on_c, 0, 58, 0
2, 90938, Note_on_c, 0, 57, 0
2, 91221, Note_on_c, 0, 79, 0
2, 91270, Note_on_c, 0, 67, 0
2, 91656, Note_on_c, 0, 50, 49
2, 91682, Note_on_c, 0, 81, 62
2, 91694, Control_c, 0, 64, 0
2, 91760, Note_on_c, 0, 69, 30
2, 91971, Control_c, 0, 64, 127
2, 92408, Note_on_c, 0, 69, 0
2, 92455, Note_on_c, 0, 81, 0
2, 92771, Note_on_c, 0, 82, 67
2, 92828, Note_on_c, 0, 70, 29
2, 92833, Note_on_c, 0, 50, 0
2, 93259, Note_on_c, 0, 82, 0
2, 93289, Note_on_c, 0, 70, 0
2, 93939, Note_on_c, 0, 43, 24
2, 93952, Note_on_c, 0, 36, 24
2, 93971, Note_on_c, 0, 72, 47
2, 94024, Control_c, 0, 64, 0
2, 94041, Note_on_c, 0, 52, 44
2, 94087, Note_on_c, 0, 84, 53
2, 94467, Note_on_c, 0, 36, 0
2, 94512, Control_c, 0, 64, 127
2, 94518, Note_on_c, 0, 43, 0
2, 94708, Note_on_c, 0, 52, 0
2, 94767, Note_on_c, 0, 84, 0
2, 95067, Note_on_c, 0, 72, 0
2, 95365, Note_on_c, 0, 81, 68
2, 95380, Control_c, 0, 64, 0
2, 95420, Note_on_c, 0, 73, 40
2, 95424, Note_on_c, 0, 69, 50
2, 95435, Note_on_c, 0, 76, 61
2, 95456, Note_on_c, 0, 64, 47
2, 95502, Note_on_c, 0, 58, 52
2, 95675, Control_c, 0, 64, 127
2, 96442, Note_on_c, 0, 64, 0
2, 96831, Note_on_c, 0, 69, 0
2, 97150, Note_on_c, 0, 69, 41
2, 97154, Note_on_c, 0, 64, 24
2, 97198, Note_on_c, 0, 81, 0
2, 97876, Note_on_c, 0, 76, 0
2, 98431, Note_on_c, 0, 69, 0
2, 98556, Note_on_c, 0, 79, 68
2, 98658, Note_on_c, 0, 73, 0
2, 98940, Note_on_c, 0, 64, 0
2, 99107, Note_on_c, 0, 79, 0
2, 99796, Note_on_c, 0, 58, 0
2, 99859, Note_on_c, 0, 76, 65
2, 99868, Control_c, 0, 64, 0
2, 100398, Note_on_c, 0, 61, 49
2, 100856, Note_on_c, 0, 61, 0
2, 100875, Note_on_c, 0, 76, 0
2, 100941, Note_on_c, 0, 64, 34
2, 101431, Note_on_c, 0, 69, 43
2, 101669, Note_on_c, 0, 64, 0
2, 101701, Note_on_c, 0, 69, 0
2, 101878, Note_on_c, 0, 73, 42
2, 102206, Note_on_c, 0, 73, 0
2, 102326, Note_on_c, 0, 74, 65
2, 102679, Note_on_c, 0, 62, 38
2, 103276, Note_on_c, 0, 62, 0
2, 103338, Note_on_c, 0, 57, 33
2, 103517, Note_on_c, 0, 74, 0
2, 103845, Note_on_c, 0, 57, 0
2, 104459, Note_on_c, 0, 58, 45
2, 104759, Note_on_c, 0, 58, 0
2, 104818, Note_on_c, 0, 69, 61
2, 105103, Note_on_c, 0, 69, 0
2, 105198, Note_on_c, 0, 72, 75
2, 105264, Note_on_c, 0, 57, 26
2, 105405, Note_on_c, 0, 57, 0
2, 105555, Note_on_c, 0, 72, 0
2, 105606, Note_on_c, 0, 69, 66
2, 106024, Note_on_c, 0, 64, 39
2, 106083, Note_on_c, 0, 48, 27
2, 106117, Note_on_c, 0, 69, 0
2, 106305, Note_on_c, 0, 64, 0
2, 106432, Note_on_c, 0, 60, 26
2, 106704, Note_on_c, 0, 60, 0
2, 106782, Note_on_c, 0, 48, 0
2, 106791, Note_on_c, 0, 67, 65
2, 106903, Note_on_c, 0, 41, 25
2, 107122, Note_on_c, 0, 67, 0
2, 107230, Note_on_c, 0, 64, 36
2, 107450, Note_on_c, 0, 64, 0
2, 107602, Note_on_c, 0, 65, 63
2, 107623, Note_on_c, 0, 48, 22
2, 107908, Note_on_c, 0, 65, 0
2, 108012, Note_on_c, 0, 60, 25
2, 108132, Note_on_c, 0, 48, 0
2, 108335, Note_on_c, 0, 60, 0
2, 108379, Note_on_c, 0, 62, 60
2, 108717, Note_on_c, 0, 62, 0
2, 108850, Note_on_c, 0, 57, 22
2, 109063, Note_on_c, 0, 57, 0
2, 109255, Note_on_c, 0, 60, 32
2, 109636, Note_on_c, 0, 60, 0
2, 109718, Note_on_c, 0, 58, 47
2, 110096, Note_on_c, 0, 58, 0
2, 110246, Note_on_c, 0, 57, 32
2, 110679, Note_on_c, 0, 57, 0
2, 110778, Note_on_c, 0, 55, 34
2, 111746, Control_c, 0, 64, 127
2, 112449, Note_on_c, 0, 41, 0
2, 112892, Note_on_c, 0, 54, 36
2, 112899, Note_on_c, 0, 55, 0
2, 113315, Note_on_c, 0, 53, 50
2, 113317, Note_on_c, 0, 54, 0
2, 113716, Control_c, 0, 64, 0
2, 113750, Note_on_c, 0, 53, 0
2, 113813, Note_on_c, 0, 60, 43
2, 113843, Note_on_c, 0, 41, 37
2, 114096, Control_c, 0, 64, 127
2, 114312, Note_on_c, 0, 60, 0
2, 114451, Note_on_c, 0, 48, 36
2, 114580, Note_on_c, 0, 41, 0
2, 114641, Note_on_c, 0, 48, 0
2, 115116, Note_on_c, 0, 72, 74
2, 115140, Note_on_c, 0, 60, 45
2, 115820, Note_on_c, 0, 63, 59
2, 116164, Note_on_c, 0, 63, 0
2, 116432, Note_on_c, 0, 72, 0
2, 116607, Note_on_c, 0, 63, 50
2, 116753, Note_on_c, 0, 60, 0
2, 117395, Note_on_c, 0, 60, 33
2, 117401, Note_on_c, 0, 63, 0
2, 118025, Note_on_c, 0, 63, 39
2, 118035, Note_on_c, 0, 72, 85
2, 118098, Note_on_c, 0, 60, 0
2, 118411, Note_on_c, 0, 63, 0
2, 118527, Note_on_c, 0, 60, 29
2, 118624, Note_on_c, 0, 60, 0
2, 118861, Note_on_c, 0, 72, 0
2, 119152, Note_on_c, 0, 72, 64
2, 119222, Control_c, 0, 64, 0
2, 119856, Note_on_c, 0, 46, 52
2, 120175, Control_c, 0, 64, 127
2, 120379, Note_on_c, 0, 56, 56
2, 120439, Note_on_c, 0, 46, 0
2, 120538, Note_on_c, 0, 56, 0
2, 120962, Note_on_c, 0, 62, 59
2, 121106, Note_on_c, 0, 72, 0
2, 121638, Note_on_c, 0, 79, 80
2, 121661, Note_on_c, 0, 67, 55
2, 121944, Note_on_c, 0, 62, 0
2, 122375, Note_on_c, 0, 67, 0
2, 122388, Note_on_c, 0, 62, 36
2, 123205, Note_on_c, 0, 68, 35
2, 123216, Note_on_c, 0, 67, 31
2, 123638, Note_on_c, 0, 62, 0
2, 123909, Note_on_c, 0, 67, 0
2, 123940, Note_on_c, 0, 79, 0
2, 123991, Note_on_c, 0, 62, 24
2, 124162, Note_on_c, 0, 68, 0
2, 124187, Note_on_c, 0, 62, 0
2, 125256, Control_c, 0, 64, 0
2, 125368, Note_on_c, 0, 52, 46
2, 125396, Note_on_c, 0, 84, 71
2, 125419, Note_on_c, 0, 83, 35
2, 125457, Note_on_c, 0, 52, 0
2, 125499, Note_on_c, 0, 83, 0
2, 125573, Control_c, 0, 64, 127
2, 126173, Note_on_c, 0, 56, 31
2, 126204, Note_on_c, 0, 67, 22
2, 126244, Note_on_c, 0, 62, 26
2, 126460, Note_on_c, 0, 84, 0
2, 126819, Note_on_c, 0, 72, 60
2, 127186, Note_on_c, 0, 72, 0
2, 127303, Note_on_c, 0, 76, 80
2, 127355, Note_on_c, 0, 67, 0
2, 127497, Note_on_c, 0, 62, 0
2, 127537, Note_on_c, 0, 56, 0
2, 127649, Note_on_c, 0, 76, 0
2, 127835, Note_on_c, 0, 55, 53
2, 127845, Note_on_c, 0, 84, 82
2, 127860, Control_c, 0, 64, 0
2, 127883, Note_on_c, 0, 77, 74
2, 128416, Note_on_c, 0, 61, 59
2, 128432, Control_c, 0, 64, 127
2, 129034, Note_on_c, 0, 66, 59
2, 129037, Note_on_c, 0, 84, 0
2, 129053, Note_on_c, 0, 72, 68
2, 129535, Note_on_c, 0, 66, 0
2, 129607, Note_on_c, 0, 77, 0
2, 129609, Note_on_c, 0, 72, 0
2, 129668, Note_on_c, 0, 65, 57
2, 129674, Note_on_c, 0, 84, 80
2, 130103, Note_on_c, 0, 65, 0
2, 130128, Note_on_c, 0, 84, 0
2, 130147, Note_on_c, 0, 55, 0
2, 130418, Note_on_c, 0, 61, 0
2, 130443, Control_c, 0, 64, 0
2, 130464, Note_on_c, 0, 84, 56
2, 130466, Note_on_c, 0, 54, 63
2, 130471, Note_on_c, 0, 72, 55
2, 130498, Note_on_c, 0, 64, 37
2, 130523, Note_on_c, 0, 60, 35
2, 131089, Note_on_c, 0, 60, 0
2, 131100, Control_c, 0, 64, 127
2, 131332, Note_on_c, 0, 60, 30
2, 131402, Note_on_c, 0, 64, 0
2, 131818, Note_on_c, 0, 72, 0
2, 132133, Note_on_c, 0, 64, 34
2, 132156, Note_on_c, 0, 72, 48
2, 132224, Note_on_c, 0, 84, 0
2, 132616, Note_on_c, 0, 54, 0
2, 132914, Note_on_c, 0, 84, 49
2, 132933, Note_on_c, 0, 54, 33
2, 132963, Note_on_c, 0, 72, 0
2, 133094, Note_on_c, 0, 84, 0
2, 133144, Note_on_c, 0, 60, 0
2, 133216, Note_on_c, 0, 64, 0
2, 133429, Note_on_c, 0, 54, 0
2, 133725, Control_c, 0, 64, 0
2, 133827, Note_on_c, 0, 91, 49
2, 133875, Note_on_c, 0, 59, 37
2, 133877, Note_on_c, 0, 79, 31
2, 133892, Note_on_c, 0, 53, 37
2, 134000, Control_c, 0, 64, 127
2, 134120, Note_on_c, 0, 59, 0
2, 134253, Note_on_c, 0, 53, 0
2, 135018, Note_on_c, 0, 31, 33
2, 135846, Note_on_c, 0, 31, 0
2, 136283, Note_on_c, 0, 31, 47
2, 136435, Control_c, 0, 64, 0
2, 136562, Control_c, 0, 64, 127
2, 137373, Note_on_c, 0, 31, 0
2, 137670, Note_on_c, 0, 91, 0
2, 137727, Control_c, 0, 64, 0
2, 137770, Note_on_c, 0, 31, 44
2, 137854, Control_c, 0, 64, 127
2, 138340, Note_on_c, 0, 31, 0
2, 138384, Note_on_c, 0, 79, 0
2, 140651, Note_on_c, 0, 76, 72
2, 140904, Control_c, 0, 64, 0
2, 141073, Note_on_c, 0, 48, 45
2, 141170, Note_on_c, 0, 48, 0
2, 141174, Note_on_c, 0, 76, 0
2, 141554, Note_on_c, 0, 64, 42
2, 141958, Note_on_c, 0, 64, 0
2, 142144, Note_on_c, 0, 50, 41
2, 142503, Note_on_c, 0, 50, 0
2, 142788, Note_on_c, 0, 77, 61
2, 143324, Note_on_c, 0, 52, 46
2, 143394, Note_on_c, 0, 77, 0
2, 143415, Note_on_c, 0, 52, 0
2, 143981, Note_on_c, 0, 65, 48
2, 144433, Note_on_c, 0, 65, 0
2, 144661, Note_on_c, 0, 79, 52
2, 145079, Note_on_c, 0, 79, 0
2, 145956, Note_on_c, 0, 59, 35
2, 146209, Note_on_c, 0, 59, 0
2, 146594, Note_on_c, 0, 67, 40
2, 147276, Note_on_c, 0, 62, 36
2, 147907, Note_on_c, 0, 67, 0
2, 148150, Note_on_c, 0, 62, 0
2, 148182, Note_on_c, 0, 72, 71
2, 148777, Note_on_c, 0, 72, 0
2, 148843, Control_c, 0, 64, 127
2, 149584, Control_c, 0, 64, 0
2, 149836, Note_on_c, 0, 73, 25
2, 149962, Note_on_c, 0, 74, 66
2, 150026, Note_on_c, 0, 73, 0
2, 150174, Note_on_c, 0, 75, 82
2, 150254, Note_on_c, 0, 74, 0
2, 150412, Note_on_c, 0, 56, 44
2, 150421, Note_on_c, 0, 67, 34
2, 150427, Note_on_c, 0, 75, 0
2, 150444, Note_on_c, 0, 62, 53
2, 150448, Note_on_c, 0, 76, 82
2, 150792, Control_c, 0, 64, 127
2, 151213, Note_on_c, 0, 67, 0
2, 151248, Note_on_c, 0, 62, 0
2, 151384, Note_on_c, 0, 56, 0
2, 152081, Note_on_c, 0, 44, 36
2, 152387, Note_on_c, 0, 44, 0
2, 153056, Note_on_c, 0, 76, 0
2, 153388, Note_on_c, 0, 77, 83
2, 153411, Note_on_c, 0, 67, 54
2, 153447, Note_on_c, 0, 56, 35
2, 153449, Note_on_c, 0, 62, 40
2, 154083, Note_on_c, 0, 77, 0
2, 154085, Note_on_c, 0, 67, 0
2, 154089, Note_on_c, 0, 56, 0
2, 154119, Note_on_c, 0, 62, 0
2, 154294, Note_on_c, 0, 77, 69
2, 154313, Note_on_c, 0, 67, 55
2, 154315, Note_on_c, 0, 56, 59
2, 154336, Note_on_c, 0, 62, 52
2, 154566, Note_on_c, 0, 67, 0
2, 154653, Note_on_c, 0, 77, 0
2, 154716, Note_on_c, 0, 62, 0
2, 154904, Note_on_c, 0, 56, 0
2, 155217, Control_c, 0, 64, 0
2, 155227, Note_on_c, 0, 79, 68
2, 155255, Note_on_c, 0, 55, 51
2, 155257, Note_on_c, 0, 61, 59
2, 155268, Note_on_c, 0, 66, 49
2, 155282, Note_on_c, 0, 67, 60
2, 155572, Note_on_c, 0, 66, 0
2, 155648, Note_on_c, 0, 55, 0
2, 155663, Control_c, 0, 64, 127
2, 155667, Note_on_c, 0, 61, 0
2, 156197, Note_on_c, 0, 45, 55
2, 156267, Note_on_c, 0, 67, 0
2, 156294, Note_on_c, 0, 45, 0
2, 156455, Note_on_c, 0, 79, 0
2, 157386, Note_on_c, 0, 81, 60
2, 157439, Note_on_c, 0, 76, 57
2, 157443, Note_on_c, 0, 61, 40
2, 157447, Note_on_c, 0, 69, 41
2, 157466, Note_on_c, 0, 64, 38
2, 157490, Note_on_c, 0, 58, 35
2, 157496, Note_on_c, 0, 73, 21
2, 157504, Control_c, 0, 64, 0
2, 157544, Note_on_c, 0, 55, 32
2, 157800, Control_c, 0, 64, 127
2, 159481, Note_on_c, 0, 69, 0
2, 159498, Note_on_c, 0, 55, 0
2, 159519, Note_on_c, 0, 73, 0
2, 159530, Note_on_c, 0, 61, 0
2, 159544, Note_on_c, 0, 64, 0
2, 159618, Note_on_c, 0, 58, 0
2, 159863, Note_on_c, 0, 76, 0
2, 160017, Note_on_c, 0, 81, 0
2, 160852, Note_on_c, 0, 66, 61
2, 160858, Note_on_c, 0, 65, 65
2, 161014, Note_on_c, 0, 68, 70
2, 161021, Control_c, 0, 64, 0
2, 161050, Note_on_c, 0, 65, 0
2, 161114, Note_on_c, 0, 66, 0
2, 161143, Note_on_c, 0, 84, 85
2, 161158, Note_on_c, 0, 74, 85
2, 161160, Note_on_c, 0, 81, 80
2, 161162, Note_on_c, 0, 77, 81
2, 161175, Note_on_c, 0, 68, 0
2, 161179, Note_on_c, 0, 67, 77
2, 161183, Note_on_c, 0, 69, 88
2, 161221, Note_on_c, 0, 66, 37
2, 161247, Note_on_c, 0, 67, 0
2, 161302, Note_on_c, 0, 66, 0
2, 161549, Control_c, 0, 64, 127
2, 162638, Note_on_c, 0, 84, 0
2, 162645, Note_on_c, 0, 69, 0
2, 162797, Note_on_c, 0, 81, 0
2, 162864, Note_on_c, 0, 77, 0
2, 162900, Note_on_c, 0, 74, 0
2, 164077, Note_on_c, 0, 64, 45
2, 164081, Note_on_c, 0, 72, 49
2, 164089, Control_c, 0, 64, 0
2, 164098, Note_on_c, 0, 65, 47
2, 164104, Note_on_c, 0, 69, 49
2, 164115, Note_on_c, 0, 60, 37
2, 164227, Note_on_c, 0, 65, 0
2, 164237, Note_on_c, 0, 64, 0
2, 164258, Note_on_c, 0, 60, 0
2, 164275, Note_on_c, 0, 69, 0
2, 164318, Note_on_c, 0, 72, 0
2, 164951, Note_on_c, 0, 72, 47
2, 164968, Note_on_c, 0, 69, 45
2, 164974, Note_on_c, 0, 64, 34
2, 164989, Note_on_c, 0, 65, 43
2, 164993, Note_on_c, 0, 60, 33
2, 165084, Note_on_c, 0, 65, 0
2, 165120, Note_on_c, 0, 64, 0
2, 165131, Note_on_c, 0, 60, 0
2, 165154, Note_on_c, 0, 69, 0
2, 165158, Note_on_c, 0, 72, 0
2, 165788, Note_on_c, 0, 69, 40
2, 165794, Note_on_c, 0, 64, 30
2, 165802, Note_on_c, 0, 65, 47
2, 165806, Note_on_c, 0, 72, 29
2, 165821, Note_on_c, 0, 60, 35
2, 165948, Note_on_c, 0, 65, 0
2, 165984, Note_on_c, 0, 64, 0
2, 165997, Note_on_c, 0, 60, 0
2, 166003, Note_on_c, 0, 69, 0
2, 166011, Note_on_c, 0, 72, 0
2, 166622, Note_on_c, 0, 69, 39
2, 166626, Note_on_c, 0, 72, 25
2, 166632, Note_on_c, 0, 64, 27
2, 166636, Note_on_c, 0, 65, 44
2, 166645, Note_on_c, 0, 60, 27
2, 166791, Note_on_c, 0, 60, 0
2, 166795, Note_on_c, 0, 65, 0
2, 166827, Note_on_c, 0, 64, 0
2, 166837, Note_on_c, 0, 69, 0
2, 166873, Note_on_c, 0, 72, 0
2, 167479, Note_on_c, 0, 72, 31
2, 167498, Note_on_c, 0, 64, 26
2, 167500, Note_on_c, 0, 69, 44
2, 167502, Note_on_c, 0, 60, 32
2, 167509, Note_on_c, 0, 65, 46
2, 167650, Note_on_c, 0, 65, 0
2, 167673, Note_on_c, 0, 64, 0
2, 167697, Note_on_c, 0, 60, 0
2, 167703, Note_on_c, 0, 69, 0
2, 167705, Note_on_c, 0, 72, 0
2, 168155, Control_c, 0, 64, 127
2, 168349, Note_on_c, 0, 60, 32
2, 168358, Note_on_c, 0, 72, 39
2, 168377, Note_on_c, 0, 64, 30
2, 168383, Note_on_c, 0, 65, 42
2, 168392, Note_on_c, 0, 69, 35
2, 168480, Note_on_c, 0, 69, 0
2, 168482, Note_on_c, 0, 60, 0
2, 168537, Note_on_c, 0, 65, 0
2, 168565, Note_on_c, 0, 72, 0
2, 168577, Note_on_c, 0, 64, 0
2, 169743, Control_c, 0, 64, 0
2, 169769, Note_on_c, 0, 31, 43
2, 169771, Note_on_c, 0, 60, 25
2, 169790, Note_on_c, 0, 57, 41
2, 169792, Note_on_c, 0, 64, 36
2, 169804, Note_on_c, 0, 53, 36
2, 169813, Note_on_c, 0, 43, 33
2, 170168, Control_c, 0, 64, 127
2, 170875, Note_on_c, 0, 53, 0
2, 170877, Note_on_c, 0, 57, 0
2, 170930, Note_on_c, 0, 31, 0
2, 170985, Note_on_c, 0, 60, 0
2, 171068, Note_on_c, 0, 64, 0
2, 171093, Note_on_c, 0, 43, 0
2, 173224, Note_on_c, 0, 62, 38
2, 173230, Note_on_c, 0, 87, 23
2, 173281, Note_on_c, 0, 63, 49
2, 173300, Note_on_c, 0, 88, 68
2, 173302, Note_on_c, 0, 87, 0
2, 173401, Note_on_c, 0, 64, 53
2, 173454, Note_on_c, 0, 88, 0
2, 173458, Note_on_c, 0, 62, 0
2, 173488, Note_on_c, 0, 63, 0
2, 173511, Control_c, 0, 64, 0
2, 173560, Note_on_c, 0, 89, 88
2, 173583, Note_on_c, 0, 65, 92
2, 173682, Note_on_c, 0, 64, 0
2, 173999, Control_c, 0, 64, 127
2, 174502, Note_on_c, 0, 89, 0
2, 174573, Note_on_c, 0, 88, 75
2, 174586, Note_on_c, 0, 64, 72
2, 174611, Control_c, 0, 64, 0
2, 174639, Note_on_c, 0, 65, 0
2, 174909, Control_c, 0, 64, 127
2, 177116, Note_on_c, 0, 64, 0
2, 177769, Note_on_c, 0, 86, 48
2, 177779, Note_on_c, 0, 62, 24
2, 177811, Note_on_c, 0, 88, 0
2, 178536, Note_on_c, 0, 62, 0
2, 179767, Note_on_c, 0, 86, 0
2, 181182, Note_on_c, 0, 84, 36
2, 181199, Control_c, 0, 64, 0
2, 181226, Note_on_c, 0, 36, 38
2, 181258, Note_on_c, 0, 84, 0
2, 182088, Note_on_c, 0, 43, 27
2, 182234, Note_on_c, 0, 43, 0
2, 182422, Note_on_c, 0, 64, 34
2, 182428, Note_on_c, 0, 55, 47
2, 182460, Note_on_c, 0, 48, 30
2, 182483, Note_on_c, 0, 60, 28
2, 182939, Note_on_c, 0, 55, 0
2, 182981, Note_on_c, 0, 64, 0
2, 183062, Note_on_c, 0, 60, 0
2, 183220, Note_on_c, 0, 62, 35
2, 183235, Note_on_c, 0, 48, 0
2, 183247, Note_on_c, 0, 58, 45
2, 183264, Note_on_c, 0, 53, 33
2, 183283, Note_on_c, 0, 43, 33
2, 183429, Note_on_c, 0, 36, 0
2, 184555, Note_on_c, 0, 43, 0
2, 184586, Control_c, 0, 64, 127
2, 184988, Control_c, 0, 64, 0
2, 185330, Note_on_c, 0, 35, 55
2, 185661, Note_on_c, 0, 35, 0
2, 185685, Note_on_c, 0, 53, 0
2, 185792, Note_on_c, 0, 36, 35
2, 185877, Note_on_c, 0, 58, 0
2, 185913, Note_on_c, 0, 62, 0
2, 186570, Note_on_c, 0, 36, 0
2, 186819, Note_on_c, 0, 36, 34
2, 186857, Note_on_c, 0, 64, 34
2, 186865, Note_on_c, 0, 60, 42
2, 186880, Note_on_c, 0, 55, 33
2, 187000, Note_on_c, 0, 36, 0
2, 187011, Note_on_c, 0, 55, 0
2, 187083, Note_on_c, 0, 60, 0
2, 187125, Note_on_c, 0, 64, 0
2, 187569, Note_on_c, 0, 30, 35
2, 187828, Note_on_c, 0, 30, 0
2, 187976, Note_on_c, 0, 31, 34
2, 187993, Note_on_c, 0, 62, 31
2, 188021, Note_on_c, 0, 53, 16
2, 188040, Note_on_c, 0, 58, 25
2, 188513, Note_on_c, 0, 53, 0
2, 188559, Note_on_c, 0, 58, 0
2, 188559, Note_on_c, 0, 31, 0
2, 188633, Note_on_c, 0, 62, 0
2, 188747, Note_on_c, 0, 58, 34
2, 188749, Note_on_c, 0, 62, 19
2, 188751, Note_on_c, 0, 53, 50
2, 188770, Note_on_c, 0, 31, 41
2, 188821, Note_on_c, 0, 53, 0
2, 188859, Note_on_c, 0, 31, 0
2, 188870, Note_on_c, 0, 58, 0
2, 188908, Note_on_c, 0, 62, 0
2, 189970, Note_on_c, 0, 35, 30
2, 190192, Note_on_c, 0, 35, 0
2, 190217, Note_on_c, 0, 55, 29
2, 190221, Note_on_c, 0, 64, 34
2, 190234, Note_on_c, 0, 60, 30
2, 190238, Note_on_c, 0, 36, 40
2, 190642, Control_c, 0, 64, 127
2, 190937, Control_c, 0, 64, 0
2, 191256, Control_c, 0, 64, 127
2, 191911, Note_on_c, 0, 55, 0
2, 191913, Note_on_c, 0, 64, 0
2, 191932, Note_on_c, 0, 60, 0
2, 192187, Control_c, 0, 64, 0
2, 192333, Note_on_c, 0, 36, 0
2, 192428, Note_on_c, 0, 31, 44
2, 192430, Note_on_c, 0, 62, 37
2, 192439, Note_on_c, 0, 53, 34
2, 192487, Note_on_c, 0, 58, 34
2, 193015, Note_on_c, 0, 53, 0
2, 193026, Note_on_c, 0, 31, 0
2, 193210, Note_on_c, 0, 53, 53
2, 193248, Note_on_c, 0, 31, 46
2, 193282, Note_on_c, 0, 53, 0
2, 193330, Note_on_c, 0, 31, 0
2, 193362, Note_on_c, 0, 58, 0
2, 193398, Note_on_c, 0, 62, 0
2, 194261, Note_on_c, 0, 35, 51
2, 194266, Note_on_c, 0, 64, 68
2, 194270, Note_on_c, 0, 36, 66
2, 194274, Note_on_c, 0, 55, 78
2, 194280, Note_on_c, 0, 60, 53
2, 194338, Note_on_c, 0, 35, 0
2, 194346, Note_on_c, 0, 55, 0
2, 194359, Note_on_c, 0, 64, 0
2, 194369, Note_on_c, 0, 60, 0
2, 194424, Note_on_c, 0, 36, 0
2, 195305, Note_on_c, 0, 30, 49
2, 195518, Note_on_c, 0, 30, 0
2, 195706, Note_on_c, 0, 62, 79
2, 195712, Note_on_c, 0, 58, 77
2, 195717, Note_on_c, 0, 53, 81
2, 195742, Note_on_c, 0, 31, 80
2, 196847, Control_c, 0, 64, 127
2, 197459, Control_c, 0, 64, 0
2, 198010, Control_c, 0, 64, 127
2, 198202, Control_c, 0, 64, 0
2, 198268, Note_on_c, 0, 31, 0
2, 198295, Note_on_c, 0, 34, 59
2, 198536, Note_on_c, 0, 53, 0
2, 198564, Note_on_c, 0, 34, 0
2, 198648, Note_on_c, 0, 35, 63
2, 198733, Note_on_c, 0, 58, 0
2, 198739, Note_on_c, 0, 62, 0
2, 198902, Note_on_c, 0, 35, 0
2, 198982, Note_on_c, 0, 36, 96
2, 200086, Note_on_c, 0, 64, 103
2, 200849, Note_on_c, 0, 32, 31
2, 201096, Note_on_c, 0, 36, 0
2, 201102, Note_on_c, 0, 32, 0
2, 201172, Note_on_c, 0, 34, 50
2, 201732, Note_on_c, 0, 64, 0
2, 202222, Note_on_c, 0, 65, 53
2, 202247, Note_on_c, 0, 57, 36
2, 202262, Note_on_c, 0, 60, 32
2, 202266, Note_on_c, 0, 62, 47
2, 202667, Note_on_c, 0, 57, 0
2, 202737, Note_on_c, 0, 62, 0
2, 202739, Note_on_c, 0, 65, 0
2, 202756, Note_on_c, 0, 60, 0
2, 202971, Note_on_c, 0, 32, 40
2, 203214, Note_on_c, 0, 34, 0
2, 203284, Note_on_c, 0, 32, 0
2, 203328, Note_on_c, 0, 59, 58
2, 203333, Note_on_c, 0, 67, 50
2, 203339, Note_on_c, 0, 64, 49
2, 203341, Note_on_c, 0, 33, 33
2, 203352, Note_on_c, 0, 60, 49
2, 204074, Note_on_c, 0, 64, 0
2, 204103, Note_on_c, 0, 60, 0
2, 204154, Note_on_c, 0, 67, 0
2, 204171, Note_on_c, 0, 59, 0
2, 205090, Note_on_c, 0, 33, 0
2, 205193, Note_on_c, 0, 25, 25
2, 205381, Note_on_c, 0, 25, 0
2, 205407, Note_on_c, 0, 60, 29
2, 205438, Note_on_c, 0, 52, 45
2, 205474, Note_on_c, 0, 55, 33
2, 205489, Note_on_c, 0, 57, 20
2, 205521, Note_on_c, 0, 28, 43
2, 206296, Note_on_c, 0, 52, 0
2, 206367, Note_on_c, 0, 57, 0
2, 206368, Note_on_c, 0, 55, 0
2, 206469, Note_on_c, 0, 60, 0
2, 206526, Note_on_c, 0, 27, 44
2, 206589, Note_on_c, 0, 28, 0
2, 207588, Note_on_c, 0, 27, 0
2, 207626, Note_on_c, 0, 64, 41
2, 207637, Note_on_c, 0, 56, 49
2, 207639, Note_on_c, 0, 54, 31
2, 207658, Note_on_c, 0, 60, 28
2, 207700, Note_on_c, 0, 26, 57
2, 207816, Note_on_c, 0, 56, 0
2, 207871, Note_on_c, 0, 57, 36
2, 209449, Note_on_c, 0, 33, 44
2, 209576, Note_on_c, 0, 26, 0
2, 209578, Note_on_c, 0, 33, 0
2, 209789, Note_on_c, 0, 38, 65
2, 210194, Note_on_c, 0, 38, 0
2, 210543, Note_on_c, 0, 32, 76
2, 212011, Note_on_c, 0, 31, 67
2, 212017, Note_on_c, 0, 32, 0
2, 212051, Note_on_c, 0, 64, 0
2, 212070, Note_on_c, 0, 57, 0
2, 212085, Note_on_c, 0, 54, 0
2, 212167, Note_on_c, 0, 60, 0
2, 213033, Note_on_c, 0, 38, 38
2, 213103, Note_on_c, 0, 64, 81
2, 213105, Note_on_c, 0, 31, 0
2, 213120, Note_on_c, 0, 57, 82
2, 213124, Note_on_c, 0, 60, 64
2, 213130, Note_on_c, 0, 53, 89
2, 213242, Note_on_c, 0, 38, 0
2, 213901, Note_on_c, 0, 47, 70
2, 213909, Note_on_c, 0, 45, 82
2, 214218, Note_on_c, 0, 47, 0
2, 215008, Note_on_c, 0, 42, 48
2, 215020, Note_on_c, 0, 57, 0
2, 215046, Note_on_c, 0, 45, 0
2, 215060, Note_on_c, 0, 60, 0
2, 215067, Note_on_c, 0, 53, 0
2, 215154, Note_on_c, 0, 39, 21
2, 215156, Note_on_c, 0, 64, 0
2, 215246, Note_on_c, 0, 39, 0
2, 215299, Note_on_c, 0, 53, 54
2, 215318, Note_on_c, 0, 62, 34
2, 215320, Note_on_c, 0, 43, 51
2, 215324, Note_on_c, 0, 42, 0
2, 215327, Note_on_c, 0, 56, 50
2, 215343, Note_on_c, 0, 59, 44
2, 216009, Note_on_c, 0, 43, 0
2, 216019, Note_on_c, 0, 59, 0
2, 216057, Note_on_c, 0, 53, 0
2, 216097, Note_on_c, 0, 44, 42
2, 216262, Note_on_c, 0, 44, 0
2, 216328, Note_on_c, 0, 56, 0
2, 216357, Note_on_c, 0, 48, 65
2, 216987, Note_on_c, 0, 62, 0
2, 217392, Note_on_c, 0, 64, 65
2, 217411, Note_on_c, 0, 60, 55
2, 217413, Note_on_c, 0, 59, 68
2, 217426, Note_on_c, 0, 55, 67
2, 217857, Note_on_c, 0, 55, 0
2, 217872, Note_on_c, 0, 60, 0
2, 217874, Note_on_c, 0, 64, 0
2, 217901, Note_on_c, 0, 59, 0
2, 218205, Note_on_c, 0, 44, 30
2, 218228, Note_on_c, 0, 59, 41
2, 218254, Note_on_c, 0, 60, 32
2, 218256, Note_on_c, 0, 48, 0
2, 218311, Note_on_c, 0, 46, 31
2, 218313, Note_on_c, 0, 59, 0
2, 218328, Note_on_c, 0, 60, 0
2, 218490, Note_on_c, 0, 60, 70
2, 218499, Note_on_c, 0, 47, 64
2, 218503, Note_on_c, 0, 57, 63
2, 218507, Note_on_c, 0, 65, 68
2, 218550, Note_on_c, 0, 46, 0
2, 218558, Note_on_c, 0, 62, 48
2, 218560, Note_on_c, 0, 44, 0
2, 219039, Note_on_c, 0, 57, 0
2, 219092, Note_on_c, 0, 60, 0
2, 219126, Note_on_c, 0, 65, 0
2, 219154, Note_on_c, 0, 62, 0
2, 219295, Note_on_c, 0, 60, 42
2, 219308, Note_on_c, 0, 62, 19
2, 219375, Note_on_c, 0, 60, 0
2, 219437, Note_on_c, 0, 62, 0
2, 219570, Note_on_c, 0, 64, 70
2, 219574, Note_on_c, 0, 67, 78
2, 219578, Note_on_c, 0, 59, 77
2, 219589, Note_on_c, 0, 62, 69
2, 219599, Note_on_c, 0, 60, 32
2, 220271, Note_on_c, 0, 60, 0
2, 220288, Note_on_c, 0, 64, 0
2, 220290, Note_on_c, 0, 67, 0
2, 220292, Note_on_c, 0, 47, 0
2, 220315, Note_on_c, 0, 59, 0
2, 220343, Note_on_c, 0, 62, 0
2, 220374, Note_on_c, 0, 42, 30
2, 220630, Note_on_c, 0, 45, 45
2, 220636, Note_on_c, 0, 42, 0
2, 221335, Note_on_c, 0, 60, 44
2, 221399, Note_on_c, 0, 55, 33
2, 221420, Note_on_c, 0, 57, 24
2, 221496, Note_on_c, 0, 55, 0
2, 221521, Note_on_c, 0, 57, 0
2, 221570, Note_on_c, 0, 60, 0
2, 222226, Note_on_c, 0, 45, 0
2, 222303, Note_on_c, 0, 37, 37
2, 222383, Note_on_c, 0, 39, 34
2, 222421, Note_on_c, 0, 60, 58
2, 222423, Note_on_c, 0, 65, 66
2, 222444, Note_on_c, 0, 62, 40
2, 222446, Note_on_c, 0, 57, 48
2, 222510, Note_on_c, 0, 37, 0
2, 222520, Note_on_c, 0, 60, 0
2, 222522, Note_on_c, 0, 57, 0
2, 222524, Note_on_c, 0, 62, 0
2, 222541, Note_on_c, 0, 65, 0
2, 222575, Note_on_c, 0, 39, 0
2, 222581, Note_on_c, 0, 40, 36
2, 223451, Note_on_c, 0, 37, 38
2, 223559, Note_on_c, 0, 40, 0
2, 223703, Note_on_c, 0, 37, 0
2, 223751, Note_on_c, 0, 39, 43
2, 224518, Note_on_c, 0, 37, 34
2, 224668, Note_on_c, 0, 39, 0
2, 224687, Note_on_c, 0, 37, 0
2, 224746, Note_on_c, 0, 38, 48
2, 225813, Note_on_c, 0, 60, 36
2, 225819, Note_on_c, 0, 56, 70
2, 225838, Note_on_c, 0, 54, 52
2, 225849, Note_on_c, 0, 62, 46
2, 226056, Note_on_c, 0, 57, 60
2, 226070, Note_on_c, 0, 56, 0
2, 226772, Note_on_c, 0, 38, 0
2, 226905, Note_on_c, 0, 33, 40
2, 227551, Note_on_c, 0, 33, 0
2, 227633, Note_on_c, 0, 32, 77
2, 228301, Note_on_c, 0, 57, 0
2, 228305, Note_on_c, 0, 54, 0
2, 229297, Note_on_c, 0, 32, 0
2, 229414, Note_on_c, 0, 33, 57
2, 229623, Note_on_c, 0, 33, 0
2, 229654, Note_on_c, 0, 60, 0
2, 229690, Note_on_c, 0, 62, 0
2, 229720, Note_on_c, 0, 34, 60
2, 229849, Note_on_c, 0, 34, 0
2, 230066, Note_on_c, 0, 35, 79
2, 230115, Note_on_c, 0, 62, 57
2, 230138, Note_on_c, 0, 57, 64
2, 231053, Note_on_c, 0, 35, 0
2, 231135, Note_on_c, 0, 35, 18
2, 231532, Note_on_c, 0, 57, 0
2, 231798, Note_on_c, 0, 56, 73
2, 231834, Note_on_c, 0, 35, 0
2, 231857, Note_on_c, 0, 28, 51
2, 232419, Note_on_c, 0, 28, 0
2, 232607, Note_on_c, 0, 28, 48
2, 232692, Note_on_c, 0, 34, 46
2, 232901, Note_on_c, 0, 34, 0
2, 232947, Note_on_c, 0, 28, 0
2, 233053, Note_on_c, 0, 56, 0
2, 233133, Note_on_c, 0, 62, 0
2, 233264, Note_on_c, 0, 33, 44
2, 234227, Note_on_c, 0, 64, 50
2, 234261, Note_on_c, 0, 55, 42
2, 234263, Note_on_c, 0, 60, 39
2, 234996, Note_on_c, 0, 33, 0
2, 235002, Note_on_c, 0, 32, 51
2, 235182, Note_on_c, 0, 32, 0
2, 235306, Note_on_c, 0, 40, 68
2, 237095, Note_on_c, 0, 39, 30
2, 237167, Note_on_c, 0, 40, 0
2, 237258, Note_on_c, 0, 64, 0
2, 237306, Note_on_c, 0, 60, 0
2, 237334, Note_on_c, 0, 42, 57
2, 237397, Note_on_c, 0, 39, 0
2, 237422, Note_on_c, 0, 55, 0
2, 238373, Note_on_c, 0, 64, 84
2, 238379, Note_on_c, 0, 57, 89
2, 239201, Note_on_c, 0, 57, 0
2, 239281, Note_on_c, 0, 64, 0
2, 239433, Note_on_c, 0, 57, 40
2, 239469, Note_on_c, 0, 52, 47
2, 239980, Note_on_c, 0, 57, 0
2, 239984, Note_on_c, 0, 52, 0
2, 240124, Note_on_c, 0, 42, 0
2, 240132, Note_on_c, 0, 52, 41
2, 240136, Note_on_c, 0, 57, 66
2, 240208, Note_on_c, 0, 52, 0
2, 240345, Note_on_c, 0, 45, 35
2, 240358, Note_on_c, 0, 57, 0
2, 240451, Note_on_c, 0, 45, 0
2, 240495, Note_on_c, 0, 46, 58
2, 241222, Note_on_c, 0, 44, 36
2, 241446, Note_on_c, 0, 44, 0
2, 241463, Note_on_c, 0, 46, 0
2, 241515, Note_on_c, 0, 47, 48
2, 241522, Note_on_c, 0, 62, 34
2, 241524, Note_on_c, 0, 53, 40
2, 241539, Note_on_c, 0, 59, 47
2, 242179, Note_on_c, 0, 53, 0
2, 242265, Note_on_c, 0, 59, 0
2, 242356, Note_on_c, 0, 62, 0
2, 242440, Note_on_c, 0, 47, 0
2, 242487, Note_on_c, 0, 41, 61
2, 243547, Note_on_c, 0, 62, 46
2, 243556, Note_on_c, 0, 51, 50
2, 243562, Note_on_c, 0, 59, 38
2, 243572, Note_on_c, 0, 55, 54
2, 244037, Note_on_c, 0, 55, 0
2, 244046, Note_on_c, 0, 51, 0
2, 244132, Note_on_c, 0, 59, 0
2, 244170, Note_on_c, 0, 62, 0
2, 244238, Note_on_c, 0, 41, 0
2, 244263, Note_on_c, 0, 38, 46
2, 244472, Note_on_c, 0, 38, 0
2, 244595, Note_on_c, 0, 39, 55
2, 245266, Note_on_c, 0, 39, 0
2, 245296, Note_on_c, 0, 62, 68
2, 245334, Note_on_c, 0, 53, 51
2, 245338, Note_on_c, 0, 58, 53
2, 245344, Note_on_c, 0, 40, 57
2, 245406, Note_on_c, 0, 53, 0
2, 245408, Note_on_c, 0, 58, 0
2, 245497, Note_on_c, 0, 62, 0
2, 246284, Note_on_c, 0, 28, 70
2, 246663, Note_on_c, 0, 40, 0
2, 247389, Note_on_c, 0, 40, 83
2, 248361, Note_on_c, 0, 28, 0
2, 248377, Note_on_c, 0, 71, 85
2, 248384, Note_on_c, 0, 68, 71
2, 248388, Note_on_c, 0, 65, 88
2, 248392, Note_on_c, 0, 62, 85
2, 248580, Note_on_c, 0, 40, 0
2, 249349, Note_on_c, 0, 71, 0
2, 249398, Note_on_c, 0, 56, 62
2, 249433, Note_on_c, 0, 62, 0
2, 249444, Note_on_c, 0, 65, 0
2, 249520, Note_on_c, 0, 56, 0
2, 249571, Note_on_c, 0, 68, 0
2, 249723, Note_on_c, 0, 72, 73
2, 249731, Note_on_c, 0, 64, 71
2, 249737, Note_on_c, 0, 57, 65
2, 249742, Note_on_c, 0, 67, 68
2, 249748, Note_on_c, 0, 69, 70
2, 250466, Note_on_c, 0, 64, 0
2, 250475, Note_on_c, 0, 67, 0
2, 250477, Note_on_c, 0, 69, 0
2, 250525, Note_on_c, 0, 72, 0
2, 250561, Note_on_c, 0, 57, 0
2, 250732, Note_on_c, 0, 45, 55
2, 252437, Note_on_c, 0, 60, 58
2, 252439, Note_on_c, 0, 62, 64
2, 252447, Note_on_c, 0, 55, 76
2, 252595, Note_on_c, 0, 55, 0
2, 252650, Note_on_c, 0, 45, 0
2, 253322, Note_on_c, 0, 46, 29
2, 253338, Note_on_c, 0, 60, 0
2, 253480, Note_on_c, 0, 60, 77
2, 253482, Note_on_c, 0, 55, 84
2, 253501, Note_on_c, 0, 64, 73
2, 253503, Note_on_c, 0, 46, 0
2, 253598, Note_on_c, 0, 48, 65
2, 254557, Note_on_c, 0, 48, 0
2, 254781, Note_on_c, 0, 39, 49
2, 254876, Note_on_c, 0, 64, 0
2, 255146, Note_on_c, 0, 60, 0
2, 255246, Note_on_c, 0, 62, 0
2, 255374, Note_on_c, 0, 55, 0
2, 255579, Note_on_c, 0, 45, 28
2, 255710, Note_on_c, 0, 39, 0
2, 255736, Note_on_c, 0, 45, 0
2, 255818, Note_on_c, 0, 66, 55
2, 255828, Note_on_c, 0, 54, 50
2, 255843, Note_on_c, 0, 60, 44
2, 255847, Note_on_c, 0, 38, 46
2, 255888, Note_on_c, 0, 62, 27
2, 257176, Note_on_c, 0, 54, 0
2, 257467, Note_on_c, 0, 60, 0
2, 257493, Note_on_c, 0, 66, 0
2, 257554, Note_on_c, 0, 42, 36
2, 257752, Note_on_c, 0, 62, 0
2, 257780, Note_on_c, 0, 38, 0
2, 257917, Note_on_c, 0, 67, 61
2, 257930, Note_on_c, 0, 56, 59
2, 257934, Note_on_c, 0, 62, 19
2, 257936, Note_on_c, 0, 60, 50
2, 257968, Note_on_c, 0, 42, 0
2, 257974, Note_on_c, 0, 44, 43
2, 258939, Control_c, 0, 64, 127
2, 259459, Note_on_c, 0, 56, 0
2, 259649, Note_on_c, 0, 56, 76
2, 259744, Control_c, 0, 64, 0
2, 260359, Control_c, 0, 64, 127
2, 260456, Note_on_c, 0, 62, 0
2, 260500, Note_on_c, 0, 60, 0
2, 260644, Note_on_c, 0, 50, 35
2, 260690, Note_on_c, 0, 56, 0
2, 260775, Note_on_c, 0, 67, 0
2, 260866, Control_c, 0, 64, 0
2, 260933, Note_on_c, 0, 50, 0
2, 260984, Note_on_c, 0, 61, 70
2, 261020, Note_on_c, 0, 59, 65
2, 261022, Note_on_c, 0, 44, 0
2, 261689, Note_on_c, 0, 43, 60
2, 262031, Control_c, 0, 64, 127
2, 262399, Note_on_c, 0, 59, 0
2, 262574, Note_on_c, 0, 61, 0
2, 262646, Note_on_c, 0, 60, 60
2, 262665, Control_c, 0, 64, 0
2, 262667, Note_on_c, 0, 62, 62
2, 262718, Note_on_c, 0, 53, 54
2, 262787, Note_on_c, 0, 53, 0
2, 262929, Note_on_c, 0, 43, 0
2, 263694, Note_on_c, 0, 41, 80
2, 264750, Note_on_c, 0, 39, 33
2, 264931, Note_on_c, 0, 60, 0
2, 264997, Note_on_c, 0, 62, 0
2, 265024, Note_on_c, 0, 41, 0
2, 265047, Note_on_c, 0, 42, 59
2, 265075, Note_on_c, 0, 64, 62
2, 265094, Note_on_c, 0, 60, 66
2, 265096, Note_on_c, 0, 39, 0
2, 265852, Note_on_c, 0, 39, 40
2, 265879, Note_on_c, 0, 60, 0
2, 265884, Note_on_c, 0, 64, 0
2, 266067, Note_on_c, 0, 42, 0
2, 266072, Note_on_c, 0, 39, 0
2, 266110, Note_on_c, 0, 43, 49
2, 266141, Note_on_c, 0, 62, 53
2, 266737, Note_on_c, 0, 62, 0
2, 266824, Note_on_c, 0, 67, 74
2, 266969, Note_on_c, 0, 67, 0
2, 267016, Note_on_c, 0, 38, 41
2, 267018, Note_on_c, 0, 43, 0
2, 267998, Note_on_c, 0, 38, 0
2, 268059, Note_on_c, 0, 34, 43
2, 269022, Note_on_c, 0, 34, 0
2, 269058, Note_on_c, 0, 69, 73
2, 269081, Note_on_c, 0, 35, 51
2, 269096, Note_on_c, 0, 58, 44
2, 269102, Note_on_c, 0, 64, 43
2, 269350, Note_on_c, 0, 58, 0
2, 269402, Note_on_c, 0, 64, 0
2, 269461, Note_on_c, 0, 69, 0
2, 269869, Note_on_c, 0, 34, 35
2, 270078, Note_on_c, 0, 35, 0
2, 270082, Note_on_c, 0, 34, 0
2, 270122, Note_on_c, 0, 72, 65
2, 270139, Note_on_c, 0, 36, 60
2, 270141, Note_on_c, 0, 64, 60
2, 270150, Note_on_c, 0, 67, 57
2, 270190, Note_on_c, 0, 69, 48
2, 270450, Note_on_c, 0, 69, 0
2, 270467, Note_on_c, 0, 67, 0
2, 270469, Note_on_c, 0, 72, 0
2, 270619, Note_on_c, 0, 64, 0
2, 271105, Note_on_c, 0, 36, 0
2, 271126, Note_on_c, 0, 24, 38
2, 271128, Note_on_c, 0, 69, 80
2, 271132, Note_on_c, 0, 58, 69
2, 271147, Note_on_c, 0, 64, 54
2, 271153, Note_on_c, 0, 61, 63
2, 272281, Note_on_c, 0, 69, 0
2, 272292, Note_on_c, 0, 36, 40
2, 272332, Note_on_c, 0, 24, 0
2, 272870, Note_on_c, 0, 61, 0
2, 272912, Note_on_c, 0, 64, 0
2, 272940, Note_on_c, 0, 58, 0
2, 272955, Note_on_c, 0, 36, 0
2, 273185, Note_on_c, 0, 58, 50
2, 273223, Note_on_c, 0, 40, 36
2, 273225, Note_on_c, 0, 64, 33
2, 273244, Note_on_c, 0, 61, 39
2, 273246, Note_on_c, 0, 67, 40
2, 273400, Note_on_c, 0, 67, 0
2, 273487, Note_on_c, 0, 64, 0
2, 273605, Note_on_c, 0, 61, 0
2, 273645, Note_on_c, 0, 58, 0
2, 273956, Note_on_c, 0, 39, 42
2, 274169, Note_on_c, 0, 39, 0
2, 274201, Note_on_c, 0, 40, 0
2, 274220, Note_on_c, 0, 41, 47
2, 274967, Note_on_c, 0, 57, 36
2, 274972, Note_on_c, 0, 55, 36
2, 275012, Note_on_c, 0, 60, 17
2, 275046, Note_on_c, 0, 41, 0
2, 275126, Note_on_c, 0, 36, 38
2, 275215, Note_on_c, 0, 60, 0
2, 275240, Note_on_c, 0, 55, 0
2, 275278, Note_on_c, 0, 57, 0
2, 275531, Note_on_c, 0, 57, 30
2, 275536, Note_on_c, 0, 55, 33
2, 275550, Note_on_c, 0, 52, 27
2, 275578, Note_on_c, 0, 60, 22
2, 275833, Note_on_c, 0, 52, 0
2, 275840, Note_on_c, 0, 60, 0
2, 275842, Note_on_c, 0, 34, 30
2, 275861, Note_on_c, 0, 55, 0
2, 275867, Note_on_c, 0, 57, 0
2, 275966, Note_on_c, 0, 34, 0
2, 276038, Note_on_c, 0, 52, 57
2, 276053, Note_on_c, 0, 60, 35
2, 276055, Note_on_c, 0, 55, 64
2, 276064, Note_on_c, 0, 57, 53
2, 276116, Note_on_c, 0, 36, 0
2, 276197, Note_on_c, 0, 41, 41
2, 276309, Note_on_c, 0, 60, 0
2, 276334, Note_on_c, 0, 52, 0
2, 276359, Note_on_c, 0, 55, 0
2, 276376, Note_on_c, 0, 57, 0
2, 276528, Note_on_c, 0, 52, 34
2, 276547, Note_on_c, 0, 55, 40
2, 276566, Note_on_c, 0, 57, 33
2, 276568, Note_on_c, 0, 60, 27
2, 276982, Note_on_c, 0, 52, 0
2, 276997, Note_on_c, 0, 55, 0
2, 277020, Note_on_c, 0, 60, 0
2, 277022, Note_on_c, 0, 57, 0
2, 277031, Note_on_c, 0, 41, 0
2, 277048, Note_on_c, 0, 39, 35
2, 277346, Note_on_c, 0, 43, 42
2, 277365, Note_on_c, 0, 39, 0
2, 278036, Note_on_c, 0, 43, 0
2, 278070, Note_on_c, 0, 39, 30
2, 278212, Note_on_c, 0, 39, 0
2, 278376, Note_on_c, 0, 52, 37
2, 278380, Note_on_c, 0, 41, 46
2, 278444, Note_on_c, 0, 57, 30
2, 278467, Note_on_c, 0, 60, 19
2, 278484, Note_on_c, 0, 55, 24
2, 278841, Note_on_c, 0, 52, 0
2, 278845, Note_on_c, 0, 60, 0
2, 278900, Note_on_c, 0, 55, 0
2, 278942, Note_on_c, 0, 57, 0
2, 279044, Note_on_c, 0, 57, 33
2, 279046, Note_on_c, 0, 52, 60
2, 279048, Note_on_c, 0, 60, 54
2, 279065, Note_on_c, 0, 55, 71
2, 279232, Note_on_c, 0, 29, 41
2, 279272, Note_on_c, 0, 52, 0
2, 279286, Note_on_c, 0, 60, 0
2, 279324, Note_on_c, 0, 55, 0
2, 279333, Note_on_c, 0, 41, 0
2, 279352, Note_on_c, 0, 57, 0
2, 279474, Note_on_c, 0, 52, 37
2, 279483, Note_on_c, 0, 57, 24
2, 279491, Note_on_c, 0, 55, 41
2, 279504, Note_on_c, 0, 60, 34
2, 279939, Note_on_c, 0, 52, 0
2, 279996, Note_on_c, 0, 60, 0
2, 280011, Note_on_c, 0, 57, 0
2, 280013, Note_on_c, 0, 55, 0
2, 280064, Note_on_c, 0, 36, 36
2, 280205, Note_on_c, 0, 29, 0
2, 280326, Note_on_c, 0, 36, 0
2, 280366, Note_on_c, 0, 41, 42
2, 280391, Note_on_c, 0, 52, 47
2, 280406, Note_on_c, 0, 57, 32
2, 280408, Note_on_c, 0, 55, 40
2, 280427, Note_on_c, 0, 60, 29
2, 280851, Note_on_c, 0, 52, 0
2, 280860, Note_on_c, 0, 60, 0
2, 280862, Note_on_c, 0, 55, 0
2, 280919, Note_on_c, 0, 57, 0
2, 281031, Note_on_c, 0, 41, 0
2, 281046, Note_on_c, 0, 60, 58
2, 281052, Note_on_c, 0, 52, 64
2, 281056, Note_on_c, 0, 55, 71
2, 281061, Note_on_c, 0, 39, 25
2, 281067, Note_on_c, 0, 57, 66
2, 281213, Note_on_c, 0, 39, 0
2, 281253, Note_on_c, 0, 60, 0
2, 281263, Note_on_c, 0, 52, 0
2, 281293, Note_on_c, 0, 41, 51
2, 281369, Note_on_c, 0, 60, 33
2, 281399, Note_on_c, 0, 52, 45
2, 281903, Note_on_c, 0, 52, 0
2, 281958, Note_on_c, 0, 57, 0
2, 282043, Note_on_c, 0, 41, 0
2, 282072, Note_on_c, 0, 55, 0
2, 282079, Note_on_c, 0, 60, 0
2, 282087, Note_on_c, 0, 40, 47
2, 282294, Note_on_c, 0, 60, 40
2, 282296, Note_on_c, 0, 40, 0
2, 282334, Note_on_c, 0, 51, 51
2, 282364, Note_on_c, 0, 55, 43
2, 282366, Note_on_c, 0, 56, 42
2, 282376, Note_on_c, 0, 41, 49
2, 282763, Note_on_c, 0, 60, 0
2, 282765, Note_on_c, 0, 55, 0
2, 282813, Note_on_c, 0, 51, 0
2, 282868, Note_on_c, 0, 56, 0
2, 282993, Note_on_c, 0, 60, 47
2, 283010, Note_on_c, 0, 51, 59
2, 283016, Note_on_c, 0, 56, 52
2, 283033, Note_on_c, 0, 55, 56
2, 283202, Note_on_c, 0, 29, 52
2, 283204, Note_on_c, 0, 41, 0
2, 283221, Note_on_c, 0, 51, 0
2, 283240, Note_on_c, 0, 60, 0
2, 283240, Note_on_c, 0, 55, 0
2, 283361, Note_on_c, 0, 51, 48
2, 283371, Note_on_c, 0, 60, 33
2, 283403, Note_on_c, 0, 55, 60
2, 283734, Note_on_c, 0, 51, 0
2, 283916, Note_on_c, 0, 55, 0
2, 283954, Note_on_c, 0, 60, 0
2, 283990, Note_on_c, 0, 56, 0
2, 284070, Note_on_c, 0, 36, 36
2, 284241, Note_on_c, 0, 36, 0
2, 284256, Note_on_c, 0, 29, 0
2, 284338, Note_on_c, 0, 60, 46
2, 284353, Note_on_c, 0, 41, 36
2, 284355, Note_on_c, 0, 56, 56
2, 284359, Note_on_c, 0, 51, 51
2, 284402, Note_on_c, 0, 55, 50
2, 284674, Note_on_c, 0, 41, 0
2, 285187, Note_on_c, 0, 45, 27
2, 285310, Note_on_c, 0, 45, 0
2, 285320, Note_on_c, 0, 51, 0
2, 285392, Note_on_c, 0, 48, 68
2, 285905, Note_on_c, 0, 55, 0
2, 285996, Note_on_c, 0, 60, 0
2, 286062, Note_on_c, 0, 56, 0
2, 286243, Note_on_c, 0, 48, 0
2, 286317, Note_on_c, 0, 46, 49
2, 287316, Note_on_c, 0, 68, 76
2, 287323, Note_on_c, 0, 72, 83
2, 287327, Note_on_c, 0, 62, 91
2, 287335, Note_on_c, 0, 65, 84
2, 287348, Note_on_c, 0, 56, 67
2, 287445, Note_on_c, 0, 71, 27
2, 287851, Note_on_c, 0, 71, 0
2, 287870, Note_on_c, 0, 62, 0
2, 287872, Note_on_c, 0, 65, 0
2, 287874, Note_on_c, 0, 72, 0
2, 287889, Note_on_c, 0, 56, 0
2, 287922, Note_on_c, 0, 68, 0
2, 288039, Note_on_c, 0, 65, 73
2, 288041, Note_on_c, 0, 62, 73
2, 288043, Note_on_c, 0, 72, 78
2, 288045, Note_on_c, 0, 68, 74
2, 288096, Note_on_c, 0, 56, 62
2, 288353, Note_on_c, 0, 65, 0
2, 288358, Note_on_c, 0, 72, 0
2, 288368, Note_on_c, 0, 62, 0
2, 288389, Note_on_c, 0, 68, 0
2, 288486, Note_on_c, 0, 72, 56
2, 288522, Note_on_c, 0, 65, 60
2, 288533, Note_on_c, 0, 62, 54
2, 288535, Note_on_c, 0, 68, 57
2, 288845, Note_on_c, 0, 68, 0
2, 288898, Note_on_c, 0, 62, 0
2, 288907, Note_on_c, 0, 65, 0
2, 288924, Note_on_c, 0, 46, 0
2, 289027, Note_on_c, 0, 72, 0
2, 289105, Note_on_c, 0, 68, 68
2, 289133, Note_on_c, 0, 46, 42
2, 289135, Note_on_c, 0, 62, 44
2, 289139, Note_on_c, 0, 65, 57
2, 289192, Note_on_c, 0, 56, 0
2, 289295, Note_on_c, 0, 65, 0
2, 289369, Note_on_c, 0, 68, 0
2, 289435, Note_on_c, 0, 62, 0
2, 290039, Note_on_c, 0, 67, 60
2, 290043, Note_on_c, 0, 62, 59
2, 290060, Note_on_c, 0, 46, 0
2, 290064, Note_on_c, 0, 59, 52
2, 290119, Note_on_c, 0, 52, 59
2, 290432, Note_on_c, 0, 59, 0
2, 290489, Control_c, 0, 64, 127
2, 290719, Note_on_c, 0, 62, 0
2, 290770, Note_on_c, 0, 67, 0
2, 290989, Note_on_c, 0, 40, 62
2, 291059, Note_on_c, 0, 40, 0
2, 291164, Note_on_c, 0, 52, 0
2, 291950, Control_c, 0, 64, 0
2, 291996, Note_on_c, 0, 84, 90
2, 292001, Note_on_c, 0, 79, 94
2, 292005, Note_on_c, 0, 72, 96
2, 292007, Note_on_c, 0, 62, 68
2, 292020, Note_on_c, 0, 67, 87
2, 292028, Note_on_c, 0, 56, 80
2, 292260, Note_on_c, 0, 67, 0
2, 292273, Note_on_c, 0, 72, 0
2, 292296, Note_on_c, 0, 79, 0
2, 292315, Note_on_c, 0, 84, 0
2, 292372, Note_on_c, 0, 62, 0
2, 292457, Note_on_c, 0, 56, 0
2, 292647, Note_on_c, 0, 84, 84
2, 292658, Note_on_c, 0, 77, 84
2, 292662, Note_on_c, 0, 66, 83
2, 292664, Note_on_c, 0, 72, 83
2, 292668, Note_on_c, 0, 61, 76
2, 292670, Note_on_c, 0, 55, 80
2, 292966, Control_c, 0, 64, 127
2, 293112, Note_on_c, 0, 55, 0
2, 293133, Note_on_c, 0, 84, 0
2, 293145, Note_on_c, 0, 72, 0
2, 293158, Control_c, 0, 64, 0
2, 293160, Note_on_c, 0, 66, 0
2, 293221, Note_on_c, 0, 61, 0
2, 293224, Note_on_c, 0, 77, 0
2, 293316, Note_on_c, 0, 84, 64
2, 293329, Note_on_c, 0, 77, 60
2, 293335, Note_on_c, 0, 61, 53
2, 293340, Note_on_c, 0, 55, 66
2, 293342, Note_on_c, 0, 72, 60
2, 293344, Note_on_c, 0, 66, 62
2, 293475, Control_c, 0, 64, 127
2, 293616, Note_on_c, 0, 72, 0
2, 293665, Note_on_c, 0, 77, 0
2, 293735, Note_on_c, 0, 84, 0
2, 293851, Note_on_c, 0, 66, 0
2, 293961, Note_on_c, 0, 55, 0
2, 294174, Control_c, 0, 64, 0
2, 294220, Note_on_c, 0, 61, 0
2, 294269, Note_on_c, 0, 88, 85
2, 294286, Note_on_c, 0, 54, 77
2, 294288, Note_on_c, 0, 60, 64
2, 294290, Note_on_c, 0, 81, 87
2, 294294, Note_on_c, 0, 84, 76
2, 294296, Note_on_c, 0, 65, 87
2, 294299, Note_on_c, 0, 76, 85
2, 294617, Control_c, 0, 64, 127
2, 294926, Note_on_c, 0, 84, 0
2, 294932, Note_on_c, 0, 88, 0
2, 294945, Note_on_c, 0, 81, 0
2, 295048, Note_on_c, 0, 76, 0
2, 295093, Note_on_c, 0, 65, 0
2, 295131, Note_on_c, 0, 54, 0
2, 295152, Note_on_c, 0, 60, 0
2, 295238, Note_on_c, 0, 84, 64
2, 295289, Note_on_c, 0, 65, 56
2, 295295, Control_c, 0, 64, 0
2, 295300, Note_on_c, 0, 77, 42
2, 295308, Note_on_c, 0, 72, 43
2, 295310, Note_on_c, 0, 54, 53
2, 295325, Note_on_c, 0, 60, 49
2, 295355, Note_on_c, 0, 81, 34
2, 295612, Control_c, 0, 64, 127
2, 295731, Note_on_c, 0, 81, 0
2, 295747, Note_on_c, 0, 84, 0
2, 295754, Note_on_c, 0, 77, 0
2, 295811, Note_on_c, 0, 72, 0
2, 295893, Note_on_c, 0, 60, 0
2, 295914, Note_on_c, 0, 65, 0
2, 296172, Note_on_c, 0, 54, 0
2, 296248, Control_c, 0, 64, 0
2, 296273, Note_on_c, 0, 83, 59
2, 296275, Note_on_c, 0, 78, 59
2, 296280, Note_on_c, 0, 71, 56
2, 296311, Note_on_c, 0, 64, 40
2, 296328, Note_on_c, 0, 53, 39
2, 296387, Note_on_c, 0, 59, 30
2, 296550, Note_on_c, 0, 78, 0
2, 296552, Note_on_c, 0, 64, 0
2, 296565, Control_c, 0, 64, 127
2, 296567, Note_on_c, 0, 59, 0
2, 296584, Note_on_c, 0, 79, 31
2, 296721, Note_on_c, 0, 53, 0
2, 297245, Note_on_c, 0, 71, 0
2, 297251, Note_on_c, 0, 83, 0
2, 297255, Note_on_c, 0, 54, 86
2, 297257, Note_on_c, 0, 79, 0
2, 297391, Control_c, 0, 64, 0
2, 297602, Note_on_c, 0, 54, 0
2, 297661, Note_on_c, 0, 55, 71
2, 298204, Note_on_c, 0, 55, 0
2, 298309, Note_on_c, 0, 43, 55
2, 298664, Note_on_c, 0, 67, 44
2, 298666, Note_on_c, 0, 52, 41
2, 298668, Note_on_c, 0, 64, 41
2, 298683, Note_on_c, 0, 59, 44
2, 298685, Note_on_c, 0, 62, 58
2, 299044, Control_c, 0, 64, 127
2, 299171, Control_c, 0, 64, 0
2, 299184, Note_on_c, 0, 43, 0
2, 299591, Note_on_c, 0, 64, 0
2, 299598, Note_on_c, 0, 62, 0
2, 299663, Note_on_c, 0, 43, 61
2, 299678, Note_on_c, 0, 67, 0
2, 299720, Control_c, 0, 64, 127
2, 299722, Note_on_c, 0, 52, 0
2, 299771, Note_on_c, 0, 59, 0
2, 300611, Control_c, 0, 64, 0
2, 300700, Note_on_c, 0, 64, 68
2, 300723, Note_on_c, 0, 60, 72
2, 300734, Note_on_c, 0, 55, 72
2, 300740, Note_on_c, 0, 52, 36
2, 300780, Control_c, 0, 64, 127
2, 300865, Note_on_c, 0, 52, 0
2, 300930, Note_on_c, 0, 55, 0
2, 300979, Note_on_c, 0, 43, 0
2, 301011, Note_on_c, 0, 60, 0
2, 301032, Note_on_c, 0, 64, 0
2, 301416, Control_c, 0, 64, 0
2, 301661, Note_on_c, 0, 42, 61
2, 301684, Note_on_c, 0, 65, 74
2, 301695, Note_on_c, 0, 60, 72
2, 301714, Note_on_c, 0, 57, 64
2, 301775, Control_c, 0, 64, 127
2, 301969, Note_on_c, 0, 57, 0
2, 302043, Note_on_c, 0, 42, 0
2, 302071, Note_on_c, 0, 60, 0
2, 302098, Note_on_c, 0, 65, 0
2, 302499, Note_on_c, 0, 41, 58
2, 302681, Note_on_c, 0, 48, 37
2, 302749, Control_c, 0, 64, 0
2, 302795, Note_on_c, 0, 67, 88
2, 302823, Note_on_c, 0, 62, 49
2, 302827, Note_on_c, 0, 63, 38
2, 302852, Note_on_c, 0, 57, 60
2, 303072, Note_on_c, 0, 62, 0
2, 303722, Control_c, 0, 64, 127
2, 303957, Note_on_c, 0, 63, 0
2, 303988, Note_on_c, 0, 48, 0
2, 304020, Note_on_c, 0, 57, 0
2, 304185, Note_on_c, 0, 67, 0
2, 304400, Control_c, 0, 64, 0
2, 304426, Note_on_c, 0, 48, 42
2, 304438, Note_on_c, 0, 57, 54
2, 304478, Note_on_c, 0, 67, 74
2, 304481, Note_on_c, 0, 63, 79
2, 304783, Control_c, 0, 64, 127
2, 304890, Note_on_c, 0, 57, 0
2, 305120, Note_on_c, 0, 41, 0
2, 305456, Note_on_c, 0, 41, 68
2, 305564, Control_c, 0, 64, 0
2, 305777, Control_c, 0, 64, 127
2, 305974, Note_on_c, 0, 48, 0
2, 306132, Note_on_c, 0, 41, 0
2, 306624, Control_c, 0, 64, 0
2, 306732, Note_on_c, 0, 63, 0
2, 306753, Note_on_c, 0, 40, 77
2, 306798, Note_on_c, 0, 67, 0
2, 306899, Control_c, 0, 64, 127
2, 306981, Note_on_c, 0, 40, 0
2, 307948, Note_on_c, 0, 67, 95
2, 307951, Note_on_c, 0, 62, 82
2, 307953, Note_on_c, 0, 56, 90
2, 308719, Control_c, 0, 64, 0
2, 308975, Note_on_c, 0, 72, 118
2, 309100, Control_c, 0, 64, 127
2, 309433, Note_on_c, 0, 72, 0
2, 309651, Control_c, 0, 64, 0
2, 309657, Note_on_c, 0, 76, 71
2, 309826, Note_on_c, 0, 76, 0
2, 309904, Note_on_c, 0, 67, 0
2, 309970, Control_c, 0, 64, 127
2, 309976, Note_on_c, 0, 62, 0
2, 309980, Note_on_c, 0, 79, 88
2, 310303, Note_on_c, 0, 79, 0
2, 310360, Note_on_c, 0, 56, 0
2, 310582, Control_c, 0, 64, 0
2, 310618, Note_on_c, 0, 66, 82
2, 310620, Note_on_c, 0, 61, 73
2, 310624, Note_on_c, 0, 55, 77
2, 310629, Note_on_c, 0, 77, 80
2, 310631, Note_on_c, 0, 84, 85
2, 310635, Note_on_c, 0, 72, 85
2, 310637, Note_on_c, 0, 81, 74
2, 310890, Note_on_c, 0, 84, 0
2, 311155, Control_c, 0, 64, 127
2, 311809, Note_on_c, 0, 81, 0
2, 311830, Note_on_c, 0, 77, 0
2, 311927, Note_on_c, 0, 72, 0
2, 311946, Note_on_c, 0, 66, 0
2, 312531, Control_c, 0, 64, 0
2, 312582, Note_on_c, 0, 81, 68
2, 312595, Note_on_c, 0, 61, 0
2, 312601, Note_on_c, 0, 69, 58
2, 312603, Note_on_c, 0, 73, 38
2, 312612, Note_on_c, 0, 76, 62
2, 312622, Note_on_c, 0, 64, 49
2, 312954, Control_c, 0, 64, 127
2, 313123, Note_on_c, 0, 55, 0
2, 313258, Note_on_c, 0, 81, 0
2, 313425, Note_on_c, 0, 76, 0
2, 313476, Note_on_c, 0, 69, 0
2, 313522, Note_on_c, 0, 64, 0
2, 313560, Note_on_c, 0, 61, 64
2, 313670, Note_on_c, 0, 73, 0
2, 313676, Note_on_c, 0, 61, 0
2, 314586, Note_on_c, 0, 34, 56
2, 314720, Note_on_c, 0, 34, 0
2, 314899, Note_on_c, 0, 77, 64
2, 314905, Control_c, 0, 64, 0
2, 314910, Note_on_c, 0, 72, 67
2, 314918, Note_on_c, 0, 65, 53
2, 314920, Note_on_c, 0, 38, 58
2, 315068, Note_on_c, 0, 77, 0
2, 315095, Note_on_c, 0, 72, 0
2, 315100, Note_on_c, 0, 65, 0
2, 315737, Note_on_c, 0, 38, 0
2, 315902, Note_on_c, 0, 41, 37
2, 316846, Note_on_c, 0, 41, 0
2, 316884, Note_on_c, 0, 64, 39
2, 316886, Note_on_c, 0, 45, 51
2, 316901, Note_on_c, 0, 53, 43
2, 316916, Note_on_c, 0, 57, 41
2, 316920, Note_on_c, 0, 60, 27
2, 317235, Note_on_c, 0, 57, 0
2, 317241, Note_on_c, 0, 53, 0
2, 317243, Note_on_c, 0, 64, 0
2, 317269, Note_on_c, 0, 60, 0
2, 317845, Note_on_c, 0, 45, 0
2, 317917, Note_on_c, 0, 44, 36
2, 318532, Note_on_c, 0, 42, 28
2, 318622, Note_on_c, 0, 57, 60
2, 318661, Note_on_c, 0, 42, 0
2, 318709, Note_on_c, 0, 44, 0
2, 318768, Note_on_c, 0, 43, 36
2, 318889, Note_on_c, 0, 57, 0
2, 319216, Note_on_c, 0, 65, 85
2, 319628, Note_on_c, 0, 65, 0
2, 319841, Note_on_c, 0, 64, 78
2, 319928, Note_on_c, 0, 31, 38
2, 320076, Note_on_c, 0, 43, 0
2, 320961, Note_on_c, 0, 43, 40
2, 321408, Note_on_c, 0, 64, 0
2, 321489, Note_on_c, 0, 43, 0
2, 321611, Note_on_c, 0, 34, 39
2, 321706, Note_on_c, 0, 31, 0
2, 321708, Note_on_c, 0, 55, 45
2, 321784, Note_on_c, 0, 34, 0
2, 321953, Note_on_c, 0, 35, 41
2, 322035, Note_on_c, 0, 57, 42
2, 322059, Note_on_c, 0, 55, 0
2, 322528, Note_on_c, 0, 57, 0
2, 322678, Note_on_c, 0, 60, 52
2, 322694, Note_on_c, 0, 35, 0
2, 322747, Note_on_c, 0, 36, 45
2, 322887, Note_on_c, 0, 60, 0
2, 323600, Note_on_c, 0, 36, 0
2, 323945, Control_c, 0, 64, 127
2, 323949, Note_on_c, 0, 64, 43
2, 323951, Note_on_c, 0, 55, 56
2, 323964, Note_on_c, 0, 36, 45
2, 323989, Note_on_c, 0, 60, 28
2, 324418, Note_on_c, 0, 55, 0
2, 324428, Note_on_c, 0, 64, 0
2, 324519, Note_on_c, 0, 60, 0
2, 324644, Control_c, 0, 64, 0
2, 324654, Note_on_c, 0, 36, 0
2, 324659, Note_on_c, 0, 62, 48
2, 324697, Note_on_c, 0, 58, 42
2, 324709, Note_on_c, 0, 53, 31
2, 324773, Note_on_c, 0, 31, 33
2, 325892, Control_c, 0, 64, 127
2, 326340, Note_on_c, 0, 31, 0
2, 326511, Note_on_c, 0, 35, 51
2, 326612, Control_c, 0, 64, 0
2, 326673, Note_on_c, 0, 53, 0
2, 326802, Note_on_c, 0, 58, 0
2, 327476, Note_on_c, 0, 62, 0
2, 327565, Note_on_c, 0, 35, 0
2, 327584, Note_on_c, 0, 36, 62
2, 327805, Note_on_c, 0, 64, 62
2, 327812, Note_on_c, 0, 55, 72
2, 327816, Note_on_c, 0, 60, 54
2, 328291, Note_on_c, 0, 55, 0
2, 328384, Note_on_c, 0, 64, 0
2, 328426, Note_on_c, 0, 30, 38
2, 328460, Note_on_c, 0, 60, 0
2, 328562, Note_on_c, 0, 36, 0
2, 328720, Note_on_c, 0, 30, 0
2, 328838, Note_on_c, 0, 31, 36
2, 328859, Note_on_c, 0, 62, 39
2, 328878, Note_on_c, 0, 53, 30
2, 328908, Note_on_c, 0, 58, 33
2, 329282, Note_on_c, 0, 53, 0
2, 329311, Note_on_c, 0, 31, 0
2, 329318, Note_on_c, 0, 58, 0
2, 329379, Note_on_c, 0, 62, 0
2, 329485, Note_on_c, 0, 62, 38
2, 329489, Note_on_c, 0, 58, 65
2, 329491, Note_on_c, 0, 31, 60
2, 329493, Note_on_c, 0, 53, 62
2, 329706, Note_on_c, 0, 53, 0
2, 329744, Note_on_c, 0, 31, 0
2, 329751, Note_on_c, 0, 58, 0
2, 329871, Note_on_c, 0, 58, 56
2, 329901, Note_on_c, 0, 53, 54
2, 329907, Note_on_c, 0, 31, 64
2, 330253, Note_on_c, 0, 53, 0
2, 330266, Note_on_c, 0, 31, 0
2, 330317, Note_on_c, 0, 58, 0
2, 330389, Note_on_c, 0, 62, 0
2, 330505, Note_on_c, 0, 31, 76
2, 330519, Note_on_c, 0, 62, 55
2, 330526, Note_on_c, 0, 58, 75
2, 330547, Note_on_c, 0, 53, 77
2, 330737, Note_on_c, 0, 53, 0
2, 330855, Note_on_c, 0, 58, 0
2, 330866, Note_on_c, 0, 31, 0
2, 330883, Note_on_c, 0, 62, 0
2, 330963, Note_on_c, 0, 36, 81
2, 330990, Note_on_c, 0, 64, 75
2, 330997, Note_on_c, 0, 60, 70
2, 331018, Note_on_c, 0, 55, 78
2, 331379, Note_on_c, 0, 55, 0
2, 331512, Note_on_c, 0, 60, 0
2, 331529, Note_on_c, 0, 64, 0
2, 331548, Note_on_c, 0, 36, 0
2, 331882, Note_on_c, 0, 64, 54
2, 331918, Note_on_c, 0, 60, 46
2, 331920, Note_on_c, 0, 55, 51
2, 331926, Note_on_c, 0, 36, 45
2, 332298, Note_on_c, 0, 55, 0
2, 332325, Note_on_c, 0, 64, 0
2, 332372, Note_on_c, 0, 60, 0
2, 332543, Note_on_c, 0, 62, 36
2, 332545, Note_on_c, 0, 36, 0
2, 332572, Note_on_c, 0, 53, 49
2, 332589, Note_on_c, 0, 58, 50
2, 332600, Note_on_c, 0, 31, 43
2, 332938, Note_on_c, 0, 31, 0
2, 333003, Note_on_c, 0, 53, 0
2, 333022, Note_on_c, 0, 58, 0
2, 333117, Note_on_c, 0, 62, 0
2, 333535, Note_on_c, 0, 31, 53
2, 333548, Note_on_c, 0, 58, 46
2, 333554, Note_on_c, 0, 62, 25
2, 333575, Note_on_c, 0, 53, 33
2, 333740, Note_on_c, 0, 53, 0
2, 333861, Note_on_c, 0, 31, 0
2, 333899, Note_on_c, 0, 58, 0
2, 333985, Note_on_c, 0, 62, 0
2, 334034, Note_on_c, 0, 36, 40
2, 334038, Note_on_c, 0, 55, 51
2, 334042, Note_on_c, 0, 24, 27
2, 334044, Note_on_c, 0, 64, 44
2, 334061, Note_on_c, 0, 60, 39
2, 335153, Note_on_c, 0, 36, 0
2, 335170, Note_on_c, 0, 55, 0
2, 335240, Note_on_c, 0, 60, 0
2, 335276, Note_on_c, 0, 64, 0
2, 335635, Note_on_c, 0, 64, 51
2, 335660, Note_on_c, 0, 60, 45
2, 335666, Note_on_c, 0, 55, 46
2, 335713, Note_on_c, 0, 36, 47
2, 335835, Note_on_c, 0, 55, 0
2, 335922, Note_on_c, 0, 60, 0
2, 335930, Note_on_c, 0, 36, 0
2, 335966, Note_on_c, 0, 64, 0
2, 336539, Note_on_c, 0, 24, 0
2, 336564, Note_on_c, 0, 62, 52
2, 336596, Note_on_c, 0, 31, 71
2, 336600, Note_on_c, 0, 58, 69
2, 336604, Note_on_c, 0, 53, 73
2, 336900, Note_on_c, 0, 53, 0
2, 336913, Note_on_c, 0, 58, 0
2, 336967, Note_on_c, 0, 62, 0
2, 336986, Note_on_c, 0, 31, 0
2, 337039, Note_on_c, 0, 31, 30
2, 337062, Note_on_c, 0, 62, 38
2, 337071, Note_on_c, 0, 58, 58
2, 337094, Note_on_c, 0, 53, 45
2, 337546, Note_on_c, 0, 53, 0
2, 337607, Note_on_c, 0, 58, 0
2, 337612, Note_on_c, 0, 31, 0
2, 337633, Note_on_c, 0, 62, 0
2, 337719, Note_on_c, 0, 62, 35
2, 337734, Note_on_c, 0, 58, 63
2, 337751, Note_on_c, 0, 31, 79
2, 337753, Note_on_c, 0, 53, 58
2, 337833, Note_on_c, 0, 53, 0
2, 337895, Note_on_c, 0, 58, 0
2, 337945, Note_on_c, 0, 62, 0
2, 337947, Note_on_c, 0, 31, 0
2, 338340, Control_c, 0, 64, 127
2, 338772, Control_c, 0, 64, 0
2, 338889, Note_on_c, 0, 55, 59
2, 338891, Note_on_c, 0, 64, 68
2, 338935, Note_on_c, 0, 59, 56
2, 338954, Note_on_c, 0, 36, 47
2, 339278, Control_c, 0, 64, 127
2, 339376, Note_on_c, 0, 55, 0
2, 339502, Note_on_c, 0, 59, 0
2, 339561, Note_on_c, 0, 64, 0
2, 340286, Note_on_c, 0, 36, 0
2, 340348, Note_on_c, 0, 67, 61
2, 340370, Note_on_c, 0, 57, 50
2, 340373, Note_on_c, 0, 62, 55
2, 340402, Note_on_c, 0, 52, 32
2, 340579, Note_on_c, 0, 57, 0
2, 340757, Note_on_c, 0, 52, 0
2, 340762, Note_on_c, 0, 62, 0
2, 340790, Note_on_c, 0, 67, 0
2, 341505, Note_on_c, 0, 71, 66
2, 341527, Note_on_c, 0, 55, 55
2, 341530, Note_on_c, 0, 62, 60
2, 341539, Note_on_c, 0, 64, 61
2, 341548, Note_on_c, 0, 67, 55
2, 341719, Note_on_c, 0, 62, 0
2, 341769, Note_on_c, 0, 64, 0
2, 341839, Note_on_c, 0, 67, 0
2, 341890, Note_on_c, 0, 71, 0
2, 342598, Note_on_c, 0, 55, 0
2, 342626, Note_on_c, 0, 74, 71
2, 342646, Note_on_c, 0, 67, 58
2, 342665, Note_on_c, 0, 64, 50
2, 342693, Note_on_c, 0, 59, 37
2, 342863, Note_on_c, 0, 64, 0
2, 342926, Note_on_c, 0, 67, 0
2, 343034, Note_on_c, 0, 74, 0
2, 343730, Note_on_c, 0, 59, 0
2, 343822, Note_on_c, 0, 76, 62
2, 343847, Note_on_c, 0, 67, 50
2, 343850, Note_on_c, 0, 71, 58
2, 343867, Note_on_c, 0, 62, 47
2, 343948, Control_c, 0, 64, 0
2, 344090, Note_on_c, 0, 67, 0
2, 344119, Control_c, 0, 64, 127
2, 344241, Note_on_c, 0, 71, 0
2, 344261, Note_on_c, 0, 76, 0
2, 344950, Note_on_c, 0, 79, 50
2, 344952, Note_on_c, 0, 62, 0
2, 344964, Note_on_c, 0, 74, 57
2, 344974, Note_on_c, 0, 69, 34
2, 344976, Note_on_c, 0, 64, 48
2, 344986, Control_c, 0, 64, 0
2, 345079, Control_c, 0, 64, 127
2, 345213, Note_on_c, 0, 69, 0
2, 345319, Note_on_c, 0, 74, 0
2, 345357, Note_on_c, 0, 79, 0
2, 346106, Note_on_c, 0, 64, 0
2, 346156, Note_on_c, 0, 74, 47
2, 346166, Note_on_c, 0, 83, 51
2, 346183, Note_on_c, 0, 76, 45
2, 346186, Note_on_c, 0, 67, 46
2, 346228, Note_on_c, 0, 79, 45
2, 346361, Note_on_c, 0, 74, 0
2, 346373, Note_on_c, 0, 79, 0
2, 346396, Note_on_c, 0, 76, 0
2, 346502, Note_on_c, 0, 83, 0
2, 347392, Note_on_c, 0, 67, 0
2, 347395, Note_on_c, 0, 86, 50
2, 347411, Note_on_c, 0, 79, 35
2, 347467, Note_on_c, 0, 71, 42
2, 347687, Note_on_c, 0, 79, 0
2, 347741, Note_on_c, 0, 86, 0
2, 348864, Note_on_c, 0, 71, 0
2, 349037, Note_on_c, 0, 91, 35
2, 349042, Note_on_c, 0, 83, 35
2, 349060, Note_on_c, 0, 74, 48
2, 349084, Note_on_c, 0, 86, 48
2, 349576, Note_on_c, 0, 74, 0
2, 349703, Note_on_c, 0, 83, 0
2, 349848, Note_on_c, 0, 86, 0
2, 350002, Note_on_c, 0, 91, 0
2, 352703, Note_on_c, 0, 100, 34
2, 352735, Note_on_c, 0, 52, 31
2, 353109, Note_on_c, 0, 100, 0
2, 353148, Note_on_c, 0, 52, 0
2, 353306, Note_on_c, 0, 101, 49
2, 353347, Note_on_c, 0, 53, 32
2, 353654, Note_on_c, 0, 101, 0
2, 353841, Note_on_c, 0, 53, 0
2, 353947, Note_on_c, 0, 55, 47
2, 353988, Note_on_c, 0, 103, 64
2, 358737, Note_on_c, 0, 55, 0
2, 358756, Note_on_c, 0, 103, 0
2, 359131, Control_c, 0, 64, 0
2, 359131, End_track
0, 0, End_of_file
