0, 0, Header, 1, 10, 960
1, 0, Start_track
1, 0, Title_t, "Nardis (Miles Davis/Bill Evans)"
1, 0, Text_t, "dougmck@pipeline.com.au\012"
1, 0, Text_t, "First chorus rubato - then trio in tempo - first fairly freely, then more straight-ahead.\012"
1, 0, Time_signature, 4, 2, 24, 8
1, 0, Key_signature, 0, "major"
1, 0, Tempo, 428571
1, 568, Marker_t, "Melodic phrase in unison"
1, 3608, Marker_t, "Chords fill - LH and RH in contrary  motion D/E then C/F"
1, 14247, Marker_t, "B7susb9 - phrygian chord = G Major parent scale"
1, 21828, Marker_t, "CMaj7#11 - lydian chord = G Major"
1, 23344, Marker_t, "Same melodic phrase repeated over both chords"
1, 30720, Marker_t, "Am chord"
1, 39229, Marker_t, "Fmaj7#5 (=  A Major triad in RH with F Bass in LH)"
1, 46344, Marker_t, "EMaj7#5  (= Ab Major triad in RH with E bass in LH)"
1, 50120, Marker_t, "Em11"
1, 109135, Marker_t, "Bridge"
1, 110095, Marker_t, "Am9 played as 'cluster' voicing - BCE"
1, 114524, Marker_t, "FMaj9#11"
1, 130211, Marker_t, "Dm7"
1, 137029, Marker_t, "G7"
1, 145920, Marker_t, "Cmaj7#11"
1, 151069, Marker_t, "FMaj7#11"
1, 207360, Tempo, 375000
1, 210218, Marker_t, "In Tempo with Bass and Drums"
1, 213472, Marker_t, "Note no use of sustain pedal "
1, 456960, Marker_t, "Bass walks in 4 on final choruses"
1, 518989, Marker_t, "RH octave tremolo"
1, 518989, End_track
2, 0, Start_track
2, 0, End_track
3, 0, Start_track
3, 0, Title_t, "MIDI 1"
3, 0, End_track
4, 0, Start_track
4, 0, Title_t, "Melody"
4, 0, Control_c, 0, 7, 111
4, 742, Note_on_c, 0, 59, 58
4, 746, Note_on_c, 0, 95, 65
4, 1076, Note_on_c, 0, 95, 0
4, 1123, Note_on_c, 0, 59, 0
4, 1154, Note_on_c, 0, 64, 80
4, 1163, Note_on_c, 0, 100, 91
4, 1685, Control_c, 0, 64, 127
4, 2317, Note_on_c, 0, 100, 0
4, 2371, Note_on_c, 0, 64, 0
4, 3691, Note_on_c, 0, 66, 46
4, 3752, Note_on_c, 0, 59, 57
4, 3757, Note_on_c, 0, 62, 59
4, 3793, Note_on_c, 0, 40, 32
4, 3795, Note_on_c, 0, 55, 44
4, 3798, Note_on_c, 0, 47, 31
4, 3802, Control_c, 0, 64, 0
4, 4069, Note_on_c, 0, 52, 1
4, 4206, Control_c, 0, 64, 127
4, 4642, Note_on_c, 0, 59, 0
4, 4658, Note_on_c, 0, 47, 0
4, 4666, Note_on_c, 0, 55, 0
4, 4674, Note_on_c, 0, 40, 0
4, 4960, Note_on_c, 0, 52, 0
4, 5017, Note_on_c, 0, 66, 0
4, 5019, Note_on_c, 0, 62, 0
4, 5316, Note_on_c, 0, 64, 43
4, 5335, Note_on_c, 0, 48, 40
4, 5339, Control_c, 0, 64, 0
4, 5343, Note_on_c, 0, 41, 42
4, 5346, Note_on_c, 0, 60, 41
4, 5362, Note_on_c, 0, 57, 20
4, 5365, Note_on_c, 0, 55, 20
4, 5922, Control_c, 0, 64, 127
4, 6557, Note_on_c, 0, 55, 0
4, 6643, Note_on_c, 0, 57, 0
4, 6801, Note_on_c, 0, 60, 0
4, 6825, Note_on_c, 0, 64, 0
4, 7007, Note_on_c, 0, 41, 0
4, 7090, Note_on_c, 0, 48, 0
4, 8128, Note_on_c, 0, 75, 81
4, 8153, Note_on_c, 0, 51, 63
4, 8654, Note_on_c, 0, 75, 0
4, 8674, Note_on_c, 0, 51, 0
4, 8777, Note_on_c, 0, 76, 62
4, 8797, Note_on_c, 0, 52, 54
4, 9012, Note_on_c, 0, 52, 0
4, 9483, Note_on_c, 0, 76, 0
4, 9561, Note_on_c, 0, 88, 74
4, 9575, Note_on_c, 0, 64, 69
4, 10378, Note_on_c, 0, 88, 0
4, 10433, Note_on_c, 0, 63, 56
4, 10438, Note_on_c, 0, 87, 65
4, 10475, Control_c, 0, 64, 0
4, 10476, Note_on_c, 0, 64, 0
4, 11106, Control_c, 0, 64, 127
4, 11329, Note_on_c, 0, 63, 0
4, 11330, Note_on_c, 0, 87, 0
4, 11398, Note_on_c, 0, 60, 30
4, 11408, Note_on_c, 0, 84, 55
4, 11809, Note_on_c, 0, 84, 0
4, 12258, Note_on_c, 0, 60, 0
4, 14361, Note_on_c, 0, 71, 48
4, 14397, Note_on_c, 0, 47, 35
4, 14399, Note_on_c, 0, 64, 49
4, 14450, Control_c, 0, 64, 0
4, 14970, Note_on_c, 0, 54, 34
4, 14981, Control_c, 0, 64, 127
4, 15408, Note_on_c, 0, 59, 35
4, 15446, Note_on_c, 0, 71, 0
4, 15698, Note_on_c, 0, 64, 0
4, 15740, Note_on_c, 0, 60, 42
4, 15956, Note_on_c, 0, 60, 0
4, 16036, Note_on_c, 0, 64, 37
4, 16183, Note_on_c, 0, 64, 0
4, 16233, Note_on_c, 0, 71, 64
4, 16343, Note_on_c, 0, 71, 0
4, 16516, Note_on_c, 0, 72, 62
4, 16716, Note_on_c, 0, 76, 68
4, 16718, Note_on_c, 0, 72, 0
4, 16891, Note_on_c, 0, 76, 0
4, 16952, Note_on_c, 0, 83, 83
4, 17200, Note_on_c, 0, 76, 66
4, 17235, Note_on_c, 0, 83, 0
4, 17525, Note_on_c, 0, 78, 49
4, 17543, Note_on_c, 0, 76, 0
4, 17739, Note_on_c, 0, 78, 0
4, 18070, Note_on_c, 0, 83, 51
4, 18317, Note_on_c, 0, 83, 0
4, 18377, Note_on_c, 0, 88, 60
4, 18637, Note_on_c, 0, 90, 60
4, 18769, Note_on_c, 0, 88, 0
4, 18832, Note_on_c, 0, 90, 0
4, 18876, Note_on_c, 0, 95, 85
4, 19146, Note_on_c, 0, 88, 65
4, 19325, Note_on_c, 0, 95, 0
4, 19453, Note_on_c, 0, 90, 57
4, 20276, Note_on_c, 0, 88, 0
4, 20336, Note_on_c, 0, 83, 35
4, 20529, Note_on_c, 0, 90, 0
4, 20612, Note_on_c, 0, 83, 0
4, 20626, Note_on_c, 0, 88, 53
4, 20862, Note_on_c, 0, 47, 0
4, 20900, Note_on_c, 0, 90, 69
4, 20995, Note_on_c, 0, 88, 0
4, 21099, Note_on_c, 0, 90, 0
4, 21160, Note_on_c, 0, 95, 89
4, 21422, Note_on_c, 0, 88, 65
4, 21534, Note_on_c, 0, 95, 0
4, 21557, Note_on_c, 0, 54, 0
4, 21675, Note_on_c, 0, 88, 0
4, 21737, Note_on_c, 0, 90, 71
4, 21916, Note_on_c, 0, 48, 66
4, 21926, Note_on_c, 0, 59, 0
4, 22006, Control_c, 0, 64, 0
4, 22377, Control_c, 0, 64, 127
4, 22427, Note_on_c, 0, 55, 39
4, 22450, Note_on_c, 0, 83, 55
4, 22724, Note_on_c, 0, 90, 0
4, 22794, Note_on_c, 0, 88, 57
4, 23113, Note_on_c, 0, 90, 44
4, 23206, Note_on_c, 0, 48, 0
4, 23391, Note_on_c, 0, 83, 0
4, 23463, Note_on_c, 0, 95, 59
4, 23515, Note_on_c, 0, 64, 41
4, 23649, Note_on_c, 0, 88, 0
4, 23799, Note_on_c, 0, 90, 0
4, 23852, Note_on_c, 0, 88, 51
4, 23900, Note_on_c, 0, 95, 0
4, 24230, Note_on_c, 0, 90, 42
4, 24746, Note_on_c, 0, 88, 0
4, 24815, Note_on_c, 0, 83, 40
4, 25033, Note_on_c, 0, 90, 0
4, 25100, Note_on_c, 0, 88, 49
4, 25289, Note_on_c, 0, 83, 0
4, 25396, Note_on_c, 0, 90, 46
4, 25599, Note_on_c, 0, 88, 0
4, 25631, Note_on_c, 0, 64, 0
4, 25657, Note_on_c, 0, 90, 0
4, 25669, Note_on_c, 0, 95, 69
4, 26002, Note_on_c, 0, 88, 41
4, 26371, Note_on_c, 0, 90, 42
4, 26435, Note_on_c, 0, 48, 32
4, 26887, Note_on_c, 0, 55, 0
4, 27442, Note_on_c, 0, 88, 0
4, 27502, Note_on_c, 0, 83, 32
4, 27564, Note_on_c, 0, 55, 20
4, 27813, Note_on_c, 0, 90, 0
4, 27892, Note_on_c, 0, 88, 48
4, 27899, Note_on_c, 0, 95, 0
4, 28233, Note_on_c, 0, 90, 49
4, 28678, Note_on_c, 0, 95, 38
4, 28720, Note_on_c, 0, 88, 0
4, 28772, Note_on_c, 0, 64, 24
4, 28783, Note_on_c, 0, 90, 0
4, 29119, Note_on_c, 0, 88, 40
4, 29568, Note_on_c, 0, 95, 0
4, 29628, Note_on_c, 0, 90, 38
4, 30133, Note_on_c, 0, 64, 0
4, 30237, Note_on_c, 0, 55, 0
4, 30375, Note_on_c, 0, 48, 0
4, 31041, Note_on_c, 0, 83, 0
4, 31210, Note_on_c, 0, 88, 0
4, 31248, Note_on_c, 0, 90, 0
4, 31303, Note_on_c, 0, 33, 49
4, 31334, Control_c, 0, 64, 0
4, 31646, Control_c, 0, 64, 127
4, 31943, Note_on_c, 0, 33, 0
4, 34515, Note_on_c, 0, 83, 78
4, 34560, Note_on_c, 0, 76, 72
4, 34587, Note_on_c, 0, 72, 58
4, 34595, Note_on_c, 0, 68, 48
4, 34608, Control_c, 0, 64, 0
4, 34851, Control_c, 0, 64, 127
4, 35338, Note_on_c, 0, 83, 0
4, 35422, Note_on_c, 0, 72, 0
4, 35463, Note_on_c, 0, 76, 0
4, 35488, Note_on_c, 0, 68, 0
4, 35595, Note_on_c, 0, 81, 61
4, 35633, Note_on_c, 0, 76, 40
4, 35651, Note_on_c, 0, 72, 36
4, 35681, Control_c, 0, 64, 0
4, 35684, Note_on_c, 0, 67, 44
4, 35954, Control_c, 0, 64, 127
4, 36947, Note_on_c, 0, 67, 0
4, 37506, Note_on_c, 0, 81, 0
4, 37567, Note_on_c, 0, 79, 54
4, 38329, Note_on_c, 0, 79, 0
4, 38345, Note_on_c, 0, 76, 0
4, 38373, Note_on_c, 0, 72, 0
4, 39319, Note_on_c, 0, 76, 49
4, 39354, Note_on_c, 0, 73, 36
4, 39386, Control_c, 0, 64, 0
4, 39388, Note_on_c, 0, 69, 38
4, 39420, Note_on_c, 0, 53, 24
4, 39445, Note_on_c, 0, 64, 29
4, 39839, Control_c, 0, 64, 127
4, 39906, Note_on_c, 0, 64, 0
4, 39999, Note_on_c, 0, 69, 0
4, 40020, Note_on_c, 0, 61, 36
4, 40116, Note_on_c, 0, 73, 0
4, 40150, Note_on_c, 0, 76, 0
4, 40689, Note_on_c, 0, 64, 24
4, 40707, Note_on_c, 0, 69, 37
4, 41248, Note_on_c, 0, 81, 74
4, 41602, Note_on_c, 0, 61, 0
4, 41691, Note_on_c, 0, 81, 0
4, 41825, Note_on_c, 0, 64, 0
4, 42267, Note_on_c, 0, 81, 73
4, 42872, Note_on_c, 0, 81, 0
4, 43128, Note_on_c, 0, 81, 48
4, 43168, Note_on_c, 0, 61, 36
4, 43765, Note_on_c, 0, 81, 0
4, 44083, Note_on_c, 0, 81, 52
4, 44283, Note_on_c, 0, 64, 7
4, 44660, Note_on_c, 0, 53, 0
4, 44675, Note_on_c, 0, 81, 0
4, 45013, Note_on_c, 0, 81, 43
4, 45076, Note_on_c, 0, 64, 0
4, 45090, Note_on_c, 0, 53, 20
4, 45244, Note_on_c, 0, 81, 0
4, 45261, Note_on_c, 0, 61, 0
4, 45326, Note_on_c, 0, 69, 0
4, 45404, Note_on_c, 0, 53, 0
4, 46403, Note_on_c, 0, 80, 50
4, 46440, Note_on_c, 0, 75, 49
4, 46462, Control_c, 0, 64, 0
4, 46470, Note_on_c, 0, 72, 47
4, 46492, Note_on_c, 0, 68, 36
4, 46494, Note_on_c, 0, 52, 36
4, 47265, Control_c, 0, 64, 127
4, 47568, Note_on_c, 0, 60, 28
4, 47602, Note_on_c, 0, 68, 0
4, 47623, Note_on_c, 0, 72, 0
4, 48288, Note_on_c, 0, 80, 0
4, 48290, Note_on_c, 0, 75, 0
4, 48380, Note_on_c, 0, 81, 60
4, 48788, Note_on_c, 0, 81, 0
4, 48910, Note_on_c, 0, 80, 56
4, 49178, Note_on_c, 0, 80, 0
4, 49305, Note_on_c, 0, 52, 0
4, 49723, Note_on_c, 0, 60, 0
4, 49727, Note_on_c, 0, 77, 50
4, 49739, Note_on_c, 0, 52, 42
4, 49846, Control_c, 0, 64, 0
4, 50517, Note_on_c, 0, 59, 33
4, 50537, Control_c, 0, 64, 127
4, 51163, Note_on_c, 0, 77, 0
4, 51272, Note_on_c, 0, 66, 46
4, 51279, Note_on_c, 0, 76, 52
4, 51296, Note_on_c, 0, 71, 51
4, 51357, Note_on_c, 0, 64, 16
4, 51408, Note_on_c, 0, 59, 0
4, 51806, Note_on_c, 0, 66, 0
4, 51940, Note_on_c, 0, 59, 51
4, 51942, Note_on_c, 0, 71, 0
4, 52030, Note_on_c, 0, 76, 0
4, 52068, Note_on_c, 0, 64, 0
4, 52456, Note_on_c, 0, 59, 0
4, 52529, Note_on_c, 0, 62, 48
4, 52544, Note_on_c, 0, 83, 80
4, 53104, Note_on_c, 0, 57, 45
4, 53692, Note_on_c, 0, 78, 55
4, 54002, Note_on_c, 0, 57, 0
4, 54283, Note_on_c, 0, 83, 0
4, 54314, Note_on_c, 0, 57, 34
4, 54678, Note_on_c, 0, 52, 0
4, 54913, Control_c, 0, 64, 0
4, 54942, Note_on_c, 0, 71, 45
4, 54974, Note_on_c, 0, 52, 38
4, 55027, Note_on_c, 0, 57, 0
4, 55301, Control_c, 0, 64, 127
4, 55475, Note_on_c, 0, 78, 0
4, 55560, Note_on_c, 0, 62, 0
4, 55640, Note_on_c, 0, 59, 34
4, 56240, Note_on_c, 0, 71, 0
4, 56364, Note_on_c, 0, 64, 28
4, 56373, Note_on_c, 0, 66, 33
4, 56627, Note_on_c, 0, 64, 0
4, 56701, Note_on_c, 0, 59, 0
4, 57127, Note_on_c, 0, 62, 32
4, 57683, Note_on_c, 0, 52, 0
4, 58896, Note_on_c, 0, 28, 27
4, 59134, Note_on_c, 0, 28, 0
4, 60018, Note_on_c, 0, 66, 0
4, 60023, Note_on_c, 0, 62, 0
4, 61864, Note_on_c, 0, 94, 46
4, 61888, Note_on_c, 0, 59, 52
4, 61891, Note_on_c, 0, 95, 68
4, 62008, Note_on_c, 0, 94, 0
4, 62183, Note_on_c, 0, 95, 0
4, 62237, Note_on_c, 0, 59, 0
4, 62243, Note_on_c, 0, 100, 82
4, 62254, Note_on_c, 0, 64, 80
4, 62308, Control_c, 0, 64, 0
4, 62790, Control_c, 0, 64, 127
4, 63134, Note_on_c, 0, 100, 0
4, 63334, Note_on_c, 0, 64, 0
4, 65101, Note_on_c, 0, 66, 33
4, 65107, Note_on_c, 0, 69, 54
4, 65112, Control_c, 0, 64, 0
4, 65125, Note_on_c, 0, 52, 31
4, 65133, Note_on_c, 0, 57, 40
4, 65141, Note_on_c, 0, 62, 32
4, 65354, Control_c, 0, 64, 127
4, 65644, Note_on_c, 0, 62, 0
4, 65697, Note_on_c, 0, 57, 0
4, 65805, Note_on_c, 0, 52, 0
4, 66417, Note_on_c, 0, 69, 0
4, 66420, Note_on_c, 0, 66, 0
4, 67850, Note_on_c, 0, 57, 33
4, 67856, Note_on_c, 0, 59, 32
4, 67860, Note_on_c, 0, 48, 36
4, 67862, Note_on_c, 0, 64, 41
4, 67864, Note_on_c, 0, 62, 44
4, 67869, Note_on_c, 0, 41, 39
4, 67885, Control_c, 0, 64, 0
4, 68787, Control_c, 0, 64, 127
4, 69420, Note_on_c, 0, 57, 0
4, 69444, Note_on_c, 0, 59, 0
4, 69611, Note_on_c, 0, 64, 0
4, 69640, Note_on_c, 0, 62, 0
4, 69682, Note_on_c, 0, 41, 0
4, 69699, Note_on_c, 0, 48, 0
4, 70910, Note_on_c, 0, 75, 78
4, 70952, Note_on_c, 0, 63, 48
4, 71312, Note_on_c, 0, 75, 0
4, 71349, Note_on_c, 0, 63, 0
4, 71376, Note_on_c, 0, 76, 70
4, 71393, Note_on_c, 0, 64, 67
4, 71534, Note_on_c, 0, 64, 0
4, 71726, Note_on_c, 0, 76, 0
4, 71925, Note_on_c, 0, 88, 90
4, 71945, Note_on_c, 0, 76, 79
4, 72815, Note_on_c, 0, 88, 0
4, 72885, Note_on_c, 0, 87, 74
4, 72893, Note_on_c, 0, 75, 60
4, 72971, Note_on_c, 0, 76, 0
4, 73665, Note_on_c, 0, 87, 0
4, 73808, Note_on_c, 0, 75, 0
4, 73824, Note_on_c, 0, 84, 61
4, 73833, Note_on_c, 0, 72, 36
4, 74013, Note_on_c, 0, 72, 0
4, 74260, Note_on_c, 0, 84, 0
4, 75582, Note_on_c, 0, 71, 49
4, 75651, Note_on_c, 0, 66, 48
4, 75729, Note_on_c, 0, 64, 53
4, 75747, Control_c, 0, 64, 0
4, 75804, Note_on_c, 0, 48, 30
4, 75911, Note_on_c, 0, 60, 42
4, 76116, Control_c, 0, 64, 127
4, 76284, Note_on_c, 0, 60, 0
4, 76366, Note_on_c, 0, 64, 0
4, 76423, Note_on_c, 0, 66, 0
4, 76467, Note_on_c, 0, 56, 34
4, 76471, Note_on_c, 0, 71, 0
4, 77026, Note_on_c, 0, 48, 0
4, 77038, Note_on_c, 0, 83, 58
4, 77055, Note_on_c, 0, 56, 0
4, 77106, Note_on_c, 0, 59, 35
4, 79110, Note_on_c, 0, 59, 0
4, 79208, Note_on_c, 0, 47, 35
4, 79489, Note_on_c, 0, 54, 46
4, 79498, Note_on_c, 0, 47, 0
4, 79791, Note_on_c, 0, 59, 46
4, 79810, Note_on_c, 0, 54, 0
4, 79954, Note_on_c, 0, 72, 38
4, 80000, Note_on_c, 0, 83, 0
4, 80133, Note_on_c, 0, 76, 54
4, 80219, Note_on_c, 0, 72, 0
4, 80290, Note_on_c, 0, 78, 36
4, 80427, Note_on_c, 0, 76, 0
4, 80444, Note_on_c, 0, 78, 0
4, 80446, Note_on_c, 0, 83, 79
4, 80615, Note_on_c, 0, 59, 0
4, 80716, Note_on_c, 0, 48, 44
4, 80791, Note_on_c, 0, 78, 48
4, 80813, Control_c, 0, 64, 0
4, 81272, Note_on_c, 0, 55, 35
4, 81393, Control_c, 0, 64, 127
4, 81676, Note_on_c, 0, 48, 0
4, 81722, Note_on_c, 0, 55, 0
4, 81774, Note_on_c, 0, 60, 37
4, 82219, Note_on_c, 0, 60, 0
4, 82232, Note_on_c, 0, 62, 50
4, 82708, Note_on_c, 0, 62, 0
4, 82793, Note_on_c, 0, 72, 34
4, 82798, Note_on_c, 0, 76, 51
4, 82838, Note_on_c, 0, 64, 27
4, 83448, Note_on_c, 0, 67, 36
4, 83482, Note_on_c, 0, 64, 0
4, 83600, Note_on_c, 0, 72, 0
4, 84194, Note_on_c, 0, 72, 38
4, 84273, Note_on_c, 0, 67, 0
4, 84313, Note_on_c, 0, 69, 24
4, 85014, Note_on_c, 0, 69, 0
4, 86225, Note_on_c, 0, 47, 70
4, 86426, Note_on_c, 0, 47, 0
4, 87135, Note_on_c, 0, 45, 82
4, 87262, Control_c, 0, 64, 0
4, 87751, Control_c, 0, 64, 127
4, 87986, Note_on_c, 0, 72, 0
4, 88000, Note_on_c, 0, 33, 65
4, 88026, Note_on_c, 0, 76, 0
4, 88036, Note_on_c, 0, 83, 0
4, 88081, Note_on_c, 0, 78, 0
4, 88081, Note_on_c, 0, 45, 0
4, 88132, Note_on_c, 0, 33, 0
4, 90144, Note_on_c, 0, 68, 74
4, 90147, Note_on_c, 0, 83, 88
4, 90157, Note_on_c, 0, 76, 82
4, 90159, Note_on_c, 0, 72, 82
4, 90167, Control_c, 0, 64, 0
4, 90359, Control_c, 0, 64, 127
4, 90770, Note_on_c, 0, 83, 0
4, 90861, Note_on_c, 0, 72, 0
4, 90902, Note_on_c, 0, 76, 0
4, 90960, Note_on_c, 0, 81, 74
4, 90964, Note_on_c, 0, 76, 58
4, 90971, Note_on_c, 0, 72, 70
4, 90978, Note_on_c, 0, 68, 0
4, 90998, Note_on_c, 0, 67, 73
4, 91002, Control_c, 0, 64, 0
4, 91303, Control_c, 0, 64, 127
4, 91675, Note_on_c, 0, 72, 0
4, 91744, Note_on_c, 0, 76, 0
4, 91776, Note_on_c, 0, 81, 0
4, 91848, Note_on_c, 0, 69, 44
4, 91866, Note_on_c, 0, 74, 53
4, 91871, Note_on_c, 0, 79, 59
4, 91907, Note_on_c, 0, 64, 57
4, 91926, Note_on_c, 0, 67, 0
4, 92231, Note_on_c, 0, 64, 0
4, 92584, Note_on_c, 0, 79, 0
4, 92604, Note_on_c, 0, 74, 0
4, 92651, Note_on_c, 0, 69, 0
4, 93526, Note_on_c, 0, 76, 46
4, 93543, Note_on_c, 0, 73, 26
4, 93558, Note_on_c, 0, 69, 39
4, 93562, Note_on_c, 0, 61, 32
4, 93580, Note_on_c, 0, 64, 29
4, 93584, Control_c, 0, 64, 0
4, 93586, Note_on_c, 0, 53, 33
4, 94241, Control_c, 0, 64, 127
4, 95198, Note_on_c, 0, 73, 0
4, 95388, Note_on_c, 0, 64, 0
4, 95569, Note_on_c, 0, 61, 0
4, 95570, Note_on_c, 0, 69, 0
4, 95654, Note_on_c, 0, 76, 0
4, 95745, Note_on_c, 0, 72, 22
4, 95765, Note_on_c, 0, 64, 37
4, 95772, Note_on_c, 0, 69, 20
4, 95815, Note_on_c, 0, 60, 27
4, 96011, Note_on_c, 0, 64, 0
4, 96080, Note_on_c, 0, 69, 0
4, 96109, Note_on_c, 0, 72, 0
4, 96257, Note_on_c, 0, 60, 0
4, 96757, Note_on_c, 0, 81, 72
4, 96771, Note_on_c, 0, 73, 59
4, 96818, Note_on_c, 0, 61, 36
4, 96819, Note_on_c, 0, 69, 54
4, 97088, Note_on_c, 0, 61, 0
4, 97286, Note_on_c, 0, 53, 0
4, 97323, Note_on_c, 0, 81, 0
4, 97361, Note_on_c, 0, 69, 0
4, 97724, Note_on_c, 0, 73, 0
4, 97957, Note_on_c, 0, 80, 55
4, 97986, Note_on_c, 0, 72, 43
4, 97989, Note_on_c, 0, 68, 32
4, 98010, Note_on_c, 0, 52, 48
4, 98042, Control_c, 0, 64, 0
4, 98052, Note_on_c, 0, 75, 26
4, 98602, Control_c, 0, 64, 127
4, 98818, Note_on_c, 0, 72, 0
4, 98913, Note_on_c, 0, 68, 0
4, 98962, Note_on_c, 0, 75, 0
4, 99114, Note_on_c, 0, 60, 27
4, 99120, Note_on_c, 0, 81, 64
4, 99121, Note_on_c, 0, 80, 0
4, 99578, Note_on_c, 0, 81, 0
4, 99688, Note_on_c, 0, 80, 62
4, 100104, Note_on_c, 0, 80, 0
4, 100216, Note_on_c, 0, 77, 63
4, 100536, Note_on_c, 0, 52, 0
4, 100589, Note_on_c, 0, 60, 0
4, 100703, Note_on_c, 0, 77, 0
4, 100768, Note_on_c, 0, 76, 40
4, 100816, Note_on_c, 0, 52, 19
4, 100848, Control_c, 0, 64, 0
4, 101213, Control_c, 0, 64, 127
4, 101405, Note_on_c, 0, 59, 24
4, 102125, Note_on_c, 0, 64, 26
4, 102636, Note_on_c, 0, 76, 0
4, 102710, Note_on_c, 0, 66, 37
4, 103308, Note_on_c, 0, 71, 60
4, 103516, Note_on_c, 0, 66, 0
4, 104692, Note_on_c, 0, 73, 10
4, 105421, Note_on_c, 0, 66, 60
4, 105928, Note_on_c, 0, 71, 0
4, 105951, Note_on_c, 0, 66, 0
4, 105995, Note_on_c, 0, 73, 0
4, 106008, Note_on_c, 0, 67, 85
4, 106542, Note_on_c, 0, 67, 0
4, 106570, Note_on_c, 0, 69, 87
4, 107093, Note_on_c, 0, 69, 0
4, 107149, Note_on_c, 0, 71, 82
4, 107218, Note_on_c, 0, 69, 25
4, 107273, Note_on_c, 0, 69, 0
4, 107635, Note_on_c, 0, 71, 0
4, 107723, Note_on_c, 0, 76, 79
4, 107724, Note_on_c, 0, 64, 0
4, 108203, Note_on_c, 0, 76, 0
4, 108454, Note_on_c, 0, 78, 57
4, 108733, Note_on_c, 0, 59, 0
4, 109033, Note_on_c, 0, 52, 0
4, 109207, Note_on_c, 0, 78, 0
4, 109262, Note_on_c, 0, 86, 66
4, 109940, Note_on_c, 0, 86, 0
4, 109999, Note_on_c, 0, 83, 63
4, 110007, Control_c, 0, 64, 0
4, 110028, Note_on_c, 0, 45, 37
4, 110323, Control_c, 0, 64, 127
4, 110568, Note_on_c, 0, 52, 35
4, 110578, Note_on_c, 0, 45, 0
4, 110694, Note_on_c, 0, 52, 0
4, 111187, Note_on_c, 0, 64, 28
4, 111189, Note_on_c, 0, 60, 44
4, 111192, Note_on_c, 0, 59, 44
4, 111339, Note_on_c, 0, 60, 0
4, 111376, Note_on_c, 0, 59, 0
4, 111379, Note_on_c, 0, 64, 0
4, 111765, Note_on_c, 0, 64, 63
4, 111780, Note_on_c, 0, 59, 62
4, 111783, Note_on_c, 0, 60, 57
4, 112122, Note_on_c, 0, 64, 0
4, 112123, Note_on_c, 0, 60, 0
4, 112131, Note_on_c, 0, 59, 0
4, 112613, Note_on_c, 0, 64, 72
4, 112614, Note_on_c, 0, 60, 70
4, 112620, Note_on_c, 0, 59, 70
4, 112912, Note_on_c, 0, 59, 0
4, 112942, Note_on_c, 0, 60, 0
4, 112967, Note_on_c, 0, 64, 0
4, 113300, Note_on_c, 0, 64, 69
4, 113309, Note_on_c, 0, 60, 67
4, 113314, Note_on_c, 0, 59, 69
4, 113570, Note_on_c, 0, 60, 0
4, 113594, Note_on_c, 0, 59, 0
4, 113617, Note_on_c, 0, 64, 0
4, 113920, Note_on_c, 0, 83, 0
4, 113994, Note_on_c, 0, 60, 53
4, 113996, Note_on_c, 0, 59, 52
4, 114002, Note_on_c, 0, 64, 50
4, 114253, Note_on_c, 0, 59, 0
4, 114333, Note_on_c, 0, 64, 0
4, 114412, Note_on_c, 0, 60, 0
4, 114657, Note_on_c, 0, 83, 47
4, 114666, Note_on_c, 0, 76, 58
4, 114695, Note_on_c, 0, 71, 44
4, 114711, Note_on_c, 0, 64, 44
4, 114721, Control_c, 0, 64, 0
4, 114722, Note_on_c, 0, 53, 40
4, 114754, Note_on_c, 0, 60, 15
4, 115094, Note_on_c, 0, 60, 0
4, 115284, Control_c, 0, 64, 127
4, 115518, Note_on_c, 0, 71, 0
4, 115519, Note_on_c, 0, 60, 34
4, 115595, Note_on_c, 0, 76, 0
4, 115604, Note_on_c, 0, 64, 0
4, 116331, Note_on_c, 0, 71, 42
4, 116354, Note_on_c, 0, 76, 48
4, 116375, Note_on_c, 0, 64, 35
4, 117168, Note_on_c, 0, 83, 0
4, 117238, Note_on_c, 0, 60, 0
4, 117283, Note_on_c, 0, 64, 0
4, 117367, Note_on_c, 0, 53, 0
4, 117720, Note_on_c, 0, 76, 0
4, 118217, Note_on_c, 0, 71, 0
4, 120513, Note_on_c, 0, 71, 63
4, 120558, Control_c, 0, 64, 0
4, 120561, Note_on_c, 0, 47, 44
4, 120883, Note_on_c, 0, 71, 0
4, 120888, Note_on_c, 0, 72, 74
4, 120929, Note_on_c, 0, 48, 64
4, 120959, Control_c, 0, 64, 127
4, 120975, Note_on_c, 0, 47, 0
4, 121212, Note_on_c, 0, 72, 0
4, 121240, Note_on_c, 0, 48, 0
4, 121278, Note_on_c, 0, 76, 75
4, 121617, Note_on_c, 0, 76, 0
4, 121705, Note_on_c, 0, 79, 71
4, 121967, Note_on_c, 0, 79, 0
4, 122245, Note_on_c, 0, 83, 63
4, 122260, Note_on_c, 0, 45, 51
4, 122289, Control_c, 0, 64, 0
4, 122724, Note_on_c, 0, 52, 39
4, 122739, Control_c, 0, 64, 127
4, 123048, Note_on_c, 0, 45, 0
4, 123104, Note_on_c, 0, 52, 0
4, 123175, Note_on_c, 0, 57, 47
4, 123190, Note_on_c, 0, 71, 33
4, 123549, Note_on_c, 0, 57, 0
4, 123622, Note_on_c, 0, 59, 40
4, 123811, Note_on_c, 0, 71, 0
4, 123949, Note_on_c, 0, 59, 0
4, 124041, Note_on_c, 0, 60, 40
4, 124405, Note_on_c, 0, 60, 0
4, 124475, Note_on_c, 0, 64, 49
4, 124947, Note_on_c, 0, 67, 57
4, 125314, Note_on_c, 0, 67, 0
4, 125358, Note_on_c, 0, 64, 0
4, 125375, Note_on_c, 0, 71, 44
4, 125399, Note_on_c, 0, 83, 0
4, 125821, Note_on_c, 0, 71, 0
4, 125868, Note_on_c, 0, 76, 56
4, 125898, Control_c, 0, 64, 0
4, 125925, Note_on_c, 0, 53, 27
4, 126220, Control_c, 0, 64, 127
4, 126290, Note_on_c, 0, 83, 59
4, 126312, Note_on_c, 0, 60, 42
4, 126324, Note_on_c, 0, 76, 0
4, 126499, Note_on_c, 0, 83, 0
4, 126790, Note_on_c, 0, 88, 65
4, 126840, Note_on_c, 0, 65, 36
4, 127072, Note_on_c, 0, 60, 0
4, 127288, Note_on_c, 0, 95, 41
4, 127424, Note_on_c, 0, 65, 0
4, 127432, Note_on_c, 0, 60, 24
4, 127502, Note_on_c, 0, 88, 0
4, 127909, Note_on_c, 0, 88, 37
4, 127970, Note_on_c, 0, 65, 29
4, 128232, Note_on_c, 0, 88, 0
4, 128337, Note_on_c, 0, 60, 0
4, 128460, Note_on_c, 0, 95, 0
4, 128480, Note_on_c, 0, 88, 42
4, 128985, Note_on_c, 0, 95, 60
4, 128987, Note_on_c, 0, 88, 0
4, 129077, Note_on_c, 0, 60, 18
4, 129496, Note_on_c, 0, 53, 0
4, 129546, Note_on_c, 0, 65, 0
4, 129645, Note_on_c, 0, 88, 45
4, 129672, Note_on_c, 0, 95, 0
4, 129729, Note_on_c, 0, 53, 20
4, 129735, Note_on_c, 0, 60, 0
4, 129974, Note_on_c, 0, 53, 0
4, 130231, Note_on_c, 0, 88, 0
4, 130450, Note_on_c, 0, 88, 40
4, 130457, Note_on_c, 0, 50, 35
4, 130487, Control_c, 0, 64, 0
4, 130758, Control_c, 0, 64, 127
4, 130995, Note_on_c, 0, 88, 0
4, 131137, Note_on_c, 0, 57, 51
4, 131180, Note_on_c, 0, 50, 0
4, 131252, Note_on_c, 0, 57, 0
4, 131827, Note_on_c, 0, 88, 80
4, 131881, Note_on_c, 0, 81, 78
4, 131951, Note_on_c, 0, 73, 49
4, 132693, Note_on_c, 0, 77, 44
4, 133343, Note_on_c, 0, 81, 0
4, 133379, Note_on_c, 0, 88, 0
4, 133429, Note_on_c, 0, 73, 0
4, 133465, Note_on_c, 0, 81, 44
4, 133507, Note_on_c, 0, 72, 45
4, 133660, Control_c, 0, 64, 0
4, 134029, Control_c, 0, 64, 127
4, 134260, Note_on_c, 0, 86, 68
4, 134901, Note_on_c, 0, 86, 0
4, 135146, Note_on_c, 0, 86, 56
4, 135211, Note_on_c, 0, 69, 34
4, 135257, Note_on_c, 0, 72, 0
4, 136094, Note_on_c, 0, 69, 0
4, 136129, Note_on_c, 0, 84, 62
4, 136160, Note_on_c, 0, 65, 31
4, 136199, Note_on_c, 0, 86, 0
4, 136260, Note_on_c, 0, 65, 0
4, 136900, Note_on_c, 0, 77, 0
4, 136921, Note_on_c, 0, 84, 0
4, 136974, Note_on_c, 0, 81, 0
4, 137318, Control_c, 0, 64, 0
4, 137398, Note_on_c, 0, 31, 66
4, 137558, Control_c, 0, 64, 127
4, 137726, Note_on_c, 0, 31, 0
4, 138385, Note_on_c, 0, 53, 62
4, 138594, Note_on_c, 0, 59, 54
4, 138715, Note_on_c, 0, 64, 53
4, 138900, Note_on_c, 0, 64, 0
4, 138911, Note_on_c, 0, 69, 62
4, 139039, Note_on_c, 0, 69, 0
4, 139081, Note_on_c, 0, 76, 62
4, 139155, Note_on_c, 0, 76, 0
4, 139252, Note_on_c, 0, 76, 72
4, 139437, Note_on_c, 0, 81, 41
4, 139471, Note_on_c, 0, 76, 0
4, 139554, Note_on_c, 0, 88, 75
4, 139940, Note_on_c, 0, 85, 38
4, 142430, Note_on_c, 0, 85, 0
4, 142700, Note_on_c, 0, 88, 0
4, 142796, Note_on_c, 0, 86, 53
4, 142895, Note_on_c, 0, 81, 0
4, 143258, Note_on_c, 0, 86, 0
4, 143429, Note_on_c, 0, 59, 0
4, 144168, Note_on_c, 0, 53, 0
4, 146100, Note_on_c, 0, 71, 55
4, 146117, Note_on_c, 0, 66, 35
4, 146144, Note_on_c, 0, 64, 55
4, 146150, Note_on_c, 0, 48, 37
4, 146160, Note_on_c, 0, 60, 22
4, 146170, Control_c, 0, 64, 0
4, 146684, Control_c, 0, 64, 127
4, 147099, Note_on_c, 0, 55, 40
4, 147876, Note_on_c, 0, 55, 0
4, 147942, Note_on_c, 0, 57, 48
4, 148008, Note_on_c, 0, 60, 0
4, 148559, Note_on_c, 0, 64, 0
4, 148597, Note_on_c, 0, 60, 44
4, 149016, Note_on_c, 0, 66, 0
4, 149069, Note_on_c, 0, 60, 0
4, 149117, Note_on_c, 0, 64, 75
4, 149197, Note_on_c, 0, 71, 0
4, 149510, Note_on_c, 0, 64, 0
4, 149575, Note_on_c, 0, 66, 80
4, 149592, Note_on_c, 0, 64, 53
4, 149649, Note_on_c, 0, 64, 0
4, 149675, Note_on_c, 0, 48, 0
4, 149694, Note_on_c, 0, 57, 0
4, 149958, Note_on_c, 0, 66, 0
4, 150049, Note_on_c, 0, 67, 87
4, 150453, Note_on_c, 0, 67, 0
4, 150515, Note_on_c, 0, 69, 74
4, 150997, Note_on_c, 0, 69, 0
4, 151218, Note_on_c, 0, 48, 30
4, 151223, Control_c, 0, 64, 0
4, 151225, Note_on_c, 0, 71, 55
4, 151226, Note_on_c, 0, 67, 60
4, 151246, Note_on_c, 0, 64, 62
4, 151260, Note_on_c, 0, 41, 40
4, 151263, Note_on_c, 0, 62, 44
4, 151282, Note_on_c, 0, 57, 51
4, 152088, Control_c, 0, 64, 127
4, 153444, Note_on_c, 0, 62, 0
4, 153633, Note_on_c, 0, 64, 0
4, 153650, Note_on_c, 0, 67, 0
4, 153878, Note_on_c, 0, 41, 0
4, 153963, Note_on_c, 0, 71, 0
4, 153990, Note_on_c, 0, 48, 0
4, 154216, Note_on_c, 0, 57, 0
4, 156027, Note_on_c, 0, 95, 44
4, 156064, Note_on_c, 0, 59, 32
4, 156261, Note_on_c, 0, 95, 0
4, 156293, Note_on_c, 0, 59, 0
4, 156338, Control_c, 0, 64, 0
4, 156340, Note_on_c, 0, 100, 80
4, 156344, Note_on_c, 0, 64, 67
4, 156642, Control_c, 0, 64, 127
4, 157048, Note_on_c, 0, 100, 0
4, 157268, Note_on_c, 0, 64, 0
4, 158657, Note_on_c, 0, 66, 40
4, 158670, Note_on_c, 0, 57, 39
4, 158683, Note_on_c, 0, 52, 36
4, 158684, Note_on_c, 0, 62, 42
4, 158827, Note_on_c, 0, 57, 0
4, 158853, Note_on_c, 0, 62, 0
4, 158861, Note_on_c, 0, 52, 0
4, 158888, Note_on_c, 0, 66, 0
4, 158967, Control_c, 0, 64, 0
4, 159306, Note_on_c, 0, 66, 32
4, 159310, Note_on_c, 0, 52, 37
4, 159325, Note_on_c, 0, 62, 43
4, 159327, Note_on_c, 0, 57, 35
4, 159460, Note_on_c, 0, 57, 0
4, 159486, Note_on_c, 0, 62, 0
4, 159513, Note_on_c, 0, 52, 0
4, 159525, Note_on_c, 0, 66, 0
4, 160026, Control_c, 0, 64, 127
4, 160235, Note_on_c, 0, 52, 37
4, 160250, Note_on_c, 0, 66, 34
4, 160265, Note_on_c, 0, 57, 36
4, 160266, Note_on_c, 0, 62, 41
4, 160465, Note_on_c, 0, 52, 0
4, 160541, Note_on_c, 0, 62, 0
4, 160588, Note_on_c, 0, 57, 0
4, 160775, Note_on_c, 0, 66, 0
4, 161291, Note_on_c, 0, 67, 39
4, 161324, Control_c, 0, 64, 0
4, 161334, Note_on_c, 0, 64, 33
4, 161338, Note_on_c, 0, 41, 37
4, 161340, Note_on_c, 0, 57, 19
4, 161724, Control_c, 0, 64, 127
4, 161728, Note_on_c, 0, 57, 0
4, 161786, Note_on_c, 0, 64, 0
4, 161997, Note_on_c, 0, 67, 0
4, 162023, Note_on_c, 0, 48, 47
4, 162212, Note_on_c, 0, 41, 0
4, 162753, Note_on_c, 0, 48, 0
4, 162755, Note_on_c, 0, 75, 72
4, 162767, Note_on_c, 0, 57, 47
4, 162893, Note_on_c, 0, 57, 0
4, 163210, Note_on_c, 0, 75, 0
4, 163328, Note_on_c, 0, 76, 79
4, 163805, Note_on_c, 0, 76, 0
4, 163970, Note_on_c, 0, 88, 85
4, 164544, Note_on_c, 0, 88, 0
4, 164658, Note_on_c, 0, 87, 85
4, 165167, Note_on_c, 0, 87, 0
4, 165311, Note_on_c, 0, 84, 82
4, 165514, Note_on_c, 0, 84, 0
4, 166170, Note_on_c, 0, 83, 58
4, 166215, Note_on_c, 0, 47, 34
4, 166229, Note_on_c, 0, 72, 24
4, 166247, Note_on_c, 0, 76, 35
4, 166265, Control_c, 0, 64, 0
4, 166711, Control_c, 0, 64, 127
4, 166755, Note_on_c, 0, 78, 1
4, 166912, Note_on_c, 0, 54, 46
4, 166946, Note_on_c, 0, 83, 0
4, 166981, Note_on_c, 0, 76, 0
4, 166994, Note_on_c, 0, 78, 0
4, 167077, Note_on_c, 0, 72, 0
4, 167499, Note_on_c, 0, 59, 49
4, 168037, Note_on_c, 0, 60, 55
4, 168979, Note_on_c, 0, 64, 64
4, 168981, Note_on_c, 0, 60, 0
4, 169506, Note_on_c, 0, 64, 0
4, 169569, Note_on_c, 0, 71, 78
4, 170075, Note_on_c, 0, 71, 0
4, 170130, Note_on_c, 0, 66, 69
4, 170640, Note_on_c, 0, 47, 0
4, 170687, Note_on_c, 0, 66, 0
4, 170691, Note_on_c, 0, 67, 68
4, 170777, Note_on_c, 0, 54, 0
4, 171196, Note_on_c, 0, 67, 0
4, 171214, Note_on_c, 0, 59, 0
4, 171236, Note_on_c, 0, 71, 67
4, 171241, Note_on_c, 0, 48, 50
4, 171262, Control_c, 0, 64, 0
4, 171582, Control_c, 0, 64, 127
4, 171662, Note_on_c, 0, 71, 0
4, 171809, Note_on_c, 0, 78, 65
4, 171862, Note_on_c, 0, 55, 38
4, 172495, Note_on_c, 0, 69, 46
4, 173033, Note_on_c, 0, 69, 0
4, 173042, Note_on_c, 0, 78, 0
4, 173125, Note_on_c, 0, 74, 53
4, 173661, Note_on_c, 0, 74, 0
4, 173787, Note_on_c, 0, 78, 39
4, 173793, Note_on_c, 0, 60, 34
4, 174380, Note_on_c, 0, 78, 0
4, 174503, Note_on_c, 0, 81, 43
4, 174746, Note_on_c, 0, 48, 0
4, 175302, Note_on_c, 0, 81, 0
4, 175317, Note_on_c, 0, 48, 33
4, 176229, Note_on_c, 0, 78, 40
4, 176394, Note_on_c, 0, 60, 0
4, 176458, Note_on_c, 0, 55, 0
4, 176531, Note_on_c, 0, 78, 0
4, 176583, Note_on_c, 0, 79, 66
4, 176633, Note_on_c, 0, 48, 0
4, 176943, Note_on_c, 0, 81, 80
4, 177038, Note_on_c, 0, 79, 0
4, 177251, Note_on_c, 0, 81, 0
4, 177329, Note_on_c, 0, 83, 83
4, 177397, Note_on_c, 0, 45, 60
4, 177428, Control_c, 0, 64, 0
4, 177711, Note_on_c, 0, 83, 0
4, 177781, Control_c, 0, 64, 127
4, 177841, Note_on_c, 0, 83, 82
4, 177982, Note_on_c, 0, 45, 0
4, 178502, Note_on_c, 0, 64, 46
4, 178511, Note_on_c, 0, 60, 48
4, 178521, Note_on_c, 0, 59, 40
4, 179043, Note_on_c, 0, 59, 0
4, 179047, Note_on_c, 0, 60, 0
4, 179094, Note_on_c, 0, 64, 0
4, 179308, Note_on_c, 0, 64, 44
4, 179344, Note_on_c, 0, 60, 38
4, 179346, Note_on_c, 0, 59, 50
4, 179881, Note_on_c, 0, 60, 0
4, 179921, Note_on_c, 0, 59, 0
4, 179939, Note_on_c, 0, 64, 0
4, 180366, Note_on_c, 0, 64, 35
4, 180367, Note_on_c, 0, 59, 36
4, 180371, Note_on_c, 0, 60, 44
4, 180949, Note_on_c, 0, 60, 0
4, 180958, Note_on_c, 0, 64, 0
4, 180997, Note_on_c, 0, 59, 0
4, 181437, Note_on_c, 0, 64, 39
4, 181439, Note_on_c, 0, 60, 49
4, 181445, Note_on_c, 0, 59, 42
4, 181828, Note_on_c, 0, 83, 0
4, 182003, Note_on_c, 0, 64, 0
4, 182071, Note_on_c, 0, 60, 0
4, 182101, Note_on_c, 0, 59, 0
4, 182109, Note_on_c, 0, 81, 69
4, 182526, Note_on_c, 0, 81, 0
4, 182896, Note_on_c, 0, 79, 76
4, 183357, Note_on_c, 0, 64, 1
4, 183447, Note_on_c, 0, 79, 0
4, 183824, Note_on_c, 0, 76, 67
4, 183886, Note_on_c, 0, 53, 37
4, 183890, Control_c, 0, 64, 0
4, 184391, Note_on_c, 0, 64, 0
4, 184411, Note_on_c, 0, 61, 42
4, 184484, Control_c, 0, 64, 127
4, 185024, Note_on_c, 0, 64, 36
4, 185052, Note_on_c, 0, 69, 31
4, 185194, Note_on_c, 0, 61, 0
4, 185389, Note_on_c, 0, 64, 0
4, 185550, Note_on_c, 0, 73, 1
4, 185603, Note_on_c, 0, 69, 0
4, 185630, Note_on_c, 0, 61, 34
4, 185677, Note_on_c, 0, 76, 0
4, 185679, Note_on_c, 0, 73, 0
4, 186398, Note_on_c, 0, 81, 54
4, 186411, Note_on_c, 0, 73, 26
4, 186441, Note_on_c, 0, 64, 24
4, 187036, Note_on_c, 0, 61, 0
4, 188264, Note_on_c, 0, 61, 26
4, 188393, Note_on_c, 0, 64, 0
4, 188927, Note_on_c, 0, 81, 0
4, 189095, Note_on_c, 0, 73, 0
4, 189193, Note_on_c, 0, 69, 24
4, 189696, Note_on_c, 0, 69, 0
4, 189832, Note_on_c, 0, 81, 63
4, 190040, Note_on_c, 0, 53, 0
4, 190104, Note_on_c, 0, 81, 0
4, 190139, Note_on_c, 0, 69, 12
4, 190418, Note_on_c, 0, 69, 0
4, 190664, Note_on_c, 0, 61, 0
4, 191600, Note_on_c, 0, 80, 59
4, 191643, Note_on_c, 0, 68, 38
4, 191649, Control_c, 0, 64, 0
4, 191699, Note_on_c, 0, 52, 22
4, 192084, Control_c, 0, 64, 127
4, 192596, Note_on_c, 0, 68, 0
4, 192711, Note_on_c, 0, 81, 62
4, 192742, Note_on_c, 0, 60, 30
4, 192952, Note_on_c, 0, 80, 0
4, 193052, Note_on_c, 0, 81, 0
4, 193719, Note_on_c, 0, 80, 46
4, 193787, Note_on_c, 0, 68, 37
4, 193806, Note_on_c, 0, 63, 23
4, 194414, Note_on_c, 0, 60, 0
4, 195082, Note_on_c, 0, 60, 24
4, 195193, Note_on_c, 0, 63, 0
4, 195769, Note_on_c, 0, 80, 0
4, 196609, Note_on_c, 0, 63, 29
4, 196666, Note_on_c, 0, 77, 68
4, 197100, Note_on_c, 0, 63, 0
4, 197221, Note_on_c, 0, 52, 0
4, 197296, Note_on_c, 0, 77, 0
4, 197378, Note_on_c, 0, 68, 0
4, 197379, Note_on_c, 0, 60, 0
4, 197384, Note_on_c, 0, 76, 58
4, 197408, Note_on_c, 0, 52, 50
4, 197488, Control_c, 0, 64, 0
4, 197971, Control_c, 0, 64, 127
4, 198018, Note_on_c, 0, 59, 43
4, 198565, Note_on_c, 0, 52, 0
4, 198567, Note_on_c, 0, 59, 0
4, 198603, Note_on_c, 0, 62, 55
4, 199137, Note_on_c, 0, 64, 64
4, 199147, Note_on_c, 0, 62, 0
4, 199589, Note_on_c, 0, 66, 57
4, 199932, Note_on_c, 0, 76, 0
4, 199996, Note_on_c, 0, 71, 65
4, 200012, Note_on_c, 0, 66, 0
4, 200390, Note_on_c, 0, 76, 64
4, 200392, Note_on_c, 0, 71, 0
4, 200534, Note_on_c, 0, 76, 0
4, 200761, Note_on_c, 0, 83, 72
4, 200913, Note_on_c, 0, 64, 0
4, 201127, Note_on_c, 0, 88, 80
4, 201522, Note_on_c, 0, 88, 0
4, 201765, Note_on_c, 0, 88, 18
4, 203215, Note_on_c, 0, 88, 0
4, 203324, Note_on_c, 0, 87, 46
4, 203355, Note_on_c, 0, 52, 41
4, 203891, Note_on_c, 0, 87, 0
4, 203977, Note_on_c, 0, 90, 52
4, 204040, Note_on_c, 0, 83, 0
4, 204045, Note_on_c, 0, 59, 33
4, 204587, Note_on_c, 0, 90, 0
4, 204596, Note_on_c, 0, 87, 53
4, 204722, Note_on_c, 0, 59, 0
4, 204741, Note_on_c, 0, 64, 24
4, 204911, Note_on_c, 0, 52, 0
4, 205386, Note_on_c, 0, 66, 47
4, 205440, Note_on_c, 0, 64, 0
4, 206223, Note_on_c, 0, 67, 45
4, 206395, Note_on_c, 0, 66, 0
4, 207006, Note_on_c, 0, 67, 0
4, 207767, Note_on_c, 0, 59, 40
4, 208102, Note_on_c, 0, 59, 0
4, 208655, Note_on_c, 0, 87, 0
4, 210200, Note_on_c, 0, 71, 94
4, 210317, Note_on_c, 0, 71, 0
4, 210394, Control_c, 0, 64, 0
4, 211147, Note_on_c, 0, 76, 94
4, 214677, Note_on_c, 0, 65, 43
4, 214681, Note_on_c, 0, 69, 45
4, 214721, Note_on_c, 0, 60, 30
4, 214733, Note_on_c, 0, 57, 45
4, 214739, Note_on_c, 0, 53, 27
4, 214771, Note_on_c, 0, 64, 13
4, 215400, Note_on_c, 0, 76, 0
4, 215450, Note_on_c, 0, 65, 0
4, 215671, Note_on_c, 0, 64, 0
4, 215715, Note_on_c, 0, 63, 75
4, 215840, Note_on_c, 0, 60, 0
4, 215873, Note_on_c, 0, 69, 0
4, 216068, Note_on_c, 0, 63, 0
4, 216176, Note_on_c, 0, 64, 46
4, 216516, Note_on_c, 0, 64, 0
4, 216664, Note_on_c, 0, 57, 0
4, 216743, Note_on_c, 0, 76, 96
4, 216982, Note_on_c, 0, 76, 0
4, 217028, Note_on_c, 0, 53, 0
4, 217109, Note_on_c, 0, 75, 69
4, 217538, Note_on_c, 0, 75, 0
4, 217943, Note_on_c, 0, 72, 58
4, 218482, Note_on_c, 0, 72, 0
4, 218870, Note_on_c, 0, 47, 40
4, 218873, Note_on_c, 0, 71, 55
4, 218916, Note_on_c, 0, 64, 31
4, 220743, Note_on_c, 0, 64, 0
4, 220853, Note_on_c, 0, 47, 0
4, 222354, Note_on_c, 0, 71, 0
4, 222368, Note_on_c, 0, 64, 46
4, 222381, Note_on_c, 0, 60, 36
4, 222399, Note_on_c, 0, 48, 38
4, 222403, Note_on_c, 0, 66, 34
4, 222445, Note_on_c, 0, 55, 36
4, 225648, Note_on_c, 0, 55, 0
4, 225740, Note_on_c, 0, 48, 0
4, 226364, Note_on_c, 0, 60, 0
4, 226495, Note_on_c, 0, 64, 0
4, 226507, Note_on_c, 0, 45, 44
4, 226577, Note_on_c, 0, 66, 0
4, 227422, Note_on_c, 0, 45, 0
4, 228120, Note_on_c, 0, 83, 95
4, 228141, Note_on_c, 0, 74, 99
4, 228170, Note_on_c, 0, 64, 71
4, 228173, Note_on_c, 0, 60, 47
4, 228212, Note_on_c, 0, 59, 59
4, 228426, Note_on_c, 0, 74, 0
4, 228436, Note_on_c, 0, 83, 0
4, 228641, Note_on_c, 0, 81, 68
4, 228662, Note_on_c, 0, 72, 61
4, 228924, Note_on_c, 0, 81, 0
4, 228997, Note_on_c, 0, 72, 0
4, 229268, Note_on_c, 0, 60, 0
4, 229293, Note_on_c, 0, 59, 0
4, 229300, Note_on_c, 0, 64, 0
4, 229466, Note_on_c, 0, 71, 53
4, 229470, Note_on_c, 0, 79, 52
4, 229675, Note_on_c, 0, 79, 0
4, 229738, Note_on_c, 0, 71, 0
4, 230406, Note_on_c, 0, 76, 43
4, 230431, Note_on_c, 0, 53, 29
4, 230436, Note_on_c, 0, 69, 29
4, 230442, Note_on_c, 0, 60, 34
4, 230458, Note_on_c, 0, 64, 22
4, 231479, Note_on_c, 0, 69, 0
4, 231558, Note_on_c, 0, 76, 0
4, 232329, Note_on_c, 0, 81, 67
4, 232341, Note_on_c, 0, 69, 59
4, 233229, Note_on_c, 0, 69, 0
4, 233401, Note_on_c, 0, 60, 0
4, 233420, Note_on_c, 0, 64, 0
4, 233931, Note_on_c, 0, 81, 0
4, 234117, Note_on_c, 0, 53, 0
4, 234259, Note_on_c, 0, 56, 67
4, 234268, Note_on_c, 0, 80, 81
4, 234475, Note_on_c, 0, 80, 0
4, 234565, Note_on_c, 0, 56, 0
4, 234613, Note_on_c, 0, 81, 50
4, 234625, Note_on_c, 0, 57, 55
4, 234803, Note_on_c, 0, 80, 42
4, 234815, Note_on_c, 0, 56, 50
4, 234842, Note_on_c, 0, 57, 0
4, 234847, Note_on_c, 0, 81, 0
4, 234988, Note_on_c, 0, 56, 0
4, 235001, Note_on_c, 0, 80, 0
4, 235116, Note_on_c, 0, 77, 54
4, 235142, Note_on_c, 0, 53, 44
4, 237067, Note_on_c, 0, 77, 0
4, 237080, Note_on_c, 0, 76, 53
4, 237094, Note_on_c, 0, 53, 0
4, 237119, Note_on_c, 0, 52, 51
4, 239939, Note_on_c, 0, 58, 78
4, 239941, Note_on_c, 0, 82, 86
4, 240049, Note_on_c, 0, 76, 0
4, 240388, Note_on_c, 0, 58, 0
4, 240451, Note_on_c, 0, 59, 56
4, 240491, Note_on_c, 0, 83, 64
4, 240508, Note_on_c, 0, 82, 0
4, 240777, Note_on_c, 0, 83, 0
4, 240837, Note_on_c, 0, 59, 0
4, 240910, Note_on_c, 0, 91, 78
4, 240914, Note_on_c, 0, 67, 68
4, 241010, Note_on_c, 0, 52, 0
4, 241217, Note_on_c, 0, 67, 0
4, 241263, Note_on_c, 0, 91, 0
4, 241933, Note_on_c, 0, 64, 54
4, 241941, Note_on_c, 0, 59, 38
4, 241951, Note_on_c, 0, 88, 79
4, 241960, Note_on_c, 0, 52, 39
4, 242066, Note_on_c, 0, 52, 0
4, 242077, Note_on_c, 0, 64, 0
4, 242125, Note_on_c, 0, 59, 0
4, 242164, Note_on_c, 0, 88, 0
4, 243431, Note_on_c, 0, 78, 69
4, 243581, Note_on_c, 0, 62, 44
4, 243604, Note_on_c, 0, 57, 45
4, 243657, Note_on_c, 0, 62, 0
4, 243680, Note_on_c, 0, 57, 0
4, 243696, Note_on_c, 0, 78, 0
4, 243796, Note_on_c, 0, 69, 57
4, 243893, Note_on_c, 0, 69, 0
4, 244701, Note_on_c, 0, 66, 48
4, 244932, Note_on_c, 0, 66, 0
4, 245686, Note_on_c, 0, 64, 48
4, 245695, Note_on_c, 0, 60, 24
4, 245701, Note_on_c, 0, 53, 27
4, 245705, Note_on_c, 0, 57, 37
4, 245707, Note_on_c, 0, 62, 35
4, 245862, Note_on_c, 0, 60, 0
4, 245954, Note_on_c, 0, 62, 0
4, 245956, Note_on_c, 0, 57, 0
4, 245958, Note_on_c, 0, 53, 0
4, 246035, Note_on_c, 0, 64, 0
4, 246360, Note_on_c, 0, 63, 71
4, 246544, Note_on_c, 0, 63, 0
4, 246751, Note_on_c, 0, 64, 52
4, 247014, Note_on_c, 0, 64, 0
4, 247291, Note_on_c, 0, 76, 94
4, 247514, Note_on_c, 0, 76, 0
4, 247685, Note_on_c, 0, 75, 71
4, 248021, Note_on_c, 0, 75, 0
4, 248512, Note_on_c, 0, 72, 70
4, 248792, Note_on_c, 0, 72, 0
4, 249562, Note_on_c, 0, 71, 67
4, 249575, Note_on_c, 0, 64, 75
4, 249596, Note_on_c, 0, 66, 53
4, 249598, Note_on_c, 0, 48, 54
4, 249802, Note_on_c, 0, 60, 30
4, 250100, Note_on_c, 0, 48, 0
4, 250516, Note_on_c, 0, 47, 66
4, 251432, Note_on_c, 0, 60, 0
4, 251499, Note_on_c, 0, 54, 50
4, 252025, Note_on_c, 0, 64, 0
4, 252087, Note_on_c, 0, 60, 37
4, 252235, Note_on_c, 0, 66, 0
4, 252300, Note_on_c, 0, 60, 0
4, 252309, Note_on_c, 0, 71, 0
4, 252410, Note_on_c, 0, 64, 64
4, 252784, Note_on_c, 0, 47, 0
4, 253095, Note_on_c, 0, 64, 0
4, 253373, Note_on_c, 0, 54, 0
4, 253404, Note_on_c, 0, 66, 53
4, 253411, Note_on_c, 0, 48, 39
4, 253423, Note_on_c, 0, 59, 47
4, 253436, Note_on_c, 0, 64, 63
4, 254981, Note_on_c, 0, 59, 0
4, 255315, Note_on_c, 0, 64, 0
4, 255375, Note_on_c, 0, 59, 39
4, 255392, Note_on_c, 0, 66, 0
4, 255646, Note_on_c, 0, 59, 0
4, 255772, Note_on_c, 0, 48, 0
4, 255907, Note_on_c, 0, 64, 67
4, 256176, Note_on_c, 0, 64, 0
4, 256274, Note_on_c, 0, 66, 70
4, 256478, Note_on_c, 0, 66, 0
4, 256593, Note_on_c, 0, 67, 63
4, 256741, Note_on_c, 0, 67, 0
4, 256900, Note_on_c, 0, 69, 91
4, 257126, Note_on_c, 0, 69, 0
4, 257247, Note_on_c, 0, 71, 92
4, 257285, Note_on_c, 0, 60, 47
4, 257291, Note_on_c, 0, 64, 50
4, 257297, Note_on_c, 0, 59, 50
4, 259837, Note_on_c, 0, 69, 82
4, 259952, Note_on_c, 0, 64, 0
4, 259992, Note_on_c, 0, 59, 0
4, 260050, Note_on_c, 0, 60, 0
4, 260065, Note_on_c, 0, 71, 0
4, 260288, Note_on_c, 0, 69, 0
4, 260502, Note_on_c, 0, 67, 66
4, 261032, Note_on_c, 0, 67, 0
4, 261216, Note_on_c, 0, 64, 50
4, 261248, Note_on_c, 0, 60, 29
4, 261252, Note_on_c, 0, 57, 36
4, 261258, Note_on_c, 0, 53, 22
4, 262809, Note_on_c, 0, 64, 0
4, 263122, Note_on_c, 0, 69, 103
4, 263589, Note_on_c, 0, 69, 0
4, 263650, Note_on_c, 0, 71, 62
4, 263939, Note_on_c, 0, 71, 0
4, 264006, Note_on_c, 0, 69, 24
4, 264165, Note_on_c, 0, 69, 0
4, 264179, Note_on_c, 0, 60, 0
4, 264292, Note_on_c, 0, 57, 0
4, 264628, Note_on_c, 0, 67, 49
4, 264797, Note_on_c, 0, 53, 0
4, 264812, Note_on_c, 0, 67, 0
4, 264981, Note_on_c, 0, 68, 59
4, 265446, Note_on_c, 0, 68, 0
4, 265552, Note_on_c, 0, 69, 55
4, 265809, Note_on_c, 0, 69, 0
4, 265921, Note_on_c, 0, 68, 31
4, 266670, Note_on_c, 0, 68, 0
4, 266812, Note_on_c, 0, 65, 51
4, 267135, Note_on_c, 0, 65, 0
4, 267818, Note_on_c, 0, 64, 46
4, 270584, Note_on_c, 0, 64, 0
4, 270741, Note_on_c, 0, 64, 66
4, 271307, Note_on_c, 0, 64, 0
4, 271316, Note_on_c, 0, 67, 58
4, 271506, Note_on_c, 0, 67, 0
4, 271687, Note_on_c, 0, 71, 95
4, 272139, Note_on_c, 0, 71, 0
4, 272265, Note_on_c, 0, 74, 99
4, 272603, Note_on_c, 0, 74, 0
4, 272689, Note_on_c, 0, 60, 32
4, 272711, Note_on_c, 0, 59, 35
4, 272745, Note_on_c, 0, 70, 39
4, 272749, Note_on_c, 0, 64, 28
4, 272904, Note_on_c, 0, 71, 59
4, 272933, Note_on_c, 0, 70, 0
4, 273449, Note_on_c, 0, 71, 0
4, 273620, Note_on_c, 0, 71, 53
4, 274312, Note_on_c, 0, 71, 0
4, 274568, Note_on_c, 0, 71, 49
4, 275126, Note_on_c, 0, 59, 0
4, 275149, Note_on_c, 0, 71, 0
4, 275172, Note_on_c, 0, 69, 46
4, 275216, Note_on_c, 0, 60, 0
4, 275257, Note_on_c, 0, 64, 0
4, 275414, Note_on_c, 0, 69, 0
4, 275528, Note_on_c, 0, 71, 51
4, 275545, Note_on_c, 0, 53, 30
4, 275562, Note_on_c, 0, 57, 51
4, 275568, Note_on_c, 0, 60, 36
4, 275570, Note_on_c, 0, 64, 26
4, 277574, Note_on_c, 0, 71, 0
4, 278137, Note_on_c, 0, 79, 68
4, 278173, Note_on_c, 0, 76, 72
4, 278273, Note_on_c, 0, 72, 60
4, 278476, Note_on_c, 0, 79, 0
4, 278501, Note_on_c, 0, 71, 53
4, 278507, Note_on_c, 0, 72, 0
4, 278541, Note_on_c, 0, 76, 0
4, 278981, Note_on_c, 0, 71, 0
4, 279060, Note_on_c, 0, 72, 71
4, 279262, Note_on_c, 0, 64, 0
4, 279271, Note_on_c, 0, 72, 0
4, 279283, Note_on_c, 0, 57, 0
4, 279290, Note_on_c, 0, 60, 0
4, 279337, Note_on_c, 0, 53, 0
4, 279398, Note_on_c, 0, 76, 57
4, 279907, Note_on_c, 0, 76, 0
4, 279987, Note_on_c, 0, 79, 77
4, 280154, Note_on_c, 0, 79, 0
4, 280193, Note_on_c, 0, 45, 34
4, 280281, Note_on_c, 0, 45, 0
4, 280350, Note_on_c, 0, 83, 99
4, 281065, Note_on_c, 0, 83, 0
4, 281074, Note_on_c, 0, 79, 43
4, 281149, Note_on_c, 0, 79, 0
4, 281333, Note_on_c, 0, 83, 82
4, 282245, Note_on_c, 0, 76, 36
4, 282262, Note_on_c, 0, 64, 33
4, 282285, Note_on_c, 0, 60, 33
4, 282304, Note_on_c, 0, 59, 35
4, 282413, Note_on_c, 0, 59, 0
4, 282419, Note_on_c, 0, 60, 0
4, 282463, Note_on_c, 0, 64, 0
4, 282555, Note_on_c, 0, 76, 0
4, 283194, Note_on_c, 0, 71, 49
4, 283254, Note_on_c, 0, 57, 35
4, 283261, Note_on_c, 0, 53, 28
4, 283263, Note_on_c, 0, 60, 34
4, 283271, Note_on_c, 0, 64, 25
4, 285312, Note_on_c, 0, 71, 0
4, 285683, Note_on_c, 0, 83, 0
4, 286107, Note_on_c, 0, 88, 99
4, 286682, Note_on_c, 0, 88, 0
4, 286687, Note_on_c, 0, 81, 57
4, 286966, Note_on_c, 0, 81, 0
4, 287138, Note_on_c, 0, 60, 0
4, 287148, Note_on_c, 0, 64, 0
4, 287167, Note_on_c, 0, 57, 0
4, 287300, Note_on_c, 0, 53, 0
4, 287998, Note_on_c, 0, 50, 40
4, 288301, Note_on_c, 0, 50, 0
4, 289892, Note_on_c, 0, 76, 88
4, 289898, Note_on_c, 0, 69, 85
4, 289902, Note_on_c, 0, 65, 89
4, 289918, Note_on_c, 0, 61, 77
4, 290403, Note_on_c, 0, 65, 0
4, 290422, Note_on_c, 0, 76, 0
4, 290438, Note_on_c, 0, 61, 0
4, 290445, Note_on_c, 0, 69, 0
4, 290513, Note_on_c, 0, 74, 44
4, 290551, Note_on_c, 0, 60, 47
4, 290712, Note_on_c, 0, 74, 0
4, 290730, Note_on_c, 0, 60, 0
4, 290836, Note_on_c, 0, 61, 59
4, 290840, Note_on_c, 0, 76, 76
4, 290853, Note_on_c, 0, 69, 70
4, 290855, Note_on_c, 0, 65, 57
4, 291310, Note_on_c, 0, 69, 0
4, 291335, Note_on_c, 0, 65, 0
4, 291396, Note_on_c, 0, 76, 0
4, 291402, Note_on_c, 0, 61, 0
4, 291477, Note_on_c, 0, 74, 57
4, 291494, Note_on_c, 0, 69, 54
4, 291500, Note_on_c, 0, 65, 56
4, 291513, Note_on_c, 0, 60, 39
4, 291728, Note_on_c, 0, 69, 0
4, 291759, Note_on_c, 0, 65, 0
4, 291872, Note_on_c, 0, 74, 0
4, 291878, Note_on_c, 0, 60, 0
4, 292032, Note_on_c, 0, 72, 45
4, 292047, Note_on_c, 0, 65, 42
4, 292051, Note_on_c, 0, 59, 43
4, 292081, Note_on_c, 0, 69, 34
4, 292324, Note_on_c, 0, 59, 0
4, 292376, Note_on_c, 0, 65, 0
4, 292426, Note_on_c, 0, 69, 0
4, 292441, Note_on_c, 0, 72, 0
4, 293662, Note_on_c, 0, 59, 40
4, 293694, Note_on_c, 0, 53, 36
4, 293696, Note_on_c, 0, 64, 28
4, 293913, Note_on_c, 0, 53, 0
4, 293939, Note_on_c, 0, 59, 0
4, 293964, Note_on_c, 0, 64, 0
4, 294646, Note_on_c, 0, 71, 113
4, 294946, Note_on_c, 0, 71, 0
4, 295321, Note_on_c, 0, 74, 94
4, 295661, Note_on_c, 0, 74, 0
4, 295686, Note_on_c, 0, 62, 42
4, 295694, Note_on_c, 0, 57, 41
4, 295724, Note_on_c, 0, 52, 28
4, 295785, Note_on_c, 0, 67, 57
4, 295948, Note_on_c, 0, 52, 0
4, 295998, Note_on_c, 0, 62, 0
4, 296069, Note_on_c, 0, 57, 0
4, 296277, Note_on_c, 0, 67, 0
4, 296672, Note_on_c, 0, 67, 60
4, 297220, Note_on_c, 0, 67, 0
4, 297667, Note_on_c, 0, 67, 63
4, 298217, Note_on_c, 0, 67, 0
4, 298313, Note_on_c, 0, 66, 20
4, 298515, Note_on_c, 0, 66, 0
4, 298540, Note_on_c, 0, 67, 56
4, 299045, Note_on_c, 0, 67, 0
4, 299197, Note_on_c, 0, 76, 57
4, 299353, Note_on_c, 0, 57, 28
4, 299354, Note_on_c, 0, 64, 16
4, 299358, Note_on_c, 0, 60, 29
4, 299383, Note_on_c, 0, 53, 19
4, 299523, Note_on_c, 0, 76, 0
4, 299615, Note_on_c, 0, 71, 53
4, 300168, Note_on_c, 0, 71, 0
4, 300459, Note_on_c, 0, 71, 54
4, 301093, Note_on_c, 0, 71, 0
4, 301419, Note_on_c, 0, 71, 87
4, 301816, Note_on_c, 0, 71, 0
4, 301906, Note_on_c, 0, 72, 46
4, 302058, Note_on_c, 0, 71, 68
4, 302060, Note_on_c, 0, 72, 0
4, 302118, Note_on_c, 0, 64, 0
4, 302324, Note_on_c, 0, 70, 56
4, 302336, Note_on_c, 0, 71, 0
4, 302368, Note_on_c, 0, 60, 0
4, 302507, Note_on_c, 0, 57, 0
4, 302516, Note_on_c, 0, 53, 0
4, 302818, Note_on_c, 0, 70, 0
4, 302942, Note_on_c, 0, 71, 60
4, 303123, Note_on_c, 0, 71, 0
4, 303299, Note_on_c, 0, 76, 94
4, 304045, Note_on_c, 0, 76, 0
4, 305292, Note_on_c, 0, 66, 48
4, 305309, Note_on_c, 0, 69, 52
4, 305319, Note_on_c, 0, 62, 48
4, 305321, Note_on_c, 0, 57, 40
4, 305357, Note_on_c, 0, 52, 36
4, 305772, Note_on_c, 0, 52, 0
4, 305779, Note_on_c, 0, 69, 0
4, 305781, Note_on_c, 0, 57, 0
4, 305785, Note_on_c, 0, 62, 0
4, 305846, Note_on_c, 0, 66, 0
4, 306849, Note_on_c, 0, 69, 59
4, 306863, Note_on_c, 0, 64, 57
4, 306867, Note_on_c, 0, 65, 58
4, 306872, Note_on_c, 0, 60, 44
4, 306884, Note_on_c, 0, 53, 44
4, 307076, Note_on_c, 0, 60, 0
4, 307116, Note_on_c, 0, 64, 0
4, 307143, Note_on_c, 0, 65, 0
4, 307191, Note_on_c, 0, 69, 0
4, 307198, Note_on_c, 0, 53, 0
4, 307849, Note_on_c, 0, 63, 75
4, 307852, Note_on_c, 0, 51, 60
4, 308067, Note_on_c, 0, 51, 0
4, 308111, Note_on_c, 0, 63, 0
4, 308255, Note_on_c, 0, 52, 48
4, 308289, Note_on_c, 0, 64, 57
4, 308439, Note_on_c, 0, 52, 0
4, 308520, Note_on_c, 0, 64, 0
4, 308807, Note_on_c, 0, 76, 87
4, 308858, Note_on_c, 0, 64, 58
4, 309037, Note_on_c, 0, 64, 0
4, 309056, Note_on_c, 0, 76, 0
4, 309213, Note_on_c, 0, 63, 39
4, 309246, Note_on_c, 0, 75, 67
4, 309463, Note_on_c, 0, 75, 0
4, 309468, Note_on_c, 0, 63, 0
4, 310638, Note_on_c, 0, 72, 60
4, 310858, Note_on_c, 0, 72, 0
4, 311609, Note_on_c, 0, 71, 78
4, 312058, Note_on_c, 0, 71, 0
4, 312223, Note_on_c, 0, 66, 56
4, 312245, Note_on_c, 0, 60, 41
4, 312245, Note_on_c, 0, 54, 37
4, 312259, Note_on_c, 0, 64, 58
4, 312311, Note_on_c, 0, 47, 33
4, 312457, Note_on_c, 0, 60, 0
4, 312495, Note_on_c, 0, 47, 0
4, 312497, Note_on_c, 0, 64, 0
4, 312549, Note_on_c, 0, 54, 0
4, 312557, Note_on_c, 0, 66, 0
4, 313057, Note_on_c, 0, 66, 46
4, 313066, Note_on_c, 0, 54, 37
4, 313080, Note_on_c, 0, 60, 44
4, 313095, Note_on_c, 0, 47, 38
4, 313103, Note_on_c, 0, 64, 56
4, 313291, Note_on_c, 0, 60, 0
4, 313292, Note_on_c, 0, 64, 0
4, 313315, Note_on_c, 0, 47, 0
4, 313377, Note_on_c, 0, 66, 0
4, 313390, Note_on_c, 0, 54, 0
4, 313783, Note_on_c, 0, 66, 48
4, 313795, Note_on_c, 0, 54, 37
4, 313804, Note_on_c, 0, 60, 44
4, 313806, Note_on_c, 0, 47, 41
4, 313837, Note_on_c, 0, 64, 51
4, 314715, Note_on_c, 0, 60, 0
4, 314759, Note_on_c, 0, 47, 0
4, 314763, Note_on_c, 0, 64, 0
4, 314828, Note_on_c, 0, 66, 0
4, 314934, Note_on_c, 0, 54, 0
4, 314936, Note_on_c, 0, 66, 27
4, 314968, Note_on_c, 0, 59, 51
4, 314970, Note_on_c, 0, 64, 66
4, 315005, Note_on_c, 0, 55, 53
4, 315022, Note_on_c, 0, 48, 46
4, 316522, Note_on_c, 0, 59, 0
4, 316560, Note_on_c, 0, 64, 0
4, 316637, Note_on_c, 0, 55, 0
4, 316656, Note_on_c, 0, 66, 0
4, 316825, Note_on_c, 0, 66, 33
4, 316829, Note_on_c, 0, 59, 59
4, 316848, Note_on_c, 0, 64, 62
4, 316873, Note_on_c, 0, 55, 47
4, 317230, Note_on_c, 0, 48, 0
4, 317717, Note_on_c, 0, 55, 0
4, 318153, Note_on_c, 0, 59, 0
4, 318282, Note_on_c, 0, 52, 32
4, 318445, Note_on_c, 0, 64, 0
4, 318563, Note_on_c, 0, 66, 0
4, 318566, Note_on_c, 0, 52, 0
4, 318647, Note_on_c, 0, 60, 40
4, 318660, Note_on_c, 0, 55, 40
4, 318668, Note_on_c, 0, 45, 35
4, 318786, Note_on_c, 0, 60, 0
4, 318863, Note_on_c, 0, 45, 0
4, 318877, Note_on_c, 0, 55, 0
4, 319565, Note_on_c, 0, 83, 80
4, 319578, Note_on_c, 0, 74, 85
4, 320213, Note_on_c, 0, 83, 0
4, 320334, Note_on_c, 0, 74, 0
4, 320520, Note_on_c, 0, 81, 64
4, 320545, Note_on_c, 0, 72, 53
4, 320795, Note_on_c, 0, 81, 0
4, 320902, Note_on_c, 0, 72, 0
4, 321488, Note_on_c, 0, 79, 53
4, 321494, Note_on_c, 0, 71, 52
4, 321680, Note_on_c, 0, 79, 0
4, 321766, Note_on_c, 0, 71, 0
4, 322461, Note_on_c, 0, 76, 59
4, 322541, Note_on_c, 0, 69, 58
4, 322588, Note_on_c, 0, 60, 24
4, 322603, Note_on_c, 0, 53, 24
4, 322620, Note_on_c, 0, 64, 18
4, 322651, Note_on_c, 0, 67, 30
4, 324521, Note_on_c, 0, 69, 0
4, 324536, Note_on_c, 0, 67, 0
4, 324649, Note_on_c, 0, 76, 0
4, 325494, Note_on_c, 0, 81, 80
4, 325519, Note_on_c, 0, 64, 0
4, 325524, Note_on_c, 0, 60, 0
4, 325769, Note_on_c, 0, 53, 0
4, 325784, Note_on_c, 0, 81, 0
4, 326501, Note_on_c, 0, 80, 67
4, 326503, Note_on_c, 0, 56, 50
4, 326910, Note_on_c, 0, 80, 0
4, 326998, Note_on_c, 0, 56, 0
4, 327021, Note_on_c, 0, 81, 42
4, 327121, Note_on_c, 0, 57, 25
4, 327231, Note_on_c, 0, 57, 0
4, 327254, Note_on_c, 0, 56, 45
4, 327256, Note_on_c, 0, 81, 0
4, 327272, Note_on_c, 0, 80, 29
4, 327473, Note_on_c, 0, 56, 0
4, 327546, Note_on_c, 0, 80, 0
4, 328843, Note_on_c, 0, 77, 70
4, 328860, Note_on_c, 0, 53, 62
4, 329012, Note_on_c, 0, 77, 0
4, 329049, Note_on_c, 0, 53, 0
4, 329327, Note_on_c, 0, 52, 31
4, 329359, Note_on_c, 0, 76, 60
4, 332523, Note_on_c, 0, 76, 0
4, 332625, Note_on_c, 0, 70, 57
4, 332810, Note_on_c, 0, 70, 0
4, 332902, Note_on_c, 0, 71, 61
4, 332939, Note_on_c, 0, 52, 0
4, 333136, Note_on_c, 0, 71, 0
4, 333184, Note_on_c, 0, 76, 66
4, 333525, Note_on_c, 0, 78, 57
4, 333558, Note_on_c, 0, 76, 0
4, 333663, Note_on_c, 0, 78, 0
4, 333857, Note_on_c, 0, 79, 57
4, 333959, Note_on_c, 0, 79, 0
4, 334486, Note_on_c, 0, 84, 82
4, 334613, Note_on_c, 0, 84, 0
4, 334974, Note_on_c, 0, 86, 78
4, 335131, Note_on_c, 0, 86, 0
4, 335435, Note_on_c, 0, 90, 77
4, 335650, Note_on_c, 0, 90, 0
4, 335897, Note_on_c, 0, 93, 80
4, 335909, Note_on_c, 0, 91, 76
4, 336101, Note_on_c, 0, 91, 0
4, 336122, Note_on_c, 0, 93, 0
4, 336291, Note_on_c, 0, 90, 62
4, 336604, Note_on_c, 0, 90, 0
4, 336758, Note_on_c, 0, 88, 73
4, 337000, Note_on_c, 0, 88, 0
4, 337173, Note_on_c, 0, 83, 46
4, 337571, Note_on_c, 0, 83, 0
4, 337682, Note_on_c, 0, 79, 63
4, 337877, Note_on_c, 0, 79, 0
4, 337882, Note_on_c, 0, 53, 24
4, 337907, Note_on_c, 0, 57, 33
4, 337944, Note_on_c, 0, 60, 17
4, 338047, Note_on_c, 0, 53, 0
4, 338051, Note_on_c, 0, 60, 0
4, 338091, Note_on_c, 0, 57, 0
4, 338118, Note_on_c, 0, 88, 84
4, 338667, Note_on_c, 0, 88, 0
4, 338901, Note_on_c, 0, 84, 66
4, 339206, Note_on_c, 0, 84, 0
4, 339547, Note_on_c, 0, 76, 48
4, 339574, Note_on_c, 0, 64, 30
4, 339653, Note_on_c, 0, 64, 0
4, 339864, Note_on_c, 0, 76, 0
4, 339991, Note_on_c, 0, 72, 51
4, 340342, Note_on_c, 0, 72, 0
4, 340695, Note_on_c, 0, 72, 36
4, 341185, Note_on_c, 0, 72, 0
4, 341386, Note_on_c, 0, 72, 42
4, 341578, Note_on_c, 0, 72, 0
4, 344325, Note_on_c, 0, 59, 71
4, 344480, Note_on_c, 0, 59, 0
4, 344614, Note_on_c, 0, 60, 48
4, 344788, Note_on_c, 0, 60, 0
4, 344930, Note_on_c, 0, 64, 60
4, 345078, Note_on_c, 0, 64, 0
4, 345205, Note_on_c, 0, 66, 82
4, 345447, Note_on_c, 0, 66, 0
4, 345526, Note_on_c, 0, 67, 84
4, 345533, Note_on_c, 0, 59, 39
4, 345573, Note_on_c, 0, 48, 31
4, 345668, Note_on_c, 0, 55, 22
4, 346029, Note_on_c, 0, 59, 0
4, 346207, Note_on_c, 0, 67, 0
4, 346216, Note_on_c, 0, 66, 67
4, 346341, Note_on_c, 0, 55, 0
4, 346454, Note_on_c, 0, 48, 0
4, 346495, Note_on_c, 0, 66, 0
4, 346637, Note_on_c, 0, 64, 40
4, 347358, Note_on_c, 0, 64, 0
4, 347458, Note_on_c, 0, 59, 56
4, 348206, Note_on_c, 0, 52, 22
4, 348285, Note_on_c, 0, 59, 0
4, 348333, Note_on_c, 0, 52, 0
4, 348436, Note_on_c, 0, 62, 105
4, 349244, Note_on_c, 0, 62, 0
4, 349361, Note_on_c, 0, 55, 48
4, 350272, Note_on_c, 0, 55, 0
4, 350305, Note_on_c, 0, 59, 88
4, 350906, Note_on_c, 0, 59, 0
4, 351221, Note_on_c, 0, 52, 53
4, 352140, Note_on_c, 0, 52, 0
4, 352240, Note_on_c, 0, 57, 64
4, 352770, Note_on_c, 0, 57, 0
4, 353244, Note_on_c, 0, 41, 36
4, 353248, Note_on_c, 0, 48, 36
4, 353335, Note_on_c, 0, 57, 42
4, 353744, Note_on_c, 0, 48, 0
4, 353758, Note_on_c, 0, 41, 0
4, 353950, Note_on_c, 0, 57, 0
4, 354170, Note_on_c, 0, 76, 99
4, 354800, Note_on_c, 0, 69, 74
4, 355117, Note_on_c, 0, 76, 0
4, 356057, Note_on_c, 0, 69, 0
4, 356132, Note_on_c, 0, 74, 75
4, 356827, Note_on_c, 0, 74, 0
4, 357103, Note_on_c, 0, 68, 39
4, 357115, Note_on_c, 0, 52, 36
4, 357117, Note_on_c, 0, 62, 38
4, 357341, Note_on_c, 0, 62, 0
4, 357385, Note_on_c, 0, 52, 0
4, 357929, Note_on_c, 0, 68, 0
4, 358004, Note_on_c, 0, 71, 69
4, 358579, Note_on_c, 0, 71, 0
4, 358981, Note_on_c, 0, 65, 63
4, 359855, Note_on_c, 0, 65, 0
4, 359935, Note_on_c, 0, 64, 55
4, 362343, Note_on_c, 0, 64, 0
4, 362521, Note_on_c, 0, 62, 34
4, 362546, Note_on_c, 0, 57, 39
4, 362621, Note_on_c, 0, 62, 0
4, 362660, Note_on_c, 0, 57, 0
4, 362889, Note_on_c, 0, 64, 56
4, 363156, Note_on_c, 0, 66, 46
4, 363176, Note_on_c, 0, 64, 0
4, 363376, Note_on_c, 0, 66, 0
4, 363429, Note_on_c, 0, 67, 64
4, 363646, Note_on_c, 0, 67, 0
4, 363892, Note_on_c, 0, 66, 21
4, 364084, Note_on_c, 0, 66, 0
4, 364128, Note_on_c, 0, 67, 68
4, 364322, Note_on_c, 0, 67, 0
4, 364420, Note_on_c, 0, 69, 88
4, 364690, Note_on_c, 0, 69, 0
4, 364740, Note_on_c, 0, 57, 24
4, 364752, Note_on_c, 0, 67, 72
4, 364944, Note_on_c, 0, 57, 0
4, 365599, Note_on_c, 0, 67, 0
4, 365721, Note_on_c, 0, 64, 33
4, 366172, Note_on_c, 0, 64, 0
4, 367325, Note_on_c, 0, 52, 50
4, 367355, Note_on_c, 0, 62, 61
4, 367375, Note_on_c, 0, 59, 47
4, 367423, Note_on_c, 0, 62, 0
4, 367459, Note_on_c, 0, 59, 0
4, 367524, Note_on_c, 0, 52, 0
4, 367992, Note_on_c, 0, 67, 71
4, 368173, Note_on_c, 0, 67, 0
4, 368307, Note_on_c, 0, 69, 92
4, 368522, Note_on_c, 0, 57, 26
4, 368574, Note_on_c, 0, 69, 0
4, 368616, Note_on_c, 0, 57, 0
4, 368704, Note_on_c, 0, 67, 31
4, 368917, Note_on_c, 0, 67, 0
4, 368930, Note_on_c, 0, 69, 64
4, 369218, Note_on_c, 0, 70, 76
4, 369266, Note_on_c, 0, 69, 0
4, 369429, Note_on_c, 0, 70, 0
4, 369463, Note_on_c, 0, 67, 54
4, 369506, Note_on_c, 0, 62, 54
4, 369521, Note_on_c, 0, 57, 36
4, 369534, Note_on_c, 0, 63, 23
4, 369538, Note_on_c, 0, 71, 66
4, 369578, Note_on_c, 0, 67, 0
4, 369661, Note_on_c, 0, 57, 0
4, 369665, Note_on_c, 0, 63, 0
4, 369679, Note_on_c, 0, 62, 0
4, 369732, Note_on_c, 0, 71, 0
4, 369798, Note_on_c, 0, 74, 58
4, 370014, Note_on_c, 0, 74, 0
4, 370087, Note_on_c, 0, 79, 80
4, 370226, Note_on_c, 0, 79, 0
4, 370253, Note_on_c, 0, 67, 27
4, 370322, Note_on_c, 0, 67, 0
4, 370397, Note_on_c, 0, 83, 87
4, 370623, Note_on_c, 0, 83, 0
4, 370692, Note_on_c, 0, 86, 89
4, 370721, Note_on_c, 0, 74, 77
4, 371196, Note_on_c, 0, 74, 0
4, 371244, Note_on_c, 0, 86, 0
4, 371440, Note_on_c, 0, 67, 60
4, 371448, Note_on_c, 0, 84, 89
4, 371476, Note_on_c, 0, 63, 37
4, 371480, Note_on_c, 0, 62, 33
4, 371801, Note_on_c, 0, 67, 0
4, 371831, Note_on_c, 0, 62, 0
4, 371868, Note_on_c, 0, 63, 0
4, 372025, Note_on_c, 0, 84, 0
4, 372145, Note_on_c, 0, 83, 79
4, 372517, Note_on_c, 0, 83, 0
4, 372824, Note_on_c, 0, 78, 64
4, 373288, Note_on_c, 0, 78, 0
4, 373424, Note_on_c, 0, 76, 60
4, 374117, Note_on_c, 0, 72, 55
4, 374706, Note_on_c, 0, 47, 54
4, 374984, Note_on_c, 0, 47, 0
4, 375092, Note_on_c, 0, 76, 0
4, 375338, Note_on_c, 0, 72, 0
4, 375421, Note_on_c, 0, 47, 48
4, 375886, Note_on_c, 0, 47, 0
4, 376103, Note_on_c, 0, 48, 57
4, 377877, Note_on_c, 0, 55, 49
4, 377956, Note_on_c, 0, 55, 0
4, 378197, Note_on_c, 0, 66, 80
4, 378210, Note_on_c, 0, 57, 80
4, 378214, Note_on_c, 0, 62, 81
4, 378569, Note_on_c, 0, 57, 0
4, 378689, Note_on_c, 0, 66, 0
4, 378779, Note_on_c, 0, 67, 69
4, 378831, Note_on_c, 0, 59, 52
4, 378877, Note_on_c, 0, 55, 46
4, 378998, Note_on_c, 0, 55, 0
4, 379027, Note_on_c, 0, 59, 0
4, 379037, Note_on_c, 0, 67, 0
4, 379048, Note_on_c, 0, 62, 0
4, 379180, Note_on_c, 0, 62, 46
4, 379182, Note_on_c, 0, 66, 48
4, 379214, Note_on_c, 0, 57, 45
4, 379368, Note_on_c, 0, 48, 0
4, 379581, Note_on_c, 0, 62, 0
4, 379617, Note_on_c, 0, 66, 0
4, 379718, Note_on_c, 0, 57, 0
4, 380106, Note_on_c, 0, 45, 40
4, 380158, Note_on_c, 0, 64, 55
4, 380165, Note_on_c, 0, 60, 50
4, 380204, Note_on_c, 0, 55, 31
4, 380344, Note_on_c, 0, 55, 0
4, 380448, Note_on_c, 0, 60, 0
4, 380459, Note_on_c, 0, 64, 0
4, 380509, Note_on_c, 0, 45, 0
4, 381086, Note_on_c, 0, 55, 40
4, 381090, Note_on_c, 0, 59, 51
4, 381320, Note_on_c, 0, 59, 0
4, 381328, Note_on_c, 0, 55, 0
4, 382026, Note_on_c, 0, 55, 39
4, 382042, Note_on_c, 0, 59, 43
4, 382391, Note_on_c, 0, 55, 0
4, 382414, Note_on_c, 0, 59, 0
4, 383920, Note_on_c, 0, 48, 45
4, 383922, Note_on_c, 0, 41, 33
4, 383947, Note_on_c, 0, 71, 96
4, 383958, Note_on_c, 0, 64, 96
4, 383964, Note_on_c, 0, 57, 53
4, 384461, Note_on_c, 0, 71, 0
4, 384511, Note_on_c, 0, 67, 61
4, 384566, Note_on_c, 0, 59, 54
4, 384568, Note_on_c, 0, 57, 0
4, 384624, Note_on_c, 0, 64, 0
4, 384784, Note_on_c, 0, 59, 0
4, 384851, Note_on_c, 0, 67, 0
4, 384995, Note_on_c, 0, 64, 62
4, 385383, Note_on_c, 0, 64, 0
4, 385700, Note_on_c, 0, 41, 0
4, 385924, Note_on_c, 0, 59, 54
4, 385940, Note_on_c, 0, 57, 40
4, 386168, Note_on_c, 0, 57, 0
4, 386425, Note_on_c, 0, 59, 0
4, 386467, Note_on_c, 0, 48, 0
4, 386865, Note_on_c, 0, 59, 53
4, 387162, Note_on_c, 0, 59, 0
4, 389681, Note_on_c, 0, 82, 90
4, 390223, Note_on_c, 0, 83, 71
4, 390252, Note_on_c, 0, 82, 0
4, 390586, Note_on_c, 0, 83, 0
4, 390711, Note_on_c, 0, 81, 49
4, 391405, Note_on_c, 0, 81, 0
4, 391625, Note_on_c, 0, 80, 59
4, 392194, Note_on_c, 0, 81, 65
4, 392215, Note_on_c, 0, 80, 0
4, 392468, Note_on_c, 0, 81, 0
4, 392637, Note_on_c, 0, 77, 47
4, 393451, Note_on_c, 0, 77, 0
4, 393547, Note_on_c, 0, 76, 76
4, 394123, Note_on_c, 0, 74, 52
4, 394173, Note_on_c, 0, 76, 0
4, 394363, Note_on_c, 0, 74, 0
4, 394518, Note_on_c, 0, 72, 35
4, 395007, Note_on_c, 0, 72, 0
4, 395095, Note_on_c, 0, 71, 32
4, 395297, Note_on_c, 0, 71, 0
4, 395475, Note_on_c, 0, 72, 45
4, 395479, Note_on_c, 0, 60, 25
4, 395489, Note_on_c, 0, 71, 45
4, 395491, Note_on_c, 0, 59, 26
4, 395492, Note_on_c, 0, 64, 26
4, 395765, Note_on_c, 0, 71, 0
4, 396897, Note_on_c, 0, 60, 0
4, 396898, Note_on_c, 0, 64, 0
4, 397123, Note_on_c, 0, 72, 0
4, 397153, Note_on_c, 0, 60, 34
4, 397418, Note_on_c, 0, 71, 67
4, 397570, Note_on_c, 0, 71, 0
4, 397574, Note_on_c, 0, 72, 63
4, 397656, Note_on_c, 0, 60, 0
4, 397815, Note_on_c, 0, 71, 61
4, 397827, Note_on_c, 0, 59, 0
4, 397850, Note_on_c, 0, 72, 0
4, 398045, Note_on_c, 0, 71, 0
4, 398076, Note_on_c, 0, 69, 53
4, 398181, Note_on_c, 0, 60, 25
4, 398240, Note_on_c, 0, 69, 0
4, 398315, Note_on_c, 0, 60, 0
4, 398371, Note_on_c, 0, 68, 56
4, 398971, Note_on_c, 0, 68, 0
4, 398987, Note_on_c, 0, 72, 69
4, 399314, Note_on_c, 0, 72, 0
4, 399433, Note_on_c, 0, 69, 58
4, 399995, Note_on_c, 0, 64, 34
4, 400114, Note_on_c, 0, 69, 0
4, 400206, Note_on_c, 0, 64, 0
4, 400352, Note_on_c, 0, 60, 30
4, 401137, Note_on_c, 0, 60, 0
4, 401279, Note_on_c, 0, 57, 44
4, 402051, Note_on_c, 0, 57, 0
4, 403172, Note_on_c, 0, 45, 34
4, 404189, Note_on_c, 0, 57, 51
4, 404333, Note_on_c, 0, 57, 0
4, 404467, Note_on_c, 0, 59, 56
4, 404626, Note_on_c, 0, 59, 0
4, 404714, Note_on_c, 0, 59, 84
4, 404900, Note_on_c, 0, 59, 0
4, 404963, Note_on_c, 0, 60, 78
4, 405195, Note_on_c, 0, 60, 0
4, 405266, Note_on_c, 0, 60, 50
4, 405466, Note_on_c, 0, 60, 0
4, 405510, Note_on_c, 0, 62, 85
4, 405775, Note_on_c, 0, 45, 0
4, 405998, Note_on_c, 0, 62, 0
4, 406015, Note_on_c, 0, 64, 73
4, 406169, Note_on_c, 0, 64, 0
4, 406311, Note_on_c, 0, 64, 45
4, 406474, Note_on_c, 0, 64, 0
4, 406532, Note_on_c, 0, 67, 27
4, 406543, Note_on_c, 0, 65, 46
4, 406622, Note_on_c, 0, 65, 0
4, 406762, Note_on_c, 0, 71, 62
4, 406766, Note_on_c, 0, 67, 0
4, 406972, Note_on_c, 0, 74, 80
4, 406991, Note_on_c, 0, 71, 0
4, 407141, Note_on_c, 0, 48, 35
4, 407166, Note_on_c, 0, 41, 34
4, 407202, Note_on_c, 0, 57, 39
4, 407248, Note_on_c, 0, 71, 63
4, 407340, Note_on_c, 0, 74, 0
4, 407907, Note_on_c, 0, 71, 0
4, 407952, Note_on_c, 0, 67, 50
4, 408536, Note_on_c, 0, 67, 0
4, 408567, Note_on_c, 0, 64, 54
4, 409778, Note_on_c, 0, 41, 0
4, 409830, Note_on_c, 0, 48, 0
4, 410026, Note_on_c, 0, 57, 0
4, 410286, Note_on_c, 0, 64, 0
4, 411002, Note_on_c, 0, 73, 71
4, 411282, Note_on_c, 0, 74, 77
4, 411322, Note_on_c, 0, 73, 0
4, 411470, Note_on_c, 0, 74, 0
4, 411570, Note_on_c, 0, 76, 77
4, 411849, Note_on_c, 0, 76, 0
4, 413196, Note_on_c, 0, 69, 71
4, 413386, Note_on_c, 0, 69, 0
4, 413488, Note_on_c, 0, 71, 77
4, 413699, Note_on_c, 0, 71, 0
4, 413801, Note_on_c, 0, 72, 57
4, 413861, Note_on_c, 0, 60, 33
4, 413887, Note_on_c, 0, 57, 32
4, 413947, Note_on_c, 0, 60, 0
4, 414004, Note_on_c, 0, 57, 0
4, 414049, Note_on_c, 0, 72, 0
4, 414724, Note_on_c, 0, 65, 36
4, 414810, Note_on_c, 0, 65, 0
4, 414983, Note_on_c, 0, 67, 67
4, 415144, Note_on_c, 0, 67, 0
4, 415280, Note_on_c, 0, 69, 85
4, 415480, Note_on_c, 0, 69, 0
4, 416244, Note_on_c, 0, 59, 48
4, 416319, Note_on_c, 0, 59, 0
4, 416583, Note_on_c, 0, 61, 62
4, 416714, Note_on_c, 0, 61, 0
4, 416840, Note_on_c, 0, 63, 59
4, 417065, Note_on_c, 0, 63, 0
4, 417277, Note_on_c, 0, 67, 84
4, 417513, Note_on_c, 0, 67, 0
4, 418108, Note_on_c, 0, 61, 67
4, 418269, Note_on_c, 0, 61, 0
4, 418390, Note_on_c, 0, 65, 82
4, 418607, Note_on_c, 0, 48, 22
4, 418653, Note_on_c, 0, 65, 0
4, 418714, Note_on_c, 0, 48, 0
4, 418718, Note_on_c, 0, 64, 76
4, 418764, Note_on_c, 0, 65, 14
4, 418987, Note_on_c, 0, 65, 0
4, 419126, Note_on_c, 0, 64, 0
4, 419284, Note_on_c, 0, 48, 34
4, 419291, Note_on_c, 0, 59, 68
4, 419408, Note_on_c, 0, 48, 0
4, 419508, Note_on_c, 0, 59, 0
4, 419617, Note_on_c, 0, 55, 43
4, 420245, Note_on_c, 0, 55, 0
4, 420512, Note_on_c, 0, 55, 69
4, 421099, Note_on_c, 0, 55, 0
4, 423287, Note_on_c, 0, 48, 32
4, 423358, Note_on_c, 0, 41, 20
4, 423406, Note_on_c, 0, 57, 36
4, 423649, Note_on_c, 0, 57, 0
4, 423676, Note_on_c, 0, 48, 0
4, 423715, Note_on_c, 0, 41, 0
4, 424283, Note_on_c, 0, 69, 57
4, 424365, Note_on_c, 0, 69, 0
4, 424849, Note_on_c, 0, 72, 80
4, 424974, Note_on_c, 0, 72, 0
4, 425244, Note_on_c, 0, 76, 110
4, 425492, Note_on_c, 0, 76, 0
4, 425803, Note_on_c, 0, 79, 101
4, 426072, Note_on_c, 0, 79, 0
4, 426237, Note_on_c, 0, 78, 61
4, 426653, Note_on_c, 0, 78, 0
4, 426794, Note_on_c, 0, 74, 65
4, 426855, Note_on_c, 0, 62, 29
4, 426895, Note_on_c, 0, 57, 31
4, 426968, Note_on_c, 0, 62, 0
4, 426985, Note_on_c, 0, 74, 0
4, 426993, Note_on_c, 0, 57, 0
4, 427150, Note_on_c, 0, 71, 44
4, 427601, Note_on_c, 0, 71, 0
4, 427798, Note_on_c, 0, 66, 50
4, 428089, Note_on_c, 0, 66, 0
4, 428212, Note_on_c, 0, 62, 47
4, 429048, Note_on_c, 0, 62, 0
4, 429094, Note_on_c, 0, 64, 60
4, 431326, Note_on_c, 0, 64, 0
4, 431474, Note_on_c, 0, 64, 72
4, 431746, Note_on_c, 0, 64, 0
4, 431767, Note_on_c, 0, 63, 46
4, 431907, Note_on_c, 0, 63, 0
4, 432003, Note_on_c, 0, 64, 78
4, 432798, Note_on_c, 0, 64, 0
4, 432875, Note_on_c, 0, 69, 84
4, 434458, Note_on_c, 0, 69, 0
4, 434633, Note_on_c, 0, 66, 57
4, 434769, Note_on_c, 0, 57, 25
4, 434777, Note_on_c, 0, 47, 26
4, 434873, Note_on_c, 0, 66, 0
4, 434949, Note_on_c, 0, 64, 30
4, 435118, Note_on_c, 0, 64, 0
4, 435148, Note_on_c, 0, 66, 70
4, 435662, Note_on_c, 0, 66, 0
4, 435689, Note_on_c, 0, 71, 79
4, 436548, Note_on_c, 0, 47, 0
4, 436658, Note_on_c, 0, 57, 0
4, 436953, Note_on_c, 0, 48, 32
4, 436966, Note_on_c, 0, 59, 34
4, 437301, Note_on_c, 0, 67, 75
4, 437317, Note_on_c, 0, 71, 0
4, 437563, Note_on_c, 0, 66, 53
4, 437572, Note_on_c, 0, 59, 0
4, 437584, Note_on_c, 0, 67, 0
4, 437776, Note_on_c, 0, 66, 0
4, 437881, Note_on_c, 0, 67, 44
4, 438198, Note_on_c, 0, 67, 0
4, 438252, Note_on_c, 0, 72, 79
4, 440007, Note_on_c, 0, 48, 0
4, 440495, Note_on_c, 0, 72, 0
4, 440522, Note_on_c, 0, 69, 69
4, 441119, Note_on_c, 0, 69, 0
4, 441131, Note_on_c, 0, 68, 37
4, 441308, Note_on_c, 0, 45, 26
4, 441413, Note_on_c, 0, 45, 0
4, 441563, Note_on_c, 0, 68, 0
4, 441620, Note_on_c, 0, 69, 44
4, 442035, Note_on_c, 0, 69, 0
4, 442102, Note_on_c, 0, 70, 60
4, 442381, Note_on_c, 0, 70, 0
4, 442507, Note_on_c, 0, 71, 53
4, 443038, Note_on_c, 0, 71, 0
4, 443072, Note_on_c, 0, 74, 68
4, 443126, Note_on_c, 0, 64, 55
4, 443168, Note_on_c, 0, 60, 43
4, 443222, Note_on_c, 0, 59, 16
4, 443251, Note_on_c, 0, 60, 0
4, 443293, Note_on_c, 0, 64, 0
4, 443312, Note_on_c, 0, 59, 0
4, 443476, Note_on_c, 0, 74, 0
4, 443553, Note_on_c, 0, 71, 39
4, 443972, Note_on_c, 0, 71, 0
4, 444058, Note_on_c, 0, 72, 61
4, 444331, Note_on_c, 0, 72, 0
4, 444457, Note_on_c, 0, 76, 39
4, 445018, Note_on_c, 0, 76, 0
4, 445028, Note_on_c, 0, 79, 72
4, 445271, Note_on_c, 0, 79, 0
4, 445449, Note_on_c, 0, 83, 80
4, 445912, Note_on_c, 0, 83, 0
4, 445950, Note_on_c, 0, 86, 91
4, 446152, Note_on_c, 0, 67, 42
4, 446167, Note_on_c, 0, 63, 35
4, 446181, Note_on_c, 0, 62, 36
4, 446225, Note_on_c, 0, 57, 42
4, 446352, Note_on_c, 0, 84, 68
4, 446595, Note_on_c, 0, 86, 0
4, 446889, Note_on_c, 0, 84, 0
4, 446967, Note_on_c, 0, 79, 58
4, 447474, Note_on_c, 0, 75, 60
4, 447551, Note_on_c, 0, 79, 0
4, 448207, Note_on_c, 0, 75, 0
4, 448315, Note_on_c, 0, 74, 48
4, 448340, Note_on_c, 0, 67, 0
4, 448478, Note_on_c, 0, 63, 0
4, 448482, Note_on_c, 0, 62, 0
4, 448559, Note_on_c, 0, 57, 0
4, 449886, Note_on_c, 0, 74, 0
4, 450242, Note_on_c, 0, 80, 87
4, 450669, Note_on_c, 0, 80, 0
4, 450778, Note_on_c, 0, 81, 68
4, 451084, Note_on_c, 0, 81, 0
4, 451230, Note_on_c, 0, 78, 64
4, 451353, Note_on_c, 0, 62, 28
4, 451374, Note_on_c, 0, 52, 25
4, 451383, Note_on_c, 0, 57, 29
4, 451765, Note_on_c, 0, 78, 0
4, 451773, Note_on_c, 0, 79, 60
4, 452070, Note_on_c, 0, 79, 0
4, 452229, Note_on_c, 0, 76, 54
4, 454528, Note_on_c, 0, 62, 0
4, 454605, Note_on_c, 0, 76, 0
4, 455155, Note_on_c, 0, 82, 20
4, 455251, Note_on_c, 0, 57, 0
4, 455335, Note_on_c, 0, 52, 0
4, 455612, Note_on_c, 0, 82, 0
4, 455626, Note_on_c, 0, 83, 67
4, 455764, Note_on_c, 0, 83, 0
4, 455917, Note_on_c, 0, 88, 99
4, 456378, Note_on_c, 0, 88, 0
4, 456649, Note_on_c, 0, 81, 90
4, 457256, Note_on_c, 0, 81, 0
4, 457270, Note_on_c, 0, 82, 46
4, 457492, Note_on_c, 0, 81, 49
4, 457526, Note_on_c, 0, 82, 0
4, 457731, Note_on_c, 0, 81, 0
4, 457739, Note_on_c, 0, 79, 50
4, 457854, Note_on_c, 0, 79, 0
4, 457956, Note_on_c, 0, 81, 90
4, 458744, Note_on_c, 0, 81, 0
4, 458909, Note_on_c, 0, 76, 34
4, 459482, Note_on_c, 0, 76, 0
4, 459856, Note_on_c, 0, 79, 94
4, 460461, Note_on_c, 0, 79, 0
4, 461749, Note_on_c, 0, 57, 29
4, 461755, Note_on_c, 0, 64, 18
4, 461766, Note_on_c, 0, 60, 29
4, 461879, Note_on_c, 0, 60, 0
4, 461922, Note_on_c, 0, 57, 0
4, 461943, Note_on_c, 0, 64, 0
4, 462690, Note_on_c, 0, 69, 81
4, 463155, Note_on_c, 0, 69, 0
4, 463330, Note_on_c, 0, 76, 85
4, 463380, Note_on_c, 0, 62, 69
4, 463397, Note_on_c, 0, 57, 59
4, 463445, Note_on_c, 0, 62, 0
4, 463489, Note_on_c, 0, 57, 0
4, 463630, Note_on_c, 0, 76, 0
4, 463745, Note_on_c, 0, 69, 38
4, 464154, Note_on_c, 0, 69, 0
4, 464620, Note_on_c, 0, 64, 39
4, 464645, Note_on_c, 0, 71, 42
4, 464983, Note_on_c, 0, 71, 0
4, 465044, Note_on_c, 0, 64, 0
4, 465589, Note_on_c, 0, 47, 33
4, 465601, Note_on_c, 0, 57, 36
4, 465628, Note_on_c, 0, 54, 33
4, 465833, Note_on_c, 0, 57, 0
4, 465839, Note_on_c, 0, 47, 0
4, 465850, Note_on_c, 0, 54, 0
4, 468515, Note_on_c, 0, 36, 57
4, 468528, Note_on_c, 0, 52, 42
4, 468551, Note_on_c, 0, 50, 38
4, 468572, Note_on_c, 0, 43, 32
4, 468626, Note_on_c, 0, 50, 0
4, 468678, Note_on_c, 0, 43, 0
4, 468716, Note_on_c, 0, 52, 0
4, 468764, Note_on_c, 0, 36, 0
4, 470105, Note_on_c, 0, 57, 75
4, 470109, Note_on_c, 0, 62, 80
4, 470111, Note_on_c, 0, 52, 75
4, 470172, Note_on_c, 0, 62, 0
4, 470176, Note_on_c, 0, 52, 0
4, 470232, Note_on_c, 0, 57, 0
4, 470435, Note_on_c, 0, 66, 83
4, 470926, Note_on_c, 0, 66, 0
4, 471056, Note_on_c, 0, 67, 80
4, 471279, Note_on_c, 0, 67, 0
4, 471417, Note_on_c, 0, 66, 56
4, 471909, Note_on_c, 0, 66, 0
4, 472014, Note_on_c, 0, 45, 75
4, 472016, Note_on_c, 0, 64, 72
4, 472023, Note_on_c, 0, 33, 71
4, 472079, Note_on_c, 0, 45, 0
4, 472089, Note_on_c, 0, 33, 0
4, 472306, Note_on_c, 0, 64, 0
4, 472517, Note_on_c, 0, 59, 56
4, 473175, Note_on_c, 0, 59, 0
4, 473276, Note_on_c, 0, 60, 57
4, 473982, Note_on_c, 0, 52, 50
4, 474028, Note_on_c, 0, 60, 0
4, 474072, Note_on_c, 0, 52, 0
4, 474174, Note_on_c, 0, 64, 66
4, 474742, Note_on_c, 0, 64, 0
4, 476105, Note_on_c, 0, 48, 44
4, 476134, Note_on_c, 0, 41, 34
4, 476397, Note_on_c, 0, 41, 0
4, 476431, Note_on_c, 0, 48, 0
4, 477117, Note_on_c, 0, 69, 96
4, 477787, Note_on_c, 0, 64, 80
4, 477804, Note_on_c, 0, 60, 65
4, 477822, Note_on_c, 0, 57, 63
4, 477851, Note_on_c, 0, 64, 0
4, 477856, Note_on_c, 0, 53, 25
4, 477897, Note_on_c, 0, 69, 0
4, 477926, Note_on_c, 0, 53, 0
4, 477929, Note_on_c, 0, 60, 0
4, 477966, Note_on_c, 0, 57, 0
4, 478107, Note_on_c, 0, 72, 76
4, 478990, Note_on_c, 0, 72, 0
4, 479090, Note_on_c, 0, 79, 90
4, 479618, Note_on_c, 0, 79, 0
4, 479982, Note_on_c, 0, 28, 52
4, 480214, Note_on_c, 0, 28, 0
4, 480934, Note_on_c, 0, 71, 54
4, 481379, Note_on_c, 0, 71, 0
4, 481879, Note_on_c, 0, 56, 56
4, 481884, Note_on_c, 0, 76, 101
4, 481894, Note_on_c, 0, 64, 46
4, 481969, Note_on_c, 0, 64, 0
4, 482041, Note_on_c, 0, 56, 0
4, 482491, Note_on_c, 0, 76, 0
4, 483548, Note_on_c, 0, 57, 56
4, 483591, Note_on_c, 0, 62, 32
4, 483664, Note_on_c, 0, 62, 0
4, 483691, Note_on_c, 0, 57, 0
4, 483779, Note_on_c, 0, 78, 94
4, 485458, Note_on_c, 0, 62, 61
4, 485500, Note_on_c, 0, 57, 41
4, 485521, Note_on_c, 0, 62, 0
4, 485576, Note_on_c, 0, 57, 0
4, 485668, Note_on_c, 0, 78, 0
4, 485741, Note_on_c, 0, 79, 71
4, 486297, Note_on_c, 0, 79, 0
4, 486372, Note_on_c, 0, 81, 63
4, 486530, Note_on_c, 0, 81, 0
4, 486701, Note_on_c, 0, 82, 80
4, 486727, Note_on_c, 0, 88, 75
4, 487152, Note_on_c, 0, 88, 0
4, 487211, Note_on_c, 0, 82, 0
4, 487286, Note_on_c, 0, 88, 66
4, 487294, Note_on_c, 0, 83, 69
4, 487353, Note_on_c, 0, 85, 40
4, 487417, Note_on_c, 0, 85, 0
4, 487508, Note_on_c, 0, 83, 0
4, 487524, Note_on_c, 0, 88, 0
4, 487708, Note_on_c, 0, 82, 31
4, 487769, Note_on_c, 0, 88, 17
4, 488222, Note_on_c, 0, 82, 0
4, 488307, Note_on_c, 0, 83, 62
4, 488558, Note_on_c, 0, 83, 0
4, 488593, Note_on_c, 0, 88, 0
4, 488716, Note_on_c, 0, 81, 27
4, 489428, Note_on_c, 0, 81, 0
4, 489542, Note_on_c, 0, 79, 57
4, 490008, Note_on_c, 0, 79, 0
4, 490507, Note_on_c, 0, 82, 85
4, 491025, Note_on_c, 0, 82, 0
4, 491141, Note_on_c, 0, 88, 83
4, 491150, Note_on_c, 0, 83, 88
4, 491179, Note_on_c, 0, 64, 75
4, 491192, Note_on_c, 0, 60, 64
4, 491196, Note_on_c, 0, 53, 60
4, 491210, Note_on_c, 0, 57, 67
4, 491275, Note_on_c, 0, 64, 0
4, 491279, Note_on_c, 0, 53, 0
4, 491329, Note_on_c, 0, 60, 0
4, 491396, Note_on_c, 0, 83, 0
4, 491409, Note_on_c, 0, 57, 0
4, 491442, Note_on_c, 0, 88, 0
4, 491552, Note_on_c, 0, 82, 34
4, 491557, Note_on_c, 0, 88, 30
4, 491907, Note_on_c, 0, 88, 0
4, 492022, Note_on_c, 0, 82, 0
4, 492120, Note_on_c, 0, 88, 51
4, 492133, Note_on_c, 0, 81, 62
4, 492377, Note_on_c, 0, 88, 0
4, 492431, Note_on_c, 0, 81, 0
4, 492493, Note_on_c, 0, 79, 40
4, 493110, Note_on_c, 0, 79, 0
4, 493396, Note_on_c, 0, 48, 34
4, 493419, Note_on_c, 0, 83, 65
4, 493421, Note_on_c, 0, 75, 69
4, 493450, Note_on_c, 0, 57, 52
4, 493454, Note_on_c, 0, 41, 36
4, 493890, Note_on_c, 0, 83, 0
4, 493966, Note_on_c, 0, 41, 0
4, 493974, Note_on_c, 0, 75, 0
4, 493980, Note_on_c, 0, 48, 0
4, 494112, Note_on_c, 0, 57, 0
4, 494329, Note_on_c, 0, 75, 49
4, 494354, Note_on_c, 0, 71, 54
4, 494833, Note_on_c, 0, 71, 0
4, 494971, Note_on_c, 0, 75, 0
4, 495318, Note_on_c, 0, 78, 45
4, 495324, Note_on_c, 0, 72, 49
4, 495349, Note_on_c, 0, 76, 62
4, 495745, Note_on_c, 0, 78, 0
4, 495753, Note_on_c, 0, 76, 0
4, 495815, Note_on_c, 0, 72, 0
4, 496257, Note_on_c, 0, 47, 56
4, 496601, Note_on_c, 0, 47, 0
4, 497927, Note_on_c, 0, 54, 52
4, 498071, Note_on_c, 0, 54, 0
4, 498279, Note_on_c, 0, 60, 20
4, 498365, Note_on_c, 0, 60, 0
4, 498506, Note_on_c, 0, 62, 66
4, 498684, Note_on_c, 0, 62, 0
4, 498811, Note_on_c, 0, 64, 95
4, 499100, Note_on_c, 0, 55, 34
4, 499111, Note_on_c, 0, 64, 0
4, 499119, Note_on_c, 0, 48, 42
4, 499146, Note_on_c, 0, 66, 64
4, 499326, Note_on_c, 0, 55, 0
4, 500868, Note_on_c, 0, 55, 27
4, 500960, Note_on_c, 0, 55, 0
4, 501319, Note_on_c, 0, 48, 0
4, 501670, Note_on_c, 0, 55, 51
4, 501693, Note_on_c, 0, 59, 27
4, 501756, Note_on_c, 0, 59, 0
4, 501768, Note_on_c, 0, 55, 0
4, 502108, Note_on_c, 0, 62, 19
4, 502195, Note_on_c, 0, 66, 0
4, 502270, Note_on_c, 0, 62, 0
4, 502302, Note_on_c, 0, 64, 60
4, 502484, Note_on_c, 0, 64, 0
4, 502576, Note_on_c, 0, 66, 74
4, 502831, Note_on_c, 0, 66, 0
4, 502936, Note_on_c, 0, 55, 34
4, 502940, Note_on_c, 0, 45, 36
4, 502943, Note_on_c, 0, 64, 75
4, 503692, Note_on_c, 0, 55, 0
4, 503853, Note_on_c, 0, 64, 0
4, 503899, Note_on_c, 0, 60, 51
4, 504583, Note_on_c, 0, 60, 0
4, 504617, Note_on_c, 0, 59, 40
4, 504804, Note_on_c, 0, 59, 0
4, 504898, Note_on_c, 0, 60, 59
4, 505121, Note_on_c, 0, 45, 0
4, 505501, Note_on_c, 0, 60, 0
4, 505503, Note_on_c, 0, 59, 55
4, 505647, Note_on_c, 0, 45, 22
4, 505762, Note_on_c, 0, 45, 0
4, 505848, Note_on_c, 0, 59, 0
4, 505867, Note_on_c, 0, 57, 47
4, 506725, Note_on_c, 0, 57, 0
4, 506808, Note_on_c, 0, 57, 49
4, 506856, Note_on_c, 0, 41, 44
4, 506900, Note_on_c, 0, 48, 29
4, 507103, Note_on_c, 0, 48, 0
4, 507322, Note_on_c, 0, 48, 9
4, 508110, Note_on_c, 0, 48, 0
4, 508444, Note_on_c, 0, 57, 0
4, 508536, Note_on_c, 0, 48, 17
4, 508810, Note_on_c, 0, 57, 62
4, 508893, Note_on_c, 0, 57, 0
4, 509010, Note_on_c, 0, 41, 0
4, 509560, Note_on_c, 0, 48, 0
4, 509669, Note_on_c, 0, 41, 24
4, 509875, Note_on_c, 0, 41, 0
4, 510380, Note_on_c, 0, 59, 101
4, 510673, Note_on_c, 0, 47, 24
4, 510677, Note_on_c, 0, 40, 29
4, 510713, Note_on_c, 0, 59, 0
4, 510827, Note_on_c, 0, 57, 73
4, 511288, Note_on_c, 0, 57, 0
4, 511741, Note_on_c, 0, 56, 83
4, 512017, Note_on_c, 0, 47, 0
4, 512213, Note_on_c, 0, 56, 0
4, 512280, Note_on_c, 0, 57, 72
4, 512420, Note_on_c, 0, 47, 18
4, 512522, Note_on_c, 0, 57, 0
4, 512568, Note_on_c, 0, 47, 0
4, 512679, Note_on_c, 0, 53, 69
4, 513231, Note_on_c, 0, 53, 0
4, 513301, Note_on_c, 0, 50, 36
4, 513410, Note_on_c, 0, 50, 0
4, 513591, Note_on_c, 0, 52, 63
4, 513913, Note_on_c, 0, 40, 0
4, 515515, Note_on_c, 0, 52, 0
4, 516582, Note_on_c, 0, 47, 43
4, 516611, Note_on_c, 0, 40, 31
4, 516653, Note_on_c, 0, 47, 0
4, 516703, Note_on_c, 0, 40, 0
4, 519080, Note_on_c, 0, 82, 74
4, 519095, Note_on_c, 0, 70, 84
4, 519220, Note_on_c, 0, 64, 32
4, 519291, Note_on_c, 0, 64, 0
4, 519442, Note_on_c, 0, 82, 0
4, 519480, Note_on_c, 0, 70, 0
4, 519534, Note_on_c, 0, 71, 41
4, 519563, Note_on_c, 0, 83, 55
4, 520016, Note_on_c, 0, 71, 0
4, 520101, Note_on_c, 0, 83, 0
4, 520139, Note_on_c, 0, 71, 41
4, 520381, Note_on_c, 0, 71, 0
4, 520385, Note_on_c, 0, 83, 36
4, 520555, Note_on_c, 0, 71, 48
4, 520574, Note_on_c, 0, 83, 0
4, 520833, Note_on_c, 0, 83, 43
4, 520864, Note_on_c, 0, 71, 0
4, 521052, Note_on_c, 0, 83, 0
4, 521067, Note_on_c, 0, 71, 45
4, 521134, Note_on_c, 0, 64, 40
4, 521157, Note_on_c, 0, 57, 35
4, 521223, Note_on_c, 0, 64, 0
4, 521321, Note_on_c, 0, 57, 0
4, 521334, Note_on_c, 0, 83, 50
4, 521344, Note_on_c, 0, 71, 0
4, 521527, Note_on_c, 0, 71, 42
4, 521529, Note_on_c, 0, 83, 0
4, 521807, Note_on_c, 0, 83, 49
4, 521834, Note_on_c, 0, 71, 0
4, 521957, Note_on_c, 0, 64, 64
4, 521995, Note_on_c, 0, 60, 36
4, 522026, Note_on_c, 0, 57, 34
4, 522028, Note_on_c, 0, 64, 0
4, 522059, Note_on_c, 0, 83, 0
4, 522089, Note_on_c, 0, 60, 0
4, 522091, Note_on_c, 0, 71, 38
4, 522122, Note_on_c, 0, 57, 0
4, 522375, Note_on_c, 0, 83, 38
4, 522405, Note_on_c, 0, 71, 0
4, 522546, Note_on_c, 0, 83, 0
4, 523865, Note_on_c, 0, 64, 49
4, 523907, Note_on_c, 0, 60, 32
4, 523921, Note_on_c, 0, 57, 36
4, 523944, Note_on_c, 0, 64, 0
4, 523986, Note_on_c, 0, 60, 0
4, 524007, Note_on_c, 0, 57, 0
4, 524130, Note_on_c, 0, 82, 44
4, 524628, Note_on_c, 0, 82, 0
4, 524758, Note_on_c, 0, 83, 60
4, 524991, Note_on_c, 0, 83, 0
4, 525091, Note_on_c, 0, 84, 57
4, 525306, Note_on_c, 0, 84, 0
4, 525379, Note_on_c, 0, 88, 55
4, 525579, Note_on_c, 0, 88, 0
4, 525673, Note_on_c, 0, 91, 81
4, 525859, Note_on_c, 0, 91, 0
4, 525938, Note_on_c, 0, 64, 59
4, 525957, Note_on_c, 0, 60, 43
4, 525978, Note_on_c, 0, 59, 34
4, 526001, Note_on_c, 0, 95, 73
4, 526013, Note_on_c, 0, 64, 0
4, 526032, Note_on_c, 0, 60, 0
4, 526051, Note_on_c, 0, 59, 0
4, 526310, Note_on_c, 0, 95, 0
4, 526345, Note_on_c, 0, 98, 89
4, 526647, Note_on_c, 0, 96, 74
4, 526753, Note_on_c, 0, 98, 0
4, 526910, Note_on_c, 0, 96, 0
4, 526983, Note_on_c, 0, 92, 56
4, 527189, Note_on_c, 0, 92, 0
4, 527279, Note_on_c, 0, 95, 72
4, 527572, Note_on_c, 0, 92, 64
4, 527574, Note_on_c, 0, 95, 0
4, 527764, Note_on_c, 0, 92, 0
4, 527889, Note_on_c, 0, 93, 65
4, 527894, Note_on_c, 0, 60, 40
4, 527909, Note_on_c, 0, 64, 35
4, 527932, Note_on_c, 0, 59, 33
4, 527995, Note_on_c, 0, 64, 0
4, 528045, Note_on_c, 0, 59, 0
4, 528066, Note_on_c, 0, 60, 0
4, 528126, Note_on_c, 0, 93, 0
4, 528243, Note_on_c, 0, 88, 29
4, 528461, Note_on_c, 0, 88, 0
4, 528553, Note_on_c, 0, 86, 64
4, 528836, Note_on_c, 0, 86, 0
4, 528934, Note_on_c, 0, 84, 33
4, 529459, Note_on_c, 0, 84, 0
4, 529828, Note_on_c, 0, 64, 27
4, 529863, Note_on_c, 0, 60, 31
4, 529890, Note_on_c, 0, 53, 29
4, 529893, Note_on_c, 0, 57, 22
4, 530258, Note_on_c, 0, 57, 0
4, 530263, Note_on_c, 0, 60, 0
4, 530277, Note_on_c, 0, 53, 0
4, 530279, Note_on_c, 0, 64, 0
4, 531833, Note_on_c, 0, 60, 35
4, 531839, Note_on_c, 0, 53, 29
4, 531840, Note_on_c, 0, 57, 34
4, 531844, Note_on_c, 0, 64, 24
4, 532144, Note_on_c, 0, 60, 0
4, 532201, Note_on_c, 0, 57, 0
4, 532217, Note_on_c, 0, 64, 0
4, 532278, Note_on_c, 0, 53, 0
4, 532795, Note_on_c, 0, 69, 80
4, 533142, Note_on_c, 0, 69, 0
4, 533440, Note_on_c, 0, 76, 99
4, 533684, Note_on_c, 0, 60, 45
4, 533719, Note_on_c, 0, 50, 27
4, 533751, Note_on_c, 0, 60, 0
4, 533757, Note_on_c, 0, 57, 38
4, 533792, Note_on_c, 0, 76, 0
4, 533811, Note_on_c, 0, 50, 0
4, 533873, Note_on_c, 0, 57, 0
4, 533888, Note_on_c, 0, 69, 71
4, 534466, Note_on_c, 0, 69, 0
4, 534762, Note_on_c, 0, 69, 65
4, 535203, Note_on_c, 0, 69, 0
4, 535741, Note_on_c, 0, 69, 55
4, 536336, Note_on_c, 0, 69, 0
4, 537561, Note_on_c, 0, 59, 48
4, 537563, Note_on_c, 0, 53, 30
4, 537582, Note_on_c, 0, 64, 22
4, 537770, Note_on_c, 0, 59, 0
4, 537780, Note_on_c, 0, 53, 0
4, 537828, Note_on_c, 0, 64, 0
4, 539252, Note_on_c, 0, 64, 58
4, 539259, Note_on_c, 0, 59, 57
4, 539321, Note_on_c, 0, 64, 0
4, 539336, Note_on_c, 0, 59, 0
4, 539588, Note_on_c, 0, 75, 45
4, 539859, Note_on_c, 0, 75, 0
4, 539859, Note_on_c, 0, 76, 64
4, 540022, Note_on_c, 0, 76, 0
4, 540141, Note_on_c, 0, 79, 96
4, 540314, Note_on_c, 0, 59, 51
4, 540318, Note_on_c, 0, 64, 38
4, 540401, Note_on_c, 0, 64, 0
4, 540408, Note_on_c, 0, 59, 0
4, 540450, Note_on_c, 0, 79, 0
4, 540512, Note_on_c, 0, 75, 31
4, 540698, Note_on_c, 0, 75, 0
4, 540771, Note_on_c, 0, 76, 36
4, 540953, Note_on_c, 0, 76, 0
4, 541058, Note_on_c, 0, 79, 89
4, 541222, Note_on_c, 0, 62, 45
4, 541249, Note_on_c, 0, 59, 31
4, 541279, Note_on_c, 0, 55, 38
4, 541295, Note_on_c, 0, 62, 0
4, 541339, Note_on_c, 0, 79, 0
4, 541377, Note_on_c, 0, 55, 0
4, 541386, Note_on_c, 0, 75, 42
4, 541415, Note_on_c, 0, 59, 0
4, 541626, Note_on_c, 0, 75, 0
4, 541647, Note_on_c, 0, 76, 38
4, 541883, Note_on_c, 0, 76, 0
4, 541971, Note_on_c, 0, 79, 80
4, 542238, Note_on_c, 0, 55, 30
4, 542320, Note_on_c, 0, 79, 0
4, 542334, Note_on_c, 0, 76, 65
4, 542353, Note_on_c, 0, 55, 0
4, 543064, Note_on_c, 0, 76, 0
4, 543109, Note_on_c, 0, 71, 40
4, 543266, Note_on_c, 0, 71, 0
4, 543358, Note_on_c, 0, 74, 78
4, 543945, Note_on_c, 0, 72, 63
4, 544056, Note_on_c, 0, 74, 0
4, 544229, Note_on_c, 0, 72, 0
4, 544377, Note_on_c, 0, 69, 32
4, 545110, Note_on_c, 0, 69, 0
4, 545219, Note_on_c, 0, 64, 53
4, 545998, Note_on_c, 0, 64, 0
4, 546181, Note_on_c, 0, 64, 59
4, 547982, Note_on_c, 0, 64, 0
4, 548097, Note_on_c, 0, 63, 65
4, 548633, Note_on_c, 0, 63, 0
4, 548739, Note_on_c, 0, 64, 84
4, 549184, Note_on_c, 0, 64, 0
4, 549353, Note_on_c, 0, 64, 79
4, 549808, Note_on_c, 0, 63, 72
4, 549909, Note_on_c, 0, 64, 0
4, 550037, Note_on_c, 0, 63, 0
4, 550191, Note_on_c, 0, 64, 67
4, 550638, Note_on_c, 0, 64, 0
4, 550691, Note_on_c, 0, 66, 78
4, 550984, Note_on_c, 0, 66, 0
4, 551364, Note_on_c, 0, 67, 83
4, 551673, Note_on_c, 0, 67, 0
4, 551700, Note_on_c, 0, 66, 53
4, 551966, Note_on_c, 0, 66, 0
4, 552056, Note_on_c, 0, 67, 72
4, 552498, Note_on_c, 0, 67, 0
4, 552583, Note_on_c, 0, 69, 80
4, 552734, Note_on_c, 0, 57, 46
4, 552759, Note_on_c, 0, 60, 30
4, 552855, Note_on_c, 0, 60, 0
4, 552923, Note_on_c, 0, 69, 0
4, 552951, Note_on_c, 0, 57, 0
4, 553059, Note_on_c, 0, 71, 76
4, 553503, Note_on_c, 0, 70, 72
4, 553522, Note_on_c, 0, 71, 0
4, 553774, Note_on_c, 0, 70, 0
4, 553872, Note_on_c, 0, 71, 51
4, 554397, Note_on_c, 0, 71, 0
4, 554457, Note_on_c, 0, 72, 68
4, 554547, Note_on_c, 0, 64, 38
4, 554599, Note_on_c, 0, 60, 29
4, 554631, Note_on_c, 0, 64, 0
4, 554668, Note_on_c, 0, 57, 28
4, 554708, Note_on_c, 0, 60, 0
4, 554756, Note_on_c, 0, 72, 0
4, 554769, Note_on_c, 0, 57, 0
4, 554913, Note_on_c, 0, 74, 71
4, 555460, Note_on_c, 0, 74, 0
4, 555899, Note_on_c, 0, 72, 60
4, 556306, Note_on_c, 0, 72, 0
4, 556424, Note_on_c, 0, 74, 75
4, 556447, Note_on_c, 0, 67, 68
4, 556470, Note_on_c, 0, 62, 61
4, 556474, Note_on_c, 0, 63, 48
4, 556511, Note_on_c, 0, 57, 45
4, 556591, Note_on_c, 0, 57, 0
4, 556597, Note_on_c, 0, 67, 0
4, 556635, Note_on_c, 0, 63, 0
4, 556662, Note_on_c, 0, 62, 0
4, 556756, Note_on_c, 0, 74, 0
4, 556891, Note_on_c, 0, 75, 65
4, 557344, Note_on_c, 0, 75, 0
4, 558442, Note_on_c, 0, 67, 53
4, 558488, Note_on_c, 0, 62, 31
4, 558490, Note_on_c, 0, 63, 25
4, 558529, Note_on_c, 0, 67, 0
4, 558567, Note_on_c, 0, 62, 0
4, 558577, Note_on_c, 0, 63, 0
4, 559380, Note_on_c, 0, 77, 99
4, 559497, Note_on_c, 0, 67, 31
4, 559570, Note_on_c, 0, 67, 0
4, 559733, Note_on_c, 0, 77, 0
4, 559834, Note_on_c, 0, 78, 64
4, 560246, Note_on_c, 0, 78, 0
4, 560403, Note_on_c, 0, 79, 87
4, 560543, Note_on_c, 0, 62, 62
4, 560559, Note_on_c, 0, 52, 50
4, 560608, Note_on_c, 0, 62, 0
4, 560649, Note_on_c, 0, 52, 0
4, 560785, Note_on_c, 0, 79, 0
4, 560950, Note_on_c, 0, 78, 59
4, 561295, Note_on_c, 0, 78, 0
4, 561402, Note_on_c, 0, 79, 67
4, 561690, Note_on_c, 0, 79, 0
4, 561813, Note_on_c, 0, 78, 53
4, 562142, Note_on_c, 0, 78, 0
4, 562297, Note_on_c, 0, 62, 46
4, 562326, Note_on_c, 0, 76, 71
4, 562380, Note_on_c, 0, 62, 0
4, 562564, Note_on_c, 0, 76, 0
4, 562727, Note_on_c, 0, 71, 45
4, 563288, Note_on_c, 0, 71, 0
4, 563483, Note_on_c, 0, 71, 55
4, 564148, Note_on_c, 0, 71, 0
4, 564164, Note_on_c, 0, 64, 65
4, 564216, Note_on_c, 0, 60, 43
4, 564221, Note_on_c, 0, 57, 43
4, 564227, Note_on_c, 0, 64, 0
4, 564310, Note_on_c, 0, 60, 0
4, 564336, Note_on_c, 0, 57, 0
4, 564455, Note_on_c, 0, 82, 37
4, 564482, Note_on_c, 0, 70, 61
4, 564639, Note_on_c, 0, 82, 0
4, 564726, Note_on_c, 0, 70, 0
4, 564733, Note_on_c, 0, 71, 68
4, 564978, Note_on_c, 0, 71, 0
4, 565016, Note_on_c, 0, 83, 47
4, 565156, Note_on_c, 0, 71, 49
4, 565176, Note_on_c, 0, 83, 0
4, 565426, Note_on_c, 0, 83, 38
4, 565432, Note_on_c, 0, 71, 0
4, 565626, Note_on_c, 0, 71, 38
4, 565656, Note_on_c, 0, 83, 0
4, 565913, Note_on_c, 0, 83, 41
4, 566072, Note_on_c, 0, 64, 61
4, 566097, Note_on_c, 0, 57, 54
4, 566157, Note_on_c, 0, 83, 0
4, 566178, Note_on_c, 0, 64, 0
4, 566272, Note_on_c, 0, 71, 0
4, 566276, Note_on_c, 0, 57, 0
4, 566360, Note_on_c, 0, 81, 64
4, 566867, Note_on_c, 0, 81, 0
4, 567975, Note_on_c, 0, 64, 62
4, 567996, Note_on_c, 0, 60, 46
4, 568006, Note_on_c, 0, 57, 55
4, 568048, Note_on_c, 0, 64, 0
4, 568096, Note_on_c, 0, 60, 0
4, 568186, Note_on_c, 0, 57, 0
4, 568400, Note_on_c, 0, 76, 36
4, 568559, Note_on_c, 0, 76, 0
4, 568936, Note_on_c, 0, 83, 90
4, 568988, Note_on_c, 0, 62, 79
4, 568997, Note_on_c, 0, 57, 73
4, 568999, Note_on_c, 0, 63, 57
4, 569001, Note_on_c, 0, 67, 68
4, 569143, Note_on_c, 0, 67, 0
4, 569184, Note_on_c, 0, 57, 0
4, 569195, Note_on_c, 0, 83, 0
4, 569205, Note_on_c, 0, 63, 0
4, 569220, Note_on_c, 0, 62, 0
4, 569287, Note_on_c, 0, 57, 39
4, 569295, Note_on_c, 0, 80, 71
4, 569305, Note_on_c, 0, 86, 90
4, 569310, Note_on_c, 0, 67, 71
4, 569314, Note_on_c, 0, 62, 70
4, 569316, Note_on_c, 0, 63, 72
4, 569318, Note_on_c, 0, 74, 80
4, 569416, Note_on_c, 0, 80, 0
4, 569787, Note_on_c, 0, 86, 0
4, 569849, Note_on_c, 0, 57, 0
4, 569851, Note_on_c, 0, 67, 0
4, 569893, Note_on_c, 0, 63, 0
4, 569928, Note_on_c, 0, 85, 81
4, 569945, Note_on_c, 0, 63, 32
4, 569949, Note_on_c, 0, 57, 58
4, 569978, Note_on_c, 0, 67, 77
4, 570043, Note_on_c, 0, 67, 0
4, 570083, Note_on_c, 0, 67, 31
4, 570252, Note_on_c, 0, 85, 0
4, 570287, Note_on_c, 0, 74, 0
4, 570329, Note_on_c, 0, 84, 55
4, 570678, Note_on_c, 0, 67, 0
4, 570813, Note_on_c, 0, 84, 0
4, 570824, Note_on_c, 0, 63, 0
4, 570891, Note_on_c, 0, 83, 62
4, 570926, Note_on_c, 0, 63, 21
4, 570970, Note_on_c, 0, 67, 40
4, 571057, Note_on_c, 0, 67, 0
4, 571172, Note_on_c, 0, 83, 0
4, 571203, Note_on_c, 0, 63, 0
4, 571247, Note_on_c, 0, 62, 0
4, 571258, Note_on_c, 0, 79, 37
4, 571394, Note_on_c, 0, 57, 0
4, 571797, Note_on_c, 0, 74, 38
4, 571803, Note_on_c, 0, 79, 0
4, 571919, Note_on_c, 0, 74, 0
4, 572182, Note_on_c, 0, 80, 64
4, 572188, Note_on_c, 0, 56, 59
4, 572592, Note_on_c, 0, 80, 0
4, 572778, Note_on_c, 0, 56, 0
4, 572789, Note_on_c, 0, 81, 61
4, 572822, Note_on_c, 0, 57, 62
4, 572992, Note_on_c, 0, 81, 0
4, 573007, Note_on_c, 0, 57, 0
4, 573145, Note_on_c, 0, 56, 34
4, 573147, Note_on_c, 0, 80, 51
4, 573594, Note_on_c, 0, 80, 0
4, 573686, Note_on_c, 0, 56, 0
4, 573771, Note_on_c, 0, 79, 64
4, 573819, Note_on_c, 0, 59, 34
4, 573823, Note_on_c, 0, 62, 39
4, 573837, Note_on_c, 0, 52, 36
4, 573979, Note_on_c, 0, 62, 0
4, 574056, Note_on_c, 0, 59, 0
4, 574086, Note_on_c, 0, 52, 0
4, 574612, Note_on_c, 0, 79, 0
4, 574687, Note_on_c, 0, 78, 55
4, 574991, Note_on_c, 0, 78, 0
4, 575121, Note_on_c, 0, 76, 46
4, 575685, Note_on_c, 0, 62, 58
4, 575689, Note_on_c, 0, 59, 44
4, 575750, Note_on_c, 0, 62, 0
4, 575843, Note_on_c, 0, 59, 0
4, 576932, Note_on_c, 0, 71, 66
4, 576963, Note_on_c, 0, 76, 0
4, 577592, Note_on_c, 0, 62, 80
4, 577607, Note_on_c, 0, 52, 68
4, 577613, Note_on_c, 0, 57, 63
4, 577630, Note_on_c, 0, 71, 0
4, 577657, Note_on_c, 0, 62, 0
4, 577674, Note_on_c, 0, 52, 0
4, 577680, Note_on_c, 0, 57, 0
4, 577872, Note_on_c, 0, 66, 60
4, 578402, Note_on_c, 0, 66, 0
4, 578511, Note_on_c, 0, 69, 74
4, 578753, Note_on_c, 0, 69, 0
4, 578795, Note_on_c, 0, 54, 43
4, 578803, Note_on_c, 0, 64, 56
4, 578856, Note_on_c, 0, 66, 61
4, 578874, Note_on_c, 0, 59, 58
4, 579108, Note_on_c, 0, 59, 0
4, 579175, Note_on_c, 0, 64, 0
4, 579351, Note_on_c, 0, 54, 0
4, 579587, Note_on_c, 0, 66, 0
4, 579832, Note_on_c, 0, 62, 43
4, 579853, Note_on_c, 0, 64, 58
4, 579869, Note_on_c, 0, 52, 28
4, 579877, Note_on_c, 0, 57, 36
4, 579921, Note_on_c, 0, 62, 0
4, 579970, Note_on_c, 0, 57, 0
4, 580024, Note_on_c, 0, 52, 0
4, 580353, Note_on_c, 0, 64, 0
4, 580770, Note_on_c, 0, 64, 57
4, 581081, Note_on_c, 0, 64, 0
4, 581725, Note_on_c, 0, 64, 64
4, 581734, Note_on_c, 0, 57, 54
4, 581750, Note_on_c, 0, 62, 59
4, 581948, Note_on_c, 0, 57, 0
4, 582021, Note_on_c, 0, 62, 0
4, 582034, Note_on_c, 0, 64, 0
4, 583682, Note_on_c, 0, 64, 53
4, 583698, Note_on_c, 0, 53, 44
4, 583702, Note_on_c, 0, 60, 54
4, 583950, Note_on_c, 0, 64, 0
4, 583953, Note_on_c, 0, 60, 0
4, 584001, Note_on_c, 0, 53, 0
4, 584652, Note_on_c, 0, 76, 96
4, 584664, Note_on_c, 0, 69, 105
4, 585166, Note_on_c, 0, 76, 0
4, 585275, Note_on_c, 0, 72, 54
4, 585340, Note_on_c, 0, 64, 63
4, 585461, Note_on_c, 0, 69, 0
4, 586112, Note_on_c, 0, 64, 0
4, 586166, Note_on_c, 0, 72, 0
4, 586275, Note_on_c, 0, 69, 74
4, 586281, Note_on_c, 0, 76, 78
4, 586344, Note_on_c, 0, 60, 35
4, 586384, Note_on_c, 0, 53, 29
4, 586436, Note_on_c, 0, 60, 0
4, 586520, Note_on_c, 0, 76, 0
4, 586557, Note_on_c, 0, 69, 0
4, 586559, Note_on_c, 0, 53, 0
4, 586653, Note_on_c, 0, 72, 42
4, 586727, Note_on_c, 0, 64, 51
4, 587540, Note_on_c, 0, 64, 0
4, 587636, Note_on_c, 0, 72, 0
4, 588438, Note_on_c, 0, 71, 77
4, 588448, Note_on_c, 0, 64, 80
4, 589046, Note_on_c, 0, 64, 0
4, 589082, Note_on_c, 0, 66, 50
4, 589098, Note_on_c, 0, 71, 0
4, 589140, Note_on_c, 0, 60, 66
4, 589772, Note_on_c, 0, 60, 0
4, 589833, Note_on_c, 0, 66, 0
4, 590006, Note_on_c, 0, 64, 65
4, 590016, Note_on_c, 0, 71, 62
4, 590064, Note_on_c, 0, 56, 32
4, 590322, Note_on_c, 0, 56, 0
4, 590337, Note_on_c, 0, 71, 0
4, 590347, Note_on_c, 0, 64, 0
4, 590358, Note_on_c, 0, 66, 35
4, 590402, Note_on_c, 0, 60, 44
4, 590671, Note_on_c, 0, 60, 0
4, 590865, Note_on_c, 0, 66, 0
4, 591310, Note_on_c, 0, 67, 46
4, 591318, Note_on_c, 0, 48, 35
4, 591345, Note_on_c, 0, 59, 37
4, 591353, Note_on_c, 0, 64, 46
4, 591389, Note_on_c, 0, 55, 26
4, 591679, Note_on_c, 0, 67, 0
4, 591692, Note_on_c, 0, 64, 0
4, 591790, Note_on_c, 0, 59, 0
4, 591810, Note_on_c, 0, 55, 0
4, 592254, Note_on_c, 0, 66, 52
4, 592288, Note_on_c, 0, 57, 44
4, 592292, Note_on_c, 0, 62, 44
4, 592690, Note_on_c, 0, 62, 0
4, 592732, Note_on_c, 0, 66, 0
4, 592805, Note_on_c, 0, 57, 0
4, 593122, Note_on_c, 0, 48, 0
4, 593227, Note_on_c, 0, 64, 53
4, 593241, Note_on_c, 0, 55, 40
4, 593277, Note_on_c, 0, 60, 40
4, 593436, Note_on_c, 0, 55, 0
4, 593549, Note_on_c, 0, 60, 0
4, 593691, Note_on_c, 0, 64, 0
4, 595172, Note_on_c, 0, 83, 89
4, 595180, Note_on_c, 0, 76, 94
4, 595199, Note_on_c, 0, 45, 60
4, 595262, Note_on_c, 0, 45, 0
4, 595568, Note_on_c, 0, 83, 0
4, 595607, Note_on_c, 0, 76, 0
4, 596154, Note_on_c, 0, 81, 66
4, 596182, Note_on_c, 0, 64, 30
4, 596198, Note_on_c, 0, 60, 30
4, 596217, Note_on_c, 0, 59, 26
4, 596234, Note_on_c, 0, 69, 26
4, 596447, Note_on_c, 0, 60, 0
4, 596507, Note_on_c, 0, 81, 0
4, 596513, Note_on_c, 0, 59, 0
4, 596524, Note_on_c, 0, 64, 0
4, 596664, Note_on_c, 0, 69, 0
4, 597130, Note_on_c, 0, 79, 51
4, 597151, Note_on_c, 0, 67, 49
4, 597153, Note_on_c, 0, 64, 31
4, 597184, Note_on_c, 0, 59, 30
4, 597213, Note_on_c, 0, 60, 32
4, 597333, Note_on_c, 0, 60, 0
4, 597371, Note_on_c, 0, 59, 0
4, 597390, Note_on_c, 0, 64, 0
4, 597480, Note_on_c, 0, 79, 0
4, 597561, Note_on_c, 0, 67, 0
4, 598089, Note_on_c, 0, 76, 62
4, 598110, Note_on_c, 0, 69, 55
4, 598133, Note_on_c, 0, 64, 33
4, 598250, Note_on_c, 0, 64, 0
4, 598476, Note_on_c, 0, 69, 0
4, 598728, Note_on_c, 0, 76, 0
4, 599039, Note_on_c, 0, 72, 40
4, 599068, Note_on_c, 0, 64, 47
4, 599074, Note_on_c, 0, 60, 28
4, 599080, Note_on_c, 0, 57, 37
4, 599089, Note_on_c, 0, 53, 26
4, 599095, Note_on_c, 0, 69, 40
4, 599300, Note_on_c, 0, 60, 0
4, 599302, Note_on_c, 0, 57, 0
4, 599327, Note_on_c, 0, 64, 0
4, 599358, Note_on_c, 0, 72, 0
4, 599379, Note_on_c, 0, 69, 0
4, 599656, Note_on_c, 0, 53, 0
4, 599996, Note_on_c, 0, 76, 55
4, 600001, Note_on_c, 0, 69, 68
4, 600003, Note_on_c, 0, 73, 36
4, 600020, Note_on_c, 0, 53, 44
4, 600022, Note_on_c, 0, 61, 51
4, 600042, Note_on_c, 0, 64, 55
4, 600276, Note_on_c, 0, 64, 0
4, 600361, Note_on_c, 0, 53, 0
4, 600384, Note_on_c, 0, 69, 0
4, 600411, Note_on_c, 0, 76, 0
4, 600428, Note_on_c, 0, 61, 0
4, 600449, Note_on_c, 0, 73, 0
4, 600993, Note_on_c, 0, 69, 49
4, 601007, Note_on_c, 0, 64, 40
4, 601024, Note_on_c, 0, 61, 37
4, 601028, Note_on_c, 0, 53, 35
4, 601191, Note_on_c, 0, 61, 0
4, 601223, Note_on_c, 0, 64, 0
4, 601370, Note_on_c, 0, 53, 0
4, 601382, Note_on_c, 0, 69, 0
4, 601934, Note_on_c, 0, 76, 65
4, 601936, Note_on_c, 0, 69, 73
4, 601957, Note_on_c, 0, 71, 58
4, 601963, Note_on_c, 0, 53, 41
4, 601974, Note_on_c, 0, 64, 32
4, 602049, Note_on_c, 0, 64, 0
4, 602193, Note_on_c, 0, 53, 0
4, 602239, Note_on_c, 0, 69, 0
4, 602243, Note_on_c, 0, 71, 0
4, 602277, Note_on_c, 0, 76, 0
4, 603811, Note_on_c, 0, 75, 76
4, 603818, Note_on_c, 0, 68, 78
4, 603820, Note_on_c, 0, 60, 58
4, 603822, Note_on_c, 0, 63, 87
4, 603824, Note_on_c, 0, 52, 53
4, 603832, Note_on_c, 0, 72, 66
4, 606046, Note_on_c, 0, 72, 0
4, 606085, Note_on_c, 0, 75, 0
4, 606230, Note_on_c, 0, 60, 0
4, 606271, Note_on_c, 0, 68, 0
4, 606314, Note_on_c, 0, 63, 0
4, 606433, Note_on_c, 0, 66, 77
4, 606436, Note_on_c, 0, 62, 82
4, 606442, Note_on_c, 0, 72, 41
4, 606456, Note_on_c, 0, 71, 58
4, 606471, Note_on_c, 0, 59, 60
4, 606651, Note_on_c, 0, 72, 0
4, 607555, Note_on_c, 0, 59, 0
4, 607594, Note_on_c, 0, 62, 0
4, 607699, Note_on_c, 0, 69, 79
4, 607719, Note_on_c, 0, 57, 68
4, 607726, Note_on_c, 0, 62, 71
4, 607808, Note_on_c, 0, 71, 0
4, 607898, Note_on_c, 0, 52, 0
4, 608773, Note_on_c, 0, 69, 0
4, 608968, Note_on_c, 0, 62, 0
4, 609006, Note_on_c, 0, 66, 0
4, 609237, Note_on_c, 0, 55, 66
4, 609241, Note_on_c, 0, 66, 62
4, 609242, Note_on_c, 0, 67, 75
4, 609254, Note_on_c, 0, 62, 74
4, 609275, Note_on_c, 0, 57, 0
4, 609465, Note_on_c, 0, 66, 0
4, 609530, Note_on_c, 0, 62, 0
4, 609535, Note_on_c, 0, 67, 0
4, 609588, Note_on_c, 0, 54, 49
4, 609628, Note_on_c, 0, 55, 0
4, 610119, Note_on_c, 0, 54, 0
4, 610263, Note_on_c, 0, 52, 68
4, 610474, Note_on_c, 0, 52, 0
4, 610559, Note_on_c, 0, 59, 80
4, 610561, Note_on_c, 0, 69, 74
4, 610565, Note_on_c, 0, 66, 62
4, 610576, Note_on_c, 0, 57, 70
4, 610578, Note_on_c, 0, 62, 80
4, 611207, Note_on_c, 0, 52, 37
4, 611209, Note_on_c, 0, 69, 0
4, 611215, Note_on_c, 0, 59, 0
4, 611264, Note_on_c, 0, 62, 0
4, 611264, Note_on_c, 0, 57, 0
4, 611281, Note_on_c, 0, 66, 0
4, 611431, Note_on_c, 0, 52, 0
4, 611534, Note_on_c, 0, 55, 65
4, 611552, Note_on_c, 0, 67, 60
4, 611554, Note_on_c, 0, 59, 62
4, 611557, Note_on_c, 0, 62, 62
4, 612223, Note_on_c, 0, 59, 0
4, 612233, Note_on_c, 0, 62, 0
4, 612353, Note_on_c, 0, 67, 0
4, 612418, Note_on_c, 0, 55, 0
4, 612438, Note_on_c, 0, 54, 54
4, 612459, Note_on_c, 0, 66, 57
4, 612484, Note_on_c, 0, 62, 64
4, 612488, Note_on_c, 0, 59, 51
4, 612635, Note_on_c, 0, 54, 0
4, 613068, Note_on_c, 0, 59, 0
4, 613110, Note_on_c, 0, 48, 74
4, 613143, Note_on_c, 0, 62, 0
4, 613274, Note_on_c, 0, 66, 0
4, 613364, Note_on_c, 0, 48, 0
4, 613458, Note_on_c, 0, 41, 68
4, 613968, Note_on_c, 0, 41, 0
4, 614033, Note_on_c, 0, 48, 32
4, 614173, Note_on_c, 0, 48, 0
4, 614400, Note_on_c, 0, 76, 80
4, 614410, Note_on_c, 0, 69, 73
4, 614412, Note_on_c, 0, 72, 62
4, 614413, Note_on_c, 0, 65, 81
4, 614475, Note_on_c, 0, 64, 62
4, 614485, Note_on_c, 0, 62, 67
4, 614742, Note_on_c, 0, 62, 0
4, 615192, Note_on_c, 0, 64, 0
4, 615214, Note_on_c, 0, 65, 0
4, 615296, Note_on_c, 0, 76, 0
4, 615332, Note_on_c, 0, 72, 0
4, 615376, Note_on_c, 0, 74, 52
4, 615396, Note_on_c, 0, 65, 48
4, 615400, Note_on_c, 0, 62, 67
4, 616068, Note_on_c, 0, 65, 0
4, 616137, Note_on_c, 0, 69, 0
4, 616249, Note_on_c, 0, 74, 0
4, 616253, Note_on_c, 0, 62, 0
4, 616315, Note_on_c, 0, 60, 47
4, 616344, Note_on_c, 0, 72, 44
4, 616346, Note_on_c, 0, 65, 50
4, 616350, Note_on_c, 0, 69, 50
4, 616521, Note_on_c, 0, 65, 0
4, 616654, Note_on_c, 0, 60, 0
4, 616663, Note_on_c, 0, 69, 0
4, 616765, Note_on_c, 0, 72, 0
4, 617292, Note_on_c, 0, 45, 76
4, 617742, Note_on_c, 0, 45, 0
4, 618241, Note_on_c, 0, 83, 84
4, 618247, Note_on_c, 0, 76, 92
4, 618880, Note_on_c, 0, 76, 0
4, 618943, Note_on_c, 0, 83, 0
4, 619191, Note_on_c, 0, 78, 48
4, 619193, Note_on_c, 0, 72, 50
4, 619787, Note_on_c, 0, 72, 0
4, 619868, Note_on_c, 0, 78, 0
4, 620116, Note_on_c, 0, 67, 38
4, 620154, Note_on_c, 0, 62, 33
4, 620160, Note_on_c, 0, 75, 53
4, 620166, Note_on_c, 0, 63, 33
4, 620169, Note_on_c, 0, 71, 51
4, 620457, Note_on_c, 0, 67, 0
4, 620472, Note_on_c, 0, 62, 0
4, 620474, Note_on_c, 0, 63, 0
4, 620574, Note_on_c, 0, 71, 0
4, 620649, Note_on_c, 0, 75, 0
4, 621117, Note_on_c, 0, 83, 69
4, 621606, Note_on_c, 0, 83, 0
4, 622053, Note_on_c, 0, 79, 49
4, 622063, Note_on_c, 0, 48, 36
4, 622080, Note_on_c, 0, 76, 49
4, 622109, Note_on_c, 0, 55, 28
4, 622473, Note_on_c, 0, 48, 0
4, 622477, Note_on_c, 0, 79, 0
4, 622498, Note_on_c, 0, 76, 0
4, 622590, Note_on_c, 0, 55, 0
4, 623001, Note_on_c, 0, 78, 39
4, 623036, Note_on_c, 0, 72, 34
4, 623357, Note_on_c, 0, 72, 0
4, 623539, Note_on_c, 0, 78, 0
4, 623714, Note_on_c, 0, 76, 37
4, 623922, Note_on_c, 0, 76, 0
4, 624683, Note_on_c, 0, 48, 58
4, 624796, Note_on_c, 0, 48, 0
4, 625945, Note_on_c, 0, 60, 37
4, 625951, Note_on_c, 0, 64, 29
4, 625970, Note_on_c, 0, 59, 28
4, 626060, Note_on_c, 0, 60, 0
4, 626070, Note_on_c, 0, 59, 0
4, 626107, Note_on_c, 0, 64, 0
4, 626921, Note_on_c, 0, 90, 77
4, 627088, Note_on_c, 0, 90, 0
4, 627108, Note_on_c, 0, 91, 53
4, 627329, Note_on_c, 0, 90, 52
4, 627392, Note_on_c, 0, 91, 0
4, 627617, Note_on_c, 0, 90, 0
4, 627619, Note_on_c, 0, 88, 54
4, 627795, Note_on_c, 0, 88, 0
4, 627974, Note_on_c, 0, 86, 72
4, 628529, Note_on_c, 0, 86, 0
4, 628559, Note_on_c, 0, 83, 66
4, 628810, Note_on_c, 0, 83, 0
4, 629082, Note_on_c, 0, 86, 76
4, 629461, Note_on_c, 0, 86, 0
4, 629564, Note_on_c, 0, 84, 80
4, 629591, Note_on_c, 0, 64, 37
4, 629647, Note_on_c, 0, 53, 24
4, 629651, Note_on_c, 0, 57, 49
4, 629672, Note_on_c, 0, 60, 26
4, 629724, Note_on_c, 0, 64, 0
4, 629789, Note_on_c, 0, 53, 0
4, 629841, Note_on_c, 0, 84, 0
4, 629862, Note_on_c, 0, 57, 0
4, 629879, Note_on_c, 0, 60, 0
4, 630056, Note_on_c, 0, 81, 44
4, 630412, Note_on_c, 0, 81, 0
4, 630696, Note_on_c, 0, 76, 62
4, 631288, Note_on_c, 0, 76, 0
4, 631402, Note_on_c, 0, 72, 57
4, 631421, Note_on_c, 0, 57, 47
4, 631424, Note_on_c, 0, 60, 34
4, 631601, Note_on_c, 0, 60, 0
4, 631676, Note_on_c, 0, 57, 0
4, 631701, Note_on_c, 0, 72, 0
4, 631882, Note_on_c, 0, 69, 53
4, 632545, Note_on_c, 0, 69, 0
4, 633641, Note_on_c, 0, 68, 78
4, 634115, Note_on_c, 0, 68, 0
4, 634217, Note_on_c, 0, 69, 80
4, 634370, Note_on_c, 0, 52, 20
4, 634462, Note_on_c, 0, 52, 0
4, 634501, Note_on_c, 0, 69, 0
4, 634641, Note_on_c, 0, 68, 48
4, 634948, Note_on_c, 0, 68, 0
4, 636422, Note_on_c, 0, 67, 110
4, 637109, Note_on_c, 0, 69, 71
4, 637180, Note_on_c, 0, 67, 0
4, 637352, Note_on_c, 0, 69, 0
4, 637546, Note_on_c, 0, 67, 39
4, 638097, Note_on_c, 0, 67, 0
4, 638101, Note_on_c, 0, 62, 60
4, 638170, Note_on_c, 0, 62, 0
4, 638383, Note_on_c, 0, 66, 84
4, 638869, Note_on_c, 0, 66, 0
4, 639038, Note_on_c, 0, 67, 80
4, 639120, Note_on_c, 0, 57, 30
4, 639141, Note_on_c, 0, 52, 29
4, 639193, Note_on_c, 0, 57, 0
4, 639244, Note_on_c, 0, 52, 0
4, 639273, Note_on_c, 0, 67, 0
4, 639381, Note_on_c, 0, 66, 47
4, 639948, Note_on_c, 0, 66, 0
4, 640000, Note_on_c, 0, 64, 62
4, 640169, Note_on_c, 0, 64, 0
4, 640342, Note_on_c, 0, 62, 38
4, 640934, Note_on_c, 0, 52, 36
4, 641167, Note_on_c, 0, 62, 0
4, 641197, Note_on_c, 0, 52, 0
4, 641272, Note_on_c, 0, 55, 52
4, 641280, Note_on_c, 0, 55, 0
4, 641328, Note_on_c, 0, 83, 80
4, 641333, Note_on_c, 0, 71, 77
4, 641335, Note_on_c, 0, 60, 64
4, 641339, Note_on_c, 0, 76, 66
4, 641343, Note_on_c, 0, 59, 67
4, 641345, Note_on_c, 0, 79, 62
4, 641351, Note_on_c, 0, 64, 65
4, 643344, Control_c, 0, 64, 127
4, 643517, Note_on_c, 0, 59, 0
4, 643582, Note_on_c, 0, 60, 0
4, 643716, Note_on_c, 0, 64, 0
4, 643718, Note_on_c, 0, 83, 0
4, 643724, Note_on_c, 0, 71, 0
4, 643749, Note_on_c, 0, 79, 0
4, 643751, Note_on_c, 0, 76, 0
4, 643943, Control_c, 0, 64, 0
4, 644154, Note_on_c, 0, 83, 74
4, 644158, Note_on_c, 0, 76, 74
4, 644160, Note_on_c, 0, 79, 66
4, 644162, Note_on_c, 0, 71, 78
4, 644177, Note_on_c, 0, 60, 60
4, 644191, Note_on_c, 0, 64, 68
4, 644197, Note_on_c, 0, 53, 57
4, 644198, Note_on_c, 0, 57, 66
4, 645158, Control_c, 0, 64, 127
4, 646277, Note_on_c, 0, 83, 0
4, 646302, Note_on_c, 0, 64, 0
4, 646319, Note_on_c, 0, 79, 0
4, 646381, Note_on_c, 0, 60, 0
4, 646444, Note_on_c, 0, 57, 0
4, 646457, Note_on_c, 0, 76, 0
4, 646486, Note_on_c, 0, 53, 0
4, 646692, Note_on_c, 0, 71, 0
4, 647043, Control_c, 0, 64, 0
4, 647074, Note_on_c, 0, 71, 90
4, 647642, Note_on_c, 0, 71, 0
4, 647669, Note_on_c, 0, 72, 71
4, 647896, Note_on_c, 0, 72, 0
4, 648011, Note_on_c, 0, 76, 62
4, 648545, Note_on_c, 0, 76, 0
4, 648666, Note_on_c, 0, 79, 67
4, 648714, Note_on_c, 0, 43, 58
4, 648716, Note_on_c, 0, 45, 64
4, 648801, Note_on_c, 0, 79, 0
4, 648820, Note_on_c, 0, 43, 0
4, 648876, Note_on_c, 0, 45, 0
4, 649045, Note_on_c, 0, 82, 71
4, 649053, Note_on_c, 0, 70, 71
4, 649116, Note_on_c, 0, 70, 0
4, 649331, Note_on_c, 0, 82, 0
4, 649417, Note_on_c, 0, 83, 29
4, 649511, Note_on_c, 0, 72, 17
4, 649513, Note_on_c, 0, 83, 0
4, 649684, Note_on_c, 0, 83, 46
4, 649688, Note_on_c, 0, 72, 0
4, 649846, Note_on_c, 0, 72, 55
4, 649871, Note_on_c, 0, 83, 0
4, 650071, Note_on_c, 0, 72, 0
4, 650082, Note_on_c, 0, 83, 33
4, 650244, Note_on_c, 0, 72, 41
4, 650261, Note_on_c, 0, 83, 0
4, 650497, Note_on_c, 0, 72, 0
4, 650499, Note_on_c, 0, 83, 55
4, 650618, Note_on_c, 0, 57, 52
4, 650629, Note_on_c, 0, 64, 40
4, 650695, Note_on_c, 0, 72, 39
4, 650706, Note_on_c, 0, 83, 0
4, 650712, Note_on_c, 0, 64, 0
4, 650783, Note_on_c, 0, 57, 0
4, 650910, Note_on_c, 0, 72, 0
4, 650934, Note_on_c, 0, 83, 34
4, 651126, Note_on_c, 0, 83, 0
4, 651145, Note_on_c, 0, 72, 18
4, 651375, Note_on_c, 0, 72, 0
4, 651387, Note_on_c, 0, 83, 39
4, 651586, Note_on_c, 0, 72, 12
4, 651609, Note_on_c, 0, 83, 0
4, 651719, Note_on_c, 0, 72, 0
4, 651860, Note_on_c, 0, 83, 57
4, 651870, Note_on_c, 0, 71, 64
4, 651893, Note_on_c, 0, 64, 49
4, 651916, Note_on_c, 0, 53, 40
4, 651937, Note_on_c, 0, 60, 46
4, 651954, Note_on_c, 0, 57, 55
4, 652360, Note_on_c, 0, 83, 0
4, 652400, Note_on_c, 0, 60, 0
4, 652425, Note_on_c, 0, 71, 0
4, 652433, Note_on_c, 0, 57, 0
4, 652435, Note_on_c, 0, 64, 0
4, 652498, Note_on_c, 0, 53, 0
4, 654693, Note_on_c, 0, 69, 110
4, 655292, Note_on_c, 0, 69, 0
4, 655410, Note_on_c, 0, 69, 78
4, 655628, Note_on_c, 0, 69, 0
4, 655749, Note_on_c, 0, 76, 91
4, 656633, Note_on_c, 0, 69, 62
4, 656656, Note_on_c, 0, 57, 37
4, 656664, Note_on_c, 0, 60, 29
4, 656681, Note_on_c, 0, 50, 26
4, 656704, Note_on_c, 0, 76, 0
4, 658126, Note_on_c, 0, 69, 0
4, 658563, Note_on_c, 0, 69, 101
4, 658711, Note_on_c, 0, 50, 0
4, 658715, Note_on_c, 0, 60, 0
4, 658806, Note_on_c, 0, 57, 0
4, 659002, Note_on_c, 0, 69, 0
4, 659198, Note_on_c, 0, 69, 32
4, 659393, Note_on_c, 0, 69, 0
4, 659511, Note_on_c, 0, 76, 89
4, 660155, Note_on_c, 0, 76, 0
4, 660171, Note_on_c, 0, 73, 58
4, 660213, Note_on_c, 0, 59, 46
4, 660249, Note_on_c, 0, 53, 41
4, 660263, Note_on_c, 0, 64, 32
4, 662299, Note_on_c, 0, 73, 0
4, 662383, Note_on_c, 0, 74, 62
4, 663158, Note_on_c, 0, 74, 0
4, 663200, Note_on_c, 0, 64, 0
4, 663260, Note_on_c, 0, 59, 0
4, 663343, Note_on_c, 0, 72, 65
4, 663410, Note_on_c, 0, 53, 0
4, 664136, Note_on_c, 0, 72, 0
4, 664349, Note_on_c, 0, 71, 63
4, 664366, Note_on_c, 0, 59, 35
4, 664387, Note_on_c, 0, 48, 32
4, 664414, Note_on_c, 0, 55, 40
4, 665691, Control_c, 0, 64, 127
4, 666218, Note_on_c, 0, 64, 72
4, 666309, Note_on_c, 0, 59, 0
4, 666355, Note_on_c, 0, 55, 0
4, 666464, Note_on_c, 0, 48, 0
4, 667409, Note_on_c, 0, 64, 0
4, 668092, Note_on_c, 0, 71, 0
4, 668113, Control_c, 0, 64, 0
4, 668133, Note_on_c, 0, 59, 71
4, 668144, Note_on_c, 0, 67, 62
4, 668154, Note_on_c, 0, 63, 52
4, 668183, Note_on_c, 0, 41, 62
4, 669169, Control_c, 0, 64, 127
4, 669505, Note_on_c, 0, 59, 0
4, 669657, Note_on_c, 0, 41, 0
4, 669785, Note_on_c, 0, 67, 0
4, 669797, Note_on_c, 0, 63, 0
4, 671039, Control_c, 0, 64, 0
4, 671047, Note_on_c, 0, 59, 58
4, 671068, Note_on_c, 0, 71, 80
4, 671239, Note_on_c, 0, 59, 0
4, 671309, Note_on_c, 0, 71, 0
4, 672021, Note_on_c, 0, 76, 105
4, 672023, Note_on_c, 0, 64, 73
4, 672213, Control_c, 0, 64, 127
4, 672623, Note_on_c, 0, 64, 0
4, 672853, Note_on_c, 0, 76, 0
4, 673965, Control_c, 0, 64, 0
4, 673970, Note_on_c, 0, 40, 50
4, 673997, Note_on_c, 0, 66, 45
4, 674013, Note_on_c, 0, 28, 39
4, 674015, Note_on_c, 0, 62, 54
4, 674045, Note_on_c, 0, 57, 24
4, 674462, Control_c, 0, 64, 127
4, 674679, Note_on_c, 0, 62, 0
4, 674681, Note_on_c, 0, 28, 0
4, 674729, Note_on_c, 0, 66, 0
4, 674844, Note_on_c, 0, 40, 0
4, 674861, Note_on_c, 0, 57, 0
4, 675465, Control_c, 0, 64, 0
4, 675502, Note_on_c, 0, 64, 48
4, 675504, Note_on_c, 0, 52, 43
4, 675506, Note_on_c, 0, 41, 45
4, 675509, Note_on_c, 0, 57, 52
4, 675523, Note_on_c, 0, 60, 44
4, 675534, Note_on_c, 0, 29, 34
4, 675646, Note_on_c, 0, 52, 0
4, 675694, Note_on_c, 0, 29, 0
4, 675724, Note_on_c, 0, 57, 0
4, 675761, Note_on_c, 0, 60, 0
4, 675772, Control_c, 0, 64, 127
4, 675805, Note_on_c, 0, 41, 0
4, 675832, Control_c, 0, 64, 0
4, 675845, Note_on_c, 0, 64, 0
4, 676391, Note_on_c, 0, 51, 45
4, 676393, Note_on_c, 0, 63, 62
4, 676621, Note_on_c, 0, 51, 0
4, 676637, Note_on_c, 0, 63, 0
4, 676824, Note_on_c, 0, 64, 52
4, 677153, Note_on_c, 0, 64, 0
4, 677343, Note_on_c, 0, 76, 75
4, 677353, Note_on_c, 0, 64, 44
4, 677571, Note_on_c, 0, 64, 0
4, 677581, Note_on_c, 0, 76, 0
4, 677723, Note_on_c, 0, 63, 49
4, 677740, Note_on_c, 0, 75, 70
4, 677990, Note_on_c, 0, 63, 0
4, 678096, Note_on_c, 0, 75, 0
4, 678599, Note_on_c, 0, 72, 68
4, 678616, Note_on_c, 0, 60, 43
4, 678706, Note_on_c, 0, 60, 0
4, 678789, Note_on_c, 0, 72, 0
4, 679539, Note_on_c, 0, 66, 49
4, 679547, Note_on_c, 0, 71, 57
4, 679591, Note_on_c, 0, 60, 35
4, 679595, Note_on_c, 0, 57, 37
4, 679597, Note_on_c, 0, 47, 35
4, 679599, Note_on_c, 0, 64, 53
4, 680946, Note_on_c, 0, 64, 0
4, 681080, Note_on_c, 0, 66, 0
4, 681168, Note_on_c, 0, 60, 0
4, 681209, Note_on_c, 0, 57, 0
4, 681522, Note_on_c, 0, 66, 28
4, 681562, Note_on_c, 0, 64, 57
4, 681564, Note_on_c, 0, 57, 41
4, 681571, Note_on_c, 0, 60, 32
4, 682204, Control_c, 0, 64, 127
4, 682519, Note_on_c, 0, 47, 0
4, 682609, Note_on_c, 0, 60, 0
4, 682636, Note_on_c, 0, 71, 0
4, 682709, Note_on_c, 0, 57, 0
4, 682730, Note_on_c, 0, 66, 0
4, 682738, Note_on_c, 0, 64, 0
4, 683144, Control_c, 0, 64, 0
4, 683152, Note_on_c, 0, 66, 46
4, 683167, Note_on_c, 0, 64, 64
4, 683179, Note_on_c, 0, 59, 56
4, 683209, Note_on_c, 0, 48, 47
4, 683211, Note_on_c, 0, 55, 51
4, 684643, Control_c, 0, 64, 127
4, 685793, Note_on_c, 0, 48, 0
4, 685847, Note_on_c, 0, 55, 0
4, 686019, Note_on_c, 0, 47, 69
4, 686088, Control_c, 0, 64, 0
4, 686569, Control_c, 0, 64, 127
4, 687037, Note_on_c, 0, 47, 0
4, 687170, Note_on_c, 0, 59, 0
4, 687185, Control_c, 0, 64, 0
4, 687283, Note_on_c, 0, 64, 0
4, 687329, Note_on_c, 0, 66, 0
4, 687333, Note_on_c, 0, 45, 58
4, 687972, Note_on_c, 0, 71, 80
4, 687974, Note_on_c, 0, 64, 82
4, 687982, Note_on_c, 0, 60, 79
4, 687995, Note_on_c, 0, 55, 63
4, 689022, Note_on_c, 0, 55, 0
4, 689043, Note_on_c, 0, 60, 0
4, 689145, Note_on_c, 0, 71, 0
4, 689166, Note_on_c, 0, 64, 0
4, 689253, Note_on_c, 0, 69, 60
4, 689265, Note_on_c, 0, 53, 52
4, 689267, Note_on_c, 0, 64, 27
4, 689292, Note_on_c, 0, 60, 29
4, 689384, Note_on_c, 0, 60, 0
4, 689409, Note_on_c, 0, 64, 0
4, 689419, Note_on_c, 0, 45, 0
4, 689432, Note_on_c, 0, 53, 0
4, 689453, Note_on_c, 0, 69, 0
4, 690139, Note_on_c, 0, 67, 63
4, 690141, Note_on_c, 0, 53, 51
4, 690162, Note_on_c, 0, 64, 54
4, 690183, Note_on_c, 0, 60, 35
4, 690233, Note_on_c, 0, 67, 0
4, 690247, Note_on_c, 0, 64, 0
4, 690273, Note_on_c, 0, 60, 0
4, 690343, Note_on_c, 0, 53, 0
4, 691144, Note_on_c, 0, 64, 51
4, 691150, Note_on_c, 0, 57, 43
4, 691160, Note_on_c, 0, 60, 40
4, 691165, Note_on_c, 0, 48, 33
4, 691173, Note_on_c, 0, 41, 36
4, 691420, Control_c, 0, 64, 127
4, 692106, Note_on_c, 0, 60, 0
4, 692219, Note_on_c, 0, 57, 0
4, 692296, Note_on_c, 0, 64, 0
4, 693110, Control_c, 0, 64, 0
4, 693133, Note_on_c, 0, 64, 61
4, 693141, Note_on_c, 0, 57, 47
4, 693156, Note_on_c, 0, 69, 52
4, 693197, Note_on_c, 0, 53, 34
4, 693442, Control_c, 0, 64, 127
4, 693712, Note_on_c, 0, 53, 0
4, 693720, Note_on_c, 0, 57, 0
4, 693791, Note_on_c, 0, 48, 0
4, 693972, Note_on_c, 0, 64, 0
4, 694020, Note_on_c, 0, 41, 0
4, 694098, Note_on_c, 0, 69, 0
4, 695057, Control_c, 0, 64, 0
4, 695059, Note_on_c, 0, 68, 97
4, 695063, Note_on_c, 0, 40, 68
4, 695083, Note_on_c, 0, 28, 66
4, 695285, Note_on_c, 0, 68, 0
4, 695294, Note_on_c, 0, 69, 50
4, 695663, Note_on_c, 0, 68, 49
4, 695667, Note_on_c, 0, 69, 0
4, 695921, Note_on_c, 0, 68, 0
4, 695923, Note_on_c, 0, 28, 0
4, 695996, Note_on_c, 0, 40, 0
4, 697920, Note_on_c, 0, 54, 26
4, 697922, Note_on_c, 0, 40, 32
4, 697928, Note_on_c, 0, 64, 36
4, 697939, Note_on_c, 0, 28, 32
4, 697953, Note_on_c, 0, 59, 39
4, 699039, Control_c, 0, 64, 127
4, 699409, Note_on_c, 0, 54, 0
4, 699644, Note_on_c, 0, 59, 0
4, 699767, Note_on_c, 0, 64, 0
4, 699993, Note_on_c, 0, 28, 0
4, 700195, Note_on_c, 0, 40, 0
4, 700784, Note_on_c, 0, 71, 41
4, 700992, Note_on_c, 0, 71, 0
4, 701348, Note_on_c, 0, 76, 85
4, 701543, Note_on_c, 0, 76, 0
4, 701737, Note_on_c, 0, 78, 85
4, 702110, Note_on_c, 0, 78, 0
4, 702260, Note_on_c, 0, 79, 76
4, 702598, Note_on_c, 0, 79, 0
4, 702717, Control_c, 0, 64, 0
4, 702736, Note_on_c, 0, 78, 40
4, 702740, Note_on_c, 0, 52, 41
4, 703213, Control_c, 0, 64, 127
4, 703609, Note_on_c, 0, 78, 0
4, 705174, Note_on_c, 0, 52, 0
4, 705543, Note_on_c, 0, 68, 46
4, 705551, Note_on_c, 0, 64, 55
4, 705581, Control_c, 0, 64, 0
4, 705620, Note_on_c, 0, 52, 39
4, 705639, Note_on_c, 0, 59, 37
4, 706084, Control_c, 0, 64, 127
4, 706658, Note_on_c, 0, 59, 0
4, 706715, Note_on_c, 0, 52, 0
4, 707002, Note_on_c, 0, 64, 0
4, 707203, Note_on_c, 0, 68, 0
4, 708986, Note_on_c, 0, 40, 51
4, 709184, Note_on_c, 0, 40, 0
4, 709259, Control_c, 0, 64, 0
4, 709386, Note_on_c, 0, 28, 44
4, 710047, Control_c, 0, 64, 127
4, 710260, Control_c, 0, 64, 0
4, 710364, Note_on_c, 0, 68, 56
4, 710369, Note_on_c, 0, 56, 60
4, 710388, Note_on_c, 0, 63, 45
4, 710400, Note_on_c, 0, 60, 55
4, 710410, Note_on_c, 0, 40, 44
4, 710946, Note_on_c, 0, 40, 0
4, 711009, Note_on_c, 0, 60, 0
4, 711024, Note_on_c, 0, 56, 0
4, 711034, Note_on_c, 0, 68, 0
4, 711082, Note_on_c, 0, 28, 0
4, 711088, Note_on_c, 0, 63, 0
4, 712276, Note_on_c, 0, 28, 39
4, 712427, Note_on_c, 0, 28, 0
4, 713215, Note_on_c, 0, 54, 35
4, 713238, Note_on_c, 0, 64, 49
4, 713250, Note_on_c, 0, 59, 50
4, 713259, Note_on_c, 0, 28, 44
4, 713271, Note_on_c, 0, 40, 29
4, 714167, Control_c, 0, 64, 127
4, 716905, Note_on_c, 0, 28, 0
4, 717020, Note_on_c, 0, 59, 0
4, 717081, Note_on_c, 0, 28, 45
4, 717095, Note_on_c, 0, 54, 0
4, 717404, Note_on_c, 0, 40, 0
4, 717995, Control_c, 0, 64, 0
4, 718059, Note_on_c, 0, 53, 34
4, 718089, Note_on_c, 0, 57, 49
4, 718093, Note_on_c, 0, 40, 44
4, 718122, Note_on_c, 0, 60, 38
4, 718318, Note_on_c, 0, 57, 0
4, 718323, Note_on_c, 0, 40, 0
4, 718350, Note_on_c, 0, 60, 0
4, 718385, Note_on_c, 0, 53, 0
4, 719736, Note_on_c, 0, 53, 55
4, 719773, Note_on_c, 0, 40, 37
4, 719804, Note_on_c, 0, 60, 33
4, 719861, Note_on_c, 0, 53, 0
4, 719896, Note_on_c, 0, 40, 0
4, 719905, Note_on_c, 0, 60, 0
4, 720728, Note_on_c, 0, 64, 0
4, 720948, Note_on_c, 0, 59, 45
4, 720952, Note_on_c, 0, 56, 31
4, 720956, Note_on_c, 0, 40, 37
4, 720971, Note_on_c, 0, 52, 37
4, 722170, Control_c, 0, 64, 127
4, 722745, Note_on_c, 0, 52, 0
4, 722937, Note_on_c, 0, 59, 0
4, 722945, Note_on_c, 0, 56, 0
4, 722986, Note_on_c, 0, 28, 0
4, 723220, Note_on_c, 0, 40, 0
4, 724049, Note_on_c, 0, 59, 34
4, 724587, Note_on_c, 0, 64, 30
4, 724933, Note_on_c, 0, 71, 50
4, 725139, Note_on_c, 0, 71, 0
4, 725210, Note_on_c, 0, 76, 61
4, 725484, Note_on_c, 0, 76, 0
4, 725507, Note_on_c, 0, 78, 46
4, 725636, Note_on_c, 0, 78, 0
4, 725798, Note_on_c, 0, 81, 33
4, 725953, Note_on_c, 0, 81, 0
4, 726072, Note_on_c, 0, 88, 68
4, 726375, Note_on_c, 0, 90, 57
4, 726407, Note_on_c, 0, 88, 0
4, 726561, Note_on_c, 0, 90, 0
4, 726651, Note_on_c, 0, 93, 68
4, 726897, Note_on_c, 0, 93, 0
4, 726945, Note_on_c, 0, 90, 58
4, 728263, Note_on_c, 0, 90, 0
4, 728267, Note_on_c, 0, 88, 43
4, 728530, Note_on_c, 0, 88, 0
4, 728540, Note_on_c, 0, 90, 52
4, 728749, Note_on_c, 0, 90, 0
4, 728878, Note_on_c, 0, 93, 66
4, 729097, Note_on_c, 0, 93, 0
4, 729583, Note_on_c, 0, 98, 61
4, 729792, Note_on_c, 0, 98, 0
4, 729883, Note_on_c, 0, 100, 51
4, 730142, Note_on_c, 0, 100, 0
4, 730213, Note_on_c, 0, 102, 53
4, 730452, Note_on_c, 0, 102, 0
4, 730479, Note_on_c, 0, 103, 54
4, 730780, Note_on_c, 0, 103, 0
4, 730796, Note_on_c, 0, 105, 66
4, 730818, Note_on_c, 0, 64, 0
4, 731055, Note_on_c, 0, 105, 0
4, 731102, Note_on_c, 0, 102, 54
4, 731339, Note_on_c, 0, 102, 0
4, 731434, Note_on_c, 0, 103, 56
4, 731463, Note_on_c, 0, 52, 37
4, 731777, Note_on_c, 0, 59, 0
4, 732356, Note_on_c, 0, 103, 0
4, 733008, Note_on_c, 0, 52, 0
4, 733756, Control_c, 0, 64, 0
4, 733756, End_track
5, 0, Start_track
5, 0, Title_t, "Bass"
5, 0, Program_c, 1, 32
5, 0, Control_c, 1, 7, 127
5, 213126, Note_on_c, 1, 40, 81
5, 213576, Note_on_c, 1, 40, 0
5, 214691, Note_on_c, 1, 41, 92
5, 218931, Note_on_c, 1, 35, 74
5, 218960, Note_on_c, 1, 41, 0
5, 220825, Note_on_c, 1, 35, 0
5, 220852, Note_on_c, 1, 47, 78
5, 222098, Note_on_c, 1, 47, 0
5, 222283, Note_on_c, 1, 48, 77
5, 225536, Note_on_c, 1, 47, 68
5, 225551, Note_on_c, 1, 48, 0
5, 226136, Note_on_c, 1, 47, 0
5, 227162, Note_on_c, 1, 45, 88
5, 228538, Note_on_c, 1, 33, 40
5, 228778, Note_on_c, 1, 33, 0
5, 229386, Note_on_c, 1, 45, 0
5, 229417, Note_on_c, 1, 33, 64
5, 229792, Note_on_c, 1, 33, 0
5, 230416, Note_on_c, 1, 29, 72
5, 232232, Note_on_c, 1, 29, 0
5, 232368, Note_on_c, 1, 29, 64
5, 233791, Note_on_c, 1, 29, 0
5, 233866, Note_on_c, 1, 28, 81
5, 240035, Note_on_c, 1, 35, 72
5, 241569, Note_on_c, 1, 40, 90
5, 241660, Note_on_c, 1, 28, 0
5, 241677, Note_on_c, 1, 35, 0
5, 243322, Note_on_c, 1, 40, 0
5, 243868, Note_on_c, 1, 40, 82
5, 244572, Note_on_c, 1, 40, 0
5, 245371, Note_on_c, 1, 41, 92
5, 249620, Note_on_c, 1, 41, 0
5, 249637, Note_on_c, 1, 35, 72
5, 252373, Note_on_c, 1, 35, 0
5, 252479, Note_on_c, 1, 36, 83
5, 255729, Note_on_c, 1, 36, 0
5, 255898, Note_on_c, 1, 35, 75
5, 256086, Note_on_c, 1, 35, 0
5, 256326, Note_on_c, 1, 31, 66
5, 256528, Note_on_c, 1, 31, 0
5, 256927, Note_on_c, 1, 33, 87
5, 258688, Note_on_c, 1, 33, 0
5, 258814, Note_on_c, 1, 33, 72
5, 259100, Note_on_c, 1, 33, 0
5, 259260, Note_on_c, 1, 33, 74
5, 259625, Note_on_c, 1, 33, 0
5, 260205, Note_on_c, 1, 29, 80
5, 263040, Note_on_c, 1, 29, 0
5, 263044, Note_on_c, 1, 41, 83
5, 264780, Note_on_c, 1, 41, 0
5, 264947, Note_on_c, 1, 40, 77
5, 265176, Note_on_c, 1, 40, 0
5, 267881, Note_on_c, 1, 28, 81
5, 270446, Note_on_c, 1, 28, 0
5, 270795, Note_on_c, 1, 28, 63
5, 271298, Note_on_c, 1, 35, 50
5, 271341, Note_on_c, 1, 28, 0
5, 271521, Note_on_c, 1, 35, 0
5, 271700, Note_on_c, 1, 40, 49
5, 272039, Note_on_c, 1, 40, 0
5, 272250, Note_on_c, 1, 32, 55
5, 272450, Note_on_c, 1, 32, 0
5, 272641, Note_on_c, 1, 33, 69
5, 275434, Note_on_c, 1, 33, 0
5, 275478, Note_on_c, 1, 41, 91
5, 278885, Note_on_c, 1, 36, 57
5, 278931, Note_on_c, 1, 41, 0
5, 279145, Note_on_c, 1, 36, 0
5, 279314, Note_on_c, 1, 31, 58
5, 280243, Note_on_c, 1, 31, 0
5, 280336, Note_on_c, 1, 33, 69
5, 282768, Note_on_c, 1, 33, 0
5, 282780, Note_on_c, 1, 40, 53
5, 282876, Note_on_c, 1, 40, 0
5, 283221, Note_on_c, 1, 41, 90
5, 284748, Note_on_c, 1, 36, 61
5, 284898, Note_on_c, 1, 36, 0
5, 285196, Note_on_c, 1, 29, 74
5, 285197, Note_on_c, 1, 41, 0
5, 287575, Note_on_c, 1, 29, 0
5, 287603, Note_on_c, 1, 40, 66
5, 287851, Note_on_c, 1, 40, 0
5, 287991, Note_on_c, 1, 38, 74
5, 290406, Note_on_c, 1, 33, 58
5, 290447, Note_on_c, 1, 38, 0
5, 290625, Note_on_c, 1, 33, 0
5, 290794, Note_on_c, 1, 29, 61
5, 291683, Note_on_c, 1, 29, 0
5, 291800, Note_on_c, 1, 31, 64
5, 293822, Note_on_c, 1, 43, 80
5, 293980, Note_on_c, 1, 31, 0
5, 295692, Note_on_c, 1, 43, 0
5, 295734, Note_on_c, 1, 36, 78
5, 296606, Note_on_c, 1, 36, 0
5, 296733, Note_on_c, 1, 36, 51
5, 298461, Note_on_c, 1, 36, 0
5, 298503, Note_on_c, 1, 29, 85
5, 301930, Note_on_c, 1, 36, 54
5, 302139, Note_on_c, 1, 36, 0
5, 302249, Note_on_c, 1, 29, 0
5, 302362, Note_on_c, 1, 38, 68
5, 302566, Note_on_c, 1, 38, 0
5, 303353, Note_on_c, 1, 40, 73
5, 304730, Note_on_c, 1, 40, 0
5, 305288, Note_on_c, 1, 28, 74
5, 306753, Note_on_c, 1, 28, 0
5, 306820, Note_on_c, 1, 29, 71
5, 311667, Note_on_c, 1, 35, 70
5, 311718, Note_on_c, 1, 29, 0
5, 312179, Note_on_c, 1, 35, 0
5, 312386, Note_on_c, 1, 35, 72
5, 312947, Note_on_c, 1, 35, 0
5, 313084, Note_on_c, 1, 35, 78
5, 314531, Note_on_c, 1, 36, 79
5, 314541, Note_on_c, 1, 35, 0
5, 315000, Note_on_c, 1, 36, 0
5, 315463, Note_on_c, 1, 36, 73
5, 315766, Note_on_c, 1, 36, 0
5, 315908, Note_on_c, 1, 36, 68
5, 317605, Note_on_c, 1, 36, 0
5, 317665, Note_on_c, 1, 35, 71
5, 318187, Note_on_c, 1, 35, 0
5, 318638, Note_on_c, 1, 33, 74
5, 322173, Note_on_c, 1, 43, 67
5, 322215, Note_on_c, 1, 33, 0
5, 322561, Note_on_c, 1, 43, 0
5, 322634, Note_on_c, 1, 41, 77
5, 324531, Note_on_c, 1, 29, 69
5, 324534, Note_on_c, 1, 41, 0
5, 326111, Note_on_c, 1, 29, 0
5, 326333, Note_on_c, 1, 28, 80
5, 326913, Note_on_c, 1, 28, 0
5, 327877, Note_on_c, 1, 28, 70
5, 328374, Note_on_c, 1, 28, 0
5, 329238, Note_on_c, 1, 28, 77
5, 332130, Note_on_c, 1, 35, 61
5, 332187, Note_on_c, 1, 28, 0
5, 332693, Note_on_c, 1, 38, 51
5, 332922, Note_on_c, 1, 38, 0
5, 333101, Note_on_c, 1, 41, 70
5, 333153, Note_on_c, 1, 35, 0
5, 333627, Note_on_c, 1, 41, 0
5, 333675, Note_on_c, 1, 39, 42
5, 334008, Note_on_c, 1, 39, 0
5, 334098, Note_on_c, 1, 40, 54
5, 335621, Note_on_c, 1, 51, 61
5, 335862, Note_on_c, 1, 40, 0
5, 335864, Note_on_c, 1, 51, 0
5, 336010, Note_on_c, 1, 52, 60
5, 337529, Note_on_c, 1, 40, 33
5, 337696, Note_on_c, 1, 52, 0
5, 337719, Note_on_c, 1, 40, 0
5, 337913, Note_on_c, 1, 53, 64
5, 338422, Note_on_c, 1, 48, 51
5, 338426, Note_on_c, 1, 53, 0
5, 338591, Note_on_c, 1, 48, 0
5, 338848, Note_on_c, 1, 41, 46
5, 341797, Note_on_c, 1, 47, 57
5, 341908, Note_on_c, 1, 41, 0
5, 343676, Note_on_c, 1, 47, 0
5, 343702, Note_on_c, 1, 35, 80
5, 345577, Note_on_c, 1, 35, 0
5, 345637, Note_on_c, 1, 36, 72
5, 346127, Note_on_c, 1, 36, 0
5, 346136, Note_on_c, 1, 38, 48
5, 346428, Note_on_c, 1, 38, 0
5, 346543, Note_on_c, 1, 40, 78
5, 348039, Note_on_c, 1, 36, 61
5, 348223, Note_on_c, 1, 40, 0
5, 348261, Note_on_c, 1, 36, 0
5, 348432, Note_on_c, 1, 35, 71
5, 349344, Note_on_c, 1, 35, 0
5, 349440, Note_on_c, 1, 33, 72
5, 351304, Note_on_c, 1, 33, 0
5, 351359, Note_on_c, 1, 40, 70
5, 352839, Note_on_c, 1, 40, 0
5, 352856, Note_on_c, 1, 41, 80
5, 356876, Note_on_c, 1, 41, 0
5, 357111, Note_on_c, 1, 40, 63
5, 357236, Note_on_c, 1, 40, 0
5, 357580, Note_on_c, 1, 35, 37
5, 357825, Note_on_c, 1, 35, 0
5, 358042, Note_on_c, 1, 28, 58
5, 360548, Note_on_c, 1, 40, 53
5, 361552, Note_on_c, 1, 35, 33
5, 361688, Note_on_c, 1, 35, 0
5, 361773, Note_on_c, 1, 40, 0
5, 361934, Note_on_c, 1, 47, 66
5, 362800, Note_on_c, 1, 47, 0
5, 362854, Note_on_c, 1, 45, 58
5, 363374, Note_on_c, 1, 45, 0
5, 363416, Note_on_c, 1, 43, 38
5, 363710, Note_on_c, 1, 43, 0
5, 363862, Note_on_c, 1, 42, 46
5, 363881, Note_on_c, 1, 28, 0
5, 364714, Note_on_c, 1, 42, 0
5, 364802, Note_on_c, 1, 40, 47
5, 366317, Note_on_c, 1, 35, 58
5, 366365, Note_on_c, 1, 40, 0
5, 366707, Note_on_c, 1, 35, 0
5, 366726, Note_on_c, 1, 28, 66
5, 367515, Note_on_c, 1, 28, 0
5, 367695, Note_on_c, 1, 29, 74
5, 370159, Note_on_c, 1, 36, 66
5, 370284, Note_on_c, 1, 29, 0
5, 370442, Note_on_c, 1, 36, 0
5, 370608, Note_on_c, 1, 45, 89
5, 371381, Note_on_c, 1, 45, 0
5, 371557, Note_on_c, 1, 36, 66
5, 371945, Note_on_c, 1, 36, 0
5, 372052, Note_on_c, 1, 36, 61
5, 372248, Note_on_c, 1, 36, 0
5, 372454, Note_on_c, 1, 47, 91
5, 376263, Note_on_c, 1, 47, 0
5, 376308, Note_on_c, 1, 36, 78
5, 378271, Note_on_c, 1, 50, 95
5, 378406, Note_on_c, 1, 36, 0
5, 378740, Note_on_c, 1, 48, 73
5, 378773, Note_on_c, 1, 50, 0
5, 379064, Note_on_c, 1, 48, 0
5, 379208, Note_on_c, 1, 47, 41
5, 380069, Note_on_c, 1, 47, 0
5, 380172, Note_on_c, 1, 45, 51
5, 380475, Note_on_c, 1, 45, 0
5, 380637, Note_on_c, 1, 40, 47
5, 381095, Note_on_c, 1, 40, 0
5, 381153, Note_on_c, 1, 33, 60
5, 382582, Note_on_c, 1, 31, 55
5, 382589, Note_on_c, 1, 33, 0
5, 382972, Note_on_c, 1, 31, 0
5, 383066, Note_on_c, 1, 29, 55
5, 386948, Note_on_c, 1, 40, 36
5, 386951, Note_on_c, 1, 41, 34
5, 387086, Note_on_c, 1, 41, 0
5, 387096, Note_on_c, 1, 40, 0
5, 387825, Note_on_c, 1, 40, 62
5, 388307, Note_on_c, 1, 40, 0
5, 388351, Note_on_c, 1, 39, 37
5, 388614, Note_on_c, 1, 29, 0
5, 388630, Note_on_c, 1, 39, 0
5, 388756, Note_on_c, 1, 40, 48
5, 389622, Note_on_c, 1, 40, 0
5, 389680, Note_on_c, 1, 28, 54
5, 390488, Note_on_c, 1, 28, 0
5, 390715, Note_on_c, 1, 28, 70
5, 392643, Note_on_c, 1, 40, 88
5, 393162, Note_on_c, 1, 40, 0
5, 393168, Note_on_c, 1, 39, 46
5, 393342, Note_on_c, 1, 28, 0
5, 393468, Note_on_c, 1, 39, 0
5, 393608, Note_on_c, 1, 40, 54
5, 394013, Note_on_c, 1, 40, 0
5, 394121, Note_on_c, 1, 31, 66
5, 394528, Note_on_c, 1, 31, 0
5, 394576, Note_on_c, 1, 32, 60
5, 395438, Note_on_c, 1, 32, 0
5, 395546, Note_on_c, 1, 33, 63
5, 397076, Note_on_c, 1, 40, 68
5, 397341, Note_on_c, 1, 33, 0
5, 397559, Note_on_c, 1, 45, 71
5, 397577, Note_on_c, 1, 40, 0
5, 397980, Note_on_c, 1, 45, 0
5, 398061, Note_on_c, 1, 40, 58
5, 398270, Note_on_c, 1, 40, 0
5, 398493, Note_on_c, 1, 41, 76
5, 401308, Note_on_c, 1, 55, 82
5, 401507, Note_on_c, 1, 41, 0
5, 401690, Note_on_c, 1, 55, 0
5, 401782, Note_on_c, 1, 53, 65
5, 402171, Note_on_c, 1, 53, 0
5, 402241, Note_on_c, 1, 52, 66
5, 403108, Note_on_c, 1, 52, 0
5, 403112, Note_on_c, 1, 33, 57
5, 403964, Note_on_c, 1, 33, 0
5, 404143, Note_on_c, 1, 33, 67
5, 405640, Note_on_c, 1, 40, 54
5, 405785, Note_on_c, 1, 40, 0
5, 405885, Note_on_c, 1, 33, 0
5, 406077, Note_on_c, 1, 40, 51
5, 407006, Note_on_c, 1, 40, 0
5, 407042, Note_on_c, 1, 41, 85
5, 408595, Note_on_c, 1, 36, 53
5, 408705, Note_on_c, 1, 41, 0
5, 408845, Note_on_c, 1, 36, 0
5, 409047, Note_on_c, 1, 33, 60
5, 409855, Note_on_c, 1, 33, 0
5, 410018, Note_on_c, 1, 33, 59
5, 410869, Note_on_c, 1, 33, 0
5, 410963, Note_on_c, 1, 38, 82
5, 413770, Note_on_c, 1, 38, 0
5, 413804, Note_on_c, 1, 31, 78
5, 415653, Note_on_c, 1, 31, 0
5, 415698, Note_on_c, 1, 43, 92
5, 416558, Note_on_c, 1, 43, 0
5, 416685, Note_on_c, 1, 43, 82
5, 419540, Note_on_c, 1, 31, 80
5, 422193, Note_on_c, 1, 43, 0
5, 422372, Note_on_c, 1, 31, 0
5, 422387, Note_on_c, 1, 41, 79
5, 423330, Note_on_c, 1, 29, 74
5, 424334, Note_on_c, 1, 41, 0
5, 424893, Note_on_c, 1, 36, 45
5, 425019, Note_on_c, 1, 36, 0
5, 425114, Note_on_c, 1, 29, 0
5, 425212, Note_on_c, 1, 39, 65
5, 426161, Note_on_c, 1, 39, 0
5, 426245, Note_on_c, 1, 40, 50
5, 426473, Note_on_c, 1, 40, 0
5, 426753, Note_on_c, 1, 34, 50
5, 427110, Note_on_c, 1, 34, 0
5, 427185, Note_on_c, 1, 35, 45
5, 428030, Note_on_c, 1, 35, 0
5, 428113, Note_on_c, 1, 28, 58
5, 428965, Note_on_c, 1, 28, 0
5, 429098, Note_on_c, 1, 28, 64
5, 430822, Note_on_c, 1, 28, 0
5, 430983, Note_on_c, 1, 29, 54
5, 431563, Note_on_c, 1, 40, 39
5, 431760, Note_on_c, 1, 40, 0
5, 431987, Note_on_c, 1, 45, 74
5, 432402, Note_on_c, 1, 45, 0
5, 432500, Note_on_c, 1, 45, 71
5, 432844, Note_on_c, 1, 45, 0
5, 432861, Note_on_c, 1, 29, 0
5, 432963, Note_on_c, 1, 43, 44
5, 433671, Note_on_c, 1, 29, 33
5, 433723, Note_on_c, 1, 43, 0
5, 433813, Note_on_c, 1, 29, 0
5, 433913, Note_on_c, 1, 47, 72
5, 435281, Note_on_c, 1, 47, 0
5, 435392, Note_on_c, 1, 42, 47
5, 435729, Note_on_c, 1, 42, 0
5, 435881, Note_on_c, 1, 35, 54
5, 436789, Note_on_c, 1, 35, 0
5, 436833, Note_on_c, 1, 36, 75
5, 438715, Note_on_c, 1, 42, 82
5, 439149, Note_on_c, 1, 42, 0
5, 439199, Note_on_c, 1, 43, 64
5, 439454, Note_on_c, 1, 36, 0
5, 439571, Note_on_c, 1, 43, 0
5, 439638, Note_on_c, 1, 42, 53
5, 440076, Note_on_c, 1, 42, 0
5, 440182, Note_on_c, 1, 40, 37
5, 440340, Note_on_c, 1, 40, 0
5, 440609, Note_on_c, 1, 34, 45
5, 441539, Note_on_c, 1, 34, 0
5, 441610, Note_on_c, 1, 33, 59
5, 444500, Note_on_c, 1, 40, 62
5, 444916, Note_on_c, 1, 33, 0
5, 444924, Note_on_c, 1, 40, 0
5, 445106, Note_on_c, 1, 36, 27
5, 445335, Note_on_c, 1, 36, 0
5, 445477, Note_on_c, 1, 41, 77
5, 446427, Note_on_c, 1, 29, 65
5, 446644, Note_on_c, 1, 41, 0
5, 448261, Note_on_c, 1, 29, 0
5, 448319, Note_on_c, 1, 40, 88
5, 453109, Note_on_c, 1, 40, 0
5, 453161, Note_on_c, 1, 28, 63
5, 455728, Note_on_c, 1, 35, 42
5, 455802, Note_on_c, 1, 28, 0
5, 455852, Note_on_c, 1, 35, 0
5, 456000, Note_on_c, 1, 39, 55
5, 456878, Note_on_c, 1, 39, 0
5, 456966, Note_on_c, 1, 40, 49
5, 457504, Note_on_c, 1, 40, 0
5, 457621, Note_on_c, 1, 34, 45
5, 457853, Note_on_c, 1, 34, 0
5, 457951, Note_on_c, 1, 35, 37
5, 458627, Note_on_c, 1, 34, 30
5, 458748, Note_on_c, 1, 35, 0
5, 458844, Note_on_c, 1, 34, 0
5, 458902, Note_on_c, 1, 47, 81
5, 459717, Note_on_c, 1, 47, 0
5, 459825, Note_on_c, 1, 42, 51
5, 460357, Note_on_c, 1, 42, 0
5, 460459, Note_on_c, 1, 40, 35
5, 460691, Note_on_c, 1, 40, 0
5, 460793, Note_on_c, 1, 41, 41
5, 461421, Note_on_c, 1, 41, 0
5, 461435, Note_on_c, 1, 36, 53
5, 461615, Note_on_c, 1, 36, 0
5, 461774, Note_on_c, 1, 29, 42
5, 462697, Note_on_c, 1, 29, 0
5, 462699, Note_on_c, 1, 36, 64
5, 463539, Note_on_c, 1, 36, 0
5, 463656, Note_on_c, 1, 34, 57
5, 464583, Note_on_c, 1, 34, 0
5, 464631, Note_on_c, 1, 35, 60
5, 465597, Note_on_c, 1, 42, 62
5, 465772, Note_on_c, 1, 35, 0
5, 466518, Note_on_c, 1, 42, 0
5, 466526, Note_on_c, 1, 47, 52
5, 467221, Note_on_c, 1, 35, 36
5, 467332, Note_on_c, 1, 35, 0
5, 467338, Note_on_c, 1, 47, 0
5, 467495, Note_on_c, 1, 50, 66
5, 468383, Note_on_c, 1, 50, 0
5, 468444, Note_on_c, 1, 48, 62
5, 469383, Note_on_c, 1, 48, 0
5, 469435, Note_on_c, 1, 47, 62
5, 470379, Note_on_c, 1, 47, 0
5, 470410, Note_on_c, 1, 45, 52
5, 471078, Note_on_c, 1, 45, 0
5, 471347, Note_on_c, 1, 44, 51
5, 472236, Note_on_c, 1, 44, 0
5, 472290, Note_on_c, 1, 45, 61
5, 472941, Note_on_c, 1, 45, 0
5, 472945, Note_on_c, 1, 40, 44
5, 473150, Note_on_c, 1, 40, 0
5, 473277, Note_on_c, 1, 36, 57
5, 474102, Note_on_c, 1, 36, 0
5, 474237, Note_on_c, 1, 33, 51
5, 475153, Note_on_c, 1, 33, 0
5, 475176, Note_on_c, 1, 30, 70
5, 476013, Note_on_c, 1, 30, 0
5, 476170, Note_on_c, 1, 29, 58
5, 477163, Note_on_c, 1, 38, 76
5, 477301, Note_on_c, 1, 29, 0
5, 478009, Note_on_c, 1, 38, 0
5, 478084, Note_on_c, 1, 36, 58
5, 478995, Note_on_c, 1, 36, 0
5, 479046, Note_on_c, 1, 39, 69
5, 479924, Note_on_c, 1, 39, 0
5, 480001, Note_on_c, 1, 40, 58
5, 480782, Note_on_c, 1, 38, 27
5, 480905, Note_on_c, 1, 38, 0
5, 480974, Note_on_c, 1, 45, 79
5, 481008, Note_on_c, 1, 40, 0
5, 482525, Note_on_c, 1, 40, 50
5, 482616, Note_on_c, 1, 40, 0
5, 482750, Note_on_c, 1, 45, 0
5, 482817, Note_on_c, 1, 43, 64
5, 483725, Note_on_c, 1, 43, 0
5, 483781, Note_on_c, 1, 40, 50
5, 484770, Note_on_c, 1, 40, 0
5, 484787, Note_on_c, 1, 35, 59
5, 485707, Note_on_c, 1, 35, 0
5, 485709, Note_on_c, 1, 38, 57
5, 486156, Note_on_c, 1, 38, 0
5, 486356, Note_on_c, 1, 38, 44
5, 486540, Note_on_c, 1, 38, 0
5, 486669, Note_on_c, 1, 39, 51
5, 487610, Note_on_c, 1, 39, 0
5, 487683, Note_on_c, 1, 40, 53
5, 488587, Note_on_c, 1, 40, 0
5, 488631, Note_on_c, 1, 35, 66
5, 489591, Note_on_c, 1, 38, 57
5, 489666, Note_on_c, 1, 35, 0
5, 490259, Note_on_c, 1, 35, 51
5, 490444, Note_on_c, 1, 35, 0
5, 490522, Note_on_c, 1, 38, 0
5, 490555, Note_on_c, 1, 40, 66
5, 491480, Note_on_c, 1, 41, 66
5, 491491, Note_on_c, 1, 40, 0
5, 492151, Note_on_c, 1, 36, 59
5, 492279, Note_on_c, 1, 41, 0
5, 492387, Note_on_c, 1, 36, 0
5, 492488, Note_on_c, 1, 29, 47
5, 493182, Note_on_c, 1, 36, 25
5, 493270, Note_on_c, 1, 36, 0
5, 493427, Note_on_c, 1, 52, 77
5, 494139, Note_on_c, 1, 36, 32
5, 494151, Note_on_c, 1, 29, 0
5, 494228, Note_on_c, 1, 52, 0
5, 494255, Note_on_c, 1, 36, 0
5, 494377, Note_on_c, 1, 50, 57
5, 495174, Note_on_c, 1, 50, 0
5, 495305, Note_on_c, 1, 48, 60
5, 495992, Note_on_c, 1, 43, 40
5, 496082, Note_on_c, 1, 43, 0
5, 496211, Note_on_c, 1, 48, 0
5, 496263, Note_on_c, 1, 47, 56
5, 497246, Note_on_c, 1, 47, 0
5, 497265, Note_on_c, 1, 35, 66
5, 498225, Note_on_c, 1, 35, 0
5, 498241, Note_on_c, 1, 40, 67
5, 499122, Note_on_c, 1, 40, 0
5, 499168, Note_on_c, 1, 36, 70
5, 500750, Note_on_c, 1, 43, 55
5, 500817, Note_on_c, 1, 43, 0
5, 501101, Note_on_c, 1, 48, 88
5, 501767, Note_on_c, 1, 43, 43
5, 501819, Note_on_c, 1, 36, 0
5, 501846, Note_on_c, 1, 43, 0
5, 501940, Note_on_c, 1, 48, 0
5, 502036, Note_on_c, 1, 47, 58
5, 502997, Note_on_c, 1, 47, 0
5, 503006, Note_on_c, 1, 45, 61
5, 503680, Note_on_c, 1, 45, 0
5, 503707, Note_on_c, 1, 40, 49
5, 503937, Note_on_c, 1, 40, 0
5, 504039, Note_on_c, 1, 33, 46
5, 504966, Note_on_c, 1, 40, 58
5, 504995, Note_on_c, 1, 33, 0
5, 505938, Note_on_c, 1, 43, 55
5, 505946, Note_on_c, 1, 40, 0
5, 506383, Note_on_c, 1, 43, 0
5, 506546, Note_on_c, 1, 40, 46
5, 506790, Note_on_c, 1, 40, 0
5, 506919, Note_on_c, 1, 41, 64
5, 507524, Note_on_c, 1, 41, 0
5, 507530, Note_on_c, 1, 36, 50
5, 507735, Note_on_c, 1, 36, 0
5, 507877, Note_on_c, 1, 29, 51
5, 508768, Note_on_c, 1, 29, 0
5, 508799, Note_on_c, 1, 41, 71
5, 509747, Note_on_c, 1, 41, 0
5, 509753, Note_on_c, 1, 39, 62
5, 510645, Note_on_c, 1, 39, 0
5, 510719, Note_on_c, 1, 40, 57
5, 511333, Note_on_c, 1, 40, 0
5, 511345, Note_on_c, 1, 34, 56
5, 511607, Note_on_c, 1, 34, 0
5, 511707, Note_on_c, 1, 35, 54
5, 512593, Note_on_c, 1, 35, 0
5, 512639, Note_on_c, 1, 28, 59
5, 513484, Note_on_c, 1, 28, 0
5, 513616, Note_on_c, 1, 28, 67
5, 514632, Note_on_c, 1, 35, 71
5, 514741, Note_on_c, 1, 28, 0
5, 515547, Note_on_c, 1, 35, 0
5, 515561, Note_on_c, 1, 28, 62
5, 516321, Note_on_c, 1, 28, 0
5, 516490, Note_on_c, 1, 34, 77
5, 517379, Note_on_c, 1, 34, 0
5, 517468, Note_on_c, 1, 32, 64
5, 517879, Note_on_c, 1, 32, 0
5, 518147, Note_on_c, 1, 32, 67
5, 518374, Note_on_c, 1, 32, 0
5, 518458, Note_on_c, 1, 33, 55
5, 519098, Note_on_c, 1, 32, 48
5, 519111, Note_on_c, 1, 33, 0
5, 519299, Note_on_c, 1, 32, 0
5, 519365, Note_on_c, 1, 35, 51
5, 520273, Note_on_c, 1, 35, 0
5, 520301, Note_on_c, 1, 36, 57
5, 520981, Note_on_c, 1, 34, 39
5, 521190, Note_on_c, 1, 34, 0
5, 521252, Note_on_c, 1, 45, 48
5, 521265, Note_on_c, 1, 36, 0
5, 521947, Note_on_c, 1, 36, 34
5, 522032, Note_on_c, 1, 36, 0
5, 522137, Note_on_c, 1, 45, 0
5, 522218, Note_on_c, 1, 41, 56
5, 523183, Note_on_c, 1, 36, 50
5, 523185, Note_on_c, 1, 41, 0
5, 524028, Note_on_c, 1, 36, 0
5, 524138, Note_on_c, 1, 33, 49
5, 524777, Note_on_c, 1, 32, 69
5, 524825, Note_on_c, 1, 33, 0
5, 525284, Note_on_c, 1, 32, 0
5, 525307, Note_on_c, 1, 35, 62
5, 525372, Note_on_c, 1, 33, 46
5, 525497, Note_on_c, 1, 35, 0
5, 525925, Note_on_c, 1, 33, 0
5, 526106, Note_on_c, 1, 33, 49
5, 527041, Note_on_c, 1, 48, 89
5, 527087, Note_on_c, 1, 33, 0
5, 527903, Note_on_c, 1, 48, 0
5, 527970, Note_on_c, 1, 45, 44
5, 528609, Note_on_c, 1, 45, 0
5, 528621, Note_on_c, 1, 40, 61
5, 528832, Note_on_c, 1, 40, 0
5, 528962, Note_on_c, 1, 41, 69
5, 529792, Note_on_c, 1, 41, 0
5, 529849, Note_on_c, 1, 36, 65
5, 530316, Note_on_c, 1, 36, 0
5, 530485, Note_on_c, 1, 36, 51
5, 530725, Note_on_c, 1, 36, 0
5, 530819, Note_on_c, 1, 33, 57
5, 531771, Note_on_c, 1, 33, 0
5, 531775, Note_on_c, 1, 31, 61
5, 532607, Note_on_c, 1, 31, 0
5, 532753, Note_on_c, 1, 37, 59
5, 533490, Note_on_c, 1, 34, 25
5, 533663, Note_on_c, 1, 37, 0
5, 533730, Note_on_c, 1, 34, 0
5, 533757, Note_on_c, 1, 38, 56
5, 534431, Note_on_c, 1, 34, 36
5, 534722, Note_on_c, 1, 48, 83
5, 534778, Note_on_c, 1, 34, 0
5, 534782, Note_on_c, 1, 38, 0
5, 535658, Note_on_c, 1, 45, 60
5, 535669, Note_on_c, 1, 48, 0
5, 536345, Note_on_c, 1, 38, 44
5, 536452, Note_on_c, 1, 38, 0
5, 536481, Note_on_c, 1, 45, 0
5, 536600, Note_on_c, 1, 46, 62
5, 537532, Note_on_c, 1, 46, 0
5, 537575, Note_on_c, 1, 47, 58
5, 538547, Note_on_c, 1, 47, 0
5, 538562, Note_on_c, 1, 31, 60
5, 539206, Note_on_c, 1, 38, 39
5, 539325, Note_on_c, 1, 38, 0
5, 539447, Note_on_c, 1, 31, 0
5, 539511, Note_on_c, 1, 43, 58
5, 540394, Note_on_c, 1, 43, 0
5, 540438, Note_on_c, 1, 35, 72
5, 541424, Note_on_c, 1, 35, 0
5, 541458, Note_on_c, 1, 36, 62
5, 542393, Note_on_c, 1, 48, 90
5, 543455, Note_on_c, 1, 36, 0
5, 544252, Note_on_c, 1, 48, 0
5, 544290, Note_on_c, 1, 41, 84
5, 545225, Note_on_c, 1, 41, 0
5, 545286, Note_on_c, 1, 36, 54
5, 545576, Note_on_c, 1, 36, 0
5, 545789, Note_on_c, 1, 36, 52
5, 546064, Note_on_c, 1, 36, 0
5, 546190, Note_on_c, 1, 29, 67
5, 547061, Note_on_c, 1, 29, 0
5, 547143, Note_on_c, 1, 41, 69
5, 548113, Note_on_c, 1, 41, 0
5, 548120, Note_on_c, 1, 39, 60
5, 549026, Note_on_c, 1, 39, 0
5, 549103, Note_on_c, 1, 40, 58
5, 549806, Note_on_c, 1, 39, 34
5, 550073, Note_on_c, 1, 54, 63
5, 550102, Note_on_c, 1, 39, 0
5, 550156, Note_on_c, 1, 40, 0
5, 551029, Note_on_c, 1, 54, 0
5, 551090, Note_on_c, 1, 55, 56
5, 551774, Note_on_c, 1, 40, 37
5, 551909, Note_on_c, 1, 55, 0
5, 551941, Note_on_c, 1, 40, 0
5, 552028, Note_on_c, 1, 52, 49
5, 552937, Note_on_c, 1, 52, 0
5, 552962, Note_on_c, 1, 53, 68
5, 553577, Note_on_c, 1, 41, 22
5, 553684, Note_on_c, 1, 41, 0
5, 553930, Note_on_c, 1, 48, 56
5, 553932, Note_on_c, 1, 53, 0
5, 554869, Note_on_c, 1, 50, 53
5, 554952, Note_on_c, 1, 48, 0
5, 555512, Note_on_c, 1, 41, 57
5, 555620, Note_on_c, 1, 41, 0
5, 555714, Note_on_c, 1, 50, 0
5, 555827, Note_on_c, 1, 45, 51
5, 556694, Note_on_c, 1, 45, 0
5, 556771, Note_on_c, 1, 47, 55
5, 557678, Note_on_c, 1, 47, 0
5, 557740, Note_on_c, 1, 35, 60
5, 558741, Note_on_c, 1, 47, 61
5, 559222, Note_on_c, 1, 35, 0
5, 559711, Note_on_c, 1, 47, 0
5, 559732, Note_on_c, 1, 37, 64
5, 560552, Note_on_c, 1, 37, 0
5, 560648, Note_on_c, 1, 36, 64
5, 561289, Note_on_c, 1, 43, 38
5, 561408, Note_on_c, 1, 43, 0
5, 561506, Note_on_c, 1, 36, 0
5, 561583, Note_on_c, 1, 50, 75
5, 562144, Note_on_c, 1, 43, 22
5, 562275, Note_on_c, 1, 43, 0
5, 562499, Note_on_c, 1, 50, 0
5, 562539, Note_on_c, 1, 48, 63
5, 563507, Note_on_c, 1, 48, 0
5, 563521, Note_on_c, 1, 46, 62
5, 564367, Note_on_c, 1, 46, 0
5, 564450, Note_on_c, 1, 45, 58
5, 565370, Note_on_c, 1, 45, 0
5, 565408, Note_on_c, 1, 33, 57
5, 566324, Note_on_c, 1, 33, 0
5, 566397, Note_on_c, 1, 40, 54
5, 567276, Note_on_c, 1, 40, 0
5, 567324, Note_on_c, 1, 31, 66
5, 568179, Note_on_c, 1, 31, 0
5, 568294, Note_on_c, 1, 29, 63
5, 569183, Note_on_c, 1, 29, 0
5, 569268, Note_on_c, 1, 41, 94
5, 570087, Note_on_c, 1, 41, 0
5, 570221, Note_on_c, 1, 41, 78
5, 570830, Note_on_c, 1, 41, 0
5, 570863, Note_on_c, 1, 38, 47
5, 571040, Note_on_c, 1, 38, 0
5, 571193, Note_on_c, 1, 39, 74
5, 572053, Note_on_c, 1, 39, 0
5, 572147, Note_on_c, 1, 40, 66
5, 573067, Note_on_c, 1, 40, 0
5, 573124, Note_on_c, 1, 35, 68
5, 573946, Note_on_c, 1, 35, 0
5, 574085, Note_on_c, 1, 35, 69
5, 574972, Note_on_c, 1, 35, 0
5, 575003, Note_on_c, 1, 40, 64
5, 575718, Note_on_c, 1, 35, 44
5, 575912, Note_on_c, 1, 40, 0
5, 575970, Note_on_c, 1, 47, 85
5, 576030, Note_on_c, 1, 35, 0
5, 576640, Note_on_c, 1, 35, 36
5, 576878, Note_on_c, 1, 47, 0
5, 576892, Note_on_c, 1, 35, 0
5, 576928, Note_on_c, 1, 45, 68
5, 577569, Note_on_c, 1, 40, 43
5, 577711, Note_on_c, 1, 40, 0
5, 577797, Note_on_c, 1, 45, 0
5, 577841, Note_on_c, 1, 43, 66
5, 578564, Note_on_c, 1, 43, 0
5, 578571, Note_on_c, 1, 38, 35
5, 578742, Note_on_c, 1, 38, 0
5, 578836, Note_on_c, 1, 42, 55
5, 579495, Note_on_c, 1, 38, 38
5, 579570, Note_on_c, 1, 38, 0
5, 579718, Note_on_c, 1, 42, 0
5, 579773, Note_on_c, 1, 40, 60
5, 580718, Note_on_c, 1, 40, 0
5, 580795, Note_on_c, 1, 38, 56
5, 581617, Note_on_c, 1, 38, 0
5, 581780, Note_on_c, 1, 40, 64
5, 582675, Note_on_c, 1, 40, 0
5, 582705, Note_on_c, 1, 30, 61
5, 583586, Note_on_c, 1, 30, 0
5, 583644, Note_on_c, 1, 29, 50
5, 584635, Note_on_c, 1, 40, 65
5, 585560, Note_on_c, 1, 40, 0
5, 585566, Note_on_c, 1, 38, 49
5, 585605, Note_on_c, 1, 29, 0
5, 586223, Note_on_c, 1, 29, 40
5, 586363, Note_on_c, 1, 38, 0
5, 586504, Note_on_c, 1, 40, 57
5, 586898, Note_on_c, 1, 29, 0
5, 587183, Note_on_c, 1, 36, 47
5, 587273, Note_on_c, 1, 36, 0
5, 587363, Note_on_c, 1, 40, 0
5, 587450, Note_on_c, 1, 47, 64
5, 588373, Note_on_c, 1, 40, 47
5, 588451, Note_on_c, 1, 47, 0
5, 589322, Note_on_c, 1, 40, 0
5, 589395, Note_on_c, 1, 42, 62
5, 590332, Note_on_c, 1, 42, 0
5, 590364, Note_on_c, 1, 35, 60
5, 591312, Note_on_c, 1, 35, 0
5, 591351, Note_on_c, 1, 36, 60
5, 592280, Note_on_c, 1, 43, 59
5, 592361, Note_on_c, 1, 36, 0
5, 593047, Note_on_c, 1, 36, 22
5, 593150, Note_on_c, 1, 36, 0
5, 593206, Note_on_c, 1, 43, 0
5, 593273, Note_on_c, 1, 50, 73
5, 594123, Note_on_c, 1, 50, 0
5, 594231, Note_on_c, 1, 48, 71
5, 595166, Note_on_c, 1, 48, 0
5, 595249, Note_on_c, 1, 45, 62
5, 596009, Note_on_c, 1, 40, 25
5, 596094, Note_on_c, 1, 45, 0
5, 596224, Note_on_c, 1, 45, 77
5, 596238, Note_on_c, 1, 40, 0
5, 597155, Note_on_c, 1, 45, 0
5, 597178, Note_on_c, 1, 40, 50
5, 598017, Note_on_c, 1, 40, 0
5, 598159, Note_on_c, 1, 40, 64
5, 599029, Note_on_c, 1, 40, 0
5, 599123, Note_on_c, 1, 41, 62
5, 599988, Note_on_c, 1, 41, 0
5, 600034, Note_on_c, 1, 33, 62
5, 600926, Note_on_c, 1, 33, 0
5, 600980, Note_on_c, 1, 38, 32
5, 600988, Note_on_c, 1, 36, 34
5, 601304, Note_on_c, 1, 38, 0
5, 601583, Note_on_c, 1, 34, 25
5, 601778, Note_on_c, 1, 36, 0
5, 601790, Note_on_c, 1, 34, 0
5, 601872, Note_on_c, 1, 39, 65
5, 602840, Note_on_c, 1, 39, 0
5, 602863, Note_on_c, 1, 40, 64
5, 603747, Note_on_c, 1, 40, 0
5, 603770, Note_on_c, 1, 35, 75
5, 605385, Note_on_c, 1, 28, 74
5, 605661, Note_on_c, 1, 28, 0
5, 605759, Note_on_c, 1, 35, 0
5, 605791, Note_on_c, 1, 28, 68
5, 606703, Note_on_c, 1, 35, 75
5, 607197, Note_on_c, 1, 35, 0
5, 607353, Note_on_c, 1, 35, 49
5, 607399, Note_on_c, 1, 28, 0
5, 607673, Note_on_c, 1, 47, 92
5, 607788, Note_on_c, 1, 35, 0
5, 608431, Note_on_c, 1, 35, 33
5, 608552, Note_on_c, 1, 47, 0
5, 608621, Note_on_c, 1, 45, 54
5, 608658, Note_on_c, 1, 35, 0
5, 609274, Note_on_c, 1, 35, 48
5, 609443, Note_on_c, 1, 35, 0
5, 609472, Note_on_c, 1, 45, 0
5, 609559, Note_on_c, 1, 44, 53
5, 610458, Note_on_c, 1, 44, 0
5, 610531, Note_on_c, 1, 43, 61
5, 611572, Note_on_c, 1, 42, 69
5, 611596, Note_on_c, 1, 43, 0
5, 612406, Note_on_c, 1, 42, 0
5, 612448, Note_on_c, 1, 40, 58
5, 613425, Note_on_c, 1, 55, 84
5, 613636, Note_on_c, 1, 40, 0
5, 614070, Note_on_c, 1, 40, 47
5, 614247, Note_on_c, 1, 55, 0
5, 614264, Note_on_c, 1, 40, 0
5, 614360, Note_on_c, 1, 53, 70
5, 615343, Note_on_c, 1, 48, 55
5, 615503, Note_on_c, 1, 53, 0
5, 616297, Note_on_c, 1, 41, 56
5, 616539, Note_on_c, 1, 48, 0
5, 617068, Note_on_c, 1, 47, 19
5, 617146, Note_on_c, 1, 47, 0
5, 617308, Note_on_c, 1, 59, 89
5, 617405, Note_on_c, 1, 41, 0
5, 618270, Note_on_c, 1, 54, 53
5, 618346, Note_on_c, 1, 59, 0
5, 618932, Note_on_c, 1, 47, 32
5, 619008, Note_on_c, 1, 47, 0
5, 619204, Note_on_c, 1, 48, 53
5, 620091, Note_on_c, 1, 48, 0
5, 620172, Note_on_c, 1, 47, 78
5, 620186, Note_on_c, 1, 54, 0
5, 621080, Note_on_c, 1, 47, 0
5, 621136, Note_on_c, 1, 48, 65
5, 622058, Note_on_c, 1, 36, 49
5, 622862, Note_on_c, 1, 36, 0
5, 623035, Note_on_c, 1, 36, 73
5, 623190, Note_on_c, 1, 48, 0
5, 623983, Note_on_c, 1, 36, 0
5, 624016, Note_on_c, 1, 47, 71
5, 624690, Note_on_c, 1, 47, 0
5, 624726, Note_on_c, 1, 43, 46
5, 624826, Note_on_c, 1, 43, 0
5, 624985, Note_on_c, 1, 46, 47
5, 625890, Note_on_c, 1, 46, 0
5, 625965, Note_on_c, 1, 45, 54
5, 626639, Note_on_c, 1, 40, 59
5, 626756, Note_on_c, 1, 45, 0
5, 626806, Note_on_c, 1, 40, 0
5, 626984, Note_on_c, 1, 33, 58
5, 627854, Note_on_c, 1, 40, 60
5, 627862, Note_on_c, 1, 33, 0
5, 628718, Note_on_c, 1, 40, 0
5, 628789, Note_on_c, 1, 30, 67
5, 629655, Note_on_c, 1, 30, 0
5, 629759, Note_on_c, 1, 29, 60
5, 630715, Note_on_c, 1, 29, 0
5, 630730, Note_on_c, 1, 41, 92
5, 631598, Note_on_c, 1, 41, 0
5, 631717, Note_on_c, 1, 41, 73
5, 632351, Note_on_c, 1, 41, 0
5, 632379, Note_on_c, 1, 38, 44
5, 632558, Note_on_c, 1, 38, 0
5, 632664, Note_on_c, 1, 39, 64
5, 633515, Note_on_c, 1, 39, 0
5, 633570, Note_on_c, 1, 40, 61
5, 634282, Note_on_c, 1, 39, 37
5, 634457, Note_on_c, 1, 40, 0
5, 634522, Note_on_c, 1, 39, 0
5, 634534, Note_on_c, 1, 47, 105
5, 635434, Note_on_c, 1, 47, 0
5, 635467, Note_on_c, 1, 45, 79
5, 636145, Note_on_c, 1, 40, 29
5, 636246, Note_on_c, 1, 40, 0
5, 636463, Note_on_c, 1, 45, 0
5, 636465, Note_on_c, 1, 43, 59
5, 637120, Note_on_c, 1, 40, 50
5, 637122, Note_on_c, 1, 43, 0
5, 637233, Note_on_c, 1, 40, 0
5, 637370, Note_on_c, 1, 47, 94
5, 638262, Note_on_c, 1, 47, 0
5, 638339, Note_on_c, 1, 45, 69
5, 639257, Note_on_c, 1, 45, 0
5, 639326, Note_on_c, 1, 43, 67
5, 639936, Note_on_c, 1, 40, 56
5, 639996, Note_on_c, 1, 43, 0
5, 640138, Note_on_c, 1, 40, 0
5, 640330, Note_on_c, 1, 35, 47
5, 641256, Note_on_c, 1, 28, 68
5, 641280, Note_on_c, 1, 28, 0
5, 641280, Note_on_c, 1, 35, 0
5, 641304, Note_on_c, 1, 33, 66
5, 642204, Note_on_c, 1, 33, 0
5, 642264, Note_on_c, 1, 40, 71
5, 643135, Note_on_c, 1, 40, 0
5, 643229, Note_on_c, 1, 36, 51
5, 644144, Note_on_c, 1, 36, 0
5, 644170, Note_on_c, 1, 30, 77
5, 645067, Note_on_c, 1, 30, 0
5, 645165, Note_on_c, 1, 29, 71
5, 646133, Note_on_c, 1, 38, 78
5, 646135, Note_on_c, 1, 29, 0
5, 647058, Note_on_c, 1, 38, 0
5, 647097, Note_on_c, 1, 36, 64
5, 648006, Note_on_c, 1, 29, 62
5, 648025, Note_on_c, 1, 36, 0
5, 648845, Note_on_c, 1, 29, 0
5, 648930, Note_on_c, 1, 33, 60
5, 649813, Note_on_c, 1, 33, 0
5, 649917, Note_on_c, 1, 36, 62
5, 650577, Note_on_c, 1, 34, 44
5, 650730, Note_on_c, 1, 34, 0
5, 650851, Note_on_c, 1, 36, 0
5, 650893, Note_on_c, 1, 47, 87
5, 651624, Note_on_c, 1, 40, 22
5, 651693, Note_on_c, 1, 40, 0
5, 651737, Note_on_c, 1, 47, 0
5, 651819, Note_on_c, 1, 43, 59
5, 652424, Note_on_c, 1, 38, 31
5, 652511, Note_on_c, 1, 38, 0
5, 652687, Note_on_c, 1, 43, 0
5, 652768, Note_on_c, 1, 41, 63
5, 653722, Note_on_c, 1, 41, 0
5, 653755, Note_on_c, 1, 36, 64
5, 654669, Note_on_c, 1, 36, 0
5, 654740, Note_on_c, 1, 29, 53
5, 655310, Note_on_c, 1, 29, 0
5, 655460, Note_on_c, 1, 36, 30
5, 655567, Note_on_c, 1, 36, 0
5, 655688, Note_on_c, 1, 39, 57
5, 656611, Note_on_c, 1, 39, 0
5, 656663, Note_on_c, 1, 38, 50
5, 657444, Note_on_c, 1, 37, 32
5, 657484, Note_on_c, 1, 38, 0
5, 657587, Note_on_c, 1, 37, 0
5, 657620, Note_on_c, 1, 45, 85
5, 658877, Note_on_c, 1, 45, 0
5, 658895, Note_on_c, 1, 41, 51
5, 658981, Note_on_c, 1, 41, 0
5, 659214, Note_on_c, 1, 38, 39
5, 659327, Note_on_c, 1, 38, 0
5, 659473, Note_on_c, 1, 32, 38
5, 660421, Note_on_c, 1, 32, 0
5, 660473, Note_on_c, 1, 31, 62
5, 661463, Note_on_c, 1, 33, 64
5, 661477, Note_on_c, 1, 31, 0
5, 662435, Note_on_c, 1, 34, 57
5, 662464, Note_on_c, 1, 33, 0
5, 663407, Note_on_c, 1, 34, 0
5, 663428, Note_on_c, 1, 35, 64
5, 664094, Note_on_c, 1, 34, 31
5, 664324, Note_on_c, 1, 34, 0
5, 664343, Note_on_c, 1, 35, 0
5, 664365, Note_on_c, 1, 36, 55
5, 665031, Note_on_c, 1, 34, 32
5, 665193, Note_on_c, 1, 36, 0
5, 665287, Note_on_c, 1, 38, 61
5, 665388, Note_on_c, 1, 34, 0
5, 666201, Note_on_c, 1, 38, 0
5, 666233, Note_on_c, 1, 40, 70
5, 667102, Note_on_c, 1, 40, 0
5, 667191, Note_on_c, 1, 41, 85
5, 671091, Note_on_c, 1, 38, 67
5, 671183, Note_on_c, 1, 41, 0
5, 671352, Note_on_c, 1, 38, 0
5, 672037, Note_on_c, 1, 40, 79
5, 673677, Note_on_c, 1, 40, 0
5, 673946, Note_on_c, 1, 40, 83
5, 675355, Note_on_c, 1, 40, 0
5, 675443, Note_on_c, 1, 41, 88
5, 678665, Note_on_c, 1, 29, 50
5, 678842, Note_on_c, 1, 29, 0
5, 679554, Note_on_c, 1, 41, 0
5, 679635, Note_on_c, 1, 35, 81
5, 681633, Note_on_c, 1, 47, 85
5, 682991, Note_on_c, 1, 35, 0
5, 683010, Note_on_c, 1, 47, 0
5, 683143, Note_on_c, 1, 48, 88
5, 685713, Note_on_c, 1, 48, 0
5, 685963, Note_on_c, 1, 47, 87
5, 687130, Note_on_c, 1, 47, 0
5, 687969, Note_on_c, 1, 45, 92
5, 689261, Note_on_c, 1, 45, 0
5, 689294, Note_on_c, 1, 40, 49
5, 689419, Note_on_c, 1, 40, 0
5, 690219, Note_on_c, 1, 33, 44
5, 690423, Note_on_c, 1, 33, 0
5, 691231, Note_on_c, 1, 29, 62
5, 692923, Note_on_c, 1, 29, 0
5, 693186, Note_on_c, 1, 29, 66
5, 694509, Note_on_c, 1, 29, 0
5, 694803, Note_on_c, 1, 28, 80
5, 694837, Note_on_c, 1, 34, 36
5, 694902, Note_on_c, 1, 34, 0
5, 695108, Note_on_c, 1, 28, 0
5, 696091, Note_on_c, 1, 28, 91
5, 702515, Note_on_c, 1, 28, 0
5, 702711, Note_on_c, 1, 28, 53
5, 702930, Note_on_c, 1, 28, 0
5, 703669, Note_on_c, 1, 28, 81
5, 705382, Note_on_c, 1, 28, 0
5, 705555, Note_on_c, 1, 28, 75
5, 710151, Note_on_c, 1, 28, 0
5, 710360, Note_on_c, 1, 28, 53
5, 710606, Note_on_c, 1, 28, 0
5, 711366, Note_on_c, 1, 28, 71
5, 712845, Note_on_c, 1, 28, 0
5, 713273, Note_on_c, 1, 28, 87
5, 717887, Note_on_c, 1, 28, 0
5, 718154, Note_on_c, 1, 28, 81
5, 730590, Note_on_c, 1, 28, 0
5, 730590, End_track
6, 0, Start_track
6, 0, Title_t, "Ride"
6, 213004, Note_on_c, 9, 59, 65
6, 213432, Note_on_c, 9, 59, 0
6, 213718, Note_on_c, 9, 59, 74
6, 213883, Note_on_c, 9, 59, 0
6, 214692, Note_on_c, 9, 59, 108
6, 214795, Note_on_c, 9, 59, 0
6, 215715, Note_on_c, 9, 59, 67
6, 215846, Note_on_c, 9, 59, 0
6, 215992, Note_on_c, 9, 59, 80
6, 216320, Note_on_c, 9, 59, 0
6, 216951, Note_on_c, 9, 59, 88
6, 217092, Note_on_c, 9, 59, 0
6, 218872, Note_on_c, 9, 59, 60
6, 219099, Note_on_c, 9, 59, 0
6, 220481, Note_on_c, 9, 59, 57
6, 220656, Note_on_c, 9, 59, 0
6, 220800, Note_on_c, 9, 59, 72
6, 221266, Note_on_c, 9, 59, 0
6, 222393, Note_on_c, 9, 59, 38
6, 222523, Note_on_c, 9, 59, 0
6, 222683, Note_on_c, 9, 59, 68
6, 222923, Note_on_c, 9, 59, 0
6, 223366, Note_on_c, 9, 59, 110
6, 223512, Note_on_c, 9, 59, 0
6, 223621, Note_on_c, 9, 59, 91
6, 224174, Note_on_c, 9, 59, 0
6, 224610, Note_on_c, 9, 59, 68
6, 224974, Note_on_c, 9, 59, 0
6, 225577, Note_on_c, 9, 59, 81
6, 225791, Note_on_c, 9, 59, 0
6, 227177, Note_on_c, 9, 54, 28
6, 227242, Note_on_c, 9, 54, 0
6, 227512, Note_on_c, 9, 59, 62
6, 227956, Note_on_c, 9, 59, 0
6, 228486, Note_on_c, 9, 59, 84
6, 228896, Note_on_c, 9, 59, 0
6, 229117, Note_on_c, 9, 53, 58
6, 229290, Note_on_c, 9, 53, 0
6, 229519, Note_on_c, 9, 59, 51
6, 229945, Note_on_c, 9, 59, 0
6, 230409, Note_on_c, 9, 59, 74
6, 230855, Note_on_c, 9, 59, 0
6, 231360, Note_on_c, 9, 59, 92
6, 231856, Note_on_c, 9, 59, 0
6, 232979, Note_on_c, 9, 59, 43
6, 233077, Note_on_c, 9, 59, 0
6, 233278, Note_on_c, 9, 59, 58
6, 233432, Note_on_c, 9, 59, 0
6, 234213, Note_on_c, 9, 51, 70
6, 234225, Note_on_c, 9, 53, 71
6, 234250, Note_on_c, 9, 59, 80
6, 234388, Note_on_c, 9, 53, 0
6, 234407, Note_on_c, 9, 59, 0
6, 234440, Note_on_c, 9, 51, 0
6, 235194, Note_on_c, 9, 59, 57
6, 235284, Note_on_c, 9, 59, 0
6, 235795, Note_on_c, 9, 59, 88
6, 235802, Note_on_c, 9, 53, 71
6, 235812, Note_on_c, 9, 51, 51
6, 235967, Note_on_c, 9, 53, 0
6, 236005, Note_on_c, 9, 59, 0
6, 236036, Note_on_c, 9, 51, 0
6, 236705, Note_on_c, 9, 59, 64
6, 236849, Note_on_c, 9, 59, 0
6, 237100, Note_on_c, 9, 53, 82
6, 237104, Note_on_c, 9, 59, 88
6, 237112, Note_on_c, 9, 51, 71
6, 237377, Note_on_c, 9, 53, 0
6, 237458, Note_on_c, 9, 59, 0
6, 237460, Note_on_c, 9, 51, 0
6, 238044, Note_on_c, 9, 59, 51
6, 238114, Note_on_c, 9, 59, 0
6, 238661, Note_on_c, 9, 51, 80
6, 238665, Note_on_c, 9, 53, 85
6, 238667, Note_on_c, 9, 59, 108
6, 238817, Note_on_c, 9, 59, 0
6, 238843, Note_on_c, 9, 53, 0
6, 238907, Note_on_c, 9, 51, 0
6, 240629, Note_on_c, 9, 51, 60
6, 240633, Note_on_c, 9, 53, 66
6, 240702, Note_on_c, 9, 53, 0
6, 240734, Note_on_c, 9, 51, 0
6, 240911, Note_on_c, 9, 59, 85
6, 241238, Note_on_c, 9, 59, 0
6, 241497, Note_on_c, 9, 51, 71
6, 241499, Note_on_c, 9, 53, 78
6, 241610, Note_on_c, 9, 53, 0
6, 241620, Note_on_c, 9, 51, 0
6, 241858, Note_on_c, 9, 59, 69
6, 242375, Note_on_c, 9, 59, 0
6, 242840, Note_on_c, 9, 59, 88
6, 243216, Note_on_c, 9, 59, 0
6, 243803, Note_on_c, 9, 59, 87
6, 243994, Note_on_c, 9, 59, 0
6, 244399, Note_on_c, 9, 59, 59
6, 244501, Note_on_c, 9, 59, 0
6, 244712, Note_on_c, 9, 59, 80
6, 245108, Note_on_c, 9, 59, 0
6, 245701, Note_on_c, 9, 59, 85
6, 245957, Note_on_c, 9, 59, 0
6, 246706, Note_on_c, 9, 59, 89
6, 246923, Note_on_c, 9, 59, 0
6, 249100, Note_on_c, 9, 53, 66
6, 249196, Note_on_c, 9, 53, 0
6, 249467, Note_on_c, 9, 59, 57
6, 249990, Note_on_c, 9, 59, 0
6, 250543, Note_on_c, 9, 59, 69
6, 250880, Note_on_c, 9, 59, 0
6, 251557, Note_on_c, 9, 59, 80
6, 251767, Note_on_c, 9, 59, 0
6, 252145, Note_on_c, 9, 59, 59
6, 252274, Note_on_c, 9, 59, 0
6, 252472, Note_on_c, 9, 59, 70
6, 252783, Note_on_c, 9, 59, 0
6, 254974, Note_on_c, 9, 59, 67
6, 255128, Note_on_c, 9, 59, 0
6, 255318, Note_on_c, 9, 59, 67
6, 255620, Note_on_c, 9, 59, 0
6, 255964, Note_on_c, 9, 59, 64
6, 256033, Note_on_c, 9, 59, 0
6, 256303, Note_on_c, 9, 59, 103
6, 256849, Note_on_c, 9, 59, 0
6, 257236, Note_on_c, 9, 59, 101
6, 257767, Note_on_c, 9, 59, 0
6, 258248, Note_on_c, 9, 59, 110
6, 258920, Note_on_c, 9, 59, 0
6, 259861, Note_on_c, 9, 59, 49
6, 259988, Note_on_c, 9, 59, 0
6, 260140, Note_on_c, 9, 59, 76
6, 260608, Note_on_c, 9, 59, 0
6, 261134, Note_on_c, 9, 59, 87
6, 261779, Note_on_c, 9, 59, 0
6, 262691, Note_on_c, 9, 59, 53
6, 262804, Note_on_c, 9, 59, 0
6, 263039, Note_on_c, 9, 59, 77
6, 263417, Note_on_c, 9, 59, 0
6, 264667, Note_on_c, 9, 59, 45
6, 264765, Note_on_c, 9, 59, 0
6, 264947, Note_on_c, 9, 59, 64
6, 265293, Note_on_c, 9, 59, 0
6, 266424, Note_on_c, 9, 51, 54
6, 266478, Note_on_c, 9, 53, 35
6, 266568, Note_on_c, 9, 53, 0
6, 266612, Note_on_c, 9, 51, 0
6, 266820, Note_on_c, 9, 59, 54
6, 267133, Note_on_c, 9, 59, 0
6, 267423, Note_on_c, 9, 51, 52
6, 267429, Note_on_c, 9, 53, 58
6, 267555, Note_on_c, 9, 53, 0
6, 267557, Note_on_c, 9, 51, 0
6, 267772, Note_on_c, 9, 59, 49
6, 268164, Note_on_c, 9, 59, 0
6, 268772, Note_on_c, 9, 59, 72
6, 268985, Note_on_c, 9, 59, 0
6, 270394, Note_on_c, 9, 59, 62
6, 270547, Note_on_c, 9, 59, 0
6, 270766, Note_on_c, 9, 59, 83
6, 271075, Note_on_c, 9, 59, 0
6, 272323, Note_on_c, 9, 51, 59
6, 272446, Note_on_c, 9, 51, 0
6, 272657, Note_on_c, 9, 51, 69
6, 272891, Note_on_c, 9, 51, 0
6, 273597, Note_on_c, 9, 59, 66
6, 273787, Note_on_c, 9, 59, 0
6, 274589, Note_on_c, 9, 59, 68
6, 274748, Note_on_c, 9, 59, 0
6, 275475, Note_on_c, 9, 51, 79
6, 275659, Note_on_c, 9, 51, 0
6, 276497, Note_on_c, 9, 59, 55
6, 276652, Note_on_c, 9, 59, 0
6, 277474, Note_on_c, 9, 59, 66
6, 277672, Note_on_c, 9, 59, 0
6, 278431, Note_on_c, 9, 59, 75
6, 278642, Note_on_c, 9, 59, 0
6, 279010, Note_on_c, 9, 59, 70
6, 279148, Note_on_c, 9, 59, 0
6, 279314, Note_on_c, 9, 51, 56
6, 279499, Note_on_c, 9, 51, 0
6, 279929, Note_on_c, 9, 51, 67
6, 280075, Note_on_c, 9, 51, 0
6, 280294, Note_on_c, 9, 51, 77
6, 280495, Note_on_c, 9, 51, 0
6, 280949, Note_on_c, 9, 59, 67
6, 281128, Note_on_c, 9, 59, 0
6, 281335, Note_on_c, 9, 59, 64
6, 281674, Note_on_c, 9, 59, 0
6, 282272, Note_on_c, 9, 59, 95
6, 282613, Note_on_c, 9, 59, 0
6, 283790, Note_on_c, 9, 59, 67
6, 283950, Note_on_c, 9, 59, 0
6, 284145, Note_on_c, 9, 59, 79
6, 284536, Note_on_c, 9, 59, 0
6, 285766, Note_on_c, 9, 59, 63
6, 285890, Note_on_c, 9, 59, 0
6, 286090, Note_on_c, 9, 59, 67
6, 286420, Note_on_c, 9, 59, 0
6, 286658, Note_on_c, 9, 53, 72
6, 286662, Note_on_c, 9, 51, 70
6, 286810, Note_on_c, 9, 53, 0
6, 286846, Note_on_c, 9, 51, 0
6, 287052, Note_on_c, 9, 59, 65
6, 287238, Note_on_c, 9, 59, 0
6, 287596, Note_on_c, 9, 51, 74
6, 287597, Note_on_c, 9, 53, 80
6, 287732, Note_on_c, 9, 53, 0
6, 287778, Note_on_c, 9, 51, 0
6, 288003, Note_on_c, 9, 59, 67
6, 288398, Note_on_c, 9, 59, 0
6, 288916, Note_on_c, 9, 59, 80
6, 289370, Note_on_c, 9, 59, 0
6, 290496, Note_on_c, 9, 59, 58
6, 290646, Note_on_c, 9, 59, 0
6, 290843, Note_on_c, 9, 59, 87
6, 291358, Note_on_c, 9, 59, 0
6, 292490, Note_on_c, 9, 59, 49
6, 292569, Note_on_c, 9, 59, 0
6, 292792, Note_on_c, 9, 59, 90
6, 293251, Note_on_c, 9, 59, 0
6, 293781, Note_on_c, 9, 59, 95
6, 294339, Note_on_c, 9, 59, 0
6, 295331, Note_on_c, 9, 53, 66
6, 295348, Note_on_c, 9, 51, 54
6, 295449, Note_on_c, 9, 53, 0
6, 295453, Note_on_c, 9, 51, 0
6, 295675, Note_on_c, 9, 59, 87
6, 296153, Note_on_c, 9, 59, 0
6, 296360, Note_on_c, 9, 59, 49
6, 296473, Note_on_c, 9, 59, 0
6, 296650, Note_on_c, 9, 59, 80
6, 297184, Note_on_c, 9, 59, 0
6, 297653, Note_on_c, 9, 59, 82
6, 298066, Note_on_c, 9, 59, 0
6, 298577, Note_on_c, 9, 59, 85
6, 298995, Note_on_c, 9, 59, 0
6, 299514, Note_on_c, 9, 59, 96
6, 299916, Note_on_c, 9, 59, 0
6, 300440, Note_on_c, 9, 59, 95
6, 300884, Note_on_c, 9, 59, 0
6, 301404, Note_on_c, 9, 53, 72
6, 301418, Note_on_c, 9, 59, 85
6, 301869, Note_on_c, 9, 59, 0
6, 301902, Note_on_c, 9, 53, 0
6, 302339, Note_on_c, 9, 53, 73
6, 302354, Note_on_c, 9, 59, 94
6, 302759, Note_on_c, 9, 53, 0
6, 302774, Note_on_c, 9, 59, 0
6, 303300, Note_on_c, 9, 53, 89
6, 303302, Note_on_c, 9, 59, 105
6, 303531, Note_on_c, 9, 53, 0
6, 303672, Note_on_c, 9, 59, 0
6, 304295, Note_on_c, 9, 59, 57
6, 304517, Note_on_c, 9, 59, 0
6, 304910, Note_on_c, 9, 59, 50
6, 305091, Note_on_c, 9, 59, 0
6, 305239, Note_on_c, 9, 59, 75
6, 305321, Note_on_c, 9, 53, 71
6, 305386, Note_on_c, 9, 52, 29
6, 305450, Note_on_c, 9, 52, 0
6, 305452, Note_on_c, 9, 59, 0
6, 305471, Note_on_c, 9, 53, 0
6, 306816, Note_on_c, 9, 51, 67
6, 306818, Note_on_c, 9, 53, 75
6, 306828, Note_on_c, 9, 59, 90
6, 306964, Note_on_c, 9, 53, 0
6, 307003, Note_on_c, 9, 51, 0
6, 307032, Note_on_c, 9, 59, 0
6, 307830, Note_on_c, 9, 59, 58
6, 307961, Note_on_c, 9, 59, 0
6, 308195, Note_on_c, 9, 59, 63
6, 308536, Note_on_c, 9, 59, 0
6, 308856, Note_on_c, 9, 59, 49
6, 308940, Note_on_c, 9, 59, 0
6, 309142, Note_on_c, 9, 59, 78
6, 309517, Note_on_c, 9, 59, 0
6, 310062, Note_on_c, 9, 59, 91
6, 310233, Note_on_c, 9, 59, 0
6, 311014, Note_on_c, 9, 59, 68
6, 311367, Note_on_c, 9, 59, 0
6, 312721, Note_on_c, 9, 59, 51
6, 312794, Note_on_c, 9, 59, 0
6, 313009, Note_on_c, 9, 59, 80
6, 313728, Note_on_c, 9, 59, 0
6, 314540, Note_on_c, 9, 59, 65
6, 314688, Note_on_c, 9, 59, 0
6, 314857, Note_on_c, 9, 59, 73
6, 315232, Note_on_c, 9, 59, 0
6, 315835, Note_on_c, 9, 59, 80
6, 316305, Note_on_c, 9, 59, 0
6, 316783, Note_on_c, 9, 59, 81
6, 317303, Note_on_c, 9, 59, 0
6, 318385, Note_on_c, 9, 59, 64
6, 318531, Note_on_c, 9, 59, 0
6, 318696, Note_on_c, 9, 59, 76
6, 318967, Note_on_c, 9, 59, 0
6, 319614, Note_on_c, 9, 59, 80
6, 320084, Note_on_c, 9, 59, 0
6, 321262, Note_on_c, 9, 59, 55
6, 321414, Note_on_c, 9, 59, 0
6, 321583, Note_on_c, 9, 59, 71
6, 321948, Note_on_c, 9, 59, 0
6, 322553, Note_on_c, 9, 59, 83
6, 322778, Note_on_c, 9, 59, 0
6, 323523, Note_on_c, 9, 59, 80
6, 323715, Note_on_c, 9, 59, 0
6, 325053, Note_on_c, 9, 59, 56
6, 325178, Note_on_c, 9, 59, 0
6, 325452, Note_on_c, 9, 59, 68
6, 325681, Note_on_c, 9, 59, 0
6, 326417, Note_on_c, 9, 59, 85
6, 326427, Note_on_c, 9, 53, 80
6, 326571, Note_on_c, 9, 59, 0
6, 326575, Note_on_c, 9, 53, 0
6, 327439, Note_on_c, 9, 59, 47
6, 327514, Note_on_c, 9, 59, 0
6, 327941, Note_on_c, 9, 59, 83
6, 327946, Note_on_c, 9, 53, 72
6, 328131, Note_on_c, 9, 53, 0
6, 328134, Note_on_c, 9, 59, 0
6, 328959, Note_on_c, 9, 59, 28
6, 329024, Note_on_c, 9, 59, 0
6, 329361, Note_on_c, 9, 57, 66
6, 329363, Note_on_c, 9, 59, 73
6, 329378, Note_on_c, 9, 53, 72
6, 331351, Note_on_c, 9, 57, 0
6, 331520, Note_on_c, 9, 59, 0
6, 332086, Note_on_c, 9, 53, 0
6, 334094, Note_on_c, 9, 59, 68
6, 334244, Note_on_c, 9, 59, 0
6, 335570, Note_on_c, 9, 59, 65
6, 335705, Note_on_c, 9, 59, 0
6, 335895, Note_on_c, 9, 59, 73
6, 336073, Note_on_c, 9, 59, 0
6, 337864, Note_on_c, 9, 59, 74
6, 337998, Note_on_c, 9, 59, 0
6, 339811, Note_on_c, 9, 59, 74
6, 339949, Note_on_c, 9, 59, 0
6, 341465, Note_on_c, 9, 59, 63
6, 341586, Note_on_c, 9, 59, 0
6, 341726, Note_on_c, 9, 59, 79
6, 342191, Note_on_c, 9, 59, 0
6, 342711, Note_on_c, 9, 59, 101
6, 343200, Note_on_c, 9, 59, 0
6, 344308, Note_on_c, 9, 59, 58
6, 344410, Note_on_c, 9, 59, 0
6, 344620, Note_on_c, 9, 59, 90
6, 345046, Note_on_c, 9, 59, 0
6, 345585, Note_on_c, 9, 59, 110
6, 346061, Note_on_c, 9, 59, 0
6, 346528, Note_on_c, 9, 59, 64
6, 346661, Note_on_c, 9, 59, 0
6, 347131, Note_on_c, 9, 53, 47
6, 347145, Note_on_c, 9, 51, 31
6, 347198, Note_on_c, 9, 53, 0
6, 347207, Note_on_c, 9, 51, 0
6, 347436, Note_on_c, 9, 59, 70
6, 347952, Note_on_c, 9, 59, 0
6, 348133, Note_on_c, 9, 53, 66
6, 348146, Note_on_c, 9, 51, 36
6, 348198, Note_on_c, 9, 53, 0
6, 348209, Note_on_c, 9, 51, 0
6, 348484, Note_on_c, 9, 59, 53
6, 348909, Note_on_c, 9, 59, 0
6, 349397, Note_on_c, 9, 59, 87
6, 349757, Note_on_c, 9, 59, 0
6, 350926, Note_on_c, 9, 59, 59
6, 351041, Note_on_c, 9, 59, 0
6, 351243, Note_on_c, 9, 59, 68
6, 351717, Note_on_c, 9, 59, 0
6, 351928, Note_on_c, 9, 51, 69
6, 352193, Note_on_c, 9, 51, 0
6, 352333, Note_on_c, 9, 59, 57
6, 352761, Note_on_c, 9, 59, 0
6, 353252, Note_on_c, 9, 59, 77
6, 353680, Note_on_c, 9, 59, 0
6, 354235, Note_on_c, 9, 59, 82
6, 354653, Note_on_c, 9, 59, 0
6, 355166, Note_on_c, 9, 51, 57
6, 355461, Note_on_c, 9, 51, 0
6, 355739, Note_on_c, 9, 51, 53
6, 355952, Note_on_c, 9, 51, 0
6, 356135, Note_on_c, 9, 59, 90
6, 356672, Note_on_c, 9, 59, 0
6, 357072, Note_on_c, 9, 51, 31
6, 357324, Note_on_c, 9, 51, 0
6, 357684, Note_on_c, 9, 51, 44
6, 357892, Note_on_c, 9, 51, 0
6, 358014, Note_on_c, 9, 59, 94
6, 358555, Note_on_c, 9, 59, 0
6, 359019, Note_on_c, 9, 59, 87
6, 359695, Note_on_c, 9, 59, 0
6, 362874, Note_on_c, 9, 59, 80
6, 363014, Note_on_c, 9, 59, 0
6, 363440, Note_on_c, 9, 59, 83
6, 363576, Note_on_c, 9, 59, 0
6, 363781, Note_on_c, 9, 51, 52
6, 364246, Note_on_c, 9, 51, 0
6, 365762, Note_on_c, 9, 59, 45
6, 365852, Note_on_c, 9, 59, 0
6, 366040, Note_on_c, 9, 59, 62
6, 366213, Note_on_c, 9, 59, 0
6, 366353, Note_on_c, 9, 59, 81
6, 366520, Note_on_c, 9, 59, 0
6, 366685, Note_on_c, 9, 51, 47
6, 366909, Note_on_c, 9, 51, 0
6, 367358, Note_on_c, 9, 51, 51
6, 367537, Note_on_c, 9, 51, 0
6, 367786, Note_on_c, 9, 59, 50
6, 367861, Note_on_c, 9, 59, 0
6, 368295, Note_on_c, 9, 51, 61
6, 368550, Note_on_c, 9, 51, 0
6, 368664, Note_on_c, 9, 59, 68
6, 369135, Note_on_c, 9, 59, 0
6, 370280, Note_on_c, 9, 59, 69
6, 370470, Note_on_c, 9, 59, 0
6, 370864, Note_on_c, 9, 59, 74
6, 371239, Note_on_c, 9, 59, 0
6, 371529, Note_on_c, 9, 59, 89
6, 372149, Note_on_c, 9, 59, 0
6, 373085, Note_on_c, 9, 59, 61
6, 373231, Note_on_c, 9, 59, 0
6, 373384, Note_on_c, 9, 59, 76
6, 373820, Note_on_c, 9, 59, 0
6, 374355, Note_on_c, 9, 51, 46
6, 374568, Note_on_c, 9, 51, 0
6, 374935, Note_on_c, 9, 51, 40
6, 375070, Note_on_c, 9, 51, 0
6, 375266, Note_on_c, 9, 59, 73
6, 375777, Note_on_c, 9, 59, 0
6, 376301, Note_on_c, 9, 59, 82
6, 376807, Note_on_c, 9, 59, 0
6, 377287, Note_on_c, 9, 59, 81
6, 377665, Note_on_c, 9, 59, 0
6, 378852, Note_on_c, 9, 59, 67
6, 379026, Note_on_c, 9, 59, 0
6, 379159, Note_on_c, 9, 59, 80
6, 379700, Note_on_c, 9, 59, 0
6, 380149, Note_on_c, 9, 59, 79
6, 380571, Note_on_c, 9, 59, 0
6, 381047, Note_on_c, 9, 59, 77
6, 382044, Note_on_c, 9, 59, 0
6, 382629, Note_on_c, 9, 59, 63
6, 382813, Note_on_c, 9, 59, 0
6, 382965, Note_on_c, 9, 59, 66
6, 383412, Note_on_c, 9, 59, 0
6, 383992, Note_on_c, 9, 59, 74
6, 384346, Note_on_c, 9, 59, 0
6, 384900, Note_on_c, 9, 59, 77
6, 385499, Note_on_c, 9, 59, 0
6, 386908, Note_on_c, 9, 59, 57
6, 386979, Note_on_c, 9, 59, 0
6, 387451, Note_on_c, 9, 59, 74
6, 387606, Note_on_c, 9, 59, 0
6, 387780, Note_on_c, 9, 59, 87
6, 388427, Note_on_c, 9, 59, 0
6, 389375, Note_on_c, 9, 59, 58
6, 389477, Note_on_c, 9, 59, 0
6, 389684, Note_on_c, 9, 59, 80
6, 390120, Note_on_c, 9, 59, 0
6, 391242, Note_on_c, 9, 59, 80
6, 391438, Note_on_c, 9, 59, 0
6, 392221, Note_on_c, 9, 53, 72
6, 392384, Note_on_c, 9, 53, 0
6, 392586, Note_on_c, 9, 59, 61
6, 392976, Note_on_c, 9, 59, 0
6, 394142, Note_on_c, 9, 53, 55
6, 394238, Note_on_c, 9, 53, 0
6, 394493, Note_on_c, 9, 59, 62
6, 394777, Note_on_c, 9, 59, 0
6, 395102, Note_on_c, 9, 59, 76
6, 395257, Note_on_c, 9, 59, 0
6, 395430, Note_on_c, 9, 59, 68
6, 395743, Note_on_c, 9, 59, 0
6, 396420, Note_on_c, 9, 59, 91
6, 396851, Note_on_c, 9, 59, 0
6, 397137, Note_on_c, 9, 59, 61
6, 397254, Note_on_c, 9, 59, 0
6, 397429, Note_on_c, 9, 59, 83
6, 397872, Note_on_c, 9, 59, 0
6, 399029, Note_on_c, 9, 59, 58
6, 399160, Note_on_c, 9, 59, 0
6, 399360, Note_on_c, 9, 59, 78
6, 399692, Note_on_c, 9, 59, 0
6, 399952, Note_on_c, 9, 59, 66
6, 400084, Note_on_c, 9, 59, 0
6, 400307, Note_on_c, 9, 59, 94
6, 400817, Note_on_c, 9, 59, 0
6, 401829, Note_on_c, 9, 59, 62
6, 401960, Note_on_c, 9, 59, 0
6, 402188, Note_on_c, 9, 59, 85
6, 402581, Note_on_c, 9, 59, 0
6, 402795, Note_on_c, 9, 59, 58
6, 402883, Note_on_c, 9, 59, 0
6, 403159, Note_on_c, 9, 59, 89
6, 403645, Note_on_c, 9, 59, 0
6, 404745, Note_on_c, 9, 59, 63
6, 404872, Note_on_c, 9, 59, 0
6, 405112, Note_on_c, 9, 59, 75
6, 405413, Note_on_c, 9, 59, 0
6, 405682, Note_on_c, 9, 53, 42
6, 405770, Note_on_c, 9, 53, 0
6, 406118, Note_on_c, 9, 59, 36
6, 406199, Note_on_c, 9, 59, 0
6, 408050, Note_on_c, 9, 59, 74
6, 408058, Note_on_c, 9, 53, 66
6, 408240, Note_on_c, 9, 53, 0
6, 408352, Note_on_c, 9, 59, 0
6, 408977, Note_on_c, 9, 59, 77
6, 408980, Note_on_c, 9, 53, 62
6, 409256, Note_on_c, 9, 53, 0
6, 409281, Note_on_c, 9, 59, 0
6, 409542, Note_on_c, 9, 59, 66
6, 409695, Note_on_c, 9, 59, 0
6, 409949, Note_on_c, 9, 59, 77
6, 409962, Note_on_c, 9, 53, 56
6, 410304, Note_on_c, 9, 53, 0
6, 410335, Note_on_c, 9, 59, 0
6, 411857, Note_on_c, 9, 59, 83
6, 411890, Note_on_c, 9, 53, 61
6, 412335, Note_on_c, 9, 53, 0
6, 412406, Note_on_c, 9, 59, 0
6, 413424, Note_on_c, 9, 59, 63
6, 413562, Note_on_c, 9, 59, 0
6, 413746, Note_on_c, 9, 59, 75
6, 414168, Note_on_c, 9, 59, 0
6, 414715, Note_on_c, 9, 59, 75
6, 414753, Note_on_c, 9, 53, 48
6, 415097, Note_on_c, 9, 59, 0
6, 415109, Note_on_c, 9, 53, 0
6, 415650, Note_on_c, 9, 59, 79
6, 415650, Note_on_c, 9, 53, 66
6, 415936, Note_on_c, 9, 53, 0
6, 415959, Note_on_c, 9, 59, 0
6, 416709, Note_on_c, 9, 59, 42
6, 416803, Note_on_c, 9, 59, 0
6, 416995, Note_on_c, 9, 59, 68
6, 417158, Note_on_c, 9, 59, 0
6, 417310, Note_on_c, 9, 59, 76
6, 417358, Note_on_c, 9, 53, 65
6, 417581, Note_on_c, 9, 59, 0
6, 417595, Note_on_c, 9, 53, 0
6, 418025, Note_on_c, 9, 59, 30
6, 418136, Note_on_c, 9, 59, 0
6, 418253, Note_on_c, 9, 59, 70
6, 418414, Note_on_c, 9, 59, 0
6, 418603, Note_on_c, 9, 59, 87
6, 418612, Note_on_c, 9, 53, 66
6, 419015, Note_on_c, 9, 53, 0
6, 419139, Note_on_c, 9, 59, 0
6, 419557, Note_on_c, 9, 59, 59
6, 419636, Note_on_c, 9, 59, 0
6, 419873, Note_on_c, 9, 59, 75
6, 420016, Note_on_c, 9, 59, 0
6, 420191, Note_on_c, 9, 59, 82
6, 420208, Note_on_c, 9, 53, 69
6, 420551, Note_on_c, 9, 53, 0
6, 420599, Note_on_c, 9, 59, 0
6, 420889, Note_on_c, 9, 59, 68
6, 421052, Note_on_c, 9, 59, 0
6, 421173, Note_on_c, 9, 59, 74
6, 421342, Note_on_c, 9, 59, 0
6, 421509, Note_on_c, 9, 53, 82
6, 421520, Note_on_c, 9, 59, 90
6, 421927, Note_on_c, 9, 59, 0
6, 421969, Note_on_c, 9, 53, 0
6, 423993, Note_on_c, 9, 59, 68
6, 424032, Note_on_c, 9, 53, 44
6, 424092, Note_on_c, 9, 59, 0
6, 424113, Note_on_c, 9, 53, 0
6, 424318, Note_on_c, 9, 59, 91
6, 424793, Note_on_c, 9, 59, 0
6, 425251, Note_on_c, 9, 59, 89
6, 425655, Note_on_c, 9, 59, 0
6, 426217, Note_on_c, 9, 59, 89
6, 426645, Note_on_c, 9, 59, 0
6, 428049, Note_on_c, 9, 59, 78
6, 428284, Note_on_c, 9, 59, 0
6, 428734, Note_on_c, 9, 59, 57
6, 428880, Note_on_c, 9, 59, 0
6, 429084, Note_on_c, 9, 59, 68
6, 429527, Note_on_c, 9, 59, 0
6, 430059, Note_on_c, 9, 59, 80
6, 430552, Note_on_c, 9, 59, 0
6, 431028, Note_on_c, 9, 59, 74
6, 431438, Note_on_c, 9, 59, 0
6, 431972, Note_on_c, 9, 59, 64
6, 432277, Note_on_c, 9, 59, 0
6, 432555, Note_on_c, 9, 59, 73
6, 432728, Note_on_c, 9, 59, 0
6, 432912, Note_on_c, 9, 59, 58
6, 433244, Note_on_c, 9, 59, 0
6, 433856, Note_on_c, 9, 59, 77
6, 434284, Note_on_c, 9, 59, 0
6, 434871, Note_on_c, 9, 59, 78
6, 435414, Note_on_c, 9, 59, 0
6, 436791, Note_on_c, 9, 59, 76
6, 436795, Note_on_c, 9, 53, 64
6, 437259, Note_on_c, 9, 59, 0
6, 437309, Note_on_c, 9, 53, 0
6, 437760, Note_on_c, 9, 53, 56
6, 437767, Note_on_c, 9, 59, 72
6, 438276, Note_on_c, 9, 53, 0
6, 438308, Note_on_c, 9, 59, 0
6, 440229, Note_on_c, 9, 59, 51
6, 440329, Note_on_c, 9, 59, 0
6, 440582, Note_on_c, 9, 59, 69
6, 440962, Note_on_c, 9, 59, 0
6, 441560, Note_on_c, 9, 59, 80
6, 441570, Note_on_c, 9, 53, 63
6, 442647, Note_on_c, 9, 53, 0
6, 442758, Note_on_c, 9, 59, 0
6, 444470, Note_on_c, 9, 59, 88
6, 444927, Note_on_c, 9, 59, 0
6, 445469, Note_on_c, 9, 59, 99
6, 446291, Note_on_c, 9, 59, 0
6, 446986, Note_on_c, 9, 59, 63
6, 447076, Note_on_c, 9, 59, 0
6, 447343, Note_on_c, 9, 59, 90
6, 448023, Note_on_c, 9, 59, 0
6, 448978, Note_on_c, 9, 59, 47
6, 449074, Note_on_c, 9, 59, 0
6, 449296, Note_on_c, 9, 59, 87
6, 450576, Note_on_c, 9, 59, 0
6, 450910, Note_on_c, 9, 59, 50
6, 450992, Note_on_c, 9, 59, 0
6, 451200, Note_on_c, 9, 59, 94
6, 452380, Note_on_c, 9, 59, 0
6, 452758, Note_on_c, 9, 59, 70
6, 452902, Note_on_c, 9, 59, 0
6, 453090, Note_on_c, 9, 59, 91
6, 454312, Note_on_c, 9, 59, 0
6, 454731, Note_on_c, 9, 59, 66
6, 454852, Note_on_c, 9, 59, 0
6, 455063, Note_on_c, 9, 59, 89
6, 455712, Note_on_c, 9, 59, 0
6, 455948, Note_on_c, 9, 59, 8
6, 456189, Note_on_c, 9, 59, 0
6, 456555, Note_on_c, 9, 53, 90
6, 456569, Note_on_c, 9, 51, 72
6, 456841, Note_on_c, 9, 53, 0
6, 456870, Note_on_c, 9, 51, 0
6, 457044, Note_on_c, 9, 51, 38
6, 457110, Note_on_c, 9, 51, 0
6, 457886, Note_on_c, 9, 51, 88
6, 458358, Note_on_c, 9, 51, 0
6, 458890, Note_on_c, 9, 51, 93
6, 459285, Note_on_c, 9, 51, 0
6, 459843, Note_on_c, 9, 51, 88
6, 460191, Note_on_c, 9, 51, 0
6, 460554, Note_on_c, 9, 51, 60
6, 460656, Note_on_c, 9, 51, 0
6, 460794, Note_on_c, 9, 51, 77
6, 461375, Note_on_c, 9, 51, 0
6, 461769, Note_on_c, 9, 51, 92
6, 462365, Note_on_c, 9, 51, 0
6, 463367, Note_on_c, 9, 51, 56
6, 463491, Note_on_c, 9, 51, 0
6, 463658, Note_on_c, 9, 51, 79
6, 464204, Note_on_c, 9, 51, 0
6, 464602, Note_on_c, 9, 51, 87
6, 465130, Note_on_c, 9, 51, 0
6, 465586, Note_on_c, 9, 51, 85
6, 465860, Note_on_c, 9, 51, 0
6, 466296, Note_on_c, 9, 51, 37
6, 466380, Note_on_c, 9, 51, 0
6, 466532, Note_on_c, 9, 51, 71
6, 467130, Note_on_c, 9, 51, 0
6, 467511, Note_on_c, 9, 51, 86
6, 468012, Note_on_c, 9, 51, 0
6, 468463, Note_on_c, 9, 51, 87
6, 468841, Note_on_c, 9, 51, 0
6, 469128, Note_on_c, 9, 51, 48
6, 469243, Note_on_c, 9, 51, 0
6, 469402, Note_on_c, 9, 51, 76
6, 469963, Note_on_c, 9, 51, 0
6, 470382, Note_on_c, 9, 51, 88
6, 470727, Note_on_c, 9, 51, 0
6, 471038, Note_on_c, 9, 51, 47
6, 471176, Note_on_c, 9, 51, 0
6, 471345, Note_on_c, 9, 51, 76
6, 471888, Note_on_c, 9, 51, 0
6, 472329, Note_on_c, 9, 51, 84
6, 472788, Note_on_c, 9, 51, 0
6, 473299, Note_on_c, 9, 51, 83
6, 473697, Note_on_c, 9, 51, 0
6, 473973, Note_on_c, 9, 51, 46
6, 474081, Note_on_c, 9, 51, 0
6, 474217, Note_on_c, 9, 51, 71
6, 474820, Note_on_c, 9, 51, 0
6, 475204, Note_on_c, 9, 51, 86
6, 475662, Note_on_c, 9, 51, 0
6, 475873, Note_on_c, 9, 51, 42
6, 476015, Note_on_c, 9, 51, 0
6, 476159, Note_on_c, 9, 51, 68
6, 476793, Note_on_c, 9, 51, 0
6, 477125, Note_on_c, 9, 51, 86
6, 477583, Note_on_c, 9, 51, 0
6, 477832, Note_on_c, 9, 51, 48
6, 477964, Note_on_c, 9, 51, 0
6, 478083, Note_on_c, 9, 51, 71
6, 478699, Note_on_c, 9, 51, 0
6, 479047, Note_on_c, 9, 51, 86
6, 479633, Note_on_c, 9, 51, 0
6, 480029, Note_on_c, 9, 51, 85
6, 480626, Note_on_c, 9, 51, 0
6, 480954, Note_on_c, 9, 51, 83
6, 481472, Note_on_c, 9, 51, 0
6, 481630, Note_on_c, 9, 51, 46
6, 481764, Note_on_c, 9, 51, 0
6, 481895, Note_on_c, 9, 51, 67
6, 482487, Note_on_c, 9, 51, 0
6, 482853, Note_on_c, 9, 51, 88
6, 483331, Note_on_c, 9, 51, 0
6, 483486, Note_on_c, 9, 51, 36
6, 483607, Note_on_c, 9, 51, 0
6, 483778, Note_on_c, 9, 51, 71
6, 484360, Note_on_c, 9, 51, 0
6, 484732, Note_on_c, 9, 51, 87
6, 485322, Note_on_c, 9, 51, 0
6, 485784, Note_on_c, 9, 51, 87
6, 486270, Note_on_c, 9, 51, 0
6, 486420, Note_on_c, 9, 51, 42
6, 486548, Note_on_c, 9, 51, 0
6, 486684, Note_on_c, 9, 51, 70
6, 487141, Note_on_c, 9, 51, 0
6, 487344, Note_on_c, 9, 51, 93
6, 487963, Note_on_c, 9, 51, 0
6, 488313, Note_on_c, 9, 51, 43
6, 488385, Note_on_c, 9, 51, 0
6, 488624, Note_on_c, 9, 51, 85
6, 489282, Note_on_c, 9, 51, 0
6, 489618, Note_on_c, 9, 51, 85
6, 490116, Note_on_c, 9, 51, 0
6, 490527, Note_on_c, 9, 51, 91
6, 490978, Note_on_c, 9, 51, 0
6, 491429, Note_on_c, 9, 51, 71
6, 491760, Note_on_c, 9, 51, 0
6, 492408, Note_on_c, 9, 51, 78
6, 492759, Note_on_c, 9, 51, 0
6, 493158, Note_on_c, 9, 51, 71
6, 493266, Note_on_c, 9, 51, 0
6, 493465, Note_on_c, 9, 51, 74
6, 494084, Note_on_c, 9, 51, 0
6, 494407, Note_on_c, 9, 51, 77
6, 494802, Note_on_c, 9, 51, 0
6, 495104, Note_on_c, 9, 51, 67
6, 495225, Note_on_c, 9, 51, 0
6, 495360, Note_on_c, 9, 51, 74
6, 495920, Note_on_c, 9, 51, 0
6, 496307, Note_on_c, 9, 51, 81
6, 496822, Note_on_c, 9, 51, 0
6, 497265, Note_on_c, 9, 51, 78
6, 497906, Note_on_c, 9, 51, 0
6, 497917, Note_on_c, 9, 53, 84
6, 498106, Note_on_c, 9, 53, 0
6, 498229, Note_on_c, 9, 51, 36
6, 499072, Note_on_c, 9, 51, 0
6, 499193, Note_on_c, 9, 51, 72
6, 499900, Note_on_c, 9, 51, 0
6, 500133, Note_on_c, 9, 51, 73
6, 500817, Note_on_c, 9, 51, 0
6, 501107, Note_on_c, 9, 51, 78
6, 501450, Note_on_c, 9, 51, 0
6, 501761, Note_on_c, 9, 51, 59
6, 501851, Note_on_c, 9, 51, 0
6, 502007, Note_on_c, 9, 51, 78
6, 502588, Note_on_c, 9, 51, 0
6, 503226, Note_on_c, 9, 51, 48
6, 503357, Note_on_c, 9, 51, 0
6, 503517, Note_on_c, 9, 51, 74
6, 503719, Note_on_c, 9, 51, 0
6, 503865, Note_on_c, 9, 51, 69
6, 504540, Note_on_c, 9, 51, 0
6, 504853, Note_on_c, 9, 51, 83
6, 505464, Note_on_c, 9, 51, 0
6, 505853, Note_on_c, 9, 51, 84
6, 506249, Note_on_c, 9, 51, 0
6, 506548, Note_on_c, 9, 51, 44
6, 506688, Note_on_c, 9, 51, 0
6, 506828, Note_on_c, 9, 51, 65
6, 507457, Note_on_c, 9, 51, 0
6, 507829, Note_on_c, 9, 51, 86
6, 508378, Note_on_c, 9, 51, 0
6, 508806, Note_on_c, 9, 51, 85
6, 509256, Note_on_c, 9, 51, 0
6, 509745, Note_on_c, 9, 51, 85
6, 510091, Note_on_c, 9, 51, 0
6, 510388, Note_on_c, 9, 51, 59
6, 510521, Note_on_c, 9, 51, 0
6, 510659, Note_on_c, 9, 51, 67
6, 511193, Note_on_c, 9, 51, 0
6, 511621, Note_on_c, 9, 51, 85
6, 512257, Note_on_c, 9, 51, 0
6, 512635, Note_on_c, 9, 51, 78
6, 512991, Note_on_c, 9, 51, 0
6, 513259, Note_on_c, 9, 53, 82
6, 513546, Note_on_c, 9, 53, 0
6, 513653, Note_on_c, 9, 51, 43
6, 514251, Note_on_c, 9, 51, 0
6, 514585, Note_on_c, 9, 51, 83
6, 515143, Note_on_c, 9, 51, 0
6, 515564, Note_on_c, 9, 51, 87
6, 515972, Note_on_c, 9, 51, 0
6, 516262, Note_on_c, 9, 51, 50
6, 516354, Note_on_c, 9, 51, 0
6, 516508, Note_on_c, 9, 51, 70
6, 517086, Note_on_c, 9, 51, 0
6, 517451, Note_on_c, 9, 51, 83
6, 517847, Note_on_c, 9, 51, 0
6, 518102, Note_on_c, 9, 51, 57
6, 518228, Note_on_c, 9, 51, 0
6, 518398, Note_on_c, 9, 51, 69
6, 518900, Note_on_c, 9, 51, 0
6, 519345, Note_on_c, 9, 51, 86
6, 519848, Note_on_c, 9, 51, 0
6, 520263, Note_on_c, 9, 51, 83
6, 520782, Note_on_c, 9, 51, 0
6, 521233, Note_on_c, 9, 51, 82
6, 521566, Note_on_c, 9, 51, 0
6, 521904, Note_on_c, 9, 51, 53
6, 522029, Note_on_c, 9, 51, 0
6, 522165, Note_on_c, 9, 51, 69
6, 522811, Note_on_c, 9, 51, 0
6, 523169, Note_on_c, 9, 51, 84
6, 523724, Note_on_c, 9, 51, 0
6, 524146, Note_on_c, 9, 51, 85
6, 524539, Note_on_c, 9, 51, 0
6, 524804, Note_on_c, 9, 51, 50
6, 524932, Note_on_c, 9, 51, 0
6, 525067, Note_on_c, 9, 51, 69
6, 525737, Note_on_c, 9, 51, 0
6, 526023, Note_on_c, 9, 51, 88
6, 526693, Note_on_c, 9, 51, 0
6, 527024, Note_on_c, 9, 51, 83
6, 527513, Note_on_c, 9, 51, 0
6, 527680, Note_on_c, 9, 51, 45
6, 527828, Note_on_c, 9, 51, 0
6, 527963, Note_on_c, 9, 51, 67
6, 528601, Note_on_c, 9, 51, 0
6, 528937, Note_on_c, 9, 51, 82
6, 529194, Note_on_c, 9, 51, 0
6, 529861, Note_on_c, 9, 51, 71
6, 530345, Note_on_c, 9, 51, 0
6, 531484, Note_on_c, 9, 51, 65
6, 531676, Note_on_c, 9, 51, 0
6, 531809, Note_on_c, 9, 51, 68
6, 532179, Note_on_c, 9, 51, 0
6, 532750, Note_on_c, 9, 51, 77
6, 533080, Note_on_c, 9, 51, 0
6, 533458, Note_on_c, 9, 51, 62
6, 533597, Note_on_c, 9, 51, 0
6, 533725, Note_on_c, 9, 51, 67
6, 534234, Note_on_c, 9, 51, 0
6, 534701, Note_on_c, 9, 51, 62
6, 535066, Note_on_c, 9, 51, 0
6, 535414, Note_on_c, 9, 51, 68
6, 535544, Note_on_c, 9, 51, 0
6, 535684, Note_on_c, 9, 51, 71
6, 536178, Note_on_c, 9, 51, 0
6, 536626, Note_on_c, 9, 51, 75
6, 537059, Note_on_c, 9, 51, 0
6, 537587, Note_on_c, 9, 51, 78
6, 537962, Note_on_c, 9, 51, 0
6, 538540, Note_on_c, 9, 51, 77
6, 538881, Note_on_c, 9, 51, 0
6, 539256, Note_on_c, 9, 51, 59
6, 539339, Note_on_c, 9, 51, 0
6, 539500, Note_on_c, 9, 51, 77
6, 540026, Note_on_c, 9, 51, 0
6, 540461, Note_on_c, 9, 51, 78
6, 540805, Note_on_c, 9, 51, 0
6, 541148, Note_on_c, 9, 51, 62
6, 541269, Note_on_c, 9, 51, 0
6, 541402, Note_on_c, 9, 51, 73
6, 541828, Note_on_c, 9, 51, 0
6, 542389, Note_on_c, 9, 51, 78
6, 542828, Note_on_c, 9, 51, 0
6, 543353, Note_on_c, 9, 51, 77
6, 543754, Note_on_c, 9, 51, 0
6, 543980, Note_on_c, 9, 51, 75
6, 544020, Note_on_c, 9, 53, 74
6, 544549, Note_on_c, 9, 51, 0
6, 544612, Note_on_c, 9, 53, 0
6, 544906, Note_on_c, 9, 51, 61
6, 545061, Note_on_c, 9, 51, 0
6, 545322, Note_on_c, 9, 51, 75
6, 545330, Note_on_c, 9, 53, 76
6, 545952, Note_on_c, 9, 53, 0
6, 545975, Note_on_c, 9, 51, 0
6, 546245, Note_on_c, 9, 51, 70
6, 546510, Note_on_c, 9, 51, 0
6, 546884, Note_on_c, 9, 51, 80
6, 546890, Note_on_c, 9, 53, 84
6, 547307, Note_on_c, 9, 51, 0
6, 547336, Note_on_c, 9, 53, 0
6, 547767, Note_on_c, 9, 51, 70
6, 548004, Note_on_c, 9, 51, 0
6, 548119, Note_on_c, 9, 51, 68
6, 548161, Note_on_c, 9, 53, 76
6, 548532, Note_on_c, 9, 51, 0
6, 548542, Note_on_c, 9, 53, 0
6, 549093, Note_on_c, 9, 51, 75
6, 549304, Note_on_c, 9, 51, 0
6, 550105, Note_on_c, 9, 51, 76
6, 550408, Note_on_c, 9, 51, 0
6, 550997, Note_on_c, 9, 51, 62
6, 551292, Note_on_c, 9, 51, 0
6, 551960, Note_on_c, 9, 51, 69
6, 552229, Note_on_c, 9, 51, 0
6, 552661, Note_on_c, 9, 51, 57
6, 552795, Note_on_c, 9, 51, 0
6, 552917, Note_on_c, 9, 51, 64
6, 553324, Note_on_c, 9, 51, 0
6, 553895, Note_on_c, 9, 51, 71
6, 554227, Note_on_c, 9, 51, 0
6, 554864, Note_on_c, 9, 51, 72
6, 555174, Note_on_c, 9, 51, 0
6, 555809, Note_on_c, 9, 51, 73
6, 556112, Note_on_c, 9, 51, 0
6, 556521, Note_on_c, 9, 51, 60
6, 556640, Note_on_c, 9, 51, 0
6, 556771, Note_on_c, 9, 51, 65
6, 557226, Note_on_c, 9, 51, 0
6, 557749, Note_on_c, 9, 51, 72
6, 558121, Note_on_c, 9, 51, 0
6, 558695, Note_on_c, 9, 51, 69
6, 558899, Note_on_c, 9, 51, 0
6, 559427, Note_on_c, 9, 51, 38
6, 559550, Note_on_c, 9, 51, 0
6, 559673, Note_on_c, 9, 51, 74
6, 560268, Note_on_c, 9, 51, 0
6, 560658, Note_on_c, 9, 51, 92
6, 561166, Note_on_c, 9, 51, 0
6, 561624, Note_on_c, 9, 51, 88
6, 561813, Note_on_c, 9, 51, 0
6, 562306, Note_on_c, 9, 51, 55
6, 562386, Note_on_c, 9, 51, 0
6, 562584, Note_on_c, 9, 51, 84
6, 563110, Note_on_c, 9, 51, 0
6, 563511, Note_on_c, 9, 51, 92
6, 564038, Note_on_c, 9, 51, 0
6, 564491, Note_on_c, 9, 51, 83
6, 564660, Note_on_c, 9, 51, 0
6, 565082, Note_on_c, 9, 51, 64
6, 565280, Note_on_c, 9, 51, 0
6, 565389, Note_on_c, 9, 59, 79
6, 565508, Note_on_c, 9, 59, 0
6, 566363, Note_on_c, 9, 59, 96
6, 566540, Note_on_c, 9, 59, 0
6, 567019, Note_on_c, 9, 51, 64
6, 567129, Note_on_c, 9, 51, 0
6, 567292, Note_on_c, 9, 51, 71
6, 567814, Note_on_c, 9, 51, 0
6, 568294, Note_on_c, 9, 51, 86
6, 568521, Note_on_c, 9, 51, 0
6, 568930, Note_on_c, 9, 51, 53
6, 569070, Note_on_c, 9, 51, 0
6, 569254, Note_on_c, 9, 59, 105
6, 569712, Note_on_c, 9, 59, 0
6, 570235, Note_on_c, 9, 53, 56
6, 570269, Note_on_c, 9, 52, 40
6, 570335, Note_on_c, 9, 52, 0
6, 570585, Note_on_c, 9, 53, 0
6, 570880, Note_on_c, 9, 51, 65
6, 571097, Note_on_c, 9, 51, 0
6, 571233, Note_on_c, 9, 59, 90
6, 571720, Note_on_c, 9, 59, 0
6, 572164, Note_on_c, 9, 59, 91
6, 572525, Note_on_c, 9, 59, 0
6, 573106, Note_on_c, 9, 53, 62
6, 573108, Note_on_c, 9, 51, 59
6, 573432, Note_on_c, 9, 53, 0
6, 573461, Note_on_c, 9, 51, 0
6, 574088, Note_on_c, 9, 51, 67
6, 574094, Note_on_c, 9, 53, 74
6, 574540, Note_on_c, 9, 53, 0
6, 574594, Note_on_c, 9, 51, 0
6, 575070, Note_on_c, 9, 51, 82
6, 575718, Note_on_c, 9, 51, 0
6, 575970, Note_on_c, 9, 51, 50
6, 576260, Note_on_c, 9, 51, 0
6, 576622, Note_on_c, 9, 51, 67
6, 576768, Note_on_c, 9, 51, 0
6, 576917, Note_on_c, 9, 51, 79
6, 577534, Note_on_c, 9, 51, 0
6, 577854, Note_on_c, 9, 51, 73
6, 578113, Note_on_c, 9, 51, 0
6, 578474, Note_on_c, 9, 53, 96
6, 579336, Note_on_c, 9, 53, 0
6, 579448, Note_on_c, 9, 51, 65
6, 579606, Note_on_c, 9, 51, 0
6, 579830, Note_on_c, 9, 53, 108
6, 580608, Note_on_c, 9, 53, 0
6, 580798, Note_on_c, 9, 51, 53
6, 581302, Note_on_c, 9, 51, 0
6, 581413, Note_on_c, 9, 53, 118
6, 582200, Note_on_c, 9, 53, 0
6, 582348, Note_on_c, 9, 51, 60
6, 582485, Note_on_c, 9, 51, 0
6, 582740, Note_on_c, 9, 53, 113
6, 583505, Note_on_c, 9, 53, 0
6, 583666, Note_on_c, 9, 51, 47
6, 584210, Note_on_c, 9, 51, 0
6, 584337, Note_on_c, 9, 53, 108
6, 585186, Note_on_c, 9, 53, 0
6, 585357, Note_on_c, 9, 51, 46
6, 585437, Note_on_c, 9, 51, 0
6, 585702, Note_on_c, 9, 53, 99
6, 586452, Note_on_c, 9, 53, 0
6, 586641, Note_on_c, 9, 51, 51
6, 586913, Note_on_c, 9, 51, 0
6, 587224, Note_on_c, 9, 51, 78
6, 587428, Note_on_c, 9, 51, 0
6, 587556, Note_on_c, 9, 51, 62
6, 588109, Note_on_c, 9, 51, 0
6, 588453, Note_on_c, 9, 51, 59
6, 589046, Note_on_c, 9, 51, 0
6, 589412, Note_on_c, 9, 51, 67
6, 589970, Note_on_c, 9, 51, 0
6, 590377, Note_on_c, 9, 51, 64
6, 590870, Note_on_c, 9, 51, 0
6, 591344, Note_on_c, 9, 51, 65
6, 591859, Note_on_c, 9, 51, 0
6, 592295, Note_on_c, 9, 51, 60
6, 592842, Note_on_c, 9, 51, 0
6, 592952, Note_on_c, 9, 59, 79
6, 593080, Note_on_c, 9, 59, 0
6, 593284, Note_on_c, 9, 51, 49
6, 593750, Note_on_c, 9, 51, 0
6, 594246, Note_on_c, 9, 51, 67
6, 594567, Note_on_c, 9, 51, 0
6, 594961, Note_on_c, 9, 51, 73
6, 595092, Note_on_c, 9, 51, 0
6, 595218, Note_on_c, 9, 51, 67
6, 595855, Note_on_c, 9, 51, 0
6, 596151, Note_on_c, 9, 51, 72
6, 596450, Note_on_c, 9, 51, 0
6, 596880, Note_on_c, 9, 51, 75
6, 597025, Note_on_c, 9, 51, 0
6, 597148, Note_on_c, 9, 51, 69
6, 597741, Note_on_c, 9, 51, 0
6, 598058, Note_on_c, 9, 51, 80
6, 598477, Note_on_c, 9, 51, 0
6, 598837, Note_on_c, 9, 51, 64
6, 598938, Note_on_c, 9, 51, 0
6, 599085, Note_on_c, 9, 51, 69
6, 599718, Note_on_c, 9, 51, 0
6, 600023, Note_on_c, 9, 51, 85
6, 600447, Note_on_c, 9, 51, 0
6, 600758, Note_on_c, 9, 51, 59
6, 600866, Note_on_c, 9, 51, 0
6, 600999, Note_on_c, 9, 51, 70
6, 601648, Note_on_c, 9, 51, 0
6, 601957, Note_on_c, 9, 51, 82
6, 602383, Note_on_c, 9, 51, 0
6, 602662, Note_on_c, 9, 51, 67
6, 602802, Note_on_c, 9, 51, 0
6, 602921, Note_on_c, 9, 51, 67
6, 603503, Note_on_c, 9, 51, 0
6, 603838, Note_on_c, 9, 51, 83
6, 604281, Note_on_c, 9, 51, 0
6, 604755, Note_on_c, 9, 51, 79
6, 605366, Note_on_c, 9, 51, 0
6, 605437, Note_on_c, 9, 53, 88
6, 605675, Note_on_c, 9, 53, 0
6, 605750, Note_on_c, 9, 51, 63
6, 606487, Note_on_c, 9, 51, 0
6, 606712, Note_on_c, 9, 51, 80
6, 607309, Note_on_c, 9, 51, 0
6, 607665, Note_on_c, 9, 51, 82
6, 608022, Note_on_c, 9, 51, 0
6, 608356, Note_on_c, 9, 51, 61
6, 608475, Note_on_c, 9, 51, 0
6, 608598, Note_on_c, 9, 51, 74
6, 609208, Note_on_c, 9, 51, 0
6, 609568, Note_on_c, 9, 51, 81
6, 609867, Note_on_c, 9, 51, 0
6, 610238, Note_on_c, 9, 51, 69
6, 610376, Note_on_c, 9, 51, 0
6, 610504, Note_on_c, 9, 51, 69
6, 611130, Note_on_c, 9, 51, 0
6, 611503, Note_on_c, 9, 51, 72
6, 612008, Note_on_c, 9, 51, 0
6, 612485, Note_on_c, 9, 51, 74
6, 612921, Note_on_c, 9, 51, 0
6, 613421, Note_on_c, 9, 51, 74
6, 613727, Note_on_c, 9, 51, 0
6, 614177, Note_on_c, 9, 51, 71
6, 614319, Note_on_c, 9, 51, 0
6, 614445, Note_on_c, 9, 51, 71
6, 614662, Note_on_c, 9, 51, 0
6, 615370, Note_on_c, 9, 51, 73
6, 615671, Note_on_c, 9, 51, 0
6, 616074, Note_on_c, 9, 51, 54
6, 616158, Note_on_c, 9, 51, 0
6, 616333, Note_on_c, 9, 51, 65
6, 616826, Note_on_c, 9, 51, 0
6, 617281, Note_on_c, 9, 51, 74
6, 617551, Note_on_c, 9, 51, 0
6, 618010, Note_on_c, 9, 51, 48
6, 618074, Note_on_c, 9, 51, 0
6, 618262, Note_on_c, 9, 51, 64
6, 618666, Note_on_c, 9, 51, 0
6, 619228, Note_on_c, 9, 51, 74
6, 619595, Note_on_c, 9, 51, 0
6, 619868, Note_on_c, 9, 51, 55
6, 620020, Note_on_c, 9, 51, 0
6, 620124, Note_on_c, 9, 51, 76
6, 620779, Note_on_c, 9, 51, 0
6, 621084, Note_on_c, 9, 51, 79
6, 621434, Note_on_c, 9, 51, 0
6, 621804, Note_on_c, 9, 51, 56
6, 621904, Note_on_c, 9, 51, 0
6, 622056, Note_on_c, 9, 51, 68
6, 622743, Note_on_c, 9, 51, 0
6, 623020, Note_on_c, 9, 51, 79
6, 623661, Note_on_c, 9, 51, 0
6, 623985, Note_on_c, 9, 51, 74
6, 624539, Note_on_c, 9, 51, 0
6, 624940, Note_on_c, 9, 51, 77
6, 625257, Note_on_c, 9, 51, 0
6, 625642, Note_on_c, 9, 51, 63
6, 625781, Note_on_c, 9, 51, 0
6, 625909, Note_on_c, 9, 51, 69
6, 626386, Note_on_c, 9, 51, 0
6, 626908, Note_on_c, 9, 51, 82
6, 627283, Note_on_c, 9, 51, 0
6, 627588, Note_on_c, 9, 51, 60
6, 627723, Note_on_c, 9, 51, 0
6, 627853, Note_on_c, 9, 51, 70
6, 628278, Note_on_c, 9, 51, 0
6, 628814, Note_on_c, 9, 51, 80
6, 629262, Note_on_c, 9, 51, 0
6, 629481, Note_on_c, 9, 51, 74
6, 629637, Note_on_c, 9, 51, 0
6, 629744, Note_on_c, 9, 51, 76
6, 630275, Note_on_c, 9, 51, 0
6, 630716, Note_on_c, 9, 51, 81
6, 631267, Note_on_c, 9, 51, 0
6, 631666, Note_on_c, 9, 51, 79
6, 632048, Note_on_c, 9, 51, 0
6, 632359, Note_on_c, 9, 51, 63
6, 632507, Note_on_c, 9, 51, 0
6, 632643, Note_on_c, 9, 51, 71
6, 633281, Note_on_c, 9, 51, 0
6, 633586, Note_on_c, 9, 51, 83
6, 634141, Note_on_c, 9, 51, 0
6, 634509, Note_on_c, 9, 51, 77
6, 634956, Note_on_c, 9, 51, 0
6, 635252, Note_on_c, 9, 51, 63
6, 635385, Note_on_c, 9, 51, 0
6, 635499, Note_on_c, 9, 51, 75
6, 636169, Note_on_c, 9, 51, 0
6, 636468, Note_on_c, 9, 51, 83
6, 636939, Note_on_c, 9, 51, 0
6, 637144, Note_on_c, 9, 51, 56
6, 637278, Note_on_c, 9, 51, 0
6, 637401, Note_on_c, 9, 51, 69
6, 637729, Note_on_c, 9, 51, 0
6, 638068, Note_on_c, 9, 51, 86
6, 638810, Note_on_c, 9, 51, 0
6, 639013, Note_on_c, 9, 51, 59
6, 639163, Note_on_c, 9, 51, 0
6, 639361, Note_on_c, 9, 51, 75
6, 639370, Note_on_c, 9, 53, 78
6, 640020, Note_on_c, 9, 51, 0
6, 640131, Note_on_c, 9, 53, 0
6, 640323, Note_on_c, 9, 51, 69
6, 640675, Note_on_c, 9, 51, 0
6, 640986, Note_on_c, 9, 51, 84
6, 641195, Note_on_c, 9, 51, 0
6, 641347, Note_on_c, 9, 53, 82
6, 641352, Note_on_c, 9, 51, 74
6, 641617, Note_on_c, 9, 51, 0
6, 641630, Note_on_c, 9, 53, 0
6, 642808, Note_on_c, 9, 59, 82
6, 642990, Note_on_c, 9, 59, 0
6, 643155, Note_on_c, 9, 59, 68
6, 643370, Note_on_c, 9, 59, 0
6, 644131, Note_on_c, 9, 59, 90
6, 644835, Note_on_c, 9, 59, 0
6, 645082, Note_on_c, 9, 59, 69
6, 645335, Note_on_c, 9, 59, 0
6, 645692, Note_on_c, 9, 59, 56
6, 645825, Note_on_c, 9, 59, 0
6, 646022, Note_on_c, 9, 59, 74
6, 646539, Note_on_c, 9, 59, 0
6, 647074, Note_on_c, 9, 59, 88
6, 647311, Note_on_c, 9, 59, 0
6, 648670, Note_on_c, 9, 59, 64
6, 648801, Note_on_c, 9, 59, 0
6, 648965, Note_on_c, 9, 59, 89
6, 649469, Note_on_c, 9, 59, 0
6, 649928, Note_on_c, 9, 59, 78
6, 650101, Note_on_c, 9, 59, 0
6, 650540, Note_on_c, 9, 53, 83
6, 650836, Note_on_c, 9, 53, 0
6, 650911, Note_on_c, 9, 59, 58
6, 651280, Note_on_c, 9, 59, 0
6, 651457, Note_on_c, 9, 59, 55
6, 651653, Note_on_c, 9, 59, 0
6, 651808, Note_on_c, 9, 53, 72
6, 651830, Note_on_c, 9, 59, 34
6, 651903, Note_on_c, 9, 59, 0
6, 652342, Note_on_c, 9, 53, 0
6, 652736, Note_on_c, 9, 59, 44
6, 652948, Note_on_c, 9, 59, 0
6, 653395, Note_on_c, 9, 59, 60
6, 653566, Note_on_c, 9, 59, 0
6, 653717, Note_on_c, 9, 59, 67
6, 654078, Note_on_c, 9, 59, 0
6, 654699, Note_on_c, 9, 59, 101
6, 655082, Note_on_c, 9, 59, 0
6, 655307, Note_on_c, 9, 59, 88
6, 655545, Note_on_c, 9, 59, 0
6, 656327, Note_on_c, 9, 59, 56
6, 656483, Note_on_c, 9, 59, 0
6, 656659, Note_on_c, 9, 59, 72
6, 657113, Note_on_c, 9, 59, 0
6, 657576, Note_on_c, 9, 51, 58
6, 657585, Note_on_c, 9, 53, 51
6, 657837, Note_on_c, 9, 51, 0
6, 657877, Note_on_c, 9, 53, 0
6, 658553, Note_on_c, 9, 53, 74
6, 658559, Note_on_c, 9, 51, 67
6, 658929, Note_on_c, 9, 51, 0
6, 658952, Note_on_c, 9, 53, 0
6, 659508, Note_on_c, 9, 59, 95
6, 659980, Note_on_c, 9, 59, 0
6, 660456, Note_on_c, 9, 59, 90
6, 660947, Note_on_c, 9, 59, 0
6, 661089, Note_on_c, 9, 53, 88
6, 661105, Note_on_c, 9, 51, 65
6, 661262, Note_on_c, 9, 51, 0
6, 661299, Note_on_c, 9, 53, 0
6, 661454, Note_on_c, 9, 59, 52
6, 662020, Note_on_c, 9, 59, 0
6, 662445, Note_on_c, 9, 59, 73
6, 662775, Note_on_c, 9, 59, 0
6, 663000, Note_on_c, 9, 59, 83
6, 663144, Note_on_c, 9, 59, 0
6, 663979, Note_on_c, 9, 59, 63
6, 664102, Note_on_c, 9, 59, 0
6, 664314, Note_on_c, 9, 59, 80
6, 664784, Note_on_c, 9, 59, 0
6, 665267, Note_on_c, 9, 59, 88
6, 666158, Note_on_c, 9, 59, 0
6, 666840, Note_on_c, 9, 59, 61
6, 666970, Note_on_c, 9, 59, 0
6, 667177, Note_on_c, 9, 59, 87
6, 667567, Note_on_c, 9, 59, 0
6, 668112, Note_on_c, 9, 59, 103
6, 668782, Note_on_c, 9, 59, 0
6, 669774, Note_on_c, 9, 59, 64
6, 669927, Note_on_c, 9, 59, 0
6, 670090, Note_on_c, 9, 59, 87
6, 670579, Note_on_c, 9, 59, 0
6, 671013, Note_on_c, 9, 59, 80
6, 671208, Note_on_c, 9, 59, 0
6, 672018, Note_on_c, 9, 59, 105
6, 672381, Note_on_c, 9, 59, 0
6, 672655, Note_on_c, 9, 53, 43
6, 672699, Note_on_c, 9, 51, 25
6, 672791, Note_on_c, 9, 53, 0
6, 672814, Note_on_c, 9, 51, 0
6, 673048, Note_on_c, 9, 53, 37
6, 673096, Note_on_c, 9, 51, 18
6, 673209, Note_on_c, 9, 53, 0
6, 673234, Note_on_c, 9, 51, 0
6, 673964, Note_on_c, 9, 59, 95
6, 674004, Note_on_c, 9, 51, 60
6, 674006, Note_on_c, 9, 53, 69
6, 674198, Note_on_c, 9, 53, 0
6, 674200, Note_on_c, 9, 51, 0
6, 674205, Note_on_c, 9, 59, 0
6, 675495, Note_on_c, 9, 59, 99
6, 675503, Note_on_c, 9, 53, 83
6, 675508, Note_on_c, 9, 51, 71
6, 675823, Note_on_c, 9, 59, 0
6, 675848, Note_on_c, 9, 53, 0
6, 675856, Note_on_c, 9, 51, 0
6, 676459, Note_on_c, 9, 59, 51
6, 676611, Note_on_c, 9, 59, 0
6, 676843, Note_on_c, 9, 59, 31
6, 677006, Note_on_c, 9, 59, 0
6, 677484, Note_on_c, 9, 59, 33
6, 677557, Note_on_c, 9, 59, 0
6, 677863, Note_on_c, 9, 59, 58
6, 677934, Note_on_c, 9, 59, 0
6, 678692, Note_on_c, 9, 59, 70
6, 678849, Note_on_c, 9, 59, 0
6, 679641, Note_on_c, 9, 59, 88
6, 679663, Note_on_c, 9, 51, 52
6, 679668, Note_on_c, 9, 53, 53
6, 679928, Note_on_c, 9, 59, 0
6, 679954, Note_on_c, 9, 51, 0
6, 679968, Note_on_c, 9, 53, 0
6, 680206, Note_on_c, 9, 59, 54
6, 680397, Note_on_c, 9, 59, 0
6, 680625, Note_on_c, 9, 59, 62
6, 680702, Note_on_c, 9, 59, 0
6, 681219, Note_on_c, 9, 59, 99
6, 681236, Note_on_c, 9, 51, 65
6, 681238, Note_on_c, 9, 53, 74
6, 681561, Note_on_c, 9, 51, 0
6, 681613, Note_on_c, 9, 53, 0
6, 681792, Note_on_c, 9, 59, 0
6, 682224, Note_on_c, 9, 59, 62
6, 682359, Note_on_c, 9, 59, 0
6, 682616, Note_on_c, 9, 53, 80
6, 682622, Note_on_c, 9, 51, 73
6, 682624, Note_on_c, 9, 59, 92
6, 682956, Note_on_c, 9, 53, 0
6, 683008, Note_on_c, 9, 51, 0
6, 683221, Note_on_c, 9, 59, 0
6, 685423, Note_on_c, 9, 59, 85
6, 685619, Note_on_c, 9, 59, 0
6, 686045, Note_on_c, 9, 59, 77
6, 686184, Note_on_c, 9, 59, 0
6, 686376, Note_on_c, 9, 59, 55
6, 686574, Note_on_c, 9, 59, 0
6, 687301, Note_on_c, 9, 59, 94
6, 687430, Note_on_c, 9, 59, 0
6, 688250, Note_on_c, 9, 59, 118
6, 689580, Note_on_c, 9, 59, 0
6, 689793, Note_on_c, 9, 59, 52
6, 689956, Note_on_c, 9, 59, 0
6, 690152, Note_on_c, 9, 59, 74
6, 690420, Note_on_c, 9, 59, 0
6, 691142, Note_on_c, 9, 53, 62
6, 691157, Note_on_c, 9, 59, 87
6, 691953, Note_on_c, 9, 59, 0
6, 691984, Note_on_c, 9, 53, 0
6, 693207, Note_on_c, 9, 53, 64
6, 693211, Note_on_c, 9, 59, 80
6, 693452, Note_on_c, 9, 59, 0
6, 693466, Note_on_c, 9, 53, 0
6, 695077, Note_on_c, 9, 40, 69
6, 695079, Note_on_c, 9, 59, 79
6, 695233, Note_on_c, 9, 40, 0
6, 695275, Note_on_c, 9, 59, 0
6, 695399, Note_on_c, 9, 59, 71
6, 695601, Note_on_c, 9, 59, 0
6, 695745, Note_on_c, 9, 59, 62
6, 695896, Note_on_c, 9, 59, 0
6, 696107, Note_on_c, 9, 59, 62
6, 696178, Note_on_c, 9, 59, 0
6, 697846, Note_on_c, 9, 59, 82
6, 698109, Note_on_c, 9, 59, 0
6, 698857, Note_on_c, 9, 59, 76
6, 699141, Note_on_c, 9, 59, 0
6, 699445, Note_on_c, 9, 59, 55
6, 699635, Note_on_c, 9, 59, 0
6, 699811, Note_on_c, 9, 59, 57
6, 700061, Note_on_c, 9, 59, 0
6, 702695, Note_on_c, 9, 54, 37
6, 702702, Note_on_c, 9, 59, 60
6, 702710, Note_on_c, 9, 52, 38
6, 702827, Note_on_c, 9, 59, 0
6, 702846, Note_on_c, 9, 54, 0
6, 702878, Note_on_c, 9, 52, 0
6, 703707, Note_on_c, 9, 54, 37
6, 703709, Note_on_c, 9, 52, 49
6, 703711, Note_on_c, 9, 59, 59
6, 704471, Note_on_c, 9, 54, 0
6, 704489, Note_on_c, 9, 59, 0
6, 704508, Note_on_c, 9, 52, 0
6, 705212, Note_on_c, 9, 59, 47
6, 705373, Note_on_c, 9, 59, 0
6, 705607, Note_on_c, 9, 59, 49
6, 705791, Note_on_c, 9, 59, 0
6, 706148, Note_on_c, 9, 59, 68
6, 706358, Note_on_c, 9, 59, 0
6, 709414, Note_on_c, 9, 54, 25
6, 709429, Note_on_c, 9, 52, 48
6, 709640, Note_on_c, 9, 52, 0
6, 709707, Note_on_c, 9, 54, 0
6, 709997, Note_on_c, 9, 54, 48
6, 710034, Note_on_c, 9, 52, 68
6, 710230, Note_on_c, 9, 52, 0
6, 710320, Note_on_c, 9, 54, 0
6, 710996, Note_on_c, 9, 59, 60
6, 711204, Note_on_c, 9, 59, 0
6, 711376, Note_on_c, 9, 59, 55
6, 711593, Note_on_c, 9, 59, 0
6, 712296, Note_on_c, 9, 59, 66
6, 712304, Note_on_c, 9, 51, 56
6, 712308, Note_on_c, 9, 54, 47
6, 712479, Note_on_c, 9, 59, 0
6, 712485, Note_on_c, 9, 51, 0
6, 712512, Note_on_c, 9, 54, 0
6, 713256, Note_on_c, 9, 59, 71
6, 713258, Note_on_c, 9, 53, 64
6, 713262, Note_on_c, 9, 51, 42
6, 713690, Note_on_c, 9, 59, 0
6, 713803, Note_on_c, 9, 53, 0
6, 713807, Note_on_c, 9, 51, 0
6, 716232, Note_on_c, 9, 59, 48
6, 716414, Note_on_c, 9, 59, 0
6, 716777, Note_on_c, 9, 59, 59
6, 716982, Note_on_c, 9, 59, 0
6, 717159, Note_on_c, 9, 59, 46
6, 717382, Note_on_c, 9, 59, 0
6, 718134, Note_on_c, 9, 59, 65
6, 718138, Note_on_c, 9, 53, 39
6, 718184, Note_on_c, 9, 51, 29
6, 718328, Note_on_c, 9, 59, 0
6, 718364, Note_on_c, 9, 53, 0
6, 718403, Note_on_c, 9, 51, 0
6, 719098, Note_on_c, 9, 53, 41
6, 719103, Note_on_c, 9, 51, 38
6, 719119, Note_on_c, 9, 59, 63
6, 719374, Note_on_c, 9, 59, 0
6, 719399, Note_on_c, 9, 53, 0
6, 719402, Note_on_c, 9, 51, 0
6, 720939, Note_on_c, 9, 53, 46
6, 720941, Note_on_c, 9, 59, 66
6, 720953, Note_on_c, 9, 51, 46
6, 722668, Note_on_c, 9, 59, 0
6, 722833, Note_on_c, 9, 51, 0
6, 722835, Note_on_c, 9, 53, 0
6, 722838, Note_on_c, 9, 59, 44
6, 723059, Note_on_c, 9, 59, 0
6, 723832, Note_on_c, 9, 59, 57
6, 723997, Note_on_c, 9, 59, 0
6, 724391, Note_on_c, 9, 59, 55
6, 724551, Note_on_c, 9, 59, 0
6, 724833, Note_on_c, 9, 59, 47
6, 725018, Note_on_c, 9, 59, 0
6, 725794, Note_on_c, 9, 59, 80
6, 725804, Note_on_c, 9, 51, 57
6, 725806, Note_on_c, 9, 53, 64
6, 726094, Note_on_c, 9, 53, 0
6, 726111, Note_on_c, 9, 59, 0
6, 726126, Note_on_c, 9, 51, 0
6, 726779, Note_on_c, 9, 59, 68
6, 726794, Note_on_c, 9, 53, 50
6, 726806, Note_on_c, 9, 51, 44
6, 727184, Note_on_c, 9, 51, 0
6, 727219, Note_on_c, 9, 59, 0
6, 727221, Note_on_c, 9, 53, 0
6, 728680, Note_on_c, 9, 59, 59
6, 728708, Note_on_c, 9, 53, 41
6, 728719, Note_on_c, 9, 51, 38
6, 731492, Note_on_c, 9, 59, 0
6, 731883, Note_on_c, 9, 51, 0
6, 731912, Note_on_c, 9, 53, 0
6, 731912, End_track
7, 0, Start_track
7, 0, Title_t, "HiHats"
7, 0, Control_c, 9, 7, 80
7, 212099, Note_on_c, 9, 44, 45
7, 212573, Note_on_c, 9, 44, 0
7, 215966, Note_on_c, 9, 44, 33
7, 216369, Note_on_c, 9, 44, 0
7, 219852, Note_on_c, 9, 44, 31
7, 220195, Note_on_c, 9, 44, 0
7, 221776, Note_on_c, 9, 44, 34
7, 222156, Note_on_c, 9, 44, 0
7, 223630, Note_on_c, 9, 46, 32
7, 223976, Note_on_c, 9, 46, 0
7, 227418, Note_on_c, 9, 44, 38
7, 227734, Note_on_c, 9, 44, 0
7, 229394, Note_on_c, 9, 44, 33
7, 229774, Note_on_c, 9, 44, 0
7, 233287, Note_on_c, 9, 44, 25
7, 233776, Note_on_c, 9, 44, 0
7, 240867, Note_on_c, 9, 44, 40
7, 241242, Note_on_c, 9, 44, 0
7, 242868, Note_on_c, 9, 44, 25
7, 243269, Note_on_c, 9, 44, 0
7, 243790, Note_on_c, 9, 44, 31
7, 244185, Note_on_c, 9, 44, 0
7, 246660, Note_on_c, 9, 44, 35
7, 247063, Note_on_c, 9, 44, 0
7, 250573, Note_on_c, 9, 44, 29
7, 250992, Note_on_c, 9, 44, 0
7, 252529, Note_on_c, 9, 44, 31
7, 252967, Note_on_c, 9, 44, 0
7, 256332, Note_on_c, 9, 46, 38
7, 256837, Note_on_c, 9, 46, 0
7, 258181, Note_on_c, 9, 44, 35
7, 258521, Note_on_c, 9, 44, 0
7, 259224, Note_on_c, 9, 44, 36
7, 259546, Note_on_c, 9, 44, 0
7, 261159, Note_on_c, 9, 44, 32
7, 261621, Note_on_c, 9, 44, 0
7, 262169, Note_on_c, 9, 44, 33
7, 262590, Note_on_c, 9, 44, 0
7, 264082, Note_on_c, 9, 44, 44
7, 264442, Note_on_c, 9, 44, 0
7, 265093, Note_on_c, 9, 44, 29
7, 265514, Note_on_c, 9, 44, 0
7, 269747, Note_on_c, 9, 44, 27
7, 270073, Note_on_c, 9, 44, 0
7, 273646, Note_on_c, 9, 44, 33
7, 273984, Note_on_c, 9, 44, 0
7, 275597, Note_on_c, 9, 44, 26
7, 275945, Note_on_c, 9, 44, 0
7, 281256, Note_on_c, 9, 44, 57
7, 282139, Note_on_c, 9, 44, 0
7, 283226, Note_on_c, 9, 44, 48
7, 283637, Note_on_c, 9, 44, 0
7, 288902, Note_on_c, 9, 44, 51
7, 289294, Note_on_c, 9, 44, 0
7, 289864, Note_on_c, 9, 44, 40
7, 290314, Note_on_c, 9, 44, 0
7, 292822, Note_on_c, 9, 44, 44
7, 293265, Note_on_c, 9, 44, 0
7, 294763, Note_on_c, 9, 44, 34
7, 295108, Note_on_c, 9, 44, 0
7, 296716, Note_on_c, 9, 44, 48
7, 297582, Note_on_c, 9, 44, 0
7, 298556, Note_on_c, 9, 46, 43
7, 299051, Note_on_c, 9, 46, 0
7, 304350, Note_on_c, 9, 44, 48
7, 304866, Note_on_c, 9, 44, 0
7, 308143, Note_on_c, 9, 44, 42
7, 308506, Note_on_c, 9, 44, 0
7, 310099, Note_on_c, 9, 46, 48
7, 310652, Note_on_c, 9, 46, 0
7, 314062, Note_on_c, 9, 44, 48
7, 314387, Note_on_c, 9, 44, 0
7, 315937, Note_on_c, 9, 44, 37
7, 316337, Note_on_c, 9, 44, 0
7, 317823, Note_on_c, 9, 44, 42
7, 318215, Note_on_c, 9, 44, 0
7, 323500, Note_on_c, 9, 44, 40
7, 324419, Note_on_c, 9, 44, 0
7, 340803, Note_on_c, 9, 44, 48
7, 341177, Note_on_c, 9, 44, 0
7, 342706, Note_on_c, 9, 44, 38
7, 343104, Note_on_c, 9, 44, 0
7, 346490, Note_on_c, 9, 44, 46
7, 346842, Note_on_c, 9, 44, 0
7, 348441, Note_on_c, 9, 46, 43
7, 349022, Note_on_c, 9, 46, 0
7, 350414, Note_on_c, 9, 44, 34
7, 350805, Note_on_c, 9, 44, 0
7, 356098, Note_on_c, 9, 44, 33
7, 356502, Note_on_c, 9, 44, 0
7, 358059, Note_on_c, 9, 44, 35
7, 358531, Note_on_c, 9, 44, 0
7, 361862, Note_on_c, 9, 44, 36
7, 362288, Note_on_c, 9, 44, 0
7, 363794, Note_on_c, 9, 44, 36
7, 364180, Note_on_c, 9, 44, 0
7, 365821, Note_on_c, 9, 44, 21
7, 366032, Note_on_c, 9, 44, 0
7, 366685, Note_on_c, 9, 44, 36
7, 367059, Note_on_c, 9, 44, 0
7, 373470, Note_on_c, 9, 44, 43
7, 373943, Note_on_c, 9, 44, 0
7, 375452, Note_on_c, 9, 44, 37
7, 375858, Note_on_c, 9, 44, 0
7, 379127, Note_on_c, 9, 44, 37
7, 379553, Note_on_c, 9, 44, 0
7, 381106, Note_on_c, 9, 44, 37
7, 381564, Note_on_c, 9, 44, 0
7, 382070, Note_on_c, 9, 44, 34
7, 382612, Note_on_c, 9, 44, 0
7, 388743, Note_on_c, 9, 44, 38
7, 389705, Note_on_c, 9, 44, 0
7, 390645, Note_on_c, 9, 44, 39
7, 391067, Note_on_c, 9, 44, 0
7, 394541, Note_on_c, 9, 44, 45
7, 394933, Note_on_c, 9, 44, 0
7, 396491, Note_on_c, 9, 44, 37
7, 396874, Note_on_c, 9, 44, 0
7, 397507, Note_on_c, 9, 44, 37
7, 397997, Note_on_c, 9, 44, 0
7, 399428, Note_on_c, 9, 44, 53
7, 399871, Note_on_c, 9, 44, 0
7, 400395, Note_on_c, 9, 44, 42
7, 400874, Note_on_c, 9, 44, 0
7, 402227, Note_on_c, 9, 44, 49
7, 402736, Note_on_c, 9, 44, 0
7, 404113, Note_on_c, 9, 44, 44
7, 404540, Note_on_c, 9, 44, 0
7, 409877, Note_on_c, 9, 44, 39
7, 410395, Note_on_c, 9, 44, 0
7, 411893, Note_on_c, 9, 44, 38
7, 412262, Note_on_c, 9, 44, 0
7, 414065, Note_on_c, 9, 46, 49
7, 415338, Note_on_c, 9, 46, 0
7, 421423, Note_on_c, 9, 44, 39
7, 421815, Note_on_c, 9, 44, 0
7, 425155, Note_on_c, 9, 44, 35
7, 425524, Note_on_c, 9, 44, 0
7, 427159, Note_on_c, 9, 44, 30
7, 427514, Note_on_c, 9, 44, 0
7, 428122, Note_on_c, 9, 44, 35
7, 428611, Note_on_c, 9, 44, 0
7, 430613, Note_on_c, 9, 44, 30
7, 430863, Note_on_c, 9, 44, 0
7, 431045, Note_on_c, 9, 44, 38
7, 431468, Note_on_c, 9, 44, 0
7, 432879, Note_on_c, 9, 44, 37
7, 433305, Note_on_c, 9, 44, 0
7, 434904, Note_on_c, 9, 46, 39
7, 435305, Note_on_c, 9, 46, 0
7, 438758, Note_on_c, 9, 44, 39
7, 439247, Note_on_c, 9, 44, 0
7, 444419, Note_on_c, 9, 44, 49
7, 444900, Note_on_c, 9, 44, 0
7, 446401, Note_on_c, 9, 44, 36
7, 446853, Note_on_c, 9, 44, 0
7, 450258, Note_on_c, 9, 46, 40
7, 450658, Note_on_c, 9, 46, 0
7, 454126, Note_on_c, 9, 46, 50
7, 454488, Note_on_c, 9, 46, 0
7, 457932, Note_on_c, 9, 44, 34
7, 458290, Note_on_c, 9, 44, 0
7, 459876, Note_on_c, 9, 44, 37
7, 460250, Note_on_c, 9, 44, 0
7, 461749, Note_on_c, 9, 44, 34
7, 462076, Note_on_c, 9, 44, 0
7, 463672, Note_on_c, 9, 44, 33
7, 464000, Note_on_c, 9, 44, 0
7, 465542, Note_on_c, 9, 44, 31
7, 465838, Note_on_c, 9, 44, 0
7, 467471, Note_on_c, 9, 44, 33
7, 467857, Note_on_c, 9, 44, 0
7, 468491, Note_on_c, 9, 44, 50
7, 468856, Note_on_c, 9, 44, 0
7, 471290, Note_on_c, 9, 44, 36
7, 471685, Note_on_c, 9, 44, 0
7, 473294, Note_on_c, 9, 44, 38
7, 473735, Note_on_c, 9, 44, 0
7, 475230, Note_on_c, 9, 44, 35
7, 475579, Note_on_c, 9, 44, 0
7, 477047, Note_on_c, 9, 44, 44
7, 477468, Note_on_c, 9, 44, 0
7, 479009, Note_on_c, 9, 44, 43
7, 479432, Note_on_c, 9, 44, 0
7, 486666, Note_on_c, 9, 44, 49
7, 487023, Note_on_c, 9, 44, 0
7, 490500, Note_on_c, 9, 44, 36
7, 490842, Note_on_c, 9, 44, 0
7, 494417, Note_on_c, 9, 44, 38
7, 494707, Note_on_c, 9, 44, 0
7, 496282, Note_on_c, 9, 46, 45
7, 496603, Note_on_c, 9, 46, 0
7, 498149, Note_on_c, 9, 44, 34
7, 498471, Note_on_c, 9, 44, 0
7, 502042, Note_on_c, 9, 44, 40
7, 502368, Note_on_c, 9, 44, 0
7, 503992, Note_on_c, 9, 44, 35
7, 504280, Note_on_c, 9, 44, 0
7, 509740, Note_on_c, 9, 44, 56
7, 510116, Note_on_c, 9, 44, 0
7, 515489, Note_on_c, 9, 44, 45
7, 515912, Note_on_c, 9, 44, 0
7, 519418, Note_on_c, 9, 44, 40
7, 519801, Note_on_c, 9, 44, 0
7, 521324, Note_on_c, 9, 44, 42
7, 521701, Note_on_c, 9, 44, 0
7, 524991, Note_on_c, 9, 44, 48
7, 525440, Note_on_c, 9, 44, 0
7, 527006, Note_on_c, 9, 44, 46
7, 527450, Note_on_c, 9, 44, 0
7, 529002, Note_on_c, 9, 44, 46
7, 529405, Note_on_c, 9, 44, 0
7, 532781, Note_on_c, 9, 44, 53
7, 533172, Note_on_c, 9, 44, 0
7, 534774, Note_on_c, 9, 44, 52
7, 535157, Note_on_c, 9, 44, 0
7, 536686, Note_on_c, 9, 44, 44
7, 537032, Note_on_c, 9, 44, 0
7, 537657, Note_on_c, 9, 44, 47
7, 538062, Note_on_c, 9, 44, 0
7, 539520, Note_on_c, 9, 44, 42
7, 539883, Note_on_c, 9, 44, 0
7, 540522, Note_on_c, 9, 44, 36
7, 540902, Note_on_c, 9, 44, 0
7, 544252, Note_on_c, 9, 44, 44
7, 544664, Note_on_c, 9, 44, 0
7, 546239, Note_on_c, 9, 46, 52
7, 546709, Note_on_c, 9, 46, 0
7, 548255, Note_on_c, 9, 46, 40
7, 548673, Note_on_c, 9, 46, 0
7, 550161, Note_on_c, 9, 44, 45
7, 550551, Note_on_c, 9, 44, 0
7, 552132, Note_on_c, 9, 44, 43
7, 552466, Note_on_c, 9, 44, 0
7, 554041, Note_on_c, 9, 44, 52
7, 554426, Note_on_c, 9, 44, 0
7, 555907, Note_on_c, 9, 44, 42
7, 556267, Note_on_c, 9, 44, 0
7, 557812, Note_on_c, 9, 44, 45
7, 558187, Note_on_c, 9, 44, 0
7, 559700, Note_on_c, 9, 44, 49
7, 560077, Note_on_c, 9, 44, 0
7, 561696, Note_on_c, 9, 44, 49
7, 562039, Note_on_c, 9, 44, 0
7, 563622, Note_on_c, 9, 44, 46
7, 563983, Note_on_c, 9, 44, 0
7, 565452, Note_on_c, 9, 44, 43
7, 565777, Note_on_c, 9, 44, 0
7, 567309, Note_on_c, 9, 44, 39
7, 567606, Note_on_c, 9, 44, 0
7, 569285, Note_on_c, 9, 46, 44
7, 569625, Note_on_c, 9, 46, 0
7, 571244, Note_on_c, 9, 44, 43
7, 571615, Note_on_c, 9, 44, 0
7, 573196, Note_on_c, 9, 44, 34
7, 573495, Note_on_c, 9, 44, 0
7, 575074, Note_on_c, 9, 44, 46
7, 575442, Note_on_c, 9, 44, 0
7, 576986, Note_on_c, 9, 44, 53
7, 577372, Note_on_c, 9, 44, 0
7, 578866, Note_on_c, 9, 44, 46
7, 579218, Note_on_c, 9, 44, 0
7, 580804, Note_on_c, 9, 44, 38
7, 581148, Note_on_c, 9, 44, 0
7, 582749, Note_on_c, 9, 44, 46
7, 583195, Note_on_c, 9, 44, 0
7, 584708, Note_on_c, 9, 44, 39
7, 585088, Note_on_c, 9, 44, 0
7, 586663, Note_on_c, 9, 44, 46
7, 587095, Note_on_c, 9, 44, 0
7, 590433, Note_on_c, 9, 44, 38
7, 590819, Note_on_c, 9, 44, 0
7, 592331, Note_on_c, 9, 44, 48
7, 592786, Note_on_c, 9, 44, 0
7, 594220, Note_on_c, 9, 44, 45
7, 594690, Note_on_c, 9, 44, 0
7, 598162, Note_on_c, 9, 44, 65
7, 598644, Note_on_c, 9, 44, 0
7, 601985, Note_on_c, 9, 44, 59
7, 602342, Note_on_c, 9, 44, 0
7, 603865, Note_on_c, 9, 44, 42
7, 604251, Note_on_c, 9, 44, 0
7, 604827, Note_on_c, 9, 44, 51
7, 605241, Note_on_c, 9, 44, 0
7, 605798, Note_on_c, 9, 44, 43
7, 606354, Note_on_c, 9, 44, 0
7, 607704, Note_on_c, 9, 44, 38
7, 608177, Note_on_c, 9, 44, 0
7, 609597, Note_on_c, 9, 44, 40
7, 610054, Note_on_c, 9, 44, 0
7, 610564, Note_on_c, 9, 44, 35
7, 610958, Note_on_c, 9, 44, 0
7, 611477, Note_on_c, 9, 44, 35
7, 612041, Note_on_c, 9, 44, 0
7, 612482, Note_on_c, 9, 44, 36
7, 613067, Note_on_c, 9, 44, 0
7, 613412, Note_on_c, 9, 44, 43
7, 614048, Note_on_c, 9, 44, 0
7, 615354, Note_on_c, 9, 44, 37
7, 615768, Note_on_c, 9, 44, 0
7, 619222, Note_on_c, 9, 44, 48
7, 619697, Note_on_c, 9, 44, 0
7, 621148, Note_on_c, 9, 44, 48
7, 621600, Note_on_c, 9, 44, 0
7, 623063, Note_on_c, 9, 44, 50
7, 623483, Note_on_c, 9, 44, 0
7, 624972, Note_on_c, 9, 44, 40
7, 625332, Note_on_c, 9, 44, 0
7, 626960, Note_on_c, 9, 44, 34
7, 627285, Note_on_c, 9, 44, 0
7, 628869, Note_on_c, 9, 44, 43
7, 629172, Note_on_c, 9, 44, 0
7, 632671, Note_on_c, 9, 44, 46
7, 633074, Note_on_c, 9, 44, 0
7, 636499, Note_on_c, 9, 44, 47
7, 636956, Note_on_c, 9, 44, 0
7, 640317, Note_on_c, 9, 44, 49
7, 640703, Note_on_c, 9, 44, 0
7, 642372, Note_on_c, 9, 44, 42
7, 642703, Note_on_c, 9, 44, 0
7, 644241, Note_on_c, 9, 44, 50
7, 644572, Note_on_c, 9, 44, 0
7, 646188, Note_on_c, 9, 44, 46
7, 646539, Note_on_c, 9, 44, 0
7, 648050, Note_on_c, 9, 44, 49
7, 648383, Note_on_c, 9, 44, 0
7, 649998, Note_on_c, 9, 44, 48
7, 650323, Note_on_c, 9, 44, 0
7, 651758, Note_on_c, 9, 44, 44
7, 652123, Note_on_c, 9, 44, 0
7, 653754, Note_on_c, 9, 44, 50
7, 654174, Note_on_c, 9, 44, 0
7, 655686, Note_on_c, 9, 46, 49
7, 656092, Note_on_c, 9, 46, 0
7, 657656, Note_on_c, 9, 44, 48
7, 657984, Note_on_c, 9, 44, 0
7, 659603, Note_on_c, 9, 44, 47
7, 659879, Note_on_c, 9, 44, 0
7, 661483, Note_on_c, 9, 46, 48
7, 661782, Note_on_c, 9, 46, 0
7, 663421, Note_on_c, 9, 44, 48
7, 663790, Note_on_c, 9, 44, 0
7, 665374, Note_on_c, 9, 44, 46
7, 665739, Note_on_c, 9, 44, 0
7, 667269, Note_on_c, 9, 44, 49
7, 667612, Note_on_c, 9, 44, 0
7, 669165, Note_on_c, 9, 44, 47
7, 669490, Note_on_c, 9, 44, 0
7, 673012, Note_on_c, 9, 44, 62
7, 673390, Note_on_c, 9, 44, 0
7, 675120, Note_on_c, 9, 44, 18
7, 675266, Note_on_c, 9, 44, 0
7, 676882, Note_on_c, 9, 44, 37
7, 677202, Note_on_c, 9, 44, 0
7, 680600, Note_on_c, 9, 44, 35
7, 680903, Note_on_c, 9, 44, 0
7, 684406, Note_on_c, 9, 44, 46
7, 684705, Note_on_c, 9, 44, 0
7, 685465, Note_on_c, 9, 44, 46
7, 685855, Note_on_c, 9, 44, 0
7, 688195, Note_on_c, 9, 44, 45
7, 688535, Note_on_c, 9, 44, 0
7, 690145, Note_on_c, 9, 44, 51
7, 690413, Note_on_c, 9, 44, 0
7, 692141, Note_on_c, 9, 46, 42
7, 692590, Note_on_c, 9, 46, 0
7, 694157, Note_on_c, 9, 46, 40
7, 694445, Note_on_c, 9, 46, 0
7, 696020, Note_on_c, 9, 44, 44
7, 696360, Note_on_c, 9, 44, 0
7, 697982, Note_on_c, 9, 44, 40
7, 699396, Note_on_c, 9, 44, 0
7, 700038, Note_on_c, 9, 44, 55
7, 700493, Note_on_c, 9, 44, 0
7, 701818, Note_on_c, 9, 44, 37
7, 702155, Note_on_c, 9, 44, 0
7, 703725, Note_on_c, 9, 44, 30
7, 704024, Note_on_c, 9, 44, 0
7, 707517, Note_on_c, 9, 44, 37
7, 707880, Note_on_c, 9, 44, 0
7, 709484, Note_on_c, 9, 44, 25
7, 709856, Note_on_c, 9, 44, 0
7, 713232, Note_on_c, 9, 44, 39
7, 713594, Note_on_c, 9, 44, 0
7, 714268, Note_on_c, 9, 44, 33
7, 714671, Note_on_c, 9, 44, 0
7, 716209, Note_on_c, 9, 44, 26
7, 716502, Note_on_c, 9, 44, 0
7, 717162, Note_on_c, 9, 44, 31
7, 717615, Note_on_c, 9, 44, 0
7, 720949, Note_on_c, 9, 44, 32
7, 721330, Note_on_c, 9, 44, 0
7, 721961, Note_on_c, 9, 44, 32
7, 722372, Note_on_c, 9, 44, 0
7, 722974, Note_on_c, 9, 44, 27
7, 723424, Note_on_c, 9, 44, 0
7, 723424, End_track
8, 0, Start_track
8, 0, Title_t, "Drum Hits"
8, 0, Control_c, 9, 7, 56
8, 213053, Note_on_c, 9, 36, 43
8, 213136, Note_on_c, 9, 36, 0
8, 214678, Note_on_c, 9, 36, 44
8, 214763, Note_on_c, 9, 36, 0
8, 218520, Note_on_c, 9, 36, 55
8, 218708, Note_on_c, 9, 36, 0
8, 218898, Note_on_c, 9, 36, 37
8, 219342, Note_on_c, 9, 36, 0
8, 219539, Note_on_c, 9, 36, 32
8, 219639, Note_on_c, 9, 36, 0
8, 223326, Note_on_c, 9, 38, 42
8, 223451, Note_on_c, 9, 38, 0
8, 223685, Note_on_c, 9, 38, 32
8, 224060, Note_on_c, 9, 38, 0
8, 224303, Note_on_c, 9, 36, 35
8, 224413, Note_on_c, 9, 36, 0
8, 224693, Note_on_c, 9, 36, 46
8, 225117, Note_on_c, 9, 36, 0
8, 225263, Note_on_c, 9, 36, 56
8, 225436, Note_on_c, 9, 36, 0
8, 228024, Note_on_c, 9, 36, 34
8, 228147, Note_on_c, 9, 36, 0
8, 228391, Note_on_c, 9, 36, 37
8, 228719, Note_on_c, 9, 36, 0
8, 232265, Note_on_c, 9, 40, 32
8, 232361, Note_on_c, 9, 40, 0
8, 232528, Note_on_c, 9, 40, 38
8, 232628, Note_on_c, 9, 40, 0
8, 233278, Note_on_c, 9, 36, 26
8, 233385, Note_on_c, 9, 36, 0
8, 233899, Note_on_c, 9, 36, 51
8, 234128, Note_on_c, 9, 36, 0
8, 234324, Note_on_c, 9, 36, 44
8, 234516, Note_on_c, 9, 36, 0
8, 238999, Note_on_c, 9, 37, 65
8, 239200, Note_on_c, 9, 37, 0
8, 240892, Note_on_c, 9, 37, 55
8, 241045, Note_on_c, 9, 37, 0
8, 243431, Note_on_c, 9, 36, 36
8, 243618, Note_on_c, 9, 36, 0
8, 243810, Note_on_c, 9, 36, 37
8, 243950, Note_on_c, 9, 36, 0
8, 245281, Note_on_c, 9, 40, 58
8, 245361, Note_on_c, 9, 40, 0
8, 245650, Note_on_c, 9, 36, 20
8, 245867, Note_on_c, 9, 36, 0
8, 246342, Note_on_c, 9, 36, 50
8, 246486, Note_on_c, 9, 36, 0
8, 246719, Note_on_c, 9, 36, 49
8, 247009, Note_on_c, 9, 36, 0
8, 247686, Note_on_c, 9, 36, 38
8, 247959, Note_on_c, 9, 36, 0
8, 251607, Note_on_c, 9, 36, 20
8, 251792, Note_on_c, 9, 36, 0
8, 252183, Note_on_c, 9, 36, 53
8, 252356, Note_on_c, 9, 36, 0
8, 252585, Note_on_c, 9, 36, 38
8, 252765, Note_on_c, 9, 36, 0
8, 255312, Note_on_c, 9, 40, 34
8, 255412, Note_on_c, 9, 40, 0
8, 255586, Note_on_c, 9, 40, 44
8, 255682, Note_on_c, 9, 40, 0
8, 256908, Note_on_c, 9, 36, 49
8, 257035, Note_on_c, 9, 36, 0
8, 257246, Note_on_c, 9, 36, 47
8, 257523, Note_on_c, 9, 36, 0
8, 262828, Note_on_c, 9, 40, 34
8, 262941, Note_on_c, 9, 40, 0
8, 263185, Note_on_c, 9, 40, 35
8, 263661, Note_on_c, 9, 40, 0
8, 263801, Note_on_c, 9, 36, 46
8, 263891, Note_on_c, 9, 36, 0
8, 264173, Note_on_c, 9, 36, 36
8, 264371, Note_on_c, 9, 36, 0
8, 266865, Note_on_c, 9, 40, 34
8, 267209, Note_on_c, 9, 40, 0
8, 267424, Note_on_c, 9, 40, 34
8, 267593, Note_on_c, 9, 40, 0
8, 267783, Note_on_c, 9, 36, 35
8, 268319, Note_on_c, 9, 36, 0
8, 269630, Note_on_c, 9, 40, 45
8, 269743, Note_on_c, 9, 40, 0
8, 270200, Note_on_c, 9, 40, 60
8, 270359, Note_on_c, 9, 40, 0
8, 271145, Note_on_c, 9, 40, 64
8, 271344, Note_on_c, 9, 40, 0
8, 272253, Note_on_c, 9, 40, 66
8, 272422, Note_on_c, 9, 40, 0
8, 272648, Note_on_c, 9, 36, 58
8, 272673, Note_on_c, 9, 57, 46
8, 272746, Note_on_c, 9, 57, 0
8, 272815, Note_on_c, 9, 36, 0
8, 275143, Note_on_c, 9, 40, 66
8, 275298, Note_on_c, 9, 40, 0
8, 275463, Note_on_c, 9, 40, 44
8, 275696, Note_on_c, 9, 40, 0
8, 276099, Note_on_c, 9, 57, 71
8, 276110, Note_on_c, 9, 36, 71
8, 276243, Note_on_c, 9, 57, 0
8, 276277, Note_on_c, 9, 36, 0
8, 279148, Note_on_c, 9, 40, 53
8, 279226, Note_on_c, 9, 40, 0
8, 279958, Note_on_c, 9, 40, 61
8, 280075, Note_on_c, 9, 40, 0
8, 280880, Note_on_c, 9, 40, 54
8, 280993, Note_on_c, 9, 40, 0
8, 281883, Note_on_c, 9, 40, 56
8, 281991, Note_on_c, 9, 40, 0
8, 282277, Note_on_c, 9, 36, 30
8, 282450, Note_on_c, 9, 36, 0
8, 282869, Note_on_c, 9, 36, 40
8, 282965, Note_on_c, 9, 36, 0
8, 283187, Note_on_c, 9, 36, 51
8, 283888, Note_on_c, 9, 36, 0
8, 286140, Note_on_c, 9, 40, 40
8, 286280, Note_on_c, 9, 40, 0
8, 286753, Note_on_c, 9, 40, 60
8, 286861, Note_on_c, 9, 40, 0
8, 287693, Note_on_c, 9, 36, 52
8, 287781, Note_on_c, 9, 36, 0
8, 288082, Note_on_c, 9, 36, 44
8, 288446, Note_on_c, 9, 36, 0
8, 289531, Note_on_c, 9, 36, 40
8, 289654, Note_on_c, 9, 36, 0
8, 289898, Note_on_c, 9, 36, 34
8, 290057, Note_on_c, 9, 36, 0
8, 292722, Note_on_c, 9, 40, 48
8, 292832, Note_on_c, 9, 40, 0
8, 293041, Note_on_c, 9, 40, 33
8, 293223, Note_on_c, 9, 40, 0
8, 294477, Note_on_c, 9, 36, 45
8, 294558, Note_on_c, 9, 36, 0
8, 294788, Note_on_c, 9, 36, 50
8, 295235, Note_on_c, 9, 36, 0
8, 295731, Note_on_c, 9, 36, 46
8, 295946, Note_on_c, 9, 36, 0
8, 298259, Note_on_c, 9, 40, 37
8, 298374, Note_on_c, 9, 40, 0
8, 298611, Note_on_c, 9, 40, 34
8, 298812, Note_on_c, 9, 40, 0
8, 299173, Note_on_c, 9, 36, 37
8, 299269, Note_on_c, 9, 36, 0
8, 299523, Note_on_c, 9, 37, 52
8, 300012, Note_on_c, 9, 37, 0
8, 300118, Note_on_c, 9, 36, 41
8, 300206, Note_on_c, 9, 36, 0
8, 300498, Note_on_c, 9, 37, 77
8, 300972, Note_on_c, 9, 37, 0
8, 301450, Note_on_c, 9, 37, 77
8, 301781, Note_on_c, 9, 37, 0
8, 302067, Note_on_c, 9, 36, 60
8, 302151, Note_on_c, 9, 36, 0
8, 302992, Note_on_c, 9, 36, 71
8, 303132, Note_on_c, 9, 36, 0
8, 303365, Note_on_c, 9, 36, 67
8, 303551, Note_on_c, 9, 36, 0
8, 304922, Note_on_c, 9, 40, 47
8, 305004, Note_on_c, 9, 40, 0
8, 305242, Note_on_c, 9, 57, 58
8, 305285, Note_on_c, 9, 36, 58
8, 305690, Note_on_c, 9, 36, 0
8, 305739, Note_on_c, 9, 57, 0
8, 306214, Note_on_c, 9, 40, 50
8, 306348, Note_on_c, 9, 40, 0
8, 306824, Note_on_c, 9, 57, 69
8, 306838, Note_on_c, 9, 36, 74
8, 307043, Note_on_c, 9, 57, 0
8, 307204, Note_on_c, 9, 36, 0
8, 310701, Note_on_c, 9, 40, 72
8, 310839, Note_on_c, 9, 40, 0
8, 311044, Note_on_c, 9, 36, 30
8, 311221, Note_on_c, 9, 36, 0
8, 311676, Note_on_c, 9, 36, 55
8, 311837, Note_on_c, 9, 36, 0
8, 313043, Note_on_c, 9, 36, 57
8, 313205, Note_on_c, 9, 36, 0
8, 317763, Note_on_c, 9, 37, 77
8, 318099, Note_on_c, 9, 37, 0
8, 318385, Note_on_c, 9, 36, 47
8, 318473, Note_on_c, 9, 36, 0
8, 318726, Note_on_c, 9, 36, 50
8, 319022, Note_on_c, 9, 36, 0
8, 320266, Note_on_c, 9, 37, 56
8, 320402, Note_on_c, 9, 37, 0
8, 320685, Note_on_c, 9, 36, 18
8, 320981, Note_on_c, 9, 36, 0
8, 321203, Note_on_c, 9, 36, 53
8, 321372, Note_on_c, 9, 36, 0
8, 322578, Note_on_c, 9, 36, 54
8, 322660, Note_on_c, 9, 36, 0
8, 324485, Note_on_c, 9, 40, 34
8, 324681, Note_on_c, 9, 40, 0
8, 325085, Note_on_c, 9, 40, 48
8, 325260, Note_on_c, 9, 40, 0
8, 328115, Note_on_c, 9, 40, 60
8, 328204, Note_on_c, 9, 40, 0
8, 329014, Note_on_c, 9, 40, 51
8, 329127, Note_on_c, 9, 40, 0
8, 329413, Note_on_c, 9, 40, 47
8, 329619, Note_on_c, 9, 40, 0
8, 330056, Note_on_c, 9, 36, 31
8, 330162, Note_on_c, 9, 36, 0
8, 330878, Note_on_c, 9, 40, 25
8, 330947, Note_on_c, 9, 40, 0
8, 331249, Note_on_c, 9, 40, 46
8, 331410, Note_on_c, 9, 40, 0
8, 332747, Note_on_c, 9, 40, 71
8, 332902, Note_on_c, 9, 40, 0
8, 333084, Note_on_c, 9, 40, 48
8, 333238, Note_on_c, 9, 40, 0
8, 333664, Note_on_c, 9, 57, 77
8, 333689, Note_on_c, 9, 36, 78
8, 333798, Note_on_c, 9, 57, 0
8, 333825, Note_on_c, 9, 36, 0
8, 335642, Note_on_c, 9, 40, 68
8, 335841, Note_on_c, 9, 40, 0
8, 336026, Note_on_c, 9, 36, 57
8, 336122, Note_on_c, 9, 36, 0
8, 344266, Note_on_c, 9, 40, 44
8, 344347, Note_on_c, 9, 40, 0
8, 344616, Note_on_c, 9, 36, 38
8, 344856, Note_on_c, 9, 36, 0
8, 351242, Note_on_c, 9, 40, 29
8, 351353, Note_on_c, 9, 40, 0
8, 351545, Note_on_c, 9, 40, 27
8, 351666, Note_on_c, 9, 40, 0
8, 352855, Note_on_c, 9, 36, 46
8, 353037, Note_on_c, 9, 36, 0
8, 353250, Note_on_c, 9, 36, 38
8, 353556, Note_on_c, 9, 36, 0
8, 355727, Note_on_c, 9, 40, 58
8, 355949, Note_on_c, 9, 40, 0
8, 356197, Note_on_c, 9, 36, 35
8, 356557, Note_on_c, 9, 36, 0
8, 357100, Note_on_c, 9, 40, 54
8, 357484, Note_on_c, 9, 40, 0
8, 357749, Note_on_c, 9, 36, 39
8, 357841, Note_on_c, 9, 36, 0
8, 358611, Note_on_c, 9, 40, 51
8, 358711, Note_on_c, 9, 40, 0
8, 362860, Note_on_c, 9, 40, 36
8, 362990, Note_on_c, 9, 40, 0
8, 363461, Note_on_c, 9, 40, 54
8, 363622, Note_on_c, 9, 40, 0
8, 363801, Note_on_c, 9, 40, 42
8, 363987, Note_on_c, 9, 40, 0
8, 364448, Note_on_c, 9, 36, 41
8, 364528, Note_on_c, 9, 36, 0
8, 364791, Note_on_c, 9, 40, 64
8, 364812, Note_on_c, 9, 57, 62
8, 364937, Note_on_c, 9, 36, 30
8, 364983, Note_on_c, 9, 57, 0
8, 364989, Note_on_c, 9, 40, 0
8, 365140, Note_on_c, 9, 36, 0
8, 367281, Note_on_c, 9, 40, 44
8, 367429, Note_on_c, 9, 40, 0
8, 367681, Note_on_c, 9, 36, 38
8, 367831, Note_on_c, 9, 36, 0
8, 368280, Note_on_c, 9, 36, 34
8, 368439, Note_on_c, 9, 36, 0
8, 368666, Note_on_c, 9, 36, 39
8, 368903, Note_on_c, 9, 36, 0
8, 374664, Note_on_c, 9, 40, 44
8, 374787, Note_on_c, 9, 40, 0
8, 375366, Note_on_c, 9, 40, 41
8, 375568, Note_on_c, 9, 40, 0
8, 375985, Note_on_c, 9, 40, 41
8, 376230, Note_on_c, 9, 40, 0
8, 376710, Note_on_c, 9, 40, 43
8, 376881, Note_on_c, 9, 40, 0
8, 377269, Note_on_c, 9, 36, 30
8, 377563, Note_on_c, 9, 36, 0
8, 377983, Note_on_c, 9, 36, 37
8, 378260, Note_on_c, 9, 36, 0
8, 381701, Note_on_c, 9, 40, 48
8, 381809, Note_on_c, 9, 40, 0
8, 382056, Note_on_c, 9, 40, 32
8, 382516, Note_on_c, 9, 40, 0
8, 382655, Note_on_c, 9, 36, 37
8, 382783, Note_on_c, 9, 36, 0
8, 383022, Note_on_c, 9, 36, 53
8, 383373, Note_on_c, 9, 36, 0
8, 387846, Note_on_c, 9, 40, 49
8, 388185, Note_on_c, 9, 40, 0
8, 388465, Note_on_c, 9, 40, 47
8, 388605, Note_on_c, 9, 40, 0
8, 388826, Note_on_c, 9, 36, 36
8, 389219, Note_on_c, 9, 36, 0
8, 389784, Note_on_c, 9, 36, 51
8, 390235, Note_on_c, 9, 36, 0
8, 395073, Note_on_c, 9, 40, 49
8, 395233, Note_on_c, 9, 40, 0
8, 395529, Note_on_c, 9, 36, 25
8, 395684, Note_on_c, 9, 36, 0
8, 402777, Note_on_c, 9, 36, 42
8, 402892, Note_on_c, 9, 36, 0
8, 403193, Note_on_c, 9, 36, 44
8, 403677, Note_on_c, 9, 36, 0
8, 407235, Note_on_c, 9, 40, 25
8, 407481, Note_on_c, 9, 40, 0
8, 407987, Note_on_c, 9, 40, 47
8, 408158, Note_on_c, 9, 40, 0
8, 408610, Note_on_c, 9, 40, 49
8, 408798, Note_on_c, 9, 40, 0
8, 409264, Note_on_c, 9, 40, 38
8, 409400, Note_on_c, 9, 40, 0
8, 409592, Note_on_c, 9, 40, 50
8, 409688, Note_on_c, 9, 40, 0
8, 410626, Note_on_c, 9, 40, 49
8, 410855, Note_on_c, 9, 40, 0
8, 411051, Note_on_c, 9, 36, 41
8, 411374, Note_on_c, 9, 36, 0
8, 411626, Note_on_c, 9, 36, 51
8, 411810, Note_on_c, 9, 36, 0
8, 413379, Note_on_c, 9, 40, 53
8, 413504, Note_on_c, 9, 40, 0
8, 413765, Note_on_c, 9, 57, 54
8, 413770, Note_on_c, 9, 36, 52
8, 415504, Note_on_c, 9, 57, 0
8, 416382, Note_on_c, 9, 36, 0
8, 420844, Note_on_c, 9, 40, 42
8, 421020, Note_on_c, 9, 40, 0
8, 421174, Note_on_c, 9, 40, 32
8, 421254, Note_on_c, 9, 40, 0
8, 424803, Note_on_c, 9, 40, 40
8, 424935, Note_on_c, 9, 40, 0
8, 425156, Note_on_c, 9, 40, 38
8, 425367, Note_on_c, 9, 40, 0
8, 425832, Note_on_c, 9, 36, 34
8, 425945, Note_on_c, 9, 36, 0
8, 426212, Note_on_c, 9, 36, 44
8, 426406, Note_on_c, 9, 36, 0
8, 435484, Note_on_c, 9, 40, 36
8, 435608, Note_on_c, 9, 40, 0
8, 436518, Note_on_c, 9, 36, 24
8, 436660, Note_on_c, 9, 36, 0
8, 436832, Note_on_c, 9, 36, 30
8, 437269, Note_on_c, 9, 36, 0
8, 439068, Note_on_c, 9, 40, 31
8, 439210, Note_on_c, 9, 40, 0
8, 439345, Note_on_c, 9, 40, 32
8, 439471, Note_on_c, 9, 40, 0
8, 439650, Note_on_c, 9, 40, 38
8, 439823, Note_on_c, 9, 40, 0
8, 440691, Note_on_c, 9, 36, 47
8, 440825, Note_on_c, 9, 36, 0
8, 441176, Note_on_c, 9, 36, 33
8, 441399, Note_on_c, 9, 36, 0
8, 441632, Note_on_c, 9, 36, 50
8, 441870, Note_on_c, 9, 36, 0
8, 450903, Note_on_c, 9, 36, 31
8, 451043, Note_on_c, 9, 36, 0
8, 451287, Note_on_c, 9, 36, 42
8, 451798, Note_on_c, 9, 36, 0
8, 455104, Note_on_c, 9, 40, 42
8, 455181, Note_on_c, 9, 40, 0
8, 455761, Note_on_c, 9, 36, 33
8, 455857, Note_on_c, 9, 36, 0
8, 456684, Note_on_c, 9, 36, 39
8, 456759, Note_on_c, 9, 36, 0
8, 456964, Note_on_c, 9, 57, 62
8, 457016, Note_on_c, 9, 36, 61
8, 458249, Note_on_c, 9, 57, 0
8, 458322, Note_on_c, 9, 36, 0
8, 458570, Note_on_c, 9, 40, 69
8, 458737, Note_on_c, 9, 40, 0
8, 458892, Note_on_c, 9, 36, 46
8, 459401, Note_on_c, 9, 36, 0
8, 460417, Note_on_c, 9, 40, 54
8, 460522, Note_on_c, 9, 40, 0
8, 460759, Note_on_c, 9, 57, 49
8, 460778, Note_on_c, 9, 36, 51
8, 461275, Note_on_c, 9, 57, 0
8, 461494, Note_on_c, 9, 36, 0
8, 466215, Note_on_c, 9, 40, 38
8, 466421, Note_on_c, 9, 40, 0
8, 466580, Note_on_c, 9, 40, 51
8, 467072, Note_on_c, 9, 40, 0
8, 467185, Note_on_c, 9, 36, 43
8, 467425, Note_on_c, 9, 36, 0
8, 467546, Note_on_c, 9, 36, 35
8, 468025, Note_on_c, 9, 36, 0
8, 468204, Note_on_c, 9, 36, 54
8, 468577, Note_on_c, 9, 36, 0
8, 473321, Note_on_c, 9, 36, 49
8, 473859, Note_on_c, 9, 36, 0
8, 473999, Note_on_c, 9, 36, 65
8, 474277, Note_on_c, 9, 36, 0
8, 477678, Note_on_c, 9, 36, 58
8, 477762, Note_on_c, 9, 36, 0
8, 479060, Note_on_c, 9, 40, 39
8, 479559, Note_on_c, 9, 40, 0
8, 479703, Note_on_c, 9, 40, 56
8, 479855, Note_on_c, 9, 40, 0
8, 480663, Note_on_c, 9, 36, 42
8, 480790, Note_on_c, 9, 36, 0
8, 485675, Note_on_c, 9, 40, 51
8, 485782, Note_on_c, 9, 40, 0
8, 485949, Note_on_c, 9, 40, 57
8, 486204, Note_on_c, 9, 40, 0
8, 486694, Note_on_c, 9, 40, 49
8, 486802, Note_on_c, 9, 40, 0
8, 486938, Note_on_c, 9, 40, 53
8, 487116, Note_on_c, 9, 40, 0
8, 489597, Note_on_c, 9, 40, 27
8, 489777, Note_on_c, 9, 40, 0
8, 489850, Note_on_c, 9, 40, 28
8, 489944, Note_on_c, 9, 40, 0
8, 490820, Note_on_c, 9, 40, 30
8, 491002, Note_on_c, 9, 40, 0
8, 491217, Note_on_c, 9, 36, 46
8, 491427, Note_on_c, 9, 36, 0
8, 493376, Note_on_c, 9, 40, 38
8, 493838, Note_on_c, 9, 40, 0
8, 494015, Note_on_c, 9, 40, 39
8, 494240, Note_on_c, 9, 40, 0
8, 494395, Note_on_c, 9, 40, 42
8, 494798, Note_on_c, 9, 40, 0
8, 494969, Note_on_c, 9, 36, 61
8, 495251, Note_on_c, 9, 36, 0
8, 495415, Note_on_c, 9, 36, 63
8, 495927, Note_on_c, 9, 36, 0
8, 497859, Note_on_c, 9, 40, 49
8, 497959, Note_on_c, 9, 40, 0
8, 501727, Note_on_c, 9, 40, 46
8, 501908, Note_on_c, 9, 40, 0
8, 502670, Note_on_c, 9, 36, 40
8, 502851, Note_on_c, 9, 36, 0
8, 503079, Note_on_c, 9, 36, 40
8, 503305, Note_on_c, 9, 36, 0
8, 508490, Note_on_c, 9, 40, 30
8, 508593, Note_on_c, 9, 40, 0
8, 509465, Note_on_c, 9, 40, 54
8, 509586, Note_on_c, 9, 40, 0
8, 510408, Note_on_c, 9, 40, 53
8, 510544, Note_on_c, 9, 40, 0
8, 510862, Note_on_c, 9, 36, 31
8, 511014, Note_on_c, 9, 36, 0
8, 511410, Note_on_c, 9, 36, 32
8, 511535, Note_on_c, 9, 36, 0
8, 514534, Note_on_c, 9, 45, 64
8, 514878, Note_on_c, 9, 45, 0
8, 515513, Note_on_c, 9, 45, 77
8, 515974, Note_on_c, 9, 45, 0
8, 517107, Note_on_c, 9, 43, 74
8, 517255, Note_on_c, 9, 43, 0
8, 517487, Note_on_c, 9, 40, 41
8, 517579, Note_on_c, 9, 40, 0
8, 518114, Note_on_c, 9, 36, 54
8, 518188, Note_on_c, 9, 36, 0
8, 518478, Note_on_c, 9, 57, 72
8, 518507, Note_on_c, 9, 36, 64
8, 520430, Note_on_c, 9, 57, 0
8, 520588, Note_on_c, 9, 36, 0
8, 524446, Note_on_c, 9, 40, 34
8, 524567, Note_on_c, 9, 40, 0
8, 524760, Note_on_c, 9, 40, 26
8, 524915, Note_on_c, 9, 40, 0
8, 525657, Note_on_c, 9, 36, 53
8, 525730, Note_on_c, 9, 36, 0
8, 526090, Note_on_c, 9, 36, 45
8, 526181, Note_on_c, 9, 36, 0
8, 530070, Note_on_c, 9, 40, 15
8, 530272, Note_on_c, 9, 40, 0
8, 530370, Note_on_c, 9, 40, 38
8, 530491, Note_on_c, 9, 40, 0
8, 530739, Note_on_c, 9, 40, 32
8, 530831, Note_on_c, 9, 40, 0
8, 532069, Note_on_c, 9, 40, 46
8, 532235, Note_on_c, 9, 40, 0
8, 532392, Note_on_c, 9, 40, 45
8, 532465, Note_on_c, 9, 40, 0
8, 533183, Note_on_c, 9, 40, 59
8, 533849, Note_on_c, 9, 36, 66
8, 533857, Note_on_c, 9, 57, 58
8, 533874, Note_on_c, 9, 40, 0
8, 536047, Note_on_c, 9, 57, 0
8, 536305, Note_on_c, 9, 40, 54
8, 536345, Note_on_c, 9, 36, 0
8, 536497, Note_on_c, 9, 40, 0
8, 536652, Note_on_c, 9, 36, 40
8, 537077, Note_on_c, 9, 36, 0
8, 537286, Note_on_c, 9, 36, 58
8, 537478, Note_on_c, 9, 36, 0
8, 537668, Note_on_c, 9, 36, 59
8, 538192, Note_on_c, 9, 36, 0
8, 546848, Note_on_c, 9, 40, 39
8, 546993, Note_on_c, 9, 40, 0
8, 547212, Note_on_c, 9, 40, 34
8, 547498, Note_on_c, 9, 40, 0
8, 547792, Note_on_c, 9, 36, 25
8, 547924, Note_on_c, 9, 36, 0
8, 548128, Note_on_c, 9, 36, 47
8, 548386, Note_on_c, 9, 36, 0
8, 548764, Note_on_c, 9, 36, 55
8, 548933, Note_on_c, 9, 36, 0
8, 549109, Note_on_c, 9, 36, 49
8, 549514, Note_on_c, 9, 36, 0
8, 559341, Note_on_c, 9, 36, 29
8, 559460, Note_on_c, 9, 36, 0
8, 560770, Note_on_c, 9, 36, 40
8, 560986, Note_on_c, 9, 36, 0
8, 563262, Note_on_c, 9, 36, 60
8, 563331, Note_on_c, 9, 36, 0
8, 564589, Note_on_c, 9, 36, 56
8, 564717, Note_on_c, 9, 36, 0
8, 566082, Note_on_c, 9, 40, 60
8, 566173, Note_on_c, 9, 40, 0
8, 566368, Note_on_c, 9, 36, 33
8, 566744, Note_on_c, 9, 36, 0
8, 567024, Note_on_c, 9, 36, 44
8, 567205, Note_on_c, 9, 36, 0
8, 570928, Note_on_c, 9, 40, 47
8, 571126, Note_on_c, 9, 40, 0
8, 571308, Note_on_c, 9, 40, 41
8, 571809, Note_on_c, 9, 40, 0
8, 571890, Note_on_c, 9, 36, 43
8, 572096, Note_on_c, 9, 36, 0
8, 572247, Note_on_c, 9, 36, 38
8, 572813, Note_on_c, 9, 36, 0
8, 575974, Note_on_c, 9, 40, 24
8, 576057, Note_on_c, 9, 40, 0
8, 576193, Note_on_c, 9, 40, 29
8, 576375, Note_on_c, 9, 40, 0
8, 577523, Note_on_c, 9, 36, 50
8, 577719, Note_on_c, 9, 36, 0
8, 577873, Note_on_c, 9, 40, 32
8, 577965, Note_on_c, 9, 40, 0
8, 578123, Note_on_c, 9, 40, 41
8, 578278, Note_on_c, 9, 40, 0
8, 578888, Note_on_c, 9, 40, 25
8, 578965, Note_on_c, 9, 40, 0
8, 579092, Note_on_c, 9, 40, 27
8, 579204, Note_on_c, 9, 40, 0
8, 583687, Note_on_c, 9, 40, 36
8, 583775, Note_on_c, 9, 40, 0
8, 583965, Note_on_c, 9, 40, 36
8, 584052, Note_on_c, 9, 40, 0
8, 584305, Note_on_c, 9, 36, 41
8, 584393, Note_on_c, 9, 36, 0
8, 584629, Note_on_c, 9, 40, 32
8, 584739, Note_on_c, 9, 40, 0
8, 584836, Note_on_c, 9, 40, 29
8, 585011, Note_on_c, 9, 40, 0
8, 585292, Note_on_c, 9, 36, 33
8, 585390, Note_on_c, 9, 36, 0
8, 587218, Note_on_c, 9, 40, 61
8, 587369, Note_on_c, 9, 40, 0
8, 587638, Note_on_c, 9, 36, 34
8, 587903, Note_on_c, 9, 36, 0
8, 588162, Note_on_c, 9, 36, 44
8, 588318, Note_on_c, 9, 36, 0
8, 589423, Note_on_c, 9, 36, 40
8, 589589, Note_on_c, 9, 36, 0
8, 594872, Note_on_c, 9, 36, 44
8, 595001, Note_on_c, 9, 36, 0
8, 595236, Note_on_c, 9, 36, 41
8, 595869, Note_on_c, 9, 36, 0
8, 601635, Note_on_c, 9, 40, 55
8, 601777, Note_on_c, 9, 40, 0
8, 601953, Note_on_c, 9, 36, 36
8, 602201, Note_on_c, 9, 36, 0
8, 602579, Note_on_c, 9, 36, 48
8, 602767, Note_on_c, 9, 36, 0
8, 602927, Note_on_c, 9, 36, 34
8, 603395, Note_on_c, 9, 36, 0
8, 603564, Note_on_c, 9, 36, 57
8, 603758, Note_on_c, 9, 36, 0
8, 604822, Note_on_c, 9, 36, 53
8, 605041, Note_on_c, 9, 36, 0
8, 609253, Note_on_c, 9, 40, 46
8, 609357, Note_on_c, 9, 40, 0
8, 609597, Note_on_c, 9, 36, 26
8, 609754, Note_on_c, 9, 36, 0
8, 610238, Note_on_c, 9, 36, 52
8, 610378, Note_on_c, 9, 36, 0
8, 610597, Note_on_c, 9, 36, 43
8, 610981, Note_on_c, 9, 36, 0
8, 614055, Note_on_c, 9, 36, 60
8, 614243, Note_on_c, 9, 36, 0
8, 614428, Note_on_c, 9, 36, 55
8, 614879, Note_on_c, 9, 36, 0
8, 616973, Note_on_c, 9, 36, 60
8, 617047, Note_on_c, 9, 36, 0
8, 625604, Note_on_c, 9, 36, 50
8, 625805, Note_on_c, 9, 36, 0
8, 625977, Note_on_c, 9, 36, 36
8, 626387, Note_on_c, 9, 36, 0
8, 626622, Note_on_c, 9, 36, 42
8, 626752, Note_on_c, 9, 36, 0
8, 636458, Note_on_c, 9, 37, 85
8, 637017, Note_on_c, 9, 37, 0
8, 638320, Note_on_c, 9, 37, 85
8, 638771, Note_on_c, 9, 37, 0
8, 640304, Note_on_c, 9, 37, 77
8, 640417, Note_on_c, 9, 38, 48
8, 640467, Note_on_c, 9, 37, 0
8, 640482, Note_on_c, 9, 38, 0
8, 641336, Note_on_c, 9, 36, 57
8, 641340, Note_on_c, 9, 57, 54
8, 643700, Note_on_c, 9, 57, 0
8, 643785, Note_on_c, 9, 36, 0
8, 643813, Note_on_c, 9, 40, 51
8, 643929, Note_on_c, 9, 40, 0
8, 644145, Note_on_c, 9, 36, 60
8, 644172, Note_on_c, 9, 57, 48
8, 644285, Note_on_c, 9, 57, 0
8, 644314, Note_on_c, 9, 36, 0
8, 647117, Note_on_c, 9, 40, 36
8, 647467, Note_on_c, 9, 40, 0
8, 647692, Note_on_c, 9, 40, 54
8, 647807, Note_on_c, 9, 40, 0
8, 647982, Note_on_c, 9, 40, 40
8, 648204, Note_on_c, 9, 40, 0
8, 648632, Note_on_c, 9, 36, 50
8, 648710, Note_on_c, 9, 36, 0
8, 648971, Note_on_c, 9, 36, 55
8, 649017, Note_on_c, 9, 57, 56
8, 649838, Note_on_c, 9, 57, 0
8, 650136, Note_on_c, 9, 36, 0
8, 651543, Note_on_c, 9, 40, 57
8, 651647, Note_on_c, 9, 40, 0
8, 651927, Note_on_c, 9, 57, 48
8, 651944, Note_on_c, 9, 36, 50
8, 652261, Note_on_c, 9, 36, 0
8, 652309, Note_on_c, 9, 57, 0
8, 652503, Note_on_c, 9, 57, 57
8, 652505, Note_on_c, 9, 36, 64
8, 652908, Note_on_c, 9, 57, 0
8, 653039, Note_on_c, 9, 36, 0
8, 655305, Note_on_c, 9, 40, 58
8, 655370, Note_on_c, 9, 40, 0
8, 655640, Note_on_c, 9, 36, 27
8, 655758, Note_on_c, 9, 36, 0
8, 656386, Note_on_c, 9, 36, 49
8, 656464, Note_on_c, 9, 36, 0
8, 656706, Note_on_c, 9, 36, 60
8, 657232, Note_on_c, 9, 36, 0
8, 659238, Note_on_c, 9, 36, 65
8, 659304, Note_on_c, 9, 36, 0
8, 660602, Note_on_c, 9, 36, 44
8, 660673, Note_on_c, 9, 36, 0
8, 662122, Note_on_c, 9, 36, 68
8, 662232, Note_on_c, 9, 36, 0
8, 663470, Note_on_c, 9, 36, 58
8, 663555, Note_on_c, 9, 36, 0
8, 668217, Note_on_c, 9, 40, 54
8, 668355, Note_on_c, 9, 40, 0
8, 670181, Note_on_c, 9, 40, 81
8, 670547, Note_on_c, 9, 40, 0
8, 670825, Note_on_c, 9, 40, 59
8, 670991, Note_on_c, 9, 40, 0
8, 671164, Note_on_c, 9, 40, 40
8, 671417, Note_on_c, 9, 40, 0
8, 671746, Note_on_c, 9, 36, 74
8, 671890, Note_on_c, 9, 36, 0
8, 672080, Note_on_c, 9, 36, 71
8, 672507, Note_on_c, 9, 36, 0
8, 673976, Note_on_c, 9, 40, 69
8, 673993, Note_on_c, 9, 57, 71
8, 674405, Note_on_c, 9, 57, 0
8, 674462, Note_on_c, 9, 40, 0
8, 674967, Note_on_c, 9, 36, 41
8, 675080, Note_on_c, 9, 36, 0
8, 675555, Note_on_c, 9, 36, 75
8, 675559, Note_on_c, 9, 40, 53
8, 675560, Note_on_c, 9, 57, 80
8, 675774, Note_on_c, 9, 57, 0
8, 675996, Note_on_c, 9, 36, 0
8, 676058, Note_on_c, 9, 40, 0
8, 677778, Note_on_c, 9, 36, 25
8, 677868, Note_on_c, 9, 36, 0
8, 680151, Note_on_c, 9, 40, 50
8, 680324, Note_on_c, 9, 40, 0
8, 680520, Note_on_c, 9, 40, 41
8, 680723, Note_on_c, 9, 40, 0
8, 681149, Note_on_c, 9, 36, 44
8, 681228, Note_on_c, 9, 36, 0
8, 681520, Note_on_c, 9, 40, 59
8, 681537, Note_on_c, 9, 57, 64
8, 681914, Note_on_c, 9, 57, 0
8, 682050, Note_on_c, 9, 40, 0
8, 682179, Note_on_c, 9, 36, 24
8, 682244, Note_on_c, 9, 36, 0
8, 682526, Note_on_c, 9, 36, 19
8, 682897, Note_on_c, 9, 36, 0
8, 683148, Note_on_c, 9, 57, 72
8, 683193, Note_on_c, 9, 40, 55
8, 683676, Note_on_c, 9, 57, 0
8, 683872, Note_on_c, 9, 40, 0
8, 684237, Note_on_c, 9, 36, 24
8, 684302, Note_on_c, 9, 36, 0
8, 684590, Note_on_c, 9, 36, 36
8, 684677, Note_on_c, 9, 36, 0
8, 685095, Note_on_c, 9, 40, 72
8, 685101, Note_on_c, 9, 57, 85
8, 685272, Note_on_c, 9, 57, 0
8, 685583, Note_on_c, 9, 40, 0
8, 686003, Note_on_c, 9, 36, 71
8, 686173, Note_on_c, 9, 36, 0
8, 686393, Note_on_c, 9, 36, 46
8, 686714, Note_on_c, 9, 36, 0
8, 687395, Note_on_c, 9, 36, 61
8, 687641, Note_on_c, 9, 36, 0
8, 689828, Note_on_c, 9, 40, 44
8, 689995, Note_on_c, 9, 40, 0
8, 691201, Note_on_c, 9, 36, 26
8, 691464, Note_on_c, 9, 36, 0
8, 693126, Note_on_c, 9, 40, 45
8, 693295, Note_on_c, 9, 40, 0
8, 693787, Note_on_c, 9, 36, 28
8, 693885, Note_on_c, 9, 36, 0
8, 695127, Note_on_c, 9, 57, 58
8, 695131, Note_on_c, 9, 36, 53
8, 695202, Note_on_c, 9, 57, 0
8, 695210, Note_on_c, 9, 36, 0
8, 697809, Note_on_c, 9, 57, 58
8, 697842, Note_on_c, 9, 36, 53
8, 697903, Note_on_c, 9, 57, 0
8, 698124, Note_on_c, 9, 36, 0
8, 700663, Note_on_c, 9, 40, 33
8, 700799, Note_on_c, 9, 40, 0
8, 702344, Note_on_c, 9, 36, 45
8, 702425, Note_on_c, 9, 36, 0
8, 702763, Note_on_c, 9, 36, 51
8, 706520, Note_on_c, 9, 36, 0
8, 708494, Note_on_c, 9, 40, 31
8, 708627, Note_on_c, 9, 40, 0
8, 709091, Note_on_c, 9, 40, 39
8, 709212, Note_on_c, 9, 40, 0
8, 709962, Note_on_c, 9, 40, 32
8, 710088, Note_on_c, 9, 40, 0
8, 710315, Note_on_c, 9, 57, 39
8, 710372, Note_on_c, 9, 36, 49
8, 710606, Note_on_c, 9, 36, 0
8, 710685, Note_on_c, 9, 57, 0
8, 711422, Note_on_c, 9, 36, 51
8, 711432, Note_on_c, 9, 57, 43
8, 715339, Note_on_c, 9, 57, 0
8, 720494, Note_on_c, 9, 36, 0
8, 720494, End_track
9, 0, Start_track
9, 0, Title_t, "Drum Hits"
9, 0, End_track
10, 0, Start_track
10, 0, Title_t, "Drum Hits"
10, 0, End_track
0, 0, End_of_file
