0, 0, Header, 1, 3, 120
1, 0, Start_track
1, 0, Title_t, "New Orleans"
1, 0, Copyright_t, "Copyright © 1998 by Doug McKenzie"
1, 0, Text_t, "Hoagy Carmichael\012"
1, 0, Time_signature, 4, 2, 24, 8
1, 0, Key_signature, -2, "major"
1, 0, Tempo, 714286
1, 0, End_track
2, 0, Start_track
2, 0, MIDI_port, 0
2, 0, Program_c, 0, 0
2, 0, Control_c, 0, 7, 100
2, 90, Note_on_c, 0, 62, 64
2, 162, Control_c, 0, 64, 127
2, 190, Note_on_c, 0, 62, 0
2, 203, Note_on_c, 0, 62, 68
2, 267, Note_on_c, 0, 62, 0
2, 280, Note_on_c, 0, 62, 64
2, 315, Note_on_c, 0, 62, 0
2, 349, Note_on_c, 0, 62, 45
2, 384, Note_on_c, 0, 62, 0
2, 409, Note_on_c, 0, 62, 42
2, 443, Note_on_c, 0, 62, 0
2, 483, Note_on_c, 0, 62, 30
2, 536, Note_on_c, 0, 62, 0
2, 568, Note_on_c, 0, 62, 34
2, 632, Note_on_c, 0, 62, 0
2, 658, Note_on_c, 0, 62, 30
2, 716, Note_on_c, 0, 62, 0
2, 746, Note_on_c, 0, 62, 33
2, 808, Note_on_c, 0, 62, 0
2, 849, Note_on_c, 0, 67, 43
2, 849, Note_on_c, 0, 53, 40
2, 850, Note_on_c, 0, 62, 42
2, 853, Note_on_c, 0, 58, 29
2, 855, Control_c, 0, 64, 0
2, 875, Control_c, 0, 64, 127
2, 893, Note_on_c, 0, 67, 0
2, 900, Note_on_c, 0, 58, 0
2, 900, Note_on_c, 0, 62, 0
2, 941, Note_on_c, 0, 69, 57
2, 943, Note_on_c, 0, 63, 46
2, 943, Control_c, 0, 64, 0
2, 944, Note_on_c, 0, 60, 44
2, 945, Note_on_c, 0, 66, 47
2, 946, Note_on_c, 0, 54, 42
2, 952, Note_on_c, 0, 53, 0
2, 972, Control_c, 0, 64, 127
2, 987, Note_on_c, 0, 69, 0
2, 991, Note_on_c, 0, 60, 0
2, 1000, Note_on_c, 0, 63, 0
2, 1005, Note_on_c, 0, 66, 0
2, 1047, Note_on_c, 0, 54, 0
2, 1055, Note_on_c, 0, 70, 39
2, 1057, Control_c, 0, 64, 0
2, 1057, Note_on_c, 0, 65, 39
2, 1057, Note_on_c, 0, 55, 42
2, 1060, Note_on_c, 0, 62, 27
2, 1100, Control_c, 0, 64, 127
2, 1144, Note_on_c, 0, 62, 0
2, 1150, Note_on_c, 0, 65, 0
2, 1166, Note_on_c, 0, 70, 0
2, 1188, Note_on_c, 0, 55, 0
2, 1291, Note_on_c, 0, 74, 53
2, 1293, Note_on_c, 0, 58, 35
2, 1293, Note_on_c, 0, 65, 35
2, 1363, Note_on_c, 0, 65, 0
2, 1363, Note_on_c, 0, 74, 0
2, 1427, Note_on_c, 0, 58, 0
2, 1429, Note_on_c, 0, 76, 58
2, 1433, Note_on_c, 0, 61, 45
2, 1433, Note_on_c, 0, 67, 40
2, 1435, Note_on_c, 0, 70, 49
2, 1438, Control_c, 0, 64, 0
2, 1459, Control_c, 0, 64, 127
2, 1497, Note_on_c, 0, 76, 0
2, 1516, Note_on_c, 0, 67, 0
2, 1648, Note_on_c, 0, 70, 0
2, 1673, Note_on_c, 0, 68, 69
2, 1674, Note_on_c, 0, 73, 68
2, 1674, Note_on_c, 0, 77, 66
2, 1675, Note_on_c, 0, 63, 53
2, 1680, Control_c, 0, 64, 0
2, 1684, Note_on_c, 0, 61, 0
2, 1697, Control_c, 0, 64, 127
2, 1704, Note_on_c, 0, 77, 0
2, 1715, Note_on_c, 0, 68, 0
2, 1716, Note_on_c, 0, 73, 0
2, 1758, Note_on_c, 0, 79, 73
2, 1759, Note_on_c, 0, 70, 76
2, 1760, Note_on_c, 0, 75, 69
2, 1760, Control_c, 0, 64, 0
2, 1762, Note_on_c, 0, 64, 62
2, 1766, Note_on_c, 0, 63, 0
2, 1786, Control_c, 0, 64, 127
2, 1796, Note_on_c, 0, 79, 0
2, 1809, Note_on_c, 0, 75, 0
2, 1819, Note_on_c, 0, 70, 0
2, 2210, Note_on_c, 0, 81, 46
2, 2211, Note_on_c, 0, 72, 32
2, 2211, Note_on_c, 0, 66, 34
2, 2212, Note_on_c, 0, 77, 34
2, 2216, Control_c, 0, 64, 0
2, 2220, Note_on_c, 0, 64, 0
2, 2233, Control_c, 0, 64, 127
2, 2258, Note_on_c, 0, 66, 0
2, 2261, Note_on_c, 0, 72, 0
2, 2264, Note_on_c, 0, 77, 0
2, 2270, Note_on_c, 0, 81, 0
2, 2425, Note_on_c, 0, 86, 37
2, 2428, Note_on_c, 0, 74, 24
2, 2430, Note_on_c, 0, 79, 36
2, 2431, Note_on_c, 0, 55, 29
2, 2432, Note_on_c, 0, 64, 22
2, 2433, Control_c, 0, 64, 0
2, 2433, Note_on_c, 0, 60, 31
2, 2434, Note_on_c, 0, 57, 32
2, 2473, Control_c, 0, 64, 127
2, 2490, Note_on_c, 0, 86, 0
2, 2525, Note_on_c, 0, 86, 51
2, 2532, Note_on_c, 0, 64, 0
2, 2532, Note_on_c, 0, 60, 0
2, 2536, Note_on_c, 0, 55, 0
2, 2539, Note_on_c, 0, 79, 0
2, 2539, Note_on_c, 0, 86, 0
2, 2540, Note_on_c, 0, 57, 0
2, 2552, Note_on_c, 0, 74, 0
2, 2669, Note_on_c, 0, 42, 34
2, 2680, Note_on_c, 0, 43, 36
2, 2682, Note_on_c, 0, 42, 0
2, 2688, Note_on_c, 0, 54, 37
2, 2689, Note_on_c, 0, 43, 0
2, 2690, Note_on_c, 0, 65, 45
2, 2691, Note_on_c, 0, 58, 38
2, 2692, Note_on_c, 0, 44, 32
2, 2693, Note_on_c, 0, 60, 37
2, 2697, Control_c, 0, 64, 0
2, 2748, Control_c, 0, 64, 127
2, 2749, Note_on_c, 0, 32, 39
2, 2765, Note_on_c, 0, 65, 0
2, 2768, Note_on_c, 0, 60, 0
2, 2774, Note_on_c, 0, 32, 0
2, 2779, Note_on_c, 0, 54, 0
2, 2780, Note_on_c, 0, 44, 0
2, 2788, Note_on_c, 0, 58, 0
2, 2821, Note_on_c, 0, 31, 42
2, 2824, Control_c, 0, 64, 0
2, 2824, Note_on_c, 0, 53, 32
2, 2826, Note_on_c, 0, 61, 29
2, 2827, Note_on_c, 0, 43, 28
2, 2832, Note_on_c, 0, 59, 38
2, 2866, Control_c, 0, 64, 127
2, 3002, Note_on_c, 0, 53, 0
2, 3019, Note_on_c, 0, 59, 0
2, 3036, Note_on_c, 0, 31, 0
2, 3049, Note_on_c, 0, 61, 0
2, 3052, Note_on_c, 0, 43, 0
2, 3231, Note_on_c, 0, 61, 46
2, 3246, Note_on_c, 0, 62, 64
2, 3249, Note_on_c, 0, 61, 0
2, 3250, Note_on_c, 0, 70, 71
2, 3250, Note_on_c, 0, 64, 60
2, 3251, Note_on_c, 0, 75, 65
2, 3251, Note_on_c, 0, 67, 64
2, 3252, Note_on_c, 0, 62, 0
2, 3252, Control_c, 0, 64, 0
2, 3255, Note_on_c, 0, 63, 71
2, 3272, Note_on_c, 0, 73, 13
2, 3273, Control_c, 0, 64, 127
2, 3283, Note_on_c, 0, 67, 0
2, 3284, Note_on_c, 0, 64, 0
2, 3291, Note_on_c, 0, 70, 0
2, 3295, Note_on_c, 0, 73, 0
2, 3300, Note_on_c, 0, 75, 0
2, 3325, Note_on_c, 0, 66, 77
2, 3326, Note_on_c, 0, 77, 65
2, 3327, Note_on_c, 0, 65, 74
2, 3327, Note_on_c, 0, 72, 66
2, 3327, Note_on_c, 0, 69, 76
2, 3328, Note_on_c, 0, 63, 0
2, 3330, Note_on_c, 0, 75, 42
2, 3331, Control_c, 0, 64, 0
2, 3348, Control_c, 0, 64, 127
2, 3357, Note_on_c, 0, 69, 0
2, 3358, Note_on_c, 0, 72, 0
2, 3364, Note_on_c, 0, 77, 0
2, 3369, Note_on_c, 0, 75, 0
2, 3369, Note_on_c, 0, 66, 0
2, 3388, Note_on_c, 0, 65, 0
2, 3407, Note_on_c, 0, 79, 54
2, 3408, Note_on_c, 0, 67, 54
2, 3408, Note_on_c, 0, 73, 67
2, 3409, Note_on_c, 0, 70, 48
2, 3410, Note_on_c, 0, 76, 54
2, 3415, Control_c, 0, 64, 0
2, 3422, Note_on_c, 0, 67, 0
2, 3423, Control_c, 0, 64, 127
2, 3434, Note_on_c, 0, 76, 0
2, 3435, Note_on_c, 0, 79, 0
2, 3440, Note_on_c, 0, 73, 0
2, 3440, Note_on_c, 0, 70, 0
2, 3489, Note_on_c, 0, 74, 46
2, 3491, Note_on_c, 0, 62, 31
2, 3491, Note_on_c, 0, 66, 35
2, 3491, Note_on_c, 0, 69, 48
2, 3493, Note_on_c, 0, 52, 44
2, 3497, Control_c, 0, 64, 0
2, 3555, Control_c, 0, 64, 127
2, 3558, Note_on_c, 0, 58, 43
2, 3587, Note_on_c, 0, 66, 0
2, 3597, Note_on_c, 0, 62, 0
2, 3618, Note_on_c, 0, 74, 0
2, 3625, Note_on_c, 0, 66, 62
2, 3635, Note_on_c, 0, 58, 0
2, 3636, Note_on_c, 0, 52, 0
2, 3642, Note_on_c, 0, 69, 0
2, 3659, Note_on_c, 0, 66, 0
2, 3724, Note_on_c, 0, 63, 38
2, 3725, Note_on_c, 0, 56, 38
2, 3725, Note_on_c, 0, 60, 47
2, 3729, Note_on_c, 0, 52, 20
2, 3730, Control_c, 0, 64, 0
2, 3737, Note_on_c, 0, 42, 14
2, 3750, Control_c, 0, 64, 127
2, 3769, Note_on_c, 0, 42, 0
2, 3775, Note_on_c, 0, 60, 0
2, 3777, Note_on_c, 0, 52, 0
2, 3786, Note_on_c, 0, 63, 0
2, 3797, Note_on_c, 0, 56, 0
2, 3837, Note_on_c, 0, 51, 32
2, 3840, Note_on_c, 0, 60, 45
2, 3840, Note_on_c, 0, 57, 42
2, 3842, Note_on_c, 0, 41, 31
2, 3845, Note_on_c, 0, 29, 27
2, 3849, Control_c, 0, 64, 0
2, 3907, Control_c, 0, 64, 127
2, 3914, Note_on_c, 0, 51, 0
2, 3918, Note_on_c, 0, 57, 0
2, 3924, Note_on_c, 0, 60, 0
2, 3953, Note_on_c, 0, 29, 0
2, 3961, Note_on_c, 0, 41, 0
2, 3993, Note_on_c, 0, 77, 69
2, 4066, Note_on_c, 0, 77, 0
2, 4137, Note_on_c, 0, 77, 53
2, 4140, Note_on_c, 0, 73, 38
2, 4140, Note_on_c, 0, 69, 41
2, 4143, Note_on_c, 0, 57, 28
2, 4143, Note_on_c, 0, 63, 26
2, 4145, Control_c, 0, 64, 0
2, 4170, Control_c, 0, 64, 127
2, 4185, Note_on_c, 0, 77, 0
2, 4204, Note_on_c, 0, 77, 51
2, 4207, Note_on_c, 0, 69, 0
2, 4212, Note_on_c, 0, 63, 0
2, 4236, Note_on_c, 0, 77, 0
2, 4240, Note_on_c, 0, 73, 0
2, 4257, Note_on_c, 0, 57, 0
2, 4264, Note_on_c, 0, 77, 49
2, 4264, Note_on_c, 0, 70, 51
2, 4266, Note_on_c, 0, 65, 31
2, 4267, Note_on_c, 0, 62, 30
2, 4269, Control_c, 0, 64, 0
2, 4269, Note_on_c, 0, 60, 22
2, 4300, Control_c, 0, 64, 127
2, 4301, Note_on_c, 0, 65, 0
2, 4321, Note_on_c, 0, 70, 0
2, 4330, Note_on_c, 0, 77, 0
2, 4337, Note_on_c, 0, 53, 43
2, 4369, Note_on_c, 0, 62, 0
2, 4371, Note_on_c, 0, 60, 0
2, 4423, Note_on_c, 0, 86, 54
2, 4424, Note_on_c, 0, 74, 49
2, 4426, Note_on_c, 0, 62, 30
2, 4427, Note_on_c, 0, 65, 32
2, 4429, Note_on_c, 0, 60, 22
2, 4438, Note_on_c, 0, 74, 0
2, 4450, Note_on_c, 0, 86, 0
2, 4466, Note_on_c, 0, 65, 0
2, 4478, Note_on_c, 0, 53, 0
2, 4524, Note_on_c, 0, 98, 64
2, 4525, Note_on_c, 0, 53, 32
2, 4527, Note_on_c, 0, 86, 37
2, 4564, Note_on_c, 0, 60, 0
2, 4565, Note_on_c, 0, 62, 0
2, 4582, Note_on_c, 0, 53, 0
2, 4590, Note_on_c, 0, 86, 0
2, 4601, Note_on_c, 0, 98, 0
2, 4666, Control_c, 0, 64, 0
2, 4668, Note_on_c, 0, 54, 29
2, 4669, Note_on_c, 0, 101, 45
2, 4670, Note_on_c, 0, 89, 39
2, 4671, Note_on_c, 0, 60, 36
2, 4671, Note_on_c, 0, 65, 20
2, 4689, Control_c, 0, 64, 127
2, 4700, Note_on_c, 0, 65, 0
2, 4703, Note_on_c, 0, 60, 0
2, 4714, Note_on_c, 0, 54, 0
2, 4812, Note_on_c, 0, 26, 12
2, 4844, Note_on_c, 0, 26, 0
2, 4899, Note_on_c, 0, 26, 37
2, 4921, Note_on_c, 0, 26, 0
2, 5018, Note_on_c, 0, 101, 0
2, 5057, Note_on_c, 0, 89, 0
2, 5214, Note_on_c, 0, 74, 99
2, 5218, Note_on_c, 0, 62, 64
2, 5297, Note_on_c, 0, 62, 0
2, 5302, Note_on_c, 0, 74, 0
2, 5314, Note_on_c, 0, 74, 41
2, 5330, Note_on_c, 0, 74, 0
2, 5344, Note_on_c, 0, 74, 56
2, 5362, Note_on_c, 0, 74, 0
2, 5376, Note_on_c, 0, 74, 64
2, 5394, Note_on_c, 0, 74, 0
2, 5409, Note_on_c, 0, 74, 61
2, 5434, Note_on_c, 0, 74, 0
2, 5445, Note_on_c, 0, 74, 69
2, 5468, Note_on_c, 0, 74, 0
2, 5482, Note_on_c, 0, 74, 55
2, 5509, Note_on_c, 0, 74, 0
2, 5524, Note_on_c, 0, 74, 47
2, 5553, Note_on_c, 0, 74, 0
2, 5570, Note_on_c, 0, 74, 53
2, 5590, Note_on_c, 0, 74, 0
2, 5621, Note_on_c, 0, 74, 44
2, 5640, Note_on_c, 0, 74, 0
2, 5671, Note_on_c, 0, 74, 52
2, 5698, Note_on_c, 0, 74, 0
2, 5739, Note_on_c, 0, 70, 43
2, 5739, Note_on_c, 0, 79, 48
2, 5741, Note_on_c, 0, 74, 48
2, 5742, Note_on_c, 0, 69, 40
2, 5820, Note_on_c, 0, 68, 51
2, 5827, Note_on_c, 0, 69, 0
2, 5837, Note_on_c, 0, 79, 0
2, 5855, Note_on_c, 0, 74, 0
2, 5857, Note_on_c, 0, 70, 0
2, 5885, Note_on_c, 0, 81, 66
2, 5886, Note_on_c, 0, 68, 0
2, 5886, Note_on_c, 0, 70, 55
2, 5887, Note_on_c, 0, 74, 58
2, 5887, Note_on_c, 0, 67, 39
2, 5890, Control_c, 0, 64, 0
2, 5923, Control_c, 0, 64, 127
2, 5949, Note_on_c, 0, 66, 62
2, 5952, Note_on_c, 0, 67, 0
2, 5954, Note_on_c, 0, 81, 0
2, 5982, Note_on_c, 0, 70, 0
2, 5982, Note_on_c, 0, 74, 0
2, 6024, Note_on_c, 0, 66, 0
2, 6024, Note_on_c, 0, 82, 60
2, 6025, Note_on_c, 0, 74, 54
2, 6027, Note_on_c, 0, 65, 46
2, 6027, Control_c, 0, 64, 0
2, 6027, Note_on_c, 0, 70, 36
2, 6047, Control_c, 0, 64, 127
2, 6115, Note_on_c, 0, 74, 0
2, 6119, Note_on_c, 0, 70, 0
2, 6128, Note_on_c, 0, 82, 0
2, 6224, Note_on_c, 0, 86, 65
2, 6248, Note_on_c, 0, 86, 0
2, 6276, Note_on_c, 0, 65, 0
2, 6366, Note_on_c, 0, 76, 54
2, 6366, Note_on_c, 0, 70, 46
2, 6366, Note_on_c, 0, 67, 45
2, 6367, Note_on_c, 0, 74, 48
2, 6368, Note_on_c, 0, 64, 43
2, 6371, Control_c, 0, 64, 0
2, 6401, Control_c, 0, 64, 127
2, 6443, Note_on_c, 0, 76, 0
2, 6451, Note_on_c, 0, 77, 72
2, 6453, Note_on_c, 0, 76, 25
2, 6457, Note_on_c, 0, 74, 0
2, 6471, Note_on_c, 0, 67, 0
2, 6482, Note_on_c, 0, 64, 0
2, 6482, Note_on_c, 0, 70, 0
2, 6487, Note_on_c, 0, 77, 0
2, 6491, Note_on_c, 0, 76, 0
2, 6537, Note_on_c, 0, 79, 52
2, 6538, Note_on_c, 0, 73, 46
2, 6539, Note_on_c, 0, 76, 43
2, 6539, Note_on_c, 0, 67, 40
2, 6540, Note_on_c, 0, 55, 50
2, 6541, Note_on_c, 0, 66, 31
2, 6542, Control_c, 0, 64, 0
2, 6544, Note_on_c, 0, 61, 35
2, 6590, Control_c, 0, 64, 127
2, 6599, Note_on_c, 0, 79, 0
2, 6613, Note_on_c, 0, 67, 0
2, 6633, Note_on_c, 0, 76, 0
2, 6638, Note_on_c, 0, 73, 0
2, 6645, Note_on_c, 0, 81, 64
2, 6655, Note_on_c, 0, 66, 0
2, 6678, Note_on_c, 0, 81, 0
2, 6701, Note_on_c, 0, 55, 0
2, 6734, Note_on_c, 0, 61, 0
2, 6843, Note_on_c, 0, 74, 53
2, 6844, Note_on_c, 0, 44, 46
2, 6844, Note_on_c, 0, 70, 48
2, 6846, Control_c, 0, 64, 0
2, 6846, Note_on_c, 0, 65, 36
2, 6868, Control_c, 0, 64, 127
2, 6873, Note_on_c, 0, 65, 0
2, 6881, Note_on_c, 0, 70, 0
2, 6884, Note_on_c, 0, 74, 0
2, 6898, Note_on_c, 0, 54, 56
2, 6905, Note_on_c, 0, 44, 0
2, 6908, Note_on_c, 0, 54, 0
2, 6955, Note_on_c, 0, 86, 68
2, 6957, Note_on_c, 0, 77, 53
2, 6961, Note_on_c, 0, 60, 58
2, 6970, Note_on_c, 0, 77, 0
2, 6971, Note_on_c, 0, 86, 0
2, 7027, Note_on_c, 0, 65, 46
2, 7059, Note_on_c, 0, 65, 0
2, 7079, Note_on_c, 0, 60, 0
2, 7094, Note_on_c, 0, 74, 53
2, 7099, Note_on_c, 0, 65, 35
2, 7107, Note_on_c, 0, 65, 0
2, 7110, Note_on_c, 0, 74, 0
2, 7165, Note_on_c, 0, 70, 48
2, 7166, Note_on_c, 0, 60, 39
2, 7169, Note_on_c, 0, 65, 41
2, 7188, Note_on_c, 0, 70, 0
2, 7191, Note_on_c, 0, 65, 0
2, 7211, Note_on_c, 0, 60, 0
2, 7294, Note_on_c, 0, 63, 43
2, 7297, Note_on_c, 0, 59, 35
2, 7302, Note_on_c, 0, 53, 28
2, 7303, Note_on_c, 0, 67, 19
2, 7305, Note_on_c, 0, 43, 25
2, 7311, Control_c, 0, 64, 0
2, 7312, Note_on_c, 0, 63, 0
2, 7316, Note_on_c, 0, 64, 29
2, 7372, Note_on_c, 0, 64, 0
2, 7373, Note_on_c, 0, 63, 30
2, 7412, Control_c, 0, 64, 127
2, 7460, Note_on_c, 0, 63, 0
2, 7469, Note_on_c, 0, 62, 35
2, 7481, Control_c, 0, 64, 0
2, 7523, Control_c, 0, 64, 127
2, 7625, Note_on_c, 0, 59, 0
2, 7640, Note_on_c, 0, 43, 0
2, 7643, Note_on_c, 0, 62, 0
2, 7662, Note_on_c, 0, 53, 0
2, 7665, Note_on_c, 0, 67, 0
2, 7771, Note_on_c, 0, 87, 77
2, 7772, Note_on_c, 0, 75, 71
2, 7772, Note_on_c, 0, 51, 51
2, 7834, Note_on_c, 0, 75, 0
2, 7842, Note_on_c, 0, 87, 0
2, 7859, Note_on_c, 0, 89, 71
2, 7859, Note_on_c, 0, 53, 54
2, 7860, Note_on_c, 0, 77, 54
2, 7890, Note_on_c, 0, 77, 0
2, 7893, Note_on_c, 0, 89, 0
2, 7910, Note_on_c, 0, 53, 0
2, 7912, Note_on_c, 0, 51, 0
2, 7916, Note_on_c, 0, 55, 56
2, 7916, Note_on_c, 0, 91, 63
2, 7918, Note_on_c, 0, 79, 55
2, 7922, Note_on_c, 0, 55, 0
2, 7927, Note_on_c, 0, 91, 0
2, 7930, Note_on_c, 0, 79, 0
2, 7994, Note_on_c, 0, 78, 70
2, 7996, Note_on_c, 0, 86, 79
2, 7996, Note_on_c, 0, 74, 76
2, 7996, Note_on_c, 0, 58, 77
2, 7997, Note_on_c, 0, 81, 73
2, 7998, Note_on_c, 0, 64, 68
2, 8001, Note_on_c, 0, 84, 47
2, 8002, Control_c, 0, 64, 0
2, 8007, Note_on_c, 0, 84, 0
2, 8037, Control_c, 0, 64, 127
2, 8064, Note_on_c, 0, 64, 0
2, 8070, Note_on_c, 0, 58, 0
2, 8221, Note_on_c, 0, 36, 80
2, 8221, Note_on_c, 0, 24, 73
2, 8370, Note_on_c, 0, 24, 0
2, 8387, Note_on_c, 0, 36, 0
2, 8453, Note_on_c, 0, 86, 0
2, 8463, Note_on_c, 0, 81, 0
2, 8468, Note_on_c, 0, 74, 0
2, 8470, Note_on_c, 0, 78, 0
2, 9026, Note_on_c, 0, 41, 33
2, 9029, Note_on_c, 0, 65, 38
2, 9030, Control_c, 0, 64, 0
2, 9031, Note_on_c, 0, 57, 25
2, 9031, Note_on_c, 0, 62, 37
2, 9035, Note_on_c, 0, 53, 31
2, 9069, Control_c, 0, 64, 127
2, 9072, Note_on_c, 0, 57, 0
2, 9075, Note_on_c, 0, 65, 0
2, 9077, Note_on_c, 0, 62, 0
2, 9119, Note_on_c, 0, 53, 0
2, 9122, Note_on_c, 0, 77, 49
2, 9191, Note_on_c, 0, 77, 0
2, 9266, Note_on_c, 0, 41, 0
2, 9281, Note_on_c, 0, 63, 20
2, 9281, Note_on_c, 0, 77, 46
2, 9282, Note_on_c, 0, 68, 36
2, 9284, Note_on_c, 0, 73, 45
2, 9287, Note_on_c, 0, 57, 37
2, 9408, Note_on_c, 0, 77, 0
2, 9465, Note_on_c, 0, 77, 31
2, 9486, Note_on_c, 0, 57, 0
2, 9497, Note_on_c, 0, 63, 0
2, 9500, Note_on_c, 0, 68, 0
2, 9511, Note_on_c, 0, 73, 0
2, 9516, Note_on_c, 0, 77, 0
2, 9781, Note_on_c, 0, 70, 33
2, 9782, Note_on_c, 0, 53, 31
2, 9782, Note_on_c, 0, 46, 29
2, 9785, Note_on_c, 0, 62, 27
2, 9795, Control_c, 0, 64, 0
2, 9815, Control_c, 0, 64, 127
2, 9827, Note_on_c, 0, 70, 0
2, 9841, Note_on_c, 0, 53, 0
2, 9845, Note_on_c, 0, 70, 34
2, 9846, Note_on_c, 0, 54, 27
2, 9849, Note_on_c, 0, 63, 46
2, 9854, Control_c, 0, 64, 0
2, 9859, Note_on_c, 0, 62, 0
2, 9864, Control_c, 0, 64, 127
2, 9900, Note_on_c, 0, 54, 0
2, 9904, Control_c, 0, 64, 0
2, 9904, Note_on_c, 0, 51, 31
2, 9909, Note_on_c, 0, 60, 34
2, 9923, Note_on_c, 0, 63, 0
2, 9926, Control_c, 0, 64, 127
2, 9957, Note_on_c, 0, 51, 0
2, 9969, Note_on_c, 0, 61, 39
2, 9973, Note_on_c, 0, 52, 33
2, 9975, Control_c, 0, 64, 0
2, 9984, Control_c, 0, 64, 127
2, 10015, Note_on_c, 0, 70, 0
2, 10017, Note_on_c, 0, 60, 0
2, 10043, Note_on_c, 0, 52, 0
2, 10046, Note_on_c, 0, 61, 0
2, 10053, Note_on_c, 0, 62, 42
2, 10054, Control_c, 0, 64, 0
2, 10054, Note_on_c, 0, 70, 37
2, 10057, Note_on_c, 0, 53, 34
2, 10091, Control_c, 0, 64, 127
2, 10142, Note_on_c, 0, 62, 0
2, 10169, Note_on_c, 0, 70, 0
2, 10170, Note_on_c, 0, 46, 0
2, 10172, Note_on_c, 0, 53, 0
2, 10254, Note_on_c, 0, 86, 75
2, 10278, Note_on_c, 0, 86, 0
2, 10329, Note_on_c, 0, 84, 54
2, 10330, Note_on_c, 0, 79, 54
2, 10333, Note_on_c, 0, 74, 38
2, 10334, Control_c, 0, 64, 0
2, 10335, Note_on_c, 0, 69, 36
2, 10349, Control_c, 0, 64, 127
2, 10384, Note_on_c, 0, 79, 0
2, 10401, Note_on_c, 0, 74, 0
2, 10405, Note_on_c, 0, 84, 0
2, 10424, Note_on_c, 0, 69, 0
2, 10425, Note_on_c, 0, 82, 55
2, 10427, Note_on_c, 0, 72, 33
2, 10431, Note_on_c, 0, 77, 36
2, 10431, Note_on_c, 0, 67, 28
2, 10433, Control_c, 0, 64, 0
2, 10455, Control_c, 0, 64, 127
2, 10495, Note_on_c, 0, 67, 0
2, 10514, Note_on_c, 0, 72, 0
2, 10518, Note_on_c, 0, 82, 0
2, 10521, Note_on_c, 0, 77, 0
2, 10680, Note_on_c, 0, 62, 50
2, 10686, Note_on_c, 0, 81, 53
2, 10689, Note_on_c, 0, 69, 36
2, 10689, Note_on_c, 0, 50, 41
2, 10699, Control_c, 0, 64, 0
2, 10730, Control_c, 0, 64, 127
2, 10744, Note_on_c, 0, 62, 0
2, 10758, Note_on_c, 0, 60, 46
2, 10760, Note_on_c, 0, 50, 0
2, 10767, Note_on_c, 0, 60, 0
2, 11104, Note_on_c, 0, 65, 33
2, 11105, Note_on_c, 0, 54, 30
2, 11107, Note_on_c, 0, 60, 44
2, 11186, Note_on_c, 0, 74, 68
2, 11187, Note_on_c, 0, 81, 0
2, 11341, Note_on_c, 0, 76, 66
2, 11376, Note_on_c, 0, 69, 0
2, 11378, Note_on_c, 0, 76, 0
2, 11385, Note_on_c, 0, 74, 0
2, 11386, Note_on_c, 0, 78, 77
2, 11409, Note_on_c, 0, 60, 0
2, 11412, Note_on_c, 0, 54, 0
2, 11414, Note_on_c, 0, 65, 0
2, 11435, Note_on_c, 0, 78, 0
2, 11450, Note_on_c, 0, 75, 69
2, 11450, Note_on_c, 0, 79, 68
2, 11455, Note_on_c, 0, 55, 54
2, 11457, Control_c, 0, 64, 0
2, 11458, Note_on_c, 0, 66, 26
2, 11483, Control_c, 0, 64, 127
2, 11497, Note_on_c, 0, 79, 0
2, 11501, Note_on_c, 0, 75, 0
2, 11507, Note_on_c, 0, 66, 0
2, 11515, Note_on_c, 0, 61, 44
2, 11517, Note_on_c, 0, 82, 77
2, 11563, Note_on_c, 0, 82, 0
2, 11574, Note_on_c, 0, 77, 71
2, 11575, Note_on_c, 0, 84, 71
2, 11576, Note_on_c, 0, 65, 33
2, 11581, Note_on_c, 0, 61, 0
2, 11592, Note_on_c, 0, 77, 0
2, 11600, Note_on_c, 0, 84, 0
2, 11640, Note_on_c, 0, 89, 77
2, 11641, Note_on_c, 0, 96, 81
2, 11644, Note_on_c, 0, 61, 44
2, 11646, Note_on_c, 0, 65, 0
2, 11689, Note_on_c, 0, 96, 0
2, 11701, Note_on_c, 0, 89, 0
2, 11718, Note_on_c, 0, 94, 62
2, 11722, Note_on_c, 0, 84, 42
2, 11723, Note_on_c, 0, 65, 26
2, 11738, Note_on_c, 0, 94, 0
2, 11744, Note_on_c, 0, 61, 0
2, 11748, Note_on_c, 0, 84, 0
2, 11798, Note_on_c, 0, 84, 65
2, 11800, Note_on_c, 0, 65, 0
2, 11800, Note_on_c, 0, 77, 42
2, 11801, Note_on_c, 0, 61, 33
2, 11860, Note_on_c, 0, 77, 0
2, 11884, Note_on_c, 0, 84, 0
2, 11900, Note_on_c, 0, 82, 49
2, 11904, Note_on_c, 0, 72, 18
2, 11906, Note_on_c, 0, 77, 30
2, 11906, Note_on_c, 0, 65, 32
2, 12031, Note_on_c, 0, 55, 0
2, 12033, Note_on_c, 0, 82, 0
2, 12067, Note_on_c, 0, 77, 0
2, 12068, Note_on_c, 0, 72, 0
2, 12100, Note_on_c, 0, 82, 39
2, 12108, Note_on_c, 0, 55, 22
2, 12117, Note_on_c, 0, 55, 0
2, 12127, Note_on_c, 0, 65, 0
2, 12147, Note_on_c, 0, 61, 0
2, 12167, Note_on_c, 0, 82, 0
2, 12396, Note_on_c, 0, 81, 49
2, 12398, Note_on_c, 0, 26, 59
2, 12398, Note_on_c, 0, 69, 42
2, 12399, Note_on_c, 0, 38, 45
2, 12399, Control_c, 0, 64, 0
2, 12427, Control_c, 0, 64, 127
2, 12459, Note_on_c, 0, 69, 0
2, 12473, Note_on_c, 0, 81, 0
2, 12640, Note_on_c, 0, 89, 80
2, 12865, Note_on_c, 0, 80, 43
2, 12914, Note_on_c, 0, 89, 0
2, 12928, Note_on_c, 0, 71, 43
2, 12954, Note_on_c, 0, 80, 0
2, 12978, Note_on_c, 0, 86, 66
2, 13023, Note_on_c, 0, 77, 57
2, 13025, Note_on_c, 0, 86, 0
2, 13058, Note_on_c, 0, 71, 0
2, 13067, Note_on_c, 0, 68, 53
2, 13081, Control_c, 0, 64, 0
2, 13103, Control_c, 0, 64, 127
2, 13122, Note_on_c, 0, 83, 55
2, 13134, Note_on_c, 0, 77, 0
2, 13181, Note_on_c, 0, 74, 40
2, 13186, Note_on_c, 0, 83, 0
2, 13215, Note_on_c, 0, 68, 0
2, 13235, Note_on_c, 0, 65, 25
2, 13292, Note_on_c, 0, 80, 46
2, 13294, Note_on_c, 0, 74, 0
2, 13384, Note_on_c, 0, 71, 34
2, 13512, Note_on_c, 0, 65, 0
2, 13515, Note_on_c, 0, 80, 0
2, 13516, Note_on_c, 0, 62, 27
2, 13560, Note_on_c, 0, 71, 0
2, 13565, Note_on_c, 0, 77, 46
2, 13598, Note_on_c, 0, 26, 0
2, 13599, Note_on_c, 0, 38, 0
2, 13603, Note_on_c, 0, 68, 39
2, 13606, Note_on_c, 0, 62, 0
2, 13640, Note_on_c, 0, 77, 0
2, 13644, Note_on_c, 0, 59, 32
2, 13673, Note_on_c, 0, 68, 0
2, 13687, Note_on_c, 0, 74, 47
2, 13732, Note_on_c, 0, 65, 40
2, 13747, Note_on_c, 0, 74, 0
2, 13780, Control_c, 0, 64, 0
2, 13781, Note_on_c, 0, 59, 0
2, 13785, Note_on_c, 0, 56, 25
2, 13792, Control_c, 0, 64, 127
2, 13858, Note_on_c, 0, 65, 0
2, 13864, Note_on_c, 0, 68, 31
2, 13934, Note_on_c, 0, 59, 34
2, 13950, Note_on_c, 0, 56, 0
2, 13994, Note_on_c, 0, 53, 35
2, 14003, Control_c, 0, 64, 0
2, 14014, Control_c, 0, 64, 127
2, 14281, Note_on_c, 0, 53, 0
2, 14405, Note_on_c, 0, 26, 57
2, 14406, Note_on_c, 0, 50, 29
2, 14464, Note_on_c, 0, 50, 0
2, 14576, Note_on_c, 0, 59, 0
2, 14616, Note_on_c, 0, 68, 0
2, 14760, Note_on_c, 0, 26, 0
2, 14810, Note_on_c, 0, 32, 43
2, 14810, Note_on_c, 0, 72, 44
2, 14812, Note_on_c, 0, 44, 44
2, 14812, Note_on_c, 0, 84, 46
2, 14854, Note_on_c, 0, 84, 0
2, 14863, Note_on_c, 0, 44, 0
2, 14866, Note_on_c, 0, 32, 0
2, 14872, Note_on_c, 0, 72, 0
2, 14925, Note_on_c, 0, 70, 56
2, 14927, Note_on_c, 0, 82, 48
2, 14978, Note_on_c, 0, 82, 0
2, 14987, Note_on_c, 0, 70, 0
2, 15006, Note_on_c, 0, 81, 65
2, 15010, Note_on_c, 0, 69, 57
2, 15037, Note_on_c, 0, 81, 0
2, 15058, Note_on_c, 0, 69, 0
2, 15087, Note_on_c, 0, 79, 51
2, 15089, Note_on_c, 0, 67, 39
2, 15090, Note_on_c, 0, 43, 46
2, 15097, Control_c, 0, 64, 0
2, 15129, Control_c, 0, 64, 127
2, 15161, Note_on_c, 0, 43, 0
2, 15175, Note_on_c, 0, 55, 41
2, 15236, Note_on_c, 0, 67, 0
2, 15257, Note_on_c, 0, 79, 0
2, 15261, Note_on_c, 0, 67, 45
2, 15264, Note_on_c, 0, 74, 47
2, 15265, Note_on_c, 0, 55, 0
2, 15266, Note_on_c, 0, 70, 33
2, 15266, Note_on_c, 0, 58, 33
2, 15374, Note_on_c, 0, 74, 50
2, 15438, Note_on_c, 0, 74, 0
2, 15440, Note_on_c, 0, 76, 67
2, 15484, Note_on_c, 0, 67, 0
2, 15487, Note_on_c, 0, 74, 0
2, 15494, Note_on_c, 0, 70, 0
2, 15494, Note_on_c, 0, 79, 70
2, 15510, Note_on_c, 0, 76, 0
2, 15544, Note_on_c, 0, 79, 0
2, 15555, Note_on_c, 0, 58, 0
2, 15617, Note_on_c, 0, 76, 64
2, 15617, Note_on_c, 0, 61, 50
2, 15619, Note_on_c, 0, 73, 55
2, 15619, Note_on_c, 0, 67, 44
2, 15620, Note_on_c, 0, 70, 45
2, 15624, Control_c, 0, 64, 0
2, 15632, Note_on_c, 0, 55, 19
2, 15651, Control_c, 0, 64, 127
2, 15675, Note_on_c, 0, 67, 0
2, 15684, Note_on_c, 0, 70, 0
2, 15685, Note_on_c, 0, 55, 0
2, 15687, Note_on_c, 0, 73, 0
2, 15693, Note_on_c, 0, 76, 0
2, 15695, Note_on_c, 0, 61, 0
2, 16028, Control_c, 0, 64, 0
2, 16029, Note_on_c, 0, 94, 80
2, 16029, Note_on_c, 0, 82, 79
2, 16030, Note_on_c, 0, 66, 75
2, 16031, Note_on_c, 0, 61, 69
2, 16031, Note_on_c, 0, 55, 76
2, 16033, Note_on_c, 0, 90, 64
2, 16057, Control_c, 0, 64, 127
2, 16077, Note_on_c, 0, 55, 0
2, 16082, Note_on_c, 0, 90, 0
2, 16084, Note_on_c, 0, 94, 0
2, 16091, Note_on_c, 0, 82, 0
2, 16091, Note_on_c, 0, 66, 0
2, 16101, Note_on_c, 0, 61, 0
2, 16129, Note_on_c, 0, 93, 71
2, 16130, Note_on_c, 0, 81, 62
2, 16132, Note_on_c, 0, 89, 60
2, 16132, Note_on_c, 0, 65, 66
2, 16132, Note_on_c, 0, 54, 64
2, 16134, Note_on_c, 0, 60, 66
2, 16141, Control_c, 0, 64, 0
2, 16177, Control_c, 0, 64, 127
2, 16193, Note_on_c, 0, 65, 0
2, 16199, Note_on_c, 0, 60, 0
2, 16208, Note_on_c, 0, 54, 0
2, 16303, Note_on_c, 0, 89, 0
2, 16304, Note_on_c, 0, 81, 0
2, 16307, Note_on_c, 0, 93, 0
2, 16308, Note_on_c, 0, 38, 31
2, 16309, Note_on_c, 0, 26, 32
2, 16440, Note_on_c, 0, 26, 0
2, 16452, Note_on_c, 0, 38, 0
2, 16577, Note_on_c, 0, 62, 68
2, 16578, Note_on_c, 0, 50, 45
2, 16792, Note_on_c, 0, 62, 0
2, 16795, Note_on_c, 0, 64, 47
2, 16799, Note_on_c, 0, 50, 0
2, 16802, Note_on_c, 0, 52, 44
2, 16909, Note_on_c, 0, 64, 0
2, 16916, Note_on_c, 0, 52, 0
2, 16916, Note_on_c, 0, 54, 49
2, 16919, Note_on_c, 0, 66, 51
2, 17017, Note_on_c, 0, 66, 0
2, 17033, Note_on_c, 0, 54, 0
2, 17042, Note_on_c, 0, 67, 57
2, 17043, Note_on_c, 0, 58, 59
2, 17044, Note_on_c, 0, 62, 62
2, 17045, Note_on_c, 0, 53, 54
2, 17053, Control_c, 0, 64, 0
2, 17083, Control_c, 0, 64, 127
2, 17107, Note_on_c, 0, 62, 0
2, 17115, Note_on_c, 0, 58, 0
2, 17132, Note_on_c, 0, 67, 0
2, 17141, Note_on_c, 0, 69, 67
2, 17143, Note_on_c, 0, 66, 63
2, 17143, Note_on_c, 0, 63, 64
2, 17145, Note_on_c, 0, 54, 71
2, 17145, Note_on_c, 0, 60, 60
2, 17146, Note_on_c, 0, 53, 0
2, 17150, Control_c, 0, 64, 0
2, 17184, Control_c, 0, 64, 127
2, 17191, Note_on_c, 0, 69, 0
2, 17195, Note_on_c, 0, 60, 0
2, 17202, Note_on_c, 0, 63, 0
2, 17206, Note_on_c, 0, 66, 0
2, 17247, Note_on_c, 0, 54, 0
2, 17248, Note_on_c, 0, 70, 67
2, 17250, Note_on_c, 0, 55, 57
2, 17250, Note_on_c, 0, 65, 61
2, 17253, Note_on_c, 0, 62, 38
2, 17256, Control_c, 0, 64, 0
2, 17288, Control_c, 0, 64, 127
2, 17300, Note_on_c, 0, 62, 0
2, 17303, Note_on_c, 0, 65, 0
2, 17313, Note_on_c, 0, 70, 0
2, 17364, Note_on_c, 0, 74, 64
2, 17366, Note_on_c, 0, 55, 0
2, 17367, Note_on_c, 0, 70, 47
2, 17367, Note_on_c, 0, 58, 57
2, 17368, Note_on_c, 0, 67, 45
2, 17376, Control_c, 0, 64, 0
2, 17399, Control_c, 0, 64, 127
2, 17419, Note_on_c, 0, 67, 0
2, 17423, Note_on_c, 0, 74, 0
2, 17426, Note_on_c, 0, 70, 0
2, 17477, Note_on_c, 0, 76, 45
2, 17478, Note_on_c, 0, 61, 50
2, 17479, Note_on_c, 0, 70, 50
2, 17479, Note_on_c, 0, 73, 48
2, 17481, Note_on_c, 0, 67, 31
2, 17482, Note_on_c, 0, 58, 0
2, 17487, Control_c, 0, 64, 0
2, 17517, Control_c, 0, 64, 127
2, 17537, Note_on_c, 0, 76, 0
2, 17543, Note_on_c, 0, 67, 0
2, 17553, Note_on_c, 0, 73, 0
2, 17561, Note_on_c, 0, 70, 0
2, 17596, Note_on_c, 0, 65, 50
2, 17596, Note_on_c, 0, 66, 51
2, 17597, Note_on_c, 0, 77, 46
2, 17597, Note_on_c, 0, 69, 58
2, 17601, Note_on_c, 0, 72, 41
2, 17602, Note_on_c, 0, 61, 0
2, 17607, Control_c, 0, 64, 0
2, 17608, Note_on_c, 0, 75, 25
2, 17637, Control_c, 0, 64, 127
2, 17657, Note_on_c, 0, 72, 0
2, 17658, Note_on_c, 0, 69, 0
2, 17668, Note_on_c, 0, 66, 0
2, 17670, Note_on_c, 0, 77, 0
2, 17683, Note_on_c, 0, 75, 0
2, 17717, Note_on_c, 0, 65, 0
2, 17725, Note_on_c, 0, 70, 53
2, 17727, Note_on_c, 0, 79, 53
2, 17728, Note_on_c, 0, 64, 33
2, 17729, Note_on_c, 0, 73, 45
2, 17733, Control_c, 0, 64, 0
2, 17735, Note_on_c, 0, 76, 27
2, 17760, Control_c, 0, 64, 127
2, 17788, Note_on_c, 0, 79, 0
2, 17790, Note_on_c, 0, 76, 0
2, 17798, Note_on_c, 0, 70, 0
2, 17802, Note_on_c, 0, 73, 0
2, 17803, Note_on_c, 0, 64, 0
2, 18016, Note_on_c, 0, 69, 45
2, 18016, Note_on_c, 0, 70, 44
2, 18017, Note_on_c, 0, 81, 51
2, 18020, Note_on_c, 0, 73, 37
2, 18021, Note_on_c, 0, 76, 42
2, 18043, Note_on_c, 0, 69, 0
2, 18054, Note_on_c, 0, 70, 0
2, 18055, Note_on_c, 0, 76, 0
2, 18061, Note_on_c, 0, 73, 0
2, 18064, Note_on_c, 0, 81, 0
2, 18173, Note_on_c, 0, 86, 41
2, 18176, Note_on_c, 0, 55, 31
2, 18176, Note_on_c, 0, 74, 28
2, 18177, Control_c, 0, 64, 0
2, 18178, Note_on_c, 0, 79, 41
2, 18178, Note_on_c, 0, 60, 30
2, 18179, Note_on_c, 0, 57, 36
2, 18179, Note_on_c, 0, 64, 24
2, 18209, Control_c, 0, 64, 127
2, 18210, Note_on_c, 0, 74, 0
2, 18211, Note_on_c, 0, 79, 0
2, 18217, Note_on_c, 0, 86, 0
2, 18261, Note_on_c, 0, 64, 0
2, 18263, Note_on_c, 0, 60, 0
2, 18267, Note_on_c, 0, 55, 0
2, 18271, Note_on_c, 0, 57, 0
2, 18280, Note_on_c, 0, 98, 57
2, 18280, Note_on_c, 0, 86, 49
2, 18297, Note_on_c, 0, 86, 0
2, 18301, Note_on_c, 0, 98, 0
2, 18372, Note_on_c, 0, 26, 45
2, 18386, Note_on_c, 0, 26, 0
2, 18700, Note_on_c, 0, 68, 43
2, 18701, Note_on_c, 0, 60, 32
2, 18704, Note_on_c, 0, 54, 31
2, 18705, Note_on_c, 0, 63, 38
2, 18706, Note_on_c, 0, 44, 29
2, 18706, Note_on_c, 0, 65, 42
2, 18706, Control_c, 0, 64, 0
2, 18731, Control_c, 0, 64, 127
2, 18751, Note_on_c, 0, 60, 0
2, 18758, Note_on_c, 0, 54, 0
2, 18760, Note_on_c, 0, 63, 0
2, 18760, Note_on_c, 0, 68, 0
2, 18765, Note_on_c, 0, 65, 0
2, 18772, Note_on_c, 0, 44, 0
2, 18784, Note_on_c, 0, 59, 39
2, 18787, Note_on_c, 0, 67, 36
2, 18789, Note_on_c, 0, 64, 33
2, 18790, Note_on_c, 0, 43, 31
2, 18795, Note_on_c, 0, 53, 22
2, 18796, Control_c, 0, 64, 0
2, 18831, Control_c, 0, 64, 127
2, 18933, Note_on_c, 0, 64, 0
2, 18957, Note_on_c, 0, 59, 0
2, 18980, Note_on_c, 0, 67, 0
2, 18993, Note_on_c, 0, 53, 0
2, 18995, Note_on_c, 0, 63, 79
2, 18995, Note_on_c, 0, 51, 46
2, 19014, Note_on_c, 0, 51, 0
2, 19016, Note_on_c, 0, 63, 0
2, 19030, Note_on_c, 0, 63, 65
2, 19032, Note_on_c, 0, 51, 37
2, 19055, Note_on_c, 0, 63, 0
2, 19062, Note_on_c, 0, 51, 0
2, 19072, Note_on_c, 0, 65, 79
2, 19073, Note_on_c, 0, 53, 51
2, 19088, Note_on_c, 0, 53, 0
2, 19094, Note_on_c, 0, 65, 0
2, 19114, Note_on_c, 0, 53, 44
2, 19114, Note_on_c, 0, 65, 64
2, 19131, Note_on_c, 0, 53, 0
2, 19139, Note_on_c, 0, 65, 0
2, 19159, Note_on_c, 0, 67, 68
2, 19162, Note_on_c, 0, 55, 36
2, 19169, Note_on_c, 0, 55, 0
2, 19178, Note_on_c, 0, 67, 0
2, 19201, Note_on_c, 0, 43, 0
2, 19208, Note_on_c, 0, 67, 53
2, 19222, Note_on_c, 0, 67, 0
2, 19297, Note_on_c, 0, 74, 55
2, 19298, Note_on_c, 0, 66, 47
2, 19298, Note_on_c, 0, 69, 58
2, 19299, Control_c, 0, 64, 0
2, 19299, Note_on_c, 0, 62, 51
2, 19300, Note_on_c, 0, 58, 36
2, 19302, Note_on_c, 0, 48, 37
2, 19338, Control_c, 0, 64, 127
2, 19447, Note_on_c, 0, 74, 0
2, 19473, Note_on_c, 0, 74, 37
2, 19495, Note_on_c, 0, 58, 0
2, 19523, Note_on_c, 0, 48, 0
2, 19523, Note_on_c, 0, 74, 0
2, 19562, Note_on_c, 0, 74, 46
2, 19622, Note_on_c, 0, 74, 0
2, 19657, Note_on_c, 0, 69, 0
2, 19667, Note_on_c, 0, 74, 30
2, 19703, Note_on_c, 0, 62, 0
2, 19711, Note_on_c, 0, 74, 0
2, 19719, Note_on_c, 0, 66, 0
2, 19804, Note_on_c, 0, 41, 51
2, 19804, Control_c, 0, 64, 0
2, 19813, Control_c, 0, 64, 127
2, 19814, Note_on_c, 0, 41, 0
2, 20112, Note_on_c, 0, 53, 32
2, 20128, Note_on_c, 0, 57, 44
2, 20136, Note_on_c, 0, 68, 39
2, 20145, Note_on_c, 0, 63, 36
2, 20151, Note_on_c, 0, 73, 60
2, 20164, Note_on_c, 0, 77, 56
2, 20357, Note_on_c, 0, 63, 0
2, 20366, Note_on_c, 0, 57, 0
2, 20371, Note_on_c, 0, 53, 0
2, 20376, Note_on_c, 0, 77, 0
2, 20386, Note_on_c, 0, 73, 0
2, 20388, Note_on_c, 0, 68, 0
2, 20617, Note_on_c, 0, 46, 40
2, 20618, Note_on_c, 0, 65, 49
2, 20619, Note_on_c, 0, 70, 48
2, 20619, Note_on_c, 0, 60, 36
2, 20620, Note_on_c, 0, 62, 32
2, 20620, Note_on_c, 0, 55, 37
2, 20633, Control_c, 0, 64, 0
2, 20694, Control_c, 0, 64, 127
2, 20840, Note_on_c, 0, 70, 0
2, 20876, Note_on_c, 0, 70, 52
2, 20971, Note_on_c, 0, 70, 0
2, 21025, Note_on_c, 0, 70, 52
2, 21132, Note_on_c, 0, 70, 0
2, 21165, Note_on_c, 0, 70, 49
2, 21170, Note_on_c, 0, 60, 0
2, 21172, Note_on_c, 0, 62, 0
2, 21186, Note_on_c, 0, 46, 0
2, 21186, Note_on_c, 0, 55, 0
2, 21197, Note_on_c, 0, 65, 0
2, 21232, Note_on_c, 0, 70, 0
2, 21365, Note_on_c, 0, 74, 30
2, 21367, Note_on_c, 0, 69, 40
2, 21369, Note_on_c, 0, 64, 20
2, 21369, Note_on_c, 0, 67, 34
2, 21370, Note_on_c, 0, 50, 32
2, 21370, Note_on_c, 0, 60, 26
2, 21371, Control_c, 0, 64, 0
2, 21399, Control_c, 0, 64, 127
2, 21413, Note_on_c, 0, 64, 0
2, 21420, Note_on_c, 0, 67, 0
2, 21425, Note_on_c, 0, 69, 0
2, 21425, Note_on_c, 0, 60, 0
2, 21435, Note_on_c, 0, 74, 0
2, 21438, Note_on_c, 0, 50, 0
2, 21680, Note_on_c, 0, 98, 35
2, 21681, Note_on_c, 0, 86, 35
2, 21681, Note_on_c, 0, 38, 33
2, 21684, Note_on_c, 0, 26, 30
2, 21694, Note_on_c, 0, 86, 0
2, 21697, Note_on_c, 0, 26, 0
2, 21698, Note_on_c, 0, 38, 0
2, 21698, Note_on_c, 0, 98, 0
2, 21965, Control_c, 0, 64, 127
2, 22036, Note_on_c, 0, 62, 37
2, 22060, Control_c, 0, 64, 0
2, 22071, Note_on_c, 0, 62, 0
2, 22072, Control_c, 0, 64, 0
2, 22079, Note_on_c, 0, 67, 43
2, 22083, Note_on_c, 0, 50, 28
2, 22084, Note_on_c, 0, 43, 31
2, 22095, Control_c, 0, 64, 127
2, 22108, Note_on_c, 0, 43, 0
2, 22114, Note_on_c, 0, 50, 0
2, 22150, Note_on_c, 0, 67, 0
2, 22162, Note_on_c, 0, 69, 63
2, 22189, Note_on_c, 0, 69, 0
2, 22203, Note_on_c, 0, 55, 38
2, 22203, Note_on_c, 0, 58, 40
2, 22204, Note_on_c, 0, 62, 33
2, 22206, Note_on_c, 0, 70, 69
2, 22231, Note_on_c, 0, 70, 0
2, 22244, Note_on_c, 0, 55, 0
2, 22249, Note_on_c, 0, 62, 0
2, 22257, Note_on_c, 0, 58, 0
2, 22281, Note_on_c, 0, 74, 68
2, 22290, Note_on_c, 0, 74, 0
2, 22325, Note_on_c, 0, 88, 76
2, 22325, Note_on_c, 0, 76, 73
2, 22326, Note_on_c, 0, 61, 59
2, 22327, Note_on_c, 0, 66, 55
2, 22327, Note_on_c, 0, 55, 58
2, 22327, Control_c, 0, 64, 0
2, 22347, Control_c, 0, 64, 127
2, 22419, Note_on_c, 0, 76, 0
2, 22426, Note_on_c, 0, 88, 0
2, 22450, Note_on_c, 0, 77, 75
2, 22450, Note_on_c, 0, 89, 80
2, 22474, Note_on_c, 0, 77, 0
2, 22476, Note_on_c, 0, 89, 0
2, 22483, Note_on_c, 0, 55, 0
2, 22492, Note_on_c, 0, 79, 60
2, 22493, Note_on_c, 0, 91, 56
2, 22506, Note_on_c, 0, 91, 0
2, 22507, Note_on_c, 0, 79, 0
2, 22514, Note_on_c, 0, 66, 0
2, 22530, Note_on_c, 0, 93, 55
2, 22531, Note_on_c, 0, 81, 44
2, 22534, Note_on_c, 0, 93, 0
2, 22538, Note_on_c, 0, 81, 0
2, 22558, Note_on_c, 0, 61, 0
2, 22569, Note_on_c, 0, 74, 36
2, 22571, Note_on_c, 0, 86, 31
2, 22573, Note_on_c, 0, 78, 37
2, 22573, Note_on_c, 0, 64, 31
2, 22574, Note_on_c, 0, 60, 46
2, 22574, Note_on_c, 0, 81, 36
2, 22575, Note_on_c, 0, 54, 27
2, 22578, Control_c, 0, 64, 0
2, 22597, Control_c, 0, 64, 127
2, 22602, Note_on_c, 0, 64, 0
2, 22605, Note_on_c, 0, 60, 0
2, 22606, Note_on_c, 0, 86, 0
2, 22607, Note_on_c, 0, 81, 0
2, 22611, Note_on_c, 0, 78, 0
2, 22611, Note_on_c, 0, 54, 0
2, 22616, Note_on_c, 0, 74, 0
2, 22660, Note_on_c, 0, 38, 29
2, 22673, Note_on_c, 0, 38, 0
2, 22696, Note_on_c, 0, 54, 33
2, 22696, Note_on_c, 0, 56, 44
2, 22698, Note_on_c, 0, 50, 22
2, 22701, Note_on_c, 0, 60, 38
2, 22701, Note_on_c, 0, 62, 27
2, 22702, Note_on_c, 0, 56, 0
2, 22707, Control_c, 0, 64, 0
2, 22709, Note_on_c, 0, 57, 30
2, 22735, Note_on_c, 0, 50, 0
2, 22750, Note_on_c, 0, 60, 0
2, 22755, Note_on_c, 0, 57, 0
2, 22756, Note_on_c, 0, 54, 0
2, 22756, Control_c, 0, 64, 127
2, 22770, Note_on_c, 0, 62, 0
2, 22778, Note_on_c, 0, 62, 17
2, 22779, Note_on_c, 0, 43, 34
2, 22781, Note_on_c, 0, 53, 32
2, 22782, Note_on_c, 0, 56, 31
2, 22783, Note_on_c, 0, 59, 37
2, 22784, Control_c, 0, 64, 0
2, 22816, Control_c, 0, 64, 127
2, 22821, Note_on_c, 0, 53, 0
2, 22831, Note_on_c, 0, 56, 0
2, 22831, Note_on_c, 0, 59, 0
2, 22836, Note_on_c, 0, 62, 0
2, 22888, Note_on_c, 0, 43, 0
2, 22894, Note_on_c, 0, 31, 60
2, 22898, Note_on_c, 0, 63, 83
2, 22899, Note_on_c, 0, 31, 0
2, 22924, Note_on_c, 0, 63, 0
2, 22983, Note_on_c, 0, 65, 62
2, 22983, Note_on_c, 0, 56, 62
2, 22984, Note_on_c, 0, 59, 66
2, 22986, Note_on_c, 0, 53, 39
2, 22987, Note_on_c, 0, 43, 36
2, 22989, Note_on_c, 0, 62, 22
2, 22994, Note_on_c, 0, 65, 0
2, 22996, Note_on_c, 0, 62, 0
2, 23002, Note_on_c, 0, 56, 0
2, 23002, Note_on_c, 0, 43, 0
2, 23003, Note_on_c, 0, 59, 0
2, 23010, Note_on_c, 0, 53, 0
2, 23019, Note_on_c, 0, 67, 60
2, 23044, Note_on_c, 0, 67, 0
2, 23052, Note_on_c, 0, 62, 59
2, 23053, Control_c, 0, 64, 0
2, 23054, Note_on_c, 0, 58, 39
2, 23057, Note_on_c, 0, 48, 37
2, 23068, Note_on_c, 0, 62, 0
2, 23073, Control_c, 0, 64, 127
2, 23091, Note_on_c, 0, 48, 0
2, 23094, Note_on_c, 0, 74, 58
2, 23105, Note_on_c, 0, 58, 0
2, 23121, Note_on_c, 0, 74, 0
2, 23122, Note_on_c, 0, 70, 26
2, 23127, Note_on_c, 0, 70, 0
2, 23131, Note_on_c, 0, 62, 37
2, 23133, Note_on_c, 0, 66, 39
2, 23134, Note_on_c, 0, 69, 58
2, 23146, Note_on_c, 0, 62, 0
2, 23153, Note_on_c, 0, 66, 0
2, 23156, Note_on_c, 0, 69, 0
2, 23171, Note_on_c, 0, 64, 36
2, 23172, Note_on_c, 0, 58, 37
2, 23217, Note_on_c, 0, 58, 0
2, 23227, Note_on_c, 0, 64, 0
2, 23246, Note_on_c, 0, 74, 62
2, 23249, Note_on_c, 0, 86, 54
2, 23262, Note_on_c, 0, 74, 0
2, 23267, Note_on_c, 0, 86, 0
2, 23284, Note_on_c, 0, 89, 66
2, 23285, Note_on_c, 0, 77, 49
2, 23286, Note_on_c, 0, 62, 35
2, 23286, Note_on_c, 0, 63, 27
2, 23287, Note_on_c, 0, 67, 32
2, 23287, Note_on_c, 0, 57, 45
2, 23291, Control_c, 0, 64, 0
2, 23313, Control_c, 0, 64, 127
2, 23331, Note_on_c, 0, 62, 0
2, 23332, Note_on_c, 0, 67, 0
2, 23335, Note_on_c, 0, 63, 0
2, 23338, Note_on_c, 0, 57, 0
2, 23342, Note_on_c, 0, 77, 0
2, 23345, Note_on_c, 0, 89, 0
2, 23364, Note_on_c, 0, 89, 55
2, 23365, Note_on_c, 0, 77, 37
2, 23396, Note_on_c, 0, 89, 0
2, 23398, Note_on_c, 0, 63, 36
2, 23404, Note_on_c, 0, 53, 27
2, 23404, Note_on_c, 0, 57, 37
2, 23406, Note_on_c, 0, 77, 0
2, 23457, Note_on_c, 0, 57, 0
2, 23458, Note_on_c, 0, 53, 0
2, 23467, Note_on_c, 0, 63, 0
2, 23482, Note_on_c, 0, 82, 86
2, 23483, Note_on_c, 0, 75, 90
2, 23511, Note_on_c, 0, 75, 0
2, 23514, Note_on_c, 0, 76, 41
2, 23516, Note_on_c, 0, 82, 0
2, 23520, Note_on_c, 0, 76, 0
2, 23525, Control_c, 0, 64, 0
2, 23529, Note_on_c, 0, 65, 25
2, 23530, Note_on_c, 0, 60, 36
2, 23530, Note_on_c, 0, 62, 24
2, 23538, Note_on_c, 0, 75, 57
2, 23539, Note_on_c, 0, 82, 62
2, 23552, Note_on_c, 0, 65, 0
2, 23563, Control_c, 0, 64, 127
2, 23567, Note_on_c, 0, 82, 0
2, 23572, Note_on_c, 0, 75, 0
2, 23578, Note_on_c, 0, 73, 42
2, 23597, Note_on_c, 0, 73, 0
2, 23653, Note_on_c, 0, 70, 1
2, 23655, Note_on_c, 0, 53, 29
2, 23657, Control_c, 0, 64, 0
2, 23667, Control_c, 0, 64, 127
2, 23678, Note_on_c, 0, 60, 0
2, 23679, Note_on_c, 0, 62, 0
2, 23685, Note_on_c, 0, 70, 0
2, 23691, Note_on_c, 0, 53, 0
2, 23730, Note_on_c, 0, 39, 21
2, 23734, Note_on_c, 0, 39, 0
2, 23772, Note_on_c, 0, 38, 30
2, 23773, Note_on_c, 0, 54, 34
2, 23775, Note_on_c, 0, 50, 35
2, 23775, Control_c, 0, 64, 0
2, 23794, Control_c, 0, 64, 127
2, 23805, Note_on_c, 0, 54, 0
2, 23807, Note_on_c, 0, 38, 0
2, 23815, Note_on_c, 0, 50, 0
2, 23886, Note_on_c, 0, 54, 34
2, 23887, Note_on_c, 0, 60, 46
2, 23889, Note_on_c, 0, 65, 27
2, 23893, Control_c, 0, 64, 0
2, 23903, Note_on_c, 0, 74, 44
2, 23909, Note_on_c, 0, 74, 0
2, 23909, Note_on_c, 0, 76, 64
2, 23920, Note_on_c, 0, 76, 0
2, 23922, Note_on_c, 0, 74, 35
2, 23926, Note_on_c, 0, 65, 0
2, 23929, Note_on_c, 0, 74, 0
2, 23930, Note_on_c, 0, 76, 60
2, 23941, Note_on_c, 0, 76, 0
2, 23941, Note_on_c, 0, 74, 43
2, 23942, Note_on_c, 0, 60, 0
2, 23953, Note_on_c, 0, 74, 0
2, 23953, Note_on_c, 0, 76, 44
2, 23962, Note_on_c, 0, 54, 0
2, 23964, Control_c, 0, 64, 127
2, 23965, Note_on_c, 0, 74, 43
2, 23967, Note_on_c, 0, 76, 0
2, 23980, Note_on_c, 0, 74, 0
2, 23981, Note_on_c, 0, 73, 40
2, 23991, Note_on_c, 0, 73, 0
2, 23997, Note_on_c, 0, 74, 34
2, 23998, Note_on_c, 0, 55, 42
2, 24000, Note_on_c, 0, 58, 32
2, 24000, Note_on_c, 0, 62, 30
2, 24001, Control_c, 0, 64, 0
2, 24014, Note_on_c, 0, 74, 0
2, 24022, Note_on_c, 0, 67, 57
2, 24023, Note_on_c, 0, 79, 58
2, 24026, Control_c, 0, 64, 127
2, 24039, Note_on_c, 0, 67, 0
2, 24040, Note_on_c, 0, 79, 0
2, 24060, Note_on_c, 0, 62, 0
2, 24060, Note_on_c, 0, 81, 66
2, 24060, Note_on_c, 0, 69, 59
2, 24074, Note_on_c, 0, 81, 0
2, 24074, Note_on_c, 0, 58, 0
2, 24076, Note_on_c, 0, 69, 0
2, 24113, Control_c, 0, 64, 0
2, 24117, Note_on_c, 0, 70, 55
2, 24118, Note_on_c, 0, 62, 34
2, 24118, Note_on_c, 0, 82, 54
2, 24118, Note_on_c, 0, 58, 33
2, 24121, Control_c, 0, 64, 127
2, 24130, Note_on_c, 0, 82, 0
2, 24130, Note_on_c, 0, 70, 0
2, 24162, Note_on_c, 0, 86, 49
2, 24163, Note_on_c, 0, 74, 34
2, 24164, Note_on_c, 0, 84, 41
2, 24164, Note_on_c, 0, 72, 29
2, 24168, Note_on_c, 0, 84, 0
2, 24178, Note_on_c, 0, 72, 0
2, 24190, Note_on_c, 0, 55, 0
2, 24194, Note_on_c, 0, 58, 0
2, 24194, Note_on_c, 0, 62, 0
2, 24199, Note_on_c, 0, 74, 0
2, 24201, Note_on_c, 0, 86, 0
2, 24240, Note_on_c, 0, 76, 73
2, 24240, Note_on_c, 0, 88, 75
2, 24241, Note_on_c, 0, 66, 70
2, 24241, Note_on_c, 0, 55, 66
2, 24241, Note_on_c, 0, 61, 68
2, 24241, Note_on_c, 0, 83, 70
2, 24243, Control_c, 0, 64, 0
2, 24266, Control_c, 0, 64, 127
2, 24286, Note_on_c, 0, 88, 0
2, 24291, Note_on_c, 0, 76, 0
2, 24296, Note_on_c, 0, 83, 0
2, 24344, Note_on_c, 0, 66, 0
2, 24348, Note_on_c, 0, 61, 0
2, 24360, Note_on_c, 0, 61, 45
2, 24360, Note_on_c, 0, 66, 49
2, 24360, Note_on_c, 0, 89, 71
2, 24361, Note_on_c, 0, 77, 62
2, 24383, Note_on_c, 0, 77, 0
2, 24385, Note_on_c, 0, 89, 0
2, 24386, Note_on_c, 0, 55, 0
2, 24400, Note_on_c, 0, 66, 0
2, 24407, Note_on_c, 0, 79, 57
2, 24408, Note_on_c, 0, 91, 53
2, 24418, Note_on_c, 0, 79, 0
2, 24419, Note_on_c, 0, 91, 0
2, 24444, Note_on_c, 0, 93, 57
2, 24444, Note_on_c, 0, 55, 44
2, 24445, Note_on_c, 0, 81, 47
2, 24448, Note_on_c, 0, 93, 0
2, 24450, Note_on_c, 0, 81, 0
2, 24451, Note_on_c, 0, 55, 0
2, 24468, Note_on_c, 0, 61, 0
2, 24484, Note_on_c, 0, 74, 19
2, 24484, Note_on_c, 0, 86, 44
2, 24485, Note_on_c, 0, 64, 33
2, 24485, Note_on_c, 0, 60, 42
2, 24485, Note_on_c, 0, 54, 29
2, 24486, Note_on_c, 0, 81, 46
2, 24487, Control_c, 0, 64, 0
2, 24504, Control_c, 0, 64, 127
2, 24509, Note_on_c, 0, 64, 0
2, 24511, Note_on_c, 0, 60, 0
2, 24515, Note_on_c, 0, 86, 0
2, 24516, Note_on_c, 0, 81, 0
2, 24518, Note_on_c, 0, 54, 0
2, 24523, Note_on_c, 0, 74, 0
2, 24604, Note_on_c, 0, 74, 50
2, 24605, Note_on_c, 0, 66, 49
2, 24606, Note_on_c, 0, 64, 38
2, 24606, Note_on_c, 0, 44, 47
2, 24608, Note_on_c, 0, 69, 45
2, 24612, Control_c, 0, 64, 0
2, 24618, Note_on_c, 0, 46, 11
2, 24619, Note_on_c, 0, 54, 9
2, 24631, Control_c, 0, 64, 127
2, 24632, Note_on_c, 0, 46, 0
2, 24635, Note_on_c, 0, 44, 0
2, 24642, Note_on_c, 0, 74, 0
2, 24653, Note_on_c, 0, 69, 0
2, 24670, Note_on_c, 0, 66, 0
2, 24672, Note_on_c, 0, 54, 0
2, 24676, Note_on_c, 0, 64, 0
2, 24692, Note_on_c, 0, 50, 18
2, 24725, Note_on_c, 0, 50, 0
2, 24728, Note_on_c, 0, 59, 34
2, 24729, Note_on_c, 0, 68, 32
2, 24730, Note_on_c, 0, 53, 35
2, 24731, Note_on_c, 0, 63, 36
2, 24731, Note_on_c, 0, 43, 27
2, 24732, Control_c, 0, 64, 0
2, 24733, Note_on_c, 0, 65, 39
2, 24748, Control_c, 0, 64, 127
2, 24757, Note_on_c, 0, 59, 0
2, 24759, Note_on_c, 0, 43, 0
2, 24762, Note_on_c, 0, 65, 0
2, 24766, Note_on_c, 0, 63, 0
2, 24769, Note_on_c, 0, 53, 0
2, 24769, Note_on_c, 0, 68, 0
2, 24813, Note_on_c, 0, 75, 75
2, 24814, Note_on_c, 0, 63, 72
2, 24817, Note_on_c, 0, 76, 62
2, 24821, Note_on_c, 0, 76, 0
2, 24848, Note_on_c, 0, 64, 27
2, 24849, Note_on_c, 0, 59, 42
2, 24849, Control_c, 0, 64, 0
2, 24851, Note_on_c, 0, 53, 27
2, 24857, Note_on_c, 0, 75, 0
2, 24859, Note_on_c, 0, 63, 0
2, 24859, Control_c, 0, 64, 127
2, 24887, Note_on_c, 0, 77, 62
2, 24888, Note_on_c, 0, 65, 65
2, 24900, Note_on_c, 0, 65, 0
2, 24902, Note_on_c, 0, 77, 0
2, 24906, Note_on_c, 0, 59, 0
2, 24906, Note_on_c, 0, 64, 0
2, 24917, Note_on_c, 0, 53, 0
2, 24926, Note_on_c, 0, 79, 35
2, 24931, Note_on_c, 0, 79, 0
2, 24965, Note_on_c, 0, 74, 42
2, 24966, Note_on_c, 0, 62, 33
2, 24968, Note_on_c, 0, 66, 37
2, 24968, Note_on_c, 0, 58, 32
2, 24970, Note_on_c, 0, 69, 29
2, 24971, Note_on_c, 0, 48, 32
2, 24972, Control_c, 0, 64, 0
2, 25003, Control_c, 0, 64, 127
2, 25038, Note_on_c, 0, 58, 0
2, 25043, Note_on_c, 0, 74, 0
2, 25045, Note_on_c, 0, 69, 0
2, 25048, Note_on_c, 0, 62, 0
2, 25062, Note_on_c, 0, 66, 0
2, 25088, Note_on_c, 0, 58, 33
2, 25089, Note_on_c, 0, 66, 34
2, 25089, Note_on_c, 0, 62, 31
2, 25102, Note_on_c, 0, 58, 0
2, 25109, Note_on_c, 0, 48, 0
2, 25120, Note_on_c, 0, 66, 0
2, 25127, Note_on_c, 0, 62, 0
2, 25169, Note_on_c, 0, 48, 27
2, 25211, Note_on_c, 0, 48, 0
2, 25212, Note_on_c, 0, 60, 35
2, 25214, Note_on_c, 0, 51, 25
2, 25218, Note_on_c, 0, 41, 29
2, 25218, Control_c, 0, 64, 0
2, 25220, Note_on_c, 0, 61, 28
2, 25226, Note_on_c, 0, 61, 0
2, 25230, Note_on_c, 0, 62, 32
2, 25233, Note_on_c, 0, 60, 0
2, 25251, Note_on_c, 0, 62, 0
2, 25258, Note_on_c, 0, 65, 62
2, 25280, Control_c, 0, 64, 127
2, 25311, Note_on_c, 0, 51, 0
2, 25312, Note_on_c, 0, 65, 0
2, 25332, Control_c, 0, 64, 0
2, 25334, Note_on_c, 0, 65, 45
2, 25334, Note_on_c, 0, 51, 25
2, 25349, Control_c, 0, 64, 127
2, 25373, Note_on_c, 0, 62, 31
2, 25377, Note_on_c, 0, 41, 0
2, 25393, Note_on_c, 0, 51, 0
2, 25416, Note_on_c, 0, 62, 0
2, 25417, Note_on_c, 0, 65, 0
2, 25451, Note_on_c, 0, 70, 57
2, 25452, Note_on_c, 0, 46, 35
2, 25453, Note_on_c, 0, 62, 39
2, 25454, Note_on_c, 0, 53, 32
2, 25457, Control_c, 0, 64, 0
2, 25479, Control_c, 0, 64, 127
2, 25507, Note_on_c, 0, 70, 0
2, 25523, Note_on_c, 0, 62, 0
2, 25524, Note_on_c, 0, 53, 0
2, 25528, Note_on_c, 0, 70, 68
2, 25530, Note_on_c, 0, 63, 58
2, 25530, Note_on_c, 0, 54, 33
2, 25568, Note_on_c, 0, 54, 0
2, 25575, Control_c, 0, 64, 0
2, 25578, Note_on_c, 0, 51, 25
2, 25580, Note_on_c, 0, 60, 20
2, 25583, Note_on_c, 0, 63, 0
2, 25600, Control_c, 0, 64, 127
2, 25634, Note_on_c, 0, 51, 0
2, 25642, Note_on_c, 0, 70, 0
2, 25651, Note_on_c, 0, 51, 29
2, 25655, Note_on_c, 0, 70, 18
2, 25655, Note_on_c, 0, 61, 38
2, 25666, Note_on_c, 0, 51, 0
2, 25666, Note_on_c, 0, 60, 0
2, 25679, Note_on_c, 0, 70, 0
2, 25693, Control_c, 0, 64, 0
2, 25697, Note_on_c, 0, 70, 31
2, 25698, Note_on_c, 0, 61, 0
2, 25699, Note_on_c, 0, 62, 38
2, 25700, Note_on_c, 0, 53, 26
2, 25708, Control_c, 0, 64, 127
2, 25718, Note_on_c, 0, 62, 0
2, 25719, Note_on_c, 0, 70, 0
2, 25725, Note_on_c, 0, 53, 0
2, 25730, Note_on_c, 0, 46, 0
2, 25773, Note_on_c, 0, 74, 81
2, 25773, Note_on_c, 0, 58, 68
2, 25774, Note_on_c, 0, 69, 83
2, 25774, Note_on_c, 0, 64, 74
2, 25797, Note_on_c, 0, 69, 0
2, 25798, Note_on_c, 0, 74, 0
2, 25806, Note_on_c, 0, 64, 0
2, 25810, Note_on_c, 0, 58, 0
2, 25815, Control_c, 0, 64, 0
2, 25817, Note_on_c, 0, 72, 52
2, 25818, Note_on_c, 0, 62, 46
2, 25819, Note_on_c, 0, 67, 55
2, 25821, Note_on_c, 0, 57, 47
2, 25832, Control_c, 0, 64, 127
2, 25837, Note_on_c, 0, 67, 0
2, 25841, Note_on_c, 0, 62, 0
2, 25843, Note_on_c, 0, 72, 0
2, 25856, Note_on_c, 0, 70, 39
2, 25861, Note_on_c, 0, 57, 0
2, 25876, Note_on_c, 0, 70, 0
2, 25930, Note_on_c, 0, 60, 36
2, 25931, Note_on_c, 0, 67, 31
2, 25931, Note_on_c, 0, 50, 26
2, 25932, Note_on_c, 0, 64, 35
2, 25933, Note_on_c, 0, 69, 33
2, 25936, Note_on_c, 0, 57, 20
2, 25936, Control_c, 0, 64, 0
2, 25956, Control_c, 0, 64, 127
2, 25977, Note_on_c, 0, 60, 0
2, 25983, Note_on_c, 0, 57, 0
2, 26004, Note_on_c, 0, 64, 0
2, 26042, Note_on_c, 0, 69, 0
2, 26042, Note_on_c, 0, 60, 41
2, 26045, Note_on_c, 0, 67, 0
2, 26047, Note_on_c, 0, 57, 18
2, 26058, Note_on_c, 0, 60, 0
2, 26076, Note_on_c, 0, 57, 0
2, 26078, Note_on_c, 0, 62, 53
2, 26084, Note_on_c, 0, 50, 0
2, 26115, Note_on_c, 0, 64, 68
2, 26120, Note_on_c, 0, 62, 0
2, 26137, Note_on_c, 0, 64, 0
2, 26142, Note_on_c, 0, 66, 70
2, 26166, Control_c, 0, 64, 0
2, 26166, Note_on_c, 0, 46, 40
2, 26166, Note_on_c, 0, 39, 38
2, 26170, Note_on_c, 0, 66, 0
2, 26177, Note_on_c, 0, 67, 50
2, 26188, Control_c, 0, 64, 127
2, 26198, Note_on_c, 0, 39, 0
2, 26204, Note_on_c, 0, 46, 0
2, 26232, Note_on_c, 0, 67, 0
2, 26281, Note_on_c, 0, 61, 38
2, 26281, Note_on_c, 0, 65, 34
2, 26284, Note_on_c, 0, 60, 35
2, 26285, Note_on_c, 0, 55, 31
2, 26362, Note_on_c, 0, 65, 0
2, 26363, Note_on_c, 0, 72, 85
2, 26367, Note_on_c, 0, 60, 0
2, 26368, Note_on_c, 0, 55, 0
2, 26369, Note_on_c, 0, 61, 0
2, 26398, Note_on_c, 0, 64, 29
2, 26399, Note_on_c, 0, 54, 31
2, 26399, Note_on_c, 0, 60, 45
2, 26401, Note_on_c, 0, 72, 0
2, 26404, Control_c, 0, 64, 0
2, 26406, Note_on_c, 0, 70, 40
2, 26435, Control_c, 0, 64, 127
2, 26436, Note_on_c, 0, 70, 0
2, 26446, Note_on_c, 0, 69, 51
2, 26460, Note_on_c, 0, 64, 0
2, 26463, Note_on_c, 0, 60, 0
2, 26473, Note_on_c, 0, 54, 0
2, 26473, Note_on_c, 0, 69, 0
2, 26486, Note_on_c, 0, 69, 57
2, 26509, Note_on_c, 0, 69, 0
2, 26522, Note_on_c, 0, 60, 27
2, 26522, Note_on_c, 0, 69, 50
2, 26523, Note_on_c, 0, 54, 31
2, 26524, Note_on_c, 0, 50, 24
2, 26569, Note_on_c, 0, 50, 0
2, 26572, Note_on_c, 0, 54, 0
2, 26578, Note_on_c, 0, 60, 0
2, 26640, Note_on_c, 0, 55, 58
2, 26642, Note_on_c, 0, 61, 48
2, 26643, Note_on_c, 0, 66, 36
2, 26648, Control_c, 0, 64, 0
2, 26673, Control_c, 0, 64, 127
2, 26693, Note_on_c, 0, 69, 0
2, 26711, Note_on_c, 0, 66, 0
2, 26728, Note_on_c, 0, 55, 0
2, 26756, Note_on_c, 0, 61, 0
2, 26760, Note_on_c, 0, 84, 92
2, 26761, Control_c, 0, 64, 0
2, 26762, Note_on_c, 0, 72, 90
2, 26762, Note_on_c, 0, 60, 68
2, 26763, Note_on_c, 0, 65, 63
2, 26765, Note_on_c, 0, 54, 45
2, 26781, Control_c, 0, 64, 127
2, 26787, Note_on_c, 0, 84, 0
2, 26790, Note_on_c, 0, 72, 0
2, 26797, Note_on_c, 0, 65, 0
2, 26803, Note_on_c, 0, 60, 0
2, 26805, Note_on_c, 0, 82, 44
2, 26807, Note_on_c, 0, 70, 50
2, 26809, Note_on_c, 0, 83, 56
2, 26812, Note_on_c, 0, 54, 0
2, 26813, Note_on_c, 0, 71, 27
2, 26814, Note_on_c, 0, 83, 0
2, 26817, Note_on_c, 0, 71, 0
2, 26819, Note_on_c, 0, 70, 0
2, 26825, Note_on_c, 0, 82, 0
2, 26843, Note_on_c, 0, 81, 70
2, 26844, Note_on_c, 0, 69, 61
2, 26859, Note_on_c, 0, 81, 0
2, 26864, Note_on_c, 0, 69, 0
2, 26885, Note_on_c, 0, 50, 42
2, 26885, Note_on_c, 0, 67, 49
2, 26885, Note_on_c, 0, 79, 49
2, 26885, Control_c, 0, 64, 0
2, 26885, Note_on_c, 0, 43, 46
2, 26887, Note_on_c, 0, 73, 37
2, 26892, Note_on_c, 0, 73, 0
2, 26900, Note_on_c, 0, 67, 0
2, 26909, Note_on_c, 0, 79, 0
2, 26909, Control_c, 0, 64, 127
2, 26912, Note_on_c, 0, 67, 45
2, 26914, Note_on_c, 0, 43, 0
2, 26923, Note_on_c, 0, 50, 0
2, 26929, Note_on_c, 0, 67, 0
2, 26929, Note_on_c, 0, 79, 17
2, 26943, Note_on_c, 0, 79, 0
2, 26943, Note_on_c, 0, 67, 32
2, 26962, Note_on_c, 0, 67, 0
2, 26965, Note_on_c, 0, 79, 39
2, 26980, Note_on_c, 0, 79, 0
2, 27009, Note_on_c, 0, 62, 30
2, 27010, Note_on_c, 0, 55, 31
2, 27010, Note_on_c, 0, 58, 33
2, 27016, Control_c, 0, 64, 0
2, 27019, Note_on_c, 0, 74, 56
2, 27030, Note_on_c, 0, 74, 0
2, 27032, Note_on_c, 0, 76, 53
2, 27043, Note_on_c, 0, 74, 40
2, 27046, Note_on_c, 0, 76, 0
2, 27047, Control_c, 0, 64, 127
2, 27054, Note_on_c, 0, 55, 0
2, 27056, Note_on_c, 0, 74, 0
2, 27056, Note_on_c, 0, 73, 55
2, 27058, Note_on_c, 0, 62, 0
2, 27062, Note_on_c, 0, 73, 0
2, 27065, Note_on_c, 0, 58, 0
2, 27068, Note_on_c, 0, 74, 24
2, 27083, Note_on_c, 0, 74, 0
2, 27089, Note_on_c, 0, 76, 34
2, 27101, Note_on_c, 0, 76, 0
2, 27107, Note_on_c, 0, 77, 48
2, 27120, Note_on_c, 0, 78, 57
2, 27121, Note_on_c, 0, 77, 0
2, 27130, Control_c, 0, 64, 0
2, 27131, Note_on_c, 0, 66, 30
2, 27132, Note_on_c, 0, 55, 32
2, 27133, Note_on_c, 0, 61, 40
2, 27134, Note_on_c, 0, 78, 0
2, 27139, Note_on_c, 0, 79, 57
2, 27158, Control_c, 0, 64, 127
2, 27185, Note_on_c, 0, 79, 0
2, 27186, Note_on_c, 0, 76, 34
2, 27217, Note_on_c, 0, 66, 0
2, 27231, Note_on_c, 0, 76, 0
2, 27232, Note_on_c, 0, 61, 0
2, 27235, Note_on_c, 0, 55, 0
2, 27249, Note_on_c, 0, 82, 48
2, 27249, Note_on_c, 0, 70, 49
2, 27249, Note_on_c, 0, 55, 32
2, 27251, Note_on_c, 0, 65, 36
2, 27253, Note_on_c, 0, 79, 38
2, 27253, Note_on_c, 0, 61, 33
2, 27254, Control_c, 0, 64, 0
2, 27256, Note_on_c, 0, 75, 25
2, 27275, Control_c, 0, 64, 127
2, 27287, Note_on_c, 0, 55, 0
2, 27307, Note_on_c, 0, 79, 0
2, 27323, Note_on_c, 0, 82, 0
2, 27323, Note_on_c, 0, 70, 0
2, 27325, Note_on_c, 0, 75, 0
2, 27329, Note_on_c, 0, 65, 0
2, 27331, Note_on_c, 0, 55, 39
2, 27338, Note_on_c, 0, 55, 0
2, 27350, Note_on_c, 0, 61, 0
2, 27366, Note_on_c, 0, 81, 38
2, 27368, Note_on_c, 0, 76, 33
2, 27369, Control_c, 0, 64, 0
2, 27369, Note_on_c, 0, 69, 36
2, 27370, Note_on_c, 0, 64, 30
2, 27372, Note_on_c, 0, 60, 37
2, 27373, Note_on_c, 0, 54, 21
2, 27386, Control_c, 0, 64, 127
2, 27389, Note_on_c, 0, 81, 0
2, 27395, Note_on_c, 0, 76, 0
2, 27397, Note_on_c, 0, 64, 0
2, 27399, Note_on_c, 0, 60, 0
2, 27403, Note_on_c, 0, 69, 0
2, 27413, Note_on_c, 0, 54, 0
2, 27483, Note_on_c, 0, 69, 57
2, 27483, Note_on_c, 0, 61, 55
2, 27485, Note_on_c, 0, 60, 38
2, 27486, Note_on_c, 0, 65, 55
2, 27486, Note_on_c, 0, 54, 29
2, 27491, Control_c, 0, 64, 0
2, 27513, Control_c, 0, 64, 127
2, 27537, Note_on_c, 0, 69, 0
2, 27542, Note_on_c, 0, 60, 0
2, 27549, Note_on_c, 0, 65, 0
2, 27552, Note_on_c, 0, 61, 0
2, 27577, Note_on_c, 0, 54, 0
2, 27605, Note_on_c, 0, 63, 37
2, 27606, Note_on_c, 0, 60, 30
2, 27607, Note_on_c, 0, 69, 33
2, 27607, Control_c, 0, 64, 0
2, 27608, Note_on_c, 0, 66, 33
2, 27609, Note_on_c, 0, 57, 30
2, 27609, Note_on_c, 0, 50, 33
2, 27627, Note_on_c, 0, 57, 0
2, 27627, Control_c, 0, 64, 127
2, 27635, Note_on_c, 0, 60, 0
2, 27635, Note_on_c, 0, 50, 0
2, 27660, Note_on_c, 0, 69, 0
2, 27667, Note_on_c, 0, 66, 0
2, 27667, Note_on_c, 0, 63, 0
2, 27682, Note_on_c, 0, 62, 84
2, 27683, Note_on_c, 0, 50, 57
2, 27722, Note_on_c, 0, 62, 0
2, 27725, Note_on_c, 0, 50, 0
2, 27727, Control_c, 0, 64, 0
2, 27729, Note_on_c, 0, 64, 79
2, 27730, Note_on_c, 0, 52, 73
2, 27752, Control_c, 0, 64, 127
2, 27780, Note_on_c, 0, 64, 0
2, 27783, Note_on_c, 0, 52, 0
2, 27802, Note_on_c, 0, 51, 33
2, 27803, Note_on_c, 0, 66, 59
2, 27815, Note_on_c, 0, 51, 0
2, 27830, Note_on_c, 0, 66, 0
2, 27846, Note_on_c, 0, 67, 36
2, 27847, Note_on_c, 0, 43, 29
2, 27847, Note_on_c, 0, 62, 38
2, 27847, Control_c, 0, 64, 0
2, 27848, Note_on_c, 0, 50, 35
2, 27848, Note_on_c, 0, 58, 25
2, 27849, Note_on_c, 0, 55, 14
2, 27865, Control_c, 0, 64, 127
2, 27867, Note_on_c, 0, 58, 0
2, 27868, Note_on_c, 0, 62, 0
2, 27871, Note_on_c, 0, 43, 0
2, 27873, Note_on_c, 0, 50, 0
2, 27874, Note_on_c, 0, 67, 0
2, 27885, Note_on_c, 0, 55, 0
2, 27927, Note_on_c, 0, 81, 79
2, 27929, Note_on_c, 0, 69, 62
2, 27956, Note_on_c, 0, 81, 0
2, 27959, Note_on_c, 0, 62, 24
2, 27960, Note_on_c, 0, 53, 24
2, 27960, Note_on_c, 0, 55, 37
2, 27961, Note_on_c, 0, 69, 0
2, 27961, Note_on_c, 0, 58, 33
2, 27991, Note_on_c, 0, 82, 47
2, 27992, Note_on_c, 0, 70, 44
2, 28001, Note_on_c, 0, 53, 0
2, 28003, Note_on_c, 0, 70, 0
2, 28004, Note_on_c, 0, 55, 0
2, 28005, Note_on_c, 0, 82, 0
2, 28010, Note_on_c, 0, 62, 0
2, 28013, Note_on_c, 0, 58, 0
2, 28030, Note_on_c, 0, 86, 41
2, 28032, Note_on_c, 0, 74, 30
2, 28042, Note_on_c, 0, 74, 0
2, 28043, Note_on_c, 0, 86, 0
2, 28074, Note_on_c, 0, 76, 50
2, 28074, Note_on_c, 0, 88, 47
2, 28075, Note_on_c, 0, 66, 27
2, 28075, Note_on_c, 0, 55, 32
2, 28076, Control_c, 0, 64, 0
2, 28077, Note_on_c, 0, 61, 33
2, 28098, Control_c, 0, 64, 127
2, 28131, Note_on_c, 0, 76, 0
2, 28136, Note_on_c, 0, 88, 0
2, 28156, Note_on_c, 0, 55, 0
2, 28158, Note_on_c, 0, 89, 68
2, 28159, Note_on_c, 0, 77, 55
2, 28162, Note_on_c, 0, 61, 0
2, 28166, Note_on_c, 0, 66, 0
2, 28196, Control_c, 0, 64, 0
2, 28196, Note_on_c, 0, 61, 35
2, 28197, Note_on_c, 0, 65, 30
2, 28197, Note_on_c, 0, 55, 35
2, 28202, Note_on_c, 0, 77, 0
2, 28203, Note_on_c, 0, 89, 0
2, 28204, Control_c, 0, 64, 127
2, 28237, Note_on_c, 0, 55, 0
2, 28239, Note_on_c, 0, 79, 56
2, 28239, Note_on_c, 0, 91, 44
2, 28245, Note_on_c, 0, 65, 0
2, 28251, Note_on_c, 0, 79, 0
2, 28254, Note_on_c, 0, 91, 0
2, 28263, Note_on_c, 0, 61, 0
2, 28274, Note_on_c, 0, 61, 25
2, 28276, Note_on_c, 0, 93, 61
2, 28276, Note_on_c, 0, 55, 37
2, 28279, Note_on_c, 0, 81, 34
2, 28280, Note_on_c, 0, 93, 0
2, 28283, Note_on_c, 0, 55, 0
2, 28284, Note_on_c, 0, 81, 0
2, 28304, Note_on_c, 0, 61, 0
2, 28318, Note_on_c, 0, 86, 36
2, 28320, Note_on_c, 0, 74, 30
2, 28321, Note_on_c, 0, 60, 38
2, 28321, Note_on_c, 0, 76, 32
2, 28322, Note_on_c, 0, 64, 24
2, 28322, Note_on_c, 0, 54, 30
2, 28323, Control_c, 0, 64, 0
2, 28326, Note_on_c, 0, 81, 17
2, 28328, Note_on_c, 0, 76, 0
2, 28340, Control_c, 0, 64, 127
2, 28343, Note_on_c, 0, 64, 0
2, 28346, Note_on_c, 0, 60, 0
2, 28346, Note_on_c, 0, 81, 0
2, 28347, Note_on_c, 0, 86, 0
2, 28353, Note_on_c, 0, 74, 0
2, 28354, Note_on_c, 0, 54, 0
2, 28396, Note_on_c, 0, 38, 46
2, 28408, Note_on_c, 0, 38, 0
2, 28440, Note_on_c, 0, 54, 33
2, 28441, Note_on_c, 0, 56, 40
2, 28443, Note_on_c, 0, 50, 22
2, 28444, Note_on_c, 0, 60, 47
2, 28449, Note_on_c, 0, 62, 20
2, 28451, Control_c, 0, 64, 0
2, 28458, Note_on_c, 0, 50, 0
2, 28462, Note_on_c, 0, 56, 0
2, 28464, Note_on_c, 0, 57, 36
2, 28505, Note_on_c, 0, 54, 0
2, 28512, Note_on_c, 0, 62, 0
2, 28513, Note_on_c, 0, 57, 0
2, 28516, Note_on_c, 0, 60, 0
2, 28518, Note_on_c, 0, 32, 45
2, 28519, Control_c, 0, 64, 127
2, 28544, Note_on_c, 0, 32, 0
2, 28560, Control_c, 0, 64, 0
2, 28562, Note_on_c, 0, 62, 34
2, 28563, Note_on_c, 0, 31, 37
2, 28563, Note_on_c, 0, 43, 33
2, 28564, Note_on_c, 0, 53, 32
2, 28564, Note_on_c, 0, 59, 36
2, 28565, Note_on_c, 0, 56, 29
2, 28573, Note_on_c, 0, 53, 0
2, 28575, Note_on_c, 0, 31, 0
2, 28577, Note_on_c, 0, 59, 0
2, 28579, Note_on_c, 0, 56, 0
2, 28580, Control_c, 0, 64, 127
2, 28582, Note_on_c, 0, 43, 0
2, 28584, Note_on_c, 0, 62, 0
2, 28641, Note_on_c, 0, 75, 90
2, 28642, Note_on_c, 0, 63, 90
2, 28642, Note_on_c, 0, 51, 78
2, 28665, Note_on_c, 0, 63, 0
2, 28668, Note_on_c, 0, 75, 0
2, 28681, Note_on_c, 0, 51, 0
2, 28684, Control_c, 0, 64, 0
2, 28685, Note_on_c, 0, 77, 77
2, 28685, Note_on_c, 0, 53, 73
2, 28686, Note_on_c, 0, 65, 65
2, 28689, Note_on_c, 0, 67, 37
2, 28694, Note_on_c, 0, 67, 0
2, 28699, Control_c, 0, 64, 127
2, 28708, Note_on_c, 0, 65, 0
2, 28709, Note_on_c, 0, 77, 0
2, 28722, Note_on_c, 0, 53, 0
2, 28724, Note_on_c, 0, 79, 67
2, 28725, Note_on_c, 0, 67, 66
2, 28725, Note_on_c, 0, 55, 66
2, 28731, Note_on_c, 0, 55, 0
2, 28734, Note_on_c, 0, 67, 0
2, 28734, Note_on_c, 0, 79, 0
2, 28772, Note_on_c, 0, 74, 70
2, 28772, Note_on_c, 0, 62, 73
2, 28772, Note_on_c, 0, 66, 70
2, 28773, Note_on_c, 0, 69, 74
2, 28773, Note_on_c, 0, 58, 78
2, 28773, Note_on_c, 0, 48, 76
2, 28777, Note_on_c, 0, 72, 25
2, 28782, Note_on_c, 0, 72, 0
2, 28788, Control_c, 0, 64, 0
2, 28816, Control_c, 0, 64, 127
2, 28886, Note_on_c, 0, 62, 0
2, 28892, Note_on_c, 0, 58, 0
2, 28892, Note_on_c, 0, 66, 0
2, 28905, Note_on_c, 0, 69, 0
2, 28929, Note_on_c, 0, 66, 26
2, 28929, Note_on_c, 0, 62, 31
2, 28935, Note_on_c, 0, 58, 18
2, 28938, Note_on_c, 0, 74, 0
2, 28952, Note_on_c, 0, 58, 0
2, 28955, Note_on_c, 0, 48, 0
2, 28964, Note_on_c, 0, 66, 0
2, 28968, Note_on_c, 0, 62, 0
2, 29055, Note_on_c, 0, 63, 32
2, 29055, Note_on_c, 0, 57, 30
2, 29057, Note_on_c, 0, 65, 37
2, 29058, Note_on_c, 0, 41, 34
2, 29059, Note_on_c, 0, 51, 23
2, 29059, Control_c, 0, 64, 0
2, 29092, Control_c, 0, 64, 127
2, 29111, Note_on_c, 0, 57, 0
2, 29114, Note_on_c, 0, 51, 0
2, 29130, Note_on_c, 0, 63, 0
2, 29144, Note_on_c, 0, 65, 0
2, 29173, Note_on_c, 0, 63, 23
2, 29175, Note_on_c, 0, 51, 25
2, 29176, Note_on_c, 0, 57, 24
2, 29178, Note_on_c, 0, 59, 30
2, 29196, Note_on_c, 0, 59, 0
2, 29196, Note_on_c, 0, 41, 0
2, 29198, Note_on_c, 0, 57, 0
2, 29206, Note_on_c, 0, 51, 0
2, 29214, Note_on_c, 0, 63, 0
2, 29292, Note_on_c, 0, 70, 33
2, 29294, Note_on_c, 0, 46, 25
2, 29295, Note_on_c, 0, 62, 30
2, 29295, Note_on_c, 0, 60, 33
2, 29295, Note_on_c, 0, 65, 44
2, 29296, Note_on_c, 0, 55, 30
2, 29297, Control_c, 0, 64, 0
2, 29318, Control_c, 0, 64, 127
2, 29320, Note_on_c, 0, 55, 0
2, 29331, Note_on_c, 0, 46, 0
2, 29339, Note_on_c, 0, 65, 0
2, 29342, Note_on_c, 0, 70, 0
2, 29343, Note_on_c, 0, 62, 0
2, 29343, Note_on_c, 0, 60, 0
2, 29411, Note_on_c, 0, 55, 75
2, 29490, Note_on_c, 0, 33, 24
2, 29520, Note_on_c, 0, 33, 0
2, 29521, Note_on_c, 0, 55, 0
2, 29528, Note_on_c, 0, 54, 34
2, 29529, Control_c, 0, 64, 0
2, 29529, Note_on_c, 0, 38, 28
2, 29530, Note_on_c, 0, 26, 24
2, 29544, Note_on_c, 0, 26, 0
2, 29548, Control_c, 0, 64, 127
2, 29555, Note_on_c, 0, 38, 0
2, 29561, Note_on_c, 0, 54, 0
2, 29647, Note_on_c, 0, 65, 22
2, 29648, Note_on_c, 0, 54, 25
2, 29648, Note_on_c, 0, 60, 40
2, 29655, Note_on_c, 0, 60, 0
2, 29656, Note_on_c, 0, 65, 0
2, 29671, Note_on_c, 0, 54, 0
2, 29685, Note_on_c, 0, 81, 74
2, 29699, Note_on_c, 0, 81, 0
2, 29723, Note_on_c, 0, 86, 99
2, 29759, Note_on_c, 0, 86, 0
2, 29760, Note_on_c, 0, 81, 68
2, 29761, Control_c, 0, 64, 0
2, 29761, Note_on_c, 0, 50, 34
2, 29762, Note_on_c, 0, 43, 30
2, 29785, Control_c, 0, 64, 127
2, 29789, Note_on_c, 0, 81, 0
2, 29793, Note_on_c, 0, 84, 74
2, 29799, Note_on_c, 0, 43, 0
2, 29805, Note_on_c, 0, 50, 0
2, 29812, Note_on_c, 0, 84, 0
2, 29822, Note_on_c, 0, 82, 71
2, 29842, Note_on_c, 0, 82, 0
2, 29846, Note_on_c, 0, 78, 50
2, 29862, Note_on_c, 0, 78, 0
2, 29869, Note_on_c, 0, 81, 80
2, 29880, Note_on_c, 0, 55, 34
2, 29881, Note_on_c, 0, 62, 30
2, 29882, Control_c, 0, 64, 0
2, 29882, Note_on_c, 0, 58, 36
2, 29888, Note_on_c, 0, 81, 0
2, 29893, Note_on_c, 0, 79, 60
2, 29903, Control_c, 0, 64, 127
2, 29912, Note_on_c, 0, 79, 0
2, 29917, Note_on_c, 0, 74, 55
2, 29931, Note_on_c, 0, 74, 0
2, 29938, Note_on_c, 0, 55, 0
2, 29943, Note_on_c, 0, 72, 61
2, 29944, Note_on_c, 0, 62, 0
2, 29947, Note_on_c, 0, 58, 0
2, 29966, Note_on_c, 0, 72, 0
2, 29970, Note_on_c, 0, 71, 41
2, 29992, Note_on_c, 0, 71, 0
2, 30002, Note_on_c, 0, 66, 36
2, 30003, Note_on_c, 0, 70, 46
2, 30005, Note_on_c, 0, 55, 29
2, 30005, Note_on_c, 0, 61, 35
2, 30006, Control_c, 0, 64, 0
2, 30030, Control_c, 0, 64, 127
2, 30039, Note_on_c, 0, 66, 0
2, 30041, Note_on_c, 0, 55, 0
2, 30043, Note_on_c, 0, 61, 0
2, 30077, Note_on_c, 0, 70, 0
2, 30126, Note_on_c, 0, 67, 36
2, 30128, Note_on_c, 0, 55, 30
2, 30130, Note_on_c, 0, 45, 26
2, 30141, Note_on_c, 0, 55, 0
2, 30149, Note_on_c, 0, 67, 0
2, 30157, Note_on_c, 0, 45, 0
2, 30246, Note_on_c, 0, 62, 27
2, 30246, Note_on_c, 0, 38, 24
2, 30247, Note_on_c, 0, 54, 23
2, 30247, Note_on_c, 0, 26, 26
2, 30248, Control_c, 0, 64, 0
2, 30249, Note_on_c, 0, 60, 33
2, 30269, Note_on_c, 0, 26, 0
2, 30272, Control_c, 0, 64, 127
2, 30281, Note_on_c, 0, 38, 0
2, 30282, Note_on_c, 0, 60, 0
2, 30283, Note_on_c, 0, 54, 0
2, 30284, Note_on_c, 0, 62, 0
2, 30365, Note_on_c, 0, 65, 42
2, 30367, Note_on_c, 0, 54, 28
2, 30367, Note_on_c, 0, 60, 42
2, 30417, Note_on_c, 0, 60, 0
2, 30418, Note_on_c, 0, 65, 0
2, 30451, Note_on_c, 0, 54, 0
2, 30489, Note_on_c, 0, 64, 24
2, 30490, Note_on_c, 0, 59, 34
2, 30490, Note_on_c, 0, 53, 29
2, 30491, Control_c, 0, 64, 0
2, 30510, Control_c, 0, 64, 127
2, 30525, Note_on_c, 0, 64, 0
2, 30530, Note_on_c, 0, 73, 86
2, 30532, Note_on_c, 0, 59, 0
2, 30542, Note_on_c, 0, 53, 0
2, 30563, Note_on_c, 0, 73, 0
2, 30571, Note_on_c, 0, 70, 63
2, 30584, Note_on_c, 0, 70, 0
2, 30612, Note_on_c, 0, 72, 81
2, 30612, Note_on_c, 0, 49, 35
2, 30613, Control_c, 0, 64, 0
2, 30613, Note_on_c, 0, 50, 50
2, 30628, Note_on_c, 0, 49, 0
2, 30643, Note_on_c, 0, 72, 0
2, 30645, Control_c, 0, 64, 127
2, 30653, Note_on_c, 0, 70, 33
2, 30662, Note_on_c, 0, 50, 0
2, 30671, Note_on_c, 0, 70, 0
2, 30687, Note_on_c, 0, 67, 38
2, 30704, Note_on_c, 0, 67, 0
2, 30733, Note_on_c, 0, 36, 28
2, 30743, Control_c, 0, 64, 0
2, 30747, Note_on_c, 0, 61, 32
2, 30772, Note_on_c, 0, 61, 0
2, 30796, Note_on_c, 0, 60, 54
2, 30817, Note_on_c, 0, 60, 0
2, 30826, Note_on_c, 0, 55, 37
2, 30833, Note_on_c, 0, 55, 0
2, 30837, Control_c, 0, 64, 127
2, 30853, Note_on_c, 0, 58, 56
2, 30857, Control_c, 0, 64, 0
2, 30865, Note_on_c, 0, 48, 27
2, 30879, Note_on_c, 0, 36, 0
2, 30879, Control_c, 0, 64, 127
2, 30886, Note_on_c, 0, 48, 0
2, 30890, Note_on_c, 0, 60, 24
2, 30895, Note_on_c, 0, 58, 0
2, 30912, Note_on_c, 0, 60, 0
2, 30927, Note_on_c, 0, 55, 45
2, 30932, Note_on_c, 0, 55, 0
2, 30935, Note_on_c, 0, 42, 45
2, 30936, Note_on_c, 0, 52, 37
2, 30959, Note_on_c, 0, 52, 0
2, 30968, Note_on_c, 0, 42, 0
2, 30975, Control_c, 0, 64, 0
2, 30977, Note_on_c, 0, 51, 47
2, 30978, Note_on_c, 0, 41, 52
2, 30996, Control_c, 0, 64, 127
2, 31001, Note_on_c, 0, 41, 0
2, 31010, Note_on_c, 0, 51, 0
2, 31019, Note_on_c, 0, 75, 69
2, 31032, Note_on_c, 0, 75, 0
2, 31032, Note_on_c, 0, 76, 54
2, 31051, Note_on_c, 0, 75, 34
2, 31052, Note_on_c, 0, 76, 0
2, 31062, Note_on_c, 0, 73, 42
2, 31066, Note_on_c, 0, 75, 0
2, 31076, Note_on_c, 0, 70, 47
2, 31078, Note_on_c, 0, 73, 0
2, 31088, Note_on_c, 0, 70, 0
2, 31099, Control_c, 0, 64, 0
2, 31100, Note_on_c, 0, 57, 43
2, 31100, Note_on_c, 0, 75, 77
2, 31100, Note_on_c, 0, 63, 50
2, 31100, Note_on_c, 0, 67, 35
2, 31124, Control_c, 0, 64, 127
2, 31138, Note_on_c, 0, 73, 62
2, 31141, Note_on_c, 0, 67, 0
2, 31153, Note_on_c, 0, 75, 0
2, 31160, Note_on_c, 0, 63, 0
2, 31161, Note_on_c, 0, 73, 0
2, 31171, Note_on_c, 0, 70, 53
2, 31183, Note_on_c, 0, 57, 0
2, 31204, Note_on_c, 0, 70, 0
2, 31205, Note_on_c, 0, 65, 38
2, 31208, Note_on_c, 0, 62, 33
2, 31209, Control_c, 0, 64, 0
2, 31210, Note_on_c, 0, 74, 46
2, 31214, Note_on_c, 0, 60, 36
2, 31223, Note_on_c, 0, 65, 0
2, 31232, Control_c, 0, 64, 127
2, 31240, Note_on_c, 0, 74, 0
2, 31247, Note_on_c, 0, 65, 37
2, 31270, Note_on_c, 0, 65, 0
2, 31286, Note_on_c, 0, 67, 78
2, 31316, Note_on_c, 0, 67, 0
2, 31321, Control_c, 0, 64, 0
2, 31322, Note_on_c, 0, 53, 31
2, 31328, Note_on_c, 0, 69, 64
2, 31331, Note_on_c, 0, 60, 0
2, 31333, Note_on_c, 0, 62, 0
2, 31339, Control_c, 0, 64, 127
2, 31346, Note_on_c, 0, 53, 0
2, 31353, Note_on_c, 0, 69, 0
2, 31364, Note_on_c, 0, 70, 64
2, 31385, Note_on_c, 0, 70, 0
2, 31405, Note_on_c, 0, 72, 69
2, 31433, Control_c, 0, 64, 0
2, 31438, Note_on_c, 0, 38, 45
2, 31442, Note_on_c, 0, 50, 25
2, 31445, Note_on_c, 0, 72, 0
2, 31446, Note_on_c, 0, 73, 53
2, 31448, Control_c, 0, 64, 127
2, 31452, Note_on_c, 0, 38, 0
2, 31456, Note_on_c, 0, 73, 0
2, 31461, Note_on_c, 0, 50, 0
2, 31480, Note_on_c, 0, 77, 57
2, 31503, Note_on_c, 0, 77, 0
2, 31512, Note_on_c, 0, 78, 56
2, 31518, Note_on_c, 0, 78, 0
2, 31538, Note_on_c, 0, 84, 72
2, 31550, Note_on_c, 0, 84, 0
2, 31563, Note_on_c, 0, 60, 47
2, 31564, Note_on_c, 0, 65, 32
2, 31565, Note_on_c, 0, 54, 31
2, 31567, Control_c, 0, 64, 0
2, 31569, Note_on_c, 0, 90, 51
2, 31573, Note_on_c, 0, 90, 0
2, 31573, Note_on_c, 0, 89, 66
2, 31582, Control_c, 0, 64, 127
2, 31588, Note_on_c, 0, 89, 0
2, 31592, Note_on_c, 0, 65, 0
2, 31598, Note_on_c, 0, 60, 0
2, 31598, Note_on_c, 0, 94, 77
2, 31609, Note_on_c, 0, 54, 0
2, 31616, Note_on_c, 0, 94, 0
2, 31629, Note_on_c, 0, 96, 92
2, 31643, Note_on_c, 0, 96, 0
2, 31655, Note_on_c, 0, 94, 80
2, 31679, Note_on_c, 0, 94, 0
2, 31683, Note_on_c, 0, 90, 67
2, 31685, Note_on_c, 0, 50, 33
2, 31686, Note_on_c, 0, 43, 36
2, 31688, Control_c, 0, 64, 0
2, 31706, Note_on_c, 0, 90, 0
2, 31712, Control_c, 0, 64, 127
2, 31712, Note_on_c, 0, 93, 79
2, 31716, Note_on_c, 0, 43, 0
2, 31725, Note_on_c, 0, 50, 0
2, 31728, Note_on_c, 0, 93, 0
2, 31738, Note_on_c, 0, 91, 67
2, 31757, Note_on_c, 0, 91, 0
2, 31764, Note_on_c, 0, 86, 62
2, 31778, Note_on_c, 0, 86, 0
2, 31790, Note_on_c, 0, 82, 64
2, 31811, Note_on_c, 0, 82, 0
2, 31814, Note_on_c, 0, 62, 31
2, 31814, Note_on_c, 0, 81, 57
2, 31815, Note_on_c, 0, 58, 34
2, 31816, Note_on_c, 0, 55, 22
2, 31820, Control_c, 0, 64, 0
2, 31830, Note_on_c, 0, 81, 0
2, 31839, Note_on_c, 0, 84, 71
2, 31841, Control_c, 0, 64, 127
2, 31853, Note_on_c, 0, 84, 0
2, 31864, Note_on_c, 0, 82, 61
2, 31866, Note_on_c, 0, 55, 0
2, 31874, Note_on_c, 0, 62, 0
2, 31874, Note_on_c, 0, 58, 0
2, 31879, Note_on_c, 0, 82, 0
2, 31891, Note_on_c, 0, 81, 68
2, 31933, Note_on_c, 0, 66, 34
2, 31933, Control_c, 0, 64, 0
2, 31935, Note_on_c, 0, 61, 36
2, 31939, Note_on_c, 0, 55, 24
2, 31953, Control_c, 0, 64, 127
2, 31982, Note_on_c, 0, 55, 0
2, 31990, Note_on_c, 0, 61, 0
2, 31992, Note_on_c, 0, 66, 0
2, 31993, Note_on_c, 0, 81, 0
2, 32049, Control_c, 0, 64, 0
2, 32050, Note_on_c, 0, 69, 34
2, 32051, Note_on_c, 0, 64, 37
2, 32053, Note_on_c, 0, 58, 28
2, 32065, Control_c, 0, 64, 127
2, 32084, Note_on_c, 0, 69, 0
2, 32088, Note_on_c, 0, 64, 0
2, 32099, Note_on_c, 0, 58, 0
2, 32124, Note_on_c, 0, 89, 66
2, 32125, Note_on_c, 0, 77, 48
2, 32140, Note_on_c, 0, 89, 0
2, 32144, Note_on_c, 0, 77, 0
2, 32165, Control_c, 0, 64, 0
2, 32165, Note_on_c, 0, 60, 40
2, 32166, Note_on_c, 0, 64, 27
2, 32168, Note_on_c, 0, 54, 25
2, 32170, Note_on_c, 0, 90, 47
2, 32170, Note_on_c, 0, 78, 32
2, 32183, Control_c, 0, 64, 127
2, 32197, Note_on_c, 0, 90, 0
2, 32199, Note_on_c, 0, 78, 0
2, 32200, Note_on_c, 0, 64, 0
2, 32201, Note_on_c, 0, 60, 0
2, 32209, Note_on_c, 0, 54, 0
2, 32240, Note_on_c, 0, 93, 63
2, 32242, Note_on_c, 0, 81, 40
2, 32272, Control_c, 0, 64, 0
2, 32277, Note_on_c, 0, 54, 32
2, 32278, Note_on_c, 0, 50, 34
2, 32281, Note_on_c, 0, 81, 0
2, 32285, Note_on_c, 0, 50, 0
2, 32288, Note_on_c, 0, 54, 0
2, 32289, Note_on_c, 0, 93, 0
2, 32290, Control_c, 0, 64, 127
2, 32361, Note_on_c, 0, 50, 34
2, 32393, Note_on_c, 0, 43, 1
2, 32398, Note_on_c, 0, 59, 62
2, 32399, Control_c, 0, 64, 0
2, 32417, Control_c, 0, 64, 127
2, 32433, Note_on_c, 0, 43, 0
2, 32443, Note_on_c, 0, 50, 0
2, 32447, Note_on_c, 0, 59, 0
2, 32478, Note_on_c, 0, 86, 88
2, 32478, Note_on_c, 0, 98, 91
2, 32492, Note_on_c, 0, 86, 0
2, 32499, Note_on_c, 0, 98, 0
2, 32520, Note_on_c, 0, 64, 51
2, 32520, Note_on_c, 0, 59, 54
2, 32521, Note_on_c, 0, 101, 84
2, 32522, Note_on_c, 0, 89, 85
2, 32522, Control_c, 0, 64, 0
2, 32522, Note_on_c, 0, 53, 38
2, 32542, Control_c, 0, 64, 127
2, 32548, Note_on_c, 0, 89, 0
2, 32548, Note_on_c, 0, 101, 0
2, 32562, Note_on_c, 0, 59, 0
2, 32563, Note_on_c, 0, 64, 0
2, 32563, Note_on_c, 0, 101, 64
2, 32567, Note_on_c, 0, 89, 29
2, 32571, Note_on_c, 0, 53, 0
2, 32573, Note_on_c, 0, 89, 0
2, 32574, Note_on_c, 0, 101, 0
2, 32598, Note_on_c, 0, 98, 61
2, 32598, Note_on_c, 0, 86, 60
2, 32610, Note_on_c, 0, 98, 0
2, 32611, Note_on_c, 0, 86, 0
2, 32639, Note_on_c, 0, 62, 24
2, 32640, Note_on_c, 0, 57, 22
2, 32641, Note_on_c, 0, 58, 29
2, 32643, Note_on_c, 0, 52, 24
2, 32644, Note_on_c, 0, 97, 60
2, 32646, Control_c, 0, 64, 0
2, 32670, Control_c, 0, 64, 127
2, 32681, Note_on_c, 0, 62, 0
2, 32684, Note_on_c, 0, 57, 0
2, 32685, Note_on_c, 0, 58, 0
2, 32690, Note_on_c, 0, 97, 0
2, 32691, Note_on_c, 0, 52, 0
2, 32716, Control_c, 0, 64, 0
2, 32731, Control_c, 0, 64, 127
2, 32735, Note_on_c, 0, 94, 25
2, 32738, Note_on_c, 0, 97, 23
2, 32748, Note_on_c, 0, 94, 0
2, 32755, Note_on_c, 0, 97, 0
2, 32769, Note_on_c, 0, 48, 40
2, 32770, Note_on_c, 0, 58, 36
2, 32772, Note_on_c, 0, 97, 49
2, 32774, Note_on_c, 0, 82, 34
2, 32774, Control_c, 0, 64, 0
2, 32791, Note_on_c, 0, 58, 0
2, 32792, Note_on_c, 0, 48, 0
2, 32800, Control_c, 0, 64, 127
2, 32807, Note_on_c, 0, 97, 0
2, 32809, Note_on_c, 0, 82, 0
2, 32823, Control_c, 0, 64, 0
2, 32843, Note_on_c, 0, 48, 45
2, 32844, Control_c, 0, 64, 127
2, 32848, Note_on_c, 0, 82, 51
2, 32848, Note_on_c, 0, 97, 60
2, 32872, Note_on_c, 0, 82, 0
2, 32875, Note_on_c, 0, 97, 0
2, 32879, Control_c, 0, 64, 0
2, 32883, Note_on_c, 0, 48, 0
2, 32888, Note_on_c, 0, 41, 30
2, 32889, Note_on_c, 0, 51, 28
2, 32890, Note_on_c, 0, 94, 37
2, 32900, Control_c, 0, 64, 127
2, 32910, Note_on_c, 0, 41, 0
2, 32921, Note_on_c, 0, 51, 0
2, 32929, Note_on_c, 0, 94, 0
2, 32964, Note_on_c, 0, 97, 75
2, 32964, Note_on_c, 0, 82, 64
2, 32986, Note_on_c, 0, 82, 0
2, 32991, Note_on_c, 0, 97, 0
2, 33000, Note_on_c, 0, 68, 38
2, 33002, Note_on_c, 0, 63, 38
2, 33003, Control_c, 0, 64, 0
2, 33003, Note_on_c, 0, 58, 30
2, 33009, Note_on_c, 0, 94, 33
2, 33028, Control_c, 0, 64, 127
2, 33032, Note_on_c, 0, 94, 0
2, 33041, Note_on_c, 0, 68, 0
2, 33043, Note_on_c, 0, 97, 65
2, 33043, Note_on_c, 0, 82, 51
2, 33064, Note_on_c, 0, 82, 0
2, 33064, Note_on_c, 0, 63, 0
2, 33068, Note_on_c, 0, 97, 0
2, 33072, Note_on_c, 0, 58, 0
2, 33077, Note_on_c, 0, 94, 47
2, 33095, Note_on_c, 0, 94, 0
2, 33113, Note_on_c, 0, 97, 63
2, 33114, Control_c, 0, 64, 0
2, 33115, Note_on_c, 0, 82, 39
2, 33116, Note_on_c, 0, 65, 36
2, 33117, Note_on_c, 0, 62, 31
2, 33118, Note_on_c, 0, 60, 34
2, 33129, Note_on_c, 0, 97, 0
2, 33131, Control_c, 0, 64, 127
2, 33133, Note_on_c, 0, 65, 0
2, 33140, Note_on_c, 0, 82, 0
2, 33179, Note_on_c, 0, 62, 0
2, 33180, Note_on_c, 0, 60, 0
2, 33191, Note_on_c, 0, 53, 34
2, 33201, Note_on_c, 0, 53, 0
2, 33237, Note_on_c, 0, 70, 51
2, 33238, Note_on_c, 0, 62, 58
2, 33245, Note_on_c, 0, 53, 30
2, 33245, Control_c, 0, 64, 0
2, 33277, Control_c, 0, 64, 127
2, 33279, Note_on_c, 0, 62, 0
2, 33279, Note_on_c, 0, 63, 62
2, 33304, Note_on_c, 0, 53, 0
2, 33310, Note_on_c, 0, 63, 0
2, 33314, Note_on_c, 0, 61, 53
2, 33341, Note_on_c, 0, 70, 0
2, 33347, Note_on_c, 0, 61, 0
2, 33354, Note_on_c, 0, 70, 33
2, 33357, Note_on_c, 0, 62, 40
2, 33357, Note_on_c, 0, 46, 30
2, 33357, Note_on_c, 0, 53, 27
2, 33359, Control_c, 0, 64, 0
2, 33377, Control_c, 0, 64, 127
2, 33382, Note_on_c, 0, 62, 0
2, 33383, Note_on_c, 0, 70, 0
2, 33393, Note_on_c, 0, 53, 0
2, 33394, Note_on_c, 0, 46, 0
2, 33433, Control_c, 0, 64, 0
2, 33435, Note_on_c, 0, 74, 55
2, 33436, Note_on_c, 0, 64, 57
2, 33436, Note_on_c, 0, 58, 49
2, 33437, Note_on_c, 0, 69, 60
2, 33441, Control_c, 0, 64, 127
2, 33454, Note_on_c, 0, 74, 0
2, 33456, Note_on_c, 0, 69, 0
2, 33464, Note_on_c, 0, 64, 0
2, 33470, Note_on_c, 0, 58, 0
2, 33479, Control_c, 0, 64, 0
2, 33479, Note_on_c, 0, 72, 42
2, 33481, Note_on_c, 0, 67, 41
2, 33482, Note_on_c, 0, 62, 28
2, 33483, Note_on_c, 0, 57, 41
2, 33494, Control_c, 0, 64, 127
2, 33502, Note_on_c, 0, 67, 0
2, 33507, Note_on_c, 0, 72, 0
2, 33507, Note_on_c, 0, 57, 0
2, 33517, Note_on_c, 0, 62, 0
2, 33557, Note_on_c, 0, 70, 46
2, 33559, Note_on_c, 0, 39, 38
2, 33559, Note_on_c, 0, 62, 38
2, 33562, Note_on_c, 0, 51, 21
2, 33568, Note_on_c, 0, 51, 0
2, 33576, Note_on_c, 0, 70, 0
2, 33579, Note_on_c, 0, 62, 0
2, 33580, Note_on_c, 0, 39, 0
2, 33599, Control_c, 0, 64, 0
2, 33600, Note_on_c, 0, 54, 22
2, 33601, Note_on_c, 0, 38, 40
2, 33601, Note_on_c, 0, 69, 46
2, 33602, Note_on_c, 0, 60, 34
2, 33606, Note_on_c, 0, 65, 32
2, 33620, Control_c, 0, 64, 127
2, 33623, Note_on_c, 0, 38, 0
2, 33630, Note_on_c, 0, 54, 0
2, 33646, Note_on_c, 0, 60, 0
2, 33667, Note_on_c, 0, 65, 0
2, 33806, Note_on_c, 0, 69, 0
2, 33844, Note_on_c, 0, 61, 27
2, 33844, Note_on_c, 0, 65, 24
2, 33845, Note_on_c, 0, 60, 26
2, 33845, Note_on_c, 0, 55, 29
2, 33852, Control_c, 0, 64, 0
2, 33868, Note_on_c, 0, 72, 47
2, 33877, Note_on_c, 0, 72, 0
2, 33886, Control_c, 0, 64, 127
2, 33888, Note_on_c, 0, 77, 66
2, 33908, Note_on_c, 0, 77, 0
2, 33908, Note_on_c, 0, 82, 69
2, 33909, Note_on_c, 0, 65, 0
2, 33910, Note_on_c, 0, 60, 0
2, 33917, Note_on_c, 0, 82, 0
2, 33923, Note_on_c, 0, 61, 0
2, 33927, Note_on_c, 0, 84, 89
2, 33939, Note_on_c, 0, 84, 0
2, 33947, Control_c, 0, 64, 0
2, 33948, Note_on_c, 0, 89, 84
2, 33952, Note_on_c, 0, 60, 38
2, 33952, Note_on_c, 0, 61, 32
2, 33953, Note_on_c, 0, 65, 43
2, 33967, Note_on_c, 0, 89, 0
2, 33969, Control_c, 0, 64, 127
2, 33970, Note_on_c, 0, 94, 79
2, 33985, Note_on_c, 0, 94, 0
2, 33992, Note_on_c, 0, 96, 84
2, 33996, Note_on_c, 0, 65, 0
2, 34008, Note_on_c, 0, 96, 0
2, 34011, Note_on_c, 0, 60, 0
2, 34015, Note_on_c, 0, 94, 75
2, 34020, Note_on_c, 0, 61, 0
2, 34026, Note_on_c, 0, 55, 0
2, 34038, Note_on_c, 0, 94, 0
2, 34046, Note_on_c, 0, 93, 74
2, 34070, Note_on_c, 0, 93, 0
2, 34076, Note_on_c, 0, 60, 51
2, 34078, Note_on_c, 0, 64, 32
2, 34079, Note_on_c, 0, 54, 27
2, 34083, Control_c, 0, 64, 0
2, 34083, Note_on_c, 0, 94, 67
2, 34101, Note_on_c, 0, 94, 0
2, 34105, Note_on_c, 0, 93, 59
2, 34112, Note_on_c, 0, 64, 0
2, 34120, Note_on_c, 0, 60, 0
2, 34122, Note_on_c, 0, 93, 0
2, 34122, Control_c, 0, 64, 127
2, 34124, Note_on_c, 0, 91, 52
2, 34134, Note_on_c, 0, 54, 0
2, 34136, Note_on_c, 0, 91, 0
2, 34148, Note_on_c, 0, 90, 62
2, 34165, Note_on_c, 0, 90, 0
2, 34172, Note_on_c, 0, 93, 58
2, 34186, Note_on_c, 0, 93, 0
2, 34197, Note_on_c, 0, 87, 71
2, 34203, Note_on_c, 0, 60, 35
2, 34206, Note_on_c, 0, 54, 21
2, 34209, Note_on_c, 0, 50, 22
2, 34209, Control_c, 0, 64, 0
2, 34221, Note_on_c, 0, 87, 0
2, 34221, Note_on_c, 0, 84, 53
2, 34228, Note_on_c, 0, 84, 0
2, 34243, Note_on_c, 0, 86, 60
2, 34249, Control_c, 0, 64, 127
2, 34260, Note_on_c, 0, 86, 0
2, 34265, Note_on_c, 0, 87, 61
2, 34275, Note_on_c, 0, 50, 0
2, 34278, Note_on_c, 0, 54, 0
2, 34281, Note_on_c, 0, 87, 0
2, 34282, Note_on_c, 0, 60, 0
2, 34289, Note_on_c, 0, 86, 53
2, 34318, Note_on_c, 0, 64, 43
2, 34321, Note_on_c, 0, 60, 40
2, 34323, Note_on_c, 0, 54, 20
2, 34341, Note_on_c, 0, 86, 0
2, 34354, Note_on_c, 0, 64, 0
2, 34356, Note_on_c, 0, 60, 0
2, 34364, Note_on_c, 0, 54, 0
2, 34399, Note_on_c, 0, 44, 38
2, 34416, Note_on_c, 0, 44, 0
2, 34436, Note_on_c, 0, 54, 57
2, 34450, Control_c, 0, 64, 0
2, 34466, Control_c, 0, 64, 127
2, 34513, Note_on_c, 0, 54, 0
2, 34520, Note_on_c, 0, 50, 33
2, 34549, Note_on_c, 0, 50, 0
2, 34561, Control_c, 0, 64, 0
2, 34561, Note_on_c, 0, 58, 34
2, 34562, Note_on_c, 0, 62, 43
2, 34562, Note_on_c, 0, 43, 28
2, 34565, Note_on_c, 0, 55, 22
2, 34577, Control_c, 0, 64, 127
2, 34594, Note_on_c, 0, 43, 0
2, 34603, Note_on_c, 0, 55, 0
2, 34624, Note_on_c, 0, 58, 0
2, 34627, Note_on_c, 0, 62, 0
2, 34644, Note_on_c, 0, 67, 74
2, 34684, Note_on_c, 0, 62, 47
2, 34686, Note_on_c, 0, 58, 34
2, 34687, Note_on_c, 0, 55, 33
2, 34706, Note_on_c, 0, 67, 0
2, 34715, Note_on_c, 0, 55, 0
2, 34744, Note_on_c, 0, 62, 0
2, 34746, Note_on_c, 0, 58, 0
2, 34765, Note_on_c, 0, 52, 61
2, 34777, Note_on_c, 0, 52, 0
2, 34801, Control_c, 0, 64, 0
2, 34804, Note_on_c, 0, 69, 69
2, 34805, Note_on_c, 0, 65, 74
2, 34805, Note_on_c, 0, 61, 70
2, 34806, Note_on_c, 0, 45, 37
2, 34806, Note_on_c, 0, 55, 41
2, 34819, Control_c, 0, 64, 127
2, 34825, Note_on_c, 0, 45, 0
2, 34828, Note_on_c, 0, 61, 0
2, 34828, Note_on_c, 0, 55, 0
2, 34829, Note_on_c, 0, 69, 0
2, 34833, Note_on_c, 0, 65, 0
2, 34838, Note_on_c, 0, 72, 75
2, 34849, Note_on_c, 0, 72, 0
2, 34866, Note_on_c, 0, 77, 85
2, 34890, Note_on_c, 0, 77, 0
2, 34897, Note_on_c, 0, 84, 91
2, 34918, Note_on_c, 0, 84, 0
2, 34927, Note_on_c, 0, 65, 44
2, 34928, Note_on_c, 0, 82, 60
2, 34929, Note_on_c, 0, 77, 37
2, 34930, Note_on_c, 0, 61, 30
2, 34930, Note_on_c, 0, 73, 33
2, 34931, Note_on_c, 0, 55, 33
2, 34931, Control_c, 0, 64, 0
2, 34931, Note_on_c, 0, 60, 43
2, 34953, Control_c, 0, 64, 127
2, 34967, Note_on_c, 0, 82, 0
2, 34968, Note_on_c, 0, 73, 0
2, 34968, Note_on_c, 0, 77, 0
2, 34973, Note_on_c, 0, 81, 66
2, 34998, Note_on_c, 0, 81, 0
2, 35002, Note_on_c, 0, 65, 0
2, 35003, Note_on_c, 0, 60, 0
2, 35007, Note_on_c, 0, 76, 42
2, 35008, Note_on_c, 0, 61, 0
2, 35009, Note_on_c, 0, 55, 0
2, 35029, Note_on_c, 0, 76, 0
2, 35048, Note_on_c, 0, 79, 48
2, 35050, Note_on_c, 0, 76, 28
2, 35050, Note_on_c, 0, 60, 33
2, 35051, Note_on_c, 0, 64, 34
2, 35051, Note_on_c, 0, 72, 24
2, 35053, Note_on_c, 0, 55, 42
2, 35053, Control_c, 0, 64, 0
2, 35078, Control_c, 0, 64, 127
2, 35083, Note_on_c, 0, 79, 0
2, 35084, Note_on_c, 0, 81, 60
2, 35106, Note_on_c, 0, 81, 0
2, 35107, Note_on_c, 0, 76, 0
2, 35108, Note_on_c, 0, 72, 0
2, 35124, Note_on_c, 0, 64, 0
2, 35125, Note_on_c, 0, 55, 0
2, 35130, Note_on_c, 0, 78, 62
2, 35132, Note_on_c, 0, 72, 59
2, 35169, Note_on_c, 0, 64, 37
2, 35169, Note_on_c, 0, 54, 32
2, 35175, Control_c, 0, 64, 0
2, 35181, Control_c, 0, 64, 127
2, 35186, Note_on_c, 0, 64, 0
2, 35190, Note_on_c, 0, 60, 0
2, 35199, Note_on_c, 0, 54, 0
2, 35200, Note_on_c, 0, 78, 0
2, 35202, Note_on_c, 0, 72, 0
2, 35289, Note_on_c, 0, 66, 38
2, 35290, Note_on_c, 0, 64, 44
2, 35290, Note_on_c, 0, 74, 46
2, 35290, Note_on_c, 0, 69, 45
2, 35292, Note_on_c, 0, 62, 40
2, 35297, Control_c, 0, 64, 0
2, 35313, Note_on_c, 0, 62, 0
2, 35313, Control_c, 0, 64, 127
2, 35352, Note_on_c, 0, 64, 0
2, 35374, Note_on_c, 0, 74, 0
2, 35378, Note_on_c, 0, 66, 0
2, 35406, Note_on_c, 0, 60, 30
2, 35407, Note_on_c, 0, 66, 35
2, 35407, Note_on_c, 0, 62, 32
2, 35411, Control_c, 0, 64, 0
2, 35412, Note_on_c, 0, 69, 0
2, 35412, Note_on_c, 0, 54, 28
2, 35413, Note_on_c, 0, 50, 19
2, 35423, Note_on_c, 0, 60, 0
2, 35426, Control_c, 0, 64, 127
2, 35428, Note_on_c, 0, 54, 0
2, 35431, Note_on_c, 0, 50, 0
2, 35450, Note_on_c, 0, 66, 0
2, 35461, Note_on_c, 0, 62, 0
2, 35487, Note_on_c, 0, 50, 30
2, 35517, Note_on_c, 0, 50, 0
2, 35526, Note_on_c, 0, 62, 35
2, 35527, Note_on_c, 0, 43, 32
2, 35527, Note_on_c, 0, 57, 34
2, 35528, Control_c, 0, 64, 0
2, 35529, Note_on_c, 0, 58, 32
2, 35541, Control_c, 0, 64, 127
2, 35549, Note_on_c, 0, 55, 2
2, 35550, Note_on_c, 0, 57, 0
2, 35551, Note_on_c, 0, 43, 0
2, 35553, Note_on_c, 0, 62, 0
2, 35560, Note_on_c, 0, 58, 0
2, 35564, Note_on_c, 0, 55, 0
2, 35647, Note_on_c, 0, 55, 41
2, 35648, Note_on_c, 0, 62, 30
2, 35649, Note_on_c, 0, 58, 33
2, 35687, Note_on_c, 0, 82, 63
2, 35696, Note_on_c, 0, 81, 55
2, 35700, Note_on_c, 0, 62, 0
2, 35702, Note_on_c, 0, 55, 0
2, 35705, Note_on_c, 0, 82, 0
2, 35707, Note_on_c, 0, 58, 0
2, 35714, Note_on_c, 0, 77, 58
2, 35716, Note_on_c, 0, 81, 0
2, 35731, Note_on_c, 0, 77, 0
2, 35735, Note_on_c, 0, 74, 44
2, 35741, Note_on_c, 0, 74, 0
2, 35758, Note_on_c, 0, 79, 80
2, 35768, Note_on_c, 0, 66, 37
2, 35771, Note_on_c, 0, 61, 37
2, 35773, Note_on_c, 0, 55, 32
2, 35778, Control_c, 0, 64, 0
2, 35783, Note_on_c, 0, 79, 0
2, 35792, Note_on_c, 0, 77, 61
2, 35814, Note_on_c, 0, 77, 0
2, 35821, Note_on_c, 0, 76, 53
2, 35834, Control_c, 0, 64, 127
2, 35839, Note_on_c, 0, 66, 0
2, 35839, Control_c, 0, 64, 0
2, 35845, Control_c, 0, 64, 127
2, 35847, Note_on_c, 0, 76, 0
2, 35851, Note_on_c, 0, 74, 40
2, 35864, Note_on_c, 0, 74, 0
2, 35872, Note_on_c, 0, 61, 0
2, 35877, Note_on_c, 0, 73, 52
2, 35898, Control_c, 0, 64, 0
2, 35899, Note_on_c, 0, 61, 35
2, 35902, Note_on_c, 0, 73, 0
2, 35905, Note_on_c, 0, 76, 55
2, 35920, Note_on_c, 0, 76, 0
2, 35924, Control_c, 0, 64, 127
2, 35930, Note_on_c, 0, 70, 59
2, 35948, Note_on_c, 0, 61, 0
2, 35949, Note_on_c, 0, 55, 0
2, 35951, Note_on_c, 0, 70, 0
2, 35961, Note_on_c, 0, 69, 44
2, 35987, Note_on_c, 0, 69, 0
2, 35988, Note_on_c, 0, 67, 37
2, 36007, Note_on_c, 0, 67, 0
2, 36011, Note_on_c, 0, 60, 24
2, 36013, Note_on_c, 0, 50, 28
2, 36013, Note_on_c, 0, 54, 28
2, 36014, Control_c, 0, 64, 0
2, 36016, Note_on_c, 0, 66, 34
2, 36029, Note_on_c, 0, 60, 0
2, 36038, Control_c, 0, 64, 127
2, 36044, Note_on_c, 0, 54, 0
2, 36046, Note_on_c, 0, 69, 50
2, 36048, Note_on_c, 0, 50, 0
2, 36049, Note_on_c, 0, 66, 0
2, 36062, Note_on_c, 0, 69, 0
2, 36071, Note_on_c, 0, 62, 37
2, 36094, Note_on_c, 0, 62, 0
2, 36104, Note_on_c, 0, 62, 57
2, 36121, Note_on_c, 0, 62, 0
2, 36130, Note_on_c, 0, 49, 26
2, 36131, Note_on_c, 0, 62, 43
2, 36131, Note_on_c, 0, 50, 38
2, 36133, Control_c, 0, 64, 0
2, 36142, Note_on_c, 0, 49, 0
2, 36152, Control_c, 0, 64, 127
2, 36158, Note_on_c, 0, 50, 0
2, 36184, Note_on_c, 0, 62, 0
2, 36197, Note_on_c, 0, 44, 32
2, 36198, Note_on_c, 0, 60, 56
2, 36202, Note_on_c, 0, 32, 31
2, 36221, Note_on_c, 0, 60, 0
2, 36222, Note_on_c, 0, 44, 0
2, 36223, Note_on_c, 0, 32, 0
2, 36239, Note_on_c, 0, 59, 36
2, 36241, Note_on_c, 0, 31, 33
2, 36245, Control_c, 0, 64, 0
2, 36246, Note_on_c, 0, 43, 9
2, 36275, Note_on_c, 0, 31, 0
2, 36277, Note_on_c, 0, 59, 0
2, 36281, Control_c, 0, 64, 127
2, 36282, Note_on_c, 0, 43, 0
2, 36287, Control_c, 0, 64, 0
2, 36295, Note_on_c, 0, 55, 49
2, 36295, Note_on_c, 0, 45, 44
2, 36297, Note_on_c, 0, 60, 45
2, 36308, Note_on_c, 0, 55, 0
2, 36310, Note_on_c, 0, 45, 0
2, 36313, Note_on_c, 0, 60, 0
2, 36326, Note_on_c, 0, 46, 39
2, 36327, Control_c, 0, 64, 127
2, 36327, Note_on_c, 0, 61, 52
2, 36330, Note_on_c, 0, 55, 25
2, 36336, Note_on_c, 0, 55, 0
2, 36349, Note_on_c, 0, 46, 0
2, 36351, Note_on_c, 0, 61, 0
2, 36357, Control_c, 0, 64, 0
2, 36360, Note_on_c, 0, 62, 40
2, 36360, Note_on_c, 0, 55, 39
2, 36363, Note_on_c, 0, 47, 42
2, 36364, Note_on_c, 0, 59, 31
2, 36375, Control_c, 0, 64, 127
2, 36420, Note_on_c, 0, 62, 0
2, 36427, Note_on_c, 0, 59, 0
2, 36434, Note_on_c, 0, 55, 0
2, 36436, Note_on_c, 0, 35, 38
2, 36445, Note_on_c, 0, 35, 0
2, 36452, Note_on_c, 0, 47, 0
2, 36477, Control_c, 0, 64, 0
2, 36479, Note_on_c, 0, 36, 35
2, 36480, Note_on_c, 0, 54, 36
2, 36480, Note_on_c, 0, 62, 42
2, 36482, Note_on_c, 0, 48, 34
2, 36485, Note_on_c, 0, 57, 22
2, 36493, Note_on_c, 0, 57, 0
2, 36494, Control_c, 0, 64, 127
2, 36497, Note_on_c, 0, 54, 0
2, 36499, Note_on_c, 0, 36, 0
2, 36502, Note_on_c, 0, 62, 0
2, 36510, Note_on_c, 0, 48, 0
2, 36561, Note_on_c, 0, 74, 77
2, 36561, Note_on_c, 0, 66, 77
2, 36561, Note_on_c, 0, 62, 87
2, 36561, Note_on_c, 0, 69, 71
2, 36564, Note_on_c, 0, 58, 77
2, 36597, Note_on_c, 0, 62, 0
2, 36598, Note_on_c, 0, 66, 0
2, 36600, Note_on_c, 0, 58, 0
2, 36600, Note_on_c, 0, 74, 0
2, 36602, Note_on_c, 0, 69, 0
2, 36609, Note_on_c, 0, 58, 75
2, 36610, Note_on_c, 0, 74, 64
2, 36610, Note_on_c, 0, 66, 57
2, 36611, Note_on_c, 0, 62, 44
2, 36611, Note_on_c, 0, 69, 73
2, 36655, Note_on_c, 0, 62, 0
2, 36657, Note_on_c, 0, 58, 0
2, 36665, Note_on_c, 0, 69, 0
2, 36665, Note_on_c, 0, 66, 0
2, 36678, Note_on_c, 0, 74, 0
2, 36688, Note_on_c, 0, 58, 42
2, 36700, Note_on_c, 0, 58, 0
2, 36727, Note_on_c, 0, 63, 39
2, 36730, Control_c, 0, 64, 0
2, 36730, Note_on_c, 0, 68, 60
2, 36730, Note_on_c, 0, 73, 62
2, 36730, Note_on_c, 0, 77, 60
2, 36730, Note_on_c, 0, 53, 48
2, 36732, Note_on_c, 0, 57, 46
2, 36754, Note_on_c, 0, 63, 0
2, 36756, Note_on_c, 0, 57, 0
2, 36757, Note_on_c, 0, 77, 0
2, 36757, Note_on_c, 0, 53, 0
2, 36757, Note_on_c, 0, 73, 0
2, 36758, Note_on_c, 0, 68, 0
2, 36768, Control_c, 0, 64, 127
2, 36855, Note_on_c, 0, 61, 48
2, 36856, Note_on_c, 0, 68, 42
2, 36858, Note_on_c, 0, 57, 44
2, 36858, Note_on_c, 0, 65, 55
2, 36860, Note_on_c, 0, 51, 33
2, 36861, Note_on_c, 0, 47, 32
2, 36863, Control_c, 0, 64, 0
2, 36888, Control_c, 0, 64, 127
2, 36913, Note_on_c, 0, 47, 0
2, 36916, Note_on_c, 0, 57, 0
2, 36919, Note_on_c, 0, 65, 0
2, 36924, Note_on_c, 0, 61, 0
2, 36928, Note_on_c, 0, 68, 0
2, 36954, Note_on_c, 0, 51, 0
2, 36974, Note_on_c, 0, 70, 55
2, 36976, Note_on_c, 0, 60, 45
2, 36977, Note_on_c, 0, 65, 37
2, 36978, Note_on_c, 0, 46, 30
2, 36978, Note_on_c, 0, 55, 33
2, 36983, Control_c, 0, 64, 0
2, 37012, Control_c, 0, 64, 127
2, 37025, Note_on_c, 0, 60, 0
2, 37029, Note_on_c, 0, 55, 0
2, 37036, Note_on_c, 0, 65, 0
2, 37080, Note_on_c, 0, 70, 0
2, 37087, Note_on_c, 0, 65, 45
2, 37089, Note_on_c, 0, 55, 33
2, 37092, Note_on_c, 0, 60, 25
2, 37103, Note_on_c, 0, 55, 0
2, 37105, Note_on_c, 0, 60, 0
2, 37109, Note_on_c, 0, 65, 0
2, 37112, Note_on_c, 0, 46, 0
2, 37202, Control_c, 0, 64, 0
2, 37204, Note_on_c, 0, 62, 32
2, 37207, Note_on_c, 0, 38, 38
2, 37209, Note_on_c, 0, 67, 22
2, 37209, Note_on_c, 0, 50, 22
2, 37210, Note_on_c, 0, 69, 24
2, 37210, Note_on_c, 0, 74, 13
2, 37218, Note_on_c, 0, 62, 0
2, 37219, Note_on_c, 0, 69, 0
2, 37220, Control_c, 0, 64, 127
2, 37221, Note_on_c, 0, 67, 0
2, 37225, Note_on_c, 0, 38, 0
2, 37228, Note_on_c, 0, 74, 0
2, 37236, Note_on_c, 0, 50, 0
2, 37326, Note_on_c, 0, 64, 30
2, 37326, Note_on_c, 0, 54, 30
2, 37327, Note_on_c, 0, 60, 45
2, 37333, Note_on_c, 0, 60, 0
2, 37334, Note_on_c, 0, 64, 0
2, 37347, Note_on_c, 0, 54, 0
2, 37362, Note_on_c, 0, 93, 94
2, 37382, Note_on_c, 0, 93, 0
2, 37400, Note_on_c, 0, 96, 101
2, 37419, Note_on_c, 0, 96, 0
2, 37432, Note_on_c, 0, 94, 83
2, 37455, Note_on_c, 0, 50, 42
2, 37457, Control_c, 0, 64, 0
2, 37458, Note_on_c, 0, 43, 33
2, 37464, Note_on_c, 0, 90, 68
2, 37468, Note_on_c, 0, 94, 0
2, 37479, Control_c, 0, 64, 127
2, 37486, Note_on_c, 0, 43, 0
2, 37493, Note_on_c, 0, 50, 0
2, 37493, Note_on_c, 0, 90, 0
2, 37495, Note_on_c, 0, 93, 78
2, 37513, Note_on_c, 0, 93, 0
2, 37522, Note_on_c, 0, 91, 65
2, 37527, Note_on_c, 0, 93, 22
2, 37533, Note_on_c, 0, 93, 0
2, 37541, Note_on_c, 0, 91, 0
2, 37546, Note_on_c, 0, 86, 55
2, 37562, Note_on_c, 0, 86, 0
2, 37576, Note_on_c, 0, 62, 29
2, 37576, Note_on_c, 0, 58, 40
2, 37577, Note_on_c, 0, 55, 36
2, 37577, Note_on_c, 0, 53, 30
2, 37579, Note_on_c, 0, 84, 71
2, 37587, Control_c, 0, 64, 0
2, 37608, Control_c, 0, 64, 127
2, 37623, Note_on_c, 0, 84, 0
2, 37645, Note_on_c, 0, 55, 0
2, 37646, Note_on_c, 0, 53, 0
2, 37654, Note_on_c, 0, 58, 0
2, 37654, Note_on_c, 0, 82, 74
2, 37655, Note_on_c, 0, 62, 0
2, 37667, Note_on_c, 0, 82, 0
2, 37690, Note_on_c, 0, 84, 72
2, 37691, Note_on_c, 0, 55, 55
2, 37692, Note_on_c, 0, 66, 39
2, 37695, Note_on_c, 0, 61, 36
2, 37698, Control_c, 0, 64, 0
2, 37701, Note_on_c, 0, 84, 0
2, 37705, Note_on_c, 0, 85, 64
2, 37725, Note_on_c, 0, 85, 0
2, 37725, Note_on_c, 0, 84, 29
2, 37728, Control_c, 0, 64, 127
2, 37737, Note_on_c, 0, 84, 0
2, 37738, Note_on_c, 0, 82, 50
2, 37756, Note_on_c, 0, 82, 0
2, 37758, Note_on_c, 0, 79, 37
2, 37764, Note_on_c, 0, 79, 0
2, 37765, Note_on_c, 0, 66, 0
2, 37778, Note_on_c, 0, 55, 0
2, 37780, Note_on_c, 0, 84, 84
2, 37793, Note_on_c, 0, 61, 0
2, 37798, Note_on_c, 0, 84, 0
2, 37808, Note_on_c, 0, 82, 79
2, 37812, Note_on_c, 0, 61, 32
2, 37813, Note_on_c, 0, 55, 32
2, 37814, Control_c, 0, 64, 0
2, 37829, Note_on_c, 0, 82, 0
2, 37838, Note_on_c, 0, 84, 67
2, 37844, Control_c, 0, 64, 127
2, 37855, Note_on_c, 0, 84, 0
2, 37863, Note_on_c, 0, 82, 57
2, 37883, Note_on_c, 0, 82, 0
2, 37883, Note_on_c, 0, 55, 0
2, 37894, Note_on_c, 0, 61, 0
2, 37894, Note_on_c, 0, 74, 37
2, 37916, Note_on_c, 0, 74, 0
2, 37922, Note_on_c, 0, 76, 61
2, 37927, Note_on_c, 0, 60, 24
2, 37929, Control_c, 0, 64, 0
2, 37930, Note_on_c, 0, 54, 23
2, 37939, Note_on_c, 0, 76, 0
2, 37954, Note_on_c, 0, 77, 55
2, 37970, Note_on_c, 0, 77, 0
2, 37977, Control_c, 0, 64, 127
2, 37980, Note_on_c, 0, 60, 0
2, 37982, Note_on_c, 0, 78, 53
2, 37991, Note_on_c, 0, 54, 0
2, 38000, Note_on_c, 0, 78, 0
2, 38011, Note_on_c, 0, 66, 49
2, 38025, Note_on_c, 0, 66, 0
2, 38036, Note_on_c, 0, 66, 47
2, 38046, Note_on_c, 0, 60, 33
2, 38049, Note_on_c, 0, 50, 25
2, 38050, Control_c, 0, 64, 0
2, 38051, Note_on_c, 0, 66, 0
2, 38051, Note_on_c, 0, 54, 23
2, 38058, Control_c, 0, 64, 127
2, 38061, Note_on_c, 0, 60, 0
2, 38067, Note_on_c, 0, 66, 50
2, 38070, Note_on_c, 0, 54, 0
2, 38074, Note_on_c, 0, 50, 0
2, 38088, Note_on_c, 0, 66, 0
2, 38131, Note_on_c, 0, 50, 34
2, 38168, Note_on_c, 0, 50, 0
2, 38170, Note_on_c, 0, 62, 51
2, 38172, Note_on_c, 0, 74, 40
2, 38172, Note_on_c, 0, 71, 34
2, 38174, Control_c, 0, 64, 0
2, 38174, Note_on_c, 0, 53, 25
2, 38174, Note_on_c, 0, 43, 33
2, 38195, Control_c, 0, 64, 127
2, 38202, Note_on_c, 0, 43, 0
2, 38211, Note_on_c, 0, 53, 0
2, 38229, Note_on_c, 0, 62, 0
2, 38236, Note_on_c, 0, 71, 0
2, 38243, Note_on_c, 0, 74, 0
2, 38283, Note_on_c, 0, 67, 40
2, 38286, Note_on_c, 0, 59, 28
2, 38287, Note_on_c, 0, 62, 24
2, 38289, Note_on_c, 0, 49, 27
2, 38295, Control_c, 0, 64, 0
2, 38313, Control_c, 0, 64, 127
2, 38329, Note_on_c, 0, 59, 0
2, 38336, Note_on_c, 0, 67, 0
2, 38345, Note_on_c, 0, 62, 0
2, 38364, Note_on_c, 0, 55, 22
2, 38373, Note_on_c, 0, 49, 0
2, 38403, Note_on_c, 0, 66, 45
2, 38403, Note_on_c, 0, 74, 45
2, 38404, Note_on_c, 0, 62, 39
2, 38404, Note_on_c, 0, 69, 52
2, 38407, Control_c, 0, 64, 0
2, 38408, Note_on_c, 0, 58, 25
2, 38408, Note_on_c, 0, 48, 34
2, 38409, Note_on_c, 0, 55, 0
2, 38436, Control_c, 0, 64, 127
2, 38454, Note_on_c, 0, 48, 0
2, 38465, Note_on_c, 0, 58, 0
2, 38483, Note_on_c, 0, 69, 0
2, 38487, Note_on_c, 0, 66, 0
2, 38488, Note_on_c, 0, 62, 0
2, 38514, Note_on_c, 0, 74, 0
2, 38524, Note_on_c, 0, 62, 36
2, 38524, Note_on_c, 0, 58, 37
2, 38526, Note_on_c, 0, 67, 50
2, 38529, Note_on_c, 0, 48, 26
2, 38531, Control_c, 0, 64, 0
2, 38560, Control_c, 0, 64, 127
2, 38599, Note_on_c, 0, 58, 0
2, 38603, Note_on_c, 0, 62, 0
2, 38603, Note_on_c, 0, 67, 0
2, 38622, Note_on_c, 0, 48, 0
2, 38644, Note_on_c, 0, 66, 36
2, 38644, Note_on_c, 0, 62, 31
2, 38646, Note_on_c, 0, 51, 30
2, 38646, Note_on_c, 0, 57, 31
2, 38647, Control_c, 0, 64, 0
2, 38669, Control_c, 0, 64, 127
2, 38673, Note_on_c, 0, 57, 0
2, 38678, Note_on_c, 0, 51, 0
2, 38697, Note_on_c, 0, 66, 0
2, 38707, Note_on_c, 0, 62, 0
2, 38722, Note_on_c, 0, 41, 44
2, 38761, Note_on_c, 0, 51, 31
2, 38762, Note_on_c, 0, 62, 44
2, 38763, Note_on_c, 0, 57, 43
2, 38777, Note_on_c, 0, 57, 0
2, 38783, Note_on_c, 0, 62, 0
2, 38783, Note_on_c, 0, 41, 0
2, 38787, Note_on_c, 0, 51, 0
2, 38841, Note_on_c, 0, 63, 65
2, 38841, Note_on_c, 0, 73, 69
2, 38842, Note_on_c, 0, 68, 69
2, 38845, Note_on_c, 0, 58, 57
2, 38873, Note_on_c, 0, 73, 0
2, 38874, Note_on_c, 0, 58, 0
2, 38875, Note_on_c, 0, 68, 0
2, 38881, Note_on_c, 0, 63, 0
2, 38882, Control_c, 0, 64, 0
2, 38890, Note_on_c, 0, 72, 45
2, 38890, Note_on_c, 0, 57, 43
2, 38891, Note_on_c, 0, 67, 41
2, 38891, Note_on_c, 0, 62, 30
2, 38901, Control_c, 0, 64, 127
2, 38911, Note_on_c, 0, 67, 0
2, 38911, Note_on_c, 0, 72, 0
2, 38927, Note_on_c, 0, 62, 0
2, 38944, Note_on_c, 0, 57, 0
2, 38961, Note_on_c, 0, 70, 50
2, 38963, Control_c, 0, 64, 0
2, 38963, Note_on_c, 0, 55, 42
2, 38964, Note_on_c, 0, 65, 50
2, 38966, Note_on_c, 0, 60, 25
2, 38973, Control_c, 0, 64, 127
2, 38982, Note_on_c, 0, 65, 0
2, 38984, Note_on_c, 0, 70, 0
2, 38991, Note_on_c, 0, 60, 0
2, 39001, Note_on_c, 0, 55, 0
2, 39007, Control_c, 0, 64, 0
2, 39010, Note_on_c, 0, 69, 34
2, 39010, Note_on_c, 0, 53, 41
2, 39012, Note_on_c, 0, 64, 35
2, 39012, Note_on_c, 0, 59, 29
2, 39022, Note_on_c, 0, 53, 0
2, 39024, Control_c, 0, 64, 127
2, 39025, Note_on_c, 0, 69, 0
2, 39028, Note_on_c, 0, 64, 0
2, 39042, Note_on_c, 0, 59, 0
2, 39081, Note_on_c, 0, 39, 43
2, 39097, Note_on_c, 0, 39, 0
2, 39120, Note_on_c, 0, 38, 41
2, 39121, Control_c, 0, 64, 0
2, 39122, Note_on_c, 0, 54, 31
2, 39122, Note_on_c, 0, 58, 36
2, 39125, Note_on_c, 0, 50, 24
2, 39125, Note_on_c, 0, 65, 27
2, 39127, Note_on_c, 0, 60, 40
2, 39140, Note_on_c, 0, 54, 0
2, 39140, Control_c, 0, 64, 127
2, 39144, Note_on_c, 0, 60, 0
2, 39147, Note_on_c, 0, 58, 0
2, 39150, Note_on_c, 0, 65, 0
2, 39157, Note_on_c, 0, 38, 0
2, 39169, Note_on_c, 0, 50, 0
2, 39190, Note_on_c, 0, 69, 81
2, 39209, Note_on_c, 0, 69, 0
2, 39217, Note_on_c, 0, 72, 84
2, 39235, Note_on_c, 0, 72, 0
2, 39247, Control_c, 0, 64, 0
2, 39247, Note_on_c, 0, 69, 70
2, 39247, Note_on_c, 0, 50, 35
2, 39247, Note_on_c, 0, 44, 37
2, 39267, Note_on_c, 0, 69, 0
2, 39273, Control_c, 0, 64, 127
2, 39274, Note_on_c, 0, 70, 58
2, 39284, Note_on_c, 0, 70, 0
2, 39288, Note_on_c, 0, 44, 0
2, 39302, Note_on_c, 0, 74, 66
2, 39308, Note_on_c, 0, 50, 0
2, 39318, Note_on_c, 0, 74, 0
2, 39334, Note_on_c, 0, 81, 85
2, 39355, Note_on_c, 0, 81, 0
2, 39355, Control_c, 0, 64, 0
2, 39363, Note_on_c, 0, 84, 90
2, 39364, Note_on_c, 0, 43, 40
2, 39367, Note_on_c, 0, 55, 29
2, 39378, Control_c, 0, 64, 127
2, 39386, Note_on_c, 0, 43, 0
2, 39397, Note_on_c, 0, 55, 0
2, 39397, Note_on_c, 0, 84, 0
2, 39399, Note_on_c, 0, 82, 56
2, 39421, Note_on_c, 0, 82, 0
2, 39428, Note_on_c, 0, 78, 37
2, 39447, Note_on_c, 0, 78, 0
2, 39457, Note_on_c, 0, 81, 70
2, 39470, Note_on_c, 0, 81, 0
2, 39477, Control_c, 0, 64, 0
2, 39480, Note_on_c, 0, 62, 29
2, 39482, Note_on_c, 0, 55, 27
2, 39483, Note_on_c, 0, 58, 34
2, 39484, Note_on_c, 0, 79, 51
2, 39498, Control_c, 0, 64, 127
2, 39512, Note_on_c, 0, 79, 0
2, 39517, Note_on_c, 0, 74, 53
2, 39529, Note_on_c, 0, 74, 0
2, 39542, Note_on_c, 0, 55, 0
2, 39543, Note_on_c, 0, 62, 0
2, 39547, Note_on_c, 0, 58, 0
2, 39549, Note_on_c, 0, 79, 64
2, 39550, Note_on_c, 0, 73, 75
2, 39570, Note_on_c, 0, 79, 0
2, 39577, Note_on_c, 0, 73, 0
2, 39584, Note_on_c, 0, 70, 60
2, 39594, Note_on_c, 0, 70, 0
2, 39602, Control_c, 0, 64, 0
2, 39607, Note_on_c, 0, 55, 45
2, 39608, Note_on_c, 0, 65, 35
2, 39608, Note_on_c, 0, 61, 35
2, 39612, Note_on_c, 0, 72, 49
2, 39614, Note_on_c, 0, 79, 51
2, 39635, Control_c, 0, 64, 127
2, 39650, Note_on_c, 0, 79, 0
2, 39651, Note_on_c, 0, 65, 0
2, 39653, Note_on_c, 0, 72, 0
2, 39661, Note_on_c, 0, 61, 0
2, 39662, Note_on_c, 0, 55, 0
2, 39666, Note_on_c, 0, 72, 49
2, 39668, Note_on_c, 0, 79, 38
2, 39683, Note_on_c, 0, 79, 0
2, 39690, Note_on_c, 0, 72, 0
2, 39695, Note_on_c, 0, 70, 38
2, 39714, Note_on_c, 0, 70, 0
2, 39727, Control_c, 0, 64, 0
2, 39730, Note_on_c, 0, 45, 31
2, 39730, Note_on_c, 0, 55, 28
2, 39731, Note_on_c, 0, 72, 41
2, 39732, Note_on_c, 0, 79, 44
2, 39740, Note_on_c, 0, 55, 0
2, 39748, Control_c, 0, 64, 127
2, 39750, Note_on_c, 0, 45, 0
2, 39757, Note_on_c, 0, 79, 0
2, 39765, Note_on_c, 0, 72, 0
2, 39766, Note_on_c, 0, 70, 51
2, 39779, Note_on_c, 0, 70, 0
2, 39808, Note_on_c, 0, 51, 30
2, 39808, Note_on_c, 0, 39, 35
2, 39825, Note_on_c, 0, 51, 0
2, 39833, Note_on_c, 0, 39, 0
2, 39846, Control_c, 0, 64, 0
2, 39850, Note_on_c, 0, 74, 36
2, 39851, Note_on_c, 0, 38, 37
2, 39851, Note_on_c, 0, 50, 24
2, 39853, Note_on_c, 0, 69, 29
2, 39861, Note_on_c, 0, 69, 0
2, 39867, Note_on_c, 0, 74, 0
2, 39867, Note_on_c, 0, 38, 0
2, 39868, Control_c, 0, 64, 127
2, 39879, Note_on_c, 0, 50, 0
2, 39970, Control_c, 0, 64, 0
2, 39973, Note_on_c, 0, 65, 34
2, 39974, Note_on_c, 0, 60, 41
2, 39977, Note_on_c, 0, 54, 21
2, 39978, Control_c, 0, 64, 127
2, 39979, Note_on_c, 0, 65, 0
2, 39981, Note_on_c, 0, 60, 0
2, 39996, Note_on_c, 0, 54, 0
2, 40046, Note_on_c, 0, 89, 84
2, 40046, Note_on_c, 0, 86, 77
2, 40046, Note_on_c, 0, 79, 80
2, 40068, Note_on_c, 0, 86, 0
2, 40068, Note_on_c, 0, 89, 0
2, 40071, Note_on_c, 0, 79, 0
2, 40087, Note_on_c, 0, 49, 31
2, 40089, Note_on_c, 0, 50, 44
2, 40089, Note_on_c, 0, 88, 79
2, 40091, Note_on_c, 0, 84, 71
2, 40094, Control_c, 0, 64, 0
2, 40095, Note_on_c, 0, 49, 0
2, 40102, Note_on_c, 0, 88, 0
2, 40103, Note_on_c, 0, 84, 0
2, 40123, Note_on_c, 0, 86, 59
2, 40127, Note_on_c, 0, 82, 35
2, 40137, Note_on_c, 0, 82, 0
2, 40138, Note_on_c, 0, 83, 62
2, 40138, Note_on_c, 0, 84, 30
2, 40145, Note_on_c, 0, 84, 0
2, 40147, Note_on_c, 0, 86, 0
2, 40149, Note_on_c, 0, 79, 54
2, 40150, Note_on_c, 0, 83, 0
2, 40159, Note_on_c, 0, 79, 0
2, 40161, Note_on_c, 0, 74, 62
2, 40170, Note_on_c, 0, 74, 0
2, 40171, Note_on_c, 0, 50, 0
2, 40180, Note_on_c, 0, 79, 32
2, 40180, Note_on_c, 0, 72, 44
2, 40187, Note_on_c, 0, 79, 0
2, 40191, Note_on_c, 0, 72, 0
2, 40192, Control_c, 0, 64, 127
2, 40200, Note_on_c, 0, 67, 29
2, 40205, Note_on_c, 0, 67, 0
2, 40207, Note_on_c, 0, 43, 32
2, 40208, Note_on_c, 0, 53, 45
2, 40211, Control_c, 0, 64, 0
2, 40212, Note_on_c, 0, 76, 38
2, 40239, Note_on_c, 0, 76, 0
2, 40252, Note_on_c, 0, 74, 74
2, 40253, Note_on_c, 0, 77, 69
2, 40259, Note_on_c, 0, 43, 0
2, 40270, Note_on_c, 0, 74, 0
2, 40272, Note_on_c, 0, 77, 0
2, 40274, Note_on_c, 0, 53, 0
2, 40279, Note_on_c, 0, 76, 58
2, 40291, Note_on_c, 0, 72, 33
2, 40294, Note_on_c, 0, 76, 0
2, 40295, Control_c, 0, 64, 127
2, 40307, Note_on_c, 0, 72, 0
2, 40311, Note_on_c, 0, 67, 35
2, 40321, Note_on_c, 0, 67, 0
2, 40328, Note_on_c, 0, 70, 64
2, 40328, Note_on_c, 0, 74, 58
2, 40329, Note_on_c, 0, 58, 39
2, 40331, Note_on_c, 0, 48, 33
2, 40332, Control_c, 0, 64, 0
2, 40346, Note_on_c, 0, 70, 0
2, 40356, Note_on_c, 0, 67, 57
2, 40363, Note_on_c, 0, 74, 0
2, 40373, Note_on_c, 0, 67, 0
2, 40373, Note_on_c, 0, 58, 0
2, 40385, Note_on_c, 0, 62, 24
2, 40392, Note_on_c, 0, 62, 0
2, 40397, Note_on_c, 0, 48, 0
2, 40407, Note_on_c, 0, 62, 34
2, 40417, Control_c, 0, 64, 127
2, 40426, Note_on_c, 0, 62, 0
2, 40441, Note_on_c, 0, 60, 64
2, 40444, Control_c, 0, 64, 0
2, 40445, Note_on_c, 0, 52, 34
2, 40453, Note_on_c, 0, 60, 0
2, 40474, Note_on_c, 0, 52, 0
2, 40484, Note_on_c, 0, 48, 48
2, 40493, Control_c, 0, 64, 127
2, 40507, Control_c, 0, 64, 0
2, 40520, Note_on_c, 0, 58, 56
2, 40523, Note_on_c, 0, 42, 38
2, 40525, Control_c, 0, 64, 127
2, 40550, Note_on_c, 0, 42, 0
2, 40553, Note_on_c, 0, 58, 0
2, 40553, Note_on_c, 0, 48, 0
2, 40559, Note_on_c, 0, 51, 35
2, 40561, Note_on_c, 0, 41, 49
2, 40563, Control_c, 0, 64, 0
2, 40563, Note_on_c, 0, 57, 48
2, 40565, Note_on_c, 0, 53, 26
2, 40581, Note_on_c, 0, 53, 0
2, 40584, Note_on_c, 0, 41, 0
2, 40585, Control_c, 0, 64, 127
2, 40599, Note_on_c, 0, 43, 38
2, 40603, Note_on_c, 0, 58, 37
2, 40610, Note_on_c, 0, 57, 0
2, 40616, Control_c, 0, 64, 0
2, 40634, Note_on_c, 0, 58, 0
2, 40636, Note_on_c, 0, 43, 0
2, 40639, Note_on_c, 0, 44, 46
2, 40640, Control_c, 0, 64, 127
2, 40644, Note_on_c, 0, 59, 35
2, 40674, Note_on_c, 0, 44, 0
2, 40676, Control_c, 0, 64, 0
2, 40677, Note_on_c, 0, 59, 0
2, 40682, Note_on_c, 0, 53, 29
2, 40686, Note_on_c, 0, 51, 0
2, 40688, Note_on_c, 0, 45, 33
2, 40689, Note_on_c, 0, 60, 36
2, 40690, Note_on_c, 0, 53, 0
2, 40693, Control_c, 0, 64, 127
2, 40698, Note_on_c, 0, 45, 0
2, 40699, Note_on_c, 0, 60, 0
2, 40754, Control_c, 0, 64, 0
2, 40758, Note_on_c, 0, 66, 62
2, 40760, Note_on_c, 0, 72, 60
2, 40761, Note_on_c, 0, 62, 57
2, 40763, Note_on_c, 0, 57, 50
2, 40770, Note_on_c, 0, 66, 0
2, 40770, Control_c, 0, 64, 127
2, 40775, Note_on_c, 0, 67, 24
2, 40781, Note_on_c, 0, 67, 0
2, 40785, Note_on_c, 0, 72, 0
2, 40787, Note_on_c, 0, 57, 0
2, 40789, Note_on_c, 0, 62, 0
2, 40805, Note_on_c, 0, 60, 48
2, 40806, Note_on_c, 0, 70, 47
2, 40806, Control_c, 0, 64, 0
2, 40807, Note_on_c, 0, 65, 48
2, 40809, Note_on_c, 0, 55, 39
2, 40828, Control_c, 0, 64, 127
2, 40880, Note_on_c, 0, 60, 0
2, 40887, Note_on_c, 0, 70, 0
2, 40887, Note_on_c, 0, 65, 0
2, 40911, Note_on_c, 0, 55, 0
2, 40919, Note_on_c, 0, 59, 44
2, 40920, Control_c, 0, 64, 0
2, 40921, Note_on_c, 0, 64, 30
2, 40921, Note_on_c, 0, 54, 25
2, 40922, Note_on_c, 0, 69, 47
2, 40953, Control_c, 0, 64, 127
2, 40967, Note_on_c, 0, 59, 0
2, 40986, Note_on_c, 0, 64, 0
2, 40991, Note_on_c, 0, 69, 0
2, 41032, Control_c, 0, 64, 0
2, 41037, Note_on_c, 0, 70, 40
2, 41038, Note_on_c, 0, 54, 0
2, 41038, Note_on_c, 0, 65, 34
2, 41040, Note_on_c, 0, 55, 45
2, 41044, Note_on_c, 0, 65, 0
2, 41050, Note_on_c, 0, 70, 0
2, 41052, Control_c, 0, 64, 127
2, 41109, Note_on_c, 0, 55, 0
2, 41118, Note_on_c, 0, 86, 83
2, 41118, Note_on_c, 0, 74, 81
2, 41130, Note_on_c, 0, 74, 0
2, 41135, Note_on_c, 0, 86, 0
2, 41153, Control_c, 0, 64, 0
2, 41158, Note_on_c, 0, 86, 71
2, 41159, Note_on_c, 0, 55, 35
2, 41160, Note_on_c, 0, 74, 50
2, 41169, Control_c, 0, 64, 127
2, 41171, Note_on_c, 0, 74, 0
2, 41171, Note_on_c, 0, 86, 0
2, 41177, Note_on_c, 0, 55, 0
2, 41195, Note_on_c, 0, 86, 61
2, 41196, Note_on_c, 0, 74, 46
2, 41207, Note_on_c, 0, 86, 0
2, 41209, Note_on_c, 0, 74, 0
2, 41234, Note_on_c, 0, 44, 19
2, 41235, Note_on_c, 0, 85, 57
2, 41235, Note_on_c, 0, 73, 52
2, 41239, Note_on_c, 0, 44, 0
2, 41254, Note_on_c, 0, 85, 0
2, 41261, Note_on_c, 0, 73, 0
2, 41273, Control_c, 0, 64, 0
2, 41275, Note_on_c, 0, 38, 45
2, 41276, Note_on_c, 0, 50, 40
2, 41278, Note_on_c, 0, 86, 55
2, 41291, Note_on_c, 0, 86, 0
2, 41300, Note_on_c, 0, 38, 0
2, 41307, Control_c, 0, 64, 127
2, 41311, Note_on_c, 0, 50, 0
2, 41319, Control_c, 0, 64, 0
2, 41334, Note_on_c, 0, 87, 61
2, 41349, Note_on_c, 0, 86, 64
2, 41356, Note_on_c, 0, 87, 0
2, 41367, Note_on_c, 0, 85, 35
2, 41368, Note_on_c, 0, 86, 0
2, 41371, Control_c, 0, 64, 127
2, 41380, Note_on_c, 0, 85, 0
2, 41381, Note_on_c, 0, 84, 50
2, 41385, Note_on_c, 0, 84, 0
2, 41401, Note_on_c, 0, 54, 34
2, 41403, Note_on_c, 0, 60, 40
2, 41404, Note_on_c, 0, 64, 18
2, 41405, Control_c, 0, 64, 0
2, 41407, Note_on_c, 0, 82, 62
2, 41413, Note_on_c, 0, 64, 0
2, 41424, Note_on_c, 0, 82, 0
2, 41426, Note_on_c, 0, 60, 0
2, 41431, Note_on_c, 0, 78, 54
2, 41436, Note_on_c, 0, 54, 0
2, 41453, Note_on_c, 0, 78, 0
2, 41457, Note_on_c, 0, 76, 46
2, 41473, Control_c, 0, 64, 127
2, 41478, Note_on_c, 0, 76, 0
2, 41487, Note_on_c, 0, 73, 67
2, 41512, Note_on_c, 0, 73, 0
2, 41519, Note_on_c, 0, 61, 37
2, 41519, Note_on_c, 0, 65, 27
2, 41520, Control_c, 0, 64, 0
2, 41520, Note_on_c, 0, 55, 33
2, 41522, Note_on_c, 0, 72, 36
2, 41550, Note_on_c, 0, 72, 0
2, 41553, Note_on_c, 0, 73, 57
2, 41560, Control_c, 0, 64, 127
2, 41562, Note_on_c, 0, 73, 0
2, 41579, Note_on_c, 0, 77, 56
2, 41598, Note_on_c, 0, 77, 0
2, 41598, Note_on_c, 0, 65, 0
2, 41599, Note_on_c, 0, 55, 0
2, 41605, Note_on_c, 0, 61, 0
2, 41606, Note_on_c, 0, 82, 60
2, 41621, Note_on_c, 0, 82, 0
2, 41633, Control_c, 0, 64, 0
2, 41634, Note_on_c, 0, 86, 62
2, 41637, Note_on_c, 0, 61, 35
2, 41637, Note_on_c, 0, 65, 35
2, 41637, Note_on_c, 0, 55, 39
2, 41648, Note_on_c, 0, 65, 0
2, 41653, Note_on_c, 0, 86, 0
2, 41654, Control_c, 0, 64, 127
2, 41663, Note_on_c, 0, 61, 0
2, 41663, Note_on_c, 0, 89, 63
2, 41664, Note_on_c, 0, 55, 0
2, 41684, Note_on_c, 0, 89, 0
2, 41693, Note_on_c, 0, 94, 65
2, 41700, Note_on_c, 0, 46, 20
2, 41713, Note_on_c, 0, 94, 0
2, 41718, Note_on_c, 0, 46, 0
2, 41723, Note_on_c, 0, 45, 41
2, 41725, Note_on_c, 0, 96, 72
2, 41735, Note_on_c, 0, 96, 0
2, 41739, Note_on_c, 0, 45, 0
2, 41755, Control_c, 0, 64, 0
2, 41756, Note_on_c, 0, 97, 69
2, 41757, Note_on_c, 0, 50, 33
2, 41757, Note_on_c, 0, 85, 46
2, 41759, Note_on_c, 0, 38, 36
2, 41764, Note_on_c, 0, 50, 0
2, 41778, Note_on_c, 0, 97, 0
2, 41778, Note_on_c, 0, 38, 0
2, 41779, Note_on_c, 0, 85, 0
2, 41781, Control_c, 0, 64, 127
2, 41789, Note_on_c, 0, 98, 60
2, 41789, Note_on_c, 0, 94, 31
2, 41789, Note_on_c, 0, 86, 41
2, 41793, Note_on_c, 0, 91, 26
2, 41795, Note_on_c, 0, 96, 29
2, 41799, Note_on_c, 0, 91, 0
2, 41800, Note_on_c, 0, 86, 0
2, 41800, Note_on_c, 0, 96, 0
2, 41803, Note_on_c, 0, 98, 0
2, 41804, Note_on_c, 0, 94, 0
2, 41816, Note_on_c, 0, 98, 56
2, 41818, Note_on_c, 0, 86, 38
2, 41819, Note_on_c, 0, 91, 35
2, 41828, Note_on_c, 0, 91, 0
2, 41829, Note_on_c, 0, 86, 0
2, 41831, Note_on_c, 0, 98, 0
2, 41848, Note_on_c, 0, 86, 55
2, 41848, Note_on_c, 0, 98, 68
2, 41849, Note_on_c, 0, 91, 45
2, 41849, Note_on_c, 0, 94, 48
2, 41857, Note_on_c, 0, 86, 0
2, 41858, Note_on_c, 0, 98, 0
2, 41867, Note_on_c, 0, 94, 0
2, 41868, Note_on_c, 0, 91, 0
2, 41877, Note_on_c, 0, 97, 53
2, 41878, Note_on_c, 0, 85, 36
2, 41878, Note_on_c, 0, 54, 33
2, 41878, Note_on_c, 0, 64, 31
2, 41879, Note_on_c, 0, 94, 30
2, 41879, Note_on_c, 0, 60, 45
2, 41879, Control_c, 0, 64, 0
2, 41880, Note_on_c, 0, 91, 29
2, 41894, Note_on_c, 0, 91, 0
2, 41896, Note_on_c, 0, 97, 0
2, 41896, Note_on_c, 0, 85, 0
2, 41897, Note_on_c, 0, 94, 0
2, 41910, Control_c, 0, 64, 127
2, 41912, Note_on_c, 0, 98, 59
2, 41913, Note_on_c, 0, 86, 39
2, 41914, Note_on_c, 0, 94, 25
2, 41916, Note_on_c, 0, 91, 31
2, 41919, Note_on_c, 0, 96, 22
2, 41920, Note_on_c, 0, 60, 0
2, 41923, Note_on_c, 0, 96, 0
2, 41923, Note_on_c, 0, 86, 0
2, 41923, Note_on_c, 0, 91, 0
2, 41924, Note_on_c, 0, 94, 0
2, 41924, Note_on_c, 0, 54, 0
2, 41925, Note_on_c, 0, 98, 0
2, 41930, Note_on_c, 0, 64, 0
2, 41941, Note_on_c, 0, 98, 69
2, 41941, Note_on_c, 0, 94, 42
2, 41942, Note_on_c, 0, 86, 53
2, 41943, Note_on_c, 0, 91, 44
2, 41953, Note_on_c, 0, 86, 0
2, 41957, Note_on_c, 0, 91, 0
2, 41959, Note_on_c, 0, 94, 0
2, 41959, Note_on_c, 0, 98, 0
2, 41972, Note_on_c, 0, 98, 68
2, 41973, Note_on_c, 0, 86, 57
2, 41974, Note_on_c, 0, 94, 44
2, 41975, Note_on_c, 0, 91, 47
2, 41982, Note_on_c, 0, 86, 0
2, 41985, Note_on_c, 0, 98, 0
2, 41991, Note_on_c, 0, 94, 0
2, 41992, Note_on_c, 0, 91, 0
2, 42001, Note_on_c, 0, 97, 62
2, 42002, Control_c, 0, 64, 0
2, 42002, Note_on_c, 0, 61, 44
2, 42003, Note_on_c, 0, 55, 38
2, 42004, Note_on_c, 0, 85, 40
2, 42004, Note_on_c, 0, 91, 35
2, 42005, Note_on_c, 0, 65, 27
2, 42007, Note_on_c, 0, 94, 15
2, 42018, Note_on_c, 0, 94, 0
2, 42018, Note_on_c, 0, 91, 0
2, 42020, Note_on_c, 0, 85, 0
2, 42021, Note_on_c, 0, 97, 0
2, 42028, Control_c, 0, 64, 127
2, 42034, Note_on_c, 0, 98, 49
2, 42034, Note_on_c, 0, 86, 49
2, 42035, Note_on_c, 0, 94, 29
2, 42039, Note_on_c, 0, 91, 20
2, 42041, Note_on_c, 0, 86, 0
2, 42044, Note_on_c, 0, 94, 0
2, 42044, Note_on_c, 0, 91, 0
2, 42045, Note_on_c, 0, 98, 0
2, 42059, Note_on_c, 0, 98, 53
2, 42061, Note_on_c, 0, 86, 44
2, 42063, Note_on_c, 0, 94, 27
2, 42065, Note_on_c, 0, 91, 27
2, 42066, Note_on_c, 0, 65, 0
2, 42071, Note_on_c, 0, 86, 0
2, 42071, Note_on_c, 0, 91, 0
2, 42072, Note_on_c, 0, 55, 0
2, 42074, Note_on_c, 0, 98, 0
2, 42074, Note_on_c, 0, 94, 0
2, 42085, Note_on_c, 0, 61, 0
2, 42090, Note_on_c, 0, 98, 67
2, 42091, Note_on_c, 0, 86, 41
2, 42092, Note_on_c, 0, 94, 42
2, 42095, Note_on_c, 0, 91, 35
2, 42105, Note_on_c, 0, 98, 0
2, 42106, Note_on_c, 0, 86, 0
2, 42108, Note_on_c, 0, 91, 0
2, 42111, Note_on_c, 0, 94, 0
2, 42122, Note_on_c, 0, 96, 71
2, 42123, Note_on_c, 0, 91, 38
2, 42123, Note_on_c, 0, 84, 57
2, 42123, Control_c, 0, 64, 0
2, 42123, Note_on_c, 0, 64, 32
2, 42124, Note_on_c, 0, 60, 46
2, 42127, Note_on_c, 0, 54, 25
2, 42135, Note_on_c, 0, 84, 0
2, 42138, Note_on_c, 0, 96, 0
2, 42140, Control_c, 0, 64, 127
2, 42141, Note_on_c, 0, 64, 0
2, 42143, Note_on_c, 0, 91, 0
2, 42147, Note_on_c, 0, 60, 0
2, 42155, Note_on_c, 0, 96, 65
2, 42155, Note_on_c, 0, 91, 39
2, 42158, Note_on_c, 0, 84, 30
2, 42159, Note_on_c, 0, 54, 0
2, 42162, Note_on_c, 0, 96, 0
2, 42163, Note_on_c, 0, 84, 0
2, 42170, Note_on_c, 0, 91, 0
2, 42184, Note_on_c, 0, 94, 64
2, 42186, Note_on_c, 0, 82, 36
2, 42193, Note_on_c, 0, 82, 0
2, 42197, Note_on_c, 0, 94, 0
2, 42214, Note_on_c, 0, 94, 67
2, 42214, Note_on_c, 0, 82, 58
2, 42219, Note_on_c, 0, 50, 32
2, 42231, Note_on_c, 0, 94, 0
2, 42233, Note_on_c, 0, 82, 0
2, 42243, Control_c, 0, 64, 0
2, 42245, Note_on_c, 0, 43, 35
2, 42246, Note_on_c, 0, 93, 62
2, 42246, Note_on_c, 0, 55, 32
2, 42246, Note_on_c, 0, 81, 36
2, 42250, Note_on_c, 0, 50, 0
2, 42272, Note_on_c, 0, 43, 0
2, 42272, Control_c, 0, 64, 127
2, 42283, Note_on_c, 0, 55, 0
2, 42284, Note_on_c, 0, 81, 0
2, 42288, Note_on_c, 0, 93, 0
2, 42290, Note_on_c, 0, 86, 49
2, 42306, Note_on_c, 0, 86, 0
2, 42364, Note_on_c, 0, 62, 35
2, 42365, Note_on_c, 0, 55, 35
2, 42366, Note_on_c, 0, 58, 39
2, 42367, Note_on_c, 0, 53, 27
2, 42375, Note_on_c, 0, 53, 0
2, 42378, Note_on_c, 0, 62, 0
2, 42386, Note_on_c, 0, 58, 0
2, 42386, Note_on_c, 0, 55, 0
2, 42447, Note_on_c, 0, 52, 42
2, 42473, Note_on_c, 0, 52, 0
2, 42487, Note_on_c, 0, 55, 45
2, 42489, Note_on_c, 0, 61, 53
2, 42489, Note_on_c, 0, 45, 33
2, 42493, Control_c, 0, 64, 0
2, 42527, Control_c, 0, 64, 127
2, 42528, Note_on_c, 0, 55, 0
2, 42567, Note_on_c, 0, 61, 0
2, 42611, Note_on_c, 0, 55, 36
2, 42613, Note_on_c, 0, 57, 36
2, 42613, Note_on_c, 0, 61, 33
2, 42620, Note_on_c, 0, 55, 0
2, 42638, Note_on_c, 0, 45, 0
2, 42648, Note_on_c, 0, 57, 0
2, 42660, Note_on_c, 0, 61, 0
2, 42696, Note_on_c, 0, 45, 25
2, 42720, Note_on_c, 0, 45, 0
2, 42734, Note_on_c, 0, 38, 36
2, 42735, Note_on_c, 0, 60, 34
2, 42736, Note_on_c, 0, 64, 32
2, 42737, Note_on_c, 0, 66, 32
2, 42737, Control_c, 0, 64, 0
2, 42739, Note_on_c, 0, 69, 31
2, 42751, Note_on_c, 0, 38, 0
2, 42775, Control_c, 0, 64, 127
2, 42781, Note_on_c, 0, 69, 0
2, 42785, Note_on_c, 0, 66, 0
2, 42785, Note_on_c, 0, 64, 0
2, 42794, Note_on_c, 0, 60, 0
2, 42815, Note_on_c, 0, 26, 36
2, 42821, Note_on_c, 0, 26, 0
2, 42853, Note_on_c, 0, 66, 65
2, 42853, Note_on_c, 0, 56, 62
2, 42855, Note_on_c, 0, 61, 59
2, 42857, Control_c, 0, 64, 0
2, 42863, Note_on_c, 0, 39, 27
2, 42869, Note_on_c, 0, 51, 20
2, 42880, Control_c, 0, 64, 127
2, 42893, Note_on_c, 0, 51, 0
2, 42907, Note_on_c, 0, 66, 0
2, 42908, Note_on_c, 0, 56, 0
2, 42915, Note_on_c, 0, 39, 0
2, 42919, Note_on_c, 0, 61, 0
2, 42929, Note_on_c, 0, 50, 30
2, 42929, Note_on_c, 0, 54, 55
2, 42930, Note_on_c, 0, 60, 68
2, 42930, Note_on_c, 0, 65, 54
2, 42930, Note_on_c, 0, 38, 40
2, 42944, Control_c, 0, 64, 0
2, 42961, Control_c, 0, 64, 127
2, 42965, Note_on_c, 0, 54, 0
2, 42969, Note_on_c, 0, 38, 0
2, 42971, Note_on_c, 0, 65, 0
2, 42973, Note_on_c, 0, 60, 0
2, 42978, Note_on_c, 0, 50, 0
2, 43033, Note_on_c, 0, 74, 87
2, 43037, Note_on_c, 0, 50, 47
2, 43055, Note_on_c, 0, 50, 0
2, 43055, Note_on_c, 0, 74, 0
2, 43064, Note_on_c, 0, 74, 78
2, 43064, Note_on_c, 0, 50, 70
2, 43090, Note_on_c, 0, 74, 0
2, 43094, Note_on_c, 0, 50, 0
2, 43099, Control_c, 0, 64, 0
2, 43100, Note_on_c, 0, 76, 90
2, 43101, Note_on_c, 0, 52, 72
2, 43103, Control_c, 0, 64, 127
2, 43125, Note_on_c, 0, 52, 0
2, 43125, Note_on_c, 0, 76, 0
2, 43133, Note_on_c, 0, 52, 41
2, 43135, Note_on_c, 0, 76, 62
2, 43157, Note_on_c, 0, 76, 0
2, 43160, Note_on_c, 0, 52, 0
2, 43168, Note_on_c, 0, 54, 65
2, 43170, Note_on_c, 0, 78, 60
2, 43188, Note_on_c, 0, 54, 0
2, 43193, Note_on_c, 0, 78, 0
2, 43206, Note_on_c, 0, 55, 68
2, 43206, Control_c, 0, 64, 0
2, 43207, Note_on_c, 0, 79, 60
2, 43207, Note_on_c, 0, 43, 55
2, 43210, Note_on_c, 0, 69, 54
2, 43220, Note_on_c, 0, 55, 0
2, 43222, Note_on_c, 0, 43, 0
2, 43226, Control_c, 0, 64, 127
2, 43252, Note_on_c, 0, 69, 0
2, 43263, Note_on_c, 0, 79, 0
2, 43280, Note_on_c, 0, 81, 58
2, 43281, Note_on_c, 0, 69, 55
2, 43292, Note_on_c, 0, 69, 0
2, 43292, Note_on_c, 0, 81, 0
2, 43318, Control_c, 0, 64, 0
2, 43320, Note_on_c, 0, 82, 57
2, 43320, Note_on_c, 0, 70, 56
2, 43322, Note_on_c, 0, 62, 28
2, 43323, Note_on_c, 0, 58, 32
2, 43324, Note_on_c, 0, 53, 25
2, 43324, Note_on_c, 0, 55, 27
2, 43331, Control_c, 0, 64, 127
2, 43333, Note_on_c, 0, 70, 0
2, 43335, Note_on_c, 0, 82, 0
2, 43361, Note_on_c, 0, 86, 28
2, 43361, Note_on_c, 0, 72, 24
2, 43362, Note_on_c, 0, 74, 20
2, 43363, Note_on_c, 0, 84, 25
2, 43374, Note_on_c, 0, 74, 0
2, 43374, Note_on_c, 0, 72, 0
2, 43379, Note_on_c, 0, 84, 0
2, 43383, Note_on_c, 0, 86, 0
2, 43385, Note_on_c, 0, 53, 0
2, 43385, Note_on_c, 0, 55, 0
2, 43401, Note_on_c, 0, 58, 0
2, 43402, Note_on_c, 0, 62, 0
2, 43440, Note_on_c, 0, 55, 67
2, 43441, Note_on_c, 0, 83, 75
2, 43441, Note_on_c, 0, 88, 76
2, 43441, Note_on_c, 0, 76, 68
2, 43441, Note_on_c, 0, 61, 62
2, 43441, Note_on_c, 0, 66, 65
2, 43442, Control_c, 0, 64, 0
2, 43464, Control_c, 0, 64, 127
2, 43495, Note_on_c, 0, 76, 0
2, 43499, Note_on_c, 0, 88, 0
2, 43504, Note_on_c, 0, 83, 0
2, 43519, Note_on_c, 0, 89, 74
2, 43521, Note_on_c, 0, 55, 0
2, 43521, Note_on_c, 0, 77, 54
2, 43523, Note_on_c, 0, 83, 42
2, 43529, Note_on_c, 0, 83, 0
2, 43538, Note_on_c, 0, 61, 0
2, 43540, Note_on_c, 0, 77, 0
2, 43541, Note_on_c, 0, 66, 0
2, 43545, Note_on_c, 0, 89, 0
2, 43563, Note_on_c, 0, 67, 46
2, 43564, Note_on_c, 0, 62, 47
2, 43565, Note_on_c, 0, 79, 58
2, 43566, Note_on_c, 0, 56, 32
2, 43566, Note_on_c, 0, 91, 51
2, 43567, Control_c, 0, 64, 0
2, 43585, Control_c, 0, 64, 127
2, 43595, Note_on_c, 0, 67, 0
2, 43599, Note_on_c, 0, 79, 0
2, 43600, Note_on_c, 0, 91, 0
2, 43600, Note_on_c, 0, 62, 0
2, 43610, Note_on_c, 0, 56, 0
2, 43639, Note_on_c, 0, 55, 50
2, 43640, Note_on_c, 0, 93, 55
2, 43641, Note_on_c, 0, 81, 40
2, 43641, Note_on_c, 0, 65, 31
2, 43641, Note_on_c, 0, 61, 40
2, 43647, Note_on_c, 0, 81, 0
2, 43654, Note_on_c, 0, 93, 0
2, 43655, Note_on_c, 0, 65, 0
2, 43659, Note_on_c, 0, 55, 0
2, 43673, Note_on_c, 0, 61, 0
2, 43684, Note_on_c, 0, 86, 48
2, 43685, Note_on_c, 0, 98, 37
2, 43686, Note_on_c, 0, 64, 40
2, 43686, Note_on_c, 0, 60, 53
2, 43688, Control_c, 0, 64, 0
2, 43689, Note_on_c, 0, 54, 25
2, 43705, Note_on_c, 0, 60, 0
2, 43705, Note_on_c, 0, 64, 0
2, 43705, Control_c, 0, 64, 127
2, 43708, Note_on_c, 0, 98, 0
2, 43714, Note_on_c, 0, 54, 0
2, 43717, Note_on_c, 0, 86, 0
2, 43761, Note_on_c, 0, 38, 43
2, 43771, Note_on_c, 0, 38, 0
2, 43798, Note_on_c, 0, 50, 47
2, 43799, Note_on_c, 0, 54, 32
2, 43799, Note_on_c, 0, 62, 32
2, 43800, Note_on_c, 0, 56, 37
2, 43800, Note_on_c, 0, 60, 45
2, 43813, Note_on_c, 0, 49, 50
2, 43813, Control_c, 0, 64, 0
2, 43814, Note_on_c, 0, 50, 0
2, 43830, Note_on_c, 0, 49, 0
2, 43835, Note_on_c, 0, 48, 37
2, 43843, Note_on_c, 0, 48, 0
2, 43845, Note_on_c, 0, 47, 48
2, 43862, Note_on_c, 0, 47, 0
2, 43866, Note_on_c, 0, 46, 29
2, 43871, Note_on_c, 0, 46, 0
2, 43873, Note_on_c, 0, 45, 36
2, 43884, Control_c, 0, 64, 127
2, 43889, Note_on_c, 0, 45, 0
2, 43890, Note_on_c, 0, 60, 0
2, 43896, Note_on_c, 0, 44, 35
2, 43899, Note_on_c, 0, 54, 0
2, 43906, Note_on_c, 0, 44, 0
2, 43908, Note_on_c, 0, 53, 49
2, 43909, Control_c, 0, 64, 0
2, 43909, Note_on_c, 0, 59, 55
2, 43915, Note_on_c, 0, 43, 35
2, 43942, Note_on_c, 0, 31, 60
2, 43944, Note_on_c, 0, 53, 0
2, 43945, Control_c, 0, 64, 127
2, 43952, Note_on_c, 0, 56, 0
2, 43953, Note_on_c, 0, 59, 0
2, 43955, Note_on_c, 0, 31, 0
2, 43958, Note_on_c, 0, 62, 0
2, 43962, Note_on_c, 0, 43, 0
2, 43986, Note_on_c, 0, 43, 72
2, 44028, Note_on_c, 0, 59, 68
2, 44028, Note_on_c, 0, 65, 61
2, 44028, Note_on_c, 0, 56, 57
2, 44029, Note_on_c, 0, 62, 57
2, 44029, Note_on_c, 0, 53, 71
2, 44032, Control_c, 0, 64, 0
2, 44047, Control_c, 0, 64, 127
2, 44059, Note_on_c, 0, 65, 0
2, 44060, Note_on_c, 0, 59, 0
2, 44061, Note_on_c, 0, 56, 0
2, 44061, Note_on_c, 0, 62, 0
2, 44068, Note_on_c, 0, 50, 53
2, 44069, Note_on_c, 0, 53, 0
2, 44087, Note_on_c, 0, 43, 0
2, 44097, Note_on_c, 0, 50, 0
2, 44104, Control_c, 0, 64, 0
2, 44107, Note_on_c, 0, 68, 64
2, 44107, Note_on_c, 0, 62, 57
2, 44108, Note_on_c, 0, 59, 55
2, 44110, Note_on_c, 0, 47, 54
2, 44110, Note_on_c, 0, 65, 46
2, 44114, Control_c, 0, 64, 127
2, 44124, Note_on_c, 0, 59, 0
2, 44130, Note_on_c, 0, 65, 0
2, 44131, Note_on_c, 0, 62, 0
2, 44136, Note_on_c, 0, 68, 0
2, 44148, Note_on_c, 0, 47, 0
2, 44149, Note_on_c, 0, 62, 36
2, 44150, Control_c, 0, 64, 0
2, 44150, Note_on_c, 0, 58, 45
2, 44156, Note_on_c, 0, 48, 48
2, 44169, Note_on_c, 0, 58, 0
2, 44175, Note_on_c, 0, 62, 0
2, 44180, Control_c, 0, 64, 127
2, 44184, Note_on_c, 0, 48, 0
2, 44188, Note_on_c, 0, 36, 53
2, 44193, Note_on_c, 0, 36, 0
2, 44230, Note_on_c, 0, 66, 72
2, 44230, Note_on_c, 0, 74, 74
2, 44231, Note_on_c, 0, 69, 72
2, 44232, Note_on_c, 0, 62, 71
2, 44234, Note_on_c, 0, 58, 71
2, 44237, Note_on_c, 0, 72, 32
2, 44243, Note_on_c, 0, 72, 0
2, 44294, Note_on_c, 0, 58, 0
2, 44331, Note_on_c, 0, 62, 0
2, 44339, Note_on_c, 0, 66, 0
2, 44341, Note_on_c, 0, 69, 0
2, 44349, Note_on_c, 0, 74, 0
2, 44403, Note_on_c, 0, 69, 53
2, 44404, Note_on_c, 0, 75, 39
2, 44405, Note_on_c, 0, 51, 30
2, 44406, Control_c, 0, 64, 0
2, 44407, Note_on_c, 0, 77, 41
2, 44407, Note_on_c, 0, 41, 35
2, 44425, Note_on_c, 0, 77, 0
2, 44429, Note_on_c, 0, 51, 0
2, 44429, Note_on_c, 0, 41, 0
2, 44429, Note_on_c, 0, 75, 0
2, 44430, Note_on_c, 0, 69, 0
2, 44492, Control_c, 0, 64, 127
2, 44525, Control_c, 0, 64, 0
2, 44525, Note_on_c, 0, 65, 35
2, 44527, Note_on_c, 0, 57, 32
2, 44528, Note_on_c, 0, 61, 32
2, 44529, Note_on_c, 0, 41, 29
2, 44530, Note_on_c, 0, 51, 18
2, 44556, Note_on_c, 0, 41, 0
2, 44556, Note_on_c, 0, 57, 0
2, 44560, Note_on_c, 0, 61, 0
2, 44563, Note_on_c, 0, 51, 0
2, 44565, Note_on_c, 0, 65, 0
2, 44614, Control_c, 0, 64, 127
2, 44641, Control_c, 0, 64, 0
2, 44645, Note_on_c, 0, 70, 34
2, 44646, Note_on_c, 0, 65, 36
2, 44649, Note_on_c, 0, 60, 31
2, 44649, Note_on_c, 0, 55, 26
2, 44657, Control_c, 0, 64, 127
2, 44693, Note_on_c, 0, 60, 0
2, 44696, Note_on_c, 0, 70, 0
2, 44697, Note_on_c, 0, 65, 0
2, 44697, Note_on_c, 0, 55, 0
2, 44722, Note_on_c, 0, 70, 40
2, 44725, Note_on_c, 0, 55, 26
2, 44725, Note_on_c, 0, 60, 32
2, 44726, Note_on_c, 0, 65, 44
2, 44743, Note_on_c, 0, 65, 0
2, 44744, Note_on_c, 0, 70, 0
2, 44747, Note_on_c, 0, 60, 0
2, 44757, Note_on_c, 0, 55, 0
2, 44766, Control_c, 0, 64, 0
2, 44767, Note_on_c, 0, 59, 27
2, 44767, Note_on_c, 0, 69, 34
2, 44767, Note_on_c, 0, 54, 27
2, 44770, Note_on_c, 0, 64, 28
2, 44797, Control_c, 0, 64, 127
2, 44800, Note_on_c, 0, 69, 0
2, 44800, Note_on_c, 0, 59, 0
2, 44806, Note_on_c, 0, 64, 0
2, 44813, Control_c, 0, 64, 127
2, 44825, Control_c, 0, 64, 0
2, 44842, Note_on_c, 0, 70, 56
2, 44844, Note_on_c, 0, 60, 46
2, 44845, Note_on_c, 0, 65, 48
2, 44845, Note_on_c, 0, 55, 49
2, 44849, Note_on_c, 0, 65, 0
2, 44850, Note_on_c, 0, 60, 0
2, 44850, Note_on_c, 0, 55, 0
2, 44852, Note_on_c, 0, 70, 0
2, 44853, Note_on_c, 0, 54, 0
2, 44861, Control_c, 0, 64, 0
2, 44902, Control_c, 0, 64, 127
2, 44907, Control_c, 0, 64, 127
2, 44952, Control_c, 0, 64, 0
2, 44958, Note_on_c, 0, 65, 36
2, 44960, Note_on_c, 0, 54, 21
2, 44960, Note_on_c, 0, 38, 32
2, 44960, Note_on_c, 0, 26, 36
2, 44961, Note_on_c, 0, 60, 44
2, 45066, Note_on_c, 0, 54, 0
2, 45068, Note_on_c, 0, 65, 0
2, 45068, Note_on_c, 0, 60, 0
2, 45075, Note_on_c, 0, 26, 0
2, 45076, Note_on_c, 0, 38, 0
2, 45085, Note_on_c, 0, 84, 101
2, 45107, Control_c, 0, 64, 0
2, 45115, Note_on_c, 0, 84, 0
2, 45127, Note_on_c, 0, 43, 40
2, 45128, Note_on_c, 0, 82, 68
2, 45129, Note_on_c, 0, 50, 29
2, 45139, Control_c, 0, 64, 127
2, 45146, Note_on_c, 0, 43, 0
2, 45149, Note_on_c, 0, 50, 0
2, 45188, Note_on_c, 0, 82, 0
2, 45201, Note_on_c, 0, 78, 40
2, 45228, Note_on_c, 0, 78, 0
2, 45239, Control_c, 0, 64, 0
2, 45241, Note_on_c, 0, 81, 78
2, 45241, Note_on_c, 0, 55, 45
2, 45242, Note_on_c, 0, 62, 37
2, 45242, Note_on_c, 0, 58, 47
2, 45265, Control_c, 0, 64, 127
2, 45279, Note_on_c, 0, 62, 0
2, 45289, Note_on_c, 0, 55, 0
2, 45290, Note_on_c, 0, 58, 0
2, 45292, Note_on_c, 0, 81, 0
2, 45315, Note_on_c, 0, 79, 70
2, 45330, Note_on_c, 0, 79, 0
2, 45351, Control_c, 0, 64, 0
2, 45357, Note_on_c, 0, 45, 44
2, 45357, Note_on_c, 0, 55, 48
2, 45359, Note_on_c, 0, 77, 57
2, 45367, Note_on_c, 0, 45, 0
2, 45368, Note_on_c, 0, 77, 0
2, 45368, Note_on_c, 0, 55, 0
2, 45368, Note_on_c, 0, 79, 55
2, 45388, Note_on_c, 0, 77, 58
2, 45389, Note_on_c, 0, 79, 0
2, 45411, Note_on_c, 0, 77, 0
2, 45411, Note_on_c, 0, 76, 61
2, 45423, Note_on_c, 0, 76, 0
2, 45442, Control_c, 0, 64, 127
2, 45442, Note_on_c, 0, 74, 74
2, 45457, Note_on_c, 0, 74, 0
2, 45469, Control_c, 0, 64, 0
2, 45473, Note_on_c, 0, 61, 37
2, 45474, Note_on_c, 0, 73, 61
2, 45474, Note_on_c, 0, 64, 26
2, 45477, Note_on_c, 0, 55, 27
2, 45478, Note_on_c, 0, 58, 29
2, 45497, Note_on_c, 0, 64, 0
2, 45501, Note_on_c, 0, 73, 0
2, 45503, Control_c, 0, 64, 127
2, 45507, Note_on_c, 0, 76, 58
2, 45508, Note_on_c, 0, 61, 0
2, 45514, Note_on_c, 0, 55, 0
2, 45515, Note_on_c, 0, 58, 0
2, 45521, Note_on_c, 0, 76, 0
2, 45532, Note_on_c, 0, 70, 58
2, 45561, Note_on_c, 0, 70, 0
2, 45567, Note_on_c, 0, 67, 32
2, 45575, Note_on_c, 0, 67, 0
2, 45585, Control_c, 0, 64, 0
2, 45588, Note_on_c, 0, 50, 30
2, 45588, Note_on_c, 0, 60, 24
2, 45590, Note_on_c, 0, 69, 57
2, 45616, Note_on_c, 0, 60, 0
2, 45617, Note_on_c, 0, 69, 0
2, 45622, Control_c, 0, 64, 127
2, 45627, Note_on_c, 0, 62, 46
2, 45678, Note_on_c, 0, 62, 0
2, 45696, Note_on_c, 0, 64, 48
2, 45697, Note_on_c, 0, 60, 36
2, 45698, Note_on_c, 0, 66, 38
2, 45700, Control_c, 0, 64, 0
2, 45706, Note_on_c, 0, 60, 0
2, 45714, Control_c, 0, 64, 127
2, 45722, Note_on_c, 0, 50, 0
2, 45758, Note_on_c, 0, 64, 0
2, 45758, Note_on_c, 0, 66, 0
2, 45771, Note_on_c, 0, 50, 44
2, 45810, Note_on_c, 0, 50, 0
2, 45812, Note_on_c, 0, 61, 61
2, 45813, Note_on_c, 0, 53, 42
2, 45814, Note_on_c, 0, 43, 32
2, 45815, Note_on_c, 0, 59, 51
2, 45816, Control_c, 0, 64, 0
2, 45833, Note_on_c, 0, 59, 0
2, 45847, Note_on_c, 0, 59, 25
2, 45848, Note_on_c, 0, 62, 50
2, 45865, Note_on_c, 0, 59, 0
2, 45866, Control_c, 0, 64, 127
2, 45867, Note_on_c, 0, 53, 0
2, 45870, Note_on_c, 0, 61, 0
2, 45870, Note_on_c, 0, 62, 0
2, 45883, Note_on_c, 0, 63, 61
2, 45910, Note_on_c, 0, 63, 0
2, 45923, Note_on_c, 0, 53, 40
2, 45924, Note_on_c, 0, 65, 30
2, 45924, Control_c, 0, 64, 0
2, 45925, Note_on_c, 0, 62, 34
2, 45925, Note_on_c, 0, 56, 27
2, 45926, Note_on_c, 0, 59, 40
2, 45960, Note_on_c, 0, 43, 0
2, 45962, Note_on_c, 0, 53, 0
2, 45965, Note_on_c, 0, 47, 55
2, 45991, Control_c, 0, 64, 127
2, 46006, Note_on_c, 0, 65, 0
2, 46010, Note_on_c, 0, 59, 0
2, 46012, Note_on_c, 0, 62, 0
2, 46016, Note_on_c, 0, 56, 0
2, 46034, Note_on_c, 0, 47, 0
2, 46040, Control_c, 0, 64, 0
2, 46041, Note_on_c, 0, 58, 35
2, 46042, Note_on_c, 0, 64, 32
2, 46042, Note_on_c, 0, 55, 43
2, 46043, Note_on_c, 0, 48, 36
2, 46050, Note_on_c, 0, 55, 0
2, 46060, Note_on_c, 0, 58, 0
2, 46063, Note_on_c, 0, 64, 0
2, 46067, Control_c, 0, 64, 127
2, 46103, Note_on_c, 0, 48, 0
2, 46112, Note_on_c, 0, 36, 60
2, 46116, Note_on_c, 0, 36, 0
2, 46153, Note_on_c, 0, 62, 54
2, 46154, Note_on_c, 0, 58, 50
2, 46161, Control_c, 0, 64, 0
2, 46173, Note_on_c, 0, 62, 0
2, 46174, Control_c, 0, 64, 127
2, 46179, Note_on_c, 0, 66, 51
2, 46181, Note_on_c, 0, 58, 0
2, 46185, Note_on_c, 0, 66, 0
2, 46203, Note_on_c, 0, 69, 60
2, 46215, Note_on_c, 0, 69, 0
2, 46226, Note_on_c, 0, 74, 76
2, 46247, Note_on_c, 0, 74, 0
2, 46254, Note_on_c, 0, 41, 25
2, 46254, Note_on_c, 0, 77, 71
2, 46256, Control_c, 0, 64, 0
2, 46257, Note_on_c, 0, 48, 40
2, 46267, Note_on_c, 0, 41, 0
2, 46272, Note_on_c, 0, 48, 0
2, 46280, Note_on_c, 0, 77, 0
2, 46281, Control_c, 0, 64, 127
2, 46302, Note_on_c, 0, 77, 14
2, 46367, Control_c, 0, 64, 0
2, 46368, Note_on_c, 0, 63, 34
2, 46368, Note_on_c, 0, 57, 36
2, 46370, Note_on_c, 0, 67, 24
2, 46386, Control_c, 0, 64, 127
2, 46408, Note_on_c, 0, 77, 0
2, 46433, Note_on_c, 0, 67, 0
2, 46442, Note_on_c, 0, 75, 87
2, 46456, Note_on_c, 0, 63, 0
2, 46462, Note_on_c, 0, 75, 0
2, 46470, Note_on_c, 0, 57, 0
2, 46481, Note_on_c, 0, 65, 41
2, 46482, Note_on_c, 0, 74, 73
2, 46482, Note_on_c, 0, 62, 29
2, 46485, Note_on_c, 0, 60, 56
2, 46486, Control_c, 0, 64, 0
2, 46498, Note_on_c, 0, 65, 0
2, 46508, Note_on_c, 0, 74, 0
2, 46513, Note_on_c, 0, 75, 59
2, 46531, Note_on_c, 0, 75, 0
2, 46540, Control_c, 0, 64, 127
2, 46548, Note_on_c, 0, 74, 71
2, 46573, Note_on_c, 0, 74, 0
2, 46588, Note_on_c, 0, 65, 49
2, 46590, Note_on_c, 0, 53, 33
2, 46597, Control_c, 0, 64, 0
2, 46617, Note_on_c, 0, 60, 0
2, 46618, Note_on_c, 0, 62, 0
2, 46619, Control_c, 0, 64, 127
2, 46630, Note_on_c, 0, 53, 0
2, 46694, Note_on_c, 0, 60, 55
2, 46698, Note_on_c, 0, 54, 38
2, 46699, Control_c, 0, 64, 0
2, 46700, Note_on_c, 0, 50, 25
2, 46719, Control_c, 0, 64, 127
2, 46731, Note_on_c, 0, 60, 0
2, 46733, Note_on_c, 0, 65, 0
2, 46744, Note_on_c, 0, 54, 0
2, 46747, Note_on_c, 0, 50, 0
2, 46769, Note_on_c, 0, 74, 82
2, 46770, Note_on_c, 0, 71, 82
2, 46770, Note_on_c, 0, 62, 83
2, 46785, Note_on_c, 0, 71, 0
2, 46791, Note_on_c, 0, 74, 0
2, 46793, Note_on_c, 0, 62, 0
2, 46809, Note_on_c, 0, 50, 46
2, 46809, Note_on_c, 0, 73, 62
2, 46810, Note_on_c, 0, 62, 51
2, 46812, Control_c, 0, 64, 0
2, 46812, Note_on_c, 0, 70, 45
2, 46832, Note_on_c, 0, 62, 0
2, 46834, Note_on_c, 0, 70, 0
2, 46836, Note_on_c, 0, 73, 0
2, 46836, Control_c, 0, 64, 127
2, 46844, Note_on_c, 0, 50, 0
2, 46846, Note_on_c, 0, 72, 44
2, 46850, Note_on_c, 0, 69, 30
2, 46857, Note_on_c, 0, 69, 0
2, 46860, Note_on_c, 0, 72, 0
2, 46880, Note_on_c, 0, 44, 37
2, 46882, Note_on_c, 0, 54, 26
2, 46907, Note_on_c, 0, 54, 0
2, 46913, Note_on_c, 0, 44, 0
2, 46920, Control_c, 0, 64, 0
2, 46920, Note_on_c, 0, 67, 34
2, 46921, Note_on_c, 0, 70, 45
2, 46921, Note_on_c, 0, 43, 47
2, 46926, Note_on_c, 0, 60, 22
2, 46945, Note_on_c, 0, 60, 0
2, 46946, Note_on_c, 0, 55, 1
2, 46949, Control_c, 0, 64, 127
2, 46954, Note_on_c, 0, 43, 0
2, 46970, Note_on_c, 0, 67, 0
2, 46972, Note_on_c, 0, 55, 0
2, 46997, Note_on_c, 0, 67, 44
2, 47001, Note_on_c, 0, 62, 40
2, 47032, Control_c, 0, 64, 0
2, 47033, Note_on_c, 0, 58, 48
2, 47047, Note_on_c, 0, 58, 0
2, 47060, Control_c, 0, 64, 127
2, 47067, Note_on_c, 0, 70, 0
2, 47071, Note_on_c, 0, 62, 0
2, 47098, Note_on_c, 0, 67, 0
2, 47104, Note_on_c, 0, 46, 53
2, 47105, Note_on_c, 0, 56, 40
2, 47126, Note_on_c, 0, 56, 0
2, 47134, Note_on_c, 0, 46, 0
2, 47150, Note_on_c, 0, 45, 64
2, 47150, Note_on_c, 0, 55, 64
2, 47159, Control_c, 0, 64, 0
2, 47183, Note_on_c, 0, 45, 0
2, 47188, Note_on_c, 0, 81, 90
2, 47189, Note_on_c, 0, 55, 0
2, 47189, Note_on_c, 0, 69, 90
2, 47189, Note_on_c, 0, 77, 81
2, 47190, Control_c, 0, 64, 127
2, 47193, Note_on_c, 0, 79, 38
2, 47201, Note_on_c, 0, 79, 0
2, 47205, Note_on_c, 0, 69, 0
2, 47206, Note_on_c, 0, 81, 0
2, 47211, Note_on_c, 0, 77, 0
2, 47222, Note_on_c, 0, 80, 68
2, 47224, Note_on_c, 0, 68, 67
2, 47224, Note_on_c, 0, 77, 43
2, 47244, Note_on_c, 0, 77, 0
2, 47248, Note_on_c, 0, 68, 0
2, 47248, Note_on_c, 0, 80, 0
2, 47261, Note_on_c, 0, 79, 54
2, 47262, Control_c, 0, 64, 0
2, 47263, Note_on_c, 0, 55, 34
2, 47264, Note_on_c, 0, 61, 46
2, 47264, Note_on_c, 0, 65, 20
2, 47264, Note_on_c, 0, 67, 34
2, 47265, Note_on_c, 0, 58, 33
2, 47274, Note_on_c, 0, 65, 0
2, 47280, Note_on_c, 0, 67, 0
2, 47284, Note_on_c, 0, 79, 0
2, 47285, Control_c, 0, 64, 127
2, 47298, Note_on_c, 0, 55, 0
2, 47299, Note_on_c, 0, 65, 38
2, 47301, Note_on_c, 0, 61, 0
2, 47302, Note_on_c, 0, 58, 0
2, 47306, Note_on_c, 0, 65, 0
2, 47335, Note_on_c, 0, 77, 68
2, 47336, Note_on_c, 0, 65, 68
2, 47348, Note_on_c, 0, 65, 0
2, 47352, Note_on_c, 0, 77, 0
2, 47367, Control_c, 0, 64, 0
2, 47376, Note_on_c, 0, 78, 51
2, 47376, Note_on_c, 0, 66, 52
2, 47379, Note_on_c, 0, 74, 49
2, 47379, Note_on_c, 0, 54, 27
2, 47382, Note_on_c, 0, 50, 22
2, 47397, Note_on_c, 0, 54, 0
2, 47400, Note_on_c, 0, 50, 0
2, 47400, Control_c, 0, 64, 127
2, 47448, Note_on_c, 0, 74, 0
2, 47450, Note_on_c, 0, 78, 0
2, 47452, Note_on_c, 0, 66, 0
2, 47452, Note_on_c, 0, 50, 91
2, 47453, Note_on_c, 0, 49, 65
2, 47466, Note_on_c, 0, 49, 0
2, 47490, Control_c, 0, 64, 0
2, 47492, Note_on_c, 0, 74, 71
2, 47493, Note_on_c, 0, 62, 74
2, 47493, Note_on_c, 0, 71, 64
2, 47499, Note_on_c, 0, 72, 30
2, 47504, Note_on_c, 0, 72, 0
2, 47507, Note_on_c, 0, 74, 0
2, 47508, Note_on_c, 0, 62, 0
2, 47510, Note_on_c, 0, 71, 0
2, 47523, Control_c, 0, 64, 127
2, 47528, Note_on_c, 0, 73, 38
2, 47530, Note_on_c, 0, 70, 30
2, 47530, Note_on_c, 0, 61, 27
2, 47534, Note_on_c, 0, 38, 26
2, 47537, Note_on_c, 0, 50, 0
2, 47543, Note_on_c, 0, 38, 0
2, 47547, Note_on_c, 0, 73, 0
2, 47551, Note_on_c, 0, 70, 0
2, 47551, Note_on_c, 0, 61, 0
2, 47565, Note_on_c, 0, 72, 43
2, 47566, Note_on_c, 0, 44, 43
2, 47568, Note_on_c, 0, 60, 44
2, 47575, Note_on_c, 0, 72, 0
2, 47582, Note_on_c, 0, 60, 0
2, 47583, Note_on_c, 0, 44, 0
2, 47604, Note_on_c, 0, 43, 46
2, 47605, Note_on_c, 0, 59, 58
2, 47605, Note_on_c, 0, 71, 52
2, 47608, Note_on_c, 0, 67, 28
2, 47610, Control_c, 0, 64, 0
2, 47614, Note_on_c, 0, 67, 0
2, 47626, Note_on_c, 0, 59, 0
2, 47636, Note_on_c, 0, 67, 36
2, 47639, Note_on_c, 0, 69, 22
2, 47645, Note_on_c, 0, 63, 52
2, 47648, Note_on_c, 0, 71, 0
2, 47651, Note_on_c, 0, 69, 0
2, 47652, Note_on_c, 0, 67, 0
2, 47660, Note_on_c, 0, 59, 59
2, 47661, Note_on_c, 0, 63, 0
2, 47674, Note_on_c, 0, 59, 0
2, 47687, Note_on_c, 0, 62, 59
2, 47687, Note_on_c, 0, 67, 58
2, 47702, Note_on_c, 0, 62, 0
2, 47704, Note_on_c, 0, 67, 0
2, 47708, Control_c, 0, 64, 127
2, 47723, Control_c, 0, 64, 0
2, 47723, Note_on_c, 0, 65, 53
2, 47726, Note_on_c, 0, 43, 0
2, 47744, Note_on_c, 0, 65, 0
2, 47756, Note_on_c, 0, 58, 34
2, 47757, Note_on_c, 0, 65, 22
2, 47772, Note_on_c, 0, 65, 0
2, 47772, Note_on_c, 0, 58, 0
2, 47799, Note_on_c, 0, 35, 17
2, 47800, Control_c, 0, 64, 127
2, 47826, Note_on_c, 0, 35, 0
2, 47829, Control_c, 0, 64, 0
2, 47831, Note_on_c, 0, 52, 42
2, 47834, Note_on_c, 0, 58, 34
2, 47834, Note_on_c, 0, 64, 20
2, 47834, Note_on_c, 0, 36, 33
2, 47845, Note_on_c, 0, 52, 0
2, 47849, Control_c, 0, 64, 127
2, 47859, Note_on_c, 0, 58, 0
2, 47860, Note_on_c, 0, 64, 0
2, 47898, Note_on_c, 0, 36, 0
2, 47905, Note_on_c, 0, 24, 41
2, 47911, Note_on_c, 0, 24, 0
2, 47949, Note_on_c, 0, 64, 66
2, 47950, Control_c, 0, 64, 0
2, 47950, Note_on_c, 0, 72, 66
2, 47951, Note_on_c, 0, 66, 64
2, 47956, Note_on_c, 0, 58, 34
2, 47961, Note_on_c, 0, 58, 0
2, 47968, Control_c, 0, 64, 127
2, 47978, Note_on_c, 0, 66, 0
2, 47979, Note_on_c, 0, 67, 42
2, 47993, Note_on_c, 0, 67, 0
2, 47996, Note_on_c, 0, 72, 0
2, 47999, Note_on_c, 0, 64, 0
2, 48061, Note_on_c, 0, 63, 45
2, 48062, Note_on_c, 0, 51, 35
2, 48062, Note_on_c, 0, 69, 38
2, 48062, Note_on_c, 0, 57, 36
2, 48073, Control_c, 0, 64, 0
2, 48085, Note_on_c, 0, 41, 24
2, 48110, Control_c, 0, 64, 127
2, 48117, Note_on_c, 0, 41, 0
2, 48138, Note_on_c, 0, 57, 0
2, 48138, Note_on_c, 0, 41, 55
2, 48155, Note_on_c, 0, 51, 0
2, 48160, Note_on_c, 0, 69, 0
2, 48170, Note_on_c, 0, 63, 0
2, 48180, Note_on_c, 0, 51, 56
2, 48184, Control_c, 0, 64, 0
2, 48214, Note_on_c, 0, 61, 49
2, 48219, Note_on_c, 0, 61, 0
2, 48223, Note_on_c, 0, 62, 48
2, 48238, Note_on_c, 0, 41, 0
2, 48243, Note_on_c, 0, 62, 0
2, 48249, Note_on_c, 0, 65, 74
2, 48254, Note_on_c, 0, 51, 0
2, 48257, Control_c, 0, 64, 127
2, 48274, Note_on_c, 0, 65, 0
2, 48288, Note_on_c, 0, 61, 47
2, 48288, Note_on_c, 0, 53, 34
2, 48291, Note_on_c, 0, 46, 25
2, 48293, Note_on_c, 0, 61, 0
2, 48294, Control_c, 0, 64, 0
2, 48299, Note_on_c, 0, 62, 37
2, 48303, Note_on_c, 0, 53, 0
2, 48317, Note_on_c, 0, 62, 0
2, 48328, Note_on_c, 0, 53, 52
2, 48354, Control_c, 0, 64, 127
2, 48358, Note_on_c, 0, 53, 0
2, 48365, Note_on_c, 0, 55, 67
2, 48393, Note_on_c, 0, 55, 0
2, 48405, Note_on_c, 0, 58, 78
2, 48408, Note_on_c, 0, 53, 41
2, 48416, Control_c, 0, 64, 0
2, 48423, Note_on_c, 0, 53, 0
2, 48432, Note_on_c, 0, 58, 0
2, 48438, Note_on_c, 0, 60, 57
2, 48468, Note_on_c, 0, 60, 0
2, 48481, Note_on_c, 0, 58, 63
2, 48487, Control_c, 0, 64, 127
2, 48495, Note_on_c, 0, 46, 0
2, 48509, Control_c, 0, 64, 0
2, 48525, Note_on_c, 0, 46, 25
2, 48527, Control_c, 0, 64, 127
2, 48534, Note_on_c, 0, 46, 0
2, 48534, Note_on_c, 0, 58, 0
2, 48598, Note_on_c, 0, 74, 50
2, 48600, Note_on_c, 0, 58, 40
2, 48600, Note_on_c, 0, 69, 60
2, 48600, Note_on_c, 0, 64, 51
2, 48619, Note_on_c, 0, 74, 0
2, 48624, Note_on_c, 0, 69, 0
2, 48630, Note_on_c, 0, 64, 0
2, 48634, Control_c, 0, 64, 0
2, 48640, Note_on_c, 0, 58, 0
2, 48642, Note_on_c, 0, 72, 39
2, 48643, Note_on_c, 0, 62, 39
2, 48645, Note_on_c, 0, 67, 40
2, 48650, Note_on_c, 0, 57, 26
2, 48654, Control_c, 0, 64, 127
2, 48659, Note_on_c, 0, 57, 0
2, 48662, Note_on_c, 0, 67, 0
2, 48671, Note_on_c, 0, 62, 0
2, 48674, Note_on_c, 0, 72, 0
2, 48714, Note_on_c, 0, 51, 40
2, 48715, Note_on_c, 0, 70, 40
2, 48715, Note_on_c, 0, 62, 27
2, 48723, Note_on_c, 0, 62, 0
2, 48735, Note_on_c, 0, 51, 0
2, 48736, Note_on_c, 0, 70, 0
2, 48749, Control_c, 0, 64, 0
2, 48755, Note_on_c, 0, 64, 42
2, 48755, Note_on_c, 0, 50, 36
2, 48756, Note_on_c, 0, 74, 33
2, 48756, Note_on_c, 0, 67, 36
2, 48757, Note_on_c, 0, 60, 27
2, 48757, Note_on_c, 0, 69, 36
2, 48770, Note_on_c, 0, 64, 0
2, 48772, Note_on_c, 0, 67, 0
2, 48773, Note_on_c, 0, 69, 0
2, 48775, Control_c, 0, 64, 127
2, 48778, Note_on_c, 0, 74, 0
2, 48787, Note_on_c, 0, 50, 0
2, 48797, Note_on_c, 0, 60, 0
2, 48831, Note_on_c, 0, 86, 81
2, 48831, Note_on_c, 0, 74, 73
2, 48844, Note_on_c, 0, 74, 0
2, 48849, Note_on_c, 0, 86, 0
2, 48866, Control_c, 0, 64, 0
2, 48869, Note_on_c, 0, 65, 40
2, 48870, Note_on_c, 0, 60, 30
2, 48871, Note_on_c, 0, 86, 69
2, 48873, Note_on_c, 0, 74, 42
2, 48877, Note_on_c, 0, 55, 24
2, 48881, Control_c, 0, 64, 127
2, 48884, Note_on_c, 0, 74, 0
2, 48885, Note_on_c, 0, 86, 0
2, 48890, Note_on_c, 0, 55, 0
2, 48893, Note_on_c, 0, 65, 0
2, 48895, Note_on_c, 0, 60, 0
2, 48909, Note_on_c, 0, 86, 55
2, 48920, Note_on_c, 0, 86, 0
2, 48949, Note_on_c, 0, 96, 90
2, 48991, Note_on_c, 0, 94, 72
2, 48992, Note_on_c, 0, 56, 37
2, 48997, Note_on_c, 0, 56, 0
2, 49000, Note_on_c, 0, 96, 0
2, 49001, Control_c, 0, 64, 0
2, 49018, Note_on_c, 0, 90, 52
2, 49024, Note_on_c, 0, 89, 58
2, 49031, Note_on_c, 0, 90, 0
2, 49035, Control_c, 0, 64, 127
2, 49039, Note_on_c, 0, 94, 0
2, 49045, Note_on_c, 0, 89, 0
2, 49050, Note_on_c, 0, 85, 62
2, 49067, Note_on_c, 0, 85, 0
2, 49077, Note_on_c, 0, 84, 60
2, 49094, Note_on_c, 0, 84, 0
2, 49100, Note_on_c, 0, 65, 33
2, 49101, Note_on_c, 0, 55, 29
2, 49102, Note_on_c, 0, 61, 25
2, 49103, Note_on_c, 0, 82, 60
2, 49103, Note_on_c, 0, 60, 37
2, 49103, Control_c, 0, 64, 0
2, 49121, Note_on_c, 0, 82, 0
2, 49132, Control_c, 0, 64, 127
2, 49133, Note_on_c, 0, 81, 60
2, 49136, Note_on_c, 0, 65, 0
2, 49141, Note_on_c, 0, 60, 0
2, 49146, Note_on_c, 0, 55, 0
2, 49147, Note_on_c, 0, 61, 0
2, 49148, Note_on_c, 0, 81, 0
2, 49156, Note_on_c, 0, 82, 71
2, 49177, Note_on_c, 0, 82, 0
2, 49183, Note_on_c, 0, 84, 77
2, 49204, Note_on_c, 0, 84, 0
2, 49204, Control_c, 0, 64, 0
2, 49211, Note_on_c, 0, 64, 24
2, 49214, Note_on_c, 0, 60, 31
2, 49214, Note_on_c, 0, 54, 25
2, 49214, Note_on_c, 0, 81, 44
2, 49230, Note_on_c, 0, 64, 0
2, 49231, Control_c, 0, 64, 127
2, 49236, Note_on_c, 0, 60, 0
2, 49237, Note_on_c, 0, 81, 0
2, 49245, Note_on_c, 0, 74, 33
2, 49248, Note_on_c, 0, 54, 0
2, 49266, Note_on_c, 0, 74, 0
2, 49322, Note_on_c, 0, 60, 43
2, 49326, Control_c, 0, 64, 0
2, 49327, Note_on_c, 0, 54, 30
2, 49327, Note_on_c, 0, 50, 24
2, 49339, Control_c, 0, 64, 127
2, 49354, Note_on_c, 0, 60, 0
2, 49368, Note_on_c, 0, 54, 0
2, 49370, Note_on_c, 0, 50, 0
2, 49437, Note_on_c, 0, 64, 48
2, 49437, Note_on_c, 0, 69, 53
2, 49438, Control_c, 0, 64, 0
2, 49438, Note_on_c, 0, 60, 54
2, 49438, Note_on_c, 0, 66, 35
2, 49440, Note_on_c, 0, 57, 24
2, 49451, Note_on_c, 0, 57, 0
2, 49458, Control_c, 0, 64, 127
2, 49473, Note_on_c, 0, 69, 0
2, 49475, Note_on_c, 0, 64, 0
2, 49476, Note_on_c, 0, 66, 0
2, 49484, Note_on_c, 0, 60, 0
2, 49510, Note_on_c, 0, 49, 39
2, 49540, Note_on_c, 0, 49, 0
2, 49547, Note_on_c, 0, 50, 37
2, 49549, Note_on_c, 0, 54, 40
2, 49550, Note_on_c, 0, 60, 57
2, 49550, Control_c, 0, 64, 0
2, 49550, Note_on_c, 0, 65, 41
2, 49558, Note_on_c, 0, 50, 0
2, 49617, Control_c, 0, 64, 127
2, 49620, Note_on_c, 0, 42, 48
2, 49621, Note_on_c, 0, 30, 37
2, 49623, Note_on_c, 0, 60, 0
2, 49626, Note_on_c, 0, 54, 0
2, 49634, Note_on_c, 0, 30, 0
2, 49640, Note_on_c, 0, 42, 0
2, 49648, Note_on_c, 0, 65, 0
2, 49659, Control_c, 0, 64, 0
2, 49663, Note_on_c, 0, 62, 38
2, 49663, Note_on_c, 0, 43, 30
2, 49663, Note_on_c, 0, 58, 39
2, 49664, Note_on_c, 0, 31, 38
2, 49665, Note_on_c, 0, 57, 36
2, 49679, Note_on_c, 0, 31, 0
2, 49681, Control_c, 0, 64, 127
2, 49691, Note_on_c, 0, 43, 0
2, 49696, Note_on_c, 0, 57, 0
2, 49699, Note_on_c, 0, 62, 0
2, 49700, Note_on_c, 0, 58, 0
2, 49740, Note_on_c, 0, 57, 73
2, 49741, Note_on_c, 0, 69, 84
2, 49741, Note_on_c, 0, 62, 78
2, 49741, Note_on_c, 0, 58, 80
2, 49743, Note_on_c, 0, 65, 67
2, 49747, Control_c, 0, 64, 0
2, 49773, Control_c, 0, 64, 127
2, 49802, Note_on_c, 0, 69, 0
2, 49803, Note_on_c, 0, 57, 0
2, 49804, Note_on_c, 0, 58, 0
2, 49804, Note_on_c, 0, 65, 0
2, 49807, Note_on_c, 0, 62, 0
2, 49819, Note_on_c, 0, 57, 57
2, 49821, Note_on_c, 0, 58, 67
2, 49821, Note_on_c, 0, 62, 58
2, 49821, Note_on_c, 0, 69, 66
2, 49826, Note_on_c, 0, 65, 30
2, 49840, Note_on_c, 0, 65, 0
2, 49843, Note_on_c, 0, 69, 0
2, 49847, Note_on_c, 0, 58, 0
2, 49848, Note_on_c, 0, 62, 0
2, 49856, Note_on_c, 0, 55, 60
2, 49859, Note_on_c, 0, 57, 0
2, 49862, Note_on_c, 0, 55, 0
2, 49893, Control_c, 0, 64, 0
2, 49895, Note_on_c, 0, 60, 81
2, 49895, Note_on_c, 0, 72, 80
2, 49896, Note_on_c, 0, 61, 78
2, 49896, Note_on_c, 0, 65, 77
2, 49898, Note_on_c, 0, 69, 62
2, 49917, Note_on_c, 0, 61, 0
2, 49919, Note_on_c, 0, 72, 0
2, 49920, Control_c, 0, 64, 127
2, 49922, Note_on_c, 0, 69, 0
2, 49923, Note_on_c, 0, 65, 0
2, 49925, Note_on_c, 0, 60, 0
2, 49930, Note_on_c, 0, 72, 55
2, 49933, Note_on_c, 0, 61, 59
2, 49933, Note_on_c, 0, 60, 46
2, 49934, Note_on_c, 0, 65, 67
2, 49939, Note_on_c, 0, 65, 0
2, 49941, Note_on_c, 0, 72, 0
2, 49945, Note_on_c, 0, 60, 0
2, 49953, Note_on_c, 0, 61, 0
2, 49969, Note_on_c, 0, 70, 47
2, 49973, Control_c, 0, 64, 0
2, 49974, Note_on_c, 0, 57, 52
2, 49975, Note_on_c, 0, 58, 59
2, 49976, Note_on_c, 0, 70, 0
2, 49978, Note_on_c, 0, 61, 33
2, 49981, Note_on_c, 0, 69, 38
2, 49983, Note_on_c, 0, 64, 33
2, 50001, Control_c, 0, 64, 127
2, 50020, Note_on_c, 0, 64, 0
2, 50028, Note_on_c, 0, 61, 0
2, 50029, Note_on_c, 0, 58, 0
2, 50030, Note_on_c, 0, 57, 0
2, 50033, Note_on_c, 0, 69, 0
2, 50047, Note_on_c, 0, 58, 42
2, 50049, Note_on_c, 0, 61, 38
2, 50050, Note_on_c, 0, 64, 43
2, 50067, Note_on_c, 0, 64, 0
2, 50079, Note_on_c, 0, 61, 0
2, 50079, Note_on_c, 0, 58, 0
2, 50126, Note_on_c, 0, 50, 32
2, 50126, Note_on_c, 0, 60, 54
2, 50127, Control_c, 0, 64, 0
2, 50129, Note_on_c, 0, 65, 29
2, 50129, Note_on_c, 0, 54, 25
2, 50133, Note_on_c, 0, 50, 0
2, 50169, Control_c, 0, 64, 127
2, 50201, Note_on_c, 0, 54, 0
2, 50203, Note_on_c, 0, 26, 62
2, 50205, Note_on_c, 0, 38, 48
2, 50206, Note_on_c, 0, 60, 0
2, 50207, Control_c, 0, 64, 0
2, 50210, Note_on_c, 0, 65, 0
2, 50225, Note_on_c, 0, 26, 0
2, 50225, Control_c, 0, 64, 127
2, 50235, Note_on_c, 0, 38, 0
2, 50375, Note_on_c, 0, 65, 33
2, 50376, Note_on_c, 0, 54, 21
2, 50378, Note_on_c, 0, 60, 43
2, 50419, Note_on_c, 0, 65, 0
2, 50424, Note_on_c, 0, 60, 0
2, 50435, Note_on_c, 0, 54, 0
2, 50454, Note_on_c, 0, 74, 80
2, 50487, Note_on_c, 0, 60, 44
2, 50490, Control_c, 0, 64, 0
2, 50492, Note_on_c, 0, 54, 27
2, 50493, Note_on_c, 0, 60, 0
2, 50493, Note_on_c, 0, 50, 20
2, 50503, Control_c, 0, 64, 127
2, 50504, Note_on_c, 0, 50, 0
2, 50510, Note_on_c, 0, 54, 0
2, 50534, Note_on_c, 0, 76, 53
2, 50544, Note_on_c, 0, 74, 0
2, 50554, Note_on_c, 0, 76, 0
2, 50570, Note_on_c, 0, 78, 50
2, 50592, Note_on_c, 0, 78, 0
2, 50602, Control_c, 0, 64, 0
2, 50604, Note_on_c, 0, 50, 17
2, 50604, Note_on_c, 0, 43, 34
2, 50605, Note_on_c, 0, 79, 47
2, 50608, Note_on_c, 0, 69, 30
2, 50625, Note_on_c, 0, 43, 0
2, 50625, Control_c, 0, 64, 127
2, 50628, Note_on_c, 0, 69, 0
2, 50632, Note_on_c, 0, 50, 0
2, 50656, Note_on_c, 0, 79, 0
2, 50680, Note_on_c, 0, 81, 60
2, 50693, Note_on_c, 0, 81, 0
2, 50715, Control_c, 0, 64, 0
2, 50720, Note_on_c, 0, 58, 34
2, 50720, Note_on_c, 0, 55, 28
2, 50721, Note_on_c, 0, 82, 56
2, 50723, Note_on_c, 0, 62, 17
2, 50724, Note_on_c, 0, 53, 22
2, 50730, Control_c, 0, 64, 127
2, 50739, Note_on_c, 0, 82, 0
2, 50765, Note_on_c, 0, 53, 0
2, 50767, Note_on_c, 0, 55, 0
2, 50773, Note_on_c, 0, 62, 0
2, 50775, Note_on_c, 0, 58, 0
2, 50794, Note_on_c, 0, 86, 27
2, 50797, Note_on_c, 0, 74, 28
2, 50807, Note_on_c, 0, 86, 0
2, 50808, Note_on_c, 0, 74, 0
2, 50831, Note_on_c, 0, 67, 36
2, 50833, Note_on_c, 0, 62, 35
2, 50833, Note_on_c, 0, 76, 63
2, 50834, Note_on_c, 0, 88, 71
2, 50834, Control_c, 0, 64, 0
2, 50834, Note_on_c, 0, 56, 43
2, 50859, Control_c, 0, 64, 127
2, 50880, Note_on_c, 0, 76, 0
2, 50886, Note_on_c, 0, 88, 0
2, 50903, Note_on_c, 0, 67, 0
2, 50907, Note_on_c, 0, 89, 82
2, 50907, Note_on_c, 0, 77, 80
2, 50910, Note_on_c, 0, 62, 0
2, 50922, Note_on_c, 0, 56, 0
2, 50932, Note_on_c, 0, 77, 0
2, 50935, Note_on_c, 0, 89, 0
2, 50947, Note_on_c, 0, 66, 44
2, 50948, Note_on_c, 0, 55, 53
2, 50948, Control_c, 0, 64, 0
2, 50949, Note_on_c, 0, 61, 40
2, 50951, Note_on_c, 0, 91, 66
2, 50952, Note_on_c, 0, 79, 64
2, 50969, Control_c, 0, 64, 127
2, 50972, Note_on_c, 0, 79, 0
2, 50974, Note_on_c, 0, 91, 0
2, 50991, Note_on_c, 0, 93, 57
2, 50994, Note_on_c, 0, 81, 29
2, 50997, Note_on_c, 0, 93, 0
2, 51003, Note_on_c, 0, 81, 0
2, 51018, Note_on_c, 0, 66, 0
2, 51028, Note_on_c, 0, 55, 0
2, 51053, Note_on_c, 0, 61, 0
2, 51066, Note_on_c, 0, 74, 44
2, 51066, Note_on_c, 0, 86, 41
2, 51067, Note_on_c, 0, 78, 27
2, 51068, Note_on_c, 0, 60, 36
2, 51071, Note_on_c, 0, 54, 25
2, 51072, Control_c, 0, 64, 0
2, 51086, Control_c, 0, 64, 127
2, 51094, Note_on_c, 0, 60, 0
2, 51102, Note_on_c, 0, 86, 0
2, 51102, Note_on_c, 0, 54, 0
2, 51109, Note_on_c, 0, 78, 0
2, 51112, Note_on_c, 0, 74, 0
2, 51142, Note_on_c, 0, 38, 58
2, 51185, Note_on_c, 0, 54, 36
2, 51185, Note_on_c, 0, 50, 27
2, 51187, Note_on_c, 0, 58, 34
2, 51187, Note_on_c, 0, 60, 43
2, 51190, Control_c, 0, 64, 0
2, 51205, Note_on_c, 0, 50, 0
2, 51212, Note_on_c, 0, 38, 0
2, 51218, Control_c, 0, 64, 127
2, 51245, Note_on_c, 0, 60, 0
2, 51257, Note_on_c, 0, 54, 0
2, 51258, Note_on_c, 0, 58, 0
2, 51262, Note_on_c, 0, 42, 31
2, 51294, Note_on_c, 0, 42, 0
2, 51301, Note_on_c, 0, 43, 50
2, 51313, Control_c, 0, 64, 0
2, 51336, Note_on_c, 0, 67, 48
2, 51338, Note_on_c, 0, 64, 42
2, 51341, Note_on_c, 0, 55, 28
2, 51352, Note_on_c, 0, 55, 0
2, 51354, Note_on_c, 0, 64, 0
2, 51354, Note_on_c, 0, 67, 0
2, 51371, Control_c, 0, 64, 127
2, 51374, Note_on_c, 0, 66, 52
2, 51383, Note_on_c, 0, 54, 20
2, 51391, Note_on_c, 0, 43, 0
2, 51399, Note_on_c, 0, 66, 0
2, 51402, Note_on_c, 0, 54, 0
2, 51417, Control_c, 0, 64, 0
2, 51419, Note_on_c, 0, 62, 33
2, 51420, Note_on_c, 0, 65, 36
2, 51425, Note_on_c, 0, 53, 22
2, 51440, Note_on_c, 0, 65, 0
2, 51443, Note_on_c, 0, 53, 0
2, 51446, Note_on_c, 0, 62, 0
2, 51455, Note_on_c, 0, 34, 31
2, 51491, Note_on_c, 0, 63, 46
2, 51492, Note_on_c, 0, 34, 0
2, 51495, Note_on_c, 0, 51, 35
2, 51498, Note_on_c, 0, 35, 27
2, 51502, Note_on_c, 0, 61, 14
2, 51503, Control_c, 0, 64, 127
2, 51521, Note_on_c, 0, 61, 0
2, 51527, Note_on_c, 0, 51, 0
2, 51528, Note_on_c, 0, 35, 0
2, 51528, Control_c, 0, 64, 0
2, 51533, Note_on_c, 0, 63, 0
2, 51534, Note_on_c, 0, 52, 50
2, 51536, Note_on_c, 0, 60, 47
2, 51536, Note_on_c, 0, 36, 36
2, 51537, Note_on_c, 0, 64, 35
2, 51545, Note_on_c, 0, 52, 0
2, 51557, Note_on_c, 0, 60, 0
2, 51562, Control_c, 0, 64, 127
2, 51567, Note_on_c, 0, 64, 0
2, 51571, Note_on_c, 0, 24, 49
2, 51578, Note_on_c, 0, 24, 0
2, 51581, Note_on_c, 0, 36, 0
2, 51650, Note_on_c, 0, 74, 74
2, 51651, Note_on_c, 0, 70, 67
2, 51651, Note_on_c, 0, 64, 62
2, 51651, Note_on_c, 0, 67, 66
2, 51655, Note_on_c, 0, 61, 52
2, 51660, Control_c, 0, 64, 0
2, 51674, Note_on_c, 0, 61, 0
2, 51674, Control_c, 0, 64, 127
2, 51722, Note_on_c, 0, 67, 0
2, 51723, Note_on_c, 0, 74, 0
2, 51734, Note_on_c, 0, 70, 0
2, 51735, Note_on_c, 0, 64, 0
2, 51764, Note_on_c, 0, 72, 35
2, 51768, Note_on_c, 0, 69, 37
2, 51771, Note_on_c, 0, 57, 32
2, 51771, Note_on_c, 0, 65, 31
2, 51773, Note_on_c, 0, 60, 16
2, 51775, Control_c, 0, 64, 0
2, 51786, Note_on_c, 0, 57, 0
2, 51791, Control_c, 0, 64, 127
2, 51800, Note_on_c, 0, 72, 0
2, 51802, Note_on_c, 0, 69, 0
2, 51807, Note_on_c, 0, 65, 0
2, 51816, Note_on_c, 0, 60, 0
2, 51849, Note_on_c, 0, 41, 17
2, 51881, Note_on_c, 0, 65, 44
2, 51881, Note_on_c, 0, 61, 38
2, 51881, Control_c, 0, 64, 0
2, 51882, Note_on_c, 0, 57, 24
2, 51885, Note_on_c, 0, 51, 25
2, 51888, Note_on_c, 0, 61, 0
2, 51893, Note_on_c, 0, 62, 32
2, 51905, Note_on_c, 0, 41, 0
2, 51905, Control_c, 0, 64, 127
2, 51906, Note_on_c, 0, 57, 0
2, 51913, Note_on_c, 0, 62, 0
2, 51915, Note_on_c, 0, 65, 0
2, 51919, Note_on_c, 0, 51, 0
2, 51958, Note_on_c, 0, 70, 49
2, 51960, Note_on_c, 0, 60, 46
2, 51960, Note_on_c, 0, 65, 54
2, 51963, Note_on_c, 0, 55, 34
2, 51970, Control_c, 0, 64, 0
2, 52006, Control_c, 0, 64, 127
2, 52029, Note_on_c, 0, 60, 0
2, 52035, Note_on_c, 0, 65, 0
2, 52039, Note_on_c, 0, 70, 0
2, 52075, Note_on_c, 0, 55, 0
2, 52081, Note_on_c, 0, 74, 87
2, 52100, Note_on_c, 0, 74, 0
2, 52121, Note_on_c, 0, 74, 71
2, 52134, Note_on_c, 0, 74, 0
2, 52153, Note_on_c, 0, 74, 57
2, 52176, Note_on_c, 0, 74, 0
2, 52190, Note_on_c, 0, 62, 48
2, 52214, Note_on_c, 0, 62, 0
2, 52227, Control_c, 0, 64, 0
2, 52231, Note_on_c, 0, 50, 47
2, 52248, Control_c, 0, 64, 127
2, 52271, Note_on_c, 0, 86, 60
2, 52287, Note_on_c, 0, 86, 0
2, 52307, Note_on_c, 0, 86, 81
2, 52323, Note_on_c, 0, 86, 0
2, 52342, Note_on_c, 0, 62, 58
2, 52344, Control_c, 0, 64, 0
2, 52347, Note_on_c, 0, 86, 77
2, 52348, Note_on_c, 0, 62, 0
2, 52352, Control_c, 0, 64, 127
2, 52359, Note_on_c, 0, 86, 0
2, 52366, Note_on_c, 0, 50, 0
2, 52380, Note_on_c, 0, 86, 69
2, 52405, Note_on_c, 0, 86, 0
2, 52415, Note_on_c, 0, 74, 48
2, 52432, Note_on_c, 0, 74, 0
2, 52454, Control_c, 0, 64, 0
2, 52456, Note_on_c, 0, 43, 40
2, 52457, Note_on_c, 0, 50, 42
2, 52458, Note_on_c, 0, 84, 89
2, 52476, Control_c, 0, 64, 127
2, 52477, Note_on_c, 0, 84, 0
2, 52480, Note_on_c, 0, 43, 0
2, 52487, Note_on_c, 0, 50, 0
2, 52498, Note_on_c, 0, 81, 51
2, 52514, Note_on_c, 0, 81, 0
2, 52535, Note_on_c, 0, 82, 86
2, 52571, Note_on_c, 0, 55, 41
2, 52573, Note_on_c, 0, 58, 27
2, 52574, Note_on_c, 0, 78, 48
2, 52575, Note_on_c, 0, 82, 0
2, 52575, Note_on_c, 0, 62, 20
2, 52581, Control_c, 0, 64, 0
2, 52604, Note_on_c, 0, 78, 0
2, 52610, Note_on_c, 0, 81, 66
2, 52613, Control_c, 0, 64, 127
2, 52628, Note_on_c, 0, 55, 0
2, 52632, Note_on_c, 0, 62, 0
2, 52634, Note_on_c, 0, 58, 0
2, 52637, Note_on_c, 0, 81, 0
2, 52648, Note_on_c, 0, 79, 58
2, 52678, Note_on_c, 0, 79, 0
2, 52681, Note_on_c, 0, 65, 34
2, 52683, Note_on_c, 0, 61, 38
2, 52684, Note_on_c, 0, 55, 30
2, 52685, Note_on_c, 0, 74, 41
2, 52690, Control_c, 0, 64, 0
2, 52720, Note_on_c, 0, 73, 56
2, 52727, Note_on_c, 0, 74, 0
2, 52730, Control_c, 0, 64, 127
2, 52754, Note_on_c, 0, 73, 0
2, 52755, Note_on_c, 0, 65, 0
2, 52758, Note_on_c, 0, 55, 0
2, 52759, Note_on_c, 0, 76, 68
2, 52766, Note_on_c, 0, 61, 0
2, 52799, Note_on_c, 0, 69, 36
2, 52800, Note_on_c, 0, 61, 30
2, 52801, Note_on_c, 0, 64, 25
2, 52803, Note_on_c, 0, 76, 0
2, 52805, Control_c, 0, 64, 0
2, 52818, Note_on_c, 0, 64, 0
2, 52823, Note_on_c, 0, 69, 0
2, 52827, Note_on_c, 0, 61, 0
2, 52829, Control_c, 0, 64, 127
2, 52839, Note_on_c, 0, 69, 38
2, 52858, Note_on_c, 0, 69, 0
2, 52875, Note_on_c, 0, 67, 38
2, 52878, Note_on_c, 0, 51, 25
2, 52894, Note_on_c, 0, 67, 0
2, 52898, Note_on_c, 0, 51, 0
2, 52916, Note_on_c, 0, 60, 36
2, 52919, Note_on_c, 0, 66, 39
2, 52921, Note_on_c, 0, 50, 27
2, 52922, Note_on_c, 0, 60, 0
2, 52927, Control_c, 0, 64, 0
2, 52946, Note_on_c, 0, 50, 0
2, 52949, Note_on_c, 0, 66, 0
2, 52951, Note_on_c, 0, 69, 61
2, 52977, Note_on_c, 0, 69, 0
2, 52988, Note_on_c, 0, 62, 63
2, 52990, Control_c, 0, 64, 127
2, 53031, Note_on_c, 0, 50, 39
2, 53033, Control_c, 0, 64, 0
2, 53045, Note_on_c, 0, 50, 0
2, 53054, Control_c, 0, 64, 127
2, 53109, Note_on_c, 0, 44, 37
2, 53116, Note_on_c, 0, 62, 0
2, 53133, Note_on_c, 0, 44, 0
2, 53152, Note_on_c, 0, 53, 31
2, 53153, Note_on_c, 0, 43, 33
2, 53160, Control_c, 0, 64, 0
2, 53219, Note_on_c, 0, 53, 0
2, 53228, Note_on_c, 0, 73, 82
2, 53229, Note_on_c, 0, 77, 73
2, 53231, Note_on_c, 0, 76, 58
2, 53236, Note_on_c, 0, 76, 0
2, 53237, Note_on_c, 0, 74, 77
2, 53238, Note_on_c, 0, 73, 0
2, 53240, Control_c, 0, 64, 127
2, 53246, Note_on_c, 0, 76, 22
2, 53254, Note_on_c, 0, 76, 0
2, 53256, Note_on_c, 0, 77, 0
2, 53258, Note_on_c, 0, 74, 0
2, 53270, Control_c, 0, 64, 0
2, 53270, Note_on_c, 0, 76, 59
2, 53272, Note_on_c, 0, 72, 74
2, 53276, Note_on_c, 0, 53, 30
2, 53290, Note_on_c, 0, 72, 0
2, 53292, Note_on_c, 0, 76, 0
2, 53294, Control_c, 0, 64, 127
2, 53301, Note_on_c, 0, 43, 0
2, 53310, Note_on_c, 0, 70, 59
2, 53311, Note_on_c, 0, 74, 46
2, 53316, Note_on_c, 0, 53, 0
2, 53336, Note_on_c, 0, 74, 0
2, 53337, Note_on_c, 0, 70, 0
2, 53349, Note_on_c, 0, 67, 54
2, 53350, Note_on_c, 0, 74, 22
2, 53374, Note_on_c, 0, 67, 0
2, 53381, Note_on_c, 0, 74, 0
2, 53391, Note_on_c, 0, 58, 26
2, 53393, Control_c, 0, 64, 0
2, 53395, Note_on_c, 0, 48, 24
2, 53396, Note_on_c, 0, 64, 15
2, 53424, Control_c, 0, 64, 127
2, 53432, Note_on_c, 0, 64, 0
2, 53432, Note_on_c, 0, 48, 0
2, 53433, Note_on_c, 0, 58, 0
2, 53511, Note_on_c, 0, 42, 35
2, 53512, Note_on_c, 0, 52, 36
2, 53513, Control_c, 0, 64, 0
2, 53531, Control_c, 0, 64, 127
2, 53595, Note_on_c, 0, 52, 0
2, 53598, Note_on_c, 0, 48, 30
2, 53603, Note_on_c, 0, 42, 0
2, 53628, Note_on_c, 0, 48, 0
2, 53631, Note_on_c, 0, 75, 28
2, 53632, Note_on_c, 0, 51, 28
2, 53636, Control_c, 0, 64, 0
2, 53637, Note_on_c, 0, 75, 0
2, 53637, Note_on_c, 0, 41, 26
2, 53641, Note_on_c, 0, 76, 49
2, 53654, Note_on_c, 0, 75, 40
2, 53657, Note_on_c, 0, 76, 0
2, 53670, Note_on_c, 0, 75, 0
2, 53670, Note_on_c, 0, 73, 37
2, 53682, Note_on_c, 0, 70, 39
2, 53683, Note_on_c, 0, 73, 0
2, 53689, Note_on_c, 0, 70, 0
2, 53706, Note_on_c, 0, 51, 0
2, 53706, Note_on_c, 0, 75, 77
2, 53725, Note_on_c, 0, 75, 0
2, 53741, Note_on_c, 0, 73, 71
2, 53759, Note_on_c, 0, 73, 0
2, 53765, Note_on_c, 0, 51, 30
2, 53772, Note_on_c, 0, 70, 55
2, 53790, Note_on_c, 0, 70, 0
2, 53801, Note_on_c, 0, 65, 46
2, 53804, Control_c, 0, 64, 127
2, 53815, Note_on_c, 0, 41, 0
2, 53818, Note_on_c, 0, 65, 0
2, 53822, Control_c, 0, 64, 0
2, 53829, Note_on_c, 0, 63, 35
2, 53835, Note_on_c, 0, 51, 0
2, 53846, Control_c, 0, 64, 127
2, 53851, Note_on_c, 0, 63, 0
2, 53863, Note_on_c, 0, 61, 42
2, 53876, Note_on_c, 0, 61, 0
2, 53890, Control_c, 0, 64, 0
2, 53890, Note_on_c, 0, 70, 38
2, 53894, Note_on_c, 0, 62, 35
2, 53898, Note_on_c, 0, 58, 18
2, 53899, Note_on_c, 0, 50, 18
2, 53924, Note_on_c, 0, 62, 0
2, 53925, Note_on_c, 0, 63, 59
2, 53939, Note_on_c, 0, 70, 0
2, 53948, Note_on_c, 0, 63, 0
2, 53951, Note_on_c, 0, 70, 46
2, 53952, Note_on_c, 0, 64, 55
2, 53966, Note_on_c, 0, 64, 0
2, 53967, Note_on_c, 0, 70, 0
2, 53967, Note_on_c, 0, 58, 0
2, 53978, Control_c, 0, 64, 127
2, 53980, Note_on_c, 0, 70, 55
2, 53984, Note_on_c, 0, 65, 44
2, 53989, Note_on_c, 0, 64, 26
2, 53994, Note_on_c, 0, 64, 0
2, 54000, Note_on_c, 0, 65, 0
2, 54002, Note_on_c, 0, 70, 0
2, 54008, Control_c, 0, 64, 0
2, 54008, Note_on_c, 0, 70, 21
2, 54012, Note_on_c, 0, 62, 39
2, 54013, Note_on_c, 0, 58, 38
2, 54024, Note_on_c, 0, 58, 0
2, 54028, Control_c, 0, 64, 127
2, 54031, Note_on_c, 0, 50, 0
2, 54034, Note_on_c, 0, 62, 0
2, 54041, Note_on_c, 0, 70, 0
2, 54047, Note_on_c, 0, 62, 54
2, 54058, Note_on_c, 0, 62, 0
2, 54068, Control_c, 0, 64, 0
2, 54077, Control_c, 0, 64, 127
2, 54082, Note_on_c, 0, 39, 34
2, 54106, Note_on_c, 0, 39, 0
2, 54119, Control_c, 0, 64, 0
2, 54121, Note_on_c, 0, 54, 45
2, 54123, Note_on_c, 0, 38, 50
2, 54124, Note_on_c, 0, 65, 37
2, 54126, Note_on_c, 0, 54, 0
2, 54126, Note_on_c, 0, 60, 46
2, 54127, Note_on_c, 0, 50, 24
2, 54131, Note_on_c, 0, 60, 0
2, 54134, Note_on_c, 0, 65, 0
2, 54135, Control_c, 0, 64, 127
2, 54143, Note_on_c, 0, 38, 0
2, 54153, Note_on_c, 0, 50, 0
2, 54186, Note_on_c, 0, 82, 56
2, 54202, Note_on_c, 0, 78, 55
2, 54216, Note_on_c, 0, 82, 0
2, 54221, Note_on_c, 0, 78, 0
2, 54240, Note_on_c, 0, 75, 43
2, 54241, Note_on_c, 0, 54, 34
2, 54245, Note_on_c, 0, 75, 0
2, 54252, Note_on_c, 0, 74, 30
2, 54255, Note_on_c, 0, 54, 0
2, 54257, Control_c, 0, 64, 0
2, 54268, Note_on_c, 0, 74, 0
2, 54268, Note_on_c, 0, 73, 53
2, 54282, Note_on_c, 0, 73, 0
2, 54283, Note_on_c, 0, 72, 48
2, 54290, Note_on_c, 0, 72, 0
2, 54302, Note_on_c, 0, 44, 25
2, 54312, Control_c, 0, 64, 127
2, 54312, Note_on_c, 0, 69, 29
2, 54333, Note_on_c, 0, 69, 0
2, 54334, Note_on_c, 0, 44, 0
2, 54350, Note_on_c, 0, 43, 42
2, 54355, Control_c, 0, 64, 0
2, 54355, Note_on_c, 0, 72, 70
2, 54366, Note_on_c, 0, 43, 0
2, 54371, Note_on_c, 0, 72, 0
2, 54373, Note_on_c, 0, 70, 52
2, 54388, Note_on_c, 0, 70, 0
2, 54397, Note_on_c, 0, 66, 30
2, 54403, Note_on_c, 0, 66, 0
2, 54416, Note_on_c, 0, 69, 58
2, 54433, Note_on_c, 0, 67, 55
2, 54436, Note_on_c, 0, 69, 0
2, 54446, Note_on_c, 0, 67, 0
2, 54448, Control_c, 0, 64, 127
2, 54454, Note_on_c, 0, 62, 53
2, 54463, Note_on_c, 0, 62, 0
2, 54474, Note_on_c, 0, 60, 57
2, 54475, Control_c, 0, 64, 0
2, 54493, Note_on_c, 0, 60, 0
2, 54495, Note_on_c, 0, 58, 39
2, 54509, Note_on_c, 0, 58, 0
2, 54518, Note_on_c, 0, 57, 29
2, 54525, Note_on_c, 0, 57, 0
2, 54535, Note_on_c, 0, 60, 65
2, 54546, Note_on_c, 0, 60, 0
2, 54557, Note_on_c, 0, 57, 40
2, 54561, Control_c, 0, 64, 127
2, 54564, Note_on_c, 0, 57, 0
2, 54576, Note_on_c, 0, 58, 47
2, 54592, Control_c, 0, 64, 0
2, 54596, Note_on_c, 0, 55, 32
2, 54598, Note_on_c, 0, 45, 27
2, 54614, Note_on_c, 0, 58, 0
2, 54616, Control_c, 0, 64, 127
2, 54619, Note_on_c, 0, 45, 0
2, 54619, Note_on_c, 0, 60, 62
2, 54626, Note_on_c, 0, 55, 0
2, 54631, Note_on_c, 0, 60, 0
2, 54637, Note_on_c, 0, 61, 61
2, 54648, Note_on_c, 0, 61, 0
2, 54653, Note_on_c, 0, 63, 52
2, 54658, Note_on_c, 0, 63, 0
2, 54665, Note_on_c, 0, 64, 64
2, 54672, Note_on_c, 0, 64, 0
2, 54682, Note_on_c, 0, 66, 33
2, 54687, Note_on_c, 0, 66, 0
2, 54693, Note_on_c, 0, 67, 48
2, 54705, Control_c, 0, 64, 0
2, 54706, Note_on_c, 0, 67, 0
2, 54706, Note_on_c, 0, 69, 65
2, 54718, Note_on_c, 0, 70, 57
2, 54719, Note_on_c, 0, 69, 0
2, 54719, Note_on_c, 0, 61, 40
2, 54720, Note_on_c, 0, 66, 43
2, 54723, Note_on_c, 0, 70, 0
2, 54732, Note_on_c, 0, 72, 49
2, 54740, Note_on_c, 0, 72, 0
2, 54742, Note_on_c, 0, 73, 58
2, 54752, Note_on_c, 0, 66, 0
2, 54755, Note_on_c, 0, 73, 0
2, 54757, Note_on_c, 0, 75, 39
2, 54764, Note_on_c, 0, 75, 0
2, 54767, Note_on_c, 0, 76, 47
2, 54768, Note_on_c, 0, 61, 0
2, 54780, Note_on_c, 0, 76, 0
2, 54788, Note_on_c, 0, 79, 76
2, 54801, Control_c, 0, 64, 127
2, 54805, Note_on_c, 0, 79, 0
2, 54823, Note_on_c, 0, 78, 76
2, 54828, Control_c, 0, 64, 0
2, 54845, Note_on_c, 0, 54, 26
2, 54846, Note_on_c, 0, 78, 0
2, 54848, Note_on_c, 0, 60, 33
2, 54851, Note_on_c, 0, 50, 26
2, 54852, Note_on_c, 0, 74, 54
2, 54862, Note_on_c, 0, 50, 0
2, 54867, Control_c, 0, 64, 127
2, 54871, Note_on_c, 0, 60, 0
2, 54873, Note_on_c, 0, 74, 0
2, 54881, Note_on_c, 0, 54, 0
2, 54883, Note_on_c, 0, 69, 54
2, 54901, Note_on_c, 0, 69, 0
2, 54916, Note_on_c, 0, 81, 70
2, 54930, Note_on_c, 0, 81, 0
2, 54962, Note_on_c, 0, 65, 42
2, 54963, Note_on_c, 0, 54, 30
2, 54966, Control_c, 0, 64, 0
2, 54969, Note_on_c, 0, 65, 0
2, 54969, Note_on_c, 0, 60, 28
2, 54974, Note_on_c, 0, 60, 0
2, 54976, Control_c, 0, 64, 127
2, 54984, Note_on_c, 0, 54, 0
2, 55041, Note_on_c, 0, 50, 43
2, 55073, Control_c, 0, 64, 0
2, 55078, Note_on_c, 0, 50, 0
2, 55079, Note_on_c, 0, 87, 83
2, 55080, Note_on_c, 0, 79, 80
2, 55080, Note_on_c, 0, 91, 82
2, 55080, Note_on_c, 0, 43, 43
2, 55082, Note_on_c, 0, 53, 53
2, 55083, Note_on_c, 0, 88, 77
2, 55085, Note_on_c, 0, 87, 0
2, 55088, Note_on_c, 0, 89, 29
2, 55096, Note_on_c, 0, 89, 0
2, 55104, Control_c, 0, 64, 127
2, 55106, Note_on_c, 0, 88, 0
2, 55111, Note_on_c, 0, 43, 0
2, 55111, Note_on_c, 0, 91, 0
2, 55120, Note_on_c, 0, 53, 0
2, 55122, Note_on_c, 0, 90, 74
2, 55148, Note_on_c, 0, 90, 0
2, 55148, Note_on_c, 0, 79, 0
2, 55159, Note_on_c, 0, 79, 36
2, 55160, Note_on_c, 0, 89, 60
2, 55168, Note_on_c, 0, 86, 29
2, 55193, Control_c, 0, 64, 0
2, 55193, Note_on_c, 0, 64, 31
2, 55195, Note_on_c, 0, 59, 48
2, 55200, Note_on_c, 0, 53, 19
2, 55204, Note_on_c, 0, 64, 0
2, 55206, Note_on_c, 0, 59, 0
2, 55209, Control_c, 0, 64, 127
2, 55213, Note_on_c, 0, 53, 0
2, 55236, Note_on_c, 0, 86, 0
2, 55238, Note_on_c, 0, 89, 0
2, 55245, Note_on_c, 0, 55, 53
2, 55249, Note_on_c, 0, 79, 0
2, 55278, Note_on_c, 0, 49, 46
2, 55306, Note_on_c, 0, 49, 0
2, 55315, Note_on_c, 0, 55, 0
2, 55319, Note_on_c, 0, 74, 47
2, 55319, Note_on_c, 0, 86, 48
2, 55321, Control_c, 0, 64, 0
2, 55321, Note_on_c, 0, 58, 42
2, 55322, Note_on_c, 0, 82, 33
2, 55323, Note_on_c, 0, 79, 45
2, 55324, Note_on_c, 0, 48, 49
2, 55341, Control_c, 0, 64, 127
2, 55352, Note_on_c, 0, 48, 0
2, 55368, Note_on_c, 0, 58, 0
2, 55390, Note_on_c, 0, 74, 0
2, 55390, Note_on_c, 0, 86, 0
2, 55405, Note_on_c, 0, 79, 0
2, 55412, Note_on_c, 0, 82, 0
2, 55444, Control_c, 0, 64, 0
2, 55444, Note_on_c, 0, 85, 55
2, 55445, Note_on_c, 0, 62, 34
2, 55445, Note_on_c, 0, 73, 44
2, 55445, Note_on_c, 0, 58, 33
2, 55446, Note_on_c, 0, 52, 36
2, 55449, Note_on_c, 0, 82, 38
2, 55450, Note_on_c, 0, 79, 36
2, 55467, Control_c, 0, 64, 127
2, 55475, Note_on_c, 0, 82, 0
2, 55477, Note_on_c, 0, 79, 0
2, 55481, Note_on_c, 0, 85, 0
2, 55485, Note_on_c, 0, 73, 0
2, 55510, Note_on_c, 0, 52, 0
2, 55517, Note_on_c, 0, 62, 0
2, 55525, Note_on_c, 0, 86, 60
2, 55528, Note_on_c, 0, 82, 37
2, 55529, Note_on_c, 0, 74, 27
2, 55530, Note_on_c, 0, 79, 37
2, 55538, Note_on_c, 0, 74, 0
2, 55540, Note_on_c, 0, 86, 0
2, 55544, Note_on_c, 0, 79, 0
2, 55546, Note_on_c, 0, 82, 0
2, 55546, Note_on_c, 0, 58, 0
2, 55566, Note_on_c, 0, 62, 46
2, 55569, Note_on_c, 0, 57, 41
2, 55570, Note_on_c, 0, 51, 33
2, 55571, Control_c, 0, 64, 0
2, 55593, Control_c, 0, 64, 127
2, 55621, Note_on_c, 0, 62, 0
2, 55628, Note_on_c, 0, 57, 0
2, 55636, Note_on_c, 0, 51, 0
2, 55647, Note_on_c, 0, 82, 57
2, 55651, Note_on_c, 0, 70, 25
2, 55656, Note_on_c, 0, 70, 0
2, 55663, Note_on_c, 0, 82, 0
2, 55690, Control_c, 0, 64, 0
2, 55691, Note_on_c, 0, 84, 75
2, 55692, Note_on_c, 0, 51, 40
2, 55694, Note_on_c, 0, 41, 36
2, 55694, Note_on_c, 0, 72, 58
2, 55715, Control_c, 0, 64, 127
2, 55731, Note_on_c, 0, 84, 0
2, 55734, Note_on_c, 0, 41, 0
2, 55738, Note_on_c, 0, 72, 0
2, 55749, Note_on_c, 0, 51, 0
2, 55772, Note_on_c, 0, 82, 67
2, 55775, Note_on_c, 0, 70, 50
2, 55777, Note_on_c, 0, 77, 51
2, 55785, Note_on_c, 0, 77, 0
2, 55792, Note_on_c, 0, 82, 0
2, 55800, Note_on_c, 0, 70, 0
2, 55806, Control_c, 0, 64, 0
2, 55813, Note_on_c, 0, 46, 40
2, 55831, Control_c, 0, 64, 127
2, 55890, Note_on_c, 0, 55, 59
2, 55890, Note_on_c, 0, 70, 80
2, 55892, Note_on_c, 0, 60, 74
2, 55893, Note_on_c, 0, 65, 72
2, 55914, Note_on_c, 0, 60, 0
2, 55916, Note_on_c, 0, 70, 0
2, 55921, Note_on_c, 0, 65, 0
2, 55925, Note_on_c, 0, 55, 0
2, 55929, Note_on_c, 0, 54, 59
2, 55930, Control_c, 0, 64, 0
2, 55939, Note_on_c, 0, 69, 31
2, 55940, Note_on_c, 0, 59, 20
2, 55943, Note_on_c, 0, 64, 27
2, 55960, Control_c, 0, 64, 127
2, 55970, Note_on_c, 0, 69, 0
2, 55973, Note_on_c, 0, 59, 0
2, 55977, Note_on_c, 0, 64, 0
2, 55993, Note_on_c, 0, 54, 0
2, 56016, Note_on_c, 0, 70, 71
2, 56017, Note_on_c, 0, 65, 65
2, 56018, Note_on_c, 0, 60, 60
2, 56023, Note_on_c, 0, 60, 0
2, 56023, Note_on_c, 0, 65, 0
2, 56025, Note_on_c, 0, 55, 41
2, 56031, Note_on_c, 0, 55, 0
2, 56031, Note_on_c, 0, 46, 0
2, 56035, Note_on_c, 0, 70, 0
2, 56059, Note_on_c, 0, 58, 72
2, 56060, Note_on_c, 0, 74, 77
2, 56060, Note_on_c, 0, 64, 71
2, 56061, Note_on_c, 0, 69, 72
2, 56062, Control_c, 0, 64, 0
2, 56088, Control_c, 0, 64, 127
2, 56107, Note_on_c, 0, 74, 0
2, 56109, Note_on_c, 0, 69, 0
2, 56121, Note_on_c, 0, 64, 0
2, 56123, Note_on_c, 0, 58, 0
2, 56135, Note_on_c, 0, 72, 50
2, 56138, Note_on_c, 0, 62, 34
2, 56138, Note_on_c, 0, 67, 49
2, 56140, Note_on_c, 0, 57, 45
2, 56152, Note_on_c, 0, 67, 0
2, 56155, Note_on_c, 0, 62, 0
2, 56160, Note_on_c, 0, 72, 0
2, 56169, Note_on_c, 0, 57, 0
2, 56175, Control_c, 0, 64, 0
2, 56179, Note_on_c, 0, 70, 55
2, 56179, Note_on_c, 0, 55, 34
2, 56193, Control_c, 0, 64, 127
2, 56226, Note_on_c, 0, 70, 0
2, 56232, Note_on_c, 0, 55, 0
2, 56254, Note_on_c, 0, 64, 33
2, 56254, Note_on_c, 0, 69, 50
2, 56261, Note_on_c, 0, 67, 28
2, 56278, Control_c, 0, 64, 0
2, 56282, Note_on_c, 0, 64, 0
2, 56283, Note_on_c, 0, 67, 0
2, 56288, Note_on_c, 0, 69, 0
2, 56290, Note_on_c, 0, 50, 35
2, 56297, Control_c, 0, 64, 127
2, 56303, Note_on_c, 0, 60, 7
2, 56331, Note_on_c, 0, 60, 0
2, 56337, Note_on_c, 0, 86, 63
2, 56355, Note_on_c, 0, 86, 0
2, 56373, Note_on_c, 0, 74, 43
2, 56379, Note_on_c, 0, 74, 0
2, 56410, Control_c, 0, 64, 0
2, 56411, Note_on_c, 0, 62, 43
2, 56411, Note_on_c, 0, 74, 36
2, 56418, Note_on_c, 0, 74, 0
2, 56424, Control_c, 0, 64, 127
2, 56426, Note_on_c, 0, 50, 0
2, 56438, Note_on_c, 0, 62, 0
2, 56447, Note_on_c, 0, 74, 41
2, 56469, Note_on_c, 0, 74, 0
2, 56483, Note_on_c, 0, 86, 62
2, 56498, Note_on_c, 0, 86, 0
2, 56524, Note_on_c, 0, 65, 29
2, 56525, Note_on_c, 0, 60, 34
2, 56526, Control_c, 0, 64, 0
2, 56526, Note_on_c, 0, 96, 80
2, 56526, Note_on_c, 0, 55, 32
2, 56527, Note_on_c, 0, 61, 23
2, 56546, Note_on_c, 0, 96, 0
2, 56560, Control_c, 0, 64, 127
2, 56565, Note_on_c, 0, 96, 75
2, 56578, Note_on_c, 0, 96, 0
2, 56593, Note_on_c, 0, 94, 72
2, 56602, Note_on_c, 0, 65, 0
2, 56606, Note_on_c, 0, 94, 0
2, 56607, Note_on_c, 0, 60, 0
2, 56617, Note_on_c, 0, 61, 0
2, 56618, Note_on_c, 0, 85, 69
2, 56632, Note_on_c, 0, 85, 0
2, 56645, Control_c, 0, 64, 0
2, 56647, Note_on_c, 0, 65, 34
2, 56647, Note_on_c, 0, 84, 66
2, 56647, Note_on_c, 0, 61, 19
2, 56651, Note_on_c, 0, 60, 18
2, 56661, Note_on_c, 0, 84, 0
2, 56666, Control_c, 0, 64, 127
2, 56674, Note_on_c, 0, 82, 63
2, 56690, Note_on_c, 0, 82, 0
2, 56699, Note_on_c, 0, 65, 0
2, 56703, Note_on_c, 0, 81, 49
2, 56713, Note_on_c, 0, 60, 0
2, 56716, Note_on_c, 0, 81, 0
2, 56722, Note_on_c, 0, 61, 0
2, 56722, Note_on_c, 0, 55, 0
2, 56733, Note_on_c, 0, 84, 74
2, 56752, Note_on_c, 0, 84, 0
2, 56761, Note_on_c, 0, 81, 59
2, 56763, Control_c, 0, 64, 0
2, 56764, Note_on_c, 0, 64, 28
2, 56766, Note_on_c, 0, 60, 36
2, 56767, Note_on_c, 0, 54, 25
2, 56786, Note_on_c, 0, 81, 0
2, 56788, Control_c, 0, 64, 127
2, 56796, Note_on_c, 0, 64, 0
2, 56797, Note_on_c, 0, 74, 47
2, 56798, Note_on_c, 0, 60, 0
2, 56811, Note_on_c, 0, 54, 0
2, 56820, Note_on_c, 0, 74, 0
2, 56834, Note_on_c, 0, 74, 49
2, 56854, Note_on_c, 0, 74, 0
2, 56878, Note_on_c, 0, 60, 33
2, 56878, Note_on_c, 0, 74, 30
2, 56882, Note_on_c, 0, 54, 21
2, 56883, Note_on_c, 0, 60, 0
2, 56883, Control_c, 0, 64, 0
2, 56884, Note_on_c, 0, 74, 0
2, 56884, Note_on_c, 0, 50, 17
2, 56890, Note_on_c, 0, 54, 0
2, 56894, Note_on_c, 0, 50, 0
2, 56908, Control_c, 0, 64, 127
2, 56960, Note_on_c, 0, 55, 55
2, 56992, Note_on_c, 0, 55, 0
2, 57000, Note_on_c, 0, 38, 27
2, 57000, Note_on_c, 0, 54, 46
2, 57002, Note_on_c, 0, 26, 35
2, 57003, Control_c, 0, 64, 0
2, 57021, Note_on_c, 0, 26, 0
2, 57025, Control_c, 0, 64, 127
2, 57037, Note_on_c, 0, 38, 0
2, 57082, Note_on_c, 0, 54, 0
2, 57120, Note_on_c, 0, 54, 44
2, 57121, Note_on_c, 0, 52, 45
2, 57125, Control_c, 0, 64, 0
2, 57125, Note_on_c, 0, 57, 34
2, 57134, Control_c, 0, 64, 127
2, 57135, Note_on_c, 0, 52, 0
2, 57142, Note_on_c, 0, 57, 0
2, 57142, Note_on_c, 0, 54, 0
2, 57198, Note_on_c, 0, 50, 55
2, 57199, Note_on_c, 0, 72, 82
2, 57200, Note_on_c, 0, 62, 82
2, 57200, Note_on_c, 0, 69, 78
2, 57229, Note_on_c, 0, 62, 0
2, 57231, Note_on_c, 0, 72, 0
2, 57232, Note_on_c, 0, 69, 0
2, 57244, Note_on_c, 0, 43, 38
2, 57245, Note_on_c, 0, 50, 0
2, 57246, Note_on_c, 0, 62, 27
2, 57246, Control_c, 0, 64, 0
2, 57247, Note_on_c, 0, 70, 59
2, 57247, Note_on_c, 0, 67, 46
2, 57248, Note_on_c, 0, 55, 43
2, 57274, Note_on_c, 0, 43, 0
2, 57281, Control_c, 0, 64, 127
2, 57293, Note_on_c, 0, 55, 0
2, 57329, Note_on_c, 0, 67, 0
2, 57330, Note_on_c, 0, 62, 0
2, 57364, Note_on_c, 0, 67, 37
2, 57365, Note_on_c, 0, 62, 31
2, 57367, Note_on_c, 0, 58, 39
2, 57391, Note_on_c, 0, 58, 0
2, 57394, Note_on_c, 0, 67, 0
2, 57396, Note_on_c, 0, 70, 0
2, 57407, Note_on_c, 0, 62, 0
2, 57439, Note_on_c, 0, 69, 85
2, 57440, Note_on_c, 0, 62, 84
2, 57482, Control_c, 0, 64, 0
2, 57486, Note_on_c, 0, 55, 34
2, 57486, Note_on_c, 0, 45, 29
2, 57523, Note_on_c, 0, 64, 49
2, 57524, Control_c, 0, 64, 127
2, 57525, Note_on_c, 0, 69, 0
2, 57527, Note_on_c, 0, 59, 39
2, 57550, Note_on_c, 0, 59, 0
2, 57560, Note_on_c, 0, 62, 0
2, 57562, Note_on_c, 0, 64, 0
2, 57563, Note_on_c, 0, 55, 0
2, 57565, Note_on_c, 0, 59, 48
2, 57576, Note_on_c, 0, 59, 0
2, 57602, Note_on_c, 0, 45, 0
2, 57606, Note_on_c, 0, 63, 44
2, 57608, Note_on_c, 0, 55, 43
2, 57608, Control_c, 0, 64, 0
2, 57609, Note_on_c, 0, 49, 33
2, 57610, Note_on_c, 0, 58, 35
2, 57612, Note_on_c, 0, 61, 31
2, 57621, Note_on_c, 0, 61, 0
2, 57621, Note_on_c, 0, 55, 0
2, 57625, Note_on_c, 0, 58, 0
2, 57626, Control_c, 0, 64, 127
2, 57629, Note_on_c, 0, 63, 0
2, 57649, Note_on_c, 0, 67, 55
2, 57650, Note_on_c, 0, 58, 59
2, 57652, Control_c, 0, 64, 0
2, 57652, Note_on_c, 0, 61, 54
2, 57654, Note_on_c, 0, 52, 49
2, 57656, Note_on_c, 0, 64, 36
2, 57665, Note_on_c, 0, 49, 0
2, 57677, Control_c, 0, 64, 127
2, 57696, Note_on_c, 0, 64, 0
2, 57700, Note_on_c, 0, 67, 0
2, 57706, Note_on_c, 0, 52, 0
2, 57708, Note_on_c, 0, 61, 0
2, 57712, Note_on_c, 0, 58, 0
2, 57729, Control_c, 0, 64, 0
2, 57731, Note_on_c, 0, 66, 40
2, 57732, Note_on_c, 0, 50, 34
2, 57733, Note_on_c, 0, 57, 37
2, 57735, Note_on_c, 0, 62, 33
2, 57747, Note_on_c, 0, 50, 0
2, 57750, Control_c, 0, 64, 127
2, 57808, Note_on_c, 0, 26, 50
2, 57815, Control_c, 0, 64, 0
2, 57817, Note_on_c, 0, 57, 0
2, 57821, Note_on_c, 0, 62, 0
2, 57821, Note_on_c, 0, 26, 0
2, 57822, Control_c, 0, 64, 127
2, 57833, Note_on_c, 0, 66, 0
2, 57902, Note_on_c, 0, 77, 61
2, 57903, Note_on_c, 0, 72, 47
2, 57906, Note_on_c, 0, 73, 56
2, 57908, Note_on_c, 0, 60, 38
2, 57908, Note_on_c, 0, 65, 41
2, 57908, Note_on_c, 0, 61, 26
2, 57910, Note_on_c, 0, 55, 29
2, 57911, Control_c, 0, 64, 0
2, 57919, Control_c, 0, 64, 127
2, 57938, Note_on_c, 0, 77, 0
2, 57943, Note_on_c, 0, 65, 0
2, 57943, Note_on_c, 0, 72, 0
2, 57948, Note_on_c, 0, 60, 0
2, 57949, Note_on_c, 0, 73, 0
2, 57951, Note_on_c, 0, 55, 0
2, 57953, Note_on_c, 0, 61, 0
2, 57979, Note_on_c, 0, 75, 52
2, 57979, Note_on_c, 0, 66, 42
2, 57982, Note_on_c, 0, 64, 29
2, 57983, Note_on_c, 0, 72, 46
2, 57984, Note_on_c, 0, 54, 27
2, 57985, Note_on_c, 0, 60, 37
2, 57987, Control_c, 0, 64, 0
2, 57996, Control_c, 0, 64, 127
2, 58000, Note_on_c, 0, 64, 0
2, 58003, Note_on_c, 0, 60, 0
2, 58008, Note_on_c, 0, 72, 0
2, 58013, Note_on_c, 0, 66, 0
2, 58015, Note_on_c, 0, 75, 0
2, 58015, Note_on_c, 0, 54, 0
2, 58059, Note_on_c, 0, 50, 73
2, 58061, Note_on_c, 0, 76, 55
2, 58061, Note_on_c, 0, 74, 51
2, 58061, Note_on_c, 0, 62, 56
2, 58062, Note_on_c, 0, 64, 60
2, 58066, Control_c, 0, 64, 0
2, 58066, Note_on_c, 0, 73, 32
2, 58071, Note_on_c, 0, 73, 0
2, 58089, Note_on_c, 0, 62, 0
2, 58090, Note_on_c, 0, 64, 0
2, 58090, Control_c, 0, 64, 127
2, 58091, Note_on_c, 0, 74, 0
2, 58091, Note_on_c, 0, 76, 0
2, 58144, Note_on_c, 0, 50, 0
2, 58145, Note_on_c, 0, 76, 45
2, 58147, Note_on_c, 0, 52, 35
2, 58154, Note_on_c, 0, 76, 0
2, 58175, Note_on_c, 0, 52, 0
2, 58182, Note_on_c, 0, 66, 46
2, 58182, Note_on_c, 0, 78, 49
2, 58184, Note_on_c, 0, 54, 37
2, 58204, Note_on_c, 0, 54, 0
2, 58204, Note_on_c, 0, 78, 0
2, 58207, Note_on_c, 0, 66, 0
2, 58216, Control_c, 0, 64, 0
2, 58225, Note_on_c, 0, 79, 49
2, 58226, Note_on_c, 0, 67, 40
2, 58226, Note_on_c, 0, 55, 44
2, 58235, Control_c, 0, 64, 127
2, 58260, Note_on_c, 0, 79, 0
2, 58261, Note_on_c, 0, 67, 0
2, 58285, Note_on_c, 0, 55, 0
2, 58296, Note_on_c, 0, 81, 49
2, 58299, Note_on_c, 0, 57, 37
2, 58301, Note_on_c, 0, 69, 33
2, 58306, Note_on_c, 0, 57, 0
2, 58307, Note_on_c, 0, 69, 0
2, 58310, Note_on_c, 0, 81, 0
2, 58339, Note_on_c, 0, 82, 59
2, 58341, Note_on_c, 0, 70, 39
2, 58345, Note_on_c, 0, 58, 32
2, 58349, Note_on_c, 0, 70, 0
2, 58354, Note_on_c, 0, 82, 0
2, 58411, Note_on_c, 0, 62, 30
2, 58414, Note_on_c, 0, 86, 43
2, 58415, Note_on_c, 0, 74, 44
2, 58422, Note_on_c, 0, 62, 0
2, 58430, Note_on_c, 0, 74, 0
2, 58437, Note_on_c, 0, 86, 0
2, 58439, Note_on_c, 0, 58, 0
2, 58458, Control_c, 0, 64, 0
2, 58463, Note_on_c, 0, 76, 51
2, 58463, Note_on_c, 0, 55, 39
2, 58464, Note_on_c, 0, 88, 58
2, 58465, Note_on_c, 0, 66, 25
2, 58466, Note_on_c, 0, 61, 34
2, 58480, Control_c, 0, 64, 127
2, 58520, Note_on_c, 0, 88, 0
2, 58524, Note_on_c, 0, 55, 0
2, 58527, Note_on_c, 0, 76, 0
2, 58542, Note_on_c, 0, 61, 0
2, 58544, Note_on_c, 0, 66, 0
2, 58579, Note_on_c, 0, 56, 29
2, 58580, Note_on_c, 0, 67, 27
2, 58581, Note_on_c, 0, 89, 55
2, 58581, Note_on_c, 0, 62, 33
2, 58582, Note_on_c, 0, 77, 47
2, 58595, Note_on_c, 0, 77, 0
2, 58598, Note_on_c, 0, 89, 0
2, 58602, Note_on_c, 0, 67, 0
2, 58609, Note_on_c, 0, 62, 0
2, 58624, Note_on_c, 0, 79, 55
2, 58624, Note_on_c, 0, 91, 53
2, 58625, Note_on_c, 0, 56, 0
2, 58634, Note_on_c, 0, 79, 0
2, 58637, Note_on_c, 0, 91, 0
2, 58658, Note_on_c, 0, 66, 45
2, 58660, Note_on_c, 0, 55, 44
2, 58661, Note_on_c, 0, 61, 44
2, 58663, Note_on_c, 0, 93, 38
2, 58664, Note_on_c, 0, 81, 32
2, 58669, Note_on_c, 0, 93, 0
2, 58670, Note_on_c, 0, 81, 0
2, 58678, Note_on_c, 0, 66, 0
2, 58678, Note_on_c, 0, 55, 0
2, 58694, Note_on_c, 0, 61, 0
2, 58704, Note_on_c, 0, 60, 52
2, 58706, Note_on_c, 0, 54, 37
2, 58710, Control_c, 0, 64, 0
2, 58711, Note_on_c, 0, 65, 17
2, 58711, Note_on_c, 0, 64, 17
2, 58725, Note_on_c, 0, 65, 0
2, 58728, Control_c, 0, 64, 127
2, 58731, Note_on_c, 0, 64, 0
2, 58736, Note_on_c, 0, 60, 0
2, 58742, Note_on_c, 0, 54, 0
2, 58785, Note_on_c, 0, 38, 25
2, 58791, Note_on_c, 0, 38, 0
2, 58820, Note_on_c, 0, 50, 36
2, 58823, Note_on_c, 0, 54, 37
2, 58823, Note_on_c, 0, 62, 41
2, 58824, Note_on_c, 0, 52, 36
2, 58825, Note_on_c, 0, 57, 40
2, 58828, Control_c, 0, 64, 0
2, 58831, Note_on_c, 0, 50, 0
2, 58857, Control_c, 0, 64, 127
2, 58885, Note_on_c, 0, 52, 0
2, 58886, Note_on_c, 0, 57, 0
2, 58895, Note_on_c, 0, 54, 0
2, 58900, Note_on_c, 0, 32, 38
2, 58918, Note_on_c, 0, 62, 0
2, 58920, Note_on_c, 0, 32, 0
2, 58937, Control_c, 0, 64, 0
2, 58942, Note_on_c, 0, 31, 37
2, 58944, Note_on_c, 0, 59, 32
2, 58945, Note_on_c, 0, 53, 26
2, 58946, Note_on_c, 0, 43, 24
2, 58953, Note_on_c, 0, 62, 10
2, 58958, Control_c, 0, 64, 127
2, 58959, Note_on_c, 0, 31, 0
2, 58967, Note_on_c, 0, 53, 0
2, 58972, Note_on_c, 0, 43, 0
2, 58982, Note_on_c, 0, 59, 0
2, 58987, Note_on_c, 0, 62, 0
2, 59064, Note_on_c, 0, 63, 94
2, 59065, Note_on_c, 0, 51, 70
2, 59096, Note_on_c, 0, 63, 0
2, 59103, Note_on_c, 0, 53, 50
2, 59105, Note_on_c, 0, 65, 61
2, 59124, Note_on_c, 0, 53, 0
2, 59129, Note_on_c, 0, 51, 0
2, 59130, Note_on_c, 0, 65, 0
2, 59142, Note_on_c, 0, 67, 64
2, 59148, Note_on_c, 0, 67, 0
2, 59188, Note_on_c, 0, 62, 66
2, 59192, Note_on_c, 0, 48, 54
2, 59193, Note_on_c, 0, 66, 50
2, 59198, Note_on_c, 0, 58, 51
2, 59199, Note_on_c, 0, 69, 66
2, 59201, Control_c, 0, 64, 0
2, 59204, Note_on_c, 0, 74, 80
2, 59237, Control_c, 0, 64, 127
2, 59254, Note_on_c, 0, 74, 0
2, 59273, Note_on_c, 0, 74, 65
2, 59320, Note_on_c, 0, 74, 0
2, 59347, Note_on_c, 0, 74, 60
2, 59363, Note_on_c, 0, 48, 0
2, 59381, Note_on_c, 0, 74, 0
2, 59391, Note_on_c, 0, 58, 0
2, 59432, Note_on_c, 0, 62, 0
2, 59432, Note_on_c, 0, 74, 37
2, 59433, Note_on_c, 0, 69, 0
2, 59450, Note_on_c, 0, 66, 0
2, 59469, Note_on_c, 0, 74, 0
2, 59514, Note_on_c, 0, 53, 28
2, 59523, Note_on_c, 0, 57, 47
2, 59529, Note_on_c, 0, 68, 37
2, 59536, Control_c, 0, 64, 0
2, 59540, Note_on_c, 0, 73, 47
2, 59542, Note_on_c, 0, 63, 28
2, 59547, Note_on_c, 0, 68, 0
2, 59551, Note_on_c, 0, 77, 53
2, 59557, Note_on_c, 0, 73, 0
2, 59558, Control_c, 0, 64, 127
2, 59566, Note_on_c, 0, 77, 0
2, 59585, Note_on_c, 0, 89, 74
2, 59592, Note_on_c, 0, 89, 0
2, 59652, Note_on_c, 0, 89, 58
2, 59675, Note_on_c, 0, 89, 0
2, 59743, Note_on_c, 0, 89, 39
2, 59795, Note_on_c, 0, 89, 0
2, 59861, Note_on_c, 0, 63, 0
2, 59875, Note_on_c, 0, 89, 39
2, 59914, Note_on_c, 0, 89, 0
2, 59941, Note_on_c, 0, 57, 0
2, 59959, Note_on_c, 0, 53, 0
2, 60037, Note_on_c, 0, 46, 31
2, 60038, Note_on_c, 0, 70, 42
2, 60039, Note_on_c, 0, 62, 37
2, 60041, Note_on_c, 0, 53, 27
2, 60044, Control_c, 0, 64, 0
2, 60060, Control_c, 0, 64, 127
2, 60076, Note_on_c, 0, 70, 0
2, 60086, Note_on_c, 0, 53, 0
2, 60092, Note_on_c, 0, 54, 25
2, 60093, Note_on_c, 0, 62, 0
2, 60096, Note_on_c, 0, 70, 46
2, 60099, Note_on_c, 0, 63, 42
2, 60151, Note_on_c, 0, 54, 0
2, 60155, Note_on_c, 0, 63, 0
2, 60155, Note_on_c, 0, 51, 32
2, 60157, Note_on_c, 0, 60, 31
2, 60161, Control_c, 0, 64, 0
2, 60182, Control_c, 0, 64, 127
2, 60206, Note_on_c, 0, 51, 0
2, 60217, Note_on_c, 0, 61, 36
2, 60219, Control_c, 0, 64, 0
2, 60229, Control_c, 0, 64, 127
2, 60239, Note_on_c, 0, 60, 0
2, 60265, Note_on_c, 0, 70, 0
2, 60279, Note_on_c, 0, 61, 0
2, 60281, Note_on_c, 0, 70, 31
2, 60284, Note_on_c, 0, 62, 35
2, 60284, Note_on_c, 0, 53, 29
2, 60291, Control_c, 0, 64, 0
2, 60314, Control_c, 0, 64, 127
2, 60329, Note_on_c, 0, 53, 0
2, 60332, Note_on_c, 0, 70, 0
2, 60349, Note_on_c, 0, 63, 48
2, 60351, Note_on_c, 0, 55, 33
2, 60351, Note_on_c, 0, 70, 36
2, 60360, Control_c, 0, 64, 0
2, 60364, Note_on_c, 0, 62, 0
2, 60373, Control_c, 0, 64, 127
2, 60397, Note_on_c, 0, 55, 0
2, 60418, Note_on_c, 0, 51, 41
2, 60419, Note_on_c, 0, 60, 54
2, 60430, Note_on_c, 0, 63, 0
2, 60434, Control_c, 0, 64, 0
2, 60456, Control_c, 0, 64, 127
2, 60477, Note_on_c, 0, 51, 0
2, 60495, Note_on_c, 0, 61, 59
2, 60496, Note_on_c, 0, 52, 46
2, 60504, Control_c, 0, 64, 0
2, 60523, Control_c, 0, 64, 127
2, 60539, Note_on_c, 0, 60, 0
2, 60569, Note_on_c, 0, 52, 0
2, 60612, Note_on_c, 0, 61, 0
2, 60615, Note_on_c, 0, 62, 38
2, 60618, Note_on_c, 0, 53, 39
2, 60630, Control_c, 0, 64, 0
2, 60683, Control_c, 0, 64, 127
2, 60716, Note_on_c, 0, 53, 0
2, 60731, Note_on_c, 0, 46, 0
2, 60801, Note_on_c, 0, 62, 0
2, 60806, Note_on_c, 0, 70, 0
2, 60830, Note_on_c, 0, 34, 27
2, 60830, Note_on_c, 0, 22, 32
2, 60858, Note_on_c, 0, 34, 0
2, 60860, Note_on_c, 0, 22, 0
2, 61145, Control_c, 0, 64, 0
2, 62105, Lyric_t, " "
2, 62105, End_track
3, 0, Start_track
3, 0, MIDI_port, 0
3, 0, Program_c, 0, 0
3, 0, End_track
0, 0, End_of_file
