0, 0, Header, 1, 5, 960
1, 0, Start_track
1, 0, Title_t, "Nocturne in Eb Major - Chopin"
1, 0, Text_t, "dougmck@tpg.com.au\012"
1, 0, Time_signature, 3, 2, 24, 8
1, 0, Key_signature, -3, "major"
1, 0, Tempo, 666667
1, 0, End_track
2, 0, Start_track
2, 0, Title_t, "Piano "
2, 0, Program_c, 0, 0
2, 0, Note_on_c, 0, 67, 36
2, 17, Control_c, 0, 64, 0
2, 19, Note_on_c, 0, 51, 25
2, 26, Note_on_c, 0, 74, 53
2, 55, Note_on_c, 0, 58, 29
2, 99, Note_on_c, 0, 79, 39
2, 305, Control_c, 0, 64, 127
2, 724, Note_on_c, 0, 74, 0
2, 761, Note_on_c, 0, 67, 0
2, 1094, Note_on_c, 0, 63, 30
2, 1123, Note_on_c, 0, 67, 20
2, 1870, Note_on_c, 0, 79, 0
2, 2029, Note_on_c, 0, 63, 0
2, 2045, Note_on_c, 0, 67, 0
2, 2126, Note_on_c, 0, 51, 0
2, 2152, Note_on_c, 0, 58, 0
2, 2643, Note_on_c, 0, 51, 35
2, 2741, Note_on_c, 0, 56, 49
2, 2845, Note_on_c, 0, 59, 34
2, 2855, Note_on_c, 0, 67, 56
2, 2911, Note_on_c, 0, 71, 53
2, 2947, Note_on_c, 0, 74, 57
2, 2974, Note_on_c, 0, 62, 32
2, 2988, Control_c, 0, 64, 0
2, 3071, Note_on_c, 0, 79, 74
2, 3349, Control_c, 0, 64, 127
2, 3659, Note_on_c, 0, 79, 0
2, 3762, Note_on_c, 0, 77, 62
2, 3911, Note_on_c, 0, 71, 0
2, 3938, Note_on_c, 0, 74, 0
2, 4214, Note_on_c, 0, 67, 0
2, 4398, Note_on_c, 0, 77, 0
2, 4483, Note_on_c, 0, 79, 78
2, 4986, Note_on_c, 0, 79, 0
2, 5097, Note_on_c, 0, 77, 69
2, 5107, Note_on_c, 0, 59, 0
2, 5118, Note_on_c, 0, 62, 0
2, 5288, Note_on_c, 0, 51, 0
2, 5308, Note_on_c, 0, 77, 0
2, 5367, Note_on_c, 0, 56, 0
2, 5747, Control_c, 0, 64, 0
2, 5794, Note_on_c, 0, 77, 38
2, 5811, Note_on_c, 0, 70, 35
2, 5843, Note_on_c, 0, 51, 28
2, 5877, Note_on_c, 0, 58, 23
2, 6021, Control_c, 0, 64, 127
2, 6490, Note_on_c, 0, 70, 0
2, 6861, Note_on_c, 0, 62, 31
2, 6864, Note_on_c, 0, 67, 29
2, 6900, Note_on_c, 0, 70, 20
2, 7291, Note_on_c, 0, 62, 0
2, 7304, Note_on_c, 0, 77, 0
2, 7579, Note_on_c, 0, 58, 0
2, 7643, Note_on_c, 0, 67, 0
2, 7678, Note_on_c, 0, 70, 0
2, 7825, Note_on_c, 0, 51, 0
2, 8646, Control_c, 0, 64, 0
2, 8649, Note_on_c, 0, 75, 46
2, 8657, Note_on_c, 0, 63, 36
2, 8713, Note_on_c, 0, 67, 30
2, 8722, Note_on_c, 0, 58, 25
2, 8748, Note_on_c, 0, 50, 30
2, 8877, Control_c, 0, 64, 127
2, 9129, Note_on_c, 0, 67, 0
2, 9214, Note_on_c, 0, 63, 0
2, 9632, Note_on_c, 0, 75, 0
2, 9677, Note_on_c, 0, 50, 0
2, 9762, Note_on_c, 0, 58, 0
2, 11178, Note_on_c, 0, 70, 59
2, 11300, Note_on_c, 0, 70, 0
2, 11600, Note_on_c, 0, 64, 46
2, 11605, Control_c, 0, 64, 0
2, 11610, Note_on_c, 0, 58, 51
2, 11613, Note_on_c, 0, 79, 88
2, 11614, Note_on_c, 0, 69, 44
2, 11953, Control_c, 0, 64, 127
2, 12373, Control_c, 0, 64, 0
2, 12588, Control_c, 0, 64, 127
2, 13494, Note_on_c, 0, 69, 0
2, 13497, Note_on_c, 0, 58, 0
2, 13544, Note_on_c, 0, 64, 0
2, 13868, Note_on_c, 0, 79, 0
2, 14026, Note_on_c, 0, 72, 51
2, 14381, Note_on_c, 0, 72, 0
2, 14391, Control_c, 0, 64, 0
2, 14427, Note_on_c, 0, 64, 34
2, 14448, Note_on_c, 0, 84, 64
2, 14451, Note_on_c, 0, 69, 28
2, 14453, Note_on_c, 0, 58, 37
2, 14456, Note_on_c, 0, 62, 53
2, 15474, Control_c, 0, 64, 127
2, 15862, Note_on_c, 0, 84, 0
2, 15953, Note_on_c, 0, 69, 0
2, 16007, Note_on_c, 0, 64, 0
2, 16043, Note_on_c, 0, 62, 0
2, 16275, Note_on_c, 0, 58, 0
2, 17056, Note_on_c, 0, 79, 17
2, 17138, Note_on_c, 0, 79, 0
2, 17234, Control_c, 0, 64, 0
2, 17295, Note_on_c, 0, 61, 21
2, 17311, Note_on_c, 0, 82, 39
2, 17315, Note_on_c, 0, 53, 31
2, 17328, Note_on_c, 0, 58, 33
2, 17369, Note_on_c, 0, 55, 22
2, 17448, Note_on_c, 0, 70, 7
2, 17707, Note_on_c, 0, 55, 0
2, 17714, Note_on_c, 0, 53, 0
2, 17717, Note_on_c, 0, 70, 0
2, 17730, Note_on_c, 0, 82, 0
2, 17763, Note_on_c, 0, 58, 0
2, 17766, Note_on_c, 0, 61, 0
2, 17917, Note_on_c, 0, 82, 35
2, 17929, Note_on_c, 0, 61, 39
2, 17942, Note_on_c, 0, 70, 33
2, 17958, Control_c, 0, 64, 127
2, 17978, Note_on_c, 0, 58, 36
2, 18008, Note_on_c, 0, 55, 25
2, 18010, Note_on_c, 0, 53, 28
2, 18173, Note_on_c, 0, 70, 0
2, 18188, Note_on_c, 0, 82, 0
2, 18218, Note_on_c, 0, 55, 0
2, 18225, Note_on_c, 0, 61, 0
2, 18225, Note_on_c, 0, 53, 0
2, 18257, Note_on_c, 0, 58, 0
2, 18335, Note_on_c, 0, 82, 36
2, 18336, Note_on_c, 0, 61, 30
2, 18363, Note_on_c, 0, 70, 31
2, 18373, Note_on_c, 0, 58, 28
2, 18408, Note_on_c, 0, 53, 25
2, 18426, Note_on_c, 0, 55, 19
2, 18743, Note_on_c, 0, 70, 0
2, 18765, Note_on_c, 0, 82, 0
2, 18784, Note_on_c, 0, 53, 0
2, 18786, Note_on_c, 0, 55, 0
2, 18827, Note_on_c, 0, 61, 0
2, 18839, Note_on_c, 0, 58, 0
2, 18934, Note_on_c, 0, 82, 76
2, 18946, Note_on_c, 0, 61, 62
2, 18947, Note_on_c, 0, 70, 75
2, 18950, Note_on_c, 0, 58, 58
2, 18972, Note_on_c, 0, 53, 53
2, 18982, Note_on_c, 0, 55, 44
2, 19416, Note_on_c, 0, 55, 0
2, 19428, Note_on_c, 0, 70, 0
2, 19430, Note_on_c, 0, 61, 0
2, 19442, Note_on_c, 0, 82, 0
2, 19443, Note_on_c, 0, 58, 0
2, 19448, Note_on_c, 0, 53, 0
2, 19608, Note_on_c, 0, 61, 25
2, 19669, Note_on_c, 0, 61, 0
2, 19910, Note_on_c, 0, 61, 31
2, 19931, Note_on_c, 0, 58, 48
2, 19933, Note_on_c, 0, 82, 60
2, 19949, Note_on_c, 0, 53, 31
2, 19959, Note_on_c, 0, 70, 52
2, 20095, Note_on_c, 0, 82, 0
2, 20113, Note_on_c, 0, 70, 0
2, 20121, Note_on_c, 0, 61, 0
2, 20173, Note_on_c, 0, 58, 0
2, 20238, Control_c, 0, 64, 0
2, 20315, Note_on_c, 0, 80, 40
2, 20317, Note_on_c, 0, 60, 30
2, 20330, Note_on_c, 0, 68, 32
2, 20333, Note_on_c, 0, 56, 34
2, 20569, Control_c, 0, 64, 127
2, 20866, Note_on_c, 0, 56, 0
2, 20943, Note_on_c, 0, 60, 0
2, 21214, Note_on_c, 0, 60, 25
2, 21243, Note_on_c, 0, 56, 30
2, 21301, Note_on_c, 0, 68, 0
2, 21457, Note_on_c, 0, 80, 0
2, 21874, Note_on_c, 0, 60, 0
2, 21897, Note_on_c, 0, 53, 0
2, 21926, Note_on_c, 0, 56, 0
2, 22686, Note_on_c, 0, 79, 88
2, 23124, Control_c, 0, 64, 0
2, 23133, Note_on_c, 0, 56, 29
2, 23147, Note_on_c, 0, 62, 29
2, 23173, Note_on_c, 0, 67, 22
2, 23801, Note_on_c, 0, 77, 65
2, 23812, Note_on_c, 0, 79, 0
2, 24094, Control_c, 0, 64, 127
2, 24961, Note_on_c, 0, 67, 0
2, 25229, Note_on_c, 0, 56, 0
2, 25417, Note_on_c, 0, 62, 0
2, 25895, Note_on_c, 0, 77, 0
2, 25984, Control_c, 0, 64, 0
2, 25999, Note_on_c, 0, 65, 35
2, 26018, Note_on_c, 0, 59, 26
2, 26038, Note_on_c, 0, 62, 30
2, 26458, Control_c, 0, 64, 127
2, 26763, Control_c, 0, 64, 0
2, 26993, Control_c, 0, 64, 127
2, 27405, Note_on_c, 0, 79, 89
2, 27637, Note_on_c, 0, 79, 0
2, 27671, Note_on_c, 0, 74, 76
2, 27876, Note_on_c, 0, 74, 0
2, 27991, Note_on_c, 0, 77, 87
2, 28014, Note_on_c, 0, 65, 0
2, 28063, Note_on_c, 0, 62, 0
2, 28141, Note_on_c, 0, 59, 0
2, 28283, Note_on_c, 0, 74, 36
2, 28342, Note_on_c, 0, 77, 0
2, 28479, Note_on_c, 0, 74, 0
2, 28605, Note_on_c, 0, 75, 77
2, 28840, Control_c, 0, 64, 0
2, 28970, Note_on_c, 0, 55, 19
2, 28979, Note_on_c, 0, 48, 28
2, 29100, Control_c, 0, 64, 127
2, 29797, Note_on_c, 0, 63, 36
2, 29835, Note_on_c, 0, 60, 24
2, 29843, Note_on_c, 0, 67, 35
2, 30897, Note_on_c, 0, 60, 0
2, 30935, Note_on_c, 0, 48, 0
2, 31057, Note_on_c, 0, 75, 0
2, 31097, Note_on_c, 0, 67, 0
2, 31346, Note_on_c, 0, 63, 0
2, 31434, Note_on_c, 0, 48, 27
2, 31573, Note_on_c, 0, 55, 0
2, 31655, Control_c, 0, 64, 0
2, 31697, Note_on_c, 0, 57, 31
2, 31700, Note_on_c, 0, 63, 34
2, 31714, Note_on_c, 0, 72, 38
2, 31729, Note_on_c, 0, 66, 39
2, 32062, Control_c, 0, 64, 127
2, 32468, Control_c, 0, 64, 0
2, 32671, Control_c, 0, 64, 127
2, 33154, Note_on_c, 0, 48, 0
2, 33197, Note_on_c, 0, 63, 0
2, 33423, Note_on_c, 0, 72, 0
2, 33479, Note_on_c, 0, 66, 0
2, 33885, Note_on_c, 0, 57, 0
2, 34403, Control_c, 0, 64, 0
2, 34560, Note_on_c, 0, 46, 42
2, 34609, Note_on_c, 0, 70, 35
2, 34648, Control_c, 0, 64, 127
2, 34691, Note_on_c, 0, 46, 0
2, 34703, Note_on_c, 0, 70, 0
2, 35531, Note_on_c, 0, 86, 88
2, 35548, Note_on_c, 0, 67, 50
2, 35558, Note_on_c, 0, 62, 41
2, 35567, Note_on_c, 0, 56, 36
2, 36631, Note_on_c, 0, 67, 0
2, 36685, Note_on_c, 0, 56, 0
2, 36719, Note_on_c, 0, 62, 0
2, 36749, Note_on_c, 0, 86, 0
2, 37123, Note_on_c, 0, 84, 94
2, 37414, Note_on_c, 0, 84, 0
2, 37506, Control_c, 0, 64, 0
2, 37517, Note_on_c, 0, 56, 33
2, 37543, Note_on_c, 0, 62, 35
2, 37560, Note_on_c, 0, 67, 19
2, 37582, Note_on_c, 0, 82, 46
2, 37762, Note_on_c, 0, 82, 0
2, 38117, Note_on_c, 0, 80, 64
2, 38436, Note_on_c, 0, 80, 0
2, 38541, Note_on_c, 0, 79, 33
2, 38546, Control_c, 0, 64, 127
2, 38647, Control_c, 0, 64, 0
2, 38726, Note_on_c, 0, 79, 0
2, 39067, Note_on_c, 0, 80, 51
2, 39266, Note_on_c, 0, 80, 0
2, 39409, Control_c, 0, 64, 127
2, 39539, Note_on_c, 0, 72, 9
2, 39640, Note_on_c, 0, 67, 0
2, 39717, Note_on_c, 0, 62, 0
2, 39746, Note_on_c, 0, 72, 0
2, 39814, Note_on_c, 0, 56, 0
2, 40011, Note_on_c, 0, 74, 49
2, 40237, Note_on_c, 0, 74, 0
2, 40237, Control_c, 0, 64, 0
2, 40370, Note_on_c, 0, 75, 35
2, 40373, Note_on_c, 0, 65, 20
2, 40376, Note_on_c, 0, 55, 15
2, 40395, Note_on_c, 0, 62, 31
2, 40404, Note_on_c, 0, 60, 16
2, 40580, Control_c, 0, 64, 127
2, 40782, Note_on_c, 0, 55, 0
2, 40785, Note_on_c, 0, 60, 0
2, 40813, Note_on_c, 0, 65, 0
2, 40817, Note_on_c, 0, 62, 0
2, 40865, Note_on_c, 0, 75, 0
2, 41927, Note_on_c, 0, 75, 55
2, 41936, Note_on_c, 0, 65, 36
2, 41942, Note_on_c, 0, 55, 30
2, 41943, Note_on_c, 0, 60, 41
2, 41955, Note_on_c, 0, 58, 33
2, 41966, Control_c, 0, 64, 0
2, 42217, Note_on_c, 0, 65, 0
2, 42220, Note_on_c, 0, 75, 0
2, 42223, Note_on_c, 0, 60, 0
2, 42233, Note_on_c, 0, 55, 0
2, 42237, Note_on_c, 0, 58, 0
2, 42337, Note_on_c, 0, 75, 38
2, 42349, Note_on_c, 0, 65, 27
2, 42368, Note_on_c, 0, 55, 8
2, 42384, Note_on_c, 0, 58, 20
2, 42389, Note_on_c, 0, 60, 35
2, 42444, Control_c, 0, 64, 127
2, 42734, Note_on_c, 0, 55, 0
2, 42739, Note_on_c, 0, 60, 0
2, 42756, Note_on_c, 0, 75, 0
2, 42757, Note_on_c, 0, 65, 0
2, 42759, Note_on_c, 0, 58, 0
2, 42920, Note_on_c, 0, 75, 59
2, 42924, Note_on_c, 0, 65, 44
2, 42933, Note_on_c, 0, 58, 35
2, 42946, Note_on_c, 0, 55, 32
2, 42950, Note_on_c, 0, 60, 48
2, 43140, Note_on_c, 0, 65, 0
2, 43143, Note_on_c, 0, 55, 0
2, 43157, Note_on_c, 0, 60, 0
2, 43167, Note_on_c, 0, 58, 0
2, 43173, Note_on_c, 0, 75, 0
2, 43193, Control_c, 0, 64, 0
2, 43311, Note_on_c, 0, 75, 54
2, 43338, Note_on_c, 0, 58, 44
2, 43340, Note_on_c, 0, 65, 49
2, 43351, Note_on_c, 0, 60, 50
2, 43353, Note_on_c, 0, 55, 27
2, 43455, Control_c, 0, 64, 127
2, 44196, Note_on_c, 0, 60, 0
2, 44214, Note_on_c, 0, 55, 0
2, 44227, Note_on_c, 0, 65, 0
2, 44247, Note_on_c, 0, 58, 0
2, 44985, Note_on_c, 0, 75, 0
2, 45169, Note_on_c, 0, 68, 61
2, 45182, Note_on_c, 0, 63, 61
2, 45183, Note_on_c, 0, 60, 52
2, 45185, Note_on_c, 0, 58, 57
2, 45189, Note_on_c, 0, 70, 90
2, 45557, Note_on_c, 0, 68, 0
2, 45587, Note_on_c, 0, 63, 0
2, 45613, Note_on_c, 0, 70, 0
2, 45616, Note_on_c, 0, 60, 0
2, 45662, Note_on_c, 0, 58, 0
2, 45786, Note_on_c, 0, 70, 60
2, 45982, Note_on_c, 0, 70, 0
2, 46010, Control_c, 0, 64, 0
2, 46101, Note_on_c, 0, 65, 55
2, 46105, Note_on_c, 0, 55, 37
2, 46107, Note_on_c, 0, 58, 37
2, 46117, Note_on_c, 0, 79, 69
2, 46118, Note_on_c, 0, 60, 51
2, 46314, Control_c, 0, 64, 127
2, 46420, Note_on_c, 0, 65, 0
2, 46448, Note_on_c, 0, 60, 0
2, 46485, Note_on_c, 0, 79, 0
2, 46501, Note_on_c, 0, 55, 0
2, 46510, Note_on_c, 0, 58, 0
2, 47917, Control_c, 0, 64, 0
2, 48028, Note_on_c, 0, 46, 32
2, 48038, Note_on_c, 0, 58, 29
2, 48049, Note_on_c, 0, 39, 33
2, 48074, Note_on_c, 0, 55, 18
2, 48090, Note_on_c, 0, 53, 17
2, 48133, Control_c, 0, 64, 127
2, 48159, Note_on_c, 0, 39, 0
2, 48199, Note_on_c, 0, 46, 0
2, 48275, Note_on_c, 0, 53, 0
2, 48288, Note_on_c, 0, 55, 0
2, 48410, Note_on_c, 0, 58, 0
2, 49985, Note_on_c, 0, 51, 34
2, 49997, Control_c, 0, 64, 0
2, 49998, Note_on_c, 0, 59, 28
2, 50001, Note_on_c, 0, 56, 51
2, 50049, Note_on_c, 0, 62, 27
2, 50555, Note_on_c, 0, 77, 83
2, 50897, Note_on_c, 0, 77, 0
2, 50987, Note_on_c, 0, 79, 71
2, 51245, Note_on_c, 0, 79, 0
2, 51453, Note_on_c, 0, 77, 68
2, 51510, Control_c, 0, 64, 127
2, 51675, Note_on_c, 0, 59, 0
2, 51714, Note_on_c, 0, 62, 0
2, 51732, Note_on_c, 0, 77, 0
2, 51801, Note_on_c, 0, 79, 36
2, 51807, Note_on_c, 0, 56, 0
2, 51871, Note_on_c, 0, 51, 0
2, 51909, Note_on_c, 0, 77, 46
2, 51948, Note_on_c, 0, 79, 0
2, 52059, Control_c, 0, 64, 0
2, 52119, Note_on_c, 0, 76, 49
2, 52126, Note_on_c, 0, 77, 0
2, 52141, Note_on_c, 0, 51, 23
2, 52161, Note_on_c, 0, 58, 29
2, 52175, Note_on_c, 0, 62, 18
2, 52359, Note_on_c, 0, 76, 0
2, 52426, Note_on_c, 0, 75, 38
2, 53084, Control_c, 0, 64, 127
2, 53640, Note_on_c, 0, 51, 0
2, 53815, Note_on_c, 0, 51, 37
2, 53911, Note_on_c, 0, 75, 0
2, 53928, Note_on_c, 0, 62, 0
2, 54212, Note_on_c, 0, 58, 0
2, 54408, Note_on_c, 0, 51, 0
2, 54584, Control_c, 0, 64, 0
2, 54702, Note_on_c, 0, 50, 34
2, 54715, Note_on_c, 0, 58, 31
2, 54902, Control_c, 0, 64, 127
2, 55335, Note_on_c, 0, 77, 96
2, 55548, Note_on_c, 0, 58, 0
2, 55631, Note_on_c, 0, 77, 0
2, 55667, Control_c, 0, 64, 0
2, 55772, Note_on_c, 0, 75, 61
2, 55775, Note_on_c, 0, 58, 21
2, 56080, Note_on_c, 0, 75, 0
2, 56310, Note_on_c, 0, 74, 77
2, 56537, Note_on_c, 0, 74, 0
2, 56651, Control_c, 0, 64, 127
2, 56695, Note_on_c, 0, 75, 51
2, 56843, Note_on_c, 0, 75, 0
2, 56851, Note_on_c, 0, 50, 0
2, 56943, Note_on_c, 0, 58, 0
2, 57217, Note_on_c, 0, 77, 60
2, 57401, Control_c, 0, 64, 0
2, 57424, Note_on_c, 0, 77, 0
2, 57581, Note_on_c, 0, 48, 30
2, 57603, Note_on_c, 0, 79, 46
2, 57648, Control_c, 0, 64, 127
2, 57672, Note_on_c, 0, 48, 0
2, 58135, Note_on_c, 0, 79, 0
2, 58224, Note_on_c, 0, 71, 35
2, 58500, Control_c, 0, 64, 0
2, 58504, Note_on_c, 0, 71, 0
2, 58558, Note_on_c, 0, 64, 25
2, 58559, Note_on_c, 0, 58, 18
2, 58585, Note_on_c, 0, 72, 40
2, 58804, Control_c, 0, 64, 127
2, 59032, Note_on_c, 0, 72, 0
2, 59195, Note_on_c, 0, 73, 64
2, 59519, Note_on_c, 0, 73, 0
2, 59612, Note_on_c, 0, 72, 33
2, 59613, Note_on_c, 0, 64, 0
2, 59750, Note_on_c, 0, 58, 0
2, 59798, Note_on_c, 0, 72, 0
2, 60131, Note_on_c, 0, 77, 78
2, 60180, Note_on_c, 0, 58, 33
2, 60390, Control_c, 0, 64, 0
2, 60439, Note_on_c, 0, 77, 0
2, 60489, Note_on_c, 0, 58, 0
2, 60528, Note_on_c, 0, 52, 22
2, 60555, Note_on_c, 0, 76, 47
2, 60568, Note_on_c, 0, 75, 32
2, 60679, Control_c, 0, 64, 127
2, 60687, Note_on_c, 0, 75, 0
2, 60937, Note_on_c, 0, 76, 0
2, 61050, Note_on_c, 0, 80, 64
2, 61086, Note_on_c, 0, 68, 38
2, 61273, Note_on_c, 0, 68, 0
2, 61328, Note_on_c, 0, 80, 0
2, 61355, Control_c, 0, 64, 0
2, 61476, Note_on_c, 0, 79, 48
2, 61558, Control_c, 0, 64, 127
2, 61591, Note_on_c, 0, 79, 0
2, 61996, Note_on_c, 0, 64, 33
2, 61998, Note_on_c, 0, 85, 61
2, 62007, Note_on_c, 0, 73, 46
2, 62018, Note_on_c, 0, 58, 23
2, 62163, Control_c, 0, 64, 0
2, 62254, Note_on_c, 0, 73, 0
2, 62290, Note_on_c, 0, 85, 0
2, 62401, Note_on_c, 0, 84, 48
2, 62408, Control_c, 0, 64, 127
2, 62437, Note_on_c, 0, 72, 32
2, 62482, Note_on_c, 0, 52, 0
2, 62551, Note_on_c, 0, 84, 0
2, 62560, Note_on_c, 0, 58, 0
2, 62694, Note_on_c, 0, 64, 0
2, 62701, Note_on_c, 0, 72, 0
2, 63319, Control_c, 0, 64, 0
2, 63373, Note_on_c, 0, 82, 49
2, 63396, Note_on_c, 0, 70, 34
2, 63400, Note_on_c, 0, 61, 25
2, 63445, Note_on_c, 0, 58, 35
2, 63447, Note_on_c, 0, 55, 18
2, 63853, Control_c, 0, 64, 127
2, 63876, Note_on_c, 0, 53, 1
2, 64080, Note_on_c, 0, 58, 0
2, 64133, Note_on_c, 0, 61, 0
2, 64198, Note_on_c, 0, 55, 0
2, 64327, Note_on_c, 0, 61, 42
2, 64377, Note_on_c, 0, 55, 20
2, 64395, Note_on_c, 0, 58, 39
2, 65413, Note_on_c, 0, 58, 0
2, 65430, Note_on_c, 0, 61, 0
2, 65459, Note_on_c, 0, 55, 0
2, 65486, Note_on_c, 0, 53, 0
2, 65505, Note_on_c, 0, 82, 0
2, 65544, Note_on_c, 0, 70, 0
2, 66178, Control_c, 0, 64, 0
2, 66250, Note_on_c, 0, 80, 44
2, 66286, Note_on_c, 0, 56, 26
2, 66307, Note_on_c, 0, 53, 24
2, 66320, Note_on_c, 0, 72, 31
2, 66322, Note_on_c, 0, 60, 29
2, 66457, Note_on_c, 0, 68, 1
2, 66483, Control_c, 0, 64, 127
2, 67203, Note_on_c, 0, 64, 45
2, 67504, Note_on_c, 0, 64, 0
2, 68010, Note_on_c, 0, 72, 0
2, 68119, Note_on_c, 0, 68, 0
2, 68163, Note_on_c, 0, 80, 0
2, 68170, Note_on_c, 0, 65, 34
2, 68351, Note_on_c, 0, 60, 0
2, 68368, Note_on_c, 0, 53, 0
2, 68387, Note_on_c, 0, 56, 0
2, 68432, Note_on_c, 0, 65, 0
2, 68762, Note_on_c, 0, 79, 54
2, 68986, Note_on_c, 0, 79, 0
2, 69084, Note_on_c, 0, 56, 36
2, 69104, Note_on_c, 0, 77, 65
2, 69115, Note_on_c, 0, 67, 32
2, 69125, Note_on_c, 0, 62, 32
2, 69155, Control_c, 0, 64, 0
2, 69350, Note_on_c, 0, 77, 0
2, 69478, Note_on_c, 0, 79, 24
2, 69601, Note_on_c, 0, 77, 57
2, 69609, Note_on_c, 0, 79, 0
2, 69839, Note_on_c, 0, 77, 0
2, 69858, Note_on_c, 0, 76, 57
2, 70026, Note_on_c, 0, 76, 0
2, 70157, Note_on_c, 0, 77, 68
2, 70439, Note_on_c, 0, 77, 0
2, 70449, Note_on_c, 0, 79, 44
2, 70592, Note_on_c, 0, 79, 0
2, 70596, Note_on_c, 0, 77, 43
2, 70765, Note_on_c, 0, 77, 0
2, 70777, Note_on_c, 0, 76, 59
2, 70930, Note_on_c, 0, 76, 0
2, 71016, Note_on_c, 0, 77, 63
2, 71043, Control_c, 0, 64, 127
2, 71114, Note_on_c, 0, 67, 0
2, 71148, Note_on_c, 0, 62, 0
2, 71194, Note_on_c, 0, 77, 0
2, 71239, Note_on_c, 0, 79, 54
2, 71244, Note_on_c, 0, 56, 0
2, 71305, Control_c, 0, 64, 0
2, 71368, Note_on_c, 0, 77, 40
2, 71380, Note_on_c, 0, 79, 0
2, 71516, Note_on_c, 0, 77, 0
2, 71531, Note_on_c, 0, 76, 44
2, 71615, Note_on_c, 0, 76, 0
2, 71700, Note_on_c, 0, 77, 49
2, 71857, Note_on_c, 0, 79, 55
2, 71858, Note_on_c, 0, 77, 0
2, 72015, Note_on_c, 0, 79, 0
2, 72035, Note_on_c, 0, 77, 47
2, 72105, Note_on_c, 0, 55, 22
2, 72125, Note_on_c, 0, 47, 32
2, 72487, Control_c, 0, 64, 127
2, 72703, Note_on_c, 0, 55, 0
2, 72860, Note_on_c, 0, 74, 53
2, 72920, Note_on_c, 0, 77, 0
2, 73876, Note_on_c, 0, 59, 20
2, 73922, Note_on_c, 0, 74, 0
2, 73925, Note_on_c, 0, 55, 15
2, 74226, Note_on_c, 0, 79, 71
2, 74308, Note_on_c, 0, 47, 0
2, 74392, Note_on_c, 0, 59, 0
2, 74459, Note_on_c, 0, 79, 0
2, 74522, Note_on_c, 0, 74, 76
2, 74769, Note_on_c, 0, 74, 0
2, 74854, Control_c, 0, 64, 0
2, 74864, Note_on_c, 0, 48, 47
2, 74868, Note_on_c, 0, 77, 81
2, 74886, Note_on_c, 0, 60, 36
2, 75155, Note_on_c, 0, 77, 0
2, 75167, Note_on_c, 0, 74, 48
2, 75395, Note_on_c, 0, 74, 0
2, 75461, Control_c, 0, 64, 127
2, 75497, Note_on_c, 0, 75, 67
2, 75750, Control_c, 0, 64, 0
2, 75835, Note_on_c, 0, 67, 47
2, 75924, Control_c, 0, 64, 127
2, 76479, Note_on_c, 0, 67, 0
2, 76810, Note_on_c, 0, 60, 0
2, 76842, Note_on_c, 0, 67, 42
2, 76929, Note_on_c, 0, 55, 0
2, 76965, Note_on_c, 0, 48, 0
2, 77010, Note_on_c, 0, 75, 0
2, 77175, Note_on_c, 0, 67, 0
2, 77431, Note_on_c, 0, 54, 55
2, 77451, Note_on_c, 0, 53, 36
2, 77592, Note_on_c, 0, 56, 58
2, 77670, Control_c, 0, 64, 0
2, 77677, Note_on_c, 0, 53, 0
2, 77716, Note_on_c, 0, 54, 0
2, 77719, Note_on_c, 0, 57, 64
2, 77749, Note_on_c, 0, 63, 32
2, 77753, Note_on_c, 0, 56, 0
2, 77772, Note_on_c, 0, 69, 44
2, 77778, Note_on_c, 0, 66, 46
2, 77791, Note_on_c, 0, 72, 47
2, 78589, Note_on_c, 0, 69, 0
2, 78626, Note_on_c, 0, 63, 0
2, 78651, Control_c, 0, 64, 127
2, 78767, Note_on_c, 0, 63, 27
2, 79394, Note_on_c, 0, 63, 0
2, 79396, Note_on_c, 0, 57, 0
2, 79536, Note_on_c, 0, 66, 0
2, 79709, Note_on_c, 0, 72, 0
2, 80496, Control_c, 0, 64, 0
2, 80651, Note_on_c, 0, 60, 33
2, 80660, Note_on_c, 0, 63, 33
2, 80678, Note_on_c, 0, 70, 36
2, 80686, Control_c, 0, 64, 127
2, 80822, Note_on_c, 0, 70, 0
2, 81025, Note_on_c, 0, 60, 0
2, 81074, Note_on_c, 0, 63, 0
2, 81552, Control_c, 0, 64, 0
2, 81632, Note_on_c, 0, 86, 80
2, 81637, Note_on_c, 0, 74, 82
2, 81647, Note_on_c, 0, 62, 50
2, 81649, Note_on_c, 0, 56, 63
2, 81650, Note_on_c, 0, 67, 59
2, 81813, Control_c, 0, 64, 127
2, 82262, Note_on_c, 0, 86, 0
2, 82335, Note_on_c, 0, 74, 0
2, 82567, Note_on_c, 0, 84, 53
2, 82578, Note_on_c, 0, 72, 41
2, 82807, Note_on_c, 0, 67, 0
2, 82858, Note_on_c, 0, 56, 0
2, 82893, Note_on_c, 0, 62, 0
2, 83106, Note_on_c, 0, 72, 0
2, 83231, Note_on_c, 0, 84, 0
2, 83457, Control_c, 0, 64, 0
2, 83523, Note_on_c, 0, 56, 33
2, 83536, Note_on_c, 0, 82, 57
2, 83542, Note_on_c, 0, 67, 25
2, 83559, Note_on_c, 0, 62, 32
2, 83707, Note_on_c, 0, 82, 0
2, 84080, Note_on_c, 0, 80, 50
2, 84222, Note_on_c, 0, 80, 0
2, 84548, Note_on_c, 0, 79, 30
2, 84604, Note_on_c, 0, 79, 0
2, 85014, Note_on_c, 0, 80, 53
2, 85154, Note_on_c, 0, 80, 0
2, 85366, Note_on_c, 0, 80, 36
2, 85489, Note_on_c, 0, 72, 37
2, 85622, Control_c, 0, 64, 127
2, 85645, Note_on_c, 0, 80, 0
2, 85926, Note_on_c, 0, 72, 0
2, 85960, Note_on_c, 0, 67, 0
2, 85975, Note_on_c, 0, 74, 53
2, 86035, Note_on_c, 0, 62, 0
2, 86142, Note_on_c, 0, 56, 0
2, 86244, Control_c, 0, 64, 0
2, 86254, Note_on_c, 0, 74, 0
2, 86336, Note_on_c, 0, 65, 24
2, 86360, Note_on_c, 0, 75, 42
2, 86370, Note_on_c, 0, 60, 38
2, 86379, Note_on_c, 0, 58, 32
2, 86398, Note_on_c, 0, 55, 13
2, 86634, Control_c, 0, 64, 127
2, 87127, Note_on_c, 0, 58, 0
2, 87186, Note_on_c, 0, 60, 0
2, 87330, Note_on_c, 0, 65, 0
2, 87708, Note_on_c, 0, 55, 0
2, 88346, Note_on_c, 0, 65, 31
2, 88352, Control_c, 0, 64, 0
2, 88426, Note_on_c, 0, 58, 19
2, 88444, Note_on_c, 0, 60, 17
2, 88452, Note_on_c, 0, 55, 17
2, 88655, Control_c, 0, 64, 127
2, 88871, Note_on_c, 0, 60, 0
2, 88900, Note_on_c, 0, 58, 0
2, 88917, Note_on_c, 0, 65, 0
2, 88929, Note_on_c, 0, 55, 0
2, 89259, Control_c, 0, 64, 0
2, 89386, Note_on_c, 0, 58, 20
2, 89387, Note_on_c, 0, 65, 22
2, 89421, Note_on_c, 0, 60, 30
2, 89432, Note_on_c, 0, 55, 15
2, 89724, Control_c, 0, 64, 127
2, 89871, Note_on_c, 0, 75, 0
2, 90053, Control_c, 0, 64, 0
2, 90277, Note_on_c, 0, 74, 99
2, 90473, Control_c, 0, 64, 127
2, 90647, Note_on_c, 0, 74, 0
2, 90800, Note_on_c, 0, 60, 0
2, 90841, Note_on_c, 0, 65, 0
2, 90867, Note_on_c, 0, 74, 67
2, 90936, Note_on_c, 0, 58, 0
2, 91081, Note_on_c, 0, 74, 0
2, 91194, Control_c, 0, 64, 0
2, 91223, Note_on_c, 0, 75, 57
2, 91439, Control_c, 0, 64, 127
2, 91516, Note_on_c, 0, 55, 0
2, 91588, Note_on_c, 0, 75, 0
2, 91796, Note_on_c, 0, 75, 49
2, 92079, Note_on_c, 0, 75, 0
2, 92118, Control_c, 0, 64, 0
2, 92166, Note_on_c, 0, 65, 37
2, 92167, Note_on_c, 0, 77, 38
2, 92203, Note_on_c, 0, 62, 26
2, 92216, Note_on_c, 0, 53, 20
2, 92235, Note_on_c, 0, 58, 30
2, 92465, Control_c, 0, 64, 127
2, 92914, Control_c, 0, 64, 0
2, 93115, Control_c, 0, 64, 127
2, 93592, Note_on_c, 0, 65, 0
2, 93960, Note_on_c, 0, 58, 0
2, 93975, Note_on_c, 0, 62, 0
2, 94051, Note_on_c, 0, 53, 0
2, 94081, Note_on_c, 0, 77, 0
2, 95020, Control_c, 0, 64, 0
2, 95265, Control_c, 0, 64, 127
2, 95915, Control_c, 0, 64, 0
2, 96011, Note_on_c, 0, 65, 62
2, 96017, Note_on_c, 0, 91, 79
2, 96019, Note_on_c, 0, 60, 50
2, 96024, Note_on_c, 0, 62, 46
2, 96030, Note_on_c, 0, 55, 40
2, 96038, Note_on_c, 0, 79, 69
2, 96189, Control_c, 0, 64, 127
2, 96712, Note_on_c, 0, 91, 0
2, 97044, Note_on_c, 0, 79, 0
2, 97048, Note_on_c, 0, 55, 0
2, 97080, Note_on_c, 0, 60, 0
2, 97091, Note_on_c, 0, 62, 0
2, 97130, Note_on_c, 0, 65, 0
2, 97576, Note_on_c, 0, 89, 65
2, 97753, Note_on_c, 0, 89, 0
2, 97878, Control_c, 0, 64, 0
2, 97951, Note_on_c, 0, 57, 38
2, 97953, Note_on_c, 0, 60, 37
2, 97957, Note_on_c, 0, 89, 53
2, 97964, Note_on_c, 0, 67, 28
2, 98282, Control_c, 0, 64, 127
2, 98383, Note_on_c, 0, 67, 0
2, 98390, Note_on_c, 0, 60, 0
2, 98400, Note_on_c, 0, 89, 0
2, 98411, Note_on_c, 0, 57, 0
2, 98485, Control_c, 0, 64, 0
2, 98556, Note_on_c, 0, 89, 54
2, 98581, Note_on_c, 0, 57, 36
2, 98595, Note_on_c, 0, 62, 32
2, 98605, Note_on_c, 0, 67, 31
2, 98660, Note_on_c, 0, 62, 0
2, 98672, Note_on_c, 0, 89, 0
2, 98673, Note_on_c, 0, 67, 0
2, 98729, Note_on_c, 0, 57, 0
2, 98902, Control_c, 0, 64, 127
2, 99422, Control_c, 0, 64, 0
2, 99540, Note_on_c, 0, 73, 50
2, 99546, Note_on_c, 0, 63, 60
2, 99551, Note_on_c, 0, 58, 64
2, 99558, Note_on_c, 0, 68, 58
2, 99886, Note_on_c, 0, 68, 0
2, 99888, Note_on_c, 0, 63, 0
2, 99943, Note_on_c, 0, 73, 0
2, 99956, Note_on_c, 0, 58, 0
2, 99978, Note_on_c, 0, 72, 60
2, 99997, Note_on_c, 0, 67, 49
2, 99997, Note_on_c, 0, 57, 46
2, 100025, Note_on_c, 0, 62, 31
2, 100143, Control_c, 0, 64, 127
2, 100350, Note_on_c, 0, 72, 0
2, 100355, Note_on_c, 0, 67, 0
2, 100476, Note_on_c, 0, 62, 0
2, 100563, Note_on_c, 0, 69, 57
2, 100577, Control_c, 0, 64, 0
2, 100582, Note_on_c, 0, 64, 55
2, 100590, Note_on_c, 0, 60, 36
2, 100596, Note_on_c, 0, 53, 35
2, 100631, Note_on_c, 0, 57, 0
2, 100704, Note_on_c, 0, 69, 0
2, 100708, Note_on_c, 0, 53, 0
2, 100717, Note_on_c, 0, 64, 0
2, 100719, Control_c, 0, 64, 127
2, 100839, Note_on_c, 0, 60, 0
2, 100964, Control_c, 0, 64, 0
2, 101071, Note_on_c, 0, 57, 43
2, 101075, Note_on_c, 0, 65, 46
2, 101082, Note_on_c, 0, 60, 38
2, 101106, Note_on_c, 0, 53, 30
2, 101269, Control_c, 0, 64, 127
2, 101516, Control_c, 0, 64, 0
2, 101554, Note_on_c, 0, 57, 0
2, 101611, Note_on_c, 0, 60, 0
2, 101666, Note_on_c, 0, 65, 0
2, 101698, Note_on_c, 0, 41, 41
2, 101732, Control_c, 0, 64, 127
2, 101971, Note_on_c, 0, 53, 0
2, 102379, Note_on_c, 0, 72, 53
2, 102391, Note_on_c, 0, 67, 53
2, 102395, Note_on_c, 0, 60, 39
2, 102432, Note_on_c, 0, 53, 30
2, 102806, Note_on_c, 0, 60, 0
2, 102911, Note_on_c, 0, 41, 0
2, 102931, Note_on_c, 0, 67, 0
2, 102984, Note_on_c, 0, 72, 0
2, 103022, Note_on_c, 0, 48, 39
2, 103088, Note_on_c, 0, 53, 0
2, 103225, Note_on_c, 0, 48, 0
2, 103357, Note_on_c, 0, 41, 28
2, 103463, Note_on_c, 0, 41, 0
2, 103537, Control_c, 0, 64, 0
2, 103657, Note_on_c, 0, 75, 54
2, 103667, Note_on_c, 0, 63, 51
2, 103672, Note_on_c, 0, 44, 48
2, 103692, Note_on_c, 0, 68, 43
2, 103701, Note_on_c, 0, 72, 45
2, 103811, Control_c, 0, 64, 127
2, 103836, Note_on_c, 0, 44, 0
2, 104030, Note_on_c, 0, 63, 0
2, 104126, Note_on_c, 0, 68, 0
2, 104193, Note_on_c, 0, 72, 0
2, 104443, Note_on_c, 0, 75, 0
2, 104652, Note_on_c, 0, 75, 49
2, 104679, Note_on_c, 0, 60, 34
2, 104680, Note_on_c, 0, 63, 19
2, 104683, Note_on_c, 0, 70, 51
2, 104696, Note_on_c, 0, 58, 45
2, 104698, Note_on_c, 0, 72, 47
2, 104711, Note_on_c, 0, 53, 17
2, 105651, Note_on_c, 0, 75, 0
2, 105781, Note_on_c, 0, 53, 0
2, 105907, Note_on_c, 0, 72, 0
2, 105967, Note_on_c, 0, 75, 67
2, 106019, Note_on_c, 0, 60, 0
2, 106057, Note_on_c, 0, 63, 0
2, 106134, Note_on_c, 0, 58, 0
2, 106139, Note_on_c, 0, 75, 0
2, 106173, Note_on_c, 0, 70, 0
2, 106223, Note_on_c, 0, 75, 67
2, 106389, Note_on_c, 0, 75, 0
2, 106552, Control_c, 0, 64, 0
2, 106558, Note_on_c, 0, 75, 68
2, 106564, Note_on_c, 0, 68, 63
2, 106570, Note_on_c, 0, 71, 61
2, 106574, Note_on_c, 0, 65, 70
2, 106580, Note_on_c, 0, 63, 69
2, 106945, Control_c, 0, 64, 127
2, 107303, Control_c, 0, 64, 0
2, 107317, Note_on_c, 0, 65, 0
2, 107398, Note_on_c, 0, 75, 0
2, 107456, Note_on_c, 0, 63, 0
2, 107472, Note_on_c, 0, 65, 43
2, 107497, Note_on_c, 0, 73, 14
2, 107516, Note_on_c, 0, 74, 60
2, 107519, Note_on_c, 0, 62, 46
2, 107565, Control_c, 0, 64, 127
2, 107801, Note_on_c, 0, 71, 0
2, 107853, Note_on_c, 0, 74, 0
2, 107883, Note_on_c, 0, 65, 0
2, 107889, Note_on_c, 0, 68, 0
2, 107938, Note_on_c, 0, 73, 0
2, 108052, Note_on_c, 0, 62, 0
2, 108088, Note_on_c, 0, 68, 64
2, 108090, Note_on_c, 0, 75, 64
2, 108093, Note_on_c, 0, 63, 62
2, 108107, Note_on_c, 0, 65, 64
2, 108238, Note_on_c, 0, 65, 0
2, 108264, Note_on_c, 0, 68, 0
2, 108312, Note_on_c, 0, 75, 0
2, 108402, Control_c, 0, 64, 0
2, 108465, Note_on_c, 0, 70, 67
2, 108487, Note_on_c, 0, 65, 70
2, 108490, Note_on_c, 0, 77, 63
2, 108492, Note_on_c, 0, 68, 68
2, 108505, Note_on_c, 0, 63, 0
2, 108513, Note_on_c, 0, 71, 75
2, 108516, Note_on_c, 0, 70, 0
2, 108518, Note_on_c, 0, 74, 60
2, 108722, Control_c, 0, 64, 127
2, 108861, Note_on_c, 0, 74, 0
2, 108925, Note_on_c, 0, 68, 0
2, 108950, Note_on_c, 0, 65, 0
2, 108967, Control_c, 0, 64, 0
2, 108983, Note_on_c, 0, 71, 0
2, 108999, Note_on_c, 0, 77, 0
2, 109099, Note_on_c, 0, 68, 43
2, 109101, Note_on_c, 0, 62, 43
2, 109108, Note_on_c, 0, 74, 35
2, 109184, Control_c, 0, 64, 127
2, 109217, Note_on_c, 0, 74, 0
2, 109243, Note_on_c, 0, 68, 0
2, 109358, Control_c, 0, 64, 0
2, 109490, Note_on_c, 0, 62, 0
2, 109526, Note_on_c, 0, 75, 40
2, 109542, Note_on_c, 0, 67, 39
2, 109545, Note_on_c, 0, 70, 38
2, 109551, Note_on_c, 0, 63, 52
2, 109567, Note_on_c, 0, 72, 31
2, 109704, Control_c, 0, 64, 127
2, 110027, Note_on_c, 0, 72, 0
2, 110079, Note_on_c, 0, 70, 0
2, 110113, Note_on_c, 0, 63, 0
2, 110119, Note_on_c, 0, 75, 0
2, 110126, Note_on_c, 0, 67, 0
2, 110829, Control_c, 0, 64, 0
2, 110841, Note_on_c, 0, 70, 39
2, 110858, Note_on_c, 0, 57, 47
2, 110864, Note_on_c, 0, 63, 37
2, 110901, Note_on_c, 0, 67, 30
2, 110921, Note_on_c, 0, 57, 0
2, 110933, Note_on_c, 0, 58, 30
2, 111058, Note_on_c, 0, 63, 0
2, 111069, Note_on_c, 0, 67, 0
2, 111084, Note_on_c, 0, 70, 0
2, 111123, Note_on_c, 0, 58, 0
2, 111182, Note_on_c, 0, 57, 32
2, 111363, Note_on_c, 0, 57, 0
2, 111422, Note_on_c, 0, 58, 32
2, 111443, Note_on_c, 0, 70, 37
2, 111445, Note_on_c, 0, 63, 33
2, 111464, Note_on_c, 0, 67, 41
2, 111469, Note_on_c, 0, 60, 24
2, 111494, Control_c, 0, 64, 127
2, 111594, Note_on_c, 0, 58, 0
2, 111724, Note_on_c, 0, 67, 0
2, 111794, Note_on_c, 0, 70, 0
2, 111921, Note_on_c, 0, 63, 0
2, 111944, Note_on_c, 0, 60, 0
2, 112577, Control_c, 0, 64, 0
2, 112638, Note_on_c, 0, 51, 34
2, 112686, Note_on_c, 0, 55, 24
2, 112719, Note_on_c, 0, 65, 26
2, 112737, Note_on_c, 0, 58, 20
2, 112761, Note_on_c, 0, 51, 0
2, 112781, Note_on_c, 0, 53, 27
2, 112942, Note_on_c, 0, 65, 0
2, 112958, Note_on_c, 0, 58, 0
2, 112968, Note_on_c, 0, 55, 0
2, 113008, Note_on_c, 0, 53, 0
2, 113107, Note_on_c, 0, 51, 31
2, 113277, Note_on_c, 0, 58, 31
2, 113291, Note_on_c, 0, 51, 0
2, 113299, Note_on_c, 0, 55, 19
2, 113304, Note_on_c, 0, 65, 41
2, 113307, Note_on_c, 0, 62, 37
2, 113332, Note_on_c, 0, 53, 20
2, 113472, Control_c, 0, 64, 127
2, 113664, Note_on_c, 0, 62, 0
2, 113691, Note_on_c, 0, 55, 0
2, 113720, Note_on_c, 0, 58, 0
2, 113784, Note_on_c, 0, 65, 0
2, 113874, Control_c, 0, 64, 0
2, 113877, Note_on_c, 0, 53, 0
2, 113905, Note_on_c, 0, 63, 33
2, 113912, Note_on_c, 0, 51, 33
2, 113914, Note_on_c, 0, 55, 20
2, 113915, Note_on_c, 0, 58, 30
2, 114150, Control_c, 0, 64, 127
2, 114180, Note_on_c, 0, 55, 0
2, 114276, Note_on_c, 0, 58, 0
2, 114379, Note_on_c, 0, 63, 0
2, 114387, Note_on_c, 0, 51, 0
2, 114849, Note_on_c, 0, 70, 46
2, 114988, Note_on_c, 0, 70, 0
2, 115161, Control_c, 0, 64, 0
2, 115217, Note_on_c, 0, 82, 88
2, 115220, Note_on_c, 0, 61, 57
2, 115224, Note_on_c, 0, 52, 39
2, 115237, Note_on_c, 0, 58, 59
2, 115433, Control_c, 0, 64, 127
2, 115805, Note_on_c, 0, 58, 0
2, 115817, Note_on_c, 0, 61, 0
2, 116188, Note_on_c, 0, 61, 30
2, 116216, Note_on_c, 0, 70, 44
2, 116246, Note_on_c, 0, 58, 33
2, 116547, Note_on_c, 0, 58, 0
2, 116684, Note_on_c, 0, 61, 0
2, 117138, Note_on_c, 0, 61, 31
2, 117210, Note_on_c, 0, 58, 26
2, 117226, Note_on_c, 0, 70, 0
2, 117297, Note_on_c, 0, 82, 0
2, 117466, Note_on_c, 0, 52, 0
2, 117544, Note_on_c, 0, 61, 0
2, 117558, Note_on_c, 0, 58, 0
2, 117961, Note_on_c, 0, 52, 37
2, 118047, Note_on_c, 0, 69, 53
2, 118090, Note_on_c, 0, 73, 45
2, 118119, Note_on_c, 0, 58, 32
2, 118156, Note_on_c, 0, 76, 47
2, 118161, Control_c, 0, 64, 0
2, 118176, Note_on_c, 0, 61, 54
2, 118221, Note_on_c, 0, 81, 71
2, 118421, Control_c, 0, 64, 127
2, 118650, Note_on_c, 0, 81, 0
2, 118658, Note_on_c, 0, 61, 0
2, 118668, Note_on_c, 0, 58, 0
2, 118730, Note_on_c, 0, 69, 0
2, 118798, Note_on_c, 0, 73, 0
2, 118809, Note_on_c, 0, 76, 0
2, 118822, Note_on_c, 0, 81, 60
2, 118878, Note_on_c, 0, 61, 43
2, 118933, Note_on_c, 0, 58, 35
2, 119124, Note_on_c, 0, 61, 0
2, 119137, Note_on_c, 0, 58, 0
2, 119228, Note_on_c, 0, 81, 0
2, 119426, Note_on_c, 0, 81, 57
2, 119449, Note_on_c, 0, 73, 30
2, 119454, Note_on_c, 0, 61, 40
2, 119457, Note_on_c, 0, 76, 40
2, 119484, Note_on_c, 0, 69, 26
2, 119723, Note_on_c, 0, 61, 0
2, 119766, Note_on_c, 0, 69, 0
2, 119784, Note_on_c, 0, 81, 0
2, 119937, Note_on_c, 0, 73, 0
2, 119973, Note_on_c, 0, 76, 0
2, 120035, Note_on_c, 0, 61, 42
2, 120040, Note_on_c, 0, 79, 58
2, 120043, Note_on_c, 0, 73, 18
2, 120075, Note_on_c, 0, 67, 36
2, 120117, Note_on_c, 0, 58, 25
2, 120279, Note_on_c, 0, 67, 0
2, 120303, Note_on_c, 0, 61, 0
2, 120305, Note_on_c, 0, 79, 0
2, 120403, Note_on_c, 0, 52, 0
2, 120439, Note_on_c, 0, 58, 0
2, 120578, Note_on_c, 0, 79, 64
2, 120579, Note_on_c, 0, 61, 37
2, 120618, Note_on_c, 0, 58, 27
2, 120768, Note_on_c, 0, 79, 0
2, 120784, Note_on_c, 0, 61, 0
2, 120807, Note_on_c, 0, 58, 0
2, 120862, Note_on_c, 0, 73, 0
2, 120918, Control_c, 0, 64, 0
2, 120992, Note_on_c, 0, 77, 51
2, 121004, Note_on_c, 0, 63, 28
2, 121008, Note_on_c, 0, 69, 32
2, 121024, Note_on_c, 0, 53, 36
2, 121251, Control_c, 0, 64, 127
2, 121486, Note_on_c, 0, 63, 0
2, 121751, Note_on_c, 0, 69, 0
2, 121959, Note_on_c, 0, 63, 26
2, 122076, Note_on_c, 0, 69, 5
2, 122469, Note_on_c, 0, 69, 0
2, 122942, Note_on_c, 0, 53, 0
2, 122997, Note_on_c, 0, 63, 0
2, 123146, Note_on_c, 0, 77, 0
2, 123484, Note_on_c, 0, 72, 46
2, 123491, Note_on_c, 0, 75, 42
2, 123824, Note_on_c, 0, 75, 0
2, 123826, Note_on_c, 0, 72, 0
2, 123834, Control_c, 0, 64, 0
2, 123873, Note_on_c, 0, 70, 45
2, 123903, Note_on_c, 0, 74, 51
2, 123924, Note_on_c, 0, 55, 27
2, 123939, Note_on_c, 0, 62, 24
2, 124180, Control_c, 0, 64, 127
2, 124401, Note_on_c, 0, 70, 0
2, 124561, Note_on_c, 0, 62, 0
2, 124770, Note_on_c, 0, 74, 0
2, 124877, Note_on_c, 0, 70, 27
2, 124884, Note_on_c, 0, 67, 28
2, 125205, Note_on_c, 0, 62, 1
2, 125449, Note_on_c, 0, 67, 0
2, 125518, Note_on_c, 0, 62, 0
2, 125557, Note_on_c, 0, 70, 0
2, 125654, Note_on_c, 0, 55, 0
2, 126306, Note_on_c, 0, 75, 71
2, 126601, Note_on_c, 0, 75, 0
2, 126708, Control_c, 0, 64, 0
2, 126726, Note_on_c, 0, 75, 53
2, 126789, Note_on_c, 0, 48, 32
2, 126983, Control_c, 0, 64, 127
2, 127212, Note_on_c, 0, 48, 0
2, 127261, Note_on_c, 0, 55, 22
2, 127720, Note_on_c, 0, 62, 32
2, 128221, Note_on_c, 0, 63, 50
2, 128424, Note_on_c, 0, 55, 0
2, 128545, Note_on_c, 0, 75, 0
2, 128697, Note_on_c, 0, 62, 0
2, 128710, Note_on_c, 0, 67, 53
2, 129060, Note_on_c, 0, 63, 0
2, 129145, Note_on_c, 0, 67, 0
2, 129174, Note_on_c, 0, 75, 62
2, 129536, Note_on_c, 0, 75, 0
2, 129579, Control_c, 0, 64, 0
2, 129661, Note_on_c, 0, 63, 30
2, 129671, Note_on_c, 0, 75, 45
2, 129684, Note_on_c, 0, 66, 43
2, 129708, Note_on_c, 0, 53, 26
2, 129870, Control_c, 0, 64, 127
2, 130149, Note_on_c, 0, 75, 0
2, 130153, Note_on_c, 0, 66, 0
2, 130233, Note_on_c, 0, 60, 32
2, 130235, Note_on_c, 0, 63, 0
2, 130665, Note_on_c, 0, 74, 68
2, 130682, Note_on_c, 0, 69, 80
2, 130705, Note_on_c, 0, 63, 32
2, 131009, Note_on_c, 0, 60, 0
2, 131315, Note_on_c, 0, 69, 0
2, 131380, Note_on_c, 0, 74, 0
2, 131421, Note_on_c, 0, 53, 0
2, 131476, Note_on_c, 0, 63, 0
2, 131555, Note_on_c, 0, 72, 55
2, 131607, Note_on_c, 0, 69, 22
2, 131677, Note_on_c, 0, 69, 0
2, 131894, Note_on_c, 0, 72, 0
2, 132044, Note_on_c, 0, 74, 54
2, 132379, Control_c, 0, 64, 0
2, 132414, Note_on_c, 0, 74, 0
2, 132470, Note_on_c, 0, 46, 28
2, 132498, Note_on_c, 0, 65, 41
2, 132511, Note_on_c, 0, 70, 34
2, 132523, Note_on_c, 0, 58, 28
2, 132596, Control_c, 0, 64, 127
2, 132655, Note_on_c, 0, 46, 0
2, 132744, Note_on_c, 0, 58, 0
2, 132829, Note_on_c, 0, 65, 0
2, 133030, Note_on_c, 0, 70, 0
2, 133414, Note_on_c, 0, 63, 37
2, 133437, Note_on_c, 0, 66, 39
2, 133448, Note_on_c, 0, 57, 54
2, 133459, Note_on_c, 0, 71, 45
2, 133463, Control_c, 0, 64, 0
2, 133693, Control_c, 0, 64, 127
2, 133889, Note_on_c, 0, 57, 0
2, 133965, Note_on_c, 0, 63, 0
2, 134023, Note_on_c, 0, 71, 0
2, 134037, Note_on_c, 0, 66, 0
2, 134384, Control_c, 0, 64, 0
2, 134418, Note_on_c, 0, 71, 54
2, 134425, Note_on_c, 0, 65, 51
2, 134437, Note_on_c, 0, 62, 37
2, 134456, Note_on_c, 0, 56, 42
2, 134617, Control_c, 0, 64, 127
2, 134745, Note_on_c, 0, 62, 0
2, 134864, Note_on_c, 0, 71, 0
2, 134867, Note_on_c, 0, 65, 0
2, 134961, Note_on_c, 0, 56, 0
2, 135340, Control_c, 0, 64, 0
2, 135399, Note_on_c, 0, 72, 53
2, 135403, Note_on_c, 0, 64, 54
2, 135423, Note_on_c, 0, 60, 24
2, 135429, Note_on_c, 0, 55, 22
2, 135459, Note_on_c, 0, 70, 35
2, 135598, Control_c, 0, 64, 127
2, 135830, Note_on_c, 0, 64, 0
2, 136031, Note_on_c, 0, 60, 0
2, 136064, Note_on_c, 0, 70, 0
2, 136103, Note_on_c, 0, 72, 0
2, 136134, Note_on_c, 0, 55, 0
2, 136263, Control_c, 0, 64, 0
2, 136295, Note_on_c, 0, 72, 41
2, 136325, Note_on_c, 0, 65, 32
2, 136332, Note_on_c, 0, 69, 37
2, 136340, Note_on_c, 0, 60, 28
2, 136370, Note_on_c, 0, 53, 32
2, 136374, Note_on_c, 0, 57, 33
2, 136492, Control_c, 0, 64, 127
2, 136673, Note_on_c, 0, 57, 0
2, 136719, Note_on_c, 0, 60, 0
2, 136729, Note_on_c, 0, 65, 0
2, 136741, Note_on_c, 0, 69, 0
2, 136764, Note_on_c, 0, 53, 0
2, 136965, Note_on_c, 0, 72, 0
2, 137217, Control_c, 0, 64, 0
2, 137228, Note_on_c, 0, 74, 59
2, 137232, Note_on_c, 0, 68, 51
2, 137261, Note_on_c, 0, 58, 34
2, 137434, Control_c, 0, 64, 127
2, 137547, Note_on_c, 0, 58, 0
2, 137622, Note_on_c, 0, 68, 0
2, 137624, Note_on_c, 0, 74, 0
2, 138212, Control_c, 0, 64, 0
2, 138215, Note_on_c, 0, 75, 53
2, 138219, Note_on_c, 0, 79, 56
2, 138224, Note_on_c, 0, 67, 53
2, 138291, Note_on_c, 0, 51, 33
2, 138573, Control_c, 0, 64, 127
2, 139011, Note_on_c, 0, 67, 0
2, 139106, Note_on_c, 0, 79, 0
2, 139144, Note_on_c, 0, 75, 0
2, 139266, Note_on_c, 0, 67, 35
2, 139276, Note_on_c, 0, 70, 35
2, 139279, Note_on_c, 0, 63, 28
2, 139332, Note_on_c, 0, 58, 31
2, 139890, Note_on_c, 0, 63, 0
2, 139919, Note_on_c, 0, 58, 0
2, 140300, Note_on_c, 0, 70, 0
2, 140320, Note_on_c, 0, 58, 23
2, 140385, Note_on_c, 0, 67, 0
2, 140566, Note_on_c, 0, 69, 70
2, 140696, Note_on_c, 0, 58, 0
2, 140803, Note_on_c, 0, 69, 0
2, 140866, Note_on_c, 0, 70, 75
2, 140875, Note_on_c, 0, 51, 0
2, 141131, Note_on_c, 0, 70, 0
2, 141140, Control_c, 0, 64, 0
2, 141153, Note_on_c, 0, 51, 33
2, 141186, Note_on_c, 0, 59, 24
2, 141190, Note_on_c, 0, 62, 30
2, 141196, Note_on_c, 0, 56, 45
2, 141203, Note_on_c, 0, 71, 74
2, 141415, Control_c, 0, 64, 127
2, 141591, Note_on_c, 0, 70, 69
2, 141613, Note_on_c, 0, 71, 0
2, 141836, Note_on_c, 0, 70, 0
2, 141858, Note_on_c, 0, 62, 0
2, 141877, Note_on_c, 0, 59, 0
2, 142128, Note_on_c, 0, 73, 70
2, 142164, Note_on_c, 0, 59, 24
2, 142180, Note_on_c, 0, 62, 20
2, 142535, Note_on_c, 0, 73, 0
2, 142611, Note_on_c, 0, 74, 80
2, 142853, Note_on_c, 0, 74, 0
2, 143081, Note_on_c, 0, 79, 90
2, 143379, Note_on_c, 0, 59, 0
2, 143488, Note_on_c, 0, 79, 0
2, 143504, Note_on_c, 0, 62, 0
2, 143618, Note_on_c, 0, 77, 71
2, 143652, Note_on_c, 0, 51, 0
2, 143665, Note_on_c, 0, 56, 0
2, 143878, Note_on_c, 0, 77, 0
2, 144000, Control_c, 0, 64, 0
2, 144056, Note_on_c, 0, 77, 65
2, 144089, Note_on_c, 0, 51, 25
2, 144119, Note_on_c, 0, 58, 35
2, 144287, Control_c, 0, 64, 127
2, 145006, Note_on_c, 0, 70, 26
2, 145033, Note_on_c, 0, 62, 24
2, 145036, Note_on_c, 0, 67, 24
2, 145593, Note_on_c, 0, 67, 0
2, 145638, Note_on_c, 0, 70, 0
2, 145827, Note_on_c, 0, 77, 0
2, 145929, Note_on_c, 0, 62, 0
2, 146029, Note_on_c, 0, 75, 71
2, 146301, Note_on_c, 0, 75, 0
2, 146336, Note_on_c, 0, 77, 41
2, 146455, Note_on_c, 0, 75, 39
2, 146556, Note_on_c, 0, 77, 0
2, 146691, Note_on_c, 0, 74, 52
2, 146718, Note_on_c, 0, 75, 0
2, 146728, Note_on_c, 0, 58, 0
2, 146872, Note_on_c, 0, 74, 0
2, 146974, Control_c, 0, 64, 0
2, 146975, Note_on_c, 0, 75, 69
2, 147089, Control_c, 0, 64, 127
2, 147401, Note_on_c, 0, 75, 0
2, 147426, Note_on_c, 0, 77, 62
2, 147791, Note_on_c, 0, 77, 0
2, 147830, Note_on_c, 0, 74, 77
2, 148254, Note_on_c, 0, 74, 0
2, 148329, Note_on_c, 0, 75, 69
2, 148736, Note_on_c, 0, 75, 0
2, 148782, Note_on_c, 0, 77, 70
2, 149081, Note_on_c, 0, 51, 0
2, 149109, Note_on_c, 0, 77, 0
2, 149262, Note_on_c, 0, 78, 63
2, 149604, Note_on_c, 0, 78, 0
2, 149627, Control_c, 0, 64, 0
2, 149750, Note_on_c, 0, 79, 58
2, 149754, Note_on_c, 0, 48, 33
2, 149888, Control_c, 0, 64, 127
2, 150201, Note_on_c, 0, 48, 0
2, 150225, Note_on_c, 0, 79, 0
2, 150274, Note_on_c, 0, 71, 46
2, 150286, Note_on_c, 0, 60, 22
2, 150417, Note_on_c, 0, 60, 0
2, 150618, Note_on_c, 0, 71, 0
2, 150749, Note_on_c, 0, 72, 55
2, 151149, Note_on_c, 0, 72, 0
2, 151255, Note_on_c, 0, 73, 71
2, 151649, Control_c, 0, 64, 0
2, 151703, Note_on_c, 0, 64, 27
2, 151704, Note_on_c, 0, 73, 0
2, 151717, Note_on_c, 0, 72, 64
2, 151757, Note_on_c, 0, 58, 27
2, 151881, Control_c, 0, 64, 127
2, 151987, Note_on_c, 0, 64, 0
2, 152150, Note_on_c, 0, 72, 0
2, 152183, Note_on_c, 0, 77, 65
2, 152520, Note_on_c, 0, 77, 0
2, 152561, Control_c, 0, 64, 0
2, 152619, Note_on_c, 0, 52, 32
2, 152653, Note_on_c, 0, 76, 55
2, 152656, Note_on_c, 0, 58, 0
2, 152829, Note_on_c, 0, 76, 0
2, 152833, Control_c, 0, 64, 127
2, 153110, Note_on_c, 0, 80, 59
2, 153432, Note_on_c, 0, 80, 0
2, 153484, Control_c, 0, 64, 0
2, 153585, Note_on_c, 0, 64, 24
2, 153587, Note_on_c, 0, 79, 41
2, 153592, Note_on_c, 0, 58, 19
2, 153673, Note_on_c, 0, 79, 0
2, 153702, Control_c, 0, 64, 127
2, 153883, Note_on_c, 0, 58, 0
2, 153909, Note_on_c, 0, 64, 0
2, 154129, Note_on_c, 0, 85, 45
2, 154136, Note_on_c, 0, 73, 36
2, 154254, Note_on_c, 0, 73, 0
2, 154314, Note_on_c, 0, 85, 0
2, 154321, Control_c, 0, 64, 0
2, 154579, Note_on_c, 0, 84, 58
2, 154602, Note_on_c, 0, 64, 25
2, 154618, Note_on_c, 0, 72, 33
2, 154619, Note_on_c, 0, 58, 17
2, 154688, Note_on_c, 0, 72, 0
2, 154708, Note_on_c, 0, 84, 0
2, 154990, Note_on_c, 0, 52, 0
2, 155025, Control_c, 0, 64, 127
2, 155048, Note_on_c, 0, 79, 40
2, 155161, Note_on_c, 0, 79, 0
2, 155403, Control_c, 0, 64, 0
2, 155482, Note_on_c, 0, 64, 0
2, 155528, Note_on_c, 0, 82, 37
2, 155530, Note_on_c, 0, 53, 32
2, 155538, Note_on_c, 0, 70, 31
2, 155540, Note_on_c, 0, 58, 0
2, 155751, Control_c, 0, 64, 127
2, 156197, Note_on_c, 0, 70, 0
2, 156405, Note_on_c, 0, 61, 18
2, 156438, Note_on_c, 0, 70, 25
2, 156451, Note_on_c, 0, 58, 26
2, 156453, Note_on_c, 0, 73, 25
2, 157180, Note_on_c, 0, 70, 0
2, 157413, Note_on_c, 0, 70, 33
2, 157423, Note_on_c, 0, 61, 0
2, 157432, Note_on_c, 0, 58, 0
2, 157438, Note_on_c, 0, 53, 0
2, 157456, Note_on_c, 0, 82, 0
2, 157783, Note_on_c, 0, 70, 0
2, 157843, Note_on_c, 0, 73, 0
2, 158082, Note_on_c, 0, 63, 32
2, 158234, Note_on_c, 0, 63, 0
2, 158276, Note_on_c, 0, 64, 33
2, 158347, Control_c, 0, 64, 0
2, 158403, Note_on_c, 0, 64, 0
2, 158463, Note_on_c, 0, 67, 40
2, 158499, Note_on_c, 0, 68, 29
2, 158523, Note_on_c, 0, 80, 28
2, 158526, Note_on_c, 0, 72, 48
2, 158878, Note_on_c, 0, 67, 0
2, 158902, Note_on_c, 0, 66, 45
2, 159231, Note_on_c, 0, 66, 0
2, 159379, Note_on_c, 0, 65, 31
2, 159487, Control_c, 0, 64, 127
2, 159906, Note_on_c, 0, 53, 36
2, 159947, Note_on_c, 0, 72, 0
2, 160002, Note_on_c, 0, 68, 0
2, 160054, Note_on_c, 0, 80, 0
2, 160198, Note_on_c, 0, 65, 0
2, 160404, Note_on_c, 0, 67, 27
2, 160435, Note_on_c, 0, 53, 0
2, 160488, Note_on_c, 0, 67, 0
2, 160968, Note_on_c, 0, 79, 57
2, 161159, Note_on_c, 0, 79, 0
2, 161250, Control_c, 0, 64, 0
2, 161315, Note_on_c, 0, 77, 56
2, 161319, Note_on_c, 0, 56, 33
2, 161357, Note_on_c, 0, 67, 22
2, 161404, Note_on_c, 0, 62, 20
2, 161428, Note_on_c, 0, 77, 0
2, 161752, Note_on_c, 0, 77, 45
2, 161894, Note_on_c, 0, 77, 0
2, 161907, Note_on_c, 0, 76, 31
2, 161998, Note_on_c, 0, 76, 0
2, 162346, Note_on_c, 0, 77, 55
2, 162424, Note_on_c, 0, 77, 0
2, 162733, Note_on_c, 0, 79, 35
2, 162785, Note_on_c, 0, 77, 55
2, 162796, Note_on_c, 0, 79, 0
2, 162941, Note_on_c, 0, 77, 0
2, 162945, Note_on_c, 0, 76, 33
2, 163065, Note_on_c, 0, 76, 0
2, 163263, Note_on_c, 0, 77, 64
2, 163289, Note_on_c, 0, 67, 0
2, 163427, Note_on_c, 0, 77, 0
2, 163478, Note_on_c, 0, 56, 0
2, 163515, Note_on_c, 0, 79, 39
2, 163544, Note_on_c, 0, 62, 0
2, 163649, Note_on_c, 0, 77, 37
2, 163662, Note_on_c, 0, 79, 0
2, 163810, Note_on_c, 0, 77, 0
2, 163839, Note_on_c, 0, 76, 39
2, 164005, Note_on_c, 0, 76, 0
2, 164021, Control_c, 0, 64, 127
2, 164064, Control_c, 0, 64, 0
2, 164086, Note_on_c, 0, 77, 58
2, 164141, Note_on_c, 0, 59, 30
2, 164154, Note_on_c, 0, 65, 24
2, 164190, Note_on_c, 0, 62, 29
2, 164210, Note_on_c, 0, 56, 23
2, 164247, Note_on_c, 0, 77, 0
2, 164382, Note_on_c, 0, 79, 49
2, 164655, Control_c, 0, 64, 127
2, 164842, Control_c, 0, 64, 0
2, 164855, Note_on_c, 0, 79, 0
2, 165074, Control_c, 0, 64, 127
2, 165095, Note_on_c, 0, 79, 72
2, 165849, Note_on_c, 0, 79, 0
2, 166056, Control_c, 0, 64, 0
2, 166138, Note_on_c, 0, 74, 44
2, 166316, Note_on_c, 0, 74, 0
2, 166329, Note_on_c, 0, 62, 0
2, 166401, Note_on_c, 0, 65, 0
2, 166433, Note_on_c, 0, 59, 0
2, 166456, Note_on_c, 0, 75, 58
2, 166559, Note_on_c, 0, 56, 0
2, 166575, Control_c, 0, 64, 127
2, 166617, Note_on_c, 0, 75, 0
2, 166751, Note_on_c, 0, 77, 84
2, 166962, Control_c, 0, 64, 0
2, 166995, Note_on_c, 0, 77, 0
2, 167046, Note_on_c, 0, 48, 32
2, 167093, Note_on_c, 0, 75, 60
2, 167312, Control_c, 0, 64, 127
2, 167654, Note_on_c, 0, 55, 1
2, 167658, Note_on_c, 0, 75, 0
2, 167677, Note_on_c, 0, 67, 37
2, 167877, Note_on_c, 0, 67, 0
2, 168088, Note_on_c, 0, 60, 28
2, 168100, Note_on_c, 0, 67, 31
2, 168757, Note_on_c, 0, 67, 0
2, 169056, Note_on_c, 0, 60, 0
2, 169070, Note_on_c, 0, 67, 42
2, 169152, Note_on_c, 0, 48, 0
2, 169355, Note_on_c, 0, 55, 0
2, 169417, Note_on_c, 0, 67, 0
2, 169681, Note_on_c, 0, 54, 54
2, 169699, Note_on_c, 0, 53, 32
2, 169822, Note_on_c, 0, 56, 59
2, 169882, Control_c, 0, 64, 0
2, 169883, Note_on_c, 0, 53, 0
2, 169936, Note_on_c, 0, 63, 38
2, 169938, Note_on_c, 0, 54, 0
2, 169958, Note_on_c, 0, 69, 44
2, 169961, Note_on_c, 0, 57, 53
2, 169962, Note_on_c, 0, 66, 44
2, 169967, Note_on_c, 0, 72, 45
2, 169995, Note_on_c, 0, 56, 0
2, 170494, Note_on_c, 0, 57, 0
2, 170508, Note_on_c, 0, 58, 54
2, 170601, Note_on_c, 0, 57, 20
2, 170706, Note_on_c, 0, 58, 0
2, 170743, Note_on_c, 0, 59, 42
2, 170773, Note_on_c, 0, 57, 0
2, 170851, Note_on_c, 0, 60, 10
2, 170866, Note_on_c, 0, 59, 0
2, 171389, Note_on_c, 0, 69, 0
2, 171425, Control_c, 0, 64, 127
2, 171512, Note_on_c, 0, 63, 0
2, 171547, Note_on_c, 0, 66, 0
2, 171614, Control_c, 0, 64, 0
2, 171823, Note_on_c, 0, 63, 33
2, 171850, Note_on_c, 0, 66, 30
2, 171860, Control_c, 0, 64, 127
2, 171873, Note_on_c, 0, 69, 25
2, 171889, Note_on_c, 0, 60, 0
2, 172332, Note_on_c, 0, 69, 0
2, 172388, Note_on_c, 0, 63, 0
2, 172482, Note_on_c, 0, 53, 24
2, 172654, Control_c, 0, 64, 0
2, 172664, Note_on_c, 0, 72, 0
2, 172762, Note_on_c, 0, 53, 0
2, 172835, Note_on_c, 0, 62, 32
2, 172844, Note_on_c, 0, 46, 27
2, 172870, Control_c, 0, 64, 127
2, 172896, Note_on_c, 0, 62, 0
2, 172929, Note_on_c, 0, 46, 0
2, 172967, Note_on_c, 0, 66, 0
2, 173721, Control_c, 0, 64, 0
2, 173770, Note_on_c, 0, 86, 57
2, 173793, Note_on_c, 0, 74, 36
2, 173796, Note_on_c, 0, 56, 25
2, 173849, Note_on_c, 0, 62, 29
2, 173967, Control_c, 0, 64, 127
2, 173969, Note_on_c, 0, 67, 1
2, 174646, Note_on_c, 0, 74, 0
2, 174658, Note_on_c, 0, 86, 0
2, 174749, Note_on_c, 0, 85, 65
2, 174912, Note_on_c, 0, 67, 0
2, 175008, Note_on_c, 0, 56, 0
2, 175019, Note_on_c, 0, 62, 0
2, 175059, Note_on_c, 0, 85, 0
2, 175656, Control_c, 0, 64, 0
2, 175680, Note_on_c, 0, 56, 34
2, 175680, Note_on_c, 0, 84, 75
2, 175680, Note_on_c, 0, 62, 26
2, 175920, Note_on_c, 0, 83, 59
2, 176024, Note_on_c, 0, 84, 0
2, 176097, Note_on_c, 0, 83, 0
2, 176160, Control_c, 0, 64, 127
2, 176160, Note_on_c, 0, 82, 39
2, 176400, Note_on_c, 0, 81, 47
2, 176411, Note_on_c, 0, 82, 0
2, 176514, Note_on_c, 0, 81, 0
2, 176640, Note_on_c, 0, 80, 46
2, 176640, Control_c, 0, 64, 0
2, 176839, Note_on_c, 0, 80, 0
2, 176880, Note_on_c, 0, 77, 46
2, 176880, Control_c, 0, 64, 127
2, 177061, Note_on_c, 0, 77, 0
2, 177120, Note_on_c, 0, 74, 46
2, 177248, Note_on_c, 0, 74, 0
2, 177304, Note_on_c, 0, 71, 40
2, 177424, Note_on_c, 0, 71, 0
2, 177600, Control_c, 0, 64, 0
2, 177616, Note_on_c, 0, 70, 70
2, 177736, Note_on_c, 0, 70, 0
2, 177840, Control_c, 0, 64, 127
2, 177840, Note_on_c, 0, 74, 54
2, 177865, Note_on_c, 0, 62, 0
2, 177963, Note_on_c, 0, 74, 0
2, 178080, Note_on_c, 0, 79, 79
2, 178090, Note_on_c, 0, 56, 0
2, 178320, Control_c, 0, 64, 0
2, 178320, Note_on_c, 0, 77, 59
2, 178360, Note_on_c, 0, 79, 0
2, 178500, Note_on_c, 0, 77, 0
2, 178519, Note_on_c, 0, 55, 27
2, 178523, Note_on_c, 0, 60, 34
2, 178535, Note_on_c, 0, 65, 22
2, 178542, Note_on_c, 0, 75, 57
2, 178543, Note_on_c, 0, 62, 22
2, 178800, Control_c, 0, 64, 127
2, 178885, Note_on_c, 0, 65, 0
2, 178916, Note_on_c, 0, 62, 0
2, 179065, Note_on_c, 0, 60, 0
2, 179496, Note_on_c, 0, 70, 41
2, 180156, Note_on_c, 0, 70, 0
2, 180309, Note_on_c, 0, 55, 0
2, 180466, Note_on_c, 0, 75, 0
2, 182374, Note_on_c, 0, 75, 88
2, 182692, Note_on_c, 0, 75, 0
2, 183333, Note_on_c, 0, 74, 71
2, 183625, Note_on_c, 0, 74, 0
2, 183957, Note_on_c, 0, 75, 57
2, 184228, Control_c, 0, 64, 0
2, 184244, Note_on_c, 0, 75, 0
2, 184317, Note_on_c, 0, 77, 48
2, 184318, Note_on_c, 0, 65, 26
2, 184326, Note_on_c, 0, 62, 28
2, 184333, Note_on_c, 0, 60, 19
2, 184545, Control_c, 0, 64, 127
2, 184635, Note_on_c, 0, 65, 0
2, 185341, Note_on_c, 0, 53, 30
2, 185367, Note_on_c, 0, 77, 0
2, 186290, Note_on_c, 0, 62, 0
2, 186342, Note_on_c, 0, 67, 32
2, 186370, Note_on_c, 0, 60, 0
2, 186417, Note_on_c, 0, 53, 0
2, 186483, Note_on_c, 0, 67, 0
2, 186983, Note_on_c, 0, 60, 50
2, 187117, Control_c, 0, 64, 0
2, 187163, Note_on_c, 0, 74, 74
2, 187167, Note_on_c, 0, 70, 65
2, 187170, Note_on_c, 0, 79, 70
2, 187173, Note_on_c, 0, 62, 51
2, 187203, Note_on_c, 0, 60, 0
2, 187210, Note_on_c, 0, 61, 20
2, 187259, Note_on_c, 0, 61, 0
2, 187446, Control_c, 0, 64, 127
2, 188564, Note_on_c, 0, 62, 0
2, 188716, Note_on_c, 0, 79, 0
2, 188751, Note_on_c, 0, 74, 0
2, 188811, Note_on_c, 0, 70, 0
2, 189451, Note_on_c, 0, 77, 57
2, 189615, Note_on_c, 0, 77, 0
2, 189714, Note_on_c, 0, 76, 41
2, 189911, Note_on_c, 0, 76, 0
2, 189915, Control_c, 0, 64, 0
2, 189989, Note_on_c, 0, 57, 30
2, 190000, Note_on_c, 0, 65, 24
2, 190003, Note_on_c, 0, 77, 57
2, 190022, Note_on_c, 0, 60, 37
2, 190364, Control_c, 0, 64, 127
2, 190617, Note_on_c, 0, 60, 0
2, 190641, Note_on_c, 0, 65, 0
2, 191050, Note_on_c, 0, 69, 32
2, 191690, Note_on_c, 0, 69, 0
2, 192014, Note_on_c, 0, 65, 31
2, 192028, Note_on_c, 0, 72, 33
2, 192182, Note_on_c, 0, 77, 0
2, 192237, Note_on_c, 0, 65, 0
2, 192267, Note_on_c, 0, 72, 0
2, 192583, Note_on_c, 0, 57, 0
2, 192974, Control_c, 0, 64, 0
2, 192990, Note_on_c, 0, 67, 27
2, 193003, Note_on_c, 0, 69, 30
2, 193006, Note_on_c, 0, 72, 33
2, 193028, Note_on_c, 0, 65, 25
2, 193041, Note_on_c, 0, 57, 30
2, 193077, Note_on_c, 0, 60, 26
2, 193263, Control_c, 0, 64, 127
2, 193481, Note_on_c, 0, 65, 0
2, 193627, Note_on_c, 0, 67, 0
2, 193653, Note_on_c, 0, 60, 0
2, 193952, Note_on_c, 0, 65, 40
2, 193981, Note_on_c, 0, 60, 27
2, 194323, Note_on_c, 0, 57, 0
2, 194912, Note_on_c, 0, 57, 42
2, 195057, Note_on_c, 0, 65, 0
2, 195106, Note_on_c, 0, 72, 0
2, 195107, Note_on_c, 0, 57, 0
2, 195180, Note_on_c, 0, 60, 0
2, 195192, Note_on_c, 0, 69, 0
2, 195750, Control_c, 0, 64, 0
2, 195842, Note_on_c, 0, 56, 37
2, 195856, Note_on_c, 0, 75, 38
2, 195872, Note_on_c, 0, 67, 36
2, 195878, Note_on_c, 0, 63, 17
2, 195885, Note_on_c, 0, 70, 33
2, 195895, Note_on_c, 0, 60, 36
2, 195899, Note_on_c, 0, 72, 30
2, 196009, Control_c, 0, 64, 127
2, 196269, Note_on_c, 0, 67, 0
2, 196398, Note_on_c, 0, 72, 0
2, 196473, Note_on_c, 0, 70, 0
2, 196502, Note_on_c, 0, 63, 0
2, 196532, Note_on_c, 0, 60, 0
2, 196561, Note_on_c, 0, 75, 0
2, 196919, Note_on_c, 0, 56, 0
2, 197435, Note_on_c, 0, 75, 84
2, 197804, Note_on_c, 0, 75, 0
2, 198055, Note_on_c, 0, 75, 90
2, 198353, Note_on_c, 0, 75, 0
2, 198531, Note_on_c, 0, 75, 82
2, 198774, Note_on_c, 0, 75, 0
2, 198866, Control_c, 0, 64, 0
2, 198910, Note_on_c, 0, 59, 33
2, 198913, Note_on_c, 0, 63, 17
2, 198919, Note_on_c, 0, 54, 27
2, 198925, Note_on_c, 0, 58, 40
2, 198988, Note_on_c, 0, 75, 72
2, 199256, Control_c, 0, 64, 127
2, 199529, Control_c, 0, 64, 0
2, 199719, Control_c, 0, 64, 127
2, 199725, Note_on_c, 0, 74, 61
2, 199820, Note_on_c, 0, 75, 0
2, 199976, Note_on_c, 0, 59, 0
2, 199996, Note_on_c, 0, 63, 0
2, 200011, Note_on_c, 0, 74, 0
2, 200268, Note_on_c, 0, 75, 82
2, 200421, Note_on_c, 0, 63, 31
2, 200468, Note_on_c, 0, 59, 29
2, 200517, Note_on_c, 0, 75, 0
2, 200983, Note_on_c, 0, 77, 75
2, 201081, Note_on_c, 0, 59, 0
2, 201165, Note_on_c, 0, 58, 0
2, 201299, Note_on_c, 0, 77, 0
2, 201344, Note_on_c, 0, 75, 67
2, 201427, Note_on_c, 0, 63, 0
2, 201492, Note_on_c, 0, 54, 0
2, 201598, Note_on_c, 0, 75, 0
2, 201637, Control_c, 0, 64, 0
2, 201689, Note_on_c, 0, 63, 30
2, 201760, Note_on_c, 0, 75, 63
2, 201761, Note_on_c, 0, 58, 38
2, 201984, Control_c, 0, 64, 127
2, 201998, Note_on_c, 0, 55, 1
2, 202257, Note_on_c, 0, 63, 0
2, 202484, Note_on_c, 0, 70, 32
2, 202484, Note_on_c, 0, 63, 21
2, 202530, Note_on_c, 0, 67, 22
2, 202929, Note_on_c, 0, 63, 0
2, 203011, Note_on_c, 0, 67, 0
2, 203323, Note_on_c, 0, 58, 0
2, 203436, Note_on_c, 0, 55, 0
2, 203527, Note_on_c, 0, 67, 32
2, 203659, Note_on_c, 0, 70, 0
2, 203662, Note_on_c, 0, 75, 0
2, 203715, Note_on_c, 0, 67, 0
2, 204408, Control_c, 0, 64, 0
2, 204441, Note_on_c, 0, 60, 44
2, 204459, Note_on_c, 0, 70, 46
2, 204480, Note_on_c, 0, 55, 32
2, 204488, Note_on_c, 0, 65, 54
2, 205058, Control_c, 0, 64, 127
2, 205351, Note_on_c, 0, 60, 0
2, 205364, Note_on_c, 0, 65, 0
2, 205421, Note_on_c, 0, 55, 0
2, 205445, Note_on_c, 0, 70, 0
2, 205507, Note_on_c, 0, 70, 26
2, 205520, Control_c, 0, 64, 0
2, 205539, Note_on_c, 0, 62, 46
2, 205550, Note_on_c, 0, 65, 57
2, 205556, Note_on_c, 0, 55, 36
2, 205953, Control_c, 0, 64, 127
2, 206212, Control_c, 0, 64, 0
2, 206400, Control_c, 0, 64, 127
2, 206584, Note_on_c, 0, 62, 0
2, 206623, Note_on_c, 0, 65, 0
2, 206652, Note_on_c, 0, 55, 0
2, 206805, Note_on_c, 0, 70, 0
2, 208204, Control_c, 0, 64, 0
2, 208244, Note_on_c, 0, 70, 64
2, 208260, Note_on_c, 0, 55, 22
2, 208264, Note_on_c, 0, 58, 46
2, 208293, Note_on_c, 0, 61, 47
2, 208321, Note_on_c, 0, 76, 62
2, 208327, Note_on_c, 0, 64, 66
2, 208386, Note_on_c, 0, 82, 74
2, 208537, Control_c, 0, 64, 127
2, 208805, Note_on_c, 0, 82, 0
2, 208939, Note_on_c, 0, 82, 71
2, 209278, Note_on_c, 0, 82, 0
2, 209488, Note_on_c, 0, 82, 71
2, 209739, Note_on_c, 0, 64, 0
2, 209752, Note_on_c, 0, 58, 0
2, 209759, Note_on_c, 0, 55, 0
2, 209794, Note_on_c, 0, 76, 0
2, 209795, Note_on_c, 0, 70, 0
2, 209808, Note_on_c, 0, 61, 0
2, 209925, Note_on_c, 0, 82, 0
2, 210153, Control_c, 0, 64, 0
2, 210185, Note_on_c, 0, 81, 54
2, 210195, Note_on_c, 0, 61, 30
2, 210204, Note_on_c, 0, 69, 34
2, 210210, Note_on_c, 0, 64, 38
2, 210225, Note_on_c, 0, 58, 39
2, 210250, Note_on_c, 0, 55, 24
2, 210457, Control_c, 0, 64, 127
2, 210601, Note_on_c, 0, 64, 0
2, 210658, Note_on_c, 0, 55, 0
2, 210927, Note_on_c, 0, 58, 0
2, 211018, Note_on_c, 0, 61, 0
2, 211185, Note_on_c, 0, 66, 29
2, 211208, Note_on_c, 0, 58, 32
2, 211215, Note_on_c, 0, 61, 14
2, 211248, Control_c, 0, 64, 0
2, 211393, Control_c, 0, 64, 127
2, 211513, Note_on_c, 0, 66, 0
2, 211681, Note_on_c, 0, 81, 0
2, 212328, Note_on_c, 0, 58, 0
2, 212347, Note_on_c, 0, 61, 0
2, 212357, Note_on_c, 0, 69, 0
2, 212745, Note_on_c, 0, 79, 55
2, 213034, Note_on_c, 0, 79, 0
2, 213070, Control_c, 0, 64, 0
2, 213146, Note_on_c, 0, 77, 52
2, 213151, Note_on_c, 0, 63, 29
2, 213169, Note_on_c, 0, 57, 41
2, 213177, Note_on_c, 0, 69, 24
2, 213467, Note_on_c, 0, 69, 0
2, 213486, Control_c, 0, 64, 127
2, 214161, Note_on_c, 0, 71, 24
2, 215042, Note_on_c, 0, 71, 0
2, 215299, Note_on_c, 0, 72, 53
2, 215385, Note_on_c, 0, 77, 0
2, 215437, Note_on_c, 0, 63, 0
2, 215482, Note_on_c, 0, 57, 0
2, 215674, Note_on_c, 0, 72, 0
2, 216103, Note_on_c, 0, 74, 49
2, 216129, Control_c, 0, 64, 0
2, 216475, Control_c, 0, 64, 127
2, 216490, Note_on_c, 0, 62, 1
2, 216671, Note_on_c, 0, 62, 0
2, 216835, Control_c, 0, 64, 0
2, 216921, Note_on_c, 0, 67, 36
2, 216934, Note_on_c, 0, 63, 19
2, 216950, Note_on_c, 0, 55, 25
2, 217154, Control_c, 0, 64, 127
2, 217925, Note_on_c, 0, 62, 31
2, 218145, Note_on_c, 0, 62, 0
2, 218471, Note_on_c, 0, 60, 19
2, 218483, Note_on_c, 0, 67, 0
2, 218489, Note_on_c, 0, 74, 0
2, 218576, Note_on_c, 0, 60, 0
2, 218592, Note_on_c, 0, 63, 0
2, 218909, Note_on_c, 0, 75, 47
2, 218914, Control_c, 0, 64, 0
2, 218919, Note_on_c, 0, 63, 34
2, 218952, Note_on_c, 0, 67, 41
2, 218965, Note_on_c, 0, 58, 25
2, 218983, Note_on_c, 0, 48, 28
2, 218988, Note_on_c, 0, 55, 0
2, 219229, Control_c, 0, 64, 127
2, 219437, Note_on_c, 0, 67, 0
2, 219550, Note_on_c, 0, 63, 0
2, 219569, Note_on_c, 0, 58, 0
2, 219873, Note_on_c, 0, 63, 40
2, 219884, Note_on_c, 0, 58, 29
2, 219898, Note_on_c, 0, 67, 33
2, 220357, Note_on_c, 0, 58, 0
2, 220415, Note_on_c, 0, 67, 0
2, 220511, Note_on_c, 0, 63, 0
2, 220849, Note_on_c, 0, 63, 43
2, 220855, Note_on_c, 0, 58, 33
2, 220888, Note_on_c, 0, 67, 32
2, 220894, Note_on_c, 0, 48, 0
2, 221021, Note_on_c, 0, 58, 0
2, 221060, Note_on_c, 0, 63, 0
2, 221067, Note_on_c, 0, 67, 0
2, 221253, Note_on_c, 0, 75, 0
2, 221792, Note_on_c, 0, 74, 80
2, 221805, Note_on_c, 0, 69, 74
2, 221828, Note_on_c, 0, 51, 47
2, 221830, Note_on_c, 0, 65, 54
2, 221831, Note_on_c, 0, 62, 53
2, 221847, Control_c, 0, 64, 0
2, 221867, Note_on_c, 0, 57, 62
2, 221881, Note_on_c, 0, 65, 0
2, 222176, Control_c, 0, 64, 127
2, 222537, Note_on_c, 0, 62, 0
2, 222717, Note_on_c, 0, 69, 0
2, 222777, Note_on_c, 0, 74, 0
2, 222793, Note_on_c, 0, 62, 29
2, 222796, Note_on_c, 0, 72, 59
2, 222800, Note_on_c, 0, 69, 35
2, 223198, Note_on_c, 0, 62, 0
2, 223679, Note_on_c, 0, 57, 0
2, 223728, Note_on_c, 0, 51, 0
2, 223915, Note_on_c, 0, 72, 0
2, 224047, Note_on_c, 0, 69, 0
2, 224325, Note_on_c, 0, 74, 49
2, 224573, Control_c, 0, 64, 0
2, 224603, Note_on_c, 0, 74, 0
2, 224693, Note_on_c, 0, 70, 42
2, 224701, Note_on_c, 0, 65, 41
2, 224713, Note_on_c, 0, 56, 38
2, 224750, Note_on_c, 0, 62, 24
2, 224848, Control_c, 0, 64, 127
2, 224973, Note_on_c, 0, 62, 0
2, 225093, Note_on_c, 0, 65, 0
2, 225130, Note_on_c, 0, 56, 0
2, 225425, Note_on_c, 0, 70, 0
2, 225598, Control_c, 0, 64, 0
2, 225619, Note_on_c, 0, 66, 34
2, 225626, Note_on_c, 0, 71, 47
2, 225640, Note_on_c, 0, 57, 42
2, 225646, Note_on_c, 0, 63, 33
2, 225843, Control_c, 0, 64, 127
2, 225987, Note_on_c, 0, 66, 0
2, 226021, Note_on_c, 0, 57, 0
2, 226043, Note_on_c, 0, 63, 0
2, 226302, Note_on_c, 0, 71, 0
2, 226536, Control_c, 0, 64, 0
2, 226584, Note_on_c, 0, 71, 55
2, 226590, Note_on_c, 0, 64, 53
2, 226607, Note_on_c, 0, 56, 35
2, 226610, Note_on_c, 0, 62, 32
2, 226768, Control_c, 0, 64, 127
2, 226910, Note_on_c, 0, 64, 0
2, 226935, Note_on_c, 0, 62, 0
2, 226984, Note_on_c, 0, 56, 0
2, 227036, Note_on_c, 0, 71, 0
2, 227474, Control_c, 0, 64, 0
2, 227521, Note_on_c, 0, 70, 60
2, 227533, Note_on_c, 0, 58, 37
2, 227544, Note_on_c, 0, 72, 43
2, 227546, Note_on_c, 0, 64, 51
2, 227709, Control_c, 0, 64, 127
2, 227972, Note_on_c, 0, 64, 0
2, 228100, Note_on_c, 0, 58, 0
2, 228113, Note_on_c, 0, 72, 0
2, 228118, Note_on_c, 0, 70, 0
2, 228403, Control_c, 0, 64, 0
2, 228491, Note_on_c, 0, 72, 53
2, 228494, Note_on_c, 0, 63, 39
2, 228503, Note_on_c, 0, 65, 56
2, 228506, Note_on_c, 0, 69, 55
2, 228515, Note_on_c, 0, 57, 37
2, 228525, Note_on_c, 0, 53, 24
2, 228617, Control_c, 0, 64, 127
2, 228783, Note_on_c, 0, 57, 0
2, 228882, Note_on_c, 0, 63, 0
2, 228908, Note_on_c, 0, 65, 0
2, 228936, Note_on_c, 0, 69, 0
2, 228957, Note_on_c, 0, 72, 0
2, 229231, Note_on_c, 0, 53, 0
2, 229427, Control_c, 0, 64, 0
2, 229463, Note_on_c, 0, 56, 59
2, 229473, Note_on_c, 0, 74, 72
2, 229483, Note_on_c, 0, 68, 65
2, 229525, Note_on_c, 0, 62, 43
2, 229526, Note_on_c, 0, 64, 44
2, 229589, Note_on_c, 0, 62, 0
2, 229591, Note_on_c, 0, 64, 0
2, 229628, Control_c, 0, 64, 127
2, 229814, Note_on_c, 0, 68, 0
2, 229837, Note_on_c, 0, 74, 0
2, 230186, Note_on_c, 0, 56, 0
2, 230395, Control_c, 0, 64, 0
2, 230458, Note_on_c, 0, 63, 53
2, 230461, Note_on_c, 0, 79, 72
2, 230464, Note_on_c, 0, 75, 71
2, 230465, Note_on_c, 0, 67, 75
2, 230481, Note_on_c, 0, 55, 31
2, 230520, Note_on_c, 0, 58, 42
2, 230725, Control_c, 0, 64, 127
2, 231043, Note_on_c, 0, 63, 0
2, 231171, Note_on_c, 0, 58, 0
2, 231498, Note_on_c, 0, 63, 28
2, 231538, Note_on_c, 0, 58, 42
2, 231565, Note_on_c, 0, 67, 0
2, 232126, Note_on_c, 0, 63, 0
2, 232290, Note_on_c, 0, 58, 0
2, 232506, Note_on_c, 0, 63, 25
2, 232586, Note_on_c, 0, 79, 0
2, 232700, Note_on_c, 0, 75, 0
2, 232854, Note_on_c, 0, 69, 26
2, 233023, Note_on_c, 0, 69, 0
2, 233090, Note_on_c, 0, 63, 0
2, 233104, Note_on_c, 0, 55, 0
2, 233140, Note_on_c, 0, 70, 30
2, 233344, Note_on_c, 0, 70, 0
2, 233396, Control_c, 0, 64, 0
2, 233403, Note_on_c, 0, 56, 36
2, 233432, Note_on_c, 0, 71, 57
2, 233475, Note_on_c, 0, 62, 19
2, 233730, Control_c, 0, 64, 127
2, 233941, Note_on_c, 0, 62, 0
2, 233988, Note_on_c, 0, 70, 57
2, 234008, Note_on_c, 0, 71, 0
2, 234345, Note_on_c, 0, 61, 31
2, 234349, Control_c, 0, 64, 0
2, 234356, Note_on_c, 0, 70, 0
2, 234391, Note_on_c, 0, 73, 54
2, 234536, Control_c, 0, 64, 127
2, 234633, Note_on_c, 0, 61, 0
2, 234782, Note_on_c, 0, 56, 0
2, 234795, Note_on_c, 0, 73, 0
2, 234818, Note_on_c, 0, 62, 36
2, 234859, Note_on_c, 0, 74, 83
2, 234978, Note_on_c, 0, 62, 0
2, 235132, Note_on_c, 0, 74, 0
2, 235171, Control_c, 0, 64, 0
2, 235264, Note_on_c, 0, 79, 81
2, 235266, Note_on_c, 0, 67, 49
2, 235373, Control_c, 0, 64, 127
2, 235521, Note_on_c, 0, 67, 0
2, 235583, Note_on_c, 0, 79, 0
2, 235777, Note_on_c, 0, 77, 63
2, 236012, Note_on_c, 0, 77, 0
2, 236181, Control_c, 0, 64, 0
2, 236204, Note_on_c, 0, 51, 34
2, 236204, Note_on_c, 0, 77, 66
2, 236275, Note_on_c, 0, 58, 33
2, 236485, Control_c, 0, 64, 127
2, 237099, Note_on_c, 0, 63, 27
2, 237102, Note_on_c, 0, 70, 34
2, 237114, Note_on_c, 0, 67, 24
2, 237952, Note_on_c, 0, 63, 0
2, 238070, Note_on_c, 0, 75, 49
2, 238158, Note_on_c, 0, 77, 0
2, 238212, Note_on_c, 0, 58, 0
2, 238347, Note_on_c, 0, 51, 0
2, 238881, Control_c, 0, 64, 0
2, 238968, Note_on_c, 0, 67, 0
2, 239004, Note_on_c, 0, 58, 31
2, 239025, Note_on_c, 0, 50, 31
2, 239098, Control_c, 0, 64, 127
2, 239156, Note_on_c, 0, 70, 0
2, 239232, Note_on_c, 0, 75, 0
2, 239642, Note_on_c, 0, 77, 94
2, 239808, Note_on_c, 0, 58, 0
2, 239965, Note_on_c, 0, 77, 0
2, 240036, Control_c, 0, 64, 0
2, 240090, Note_on_c, 0, 75, 74
2, 240123, Note_on_c, 0, 58, 27
2, 240310, Control_c, 0, 64, 127
2, 240581, Note_on_c, 0, 75, 0
2, 240627, Note_on_c, 0, 74, 78
2, 240684, Note_on_c, 0, 58, 0
2, 240932, Note_on_c, 0, 74, 0
2, 241042, Note_on_c, 0, 58, 25
2, 241078, Note_on_c, 0, 75, 73
2, 241294, Note_on_c, 0, 50, 0
2, 241354, Note_on_c, 0, 58, 0
2, 241422, Note_on_c, 0, 75, 0
2, 241557, Note_on_c, 0, 77, 71
2, 241769, Note_on_c, 0, 77, 0
2, 241812, Control_c, 0, 64, 0
2, 241951, Note_on_c, 0, 48, 33
2, 241968, Note_on_c, 0, 60, 24
2, 241974, Note_on_c, 0, 79, 61
2, 242282, Note_on_c, 0, 79, 0
2, 242388, Note_on_c, 0, 48, 0
2, 242518, Note_on_c, 0, 71, 47
2, 242595, Note_on_c, 0, 60, 0
2, 242686, Note_on_c, 0, 71, 0
2, 242909, Control_c, 0, 64, 127
2, 242924, Control_c, 0, 64, 0
2, 242931, Note_on_c, 0, 72, 30
2, 243050, Note_on_c, 0, 72, 0
2, 243494, Note_on_c, 0, 73, 37
2, 243789, Note_on_c, 0, 73, 0
2, 243877, Note_on_c, 0, 72, 36
2, 243886, Note_on_c, 0, 64, 24
2, 243917, Note_on_c, 0, 58, 21
2, 243991, Note_on_c, 0, 72, 0
2, 244025, Note_on_c, 0, 64, 0
2, 244069, Note_on_c, 0, 58, 0
2, 244427, Note_on_c, 0, 77, 60
2, 244631, Note_on_c, 0, 77, 0
2, 244767, Note_on_c, 0, 52, 32
2, 244798, Note_on_c, 0, 76, 52
2, 244937, Note_on_c, 0, 52, 0
2, 244941, Note_on_c, 0, 76, 0
2, 245357, Note_on_c, 0, 80, 46
2, 245564, Note_on_c, 0, 80, 0
2, 245732, Note_on_c, 0, 64, 22
2, 245745, Note_on_c, 0, 79, 36
2, 245767, Note_on_c, 0, 58, 20
2, 245813, Note_on_c, 0, 79, 0
2, 245899, Note_on_c, 0, 64, 0
2, 245904, Note_on_c, 0, 58, 0
2, 246360, Note_on_c, 0, 85, 53
2, 246389, Note_on_c, 0, 73, 26
2, 246606, Note_on_c, 0, 85, 0
2, 246612, Note_on_c, 0, 73, 0
2, 246734, Note_on_c, 0, 84, 29
2, 246746, Note_on_c, 0, 64, 24
2, 246904, Note_on_c, 0, 84, 0
2, 246906, Note_on_c, 0, 64, 0
2, 247251, Control_c, 0, 64, 127
2, 247308, Note_on_c, 0, 79, 31
2, 247528, Control_c, 0, 64, 0
2, 247551, Note_on_c, 0, 79, 0
2, 247657, Note_on_c, 0, 61, 27
2, 247692, Note_on_c, 0, 82, 45
2, 247698, Note_on_c, 0, 53, 20
2, 247726, Note_on_c, 0, 58, 36
2, 247977, Control_c, 0, 64, 127
2, 249330, Note_on_c, 0, 82, 0
2, 249628, Note_on_c, 0, 61, 0
2, 249827, Note_on_c, 0, 58, 0
2, 250027, Note_on_c, 0, 80, 50
2, 250190, Note_on_c, 0, 80, 0
2, 250216, Note_on_c, 0, 53, 0
2, 250293, Note_on_c, 0, 79, 37
2, 250443, Control_c, 0, 64, 0
2, 250460, Note_on_c, 0, 79, 0
2, 250575, Note_on_c, 0, 80, 59
2, 250577, Note_on_c, 0, 53, 20
2, 250578, Note_on_c, 0, 56, 25
2, 250616, Note_on_c, 0, 60, 18
2, 250746, Control_c, 0, 64, 127
2, 251001, Note_on_c, 0, 80, 0
2, 251520, Note_on_c, 0, 68, 27
2, 251533, Note_on_c, 0, 65, 22
2, 251651, Note_on_c, 0, 68, 0
2, 251922, Note_on_c, 0, 65, 0
2, 252203, Note_on_c, 0, 60, 0
2, 252540, Note_on_c, 0, 53, 0
2, 252580, Note_on_c, 0, 56, 0
2, 253103, Note_on_c, 0, 79, 71
2, 253279, Note_on_c, 0, 79, 0
2, 253370, Control_c, 0, 64, 0
2, 253440, Note_on_c, 0, 77, 59
2, 253451, Note_on_c, 0, 56, 31
2, 253493, Note_on_c, 0, 62, 26
2, 253569, Note_on_c, 0, 77, 0
2, 253577, Note_on_c, 0, 67, 4
2, 253795, Note_on_c, 0, 77, 49
2, 253868, Note_on_c, 0, 77, 0
2, 253965, Note_on_c, 0, 79, 32
2, 254046, Note_on_c, 0, 79, 0
2, 254071, Note_on_c, 0, 77, 42
2, 254132, Note_on_c, 0, 77, 0
2, 254189, Note_on_c, 0, 79, 30
2, 254283, Note_on_c, 0, 79, 0
2, 254291, Note_on_c, 0, 77, 55
2, 254388, Note_on_c, 0, 77, 0
2, 254425, Note_on_c, 0, 79, 37
2, 254524, Note_on_c, 0, 79, 0
2, 254546, Note_on_c, 0, 77, 49
2, 254626, Note_on_c, 0, 77, 0
2, 254672, Note_on_c, 0, 79, 32
2, 254687, Control_c, 0, 64, 127
2, 254763, Note_on_c, 0, 79, 0
2, 254789, Note_on_c, 0, 77, 48
2, 254856, Note_on_c, 0, 77, 0
2, 255033, Note_on_c, 0, 77, 44
2, 255100, Note_on_c, 0, 77, 0
2, 255142, Note_on_c, 0, 79, 49
2, 255209, Note_on_c, 0, 79, 0
2, 255273, Note_on_c, 0, 77, 35
2, 255304, Note_on_c, 0, 67, 0
2, 255345, Note_on_c, 0, 77, 0
2, 255399, Note_on_c, 0, 79, 32
2, 255513, Note_on_c, 0, 77, 38
2, 255541, Note_on_c, 0, 79, 0
2, 255683, Note_on_c, 0, 77, 0
2, 255718, Note_on_c, 0, 76, 55
2, 255846, Note_on_c, 0, 76, 0
2, 255868, Note_on_c, 0, 62, 0
2, 255884, Note_on_c, 0, 77, 50
2, 255917, Note_on_c, 0, 56, 0
2, 256079, Note_on_c, 0, 78, 49
2, 256132, Note_on_c, 0, 77, 0
2, 256279, Note_on_c, 0, 79, 76
2, 256316, Control_c, 0, 64, 0
2, 256335, Note_on_c, 0, 78, 0
2, 256369, Note_on_c, 0, 59, 30
2, 256398, Note_on_c, 0, 67, 22
2, 256444, Note_on_c, 0, 62, 34
2, 256722, Control_c, 0, 64, 127
2, 257032, Note_on_c, 0, 67, 0
2, 257176, Note_on_c, 0, 62, 0
2, 257409, Note_on_c, 0, 71, 32
2, 257435, Note_on_c, 0, 79, 0
2, 258222, Note_on_c, 0, 71, 0
2, 258298, Note_on_c, 0, 74, 62
2, 258632, Note_on_c, 0, 74, 0
2, 258634, Note_on_c, 0, 75, 36
2, 258683, Control_c, 0, 64, 0
2, 258797, Note_on_c, 0, 75, 0
2, 258806, Note_on_c, 0, 59, 0
2, 258807, Note_on_c, 0, 76, 54
2, 258949, Note_on_c, 0, 76, 0
2, 258972, Note_on_c, 0, 77, 62
2, 259161, Control_c, 0, 64, 127
2, 259208, Note_on_c, 0, 74, 48
2, 259209, Note_on_c, 0, 77, 0
2, 259320, Control_c, 0, 64, 0
2, 259339, Note_on_c, 0, 74, 0
2, 259427, Note_on_c, 0, 75, 49
2, 259801, Note_on_c, 0, 67, 36
2, 259831, Note_on_c, 0, 48, 31
2, 260019, Note_on_c, 0, 75, 0
2, 260042, Note_on_c, 0, 67, 0
2, 260156, Control_c, 0, 64, 127
2, 261141, Note_on_c, 0, 55, 1
2, 261187, Note_on_c, 0, 63, 38
2, 261260, Note_on_c, 0, 48, 0
2, 261739, Note_on_c, 0, 48, 20
2, 261926, Note_on_c, 0, 63, 0
2, 261995, Note_on_c, 0, 55, 0
2, 262047, Control_c, 0, 64, 0
2, 262077, Note_on_c, 0, 63, 40
2, 262109, Note_on_c, 0, 72, 44
2, 262112, Note_on_c, 0, 57, 33
2, 262379, Control_c, 0, 64, 127
2, 262766, Note_on_c, 0, 63, 0
2, 262769, Note_on_c, 0, 57, 0
2, 263067, Note_on_c, 0, 63, 34
2, 263106, Note_on_c, 0, 57, 32
2, 263335, Note_on_c, 0, 63, 0
2, 263392, Note_on_c, 0, 48, 0
2, 263643, Note_on_c, 0, 72, 0
2, 264125, Note_on_c, 0, 57, 0
2, 264792, Control_c, 0, 64, 0
2, 264932, Note_on_c, 0, 46, 28
2, 264965, Note_on_c, 0, 70, 31
2, 265008, Control_c, 0, 64, 127
2, 265009, Note_on_c, 0, 58, 20
2, 265058, Note_on_c, 0, 46, 0
2, 265086, Note_on_c, 0, 70, 0
2, 265133, Note_on_c, 0, 58, 0
2, 265959, Note_on_c, 0, 67, 32
2, 265963, Control_c, 0, 64, 0
2, 265966, Note_on_c, 0, 56, 32
2, 265974, Note_on_c, 0, 86, 68
2, 266009, Note_on_c, 0, 62, 28
2, 266060, Control_c, 0, 64, 127
2, 266600, Note_on_c, 0, 67, 0
2, 266603, Note_on_c, 0, 85, 26
2, 266663, Note_on_c, 0, 62, 0
2, 266675, Note_on_c, 0, 86, 0
2, 266841, Note_on_c, 0, 85, 0
2, 266892, Note_on_c, 0, 84, 24
2, 267073, Control_c, 0, 64, 0
2, 267136, Note_on_c, 0, 84, 0
2, 267145, Note_on_c, 0, 67, 30
2, 267153, Note_on_c, 0, 83, 65
2, 267188, Note_on_c, 0, 62, 22
2, 267316, Control_c, 0, 64, 127
2, 267549, Note_on_c, 0, 83, 0
2, 267568, Note_on_c, 0, 82, 60
2, 267601, Note_on_c, 0, 67, 0
2, 267640, Note_on_c, 0, 62, 0
2, 267852, Note_on_c, 0, 82, 0
2, 267940, Control_c, 0, 64, 0
2, 268037, Note_on_c, 0, 80, 38
2, 268156, Control_c, 0, 64, 127
2, 268285, Note_on_c, 0, 80, 0
2, 268746, Note_on_c, 0, 69, 51
2, 268762, Control_c, 0, 64, 0
2, 268816, Note_on_c, 0, 62, 24
2, 268901, Note_on_c, 0, 69, 0
2, 268952, Note_on_c, 0, 70, 47
2, 269107, Note_on_c, 0, 70, 0
2, 269137, Control_c, 0, 64, 127
2, 269141, Note_on_c, 0, 71, 48
2, 269277, Note_on_c, 0, 71, 0
2, 269312, Note_on_c, 0, 72, 28
2, 269472, Note_on_c, 0, 73, 30
2, 269494, Note_on_c, 0, 72, 0
2, 269587, Note_on_c, 0, 73, 0
2, 269626, Control_c, 0, 64, 0
2, 269646, Note_on_c, 0, 74, 33
2, 269760, Note_on_c, 0, 79, 48
2, 269787, Note_on_c, 0, 74, 0
2, 269931, Note_on_c, 0, 62, 0
2, 270043, Note_on_c, 0, 79, 0
2, 270090, Control_c, 0, 64, 127
2, 270107, Note_on_c, 0, 56, 0
2, 270512, Note_on_c, 0, 77, 54
2, 270650, Control_c, 0, 64, 0
2, 270744, Note_on_c, 0, 55, 19
2, 270752, Note_on_c, 0, 77, 0
2, 270779, Note_on_c, 0, 75, 34
2, 270785, Note_on_c, 0, 62, 29
2, 270790, Note_on_c, 0, 65, 20
2, 270793, Note_on_c, 0, 60, 27
2, 270983, Control_c, 0, 64, 127
2, 271064, Note_on_c, 0, 62, 0
2, 271081, Note_on_c, 0, 65, 0
2, 271123, Note_on_c, 0, 60, 0
2, 271236, Note_on_c, 0, 55, 0
2, 271805, Note_on_c, 0, 27, 37
2, 271967, Note_on_c, 0, 27, 0
2, 272956, Note_on_c, 0, 75, 0
2, 276123, Note_on_c, 0, 70, 39
2, 276183, Note_on_c, 0, 70, 0
2, 276482, Control_c, 0, 64, 0
2, 276501, Note_on_c, 0, 55, 24
2, 276515, Note_on_c, 0, 79, 51
2, 276578, Note_on_c, 0, 65, 20
2, 276587, Note_on_c, 0, 62, 28
2, 276827, Control_c, 0, 64, 127
2, 276995, Note_on_c, 0, 60, 1
2, 278279, Note_on_c, 0, 62, 0
2, 278350, Note_on_c, 0, 60, 0
2, 278412, Note_on_c, 0, 65, 0
2, 278567, Note_on_c, 0, 55, 0
2, 279400, Control_c, 0, 64, 0
2, 279472, Note_on_c, 0, 62, 27
2, 279476, Note_on_c, 0, 56, 21
2, 279482, Note_on_c, 0, 53, 33
2, 279489, Note_on_c, 0, 59, 31
2, 279859, Control_c, 0, 64, 127
2, 280241, Note_on_c, 0, 79, 0
2, 280898, Control_c, 0, 64, 0
2, 280903, Note_on_c, 0, 82, 86
2, 281151, Note_on_c, 0, 82, 0
2, 281207, Note_on_c, 0, 83, 77
2, 281461, Note_on_c, 0, 83, 0
2, 281568, Note_on_c, 0, 80, 77
2, 281794, Note_on_c, 0, 80, 0
2, 281809, Control_c, 0, 64, 127
2, 281876, Note_on_c, 0, 59, 0
2, 281893, Note_on_c, 0, 79, 50
2, 281901, Note_on_c, 0, 56, 0
2, 281921, Note_on_c, 0, 53, 0
2, 281971, Note_on_c, 0, 62, 0
2, 282138, Note_on_c, 0, 79, 0
2, 282188, Note_on_c, 0, 77, 38
2, 282299, Control_c, 0, 64, 0
2, 282387, Note_on_c, 0, 77, 0
2, 282428, Note_on_c, 0, 62, 24
2, 282431, Note_on_c, 0, 60, 29
2, 282440, Note_on_c, 0, 55, 17
2, 282451, Note_on_c, 0, 75, 44
2, 282472, Note_on_c, 0, 65, 24
2, 282709, Note_on_c, 0, 75, 0
2, 282824, Note_on_c, 0, 74, 33
2, 283127, Note_on_c, 0, 74, 0
2, 283137, Note_on_c, 0, 77, 55
2, 283508, Note_on_c, 0, 77, 0
2, 283976, Note_on_c, 0, 75, 63
2, 284223, Note_on_c, 0, 75, 0
2, 284249, Note_on_c, 0, 74, 68
2, 284456, Note_on_c, 0, 74, 0
2, 284557, Note_on_c, 0, 75, 65
2, 284758, Note_on_c, 0, 75, 0
2, 284834, Note_on_c, 0, 77, 61
2, 285016, Note_on_c, 0, 77, 0
2, 285119, Note_on_c, 0, 74, 64
2, 285220, Note_on_c, 0, 65, 0
2, 285227, Control_c, 0, 64, 127
2, 285276, Note_on_c, 0, 62, 0
2, 285305, Note_on_c, 0, 60, 0
2, 285364, Note_on_c, 0, 55, 0
2, 286566, Note_on_c, 0, 74, 0
2, 286759, Note_on_c, 0, 70, 44
2, 286809, Note_on_c, 0, 58, 21
2, 286825, Note_on_c, 0, 50, 18
2, 286846, Control_c, 0, 64, 0
2, 287040, Note_on_c, 0, 70, 0
2, 287117, Note_on_c, 0, 67, 36
2, 287266, Note_on_c, 0, 67, 0
2, 287478, Note_on_c, 0, 50, 0
2, 287492, Note_on_c, 0, 62, 35
2, 287623, Note_on_c, 0, 62, 0
2, 287726, Note_on_c, 0, 65, 63
2, 287748, Note_on_c, 0, 58, 0
2, 287811, Control_c, 0, 64, 127
2, 287913, Control_c, 0, 64, 0
2, 288030, Note_on_c, 0, 65, 0
2, 288079, Note_on_c, 0, 63, 56
2, 288105, Note_on_c, 0, 58, 20
2, 288172, Note_on_c, 0, 48, 20
2, 288316, Note_on_c, 0, 63, 0
2, 288371, Note_on_c, 0, 64, 40
2, 288618, Note_on_c, 0, 64, 0
2, 288673, Note_on_c, 0, 61, 45
2, 288933, Note_on_c, 0, 61, 0
2, 289025, Note_on_c, 0, 60, 33
2, 289515, Control_c, 0, 64, 127
2, 289743, Note_on_c, 0, 60, 0
2, 289878, Control_c, 0, 64, 0
2, 289999, Note_on_c, 0, 60, 31
2, 290196, Control_c, 0, 64, 127
2, 290470, Note_on_c, 0, 48, 0
2, 290721, Note_on_c, 0, 58, 0
2, 290928, Control_c, 0, 64, 0
2, 290987, Note_on_c, 0, 58, 32
2, 291027, Note_on_c, 0, 52, 27
2, 291555, Note_on_c, 0, 61, 44
2, 291643, Note_on_c, 0, 60, 0
2, 291778, Note_on_c, 0, 61, 0
2, 291858, Note_on_c, 0, 63, 44
2, 292022, Note_on_c, 0, 63, 0
2, 292082, Note_on_c, 0, 64, 66
2, 292222, Note_on_c, 0, 64, 0
2, 292307, Note_on_c, 0, 66, 60
2, 292458, Note_on_c, 0, 66, 0
2, 292523, Note_on_c, 0, 67, 66
2, 292671, Note_on_c, 0, 67, 0
2, 292739, Note_on_c, 0, 69, 77
2, 292898, Note_on_c, 0, 69, 0
2, 292994, Note_on_c, 0, 70, 75
2, 293119, Note_on_c, 0, 52, 0
2, 293168, Note_on_c, 0, 70, 0
2, 293191, Note_on_c, 0, 58, 0
2, 293223, Note_on_c, 0, 72, 65
2, 293458, Control_c, 0, 64, 127
2, 293461, Note_on_c, 0, 72, 0
2, 293483, Note_on_c, 0, 69, 59
2, 293515, Control_c, 0, 64, 0
2, 293718, Note_on_c, 0, 69, 0
2, 293751, Note_on_c, 0, 61, 29
2, 293773, Note_on_c, 0, 70, 62
2, 293831, Note_on_c, 0, 58, 28
2, 294251, Control_c, 0, 64, 127
2, 294539, Control_c, 0, 64, 0
2, 294721, Note_on_c, 0, 70, 0
2, 294801, Control_c, 0, 64, 127
2, 294818, Note_on_c, 0, 65, 29
2, 294987, Note_on_c, 0, 61, 0
2, 295969, Note_on_c, 0, 58, 0
2, 296229, Note_on_c, 0, 61, 46
2, 296319, Note_on_c, 0, 65, 0
2, 296440, Note_on_c, 0, 61, 0
2, 296503, Control_c, 0, 64, 0
2, 296588, Note_on_c, 0, 68, 46
2, 296601, Note_on_c, 0, 53, 24
2, 296616, Note_on_c, 0, 56, 25
2, 296820, Note_on_c, 0, 60, 1
2, 297051, Control_c, 0, 64, 127
2, 298217, Note_on_c, 0, 60, 0
2, 298295, Note_on_c, 0, 53, 0
2, 298358, Note_on_c, 0, 56, 0
2, 299237, Note_on_c, 0, 68, 0
2, 299418, Control_c, 0, 64, 0
2, 299485, Note_on_c, 0, 46, 27
2, 299489, Note_on_c, 0, 56, 25
2, 299490, Note_on_c, 0, 65, 32
2, 299505, Note_on_c, 0, 62, 24
2, 299722, Control_c, 0, 64, 127
2, 299834, Note_on_c, 0, 46, 0
2, 299907, Note_on_c, 0, 56, 0
2, 300074, Note_on_c, 0, 62, 0
2, 300420, Note_on_c, 0, 65, 0
2, 300517, Note_on_c, 0, 62, 29
2, 300578, Note_on_c, 0, 59, 24
2, 300588, Control_c, 0, 64, 0
2, 300761, Control_c, 0, 64, 127
2, 300950, Note_on_c, 0, 56, 1
2, 301269, Note_on_c, 0, 62, 0
2, 301311, Note_on_c, 0, 59, 0
2, 301426, Note_on_c, 0, 56, 0
2, 302379, Control_c, 0, 64, 0
2, 302454, Note_on_c, 0, 47, 31
2, 302472, Note_on_c, 0, 56, 25
2, 302516, Note_on_c, 0, 71, 58
2, 302660, Note_on_c, 0, 71, 0
2, 302819, Note_on_c, 0, 71, 50
2, 303003, Note_on_c, 0, 70, 57
2, 303022, Note_on_c, 0, 71, 0
2, 303118, Note_on_c, 0, 70, 0
2, 303275, Note_on_c, 0, 71, 53
2, 303344, Note_on_c, 0, 71, 0
2, 303541, Note_on_c, 0, 74, 72
2, 303672, Note_on_c, 0, 74, 0
2, 303718, Note_on_c, 0, 76, 42
2, 303856, Note_on_c, 0, 74, 44
2, 303862, Note_on_c, 0, 76, 0
2, 304047, Note_on_c, 0, 73, 35
2, 304059, Note_on_c, 0, 74, 0
2, 304226, Note_on_c, 0, 74, 63
2, 304233, Note_on_c, 0, 73, 0
2, 304328, Note_on_c, 0, 74, 0
2, 304495, Note_on_c, 0, 77, 52
2, 304518, Note_on_c, 0, 76, 47
2, 304577, Note_on_c, 0, 76, 0
2, 304657, Note_on_c, 0, 77, 0
2, 304706, Note_on_c, 0, 79, 48
2, 304853, Note_on_c, 0, 79, 0
2, 304858, Note_on_c, 0, 77, 47
2, 305019, Note_on_c, 0, 77, 0
2, 305022, Note_on_c, 0, 76, 42
2, 305146, Note_on_c, 0, 47, 0
2, 305150, Note_on_c, 0, 76, 0
2, 305194, Note_on_c, 0, 56, 0
2, 305204, Note_on_c, 0, 77, 62
2, 305382, Note_on_c, 0, 77, 0
2, 305435, Note_on_c, 0, 55, 34
2, 305436, Note_on_c, 0, 79, 50
2, 305635, Note_on_c, 0, 79, 0
2, 305872, Note_on_c, 0, 48, 1
2, 306591, Note_on_c, 0, 86, 71
2, 306753, Control_c, 0, 64, 127
2, 306765, Note_on_c, 0, 86, 0
2, 306887, Note_on_c, 0, 89, 89
2, 307069, Note_on_c, 0, 89, 0
2, 307154, Control_c, 0, 64, 0
2, 307220, Note_on_c, 0, 87, 77
2, 307240, Note_on_c, 0, 60, 31
2, 307463, Note_on_c, 0, 87, 0
2, 307615, Control_c, 0, 64, 127
2, 307722, Note_on_c, 0, 48, 0
2, 307827, Note_on_c, 0, 60, 0
2, 307834, Note_on_c, 0, 86, 75
2, 308006, Note_on_c, 0, 86, 0
2, 308179, Control_c, 0, 64, 0
2, 308245, Note_on_c, 0, 55, 0
2, 308252, Note_on_c, 0, 84, 65
2, 308267, Note_on_c, 0, 57, 42
2, 308310, Note_on_c, 0, 48, 24
2, 308454, Control_c, 0, 64, 127
2, 308903, Note_on_c, 0, 84, 0
2, 309112, Note_on_c, 0, 81, 39
2, 309229, Note_on_c, 0, 81, 0
2, 309590, Note_on_c, 0, 57, 0
2, 309980, Note_on_c, 0, 48, 0
2, 310677, Note_on_c, 0, 75, 33
2, 310844, Note_on_c, 0, 75, 0
2, 311011, Control_c, 0, 64, 0
2, 311048, Note_on_c, 0, 68, 28
2, 311071, Note_on_c, 0, 82, 37
2, 311119, Note_on_c, 0, 70, 20
2, 311136, Note_on_c, 0, 63, 23
2, 311161, Note_on_c, 0, 58, 14
2, 311223, Control_c, 0, 64, 127
2, 311451, Note_on_c, 0, 70, 0
2, 311512, Note_on_c, 0, 82, 0
2, 311567, Note_on_c, 0, 68, 0
2, 311574, Note_on_c, 0, 58, 0
2, 311717, Note_on_c, 0, 63, 0
2, 312525, Control_c, 0, 64, 0
2, 312602, Note_on_c, 0, 61, 31
2, 312630, Note_on_c, 0, 68, 67
2, 312637, Note_on_c, 0, 82, 70
2, 312638, Note_on_c, 0, 86, 79
2, 312640, Note_on_c, 0, 58, 56
2, 312643, Note_on_c, 0, 79, 73
2, 312644, Note_on_c, 0, 74, 80
2, 312656, Note_on_c, 0, 63, 48
2, 312667, Note_on_c, 0, 60, 53
2, 312715, Control_c, 0, 64, 127
2, 312729, Note_on_c, 0, 61, 0
2, 312992, Note_on_c, 0, 86, 0
2, 313009, Note_on_c, 0, 68, 0
2, 313011, Note_on_c, 0, 79, 0
2, 313012, Note_on_c, 0, 58, 0
2, 313017, Note_on_c, 0, 60, 0
2, 313027, Note_on_c, 0, 74, 0
2, 313045, Note_on_c, 0, 63, 0
2, 313064, Note_on_c, 0, 82, 0
2, 313109, Control_c, 0, 64, 0
2, 313241, Note_on_c, 0, 84, 64
2, 313246, Note_on_c, 0, 82, 52
2, 313253, Note_on_c, 0, 68, 57
2, 313254, Note_on_c, 0, 58, 56
2, 313260, Note_on_c, 0, 79, 56
2, 313263, Note_on_c, 0, 72, 51
2, 313277, Note_on_c, 0, 63, 48
2, 313279, Note_on_c, 0, 60, 46
2, 313366, Control_c, 0, 64, 127
2, 313434, Note_on_c, 0, 72, 0
2, 313494, Note_on_c, 0, 79, 0
2, 313520, Note_on_c, 0, 84, 0
2, 313539, Note_on_c, 0, 82, 0
2, 313614, Note_on_c, 0, 68, 0
2, 313675, Note_on_c, 0, 58, 0
2, 313698, Note_on_c, 0, 60, 0
2, 313780, Note_on_c, 0, 63, 0
2, 313855, Control_c, 0, 64, 0
2, 313952, Note_on_c, 0, 85, 62
2, 313965, Note_on_c, 0, 77, 63
2, 313966, Note_on_c, 0, 89, 65
2, 313978, Note_on_c, 0, 67, 54
2, 313980, Note_on_c, 0, 56, 53
2, 313986, Note_on_c, 0, 62, 42
2, 314147, Control_c, 0, 64, 127
2, 314151, Note_on_c, 0, 86, 34
2, 314239, Note_on_c, 0, 85, 0
2, 314314, Note_on_c, 0, 89, 0
2, 314323, Note_on_c, 0, 86, 0
2, 314375, Note_on_c, 0, 67, 0
2, 314379, Note_on_c, 0, 77, 0
2, 314385, Note_on_c, 0, 56, 0
2, 314437, Note_on_c, 0, 62, 0
2, 314550, Control_c, 0, 64, 0
2, 314605, Note_on_c, 0, 86, 63
2, 314625, Note_on_c, 0, 80, 55
2, 314626, Note_on_c, 0, 74, 51
2, 314649, Note_on_c, 0, 56, 46
2, 314652, Note_on_c, 0, 67, 44
2, 314681, Note_on_c, 0, 62, 32
2, 314771, Note_on_c, 0, 80, 0
2, 314869, Control_c, 0, 64, 127
2, 315128, Note_on_c, 0, 86, 0
2, 315149, Note_on_c, 0, 67, 0
2, 315250, Note_on_c, 0, 74, 0
2, 315442, Note_on_c, 0, 56, 0
2, 315952, Note_on_c, 0, 62, 0
2, 316441, Control_c, 0, 64, 0
2, 316507, Note_on_c, 0, 84, 58
2, 316514, Note_on_c, 0, 56, 55
2, 316538, Note_on_c, 0, 78, 37
2, 316539, Note_on_c, 0, 62, 24
2, 316552, Note_on_c, 0, 66, 30
2, 316559, Note_on_c, 0, 72, 26
2, 316584, Control_c, 0, 64, 127
2, 316609, Note_on_c, 0, 78, 0
2, 316717, Note_on_c, 0, 66, 0
2, 316765, Note_on_c, 0, 72, 0
2, 316785, Note_on_c, 0, 84, 0
2, 316828, Note_on_c, 0, 56, 0
2, 316873, Control_c, 0, 64, 0
2, 316996, Note_on_c, 0, 65, 32
2, 317013, Note_on_c, 0, 55, 27
2, 317023, Note_on_c, 0, 82, 42
2, 317043, Note_on_c, 0, 60, 24
2, 317206, Control_c, 0, 64, 127
2, 317472, Note_on_c, 0, 82, 0
2, 317525, Note_on_c, 0, 65, 0
2, 317584, Note_on_c, 0, 60, 0
2, 317592, Note_on_c, 0, 62, 0
2, 317702, Note_on_c, 0, 55, 0
2, 317836, Note_on_c, 0, 79, 36
2, 317839, Note_on_c, 0, 75, 36
2, 317850, Note_on_c, 0, 55, 30
2, 317869, Control_c, 0, 64, 0
2, 317870, Note_on_c, 0, 67, 19
2, 317891, Note_on_c, 0, 65, 24
2, 317894, Note_on_c, 0, 62, 27
2, 317919, Note_on_c, 0, 60, 25
2, 317999, Control_c, 0, 64, 127
2, 318372, Note_on_c, 0, 65, 0
2, 318438, Note_on_c, 0, 67, 0
2, 318443, Note_on_c, 0, 62, 0
2, 318444, Note_on_c, 0, 60, 0
2, 318473, Note_on_c, 0, 75, 0
2, 318551, Note_on_c, 0, 79, 0
2, 318796, Note_on_c, 0, 65, 29
2, 318802, Note_on_c, 0, 79, 34
2, 318812, Note_on_c, 0, 67, 37
2, 318825, Note_on_c, 0, 75, 35
2, 318858, Note_on_c, 0, 60, 20
2, 319074, Note_on_c, 0, 55, 0
2, 319103, Note_on_c, 0, 60, 0
2, 319152, Note_on_c, 0, 67, 0
2, 319342, Note_on_c, 0, 65, 0
2, 319431, Note_on_c, 0, 75, 0
2, 319458, Note_on_c, 0, 79, 0
2, 319674, Control_c, 0, 64, 0
2, 319744, Note_on_c, 0, 68, 64
2, 319747, Note_on_c, 0, 72, 66
2, 319749, Note_on_c, 0, 79, 60
2, 319756, Note_on_c, 0, 75, 56
2, 319767, Note_on_c, 0, 67, 71
2, 320048, Control_c, 0, 64, 127
2, 320185, Note_on_c, 0, 68, 0
2, 320188, Note_on_c, 0, 72, 0
2, 320194, Control_c, 0, 64, 0
2, 320207, Note_on_c, 0, 79, 0
2, 320211, Note_on_c, 0, 75, 0
2, 320312, Note_on_c, 0, 67, 0
2, 320357, Note_on_c, 0, 68, 54
2, 320361, Note_on_c, 0, 75, 39
2, 320362, Note_on_c, 0, 77, 53
2, 320375, Note_on_c, 0, 72, 57
2, 320380, Note_on_c, 0, 65, 55
2, 320539, Note_on_c, 0, 72, 0
2, 320555, Control_c, 0, 64, 127
2, 320556, Note_on_c, 0, 77, 0
2, 320575, Note_on_c, 0, 75, 0
2, 320607, Note_on_c, 0, 65, 0
2, 320651, Note_on_c, 0, 68, 0
2, 320801, Control_c, 0, 64, 0
2, 320917, Note_on_c, 0, 75, 52
2, 320938, Note_on_c, 0, 63, 51
2, 320949, Note_on_c, 0, 68, 43
2, 320969, Note_on_c, 0, 72, 46
2, 320975, Note_on_c, 0, 65, 37
2, 321030, Control_c, 0, 64, 127
2, 321115, Note_on_c, 0, 72, 0
2, 321166, Note_on_c, 0, 75, 0
2, 321191, Note_on_c, 0, 68, 0
2, 321223, Note_on_c, 0, 65, 0
2, 321230, Note_on_c, 0, 63, 0
2, 321464, Control_c, 0, 64, 0
2, 321555, Note_on_c, 0, 72, 46
2, 321589, Note_on_c, 0, 67, 39
2, 321595, Note_on_c, 0, 60, 26
2, 321647, Note_on_c, 0, 62, 19
2, 321649, Note_on_c, 0, 64, 20
2, 321711, Control_c, 0, 64, 127
2, 321880, Note_on_c, 0, 62, 0
2, 321903, Note_on_c, 0, 64, 0
2, 321926, Note_on_c, 0, 60, 0
2, 321949, Note_on_c, 0, 67, 0
2, 321997, Control_c, 0, 64, 0
2, 322036, Note_on_c, 0, 72, 0
2, 322159, Note_on_c, 0, 71, 48
2, 322172, Note_on_c, 0, 59, 38
2, 322187, Note_on_c, 0, 62, 44
2, 322190, Note_on_c, 0, 67, 44
2, 322244, Control_c, 0, 64, 127
2, 322453, Note_on_c, 0, 71, 0
2, 322463, Note_on_c, 0, 62, 0
2, 322465, Note_on_c, 0, 67, 0
2, 322605, Control_c, 0, 64, 0
2, 322689, Note_on_c, 0, 59, 0
2, 322751, Note_on_c, 0, 58, 36
2, 322783, Note_on_c, 0, 62, 19
2, 322787, Note_on_c, 0, 67, 24
2, 322788, Note_on_c, 0, 70, 33
2, 322893, Control_c, 0, 64, 127
2, 322968, Note_on_c, 0, 67, 0
2, 323161, Note_on_c, 0, 62, 0
2, 323571, Control_c, 0, 64, 0
2, 323600, Note_on_c, 0, 67, 35
2, 323605, Note_on_c, 0, 63, 40
2, 323621, Note_on_c, 0, 51, 39
2, 323804, Control_c, 0, 64, 127
2, 323873, Note_on_c, 0, 58, 0
2, 324044, Note_on_c, 0, 70, 0
2, 324193, Note_on_c, 0, 63, 0
2, 324225, Note_on_c, 0, 51, 0
2, 324454, Note_on_c, 0, 67, 0
2, 324553, Note_on_c, 0, 63, 39
2, 324564, Note_on_c, 0, 51, 35
2, 324572, Note_on_c, 0, 58, 40
2, 324905, Note_on_c, 0, 58, 0
2, 325159, Note_on_c, 0, 51, 0
2, 325192, Note_on_c, 0, 63, 0
2, 325389, Control_c, 0, 64, 0
2, 325458, Note_on_c, 0, 59, 41
2, 325461, Note_on_c, 0, 62, 49
2, 325475, Note_on_c, 0, 51, 29
2, 325488, Note_on_c, 0, 56, 37
2, 325692, Control_c, 0, 64, 127
2, 325881, Note_on_c, 0, 59, 0
2, 326036, Note_on_c, 0, 62, 0
2, 326438, Note_on_c, 0, 59, 41
2, 327020, Note_on_c, 0, 65, 67
2, 327024, Note_on_c, 0, 67, 65
2, 327182, Note_on_c, 0, 67, 0
2, 327216, Note_on_c, 0, 65, 0
2, 327386, Note_on_c, 0, 68, 76
2, 327553, Control_c, 0, 64, 0
2, 327608, Note_on_c, 0, 68, 0
2, 327672, Note_on_c, 0, 70, 69
2, 327819, Note_on_c, 0, 51, 0
2, 327937, Note_on_c, 0, 70, 0
2, 327973, Control_c, 0, 64, 127
2, 327992, Note_on_c, 0, 71, 64
2, 328019, Note_on_c, 0, 51, 42
2, 328210, Note_on_c, 0, 56, 0
2, 328239, Note_on_c, 0, 59, 0
2, 328246, Note_on_c, 0, 51, 0
2, 328312, Note_on_c, 0, 71, 0
2, 328321, Control_c, 0, 64, 0
2, 328373, Note_on_c, 0, 67, 62
2, 328406, Note_on_c, 0, 70, 46
2, 328412, Note_on_c, 0, 51, 20
2, 328425, Note_on_c, 0, 58, 34
2, 328695, Control_c, 0, 64, 127
2, 328784, Note_on_c, 0, 67, 0
2, 329253, Note_on_c, 0, 70, 0
2, 329260, Control_c, 0, 64, 0
2, 329315, Note_on_c, 0, 67, 45
2, 329316, Note_on_c, 0, 63, 30
2, 329326, Note_on_c, 0, 62, 28
2, 329505, Control_c, 0, 64, 127
2, 329572, Note_on_c, 0, 62, 0
2, 329904, Note_on_c, 0, 63, 0
2, 329927, Note_on_c, 0, 58, 0
2, 330323, Note_on_c, 0, 63, 35
2, 330340, Note_on_c, 0, 58, 32
2, 330423, Note_on_c, 0, 67, 0
2, 330477, Note_on_c, 0, 63, 0
2, 330658, Note_on_c, 0, 58, 0
2, 330791, Note_on_c, 0, 51, 0
2, 331148, Control_c, 0, 64, 0
2, 331188, Note_on_c, 0, 74, 82
2, 331200, Note_on_c, 0, 77, 70
2, 331210, Note_on_c, 0, 58, 33
2, 331235, Note_on_c, 0, 50, 32
2, 331384, Note_on_c, 0, 77, 0
2, 331431, Note_on_c, 0, 74, 0
2, 331490, Note_on_c, 0, 75, 40
2, 331539, Control_c, 0, 64, 127
2, 331656, Control_c, 0, 64, 0
2, 331665, Note_on_c, 0, 75, 0
2, 331797, Note_on_c, 0, 74, 73
2, 331820, Note_on_c, 0, 77, 68
2, 331994, Note_on_c, 0, 77, 0
2, 332060, Note_on_c, 0, 74, 0
2, 332116, Control_c, 0, 64, 127
2, 332158, Note_on_c, 0, 75, 53
2, 332163, Note_on_c, 0, 72, 48
2, 332671, Note_on_c, 0, 58, 0
2, 332901, Note_on_c, 0, 72, 0
2, 333025, Control_c, 0, 64, 0
2, 333032, Note_on_c, 0, 75, 0
2, 333119, Note_on_c, 0, 58, 28
2, 333126, Note_on_c, 0, 74, 57
2, 333155, Note_on_c, 0, 70, 31
2, 333256, Note_on_c, 0, 50, 0
2, 333259, Note_on_c, 0, 70, 0
2, 333354, Note_on_c, 0, 74, 0
2, 333402, Control_c, 0, 64, 127
2, 333441, Note_on_c, 0, 72, 39
2, 333508, Note_on_c, 0, 58, 0
2, 333545, Control_c, 0, 64, 0
2, 333596, Note_on_c, 0, 72, 0
2, 333725, Note_on_c, 0, 70, 43
2, 333727, Note_on_c, 0, 74, 55
2, 333748, Control_c, 0, 64, 127
2, 333751, Note_on_c, 0, 58, 25
2, 333895, Note_on_c, 0, 58, 0
2, 333912, Note_on_c, 0, 70, 0
2, 333991, Control_c, 0, 64, 0
2, 334029, Note_on_c, 0, 74, 0
2, 334102, Note_on_c, 0, 58, 37
2, 334104, Note_on_c, 0, 72, 40
2, 334119, Note_on_c, 0, 69, 29
2, 334160, Note_on_c, 0, 48, 30
2, 334282, Control_c, 0, 64, 127
2, 334544, Note_on_c, 0, 72, 0
2, 334702, Note_on_c, 0, 69, 0
2, 334775, Note_on_c, 0, 58, 0
2, 335051, Note_on_c, 0, 58, 33
2, 336261, Note_on_c, 0, 48, 0
2, 336373, Note_on_c, 0, 65, 82
2, 336462, Control_c, 0, 64, 0
2, 336469, Note_on_c, 0, 58, 0
2, 336627, Note_on_c, 0, 65, 0
2, 336660, Note_on_c, 0, 63, 56
2, 336903, Note_on_c, 0, 63, 0
2, 336985, Note_on_c, 0, 64, 40
2, 337328, Note_on_c, 0, 64, 0
2, 337634, Note_on_c, 0, 68, 78
2, 337907, Note_on_c, 0, 68, 0
2, 337989, Note_on_c, 0, 66, 33
2, 338196, Note_on_c, 0, 66, 0
2, 338239, Note_on_c, 0, 67, 52
2, 338426, Note_on_c, 0, 67, 0
2, 338569, Note_on_c, 0, 72, 72
2, 338877, Note_on_c, 0, 60, 18
2, 338884, Note_on_c, 0, 52, 22
2, 338888, Note_on_c, 0, 58, 28
2, 339391, Control_c, 0, 64, 127
2, 339436, Note_on_c, 0, 52, 0
2, 339504, Note_on_c, 0, 60, 0
2, 339826, Control_c, 0, 64, 0
2, 339837, Note_on_c, 0, 61, 34
2, 339916, Note_on_c, 0, 55, 22
2, 339935, Note_on_c, 0, 53, 18
2, 340753, Note_on_c, 0, 72, 0
2, 340796, Note_on_c, 0, 70, 53
2, 340942, Note_on_c, 0, 70, 0
2, 341041, Note_on_c, 0, 72, 49
2, 341170, Note_on_c, 0, 70, 48
2, 341171, Note_on_c, 0, 72, 0
2, 341367, Note_on_c, 0, 70, 0
2, 341432, Note_on_c, 0, 69, 18
2, 341531, Note_on_c, 0, 69, 0
2, 341568, Note_on_c, 0, 70, 47
2, 341682, Note_on_c, 0, 70, 0
2, 341784, Note_on_c, 0, 72, 54
2, 341942, Note_on_c, 0, 72, 0
2, 341975, Note_on_c, 0, 73, 37
2, 342085, Note_on_c, 0, 73, 0
2, 342221, Note_on_c, 0, 77, 61
2, 342349, Note_on_c, 0, 77, 0
2, 342433, Note_on_c, 0, 80, 56
2, 342508, Note_on_c, 0, 58, 0
2, 342511, Note_on_c, 0, 61, 0
2, 342515, Note_on_c, 0, 55, 0
2, 342575, Note_on_c, 0, 53, 0
2, 342605, Note_on_c, 0, 80, 0
2, 342653, Note_on_c, 0, 84, 72
2, 342774, Note_on_c, 0, 53, 24
2, 342801, Note_on_c, 0, 56, 27
2, 342827, Note_on_c, 0, 60, 24
2, 342889, Note_on_c, 0, 84, 0
2, 343169, Note_on_c, 0, 82, 60
2, 343405, Note_on_c, 0, 82, 0
2, 343669, Note_on_c, 0, 80, 67
2, 343823, Note_on_c, 0, 80, 0
2, 344004, Note_on_c, 0, 79, 64
2, 344154, Note_on_c, 0, 79, 0
2, 344236, Note_on_c, 0, 80, 39
2, 344341, Note_on_c, 0, 79, 42
2, 344420, Note_on_c, 0, 80, 0
2, 344488, Note_on_c, 0, 77, 43
2, 344506, Note_on_c, 0, 79, 0
2, 344645, Note_on_c, 0, 77, 0
2, 344785, Note_on_c, 0, 76, 36
2, 344901, Note_on_c, 0, 76, 0
2, 344971, Note_on_c, 0, 79, 56
2, 345177, Note_on_c, 0, 60, 0
2, 345197, Note_on_c, 0, 79, 0
2, 345202, Note_on_c, 0, 76, 50
2, 345204, Note_on_c, 0, 53, 0
2, 345226, Note_on_c, 0, 56, 0
2, 345332, Note_on_c, 0, 76, 0
2, 345397, Control_c, 0, 64, 127
2, 345421, Note_on_c, 0, 78, 64
2, 345598, Control_c, 0, 64, 0
2, 345643, Note_on_c, 0, 78, 0
2, 345670, Note_on_c, 0, 77, 50
2, 345722, Note_on_c, 0, 56, 27
2, 345741, Note_on_c, 0, 62, 32
2, 345742, Note_on_c, 0, 67, 26
2, 346045, Control_c, 0, 64, 127
2, 346590, Note_on_c, 0, 67, 0
2, 346615, Note_on_c, 0, 62, 0
2, 346769, Note_on_c, 0, 56, 0
2, 347269, Note_on_c, 0, 77, 0
2, 347624, Note_on_c, 0, 56, 39
2, 347857, Note_on_c, 0, 56, 0
2, 348355, Control_c, 0, 64, 0
2, 348444, Note_on_c, 0, 82, 84
2, 348445, Note_on_c, 0, 85, 78
2, 348454, Note_on_c, 0, 56, 32
2, 348458, Note_on_c, 0, 59, 32
2, 348463, Note_on_c, 0, 62, 36
2, 348468, Note_on_c, 0, 53, 30
2, 348733, Note_on_c, 0, 82, 0
2, 348759, Note_on_c, 0, 85, 0
2, 348769, Note_on_c, 0, 86, 60
2, 348776, Note_on_c, 0, 83, 58
2, 348896, Note_on_c, 0, 83, 0
2, 348897, Note_on_c, 0, 86, 0
2, 349082, Note_on_c, 0, 78, 69
2, 349087, Note_on_c, 0, 82, 55
2, 349290, Note_on_c, 0, 78, 0
2, 349355, Note_on_c, 0, 82, 0
2, 349392, Note_on_c, 0, 83, 60
2, 349435, Note_on_c, 0, 79, 33
2, 349504, Note_on_c, 0, 79, 0
2, 349548, Note_on_c, 0, 83, 0
2, 349681, Note_on_c, 0, 74, 41
2, 349800, Note_on_c, 0, 74, 0
2, 350424, Note_on_c, 0, 73, 75
2, 350433, Note_on_c, 0, 79, 74
2, 350686, Note_on_c, 0, 73, 0
2, 350693, Note_on_c, 0, 74, 58
2, 350808, Note_on_c, 0, 62, 0
2, 350902, Note_on_c, 0, 59, 0
2, 350903, Note_on_c, 0, 74, 0
2, 350932, Note_on_c, 0, 79, 0
2, 350979, Note_on_c, 0, 56, 0
2, 350994, Note_on_c, 0, 71, 44
2, 351001, Note_on_c, 0, 53, 0
2, 351178, Note_on_c, 0, 71, 0
2, 351378, Note_on_c, 0, 77, 73
2, 351519, Note_on_c, 0, 48, 12
2, 351675, Note_on_c, 0, 77, 0
2, 351691, Note_on_c, 0, 74, 50
2, 351842, Note_on_c, 0, 74, 0
2, 351979, Note_on_c, 0, 75, 69
2, 352248, Note_on_c, 0, 75, 0
2, 352297, Control_c, 0, 64, 127
2, 352305, Note_on_c, 0, 67, 44
2, 352666, Note_on_c, 0, 67, 0
2, 353319, Note_on_c, 0, 65, 36
2, 353401, Note_on_c, 0, 48, 0
2, 353812, Note_on_c, 0, 65, 0
2, 353916, Note_on_c, 0, 48, 24
2, 354056, Control_c, 0, 64, 0
2, 354192, Note_on_c, 0, 48, 0
2, 354241, Note_on_c, 0, 63, 40
2, 354247, Note_on_c, 0, 60, 38
2, 354254, Note_on_c, 0, 54, 34
2, 354268, Note_on_c, 0, 66, 35
2, 354274, Note_on_c, 0, 69, 25
2, 354303, Control_c, 0, 64, 127
2, 354368, Note_on_c, 0, 69, 0
2, 354427, Note_on_c, 0, 66, 0
2, 354435, Note_on_c, 0, 60, 0
2, 354447, Note_on_c, 0, 63, 0
2, 354675, Control_c, 0, 64, 0
2, 354800, Note_on_c, 0, 54, 0
2, 354806, Note_on_c, 0, 57, 51
2, 354808, Note_on_c, 0, 72, 60
2, 354809, Note_on_c, 0, 63, 62
2, 354836, Note_on_c, 0, 66, 53
2, 354865, Control_c, 0, 64, 127
2, 354976, Note_on_c, 0, 72, 0
2, 355052, Control_c, 0, 64, 0
2, 355075, Note_on_c, 0, 63, 0
2, 355148, Note_on_c, 0, 57, 0
2, 355227, Note_on_c, 0, 63, 25
2, 355234, Note_on_c, 0, 73, 12
2, 355240, Note_on_c, 0, 74, 37
2, 355258, Note_on_c, 0, 59, 24
2, 355342, Control_c, 0, 64, 127
2, 355414, Note_on_c, 0, 74, 0
2, 355437, Note_on_c, 0, 73, 0
2, 355537, Note_on_c, 0, 63, 0
2, 355572, Note_on_c, 0, 66, 0
2, 355701, Control_c, 0, 64, 0
2, 355735, Note_on_c, 0, 75, 61
2, 355751, Note_on_c, 0, 66, 54
2, 355777, Note_on_c, 0, 63, 53
2, 355780, Note_on_c, 0, 60, 52
2, 355781, Note_on_c, 0, 59, 0
2, 355977, Note_on_c, 0, 75, 0
2, 356033, Note_on_c, 0, 66, 0
2, 356049, Note_on_c, 0, 63, 0
2, 356135, Control_c, 0, 64, 127
2, 356149, Note_on_c, 0, 60, 0
2, 356152, Note_on_c, 0, 74, 40
2, 356161, Note_on_c, 0, 59, 38
2, 356165, Note_on_c, 0, 63, 25
2, 356203, Note_on_c, 0, 66, 27
2, 356467, Note_on_c, 0, 59, 0
2, 356487, Note_on_c, 0, 74, 0
2, 356502, Note_on_c, 0, 63, 0
2, 356624, Note_on_c, 0, 66, 0
2, 356733, Note_on_c, 0, 63, 50
2, 356734, Note_on_c, 0, 72, 51
2, 356805, Note_on_c, 0, 66, 21
2, 356903, Note_on_c, 0, 72, 0
2, 356953, Note_on_c, 0, 66, 0
2, 356956, Note_on_c, 0, 63, 0
2, 357103, Control_c, 0, 64, 0
2, 357170, Note_on_c, 0, 62, 49
2, 357196, Note_on_c, 0, 70, 40
2, 357203, Note_on_c, 0, 46, 33
2, 357212, Note_on_c, 0, 56, 25
2, 357271, Note_on_c, 0, 65, 26
2, 357319, Note_on_c, 0, 62, 0
2, 357428, Note_on_c, 0, 65, 0
2, 357435, Control_c, 0, 64, 127
2, 357589, Note_on_c, 0, 70, 0
2, 357603, Note_on_c, 0, 56, 0
2, 357610, Note_on_c, 0, 46, 0
2, 357763, Note_on_c, 0, 70, 51
2, 357767, Control_c, 0, 64, 0
2, 357793, Note_on_c, 0, 60, 45
2, 357794, Note_on_c, 0, 63, 61
2, 357802, Note_on_c, 0, 46, 31
2, 357804, Note_on_c, 0, 56, 39
2, 358098, Control_c, 0, 64, 127
2, 358510, Note_on_c, 0, 46, 0
2, 358728, Note_on_c, 0, 46, 36
2, 358736, Note_on_c, 0, 56, 0
2, 358828, Note_on_c, 0, 63, 0
2, 358830, Note_on_c, 0, 60, 0
2, 358932, Note_on_c, 0, 70, 0
2, 358992, Control_c, 0, 64, 0
2, 359061, Note_on_c, 0, 70, 67
2, 359077, Note_on_c, 0, 63, 76
2, 359079, Note_on_c, 0, 60, 69
2, 359082, Note_on_c, 0, 56, 51
2, 359317, Control_c, 0, 64, 127
2, 359342, Note_on_c, 0, 46, 0
2, 359355, Control_c, 0, 64, 127
2, 359369, Control_c, 0, 64, 0
2, 359434, Note_on_c, 0, 70, 0
2, 359502, Note_on_c, 0, 60, 0
2, 359506, Control_c, 0, 64, 0
2, 359513, Note_on_c, 0, 63, 0
2, 359562, Note_on_c, 0, 56, 0
2, 359602, Control_c, 0, 64, 127
2, 359642, Note_on_c, 0, 46, 58
2, 359660, Note_on_c, 0, 70, 74
2, 359665, Note_on_c, 0, 60, 66
2, 359667, Note_on_c, 0, 63, 70
2, 359897, Note_on_c, 0, 60, 0
2, 359908, Note_on_c, 0, 46, 0
2, 359928, Note_on_c, 0, 70, 0
2, 359934, Note_on_c, 0, 63, 0
2, 360031, Control_c, 0, 64, 0
2, 360118, Note_on_c, 0, 46, 48
2, 360120, Note_on_c, 0, 70, 61
2, 360127, Note_on_c, 0, 62, 62
2, 360134, Note_on_c, 0, 59, 60
2, 360137, Note_on_c, 0, 65, 60
2, 360144, Note_on_c, 0, 56, 40
2, 360335, Control_c, 0, 64, 127
2, 360590, Note_on_c, 0, 46, 0
2, 360603, Note_on_c, 0, 59, 0
2, 360619, Note_on_c, 0, 56, 0
2, 360620, Note_on_c, 0, 62, 0
2, 360624, Note_on_c, 0, 70, 0
2, 360646, Note_on_c, 0, 65, 0
2, 360712, Control_c, 0, 64, 0
2, 360751, Note_on_c, 0, 46, 46
2, 360760, Note_on_c, 0, 70, 57
2, 360764, Note_on_c, 0, 62, 48
2, 360774, Note_on_c, 0, 56, 37
2, 360776, Note_on_c, 0, 59, 47
2, 360777, Note_on_c, 0, 65, 54
2, 361043, Control_c, 0, 64, 127
2, 361459, Note_on_c, 0, 46, 0
2, 361623, Note_on_c, 0, 56, 0
2, 361668, Note_on_c, 0, 46, 37
2, 361672, Note_on_c, 0, 65, 0
2, 361706, Note_on_c, 0, 59, 0
2, 361710, Note_on_c, 0, 62, 0
2, 361823, Note_on_c, 0, 70, 0
2, 361854, Control_c, 0, 64, 0
2, 361995, Note_on_c, 0, 59, 50
2, 362003, Note_on_c, 0, 56, 40
2, 362011, Control_c, 0, 64, 127
2, 362014, Note_on_c, 0, 70, 33
2, 362017, Note_on_c, 0, 62, 39
2, 362030, Note_on_c, 0, 65, 36
2, 362107, Note_on_c, 0, 56, 0
2, 362109, Note_on_c, 0, 62, 0
2, 362124, Note_on_c, 0, 59, 0
2, 362130, Note_on_c, 0, 46, 0
2, 362137, Note_on_c, 0, 70, 0
2, 362143, Note_on_c, 0, 65, 0
2, 362328, Control_c, 0, 64, 0
2, 362507, Note_on_c, 0, 46, 44
2, 362536, Note_on_c, 0, 62, 64
2, 362539, Note_on_c, 0, 70, 44
2, 362553, Note_on_c, 0, 59, 54
2, 362588, Control_c, 0, 64, 127
2, 362595, Note_on_c, 0, 70, 0
2, 362694, Note_on_c, 0, 46, 0
2, 362701, Note_on_c, 0, 62, 0
2, 362760, Note_on_c, 0, 59, 0
2, 362864, Control_c, 0, 64, 0
2, 362946, Note_on_c, 0, 67, 60
2, 362963, Note_on_c, 0, 46, 31
2, 362980, Note_on_c, 0, 63, 46
2, 362983, Note_on_c, 0, 39, 33
2, 362985, Note_on_c, 0, 55, 34
2, 363177, Control_c, 0, 64, 127
2, 363525, Note_on_c, 0, 63, 0
2, 363578, Note_on_c, 0, 55, 0
2, 363856, Note_on_c, 0, 63, 37
2, 363870, Note_on_c, 0, 55, 29
2, 363890, Note_on_c, 0, 58, 36
2, 364395, Note_on_c, 0, 58, 0
2, 364405, Note_on_c, 0, 63, 0
2, 364426, Note_on_c, 0, 55, 0
2, 364843, Note_on_c, 0, 63, 31
2, 364872, Note_on_c, 0, 58, 25
2, 364877, Note_on_c, 0, 55, 18
2, 364882, Note_on_c, 0, 39, 0
2, 365005, Note_on_c, 0, 46, 0
2, 365360, Note_on_c, 0, 55, 0
2, 365408, Note_on_c, 0, 58, 0
2, 365425, Note_on_c, 0, 63, 0
2, 365833, Note_on_c, 0, 63, 31
2, 365859, Note_on_c, 0, 55, 24
2, 365869, Note_on_c, 0, 58, 23
2, 366068, Control_c, 0, 64, 0
2, 366440, Control_c, 0, 64, 127
2, 366453, Note_on_c, 0, 63, 0
2, 366475, Note_on_c, 0, 55, 0
2, 366485, Note_on_c, 0, 58, 0
2, 366754, Note_on_c, 0, 63, 47
2, 366774, Control_c, 0, 64, 0
2, 366774, Note_on_c, 0, 55, 27
2, 366775, Note_on_c, 0, 58, 29
2, 366918, Control_c, 0, 64, 127
2, 367611, Control_c, 0, 64, 0
2, 367726, Note_on_c, 0, 55, 0
2, 367746, Note_on_c, 0, 58, 0
2, 367771, Note_on_c, 0, 67, 0
2, 367797, Note_on_c, 0, 63, 0
2, 368684, Note_on_c, 0, 77, 54
2, 368715, Note_on_c, 0, 65, 22
2, 368730, Note_on_c, 0, 62, 28
2, 368731, Note_on_c, 0, 60, 25
2, 368993, Control_c, 0, 64, 127
2, 370996, Note_on_c, 0, 77, 0
2, 371133, Note_on_c, 0, 62, 0
2, 371160, Note_on_c, 0, 65, 0
2, 371220, Note_on_c, 0, 60, 0
2, 371563, Control_c, 0, 64, 0
2, 371580, Note_on_c, 0, 60, 20
2, 371592, Note_on_c, 0, 65, 27
2, 371594, Note_on_c, 0, 62, 25
2, 372578, Note_on_c, 0, 77, 66
2, 372742, Note_on_c, 0, 77, 0
2, 372767, Note_on_c, 0, 79, 58
2, 372936, Note_on_c, 0, 77, 57
2, 372959, Note_on_c, 0, 79, 0
2, 373168, Note_on_c, 0, 77, 0
2, 373208, Note_on_c, 0, 76, 41
2, 373340, Control_c, 0, 64, 127
2, 373380, Note_on_c, 0, 76, 0
2, 373398, Control_c, 0, 64, 0
2, 373526, Note_on_c, 0, 77, 71
2, 373609, Note_on_c, 0, 60, 0
2, 373623, Note_on_c, 0, 62, 0
2, 373642, Note_on_c, 0, 65, 0
2, 373695, Note_on_c, 0, 77, 0
2, 373726, Note_on_c, 0, 79, 47
2, 373818, Control_c, 0, 64, 127
2, 373924, Note_on_c, 0, 77, 35
2, 373957, Note_on_c, 0, 79, 0
2, 374164, Note_on_c, 0, 77, 0
2, 374195, Note_on_c, 0, 76, 47
2, 374360, Note_on_c, 0, 76, 0
2, 374365, Control_c, 0, 64, 0
2, 374427, Note_on_c, 0, 77, 50
2, 374430, Note_on_c, 0, 57, 34
2, 374432, Note_on_c, 0, 60, 36
2, 374435, Note_on_c, 0, 65, 28
2, 375218, Note_on_c, 0, 77, 0
2, 375331, Note_on_c, 0, 72, 27
2, 375334, Control_c, 0, 64, 127
2, 375520, Note_on_c, 0, 57, 0
2, 375555, Note_on_c, 0, 65, 0
2, 375562, Note_on_c, 0, 60, 0
2, 375762, Note_on_c, 0, 72, 0
2, 376025, Note_on_c, 0, 72, 36
2, 376133, Note_on_c, 0, 72, 0
2, 377226, Control_c, 0, 64, 0
2, 377273, Note_on_c, 0, 57, 33
2, 377292, Note_on_c, 0, 65, 24
2, 377295, Note_on_c, 0, 60, 33
2, 377953, Note_on_c, 0, 86, 83
2, 378125, Note_on_c, 0, 86, 0
2, 378250, Note_on_c, 0, 84, 62
2, 378397, Note_on_c, 0, 84, 0
2, 378571, Note_on_c, 0, 81, 32
2, 378755, Note_on_c, 0, 81, 0
2, 378870, Note_on_c, 0, 77, 37
2, 379091, Note_on_c, 0, 77, 0
2, 379218, Note_on_c, 0, 82, 70
2, 379377, Note_on_c, 0, 65, 0
2, 379443, Note_on_c, 0, 57, 0
2, 379454, Note_on_c, 0, 82, 0
2, 379523, Note_on_c, 0, 60, 0
2, 379526, Note_on_c, 0, 81, 64
2, 379560, Control_c, 0, 64, 127
2, 379711, Note_on_c, 0, 81, 0
2, 379793, Control_c, 0, 64, 0
2, 379829, Note_on_c, 0, 77, 60
2, 380096, Note_on_c, 0, 77, 0
2, 380181, Control_c, 0, 64, 127
2, 380355, Control_c, 0, 64, 0
2, 380482, Note_on_c, 0, 82, 69
2, 380524, Note_on_c, 0, 63, 27
2, 380531, Note_on_c, 0, 60, 40
2, 380535, Note_on_c, 0, 56, 49
2, 380746, Note_on_c, 0, 82, 0
2, 380817, Note_on_c, 0, 80, 52
2, 380984, Note_on_c, 0, 80, 0
2, 381170, Note_on_c, 0, 75, 55
2, 381368, Note_on_c, 0, 75, 0
2, 381527, Note_on_c, 0, 72, 26
2, 381684, Note_on_c, 0, 72, 0
2, 382734, Note_on_c, 0, 68, 46
2, 382956, Note_on_c, 0, 68, 0
2, 383109, Note_on_c, 0, 67, 25
2, 383619, Note_on_c, 0, 67, 0
2, 383630, Note_on_c, 0, 68, 47
2, 383862, Note_on_c, 0, 68, 0
2, 383962, Note_on_c, 0, 70, 65
2, 384989, Control_c, 0, 64, 127
2, 385025, Note_on_c, 0, 60, 0
2, 385266, Note_on_c, 0, 63, 0
2, 385400, Note_on_c, 0, 56, 0
2, 385556, Note_on_c, 0, 70, 0
2, 385609, Note_on_c, 0, 68, 45
2, 385756, Note_on_c, 0, 68, 0
2, 385781, Control_c, 0, 64, 0
2, 385932, Note_on_c, 0, 63, 30
2, 385974, Note_on_c, 0, 58, 36
2, 385980, Note_on_c, 0, 68, 44
2, 386006, Note_on_c, 0, 55, 19
2, 386237, Note_on_c, 0, 68, 0
2, 386289, Note_on_c, 0, 70, 40
2, 386440, Note_on_c, 0, 68, 34
2, 386521, Note_on_c, 0, 70, 0
2, 386653, Note_on_c, 0, 68, 0
2, 386658, Note_on_c, 0, 67, 39
2, 386867, Note_on_c, 0, 67, 0
2, 386950, Note_on_c, 0, 66, 42
2, 387478, Note_on_c, 0, 66, 0
2, 387527, Note_on_c, 0, 68, 52
2, 387914, Note_on_c, 0, 68, 0
2, 387954, Note_on_c, 0, 66, 35
2, 388421, Note_on_c, 0, 63, 0
2, 388439, Note_on_c, 0, 66, 0
2, 388483, Note_on_c, 0, 67, 57
2, 388524, Control_c, 0, 64, 127
2, 388697, Control_c, 0, 64, 0
2, 388753, Note_on_c, 0, 67, 0
2, 388850, Note_on_c, 0, 63, 47
2, 388955, Note_on_c, 0, 58, 0
2, 389156, Note_on_c, 0, 63, 0
2, 389192, Note_on_c, 0, 55, 0
2, 389420, Note_on_c, 0, 55, 32
2, 389622, Control_c, 0, 64, 127
2, 390168, Note_on_c, 0, 56, 55
2, 390203, Note_on_c, 0, 55, 0
2, 390215, Control_c, 0, 64, 0
2, 390363, Note_on_c, 0, 56, 0
2, 390444, Note_on_c, 0, 58, 62
2, 390519, Control_c, 0, 64, 127
2, 390663, Note_on_c, 0, 58, 0
2, 390731, Note_on_c, 0, 60, 55
2, 390964, Note_on_c, 0, 60, 0
2, 391045, Note_on_c, 0, 62, 65
2, 391225, Control_c, 0, 64, 0
2, 391251, Note_on_c, 0, 62, 0
2, 391355, Note_on_c, 0, 63, 73
2, 391384, Control_c, 0, 64, 127
2, 391600, Control_c, 0, 64, 0
2, 391619, Note_on_c, 0, 63, 0
2, 391676, Note_on_c, 0, 64, 61
2, 391679, Note_on_c, 0, 61, 27
2, 391706, Note_on_c, 0, 58, 34
2, 391919, Note_on_c, 0, 64, 0
2, 392008, Note_on_c, 0, 66, 46
2, 392205, Note_on_c, 0, 66, 0
2, 392289, Note_on_c, 0, 64, 51
2, 392291, Note_on_c, 0, 67, 56
2, 392436, Note_on_c, 0, 64, 0
2, 392503, Note_on_c, 0, 61, 0
2, 392544, Note_on_c, 0, 58, 0
2, 392544, Note_on_c, 0, 67, 0
2, 392611, Note_on_c, 0, 69, 38
2, 392777, Note_on_c, 0, 69, 0
2, 392881, Note_on_c, 0, 70, 62
2, 393061, Note_on_c, 0, 70, 0
2, 393181, Note_on_c, 0, 61, 63
2, 393199, Note_on_c, 0, 52, 46
2, 393200, Note_on_c, 0, 58, 52
2, 393212, Note_on_c, 0, 72, 59
2, 393255, Note_on_c, 0, 58, 0
2, 393258, Note_on_c, 0, 52, 0
2, 393279, Note_on_c, 0, 61, 0
2, 393415, Note_on_c, 0, 72, 0
2, 393535, Note_on_c, 0, 73, 45
2, 393679, Note_on_c, 0, 73, 0
2, 393843, Note_on_c, 0, 75, 54
2, 394023, Note_on_c, 0, 75, 0
2, 394172, Note_on_c, 0, 76, 40
2, 394362, Note_on_c, 0, 76, 0
2, 394457, Note_on_c, 0, 78, 48
2, 394639, Note_on_c, 0, 78, 0
2, 395069, Note_on_c, 0, 81, 62
2, 395206, Note_on_c, 0, 61, 23
2, 395232, Note_on_c, 0, 81, 0
2, 395255, Note_on_c, 0, 64, 33
2, 395285, Note_on_c, 0, 58, 32
2, 395298, Note_on_c, 0, 82, 58
2, 395444, Note_on_c, 0, 82, 0
2, 395510, Note_on_c, 0, 84, 47
2, 395594, Control_c, 0, 64, 127
2, 395647, Note_on_c, 0, 84, 0
2, 395726, Note_on_c, 0, 85, 34
2, 395852, Note_on_c, 0, 85, 0
2, 395891, Note_on_c, 0, 87, 50
2, 395998, Note_on_c, 0, 87, 0
2, 396051, Note_on_c, 0, 88, 65
2, 396181, Note_on_c, 0, 88, 0
2, 396232, Note_on_c, 0, 90, 48
2, 396289, Note_on_c, 0, 90, 0
2, 396572, Note_on_c, 0, 93, 47
2, 396638, Note_on_c, 0, 61, 0
2, 396644, Note_on_c, 0, 58, 0
2, 396712, Note_on_c, 0, 64, 0
2, 396778, Note_on_c, 0, 93, 0
2, 396782, Note_on_c, 0, 94, 50
2, 396889, Note_on_c, 0, 94, 0
2, 397157, Note_on_c, 0, 96, 35
2, 397312, Note_on_c, 0, 96, 0
2, 397383, Control_c, 0, 64, 0
2, 397430, Note_on_c, 0, 63, 30
2, 397432, Note_on_c, 0, 65, 30
2, 397469, Note_on_c, 0, 57, 42
2, 397873, Control_c, 0, 64, 127
2, 398131, Control_c, 0, 64, 0
2, 398376, Control_c, 0, 64, 127
2, 398403, Note_on_c, 0, 101, 84
2, 398406, Note_on_c, 0, 89, 76
2, 398890, Note_on_c, 0, 101, 0
2, 398918, Note_on_c, 0, 89, 0
2, 399053, Note_on_c, 0, 99, 77
2, 399192, Note_on_c, 0, 65, 0
2, 399286, Note_on_c, 0, 63, 0
2, 399339, Note_on_c, 0, 57, 0
2, 399404, Note_on_c, 0, 99, 0
2, 399588, Note_on_c, 0, 98, 74
2, 399838, Note_on_c, 0, 98, 0
2, 400055, Note_on_c, 0, 96, 77
2, 400343, Control_c, 0, 64, 0
2, 400344, Note_on_c, 0, 96, 0
2, 400394, Note_on_c, 0, 55, 24
2, 400399, Note_on_c, 0, 58, 37
2, 400419, Note_on_c, 0, 57, 32
2, 400432, Note_on_c, 0, 62, 31
2, 400477, Note_on_c, 0, 94, 52
2, 400830, Note_on_c, 0, 94, 0
2, 400899, Note_on_c, 0, 96, 44
2, 401003, Note_on_c, 0, 94, 45
2, 401103, Note_on_c, 0, 96, 0
2, 401240, Note_on_c, 0, 94, 0
2, 401247, Note_on_c, 0, 93, 47
2, 401612, Control_c, 0, 64, 127
2, 401669, Note_on_c, 0, 93, 0
2, 401943, Note_on_c, 0, 91, 53
2, 402378, Note_on_c, 0, 90, 33
2, 402390, Note_on_c, 0, 57, 0
2, 402400, Note_on_c, 0, 91, 0
2, 402410, Note_on_c, 0, 55, 0
2, 402451, Note_on_c, 0, 62, 0
2, 402471, Note_on_c, 0, 58, 0
2, 402791, Note_on_c, 0, 90, 0
2, 402916, Note_on_c, 0, 91, 48
2, 403161, Note_on_c, 0, 91, 0
2, 403174, Control_c, 0, 64, 0
2, 403213, Note_on_c, 0, 63, 23
2, 403252, Note_on_c, 0, 58, 27
2, 403264, Note_on_c, 0, 67, 24
2, 403271, Note_on_c, 0, 96, 55
2, 403293, Note_on_c, 0, 62, 29
2, 403455, Note_on_c, 0, 96, 0
2, 403873, Note_on_c, 0, 96, 55
2, 404002, Note_on_c, 0, 96, 0
2, 404234, Note_on_c, 0, 91, 46
2, 404310, Note_on_c, 0, 91, 0
2, 404782, Note_on_c, 0, 91, 58
2, 404906, Note_on_c, 0, 91, 0
2, 405182, Note_on_c, 0, 87, 35
2, 405321, Note_on_c, 0, 87, 0
2, 405546, Note_on_c, 0, 62, 0
2, 405696, Note_on_c, 0, 67, 0
2, 405776, Note_on_c, 0, 86, 51
2, 405861, Note_on_c, 0, 58, 0
2, 405886, Control_c, 0, 64, 127
2, 405914, Note_on_c, 0, 86, 0
2, 405971, Control_c, 0, 64, 0
2, 406149, Note_on_c, 0, 57, 30
2, 406151, Note_on_c, 0, 62, 33
2, 406164, Note_on_c, 0, 67, 20
2, 406164, Note_on_c, 0, 89, 60
2, 406690, Note_on_c, 0, 89, 0
2, 406737, Note_on_c, 0, 87, 57
2, 407047, Note_on_c, 0, 87, 0
2, 407142, Note_on_c, 0, 86, 48
2, 407528, Control_c, 0, 64, 127
2, 408015, Note_on_c, 0, 67, 0
2, 408020, Note_on_c, 0, 62, 0
2, 408112, Note_on_c, 0, 63, 0
2, 408185, Note_on_c, 0, 57, 0
2, 408346, Note_on_c, 0, 86, 0
2, 408660, Note_on_c, 0, 84, 62
2, 408886, Control_c, 0, 64, 0
2, 408893, Note_on_c, 0, 84, 0
2, 408992, Note_on_c, 0, 65, 28
2, 409009, Note_on_c, 0, 60, 25
2, 409023, Note_on_c, 0, 62, 29
2, 409025, Note_on_c, 0, 82, 30
2, 409147, Control_c, 0, 64, 127
2, 409319, Note_on_c, 0, 62, 0
2, 409355, Note_on_c, 0, 82, 0
2, 409377, Note_on_c, 0, 60, 0
2, 409381, Note_on_c, 0, 65, 0
2, 409925, Control_c, 0, 64, 0
2, 409934, Note_on_c, 0, 67, 50
2, 409938, Note_on_c, 0, 63, 44
2, 409944, Note_on_c, 0, 62, 42
2, 409964, Note_on_c, 0, 57, 41
2, 410317, Control_c, 0, 64, 127
2, 410482, Note_on_c, 0, 62, 0
2, 410512, Note_on_c, 0, 67, 0
2, 410529, Note_on_c, 0, 57, 0
2, 410597, Note_on_c, 0, 63, 0
2, 410952, Note_on_c, 0, 66, 42
2, 410965, Control_c, 0, 64, 0
2, 410966, Note_on_c, 0, 62, 36
2, 411001, Note_on_c, 0, 56, 42
2, 411237, Note_on_c, 0, 62, 0
2, 411254, Control_c, 0, 64, 127
2, 411346, Note_on_c, 0, 66, 0
2, 411536, Note_on_c, 0, 56, 0
2, 411820, Control_c, 0, 64, 0
2, 411947, Note_on_c, 0, 64, 24
2, 411972, Note_on_c, 0, 60, 27
2, 411987, Note_on_c, 0, 55, 17
2, 412485, Control_c, 0, 64, 127
2, 412771, Control_c, 0, 64, 0
2, 412789, Note_on_c, 0, 64, 0
2, 412829, Note_on_c, 0, 60, 0
2, 412962, Note_on_c, 0, 55, 0
2, 413421, Note_on_c, 0, 70, 79
2, 413661, Note_on_c, 0, 70, 0
2, 413792, Note_on_c, 0, 69, 33
2, 413955, Note_on_c, 0, 69, 0
2, 414093, Note_on_c, 0, 70, 56
2, 414319, Note_on_c, 0, 70, 0
2, 414406, Note_on_c, 0, 72, 54
2, 414580, Note_on_c, 0, 72, 0
2, 414658, Note_on_c, 0, 74, 55
2, 414863, Note_on_c, 0, 74, 0
2, 415002, Note_on_c, 0, 75, 62
2, 415439, Control_c, 0, 64, 127
2, 415462, Note_on_c, 0, 75, 0
2, 415512, Control_c, 0, 64, 0
2, 415539, Note_on_c, 0, 67, 38
2, 415767, Note_on_c, 0, 67, 0
2, 416050, Note_on_c, 0, 67, 42
2, 416062, Control_c, 0, 64, 127
2, 416505, Note_on_c, 0, 79, 65
2, 416733, Note_on_c, 0, 79, 0
2, 416926, Note_on_c, 0, 79, 57
2, 417320, Note_on_c, 0, 79, 0
2, 417361, Note_on_c, 0, 75, 46
2, 417779, Note_on_c, 0, 67, 0
2, 417817, Note_on_c, 0, 71, 48
2, 417836, Control_c, 0, 64, 0
2, 417920, Note_on_c, 0, 75, 0
2, 418413, Control_c, 0, 64, 127
2, 419559, Note_on_c, 0, 63, 28
2, 419693, Note_on_c, 0, 63, 0
2, 420194, Note_on_c, 0, 71, 0
2, 420197, Note_on_c, 0, 79, 62
2, 420521, Control_c, 0, 64, 0
2, 420524, Note_on_c, 0, 79, 0
2, 420594, Note_on_c, 0, 65, 22
2, 420597, Note_on_c, 0, 70, 34
2, 420611, Note_on_c, 0, 62, 30
2, 420614, Note_on_c, 0, 60, 24
2, 420649, Note_on_c, 0, 55, 14
2, 421388, Control_c, 0, 64, 127
2, 421965, Note_on_c, 0, 70, 0
2, 422055, Note_on_c, 0, 62, 0
2, 422062, Note_on_c, 0, 65, 0
2, 422074, Note_on_c, 0, 60, 0
2, 422109, Note_on_c, 0, 79, 61
2, 422121, Note_on_c, 0, 80, 31
2, 422123, Note_on_c, 0, 55, 0
2, 422215, Note_on_c, 0, 80, 0
2, 422438, Note_on_c, 0, 79, 0
2, 422513, Control_c, 0, 64, 0
2, 422554, Note_on_c, 0, 70, 60
2, 422800, Control_c, 0, 64, 127
2, 423292, Control_c, 0, 64, 0
2, 423384, Note_on_c, 0, 57, 37
2, 423399, Note_on_c, 0, 50, 30
2, 423610, Control_c, 0, 64, 127
2, 423840, Note_on_c, 0, 70, 0
2, 423939, Note_on_c, 0, 79, 77
2, 424290, Control_c, 0, 64, 0
2, 424292, Note_on_c, 0, 79, 0
2, 424433, Note_on_c, 0, 69, 62
2, 424851, Control_c, 0, 64, 127
2, 424893, Note_on_c, 0, 70, 81
2, 424933, Note_on_c, 0, 69, 0
2, 425239, Note_on_c, 0, 70, 0
2, 425327, Note_on_c, 0, 72, 77
2, 425438, Note_on_c, 0, 50, 0
2, 425498, Note_on_c, 0, 57, 0
2, 425774, Note_on_c, 0, 72, 0
2, 425839, Note_on_c, 0, 73, 57
2, 426223, Control_c, 0, 64, 0
2, 426228, Note_on_c, 0, 73, 0
2, 426300, Note_on_c, 0, 58, 31
2, 426311, Note_on_c, 0, 72, 40
2, 426311, Note_on_c, 0, 48, 30
2, 426820, Note_on_c, 0, 70, 47
2, 426830, Note_on_c, 0, 72, 0
2, 427027, Note_on_c, 0, 70, 0
2, 427189, Note_on_c, 0, 65, 48
2, 427778, Note_on_c, 0, 65, 0
2, 427853, Note_on_c, 0, 62, 24
2, 428033, Note_on_c, 0, 48, 0
2, 428036, Note_on_c, 0, 62, 0
2, 428133, Note_on_c, 0, 64, 47
2, 428443, Note_on_c, 0, 58, 0
2, 429712, Note_on_c, 0, 58, 42
2, 429734, Note_on_c, 0, 52, 38
2, 429801, Note_on_c, 0, 52, 0
2, 429813, Note_on_c, 0, 58, 0
2, 430063, Note_on_c, 0, 65, 68
2, 430072, Note_on_c, 0, 64, 0
2, 430238, Note_on_c, 0, 65, 0
2, 430343, Note_on_c, 0, 66, 64
2, 430535, Note_on_c, 0, 66, 0
2, 430653, Note_on_c, 0, 67, 78
2, 430873, Note_on_c, 0, 67, 0
2, 430926, Note_on_c, 0, 60, 30
2, 430937, Note_on_c, 0, 58, 42
2, 430973, Note_on_c, 0, 64, 54
2, 430996, Note_on_c, 0, 60, 0
2, 431073, Note_on_c, 0, 58, 0
2, 431222, Note_on_c, 0, 64, 0
2, 431297, Note_on_c, 0, 61, 36
2, 431460, Note_on_c, 0, 61, 0
2, 431600, Note_on_c, 0, 60, 57
2, 431819, Note_on_c, 0, 60, 0
2, 431896, Note_on_c, 0, 58, 31
2, 432038, Note_on_c, 0, 58, 0
2, 432237, Note_on_c, 0, 56, 56
2, 433569, Note_on_c, 0, 48, 31
2, 433704, Note_on_c, 0, 48, 0
2, 434267, Note_on_c, 0, 56, 0
2, 434325, Note_on_c, 0, 55, 47
2, 434548, Note_on_c, 0, 55, 0
2, 434653, Note_on_c, 0, 53, 31
2, 434852, Note_on_c, 0, 53, 0
2, 434922, Note_on_c, 0, 56, 60
2, 435276, Note_on_c, 0, 56, 0
2, 435306, Note_on_c, 0, 53, 22
2, 435441, Note_on_c, 0, 53, 0
2, 435553, Note_on_c, 0, 55, 45
2, 435864, Note_on_c, 0, 55, 0
2, 435979, Note_on_c, 0, 53, 22
2, 436528, Note_on_c, 0, 48, 20
2, 436687, Note_on_c, 0, 48, 0
2, 437425, Note_on_c, 0, 55, 36
2, 437426, Note_on_c, 0, 53, 0
2, 437699, Note_on_c, 0, 55, 0
2, 437827, Note_on_c, 0, 56, 36
2, 437829, Note_on_c, 0, 46, 28
2, 438680, Note_on_c, 0, 56, 0
2, 439082, Control_c, 0, 64, 127
2, 439403, Note_on_c, 0, 53, 28
2, 439587, Control_c, 0, 64, 0
2, 439855, Note_on_c, 0, 65, 34
2, 439987, Note_on_c, 0, 65, 0
2, 440047, Note_on_c, 0, 67, 58
2, 440167, Note_on_c, 0, 65, 54
2, 440178, Note_on_c, 0, 67, 0
2, 440367, Note_on_c, 0, 65, 0
2, 440382, Note_on_c, 0, 64, 55
2, 440529, Note_on_c, 0, 46, 0
2, 440544, Note_on_c, 0, 64, 0
2, 440641, Note_on_c, 0, 65, 57
2, 440801, Note_on_c, 0, 65, 0
2, 440953, Note_on_c, 0, 66, 62
2, 441101, Note_on_c, 0, 66, 0
2, 441216, Note_on_c, 0, 67, 56
2, 441363, Note_on_c, 0, 67, 0
2, 441459, Note_on_c, 0, 70, 64
2, 441616, Note_on_c, 0, 70, 0
2, 441723, Note_on_c, 0, 71, 51
2, 441760, Note_on_c, 0, 56, 29
2, 441778, Note_on_c, 0, 47, 33
2, 441869, Note_on_c, 0, 71, 0
2, 441892, Note_on_c, 0, 53, 0
2, 441968, Note_on_c, 0, 74, 65
2, 442154, Note_on_c, 0, 74, 0
2, 442253, Note_on_c, 0, 77, 64
2, 442371, Note_on_c, 0, 77, 0
2, 442754, Note_on_c, 0, 83, 73
2, 442925, Note_on_c, 0, 83, 0
2, 442978, Note_on_c, 0, 47, 0
2, 443004, Note_on_c, 0, 86, 79
2, 443052, Note_on_c, 0, 56, 0
2, 443220, Note_on_c, 0, 86, 0
2, 443280, Note_on_c, 0, 83, 73
2, 443476, Note_on_c, 0, 83, 0
2, 443542, Note_on_c, 0, 55, 33
2, 443547, Note_on_c, 0, 84, 73
2, 443581, Note_on_c, 0, 48, 29
2, 443760, Note_on_c, 0, 84, 0
2, 443832, Note_on_c, 0, 60, 1
2, 443867, Note_on_c, 0, 79, 58
2, 444033, Note_on_c, 0, 79, 0
2, 444151, Note_on_c, 0, 75, 47
2, 444379, Note_on_c, 0, 75, 0
2, 444442, Note_on_c, 0, 74, 48
2, 444617, Note_on_c, 0, 74, 0
2, 444724, Note_on_c, 0, 77, 57
2, 444904, Note_on_c, 0, 77, 0
2, 445044, Note_on_c, 0, 74, 42
2, 445204, Note_on_c, 0, 74, 0
2, 445325, Note_on_c, 0, 75, 51
2, 445568, Note_on_c, 0, 75, 0
2, 445636, Note_on_c, 0, 67, 40
2, 445718, Note_on_c, 0, 55, 0
2, 445737, Control_c, 0, 64, 127
2, 445869, Note_on_c, 0, 67, 0
2, 446014, Note_on_c, 0, 48, 0
2, 446128, Note_on_c, 0, 67, 31
2, 446153, Note_on_c, 0, 60, 0
2, 446198, Note_on_c, 0, 67, 0
2, 446413, Control_c, 0, 64, 0
2, 446454, Note_on_c, 0, 74, 64
2, 446457, Note_on_c, 0, 66, 56
2, 446486, Note_on_c, 0, 62, 27
2, 446693, Note_on_c, 0, 66, 0
2, 446713, Note_on_c, 0, 74, 0
2, 446853, Note_on_c, 0, 62, 0
2, 446969, Note_on_c, 0, 61, 33
2, 447266, Note_on_c, 0, 61, 0
2, 447336, Note_on_c, 0, 63, 37
2, 447348, Note_on_c, 0, 60, 36
2, 447361, Note_on_c, 0, 72, 33
2, 447380, Note_on_c, 0, 66, 30
2, 447524, Control_c, 0, 64, 127
2, 447901, Note_on_c, 0, 63, 0
2, 447988, Note_on_c, 0, 66, 0
2, 448151, Note_on_c, 0, 72, 0
2, 448194, Note_on_c, 0, 60, 0
2, 448281, Note_on_c, 0, 63, 35
2, 448326, Note_on_c, 0, 66, 33
2, 448332, Note_on_c, 0, 57, 24
2, 448411, Note_on_c, 0, 57, 0
2, 448564, Note_on_c, 0, 63, 0
2, 448749, Note_on_c, 0, 66, 0
2, 449302, Control_c, 0, 64, 0
2, 449316, Note_on_c, 0, 70, 40
2, 449342, Note_on_c, 0, 46, 20
2, 449345, Note_on_c, 0, 60, 32
2, 449352, Note_on_c, 0, 63, 42
2, 449719, Control_c, 0, 64, 127
2, 449947, Note_on_c, 0, 60, 0
2, 450038, Note_on_c, 0, 46, 0
2, 450055, Note_on_c, 0, 63, 0
2, 450140, Note_on_c, 0, 70, 0
2, 451742, Note_on_c, 0, 68, 54
2, 451759, Note_on_c, 0, 63, 53
2, 451778, Note_on_c, 0, 58, 49
2, 451785, Note_on_c, 0, 94, 74
2, 451795, Note_on_c, 0, 87, 75
2, 451798, Note_on_c, 0, 82, 71
2, 451864, Note_on_c, 0, 60, 22
2, 452068, Note_on_c, 0, 58, 0
2, 452080, Note_on_c, 0, 94, 0
2, 452084, Note_on_c, 0, 60, 0
2, 452088, Note_on_c, 0, 82, 0
2, 452100, Note_on_c, 0, 68, 0
2, 452103, Note_on_c, 0, 87, 0
2, 452192, Note_on_c, 0, 63, 0
2, 452231, Control_c, 0, 64, 0
2, 452307, Note_on_c, 0, 67, 47
2, 452328, Note_on_c, 0, 94, 65
2, 452330, Note_on_c, 0, 56, 38
2, 452331, Note_on_c, 0, 62, 46
2, 452334, Note_on_c, 0, 82, 57
2, 452343, Note_on_c, 0, 89, 58
2, 452523, Control_c, 0, 64, 127
2, 452783, Note_on_c, 0, 89, 0
2, 452882, Note_on_c, 0, 82, 0
2, 452934, Note_on_c, 0, 62, 0
2, 453002, Note_on_c, 0, 67, 0
2, 453016, Note_on_c, 0, 56, 0
2, 453037, Note_on_c, 0, 94, 0
2, 453732, Control_c, 0, 64, 0
2, 453735, Note_on_c, 0, 66, 52
2, 453749, Note_on_c, 0, 56, 53
2, 453761, Note_on_c, 0, 62, 43
2, 453762, Note_on_c, 0, 98, 61
2, 453766, Note_on_c, 0, 94, 43
2, 453768, Note_on_c, 0, 91, 54
2, 453769, Note_on_c, 0, 86, 57
2, 453949, Control_c, 0, 64, 127
2, 453997, Note_on_c, 0, 86, 0
2, 453998, Note_on_c, 0, 91, 0
2, 454064, Note_on_c, 0, 94, 0
2, 454082, Note_on_c, 0, 66, 0
2, 454086, Note_on_c, 0, 56, 0
2, 454089, Note_on_c, 0, 98, 0
2, 454123, Note_on_c, 0, 62, 0
2, 454394, Note_on_c, 0, 101, 60
2, 454405, Note_on_c, 0, 89, 54
2, 454405, Note_on_c, 0, 96, 56
2, 454417, Note_on_c, 0, 66, 44
2, 454420, Note_on_c, 0, 56, 49
2, 454423, Note_on_c, 0, 62, 34
2, 454534, Note_on_c, 0, 96, 0
2, 454536, Note_on_c, 0, 101, 0
2, 454582, Note_on_c, 0, 89, 0
2, 454724, Note_on_c, 0, 66, 0
2, 454792, Note_on_c, 0, 56, 0
2, 454808, Note_on_c, 0, 62, 0
2, 455061, Note_on_c, 0, 94, 57
2, 455071, Note_on_c, 0, 65, 46
2, 455075, Note_on_c, 0, 82, 56
2, 455088, Control_c, 0, 64, 0
2, 455091, Note_on_c, 0, 62, 33
2, 455101, Note_on_c, 0, 60, 34
2, 455104, Note_on_c, 0, 55, 28
2, 455464, Control_c, 0, 64, 127
2, 456132, Note_on_c, 0, 55, 0
2, 456163, Note_on_c, 0, 94, 0
2, 456176, Note_on_c, 0, 60, 0
2, 456177, Note_on_c, 0, 62, 0
2, 456207, Note_on_c, 0, 82, 0
2, 456273, Note_on_c, 0, 65, 0
2, 456679, Control_c, 0, 64, 0
2, 456687, Note_on_c, 0, 65, 40
2, 456693, Note_on_c, 0, 94, 52
2, 456716, Note_on_c, 0, 62, 36
2, 456720, Note_on_c, 0, 60, 33
2, 456723, Note_on_c, 0, 82, 34
2, 456742, Note_on_c, 0, 55, 20
2, 456924, Control_c, 0, 64, 127
2, 457176, Note_on_c, 0, 55, 0
2, 457181, Note_on_c, 0, 62, 0
2, 457188, Note_on_c, 0, 60, 0
2, 457197, Note_on_c, 0, 65, 0
2, 457208, Note_on_c, 0, 94, 0
2, 457215, Note_on_c, 0, 82, 0
2, 457406, Note_on_c, 0, 94, 37
2, 457406, Note_on_c, 0, 82, 38
2, 457415, Note_on_c, 0, 65, 35
2, 457444, Note_on_c, 0, 62, 29
2, 457457, Note_on_c, 0, 60, 24
2, 457516, Note_on_c, 0, 62, 0
2, 457523, Note_on_c, 0, 65, 0
2, 457526, Note_on_c, 0, 60, 0
2, 457526, Note_on_c, 0, 94, 0
2, 457553, Note_on_c, 0, 82, 0
2, 457679, Note_on_c, 0, 94, 52
2, 457686, Note_on_c, 0, 65, 51
2, 457690, Note_on_c, 0, 62, 42
2, 457694, Note_on_c, 0, 82, 50
2, 457700, Note_on_c, 0, 60, 48
2, 457707, Note_on_c, 0, 55, 26
2, 457796, Note_on_c, 0, 55, 0
2, 457813, Note_on_c, 0, 65, 0
2, 457825, Note_on_c, 0, 62, 0
2, 457845, Note_on_c, 0, 94, 0
2, 457847, Note_on_c, 0, 60, 0
2, 457848, Note_on_c, 0, 82, 0
2, 457891, Control_c, 0, 64, 0
2, 458021, Note_on_c, 0, 94, 62
2, 458025, Note_on_c, 0, 65, 51
2, 458027, Note_on_c, 0, 55, 31
2, 458028, Note_on_c, 0, 82, 57
2, 458040, Note_on_c, 0, 62, 38
2, 458055, Note_on_c, 0, 60, 36
2, 458091, Control_c, 0, 64, 127
2, 458125, Note_on_c, 0, 60, 0
2, 458140, Note_on_c, 0, 55, 0
2, 458147, Note_on_c, 0, 65, 0
2, 458159, Note_on_c, 0, 62, 0
2, 458205, Note_on_c, 0, 82, 0
2, 458235, Control_c, 0, 64, 0
2, 458236, Note_on_c, 0, 94, 0
2, 458556, Note_on_c, 0, 66, 44
2, 458557, Note_on_c, 0, 96, 53
2, 458560, Note_on_c, 0, 56, 54
2, 458586, Note_on_c, 0, 62, 34
2, 458587, Note_on_c, 0, 84, 44
2, 458682, Note_on_c, 0, 96, 0
2, 458692, Note_on_c, 0, 84, 0
2, 458710, Note_on_c, 0, 66, 0
2, 458731, Note_on_c, 0, 62, 0
2, 458759, Note_on_c, 0, 56, 0
2, 458904, Note_on_c, 0, 62, 34
2, 458916, Note_on_c, 0, 94, 52
2, 458918, Note_on_c, 0, 65, 54
2, 458937, Note_on_c, 0, 60, 29
2, 458950, Note_on_c, 0, 82, 34
2, 458958, Control_c, 0, 64, 127
2, 458980, Note_on_c, 0, 55, 25
2, 459453, Note_on_c, 0, 94, 0
2, 459494, Note_on_c, 0, 82, 0
2, 460073, Note_on_c, 0, 62, 0
2, 460094, Note_on_c, 0, 60, 0
2, 460181, Note_on_c, 0, 65, 0
2, 460285, Note_on_c, 0, 55, 0
2, 460827, Note_on_c, 0, 77, 70
2, 460854, Note_on_c, 0, 62, 29
2, 460867, Note_on_c, 0, 65, 30
2, 460874, Note_on_c, 0, 60, 15
2, 461097, Note_on_c, 0, 77, 0
2, 461482, Note_on_c, 0, 79, 59
2, 461573, Note_on_c, 0, 79, 0
2, 461843, Note_on_c, 0, 77, 56
2, 461912, Note_on_c, 0, 77, 0
2, 462408, Note_on_c, 0, 76, 47
2, 462535, Note_on_c, 0, 76, 0
2, 462742, Note_on_c, 0, 77, 52
2, 462798, Note_on_c, 0, 77, 0
2, 463326, Note_on_c, 0, 79, 66
2, 463386, Note_on_c, 0, 79, 0
2, 463715, Note_on_c, 0, 77, 63
2, 463927, Note_on_c, 0, 77, 0
2, 463960, Note_on_c, 0, 79, 36
2, 464127, Note_on_c, 0, 79, 0
2, 464145, Note_on_c, 0, 77, 32
2, 464301, Note_on_c, 0, 77, 0
2, 464316, Note_on_c, 0, 76, 36
2, 464470, Note_on_c, 0, 76, 0
2, 464562, Note_on_c, 0, 77, 55
2, 464782, Note_on_c, 0, 60, 0
2, 464820, Note_on_c, 0, 62, 0
2, 465081, Note_on_c, 0, 65, 0
2, 467590, Note_on_c, 0, 57, 31
2, 467606, Note_on_c, 0, 65, 25
2, 467608, Note_on_c, 0, 60, 20
2, 467655, Note_on_c, 0, 77, 0
2, 468885, Control_c, 0, 64, 127
2, 469146, Control_c, 0, 64, 0
2, 469176, Note_on_c, 0, 80, 81
2, 469409, Note_on_c, 0, 80, 0
2, 469516, Note_on_c, 0, 81, 33
2, 469725, Note_on_c, 0, 81, 0
2, 469839, Note_on_c, 0, 86, 80
2, 470003, Note_on_c, 0, 86, 0
2, 470112, Note_on_c, 0, 84, 80
2, 470307, Note_on_c, 0, 84, 0
2, 470405, Note_on_c, 0, 81, 48
2, 470577, Note_on_c, 0, 81, 0
2, 470703, Control_c, 0, 64, 127
2, 470710, Note_on_c, 0, 77, 54
2, 470850, Note_on_c, 0, 60, 0
2, 470873, Note_on_c, 0, 65, 0
2, 470912, Note_on_c, 0, 77, 0
2, 470993, Note_on_c, 0, 57, 0
2, 471019, Note_on_c, 0, 72, 54
2, 471222, Note_on_c, 0, 72, 0
2, 471370, Note_on_c, 0, 70, 56
2, 471586, Note_on_c, 0, 70, 0
2, 471658, Control_c, 0, 64, 0
2, 471707, Note_on_c, 0, 69, 68
2, 471916, Note_on_c, 0, 69, 0
2, 472021, Note_on_c, 0, 68, 77
2, 472025, Note_on_c, 0, 58, 52
2, 472031, Note_on_c, 0, 63, 42
2, 472058, Note_on_c, 0, 53, 35
2, 472393, Control_c, 0, 64, 127
2, 473508, Note_on_c, 0, 68, 0
2, 473565, Note_on_c, 0, 63, 0
2, 473730, Note_on_c, 0, 67, 58
2, 473751, Control_c, 0, 64, 0
2, 473942, Note_on_c, 0, 67, 0
2, 474001, Note_on_c, 0, 65, 65
2, 474081, Control_c, 0, 64, 127
2, 474225, Control_c, 0, 64, 0
2, 474254, Note_on_c, 0, 65, 0
2, 474354, Note_on_c, 0, 60, 24
2, 474382, Note_on_c, 0, 63, 54
2, 474529, Control_c, 0, 64, 127
2, 474796, Note_on_c, 0, 60, 0
2, 474864, Note_on_c, 0, 58, 0
2, 474910, Note_on_c, 0, 53, 0
2, 474930, Note_on_c, 0, 63, 0
2, 474963, Note_on_c, 0, 65, 71
2, 475279, Control_c, 0, 64, 0
2, 475289, Note_on_c, 0, 65, 0
2, 475391, Note_on_c, 0, 59, 24
2, 475398, Note_on_c, 0, 66, 53
2, 475430, Note_on_c, 0, 63, 11
2, 475437, Note_on_c, 0, 58, 25
2, 475518, Note_on_c, 0, 63, 0
2, 475564, Note_on_c, 0, 58, 0
2, 476086, Note_on_c, 0, 59, 0
2, 476208, Note_on_c, 0, 68, 61
2, 476300, Note_on_c, 0, 66, 0
2, 476394, Note_on_c, 0, 68, 0
2, 476799, Note_on_c, 0, 66, 62
2, 476874, Note_on_c, 0, 58, 27
2, 477041, Note_on_c, 0, 58, 0
2, 477055, Note_on_c, 0, 66, 0
2, 477205, Note_on_c, 0, 63, 46
2, 477662, Control_c, 0, 64, 127
2, 477679, Note_on_c, 0, 63, 0
2, 477700, Note_on_c, 0, 59, 34
2, 477819, Note_on_c, 0, 59, 0
2, 477937, Control_c, 0, 64, 0
2, 478066, Note_on_c, 0, 53, 24
2, 478069, Note_on_c, 0, 55, 30
2, 478078, Note_on_c, 0, 65, 47
2, 478078, Note_on_c, 0, 62, 36
2, 478096, Note_on_c, 0, 58, 32
2, 478450, Note_on_c, 0, 55, 0
2, 478561, Note_on_c, 0, 62, 0
2, 478585, Note_on_c, 0, 65, 0
2, 478592, Note_on_c, 0, 58, 0
2, 478699, Note_on_c, 0, 63, 39
2, 478723, Note_on_c, 0, 55, 16
2, 478728, Note_on_c, 0, 58, 33
2, 478745, Note_on_c, 0, 53, 0
2, 478942, Note_on_c, 0, 55, 0
2, 479070, Note_on_c, 0, 63, 0
2, 479074, Note_on_c, 0, 62, 47
2, 479083, Note_on_c, 0, 55, 19
2, 479119, Note_on_c, 0, 50, 19
2, 479409, Note_on_c, 0, 50, 0
2, 479419, Note_on_c, 0, 62, 0
2, 479464, Note_on_c, 0, 55, 0
2, 479608, Note_on_c, 0, 63, 56
2, 479627, Note_on_c, 0, 51, 34
2, 479698, Control_c, 0, 64, 127
2, 479710, Note_on_c, 0, 58, 0
2, 479829, Note_on_c, 0, 63, 0
2, 479871, Control_c, 0, 64, 0
2, 479959, Note_on_c, 0, 51, 0
2, 479993, Note_on_c, 0, 58, 37
2, 480013, Note_on_c, 0, 67, 34
2, 480022, Note_on_c, 0, 55, 35
2, 480024, Note_on_c, 0, 62, 49
2, 480095, Note_on_c, 0, 67, 0
2, 480111, Note_on_c, 0, 62, 0
2, 480117, Note_on_c, 0, 58, 0
2, 480190, Control_c, 0, 64, 127
2, 480363, Control_c, 0, 64, 0
2, 480450, Note_on_c, 0, 55, 0
2, 480567, Note_on_c, 0, 70, 50
2, 480610, Note_on_c, 0, 58, 39
2, 480622, Control_c, 0, 64, 127
2, 480656, Note_on_c, 0, 70, 0
2, 480896, Control_c, 0, 64, 0
2, 480974, Note_on_c, 0, 73, 5
2, 480996, Note_on_c, 0, 62, 58
2, 480998, Note_on_c, 0, 77, 70
2, 481007, Note_on_c, 0, 61, 28
2, 481011, Note_on_c, 0, 70, 65
2, 481017, Note_on_c, 0, 67, 68
2, 481030, Note_on_c, 0, 73, 0
2, 481034, Note_on_c, 0, 74, 57
2, 481052, Note_on_c, 0, 76, 37
2, 481078, Note_on_c, 0, 61, 0
2, 481175, Note_on_c, 0, 58, 0
2, 481240, Note_on_c, 0, 76, 0
2, 481473, Note_on_c, 0, 77, 0
2, 481474, Note_on_c, 0, 67, 0
2, 481490, Note_on_c, 0, 62, 0
2, 481503, Note_on_c, 0, 58, 37
2, 481504, Note_on_c, 0, 70, 0
2, 481519, Note_on_c, 0, 74, 0
2, 481625, Note_on_c, 0, 75, 71
2, 481637, Note_on_c, 0, 70, 59
2, 481656, Note_on_c, 0, 60, 47
2, 481658, Note_on_c, 0, 67, 63
2, 481707, Note_on_c, 0, 58, 0
2, 481907, Note_on_c, 0, 67, 0
2, 481943, Note_on_c, 0, 75, 0
2, 481958, Note_on_c, 0, 70, 0
2, 482014, Note_on_c, 0, 60, 0
2, 482045, Note_on_c, 0, 59, 44
2, 482081, Note_on_c, 0, 74, 46
2, 482135, Note_on_c, 0, 67, 19
2, 482139, Note_on_c, 0, 70, 15
2, 482447, Note_on_c, 0, 67, 0
2, 482455, Control_c, 0, 64, 127
2, 482481, Note_on_c, 0, 70, 0
2, 482549, Note_on_c, 0, 74, 0
2, 482582, Note_on_c, 0, 59, 0
2, 482596, Note_on_c, 0, 75, 61
2, 482603, Note_on_c, 0, 60, 48
2, 482612, Note_on_c, 0, 70, 49
2, 482633, Note_on_c, 0, 67, 48
2, 482746, Note_on_c, 0, 75, 0
2, 482857, Note_on_c, 0, 67, 0
2, 482859, Note_on_c, 0, 70, 0
2, 482947, Control_c, 0, 64, 0
2, 483010, Note_on_c, 0, 77, 64
2, 483042, Note_on_c, 0, 67, 35
2, 483043, Note_on_c, 0, 70, 39
2, 483048, Note_on_c, 0, 62, 47
2, 483105, Note_on_c, 0, 60, 0
2, 483181, Note_on_c, 0, 77, 0
2, 483219, Note_on_c, 0, 67, 0
2, 483299, Note_on_c, 0, 70, 0
2, 483351, Control_c, 0, 64, 127
2, 483365, Control_c, 0, 64, 0
2, 483478, Note_on_c, 0, 62, 0
2, 483531, Note_on_c, 0, 64, 59
2, 483553, Control_c, 0, 64, 127
2, 483718, Note_on_c, 0, 64, 0
2, 483867, Control_c, 0, 64, 0
2, 483899, Note_on_c, 0, 69, 60
2, 483906, Note_on_c, 0, 73, 53
2, 483921, Note_on_c, 0, 70, 55
2, 483922, Note_on_c, 0, 81, 61
2, 483974, Note_on_c, 0, 76, 30
2, 484405, Control_c, 0, 64, 127
2, 484456, Note_on_c, 0, 76, 0
2, 484460, Note_on_c, 0, 73, 0
2, 484467, Note_on_c, 0, 81, 0
2, 484471, Note_on_c, 0, 70, 0
2, 484486, Note_on_c, 0, 69, 0
2, 484523, Note_on_c, 0, 67, 44
2, 484692, Note_on_c, 0, 67, 0
2, 484709, Control_c, 0, 64, 0
2, 484873, Note_on_c, 0, 76, 70
2, 484876, Note_on_c, 0, 84, 69
2, 484887, Note_on_c, 0, 73, 50
2, 484897, Note_on_c, 0, 72, 31
2, 485041, Note_on_c, 0, 84, 0
2, 485073, Note_on_c, 0, 76, 0
2, 485099, Note_on_c, 0, 72, 0
2, 485110, Note_on_c, 0, 73, 0
2, 485131, Note_on_c, 0, 70, 42
2, 485308, Note_on_c, 0, 70, 0
2, 485446, Note_on_c, 0, 81, 58
2, 485453, Note_on_c, 0, 70, 46
2, 485456, Note_on_c, 0, 73, 38
2, 485468, Note_on_c, 0, 69, 54
2, 485487, Note_on_c, 0, 76, 48
2, 485666, Note_on_c, 0, 81, 0
2, 485713, Note_on_c, 0, 69, 0
2, 485721, Note_on_c, 0, 73, 0
2, 485732, Note_on_c, 0, 76, 0
2, 485744, Note_on_c, 0, 70, 0
2, 485819, Note_on_c, 0, 67, 38
2, 486006, Note_on_c, 0, 67, 0
2, 486751, Note_on_c, 0, 78, 67
2, 486753, Note_on_c, 0, 70, 59
2, 486754, Note_on_c, 0, 67, 63
2, 486764, Note_on_c, 0, 66, 52
2, 486766, Note_on_c, 0, 73, 38
2, 486920, Note_on_c, 0, 78, 0
2, 486922, Note_on_c, 0, 67, 0
2, 486936, Note_on_c, 0, 70, 0
2, 486954, Note_on_c, 0, 73, 0
2, 487001, Note_on_c, 0, 66, 0
2, 487046, Note_on_c, 0, 64, 46
2, 487381, Note_on_c, 0, 76, 46
2, 487395, Note_on_c, 0, 64, 0
2, 487400, Note_on_c, 0, 67, 54
2, 487416, Note_on_c, 0, 63, 47
2, 487496, Note_on_c, 0, 76, 0
2, 487540, Note_on_c, 0, 67, 0
2, 487957, Note_on_c, 0, 63, 0
2, 488116, Note_on_c, 0, 75, 68
2, 488129, Note_on_c, 0, 64, 70
2, 488143, Note_on_c, 0, 67, 63
2, 488143, Note_on_c, 0, 70, 57
2, 488149, Note_on_c, 0, 63, 47
2, 488272, Note_on_c, 0, 75, 0
2, 488282, Note_on_c, 0, 63, 0
2, 488291, Note_on_c, 0, 70, 0
2, 488292, Note_on_c, 0, 67, 0
2, 488340, Note_on_c, 0, 64, 0
2, 488685, Note_on_c, 0, 73, 57
2, 488715, Note_on_c, 0, 61, 42
2, 488716, Note_on_c, 0, 67, 64
2, 488718, Note_on_c, 0, 64, 58
2, 488820, Note_on_c, 0, 73, 0
2, 488864, Note_on_c, 0, 64, 0
2, 488887, Note_on_c, 0, 67, 0
2, 488948, Note_on_c, 0, 61, 0
2, 488963, Note_on_c, 0, 60, 50
2, 488969, Note_on_c, 0, 72, 54
2, 488976, Note_on_c, 0, 64, 29
2, 489130, Note_on_c, 0, 72, 0
2, 489162, Note_on_c, 0, 60, 0
2, 489195, Note_on_c, 0, 64, 0
2, 489196, Note_on_c, 0, 70, 58
2, 489350, Control_c, 0, 64, 127
2, 489458, Note_on_c, 0, 70, 0
2, 489473, Note_on_c, 0, 64, 40
2, 489554, Control_c, 0, 64, 0
2, 489570, Note_on_c, 0, 64, 0
2, 489659, Note_on_c, 0, 60, 43
2, 489683, Note_on_c, 0, 63, 48
2, 489716, Note_on_c, 0, 69, 44
2, 489721, Note_on_c, 0, 53, 24
2, 490249, Note_on_c, 0, 63, 0
2, 490260, Control_c, 0, 64, 127
2, 490639, Note_on_c, 0, 65, 37
2, 490663, Note_on_c, 0, 69, 0
2, 491206, Note_on_c, 0, 63, 39
2, 491354, Note_on_c, 0, 63, 0
2, 491419, Note_on_c, 0, 65, 0
2, 491585, Note_on_c, 0, 69, 46
2, 491718, Note_on_c, 0, 69, 0
2, 491734, Note_on_c, 0, 60, 0
2, 491850, Control_c, 0, 64, 0
2, 491852, Note_on_c, 0, 70, 81
2, 491853, Note_on_c, 0, 53, 0
2, 491977, Note_on_c, 0, 70, 0
2, 492136, Control_c, 0, 64, 127
2, 492139, Note_on_c, 0, 72, 96
2, 492326, Control_c, 0, 64, 0
2, 492412, Note_on_c, 0, 72, 0
2, 492424, Note_on_c, 0, 58, 46
2, 492425, Note_on_c, 0, 55, 31
2, 492447, Note_on_c, 0, 62, 37
2, 492497, Note_on_c, 0, 69, 60
2, 493085, Note_on_c, 0, 69, 0
2, 493123, Note_on_c, 0, 67, 40
2, 493619, Note_on_c, 0, 67, 0
2, 493639, Control_c, 0, 64, 127
2, 493822, Note_on_c, 0, 62, 0
2, 493897, Note_on_c, 0, 58, 0
2, 493920, Note_on_c, 0, 67, 46
2, 494355, Note_on_c, 0, 62, 40
2, 494374, Note_on_c, 0, 58, 37
2, 494460, Note_on_c, 0, 62, 0
2, 494538, Note_on_c, 0, 58, 0
2, 494659, Note_on_c, 0, 55, 0
2, 494685, Note_on_c, 0, 67, 0
2, 494748, Note_on_c, 0, 69, 52
2, 494903, Note_on_c, 0, 69, 0
2, 495056, Note_on_c, 0, 70, 57
2, 495312, Control_c, 0, 64, 0
2, 495317, Note_on_c, 0, 70, 0
2, 495394, Note_on_c, 0, 58, 33
2, 495397, Note_on_c, 0, 55, 28
2, 495407, Note_on_c, 0, 72, 49
2, 495428, Note_on_c, 0, 48, 30
2, 495861, Control_c, 0, 64, 127
2, 495947, Note_on_c, 0, 72, 0
2, 496012, Note_on_c, 0, 67, 42
2, 496167, Note_on_c, 0, 67, 0
2, 496488, Note_on_c, 0, 63, 56
2, 496658, Note_on_c, 0, 55, 0
2, 496754, Note_on_c, 0, 58, 0
2, 496850, Note_on_c, 0, 48, 0
2, 497854, Note_on_c, 0, 60, 39
2, 497863, Note_on_c, 0, 63, 0
2, 498132, Note_on_c, 0, 48, 13
2, 498171, Control_c, 0, 64, 0
2, 498179, Note_on_c, 0, 60, 0
2, 498267, Note_on_c, 0, 41, 29
2, 498289, Note_on_c, 0, 53, 20
2, 498302, Note_on_c, 0, 58, 48
2, 498366, Note_on_c, 0, 48, 0
2, 498700, Note_on_c, 0, 58, 0
2, 498859, Note_on_c, 0, 58, 38
2, 499098, Note_on_c, 0, 55, 36
2, 499183, Note_on_c, 0, 58, 0
2, 499787, Note_on_c, 0, 55, 0
2, 499830, Note_on_c, 0, 57, 62
2, 500128, Note_on_c, 0, 48, 19
2, 500191, Control_c, 0, 64, 127
2, 500201, Note_on_c, 0, 48, 0
2, 500233, Note_on_c, 0, 41, 0
2, 500352, Note_on_c, 0, 53, 0
2, 500400, Note_on_c, 0, 57, 0
2, 500492, Note_on_c, 0, 58, 42
2, 500686, Note_on_c, 0, 58, 0
2, 500794, Note_on_c, 0, 60, 51
2, 501073, Control_c, 0, 64, 0
2, 501109, Note_on_c, 0, 60, 0
2, 501188, Note_on_c, 0, 46, 30
2, 501189, Note_on_c, 0, 58, 39
2, 501221, Note_on_c, 0, 53, 22
2, 501354, Note_on_c, 0, 58, 0
2, 501376, Control_c, 0, 64, 127
2, 501645, Note_on_c, 0, 53, 0
2, 501677, Note_on_c, 0, 46, 0
2, 502125, Control_c, 0, 64, 0
2, 502141, Note_on_c, 0, 71, 55
2, 502157, Note_on_c, 0, 66, 48
2, 502161, Note_on_c, 0, 56, 27
2, 502400, Control_c, 0, 64, 127
2, 502594, Note_on_c, 0, 71, 0
2, 502705, Note_on_c, 0, 66, 0
2, 502957, Note_on_c, 0, 56, 0
2, 503077, Control_c, 0, 64, 0
2, 503090, Note_on_c, 0, 71, 50
2, 503105, Note_on_c, 0, 64, 44
2, 503135, Note_on_c, 0, 68, 37
2, 503142, Note_on_c, 0, 56, 32
2, 503352, Control_c, 0, 64, 127
2, 503450, Note_on_c, 0, 56, 0
2, 503497, Note_on_c, 0, 64, 0
2, 503536, Note_on_c, 0, 71, 0
2, 503559, Note_on_c, 0, 68, 0
2, 504016, Control_c, 0, 64, 0
2, 504094, Note_on_c, 0, 58, 37
2, 504097, Note_on_c, 0, 72, 48
2, 504103, Note_on_c, 0, 67, 38
2, 504106, Note_on_c, 0, 70, 31
2, 504109, Note_on_c, 0, 64, 44
2, 504277, Control_c, 0, 64, 127
2, 504449, Note_on_c, 0, 64, 0
2, 504467, Note_on_c, 0, 67, 0
2, 504475, Note_on_c, 0, 72, 0
2, 504597, Note_on_c, 0, 70, 0
2, 504773, Note_on_c, 0, 58, 0
2, 504983, Control_c, 0, 64, 0
2, 505050, Note_on_c, 0, 74, 47
2, 505058, Note_on_c, 0, 57, 45
2, 505065, Note_on_c, 0, 63, 36
2, 505079, Note_on_c, 0, 69, 38
2, 505213, Control_c, 0, 64, 127
2, 505338, Note_on_c, 0, 63, 0
2, 505403, Note_on_c, 0, 69, 0
2, 505406, Note_on_c, 0, 74, 0
2, 505496, Note_on_c, 0, 57, 0
2, 506629, Note_on_c, 0, 66, 40
2, 506648, Note_on_c, 0, 56, 39
2, 506709, Note_on_c, 0, 66, 0
2, 506808, Note_on_c, 0, 56, 0
2, 506888, Control_c, 0, 64, 0
2, 506940, Note_on_c, 0, 78, 37
2, 506941, Note_on_c, 0, 66, 52
2, 506967, Note_on_c, 0, 65, 58
2, 506969, Note_on_c, 0, 62, 37
2, 506973, Note_on_c, 0, 75, 38
2, 506986, Note_on_c, 0, 60, 28
2, 507006, Note_on_c, 0, 55, 31
2, 507080, Note_on_c, 0, 66, 0
2, 507120, Note_on_c, 0, 78, 0
2, 507133, Note_on_c, 0, 67, 33
2, 507151, Note_on_c, 0, 65, 0
2, 507236, Note_on_c, 0, 75, 0
2, 507343, Note_on_c, 0, 67, 0
2, 507384, Note_on_c, 0, 75, 34
2, 507415, Note_on_c, 0, 79, 14
2, 507465, Note_on_c, 0, 67, 24
2, 507475, Note_on_c, 0, 79, 0
2, 507514, Note_on_c, 0, 75, 0
2, 507622, Note_on_c, 0, 67, 0
2, 507653, Note_on_c, 0, 75, 43
2, 507776, Note_on_c, 0, 67, 33
2, 507793, Note_on_c, 0, 75, 0
2, 507839, Note_on_c, 0, 62, 0
2, 507840, Note_on_c, 0, 60, 0
2, 507872, Note_on_c, 0, 55, 0
2, 507908, Note_on_c, 0, 67, 0
2, 508843, Note_on_c, 0, 65, 43
2, 508863, Note_on_c, 0, 55, 26
2, 508867, Note_on_c, 0, 60, 36
2, 508879, Note_on_c, 0, 62, 33
2, 508942, Control_c, 0, 64, 127
2, 509087, Note_on_c, 0, 60, 0
2, 509100, Note_on_c, 0, 62, 0
2, 509165, Note_on_c, 0, 65, 0
2, 509256, Note_on_c, 0, 55, 0
2, 509792, Control_c, 0, 64, 0
2, 510052, Control_c, 0, 64, 127
2, 510340, Control_c, 0, 64, 0
2, 510394, Note_on_c, 0, 59, 39
2, 510401, Note_on_c, 0, 76, 64
2, 510406, Note_on_c, 0, 71, 60
2, 510411, Note_on_c, 0, 51, 44
2, 510413, Note_on_c, 0, 68, 59
2, 510424, Note_on_c, 0, 65, 64
2, 510623, Note_on_c, 0, 65, 0
2, 510645, Note_on_c, 0, 68, 0
2, 510656, Control_c, 0, 64, 127
2, 510671, Note_on_c, 0, 71, 0
2, 510694, Note_on_c, 0, 76, 0
2, 510738, Note_on_c, 0, 51, 0
2, 510942, Note_on_c, 0, 59, 0
2, 511076, Control_c, 0, 64, 0
2, 511087, Note_on_c, 0, 68, 77
2, 511089, Note_on_c, 0, 79, 81
2, 511092, Note_on_c, 0, 71, 68
2, 511112, Note_on_c, 0, 67, 57
2, 511125, Note_on_c, 0, 74, 50
2, 511355, Control_c, 0, 64, 127
2, 511506, Note_on_c, 0, 79, 0
2, 511523, Note_on_c, 0, 68, 0
2, 511542, Note_on_c, 0, 67, 0
2, 511584, Control_c, 0, 64, 0
2, 511592, Note_on_c, 0, 71, 0
2, 511594, Note_on_c, 0, 74, 0
2, 511705, Note_on_c, 0, 68, 60
2, 511708, Note_on_c, 0, 77, 64
2, 511728, Note_on_c, 0, 65, 45
2, 511729, Note_on_c, 0, 74, 46
2, 511731, Note_on_c, 0, 71, 64
2, 511785, Control_c, 0, 64, 127
2, 511923, Note_on_c, 0, 77, 0
2, 511939, Note_on_c, 0, 74, 0
2, 511955, Note_on_c, 0, 71, 0
2, 512044, Note_on_c, 0, 68, 0
2, 512163, Control_c, 0, 64, 0
2, 512164, Note_on_c, 0, 65, 0
2, 512294, Note_on_c, 0, 62, 46
2, 512298, Note_on_c, 0, 68, 62
2, 512307, Note_on_c, 0, 74, 66
2, 512451, Control_c, 0, 64, 127
2, 512547, Note_on_c, 0, 68, 0
2, 512571, Note_on_c, 0, 74, 0
2, 512667, Control_c, 0, 64, 0
2, 512718, Note_on_c, 0, 62, 0
2, 512798, Note_on_c, 0, 75, 49
2, 512799, Note_on_c, 0, 63, 38
2, 512842, Note_on_c, 0, 67, 44
2, 512852, Note_on_c, 0, 70, 43
2, 512927, Control_c, 0, 64, 127
2, 513025, Note_on_c, 0, 75, 0
2, 513039, Note_on_c, 0, 70, 0
2, 513059, Note_on_c, 0, 67, 0
2, 513154, Note_on_c, 0, 63, 0
2, 514184, Control_c, 0, 64, 0
2, 514239, Note_on_c, 0, 63, 57
2, 514257, Note_on_c, 0, 67, 51
2, 514260, Note_on_c, 0, 72, 43
2, 514269, Note_on_c, 0, 60, 34
2, 514320, Note_on_c, 0, 67, 0
2, 514360, Note_on_c, 0, 72, 0
2, 514523, Note_on_c, 0, 63, 0
2, 514641, Note_on_c, 0, 60, 0
2, 514664, Note_on_c, 0, 70, 45
2, 514685, Note_on_c, 0, 58, 36
2, 514695, Note_on_c, 0, 60, 27
2, 514700, Note_on_c, 0, 63, 21
2, 514726, Note_on_c, 0, 67, 30
2, 515107, Control_c, 0, 64, 127
2, 515215, Note_on_c, 0, 67, 0
2, 515267, Note_on_c, 0, 60, 0
2, 515293, Note_on_c, 0, 63, 0
2, 515372, Note_on_c, 0, 58, 0
2, 515410, Control_c, 0, 64, 0
2, 515440, Note_on_c, 0, 70, 0
2, 515484, Note_on_c, 0, 55, 31
2, 515488, Note_on_c, 0, 67, 45
2, 515491, Note_on_c, 0, 60, 45
2, 515492, Note_on_c, 0, 63, 29
2, 516015, Control_c, 0, 64, 127
2, 516132, Note_on_c, 0, 67, 0
2, 516291, Control_c, 0, 64, 0
2, 516424, Note_on_c, 0, 60, 0
2, 516440, Note_on_c, 0, 50, 50
2, 516463, Note_on_c, 0, 55, 0
2, 516647, Note_on_c, 0, 63, 0
2, 517110, Note_on_c, 0, 62, 96
2, 517409, Note_on_c, 0, 62, 0
2, 517448, Note_on_c, 0, 61, 45
2, 517677, Note_on_c, 0, 61, 0
2, 517750, Note_on_c, 0, 62, 50
2, 517854, Note_on_c, 0, 50, 0
2, 517935, Note_on_c, 0, 62, 0
2, 518061, Note_on_c, 0, 63, 71
2, 518348, Note_on_c, 0, 63, 0
2, 518376, Note_on_c, 0, 58, 25
2, 518396, Note_on_c, 0, 48, 35
2, 518404, Note_on_c, 0, 64, 58
2, 519940, Note_on_c, 0, 64, 0
2, 519992, Note_on_c, 0, 60, 52
2, 520237, Note_on_c, 0, 60, 0
2, 520345, Note_on_c, 0, 59, 30
2, 520544, Note_on_c, 0, 59, 0
2, 520626, Note_on_c, 0, 60, 38
2, 520820, Note_on_c, 0, 60, 0
2, 520947, Note_on_c, 0, 65, 79
2, 521236, Note_on_c, 0, 65, 0
2, 521282, Note_on_c, 0, 63, 35
2, 521541, Note_on_c, 0, 63, 0
2, 521565, Note_on_c, 0, 64, 57
2, 521823, Note_on_c, 0, 64, 0
2, 521883, Note_on_c, 0, 68, 65
2, 522164, Note_on_c, 0, 68, 0
2, 522250, Note_on_c, 0, 66, 26
2, 522479, Note_on_c, 0, 66, 0
2, 522548, Note_on_c, 0, 67, 45
2, 522788, Note_on_c, 0, 67, 0
2, 522822, Note_on_c, 0, 70, 46
2, 523067, Note_on_c, 0, 70, 0
2, 523098, Note_on_c, 0, 48, 0
2, 523169, Note_on_c, 0, 72, 48
2, 523321, Note_on_c, 0, 58, 0
2, 523413, Note_on_c, 0, 72, 0
2, 523510, Note_on_c, 0, 73, 31
2, 523724, Note_on_c, 0, 73, 0
2, 523812, Note_on_c, 0, 75, 67
2, 523898, Control_c, 0, 64, 127
2, 523983, Control_c, 0, 64, 0
2, 524032, Note_on_c, 0, 75, 0
2, 524066, Note_on_c, 0, 61, 29
2, 524085, Note_on_c, 0, 58, 37
2, 524193, Note_on_c, 0, 72, 46
2, 524278, Note_on_c, 0, 53, 15
2, 524741, Note_on_c, 0, 72, 0
2, 524762, Note_on_c, 0, 70, 52
2, 524961, Note_on_c, 0, 70, 0
2, 525742, Note_on_c, 0, 68, 44
2, 526221, Control_c, 0, 64, 127
2, 526311, Note_on_c, 0, 68, 0
2, 526396, Note_on_c, 0, 70, 36
2, 526516, Note_on_c, 0, 68, 36
2, 526540, Control_c, 0, 64, 0
2, 526585, Note_on_c, 0, 58, 0
2, 526593, Note_on_c, 0, 61, 0
2, 526636, Note_on_c, 0, 53, 0
2, 526685, Note_on_c, 0, 70, 0
2, 526754, Control_c, 0, 64, 127
2, 526758, Note_on_c, 0, 68, 0
2, 526768, Note_on_c, 0, 67, 39
2, 526934, Note_on_c, 0, 67, 0
2, 526971, Control_c, 0, 64, 0
2, 527053, Note_on_c, 0, 56, 32
2, 527066, Note_on_c, 0, 68, 36
2, 527078, Note_on_c, 0, 60, 30
2, 527098, Note_on_c, 0, 53, 28
2, 527578, Control_c, 0, 64, 127
2, 527691, Control_c, 0, 64, 0
2, 528010, Control_c, 0, 64, 127
2, 528037, Note_on_c, 0, 65, 40
2, 528355, Note_on_c, 0, 68, 0
2, 528371, Note_on_c, 0, 60, 0
2, 528939, Note_on_c, 0, 53, 0
2, 528995, Note_on_c, 0, 56, 0
2, 529070, Note_on_c, 0, 65, 0
2, 529671, Note_on_c, 0, 72, 61
2, 529886, Control_c, 0, 64, 0
2, 529916, Note_on_c, 0, 72, 0
2, 529993, Note_on_c, 0, 56, 25
2, 530036, Note_on_c, 0, 70, 31
2, 530039, Note_on_c, 0, 67, 19
2, 530070, Note_on_c, 0, 62, 24
2, 530348, Control_c, 0, 64, 127
2, 530479, Note_on_c, 0, 70, 0
2, 530889, Note_on_c, 0, 77, 70
2, 531474, Note_on_c, 0, 77, 0
2, 531513, Note_on_c, 0, 74, 58
2, 531601, Note_on_c, 0, 67, 0
2, 532039, Note_on_c, 0, 74, 0
2, 532046, Note_on_c, 0, 56, 0
2, 532151, Note_on_c, 0, 70, 50
2, 532330, Note_on_c, 0, 62, 0
2, 532398, Note_on_c, 0, 70, 0
2, 532804, Control_c, 0, 64, 0
2, 532841, Note_on_c, 0, 65, 29
2, 532847, Note_on_c, 0, 59, 24
2, 532849, Note_on_c, 0, 62, 36
2, 532906, Note_on_c, 0, 79, 75
2, 533331, Note_on_c, 0, 79, 0
2, 533507, Note_on_c, 0, 77, 71
2, 533895, Note_on_c, 0, 77, 0
2, 533906, Note_on_c, 0, 74, 46
2, 534166, Note_on_c, 0, 74, 0
2, 534228, Note_on_c, 0, 71, 36
2, 534275, Control_c, 0, 64, 127
2, 534579, Note_on_c, 0, 71, 0
2, 534591, Note_on_c, 0, 67, 44
2, 534666, Note_on_c, 0, 67, 0
2, 535014, Note_on_c, 0, 86, 83
2, 535166, Note_on_c, 0, 62, 0
2, 535173, Note_on_c, 0, 59, 0
2, 535322, Note_on_c, 0, 65, 0
2, 535364, Note_on_c, 0, 86, 0
2, 535387, Note_on_c, 0, 84, 69
2, 535748, Control_c, 0, 64, 0
2, 535790, Note_on_c, 0, 82, 59
2, 535837, Note_on_c, 0, 67, 30
2, 535840, Note_on_c, 0, 84, 0
2, 535844, Note_on_c, 0, 60, 24
2, 535847, Note_on_c, 0, 63, 33
2, 535854, Note_on_c, 0, 62, 35
2, 536035, Note_on_c, 0, 82, 0
2, 536177, Note_on_c, 0, 79, 44
2, 536321, Note_on_c, 0, 79, 0
2, 536499, Note_on_c, 0, 77, 46
2, 536701, Note_on_c, 0, 77, 0
2, 536787, Note_on_c, 0, 75, 52
2, 537045, Note_on_c, 0, 75, 0
2, 537095, Note_on_c, 0, 74, 37
2, 537275, Note_on_c, 0, 74, 0
2, 537366, Note_on_c, 0, 77, 64
2, 537380, Control_c, 0, 64, 127
2, 537652, Note_on_c, 0, 77, 0
2, 537705, Note_on_c, 0, 74, 33
2, 537788, Note_on_c, 0, 67, 0
2, 537869, Note_on_c, 0, 62, 0
2, 537905, Note_on_c, 0, 74, 0
2, 537954, Note_on_c, 0, 63, 0
2, 537970, Note_on_c, 0, 75, 49
2, 538024, Note_on_c, 0, 60, 0
2, 538273, Note_on_c, 0, 72, 42
2, 538297, Note_on_c, 0, 75, 0
2, 538562, Control_c, 0, 64, 0
2, 538670, Note_on_c, 0, 63, 37
2, 538710, Note_on_c, 0, 57, 32
2, 538716, Note_on_c, 0, 60, 36
2, 539081, Control_c, 0, 64, 127
2, 539519, Note_on_c, 0, 69, 32
2, 539559, Note_on_c, 0, 72, 0
2, 539652, Note_on_c, 0, 60, 0
2, 540525, Note_on_c, 0, 60, 33
2, 540581, Note_on_c, 0, 63, 0
2, 540607, Note_on_c, 0, 69, 0
2, 540669, Note_on_c, 0, 60, 0
2, 540671, Note_on_c, 0, 57, 0
2, 541435, Control_c, 0, 64, 0
2, 541486, Note_on_c, 0, 63, 40
2, 541516, Note_on_c, 0, 60, 31
2, 541536, Note_on_c, 0, 56, 25
2, 541537, Note_on_c, 0, 46, 26
2, 541700, Control_c, 0, 64, 127
2, 541803, Note_on_c, 0, 60, 0
2, 541874, Note_on_c, 0, 63, 0
2, 541903, Note_on_c, 0, 46, 0
2, 541985, Note_on_c, 0, 56, 0
2, 544007, Note_on_c, 0, 67, 55
2, 544018, Note_on_c, 0, 63, 46
2, 544033, Note_on_c, 0, 60, 54
2, 544037, Note_on_c, 0, 56, 36
2, 544044, Note_on_c, 0, 89, 71
2, 544056, Note_on_c, 0, 77, 73
2, 544226, Note_on_c, 0, 89, 0
2, 544281, Note_on_c, 0, 77, 0
2, 544290, Note_on_c, 0, 67, 0
2, 544296, Note_on_c, 0, 56, 0
2, 544381, Note_on_c, 0, 60, 0
2, 544389, Note_on_c, 0, 63, 0
2, 544455, Control_c, 0, 64, 0
2, 544530, Note_on_c, 0, 86, 66
2, 544549, Note_on_c, 0, 74, 58
2, 544555, Note_on_c, 0, 56, 39
2, 544558, Note_on_c, 0, 67, 41
2, 544579, Note_on_c, 0, 62, 43
2, 544788, Control_c, 0, 64, 127
2, 545003, Note_on_c, 0, 86, 0
2, 545108, Note_on_c, 0, 74, 0
2, 545130, Note_on_c, 0, 67, 0
2, 545364, Note_on_c, 0, 56, 0
2, 545800, Note_on_c, 0, 62, 0
2, 545928, Control_c, 0, 64, 0
2, 545943, Note_on_c, 0, 82, 46
2, 545958, Note_on_c, 0, 66, 32
2, 545968, Note_on_c, 0, 56, 33
2, 545976, Note_on_c, 0, 62, 17
2, 545979, Note_on_c, 0, 70, 34
2, 545990, Note_on_c, 0, 60, 29
2, 546002, Note_on_c, 0, 77, 35
2, 546152, Note_on_c, 0, 77, 0
2, 546158, Control_c, 0, 64, 127
2, 546164, Note_on_c, 0, 82, 0
2, 546195, Note_on_c, 0, 70, 0
2, 546263, Note_on_c, 0, 66, 0
2, 546265, Note_on_c, 0, 56, 0
2, 546298, Note_on_c, 0, 60, 0
2, 546396, Note_on_c, 0, 62, 0
2, 546630, Note_on_c, 0, 79, 37
2, 546634, Note_on_c, 0, 56, 34
2, 546649, Note_on_c, 0, 67, 33
2, 546656, Note_on_c, 0, 66, 19
2, 546781, Note_on_c, 0, 79, 0
2, 546821, Note_on_c, 0, 66, 0
2, 546844, Note_on_c, 0, 67, 0
2, 547030, Note_on_c, 0, 56, 0
2, 547227, Control_c, 0, 64, 0
2, 547260, Note_on_c, 0, 75, 40
2, 547268, Note_on_c, 0, 65, 27
2, 547277, Note_on_c, 0, 62, 19
2, 547278, Note_on_c, 0, 55, 19
2, 547299, Note_on_c, 0, 60, 27
2, 547304, Note_on_c, 0, 67, 24
2, 547310, Note_on_c, 0, 70, 32
2, 547515, Control_c, 0, 64, 127
2, 547670, Note_on_c, 0, 65, 0
2, 547680, Note_on_c, 0, 75, 0
2, 547685, Note_on_c, 0, 62, 0
2, 547691, Note_on_c, 0, 70, 0
2, 547736, Note_on_c, 0, 67, 0
2, 547743, Note_on_c, 0, 60, 0
2, 547829, Note_on_c, 0, 55, 0
2, 548231, Note_on_c, 0, 55, 38
2, 548245, Note_on_c, 0, 65, 49
2, 548249, Note_on_c, 0, 70, 30
2, 548251, Note_on_c, 0, 60, 36
2, 548270, Note_on_c, 0, 54, 30
2, 548406, Note_on_c, 0, 54, 0
2, 548865, Note_on_c, 0, 60, 0
2, 548912, Note_on_c, 0, 65, 0
2, 548921, Note_on_c, 0, 70, 0
2, 549174, Note_on_c, 0, 55, 0
2, 549250, Note_on_c, 0, 70, 38
2, 549278, Note_on_c, 0, 60, 28
2, 549288, Note_on_c, 0, 65, 34
2, 549457, Note_on_c, 0, 65, 0
2, 549503, Note_on_c, 0, 70, 0
2, 549584, Note_on_c, 0, 60, 0
2, 550114, Control_c, 0, 64, 0
2, 550131, Note_on_c, 0, 56, 35
2, 550140, Note_on_c, 0, 67, 37
2, 550146, Note_on_c, 0, 34, 32
2, 550149, Note_on_c, 0, 46, 28
2, 550150, Note_on_c, 0, 60, 40
2, 550160, Note_on_c, 0, 63, 33
2, 550762, Control_c, 0, 64, 127
2, 550957, Note_on_c, 0, 67, 0
2, 551085, Note_on_c, 0, 65, 44
2, 551103, Note_on_c, 0, 46, 0
2, 551190, Note_on_c, 0, 34, 0
2, 551971, Note_on_c, 0, 56, 0
2, 551975, Control_c, 0, 64, 0
2, 551985, Note_on_c, 0, 60, 0
2, 552001, Note_on_c, 0, 22, 34
2, 552005, Note_on_c, 0, 89, 72
2, 552008, Note_on_c, 0, 65, 0
2, 552042, Control_c, 0, 64, 127
2, 552047, Note_on_c, 0, 63, 0
2, 552397, Note_on_c, 0, 22, 0
2, 552896, Note_on_c, 0, 89, 0
2, 552938, Control_c, 0, 64, 0
2, 552971, Note_on_c, 0, 86, 58
2, 552987, Note_on_c, 0, 82, 47
2, 552991, Note_on_c, 0, 65, 47
2, 552995, Note_on_c, 0, 55, 28
2, 553008, Note_on_c, 0, 62, 40
2, 553013, Note_on_c, 0, 79, 43
2, 553029, Note_on_c, 0, 60, 36
2, 553199, Control_c, 0, 64, 127
2, 553260, Note_on_c, 0, 86, 0
2, 553335, Note_on_c, 0, 82, 0
2, 553360, Note_on_c, 0, 79, 0
2, 553919, Note_on_c, 0, 65, 0
2, 553940, Note_on_c, 0, 77, 59
2, 553957, Note_on_c, 0, 62, 0
2, 553986, Note_on_c, 0, 60, 0
2, 554065, Note_on_c, 0, 55, 0
2, 554788, Note_on_c, 0, 77, 0
2, 554895, Note_on_c, 0, 67, 48
2, 554905, Note_on_c, 0, 74, 47
2, 554911, Note_on_c, 0, 70, 36
2, 554941, Note_on_c, 0, 46, 35
2, 555052, Note_on_c, 0, 74, 0
2, 555130, Note_on_c, 0, 70, 0
2, 555150, Note_on_c, 0, 67, 0
2, 555315, Note_on_c, 0, 46, 0
2, 555855, Control_c, 0, 64, 0
2, 555865, Note_on_c, 0, 63, 42
2, 555880, Note_on_c, 0, 56, 36
2, 555881, Note_on_c, 0, 60, 46
2, 555883, Note_on_c, 0, 46, 30
2, 555920, Note_on_c, 0, 34, 25
2, 556145, Control_c, 0, 64, 127
2, 556224, Note_on_c, 0, 46, 0
2, 556280, Note_on_c, 0, 34, 0
2, 556450, Note_on_c, 0, 60, 0
2, 556529, Note_on_c, 0, 56, 0
2, 556895, Note_on_c, 0, 56, 34
2, 556898, Note_on_c, 0, 60, 36
2, 556912, Note_on_c, 0, 34, 25
2, 556925, Note_on_c, 0, 63, 0
2, 557362, Note_on_c, 0, 56, 0
2, 557392, Note_on_c, 0, 60, 0
2, 557411, Note_on_c, 0, 34, 0
2, 557974, Note_on_c, 0, 63, 36
2, 557981, Note_on_c, 0, 56, 33
2, 558007, Note_on_c, 0, 34, 25
2, 558008, Note_on_c, 0, 60, 34
2, 558028, Note_on_c, 0, 22, 25
2, 558205, Note_on_c, 0, 22, 0
2, 558282, Note_on_c, 0, 34, 0
2, 558397, Note_on_c, 0, 56, 0
2, 558434, Note_on_c, 0, 60, 0
2, 558750, Note_on_c, 0, 63, 0
2, 559349, Control_c, 0, 64, 0
2, 559399, Note_on_c, 0, 62, 34
2, 559406, Note_on_c, 0, 58, 32
2, 559409, Note_on_c, 0, 55, 22
2, 559415, Note_on_c, 0, 39, 33
2, 559455, Note_on_c, 0, 27, 26
2, 559811, Control_c, 0, 64, 127
2, 559851, Note_on_c, 0, 55, 0
2, 559919, Note_on_c, 0, 62, 0
2, 559923, Note_on_c, 0, 58, 0
2, 559946, Note_on_c, 0, 27, 0
2, 560028, Note_on_c, 0, 39, 0
2, 562780, Note_on_c, 0, 106, 36
2, 562812, Note_on_c, 0, 94, 26
2, 562816, Note_on_c, 0, 82, 29
2, 563225, Note_on_c, 0, 94, 0
2, 563227, Note_on_c, 0, 82, 0
2, 563227, Note_on_c, 0, 106, 0
2, 566421, Control_c, 0, 64, 0
2, 566421, End_track
3, 0, Start_track
3, 0, Title_t, "Bass"
3, 0, Program_c, 1, 32
3, 0, Control_c, 1, 7, 105
3, 6, Note_on_c, 1, 39, 47
3, 97, Control_c, 1, 64, 127
3, 209, Control_c, 1, 64, 0
3, 953, Control_c, 1, 64, 127
3, 1821, Control_c, 1, 64, 0
3, 2076, Control_c, 1, 64, 127
3, 2782, Control_c, 1, 64, 0
3, 2886, Note_on_c, 1, 51, 42
3, 4050, Control_c, 1, 64, 127
3, 4291, Note_on_c, 1, 39, 0
3, 5446, Note_on_c, 1, 38, 38
3, 5525, Control_c, 1, 64, 0
3, 5620, Note_on_c, 1, 51, 0
3, 5754, Note_on_c, 1, 38, 0
3, 5766, Note_on_c, 1, 39, 51
3, 6774, Control_c, 1, 64, 127
3, 7980, Note_on_c, 1, 51, 38
3, 8112, Note_on_c, 1, 39, 0
3, 8317, Note_on_c, 1, 39, 49
3, 8375, Note_on_c, 1, 51, 0
3, 8476, Control_c, 1, 64, 0
3, 8552, Note_on_c, 1, 39, 0
3, 8631, Note_on_c, 1, 50, 62
3, 9615, Control_c, 1, 64, 127
3, 9966, Control_c, 1, 64, 0
3, 10202, Note_on_c, 1, 50, 0
3, 10217, Note_on_c, 1, 38, 48
3, 10514, Note_on_c, 1, 38, 0
3, 10557, Note_on_c, 1, 37, 42
3, 11414, Note_on_c, 1, 37, 0
3, 11500, Note_on_c, 1, 36, 36
3, 11569, Control_c, 1, 64, 127
3, 11585, Control_c, 1, 64, 0
3, 13100, Note_on_c, 1, 43, 22
3, 13279, Note_on_c, 1, 43, 0
3, 13452, Note_on_c, 1, 51, 53
3, 14080, Note_on_c, 1, 43, 20
3, 14136, Note_on_c, 1, 51, 0
3, 14310, Note_on_c, 1, 43, 0
3, 14388, Note_on_c, 1, 52, 53
3, 16835, Note_on_c, 1, 36, 0
3, 16963, Note_on_c, 1, 34, 30
3, 17274, Note_on_c, 1, 41, 44
3, 17275, Note_on_c, 1, 34, 0
3, 17953, Note_on_c, 1, 52, 0
3, 19488, Note_on_c, 1, 36, 45
3, 19646, Note_on_c, 1, 36, 0
3, 19828, Note_on_c, 1, 30, 38
3, 20028, Note_on_c, 1, 30, 0
3, 20134, Note_on_c, 1, 29, 44
3, 20160, Note_on_c, 1, 41, 0
3, 21737, Note_on_c, 1, 36, 30
3, 21970, Note_on_c, 1, 29, 0
3, 21979, Note_on_c, 1, 36, 0
3, 22092, Note_on_c, 1, 41, 60
3, 22509, Note_on_c, 1, 41, 0
3, 22732, Note_on_c, 1, 33, 55
3, 23008, Note_on_c, 1, 34, 46
3, 23053, Note_on_c, 1, 33, 0
3, 25239, Note_on_c, 1, 45, 51
3, 25373, Note_on_c, 1, 45, 0
3, 25588, Note_on_c, 1, 46, 55
3, 25851, Note_on_c, 1, 46, 0
3, 25923, Note_on_c, 1, 47, 77
3, 26189, Note_on_c, 1, 34, 0
3, 28483, Note_on_c, 1, 35, 48
3, 28574, Note_on_c, 1, 47, 0
3, 28812, Note_on_c, 1, 36, 43
3, 28830, Note_on_c, 1, 35, 0
3, 29557, Note_on_c, 1, 36, 0
3, 29725, Note_on_c, 1, 48, 53
3, 29737, Note_on_c, 1, 35, 24
3, 29836, Note_on_c, 1, 35, 0
3, 31007, Note_on_c, 1, 48, 0
3, 31008, Note_on_c, 1, 47, 37
3, 31200, Note_on_c, 1, 47, 0
3, 31354, Note_on_c, 1, 46, 33
3, 31636, Note_on_c, 1, 46, 0
3, 31686, Note_on_c, 1, 45, 57
3, 33469, Note_on_c, 1, 45, 0
3, 33600, Note_on_c, 1, 45, 64
3, 34482, Note_on_c, 1, 45, 0
3, 34531, Note_on_c, 1, 46, 45
3, 35494, Note_on_c, 1, 34, 47
3, 35506, Note_on_c, 1, 46, 0
3, 36409, Note_on_c, 1, 34, 0
3, 36471, Note_on_c, 1, 34, 53
3, 39020, Note_on_c, 1, 37, 46
3, 39120, Note_on_c, 1, 34, 0
3, 39316, Note_on_c, 1, 37, 0
3, 39369, Note_on_c, 1, 38, 57
3, 40281, Note_on_c, 1, 38, 0
3, 40311, Note_on_c, 1, 39, 50
3, 41248, Note_on_c, 1, 50, 72
3, 42249, Note_on_c, 1, 51, 68
3, 42257, Note_on_c, 1, 50, 0
3, 44087, Note_on_c, 1, 39, 0
3, 44135, Note_on_c, 1, 51, 0
3, 44137, Note_on_c, 1, 46, 52
3, 45754, Note_on_c, 1, 38, 45
3, 45794, Note_on_c, 1, 46, 0
3, 46076, Note_on_c, 1, 38, 0
3, 46077, Note_on_c, 1, 39, 55
3, 48288, Note_on_c, 1, 51, 51
3, 48457, Note_on_c, 1, 51, 0
3, 48646, Note_on_c, 1, 50, 30
3, 48838, Note_on_c, 1, 50, 0
3, 48972, Note_on_c, 1, 51, 54
3, 49879, Note_on_c, 1, 44, 36
3, 49882, Note_on_c, 1, 39, 0
3, 51017, Note_on_c, 1, 51, 0
3, 51442, Note_on_c, 1, 44, 0
3, 51514, Note_on_c, 1, 38, 40
3, 51831, Note_on_c, 1, 39, 51
3, 51901, Note_on_c, 1, 38, 0
3, 54406, Note_on_c, 1, 51, 79
3, 54578, Note_on_c, 1, 39, 0
3, 54663, Note_on_c, 1, 51, 0
3, 54676, Note_on_c, 1, 50, 65
3, 54830, Note_on_c, 1, 50, 0
3, 55351, Note_on_c, 1, 38, 50
3, 56928, Note_on_c, 1, 34, 35
3, 57065, Note_on_c, 1, 38, 0
3, 57099, Note_on_c, 1, 34, 0
3, 57277, Note_on_c, 1, 35, 46
3, 57561, Note_on_c, 1, 35, 0
3, 57562, Note_on_c, 1, 36, 47
3, 58534, Note_on_c, 1, 49, 67
3, 59162, Note_on_c, 1, 34, 34
3, 59185, Note_on_c, 1, 49, 0
3, 59262, Note_on_c, 1, 36, 0
3, 59398, Note_on_c, 1, 34, 0
3, 59526, Note_on_c, 1, 48, 51
3, 60408, Note_on_c, 1, 48, 0
3, 60492, Note_on_c, 1, 40, 42
3, 62338, Note_on_c, 1, 40, 0
3, 62412, Note_on_c, 1, 30, 54
3, 63369, Note_on_c, 1, 30, 0
3, 63372, Note_on_c, 1, 29, 45
3, 66243, Note_on_c, 1, 41, 47
3, 66907, Note_on_c, 1, 29, 0
3, 67820, Note_on_c, 1, 36, 40
3, 67974, Note_on_c, 1, 36, 0
3, 68154, Note_on_c, 1, 33, 51
3, 68337, Note_on_c, 1, 41, 0
3, 69100, Note_on_c, 1, 33, 0
3, 69117, Note_on_c, 1, 34, 54
3, 71325, Note_on_c, 1, 33, 40
3, 71352, Note_on_c, 1, 34, 0
3, 71549, Note_on_c, 1, 33, 0
3, 71668, Note_on_c, 1, 34, 51
3, 71865, Note_on_c, 1, 34, 0
3, 71965, Note_on_c, 1, 35, 59
3, 73274, Note_on_c, 1, 47, 54
3, 73490, Note_on_c, 1, 47, 0
3, 73571, Note_on_c, 1, 46, 46
3, 73817, Note_on_c, 1, 46, 0
3, 73923, Note_on_c, 1, 47, 49
3, 74480, Note_on_c, 1, 47, 0
3, 74551, Note_on_c, 1, 50, 71
3, 74835, Note_on_c, 1, 35, 0
3, 74842, Note_on_c, 1, 50, 0
3, 74889, Note_on_c, 1, 48, 49
3, 75487, Note_on_c, 1, 48, 0
3, 75511, Note_on_c, 1, 43, 51
3, 75692, Note_on_c, 1, 43, 0
3, 75814, Note_on_c, 1, 39, 42
3, 76736, Note_on_c, 1, 39, 0
3, 76806, Note_on_c, 1, 36, 40
3, 77685, Note_on_c, 1, 36, 0
3, 77719, Note_on_c, 1, 45, 62
3, 79676, Note_on_c, 1, 45, 0
3, 79689, Note_on_c, 1, 42, 42
3, 80605, Note_on_c, 1, 42, 0
3, 80608, Note_on_c, 1, 46, 57
3, 81524, Note_on_c, 1, 46, 0
3, 81577, Note_on_c, 1, 34, 71
3, 83320, Note_on_c, 1, 34, 0
3, 83523, Note_on_c, 1, 34, 70
3, 85079, Note_on_c, 1, 46, 47
3, 85201, Note_on_c, 1, 34, 0
3, 85289, Note_on_c, 1, 46, 0
3, 85431, Note_on_c, 1, 38, 53
3, 86365, Note_on_c, 1, 39, 48
3, 86414, Note_on_c, 1, 38, 0
3, 89271, Note_on_c, 1, 46, 37
3, 89286, Note_on_c, 1, 39, 0
3, 91785, Note_on_c, 1, 46, 0
3, 91852, Note_on_c, 1, 45, 39
3, 92112, Note_on_c, 1, 45, 0
3, 92119, Note_on_c, 1, 46, 39
3, 95008, Note_on_c, 1, 34, 46
3, 95029, Note_on_c, 1, 46, 0
3, 97257, Note_on_c, 1, 48, 54
3, 97484, Note_on_c, 1, 48, 0
3, 97597, Note_on_c, 1, 46, 51
3, 97883, Note_on_c, 1, 46, 0
3, 97894, Note_on_c, 1, 45, 64
3, 98149, Note_on_c, 1, 34, 0
3, 99494, Note_on_c, 1, 41, 38
3, 99609, Note_on_c, 1, 45, 0
3, 99834, Note_on_c, 1, 33, 50
3, 99895, Note_on_c, 1, 41, 0
3, 102729, Note_on_c, 1, 41, 51
3, 102752, Note_on_c, 1, 33, 0
3, 103342, Note_on_c, 1, 41, 0
3, 103372, Note_on_c, 1, 33, 43
3, 103660, Note_on_c, 1, 44, 71
3, 103713, Note_on_c, 1, 33, 0
3, 106231, Note_on_c, 1, 39, 28
3, 106372, Note_on_c, 1, 39, 0
3, 106493, Note_on_c, 1, 44, 0
3, 106537, Note_on_c, 1, 32, 55
3, 108480, Note_on_c, 1, 38, 51
3, 108555, Note_on_c, 1, 32, 0
3, 109399, Note_on_c, 1, 39, 56
3, 109418, Note_on_c, 1, 38, 0
3, 112291, Note_on_c, 1, 51, 74
3, 112775, Note_on_c, 1, 39, 0
3, 114528, Note_on_c, 1, 38, 49
3, 114691, Note_on_c, 1, 51, 0
3, 114721, Note_on_c, 1, 38, 0
3, 114877, Note_on_c, 1, 39, 60
3, 115197, Note_on_c, 1, 40, 66
3, 115221, Note_on_c, 1, 39, 0
3, 117772, Note_on_c, 1, 37, 40
3, 117832, Note_on_c, 1, 40, 0
3, 118054, Note_on_c, 1, 37, 0
3, 118080, Note_on_c, 1, 34, 50
3, 119855, Note_on_c, 1, 34, 0
3, 119994, Note_on_c, 1, 31, 40
3, 120934, Note_on_c, 1, 29, 42
3, 120937, Note_on_c, 1, 31, 0
3, 122531, Note_on_c, 1, 36, 36
3, 122735, Note_on_c, 1, 36, 0
3, 122851, Note_on_c, 1, 29, 0
3, 122883, Note_on_c, 1, 41, 76
3, 123757, Note_on_c, 1, 41, 0
3, 123840, Note_on_c, 1, 43, 72
3, 126679, Note_on_c, 1, 36, 61
3, 126706, Note_on_c, 1, 43, 0
3, 129594, Note_on_c, 1, 41, 66
3, 129627, Note_on_c, 1, 36, 0
3, 132166, Note_on_c, 1, 39, 33
3, 132403, Note_on_c, 1, 41, 0
3, 132412, Note_on_c, 1, 39, 0
3, 132492, Note_on_c, 1, 46, 54
3, 133408, Note_on_c, 1, 47, 51
3, 133420, Note_on_c, 1, 46, 0
3, 134394, Note_on_c, 1, 40, 28
3, 134459, Note_on_c, 1, 47, 0
3, 135348, Note_on_c, 1, 40, 0
3, 135372, Note_on_c, 1, 36, 58
3, 136260, Note_on_c, 1, 36, 0
3, 136276, Note_on_c, 1, 41, 48
3, 137174, Note_on_c, 1, 41, 0
3, 137292, Note_on_c, 1, 34, 40
3, 138220, Note_on_c, 1, 39, 48
3, 138292, Note_on_c, 1, 34, 0
3, 141100, Note_on_c, 1, 51, 62
3, 141695, Note_on_c, 1, 51, 0
3, 141748, Note_on_c, 1, 53, 45
3, 142060, Note_on_c, 1, 51, 46
3, 142074, Note_on_c, 1, 53, 0
3, 143613, Note_on_c, 1, 39, 0
3, 143976, Note_on_c, 1, 51, 0
3, 143988, Note_on_c, 1, 39, 60
3, 146728, Note_on_c, 1, 39, 0
3, 146860, Note_on_c, 1, 38, 40
3, 148809, Note_on_c, 1, 34, 46
3, 148874, Note_on_c, 1, 38, 0
3, 148985, Note_on_c, 1, 34, 0
3, 149431, Note_on_c, 1, 35, 57
3, 149698, Note_on_c, 1, 35, 0
3, 149728, Note_on_c, 1, 36, 42
3, 150400, Note_on_c, 1, 50, 67
3, 150540, Note_on_c, 1, 36, 0
3, 150665, Note_on_c, 1, 50, 0
3, 150697, Note_on_c, 1, 48, 49
3, 151959, Note_on_c, 1, 42, 35
3, 152014, Note_on_c, 1, 42, 0
3, 152332, Note_on_c, 1, 39, 36
3, 152388, Note_on_c, 1, 39, 0
3, 152596, Note_on_c, 1, 43, 55
3, 154096, Note_on_c, 1, 43, 0
3, 154199, Note_on_c, 1, 40, 49
3, 154287, Note_on_c, 1, 48, 0
3, 154424, Note_on_c, 1, 40, 0
3, 154569, Note_on_c, 1, 36, 47
3, 155468, Note_on_c, 1, 36, 0
3, 155500, Note_on_c, 1, 41, 49
3, 156154, Note_on_c, 1, 34, 46
3, 156207, Note_on_c, 1, 41, 0
3, 156378, Note_on_c, 1, 34, 0
3, 156460, Note_on_c, 1, 29, 46
3, 158332, Note_on_c, 1, 29, 0
3, 158380, Note_on_c, 1, 41, 49
3, 160311, Note_on_c, 1, 33, 42
3, 160359, Note_on_c, 1, 41, 0
3, 161277, Note_on_c, 1, 34, 53
3, 161319, Note_on_c, 1, 33, 0
3, 164028, Note_on_c, 1, 34, 0
3, 164134, Note_on_c, 1, 35, 55
3, 165088, Note_on_c, 1, 47, 87
3, 166371, Note_on_c, 1, 50, 55
3, 166411, Note_on_c, 1, 47, 0
3, 166603, Note_on_c, 1, 50, 0
3, 166720, Note_on_c, 1, 47, 43
3, 166964, Note_on_c, 1, 47, 0
3, 167037, Note_on_c, 1, 48, 69
3, 167050, Note_on_c, 1, 35, 0
3, 167683, Note_on_c, 1, 43, 38
3, 167792, Note_on_c, 1, 43, 0
3, 167839, Note_on_c, 1, 48, 0
3, 167971, Note_on_c, 1, 36, 57
3, 169731, Note_on_c, 1, 36, 0
3, 169879, Note_on_c, 1, 33, 64
3, 172756, Note_on_c, 1, 34, 64
3, 172798, Note_on_c, 1, 33, 0
3, 174723, Note_on_c, 1, 46, 74
3, 174763, Note_on_c, 1, 34, 0
3, 176620, Note_on_c, 1, 34, 47
3, 177143, Note_on_c, 1, 34, 0
3, 177257, Note_on_c, 1, 37, 38
3, 177487, Note_on_c, 1, 46, 0
3, 177500, Note_on_c, 1, 37, 0
3, 177606, Note_on_c, 1, 38, 50
3, 178569, Note_on_c, 1, 39, 55
3, 178572, Note_on_c, 1, 38, 0
3, 183369, Note_on_c, 1, 51, 53
3, 184311, Note_on_c, 1, 50, 60
3, 184380, Note_on_c, 1, 39, 0
3, 184407, Note_on_c, 1, 51, 0
3, 185227, Note_on_c, 1, 50, 0
3, 185257, Note_on_c, 1, 46, 51
3, 186246, Note_on_c, 1, 41, 46
3, 186271, Note_on_c, 1, 46, 0
3, 187168, Note_on_c, 1, 45, 69
3, 187189, Note_on_c, 1, 41, 0
3, 188762, Note_on_c, 1, 41, 33
3, 188857, Note_on_c, 1, 45, 0
3, 189055, Note_on_c, 1, 41, 0
3, 189117, Note_on_c, 1, 46, 52
3, 189754, Note_on_c, 1, 41, 24
3, 189878, Note_on_c, 1, 46, 0
3, 189909, Note_on_c, 1, 41, 0
3, 190039, Note_on_c, 1, 45, 60
3, 192925, Note_on_c, 1, 33, 47
3, 194552, Note_on_c, 1, 45, 0
3, 195831, Note_on_c, 1, 32, 63
3, 195935, Note_on_c, 1, 33, 0
3, 198685, Note_on_c, 1, 47, 71
3, 200211, Note_on_c, 1, 47, 0
3, 200282, Note_on_c, 1, 46, 37
3, 200557, Note_on_c, 1, 46, 0
3, 200568, Note_on_c, 1, 32, 0
3, 200652, Note_on_c, 1, 44, 46
3, 200978, Note_on_c, 1, 44, 0
3, 201286, Note_on_c, 1, 38, 44
3, 201565, Note_on_c, 1, 39, 54
3, 201577, Note_on_c, 1, 38, 0
3, 204471, Note_on_c, 1, 34, 55
3, 204596, Note_on_c, 1, 39, 0
3, 206355, Note_on_c, 1, 34, 0
3, 206388, Note_on_c, 1, 39, 53
3, 206989, Note_on_c, 1, 39, 0
3, 207049, Note_on_c, 1, 34, 52
3, 207348, Note_on_c, 1, 40, 57
3, 207404, Note_on_c, 1, 34, 0
3, 208297, Note_on_c, 1, 52, 91
3, 208434, Note_on_c, 1, 40, 0
3, 209534, Note_on_c, 1, 52, 0
3, 209565, Note_on_c, 1, 49, 49
3, 209763, Note_on_c, 1, 49, 0
3, 209911, Note_on_c, 1, 46, 49
3, 210183, Note_on_c, 1, 46, 0
3, 210208, Note_on_c, 1, 43, 34
3, 211817, Note_on_c, 1, 40, 39
3, 211905, Note_on_c, 1, 43, 0
3, 212103, Note_on_c, 1, 40, 0
3, 212163, Note_on_c, 1, 30, 34
3, 212794, Note_on_c, 1, 40, 29
3, 212866, Note_on_c, 1, 30, 0
3, 212990, Note_on_c, 1, 40, 0
3, 213091, Note_on_c, 1, 29, 39
3, 214688, Note_on_c, 1, 36, 28
3, 214846, Note_on_c, 1, 36, 0
3, 214944, Note_on_c, 1, 29, 0
3, 215028, Note_on_c, 1, 41, 47
3, 215980, Note_on_c, 1, 41, 0
3, 215980, Note_on_c, 1, 43, 48
3, 217908, Note_on_c, 1, 38, 50
3, 217982, Note_on_c, 1, 43, 0
3, 218819, Note_on_c, 1, 38, 0
3, 218871, Note_on_c, 1, 36, 56
3, 221763, Note_on_c, 1, 41, 53
3, 221801, Note_on_c, 1, 36, 0
3, 224599, Note_on_c, 1, 41, 0
3, 224643, Note_on_c, 1, 34, 47
3, 226180, Note_on_c, 1, 34, 0
3, 226214, Note_on_c, 1, 35, 51
3, 226565, Note_on_c, 1, 35, 0
3, 226572, Note_on_c, 1, 34, 52
3, 227435, Note_on_c, 1, 34, 0
3, 227517, Note_on_c, 1, 40, 53
3, 228454, Note_on_c, 1, 36, 54
3, 228469, Note_on_c, 1, 40, 0
3, 229097, Note_on_c, 1, 41, 44
3, 229163, Note_on_c, 1, 36, 0
3, 229431, Note_on_c, 1, 46, 68
3, 229492, Note_on_c, 1, 41, 0
3, 230080, Note_on_c, 1, 38, 36
3, 230135, Note_on_c, 1, 46, 0
3, 230268, Note_on_c, 1, 38, 0
3, 230391, Note_on_c, 1, 39, 59
3, 234036, Note_on_c, 1, 39, 0
3, 234214, Note_on_c, 1, 39, 55
3, 234791, Note_on_c, 1, 39, 0
3, 234848, Note_on_c, 1, 38, 34
3, 235158, Note_on_c, 1, 38, 0
3, 235191, Note_on_c, 1, 39, 55
3, 235809, Note_on_c, 1, 39, 0
3, 235852, Note_on_c, 1, 38, 43
3, 236119, Note_on_c, 1, 39, 56
3, 236150, Note_on_c, 1, 38, 0
3, 238374, Note_on_c, 1, 51, 53
3, 238528, Note_on_c, 1, 39, 0
3, 238572, Note_on_c, 1, 51, 0
3, 238717, Note_on_c, 1, 39, 39
3, 239014, Note_on_c, 1, 50, 61
3, 239060, Note_on_c, 1, 39, 0
3, 239962, Note_on_c, 1, 38, 69
3, 240055, Note_on_c, 1, 50, 0
3, 240819, Note_on_c, 1, 38, 0
3, 240963, Note_on_c, 1, 37, 53
3, 241909, Note_on_c, 1, 37, 0
3, 241923, Note_on_c, 1, 36, 46
3, 244475, Note_on_c, 1, 36, 0
3, 244486, Note_on_c, 1, 38, 41
3, 244647, Note_on_c, 1, 38, 0
3, 244765, Note_on_c, 1, 40, 50
3, 246380, Note_on_c, 1, 39, 36
3, 246465, Note_on_c, 1, 39, 0
3, 246729, Note_on_c, 1, 48, 58
3, 246736, Note_on_c, 1, 40, 0
3, 247215, Note_on_c, 1, 48, 0
3, 247360, Note_on_c, 1, 40, 39
3, 247623, Note_on_c, 1, 40, 0
3, 247636, Note_on_c, 1, 41, 52
3, 249524, Note_on_c, 1, 41, 0
3, 249612, Note_on_c, 1, 29, 38
3, 252468, Note_on_c, 1, 41, 55
3, 252843, Note_on_c, 1, 29, 0
3, 253087, Note_on_c, 1, 41, 0
3, 253120, Note_on_c, 1, 33, 42
3, 253428, Note_on_c, 1, 34, 57
3, 253454, Note_on_c, 1, 33, 0
3, 255648, Note_on_c, 1, 45, 50
3, 255822, Note_on_c, 1, 45, 0
3, 255991, Note_on_c, 1, 46, 49
3, 256291, Note_on_c, 1, 46, 0
3, 256329, Note_on_c, 1, 47, 69
3, 256466, Note_on_c, 1, 34, 0
3, 257245, Note_on_c, 1, 35, 71
3, 257295, Note_on_c, 1, 47, 0
3, 258534, Note_on_c, 1, 41, 49
3, 258594, Note_on_c, 1, 35, 0
3, 259159, Note_on_c, 1, 41, 0
3, 259165, Note_on_c, 1, 36, 68
3, 261748, Note_on_c, 1, 43, 31
3, 261815, Note_on_c, 1, 43, 0
3, 261860, Note_on_c, 1, 36, 0
3, 262036, Note_on_c, 1, 45, 57
3, 264916, Note_on_c, 1, 45, 0
3, 264963, Note_on_c, 1, 46, 51
3, 265888, Note_on_c, 1, 34, 55
3, 266063, Note_on_c, 1, 46, 0
3, 268774, Note_on_c, 1, 46, 60
3, 268791, Note_on_c, 1, 34, 0
3, 270409, Note_on_c, 1, 38, 49
3, 270437, Note_on_c, 1, 46, 0
3, 270711, Note_on_c, 1, 39, 53
3, 270762, Note_on_c, 1, 38, 0
3, 276483, Note_on_c, 1, 39, 47
3, 276577, Control_c, 1, 64, 127
3, 277329, Note_on_c, 1, 39, 0
3, 278301, Control_c, 1, 64, 0
3, 278556, Control_c, 1, 64, 127
3, 279262, Control_c, 1, 64, 0
3, 279354, Note_on_c, 1, 51, 42
3, 280530, Control_c, 1, 64, 127
3, 280768, Note_on_c, 1, 39, 0
3, 281917, Note_on_c, 1, 38, 38
3, 282005, Control_c, 1, 64, 0
3, 282088, Note_on_c, 1, 51, 0
3, 282225, Note_on_c, 1, 38, 0
3, 282243, Note_on_c, 1, 39, 51
3, 283254, Control_c, 1, 64, 127
3, 284457, Note_on_c, 1, 51, 38
3, 284589, Note_on_c, 1, 39, 0
3, 284806, Note_on_c, 1, 39, 49
3, 284852, Note_on_c, 1, 51, 0
3, 284956, Control_c, 1, 64, 0
3, 285041, Note_on_c, 1, 39, 0
3, 285117, Note_on_c, 1, 50, 62
3, 286095, Control_c, 1, 64, 127
3, 286446, Control_c, 1, 64, 0
3, 286679, Note_on_c, 1, 38, 48
3, 286688, Note_on_c, 1, 50, 0
3, 286976, Note_on_c, 1, 38, 0
3, 287049, Note_on_c, 1, 37, 42
3, 287906, Note_on_c, 1, 37, 0
3, 287980, Note_on_c, 1, 36, 36
3, 288049, Control_c, 1, 64, 127
3, 288065, Control_c, 1, 64, 0
3, 289577, Note_on_c, 1, 43, 22
3, 289756, Note_on_c, 1, 43, 0
3, 289932, Note_on_c, 1, 51, 53
3, 290563, Note_on_c, 1, 43, 20
3, 290616, Note_on_c, 1, 51, 0
3, 290793, Note_on_c, 1, 43, 0
3, 290874, Note_on_c, 1, 52, 53
3, 293315, Note_on_c, 1, 36, 0
3, 293440, Note_on_c, 1, 34, 30
3, 293752, Note_on_c, 1, 34, 0
3, 293772, Note_on_c, 1, 41, 44
3, 294439, Note_on_c, 1, 52, 0
3, 295962, Note_on_c, 1, 36, 45
3, 296120, Note_on_c, 1, 36, 0
3, 296308, Note_on_c, 1, 30, 38
3, 296508, Note_on_c, 1, 30, 0
3, 296614, Note_on_c, 1, 29, 44
3, 296658, Note_on_c, 1, 41, 0
3, 298211, Note_on_c, 1, 36, 30
3, 298450, Note_on_c, 1, 29, 0
3, 298453, Note_on_c, 1, 36, 0
3, 298566, Note_on_c, 1, 41, 60
3, 298983, Note_on_c, 1, 41, 0
3, 299188, Note_on_c, 1, 33, 55
3, 299500, Note_on_c, 1, 34, 46
3, 299509, Note_on_c, 1, 33, 0
3, 301716, Note_on_c, 1, 45, 51
3, 301850, Note_on_c, 1, 45, 0
3, 302086, Note_on_c, 1, 46, 55
3, 302349, Note_on_c, 1, 46, 0
3, 302400, Note_on_c, 1, 47, 77
3, 302681, Note_on_c, 1, 34, 0
3, 304954, Note_on_c, 1, 35, 48
3, 305051, Note_on_c, 1, 47, 0
3, 305292, Note_on_c, 1, 36, 43
3, 305301, Note_on_c, 1, 35, 0
3, 306037, Note_on_c, 1, 36, 0
3, 306208, Note_on_c, 1, 48, 53
3, 306220, Note_on_c, 1, 35, 24
3, 306319, Note_on_c, 1, 35, 0
3, 307490, Note_on_c, 1, 48, 0
3, 307497, Note_on_c, 1, 47, 37
3, 307689, Note_on_c, 1, 47, 0
3, 307849, Note_on_c, 1, 46, 33
3, 308131, Note_on_c, 1, 46, 0
3, 308163, Note_on_c, 1, 45, 57
3, 309946, Note_on_c, 1, 45, 0
3, 310092, Note_on_c, 1, 45, 64
3, 310974, Note_on_c, 1, 45, 0
3, 311008, Note_on_c, 1, 46, 45
3, 311980, Note_on_c, 1, 34, 47
3, 311983, Note_on_c, 1, 46, 0
3, 312895, Note_on_c, 1, 34, 0
3, 312957, Note_on_c, 1, 34, 53
3, 315482, Note_on_c, 1, 37, 46
3, 315606, Note_on_c, 1, 34, 0
3, 315778, Note_on_c, 1, 37, 0
3, 315837, Note_on_c, 1, 38, 57
3, 316749, Note_on_c, 1, 38, 0
3, 316791, Note_on_c, 1, 39, 50
3, 317740, Note_on_c, 1, 50, 72
3, 318720, Note_on_c, 1, 51, 68
3, 318749, Note_on_c, 1, 50, 0
3, 320567, Note_on_c, 1, 39, 0
3, 320602, Note_on_c, 1, 46, 52
3, 320606, Note_on_c, 1, 51, 0
3, 322237, Note_on_c, 1, 38, 45
3, 322259, Note_on_c, 1, 46, 0
3, 322559, Note_on_c, 1, 38, 0
3, 322560, Note_on_c, 1, 39, 55
3, 324780, Note_on_c, 1, 51, 51
3, 324949, Note_on_c, 1, 51, 0
3, 325129, Note_on_c, 1, 50, 30
3, 325321, Note_on_c, 1, 50, 0
3, 325434, Note_on_c, 1, 51, 54
3, 326356, Note_on_c, 1, 44, 36
3, 326365, Note_on_c, 1, 39, 0
3, 327479, Note_on_c, 1, 51, 0
3, 327919, Note_on_c, 1, 44, 0
3, 328006, Note_on_c, 1, 38, 40
3, 328311, Note_on_c, 1, 39, 51
3, 328393, Note_on_c, 1, 38, 0
3, 330871, Note_on_c, 1, 51, 79
3, 331058, Note_on_c, 1, 39, 0
3, 331128, Note_on_c, 1, 51, 0
3, 331156, Note_on_c, 1, 50, 65
3, 331310, Note_on_c, 1, 50, 0
3, 331834, Note_on_c, 1, 38, 50
3, 333420, Note_on_c, 1, 34, 35
3, 333548, Note_on_c, 1, 38, 0
3, 333591, Note_on_c, 1, 34, 0
3, 333763, Note_on_c, 1, 35, 46
3, 334047, Note_on_c, 1, 35, 0
3, 334048, Note_on_c, 1, 36, 47
3, 335011, Note_on_c, 1, 49, 67
3, 335642, Note_on_c, 1, 34, 34
3, 335662, Note_on_c, 1, 49, 0
3, 335748, Note_on_c, 1, 36, 0
3, 335878, Note_on_c, 1, 34, 0
3, 336012, Note_on_c, 1, 48, 51
3, 336894, Note_on_c, 1, 48, 0
3, 336972, Note_on_c, 1, 40, 42
3, 338818, Note_on_c, 1, 40, 0
3, 338880, Note_on_c, 1, 30, 54
3, 339828, Note_on_c, 1, 29, 45
3, 339837, Note_on_c, 1, 30, 0
3, 342711, Note_on_c, 1, 41, 47
3, 343363, Note_on_c, 1, 29, 0
3, 344291, Note_on_c, 1, 36, 40
3, 344445, Note_on_c, 1, 36, 0
3, 344652, Note_on_c, 1, 33, 51
3, 344805, Note_on_c, 1, 41, 0
3, 345598, Note_on_c, 1, 33, 0
3, 345612, Note_on_c, 1, 34, 54
3, 347802, Note_on_c, 1, 33, 40
3, 347847, Note_on_c, 1, 34, 0
3, 348026, Note_on_c, 1, 33, 0
3, 348151, Note_on_c, 1, 34, 51
3, 348348, Note_on_c, 1, 34, 0
3, 348439, Note_on_c, 1, 35, 59
3, 349769, Note_on_c, 1, 47, 54
3, 349985, Note_on_c, 1, 47, 0
3, 350039, Note_on_c, 1, 46, 46
3, 350285, Note_on_c, 1, 46, 0
3, 350403, Note_on_c, 1, 47, 49
3, 350960, Note_on_c, 1, 47, 0
3, 351040, Note_on_c, 1, 50, 71
3, 351309, Note_on_c, 1, 35, 0
3, 351331, Note_on_c, 1, 50, 0
3, 351357, Note_on_c, 1, 48, 49
3, 351955, Note_on_c, 1, 48, 0
3, 352000, Note_on_c, 1, 43, 51
3, 352181, Note_on_c, 1, 43, 0
3, 352300, Note_on_c, 1, 39, 42
3, 353222, Note_on_c, 1, 39, 0
3, 353286, Note_on_c, 1, 36, 40
3, 354165, Note_on_c, 1, 36, 0
3, 354202, Note_on_c, 1, 45, 62
3, 356159, Note_on_c, 1, 45, 0
3, 356160, Note_on_c, 1, 42, 42
3, 357076, Note_on_c, 1, 42, 0
3, 357100, Note_on_c, 1, 46, 57
3, 358016, Note_on_c, 1, 46, 0
3, 358060, Note_on_c, 1, 34, 71
3, 359803, Note_on_c, 1, 34, 0
3, 359991, Note_on_c, 1, 34, 70
3, 361574, Note_on_c, 1, 46, 47
3, 361669, Note_on_c, 1, 34, 0
3, 361784, Note_on_c, 1, 46, 0
3, 361932, Note_on_c, 1, 38, 53
3, 362845, Note_on_c, 1, 39, 48
3, 362915, Note_on_c, 1, 38, 0
3, 365751, Note_on_c, 1, 46, 37
3, 365766, Note_on_c, 1, 39, 0
3, 368265, Note_on_c, 1, 46, 0
3, 368323, Note_on_c, 1, 45, 39
3, 368583, Note_on_c, 1, 45, 0
3, 368617, Note_on_c, 1, 46, 39
3, 371479, Note_on_c, 1, 34, 46
3, 371527, Note_on_c, 1, 46, 0
3, 373737, Note_on_c, 1, 48, 54
3, 373964, Note_on_c, 1, 48, 0
3, 374074, Note_on_c, 1, 46, 51
3, 374360, Note_on_c, 1, 46, 0
3, 374377, Note_on_c, 1, 45, 64
3, 374620, Note_on_c, 1, 34, 0
3, 375956, Note_on_c, 1, 41, 38
3, 376092, Note_on_c, 1, 45, 0
3, 376332, Note_on_c, 1, 33, 50
3, 376357, Note_on_c, 1, 41, 0
3, 379209, Note_on_c, 1, 41, 51
3, 379250, Note_on_c, 1, 33, 0
3, 379822, Note_on_c, 1, 41, 0
3, 379843, Note_on_c, 1, 33, 43
3, 380140, Note_on_c, 1, 44, 71
3, 380184, Note_on_c, 1, 33, 0
3, 382720, Note_on_c, 1, 39, 28
3, 382861, Note_on_c, 1, 39, 0
3, 382973, Note_on_c, 1, 44, 0
3, 383017, Note_on_c, 1, 32, 55
3, 384966, Note_on_c, 1, 38, 51
3, 385035, Note_on_c, 1, 32, 0
3, 385891, Note_on_c, 1, 39, 56
3, 385904, Note_on_c, 1, 38, 0
3, 388780, Note_on_c, 1, 51, 74
3, 389267, Note_on_c, 1, 39, 0
3, 391011, Note_on_c, 1, 38, 49
3, 391180, Note_on_c, 1, 51, 0
3, 391204, Note_on_c, 1, 38, 0
3, 391357, Note_on_c, 1, 39, 60
3, 391683, Note_on_c, 1, 40, 66
3, 391701, Note_on_c, 1, 39, 0
3, 394231, Note_on_c, 1, 37, 40
3, 394318, Note_on_c, 1, 40, 0
3, 394513, Note_on_c, 1, 37, 0
3, 394548, Note_on_c, 1, 34, 50
3, 396323, Note_on_c, 1, 34, 0
3, 396471, Note_on_c, 1, 31, 40
3, 397402, Note_on_c, 1, 29, 42
3, 397414, Note_on_c, 1, 31, 0
3, 398999, Note_on_c, 1, 36, 36
3, 399203, Note_on_c, 1, 36, 0
3, 399319, Note_on_c, 1, 29, 0
3, 399357, Note_on_c, 1, 41, 76
3, 400231, Note_on_c, 1, 41, 0
3, 400326, Note_on_c, 1, 43, 72
3, 403162, Note_on_c, 1, 36, 61
3, 403192, Note_on_c, 1, 43, 0
3, 406068, Note_on_c, 1, 41, 66
3, 406110, Note_on_c, 1, 36, 0
3, 408631, Note_on_c, 1, 39, 33
3, 408877, Note_on_c, 1, 39, 0
3, 408877, Note_on_c, 1, 41, 0
3, 408948, Note_on_c, 1, 46, 54
3, 409876, Note_on_c, 1, 46, 0
3, 409879, Note_on_c, 1, 47, 51
3, 410874, Note_on_c, 1, 40, 28
3, 410930, Note_on_c, 1, 47, 0
3, 411828, Note_on_c, 1, 40, 0
3, 411831, Note_on_c, 1, 36, 58
3, 412719, Note_on_c, 1, 36, 0
3, 412777, Note_on_c, 1, 41, 48
3, 413675, Note_on_c, 1, 41, 0
3, 413757, Note_on_c, 1, 34, 40
3, 414691, Note_on_c, 1, 39, 48
3, 414757, Note_on_c, 1, 34, 0
3, 417574, Note_on_c, 1, 51, 62
3, 418169, Note_on_c, 1, 51, 0
3, 418240, Note_on_c, 1, 53, 45
3, 418534, Note_on_c, 1, 51, 46
3, 418566, Note_on_c, 1, 53, 0
3, 420084, Note_on_c, 1, 39, 0
3, 420450, Note_on_c, 1, 51, 0
3, 420471, Note_on_c, 1, 39, 60
3, 423211, Note_on_c, 1, 39, 0
3, 423331, Note_on_c, 1, 38, 40
3, 425268, Note_on_c, 1, 34, 46
3, 425345, Note_on_c, 1, 38, 0
3, 425444, Note_on_c, 1, 34, 0
3, 425920, Note_on_c, 1, 35, 57
3, 426187, Note_on_c, 1, 35, 0
3, 426196, Note_on_c, 1, 36, 42
3, 426877, Note_on_c, 1, 50, 67
3, 427008, Note_on_c, 1, 36, 0
3, 427142, Note_on_c, 1, 50, 0
3, 427159, Note_on_c, 1, 48, 49
3, 428457, Note_on_c, 1, 42, 35
3, 428512, Note_on_c, 1, 42, 0
3, 428806, Note_on_c, 1, 39, 36
3, 428862, Note_on_c, 1, 39, 0
3, 429100, Note_on_c, 1, 43, 55
3, 430600, Note_on_c, 1, 43, 0
3, 430697, Note_on_c, 1, 40, 49
3, 430749, Note_on_c, 1, 48, 0
3, 430922, Note_on_c, 1, 40, 0
3, 431043, Note_on_c, 1, 36, 47
3, 431942, Note_on_c, 1, 36, 0
3, 431962, Note_on_c, 1, 41, 49
3, 432631, Note_on_c, 1, 34, 46
3, 432669, Note_on_c, 1, 41, 0
3, 432855, Note_on_c, 1, 34, 0
3, 432931, Note_on_c, 1, 29, 46
3, 434803, Note_on_c, 1, 29, 0
3, 434848, Note_on_c, 1, 41, 49
3, 436806, Note_on_c, 1, 33, 42
3, 436827, Note_on_c, 1, 41, 0
3, 437760, Note_on_c, 1, 34, 53
3, 437814, Note_on_c, 1, 33, 0
3, 440511, Note_on_c, 1, 34, 0
3, 440617, Note_on_c, 1, 35, 55
3, 441574, Note_on_c, 1, 47, 87
3, 442848, Note_on_c, 1, 50, 55
3, 442897, Note_on_c, 1, 47, 0
3, 443080, Note_on_c, 1, 50, 0
3, 443191, Note_on_c, 1, 47, 43
3, 443435, Note_on_c, 1, 47, 0
3, 443517, Note_on_c, 1, 48, 69
3, 443533, Note_on_c, 1, 35, 0
3, 444154, Note_on_c, 1, 43, 38
3, 444263, Note_on_c, 1, 43, 0
3, 444319, Note_on_c, 1, 48, 0
3, 444436, Note_on_c, 1, 36, 57
3, 446196, Note_on_c, 1, 36, 0
3, 446365, Note_on_c, 1, 33, 64
3, 449245, Note_on_c, 1, 34, 64
3, 449284, Note_on_c, 1, 33, 0
3, 451206, Note_on_c, 1, 46, 74
3, 451252, Note_on_c, 1, 34, 0
3, 453100, Note_on_c, 1, 34, 47
3, 453623, Note_on_c, 1, 34, 0
3, 453716, Note_on_c, 1, 37, 38
3, 453959, Note_on_c, 1, 37, 0
3, 453970, Note_on_c, 1, 46, 0
3, 454092, Note_on_c, 1, 38, 50
3, 455031, Note_on_c, 1, 39, 55
3, 455058, Note_on_c, 1, 38, 0
3, 459834, Note_on_c, 1, 51, 53
3, 460788, Note_on_c, 1, 50, 60
3, 460842, Note_on_c, 1, 39, 0
3, 460872, Note_on_c, 1, 51, 0
3, 461704, Note_on_c, 1, 50, 0
3, 461737, Note_on_c, 1, 46, 51
3, 462708, Note_on_c, 1, 41, 46
3, 462751, Note_on_c, 1, 46, 0
3, 463648, Note_on_c, 1, 46, 69
3, 463651, Note_on_c, 1, 41, 0
3, 465239, Note_on_c, 1, 41, 33
3, 465337, Note_on_c, 1, 46, 0
3, 465532, Note_on_c, 1, 41, 0
3, 465609, Note_on_c, 1, 46, 52
3, 466246, Note_on_c, 1, 41, 24
3, 466370, Note_on_c, 1, 46, 0
3, 466401, Note_on_c, 1, 41, 0
3, 466528, Note_on_c, 1, 45, 60
3, 469396, Note_on_c, 1, 33, 47
3, 471041, Note_on_c, 1, 45, 0
3, 472311, Note_on_c, 1, 32, 63
3, 472406, Note_on_c, 1, 33, 0
3, 475165, Note_on_c, 1, 47, 71
3, 476691, Note_on_c, 1, 47, 0
3, 476765, Note_on_c, 1, 46, 37
3, 477040, Note_on_c, 1, 46, 0
3, 477048, Note_on_c, 1, 32, 0
3, 477126, Note_on_c, 1, 44, 46
3, 477452, Note_on_c, 1, 44, 0
3, 477754, Note_on_c, 1, 38, 44
3, 478045, Note_on_c, 1, 38, 0
3, 478060, Note_on_c, 1, 39, 54
3, 480969, Note_on_c, 1, 34, 55
3, 481091, Note_on_c, 1, 39, 0
3, 482853, Note_on_c, 1, 34, 0
3, 482880, Note_on_c, 1, 39, 53
3, 483481, Note_on_c, 1, 39, 0
3, 483508, Note_on_c, 1, 34, 52
3, 483840, Note_on_c, 1, 40, 57
3, 483863, Note_on_c, 1, 34, 0
3, 484780, Note_on_c, 1, 52, 91
3, 484926, Note_on_c, 1, 40, 0
3, 486017, Note_on_c, 1, 52, 0
3, 486042, Note_on_c, 1, 49, 49
3, 486240, Note_on_c, 1, 49, 0
3, 486412, Note_on_c, 1, 46, 49
3, 486684, Note_on_c, 1, 46, 0
3, 486694, Note_on_c, 1, 43, 34
3, 488276, Note_on_c, 1, 40, 39
3, 488391, Note_on_c, 1, 43, 0
3, 488562, Note_on_c, 1, 40, 0
3, 488634, Note_on_c, 1, 30, 34
3, 489280, Note_on_c, 1, 40, 29
3, 489337, Note_on_c, 1, 30, 0
3, 489476, Note_on_c, 1, 40, 0
3, 489574, Note_on_c, 1, 29, 39
3, 491156, Note_on_c, 1, 36, 28
3, 491314, Note_on_c, 1, 36, 0
3, 491427, Note_on_c, 1, 29, 0
3, 491529, Note_on_c, 1, 41, 47
3, 492436, Note_on_c, 1, 43, 48
3, 492481, Note_on_c, 1, 41, 0
3, 494406, Note_on_c, 1, 38, 50
3, 494438, Note_on_c, 1, 43, 0
3, 495317, Note_on_c, 1, 38, 0
3, 495360, Note_on_c, 1, 36, 56
3, 498231, Note_on_c, 1, 41, 53
3, 498290, Note_on_c, 1, 36, 0
3, 501067, Note_on_c, 1, 41, 0
3, 501126, Note_on_c, 1, 34, 47
3, 502663, Note_on_c, 1, 34, 0
3, 502694, Note_on_c, 1, 35, 51
3, 503045, Note_on_c, 1, 35, 0
3, 503052, Note_on_c, 1, 34, 52
3, 503915, Note_on_c, 1, 34, 0
3, 503991, Note_on_c, 1, 40, 53
3, 504940, Note_on_c, 1, 36, 54
3, 504943, Note_on_c, 1, 40, 0
3, 505577, Note_on_c, 1, 41, 44
3, 505649, Note_on_c, 1, 36, 0
3, 505926, Note_on_c, 1, 46, 68
3, 505972, Note_on_c, 1, 41, 0
3, 506560, Note_on_c, 1, 38, 36
3, 506630, Note_on_c, 1, 46, 0
3, 506748, Note_on_c, 1, 38, 0
3, 506892, Note_on_c, 1, 39, 59
3, 510537, Note_on_c, 1, 39, 0
3, 510679, Note_on_c, 1, 39, 55
3, 511256, Note_on_c, 1, 39, 0
3, 511322, Note_on_c, 1, 38, 34
3, 511632, Note_on_c, 1, 38, 0
3, 511668, Note_on_c, 1, 39, 55
3, 512286, Note_on_c, 1, 39, 0
3, 512323, Note_on_c, 1, 38, 43
3, 512614, Note_on_c, 1, 39, 56
3, 512621, Note_on_c, 1, 38, 0
3, 514857, Note_on_c, 1, 51, 53
3, 515023, Note_on_c, 1, 39, 0
3, 515055, Note_on_c, 1, 51, 0
3, 515197, Note_on_c, 1, 39, 39
3, 515491, Note_on_c, 1, 50, 61
3, 515540, Note_on_c, 1, 39, 0
3, 516439, Note_on_c, 1, 38, 69
3, 516532, Note_on_c, 1, 50, 0
3, 517296, Note_on_c, 1, 38, 0
3, 517452, Note_on_c, 1, 37, 53
3, 518398, Note_on_c, 1, 37, 0
3, 518409, Note_on_c, 1, 36, 46
3, 520961, Note_on_c, 1, 36, 0
3, 520966, Note_on_c, 1, 38, 41
3, 521127, Note_on_c, 1, 38, 0
3, 521257, Note_on_c, 1, 40, 50
3, 522839, Note_on_c, 1, 39, 36
3, 522924, Note_on_c, 1, 39, 0
3, 523212, Note_on_c, 1, 48, 58
3, 523228, Note_on_c, 1, 40, 0
3, 523698, Note_on_c, 1, 48, 0
3, 523846, Note_on_c, 1, 40, 39
3, 524109, Note_on_c, 1, 40, 0
3, 524119, Note_on_c, 1, 41, 52
3, 526007, Note_on_c, 1, 41, 0
3, 526074, Note_on_c, 1, 29, 38
3, 528951, Note_on_c, 1, 41, 55
3, 529305, Note_on_c, 1, 29, 0
3, 529570, Note_on_c, 1, 41, 0
3, 529609, Note_on_c, 1, 33, 42
3, 529920, Note_on_c, 1, 34, 57
3, 529943, Note_on_c, 1, 33, 0
3, 532125, Note_on_c, 1, 45, 50
3, 532299, Note_on_c, 1, 45, 0
3, 532483, Note_on_c, 1, 46, 49
3, 532783, Note_on_c, 1, 46, 0
3, 532788, Note_on_c, 1, 47, 69
3, 532958, Note_on_c, 1, 34, 0
3, 533719, Note_on_c, 1, 35, 71
3, 533754, Note_on_c, 1, 47, 0
3, 535011, Note_on_c, 1, 41, 49
3, 535068, Note_on_c, 1, 35, 0
3, 535636, Note_on_c, 1, 41, 0
3, 535642, Note_on_c, 1, 36, 68
3, 538237, Note_on_c, 1, 43, 31
3, 538304, Note_on_c, 1, 43, 0
3, 538337, Note_on_c, 1, 36, 0
3, 538537, Note_on_c, 1, 45, 57
3, 541417, Note_on_c, 1, 45, 0
3, 541452, Note_on_c, 1, 46, 51
3, 542377, Note_on_c, 1, 34, 55
3, 542552, Note_on_c, 1, 46, 0
3, 545245, Note_on_c, 1, 46, 60
3, 545280, Note_on_c, 1, 34, 0
3, 546886, Note_on_c, 1, 38, 49
3, 546908, Note_on_c, 1, 46, 0
3, 547209, Note_on_c, 1, 39, 53
3, 547239, Note_on_c, 1, 38, 0
3, 550089, Note_on_c, 1, 46, 61
3, 551907, Note_on_c, 1, 39, 0
3, 551970, Note_on_c, 1, 46, 0
3, 551988, Note_on_c, 1, 34, 40
3, 552937, Note_on_c, 1, 39, 40
3, 553025, Note_on_c, 1, 34, 0
3, 555828, Note_on_c, 1, 46, 35
3, 555976, Note_on_c, 1, 39, 0
3, 557994, Note_on_c, 1, 46, 0
3, 558036, Note_on_c, 1, 58, 47
3, 559372, Note_on_c, 1, 39, 35
3, 559434, Note_on_c, 1, 58, 0
3, 565275, Note_on_c, 1, 39, 0
3, 565275, End_track
4, 0, Start_track
4, 0, Title_t, "Drum hits"
4, 0, Program_c, 9, 32
4, 0, Control_c, 9, 7, 72
4, 962, Note_on_c, 9, 44, 22
4, 1215, Note_on_c, 9, 44, 0
4, 6700, Note_on_c, 9, 44, 23
4, 7087, Note_on_c, 9, 44, 0
4, 7682, Note_on_c, 9, 44, 18
4, 7976, Note_on_c, 9, 44, 0
4, 12481, Note_on_c, 9, 44, 41
4, 12926, Note_on_c, 9, 44, 0
4, 17068, Note_on_c, 9, 36, 14
4, 17203, Note_on_c, 9, 36, 0
4, 17343, Note_on_c, 9, 36, 22
4, 18032, Note_on_c, 9, 36, 0
4, 18284, Note_on_c, 9, 44, 30
4, 18487, Note_on_c, 9, 44, 0
4, 19289, Note_on_c, 9, 46, 23
4, 20916, Note_on_c, 9, 46, 0
4, 22602, Note_on_c, 9, 36, 22
4, 22816, Note_on_c, 9, 36, 0
4, 22970, Note_on_c, 9, 49, 12
4, 23476, Note_on_c, 9, 49, 0
4, 23937, Note_on_c, 9, 44, 22
4, 24261, Note_on_c, 9, 44, 0
4, 24919, Note_on_c, 9, 44, 22
4, 25297, Note_on_c, 9, 44, 0
4, 26901, Note_on_c, 9, 46, 27
4, 28267, Note_on_c, 9, 46, 0
4, 29856, Note_on_c, 9, 44, 21
4, 30076, Note_on_c, 9, 44, 0
4, 32320, Note_on_c, 9, 38, 29
4, 32522, Note_on_c, 9, 38, 0
4, 32627, Note_on_c, 9, 46, 20
4, 32687, Note_on_c, 9, 38, 22
4, 32950, Note_on_c, 9, 38, 0
4, 33275, Note_on_c, 9, 36, 34
4, 33373, Note_on_c, 9, 36, 0
4, 34461, Note_on_c, 9, 46, 0
4, 35515, Note_on_c, 9, 44, 20
4, 35757, Note_on_c, 9, 44, 0
4, 38435, Note_on_c, 9, 44, 28
4, 38716, Note_on_c, 9, 44, 0
4, 40000, Note_on_c, 9, 36, 26
4, 40145, Note_on_c, 9, 36, 0
4, 41275, Note_on_c, 9, 44, 22
4, 41452, Note_on_c, 9, 44, 0
4, 42296, Note_on_c, 9, 46, 17
4, 44059, Note_on_c, 9, 46, 0
4, 46104, Note_on_c, 9, 36, 26
4, 46106, Note_on_c, 9, 49, 22
4, 46967, Note_on_c, 9, 44, 26
4, 46989, Note_on_c, 9, 49, 0
4, 47142, Note_on_c, 9, 44, 0
4, 47623, Note_on_c, 9, 36, 0
4, 49856, Note_on_c, 9, 44, 25
4, 50129, Note_on_c, 9, 44, 0
4, 52811, Note_on_c, 9, 44, 21
4, 52967, Note_on_c, 9, 44, 0
4, 53828, Note_on_c, 9, 46, 21
4, 54714, Note_on_c, 9, 46, 0
4, 55680, Note_on_c, 9, 44, 17
4, 55873, Note_on_c, 9, 44, 0
4, 57252, Note_on_c, 9, 38, 38
4, 57391, Note_on_c, 9, 38, 0
4, 57626, Note_on_c, 9, 36, 20
4, 57979, Note_on_c, 9, 36, 0
4, 58202, Note_on_c, 9, 36, 23
4, 58449, Note_on_c, 9, 36, 0
4, 58563, Note_on_c, 9, 44, 18
4, 58722, Note_on_c, 9, 44, 0
4, 61030, Note_on_c, 9, 44, 22
4, 61251, Note_on_c, 9, 44, 0
4, 61365, Note_on_c, 9, 44, 23
4, 61535, Note_on_c, 9, 44, 0
4, 62444, Note_on_c, 9, 46, 30
4, 63013, Note_on_c, 9, 38, 19
4, 63145, Note_on_c, 9, 38, 0
4, 63468, Note_on_c, 9, 46, 0
4, 64337, Note_on_c, 9, 44, 22
4, 64578, Note_on_c, 9, 44, 0
4, 67847, Note_on_c, 9, 38, 17
4, 68002, Note_on_c, 9, 38, 0
4, 68174, Note_on_c, 9, 46, 26
4, 68222, Note_on_c, 9, 47, 36
4, 68346, Note_on_c, 9, 47, 0
4, 68484, Note_on_c, 9, 45, 31
4, 68544, Note_on_c, 9, 45, 0
4, 68869, Note_on_c, 9, 46, 0
4, 68898, Note_on_c, 9, 36, 15
4, 68972, Note_on_c, 9, 36, 0
4, 69225, Note_on_c, 9, 36, 15
4, 69491, Note_on_c, 9, 36, 0
4, 69820, Note_on_c, 9, 36, 20
4, 69962, Note_on_c, 9, 36, 0
4, 70046, Note_on_c, 9, 44, 23
4, 70352, Note_on_c, 9, 44, 0
4, 72933, Note_on_c, 9, 44, 22
4, 73309, Note_on_c, 9, 44, 0
4, 75819, Note_on_c, 9, 44, 22
4, 76345, Note_on_c, 9, 44, 0
4, 76884, Note_on_c, 9, 44, 15
4, 77260, Note_on_c, 9, 44, 0
4, 78750, Note_on_c, 9, 46, 25
4, 79281, Note_on_c, 9, 46, 0
4, 81515, Note_on_c, 9, 44, 29
4, 81673, Note_on_c, 9, 44, 0
4, 84478, Note_on_c, 9, 44, 26
4, 84676, Note_on_c, 9, 44, 0
4, 87292, Note_on_c, 9, 44, 26
4, 87452, Note_on_c, 9, 44, 0
4, 88374, Note_on_c, 9, 46, 19
4, 88987, Note_on_c, 9, 45, 29
4, 89043, Note_on_c, 9, 45, 0
4, 89336, Note_on_c, 9, 46, 0
4, 89903, Note_on_c, 9, 45, 33
4, 89972, Note_on_c, 9, 45, 0
4, 90176, Note_on_c, 9, 44, 18
4, 90364, Note_on_c, 9, 44, 0
4, 90871, Note_on_c, 9, 38, 30
4, 90927, Note_on_c, 9, 38, 0
4, 91223, Note_on_c, 9, 43, 23
4, 91354, Note_on_c, 9, 43, 0
4, 91764, Note_on_c, 9, 38, 29
4, 91912, Note_on_c, 9, 38, 0
4, 92138, Note_on_c, 9, 49, 29
4, 92145, Note_on_c, 9, 36, 20
4, 92310, Note_on_c, 9, 36, 0
4, 93121, Note_on_c, 9, 44, 25
4, 93136, Note_on_c, 9, 49, 0
4, 93256, Note_on_c, 9, 44, 0
4, 94064, Note_on_c, 9, 46, 19
4, 94860, Note_on_c, 9, 46, 0
4, 95934, Note_on_c, 9, 44, 23
4, 96172, Note_on_c, 9, 44, 0
4, 96940, Note_on_c, 9, 44, 20
4, 97166, Note_on_c, 9, 44, 0
4, 98857, Note_on_c, 9, 44, 29
4, 99122, Note_on_c, 9, 44, 0
4, 101384, Note_on_c, 9, 44, 19
4, 101571, Note_on_c, 9, 44, 0
4, 101722, Note_on_c, 9, 44, 31
4, 102270, Note_on_c, 9, 44, 0
4, 102361, Note_on_c, 9, 36, 15
4, 102534, Note_on_c, 9, 36, 0
4, 106639, Note_on_c, 9, 36, 17
4, 106861, Note_on_c, 9, 36, 0
4, 107288, Note_on_c, 9, 36, 16
4, 107368, Note_on_c, 9, 36, 0
4, 107496, Note_on_c, 9, 44, 27
4, 107652, Note_on_c, 9, 44, 0
4, 108474, Note_on_c, 9, 46, 22
4, 109824, Note_on_c, 9, 46, 0
4, 110407, Note_on_c, 9, 36, 13
4, 110518, Note_on_c, 9, 36, 0
4, 111082, Note_on_c, 9, 36, 18
4, 111234, Note_on_c, 9, 36, 0
4, 113251, Note_on_c, 9, 44, 20
4, 113285, Note_on_c, 9, 45, 16
4, 113411, Note_on_c, 9, 45, 0
4, 113477, Note_on_c, 9, 44, 0
4, 113579, Note_on_c, 9, 45, 32
4, 113662, Note_on_c, 9, 45, 0
4, 114216, Note_on_c, 9, 45, 30
4, 114365, Note_on_c, 9, 45, 0
4, 114595, Note_on_c, 9, 47, 31
4, 114664, Note_on_c, 9, 47, 0
4, 114865, Note_on_c, 9, 36, 34
4, 115019, Note_on_c, 9, 36, 0
4, 115205, Note_on_c, 9, 49, 37
4, 116114, Note_on_c, 9, 44, 22
4, 116276, Note_on_c, 9, 49, 0
4, 116364, Note_on_c, 9, 44, 0
4, 119071, Note_on_c, 9, 46, 19
4, 119282, Note_on_c, 9, 46, 0
4, 121891, Note_on_c, 9, 44, 18
4, 122210, Note_on_c, 9, 44, 0
4, 124767, Note_on_c, 9, 44, 25
4, 125207, Note_on_c, 9, 44, 0
4, 125451, Note_on_c, 9, 36, 22
4, 125603, Note_on_c, 9, 36, 0
4, 125786, Note_on_c, 9, 36, 21
4, 126068, Note_on_c, 9, 36, 0
4, 126767, Note_on_c, 9, 36, 14
4, 126957, Note_on_c, 9, 36, 0
4, 127372, Note_on_c, 9, 36, 21
4, 127482, Note_on_c, 9, 36, 0
4, 127612, Note_on_c, 9, 44, 28
4, 127780, Note_on_c, 9, 44, 0
4, 130559, Note_on_c, 9, 44, 23
4, 130692, Note_on_c, 9, 44, 0
4, 131592, Note_on_c, 9, 46, 20
4, 132547, Note_on_c, 9, 46, 0
4, 133452, Note_on_c, 9, 44, 20
4, 133688, Note_on_c, 9, 44, 0
4, 134137, Note_on_c, 9, 47, 14
4, 134193, Note_on_c, 9, 47, 0
4, 135066, Note_on_c, 9, 47, 24
4, 135131, Note_on_c, 9, 47, 0
4, 136008, Note_on_c, 9, 45, 18
4, 136080, Note_on_c, 9, 45, 0
4, 136317, Note_on_c, 9, 44, 29
4, 136538, Note_on_c, 9, 44, 0
4, 136958, Note_on_c, 9, 43, 19
4, 137035, Note_on_c, 9, 43, 0
4, 137945, Note_on_c, 9, 36, 19
4, 138036, Note_on_c, 9, 36, 0
4, 138236, Note_on_c, 9, 36, 30
4, 138250, Note_on_c, 9, 49, 26
4, 139171, Note_on_c, 9, 44, 25
4, 139314, Note_on_c, 9, 44, 0
4, 140196, Note_on_c, 9, 46, 30
4, 140236, Note_on_c, 9, 49, 0
4, 140774, Note_on_c, 9, 36, 0
4, 141571, Note_on_c, 9, 46, 0
4, 144895, Note_on_c, 9, 44, 26
4, 145072, Note_on_c, 9, 44, 0
4, 145913, Note_on_c, 9, 44, 20
4, 146122, Note_on_c, 9, 44, 0
4, 147787, Note_on_c, 9, 44, 17
4, 147981, Note_on_c, 9, 44, 0
4, 148471, Note_on_c, 9, 43, 13
4, 148562, Note_on_c, 9, 43, 0
4, 148740, Note_on_c, 9, 46, 17
4, 148814, Note_on_c, 9, 43, 14
4, 148998, Note_on_c, 9, 46, 0
4, 149297, Note_on_c, 9, 43, 0
4, 149433, Note_on_c, 9, 36, 13
4, 149596, Note_on_c, 9, 36, 0
4, 150666, Note_on_c, 9, 44, 29
4, 150866, Note_on_c, 9, 44, 0
4, 152320, Note_on_c, 9, 36, 29
4, 152454, Note_on_c, 9, 36, 0
4, 153595, Note_on_c, 9, 44, 30
4, 153852, Note_on_c, 9, 44, 0
4, 153901, Note_on_c, 9, 38, 22
4, 154037, Note_on_c, 9, 38, 0
4, 154250, Note_on_c, 9, 38, 25
4, 154407, Note_on_c, 9, 38, 0
4, 154623, Note_on_c, 9, 36, 19
4, 154696, Note_on_c, 9, 36, 0
4, 154886, Note_on_c, 9, 38, 26
4, 155037, Note_on_c, 9, 38, 0
4, 155183, Note_on_c, 9, 38, 37
4, 155343, Note_on_c, 9, 38, 0
4, 155577, Note_on_c, 9, 36, 18
4, 155697, Note_on_c, 9, 36, 0
4, 156425, Note_on_c, 9, 44, 31
4, 156576, Note_on_c, 9, 44, 0
4, 159022, Note_on_c, 9, 45, 34
4, 159171, Note_on_c, 9, 45, 0
4, 159378, Note_on_c, 9, 44, 19
4, 159517, Note_on_c, 9, 44, 0
4, 159675, Note_on_c, 9, 45, 30
4, 159781, Note_on_c, 9, 45, 0
4, 160019, Note_on_c, 9, 45, 30
4, 160145, Note_on_c, 9, 45, 0
4, 160345, Note_on_c, 9, 46, 16
4, 160697, Note_on_c, 9, 45, 35
4, 160762, Note_on_c, 9, 45, 0
4, 161399, Note_on_c, 9, 46, 0
4, 161419, Note_on_c, 9, 36, 22
4, 161577, Note_on_c, 9, 36, 0
4, 165154, Note_on_c, 9, 44, 17
4, 165390, Note_on_c, 9, 44, 0
4, 168668, Note_on_c, 9, 36, 18
4, 168747, Note_on_c, 9, 36, 0
4, 169034, Note_on_c, 9, 46, 21
4, 169896, Note_on_c, 9, 46, 0
4, 170833, Note_on_c, 9, 44, 19
4, 170998, Note_on_c, 9, 44, 0
4, 172396, Note_on_c, 9, 51, 37
4, 172466, Note_on_c, 9, 36, 14
4, 172567, Note_on_c, 9, 36, 0
4, 172615, Note_on_c, 9, 51, 0
4, 172832, Note_on_c, 9, 51, 22
4, 173195, Note_on_c, 9, 51, 0
4, 176310, Note_on_c, 9, 36, 22
4, 176398, Note_on_c, 9, 36, 0
4, 176578, Note_on_c, 9, 44, 25
4, 176942, Note_on_c, 9, 44, 0
4, 177538, Note_on_c, 9, 44, 20
4, 177985, Note_on_c, 9, 44, 0
4, 179545, Note_on_c, 9, 44, 20
4, 179771, Note_on_c, 9, 44, 0
4, 181154, Note_on_c, 9, 36, 20
4, 181250, Note_on_c, 9, 36, 0
4, 182427, Note_on_c, 9, 44, 36
4, 182877, Note_on_c, 9, 44, 0
4, 185335, Note_on_c, 9, 46, 20
4, 186805, Note_on_c, 9, 46, 0
4, 187263, Note_on_c, 9, 45, 19
4, 187333, Note_on_c, 9, 45, 0
4, 187750, Note_on_c, 9, 45, 32
4, 187814, Note_on_c, 9, 45, 0
4, 188128, Note_on_c, 9, 44, 29
4, 188137, Note_on_c, 9, 45, 40
4, 188261, Note_on_c, 9, 45, 0
4, 188400, Note_on_c, 9, 43, 17
4, 188464, Note_on_c, 9, 43, 0
4, 188739, Note_on_c, 9, 44, 0
4, 190136, Note_on_c, 9, 36, 17
4, 190568, Note_on_c, 9, 36, 0
4, 190764, Note_on_c, 9, 36, 17
4, 190868, Note_on_c, 9, 36, 0
4, 190955, Note_on_c, 9, 44, 19
4, 191144, Note_on_c, 9, 44, 0
4, 191982, Note_on_c, 9, 44, 30
4, 192759, Note_on_c, 9, 44, 0
4, 193835, Note_on_c, 9, 46, 18
4, 195067, Note_on_c, 9, 46, 0
4, 196444, Note_on_c, 9, 44, 13
4, 196567, Note_on_c, 9, 44, 0
4, 196817, Note_on_c, 9, 44, 19
4, 197340, Note_on_c, 9, 44, 0
4, 198343, Note_on_c, 9, 45, 14
4, 198396, Note_on_c, 9, 45, 0
4, 199324, Note_on_c, 9, 45, 22
4, 199389, Note_on_c, 9, 45, 0
4, 199668, Note_on_c, 9, 46, 28
4, 200003, Note_on_c, 9, 46, 0
4, 200308, Note_on_c, 9, 45, 14
4, 200442, Note_on_c, 9, 45, 0
4, 202218, Note_on_c, 9, 36, 14
4, 202340, Note_on_c, 9, 36, 0
4, 202534, Note_on_c, 9, 44, 38
4, 202735, Note_on_c, 9, 44, 0
4, 204495, Note_on_c, 9, 45, 11
4, 204574, Note_on_c, 9, 45, 0
4, 205010, Note_on_c, 9, 36, 27
4, 205127, Note_on_c, 9, 36, 0
4, 205390, Note_on_c, 9, 44, 31
4, 205560, Note_on_c, 9, 44, 0
4, 205998, Note_on_c, 9, 36, 20
4, 206203, Note_on_c, 9, 36, 0
4, 206336, Note_on_c, 9, 46, 29
4, 207054, Note_on_c, 9, 36, 20
4, 207159, Note_on_c, 9, 36, 0
4, 207173, Note_on_c, 9, 46, 0
4, 207419, Note_on_c, 9, 36, 11
4, 207632, Note_on_c, 9, 36, 0
4, 208359, Note_on_c, 9, 44, 23
4, 208380, Note_on_c, 9, 45, 20
4, 208551, Note_on_c, 9, 45, 0
4, 208591, Note_on_c, 9, 44, 0
4, 211179, Note_on_c, 9, 44, 23
4, 211379, Note_on_c, 9, 44, 0
4, 212132, Note_on_c, 9, 44, 31
4, 212480, Note_on_c, 9, 44, 0
4, 212841, Note_on_c, 9, 36, 7
4, 212969, Note_on_c, 9, 36, 0
4, 213141, Note_on_c, 9, 36, 24
4, 213425, Note_on_c, 9, 36, 0
4, 214088, Note_on_c, 9, 44, 25
4, 214268, Note_on_c, 9, 44, 0
4, 215073, Note_on_c, 9, 46, 25
4, 216063, Note_on_c, 9, 46, 0
4, 216930, Note_on_c, 9, 44, 25
4, 217508, Note_on_c, 9, 44, 0
4, 219518, Note_on_c, 9, 36, 25
4, 219670, Note_on_c, 9, 36, 0
4, 219849, Note_on_c, 9, 44, 29
4, 220066, Note_on_c, 9, 44, 0
4, 221437, Note_on_c, 9, 36, 34
4, 221625, Note_on_c, 9, 36, 0
4, 222665, Note_on_c, 9, 44, 31
4, 222794, Note_on_c, 9, 44, 0
4, 223644, Note_on_c, 9, 46, 29
4, 224365, Note_on_c, 9, 36, 16
4, 224527, Note_on_c, 9, 36, 0
4, 224619, Note_on_c, 9, 46, 0
4, 224974, Note_on_c, 9, 45, 25
4, 225047, Note_on_c, 9, 45, 0
4, 225302, Note_on_c, 9, 45, 33
4, 225476, Note_on_c, 9, 45, 0
4, 225611, Note_on_c, 9, 44, 30
4, 226574, Note_on_c, 9, 43, 17
4, 226686, Note_on_c, 9, 44, 0
4, 226711, Note_on_c, 9, 43, 0
4, 226862, Note_on_c, 9, 43, 19
4, 227004, Note_on_c, 9, 43, 0
4, 227571, Note_on_c, 9, 36, 25
4, 227757, Note_on_c, 9, 36, 0
4, 228205, Note_on_c, 9, 45, 43
4, 228499, Note_on_c, 9, 44, 28
4, 228629, Note_on_c, 9, 44, 0
4, 228721, Note_on_c, 9, 45, 0
4, 228893, Note_on_c, 9, 43, 27
4, 228976, Note_on_c, 9, 43, 0
4, 229413, Note_on_c, 9, 46, 31
4, 229525, Note_on_c, 9, 45, 38
4, 229685, Note_on_c, 9, 45, 0
4, 230123, Note_on_c, 9, 36, 41
4, 230253, Note_on_c, 9, 36, 0
4, 230293, Note_on_c, 9, 46, 0
4, 230470, Note_on_c, 9, 49, 35
4, 230486, Note_on_c, 9, 36, 25
4, 231407, Note_on_c, 9, 44, 41
4, 231967, Note_on_c, 9, 49, 0
4, 232566, Note_on_c, 9, 36, 0
4, 233490, Note_on_c, 9, 44, 0
4, 234268, Note_on_c, 9, 44, 46
4, 236138, Note_on_c, 9, 44, 0
4, 237102, Note_on_c, 9, 44, 23
4, 237259, Note_on_c, 9, 44, 0
4, 237768, Note_on_c, 9, 36, 16
4, 237868, Note_on_c, 9, 36, 0
4, 239056, Note_on_c, 9, 36, 13
4, 239214, Note_on_c, 9, 36, 0
4, 239678, Note_on_c, 9, 36, 14
4, 239785, Note_on_c, 9, 36, 0
4, 239973, Note_on_c, 9, 46, 19
4, 240181, Note_on_c, 9, 46, 0
4, 242840, Note_on_c, 9, 44, 23
4, 243033, Note_on_c, 9, 44, 0
4, 243837, Note_on_c, 9, 46, 22
4, 244964, Note_on_c, 9, 46, 0
4, 245719, Note_on_c, 9, 44, 22
4, 246133, Note_on_c, 9, 44, 0
4, 248295, Note_on_c, 9, 45, 20
4, 248396, Note_on_c, 9, 45, 0
4, 248609, Note_on_c, 9, 36, 10
4, 248638, Note_on_c, 9, 44, 25
4, 248750, Note_on_c, 9, 36, 0
4, 248863, Note_on_c, 9, 44, 0
4, 249606, Note_on_c, 9, 44, 18
4, 249651, Note_on_c, 9, 45, 22
4, 249961, Note_on_c, 9, 44, 0
4, 249983, Note_on_c, 9, 45, 0
4, 251141, Note_on_c, 9, 36, 19
4, 251271, Note_on_c, 9, 36, 0
4, 251496, Note_on_c, 9, 36, 21
4, 251546, Note_on_c, 9, 44, 19
4, 251760, Note_on_c, 9, 44, 0
4, 251761, Note_on_c, 9, 36, 0
4, 252101, Note_on_c, 9, 36, 19
4, 252207, Note_on_c, 9, 36, 0
4, 254420, Note_on_c, 9, 44, 22
4, 254596, Note_on_c, 9, 44, 0
4, 256941, Note_on_c, 9, 44, 16
4, 257084, Note_on_c, 9, 44, 0
4, 257255, Note_on_c, 9, 44, 15
4, 257839, Note_on_c, 9, 44, 0
4, 258250, Note_on_c, 9, 46, 22
4, 259381, Note_on_c, 9, 46, 0
4, 260808, Note_on_c, 9, 45, 22
4, 260926, Note_on_c, 9, 45, 0
4, 261189, Note_on_c, 9, 36, 11
4, 261217, Note_on_c, 9, 44, 21
4, 261324, Note_on_c, 9, 36, 0
4, 261387, Note_on_c, 9, 44, 0
4, 261753, Note_on_c, 9, 36, 18
4, 261842, Note_on_c, 9, 36, 0
4, 263011, Note_on_c, 9, 44, 27
4, 263190, Note_on_c, 9, 44, 0
4, 264615, Note_on_c, 9, 36, 22
4, 264724, Note_on_c, 9, 36, 0
4, 264964, Note_on_c, 9, 36, 22
4, 265242, Note_on_c, 9, 36, 0
4, 265918, Note_on_c, 9, 44, 26
4, 266058, Note_on_c, 9, 44, 0
4, 266882, Note_on_c, 9, 46, 20
4, 267746, Note_on_c, 9, 46, 0
4, 268790, Note_on_c, 9, 44, 19
4, 268965, Note_on_c, 9, 44, 0
4, 269881, Note_on_c, 9, 36, 17
4, 270015, Note_on_c, 9, 36, 0
4, 270455, Note_on_c, 9, 36, 19
4, 270538, Note_on_c, 9, 36, 0
4, 270776, Note_on_c, 9, 49, 20
4, 271695, Note_on_c, 9, 44, 25
4, 271856, Note_on_c, 9, 44, 0
4, 272471, Note_on_c, 9, 49, 0
4, 272664, Note_on_c, 9, 46, 20
4, 272889, Note_on_c, 9, 46, 0
4, 274562, Note_on_c, 9, 44, 22
4, 274815, Note_on_c, 9, 44, 0
4, 280300, Note_on_c, 9, 44, 23
4, 280687, Note_on_c, 9, 44, 0
4, 281282, Note_on_c, 9, 44, 18
4, 281576, Note_on_c, 9, 44, 0
4, 286081, Note_on_c, 9, 44, 41
4, 286526, Note_on_c, 9, 44, 0
4, 290668, Note_on_c, 9, 36, 14
4, 290803, Note_on_c, 9, 36, 0
4, 290943, Note_on_c, 9, 36, 22
4, 291632, Note_on_c, 9, 36, 0
4, 291884, Note_on_c, 9, 44, 30
4, 292087, Note_on_c, 9, 44, 0
4, 292889, Note_on_c, 9, 46, 23
4, 294516, Note_on_c, 9, 46, 0
4, 296202, Note_on_c, 9, 36, 22
4, 296416, Note_on_c, 9, 36, 0
4, 296570, Note_on_c, 9, 49, 12
4, 297076, Note_on_c, 9, 49, 0
4, 297537, Note_on_c, 9, 44, 22
4, 297861, Note_on_c, 9, 44, 0
4, 298519, Note_on_c, 9, 44, 22
4, 298897, Note_on_c, 9, 44, 0
4, 300501, Note_on_c, 9, 46, 27
4, 301867, Note_on_c, 9, 46, 0
4, 303456, Note_on_c, 9, 44, 21
4, 303676, Note_on_c, 9, 44, 0
4, 305920, Note_on_c, 9, 38, 29
4, 306122, Note_on_c, 9, 38, 0
4, 306227, Note_on_c, 9, 46, 20
4, 306287, Note_on_c, 9, 38, 22
4, 306550, Note_on_c, 9, 38, 0
4, 306875, Note_on_c, 9, 36, 34
4, 306973, Note_on_c, 9, 36, 0
4, 308061, Note_on_c, 9, 46, 0
4, 309115, Note_on_c, 9, 44, 20
4, 309357, Note_on_c, 9, 44, 0
4, 312035, Note_on_c, 9, 44, 28
4, 312316, Note_on_c, 9, 44, 0
4, 313600, Note_on_c, 9, 36, 26
4, 313745, Note_on_c, 9, 36, 0
4, 314875, Note_on_c, 9, 44, 22
4, 315052, Note_on_c, 9, 44, 0
4, 315896, Note_on_c, 9, 46, 17
4, 317659, Note_on_c, 9, 46, 0
4, 319704, Note_on_c, 9, 36, 26
4, 319706, Note_on_c, 9, 49, 22
4, 320567, Note_on_c, 9, 44, 26
4, 320589, Note_on_c, 9, 49, 0
4, 320742, Note_on_c, 9, 44, 0
4, 321223, Note_on_c, 9, 36, 0
4, 323456, Note_on_c, 9, 44, 25
4, 323729, Note_on_c, 9, 44, 0
4, 326411, Note_on_c, 9, 44, 21
4, 326567, Note_on_c, 9, 44, 0
4, 327428, Note_on_c, 9, 46, 21
4, 328314, Note_on_c, 9, 46, 0
4, 329280, Note_on_c, 9, 44, 17
4, 329473, Note_on_c, 9, 44, 0
4, 330852, Note_on_c, 9, 38, 38
4, 330991, Note_on_c, 9, 38, 0
4, 331226, Note_on_c, 9, 36, 20
4, 331579, Note_on_c, 9, 36, 0
4, 331802, Note_on_c, 9, 36, 23
4, 332049, Note_on_c, 9, 36, 0
4, 332163, Note_on_c, 9, 44, 18
4, 332322, Note_on_c, 9, 44, 0
4, 334630, Note_on_c, 9, 44, 22
4, 334851, Note_on_c, 9, 44, 0
4, 334965, Note_on_c, 9, 44, 23
4, 335135, Note_on_c, 9, 44, 0
4, 336044, Note_on_c, 9, 46, 30
4, 336613, Note_on_c, 9, 38, 19
4, 336745, Note_on_c, 9, 38, 0
4, 337068, Note_on_c, 9, 46, 0
4, 337937, Note_on_c, 9, 44, 22
4, 338178, Note_on_c, 9, 44, 0
4, 341447, Note_on_c, 9, 38, 17
4, 341602, Note_on_c, 9, 38, 0
4, 341774, Note_on_c, 9, 46, 26
4, 341822, Note_on_c, 9, 47, 36
4, 341946, Note_on_c, 9, 47, 0
4, 342084, Note_on_c, 9, 45, 31
4, 342144, Note_on_c, 9, 45, 0
4, 342469, Note_on_c, 9, 46, 0
4, 342498, Note_on_c, 9, 36, 15
4, 342572, Note_on_c, 9, 36, 0
4, 342825, Note_on_c, 9, 36, 15
4, 343091, Note_on_c, 9, 36, 0
4, 343420, Note_on_c, 9, 36, 20
4, 343562, Note_on_c, 9, 36, 0
4, 343646, Note_on_c, 9, 44, 23
4, 343952, Note_on_c, 9, 44, 0
4, 346533, Note_on_c, 9, 44, 22
4, 346909, Note_on_c, 9, 44, 0
4, 349419, Note_on_c, 9, 44, 22
4, 349945, Note_on_c, 9, 44, 0
4, 350484, Note_on_c, 9, 44, 15
4, 350860, Note_on_c, 9, 44, 0
4, 352350, Note_on_c, 9, 46, 25
4, 352881, Note_on_c, 9, 46, 0
4, 355115, Note_on_c, 9, 44, 29
4, 355273, Note_on_c, 9, 44, 0
4, 358078, Note_on_c, 9, 44, 26
4, 358276, Note_on_c, 9, 44, 0
4, 360892, Note_on_c, 9, 44, 26
4, 361052, Note_on_c, 9, 44, 0
4, 361974, Note_on_c, 9, 46, 19
4, 362587, Note_on_c, 9, 45, 29
4, 362643, Note_on_c, 9, 45, 0
4, 362936, Note_on_c, 9, 46, 0
4, 363503, Note_on_c, 9, 45, 33
4, 363572, Note_on_c, 9, 45, 0
4, 363776, Note_on_c, 9, 44, 18
4, 363964, Note_on_c, 9, 44, 0
4, 364471, Note_on_c, 9, 38, 30
4, 364527, Note_on_c, 9, 38, 0
4, 364823, Note_on_c, 9, 43, 23
4, 364954, Note_on_c, 9, 43, 0
4, 365364, Note_on_c, 9, 38, 29
4, 365512, Note_on_c, 9, 38, 0
4, 365738, Note_on_c, 9, 49, 29
4, 365745, Note_on_c, 9, 36, 20
4, 365910, Note_on_c, 9, 36, 0
4, 366721, Note_on_c, 9, 44, 25
4, 366736, Note_on_c, 9, 49, 0
4, 366856, Note_on_c, 9, 44, 0
4, 367664, Note_on_c, 9, 46, 19
4, 368460, Note_on_c, 9, 46, 0
4, 369534, Note_on_c, 9, 44, 23
4, 369772, Note_on_c, 9, 44, 0
4, 370540, Note_on_c, 9, 44, 20
4, 370766, Note_on_c, 9, 44, 0
4, 372457, Note_on_c, 9, 44, 29
4, 372722, Note_on_c, 9, 44, 0
4, 374984, Note_on_c, 9, 44, 19
4, 375171, Note_on_c, 9, 44, 0
4, 375322, Note_on_c, 9, 44, 31
4, 375870, Note_on_c, 9, 44, 0
4, 375961, Note_on_c, 9, 36, 15
4, 376134, Note_on_c, 9, 36, 0
4, 380239, Note_on_c, 9, 36, 17
4, 380461, Note_on_c, 9, 36, 0
4, 380888, Note_on_c, 9, 36, 16
4, 380968, Note_on_c, 9, 36, 0
4, 381096, Note_on_c, 9, 44, 27
4, 381252, Note_on_c, 9, 44, 0
4, 382074, Note_on_c, 9, 46, 22
4, 383424, Note_on_c, 9, 46, 0
4, 384007, Note_on_c, 9, 36, 13
4, 384118, Note_on_c, 9, 36, 0
4, 384682, Note_on_c, 9, 36, 18
4, 384834, Note_on_c, 9, 36, 0
4, 386851, Note_on_c, 9, 44, 20
4, 386885, Note_on_c, 9, 45, 16
4, 387011, Note_on_c, 9, 45, 0
4, 387077, Note_on_c, 9, 44, 0
4, 387179, Note_on_c, 9, 45, 32
4, 387262, Note_on_c, 9, 45, 0
4, 387816, Note_on_c, 9, 45, 30
4, 387965, Note_on_c, 9, 45, 0
4, 388195, Note_on_c, 9, 47, 31
4, 388264, Note_on_c, 9, 47, 0
4, 388465, Note_on_c, 9, 36, 34
4, 388619, Note_on_c, 9, 36, 0
4, 388805, Note_on_c, 9, 49, 37
4, 389714, Note_on_c, 9, 44, 22
4, 389876, Note_on_c, 9, 49, 0
4, 389964, Note_on_c, 9, 44, 0
4, 392671, Note_on_c, 9, 46, 19
4, 392882, Note_on_c, 9, 46, 0
4, 395491, Note_on_c, 9, 44, 18
4, 395810, Note_on_c, 9, 44, 0
4, 398367, Note_on_c, 9, 44, 25
4, 398807, Note_on_c, 9, 44, 0
4, 399051, Note_on_c, 9, 36, 22
4, 399203, Note_on_c, 9, 36, 0
4, 399386, Note_on_c, 9, 36, 21
4, 399668, Note_on_c, 9, 36, 0
4, 400367, Note_on_c, 9, 36, 14
4, 400557, Note_on_c, 9, 36, 0
4, 400972, Note_on_c, 9, 36, 21
4, 401082, Note_on_c, 9, 36, 0
4, 401212, Note_on_c, 9, 44, 28
4, 401380, Note_on_c, 9, 44, 0
4, 404159, Note_on_c, 9, 44, 23
4, 404292, Note_on_c, 9, 44, 0
4, 405192, Note_on_c, 9, 46, 20
4, 406147, Note_on_c, 9, 46, 0
4, 407052, Note_on_c, 9, 44, 20
4, 407288, Note_on_c, 9, 44, 0
4, 407737, Note_on_c, 9, 47, 14
4, 407793, Note_on_c, 9, 47, 0
4, 408666, Note_on_c, 9, 47, 24
4, 408731, Note_on_c, 9, 47, 0
4, 409608, Note_on_c, 9, 45, 18
4, 409680, Note_on_c, 9, 45, 0
4, 409917, Note_on_c, 9, 44, 29
4, 410138, Note_on_c, 9, 44, 0
4, 410558, Note_on_c, 9, 43, 19
4, 410635, Note_on_c, 9, 43, 0
4, 411545, Note_on_c, 9, 36, 19
4, 411636, Note_on_c, 9, 36, 0
4, 411836, Note_on_c, 9, 36, 30
4, 411850, Note_on_c, 9, 49, 26
4, 412771, Note_on_c, 9, 44, 25
4, 412914, Note_on_c, 9, 44, 0
4, 413796, Note_on_c, 9, 46, 30
4, 413836, Note_on_c, 9, 49, 0
4, 414374, Note_on_c, 9, 36, 0
4, 415171, Note_on_c, 9, 46, 0
4, 418495, Note_on_c, 9, 44, 26
4, 418672, Note_on_c, 9, 44, 0
4, 419513, Note_on_c, 9, 44, 20
4, 419722, Note_on_c, 9, 44, 0
4, 421387, Note_on_c, 9, 44, 17
4, 421581, Note_on_c, 9, 44, 0
4, 422071, Note_on_c, 9, 43, 13
4, 422162, Note_on_c, 9, 43, 0
4, 422340, Note_on_c, 9, 46, 17
4, 422414, Note_on_c, 9, 43, 14
4, 422598, Note_on_c, 9, 46, 0
4, 422897, Note_on_c, 9, 43, 0
4, 423033, Note_on_c, 9, 36, 13
4, 423196, Note_on_c, 9, 36, 0
4, 424266, Note_on_c, 9, 44, 29
4, 424466, Note_on_c, 9, 44, 0
4, 425920, Note_on_c, 9, 36, 29
4, 426054, Note_on_c, 9, 36, 0
4, 427195, Note_on_c, 9, 44, 30
4, 427452, Note_on_c, 9, 44, 0
4, 427501, Note_on_c, 9, 38, 22
4, 427637, Note_on_c, 9, 38, 0
4, 427850, Note_on_c, 9, 38, 25
4, 428007, Note_on_c, 9, 38, 0
4, 428223, Note_on_c, 9, 36, 19
4, 428296, Note_on_c, 9, 36, 0
4, 428486, Note_on_c, 9, 38, 26
4, 428637, Note_on_c, 9, 38, 0
4, 428783, Note_on_c, 9, 38, 37
4, 428943, Note_on_c, 9, 38, 0
4, 429177, Note_on_c, 9, 36, 18
4, 429297, Note_on_c, 9, 36, 0
4, 430025, Note_on_c, 9, 44, 31
4, 430176, Note_on_c, 9, 44, 0
4, 432622, Note_on_c, 9, 45, 34
4, 432771, Note_on_c, 9, 45, 0
4, 432978, Note_on_c, 9, 44, 19
4, 433117, Note_on_c, 9, 44, 0
4, 433275, Note_on_c, 9, 45, 30
4, 433381, Note_on_c, 9, 45, 0
4, 433619, Note_on_c, 9, 45, 30
4, 433745, Note_on_c, 9, 45, 0
4, 433945, Note_on_c, 9, 46, 16
4, 434297, Note_on_c, 9, 45, 35
4, 434362, Note_on_c, 9, 45, 0
4, 434999, Note_on_c, 9, 46, 0
4, 435019, Note_on_c, 9, 36, 22
4, 435177, Note_on_c, 9, 36, 0
4, 438754, Note_on_c, 9, 44, 17
4, 438990, Note_on_c, 9, 44, 0
4, 442268, Note_on_c, 9, 36, 18
4, 442347, Note_on_c, 9, 36, 0
4, 442634, Note_on_c, 9, 46, 21
4, 443496, Note_on_c, 9, 46, 0
4, 444433, Note_on_c, 9, 44, 19
4, 444598, Note_on_c, 9, 44, 0
4, 445996, Note_on_c, 9, 51, 37
4, 446066, Note_on_c, 9, 36, 14
4, 446167, Note_on_c, 9, 36, 0
4, 446215, Note_on_c, 9, 51, 0
4, 446432, Note_on_c, 9, 51, 22
4, 446795, Note_on_c, 9, 51, 0
4, 449910, Note_on_c, 9, 36, 22
4, 449998, Note_on_c, 9, 36, 0
4, 450178, Note_on_c, 9, 44, 25
4, 450542, Note_on_c, 9, 44, 0
4, 451138, Note_on_c, 9, 44, 20
4, 451585, Note_on_c, 9, 44, 0
4, 453145, Note_on_c, 9, 44, 20
4, 453371, Note_on_c, 9, 44, 0
4, 454754, Note_on_c, 9, 36, 20
4, 454850, Note_on_c, 9, 36, 0
4, 456027, Note_on_c, 9, 44, 36
4, 456477, Note_on_c, 9, 44, 0
4, 458935, Note_on_c, 9, 46, 20
4, 460405, Note_on_c, 9, 46, 0
4, 460863, Note_on_c, 9, 45, 19
4, 460933, Note_on_c, 9, 45, 0
4, 461350, Note_on_c, 9, 45, 32
4, 461414, Note_on_c, 9, 45, 0
4, 461728, Note_on_c, 9, 44, 29
4, 461737, Note_on_c, 9, 45, 40
4, 461861, Note_on_c, 9, 45, 0
4, 462000, Note_on_c, 9, 43, 17
4, 462064, Note_on_c, 9, 43, 0
4, 462339, Note_on_c, 9, 44, 0
4, 463736, Note_on_c, 9, 36, 17
4, 464168, Note_on_c, 9, 36, 0
4, 464364, Note_on_c, 9, 36, 17
4, 464468, Note_on_c, 9, 36, 0
4, 464555, Note_on_c, 9, 44, 19
4, 464744, Note_on_c, 9, 44, 0
4, 465582, Note_on_c, 9, 44, 30
4, 466359, Note_on_c, 9, 44, 0
4, 467435, Note_on_c, 9, 46, 18
4, 468667, Note_on_c, 9, 46, 0
4, 470044, Note_on_c, 9, 44, 13
4, 470167, Note_on_c, 9, 44, 0
4, 470417, Note_on_c, 9, 44, 19
4, 470940, Note_on_c, 9, 44, 0
4, 471943, Note_on_c, 9, 45, 14
4, 471996, Note_on_c, 9, 45, 0
4, 472924, Note_on_c, 9, 45, 22
4, 472989, Note_on_c, 9, 45, 0
4, 473268, Note_on_c, 9, 46, 28
4, 473603, Note_on_c, 9, 46, 0
4, 473908, Note_on_c, 9, 45, 14
4, 474042, Note_on_c, 9, 45, 0
4, 475818, Note_on_c, 9, 36, 14
4, 475940, Note_on_c, 9, 36, 0
4, 476134, Note_on_c, 9, 44, 38
4, 476335, Note_on_c, 9, 44, 0
4, 478095, Note_on_c, 9, 45, 11
4, 478174, Note_on_c, 9, 45, 0
4, 478610, Note_on_c, 9, 36, 27
4, 478727, Note_on_c, 9, 36, 0
4, 478990, Note_on_c, 9, 44, 31
4, 479160, Note_on_c, 9, 44, 0
4, 479598, Note_on_c, 9, 36, 20
4, 479803, Note_on_c, 9, 36, 0
4, 479936, Note_on_c, 9, 46, 29
4, 480654, Note_on_c, 9, 36, 20
4, 480759, Note_on_c, 9, 36, 0
4, 480773, Note_on_c, 9, 46, 0
4, 481019, Note_on_c, 9, 36, 11
4, 481232, Note_on_c, 9, 36, 0
4, 481959, Note_on_c, 9, 44, 23
4, 481980, Note_on_c, 9, 45, 20
4, 482151, Note_on_c, 9, 45, 0
4, 482191, Note_on_c, 9, 44, 0
4, 484779, Note_on_c, 9, 44, 23
4, 484979, Note_on_c, 9, 44, 0
4, 485732, Note_on_c, 9, 44, 31
4, 486080, Note_on_c, 9, 44, 0
4, 486441, Note_on_c, 9, 36, 7
4, 486569, Note_on_c, 9, 36, 0
4, 486741, Note_on_c, 9, 36, 24
4, 487025, Note_on_c, 9, 36, 0
4, 487688, Note_on_c, 9, 44, 25
4, 487868, Note_on_c, 9, 44, 0
4, 488673, Note_on_c, 9, 46, 25
4, 489663, Note_on_c, 9, 46, 0
4, 490530, Note_on_c, 9, 44, 25
4, 491108, Note_on_c, 9, 44, 0
4, 493118, Note_on_c, 9, 36, 25
4, 493270, Note_on_c, 9, 36, 0
4, 493449, Note_on_c, 9, 44, 29
4, 493666, Note_on_c, 9, 44, 0
4, 495037, Note_on_c, 9, 36, 34
4, 495225, Note_on_c, 9, 36, 0
4, 496265, Note_on_c, 9, 44, 31
4, 496394, Note_on_c, 9, 44, 0
4, 497244, Note_on_c, 9, 46, 29
4, 497965, Note_on_c, 9, 36, 16
4, 498127, Note_on_c, 9, 36, 0
4, 498219, Note_on_c, 9, 46, 0
4, 498574, Note_on_c, 9, 45, 25
4, 498647, Note_on_c, 9, 45, 0
4, 498902, Note_on_c, 9, 45, 33
4, 499076, Note_on_c, 9, 45, 0
4, 499211, Note_on_c, 9, 44, 30
4, 500174, Note_on_c, 9, 43, 17
4, 500286, Note_on_c, 9, 44, 0
4, 500311, Note_on_c, 9, 43, 0
4, 500462, Note_on_c, 9, 43, 19
4, 500604, Note_on_c, 9, 43, 0
4, 501171, Note_on_c, 9, 36, 25
4, 501357, Note_on_c, 9, 36, 0
4, 501805, Note_on_c, 9, 45, 43
4, 502099, Note_on_c, 9, 44, 28
4, 502229, Note_on_c, 9, 44, 0
4, 502321, Note_on_c, 9, 45, 0
4, 502493, Note_on_c, 9, 43, 27
4, 502576, Note_on_c, 9, 43, 0
4, 503013, Note_on_c, 9, 46, 31
4, 503125, Note_on_c, 9, 45, 38
4, 503285, Note_on_c, 9, 45, 0
4, 503723, Note_on_c, 9, 36, 41
4, 503853, Note_on_c, 9, 36, 0
4, 503893, Note_on_c, 9, 46, 0
4, 504070, Note_on_c, 9, 49, 35
4, 504086, Note_on_c, 9, 36, 25
4, 505007, Note_on_c, 9, 44, 41
4, 505567, Note_on_c, 9, 49, 0
4, 506166, Note_on_c, 9, 36, 0
4, 507090, Note_on_c, 9, 44, 0
4, 507868, Note_on_c, 9, 44, 46
4, 509738, Note_on_c, 9, 44, 0
4, 510702, Note_on_c, 9, 44, 23
4, 510859, Note_on_c, 9, 44, 0
4, 511368, Note_on_c, 9, 36, 16
4, 511468, Note_on_c, 9, 36, 0
4, 512656, Note_on_c, 9, 36, 13
4, 512814, Note_on_c, 9, 36, 0
4, 513278, Note_on_c, 9, 36, 14
4, 513385, Note_on_c, 9, 36, 0
4, 513573, Note_on_c, 9, 46, 19
4, 513781, Note_on_c, 9, 46, 0
4, 516440, Note_on_c, 9, 44, 23
4, 516633, Note_on_c, 9, 44, 0
4, 517437, Note_on_c, 9, 46, 22
4, 518564, Note_on_c, 9, 46, 0
4, 519319, Note_on_c, 9, 44, 22
4, 519733, Note_on_c, 9, 44, 0
4, 521895, Note_on_c, 9, 45, 20
4, 521996, Note_on_c, 9, 45, 0
4, 522209, Note_on_c, 9, 36, 10
4, 522238, Note_on_c, 9, 44, 25
4, 522350, Note_on_c, 9, 36, 0
4, 522463, Note_on_c, 9, 44, 0
4, 523206, Note_on_c, 9, 44, 18
4, 523251, Note_on_c, 9, 45, 22
4, 523561, Note_on_c, 9, 44, 0
4, 523583, Note_on_c, 9, 45, 0
4, 524741, Note_on_c, 9, 36, 19
4, 524871, Note_on_c, 9, 36, 0
4, 525096, Note_on_c, 9, 36, 21
4, 525146, Note_on_c, 9, 44, 19
4, 525360, Note_on_c, 9, 44, 0
4, 525361, Note_on_c, 9, 36, 0
4, 525701, Note_on_c, 9, 36, 19
4, 525807, Note_on_c, 9, 36, 0
4, 528020, Note_on_c, 9, 44, 22
4, 528196, Note_on_c, 9, 44, 0
4, 530541, Note_on_c, 9, 44, 16
4, 530684, Note_on_c, 9, 44, 0
4, 530855, Note_on_c, 9, 44, 15
4, 531439, Note_on_c, 9, 44, 0
4, 531850, Note_on_c, 9, 46, 22
4, 532981, Note_on_c, 9, 46, 0
4, 534408, Note_on_c, 9, 45, 22
4, 534526, Note_on_c, 9, 45, 0
4, 534789, Note_on_c, 9, 36, 11
4, 534817, Note_on_c, 9, 44, 21
4, 534924, Note_on_c, 9, 36, 0
4, 534987, Note_on_c, 9, 44, 0
4, 535353, Note_on_c, 9, 36, 18
4, 535442, Note_on_c, 9, 36, 0
4, 536611, Note_on_c, 9, 44, 27
4, 536790, Note_on_c, 9, 44, 0
4, 538215, Note_on_c, 9, 36, 22
4, 538324, Note_on_c, 9, 36, 0
4, 538564, Note_on_c, 9, 36, 22
4, 538842, Note_on_c, 9, 36, 0
4, 539518, Note_on_c, 9, 44, 26
4, 539658, Note_on_c, 9, 44, 0
4, 540482, Note_on_c, 9, 46, 20
4, 541346, Note_on_c, 9, 46, 0
4, 542390, Note_on_c, 9, 44, 19
4, 542565, Note_on_c, 9, 44, 0
4, 543481, Note_on_c, 9, 36, 17
4, 543615, Note_on_c, 9, 36, 0
4, 544055, Note_on_c, 9, 36, 19
4, 544138, Note_on_c, 9, 36, 0
4, 544376, Note_on_c, 9, 49, 20
4, 545295, Note_on_c, 9, 44, 25
4, 545456, Note_on_c, 9, 44, 0
4, 546071, Note_on_c, 9, 49, 0
4, 546264, Note_on_c, 9, 46, 20
4, 546489, Note_on_c, 9, 46, 0
4, 548206, Note_on_c, 9, 44, 25
4, 549305, Note_on_c, 9, 44, 0
4, 552525, Note_on_c, 9, 59, 42
4, 552742, Note_on_c, 9, 59, 0
4, 552945, Note_on_c, 9, 59, 36
4, 553438, Note_on_c, 9, 59, 0
4, 553874, Note_on_c, 9, 59, 32
4, 554955, Note_on_c, 9, 59, 0
4, 555978, Note_on_c, 9, 59, 27
4, 556251, Note_on_c, 9, 59, 0
4, 556943, Note_on_c, 9, 59, 28
4, 557337, Note_on_c, 9, 59, 0
4, 558563, Note_on_c, 9, 59, 19
4, 558757, Note_on_c, 9, 59, 0
4, 559185, Note_on_c, 9, 59, 29
4, 562595, Note_on_c, 9, 59, 0
4, 562595, End_track
5, 0, Start_track
5, 0, Title_t, "Track 5"
5, 0, Control_c, 9, 7, 80
5, 12, Note_on_c, 9, 59, 92
5, 367, Note_on_c, 9, 59, 0
5, 966, Note_on_c, 9, 59, 104
5, 1268, Note_on_c, 9, 59, 0
5, 1591, Note_on_c, 9, 59, 72
5, 1711, Note_on_c, 9, 59, 0
5, 1926, Note_on_c, 9, 59, 90
5, 2256, Note_on_c, 9, 59, 0
5, 2563, Note_on_c, 9, 59, 93
5, 2693, Note_on_c, 9, 59, 0
5, 2883, Note_on_c, 9, 59, 90
5, 3438, Note_on_c, 9, 59, 0
5, 3849, Note_on_c, 9, 59, 103
5, 4532, Note_on_c, 9, 59, 0
5, 4791, Note_on_c, 9, 59, 97
5, 5079, Note_on_c, 9, 59, 0
5, 5754, Note_on_c, 9, 59, 83
5, 6507, Note_on_c, 9, 59, 0
5, 6717, Note_on_c, 9, 59, 81
5, 7117, Note_on_c, 9, 59, 0
5, 7674, Note_on_c, 9, 59, 78
5, 7934, Note_on_c, 9, 59, 0
5, 8326, Note_on_c, 9, 59, 83
5, 8475, Note_on_c, 9, 59, 0
5, 8652, Note_on_c, 9, 59, 69
5, 9058, Note_on_c, 9, 59, 0
5, 9609, Note_on_c, 9, 59, 84
5, 10114, Note_on_c, 9, 59, 0
5, 11212, Note_on_c, 9, 59, 90
5, 11371, Note_on_c, 9, 59, 0
5, 11529, Note_on_c, 9, 59, 82
5, 11668, Note_on_c, 9, 59, 0
5, 12480, Note_on_c, 9, 59, 47
5, 12552, Note_on_c, 9, 59, 0
5, 12809, Note_on_c, 9, 59, 74
5, 12874, Note_on_c, 9, 59, 0
5, 13117, Note_on_c, 9, 59, 93
5, 13665, Note_on_c, 9, 59, 0
5, 13760, Note_on_c, 9, 59, 49
5, 13877, Note_on_c, 9, 59, 0
5, 14068, Note_on_c, 9, 59, 71
5, 14203, Note_on_c, 9, 59, 0
5, 14391, Note_on_c, 9, 59, 75
5, 14546, Note_on_c, 9, 59, 0
5, 14717, Note_on_c, 9, 53, 74
5, 14823, Note_on_c, 9, 53, 0
5, 15028, Note_on_c, 9, 59, 57
5, 15179, Note_on_c, 9, 59, 0
5, 15351, Note_on_c, 9, 59, 73
5, 16080, Note_on_c, 9, 59, 0
5, 16317, Note_on_c, 9, 59, 70
5, 16681, Note_on_c, 9, 59, 0
5, 16966, Note_on_c, 9, 59, 66
5, 17114, Note_on_c, 9, 59, 0
5, 17283, Note_on_c, 9, 59, 69
5, 17764, Note_on_c, 9, 59, 0
5, 18249, Note_on_c, 9, 59, 93
5, 18836, Note_on_c, 9, 59, 0
5, 19212, Note_on_c, 9, 59, 90
5, 20185, Note_on_c, 9, 59, 0
5, 20477, Note_on_c, 9, 59, 56
5, 20586, Note_on_c, 9, 59, 0
5, 20788, Note_on_c, 9, 59, 84
5, 21046, Note_on_c, 9, 59, 0
5, 21123, Note_on_c, 9, 59, 93
5, 21744, Note_on_c, 9, 59, 0
5, 22080, Note_on_c, 9, 59, 93
5, 22559, Note_on_c, 9, 59, 0
5, 23034, Note_on_c, 9, 59, 90
5, 23599, Note_on_c, 9, 59, 0
5, 24003, Note_on_c, 9, 59, 80
5, 24546, Note_on_c, 9, 59, 0
5, 25594, Note_on_c, 9, 59, 65
5, 25816, Note_on_c, 9, 59, 0
5, 25920, Note_on_c, 9, 59, 80
5, 26468, Note_on_c, 9, 59, 0
5, 26883, Note_on_c, 9, 59, 108
5, 27618, Note_on_c, 9, 59, 0
5, 28169, Note_on_c, 9, 59, 64
5, 28297, Note_on_c, 9, 59, 0
5, 28468, Note_on_c, 9, 59, 91
5, 28744, Note_on_c, 9, 59, 0
5, 28806, Note_on_c, 9, 59, 56
5, 29242, Note_on_c, 9, 59, 0
5, 29757, Note_on_c, 9, 59, 82
5, 30216, Note_on_c, 9, 59, 0
5, 30732, Note_on_c, 9, 59, 80
5, 30992, Note_on_c, 9, 59, 0
5, 32329, Note_on_c, 9, 59, 68
5, 32475, Note_on_c, 9, 59, 0
5, 32649, Note_on_c, 9, 59, 67
5, 33181, Note_on_c, 9, 59, 0
5, 33606, Note_on_c, 9, 59, 85
5, 33880, Note_on_c, 9, 59, 0
5, 34237, Note_on_c, 9, 59, 59
5, 34310, Note_on_c, 9, 59, 0
5, 34554, Note_on_c, 9, 59, 76
5, 34920, Note_on_c, 9, 59, 0
5, 35529, Note_on_c, 9, 59, 101
5, 35637, Note_on_c, 9, 59, 0
5, 36169, Note_on_c, 9, 59, 84
5, 36237, Note_on_c, 9, 59, 0
5, 36468, Note_on_c, 9, 59, 87
5, 36990, Note_on_c, 9, 59, 0
5, 37772, Note_on_c, 9, 59, 76
5, 37888, Note_on_c, 9, 59, 0
5, 38074, Note_on_c, 9, 59, 87
5, 38268, Note_on_c, 9, 59, 0
5, 38409, Note_on_c, 9, 59, 72
5, 38789, Note_on_c, 9, 59, 0
5, 39357, Note_on_c, 9, 59, 90
5, 39478, Note_on_c, 9, 59, 0
5, 40003, Note_on_c, 9, 59, 65
5, 40137, Note_on_c, 9, 59, 0
5, 40314, Note_on_c, 9, 59, 71
5, 40433, Note_on_c, 9, 59, 0
5, 40646, Note_on_c, 9, 53, 48
5, 41001, Note_on_c, 9, 53, 0
5, 41283, Note_on_c, 9, 53, 63
5, 41838, Note_on_c, 9, 53, 0
5, 41917, Note_on_c, 9, 59, 52
5, 42099, Note_on_c, 9, 59, 0
5, 42228, Note_on_c, 9, 59, 66
5, 42755, Note_on_c, 9, 59, 0
5, 42886, Note_on_c, 9, 53, 73
5, 43082, Note_on_c, 9, 53, 0
5, 43206, Note_on_c, 9, 59, 47
5, 43604, Note_on_c, 9, 59, 0
5, 43834, Note_on_c, 9, 53, 70
5, 44032, Note_on_c, 9, 53, 0
5, 44163, Note_on_c, 9, 59, 50
5, 44421, Note_on_c, 9, 59, 0
5, 44806, Note_on_c, 9, 53, 67
5, 44990, Note_on_c, 9, 53, 0
5, 45117, Note_on_c, 9, 59, 48
5, 45512, Note_on_c, 9, 59, 0
5, 45748, Note_on_c, 9, 53, 65
5, 45867, Note_on_c, 9, 53, 0
5, 46092, Note_on_c, 9, 59, 65
5, 46578, Note_on_c, 9, 59, 0
5, 47043, Note_on_c, 9, 59, 89
5, 47552, Note_on_c, 9, 59, 0
5, 47674, Note_on_c, 9, 59, 64
5, 47811, Note_on_c, 9, 59, 0
5, 47991, Note_on_c, 9, 59, 82
5, 48638, Note_on_c, 9, 59, 0
5, 48954, Note_on_c, 9, 59, 97
5, 49589, Note_on_c, 9, 59, 0
5, 49923, Note_on_c, 9, 59, 46
5, 49989, Note_on_c, 9, 59, 0
5, 50243, Note_on_c, 9, 59, 66
5, 50305, Note_on_c, 9, 59, 0
5, 50554, Note_on_c, 9, 59, 106
5, 51171, Note_on_c, 9, 59, 0
5, 51203, Note_on_c, 9, 59, 49
5, 51289, Note_on_c, 9, 59, 0
5, 51514, Note_on_c, 9, 59, 90
5, 51735, Note_on_c, 9, 59, 0
5, 51852, Note_on_c, 9, 59, 85
5, 52440, Note_on_c, 9, 59, 0
5, 52806, Note_on_c, 9, 59, 88
5, 53341, Note_on_c, 9, 59, 0
5, 53772, Note_on_c, 9, 59, 78
5, 54035, Note_on_c, 9, 59, 0
5, 54391, Note_on_c, 9, 59, 62
5, 54519, Note_on_c, 9, 59, 0
5, 54729, Note_on_c, 9, 59, 68
5, 55099, Note_on_c, 9, 59, 0
5, 55686, Note_on_c, 9, 59, 98
5, 55898, Note_on_c, 9, 59, 0
5, 57283, Note_on_c, 9, 59, 76
5, 57421, Note_on_c, 9, 59, 0
5, 57612, Note_on_c, 9, 59, 80
5, 58036, Note_on_c, 9, 59, 0
5, 58572, Note_on_c, 9, 59, 59
5, 58644, Note_on_c, 9, 59, 0
5, 58886, Note_on_c, 9, 59, 59
5, 58963, Note_on_c, 9, 59, 0
5, 59188, Note_on_c, 9, 59, 92
5, 59775, Note_on_c, 9, 59, 0
5, 59852, Note_on_c, 9, 59, 49
5, 59938, Note_on_c, 9, 59, 0
5, 60163, Note_on_c, 9, 59, 89
5, 60380, Note_on_c, 9, 59, 0
5, 60477, Note_on_c, 9, 59, 80
5, 61051, Note_on_c, 9, 59, 0
5, 61446, Note_on_c, 9, 59, 89
5, 61922, Note_on_c, 9, 59, 0
5, 62412, Note_on_c, 9, 59, 90
5, 62845, Note_on_c, 9, 59, 0
5, 63034, Note_on_c, 9, 59, 64
5, 63189, Note_on_c, 9, 59, 0
5, 63354, Note_on_c, 9, 59, 71
5, 63965, Note_on_c, 9, 59, 0
5, 64332, Note_on_c, 9, 59, 89
5, 64999, Note_on_c, 9, 59, 0
5, 65277, Note_on_c, 9, 59, 87
5, 65661, Note_on_c, 9, 59, 0
5, 65914, Note_on_c, 9, 59, 61
5, 66050, Note_on_c, 9, 59, 0
5, 66246, Note_on_c, 9, 59, 78
5, 66754, Note_on_c, 9, 59, 0
5, 67212, Note_on_c, 9, 59, 104
5, 67762, Note_on_c, 9, 59, 0
5, 67837, Note_on_c, 9, 59, 52
5, 67970, Note_on_c, 9, 59, 0
5, 68166, Note_on_c, 9, 59, 80
5, 68597, Note_on_c, 9, 59, 0
5, 68812, Note_on_c, 9, 59, 100
5, 68997, Note_on_c, 9, 59, 0
5, 69114, Note_on_c, 9, 59, 87
5, 69664, Note_on_c, 9, 59, 0
5, 70068, Note_on_c, 9, 59, 100
5, 70662, Note_on_c, 9, 59, 0
5, 71674, Note_on_c, 9, 59, 86
5, 71848, Note_on_c, 9, 59, 0
5, 71994, Note_on_c, 9, 59, 79
5, 72502, Note_on_c, 9, 59, 0
5, 72972, Note_on_c, 9, 59, 96
5, 73494, Note_on_c, 9, 59, 0
5, 73932, Note_on_c, 9, 59, 92
5, 74227, Note_on_c, 9, 59, 0
5, 74566, Note_on_c, 9, 59, 64
5, 74724, Note_on_c, 9, 59, 0
5, 74889, Note_on_c, 9, 59, 75
5, 75398, Note_on_c, 9, 59, 0
5, 75852, Note_on_c, 9, 59, 84
5, 76264, Note_on_c, 9, 59, 0
5, 76800, Note_on_c, 9, 59, 86
5, 76931, Note_on_c, 9, 59, 0
5, 77449, Note_on_c, 9, 59, 72
5, 77596, Note_on_c, 9, 59, 0
5, 77772, Note_on_c, 9, 59, 69
5, 78201, Note_on_c, 9, 59, 0
5, 78714, Note_on_c, 9, 59, 82
5, 79032, Note_on_c, 9, 59, 0
5, 79677, Note_on_c, 9, 59, 88
5, 79804, Note_on_c, 9, 59, 0
5, 80009, Note_on_c, 9, 59, 58
5, 80079, Note_on_c, 9, 59, 0
5, 80317, Note_on_c, 9, 59, 95
5, 80535, Note_on_c, 9, 59, 0
5, 80637, Note_on_c, 9, 59, 65
5, 81053, Note_on_c, 9, 59, 0
5, 81606, Note_on_c, 9, 59, 93
5, 82117, Note_on_c, 9, 59, 0
5, 83188, Note_on_c, 9, 59, 71
5, 83360, Note_on_c, 9, 59, 0
5, 83508, Note_on_c, 9, 59, 54
5, 83933, Note_on_c, 9, 59, 0
5, 84151, Note_on_c, 9, 59, 55
5, 84231, Note_on_c, 9, 59, 0
5, 84477, Note_on_c, 9, 59, 83
5, 85034, Note_on_c, 9, 59, 0
5, 85452, Note_on_c, 9, 59, 73
5, 85643, Note_on_c, 9, 59, 0
5, 85772, Note_on_c, 9, 53, 55
5, 85943, Note_on_c, 9, 53, 0
5, 86409, Note_on_c, 9, 59, 70
5, 86971, Note_on_c, 9, 59, 0
5, 87360, Note_on_c, 9, 59, 67
5, 87737, Note_on_c, 9, 59, 0
5, 87988, Note_on_c, 9, 59, 51
5, 88117, Note_on_c, 9, 59, 0
5, 88314, Note_on_c, 9, 59, 68
5, 88642, Note_on_c, 9, 59, 0
5, 88963, Note_on_c, 9, 59, 61
5, 89106, Note_on_c, 9, 59, 0
5, 89268, Note_on_c, 9, 59, 79
5, 89751, Note_on_c, 9, 59, 0
5, 90246, Note_on_c, 9, 59, 73
5, 90511, Note_on_c, 9, 59, 0
5, 90892, Note_on_c, 9, 59, 58
5, 91010, Note_on_c, 9, 59, 0
5, 91200, Note_on_c, 9, 59, 52
5, 91420, Note_on_c, 9, 59, 0
5, 91843, Note_on_c, 9, 53, 42
5, 91971, Note_on_c, 9, 53, 0
5, 92157, Note_on_c, 9, 59, 53
5, 92172, Note_on_c, 9, 49, 51
5, 92435, Note_on_c, 9, 49, 0
5, 92466, Note_on_c, 9, 59, 0
5, 93108, Note_on_c, 9, 59, 53
5, 93606, Note_on_c, 9, 59, 0
5, 94092, Note_on_c, 9, 59, 80
5, 94328, Note_on_c, 9, 59, 0
5, 94714, Note_on_c, 9, 59, 54
5, 94837, Note_on_c, 9, 59, 0
5, 95028, Note_on_c, 9, 59, 71
5, 95425, Note_on_c, 9, 59, 0
5, 96012, Note_on_c, 9, 59, 98
5, 96171, Note_on_c, 9, 59, 0
5, 96332, Note_on_c, 9, 59, 74
5, 96629, Note_on_c, 9, 59, 0
5, 96960, Note_on_c, 9, 59, 94
5, 97153, Note_on_c, 9, 59, 0
5, 97268, Note_on_c, 9, 59, 73
5, 97557, Note_on_c, 9, 59, 0
5, 97914, Note_on_c, 9, 59, 89
5, 98510, Note_on_c, 9, 59, 0
5, 98880, Note_on_c, 9, 59, 84
5, 99354, Note_on_c, 9, 59, 0
5, 99526, Note_on_c, 9, 59, 64
5, 99661, Note_on_c, 9, 59, 0
5, 99840, Note_on_c, 9, 59, 83
5, 100332, Note_on_c, 9, 59, 0
5, 100797, Note_on_c, 9, 59, 97
5, 101391, Note_on_c, 9, 59, 0
5, 101748, Note_on_c, 9, 59, 89
5, 102258, Note_on_c, 9, 59, 0
5, 102714, Note_on_c, 9, 59, 90
5, 103079, Note_on_c, 9, 59, 0
5, 103366, Note_on_c, 9, 59, 61
5, 103500, Note_on_c, 9, 59, 0
5, 103692, Note_on_c, 9, 59, 83
5, 104230, Note_on_c, 9, 59, 0
5, 104652, Note_on_c, 9, 59, 67
5, 104748, Note_on_c, 9, 59, 0
5, 104951, Note_on_c, 9, 59, 78
5, 105083, Note_on_c, 9, 59, 0
5, 105597, Note_on_c, 9, 59, 90
5, 106766, Note_on_c, 9, 59, 0
5, 107188, Note_on_c, 9, 59, 61
5, 107401, Note_on_c, 9, 59, 0
5, 107517, Note_on_c, 9, 59, 73
5, 107997, Note_on_c, 9, 59, 0
5, 108468, Note_on_c, 9, 59, 87
5, 109850, Note_on_c, 9, 59, 0
5, 110071, Note_on_c, 9, 59, 57
5, 110159, Note_on_c, 9, 59, 0
5, 110409, Note_on_c, 9, 59, 81
5, 110927, Note_on_c, 9, 59, 0
5, 111348, Note_on_c, 9, 59, 71
5, 111442, Note_on_c, 9, 59, 0
5, 111683, Note_on_c, 9, 59, 67
5, 111761, Note_on_c, 9, 59, 0
5, 111991, Note_on_c, 9, 59, 84
5, 112268, Note_on_c, 9, 59, 0
5, 112311, Note_on_c, 9, 59, 69
5, 112868, Note_on_c, 9, 59, 0
5, 113289, Note_on_c, 9, 59, 87
5, 113867, Note_on_c, 9, 59, 0
5, 114234, Note_on_c, 9, 59, 88
5, 114763, Note_on_c, 9, 59, 0
5, 115209, Note_on_c, 9, 59, 84
5, 115906, Note_on_c, 9, 59, 0
5, 116151, Note_on_c, 9, 59, 79
5, 116665, Note_on_c, 9, 59, 0
5, 116812, Note_on_c, 9, 59, 65
5, 116936, Note_on_c, 9, 59, 0
5, 117120, Note_on_c, 9, 59, 79
5, 117583, Note_on_c, 9, 59, 0
5, 117754, Note_on_c, 9, 59, 73
5, 117916, Note_on_c, 9, 59, 0
5, 118068, Note_on_c, 9, 59, 70
5, 118612, Note_on_c, 9, 59, 0
5, 119052, Note_on_c, 9, 59, 93
5, 119845, Note_on_c, 9, 59, 0
5, 120332, Note_on_c, 9, 59, 40
5, 120394, Note_on_c, 9, 59, 0
5, 120640, Note_on_c, 9, 59, 90
5, 120951, Note_on_c, 9, 59, 87
5, 121045, Note_on_c, 9, 59, 0
5, 121583, Note_on_c, 9, 59, 0
5, 121917, Note_on_c, 9, 59, 80
5, 122605, Note_on_c, 9, 59, 0
5, 122886, Note_on_c, 9, 59, 72
5, 123337, Note_on_c, 9, 59, 0
5, 123529, Note_on_c, 9, 59, 70
5, 123680, Note_on_c, 9, 59, 0
5, 123849, Note_on_c, 9, 59, 73
5, 124046, Note_on_c, 9, 59, 0
5, 124794, Note_on_c, 9, 59, 72
5, 125157, Note_on_c, 9, 59, 0
5, 125428, Note_on_c, 9, 53, 61
5, 125434, Note_on_c, 9, 59, 61
5, 125761, Note_on_c, 9, 53, 0
5, 125781, Note_on_c, 9, 59, 0
5, 126086, Note_on_c, 9, 59, 51
5, 126164, Note_on_c, 9, 59, 0
5, 126391, Note_on_c, 9, 59, 67
5, 126564, Note_on_c, 9, 59, 0
5, 126714, Note_on_c, 9, 59, 56
5, 126729, Note_on_c, 9, 53, 61
5, 127321, Note_on_c, 9, 53, 0
5, 127397, Note_on_c, 9, 59, 0
5, 127680, Note_on_c, 9, 59, 45
5, 127811, Note_on_c, 9, 59, 0
5, 127997, Note_on_c, 9, 59, 60
5, 128134, Note_on_c, 9, 59, 0
5, 128308, Note_on_c, 9, 59, 69
5, 128314, Note_on_c, 9, 53, 66
5, 128788, Note_on_c, 9, 59, 0
5, 128789, Note_on_c, 9, 53, 0
5, 128954, Note_on_c, 9, 59, 52
5, 129033, Note_on_c, 9, 59, 0
5, 129271, Note_on_c, 9, 59, 57
5, 129433, Note_on_c, 9, 59, 0
5, 129591, Note_on_c, 9, 53, 64
5, 129594, Note_on_c, 9, 59, 70
5, 130266, Note_on_c, 9, 53, 0
5, 130278, Note_on_c, 9, 59, 0
5, 130554, Note_on_c, 9, 59, 51
5, 130629, Note_on_c, 9, 59, 0
5, 130889, Note_on_c, 9, 59, 52
5, 130997, Note_on_c, 9, 59, 0
5, 131188, Note_on_c, 9, 59, 75
5, 131212, Note_on_c, 9, 53, 69
5, 131680, Note_on_c, 9, 59, 0
5, 131683, Note_on_c, 9, 53, 0
5, 132151, Note_on_c, 9, 59, 53
5, 132163, Note_on_c, 9, 59, 73
5, 132223, Note_on_c, 9, 59, 0
5, 132360, Note_on_c, 9, 59, 0
5, 132474, Note_on_c, 9, 59, 61
5, 132492, Note_on_c, 9, 53, 61
5, 132911, Note_on_c, 9, 53, 0
5, 132997, Note_on_c, 9, 59, 0
5, 133452, Note_on_c, 9, 59, 60
5, 133917, Note_on_c, 9, 59, 0
5, 134071, Note_on_c, 9, 59, 58
5, 134200, Note_on_c, 9, 59, 0
5, 134406, Note_on_c, 9, 59, 70
5, 135009, Note_on_c, 9, 59, 0
5, 135369, Note_on_c, 9, 59, 70
5, 135662, Note_on_c, 9, 59, 0
5, 136003, Note_on_c, 9, 53, 49
5, 136136, Note_on_c, 9, 53, 0
5, 136329, Note_on_c, 9, 59, 57
5, 136887, Note_on_c, 9, 59, 0
5, 136972, Note_on_c, 9, 53, 55
5, 137124, Note_on_c, 9, 53, 0
5, 137268, Note_on_c, 9, 59, 53
5, 137551, Note_on_c, 9, 59, 0
5, 137911, Note_on_c, 9, 53, 38
5, 138115, Note_on_c, 9, 53, 0
5, 138249, Note_on_c, 9, 49, 51
5, 138252, Note_on_c, 9, 59, 50
5, 138362, Note_on_c, 9, 59, 0
5, 138420, Note_on_c, 9, 49, 0
5, 139191, Note_on_c, 9, 59, 56
5, 139762, Note_on_c, 9, 59, 0
5, 140169, Note_on_c, 9, 59, 74
5, 140701, Note_on_c, 9, 59, 0
5, 140797, Note_on_c, 9, 59, 51
5, 140918, Note_on_c, 9, 59, 0
5, 141126, Note_on_c, 9, 59, 74
5, 141864, Note_on_c, 9, 59, 0
5, 142714, Note_on_c, 9, 59, 68
5, 142879, Note_on_c, 9, 59, 0
5, 143031, Note_on_c, 9, 59, 91
5, 143563, Note_on_c, 9, 59, 0
5, 144320, Note_on_c, 9, 59, 80
5, 144501, Note_on_c, 9, 59, 0
5, 144631, Note_on_c, 9, 59, 61
5, 144781, Note_on_c, 9, 59, 0
5, 144969, Note_on_c, 9, 59, 87
5, 145625, Note_on_c, 9, 59, 0
5, 145917, Note_on_c, 9, 59, 84
5, 146579, Note_on_c, 9, 59, 0
5, 146874, Note_on_c, 9, 59, 87
5, 147568, Note_on_c, 9, 59, 0
5, 147849, Note_on_c, 9, 59, 78
5, 148420, Note_on_c, 9, 59, 0
5, 148809, Note_on_c, 9, 59, 80
5, 149234, Note_on_c, 9, 59, 0
5, 149437, Note_on_c, 9, 59, 61
5, 149569, Note_on_c, 9, 59, 0
5, 149754, Note_on_c, 9, 59, 66
5, 150396, Note_on_c, 9, 59, 0
5, 150729, Note_on_c, 9, 59, 80
5, 151291, Note_on_c, 9, 59, 0
5, 151677, Note_on_c, 9, 59, 82
5, 152088, Note_on_c, 9, 59, 0
5, 152326, Note_on_c, 9, 59, 59
5, 152450, Note_on_c, 9, 59, 0
5, 152652, Note_on_c, 9, 59, 76
5, 153266, Note_on_c, 9, 59, 0
5, 153603, Note_on_c, 9, 59, 91
5, 154144, Note_on_c, 9, 59, 0
5, 154557, Note_on_c, 9, 59, 79
5, 154656, Note_on_c, 9, 59, 0
5, 155197, Note_on_c, 9, 59, 94
5, 155345, Note_on_c, 9, 59, 0
5, 155511, Note_on_c, 9, 59, 90
5, 156006, Note_on_c, 9, 59, 0
5, 156486, Note_on_c, 9, 59, 49
5, 156594, Note_on_c, 9, 59, 0
5, 157132, Note_on_c, 9, 59, 92
5, 157263, Note_on_c, 9, 59, 0
5, 157449, Note_on_c, 9, 59, 93
5, 157941, Note_on_c, 9, 59, 0
5, 158394, Note_on_c, 9, 59, 101
5, 158874, Note_on_c, 9, 59, 0
5, 159357, Note_on_c, 9, 59, 93
5, 159885, Note_on_c, 9, 59, 0
5, 160317, Note_on_c, 9, 59, 89
5, 160744, Note_on_c, 9, 59, 0
5, 160966, Note_on_c, 9, 59, 64
5, 161111, Note_on_c, 9, 59, 0
5, 161283, Note_on_c, 9, 59, 73
5, 161880, Note_on_c, 9, 59, 0
5, 162237, Note_on_c, 9, 59, 90
5, 162405, Note_on_c, 9, 59, 0
5, 163852, Note_on_c, 9, 59, 77
5, 164003, Note_on_c, 9, 59, 0
5, 164154, Note_on_c, 9, 59, 72
5, 164528, Note_on_c, 9, 59, 0
5, 165120, Note_on_c, 9, 59, 70
5, 165191, Note_on_c, 9, 59, 0
5, 165452, Note_on_c, 9, 59, 65
5, 165524, Note_on_c, 9, 59, 0
5, 165763, Note_on_c, 9, 59, 100
5, 166365, Note_on_c, 9, 59, 0
5, 166409, Note_on_c, 9, 59, 47
5, 166498, Note_on_c, 9, 59, 0
5, 166708, Note_on_c, 9, 59, 104
5, 167308, Note_on_c, 9, 59, 0
5, 167360, Note_on_c, 9, 59, 53
5, 167447, Note_on_c, 9, 59, 0
5, 167683, Note_on_c, 9, 59, 97
5, 167940, Note_on_c, 9, 59, 0
5, 167988, Note_on_c, 9, 59, 76
5, 168532, Note_on_c, 9, 59, 0
5, 169274, Note_on_c, 9, 59, 60
5, 169388, Note_on_c, 9, 59, 0
5, 169591, Note_on_c, 9, 59, 98
5, 170037, Note_on_c, 9, 59, 0
5, 170237, Note_on_c, 9, 59, 46
5, 170315, Note_on_c, 9, 59, 0
5, 170572, Note_on_c, 9, 59, 87
5, 170799, Note_on_c, 9, 59, 0
5, 170889, Note_on_c, 9, 59, 57
5, 170961, Note_on_c, 9, 59, 0
5, 171212, Note_on_c, 9, 59, 65
5, 171281, Note_on_c, 9, 59, 0
5, 171526, Note_on_c, 9, 59, 98
5, 172029, Note_on_c, 9, 59, 0
5, 172160, Note_on_c, 9, 59, 64
5, 172274, Note_on_c, 9, 59, 0
5, 172483, Note_on_c, 9, 59, 96
5, 172683, Note_on_c, 9, 59, 0
5, 172797, Note_on_c, 9, 59, 90
5, 173408, Note_on_c, 9, 59, 0
5, 173757, Note_on_c, 9, 59, 94
5, 174152, Note_on_c, 9, 59, 0
5, 174403, Note_on_c, 9, 59, 67
5, 174542, Note_on_c, 9, 59, 0
5, 174711, Note_on_c, 9, 59, 84
5, 175132, Note_on_c, 9, 59, 0
5, 175689, Note_on_c, 9, 59, 97
5, 176168, Note_on_c, 9, 59, 0
5, 176311, Note_on_c, 9, 59, 66
5, 176460, Note_on_c, 9, 59, 0
5, 176652, Note_on_c, 9, 59, 78
5, 177249, Note_on_c, 9, 59, 0
5, 177606, Note_on_c, 9, 59, 76
5, 177918, Note_on_c, 9, 59, 0
5, 178231, Note_on_c, 9, 59, 52
5, 178329, Note_on_c, 9, 59, 0
5, 178569, Note_on_c, 9, 59, 85
5, 179309, Note_on_c, 9, 59, 0
5, 179520, Note_on_c, 9, 59, 85
5, 180006, Note_on_c, 9, 59, 0
5, 180172, Note_on_c, 9, 53, 36
5, 180321, Note_on_c, 9, 53, 0
5, 180468, Note_on_c, 9, 59, 52
5, 180962, Note_on_c, 9, 59, 0
5, 181129, Note_on_c, 9, 59, 51
5, 181306, Note_on_c, 9, 59, 0
5, 181428, Note_on_c, 9, 59, 66
5, 181928, Note_on_c, 9, 59, 0
5, 182074, Note_on_c, 9, 53, 49
5, 182245, Note_on_c, 9, 53, 0
5, 182394, Note_on_c, 9, 59, 58
5, 182933, Note_on_c, 9, 59, 0
5, 183046, Note_on_c, 9, 53, 49
5, 183222, Note_on_c, 9, 53, 0
5, 183348, Note_on_c, 9, 59, 54
5, 183799, Note_on_c, 9, 59, 0
5, 184317, Note_on_c, 9, 59, 62
5, 184770, Note_on_c, 9, 59, 0
5, 185274, Note_on_c, 9, 59, 91
5, 185592, Note_on_c, 9, 59, 0
5, 186249, Note_on_c, 9, 59, 99
5, 186700, Note_on_c, 9, 59, 0
5, 187200, Note_on_c, 9, 59, 103
5, 187654, Note_on_c, 9, 59, 0
5, 187834, Note_on_c, 9, 59, 72
5, 187987, Note_on_c, 9, 59, 0
5, 188163, Note_on_c, 9, 59, 82
5, 188674, Note_on_c, 9, 59, 0
5, 189120, Note_on_c, 9, 59, 95
5, 189699, Note_on_c, 9, 59, 0
5, 190071, Note_on_c, 9, 59, 43
5, 190153, Note_on_c, 9, 59, 0
5, 190723, Note_on_c, 9, 59, 80
5, 190868, Note_on_c, 9, 59, 0
5, 191028, Note_on_c, 9, 59, 82
5, 191566, Note_on_c, 9, 59, 0
5, 192006, Note_on_c, 9, 59, 87
5, 192275, Note_on_c, 9, 59, 0
5, 192963, Note_on_c, 9, 59, 73
5, 193440, Note_on_c, 9, 59, 0
5, 193911, Note_on_c, 9, 59, 79
5, 194747, Note_on_c, 9, 59, 0
5, 194886, Note_on_c, 9, 59, 61
5, 195041, Note_on_c, 9, 59, 0
5, 195532, Note_on_c, 9, 59, 84
5, 195673, Note_on_c, 9, 59, 0
5, 195849, Note_on_c, 9, 59, 71
5, 196274, Note_on_c, 9, 59, 0
5, 196809, Note_on_c, 9, 59, 83
5, 197181, Note_on_c, 9, 59, 0
5, 197748, Note_on_c, 9, 59, 71
5, 197925, Note_on_c, 9, 59, 0
5, 198400, Note_on_c, 9, 59, 84
5, 198535, Note_on_c, 9, 59, 0
5, 198726, Note_on_c, 9, 59, 84
5, 199143, Note_on_c, 9, 59, 0
5, 199689, Note_on_c, 9, 59, 64
5, 199766, Note_on_c, 9, 59, 0
5, 200317, Note_on_c, 9, 59, 84
5, 200448, Note_on_c, 9, 59, 0
5, 200637, Note_on_c, 9, 59, 79
5, 201059, Note_on_c, 9, 59, 0
5, 201594, Note_on_c, 9, 59, 71
5, 201735, Note_on_c, 9, 59, 0
5, 202237, Note_on_c, 9, 59, 88
5, 202246, Note_on_c, 9, 59, 85
5, 202392, Note_on_c, 9, 59, 0
5, 202713, Note_on_c, 9, 59, 0
5, 203514, Note_on_c, 9, 59, 76
5, 204089, Note_on_c, 9, 59, 0
5, 204486, Note_on_c, 9, 59, 72
5, 205132, Note_on_c, 9, 53, 42
5, 205140, Note_on_c, 9, 59, 0
5, 205387, Note_on_c, 9, 53, 0
5, 206077, Note_on_c, 9, 59, 67
5, 206391, Note_on_c, 9, 53, 67
5, 206444, Note_on_c, 9, 59, 0
5, 206823, Note_on_c, 9, 53, 0
5, 207348, Note_on_c, 9, 59, 61
5, 207920, Note_on_c, 9, 59, 0
5, 208320, Note_on_c, 9, 59, 76
5, 208822, Note_on_c, 9, 59, 0
5, 209283, Note_on_c, 9, 59, 76
5, 209735, Note_on_c, 9, 59, 0
5, 210246, Note_on_c, 9, 59, 80
5, 210733, Note_on_c, 9, 59, 0
5, 211194, Note_on_c, 9, 59, 76
5, 211436, Note_on_c, 9, 59, 0
5, 211840, Note_on_c, 9, 59, 78
5, 211963, Note_on_c, 9, 59, 0
5, 212148, Note_on_c, 9, 59, 81
5, 212506, Note_on_c, 9, 59, 0
5, 212794, Note_on_c, 9, 59, 76
5, 212943, Note_on_c, 9, 59, 0
5, 213132, Note_on_c, 9, 59, 76
5, 213530, Note_on_c, 9, 59, 0
5, 214074, Note_on_c, 9, 59, 81
5, 214476, Note_on_c, 9, 59, 0
5, 215034, Note_on_c, 9, 59, 82
5, 215253, Note_on_c, 9, 59, 0
5, 215686, Note_on_c, 9, 59, 71
5, 215760, Note_on_c, 9, 59, 0
5, 215991, Note_on_c, 9, 59, 77
5, 216396, Note_on_c, 9, 59, 0
5, 216966, Note_on_c, 9, 59, 82
5, 217352, Note_on_c, 9, 59, 0
5, 218560, Note_on_c, 9, 59, 79
5, 218703, Note_on_c, 9, 59, 0
5, 218874, Note_on_c, 9, 59, 80
5, 219347, Note_on_c, 9, 59, 0
5, 219852, Note_on_c, 9, 59, 79
5, 220334, Note_on_c, 9, 59, 0
5, 220800, Note_on_c, 9, 59, 62
5, 220943, Note_on_c, 9, 59, 0
5, 221428, Note_on_c, 9, 60, 73
5, 221428, Note_on_c, 9, 59, 57
5, 221475, Note_on_c, 9, 60, 0
5, 221507, Note_on_c, 9, 59, 0
5, 221769, Note_on_c, 9, 59, 78
5, 222362, Note_on_c, 9, 59, 0
5, 222708, Note_on_c, 9, 59, 86
5, 223155, Note_on_c, 9, 59, 0
5, 223671, Note_on_c, 9, 59, 85
5, 223849, Note_on_c, 9, 59, 0
5, 224323, Note_on_c, 9, 59, 75
5, 224426, Note_on_c, 9, 59, 0
5, 224628, Note_on_c, 9, 59, 84
5, 225098, Note_on_c, 9, 59, 0
5, 225597, Note_on_c, 9, 59, 69
5, 226252, Note_on_c, 9, 53, 56
5, 226295, Note_on_c, 9, 59, 0
5, 226504, Note_on_c, 9, 53, 0
5, 226554, Note_on_c, 9, 59, 64
5, 227183, Note_on_c, 9, 59, 0
5, 227206, Note_on_c, 9, 53, 70
5, 227486, Note_on_c, 9, 53, 0
5, 227508, Note_on_c, 9, 59, 56
5, 228066, Note_on_c, 9, 59, 0
5, 228169, Note_on_c, 9, 53, 81
5, 228489, Note_on_c, 9, 59, 61
5, 228505, Note_on_c, 9, 53, 0
5, 228765, Note_on_c, 9, 59, 0
5, 229132, Note_on_c, 9, 53, 77
5, 229415, Note_on_c, 9, 53, 0
5, 229440, Note_on_c, 9, 59, 58
5, 229803, Note_on_c, 9, 59, 0
5, 230083, Note_on_c, 9, 53, 68
5, 230305, Note_on_c, 9, 53, 0
5, 230400, Note_on_c, 9, 59, 63
5, 230989, Note_on_c, 9, 59, 0
5, 231348, Note_on_c, 9, 59, 67
5, 231838, Note_on_c, 9, 59, 0
5, 232323, Note_on_c, 9, 59, 61
5, 232566, Note_on_c, 9, 59, 0
5, 233271, Note_on_c, 9, 59, 65
5, 233292, Note_on_c, 9, 59, 64
5, 233436, Note_on_c, 9, 59, 0
5, 233820, Note_on_c, 9, 59, 0
5, 234234, Note_on_c, 9, 59, 80
5, 234648, Note_on_c, 9, 59, 0
5, 235191, Note_on_c, 9, 59, 83
5, 235481, Note_on_c, 9, 59, 0
5, 235831, Note_on_c, 9, 59, 77
5, 235899, Note_on_c, 9, 59, 0
5, 236148, Note_on_c, 9, 59, 81
5, 236633, Note_on_c, 9, 59, 0
5, 237108, Note_on_c, 9, 59, 82
5, 237487, Note_on_c, 9, 59, 0
5, 237769, Note_on_c, 9, 59, 69
5, 237842, Note_on_c, 9, 59, 0
5, 238089, Note_on_c, 9, 59, 75
5, 238449, Note_on_c, 9, 59, 0
5, 239040, Note_on_c, 9, 59, 87
5, 239425, Note_on_c, 9, 59, 0
5, 239689, Note_on_c, 9, 59, 50
5, 239763, Note_on_c, 9, 59, 0
5, 239997, Note_on_c, 9, 59, 93
5, 240623, Note_on_c, 9, 59, 0
5, 240948, Note_on_c, 9, 59, 82
5, 241191, Note_on_c, 9, 59, 0
5, 241597, Note_on_c, 9, 59, 77
5, 241701, Note_on_c, 9, 59, 0
5, 241926, Note_on_c, 9, 59, 84
5, 242512, Note_on_c, 9, 59, 0
5, 242874, Note_on_c, 9, 59, 87
5, 243239, Note_on_c, 9, 59, 0
5, 243846, Note_on_c, 9, 59, 84
5, 244011, Note_on_c, 9, 59, 0
5, 244477, Note_on_c, 9, 59, 88
5, 244596, Note_on_c, 9, 59, 0
5, 244806, Note_on_c, 9, 59, 87
5, 245342, Note_on_c, 9, 59, 0
5, 246086, Note_on_c, 9, 59, 85
5, 246212, Note_on_c, 9, 59, 0
5, 246400, Note_on_c, 9, 59, 85
5, 246528, Note_on_c, 9, 59, 0
5, 246714, Note_on_c, 9, 59, 95
5, 247155, Note_on_c, 9, 59, 0
5, 248000, Note_on_c, 9, 59, 80
5, 248127, Note_on_c, 9, 59, 0
5, 248323, Note_on_c, 9, 59, 96
5, 248655, Note_on_c, 9, 59, 0
5, 248948, Note_on_c, 9, 59, 58
5, 249074, Note_on_c, 9, 59, 0
5, 249271, Note_on_c, 9, 59, 86
5, 249388, Note_on_c, 9, 59, 0
5, 249600, Note_on_c, 9, 59, 97
5, 250030, Note_on_c, 9, 59, 0
5, 250252, Note_on_c, 9, 59, 71
5, 250380, Note_on_c, 9, 59, 0
5, 250560, Note_on_c, 9, 59, 86
5, 251097, Note_on_c, 9, 59, 0
5, 251511, Note_on_c, 9, 59, 89
5, 251959, Note_on_c, 9, 59, 0
5, 252492, Note_on_c, 9, 59, 72
5, 253030, Note_on_c, 9, 59, 0
5, 253129, Note_on_c, 9, 53, 48
5, 253296, Note_on_c, 9, 53, 0
5, 253431, Note_on_c, 9, 59, 60
5, 254112, Note_on_c, 9, 59, 0
5, 254391, Note_on_c, 9, 59, 73
5, 255040, Note_on_c, 9, 53, 46
5, 255060, Note_on_c, 9, 59, 0
5, 255201, Note_on_c, 9, 53, 0
5, 255363, Note_on_c, 9, 59, 65
5, 255624, Note_on_c, 9, 59, 0
5, 255988, Note_on_c, 9, 59, 93
5, 256184, Note_on_c, 9, 59, 0
5, 256314, Note_on_c, 9, 59, 77
5, 256969, Note_on_c, 9, 53, 43
5, 256984, Note_on_c, 9, 59, 0
5, 257192, Note_on_c, 9, 53, 0
5, 257268, Note_on_c, 9, 59, 78
5, 257974, Note_on_c, 9, 59, 0
5, 258249, Note_on_c, 9, 59, 68
5, 258709, Note_on_c, 9, 59, 0
5, 258886, Note_on_c, 9, 59, 62
5, 259044, Note_on_c, 9, 59, 0
5, 259206, Note_on_c, 9, 59, 66
5, 259768, Note_on_c, 9, 59, 0
5, 260154, Note_on_c, 9, 59, 74
5, 260738, Note_on_c, 9, 59, 0
5, 261129, Note_on_c, 9, 59, 78
5, 261645, Note_on_c, 9, 59, 0
5, 262083, Note_on_c, 9, 59, 78
5, 262646, Note_on_c, 9, 59, 0
5, 263043, Note_on_c, 9, 59, 80
5, 263550, Note_on_c, 9, 59, 0
5, 263994, Note_on_c, 9, 59, 75
5, 264358, Note_on_c, 9, 59, 0
5, 264634, Note_on_c, 9, 59, 63
5, 264788, Note_on_c, 9, 59, 0
5, 264954, Note_on_c, 9, 59, 69
5, 265630, Note_on_c, 9, 59, 0
5, 265929, Note_on_c, 9, 59, 75
5, 266510, Note_on_c, 9, 59, 0
5, 267514, Note_on_c, 9, 59, 65
5, 267694, Note_on_c, 9, 59, 0
5, 267831, Note_on_c, 9, 59, 69
5, 268544, Note_on_c, 9, 59, 0
5, 269449, Note_on_c, 9, 59, 69
5, 269605, Note_on_c, 9, 59, 0
5, 269766, Note_on_c, 9, 59, 67
5, 270381, Note_on_c, 9, 59, 0
5, 270403, Note_on_c, 9, 53, 62
5, 270598, Note_on_c, 9, 53, 0
5, 270726, Note_on_c, 9, 59, 71
5, 271235, Note_on_c, 9, 59, 0
5, 271680, Note_on_c, 9, 59, 69
5, 272016, Note_on_c, 9, 59, 0
5, 272643, Note_on_c, 9, 59, 84
5, 272844, Note_on_c, 9, 59, 0
5, 273277, Note_on_c, 9, 59, 75
5, 273379, Note_on_c, 9, 59, 0
5, 273603, Note_on_c, 9, 59, 84
5, 273609, Note_on_c, 9, 59, 92
5, 273964, Note_on_c, 9, 59, 0
5, 273989, Note_on_c, 9, 59, 0
5, 274554, Note_on_c, 9, 59, 104
5, 274557, Note_on_c, 9, 59, 84
5, 274856, Note_on_c, 9, 59, 0
5, 274931, Note_on_c, 9, 59, 0
5, 275194, Note_on_c, 9, 59, 72
5, 275314, Note_on_c, 9, 59, 0
5, 275511, Note_on_c, 9, 59, 90
5, 275523, Note_on_c, 9, 59, 78
5, 275832, Note_on_c, 9, 59, 0
5, 275841, Note_on_c, 9, 59, 0
5, 276151, Note_on_c, 9, 59, 73
5, 276166, Note_on_c, 9, 59, 93
5, 276296, Note_on_c, 9, 59, 0
5, 276316, Note_on_c, 9, 59, 0
5, 276471, Note_on_c, 9, 59, 84
5, 276486, Note_on_c, 9, 59, 90
5, 276583, Note_on_c, 9, 59, 0
5, 277041, Note_on_c, 9, 59, 0
5, 277431, Note_on_c, 9, 59, 103
5, 278114, Note_on_c, 9, 59, 0
5, 278400, Note_on_c, 9, 59, 97
5, 278688, Note_on_c, 9, 59, 0
5, 279366, Note_on_c, 9, 59, 83
5, 280119, Note_on_c, 9, 59, 0
5, 280311, Note_on_c, 9, 59, 81
5, 280711, Note_on_c, 9, 59, 0
5, 281280, Note_on_c, 9, 59, 78
5, 281540, Note_on_c, 9, 59, 0
5, 281926, Note_on_c, 9, 59, 83
5, 282075, Note_on_c, 9, 59, 0
5, 282228, Note_on_c, 9, 59, 69
5, 282634, Note_on_c, 9, 59, 0
5, 283194, Note_on_c, 9, 59, 84
5, 283699, Note_on_c, 9, 59, 0
5, 284800, Note_on_c, 9, 59, 90
5, 284959, Note_on_c, 9, 59, 0
5, 285108, Note_on_c, 9, 59, 82
5, 285247, Note_on_c, 9, 59, 0
5, 286089, Note_on_c, 9, 59, 47
5, 286161, Note_on_c, 9, 59, 0
5, 286394, Note_on_c, 9, 59, 74
5, 286459, Note_on_c, 9, 59, 0
5, 286717, Note_on_c, 9, 59, 93
5, 287265, Note_on_c, 9, 59, 0
5, 287366, Note_on_c, 9, 59, 49
5, 287483, Note_on_c, 9, 59, 0
5, 287671, Note_on_c, 9, 59, 71
5, 287806, Note_on_c, 9, 59, 0
5, 288003, Note_on_c, 9, 59, 75
5, 288158, Note_on_c, 9, 59, 0
5, 288308, Note_on_c, 9, 53, 74
5, 288414, Note_on_c, 9, 53, 0
5, 288637, Note_on_c, 9, 59, 57
5, 288788, Note_on_c, 9, 59, 0
5, 288957, Note_on_c, 9, 59, 73
5, 289686, Note_on_c, 9, 59, 0
5, 289917, Note_on_c, 9, 59, 70
5, 290281, Note_on_c, 9, 59, 0
5, 290566, Note_on_c, 9, 59, 66
5, 290714, Note_on_c, 9, 59, 0
5, 290880, Note_on_c, 9, 59, 69
5, 291361, Note_on_c, 9, 59, 0
5, 291852, Note_on_c, 9, 59, 93
5, 292439, Note_on_c, 9, 59, 0
5, 292806, Note_on_c, 9, 59, 90
5, 293779, Note_on_c, 9, 59, 0
5, 294089, Note_on_c, 9, 59, 56
5, 294198, Note_on_c, 9, 59, 0
5, 294394, Note_on_c, 9, 59, 84
5, 294652, Note_on_c, 9, 59, 0
5, 294732, Note_on_c, 9, 59, 93
5, 295353, Note_on_c, 9, 59, 0
5, 295692, Note_on_c, 9, 59, 93
5, 296171, Note_on_c, 9, 59, 0
5, 296640, Note_on_c, 9, 59, 90
5, 297205, Note_on_c, 9, 59, 0
5, 297600, Note_on_c, 9, 59, 80
5, 298143, Note_on_c, 9, 59, 0
5, 299194, Note_on_c, 9, 59, 65
5, 299416, Note_on_c, 9, 59, 0
5, 299514, Note_on_c, 9, 59, 80
5, 300062, Note_on_c, 9, 59, 0
5, 300474, Note_on_c, 9, 59, 108
5, 301209, Note_on_c, 9, 59, 0
5, 301748, Note_on_c, 9, 59, 64
5, 301876, Note_on_c, 9, 59, 0
5, 302071, Note_on_c, 9, 59, 91
5, 302347, Note_on_c, 9, 59, 0
5, 302412, Note_on_c, 9, 59, 56
5, 302848, Note_on_c, 9, 59, 0
5, 303354, Note_on_c, 9, 59, 82
5, 303813, Note_on_c, 9, 59, 0
5, 304320, Note_on_c, 9, 59, 80
5, 304580, Note_on_c, 9, 59, 0
5, 305926, Note_on_c, 9, 59, 68
5, 306072, Note_on_c, 9, 59, 0
5, 306243, Note_on_c, 9, 59, 67
5, 306775, Note_on_c, 9, 59, 0
5, 307209, Note_on_c, 9, 59, 85
5, 307483, Note_on_c, 9, 59, 0
5, 307840, Note_on_c, 9, 59, 59
5, 307913, Note_on_c, 9, 59, 0
5, 308157, Note_on_c, 9, 59, 76
5, 308523, Note_on_c, 9, 59, 0
5, 309129, Note_on_c, 9, 59, 101
5, 309237, Note_on_c, 9, 59, 0
5, 309748, Note_on_c, 9, 59, 84
5, 309816, Note_on_c, 9, 59, 0
5, 310089, Note_on_c, 9, 59, 87
5, 310611, Note_on_c, 9, 59, 0
5, 311372, Note_on_c, 9, 59, 76
5, 311488, Note_on_c, 9, 59, 0
5, 311674, Note_on_c, 9, 59, 87
5, 311868, Note_on_c, 9, 59, 0
5, 311994, Note_on_c, 9, 59, 72
5, 312374, Note_on_c, 9, 59, 0
5, 312969, Note_on_c, 9, 59, 90
5, 313090, Note_on_c, 9, 59, 0
5, 313612, Note_on_c, 9, 59, 65
5, 313746, Note_on_c, 9, 59, 0
5, 313911, Note_on_c, 9, 59, 71
5, 314030, Note_on_c, 9, 59, 0
5, 314243, Note_on_c, 9, 53, 48
5, 314598, Note_on_c, 9, 53, 0
5, 314892, Note_on_c, 9, 53, 63
5, 315447, Note_on_c, 9, 53, 0
5, 315529, Note_on_c, 9, 59, 52
5, 315711, Note_on_c, 9, 59, 0
5, 315828, Note_on_c, 9, 59, 66
5, 316355, Note_on_c, 9, 59, 0
5, 316483, Note_on_c, 9, 53, 73
5, 316679, Note_on_c, 9, 53, 0
5, 316806, Note_on_c, 9, 59, 47
5, 317204, Note_on_c, 9, 59, 0
5, 317443, Note_on_c, 9, 53, 70
5, 317641, Note_on_c, 9, 53, 0
5, 317754, Note_on_c, 9, 59, 50
5, 318012, Note_on_c, 9, 59, 0
5, 318391, Note_on_c, 9, 53, 67
5, 318575, Note_on_c, 9, 53, 0
5, 318711, Note_on_c, 9, 59, 48
5, 319106, Note_on_c, 9, 59, 0
5, 319354, Note_on_c, 9, 53, 65
5, 319473, Note_on_c, 9, 53, 0
5, 319674, Note_on_c, 9, 59, 65
5, 320160, Note_on_c, 9, 59, 0
5, 320637, Note_on_c, 9, 59, 89
5, 321146, Note_on_c, 9, 59, 0
5, 321286, Note_on_c, 9, 59, 64
5, 321423, Note_on_c, 9, 59, 0
5, 321588, Note_on_c, 9, 59, 82
5, 322235, Note_on_c, 9, 59, 0
5, 322554, Note_on_c, 9, 59, 97
5, 323189, Note_on_c, 9, 59, 0
5, 323508, Note_on_c, 9, 59, 46
5, 323574, Note_on_c, 9, 59, 0
5, 323837, Note_on_c, 9, 59, 66
5, 323899, Note_on_c, 9, 59, 0
5, 324163, Note_on_c, 9, 59, 106
5, 324780, Note_on_c, 9, 59, 0
5, 324791, Note_on_c, 9, 59, 49
5, 324877, Note_on_c, 9, 59, 0
5, 325129, Note_on_c, 9, 59, 90
5, 325350, Note_on_c, 9, 59, 0
5, 325443, Note_on_c, 9, 59, 85
5, 326031, Note_on_c, 9, 59, 0
5, 326394, Note_on_c, 9, 59, 88
5, 326929, Note_on_c, 9, 59, 0
5, 327348, Note_on_c, 9, 59, 78
5, 327611, Note_on_c, 9, 59, 0
5, 328003, Note_on_c, 9, 59, 62
5, 328131, Note_on_c, 9, 59, 0
5, 328323, Note_on_c, 9, 59, 68
5, 328693, Note_on_c, 9, 59, 0
5, 329292, Note_on_c, 9, 59, 98
5, 329504, Note_on_c, 9, 59, 0
5, 330877, Note_on_c, 9, 59, 76
5, 331015, Note_on_c, 9, 59, 0
5, 331203, Note_on_c, 9, 59, 80
5, 331627, Note_on_c, 9, 59, 0
5, 332163, Note_on_c, 9, 59, 59
5, 332235, Note_on_c, 9, 59, 0
5, 332477, Note_on_c, 9, 59, 59
5, 332554, Note_on_c, 9, 59, 0
5, 332809, Note_on_c, 9, 59, 92
5, 333396, Note_on_c, 9, 59, 0
5, 333431, Note_on_c, 9, 59, 49
5, 333517, Note_on_c, 9, 59, 0
5, 333763, Note_on_c, 9, 59, 89
5, 333980, Note_on_c, 9, 59, 0
5, 334068, Note_on_c, 9, 59, 80
5, 334642, Note_on_c, 9, 59, 0
5, 335043, Note_on_c, 9, 59, 89
5, 335519, Note_on_c, 9, 59, 0
5, 335997, Note_on_c, 9, 59, 90
5, 336430, Note_on_c, 9, 59, 0
5, 336643, Note_on_c, 9, 59, 64
5, 336798, Note_on_c, 9, 59, 0
5, 336969, Note_on_c, 9, 59, 71
5, 337580, Note_on_c, 9, 59, 0
5, 337920, Note_on_c, 9, 59, 89
5, 338587, Note_on_c, 9, 59, 0
5, 338880, Note_on_c, 9, 59, 87
5, 339264, Note_on_c, 9, 59, 0
5, 339508, Note_on_c, 9, 59, 61
5, 339644, Note_on_c, 9, 59, 0
5, 339837, Note_on_c, 9, 59, 78
5, 340345, Note_on_c, 9, 59, 0
5, 340800, Note_on_c, 9, 59, 104
5, 341350, Note_on_c, 9, 59, 0
5, 341446, Note_on_c, 9, 59, 52
5, 341579, Note_on_c, 9, 59, 0
5, 341763, Note_on_c, 9, 59, 80
5, 342194, Note_on_c, 9, 59, 0
5, 342409, Note_on_c, 9, 59, 100
5, 342594, Note_on_c, 9, 59, 0
5, 342717, Note_on_c, 9, 59, 87
5, 343267, Note_on_c, 9, 59, 0
5, 343677, Note_on_c, 9, 59, 100
5, 344271, Note_on_c, 9, 59, 0
5, 345280, Note_on_c, 9, 59, 86
5, 345454, Note_on_c, 9, 59, 0
5, 345600, Note_on_c, 9, 59, 79
5, 346108, Note_on_c, 9, 59, 0
5, 346551, Note_on_c, 9, 59, 96
5, 347073, Note_on_c, 9, 59, 0
5, 347529, Note_on_c, 9, 59, 92
5, 347824, Note_on_c, 9, 59, 0
5, 348172, Note_on_c, 9, 59, 64
5, 348330, Note_on_c, 9, 59, 0
5, 348483, Note_on_c, 9, 59, 75
5, 348992, Note_on_c, 9, 59, 0
5, 349431, Note_on_c, 9, 59, 84
5, 349843, Note_on_c, 9, 59, 0
5, 350409, Note_on_c, 9, 59, 86
5, 350540, Note_on_c, 9, 59, 0
5, 351043, Note_on_c, 9, 59, 72
5, 351190, Note_on_c, 9, 59, 0
5, 351363, Note_on_c, 9, 59, 69
5, 351792, Note_on_c, 9, 59, 0
5, 352332, Note_on_c, 9, 59, 82
5, 352650, Note_on_c, 9, 59, 0
5, 353286, Note_on_c, 9, 59, 88
5, 353413, Note_on_c, 9, 59, 0
5, 353603, Note_on_c, 9, 59, 58
5, 353673, Note_on_c, 9, 59, 0
5, 353932, Note_on_c, 9, 59, 95
5, 354150, Note_on_c, 9, 59, 0
5, 354240, Note_on_c, 9, 59, 65
5, 354656, Note_on_c, 9, 59, 0
5, 355206, Note_on_c, 9, 59, 93
5, 355717, Note_on_c, 9, 59, 0
5, 356812, Note_on_c, 9, 59, 71
5, 356984, Note_on_c, 9, 59, 0
5, 357129, Note_on_c, 9, 59, 54
5, 357554, Note_on_c, 9, 59, 0
5, 357763, Note_on_c, 9, 59, 55
5, 357843, Note_on_c, 9, 59, 0
5, 358092, Note_on_c, 9, 59, 83
5, 358649, Note_on_c, 9, 59, 0
5, 359046, Note_on_c, 9, 59, 73
5, 359237, Note_on_c, 9, 59, 0
5, 359372, Note_on_c, 9, 53, 55
5, 359543, Note_on_c, 9, 53, 0
5, 359994, Note_on_c, 9, 59, 70
5, 360556, Note_on_c, 9, 59, 0
5, 360957, Note_on_c, 9, 59, 67
5, 361334, Note_on_c, 9, 59, 0
5, 361591, Note_on_c, 9, 59, 51
5, 361720, Note_on_c, 9, 59, 0
5, 361908, Note_on_c, 9, 59, 68
5, 362236, Note_on_c, 9, 59, 0
5, 362557, Note_on_c, 9, 59, 61
5, 362700, Note_on_c, 9, 59, 0
5, 362892, Note_on_c, 9, 59, 79
5, 363375, Note_on_c, 9, 59, 0
5, 363852, Note_on_c, 9, 59, 73
5, 364117, Note_on_c, 9, 59, 0
5, 364471, Note_on_c, 9, 59, 58
5, 364589, Note_on_c, 9, 59, 0
5, 364788, Note_on_c, 9, 59, 52
5, 365008, Note_on_c, 9, 59, 0
5, 365437, Note_on_c, 9, 53, 42
5, 365565, Note_on_c, 9, 53, 0
5, 365760, Note_on_c, 9, 59, 53
5, 365769, Note_on_c, 9, 49, 51
5, 366032, Note_on_c, 9, 49, 0
5, 366069, Note_on_c, 9, 59, 0
5, 366729, Note_on_c, 9, 59, 53
5, 367227, Note_on_c, 9, 59, 0
5, 367689, Note_on_c, 9, 59, 80
5, 367925, Note_on_c, 9, 59, 0
5, 368329, Note_on_c, 9, 59, 54
5, 368452, Note_on_c, 9, 59, 0
5, 368646, Note_on_c, 9, 59, 71
5, 369043, Note_on_c, 9, 59, 0
5, 369594, Note_on_c, 9, 59, 98
5, 369753, Note_on_c, 9, 59, 0
5, 369911, Note_on_c, 9, 59, 74
5, 370208, Note_on_c, 9, 59, 0
5, 370572, Note_on_c, 9, 59, 94
5, 370765, Note_on_c, 9, 59, 0
5, 370889, Note_on_c, 9, 59, 73
5, 371178, Note_on_c, 9, 59, 0
5, 371508, Note_on_c, 9, 59, 89
5, 372104, Note_on_c, 9, 59, 0
5, 372477, Note_on_c, 9, 59, 84
5, 372951, Note_on_c, 9, 59, 0
5, 373120, Note_on_c, 9, 59, 64
5, 373255, Note_on_c, 9, 59, 0
5, 373437, Note_on_c, 9, 59, 83
5, 373929, Note_on_c, 9, 59, 0
5, 374394, Note_on_c, 9, 59, 97
5, 374988, Note_on_c, 9, 59, 0
5, 375360, Note_on_c, 9, 59, 89
5, 375870, Note_on_c, 9, 59, 0
5, 376311, Note_on_c, 9, 59, 90
5, 376676, Note_on_c, 9, 59, 0
5, 376954, Note_on_c, 9, 59, 61
5, 377088, Note_on_c, 9, 59, 0
5, 377268, Note_on_c, 9, 59, 83
5, 377806, Note_on_c, 9, 59, 0
5, 378249, Note_on_c, 9, 59, 67
5, 378345, Note_on_c, 9, 59, 0
5, 378572, Note_on_c, 9, 59, 78
5, 378704, Note_on_c, 9, 59, 0
5, 379206, Note_on_c, 9, 59, 90
5, 380375, Note_on_c, 9, 59, 0
5, 380803, Note_on_c, 9, 59, 61
5, 381016, Note_on_c, 9, 59, 0
5, 381108, Note_on_c, 9, 59, 73
5, 381588, Note_on_c, 9, 59, 0
5, 382089, Note_on_c, 9, 59, 87
5, 383471, Note_on_c, 9, 59, 0
5, 383680, Note_on_c, 9, 59, 57
5, 383768, Note_on_c, 9, 59, 0
5, 383994, Note_on_c, 9, 59, 81
5, 384512, Note_on_c, 9, 59, 0
5, 384951, Note_on_c, 9, 59, 71
5, 385045, Note_on_c, 9, 59, 0
5, 385274, Note_on_c, 9, 59, 67
5, 385352, Note_on_c, 9, 59, 0
5, 385597, Note_on_c, 9, 59, 84
5, 385874, Note_on_c, 9, 59, 0
5, 385932, Note_on_c, 9, 59, 69
5, 386489, Note_on_c, 9, 59, 0
5, 386877, Note_on_c, 9, 59, 87
5, 387455, Note_on_c, 9, 59, 0
5, 387846, Note_on_c, 9, 59, 88
5, 388375, Note_on_c, 9, 59, 0
5, 388809, Note_on_c, 9, 59, 84
5, 389506, Note_on_c, 9, 59, 0
5, 389772, Note_on_c, 9, 59, 79
5, 390286, Note_on_c, 9, 59, 0
5, 390400, Note_on_c, 9, 59, 65
5, 390524, Note_on_c, 9, 59, 0
5, 390726, Note_on_c, 9, 59, 79
5, 391189, Note_on_c, 9, 59, 0
5, 391363, Note_on_c, 9, 59, 73
5, 391525, Note_on_c, 9, 59, 0
5, 391677, Note_on_c, 9, 59, 70
5, 392221, Note_on_c, 9, 59, 0
5, 392640, Note_on_c, 9, 59, 93
5, 393433, Note_on_c, 9, 59, 0
5, 393920, Note_on_c, 9, 59, 40
5, 393982, Note_on_c, 9, 59, 0
5, 394246, Note_on_c, 9, 59, 90
5, 394548, Note_on_c, 9, 59, 87
5, 394651, Note_on_c, 9, 59, 0
5, 395180, Note_on_c, 9, 59, 0
5, 395523, Note_on_c, 9, 59, 80
5, 396211, Note_on_c, 9, 59, 0
5, 396468, Note_on_c, 9, 59, 72
5, 396919, Note_on_c, 9, 59, 0
5, 397123, Note_on_c, 9, 59, 70
5, 397274, Note_on_c, 9, 59, 0
5, 397449, Note_on_c, 9, 59, 73
5, 397646, Note_on_c, 9, 59, 0
5, 398412, Note_on_c, 9, 59, 72
5, 398775, Note_on_c, 9, 59, 0
5, 399028, Note_on_c, 9, 53, 61
5, 399034, Note_on_c, 9, 59, 61
5, 399361, Note_on_c, 9, 53, 0
5, 399381, Note_on_c, 9, 59, 0
5, 399686, Note_on_c, 9, 59, 51
5, 399764, Note_on_c, 9, 59, 0
5, 400003, Note_on_c, 9, 59, 67
5, 400176, Note_on_c, 9, 59, 0
5, 400311, Note_on_c, 9, 59, 56
5, 400320, Note_on_c, 9, 53, 61
5, 400912, Note_on_c, 9, 53, 0
5, 400994, Note_on_c, 9, 59, 0
5, 401289, Note_on_c, 9, 59, 45
5, 401420, Note_on_c, 9, 59, 0
5, 401591, Note_on_c, 9, 59, 60
5, 401728, Note_on_c, 9, 59, 0
5, 401926, Note_on_c, 9, 53, 66
5, 401932, Note_on_c, 9, 59, 69
5, 402401, Note_on_c, 9, 53, 0
5, 402412, Note_on_c, 9, 59, 0
5, 402557, Note_on_c, 9, 59, 52
5, 402636, Note_on_c, 9, 59, 0
5, 402886, Note_on_c, 9, 59, 57
5, 403048, Note_on_c, 9, 59, 0
5, 403200, Note_on_c, 9, 59, 70
5, 403209, Note_on_c, 9, 53, 64
5, 403884, Note_on_c, 9, 53, 0
5, 403884, Note_on_c, 9, 59, 0
5, 404166, Note_on_c, 9, 59, 51
5, 404241, Note_on_c, 9, 59, 0
5, 404474, Note_on_c, 9, 59, 52
5, 404582, Note_on_c, 9, 59, 0
5, 404800, Note_on_c, 9, 59, 75
5, 404806, Note_on_c, 9, 53, 69
5, 405277, Note_on_c, 9, 53, 0
5, 405292, Note_on_c, 9, 59, 0
5, 405748, Note_on_c, 9, 59, 73
5, 405757, Note_on_c, 9, 59, 53
5, 405829, Note_on_c, 9, 59, 0
5, 405945, Note_on_c, 9, 59, 0
5, 406071, Note_on_c, 9, 53, 61
5, 406089, Note_on_c, 9, 59, 61
5, 406490, Note_on_c, 9, 53, 0
5, 406612, Note_on_c, 9, 59, 0
5, 407028, Note_on_c, 9, 59, 60
5, 407493, Note_on_c, 9, 59, 0
5, 407668, Note_on_c, 9, 59, 58
5, 407797, Note_on_c, 9, 59, 0
5, 407997, Note_on_c, 9, 59, 70
5, 408600, Note_on_c, 9, 59, 0
5, 408966, Note_on_c, 9, 59, 70
5, 409259, Note_on_c, 9, 59, 0
5, 409609, Note_on_c, 9, 53, 49
5, 409742, Note_on_c, 9, 53, 0
5, 409908, Note_on_c, 9, 59, 57
5, 410466, Note_on_c, 9, 59, 0
5, 410548, Note_on_c, 9, 53, 55
5, 410700, Note_on_c, 9, 53, 0
5, 410883, Note_on_c, 9, 59, 53
5, 411166, Note_on_c, 9, 59, 0
5, 411532, Note_on_c, 9, 53, 38
5, 411736, Note_on_c, 9, 53, 0
5, 411843, Note_on_c, 9, 59, 50
5, 411852, Note_on_c, 9, 49, 51
5, 411953, Note_on_c, 9, 59, 0
5, 412023, Note_on_c, 9, 49, 0
5, 412794, Note_on_c, 9, 59, 56
5, 413365, Note_on_c, 9, 59, 0
5, 413751, Note_on_c, 9, 59, 74
5, 414283, Note_on_c, 9, 59, 0
5, 414388, Note_on_c, 9, 59, 51
5, 414509, Note_on_c, 9, 59, 0
5, 414717, Note_on_c, 9, 59, 74
5, 415455, Note_on_c, 9, 59, 0
5, 416308, Note_on_c, 9, 59, 68
5, 416473, Note_on_c, 9, 59, 0
5, 416637, Note_on_c, 9, 59, 91
5, 417169, Note_on_c, 9, 59, 0
5, 417911, Note_on_c, 9, 59, 80
5, 418092, Note_on_c, 9, 59, 0
5, 418231, Note_on_c, 9, 59, 61
5, 418381, Note_on_c, 9, 59, 0
5, 418548, Note_on_c, 9, 59, 87
5, 419204, Note_on_c, 9, 59, 0
5, 419520, Note_on_c, 9, 59, 84
5, 420182, Note_on_c, 9, 59, 0
5, 420492, Note_on_c, 9, 59, 87
5, 421186, Note_on_c, 9, 59, 0
5, 421431, Note_on_c, 9, 59, 78
5, 422002, Note_on_c, 9, 59, 0
5, 422409, Note_on_c, 9, 59, 80
5, 422834, Note_on_c, 9, 59, 0
5, 423040, Note_on_c, 9, 59, 61
5, 423172, Note_on_c, 9, 59, 0
5, 423363, Note_on_c, 9, 59, 66
5, 424005, Note_on_c, 9, 59, 0
5, 424332, Note_on_c, 9, 59, 80
5, 424894, Note_on_c, 9, 59, 0
5, 425271, Note_on_c, 9, 59, 82
5, 425682, Note_on_c, 9, 59, 0
5, 425911, Note_on_c, 9, 59, 59
5, 426035, Note_on_c, 9, 59, 0
5, 426240, Note_on_c, 9, 59, 76
5, 426854, Note_on_c, 9, 59, 0
5, 427212, Note_on_c, 9, 59, 91
5, 427753, Note_on_c, 9, 59, 0
5, 428151, Note_on_c, 9, 59, 79
5, 428250, Note_on_c, 9, 59, 0
5, 428806, Note_on_c, 9, 59, 94
5, 428954, Note_on_c, 9, 59, 0
5, 429129, Note_on_c, 9, 59, 90
5, 429624, Note_on_c, 9, 59, 0
5, 430077, Note_on_c, 9, 59, 49
5, 430185, Note_on_c, 9, 59, 0
5, 430732, Note_on_c, 9, 59, 92
5, 430863, Note_on_c, 9, 59, 0
5, 431034, Note_on_c, 9, 59, 93
5, 431526, Note_on_c, 9, 59, 0
5, 432000, Note_on_c, 9, 59, 101
5, 432480, Note_on_c, 9, 59, 0
5, 432960, Note_on_c, 9, 59, 93
5, 433488, Note_on_c, 9, 59, 0
5, 433932, Note_on_c, 9, 59, 89
5, 434359, Note_on_c, 9, 59, 0
5, 434569, Note_on_c, 9, 59, 64
5, 434714, Note_on_c, 9, 59, 0
5, 434874, Note_on_c, 9, 59, 73
5, 435471, Note_on_c, 9, 59, 0
5, 435843, Note_on_c, 9, 59, 90
5, 436011, Note_on_c, 9, 59, 0
5, 437446, Note_on_c, 9, 59, 77
5, 437597, Note_on_c, 9, 59, 0
5, 437769, Note_on_c, 9, 59, 72
5, 438143, Note_on_c, 9, 59, 0
5, 438720, Note_on_c, 9, 59, 70
5, 438791, Note_on_c, 9, 59, 0
5, 439040, Note_on_c, 9, 59, 65
5, 439112, Note_on_c, 9, 59, 0
5, 439348, Note_on_c, 9, 59, 100
5, 439950, Note_on_c, 9, 59, 0
5, 439994, Note_on_c, 9, 59, 47
5, 440083, Note_on_c, 9, 59, 0
5, 440326, Note_on_c, 9, 59, 104
5, 440926, Note_on_c, 9, 59, 0
5, 440960, Note_on_c, 9, 59, 53
5, 441047, Note_on_c, 9, 59, 0
5, 441271, Note_on_c, 9, 59, 97
5, 441528, Note_on_c, 9, 59, 0
5, 441591, Note_on_c, 9, 59, 76
5, 442135, Note_on_c, 9, 59, 0
5, 442871, Note_on_c, 9, 59, 60
5, 442985, Note_on_c, 9, 59, 0
5, 443206, Note_on_c, 9, 59, 98
5, 443652, Note_on_c, 9, 59, 0
5, 443840, Note_on_c, 9, 59, 46
5, 443918, Note_on_c, 9, 59, 0
5, 444154, Note_on_c, 9, 59, 87
5, 444381, Note_on_c, 9, 59, 0
5, 444474, Note_on_c, 9, 59, 57
5, 444546, Note_on_c, 9, 59, 0
5, 444809, Note_on_c, 9, 59, 65
5, 444878, Note_on_c, 9, 59, 0
5, 445132, Note_on_c, 9, 59, 98
5, 445635, Note_on_c, 9, 59, 0
5, 445769, Note_on_c, 9, 59, 64
5, 445883, Note_on_c, 9, 59, 0
5, 446071, Note_on_c, 9, 59, 96
5, 446271, Note_on_c, 9, 59, 0
5, 446397, Note_on_c, 9, 59, 90
5, 447008, Note_on_c, 9, 59, 0
5, 447360, Note_on_c, 9, 59, 94
5, 447755, Note_on_c, 9, 59, 0
5, 448003, Note_on_c, 9, 59, 67
5, 448142, Note_on_c, 9, 59, 0
5, 448314, Note_on_c, 9, 59, 84
5, 448735, Note_on_c, 9, 59, 0
5, 449286, Note_on_c, 9, 59, 97
5, 449765, Note_on_c, 9, 59, 0
5, 449932, Note_on_c, 9, 59, 66
5, 450081, Note_on_c, 9, 59, 0
5, 450246, Note_on_c, 9, 59, 78
5, 450843, Note_on_c, 9, 59, 0
5, 451212, Note_on_c, 9, 59, 76
5, 451524, Note_on_c, 9, 59, 0
5, 451828, Note_on_c, 9, 59, 52
5, 451926, Note_on_c, 9, 59, 0
5, 452151, Note_on_c, 9, 59, 85
5, 452891, Note_on_c, 9, 59, 0
5, 453132, Note_on_c, 9, 59, 85
5, 453618, Note_on_c, 9, 59, 0
5, 453772, Note_on_c, 9, 53, 36
5, 453921, Note_on_c, 9, 53, 0
5, 454080, Note_on_c, 9, 59, 52
5, 454574, Note_on_c, 9, 59, 0
5, 454723, Note_on_c, 9, 59, 51
5, 454900, Note_on_c, 9, 59, 0
5, 455040, Note_on_c, 9, 59, 66
5, 455540, Note_on_c, 9, 59, 0
5, 455683, Note_on_c, 9, 53, 49
5, 455854, Note_on_c, 9, 53, 0
5, 456009, Note_on_c, 9, 59, 58
5, 456548, Note_on_c, 9, 59, 0
5, 456637, Note_on_c, 9, 53, 49
5, 456813, Note_on_c, 9, 53, 0
5, 456957, Note_on_c, 9, 59, 54
5, 457408, Note_on_c, 9, 59, 0
5, 457932, Note_on_c, 9, 59, 62
5, 458385, Note_on_c, 9, 59, 0
5, 458874, Note_on_c, 9, 59, 91
5, 459192, Note_on_c, 9, 59, 0
5, 459852, Note_on_c, 9, 59, 99
5, 460303, Note_on_c, 9, 59, 0
5, 460809, Note_on_c, 9, 59, 103
5, 461263, Note_on_c, 9, 59, 0
5, 461440, Note_on_c, 9, 59, 72
5, 461593, Note_on_c, 9, 59, 0
5, 461754, Note_on_c, 9, 59, 82
5, 462265, Note_on_c, 9, 59, 0
5, 462732, Note_on_c, 9, 59, 95
5, 463311, Note_on_c, 9, 59, 0
5, 463668, Note_on_c, 9, 59, 43
5, 463750, Note_on_c, 9, 59, 0
5, 464320, Note_on_c, 9, 59, 80
5, 464465, Note_on_c, 9, 59, 0
5, 464631, Note_on_c, 9, 59, 82
5, 465169, Note_on_c, 9, 59, 0
5, 465588, Note_on_c, 9, 59, 87
5, 465857, Note_on_c, 9, 59, 0
5, 466554, Note_on_c, 9, 59, 73
5, 467031, Note_on_c, 9, 59, 0
5, 467523, Note_on_c, 9, 59, 79
5, 468359, Note_on_c, 9, 59, 0
5, 468483, Note_on_c, 9, 59, 61
5, 468638, Note_on_c, 9, 59, 0
5, 469132, Note_on_c, 9, 59, 84
5, 469273, Note_on_c, 9, 59, 0
5, 469452, Note_on_c, 9, 59, 71
5, 469877, Note_on_c, 9, 59, 0
5, 470400, Note_on_c, 9, 59, 83
5, 470772, Note_on_c, 9, 59, 0
5, 471354, Note_on_c, 9, 59, 71
5, 471531, Note_on_c, 9, 59, 0
5, 471994, Note_on_c, 9, 59, 84
5, 472129, Note_on_c, 9, 59, 0
5, 472329, Note_on_c, 9, 59, 84
5, 472746, Note_on_c, 9, 59, 0
5, 473292, Note_on_c, 9, 59, 64
5, 473369, Note_on_c, 9, 59, 0
5, 473929, Note_on_c, 9, 59, 84
5, 474060, Note_on_c, 9, 59, 0
5, 474252, Note_on_c, 9, 59, 79
5, 474674, Note_on_c, 9, 59, 0
5, 475209, Note_on_c, 9, 59, 71
5, 475350, Note_on_c, 9, 59, 0
5, 475831, Note_on_c, 9, 59, 85
5, 475849, Note_on_c, 9, 59, 88
5, 476004, Note_on_c, 9, 59, 0
5, 476298, Note_on_c, 9, 59, 0
5, 477129, Note_on_c, 9, 59, 76
5, 477704, Note_on_c, 9, 59, 0
5, 478074, Note_on_c, 9, 59, 72
5, 478711, Note_on_c, 9, 53, 42
5, 478728, Note_on_c, 9, 59, 0
5, 478966, Note_on_c, 9, 53, 0
5, 479692, Note_on_c, 9, 59, 67
5, 480000, Note_on_c, 9, 53, 67
5, 480059, Note_on_c, 9, 59, 0
5, 480432, Note_on_c, 9, 53, 0
5, 480957, Note_on_c, 9, 59, 61
5, 481529, Note_on_c, 9, 59, 0
5, 481923, Note_on_c, 9, 59, 76
5, 482425, Note_on_c, 9, 59, 0
5, 482889, Note_on_c, 9, 59, 76
5, 483341, Note_on_c, 9, 59, 0
5, 483837, Note_on_c, 9, 59, 80
5, 484324, Note_on_c, 9, 59, 0
5, 484788, Note_on_c, 9, 59, 76
5, 485030, Note_on_c, 9, 59, 0
5, 485440, Note_on_c, 9, 59, 78
5, 485563, Note_on_c, 9, 59, 0
5, 485763, Note_on_c, 9, 59, 81
5, 486121, Note_on_c, 9, 59, 0
5, 486391, Note_on_c, 9, 59, 76
5, 486540, Note_on_c, 9, 59, 0
5, 486708, Note_on_c, 9, 59, 76
5, 487106, Note_on_c, 9, 59, 0
5, 487674, Note_on_c, 9, 59, 81
5, 488076, Note_on_c, 9, 59, 0
5, 488643, Note_on_c, 9, 59, 82
5, 488862, Note_on_c, 9, 59, 0
5, 489271, Note_on_c, 9, 59, 71
5, 489345, Note_on_c, 9, 59, 0
5, 489597, Note_on_c, 9, 59, 77
5, 490002, Note_on_c, 9, 59, 0
5, 490560, Note_on_c, 9, 59, 82
5, 490946, Note_on_c, 9, 59, 0
5, 492154, Note_on_c, 9, 59, 79
5, 492297, Note_on_c, 9, 59, 0
5, 492486, Note_on_c, 9, 59, 80
5, 492959, Note_on_c, 9, 59, 0
5, 493428, Note_on_c, 9, 59, 79
5, 493910, Note_on_c, 9, 59, 0
5, 494403, Note_on_c, 9, 59, 62
5, 494546, Note_on_c, 9, 59, 0
5, 495034, Note_on_c, 9, 60, 73
5, 495034, Note_on_c, 9, 59, 57
5, 495081, Note_on_c, 9, 60, 0
5, 495113, Note_on_c, 9, 59, 0
5, 495354, Note_on_c, 9, 59, 78
5, 495947, Note_on_c, 9, 59, 0
5, 496314, Note_on_c, 9, 59, 86
5, 496761, Note_on_c, 9, 59, 0
5, 497283, Note_on_c, 9, 59, 85
5, 497461, Note_on_c, 9, 59, 0
5, 497923, Note_on_c, 9, 59, 75
5, 498026, Note_on_c, 9, 59, 0
5, 498243, Note_on_c, 9, 59, 84
5, 498713, Note_on_c, 9, 59, 0
5, 499200, Note_on_c, 9, 59, 69
5, 499846, Note_on_c, 9, 53, 56
5, 499898, Note_on_c, 9, 59, 0
5, 500098, Note_on_c, 9, 53, 0
5, 500160, Note_on_c, 9, 59, 64
5, 500789, Note_on_c, 9, 59, 0
5, 500812, Note_on_c, 9, 53, 70
5, 501092, Note_on_c, 9, 53, 0
5, 501117, Note_on_c, 9, 59, 56
5, 501675, Note_on_c, 9, 59, 0
5, 501757, Note_on_c, 9, 53, 81
5, 502071, Note_on_c, 9, 59, 61
5, 502093, Note_on_c, 9, 53, 0
5, 502347, Note_on_c, 9, 59, 0
5, 502726, Note_on_c, 9, 53, 77
5, 503009, Note_on_c, 9, 53, 0
5, 503031, Note_on_c, 9, 59, 58
5, 503394, Note_on_c, 9, 59, 0
5, 503680, Note_on_c, 9, 53, 68
5, 503902, Note_on_c, 9, 53, 0
5, 504009, Note_on_c, 9, 59, 63
5, 504598, Note_on_c, 9, 59, 0
5, 504954, Note_on_c, 9, 59, 67
5, 505444, Note_on_c, 9, 59, 0
5, 505914, Note_on_c, 9, 59, 61
5, 506157, Note_on_c, 9, 59, 0
5, 506889, Note_on_c, 9, 59, 65
5, 506892, Note_on_c, 9, 59, 64
5, 507036, Note_on_c, 9, 59, 0
5, 507438, Note_on_c, 9, 59, 0
5, 507828, Note_on_c, 9, 59, 80
5, 508242, Note_on_c, 9, 59, 0
5, 508788, Note_on_c, 9, 59, 83
5, 509078, Note_on_c, 9, 59, 0
5, 509428, Note_on_c, 9, 59, 77
5, 509496, Note_on_c, 9, 59, 0
5, 509769, Note_on_c, 9, 59, 81
5, 510254, Note_on_c, 9, 59, 0
5, 510723, Note_on_c, 9, 59, 82
5, 511102, Note_on_c, 9, 59, 0
5, 511363, Note_on_c, 9, 59, 69
5, 511436, Note_on_c, 9, 59, 0
5, 511668, Note_on_c, 9, 59, 75
5, 512028, Note_on_c, 9, 59, 0
5, 512643, Note_on_c, 9, 59, 87
5, 513028, Note_on_c, 9, 59, 0
5, 513268, Note_on_c, 9, 59, 50
5, 513342, Note_on_c, 9, 59, 0
5, 513594, Note_on_c, 9, 59, 93
5, 514220, Note_on_c, 9, 59, 0
5, 514566, Note_on_c, 9, 59, 82
5, 514809, Note_on_c, 9, 59, 0
5, 515200, Note_on_c, 9, 59, 77
5, 515304, Note_on_c, 9, 59, 0
5, 515520, Note_on_c, 9, 59, 84
5, 516106, Note_on_c, 9, 59, 0
5, 516492, Note_on_c, 9, 59, 87
5, 516857, Note_on_c, 9, 59, 0
5, 517440, Note_on_c, 9, 59, 84
5, 517605, Note_on_c, 9, 59, 0
5, 518080, Note_on_c, 9, 59, 88
5, 518199, Note_on_c, 9, 59, 0
5, 518400, Note_on_c, 9, 59, 87
5, 518936, Note_on_c, 9, 59, 0
5, 519677, Note_on_c, 9, 59, 85
5, 519803, Note_on_c, 9, 59, 0
5, 519994, Note_on_c, 9, 59, 85
5, 520122, Note_on_c, 9, 59, 0
5, 520317, Note_on_c, 9, 59, 95
5, 520758, Note_on_c, 9, 59, 0
5, 521609, Note_on_c, 9, 59, 80
5, 521736, Note_on_c, 9, 59, 0
5, 521908, Note_on_c, 9, 59, 96
5, 522240, Note_on_c, 9, 59, 0
5, 522569, Note_on_c, 9, 59, 58
5, 522695, Note_on_c, 9, 59, 0
5, 522883, Note_on_c, 9, 59, 86
5, 523000, Note_on_c, 9, 59, 0
5, 523197, Note_on_c, 9, 59, 97
5, 523627, Note_on_c, 9, 59, 0
5, 523852, Note_on_c, 9, 59, 71
5, 523980, Note_on_c, 9, 59, 0
5, 524166, Note_on_c, 9, 59, 86
5, 524703, Note_on_c, 9, 59, 0
5, 525108, Note_on_c, 9, 59, 89
5, 525556, Note_on_c, 9, 59, 0
5, 526089, Note_on_c, 9, 59, 72
5, 526627, Note_on_c, 9, 59, 0
5, 526708, Note_on_c, 9, 53, 48
5, 526875, Note_on_c, 9, 53, 0
5, 527046, Note_on_c, 9, 59, 60
5, 527727, Note_on_c, 9, 59, 0
5, 528012, Note_on_c, 9, 59, 73
5, 528628, Note_on_c, 9, 53, 46
5, 528681, Note_on_c, 9, 59, 0
5, 528789, Note_on_c, 9, 53, 0
5, 528960, Note_on_c, 9, 59, 65
5, 529221, Note_on_c, 9, 59, 0
5, 529597, Note_on_c, 9, 59, 93
5, 529793, Note_on_c, 9, 59, 0
5, 529929, Note_on_c, 9, 59, 77
5, 530557, Note_on_c, 9, 53, 43
5, 530599, Note_on_c, 9, 59, 0
5, 530780, Note_on_c, 9, 53, 0
5, 530892, Note_on_c, 9, 59, 78
5, 531598, Note_on_c, 9, 59, 0
5, 531837, Note_on_c, 9, 59, 68
5, 532297, Note_on_c, 9, 59, 0
5, 532489, Note_on_c, 9, 59, 62
5, 532647, Note_on_c, 9, 59, 0
5, 532809, Note_on_c, 9, 59, 66
5, 533371, Note_on_c, 9, 59, 0
5, 533751, Note_on_c, 9, 59, 74
5, 534335, Note_on_c, 9, 59, 0
5, 534708, Note_on_c, 9, 59, 78
5, 535224, Note_on_c, 9, 59, 0
5, 535671, Note_on_c, 9, 59, 78
5, 536234, Note_on_c, 9, 59, 0
5, 536640, Note_on_c, 9, 59, 80
5, 537147, Note_on_c, 9, 59, 0
5, 537600, Note_on_c, 9, 59, 75
5, 537964, Note_on_c, 9, 59, 0
5, 538240, Note_on_c, 9, 59, 63
5, 538394, Note_on_c, 9, 59, 0
5, 538569, Note_on_c, 9, 59, 69
5, 539245, Note_on_c, 9, 59, 0
5, 539511, Note_on_c, 9, 59, 75
5, 540092, Note_on_c, 9, 59, 0
5, 541108, Note_on_c, 9, 59, 65
5, 541288, Note_on_c, 9, 59, 0
5, 541428, Note_on_c, 9, 59, 69
5, 542141, Note_on_c, 9, 59, 0
5, 543040, Note_on_c, 9, 59, 69
5, 543196, Note_on_c, 9, 59, 0
5, 543351, Note_on_c, 9, 59, 67
5, 543966, Note_on_c, 9, 59, 0
5, 544006, Note_on_c, 9, 53, 62
5, 544201, Note_on_c, 9, 53, 0
5, 544326, Note_on_c, 9, 59, 71
5, 544835, Note_on_c, 9, 59, 0
5, 545268, Note_on_c, 9, 59, 69
5, 545604, Note_on_c, 9, 59, 0
5, 546249, Note_on_c, 9, 59, 84
5, 546450, Note_on_c, 9, 59, 0
5, 546877, Note_on_c, 9, 59, 75
5, 546979, Note_on_c, 9, 59, 0
5, 547212, Note_on_c, 9, 59, 84
5, 547598, Note_on_c, 9, 59, 0
5, 548163, Note_on_c, 9, 59, 84
5, 548537, Note_on_c, 9, 59, 0
5, 549129, Note_on_c, 9, 59, 78
5, 549438, Note_on_c, 9, 59, 0
5, 549748, Note_on_c, 9, 59, 73
5, 549913, Note_on_c, 9, 59, 0
5, 549913, End_track
0, 0, End_of_file
