0, 0, Header, 1, 6, 960
1, 0, Start_track
1, 0, Title_t, "Old Folks"
1, 0, Text_t, "dougmck@pipeline.com.au"
1, 0, Text_t, "This is one of the tunes that seems to invite bluesy/gospelly kind of playing, especially at the end of each 8 bar section. There are some excellent piano versions around - including several by Oscar Peterson.\012"
1, 0, Time_signature, 4, 2, 24, 8
1, 0, Key_signature, -5, "major"
1, 0, Tempo, 600000
1, 41505, Marker_t, "On Gm7 & C7 neighbour tones on nmain chord tones"
1, 65498, Marker_t, "Series of minor 11th voicings descending chromatically to Em7b5"
1, 77775, Marker_t, "Series of notes in pairs fingered thumb and index finger to better accent appropriately"
1, 91538, Marker_t, "On Am7b5 - D7alt an easy run Eb(3),G(5),Eb(3),C(2),A(1),Ab(3),G(1),Gb(3),F(2),E(1),Eb(3) etc"
1, 110713, Marker_t, "Gospelly lick leads to G7"
1, 115200, Marker_t, "Similar lick leads to C7"
1, 120203, Marker_t, "Blues scale lick leads to F"
1, 150353, Marker_t, "On Eb7 the half/whole step diminidhed scale"
1, 237593, Marker_t, "Right and Left H ands in unison an octave apart"
1, 242903, Marker_t, "On C7 half/whole steep diminished scale as above"
1, 245760, Marker_t, "Line over C7 is made from chord tones 'surrounded' by upper and lower neighbour tones."
1, 261120, Marker_t, "In tempo with bass and drums"
1, 276086, Marker_t, "On Gm7 - C7 main chord tones surrounded by diatonic neighbour tones"
1, 292778, Marker_t, "On Em7b5 scale tones (E locrian=F Major scale) played with upper neighbour"
1, 317611, Marker_t, "LH Piano plays on dominant with grace note - a la Oscar Peterson"
1, 345969, Marker_t, "'Locked hands' - chords in close position with top note doubled by L Hand below"
1, 354609, Marker_t, "On C7 voicing moves up by minor 3rds"
1, 369309, Marker_t, "Tremolo in RH"
1, 384000, Marker_t, "'A' section repeated by piano only"
1, 384000, End_track
2, 0, Start_track
2, 0, End_track
3, 0, Start_track
3, 0, Title_t, "Piano"
3, 0, Control_c, 0, 7, 72
3, 199, Note_on_c, 0, 84, 94
3, 537, Control_c, 0, 64, 127
3, 654, Note_on_c, 0, 84, 0
3, 701, Note_on_c, 0, 82, 60
3, 1310, Note_on_c, 0, 82, 0
3, 1329, Note_on_c, 0, 52, 29
3, 1331, Note_on_c, 0, 81, 47
3, 1401, Control_c, 0, 64, 0
3, 1526, Control_c, 0, 64, 127
3, 1958, Note_on_c, 0, 58, 33
3, 2098, Note_on_c, 0, 81, 0
3, 2597, Note_on_c, 0, 62, 39
3, 2609, Note_on_c, 0, 52, 0
3, 2654, Note_on_c, 0, 58, 0
3, 3091, Note_on_c, 0, 74, 55
3, 3112, Note_on_c, 0, 62, 0
3, 3279, Note_on_c, 0, 74, 0
3, 3334, Note_on_c, 0, 81, 62
3, 3570, Note_on_c, 0, 70, 74
3, 3822, Note_on_c, 0, 69, 62
3, 4073, Note_on_c, 0, 81, 0
3, 4117, Note_on_c, 0, 74, 61
3, 4433, Note_on_c, 0, 81, 53
3, 4449, Note_on_c, 0, 69, 0
3, 4867, Note_on_c, 0, 67, 41
3, 5257, Note_on_c, 0, 81, 0
3, 5371, Note_on_c, 0, 79, 46
3, 5813, Note_on_c, 0, 77, 60
3, 5818, Note_on_c, 0, 79, 0
3, 5840, Note_on_c, 0, 67, 0
3, 5976, Note_on_c, 0, 70, 0
3, 6185, Note_on_c, 0, 74, 0
3, 6197, Note_on_c, 0, 70, 50
3, 6766, Note_on_c, 0, 72, 32
3, 6772, Note_on_c, 0, 70, 0
3, 6815, Note_on_c, 0, 45, 32
3, 6868, Control_c, 0, 64, 0
3, 7038, Control_c, 0, 64, 127
3, 7193, Note_on_c, 0, 77, 0
3, 7261, Note_on_c, 0, 73, 60
3, 7286, Note_on_c, 0, 45, 0
3, 7317, Note_on_c, 0, 72, 0
3, 7718, Note_on_c, 0, 70, 62
3, 7754, Note_on_c, 0, 61, 35
3, 8299, Note_on_c, 0, 67, 54
3, 8331, Note_on_c, 0, 64, 31
3, 8856, Note_on_c, 0, 70, 0
3, 8924, Note_on_c, 0, 69, 77
3, 8925, Note_on_c, 0, 73, 0
3, 8993, Note_on_c, 0, 67, 0
3, 9308, Note_on_c, 0, 69, 0
3, 9413, Note_on_c, 0, 76, 92
3, 9992, Note_on_c, 0, 64, 0
3, 10052, Note_on_c, 0, 67, 62
3, 10389, Note_on_c, 0, 61, 0
3, 10413, Note_on_c, 0, 76, 0
3, 10669, Note_on_c, 0, 66, 48
3, 11187, Note_on_c, 0, 67, 0
3, 11188, Note_on_c, 0, 66, 0
3, 11237, Note_on_c, 0, 65, 53
3, 11252, Note_on_c, 0, 50, 28
3, 11281, Control_c, 0, 64, 0
3, 11383, Control_c, 0, 64, 127
3, 11592, Note_on_c, 0, 65, 0
3, 11624, Note_on_c, 0, 77, 65
3, 11659, Note_on_c, 0, 57, 24
3, 11956, Note_on_c, 0, 77, 0
3, 12010, Note_on_c, 0, 64, 55
3, 12312, Note_on_c, 0, 50, 0
3, 12373, Note_on_c, 0, 64, 0
3, 12395, Note_on_c, 0, 63, 56
3, 12519, Note_on_c, 0, 57, 0
3, 12809, Note_on_c, 0, 62, 55
3, 12822, Note_on_c, 0, 49, 37
3, 12864, Control_c, 0, 64, 0
3, 12941, Note_on_c, 0, 63, 0
3, 13213, Control_c, 0, 64, 127
3, 13214, Note_on_c, 0, 59, 39
3, 13638, Note_on_c, 0, 63, 80
3, 13723, Note_on_c, 0, 62, 0
3, 13974, Note_on_c, 0, 49, 0
3, 14020, Note_on_c, 0, 63, 0
3, 14047, Note_on_c, 0, 65, 83
3, 14068, Note_on_c, 0, 49, 42
3, 14219, Note_on_c, 0, 59, 0
3, 14459, Note_on_c, 0, 49, 0
3, 14464, Note_on_c, 0, 65, 0
3, 14535, Note_on_c, 0, 67, 51
3, 14544, Note_on_c, 0, 63, 67
3, 14579, Note_on_c, 0, 48, 54
3, 14590, Note_on_c, 0, 58, 44
3, 14604, Control_c, 0, 64, 0
3, 14930, Control_c, 0, 64, 127
3, 14977, Note_on_c, 0, 67, 0
3, 15031, Note_on_c, 0, 65, 50
3, 15046, Note_on_c, 0, 58, 0
3, 15048, Note_on_c, 0, 69, 71
3, 15049, Note_on_c, 0, 55, 54
3, 15105, Note_on_c, 0, 63, 0
3, 15563, Note_on_c, 0, 58, 51
3, 15588, Note_on_c, 0, 65, 0
3, 15909, Note_on_c, 0, 48, 0
3, 15916, Note_on_c, 0, 69, 0
3, 16103, Note_on_c, 0, 67, 73
3, 16112, Note_on_c, 0, 70, 69
3, 16117, Note_on_c, 0, 48, 46
3, 16166, Note_on_c, 0, 55, 0
3, 16172, Note_on_c, 0, 58, 0
3, 16282, Note_on_c, 0, 48, 0
3, 16562, Note_on_c, 0, 67, 0
3, 16600, Note_on_c, 0, 70, 0
3, 16736, Note_on_c, 0, 71, 45
3, 16738, Note_on_c, 0, 66, 62
3, 16760, Control_c, 0, 64, 0
3, 16763, Note_on_c, 0, 41, 48
3, 16906, Note_on_c, 0, 41, 0
3, 16939, Control_c, 0, 64, 127
3, 17182, Note_on_c, 0, 66, 0
3, 17247, Note_on_c, 0, 71, 0
3, 17330, Note_on_c, 0, 72, 43
3, 17343, Note_on_c, 0, 66, 33
3, 17349, Note_on_c, 0, 51, 44
3, 17362, Note_on_c, 0, 62, 42
3, 17750, Note_on_c, 0, 71, 8
3, 17764, Note_on_c, 0, 72, 0
3, 18039, Note_on_c, 0, 62, 0
3, 18072, Note_on_c, 0, 71, 0
3, 18150, Note_on_c, 0, 62, 17
3, 18151, Note_on_c, 0, 74, 58
3, 18196, Note_on_c, 0, 57, 22
3, 18748, Note_on_c, 0, 74, 0
3, 18778, Note_on_c, 0, 51, 0
3, 19092, Note_on_c, 0, 62, 0
3, 19132, Note_on_c, 0, 75, 57
3, 19162, Note_on_c, 0, 51, 37
3, 19278, Note_on_c, 0, 57, 0
3, 19492, Note_on_c, 0, 66, 0
3, 19780, Note_on_c, 0, 75, 0
3, 20042, Note_on_c, 0, 76, 66
3, 20048, Control_c, 0, 64, 0
3, 20063, Note_on_c, 0, 67, 61
3, 20072, Note_on_c, 0, 51, 0
3, 20084, Note_on_c, 0, 46, 35
3, 20217, Control_c, 0, 64, 127
3, 20441, Note_on_c, 0, 67, 0
3, 20479, Note_on_c, 0, 76, 0
3, 20571, Note_on_c, 0, 77, 71
3, 20584, Note_on_c, 0, 69, 68
3, 20608, Note_on_c, 0, 53, 54
3, 20671, Note_on_c, 0, 46, 0
3, 20736, Note_on_c, 0, 69, 0
3, 20784, Note_on_c, 0, 77, 0
3, 21065, Note_on_c, 0, 53, 0
3, 21096, Note_on_c, 0, 81, 64
3, 21112, Note_on_c, 0, 60, 47
3, 21117, Note_on_c, 0, 72, 50
3, 21257, Note_on_c, 0, 81, 0
3, 21315, Note_on_c, 0, 60, 0
3, 21372, Note_on_c, 0, 72, 0
3, 21628, Note_on_c, 0, 84, 89
3, 21630, Note_on_c, 0, 77, 87
3, 21646, Note_on_c, 0, 64, 41
3, 21766, Note_on_c, 0, 64, 0
3, 22097, Note_on_c, 0, 77, 0
3, 22100, Note_on_c, 0, 84, 0
3, 22303, Note_on_c, 0, 84, 72
3, 22325, Note_on_c, 0, 77, 64
3, 22332, Note_on_c, 0, 65, 33
3, 22349, Control_c, 0, 64, 0
3, 22354, Note_on_c, 0, 62, 29
3, 22355, Note_on_c, 0, 60, 30
3, 22357, Note_on_c, 0, 72, 36
3, 22530, Control_c, 0, 64, 127
3, 22645, Note_on_c, 0, 65, 0
3, 22768, Note_on_c, 0, 84, 0
3, 22980, Note_on_c, 0, 84, 66
3, 23009, Note_on_c, 0, 53, 41
3, 23392, Note_on_c, 0, 60, 0
3, 23437, Note_on_c, 0, 84, 0
3, 23473, Note_on_c, 0, 72, 0
3, 23486, Note_on_c, 0, 62, 0
3, 23526, Note_on_c, 0, 77, 0
3, 23652, Note_on_c, 0, 84, 57
3, 23699, Note_on_c, 0, 65, 38
3, 23703, Note_on_c, 0, 62, 24
3, 23704, Note_on_c, 0, 60, 33
3, 23709, Note_on_c, 0, 77, 48
3, 23751, Note_on_c, 0, 72, 29
3, 23839, Note_on_c, 0, 65, 0
3, 23972, Note_on_c, 0, 53, 0
3, 24082, Note_on_c, 0, 84, 0
3, 24348, Note_on_c, 0, 84, 74
3, 24368, Note_on_c, 0, 53, 43
3, 24570, Note_on_c, 0, 62, 0
3, 24580, Note_on_c, 0, 60, 0
3, 24601, Note_on_c, 0, 72, 0
3, 24757, Note_on_c, 0, 84, 0
3, 24782, Note_on_c, 0, 53, 0
3, 24845, Note_on_c, 0, 77, 0
3, 24970, Note_on_c, 0, 60, 37
3, 24973, Note_on_c, 0, 84, 57
3, 25010, Note_on_c, 0, 61, 46
3, 25018, Note_on_c, 0, 81, 49
3, 25033, Note_on_c, 0, 77, 54
3, 25045, Control_c, 0, 64, 0
3, 25046, Note_on_c, 0, 65, 32
3, 25102, Note_on_c, 0, 73, 13
3, 25359, Control_c, 0, 64, 127
3, 25440, Note_on_c, 0, 60, 0
3, 25492, Note_on_c, 0, 84, 0
3, 25584, Note_on_c, 0, 81, 0
3, 25619, Note_on_c, 0, 84, 72
3, 25630, Note_on_c, 0, 55, 47
3, 25714, Note_on_c, 0, 65, 0
3, 25742, Note_on_c, 0, 55, 0
3, 25744, Note_on_c, 0, 61, 0
3, 26141, Note_on_c, 0, 84, 0
3, 26288, Note_on_c, 0, 27, 50
3, 26291, Note_on_c, 0, 84, 66
3, 26352, Note_on_c, 0, 27, 0
3, 27038, Note_on_c, 0, 61, 27
3, 27500, Note_on_c, 0, 73, 0
3, 27720, Note_on_c, 0, 73, 28
3, 27765, Note_on_c, 0, 65, 31
3, 28031, Note_on_c, 0, 84, 0
3, 28448, Note_on_c, 0, 82, 81
3, 28480, Note_on_c, 0, 77, 0
3, 28586, Note_on_c, 0, 73, 0
3, 28943, Note_on_c, 0, 77, 68
3, 28950, Note_on_c, 0, 82, 0
3, 29514, Note_on_c, 0, 65, 0
3, 29654, Note_on_c, 0, 61, 0
3, 30082, Note_on_c, 0, 79, 53
3, 30245, Note_on_c, 0, 77, 0
3, 31239, Note_on_c, 0, 81, 60
3, 31249, Note_on_c, 0, 79, 0
3, 31259, Note_on_c, 0, 45, 32
3, 31263, Control_c, 0, 64, 0
3, 31286, Control_c, 0, 64, 127
3, 31393, Note_on_c, 0, 45, 0
3, 31862, Note_on_c, 0, 60, 41
3, 32176, Note_on_c, 0, 60, 0
3, 32183, Note_on_c, 0, 63, 56
3, 32228, Note_on_c, 0, 81, 0
3, 32452, Note_on_c, 0, 67, 61
3, 32684, Note_on_c, 0, 67, 0
3, 32711, Note_on_c, 0, 72, 57
3, 32906, Note_on_c, 0, 72, 0
3, 32950, Note_on_c, 0, 75, 69
3, 33040, Note_on_c, 0, 75, 0
3, 33187, Note_on_c, 0, 79, 71
3, 33284, Note_on_c, 0, 79, 0
3, 33449, Note_on_c, 0, 84, 96
3, 33619, Note_on_c, 0, 84, 0
3, 33724, Note_on_c, 0, 87, 84
3, 33917, Note_on_c, 0, 87, 0
3, 34352, Note_on_c, 0, 91, 53
3, 34482, Note_on_c, 0, 91, 0
3, 34588, Note_on_c, 0, 96, 72
3, 34730, Note_on_c, 0, 96, 0
3, 34808, Note_on_c, 0, 63, 0
3, 34813, Note_on_c, 0, 99, 82
3, 34847, Note_on_c, 0, 100, 65
3, 34950, Note_on_c, 0, 100, 0
3, 34969, Note_on_c, 0, 99, 0
3, 35042, Note_on_c, 0, 101, 74
3, 35053, Note_on_c, 0, 100, 68
3, 35091, Note_on_c, 0, 100, 0
3, 35176, Note_on_c, 0, 101, 0
3, 35280, Note_on_c, 0, 102, 76
3, 35479, Note_on_c, 0, 102, 0
3, 35550, Note_on_c, 0, 103, 65
3, 35746, Note_on_c, 0, 103, 0
3, 35852, Note_on_c, 0, 104, 44
3, 36139, Note_on_c, 0, 104, 0
3, 36218, Note_on_c, 0, 105, 57
3, 36237, Note_on_c, 0, 50, 34
3, 36246, Note_on_c, 0, 60, 24
3, 36653, Note_on_c, 0, 105, 0
3, 36809, Note_on_c, 0, 89, 73
3, 37000, Control_c, 0, 64, 0
3, 37050, Note_on_c, 0, 60, 0
3, 37069, Note_on_c, 0, 50, 0
3, 37304, Note_on_c, 0, 87, 64
3, 37312, Note_on_c, 0, 89, 0
3, 37618, Note_on_c, 0, 86, 77
3, 37643, Control_c, 0, 64, 127
3, 37657, Note_on_c, 0, 87, 0
3, 37864, Note_on_c, 0, 84, 71
3, 37886, Note_on_c, 0, 86, 0
3, 38043, Note_on_c, 0, 84, 0
3, 38072, Note_on_c, 0, 78, 52
3, 38277, Note_on_c, 0, 78, 0
3, 38302, Note_on_c, 0, 77, 44
3, 38497, Note_on_c, 0, 77, 0
3, 38519, Note_on_c, 0, 75, 57
3, 38598, Note_on_c, 0, 50, 25
3, 38618, Note_on_c, 0, 60, 19
3, 38676, Control_c, 0, 64, 0
3, 38733, Note_on_c, 0, 75, 0
3, 38785, Note_on_c, 0, 74, 49
3, 39036, Control_c, 0, 64, 127
3, 39103, Note_on_c, 0, 54, 33
3, 39111, Note_on_c, 0, 74, 0
3, 39136, Note_on_c, 0, 72, 26
3, 39203, Note_on_c, 0, 60, 0
3, 39430, Note_on_c, 0, 72, 0
3, 39545, Note_on_c, 0, 70, 42
3, 40541, Note_on_c, 0, 70, 0
3, 40571, Note_on_c, 0, 69, 53
3, 40611, Note_on_c, 0, 50, 0
3, 40704, Note_on_c, 0, 54, 0
3, 40813, Note_on_c, 0, 69, 0
3, 40816, Note_on_c, 0, 70, 68
3, 40917, Note_on_c, 0, 70, 0
3, 41011, Control_c, 0, 64, 0
3, 41041, Note_on_c, 0, 74, 62
3, 41152, Note_on_c, 0, 74, 0
3, 41275, Note_on_c, 0, 78, 53
3, 41360, Note_on_c, 0, 78, 0
3, 41493, Note_on_c, 0, 81, 67
3, 41600, Note_on_c, 0, 81, 0
3, 41685, Control_c, 0, 64, 127
3, 41686, Note_on_c, 0, 84, 88
3, 41834, Note_on_c, 0, 84, 0
3, 41862, Note_on_c, 0, 43, 53
3, 41906, Note_on_c, 0, 82, 69
3, 41931, Note_on_c, 0, 43, 0
3, 42083, Note_on_c, 0, 82, 0
3, 42141, Note_on_c, 0, 78, 43
3, 42249, Note_on_c, 0, 78, 0
3, 42338, Note_on_c, 0, 81, 71
3, 42355, Note_on_c, 0, 57, 55
3, 42358, Control_c, 0, 64, 0
3, 42508, Note_on_c, 0, 81, 0
3, 42570, Note_on_c, 0, 78, 37
3, 42666, Note_on_c, 0, 78, 0
3, 42766, Note_on_c, 0, 79, 66
3, 42789, Note_on_c, 0, 58, 40
3, 42790, Note_on_c, 0, 57, 0
3, 42798, Note_on_c, 0, 62, 33
3, 42980, Note_on_c, 0, 79, 0
3, 43007, Note_on_c, 0, 78, 57
3, 43037, Note_on_c, 0, 62, 0
3, 43129, Note_on_c, 0, 58, 0
3, 43169, Note_on_c, 0, 78, 0
3, 43224, Note_on_c, 0, 77, 56
3, 43325, Control_c, 0, 64, 127
3, 43437, Note_on_c, 0, 77, 0
3, 43450, Note_on_c, 0, 75, 62
3, 43627, Note_on_c, 0, 75, 0
3, 43690, Note_on_c, 0, 77, 57
3, 43694, Control_c, 0, 64, 0
3, 43719, Note_on_c, 0, 48, 38
3, 43723, Note_on_c, 0, 58, 31
3, 43887, Note_on_c, 0, 77, 0
3, 43936, Note_on_c, 0, 75, 45
3, 44106, Note_on_c, 0, 75, 0
3, 44158, Note_on_c, 0, 76, 64
3, 44363, Note_on_c, 0, 76, 0
3, 44383, Note_on_c, 0, 73, 52
3, 44623, Note_on_c, 0, 72, 37
3, 44626, Note_on_c, 0, 73, 0
3, 44889, Note_on_c, 0, 72, 0
3, 44920, Note_on_c, 0, 70, 42
3, 45160, Note_on_c, 0, 70, 0
3, 45204, Note_on_c, 0, 69, 41
3, 45222, Control_c, 0, 64, 127
3, 45489, Note_on_c, 0, 48, 0
3, 45492, Note_on_c, 0, 58, 0
3, 45503, Note_on_c, 0, 69, 0
3, 45541, Note_on_c, 0, 67, 39
3, 45950, Control_c, 0, 64, 0
3, 45951, Note_on_c, 0, 67, 0
3, 45956, Note_on_c, 0, 45, 36
3, 46007, Note_on_c, 0, 70, 50
3, 46220, Control_c, 0, 64, 127
3, 46294, Note_on_c, 0, 45, 0
3, 46559, Note_on_c, 0, 67, 73
3, 46560, Note_on_c, 0, 70, 0
3, 46855, Note_on_c, 0, 67, 0
3, 46872, Note_on_c, 0, 69, 83
3, 46889, Note_on_c, 0, 61, 39
3, 46893, Control_c, 0, 64, 0
3, 46897, Note_on_c, 0, 65, 35
3, 46904, Note_on_c, 0, 60, 35
3, 46936, Note_on_c, 0, 55, 32
3, 47142, Note_on_c, 0, 70, 81
3, 47197, Note_on_c, 0, 69, 0
3, 47377, Note_on_c, 0, 70, 0
3, 47427, Note_on_c, 0, 72, 65
3, 47657, Control_c, 0, 64, 127
3, 47738, Note_on_c, 0, 73, 60
3, 47766, Note_on_c, 0, 72, 0
3, 47823, Note_on_c, 0, 65, 0
3, 47959, Note_on_c, 0, 73, 0
3, 48055, Note_on_c, 0, 77, 57
3, 48065, Note_on_c, 0, 65, 29
3, 48333, Note_on_c, 0, 65, 0
3, 48352, Note_on_c, 0, 77, 0
3, 48361, Note_on_c, 0, 60, 0
3, 48398, Note_on_c, 0, 81, 62
3, 48400, Note_on_c, 0, 55, 0
3, 48409, Note_on_c, 0, 61, 0
3, 48700, Note_on_c, 0, 81, 0
3, 48759, Note_on_c, 0, 54, 32
3, 48769, Note_on_c, 0, 82, 53
3, 48780, Control_c, 0, 64, 0
3, 48794, Note_on_c, 0, 60, 34
3, 48799, Note_on_c, 0, 65, 22
3, 49084, Note_on_c, 0, 82, 0
3, 49109, Note_on_c, 0, 83, 50
3, 49307, Control_c, 0, 64, 127
3, 49486, Note_on_c, 0, 65, 0
3, 49502, Note_on_c, 0, 83, 0
3, 49522, Note_on_c, 0, 60, 0
3, 49538, Note_on_c, 0, 84, 49
3, 49600, Note_on_c, 0, 54, 0
3, 49959, Control_c, 0, 64, 0
3, 49967, Note_on_c, 0, 72, 26
3, 49969, Note_on_c, 0, 50, 33
3, 50031, Note_on_c, 0, 84, 0
3, 50216, Control_c, 0, 64, 127
3, 50396, Note_on_c, 0, 72, 0
3, 50519, Note_on_c, 0, 72, 32
3, 50538, Note_on_c, 0, 57, 28
3, 50998, Note_on_c, 0, 72, 0
3, 51150, Note_on_c, 0, 72, 26
3, 51158, Note_on_c, 0, 62, 32
3, 51643, Note_on_c, 0, 62, 0
3, 51836, Note_on_c, 0, 60, 37
3, 52197, Note_on_c, 0, 57, 0
3, 52349, Note_on_c, 0, 72, 0
3, 52570, Note_on_c, 0, 57, 27
3, 52598, Note_on_c, 0, 60, 0
3, 52883, Note_on_c, 0, 57, 0
3, 53017, Note_on_c, 0, 50, 0
3, 53473, Control_c, 0, 64, 0
3, 53491, Note_on_c, 0, 59, 66
3, 53492, Note_on_c, 0, 64, 67
3, 53498, Note_on_c, 0, 69, 64
3, 53503, Note_on_c, 0, 43, 36
3, 53506, Note_on_c, 0, 53, 44
3, 53773, Note_on_c, 0, 64, 0
3, 53873, Note_on_c, 0, 63, 57
3, 54240, Note_on_c, 0, 63, 0
3, 54304, Note_on_c, 0, 62, 52
3, 54606, Control_c, 0, 64, 127
3, 55427, Note_on_c, 0, 62, 0
3, 55674, Note_on_c, 0, 59, 0
3, 55846, Note_on_c, 0, 61, 76
3, 55942, Control_c, 0, 64, 0
3, 55997, Note_on_c, 0, 69, 0
3, 56054, Note_on_c, 0, 61, 0
3, 56068, Note_on_c, 0, 62, 76
3, 56255, Note_on_c, 0, 62, 0
3, 56313, Note_on_c, 0, 65, 81
3, 56516, Note_on_c, 0, 65, 0
3, 56550, Note_on_c, 0, 67, 79
3, 56738, Note_on_c, 0, 67, 0
3, 56795, Note_on_c, 0, 65, 65
3, 56847, Note_on_c, 0, 67, 31
3, 56909, Note_on_c, 0, 67, 0
3, 56986, Control_c, 0, 64, 127
3, 56988, Note_on_c, 0, 43, 0
3, 56994, Note_on_c, 0, 53, 0
3, 57019, Control_c, 0, 64, 0
3, 57021, Note_on_c, 0, 65, 0
3, 57092, Note_on_c, 0, 63, 56
3, 57104, Note_on_c, 0, 69, 58
3, 57106, Note_on_c, 0, 59, 53
3, 57147, Note_on_c, 0, 43, 27
3, 57148, Note_on_c, 0, 53, 32
3, 57185, Note_on_c, 0, 63, 0
3, 57192, Note_on_c, 0, 64, 66
3, 57426, Note_on_c, 0, 64, 0
3, 57555, Note_on_c, 0, 63, 51
3, 57693, Control_c, 0, 64, 127
3, 57715, Control_c, 0, 64, 0
3, 57982, Note_on_c, 0, 59, 0
3, 58001, Note_on_c, 0, 63, 0
3, 58046, Note_on_c, 0, 62, 60
3, 58047, Note_on_c, 0, 59, 15
3, 58108, Control_c, 0, 64, 127
3, 58833, Note_on_c, 0, 59, 0
3, 58847, Note_on_c, 0, 62, 0
3, 58902, Note_on_c, 0, 69, 0
3, 58970, Note_on_c, 0, 62, 81
3, 59406, Note_on_c, 0, 65, 80
3, 59479, Note_on_c, 0, 62, 0
3, 59810, Note_on_c, 0, 65, 0
3, 59856, Note_on_c, 0, 67, 69
3, 59963, Note_on_c, 0, 53, 0
3, 60051, Note_on_c, 0, 43, 0
3, 60390, Note_on_c, 0, 67, 0
3, 60629, Note_on_c, 0, 36, 57
3, 60748, Control_c, 0, 64, 0
3, 60763, Note_on_c, 0, 43, 27
3, 60765, Note_on_c, 0, 58, 38
3, 60842, Note_on_c, 0, 62, 57
3, 60858, Note_on_c, 0, 52, 32
3, 60869, Note_on_c, 0, 66, 55
3, 60892, Note_on_c, 0, 69, 68
3, 61005, Control_c, 0, 64, 127
3, 61163, Note_on_c, 0, 58, 0
3, 61174, Note_on_c, 0, 62, 0
3, 61204, Note_on_c, 0, 66, 0
3, 61240, Note_on_c, 0, 69, 0
3, 61459, Note_on_c, 0, 69, 61
3, 61500, Note_on_c, 0, 81, 45
3, 61519, Note_on_c, 0, 69, 0
3, 61633, Note_on_c, 0, 81, 0
3, 61844, Note_on_c, 0, 74, 54
3, 61927, Note_on_c, 0, 86, 70
3, 61961, Note_on_c, 0, 74, 0
3, 62030, Note_on_c, 0, 86, 0
3, 62366, Note_on_c, 0, 81, 42
3, 62422, Note_on_c, 0, 93, 61
3, 62701, Note_on_c, 0, 81, 0
3, 62814, Note_on_c, 0, 93, 0
3, 62911, Note_on_c, 0, 81, 40
3, 62985, Note_on_c, 0, 93, 60
3, 63471, Note_on_c, 0, 93, 0
3, 63478, Note_on_c, 0, 91, 54
3, 63832, Note_on_c, 0, 91, 0
3, 64020, Note_on_c, 0, 91, 68
3, 64140, Note_on_c, 0, 36, 0
3, 64321, Note_on_c, 0, 43, 0
3, 64551, Note_on_c, 0, 52, 0
3, 64971, Note_on_c, 0, 91, 0
3, 65055, Note_on_c, 0, 81, 0
3, 65453, Note_on_c, 0, 72, 71
3, 65866, Note_on_c, 0, 72, 0
3, 66272, Note_on_c, 0, 72, 64
3, 66300, Note_on_c, 0, 62, 53
3, 66301, Note_on_c, 0, 69, 62
3, 66314, Note_on_c, 0, 58, 40
3, 66324, Note_on_c, 0, 60, 44
3, 66331, Note_on_c, 0, 65, 45
3, 66360, Control_c, 0, 64, 0
3, 66551, Control_c, 0, 64, 127
3, 66686, Note_on_c, 0, 72, 0
3, 66836, Note_on_c, 0, 72, 51
3, 66881, Note_on_c, 0, 65, 0
3, 66898, Note_on_c, 0, 60, 0
3, 66932, Note_on_c, 0, 62, 0
3, 67020, Note_on_c, 0, 58, 0
3, 67025, Note_on_c, 0, 69, 0
3, 67142, Note_on_c, 0, 72, 0
3, 67331, Note_on_c, 0, 71, 57
3, 67338, Note_on_c, 0, 61, 36
3, 67342, Note_on_c, 0, 68, 47
3, 67348, Control_c, 0, 64, 0
3, 67350, Note_on_c, 0, 59, 50
3, 67371, Note_on_c, 0, 64, 45
3, 67386, Note_on_c, 0, 57, 34
3, 67527, Control_c, 0, 64, 127
3, 67695, Note_on_c, 0, 59, 0
3, 67728, Note_on_c, 0, 57, 0
3, 67794, Note_on_c, 0, 71, 0
3, 67798, Note_on_c, 0, 64, 0
3, 67823, Note_on_c, 0, 61, 0
3, 67924, Note_on_c, 0, 68, 0
3, 68165, Note_on_c, 0, 70, 49
3, 68173, Note_on_c, 0, 63, 37
3, 68188, Note_on_c, 0, 56, 30
3, 68190, Control_c, 0, 64, 0
3, 68192, Note_on_c, 0, 67, 46
3, 68209, Note_on_c, 0, 58, 26
3, 68255, Note_on_c, 0, 60, 10
3, 68380, Control_c, 0, 64, 127
3, 68556, Note_on_c, 0, 58, 0
3, 68627, Note_on_c, 0, 60, 0
3, 68658, Note_on_c, 0, 56, 0
3, 68800, Note_on_c, 0, 67, 0
3, 68833, Note_on_c, 0, 63, 0
3, 69063, Note_on_c, 0, 70, 0
3, 69267, Control_c, 0, 64, 0
3, 69303, Note_on_c, 0, 52, 34
3, 69308, Note_on_c, 0, 58, 26
3, 69312, Note_on_c, 0, 62, 39
3, 69315, Note_on_c, 0, 69, 47
3, 69318, Note_on_c, 0, 66, 32
3, 69538, Control_c, 0, 64, 127
3, 70007, Note_on_c, 0, 58, 0
3, 70144, Note_on_c, 0, 62, 0
3, 70327, Note_on_c, 0, 66, 0
3, 70375, Note_on_c, 0, 58, 31
3, 70424, Note_on_c, 0, 69, 0
3, 70723, Note_on_c, 0, 62, 48
3, 70946, Note_on_c, 0, 67, 66
3, 71008, Control_c, 0, 64, 0
3, 71047, Note_on_c, 0, 67, 0
3, 71154, Note_on_c, 0, 69, 80
3, 71269, Note_on_c, 0, 69, 0
3, 71500, Note_on_c, 0, 69, 90
3, 71824, Note_on_c, 0, 69, 0
3, 71834, Note_on_c, 0, 70, 59
3, 71969, Note_on_c, 0, 69, 57
3, 71984, Note_on_c, 0, 70, 0
3, 72050, Note_on_c, 0, 52, 0
3, 72097, Note_on_c, 0, 69, 0
3, 72135, Note_on_c, 0, 67, 61
3, 72167, Note_on_c, 0, 58, 0
3, 72230, Note_on_c, 0, 67, 0
3, 72302, Note_on_c, 0, 69, 95
3, 72479, Note_on_c, 0, 70, 59
3, 72487, Note_on_c, 0, 69, 0
3, 72615, Note_on_c, 0, 69, 55
3, 72660, Note_on_c, 0, 70, 0
3, 72760, Note_on_c, 0, 69, 0
3, 72783, Note_on_c, 0, 67, 62
3, 72882, Note_on_c, 0, 67, 0
3, 72972, Note_on_c, 0, 69, 74
3, 72991, Note_on_c, 0, 55, 46
3, 73027, Note_on_c, 0, 62, 0
3, 73309, Control_c, 0, 64, 127
3, 73457, Note_on_c, 0, 61, 37
3, 73503, Note_on_c, 0, 69, 0
3, 73871, Note_on_c, 0, 84, 72
3, 74250, Note_on_c, 0, 73, 46
3, 74826, Note_on_c, 0, 64, 20
3, 75340, Note_on_c, 0, 84, 0
3, 75405, Note_on_c, 0, 73, 0
3, 75422, Note_on_c, 0, 72, 36
3, 75637, Note_on_c, 0, 55, 0
3, 75906, Note_on_c, 0, 72, 0
3, 75922, Note_on_c, 0, 70, 55
3, 75984, Note_on_c, 0, 71, 27
3, 76012, Note_on_c, 0, 64, 0
3, 76132, Note_on_c, 0, 61, 0
3, 76225, Note_on_c, 0, 71, 0
3, 76238, Note_on_c, 0, 65, 58
3, 76285, Note_on_c, 0, 70, 0
3, 76535, Note_on_c, 0, 65, 0
3, 76567, Note_on_c, 0, 69, 74
3, 76932, Note_on_c, 0, 67, 74
3, 77009, Note_on_c, 0, 69, 0
3, 77257, Note_on_c, 0, 67, 0
3, 77362, Note_on_c, 0, 65, 60
3, 77363, Note_on_c, 0, 50, 34
3, 77382, Note_on_c, 0, 60, 28
3, 77407, Control_c, 0, 64, 0
3, 77901, Note_on_c, 0, 57, 33
3, 78158, Control_c, 0, 64, 127
3, 78349, Note_on_c, 0, 64, 66
3, 78401, Note_on_c, 0, 65, 0
3, 78631, Note_on_c, 0, 64, 0
3, 78661, Note_on_c, 0, 65, 73
3, 78859, Note_on_c, 0, 60, 0
3, 78930, Note_on_c, 0, 65, 0
3, 79002, Note_on_c, 0, 65, 74
3, 79058, Note_on_c, 0, 57, 0
3, 79071, Note_on_c, 0, 50, 0
3, 79222, Note_on_c, 0, 65, 0
3, 79262, Note_on_c, 0, 67, 72
3, 79481, Note_on_c, 0, 67, 0
3, 79560, Note_on_c, 0, 67, 71
3, 79577, Note_on_c, 0, 49, 32
3, 79584, Control_c, 0, 64, 0
3, 79607, Note_on_c, 0, 59, 26
3, 79860, Note_on_c, 0, 68, 69
3, 79952, Note_on_c, 0, 67, 0
3, 80110, Note_on_c, 0, 68, 0
3, 80215, Note_on_c, 0, 68, 63
3, 80248, Note_on_c, 0, 56, 26
3, 80347, Control_c, 0, 64, 127
3, 80547, Note_on_c, 0, 70, 68
3, 80803, Note_on_c, 0, 59, 0
3, 80813, Note_on_c, 0, 68, 0
3, 80830, Note_on_c, 0, 70, 0
3, 80869, Note_on_c, 0, 56, 0
3, 80892, Note_on_c, 0, 49, 0
3, 80999, Control_c, 0, 64, 0
3, 81000, Note_on_c, 0, 70, 70
3, 81020, Note_on_c, 0, 48, 41
3, 81365, Note_on_c, 0, 70, 0
3, 81381, Note_on_c, 0, 71, 66
3, 81403, Control_c, 0, 64, 127
3, 81453, Note_on_c, 0, 55, 33
3, 81747, Note_on_c, 0, 71, 0
3, 81839, Note_on_c, 0, 71, 54
3, 81871, Note_on_c, 0, 58, 35
3, 82117, Note_on_c, 0, 58, 0
3, 82268, Note_on_c, 0, 72, 51
3, 82276, Note_on_c, 0, 55, 0
3, 82288, Note_on_c, 0, 48, 0
3, 82526, Note_on_c, 0, 72, 0
3, 82628, Note_on_c, 0, 71, 0
3, 82705, Control_c, 0, 64, 0
3, 82723, Note_on_c, 0, 72, 40
3, 82736, Note_on_c, 0, 51, 34
3, 82745, Note_on_c, 0, 66, 43
3, 82747, Note_on_c, 0, 57, 29
3, 82766, Note_on_c, 0, 62, 34
3, 82918, Control_c, 0, 64, 127
3, 83070, Note_on_c, 0, 72, 0
3, 83236, Note_on_c, 0, 73, 58
3, 83318, Note_on_c, 0, 57, 0
3, 83533, Note_on_c, 0, 73, 0
3, 83615, Control_c, 0, 64, 0
3, 83682, Note_on_c, 0, 73, 53
3, 83702, Note_on_c, 0, 57, 41
3, 83760, Control_c, 0, 64, 127
3, 83848, Note_on_c, 0, 62, 0
3, 83943, Note_on_c, 0, 66, 0
3, 83988, Note_on_c, 0, 73, 0
3, 84103, Note_on_c, 0, 51, 0
3, 84116, Note_on_c, 0, 75, 64
3, 84138, Note_on_c, 0, 57, 0
3, 84378, Control_c, 0, 64, 0
3, 84511, Note_on_c, 0, 75, 0
3, 84549, Note_on_c, 0, 74, 56
3, 84550, Note_on_c, 0, 65, 33
3, 84577, Note_on_c, 0, 62, 35
3, 84594, Note_on_c, 0, 60, 28
3, 84798, Note_on_c, 0, 65, 0
3, 84884, Control_c, 0, 64, 127
3, 85012, Note_on_c, 0, 74, 0
3, 85025, Note_on_c, 0, 69, 55
3, 85049, Note_on_c, 0, 53, 36
3, 85317, Note_on_c, 0, 62, 0
3, 85342, Note_on_c, 0, 60, 0
3, 85372, Note_on_c, 0, 69, 0
3, 85460, Note_on_c, 0, 77, 75
3, 85829, Note_on_c, 0, 77, 0
3, 85857, Note_on_c, 0, 72, 54
3, 85870, Note_on_c, 0, 65, 35
3, 85892, Note_on_c, 0, 62, 31
3, 85898, Note_on_c, 0, 60, 32
3, 86108, Note_on_c, 0, 72, 0
3, 86243, Note_on_c, 0, 65, 0
3, 86263, Note_on_c, 0, 84, 90
3, 86322, Note_on_c, 0, 53, 0
3, 86656, Note_on_c, 0, 74, 64
3, 86658, Control_c, 0, 64, 0
3, 86683, Note_on_c, 0, 53, 42
3, 86751, Note_on_c, 0, 84, 0
3, 86893, Control_c, 0, 64, 127
3, 86987, Note_on_c, 0, 74, 0
3, 87003, Note_on_c, 0, 60, 0
3, 87031, Note_on_c, 0, 62, 0
3, 87133, Note_on_c, 0, 53, 0
3, 87571, Note_on_c, 0, 89, 80
3, 87903, Note_on_c, 0, 89, 0
3, 87915, Control_c, 0, 64, 0
3, 87933, Note_on_c, 0, 27, 47
3, 87944, Note_on_c, 0, 87, 75
3, 88072, Control_c, 0, 64, 127
3, 88086, Note_on_c, 0, 27, 0
3, 88331, Note_on_c, 0, 85, 73
3, 88633, Note_on_c, 0, 87, 0
3, 88673, Note_on_c, 0, 85, 0
3, 88741, Note_on_c, 0, 84, 60
3, 88753, Note_on_c, 0, 61, 35
3, 88762, Note_on_c, 0, 65, 31
3, 88774, Note_on_c, 0, 55, 30
3, 88812, Control_c, 0, 64, 0
3, 88891, Control_c, 0, 64, 127
3, 89215, Note_on_c, 0, 82, 46
3, 89273, Note_on_c, 0, 84, 0
3, 89358, Note_on_c, 0, 65, 0
3, 89587, Note_on_c, 0, 61, 0
3, 89686, Note_on_c, 0, 82, 0
3, 89741, Note_on_c, 0, 61, 15
3, 89749, Note_on_c, 0, 81, 38
3, 89763, Note_on_c, 0, 65, 25
3, 90213, Note_on_c, 0, 81, 0
3, 90227, Note_on_c, 0, 65, 0
3, 90228, Note_on_c, 0, 82, 44
3, 90508, Note_on_c, 0, 82, 0
3, 90644, Note_on_c, 0, 84, 57
3, 90807, Note_on_c, 0, 84, 0
3, 91125, Note_on_c, 0, 91, 56
3, 91206, Note_on_c, 0, 55, 0
3, 91255, Note_on_c, 0, 91, 0
3, 91303, Note_on_c, 0, 61, 0
3, 91356, Note_on_c, 0, 96, 57
3, 91494, Note_on_c, 0, 96, 0
3, 91570, Note_on_c, 0, 99, 74
3, 91636, Note_on_c, 0, 63, 18
3, 91647, Note_on_c, 0, 57, 44
3, 91675, Control_c, 0, 64, 0
3, 91717, Note_on_c, 0, 99, 0
3, 91756, Note_on_c, 0, 103, 68
3, 91902, Note_on_c, 0, 99, 57
3, 91924, Note_on_c, 0, 60, 1
3, 91928, Note_on_c, 0, 103, 0
3, 91956, Control_c, 0, 64, 127
3, 92030, Note_on_c, 0, 96, 62
3, 92065, Note_on_c, 0, 63, 0
3, 92066, Note_on_c, 0, 99, 0
3, 92121, Note_on_c, 0, 96, 0
3, 92154, Note_on_c, 0, 93, 41
3, 92229, Note_on_c, 0, 93, 0
3, 92289, Note_on_c, 0, 92, 50
3, 92325, Control_c, 0, 64, 0
3, 92373, Note_on_c, 0, 60, 0
3, 92392, Note_on_c, 0, 57, 0
3, 92408, Note_on_c, 0, 92, 0
3, 92427, Note_on_c, 0, 91, 47
3, 92484, Note_on_c, 0, 91, 0
3, 92507, Note_on_c, 0, 90, 51
3, 92639, Note_on_c, 0, 90, 0
3, 92667, Note_on_c, 0, 89, 34
3, 92721, Note_on_c, 0, 89, 0
3, 92747, Note_on_c, 0, 88, 47
3, 92830, Note_on_c, 0, 88, 0
3, 92881, Note_on_c, 0, 87, 57
3, 92964, Note_on_c, 0, 87, 0
3, 93024, Note_on_c, 0, 91, 68
3, 93142, Note_on_c, 0, 87, 42
3, 93161, Note_on_c, 0, 91, 0
3, 93265, Note_on_c, 0, 87, 0
3, 93283, Note_on_c, 0, 84, 24
3, 93326, Note_on_c, 0, 84, 0
3, 93375, Note_on_c, 0, 81, 36
3, 93440, Note_on_c, 0, 81, 0
3, 93528, Note_on_c, 0, 80, 29
3, 93616, Note_on_c, 0, 80, 0
3, 93642, Note_on_c, 0, 79, 38
3, 93695, Note_on_c, 0, 79, 0
3, 93729, Note_on_c, 0, 78, 42
3, 93811, Note_on_c, 0, 78, 0
3, 93839, Note_on_c, 0, 77, 48
3, 93929, Note_on_c, 0, 77, 0
3, 93981, Note_on_c, 0, 76, 28
3, 94028, Note_on_c, 0, 76, 0
3, 94051, Note_on_c, 0, 75, 48
3, 94191, Note_on_c, 0, 75, 0
3, 94195, Note_on_c, 0, 50, 27
3, 94221, Note_on_c, 0, 60, 24
3, 94242, Note_on_c, 0, 74, 33
3, 94470, Control_c, 0, 64, 127
3, 94623, Note_on_c, 0, 50, 0
3, 94639, Note_on_c, 0, 54, 26
3, 94675, Note_on_c, 0, 60, 0
3, 94695, Note_on_c, 0, 54, 0
3, 95145, Note_on_c, 0, 74, 0
3, 95307, Note_on_c, 0, 65, 35
3, 95333, Note_on_c, 0, 60, 1
3, 95685, Note_on_c, 0, 77, 36
3, 96104, Note_on_c, 0, 84, 51
3, 96519, Note_on_c, 0, 84, 0
3, 96600, Note_on_c, 0, 82, 38
3, 96735, Note_on_c, 0, 65, 0
3, 96865, Note_on_c, 0, 60, 0
3, 97083, Note_on_c, 0, 82, 0
3, 97096, Note_on_c, 0, 81, 53
3, 97097, Note_on_c, 0, 77, 0
3, 97561, Note_on_c, 0, 84, 62
3, 97567, Note_on_c, 0, 43, 36
3, 97590, Note_on_c, 0, 81, 0
3, 97603, Control_c, 0, 64, 0
3, 97906, Control_c, 0, 64, 127
3, 97920, Note_on_c, 0, 84, 0
3, 97941, Note_on_c, 0, 81, 47
3, 97957, Note_on_c, 0, 50, 33
3, 98198, Note_on_c, 0, 43, 0
3, 98245, Note_on_c, 0, 81, 0
3, 98281, Note_on_c, 0, 50, 0
3, 98294, Note_on_c, 0, 82, 47
3, 98329, Note_on_c, 0, 57, 46
3, 98694, Note_on_c, 0, 74, 44
3, 98699, Note_on_c, 0, 58, 39
3, 98706, Note_on_c, 0, 57, 0
3, 98713, Note_on_c, 0, 82, 0
3, 98889, Note_on_c, 0, 74, 0
3, 99183, Note_on_c, 0, 70, 57
3, 99208, Note_on_c, 0, 69, 59
3, 99242, Control_c, 0, 64, 0
3, 99523, Control_c, 0, 64, 127
3, 99556, Control_c, 0, 64, 0
3, 99570, Note_on_c, 0, 69, 0
3, 99702, Note_on_c, 0, 67, 53
3, 100060, Note_on_c, 0, 67, 0
3, 100200, Note_on_c, 0, 65, 44
3, 100397, Control_c, 0, 64, 127
3, 100553, Note_on_c, 0, 65, 0
3, 100722, Note_on_c, 0, 64, 40
3, 100865, Note_on_c, 0, 70, 0
3, 100991, Note_on_c, 0, 64, 0
3, 101285, Note_on_c, 0, 67, 50
3, 101296, Note_on_c, 0, 62, 40
3, 101329, Control_c, 0, 64, 0
3, 101635, Note_on_c, 0, 62, 0
3, 101792, Note_on_c, 0, 60, 46
3, 101845, Control_c, 0, 64, 127
3, 101943, Note_on_c, 0, 58, 0
3, 102216, Control_c, 0, 64, 0
3, 102261, Note_on_c, 0, 59, 54
3, 102265, Note_on_c, 0, 60, 0
3, 102294, Control_c, 0, 64, 127
3, 102590, Note_on_c, 0, 67, 0
3, 102734, Note_on_c, 0, 59, 0
3, 102750, Note_on_c, 0, 58, 49
3, 102941, Note_on_c, 0, 58, 0
3, 104080, Note_on_c, 0, 63, 75
3, 104252, Note_on_c, 0, 63, 0
3, 104524, Note_on_c, 0, 72, 81
3, 104805, Note_on_c, 0, 72, 0
3, 104964, Note_on_c, 0, 70, 71
3, 104971, Note_on_c, 0, 63, 64
3, 104993, Note_on_c, 0, 46, 47
3, 105002, Note_on_c, 0, 56, 30
3, 105122, Note_on_c, 0, 56, 0
3, 105153, Note_on_c, 0, 63, 0
3, 105155, Note_on_c, 0, 70, 0
3, 105322, Note_on_c, 0, 46, 0
3, 105685, Note_on_c, 0, 69, 73
3, 105695, Note_on_c, 0, 61, 58
3, 105747, Note_on_c, 0, 45, 27
3, 105808, Control_c, 0, 64, 0
3, 106112, Control_c, 0, 64, 127
3, 106234, Note_on_c, 0, 55, 38
3, 106374, Note_on_c, 0, 69, 0
3, 106479, Note_on_c, 0, 61, 0
3, 106642, Note_on_c, 0, 45, 0
3, 106936, Note_on_c, 0, 70, 61
3, 106952, Note_on_c, 0, 62, 55
3, 107214, Note_on_c, 0, 70, 0
3, 107244, Note_on_c, 0, 62, 0
3, 107473, Note_on_c, 0, 72, 42
3, 107478, Note_on_c, 0, 61, 36
3, 107651, Note_on_c, 0, 55, 0
3, 107795, Note_on_c, 0, 72, 0
3, 107824, Note_on_c, 0, 61, 0
3, 108507, Note_on_c, 0, 69, 52
3, 108514, Control_c, 0, 64, 0
3, 108518, Note_on_c, 0, 60, 22
3, 108528, Note_on_c, 0, 64, 38
3, 108531, Note_on_c, 0, 50, 33
3, 108532, Note_on_c, 0, 57, 34
3, 108908, Control_c, 0, 64, 127
3, 109082, Note_on_c, 0, 60, 0
3, 109216, Note_on_c, 0, 60, 31
3, 109374, Note_on_c, 0, 64, 0
3, 109485, Note_on_c, 0, 57, 0
3, 109562, Note_on_c, 0, 60, 0
3, 109767, Note_on_c, 0, 69, 0
3, 109917, Note_on_c, 0, 60, 31
3, 109936, Note_on_c, 0, 66, 18
3, 109944, Note_on_c, 0, 64, 41
3, 109950, Note_on_c, 0, 57, 28
3, 110757, Note_on_c, 0, 64, 0
3, 110830, Note_on_c, 0, 60, 0
3, 110831, Note_on_c, 0, 66, 0
3, 111014, Note_on_c, 0, 60, 39
3, 111034, Note_on_c, 0, 61, 64
3, 111066, Note_on_c, 0, 60, 0
3, 111073, Control_c, 0, 64, 0
3, 111096, Note_on_c, 0, 57, 0
3, 111112, Note_on_c, 0, 61, 0
3, 111114, Note_on_c, 0, 62, 71
3, 111246, Note_on_c, 0, 62, 0
3, 111310, Note_on_c, 0, 65, 87
3, 111313, Note_on_c, 0, 50, 0
3, 111472, Note_on_c, 0, 65, 0
3, 111538, Note_on_c, 0, 67, 84
3, 111748, Note_on_c, 0, 67, 0
3, 111781, Note_on_c, 0, 65, 72
3, 111893, Note_on_c, 0, 65, 0
3, 112048, Note_on_c, 0, 68, 81
3, 112049, Note_on_c, 0, 74, 75
3, 112288, Note_on_c, 0, 68, 0
3, 112299, Note_on_c, 0, 69, 66
3, 112464, Note_on_c, 0, 69, 0
3, 112501, Note_on_c, 0, 74, 0
3, 112551, Note_on_c, 0, 65, 53
3, 112712, Note_on_c, 0, 65, 0
3, 112772, Note_on_c, 0, 62, 58
3, 112953, Note_on_c, 0, 62, 0
3, 113008, Note_on_c, 0, 62, 20
3, 113041, Note_on_c, 0, 43, 32
3, 113051, Note_on_c, 0, 65, 42
3, 113064, Note_on_c, 0, 53, 27
3, 113355, Control_c, 0, 64, 127
3, 113565, Note_on_c, 0, 50, 30
3, 113813, Note_on_c, 0, 53, 0
3, 114159, Note_on_c, 0, 57, 36
3, 114192, Note_on_c, 0, 53, 29
3, 114708, Note_on_c, 0, 57, 0
3, 114755, Note_on_c, 0, 65, 0
3, 114861, Note_on_c, 0, 62, 0
3, 114963, Note_on_c, 0, 60, 50
3, 115003, Note_on_c, 0, 61, 67
3, 115051, Control_c, 0, 64, 0
3, 115052, Note_on_c, 0, 60, 0
3, 115108, Note_on_c, 0, 61, 0
3, 115123, Note_on_c, 0, 62, 47
3, 115228, Note_on_c, 0, 62, 0
3, 115284, Note_on_c, 0, 65, 80
3, 115293, Note_on_c, 0, 62, 24
3, 115338, Note_on_c, 0, 62, 0
3, 115341, Note_on_c, 0, 50, 0
3, 115447, Note_on_c, 0, 65, 0
3, 115489, Note_on_c, 0, 53, 0
3, 115517, Note_on_c, 0, 67, 85
3, 115591, Note_on_c, 0, 43, 0
3, 115759, Control_c, 0, 64, 127
3, 115784, Note_on_c, 0, 65, 64
3, 115874, Note_on_c, 0, 67, 0
3, 115924, Note_on_c, 0, 65, 0
3, 116049, Control_c, 0, 64, 0
3, 116075, Note_on_c, 0, 68, 74
3, 116093, Note_on_c, 0, 74, 64
3, 116286, Note_on_c, 0, 74, 0
3, 116355, Note_on_c, 0, 68, 0
3, 116364, Note_on_c, 0, 74, 45
3, 116377, Note_on_c, 0, 69, 68
3, 116541, Note_on_c, 0, 74, 0
3, 116546, Note_on_c, 0, 69, 0
3, 116646, Note_on_c, 0, 62, 52
3, 116918, Note_on_c, 0, 62, 0
3, 116966, Note_on_c, 0, 59, 51
3, 117114, Note_on_c, 0, 59, 0
3, 117218, Control_c, 0, 64, 127
3, 117420, Note_on_c, 0, 58, 44
3, 117456, Note_on_c, 0, 36, 36
3, 117487, Control_c, 0, 64, 0
3, 117936, Control_c, 0, 64, 127
3, 117965, Note_on_c, 0, 43, 29
3, 118453, Note_on_c, 0, 58, 0
3, 118713, Note_on_c, 0, 48, 29
3, 118735, Note_on_c, 0, 55, 28
3, 118906, Note_on_c, 0, 55, 0
3, 120385, Note_on_c, 0, 77, 92
3, 120494, Note_on_c, 0, 77, 0
3, 120808, Note_on_c, 0, 75, 82
3, 120917, Note_on_c, 0, 75, 0
3, 121190, Note_on_c, 0, 36, 0
3, 121215, Note_on_c, 0, 70, 76
3, 121230, Note_on_c, 0, 43, 0
3, 121357, Note_on_c, 0, 71, 59
3, 121369, Note_on_c, 0, 70, 0
3, 121473, Note_on_c, 0, 70, 47
3, 121494, Note_on_c, 0, 71, 0
3, 121567, Note_on_c, 0, 70, 0
3, 121594, Note_on_c, 0, 48, 0
3, 121607, Note_on_c, 0, 68, 37
3, 121700, Note_on_c, 0, 68, 0
3, 121722, Note_on_c, 0, 65, 56
3, 121783, Note_on_c, 0, 65, 0
3, 121864, Control_c, 0, 64, 127
3, 121873, Note_on_c, 0, 70, 75
3, 122054, Note_on_c, 0, 70, 0
3, 122160, Note_on_c, 0, 68, 55
3, 122178, Control_c, 0, 64, 0
3, 122272, Note_on_c, 0, 68, 0
3, 122348, Note_on_c, 0, 65, 65
3, 122446, Note_on_c, 0, 65, 0
3, 122567, Note_on_c, 0, 61, 69
3, 122628, Note_on_c, 0, 61, 0
3, 122976, Note_on_c, 0, 58, 79
3, 122998, Note_on_c, 0, 65, 43
3, 123150, Note_on_c, 0, 58, 0
3, 123161, Note_on_c, 0, 59, 56
3, 123205, Note_on_c, 0, 59, 0
3, 123266, Note_on_c, 0, 65, 0
3, 123374, Note_on_c, 0, 58, 67
3, 123496, Note_on_c, 0, 58, 0
3, 123530, Note_on_c, 0, 53, 58
3, 123583, Note_on_c, 0, 53, 0
3, 123642, Note_on_c, 0, 58, 61
3, 123643, Note_on_c, 0, 62, 71
3, 123761, Note_on_c, 0, 62, 0
3, 123783, Note_on_c, 0, 58, 0
3, 123815, Note_on_c, 0, 53, 62
3, 123862, Note_on_c, 0, 53, 0
3, 123943, Note_on_c, 0, 56, 53
3, 123959, Note_on_c, 0, 60, 49
3, 124016, Note_on_c, 0, 60, 0
3, 124082, Note_on_c, 0, 56, 0
3, 124113, Note_on_c, 0, 57, 65
3, 124126, Note_on_c, 0, 60, 13
3, 124218, Note_on_c, 0, 60, 0
3, 124283, Note_on_c, 0, 53, 61
3, 124284, Note_on_c, 0, 57, 0
3, 124350, Note_on_c, 0, 41, 15
3, 124376, Note_on_c, 0, 53, 0
3, 124470, Note_on_c, 0, 48, 47
3, 124560, Note_on_c, 0, 48, 0
3, 124619, Note_on_c, 0, 46, 54
3, 124816, Note_on_c, 0, 53, 38
3, 124857, Note_on_c, 0, 46, 0
3, 124866, Note_on_c, 0, 53, 0
3, 124895, Note_on_c, 0, 41, 0
3, 125062, Note_on_c, 0, 44, 56
3, 125118, Note_on_c, 0, 29, 38
3, 125133, Note_on_c, 0, 53, 17
3, 125239, Note_on_c, 0, 44, 0
3, 125270, Note_on_c, 0, 45, 36
3, 125491, Control_c, 0, 64, 127
3, 125645, Note_on_c, 0, 45, 0
3, 125741, Note_on_c, 0, 53, 0
3, 125763, Note_on_c, 0, 41, 39
3, 125845, Note_on_c, 0, 29, 0
3, 125924, Note_on_c, 0, 41, 0
3, 126762, Note_on_c, 0, 60, 87
3, 126905, Note_on_c, 0, 60, 0
3, 127064, Note_on_c, 0, 62, 108
3, 127248, Note_on_c, 0, 62, 0
3, 127414, Note_on_c, 0, 62, 113
3, 127712, Note_on_c, 0, 62, 0
3, 127745, Note_on_c, 0, 60, 83
3, 127906, Note_on_c, 0, 60, 0
3, 128188, Note_on_c, 0, 60, 50
3, 128217, Note_on_c, 0, 61, 71
3, 128270, Note_on_c, 0, 60, 0
3, 128298, Note_on_c, 0, 61, 0
3, 128304, Note_on_c, 0, 62, 66
3, 128533, Note_on_c, 0, 65, 80
3, 128584, Note_on_c, 0, 62, 0
3, 128761, Note_on_c, 0, 65, 0
3, 128780, Control_c, 0, 64, 0
3, 128835, Note_on_c, 0, 67, 80
3, 129027, Control_c, 0, 64, 127
3, 129046, Note_on_c, 0, 67, 0
3, 129147, Note_on_c, 0, 62, 44
3, 129163, Note_on_c, 0, 64, 27
3, 129201, Note_on_c, 0, 64, 0
3, 129370, Note_on_c, 0, 62, 0
3, 129419, Control_c, 0, 64, 0
3, 129438, Note_on_c, 0, 41, 32
3, 129446, Note_on_c, 0, 65, 63
3, 129823, Control_c, 0, 64, 127
3, 129832, Note_on_c, 0, 48, 36
3, 130161, Note_on_c, 0, 41, 0
3, 130271, Note_on_c, 0, 57, 44
3, 130399, Note_on_c, 0, 65, 0
3, 130638, Note_on_c, 0, 67, 80
3, 130730, Note_on_c, 0, 48, 0
3, 130829, Note_on_c, 0, 67, 0
3, 130888, Note_on_c, 0, 57, 0
3, 131145, Note_on_c, 0, 69, 87
3, 131334, Note_on_c, 0, 69, 0
3, 131385, Note_on_c, 0, 70, 69
3, 131474, Note_on_c, 0, 70, 0
3, 131522, Note_on_c, 0, 72, 60
3, 131650, Note_on_c, 0, 72, 0
3, 131653, Note_on_c, 0, 74, 60
3, 131764, Note_on_c, 0, 75, 68
3, 131771, Note_on_c, 0, 74, 0
3, 131817, Note_on_c, 0, 75, 0
3, 131873, Note_on_c, 0, 77, 54
3, 131986, Note_on_c, 0, 79, 57
3, 132006, Note_on_c, 0, 77, 0
3, 132085, Note_on_c, 0, 81, 49
3, 132112, Note_on_c, 0, 79, 0
3, 132165, Note_on_c, 0, 81, 0
3, 132166, Note_on_c, 0, 82, 52
3, 132204, Note_on_c, 0, 82, 0
3, 132284, Note_on_c, 0, 84, 62
3, 132365, Note_on_c, 0, 84, 0
3, 132399, Note_on_c, 0, 86, 62
3, 132491, Note_on_c, 0, 87, 35
3, 132506, Note_on_c, 0, 86, 0
3, 132549, Note_on_c, 0, 87, 0
3, 132569, Note_on_c, 0, 88, 46
3, 132648, Note_on_c, 0, 88, 0
3, 132686, Control_c, 0, 64, 0
3, 132696, Note_on_c, 0, 89, 62
3, 132704, Note_on_c, 0, 63, 25
3, 132720, Note_on_c, 0, 53, 26
3, 132726, Note_on_c, 0, 58, 43
3, 133079, Control_c, 0, 64, 127
3, 133081, Note_on_c, 0, 87, 56
3, 133088, Note_on_c, 0, 89, 0
3, 133192, Note_on_c, 0, 63, 0
3, 133350, Note_on_c, 0, 87, 0
3, 133381, Note_on_c, 0, 79, 46
3, 133627, Note_on_c, 0, 79, 0
3, 133695, Note_on_c, 0, 84, 66
3, 133856, Note_on_c, 0, 84, 0
3, 134115, Note_on_c, 0, 58, 0
3, 134119, Note_on_c, 0, 84, 55
3, 134131, Note_on_c, 0, 72, 31
3, 134143, Note_on_c, 0, 60, 27
3, 134303, Control_c, 0, 64, 0
3, 134437, Control_c, 0, 64, 127
3, 134623, Note_on_c, 0, 63, 30
3, 134943, Note_on_c, 0, 72, 0
3, 135089, Note_on_c, 0, 72, 35
3, 135219, Note_on_c, 0, 63, 0
3, 135247, Note_on_c, 0, 84, 0
3, 135411, Note_on_c, 0, 72, 0
3, 135454, Note_on_c, 0, 84, 82
3, 135649, Note_on_c, 0, 84, 0
3, 135752, Note_on_c, 0, 53, 0
3, 135876, Note_on_c, 0, 60, 0
3, 135890, Note_on_c, 0, 58, 28
3, 135891, Note_on_c, 0, 84, 80
3, 135898, Note_on_c, 0, 63, 47
3, 135903, Note_on_c, 0, 53, 30
3, 135906, Note_on_c, 0, 77, 67
3, 135919, Note_on_c, 0, 72, 61
3, 135942, Control_c, 0, 64, 0
3, 136144, Control_c, 0, 64, 127
3, 136288, Note_on_c, 0, 84, 0
3, 136400, Note_on_c, 0, 84, 75
3, 136463, Note_on_c, 0, 63, 0
3, 136505, Note_on_c, 0, 60, 27
3, 136633, Note_on_c, 0, 84, 0
3, 136753, Note_on_c, 0, 72, 0
3, 136813, Note_on_c, 0, 77, 0
3, 136839, Note_on_c, 0, 84, 68
3, 136847, Note_on_c, 0, 72, 45
3, 136864, Note_on_c, 0, 63, 34
3, 137041, Note_on_c, 0, 72, 0
3, 137057, Note_on_c, 0, 84, 0
3, 137204, Note_on_c, 0, 63, 0
3, 137231, Note_on_c, 0, 53, 0
3, 137247, Note_on_c, 0, 86, 85
3, 137262, Note_on_c, 0, 74, 70
3, 137383, Note_on_c, 0, 60, 0
3, 137384, Note_on_c, 0, 86, 0
3, 137425, Note_on_c, 0, 58, 0
3, 137449, Note_on_c, 0, 74, 0
3, 137851, Control_c, 0, 64, 0
3, 137853, Note_on_c, 0, 87, 70
3, 137889, Note_on_c, 0, 79, 69
3, 137895, Note_on_c, 0, 58, 28
3, 137899, Note_on_c, 0, 62, 45
3, 137901, Note_on_c, 0, 63, 38
3, 137903, Note_on_c, 0, 75, 63
3, 137906, Note_on_c, 0, 67, 40
3, 138019, Control_c, 0, 64, 127
3, 138220, Note_on_c, 0, 87, 0
3, 138245, Note_on_c, 0, 79, 0
3, 138296, Note_on_c, 0, 58, 0
3, 138362, Note_on_c, 0, 75, 0
3, 138450, Note_on_c, 0, 67, 0
3, 138477, Note_on_c, 0, 58, 49
3, 138524, Note_on_c, 0, 62, 0
3, 138580, Note_on_c, 0, 63, 0
3, 138631, Note_on_c, 0, 58, 0
3, 139051, Note_on_c, 0, 62, 71
3, 139060, Note_on_c, 0, 63, 57
3, 139068, Note_on_c, 0, 67, 64
3, 139445, Note_on_c, 0, 55, 55
3, 139494, Note_on_c, 0, 67, 0
3, 139526, Note_on_c, 0, 55, 0
3, 139550, Note_on_c, 0, 63, 0
3, 139578, Note_on_c, 0, 62, 0
3, 140008, Note_on_c, 0, 65, 60
3, 140017, Control_c, 0, 64, 0
3, 140019, Note_on_c, 0, 62, 53
3, 140029, Note_on_c, 0, 51, 37
3, 140034, Note_on_c, 0, 57, 40
3, 140037, Note_on_c, 0, 41, 38
3, 140428, Note_on_c, 0, 62, 0
3, 140555, Note_on_c, 0, 61, 60
3, 141199, Note_on_c, 0, 61, 0
3, 141339, Note_on_c, 0, 60, 35
3, 141443, Control_c, 0, 64, 127
3, 141800, Note_on_c, 0, 57, 0
3, 141939, Note_on_c, 0, 60, 0
3, 142071, Note_on_c, 0, 65, 0
3, 142646, Note_on_c, 0, 74, 85
3, 142663, Note_on_c, 0, 41, 0
3, 142788, Note_on_c, 0, 51, 0
3, 143145, Note_on_c, 0, 75, 33
3, 143211, Note_on_c, 0, 74, 0
3, 143266, Note_on_c, 0, 76, 68
3, 143286, Note_on_c, 0, 75, 0
3, 143397, Note_on_c, 0, 76, 0
3, 143433, Note_on_c, 0, 77, 78
3, 143603, Note_on_c, 0, 77, 0
3, 143769, Note_on_c, 0, 75, 79
3, 143795, Note_on_c, 0, 46, 42
3, 143835, Control_c, 0, 64, 0
3, 144227, Control_c, 0, 64, 127
3, 144256, Note_on_c, 0, 66, 29
3, 144257, Note_on_c, 0, 71, 62
3, 144288, Note_on_c, 0, 55, 38
3, 144291, Note_on_c, 0, 46, 0
3, 144739, Note_on_c, 0, 66, 0
3, 144744, Note_on_c, 0, 71, 0
3, 144841, Note_on_c, 0, 71, 60
3, 144845, Note_on_c, 0, 66, 52
3, 144847, Note_on_c, 0, 55, 0
3, 144855, Note_on_c, 0, 58, 40
3, 145205, Note_on_c, 0, 75, 0
3, 145259, Note_on_c, 0, 66, 0
3, 145301, Note_on_c, 0, 75, 55
3, 145303, Note_on_c, 0, 71, 0
3, 145322, Note_on_c, 0, 62, 45
3, 145323, Note_on_c, 0, 66, 44
3, 145370, Note_on_c, 0, 62, 0
3, 145424, Note_on_c, 0, 58, 0
3, 145552, Note_on_c, 0, 66, 0
3, 145575, Note_on_c, 0, 75, 0
3, 145819, Note_on_c, 0, 74, 58
3, 145849, Note_on_c, 0, 46, 39
3, 145854, Control_c, 0, 64, 0
3, 145856, Note_on_c, 0, 62, 40
3, 146345, Note_on_c, 0, 54, 35
3, 146725, Note_on_c, 0, 62, 0
3, 146977, Control_c, 0, 64, 127
3, 146988, Note_on_c, 0, 66, 43
3, 147004, Note_on_c, 0, 62, 40
3, 147036, Note_on_c, 0, 57, 32
3, 147073, Note_on_c, 0, 74, 0
3, 147493, Control_c, 0, 64, 0
3, 147901, Note_on_c, 0, 66, 0
3, 147931, Note_on_c, 0, 65, 60
3, 148171, Note_on_c, 0, 62, 0
3, 148268, Control_c, 0, 64, 127
3, 148344, Note_on_c, 0, 57, 0
3, 148368, Note_on_c, 0, 66, 62
3, 148408, Note_on_c, 0, 65, 0
3, 148414, Note_on_c, 0, 54, 0
3, 148490, Note_on_c, 0, 46, 0
3, 148975, Control_c, 0, 64, 0
3, 148997, Note_on_c, 0, 66, 0
3, 149010, Note_on_c, 0, 67, 54
3, 149047, Note_on_c, 0, 27, 45
3, 149245, Control_c, 0, 64, 127
3, 149447, Note_on_c, 0, 27, 0
3, 150182, Note_on_c, 0, 55, 30
3, 150366, Note_on_c, 0, 61, 25
3, 150424, Control_c, 0, 64, 0
3, 150425, Note_on_c, 0, 67, 0
3, 150531, Note_on_c, 0, 68, 29
3, 150540, Note_on_c, 0, 65, 33
3, 150680, Note_on_c, 0, 68, 0
3, 150693, Note_on_c, 0, 69, 58
3, 150753, Note_on_c, 0, 69, 0
3, 150838, Note_on_c, 0, 70, 48
3, 150888, Note_on_c, 0, 70, 0
3, 150972, Note_on_c, 0, 72, 36
3, 151039, Note_on_c, 0, 72, 0
3, 151106, Note_on_c, 0, 73, 32
3, 151171, Note_on_c, 0, 73, 0
3, 151244, Note_on_c, 0, 75, 36
3, 151256, Note_on_c, 0, 65, 0
3, 151262, Note_on_c, 0, 55, 0
3, 151283, Note_on_c, 0, 75, 0
3, 151363, Note_on_c, 0, 61, 0
3, 151370, Note_on_c, 0, 76, 26
3, 151423, Note_on_c, 0, 76, 0
3, 151500, Note_on_c, 0, 78, 31
3, 151544, Note_on_c, 0, 78, 0
3, 151625, Note_on_c, 0, 79, 36
3, 151709, Note_on_c, 0, 79, 0
3, 151751, Note_on_c, 0, 81, 45
3, 151885, Note_on_c, 0, 81, 0
3, 151893, Note_on_c, 0, 82, 31
3, 151958, Note_on_c, 0, 82, 0
3, 151995, Note_on_c, 0, 83, 27
3, 152107, Note_on_c, 0, 83, 0
3, 152142, Note_on_c, 0, 84, 53
3, 152185, Note_on_c, 0, 84, 0
3, 152995, Control_c, 0, 64, 127
3, 153199, Note_on_c, 0, 55, 7
3, 153293, Note_on_c, 0, 55, 0
3, 153429, Note_on_c, 0, 61, 37
3, 153433, Control_c, 0, 64, 0
3, 153549, Note_on_c, 0, 61, 0
3, 153839, Note_on_c, 0, 65, 47
3, 153894, Note_on_c, 0, 65, 0
3, 154121, Note_on_c, 0, 84, 80
3, 154236, Note_on_c, 0, 84, 0
3, 154385, Note_on_c, 0, 73, 60
3, 154548, Note_on_c, 0, 73, 0
3, 154631, Note_on_c, 0, 72, 52
3, 154790, Note_on_c, 0, 72, 0
3, 154889, Note_on_c, 0, 70, 67
3, 155068, Note_on_c, 0, 70, 0
3, 155152, Note_on_c, 0, 69, 57
3, 155337, Note_on_c, 0, 69, 0
3, 155384, Note_on_c, 0, 70, 55
3, 155618, Note_on_c, 0, 70, 0
3, 155638, Note_on_c, 0, 41, 41
3, 155668, Note_on_c, 0, 69, 49
3, 156142, Note_on_c, 0, 48, 42
3, 156209, Note_on_c, 0, 41, 0
3, 156391, Note_on_c, 0, 48, 0
3, 156522, Note_on_c, 0, 57, 50
3, 156531, Control_c, 0, 64, 127
3, 156679, Note_on_c, 0, 57, 0
3, 156900, Note_on_c, 0, 69, 0
3, 156923, Note_on_c, 0, 60, 47
3, 157350, Control_c, 0, 64, 0
3, 157382, Note_on_c, 0, 81, 62
3, 157384, Note_on_c, 0, 77, 60
3, 157391, Note_on_c, 0, 69, 63
3, 157403, Note_on_c, 0, 64, 43
3, 157434, Note_on_c, 0, 69, 0
3, 157454, Note_on_c, 0, 64, 0
3, 157471, Note_on_c, 0, 77, 0
3, 157485, Note_on_c, 0, 81, 0
3, 157497, Note_on_c, 0, 60, 0
3, 157935, Note_on_c, 0, 69, 74
3, 158328, Note_on_c, 0, 69, 0
3, 158380, Note_on_c, 0, 70, 80
3, 158560, Control_c, 0, 64, 127
3, 158903, Note_on_c, 0, 70, 0
3, 158913, Note_on_c, 0, 72, 54
3, 159414, Note_on_c, 0, 72, 0
3, 159925, Note_on_c, 0, 68, 63
3, 159948, Note_on_c, 0, 58, 55
3, 159956, Note_on_c, 0, 61, 50
3, 159962, Control_c, 0, 64, 0
3, 159968, Note_on_c, 0, 64, 52
3, 159978, Note_on_c, 0, 55, 32
3, 159979, Note_on_c, 0, 45, 35
3, 160355, Control_c, 0, 64, 127
3, 160389, Note_on_c, 0, 68, 0
3, 160438, Note_on_c, 0, 67, 62
3, 160445, Note_on_c, 0, 64, 0
3, 160841, Note_on_c, 0, 58, 0
3, 160887, Note_on_c, 0, 61, 0
3, 160951, Note_on_c, 0, 67, 0
3, 161001, Note_on_c, 0, 58, 21
3, 161004, Note_on_c, 0, 65, 57
3, 161011, Note_on_c, 0, 61, 15
3, 161031, Note_on_c, 0, 52, 26
3, 161041, Control_c, 0, 64, 0
3, 161153, Control_c, 0, 64, 127
3, 161589, Note_on_c, 0, 65, 0
3, 161980, Note_on_c, 0, 64, 58
3, 162067, Note_on_c, 0, 45, 0
3, 162102, Note_on_c, 0, 58, 0
3, 162153, Note_on_c, 0, 52, 0
3, 162241, Note_on_c, 0, 61, 0
3, 162247, Note_on_c, 0, 64, 0
3, 162267, Note_on_c, 0, 67, 78
3, 163297, Note_on_c, 0, 55, 0
3, 163303, Note_on_c, 0, 65, 60
3, 163306, Note_on_c, 0, 67, 0
3, 163331, Control_c, 0, 64, 0
3, 163334, Note_on_c, 0, 50, 30
3, 163510, Control_c, 0, 64, 127
3, 163726, Note_on_c, 0, 65, 0
3, 163859, Note_on_c, 0, 57, 46
3, 163886, Note_on_c, 0, 77, 80
3, 164376, Note_on_c, 0, 77, 0
3, 165526, Note_on_c, 0, 79, 70
3, 165576, Note_on_c, 0, 60, 30
3, 165577, Note_on_c, 0, 70, 64
3, 165864, Note_on_c, 0, 79, 0
3, 166011, Note_on_c, 0, 70, 0
3, 166103, Note_on_c, 0, 77, 57
3, 166131, Note_on_c, 0, 69, 39
3, 166603, Note_on_c, 0, 77, 0
3, 166608, Note_on_c, 0, 74, 57
3, 166813, Note_on_c, 0, 60, 0
3, 166917, Note_on_c, 0, 50, 0
3, 167006, Note_on_c, 0, 69, 0
3, 167292, Note_on_c, 0, 74, 0
3, 167314, Note_on_c, 0, 57, 0
3, 167350, Note_on_c, 0, 50, 34
3, 167352, Note_on_c, 0, 66, 50
3, 167360, Note_on_c, 0, 77, 51
3, 167373, Control_c, 0, 64, 0
3, 167374, Note_on_c, 0, 72, 37
3, 167586, Control_c, 0, 64, 127
3, 167777, Note_on_c, 0, 72, 0
3, 167794, Note_on_c, 0, 54, 39
3, 167803, Note_on_c, 0, 77, 0
3, 167834, Note_on_c, 0, 50, 0
3, 167862, Note_on_c, 0, 66, 0
3, 168023, Note_on_c, 0, 60, 48
3, 168192, Note_on_c, 0, 65, 58
3, 168287, Note_on_c, 0, 65, 0
3, 168291, Note_on_c, 0, 66, 53
3, 168412, Note_on_c, 0, 68, 35
3, 168426, Note_on_c, 0, 66, 0
3, 168465, Note_on_c, 0, 68, 0
3, 168481, Note_on_c, 0, 70, 52
3, 168518, Note_on_c, 0, 70, 0
3, 168583, Note_on_c, 0, 72, 43
3, 168662, Note_on_c, 0, 72, 0
3, 168710, Control_c, 0, 64, 0
3, 168711, Note_on_c, 0, 73, 40
3, 168798, Note_on_c, 0, 73, 0
3, 168972, Note_on_c, 0, 74, 64
3, 169079, Note_on_c, 0, 74, 0
3, 169185, Note_on_c, 0, 75, 57
3, 169285, Note_on_c, 0, 75, 0
3, 169355, Note_on_c, 0, 77, 48
3, 169462, Note_on_c, 0, 77, 0
3, 169497, Note_on_c, 0, 78, 48
3, 169609, Note_on_c, 0, 78, 0
3, 169660, Note_on_c, 0, 80, 56
3, 169737, Note_on_c, 0, 80, 0
3, 169814, Note_on_c, 0, 82, 44
3, 169851, Note_on_c, 0, 82, 0
3, 169958, Note_on_c, 0, 84, 58
3, 170008, Note_on_c, 0, 84, 0
3, 170134, Note_on_c, 0, 85, 40
3, 170181, Note_on_c, 0, 85, 0
3, 170320, Note_on_c, 0, 86, 37
3, 170389, Note_on_c, 0, 86, 0
3, 170838, Note_on_c, 0, 89, 58
3, 171036, Note_on_c, 0, 89, 0
3, 171110, Note_on_c, 0, 94, 77
3, 171308, Note_on_c, 0, 94, 0
3, 171404, Note_on_c, 0, 96, 87
3, 171548, Control_c, 0, 64, 127
3, 171666, Note_on_c, 0, 96, 0
3, 171705, Note_on_c, 0, 92, 75
3, 171987, Note_on_c, 0, 92, 0
3, 172068, Note_on_c, 0, 93, 85
3, 172463, Note_on_c, 0, 93, 0
3, 172494, Note_on_c, 0, 90, 76
3, 172867, Note_on_c, 0, 90, 0
3, 172915, Note_on_c, 0, 89, 68
3, 173230, Note_on_c, 0, 89, 0
3, 173300, Note_on_c, 0, 88, 71
3, 173303, Note_on_c, 0, 87, 37
3, 173487, Note_on_c, 0, 88, 0
3, 173572, Note_on_c, 0, 87, 0
3, 173573, Note_on_c, 0, 60, 0
3, 173576, Note_on_c, 0, 54, 0
3, 173756, Note_on_c, 0, 87, 80
3, 174190, Note_on_c, 0, 87, 0
3, 174220, Note_on_c, 0, 86, 78
3, 174643, Note_on_c, 0, 86, 0
3, 174681, Control_c, 0, 64, 0
3, 174682, Note_on_c, 0, 55, 53
3, 174686, Note_on_c, 0, 84, 60
3, 174695, Note_on_c, 0, 60, 46
3, 174701, Note_on_c, 0, 57, 41
3, 174708, Note_on_c, 0, 65, 31
3, 174973, Control_c, 0, 64, 127
3, 175116, Note_on_c, 0, 60, 0
3, 175202, Note_on_c, 0, 81, 60
3, 175251, Note_on_c, 0, 60, 36
3, 175299, Note_on_c, 0, 84, 0
3, 175346, Note_on_c, 0, 65, 0
3, 175402, Note_on_c, 0, 81, 0
3, 175750, Note_on_c, 0, 72, 24
3, 175763, Note_on_c, 0, 65, 34
3, 175775, Note_on_c, 0, 77, 62
3, 175927, Note_on_c, 0, 77, 0
3, 175966, Note_on_c, 0, 72, 0
3, 176007, Note_on_c, 0, 60, 0
3, 176236, Note_on_c, 0, 65, 0
3, 176312, Note_on_c, 0, 60, 43
3, 176314, Note_on_c, 0, 72, 39
3, 176324, Note_on_c, 0, 65, 40
3, 176336, Note_on_c, 0, 69, 48
3, 176415, Note_on_c, 0, 55, 0
3, 176443, Note_on_c, 0, 60, 0
3, 176488, Note_on_c, 0, 57, 0
3, 176514, Note_on_c, 0, 72, 0
3, 176534, Note_on_c, 0, 69, 0
3, 176603, Note_on_c, 0, 65, 0
3, 177403, Note_on_c, 0, 69, 68
3, 177752, Note_on_c, 0, 65, 64
3, 178123, Note_on_c, 0, 65, 0
3, 178228, Note_on_c, 0, 59, 45
3, 178235, Note_on_c, 0, 64, 44
3, 178268, Note_on_c, 0, 53, 27
3, 178274, Note_on_c, 0, 43, 34
3, 178285, Control_c, 0, 64, 0
3, 178556, Note_on_c, 0, 64, 0
3, 178657, Note_on_c, 0, 63, 53
3, 178992, Control_c, 0, 64, 127
3, 179127, Note_on_c, 0, 63, 0
3, 179160, Control_c, 0, 64, 0
3, 179192, Note_on_c, 0, 62, 46
3, 179564, Control_c, 0, 64, 127
3, 179694, Note_on_c, 0, 59, 0
3, 179795, Note_on_c, 0, 69, 0
3, 179947, Note_on_c, 0, 62, 0
3, 180154, Note_on_c, 0, 60, 27
3, 180176, Note_on_c, 0, 61, 71
3, 180205, Control_c, 0, 64, 0
3, 180234, Note_on_c, 0, 62, 53
3, 180239, Note_on_c, 0, 61, 0
3, 180244, Note_on_c, 0, 60, 0
3, 180399, Note_on_c, 0, 62, 0
3, 180437, Note_on_c, 0, 65, 85
3, 180459, Note_on_c, 0, 62, 28
3, 180499, Note_on_c, 0, 62, 0
3, 180597, Note_on_c, 0, 65, 0
3, 180672, Note_on_c, 0, 67, 88
3, 180900, Note_on_c, 0, 67, 0
3, 180911, Note_on_c, 0, 62, 83
3, 181084, Note_on_c, 0, 62, 0
3, 181175, Note_on_c, 0, 65, 94
3, 181410, Note_on_c, 0, 65, 0
3, 181450, Note_on_c, 0, 67, 83
3, 181681, Note_on_c, 0, 53, 0
3, 181740, Note_on_c, 0, 67, 0
3, 181765, Note_on_c, 0, 65, 75
3, 181784, Note_on_c, 0, 43, 0
3, 182067, Control_c, 0, 64, 127
3, 182088, Note_on_c, 0, 67, 68
3, 182097, Note_on_c, 0, 65, 0
3, 182489, Note_on_c, 0, 24, 34
3, 182510, Note_on_c, 0, 65, 55
3, 182528, Note_on_c, 0, 58, 32
3, 182536, Note_on_c, 0, 36, 34
3, 182545, Note_on_c, 0, 62, 38
3, 182561, Control_c, 0, 64, 0
3, 182887, Control_c, 0, 64, 127
3, 182999, Control_c, 0, 64, 0
3, 183040, Note_on_c, 0, 67, 0
3, 183134, Control_c, 0, 64, 127
3, 183466, Note_on_c, 0, 58, 0
3, 183540, Note_on_c, 0, 58, 36
3, 183691, Note_on_c, 0, 62, 0
3, 183993, Note_on_c, 0, 65, 0
3, 184012, Note_on_c, 0, 58, 0
3, 184033, Note_on_c, 0, 62, 75
3, 184359, Note_on_c, 0, 62, 0
3, 184387, Note_on_c, 0, 65, 81
3, 184415, Note_on_c, 0, 24, 0
3, 184761, Note_on_c, 0, 65, 0
3, 184768, Note_on_c, 0, 36, 0
3, 184792, Note_on_c, 0, 67, 80
3, 185093, Note_on_c, 0, 67, 0
3, 185183, Note_on_c, 0, 69, 92
3, 185521, Note_on_c, 0, 69, 0
3, 185577, Note_on_c, 0, 70, 84
3, 186044, Note_on_c, 0, 67, 66
3, 186316, Note_on_c, 0, 70, 0
3, 186429, Note_on_c, 0, 69, 81
3, 186481, Note_on_c, 0, 67, 0
3, 186725, Note_on_c, 0, 70, 76
3, 186760, Note_on_c, 0, 69, 0
3, 186922, Note_on_c, 0, 70, 0
3, 186946, Note_on_c, 0, 72, 60
3, 187104, Note_on_c, 0, 72, 0
3, 187108, Note_on_c, 0, 74, 64
3, 187253, Note_on_c, 0, 75, 71
3, 187255, Note_on_c, 0, 74, 0
3, 187351, Note_on_c, 0, 75, 0
3, 187398, Note_on_c, 0, 77, 54
3, 187460, Note_on_c, 0, 67, 31
3, 187462, Note_on_c, 0, 56, 25
3, 187471, Note_on_c, 0, 63, 31
3, 187480, Note_on_c, 0, 60, 42
3, 187513, Control_c, 0, 64, 0
3, 187556, Note_on_c, 0, 79, 48
3, 187567, Note_on_c, 0, 77, 0
3, 187678, Note_on_c, 0, 80, 47
3, 187699, Note_on_c, 0, 79, 0
3, 187800, Note_on_c, 0, 80, 0
3, 187807, Note_on_c, 0, 82, 46
3, 187848, Note_on_c, 0, 82, 0
3, 187936, Note_on_c, 0, 84, 31
3, 187998, Note_on_c, 0, 84, 0
3, 188048, Note_on_c, 0, 86, 66
3, 188104, Note_on_c, 0, 86, 0
3, 188140, Note_on_c, 0, 87, 49
3, 188159, Note_on_c, 0, 67, 0
3, 188178, Note_on_c, 0, 87, 0
3, 188241, Note_on_c, 0, 89, 46
3, 188283, Note_on_c, 0, 63, 0
3, 188309, Control_c, 0, 64, 127
3, 188326, Note_on_c, 0, 56, 0
3, 188365, Note_on_c, 0, 89, 0
3, 188375, Note_on_c, 0, 91, 44
3, 188411, Control_c, 0, 64, 0
3, 188434, Note_on_c, 0, 92, 49
3, 188488, Note_on_c, 0, 91, 0
3, 188539, Note_on_c, 0, 92, 0
3, 188546, Note_on_c, 0, 94, 56
3, 188597, Note_on_c, 0, 60, 0
3, 188604, Note_on_c, 0, 94, 0
3, 188697, Note_on_c, 0, 96, 31
3, 188705, Note_on_c, 0, 62, 25
3, 188716, Note_on_c, 0, 56, 34
3, 188724, Note_on_c, 0, 67, 40
3, 188817, Note_on_c, 0, 96, 0
3, 188853, Note_on_c, 0, 98, 44
3, 188967, Note_on_c, 0, 98, 0
3, 189021, Note_on_c, 0, 99, 45
3, 189059, Note_on_c, 0, 99, 0
3, 189150, Note_on_c, 0, 101, 57
3, 189259, Note_on_c, 0, 101, 0
3, 189286, Control_c, 0, 64, 127
3, 189313, Note_on_c, 0, 103, 51
3, 189355, Note_on_c, 0, 67, 0
3, 189410, Note_on_c, 0, 103, 0
3, 189461, Note_on_c, 0, 105, 54
3, 189495, Note_on_c, 0, 62, 0
3, 189553, Note_on_c, 0, 105, 0
3, 189617, Note_on_c, 0, 56, 0
3, 189631, Note_on_c, 0, 106, 51
3, 189760, Note_on_c, 0, 106, 0
3, 189780, Note_on_c, 0, 107, 64
3, 189926, Note_on_c, 0, 107, 0
3, 190000, Note_on_c, 0, 108, 74
3, 190129, Note_on_c, 0, 108, 0
3, 190204, Note_on_c, 0, 106, 73
3, 190263, Control_c, 0, 64, 0
3, 190395, Note_on_c, 0, 106, 0
3, 190450, Note_on_c, 0, 104, 73
3, 190630, Note_on_c, 0, 104, 0
3, 190661, Note_on_c, 0, 105, 76
3, 190888, Note_on_c, 0, 105, 0
3, 190913, Note_on_c, 0, 102, 64
3, 190966, Note_on_c, 0, 58, 31
3, 190968, Note_on_c, 0, 52, 27
3, 190970, Note_on_c, 0, 57, 45
3, 190973, Note_on_c, 0, 62, 31
3, 191177, Note_on_c, 0, 102, 0
3, 191188, Note_on_c, 0, 103, 68
3, 191449, Note_on_c, 0, 100, 64
3, 191452, Note_on_c, 0, 103, 0
3, 191719, Note_on_c, 0, 102, 72
3, 191753, Note_on_c, 0, 100, 0
3, 192031, Note_on_c, 0, 98, 80
3, 192039, Note_on_c, 0, 102, 0
3, 192283, Control_c, 0, 64, 127
3, 192294, Note_on_c, 0, 101, 80
3, 192308, Note_on_c, 0, 98, 0
3, 192550, Note_on_c, 0, 100, 88
3, 192793, Note_on_c, 0, 97, 78
3, 192805, Note_on_c, 0, 100, 0
3, 192837, Note_on_c, 0, 52, 0
3, 192838, Note_on_c, 0, 57, 0
3, 192936, Note_on_c, 0, 58, 0
3, 192969, Note_on_c, 0, 101, 0
3, 192979, Note_on_c, 0, 62, 0
3, 193047, Note_on_c, 0, 96, 82
3, 193079, Note_on_c, 0, 97, 0
3, 193209, Note_on_c, 0, 96, 0
3, 193285, Note_on_c, 0, 94, 76
3, 193506, Note_on_c, 0, 94, 0
3, 193545, Note_on_c, 0, 93, 75
3, 193568, Note_on_c, 0, 66, 44
3, 193573, Note_on_c, 0, 61, 42
3, 193589, Note_on_c, 0, 55, 49
3, 193591, Note_on_c, 0, 94, 29
3, 193618, Control_c, 0, 64, 0
3, 193627, Note_on_c, 0, 94, 0
3, 193845, Note_on_c, 0, 93, 0
3, 193855, Note_on_c, 0, 91, 54
3, 194131, Note_on_c, 0, 91, 0
3, 194135, Note_on_c, 0, 90, 58
3, 194425, Note_on_c, 0, 89, 47
3, 194436, Note_on_c, 0, 90, 0
3, 194712, Note_on_c, 0, 89, 0
3, 194768, Note_on_c, 0, 88, 46
3, 194788, Control_c, 0, 64, 127
3, 195115, Note_on_c, 0, 85, 60
3, 195132, Note_on_c, 0, 88, 0
3, 195349, Note_on_c, 0, 66, 0
3, 195377, Note_on_c, 0, 85, 0
3, 195456, Note_on_c, 0, 84, 60
3, 195657, Note_on_c, 0, 84, 0
3, 195732, Note_on_c, 0, 82, 57
3, 195969, Note_on_c, 0, 82, 0
3, 196019, Note_on_c, 0, 81, 69
3, 196220, Note_on_c, 0, 81, 0
3, 196224, Note_on_c, 0, 79, 63
3, 196254, Note_on_c, 0, 61, 0
3, 196344, Note_on_c, 0, 79, 0
3, 196372, Note_on_c, 0, 55, 0
3, 196399, Note_on_c, 0, 77, 50
3, 196611, Note_on_c, 0, 76, 53
3, 196617, Note_on_c, 0, 77, 0
3, 196722, Note_on_c, 0, 76, 0
3, 196750, Control_c, 0, 64, 0
3, 196778, Note_on_c, 0, 79, 65
3, 196790, Note_on_c, 0, 50, 38
3, 196909, Note_on_c, 0, 79, 0
3, 196955, Note_on_c, 0, 76, 46
3, 197060, Note_on_c, 0, 76, 0
3, 197137, Note_on_c, 0, 77, 54
3, 197291, Note_on_c, 0, 57, 28
3, 197293, Note_on_c, 0, 77, 0
3, 197342, Note_on_c, 0, 74, 56
3, 197457, Note_on_c, 0, 74, 0
3, 197528, Note_on_c, 0, 69, 47
3, 197605, Note_on_c, 0, 62, 26
3, 197643, Note_on_c, 0, 69, 0
3, 197697, Note_on_c, 0, 62, 0
3, 197755, Note_on_c, 0, 65, 35
3, 197937, Note_on_c, 0, 65, 0
3, 197989, Note_on_c, 0, 62, 44
3, 198065, Control_c, 0, 64, 127
3, 198301, Note_on_c, 0, 50, 0
3, 198375, Note_on_c, 0, 57, 0
3, 198503, Note_on_c, 0, 62, 0
3, 198784, Control_c, 0, 64, 0
3, 198787, Note_on_c, 0, 49, 47
3, 198789, Note_on_c, 0, 82, 81
3, 199022, Note_on_c, 0, 82, 0
3, 199058, Note_on_c, 0, 80, 70
3, 199242, Note_on_c, 0, 75, 60
3, 199305, Note_on_c, 0, 80, 0
3, 199392, Note_on_c, 0, 75, 0
3, 199411, Note_on_c, 0, 71, 43
3, 199545, Note_on_c, 0, 71, 0
3, 199589, Note_on_c, 0, 70, 55
3, 199698, Note_on_c, 0, 70, 0
3, 199791, Note_on_c, 0, 69, 42
3, 199898, Note_on_c, 0, 69, 0
3, 199995, Note_on_c, 0, 68, 25
3, 200149, Note_on_c, 0, 68, 0
3, 200198, Note_on_c, 0, 49, 0
3, 200216, Note_on_c, 0, 67, 40
3, 200267, Note_on_c, 0, 67, 0
3, 200409, Note_on_c, 0, 86, 94
3, 200427, Note_on_c, 0, 48, 47
3, 200635, Note_on_c, 0, 86, 0
3, 200656, Note_on_c, 0, 82, 69
3, 200785, Note_on_c, 0, 82, 0
3, 200842, Note_on_c, 0, 79, 61
3, 200948, Note_on_c, 0, 79, 0
3, 201000, Note_on_c, 0, 75, 53
3, 201118, Note_on_c, 0, 75, 0
3, 201211, Note_on_c, 0, 74, 48
3, 201343, Note_on_c, 0, 74, 0
3, 201400, Note_on_c, 0, 73, 38
3, 201446, Note_on_c, 0, 58, 20
3, 201505, Note_on_c, 0, 58, 0
3, 201530, Note_on_c, 0, 48, 0
3, 201564, Note_on_c, 0, 73, 0
3, 201620, Note_on_c, 0, 72, 24
3, 201670, Note_on_c, 0, 72, 0
3, 201886, Note_on_c, 0, 41, 54
3, 202073, Control_c, 0, 64, 127
3, 202212, Note_on_c, 0, 41, 0
3, 202314, Note_on_c, 0, 93, 87
3, 202316, Note_on_c, 0, 92, 46
3, 202477, Note_on_c, 0, 93, 0
3, 202530, Note_on_c, 0, 92, 0
3, 202746, Note_on_c, 0, 66, 52
3, 202750, Note_on_c, 0, 90, 65
3, 202759, Note_on_c, 0, 61, 49
3, 202778, Note_on_c, 0, 63, 35
3, 202784, Note_on_c, 0, 57, 32
3, 202815, Control_c, 0, 64, 0
3, 203062, Note_on_c, 0, 90, 0
3, 203100, Note_on_c, 0, 89, 64
3, 203252, Control_c, 0, 64, 127
3, 203320, Control_c, 0, 64, 0
3, 203349, Note_on_c, 0, 89, 0
3, 203381, Note_on_c, 0, 87, 64
3, 203677, Note_on_c, 0, 87, 0
3, 203689, Control_c, 0, 64, 127
3, 203693, Note_on_c, 0, 84, 56
3, 203910, Note_on_c, 0, 85, 70
3, 203964, Note_on_c, 0, 84, 0
3, 204086, Note_on_c, 0, 85, 0
3, 204149, Note_on_c, 0, 86, 84
3, 204313, Note_on_c, 0, 86, 0
3, 204369, Note_on_c, 0, 87, 78
3, 204393, Note_on_c, 0, 86, 63
3, 204406, Note_on_c, 0, 66, 0
3, 204429, Note_on_c, 0, 86, 0
3, 204450, Note_on_c, 0, 57, 0
3, 204518, Note_on_c, 0, 61, 0
3, 204533, Note_on_c, 0, 63, 0
3, 204547, Note_on_c, 0, 87, 0
3, 204589, Note_on_c, 0, 88, 74
3, 204790, Note_on_c, 0, 88, 0
3, 204830, Note_on_c, 0, 89, 73
3, 205014, Note_on_c, 0, 89, 0
3, 205068, Note_on_c, 0, 86, 69
3, 205099, Note_on_c, 0, 65, 30
3, 205105, Control_c, 0, 64, 0
3, 205146, Note_on_c, 0, 62, 33
3, 205161, Note_on_c, 0, 60, 32
3, 205211, Note_on_c, 0, 65, 0
3, 205273, Control_c, 0, 64, 127
3, 205276, Note_on_c, 0, 86, 0
3, 205450, Note_on_c, 0, 53, 42
3, 205583, Note_on_c, 0, 60, 0
3, 205590, Note_on_c, 0, 62, 0
3, 205838, Note_on_c, 0, 84, 62
3, 205865, Note_on_c, 0, 77, 67
3, 205876, Note_on_c, 0, 65, 38
3, 205898, Note_on_c, 0, 62, 24
3, 205910, Note_on_c, 0, 74, 38
3, 205912, Note_on_c, 0, 60, 25
3, 205954, Note_on_c, 0, 84, 0
3, 205986, Note_on_c, 0, 77, 0
3, 206018, Note_on_c, 0, 74, 0
3, 206076, Note_on_c, 0, 65, 0
3, 206196, Note_on_c, 0, 53, 0
3, 206287, Note_on_c, 0, 72, 58
3, 206302, Note_on_c, 0, 65, 71
3, 206303, Note_on_c, 0, 53, 39
3, 206327, Note_on_c, 0, 62, 0
3, 206330, Note_on_c, 0, 60, 0
3, 206585, Note_on_c, 0, 72, 0
3, 206605, Note_on_c, 0, 65, 0
3, 206721, Note_on_c, 0, 72, 43
3, 206741, Note_on_c, 0, 62, 59
3, 206750, Note_on_c, 0, 65, 50
3, 207005, Note_on_c, 0, 53, 0
3, 207006, Note_on_c, 0, 62, 0
3, 207019, Note_on_c, 0, 72, 0
3, 207045, Note_on_c, 0, 65, 0
3, 207088, Note_on_c, 0, 70, 61
3, 207406, Note_on_c, 0, 70, 0
3, 207483, Note_on_c, 0, 72, 34
3, 207489, Note_on_c, 0, 61, 36
3, 207493, Note_on_c, 0, 65, 50
3, 207507, Control_c, 0, 64, 0
3, 207508, Note_on_c, 0, 39, 37
3, 207515, Note_on_c, 0, 69, 38
3, 207788, Control_c, 0, 64, 127
3, 207799, Note_on_c, 0, 39, 0
3, 207814, Note_on_c, 0, 46, 39
3, 208093, Note_on_c, 0, 46, 0
3, 208144, Note_on_c, 0, 55, 22
3, 208298, Note_on_c, 0, 55, 0
3, 208360, Control_c, 0, 64, 0
3, 208399, Note_on_c, 0, 57, 42
3, 208669, Note_on_c, 0, 65, 0
3, 208671, Note_on_c, 0, 69, 0
3, 208695, Note_on_c, 0, 57, 0
3, 208779, Note_on_c, 0, 58, 33
3, 208833, Note_on_c, 0, 69, 24
3, 208898, Note_on_c, 0, 69, 0
3, 209019, Note_on_c, 0, 61, 0
3, 209111, Note_on_c, 0, 61, 30
3, 209129, Note_on_c, 0, 60, 47
3, 209138, Note_on_c, 0, 65, 40
3, 209142, Note_on_c, 0, 69, 32
3, 209157, Note_on_c, 0, 58, 0
3, 209370, Control_c, 0, 64, 127
3, 209533, Note_on_c, 0, 60, 0
3, 209540, Note_on_c, 0, 58, 34
3, 209818, Note_on_c, 0, 61, 0
3, 209900, Note_on_c, 0, 58, 0
3, 209932, Note_on_c, 0, 65, 0
3, 209941, Note_on_c, 0, 69, 0
3, 209946, Note_on_c, 0, 72, 0
3, 209961, Note_on_c, 0, 61, 25
3, 209976, Note_on_c, 0, 57, 27
3, 210016, Note_on_c, 0, 57, 0
3, 210083, Note_on_c, 0, 61, 0
3, 210571, Control_c, 0, 64, 0
3, 210574, Note_on_c, 0, 55, 42
3, 210575, Note_on_c, 0, 63, 28
3, 210596, Note_on_c, 0, 45, 37
3, 210604, Note_on_c, 0, 60, 31
3, 210841, Control_c, 0, 64, 127
3, 211165, Note_on_c, 0, 55, 0
3, 211212, Note_on_c, 0, 51, 37
3, 211524, Note_on_c, 0, 60, 0
3, 211612, Note_on_c, 0, 57, 51
3, 211655, Note_on_c, 0, 63, 0
3, 211667, Note_on_c, 0, 57, 0
3, 211717, Control_c, 0, 64, 0
3, 211802, Note_on_c, 0, 60, 57
3, 211903, Note_on_c, 0, 60, 0
3, 211932, Note_on_c, 0, 51, 0
3, 211977, Note_on_c, 0, 63, 51
3, 212014, Note_on_c, 0, 63, 0
3, 212027, Note_on_c, 0, 45, 0
3, 212139, Note_on_c, 0, 67, 71
3, 212208, Note_on_c, 0, 67, 0
3, 212298, Note_on_c, 0, 72, 66
3, 212413, Note_on_c, 0, 72, 0
3, 212464, Note_on_c, 0, 75, 68
3, 212541, Note_on_c, 0, 75, 0
3, 212647, Note_on_c, 0, 79, 66
3, 212735, Note_on_c, 0, 79, 0
3, 212838, Note_on_c, 0, 84, 71
3, 212923, Note_on_c, 0, 84, 0
3, 212997, Note_on_c, 0, 87, 69
3, 213110, Note_on_c, 0, 87, 0
3, 213203, Note_on_c, 0, 89, 74
3, 213284, Note_on_c, 0, 89, 0
3, 213407, Note_on_c, 0, 87, 65
3, 213486, Note_on_c, 0, 54, 35
3, 213531, Note_on_c, 0, 87, 0
3, 213556, Note_on_c, 0, 54, 0
3, 213602, Note_on_c, 0, 78, 52
3, 213715, Note_on_c, 0, 78, 0
3, 213834, Note_on_c, 0, 77, 32
3, 213975, Note_on_c, 0, 77, 0
3, 214046, Note_on_c, 0, 75, 39
3, 214141, Note_on_c, 0, 54, 25
3, 214198, Note_on_c, 0, 64, 12
3, 214244, Note_on_c, 0, 75, 0
3, 214270, Note_on_c, 0, 74, 37
3, 214485, Note_on_c, 0, 60, 1
3, 214738, Note_on_c, 0, 74, 0
3, 214745, Note_on_c, 0, 77, 52
3, 215095, Note_on_c, 0, 69, 46
3, 215151, Control_c, 0, 64, 127
3, 215191, Note_on_c, 0, 77, 0
3, 215469, Note_on_c, 0, 75, 68
3, 215477, Note_on_c, 0, 69, 0
3, 215540, Note_on_c, 0, 64, 0
3, 215905, Note_on_c, 0, 75, 0
3, 215930, Note_on_c, 0, 66, 34
3, 215950, Note_on_c, 0, 67, 77
3, 215968, Note_on_c, 0, 66, 0
3, 216150, Control_c, 0, 64, 0
3, 216217, Control_c, 0, 64, 127
3, 216315, Note_on_c, 0, 67, 0
3, 216319, Note_on_c, 0, 66, 68
3, 216384, Note_on_c, 0, 60, 0
3, 216498, Note_on_c, 0, 54, 0
3, 216574, Note_on_c, 0, 66, 0
3, 216731, Note_on_c, 0, 63, 53
3, 216746, Control_c, 0, 64, 0
3, 216764, Note_on_c, 0, 54, 19
3, 217026, Control_c, 0, 64, 127
3, 217089, Note_on_c, 0, 63, 0
3, 217141, Note_on_c, 0, 44, 35
3, 217143, Note_on_c, 0, 62, 51
3, 217300, Note_on_c, 0, 54, 0
3, 217484, Note_on_c, 0, 44, 0
3, 217619, Note_on_c, 0, 60, 51
3, 217625, Note_on_c, 0, 62, 0
3, 217632, Note_on_c, 0, 43, 29
3, 217643, Control_c, 0, 64, 0
3, 218036, Note_on_c, 0, 60, 0
3, 218048, Note_on_c, 0, 58, 57
3, 218077, Note_on_c, 0, 50, 30
3, 218093, Control_c, 0, 64, 127
3, 218562, Note_on_c, 0, 57, 60
3, 218742, Note_on_c, 0, 58, 0
3, 218949, Note_on_c, 0, 57, 0
3, 219020, Note_on_c, 0, 58, 70
3, 219208, Note_on_c, 0, 58, 0
3, 219544, Note_on_c, 0, 62, 72
3, 219552, Control_c, 0, 64, 0
3, 219557, Note_on_c, 0, 58, 52
3, 219587, Note_on_c, 0, 53, 32
3, 219683, Note_on_c, 0, 50, 0
3, 219686, Control_c, 0, 64, 127
3, 219760, Note_on_c, 0, 43, 0
3, 219910, Note_on_c, 0, 58, 0
3, 219985, Note_on_c, 0, 62, 0
3, 220023, Note_on_c, 0, 53, 0
3, 220045, Note_on_c, 0, 58, 71
3, 220063, Note_on_c, 0, 65, 71
3, 220070, Note_on_c, 0, 62, 54
3, 220081, Note_on_c, 0, 57, 55
3, 220148, Note_on_c, 0, 58, 0
3, 220192, Note_on_c, 0, 62, 0
3, 220214, Note_on_c, 0, 65, 0
3, 220540, Control_c, 0, 64, 0
3, 220565, Note_on_c, 0, 69, 66
3, 220572, Note_on_c, 0, 65, 64
3, 220574, Note_on_c, 0, 62, 60
3, 220606, Note_on_c, 0, 60, 45
3, 220641, Control_c, 0, 64, 127
3, 220689, Note_on_c, 0, 57, 0
3, 220913, Note_on_c, 0, 62, 0
3, 220916, Note_on_c, 0, 65, 0
3, 220923, Note_on_c, 0, 60, 0
3, 220958, Note_on_c, 0, 69, 0
3, 221045, Control_c, 0, 64, 0
3, 221108, Note_on_c, 0, 60, 44
3, 221110, Note_on_c, 0, 72, 37
3, 221112, Note_on_c, 0, 69, 50
3, 221113, Note_on_c, 0, 65, 55
3, 221117, Note_on_c, 0, 62, 58
3, 221214, Control_c, 0, 64, 127
3, 221373, Note_on_c, 0, 65, 0
3, 221393, Note_on_c, 0, 62, 0
3, 221401, Note_on_c, 0, 69, 0
3, 221449, Note_on_c, 0, 72, 0
3, 221457, Note_on_c, 0, 60, 0
3, 221742, Control_c, 0, 64, 0
3, 221763, Note_on_c, 0, 70, 52
3, 221767, Note_on_c, 0, 64, 57
3, 221768, Note_on_c, 0, 75, 51
3, 221770, Note_on_c, 0, 67, 53
3, 221771, Note_on_c, 0, 63, 55
3, 222346, Note_on_c, 0, 64, 0
3, 222357, Note_on_c, 0, 67, 0
3, 222370, Control_c, 0, 64, 127
3, 222418, Note_on_c, 0, 73, 35
3, 222434, Note_on_c, 0, 63, 0
3, 222449, Note_on_c, 0, 61, 40
3, 222466, Note_on_c, 0, 64, 42
3, 222468, Note_on_c, 0, 75, 0
3, 222619, Note_on_c, 0, 61, 0
3, 222665, Note_on_c, 0, 73, 0
3, 222676, Note_on_c, 0, 70, 0
3, 222749, Note_on_c, 0, 64, 0
3, 224065, Note_on_c, 0, 72, 44
3, 224081, Note_on_c, 0, 64, 61
3, 224083, Note_on_c, 0, 61, 43
3, 224088, Control_c, 0, 64, 0
3, 224100, Note_on_c, 0, 48, 34
3, 224112, Note_on_c, 0, 67, 30
3, 224113, Note_on_c, 0, 57, 44
3, 224402, Control_c, 0, 64, 127
3, 224558, Note_on_c, 0, 72, 0
3, 224597, Note_on_c, 0, 67, 0
3, 224618, Note_on_c, 0, 70, 55
3, 224631, Note_on_c, 0, 56, 37
3, 224637, Note_on_c, 0, 57, 0
3, 224782, Note_on_c, 0, 56, 0
3, 224815, Note_on_c, 0, 48, 0
3, 224943, Note_on_c, 0, 64, 0
3, 225011, Note_on_c, 0, 61, 0
3, 225169, Note_on_c, 0, 70, 0
3, 225292, Note_on_c, 0, 67, 44
3, 225305, Note_on_c, 0, 64, 42
3, 225311, Control_c, 0, 64, 0
3, 225315, Note_on_c, 0, 60, 22
3, 225322, Note_on_c, 0, 46, 25
3, 225325, Note_on_c, 0, 55, 32
3, 225738, Control_c, 0, 64, 127
3, 225772, Note_on_c, 0, 64, 0
3, 225901, Note_on_c, 0, 64, 60
3, 226078, Note_on_c, 0, 67, 0
3, 226141, Note_on_c, 0, 55, 0
3, 226147, Note_on_c, 0, 64, 0
3, 226266, Note_on_c, 0, 60, 0
3, 226423, Note_on_c, 0, 46, 0
3, 226613, Control_c, 0, 64, 0
3, 226615, Note_on_c, 0, 63, 50
3, 226623, Note_on_c, 0, 61, 43
3, 226635, Note_on_c, 0, 55, 51
3, 226636, Note_on_c, 0, 58, 47
3, 226651, Note_on_c, 0, 45, 27
3, 227040, Control_c, 0, 64, 127
3, 227053, Note_on_c, 0, 63, 0
3, 227091, Note_on_c, 0, 64, 71
3, 227118, Note_on_c, 0, 49, 42
3, 227131, Note_on_c, 0, 55, 0
3, 227201, Note_on_c, 0, 61, 0
3, 227203, Note_on_c, 0, 58, 0
3, 227235, Note_on_c, 0, 64, 0
3, 227534, Control_c, 0, 64, 0
3, 227571, Note_on_c, 0, 67, 62
3, 227573, Note_on_c, 0, 49, 0
3, 227575, Note_on_c, 0, 64, 70
3, 227579, Note_on_c, 0, 61, 47
3, 227591, Note_on_c, 0, 52, 48
3, 227657, Control_c, 0, 64, 127
3, 227695, Note_on_c, 0, 67, 0
3, 227717, Note_on_c, 0, 64, 0
3, 227799, Note_on_c, 0, 61, 0
3, 227968, Note_on_c, 0, 72, 71
3, 228016, Note_on_c, 0, 55, 40
3, 228031, Note_on_c, 0, 45, 0
3, 228032, Note_on_c, 0, 52, 0
3, 228164, Note_on_c, 0, 55, 0
3, 228275, Note_on_c, 0, 72, 0
3, 228503, Note_on_c, 0, 72, 48
3, 228510, Control_c, 0, 64, 0
3, 228512, Note_on_c, 0, 65, 64
3, 228519, Note_on_c, 0, 61, 52
3, 228521, Note_on_c, 0, 60, 51
3, 228523, Note_on_c, 0, 69, 55
3, 228847, Control_c, 0, 64, 127
3, 228972, Note_on_c, 0, 72, 0
3, 229003, Note_on_c, 0, 69, 0
3, 229073, Note_on_c, 0, 70, 62
3, 229570, Note_on_c, 0, 69, 66
3, 229641, Note_on_c, 0, 70, 0
3, 229805, Note_on_c, 0, 69, 0
3, 229878, Note_on_c, 0, 70, 62
3, 230000, Note_on_c, 0, 65, 0
3, 230020, Note_on_c, 0, 60, 0
3, 230103, Note_on_c, 0, 61, 0
3, 230116, Note_on_c, 0, 70, 0
3, 230292, Note_on_c, 0, 69, 57
3, 230300, Note_on_c, 0, 50, 36
3, 230304, Note_on_c, 0, 65, 48
3, 230324, Note_on_c, 0, 60, 27
3, 230341, Control_c, 0, 64, 0
3, 230790, Control_c, 0, 64, 127
3, 230825, Note_on_c, 0, 57, 37
3, 231230, Note_on_c, 0, 65, 0
3, 231358, Note_on_c, 0, 64, 58
3, 231712, Note_on_c, 0, 64, 0
3, 231878, Note_on_c, 0, 63, 46
3, 232153, Note_on_c, 0, 57, 0
3, 232201, Note_on_c, 0, 60, 0
3, 232222, Note_on_c, 0, 50, 0
3, 232294, Note_on_c, 0, 69, 0
3, 232466, Note_on_c, 0, 63, 0
3, 232601, Note_on_c, 0, 62, 48
3, 232622, Note_on_c, 0, 50, 31
3, 232623, Note_on_c, 0, 60, 24
3, 232642, Control_c, 0, 64, 0
3, 233203, Control_c, 0, 64, 127
3, 233238, Note_on_c, 0, 65, 54
3, 233621, Note_on_c, 0, 60, 0
3, 233783, Note_on_c, 0, 62, 0
3, 233865, Note_on_c, 0, 65, 0
3, 234005, Note_on_c, 0, 66, 44
3, 234013, Note_on_c, 0, 54, 33
3, 234056, Control_c, 0, 64, 0
3, 234072, Note_on_c, 0, 60, 18
3, 234338, Control_c, 0, 64, 127
3, 234686, Note_on_c, 0, 66, 0
3, 234714, Note_on_c, 0, 69, 51
3, 234857, Note_on_c, 0, 60, 0
3, 235067, Note_on_c, 0, 54, 0
3, 235072, Note_on_c, 0, 50, 0
3, 235283, Note_on_c, 0, 69, 0
3, 235754, Note_on_c, 0, 69, 40
3, 235759, Note_on_c, 0, 59, 30
3, 235760, Note_on_c, 0, 64, 40
3, 235769, Note_on_c, 0, 43, 32
3, 235780, Note_on_c, 0, 53, 25
3, 235796, Control_c, 0, 64, 0
3, 236100, Control_c, 0, 64, 127
3, 236578, Note_on_c, 0, 59, 0
3, 236713, Note_on_c, 0, 43, 0
3, 236784, Note_on_c, 0, 64, 0
3, 236810, Note_on_c, 0, 69, 0
3, 236838, Note_on_c, 0, 53, 0
3, 237725, Note_on_c, 0, 74, 51
3, 237728, Note_on_c, 0, 50, 32
3, 237787, Note_on_c, 0, 74, 0
3, 237816, Control_c, 0, 64, 0
3, 237848, Note_on_c, 0, 50, 0
3, 237967, Note_on_c, 0, 77, 46
3, 237997, Note_on_c, 0, 53, 26
3, 238037, Note_on_c, 0, 77, 0
3, 238086, Note_on_c, 0, 53, 0
3, 238215, Note_on_c, 0, 57, 49
3, 238226, Note_on_c, 0, 81, 56
3, 238305, Note_on_c, 0, 57, 0
3, 238328, Note_on_c, 0, 81, 0
3, 238502, Note_on_c, 0, 82, 72
3, 238523, Note_on_c, 0, 58, 49
3, 238700, Note_on_c, 0, 82, 0
3, 238750, Note_on_c, 0, 58, 0
3, 238787, Note_on_c, 0, 84, 69
3, 238799, Note_on_c, 0, 60, 42
3, 239320, Note_on_c, 0, 84, 0
3, 239368, Note_on_c, 0, 82, 51
3, 239382, Note_on_c, 0, 60, 0
3, 239396, Note_on_c, 0, 58, 33
3, 239855, Note_on_c, 0, 58, 0
3, 239876, Note_on_c, 0, 82, 0
3, 239901, Note_on_c, 0, 81, 54
3, 239929, Note_on_c, 0, 57, 45
3, 240123, Note_on_c, 0, 81, 0
3, 240154, Note_on_c, 0, 82, 56
3, 240163, Note_on_c, 0, 57, 0
3, 240186, Note_on_c, 0, 58, 39
3, 240331, Note_on_c, 0, 58, 0
3, 240334, Note_on_c, 0, 82, 0
3, 240397, Note_on_c, 0, 57, 37
3, 240398, Note_on_c, 0, 81, 53
3, 240597, Note_on_c, 0, 81, 0
3, 240604, Note_on_c, 0, 57, 0
3, 240695, Note_on_c, 0, 53, 24
3, 240697, Note_on_c, 0, 77, 20
3, 240802, Control_c, 0, 64, 127
3, 241355, Note_on_c, 0, 77, 0
3, 241374, Note_on_c, 0, 81, 64
3, 241377, Note_on_c, 0, 57, 42
3, 241392, Note_on_c, 0, 53, 0
3, 241815, Note_on_c, 0, 80, 59
3, 241817, Note_on_c, 0, 81, 0
3, 241835, Note_on_c, 0, 57, 0
3, 241854, Note_on_c, 0, 56, 32
3, 242053, Note_on_c, 0, 56, 0
3, 242235, Note_on_c, 0, 80, 0
3, 242319, Control_c, 0, 64, 0
3, 242337, Note_on_c, 0, 79, 49
3, 242353, Note_on_c, 0, 48, 44
3, 242476, Control_c, 0, 64, 127
3, 242604, Note_on_c, 0, 79, 0
3, 242788, Note_on_c, 0, 58, 39
3, 243065, Note_on_c, 0, 60, 32
3, 243157, Note_on_c, 0, 60, 0
3, 243172, Note_on_c, 0, 48, 0
3, 243195, Control_c, 0, 64, 0
3, 243224, Note_on_c, 0, 61, 47
3, 243375, Note_on_c, 0, 58, 0
3, 243376, Note_on_c, 0, 63, 57
3, 243383, Note_on_c, 0, 61, 0
3, 243470, Note_on_c, 0, 63, 0
3, 243519, Note_on_c, 0, 64, 58
3, 243614, Note_on_c, 0, 64, 0
3, 243666, Note_on_c, 0, 66, 52
3, 243759, Note_on_c, 0, 66, 0
3, 243798, Note_on_c, 0, 67, 59
3, 243934, Note_on_c, 0, 67, 0
3, 243958, Note_on_c, 0, 69, 54
3, 244078, Note_on_c, 0, 69, 0
3, 244104, Note_on_c, 0, 70, 59
3, 244202, Note_on_c, 0, 70, 0
3, 244264, Note_on_c, 0, 72, 42
3, 244373, Note_on_c, 0, 72, 0
3, 244434, Note_on_c, 0, 73, 29
3, 244534, Note_on_c, 0, 73, 0
3, 244598, Note_on_c, 0, 75, 44
3, 244713, Note_on_c, 0, 75, 0
3, 244790, Note_on_c, 0, 76, 33
3, 244969, Note_on_c, 0, 76, 0
3, 245117, Note_on_c, 0, 78, 39
3, 245252, Note_on_c, 0, 78, 0
3, 245312, Note_on_c, 0, 79, 49
3, 245438, Note_on_c, 0, 79, 0
3, 245499, Note_on_c, 0, 81, 61
3, 245596, Note_on_c, 0, 81, 0
3, 245692, Note_on_c, 0, 82, 69
3, 245831, Note_on_c, 0, 82, 0
3, 245890, Note_on_c, 0, 84, 72
3, 246036, Note_on_c, 0, 84, 0
3, 246115, Note_on_c, 0, 78, 52
3, 246352, Note_on_c, 0, 78, 0
3, 246367, Note_on_c, 0, 76, 35
3, 246615, Note_on_c, 0, 76, 0
3, 246637, Note_on_c, 0, 81, 62
3, 246890, Note_on_c, 0, 79, 55
3, 246891, Note_on_c, 0, 81, 0
3, 247126, Note_on_c, 0, 73, 44
3, 247203, Note_on_c, 0, 79, 0
3, 247359, Note_on_c, 0, 73, 0
3, 247371, Note_on_c, 0, 72, 36
3, 247551, Note_on_c, 0, 72, 0
3, 247602, Note_on_c, 0, 70, 49
3, 247681, Note_on_c, 0, 58, 25
3, 247687, Note_on_c, 0, 48, 30
3, 247832, Note_on_c, 0, 70, 0
3, 247869, Note_on_c, 0, 69, 54
3, 248106, Note_on_c, 0, 69, 0
3, 248138, Note_on_c, 0, 72, 51
3, 248359, Note_on_c, 0, 72, 0
3, 248429, Note_on_c, 0, 70, 56
3, 248712, Note_on_c, 0, 66, 49
3, 248884, Note_on_c, 0, 70, 0
3, 248999, Note_on_c, 0, 64, 41
3, 249011, Note_on_c, 0, 66, 0
3, 249266, Note_on_c, 0, 69, 61
3, 249323, Note_on_c, 0, 64, 0
3, 249532, Note_on_c, 0, 58, 0
3, 249536, Note_on_c, 0, 69, 0
3, 249549, Note_on_c, 0, 67, 61
3, 249852, Note_on_c, 0, 63, 68
3, 250147, Note_on_c, 0, 48, 0
3, 250174, Note_on_c, 0, 61, 56
3, 250454, Note_on_c, 0, 63, 0
3, 250461, Note_on_c, 0, 61, 0
3, 250503, Control_c, 0, 64, 127
3, 250514, Note_on_c, 0, 60, 69
3, 250644, Note_on_c, 0, 67, 0
3, 250844, Note_on_c, 0, 60, 0
3, 250873, Note_on_c, 0, 58, 71
3, 251204, Note_on_c, 0, 58, 0
3, 251284, Note_on_c, 0, 57, 73
3, 251732, Note_on_c, 0, 55, 80
3, 251878, Note_on_c, 0, 57, 0
3, 252193, Note_on_c, 0, 55, 0
3, 252224, Note_on_c, 0, 53, 81
3, 252741, Note_on_c, 0, 52, 62
3, 252807, Note_on_c, 0, 53, 0
3, 253197, Note_on_c, 0, 52, 0
3, 255239, Note_on_c, 0, 53, 44
3, 255258, Note_on_c, 0, 29, 36
3, 255330, Control_c, 0, 64, 0
3, 255610, Control_c, 0, 64, 127
3, 255872, Note_on_c, 0, 53, 0
3, 255880, Note_on_c, 0, 29, 0
3, 256915, Note_on_c, 0, 79, 47
3, 256950, Note_on_c, 0, 74, 47
3, 256981, Note_on_c, 0, 69, 36
3, 256996, Note_on_c, 0, 64, 24
3, 256997, Note_on_c, 0, 60, 25
3, 257280, Note_on_c, 0, 60, 0
3, 257280, Note_on_c, 0, 69, 0
3, 257280, Note_on_c, 0, 79, 0
3, 257280, Note_on_c, 0, 74, 0
3, 257280, Note_on_c, 0, 64, 0
3, 260240, Control_c, 0, 64, 127
3, 260800, Control_c, 0, 64, 0
3, 261157, Note_on_c, 0, 62, 28
3, 261166, Note_on_c, 0, 52, 30
3, 261171, Note_on_c, 0, 57, 24
3, 261175, Note_on_c, 0, 58, 33
3, 261710, Note_on_c, 0, 58, 0
3, 261909, Note_on_c, 0, 58, 21
3, 262124, Note_on_c, 0, 81, 103
3, 262187, Note_on_c, 0, 57, 0
3, 262193, Note_on_c, 0, 58, 0
3, 262194, Note_on_c, 0, 52, 0
3, 262240, Note_on_c, 0, 62, 0
3, 262268, Note_on_c, 0, 81, 0
3, 262418, Note_on_c, 0, 82, 77
3, 262533, Note_on_c, 0, 82, 0
3, 262705, Note_on_c, 0, 84, 99
3, 262893, Note_on_c, 0, 84, 0
3, 263049, Note_on_c, 0, 82, 77
3, 263063, Note_on_c, 0, 65, 43
3, 263075, Note_on_c, 0, 58, 34
3, 263082, Note_on_c, 0, 61, 35
3, 263105, Note_on_c, 0, 55, 34
3, 263261, Note_on_c, 0, 82, 0
3, 263352, Note_on_c, 0, 84, 45
3, 263433, Note_on_c, 0, 82, 48
3, 263482, Note_on_c, 0, 84, 0
3, 263565, Note_on_c, 0, 82, 0
3, 263620, Note_on_c, 0, 81, 58
3, 263745, Note_on_c, 0, 81, 0
3, 263793, Note_on_c, 0, 79, 60
3, 263894, Note_on_c, 0, 79, 0
3, 264154, Note_on_c, 0, 77, 76
3, 264341, Note_on_c, 0, 77, 0
3, 264345, Note_on_c, 0, 65, 0
3, 264412, Note_on_c, 0, 76, 54
3, 264474, Note_on_c, 0, 61, 0
3, 264492, Note_on_c, 0, 55, 0
3, 264511, Note_on_c, 0, 58, 0
3, 264566, Note_on_c, 0, 76, 0
3, 264672, Note_on_c, 0, 79, 71
3, 264864, Note_on_c, 0, 79, 0
3, 264904, Note_on_c, 0, 76, 51
3, 265022, Note_on_c, 0, 76, 0
3, 265114, Note_on_c, 0, 77, 68
3, 265137, Note_on_c, 0, 57, 27
3, 265166, Note_on_c, 0, 60, 24
3, 265168, Note_on_c, 0, 50, 16
3, 265174, Note_on_c, 0, 53, 22
3, 265337, Note_on_c, 0, 77, 0
3, 265371, Note_on_c, 0, 74, 59
3, 265524, Note_on_c, 0, 74, 0
3, 265611, Note_on_c, 0, 57, 0
3, 265633, Note_on_c, 0, 67, 52
3, 265642, Note_on_c, 0, 60, 0
3, 265732, Note_on_c, 0, 50, 0
3, 265779, Note_on_c, 0, 53, 0
3, 265932, Note_on_c, 0, 67, 0
3, 266074, Note_on_c, 0, 59, 33
3, 266075, Note_on_c, 0, 56, 30
3, 266090, Note_on_c, 0, 49, 27
3, 266641, Note_on_c, 0, 59, 0
3, 266660, Note_on_c, 0, 56, 0
3, 266775, Note_on_c, 0, 49, 0
3, 266977, Note_on_c, 0, 48, 29
3, 266983, Note_on_c, 0, 58, 23
3, 267507, Note_on_c, 0, 62, 91
3, 267530, Note_on_c, 0, 48, 0
3, 267682, Note_on_c, 0, 58, 0
3, 267825, Note_on_c, 0, 62, 0
3, 267841, Note_on_c, 0, 63, 73
3, 268051, Note_on_c, 0, 63, 0
3, 268093, Note_on_c, 0, 65, 56
3, 268225, Note_on_c, 0, 65, 0
3, 268327, Note_on_c, 0, 66, 57
3, 268526, Note_on_c, 0, 66, 0
3, 268575, Note_on_c, 0, 68, 62
3, 268833, Note_on_c, 0, 69, 72
3, 268834, Note_on_c, 0, 68, 0
3, 268845, Note_on_c, 0, 65, 37
3, 268875, Note_on_c, 0, 62, 45
3, 268886, Note_on_c, 0, 60, 36
3, 269048, Note_on_c, 0, 69, 0
3, 269106, Note_on_c, 0, 70, 59
3, 269123, Note_on_c, 0, 65, 0
3, 269233, Note_on_c, 0, 70, 0
3, 269337, Note_on_c, 0, 71, 75
3, 269520, Note_on_c, 0, 71, 0
3, 269580, Note_on_c, 0, 72, 72
3, 269762, Note_on_c, 0, 72, 0
3, 269808, Note_on_c, 0, 53, 32
3, 269822, Note_on_c, 0, 69, 65
3, 269944, Note_on_c, 0, 62, 0
3, 270003, Note_on_c, 0, 60, 0
3, 270008, Note_on_c, 0, 69, 0
3, 270100, Note_on_c, 0, 65, 46
3, 270238, Note_on_c, 0, 65, 0
3, 270303, Note_on_c, 0, 62, 40
3, 270467, Note_on_c, 0, 53, 0
3, 270468, Note_on_c, 0, 62, 0
3, 270535, Note_on_c, 0, 61, 57
3, 270750, Note_on_c, 0, 61, 0
3, 270792, Note_on_c, 0, 60, 49
3, 271412, Note_on_c, 0, 46, 46
3, 271435, Note_on_c, 0, 39, 35
3, 271488, Note_on_c, 0, 39, 0
3, 271523, Note_on_c, 0, 46, 0
3, 272177, Note_on_c, 0, 65, 62
3, 272203, Note_on_c, 0, 60, 0
3, 272411, Note_on_c, 0, 65, 0
3, 272460, Note_on_c, 0, 70, 69
3, 272734, Note_on_c, 0, 60, 33
3, 272745, Note_on_c, 0, 63, 43
3, 272747, Note_on_c, 0, 70, 0
3, 272750, Note_on_c, 0, 67, 56
3, 272794, Note_on_c, 0, 55, 25
3, 272849, Note_on_c, 0, 57, 24
3, 273064, Note_on_c, 0, 72, 49
3, 273112, Note_on_c, 0, 67, 0
3, 273276, Note_on_c, 0, 72, 0
3, 273342, Note_on_c, 0, 75, 80
3, 273484, Note_on_c, 0, 75, 0
3, 273653, Note_on_c, 0, 79, 74
3, 273773, Note_on_c, 0, 79, 0
3, 273924, Note_on_c, 0, 57, 0
3, 273940, Note_on_c, 0, 55, 0
3, 273951, Note_on_c, 0, 84, 96
3, 273970, Note_on_c, 0, 63, 0
3, 274014, Note_on_c, 0, 60, 0
3, 274091, Note_on_c, 0, 84, 0
3, 274244, Note_on_c, 0, 87, 90
3, 274468, Note_on_c, 0, 87, 0
3, 274564, Note_on_c, 0, 89, 80
3, 274730, Note_on_c, 0, 89, 0
3, 274870, Note_on_c, 0, 90, 80
3, 274890, Note_on_c, 0, 65, 64
3, 274895, Note_on_c, 0, 54, 42
3, 274900, Note_on_c, 0, 60, 58
3, 274903, Note_on_c, 0, 58, 50
3, 275096, Note_on_c, 0, 90, 0
3, 275183, Note_on_c, 0, 89, 80
3, 275405, Note_on_c, 0, 89, 0
3, 275519, Note_on_c, 0, 88, 80
3, 275548, Note_on_c, 0, 89, 33
3, 275599, Note_on_c, 0, 89, 0
3, 275677, Note_on_c, 0, 88, 0
3, 275835, Note_on_c, 0, 87, 67
3, 275952, Note_on_c, 0, 65, 0
3, 276022, Note_on_c, 0, 60, 0
3, 276091, Note_on_c, 0, 87, 0
3, 276183, Note_on_c, 0, 84, 71
3, 276256, Note_on_c, 0, 54, 0
3, 276293, Note_on_c, 0, 58, 0
3, 276429, Note_on_c, 0, 84, 0
3, 276493, Note_on_c, 0, 81, 36
3, 276513, Note_on_c, 0, 58, 36
3, 276540, Note_on_c, 0, 57, 36
3, 276541, Note_on_c, 0, 53, 22
3, 276544, Note_on_c, 0, 62, 34
3, 276742, Note_on_c, 0, 81, 0
3, 276820, Note_on_c, 0, 84, 80
3, 277069, Note_on_c, 0, 84, 0
3, 277145, Note_on_c, 0, 82, 81
3, 277465, Note_on_c, 0, 78, 70
3, 277498, Note_on_c, 0, 82, 0
3, 277684, Note_on_c, 0, 78, 0
3, 277759, Note_on_c, 0, 81, 79
3, 277951, Note_on_c, 0, 53, 0
3, 277961, Note_on_c, 0, 57, 0
3, 278008, Note_on_c, 0, 58, 0
3, 278011, Note_on_c, 0, 62, 0
3, 278020, Note_on_c, 0, 81, 0
3, 278085, Note_on_c, 0, 79, 89
3, 278102, Note_on_c, 0, 81, 64
3, 278145, Note_on_c, 0, 81, 0
3, 278396, Note_on_c, 0, 79, 0
3, 278405, Note_on_c, 0, 74, 64
3, 278657, Note_on_c, 0, 74, 0
3, 278714, Note_on_c, 0, 77, 81
3, 278982, Note_on_c, 0, 77, 0
3, 279029, Note_on_c, 0, 75, 79
3, 279289, Note_on_c, 0, 75, 0
3, 279372, Note_on_c, 0, 76, 59
3, 279383, Note_on_c, 0, 69, 19
3, 279394, Note_on_c, 0, 58, 21
3, 279398, Note_on_c, 0, 64, 32
3, 279600, Note_on_c, 0, 76, 0
3, 279675, Note_on_c, 0, 79, 68
3, 279773, Note_on_c, 0, 69, 0
3, 279797, Note_on_c, 0, 64, 0
3, 279833, Note_on_c, 0, 79, 0
3, 279901, Note_on_c, 0, 82, 77
3, 279923, Note_on_c, 0, 58, 0
3, 280063, Note_on_c, 0, 82, 0
3, 280135, Note_on_c, 0, 86, 89
3, 280297, Note_on_c, 0, 86, 0
3, 280367, Note_on_c, 0, 61, 44
3, 280377, Note_on_c, 0, 84, 71
3, 280384, Note_on_c, 0, 66, 37
3, 280400, Note_on_c, 0, 55, 39
3, 281608, Note_on_c, 0, 55, 0
3, 281645, Note_on_c, 0, 66, 0
3, 281681, Note_on_c, 0, 61, 0
3, 282034, Note_on_c, 0, 55, 81
3, 282044, Note_on_c, 0, 61, 79
3, 282053, Note_on_c, 0, 65, 84
3, 282326, Note_on_c, 0, 55, 0
3, 282348, Note_on_c, 0, 65, 0
3, 282410, Note_on_c, 0, 61, 0
3, 282421, Note_on_c, 0, 84, 0
3, 282454, Note_on_c, 0, 60, 36
3, 282486, Note_on_c, 0, 64, 69
3, 282487, Note_on_c, 0, 54, 53
3, 283076, Note_on_c, 0, 86, 96
3, 283240, Note_on_c, 0, 86, 0
3, 283446, Note_on_c, 0, 80, 73
3, 283450, Note_on_c, 0, 84, 68
3, 283484, Note_on_c, 0, 82, 39
3, 283528, Note_on_c, 0, 82, 0
3, 283679, Note_on_c, 0, 81, 58
3, 283683, Note_on_c, 0, 80, 0
3, 283760, Note_on_c, 0, 84, 0
3, 283776, Note_on_c, 0, 60, 0
3, 283812, Note_on_c, 0, 81, 0
3, 283868, Note_on_c, 0, 64, 0
3, 283983, Note_on_c, 0, 72, 58
3, 284165, Note_on_c, 0, 72, 0
3, 284169, Note_on_c, 0, 54, 0
3, 284312, Note_on_c, 0, 74, 66
3, 284334, Note_on_c, 0, 53, 31
3, 284343, Note_on_c, 0, 64, 44
3, 284353, Note_on_c, 0, 59, 47
3, 284819, Note_on_c, 0, 74, 0
3, 284918, Note_on_c, 0, 77, 80
3, 285126, Note_on_c, 0, 77, 0
3, 285255, Note_on_c, 0, 79, 103
3, 285714, Note_on_c, 0, 64, 0
3, 285717, Note_on_c, 0, 53, 0
3, 285778, Note_on_c, 0, 59, 0
3, 285815, Note_on_c, 0, 53, 37
3, 285816, Note_on_c, 0, 79, 0
3, 285819, Note_on_c, 0, 59, 20
3, 285839, Note_on_c, 0, 74, 79
3, 285840, Note_on_c, 0, 64, 37
3, 285962, Note_on_c, 0, 74, 0
3, 286170, Note_on_c, 0, 80, 88
3, 286181, Note_on_c, 0, 86, 83
3, 286330, Note_on_c, 0, 80, 0
3, 286345, Note_on_c, 0, 64, 0
3, 286352, Note_on_c, 0, 79, 65
3, 286406, Note_on_c, 0, 86, 0
3, 286530, Note_on_c, 0, 79, 0
3, 286560, Note_on_c, 0, 77, 54
3, 286734, Note_on_c, 0, 77, 0
3, 286830, Note_on_c, 0, 74, 29
3, 286845, Note_on_c, 0, 76, 25
3, 286900, Note_on_c, 0, 76, 0
3, 286935, Note_on_c, 0, 74, 0
3, 287105, Note_on_c, 0, 77, 81
3, 287149, Note_on_c, 0, 64, 38
3, 287323, Note_on_c, 0, 64, 0
3, 287358, Note_on_c, 0, 77, 0
3, 287365, Note_on_c, 0, 79, 74
3, 287557, Note_on_c, 0, 79, 0
3, 287635, Note_on_c, 0, 77, 80
3, 287676, Note_on_c, 0, 59, 0
3, 287846, Note_on_c, 0, 53, 0
3, 288050, Note_on_c, 0, 62, 45
3, 288073, Note_on_c, 0, 57, 26
3, 288084, Note_on_c, 0, 58, 33
3, 288145, Note_on_c, 0, 57, 0
3, 288147, Note_on_c, 0, 62, 0
3, 288190, Note_on_c, 0, 58, 0
3, 288649, Note_on_c, 0, 77, 0
3, 288705, Note_on_c, 0, 74, 87
3, 288967, Note_on_c, 0, 74, 0
3, 289070, Note_on_c, 0, 70, 69
3, 289314, Note_on_c, 0, 70, 0
3, 289396, Note_on_c, 0, 65, 36
3, 289613, Note_on_c, 0, 65, 0
3, 289697, Note_on_c, 0, 67, 83
3, 289941, Note_on_c, 0, 67, 0
3, 290036, Note_on_c, 0, 69, 95
3, 290322, Note_on_c, 0, 69, 0
3, 290365, Note_on_c, 0, 70, 77
3, 290562, Note_on_c, 0, 70, 0
3, 290622, Note_on_c, 0, 72, 73
3, 290804, Note_on_c, 0, 72, 0
3, 290824, Note_on_c, 0, 73, 49
3, 290971, Note_on_c, 0, 73, 0
3, 290998, Note_on_c, 0, 75, 59
3, 291097, Note_on_c, 0, 75, 0
3, 291122, Note_on_c, 0, 76, 64
3, 291250, Note_on_c, 0, 76, 0
3, 291294, Note_on_c, 0, 78, 51
3, 291381, Note_on_c, 0, 78, 0
3, 291444, Note_on_c, 0, 79, 51
3, 291528, Note_on_c, 0, 80, 43
3, 291565, Note_on_c, 0, 79, 0
3, 291575, Note_on_c, 0, 80, 0
3, 291582, Note_on_c, 0, 81, 46
3, 291716, Note_on_c, 0, 82, 47
3, 291787, Note_on_c, 0, 81, 0
3, 291858, Note_on_c, 0, 83, 44
3, 291860, Note_on_c, 0, 82, 0
3, 291933, Note_on_c, 0, 83, 0
3, 291949, Note_on_c, 0, 84, 66
3, 292075, Note_on_c, 0, 58, 35
3, 292078, Note_on_c, 0, 62, 33
3, 292086, Note_on_c, 0, 52, 35
3, 292106, Note_on_c, 0, 82, 62
3, 292133, Note_on_c, 0, 84, 0
3, 292982, Note_on_c, 0, 52, 0
3, 293053, Note_on_c, 0, 58, 0
3, 293196, Note_on_c, 0, 62, 0
3, 293261, Note_on_c, 0, 82, 0
3, 293331, Note_on_c, 0, 81, 68
3, 293436, Note_on_c, 0, 81, 0
3, 293453, Note_on_c, 0, 82, 60
3, 293580, Note_on_c, 0, 81, 54
3, 293624, Note_on_c, 0, 82, 0
3, 293837, Note_on_c, 0, 81, 0
3, 293966, Note_on_c, 0, 79, 76
3, 293989, Note_on_c, 0, 61, 40
3, 293994, Note_on_c, 0, 65, 46
3, 294018, Note_on_c, 0, 55, 35
3, 294117, Note_on_c, 0, 81, 65
3, 294118, Note_on_c, 0, 79, 0
3, 294229, Note_on_c, 0, 79, 35
3, 294285, Note_on_c, 0, 81, 0
3, 294449, Note_on_c, 0, 79, 0
3, 294587, Note_on_c, 0, 77, 77
3, 294743, Note_on_c, 0, 77, 0
3, 294765, Note_on_c, 0, 79, 71
3, 294907, Note_on_c, 0, 77, 57
3, 294917, Note_on_c, 0, 79, 0
3, 295009, Note_on_c, 0, 65, 0
3, 295118, Note_on_c, 0, 77, 0
3, 295188, Note_on_c, 0, 61, 0
3, 295215, Note_on_c, 0, 55, 0
3, 295232, Note_on_c, 0, 76, 74
3, 295369, Note_on_c, 0, 76, 0
3, 295380, Note_on_c, 0, 77, 62
3, 295544, Note_on_c, 0, 76, 64
3, 295575, Note_on_c, 0, 77, 0
3, 295689, Note_on_c, 0, 76, 0
3, 295785, Note_on_c, 0, 50, 34
3, 295799, Note_on_c, 0, 57, 34
3, 295800, Note_on_c, 0, 60, 29
3, 295898, Note_on_c, 0, 60, 0
3, 295910, Note_on_c, 0, 57, 0
3, 295912, Note_on_c, 0, 50, 0
3, 297307, Note_on_c, 0, 49, 48
3, 297310, Note_on_c, 0, 56, 36
3, 297321, Note_on_c, 0, 59, 36
3, 297394, Note_on_c, 0, 59, 0
3, 297488, Note_on_c, 0, 56, 0
3, 297506, Note_on_c, 0, 49, 0
3, 297665, Note_on_c, 0, 48, 38
3, 297697, Note_on_c, 0, 58, 29
3, 297821, Note_on_c, 0, 48, 0
3, 297853, Note_on_c, 0, 58, 0
3, 298250, Note_on_c, 0, 74, 75
3, 298384, Note_on_c, 0, 74, 0
3, 298558, Note_on_c, 0, 79, 76
3, 298664, Note_on_c, 0, 79, 0
3, 298836, Note_on_c, 0, 82, 70
3, 298969, Note_on_c, 0, 82, 0
3, 299122, Note_on_c, 0, 63, 65
3, 299128, Note_on_c, 0, 57, 63
3, 299130, Note_on_c, 0, 74, 85
3, 299133, Note_on_c, 0, 86, 90
3, 299138, Note_on_c, 0, 67, 48
3, 299174, Note_on_c, 0, 57, 0
3, 299183, Note_on_c, 0, 67, 0
3, 299246, Note_on_c, 0, 74, 0
3, 299286, Note_on_c, 0, 86, 0
3, 299290, Note_on_c, 0, 63, 0
3, 299458, Note_on_c, 0, 62, 78
3, 299463, Note_on_c, 0, 55, 74
3, 299472, Note_on_c, 0, 89, 88
3, 299475, Note_on_c, 0, 77, 83
3, 299488, Note_on_c, 0, 65, 64
3, 299500, Note_on_c, 0, 60, 57
3, 299509, Note_on_c, 0, 79, 39
3, 299554, Note_on_c, 0, 79, 0
3, 299734, Note_on_c, 0, 89, 0
3, 299738, Note_on_c, 0, 65, 0
3, 299765, Note_on_c, 0, 60, 0
3, 299779, Note_on_c, 0, 62, 0
3, 299783, Note_on_c, 0, 77, 0
3, 299790, Note_on_c, 0, 55, 0
3, 300489, Note_on_c, 0, 82, 65
3, 300494, Note_on_c, 0, 62, 46
3, 300496, Note_on_c, 0, 65, 51
3, 300501, Note_on_c, 0, 74, 60
3, 300505, Note_on_c, 0, 60, 44
3, 300506, Note_on_c, 0, 86, 57
3, 300524, Note_on_c, 0, 55, 41
3, 300529, Note_on_c, 0, 88, 29
3, 300579, Note_on_c, 0, 88, 0
3, 300921, Note_on_c, 0, 83, 28
3, 300922, Note_on_c, 0, 62, 0
3, 300925, Note_on_c, 0, 65, 0
3, 300928, Note_on_c, 0, 55, 0
3, 300943, Note_on_c, 0, 86, 0
3, 300945, Note_on_c, 0, 74, 0
3, 300957, Note_on_c, 0, 82, 0
3, 300991, Note_on_c, 0, 83, 0
3, 301028, Note_on_c, 0, 60, 0
3, 301484, Note_on_c, 0, 80, 68
3, 301498, Note_on_c, 0, 61, 42
3, 301500, Note_on_c, 0, 72, 52
3, 301502, Note_on_c, 0, 55, 40
3, 301505, Note_on_c, 0, 84, 67
3, 301510, Note_on_c, 0, 65, 39
3, 301913, Note_on_c, 0, 81, 34
3, 301963, Note_on_c, 0, 80, 0
3, 302643, Note_on_c, 0, 81, 0
3, 303054, Note_on_c, 0, 55, 0
3, 303076, Note_on_c, 0, 65, 0
3, 303111, Note_on_c, 0, 72, 0
3, 303112, Note_on_c, 0, 84, 0
3, 303175, Note_on_c, 0, 81, 71
3, 303332, Note_on_c, 0, 81, 0
3, 303354, Note_on_c, 0, 61, 0
3, 303543, Note_on_c, 0, 74, 80
3, 303563, Note_on_c, 0, 63, 45
3, 303595, Note_on_c, 0, 60, 40
3, 303599, Note_on_c, 0, 57, 38
3, 304813, Note_on_c, 0, 74, 0
3, 304841, Note_on_c, 0, 75, 82
3, 304884, Note_on_c, 0, 57, 0
3, 304966, Note_on_c, 0, 63, 0
3, 304978, Note_on_c, 0, 60, 0
3, 305046, Note_on_c, 0, 75, 0
3, 305094, Note_on_c, 0, 74, 87
3, 305122, Note_on_c, 0, 75, 52
3, 305166, Note_on_c, 0, 75, 0
3, 305363, Note_on_c, 0, 74, 0
3, 305413, Note_on_c, 0, 60, 38
3, 305415, Note_on_c, 0, 54, 34
3, 305417, Note_on_c, 0, 64, 35
3, 305441, Note_on_c, 0, 72, 45
3, 305618, Note_on_c, 0, 72, 0
3, 305714, Note_on_c, 0, 70, 76
3, 305892, Note_on_c, 0, 70, 0
3, 305956, Note_on_c, 0, 69, 80
3, 306180, Note_on_c, 0, 70, 73
3, 306240, Note_on_c, 0, 69, 0
3, 306346, Note_on_c, 0, 70, 0
3, 306445, Note_on_c, 0, 72, 70
3, 306514, Note_on_c, 0, 64, 0
3, 306672, Note_on_c, 0, 60, 0
3, 306747, Note_on_c, 0, 70, 77
3, 306808, Note_on_c, 0, 72, 0
3, 306872, Note_on_c, 0, 54, 0
3, 306896, Note_on_c, 0, 70, 0
3, 307113, Note_on_c, 0, 53, 34
3, 307139, Note_on_c, 0, 55, 43
3, 307161, Note_on_c, 0, 62, 35
3, 307164, Note_on_c, 0, 58, 37
3, 307307, Note_on_c, 0, 66, 60
3, 307446, Note_on_c, 0, 66, 0
3, 307503, Note_on_c, 0, 69, 74
3, 307712, Note_on_c, 0, 66, 61
3, 307719, Note_on_c, 0, 69, 0
3, 307813, Note_on_c, 0, 62, 0
3, 307815, Note_on_c, 0, 66, 0
3, 307895, Note_on_c, 0, 67, 88
3, 308102, Note_on_c, 0, 67, 0
3, 308120, Note_on_c, 0, 62, 53
3, 308164, Note_on_c, 0, 58, 0
3, 308234, Note_on_c, 0, 55, 0
3, 308296, Note_on_c, 0, 53, 0
3, 308339, Note_on_c, 0, 62, 0
3, 308441, Note_on_c, 0, 62, 60
3, 308591, Note_on_c, 0, 62, 0
3, 308675, Note_on_c, 0, 63, 74
3, 308860, Note_on_c, 0, 63, 0
3, 308941, Note_on_c, 0, 63, 69
3, 309152, Note_on_c, 0, 63, 0
3, 309176, Note_on_c, 0, 48, 36
3, 309185, Note_on_c, 0, 64, 67
3, 309227, Note_on_c, 0, 58, 21
3, 309733, Note_on_c, 0, 60, 46
3, 309828, Note_on_c, 0, 64, 0
3, 309842, Note_on_c, 0, 60, 0
3, 310215, Note_on_c, 0, 60, 34
3, 310270, Note_on_c, 0, 48, 0
3, 310434, Note_on_c, 0, 58, 0
3, 310568, Note_on_c, 0, 60, 0
3, 311129, Note_on_c, 0, 60, 80
3, 311136, Note_on_c, 0, 81, 88
3, 311138, Note_on_c, 0, 61, 69
3, 311142, Note_on_c, 0, 69, 101
3, 311149, Note_on_c, 0, 55, 74
3, 311152, Note_on_c, 0, 65, 75
3, 311164, Note_on_c, 0, 58, 46
3, 311478, Note_on_c, 0, 69, 0
3, 311489, Note_on_c, 0, 81, 0
3, 311559, Note_on_c, 0, 55, 0
3, 311600, Note_on_c, 0, 65, 0
3, 311619, Note_on_c, 0, 58, 0
3, 311643, Note_on_c, 0, 60, 0
3, 311645, Note_on_c, 0, 61, 0
3, 311742, Note_on_c, 0, 70, 90
3, 311745, Note_on_c, 0, 82, 83
3, 311750, Note_on_c, 0, 61, 64
3, 311755, Note_on_c, 0, 60, 69
3, 311765, Note_on_c, 0, 65, 73
3, 311768, Note_on_c, 0, 55, 74
3, 311811, Note_on_c, 0, 58, 26
3, 311924, Note_on_c, 0, 70, 0
3, 311940, Note_on_c, 0, 65, 0
3, 311945, Note_on_c, 0, 55, 0
3, 311951, Note_on_c, 0, 82, 0
3, 311976, Note_on_c, 0, 58, 0
3, 312012, Note_on_c, 0, 60, 0
3, 312020, Note_on_c, 0, 61, 0
3, 312108, Note_on_c, 0, 60, 67
3, 312110, Note_on_c, 0, 61, 58
3, 312111, Note_on_c, 0, 65, 71
3, 312121, Note_on_c, 0, 55, 62
3, 312131, Note_on_c, 0, 84, 68
3, 312133, Note_on_c, 0, 86, 76
3, 312137, Note_on_c, 0, 72, 61
3, 312147, Note_on_c, 0, 74, 56
3, 312175, Note_on_c, 0, 86, 0
3, 312193, Note_on_c, 0, 74, 0
3, 312251, Note_on_c, 0, 72, 0
3, 312255, Note_on_c, 0, 84, 0
3, 312306, Note_on_c, 0, 65, 0
3, 312320, Note_on_c, 0, 60, 0
3, 312330, Note_on_c, 0, 61, 0
3, 312343, Note_on_c, 0, 55, 0
3, 312672, Note_on_c, 0, 82, 74
3, 312678, Note_on_c, 0, 70, 74
3, 312686, Note_on_c, 0, 54, 63
3, 312687, Note_on_c, 0, 64, 73
3, 312698, Note_on_c, 0, 60, 64
3, 312900, Note_on_c, 0, 64, 0
3, 312913, Note_on_c, 0, 82, 0
3, 312928, Note_on_c, 0, 70, 0
3, 312939, Note_on_c, 0, 54, 0
3, 312966, Note_on_c, 0, 60, 0
3, 313041, Note_on_c, 0, 54, 53
3, 313050, Note_on_c, 0, 81, 59
3, 313059, Note_on_c, 0, 64, 42
3, 313062, Note_on_c, 0, 69, 52
3, 313065, Note_on_c, 0, 60, 37
3, 313541, Note_on_c, 0, 69, 0
3, 313570, Note_on_c, 0, 60, 0
3, 313599, Note_on_c, 0, 64, 0
3, 313618, Note_on_c, 0, 54, 0
3, 313625, Note_on_c, 0, 81, 0
3, 313680, Note_on_c, 0, 54, 31
3, 313704, Note_on_c, 0, 64, 33
3, 313713, Note_on_c, 0, 60, 44
3, 314081, Note_on_c, 0, 86, 85
3, 314091, Note_on_c, 0, 80, 80
3, 314177, Note_on_c, 0, 81, 51
3, 314260, Note_on_c, 0, 64, 0
3, 314289, Note_on_c, 0, 80, 0
3, 314331, Note_on_c, 0, 60, 0
3, 314419, Note_on_c, 0, 86, 0
3, 314435, Note_on_c, 0, 81, 0
3, 314436, Note_on_c, 0, 54, 0
3, 314660, Note_on_c, 0, 54, 53
3, 314663, Note_on_c, 0, 86, 82
3, 314665, Note_on_c, 0, 80, 80
3, 314679, Note_on_c, 0, 64, 53
3, 314692, Note_on_c, 0, 58, 46
3, 314693, Note_on_c, 0, 60, 48
3, 314829, Note_on_c, 0, 60, 0
3, 314870, Note_on_c, 0, 80, 0
3, 314875, Note_on_c, 0, 64, 0
3, 314887, Note_on_c, 0, 81, 42
3, 314943, Note_on_c, 0, 54, 0
3, 314959, Note_on_c, 0, 81, 0
3, 314978, Note_on_c, 0, 58, 0
3, 314987, Note_on_c, 0, 86, 0
3, 315040, Note_on_c, 0, 64, 38
3, 315047, Note_on_c, 0, 53, 45
3, 315057, Note_on_c, 0, 59, 58
3, 315085, Note_on_c, 0, 77, 69
3, 315669, Note_on_c, 0, 74, 56
3, 316040, Note_on_c, 0, 77, 0
3, 316298, Note_on_c, 0, 74, 0
3, 316471, Note_on_c, 0, 64, 0
3, 316484, Note_on_c, 0, 59, 0
3, 316524, Note_on_c, 0, 53, 0
3, 316641, Note_on_c, 0, 80, 93
3, 316643, Note_on_c, 0, 86, 99
3, 316646, Note_on_c, 0, 62, 80
3, 316649, Note_on_c, 0, 52, 71
3, 316654, Note_on_c, 0, 58, 69
3, 316901, Note_on_c, 0, 80, 0
3, 316920, Note_on_c, 0, 62, 0
3, 316926, Note_on_c, 0, 81, 39
3, 316989, Note_on_c, 0, 58, 0
3, 316997, Note_on_c, 0, 81, 0
3, 317015, Note_on_c, 0, 86, 0
3, 317085, Note_on_c, 0, 52, 0
3, 317162, Note_on_c, 0, 77, 70
3, 317607, Note_on_c, 0, 77, 0
3, 317647, Note_on_c, 0, 47, 64
3, 317650, Note_on_c, 0, 48, 67
3, 317659, Note_on_c, 0, 74, 66
3, 317750, Note_on_c, 0, 47, 0
3, 318192, Note_on_c, 0, 74, 0
3, 318531, Note_on_c, 0, 74, 65
3, 318563, Note_on_c, 0, 47, 43
3, 318637, Note_on_c, 0, 74, 0
3, 318690, Note_on_c, 0, 47, 0
3, 318897, Note_on_c, 0, 80, 87
3, 318903, Note_on_c, 0, 86, 87
3, 318960, Note_on_c, 0, 48, 0
3, 319085, Note_on_c, 0, 86, 0
3, 319129, Note_on_c, 0, 80, 0
3, 319158, Note_on_c, 0, 86, 60
3, 319179, Note_on_c, 0, 81, 60
3, 319367, Note_on_c, 0, 86, 0
3, 319376, Note_on_c, 0, 81, 0
3, 319430, Note_on_c, 0, 77, 60
3, 319682, Note_on_c, 0, 77, 0
3, 319687, Note_on_c, 0, 74, 51
3, 319830, Note_on_c, 0, 74, 0
3, 319923, Note_on_c, 0, 77, 68
3, 320115, Note_on_c, 0, 77, 0
3, 320146, Note_on_c, 0, 79, 67
3, 320305, Note_on_c, 0, 79, 0
3, 320379, Note_on_c, 0, 77, 71
3, 321907, Note_on_c, 0, 77, 0
3, 322320, Note_on_c, 0, 86, 88
3, 322325, Note_on_c, 0, 80, 72
3, 322327, Note_on_c, 0, 74, 76
3, 322361, Note_on_c, 0, 67, 38
3, 322375, Note_on_c, 0, 63, 23
3, 322414, Note_on_c, 0, 67, 0
3, 322447, Note_on_c, 0, 63, 0
3, 322530, Note_on_c, 0, 86, 0
3, 322574, Note_on_c, 0, 74, 0
3, 322637, Note_on_c, 0, 80, 0
3, 322681, Note_on_c, 0, 67, 41
3, 322695, Note_on_c, 0, 63, 32
3, 322698, Note_on_c, 0, 62, 39
3, 322706, Note_on_c, 0, 84, 53
3, 322709, Note_on_c, 0, 57, 38
3, 322717, Note_on_c, 0, 72, 32
3, 322719, Note_on_c, 0, 79, 46
3, 322946, Note_on_c, 0, 72, 0
3, 322950, Note_on_c, 0, 84, 0
3, 322965, Note_on_c, 0, 79, 0
3, 322977, Note_on_c, 0, 62, 0
3, 322987, Note_on_c, 0, 57, 0
3, 322988, Note_on_c, 0, 67, 0
3, 323001, Note_on_c, 0, 63, 0
3, 323581, Note_on_c, 0, 67, 54
3, 323585, Note_on_c, 0, 74, 73
3, 323586, Note_on_c, 0, 63, 38
3, 323593, Note_on_c, 0, 62, 46
3, 323594, Note_on_c, 0, 86, 78
3, 323600, Note_on_c, 0, 79, 55
3, 323602, Note_on_c, 0, 57, 46
3, 323895, Note_on_c, 0, 86, 0
3, 323939, Note_on_c, 0, 79, 0
3, 323947, Note_on_c, 0, 74, 0
3, 323955, Note_on_c, 0, 57, 0
3, 323971, Note_on_c, 0, 67, 0
3, 324002, Note_on_c, 0, 63, 0
3, 324020, Note_on_c, 0, 62, 0
3, 324535, Note_on_c, 0, 62, 43
3, 324546, Note_on_c, 0, 67, 54
3, 324558, Note_on_c, 0, 63, 47
3, 324562, Note_on_c, 0, 72, 52
3, 324564, Note_on_c, 0, 84, 67
3, 324567, Note_on_c, 0, 79, 57
3, 324570, Note_on_c, 0, 58, 39
3, 324902, Note_on_c, 0, 72, 0
3, 324903, Note_on_c, 0, 79, 0
3, 324939, Note_on_c, 0, 67, 0
3, 324944, Note_on_c, 0, 84, 0
3, 324949, Note_on_c, 0, 63, 0
3, 324950, Note_on_c, 0, 62, 0
3, 324972, Note_on_c, 0, 58, 0
3, 325486, Note_on_c, 0, 67, 57
3, 325490, Note_on_c, 0, 62, 57
3, 325491, Note_on_c, 0, 79, 73
3, 325493, Note_on_c, 0, 86, 85
3, 325496, Note_on_c, 0, 74, 73
3, 325497, Note_on_c, 0, 63, 38
3, 325514, Note_on_c, 0, 58, 35
3, 325813, Note_on_c, 0, 74, 0
3, 325855, Note_on_c, 0, 79, 0
3, 325856, Note_on_c, 0, 67, 0
3, 325873, Note_on_c, 0, 62, 0
3, 325888, Note_on_c, 0, 63, 0
3, 325936, Note_on_c, 0, 86, 0
3, 326006, Note_on_c, 0, 58, 0
3, 326486, Note_on_c, 0, 86, 123
3, 326496, Note_on_c, 0, 91, 85
3, 326500, Note_on_c, 0, 67, 62
3, 326501, Note_on_c, 0, 63, 42
3, 326523, Note_on_c, 0, 62, 40
3, 326560, Note_on_c, 0, 58, 18
3, 326691, Note_on_c, 0, 86, 0
3, 326761, Note_on_c, 0, 87, 56
3, 326836, Note_on_c, 0, 67, 0
3, 326874, Note_on_c, 0, 86, 54
3, 326897, Note_on_c, 0, 91, 0
3, 326938, Note_on_c, 0, 87, 0
3, 326961, Note_on_c, 0, 63, 0
3, 327016, Note_on_c, 0, 86, 0
3, 327018, Note_on_c, 0, 84, 57
3, 327120, Note_on_c, 0, 84, 0
3, 327231, Note_on_c, 0, 83, 66
3, 327370, Note_on_c, 0, 83, 0
3, 327423, Note_on_c, 0, 86, 88
3, 327471, Note_on_c, 0, 67, 36
3, 327575, Note_on_c, 0, 86, 0
3, 327662, Note_on_c, 0, 84, 77
3, 327703, Note_on_c, 0, 86, 26
3, 327747, Note_on_c, 0, 86, 0
3, 327804, Note_on_c, 0, 84, 0
3, 327816, Note_on_c, 0, 62, 0
3, 327861, Note_on_c, 0, 67, 0
3, 327878, Note_on_c, 0, 79, 52
3, 328013, Note_on_c, 0, 79, 0
3, 328118, Note_on_c, 0, 77, 50
3, 328150, Note_on_c, 0, 58, 0
3, 328261, Note_on_c, 0, 77, 0
3, 328376, Note_on_c, 0, 63, 39
3, 328377, Note_on_c, 0, 67, 45
3, 328396, Note_on_c, 0, 57, 42
3, 328802, Note_on_c, 0, 74, 105
3, 328915, Note_on_c, 0, 74, 0
3, 329022, Note_on_c, 0, 75, 88
3, 329071, Note_on_c, 0, 67, 0
3, 329177, Note_on_c, 0, 75, 0
3, 329180, Note_on_c, 0, 57, 0
3, 329181, Note_on_c, 0, 63, 0
3, 329279, Note_on_c, 0, 77, 80
3, 329310, Note_on_c, 0, 63, 39
3, 329314, Note_on_c, 0, 57, 39
3, 329317, Note_on_c, 0, 67, 48
3, 329452, Note_on_c, 0, 77, 0
3, 329532, Note_on_c, 0, 74, 69
3, 329593, Note_on_c, 0, 67, 0
3, 329688, Note_on_c, 0, 74, 0
3, 329744, Note_on_c, 0, 57, 0
3, 329781, Note_on_c, 0, 69, 52
3, 329953, Note_on_c, 0, 69, 0
3, 329970, Note_on_c, 0, 63, 0
3, 330043, Note_on_c, 0, 72, 71
3, 330254, Note_on_c, 0, 72, 0
3, 330283, Note_on_c, 0, 65, 34
3, 330305, Note_on_c, 0, 62, 34
3, 330306, Note_on_c, 0, 69, 68
3, 330309, Note_on_c, 0, 60, 35
3, 330359, Note_on_c, 0, 55, 24
3, 330374, Note_on_c, 0, 65, 0
3, 330429, Note_on_c, 0, 62, 0
3, 330446, Note_on_c, 0, 60, 0
3, 330533, Note_on_c, 0, 69, 0
3, 330580, Note_on_c, 0, 55, 0
3, 330588, Note_on_c, 0, 65, 58
3, 330720, Note_on_c, 0, 65, 0
3, 330792, Note_on_c, 0, 62, 65
3, 331064, Note_on_c, 0, 58, 61
3, 331080, Note_on_c, 0, 62, 0
3, 331185, Note_on_c, 0, 58, 0
3, 331294, Note_on_c, 0, 60, 74
3, 331542, Note_on_c, 0, 60, 0
3, 331583, Note_on_c, 0, 57, 57
3, 331718, Note_on_c, 0, 57, 0
3, 331794, Note_on_c, 0, 58, 57
3, 331985, Note_on_c, 0, 58, 0
3, 332049, Note_on_c, 0, 60, 65
3, 332207, Note_on_c, 0, 60, 0
3, 332268, Note_on_c, 0, 61, 62
3, 332355, Note_on_c, 0, 61, 0
3, 332494, Note_on_c, 0, 65, 59
3, 332637, Note_on_c, 0, 65, 0
3, 332703, Note_on_c, 0, 70, 52
3, 332800, Note_on_c, 0, 70, 0
3, 332915, Note_on_c, 0, 72, 48
3, 333034, Note_on_c, 0, 72, 0
3, 333099, Note_on_c, 0, 77, 62
3, 333238, Note_on_c, 0, 77, 0
3, 333278, Note_on_c, 0, 82, 50
3, 333359, Note_on_c, 0, 82, 0
3, 333445, Note_on_c, 0, 83, 57
3, 333472, Note_on_c, 0, 84, 54
3, 333540, Note_on_c, 0, 84, 0
3, 333565, Note_on_c, 0, 83, 0
3, 333642, Note_on_c, 0, 88, 41
3, 333766, Note_on_c, 0, 88, 0
3, 333789, Note_on_c, 0, 93, 51
3, 333846, Note_on_c, 0, 93, 0
3, 333929, Note_on_c, 0, 96, 75
3, 334144, Note_on_c, 0, 94, 71
3, 334156, Note_on_c, 0, 65, 40
3, 334158, Note_on_c, 0, 61, 36
3, 334165, Note_on_c, 0, 96, 0
3, 334177, Note_on_c, 0, 60, 48
3, 334198, Note_on_c, 0, 55, 40
3, 335221, Note_on_c, 0, 94, 0
3, 335536, Note_on_c, 0, 93, 92
3, 335804, Note_on_c, 0, 94, 52
3, 335805, Note_on_c, 0, 55, 0
3, 335859, Note_on_c, 0, 60, 0
3, 335864, Note_on_c, 0, 65, 0
3, 335865, Note_on_c, 0, 93, 0
3, 335872, Note_on_c, 0, 95, 65
3, 335934, Note_on_c, 0, 94, 0
3, 335991, Note_on_c, 0, 95, 0
3, 336015, Note_on_c, 0, 61, 0
3, 336044, Note_on_c, 0, 96, 69
3, 336128, Note_on_c, 0, 61, 21
3, 336130, Note_on_c, 0, 65, 33
3, 336131, Note_on_c, 0, 60, 39
3, 336151, Note_on_c, 0, 96, 0
3, 336168, Note_on_c, 0, 55, 28
3, 336203, Note_on_c, 0, 93, 79
3, 336329, Note_on_c, 0, 93, 0
3, 336442, Note_on_c, 0, 55, 0
3, 336456, Note_on_c, 0, 65, 0
3, 336466, Note_on_c, 0, 60, 0
3, 336506, Note_on_c, 0, 61, 0
3, 338575, Note_on_c, 0, 92, 99
3, 338576, Note_on_c, 0, 64, 78
3, 338588, Note_on_c, 0, 60, 65
3, 338589, Note_on_c, 0, 57, 68
3, 338592, Note_on_c, 0, 53, 60
3, 338778, Note_on_c, 0, 64, 0
3, 338801, Note_on_c, 0, 53, 0
3, 338815, Note_on_c, 0, 60, 0
3, 338879, Note_on_c, 0, 57, 0
3, 338893, Note_on_c, 0, 92, 0
3, 338923, Note_on_c, 0, 93, 73
3, 339126, Note_on_c, 0, 93, 0
3, 339228, Note_on_c, 0, 94, 69
3, 339366, Note_on_c, 0, 94, 0
3, 339531, Note_on_c, 0, 95, 85
3, 339771, Note_on_c, 0, 95, 0
3, 339859, Note_on_c, 0, 61, 56
3, 339865, Note_on_c, 0, 96, 80
3, 339866, Note_on_c, 0, 66, 59
3, 339875, Note_on_c, 0, 55, 62
3, 340177, Control_c, 0, 64, 127
3, 340281, Note_on_c, 0, 55, 0
3, 340324, Note_on_c, 0, 96, 0
3, 340350, Note_on_c, 0, 66, 0
3, 340394, Note_on_c, 0, 61, 0
3, 340474, Note_on_c, 0, 66, 56
3, 340483, Note_on_c, 0, 93, 89
3, 340490, Note_on_c, 0, 61, 67
3, 340494, Note_on_c, 0, 55, 67
3, 340622, Note_on_c, 0, 93, 0
3, 340649, Note_on_c, 0, 55, 0
3, 340711, Note_on_c, 0, 66, 0
3, 340755, Note_on_c, 0, 61, 0
3, 340842, Note_on_c, 0, 87, 60
3, 340865, Note_on_c, 0, 61, 55
3, 340867, Note_on_c, 0, 66, 57
3, 340875, Note_on_c, 0, 88, 81
3, 340879, Note_on_c, 0, 55, 66
3, 340885, Note_on_c, 0, 87, 0
3, 341179, Note_on_c, 0, 55, 0
3, 341205, Note_on_c, 0, 66, 0
3, 341209, Note_on_c, 0, 88, 0
3, 341306, Note_on_c, 0, 61, 0
3, 341418, Note_on_c, 0, 61, 55
3, 341463, Note_on_c, 0, 91, 80
3, 341475, Note_on_c, 0, 55, 53
3, 341596, Note_on_c, 0, 55, 0
3, 341628, Note_on_c, 0, 91, 0
3, 341704, Control_c, 0, 64, 0
3, 341723, Note_on_c, 0, 61, 0
3, 341793, Note_on_c, 0, 57, 64
3, 341799, Note_on_c, 0, 91, 74
3, 341802, Note_on_c, 0, 64, 67
3, 341805, Note_on_c, 0, 60, 66
3, 341812, Note_on_c, 0, 79, 62
3, 341816, Note_on_c, 0, 55, 51
3, 341817, Note_on_c, 0, 88, 60
3, 341824, Note_on_c, 0, 84, 64
3, 341974, Control_c, 0, 64, 127
3, 341989, Note_on_c, 0, 88, 0
3, 342015, Note_on_c, 0, 84, 0
3, 342023, Note_on_c, 0, 91, 0
3, 342066, Note_on_c, 0, 79, 0
3, 342183, Note_on_c, 0, 64, 0
3, 342184, Note_on_c, 0, 55, 0
3, 342189, Note_on_c, 0, 60, 0
3, 342189, Note_on_c, 0, 57, 0
3, 342332, Control_c, 0, 64, 0
3, 342410, Control_c, 0, 64, 127
3, 342413, Note_on_c, 0, 64, 76
3, 342416, Note_on_c, 0, 88, 80
3, 342421, Note_on_c, 0, 81, 73
3, 342423, Note_on_c, 0, 76, 74
3, 342425, Note_on_c, 0, 55, 64
3, 342428, Note_on_c, 0, 60, 62
3, 342430, Note_on_c, 0, 57, 58
3, 342437, Note_on_c, 0, 84, 57
3, 342478, Note_on_c, 0, 86, 30
3, 342536, Note_on_c, 0, 86, 0
3, 342583, Note_on_c, 0, 84, 0
3, 342588, Note_on_c, 0, 88, 0
3, 342592, Note_on_c, 0, 81, 0
3, 342620, Note_on_c, 0, 55, 0
3, 342641, Note_on_c, 0, 57, 0
3, 342642, Note_on_c, 0, 76, 0
3, 342650, Note_on_c, 0, 64, 0
3, 342682, Note_on_c, 0, 60, 0
3, 342816, Note_on_c, 0, 84, 55
3, 342817, Note_on_c, 0, 64, 65
3, 342821, Control_c, 0, 64, 0
3, 342823, Note_on_c, 0, 55, 56
3, 342824, Note_on_c, 0, 60, 48
3, 342830, Note_on_c, 0, 72, 51
3, 342836, Note_on_c, 0, 57, 57
3, 342846, Note_on_c, 0, 81, 37
3, 342860, Note_on_c, 0, 79, 24
3, 342875, Note_on_c, 0, 77, 27
3, 342924, Control_c, 0, 64, 127
3, 342990, Note_on_c, 0, 79, 0
3, 342992, Note_on_c, 0, 84, 0
3, 342995, Note_on_c, 0, 81, 0
3, 343003, Note_on_c, 0, 77, 0
3, 343063, Note_on_c, 0, 72, 0
3, 343092, Note_on_c, 0, 55, 0
3, 343111, Note_on_c, 0, 64, 0
3, 343120, Note_on_c, 0, 57, 0
3, 343138, Note_on_c, 0, 60, 0
3, 343356, Note_on_c, 0, 55, 62
3, 343386, Note_on_c, 0, 64, 51
3, 343447, Note_on_c, 0, 64, 0
3, 343493, Note_on_c, 0, 55, 0
3, 343591, Control_c, 0, 64, 0
3, 343679, Note_on_c, 0, 75, 74
3, 343714, Note_on_c, 0, 60, 73
3, 343715, Note_on_c, 0, 54, 72
3, 343717, Note_on_c, 0, 65, 77
3, 343719, Note_on_c, 0, 64, 77
3, 343722, Note_on_c, 0, 77, 61
3, 343724, Note_on_c, 0, 67, 70
3, 343725, Note_on_c, 0, 79, 60
3, 343901, Note_on_c, 0, 75, 0
3, 343906, Note_on_c, 0, 79, 0
3, 343962, Note_on_c, 0, 67, 0
3, 344061, Note_on_c, 0, 77, 0
3, 344176, Note_on_c, 0, 64, 0
3, 344195, Note_on_c, 0, 65, 0
3, 344226, Note_on_c, 0, 60, 0
3, 344235, Note_on_c, 0, 54, 0
3, 344352, Note_on_c, 0, 74, 80
3, 344358, Note_on_c, 0, 68, 78
3, 344360, Note_on_c, 0, 65, 81
3, 344363, Note_on_c, 0, 54, 71
3, 344375, Note_on_c, 0, 64, 80
3, 344380, Note_on_c, 0, 60, 71
3, 344586, Note_on_c, 0, 65, 0
3, 344605, Note_on_c, 0, 64, 0
3, 344667, Note_on_c, 0, 68, 0
3, 344705, Note_on_c, 0, 69, 34
3, 344727, Control_c, 0, 64, 127
3, 344775, Note_on_c, 0, 69, 0
3, 344914, Note_on_c, 0, 74, 0
3, 344972, Note_on_c, 0, 54, 0
3, 345024, Note_on_c, 0, 69, 68
3, 345097, Control_c, 0, 64, 0
3, 345213, Control_c, 0, 64, 127
3, 345228, Note_on_c, 0, 69, 0
3, 345258, Note_on_c, 0, 60, 0
3, 345305, Note_on_c, 0, 54, 57
3, 345339, Note_on_c, 0, 64, 57
3, 345346, Note_on_c, 0, 65, 41
3, 345395, Note_on_c, 0, 65, 0
3, 345457, Note_on_c, 0, 64, 0
3, 345509, Note_on_c, 0, 54, 0
3, 345560, Control_c, 0, 64, 0
3, 345659, Note_on_c, 0, 69, 61
3, 345660, Note_on_c, 0, 64, 66
3, 345669, Note_on_c, 0, 59, 61
3, 345684, Note_on_c, 0, 55, 49
3, 345686, Note_on_c, 0, 53, 47
3, 345935, Note_on_c, 0, 53, 0
3, 346072, Note_on_c, 0, 55, 0
3, 346107, Note_on_c, 0, 69, 0
3, 346120, Note_on_c, 0, 64, 0
3, 346137, Note_on_c, 0, 59, 0
3, 346256, Note_on_c, 0, 68, 56
3, 346264, Note_on_c, 0, 54, 53
3, 346292, Note_on_c, 0, 59, 59
3, 346424, Note_on_c, 0, 59, 0
3, 346531, Note_on_c, 0, 68, 0
3, 346593, Note_on_c, 0, 54, 0
3, 346617, Note_on_c, 0, 64, 57
3, 346620, Note_on_c, 0, 69, 61
3, 346626, Note_on_c, 0, 55, 55
3, 346635, Note_on_c, 0, 59, 50
3, 346758, Note_on_c, 0, 69, 0
3, 346769, Note_on_c, 0, 64, 0
3, 346866, Note_on_c, 0, 59, 0
3, 346871, Note_on_c, 0, 55, 0
3, 347244, Note_on_c, 0, 65, 68
3, 347248, Note_on_c, 0, 53, 59
3, 347251, Note_on_c, 0, 62, 67
3, 347256, Note_on_c, 0, 60, 67
3, 347260, Note_on_c, 0, 57, 65
3, 347392, Note_on_c, 0, 62, 0
3, 347415, Note_on_c, 0, 60, 0
3, 347423, Note_on_c, 0, 65, 0
3, 347476, Note_on_c, 0, 53, 0
3, 347486, Note_on_c, 0, 57, 0
3, 347676, Note_on_c, 0, 64, 69
3, 347680, Note_on_c, 0, 53, 66
3, 347684, Note_on_c, 0, 57, 70
3, 347696, Note_on_c, 0, 60, 64
3, 347700, Note_on_c, 0, 50, 47
3, 348467, Note_on_c, 0, 57, 0
3, 348478, Note_on_c, 0, 53, 0
3, 348512, Note_on_c, 0, 60, 0
3, 348530, Note_on_c, 0, 64, 0
3, 348607, Note_on_c, 0, 53, 49
3, 348617, Note_on_c, 0, 60, 50
3, 348620, Note_on_c, 0, 62, 63
3, 348625, Note_on_c, 0, 43, 50
3, 348628, Note_on_c, 0, 57, 50
3, 348776, Note_on_c, 0, 50, 0
3, 348933, Control_c, 0, 64, 127
3, 348968, Note_on_c, 0, 53, 0
3, 349027, Note_on_c, 0, 57, 0
3, 349052, Note_on_c, 0, 60, 0
3, 349079, Note_on_c, 0, 62, 0
3, 349286, Note_on_c, 0, 50, 55
3, 349326, Note_on_c, 0, 43, 0
3, 349377, Note_on_c, 0, 50, 0
3, 349486, Control_c, 0, 64, 0
3, 349546, Note_on_c, 0, 57, 87
3, 349548, Note_on_c, 0, 69, 82
3, 349549, Note_on_c, 0, 62, 83
3, 349553, Note_on_c, 0, 58, 77
3, 349562, Note_on_c, 0, 65, 66
3, 350227, Note_on_c, 0, 69, 0
3, 350230, Note_on_c, 0, 65, 0
3, 350241, Note_on_c, 0, 58, 0
3, 350246, Note_on_c, 0, 62, 0
3, 350258, Note_on_c, 0, 57, 0
3, 350273, Note_on_c, 0, 55, 49
3, 350450, Note_on_c, 0, 55, 0
3, 350508, Note_on_c, 0, 58, 69
3, 350510, Note_on_c, 0, 69, 73
3, 350515, Note_on_c, 0, 57, 68
3, 350520, Note_on_c, 0, 62, 69
3, 350535, Note_on_c, 0, 65, 55
3, 351020, Note_on_c, 0, 58, 0
3, 351038, Note_on_c, 0, 69, 0
3, 351054, Note_on_c, 0, 65, 0
3, 351072, Note_on_c, 0, 62, 0
3, 351119, Note_on_c, 0, 57, 0
3, 351163, Note_on_c, 0, 55, 50
3, 351431, Note_on_c, 0, 55, 0
3, 351442, Note_on_c, 0, 58, 71
3, 351448, Control_c, 0, 64, 127
3, 351449, Note_on_c, 0, 62, 73
3, 351453, Note_on_c, 0, 69, 57
3, 351461, Note_on_c, 0, 57, 71
3, 351466, Note_on_c, 0, 65, 60
3, 351596, Note_on_c, 0, 58, 0
3, 351619, Note_on_c, 0, 62, 0
3, 351631, Note_on_c, 0, 65, 0
3, 351639, Note_on_c, 0, 69, 0
3, 351681, Note_on_c, 0, 57, 0
3, 352054, Note_on_c, 0, 72, 72
3, 352057, Note_on_c, 0, 65, 85
3, 352062, Note_on_c, 0, 69, 74
3, 352063, Note_on_c, 0, 60, 87
3, 352065, Note_on_c, 0, 62, 94
3, 352080, Control_c, 0, 64, 0
3, 352389, Control_c, 0, 64, 127
3, 352564, Note_on_c, 0, 69, 0
3, 352609, Note_on_c, 0, 62, 0
3, 352677, Note_on_c, 0, 65, 0
3, 352693, Note_on_c, 0, 72, 0
3, 352761, Control_c, 0, 64, 0
3, 352790, Note_on_c, 0, 70, 67
3, 352802, Note_on_c, 0, 62, 71
3, 352803, Note_on_c, 0, 65, 61
3, 352844, Note_on_c, 0, 58, 62
3, 352870, Note_on_c, 0, 60, 0
3, 352908, Note_on_c, 0, 65, 0
3, 352945, Note_on_c, 0, 70, 0
3, 352971, Note_on_c, 0, 62, 0
3, 352995, Note_on_c, 0, 58, 0
3, 353042, Control_c, 0, 64, 127
3, 353086, Note_on_c, 0, 56, 51
3, 353223, Control_c, 0, 64, 0
3, 353339, Note_on_c, 0, 56, 0
3, 353376, Note_on_c, 0, 58, 69
3, 353388, Note_on_c, 0, 69, 67
3, 353389, Note_on_c, 0, 64, 64
3, 353394, Note_on_c, 0, 62, 66
3, 353411, Note_on_c, 0, 57, 64
3, 354339, Note_on_c, 0, 62, 0
3, 354353, Note_on_c, 0, 58, 0
3, 354362, Note_on_c, 0, 64, 0
3, 354396, Note_on_c, 0, 69, 0
3, 354600, Note_on_c, 0, 57, 0
3, 354696, Note_on_c, 0, 61, 79
3, 354699, Note_on_c, 0, 72, 54
3, 354705, Note_on_c, 0, 65, 64
3, 354708, Note_on_c, 0, 64, 74
3, 354721, Note_on_c, 0, 71, 59
3, 354730, Note_on_c, 0, 60, 80
3, 354766, Note_on_c, 0, 71, 0
3, 354769, Note_on_c, 0, 70, 26
3, 354813, Note_on_c, 0, 64, 0
3, 354816, Note_on_c, 0, 70, 0
3, 354825, Note_on_c, 0, 65, 0
3, 354853, Note_on_c, 0, 61, 0
3, 354861, Note_on_c, 0, 72, 0
3, 354989, Note_on_c, 0, 66, 75
3, 354994, Note_on_c, 0, 60, 0
3, 355012, Note_on_c, 0, 64, 81
3, 355017, Note_on_c, 0, 75, 71
3, 355021, Note_on_c, 0, 62, 74
3, 355032, Note_on_c, 0, 70, 49
3, 355043, Note_on_c, 0, 67, 79
3, 355085, Note_on_c, 0, 67, 0
3, 355125, Note_on_c, 0, 70, 0
3, 355139, Note_on_c, 0, 66, 0
3, 355154, Note_on_c, 0, 64, 0
3, 355184, Note_on_c, 0, 62, 0
3, 355206, Note_on_c, 0, 75, 0
3, 355343, Note_on_c, 0, 78, 74
3, 355346, Note_on_c, 0, 63, 79
3, 355353, Note_on_c, 0, 65, 46
3, 355355, Note_on_c, 0, 70, 57
3, 355364, Note_on_c, 0, 67, 64
3, 355405, Note_on_c, 0, 70, 0
3, 355407, Note_on_c, 0, 67, 0
3, 355419, Note_on_c, 0, 78, 0
3, 355428, Note_on_c, 0, 65, 0
3, 355474, Note_on_c, 0, 63, 0
3, 355608, Note_on_c, 0, 75, 25
3, 355678, Note_on_c, 0, 75, 0
3, 355692, Note_on_c, 0, 80, 68
3, 355723, Note_on_c, 0, 70, 72
3, 355725, Note_on_c, 0, 78, 29
3, 355732, Note_on_c, 0, 75, 37
3, 355741, Note_on_c, 0, 69, 74
3, 355745, Note_on_c, 0, 67, 70
3, 355788, Note_on_c, 0, 67, 0
3, 355792, Note_on_c, 0, 78, 0
3, 355805, Note_on_c, 0, 70, 0
3, 355847, Note_on_c, 0, 75, 0
3, 355864, Note_on_c, 0, 69, 0
3, 355885, Note_on_c, 0, 80, 0
3, 356360, Note_on_c, 0, 84, 71
3, 356361, Note_on_c, 0, 72, 71
3, 356363, Note_on_c, 0, 76, 82
3, 356365, Note_on_c, 0, 73, 72
3, 356379, Note_on_c, 0, 79, 57
3, 356400, Note_on_c, 0, 82, 32
3, 356495, Note_on_c, 0, 82, 0
3, 356521, Note_on_c, 0, 79, 0
3, 356527, Note_on_c, 0, 84, 0
3, 356560, Note_on_c, 0, 73, 0
3, 356581, Note_on_c, 0, 76, 0
3, 356621, Note_on_c, 0, 72, 0
3, 356632, Note_on_c, 0, 70, 59
3, 356640, Note_on_c, 0, 82, 60
3, 356644, Note_on_c, 0, 73, 44
3, 356676, Note_on_c, 0, 76, 64
3, 356791, Note_on_c, 0, 73, 0
3, 356801, Note_on_c, 0, 82, 0
3, 356815, Note_on_c, 0, 70, 0
3, 356833, Note_on_c, 0, 71, 38
3, 356865, Note_on_c, 0, 81, 40
3, 356939, Note_on_c, 0, 76, 0
3, 356975, Note_on_c, 0, 81, 0
3, 357006, Note_on_c, 0, 71, 0
3, 357158, Note_on_c, 0, 64, 30
3, 357246, Note_on_c, 0, 79, 67
3, 357249, Note_on_c, 0, 76, 68
3, 357250, Note_on_c, 0, 64, 0
3, 357256, Note_on_c, 0, 69, 71
3, 357274, Note_on_c, 0, 72, 55
3, 357287, Note_on_c, 0, 67, 71
3, 357390, Note_on_c, 0, 76, 0
3, 357420, Note_on_c, 0, 79, 0
3, 357466, Note_on_c, 0, 72, 0
3, 357524, Note_on_c, 0, 69, 0
3, 357528, Note_on_c, 0, 67, 0
3, 357562, Note_on_c, 0, 72, 49
3, 357564, Note_on_c, 0, 66, 60
3, 357569, Note_on_c, 0, 69, 33
3, 357695, Note_on_c, 0, 69, 0
3, 357735, Note_on_c, 0, 66, 0
3, 357754, Note_on_c, 0, 65, 49
3, 357768, Note_on_c, 0, 77, 50
3, 357797, Note_on_c, 0, 69, 35
3, 357932, Note_on_c, 0, 72, 0
3, 357952, Note_on_c, 0, 77, 0
3, 358009, Note_on_c, 0, 65, 0
3, 358025, Note_on_c, 0, 69, 0
3, 358681, Note_on_c, 0, 68, 75
3, 358684, Note_on_c, 0, 76, 78
3, 358698, Note_on_c, 0, 61, 72
3, 358699, Note_on_c, 0, 65, 77
3, 358851, Note_on_c, 0, 76, 0
3, 358869, Note_on_c, 0, 65, 0
3, 358939, Note_on_c, 0, 68, 0
3, 359063, Note_on_c, 0, 61, 0
3, 359069, Note_on_c, 0, 75, 61
3, 359074, Note_on_c, 0, 63, 61
3, 359075, Note_on_c, 0, 67, 64
3, 359076, Note_on_c, 0, 60, 64
3, 359104, Note_on_c, 0, 70, 40
3, 359424, Note_on_c, 0, 67, 0
3, 359560, Note_on_c, 0, 75, 0
3, 359565, Note_on_c, 0, 70, 0
3, 359575, Note_on_c, 0, 60, 0
3, 359598, Note_on_c, 0, 63, 0
3, 359689, Note_on_c, 0, 54, 40
3, 359976, Note_on_c, 0, 54, 0
3, 360008, Note_on_c, 0, 66, 69
3, 360017, Note_on_c, 0, 74, 70
3, 360021, Note_on_c, 0, 62, 68
3, 360023, Note_on_c, 0, 57, 67
3, 360031, Note_on_c, 0, 69, 61
3, 360506, Note_on_c, 0, 62, 0
3, 360512, Note_on_c, 0, 57, 0
3, 360525, Note_on_c, 0, 74, 0
3, 360566, Note_on_c, 0, 69, 0
3, 360630, Note_on_c, 0, 54, 40
3, 360718, Note_on_c, 0, 66, 0
3, 360824, Note_on_c, 0, 54, 0
3, 360968, Note_on_c, 0, 72, 49
3, 360978, Note_on_c, 0, 46, 43
3, 360979, Note_on_c, 0, 65, 60
3, 360982, Note_on_c, 0, 57, 52
3, 360984, Note_on_c, 0, 53, 37
3, 360989, Note_on_c, 0, 62, 57
3, 361289, Note_on_c, 0, 62, 0
3, 361410, Note_on_c, 0, 65, 0
3, 361541, Note_on_c, 0, 72, 0
3, 361651, Note_on_c, 0, 69, 81
3, 361841, Note_on_c, 0, 69, 0
3, 362004, Note_on_c, 0, 70, 76
3, 362196, Note_on_c, 0, 70, 0
3, 362292, Note_on_c, 0, 72, 66
3, 362535, Note_on_c, 0, 72, 0
3, 362578, Note_on_c, 0, 69, 77
3, 362594, Note_on_c, 0, 53, 0
3, 362620, Note_on_c, 0, 46, 0
3, 362713, Note_on_c, 0, 57, 0
3, 362868, Note_on_c, 0, 69, 0
3, 362936, Note_on_c, 0, 70, 67
3, 363211, Note_on_c, 0, 70, 0
3, 363219, Note_on_c, 0, 72, 54
3, 363472, Note_on_c, 0, 72, 0
3, 363554, Note_on_c, 0, 69, 64
3, 363594, Note_on_c, 0, 65, 67
3, 363595, Note_on_c, 0, 61, 55
3, 363607, Note_on_c, 0, 60, 62
3, 363647, Note_on_c, 0, 55, 49
3, 363888, Note_on_c, 0, 69, 0
3, 363898, Note_on_c, 0, 70, 62
3, 364132, Note_on_c, 0, 70, 0
3, 364148, Note_on_c, 0, 65, 0
3, 364214, Note_on_c, 0, 72, 64
3, 364226, Note_on_c, 0, 60, 0
3, 364231, Note_on_c, 0, 55, 0
3, 364389, Note_on_c, 0, 61, 0
3, 364505, Note_on_c, 0, 72, 0
3, 364540, Note_on_c, 0, 69, 64
3, 364800, Note_on_c, 0, 69, 0
3, 364859, Note_on_c, 0, 63, 55
3, 364860, Note_on_c, 0, 70, 65
3, 364873, Note_on_c, 0, 60, 47
3, 364888, Note_on_c, 0, 55, 51
3, 364900, Note_on_c, 0, 57, 46
3, 365128, Note_on_c, 0, 70, 0
3, 365194, Note_on_c, 0, 72, 55
3, 365421, Note_on_c, 0, 72, 0
3, 365504, Note_on_c, 0, 69, 58
3, 365696, Note_on_c, 0, 69, 0
3, 365794, Note_on_c, 0, 70, 68
3, 366074, Note_on_c, 0, 70, 0
3, 366092, Note_on_c, 0, 72, 37
3, 366139, Note_on_c, 0, 55, 0
3, 366204, Note_on_c, 0, 57, 0
3, 366287, Note_on_c, 0, 63, 0
3, 366324, Note_on_c, 0, 72, 0
3, 366408, Note_on_c, 0, 72, 75
3, 366418, Note_on_c, 0, 63, 59
3, 366429, Note_on_c, 0, 54, 58
3, 366765, Note_on_c, 0, 74, 73
3, 366800, Note_on_c, 0, 72, 0
3, 367025, Note_on_c, 0, 74, 0
3, 367069, Note_on_c, 0, 75, 71
3, 367198, Note_on_c, 0, 63, 0
3, 367244, Note_on_c, 0, 54, 0
3, 367299, Note_on_c, 0, 60, 0
3, 367315, Note_on_c, 0, 75, 0
3, 367405, Note_on_c, 0, 63, 64
3, 367409, Note_on_c, 0, 54, 57
3, 367416, Note_on_c, 0, 60, 65
3, 367425, Note_on_c, 0, 75, 39
3, 367434, Note_on_c, 0, 74, 90
3, 367467, Note_on_c, 0, 75, 0
3, 367720, Note_on_c, 0, 75, 71
3, 367722, Note_on_c, 0, 74, 0
3, 367919, Note_on_c, 0, 60, 0
3, 367946, Note_on_c, 0, 63, 0
3, 367986, Note_on_c, 0, 75, 0
3, 368046, Note_on_c, 0, 77, 80
3, 368242, Note_on_c, 0, 54, 0
3, 368283, Note_on_c, 0, 77, 0
3, 368327, Note_on_c, 0, 78, 80
3, 368557, Note_on_c, 0, 78, 0
3, 368578, Note_on_c, 0, 53, 9
3, 368598, Note_on_c, 0, 62, 42
3, 368613, Note_on_c, 0, 58, 40
3, 368619, Note_on_c, 0, 79, 55
3, 368620, Note_on_c, 0, 55, 30
3, 368866, Note_on_c, 0, 79, 0
3, 368955, Note_on_c, 0, 80, 59
3, 368980, Note_on_c, 0, 68, 77
3, 368995, Note_on_c, 0, 79, 32
3, 368998, Note_on_c, 0, 74, 64
3, 369056, Note_on_c, 0, 77, 27
3, 369098, Note_on_c, 0, 62, 0
3, 369141, Note_on_c, 0, 58, 0
3, 369143, Note_on_c, 0, 53, 0
3, 369146, Note_on_c, 0, 68, 0
3, 369167, Note_on_c, 0, 79, 0
3, 369171, Note_on_c, 0, 74, 0
3, 369172, Note_on_c, 0, 55, 0
3, 369173, Note_on_c, 0, 80, 0
3, 369190, Note_on_c, 0, 77, 0
3, 369369, Note_on_c, 0, 74, 35
3, 369376, Note_on_c, 0, 81, 29
3, 369400, Note_on_c, 0, 77, 29
3, 369446, Note_on_c, 0, 81, 0
3, 369474, Note_on_c, 0, 69, 44
3, 369475, Note_on_c, 0, 74, 0
3, 369483, Note_on_c, 0, 77, 0
3, 369585, Note_on_c, 0, 69, 0
3, 369598, Note_on_c, 0, 81, 47
3, 369744, Note_on_c, 0, 69, 44
3, 369746, Note_on_c, 0, 81, 0
3, 369849, Note_on_c, 0, 69, 0
3, 369874, Note_on_c, 0, 81, 37
3, 369930, Note_on_c, 0, 77, 27
3, 369983, Note_on_c, 0, 81, 0
3, 369994, Note_on_c, 0, 77, 0
3, 369996, Note_on_c, 0, 69, 46
3, 370096, Note_on_c, 0, 69, 0
3, 370124, Note_on_c, 0, 81, 32
3, 370154, Note_on_c, 0, 77, 41
3, 370214, Note_on_c, 0, 81, 0
3, 370293, Note_on_c, 0, 69, 32
3, 370328, Note_on_c, 0, 77, 0
3, 370447, Note_on_c, 0, 81, 53
3, 370502, Note_on_c, 0, 77, 38
3, 370533, Note_on_c, 0, 69, 0
3, 370595, Note_on_c, 0, 81, 0
3, 370604, Note_on_c, 0, 77, 0
3, 370669, Note_on_c, 0, 58, 33
3, 370672, Note_on_c, 0, 62, 39
3, 370681, Note_on_c, 0, 67, 50
3, 370687, Note_on_c, 0, 52, 31
3, 370691, Note_on_c, 0, 79, 47
3, 370818, Note_on_c, 0, 62, 0
3, 370943, Note_on_c, 0, 52, 0
3, 371035, Note_on_c, 0, 58, 0
3, 371183, Note_on_c, 0, 67, 0
3, 371197, Note_on_c, 0, 79, 0
3, 371345, Note_on_c, 0, 67, 61
3, 371347, Note_on_c, 0, 79, 36
3, 371399, Note_on_c, 0, 67, 0
3, 371419, Note_on_c, 0, 79, 0
3, 372292, Note_on_c, 0, 77, 92
3, 372295, Note_on_c, 0, 72, 94
3, 372296, Note_on_c, 0, 84, 95
3, 372300, Note_on_c, 0, 81, 82
3, 372309, Note_on_c, 0, 60, 76
3, 372313, Note_on_c, 0, 61, 70
3, 372317, Note_on_c, 0, 65, 84
3, 372323, Note_on_c, 0, 55, 76
3, 372338, Note_on_c, 0, 83, 38
3, 372368, Note_on_c, 0, 58, 27
3, 372397, Note_on_c, 0, 83, 0
3, 372442, Note_on_c, 0, 72, 0
3, 372535, Note_on_c, 0, 77, 0
3, 372543, Note_on_c, 0, 84, 0
3, 372561, Note_on_c, 0, 72, 31
3, 372562, Note_on_c, 0, 81, 0
3, 372691, Note_on_c, 0, 72, 0
3, 372703, Note_on_c, 0, 84, 35
3, 372707, Note_on_c, 0, 81, 41
3, 372716, Note_on_c, 0, 77, 35
3, 372796, Note_on_c, 0, 84, 0
3, 372823, Note_on_c, 0, 72, 31
3, 372891, Note_on_c, 0, 77, 0
3, 372893, Note_on_c, 0, 81, 0
3, 372975, Note_on_c, 0, 84, 35
3, 372982, Note_on_c, 0, 72, 0
3, 372994, Note_on_c, 0, 81, 54
3, 373030, Note_on_c, 0, 83, 32
3, 373086, Note_on_c, 0, 61, 0
3, 373090, Note_on_c, 0, 83, 0
3, 373097, Note_on_c, 0, 84, 0
3, 373194, Note_on_c, 0, 72, 41
3, 373200, Note_on_c, 0, 81, 0
3, 373238, Note_on_c, 0, 84, 19
3, 373266, Note_on_c, 0, 65, 0
3, 373350, Note_on_c, 0, 84, 0
3, 373357, Note_on_c, 0, 77, 51
3, 373390, Note_on_c, 0, 72, 0
3, 373426, Note_on_c, 0, 55, 0
3, 373496, Note_on_c, 0, 77, 0
3, 373498, Note_on_c, 0, 58, 0
3, 373535, Note_on_c, 0, 61, 33
3, 373545, Note_on_c, 0, 82, 58
3, 373547, Note_on_c, 0, 65, 53
3, 373550, Note_on_c, 0, 70, 69
3, 373556, Note_on_c, 0, 77, 38
3, 373563, Note_on_c, 0, 55, 46
3, 374144, Note_on_c, 0, 60, 0
3, 374194, Note_on_c, 0, 65, 0
3, 374220, Note_on_c, 0, 55, 0
3, 374258, Note_on_c, 0, 77, 0
3, 374339, Note_on_c, 0, 82, 0
3, 374365, Note_on_c, 0, 70, 0
3, 374387, Note_on_c, 0, 61, 0
3, 374470, Note_on_c, 0, 81, 55
3, 374474, Note_on_c, 0, 69, 53
3, 374484, Note_on_c, 0, 60, 42
3, 374496, Note_on_c, 0, 64, 42
3, 374500, Note_on_c, 0, 54, 30
3, 375092, Note_on_c, 0, 69, 0
3, 375137, Note_on_c, 0, 77, 59
3, 375144, Note_on_c, 0, 81, 0
3, 375157, Note_on_c, 0, 60, 0
3, 375247, Note_on_c, 0, 64, 0
3, 375310, Note_on_c, 0, 54, 0
3, 375336, Note_on_c, 0, 77, 0
3, 375448, Note_on_c, 0, 54, 52
3, 375449, Note_on_c, 0, 64, 57
3, 375461, Note_on_c, 0, 60, 57
3, 375464, Note_on_c, 0, 86, 105
3, 375876, Note_on_c, 0, 86, 0
3, 376120, Note_on_c, 0, 60, 0
3, 376124, Note_on_c, 0, 86, 113
3, 376204, Note_on_c, 0, 64, 0
3, 376345, Note_on_c, 0, 86, 0
3, 376349, Note_on_c, 0, 54, 0
3, 376437, Note_on_c, 0, 64, 47
3, 376443, Note_on_c, 0, 53, 36
3, 376454, Note_on_c, 0, 59, 54
3, 376472, Note_on_c, 0, 86, 66
3, 376480, Note_on_c, 0, 80, 67
3, 376870, Note_on_c, 0, 80, 0
3, 376899, Note_on_c, 0, 81, 27
3, 376981, Note_on_c, 0, 86, 0
3, 376989, Note_on_c, 0, 81, 0
3, 377063, Note_on_c, 0, 74, 66
3, 377132, Note_on_c, 0, 53, 0
3, 377199, Note_on_c, 0, 59, 0
3, 377200, Note_on_c, 0, 64, 0
3, 377366, Note_on_c, 0, 64, 32
3, 377375, Note_on_c, 0, 59, 37
3, 377380, Note_on_c, 0, 53, 28
3, 377477, Note_on_c, 0, 53, 0
3, 377536, Note_on_c, 0, 59, 0
3, 377702, Note_on_c, 0, 64, 0
3, 377935, Note_on_c, 0, 74, 0
3, 378043, Note_on_c, 0, 77, 81
3, 378197, Note_on_c, 0, 77, 0
3, 378360, Note_on_c, 0, 62, 77
3, 378377, Note_on_c, 0, 58, 55
3, 378378, Note_on_c, 0, 52, 64
3, 378403, Note_on_c, 0, 80, 92
3, 378412, Note_on_c, 0, 86, 90
3, 378424, Note_on_c, 0, 52, 0
3, 378447, Note_on_c, 0, 62, 0
3, 378474, Note_on_c, 0, 58, 0
3, 378710, Note_on_c, 0, 81, 44
3, 378715, Note_on_c, 0, 80, 0
3, 378783, Note_on_c, 0, 86, 0
3, 378827, Note_on_c, 0, 81, 0
3, 378970, Note_on_c, 0, 48, 90
3, 378983, Note_on_c, 0, 86, 89
3, 378992, Note_on_c, 0, 80, 84
3, 379003, Note_on_c, 0, 47, 80
3, 379053, Note_on_c, 0, 47, 0
3, 379280, Note_on_c, 0, 80, 0
3, 379355, Note_on_c, 0, 86, 0
3, 379463, Note_on_c, 0, 77, 71
3, 379937, Note_on_c, 0, 77, 0
3, 379962, Note_on_c, 0, 74, 46
3, 380023, Note_on_c, 0, 74, 0
3, 380254, Note_on_c, 0, 77, 103
3, 380513, Note_on_c, 0, 48, 0
3, 380756, Note_on_c, 0, 77, 0
3, 380774, Note_on_c, 0, 79, 56
3, 380883, Note_on_c, 0, 77, 57
3, 380959, Note_on_c, 0, 79, 0
3, 381031, Note_on_c, 0, 74, 57
3, 381052, Note_on_c, 0, 77, 0
3, 381098, Note_on_c, 0, 74, 0
3, 381219, Note_on_c, 0, 77, 95
3, 381694, Note_on_c, 0, 77, 0
3, 381874, Note_on_c, 0, 77, 94
3, 381969, Control_c, 0, 64, 127
3, 382176, Note_on_c, 0, 77, 0
3, 382238, Note_on_c, 0, 77, 87
3, 382834, Note_on_c, 0, 77, 0
3, 382885, Note_on_c, 0, 74, 39
3, 383029, Note_on_c, 0, 74, 0
3, 383170, Note_on_c, 0, 77, 94
3, 383769, Note_on_c, 0, 79, 79
3, 383778, Note_on_c, 0, 41, 76
3, 383834, Note_on_c, 0, 77, 0
3, 383954, Note_on_c, 0, 79, 0
3, 384134, Control_c, 0, 64, 0
3, 384150, Note_on_c, 0, 41, 0
3, 384268, Note_on_c, 0, 40, 71
3, 384821, Note_on_c, 0, 55, 75
3, 384872, Control_c, 0, 64, 127
3, 385282, Note_on_c, 0, 55, 0
3, 385334, Note_on_c, 0, 58, 75
3, 385485, Note_on_c, 0, 58, 0
3, 385723, Note_on_c, 0, 40, 0
3, 385918, Note_on_c, 0, 62, 72
3, 386256, Note_on_c, 0, 62, 0
3, 386548, Note_on_c, 0, 67, 62
3, 386574, Note_on_c, 0, 55, 39
3, 386583, Note_on_c, 0, 45, 35
3, 386622, Control_c, 0, 64, 0
3, 387182, Control_c, 0, 64, 127
3, 387185, Note_on_c, 0, 69, 68
3, 387322, Note_on_c, 0, 67, 0
3, 387387, Note_on_c, 0, 55, 0
3, 387578, Note_on_c, 0, 69, 0
3, 387939, Note_on_c, 0, 61, 37
3, 387944, Note_on_c, 0, 70, 54
3, 387946, Note_on_c, 0, 66, 47
3, 387998, Note_on_c, 0, 55, 27
3, 388001, Control_c, 0, 64, 0
3, 388258, Control_c, 0, 64, 127
3, 388818, Note_on_c, 0, 61, 0
3, 389479, Note_on_c, 0, 70, 0
3, 389650, Note_on_c, 0, 66, 0
3, 389754, Note_on_c, 0, 45, 0
3, 389802, Note_on_c, 0, 72, 80
3, 389964, Note_on_c, 0, 55, 0
3, 390271, Note_on_c, 0, 72, 0
3, 390850, Note_on_c, 0, 69, 81
3, 390853, Note_on_c, 0, 65, 87
3, 390884, Note_on_c, 0, 50, 38
3, 390890, Note_on_c, 0, 57, 44
3, 390920, Control_c, 0, 64, 0
3, 391242, Control_c, 0, 64, 127
3, 391802, Note_on_c, 0, 69, 0
3, 391935, Note_on_c, 0, 69, 72
3, 392283, Note_on_c, 0, 57, 0
3, 392299, Note_on_c, 0, 50, 0
3, 392496, Note_on_c, 0, 65, 0
3, 392657, Note_on_c, 0, 69, 0
3, 392761, Note_on_c, 0, 68, 67
3, 392766, Note_on_c, 0, 64, 68
3, 392806, Note_on_c, 0, 59, 46
3, 392814, Note_on_c, 0, 49, 39
3, 392828, Control_c, 0, 64, 0
3, 393095, Note_on_c, 0, 68, 0
3, 393118, Control_c, 0, 64, 127
3, 393225, Note_on_c, 0, 68, 60
3, 393302, Note_on_c, 0, 59, 0
3, 393344, Note_on_c, 0, 64, 0
3, 393567, Note_on_c, 0, 49, 0
3, 393633, Note_on_c, 0, 68, 0
3, 393740, Note_on_c, 0, 63, 48
3, 393755, Note_on_c, 0, 67, 61
3, 393766, Note_on_c, 0, 48, 48
3, 393796, Note_on_c, 0, 58, 33
3, 393823, Control_c, 0, 64, 0
3, 394113, Control_c, 0, 64, 127
3, 394150, Note_on_c, 0, 67, 0
3, 394428, Note_on_c, 0, 67, 58
3, 394747, Note_on_c, 0, 63, 0
3, 394758, Note_on_c, 0, 58, 0
3, 394828, Note_on_c, 0, 48, 0
3, 395188, Note_on_c, 0, 67, 0
3, 395279, Note_on_c, 0, 47, 34
3, 395286, Note_on_c, 0, 66, 46
3, 395289, Note_on_c, 0, 62, 44
3, 395317, Note_on_c, 0, 57, 31
3, 395332, Control_c, 0, 64, 0
3, 395636, Control_c, 0, 64, 127
3, 396289, Note_on_c, 0, 66, 0
3, 396411, Note_on_c, 0, 65, 56
3, 397050, Note_on_c, 0, 47, 0
3, 397055, Note_on_c, 0, 57, 0
3, 397175, Note_on_c, 0, 65, 0
3, 397264, Note_on_c, 0, 62, 0
3, 397520, Note_on_c, 0, 62, 47
3, 397530, Note_on_c, 0, 65, 51
3, 397544, Control_c, 0, 64, 0
3, 397576, Note_on_c, 0, 46, 32
3, 397607, Note_on_c, 0, 57, 26
3, 397784, Control_c, 0, 64, 127
3, 398074, Note_on_c, 0, 62, 0
3, 398102, Note_on_c, 0, 65, 0
3, 398152, Note_on_c, 0, 72, 68
3, 398181, Note_on_c, 0, 53, 46
3, 398183, Note_on_c, 0, 57, 0
3, 398256, Note_on_c, 0, 46, 0
3, 398286, Note_on_c, 0, 53, 0
3, 398648, Note_on_c, 0, 72, 0
3, 398712, Note_on_c, 0, 69, 78
3, 398768, Note_on_c, 0, 65, 50
3, 398779, Note_on_c, 0, 61, 30
3, 398785, Note_on_c, 0, 60, 24
3, 399033, Note_on_c, 0, 65, 0
3, 399105, Note_on_c, 0, 69, 0
3, 399126, Note_on_c, 0, 61, 0
3, 399139, Note_on_c, 0, 60, 0
3, 399189, Note_on_c, 0, 70, 80
3, 399421, Note_on_c, 0, 70, 0
3, 399782, Note_on_c, 0, 72, 60
3, 399797, Note_on_c, 0, 39, 31
3, 399823, Control_c, 0, 64, 0
3, 399825, Note_on_c, 0, 27, 37
3, 399994, Note_on_c, 0, 27, 0
3, 400014, Control_c, 0, 64, 127
3, 400027, Note_on_c, 0, 39, 0
3, 400414, Note_on_c, 0, 77, 64
3, 400697, Note_on_c, 0, 72, 0
3, 400902, Note_on_c, 0, 77, 0
3, 401078, Note_on_c, 0, 82, 53
3, 401091, Note_on_c, 0, 72, 30
3, 401094, Note_on_c, 0, 60, 24
3, 401098, Note_on_c, 0, 65, 27
3, 401102, Note_on_c, 0, 61, 25
3, 401114, Note_on_c, 0, 77, 39
3, 401141, Note_on_c, 0, 55, 30
3, 402654, Note_on_c, 0, 65, 0
3, 402762, Note_on_c, 0, 60, 0
3, 402785, Note_on_c, 0, 55, 0
3, 402826, Note_on_c, 0, 72, 0
3, 402833, Note_on_c, 0, 61, 0
3, 402903, Note_on_c, 0, 77, 0
3, 402908, Note_on_c, 0, 82, 0
3, 402937, Note_on_c, 0, 84, 60
3, 404080, Note_on_c, 0, 84, 0
3, 404141, Note_on_c, 0, 81, 38
3, 404146, Note_on_c, 0, 60, 30
3, 404167, Note_on_c, 0, 63, 18
3, 404207, Note_on_c, 0, 57, 33
3, 404211, Note_on_c, 0, 55, 28
3, 404247, Control_c, 0, 64, 0
3, 404424, Control_c, 0, 64, 127
3, 404627, Note_on_c, 0, 81, 0
3, 404919, Note_on_c, 0, 96, 89
3, 404992, Note_on_c, 0, 60, 0
3, 405048, Note_on_c, 0, 57, 0
3, 405073, Note_on_c, 0, 63, 0
3, 405099, Note_on_c, 0, 55, 0
3, 405473, Note_on_c, 0, 96, 0
3, 405655, Note_on_c, 0, 89, 62
3, 405671, Note_on_c, 0, 84, 67
3, 405677, Note_on_c, 0, 61, 39
3, 405680, Note_on_c, 0, 65, 44
3, 405682, Note_on_c, 0, 60, 38
3, 405687, Note_on_c, 0, 55, 44
3, 405819, Control_c, 0, 64, 0
3, 406027, Control_c, 0, 64, 127
3, 406390, Note_on_c, 0, 89, 0
3, 406421, Note_on_c, 0, 93, 78
3, 406509, Note_on_c, 0, 84, 0
3, 406592, Note_on_c, 0, 65, 0
3, 406655, Note_on_c, 0, 60, 0
3, 406669, Note_on_c, 0, 61, 0
3, 406733, Note_on_c, 0, 55, 0
3, 407035, Note_on_c, 0, 93, 0
3, 407105, Note_on_c, 0, 83, 56
3, 407108, Note_on_c, 0, 88, 60
3, 407115, Note_on_c, 0, 60, 49
3, 407116, Note_on_c, 0, 54, 45
3, 407122, Note_on_c, 0, 64, 48
3, 407198, Control_c, 0, 64, 0
3, 407504, Control_c, 0, 64, 127
3, 407876, Note_on_c, 0, 60, 0
3, 407878, Note_on_c, 0, 64, 0
3, 407902, Note_on_c, 0, 92, 59
3, 407996, Note_on_c, 0, 54, 0
3, 408060, Note_on_c, 0, 88, 0
3, 408115, Note_on_c, 0, 83, 0
3, 408697, Note_on_c, 0, 87, 34
3, 408699, Note_on_c, 0, 92, 0
3, 408702, Note_on_c, 0, 82, 34
3, 408715, Note_on_c, 0, 54, 26
3, 408725, Note_on_c, 0, 50, 32
3, 408765, Note_on_c, 0, 57, 32
3, 408771, Note_on_c, 0, 60, 18
3, 408787, Control_c, 0, 64, 0
3, 408979, Control_c, 0, 64, 127
3, 409004, Note_on_c, 0, 57, 0
3, 409121, Note_on_c, 0, 60, 0
3, 409168, Note_on_c, 0, 54, 0
3, 409185, Note_on_c, 0, 50, 0
3, 409436, Note_on_c, 0, 91, 62
3, 409966, Note_on_c, 0, 91, 0
3, 409991, Note_on_c, 0, 82, 0
3, 410001, Note_on_c, 0, 87, 0
3, 410063, Note_on_c, 0, 81, 39
3, 410071, Note_on_c, 0, 89, 55
3, 410098, Note_on_c, 0, 86, 56
3, 410103, Control_c, 0, 64, 0
3, 410111, Note_on_c, 0, 43, 35
3, 410310, Control_c, 0, 64, 127
3, 410570, Note_on_c, 0, 86, 0
3, 410621, Note_on_c, 0, 89, 0
3, 410636, Note_on_c, 0, 50, 56
3, 410698, Note_on_c, 0, 81, 0
3, 410992, Note_on_c, 0, 43, 0
3, 411149, Note_on_c, 0, 50, 0
3, 411160, Note_on_c, 0, 72, 46
3, 411191, Note_on_c, 0, 65, 57
3, 411196, Note_on_c, 0, 57, 53
3, 411713, Note_on_c, 0, 72, 0
3, 411801, Note_on_c, 0, 70, 56
3, 411832, Note_on_c, 0, 58, 57
3, 411847, Note_on_c, 0, 57, 0
3, 411965, Note_on_c, 0, 65, 0
3, 412379, Note_on_c, 0, 70, 0
3, 412474, Note_on_c, 0, 69, 61
3, 412515, Note_on_c, 0, 62, 53
3, 412534, Note_on_c, 0, 64, 35
3, 412538, Note_on_c, 0, 65, 48
3, 412603, Control_c, 0, 64, 0
3, 412794, Control_c, 0, 64, 127
3, 413038, Note_on_c, 0, 64, 0
3, 413057, Note_on_c, 0, 62, 0
3, 413134, Note_on_c, 0, 69, 0
3, 413195, Note_on_c, 0, 58, 0
3, 413201, Note_on_c, 0, 70, 58
3, 413213, Note_on_c, 0, 65, 0
3, 413851, Note_on_c, 0, 70, 0
3, 414132, Note_on_c, 0, 65, 47
3, 414139, Note_on_c, 0, 72, 36
3, 414155, Note_on_c, 0, 62, 36
3, 414163, Note_on_c, 0, 48, 34
3, 414176, Note_on_c, 0, 58, 35
3, 414222, Control_c, 0, 64, 0
3, 414527, Control_c, 0, 64, 127
3, 415192, Note_on_c, 0, 62, 0
3, 415204, Note_on_c, 0, 65, 0
3, 415499, Note_on_c, 0, 72, 0
3, 416236, Note_on_c, 0, 58, 0
3, 416297, Note_on_c, 0, 48, 0
3, 416708, Note_on_c, 0, 72, 74
3, 416710, Note_on_c, 0, 76, 82
3, 416722, Note_on_c, 0, 67, 84
3, 416735, Note_on_c, 0, 46, 61
3, 416741, Note_on_c, 0, 56, 56
3, 416771, Control_c, 0, 64, 0
3, 416996, Control_c, 0, 64, 127
3, 417121, Note_on_c, 0, 76, 0
3, 417123, Note_on_c, 0, 72, 0
3, 417163, Note_on_c, 0, 67, 0
3, 417303, Note_on_c, 0, 56, 0
3, 417521, Note_on_c, 0, 46, 0
3, 417631, Note_on_c, 0, 72, 44
3, 417644, Note_on_c, 0, 65, 64
3, 417662, Note_on_c, 0, 69, 56
3, 417663, Note_on_c, 0, 60, 55
3, 417687, Control_c, 0, 64, 0
3, 417692, Note_on_c, 0, 45, 46
3, 417702, Note_on_c, 0, 55, 47
3, 417977, Control_c, 0, 64, 127
3, 417980, Note_on_c, 0, 60, 0
3, 418045, Note_on_c, 0, 65, 0
3, 418103, Note_on_c, 0, 69, 0
3, 418169, Note_on_c, 0, 72, 0
3, 418277, Note_on_c, 0, 55, 0
3, 418345, Note_on_c, 0, 52, 57
3, 418380, Note_on_c, 0, 45, 0
3, 418483, Note_on_c, 0, 52, 0
3, 419072, Note_on_c, 0, 84, 84
3, 419075, Note_on_c, 0, 81, 78
3, 419077, Note_on_c, 0, 72, 80
3, 419078, Note_on_c, 0, 77, 80
3, 419091, Note_on_c, 0, 60, 74
3, 419092, Note_on_c, 0, 61, 59
3, 419096, Note_on_c, 0, 65, 82
3, 419112, Note_on_c, 0, 55, 68
3, 419161, Control_c, 0, 64, 0
3, 419450, Control_c, 0, 64, 127
3, 419844, Note_on_c, 0, 84, 0
3, 419849, Note_on_c, 0, 72, 0
3, 419851, Note_on_c, 0, 55, 0
3, 419882, Note_on_c, 0, 77, 0
3, 419884, Note_on_c, 0, 65, 0
3, 419922, Note_on_c, 0, 60, 0
3, 419940, Note_on_c, 0, 81, 0
3, 419978, Note_on_c, 0, 61, 0
3, 420102, Note_on_c, 0, 61, 56
3, 420117, Note_on_c, 0, 84, 71
3, 420118, Note_on_c, 0, 60, 53
3, 420120, Note_on_c, 0, 81, 57
3, 420123, Note_on_c, 0, 72, 55
3, 420125, Note_on_c, 0, 77, 63
3, 420126, Note_on_c, 0, 65, 66
3, 420142, Note_on_c, 0, 55, 61
3, 420208, Control_c, 0, 64, 0
3, 420353, Control_c, 0, 64, 127
3, 420502, Note_on_c, 0, 84, 0
3, 420523, Note_on_c, 0, 81, 0
3, 420567, Note_on_c, 0, 77, 0
3, 420602, Note_on_c, 0, 65, 0
3, 420612, Note_on_c, 0, 60, 0
3, 420617, Note_on_c, 0, 72, 0
3, 420638, Note_on_c, 0, 55, 0
3, 420768, Note_on_c, 0, 61, 0
3, 421099, Note_on_c, 0, 81, 64
3, 421107, Note_on_c, 0, 77, 54
3, 421110, Note_on_c, 0, 74, 57
3, 421120, Note_on_c, 0, 69, 52
3, 421122, Note_on_c, 0, 60, 48
3, 421123, Note_on_c, 0, 64, 50
3, 421130, Note_on_c, 0, 54, 44
3, 421208, Control_c, 0, 64, 0
3, 421560, Control_c, 0, 64, 127
3, 421939, Note_on_c, 0, 64, 0
3, 421958, Note_on_c, 0, 69, 0
3, 421984, Note_on_c, 0, 60, 0
3, 421990, Note_on_c, 0, 54, 0
3, 422004, Note_on_c, 0, 81, 0
3, 422007, Note_on_c, 0, 74, 0
3, 422037, Note_on_c, 0, 77, 0
3, 422241, Note_on_c, 0, 81, 50
3, 422261, Note_on_c, 0, 54, 37
3, 422262, Note_on_c, 0, 64, 40
3, 422277, Note_on_c, 0, 77, 34
3, 422278, Note_on_c, 0, 74, 47
3, 422280, Note_on_c, 0, 69, 34
3, 422283, Note_on_c, 0, 60, 37
3, 422654, Note_on_c, 0, 81, 0
3, 422700, Note_on_c, 0, 77, 0
3, 422702, Note_on_c, 0, 74, 0
3, 422731, Note_on_c, 0, 64, 0
3, 422735, Note_on_c, 0, 60, 0
3, 422766, Note_on_c, 0, 69, 0
3, 422967, Note_on_c, 0, 54, 0
3, 423439, Note_on_c, 0, 77, 44
3, 423458, Note_on_c, 0, 70, 36
3, 423460, Note_on_c, 0, 65, 37
3, 423465, Note_on_c, 0, 74, 51
3, 423497, Note_on_c, 0, 60, 37
3, 423498, Note_on_c, 0, 54, 37
3, 423601, Control_c, 0, 64, 0
3, 424017, Control_c, 0, 64, 127
3, 424384, Note_on_c, 0, 60, 0
3, 424397, Note_on_c, 0, 65, 0
3, 424440, Note_on_c, 0, 70, 0
3, 424442, Note_on_c, 0, 74, 0
3, 424492, Note_on_c, 0, 54, 0
3, 424524, Note_on_c, 0, 77, 0
3, 424821, Note_on_c, 0, 77, 40
3, 424837, Note_on_c, 0, 70, 28
3, 424842, Note_on_c, 0, 65, 33
3, 424843, Note_on_c, 0, 54, 31
3, 424851, Note_on_c, 0, 74, 47
3, 424855, Note_on_c, 0, 60, 33
3, 425180, Note_on_c, 0, 60, 0
3, 425255, Note_on_c, 0, 77, 0
3, 425305, Note_on_c, 0, 74, 0
3, 425348, Note_on_c, 0, 54, 0
3, 425504, Note_on_c, 0, 70, 0
3, 425525, Note_on_c, 0, 65, 0
3, 426557, Note_on_c, 0, 57, 41
3, 426564, Note_on_c, 0, 58, 44
3, 426641, Note_on_c, 0, 50, 26
3, 426663, Note_on_c, 0, 43, 31
3, 426678, Note_on_c, 0, 53, 30
3, 426725, Note_on_c, 0, 58, 0
3, 426740, Note_on_c, 0, 59, 57
3, 426824, Control_c, 0, 64, 0
3, 427208, Note_on_c, 0, 57, 0
3, 427259, Note_on_c, 0, 62, 71
3, 427642, Control_c, 0, 64, 127
3, 427676, Note_on_c, 0, 59, 0
3, 427732, Note_on_c, 0, 62, 0
3, 427801, Note_on_c, 0, 65, 65
3, 427816, Note_on_c, 0, 64, 69
3, 427868, Note_on_c, 0, 64, 0
3, 428294, Note_on_c, 0, 65, 0
3, 428390, Note_on_c, 0, 67, 75
3, 428435, Note_on_c, 0, 65, 51
3, 428515, Note_on_c, 0, 65, 0
3, 428718, Note_on_c, 0, 65, 15
3, 428781, Note_on_c, 0, 53, 0
3, 428825, Note_on_c, 0, 67, 0
3, 428867, Note_on_c, 0, 65, 0
3, 429193, Note_on_c, 0, 63, 49
3, 429216, Note_on_c, 0, 69, 52
3, 429219, Note_on_c, 0, 59, 35
3, 429257, Note_on_c, 0, 50, 0
3, 429259, Note_on_c, 0, 53, 31
3, 429278, Control_c, 0, 64, 0
3, 429374, Note_on_c, 0, 63, 0
3, 429377, Note_on_c, 0, 64, 53
3, 429872, Control_c, 0, 64, 127
3, 430001, Note_on_c, 0, 64, 0
3, 431210, Note_on_c, 0, 62, 55
3, 431564, Note_on_c, 0, 59, 0
3, 431642, Note_on_c, 0, 69, 0
3, 431700, Note_on_c, 0, 62, 0
3, 431765, Note_on_c, 0, 65, 78
3, 432090, Note_on_c, 0, 43, 0
3, 432191, Note_on_c, 0, 53, 0
3, 432261, Note_on_c, 0, 65, 0
3, 432325, Note_on_c, 0, 67, 66
3, 433472, Note_on_c, 0, 67, 0
3, 434451, Note_on_c, 0, 69, 48
3, 434467, Note_on_c, 0, 62, 44
3, 434473, Note_on_c, 0, 57, 36
3, 434477, Note_on_c, 0, 24, 35
3, 434507, Control_c, 0, 64, 0
3, 434545, Note_on_c, 0, 36, 20
3, 434636, Note_on_c, 0, 57, 0
3, 434673, Note_on_c, 0, 62, 0
3, 434693, Note_on_c, 0, 36, 0
3, 434699, Control_c, 0, 64, 127
3, 434731, Note_on_c, 0, 24, 0
3, 434821, Note_on_c, 0, 69, 0
3, 435456, Note_on_c, 0, 81, 51
3, 435481, Note_on_c, 0, 69, 46
3, 435488, Note_on_c, 0, 57, 43
3, 435622, Note_on_c, 0, 69, 0
3, 435742, Note_on_c, 0, 81, 0
3, 436497, Note_on_c, 0, 57, 0
3, 436521, Note_on_c, 0, 74, 41
3, 436526, Note_on_c, 0, 86, 45
3, 436561, Note_on_c, 0, 62, 29
3, 436660, Note_on_c, 0, 74, 0
3, 436774, Note_on_c, 0, 86, 0
3, 436929, Note_on_c, 0, 62, 0
3, 437861, Note_on_c, 0, 93, 46
3, 437873, Note_on_c, 0, 81, 34
3, 437937, Note_on_c, 0, 69, 28
3, 438157, Note_on_c, 0, 81, 0
3, 438201, Note_on_c, 0, 69, 0
3, 438292, Note_on_c, 0, 93, 0
3, 438872, Note_on_c, 0, 86, 48
3, 438890, Note_on_c, 0, 74, 33
3, 438901, Note_on_c, 0, 98, 33
3, 438957, Note_on_c, 0, 86, 0
3, 438975, Note_on_c, 0, 74, 0
3, 439052, Note_on_c, 0, 98, 0
3, 439892, Note_on_c, 0, 93, 43
3, 439895, Note_on_c, 0, 105, 49
3, 439909, Note_on_c, 0, 81, 30
3, 440186, Note_on_c, 0, 81, 0
3, 440330, Note_on_c, 0, 93, 0
3, 440578, Note_on_c, 0, 105, 0
3, 441218, Note_on_c, 0, 105, 47
3, 441221, Note_on_c, 0, 93, 33
3, 441232, Note_on_c, 0, 82, 26
3, 441247, Note_on_c, 0, 72, 22
3, 441383, Note_on_c, 0, 82, 0
3, 441450, Note_on_c, 0, 72, 0
3, 442881, Note_on_c, 0, 24, 30
3, 442958, Note_on_c, 0, 93, 0
3, 443003, Note_on_c, 0, 105, 0
3, 443079, Note_on_c, 0, 24, 0
3, 445060, Note_on_c, 0, 60, 59
3, 447882, Note_on_c, 0, 62, 80
3, 447940, Note_on_c, 0, 60, 0
3, 448560, Note_on_c, 0, 62, 0
3, 448848, Note_on_c, 0, 65, 95
3, 449593, Note_on_c, 0, 57, 60
3, 449597, Note_on_c, 0, 60, 58
3, 449616, Note_on_c, 0, 51, 47
3, 449678, Control_c, 0, 64, 0
3, 449838, Control_c, 0, 64, 127
3, 450164, Note_on_c, 0, 57, 0
3, 450247, Note_on_c, 0, 60, 0
3, 450382, Note_on_c, 0, 51, 0
3, 450580, Note_on_c, 0, 56, 37
3, 450592, Note_on_c, 0, 59, 53
3, 450608, Note_on_c, 0, 50, 42
3, 450623, Control_c, 0, 64, 0
3, 451105, Control_c, 0, 64, 127
3, 451594, Note_on_c, 0, 41, 37
3, 451634, Control_c, 0, 64, 0
3, 451810, Control_c, 0, 64, 127
3, 452200, Note_on_c, 0, 59, 0
3, 452234, Note_on_c, 0, 56, 0
3, 452678, Note_on_c, 0, 65, 0
3, 452789, Note_on_c, 0, 50, 0
3, 452794, Note_on_c, 0, 55, 48
3, 452818, Note_on_c, 0, 58, 49
3, 452844, Note_on_c, 0, 49, 33
3, 452886, Control_c, 0, 64, 0
3, 453319, Control_c, 0, 64, 127
3, 453692, Note_on_c, 0, 41, 0
3, 454127, Note_on_c, 0, 41, 39
3, 455883, Note_on_c, 0, 41, 0
3, 456451, Note_on_c, 0, 41, 44
3, 456664, Note_on_c, 0, 49, 0
3, 456823, Note_on_c, 0, 41, 0
3, 457662, Note_on_c, 0, 55, 0
3, 458725, Note_on_c, 0, 58, 0
3, 460236, Note_on_c, 0, 65, 35
3, 460242, Note_on_c, 0, 57, 34
3, 460247, Note_on_c, 0, 29, 30
3, 460260, Note_on_c, 0, 53, 33
3, 460294, Note_on_c, 0, 41, 16
3, 460327, Control_c, 0, 64, 0
3, 460823, Control_c, 0, 64, 127
3, 460938, Note_on_c, 0, 53, 0
3, 461010, Note_on_c, 0, 57, 0
3, 461128, Note_on_c, 0, 65, 0
3, 461148, Note_on_c, 0, 29, 0
3, 461200, Note_on_c, 0, 41, 0
3, 470012, Control_c, 0, 64, 0
3, 470012, End_track
4, 0, Start_track
4, 0, Title_t, "Acoustic Bass"
4, 0, Control_c, 1, 0, 0
4, 0, Control_c, 1, 7, 95
4, 1, Control_c, 1, 32, 0
4, 2, Program_c, 1, 32
4, 261160, Note_on_c, 1, 40, 51
4, 262717, Note_on_c, 1, 34, 67
4, 262751, Note_on_c, 1, 40, 0
4, 263050, Note_on_c, 1, 33, 60
4, 263075, Note_on_c, 1, 34, 0
4, 264643, Note_on_c, 1, 37, 51
4, 264743, Note_on_c, 1, 33, 0
4, 264877, Note_on_c, 1, 37, 0
4, 264958, Note_on_c, 1, 38, 51
4, 265629, Note_on_c, 1, 50, 96
4, 265923, Note_on_c, 1, 50, 0
4, 265950, Note_on_c, 1, 38, 0
4, 265952, Note_on_c, 1, 49, 82
4, 266594, Note_on_c, 1, 37, 39
4, 266784, Note_on_c, 1, 37, 0
4, 266795, Note_on_c, 1, 49, 0
4, 266886, Note_on_c, 1, 48, 49
4, 267805, Note_on_c, 1, 48, 0
4, 267822, Note_on_c, 1, 47, 54
4, 268537, Note_on_c, 1, 36, 36
4, 268604, Note_on_c, 1, 36, 0
4, 268723, Note_on_c, 1, 47, 0
4, 268763, Note_on_c, 1, 46, 56
4, 270151, Note_on_c, 1, 41, 60
4, 270258, Note_on_c, 1, 41, 0
4, 270279, Note_on_c, 1, 46, 0
4, 270460, Note_on_c, 1, 40, 56
4, 270619, Note_on_c, 1, 40, 0
4, 270780, Note_on_c, 1, 39, 62
4, 272649, Note_on_c, 1, 39, 0
4, 272690, Note_on_c, 1, 33, 80
4, 274572, Note_on_c, 1, 33, 0
4, 274580, Note_on_c, 1, 38, 70
4, 275529, Note_on_c, 1, 54, 90
4, 276459, Note_on_c, 1, 54, 0
4, 276504, Note_on_c, 1, 57, 79
4, 276674, Note_on_c, 1, 38, 0
4, 277123, Note_on_c, 1, 38, 54
4, 277298, Note_on_c, 1, 38, 0
4, 277379, Note_on_c, 1, 57, 0
4, 277445, Note_on_c, 1, 55, 72
4, 278146, Note_on_c, 1, 41, 37
4, 278298, Note_on_c, 1, 41, 0
4, 278419, Note_on_c, 1, 55, 0
4, 278430, Note_on_c, 1, 48, 58
4, 279408, Note_on_c, 1, 46, 83
4, 279469, Note_on_c, 1, 48, 0
4, 280400, Note_on_c, 1, 45, 74
4, 280404, Note_on_c, 1, 46, 0
4, 281348, Note_on_c, 1, 39, 83
4, 281364, Note_on_c, 1, 45, 0
4, 281401, Note_on_c, 1, 38, 54
4, 281455, Note_on_c, 1, 38, 0
4, 282313, Note_on_c, 1, 39, 0
4, 282316, Note_on_c, 1, 38, 71
4, 283219, Note_on_c, 1, 32, 91
4, 283273, Note_on_c, 1, 38, 0
4, 284129, Note_on_c, 1, 32, 0
4, 284156, Note_on_c, 1, 31, 88
4, 285473, Note_on_c, 1, 45, 64
4, 285643, Note_on_c, 1, 45, 0
4, 285759, Note_on_c, 1, 44, 82
4, 286077, Note_on_c, 1, 44, 0
4, 286167, Note_on_c, 1, 43, 84
4, 286222, Note_on_c, 1, 31, 0
4, 287119, Note_on_c, 1, 38, 62
4, 287241, Note_on_c, 1, 43, 0
4, 287288, Note_on_c, 1, 38, 0
4, 287415, Note_on_c, 1, 37, 62
4, 287664, Note_on_c, 1, 37, 0
4, 287729, Note_on_c, 1, 36, 82
4, 288465, Note_on_c, 1, 50, 67
4, 288728, Note_on_c, 1, 50, 0
4, 288730, Note_on_c, 1, 49, 76
4, 289042, Note_on_c, 1, 49, 0
4, 289096, Note_on_c, 1, 48, 83
4, 291067, Note_on_c, 1, 36, 0
4, 291578, Note_on_c, 1, 39, 65
4, 291655, Note_on_c, 1, 48, 0
4, 291897, Note_on_c, 1, 39, 0
4, 291910, Note_on_c, 1, 40, 60
4, 293478, Note_on_c, 1, 39, 47
4, 293668, Note_on_c, 1, 40, 0
4, 293678, Note_on_c, 1, 39, 0
4, 293790, Note_on_c, 1, 45, 59
4, 294392, Note_on_c, 1, 40, 22
4, 294590, Note_on_c, 1, 40, 0
4, 294633, Note_on_c, 1, 45, 0
4, 294710, Note_on_c, 1, 52, 71
4, 295329, Note_on_c, 1, 38, 46
4, 295522, Note_on_c, 1, 38, 0
4, 295532, Note_on_c, 1, 52, 0
4, 295641, Note_on_c, 1, 50, 64
4, 297606, Note_on_c, 1, 49, 67
4, 297670, Note_on_c, 1, 50, 0
4, 298202, Note_on_c, 1, 49, 0
4, 298242, Note_on_c, 1, 48, 70
4, 298990, Note_on_c, 1, 47, 66
4, 298999, Note_on_c, 1, 48, 0
4, 299178, Note_on_c, 1, 47, 0
4, 299276, Note_on_c, 1, 45, 45
4, 299445, Note_on_c, 1, 45, 0
4, 299559, Note_on_c, 1, 46, 53
4, 301178, Note_on_c, 1, 46, 0
4, 301194, Note_on_c, 1, 41, 60
4, 301518, Note_on_c, 1, 41, 0
4, 301536, Note_on_c, 1, 39, 59
4, 303467, Note_on_c, 1, 45, 60
4, 303499, Note_on_c, 1, 39, 0
4, 304422, Note_on_c, 1, 51, 81
4, 304453, Note_on_c, 1, 45, 0
4, 305923, Note_on_c, 1, 38, 53
4, 306096, Note_on_c, 1, 38, 0
4, 306190, Note_on_c, 1, 51, 0
4, 306238, Note_on_c, 1, 50, 61
4, 306731, Note_on_c, 1, 50, 0
4, 306866, Note_on_c, 1, 42, 54
4, 307129, Note_on_c, 1, 42, 0
4, 307207, Note_on_c, 1, 43, 54
4, 307742, Note_on_c, 1, 43, 0
4, 307840, Note_on_c, 1, 38, 58
4, 308020, Note_on_c, 1, 38, 0
4, 308194, Note_on_c, 1, 35, 74
4, 309085, Note_on_c, 1, 35, 0
4, 309158, Note_on_c, 1, 36, 68
4, 310030, Note_on_c, 1, 36, 0
4, 310085, Note_on_c, 1, 34, 72
4, 310958, Note_on_c, 1, 34, 0
4, 311044, Note_on_c, 1, 33, 67
4, 312373, Note_on_c, 1, 33, 0
4, 312397, Note_on_c, 1, 39, 54
4, 312546, Note_on_c, 1, 39, 0
4, 312756, Note_on_c, 1, 38, 69
4, 312879, Note_on_c, 1, 38, 0
4, 313069, Note_on_c, 1, 38, 80
4, 314355, Note_on_c, 1, 45, 72
4, 314425, Note_on_c, 1, 38, 0
4, 314525, Note_on_c, 1, 45, 0
4, 314615, Note_on_c, 1, 44, 81
4, 314887, Note_on_c, 1, 44, 0
4, 314959, Note_on_c, 1, 43, 62
4, 315191, Note_on_c, 1, 43, 0
4, 315287, Note_on_c, 1, 38, 57
4, 315447, Note_on_c, 1, 38, 0
4, 315576, Note_on_c, 1, 31, 79
4, 315866, Note_on_c, 1, 31, 0
4, 315944, Note_on_c, 1, 34, 75
4, 316466, Note_on_c, 1, 34, 0
4, 316582, Note_on_c, 1, 35, 63
4, 316854, Note_on_c, 1, 35, 0
4, 316894, Note_on_c, 1, 36, 68
4, 318145, Note_on_c, 1, 39, 57
4, 318280, Note_on_c, 1, 36, 0
4, 318385, Note_on_c, 1, 39, 0
4, 318435, Note_on_c, 1, 40, 57
4, 318696, Note_on_c, 1, 40, 0
4, 318784, Note_on_c, 1, 41, 67
4, 321548, Note_on_c, 1, 41, 0
4, 321619, Note_on_c, 1, 40, 66
4, 322531, Note_on_c, 1, 41, 62
4, 322532, Note_on_c, 1, 40, 0
4, 324164, Note_on_c, 1, 39, 31
4, 324508, Note_on_c, 1, 53, 83
4, 324521, Note_on_c, 1, 39, 0
4, 324940, Note_on_c, 1, 41, 0
4, 326115, Note_on_c, 1, 39, 59
4, 326268, Note_on_c, 1, 39, 0
4, 326342, Note_on_c, 1, 53, 0
4, 326444, Note_on_c, 1, 51, 69
4, 327029, Note_on_c, 1, 39, 36
4, 327152, Note_on_c, 1, 39, 0
4, 327296, Note_on_c, 1, 51, 0
4, 327365, Note_on_c, 1, 48, 64
4, 327994, Note_on_c, 1, 48, 0
4, 328014, Note_on_c, 1, 40, 64
4, 328265, Note_on_c, 1, 40, 0
4, 328323, Note_on_c, 1, 41, 57
4, 329259, Note_on_c, 1, 41, 0
4, 329307, Note_on_c, 1, 33, 81
4, 330227, Note_on_c, 1, 33, 0
4, 330271, Note_on_c, 1, 34, 67
4, 331974, Note_on_c, 1, 38, 51
4, 332115, Note_on_c, 1, 34, 0
4, 332153, Note_on_c, 1, 38, 0
4, 332179, Note_on_c, 1, 41, 83
4, 333729, Note_on_c, 1, 41, 0
4, 333782, Note_on_c, 1, 40, 70
4, 334011, Note_on_c, 1, 40, 0
4, 334102, Note_on_c, 1, 39, 62
4, 335088, Note_on_c, 1, 55, 89
4, 335150, Note_on_c, 1, 54, 34
4, 335204, Note_on_c, 1, 54, 0
4, 337060, Note_on_c, 1, 39, 0
4, 337277, Note_on_c, 1, 39, 59
4, 337450, Note_on_c, 1, 55, 0
4, 337505, Note_on_c, 1, 39, 0
4, 337616, Note_on_c, 1, 40, 72
4, 337877, Note_on_c, 1, 40, 0
4, 337933, Note_on_c, 1, 41, 82
4, 339562, Note_on_c, 1, 39, 35
4, 339679, Note_on_c, 1, 41, 0
4, 339784, Note_on_c, 1, 39, 0
4, 339862, Note_on_c, 1, 45, 87
4, 341122, Note_on_c, 1, 40, 58
4, 341170, Note_on_c, 1, 45, 0
4, 341306, Note_on_c, 1, 40, 0
4, 341431, Note_on_c, 1, 39, 62
4, 341669, Note_on_c, 1, 39, 0
4, 341772, Note_on_c, 1, 38, 60
4, 342416, Note_on_c, 1, 37, 40
4, 342710, Note_on_c, 1, 37, 0
4, 342726, Note_on_c, 1, 38, 0
4, 342739, Note_on_c, 1, 51, 83
4, 343409, Note_on_c, 1, 38, 30
4, 343459, Note_on_c, 1, 37, 38
4, 343563, Note_on_c, 1, 38, 0
4, 343633, Note_on_c, 1, 37, 0
4, 343641, Note_on_c, 1, 51, 0
4, 343705, Note_on_c, 1, 50, 61
4, 344345, Note_on_c, 1, 45, 60
4, 344384, Note_on_c, 1, 50, 0
4, 344592, Note_on_c, 1, 45, 0
4, 344663, Note_on_c, 1, 44, 71
4, 345560, Note_on_c, 1, 44, 0
4, 345620, Note_on_c, 1, 43, 63
4, 346323, Note_on_c, 1, 32, 75
4, 346446, Note_on_c, 1, 43, 0
4, 346574, Note_on_c, 1, 32, 0
4, 346638, Note_on_c, 1, 31, 79
4, 348155, Note_on_c, 1, 43, 67
4, 348310, Note_on_c, 1, 31, 0
4, 348411, Note_on_c, 1, 43, 0
4, 348524, Note_on_c, 1, 38, 57
4, 348882, Note_on_c, 1, 38, 0
4, 349191, Note_on_c, 1, 35, 66
4, 349463, Note_on_c, 1, 35, 0
4, 349511, Note_on_c, 1, 36, 73
4, 351050, Note_on_c, 1, 34, 48
4, 351234, Note_on_c, 1, 36, 0
4, 351394, Note_on_c, 1, 48, 101
4, 351395, Note_on_c, 1, 34, 0
4, 352656, Note_on_c, 1, 38, 71
4, 352780, Note_on_c, 1, 38, 0
4, 352879, Note_on_c, 1, 48, 0
4, 352950, Note_on_c, 1, 39, 77
4, 353232, Note_on_c, 1, 39, 0
4, 353296, Note_on_c, 1, 40, 72
4, 354285, Note_on_c, 1, 46, 78
4, 354384, Note_on_c, 1, 40, 0
4, 355848, Note_on_c, 1, 40, 49
4, 355937, Note_on_c, 1, 40, 0
4, 356164, Note_on_c, 1, 45, 73
4, 356254, Note_on_c, 1, 46, 0
4, 356672, Note_on_c, 1, 45, 0
4, 356799, Note_on_c, 1, 37, 55
4, 357010, Note_on_c, 1, 37, 0
4, 357116, Note_on_c, 1, 38, 59
4, 357744, Note_on_c, 1, 37, 43
4, 357954, Note_on_c, 1, 37, 0
4, 358054, Note_on_c, 1, 49, 86
4, 358115, Note_on_c, 1, 38, 0
4, 358723, Note_on_c, 1, 38, 43
4, 358808, Note_on_c, 1, 38, 0
4, 358914, Note_on_c, 1, 49, 0
4, 358975, Note_on_c, 1, 48, 79
4, 359908, Note_on_c, 1, 48, 0
4, 359914, Note_on_c, 1, 41, 90
4, 360850, Note_on_c, 1, 41, 0
4, 360893, Note_on_c, 1, 34, 81
4, 362809, Note_on_c, 1, 34, 0
4, 362835, Note_on_c, 1, 39, 83
4, 364778, Note_on_c, 1, 39, 0
4, 364791, Note_on_c, 1, 33, 72
4, 365452, Note_on_c, 1, 39, 47
4, 365557, Note_on_c, 1, 39, 0
4, 365633, Note_on_c, 1, 33, 0
4, 365760, Note_on_c, 1, 51, 87
4, 367331, Note_on_c, 1, 38, 64
4, 367434, Note_on_c, 1, 38, 0
4, 367583, Note_on_c, 1, 51, 0
4, 367659, Note_on_c, 1, 50, 83
4, 367851, Note_on_c, 1, 50, 0
4, 368338, Note_on_c, 1, 42, 65
4, 368555, Note_on_c, 1, 42, 0
4, 368653, Note_on_c, 1, 43, 64
4, 369144, Note_on_c, 1, 43, 0
4, 369309, Note_on_c, 1, 38, 54
4, 369461, Note_on_c, 1, 38, 0
4, 369622, Note_on_c, 1, 35, 75
4, 370531, Note_on_c, 1, 35, 0
4, 370620, Note_on_c, 1, 36, 73
4, 371476, Note_on_c, 1, 36, 0
4, 371518, Note_on_c, 1, 34, 75
4, 372414, Note_on_c, 1, 34, 0
4, 372474, Note_on_c, 1, 33, 65
4, 373784, Note_on_c, 1, 51, 75
4, 373818, Note_on_c, 1, 33, 0
4, 374000, Note_on_c, 1, 51, 0
4, 374072, Note_on_c, 1, 49, 71
4, 374351, Note_on_c, 1, 49, 0
4, 374423, Note_on_c, 1, 50, 74
4, 375013, Note_on_c, 1, 50, 0
4, 375048, Note_on_c, 1, 38, 61
4, 375245, Note_on_c, 1, 38, 0
4, 375397, Note_on_c, 1, 42, 74
4, 376233, Note_on_c, 1, 42, 0
4, 376337, Note_on_c, 1, 43, 61
4, 376633, Note_on_c, 1, 55, 70
4, 376796, Note_on_c, 1, 55, 0
4, 376942, Note_on_c, 1, 54, 67
4, 377195, Note_on_c, 1, 54, 0
4, 377302, Note_on_c, 1, 53, 66
4, 377612, Note_on_c, 1, 53, 0
4, 377937, Note_on_c, 1, 51, 71
4, 378127, Note_on_c, 1, 43, 0
4, 378148, Note_on_c, 1, 51, 0
4, 378289, Note_on_c, 1, 52, 69
4, 378506, Note_on_c, 1, 52, 0
4, 378882, Note_on_c, 1, 49, 74
4, 379087, Note_on_c, 1, 49, 0
4, 379215, Note_on_c, 1, 48, 55
4, 379457, Note_on_c, 1, 48, 0
4, 379850, Note_on_c, 1, 46, 63
4, 380102, Note_on_c, 1, 46, 0
4, 380188, Note_on_c, 1, 45, 57
4, 381064, Note_on_c, 1, 45, 0
4, 381176, Note_on_c, 1, 41, 64
4, 382091, Note_on_c, 1, 41, 0
4, 382130, Note_on_c, 1, 36, 68
4, 383172, Note_on_c, 1, 41, 60
4, 383296, Note_on_c, 1, 36, 0
4, 384132, Note_on_c, 1, 41, 0
4, 384268, Note_on_c, 1, 40, 89
4, 388108, Note_on_c, 1, 40, 0
4, 388108, End_track
5, 0, Start_track
5, 0, Title_t, "Drums"
5, 0, Program_c, 9, 32
5, 0, Control_c, 9, 7, 68
5, 262744, Note_on_c, 9, 59, 67
5, 262827, Note_on_c, 9, 59, 0
5, 263021, Note_on_c, 9, 59, 58
5, 263166, Note_on_c, 9, 59, 0
5, 264702, Note_on_c, 9, 36, 38
5, 264712, Note_on_c, 9, 59, 69
5, 264766, Note_on_c, 9, 36, 0
5, 264809, Note_on_c, 9, 59, 0
5, 265031, Note_on_c, 9, 59, 55
5, 265155, Note_on_c, 9, 59, 0
5, 265597, Note_on_c, 9, 36, 33
5, 265695, Note_on_c, 9, 36, 0
5, 266603, Note_on_c, 9, 59, 63
5, 266657, Note_on_c, 9, 59, 0
5, 267585, Note_on_c, 9, 59, 54
5, 267645, Note_on_c, 9, 59, 0
5, 268452, Note_on_c, 9, 36, 76
5, 268581, Note_on_c, 9, 36, 0
5, 268885, Note_on_c, 9, 59, 69
5, 268938, Note_on_c, 9, 59, 0
5, 270787, Note_on_c, 9, 59, 70
5, 270842, Note_on_c, 9, 59, 0
5, 270998, Note_on_c, 9, 59, 75
5, 271097, Note_on_c, 9, 59, 0
5, 271747, Note_on_c, 9, 59, 82
5, 271851, Note_on_c, 9, 59, 0
5, 273336, Note_on_c, 9, 38, 22
5, 273364, Note_on_c, 9, 59, 57
5, 273410, Note_on_c, 9, 38, 0
5, 273419, Note_on_c, 9, 59, 0
5, 274243, Note_on_c, 9, 38, 55
5, 274366, Note_on_c, 9, 38, 0
5, 274630, Note_on_c, 9, 38, 33
5, 274867, Note_on_c, 9, 38, 0
5, 275196, Note_on_c, 9, 36, 42
5, 275205, Note_on_c, 9, 53, 64
5, 275262, Note_on_c, 9, 53, 0
5, 275292, Note_on_c, 9, 36, 0
5, 275552, Note_on_c, 9, 36, 49
5, 275553, Note_on_c, 9, 53, 60
5, 275608, Note_on_c, 9, 53, 0
5, 275865, Note_on_c, 9, 51, 50
5, 275989, Note_on_c, 9, 36, 0
5, 275996, Note_on_c, 9, 51, 0
5, 276196, Note_on_c, 9, 36, 71
5, 276495, Note_on_c, 9, 36, 0
5, 277465, Note_on_c, 9, 53, 60
5, 277522, Note_on_c, 9, 53, 0
5, 278071, Note_on_c, 9, 51, 47
5, 278271, Note_on_c, 9, 51, 0
5, 278419, Note_on_c, 9, 51, 42
5, 278725, Note_on_c, 9, 51, 0
5, 279709, Note_on_c, 9, 38, 54
5, 279776, Note_on_c, 9, 38, 0
5, 280054, Note_on_c, 9, 51, 90
5, 280054, Note_on_c, 9, 36, 46
5, 280205, Note_on_c, 9, 51, 0
5, 280218, Note_on_c, 9, 36, 0
5, 280388, Note_on_c, 9, 51, 77
5, 280419, Note_on_c, 9, 36, 57
5, 280961, Note_on_c, 9, 51, 0
5, 281229, Note_on_c, 9, 36, 0
5, 281358, Note_on_c, 9, 51, 73
5, 281912, Note_on_c, 9, 51, 0
5, 282957, Note_on_c, 9, 51, 60
5, 283019, Note_on_c, 9, 51, 0
5, 283330, Note_on_c, 9, 51, 76
5, 283912, Note_on_c, 9, 51, 0
5, 283932, Note_on_c, 9, 37, 68
5, 284185, Note_on_c, 9, 37, 0
5, 284303, Note_on_c, 9, 51, 71
5, 284304, Note_on_c, 9, 36, 36
5, 284746, Note_on_c, 9, 36, 0
5, 284828, Note_on_c, 9, 51, 0
5, 284890, Note_on_c, 9, 36, 53
5, 285051, Note_on_c, 9, 36, 0
5, 285827, Note_on_c, 9, 51, 60
5, 285971, Note_on_c, 9, 51, 0
5, 286142, Note_on_c, 9, 51, 48
5, 286322, Note_on_c, 9, 51, 0
5, 288599, Note_on_c, 9, 51, 55
5, 288627, Note_on_c, 9, 53, 68
5, 288706, Note_on_c, 9, 53, 0
5, 288810, Note_on_c, 9, 51, 0
5, 290617, Note_on_c, 9, 38, 74
5, 290626, Note_on_c, 9, 53, 66
5, 290634, Note_on_c, 9, 51, 64
5, 290677, Note_on_c, 9, 53, 0
5, 290755, Note_on_c, 9, 51, 0
5, 290782, Note_on_c, 9, 38, 0
5, 291319, Note_on_c, 9, 38, 71
5, 291435, Note_on_c, 9, 38, 0
5, 291590, Note_on_c, 9, 38, 62
5, 291615, Note_on_c, 9, 51, 36
5, 291675, Note_on_c, 9, 51, 0
5, 291746, Note_on_c, 9, 38, 0
5, 291945, Note_on_c, 9, 36, 74
5, 291949, Note_on_c, 9, 59, 62
5, 291956, Note_on_c, 9, 57, 78
5, 292036, Note_on_c, 9, 57, 0
5, 292094, Note_on_c, 9, 36, 0
5, 292528, Note_on_c, 9, 59, 0
5, 292909, Note_on_c, 9, 59, 72
5, 293384, Note_on_c, 9, 59, 0
5, 294378, Note_on_c, 9, 38, 63
5, 294538, Note_on_c, 9, 38, 0
5, 294731, Note_on_c, 9, 59, 88
5, 294768, Note_on_c, 9, 36, 35
5, 295098, Note_on_c, 9, 36, 0
5, 295166, Note_on_c, 9, 59, 0
5, 295365, Note_on_c, 9, 36, 46
5, 295591, Note_on_c, 9, 36, 0
5, 295667, Note_on_c, 9, 59, 71
5, 295739, Note_on_c, 9, 36, 52
5, 296043, Note_on_c, 9, 36, 0
5, 296140, Note_on_c, 9, 59, 0
5, 296682, Note_on_c, 9, 59, 47
5, 296744, Note_on_c, 9, 59, 0
5, 297289, Note_on_c, 9, 59, 80
5, 297439, Note_on_c, 9, 59, 0
5, 297927, Note_on_c, 9, 40, 60
5, 298072, Note_on_c, 9, 40, 0
5, 298220, Note_on_c, 9, 40, 50
5, 298285, Note_on_c, 9, 59, 45
5, 298362, Note_on_c, 9, 59, 0
5, 298374, Note_on_c, 9, 40, 0
5, 298540, Note_on_c, 9, 36, 53
5, 298610, Note_on_c, 9, 59, 85
5, 298700, Note_on_c, 9, 36, 0
5, 298883, Note_on_c, 9, 40, 39
5, 298979, Note_on_c, 9, 40, 0
5, 299122, Note_on_c, 9, 59, 0
5, 299187, Note_on_c, 9, 40, 51
5, 299269, Note_on_c, 9, 40, 0
5, 299500, Note_on_c, 9, 36, 55
5, 299547, Note_on_c, 9, 59, 87
5, 300023, Note_on_c, 9, 36, 0
5, 300157, Note_on_c, 9, 59, 0
5, 300461, Note_on_c, 9, 36, 65
5, 300496, Note_on_c, 9, 59, 60
5, 300654, Note_on_c, 9, 59, 0
5, 301022, Note_on_c, 9, 36, 0
5, 301192, Note_on_c, 9, 59, 85
5, 301305, Note_on_c, 9, 59, 0
5, 301520, Note_on_c, 9, 59, 74
5, 302123, Note_on_c, 9, 59, 0
5, 302508, Note_on_c, 9, 59, 49
5, 302623, Note_on_c, 9, 59, 0
5, 303083, Note_on_c, 9, 59, 84
5, 303214, Note_on_c, 9, 59, 0
5, 303426, Note_on_c, 9, 59, 71
5, 303901, Note_on_c, 9, 59, 0
5, 304369, Note_on_c, 9, 59, 79
5, 304807, Note_on_c, 9, 59, 0
5, 305322, Note_on_c, 9, 59, 79
5, 305466, Note_on_c, 9, 59, 0
5, 305954, Note_on_c, 9, 36, 68
5, 305989, Note_on_c, 9, 59, 60
5, 306074, Note_on_c, 9, 59, 0
5, 306173, Note_on_c, 9, 36, 0
5, 306280, Note_on_c, 9, 59, 84
5, 306313, Note_on_c, 9, 36, 50
5, 306684, Note_on_c, 9, 36, 0
5, 306760, Note_on_c, 9, 59, 0
5, 306895, Note_on_c, 9, 38, 67
5, 307096, Note_on_c, 9, 38, 0
5, 307198, Note_on_c, 9, 59, 88
5, 307275, Note_on_c, 9, 36, 43
5, 307643, Note_on_c, 9, 36, 0
5, 307889, Note_on_c, 9, 59, 0
5, 308189, Note_on_c, 9, 59, 72
5, 308649, Note_on_c, 9, 59, 0
5, 309115, Note_on_c, 9, 59, 81
5, 309587, Note_on_c, 9, 59, 0
5, 310109, Note_on_c, 9, 59, 80
5, 310723, Note_on_c, 9, 38, 64
5, 310759, Note_on_c, 9, 59, 0
5, 310779, Note_on_c, 9, 38, 0
5, 311692, Note_on_c, 9, 38, 66
5, 311780, Note_on_c, 9, 59, 58
5, 311816, Note_on_c, 9, 38, 0
5, 311852, Note_on_c, 9, 59, 0
5, 312099, Note_on_c, 9, 59, 80
5, 312621, Note_on_c, 9, 59, 0
5, 312699, Note_on_c, 9, 38, 66
5, 312831, Note_on_c, 9, 38, 0
5, 313015, Note_on_c, 9, 59, 80
5, 313520, Note_on_c, 9, 59, 0
5, 313649, Note_on_c, 9, 38, 71
5, 313777, Note_on_c, 9, 38, 0
5, 313973, Note_on_c, 9, 59, 80
5, 314057, Note_on_c, 9, 36, 43
5, 314232, Note_on_c, 9, 36, 0
5, 314476, Note_on_c, 9, 59, 0
5, 314622, Note_on_c, 9, 36, 77
5, 314659, Note_on_c, 9, 59, 55
5, 314789, Note_on_c, 9, 59, 0
5, 314847, Note_on_c, 9, 36, 0
5, 314925, Note_on_c, 9, 59, 75
5, 314996, Note_on_c, 9, 36, 68
5, 315418, Note_on_c, 9, 36, 0
5, 315550, Note_on_c, 9, 59, 0
5, 315883, Note_on_c, 9, 59, 82
5, 316374, Note_on_c, 9, 59, 0
5, 316846, Note_on_c, 9, 59, 88
5, 317526, Note_on_c, 9, 59, 0
5, 318542, Note_on_c, 9, 59, 68
5, 318679, Note_on_c, 9, 59, 0
5, 318793, Note_on_c, 9, 59, 71
5, 319296, Note_on_c, 9, 59, 0
5, 319681, Note_on_c, 9, 59, 85
5, 320311, Note_on_c, 9, 59, 0
5, 321320, Note_on_c, 9, 40, 65
5, 321334, Note_on_c, 9, 59, 54
5, 321374, Note_on_c, 9, 40, 0
5, 321409, Note_on_c, 9, 59, 0
5, 321622, Note_on_c, 9, 59, 78
5, 321678, Note_on_c, 9, 40, 71
5, 321731, Note_on_c, 9, 40, 0
5, 322040, Note_on_c, 9, 59, 0
5, 322278, Note_on_c, 9, 36, 79
5, 322402, Note_on_c, 9, 36, 0
5, 322566, Note_on_c, 9, 59, 90
5, 322650, Note_on_c, 9, 36, 85
5, 322716, Note_on_c, 9, 59, 0
5, 323072, Note_on_c, 9, 36, 0
5, 323552, Note_on_c, 9, 59, 84
5, 323787, Note_on_c, 9, 59, 0
5, 324511, Note_on_c, 9, 59, 73
5, 324811, Note_on_c, 9, 59, 0
5, 325245, Note_on_c, 9, 59, 66
5, 325327, Note_on_c, 9, 59, 0
5, 325505, Note_on_c, 9, 59, 76
5, 326029, Note_on_c, 9, 59, 0
5, 326121, Note_on_c, 9, 38, 39
5, 326180, Note_on_c, 9, 38, 0
5, 326456, Note_on_c, 9, 59, 84
5, 326947, Note_on_c, 9, 59, 0
5, 327009, Note_on_c, 9, 38, 47
5, 327070, Note_on_c, 9, 38, 0
5, 327405, Note_on_c, 9, 59, 84
5, 327906, Note_on_c, 9, 59, 0
5, 327986, Note_on_c, 9, 38, 51
5, 328045, Note_on_c, 9, 38, 0
5, 328369, Note_on_c, 9, 59, 82
5, 328682, Note_on_c, 9, 38, 50
5, 328759, Note_on_c, 9, 38, 0
5, 328907, Note_on_c, 9, 59, 0
5, 328913, Note_on_c, 9, 38, 51
5, 329018, Note_on_c, 9, 38, 0
5, 329060, Note_on_c, 9, 59, 36
5, 329157, Note_on_c, 9, 59, 0
5, 329258, Note_on_c, 9, 36, 52
5, 329328, Note_on_c, 9, 59, 80
5, 329359, Note_on_c, 9, 36, 0
5, 329612, Note_on_c, 9, 38, 51
5, 329678, Note_on_c, 9, 38, 0
5, 329896, Note_on_c, 9, 38, 62
5, 329981, Note_on_c, 9, 59, 0
5, 330029, Note_on_c, 9, 38, 0
5, 330247, Note_on_c, 9, 59, 80
5, 330250, Note_on_c, 9, 36, 46
5, 330336, Note_on_c, 9, 36, 0
5, 330621, Note_on_c, 9, 36, 66
5, 330872, Note_on_c, 9, 59, 0
5, 330936, Note_on_c, 9, 36, 0
5, 331200, Note_on_c, 9, 59, 80
5, 331239, Note_on_c, 9, 36, 69
5, 331646, Note_on_c, 9, 36, 0
5, 331747, Note_on_c, 9, 59, 0
5, 331871, Note_on_c, 9, 59, 49
5, 331872, Note_on_c, 9, 36, 60
5, 331959, Note_on_c, 9, 59, 0
5, 332083, Note_on_c, 9, 36, 0
5, 332140, Note_on_c, 9, 59, 80
5, 332813, Note_on_c, 9, 59, 0
5, 333119, Note_on_c, 9, 59, 82
5, 333683, Note_on_c, 9, 59, 0
5, 333803, Note_on_c, 9, 59, 57
5, 333937, Note_on_c, 9, 59, 0
5, 334084, Note_on_c, 9, 59, 75
5, 334719, Note_on_c, 9, 59, 0
5, 335038, Note_on_c, 9, 59, 77
5, 335693, Note_on_c, 9, 59, 0
5, 335980, Note_on_c, 9, 59, 70
5, 336666, Note_on_c, 9, 59, 0
5, 336980, Note_on_c, 9, 59, 84
5, 337634, Note_on_c, 9, 38, 70
5, 337677, Note_on_c, 9, 59, 0
5, 337787, Note_on_c, 9, 38, 0
5, 337950, Note_on_c, 9, 59, 64
5, 338000, Note_on_c, 9, 57, 41
5, 338016, Note_on_c, 9, 36, 39
5, 338632, Note_on_c, 9, 59, 0
5, 338928, Note_on_c, 9, 59, 80
5, 339047, Note_on_c, 9, 59, 0
5, 339175, Note_on_c, 9, 59, 68
5, 339321, Note_on_c, 9, 59, 0
5, 339747, Note_on_c, 9, 57, 0
5, 339874, Note_on_c, 9, 59, 84
5, 339900, Note_on_c, 9, 36, 0
5, 340642, Note_on_c, 9, 59, 0
5, 341126, Note_on_c, 9, 59, 68
5, 341374, Note_on_c, 9, 59, 0
5, 341835, Note_on_c, 9, 59, 77
5, 342428, Note_on_c, 9, 59, 0
5, 342543, Note_on_c, 9, 59, 64
5, 342602, Note_on_c, 9, 59, 0
5, 342820, Note_on_c, 9, 59, 74
5, 343435, Note_on_c, 9, 59, 0
5, 343702, Note_on_c, 9, 59, 74
5, 344227, Note_on_c, 9, 38, 55
5, 344281, Note_on_c, 9, 38, 0
5, 344297, Note_on_c, 9, 59, 0
5, 344686, Note_on_c, 9, 59, 77
5, 344722, Note_on_c, 9, 38, 74
5, 344854, Note_on_c, 9, 38, 0
5, 344979, Note_on_c, 9, 38, 66
5, 344984, Note_on_c, 9, 59, 0
5, 345038, Note_on_c, 9, 38, 0
5, 345226, Note_on_c, 9, 36, 58
5, 345363, Note_on_c, 9, 59, 64
5, 345411, Note_on_c, 9, 36, 0
5, 345483, Note_on_c, 9, 59, 0
5, 345635, Note_on_c, 9, 59, 78
5, 345729, Note_on_c, 9, 36, 65
5, 345989, Note_on_c, 9, 36, 0
5, 346226, Note_on_c, 9, 59, 0
5, 346243, Note_on_c, 9, 36, 65
5, 346539, Note_on_c, 9, 36, 0
5, 346599, Note_on_c, 9, 59, 76
5, 347188, Note_on_c, 9, 59, 0
5, 347230, Note_on_c, 9, 53, 71
5, 347488, Note_on_c, 9, 53, 0
5, 347590, Note_on_c, 9, 59, 43
5, 348223, Note_on_c, 9, 59, 0
5, 348497, Note_on_c, 9, 59, 71
5, 349139, Note_on_c, 9, 59, 0
5, 349156, Note_on_c, 9, 53, 30
5, 349260, Note_on_c, 9, 53, 0
5, 349460, Note_on_c, 9, 59, 71
5, 350060, Note_on_c, 9, 59, 0
5, 350182, Note_on_c, 9, 38, 31
5, 350250, Note_on_c, 9, 38, 0
5, 350447, Note_on_c, 9, 59, 70
5, 350945, Note_on_c, 9, 59, 0
5, 351389, Note_on_c, 9, 59, 87
5, 351466, Note_on_c, 9, 59, 0
5, 352031, Note_on_c, 9, 38, 54
5, 352157, Note_on_c, 9, 38, 0
5, 352349, Note_on_c, 9, 38, 50
5, 352407, Note_on_c, 9, 38, 0
5, 352956, Note_on_c, 9, 36, 52
5, 352991, Note_on_c, 9, 59, 62
5, 353124, Note_on_c, 9, 36, 0
5, 353197, Note_on_c, 9, 59, 0
5, 353283, Note_on_c, 9, 36, 47
5, 353336, Note_on_c, 9, 59, 58
5, 353475, Note_on_c, 9, 36, 0
5, 353637, Note_on_c, 9, 59, 0
5, 354961, Note_on_c, 9, 59, 62
5, 355125, Note_on_c, 9, 59, 0
5, 355272, Note_on_c, 9, 59, 58
5, 355495, Note_on_c, 9, 59, 0
5, 356162, Note_on_c, 9, 59, 84
5, 356569, Note_on_c, 9, 59, 0
5, 356849, Note_on_c, 9, 38, 61
5, 357060, Note_on_c, 9, 38, 0
5, 357124, Note_on_c, 9, 59, 88
5, 357185, Note_on_c, 9, 36, 46
5, 357643, Note_on_c, 9, 59, 0
5, 357682, Note_on_c, 9, 36, 0
5, 357849, Note_on_c, 9, 36, 36
5, 357943, Note_on_c, 9, 36, 0
5, 358133, Note_on_c, 9, 59, 87
5, 358607, Note_on_c, 9, 59, 0
5, 359048, Note_on_c, 9, 59, 80
5, 359620, Note_on_c, 9, 59, 0
5, 360011, Note_on_c, 9, 59, 71
5, 360332, Note_on_c, 9, 53, 64
5, 360336, Note_on_c, 9, 59, 0
5, 360467, Note_on_c, 9, 53, 0
5, 360973, Note_on_c, 9, 59, 61
5, 361459, Note_on_c, 9, 59, 0
5, 361895, Note_on_c, 9, 59, 79
5, 362349, Note_on_c, 9, 59, 0
5, 362857, Note_on_c, 9, 59, 73
5, 363246, Note_on_c, 9, 59, 0
5, 363829, Note_on_c, 9, 59, 80
5, 364011, Note_on_c, 9, 59, 0
5, 364552, Note_on_c, 9, 59, 66
5, 364654, Note_on_c, 9, 59, 0
5, 364838, Note_on_c, 9, 59, 79
5, 365185, Note_on_c, 9, 38, 45
5, 365289, Note_on_c, 9, 38, 0
5, 365358, Note_on_c, 9, 59, 0
5, 365479, Note_on_c, 9, 38, 49
5, 365631, Note_on_c, 9, 38, 0
5, 365767, Note_on_c, 9, 36, 34
5, 365790, Note_on_c, 9, 59, 82
5, 365967, Note_on_c, 9, 36, 0
5, 366125, Note_on_c, 9, 38, 35
5, 366163, Note_on_c, 9, 59, 0
5, 366238, Note_on_c, 9, 38, 0
5, 366416, Note_on_c, 9, 38, 50
5, 366504, Note_on_c, 9, 59, 58
5, 366533, Note_on_c, 9, 38, 0
5, 366614, Note_on_c, 9, 59, 0
5, 366740, Note_on_c, 9, 59, 74
5, 367122, Note_on_c, 9, 38, 33
5, 367218, Note_on_c, 9, 38, 0
5, 367325, Note_on_c, 9, 59, 0
5, 367378, Note_on_c, 9, 38, 49
5, 367523, Note_on_c, 9, 38, 0
5, 367685, Note_on_c, 9, 59, 82
5, 368042, Note_on_c, 9, 38, 49
5, 368131, Note_on_c, 9, 38, 0
5, 368283, Note_on_c, 9, 38, 49
5, 368306, Note_on_c, 9, 59, 0
5, 368339, Note_on_c, 9, 38, 0
5, 368647, Note_on_c, 9, 59, 72
5, 368680, Note_on_c, 9, 36, 66
5, 368688, Note_on_c, 9, 57, 80
5, 368744, Note_on_c, 9, 57, 0
5, 368772, Note_on_c, 9, 36, 0
5, 368855, Note_on_c, 9, 59, 0
5, 368969, Note_on_c, 9, 59, 62
5, 369374, Note_on_c, 9, 59, 0
5, 369655, Note_on_c, 9, 59, 76
5, 370179, Note_on_c, 9, 59, 0
5, 370313, Note_on_c, 9, 59, 42
5, 370468, Note_on_c, 9, 59, 0
5, 370633, Note_on_c, 9, 59, 70
5, 371252, Note_on_c, 9, 59, 0
5, 372142, Note_on_c, 9, 59, 76
5, 372196, Note_on_c, 9, 38, 55
5, 372318, Note_on_c, 9, 59, 0
5, 372375, Note_on_c, 9, 38, 0
5, 372501, Note_on_c, 9, 59, 64
5, 372617, Note_on_c, 9, 36, 32
5, 372809, Note_on_c, 9, 59, 0
5, 373053, Note_on_c, 9, 36, 0
5, 373478, Note_on_c, 9, 59, 72
5, 373878, Note_on_c, 9, 59, 0
5, 374384, Note_on_c, 9, 59, 72
5, 374712, Note_on_c, 9, 59, 0
5, 375367, Note_on_c, 9, 59, 77
5, 375628, Note_on_c, 9, 59, 0
5, 376053, Note_on_c, 9, 59, 75
5, 376079, Note_on_c, 9, 36, 57
5, 376175, Note_on_c, 9, 59, 0
5, 376320, Note_on_c, 9, 36, 0
5, 376347, Note_on_c, 9, 59, 68
5, 376486, Note_on_c, 9, 36, 37
5, 376820, Note_on_c, 9, 59, 0
5, 376828, Note_on_c, 9, 36, 0
5, 377028, Note_on_c, 9, 36, 39
5, 377171, Note_on_c, 9, 36, 0
5, 377293, Note_on_c, 9, 59, 72
5, 377548, Note_on_c, 9, 59, 0
5, 378243, Note_on_c, 9, 59, 71
5, 378529, Note_on_c, 9, 59, 0
5, 379189, Note_on_c, 9, 59, 72
5, 379436, Note_on_c, 9, 59, 0
5, 379894, Note_on_c, 9, 59, 66
5, 379978, Note_on_c, 9, 59, 0
5, 380166, Note_on_c, 9, 59, 68
5, 380584, Note_on_c, 9, 59, 0
5, 380858, Note_on_c, 9, 38, 54
5, 381023, Note_on_c, 9, 38, 0
5, 381115, Note_on_c, 9, 59, 75
5, 381295, Note_on_c, 9, 36, 30
5, 381358, Note_on_c, 9, 59, 0
5, 381394, Note_on_c, 9, 36, 0
5, 381830, Note_on_c, 9, 36, 54
5, 381859, Note_on_c, 9, 59, 68
5, 381920, Note_on_c, 9, 59, 0
5, 381949, Note_on_c, 9, 36, 0
5, 382146, Note_on_c, 9, 59, 73
5, 382434, Note_on_c, 9, 59, 0
5, 382816, Note_on_c, 9, 38, 57
5, 382957, Note_on_c, 9, 38, 0
5, 383077, Note_on_c, 9, 59, 73
5, 383129, Note_on_c, 9, 38, 33
5, 383260, Note_on_c, 9, 59, 0
5, 383353, Note_on_c, 9, 38, 0
5, 383728, Note_on_c, 9, 57, 71
5, 383740, Note_on_c, 9, 59, 71
5, 383753, Note_on_c, 9, 36, 73
5, 383785, Note_on_c, 9, 57, 0
5, 383834, Note_on_c, 9, 59, 0
5, 383880, Note_on_c, 9, 36, 0
5, 384033, Note_on_c, 9, 59, 70
5, 384166, Note_on_c, 9, 59, 0
5, 384166, End_track
6, 0, Start_track
6, 0, End_track
0, 0, End_of_file
