0, 0, Header, 1, 4, 960
1, 0, Start_track
1, 0, Title_t, "Old Man River"
1, 0, Text_t, "Jerome Kern\012"
1, 0, Text_t, "dougmck@pipeline.com.au\012"
1, 0, Time_signature, 4, 2, 24, 8
1, 0, Key_signature, 0, "major"
1, 0, Tempo, 461538
1, 0, End_track
2, 0, Start_track
2, 0, Title_t, "Piano"
2, 0, Program_c, 0, 0
2, 30, Note_on_c, 0, 67, 29
2, 44, Note_on_c, 0, 79, 68
2, 73, Control_c, 0, 64, 127
2, 77, Note_on_c, 0, 62, 38
2, 80, Note_on_c, 0, 64, 31
2, 518, Note_on_c, 0, 79, 0
2, 566, Note_on_c, 0, 77, 67
2, 652, Note_on_c, 0, 67, 0
2, 864, Note_on_c, 0, 77, 0
2, 1032, Note_on_c, 0, 76, 82
2, 1086, Note_on_c, 0, 55, 47
2, 1269, Note_on_c, 0, 76, 0
2, 1567, Note_on_c, 0, 64, 0
2, 1708, Note_on_c, 0, 62, 0
2, 1949, Note_on_c, 0, 76, 101
2, 1976, Note_on_c, 0, 62, 20
2, 1981, Note_on_c, 0, 64, 48
2, 1997, Note_on_c, 0, 67, 66
2, 2467, Note_on_c, 0, 67, 0
2, 2607, Note_on_c, 0, 76, 0
2, 2628, Note_on_c, 0, 55, 0
2, 3023, Note_on_c, 0, 55, 67
2, 3027, Note_on_c, 0, 79, 103
2, 3437, Note_on_c, 0, 62, 0
2, 3480, Note_on_c, 0, 64, 0
2, 3588, Note_on_c, 0, 79, 0
2, 3738, Note_on_c, 0, 77, 82
2, 4408, Note_on_c, 0, 77, 0
2, 4452, Control_c, 0, 64, 0
2, 4495, Note_on_c, 0, 64, 50
2, 4510, Note_on_c, 0, 76, 79
2, 4518, Note_on_c, 0, 67, 47
2, 4543, Note_on_c, 0, 62, 31
2, 4676, Note_on_c, 0, 67, 0
2, 4683, Control_c, 0, 64, 127
2, 4826, Note_on_c, 0, 64, 0
2, 4874, Note_on_c, 0, 62, 0
2, 4982, Note_on_c, 0, 55, 0
2, 5259, Note_on_c, 0, 76, 0
2, 6089, Note_on_c, 0, 76, 66
2, 6101, Note_on_c, 0, 40, 44
2, 6116, Note_on_c, 0, 79, 55
2, 6120, Note_on_c, 0, 67, 52
2, 6132, Note_on_c, 0, 52, 27
2, 6141, Control_c, 0, 64, 0
2, 6536, Control_c, 0, 64, 127
2, 6661, Note_on_c, 0, 40, 0
2, 6864, Note_on_c, 0, 52, 0
2, 7166, Note_on_c, 0, 67, 0
2, 7345, Note_on_c, 0, 79, 0
2, 7355, Note_on_c, 0, 76, 0
2, 8162, Control_c, 0, 64, 0
2, 8210, Note_on_c, 0, 41, 30
2, 8214, Note_on_c, 0, 48, 33
2, 8250, Note_on_c, 0, 81, 53
2, 8254, Note_on_c, 0, 57, 38
2, 8258, Note_on_c, 0, 77, 41
2, 8260, Note_on_c, 0, 69, 41
2, 8539, Control_c, 0, 64, 127
2, 8693, Note_on_c, 0, 41, 0
2, 8732, Note_on_c, 0, 48, 0
2, 8793, Note_on_c, 0, 69, 0
2, 8917, Note_on_c, 0, 57, 0
2, 8998, Note_on_c, 0, 77, 0
2, 9044, Note_on_c, 0, 81, 0
2, 10367, Note_on_c, 0, 84, 43
2, 10403, Note_on_c, 0, 74, 33
2, 10417, Note_on_c, 0, 64, 18
2, 10419, Note_on_c, 0, 79, 38
2, 10423, Note_on_c, 0, 60, 31
2, 10436, Note_on_c, 0, 57, 33
2, 10454, Note_on_c, 0, 53, 22
2, 11996, Note_on_c, 0, 84, 0
2, 12162, Note_on_c, 0, 79, 0
2, 12374, Note_on_c, 0, 74, 0
2, 14045, Note_on_c, 0, 79, 92
2, 14126, Note_on_c, 0, 53, 0
2, 14169, Note_on_c, 0, 60, 0
2, 14213, Note_on_c, 0, 57, 0
2, 14240, Note_on_c, 0, 64, 0
2, 14667, Note_on_c, 0, 79, 0
2, 15153, Note_on_c, 0, 78, 75
2, 15166, Note_on_c, 0, 79, 83
2, 15191, Note_on_c, 0, 62, 51
2, 15193, Note_on_c, 0, 67, 64
2, 15212, Control_c, 0, 64, 0
2, 15216, Note_on_c, 0, 64, 41
2, 15305, Note_on_c, 0, 78, 0
2, 15528, Note_on_c, 0, 79, 0
2, 15792, Note_on_c, 0, 67, 0
2, 15902, Note_on_c, 0, 77, 66
2, 16052, Note_on_c, 0, 77, 0
2, 16566, Note_on_c, 0, 55, 44
2, 16572, Note_on_c, 0, 76, 50
2, 16674, Note_on_c, 0, 76, 0
2, 16871, Note_on_c, 0, 64, 0
2, 16942, Note_on_c, 0, 62, 0
2, 17327, Note_on_c, 0, 76, 65
2, 17425, Note_on_c, 0, 76, 0
2, 18190, Note_on_c, 0, 76, 74
2, 18334, Note_on_c, 0, 76, 0
2, 18465, Control_c, 0, 64, 127
2, 18987, Control_c, 0, 64, 0
2, 19024, Note_on_c, 0, 76, 68
2, 19043, Note_on_c, 0, 58, 33
2, 19045, Note_on_c, 0, 64, 32
2, 19057, Note_on_c, 0, 61, 37
2, 19509, Control_c, 0, 64, 127
2, 19933, Note_on_c, 0, 79, 73
2, 20000, Note_on_c, 0, 76, 0
2, 20106, Note_on_c, 0, 55, 0
2, 20738, Control_c, 0, 64, 0
2, 20769, Note_on_c, 0, 79, 0
2, 20790, Note_on_c, 0, 55, 55
2, 20811, Note_on_c, 0, 77, 66
2, 20948, Control_c, 0, 64, 127
2, 21235, Note_on_c, 0, 61, 0
2, 21244, Note_on_c, 0, 64, 0
2, 21356, Note_on_c, 0, 58, 0
2, 21547, Note_on_c, 0, 55, 0
2, 21549, Note_on_c, 0, 77, 0
2, 22198, Control_c, 0, 64, 0
2, 22202, Note_on_c, 0, 76, 65
2, 22219, Note_on_c, 0, 50, 37
2, 22229, Note_on_c, 0, 65, 48
2, 22240, Note_on_c, 0, 60, 32
2, 22244, Note_on_c, 0, 69, 50
2, 22246, Note_on_c, 0, 72, 51
2, 22637, Control_c, 0, 64, 127
2, 22880, Note_on_c, 0, 60, 0
2, 22920, Note_on_c, 0, 76, 0
2, 23030, Note_on_c, 0, 65, 0
2, 23043, Note_on_c, 0, 72, 0
2, 23103, Note_on_c, 0, 69, 0
2, 23428, Control_c, 0, 64, 0
2, 23459, Note_on_c, 0, 77, 63
2, 23463, Note_on_c, 0, 61, 57
2, 23465, Note_on_c, 0, 69, 62
2, 23494, Note_on_c, 0, 72, 44
2, 23507, Note_on_c, 0, 65, 51
2, 23721, Control_c, 0, 64, 127
2, 24341, Note_on_c, 0, 61, 0
2, 24430, Note_on_c, 0, 77, 0
2, 24544, Note_on_c, 0, 65, 0
2, 24682, Note_on_c, 0, 72, 0
2, 24748, Note_on_c, 0, 69, 0
2, 24767, Note_on_c, 0, 50, 0
2, 25597, Control_c, 0, 64, 0
2, 25707, Note_on_c, 0, 74, 45
2, 25718, Note_on_c, 0, 69, 47
2, 25722, Note_on_c, 0, 55, 41
2, 25730, Note_on_c, 0, 65, 34
2, 25751, Note_on_c, 0, 60, 24
2, 26015, Control_c, 0, 64, 127
2, 26246, Note_on_c, 0, 60, 0
2, 26340, Note_on_c, 0, 55, 0
2, 27411, Note_on_c, 0, 69, 0
2, 27804, Note_on_c, 0, 65, 0
2, 28286, Note_on_c, 0, 67, 35
2, 28374, Note_on_c, 0, 43, 22
2, 28386, Note_on_c, 0, 31, 27
2, 28413, Control_c, 0, 64, 0
2, 29162, Control_c, 0, 64, 127
2, 29751, Note_on_c, 0, 31, 0
2, 29921, Note_on_c, 0, 43, 0
2, 30997, Note_on_c, 0, 67, 0
2, 31182, Note_on_c, 0, 74, 0
2, 32665, Note_on_c, 0, 76, 78
2, 32688, Control_c, 0, 64, 0
2, 32706, Note_on_c, 0, 70, 79
2, 32738, Note_on_c, 0, 58, 46
2, 32740, Note_on_c, 0, 48, 39
2, 32752, Note_on_c, 0, 65, 68
2, 33147, Control_c, 0, 64, 127
2, 33276, Note_on_c, 0, 76, 0
2, 33540, Note_on_c, 0, 65, 0
2, 33547, Note_on_c, 0, 70, 0
2, 33615, Note_on_c, 0, 74, 79
2, 33961, Note_on_c, 0, 58, 0
2, 34142, Note_on_c, 0, 74, 0
2, 34318, Note_on_c, 0, 72, 81
2, 35086, Note_on_c, 0, 72, 0
2, 35560, Note_on_c, 0, 72, 56
2, 35596, Note_on_c, 0, 68, 47
2, 35606, Control_c, 0, 64, 0
2, 35614, Note_on_c, 0, 58, 42
2, 35620, Note_on_c, 0, 64, 36
2, 36357, Control_c, 0, 64, 127
2, 36997, Note_on_c, 0, 64, 0
2, 37153, Note_on_c, 0, 72, 0
2, 37208, Note_on_c, 0, 68, 0
2, 37359, Note_on_c, 0, 76, 82
2, 37700, Note_on_c, 0, 76, 0
2, 38118, Note_on_c, 0, 74, 66
2, 38287, Note_on_c, 0, 48, 0
2, 38439, Note_on_c, 0, 58, 0
2, 39206, Note_on_c, 0, 74, 0
2, 40425, Note_on_c, 0, 72, 73
2, 40444, Control_c, 0, 64, 0
2, 40448, Note_on_c, 0, 64, 60
2, 40477, Note_on_c, 0, 58, 49
2, 40481, Note_on_c, 0, 48, 43
2, 41029, Control_c, 0, 64, 127
2, 41669, Note_on_c, 0, 64, 0
2, 41705, Note_on_c, 0, 72, 0
2, 41750, Note_on_c, 0, 58, 0
2, 42004, Note_on_c, 0, 48, 0
2, 42310, Note_on_c, 0, 72, 66
2, 42905, Note_on_c, 0, 72, 0
2, 44386, Control_c, 0, 64, 0
2, 44492, Note_on_c, 0, 41, 41
2, 44504, Note_on_c, 0, 48, 33
2, 44519, Note_on_c, 0, 74, 45
2, 44529, Note_on_c, 0, 62, 40
2, 44542, Note_on_c, 0, 69, 51
2, 44866, Control_c, 0, 64, 127
2, 45024, Note_on_c, 0, 41, 0
2, 45126, Note_on_c, 0, 48, 0
2, 45170, Note_on_c, 0, 62, 0
2, 45272, Note_on_c, 0, 69, 0
2, 45286, Note_on_c, 0, 74, 0
2, 47553, Note_on_c, 0, 68, 40
2, 47555, Note_on_c, 0, 77, 55
2, 47572, Note_on_c, 0, 72, 58
2, 47595, Note_on_c, 0, 67, 51
2, 47666, Control_c, 0, 64, 0
2, 48862, Note_on_c, 0, 67, 0
2, 48908, Note_on_c, 0, 65, 46
2, 49064, Control_c, 0, 64, 127
2, 50318, Note_on_c, 0, 65, 0
2, 51116, Note_on_c, 0, 77, 0
2, 51179, Note_on_c, 0, 72, 0
2, 51216, Note_on_c, 0, 68, 0
2, 53746, Note_on_c, 0, 64, 72
2, 53764, Note_on_c, 0, 60, 62
2, 53771, Note_on_c, 0, 55, 72
2, 53781, Note_on_c, 0, 45, 61
2, 53798, Control_c, 0, 64, 0
2, 54234, Control_c, 0, 64, 127
2, 54648, Note_on_c, 0, 55, 0
2, 54707, Note_on_c, 0, 64, 0
2, 54736, Control_c, 0, 64, 0
2, 54738, Note_on_c, 0, 62, 74
2, 54752, Note_on_c, 0, 45, 0
2, 54756, Note_on_c, 0, 44, 52
2, 54923, Note_on_c, 0, 60, 0
2, 55110, Control_c, 0, 64, 127
2, 55653, Control_c, 0, 64, 0
2, 55657, Note_on_c, 0, 62, 0
2, 55688, Note_on_c, 0, 60, 53
2, 55705, Note_on_c, 0, 43, 43
2, 55709, Note_on_c, 0, 44, 0
2, 55730, Note_on_c, 0, 55, 54
2, 55965, Control_c, 0, 64, 127
2, 56525, Note_on_c, 0, 55, 0
2, 56583, Note_on_c, 0, 60, 0
2, 56901, Note_on_c, 0, 43, 0
2, 58122, Note_on_c, 0, 54, 33
2, 58128, Note_on_c, 0, 60, 40
2, 58157, Note_on_c, 0, 42, 36
2, 58172, Note_on_c, 0, 30, 36
2, 58218, Control_c, 0, 64, 0
2, 58864, Control_c, 0, 64, 127
2, 59439, Note_on_c, 0, 54, 0
2, 59620, Note_on_c, 0, 60, 0
2, 59911, Note_on_c, 0, 64, 77
2, 60608, Note_on_c, 0, 64, 0
2, 60720, Note_on_c, 0, 62, 71
2, 60872, Note_on_c, 0, 30, 0
2, 60907, Note_on_c, 0, 42, 0
2, 61724, Note_on_c, 0, 62, 0
2, 62026, Note_on_c, 0, 60, 40
2, 62032, Note_on_c, 0, 57, 43
2, 62043, Note_on_c, 0, 53, 42
2, 62072, Note_on_c, 0, 31, 43
2, 62076, Note_on_c, 0, 43, 36
2, 62097, Control_c, 0, 64, 0
2, 62721, Control_c, 0, 64, 127
2, 63925, Note_on_c, 0, 31, 0
2, 64062, Note_on_c, 0, 43, 0
2, 64073, Note_on_c, 0, 53, 0
2, 64241, Note_on_c, 0, 60, 0
2, 64270, Note_on_c, 0, 57, 0
2, 65053, Note_on_c, 0, 62, 47
2, 65055, Note_on_c, 0, 53, 33
2, 65057, Note_on_c, 0, 43, 33
2, 65065, Note_on_c, 0, 31, 40
2, 65067, Note_on_c, 0, 59, 43
2, 65077, Note_on_c, 0, 56, 32
2, 65105, Control_c, 0, 64, 0
2, 66737, Note_on_c, 0, 43, 0
2, 67056, Note_on_c, 0, 31, 0
2, 68239, Note_on_c, 0, 53, 0
2, 68308, Note_on_c, 0, 59, 0
2, 68984, Note_on_c, 0, 56, 0
2, 69141, Note_on_c, 0, 24, 28
2, 69147, Note_on_c, 0, 36, 43
2, 69158, Note_on_c, 0, 63, 57
2, 69178, Note_on_c, 0, 52, 46
2, 69183, Note_on_c, 0, 58, 46
2, 69291, Note_on_c, 0, 52, 0
2, 69351, Note_on_c, 0, 63, 0
2, 69357, Note_on_c, 0, 58, 0
2, 70488, Note_on_c, 0, 62, 0
2, 71142, Note_on_c, 0, 24, 0
2, 71182, Note_on_c, 0, 28, 63
2, 71188, Note_on_c, 0, 36, 0
2, 73089, Note_on_c, 0, 28, 0
2, 73162, Note_on_c, 0, 29, 45
2, 73170, Note_on_c, 0, 62, 47
2, 73176, Note_on_c, 0, 51, 33
2, 73185, Note_on_c, 0, 57, 40
2, 75169, Note_on_c, 0, 29, 0
2, 75680, Note_on_c, 0, 34, 58
2, 75841, Note_on_c, 0, 34, 0
2, 75914, Note_on_c, 0, 35, 25
2, 75999, Note_on_c, 0, 51, 0
2, 76001, Note_on_c, 0, 35, 0
2, 76013, Note_on_c, 0, 57, 0
2, 76049, Note_on_c, 0, 62, 0
2, 76061, Note_on_c, 0, 35, 31
2, 76702, Note_on_c, 0, 36, 95
2, 76704, Note_on_c, 0, 35, 0
2, 77022, Note_on_c, 0, 36, 0
2, 77604, Note_on_c, 0, 63, 75
2, 77615, Note_on_c, 0, 58, 75
2, 77630, Note_on_c, 0, 52, 77
2, 77698, Note_on_c, 0, 52, 0
2, 77763, Note_on_c, 0, 63, 0
2, 77781, Note_on_c, 0, 58, 0
2, 78576, Note_on_c, 0, 31, 51
2, 78749, Note_on_c, 0, 31, 0
2, 78907, Note_on_c, 0, 63, 70
2, 78925, Note_on_c, 0, 58, 64
2, 78930, Note_on_c, 0, 52, 70
2, 78965, Note_on_c, 0, 36, 49
2, 79595, Note_on_c, 0, 36, 0
2, 79934, Note_on_c, 0, 28, 38
2, 80259, Note_on_c, 0, 52, 0
2, 80425, Note_on_c, 0, 63, 0
2, 80608, Note_on_c, 0, 58, 0
2, 80745, Note_on_c, 0, 28, 0
2, 80777, Note_on_c, 0, 62, 56
2, 80787, Note_on_c, 0, 51, 44
2, 80799, Note_on_c, 0, 29, 39
2, 80822, Note_on_c, 0, 57, 40
2, 80974, Note_on_c, 0, 51, 0
2, 81039, Note_on_c, 0, 62, 0
2, 81062, Note_on_c, 0, 57, 0
2, 81099, Note_on_c, 0, 29, 0
2, 82253, Note_on_c, 0, 51, 32
2, 82255, Note_on_c, 0, 62, 38
2, 82274, Note_on_c, 0, 57, 35
2, 82295, Note_on_c, 0, 29, 37
2, 83204, Note_on_c, 0, 30, 55
2, 83354, Note_on_c, 0, 29, 0
2, 83481, Note_on_c, 0, 30, 0
2, 83610, Note_on_c, 0, 31, 62
2, 84063, Note_on_c, 0, 62, 0
2, 84109, Note_on_c, 0, 51, 0
2, 84167, Note_on_c, 0, 57, 0
2, 84190, Note_on_c, 0, 31, 0
2, 84213, Note_on_c, 0, 24, 75
2, 85265, Note_on_c, 0, 31, 49
2, 85342, Note_on_c, 0, 31, 0
2, 85444, Note_on_c, 0, 63, 83
2, 85461, Note_on_c, 0, 52, 74
2, 85465, Note_on_c, 0, 58, 78
2, 87100, Note_on_c, 0, 27, 33
2, 87141, Note_on_c, 0, 24, 0
2, 87337, Note_on_c, 0, 30, 46
2, 87518, Note_on_c, 0, 52, 0
2, 87842, Note_on_c, 0, 63, 0
2, 88069, Note_on_c, 0, 58, 0
2, 88082, Note_on_c, 0, 27, 0
2, 88181, Note_on_c, 0, 30, 0
2, 88308, Note_on_c, 0, 62, 40
2, 88327, Note_on_c, 0, 51, 30
2, 88331, Note_on_c, 0, 57, 37
2, 88337, Note_on_c, 0, 29, 36
2, 88593, Note_on_c, 0, 57, 0
2, 88649, Note_on_c, 0, 62, 0
2, 88664, Note_on_c, 0, 51, 0
2, 88718, Note_on_c, 0, 29, 0
2, 89866, Note_on_c, 0, 62, 35
2, 89889, Note_on_c, 0, 51, 33
2, 89899, Note_on_c, 0, 57, 30
2, 89929, Note_on_c, 0, 29, 34
2, 90139, Note_on_c, 0, 51, 0
2, 90168, Note_on_c, 0, 57, 0
2, 90201, Note_on_c, 0, 29, 0
2, 90216, Note_on_c, 0, 62, 0
2, 90831, Note_on_c, 0, 31, 75
2, 90904, Note_on_c, 0, 30, 57
2, 91122, Note_on_c, 0, 30, 0
2, 91222, Note_on_c, 0, 31, 0
2, 91266, Note_on_c, 0, 24, 57
2, 94107, Note_on_c, 0, 63, 59
2, 94128, Note_on_c, 0, 58, 52
2, 94157, Note_on_c, 0, 52, 24
2, 94280, Note_on_c, 0, 52, 0
2, 94330, Note_on_c, 0, 63, 0
2, 94359, Note_on_c, 0, 58, 0
2, 95790, Note_on_c, 0, 30, 34
2, 96062, Note_on_c, 0, 62, 43
2, 96073, Note_on_c, 0, 29, 41
2, 96075, Note_on_c, 0, 57, 39
2, 96083, Note_on_c, 0, 24, 0
2, 96087, Note_on_c, 0, 51, 29
2, 96177, Note_on_c, 0, 30, 0
2, 96335, Note_on_c, 0, 51, 0
2, 96385, Note_on_c, 0, 57, 0
2, 96470, Note_on_c, 0, 62, 0
2, 98009, Note_on_c, 0, 76, 54
2, 98040, Note_on_c, 0, 64, 54
2, 98650, Note_on_c, 0, 29, 0
2, 98679, Note_on_c, 0, 77, 50
2, 98696, Note_on_c, 0, 76, 0
2, 98710, Note_on_c, 0, 65, 50
2, 98727, Note_on_c, 0, 64, 0
2, 98825, Note_on_c, 0, 77, 0
2, 98856, Note_on_c, 0, 65, 0
2, 98962, Note_on_c, 0, 78, 61
2, 98993, Note_on_c, 0, 66, 61
2, 99773, Note_on_c, 0, 66, 0
2, 99886, Note_on_c, 0, 73, 47
2, 99897, Note_on_c, 0, 78, 0
2, 99901, Note_on_c, 0, 67, 62
2, 99910, Note_on_c, 0, 52, 41
2, 99912, Note_on_c, 0, 62, 46
2, 99917, Note_on_c, 0, 79, 41
2, 99940, Note_on_c, 0, 57, 34
2, 100129, Note_on_c, 0, 73, 0
2, 100205, Note_on_c, 0, 74, 22
2, 100251, Note_on_c, 0, 52, 0
2, 100257, Note_on_c, 0, 67, 0
2, 100308, Note_on_c, 0, 62, 0
2, 100311, Note_on_c, 0, 57, 0
2, 100387, Note_on_c, 0, 79, 0
2, 100438, Note_on_c, 0, 74, 0
2, 100913, Control_c, 0, 64, 127
2, 101094, Control_c, 0, 64, 0
2, 101819, Control_c, 0, 64, 127
2, 101842, Note_on_c, 0, 73, 80
2, 101846, Note_on_c, 0, 67, 92
2, 101852, Note_on_c, 0, 79, 84
2, 101859, Note_on_c, 0, 62, 83
2, 101862, Note_on_c, 0, 52, 82
2, 101870, Note_on_c, 0, 57, 64
2, 101958, Note_on_c, 0, 73, 0
2, 101993, Note_on_c, 0, 74, 34
2, 103249, Note_on_c, 0, 67, 0
2, 103327, Note_on_c, 0, 79, 0
2, 103416, Note_on_c, 0, 52, 0
2, 103461, Note_on_c, 0, 74, 0
2, 103486, Note_on_c, 0, 62, 0
2, 103596, Control_c, 0, 64, 0
2, 103602, Note_on_c, 0, 57, 0
2, 103717, Note_on_c, 0, 51, 68
2, 103719, Note_on_c, 0, 74, 64
2, 103721, Note_on_c, 0, 62, 66
2, 103723, Note_on_c, 0, 69, 62
2, 103725, Note_on_c, 0, 81, 73
2, 103726, Note_on_c, 0, 57, 55
2, 103764, Control_c, 0, 64, 127
2, 104009, Note_on_c, 0, 74, 0
2, 104046, Note_on_c, 0, 69, 0
2, 104146, Note_on_c, 0, 51, 0
2, 104155, Note_on_c, 0, 62, 0
2, 104171, Note_on_c, 0, 81, 0
2, 104218, Control_c, 0, 64, 0
2, 104307, Note_on_c, 0, 57, 0
2, 104397, Note_on_c, 0, 84, 80
2, 104403, Note_on_c, 0, 72, 73
2, 104408, Note_on_c, 0, 62, 66
2, 104410, Note_on_c, 0, 79, 66
2, 104424, Note_on_c, 0, 57, 55
2, 104428, Note_on_c, 0, 51, 64
2, 104471, Note_on_c, 0, 79, 0
2, 104484, Note_on_c, 0, 62, 0
2, 104493, Note_on_c, 0, 72, 0
2, 104499, Note_on_c, 0, 57, 0
2, 104529, Note_on_c, 0, 84, 0
2, 104625, Note_on_c, 0, 51, 0
2, 105740, Control_c, 0, 64, 127
2, 106344, Note_on_c, 0, 48, 35
2, 106397, Note_on_c, 0, 47, 26
2, 106411, Control_c, 0, 64, 0
2, 106478, Note_on_c, 0, 47, 0
2, 106538, Note_on_c, 0, 48, 0
2, 106567, Note_on_c, 0, 68, 83
2, 106572, Note_on_c, 0, 63, 87
2, 106576, Note_on_c, 0, 57, 84
2, 106585, Note_on_c, 0, 52, 73
2, 107281, Note_on_c, 0, 52, 0
2, 107330, Note_on_c, 0, 57, 0
2, 107362, Note_on_c, 0, 50, 31
2, 107433, Note_on_c, 0, 63, 0
2, 107435, Note_on_c, 0, 68, 0
2, 107467, Note_on_c, 0, 50, 0
2, 107563, Note_on_c, 0, 43, 37
2, 107565, Note_on_c, 0, 57, 29
2, 107567, Note_on_c, 0, 62, 44
2, 107570, Note_on_c, 0, 67, 54
2, 107574, Note_on_c, 0, 52, 49
2, 107982, Note_on_c, 0, 57, 0
2, 107997, Note_on_c, 0, 62, 0
2, 107999, Note_on_c, 0, 67, 0
2, 108029, Note_on_c, 0, 43, 0
2, 108066, Note_on_c, 0, 52, 0
2, 108210, Note_on_c, 0, 55, 80
2, 110226, Note_on_c, 0, 43, 54
2, 110228, Note_on_c, 0, 52, 53
2, 110288, Note_on_c, 0, 52, 0
2, 110405, Note_on_c, 0, 43, 0
2, 111080, Note_on_c, 0, 41, 83
2, 111094, Note_on_c, 0, 56, 81
2, 111096, Note_on_c, 0, 29, 77
2, 111206, Note_on_c, 0, 41, 0
2, 111230, Note_on_c, 0, 29, 0
2, 111284, Note_on_c, 0, 55, 0
2, 111405, Note_on_c, 0, 56, 0
2, 111505, Note_on_c, 0, 57, 53
2, 112101, Note_on_c, 0, 57, 0
2, 112208, Note_on_c, 0, 60, 29
2, 112318, Note_on_c, 0, 60, 0
2, 112417, Note_on_c, 0, 62, 81
2, 113157, Note_on_c, 0, 57, 47
2, 113191, Note_on_c, 0, 51, 32
2, 113220, Note_on_c, 0, 57, 0
2, 113226, Note_on_c, 0, 62, 0
2, 113271, Note_on_c, 0, 51, 0
2, 113383, Note_on_c, 0, 60, 71
2, 114177, Note_on_c, 0, 60, 0
2, 114316, Note_on_c, 0, 62, 62
2, 114947, Note_on_c, 0, 50, 24
2, 115019, Note_on_c, 0, 62, 0
2, 115077, Note_on_c, 0, 50, 0
2, 115173, Note_on_c, 0, 43, 38
2, 115185, Note_on_c, 0, 55, 55
2, 115195, Note_on_c, 0, 52, 44
2, 115196, Note_on_c, 0, 64, 41
2, 115209, Note_on_c, 0, 60, 33
2, 115715, Note_on_c, 0, 64, 0
2, 115742, Note_on_c, 0, 55, 0
2, 115788, Note_on_c, 0, 52, 0
2, 115800, Note_on_c, 0, 60, 0
2, 115829, Note_on_c, 0, 43, 0
2, 115873, Note_on_c, 0, 64, 46
2, 115891, Note_on_c, 0, 55, 55
2, 115911, Note_on_c, 0, 60, 31
2, 115938, Note_on_c, 0, 52, 41
2, 115947, Note_on_c, 0, 43, 18
2, 115950, Note_on_c, 0, 55, 0
2, 115979, Note_on_c, 0, 60, 0
2, 116010, Note_on_c, 0, 52, 0
2, 116026, Note_on_c, 0, 64, 0
2, 116052, Note_on_c, 0, 43, 0
2, 116110, Control_c, 0, 64, 127
2, 116182, Control_c, 0, 64, 0
2, 117270, Control_c, 0, 64, 127
2, 117324, Control_c, 0, 64, 0
2, 118068, Control_c, 0, 64, 127
2, 118321, Control_c, 0, 64, 0
2, 118738, Note_on_c, 0, 63, 75
2, 118751, Note_on_c, 0, 67, 77
2, 118760, Note_on_c, 0, 86, 90
2, 118763, Note_on_c, 0, 74, 89
2, 118780, Note_on_c, 0, 57, 41
2, 118798, Note_on_c, 0, 76, 60
2, 118807, Note_on_c, 0, 83, 47
2, 118810, Note_on_c, 0, 81, 51
2, 118812, Note_on_c, 0, 67, 0
2, 118818, Note_on_c, 0, 84, 33
2, 118836, Note_on_c, 0, 74, 0
2, 118847, Note_on_c, 0, 57, 0
2, 118859, Note_on_c, 0, 76, 0
2, 118863, Note_on_c, 0, 63, 0
2, 118870, Note_on_c, 0, 83, 0
2, 118874, Note_on_c, 0, 81, 0
2, 118879, Note_on_c, 0, 84, 0
2, 118892, Note_on_c, 0, 86, 0
2, 119655, Note_on_c, 0, 86, 88
2, 119659, Note_on_c, 0, 62, 75
2, 119660, Note_on_c, 0, 63, 68
2, 119668, Note_on_c, 0, 67, 69
2, 119675, Note_on_c, 0, 74, 68
2, 119682, Note_on_c, 0, 57, 60
2, 119684, Note_on_c, 0, 76, 76
2, 119743, Note_on_c, 0, 76, 0
2, 119801, Note_on_c, 0, 74, 0
2, 119839, Note_on_c, 0, 67, 0
2, 119852, Note_on_c, 0, 86, 0
2, 119881, Note_on_c, 0, 57, 0
2, 119886, Note_on_c, 0, 62, 0
2, 119897, Note_on_c, 0, 63, 0
2, 120427, Note_on_c, 0, 62, 80
2, 120434, Note_on_c, 0, 63, 72
2, 120440, Note_on_c, 0, 67, 80
2, 120456, Note_on_c, 0, 86, 88
2, 120463, Note_on_c, 0, 74, 88
2, 120467, Note_on_c, 0, 57, 47
2, 120573, Note_on_c, 0, 86, 0
2, 120575, Note_on_c, 0, 74, 0
2, 120611, Note_on_c, 0, 67, 0
2, 120640, Note_on_c, 0, 57, 0
2, 120667, Note_on_c, 0, 62, 0
2, 120686, Note_on_c, 0, 63, 0
2, 121134, Note_on_c, 0, 62, 76
2, 121136, Note_on_c, 0, 63, 74
2, 121137, Note_on_c, 0, 86, 85
2, 121141, Note_on_c, 0, 67, 83
2, 121152, Note_on_c, 0, 57, 62
2, 121154, Note_on_c, 0, 74, 81
2, 121313, Note_on_c, 0, 67, 0
2, 121318, Note_on_c, 0, 74, 0
2, 121329, Note_on_c, 0, 86, 0
2, 121360, Note_on_c, 0, 57, 0
2, 121394, Note_on_c, 0, 63, 0
2, 121398, Note_on_c, 0, 62, 0
2, 121481, Note_on_c, 0, 62, 35
2, 121492, Note_on_c, 0, 63, 52
2, 121494, Note_on_c, 0, 67, 60
2, 121497, Note_on_c, 0, 72, 64
2, 121503, Note_on_c, 0, 84, 64
2, 121512, Note_on_c, 0, 57, 55
2, 121714, Note_on_c, 0, 67, 0
2, 121761, Note_on_c, 0, 72, 0
2, 121790, Note_on_c, 0, 84, 0
2, 121794, Note_on_c, 0, 57, 0
2, 121797, Note_on_c, 0, 63, 0
2, 121806, Note_on_c, 0, 62, 0
2, 122032, Note_on_c, 0, 62, 70
2, 122040, Note_on_c, 0, 86, 76
2, 122043, Note_on_c, 0, 63, 69
2, 122049, Note_on_c, 0, 67, 78
2, 122051, Note_on_c, 0, 74, 79
2, 122065, Note_on_c, 0, 57, 57
2, 122345, Control_c, 0, 64, 127
2, 122407, Note_on_c, 0, 67, 0
2, 122428, Note_on_c, 0, 62, 0
2, 122454, Note_on_c, 0, 63, 0
2, 122456, Note_on_c, 0, 74, 0
2, 122473, Note_on_c, 0, 57, 0
2, 122484, Note_on_c, 0, 86, 0
2, 122833, Control_c, 0, 64, 0
2, 122852, Note_on_c, 0, 64, 72
2, 122855, Note_on_c, 0, 88, 80
2, 122862, Note_on_c, 0, 60, 58
2, 122868, Note_on_c, 0, 76, 74
2, 122877, Note_on_c, 0, 55, 61
2, 123777, Control_c, 0, 64, 127
2, 123918, Note_on_c, 0, 60, 0
2, 123942, Note_on_c, 0, 64, 0
2, 123944, Note_on_c, 0, 76, 0
2, 123996, Note_on_c, 0, 55, 0
2, 124055, Note_on_c, 0, 88, 0
2, 125663, Control_c, 0, 64, 0
2, 125748, Note_on_c, 0, 64, 82
2, 125755, Note_on_c, 0, 60, 68
2, 125759, Note_on_c, 0, 91, 81
2, 125764, Note_on_c, 0, 79, 82
2, 125773, Note_on_c, 0, 84, 79
2, 125781, Note_on_c, 0, 55, 60
2, 125816, Note_on_c, 0, 60, 0
2, 125826, Note_on_c, 0, 79, 0
2, 125833, Note_on_c, 0, 84, 0
2, 125842, Note_on_c, 0, 55, 0
2, 125849, Note_on_c, 0, 64, 0
2, 125902, Note_on_c, 0, 91, 0
2, 126740, Note_on_c, 0, 63, 88
2, 126750, Control_c, 0, 64, 127
2, 126751, Note_on_c, 0, 54, 83
2, 126753, Note_on_c, 0, 60, 68
2, 126755, Note_on_c, 0, 87, 86
2, 126759, Note_on_c, 0, 90, 75
2, 126760, Note_on_c, 0, 93, 87
2, 126762, Note_on_c, 0, 81, 90
2, 126797, Note_on_c, 0, 91, 53
2, 126857, Note_on_c, 0, 91, 0
2, 127138, Note_on_c, 0, 93, 0
2, 127200, Note_on_c, 0, 81, 0
2, 127218, Note_on_c, 0, 54, 0
2, 127234, Note_on_c, 0, 87, 0
2, 127240, Note_on_c, 0, 63, 0
2, 127297, Note_on_c, 0, 90, 0
2, 127308, Note_on_c, 0, 60, 0
2, 127413, Note_on_c, 0, 63, 65
2, 127417, Note_on_c, 0, 95, 74
2, 127422, Note_on_c, 0, 87, 52
2, 127424, Note_on_c, 0, 90, 56
2, 127427, Note_on_c, 0, 54, 67
2, 127435, Note_on_c, 0, 83, 58
2, 127436, Note_on_c, 0, 60, 62
2, 127603, Control_c, 0, 64, 0
2, 127605, Note_on_c, 0, 95, 0
2, 127623, Note_on_c, 0, 87, 0
2, 127627, Note_on_c, 0, 63, 0
2, 127672, Note_on_c, 0, 54, 0
2, 127704, Note_on_c, 0, 90, 0
2, 127706, Note_on_c, 0, 83, 0
2, 127755, Note_on_c, 0, 54, 25
2, 127756, Note_on_c, 0, 63, 43
2, 127793, Note_on_c, 0, 93, 44
2, 127849, Note_on_c, 0, 83, 24
2, 127927, Control_c, 0, 64, 127
2, 128302, Note_on_c, 0, 83, 0
2, 128323, Note_on_c, 0, 60, 0
2, 128332, Note_on_c, 0, 93, 0
2, 128337, Note_on_c, 0, 63, 0
2, 128382, Note_on_c, 0, 54, 0
2, 128489, Control_c, 0, 64, 0
2, 128688, Control_c, 0, 64, 127
2, 129297, Note_on_c, 0, 63, 79
2, 129312, Note_on_c, 0, 80, 71
2, 129313, Note_on_c, 0, 92, 77
2, 129315, Note_on_c, 0, 54, 73
2, 129317, Note_on_c, 0, 60, 54
2, 129328, Note_on_c, 0, 87, 74
2, 129359, Control_c, 0, 64, 0
2, 129411, Note_on_c, 0, 93, 26
2, 129467, Note_on_c, 0, 80, 0
2, 129507, Note_on_c, 0, 93, 0
2, 129552, Note_on_c, 0, 92, 0
2, 129554, Note_on_c, 0, 63, 0
2, 129586, Note_on_c, 0, 87, 0
2, 129593, Note_on_c, 0, 54, 0
2, 129626, Note_on_c, 0, 60, 0
2, 129704, Control_c, 0, 64, 127
2, 129706, Note_on_c, 0, 93, 58
2, 129707, Note_on_c, 0, 54, 59
2, 129713, Note_on_c, 0, 63, 50
2, 129731, Note_on_c, 0, 60, 40
2, 129745, Note_on_c, 0, 81, 66
2, 129760, Note_on_c, 0, 87, 46
2, 129941, Note_on_c, 0, 93, 0
2, 129942, Note_on_c, 0, 63, 0
2, 129966, Note_on_c, 0, 81, 0
2, 130015, Note_on_c, 0, 87, 0
2, 130073, Note_on_c, 0, 60, 0
2, 130089, Note_on_c, 0, 54, 0
2, 130216, Note_on_c, 0, 54, 31
2, 130241, Note_on_c, 0, 63, 64
2, 130250, Note_on_c, 0, 60, 38
2, 130273, Note_on_c, 0, 92, 77
2, 130293, Note_on_c, 0, 80, 70
2, 130317, Note_on_c, 0, 87, 54
2, 130378, Note_on_c, 0, 87, 0
2, 130463, Note_on_c, 0, 63, 0
2, 130478, Note_on_c, 0, 60, 0
2, 130479, Note_on_c, 0, 92, 0
2, 130481, Note_on_c, 0, 80, 0
2, 130508, Note_on_c, 0, 54, 0
2, 130592, Control_c, 0, 64, 0
2, 130637, Note_on_c, 0, 65, 61
2, 130640, Note_on_c, 0, 91, 49
2, 130657, Note_on_c, 0, 55, 47
2, 130660, Note_on_c, 0, 79, 43
2, 130669, Note_on_c, 0, 60, 38
2, 130702, Note_on_c, 0, 57, 34
2, 131083, Note_on_c, 0, 91, 0
2, 131096, Note_on_c, 0, 55, 0
2, 131098, Note_on_c, 0, 60, 0
2, 131099, Note_on_c, 0, 65, 0
2, 131112, Note_on_c, 0, 57, 0
2, 131120, Note_on_c, 0, 79, 0
2, 131515, Note_on_c, 0, 65, 67
2, 131524, Note_on_c, 0, 91, 71
2, 131533, Note_on_c, 0, 55, 49
2, 131544, Note_on_c, 0, 60, 45
2, 131546, Note_on_c, 0, 79, 64
2, 131550, Note_on_c, 0, 57, 38
2, 131582, Note_on_c, 0, 84, 46
2, 131660, Control_c, 0, 64, 127
2, 131662, Note_on_c, 0, 84, 0
2, 131819, Note_on_c, 0, 91, 0
2, 131872, Note_on_c, 0, 79, 0
2, 131890, Note_on_c, 0, 90, 31
2, 131933, Note_on_c, 0, 55, 0
2, 131949, Note_on_c, 0, 60, 0
2, 131951, Note_on_c, 0, 90, 0
2, 131956, Note_on_c, 0, 57, 0
2, 131973, Note_on_c, 0, 65, 0
2, 132197, Note_on_c, 0, 90, 59
2, 132210, Note_on_c, 0, 78, 59
2, 132228, Note_on_c, 0, 55, 67
2, 132237, Note_on_c, 0, 65, 69
2, 132248, Note_on_c, 0, 60, 44
2, 132249, Note_on_c, 0, 57, 50
2, 132331, Control_c, 0, 64, 0
2, 132374, Note_on_c, 0, 65, 0
2, 132385, Note_on_c, 0, 55, 0
2, 132389, Note_on_c, 0, 60, 0
2, 132421, Note_on_c, 0, 90, 0
2, 132423, Note_on_c, 0, 78, 0
2, 132457, Note_on_c, 0, 57, 0
2, 132567, Note_on_c, 0, 55, 55
2, 132573, Note_on_c, 0, 65, 51
2, 132573, Note_on_c, 0, 57, 31
2, 132584, Note_on_c, 0, 91, 37
2, 132595, Note_on_c, 0, 79, 47
2, 132596, Note_on_c, 0, 60, 36
2, 132622, Control_c, 0, 64, 127
2, 132627, Note_on_c, 0, 84, 33
2, 132676, Note_on_c, 0, 91, 0
2, 132694, Note_on_c, 0, 84, 0
2, 132743, Note_on_c, 0, 79, 0
2, 132812, Note_on_c, 0, 55, 0
2, 132837, Note_on_c, 0, 65, 0
2, 132882, Note_on_c, 0, 60, 0
2, 132913, Note_on_c, 0, 57, 0
2, 133166, Control_c, 0, 64, 0
2, 133184, Note_on_c, 0, 87, 58
2, 133193, Note_on_c, 0, 75, 72
2, 133211, Note_on_c, 0, 60, 59
2, 133219, Note_on_c, 0, 65, 68
2, 133224, Note_on_c, 0, 55, 66
2, 133228, Note_on_c, 0, 57, 60
2, 133255, Note_on_c, 0, 81, 53
2, 133312, Note_on_c, 0, 84, 20
2, 133342, Note_on_c, 0, 88, 24
2, 133450, Note_on_c, 0, 76, 53
2, 133454, Note_on_c, 0, 75, 0
2, 133457, Note_on_c, 0, 87, 0
2, 133636, Control_c, 0, 64, 127
2, 134083, Note_on_c, 0, 84, 0
2, 134119, Note_on_c, 0, 60, 0
2, 134148, Note_on_c, 0, 76, 0
2, 134170, Note_on_c, 0, 65, 0
2, 134171, Note_on_c, 0, 55, 0
2, 134177, Note_on_c, 0, 81, 0
2, 134206, Note_on_c, 0, 88, 0
2, 134218, Note_on_c, 0, 57, 0
2, 134379, Control_c, 0, 64, 0
2, 134466, Note_on_c, 0, 64, 49
2, 134481, Note_on_c, 0, 59, 44
2, 134484, Note_on_c, 0, 53, 54
2, 134486, Note_on_c, 0, 88, 58
2, 134502, Note_on_c, 0, 76, 61
2, 134522, Note_on_c, 0, 81, 48
2, 134564, Note_on_c, 0, 84, 31
2, 134707, Control_c, 0, 64, 127
2, 134875, Note_on_c, 0, 88, 0
2, 134903, Note_on_c, 0, 84, 0
2, 134938, Note_on_c, 0, 53, 0
2, 134976, Note_on_c, 0, 76, 0
2, 134981, Note_on_c, 0, 81, 0
2, 134999, Note_on_c, 0, 59, 0
2, 135005, Note_on_c, 0, 64, 0
2, 135140, Control_c, 0, 64, 0
2, 135354, Note_on_c, 0, 87, 60
2, 135370, Note_on_c, 0, 75, 57
2, 135388, Note_on_c, 0, 64, 51
2, 135405, Note_on_c, 0, 59, 45
2, 135421, Note_on_c, 0, 53, 53
2, 135430, Note_on_c, 0, 81, 52
2, 135450, Control_c, 0, 64, 127
2, 135750, Note_on_c, 0, 81, 0
2, 135770, Note_on_c, 0, 53, 0
2, 135811, Note_on_c, 0, 64, 0
2, 135857, Note_on_c, 0, 75, 0
2, 135864, Note_on_c, 0, 59, 0
2, 135867, Note_on_c, 0, 87, 0
2, 136048, Control_c, 0, 64, 0
2, 136052, Note_on_c, 0, 86, 57
2, 136066, Note_on_c, 0, 64, 48
2, 136068, Note_on_c, 0, 81, 66
2, 136070, Note_on_c, 0, 59, 49
2, 136081, Note_on_c, 0, 53, 62
2, 136086, Note_on_c, 0, 74, 48
2, 136356, Control_c, 0, 64, 127
2, 136574, Note_on_c, 0, 86, 0
2, 136659, Note_on_c, 0, 81, 0
2, 136795, Note_on_c, 0, 74, 0
2, 136845, Note_on_c, 0, 59, 0
2, 136925, Note_on_c, 0, 53, 0
2, 136977, Note_on_c, 0, 64, 0
2, 137299, Control_c, 0, 64, 0
2, 137328, Note_on_c, 0, 79, 88
2, 137344, Note_on_c, 0, 69, 94
2, 137346, Note_on_c, 0, 72, 90
2, 137352, Note_on_c, 0, 67, 87
2, 137366, Note_on_c, 0, 76, 71
2, 137426, Note_on_c, 0, 76, 0
2, 137590, Note_on_c, 0, 72, 0
2, 137617, Note_on_c, 0, 79, 0
2, 137648, Note_on_c, 0, 69, 0
2, 137677, Note_on_c, 0, 67, 0
2, 137956, Note_on_c, 0, 79, 80
2, 137970, Note_on_c, 0, 72, 87
2, 137973, Note_on_c, 0, 69, 88
2, 137985, Note_on_c, 0, 76, 73
2, 137994, Note_on_c, 0, 67, 84
2, 138277, Control_c, 0, 64, 127
2, 138370, Note_on_c, 0, 67, 0
2, 138411, Note_on_c, 0, 76, 0
2, 138415, Note_on_c, 0, 79, 0
2, 138482, Note_on_c, 0, 72, 0
2, 138540, Note_on_c, 0, 69, 0
2, 138749, Note_on_c, 0, 76, 51
2, 138753, Note_on_c, 0, 72, 42
2, 138767, Note_on_c, 0, 64, 62
2, 138776, Note_on_c, 0, 69, 50
2, 138783, Note_on_c, 0, 65, 36
2, 138838, Control_c, 0, 64, 0
2, 138943, Note_on_c, 0, 65, 0
2, 138961, Note_on_c, 0, 69, 0
2, 139004, Note_on_c, 0, 72, 0
2, 139008, Note_on_c, 0, 76, 0
2, 139009, Note_on_c, 0, 64, 0
2, 139116, Note_on_c, 0, 60, 36
2, 139295, Note_on_c, 0, 76, 71
2, 139301, Note_on_c, 0, 60, 0
2, 139310, Control_c, 0, 64, 127
2, 139326, Note_on_c, 0, 64, 54
2, 139328, Note_on_c, 0, 69, 74
2, 139339, Note_on_c, 0, 72, 57
2, 139348, Note_on_c, 0, 65, 66
2, 139568, Note_on_c, 0, 64, 0
2, 139639, Note_on_c, 0, 76, 0
2, 139652, Note_on_c, 0, 72, 0
2, 139659, Note_on_c, 0, 69, 0
2, 139746, Note_on_c, 0, 65, 0
2, 139957, Note_on_c, 0, 60, 53
2, 139961, Note_on_c, 0, 72, 46
2, 139964, Control_c, 0, 64, 0
2, 139995, Note_on_c, 0, 62, 46
2, 140009, Note_on_c, 0, 65, 44
2, 140161, Note_on_c, 0, 62, 0
2, 140169, Note_on_c, 0, 60, 0
2, 140192, Note_on_c, 0, 65, 0
2, 140221, Note_on_c, 0, 72, 0
2, 140543, Control_c, 0, 64, 127
2, 140577, Note_on_c, 0, 72, 65
2, 140599, Note_on_c, 0, 65, 75
2, 140613, Note_on_c, 0, 69, 60
2, 140617, Note_on_c, 0, 62, 73
2, 140619, Note_on_c, 0, 60, 61
2, 140658, Note_on_c, 0, 71, 44
2, 140825, Note_on_c, 0, 69, 0
2, 140897, Note_on_c, 0, 60, 0
2, 140902, Note_on_c, 0, 65, 0
2, 140908, Note_on_c, 0, 72, 0
2, 140923, Note_on_c, 0, 71, 0
2, 141007, Note_on_c, 0, 62, 0
2, 141141, Control_c, 0, 64, 0
2, 141239, Note_on_c, 0, 69, 55
2, 141244, Note_on_c, 0, 62, 66
2, 141250, Note_on_c, 0, 60, 57
2, 141255, Note_on_c, 0, 65, 49
2, 141266, Note_on_c, 0, 57, 53
2, 141492, Note_on_c, 0, 62, 0
2, 141497, Note_on_c, 0, 60, 0
2, 141510, Note_on_c, 0, 57, 0
2, 141521, Note_on_c, 0, 69, 0
2, 141528, Note_on_c, 0, 65, 0
2, 141671, Note_on_c, 0, 53, 32
2, 141789, Note_on_c, 0, 69, 69
2, 141803, Note_on_c, 0, 62, 71
2, 141805, Note_on_c, 0, 60, 63
2, 141807, Note_on_c, 0, 65, 71
2, 141852, Note_on_c, 0, 57, 62
2, 141884, Note_on_c, 0, 53, 0
2, 142083, Control_c, 0, 64, 127
2, 142085, Note_on_c, 0, 57, 0
2, 142114, Note_on_c, 0, 65, 0
2, 142118, Note_on_c, 0, 69, 0
2, 142139, Note_on_c, 0, 62, 0
2, 142194, Note_on_c, 0, 60, 0
2, 142374, Control_c, 0, 64, 0
2, 142420, Note_on_c, 0, 67, 41
2, 142436, Note_on_c, 0, 60, 37
2, 142443, Note_on_c, 0, 53, 50
2, 142456, Note_on_c, 0, 57, 47
2, 142459, Note_on_c, 0, 64, 35
2, 142617, Note_on_c, 0, 60, 0
2, 142653, Note_on_c, 0, 57, 0
2, 142665, Note_on_c, 0, 53, 0
2, 142667, Note_on_c, 0, 64, 0
2, 142684, Note_on_c, 0, 67, 0
2, 142902, Note_on_c, 0, 50, 24
2, 142978, Note_on_c, 0, 67, 55
2, 142994, Note_on_c, 0, 60, 54
2, 142998, Note_on_c, 0, 53, 55
2, 143000, Note_on_c, 0, 57, 44
2, 143002, Note_on_c, 0, 64, 53
2, 143009, Note_on_c, 0, 50, 0
2, 143172, Control_c, 0, 64, 127
2, 143208, Control_c, 0, 64, 0
2, 143352, Control_c, 0, 64, 127
2, 143674, Note_on_c, 0, 57, 0
2, 143680, Control_c, 0, 64, 0
2, 143682, Note_on_c, 0, 64, 0
2, 143714, Note_on_c, 0, 60, 0
2, 143763, Note_on_c, 0, 53, 0
2, 143774, Note_on_c, 0, 67, 0
2, 143842, Control_c, 0, 64, 127
2, 144468, Note_on_c, 0, 50, 36
2, 144528, Note_on_c, 0, 65, 59
2, 144537, Note_on_c, 0, 56, 56
2, 144549, Note_on_c, 0, 62, 53
2, 144553, Note_on_c, 0, 59, 54
2, 144567, Note_on_c, 0, 52, 45
2, 144586, Control_c, 0, 64, 0
2, 144656, Note_on_c, 0, 50, 0
2, 144725, Note_on_c, 0, 52, 0
2, 144875, Control_c, 0, 64, 127
2, 145173, Note_on_c, 0, 59, 0
2, 145489, Note_on_c, 0, 62, 0
2, 145535, Note_on_c, 0, 56, 0
2, 145573, Note_on_c, 0, 65, 0
2, 145728, Control_c, 0, 64, 0
2, 145884, Note_on_c, 0, 28, 32
2, 145896, Note_on_c, 0, 64, 29
2, 145898, Note_on_c, 0, 40, 26
2, 146070, Note_on_c, 0, 64, 0
2, 146289, Control_c, 0, 64, 127
2, 146404, Note_on_c, 0, 28, 0
2, 146417, Control_c, 0, 64, 0
2, 146516, Note_on_c, 0, 67, 52
2, 146518, Note_on_c, 0, 40, 0
2, 146674, Note_on_c, 0, 67, 0
2, 146873, Note_on_c, 0, 72, 49
2, 147057, Note_on_c, 0, 72, 0
2, 147147, Note_on_c, 0, 76, 64
2, 147209, Note_on_c, 0, 76, 0
2, 147453, Note_on_c, 0, 79, 46
2, 147549, Note_on_c, 0, 79, 0
2, 147769, Note_on_c, 0, 84, 55
2, 147836, Note_on_c, 0, 84, 0
2, 148071, Note_on_c, 0, 88, 70
2, 148203, Note_on_c, 0, 88, 0
2, 148353, Note_on_c, 0, 89, 83
2, 148540, Note_on_c, 0, 89, 0
2, 148670, Note_on_c, 0, 67, 68
2, 148673, Note_on_c, 0, 56, 70
2, 148677, Note_on_c, 0, 91, 91
2, 148681, Note_on_c, 0, 62, 67
2, 149201, Note_on_c, 0, 67, 0
2, 149223, Note_on_c, 0, 62, 0
2, 149243, Note_on_c, 0, 91, 0
2, 149333, Note_on_c, 0, 56, 0
2, 149340, Note_on_c, 0, 89, 83
2, 149353, Note_on_c, 0, 65, 74
2, 149362, Note_on_c, 0, 55, 75
2, 149389, Note_on_c, 0, 61, 69
2, 149639, Note_on_c, 0, 89, 0
2, 149928, Note_on_c, 0, 87, 60
2, 149951, Note_on_c, 0, 88, 76
2, 150107, Note_on_c, 0, 87, 0
2, 150310, Note_on_c, 0, 88, 0
2, 150355, Note_on_c, 0, 55, 0
2, 150357, Note_on_c, 0, 61, 0
2, 150360, Note_on_c, 0, 65, 0
2, 150668, Note_on_c, 0, 85, 69
2, 150686, Note_on_c, 0, 61, 55
2, 150698, Note_on_c, 0, 65, 47
2, 150706, Note_on_c, 0, 55, 43
2, 151118, Note_on_c, 0, 65, 0
2, 151123, Note_on_c, 0, 55, 0
2, 151192, Note_on_c, 0, 61, 0
2, 151223, Note_on_c, 0, 85, 0
2, 151342, Note_on_c, 0, 84, 64
2, 151361, Note_on_c, 0, 61, 53
2, 151369, Note_on_c, 0, 55, 44
2, 151371, Note_on_c, 0, 65, 45
2, 151727, Control_c, 0, 64, 127
2, 151895, Note_on_c, 0, 55, 0
2, 151968, Note_on_c, 0, 61, 0
2, 151989, Note_on_c, 0, 65, 0
2, 152137, Note_on_c, 0, 84, 0
2, 152304, Note_on_c, 0, 82, 68
2, 152333, Note_on_c, 0, 61, 76
2, 152347, Note_on_c, 0, 65, 70
2, 152353, Note_on_c, 0, 55, 71
2, 152523, Control_c, 0, 64, 0
2, 152573, Note_on_c, 0, 82, 0
2, 152707, Note_on_c, 0, 81, 60
2, 152801, Note_on_c, 0, 65, 0
2, 152886, Note_on_c, 0, 61, 0
2, 153052, Note_on_c, 0, 81, 0
2, 153202, Note_on_c, 0, 61, 61
2, 153230, Control_c, 0, 64, 127
2, 153280, Note_on_c, 0, 79, 70
2, 153293, Note_on_c, 0, 55, 0
2, 153439, Note_on_c, 0, 79, 0
2, 153464, Note_on_c, 0, 61, 0
2, 153501, Control_c, 0, 64, 0
2, 153586, Note_on_c, 0, 60, 36
2, 153595, Note_on_c, 0, 77, 62
2, 153600, Note_on_c, 0, 64, 42
2, 153602, Note_on_c, 0, 57, 43
2, 153616, Note_on_c, 0, 53, 36
2, 154162, Note_on_c, 0, 64, 0
2, 154164, Note_on_c, 0, 77, 0
2, 154228, Note_on_c, 0, 60, 0
2, 154251, Note_on_c, 0, 79, 63
2, 154262, Note_on_c, 0, 57, 0
2, 154295, Note_on_c, 0, 53, 0
2, 154379, Note_on_c, 0, 79, 0
2, 154555, Note_on_c, 0, 64, 54
2, 154560, Note_on_c, 0, 53, 50
2, 154562, Note_on_c, 0, 60, 43
2, 154564, Note_on_c, 0, 75, 83
2, 154573, Note_on_c, 0, 57, 55
2, 154774, Note_on_c, 0, 76, 52
2, 154882, Note_on_c, 0, 75, 0
2, 155097, Control_c, 0, 64, 127
2, 155206, Note_on_c, 0, 60, 0
2, 155242, Control_c, 0, 64, 0
2, 155245, Note_on_c, 0, 64, 0
2, 155280, Note_on_c, 0, 57, 0
2, 155305, Note_on_c, 0, 76, 0
2, 155318, Note_on_c, 0, 53, 0
2, 155527, Note_on_c, 0, 64, 32
2, 155531, Note_on_c, 0, 53, 39
2, 155538, Note_on_c, 0, 60, 31
2, 155540, Note_on_c, 0, 72, 40
2, 155547, Note_on_c, 0, 57, 29
2, 155641, Control_c, 0, 64, 127
2, 155961, Note_on_c, 0, 64, 0
2, 156008, Note_on_c, 0, 60, 0
2, 156023, Note_on_c, 0, 53, 0
2, 156036, Note_on_c, 0, 57, 0
2, 156215, Note_on_c, 0, 69, 62
2, 156216, Note_on_c, 0, 64, 48
2, 156220, Note_on_c, 0, 60, 36
2, 156233, Note_on_c, 0, 57, 45
2, 156238, Note_on_c, 0, 53, 49
2, 156256, Control_c, 0, 64, 0
2, 156276, Note_on_c, 0, 69, 0
2, 156290, Note_on_c, 0, 72, 0
2, 156364, Note_on_c, 0, 64, 0
2, 156395, Note_on_c, 0, 60, 0
2, 156437, Note_on_c, 0, 53, 0
2, 156480, Note_on_c, 0, 57, 0
2, 156620, Control_c, 0, 64, 127
2, 157110, Control_c, 0, 64, 0
2, 157142, Note_on_c, 0, 72, 83
2, 157169, Note_on_c, 0, 64, 62
2, 157173, Note_on_c, 0, 59, 60
2, 157205, Note_on_c, 0, 53, 44
2, 157268, Note_on_c, 0, 72, 0
2, 157842, Note_on_c, 0, 81, 85
2, 157854, Note_on_c, 0, 77, 78
2, 157977, Note_on_c, 0, 77, 0
2, 157999, Note_on_c, 0, 81, 0
2, 158146, Note_on_c, 0, 75, 85
2, 158153, Note_on_c, 0, 79, 74
2, 158272, Note_on_c, 0, 64, 0
2, 158288, Note_on_c, 0, 79, 0
2, 158308, Note_on_c, 0, 75, 0
2, 158445, Note_on_c, 0, 79, 68
2, 158466, Note_on_c, 0, 76, 83
2, 158520, Note_on_c, 0, 77, 44
2, 158585, Note_on_c, 0, 77, 0
2, 158644, Note_on_c, 0, 59, 0
2, 158657, Note_on_c, 0, 79, 0
2, 158659, Note_on_c, 0, 76, 0
2, 158737, Note_on_c, 0, 72, 62
2, 158793, Note_on_c, 0, 53, 0
2, 158914, Note_on_c, 0, 72, 0
2, 159033, Note_on_c, 0, 67, 48
2, 159169, Note_on_c, 0, 67, 0
2, 159337, Note_on_c, 0, 65, 42
2, 159529, Note_on_c, 0, 65, 0
2, 159660, Note_on_c, 0, 60, 31
2, 159766, Note_on_c, 0, 60, 0
2, 159943, Note_on_c, 0, 69, 58
2, 159973, Note_on_c, 0, 65, 64
2, 160029, Note_on_c, 0, 50, 46
2, 160048, Note_on_c, 0, 49, 38
2, 160169, Note_on_c, 0, 69, 0
2, 160192, Note_on_c, 0, 49, 0
2, 160221, Note_on_c, 0, 65, 0
2, 160346, Note_on_c, 0, 60, 25
2, 160447, Note_on_c, 0, 50, 0
2, 160539, Note_on_c, 0, 60, 0
2, 160577, Note_on_c, 0, 63, 52
2, 160801, Note_on_c, 0, 63, 0
2, 160892, Note_on_c, 0, 67, 54
2, 160912, Note_on_c, 0, 64, 62
2, 160970, Control_c, 0, 64, 127
2, 160977, Note_on_c, 0, 43, 17
2, 161065, Note_on_c, 0, 64, 0
2, 161076, Note_on_c, 0, 67, 0
2, 161109, Note_on_c, 0, 63, 3
2, 161134, Note_on_c, 0, 43, 0
2, 161150, Control_c, 0, 64, 0
2, 161170, Note_on_c, 0, 63, 0
2, 161277, Note_on_c, 0, 55, 60
2, 162275, Control_c, 0, 64, 127
2, 162846, Note_on_c, 0, 43, 29
2, 162982, Note_on_c, 0, 55, 0
2, 163052, Note_on_c, 0, 43, 0
2, 163108, Control_c, 0, 64, 0
2, 163219, Note_on_c, 0, 55, 49
2, 163224, Note_on_c, 0, 40, 45
2, 164251, Control_c, 0, 64, 127
2, 164287, Control_c, 0, 64, 0
2, 164757, Control_c, 0, 64, 127
2, 164958, Control_c, 0, 64, 0
2, 164981, Note_on_c, 0, 55, 0
2, 164987, Note_on_c, 0, 40, 0
2, 165072, Note_on_c, 0, 41, 36
2, 165160, Note_on_c, 0, 41, 0
2, 165173, Note_on_c, 0, 56, 51
2, 165298, Note_on_c, 0, 56, 0
2, 165334, Note_on_c, 0, 57, 41
2, 165797, Note_on_c, 0, 57, 0
2, 165869, Note_on_c, 0, 60, 48
2, 166023, Note_on_c, 0, 60, 0
2, 166160, Note_on_c, 0, 62, 95
2, 166620, Note_on_c, 0, 62, 0
2, 166831, Note_on_c, 0, 57, 49
2, 166894, Note_on_c, 0, 57, 0
2, 167130, Note_on_c, 0, 62, 101
2, 167142, Note_on_c, 0, 67, 81
2, 167339, Note_on_c, 0, 62, 0
2, 167384, Note_on_c, 0, 63, 50
2, 167536, Note_on_c, 0, 67, 0
2, 167596, Note_on_c, 0, 62, 45
2, 167616, Note_on_c, 0, 63, 0
2, 167762, Note_on_c, 0, 62, 0
2, 167788, Note_on_c, 0, 60, 49
2, 167932, Note_on_c, 0, 60, 0
2, 168033, Note_on_c, 0, 57, 47
2, 168641, Note_on_c, 0, 57, 0
2, 168672, Note_on_c, 0, 62, 80
2, 169207, Note_on_c, 0, 60, 32
2, 169266, Note_on_c, 0, 62, 0
2, 169854, Note_on_c, 0, 60, 0
2, 169972, Note_on_c, 0, 55, 40
2, 170516, Note_on_c, 0, 55, 0
2, 170662, Note_on_c, 0, 55, 66
2, 170793, Note_on_c, 0, 55, 0
2, 171827, Control_c, 0, 64, 127
2, 171847, Control_c, 0, 64, 0
2, 172436, Note_on_c, 0, 62, 82
2, 172438, Note_on_c, 0, 51, 75
2, 172450, Note_on_c, 0, 57, 60
2, 172492, Note_on_c, 0, 67, 83
2, 172515, Note_on_c, 0, 57, 0
2, 172552, Note_on_c, 0, 62, 0
2, 172575, Note_on_c, 0, 51, 0
2, 172626, Note_on_c, 0, 67, 0
2, 173072, Note_on_c, 0, 68, 80
2, 173226, Note_on_c, 0, 68, 0
2, 173250, Note_on_c, 0, 69, 59
2, 173387, Note_on_c, 0, 69, 0
2, 173741, Note_on_c, 0, 51, 70
2, 173747, Note_on_c, 0, 62, 74
2, 173748, Note_on_c, 0, 57, 57
2, 173766, Note_on_c, 0, 72, 101
2, 174729, Control_c, 0, 64, 127
2, 174947, Note_on_c, 0, 51, 0
2, 174978, Note_on_c, 0, 57, 0
2, 175050, Note_on_c, 0, 62, 0
2, 175408, Note_on_c, 0, 57, 38
2, 175524, Control_c, 0, 64, 0
2, 175557, Note_on_c, 0, 57, 0
2, 175614, Note_on_c, 0, 72, 0
2, 175743, Control_c, 0, 64, 127
2, 176367, Note_on_c, 0, 74, 72
2, 176459, Note_on_c, 0, 74, 0
2, 176612, Control_c, 0, 64, 0
2, 176900, Note_on_c, 0, 64, 75
2, 176909, Note_on_c, 0, 57, 61
2, 176914, Note_on_c, 0, 75, 80
2, 176923, Note_on_c, 0, 60, 46
2, 176925, Note_on_c, 0, 55, 61
2, 176940, Note_on_c, 0, 87, 56
2, 177280, Note_on_c, 0, 55, 0
2, 177298, Note_on_c, 0, 87, 0
2, 177319, Note_on_c, 0, 64, 0
2, 177331, Note_on_c, 0, 60, 0
2, 177332, Note_on_c, 0, 75, 0
2, 177354, Note_on_c, 0, 57, 0
2, 177444, Note_on_c, 0, 76, 70
2, 177449, Note_on_c, 0, 55, 62
2, 177453, Note_on_c, 0, 64, 65
2, 177455, Note_on_c, 0, 88, 66
2, 177459, Note_on_c, 0, 60, 57
2, 177467, Note_on_c, 0, 57, 55
2, 177675, Note_on_c, 0, 88, 0
2, 177694, Note_on_c, 0, 55, 0
2, 177697, Note_on_c, 0, 76, 0
2, 177710, Note_on_c, 0, 60, 0
2, 177732, Note_on_c, 0, 64, 0
2, 177750, Note_on_c, 0, 57, 0
2, 177910, Note_on_c, 0, 64, 54
2, 177923, Note_on_c, 0, 57, 48
2, 177932, Note_on_c, 0, 88, 54
2, 177938, Note_on_c, 0, 60, 34
2, 177941, Note_on_c, 0, 76, 54
2, 177943, Note_on_c, 0, 55, 54
2, 178017, Note_on_c, 0, 55, 0
2, 178095, Note_on_c, 0, 76, 0
2, 178104, Note_on_c, 0, 88, 0
2, 178111, Note_on_c, 0, 60, 0
2, 178117, Control_c, 0, 64, 127
2, 178133, Note_on_c, 0, 64, 0
2, 178136, Note_on_c, 0, 57, 0
2, 178245, Control_c, 0, 64, 0
2, 178397, Note_on_c, 0, 88, 66
2, 178408, Note_on_c, 0, 64, 50
2, 178411, Note_on_c, 0, 76, 65
2, 178415, Note_on_c, 0, 55, 48
2, 178419, Note_on_c, 0, 57, 48
2, 178420, Note_on_c, 0, 60, 53
2, 178516, Control_c, 0, 64, 127
2, 178523, Note_on_c, 0, 55, 0
2, 178589, Control_c, 0, 64, 0
2, 178590, Note_on_c, 0, 64, 0
2, 178594, Note_on_c, 0, 88, 0
2, 178610, Note_on_c, 0, 76, 0
2, 178614, Note_on_c, 0, 60, 0
2, 178636, Note_on_c, 0, 57, 0
2, 178806, Control_c, 0, 64, 127
2, 178829, Note_on_c, 0, 57, 43
2, 178831, Note_on_c, 0, 64, 43
2, 178845, Note_on_c, 0, 60, 29
2, 178865, Note_on_c, 0, 88, 55
2, 178889, Note_on_c, 0, 76, 38
2, 178891, Note_on_c, 0, 55, 29
2, 178950, Note_on_c, 0, 55, 0
2, 178952, Note_on_c, 0, 60, 0
2, 178972, Note_on_c, 0, 76, 0
2, 178985, Note_on_c, 0, 64, 0
2, 178999, Note_on_c, 0, 57, 0
2, 179044, Note_on_c, 0, 88, 0
2, 179404, Control_c, 0, 64, 0
2, 179411, Note_on_c, 0, 91, 71
2, 179415, Note_on_c, 0, 60, 55
2, 179417, Note_on_c, 0, 64, 62
2, 179420, Note_on_c, 0, 79, 64
2, 179473, Note_on_c, 0, 91, 0
2, 179482, Note_on_c, 0, 79, 0
2, 179494, Note_on_c, 0, 64, 0
2, 179547, Note_on_c, 0, 60, 0
2, 179749, Control_c, 0, 64, 127
2, 180219, Control_c, 0, 64, 0
2, 180274, Note_on_c, 0, 62, 84
2, 180288, Note_on_c, 0, 63, 73
2, 180290, Note_on_c, 0, 93, 89
2, 180294, Note_on_c, 0, 67, 74
2, 180295, Note_on_c, 0, 87, 85
2, 180297, Note_on_c, 0, 57, 73
2, 180299, Note_on_c, 0, 81, 96
2, 180303, Note_on_c, 0, 89, 80
2, 180332, Note_on_c, 0, 91, 55
2, 180391, Note_on_c, 0, 91, 0
2, 180559, Control_c, 0, 64, 127
2, 181246, Note_on_c, 0, 67, 0
2, 181248, Note_on_c, 0, 93, 0
2, 181263, Note_on_c, 0, 57, 0
2, 181284, Note_on_c, 0, 89, 0
2, 181286, Note_on_c, 0, 81, 0
2, 181297, Note_on_c, 0, 62, 0
2, 181299, Note_on_c, 0, 63, 0
2, 181358, Note_on_c, 0, 87, 0
2, 181519, Control_c, 0, 64, 0
2, 181541, Note_on_c, 0, 91, 71
2, 181547, Note_on_c, 0, 62, 68
2, 181555, Note_on_c, 0, 63, 65
2, 181563, Note_on_c, 0, 67, 70
2, 181564, Note_on_c, 0, 79, 63
2, 181568, Note_on_c, 0, 86, 68
2, 181570, Note_on_c, 0, 57, 66
2, 182391, Control_c, 0, 64, 127
2, 182678, Note_on_c, 0, 67, 0
2, 182709, Note_on_c, 0, 63, 0
2, 182725, Note_on_c, 0, 62, 0
2, 182738, Note_on_c, 0, 91, 0
2, 182740, Note_on_c, 0, 79, 0
2, 182742, Note_on_c, 0, 57, 0
2, 182787, Note_on_c, 0, 86, 0
2, 183060, Note_on_c, 0, 93, 79
2, 183065, Note_on_c, 0, 81, 78
2, 183076, Note_on_c, 0, 86, 79
2, 183091, Note_on_c, 0, 63, 74
2, 183096, Note_on_c, 0, 67, 76
2, 183103, Note_on_c, 0, 57, 61
2, 183105, Note_on_c, 0, 62, 68
2, 183134, Control_c, 0, 64, 0
2, 183174, Note_on_c, 0, 62, 0
2, 183199, Note_on_c, 0, 81, 0
2, 183223, Note_on_c, 0, 67, 0
2, 183255, Note_on_c, 0, 86, 0
2, 183286, Note_on_c, 0, 63, 0
2, 183297, Note_on_c, 0, 93, 0
2, 183345, Note_on_c, 0, 57, 0
2, 183407, Control_c, 0, 64, 127
2, 184184, Control_c, 0, 64, 0
2, 184318, Note_on_c, 0, 62, 48
2, 184323, Note_on_c, 0, 96, 55
2, 184331, Note_on_c, 0, 52, 40
2, 184334, Note_on_c, 0, 84, 55
2, 184338, Note_on_c, 0, 91, 54
2, 184343, Note_on_c, 0, 59, 33
2, 184362, Note_on_c, 0, 55, 39
2, 184714, Note_on_c, 0, 59, 0
2, 184718, Note_on_c, 0, 55, 0
2, 184720, Note_on_c, 0, 91, 0
2, 184730, Note_on_c, 0, 84, 0
2, 184741, Note_on_c, 0, 52, 0
2, 184743, Note_on_c, 0, 96, 0
2, 184747, Note_on_c, 0, 62, 0
2, 185293, Note_on_c, 0, 62, 68
2, 185294, Note_on_c, 0, 52, 65
2, 185305, Note_on_c, 0, 59, 51
2, 185307, Note_on_c, 0, 55, 52
2, 185309, Note_on_c, 0, 96, 64
2, 185318, Note_on_c, 0, 91, 66
2, 185320, Note_on_c, 0, 84, 68
2, 185423, Control_c, 0, 64, 127
2, 185616, Note_on_c, 0, 84, 0
2, 185642, Note_on_c, 0, 91, 0
2, 185645, Note_on_c, 0, 96, 0
2, 185665, Note_on_c, 0, 52, 0
2, 185669, Note_on_c, 0, 55, 0
2, 185671, Note_on_c, 0, 62, 0
2, 185678, Note_on_c, 0, 59, 0
2, 185920, Note_on_c, 0, 62, 61
2, 185935, Note_on_c, 0, 59, 57
2, 185938, Note_on_c, 0, 52, 50
2, 185940, Note_on_c, 0, 96, 61
2, 185954, Note_on_c, 0, 55, 57
2, 185956, Note_on_c, 0, 91, 65
2, 185958, Note_on_c, 0, 84, 67
2, 186083, Note_on_c, 0, 62, 0
2, 186101, Note_on_c, 0, 59, 0
2, 186108, Note_on_c, 0, 84, 0
2, 186112, Note_on_c, 0, 96, 0
2, 186119, Note_on_c, 0, 52, 0
2, 186126, Note_on_c, 0, 91, 0
2, 186128, Note_on_c, 0, 55, 0
2, 186148, Control_c, 0, 64, 0
2, 186218, Control_c, 0, 64, 127
2, 186269, Note_on_c, 0, 59, 56
2, 186271, Note_on_c, 0, 62, 74
2, 186274, Note_on_c, 0, 96, 59
2, 186280, Note_on_c, 0, 55, 64
2, 186285, Note_on_c, 0, 52, 59
2, 186289, Note_on_c, 0, 91, 57
2, 186291, Note_on_c, 0, 84, 63
2, 186562, Note_on_c, 0, 84, 0
2, 186571, Note_on_c, 0, 91, 0
2, 186573, Note_on_c, 0, 96, 0
2, 186582, Note_on_c, 0, 62, 0
2, 186594, Note_on_c, 0, 52, 0
2, 186596, Note_on_c, 0, 55, 0
2, 186620, Note_on_c, 0, 59, 0
2, 186873, Note_on_c, 0, 59, 82
2, 186881, Note_on_c, 0, 96, 80
2, 186884, Note_on_c, 0, 55, 77
2, 186886, Note_on_c, 0, 62, 81
2, 186887, Note_on_c, 0, 52, 78
2, 186889, Note_on_c, 0, 91, 83
2, 186891, Note_on_c, 0, 84, 94
2, 187041, Note_on_c, 0, 62, 0
2, 187101, Note_on_c, 0, 84, 0
2, 187106, Note_on_c, 0, 96, 0
2, 187110, Note_on_c, 0, 59, 0
2, 187112, Note_on_c, 0, 52, 0
2, 187124, Note_on_c, 0, 55, 0
2, 187131, Note_on_c, 0, 91, 0
2, 187234, Note_on_c, 0, 59, 74
2, 187236, Note_on_c, 0, 52, 71
2, 187238, Note_on_c, 0, 62, 76
2, 187242, Note_on_c, 0, 96, 66
2, 187254, Note_on_c, 0, 91, 74
2, 187258, Note_on_c, 0, 55, 78
2, 187262, Note_on_c, 0, 84, 70
2, 187462, Note_on_c, 0, 59, 0
2, 187466, Note_on_c, 0, 55, 0
2, 187479, Note_on_c, 0, 62, 0
2, 187509, Note_on_c, 0, 91, 0
2, 187526, Note_on_c, 0, 96, 0
2, 187538, Note_on_c, 0, 84, 0
2, 187545, Note_on_c, 0, 52, 0
2, 187873, Control_c, 0, 64, 0
2, 188160, Note_on_c, 0, 60, 64
2, 188173, Note_on_c, 0, 95, 77
2, 188176, Note_on_c, 0, 57, 60
2, 188178, Note_on_c, 0, 51, 68
2, 188183, Note_on_c, 0, 83, 74
2, 188193, Note_on_c, 0, 54, 49
2, 188341, Note_on_c, 0, 83, 0
2, 188361, Note_on_c, 0, 95, 0
2, 188370, Note_on_c, 0, 60, 0
2, 188384, Note_on_c, 0, 57, 0
2, 188397, Note_on_c, 0, 54, 0
2, 188446, Note_on_c, 0, 51, 0
2, 188480, Note_on_c, 0, 95, 66
2, 188487, Note_on_c, 0, 83, 52
2, 188580, Note_on_c, 0, 83, 0
2, 188603, Note_on_c, 0, 95, 0
2, 189160, Control_c, 0, 64, 127
2, 189776, Control_c, 0, 64, 0
2, 189820, Note_on_c, 0, 87, 81
2, 189822, Note_on_c, 0, 60, 80
2, 189823, Note_on_c, 0, 81, 87
2, 189827, Note_on_c, 0, 51, 80
2, 189838, Note_on_c, 0, 54, 67
2, 189840, Note_on_c, 0, 90, 52
2, 189843, Note_on_c, 0, 57, 69
2, 189845, Note_on_c, 0, 93, 73
2, 189876, Note_on_c, 0, 91, 36
2, 189890, Note_on_c, 0, 81, 0
2, 189896, Note_on_c, 0, 57, 0
2, 189897, Note_on_c, 0, 93, 0
2, 189899, Note_on_c, 0, 90, 0
2, 189928, Note_on_c, 0, 87, 0
2, 189937, Note_on_c, 0, 60, 0
2, 189948, Note_on_c, 0, 91, 0
2, 189979, Note_on_c, 0, 54, 0
2, 190042, Note_on_c, 0, 60, 67
2, 190046, Note_on_c, 0, 93, 64
2, 190053, Note_on_c, 0, 57, 38
2, 190055, Note_on_c, 0, 54, 21
2, 190062, Note_on_c, 0, 87, 51
2, 190064, Note_on_c, 0, 81, 66
2, 190102, Note_on_c, 0, 90, 30
2, 190156, Note_on_c, 0, 81, 0
2, 190165, Note_on_c, 0, 90, 0
2, 190192, Note_on_c, 0, 87, 0
2, 190194, Note_on_c, 0, 93, 0
2, 190200, Note_on_c, 0, 60, 0
2, 190212, Note_on_c, 0, 57, 0
2, 190276, Note_on_c, 0, 54, 0
2, 190281, Note_on_c, 0, 51, 0
2, 191064, Control_c, 0, 64, 127
2, 191073, Note_on_c, 0, 93, 84
2, 191078, Note_on_c, 0, 81, 88
2, 191080, Note_on_c, 0, 87, 77
2, 191087, Note_on_c, 0, 90, 64
2, 191089, Note_on_c, 0, 60, 79
2, 191096, Note_on_c, 0, 57, 70
2, 191098, Note_on_c, 0, 54, 59
2, 191100, Note_on_c, 0, 51, 74
2, 191445, Note_on_c, 0, 93, 0
2, 191451, Note_on_c, 0, 87, 0
2, 191509, Note_on_c, 0, 90, 0
2, 191521, Note_on_c, 0, 81, 0
2, 191534, Note_on_c, 0, 60, 0
2, 191570, Note_on_c, 0, 51, 0
2, 191586, Note_on_c, 0, 57, 0
2, 191664, Note_on_c, 0, 54, 0
2, 191733, Note_on_c, 0, 91, 70
2, 191734, Note_on_c, 0, 60, 57
2, 191740, Note_on_c, 0, 57, 55
2, 191752, Note_on_c, 0, 50, 58
2, 191756, Note_on_c, 0, 79, 70
2, 191760, Control_c, 0, 64, 0
2, 191764, Note_on_c, 0, 53, 66
2, 191774, Note_on_c, 0, 88, 57
2, 191780, Note_on_c, 0, 84, 69
2, 192047, Control_c, 0, 64, 127
2, 192152, Note_on_c, 0, 91, 0
2, 192208, Note_on_c, 0, 88, 0
2, 192230, Note_on_c, 0, 84, 0
2, 192264, Note_on_c, 0, 79, 0
2, 192324, Note_on_c, 0, 53, 0
2, 192335, Note_on_c, 0, 57, 0
2, 192349, Note_on_c, 0, 50, 0
2, 192472, Note_on_c, 0, 60, 0
2, 192989, Control_c, 0, 64, 0
2, 192997, Note_on_c, 0, 76, 88
2, 193013, Note_on_c, 0, 69, 88
2, 193022, Note_on_c, 0, 65, 81
2, 193027, Note_on_c, 0, 72, 67
2, 193036, Note_on_c, 0, 64, 80
2, 193044, Note_on_c, 0, 62, 79
2, 193103, Note_on_c, 0, 62, 0
2, 193895, Control_c, 0, 64, 127
2, 194139, Note_on_c, 0, 76, 0
2, 194148, Note_on_c, 0, 72, 0
2, 194150, Note_on_c, 0, 64, 0
2, 194188, Note_on_c, 0, 69, 0
2, 194327, Note_on_c, 0, 65, 0
2, 194821, Control_c, 0, 64, 0
2, 194824, Note_on_c, 0, 60, 37
2, 194846, Note_on_c, 0, 72, 55
2, 194891, Note_on_c, 0, 65, 55
2, 194893, Note_on_c, 0, 62, 55
2, 194897, Note_on_c, 0, 69, 51
2, 194954, Note_on_c, 0, 71, 29
2, 195018, Note_on_c, 0, 60, 0
2, 195097, Note_on_c, 0, 69, 0
2, 195144, Note_on_c, 0, 72, 0
2, 195204, Note_on_c, 0, 71, 0
2, 195217, Note_on_c, 0, 65, 0
2, 195224, Control_c, 0, 64, 127
2, 195293, Note_on_c, 0, 62, 0
2, 195582, Note_on_c, 0, 61, 29
2, 195644, Note_on_c, 0, 61, 0
2, 195730, Note_on_c, 0, 50, 47
2, 195837, Note_on_c, 0, 64, 56
2, 195859, Control_c, 0, 64, 0
2, 195860, Note_on_c, 0, 56, 49
2, 195879, Note_on_c, 0, 53, 48
2, 195880, Note_on_c, 0, 52, 55
2, 195883, Note_on_c, 0, 59, 60
2, 195920, Note_on_c, 0, 50, 0
2, 196397, Note_on_c, 0, 64, 0
2, 196560, Note_on_c, 0, 59, 0
2, 196580, Note_on_c, 0, 53, 0
2, 196587, Note_on_c, 0, 56, 0
2, 196685, Note_on_c, 0, 49, 23
2, 196712, Note_on_c, 0, 52, 0
2, 196847, Note_on_c, 0, 63, 45
2, 196857, Note_on_c, 0, 49, 0
2, 196862, Note_on_c, 0, 53, 38
2, 196866, Note_on_c, 0, 51, 47
2, 196875, Note_on_c, 0, 56, 39
2, 196907, Note_on_c, 0, 59, 44
2, 197229, Note_on_c, 0, 53, 0
2, 197236, Control_c, 0, 64, 127
2, 197263, Note_on_c, 0, 63, 0
2, 197287, Note_on_c, 0, 56, 0
2, 197291, Note_on_c, 0, 59, 0
2, 197435, Control_c, 0, 64, 0
2, 197504, Note_on_c, 0, 51, 0
2, 197515, Note_on_c, 0, 62, 50
2, 197518, Note_on_c, 0, 56, 40
2, 197522, Note_on_c, 0, 59, 44
2, 197533, Note_on_c, 0, 53, 44
2, 197534, Note_on_c, 0, 50, 44
2, 197687, Note_on_c, 0, 53, 0
2, 197750, Note_on_c, 0, 56, 0
2, 197795, Note_on_c, 0, 59, 0
2, 197817, Control_c, 0, 64, 127
2, 197880, Note_on_c, 0, 62, 0
2, 198459, Note_on_c, 0, 43, 54
2, 198507, Note_on_c, 0, 50, 0
2, 198531, Note_on_c, 0, 43, 0
2, 198614, Control_c, 0, 64, 0
2, 198750, Note_on_c, 0, 79, 67
2, 198928, Note_on_c, 0, 79, 0
2, 199028, Note_on_c, 0, 67, 49
2, 199111, Note_on_c, 0, 67, 0
2, 199621, Note_on_c, 0, 65, 62
2, 199654, Note_on_c, 0, 55, 33
2, 199659, Note_on_c, 0, 57, 36
2, 199668, Note_on_c, 0, 60, 33
2, 199690, Note_on_c, 0, 65, 0
2, 199744, Note_on_c, 0, 55, 0
2, 199759, Note_on_c, 0, 60, 0
2, 199851, Note_on_c, 0, 57, 0
2, 200048, Note_on_c, 0, 91, 66
2, 200266, Note_on_c, 0, 91, 0
2, 200366, Note_on_c, 0, 79, 54
2, 200427, Note_on_c, 0, 79, 0
2, 200646, Note_on_c, 0, 79, 60
2, 200709, Note_on_c, 0, 79, 0
2, 201082, Note_on_c, 0, 43, 58
2, 201205, Note_on_c, 0, 43, 0
2, 201639, Note_on_c, 0, 103, 80
2, 201767, Control_c, 0, 64, 127
2, 201838, Note_on_c, 0, 103, 0
2, 201912, Note_on_c, 0, 91, 67
2, 202038, Control_c, 0, 64, 0
2, 202042, Note_on_c, 0, 91, 0
2, 202264, Note_on_c, 0, 65, 82
2, 202273, Note_on_c, 0, 57, 58
2, 202282, Note_on_c, 0, 60, 55
2, 202288, Note_on_c, 0, 55, 64
2, 202673, Control_c, 0, 64, 127
2, 203210, Note_on_c, 0, 55, 0
2, 203219, Note_on_c, 0, 60, 0
2, 203221, Note_on_c, 0, 65, 0
2, 203228, Note_on_c, 0, 57, 0
2, 203380, Control_c, 0, 64, 0
2, 203429, Note_on_c, 0, 64, 60
2, 203443, Note_on_c, 0, 59, 64
2, 203470, Note_on_c, 0, 53, 55
2, 204378, Note_on_c, 0, 76, 101
2, 204396, Control_c, 0, 64, 127
2, 204956, Note_on_c, 0, 64, 0
2, 204994, Note_on_c, 0, 53, 0
2, 205087, Note_on_c, 0, 64, 74
2, 205121, Control_c, 0, 64, 0
2, 205130, Note_on_c, 0, 53, 54
2, 205428, Control_c, 0, 64, 127
2, 205857, Note_on_c, 0, 76, 0
2, 206211, Note_on_c, 0, 64, 0
2, 206388, Note_on_c, 0, 59, 0
2, 206425, Note_on_c, 0, 76, 71
2, 206513, Note_on_c, 0, 53, 0
2, 206934, Note_on_c, 0, 76, 0
2, 207111, Note_on_c, 0, 72, 60
2, 207119, Note_on_c, 0, 62, 51
2, 207121, Note_on_c, 0, 57, 36
2, 207133, Control_c, 0, 64, 0
2, 207142, Note_on_c, 0, 52, 39
2, 207827, Note_on_c, 0, 57, 0
2, 207945, Note_on_c, 0, 57, 24
2, 208204, Note_on_c, 0, 72, 0
2, 208285, Note_on_c, 0, 67, 36
2, 208330, Note_on_c, 0, 68, 53
2, 208374, Note_on_c, 0, 62, 0
2, 208375, Note_on_c, 0, 67, 0
2, 208441, Note_on_c, 0, 68, 0
2, 208500, Note_on_c, 0, 69, 35
2, 208511, Note_on_c, 0, 57, 0
2, 208672, Note_on_c, 0, 69, 0
2, 209015, Note_on_c, 0, 62, 46
2, 209025, Note_on_c, 0, 57, 38
2, 209037, Note_on_c, 0, 72, 80
2, 209072, Note_on_c, 0, 71, 48
2, 209137, Note_on_c, 0, 71, 0
2, 209227, Note_on_c, 0, 72, 0
2, 209355, Note_on_c, 0, 62, 0
2, 209540, Note_on_c, 0, 52, 0
2, 209590, Note_on_c, 0, 57, 0
2, 209616, Note_on_c, 0, 74, 90
2, 209925, Note_on_c, 0, 74, 0
2, 210069, Note_on_c, 0, 69, 68
2, 210129, Note_on_c, 0, 62, 35
2, 210151, Note_on_c, 0, 57, 24
2, 210153, Note_on_c, 0, 69, 0
2, 210362, Note_on_c, 0, 62, 0
2, 210465, Note_on_c, 0, 72, 82
2, 210521, Note_on_c, 0, 57, 0
2, 210655, Note_on_c, 0, 72, 0
2, 211013, Note_on_c, 0, 74, 92
2, 211033, Note_on_c, 0, 62, 60
2, 211044, Note_on_c, 0, 51, 53
2, 211055, Note_on_c, 0, 57, 40
2, 211191, Note_on_c, 0, 74, 0
2, 211622, Note_on_c, 0, 79, 73
2, 211626, Note_on_c, 0, 74, 70
2, 211642, Note_on_c, 0, 75, 77
2, 211688, Note_on_c, 0, 74, 0
2, 211774, Note_on_c, 0, 75, 0
2, 211800, Note_on_c, 0, 74, 48
2, 211894, Note_on_c, 0, 62, 0
2, 211997, Note_on_c, 0, 79, 0
2, 212111, Note_on_c, 0, 74, 0
2, 212434, Note_on_c, 0, 72, 79
2, 212581, Note_on_c, 0, 57, 0
2, 212716, Note_on_c, 0, 51, 0
2, 212940, Note_on_c, 0, 72, 0
2, 212993, Note_on_c, 0, 67, 65
2, 213015, Note_on_c, 0, 62, 46
2, 213018, Note_on_c, 0, 51, 36
2, 213040, Note_on_c, 0, 57, 31
2, 213181, Note_on_c, 0, 62, 0
2, 213366, Note_on_c, 0, 67, 0
2, 213387, Note_on_c, 0, 57, 0
2, 213579, Note_on_c, 0, 72, 28
2, 213586, Note_on_c, 0, 65, 64
2, 213655, Note_on_c, 0, 72, 0
2, 213698, Note_on_c, 0, 51, 0
2, 213743, Note_on_c, 0, 65, 0
2, 213803, Note_on_c, 0, 60, 47
2, 213846, Note_on_c, 0, 51, 37
2, 213881, Note_on_c, 0, 57, 30
2, 213931, Note_on_c, 0, 60, 0
2, 214114, Note_on_c, 0, 69, 27
2, 214134, Note_on_c, 0, 65, 46
2, 214137, Note_on_c, 0, 51, 0
2, 214246, Note_on_c, 0, 69, 0
2, 214293, Note_on_c, 0, 65, 0
2, 214302, Note_on_c, 0, 57, 0
2, 214409, Note_on_c, 0, 60, 36
2, 214526, Note_on_c, 0, 60, 0
2, 214671, Note_on_c, 0, 63, 71
2, 214683, Note_on_c, 0, 67, 62
2, 214848, Note_on_c, 0, 52, 40
2, 214872, Note_on_c, 0, 67, 0
2, 214879, Note_on_c, 0, 63, 0
2, 214960, Note_on_c, 0, 52, 0
2, 215038, Note_on_c, 0, 67, 44
2, 215045, Note_on_c, 0, 64, 54
2, 215181, Note_on_c, 0, 67, 0
2, 215195, Note_on_c, 0, 64, 0
2, 215284, Note_on_c, 0, 60, 48
2, 215542, Note_on_c, 0, 60, 0
2, 215600, Note_on_c, 0, 55, 50
2, 215850, Note_on_c, 0, 55, 0
2, 216076, Note_on_c, 0, 55, 60
2, 216549, Note_on_c, 0, 55, 0
2, 216689, Note_on_c, 0, 55, 73
2, 217560, Note_on_c, 0, 53, 62
2, 217634, Note_on_c, 0, 53, 0
2, 217773, Note_on_c, 0, 55, 0
2, 217842, Note_on_c, 0, 57, 58
2, 218354, Note_on_c, 0, 57, 0
2, 218502, Note_on_c, 0, 58, 47
2, 218708, Note_on_c, 0, 58, 0
2, 218764, Note_on_c, 0, 57, 22
2, 218777, Note_on_c, 0, 47, 36
2, 218831, Note_on_c, 0, 59, 35
2, 219328, Note_on_c, 0, 59, 0
2, 219431, Note_on_c, 0, 64, 46
2, 219489, Note_on_c, 0, 57, 0
2, 219592, Note_on_c, 0, 64, 0
2, 219762, Note_on_c, 0, 64, 66
2, 219777, Note_on_c, 0, 71, 70
2, 219798, Note_on_c, 0, 57, 44
2, 220279, Note_on_c, 0, 57, 0
2, 220308, Note_on_c, 0, 64, 0
2, 220382, Note_on_c, 0, 71, 0
2, 220404, Note_on_c, 0, 54, 19
2, 220662, Note_on_c, 0, 54, 0
2, 220702, Note_on_c, 0, 66, 55
2, 220704, Note_on_c, 0, 64, 36
2, 220715, Note_on_c, 0, 59, 40
2, 220724, Note_on_c, 0, 57, 44
2, 220965, Control_c, 0, 64, 127
2, 221037, Note_on_c, 0, 64, 0
2, 221256, Note_on_c, 0, 59, 0
2, 221351, Note_on_c, 0, 57, 0
2, 221453, Control_c, 0, 64, 0
2, 221492, Note_on_c, 0, 51, 20
2, 221574, Note_on_c, 0, 66, 0
2, 221735, Note_on_c, 0, 63, 50
2, 221758, Note_on_c, 0, 59, 37
2, 221771, Note_on_c, 0, 57, 33
2, 221816, Control_c, 0, 64, 127
2, 221921, Note_on_c, 0, 51, 0
2, 222142, Note_on_c, 0, 59, 0
2, 222241, Note_on_c, 0, 57, 0
2, 222243, Note_on_c, 0, 63, 0
2, 222264, Note_on_c, 0, 47, 0
2, 222376, Control_c, 0, 64, 0
2, 222423, Note_on_c, 0, 67, 49
2, 222425, Note_on_c, 0, 62, 53
2, 222429, Note_on_c, 0, 59, 38
2, 222443, Note_on_c, 0, 52, 45
2, 222499, Note_on_c, 0, 59, 0
2, 222563, Note_on_c, 0, 52, 0
2, 222590, Note_on_c, 0, 62, 0
2, 222670, Note_on_c, 0, 67, 0
2, 223646, Control_c, 0, 64, 127
2, 224190, Control_c, 0, 64, 0
2, 224336, Note_on_c, 0, 62, 74
2, 224340, Note_on_c, 0, 59, 53
2, 224344, Note_on_c, 0, 94, 79
2, 224347, Note_on_c, 0, 82, 82
2, 224353, Note_on_c, 0, 52, 52
2, 224355, Note_on_c, 0, 87, 76
2, 224383, Note_on_c, 0, 55, 35
2, 224537, Note_on_c, 0, 62, 0
2, 224552, Note_on_c, 0, 87, 0
2, 224588, Note_on_c, 0, 52, 0
2, 224613, Note_on_c, 0, 82, 0
2, 224627, Note_on_c, 0, 55, 0
2, 224642, Note_on_c, 0, 59, 0
2, 224644, Note_on_c, 0, 94, 0
2, 224893, Note_on_c, 0, 59, 55
2, 224902, Note_on_c, 0, 94, 52
2, 224904, Note_on_c, 0, 52, 54
2, 224913, Note_on_c, 0, 62, 66
2, 224918, Note_on_c, 0, 82, 67
2, 224942, Note_on_c, 0, 55, 43
2, 224967, Note_on_c, 0, 95, 53
2, 224987, Note_on_c, 0, 88, 48
2, 225023, Control_c, 0, 64, 127
2, 225105, Note_on_c, 0, 83, 53
2, 225125, Note_on_c, 0, 94, 0
2, 225130, Note_on_c, 0, 82, 0
2, 225183, Note_on_c, 0, 62, 0
2, 225215, Note_on_c, 0, 52, 0
2, 225220, Note_on_c, 0, 95, 0
2, 225257, Note_on_c, 0, 55, 0
2, 225278, Control_c, 0, 64, 0
2, 225286, Note_on_c, 0, 83, 0
2, 225307, Note_on_c, 0, 59, 0
2, 225347, Note_on_c, 0, 88, 0
2, 225600, Note_on_c, 0, 59, 40
2, 225615, Note_on_c, 0, 79, 62
2, 225620, Note_on_c, 0, 62, 54
2, 225625, Note_on_c, 0, 52, 38
2, 225633, Note_on_c, 0, 91, 31
2, 225647, Note_on_c, 0, 55, 26
2, 225676, Control_c, 0, 64, 127
2, 225721, Note_on_c, 0, 59, 0
2, 225765, Note_on_c, 0, 79, 0
2, 225766, Note_on_c, 0, 62, 0
2, 225792, Note_on_c, 0, 91, 0
2, 225806, Note_on_c, 0, 52, 0
2, 225843, Note_on_c, 0, 55, 0
2, 226298, Note_on_c, 0, 81, 68
2, 226301, Note_on_c, 0, 93, 71
2, 226304, Note_on_c, 0, 62, 65
2, 226305, Note_on_c, 0, 57, 53
2, 226307, Note_on_c, 0, 88, 64
2, 226313, Control_c, 0, 64, 0
2, 226314, Note_on_c, 0, 51, 60
2, 226745, Control_c, 0, 64, 127
2, 227283, Note_on_c, 0, 93, 0
2, 227367, Note_on_c, 0, 88, 0
2, 227482, Note_on_c, 0, 81, 0
2, 227546, Note_on_c, 0, 57, 0
2, 227584, Note_on_c, 0, 51, 0
2, 227728, Note_on_c, 0, 62, 0
2, 228504, Control_c, 0, 64, 0
2, 228515, Note_on_c, 0, 66, 80
2, 228518, Note_on_c, 0, 74, 89
2, 228525, Note_on_c, 0, 63, 87
2, 228533, Note_on_c, 0, 62, 74
2, 228536, Note_on_c, 0, 69, 70
2, 228565, Note_on_c, 0, 60, 56
2, 228625, Note_on_c, 0, 60, 0
2, 229157, Control_c, 0, 64, 127
2, 229194, Note_on_c, 0, 74, 0
2, 229276, Note_on_c, 0, 66, 0
2, 229314, Note_on_c, 0, 63, 0
2, 229330, Note_on_c, 0, 69, 0
2, 229337, Control_c, 0, 64, 0
2, 229399, Note_on_c, 0, 62, 0
2, 229469, Note_on_c, 0, 59, 52
2, 229473, Note_on_c, 0, 63, 56
2, 229489, Note_on_c, 0, 66, 42
2, 229491, Note_on_c, 0, 71, 55
2, 229538, Note_on_c, 0, 69, 49
2, 229683, Control_c, 0, 64, 127
2, 229840, Note_on_c, 0, 59, 0
2, 230238, Note_on_c, 0, 69, 0
2, 230247, Note_on_c, 0, 63, 0
2, 230252, Note_on_c, 0, 66, 0
2, 230335, Control_c, 0, 64, 0
2, 230337, Note_on_c, 0, 71, 0
2, 230438, Note_on_c, 0, 62, 53
2, 230446, Note_on_c, 0, 52, 38
2, 230446, Note_on_c, 0, 57, 39
2, 230448, Note_on_c, 0, 67, 54
2, 230661, Control_c, 0, 64, 127
2, 230748, Note_on_c, 0, 62, 0
2, 230758, Note_on_c, 0, 52, 0
2, 230773, Note_on_c, 0, 57, 0
2, 230834, Note_on_c, 0, 67, 0
2, 231368, Control_c, 0, 64, 0
2, 231418, Note_on_c, 0, 83, 77
2, 231420, Note_on_c, 0, 74, 79
2, 231435, Note_on_c, 0, 54, 64
2, 231437, Note_on_c, 0, 64, 63
2, 231438, Note_on_c, 0, 59, 45
2, 231456, Note_on_c, 0, 76, 52
2, 231516, Note_on_c, 0, 76, 0
2, 231713, Control_c, 0, 64, 127
2, 231814, Note_on_c, 0, 64, 0
2, 231823, Note_on_c, 0, 59, 0
2, 231863, Note_on_c, 0, 83, 0
2, 231921, Note_on_c, 0, 74, 0
2, 231936, Note_on_c, 0, 54, 0
2, 232367, Control_c, 0, 64, 0
2, 232407, Note_on_c, 0, 78, 56
2, 232411, Note_on_c, 0, 74, 68
2, 232420, Note_on_c, 0, 57, 54
2, 232422, Note_on_c, 0, 69, 66
2, 232425, Note_on_c, 0, 52, 57
2, 232427, Note_on_c, 0, 62, 60
2, 233004, Control_c, 0, 64, 127
2, 233203, Control_c, 0, 64, 0
2, 233264, Note_on_c, 0, 78, 0
2, 233268, Note_on_c, 0, 69, 0
2, 233273, Note_on_c, 0, 74, 0
2, 233418, Note_on_c, 0, 78, 49
2, 233424, Control_c, 0, 64, 127
2, 233725, Note_on_c, 0, 52, 0
2, 233767, Note_on_c, 0, 78, 0
2, 233790, Note_on_c, 0, 57, 0
2, 233846, Note_on_c, 0, 62, 0
2, 234237, Control_c, 0, 64, 0
2, 234700, Note_on_c, 0, 62, 63
2, 234707, Note_on_c, 0, 51, 50
2, 234714, Note_on_c, 0, 69, 68
2, 234723, Note_on_c, 0, 57, 47
2, 234729, Note_on_c, 0, 81, 48
2, 234774, Note_on_c, 0, 69, 0
2, 234796, Note_on_c, 0, 57, 0
2, 234801, Note_on_c, 0, 81, 0
2, 234830, Note_on_c, 0, 62, 0
2, 234845, Note_on_c, 0, 51, 0
2, 235309, Note_on_c, 0, 57, 52
2, 235311, Note_on_c, 0, 69, 78
2, 235313, Note_on_c, 0, 62, 67
2, 235314, Note_on_c, 0, 81, 63
2, 235316, Note_on_c, 0, 51, 56
2, 235333, Note_on_c, 0, 76, 60
2, 235373, Note_on_c, 0, 69, 0
2, 235389, Note_on_c, 0, 81, 0
2, 235391, Note_on_c, 0, 62, 0
2, 235391, Note_on_c, 0, 76, 0
2, 235398, Note_on_c, 0, 57, 0
2, 235419, Note_on_c, 0, 51, 0
2, 235962, Note_on_c, 0, 81, 72
2, 235964, Note_on_c, 0, 76, 72
2, 235969, Note_on_c, 0, 69, 83
2, 235973, Note_on_c, 0, 51, 72
2, 235975, Note_on_c, 0, 57, 66
2, 235982, Note_on_c, 0, 62, 72
2, 236032, Note_on_c, 0, 79, 27
2, 236096, Note_on_c, 0, 79, 0
2, 236376, Control_c, 0, 64, 127
2, 236859, Note_on_c, 0, 62, 0
2, 236983, Note_on_c, 0, 69, 0
2, 237157, Note_on_c, 0, 81, 0
2, 237175, Note_on_c, 0, 69, 49
2, 237184, Note_on_c, 0, 62, 47
2, 237363, Note_on_c, 0, 51, 0
2, 237504, Note_on_c, 0, 76, 0
2, 237605, Note_on_c, 0, 69, 0
2, 237786, Note_on_c, 0, 51, 47
2, 237793, Note_on_c, 0, 57, 0
2, 237896, Note_on_c, 0, 62, 0
2, 237913, Note_on_c, 0, 51, 0
2, 238079, Control_c, 0, 64, 0
2, 238145, Note_on_c, 0, 52, 35
2, 238150, Note_on_c, 0, 79, 59
2, 238162, Note_on_c, 0, 67, 55
2, 238166, Note_on_c, 0, 71, 53
2, 238171, Note_on_c, 0, 59, 57
2, 238177, Note_on_c, 0, 55, 44
2, 238186, Note_on_c, 0, 74, 38
2, 238187, Note_on_c, 0, 62, 39
2, 238220, Note_on_c, 0, 77, 30
2, 238249, Note_on_c, 0, 62, 0
2, 238303, Note_on_c, 0, 77, 0
2, 238406, Control_c, 0, 64, 127
2, 238506, Note_on_c, 0, 67, 0
2, 238609, Note_on_c, 0, 71, 0
2, 238616, Note_on_c, 0, 74, 0
2, 238656, Note_on_c, 0, 79, 0
2, 239039, Control_c, 0, 64, 0
2, 239093, Note_on_c, 0, 82, 73
2, 239111, Note_on_c, 0, 70, 82
2, 239117, Note_on_c, 0, 75, 77
2, 239252, Note_on_c, 0, 59, 0
2, 239299, Note_on_c, 0, 75, 0
2, 239374, Note_on_c, 0, 82, 0
2, 239375, Note_on_c, 0, 70, 0
2, 239381, Note_on_c, 0, 71, 72
2, 239390, Note_on_c, 0, 83, 64
2, 239392, Note_on_c, 0, 55, 0
2, 239431, Note_on_c, 0, 79, 42
2, 239444, Note_on_c, 0, 76, 57
2, 239549, Note_on_c, 0, 76, 0
2, 239603, Note_on_c, 0, 71, 0
2, 239609, Note_on_c, 0, 83, 0
2, 239657, Note_on_c, 0, 79, 0
2, 239820, Note_on_c, 0, 59, 38
2, 239863, Note_on_c, 0, 55, 36
2, 240001, Note_on_c, 0, 82, 69
2, 240015, Note_on_c, 0, 70, 83
2, 240033, Note_on_c, 0, 59, 0
2, 240062, Note_on_c, 0, 55, 0
2, 240104, Note_on_c, 0, 76, 27
2, 240109, Note_on_c, 0, 79, 24
2, 240145, Note_on_c, 0, 52, 0
2, 240175, Note_on_c, 0, 76, 0
2, 240202, Note_on_c, 0, 79, 0
2, 240252, Note_on_c, 0, 82, 0
2, 240285, Note_on_c, 0, 70, 0
2, 240290, Note_on_c, 0, 83, 55
2, 240298, Note_on_c, 0, 71, 66
2, 240317, Note_on_c, 0, 76, 56
2, 240328, Note_on_c, 0, 79, 26
2, 240384, Note_on_c, 0, 81, 28
2, 240500, Note_on_c, 0, 83, 0
2, 240545, Note_on_c, 0, 71, 0
2, 240587, Note_on_c, 0, 81, 0
2, 240606, Note_on_c, 0, 76, 0
2, 240621, Note_on_c, 0, 79, 0
2, 240674, Note_on_c, 0, 62, 43
2, 240686, Note_on_c, 0, 59, 40
2, 240739, Note_on_c, 0, 62, 0
2, 240740, Note_on_c, 0, 55, 36
2, 240889, Note_on_c, 0, 59, 0
2, 240925, Note_on_c, 0, 82, 60
2, 240939, Note_on_c, 0, 70, 74
2, 240970, Note_on_c, 0, 55, 0
2, 240979, Note_on_c, 0, 76, 62
2, 240986, Note_on_c, 0, 79, 43
2, 241127, Note_on_c, 0, 83, 67
2, 241169, Note_on_c, 0, 70, 0
2, 241183, Note_on_c, 0, 71, 64
2, 241185, Note_on_c, 0, 82, 0
2, 241306, Control_c, 0, 64, 127
2, 241440, Note_on_c, 0, 79, 0
2, 241480, Note_on_c, 0, 71, 0
2, 241489, Note_on_c, 0, 83, 0
2, 241552, Note_on_c, 0, 76, 0
2, 241758, Control_c, 0, 64, 0
2, 241833, Note_on_c, 0, 81, 67
2, 241840, Note_on_c, 0, 69, 70
2, 241841, Note_on_c, 0, 62, 60
2, 241849, Note_on_c, 0, 51, 48
2, 241859, Note_on_c, 0, 57, 41
2, 241863, Note_on_c, 0, 77, 55
2, 242811, Control_c, 0, 64, 127
2, 242888, Note_on_c, 0, 69, 0
2, 242925, Note_on_c, 0, 57, 0
2, 242957, Note_on_c, 0, 51, 0
2, 242973, Note_on_c, 0, 62, 0
2, 242991, Note_on_c, 0, 77, 0
2, 243033, Note_on_c, 0, 81, 0
2, 243716, Control_c, 0, 64, 0
2, 243874, Note_on_c, 0, 84, 80
2, 243876, Note_on_c, 0, 62, 68
2, 243879, Note_on_c, 0, 72, 77
2, 243885, Note_on_c, 0, 79, 71
2, 243892, Note_on_c, 0, 57, 45
2, 243894, Note_on_c, 0, 51, 56
2, 244841, Control_c, 0, 64, 127
2, 244875, Note_on_c, 0, 57, 0
2, 244982, Note_on_c, 0, 51, 0
2, 245027, Note_on_c, 0, 84, 0
2, 245076, Note_on_c, 0, 79, 0
2, 245114, Note_on_c, 0, 62, 0
2, 245277, Note_on_c, 0, 72, 0
2, 245656, Control_c, 0, 64, 0
2, 245792, Note_on_c, 0, 52, 45
2, 245799, Note_on_c, 0, 62, 52
2, 245816, Note_on_c, 0, 59, 39
2, 245826, Note_on_c, 0, 79, 51
2, 245828, Note_on_c, 0, 55, 38
2, 245830, Note_on_c, 0, 83, 57
2, 245832, Note_on_c, 0, 71, 62
2, 246739, Note_on_c, 0, 83, 0
2, 246762, Control_c, 0, 64, 127
2, 246783, Note_on_c, 0, 79, 0
2, 246887, Note_on_c, 0, 71, 0
2, 246963, Note_on_c, 0, 62, 0
2, 247059, Note_on_c, 0, 59, 0
2, 247078, Note_on_c, 0, 55, 0
2, 247229, Note_on_c, 0, 52, 0
2, 247703, Control_c, 0, 64, 0
2, 247741, Note_on_c, 0, 79, 62
2, 247750, Note_on_c, 0, 62, 57
2, 247757, Note_on_c, 0, 59, 44
2, 247761, Note_on_c, 0, 67, 57
2, 247763, Note_on_c, 0, 52, 40
2, 247768, Note_on_c, 0, 74, 57
2, 247806, Note_on_c, 0, 55, 30
2, 248083, Control_c, 0, 64, 127
2, 248399, Note_on_c, 0, 79, 0
2, 248490, Note_on_c, 0, 55, 0
2, 248511, Note_on_c, 0, 74, 0
2, 248551, Note_on_c, 0, 59, 0
2, 248613, Note_on_c, 0, 62, 0
2, 248614, Note_on_c, 0, 52, 0
2, 248688, Note_on_c, 0, 67, 0
2, 249605, Control_c, 0, 64, 0
2, 249618, Note_on_c, 0, 60, 56
2, 249623, Note_on_c, 0, 59, 57
2, 249634, Note_on_c, 0, 71, 69
2, 249636, Note_on_c, 0, 68, 60
2, 249639, Note_on_c, 0, 64, 62
2, 249672, Note_on_c, 0, 57, 35
2, 249735, Note_on_c, 0, 64, 0
2, 249750, Note_on_c, 0, 60, 0
2, 249752, Note_on_c, 0, 68, 0
2, 249782, Note_on_c, 0, 59, 0
2, 249800, Note_on_c, 0, 71, 0
2, 249838, Note_on_c, 0, 57, 0
2, 250625, Note_on_c, 0, 71, 72
2, 250627, Note_on_c, 0, 68, 67
2, 250628, Note_on_c, 0, 60, 54
2, 250637, Note_on_c, 0, 64, 64
2, 250652, Note_on_c, 0, 57, 41
2, 250666, Note_on_c, 0, 59, 35
2, 251581, Control_c, 0, 64, 127
2, 251910, Note_on_c, 0, 60, 0
2, 251919, Note_on_c, 0, 59, 0
2, 251935, Note_on_c, 0, 57, 0
2, 252688, Note_on_c, 0, 64, 0
2, 252713, Note_on_c, 0, 68, 0
2, 252814, Note_on_c, 0, 71, 0
2, 252954, Note_on_c, 0, 69, 61
2, 253100, Note_on_c, 0, 69, 0
2, 253161, Note_on_c, 0, 66, 54
2, 253322, Control_c, 0, 64, 0
2, 253346, Note_on_c, 0, 66, 0
2, 253398, Note_on_c, 0, 62, 43
2, 253418, Note_on_c, 0, 52, 34
2, 253436, Note_on_c, 0, 59, 34
2, 253451, Note_on_c, 0, 67, 68
2, 253460, Note_on_c, 0, 55, 30
2, 254145, Note_on_c, 0, 62, 0
2, 254277, Note_on_c, 0, 67, 0
2, 254315, Note_on_c, 0, 64, 53
2, 254532, Note_on_c, 0, 64, 0
2, 254570, Note_on_c, 0, 59, 0
2, 254599, Note_on_c, 0, 63, 48
2, 254731, Note_on_c, 0, 55, 0
2, 254756, Note_on_c, 0, 63, 0
2, 254919, Note_on_c, 0, 64, 71
2, 254957, Note_on_c, 0, 59, 29
2, 255157, Note_on_c, 0, 59, 0
2, 255580, Note_on_c, 0, 52, 0
2, 255624, Note_on_c, 0, 59, 71
2, 255714, Control_c, 0, 64, 127
2, 256047, Note_on_c, 0, 64, 0
2, 256112, Note_on_c, 0, 59, 0
2, 256204, Control_c, 0, 64, 0
2, 256313, Note_on_c, 0, 59, 67
2, 256530, Control_c, 0, 64, 127
2, 256962, Note_on_c, 0, 66, 71
2, 256984, Control_c, 0, 64, 0
2, 256985, Note_on_c, 0, 57, 40
2, 257003, Note_on_c, 0, 47, 38
2, 257058, Note_on_c, 0, 59, 0
2, 258321, Note_on_c, 0, 59, 39
2, 258379, Control_c, 0, 64, 127
2, 258416, Note_on_c, 0, 57, 0
2, 258560, Control_c, 0, 64, 0
2, 258668, Control_c, 0, 64, 127
2, 259159, Control_c, 0, 64, 0
2, 259321, Control_c, 0, 64, 127
2, 259583, Note_on_c, 0, 59, 0
2, 259862, Note_on_c, 0, 66, 0
2, 259905, Note_on_c, 0, 57, 48
2, 260077, Note_on_c, 0, 57, 0
2, 260133, Note_on_c, 0, 47, 0
2, 260155, Control_c, 0, 64, 0
2, 260567, Note_on_c, 0, 63, 37
2, 260679, Note_on_c, 0, 63, 0
2, 260882, Note_on_c, 0, 65, 76
2, 261008, Control_c, 0, 64, 127
2, 261098, Note_on_c, 0, 65, 0
2, 261207, Control_c, 0, 64, 0
2, 261232, Note_on_c, 0, 67, 91
2, 261287, Note_on_c, 0, 52, 36
2, 261290, Note_on_c, 0, 59, 51
2, 261299, Note_on_c, 0, 55, 39
2, 261740, Note_on_c, 0, 67, 0
2, 261822, Note_on_c, 0, 66, 58
2, 262066, Note_on_c, 0, 66, 0
2, 262183, Note_on_c, 0, 67, 57
2, 262520, Note_on_c, 0, 59, 0
2, 262576, Note_on_c, 0, 67, 0
2, 262639, Control_c, 0, 64, 127
2, 262737, Note_on_c, 0, 71, 73
2, 262760, Note_on_c, 0, 59, 33
2, 262766, Control_c, 0, 64, 0
2, 262780, Note_on_c, 0, 62, 32
2, 262852, Note_on_c, 0, 62, 0
2, 262894, Note_on_c, 0, 71, 0
2, 262995, Note_on_c, 0, 59, 0
2, 263196, Note_on_c, 0, 78, 65
2, 263197, Note_on_c, 0, 52, 0
2, 263371, Note_on_c, 0, 55, 0
2, 263523, Note_on_c, 0, 78, 0
2, 263635, Control_c, 0, 64, 127
2, 263684, Note_on_c, 0, 79, 84
2, 263745, Control_c, 0, 64, 0
2, 263805, Note_on_c, 0, 59, 28
2, 263903, Note_on_c, 0, 79, 0
2, 263923, Note_on_c, 0, 59, 0
2, 264080, Note_on_c, 0, 78, 47
2, 264270, Control_c, 0, 64, 127
2, 264454, Note_on_c, 0, 78, 0
2, 264620, Note_on_c, 0, 51, 40
2, 264624, Note_on_c, 0, 57, 45
2, 264633, Control_c, 0, 64, 0
2, 264651, Note_on_c, 0, 76, 58
2, 264834, Note_on_c, 0, 76, 0
2, 265241, Note_on_c, 0, 78, 67
2, 265504, Note_on_c, 0, 78, 0
2, 265667, Note_on_c, 0, 51, 0
2, 265711, Note_on_c, 0, 57, 0
2, 265899, Note_on_c, 0, 75, 60
2, 265902, Control_c, 0, 64, 127
2, 265904, Note_on_c, 0, 57, 40
2, 265911, Note_on_c, 0, 51, 37
2, 265913, Note_on_c, 0, 62, 41
2, 266336, Note_on_c, 0, 62, 0
2, 266349, Note_on_c, 0, 51, 0
2, 266373, Note_on_c, 0, 75, 0
2, 266425, Note_on_c, 0, 57, 0
2, 266517, Control_c, 0, 64, 0
2, 266568, Note_on_c, 0, 67, 57
2, 266570, Note_on_c, 0, 51, 36
2, 266571, Note_on_c, 0, 62, 53
2, 266597, Note_on_c, 0, 57, 36
2, 266862, Control_c, 0, 64, 127
2, 267050, Note_on_c, 0, 57, 0
2, 267065, Note_on_c, 0, 62, 0
2, 267098, Note_on_c, 0, 51, 0
2, 267197, Note_on_c, 0, 67, 0
2, 267515, Control_c, 0, 64, 0
2, 267517, Note_on_c, 0, 51, 34
2, 267519, Note_on_c, 0, 57, 35
2, 267642, Note_on_c, 0, 57, 0
2, 267663, Note_on_c, 0, 51, 0
2, 267804, Control_c, 0, 64, 127
2, 267819, Note_on_c, 0, 51, 34
2, 267844, Note_on_c, 0, 57, 32
2, 267983, Note_on_c, 0, 57, 0
2, 267992, Note_on_c, 0, 51, 0
2, 268470, Note_on_c, 0, 51, 56
2, 268473, Note_on_c, 0, 62, 72
2, 268480, Note_on_c, 0, 57, 41
2, 268486, Note_on_c, 0, 90, 82
2, 268491, Note_on_c, 0, 78, 83
2, 268493, Note_on_c, 0, 85, 83
2, 268632, Note_on_c, 0, 57, 0
2, 268649, Note_on_c, 0, 51, 0
2, 268683, Note_on_c, 0, 62, 0
2, 268710, Note_on_c, 0, 78, 0
2, 268741, Note_on_c, 0, 85, 0
2, 268772, Note_on_c, 0, 90, 0
2, 268843, Control_c, 0, 64, 0
2, 268907, Note_on_c, 0, 62, 68
2, 268915, Note_on_c, 0, 52, 41
2, 268923, Note_on_c, 0, 55, 60
2, 268949, Note_on_c, 0, 91, 60
2, 268960, Note_on_c, 0, 79, 59
2, 268969, Note_on_c, 0, 86, 60
2, 268976, Note_on_c, 0, 59, 44
2, 269086, Note_on_c, 0, 62, 0
2, 269093, Note_on_c, 0, 79, 0
2, 269099, Note_on_c, 0, 91, 0
2, 269101, Note_on_c, 0, 59, 0
2, 269106, Note_on_c, 0, 86, 0
2, 269155, Note_on_c, 0, 52, 0
2, 269178, Note_on_c, 0, 55, 0
2, 269515, Note_on_c, 0, 91, 67
2, 269525, Note_on_c, 0, 55, 53
2, 269527, Note_on_c, 0, 59, 60
2, 269531, Note_on_c, 0, 79, 68
2, 269536, Note_on_c, 0, 86, 63
2, 269538, Note_on_c, 0, 62, 62
2, 269542, Note_on_c, 0, 52, 54
2, 269589, Note_on_c, 0, 79, 0
2, 269596, Note_on_c, 0, 86, 0
2, 269603, Note_on_c, 0, 62, 0
2, 269616, Note_on_c, 0, 52, 0
2, 269629, Note_on_c, 0, 59, 0
2, 269631, Note_on_c, 0, 91, 0
2, 269661, Note_on_c, 0, 55, 0
2, 269936, Note_on_c, 0, 59, 34
2, 269949, Note_on_c, 0, 91, 56
2, 269961, Note_on_c, 0, 79, 53
2, 269972, Note_on_c, 0, 86, 53
2, 270012, Note_on_c, 0, 59, 0
2, 270014, Note_on_c, 0, 91, 0
2, 270024, Note_on_c, 0, 79, 0
2, 270037, Note_on_c, 0, 86, 0
2, 270352, Control_c, 0, 64, 127
2, 270498, Note_on_c, 0, 91, 71
2, 270506, Note_on_c, 0, 52, 61
2, 270507, Note_on_c, 0, 59, 56
2, 270513, Note_on_c, 0, 62, 57
2, 270514, Note_on_c, 0, 79, 68
2, 270516, Note_on_c, 0, 86, 71
2, 270535, Note_on_c, 0, 55, 37
2, 270583, Note_on_c, 0, 86, 0
2, 270628, Note_on_c, 0, 55, 0
2, 270630, Note_on_c, 0, 59, 0
2, 270632, Note_on_c, 0, 79, 0
2, 270638, Note_on_c, 0, 91, 0
2, 270647, Note_on_c, 0, 52, 0
2, 270648, Note_on_c, 0, 62, 0
2, 270713, Control_c, 0, 64, 0
2, 270927, Note_on_c, 0, 88, 51
2, 270934, Note_on_c, 0, 83, 60
2, 270938, Note_on_c, 0, 59, 42
2, 270943, Note_on_c, 0, 62, 60
2, 270956, Note_on_c, 0, 76, 50
2, 270965, Note_on_c, 0, 52, 39
2, 270978, Note_on_c, 0, 55, 41
2, 271039, Note_on_c, 0, 62, 0
2, 271070, Note_on_c, 0, 55, 0
2, 271071, Note_on_c, 0, 76, 0
2, 271075, Note_on_c, 0, 52, 0
2, 271077, Note_on_c, 0, 59, 0
2, 271117, Note_on_c, 0, 88, 0
2, 271119, Note_on_c, 0, 83, 0
2, 271690, Note_on_c, 0, 62, 62
2, 271693, Note_on_c, 0, 59, 48
2, 271702, Note_on_c, 0, 52, 44
2, 271723, Note_on_c, 0, 88, 64
2, 271726, Note_on_c, 0, 55, 38
2, 271737, Note_on_c, 0, 83, 57
2, 271741, Note_on_c, 0, 76, 60
2, 271748, Control_c, 0, 64, 127
2, 271860, Note_on_c, 0, 62, 0
2, 271865, Note_on_c, 0, 55, 0
2, 271878, Note_on_c, 0, 52, 0
2, 271885, Note_on_c, 0, 59, 0
2, 271907, Note_on_c, 0, 76, 0
2, 271999, Note_on_c, 0, 88, 0
2, 272001, Note_on_c, 0, 83, 0
2, 272581, Control_c, 0, 64, 0
2, 272634, Note_on_c, 0, 90, 76
2, 272641, Note_on_c, 0, 54, 68
2, 272646, Note_on_c, 0, 78, 79
2, 272648, Note_on_c, 0, 63, 83
2, 272657, Note_on_c, 0, 60, 60
2, 272662, Note_on_c, 0, 57, 60
2, 272670, Note_on_c, 0, 87, 62
2, 272695, Note_on_c, 0, 83, 51
2, 272699, Note_on_c, 0, 84, 55
2, 272760, Note_on_c, 0, 83, 0
2, 272762, Note_on_c, 0, 84, 0
2, 273125, Control_c, 0, 64, 127
2, 273162, Control_c, 0, 64, 0
2, 273505, Control_c, 0, 64, 127
2, 273633, Note_on_c, 0, 63, 0
2, 273713, Note_on_c, 0, 78, 0
2, 273787, Note_on_c, 0, 87, 0
2, 273827, Note_on_c, 0, 90, 0
2, 273854, Note_on_c, 0, 54, 0
2, 273912, Note_on_c, 0, 57, 0
2, 274015, Note_on_c, 0, 60, 0
2, 274431, Control_c, 0, 64, 0
2, 274528, Note_on_c, 0, 87, 83
2, 274530, Note_on_c, 0, 93, 84
2, 274535, Note_on_c, 0, 81, 83
2, 274539, Note_on_c, 0, 63, 83
2, 274548, Note_on_c, 0, 54, 70
2, 274559, Note_on_c, 0, 60, 51
2, 274572, Note_on_c, 0, 57, 51
2, 274745, Note_on_c, 0, 88, 55
2, 274818, Note_on_c, 0, 87, 0
2, 274917, Note_on_c, 0, 81, 0
2, 274939, Note_on_c, 0, 88, 0
2, 274961, Note_on_c, 0, 93, 0
2, 274968, Note_on_c, 0, 63, 0
2, 274986, Note_on_c, 0, 54, 0
2, 274998, Note_on_c, 0, 60, 0
2, 275004, Note_on_c, 0, 57, 0
2, 275009, Control_c, 0, 64, 127
2, 275083, Control_c, 0, 64, 0
2, 275150, Note_on_c, 0, 63, 72
2, 275165, Note_on_c, 0, 54, 62
2, 275179, Note_on_c, 0, 93, 78
2, 275183, Note_on_c, 0, 60, 50
2, 275197, Note_on_c, 0, 57, 44
2, 275200, Note_on_c, 0, 81, 66
2, 275204, Note_on_c, 0, 88, 71
2, 275414, Note_on_c, 0, 63, 0
2, 275425, Note_on_c, 0, 93, 0
2, 275430, Note_on_c, 0, 88, 0
2, 275440, Note_on_c, 0, 81, 0
2, 275445, Control_c, 0, 64, 127
2, 275449, Note_on_c, 0, 54, 0
2, 275456, Note_on_c, 0, 60, 0
2, 275483, Note_on_c, 0, 57, 0
2, 275572, Note_on_c, 0, 63, 44
2, 275582, Note_on_c, 0, 54, 42
2, 275597, Note_on_c, 0, 93, 57
2, 275633, Note_on_c, 0, 60, 33
2, 275635, Note_on_c, 0, 81, 38
2, 275648, Note_on_c, 0, 88, 51
2, 275750, Note_on_c, 0, 63, 0
2, 275752, Note_on_c, 0, 88, 0
2, 275769, Note_on_c, 0, 93, 0
2, 275783, Note_on_c, 0, 81, 0
2, 275859, Note_on_c, 0, 60, 0
2, 276067, Note_on_c, 0, 63, 50
2, 276107, Note_on_c, 0, 60, 24
2, 276138, Note_on_c, 0, 93, 74
2, 276145, Note_on_c, 0, 88, 68
2, 276159, Note_on_c, 0, 81, 62
2, 276266, Note_on_c, 0, 63, 0
2, 276295, Note_on_c, 0, 54, 0
2, 276309, Note_on_c, 0, 88, 0
2, 276318, Note_on_c, 0, 93, 0
2, 276326, Note_on_c, 0, 60, 0
2, 276335, Note_on_c, 0, 81, 0
2, 276515, Control_c, 0, 64, 0
2, 276589, Note_on_c, 0, 60, 50
2, 276593, Note_on_c, 0, 64, 69
2, 276600, Note_on_c, 0, 57, 49
2, 276602, Note_on_c, 0, 55, 62
2, 276622, Note_on_c, 0, 91, 62
2, 276644, Note_on_c, 0, 79, 68
2, 276653, Note_on_c, 0, 88, 58
2, 276660, Note_on_c, 0, 84, 65
2, 276949, Note_on_c, 0, 84, 0
2, 276980, Note_on_c, 0, 79, 0
2, 276995, Note_on_c, 0, 88, 0
2, 276998, Note_on_c, 0, 91, 0
2, 277011, Note_on_c, 0, 64, 0
2, 277013, Note_on_c, 0, 55, 0
2, 277036, Note_on_c, 0, 60, 0
2, 277047, Note_on_c, 0, 57, 0
2, 277432, Note_on_c, 0, 55, 75
2, 277437, Note_on_c, 0, 64, 75
2, 277445, Note_on_c, 0, 91, 74
2, 277446, Note_on_c, 0, 57, 53
2, 277448, Note_on_c, 0, 60, 51
2, 277463, Note_on_c, 0, 79, 76
2, 277465, Note_on_c, 0, 84, 76
2, 277466, Note_on_c, 0, 88, 65
2, 277584, Control_c, 0, 64, 127
2, 277940, Note_on_c, 0, 88, 0
2, 277969, Note_on_c, 0, 91, 0
2, 278005, Note_on_c, 0, 84, 0
2, 278040, Note_on_c, 0, 55, 0
2, 278052, Note_on_c, 0, 79, 0
2, 278078, Note_on_c, 0, 64, 0
2, 278112, Note_on_c, 0, 57, 0
2, 278175, Note_on_c, 0, 60, 0
2, 278417, Control_c, 0, 64, 0
2, 278459, Note_on_c, 0, 88, 74
2, 278466, Note_on_c, 0, 84, 71
2, 278468, Note_on_c, 0, 58, 77
2, 278470, Note_on_c, 0, 80, 67
2, 278471, Note_on_c, 0, 60, 68
2, 278475, Note_on_c, 0, 65, 89
2, 278477, Note_on_c, 0, 54, 77
2, 278479, Note_on_c, 0, 76, 75
2, 278522, Note_on_c, 0, 64, 37
2, 278584, Note_on_c, 0, 64, 0
2, 278844, Control_c, 0, 64, 127
2, 279457, Note_on_c, 0, 60, 0
2, 279475, Note_on_c, 0, 88, 0
2, 279535, Note_on_c, 0, 65, 0
2, 279551, Note_on_c, 0, 84, 0
2, 279627, Note_on_c, 0, 54, 0
2, 279672, Note_on_c, 0, 80, 0
2, 279697, Note_on_c, 0, 76, 0
2, 279730, Note_on_c, 0, 58, 0
2, 280039, Control_c, 0, 64, 0
2, 280099, Note_on_c, 0, 86, 77
2, 280102, Note_on_c, 0, 74, 71
2, 280113, Note_on_c, 0, 64, 69
2, 280117, Note_on_c, 0, 59, 69
2, 280119, Note_on_c, 0, 53, 70
2, 280120, Note_on_c, 0, 81, 74
2, 280403, Control_c, 0, 64, 127
2, 280433, Note_on_c, 0, 64, 0
2, 280486, Note_on_c, 0, 59, 0
2, 280580, Note_on_c, 0, 53, 0
2, 280983, Note_on_c, 0, 86, 0
2, 281167, Note_on_c, 0, 81, 0
2, 281194, Note_on_c, 0, 74, 0
2, 281285, Note_on_c, 0, 55, 92
2, 281292, Note_on_c, 0, 43, 88
2, 281455, Control_c, 0, 64, 0
2, 282183, Note_on_c, 0, 50, 51
2, 282194, Note_on_c, 0, 55, 0
2, 282341, Note_on_c, 0, 55, 70
2, 282346, Note_on_c, 0, 50, 0
2, 282997, Note_on_c, 0, 57, 55
2, 282999, Note_on_c, 0, 55, 0
2, 283028, Note_on_c, 0, 50, 36
2, 283098, Note_on_c, 0, 50, 0
2, 283169, Note_on_c, 0, 57, 0
2, 283216, Note_on_c, 0, 43, 0
2, 283248, Note_on_c, 0, 60, 62
2, 283749, Note_on_c, 0, 60, 0
2, 283834, Note_on_c, 0, 63, 78
2, 284074, Note_on_c, 0, 63, 0
2, 284145, Note_on_c, 0, 24, 29
2, 284208, Note_on_c, 0, 60, 38
2, 284279, Note_on_c, 0, 36, 10
2, 284724, Note_on_c, 0, 60, 0
2, 284884, Note_on_c, 0, 24, 0
2, 285002, Note_on_c, 0, 36, 0
2, 285123, Note_on_c, 0, 60, 50
2, 285592, Note_on_c, 0, 60, 0
2, 286167, Note_on_c, 0, 67, 60
2, 286570, Note_on_c, 0, 67, 0
2, 287805, Note_on_c, 0, 67, 64
2, 287992, Note_on_c, 0, 67, 0
2, 288095, Note_on_c, 0, 62, 58
2, 288105, Note_on_c, 0, 51, 48
2, 288114, Note_on_c, 0, 57, 38
2, 288163, Note_on_c, 0, 62, 0
2, 288210, Note_on_c, 0, 51, 0
2, 288213, Note_on_c, 0, 57, 0
2, 288499, Note_on_c, 0, 68, 56
2, 288641, Note_on_c, 0, 68, 0
2, 288652, Note_on_c, 0, 69, 53
2, 288839, Note_on_c, 0, 69, 0
2, 289142, Note_on_c, 0, 72, 103
2, 289575, Note_on_c, 0, 72, 0
2, 289779, Note_on_c, 0, 51, 60
2, 289782, Note_on_c, 0, 72, 96
2, 289786, Note_on_c, 0, 62, 63
2, 289788, Note_on_c, 0, 57, 50
2, 290198, Note_on_c, 0, 72, 0
2, 290233, Note_on_c, 0, 62, 0
2, 290298, Note_on_c, 0, 51, 0
2, 290325, Note_on_c, 0, 57, 0
2, 290457, Note_on_c, 0, 72, 74
2, 290466, Note_on_c, 0, 51, 37
2, 290478, Note_on_c, 0, 62, 51
2, 290502, Note_on_c, 0, 57, 50
2, 290714, Note_on_c, 0, 62, 0
2, 290779, Note_on_c, 0, 57, 0
2, 290851, Note_on_c, 0, 72, 0
2, 291012, Note_on_c, 0, 62, 48
2, 291041, Note_on_c, 0, 69, 55
2, 291052, Note_on_c, 0, 57, 30
2, 291370, Note_on_c, 0, 51, 0
2, 291386, Note_on_c, 0, 62, 0
2, 291404, Note_on_c, 0, 57, 0
2, 291581, Note_on_c, 0, 69, 0
2, 291641, Note_on_c, 0, 67, 57
2, 291652, Note_on_c, 0, 62, 48
2, 291654, Note_on_c, 0, 57, 38
2, 291670, Note_on_c, 0, 52, 46
2, 292077, Control_c, 0, 64, 127
2, 292475, Control_c, 0, 64, 0
2, 292764, Control_c, 0, 64, 127
2, 292800, Note_on_c, 0, 67, 0
2, 292934, Note_on_c, 0, 57, 0
2, 292988, Note_on_c, 0, 62, 0
2, 293050, Note_on_c, 0, 52, 0
2, 293617, Control_c, 0, 64, 0
2, 293798, Note_on_c, 0, 57, 42
2, 293813, Note_on_c, 0, 62, 46
2, 293832, Note_on_c, 0, 78, 56
2, 293852, Note_on_c, 0, 90, 47
2, 293854, Note_on_c, 0, 52, 32
2, 293962, Note_on_c, 0, 52, 0
2, 293979, Control_c, 0, 64, 127
2, 294203, Note_on_c, 0, 62, 0
2, 294254, Note_on_c, 0, 90, 0
2, 294256, Note_on_c, 0, 57, 0
2, 294284, Note_on_c, 0, 78, 0
2, 294463, Note_on_c, 0, 57, 47
2, 294472, Note_on_c, 0, 79, 57
2, 294487, Note_on_c, 0, 91, 41
2, 294489, Note_on_c, 0, 62, 50
2, 294550, Note_on_c, 0, 62, 0
2, 294552, Note_on_c, 0, 79, 0
2, 294577, Control_c, 0, 64, 0
2, 294599, Note_on_c, 0, 91, 0
2, 294610, Note_on_c, 0, 57, 0
2, 294760, Note_on_c, 0, 57, 67
2, 294783, Note_on_c, 0, 62, 68
2, 294787, Note_on_c, 0, 52, 62
2, 294809, Note_on_c, 0, 81, 74
2, 294810, Note_on_c, 0, 93, 78
2, 294868, Control_c, 0, 64, 127
2, 294934, Note_on_c, 0, 62, 0
2, 294935, Note_on_c, 0, 81, 0
2, 294937, Note_on_c, 0, 93, 0
2, 294964, Note_on_c, 0, 52, 0
2, 294975, Note_on_c, 0, 57, 0
2, 295519, Control_c, 0, 64, 0
2, 295847, Control_c, 0, 64, 127
2, 296337, Control_c, 0, 64, 0
2, 296376, Note_on_c, 0, 62, 74
2, 296387, Note_on_c, 0, 63, 65
2, 296401, Note_on_c, 0, 67, 71
2, 296407, Note_on_c, 0, 57, 57
2, 296430, Note_on_c, 0, 84, 80
2, 296434, Note_on_c, 0, 96, 70
2, 296447, Note_on_c, 0, 91, 61
2, 296474, Note_on_c, 0, 67, 0
2, 296492, Note_on_c, 0, 84, 0
2, 296506, Note_on_c, 0, 91, 0
2, 296528, Note_on_c, 0, 57, 0
2, 296541, Note_on_c, 0, 63, 0
2, 296550, Note_on_c, 0, 96, 0
2, 296561, Note_on_c, 0, 62, 0
2, 296897, Control_c, 0, 64, 127
2, 297078, Note_on_c, 0, 62, 78
2, 297081, Note_on_c, 0, 67, 84
2, 297085, Note_on_c, 0, 63, 69
2, 297101, Note_on_c, 0, 98, 83
2, 297103, Note_on_c, 0, 86, 85
2, 297109, Note_on_c, 0, 57, 55
2, 297114, Note_on_c, 0, 93, 78
2, 297470, Note_on_c, 0, 57, 0
2, 297522, Note_on_c, 0, 98, 0
2, 297524, Note_on_c, 0, 86, 0
2, 297532, Note_on_c, 0, 93, 0
2, 297541, Note_on_c, 0, 67, 0
2, 297566, Note_on_c, 0, 63, 0
2, 297571, Note_on_c, 0, 62, 0
2, 297586, Control_c, 0, 64, 0
2, 297712, Note_on_c, 0, 63, 62
2, 297725, Note_on_c, 0, 67, 68
2, 297729, Note_on_c, 0, 62, 64
2, 297732, Note_on_c, 0, 98, 69
2, 297734, Note_on_c, 0, 57, 59
2, 297748, Note_on_c, 0, 86, 66
2, 297752, Note_on_c, 0, 93, 75
2, 297766, Control_c, 0, 64, 127
2, 298013, Note_on_c, 0, 98, 0
2, 298063, Note_on_c, 0, 86, 0
2, 298090, Note_on_c, 0, 93, 0
2, 298168, Note_on_c, 0, 57, 0
2, 298190, Note_on_c, 0, 67, 0
2, 298235, Note_on_c, 0, 63, 0
2, 298237, Note_on_c, 0, 62, 0
2, 298437, Control_c, 0, 64, 0
2, 298548, Note_on_c, 0, 63, 61
2, 298550, Note_on_c, 0, 67, 67
2, 298555, Note_on_c, 0, 99, 72
2, 298557, Note_on_c, 0, 62, 52
2, 298558, Note_on_c, 0, 87, 72
2, 298568, Note_on_c, 0, 57, 38
2, 298582, Note_on_c, 0, 93, 67
2, 298638, Control_c, 0, 64, 127
2, 298647, Note_on_c, 0, 62, 0
2, 298682, Note_on_c, 0, 67, 0
2, 298748, Note_on_c, 0, 63, 0
2, 298801, Note_on_c, 0, 93, 0
2, 298815, Note_on_c, 0, 57, 0
2, 298969, Note_on_c, 0, 87, 0
2, 299018, Note_on_c, 0, 99, 0
2, 299330, Note_on_c, 0, 100, 78
2, 299336, Note_on_c, 0, 52, 68
2, 299347, Note_on_c, 0, 62, 73
2, 299348, Note_on_c, 0, 88, 59
2, 299350, Note_on_c, 0, 57, 64
2, 299354, Note_on_c, 0, 96, 67
2, 299367, Control_c, 0, 64, 0
2, 299383, Note_on_c, 0, 89, 54
2, 299410, Note_on_c, 0, 98, 41
2, 299447, Note_on_c, 0, 89, 0
2, 299493, Note_on_c, 0, 98, 0
2, 299652, Control_c, 0, 64, 127
2, 299956, Note_on_c, 0, 100, 0
2, 300003, Note_on_c, 0, 96, 0
2, 300179, Note_on_c, 0, 88, 0
2, 300357, Note_on_c, 0, 62, 0
2, 300441, Note_on_c, 0, 57, 0
2, 300596, Note_on_c, 0, 52, 0
2, 301086, Note_on_c, 0, 48, 35
2, 301166, Note_on_c, 0, 49, 36
2, 301318, Note_on_c, 0, 51, 20
2, 301325, Note_on_c, 0, 48, 0
2, 301412, Control_c, 0, 64, 0
2, 301422, Note_on_c, 0, 67, 75
2, 301424, Note_on_c, 0, 52, 75
2, 301433, Note_on_c, 0, 62, 82
2, 301439, Note_on_c, 0, 57, 71
2, 301473, Note_on_c, 0, 49, 0
2, 301545, Note_on_c, 0, 51, 0
2, 302390, Control_c, 0, 64, 127
2, 302703, Note_on_c, 0, 57, 0
2, 302804, Note_on_c, 0, 62, 0
2, 302809, Note_on_c, 0, 67, 0
2, 303071, Note_on_c, 0, 52, 0
2, 303149, Note_on_c, 0, 51, 25
2, 303270, Note_on_c, 0, 52, 49
2, 303313, Control_c, 0, 64, 0
2, 303331, Note_on_c, 0, 51, 0
2, 303366, Note_on_c, 0, 69, 64
2, 303371, Note_on_c, 0, 60, 55
2, 303379, Note_on_c, 0, 63, 56
2, 303382, Note_on_c, 0, 65, 50
2, 303384, Note_on_c, 0, 53, 42
2, 303476, Note_on_c, 0, 52, 0
2, 304194, Note_on_c, 0, 60, 0
2, 304252, Note_on_c, 0, 69, 0
2, 304283, Note_on_c, 0, 65, 0
2, 304351, Note_on_c, 0, 60, 42
2, 304379, Note_on_c, 0, 52, 45
2, 304386, Note_on_c, 0, 53, 0
2, 304387, Note_on_c, 0, 67, 51
2, 304763, Control_c, 0, 64, 127
2, 304831, Note_on_c, 0, 60, 0
2, 304948, Note_on_c, 0, 63, 0
2, 305091, Control_c, 0, 64, 0
2, 305098, Note_on_c, 0, 67, 0
2, 305263, Note_on_c, 0, 52, 0
2, 305270, Note_on_c, 0, 69, 60
2, 305275, Note_on_c, 0, 53, 51
2, 305282, Note_on_c, 0, 63, 46
2, 305288, Note_on_c, 0, 60, 35
2, 305306, Note_on_c, 0, 65, 38
2, 305328, Control_c, 0, 64, 127
2, 305371, Note_on_c, 0, 60, 0
2, 305442, Note_on_c, 0, 63, 0
2, 305460, Note_on_c, 0, 65, 0
2, 305519, Note_on_c, 0, 69, 0
2, 305548, Note_on_c, 0, 53, 0
2, 306161, Control_c, 0, 64, 0
2, 306213, Control_c, 0, 64, 127
2, 306631, Control_c, 0, 64, 0
2, 306686, Control_c, 0, 64, 127
2, 306921, Note_on_c, 0, 83, 79
2, 306922, Note_on_c, 0, 71, 82
2, 307031, Control_c, 0, 64, 0
2, 307063, Note_on_c, 0, 71, 0
2, 307087, Note_on_c, 0, 83, 0
2, 307552, Note_on_c, 0, 57, 54
2, 307553, Note_on_c, 0, 64, 65
2, 307561, Note_on_c, 0, 55, 58
2, 307562, Note_on_c, 0, 60, 46
2, 307571, Note_on_c, 0, 80, 64
2, 307573, Note_on_c, 0, 72, 78
2, 307582, Note_on_c, 0, 84, 67
2, 307647, Note_on_c, 0, 55, 0
2, 307707, Note_on_c, 0, 64, 0
2, 307738, Note_on_c, 0, 60, 0
2, 307768, Note_on_c, 0, 72, 0
2, 307783, Note_on_c, 0, 57, 0
2, 307801, Note_on_c, 0, 80, 0
2, 307846, Note_on_c, 0, 81, 26
2, 307848, Note_on_c, 0, 84, 0
2, 307929, Note_on_c, 0, 81, 0
2, 308304, Note_on_c, 0, 84, 72
2, 308311, Note_on_c, 0, 64, 77
2, 308313, Note_on_c, 0, 72, 70
2, 308316, Note_on_c, 0, 57, 62
2, 308322, Note_on_c, 0, 60, 59
2, 308323, Note_on_c, 0, 81, 62
2, 308327, Note_on_c, 0, 55, 69
2, 309115, Control_c, 0, 64, 127
2, 309294, Note_on_c, 0, 55, 0
2, 309329, Note_on_c, 0, 64, 0
2, 309351, Note_on_c, 0, 60, 0
2, 309378, Note_on_c, 0, 72, 0
2, 309392, Note_on_c, 0, 81, 0
2, 309394, Note_on_c, 0, 84, 0
2, 309401, Note_on_c, 0, 57, 0
2, 309967, Control_c, 0, 64, 0
2, 310133, Note_on_c, 0, 57, 68
2, 310135, Note_on_c, 0, 60, 66
2, 310138, Note_on_c, 0, 64, 75
2, 310151, Note_on_c, 0, 55, 66
2, 310153, Note_on_c, 0, 84, 71
2, 310159, Note_on_c, 0, 72, 77
2, 310173, Note_on_c, 0, 81, 54
2, 310209, Note_on_c, 0, 64, 0
2, 310211, Note_on_c, 0, 55, 0
2, 310231, Note_on_c, 0, 60, 0
2, 310236, Note_on_c, 0, 72, 0
2, 310262, Note_on_c, 0, 81, 0
2, 310269, Note_on_c, 0, 84, 0
2, 310274, Note_on_c, 0, 57, 0
2, 310403, Note_on_c, 0, 72, 56
2, 310417, Note_on_c, 0, 57, 63
2, 310430, Note_on_c, 0, 64, 45
2, 310441, Note_on_c, 0, 55, 51
2, 310446, Note_on_c, 0, 84, 34
2, 310452, Note_on_c, 0, 81, 43
2, 310457, Note_on_c, 0, 60, 31
2, 310488, Note_on_c, 0, 72, 0
2, 310509, Note_on_c, 0, 55, 0
2, 310520, Note_on_c, 0, 60, 0
2, 310522, Note_on_c, 0, 64, 0
2, 310524, Note_on_c, 0, 81, 0
2, 310529, Note_on_c, 0, 84, 0
2, 310565, Note_on_c, 0, 57, 0
2, 311102, Note_on_c, 0, 65, 90
2, 311106, Note_on_c, 0, 58, 78
2, 311108, Note_on_c, 0, 54, 78
2, 311113, Note_on_c, 0, 60, 66
2, 311117, Note_on_c, 0, 82, 86
2, 311130, Note_on_c, 0, 86, 85
2, 311131, Note_on_c, 0, 74, 94
2, 312034, Control_c, 0, 64, 127
2, 312243, Note_on_c, 0, 86, 0
2, 312301, Note_on_c, 0, 74, 0
2, 312328, Note_on_c, 0, 82, 0
2, 312359, Note_on_c, 0, 65, 0
2, 312363, Note_on_c, 0, 60, 0
2, 312391, Note_on_c, 0, 54, 0
2, 312417, Note_on_c, 0, 58, 0
2, 312668, Control_c, 0, 64, 0
2, 312697, Note_on_c, 0, 84, 70
2, 312701, Note_on_c, 0, 54, 68
2, 312702, Note_on_c, 0, 65, 75
2, 312706, Note_on_c, 0, 82, 62
2, 312708, Note_on_c, 0, 58, 63
2, 312710, Note_on_c, 0, 72, 71
2, 312726, Note_on_c, 0, 60, 49
2, 313017, Control_c, 0, 64, 127
2, 313281, Note_on_c, 0, 60, 0
2, 313323, Note_on_c, 0, 58, 0
2, 313366, Note_on_c, 0, 84, 0
2, 313368, Note_on_c, 0, 65, 0
2, 313435, Note_on_c, 0, 72, 0
2, 313603, Note_on_c, 0, 82, 0
2, 313652, Note_on_c, 0, 54, 0
2, 313851, Control_c, 0, 64, 0
2, 313943, Note_on_c, 0, 58, 53
2, 313945, Note_on_c, 0, 54, 67
2, 313948, Note_on_c, 0, 65, 64
2, 313956, Note_on_c, 0, 86, 72
2, 313970, Note_on_c, 0, 60, 44
2, 313972, Note_on_c, 0, 81, 70
2, 313975, Note_on_c, 0, 74, 62
2, 314147, Note_on_c, 0, 65, 0
2, 314149, Note_on_c, 0, 74, 0
2, 314167, Note_on_c, 0, 86, 0
2, 314180, Note_on_c, 0, 60, 0
2, 314210, Note_on_c, 0, 81, 0
2, 314285, Note_on_c, 0, 58, 0
2, 314413, Control_c, 0, 64, 127
2, 314480, Note_on_c, 0, 54, 0
2, 314774, Control_c, 0, 64, 0
2, 314890, Note_on_c, 0, 64, 74
2, 314894, Note_on_c, 0, 55, 75
2, 314903, Note_on_c, 0, 60, 56
2, 314919, Note_on_c, 0, 87, 76
2, 314921, Note_on_c, 0, 75, 90
2, 314928, Note_on_c, 0, 82, 77
2, 315389, Note_on_c, 0, 87, 0
2, 315393, Note_on_c, 0, 64, 0
2, 315415, Note_on_c, 0, 75, 0
2, 315427, Note_on_c, 0, 55, 0
2, 315432, Note_on_c, 0, 60, 0
2, 315436, Note_on_c, 0, 82, 0
2, 315508, Note_on_c, 0, 55, 36
2, 315536, Note_on_c, 0, 88, 59
2, 315545, Note_on_c, 0, 64, 54
2, 315552, Note_on_c, 0, 60, 42
2, 315566, Note_on_c, 0, 83, 57
2, 315572, Note_on_c, 0, 76, 25
2, 315590, Note_on_c, 0, 85, 36
2, 315763, Note_on_c, 0, 88, 0
2, 315765, Note_on_c, 0, 85, 0
2, 315792, Note_on_c, 0, 83, 0
2, 315801, Note_on_c, 0, 64, 0
2, 315832, Note_on_c, 0, 76, 0
2, 315852, Note_on_c, 0, 60, 0
2, 315953, Note_on_c, 0, 64, 40
2, 315957, Note_on_c, 0, 88, 49
2, 315968, Note_on_c, 0, 76, 47
2, 315973, Note_on_c, 0, 60, 36
2, 315977, Note_on_c, 0, 83, 39
2, 316232, Note_on_c, 0, 88, 0
2, 316252, Note_on_c, 0, 83, 0
2, 316266, Note_on_c, 0, 76, 0
2, 316284, Note_on_c, 0, 55, 0
2, 316293, Note_on_c, 0, 64, 0
2, 316308, Note_on_c, 0, 60, 0
2, 316499, Note_on_c, 0, 64, 59
2, 316503, Note_on_c, 0, 88, 67
2, 316505, Note_on_c, 0, 60, 46
2, 316517, Note_on_c, 0, 55, 65
2, 316519, Note_on_c, 0, 76, 66
2, 316545, Note_on_c, 0, 83, 59
2, 316767, Note_on_c, 0, 83, 0
2, 316787, Note_on_c, 0, 88, 0
2, 316805, Note_on_c, 0, 64, 0
2, 316807, Note_on_c, 0, 76, 0
2, 316809, Note_on_c, 0, 55, 0
2, 316836, Note_on_c, 0, 60, 0
2, 316986, Note_on_c, 0, 88, 44
2, 316995, Note_on_c, 0, 64, 42
2, 316997, Note_on_c, 0, 55, 41
2, 316998, Note_on_c, 0, 60, 50
2, 317013, Note_on_c, 0, 83, 51
2, 317015, Note_on_c, 0, 76, 47
2, 317257, Note_on_c, 0, 55, 0
2, 317264, Note_on_c, 0, 76, 0
2, 317284, Note_on_c, 0, 88, 0
2, 317313, Control_c, 0, 64, 127
2, 317315, Note_on_c, 0, 60, 0
2, 317316, Note_on_c, 0, 64, 0
2, 317327, Note_on_c, 0, 83, 0
2, 317638, Control_c, 0, 64, 0
2, 317814, Note_on_c, 0, 87, 68
2, 317824, Note_on_c, 0, 60, 66
2, 317827, Note_on_c, 0, 75, 76
2, 317830, Note_on_c, 0, 82, 72
2, 317835, Note_on_c, 0, 64, 68
2, 317837, Note_on_c, 0, 55, 74
2, 318213, Note_on_c, 0, 55, 0
2, 318219, Note_on_c, 0, 82, 0
2, 318231, Note_on_c, 0, 64, 0
2, 318233, Note_on_c, 0, 75, 0
2, 318240, Note_on_c, 0, 87, 0
2, 318363, Note_on_c, 0, 60, 0
2, 318425, Note_on_c, 0, 55, 54
2, 318447, Note_on_c, 0, 64, 30
2, 318456, Note_on_c, 0, 88, 72
2, 318468, Note_on_c, 0, 60, 22
2, 318492, Control_c, 0, 64, 127
2, 318506, Note_on_c, 0, 76, 44
2, 318524, Note_on_c, 0, 77, 44
2, 318553, Note_on_c, 0, 60, 0
2, 318591, Note_on_c, 0, 77, 0
2, 318611, Note_on_c, 0, 64, 0
2, 318665, Note_on_c, 0, 55, 0
2, 318667, Note_on_c, 0, 76, 0
2, 318669, Note_on_c, 0, 88, 0
2, 318745, Control_c, 0, 64, 0
2, 318848, Note_on_c, 0, 55, 54
2, 318866, Note_on_c, 0, 86, 64
2, 318868, Note_on_c, 0, 64, 44
2, 318884, Note_on_c, 0, 74, 53
2, 318898, Note_on_c, 0, 61, 46
2, 319189, Note_on_c, 0, 86, 0
2, 319318, Note_on_c, 0, 55, 0
2, 319325, Control_c, 0, 64, 127
2, 319329, Note_on_c, 0, 64, 0
2, 319331, Note_on_c, 0, 74, 0
2, 319361, Note_on_c, 0, 61, 0
2, 319470, Control_c, 0, 64, 0
2, 319474, Note_on_c, 0, 84, 53
2, 319488, Note_on_c, 0, 72, 48
2, 319502, Note_on_c, 0, 64, 38
2, 319504, Note_on_c, 0, 61, 62
2, 319517, Note_on_c, 0, 55, 30
2, 319580, Note_on_c, 0, 84, 0
2, 319587, Note_on_c, 0, 64, 0
2, 319591, Note_on_c, 0, 55, 0
2, 319602, Note_on_c, 0, 72, 0
2, 319636, Note_on_c, 0, 61, 0
2, 320195, Control_c, 0, 64, 127
2, 320430, Control_c, 0, 64, 0
2, 320694, Note_on_c, 0, 72, 61
2, 320705, Note_on_c, 0, 61, 35
2, 320710, Note_on_c, 0, 84, 51
2, 320712, Note_on_c, 0, 64, 36
2, 320737, Note_on_c, 0, 55, 33
2, 320775, Control_c, 0, 64, 127
2, 320867, Note_on_c, 0, 72, 0
2, 320997, Note_on_c, 0, 84, 0
2, 321158, Note_on_c, 0, 64, 0
2, 321175, Note_on_c, 0, 61, 0
2, 321430, Note_on_c, 0, 61, 50
2, 321457, Note_on_c, 0, 64, 32
2, 321573, Control_c, 0, 64, 0
2, 321668, Note_on_c, 0, 93, 90
2, 321676, Note_on_c, 0, 89, 87
2, 321800, Note_on_c, 0, 64, 0
2, 321874, Note_on_c, 0, 89, 0
2, 321911, Note_on_c, 0, 93, 0
2, 321976, Note_on_c, 0, 55, 0
2, 322088, Note_on_c, 0, 61, 0
2, 322135, Control_c, 0, 64, 127
2, 322280, Control_c, 0, 64, 0
2, 322328, Note_on_c, 0, 87, 82
2, 322335, Note_on_c, 0, 91, 72
2, 322386, Note_on_c, 0, 64, 52
2, 322406, Note_on_c, 0, 57, 47
2, 322408, Note_on_c, 0, 60, 35
2, 322609, Note_on_c, 0, 57, 0
2, 322614, Note_on_c, 0, 64, 0
2, 322614, Note_on_c, 0, 91, 0
2, 322616, Note_on_c, 0, 87, 0
2, 322661, Note_on_c, 0, 60, 0
2, 322930, Note_on_c, 0, 64, 61
2, 322938, Note_on_c, 0, 91, 62
2, 322939, Note_on_c, 0, 54, 51
2, 322952, Note_on_c, 0, 88, 73
2, 322958, Note_on_c, 0, 57, 42
2, 322961, Note_on_c, 0, 60, 37
2, 323239, Control_c, 0, 64, 127
2, 323276, Control_c, 0, 64, 0
2, 323278, Note_on_c, 0, 91, 0
2, 323279, Note_on_c, 0, 88, 0
2, 323288, Note_on_c, 0, 60, 0
2, 323299, Note_on_c, 0, 64, 0
2, 323341, Note_on_c, 0, 57, 0
2, 323357, Note_on_c, 0, 54, 0
2, 323604, Note_on_c, 0, 54, 53
2, 323605, Note_on_c, 0, 81, 71
2, 323608, Note_on_c, 0, 64, 60
2, 323639, Control_c, 0, 64, 127
2, 323641, Note_on_c, 0, 60, 31
2, 323655, Note_on_c, 0, 57, 35
2, 324002, Note_on_c, 0, 64, 0
2, 324053, Note_on_c, 0, 54, 0
2, 324064, Note_on_c, 0, 60, 0
2, 324066, Note_on_c, 0, 57, 0
2, 324143, Note_on_c, 0, 81, 0
2, 324183, Control_c, 0, 64, 0
2, 324218, Note_on_c, 0, 64, 58
2, 324225, Note_on_c, 0, 54, 62
2, 324230, Note_on_c, 0, 60, 51
2, 324232, Note_on_c, 0, 57, 53
2, 324276, Note_on_c, 0, 76, 66
2, 324552, Note_on_c, 0, 76, 0
2, 324657, Note_on_c, 0, 64, 0
2, 324672, Note_on_c, 0, 60, 0
2, 324691, Note_on_c, 0, 57, 0
2, 324762, Control_c, 0, 64, 127
2, 324764, Note_on_c, 0, 54, 0
2, 324863, Note_on_c, 0, 64, 51
2, 324865, Note_on_c, 0, 54, 40
2, 324885, Note_on_c, 0, 57, 47
2, 324888, Note_on_c, 0, 60, 35
2, 324912, Note_on_c, 0, 72, 57
2, 325131, Note_on_c, 0, 72, 0
2, 325138, Note_on_c, 0, 64, 0
2, 325199, Note_on_c, 0, 60, 0
2, 325250, Note_on_c, 0, 57, 0
2, 325324, Control_c, 0, 64, 0
2, 325351, Note_on_c, 0, 54, 0
2, 325478, Note_on_c, 0, 54, 37
2, 325530, Note_on_c, 0, 60, 31
2, 325536, Note_on_c, 0, 64, 33
2, 325579, Control_c, 0, 64, 127
2, 325740, Note_on_c, 0, 60, 0
2, 325767, Note_on_c, 0, 64, 0
2, 325970, Note_on_c, 0, 54, 0
2, 326129, Note_on_c, 0, 64, 69
2, 326132, Note_on_c, 0, 74, 62
2, 326134, Note_on_c, 0, 65, 66
2, 326149, Note_on_c, 0, 69, 66
2, 326156, Note_on_c, 0, 59, 63
2, 326159, Control_c, 0, 64, 0
2, 326163, Note_on_c, 0, 53, 58
2, 326241, Note_on_c, 0, 69, 0
2, 326259, Note_on_c, 0, 64, 0
2, 326261, Note_on_c, 0, 65, 0
2, 326308, Note_on_c, 0, 74, 0
2, 326315, Note_on_c, 0, 59, 0
2, 326393, Note_on_c, 0, 53, 0
2, 326648, Control_c, 0, 64, 127
2, 327078, Note_on_c, 0, 43, 88
2, 327101, Note_on_c, 0, 31, 82
2, 327145, Note_on_c, 0, 33, 42
2, 327192, Control_c, 0, 64, 0
2, 327204, Note_on_c, 0, 33, 0
2, 328007, Note_on_c, 0, 38, 44
2, 328081, Note_on_c, 0, 69, 92
2, 328085, Note_on_c, 0, 65, 89
2, 328259, Note_on_c, 0, 69, 0
2, 328262, Note_on_c, 0, 65, 0
2, 328316, Note_on_c, 0, 38, 0
2, 328439, Note_on_c, 0, 67, 74
2, 328455, Note_on_c, 0, 63, 71
2, 328655, Note_on_c, 0, 63, 0
2, 328763, Note_on_c, 0, 65, 41
2, 328806, Note_on_c, 0, 64, 48
2, 328909, Note_on_c, 0, 67, 0
2, 328926, Note_on_c, 0, 65, 0
2, 328940, Note_on_c, 0, 60, 59
2, 328967, Note_on_c, 0, 64, 0
2, 329034, Note_on_c, 0, 38, 36
2, 329074, Note_on_c, 0, 60, 0
2, 329135, Note_on_c, 0, 55, 68
2, 329208, Note_on_c, 0, 55, 0
2, 329249, Note_on_c, 0, 38, 0
2, 329311, Note_on_c, 0, 53, 68
2, 330018, Note_on_c, 0, 38, 32
2, 330023, Note_on_c, 0, 53, 0
2, 330028, Note_on_c, 0, 43, 0
2, 330047, Note_on_c, 0, 51, 37
2, 330155, Note_on_c, 0, 31, 0
2, 330171, Note_on_c, 0, 38, 0
2, 330206, Note_on_c, 0, 51, 0
2, 330291, Note_on_c, 0, 52, 56
2, 330953, Note_on_c, 0, 38, 38
2, 331032, Note_on_c, 0, 52, 0
2, 331171, Note_on_c, 0, 38, 0
2, 331251, Note_on_c, 0, 55, 73
2, 331835, Note_on_c, 0, 55, 0
2, 331925, Note_on_c, 0, 38, 42
2, 331954, Note_on_c, 0, 52, 33
2, 332064, Note_on_c, 0, 52, 0
2, 332128, Note_on_c, 0, 38, 0
2, 332247, Note_on_c, 0, 63, 72
2, 332249, Note_on_c, 0, 52, 64
2, 332265, Note_on_c, 0, 58, 60
2, 332334, Note_on_c, 0, 43, 22
2, 332451, Note_on_c, 0, 43, 0
2, 332731, Note_on_c, 0, 52, 0
2, 332737, Note_on_c, 0, 63, 0
2, 332791, Note_on_c, 0, 58, 0
2, 332855, Note_on_c, 0, 37, 35
2, 333059, Note_on_c, 0, 37, 0
2, 333196, Note_on_c, 0, 63, 73
2, 333205, Note_on_c, 0, 58, 70
2, 333207, Note_on_c, 0, 52, 67
2, 333598, Note_on_c, 0, 52, 0
2, 333730, Note_on_c, 0, 63, 0
2, 333813, Note_on_c, 0, 58, 0
2, 333894, Note_on_c, 0, 60, 52
2, 333909, Note_on_c, 0, 51, 56
2, 333910, Note_on_c, 0, 57, 56
2, 333947, Note_on_c, 0, 41, 48
2, 335091, Note_on_c, 0, 51, 0
2, 335275, Control_c, 0, 64, 127
2, 335320, Note_on_c, 0, 57, 0
2, 335368, Control_c, 0, 64, 0
2, 335494, Control_c, 0, 64, 127
2, 335534, Note_on_c, 0, 60, 0
2, 335729, Control_c, 0, 64, 0
2, 335740, Note_on_c, 0, 29, 68
2, 335872, Note_on_c, 0, 41, 0
2, 335982, Control_c, 0, 64, 127
2, 336092, Note_on_c, 0, 29, 0
2, 336405, Note_on_c, 0, 77, 90
2, 336413, Note_on_c, 0, 84, 84
2, 336418, Control_c, 0, 64, 0
2, 336575, Note_on_c, 0, 84, 0
2, 336633, Note_on_c, 0, 77, 0
2, 336709, Note_on_c, 0, 75, 55
2, 336859, Note_on_c, 0, 75, 0
2, 337049, Note_on_c, 0, 77, 66
2, 337062, Note_on_c, 0, 84, 70
2, 337291, Note_on_c, 0, 84, 0
2, 337331, Note_on_c, 0, 77, 0
2, 337385, Note_on_c, 0, 75, 62
2, 337514, Note_on_c, 0, 75, 0
2, 337675, Note_on_c, 0, 52, 48
2, 337676, Note_on_c, 0, 62, 57
2, 337684, Note_on_c, 0, 57, 44
2, 337691, Note_on_c, 0, 77, 76
2, 337705, Note_on_c, 0, 84, 77
2, 337930, Note_on_c, 0, 84, 0
2, 338029, Note_on_c, 0, 77, 0
2, 338056, Note_on_c, 0, 75, 40
2, 338134, Note_on_c, 0, 75, 0
2, 338347, Note_on_c, 0, 77, 78
2, 338358, Note_on_c, 0, 84, 77
2, 338557, Note_on_c, 0, 84, 0
2, 338647, Note_on_c, 0, 77, 0
2, 338654, Note_on_c, 0, 75, 59
2, 338663, Note_on_c, 0, 57, 0
2, 338703, Note_on_c, 0, 62, 0
2, 338725, Note_on_c, 0, 52, 0
2, 338790, Note_on_c, 0, 75, 0
2, 338969, Note_on_c, 0, 77, 80
2, 338991, Note_on_c, 0, 62, 55
2, 338993, Note_on_c, 0, 84, 79
2, 338995, Note_on_c, 0, 57, 48
2, 339020, Note_on_c, 0, 52, 53
2, 339206, Note_on_c, 0, 84, 0
2, 339266, Note_on_c, 0, 77, 0
2, 339280, Note_on_c, 0, 57, 0
2, 339307, Note_on_c, 0, 52, 0
2, 339311, Note_on_c, 0, 75, 59
2, 339383, Note_on_c, 0, 62, 0
2, 339432, Note_on_c, 0, 75, 0
2, 339595, Note_on_c, 0, 77, 80
2, 339613, Note_on_c, 0, 84, 78
2, 339620, Note_on_c, 0, 62, 67
2, 339622, Note_on_c, 0, 52, 62
2, 339627, Note_on_c, 0, 57, 54
2, 339785, Note_on_c, 0, 84, 0
2, 339888, Note_on_c, 0, 77, 0
2, 339916, Note_on_c, 0, 75, 59
2, 339971, Note_on_c, 0, 57, 0
2, 339994, Note_on_c, 0, 52, 0
2, 339998, Note_on_c, 0, 62, 0
2, 340045, Note_on_c, 0, 75, 0
2, 340219, Note_on_c, 0, 77, 81
2, 340229, Note_on_c, 0, 84, 80
2, 340421, Note_on_c, 0, 84, 0
2, 340508, Note_on_c, 0, 77, 0
2, 340511, Note_on_c, 0, 75, 70
2, 340627, Note_on_c, 0, 62, 59
2, 340636, Note_on_c, 0, 57, 50
2, 340642, Note_on_c, 0, 75, 0
2, 340665, Note_on_c, 0, 52, 46
2, 340804, Note_on_c, 0, 77, 82
2, 340819, Note_on_c, 0, 84, 77
2, 340998, Note_on_c, 0, 62, 0
2, 341074, Note_on_c, 0, 84, 0
2, 341207, Note_on_c, 0, 77, 0
2, 341365, Note_on_c, 0, 62, 58
2, 341366, Note_on_c, 0, 75, 61
2, 341381, Note_on_c, 0, 57, 0
2, 341383, Note_on_c, 0, 52, 0
2, 341498, Note_on_c, 0, 62, 0
2, 341509, Note_on_c, 0, 75, 0
2, 341687, Note_on_c, 0, 78, 77
2, 341690, Note_on_c, 0, 65, 70
2, 341699, Note_on_c, 0, 84, 74
2, 341707, Note_on_c, 0, 55, 60
2, 341712, Note_on_c, 0, 60, 38
2, 341998, Note_on_c, 0, 79, 57
2, 342008, Note_on_c, 0, 78, 0
2, 342160, Note_on_c, 0, 79, 0
2, 342173, Note_on_c, 0, 60, 0
2, 342176, Note_on_c, 0, 84, 0
2, 342196, Note_on_c, 0, 65, 0
2, 342220, Note_on_c, 0, 55, 0
2, 343281, Note_on_c, 0, 72, 67
2, 343310, Note_on_c, 0, 60, 59
2, 343316, Note_on_c, 0, 55, 73
2, 343317, Note_on_c, 0, 65, 71
2, 343431, Note_on_c, 0, 72, 0
2, 343457, Note_on_c, 0, 65, 0
2, 343592, Note_on_c, 0, 60, 0
2, 343666, Note_on_c, 0, 77, 81
2, 343668, Note_on_c, 0, 81, 78
2, 343811, Note_on_c, 0, 55, 0
2, 343856, Note_on_c, 0, 81, 0
2, 343878, Note_on_c, 0, 77, 0
2, 344248, Note_on_c, 0, 75, 78
2, 344252, Note_on_c, 0, 55, 74
2, 344254, Note_on_c, 0, 79, 74
2, 344268, Note_on_c, 0, 60, 53
2, 344270, Note_on_c, 0, 65, 69
2, 344286, Note_on_c, 0, 78, 49
2, 344335, Note_on_c, 0, 65, 0
2, 344344, Note_on_c, 0, 78, 0
2, 344381, Note_on_c, 0, 75, 0
2, 344384, Note_on_c, 0, 76, 72
2, 344435, Note_on_c, 0, 60, 0
2, 344511, Note_on_c, 0, 55, 0
2, 344525, Note_on_c, 0, 79, 0
2, 344549, Note_on_c, 0, 76, 0
2, 344668, Note_on_c, 0, 72, 37
2, 345281, Note_on_c, 0, 72, 0
2, 345375, Note_on_c, 0, 69, 32
2, 345440, Note_on_c, 0, 69, 0
2, 345626, Note_on_c, 0, 72, 64
2, 346000, Note_on_c, 0, 72, 0
2, 347482, Note_on_c, 0, 67, 80
2, 348117, Note_on_c, 0, 68, 53
2, 348232, Note_on_c, 0, 67, 0
2, 348383, Note_on_c, 0, 68, 0
2, 348447, Note_on_c, 0, 69, 37
2, 348992, Note_on_c, 0, 69, 0
2, 349106, Note_on_c, 0, 72, 44
2, 349215, Note_on_c, 0, 72, 0
2, 349393, Note_on_c, 0, 74, 69
2, 349399, Note_on_c, 0, 67, 32
2, 349415, Note_on_c, 0, 63, 33
2, 349424, Note_on_c, 0, 79, 57
2, 349457, Note_on_c, 0, 62, 22
2, 349462, Note_on_c, 0, 57, 28
2, 349645, Note_on_c, 0, 74, 0
2, 349707, Note_on_c, 0, 75, 40
2, 349845, Note_on_c, 0, 74, 45
2, 349901, Note_on_c, 0, 75, 0
2, 349954, Note_on_c, 0, 79, 0
2, 350111, Note_on_c, 0, 74, 0
2, 350127, Note_on_c, 0, 72, 46
2, 350269, Note_on_c, 0, 72, 0
2, 350335, Note_on_c, 0, 74, 79
2, 350345, Note_on_c, 0, 79, 68
2, 351024, Note_on_c, 0, 74, 0
2, 351058, Note_on_c, 0, 71, 45
2, 351146, Note_on_c, 0, 71, 0
2, 351174, Note_on_c, 0, 79, 0
2, 351233, Note_on_c, 0, 67, 0
2, 351261, Note_on_c, 0, 57, 0
2, 351312, Note_on_c, 0, 79, 55
2, 351323, Note_on_c, 0, 72, 76
2, 351408, Note_on_c, 0, 63, 0
2, 351474, Note_on_c, 0, 62, 0
2, 351779, Note_on_c, 0, 72, 0
2, 351883, Note_on_c, 0, 74, 49
2, 351958, Note_on_c, 0, 72, 41
2, 352055, Note_on_c, 0, 63, 20
2, 352095, Note_on_c, 0, 74, 0
2, 352121, Note_on_c, 0, 63, 0
2, 352171, Note_on_c, 0, 79, 0
2, 352202, Note_on_c, 0, 71, 49
2, 352205, Note_on_c, 0, 72, 0
2, 352284, Note_on_c, 0, 79, 10
2, 352552, Note_on_c, 0, 79, 0
2, 352795, Note_on_c, 0, 71, 0
2, 352861, Note_on_c, 0, 72, 66
2, 352891, Note_on_c, 0, 62, 40
2, 352898, Note_on_c, 0, 57, 45
2, 352961, Note_on_c, 0, 62, 0
2, 352968, Note_on_c, 0, 57, 0
2, 353054, Note_on_c, 0, 72, 0
2, 353216, Note_on_c, 0, 74, 49
2, 353498, Note_on_c, 0, 74, 0
2, 353535, Note_on_c, 0, 75, 57
2, 353717, Note_on_c, 0, 75, 0
2, 353840, Note_on_c, 0, 77, 38
2, 353843, Note_on_c, 0, 76, 43
2, 353971, Note_on_c, 0, 76, 0
2, 354011, Note_on_c, 0, 77, 0
2, 354157, Note_on_c, 0, 79, 52
2, 354323, Note_on_c, 0, 79, 0
2, 355712, Note_on_c, 0, 86, 69
2, 355751, Note_on_c, 0, 62, 49
2, 355758, Note_on_c, 0, 64, 44
2, 355765, Note_on_c, 0, 67, 33
2, 355855, Note_on_c, 0, 67, 0
2, 355901, Note_on_c, 0, 64, 0
2, 355941, Note_on_c, 0, 86, 0
2, 355947, Note_on_c, 0, 83, 43
2, 355968, Note_on_c, 0, 62, 0
2, 356096, Note_on_c, 0, 83, 0
2, 356194, Note_on_c, 0, 84, 75
2, 356434, Note_on_c, 0, 86, 78
2, 356477, Note_on_c, 0, 84, 0
2, 356589, Note_on_c, 0, 86, 0
2, 356664, Note_on_c, 0, 87, 67
2, 356819, Note_on_c, 0, 87, 0
2, 356919, Note_on_c, 0, 89, 68
2, 356960, Note_on_c, 0, 91, 40
2, 356987, Note_on_c, 0, 63, 39
2, 356995, Note_on_c, 0, 62, 39
2, 357010, Note_on_c, 0, 67, 34
2, 357018, Note_on_c, 0, 91, 0
2, 357042, Note_on_c, 0, 57, 41
2, 357063, Note_on_c, 0, 89, 0
2, 357152, Note_on_c, 0, 94, 45
2, 357429, Note_on_c, 0, 94, 0
2, 357440, Note_on_c, 0, 95, 61
2, 357552, Note_on_c, 0, 95, 0
2, 357618, Note_on_c, 0, 98, 80
2, 357867, Note_on_c, 0, 98, 0
2, 357911, Note_on_c, 0, 95, 45
2, 357971, Note_on_c, 0, 95, 0
2, 358085, Note_on_c, 0, 96, 72
2, 358258, Note_on_c, 0, 96, 0
2, 358431, Note_on_c, 0, 67, 0
2, 358455, Note_on_c, 0, 57, 0
2, 358479, Note_on_c, 0, 62, 0
2, 358485, Note_on_c, 0, 63, 0
2, 359069, Note_on_c, 0, 67, 25
2, 359075, Note_on_c, 0, 63, 25
2, 359096, Note_on_c, 0, 62, 24
2, 359223, Note_on_c, 0, 63, 0
2, 359232, Note_on_c, 0, 67, 0
2, 359259, Note_on_c, 0, 62, 0
2, 359759, Note_on_c, 0, 67, 43
2, 359765, Note_on_c, 0, 63, 38
2, 359767, Note_on_c, 0, 62, 34
2, 359856, Note_on_c, 0, 67, 0
2, 359899, Note_on_c, 0, 62, 0
2, 359927, Note_on_c, 0, 63, 0
2, 360069, Note_on_c, 0, 86, 46
2, 360203, Note_on_c, 0, 86, 0
2, 360437, Note_on_c, 0, 87, 57
2, 360533, Note_on_c, 0, 87, 0
2, 360703, Note_on_c, 0, 88, 99
2, 360931, Note_on_c, 0, 88, 0
2, 361043, Note_on_c, 0, 89, 85
2, 361049, Note_on_c, 0, 60, 54
2, 361053, Note_on_c, 0, 64, 47
2, 361056, Note_on_c, 0, 55, 50
2, 361211, Note_on_c, 0, 64, 0
2, 361218, Note_on_c, 0, 55, 0
2, 361288, Note_on_c, 0, 60, 0
2, 361346, Note_on_c, 0, 89, 0
2, 361375, Note_on_c, 0, 88, 36
2, 361562, Note_on_c, 0, 88, 0
2, 361690, Note_on_c, 0, 89, 87
2, 361973, Note_on_c, 0, 89, 0
2, 362005, Note_on_c, 0, 88, 60
2, 362170, Note_on_c, 0, 88, 0
2, 362331, Note_on_c, 0, 84, 33
2, 362362, Note_on_c, 0, 83, 27
2, 362451, Note_on_c, 0, 83, 0
2, 362490, Note_on_c, 0, 84, 0
2, 362587, Note_on_c, 0, 79, 38
2, 362800, Note_on_c, 0, 79, 0
2, 362901, Note_on_c, 0, 60, 30
2, 362917, Note_on_c, 0, 77, 39
2, 362925, Note_on_c, 0, 64, 27
2, 362947, Note_on_c, 0, 55, 27
2, 363203, Note_on_c, 0, 55, 0
2, 363280, Note_on_c, 0, 60, 0
2, 363322, Note_on_c, 0, 64, 0
2, 363557, Note_on_c, 0, 72, 33
2, 363680, Note_on_c, 0, 77, 0
2, 363770, Note_on_c, 0, 72, 0
2, 363874, Note_on_c, 0, 75, 59
2, 364097, Note_on_c, 0, 76, 53
2, 364099, Note_on_c, 0, 75, 0
2, 364243, Note_on_c, 0, 76, 0
2, 364431, Note_on_c, 0, 75, 60
2, 364655, Note_on_c, 0, 75, 0
2, 364664, Note_on_c, 0, 76, 48
2, 364791, Note_on_c, 0, 60, 32
2, 364800, Note_on_c, 0, 76, 0
2, 364941, Note_on_c, 0, 72, 24
2, 364943, Note_on_c, 0, 60, 0
2, 365501, Note_on_c, 0, 72, 0
2, 365671, Note_on_c, 0, 67, 38
2, 366224, Note_on_c, 0, 67, 0
2, 366627, Note_on_c, 0, 67, 37
2, 366653, Note_on_c, 0, 63, 35
2, 366765, Note_on_c, 0, 67, 0
2, 366817, Note_on_c, 0, 63, 0
2, 367575, Note_on_c, 0, 72, 108
2, 367831, Note_on_c, 0, 72, 0
2, 368189, Note_on_c, 0, 74, 99
2, 368263, Note_on_c, 0, 60, 41
2, 368327, Note_on_c, 0, 60, 0
2, 368378, Note_on_c, 0, 74, 0
2, 368615, Note_on_c, 0, 74, 43
2, 368699, Note_on_c, 0, 75, 35
2, 368816, Note_on_c, 0, 74, 0
2, 368901, Note_on_c, 0, 76, 40
2, 368907, Note_on_c, 0, 75, 0
2, 369069, Note_on_c, 0, 76, 0
2, 369161, Note_on_c, 0, 79, 69
2, 369186, Note_on_c, 0, 67, 55
2, 369214, Note_on_c, 0, 69, 41
2, 369286, Note_on_c, 0, 69, 0
2, 369314, Note_on_c, 0, 67, 0
2, 369323, Note_on_c, 0, 79, 0
2, 369477, Note_on_c, 0, 81, 80
2, 369488, Note_on_c, 0, 69, 72
2, 369527, Note_on_c, 0, 71, 52
2, 369591, Note_on_c, 0, 71, 0
2, 369789, Note_on_c, 0, 81, 0
2, 369854, Note_on_c, 0, 69, 0
2, 370430, Note_on_c, 0, 67, 62
2, 370442, Note_on_c, 0, 79, 55
2, 370821, Note_on_c, 0, 79, 0
2, 370827, Note_on_c, 0, 67, 0
2, 371088, Note_on_c, 0, 81, 61
2, 371118, Note_on_c, 0, 69, 30
2, 371240, Note_on_c, 0, 81, 0
2, 371307, Note_on_c, 0, 69, 0
2, 371466, Note_on_c, 0, 79, 31
2, 371507, Note_on_c, 0, 67, 17
2, 371780, Note_on_c, 0, 67, 0
2, 371799, Note_on_c, 0, 79, 0
2, 372048, Note_on_c, 0, 81, 64
2, 372055, Note_on_c, 0, 69, 56
2, 372070, Note_on_c, 0, 60, 35
2, 372074, Note_on_c, 0, 54, 31
2, 372120, Note_on_c, 0, 57, 24
2, 372137, Note_on_c, 0, 60, 0
2, 372174, Note_on_c, 0, 57, 0
2, 372176, Note_on_c, 0, 69, 0
2, 372194, Note_on_c, 0, 81, 0
2, 372264, Note_on_c, 0, 54, 0
2, 372998, Note_on_c, 0, 81, 64
2, 373047, Note_on_c, 0, 69, 33
2, 373075, Note_on_c, 0, 71, 27
2, 373123, Note_on_c, 0, 69, 0
2, 373128, Note_on_c, 0, 81, 0
2, 373142, Note_on_c, 0, 71, 0
2, 373312, Note_on_c, 0, 80, 40
2, 373331, Note_on_c, 0, 68, 38
2, 374091, Note_on_c, 0, 80, 0
2, 374107, Note_on_c, 0, 54, 17
2, 374112, Note_on_c, 0, 68, 0
2, 374312, Note_on_c, 0, 79, 44
2, 374319, Note_on_c, 0, 67, 31
2, 374354, Note_on_c, 0, 54, 0
2, 375123, Note_on_c, 0, 67, 0
2, 375565, Note_on_c, 0, 69, 40
2, 375582, Note_on_c, 0, 79, 0
2, 375697, Note_on_c, 0, 69, 0
2, 375829, Note_on_c, 0, 72, 58
2, 376029, Note_on_c, 0, 72, 0
2, 376131, Note_on_c, 0, 65, 25
2, 376170, Note_on_c, 0, 55, 25
2, 376171, Note_on_c, 0, 60, 34
2, 376175, Note_on_c, 0, 79, 70
2, 376187, Note_on_c, 0, 57, 29
2, 376395, Note_on_c, 0, 79, 0
2, 376544, Note_on_c, 0, 78, 29
2, 376670, Note_on_c, 0, 78, 0
2, 376824, Note_on_c, 0, 79, 71
2, 377072, Note_on_c, 0, 79, 0
2, 377168, Note_on_c, 0, 77, 47
2, 377983, Note_on_c, 0, 77, 0
2, 378168, Note_on_c, 0, 76, 64
2, 378608, Control_c, 0, 64, 127
2, 378856, Note_on_c, 0, 69, 29
2, 378887, Note_on_c, 0, 76, 0
2, 379960, Note_on_c, 0, 69, 0
2, 379999, Control_c, 0, 64, 0
2, 380047, Note_on_c, 0, 72, 72
2, 380683, Note_on_c, 0, 72, 0
2, 380728, Note_on_c, 0, 69, 34
2, 380834, Note_on_c, 0, 69, 0
2, 380953, Note_on_c, 0, 65, 0
2, 380969, Note_on_c, 0, 55, 0
2, 381018, Note_on_c, 0, 72, 72
2, 381082, Note_on_c, 0, 57, 0
2, 381165, Note_on_c, 0, 60, 0
2, 381307, Note_on_c, 0, 72, 0
2, 381439, Note_on_c, 0, 74, 30
2, 381466, Note_on_c, 0, 72, 35
2, 381542, Note_on_c, 0, 74, 0
2, 381671, Note_on_c, 0, 72, 0
2, 381686, Note_on_c, 0, 69, 24
2, 381803, Note_on_c, 0, 69, 0
2, 382610, Note_on_c, 0, 65, 48
2, 382635, Note_on_c, 0, 57, 44
2, 382648, Note_on_c, 0, 60, 40
2, 382681, Note_on_c, 0, 65, 0
2, 382720, Note_on_c, 0, 60, 0
2, 382813, Note_on_c, 0, 57, 0
2, 383432, Note_on_c, 0, 72, 81
2, 383717, Note_on_c, 0, 60, 24
2, 383718, Note_on_c, 0, 72, 0
2, 383742, Note_on_c, 0, 69, 53
2, 383907, Note_on_c, 0, 60, 0
2, 383971, Note_on_c, 0, 69, 0
2, 384058, Note_on_c, 0, 70, 47
2, 384301, Note_on_c, 0, 70, 0
2, 384359, Note_on_c, 0, 71, 43
2, 384587, Note_on_c, 0, 71, 0
2, 384662, Note_on_c, 0, 74, 66
2, 384915, Note_on_c, 0, 74, 0
2, 384960, Note_on_c, 0, 71, 36
2, 385251, Note_on_c, 0, 72, 65
2, 385264, Note_on_c, 0, 71, 0
2, 385483, Note_on_c, 0, 72, 0
2, 385568, Note_on_c, 0, 74, 68
2, 385717, Note_on_c, 0, 74, 0
2, 386578, Note_on_c, 0, 65, 49
2, 386605, Note_on_c, 0, 60, 44
2, 386627, Note_on_c, 0, 57, 35
2, 386722, Note_on_c, 0, 65, 0
2, 386936, Note_on_c, 0, 76, 87
2, 386944, Note_on_c, 0, 60, 0
2, 387020, Note_on_c, 0, 57, 0
2, 387245, Note_on_c, 0, 76, 0
2, 387255, Note_on_c, 0, 73, 42
2, 387570, Note_on_c, 0, 74, 64
2, 387579, Note_on_c, 0, 73, 0
2, 387690, Note_on_c, 0, 65, 32
2, 387750, Note_on_c, 0, 74, 0
2, 387763, Note_on_c, 0, 60, 29
2, 387848, Note_on_c, 0, 65, 0
2, 387872, Note_on_c, 0, 77, 63
2, 387896, Note_on_c, 0, 57, 14
2, 388123, Note_on_c, 0, 77, 0
2, 388181, Note_on_c, 0, 57, 0
2, 388235, Note_on_c, 0, 75, 44
2, 388247, Note_on_c, 0, 60, 0
2, 388479, Note_on_c, 0, 75, 0
2, 388482, Note_on_c, 0, 76, 57
2, 388661, Note_on_c, 0, 76, 0
2, 388779, Note_on_c, 0, 65, 40
2, 388789, Note_on_c, 0, 79, 73
2, 388840, Note_on_c, 0, 60, 33
2, 388855, Note_on_c, 0, 65, 0
2, 388946, Note_on_c, 0, 60, 0
2, 389050, Note_on_c, 0, 79, 0
2, 389079, Note_on_c, 0, 76, 43
2, 389374, Note_on_c, 0, 76, 0
2, 389394, Note_on_c, 0, 77, 48
2, 389491, Note_on_c, 0, 77, 0
2, 390264, Note_on_c, 0, 65, 51
2, 390341, Note_on_c, 0, 57, 27
2, 390349, Note_on_c, 0, 60, 27
2, 390431, Note_on_c, 0, 65, 0
2, 390509, Note_on_c, 0, 60, 0
2, 390579, Note_on_c, 0, 57, 0
2, 390621, Note_on_c, 0, 81, 80
2, 390856, Note_on_c, 0, 81, 0
2, 390938, Note_on_c, 0, 78, 48
2, 391150, Note_on_c, 0, 78, 0
2, 391255, Note_on_c, 0, 79, 59
2, 391280, Note_on_c, 0, 67, 49
2, 391310, Note_on_c, 0, 62, 39
2, 391338, Note_on_c, 0, 64, 29
2, 391357, Note_on_c, 0, 67, 0
2, 391415, Note_on_c, 0, 64, 0
2, 391466, Note_on_c, 0, 62, 0
2, 391522, Note_on_c, 0, 79, 0
2, 391613, Note_on_c, 0, 81, 41
2, 391825, Note_on_c, 0, 81, 0
2, 391938, Note_on_c, 0, 82, 42
2, 392157, Note_on_c, 0, 82, 0
2, 392249, Note_on_c, 0, 83, 44
2, 392467, Note_on_c, 0, 83, 0
2, 392581, Note_on_c, 0, 86, 62
2, 392709, Note_on_c, 0, 86, 0
2, 392783, Control_c, 0, 64, 127
2, 392907, Note_on_c, 0, 88, 46
2, 392914, Note_on_c, 0, 89, 36
2, 393040, Note_on_c, 0, 89, 0
2, 393058, Note_on_c, 0, 88, 0
2, 393187, Note_on_c, 0, 91, 87
2, 393191, Note_on_c, 0, 79, 80
2, 393197, Control_c, 0, 64, 0
2, 393205, Note_on_c, 0, 63, 60
2, 393219, Note_on_c, 0, 89, 58
2, 393243, Note_on_c, 0, 67, 60
2, 393263, Note_on_c, 0, 69, 27
2, 393275, Note_on_c, 0, 89, 0
2, 393309, Note_on_c, 0, 57, 30
2, 393314, Note_on_c, 0, 62, 58
2, 393315, Note_on_c, 0, 63, 0
2, 393317, Note_on_c, 0, 69, 0
2, 393374, Note_on_c, 0, 57, 0
2, 393402, Note_on_c, 0, 62, 0
2, 393423, Note_on_c, 0, 79, 0
2, 393437, Note_on_c, 0, 67, 0
2, 393453, Note_on_c, 0, 91, 0
2, 393551, Note_on_c, 0, 67, 68
2, 393559, Note_on_c, 0, 62, 73
2, 393560, Note_on_c, 0, 91, 69
2, 393563, Note_on_c, 0, 79, 68
2, 393573, Note_on_c, 0, 88, 70
2, 393578, Note_on_c, 0, 61, 43
2, 393579, Note_on_c, 0, 56, 74
2, 393619, Note_on_c, 0, 89, 34
2, 393631, Note_on_c, 0, 61, 0
2, 393701, Note_on_c, 0, 89, 0
2, 393997, Note_on_c, 0, 56, 0
2, 393999, Note_on_c, 0, 91, 0
2, 394000, Note_on_c, 0, 79, 0
2, 394013, Note_on_c, 0, 67, 0
2, 394018, Note_on_c, 0, 62, 0
2, 394042, Note_on_c, 0, 88, 0
2, 394087, Control_c, 0, 64, 127
2, 394129, Note_on_c, 0, 56, 60
2, 394133, Note_on_c, 0, 67, 70
2, 394144, Note_on_c, 0, 79, 61
2, 394146, Note_on_c, 0, 62, 70
2, 394147, Note_on_c, 0, 88, 64
2, 394151, Note_on_c, 0, 91, 61
2, 394384, Note_on_c, 0, 67, 0
2, 394402, Note_on_c, 0, 79, 0
2, 394411, Note_on_c, 0, 91, 0
2, 394416, Note_on_c, 0, 88, 0
2, 394424, Note_on_c, 0, 56, 0
2, 394431, Note_on_c, 0, 62, 0
2, 394499, Note_on_c, 0, 56, 42
2, 394503, Note_on_c, 0, 67, 65
2, 394520, Note_on_c, 0, 62, 66
2, 394523, Note_on_c, 0, 79, 53
2, 394530, Note_on_c, 0, 91, 64
2, 394531, Note_on_c, 0, 88, 57
2, 394840, Note_on_c, 0, 88, 0
2, 394843, Note_on_c, 0, 56, 0
2, 394867, Note_on_c, 0, 91, 0
2, 394875, Note_on_c, 0, 79, 0
2, 394920, Note_on_c, 0, 67, 0
2, 394925, Note_on_c, 0, 62, 0
2, 395061, Note_on_c, 0, 56, 62
2, 395085, Note_on_c, 0, 62, 51
2, 395103, Note_on_c, 0, 91, 50
2, 395111, Note_on_c, 0, 88, 51
2, 395139, Note_on_c, 0, 79, 27
2, 395144, Note_on_c, 0, 62, 0
2, 395198, Note_on_c, 0, 79, 0
2, 395237, Note_on_c, 0, 91, 0
2, 395259, Note_on_c, 0, 88, 0
2, 395311, Note_on_c, 0, 56, 0
2, 395351, Control_c, 0, 64, 0
2, 395446, Note_on_c, 0, 66, 71
2, 395463, Note_on_c, 0, 80, 32
2, 395472, Note_on_c, 0, 61, 50
2, 395474, Note_on_c, 0, 92, 34
2, 395475, Note_on_c, 0, 55, 55
2, 395491, Note_on_c, 0, 87, 30
2, 395846, Note_on_c, 0, 55, 0
2, 395871, Note_on_c, 0, 66, 0
2, 395907, Note_on_c, 0, 61, 0
2, 395915, Note_on_c, 0, 87, 0
2, 395935, Note_on_c, 0, 92, 0
2, 395965, Note_on_c, 0, 80, 0
2, 396029, Note_on_c, 0, 66, 56
2, 396032, Note_on_c, 0, 81, 60
2, 396035, Note_on_c, 0, 61, 50
2, 396045, Note_on_c, 0, 87, 33
2, 396048, Note_on_c, 0, 55, 48
2, 396051, Note_on_c, 0, 93, 42
2, 396147, Note_on_c, 0, 87, 0
2, 396151, Note_on_c, 0, 93, 0
2, 396155, Note_on_c, 0, 66, 0
2, 396160, Note_on_c, 0, 81, 0
2, 396189, Note_on_c, 0, 55, 0
2, 396239, Note_on_c, 0, 61, 0
2, 397288, Note_on_c, 0, 66, 50
2, 397299, Note_on_c, 0, 61, 46
2, 397317, Note_on_c, 0, 55, 41
2, 397359, Control_c, 0, 64, 127
2, 397683, Note_on_c, 0, 96, 71
2, 397691, Note_on_c, 0, 84, 75
2, 397856, Note_on_c, 0, 84, 0
2, 397866, Note_on_c, 0, 96, 0
2, 397975, Note_on_c, 0, 92, 52
2, 398127, Control_c, 0, 64, 0
2, 398165, Note_on_c, 0, 92, 0
2, 398197, Note_on_c, 0, 55, 0
2, 398246, Note_on_c, 0, 66, 0
2, 398307, Note_on_c, 0, 93, 62
2, 398335, Note_on_c, 0, 84, 53
2, 398482, Note_on_c, 0, 61, 0
2, 398544, Note_on_c, 0, 93, 0
2, 398547, Note_on_c, 0, 84, 0
2, 398619, Note_on_c, 0, 96, 71
2, 398624, Note_on_c, 0, 84, 55
2, 398888, Note_on_c, 0, 96, 0
2, 398891, Note_on_c, 0, 84, 0
2, 399197, Note_on_c, 0, 64, 36
2, 399232, Note_on_c, 0, 60, 48
2, 399243, Note_on_c, 0, 57, 44
2, 399250, Note_on_c, 0, 53, 24
2, 400125, Control_c, 0, 64, 127
2, 400385, Note_on_c, 0, 57, 0
2, 400429, Note_on_c, 0, 60, 0
2, 400430, Note_on_c, 0, 64, 0
2, 400535, Note_on_c, 0, 53, 0
2, 400792, Note_on_c, 0, 64, 46
2, 400800, Note_on_c, 0, 53, 36
2, 400823, Note_on_c, 0, 60, 47
2, 400837, Note_on_c, 0, 57, 48
2, 400904, Control_c, 0, 64, 0
2, 401136, Note_on_c, 0, 94, 71
2, 401320, Note_on_c, 0, 94, 0
2, 401518, Note_on_c, 0, 92, 30
2, 401610, Note_on_c, 0, 92, 0
2, 401752, Note_on_c, 0, 94, 82
2, 402103, Note_on_c, 0, 64, 0
2, 402170, Note_on_c, 0, 60, 0
2, 402275, Note_on_c, 0, 53, 0
2, 402344, Note_on_c, 0, 94, 0
2, 402383, Note_on_c, 0, 57, 0
2, 402431, Note_on_c, 0, 92, 64
2, 402693, Note_on_c, 0, 87, 61
2, 402709, Note_on_c, 0, 92, 0
2, 402912, Note_on_c, 0, 87, 0
2, 402994, Note_on_c, 0, 59, 30
2, 402995, Note_on_c, 0, 83, 40
2, 403002, Note_on_c, 0, 64, 25
2, 403050, Note_on_c, 0, 53, 26
2, 403247, Note_on_c, 0, 83, 0
2, 403381, Note_on_c, 0, 82, 67
2, 403543, Note_on_c, 0, 82, 0
2, 403837, Note_on_c, 0, 80, 74
2, 404005, Note_on_c, 0, 80, 0
2, 404050, Note_on_c, 0, 53, 0
2, 404112, Note_on_c, 0, 82, 42
2, 404160, Note_on_c, 0, 64, 0
2, 404181, Note_on_c, 0, 59, 0
2, 404192, Note_on_c, 0, 80, 33
2, 404343, Note_on_c, 0, 82, 0
2, 404387, Note_on_c, 0, 79, 33
2, 404400, Note_on_c, 0, 80, 0
2, 404583, Note_on_c, 0, 79, 0
2, 404693, Note_on_c, 0, 78, 60
2, 404816, Note_on_c, 0, 64, 33
2, 404859, Note_on_c, 0, 59, 25
2, 404928, Note_on_c, 0, 77, 54
2, 404933, Note_on_c, 0, 78, 0
2, 404991, Note_on_c, 0, 59, 0
2, 405013, Note_on_c, 0, 64, 0
2, 405157, Note_on_c, 0, 77, 0
2, 405168, Note_on_c, 0, 75, 57
2, 405386, Note_on_c, 0, 75, 0
2, 405502, Note_on_c, 0, 74, 22
2, 405594, Note_on_c, 0, 74, 0
2, 405699, Note_on_c, 0, 64, 32
2, 405821, Note_on_c, 0, 64, 0
2, 405880, Note_on_c, 0, 77, 66
2, 406126, Note_on_c, 0, 77, 0
2, 406142, Note_on_c, 0, 74, 54
2, 406288, Note_on_c, 0, 74, 0
2, 406360, Note_on_c, 0, 75, 44
2, 406544, Note_on_c, 0, 75, 0
2, 406565, Note_on_c, 0, 76, 60
2, 406654, Note_on_c, 0, 62, 28
2, 406659, Note_on_c, 0, 57, 32
2, 406675, Note_on_c, 0, 52, 24
2, 406802, Note_on_c, 0, 76, 0
2, 406810, Note_on_c, 0, 72, 38
2, 407088, Note_on_c, 0, 72, 0
2, 407117, Note_on_c, 0, 67, 53
2, 407234, Note_on_c, 0, 67, 0
2, 407699, Note_on_c, 0, 67, 53
2, 408013, Note_on_c, 0, 52, 0
2, 408061, Note_on_c, 0, 62, 0
2, 408083, Note_on_c, 0, 57, 0
2, 410794, Note_on_c, 0, 51, 27
2, 410807, Note_on_c, 0, 62, 26
2, 410853, Note_on_c, 0, 57, 31
2, 410947, Note_on_c, 0, 57, 0
2, 410957, Note_on_c, 0, 62, 0
2, 411016, Note_on_c, 0, 51, 0
2, 411040, Note_on_c, 0, 67, 0
2, 411787, Note_on_c, 0, 72, 74
2, 411792, Note_on_c, 0, 65, 81
2, 412408, Note_on_c, 0, 65, 0
2, 412439, Note_on_c, 0, 72, 0
2, 412491, Note_on_c, 0, 63, 42
2, 412528, Note_on_c, 0, 51, 32
2, 412577, Note_on_c, 0, 57, 29
2, 412630, Note_on_c, 0, 63, 0
2, 412678, Note_on_c, 0, 57, 0
2, 412710, Note_on_c, 0, 51, 0
2, 412757, Note_on_c, 0, 65, 54
2, 412760, Note_on_c, 0, 72, 60
2, 413387, Note_on_c, 0, 63, 57
2, 413395, Note_on_c, 0, 65, 0
2, 413446, Note_on_c, 0, 57, 46
2, 413456, Note_on_c, 0, 72, 0
2, 413488, Note_on_c, 0, 51, 23
2, 413539, Note_on_c, 0, 57, 0
2, 413546, Note_on_c, 0, 63, 0
2, 413558, Note_on_c, 0, 51, 0
2, 413741, Note_on_c, 0, 60, 34
2, 414005, Note_on_c, 0, 60, 0
2, 414033, Note_on_c, 0, 58, 34
2, 414221, Note_on_c, 0, 58, 0
2, 414374, Note_on_c, 0, 60, 66
2, 414413, Note_on_c, 0, 58, 39
2, 414615, Note_on_c, 0, 58, 0
2, 414837, Note_on_c, 0, 60, 0
2, 414891, Note_on_c, 0, 58, 38
2, 414933, Note_on_c, 0, 63, 62
2, 415195, Note_on_c, 0, 63, 0
2, 415251, Note_on_c, 0, 58, 0
2, 415600, Note_on_c, 0, 63, 50
2, 415634, Note_on_c, 0, 58, 48
2, 416098, Note_on_c, 0, 58, 0
2, 416171, Note_on_c, 0, 63, 0
2, 417257, Note_on_c, 0, 43, 33
2, 417322, Note_on_c, 0, 43, 0
2, 417869, Note_on_c, 0, 67, 48
2, 418010, Note_on_c, 0, 67, 0
2, 418130, Note_on_c, 0, 68, 54
2, 418267, Note_on_c, 0, 68, 0
2, 418387, Note_on_c, 0, 51, 35
2, 418445, Note_on_c, 0, 57, 38
2, 418471, Note_on_c, 0, 69, 53
2, 418568, Note_on_c, 0, 57, 0
2, 418637, Note_on_c, 0, 51, 0
2, 418643, Note_on_c, 0, 69, 0
2, 418773, Note_on_c, 0, 74, 67
2, 418978, Note_on_c, 0, 74, 0
2, 419380, Note_on_c, 0, 51, 28
2, 419390, Note_on_c, 0, 72, 48
2, 419413, Note_on_c, 0, 57, 38
2, 419416, Note_on_c, 0, 62, 22
2, 420419, Control_c, 0, 64, 127
2, 420577, Note_on_c, 0, 62, 0
2, 420624, Note_on_c, 0, 57, 0
2, 420645, Note_on_c, 0, 72, 0
2, 421054, Note_on_c, 0, 62, 39
2, 421079, Note_on_c, 0, 57, 36
2, 421186, Note_on_c, 0, 62, 0
2, 421227, Note_on_c, 0, 57, 0
2, 421251, Control_c, 0, 64, 0
2, 421307, Note_on_c, 0, 51, 0
2, 421359, Note_on_c, 0, 67, 37
2, 421530, Note_on_c, 0, 67, 0
2, 421731, Note_on_c, 0, 72, 44
2, 421807, Note_on_c, 0, 72, 0
2, 422003, Note_on_c, 0, 76, 80
2, 422184, Note_on_c, 0, 76, 0
2, 422309, Note_on_c, 0, 64, 40
2, 422313, Note_on_c, 0, 77, 80
2, 422320, Note_on_c, 0, 55, 36
2, 422337, Note_on_c, 0, 72, 74
2, 422341, Note_on_c, 0, 60, 43
2, 422589, Note_on_c, 0, 72, 0
2, 422589, Note_on_c, 0, 77, 0
2, 422660, Note_on_c, 0, 60, 0
2, 422661, Note_on_c, 0, 55, 0
2, 422672, Note_on_c, 0, 76, 49
2, 422675, Note_on_c, 0, 64, 0
2, 422854, Note_on_c, 0, 76, 0
2, 422959, Note_on_c, 0, 77, 71
2, 422971, Note_on_c, 0, 72, 58
2, 422975, Note_on_c, 0, 64, 43
2, 422976, Note_on_c, 0, 55, 46
2, 422977, Note_on_c, 0, 67, 56
2, 422999, Note_on_c, 0, 60, 43
2, 423139, Note_on_c, 0, 72, 0
2, 423184, Note_on_c, 0, 67, 0
2, 423216, Note_on_c, 0, 77, 0
2, 423233, Note_on_c, 0, 60, 0
2, 423238, Note_on_c, 0, 64, 0
2, 423266, Note_on_c, 0, 76, 37
2, 423359, Note_on_c, 0, 64, 13
2, 423361, Note_on_c, 0, 60, 17
2, 423587, Note_on_c, 0, 60, 0
2, 423691, Note_on_c, 0, 64, 0
2, 423783, Note_on_c, 0, 55, 0
2, 423936, Note_on_c, 0, 76, 0
2, 423960, Note_on_c, 0, 72, 45
2, 423983, Note_on_c, 0, 55, 20
2, 423994, Note_on_c, 0, 64, 24
2, 424010, Note_on_c, 0, 60, 31
2, 424112, Note_on_c, 0, 60, 0
2, 424119, Note_on_c, 0, 64, 0
2, 424189, Note_on_c, 0, 72, 0
2, 424275, Note_on_c, 0, 67, 41
2, 424288, Note_on_c, 0, 64, 25
2, 424320, Note_on_c, 0, 60, 17
2, 424661, Note_on_c, 0, 60, 0
2, 424778, Note_on_c, 0, 64, 0
2, 424851, Note_on_c, 0, 67, 0
2, 424931, Note_on_c, 0, 68, 59
2, 424991, Note_on_c, 0, 60, 27
2, 425173, Note_on_c, 0, 68, 0
2, 425299, Note_on_c, 0, 60, 0
2, 425301, Note_on_c, 0, 64, 31
2, 425306, Note_on_c, 0, 69, 53
2, 425427, Note_on_c, 0, 55, 0
2, 425461, Note_on_c, 0, 69, 0
2, 425626, Note_on_c, 0, 72, 51
2, 425760, Note_on_c, 0, 64, 0
2, 425765, Note_on_c, 0, 72, 0
2, 425903, Note_on_c, 0, 74, 74
2, 426072, Note_on_c, 0, 74, 0
2, 426234, Note_on_c, 0, 67, 34
2, 426248, Note_on_c, 0, 74, 71
2, 426251, Note_on_c, 0, 57, 30
2, 426253, Note_on_c, 0, 63, 45
2, 426297, Note_on_c, 0, 79, 41
2, 426962, Note_on_c, 0, 74, 0
2, 427002, Note_on_c, 0, 79, 0
2, 427021, Note_on_c, 0, 72, 36
2, 427030, Note_on_c, 0, 67, 0
2, 427053, Note_on_c, 0, 57, 0
2, 427104, Note_on_c, 0, 72, 0
2, 427135, Note_on_c, 0, 63, 0
2, 427227, Note_on_c, 0, 74, 56
2, 427232, Note_on_c, 0, 63, 14
2, 427234, Note_on_c, 0, 67, 32
2, 427247, Note_on_c, 0, 57, 31
2, 427254, Note_on_c, 0, 79, 48
2, 427986, Note_on_c, 0, 67, 0
2, 427989, Note_on_c, 0, 57, 0
2, 428067, Note_on_c, 0, 63, 0
2, 428157, Note_on_c, 0, 74, 0
2, 428245, Note_on_c, 0, 63, 25
2, 428255, Note_on_c, 0, 57, 25
2, 428261, Note_on_c, 0, 67, 29
2, 428274, Note_on_c, 0, 72, 32
2, 428461, Note_on_c, 0, 79, 0
2, 428533, Note_on_c, 0, 67, 0
2, 428541, Note_on_c, 0, 63, 0
2, 428584, Note_on_c, 0, 57, 0
2, 428627, Note_on_c, 0, 72, 0
2, 429209, Note_on_c, 0, 74, 71
2, 429223, Note_on_c, 0, 63, 39
2, 429229, Note_on_c, 0, 79, 54
2, 429239, Note_on_c, 0, 67, 33
2, 429245, Note_on_c, 0, 57, 36
2, 429315, Note_on_c, 0, 67, 0
2, 429386, Note_on_c, 0, 63, 0
2, 429442, Note_on_c, 0, 57, 0
2, 429734, Note_on_c, 0, 79, 0
2, 429821, Note_on_c, 0, 74, 0
2, 430191, Note_on_c, 0, 75, 53
2, 430194, Note_on_c, 0, 52, 34
2, 430199, Note_on_c, 0, 60, 36
2, 430200, Note_on_c, 0, 79, 46
2, 430775, Note_on_c, 0, 79, 0
2, 430813, Note_on_c, 0, 75, 0
2, 430835, Note_on_c, 0, 76, 49
2, 430975, Note_on_c, 0, 76, 0
2, 431408, Note_on_c, 0, 60, 0
2, 431627, Note_on_c, 0, 89, 85
2, 431850, Note_on_c, 0, 89, 0
2, 431929, Note_on_c, 0, 88, 68
2, 431979, Note_on_c, 0, 60, 24
2, 432106, Note_on_c, 0, 60, 0
2, 432138, Note_on_c, 0, 52, 0
2, 432197, Note_on_c, 0, 88, 0
2, 432221, Note_on_c, 0, 84, 54
2, 432400, Note_on_c, 0, 84, 0
2, 432520, Note_on_c, 0, 79, 35
2, 432658, Note_on_c, 0, 79, 0
2, 432810, Note_on_c, 0, 86, 77
2, 432871, Note_on_c, 0, 60, 32
2, 432997, Note_on_c, 0, 60, 0
2, 433053, Note_on_c, 0, 86, 0
2, 433130, Note_on_c, 0, 84, 61
2, 433336, Note_on_c, 0, 84, 0
2, 433410, Note_on_c, 0, 79, 48
2, 433609, Note_on_c, 0, 79, 0
2, 433733, Note_on_c, 0, 74, 40
2, 433810, Note_on_c, 0, 74, 0
2, 434447, Note_on_c, 0, 83, 90
2, 434744, Note_on_c, 0, 81, 60
2, 434845, Note_on_c, 0, 83, 0
2, 434921, Note_on_c, 0, 81, 0
2, 435061, Note_on_c, 0, 78, 54
2, 435247, Note_on_c, 0, 78, 0
2, 435307, Note_on_c, 0, 75, 49
2, 435581, Note_on_c, 0, 75, 0
2, 435610, Note_on_c, 0, 72, 42
2, 435765, Note_on_c, 0, 72, 0
2, 436405, Note_on_c, 0, 63, 36
2, 436431, Note_on_c, 0, 60, 38
2, 436485, Note_on_c, 0, 63, 0
2, 436506, Note_on_c, 0, 60, 0
2, 436710, Note_on_c, 0, 75, 76
2, 436933, Note_on_c, 0, 75, 0
2, 437037, Note_on_c, 0, 69, 55
2, 437242, Note_on_c, 0, 69, 0
2, 437331, Note_on_c, 0, 66, 65
2, 437435, Note_on_c, 0, 57, 24
2, 437611, Note_on_c, 0, 66, 0
2, 437683, Note_on_c, 0, 65, 35
2, 437697, Note_on_c, 0, 57, 0
2, 437872, Note_on_c, 0, 65, 0
2, 438003, Note_on_c, 0, 67, 65
2, 438226, Note_on_c, 0, 67, 0
2, 438304, Note_on_c, 0, 64, 49
2, 438419, Note_on_c, 0, 57, 20
2, 438459, Note_on_c, 0, 64, 0
2, 438584, Note_on_c, 0, 65, 58
2, 438707, Note_on_c, 0, 57, 0
2, 438811, Note_on_c, 0, 65, 0
2, 439231, Note_on_c, 0, 64, 61
2, 439435, Note_on_c, 0, 64, 0
2, 439579, Note_on_c, 0, 60, 67
2, 439861, Note_on_c, 0, 60, 0
2, 439960, Note_on_c, 0, 62, 38
2, 439997, Note_on_c, 0, 60, 49
2, 440077, Note_on_c, 0, 62, 0
2, 440222, Note_on_c, 0, 57, 49
2, 440224, Note_on_c, 0, 60, 0
2, 440397, Note_on_c, 0, 57, 0
2, 441256, Note_on_c, 0, 60, 73
2, 441915, Note_on_c, 0, 60, 0
2, 441963, Note_on_c, 0, 57, 53
2, 442152, Note_on_c, 0, 57, 0
2, 442277, Note_on_c, 0, 58, 40
2, 442481, Note_on_c, 0, 58, 0
2, 442634, Note_on_c, 0, 59, 46
2, 442789, Note_on_c, 0, 59, 0
2, 442915, Note_on_c, 0, 62, 61
2, 443093, Note_on_c, 0, 62, 0
2, 443207, Note_on_c, 0, 65, 73
2, 443406, Note_on_c, 0, 65, 0
2, 443523, Note_on_c, 0, 65, 45
2, 443530, Note_on_c, 0, 68, 58
2, 443551, Note_on_c, 0, 59, 62
2, 443562, Note_on_c, 0, 53, 45
2, 443579, Note_on_c, 0, 52, 35
2, 443614, Note_on_c, 0, 62, 32
2, 443650, Note_on_c, 0, 52, 0
2, 444112, Note_on_c, 0, 62, 0
2, 444149, Note_on_c, 0, 59, 0
2, 444163, Note_on_c, 0, 53, 0
2, 444224, Note_on_c, 0, 59, 24
2, 444237, Note_on_c, 0, 67, 69
2, 444266, Note_on_c, 0, 52, 38
2, 444272, Note_on_c, 0, 62, 63
2, 444347, Note_on_c, 0, 65, 0
2, 444349, Note_on_c, 0, 68, 0
2, 444451, Note_on_c, 0, 59, 0
2, 444474, Note_on_c, 0, 62, 0
2, 444498, Note_on_c, 0, 52, 0
2, 444501, Note_on_c, 0, 67, 0
2, 445090, Note_on_c, 0, 66, 64
2, 445091, Note_on_c, 0, 61, 65
2, 445094, Note_on_c, 0, 51, 48
2, 445103, Note_on_c, 0, 58, 64
2, 445310, Note_on_c, 0, 66, 0
2, 445368, Note_on_c, 0, 58, 0
2, 445370, Note_on_c, 0, 61, 0
2, 445421, Note_on_c, 0, 51, 0
2, 445451, Note_on_c, 0, 66, 47
2, 445485, Note_on_c, 0, 50, 37
2, 445506, Note_on_c, 0, 66, 0
2, 445507, Note_on_c, 0, 57, 44
2, 445523, Note_on_c, 0, 60, 47
2, 445554, Note_on_c, 0, 65, 37
2, 446395, Control_c, 0, 64, 127
2, 446457, Note_on_c, 0, 57, 0
2, 446562, Note_on_c, 0, 50, 0
2, 446567, Note_on_c, 0, 60, 0
2, 446613, Note_on_c, 0, 65, 0
2, 447233, Control_c, 0, 64, 0
2, 447288, Note_on_c, 0, 65, 72
2, 447290, Note_on_c, 0, 91, 75
2, 447296, Note_on_c, 0, 55, 68
2, 447297, Note_on_c, 0, 79, 71
2, 447301, Note_on_c, 0, 57, 58
2, 447311, Note_on_c, 0, 84, 66
2, 447312, Note_on_c, 0, 60, 63
2, 447314, Note_on_c, 0, 88, 60
2, 447325, Note_on_c, 0, 90, 36
2, 447381, Note_on_c, 0, 90, 0
2, 448203, Control_c, 0, 64, 127
2, 448346, Note_on_c, 0, 88, 0
2, 448363, Note_on_c, 0, 91, 0
2, 448383, Note_on_c, 0, 84, 0
2, 448397, Note_on_c, 0, 55, 0
2, 448427, Note_on_c, 0, 57, 0
2, 448440, Note_on_c, 0, 60, 0
2, 448453, Note_on_c, 0, 79, 0
2, 448555, Note_on_c, 0, 65, 0
2, 448804, Note_on_c, 0, 55, 39
2, 448877, Note_on_c, 0, 55, 0
2, 448939, Control_c, 0, 64, 0
2, 449133, Note_on_c, 0, 76, 54
2, 449134, Note_on_c, 0, 88, 66
2, 449151, Note_on_c, 0, 82, 48
2, 449155, Note_on_c, 0, 64, 55
2, 449163, Note_on_c, 0, 59, 51
2, 449230, Note_on_c, 0, 53, 22
2, 449331, Note_on_c, 0, 53, 0
2, 449358, Note_on_c, 0, 64, 0
2, 449365, Note_on_c, 0, 82, 0
2, 449402, Note_on_c, 0, 59, 0
2, 449451, Note_on_c, 0, 83, 19
2, 449490, Note_on_c, 0, 76, 0
2, 449543, Note_on_c, 0, 88, 0
2, 449579, Note_on_c, 0, 83, 0
2, 450149, Note_on_c, 0, 74, 44
2, 450154, Note_on_c, 0, 59, 46
2, 450155, Note_on_c, 0, 64, 49
2, 450157, Note_on_c, 0, 86, 40
2, 450163, Note_on_c, 0, 88, 39
2, 450171, Note_on_c, 0, 76, 44
2, 450194, Note_on_c, 0, 53, 26
2, 450288, Note_on_c, 0, 81, 18
2, 450311, Note_on_c, 0, 88, 0
2, 450459, Note_on_c, 0, 76, 0
2, 450947, Control_c, 0, 64, 127
2, 451210, Note_on_c, 0, 59, 0
2, 451211, Note_on_c, 0, 53, 0
2, 451221, Note_on_c, 0, 64, 0
2, 451229, Note_on_c, 0, 74, 0
2, 451269, Note_on_c, 0, 86, 0
2, 451274, Note_on_c, 0, 81, 0
2, 451635, Control_c, 0, 64, 0
2, 451650, Note_on_c, 0, 76, 56
2, 451651, Note_on_c, 0, 88, 59
2, 451653, Note_on_c, 0, 64, 52
2, 451661, Note_on_c, 0, 59, 50
2, 451671, Note_on_c, 0, 81, 40
2, 451685, Note_on_c, 0, 53, 26
2, 451725, Note_on_c, 0, 64, 0
2, 451730, Note_on_c, 0, 76, 0
2, 451737, Note_on_c, 0, 59, 0
2, 451744, Note_on_c, 0, 81, 0
2, 451747, Note_on_c, 0, 88, 0
2, 451779, Note_on_c, 0, 53, 0
2, 452605, Note_on_c, 0, 84, 53
2, 452623, Note_on_c, 0, 79, 42
2, 452624, Note_on_c, 0, 72, 33
2, 452630, Note_on_c, 0, 62, 35
2, 452642, Note_on_c, 0, 57, 36
2, 452670, Note_on_c, 0, 52, 24
2, 453074, Control_c, 0, 64, 127
2, 453371, Note_on_c, 0, 84, 0
2, 453407, Note_on_c, 0, 79, 0
2, 453487, Note_on_c, 0, 72, 0
2, 454133, Note_on_c, 0, 62, 0
2, 454195, Note_on_c, 0, 57, 0
2, 454589, Note_on_c, 0, 62, 29
2, 454634, Control_c, 0, 64, 0
2, 454654, Note_on_c, 0, 62, 0
2, 454883, Note_on_c, 0, 67, 37
2, 454912, Note_on_c, 0, 68, 48
2, 454977, Note_on_c, 0, 67, 0
2, 455034, Note_on_c, 0, 68, 0
2, 455087, Note_on_c, 0, 69, 24
2, 455211, Note_on_c, 0, 69, 0
2, 455546, Note_on_c, 0, 72, 58
2, 455559, Note_on_c, 0, 62, 41
2, 455567, Note_on_c, 0, 57, 31
2, 455632, Note_on_c, 0, 52, 0
2, 455653, Note_on_c, 0, 57, 0
2, 455707, Note_on_c, 0, 72, 0
2, 455837, Note_on_c, 0, 74, 69
2, 456083, Note_on_c, 0, 62, 0
2, 456371, Note_on_c, 0, 74, 0
2, 456544, Note_on_c, 0, 72, 36
2, 456640, Note_on_c, 0, 72, 0
2, 456815, Note_on_c, 0, 63, 34
2, 456834, Note_on_c, 0, 65, 24
2, 456835, Note_on_c, 0, 75, 60
2, 456837, Note_on_c, 0, 57, 30
2, 457218, Note_on_c, 0, 65, 0
2, 457245, Note_on_c, 0, 57, 0
2, 457251, Note_on_c, 0, 63, 0
2, 457328, Note_on_c, 0, 75, 0
2, 458526, Note_on_c, 0, 74, 70
2, 458563, Note_on_c, 0, 65, 36
2, 458571, Note_on_c, 0, 63, 30
2, 458600, Note_on_c, 0, 57, 24
2, 458661, Note_on_c, 0, 65, 0
2, 458687, Note_on_c, 0, 57, 0
2, 458735, Note_on_c, 0, 63, 0
2, 458736, Note_on_c, 0, 74, 0
2, 458857, Note_on_c, 0, 72, 53
2, 459360, Note_on_c, 0, 72, 0
2, 459437, Note_on_c, 0, 74, 44
2, 459576, Note_on_c, 0, 72, 36
2, 459603, Note_on_c, 0, 74, 0
2, 459744, Note_on_c, 0, 72, 0
2, 459749, Note_on_c, 0, 69, 45
2, 459808, Note_on_c, 0, 57, 24
2, 459857, Note_on_c, 0, 69, 0
2, 459939, Note_on_c, 0, 57, 0
2, 460024, Note_on_c, 0, 72, 52
2, 460139, Note_on_c, 0, 72, 0
2, 460530, Note_on_c, 0, 74, 67
2, 460739, Note_on_c, 0, 74, 0
2, 460889, Note_on_c, 0, 72, 56
2, 461331, Note_on_c, 0, 72, 0
2, 462623, Note_on_c, 0, 62, 42
2, 462662, Note_on_c, 0, 57, 32
2, 462727, Note_on_c, 0, 62, 0
2, 462741, Note_on_c, 0, 57, 0
2, 463301, Note_on_c, 0, 69, 33
2, 463426, Note_on_c, 0, 69, 0
2, 463592, Note_on_c, 0, 72, 50
2, 463783, Note_on_c, 0, 72, 0
2, 464186, Note_on_c, 0, 74, 67
2, 464338, Note_on_c, 0, 74, 0
2, 464483, Note_on_c, 0, 51, 37
2, 464498, Note_on_c, 0, 62, 34
2, 464508, Note_on_c, 0, 71, 54
2, 464531, Note_on_c, 0, 57, 40
2, 464863, Note_on_c, 0, 57, 0
2, 464891, Note_on_c, 0, 62, 0
2, 464917, Note_on_c, 0, 51, 0
2, 464944, Note_on_c, 0, 71, 0
2, 465131, Note_on_c, 0, 74, 52
2, 465279, Note_on_c, 0, 74, 0
2, 465453, Note_on_c, 0, 51, 34
2, 465467, Note_on_c, 0, 62, 35
2, 465477, Note_on_c, 0, 67, 51
2, 465509, Note_on_c, 0, 57, 39
2, 466104, Note_on_c, 0, 67, 0
2, 466130, Note_on_c, 0, 62, 0
2, 466209, Note_on_c, 0, 57, 0
2, 466267, Note_on_c, 0, 51, 0
2, 466395, Note_on_c, 0, 67, 36
2, 466414, Note_on_c, 0, 62, 41
2, 466421, Note_on_c, 0, 51, 37
2, 466424, Note_on_c, 0, 57, 39
2, 466821, Note_on_c, 0, 51, 0
2, 466879, Note_on_c, 0, 62, 0
2, 466891, Note_on_c, 0, 57, 0
2, 466938, Note_on_c, 0, 67, 0
2, 467030, Note_on_c, 0, 71, 57
2, 467088, Note_on_c, 0, 51, 33
2, 467192, Note_on_c, 0, 71, 0
2, 467221, Note_on_c, 0, 51, 0
2, 467371, Note_on_c, 0, 51, 35
2, 467381, Note_on_c, 0, 65, 56
2, 467398, Note_on_c, 0, 69, 51
2, 467403, Note_on_c, 0, 57, 35
2, 467404, Note_on_c, 0, 60, 48
2, 467558, Note_on_c, 0, 65, 0
2, 467566, Note_on_c, 0, 60, 0
2, 467574, Note_on_c, 0, 69, 0
2, 467617, Note_on_c, 0, 57, 0
2, 467627, Note_on_c, 0, 51, 0
2, 468064, Note_on_c, 0, 52, 29
2, 468146, Note_on_c, 0, 52, 0
2, 468355, Note_on_c, 0, 67, 46
2, 468361, Note_on_c, 0, 62, 46
2, 468369, Note_on_c, 0, 52, 31
2, 468376, Note_on_c, 0, 59, 37
2, 469206, Note_on_c, 0, 62, 0
2, 469327, Note_on_c, 0, 67, 0
2, 469352, Control_c, 0, 64, 127
2, 469467, Note_on_c, 0, 59, 0
2, 470144, Control_c, 0, 64, 0
2, 470224, Note_on_c, 0, 52, 0
2, 470320, Note_on_c, 0, 70, 80
2, 470326, Note_on_c, 0, 76, 72
2, 470625, Note_on_c, 0, 71, 39
2, 470627, Note_on_c, 0, 70, 0
2, 470910, Note_on_c, 0, 71, 0
2, 470927, Note_on_c, 0, 76, 0
2, 471269, Note_on_c, 0, 76, 45
2, 471276, Note_on_c, 0, 67, 54
2, 471770, Note_on_c, 0, 76, 0
2, 471800, Note_on_c, 0, 67, 0
2, 472235, Note_on_c, 0, 69, 52
2, 472238, Note_on_c, 0, 76, 50
2, 472637, Note_on_c, 0, 76, 0
2, 472653, Note_on_c, 0, 69, 0
2, 473863, Note_on_c, 0, 54, 60
2, 473866, Note_on_c, 0, 64, 61
2, 473874, Note_on_c, 0, 60, 62
2, 473979, Note_on_c, 0, 64, 0
2, 474031, Note_on_c, 0, 60, 0
2, 474080, Note_on_c, 0, 54, 0
2, 474869, Note_on_c, 0, 60, 57
2, 474871, Note_on_c, 0, 54, 50
2, 474872, Note_on_c, 0, 64, 57
2, 474947, Note_on_c, 0, 64, 0
2, 474990, Note_on_c, 0, 60, 0
2, 475018, Note_on_c, 0, 54, 0
2, 475875, Note_on_c, 0, 59, 64
2, 475930, Note_on_c, 0, 59, 0
2, 476160, Note_on_c, 0, 70, 57
2, 476669, Note_on_c, 0, 70, 0
2, 476792, Note_on_c, 0, 71, 58
2, 476992, Note_on_c, 0, 71, 0
2, 477096, Note_on_c, 0, 78, 71
2, 477501, Note_on_c, 0, 78, 0
2, 477725, Note_on_c, 0, 79, 88
2, 477747, Note_on_c, 0, 62, 51
2, 477799, Note_on_c, 0, 59, 24
2, 477823, Note_on_c, 0, 62, 0
2, 477861, Note_on_c, 0, 55, 24
2, 477941, Note_on_c, 0, 55, 0
2, 477943, Note_on_c, 0, 59, 0
2, 477953, Note_on_c, 0, 79, 0
2, 478085, Note_on_c, 0, 78, 59
2, 478376, Note_on_c, 0, 76, 55
2, 478525, Note_on_c, 0, 78, 0
2, 478561, Note_on_c, 0, 76, 0
2, 478658, Note_on_c, 0, 71, 39
2, 478703, Note_on_c, 0, 62, 27
2, 478757, Note_on_c, 0, 62, 0
2, 478783, Note_on_c, 0, 55, 24
2, 478819, Note_on_c, 0, 71, 0
2, 478912, Note_on_c, 0, 55, 0
2, 479008, Note_on_c, 0, 67, 25
2, 479504, Note_on_c, 0, 67, 0
2, 479662, Note_on_c, 0, 62, 31
2, 479730, Note_on_c, 0, 62, 0
2, 480819, Note_on_c, 0, 71, 65
2, 480821, Note_on_c, 0, 61, 60
2, 480824, Note_on_c, 0, 68, 59
2, 480837, Note_on_c, 0, 64, 68
2, 480855, Note_on_c, 0, 59, 54
2, 480869, Note_on_c, 0, 57, 41
2, 481174, Note_on_c, 0, 64, 0
2, 481200, Note_on_c, 0, 57, 0
2, 481215, Note_on_c, 0, 61, 0
2, 481224, Note_on_c, 0, 59, 0
2, 481248, Note_on_c, 0, 71, 0
2, 481263, Note_on_c, 0, 68, 0
2, 481493, Note_on_c, 0, 61, 57
2, 481506, Note_on_c, 0, 68, 62
2, 481512, Note_on_c, 0, 71, 62
2, 481528, Note_on_c, 0, 64, 65
2, 481538, Note_on_c, 0, 59, 49
2, 481555, Note_on_c, 0, 57, 43
2, 481759, Note_on_c, 0, 64, 0
2, 481802, Note_on_c, 0, 61, 0
2, 481805, Note_on_c, 0, 57, 0
2, 481813, Note_on_c, 0, 59, 0
2, 481845, Note_on_c, 0, 71, 0
2, 481853, Control_c, 0, 64, 127
2, 481856, Note_on_c, 0, 68, 0
2, 482103, Note_on_c, 0, 61, 53
2, 482112, Note_on_c, 0, 68, 55
2, 482123, Note_on_c, 0, 71, 54
2, 482137, Note_on_c, 0, 64, 58
2, 482448, Note_on_c, 0, 64, 0
2, 482456, Note_on_c, 0, 61, 0
2, 482487, Note_on_c, 0, 71, 0
2, 482520, Note_on_c, 0, 68, 0
2, 482619, Control_c, 0, 64, 0
2, 482775, Note_on_c, 0, 61, 48
2, 482792, Note_on_c, 0, 68, 47
2, 482797, Note_on_c, 0, 71, 51
2, 482817, Note_on_c, 0, 64, 54
2, 482866, Note_on_c, 0, 57, 25
2, 482986, Note_on_c, 0, 61, 0
2, 483037, Note_on_c, 0, 57, 0
2, 483068, Note_on_c, 0, 71, 0
2, 483091, Note_on_c, 0, 64, 0
2, 483115, Control_c, 0, 64, 127
2, 483176, Note_on_c, 0, 68, 0
2, 483211, Control_c, 0, 64, 0
2, 483291, Control_c, 0, 64, 127
2, 483434, Note_on_c, 0, 67, 42
2, 483437, Note_on_c, 0, 69, 55
2, 483480, Note_on_c, 0, 62, 28
2, 483481, Note_on_c, 0, 57, 28
2, 483493, Note_on_c, 0, 64, 25
2, 483571, Note_on_c, 0, 57, 0
2, 483589, Note_on_c, 0, 62, 0
2, 483592, Note_on_c, 0, 64, 0
2, 483597, Control_c, 0, 64, 0
2, 483603, Note_on_c, 0, 67, 0
2, 483658, Note_on_c, 0, 69, 0
2, 483947, Note_on_c, 0, 59, 33
2, 483960, Note_on_c, 0, 69, 50
2, 483974, Note_on_c, 0, 62, 40
2, 483983, Note_on_c, 0, 66, 44
2, 483984, Note_on_c, 0, 55, 33
2, 483991, Note_on_c, 0, 57, 32
2, 484149, Note_on_c, 0, 59, 0
2, 484165, Note_on_c, 0, 57, 0
2, 484197, Note_on_c, 0, 62, 0
2, 484213, Note_on_c, 0, 69, 0
2, 484226, Note_on_c, 0, 55, 0
2, 484250, Note_on_c, 0, 66, 0
2, 484687, Note_on_c, 0, 66, 43
2, 484691, Note_on_c, 0, 69, 41
2, 484698, Note_on_c, 0, 62, 50
2, 484714, Note_on_c, 0, 57, 32
2, 484727, Note_on_c, 0, 55, 36
2, 484728, Note_on_c, 0, 59, 19
2, 484821, Note_on_c, 0, 59, 0
2, 484823, Note_on_c, 0, 57, 0
2, 484832, Note_on_c, 0, 62, 0
2, 484881, Note_on_c, 0, 55, 0
2, 484885, Note_on_c, 0, 69, 0
2, 484895, Note_on_c, 0, 66, 0
2, 485367, Note_on_c, 0, 67, 49
2, 485395, Note_on_c, 0, 55, 46
2, 485400, Note_on_c, 0, 62, 50
2, 485402, Note_on_c, 0, 57, 40
2, 485413, Note_on_c, 0, 59, 34
2, 485513, Note_on_c, 0, 59, 0
2, 485573, Note_on_c, 0, 57, 0
2, 485592, Note_on_c, 0, 55, 0
2, 485595, Note_on_c, 0, 62, 0
2, 485635, Note_on_c, 0, 67, 0
2, 485928, Note_on_c, 0, 69, 55
2, 485955, Note_on_c, 0, 66, 46
2, 485958, Note_on_c, 0, 55, 31
2, 485963, Note_on_c, 0, 59, 27
2, 485965, Note_on_c, 0, 57, 32
2, 485973, Note_on_c, 0, 62, 47
2, 486166, Note_on_c, 0, 59, 0
2, 486192, Note_on_c, 0, 57, 0
2, 486223, Note_on_c, 0, 55, 0
2, 486254, Note_on_c, 0, 62, 0
2, 486266, Note_on_c, 0, 69, 0
2, 486312, Note_on_c, 0, 66, 0
2, 486424, Note_on_c, 0, 71, 52
2, 486491, Note_on_c, 0, 67, 33
2, 486514, Note_on_c, 0, 59, 24
2, 486533, Note_on_c, 0, 55, 20
2, 486573, Note_on_c, 0, 67, 0
2, 486603, Note_on_c, 0, 71, 0
2, 486616, Note_on_c, 0, 59, 0
2, 486623, Note_on_c, 0, 55, 0
2, 487279, Note_on_c, 0, 69, 48
2, 487306, Note_on_c, 0, 62, 43
2, 487317, Note_on_c, 0, 57, 36
2, 487328, Note_on_c, 0, 51, 37
2, 488378, Note_on_c, 0, 62, 0
2, 488481, Note_on_c, 0, 57, 0
2, 488519, Note_on_c, 0, 69, 0
2, 488575, Note_on_c, 0, 57, 19
2, 488601, Note_on_c, 0, 62, 32
2, 488626, Note_on_c, 0, 67, 35
2, 488781, Note_on_c, 0, 62, 0
2, 488847, Note_on_c, 0, 57, 0
2, 488885, Note_on_c, 0, 51, 0
2, 489077, Note_on_c, 0, 67, 0
2, 489243, Note_on_c, 0, 51, 29
2, 489346, Note_on_c, 0, 51, 0
2, 489535, Note_on_c, 0, 63, 48
2, 489536, Note_on_c, 0, 69, 49
2, 489551, Note_on_c, 0, 51, 32
2, 489561, Note_on_c, 0, 57, 30
2, 490173, Note_on_c, 0, 57, 0
2, 490219, Note_on_c, 0, 51, 0
2, 490306, Note_on_c, 0, 63, 0
2, 490373, Note_on_c, 0, 69, 0
2, 490504, Note_on_c, 0, 51, 31
2, 490511, Note_on_c, 0, 67, 41
2, 490541, Note_on_c, 0, 63, 23
2, 490544, Note_on_c, 0, 57, 34
2, 490753, Note_on_c, 0, 63, 0
2, 490762, Note_on_c, 0, 51, 0
2, 490832, Note_on_c, 0, 57, 0
2, 491023, Note_on_c, 0, 67, 0
2, 491128, Note_on_c, 0, 51, 44
2, 491291, Note_on_c, 0, 51, 0
2, 491440, Note_on_c, 0, 64, 53
2, 491455, Note_on_c, 0, 69, 51
2, 491485, Note_on_c, 0, 52, 19
2, 491491, Note_on_c, 0, 55, 37
2, 491496, Note_on_c, 0, 59, 28
2, 491949, Note_on_c, 0, 59, 0
2, 491960, Note_on_c, 0, 55, 0
2, 492007, Note_on_c, 0, 52, 0
2, 492101, Note_on_c, 0, 64, 0
2, 492249, Note_on_c, 0, 69, 0
2, 492387, Note_on_c, 0, 64, 30
2, 492415, Note_on_c, 0, 55, 34
2, 492434, Note_on_c, 0, 67, 40
2, 492448, Note_on_c, 0, 52, 20
2, 492450, Note_on_c, 0, 59, 18
2, 492730, Note_on_c, 0, 59, 0
2, 492747, Note_on_c, 0, 52, 0
2, 492767, Note_on_c, 0, 55, 0
2, 492866, Note_on_c, 0, 64, 0
2, 492981, Note_on_c, 0, 67, 0
2, 493122, Note_on_c, 0, 55, 32
2, 493131, Note_on_c, 0, 69, 34
2, 493243, Note_on_c, 0, 69, 0
2, 493294, Note_on_c, 0, 55, 0
2, 494055, Note_on_c, 0, 67, 36
2, 494056, Note_on_c, 0, 64, 32
2, 494058, Note_on_c, 0, 55, 35
2, 494085, Note_on_c, 0, 52, 18
2, 494235, Note_on_c, 0, 55, 0
2, 494254, Note_on_c, 0, 64, 0
2, 494259, Note_on_c, 0, 52, 0
2, 494263, Note_on_c, 0, 67, 0
2, 494957, Note_on_c, 0, 51, 34
2, 494960, Note_on_c, 0, 62, 36
2, 494992, Note_on_c, 0, 57, 41
2, 495317, Note_on_c, 0, 57, 0
2, 495382, Note_on_c, 0, 62, 0
2, 495449, Note_on_c, 0, 51, 0
2, 496331, Control_c, 0, 64, 127
2, 497768, Note_on_c, 0, 59, 45
2, 497815, Control_c, 0, 64, 0
2, 498151, Note_on_c, 0, 60, 35
2, 498237, Note_on_c, 0, 60, 0
2, 498378, Note_on_c, 0, 59, 0
2, 498491, Note_on_c, 0, 63, 32
2, 498645, Note_on_c, 0, 63, 0
2, 498736, Note_on_c, 0, 69, 83
2, 499026, Note_on_c, 0, 55, 24
2, 499038, Note_on_c, 0, 52, 15
2, 499063, Note_on_c, 0, 69, 0
2, 499112, Note_on_c, 0, 66, 48
2, 499345, Note_on_c, 0, 66, 0
2, 499425, Note_on_c, 0, 67, 58
2, 499661, Note_on_c, 0, 67, 0
2, 499746, Note_on_c, 0, 64, 36
2, 499902, Note_on_c, 0, 64, 0
2, 500111, Note_on_c, 0, 59, 22
2, 500208, Note_on_c, 0, 55, 0
2, 500475, Note_on_c, 0, 59, 0
2, 500661, Note_on_c, 0, 59, 51
2, 500709, Note_on_c, 0, 52, 0
2, 500851, Note_on_c, 0, 59, 0
2, 501186, Note_on_c, 0, 59, 59
2, 501397, Note_on_c, 0, 59, 0
2, 501488, Note_on_c, 0, 60, 32
2, 501559, Note_on_c, 0, 60, 0
2, 501613, Note_on_c, 0, 59, 35
2, 501786, Note_on_c, 0, 59, 0
2, 501798, Note_on_c, 0, 58, 51
2, 501911, Note_on_c, 0, 58, 0
2, 502021, Note_on_c, 0, 59, 50
2, 502408, Note_on_c, 0, 59, 0
2, 502442, Note_on_c, 0, 60, 69
2, 502691, Note_on_c, 0, 60, 0
2, 502712, Note_on_c, 0, 62, 64
2, 502904, Note_on_c, 0, 57, 34
2, 502941, Note_on_c, 0, 47, 24
2, 502951, Note_on_c, 0, 62, 0
2, 503029, Note_on_c, 0, 57, 0
2, 503071, Note_on_c, 0, 63, 39
2, 503123, Note_on_c, 0, 47, 0
2, 503528, Note_on_c, 0, 63, 0
2, 504525, Note_on_c, 0, 57, 52
2, 504584, Note_on_c, 0, 51, 25
2, 504608, Note_on_c, 0, 57, 0
2, 504744, Note_on_c, 0, 51, 0
2, 504882, Note_on_c, 0, 65, 73
2, 505080, Note_on_c, 0, 65, 0
2, 505147, Note_on_c, 0, 63, 48
2, 505342, Note_on_c, 0, 63, 0
2, 505408, Note_on_c, 0, 64, 48
2, 505602, Note_on_c, 0, 64, 0
2, 505651, Note_on_c, 0, 65, 64
2, 505731, Note_on_c, 0, 51, 28
2, 505767, Note_on_c, 0, 62, 19
2, 505776, Note_on_c, 0, 57, 34
2, 505831, Note_on_c, 0, 65, 0
2, 505906, Note_on_c, 0, 66, 49
2, 506023, Note_on_c, 0, 66, 0
2, 506023, Note_on_c, 0, 57, 0
2, 506283, Note_on_c, 0, 51, 0
2, 506339, Note_on_c, 0, 70, 59
2, 506352, Note_on_c, 0, 62, 0
2, 506611, Note_on_c, 0, 71, 79
2, 506666, Note_on_c, 0, 70, 0
2, 506685, Note_on_c, 0, 62, 25
2, 506736, Note_on_c, 0, 55, 47
2, 506743, Note_on_c, 0, 59, 31
2, 506750, Note_on_c, 0, 52, 15
2, 506792, Note_on_c, 0, 71, 0
2, 506853, Note_on_c, 0, 74, 79
2, 506995, Note_on_c, 0, 62, 0
2, 507101, Note_on_c, 0, 59, 0
2, 507123, Note_on_c, 0, 74, 0
2, 507178, Note_on_c, 0, 71, 45
2, 507199, Note_on_c, 0, 55, 0
2, 507285, Note_on_c, 0, 71, 0
2, 507386, Note_on_c, 0, 72, 64
2, 507411, Note_on_c, 0, 52, 0
2, 507625, Note_on_c, 0, 72, 0
2, 507679, Note_on_c, 0, 71, 47
2, 507841, Note_on_c, 0, 71, 0
2, 507925, Note_on_c, 0, 67, 46
2, 508117, Note_on_c, 0, 67, 0
2, 508355, Note_on_c, 0, 64, 56
2, 508535, Note_on_c, 0, 64, 0
2, 508840, Note_on_c, 0, 63, 57
2, 509247, Note_on_c, 0, 63, 0
2, 509411, Note_on_c, 0, 66, 73
2, 509723, Note_on_c, 0, 66, 0
2, 509839, Note_on_c, 0, 63, 42
2, 510311, Note_on_c, 0, 63, 0
2, 510344, Note_on_c, 0, 64, 63
2, 510389, Note_on_c, 0, 55, 32
2, 510568, Note_on_c, 0, 55, 0
2, 510589, Note_on_c, 0, 64, 0
2, 510763, Note_on_c, 0, 66, 48
2, 511338, Note_on_c, 0, 62, 34
2, 511341, Note_on_c, 0, 51, 32
2, 511405, Note_on_c, 0, 62, 0
2, 511437, Note_on_c, 0, 51, 0
2, 511523, Note_on_c, 0, 66, 0
2, 511645, Note_on_c, 0, 69, 55
2, 512141, Note_on_c, 0, 69, 0
2, 512647, Control_c, 0, 64, 127
2, 513536, Note_on_c, 0, 71, 71
2, 513788, Note_on_c, 0, 71, 0
2, 514164, Note_on_c, 0, 76, 80
2, 514346, Note_on_c, 0, 62, 39
2, 514442, Note_on_c, 0, 62, 0
2, 514468, Note_on_c, 0, 76, 0
2, 514604, Note_on_c, 0, 74, 60
2, 515001, Note_on_c, 0, 74, 0
2, 515190, Note_on_c, 0, 71, 60
2, 515415, Note_on_c, 0, 71, 0
2, 515523, Note_on_c, 0, 67, 49
2, 516084, Note_on_c, 0, 67, 0
2, 516196, Note_on_c, 0, 64, 29
2, 516334, Note_on_c, 0, 64, 0
2, 516419, Note_on_c, 0, 68, 48
2, 516517, Note_on_c, 0, 68, 0
2, 516529, Note_on_c, 0, 67, 42
2, 517399, Note_on_c, 0, 64, 54
2, 517466, Note_on_c, 0, 67, 0
2, 517939, Note_on_c, 0, 64, 0
2, 518339, Note_on_c, 0, 66, 51
2, 518372, Note_on_c, 0, 60, 37
2, 518406, Note_on_c, 0, 54, 39
2, 518435, Note_on_c, 0, 63, 36
2, 519786, Note_on_c, 0, 60, 0
2, 519886, Note_on_c, 0, 66, 0
2, 519912, Note_on_c, 0, 63, 0
2, 519967, Note_on_c, 0, 51, 32
2, 520178, Note_on_c, 0, 63, 88
2, 520190, Note_on_c, 0, 60, 88
2, 520192, Note_on_c, 0, 66, 77
2, 520197, Note_on_c, 0, 69, 81
2, 520211, Note_on_c, 0, 57, 74
2, 520296, Note_on_c, 0, 51, 0
2, 520331, Note_on_c, 0, 54, 0
2, 521495, Note_on_c, 0, 69, 0
2, 521654, Note_on_c, 0, 63, 0
2, 521763, Note_on_c, 0, 66, 0
2, 521828, Note_on_c, 0, 60, 0
2, 521873, Note_on_c, 0, 57, 0
2, 521893, Note_on_c, 0, 52, 40
2, 522123, Note_on_c, 0, 55, 49
2, 522127, Note_on_c, 0, 67, 53
2, 522139, Note_on_c, 0, 60, 54
2, 522141, Note_on_c, 0, 52, 0
2, 522152, Note_on_c, 0, 64, 61
2, 522176, Note_on_c, 0, 57, 46
2, 522629, Note_on_c, 0, 64, 0
2, 522647, Note_on_c, 0, 55, 0
2, 522649, Note_on_c, 0, 60, 0
2, 522655, Note_on_c, 0, 57, 0
2, 522674, Note_on_c, 0, 67, 0
2, 522838, Note_on_c, 0, 55, 50
2, 522844, Note_on_c, 0, 67, 40
2, 522853, Note_on_c, 0, 57, 44
2, 522859, Note_on_c, 0, 60, 60
2, 522895, Note_on_c, 0, 64, 41
2, 522938, Note_on_c, 0, 57, 0
2, 522983, Note_on_c, 0, 64, 0
2, 523005, Note_on_c, 0, 60, 0
2, 523025, Note_on_c, 0, 55, 0
2, 523086, Note_on_c, 0, 67, 0
2, 524761, Note_on_c, 0, 87, 64
2, 524763, Note_on_c, 0, 75, 64
2, 524769, Note_on_c, 0, 65, 50
2, 524789, Note_on_c, 0, 82, 54
2, 524791, Note_on_c, 0, 54, 38
2, 524813, Note_on_c, 0, 60, 49
2, 524822, Note_on_c, 0, 58, 47
2, 525354, Control_c, 0, 64, 127
2, 525598, Control_c, 0, 64, 0
2, 525604, Note_on_c, 0, 65, 0
2, 525781, Note_on_c, 0, 60, 0
2, 525795, Note_on_c, 0, 58, 0
2, 525797, Note_on_c, 0, 54, 0
2, 525901, Note_on_c, 0, 87, 0
2, 525907, Note_on_c, 0, 75, 0
2, 525933, Note_on_c, 0, 82, 0
2, 526031, Note_on_c, 0, 55, 47
2, 526063, Note_on_c, 0, 65, 47
2, 526098, Note_on_c, 0, 74, 47
2, 526104, Note_on_c, 0, 86, 58
2, 526110, Note_on_c, 0, 60, 43
2, 526116, Control_c, 0, 64, 127
2, 526122, Note_on_c, 0, 81, 44
2, 526144, Note_on_c, 0, 57, 42
2, 526543, Control_c, 0, 64, 0
2, 526908, Control_c, 0, 64, 127
2, 527270, Note_on_c, 0, 60, 0
2, 527311, Note_on_c, 0, 65, 0
2, 527380, Note_on_c, 0, 57, 0
2, 527382, Note_on_c, 0, 55, 0
2, 527640, Control_c, 0, 64, 0
2, 527662, Note_on_c, 0, 64, 54
2, 527685, Note_on_c, 0, 59, 40
2, 527729, Note_on_c, 0, 53, 35
2, 527731, Note_on_c, 0, 81, 0
2, 527794, Note_on_c, 0, 86, 0
2, 527947, Note_on_c, 0, 74, 0
2, 528067, Control_c, 0, 64, 127
2, 528841, Note_on_c, 0, 53, 0
2, 528855, Note_on_c, 0, 59, 0
2, 529001, Note_on_c, 0, 64, 0
2, 529733, Control_c, 0, 64, 0
2, 530499, Note_on_c, 0, 58, 25
2, 530800, Note_on_c, 0, 58, 0
2, 530820, Note_on_c, 0, 75, 63
2, 530828, Note_on_c, 0, 60, 44
2, 530832, Note_on_c, 0, 64, 64
2, 530840, Note_on_c, 0, 70, 57
2, 530903, Note_on_c, 0, 60, 0
2, 530958, Note_on_c, 0, 64, 0
2, 530972, Note_on_c, 0, 75, 0
2, 530991, Note_on_c, 0, 70, 0
2, 531834, Control_c, 0, 64, 127
2, 532389, Note_on_c, 0, 63, 53
2, 532421, Note_on_c, 0, 42, 33
2, 532442, Note_on_c, 0, 58, 48
2, 532464, Note_on_c, 0, 49, 23
2, 532488, Note_on_c, 0, 52, 14
2, 532588, Control_c, 0, 64, 0
2, 532811, Control_c, 0, 64, 127
2, 532966, Note_on_c, 0, 52, 0
2, 533354, Note_on_c, 0, 63, 0
2, 533376, Note_on_c, 0, 42, 0
2, 533378, Note_on_c, 0, 58, 0
2, 533470, Note_on_c, 0, 49, 0
2, 533663, Control_c, 0, 64, 0
2, 533742, Note_on_c, 0, 51, 25
2, 533758, Note_on_c, 0, 62, 38
2, 533797, Note_on_c, 0, 57, 36
2, 533829, Note_on_c, 0, 41, 24
2, 533894, Note_on_c, 0, 48, 34
2, 534583, Note_on_c, 0, 51, 0
2, 534732, Control_c, 0, 64, 127
2, 534825, Note_on_c, 0, 57, 0
2, 535008, Note_on_c, 0, 62, 0
2, 535093, Note_on_c, 0, 48, 0
2, 535365, Note_on_c, 0, 48, 24
2, 535367, Note_on_c, 0, 41, 0
2, 535384, Note_on_c, 0, 57, 47
2, 535660, Note_on_c, 0, 57, 0
2, 535670, Note_on_c, 0, 48, 0
2, 536390, Note_on_c, 0, 75, 74
2, 536396, Note_on_c, 0, 79, 71
2, 536520, Control_c, 0, 64, 0
2, 536591, Note_on_c, 0, 79, 0
2, 536595, Note_on_c, 0, 75, 0
2, 536711, Note_on_c, 0, 79, 69
2, 536737, Note_on_c, 0, 76, 72
2, 536902, Note_on_c, 0, 79, 0
2, 536904, Note_on_c, 0, 76, 0
2, 537150, Note_on_c, 0, 81, 85
2, 537168, Note_on_c, 0, 77, 78
2, 537332, Note_on_c, 0, 77, 0
2, 537379, Note_on_c, 0, 81, 0
2, 537583, Note_on_c, 0, 75, 75
2, 537595, Note_on_c, 0, 79, 68
2, 537755, Note_on_c, 0, 79, 0
2, 537790, Note_on_c, 0, 75, 0
2, 538038, Note_on_c, 0, 75, 56
2, 538050, Note_on_c, 0, 79, 53
2, 538273, Note_on_c, 0, 75, 0
2, 538275, Note_on_c, 0, 76, 58
2, 538473, Note_on_c, 0, 76, 0
2, 538493, Note_on_c, 0, 72, 34
2, 538507, Note_on_c, 0, 79, 0
2, 538607, Note_on_c, 0, 72, 0
2, 538686, Note_on_c, 0, 67, 53
2, 538804, Note_on_c, 0, 67, 0
2, 538956, Note_on_c, 0, 65, 52
2, 539367, Note_on_c, 0, 65, 0
2, 539690, Note_on_c, 0, 69, 66
2, 539722, Note_on_c, 0, 65, 46
2, 539958, Note_on_c, 0, 69, 0
2, 539970, Note_on_c, 0, 65, 0
2, 540346, Note_on_c, 0, 63, 57
2, 540395, Note_on_c, 0, 67, 51
2, 540714, Note_on_c, 0, 63, 0
2, 540919, Note_on_c, 0, 60, 34
2, 541063, Note_on_c, 0, 67, 0
2, 541181, Note_on_c, 0, 60, 0
2, 541382, Note_on_c, 0, 51, 23
2, 541431, Note_on_c, 0, 57, 33
2, 541458, Note_on_c, 0, 41, 15
2, 541671, Note_on_c, 0, 57, 0
2, 541744, Note_on_c, 0, 41, 0
2, 541777, Note_on_c, 0, 51, 0
2, 541980, Note_on_c, 0, 51, 32
2, 541994, Note_on_c, 0, 41, 36
2, 542004, Note_on_c, 0, 57, 43
2, 542244, Note_on_c, 0, 57, 0
2, 542283, Note_on_c, 0, 41, 0
2, 542315, Note_on_c, 0, 51, 0
2, 542604, Note_on_c, 0, 57, 33
2, 542606, Note_on_c, 0, 51, 23
2, 542612, Note_on_c, 0, 41, 28
2, 542880, Note_on_c, 0, 57, 0
2, 542925, Note_on_c, 0, 51, 0
2, 542961, Note_on_c, 0, 41, 0
2, 543339, Note_on_c, 0, 51, 20
2, 543345, Note_on_c, 0, 41, 25
2, 543361, Note_on_c, 0, 57, 25
2, 543646, Note_on_c, 0, 51, 0
2, 543650, Note_on_c, 0, 41, 0
2, 543784, Note_on_c, 0, 57, 0
2, 544847, Note_on_c, 0, 42, 47
2, 544879, Note_on_c, 0, 54, 56
2, 544888, Note_on_c, 0, 51, 32
2, 544890, Note_on_c, 0, 63, 52
2, 545127, Note_on_c, 0, 42, 0
2, 545133, Note_on_c, 0, 63, 0
2, 545154, Note_on_c, 0, 51, 0
2, 545182, Note_on_c, 0, 54, 0
2, 545318, Note_on_c, 0, 64, 55
2, 545328, Note_on_c, 0, 55, 53
2, 545339, Note_on_c, 0, 52, 24
2, 545349, Note_on_c, 0, 43, 34
2, 545641, Note_on_c, 0, 64, 0
2, 545684, Control_c, 0, 64, 127
2, 545723, Note_on_c, 0, 55, 0
2, 545845, Note_on_c, 0, 52, 0
2, 545849, Note_on_c, 0, 43, 0
2, 545906, Control_c, 0, 64, 0
2, 546204, Note_on_c, 0, 67, 66
2, 546227, Note_on_c, 0, 62, 65
2, 546233, Note_on_c, 0, 57, 63
2, 546245, Note_on_c, 0, 52, 45
2, 546353, Control_c, 0, 64, 127
2, 546781, Note_on_c, 0, 57, 0
2, 546834, Note_on_c, 0, 62, 0
2, 546889, Note_on_c, 0, 67, 0
2, 546891, Note_on_c, 0, 52, 0
2, 547023, Note_on_c, 0, 51, 20
2, 547043, Control_c, 0, 64, 0
2, 547165, Note_on_c, 0, 51, 0
2, 547206, Note_on_c, 0, 69, 73
2, 547224, Note_on_c, 0, 64, 68
2, 547232, Note_on_c, 0, 59, 50
2, 547236, Note_on_c, 0, 53, 55
2, 547263, Note_on_c, 0, 60, 57
2, 547332, Note_on_c, 0, 60, 0
2, 547616, Note_on_c, 0, 69, 0
2, 547690, Note_on_c, 0, 64, 0
2, 547734, Note_on_c, 0, 59, 0
2, 547882, Note_on_c, 0, 53, 0
2, 547960, Note_on_c, 0, 52, 39
2, 547964, Note_on_c, 0, 67, 42
2, 548104, Note_on_c, 0, 67, 0
2, 548206, Note_on_c, 0, 52, 0
2, 548275, Note_on_c, 0, 53, 40
2, 548279, Note_on_c, 0, 69, 50
2, 548295, Note_on_c, 0, 64, 55
2, 548332, Note_on_c, 0, 59, 37
2, 548360, Note_on_c, 0, 60, 33
2, 548557, Control_c, 0, 64, 127
2, 548722, Control_c, 0, 64, 0
2, 548734, Note_on_c, 0, 60, 0
2, 548791, Note_on_c, 0, 59, 0
2, 548795, Note_on_c, 0, 64, 0
2, 548894, Note_on_c, 0, 69, 0
2, 549017, Note_on_c, 0, 53, 0
2, 549181, Note_on_c, 0, 41, 39
2, 549211, Note_on_c, 0, 67, 26
2, 549331, Note_on_c, 0, 63, 20
2, 549360, Note_on_c, 0, 57, 24
2, 549555, Note_on_c, 0, 57, 0
2, 550061, Control_c, 0, 64, 127
2, 550297, Note_on_c, 0, 63, 0
2, 550652, Note_on_c, 0, 67, 0
2, 550699, Control_c, 0, 64, 0
2, 550727, Note_on_c, 0, 63, 25
2, 550758, Note_on_c, 0, 59, 24
2, 550774, Note_on_c, 0, 57, 31
2, 550823, Note_on_c, 0, 48, 25
2, 551024, Control_c, 0, 64, 127
2, 551248, Note_on_c, 0, 57, 0
2, 551317, Note_on_c, 0, 41, 0
2, 551737, Note_on_c, 0, 41, 46
2, 551766, Note_on_c, 0, 59, 0
2, 551890, Note_on_c, 0, 41, 0
2, 551904, Note_on_c, 0, 48, 0
2, 552014, Note_on_c, 0, 63, 0
2, 552509, Control_c, 0, 64, 0
2, 552627, Note_on_c, 0, 45, 66
2, 552837, Control_c, 0, 64, 127
2, 552847, Note_on_c, 0, 45, 0
2, 553568, Control_c, 0, 64, 0
2, 553605, Note_on_c, 0, 60, 66
2, 553607, Note_on_c, 0, 55, 72
2, 553609, Note_on_c, 0, 65, 73
2, 553611, Note_on_c, 0, 84, 88
2, 553615, Note_on_c, 0, 77, 81
2, 553617, Note_on_c, 0, 61, 60
2, 553617, Note_on_c, 0, 72, 84
2, 553635, Note_on_c, 0, 81, 64
2, 553674, Note_on_c, 0, 58, 37
2, 553765, Note_on_c, 0, 58, 0
2, 553946, Control_c, 0, 64, 127
2, 555184, Note_on_c, 0, 55, 0
2, 555214, Note_on_c, 0, 60, 0
2, 555269, Note_on_c, 0, 81, 0
2, 555275, Note_on_c, 0, 65, 0
2, 555277, Note_on_c, 0, 61, 0
2, 555281, Note_on_c, 0, 72, 0
2, 555283, Note_on_c, 0, 84, 0
2, 555377, Note_on_c, 0, 77, 0
2, 555734, Control_c, 0, 64, 0
2, 555836, Note_on_c, 0, 61, 42
2, 555840, Note_on_c, 0, 65, 54
2, 555842, Note_on_c, 0, 60, 50
2, 555846, Note_on_c, 0, 83, 59
2, 555873, Note_on_c, 0, 77, 43
2, 555895, Note_on_c, 0, 71, 31
2, 555927, Note_on_c, 0, 65, 0
2, 555966, Note_on_c, 0, 77, 0
2, 555978, Note_on_c, 0, 60, 0
2, 555988, Note_on_c, 0, 61, 0
2, 555996, Note_on_c, 0, 71, 0
2, 556031, Note_on_c, 0, 83, 0
2, 556517, Note_on_c, 0, 72, 59
2, 556519, Note_on_c, 0, 61, 42
2, 556521, Note_on_c, 0, 84, 71
2, 556537, Note_on_c, 0, 65, 41
2, 556608, Note_on_c, 0, 72, 0
2, 556624, Note_on_c, 0, 65, 0
2, 556637, Note_on_c, 0, 61, 0
2, 556696, Note_on_c, 0, 84, 0
2, 556850, Note_on_c, 0, 58, 62
2, 556874, Note_on_c, 0, 65, 66
2, 556880, Note_on_c, 0, 74, 76
2, 556891, Note_on_c, 0, 86, 76
2, 556901, Note_on_c, 0, 54, 52
2, 556907, Note_on_c, 0, 82, 56
2, 556998, Note_on_c, 0, 60, 44
2, 557716, Control_c, 0, 64, 127
2, 558055, Note_on_c, 0, 65, 0
2, 558059, Note_on_c, 0, 74, 0
2, 558073, Note_on_c, 0, 54, 0
2, 558098, Note_on_c, 0, 60, 0
2, 558104, Note_on_c, 0, 86, 0
2, 558126, Note_on_c, 0, 82, 0
2, 558136, Note_on_c, 0, 58, 0
2, 558406, Control_c, 0, 64, 0
2, 558429, Note_on_c, 0, 84, 62
2, 558441, Note_on_c, 0, 72, 52
2, 558443, Note_on_c, 0, 65, 60
2, 558461, Note_on_c, 0, 82, 34
2, 558463, Note_on_c, 0, 54, 51
2, 558471, Note_on_c, 0, 58, 45
2, 558490, Note_on_c, 0, 60, 53
2, 558793, Control_c, 0, 64, 127
2, 559268, Note_on_c, 0, 84, 0
2, 559378, Note_on_c, 0, 72, 0
2, 559500, Note_on_c, 0, 65, 0
2, 559532, Note_on_c, 0, 60, 0
2, 559546, Note_on_c, 0, 54, 0
2, 559611, Note_on_c, 0, 82, 0
2, 559697, Note_on_c, 0, 86, 69
2, 559699, Note_on_c, 0, 74, 64
2, 559711, Note_on_c, 0, 65, 47
2, 559717, Note_on_c, 0, 54, 45
2, 559735, Note_on_c, 0, 60, 45
2, 559788, Control_c, 0, 64, 0
2, 559965, Note_on_c, 0, 74, 0
2, 559973, Note_on_c, 0, 60, 0
2, 560000, Note_on_c, 0, 65, 0
2, 560006, Note_on_c, 0, 86, 0
2, 560111, Note_on_c, 0, 58, 0
2, 560140, Note_on_c, 0, 54, 0
2, 560672, Note_on_c, 0, 55, 68
2, 560674, Note_on_c, 0, 64, 67
2, 560676, Note_on_c, 0, 87, 75
2, 560678, Note_on_c, 0, 75, 79
2, 560682, Note_on_c, 0, 60, 54
2, 561146, Note_on_c, 0, 64, 0
2, 561182, Note_on_c, 0, 60, 0
2, 561186, Note_on_c, 0, 55, 0
2, 561190, Note_on_c, 0, 87, 0
2, 561192, Note_on_c, 0, 75, 0
2, 561324, Control_c, 0, 64, 127
2, 561326, Note_on_c, 0, 55, 42
2, 561337, Note_on_c, 0, 88, 58
2, 561339, Note_on_c, 0, 76, 50
2, 561363, Note_on_c, 0, 64, 39
2, 561379, Note_on_c, 0, 60, 58
2, 561414, Note_on_c, 0, 86, 35
2, 561416, Note_on_c, 0, 81, 39
2, 561446, Note_on_c, 0, 84, 40
2, 561536, Note_on_c, 0, 88, 0
2, 561546, Note_on_c, 0, 76, 0
2, 561548, Note_on_c, 0, 86, 0
2, 561617, Note_on_c, 0, 64, 0
2, 561627, Note_on_c, 0, 55, 0
2, 561631, Note_on_c, 0, 81, 0
2, 561635, Note_on_c, 0, 60, 0
2, 561668, Control_c, 0, 64, 0
2, 561670, Note_on_c, 0, 84, 0
2, 561747, Note_on_c, 0, 75, 31
2, 561792, Note_on_c, 0, 55, 28
2, 561800, Note_on_c, 0, 87, 26
2, 561802, Note_on_c, 0, 64, 25
2, 561830, Note_on_c, 0, 60, 28
2, 562137, Note_on_c, 0, 64, 0
2, 562141, Note_on_c, 0, 55, 0
2, 562166, Note_on_c, 0, 87, 0
2, 562200, Note_on_c, 0, 75, 0
2, 562204, Note_on_c, 0, 60, 0
2, 562346, Note_on_c, 0, 64, 46
2, 562349, Note_on_c, 0, 55, 44
2, 562353, Note_on_c, 0, 88, 52
2, 562367, Note_on_c, 0, 76, 40
2, 562379, Note_on_c, 0, 60, 42
2, 562391, Note_on_c, 0, 81, 44
2, 562420, Note_on_c, 0, 84, 51
2, 562430, Note_on_c, 0, 86, 35
2, 562489, Note_on_c, 0, 88, 0
2, 562505, Note_on_c, 0, 76, 0
2, 562537, Note_on_c, 0, 86, 0
2, 562588, Note_on_c, 0, 64, 0
2, 562596, Note_on_c, 0, 55, 0
2, 562617, Note_on_c, 0, 60, 0
2, 562659, Note_on_c, 0, 81, 0
2, 562710, Note_on_c, 0, 84, 0
2, 562796, Note_on_c, 0, 75, 21
2, 562808, Note_on_c, 0, 87, 33
2, 562818, Note_on_c, 0, 64, 29
2, 562842, Note_on_c, 0, 55, 36
2, 562850, Note_on_c, 0, 60, 35
2, 563100, Note_on_c, 0, 64, 0
2, 563104, Note_on_c, 0, 55, 0
2, 563119, Note_on_c, 0, 60, 0
2, 563129, Note_on_c, 0, 87, 0
2, 563169, Note_on_c, 0, 75, 0
2, 563623, Note_on_c, 0, 88, 49
2, 563635, Note_on_c, 0, 64, 35
2, 563643, Note_on_c, 0, 60, 30
2, 563649, Note_on_c, 0, 55, 38
2, 563653, Note_on_c, 0, 76, 39
2, 563683, Note_on_c, 0, 81, 41
2, 563720, Control_c, 0, 64, 127
2, 563738, Note_on_c, 0, 84, 29
2, 563842, Note_on_c, 0, 84, 0
2, 563850, Note_on_c, 0, 60, 0
2, 563868, Note_on_c, 0, 64, 0
2, 563874, Note_on_c, 0, 55, 0
2, 563887, Note_on_c, 0, 88, 0
2, 563921, Note_on_c, 0, 81, 0
2, 563966, Note_on_c, 0, 76, 0
2, 564451, Control_c, 0, 64, 0
2, 564596, Note_on_c, 0, 84, 68
2, 564604, Note_on_c, 0, 55, 45
2, 564610, Note_on_c, 0, 65, 35
2, 564612, Note_on_c, 0, 61, 38
2, 564616, Note_on_c, 0, 60, 39
2, 564630, Note_on_c, 0, 72, 41
2, 565419, Control_c, 0, 64, 127
2, 565461, Note_on_c, 0, 84, 0
2, 565614, Note_on_c, 0, 72, 0
2, 565640, Note_on_c, 0, 55, 0
2, 565683, Note_on_c, 0, 65, 0
2, 565705, Note_on_c, 0, 60, 0
2, 565726, Note_on_c, 0, 61, 0
2, 566089, Control_c, 0, 64, 0
2, 566142, Note_on_c, 0, 81, 50
2, 566161, Note_on_c, 0, 61, 37
2, 566175, Note_on_c, 0, 69, 39
2, 566177, Note_on_c, 0, 65, 40
2, 566185, Note_on_c, 0, 60, 39
2, 566207, Note_on_c, 0, 55, 41
2, 566695, Control_c, 0, 64, 127
2, 567296, Note_on_c, 0, 69, 0
2, 567341, Note_on_c, 0, 60, 0
2, 567363, Note_on_c, 0, 65, 0
2, 567441, Note_on_c, 0, 55, 0
2, 567457, Note_on_c, 0, 61, 0
2, 567560, Note_on_c, 0, 81, 0
2, 568312, Control_c, 0, 64, 0
2, 568357, Note_on_c, 0, 64, 20
2, 568365, Note_on_c, 0, 60, 35
2, 568375, Note_on_c, 0, 57, 29
2, 568390, Note_on_c, 0, 53, 24
2, 569592, Control_c, 0, 64, 127
2, 569867, Note_on_c, 0, 60, 0
2, 569871, Note_on_c, 0, 64, 0
2, 569879, Note_on_c, 0, 57, 0
2, 569942, Note_on_c, 0, 53, 0
2, 570161, Control_c, 0, 64, 0
2, 570255, Note_on_c, 0, 88, 88
2, 570257, Note_on_c, 0, 76, 94
2, 570261, Note_on_c, 0, 81, 85
2, 570271, Note_on_c, 0, 64, 78
2, 570273, Note_on_c, 0, 84, 77
2, 570275, Note_on_c, 0, 53, 70
2, 570277, Note_on_c, 0, 60, 71
2, 570292, Note_on_c, 0, 57, 65
2, 570487, Control_c, 0, 64, 127
2, 570696, Note_on_c, 0, 53, 0
2, 570706, Note_on_c, 0, 76, 0
2, 570712, Note_on_c, 0, 84, 0
2, 570718, Note_on_c, 0, 64, 0
2, 570730, Note_on_c, 0, 88, 0
2, 570751, Note_on_c, 0, 81, 0
2, 570755, Note_on_c, 0, 57, 0
2, 570765, Note_on_c, 0, 60, 0
2, 570889, Note_on_c, 0, 88, 56
2, 570913, Note_on_c, 0, 81, 54
2, 570915, Note_on_c, 0, 64, 55
2, 570917, Note_on_c, 0, 76, 61
2, 570932, Note_on_c, 0, 53, 56
2, 570934, Note_on_c, 0, 57, 46
2, 570938, Note_on_c, 0, 84, 60
2, 570940, Note_on_c, 0, 60, 66
2, 570956, Control_c, 0, 64, 0
2, 571116, Note_on_c, 0, 64, 0
2, 571161, Note_on_c, 0, 60, 0
2, 571175, Note_on_c, 0, 76, 0
2, 571177, Note_on_c, 0, 84, 0
2, 571179, Note_on_c, 0, 81, 0
2, 571181, Note_on_c, 0, 88, 0
2, 571218, Note_on_c, 0, 57, 0
2, 571275, Note_on_c, 0, 88, 31
2, 571299, Note_on_c, 0, 64, 49
2, 571314, Note_on_c, 0, 60, 35
2, 571322, Note_on_c, 0, 57, 24
2, 571340, Note_on_c, 0, 76, 39
2, 571342, Note_on_c, 0, 81, 46
2, 571344, Note_on_c, 0, 84, 51
2, 571531, Note_on_c, 0, 64, 0
2, 571558, Note_on_c, 0, 81, 0
2, 571560, Note_on_c, 0, 53, 0
2, 571562, Note_on_c, 0, 76, 0
2, 571586, Note_on_c, 0, 84, 0
2, 571608, Note_on_c, 0, 88, 0
2, 571625, Note_on_c, 0, 60, 0
2, 571633, Note_on_c, 0, 57, 0
2, 571860, Note_on_c, 0, 64, 45
2, 571864, Note_on_c, 0, 53, 38
2, 571879, Note_on_c, 0, 88, 63
2, 571881, Note_on_c, 0, 60, 32
2, 571887, Note_on_c, 0, 76, 62
2, 571893, Note_on_c, 0, 81, 57
2, 571899, Note_on_c, 0, 57, 41
2, 571919, Note_on_c, 0, 84, 47
2, 571994, Note_on_c, 0, 60, 0
2, 571998, Note_on_c, 0, 64, 0
2, 572015, Note_on_c, 0, 84, 0
2, 572047, Note_on_c, 0, 88, 0
2, 572063, Note_on_c, 0, 53, 0
2, 572066, Note_on_c, 0, 76, 0
2, 572068, Note_on_c, 0, 81, 0
2, 572096, Note_on_c, 0, 57, 0
2, 572252, Note_on_c, 0, 64, 57
2, 572269, Note_on_c, 0, 53, 34
2, 572271, Note_on_c, 0, 86, 59
2, 572279, Note_on_c, 0, 74, 57
2, 572311, Note_on_c, 0, 80, 30
2, 572317, Note_on_c, 0, 59, 46
2, 572397, Note_on_c, 0, 59, 0
2, 572427, Note_on_c, 0, 64, 0
2, 572443, Note_on_c, 0, 74, 0
2, 572450, Note_on_c, 0, 53, 0
2, 572470, Note_on_c, 0, 86, 0
2, 572513, Note_on_c, 0, 80, 0
2, 573128, Note_on_c, 0, 64, 54
2, 573147, Note_on_c, 0, 84, 62
2, 573175, Note_on_c, 0, 59, 41
2, 573189, Note_on_c, 0, 53, 27
2, 573193, Note_on_c, 0, 79, 38
2, 573199, Note_on_c, 0, 72, 25
2, 573951, Control_c, 0, 64, 127
2, 574061, Note_on_c, 0, 72, 0
2, 574128, Note_on_c, 0, 59, 0
2, 574148, Note_on_c, 0, 64, 0
2, 574161, Note_on_c, 0, 79, 0
2, 574205, Note_on_c, 0, 84, 0
2, 574207, Note_on_c, 0, 53, 0
2, 574547, Note_on_c, 0, 53, 36
2, 574559, Note_on_c, 0, 86, 68
2, 574569, Note_on_c, 0, 64, 36
2, 574581, Note_on_c, 0, 74, 49
2, 574589, Note_on_c, 0, 59, 45
2, 574599, Note_on_c, 0, 81, 45
2, 574841, Note_on_c, 0, 59, 0
2, 574862, Note_on_c, 0, 64, 0
2, 575024, Note_on_c, 0, 53, 0
2, 575136, Note_on_c, 0, 86, 0
2, 575183, Note_on_c, 0, 74, 0
2, 575187, Note_on_c, 0, 81, 0
2, 575790, Note_on_c, 0, 84, 57
2, 575806, Note_on_c, 0, 72, 40
2, 575817, Note_on_c, 0, 79, 44
2, 575843, Note_on_c, 0, 62, 38
2, 575861, Note_on_c, 0, 52, 32
2, 575863, Note_on_c, 0, 57, 37
2, 575900, Control_c, 0, 64, 0
2, 575930, Note_on_c, 0, 84, 0
2, 575945, Note_on_c, 0, 79, 0
2, 575969, Note_on_c, 0, 62, 0
2, 575989, Note_on_c, 0, 57, 0
2, 575991, Note_on_c, 0, 72, 0
2, 576046, Note_on_c, 0, 52, 0
2, 577365, Note_on_c, 0, 34, 32
2, 577621, Note_on_c, 0, 34, 0
2, 577794, Note_on_c, 0, 63, 43
2, 577804, Note_on_c, 0, 36, 33
2, 577820, Note_on_c, 0, 58, 44
2, 577849, Note_on_c, 0, 52, 17
2, 579169, Note_on_c, 0, 52, 0
2, 579436, Note_on_c, 0, 63, 0
2, 579499, Note_on_c, 0, 29, 22
2, 579568, Note_on_c, 0, 58, 0
2, 579629, Note_on_c, 0, 36, 0
2, 579681, Note_on_c, 0, 41, 33
2, 579720, Note_on_c, 0, 51, 29
2, 579722, Note_on_c, 0, 62, 33
2, 579769, Note_on_c, 0, 57, 43
2, 580854, Note_on_c, 0, 57, 0
2, 580876, Note_on_c, 0, 51, 0
2, 580953, Note_on_c, 0, 62, 0
2, 581370, Note_on_c, 0, 36, 35
2, 581520, Note_on_c, 0, 36, 0
2, 581616, Note_on_c, 0, 54, 42
2, 581620, Note_on_c, 0, 53, 33
2, 581807, Note_on_c, 0, 53, 0
2, 581890, Note_on_c, 0, 54, 0
2, 581927, Note_on_c, 0, 55, 31
2, 582114, Note_on_c, 0, 55, 0
2, 582339, Note_on_c, 0, 60, 74
2, 582386, Note_on_c, 0, 29, 0
2, 582492, Note_on_c, 0, 60, 0
2, 582532, Note_on_c, 0, 41, 0
2, 582618, Note_on_c, 0, 62, 84
2, 583115, Note_on_c, 0, 62, 0
2, 583394, Note_on_c, 0, 43, 40
2, 583512, Note_on_c, 0, 43, 0
2, 583624, Note_on_c, 0, 63, 50
2, 583642, Note_on_c, 0, 58, 46
2, 583644, Note_on_c, 0, 36, 31
2, 583690, Note_on_c, 0, 52, 17
2, 583733, Note_on_c, 0, 48, 22
2, 583938, Note_on_c, 0, 63, 0
2, 583943, Note_on_c, 0, 52, 0
2, 583975, Note_on_c, 0, 48, 0
2, 583985, Note_on_c, 0, 36, 0
2, 584058, Note_on_c, 0, 58, 0
2, 584408, Note_on_c, 0, 43, 24
2, 584505, Note_on_c, 0, 43, 0
2, 584536, Note_on_c, 0, 63, 53
2, 584566, Note_on_c, 0, 58, 47
2, 584591, Note_on_c, 0, 52, 31
2, 584605, Note_on_c, 0, 48, 31
2, 586070, Note_on_c, 0, 48, 0
2, 586090, Note_on_c, 0, 52, 0
2, 586121, Note_on_c, 0, 43, 24
2, 586194, Note_on_c, 0, 63, 0
2, 586239, Note_on_c, 0, 58, 0
2, 586259, Note_on_c, 0, 43, 0
2, 586389, Note_on_c, 0, 63, 31
2, 586448, Note_on_c, 0, 58, 44
2, 586468, Note_on_c, 0, 52, 18
2, 586478, Note_on_c, 0, 40, 24
2, 586647, Note_on_c, 0, 52, 0
2, 586930, Note_on_c, 0, 58, 0
2, 586956, Note_on_c, 0, 63, 0
2, 587062, Note_on_c, 0, 40, 0
2, 587137, Note_on_c, 0, 41, 30
2, 587141, Note_on_c, 0, 60, 37
2, 587171, Note_on_c, 0, 57, 33
2, 587342, Note_on_c, 0, 57, 0
2, 587559, Note_on_c, 0, 60, 0
2, 588029, Note_on_c, 0, 29, 34
2, 588602, Note_on_c, 0, 41, 0
2, 588982, Note_on_c, 0, 41, 24
2, 589248, Note_on_c, 0, 65, 88
2, 589258, Note_on_c, 0, 69, 80
2, 589352, Note_on_c, 0, 41, 0
2, 589594, Note_on_c, 0, 69, 0
2, 589608, Note_on_c, 0, 65, 0
2, 589904, Note_on_c, 0, 63, 82
2, 589917, Note_on_c, 0, 67, 74
2, 589941, Note_on_c, 0, 66, 60
2, 590030, Note_on_c, 0, 41, 29
2, 590089, Note_on_c, 0, 64, 64
2, 590100, Note_on_c, 0, 63, 0
2, 590122, Note_on_c, 0, 66, 0
2, 590227, Note_on_c, 0, 64, 0
2, 590292, Note_on_c, 0, 67, 0
2, 590420, Note_on_c, 0, 41, 0
2, 590542, Note_on_c, 0, 60, 6
2, 590748, Note_on_c, 0, 60, 0
2, 590859, Note_on_c, 0, 29, 0
2, 590870, Note_on_c, 0, 35, 32
2, 590926, Note_on_c, 0, 55, 25
2, 591020, Note_on_c, 0, 55, 0
2, 591103, Note_on_c, 0, 35, 0
2, 591174, Note_on_c, 0, 36, 31
2, 591193, Note_on_c, 0, 60, 47
2, 591648, Note_on_c, 0, 60, 0
2, 591747, Note_on_c, 0, 36, 0
2, 592205, Note_on_c, 0, 60, 37
2, 592249, Note_on_c, 0, 55, 22
2, 592475, Note_on_c, 0, 60, 0
2, 592534, Note_on_c, 0, 55, 0
2, 592902, Note_on_c, 0, 36, 24
2, 592987, Note_on_c, 0, 36, 0
2, 593141, Note_on_c, 0, 63, 48
2, 593154, Note_on_c, 0, 40, 40
2, 593162, Note_on_c, 0, 52, 40
2, 593178, Note_on_c, 0, 58, 53
2, 594096, Note_on_c, 0, 28, 35
2, 594184, Control_c, 0, 64, 127
2, 594257, Note_on_c, 0, 52, 0
2, 594298, Note_on_c, 0, 28, 0
2, 594704, Note_on_c, 0, 63, 0
2, 594745, Note_on_c, 0, 58, 0
2, 594771, Control_c, 0, 64, 0
2, 594775, Note_on_c, 0, 61, 33
2, 594820, Note_on_c, 0, 40, 0
2, 594856, Note_on_c, 0, 51, 48
2, 594879, Note_on_c, 0, 29, 32
2, 594909, Note_on_c, 0, 57, 47
2, 595151, Note_on_c, 0, 61, 0
2, 595196, Note_on_c, 0, 60, 50
2, 596092, Control_c, 0, 64, 127
2, 596691, Note_on_c, 0, 41, 67
2, 596744, Control_c, 0, 64, 0
2, 596783, Note_on_c, 0, 51, 0
2, 596888, Note_on_c, 0, 57, 0
2, 597108, Control_c, 0, 64, 127
2, 597703, Note_on_c, 0, 55, 62
2, 597734, Note_on_c, 0, 60, 0
2, 597811, Note_on_c, 0, 41, 0
2, 597927, Note_on_c, 0, 29, 0
2, 597947, Note_on_c, 0, 55, 0
2, 598130, Note_on_c, 0, 57, 43
2, 598636, Note_on_c, 0, 57, 0
2, 598774, Note_on_c, 0, 31, 31
2, 598803, Note_on_c, 0, 55, 35
2, 598927, Note_on_c, 0, 55, 0
2, 598967, Control_c, 0, 64, 0
2, 599138, Note_on_c, 0, 31, 0
2, 599276, Note_on_c, 0, 63, 57
2, 599307, Note_on_c, 0, 36, 33
2, 599315, Note_on_c, 0, 24, 32
2, 599319, Note_on_c, 0, 58, 57
2, 599325, Note_on_c, 0, 52, 41
2, 599424, Note_on_c, 0, 52, 0
2, 599473, Note_on_c, 0, 36, 0
2, 599485, Note_on_c, 0, 63, 0
2, 599500, Note_on_c, 0, 58, 0
2, 599512, Note_on_c, 0, 24, 0
2, 600383, Note_on_c, 0, 63, 56
2, 600394, Note_on_c, 0, 58, 52
2, 600412, Note_on_c, 0, 52, 38
2, 600420, Note_on_c, 0, 24, 36
2, 600422, Note_on_c, 0, 36, 37
2, 607623, Note_on_c, 0, 52, 0
2, 607717, Note_on_c, 0, 58, 0
2, 607737, Note_on_c, 0, 63, 0
2, 608249, Note_on_c, 0, 24, 0
2, 608304, Note_on_c, 0, 36, 0
2, 608304, End_track
3, 0, Start_track
3, 0, Title_t, "Acoustic Bass"
3, 0, Program_c, 1, 32
3, 0, Control_c, 1, 7, 103
3, 99559, Note_on_c, 1, 35, 88
3, 99787, Note_on_c, 1, 35, 0
3, 99890, Note_on_c, 1, 36, 92
3, 101469, Note_on_c, 1, 34, 58
3, 101555, Note_on_c, 1, 34, 0
3, 101635, Note_on_c, 1, 36, 0
3, 101701, Note_on_c, 1, 43, 127
3, 103243, Note_on_c, 1, 43, 0
3, 103282, Note_on_c, 1, 42, 127
3, 103469, Note_on_c, 1, 42, 0
3, 103597, Note_on_c, 1, 41, 124
3, 103696, Note_on_c, 1, 41, 0
3, 103968, Note_on_c, 1, 36, 70
3, 104107, Note_on_c, 1, 36, 0
3, 104227, Note_on_c, 1, 30, 92
3, 104424, Note_on_c, 1, 30, 0
3, 104623, Note_on_c, 1, 29, 90
3, 106256, Note_on_c, 1, 34, 108
3, 106270, Note_on_c, 1, 29, 0
3, 106461, Note_on_c, 1, 34, 0
3, 106544, Note_on_c, 1, 35, 92
3, 107466, Note_on_c, 1, 35, 0
3, 107540, Note_on_c, 1, 36, 86
3, 109437, Note_on_c, 1, 48, 84
3, 109458, Note_on_c, 1, 36, 0
3, 111069, Note_on_c, 1, 52, 110
3, 111072, Note_on_c, 1, 48, 0
3, 111170, Note_on_c, 1, 52, 0
3, 111371, Note_on_c, 1, 41, 98
3, 112099, Note_on_c, 1, 48, 60
3, 112134, Note_on_c, 1, 41, 0
3, 112230, Note_on_c, 1, 48, 0
3, 112320, Note_on_c, 1, 55, 127
3, 112918, Note_on_c, 1, 39, 58
3, 113086, Note_on_c, 1, 39, 0
3, 113229, Note_on_c, 1, 55, 0
3, 113309, Note_on_c, 1, 53, 82
3, 113793, Note_on_c, 1, 53, 0
3, 113923, Note_on_c, 1, 41, 110
3, 114111, Note_on_c, 1, 41, 0
3, 114224, Note_on_c, 1, 34, 98
3, 114778, Note_on_c, 1, 34, 0
3, 114902, Note_on_c, 1, 35, 66
3, 115148, Note_on_c, 1, 35, 0
3, 115247, Note_on_c, 1, 36, 60
3, 115915, Note_on_c, 1, 34, 42
3, 115992, Note_on_c, 1, 36, 0
3, 116064, Note_on_c, 1, 34, 0
3, 116109, Note_on_c, 1, 43, 126
3, 118688, Note_on_c, 1, 43, 0
3, 118688, Note_on_c, 1, 42, 96
3, 119038, Note_on_c, 1, 42, 0
3, 119092, Note_on_c, 1, 41, 56
3, 121768, Note_on_c, 1, 41, 0
3, 121851, Note_on_c, 1, 29, 72
3, 122787, Note_on_c, 1, 29, 0
3, 122821, Note_on_c, 1, 28, 108
3, 124677, Note_on_c, 1, 40, 116
3, 124707, Note_on_c, 1, 28, 0
3, 126647, Note_on_c, 1, 39, 127
3, 126719, Note_on_c, 1, 40, 0
3, 128590, Note_on_c, 1, 39, 0
3, 128610, Note_on_c, 1, 36, 116
3, 130325, Note_on_c, 1, 44, 127
3, 130379, Note_on_c, 1, 36, 0
3, 130590, Note_on_c, 1, 44, 0
3, 130664, Note_on_c, 1, 43, 112
3, 130773, Note_on_c, 1, 43, 0
3, 131279, Note_on_c, 1, 38, 116
3, 131440, Note_on_c, 1, 38, 0
3, 131643, Note_on_c, 1, 32, 78
3, 132485, Note_on_c, 1, 32, 0
3, 132536, Note_on_c, 1, 31, 92
3, 134415, Note_on_c, 1, 31, 0
3, 134446, Note_on_c, 1, 38, 80
3, 136351, Note_on_c, 1, 43, 108
3, 136373, Note_on_c, 1, 38, 0
3, 137093, Note_on_c, 1, 38, 48
3, 137163, Note_on_c, 1, 38, 0
3, 137219, Note_on_c, 1, 43, 0
3, 137346, Note_on_c, 1, 42, 84
3, 138254, Note_on_c, 1, 42, 0
3, 138274, Note_on_c, 1, 43, 100
3, 139906, Note_on_c, 1, 32, 94
3, 139907, Note_on_c, 1, 43, 0
3, 140211, Note_on_c, 1, 32, 0
3, 140294, Note_on_c, 1, 31, 52
3, 142685, Note_on_c, 1, 42, 102
3, 142939, Note_on_c, 1, 42, 0
3, 143003, Note_on_c, 1, 31, 0
3, 143034, Note_on_c, 1, 43, 124
3, 144505, Note_on_c, 1, 31, 94
3, 144607, Note_on_c, 1, 31, 0
3, 144664, Note_on_c, 1, 43, 0
3, 144754, Note_on_c, 1, 41, 92
3, 145605, Note_on_c, 1, 41, 0
3, 145736, Note_on_c, 1, 40, 60
3, 147755, Note_on_c, 1, 40, 0
3, 147764, Note_on_c, 1, 34, 94
3, 149563, Note_on_c, 1, 34, 0
3, 149566, Note_on_c, 1, 33, 116
3, 151560, Note_on_c, 1, 39, 110
3, 151568, Note_on_c, 1, 33, 0
3, 153248, Note_on_c, 1, 37, 100
3, 153259, Note_on_c, 1, 39, 0
3, 153476, Note_on_c, 1, 37, 0
3, 153536, Note_on_c, 1, 38, 114
3, 155152, Note_on_c, 1, 44, 127
3, 155214, Note_on_c, 1, 38, 0
3, 155370, Note_on_c, 1, 44, 0
3, 155461, Note_on_c, 1, 43, 120
3, 155619, Note_on_c, 1, 43, 0
3, 156091, Note_on_c, 1, 38, 110
3, 156272, Note_on_c, 1, 38, 0
3, 156439, Note_on_c, 1, 32, 94
3, 157339, Note_on_c, 1, 32, 0
3, 157427, Note_on_c, 1, 31, 80
3, 159628, Note_on_c, 1, 31, 0
3, 159649, Note_on_c, 1, 33, 92
3, 159869, Note_on_c, 1, 33, 0
3, 159931, Note_on_c, 1, 34, 110
3, 160099, Note_on_c, 1, 34, 0
3, 160256, Note_on_c, 1, 35, 110
3, 161127, Note_on_c, 1, 35, 0
3, 161157, Note_on_c, 1, 36, 90
3, 162910, Note_on_c, 1, 36, 0
3, 163018, Note_on_c, 1, 42, 80
3, 163623, Note_on_c, 1, 30, 90
3, 163729, Note_on_c, 1, 42, 0
3, 164906, Note_on_c, 1, 30, 0
3, 164975, Note_on_c, 1, 29, 80
3, 167053, Note_on_c, 1, 41, 80
3, 167253, Note_on_c, 1, 29, 0
3, 167405, Note_on_c, 1, 41, 0
3, 167738, Note_on_c, 1, 34, 80
3, 167896, Note_on_c, 1, 34, 0
3, 168002, Note_on_c, 1, 35, 68
3, 168949, Note_on_c, 1, 35, 0
3, 168993, Note_on_c, 1, 36, 72
3, 170846, Note_on_c, 1, 36, 0
3, 170901, Note_on_c, 1, 42, 96
3, 172746, Note_on_c, 1, 42, 0
3, 172824, Note_on_c, 1, 41, 84
3, 175338, Note_on_c, 1, 36, 108
3, 175417, Note_on_c, 1, 36, 0
3, 175711, Note_on_c, 1, 34, 92
3, 175845, Note_on_c, 1, 34, 0
3, 176272, Note_on_c, 1, 41, 0
3, 176669, Note_on_c, 1, 43, 116
3, 178253, Note_on_c, 1, 38, 48
3, 178459, Note_on_c, 1, 38, 0
3, 178599, Note_on_c, 1, 31, 70
3, 178611, Note_on_c, 1, 43, 0
3, 180331, Note_on_c, 1, 36, 64
3, 180421, Note_on_c, 1, 36, 0
3, 180428, Note_on_c, 1, 31, 0
3, 180526, Note_on_c, 1, 41, 120
3, 183130, Note_on_c, 1, 38, 82
3, 183240, Note_on_c, 1, 41, 0
3, 183322, Note_on_c, 1, 38, 0
3, 183402, Note_on_c, 1, 39, 100
3, 184274, Note_on_c, 1, 39, 0
3, 184339, Note_on_c, 1, 40, 66
3, 186853, Note_on_c, 1, 37, 68
3, 186915, Note_on_c, 1, 40, 0
3, 187077, Note_on_c, 1, 37, 0
3, 187179, Note_on_c, 1, 38, 82
3, 187837, Note_on_c, 1, 38, 0
3, 187859, Note_on_c, 1, 39, 104
3, 188790, Note_on_c, 1, 54, 127
3, 189040, Note_on_c, 1, 54, 0
3, 189185, Note_on_c, 1, 51, 92
3, 189467, Note_on_c, 1, 39, 0
3, 190672, Note_on_c, 1, 45, 50
3, 190674, Note_on_c, 1, 39, 62
3, 190742, Note_on_c, 1, 51, 0
3, 190798, Note_on_c, 1, 39, 0
3, 190800, Note_on_c, 1, 45, 0
3, 190963, Note_on_c, 1, 48, 94
3, 191150, Note_on_c, 1, 48, 0
3, 191635, Note_on_c, 1, 39, 78
3, 191918, Note_on_c, 1, 39, 0
3, 191964, Note_on_c, 1, 38, 80
3, 193677, Note_on_c, 1, 37, 52
3, 193861, Note_on_c, 1, 37, 0
3, 193922, Note_on_c, 1, 48, 108
3, 193933, Note_on_c, 1, 38, 0
3, 195157, Note_on_c, 1, 48, 0
3, 195206, Note_on_c, 1, 45, 66
3, 195345, Note_on_c, 1, 45, 0
3, 195448, Note_on_c, 1, 44, 102
3, 195630, Note_on_c, 1, 44, 0
3, 195781, Note_on_c, 1, 43, 64
3, 196006, Note_on_c, 1, 43, 0
3, 196437, Note_on_c, 1, 38, 108
3, 196600, Note_on_c, 1, 38, 0
3, 196786, Note_on_c, 1, 32, 108
3, 197767, Note_on_c, 1, 32, 0
3, 197791, Note_on_c, 1, 31, 96
3, 199318, Note_on_c, 1, 42, 127
3, 199555, Note_on_c, 1, 42, 0
3, 199662, Note_on_c, 1, 43, 114
3, 199673, Note_on_c, 1, 31, 0
3, 200240, Note_on_c, 1, 32, 124
3, 200259, Note_on_c, 1, 43, 0
3, 200520, Note_on_c, 1, 32, 0
3, 200594, Note_on_c, 1, 31, 110
3, 203128, Note_on_c, 1, 42, 90
3, 203327, Note_on_c, 1, 42, 0
3, 203413, Note_on_c, 1, 31, 0
3, 203471, Note_on_c, 1, 43, 70
3, 203866, Note_on_c, 1, 43, 0
3, 204037, Note_on_c, 1, 30, 68
3, 204270, Note_on_c, 1, 30, 0
3, 204344, Note_on_c, 1, 31, 92
3, 205949, Note_on_c, 1, 43, 124
3, 206239, Note_on_c, 1, 31, 0
3, 206568, Note_on_c, 1, 43, 0
3, 206603, Note_on_c, 1, 34, 86
3, 206798, Note_on_c, 1, 34, 0
3, 206919, Note_on_c, 1, 35, 66
3, 207183, Note_on_c, 1, 35, 0
3, 207251, Note_on_c, 1, 36, 68
3, 208930, Note_on_c, 1, 34, 58
3, 208987, Note_on_c, 1, 36, 0
3, 209101, Note_on_c, 1, 34, 0
3, 209165, Note_on_c, 1, 42, 78
3, 210861, Note_on_c, 1, 35, 64
3, 210981, Note_on_c, 1, 35, 0
3, 211167, Note_on_c, 1, 36, 70
3, 211389, Note_on_c, 1, 42, 0
3, 212917, Note_on_c, 1, 36, 0
3, 213093, Note_on_c, 1, 42, 92
3, 213935, Note_on_c, 1, 42, 0
3, 214058, Note_on_c, 1, 41, 100
3, 214785, Note_on_c, 1, 41, 0
3, 215075, Note_on_c, 1, 36, 92
3, 216619, Note_on_c, 1, 34, 38
3, 216773, Note_on_c, 1, 36, 0
3, 216824, Note_on_c, 1, 34, 0
3, 216878, Note_on_c, 1, 42, 80
3, 218432, Note_on_c, 1, 36, 52
3, 218503, Note_on_c, 1, 36, 0
3, 218632, Note_on_c, 1, 42, 0
3, 218691, Note_on_c, 1, 47, 82
3, 220679, Note_on_c, 1, 35, 62
3, 220680, Note_on_c, 1, 47, 0
3, 221401, Note_on_c, 1, 38, 30
3, 221560, Note_on_c, 1, 35, 0
3, 221585, Note_on_c, 1, 38, 0
3, 221653, Note_on_c, 1, 39, 84
3, 222424, Note_on_c, 1, 35, 50
3, 222528, Note_on_c, 1, 35, 0
3, 222568, Note_on_c, 1, 39, 0
3, 222672, Note_on_c, 1, 40, 52
3, 224587, Note_on_c, 1, 47, 74
3, 224613, Note_on_c, 1, 40, 0
3, 226218, Note_on_c, 1, 40, 72
3, 226320, Note_on_c, 1, 47, 0
3, 226430, Note_on_c, 1, 40, 0
3, 226533, Note_on_c, 1, 39, 96
3, 228419, Note_on_c, 1, 42, 68
3, 228438, Note_on_c, 1, 39, 0
3, 229056, Note_on_c, 1, 42, 0
3, 229091, Note_on_c, 1, 35, 94
3, 229253, Note_on_c, 1, 35, 0
3, 229421, Note_on_c, 1, 39, 78
3, 230351, Note_on_c, 1, 39, 0
3, 230433, Note_on_c, 1, 40, 66
3, 232056, Note_on_c, 1, 38, 40
3, 232253, Note_on_c, 1, 38, 0
3, 232293, Note_on_c, 1, 40, 0
3, 232335, Note_on_c, 1, 47, 102
3, 233659, Note_on_c, 1, 47, 0
3, 233696, Note_on_c, 1, 46, 70
3, 233899, Note_on_c, 1, 46, 0
3, 233981, Note_on_c, 1, 47, 116
3, 234192, Note_on_c, 1, 47, 0
3, 234907, Note_on_c, 1, 42, 112
3, 236138, Note_on_c, 1, 42, 0
3, 236160, Note_on_c, 1, 35, 68
3, 236678, Note_on_c, 1, 35, 0
3, 236811, Note_on_c, 1, 35, 92
3, 237008, Note_on_c, 1, 35, 0
3, 237128, Note_on_c, 1, 38, 64
3, 237456, Note_on_c, 1, 38, 0
3, 237752, Note_on_c, 1, 39, 96
3, 238032, Note_on_c, 1, 39, 0
3, 238110, Note_on_c, 1, 40, 64
3, 239945, Note_on_c, 1, 40, 0
3, 239976, Note_on_c, 1, 47, 98
3, 241544, Note_on_c, 1, 34, 88
3, 241719, Note_on_c, 1, 34, 0
3, 241860, Note_on_c, 1, 35, 80
3, 242069, Note_on_c, 1, 47, 0
3, 243675, Note_on_c, 1, 42, 106
3, 243755, Note_on_c, 1, 35, 0
3, 244359, Note_on_c, 1, 42, 0
3, 244413, Note_on_c, 1, 40, 48
3, 244575, Note_on_c, 1, 40, 0
3, 244706, Note_on_c, 1, 42, 72
3, 245319, Note_on_c, 1, 42, 0
3, 245359, Note_on_c, 1, 39, 94
3, 245662, Note_on_c, 1, 39, 0
3, 245723, Note_on_c, 1, 40, 44
3, 246645, Note_on_c, 1, 47, 127
3, 246938, Note_on_c, 1, 40, 0
3, 249469, Note_on_c, 1, 47, 0
3, 249599, Note_on_c, 1, 46, 92
3, 250139, Note_on_c, 1, 46, 0
3, 250175, Note_on_c, 1, 47, 98
3, 252186, Note_on_c, 1, 39, 96
3, 252382, Note_on_c, 1, 39, 0
3, 252551, Note_on_c, 1, 35, 60
3, 252747, Note_on_c, 1, 35, 0
3, 253158, Note_on_c, 1, 39, 110
3, 253413, Note_on_c, 1, 39, 0
3, 253443, Note_on_c, 1, 47, 0
3, 253495, Note_on_c, 1, 40, 64
3, 255201, Note_on_c, 1, 40, 0
3, 255227, Note_on_c, 1, 35, 66
3, 257039, Note_on_c, 1, 35, 0
3, 257152, Note_on_c, 1, 41, 70
3, 258864, Note_on_c, 1, 44, 84
3, 259088, Note_on_c, 1, 41, 0
3, 259149, Note_on_c, 1, 44, 0
3, 259218, Note_on_c, 1, 45, 50
3, 259779, Note_on_c, 1, 45, 0
3, 259799, Note_on_c, 1, 47, 108
3, 260056, Note_on_c, 1, 47, 0
3, 260160, Note_on_c, 1, 42, 38
3, 260621, Note_on_c, 1, 42, 0
3, 260763, Note_on_c, 1, 39, 92
3, 261019, Note_on_c, 1, 39, 0
3, 261115, Note_on_c, 1, 40, 38
3, 263089, Note_on_c, 1, 43, 70
3, 263107, Note_on_c, 1, 40, 0
3, 264391, Note_on_c, 1, 43, 0
3, 264408, Note_on_c, 1, 40, 58
3, 264517, Note_on_c, 1, 40, 0
3, 264703, Note_on_c, 1, 34, 88
3, 264914, Note_on_c, 1, 34, 0
3, 265024, Note_on_c, 1, 35, 94
3, 266847, Note_on_c, 1, 47, 92
3, 266887, Note_on_c, 1, 35, 0
3, 268088, Note_on_c, 1, 38, 78
3, 268149, Note_on_c, 1, 47, 0
3, 268314, Note_on_c, 1, 38, 0
3, 268383, Note_on_c, 1, 39, 92
3, 268674, Note_on_c, 1, 39, 0
3, 268730, Note_on_c, 1, 40, 68
3, 270731, Note_on_c, 1, 52, 72
3, 270943, Note_on_c, 1, 40, 0
3, 272280, Note_on_c, 1, 40, 60
3, 272419, Note_on_c, 1, 52, 0
3, 272480, Note_on_c, 1, 40, 0
3, 272584, Note_on_c, 1, 39, 86
3, 274491, Note_on_c, 1, 36, 127
3, 274499, Note_on_c, 1, 39, 0
3, 276027, Note_on_c, 1, 34, 90
3, 276029, Note_on_c, 1, 36, 0
3, 276271, Note_on_c, 1, 34, 0
3, 276392, Note_on_c, 1, 33, 127
3, 278381, Note_on_c, 1, 32, 127
3, 278464, Note_on_c, 1, 33, 0
3, 280354, Note_on_c, 1, 32, 0
3, 280373, Note_on_c, 1, 31, 127
3, 282221, Note_on_c, 1, 34, 127
3, 282293, Note_on_c, 1, 31, 0
3, 282909, Note_on_c, 1, 34, 0
3, 282949, Note_on_c, 1, 31, 70
3, 283162, Note_on_c, 1, 31, 0
3, 283173, Note_on_c, 1, 35, 127
3, 283888, Note_on_c, 1, 34, 66
3, 284088, Note_on_c, 1, 34, 0
3, 284136, Note_on_c, 1, 36, 127
3, 284146, Note_on_c, 1, 35, 0
3, 286043, Note_on_c, 1, 30, 127
3, 286099, Note_on_c, 1, 36, 0
3, 287971, Note_on_c, 1, 29, 127
3, 288069, Note_on_c, 1, 30, 0
3, 290695, Note_on_c, 1, 34, 102
3, 290696, Note_on_c, 1, 29, 0
3, 291137, Note_on_c, 1, 34, 0
3, 291613, Note_on_c, 1, 35, 127
3, 291803, Note_on_c, 1, 35, 0
3, 292608, Note_on_c, 1, 36, 92
3, 292895, Note_on_c, 1, 36, 0
3, 293533, Note_on_c, 1, 36, 76
3, 293651, Note_on_c, 1, 36, 0
3, 293819, Note_on_c, 1, 43, 80
3, 294327, Note_on_c, 1, 43, 0
3, 294544, Note_on_c, 1, 36, 50
3, 294640, Note_on_c, 1, 36, 0
3, 294745, Note_on_c, 1, 42, 78
3, 295304, Note_on_c, 1, 42, 0
3, 295752, Note_on_c, 1, 41, 58
3, 296384, Note_on_c, 1, 41, 0
3, 296421, Note_on_c, 1, 36, 58
3, 296557, Note_on_c, 1, 36, 0
3, 296706, Note_on_c, 1, 29, 76
3, 298616, Note_on_c, 1, 30, 88
3, 298624, Note_on_c, 1, 29, 0
3, 299520, Note_on_c, 1, 30, 0
3, 299571, Note_on_c, 1, 31, 88
3, 301427, Note_on_c, 1, 31, 0
3, 301437, Note_on_c, 1, 43, 98
3, 303086, Note_on_c, 1, 39, 54
3, 303121, Note_on_c, 1, 43, 0
3, 303266, Note_on_c, 1, 39, 0
3, 303343, Note_on_c, 1, 41, 72
3, 305840, Note_on_c, 1, 41, 0
3, 305921, Note_on_c, 1, 36, 100
3, 306083, Note_on_c, 1, 36, 0
3, 306253, Note_on_c, 1, 34, 90
3, 307189, Note_on_c, 1, 34, 0
3, 307195, Note_on_c, 1, 33, 120
3, 309119, Note_on_c, 1, 45, 82
3, 311091, Note_on_c, 1, 44, 122
3, 311109, Note_on_c, 1, 45, 0
3, 311259, Note_on_c, 1, 33, 0
3, 311736, Note_on_c, 1, 39, 76
3, 311888, Note_on_c, 1, 44, 0
3, 311893, Note_on_c, 1, 39, 0
3, 312040, Note_on_c, 1, 32, 104
3, 314007, Note_on_c, 1, 44, 62
3, 314031, Note_on_c, 1, 32, 0
3, 314113, Note_on_c, 1, 44, 0
3, 314265, Note_on_c, 1, 39, 102
3, 314439, Note_on_c, 1, 39, 0
3, 314757, Note_on_c, 1, 31, 127
3, 316459, Note_on_c, 1, 38, 82
3, 316641, Note_on_c, 1, 38, 0
3, 316779, Note_on_c, 1, 31, 0
3, 316807, Note_on_c, 1, 44, 90
3, 316975, Note_on_c, 1, 44, 0
3, 317069, Note_on_c, 1, 43, 120
3, 317179, Note_on_c, 1, 43, 0
3, 317431, Note_on_c, 1, 31, 127
3, 318091, Note_on_c, 1, 31, 0
3, 318162, Note_on_c, 1, 31, 74
3, 318427, Note_on_c, 1, 31, 0
3, 318457, Note_on_c, 1, 32, 104
3, 318695, Note_on_c, 1, 32, 0
3, 318763, Note_on_c, 1, 33, 114
3, 320399, Note_on_c, 1, 32, 56
3, 320461, Note_on_c, 1, 41, 34
3, 320533, Note_on_c, 1, 33, 0
3, 320573, Note_on_c, 1, 41, 0
3, 320616, Note_on_c, 1, 32, 0
3, 320701, Note_on_c, 1, 49, 120
3, 321352, Note_on_c, 1, 36, 102
3, 321432, Note_on_c, 1, 49, 0
3, 321519, Note_on_c, 1, 36, 0
3, 321637, Note_on_c, 1, 37, 84
3, 322376, Note_on_c, 1, 34, 72
3, 322559, Note_on_c, 1, 37, 0
3, 322611, Note_on_c, 1, 34, 0
3, 322629, Note_on_c, 1, 38, 82
3, 323504, Note_on_c, 1, 38, 0
3, 323571, Note_on_c, 1, 40, 84
3, 324501, Note_on_c, 1, 40, 0
3, 324559, Note_on_c, 1, 41, 76
3, 325219, Note_on_c, 1, 38, 68
3, 325330, Note_on_c, 1, 38, 0
3, 325418, Note_on_c, 1, 41, 0
3, 325487, Note_on_c, 1, 42, 98
3, 326439, Note_on_c, 1, 42, 0
3, 326469, Note_on_c, 1, 43, 106
3, 326739, Note_on_c, 1, 43, 0
3, 326821, Note_on_c, 1, 38, 72
3, 326943, Note_on_c, 1, 38, 0
3, 327383, Note_on_c, 1, 30, 104
3, 327437, Note_on_c, 1, 30, 0
3, 327459, Note_on_c, 1, 31, 116
3, 328907, Note_on_c, 1, 31, 0
3, 328978, Note_on_c, 1, 33, 110
3, 329109, Note_on_c, 1, 33, 0
3, 329295, Note_on_c, 1, 34, 56
3, 329355, Note_on_c, 1, 34, 0
3, 329896, Note_on_c, 1, 35, 96
3, 330058, Note_on_c, 1, 35, 0
3, 330237, Note_on_c, 1, 36, 84
3, 332168, Note_on_c, 1, 36, 0
3, 332181, Note_on_c, 1, 30, 92
3, 334093, Note_on_c, 1, 30, 0
3, 334135, Note_on_c, 1, 29, 68
3, 336582, Note_on_c, 1, 29, 0
3, 336642, Note_on_c, 1, 34, 94
3, 336869, Note_on_c, 1, 34, 0
3, 336950, Note_on_c, 1, 35, 78
3, 337366, Note_on_c, 1, 35, 0
3, 337615, Note_on_c, 1, 35, 80
3, 337840, Note_on_c, 1, 35, 0
3, 337925, Note_on_c, 1, 36, 76
3, 339808, Note_on_c, 1, 36, 0
3, 339832, Note_on_c, 1, 30, 74
3, 341634, Note_on_c, 1, 30, 0
3, 341675, Note_on_c, 1, 29, 74
3, 343571, Note_on_c, 1, 29, 0
3, 343645, Note_on_c, 1, 34, 90
3, 343794, Note_on_c, 1, 34, 0
3, 344203, Note_on_c, 1, 34, 106
3, 344469, Note_on_c, 1, 34, 0
3, 344538, Note_on_c, 1, 35, 96
3, 344794, Note_on_c, 1, 35, 0
3, 345317, Note_on_c, 1, 35, 59
3, 345533, Note_on_c, 1, 35, 0
3, 345626, Note_on_c, 1, 36, 80
3, 347295, Note_on_c, 1, 27, 52
3, 347376, Note_on_c, 1, 36, 0
3, 347510, Note_on_c, 1, 27, 0
3, 347569, Note_on_c, 1, 30, 78
3, 349436, Note_on_c, 1, 30, 0
3, 349467, Note_on_c, 1, 29, 73
3, 351139, Note_on_c, 1, 35, 29
3, 351300, Note_on_c, 1, 35, 0
3, 351375, Note_on_c, 1, 41, 105
3, 351590, Note_on_c, 1, 29, 0
3, 352927, Note_on_c, 1, 35, 68
3, 353098, Note_on_c, 1, 41, 0
3, 353289, Note_on_c, 1, 35, 0
3, 353303, Note_on_c, 1, 36, 87
3, 355120, Note_on_c, 1, 36, 0
3, 355140, Note_on_c, 1, 30, 75
3, 357144, Note_on_c, 1, 29, 64
3, 357188, Note_on_c, 1, 30, 0
3, 359897, Note_on_c, 1, 29, 0
3, 360033, Note_on_c, 1, 30, 78
3, 361004, Note_on_c, 1, 30, 0
3, 361023, Note_on_c, 1, 31, 67
3, 361831, Note_on_c, 1, 30, 33
3, 361939, Note_on_c, 1, 30, 0
3, 362018, Note_on_c, 1, 43, 99
3, 362094, Note_on_c, 1, 31, 0
3, 362723, Note_on_c, 1, 42, 47
3, 362754, Note_on_c, 1, 43, 0
3, 362886, Note_on_c, 1, 42, 0
3, 362992, Note_on_c, 1, 43, 67
3, 364485, Note_on_c, 1, 31, 60
3, 364601, Note_on_c, 1, 43, 0
3, 364672, Note_on_c, 1, 31, 0
3, 364827, Note_on_c, 1, 29, 69
3, 366714, Note_on_c, 1, 41, 103
3, 366759, Note_on_c, 1, 29, 0
3, 368246, Note_on_c, 1, 29, 60
3, 368348, Note_on_c, 1, 41, 0
3, 368409, Note_on_c, 1, 29, 0
3, 368565, Note_on_c, 1, 40, 81
3, 370112, Note_on_c, 1, 36, 49
3, 370191, Note_on_c, 1, 36, 0
3, 370368, Note_on_c, 1, 40, 0
3, 370417, Note_on_c, 1, 28, 67
3, 372081, Note_on_c, 1, 33, 51
3, 372152, Note_on_c, 1, 28, 0
3, 372164, Note_on_c, 1, 33, 0
3, 372367, Note_on_c, 1, 40, 79
3, 372755, Note_on_c, 1, 40, 0
3, 373318, Note_on_c, 1, 39, 75
3, 374936, Note_on_c, 1, 36, 57
3, 375094, Note_on_c, 1, 39, 0
3, 375104, Note_on_c, 1, 36, 0
3, 375228, Note_on_c, 1, 32, 64
3, 376143, Note_on_c, 1, 32, 0
3, 376222, Note_on_c, 1, 31, 57
3, 376919, Note_on_c, 1, 32, 53
3, 377082, Note_on_c, 1, 32, 0
3, 377122, Note_on_c, 1, 31, 0
3, 377153, Note_on_c, 1, 44, 80
3, 378045, Note_on_c, 1, 44, 0
3, 378124, Note_on_c, 1, 43, 61
3, 379006, Note_on_c, 1, 43, 0
3, 379110, Note_on_c, 1, 43, 22
3, 380073, Note_on_c, 1, 43, 0
3, 380083, Note_on_c, 1, 56, 81
3, 380774, Note_on_c, 1, 43, 35
3, 380865, Note_on_c, 1, 56, 0
3, 380873, Note_on_c, 1, 43, 0
3, 381054, Note_on_c, 1, 55, 73
3, 382661, Note_on_c, 1, 43, 53
3, 382883, Note_on_c, 1, 43, 0
3, 382976, Note_on_c, 1, 55, 0
3, 382987, Note_on_c, 1, 38, 62
3, 383547, Note_on_c, 1, 38, 0
3, 383635, Note_on_c, 1, 32, 64
3, 383818, Note_on_c, 1, 32, 0
3, 383970, Note_on_c, 1, 31, 58
3, 385726, Note_on_c, 1, 31, 0
3, 385856, Note_on_c, 1, 33, 71
3, 387811, Note_on_c, 1, 35, 66
3, 387843, Note_on_c, 1, 33, 0
3, 389599, Note_on_c, 1, 35, 0
3, 389678, Note_on_c, 1, 31, 63
3, 390848, Note_on_c, 1, 34, 53
3, 390897, Note_on_c, 1, 31, 0
3, 391015, Note_on_c, 1, 34, 0
3, 391190, Note_on_c, 1, 35, 62
3, 391490, Note_on_c, 1, 35, 0
3, 391529, Note_on_c, 1, 36, 70
3, 393396, Note_on_c, 1, 36, 0
3, 393443, Note_on_c, 1, 34, 67
3, 395366, Note_on_c, 1, 34, 0
3, 395414, Note_on_c, 1, 33, 63
3, 397020, Note_on_c, 1, 38, 36
3, 397188, Note_on_c, 1, 38, 0
3, 397259, Note_on_c, 1, 49, 81
3, 397308, Note_on_c, 1, 33, 0
3, 397948, Note_on_c, 1, 37, 70
3, 397968, Note_on_c, 1, 49, 0
3, 399212, Note_on_c, 1, 38, 60
3, 399234, Note_on_c, 1, 37, 0
3, 400939, Note_on_c, 1, 37, 35
3, 401096, Note_on_c, 1, 38, 0
3, 401159, Note_on_c, 1, 45, 91
3, 401167, Note_on_c, 1, 37, 0
3, 401724, Note_on_c, 1, 45, 0
3, 401819, Note_on_c, 1, 38, 45
3, 401906, Note_on_c, 1, 38, 0
3, 402071, Note_on_c, 1, 44, 77
3, 403676, Note_on_c, 1, 38, 54
3, 403792, Note_on_c, 1, 38, 0
3, 403857, Note_on_c, 1, 44, 0
3, 403965, Note_on_c, 1, 43, 68
3, 404528, Note_on_c, 1, 43, 0
3, 404623, Note_on_c, 1, 38, 61
3, 404814, Note_on_c, 1, 38, 0
3, 404963, Note_on_c, 1, 31, 64
3, 405918, Note_on_c, 1, 31, 0
3, 405922, Note_on_c, 1, 35, 58
3, 406859, Note_on_c, 1, 35, 0
3, 406932, Note_on_c, 1, 36, 61
3, 408791, Note_on_c, 1, 36, 0
3, 408838, Note_on_c, 1, 30, 51
3, 410882, Note_on_c, 1, 30, 0
3, 410902, Note_on_c, 1, 29, 47
3, 412699, Note_on_c, 1, 29, 0
3, 412723, Note_on_c, 1, 41, 78
3, 414312, Note_on_c, 1, 41, 0
3, 414383, Note_on_c, 1, 35, 64
3, 414670, Note_on_c, 1, 35, 0
3, 414741, Note_on_c, 1, 36, 56
3, 416293, Note_on_c, 1, 34, 33
3, 416348, Note_on_c, 1, 45, 85
3, 416378, Note_on_c, 1, 36, 0
3, 416525, Note_on_c, 1, 34, 0
3, 416588, Note_on_c, 1, 45, 0
3, 416704, Note_on_c, 1, 43, 68
3, 416842, Note_on_c, 1, 43, 0
3, 417350, Note_on_c, 1, 39, 77
3, 417526, Note_on_c, 1, 39, 0
3, 417685, Note_on_c, 1, 40, 72
3, 418567, Note_on_c, 1, 40, 0
3, 418606, Note_on_c, 1, 41, 54
3, 419264, Note_on_c, 1, 36, 60
3, 419307, Note_on_c, 1, 41, 0
3, 419443, Note_on_c, 1, 36, 0
3, 419583, Note_on_c, 1, 29, 67
3, 421428, Note_on_c, 1, 29, 0
3, 421464, Note_on_c, 1, 30, 68
3, 422359, Note_on_c, 1, 30, 0
3, 422417, Note_on_c, 1, 31, 69
3, 424246, Note_on_c, 1, 31, 0
3, 424283, Note_on_c, 1, 43, 64
3, 425191, Note_on_c, 1, 43, 0
3, 425240, Note_on_c, 1, 30, 69
3, 426077, Note_on_c, 1, 30, 0
3, 426179, Note_on_c, 1, 29, 62
3, 427947, Note_on_c, 1, 36, 34
3, 428091, Note_on_c, 1, 29, 0
3, 428111, Note_on_c, 1, 36, 0
3, 428166, Note_on_c, 1, 41, 50
3, 429194, Note_on_c, 1, 43, 78
3, 429200, Note_on_c, 1, 41, 0
3, 430056, Note_on_c, 1, 43, 0
3, 430101, Note_on_c, 1, 40, 50
3, 431814, Note_on_c, 1, 39, 29
3, 431905, Note_on_c, 1, 39, 0
3, 431968, Note_on_c, 1, 40, 0
3, 431988, Note_on_c, 1, 45, 77
3, 433685, Note_on_c, 1, 45, 0
3, 433752, Note_on_c, 1, 39, 65
3, 435449, Note_on_c, 1, 42, 11
3, 435542, Note_on_c, 1, 42, 0
3, 435652, Note_on_c, 1, 39, 0
3, 435699, Note_on_c, 1, 45, 57
3, 436365, Note_on_c, 1, 39, 44
3, 436522, Note_on_c, 1, 39, 0
3, 436522, Note_on_c, 1, 45, 0
3, 436670, Note_on_c, 1, 43, 51
3, 436855, Note_on_c, 1, 43, 0
3, 437316, Note_on_c, 1, 37, 52
3, 437562, Note_on_c, 1, 37, 0
3, 437627, Note_on_c, 1, 38, 53
3, 438350, Note_on_c, 1, 34, 25
3, 438462, Note_on_c, 1, 38, 0
3, 438546, Note_on_c, 1, 34, 0
3, 438598, Note_on_c, 1, 41, 47
3, 439429, Note_on_c, 1, 41, 0
3, 439576, Note_on_c, 1, 33, 50
3, 440329, Note_on_c, 1, 33, 0
3, 440450, Note_on_c, 1, 29, 47
3, 441406, Note_on_c, 1, 29, 0
3, 441476, Note_on_c, 1, 31, 54
3, 442416, Note_on_c, 1, 31, 0
3, 442443, Note_on_c, 1, 32, 59
3, 443323, Note_on_c, 1, 32, 0
3, 443420, Note_on_c, 1, 33, 58
3, 444406, Note_on_c, 1, 34, 56
3, 444465, Note_on_c, 1, 33, 0
3, 445080, Note_on_c, 1, 34, 0
3, 445096, Note_on_c, 1, 35, 66
3, 445357, Note_on_c, 1, 35, 0
3, 445444, Note_on_c, 1, 36, 58
3, 446098, Note_on_c, 1, 37, 74
3, 446139, Note_on_c, 1, 36, 0
3, 446312, Note_on_c, 1, 37, 0
3, 446379, Note_on_c, 1, 38, 75
3, 447310, Note_on_c, 1, 38, 0
3, 447409, Note_on_c, 1, 41, 61
3, 448084, Note_on_c, 1, 41, 0
3, 448291, Note_on_c, 1, 32, 59
3, 449167, Note_on_c, 1, 32, 0
3, 449226, Note_on_c, 1, 31, 50
3, 450207, Note_on_c, 1, 31, 0
3, 450225, Note_on_c, 1, 35, 65
3, 451111, Note_on_c, 1, 35, 0
3, 451164, Note_on_c, 1, 38, 62
3, 451819, Note_on_c, 1, 34, 53
3, 451845, Note_on_c, 1, 38, 0
3, 452034, Note_on_c, 1, 34, 0
3, 452091, Note_on_c, 1, 35, 51
3, 452912, Note_on_c, 1, 35, 0
3, 452979, Note_on_c, 1, 36, 36
3, 453678, Note_on_c, 1, 34, 35
3, 453733, Note_on_c, 1, 36, 0
3, 453879, Note_on_c, 1, 34, 0
3, 453893, Note_on_c, 1, 42, 65
3, 454761, Note_on_c, 1, 42, 0
3, 454873, Note_on_c, 1, 43, 56
3, 455797, Note_on_c, 1, 30, 64
3, 455878, Note_on_c, 1, 43, 0
3, 456673, Note_on_c, 1, 30, 0
3, 456787, Note_on_c, 1, 29, 49
3, 457467, Note_on_c, 1, 36, 35
3, 457604, Note_on_c, 1, 29, 0
3, 457612, Note_on_c, 1, 36, 0
3, 457715, Note_on_c, 1, 41, 82
3, 458591, Note_on_c, 1, 41, 0
3, 458699, Note_on_c, 1, 34, 57
3, 459652, Note_on_c, 1, 34, 0
3, 459660, Note_on_c, 1, 35, 57
3, 460367, Note_on_c, 1, 34, 38
3, 460599, Note_on_c, 1, 34, 0
3, 460615, Note_on_c, 1, 35, 0
3, 460658, Note_on_c, 1, 36, 41
3, 461367, Note_on_c, 1, 34, 33
3, 461489, Note_on_c, 1, 36, 0
3, 461617, Note_on_c, 1, 43, 70
3, 461637, Note_on_c, 1, 34, 0
3, 462438, Note_on_c, 1, 43, 0
3, 462612, Note_on_c, 1, 36, 51
3, 463531, Note_on_c, 1, 36, 0
3, 463561, Note_on_c, 1, 34, 60
3, 464386, Note_on_c, 1, 34, 0
3, 464468, Note_on_c, 1, 35, 60
3, 465130, Note_on_c, 1, 34, 49
3, 465270, Note_on_c, 1, 34, 0
3, 465362, Note_on_c, 1, 35, 0
3, 465423, Note_on_c, 1, 47, 88
3, 466364, Note_on_c, 1, 38, 45
3, 466406, Note_on_c, 1, 47, 0
3, 467298, Note_on_c, 1, 38, 0
3, 467321, Note_on_c, 1, 39, 62
3, 468119, Note_on_c, 1, 37, 28
3, 468298, Note_on_c, 1, 39, 0
3, 468324, Note_on_c, 1, 37, 0
3, 468345, Note_on_c, 1, 40, 49
3, 469288, Note_on_c, 1, 40, 0
3, 469298, Note_on_c, 1, 47, 62
3, 470011, Note_on_c, 1, 39, 35
3, 470082, Note_on_c, 1, 39, 0
3, 470149, Note_on_c, 1, 47, 0
3, 470308, Note_on_c, 1, 54, 62
3, 471905, Note_on_c, 1, 47, 42
3, 472019, Note_on_c, 1, 47, 0
3, 472055, Note_on_c, 1, 54, 0
3, 472246, Note_on_c, 1, 42, 47
3, 474152, Note_on_c, 1, 42, 0
3, 474185, Note_on_c, 1, 35, 40
3, 474733, Note_on_c, 1, 35, 0
3, 474813, Note_on_c, 1, 38, 57
3, 475032, Note_on_c, 1, 38, 0
3, 475152, Note_on_c, 1, 39, 63
3, 475861, Note_on_c, 1, 37, 29
3, 476038, Note_on_c, 1, 39, 0
3, 476111, Note_on_c, 1, 37, 0
3, 476144, Note_on_c, 1, 40, 45
3, 477885, Note_on_c, 1, 40, 0
3, 477976, Note_on_c, 1, 47, 57
3, 479307, Note_on_c, 1, 39, 50
3, 479425, Note_on_c, 1, 47, 0
3, 479519, Note_on_c, 1, 39, 0
3, 479614, Note_on_c, 1, 40, 46
3, 479832, Note_on_c, 1, 40, 0
3, 479945, Note_on_c, 1, 42, 55
3, 481784, Note_on_c, 1, 42, 0
3, 481847, Note_on_c, 1, 35, 50
3, 483122, Note_on_c, 1, 38, 57
3, 483166, Note_on_c, 1, 35, 0
3, 483341, Note_on_c, 1, 38, 0
3, 483459, Note_on_c, 1, 39, 46
3, 483609, Note_on_c, 1, 39, 0
3, 483776, Note_on_c, 1, 40, 55
3, 485631, Note_on_c, 1, 40, 0
3, 485702, Note_on_c, 1, 35, 48
3, 487234, Note_on_c, 1, 35, 0
3, 487244, Note_on_c, 1, 34, 55
3, 487470, Note_on_c, 1, 34, 0
3, 487576, Note_on_c, 1, 35, 47
3, 488260, Note_on_c, 1, 47, 73
3, 488382, Note_on_c, 1, 35, 0
3, 488478, Note_on_c, 1, 47, 0
3, 488571, Note_on_c, 1, 46, 35
3, 489228, Note_on_c, 1, 35, 43
3, 489303, Note_on_c, 1, 46, 0
3, 489433, Note_on_c, 1, 35, 0
3, 489522, Note_on_c, 1, 47, 53
3, 490022, Note_on_c, 1, 47, 0
3, 490146, Note_on_c, 1, 38, 57
3, 490349, Note_on_c, 1, 38, 0
3, 490431, Note_on_c, 1, 39, 57
3, 491168, Note_on_c, 1, 37, 31
3, 491339, Note_on_c, 1, 39, 0
3, 491386, Note_on_c, 1, 37, 0
3, 491404, Note_on_c, 1, 40, 47
3, 493068, Note_on_c, 1, 39, 36
3, 493210, Note_on_c, 1, 39, 0
3, 493243, Note_on_c, 1, 40, 0
3, 493342, Note_on_c, 1, 47, 83
3, 493976, Note_on_c, 1, 34, 74
3, 493981, Note_on_c, 1, 47, 0
3, 495803, Note_on_c, 1, 34, 0
3, 495883, Note_on_c, 1, 35, 70
3, 497793, Note_on_c, 1, 37, 67
3, 497866, Note_on_c, 1, 35, 0
3, 497977, Note_on_c, 1, 37, 0
3, 498136, Note_on_c, 1, 38, 51
3, 498325, Note_on_c, 1, 38, 0
3, 498758, Note_on_c, 1, 39, 67
3, 499010, Note_on_c, 1, 39, 0
3, 499135, Note_on_c, 1, 40, 45
3, 500903, Note_on_c, 1, 40, 0
3, 500997, Note_on_c, 1, 34, 51
3, 502612, Note_on_c, 1, 32, 28
3, 502801, Note_on_c, 1, 34, 0
3, 502834, Note_on_c, 1, 32, 0
3, 502858, Note_on_c, 1, 35, 49
3, 503858, Note_on_c, 1, 47, 83
3, 504435, Note_on_c, 1, 35, 0
3, 505447, Note_on_c, 1, 38, 49
3, 505553, Note_on_c, 1, 47, 0
3, 505650, Note_on_c, 1, 38, 0
3, 505734, Note_on_c, 1, 39, 52
3, 506496, Note_on_c, 1, 37, 34
3, 506685, Note_on_c, 1, 39, 0
3, 506711, Note_on_c, 1, 37, 0
3, 506772, Note_on_c, 1, 40, 37
3, 508328, Note_on_c, 1, 37, 26
3, 508605, Note_on_c, 1, 40, 0
3, 508696, Note_on_c, 1, 37, 0
3, 508717, Note_on_c, 1, 47, 69
3, 509481, Note_on_c, 1, 47, 0
3, 509633, Note_on_c, 1, 34, 56
3, 510529, Note_on_c, 1, 34, 0
3, 510631, Note_on_c, 1, 35, 60
3, 512573, Note_on_c, 1, 35, 0
3, 512575, Note_on_c, 1, 47, 80
3, 513370, Note_on_c, 1, 47, 0
3, 513538, Note_on_c, 1, 39, 57
3, 514469, Note_on_c, 1, 39, 0
3, 514496, Note_on_c, 1, 40, 59
3, 516454, Note_on_c, 1, 55, 80
3, 516688, Note_on_c, 1, 40, 0
3, 517791, Note_on_c, 1, 53, 54
3, 517820, Note_on_c, 1, 55, 0
3, 517915, Note_on_c, 1, 53, 0
3, 518088, Note_on_c, 1, 40, 58
3, 518253, Note_on_c, 1, 40, 0
3, 518389, Note_on_c, 1, 39, 68
3, 520258, Note_on_c, 1, 51, 65
3, 520329, Note_on_c, 1, 39, 0
3, 521780, Note_on_c, 1, 32, 50
3, 521892, Note_on_c, 1, 51, 0
3, 522002, Note_on_c, 1, 32, 0
3, 522128, Note_on_c, 1, 33, 73
3, 524072, Note_on_c, 1, 32, 76
3, 524190, Note_on_c, 1, 33, 0
3, 525960, Note_on_c, 1, 32, 0
3, 525997, Note_on_c, 1, 31, 71
3, 526029, Note_on_c, 1, 32, 23
3, 526178, Note_on_c, 1, 32, 0
3, 527958, Note_on_c, 1, 43, 92
3, 528112, Note_on_c, 1, 31, 0
3, 529520, Note_on_c, 1, 35, 44
3, 529626, Note_on_c, 1, 43, 0
3, 529811, Note_on_c, 1, 35, 0
3, 529827, Note_on_c, 1, 36, 71
3, 531753, Note_on_c, 1, 36, 0
3, 531826, Note_on_c, 1, 30, 54
3, 533700, Note_on_c, 1, 30, 0
3, 533726, Note_on_c, 1, 29, 46
3, 535606, Note_on_c, 1, 29, 0
3, 535622, Note_on_c, 1, 34, 55
3, 535807, Note_on_c, 1, 34, 0
3, 536262, Note_on_c, 1, 34, 57
3, 536504, Note_on_c, 1, 34, 0
3, 536597, Note_on_c, 1, 35, 59
3, 537512, Note_on_c, 1, 35, 0
3, 537538, Note_on_c, 1, 36, 52
3, 539186, Note_on_c, 1, 43, 71
3, 539276, Note_on_c, 1, 36, 0
3, 539392, Note_on_c, 1, 43, 0
3, 539507, Note_on_c, 1, 31, 61
3, 542921, Note_on_c, 1, 36, 54
3, 543070, Note_on_c, 1, 36, 0
3, 543155, Note_on_c, 1, 31, 0
3, 543244, Note_on_c, 1, 36, 71
3, 544014, Note_on_c, 1, 36, 0
3, 544159, Note_on_c, 1, 30, 53
3, 545067, Note_on_c, 1, 30, 0
3, 545162, Note_on_c, 1, 31, 63
3, 547103, Note_on_c, 1, 31, 0
3, 547148, Note_on_c, 1, 36, 55
3, 548125, Note_on_c, 1, 36, 0
3, 548133, Note_on_c, 1, 43, 83
3, 548784, Note_on_c, 1, 36, 47
3, 548962, Note_on_c, 1, 43, 0
3, 549017, Note_on_c, 1, 36, 0
3, 549105, Note_on_c, 1, 41, 70
3, 551641, Note_on_c, 1, 36, 60
3, 551848, Note_on_c, 1, 36, 0
3, 551947, Note_on_c, 1, 41, 0
3, 551980, Note_on_c, 1, 34, 55
3, 552921, Note_on_c, 1, 33, 67
3, 552929, Note_on_c, 1, 34, 0
3, 554544, Note_on_c, 1, 34, 37
3, 554804, Note_on_c, 1, 48, 83
3, 554821, Note_on_c, 1, 34, 0
3, 554918, Note_on_c, 1, 33, 0
3, 556467, Note_on_c, 1, 33, 54
3, 556595, Note_on_c, 1, 48, 0
3, 556637, Note_on_c, 1, 33, 0
3, 556769, Note_on_c, 1, 32, 74
3, 558757, Note_on_c, 1, 44, 71
3, 558948, Note_on_c, 1, 32, 0
3, 560338, Note_on_c, 1, 32, 60
3, 560398, Note_on_c, 1, 44, 0
3, 560529, Note_on_c, 1, 32, 0
3, 560669, Note_on_c, 1, 31, 64
3, 561211, Note_on_c, 1, 31, 0
3, 561291, Note_on_c, 1, 43, 85
3, 562441, Note_on_c, 1, 43, 0
3, 562593, Note_on_c, 1, 43, 67
3, 564544, Note_on_c, 1, 43, 0
3, 564572, Note_on_c, 1, 33, 76
3, 566387, Note_on_c, 1, 33, 0
3, 566415, Note_on_c, 1, 45, 76
3, 566982, Note_on_c, 1, 45, 0
3, 567100, Note_on_c, 1, 36, 61
3, 567281, Note_on_c, 1, 36, 0
3, 567401, Note_on_c, 1, 37, 59
3, 568161, Note_on_c, 1, 34, 33
3, 568305, Note_on_c, 1, 37, 0
3, 568327, Note_on_c, 1, 34, 0
3, 568376, Note_on_c, 1, 38, 69
3, 570231, Note_on_c, 1, 38, 0
3, 570276, Note_on_c, 1, 32, 84
3, 572101, Note_on_c, 1, 32, 0
3, 572237, Note_on_c, 1, 31, 71
3, 574098, Note_on_c, 1, 31, 0
3, 574131, Note_on_c, 1, 43, 84
3, 575582, Note_on_c, 1, 43, 0
3, 575669, Note_on_c, 1, 35, 56
3, 575896, Note_on_c, 1, 35, 0
3, 575968, Note_on_c, 1, 36, 66
3, 577796, Note_on_c, 1, 36, 0
3, 577843, Note_on_c, 1, 30, 83
3, 579771, Note_on_c, 1, 29, 66
3, 579776, Note_on_c, 1, 30, 0
3, 581497, Note_on_c, 1, 36, 48
3, 581600, Note_on_c, 1, 29, 0
3, 581641, Note_on_c, 1, 36, 0
3, 581716, Note_on_c, 1, 41, 72
3, 582403, Note_on_c, 1, 34, 67
3, 582448, Note_on_c, 1, 41, 0
3, 582600, Note_on_c, 1, 34, 0
3, 582669, Note_on_c, 1, 35, 65
3, 583374, Note_on_c, 1, 34, 49
3, 583577, Note_on_c, 1, 35, 0
3, 583586, Note_on_c, 1, 34, 0
3, 583655, Note_on_c, 1, 36, 65
3, 584274, Note_on_c, 1, 36, 0
3, 584317, Note_on_c, 1, 31, 77
3, 584656, Note_on_c, 1, 31, 0
3, 585567, Note_on_c, 1, 31, 66
3, 586495, Note_on_c, 1, 31, 0
3, 586528, Note_on_c, 1, 30, 48
3, 587060, Note_on_c, 1, 30, 0
3, 587109, Note_on_c, 1, 29, 57
3, 589066, Note_on_c, 1, 36, 37
3, 589131, Note_on_c, 1, 29, 0
3, 589318, Note_on_c, 1, 43, 48
3, 589338, Note_on_c, 1, 36, 0
3, 589808, Note_on_c, 1, 43, 0
3, 589903, Note_on_c, 1, 34, 64
3, 590092, Note_on_c, 1, 34, 0
3, 590194, Note_on_c, 1, 35, 60
3, 590840, Note_on_c, 1, 34, 37
3, 591061, Note_on_c, 1, 34, 0
3, 591071, Note_on_c, 1, 35, 0
3, 591153, Note_on_c, 1, 36, 45
3, 593118, Note_on_c, 1, 36, 0
3, 593154, Note_on_c, 1, 30, 47
3, 595034, Note_on_c, 1, 30, 0
3, 595107, Note_on_c, 1, 29, 43
3, 598060, Note_on_c, 1, 29, 0
3, 598068, Note_on_c, 1, 35, 34
3, 599248, Note_on_c, 1, 35, 0
3, 599281, Note_on_c, 1, 36, 43
3, 607894, Note_on_c, 1, 36, 0
3, 607894, End_track
4, 0, Start_track
4, 0, Title_t, "Drums"
4, 0, Program_c, 9, 0
4, 0, Control_c, 9, 7, 100
4, 90243, Note_on_c, 9, 59, 45
4, 90592, Note_on_c, 9, 59, 0
4, 90815, Note_on_c, 9, 59, 50
4, 90927, Note_on_c, 9, 59, 0
4, 92084, Note_on_c, 9, 59, 64
4, 92396, Note_on_c, 9, 59, 0
4, 95899, Note_on_c, 9, 59, 58
4, 96312, Note_on_c, 9, 59, 0
4, 96479, Note_on_c, 9, 59, 57
4, 96622, Note_on_c, 9, 59, 0
4, 97872, Note_on_c, 9, 59, 65
4, 98108, Note_on_c, 9, 59, 0
4, 98519, Note_on_c, 9, 53, 62
4, 98598, Note_on_c, 9, 53, 0
4, 99958, Note_on_c, 9, 59, 79
4, 100108, Note_on_c, 9, 59, 0
4, 100794, Note_on_c, 9, 44, 53
4, 101196, Note_on_c, 9, 44, 0
4, 101594, Note_on_c, 9, 59, 55
4, 101702, Note_on_c, 9, 59, 0
4, 101911, Note_on_c, 9, 59, 71
4, 102231, Note_on_c, 9, 59, 0
4, 103531, Note_on_c, 9, 59, 51
4, 103615, Note_on_c, 9, 59, 0
4, 103836, Note_on_c, 9, 59, 73
4, 104348, Note_on_c, 9, 59, 0
4, 104473, Note_on_c, 9, 59, 79
4, 104546, Note_on_c, 9, 59, 0
4, 105322, Note_on_c, 9, 36, 47
4, 105384, Note_on_c, 9, 59, 57
4, 105460, Note_on_c, 9, 59, 0
4, 105496, Note_on_c, 9, 36, 0
4, 105685, Note_on_c, 9, 59, 67
4, 105697, Note_on_c, 9, 36, 28
4, 105825, Note_on_c, 9, 59, 0
4, 106027, Note_on_c, 9, 36, 0
4, 106577, Note_on_c, 9, 44, 84
4, 107101, Note_on_c, 9, 44, 0
4, 107320, Note_on_c, 9, 59, 70
4, 107421, Note_on_c, 9, 59, 0
4, 107624, Note_on_c, 9, 59, 73
4, 108119, Note_on_c, 9, 59, 0
4, 108515, Note_on_c, 9, 44, 74
4, 109191, Note_on_c, 9, 44, 0
4, 109231, Note_on_c, 9, 59, 68
4, 109305, Note_on_c, 9, 59, 0
4, 109514, Note_on_c, 9, 59, 73
4, 110154, Note_on_c, 9, 59, 0
4, 111169, Note_on_c, 9, 59, 70
4, 111242, Note_on_c, 9, 59, 0
4, 111437, Note_on_c, 9, 59, 76
4, 111990, Note_on_c, 9, 38, 27
4, 112042, Note_on_c, 9, 38, 0
4, 112160, Note_on_c, 9, 59, 0
4, 112397, Note_on_c, 9, 44, 64
4, 113012, Note_on_c, 9, 44, 0
4, 113091, Note_on_c, 9, 59, 58
4, 113163, Note_on_c, 9, 59, 0
4, 113327, Note_on_c, 9, 59, 71
4, 113895, Note_on_c, 9, 59, 0
4, 114287, Note_on_c, 9, 44, 59
4, 114326, Note_on_c, 9, 38, 22
4, 114440, Note_on_c, 9, 38, 0
4, 114899, Note_on_c, 9, 38, 49
4, 115003, Note_on_c, 9, 38, 0
4, 115017, Note_on_c, 9, 44, 0
4, 115098, Note_on_c, 9, 59, 35
4, 115184, Note_on_c, 9, 59, 0
4, 115316, Note_on_c, 9, 59, 70
4, 115803, Note_on_c, 9, 36, 41
4, 115841, Note_on_c, 9, 59, 0
4, 115925, Note_on_c, 9, 36, 0
4, 116197, Note_on_c, 9, 59, 80
4, 116839, Note_on_c, 9, 59, 0
4, 117187, Note_on_c, 9, 59, 71
4, 117623, Note_on_c, 9, 59, 0
4, 118059, Note_on_c, 9, 59, 89
4, 118461, Note_on_c, 9, 59, 0
4, 118748, Note_on_c, 9, 59, 53
4, 118852, Note_on_c, 9, 59, 0
4, 119016, Note_on_c, 9, 59, 80
4, 119591, Note_on_c, 9, 59, 0
4, 120009, Note_on_c, 9, 44, 42
4, 120638, Note_on_c, 9, 59, 49
4, 120677, Note_on_c, 9, 44, 0
4, 120736, Note_on_c, 9, 59, 0
4, 120919, Note_on_c, 9, 59, 77
4, 121498, Note_on_c, 9, 59, 0
4, 122470, Note_on_c, 9, 59, 49
4, 122559, Note_on_c, 9, 59, 0
4, 122770, Note_on_c, 9, 59, 67
4, 123375, Note_on_c, 9, 59, 0
4, 123803, Note_on_c, 9, 44, 69
4, 124363, Note_on_c, 9, 44, 0
4, 124505, Note_on_c, 9, 59, 28
4, 124602, Note_on_c, 9, 59, 0
4, 124781, Note_on_c, 9, 59, 63
4, 125421, Note_on_c, 9, 59, 0
4, 126444, Note_on_c, 9, 59, 36
4, 126529, Note_on_c, 9, 59, 0
4, 126723, Note_on_c, 9, 59, 60
4, 127059, Note_on_c, 9, 38, 28
4, 127210, Note_on_c, 9, 38, 0
4, 127254, Note_on_c, 9, 59, 0
4, 127376, Note_on_c, 9, 38, 32
4, 127538, Note_on_c, 9, 38, 0
4, 127639, Note_on_c, 9, 44, 67
4, 127697, Note_on_c, 9, 59, 88
4, 127747, Note_on_c, 9, 36, 37
4, 128189, Note_on_c, 9, 36, 0
4, 128196, Note_on_c, 9, 44, 0
4, 128222, Note_on_c, 9, 59, 0
4, 128384, Note_on_c, 9, 36, 34
4, 128543, Note_on_c, 9, 36, 0
4, 129322, Note_on_c, 9, 59, 60
4, 129449, Note_on_c, 9, 59, 0
4, 129613, Note_on_c, 9, 59, 79
4, 130060, Note_on_c, 9, 59, 0
4, 130304, Note_on_c, 9, 59, 83
4, 130529, Note_on_c, 9, 59, 0
4, 130810, Note_on_c, 9, 59, 72
4, 131125, Note_on_c, 9, 59, 0
4, 132233, Note_on_c, 9, 59, 52
4, 132315, Note_on_c, 9, 59, 0
4, 132510, Note_on_c, 9, 59, 69
4, 132978, Note_on_c, 9, 59, 0
4, 133458, Note_on_c, 9, 59, 50
4, 133531, Note_on_c, 9, 59, 0
4, 134140, Note_on_c, 9, 59, 88
4, 134333, Note_on_c, 9, 59, 0
4, 134504, Note_on_c, 9, 59, 55
4, 134607, Note_on_c, 9, 59, 0
4, 135387, Note_on_c, 9, 44, 57
4, 135406, Note_on_c, 9, 59, 78
4, 135512, Note_on_c, 9, 59, 0
4, 136002, Note_on_c, 9, 44, 0
4, 136095, Note_on_c, 9, 59, 91
4, 136281, Note_on_c, 9, 59, 0
4, 136426, Note_on_c, 9, 59, 63
4, 136616, Note_on_c, 9, 59, 0
4, 137298, Note_on_c, 9, 44, 62
4, 137324, Note_on_c, 9, 59, 88
4, 137359, Note_on_c, 9, 38, 49
4, 137499, Note_on_c, 9, 38, 0
4, 137612, Note_on_c, 9, 59, 0
4, 137891, Note_on_c, 9, 44, 0
4, 137928, Note_on_c, 9, 36, 45
4, 138109, Note_on_c, 9, 36, 0
4, 138247, Note_on_c, 9, 59, 82
4, 138310, Note_on_c, 9, 36, 37
4, 138698, Note_on_c, 9, 36, 0
4, 138813, Note_on_c, 9, 59, 0
4, 138895, Note_on_c, 9, 53, 80
4, 138918, Note_on_c, 9, 36, 48
4, 139058, Note_on_c, 9, 36, 0
4, 139266, Note_on_c, 9, 59, 47
4, 139731, Note_on_c, 9, 59, 0
4, 140176, Note_on_c, 9, 59, 81
4, 140690, Note_on_c, 9, 59, 0
4, 141024, Note_on_c, 9, 59, 64
4, 141082, Note_on_c, 9, 44, 67
4, 141085, Note_on_c, 9, 53, 0
4, 141424, Note_on_c, 9, 59, 0
4, 141484, Note_on_c, 9, 38, 33
4, 141624, Note_on_c, 9, 38, 0
4, 141733, Note_on_c, 9, 53, 75
4, 141747, Note_on_c, 9, 44, 0
4, 141753, Note_on_c, 9, 38, 44
4, 142122, Note_on_c, 9, 53, 0
4, 142183, Note_on_c, 9, 38, 0
4, 142452, Note_on_c, 9, 38, 11
4, 142513, Note_on_c, 9, 38, 0
4, 142650, Note_on_c, 9, 38, 18
4, 142690, Note_on_c, 9, 59, 49
4, 142822, Note_on_c, 9, 38, 0
4, 142845, Note_on_c, 9, 59, 0
4, 142852, Note_on_c, 9, 53, 25
4, 142936, Note_on_c, 9, 53, 0
4, 142957, Note_on_c, 9, 38, 36
4, 143005, Note_on_c, 9, 59, 80
4, 143396, Note_on_c, 9, 38, 0
4, 143582, Note_on_c, 9, 59, 0
4, 143606, Note_on_c, 9, 38, 55
4, 143655, Note_on_c, 9, 38, 0
4, 143910, Note_on_c, 9, 59, 84
4, 144309, Note_on_c, 9, 38, 44
4, 144418, Note_on_c, 9, 38, 0
4, 144552, Note_on_c, 9, 38, 34
4, 144575, Note_on_c, 9, 59, 0
4, 144640, Note_on_c, 9, 38, 0
4, 144824, Note_on_c, 9, 44, 69
4, 144878, Note_on_c, 9, 38, 45
4, 144891, Note_on_c, 9, 59, 58
4, 145144, Note_on_c, 9, 59, 0
4, 145211, Note_on_c, 9, 38, 0
4, 145371, Note_on_c, 9, 44, 0
4, 145512, Note_on_c, 9, 36, 34
4, 145524, Note_on_c, 9, 59, 64
4, 145664, Note_on_c, 9, 36, 0
4, 145684, Note_on_c, 9, 59, 0
4, 145817, Note_on_c, 9, 59, 90
4, 145889, Note_on_c, 9, 36, 58
4, 146223, Note_on_c, 9, 36, 0
4, 146438, Note_on_c, 9, 59, 0
4, 146775, Note_on_c, 9, 44, 62
4, 146787, Note_on_c, 9, 59, 74
4, 147181, Note_on_c, 9, 59, 0
4, 147382, Note_on_c, 9, 44, 0
4, 147466, Note_on_c, 9, 59, 52
4, 147582, Note_on_c, 9, 59, 0
4, 147753, Note_on_c, 9, 59, 76
4, 148360, Note_on_c, 9, 59, 0
4, 148689, Note_on_c, 9, 44, 64
4, 148725, Note_on_c, 9, 59, 90
4, 148989, Note_on_c, 9, 38, 53
4, 149089, Note_on_c, 9, 38, 0
4, 149317, Note_on_c, 9, 44, 0
4, 149317, Note_on_c, 9, 36, 39
4, 149383, Note_on_c, 9, 36, 0
4, 149448, Note_on_c, 9, 59, 0
4, 149612, Note_on_c, 9, 57, 57
4, 149654, Note_on_c, 9, 36, 63
4, 149660, Note_on_c, 9, 59, 39
4, 149822, Note_on_c, 9, 59, 0
4, 150092, Note_on_c, 9, 36, 0
4, 150106, Note_on_c, 9, 57, 0
4, 150234, Note_on_c, 9, 57, 44
4, 150235, Note_on_c, 9, 36, 48
4, 150337, Note_on_c, 9, 57, 0
4, 150338, Note_on_c, 9, 59, 42
4, 150431, Note_on_c, 9, 59, 0
4, 150450, Note_on_c, 9, 36, 0
4, 150589, Note_on_c, 9, 59, 78
4, 151263, Note_on_c, 9, 59, 0
4, 151585, Note_on_c, 9, 59, 64
4, 152067, Note_on_c, 9, 59, 0
4, 152343, Note_on_c, 9, 59, 57
4, 152425, Note_on_c, 9, 59, 0
4, 152580, Note_on_c, 9, 59, 80
4, 152586, Note_on_c, 9, 44, 60
4, 153073, Note_on_c, 9, 44, 0
4, 153174, Note_on_c, 9, 59, 0
4, 153563, Note_on_c, 9, 59, 74
4, 154121, Note_on_c, 9, 59, 0
4, 154507, Note_on_c, 9, 59, 80
4, 154515, Note_on_c, 9, 44, 62
4, 154853, Note_on_c, 9, 59, 0
4, 154983, Note_on_c, 9, 44, 0
4, 155181, Note_on_c, 9, 59, 44
4, 155276, Note_on_c, 9, 59, 0
4, 155449, Note_on_c, 9, 59, 75
4, 156097, Note_on_c, 9, 59, 0
4, 156135, Note_on_c, 9, 38, 51
4, 156351, Note_on_c, 9, 38, 0
4, 156468, Note_on_c, 9, 59, 70
4, 156499, Note_on_c, 9, 44, 64
4, 156577, Note_on_c, 9, 59, 0
4, 157097, Note_on_c, 9, 36, 43
4, 157131, Note_on_c, 9, 44, 0
4, 157136, Note_on_c, 9, 59, 54
4, 157214, Note_on_c, 9, 59, 0
4, 157303, Note_on_c, 9, 36, 0
4, 157415, Note_on_c, 9, 59, 75
4, 158005, Note_on_c, 9, 38, 46
4, 158028, Note_on_c, 9, 59, 0
4, 158071, Note_on_c, 9, 38, 0
4, 158384, Note_on_c, 9, 59, 83
4, 158425, Note_on_c, 9, 44, 67
4, 158932, Note_on_c, 9, 38, 53
4, 159035, Note_on_c, 9, 59, 0
4, 159063, Note_on_c, 9, 44, 0
4, 159066, Note_on_c, 9, 38, 0
4, 159339, Note_on_c, 9, 59, 76
4, 159780, Note_on_c, 9, 59, 0
4, 159899, Note_on_c, 9, 38, 60
4, 160025, Note_on_c, 9, 38, 0
4, 160235, Note_on_c, 9, 44, 59
4, 160277, Note_on_c, 9, 59, 80
4, 160604, Note_on_c, 9, 45, 72
4, 160690, Note_on_c, 9, 45, 0
4, 160752, Note_on_c, 9, 59, 0
4, 160752, Note_on_c, 9, 44, 0
4, 160916, Note_on_c, 9, 59, 60
4, 160922, Note_on_c, 9, 38, 50
4, 161054, Note_on_c, 9, 38, 0
4, 161074, Note_on_c, 9, 59, 0
4, 161220, Note_on_c, 9, 59, 80
4, 161275, Note_on_c, 9, 36, 80
4, 161715, Note_on_c, 9, 36, 0
4, 161847, Note_on_c, 9, 59, 0
4, 162914, Note_on_c, 9, 59, 53
4, 163011, Note_on_c, 9, 59, 0
4, 163216, Note_on_c, 9, 59, 68
4, 163780, Note_on_c, 9, 59, 0
4, 164919, Note_on_c, 9, 59, 57
4, 165009, Note_on_c, 9, 59, 0
4, 165193, Note_on_c, 9, 59, 63
4, 165573, Note_on_c, 9, 59, 0
4, 165804, Note_on_c, 9, 53, 79
4, 165959, Note_on_c, 9, 53, 0
4, 166079, Note_on_c, 9, 44, 52
4, 166091, Note_on_c, 9, 59, 51
4, 166581, Note_on_c, 9, 44, 0
4, 166616, Note_on_c, 9, 59, 0
4, 166847, Note_on_c, 9, 53, 57
4, 166921, Note_on_c, 9, 53, 0
4, 167152, Note_on_c, 9, 59, 82
4, 167610, Note_on_c, 9, 59, 0
4, 167746, Note_on_c, 9, 51, 77
4, 167750, Note_on_c, 9, 53, 79
4, 168026, Note_on_c, 9, 44, 63
4, 168067, Note_on_c, 9, 38, 32
4, 168150, Note_on_c, 9, 38, 0
4, 168371, Note_on_c, 9, 38, 36
4, 168448, Note_on_c, 9, 38, 0
4, 168661, Note_on_c, 9, 44, 0
4, 168666, Note_on_c, 9, 36, 54
4, 168850, Note_on_c, 9, 53, 0
4, 168866, Note_on_c, 9, 36, 0
4, 168912, Note_on_c, 9, 51, 0
4, 169010, Note_on_c, 9, 36, 63
4, 169068, Note_on_c, 9, 59, 78
4, 169428, Note_on_c, 9, 36, 0
4, 169573, Note_on_c, 9, 36, 48
4, 169584, Note_on_c, 9, 59, 0
4, 169745, Note_on_c, 9, 36, 0
4, 170029, Note_on_c, 9, 59, 59
4, 170398, Note_on_c, 9, 59, 0
4, 170737, Note_on_c, 9, 59, 66
4, 170861, Note_on_c, 9, 59, 0
4, 171021, Note_on_c, 9, 59, 71
4, 171254, Note_on_c, 9, 59, 0
4, 171872, Note_on_c, 9, 44, 59
4, 172498, Note_on_c, 9, 44, 0
4, 172513, Note_on_c, 9, 59, 61
4, 172658, Note_on_c, 9, 59, 0
4, 172826, Note_on_c, 9, 59, 71
4, 173329, Note_on_c, 9, 59, 0
4, 173696, Note_on_c, 9, 44, 61
4, 174397, Note_on_c, 9, 44, 0
4, 174435, Note_on_c, 9, 59, 45
4, 174541, Note_on_c, 9, 59, 0
4, 174727, Note_on_c, 9, 59, 66
4, 175204, Note_on_c, 9, 59, 0
4, 175695, Note_on_c, 9, 59, 92
4, 176103, Note_on_c, 9, 59, 0
4, 176451, Note_on_c, 9, 59, 47
4, 176531, Note_on_c, 9, 59, 0
4, 176664, Note_on_c, 9, 59, 74
4, 177168, Note_on_c, 9, 59, 0
4, 177650, Note_on_c, 9, 44, 69
4, 178276, Note_on_c, 9, 44, 0
4, 178703, Note_on_c, 9, 59, 59
4, 179237, Note_on_c, 9, 59, 0
4, 179597, Note_on_c, 9, 44, 67
4, 180149, Note_on_c, 9, 44, 0
4, 180317, Note_on_c, 9, 59, 46
4, 180417, Note_on_c, 9, 59, 0
4, 180594, Note_on_c, 9, 59, 66
4, 181211, Note_on_c, 9, 59, 0
4, 182220, Note_on_c, 9, 59, 49
4, 182309, Note_on_c, 9, 59, 0
4, 182501, Note_on_c, 9, 59, 64
4, 183026, Note_on_c, 9, 59, 0
4, 183393, Note_on_c, 9, 44, 71
4, 183874, Note_on_c, 9, 44, 0
4, 184009, Note_on_c, 9, 59, 51
4, 184095, Note_on_c, 9, 59, 0
4, 184313, Note_on_c, 9, 59, 62
4, 184890, Note_on_c, 9, 59, 0
4, 185251, Note_on_c, 9, 44, 63
4, 185856, Note_on_c, 9, 44, 0
4, 186037, Note_on_c, 9, 59, 47
4, 186138, Note_on_c, 9, 59, 0
4, 186324, Note_on_c, 9, 59, 68
4, 186497, Note_on_c, 9, 59, 0
4, 187158, Note_on_c, 9, 44, 69
4, 187162, Note_on_c, 9, 59, 80
4, 187676, Note_on_c, 9, 44, 0
4, 187863, Note_on_c, 9, 36, 24
4, 187881, Note_on_c, 9, 59, 0
4, 187912, Note_on_c, 9, 36, 0
4, 188808, Note_on_c, 9, 59, 55
4, 188905, Note_on_c, 9, 59, 0
4, 189061, Note_on_c, 9, 38, 48
4, 189111, Note_on_c, 9, 59, 73
4, 189487, Note_on_c, 9, 38, 0
4, 189659, Note_on_c, 9, 59, 0
4, 189715, Note_on_c, 9, 38, 48
4, 189928, Note_on_c, 9, 38, 0
4, 190056, Note_on_c, 9, 38, 33
4, 190534, Note_on_c, 9, 38, 0
4, 190636, Note_on_c, 9, 38, 53
4, 190784, Note_on_c, 9, 59, 74
4, 190944, Note_on_c, 9, 59, 0
4, 191048, Note_on_c, 9, 44, 74
4, 191102, Note_on_c, 9, 59, 73
4, 191202, Note_on_c, 9, 38, 0
4, 191331, Note_on_c, 9, 38, 49
4, 191442, Note_on_c, 9, 38, 0
4, 191572, Note_on_c, 9, 44, 0
4, 191659, Note_on_c, 9, 36, 54
4, 191726, Note_on_c, 9, 59, 0
4, 191774, Note_on_c, 9, 36, 0
4, 191998, Note_on_c, 9, 57, 78
4, 192021, Note_on_c, 9, 36, 74
4, 192039, Note_on_c, 9, 59, 80
4, 192707, Note_on_c, 9, 59, 0
4, 193016, Note_on_c, 9, 59, 80
4, 193366, Note_on_c, 9, 59, 0
4, 193746, Note_on_c, 9, 59, 62
4, 193841, Note_on_c, 9, 59, 0
4, 194016, Note_on_c, 9, 59, 69
4, 194348, Note_on_c, 9, 57, 0
4, 194811, Note_on_c, 9, 59, 0
4, 194864, Note_on_c, 9, 44, 64
4, 195153, Note_on_c, 9, 36, 0
4, 195378, Note_on_c, 9, 44, 0
4, 195558, Note_on_c, 9, 59, 74
4, 195727, Note_on_c, 9, 59, 0
4, 195897, Note_on_c, 9, 59, 66
4, 196852, Note_on_c, 9, 59, 0
4, 197571, Note_on_c, 9, 59, 74
4, 197740, Note_on_c, 9, 59, 0
4, 197893, Note_on_c, 9, 59, 70
4, 198206, Note_on_c, 9, 59, 0
4, 198396, Note_on_c, 9, 38, 27
4, 198454, Note_on_c, 9, 38, 0
4, 198771, Note_on_c, 9, 44, 76
4, 199235, Note_on_c, 9, 44, 0
4, 199297, Note_on_c, 9, 36, 33
4, 199387, Note_on_c, 9, 36, 0
4, 199444, Note_on_c, 9, 59, 62
4, 199606, Note_on_c, 9, 59, 0
4, 199695, Note_on_c, 9, 59, 70
4, 200239, Note_on_c, 9, 59, 0
4, 200576, Note_on_c, 9, 59, 87
4, 201183, Note_on_c, 9, 59, 0
4, 201528, Note_on_c, 9, 59, 73
4, 201606, Note_on_c, 9, 44, 74
4, 201806, Note_on_c, 9, 38, 36
4, 201883, Note_on_c, 9, 38, 0
4, 201911, Note_on_c, 9, 59, 0
4, 202030, Note_on_c, 9, 44, 0
4, 202494, Note_on_c, 9, 59, 83
4, 203112, Note_on_c, 9, 36, 32
4, 203186, Note_on_c, 9, 36, 0
4, 203200, Note_on_c, 9, 59, 0
4, 203707, Note_on_c, 9, 38, 31
4, 203870, Note_on_c, 9, 38, 0
4, 204023, Note_on_c, 9, 38, 38
4, 204098, Note_on_c, 9, 38, 0
4, 204125, Note_on_c, 9, 59, 58
4, 204239, Note_on_c, 9, 59, 0
4, 204397, Note_on_c, 9, 59, 84
4, 204439, Note_on_c, 9, 44, 74
4, 204894, Note_on_c, 9, 44, 0
4, 205002, Note_on_c, 9, 59, 0
4, 205332, Note_on_c, 9, 59, 89
4, 205837, Note_on_c, 9, 59, 0
4, 206023, Note_on_c, 9, 59, 49
4, 206114, Note_on_c, 9, 59, 0
4, 206272, Note_on_c, 9, 59, 80
4, 206866, Note_on_c, 9, 59, 0
4, 207229, Note_on_c, 9, 59, 85
4, 207741, Note_on_c, 9, 59, 0
4, 208029, Note_on_c, 9, 38, 40
4, 208202, Note_on_c, 9, 38, 0
4, 208246, Note_on_c, 9, 59, 68
4, 208251, Note_on_c, 9, 44, 68
4, 208403, Note_on_c, 9, 36, 28
4, 208524, Note_on_c, 9, 36, 0
4, 208690, Note_on_c, 9, 44, 0
4, 208888, Note_on_c, 9, 59, 0
4, 208946, Note_on_c, 9, 53, 75
4, 208970, Note_on_c, 9, 36, 41
4, 209166, Note_on_c, 9, 36, 0
4, 209252, Note_on_c, 9, 59, 53
4, 209898, Note_on_c, 9, 59, 0
4, 210248, Note_on_c, 9, 59, 71
4, 210775, Note_on_c, 9, 59, 0
4, 211179, Note_on_c, 9, 59, 74
4, 211315, Note_on_c, 9, 53, 0
4, 211711, Note_on_c, 9, 59, 0
4, 211827, Note_on_c, 9, 53, 75
4, 211955, Note_on_c, 9, 38, 54
4, 212177, Note_on_c, 9, 38, 0
4, 212177, Note_on_c, 9, 59, 51
4, 212203, Note_on_c, 9, 53, 0
4, 212203, Note_on_c, 9, 44, 60
4, 212465, Note_on_c, 9, 36, 1
4, 212671, Note_on_c, 9, 36, 0
4, 212711, Note_on_c, 9, 44, 0
4, 212821, Note_on_c, 9, 59, 0
4, 212874, Note_on_c, 9, 36, 42
4, 213132, Note_on_c, 9, 59, 79
4, 213155, Note_on_c, 9, 36, 0
4, 213210, Note_on_c, 9, 44, 68
4, 213305, Note_on_c, 9, 36, 58
4, 213786, Note_on_c, 9, 36, 0
4, 213795, Note_on_c, 9, 59, 0
4, 213830, Note_on_c, 9, 44, 0
4, 213927, Note_on_c, 9, 36, 37
4, 214012, Note_on_c, 9, 36, 0
4, 214041, Note_on_c, 9, 59, 70
4, 214465, Note_on_c, 9, 59, 0
4, 214726, Note_on_c, 9, 59, 47
4, 214860, Note_on_c, 9, 59, 0
4, 214990, Note_on_c, 9, 59, 69
4, 215661, Note_on_c, 9, 59, 0
4, 215942, Note_on_c, 9, 59, 76
4, 215945, Note_on_c, 9, 44, 70
4, 216548, Note_on_c, 9, 44, 0
4, 216648, Note_on_c, 9, 59, 0
4, 216933, Note_on_c, 9, 59, 78
4, 217458, Note_on_c, 9, 59, 0
4, 217550, Note_on_c, 9, 38, 44
4, 217707, Note_on_c, 9, 38, 0
4, 217852, Note_on_c, 9, 59, 79
4, 217920, Note_on_c, 9, 44, 63
4, 218348, Note_on_c, 9, 59, 0
4, 218482, Note_on_c, 9, 38, 49
4, 218498, Note_on_c, 9, 44, 0
4, 218564, Note_on_c, 9, 59, 48
4, 218621, Note_on_c, 9, 38, 0
4, 218748, Note_on_c, 9, 59, 0
4, 218819, Note_on_c, 9, 59, 54
4, 219423, Note_on_c, 9, 38, 39
4, 219482, Note_on_c, 9, 59, 0
4, 219658, Note_on_c, 9, 38, 0
4, 219760, Note_on_c, 9, 44, 72
4, 219778, Note_on_c, 9, 59, 87
4, 219829, Note_on_c, 9, 36, 25
4, 219949, Note_on_c, 9, 36, 0
4, 220238, Note_on_c, 9, 44, 0
4, 220264, Note_on_c, 9, 59, 0
4, 220431, Note_on_c, 9, 36, 49
4, 220474, Note_on_c, 9, 59, 51
4, 220598, Note_on_c, 9, 36, 0
4, 220651, Note_on_c, 9, 59, 0
4, 220763, Note_on_c, 9, 59, 74
4, 220781, Note_on_c, 9, 36, 43
4, 221099, Note_on_c, 9, 36, 0
4, 221292, Note_on_c, 9, 59, 0
4, 221711, Note_on_c, 9, 44, 70
4, 221742, Note_on_c, 9, 59, 118
4, 222390, Note_on_c, 9, 38, 42
4, 222397, Note_on_c, 9, 44, 0
4, 222461, Note_on_c, 9, 59, 0
4, 222537, Note_on_c, 9, 38, 0
4, 222705, Note_on_c, 9, 59, 47
4, 222761, Note_on_c, 9, 57, 30
4, 222762, Note_on_c, 9, 38, 34
4, 223057, Note_on_c, 9, 59, 0
4, 223127, Note_on_c, 9, 57, 0
4, 223128, Note_on_c, 9, 38, 0
4, 223394, Note_on_c, 9, 59, 55
4, 223493, Note_on_c, 9, 59, 0
4, 223649, Note_on_c, 9, 59, 88
4, 223656, Note_on_c, 9, 44, 71
4, 224305, Note_on_c, 9, 44, 0
4, 224334, Note_on_c, 9, 59, 0
4, 224634, Note_on_c, 9, 59, 81
4, 225154, Note_on_c, 9, 59, 0
4, 225567, Note_on_c, 9, 59, 81
4, 226098, Note_on_c, 9, 59, 0
4, 226554, Note_on_c, 9, 59, 82
4, 226956, Note_on_c, 9, 59, 0
4, 227458, Note_on_c, 9, 44, 73
4, 227502, Note_on_c, 9, 59, 80
4, 227878, Note_on_c, 9, 59, 0
4, 228099, Note_on_c, 9, 44, 0
4, 228243, Note_on_c, 9, 59, 60
4, 228379, Note_on_c, 9, 59, 0
4, 228524, Note_on_c, 9, 59, 83
4, 229096, Note_on_c, 9, 59, 0
4, 229468, Note_on_c, 9, 59, 82
4, 229924, Note_on_c, 9, 59, 0
4, 230168, Note_on_c, 9, 59, 51
4, 230186, Note_on_c, 9, 38, 18
4, 230284, Note_on_c, 9, 38, 0
4, 230315, Note_on_c, 9, 59, 0
4, 230459, Note_on_c, 9, 59, 83
4, 231064, Note_on_c, 9, 59, 0
4, 231088, Note_on_c, 9, 36, 31
4, 231263, Note_on_c, 9, 36, 0
4, 231391, Note_on_c, 9, 44, 74
4, 231412, Note_on_c, 9, 59, 83
4, 231447, Note_on_c, 9, 36, 34
4, 231812, Note_on_c, 9, 36, 0
4, 231847, Note_on_c, 9, 44, 0
4, 231874, Note_on_c, 9, 59, 0
4, 232388, Note_on_c, 9, 59, 80
4, 232812, Note_on_c, 9, 59, 0
4, 233339, Note_on_c, 9, 59, 85
4, 233687, Note_on_c, 9, 59, 0
4, 233910, Note_on_c, 9, 36, 51
4, 233977, Note_on_c, 9, 36, 0
4, 234013, Note_on_c, 9, 59, 66
4, 234203, Note_on_c, 9, 59, 0
4, 234328, Note_on_c, 9, 59, 82
4, 234831, Note_on_c, 9, 59, 0
4, 235183, Note_on_c, 9, 44, 74
4, 235253, Note_on_c, 9, 59, 89
4, 235501, Note_on_c, 9, 59, 0
4, 235707, Note_on_c, 9, 44, 0
4, 235820, Note_on_c, 9, 38, 20
4, 235888, Note_on_c, 9, 38, 0
4, 236188, Note_on_c, 9, 59, 88
4, 236769, Note_on_c, 9, 59, 0
4, 236920, Note_on_c, 9, 59, 66
4, 236996, Note_on_c, 9, 59, 0
4, 237124, Note_on_c, 9, 44, 71
4, 237186, Note_on_c, 9, 59, 79
4, 237473, Note_on_c, 9, 44, 0
4, 237789, Note_on_c, 9, 59, 0
4, 237790, Note_on_c, 9, 38, 42
4, 238101, Note_on_c, 9, 38, 0
4, 238129, Note_on_c, 9, 59, 83
4, 238172, Note_on_c, 9, 36, 24
4, 238310, Note_on_c, 9, 36, 0
4, 238577, Note_on_c, 9, 59, 0
4, 238747, Note_on_c, 9, 36, 33
4, 238902, Note_on_c, 9, 36, 0
4, 239045, Note_on_c, 9, 59, 84
4, 239118, Note_on_c, 9, 36, 36
4, 239451, Note_on_c, 9, 36, 0
4, 239456, Note_on_c, 9, 59, 0
4, 239711, Note_on_c, 9, 36, 42
4, 239799, Note_on_c, 9, 59, 51
4, 239884, Note_on_c, 9, 59, 0
4, 239912, Note_on_c, 9, 36, 0
4, 240026, Note_on_c, 9, 59, 80
4, 240596, Note_on_c, 9, 59, 0
4, 240943, Note_on_c, 9, 44, 65
4, 240974, Note_on_c, 9, 59, 87
4, 241517, Note_on_c, 9, 44, 0
4, 241529, Note_on_c, 9, 59, 0
4, 241929, Note_on_c, 9, 59, 82
4, 242387, Note_on_c, 9, 59, 0
4, 242597, Note_on_c, 9, 59, 42
4, 242687, Note_on_c, 9, 59, 0
4, 242784, Note_on_c, 9, 44, 67
4, 242847, Note_on_c, 9, 59, 77
4, 243345, Note_on_c, 9, 44, 0
4, 243452, Note_on_c, 9, 59, 0
4, 243819, Note_on_c, 9, 59, 83
4, 244156, Note_on_c, 9, 38, 22
4, 244258, Note_on_c, 9, 38, 0
4, 244400, Note_on_c, 9, 59, 0
4, 244769, Note_on_c, 9, 59, 80
4, 244770, Note_on_c, 9, 44, 65
4, 244793, Note_on_c, 9, 38, 27
4, 244900, Note_on_c, 9, 38, 0
4, 245076, Note_on_c, 9, 38, 22
4, 245186, Note_on_c, 9, 59, 0
4, 245256, Note_on_c, 9, 38, 0
4, 245379, Note_on_c, 9, 44, 0
4, 245437, Note_on_c, 9, 36, 29
4, 245521, Note_on_c, 9, 59, 53
4, 245528, Note_on_c, 9, 36, 0
4, 245603, Note_on_c, 9, 59, 0
4, 245761, Note_on_c, 9, 59, 74
4, 246303, Note_on_c, 9, 59, 0
4, 246723, Note_on_c, 9, 44, 64
4, 246731, Note_on_c, 9, 59, 89
4, 247193, Note_on_c, 9, 59, 0
4, 247343, Note_on_c, 9, 44, 0
4, 247448, Note_on_c, 9, 59, 41
4, 247551, Note_on_c, 9, 59, 0
4, 247735, Note_on_c, 9, 59, 69
4, 248245, Note_on_c, 9, 59, 0
4, 248662, Note_on_c, 9, 38, 29
4, 248683, Note_on_c, 9, 59, 89
4, 248697, Note_on_c, 9, 44, 70
4, 248795, Note_on_c, 9, 38, 0
4, 248923, Note_on_c, 9, 38, 29
4, 249079, Note_on_c, 9, 38, 0
4, 249169, Note_on_c, 9, 59, 0
4, 249243, Note_on_c, 9, 36, 35
4, 249365, Note_on_c, 9, 44, 0
4, 249407, Note_on_c, 9, 59, 37
4, 249426, Note_on_c, 9, 36, 0
4, 249519, Note_on_c, 9, 59, 0
4, 249565, Note_on_c, 9, 38, 33
4, 249664, Note_on_c, 9, 59, 81
4, 249686, Note_on_c, 9, 38, 0
4, 249873, Note_on_c, 9, 38, 28
4, 250071, Note_on_c, 9, 38, 0
4, 250182, Note_on_c, 9, 59, 0
4, 250186, Note_on_c, 9, 36, 33
4, 250259, Note_on_c, 9, 36, 0
4, 250506, Note_on_c, 9, 38, 29
4, 250582, Note_on_c, 9, 44, 69
4, 250601, Note_on_c, 9, 59, 91
4, 250636, Note_on_c, 9, 38, 0
4, 250822, Note_on_c, 9, 38, 34
4, 250878, Note_on_c, 9, 38, 0
4, 251085, Note_on_c, 9, 59, 0
4, 251195, Note_on_c, 9, 38, 28
4, 251252, Note_on_c, 9, 38, 0
4, 251262, Note_on_c, 9, 44, 0
4, 251550, Note_on_c, 9, 59, 91
4, 251796, Note_on_c, 9, 59, 0
4, 252262, Note_on_c, 9, 59, 58
4, 252342, Note_on_c, 9, 59, 0
4, 252522, Note_on_c, 9, 59, 68
4, 252795, Note_on_c, 9, 38, 49
4, 252893, Note_on_c, 9, 38, 0
4, 252964, Note_on_c, 9, 59, 0
4, 253062, Note_on_c, 9, 38, 58
4, 253135, Note_on_c, 9, 59, 61
4, 253170, Note_on_c, 9, 53, 84
4, 253207, Note_on_c, 9, 38, 0
4, 253374, Note_on_c, 9, 57, 35
4, 253399, Note_on_c, 9, 36, 49
4, 253906, Note_on_c, 9, 59, 0
4, 254093, Note_on_c, 9, 57, 0
4, 254114, Note_on_c, 9, 59, 63
4, 254286, Note_on_c, 9, 59, 0
4, 254296, Note_on_c, 9, 44, 69
4, 254429, Note_on_c, 9, 59, 63
4, 254442, Note_on_c, 9, 53, 0
4, 254783, Note_on_c, 9, 44, 0
4, 254791, Note_on_c, 9, 36, 0
4, 254893, Note_on_c, 9, 59, 0
4, 255036, Note_on_c, 9, 59, 80
4, 255267, Note_on_c, 9, 59, 0
4, 255898, Note_on_c, 9, 59, 61
4, 256036, Note_on_c, 9, 59, 0
4, 256246, Note_on_c, 9, 53, 79
4, 256266, Note_on_c, 9, 44, 64
4, 256267, Note_on_c, 9, 59, 80
4, 256759, Note_on_c, 9, 44, 0
4, 256880, Note_on_c, 9, 59, 0
4, 257250, Note_on_c, 9, 59, 47
4, 257539, Note_on_c, 9, 53, 0
4, 257541, Note_on_c, 9, 59, 0
4, 257909, Note_on_c, 9, 59, 49
4, 258043, Note_on_c, 9, 59, 0
4, 258235, Note_on_c, 9, 59, 64
4, 258658, Note_on_c, 9, 59, 0
4, 258915, Note_on_c, 9, 59, 79
4, 258930, Note_on_c, 9, 53, 76
4, 259704, Note_on_c, 9, 59, 0
4, 259886, Note_on_c, 9, 45, 62
4, 259958, Note_on_c, 9, 59, 46
4, 260014, Note_on_c, 9, 45, 0
4, 260075, Note_on_c, 9, 59, 0
4, 260134, Note_on_c, 9, 53, 0
4, 260183, Note_on_c, 9, 44, 70
4, 260350, Note_on_c, 9, 59, 89
4, 260686, Note_on_c, 9, 59, 0
4, 260726, Note_on_c, 9, 44, 0
4, 260823, Note_on_c, 9, 43, 68
4, 260892, Note_on_c, 9, 59, 84
4, 260894, Note_on_c, 9, 53, 80
4, 260924, Note_on_c, 9, 43, 0
4, 261248, Note_on_c, 9, 59, 0
4, 261401, Note_on_c, 9, 59, 63
4, 261620, Note_on_c, 9, 59, 0
4, 261798, Note_on_c, 9, 36, 43
4, 261967, Note_on_c, 9, 59, 51
4, 261975, Note_on_c, 9, 36, 0
4, 262052, Note_on_c, 9, 59, 0
4, 262115, Note_on_c, 9, 44, 69
4, 262145, Note_on_c, 9, 36, 50
4, 262293, Note_on_c, 9, 59, 83
4, 262509, Note_on_c, 9, 36, 0
4, 262639, Note_on_c, 9, 44, 0
4, 262695, Note_on_c, 9, 59, 0
4, 262751, Note_on_c, 9, 36, 44
4, 262939, Note_on_c, 9, 53, 0
4, 262940, Note_on_c, 9, 36, 0
4, 263773, Note_on_c, 9, 59, 94
4, 263974, Note_on_c, 9, 59, 0
4, 264145, Note_on_c, 9, 59, 61
4, 264374, Note_on_c, 9, 59, 0
4, 264788, Note_on_c, 9, 53, 31
4, 264879, Note_on_c, 9, 53, 0
4, 265026, Note_on_c, 9, 59, 84
4, 265564, Note_on_c, 9, 59, 0
4, 265913, Note_on_c, 9, 44, 67
4, 265916, Note_on_c, 9, 59, 80
4, 266335, Note_on_c, 9, 59, 0
4, 266485, Note_on_c, 9, 44, 0
4, 266614, Note_on_c, 9, 59, 53
4, 266721, Note_on_c, 9, 59, 0
4, 266886, Note_on_c, 9, 59, 78
4, 267243, Note_on_c, 9, 47, 64
4, 267329, Note_on_c, 9, 47, 0
4, 267484, Note_on_c, 9, 59, 0
4, 267539, Note_on_c, 9, 47, 65
4, 267715, Note_on_c, 9, 47, 0
4, 267767, Note_on_c, 9, 44, 71
4, 267795, Note_on_c, 9, 59, 83
4, 267875, Note_on_c, 9, 45, 68
4, 267973, Note_on_c, 9, 45, 0
4, 268171, Note_on_c, 9, 38, 57
4, 268244, Note_on_c, 9, 59, 0
4, 268262, Note_on_c, 9, 44, 0
4, 268314, Note_on_c, 9, 38, 0
4, 268452, Note_on_c, 9, 38, 45
4, 268477, Note_on_c, 9, 36, 90
4, 268497, Note_on_c, 9, 59, 44
4, 268501, Note_on_c, 9, 38, 0
4, 268605, Note_on_c, 9, 36, 0
4, 268629, Note_on_c, 9, 59, 0
4, 268771, Note_on_c, 9, 59, 75
4, 268805, Note_on_c, 9, 57, 88
4, 268807, Note_on_c, 9, 36, 89
4, 269305, Note_on_c, 9, 59, 0
4, 269722, Note_on_c, 9, 44, 75
4, 269735, Note_on_c, 9, 59, 90
4, 270232, Note_on_c, 9, 59, 0
4, 270321, Note_on_c, 9, 44, 0
4, 270439, Note_on_c, 9, 59, 49
4, 270573, Note_on_c, 9, 59, 0
4, 270715, Note_on_c, 9, 59, 80
4, 271264, Note_on_c, 9, 59, 0
4, 271311, Note_on_c, 9, 57, 0
4, 271631, Note_on_c, 9, 59, 84
4, 272260, Note_on_c, 9, 59, 0
4, 272283, Note_on_c, 9, 36, 0
4, 272636, Note_on_c, 9, 59, 82
4, 273044, Note_on_c, 9, 59, 0
4, 273379, Note_on_c, 9, 59, 56
4, 273523, Note_on_c, 9, 59, 0
4, 273582, Note_on_c, 9, 44, 70
4, 273664, Note_on_c, 9, 59, 83
4, 274160, Note_on_c, 9, 44, 0
4, 274186, Note_on_c, 9, 38, 34
4, 274242, Note_on_c, 9, 38, 0
4, 274279, Note_on_c, 9, 59, 0
4, 274592, Note_on_c, 9, 59, 83
4, 275066, Note_on_c, 9, 59, 0
4, 275177, Note_on_c, 9, 38, 31
4, 275242, Note_on_c, 9, 38, 0
4, 275452, Note_on_c, 9, 44, 67
4, 275502, Note_on_c, 9, 59, 76
4, 275809, Note_on_c, 9, 59, 0
4, 276014, Note_on_c, 9, 44, 0
4, 276251, Note_on_c, 9, 59, 48
4, 276336, Note_on_c, 9, 59, 0
4, 276489, Note_on_c, 9, 59, 75
4, 276962, Note_on_c, 9, 59, 0
4, 277167, Note_on_c, 9, 59, 59
4, 277173, Note_on_c, 9, 38, 30
4, 277241, Note_on_c, 9, 38, 0
4, 277327, Note_on_c, 9, 59, 0
4, 277514, Note_on_c, 9, 36, 24
4, 277537, Note_on_c, 9, 59, 66
4, 277781, Note_on_c, 9, 36, 0
4, 277969, Note_on_c, 9, 59, 0
4, 278118, Note_on_c, 9, 36, 49
4, 278176, Note_on_c, 9, 59, 80
4, 278286, Note_on_c, 9, 36, 0
4, 278887, Note_on_c, 9, 59, 0
4, 279088, Note_on_c, 9, 38, 36
4, 279217, Note_on_c, 9, 59, 40
4, 279269, Note_on_c, 9, 38, 0
4, 279299, Note_on_c, 9, 59, 0
4, 279367, Note_on_c, 9, 44, 72
4, 279468, Note_on_c, 9, 59, 74
4, 279494, Note_on_c, 9, 36, 24
4, 279827, Note_on_c, 9, 36, 0
4, 279880, Note_on_c, 9, 59, 0
4, 280052, Note_on_c, 9, 36, 53
4, 280066, Note_on_c, 9, 44, 0
4, 280096, Note_on_c, 9, 59, 89
4, 280285, Note_on_c, 9, 36, 0
4, 280597, Note_on_c, 9, 59, 0
4, 280989, Note_on_c, 9, 38, 49
4, 281040, Note_on_c, 9, 59, 57
4, 281122, Note_on_c, 9, 59, 0
4, 281159, Note_on_c, 9, 38, 0
4, 281268, Note_on_c, 9, 44, 67
4, 281345, Note_on_c, 9, 59, 83
4, 281942, Note_on_c, 9, 38, 51
4, 281990, Note_on_c, 9, 59, 0
4, 282064, Note_on_c, 9, 44, 0
4, 282068, Note_on_c, 9, 38, 0
4, 282379, Note_on_c, 9, 59, 34
4, 282468, Note_on_c, 9, 59, 0
4, 282590, Note_on_c, 9, 47, 58
4, 282701, Note_on_c, 9, 47, 0
4, 282883, Note_on_c, 9, 38, 59
4, 282926, Note_on_c, 9, 59, 80
4, 282991, Note_on_c, 9, 38, 0
4, 283119, Note_on_c, 9, 44, 69
4, 283157, Note_on_c, 9, 59, 0
4, 283219, Note_on_c, 9, 45, 87
4, 283259, Note_on_c, 9, 59, 57
4, 283351, Note_on_c, 9, 45, 0
4, 283590, Note_on_c, 9, 38, 64
4, 283739, Note_on_c, 9, 38, 0
4, 283762, Note_on_c, 9, 44, 0
4, 283895, Note_on_c, 9, 36, 68
4, 283902, Note_on_c, 9, 59, 0
4, 283954, Note_on_c, 9, 36, 0
4, 284192, Note_on_c, 9, 59, 76
4, 284222, Note_on_c, 9, 57, 84
4, 284228, Note_on_c, 9, 36, 89
4, 284617, Note_on_c, 9, 59, 0
4, 284879, Note_on_c, 9, 59, 45
4, 284984, Note_on_c, 9, 59, 0
4, 285132, Note_on_c, 9, 44, 55
4, 285148, Note_on_c, 9, 59, 77
4, 285692, Note_on_c, 9, 44, 0
4, 285898, Note_on_c, 9, 57, 0
4, 286472, Note_on_c, 9, 59, 0
4, 286833, Note_on_c, 9, 59, 54
4, 286974, Note_on_c, 9, 59, 0
4, 287027, Note_on_c, 9, 44, 46
4, 287146, Note_on_c, 9, 59, 77
4, 287243, Note_on_c, 9, 36, 0
4, 287639, Note_on_c, 9, 44, 0
4, 287650, Note_on_c, 9, 59, 0
4, 287720, Note_on_c, 9, 38, 46
4, 287934, Note_on_c, 9, 38, 0
4, 288054, Note_on_c, 9, 59, 75
4, 288120, Note_on_c, 9, 36, 35
4, 288322, Note_on_c, 9, 36, 0
4, 288555, Note_on_c, 9, 59, 0
4, 288726, Note_on_c, 9, 36, 40
4, 288956, Note_on_c, 9, 36, 0
4, 288987, Note_on_c, 9, 44, 59
4, 289002, Note_on_c, 9, 59, 77
4, 289402, Note_on_c, 9, 59, 0
4, 289679, Note_on_c, 9, 44, 0
4, 289747, Note_on_c, 9, 59, 46
4, 289838, Note_on_c, 9, 59, 0
4, 290015, Note_on_c, 9, 59, 72
4, 290670, Note_on_c, 9, 59, 0
4, 290732, Note_on_c, 9, 36, 19
4, 290812, Note_on_c, 9, 36, 0
4, 290873, Note_on_c, 9, 44, 62
4, 291630, Note_on_c, 9, 36, 34
4, 291635, Note_on_c, 9, 59, 66
4, 291639, Note_on_c, 9, 44, 0
4, 291732, Note_on_c, 9, 36, 0
4, 291816, Note_on_c, 9, 59, 0
4, 291957, Note_on_c, 9, 59, 74
4, 292661, Note_on_c, 9, 59, 0
4, 292824, Note_on_c, 9, 44, 62
4, 292870, Note_on_c, 9, 59, 49
4, 292948, Note_on_c, 9, 59, 0
4, 293461, Note_on_c, 9, 44, 0
4, 293579, Note_on_c, 9, 59, 55
4, 293670, Note_on_c, 9, 59, 0
4, 293864, Note_on_c, 9, 59, 70
4, 294402, Note_on_c, 9, 59, 0
4, 294799, Note_on_c, 9, 59, 58
4, 294959, Note_on_c, 9, 59, 0
4, 295393, Note_on_c, 9, 53, 80
4, 295611, Note_on_c, 9, 53, 0
4, 296378, Note_on_c, 9, 59, 74
4, 296568, Note_on_c, 9, 59, 0
4, 297301, Note_on_c, 9, 53, 74
4, 297443, Note_on_c, 9, 53, 0
4, 297711, Note_on_c, 9, 59, 54
4, 298145, Note_on_c, 9, 59, 0
4, 298549, Note_on_c, 9, 59, 74
4, 298565, Note_on_c, 9, 44, 69
4, 298613, Note_on_c, 9, 37, 38
4, 298797, Note_on_c, 9, 37, 0
4, 298934, Note_on_c, 9, 59, 0
4, 299204, Note_on_c, 9, 44, 0
4, 299232, Note_on_c, 9, 36, 48
4, 299268, Note_on_c, 9, 59, 58
4, 299372, Note_on_c, 9, 59, 0
4, 299393, Note_on_c, 9, 36, 0
4, 299562, Note_on_c, 9, 59, 77
4, 299584, Note_on_c, 9, 36, 36
4, 299726, Note_on_c, 9, 36, 0
4, 300158, Note_on_c, 9, 59, 0
4, 300500, Note_on_c, 9, 59, 77
4, 300910, Note_on_c, 9, 59, 0
4, 301234, Note_on_c, 9, 59, 47
4, 301323, Note_on_c, 9, 59, 0
4, 301478, Note_on_c, 9, 59, 73
4, 302033, Note_on_c, 9, 59, 0
4, 302382, Note_on_c, 9, 44, 67
4, 302390, Note_on_c, 9, 59, 78
4, 302393, Note_on_c, 9, 37, 88
4, 302818, Note_on_c, 9, 37, 0
4, 302822, Note_on_c, 9, 59, 0
4, 302973, Note_on_c, 9, 44, 0
4, 303068, Note_on_c, 9, 36, 31
4, 303185, Note_on_c, 9, 59, 39
4, 303194, Note_on_c, 9, 36, 0
4, 303286, Note_on_c, 9, 59, 0
4, 303381, Note_on_c, 9, 59, 62
4, 303398, Note_on_c, 9, 36, 35
4, 303833, Note_on_c, 9, 36, 0
4, 303865, Note_on_c, 9, 59, 0
4, 304004, Note_on_c, 9, 36, 34
4, 304092, Note_on_c, 9, 36, 0
4, 304303, Note_on_c, 9, 59, 84
4, 304320, Note_on_c, 9, 44, 59
4, 304880, Note_on_c, 9, 44, 0
4, 304984, Note_on_c, 9, 59, 0
4, 305042, Note_on_c, 9, 53, 59
4, 305319, Note_on_c, 9, 53, 0
4, 305951, Note_on_c, 9, 59, 75
4, 306295, Note_on_c, 9, 59, 0
4, 306898, Note_on_c, 9, 53, 55
4, 306901, Note_on_c, 9, 38, 47
4, 306978, Note_on_c, 9, 53, 0
4, 307002, Note_on_c, 9, 38, 0
4, 307293, Note_on_c, 9, 59, 81
4, 307893, Note_on_c, 9, 59, 0
4, 307901, Note_on_c, 9, 38, 40
4, 308158, Note_on_c, 9, 44, 68
4, 308162, Note_on_c, 9, 38, 0
4, 308245, Note_on_c, 9, 59, 81
4, 308770, Note_on_c, 9, 44, 0
4, 308779, Note_on_c, 9, 59, 0
4, 308922, Note_on_c, 9, 36, 56
4, 309042, Note_on_c, 9, 59, 39
4, 309076, Note_on_c, 9, 36, 0
4, 309135, Note_on_c, 9, 59, 0
4, 309291, Note_on_c, 9, 59, 71
4, 309320, Note_on_c, 9, 38, 37
4, 309704, Note_on_c, 9, 38, 0
4, 309877, Note_on_c, 9, 38, 39
4, 309958, Note_on_c, 9, 53, 74
4, 309971, Note_on_c, 9, 59, 0
4, 310077, Note_on_c, 9, 38, 0
4, 310165, Note_on_c, 9, 44, 76
4, 310213, Note_on_c, 9, 53, 0
4, 310399, Note_on_c, 9, 59, 44
4, 310639, Note_on_c, 9, 59, 0
4, 310741, Note_on_c, 9, 44, 0
4, 310806, Note_on_c, 9, 36, 48
4, 310873, Note_on_c, 9, 36, 0
4, 310893, Note_on_c, 9, 59, 78
4, 311136, Note_on_c, 9, 38, 42
4, 311393, Note_on_c, 9, 38, 0
4, 311691, Note_on_c, 9, 59, 0
4, 311883, Note_on_c, 9, 59, 45
4, 311978, Note_on_c, 9, 59, 0
4, 312035, Note_on_c, 9, 44, 68
4, 312194, Note_on_c, 9, 59, 63
4, 312408, Note_on_c, 9, 59, 0
4, 312647, Note_on_c, 9, 44, 0
4, 312732, Note_on_c, 9, 38, 69
4, 312790, Note_on_c, 9, 59, 90
4, 312912, Note_on_c, 9, 38, 0
4, 313015, Note_on_c, 9, 44, 71
4, 313080, Note_on_c, 9, 38, 40
4, 313349, Note_on_c, 9, 38, 0
4, 313462, Note_on_c, 9, 59, 0
4, 313680, Note_on_c, 9, 36, 80
4, 313727, Note_on_c, 9, 59, 42
4, 313751, Note_on_c, 9, 44, 0
4, 313827, Note_on_c, 9, 59, 0
4, 313883, Note_on_c, 9, 36, 0
4, 314015, Note_on_c, 9, 59, 34
4, 314056, Note_on_c, 9, 36, 71
4, 314178, Note_on_c, 9, 36, 0
4, 314578, Note_on_c, 9, 59, 0
4, 314597, Note_on_c, 9, 38, 88
4, 314736, Note_on_c, 9, 38, 0
4, 314926, Note_on_c, 9, 59, 55
4, 314931, Note_on_c, 9, 44, 67
4, 314952, Note_on_c, 9, 36, 91
4, 314982, Note_on_c, 9, 57, 64
4, 315005, Note_on_c, 9, 59, 39
4, 315054, Note_on_c, 9, 59, 0
4, 315131, Note_on_c, 9, 59, 0
4, 315582, Note_on_c, 9, 44, 0
4, 315881, Note_on_c, 9, 44, 74
4, 315890, Note_on_c, 9, 53, 88
4, 316694, Note_on_c, 9, 44, 0
4, 317073, Note_on_c, 9, 53, 0
4, 317579, Note_on_c, 9, 53, 39
4, 317667, Note_on_c, 9, 53, 0
4, 317803, Note_on_c, 9, 44, 70
4, 317862, Note_on_c, 9, 53, 83
4, 318083, Note_on_c, 9, 57, 0
4, 318088, Note_on_c, 9, 36, 0
4, 318135, Note_on_c, 9, 38, 43
4, 318184, Note_on_c, 9, 38, 0
4, 318396, Note_on_c, 9, 38, 55
4, 318462, Note_on_c, 9, 44, 0
4, 318500, Note_on_c, 9, 38, 0
4, 318741, Note_on_c, 9, 57, 63
4, 318754, Note_on_c, 9, 36, 74
4, 318835, Note_on_c, 9, 44, 74
4, 318972, Note_on_c, 9, 53, 0
4, 319586, Note_on_c, 9, 44, 0
4, 319760, Note_on_c, 9, 53, 76
4, 320032, Note_on_c, 9, 57, 0
4, 320624, Note_on_c, 9, 36, 0
4, 320756, Note_on_c, 9, 59, 72
4, 321214, Note_on_c, 9, 59, 0
4, 321415, Note_on_c, 9, 53, 0
4, 321668, Note_on_c, 9, 44, 71
4, 321711, Note_on_c, 9, 53, 74
4, 322404, Note_on_c, 9, 44, 0
4, 322493, Note_on_c, 9, 53, 0
4, 322681, Note_on_c, 9, 59, 44
4, 322769, Note_on_c, 9, 59, 0
4, 323606, Note_on_c, 9, 38, 30
4, 323668, Note_on_c, 9, 38, 0
4, 323691, Note_on_c, 9, 53, 79
4, 324251, Note_on_c, 9, 38, 35
4, 324355, Note_on_c, 9, 38, 0
4, 324530, Note_on_c, 9, 53, 0
4, 325184, Note_on_c, 9, 36, 44
4, 325332, Note_on_c, 9, 36, 0
4, 325453, Note_on_c, 9, 44, 71
4, 325508, Note_on_c, 9, 53, 78
4, 325562, Note_on_c, 9, 36, 31
4, 325738, Note_on_c, 9, 36, 0
4, 326212, Note_on_c, 9, 44, 0
4, 326517, Note_on_c, 9, 59, 30
4, 326570, Note_on_c, 9, 53, 0
4, 326664, Note_on_c, 9, 59, 0
4, 327055, Note_on_c, 9, 53, 81
4, 327334, Note_on_c, 9, 44, 68
4, 328232, Note_on_c, 9, 44, 0
4, 328353, Note_on_c, 9, 53, 0
4, 328385, Note_on_c, 9, 59, 58
4, 328700, Note_on_c, 9, 38, 32
4, 328783, Note_on_c, 9, 38, 0
4, 328964, Note_on_c, 9, 59, 0
4, 329010, Note_on_c, 9, 53, 82
4, 329028, Note_on_c, 9, 36, 36
4, 329117, Note_on_c, 9, 36, 0
4, 329221, Note_on_c, 9, 53, 0
4, 329272, Note_on_c, 9, 44, 69
4, 329308, Note_on_c, 9, 53, 54
4, 329708, Note_on_c, 9, 38, 34
4, 329852, Note_on_c, 9, 38, 0
4, 330007, Note_on_c, 9, 36, 26
4, 330081, Note_on_c, 9, 36, 0
4, 330169, Note_on_c, 9, 44, 0
4, 330277, Note_on_c, 9, 59, 68
4, 330349, Note_on_c, 9, 53, 0
4, 330405, Note_on_c, 9, 38, 20
4, 330536, Note_on_c, 9, 38, 0
4, 330695, Note_on_c, 9, 38, 34
4, 330797, Note_on_c, 9, 38, 0
4, 330830, Note_on_c, 9, 59, 0
4, 330936, Note_on_c, 9, 53, 82
4, 330997, Note_on_c, 9, 36, 27
4, 331057, Note_on_c, 9, 36, 0
4, 331188, Note_on_c, 9, 44, 75
4, 331343, Note_on_c, 9, 38, 22
4, 331411, Note_on_c, 9, 38, 0
4, 331575, Note_on_c, 9, 38, 44
4, 331695, Note_on_c, 9, 38, 0
4, 331889, Note_on_c, 9, 36, 38
4, 332027, Note_on_c, 9, 36, 0
4, 332192, Note_on_c, 9, 44, 0
4, 332232, Note_on_c, 9, 59, 69
4, 332256, Note_on_c, 9, 53, 0
4, 332774, Note_on_c, 9, 59, 0
4, 332898, Note_on_c, 9, 53, 83
4, 334075, Note_on_c, 9, 53, 0
4, 334206, Note_on_c, 9, 59, 71
4, 334628, Note_on_c, 9, 59, 0
4, 334831, Note_on_c, 9, 53, 80
4, 334984, Note_on_c, 9, 53, 0
4, 335077, Note_on_c, 9, 44, 73
4, 335239, Note_on_c, 9, 59, 48
4, 335699, Note_on_c, 9, 38, 36
4, 335736, Note_on_c, 9, 59, 0
4, 335758, Note_on_c, 9, 38, 0
4, 335849, Note_on_c, 9, 44, 0
4, 336066, Note_on_c, 9, 38, 22
4, 336103, Note_on_c, 9, 59, 71
4, 336420, Note_on_c, 9, 38, 0
4, 336580, Note_on_c, 9, 59, 0
4, 336644, Note_on_c, 9, 36, 35
4, 336703, Note_on_c, 9, 53, 71
4, 336782, Note_on_c, 9, 36, 0
4, 336867, Note_on_c, 9, 53, 0
4, 336960, Note_on_c, 9, 44, 74
4, 336971, Note_on_c, 9, 36, 36
4, 337058, Note_on_c, 9, 59, 57
4, 337276, Note_on_c, 9, 59, 0
4, 337424, Note_on_c, 9, 36, 0
4, 337595, Note_on_c, 9, 36, 32
4, 337647, Note_on_c, 9, 59, 73
4, 337728, Note_on_c, 9, 36, 0
4, 337742, Note_on_c, 9, 44, 0
4, 338433, Note_on_c, 9, 59, 0
4, 338567, Note_on_c, 9, 53, 80
4, 338729, Note_on_c, 9, 53, 0
4, 338834, Note_on_c, 9, 44, 74
4, 338900, Note_on_c, 9, 59, 59
4, 339447, Note_on_c, 9, 59, 0
4, 339500, Note_on_c, 9, 36, 24
4, 339549, Note_on_c, 9, 36, 0
4, 339817, Note_on_c, 9, 38, 32
4, 339818, Note_on_c, 9, 59, 74
4, 339851, Note_on_c, 9, 44, 0
4, 340038, Note_on_c, 9, 38, 0
4, 340174, Note_on_c, 9, 38, 34
4, 340256, Note_on_c, 9, 38, 0
4, 340365, Note_on_c, 9, 59, 0
4, 340434, Note_on_c, 9, 53, 62
4, 340491, Note_on_c, 9, 38, 49
4, 340518, Note_on_c, 9, 53, 0
4, 340737, Note_on_c, 9, 38, 0
4, 340752, Note_on_c, 9, 44, 75
4, 340838, Note_on_c, 9, 59, 48
4, 340924, Note_on_c, 9, 59, 0
4, 341113, Note_on_c, 9, 38, 30
4, 341180, Note_on_c, 9, 38, 0
4, 341385, Note_on_c, 9, 38, 30
4, 341449, Note_on_c, 9, 53, 34
4, 341538, Note_on_c, 9, 38, 0
4, 341555, Note_on_c, 9, 53, 0
4, 341621, Note_on_c, 9, 44, 0
4, 342056, Note_on_c, 9, 38, 29
4, 342157, Note_on_c, 9, 38, 0
4, 342309, Note_on_c, 9, 53, 77
4, 342336, Note_on_c, 9, 38, 28
4, 342466, Note_on_c, 9, 53, 0
4, 342470, Note_on_c, 9, 38, 0
4, 342720, Note_on_c, 9, 44, 75
4, 342937, Note_on_c, 9, 59, 61
4, 343086, Note_on_c, 9, 59, 0
4, 343277, Note_on_c, 9, 38, 58
4, 343445, Note_on_c, 9, 38, 0
4, 343637, Note_on_c, 9, 59, 83
4, 343683, Note_on_c, 9, 44, 0
4, 343881, Note_on_c, 9, 59, 0
4, 344037, Note_on_c, 9, 38, 62
4, 344239, Note_on_c, 9, 38, 0
4, 344358, Note_on_c, 9, 47, 51
4, 344516, Note_on_c, 9, 59, 54
4, 344569, Note_on_c, 9, 47, 0
4, 344571, Note_on_c, 9, 44, 74
4, 344663, Note_on_c, 9, 59, 0
4, 344667, Note_on_c, 9, 45, 55
4, 344726, Note_on_c, 9, 45, 0
4, 344989, Note_on_c, 9, 36, 69
4, 345046, Note_on_c, 9, 36, 0
4, 345124, Note_on_c, 9, 44, 0
4, 345218, Note_on_c, 9, 57, 79
4, 345275, Note_on_c, 9, 36, 81
4, 345356, Note_on_c, 9, 57, 0
4, 345505, Note_on_c, 9, 36, 0
4, 345593, Note_on_c, 9, 57, 72
4, 345613, Note_on_c, 9, 36, 78
4, 345652, Note_on_c, 9, 59, 79
4, 345802, Note_on_c, 9, 59, 0
4, 346096, Note_on_c, 9, 57, 0
4, 346441, Note_on_c, 9, 36, 0
4, 346488, Note_on_c, 9, 44, 53
4, 346890, Note_on_c, 9, 44, 0
4, 347288, Note_on_c, 9, 59, 55
4, 347396, Note_on_c, 9, 59, 0
4, 347605, Note_on_c, 9, 59, 71
4, 347925, Note_on_c, 9, 59, 0
4, 349225, Note_on_c, 9, 59, 51
4, 349309, Note_on_c, 9, 59, 0
4, 349530, Note_on_c, 9, 59, 73
4, 350042, Note_on_c, 9, 59, 0
4, 350167, Note_on_c, 9, 59, 79
4, 350240, Note_on_c, 9, 59, 0
4, 351016, Note_on_c, 9, 36, 47
4, 351078, Note_on_c, 9, 59, 57
4, 351154, Note_on_c, 9, 59, 0
4, 351190, Note_on_c, 9, 36, 0
4, 351379, Note_on_c, 9, 59, 67
4, 351391, Note_on_c, 9, 36, 28
4, 351519, Note_on_c, 9, 59, 0
4, 351721, Note_on_c, 9, 36, 0
4, 352271, Note_on_c, 9, 44, 84
4, 352795, Note_on_c, 9, 44, 0
4, 353014, Note_on_c, 9, 59, 70
4, 353115, Note_on_c, 9, 59, 0
4, 353318, Note_on_c, 9, 59, 73
4, 353813, Note_on_c, 9, 59, 0
4, 354209, Note_on_c, 9, 44, 74
4, 354885, Note_on_c, 9, 44, 0
4, 354925, Note_on_c, 9, 59, 68
4, 354999, Note_on_c, 9, 59, 0
4, 355208, Note_on_c, 9, 59, 73
4, 355848, Note_on_c, 9, 59, 0
4, 356863, Note_on_c, 9, 59, 70
4, 356936, Note_on_c, 9, 59, 0
4, 357131, Note_on_c, 9, 59, 76
4, 357684, Note_on_c, 9, 38, 27
4, 357736, Note_on_c, 9, 38, 0
4, 357854, Note_on_c, 9, 59, 0
4, 358091, Note_on_c, 9, 44, 64
4, 358706, Note_on_c, 9, 44, 0
4, 358785, Note_on_c, 9, 59, 58
4, 358857, Note_on_c, 9, 59, 0
4, 359021, Note_on_c, 9, 59, 71
4, 359589, Note_on_c, 9, 59, 0
4, 359981, Note_on_c, 9, 44, 59
4, 360020, Note_on_c, 9, 38, 22
4, 360134, Note_on_c, 9, 38, 0
4, 360593, Note_on_c, 9, 38, 49
4, 360697, Note_on_c, 9, 38, 0
4, 360711, Note_on_c, 9, 44, 0
4, 360792, Note_on_c, 9, 59, 35
4, 360878, Note_on_c, 9, 59, 0
4, 361010, Note_on_c, 9, 59, 70
4, 361497, Note_on_c, 9, 36, 41
4, 361535, Note_on_c, 9, 59, 0
4, 361619, Note_on_c, 9, 36, 0
4, 361891, Note_on_c, 9, 59, 80
4, 362533, Note_on_c, 9, 59, 0
4, 362881, Note_on_c, 9, 59, 71
4, 363317, Note_on_c, 9, 59, 0
4, 363753, Note_on_c, 9, 59, 89
4, 364155, Note_on_c, 9, 59, 0
4, 364442, Note_on_c, 9, 59, 53
4, 364546, Note_on_c, 9, 59, 0
4, 364710, Note_on_c, 9, 59, 80
4, 365285, Note_on_c, 9, 59, 0
4, 365703, Note_on_c, 9, 44, 42
4, 366332, Note_on_c, 9, 59, 49
4, 366371, Note_on_c, 9, 44, 0
4, 366430, Note_on_c, 9, 59, 0
4, 366613, Note_on_c, 9, 59, 77
4, 367192, Note_on_c, 9, 59, 0
4, 368164, Note_on_c, 9, 59, 49
4, 368253, Note_on_c, 9, 59, 0
4, 368464, Note_on_c, 9, 59, 67
4, 369069, Note_on_c, 9, 59, 0
4, 369497, Note_on_c, 9, 44, 69
4, 370057, Note_on_c, 9, 44, 0
4, 370199, Note_on_c, 9, 59, 28
4, 370296, Note_on_c, 9, 59, 0
4, 370475, Note_on_c, 9, 59, 63
4, 371115, Note_on_c, 9, 59, 0
4, 372138, Note_on_c, 9, 59, 36
4, 372223, Note_on_c, 9, 59, 0
4, 372417, Note_on_c, 9, 59, 60
4, 372753, Note_on_c, 9, 38, 28
4, 372904, Note_on_c, 9, 38, 0
4, 372948, Note_on_c, 9, 59, 0
4, 373070, Note_on_c, 9, 38, 32
4, 373232, Note_on_c, 9, 38, 0
4, 373333, Note_on_c, 9, 44, 67
4, 373391, Note_on_c, 9, 59, 88
4, 373441, Note_on_c, 9, 36, 37
4, 373883, Note_on_c, 9, 36, 0
4, 373890, Note_on_c, 9, 44, 0
4, 373916, Note_on_c, 9, 59, 0
4, 374078, Note_on_c, 9, 36, 34
4, 374237, Note_on_c, 9, 36, 0
4, 375016, Note_on_c, 9, 59, 60
4, 375143, Note_on_c, 9, 59, 0
4, 375307, Note_on_c, 9, 59, 79
4, 375754, Note_on_c, 9, 59, 0
4, 375998, Note_on_c, 9, 59, 83
4, 376223, Note_on_c, 9, 59, 0
4, 376504, Note_on_c, 9, 59, 72
4, 376819, Note_on_c, 9, 59, 0
4, 377927, Note_on_c, 9, 59, 52
4, 378009, Note_on_c, 9, 59, 0
4, 378204, Note_on_c, 9, 59, 69
4, 378672, Note_on_c, 9, 59, 0
4, 379152, Note_on_c, 9, 59, 50
4, 379225, Note_on_c, 9, 59, 0
4, 379834, Note_on_c, 9, 59, 88
4, 380027, Note_on_c, 9, 59, 0
4, 380198, Note_on_c, 9, 59, 55
4, 380301, Note_on_c, 9, 59, 0
4, 381081, Note_on_c, 9, 44, 57
4, 381100, Note_on_c, 9, 59, 78
4, 381206, Note_on_c, 9, 59, 0
4, 381696, Note_on_c, 9, 44, 0
4, 381789, Note_on_c, 9, 59, 91
4, 381975, Note_on_c, 9, 59, 0
4, 382120, Note_on_c, 9, 59, 63
4, 382310, Note_on_c, 9, 59, 0
4, 382992, Note_on_c, 9, 44, 62
4, 383018, Note_on_c, 9, 59, 88
4, 383053, Note_on_c, 9, 38, 49
4, 383193, Note_on_c, 9, 38, 0
4, 383306, Note_on_c, 9, 59, 0
4, 383585, Note_on_c, 9, 44, 0
4, 383622, Note_on_c, 9, 36, 45
4, 383803, Note_on_c, 9, 36, 0
4, 383941, Note_on_c, 9, 59, 82
4, 384004, Note_on_c, 9, 36, 37
4, 384392, Note_on_c, 9, 36, 0
4, 384507, Note_on_c, 9, 59, 0
4, 384589, Note_on_c, 9, 53, 80
4, 384612, Note_on_c, 9, 36, 48
4, 384752, Note_on_c, 9, 36, 0
4, 384960, Note_on_c, 9, 59, 47
4, 385425, Note_on_c, 9, 59, 0
4, 385870, Note_on_c, 9, 59, 81
4, 386384, Note_on_c, 9, 59, 0
4, 386718, Note_on_c, 9, 59, 64
4, 386776, Note_on_c, 9, 44, 67
4, 386779, Note_on_c, 9, 53, 0
4, 387118, Note_on_c, 9, 59, 0
4, 387178, Note_on_c, 9, 38, 33
4, 387318, Note_on_c, 9, 38, 0
4, 387427, Note_on_c, 9, 53, 75
4, 387441, Note_on_c, 9, 44, 0
4, 387447, Note_on_c, 9, 38, 44
4, 387816, Note_on_c, 9, 53, 0
4, 387877, Note_on_c, 9, 38, 0
4, 388146, Note_on_c, 9, 38, 11
4, 388207, Note_on_c, 9, 38, 0
4, 388344, Note_on_c, 9, 38, 18
4, 388384, Note_on_c, 9, 59, 49
4, 388516, Note_on_c, 9, 38, 0
4, 388539, Note_on_c, 9, 59, 0
4, 388546, Note_on_c, 9, 53, 25
4, 388630, Note_on_c, 9, 53, 0
4, 388651, Note_on_c, 9, 38, 36
4, 388699, Note_on_c, 9, 59, 80
4, 389090, Note_on_c, 9, 38, 0
4, 389276, Note_on_c, 9, 59, 0
4, 389300, Note_on_c, 9, 38, 55
4, 389349, Note_on_c, 9, 38, 0
4, 389604, Note_on_c, 9, 59, 84
4, 390003, Note_on_c, 9, 38, 44
4, 390112, Note_on_c, 9, 38, 0
4, 390246, Note_on_c, 9, 38, 34
4, 390269, Note_on_c, 9, 59, 0
4, 390334, Note_on_c, 9, 38, 0
4, 390518, Note_on_c, 9, 44, 69
4, 390572, Note_on_c, 9, 38, 45
4, 390585, Note_on_c, 9, 59, 58
4, 390838, Note_on_c, 9, 59, 0
4, 390905, Note_on_c, 9, 38, 0
4, 391065, Note_on_c, 9, 44, 0
4, 391206, Note_on_c, 9, 36, 34
4, 391218, Note_on_c, 9, 59, 64
4, 391358, Note_on_c, 9, 36, 0
4, 391378, Note_on_c, 9, 59, 0
4, 391511, Note_on_c, 9, 59, 90
4, 391583, Note_on_c, 9, 36, 58
4, 391917, Note_on_c, 9, 36, 0
4, 392132, Note_on_c, 9, 59, 0
4, 392469, Note_on_c, 9, 44, 62
4, 392481, Note_on_c, 9, 59, 74
4, 392875, Note_on_c, 9, 59, 0
4, 393076, Note_on_c, 9, 44, 0
4, 393160, Note_on_c, 9, 59, 52
4, 393276, Note_on_c, 9, 59, 0
4, 393447, Note_on_c, 9, 59, 76
4, 394054, Note_on_c, 9, 59, 0
4, 394383, Note_on_c, 9, 44, 64
4, 394419, Note_on_c, 9, 59, 90
4, 394683, Note_on_c, 9, 38, 53
4, 394783, Note_on_c, 9, 38, 0
4, 395011, Note_on_c, 9, 44, 0
4, 395011, Note_on_c, 9, 36, 39
4, 395077, Note_on_c, 9, 36, 0
4, 395142, Note_on_c, 9, 59, 0
4, 395306, Note_on_c, 9, 57, 57
4, 395348, Note_on_c, 9, 36, 63
4, 395354, Note_on_c, 9, 59, 39
4, 395516, Note_on_c, 9, 59, 0
4, 395786, Note_on_c, 9, 36, 0
4, 395800, Note_on_c, 9, 57, 0
4, 395928, Note_on_c, 9, 57, 44
4, 395929, Note_on_c, 9, 36, 48
4, 396031, Note_on_c, 9, 57, 0
4, 396032, Note_on_c, 9, 59, 42
4, 396125, Note_on_c, 9, 59, 0
4, 396144, Note_on_c, 9, 36, 0
4, 396283, Note_on_c, 9, 59, 78
4, 396957, Note_on_c, 9, 59, 0
4, 397279, Note_on_c, 9, 59, 64
4, 397761, Note_on_c, 9, 59, 0
4, 398037, Note_on_c, 9, 59, 57
4, 398119, Note_on_c, 9, 59, 0
4, 398274, Note_on_c, 9, 59, 80
4, 398280, Note_on_c, 9, 44, 60
4, 398767, Note_on_c, 9, 44, 0
4, 398868, Note_on_c, 9, 59, 0
4, 399257, Note_on_c, 9, 59, 74
4, 399815, Note_on_c, 9, 59, 0
4, 400201, Note_on_c, 9, 59, 80
4, 400209, Note_on_c, 9, 44, 62
4, 400547, Note_on_c, 9, 59, 0
4, 400677, Note_on_c, 9, 44, 0
4, 400875, Note_on_c, 9, 59, 44
4, 400970, Note_on_c, 9, 59, 0
4, 401143, Note_on_c, 9, 59, 75
4, 401791, Note_on_c, 9, 59, 0
4, 401829, Note_on_c, 9, 38, 51
4, 402045, Note_on_c, 9, 38, 0
4, 402162, Note_on_c, 9, 59, 70
4, 402193, Note_on_c, 9, 44, 64
4, 402271, Note_on_c, 9, 59, 0
4, 402791, Note_on_c, 9, 36, 43
4, 402825, Note_on_c, 9, 44, 0
4, 402830, Note_on_c, 9, 59, 54
4, 402908, Note_on_c, 9, 59, 0
4, 402997, Note_on_c, 9, 36, 0
4, 403109, Note_on_c, 9, 59, 75
4, 403699, Note_on_c, 9, 38, 46
4, 403722, Note_on_c, 9, 59, 0
4, 403765, Note_on_c, 9, 38, 0
4, 404078, Note_on_c, 9, 59, 83
4, 404119, Note_on_c, 9, 44, 67
4, 404626, Note_on_c, 9, 38, 53
4, 404729, Note_on_c, 9, 59, 0
4, 404757, Note_on_c, 9, 44, 0
4, 404760, Note_on_c, 9, 38, 0
4, 405033, Note_on_c, 9, 59, 76
4, 405474, Note_on_c, 9, 59, 0
4, 405593, Note_on_c, 9, 38, 60
4, 405719, Note_on_c, 9, 38, 0
4, 405929, Note_on_c, 9, 44, 59
4, 405971, Note_on_c, 9, 59, 80
4, 406298, Note_on_c, 9, 45, 72
4, 406384, Note_on_c, 9, 45, 0
4, 406446, Note_on_c, 9, 59, 0
4, 406446, Note_on_c, 9, 44, 0
4, 406610, Note_on_c, 9, 59, 60
4, 406616, Note_on_c, 9, 38, 50
4, 406748, Note_on_c, 9, 38, 0
4, 406768, Note_on_c, 9, 59, 0
4, 406914, Note_on_c, 9, 59, 80
4, 406969, Note_on_c, 9, 36, 80
4, 407409, Note_on_c, 9, 36, 0
4, 407541, Note_on_c, 9, 59, 0
4, 408608, Note_on_c, 9, 59, 53
4, 408705, Note_on_c, 9, 59, 0
4, 408910, Note_on_c, 9, 59, 68
4, 409474, Note_on_c, 9, 59, 0
4, 410613, Note_on_c, 9, 59, 57
4, 410703, Note_on_c, 9, 59, 0
4, 410887, Note_on_c, 9, 59, 63
4, 411267, Note_on_c, 9, 59, 0
4, 411498, Note_on_c, 9, 53, 79
4, 411653, Note_on_c, 9, 53, 0
4, 411773, Note_on_c, 9, 44, 52
4, 411785, Note_on_c, 9, 59, 51
4, 412275, Note_on_c, 9, 44, 0
4, 412310, Note_on_c, 9, 59, 0
4, 412541, Note_on_c, 9, 53, 57
4, 412615, Note_on_c, 9, 53, 0
4, 412846, Note_on_c, 9, 59, 82
4, 413304, Note_on_c, 9, 59, 0
4, 413440, Note_on_c, 9, 51, 77
4, 413444, Note_on_c, 9, 53, 79
4, 413720, Note_on_c, 9, 44, 63
4, 413761, Note_on_c, 9, 38, 32
4, 413844, Note_on_c, 9, 38, 0
4, 414065, Note_on_c, 9, 38, 36
4, 414142, Note_on_c, 9, 38, 0
4, 414355, Note_on_c, 9, 44, 0
4, 414360, Note_on_c, 9, 36, 54
4, 414544, Note_on_c, 9, 53, 0
4, 414560, Note_on_c, 9, 36, 0
4, 414606, Note_on_c, 9, 51, 0
4, 414704, Note_on_c, 9, 36, 63
4, 414762, Note_on_c, 9, 59, 78
4, 415122, Note_on_c, 9, 36, 0
4, 415267, Note_on_c, 9, 36, 48
4, 415278, Note_on_c, 9, 59, 0
4, 415439, Note_on_c, 9, 36, 0
4, 415723, Note_on_c, 9, 59, 59
4, 416092, Note_on_c, 9, 59, 0
4, 416431, Note_on_c, 9, 59, 66
4, 416555, Note_on_c, 9, 59, 0
4, 416715, Note_on_c, 9, 59, 71
4, 416948, Note_on_c, 9, 59, 0
4, 417566, Note_on_c, 9, 44, 59
4, 418192, Note_on_c, 9, 44, 0
4, 418207, Note_on_c, 9, 59, 61
4, 418352, Note_on_c, 9, 59, 0
4, 418520, Note_on_c, 9, 59, 71
4, 419023, Note_on_c, 9, 59, 0
4, 419390, Note_on_c, 9, 44, 61
4, 420091, Note_on_c, 9, 44, 0
4, 420129, Note_on_c, 9, 59, 45
4, 420235, Note_on_c, 9, 59, 0
4, 420421, Note_on_c, 9, 59, 66
4, 420898, Note_on_c, 9, 59, 0
4, 421389, Note_on_c, 9, 59, 92
4, 421797, Note_on_c, 9, 59, 0
4, 422145, Note_on_c, 9, 59, 47
4, 422225, Note_on_c, 9, 59, 0
4, 422358, Note_on_c, 9, 59, 74
4, 422862, Note_on_c, 9, 59, 0
4, 423344, Note_on_c, 9, 44, 69
4, 423970, Note_on_c, 9, 44, 0
4, 424397, Note_on_c, 9, 59, 59
4, 424931, Note_on_c, 9, 59, 0
4, 425291, Note_on_c, 9, 44, 67
4, 425843, Note_on_c, 9, 44, 0
4, 426011, Note_on_c, 9, 59, 46
4, 426111, Note_on_c, 9, 59, 0
4, 426288, Note_on_c, 9, 59, 66
4, 426905, Note_on_c, 9, 59, 0
4, 427914, Note_on_c, 9, 59, 49
4, 428003, Note_on_c, 9, 59, 0
4, 428195, Note_on_c, 9, 59, 64
4, 428720, Note_on_c, 9, 59, 0
4, 429087, Note_on_c, 9, 44, 71
4, 429568, Note_on_c, 9, 44, 0
4, 429703, Note_on_c, 9, 59, 51
4, 429789, Note_on_c, 9, 59, 0
4, 430007, Note_on_c, 9, 59, 62
4, 430584, Note_on_c, 9, 59, 0
4, 430945, Note_on_c, 9, 44, 63
4, 431550, Note_on_c, 9, 44, 0
4, 431731, Note_on_c, 9, 59, 47
4, 431832, Note_on_c, 9, 59, 0
4, 432018, Note_on_c, 9, 59, 68
4, 432191, Note_on_c, 9, 59, 0
4, 432852, Note_on_c, 9, 44, 69
4, 432856, Note_on_c, 9, 59, 80
4, 433370, Note_on_c, 9, 44, 0
4, 433557, Note_on_c, 9, 36, 24
4, 433575, Note_on_c, 9, 59, 0
4, 433606, Note_on_c, 9, 36, 0
4, 434502, Note_on_c, 9, 59, 55
4, 434599, Note_on_c, 9, 59, 0
4, 434755, Note_on_c, 9, 38, 48
4, 434805, Note_on_c, 9, 59, 73
4, 435181, Note_on_c, 9, 38, 0
4, 435353, Note_on_c, 9, 59, 0
4, 435409, Note_on_c, 9, 38, 48
4, 435622, Note_on_c, 9, 38, 0
4, 435750, Note_on_c, 9, 38, 33
4, 436228, Note_on_c, 9, 38, 0
4, 436330, Note_on_c, 9, 38, 53
4, 436478, Note_on_c, 9, 59, 74
4, 436638, Note_on_c, 9, 59, 0
4, 436742, Note_on_c, 9, 44, 74
4, 436796, Note_on_c, 9, 59, 73
4, 436896, Note_on_c, 9, 38, 0
4, 437025, Note_on_c, 9, 38, 49
4, 437136, Note_on_c, 9, 38, 0
4, 437266, Note_on_c, 9, 44, 0
4, 437353, Note_on_c, 9, 36, 54
4, 437420, Note_on_c, 9, 59, 0
4, 437468, Note_on_c, 9, 36, 0
4, 437692, Note_on_c, 9, 57, 78
4, 437715, Note_on_c, 9, 36, 74
4, 437733, Note_on_c, 9, 59, 80
4, 438401, Note_on_c, 9, 59, 0
4, 438710, Note_on_c, 9, 59, 80
4, 439060, Note_on_c, 9, 59, 0
4, 439440, Note_on_c, 9, 59, 62
4, 439535, Note_on_c, 9, 59, 0
4, 439710, Note_on_c, 9, 59, 69
4, 440042, Note_on_c, 9, 57, 0
4, 440505, Note_on_c, 9, 59, 0
4, 440558, Note_on_c, 9, 44, 64
4, 440847, Note_on_c, 9, 36, 0
4, 441072, Note_on_c, 9, 44, 0
4, 441252, Note_on_c, 9, 59, 74
4, 441421, Note_on_c, 9, 59, 0
4, 441591, Note_on_c, 9, 59, 66
4, 442546, Note_on_c, 9, 59, 0
4, 443265, Note_on_c, 9, 59, 74
4, 443434, Note_on_c, 9, 59, 0
4, 443587, Note_on_c, 9, 59, 70
4, 443900, Note_on_c, 9, 59, 0
4, 444090, Note_on_c, 9, 38, 27
4, 444148, Note_on_c, 9, 38, 0
4, 444465, Note_on_c, 9, 44, 76
4, 444929, Note_on_c, 9, 44, 0
4, 444991, Note_on_c, 9, 36, 33
4, 445081, Note_on_c, 9, 36, 0
4, 445138, Note_on_c, 9, 59, 62
4, 445300, Note_on_c, 9, 59, 0
4, 445389, Note_on_c, 9, 59, 70
4, 445933, Note_on_c, 9, 59, 0
4, 446270, Note_on_c, 9, 59, 87
4, 446877, Note_on_c, 9, 59, 0
4, 447222, Note_on_c, 9, 59, 73
4, 447300, Note_on_c, 9, 44, 74
4, 447500, Note_on_c, 9, 38, 36
4, 447577, Note_on_c, 9, 38, 0
4, 447605, Note_on_c, 9, 59, 0
4, 447724, Note_on_c, 9, 44, 0
4, 448188, Note_on_c, 9, 59, 83
4, 448806, Note_on_c, 9, 36, 32
4, 448880, Note_on_c, 9, 36, 0
4, 448894, Note_on_c, 9, 59, 0
4, 449401, Note_on_c, 9, 38, 31
4, 449564, Note_on_c, 9, 38, 0
4, 449717, Note_on_c, 9, 38, 38
4, 449792, Note_on_c, 9, 38, 0
4, 449819, Note_on_c, 9, 59, 58
4, 449933, Note_on_c, 9, 59, 0
4, 450091, Note_on_c, 9, 59, 84
4, 450133, Note_on_c, 9, 44, 74
4, 450588, Note_on_c, 9, 44, 0
4, 450696, Note_on_c, 9, 59, 0
4, 451026, Note_on_c, 9, 59, 89
4, 451531, Note_on_c, 9, 59, 0
4, 451717, Note_on_c, 9, 59, 49
4, 451808, Note_on_c, 9, 59, 0
4, 451966, Note_on_c, 9, 59, 80
4, 452560, Note_on_c, 9, 59, 0
4, 452923, Note_on_c, 9, 59, 85
4, 453435, Note_on_c, 9, 59, 0
4, 453723, Note_on_c, 9, 38, 40
4, 453896, Note_on_c, 9, 38, 0
4, 453940, Note_on_c, 9, 59, 68
4, 453945, Note_on_c, 9, 44, 68
4, 454097, Note_on_c, 9, 36, 28
4, 454218, Note_on_c, 9, 36, 0
4, 454384, Note_on_c, 9, 44, 0
4, 454582, Note_on_c, 9, 59, 0
4, 454640, Note_on_c, 9, 53, 75
4, 454664, Note_on_c, 9, 36, 41
4, 454860, Note_on_c, 9, 36, 0
4, 454946, Note_on_c, 9, 59, 53
4, 455592, Note_on_c, 9, 59, 0
4, 455942, Note_on_c, 9, 59, 71
4, 456469, Note_on_c, 9, 59, 0
4, 456873, Note_on_c, 9, 59, 74
4, 457009, Note_on_c, 9, 53, 0
4, 457405, Note_on_c, 9, 59, 0
4, 457521, Note_on_c, 9, 53, 75
4, 457649, Note_on_c, 9, 38, 54
4, 457871, Note_on_c, 9, 38, 0
4, 457871, Note_on_c, 9, 59, 51
4, 457897, Note_on_c, 9, 53, 0
4, 457897, Note_on_c, 9, 44, 60
4, 458159, Note_on_c, 9, 36, 1
4, 458365, Note_on_c, 9, 36, 0
4, 458405, Note_on_c, 9, 44, 0
4, 458515, Note_on_c, 9, 59, 0
4, 458568, Note_on_c, 9, 36, 42
4, 458826, Note_on_c, 9, 59, 79
4, 458849, Note_on_c, 9, 36, 0
4, 458904, Note_on_c, 9, 44, 68
4, 458999, Note_on_c, 9, 36, 58
4, 459480, Note_on_c, 9, 36, 0
4, 459489, Note_on_c, 9, 59, 0
4, 459524, Note_on_c, 9, 44, 0
4, 459621, Note_on_c, 9, 36, 37
4, 459706, Note_on_c, 9, 36, 0
4, 459735, Note_on_c, 9, 59, 70
4, 460159, Note_on_c, 9, 59, 0
4, 460420, Note_on_c, 9, 59, 47
4, 460554, Note_on_c, 9, 59, 0
4, 460684, Note_on_c, 9, 59, 69
4, 461355, Note_on_c, 9, 59, 0
4, 461636, Note_on_c, 9, 59, 76
4, 461639, Note_on_c, 9, 44, 70
4, 462242, Note_on_c, 9, 44, 0
4, 462342, Note_on_c, 9, 59, 0
4, 462627, Note_on_c, 9, 59, 78
4, 463152, Note_on_c, 9, 59, 0
4, 463244, Note_on_c, 9, 38, 44
4, 463401, Note_on_c, 9, 38, 0
4, 463546, Note_on_c, 9, 59, 79
4, 463614, Note_on_c, 9, 44, 63
4, 464042, Note_on_c, 9, 59, 0
4, 464176, Note_on_c, 9, 38, 49
4, 464192, Note_on_c, 9, 44, 0
4, 464258, Note_on_c, 9, 59, 48
4, 464315, Note_on_c, 9, 38, 0
4, 464442, Note_on_c, 9, 59, 0
4, 464513, Note_on_c, 9, 59, 54
4, 465117, Note_on_c, 9, 38, 39
4, 465176, Note_on_c, 9, 59, 0
4, 465352, Note_on_c, 9, 38, 0
4, 465454, Note_on_c, 9, 44, 72
4, 465472, Note_on_c, 9, 59, 87
4, 465523, Note_on_c, 9, 36, 25
4, 465643, Note_on_c, 9, 36, 0
4, 465932, Note_on_c, 9, 44, 0
4, 465958, Note_on_c, 9, 59, 0
4, 466125, Note_on_c, 9, 36, 49
4, 466168, Note_on_c, 9, 59, 51
4, 466292, Note_on_c, 9, 36, 0
4, 466345, Note_on_c, 9, 59, 0
4, 466457, Note_on_c, 9, 59, 74
4, 466475, Note_on_c, 9, 36, 43
4, 466793, Note_on_c, 9, 36, 0
4, 466986, Note_on_c, 9, 59, 0
4, 467405, Note_on_c, 9, 44, 70
4, 467436, Note_on_c, 9, 59, 118
4, 468084, Note_on_c, 9, 38, 42
4, 468091, Note_on_c, 9, 44, 0
4, 468155, Note_on_c, 9, 59, 0
4, 468231, Note_on_c, 9, 38, 0
4, 468399, Note_on_c, 9, 59, 47
4, 468455, Note_on_c, 9, 57, 30
4, 468456, Note_on_c, 9, 38, 34
4, 468751, Note_on_c, 9, 59, 0
4, 468821, Note_on_c, 9, 57, 0
4, 468822, Note_on_c, 9, 38, 0
4, 469088, Note_on_c, 9, 59, 55
4, 469187, Note_on_c, 9, 59, 0
4, 469343, Note_on_c, 9, 59, 88
4, 469350, Note_on_c, 9, 44, 71
4, 469999, Note_on_c, 9, 44, 0
4, 470028, Note_on_c, 9, 59, 0
4, 470328, Note_on_c, 9, 59, 81
4, 470848, Note_on_c, 9, 59, 0
4, 471261, Note_on_c, 9, 59, 81
4, 471792, Note_on_c, 9, 59, 0
4, 472248, Note_on_c, 9, 59, 82
4, 472650, Note_on_c, 9, 59, 0
4, 473152, Note_on_c, 9, 44, 73
4, 473196, Note_on_c, 9, 59, 80
4, 473572, Note_on_c, 9, 59, 0
4, 473793, Note_on_c, 9, 44, 0
4, 473937, Note_on_c, 9, 59, 60
4, 474073, Note_on_c, 9, 59, 0
4, 474218, Note_on_c, 9, 59, 83
4, 474790, Note_on_c, 9, 59, 0
4, 475162, Note_on_c, 9, 59, 82
4, 475618, Note_on_c, 9, 59, 0
4, 475862, Note_on_c, 9, 59, 51
4, 475880, Note_on_c, 9, 38, 18
4, 475978, Note_on_c, 9, 38, 0
4, 476009, Note_on_c, 9, 59, 0
4, 476153, Note_on_c, 9, 59, 83
4, 476758, Note_on_c, 9, 59, 0
4, 476782, Note_on_c, 9, 36, 31
4, 476957, Note_on_c, 9, 36, 0
4, 477085, Note_on_c, 9, 44, 74
4, 477106, Note_on_c, 9, 59, 83
4, 477141, Note_on_c, 9, 36, 34
4, 477506, Note_on_c, 9, 36, 0
4, 477541, Note_on_c, 9, 44, 0
4, 477568, Note_on_c, 9, 59, 0
4, 478082, Note_on_c, 9, 59, 80
4, 478506, Note_on_c, 9, 59, 0
4, 479033, Note_on_c, 9, 59, 85
4, 479381, Note_on_c, 9, 59, 0
4, 479604, Note_on_c, 9, 36, 51
4, 479671, Note_on_c, 9, 36, 0
4, 479707, Note_on_c, 9, 59, 66
4, 479897, Note_on_c, 9, 59, 0
4, 480022, Note_on_c, 9, 59, 82
4, 480525, Note_on_c, 9, 59, 0
4, 480877, Note_on_c, 9, 44, 74
4, 480947, Note_on_c, 9, 59, 89
4, 481195, Note_on_c, 9, 59, 0
4, 481401, Note_on_c, 9, 44, 0
4, 481514, Note_on_c, 9, 38, 20
4, 481582, Note_on_c, 9, 38, 0
4, 481882, Note_on_c, 9, 59, 88
4, 482463, Note_on_c, 9, 59, 0
4, 482614, Note_on_c, 9, 59, 66
4, 482690, Note_on_c, 9, 59, 0
4, 482818, Note_on_c, 9, 44, 71
4, 482880, Note_on_c, 9, 59, 79
4, 483167, Note_on_c, 9, 44, 0
4, 483483, Note_on_c, 9, 59, 0
4, 483484, Note_on_c, 9, 38, 42
4, 483795, Note_on_c, 9, 38, 0
4, 483823, Note_on_c, 9, 59, 83
4, 483866, Note_on_c, 9, 36, 24
4, 484004, Note_on_c, 9, 36, 0
4, 484271, Note_on_c, 9, 59, 0
4, 484441, Note_on_c, 9, 36, 33
4, 484596, Note_on_c, 9, 36, 0
4, 484739, Note_on_c, 9, 59, 84
4, 484812, Note_on_c, 9, 36, 36
4, 485145, Note_on_c, 9, 36, 0
4, 485150, Note_on_c, 9, 59, 0
4, 485405, Note_on_c, 9, 36, 42
4, 485493, Note_on_c, 9, 59, 51
4, 485578, Note_on_c, 9, 59, 0
4, 485606, Note_on_c, 9, 36, 0
4, 485720, Note_on_c, 9, 59, 80
4, 486290, Note_on_c, 9, 59, 0
4, 486637, Note_on_c, 9, 44, 65
4, 486668, Note_on_c, 9, 59, 87
4, 487211, Note_on_c, 9, 44, 0
4, 487223, Note_on_c, 9, 59, 0
4, 487623, Note_on_c, 9, 59, 82
4, 488081, Note_on_c, 9, 59, 0
4, 488291, Note_on_c, 9, 59, 42
4, 488381, Note_on_c, 9, 59, 0
4, 488478, Note_on_c, 9, 44, 67
4, 488541, Note_on_c, 9, 59, 77
4, 489039, Note_on_c, 9, 44, 0
4, 489146, Note_on_c, 9, 59, 0
4, 489513, Note_on_c, 9, 59, 83
4, 489850, Note_on_c, 9, 38, 22
4, 489952, Note_on_c, 9, 38, 0
4, 490094, Note_on_c, 9, 59, 0
4, 490463, Note_on_c, 9, 59, 80
4, 490464, Note_on_c, 9, 44, 65
4, 490487, Note_on_c, 9, 38, 27
4, 490594, Note_on_c, 9, 38, 0
4, 490770, Note_on_c, 9, 38, 22
4, 490880, Note_on_c, 9, 59, 0
4, 490950, Note_on_c, 9, 38, 0
4, 491073, Note_on_c, 9, 44, 0
4, 491131, Note_on_c, 9, 36, 29
4, 491215, Note_on_c, 9, 59, 53
4, 491222, Note_on_c, 9, 36, 0
4, 491297, Note_on_c, 9, 59, 0
4, 491455, Note_on_c, 9, 59, 74
4, 491997, Note_on_c, 9, 59, 0
4, 492417, Note_on_c, 9, 44, 64
4, 492425, Note_on_c, 9, 59, 89
4, 492887, Note_on_c, 9, 59, 0
4, 493037, Note_on_c, 9, 44, 0
4, 493142, Note_on_c, 9, 59, 41
4, 493245, Note_on_c, 9, 59, 0
4, 493429, Note_on_c, 9, 59, 69
4, 493939, Note_on_c, 9, 59, 0
4, 494356, Note_on_c, 9, 38, 29
4, 494377, Note_on_c, 9, 59, 89
4, 494391, Note_on_c, 9, 44, 70
4, 494489, Note_on_c, 9, 38, 0
4, 494617, Note_on_c, 9, 38, 29
4, 494773, Note_on_c, 9, 38, 0
4, 494863, Note_on_c, 9, 59, 0
4, 494937, Note_on_c, 9, 36, 35
4, 495059, Note_on_c, 9, 44, 0
4, 495101, Note_on_c, 9, 59, 37
4, 495120, Note_on_c, 9, 36, 0
4, 495213, Note_on_c, 9, 59, 0
4, 495259, Note_on_c, 9, 38, 33
4, 495358, Note_on_c, 9, 59, 81
4, 495380, Note_on_c, 9, 38, 0
4, 495567, Note_on_c, 9, 38, 28
4, 495765, Note_on_c, 9, 38, 0
4, 495876, Note_on_c, 9, 59, 0
4, 495880, Note_on_c, 9, 36, 33
4, 495953, Note_on_c, 9, 36, 0
4, 496200, Note_on_c, 9, 38, 29
4, 496276, Note_on_c, 9, 44, 69
4, 496295, Note_on_c, 9, 59, 91
4, 496330, Note_on_c, 9, 38, 0
4, 496516, Note_on_c, 9, 38, 34
4, 496572, Note_on_c, 9, 38, 0
4, 496779, Note_on_c, 9, 59, 0
4, 496889, Note_on_c, 9, 38, 28
4, 496946, Note_on_c, 9, 38, 0
4, 496956, Note_on_c, 9, 44, 0
4, 497244, Note_on_c, 9, 59, 91
4, 497490, Note_on_c, 9, 59, 0
4, 497956, Note_on_c, 9, 59, 58
4, 498036, Note_on_c, 9, 59, 0
4, 498216, Note_on_c, 9, 59, 68
4, 498489, Note_on_c, 9, 38, 49
4, 498587, Note_on_c, 9, 38, 0
4, 498658, Note_on_c, 9, 59, 0
4, 498756, Note_on_c, 9, 38, 58
4, 498829, Note_on_c, 9, 59, 61
4, 498864, Note_on_c, 9, 53, 84
4, 498901, Note_on_c, 9, 38, 0
4, 499068, Note_on_c, 9, 57, 35
4, 499093, Note_on_c, 9, 36, 49
4, 499600, Note_on_c, 9, 59, 0
4, 499787, Note_on_c, 9, 57, 0
4, 499808, Note_on_c, 9, 59, 63
4, 499980, Note_on_c, 9, 59, 0
4, 499990, Note_on_c, 9, 44, 69
4, 500123, Note_on_c, 9, 59, 63
4, 500136, Note_on_c, 9, 53, 0
4, 500477, Note_on_c, 9, 44, 0
4, 500485, Note_on_c, 9, 36, 0
4, 500587, Note_on_c, 9, 59, 0
4, 500730, Note_on_c, 9, 59, 80
4, 500961, Note_on_c, 9, 59, 0
4, 501592, Note_on_c, 9, 59, 61
4, 501730, Note_on_c, 9, 59, 0
4, 501940, Note_on_c, 9, 53, 79
4, 501960, Note_on_c, 9, 44, 64
4, 501961, Note_on_c, 9, 59, 80
4, 502453, Note_on_c, 9, 44, 0
4, 502574, Note_on_c, 9, 59, 0
4, 502944, Note_on_c, 9, 59, 47
4, 503233, Note_on_c, 9, 53, 0
4, 503235, Note_on_c, 9, 59, 0
4, 503603, Note_on_c, 9, 59, 49
4, 503737, Note_on_c, 9, 59, 0
4, 503929, Note_on_c, 9, 59, 64
4, 504352, Note_on_c, 9, 59, 0
4, 504609, Note_on_c, 9, 59, 79
4, 504624, Note_on_c, 9, 53, 76
4, 505398, Note_on_c, 9, 59, 0
4, 505580, Note_on_c, 9, 45, 62
4, 505652, Note_on_c, 9, 59, 46
4, 505708, Note_on_c, 9, 45, 0
4, 505769, Note_on_c, 9, 59, 0
4, 505828, Note_on_c, 9, 53, 0
4, 505877, Note_on_c, 9, 44, 70
4, 506044, Note_on_c, 9, 59, 89
4, 506380, Note_on_c, 9, 59, 0
4, 506420, Note_on_c, 9, 44, 0
4, 506517, Note_on_c, 9, 43, 68
4, 506586, Note_on_c, 9, 59, 84
4, 506588, Note_on_c, 9, 53, 80
4, 506618, Note_on_c, 9, 43, 0
4, 506942, Note_on_c, 9, 59, 0
4, 507095, Note_on_c, 9, 59, 63
4, 507314, Note_on_c, 9, 59, 0
4, 507492, Note_on_c, 9, 36, 43
4, 507661, Note_on_c, 9, 59, 51
4, 507669, Note_on_c, 9, 36, 0
4, 507746, Note_on_c, 9, 59, 0
4, 507809, Note_on_c, 9, 44, 69
4, 507839, Note_on_c, 9, 36, 50
4, 507987, Note_on_c, 9, 59, 83
4, 508203, Note_on_c, 9, 36, 0
4, 508333, Note_on_c, 9, 44, 0
4, 508389, Note_on_c, 9, 59, 0
4, 508445, Note_on_c, 9, 36, 44
4, 508633, Note_on_c, 9, 53, 0
4, 508634, Note_on_c, 9, 36, 0
4, 509467, Note_on_c, 9, 59, 94
4, 509668, Note_on_c, 9, 59, 0
4, 509839, Note_on_c, 9, 59, 61
4, 510068, Note_on_c, 9, 59, 0
4, 510482, Note_on_c, 9, 53, 31
4, 510573, Note_on_c, 9, 53, 0
4, 510720, Note_on_c, 9, 59, 84
4, 511258, Note_on_c, 9, 59, 0
4, 511607, Note_on_c, 9, 44, 67
4, 511610, Note_on_c, 9, 59, 80
4, 512029, Note_on_c, 9, 59, 0
4, 512179, Note_on_c, 9, 44, 0
4, 512308, Note_on_c, 9, 59, 53
4, 512415, Note_on_c, 9, 59, 0
4, 512580, Note_on_c, 9, 59, 78
4, 512937, Note_on_c, 9, 47, 64
4, 513023, Note_on_c, 9, 47, 0
4, 513178, Note_on_c, 9, 59, 0
4, 513233, Note_on_c, 9, 47, 65
4, 513409, Note_on_c, 9, 47, 0
4, 513461, Note_on_c, 9, 44, 71
4, 513489, Note_on_c, 9, 59, 83
4, 513569, Note_on_c, 9, 45, 68
4, 513667, Note_on_c, 9, 45, 0
4, 513865, Note_on_c, 9, 38, 57
4, 513938, Note_on_c, 9, 59, 0
4, 513956, Note_on_c, 9, 44, 0
4, 514008, Note_on_c, 9, 38, 0
4, 514146, Note_on_c, 9, 38, 45
4, 514171, Note_on_c, 9, 36, 90
4, 514191, Note_on_c, 9, 59, 44
4, 514195, Note_on_c, 9, 38, 0
4, 514299, Note_on_c, 9, 36, 0
4, 514323, Note_on_c, 9, 59, 0
4, 514465, Note_on_c, 9, 59, 75
4, 514499, Note_on_c, 9, 57, 88
4, 514501, Note_on_c, 9, 36, 89
4, 514999, Note_on_c, 9, 59, 0
4, 515416, Note_on_c, 9, 44, 75
4, 515429, Note_on_c, 9, 59, 90
4, 515926, Note_on_c, 9, 59, 0
4, 516015, Note_on_c, 9, 44, 0
4, 516133, Note_on_c, 9, 59, 49
4, 516267, Note_on_c, 9, 59, 0
4, 516409, Note_on_c, 9, 59, 80
4, 516958, Note_on_c, 9, 59, 0
4, 517005, Note_on_c, 9, 57, 0
4, 517325, Note_on_c, 9, 59, 84
4, 517954, Note_on_c, 9, 59, 0
4, 517977, Note_on_c, 9, 36, 0
4, 518330, Note_on_c, 9, 59, 82
4, 518738, Note_on_c, 9, 59, 0
4, 519073, Note_on_c, 9, 59, 56
4, 519217, Note_on_c, 9, 59, 0
4, 519276, Note_on_c, 9, 44, 70
4, 519358, Note_on_c, 9, 59, 83
4, 519854, Note_on_c, 9, 44, 0
4, 519880, Note_on_c, 9, 38, 34
4, 519936, Note_on_c, 9, 38, 0
4, 519973, Note_on_c, 9, 59, 0
4, 520286, Note_on_c, 9, 59, 83
4, 520760, Note_on_c, 9, 59, 0
4, 520871, Note_on_c, 9, 38, 31
4, 520936, Note_on_c, 9, 38, 0
4, 521146, Note_on_c, 9, 44, 67
4, 521196, Note_on_c, 9, 59, 76
4, 521503, Note_on_c, 9, 59, 0
4, 521708, Note_on_c, 9, 44, 0
4, 521945, Note_on_c, 9, 59, 48
4, 522030, Note_on_c, 9, 59, 0
4, 522183, Note_on_c, 9, 59, 75
4, 522656, Note_on_c, 9, 59, 0
4, 522861, Note_on_c, 9, 59, 59
4, 522867, Note_on_c, 9, 38, 30
4, 522935, Note_on_c, 9, 38, 0
4, 523021, Note_on_c, 9, 59, 0
4, 523208, Note_on_c, 9, 36, 24
4, 523231, Note_on_c, 9, 59, 66
4, 523475, Note_on_c, 9, 36, 0
4, 523663, Note_on_c, 9, 59, 0
4, 523812, Note_on_c, 9, 36, 49
4, 523870, Note_on_c, 9, 59, 80
4, 523980, Note_on_c, 9, 36, 0
4, 524581, Note_on_c, 9, 59, 0
4, 524782, Note_on_c, 9, 38, 36
4, 524911, Note_on_c, 9, 59, 40
4, 524963, Note_on_c, 9, 38, 0
4, 524993, Note_on_c, 9, 59, 0
4, 525061, Note_on_c, 9, 44, 72
4, 525162, Note_on_c, 9, 59, 74
4, 525188, Note_on_c, 9, 36, 24
4, 525521, Note_on_c, 9, 36, 0
4, 525574, Note_on_c, 9, 59, 0
4, 525746, Note_on_c, 9, 36, 53
4, 525760, Note_on_c, 9, 44, 0
4, 525790, Note_on_c, 9, 59, 89
4, 525979, Note_on_c, 9, 36, 0
4, 526291, Note_on_c, 9, 59, 0
4, 526683, Note_on_c, 9, 38, 49
4, 526734, Note_on_c, 9, 59, 57
4, 526816, Note_on_c, 9, 59, 0
4, 526853, Note_on_c, 9, 38, 0
4, 526962, Note_on_c, 9, 44, 67
4, 527039, Note_on_c, 9, 59, 83
4, 527636, Note_on_c, 9, 38, 51
4, 527684, Note_on_c, 9, 59, 0
4, 527758, Note_on_c, 9, 44, 0
4, 527762, Note_on_c, 9, 38, 0
4, 528073, Note_on_c, 9, 59, 34
4, 528162, Note_on_c, 9, 59, 0
4, 528284, Note_on_c, 9, 47, 58
4, 528395, Note_on_c, 9, 47, 0
4, 528577, Note_on_c, 9, 38, 59
4, 528620, Note_on_c, 9, 59, 80
4, 528685, Note_on_c, 9, 38, 0
4, 528813, Note_on_c, 9, 44, 69
4, 528851, Note_on_c, 9, 59, 0
4, 528913, Note_on_c, 9, 45, 87
4, 528953, Note_on_c, 9, 59, 57
4, 529045, Note_on_c, 9, 45, 0
4, 529284, Note_on_c, 9, 38, 64
4, 529433, Note_on_c, 9, 38, 0
4, 529456, Note_on_c, 9, 44, 0
4, 529589, Note_on_c, 9, 36, 68
4, 529596, Note_on_c, 9, 59, 0
4, 529648, Note_on_c, 9, 36, 0
4, 529886, Note_on_c, 9, 59, 76
4, 529916, Note_on_c, 9, 57, 84
4, 529922, Note_on_c, 9, 36, 89
4, 530311, Note_on_c, 9, 59, 0
4, 530573, Note_on_c, 9, 59, 45
4, 530678, Note_on_c, 9, 59, 0
4, 530826, Note_on_c, 9, 44, 55
4, 530842, Note_on_c, 9, 59, 77
4, 531386, Note_on_c, 9, 44, 0
4, 531592, Note_on_c, 9, 57, 0
4, 532166, Note_on_c, 9, 59, 0
4, 532527, Note_on_c, 9, 59, 54
4, 532668, Note_on_c, 9, 59, 0
4, 532721, Note_on_c, 9, 44, 46
4, 532840, Note_on_c, 9, 59, 77
4, 532937, Note_on_c, 9, 36, 0
4, 533333, Note_on_c, 9, 44, 0
4, 533344, Note_on_c, 9, 59, 0
4, 533414, Note_on_c, 9, 38, 46
4, 533628, Note_on_c, 9, 38, 0
4, 533748, Note_on_c, 9, 59, 75
4, 533814, Note_on_c, 9, 36, 35
4, 534016, Note_on_c, 9, 36, 0
4, 534249, Note_on_c, 9, 59, 0
4, 534420, Note_on_c, 9, 36, 40
4, 534650, Note_on_c, 9, 36, 0
4, 534681, Note_on_c, 9, 44, 59
4, 534696, Note_on_c, 9, 59, 77
4, 535096, Note_on_c, 9, 59, 0
4, 535373, Note_on_c, 9, 44, 0
4, 535441, Note_on_c, 9, 59, 46
4, 535532, Note_on_c, 9, 59, 0
4, 535709, Note_on_c, 9, 59, 72
4, 536364, Note_on_c, 9, 59, 0
4, 536426, Note_on_c, 9, 36, 19
4, 536506, Note_on_c, 9, 36, 0
4, 536567, Note_on_c, 9, 44, 62
4, 537324, Note_on_c, 9, 36, 34
4, 537329, Note_on_c, 9, 59, 66
4, 537333, Note_on_c, 9, 44, 0
4, 537426, Note_on_c, 9, 36, 0
4, 537510, Note_on_c, 9, 59, 0
4, 537651, Note_on_c, 9, 59, 74
4, 538355, Note_on_c, 9, 59, 0
4, 538518, Note_on_c, 9, 44, 62
4, 538564, Note_on_c, 9, 59, 49
4, 538642, Note_on_c, 9, 59, 0
4, 539155, Note_on_c, 9, 44, 0
4, 539273, Note_on_c, 9, 59, 55
4, 539364, Note_on_c, 9, 59, 0
4, 539558, Note_on_c, 9, 59, 70
4, 540096, Note_on_c, 9, 59, 0
4, 540493, Note_on_c, 9, 59, 58
4, 540653, Note_on_c, 9, 59, 0
4, 541087, Note_on_c, 9, 53, 80
4, 541305, Note_on_c, 9, 53, 0
4, 542072, Note_on_c, 9, 59, 74
4, 542262, Note_on_c, 9, 59, 0
4, 542995, Note_on_c, 9, 53, 74
4, 543137, Note_on_c, 9, 53, 0
4, 543405, Note_on_c, 9, 59, 54
4, 543839, Note_on_c, 9, 59, 0
4, 544243, Note_on_c, 9, 59, 74
4, 544259, Note_on_c, 9, 44, 69
4, 544307, Note_on_c, 9, 37, 38
4, 544491, Note_on_c, 9, 37, 0
4, 544628, Note_on_c, 9, 59, 0
4, 544898, Note_on_c, 9, 44, 0
4, 544926, Note_on_c, 9, 36, 48
4, 544962, Note_on_c, 9, 59, 58
4, 545066, Note_on_c, 9, 59, 0
4, 545087, Note_on_c, 9, 36, 0
4, 545256, Note_on_c, 9, 59, 77
4, 545278, Note_on_c, 9, 36, 36
4, 545420, Note_on_c, 9, 36, 0
4, 545852, Note_on_c, 9, 59, 0
4, 546194, Note_on_c, 9, 59, 77
4, 546604, Note_on_c, 9, 59, 0
4, 546928, Note_on_c, 9, 59, 47
4, 547017, Note_on_c, 9, 59, 0
4, 547172, Note_on_c, 9, 59, 73
4, 547727, Note_on_c, 9, 59, 0
4, 548076, Note_on_c, 9, 44, 67
4, 548084, Note_on_c, 9, 59, 78
4, 548087, Note_on_c, 9, 37, 88
4, 548512, Note_on_c, 9, 37, 0
4, 548516, Note_on_c, 9, 59, 0
4, 548667, Note_on_c, 9, 44, 0
4, 548762, Note_on_c, 9, 36, 31
4, 548879, Note_on_c, 9, 59, 39
4, 548888, Note_on_c, 9, 36, 0
4, 548980, Note_on_c, 9, 59, 0
4, 549075, Note_on_c, 9, 59, 62
4, 549092, Note_on_c, 9, 36, 35
4, 549527, Note_on_c, 9, 36, 0
4, 549559, Note_on_c, 9, 59, 0
4, 549698, Note_on_c, 9, 36, 34
4, 549786, Note_on_c, 9, 36, 0
4, 549997, Note_on_c, 9, 59, 84
4, 550014, Note_on_c, 9, 44, 59
4, 550574, Note_on_c, 9, 44, 0
4, 550678, Note_on_c, 9, 59, 0
4, 550736, Note_on_c, 9, 53, 59
4, 551013, Note_on_c, 9, 53, 0
4, 551645, Note_on_c, 9, 59, 75
4, 551989, Note_on_c, 9, 59, 0
4, 552592, Note_on_c, 9, 53, 55
4, 552595, Note_on_c, 9, 38, 47
4, 552672, Note_on_c, 9, 53, 0
4, 552696, Note_on_c, 9, 38, 0
4, 552987, Note_on_c, 9, 59, 81
4, 553587, Note_on_c, 9, 59, 0
4, 553595, Note_on_c, 9, 38, 40
4, 553852, Note_on_c, 9, 44, 68
4, 553856, Note_on_c, 9, 38, 0
4, 553939, Note_on_c, 9, 59, 81
4, 554464, Note_on_c, 9, 44, 0
4, 554473, Note_on_c, 9, 59, 0
4, 554616, Note_on_c, 9, 36, 56
4, 554736, Note_on_c, 9, 59, 39
4, 554770, Note_on_c, 9, 36, 0
4, 554829, Note_on_c, 9, 59, 0
4, 554985, Note_on_c, 9, 59, 71
4, 555014, Note_on_c, 9, 38, 37
4, 555398, Note_on_c, 9, 38, 0
4, 555571, Note_on_c, 9, 38, 39
4, 555652, Note_on_c, 9, 53, 74
4, 555665, Note_on_c, 9, 59, 0
4, 555771, Note_on_c, 9, 38, 0
4, 555859, Note_on_c, 9, 44, 76
4, 555907, Note_on_c, 9, 53, 0
4, 556093, Note_on_c, 9, 59, 44
4, 556333, Note_on_c, 9, 59, 0
4, 556435, Note_on_c, 9, 44, 0
4, 556500, Note_on_c, 9, 36, 48
4, 556567, Note_on_c, 9, 36, 0
4, 556587, Note_on_c, 9, 59, 78
4, 556830, Note_on_c, 9, 38, 42
4, 557087, Note_on_c, 9, 38, 0
4, 557385, Note_on_c, 9, 59, 0
4, 557577, Note_on_c, 9, 59, 45
4, 557672, Note_on_c, 9, 59, 0
4, 557729, Note_on_c, 9, 44, 68
4, 557888, Note_on_c, 9, 59, 63
4, 558102, Note_on_c, 9, 59, 0
4, 558341, Note_on_c, 9, 44, 0
4, 558426, Note_on_c, 9, 38, 69
4, 558484, Note_on_c, 9, 59, 90
4, 558606, Note_on_c, 9, 38, 0
4, 558709, Note_on_c, 9, 44, 71
4, 558774, Note_on_c, 9, 38, 40
4, 559043, Note_on_c, 9, 38, 0
4, 559156, Note_on_c, 9, 59, 0
4, 559374, Note_on_c, 9, 36, 80
4, 559421, Note_on_c, 9, 59, 42
4, 559445, Note_on_c, 9, 44, 0
4, 559521, Note_on_c, 9, 59, 0
4, 559577, Note_on_c, 9, 36, 0
4, 559709, Note_on_c, 9, 59, 34
4, 559750, Note_on_c, 9, 36, 71
4, 559872, Note_on_c, 9, 36, 0
4, 560272, Note_on_c, 9, 59, 0
4, 560291, Note_on_c, 9, 38, 88
4, 560430, Note_on_c, 9, 38, 0
4, 560620, Note_on_c, 9, 59, 55
4, 560625, Note_on_c, 9, 44, 67
4, 560646, Note_on_c, 9, 36, 91
4, 560676, Note_on_c, 9, 57, 64
4, 560699, Note_on_c, 9, 59, 39
4, 560748, Note_on_c, 9, 59, 0
4, 560825, Note_on_c, 9, 59, 0
4, 561276, Note_on_c, 9, 44, 0
4, 561575, Note_on_c, 9, 44, 74
4, 561584, Note_on_c, 9, 53, 88
4, 562388, Note_on_c, 9, 44, 0
4, 562767, Note_on_c, 9, 53, 0
4, 563273, Note_on_c, 9, 53, 39
4, 563361, Note_on_c, 9, 53, 0
4, 563497, Note_on_c, 9, 44, 70
4, 563556, Note_on_c, 9, 53, 83
4, 563777, Note_on_c, 9, 57, 0
4, 563782, Note_on_c, 9, 36, 0
4, 563829, Note_on_c, 9, 38, 43
4, 563878, Note_on_c, 9, 38, 0
4, 564090, Note_on_c, 9, 38, 55
4, 564156, Note_on_c, 9, 44, 0
4, 564194, Note_on_c, 9, 38, 0
4, 564435, Note_on_c, 9, 57, 63
4, 564448, Note_on_c, 9, 36, 74
4, 564529, Note_on_c, 9, 44, 74
4, 564666, Note_on_c, 9, 53, 0
4, 565280, Note_on_c, 9, 44, 0
4, 565454, Note_on_c, 9, 53, 76
4, 565726, Note_on_c, 9, 57, 0
4, 566318, Note_on_c, 9, 36, 0
4, 566450, Note_on_c, 9, 59, 72
4, 566908, Note_on_c, 9, 59, 0
4, 567109, Note_on_c, 9, 53, 0
4, 567362, Note_on_c, 9, 44, 71
4, 567405, Note_on_c, 9, 53, 74
4, 568098, Note_on_c, 9, 44, 0
4, 568187, Note_on_c, 9, 53, 0
4, 568375, Note_on_c, 9, 59, 44
4, 568463, Note_on_c, 9, 59, 0
4, 569300, Note_on_c, 9, 38, 30
4, 569362, Note_on_c, 9, 38, 0
4, 569385, Note_on_c, 9, 53, 79
4, 569945, Note_on_c, 9, 38, 35
4, 570049, Note_on_c, 9, 38, 0
4, 570224, Note_on_c, 9, 53, 0
4, 570878, Note_on_c, 9, 36, 44
4, 571026, Note_on_c, 9, 36, 0
4, 571147, Note_on_c, 9, 44, 71
4, 571202, Note_on_c, 9, 53, 78
4, 571256, Note_on_c, 9, 36, 31
4, 571432, Note_on_c, 9, 36, 0
4, 571906, Note_on_c, 9, 44, 0
4, 572211, Note_on_c, 9, 59, 30
4, 572264, Note_on_c, 9, 53, 0
4, 572358, Note_on_c, 9, 59, 0
4, 572749, Note_on_c, 9, 53, 81
4, 573028, Note_on_c, 9, 44, 68
4, 573926, Note_on_c, 9, 44, 0
4, 574047, Note_on_c, 9, 53, 0
4, 574079, Note_on_c, 9, 59, 58
4, 574394, Note_on_c, 9, 38, 32
4, 574477, Note_on_c, 9, 38, 0
4, 574658, Note_on_c, 9, 59, 0
4, 574704, Note_on_c, 9, 53, 82
4, 574722, Note_on_c, 9, 36, 36
4, 574811, Note_on_c, 9, 36, 0
4, 574915, Note_on_c, 9, 53, 0
4, 574966, Note_on_c, 9, 44, 69
4, 575002, Note_on_c, 9, 53, 54
4, 575402, Note_on_c, 9, 38, 34
4, 575546, Note_on_c, 9, 38, 0
4, 575701, Note_on_c, 9, 36, 26
4, 575775, Note_on_c, 9, 36, 0
4, 575863, Note_on_c, 9, 44, 0
4, 575971, Note_on_c, 9, 59, 68
4, 576043, Note_on_c, 9, 53, 0
4, 576099, Note_on_c, 9, 38, 20
4, 576230, Note_on_c, 9, 38, 0
4, 576389, Note_on_c, 9, 38, 34
4, 576491, Note_on_c, 9, 38, 0
4, 576524, Note_on_c, 9, 59, 0
4, 576630, Note_on_c, 9, 53, 82
4, 576691, Note_on_c, 9, 36, 27
4, 576751, Note_on_c, 9, 36, 0
4, 576882, Note_on_c, 9, 44, 75
4, 577037, Note_on_c, 9, 38, 22
4, 577105, Note_on_c, 9, 38, 0
4, 577269, Note_on_c, 9, 38, 44
4, 577389, Note_on_c, 9, 38, 0
4, 577583, Note_on_c, 9, 36, 38
4, 577721, Note_on_c, 9, 36, 0
4, 577886, Note_on_c, 9, 44, 0
4, 577926, Note_on_c, 9, 59, 69
4, 577950, Note_on_c, 9, 53, 0
4, 578468, Note_on_c, 9, 59, 0
4, 578592, Note_on_c, 9, 53, 83
4, 579769, Note_on_c, 9, 53, 0
4, 579900, Note_on_c, 9, 59, 71
4, 580322, Note_on_c, 9, 59, 0
4, 580525, Note_on_c, 9, 53, 80
4, 580678, Note_on_c, 9, 53, 0
4, 580771, Note_on_c, 9, 44, 73
4, 580933, Note_on_c, 9, 59, 48
4, 581393, Note_on_c, 9, 38, 36
4, 581430, Note_on_c, 9, 59, 0
4, 581452, Note_on_c, 9, 38, 0
4, 581543, Note_on_c, 9, 44, 0
4, 581760, Note_on_c, 9, 38, 22
4, 581797, Note_on_c, 9, 59, 71
4, 582114, Note_on_c, 9, 38, 0
4, 582274, Note_on_c, 9, 59, 0
4, 582338, Note_on_c, 9, 36, 35
4, 582397, Note_on_c, 9, 53, 71
4, 582476, Note_on_c, 9, 36, 0
4, 582561, Note_on_c, 9, 53, 0
4, 582654, Note_on_c, 9, 44, 74
4, 582665, Note_on_c, 9, 36, 36
4, 582752, Note_on_c, 9, 59, 57
4, 582970, Note_on_c, 9, 59, 0
4, 583118, Note_on_c, 9, 36, 0
4, 583289, Note_on_c, 9, 36, 32
4, 583341, Note_on_c, 9, 59, 73
4, 583422, Note_on_c, 9, 36, 0
4, 583436, Note_on_c, 9, 44, 0
4, 584127, Note_on_c, 9, 59, 0
4, 584261, Note_on_c, 9, 53, 80
4, 584423, Note_on_c, 9, 53, 0
4, 584528, Note_on_c, 9, 44, 74
4, 584594, Note_on_c, 9, 59, 59
4, 585141, Note_on_c, 9, 59, 0
4, 585194, Note_on_c, 9, 36, 24
4, 585243, Note_on_c, 9, 36, 0
4, 585511, Note_on_c, 9, 38, 32
4, 585512, Note_on_c, 9, 59, 74
4, 585545, Note_on_c, 9, 44, 0
4, 585732, Note_on_c, 9, 38, 0
4, 585868, Note_on_c, 9, 38, 34
4, 585950, Note_on_c, 9, 38, 0
4, 586059, Note_on_c, 9, 59, 0
4, 586128, Note_on_c, 9, 53, 62
4, 586185, Note_on_c, 9, 38, 49
4, 586212, Note_on_c, 9, 53, 0
4, 586431, Note_on_c, 9, 38, 0
4, 586446, Note_on_c, 9, 44, 75
4, 586532, Note_on_c, 9, 59, 48
4, 586618, Note_on_c, 9, 59, 0
4, 586807, Note_on_c, 9, 38, 30
4, 586874, Note_on_c, 9, 38, 0
4, 587079, Note_on_c, 9, 38, 30
4, 587143, Note_on_c, 9, 53, 34
4, 587232, Note_on_c, 9, 38, 0
4, 587249, Note_on_c, 9, 53, 0
4, 587315, Note_on_c, 9, 44, 0
4, 587750, Note_on_c, 9, 38, 29
4, 587851, Note_on_c, 9, 38, 0
4, 588003, Note_on_c, 9, 53, 77
4, 588030, Note_on_c, 9, 38, 28
4, 588160, Note_on_c, 9, 53, 0
4, 588164, Note_on_c, 9, 38, 0
4, 588414, Note_on_c, 9, 44, 75
4, 588631, Note_on_c, 9, 59, 61
4, 588780, Note_on_c, 9, 59, 0
4, 588971, Note_on_c, 9, 38, 58
4, 589139, Note_on_c, 9, 38, 0
4, 589331, Note_on_c, 9, 59, 83
4, 589377, Note_on_c, 9, 44, 0
4, 589575, Note_on_c, 9, 59, 0
4, 589731, Note_on_c, 9, 38, 62
4, 589933, Note_on_c, 9, 38, 0
4, 590052, Note_on_c, 9, 47, 51
4, 590210, Note_on_c, 9, 59, 54
4, 590263, Note_on_c, 9, 47, 0
4, 590265, Note_on_c, 9, 44, 74
4, 590357, Note_on_c, 9, 59, 0
4, 590361, Note_on_c, 9, 45, 55
4, 590420, Note_on_c, 9, 45, 0
4, 590683, Note_on_c, 9, 36, 69
4, 590740, Note_on_c, 9, 36, 0
4, 590818, Note_on_c, 9, 44, 0
4, 590912, Note_on_c, 9, 57, 79
4, 590969, Note_on_c, 9, 36, 81
4, 591050, Note_on_c, 9, 57, 0
4, 591199, Note_on_c, 9, 36, 0
4, 591287, Note_on_c, 9, 57, 72
4, 591307, Note_on_c, 9, 36, 78
4, 591790, Note_on_c, 9, 57, 0
4, 592135, Note_on_c, 9, 36, 0
4, 592135, End_track
0, 0, End_of_file
