0, 0, Header, 1, 6, 960
1, 0, Start_track
1, 0, Title_t, "I'm Old Fashioned - "
1, 0, Text_t, "dougmck@tpg.com.au Two piano duet - followed by jazz piano trio\012"
1, 0, Time_signature, 4, 2, 24, 8
1, 0, Key_signature, 0, "major"
1, 0, Tempo, 447761
1, 0, Marker_t, "Piano duet "
1, 129903, Marker_t, "Little interlude figure - FMaj7/EbMaj7/DbMaj7"
1, 131204, Marker_t, "Bass and Drums in"
1, 161280, Marker_t, "Second Chorus"
1, 179735, Marker_t, "Series of Perfect 4ths "
1, 258128, Marker_t, "Another octave tremolo - for several bars"
1, 264335, Marker_t, "Chords 'stabbed' with LH under RH C tremolo"
1, 267688, Marker_t, "Crescendo - 5th (G) added between C octaves"
1, 291840, Marker_t, "Interlude repeats"
1, 303360, Marker_t, "'Bluesey' (F blues scale) phrase between repeating chordal figure"
1, 464640, Marker_t, "Ab Major scale on this Db Major chord (= Db lydian)"
1, 480836, Marker_t, "Same scale  with pedal held Down"
1, 480836, End_track
2, 0, Start_track
2, 0, Title_t, "Second Piano"
2, 0, Control_c, 1, 0, 121
2, 0, Control_c, 1, 7, 82
2, 1, Control_c, 1, 32, 0
2, 2, Program_c, 1, 4
2, 94, Note_on_c, 1, 60, 42
2, 99, Note_on_c, 1, 55, 41
2, 111, Note_on_c, 1, 57, 43
2, 737, Note_on_c, 1, 48, 57
2, 881, Note_on_c, 1, 48, 0
2, 1960, Control_c, 1, 64, 127
2, 1983, Note_on_c, 1, 48, 53
2, 2691, Control_c, 1, 64, 0
2, 2814, Note_on_c, 1, 55, 0
2, 2847, Note_on_c, 1, 36, 45
2, 2851, Note_on_c, 1, 57, 0
2, 2853, Note_on_c, 1, 60, 0
2, 3816, Note_on_c, 1, 60, 55
2, 3824, Note_on_c, 1, 58, 62
2, 3826, Note_on_c, 1, 53, 61
2, 3939, Note_on_c, 1, 48, 0
2, 4035, Note_on_c, 1, 36, 0
2, 4444, Note_on_c, 1, 48, 53
2, 4608, Note_on_c, 1, 48, 0
2, 5376, Note_on_c, 1, 48, 60
2, 5715, Note_on_c, 1, 53, 0
2, 5735, Note_on_c, 1, 48, 0
2, 5831, Note_on_c, 1, 48, 62
2, 5840, Note_on_c, 1, 60, 0
2, 5902, Note_on_c, 1, 58, 0
2, 5994, Note_on_c, 1, 58, 34
2, 6007, Note_on_c, 1, 60, 39
2, 6017, Note_on_c, 1, 52, 51
2, 6720, Note_on_c, 1, 36, 55
2, 7082, Note_on_c, 1, 52, 0
2, 7334, Note_on_c, 1, 60, 0
2, 7393, Note_on_c, 1, 58, 0
2, 7691, Note_on_c, 1, 57, 56
2, 7693, Note_on_c, 1, 60, 47
2, 7699, Note_on_c, 1, 55, 54
2, 7710, Note_on_c, 1, 52, 51
2, 7787, Note_on_c, 1, 48, 0
2, 7829, Note_on_c, 1, 36, 0
2, 8338, Note_on_c, 1, 48, 65
2, 8542, Note_on_c, 1, 48, 0
2, 9221, Note_on_c, 1, 48, 62
2, 9624, Note_on_c, 1, 48, 0
2, 9767, Note_on_c, 1, 48, 42
2, 10333, Note_on_c, 1, 52, 0
2, 10377, Note_on_c, 1, 36, 47
2, 10452, Note_on_c, 1, 55, 0
2, 10467, Note_on_c, 1, 60, 0
2, 10469, Note_on_c, 1, 57, 0
2, 10823, Note_on_c, 1, 48, 0
2, 11189, Note_on_c, 1, 53, 45
2, 11191, Note_on_c, 1, 58, 49
2, 11205, Note_on_c, 1, 60, 39
2, 11207, Note_on_c, 1, 48, 41
2, 11448, Control_c, 1, 64, 127
2, 12345, Note_on_c, 1, 36, 0
2, 12455, Note_on_c, 1, 53, 0
2, 12481, Note_on_c, 1, 60, 0
2, 12537, Note_on_c, 1, 58, 0
2, 12888, Note_on_c, 1, 48, 0
2, 13372, Control_c, 1, 64, 0
2, 13447, Note_on_c, 1, 64, 42
2, 13449, Note_on_c, 1, 61, 23
2, 13453, Note_on_c, 1, 56, 43
2, 13470, Note_on_c, 1, 52, 30
2, 13488, Note_on_c, 1, 46, 31
2, 13839, Control_c, 1, 64, 127
2, 14027, Note_on_c, 1, 52, 0
2, 14131, Note_on_c, 1, 46, 0
2, 14215, Note_on_c, 1, 56, 0
2, 14313, Note_on_c, 1, 61, 0
2, 14344, Note_on_c, 1, 64, 0
2, 15206, Control_c, 1, 64, 0
2, 15381, Note_on_c, 1, 70, 33
2, 15396, Note_on_c, 1, 62, 44
2, 15398, Note_on_c, 1, 58, 29
2, 15427, Note_on_c, 1, 53, 28
2, 15446, Note_on_c, 1, 65, 30
2, 16302, Control_c, 1, 64, 127
2, 16577, Note_on_c, 1, 58, 0
2, 16613, Note_on_c, 1, 53, 0
2, 16617, Note_on_c, 1, 62, 0
2, 16844, Note_on_c, 1, 70, 0
2, 16903, Note_on_c, 1, 65, 0
2, 17823, Control_c, 1, 64, 0
2, 17900, Note_on_c, 1, 65, 36
2, 17904, Note_on_c, 1, 60, 24
2, 17919, Note_on_c, 1, 69, 16
2, 17921, Note_on_c, 1, 53, 23
2, 18190, Control_c, 1, 64, 127
2, 18337, Note_on_c, 1, 53, 0
2, 18355, Note_on_c, 1, 60, 0
2, 18476, Note_on_c, 1, 69, 0
2, 18512, Note_on_c, 1, 65, 0
2, 19152, Control_c, 1, 64, 0
2, 19223, Note_on_c, 1, 57, 33
2, 19224, Note_on_c, 1, 72, 43
2, 19230, Note_on_c, 1, 67, 45
2, 19234, Note_on_c, 1, 62, 42
2, 19536, Control_c, 1, 64, 127
2, 20115, Note_on_c, 1, 62, 0
2, 20119, Note_on_c, 1, 57, 0
2, 20355, Note_on_c, 1, 67, 0
2, 20459, Note_on_c, 1, 72, 0
2, 21924, Control_c, 1, 64, 0
2, 22053, Note_on_c, 1, 76, 57
2, 22060, Note_on_c, 1, 72, 49
2, 22068, Note_on_c, 1, 69, 54
2, 22078, Note_on_c, 1, 67, 54
2, 22081, Note_on_c, 1, 64, 60
2, 22141, Note_on_c, 1, 67, 0
2, 22197, Note_on_c, 1, 69, 0
2, 22227, Note_on_c, 1, 72, 0
2, 22231, Note_on_c, 1, 64, 0
2, 22289, Note_on_c, 1, 76, 0
2, 23041, Note_on_c, 1, 69, 53
2, 23047, Note_on_c, 1, 81, 59
2, 23051, Note_on_c, 1, 74, 54
2, 23061, Note_on_c, 1, 76, 44
2, 23076, Note_on_c, 1, 70, 40
2, 23512, Note_on_c, 1, 69, 0
2, 23529, Note_on_c, 1, 70, 0
2, 23537, Note_on_c, 1, 81, 0
2, 23614, Note_on_c, 1, 76, 0
2, 23631, Note_on_c, 1, 74, 0
2, 23717, Note_on_c, 1, 74, 9
2, 23725, Note_on_c, 1, 76, 23
2, 23733, Note_on_c, 1, 79, 31
2, 23735, Note_on_c, 1, 67, 36
2, 23756, Note_on_c, 1, 70, 10
2, 23832, Note_on_c, 1, 76, 0
2, 23863, Note_on_c, 1, 74, 0
2, 23865, Note_on_c, 1, 67, 0
2, 23886, Note_on_c, 1, 79, 0
2, 23919, Note_on_c, 1, 70, 0
2, 25040, Control_c, 1, 64, 127
2, 25482, Control_c, 1, 64, 0
2, 25580, Note_on_c, 1, 62, 34
2, 25587, Note_on_c, 1, 70, 42
2, 25589, Note_on_c, 1, 67, 56
2, 25601, Note_on_c, 1, 74, 43
2, 25777, Note_on_c, 1, 67, 0
2, 25783, Note_on_c, 1, 74, 0
2, 25875, Note_on_c, 1, 70, 0
2, 25883, Note_on_c, 1, 62, 0
2, 25998, Note_on_c, 1, 58, 27
2, 26476, Note_on_c, 1, 58, 0
2, 26505, Note_on_c, 1, 73, 21
2, 26513, Note_on_c, 1, 61, 37
2, 26519, Note_on_c, 1, 66, 42
2, 26545, Note_on_c, 1, 70, 30
2, 26605, Note_on_c, 1, 59, 5
2, 26647, Note_on_c, 1, 61, 0
2, 26676, Note_on_c, 1, 66, 0
2, 26703, Note_on_c, 1, 70, 0
2, 26712, Note_on_c, 1, 59, 0
2, 26716, Note_on_c, 1, 73, 0
2, 27411, Note_on_c, 1, 72, 31
2, 27419, Note_on_c, 1, 61, 45
2, 27432, Note_on_c, 1, 55, 34
2, 27463, Note_on_c, 1, 45, 25
2, 27465, Note_on_c, 1, 65, 34
2, 27552, Note_on_c, 1, 65, 0
2, 27569, Note_on_c, 1, 61, 0
2, 27596, Note_on_c, 1, 72, 0
2, 27609, Note_on_c, 1, 45, 0
2, 27621, Note_on_c, 1, 55, 0
2, 28371, Note_on_c, 1, 55, 34
2, 28383, Note_on_c, 1, 58, 36
2, 28385, Note_on_c, 1, 61, 27
2, 28391, Note_on_c, 1, 69, 29
2, 28429, Note_on_c, 1, 64, 34
2, 28679, Note_on_c, 1, 58, 0
2, 28690, Note_on_c, 1, 69, 0
2, 28694, Note_on_c, 1, 64, 0
2, 28719, Note_on_c, 1, 61, 0
2, 28801, Note_on_c, 1, 55, 0
2, 28836, Note_on_c, 1, 58, 22
2, 28842, Note_on_c, 1, 67, 34
2, 28853, Note_on_c, 1, 61, 3
2, 28919, Note_on_c, 1, 52, 18
2, 29047, Control_c, 1, 64, 127
2, 29068, Control_c, 1, 64, 0
2, 29383, Note_on_c, 1, 67, 0
2, 29462, Note_on_c, 1, 58, 0
2, 29516, Note_on_c, 1, 61, 0
2, 29644, Note_on_c, 1, 52, 0
2, 29698, Note_on_c, 1, 61, 36
2, 29713, Note_on_c, 1, 58, 20
2, 29740, Control_c, 1, 64, 127
2, 29744, Note_on_c, 1, 66, 18
2, 29756, Note_on_c, 1, 49, 12
2, 29986, Note_on_c, 1, 58, 0
2, 30134, Note_on_c, 1, 66, 0
2, 30165, Control_c, 1, 64, 0
2, 30291, Note_on_c, 1, 61, 0
2, 30583, Note_on_c, 1, 49, 0
2, 30664, Note_on_c, 1, 50, 20
2, 30691, Note_on_c, 1, 60, 26
2, 30718, Note_on_c, 1, 65, 23
2, 31027, Note_on_c, 1, 65, 0
2, 31075, Note_on_c, 1, 60, 0
2, 31656, Note_on_c, 1, 60, 18
2, 31674, Note_on_c, 1, 65, 24
2, 32106, Note_on_c, 1, 65, 0
2, 32117, Note_on_c, 1, 60, 0
2, 32636, Note_on_c, 1, 65, 27
2, 32640, Note_on_c, 1, 60, 21
2, 32737, Note_on_c, 1, 50, 0
2, 33010, Note_on_c, 1, 60, 0
2, 33144, Note_on_c, 1, 65, 0
2, 33532, Note_on_c, 1, 31, 16
2, 33571, Note_on_c, 1, 64, 35
2, 33575, Note_on_c, 1, 43, 9
2, 33576, Note_on_c, 1, 61, 14
2, 33580, Note_on_c, 1, 59, 21
2, 33605, Note_on_c, 1, 55, 14
2, 33916, Note_on_c, 1, 55, 0
2, 33972, Note_on_c, 1, 59, 0
2, 34035, Note_on_c, 1, 31, 0
2, 34055, Note_on_c, 1, 61, 0
2, 34058, Note_on_c, 1, 64, 0
2, 34095, Note_on_c, 1, 43, 0
2, 35103, Note_on_c, 1, 61, 10
2, 35105, Note_on_c, 1, 55, 19
2, 35118, Note_on_c, 1, 31, 20
2, 35126, Note_on_c, 1, 43, 17
2, 35128, Note_on_c, 1, 64, 28
2, 35147, Note_on_c, 1, 59, 23
2, 35491, Note_on_c, 1, 31, 0
2, 35566, Note_on_c, 1, 59, 0
2, 35585, Note_on_c, 1, 55, 0
2, 35592, Note_on_c, 1, 43, 0
2, 35637, Note_on_c, 1, 64, 0
2, 35688, Note_on_c, 1, 61, 0
2, 36078, Note_on_c, 1, 61, 19
2, 36096, Note_on_c, 1, 31, 25
2, 36109, Note_on_c, 1, 43, 19
2, 36115, Note_on_c, 1, 64, 35
2, 36132, Note_on_c, 1, 59, 23
2, 36134, Note_on_c, 1, 55, 11
2, 36147, Note_on_c, 1, 53, 11
2, 36474, Note_on_c, 1, 53, 0
2, 36481, Note_on_c, 1, 59, 0
2, 36491, Note_on_c, 1, 55, 0
2, 36504, Note_on_c, 1, 31, 0
2, 36541, Note_on_c, 1, 43, 0
2, 36549, Note_on_c, 1, 64, 0
2, 36576, Note_on_c, 1, 61, 0
2, 36704, Note_on_c, 1, 31, 16
2, 36710, Note_on_c, 1, 61, 14
2, 36721, Note_on_c, 1, 64, 14
2, 36733, Note_on_c, 1, 43, 22
2, 36746, Note_on_c, 1, 55, 10
2, 36750, Note_on_c, 1, 59, 23
2, 36754, Note_on_c, 1, 53, 11
2, 37044, Note_on_c, 1, 53, 0
2, 37050, Note_on_c, 1, 59, 0
2, 37063, Note_on_c, 1, 55, 0
2, 37071, Note_on_c, 1, 31, 0
2, 37084, Note_on_c, 1, 43, 0
2, 37134, Note_on_c, 1, 64, 0
2, 37152, Note_on_c, 1, 61, 0
2, 37344, Note_on_c, 1, 61, 20
2, 37361, Note_on_c, 1, 64, 35
2, 37388, Note_on_c, 1, 59, 29
2, 37392, Note_on_c, 1, 55, 9
2, 37393, Note_on_c, 1, 31, 19
2, 37395, Note_on_c, 1, 43, 23
2, 37397, Note_on_c, 1, 53, 9
2, 37518, Note_on_c, 1, 53, 0
2, 37537, Note_on_c, 1, 55, 0
2, 37551, Note_on_c, 1, 31, 0
2, 37582, Note_on_c, 1, 59, 0
2, 37612, Note_on_c, 1, 43, 0
2, 37633, Note_on_c, 1, 61, 0
2, 37639, Note_on_c, 1, 64, 0
2, 39054, Note_on_c, 1, 57, 59
2, 39056, Note_on_c, 1, 53, 43
2, 39062, Note_on_c, 1, 55, 40
2, 39066, Note_on_c, 1, 64, 74
2, 39068, Note_on_c, 1, 67, 64
2, 39077, Note_on_c, 1, 60, 65
2, 39344, Control_c, 1, 64, 127
2, 39770, Note_on_c, 1, 55, 0
2, 39772, Note_on_c, 1, 53, 0
2, 39778, Note_on_c, 1, 57, 0
2, 39782, Note_on_c, 1, 60, 0
2, 39799, Note_on_c, 1, 67, 0
2, 39851, Note_on_c, 1, 64, 0
2, 39901, Control_c, 1, 64, 0
2, 39989, Note_on_c, 1, 59, 52
2, 40001, Note_on_c, 1, 57, 32
2, 40022, Note_on_c, 1, 69, 54
2, 40024, Note_on_c, 1, 55, 22
2, 40026, Note_on_c, 1, 65, 59
2, 40033, Note_on_c, 1, 62, 61
2, 40248, Note_on_c, 1, 59, 0
2, 40260, Note_on_c, 1, 57, 0
2, 40273, Note_on_c, 1, 69, 0
2, 40275, Note_on_c, 1, 55, 0
2, 40296, Note_on_c, 1, 62, 0
2, 40333, Note_on_c, 1, 65, 0
2, 40479, Note_on_c, 1, 57, 40
2, 40481, Note_on_c, 1, 64, 54
2, 40487, Note_on_c, 1, 67, 42
2, 40488, Note_on_c, 1, 55, 27
2, 40504, Note_on_c, 1, 53, 33
2, 40508, Note_on_c, 1, 60, 40
2, 40596, Note_on_c, 1, 60, 0
2, 40615, Note_on_c, 1, 55, 0
2, 40623, Note_on_c, 1, 57, 0
2, 40631, Note_on_c, 1, 64, 0
2, 40673, Note_on_c, 1, 67, 0
2, 40675, Note_on_c, 1, 53, 0
2, 41308, Control_c, 1, 64, 127
2, 41865, Control_c, 1, 64, 0
2, 41955, Note_on_c, 1, 53, 34
2, 41955, Note_on_c, 1, 64, 41
2, 41965, Note_on_c, 1, 61, 31
2, 41973, Note_on_c, 1, 57, 33
2, 42007, Note_on_c, 1, 45, 16
2, 42036, Note_on_c, 1, 33, 10
2, 42059, Note_on_c, 1, 31, 3
2, 42113, Note_on_c, 1, 53, 0
2, 42134, Note_on_c, 1, 31, 0
2, 42165, Note_on_c, 1, 45, 0
2, 42167, Note_on_c, 1, 57, 0
2, 42188, Note_on_c, 1, 64, 0
2, 42192, Note_on_c, 1, 33, 0
2, 42226, Note_on_c, 1, 61, 0
2, 43313, Note_on_c, 1, 61, 32
2, 43317, Note_on_c, 1, 43, 37
2, 43322, Note_on_c, 1, 64, 49
2, 43332, Note_on_c, 1, 57, 43
2, 43344, Note_on_c, 1, 31, 24
2, 43349, Note_on_c, 1, 53, 30
2, 44232, Control_c, 1, 64, 127
2, 44302, Note_on_c, 1, 31, 0
2, 44417, Note_on_c, 1, 43, 0
2, 44424, Note_on_c, 1, 53, 0
2, 44461, Note_on_c, 1, 57, 0
2, 44567, Note_on_c, 1, 61, 0
2, 44628, Note_on_c, 1, 64, 0
2, 44734, Control_c, 1, 64, 0
2, 44785, Note_on_c, 1, 57, 38
2, 44789, Note_on_c, 1, 62, 47
2, 44791, Note_on_c, 1, 53, 26
2, 44812, Note_on_c, 1, 43, 31
2, 44818, Note_on_c, 1, 61, 3
2, 44835, Note_on_c, 1, 31, 16
2, 45143, Control_c, 1, 64, 127
2, 45335, Note_on_c, 1, 31, 0
2, 45406, Note_on_c, 1, 57, 0
2, 45540, Note_on_c, 1, 53, 0
2, 45747, Note_on_c, 1, 43, 0
2, 45768, Note_on_c, 1, 61, 0
2, 45774, Note_on_c, 1, 31, 30
2, 45790, Note_on_c, 1, 62, 0
2, 45891, Control_c, 1, 64, 0
2, 46053, Note_on_c, 1, 58, 67
2, 46066, Note_on_c, 1, 53, 54
2, 46076, Note_on_c, 1, 43, 48
2, 46970, Control_c, 1, 64, 127
2, 47168, Note_on_c, 1, 31, 0
2, 47377, Note_on_c, 1, 53, 0
2, 47395, Note_on_c, 1, 43, 0
2, 47827, Note_on_c, 1, 58, 0
2, 47856, Control_c, 1, 64, 0
2, 47973, Note_on_c, 1, 60, 56
2, 47978, Note_on_c, 1, 55, 54
2, 47982, Note_on_c, 1, 45, 57
2, 48001, Note_on_c, 1, 33, 49
2, 48433, Control_c, 1, 64, 127
2, 48988, Note_on_c, 1, 33, 0
2, 49029, Note_on_c, 1, 55, 0
2, 49219, Note_on_c, 1, 45, 0
2, 49374, Note_on_c, 1, 60, 0
2, 49760, Control_c, 1, 64, 0
2, 49985, Note_on_c, 1, 62, 52
2, 49991, Note_on_c, 1, 34, 36
2, 49992, Note_on_c, 1, 46, 27
2, 49994, Note_on_c, 1, 58, 46
2, 50261, Control_c, 1, 64, 127
2, 50736, Note_on_c, 1, 62, 0
2, 50855, Note_on_c, 1, 34, 0
2, 50916, Note_on_c, 1, 46, 0
2, 51141, Note_on_c, 1, 58, 0
2, 51782, Control_c, 1, 64, 0
2, 51928, Note_on_c, 1, 65, 39
2, 51932, Note_on_c, 1, 59, 32
2, 51934, Note_on_c, 1, 56, 30
2, 51949, Note_on_c, 1, 47, 28
2, 51955, Note_on_c, 1, 35, 28
2, 51959, Note_on_c, 1, 62, 34
2, 52128, Control_c, 1, 64, 127
2, 52318, Note_on_c, 1, 35, 0
2, 52644, Note_on_c, 1, 56, 0
2, 52648, Note_on_c, 1, 59, 0
2, 52859, Note_on_c, 1, 47, 0
2, 53212, Note_on_c, 1, 65, 0
2, 53228, Note_on_c, 1, 62, 0
2, 53629, Control_c, 1, 64, 0
2, 53761, Note_on_c, 1, 60, 40
2, 53779, Note_on_c, 1, 53, 24
2, 53800, Note_on_c, 1, 65, 13
2, 53804, Note_on_c, 1, 37, 34
2, 53904, Note_on_c, 1, 65, 0
2, 54034, Control_c, 1, 64, 127
2, 54199, Note_on_c, 1, 53, 0
2, 54380, Note_on_c, 1, 60, 0
2, 54456, Note_on_c, 1, 44, 32
2, 54460, Note_on_c, 1, 37, 0
2, 54804, Note_on_c, 1, 44, 0
2, 55077, Note_on_c, 1, 65, 43
2, 55079, Note_on_c, 1, 72, 38
2, 55080, Note_on_c, 1, 53, 16
2, 55086, Note_on_c, 1, 60, 34
2, 55290, Note_on_c, 1, 60, 0
2, 55438, Note_on_c, 1, 65, 0
2, 55578, Note_on_c, 1, 72, 0
2, 55637, Note_on_c, 1, 53, 0
2, 55658, Note_on_c, 1, 56, 31
2, 56288, Note_on_c, 1, 75, 44
2, 56290, Note_on_c, 1, 68, 31
2, 56319, Note_on_c, 1, 60, 21
2, 56736, Note_on_c, 1, 68, 0
2, 56772, Note_on_c, 1, 75, 0
2, 56862, Note_on_c, 1, 63, 28
2, 56880, Note_on_c, 1, 72, 33
2, 56881, Note_on_c, 1, 68, 10
2, 56916, Note_on_c, 1, 65, 24
2, 57075, Note_on_c, 1, 72, 0
2, 57095, Note_on_c, 1, 60, 0
2, 57098, Note_on_c, 1, 63, 0
2, 57108, Note_on_c, 1, 68, 0
2, 57164, Note_on_c, 1, 65, 0
2, 57479, Note_on_c, 1, 56, 0
2, 57486, Note_on_c, 1, 72, 29
2, 57492, Note_on_c, 1, 65, 27
2, 57498, Control_c, 1, 64, 0
2, 57509, Note_on_c, 1, 60, 22
2, 57563, Note_on_c, 1, 70, 19
2, 57841, Control_c, 1, 64, 127
2, 57982, Note_on_c, 1, 65, 0
2, 58091, Note_on_c, 1, 72, 0
2, 58097, Note_on_c, 1, 70, 0
2, 58129, Note_on_c, 1, 48, 29
2, 58310, Note_on_c, 1, 60, 0
2, 59028, Note_on_c, 1, 96, 59
2, 59036, Note_on_c, 1, 84, 57
2, 59055, Note_on_c, 1, 60, 32
2, 59395, Note_on_c, 1, 84, 0
2, 59464, Note_on_c, 1, 60, 0
2, 59496, Note_on_c, 1, 96, 0
2, 59687, Note_on_c, 1, 96, 41
2, 59692, Note_on_c, 1, 60, 27
2, 59713, Note_on_c, 1, 84, 44
2, 59986, Note_on_c, 1, 96, 0
2, 60032, Note_on_c, 1, 84, 0
2, 60067, Note_on_c, 1, 48, 0
2, 60355, Note_on_c, 1, 48, 46
2, 60839, Note_on_c, 1, 60, 0
2, 61025, Note_on_c, 1, 48, 0
2, 62096, Note_on_c, 1, 57, 41
2, 62100, Note_on_c, 1, 55, 25
2, 62108, Note_on_c, 1, 60, 31
2, 62154, Control_c, 1, 64, 0
2, 62845, Control_c, 1, 64, 127
2, 63198, Note_on_c, 1, 55, 0
2, 63204, Note_on_c, 1, 57, 0
2, 63248, Note_on_c, 1, 60, 0
2, 63271, Control_c, 1, 64, 0
2, 63406, Note_on_c, 1, 57, 33
2, 63413, Note_on_c, 1, 53, 28
2, 63417, Note_on_c, 1, 60, 21
2, 63438, Note_on_c, 1, 62, 39
2, 64085, Note_on_c, 1, 48, 58
2, 64149, Note_on_c, 1, 47, 33
2, 64222, Note_on_c, 1, 47, 0
2, 64606, Note_on_c, 1, 57, 0
2, 64682, Note_on_c, 1, 60, 0
2, 64694, Note_on_c, 1, 62, 0
2, 64721, Note_on_c, 1, 53, 0
2, 65303, Note_on_c, 1, 58, 35
2, 65316, Note_on_c, 1, 65, 35
2, 65324, Note_on_c, 1, 53, 19
2, 65331, Note_on_c, 1, 62, 33
2, 65967, Note_on_c, 1, 36, 31
2, 66061, Control_c, 1, 64, 127
2, 66105, Note_on_c, 1, 53, 0
2, 66168, Note_on_c, 1, 62, 0
2, 66240, Note_on_c, 1, 58, 0
2, 66274, Note_on_c, 1, 65, 0
2, 66453, Note_on_c, 1, 48, 0
2, 66979, Note_on_c, 1, 48, 2
2, 67040, Control_c, 1, 64, 0
2, 67075, Note_on_c, 1, 36, 0
2, 67155, Note_on_c, 1, 48, 0
2, 67163, Note_on_c, 1, 61, 44
2, 67167, Note_on_c, 1, 67, 53
2, 67173, Note_on_c, 1, 58, 45
2, 67188, Note_on_c, 1, 64, 40
2, 67850, Note_on_c, 1, 48, 28
2, 67985, Control_c, 1, 64, 127
2, 68039, Note_on_c, 1, 58, 0
2, 68064, Note_on_c, 1, 64, 0
2, 68079, Note_on_c, 1, 67, 0
2, 68087, Note_on_c, 1, 48, 0
2, 68246, Note_on_c, 1, 61, 0
2, 68987, Control_c, 1, 64, 0
2, 69177, Control_c, 1, 64, 127
2, 69623, Control_c, 1, 64, 0
2, 69734, Note_on_c, 1, 48, 45
2, 69736, Note_on_c, 1, 57, 55
2, 69753, Note_on_c, 1, 69, 59
2, 69759, Note_on_c, 1, 64, 68
2, 69765, Note_on_c, 1, 60, 58
2, 69893, Note_on_c, 1, 57, 0
2, 69941, Note_on_c, 1, 60, 0
2, 69989, Note_on_c, 1, 69, 0
2, 70005, Note_on_c, 1, 48, 0
2, 70026, Note_on_c, 1, 64, 0
2, 70968, Control_c, 1, 64, 127
2, 71546, Control_c, 1, 64, 0
2, 71669, Note_on_c, 1, 62, 45
2, 71681, Note_on_c, 1, 57, 47
2, 71685, Note_on_c, 1, 60, 37
2, 71702, Note_on_c, 1, 48, 47
2, 71988, Control_c, 1, 64, 127
2, 72428, Note_on_c, 1, 57, 0
2, 72480, Note_on_c, 1, 60, 0
2, 72695, Note_on_c, 1, 48, 0
2, 72729, Note_on_c, 1, 46, 13
2, 72756, Control_c, 1, 64, 0
2, 72835, Note_on_c, 1, 62, 0
2, 72915, Note_on_c, 1, 46, 0
2, 72936, Note_on_c, 1, 57, 47
2, 72938, Note_on_c, 1, 62, 9
2, 72942, Note_on_c, 1, 59, 31
2, 72956, Note_on_c, 1, 64, 43
2, 72967, Note_on_c, 1, 47, 30
2, 73221, Control_c, 1, 64, 127
2, 73626, Control_c, 1, 64, 0
2, 73779, Control_c, 1, 64, 127
2, 73835, Note_on_c, 1, 47, 0
2, 73891, Note_on_c, 1, 59, 0
2, 73941, Note_on_c, 1, 62, 0
2, 73944, Note_on_c, 1, 57, 0
2, 74384, Note_on_c, 1, 64, 0
2, 74914, Control_c, 1, 64, 0
2, 74960, Note_on_c, 1, 56, 33
2, 74979, Note_on_c, 1, 67, 33
2, 74983, Note_on_c, 1, 62, 35
2, 75008, Note_on_c, 1, 40, 12
2, 75239, Control_c, 1, 64, 127
2, 75598, Note_on_c, 1, 28, 21
2, 75722, Note_on_c, 1, 28, 0
2, 75912, Note_on_c, 1, 40, 0
2, 75943, Note_on_c, 1, 67, 0
2, 76035, Note_on_c, 1, 62, 0
2, 76245, Note_on_c, 1, 56, 0
2, 76800, Control_c, 1, 64, 0
2, 76836, Note_on_c, 1, 33, 26
2, 77518, Note_on_c, 1, 64, 44
2, 77520, Note_on_c, 1, 56, 36
2, 77535, Note_on_c, 1, 61, 17
2, 77541, Note_on_c, 1, 59, 27
2, 77552, Note_on_c, 1, 45, 27
2, 77589, Note_on_c, 1, 33, 0
2, 77658, Note_on_c, 1, 45, 0
2, 77877, Control_c, 1, 64, 127
2, 78685, Control_c, 1, 64, 0
2, 78725, Note_on_c, 1, 64, 0
2, 78744, Note_on_c, 1, 52, 26
2, 78746, Note_on_c, 1, 56, 0
2, 78821, Note_on_c, 1, 59, 0
2, 79374, Note_on_c, 1, 66, 42
2, 79376, Note_on_c, 1, 57, 50
2, 79386, Note_on_c, 1, 62, 52
2, 79432, Note_on_c, 1, 61, 0
2, 79570, Control_c, 1, 64, 127
2, 80010, Note_on_c, 1, 52, 0
2, 80515, Control_c, 1, 64, 0
2, 80595, Note_on_c, 1, 57, 0
2, 80624, Note_on_c, 1, 52, 32
2, 80626, Note_on_c, 1, 62, 0
2, 80739, Note_on_c, 1, 66, 0
2, 80745, Control_c, 1, 64, 127
2, 81273, Note_on_c, 1, 64, 59
2, 81277, Note_on_c, 1, 68, 49
2, 81279, Note_on_c, 1, 59, 54
2, 81285, Control_c, 1, 64, 0
2, 81313, Note_on_c, 1, 40, 41
2, 81688, Control_c, 1, 64, 127
2, 81974, Note_on_c, 1, 52, 0
2, 82487, Note_on_c, 1, 40, 0
2, 82540, Note_on_c, 1, 59, 0
2, 82550, Note_on_c, 1, 52, 65
2, 82552, Note_on_c, 1, 64, 0
2, 82640, Note_on_c, 1, 68, 0
2, 83132, Control_c, 1, 64, 0
2, 83137, Note_on_c, 1, 52, 0
2, 83222, Note_on_c, 1, 69, 54
2, 83228, Note_on_c, 1, 66, 56
2, 83232, Note_on_c, 1, 62, 72
2, 83239, Note_on_c, 1, 57, 68
2, 83256, Note_on_c, 1, 52, 54
2, 83458, Control_c, 1, 64, 127
2, 83669, Note_on_c, 1, 52, 0
2, 84180, Note_on_c, 1, 52, 72
2, 84739, Note_on_c, 1, 69, 0
2, 84837, Note_on_c, 1, 52, 0
2, 85059, Note_on_c, 1, 57, 0
2, 85153, Note_on_c, 1, 52, 68
2, 85228, Control_c, 1, 64, 0
2, 85326, Note_on_c, 1, 66, 0
2, 85357, Note_on_c, 1, 62, 0
2, 85395, Note_on_c, 1, 52, 0
2, 85501, Note_on_c, 1, 52, 59
2, 85503, Note_on_c, 1, 64, 69
2, 85509, Note_on_c, 1, 68, 59
2, 85512, Note_on_c, 1, 59, 60
2, 85541, Note_on_c, 1, 66, 35
2, 85614, Control_c, 1, 64, 127
2, 86042, Note_on_c, 1, 64, 0
2, 86140, Note_on_c, 1, 59, 0
2, 86144, Note_on_c, 1, 68, 0
2, 86202, Note_on_c, 1, 66, 0
2, 86363, Control_c, 1, 64, 0
2, 86388, Note_on_c, 1, 69, 50
2, 86401, Note_on_c, 1, 63, 60
2, 86405, Note_on_c, 1, 66, 57
2, 86423, Note_on_c, 1, 57, 56
2, 86459, Note_on_c, 1, 59, 29
2, 86542, Note_on_c, 1, 59, 0
2, 86603, Note_on_c, 1, 52, 0
2, 87048, Note_on_c, 1, 52, 63
2, 87212, Control_c, 1, 64, 127
2, 87240, Note_on_c, 1, 52, 0
2, 87828, Note_on_c, 1, 69, 0
2, 87845, Note_on_c, 1, 57, 0
2, 87962, Note_on_c, 1, 52, 45
2, 88174, Control_c, 1, 64, 0
2, 88176, Note_on_c, 1, 63, 0
2, 88181, Note_on_c, 1, 52, 0
2, 88199, Note_on_c, 1, 66, 0
2, 88348, Note_on_c, 1, 70, 45
2, 88364, Note_on_c, 1, 62, 51
2, 88368, Note_on_c, 1, 58, 42
2, 88383, Note_on_c, 1, 52, 35
2, 88385, Note_on_c, 1, 65, 44
2, 88481, Control_c, 1, 64, 127
2, 88675, Note_on_c, 1, 52, 0
2, 88976, Note_on_c, 1, 58, 0
2, 88988, Note_on_c, 1, 52, 31
2, 88995, Note_on_c, 1, 62, 0
2, 89053, Note_on_c, 1, 65, 0
2, 89160, Note_on_c, 1, 52, 0
2, 89182, Note_on_c, 1, 70, 0
2, 89808, Control_c, 1, 64, 0
2, 89840, Note_on_c, 1, 48, 17
2, 89850, Note_on_c, 1, 58, 34
2, 89854, Note_on_c, 1, 72, 29
2, 89869, Note_on_c, 1, 65, 42
2, 89875, Note_on_c, 1, 62, 42
2, 89894, Note_on_c, 1, 70, 14
2, 90117, Control_c, 1, 64, 127
2, 90124, Note_on_c, 1, 58, 0
2, 90161, Note_on_c, 1, 72, 0
2, 90167, Note_on_c, 1, 48, 0
2, 90245, Note_on_c, 1, 70, 0
2, 90249, Note_on_c, 1, 65, 0
2, 90339, Note_on_c, 1, 62, 0
2, 90714, Control_c, 1, 64, 0
2, 90806, Note_on_c, 1, 61, 32
2, 90837, Note_on_c, 1, 58, 32
2, 90839, Note_on_c, 1, 69, 24
2, 90846, Note_on_c, 1, 42, 29
2, 90856, Note_on_c, 1, 64, 39
2, 90879, Note_on_c, 1, 52, 23
2, 91040, Control_c, 1, 64, 127
2, 91280, Note_on_c, 1, 69, 0
2, 91455, Note_on_c, 1, 64, 0
2, 91461, Note_on_c, 1, 58, 0
2, 91643, Note_on_c, 1, 52, 0
2, 91833, Note_on_c, 1, 61, 0
2, 91904, Note_on_c, 1, 42, 0
2, 92060, Control_c, 1, 64, 0
2, 92110, Note_on_c, 1, 57, 33
2, 92125, Note_on_c, 1, 65, 33
2, 92133, Note_on_c, 1, 60, 23
2, 92135, Note_on_c, 1, 62, 22
2, 92759, Note_on_c, 1, 47, 27
2, 93070, Note_on_c, 1, 47, 0
2, 93091, Note_on_c, 1, 48, 29
2, 93135, Note_on_c, 1, 62, 0
2, 93171, Note_on_c, 1, 60, 0
2, 93273, Control_c, 1, 64, 127
2, 93292, Note_on_c, 1, 65, 0
2, 93423, Note_on_c, 1, 57, 0
2, 93870, Control_c, 1, 64, 0
2, 94024, Note_on_c, 1, 53, 12
2, 94033, Note_on_c, 1, 57, 18
2, 94037, Note_on_c, 1, 62, 25
2, 94053, Note_on_c, 1, 60, 21
2, 94112, Note_on_c, 1, 48, 0
2, 94690, Note_on_c, 1, 50, 34
2, 95395, Note_on_c, 1, 57, 0
2, 95623, Note_on_c, 1, 53, 0
2, 95627, Note_on_c, 1, 42, 20
2, 95727, Note_on_c, 1, 50, 0
2, 95761, Note_on_c, 1, 60, 0
2, 95844, Note_on_c, 1, 62, 0
2, 95871, Note_on_c, 1, 42, 0
2, 95921, Note_on_c, 1, 58, 24
2, 95950, Note_on_c, 1, 53, 9
2, 95973, Note_on_c, 1, 43, 19
2, 96305, Note_on_c, 1, 53, 0
2, 96407, Note_on_c, 1, 58, 0
2, 96779, Note_on_c, 1, 43, 0
2, 96852, Control_c, 1, 64, 127
2, 96854, Note_on_c, 1, 36, 28
2, 97011, Note_on_c, 1, 36, 0
2, 97488, Control_c, 1, 64, 0
2, 97820, Note_on_c, 1, 52, 15
2, 97824, Note_on_c, 1, 58, 33
2, 97841, Note_on_c, 1, 61, 27
2, 97858, Note_on_c, 1, 64, 34
2, 97862, Note_on_c, 1, 69, 16
2, 97873, Control_c, 1, 64, 127
2, 98035, Note_on_c, 1, 52, 0
2, 98071, Note_on_c, 1, 58, 0
2, 98136, Note_on_c, 1, 61, 0
2, 98138, Note_on_c, 1, 64, 0
2, 98173, Note_on_c, 1, 69, 0
2, 98699, Control_c, 1, 64, 0
2, 98820, Note_on_c, 1, 58, 69
2, 98828, Note_on_c, 1, 73, 56
2, 98835, Note_on_c, 1, 68, 68
2, 98843, Note_on_c, 1, 64, 76
2, 99047, Control_c, 1, 64, 127
2, 99528, Control_c, 1, 64, 0
2, 99584, Note_on_c, 1, 64, 0
2, 99601, Note_on_c, 1, 73, 0
2, 99634, Note_on_c, 1, 58, 0
2, 99636, Note_on_c, 1, 68, 0
2, 99749, Note_on_c, 1, 72, 51
2, 99776, Note_on_c, 1, 67, 58
2, 99784, Note_on_c, 1, 57, 57
2, 99788, Note_on_c, 1, 62, 53
2, 99912, Control_c, 1, 64, 127
2, 100053, Note_on_c, 1, 72, 0
2, 100099, Note_on_c, 1, 67, 0
2, 100379, Note_on_c, 1, 62, 0
2, 100490, Control_c, 1, 64, 0
2, 100679, Note_on_c, 1, 57, 0
2, 100692, Note_on_c, 1, 69, 40
2, 100694, Note_on_c, 1, 64, 58
2, 100711, Note_on_c, 1, 60, 43
2, 100713, Note_on_c, 1, 53, 33
2, 100742, Control_c, 1, 64, 127
2, 100945, Note_on_c, 1, 69, 0
2, 100949, Note_on_c, 1, 53, 0
2, 100982, Note_on_c, 1, 64, 0
2, 101070, Note_on_c, 1, 60, 0
2, 101510, Control_c, 1, 64, 0
2, 101671, Note_on_c, 1, 66, 22
2, 101698, Note_on_c, 1, 55, 46
2, 101702, Note_on_c, 1, 57, 55
2, 101706, Note_on_c, 1, 67, 55
2, 101708, Note_on_c, 1, 64, 33
2, 101710, Note_on_c, 1, 60, 49
2, 102130, Note_on_c, 1, 66, 0
2, 102159, Note_on_c, 1, 64, 0
2, 102203, Note_on_c, 1, 67, 0
2, 102257, Note_on_c, 1, 57, 0
2, 102295, Note_on_c, 1, 60, 0
2, 102391, Note_on_c, 1, 55, 0
2, 102401, Note_on_c, 1, 65, 46
2, 102405, Note_on_c, 1, 57, 42
2, 102408, Note_on_c, 1, 60, 36
2, 102430, Note_on_c, 1, 53, 29
2, 102545, Note_on_c, 1, 57, 0
2, 102547, Note_on_c, 1, 53, 0
2, 102568, Note_on_c, 1, 65, 0
2, 102587, Note_on_c, 1, 60, 0
2, 103357, Note_on_c, 1, 43, 17
2, 103359, Note_on_c, 1, 53, 22
2, 103361, Note_on_c, 1, 60, 23
2, 103361, Note_on_c, 1, 58, 31
2, 103380, Note_on_c, 1, 50, 17
2, 103474, Control_c, 1, 64, 127
2, 103718, Note_on_c, 1, 53, 0
2, 103797, Note_on_c, 1, 60, 0
2, 103816, Note_on_c, 1, 58, 0
2, 104165, Note_on_c, 1, 43, 0
2, 104194, Note_on_c, 1, 72, 39
2, 104213, Note_on_c, 1, 50, 0
2, 104436, Note_on_c, 1, 72, 0
2, 104874, Note_on_c, 1, 72, 51
2, 105271, Note_on_c, 1, 72, 0
2, 105532, Control_c, 1, 64, 0
2, 105552, Note_on_c, 1, 64, 44
2, 105555, Note_on_c, 1, 72, 33
2, 105555, Note_on_c, 1, 68, 30
2, 105601, Note_on_c, 1, 58, 34
2, 105859, Control_c, 1, 64, 127
2, 106133, Note_on_c, 1, 72, 0
2, 106331, Note_on_c, 1, 72, 34
2, 106613, Note_on_c, 1, 72, 0
2, 106742, Note_on_c, 1, 64, 0
2, 106897, Note_on_c, 1, 68, 0
2, 106978, Note_on_c, 1, 58, 0
2, 107024, Note_on_c, 1, 72, 44
2, 107383, Note_on_c, 1, 72, 0
2, 107631, Control_c, 1, 64, 0
2, 107639, Note_on_c, 1, 72, 42
2, 107662, Note_on_c, 1, 63, 31
2, 107681, Note_on_c, 1, 67, 39
2, 107688, Note_on_c, 1, 70, 31
2, 107690, Note_on_c, 1, 60, 27
2, 107976, Control_c, 1, 64, 127
2, 108109, Note_on_c, 1, 72, 0
2, 108282, Note_on_c, 1, 70, 0
2, 108326, Note_on_c, 1, 63, 0
2, 108380, Note_on_c, 1, 72, 48
2, 108612, Note_on_c, 1, 60, 0
2, 108666, Note_on_c, 1, 72, 0
2, 108689, Note_on_c, 1, 67, 0
2, 109044, Note_on_c, 1, 72, 52
2, 109436, Note_on_c, 1, 72, 0
2, 109555, Control_c, 1, 64, 0
2, 109605, Note_on_c, 1, 72, 33
2, 109637, Note_on_c, 1, 66, 50
2, 109645, Note_on_c, 1, 51, 33
2, 109660, Note_on_c, 1, 62, 51
2, 109662, Note_on_c, 1, 57, 35
2, 109864, Control_c, 1, 64, 127
2, 110121, Note_on_c, 1, 72, 0
2, 110313, Note_on_c, 1, 72, 47
2, 110593, Note_on_c, 1, 62, 0
2, 110609, Note_on_c, 1, 72, 0
2, 110780, Note_on_c, 1, 57, 0
2, 110818, Note_on_c, 1, 66, 0
2, 110916, Note_on_c, 1, 72, 54
2, 111231, Note_on_c, 1, 51, 0
2, 111273, Note_on_c, 1, 72, 0
2, 111477, Control_c, 1, 64, 0
2, 111505, Note_on_c, 1, 72, 42
2, 111507, Note_on_c, 1, 50, 45
2, 111515, Note_on_c, 1, 69, 43
2, 111519, Note_on_c, 1, 57, 49
2, 111521, Note_on_c, 1, 65, 50
2, 111536, Note_on_c, 1, 62, 49
2, 111824, Control_c, 1, 64, 127
2, 111918, Note_on_c, 1, 69, 0
2, 112089, Note_on_c, 1, 62, 0
2, 112103, Note_on_c, 1, 65, 0
2, 112191, Note_on_c, 1, 69, 43
2, 112197, Note_on_c, 1, 72, 0
2, 112316, Note_on_c, 1, 57, 0
2, 112500, Note_on_c, 1, 50, 0
2, 112949, Note_on_c, 1, 69, 0
2, 112980, Control_c, 1, 64, 0
2, 112984, Note_on_c, 1, 61, 38
2, 112995, Note_on_c, 1, 65, 45
2, 113034, Note_on_c, 1, 51, 19
2, 113041, Note_on_c, 1, 55, 26
2, 113326, Control_c, 1, 64, 127
2, 113531, Note_on_c, 1, 55, 0
2, 113667, Note_on_c, 1, 51, 0
2, 114309, Control_c, 1, 64, 0
2, 114316, Note_on_c, 1, 39, 49
2, 114577, Control_c, 1, 64, 127
2, 114706, Note_on_c, 1, 39, 0
2, 114750, Note_on_c, 1, 65, 0
2, 114806, Note_on_c, 1, 61, 0
2, 115693, Control_c, 1, 64, 0
2, 115814, Note_on_c, 1, 74, 47
2, 115831, Note_on_c, 1, 67, 40
2, 115833, Note_on_c, 1, 45, 35
2, 115835, Note_on_c, 1, 60, 40
2, 115852, Note_on_c, 1, 55, 32
2, 115864, Note_on_c, 1, 52, 23
2, 116035, Note_on_c, 1, 55, 0
2, 116052, Note_on_c, 1, 45, 0
2, 116075, Note_on_c, 1, 60, 0
2, 116077, Note_on_c, 1, 52, 0
2, 116131, Note_on_c, 1, 67, 0
2, 116177, Note_on_c, 1, 74, 0
2, 116559, Control_c, 1, 64, 127
2, 116632, Note_on_c, 1, 74, 43
2, 116647, Note_on_c, 1, 67, 47
2, 116674, Note_on_c, 1, 45, 29
2, 116680, Note_on_c, 1, 52, 18
2, 116682, Note_on_c, 1, 55, 24
2, 116684, Note_on_c, 1, 60, 30
2, 116835, Note_on_c, 1, 45, 0
2, 116881, Note_on_c, 1, 55, 0
2, 116885, Note_on_c, 1, 74, 0
2, 116887, Note_on_c, 1, 67, 0
2, 116993, Note_on_c, 1, 60, 0
2, 117020, Note_on_c, 1, 52, 0
2, 117098, Control_c, 1, 64, 0
2, 117206, Note_on_c, 1, 72, 37
2, 117227, Note_on_c, 1, 57, 37
2, 117229, Note_on_c, 1, 60, 29
2, 117235, Note_on_c, 1, 50, 21
2, 117235, Note_on_c, 1, 65, 49
2, 117465, Control_c, 1, 64, 127
2, 117960, Note_on_c, 1, 57, 0
2, 118074, Note_on_c, 1, 48, 30
2, 118110, Note_on_c, 1, 72, 0
2, 118120, Note_on_c, 1, 65, 0
2, 118156, Control_c, 1, 64, 0
2, 118158, Note_on_c, 1, 60, 0
2, 118239, Note_on_c, 1, 50, 0
2, 118444, Control_c, 1, 64, 127
2, 118677, Control_c, 1, 64, 0
2, 118836, Note_on_c, 1, 48, 0
2, 118976, Note_on_c, 1, 47, 31
2, 119001, Note_on_c, 1, 57, 30
2, 119003, Note_on_c, 1, 65, 38
2, 119005, Note_on_c, 1, 62, 35
2, 119066, Control_c, 1, 64, 127
2, 119771, Note_on_c, 1, 57, 0
2, 119834, Note_on_c, 1, 47, 0
2, 119907, Note_on_c, 1, 62, 0
2, 119944, Note_on_c, 1, 65, 0
2, 120856, Control_c, 1, 64, 0
2, 120992, Note_on_c, 1, 46, 52
2, 120994, Note_on_c, 1, 61, 76
2, 120998, Note_on_c, 1, 65, 72
2, 121002, Note_on_c, 1, 56, 65
2, 121004, Note_on_c, 1, 72, 69
2, 121453, Control_c, 1, 64, 127
2, 121491, Control_c, 1, 64, 0
2, 121520, Note_on_c, 1, 72, 0
2, 121528, Note_on_c, 1, 56, 0
2, 121547, Note_on_c, 1, 46, 0
2, 121553, Note_on_c, 1, 61, 0
2, 121655, Note_on_c, 1, 61, 21
2, 121660, Note_on_c, 1, 46, 38
2, 121666, Note_on_c, 1, 56, 34
2, 121668, Note_on_c, 1, 70, 48
2, 121847, Note_on_c, 1, 56, 0
2, 121862, Note_on_c, 1, 65, 0
2, 121877, Note_on_c, 1, 61, 0
2, 121956, Note_on_c, 1, 70, 0
2, 121971, Note_on_c, 1, 46, 0
2, 122580, Note_on_c, 1, 64, 37
2, 122597, Note_on_c, 1, 60, 15
2, 122603, Note_on_c, 1, 45, 29
2, 122609, Note_on_c, 1, 55, 26
2, 122645, Control_c, 1, 64, 127
2, 123096, Note_on_c, 1, 64, 0
2, 123162, Note_on_c, 1, 55, 0
2, 123275, Note_on_c, 1, 60, 0
2, 123705, Control_c, 1, 64, 0
2, 123768, Note_on_c, 1, 45, 0
2, 123868, Note_on_c, 1, 57, 40
2, 123874, Note_on_c, 1, 65, 42
2, 123884, Note_on_c, 1, 60, 32
2, 123891, Note_on_c, 1, 50, 36
2, 124801, Note_on_c, 1, 60, 0
2, 124838, Control_c, 1, 64, 127
2, 124961, Note_on_c, 1, 65, 0
2, 125080, Note_on_c, 1, 57, 0
2, 125569, Control_c, 1, 64, 0
2, 125646, Note_on_c, 1, 50, 0
2, 125729, Note_on_c, 1, 60, 29
2, 125740, Note_on_c, 1, 45, 20
2, 125765, Note_on_c, 1, 53, 5
2, 125888, Note_on_c, 1, 45, 0
2, 125925, Note_on_c, 1, 53, 0
2, 126042, Note_on_c, 1, 60, 0
2, 126725, Control_c, 1, 64, 127
2, 126727, Note_on_c, 1, 43, 20
2, 126731, Note_on_c, 1, 53, 21
2, 126743, Note_on_c, 1, 58, 31
2, 126746, Note_on_c, 1, 60, 22
2, 127184, Note_on_c, 1, 43, 0
2, 127440, Note_on_c, 1, 53, 0
2, 127468, Note_on_c, 1, 60, 0
2, 127599, Note_on_c, 1, 58, 0
2, 128497, Control_c, 1, 64, 0
2, 128661, Note_on_c, 1, 64, 28
2, 128676, Note_on_c, 1, 61, 17
2, 128678, Note_on_c, 1, 56, 32
2, 128680, Note_on_c, 1, 36, 18
2, 128695, Note_on_c, 1, 52, 15
2, 128697, Note_on_c, 1, 24, 16
2, 128918, Control_c, 1, 64, 127
2, 129319, Note_on_c, 1, 52, 0
2, 129461, Note_on_c, 1, 56, 0
2, 129540, Note_on_c, 1, 24, 0
2, 129569, Note_on_c, 1, 61, 0
2, 129575, Note_on_c, 1, 64, 0
2, 129751, Note_on_c, 1, 36, 0
2, 130285, Control_c, 1, 64, 0
2, 130327, Note_on_c, 1, 65, 51
2, 130331, Note_on_c, 1, 60, 47
2, 130337, Note_on_c, 1, 55, 40
2, 130410, Note_on_c, 1, 55, 0
2, 130462, Note_on_c, 1, 60, 0
2, 130481, Note_on_c, 1, 65, 0
2, 131176, Note_on_c, 1, 48, 67
2, 131189, Note_on_c, 1, 41, 59
2, 131349, Note_on_c, 1, 48, 0
2, 131412, Note_on_c, 1, 41, 0
2, 132514, Note_on_c, 1, 39, 47
2, 132516, Note_on_c, 1, 46, 40
2, 132556, Control_c, 1, 64, 127
2, 133261, Note_on_c, 1, 46, 0
2, 133324, Note_on_c, 1, 39, 0
2, 134019, Control_c, 1, 64, 0
2, 134046, Note_on_c, 1, 44, 43
2, 134060, Note_on_c, 1, 37, 41
2, 134941, Note_on_c, 1, 65, 48
2, 134966, Note_on_c, 1, 72, 34
2, 135235, Note_on_c, 1, 72, 0
2, 135352, Note_on_c, 1, 68, 28
2, 135388, Note_on_c, 1, 60, 30
2, 136191, Note_on_c, 1, 65, 0
2, 136218, Note_on_c, 1, 68, 0
2, 136272, Control_c, 1, 64, 127
2, 136341, Note_on_c, 1, 60, 0
2, 136473, Note_on_c, 1, 37, 0
2, 136725, Note_on_c, 1, 44, 0
2, 136890, Note_on_c, 1, 37, 22
2, 137041, Control_c, 1, 64, 0
2, 137201, Note_on_c, 1, 44, 16
2, 137216, Note_on_c, 1, 56, 29
2, 137222, Note_on_c, 1, 53, 21
2, 137235, Note_on_c, 1, 60, 24
2, 137406, Control_c, 1, 64, 127
2, 137464, Note_on_c, 1, 53, 0
2, 137594, Note_on_c, 1, 37, 0
2, 137698, Note_on_c, 1, 56, 0
2, 137710, Note_on_c, 1, 60, 0
2, 137809, Control_c, 1, 64, 0
2, 137921, Note_on_c, 1, 44, 0
2, 137927, Note_on_c, 1, 55, 30
2, 137936, Note_on_c, 1, 57, 45
2, 137938, Note_on_c, 1, 48, 29
2, 137940, Note_on_c, 1, 60, 27
2, 137963, Note_on_c, 1, 41, 24
2, 138071, Note_on_c, 1, 55, 0
2, 138124, Note_on_c, 1, 57, 0
2, 138145, Note_on_c, 1, 48, 0
2, 138147, Note_on_c, 1, 41, 0
2, 138172, Note_on_c, 1, 60, 0
2, 139138, Control_c, 1, 64, 127
2, 139582, Control_c, 1, 64, 0
2, 139795, Note_on_c, 1, 41, 45
2, 139799, Note_on_c, 1, 48, 37
2, 140040, Note_on_c, 1, 41, 0
2, 140065, Note_on_c, 1, 48, 0
2, 140296, Note_on_c, 1, 39, 47
2, 140300, Note_on_c, 1, 46, 38
2, 140505, Control_c, 1, 64, 127
2, 140778, Note_on_c, 1, 39, 0
2, 140805, Note_on_c, 1, 46, 0
2, 140891, Control_c, 1, 64, 0
2, 140939, Note_on_c, 1, 39, 36
2, 140949, Note_on_c, 1, 46, 29
2, 141143, Note_on_c, 1, 46, 0
2, 141196, Note_on_c, 1, 39, 0
2, 141774, Note_on_c, 1, 56, 29
2, 141776, Note_on_c, 1, 60, 24
2, 141778, Note_on_c, 1, 37, 25
2, 141782, Note_on_c, 1, 53, 18
2, 141790, Note_on_c, 1, 44, 25
2, 141876, Control_c, 1, 64, 127
2, 141955, Note_on_c, 1, 53, 0
2, 142018, Note_on_c, 1, 56, 0
2, 142049, Note_on_c, 1, 60, 0
2, 142713, Note_on_c, 1, 72, 28
2, 142732, Note_on_c, 1, 60, 31
2, 142834, Note_on_c, 1, 60, 0
2, 142995, Note_on_c, 1, 72, 0
2, 143650, Note_on_c, 1, 84, 47
2, 143685, Note_on_c, 1, 72, 17
2, 143786, Note_on_c, 1, 72, 0
2, 143861, Note_on_c, 1, 84, 0
2, 144560, Note_on_c, 1, 89, 50
2, 144574, Note_on_c, 1, 77, 41
2, 144729, Note_on_c, 1, 89, 0
2, 144796, Note_on_c, 1, 77, 0
2, 145342, Note_on_c, 1, 37, 0
2, 145618, Note_on_c, 1, 44, 0
2, 146380, Control_c, 1, 64, 0
2, 146544, Note_on_c, 1, 55, 34
2, 146547, Note_on_c, 1, 57, 37
2, 146553, Note_on_c, 1, 60, 25
2, 146565, Note_on_c, 1, 48, 33
2, 146570, Note_on_c, 1, 41, 34
2, 146666, Note_on_c, 1, 57, 0
2, 146672, Note_on_c, 1, 55, 0
2, 146682, Note_on_c, 1, 48, 0
2, 146743, Note_on_c, 1, 41, 0
2, 146755, Note_on_c, 1, 60, 0
2, 147880, Note_on_c, 1, 60, 21
2, 147884, Note_on_c, 1, 58, 32
2, 147891, Note_on_c, 1, 46, 18
2, 147895, Note_on_c, 1, 53, 11
2, 147897, Note_on_c, 1, 39, 23
2, 147918, Control_c, 1, 64, 127
2, 148675, Note_on_c, 1, 60, 0
2, 148694, Note_on_c, 1, 46, 0
2, 148711, Note_on_c, 1, 53, 0
2, 148763, Note_on_c, 1, 39, 0
2, 148775, Note_on_c, 1, 58, 0
2, 149400, Control_c, 1, 64, 0
2, 149468, Note_on_c, 1, 44, 29
2, 149475, Note_on_c, 1, 55, 22
2, 149479, Note_on_c, 1, 37, 27
2, 149508, Note_on_c, 1, 60, 11
2, 149880, Control_c, 1, 64, 127
2, 149990, Note_on_c, 1, 55, 0
2, 150017, Note_on_c, 1, 60, 0
2, 150412, Note_on_c, 1, 72, 38
2, 150892, Note_on_c, 1, 72, 0
2, 150998, Note_on_c, 1, 65, 41
2, 151019, Note_on_c, 1, 60, 22
2, 151249, Note_on_c, 1, 65, 0
2, 151322, Note_on_c, 1, 60, 0
2, 151678, Note_on_c, 1, 65, 45
2, 151704, Note_on_c, 1, 60, 24
2, 151968, Note_on_c, 1, 60, 0
2, 152231, Note_on_c, 1, 65, 0
2, 152355, Note_on_c, 1, 72, 33
2, 152576, Note_on_c, 1, 37, 0
2, 152749, Note_on_c, 1, 72, 0
2, 152751, Note_on_c, 1, 44, 0
2, 152941, Note_on_c, 1, 37, 22
2, 152949, Note_on_c, 1, 65, 38
2, 153004, Note_on_c, 1, 44, 4
2, 153070, Note_on_c, 1, 65, 0
2, 153192, Control_c, 1, 64, 0
2, 153223, Note_on_c, 1, 37, 0
2, 153279, Note_on_c, 1, 44, 0
2, 154156, Note_on_c, 1, 55, 45
2, 154164, Note_on_c, 1, 60, 42
2, 154172, Note_on_c, 1, 48, 33
2, 154193, Note_on_c, 1, 41, 27
2, 154262, Note_on_c, 1, 55, 0
2, 154321, Note_on_c, 1, 60, 0
2, 154350, Note_on_c, 1, 41, 0
2, 154369, Note_on_c, 1, 48, 0
2, 155468, Note_on_c, 1, 61, 16
2, 155475, Note_on_c, 1, 55, 25
2, 155481, Note_on_c, 1, 65, 33
2, 155493, Note_on_c, 1, 39, 22
2, 155502, Control_c, 1, 64, 127
2, 155504, Note_on_c, 1, 60, 26
2, 155510, Note_on_c, 1, 46, 14
2, 155998, Note_on_c, 1, 55, 0
2, 156138, Note_on_c, 1, 60, 0
2, 156170, Note_on_c, 1, 61, 0
2, 156188, Note_on_c, 1, 65, 0
2, 156190, Note_on_c, 1, 46, 0
2, 156282, Note_on_c, 1, 39, 0
2, 156908, Control_c, 1, 64, 0
2, 157098, Note_on_c, 1, 72, 34
2, 157125, Note_on_c, 1, 60, 20
2, 157130, Note_on_c, 1, 65, 42
2, 157132, Note_on_c, 1, 68, 27
2, 157152, Note_on_c, 1, 44, 21
2, 157175, Note_on_c, 1, 37, 20
2, 157272, Control_c, 1, 64, 127
2, 157430, Note_on_c, 1, 60, 0
2, 157441, Note_on_c, 1, 65, 0
2, 157568, Note_on_c, 1, 68, 0
2, 157620, Note_on_c, 1, 72, 0
2, 158847, Note_on_c, 1, 44, 0
2, 158954, Note_on_c, 1, 37, 0
2, 160621, Control_c, 1, 64, 0
2, 160621, End_track
3, 0, Start_track
3, 0, Title_t, "Piano"
3, 0, Control_c, 0, 0, 121
3, 0, Control_c, 0, 32, 0
3, 0, Program_c, 0, 0
3, 0, Control_c, 0, 7, 100
3, 0, Note_on_c, 0, 61, 25
3, 0, Note_on_c, 0, 61, 0
3, 0, Note_on_c, 0, 63, 40
3, 0, Note_on_c, 0, 63, 0
3, 0, Note_on_c, 0, 64, 59
3, 7, Note_on_c, 0, 77, 85
3, 19, Note_on_c, 0, 65, 85
3, 122, Note_on_c, 0, 64, 0
3, 696, Note_on_c, 0, 77, 0
3, 766, Note_on_c, 0, 65, 0
3, 816, Note_on_c, 0, 64, 48
3, 819, Note_on_c, 0, 76, 24
3, 969, Note_on_c, 0, 76, 0
3, 1032, Note_on_c, 0, 64, 0
3, 1056, Note_on_c, 0, 77, 77
3, 1059, Note_on_c, 0, 65, 72
3, 2812, Note_on_c, 0, 77, 0
3, 2864, Note_on_c, 0, 65, 0
3, 2931, Note_on_c, 0, 60, 48
3, 2937, Note_on_c, 0, 72, 70
3, 3233, Note_on_c, 0, 72, 0
3, 3308, Note_on_c, 0, 74, 47
3, 3361, Note_on_c, 0, 62, 46
3, 3440, Note_on_c, 0, 60, 0
3, 3469, Note_on_c, 0, 72, 45
3, 3527, Note_on_c, 0, 74, 0
3, 3648, Note_on_c, 0, 71, 55
3, 3651, Note_on_c, 0, 62, 0
3, 3680, Note_on_c, 0, 72, 0
3, 3697, Note_on_c, 0, 59, 33
3, 3816, Note_on_c, 0, 71, 0
3, 3903, Note_on_c, 0, 72, 72
3, 3911, Note_on_c, 0, 60, 71
3, 3924, Note_on_c, 0, 59, 0
3, 4523, Note_on_c, 0, 72, 0
3, 4561, Note_on_c, 0, 60, 0
3, 4634, Note_on_c, 0, 72, 65
3, 4656, Note_on_c, 0, 60, 64
3, 5727, Control_c, 0, 64, 127
3, 6360, Note_on_c, 0, 60, 0
3, 6733, Note_on_c, 0, 72, 0
3, 8305, Control_c, 0, 64, 0
3, 9331, Note_on_c, 0, 70, 80
3, 9340, Note_on_c, 0, 80, 90
3, 9346, Note_on_c, 0, 86, 89
3, 9350, Note_on_c, 0, 76, 88
3, 9592, Note_on_c, 0, 86, 0
3, 9630, Note_on_c, 0, 76, 0
3, 9648, Note_on_c, 0, 70, 0
3, 9655, Note_on_c, 0, 80, 0
3, 9761, Note_on_c, 0, 69, 64
3, 9792, Note_on_c, 0, 84, 68
3, 9803, Note_on_c, 0, 79, 70
3, 9807, Note_on_c, 0, 74, 66
3, 9976, Note_on_c, 0, 84, 0
3, 9999, Note_on_c, 0, 79, 0
3, 10049, Note_on_c, 0, 74, 0
3, 10070, Note_on_c, 0, 69, 0
3, 10650, Note_on_c, 0, 65, 66
3, 10654, Note_on_c, 0, 81, 64
3, 10657, Note_on_c, 0, 77, 64
3, 10659, Note_on_c, 0, 72, 66
3, 10807, Note_on_c, 0, 65, 0
3, 10811, Note_on_c, 0, 77, 0
3, 10823, Note_on_c, 0, 81, 0
3, 10834, Note_on_c, 0, 72, 0
3, 11533, Note_on_c, 0, 72, 55
3, 11537, Note_on_c, 0, 65, 57
3, 11544, Note_on_c, 0, 70, 51
3, 11546, Note_on_c, 0, 60, 48
3, 12773, Note_on_c, 0, 65, 0
3, 12827, Note_on_c, 0, 72, 0
3, 12885, Note_on_c, 0, 70, 0
3, 13415, Note_on_c, 0, 64, 57
3, 13420, Note_on_c, 0, 70, 52
3, 13422, Note_on_c, 0, 72, 50
3, 14348, Control_c, 0, 64, 127
3, 14405, Control_c, 0, 64, 0
3, 14522, Control_c, 0, 64, 127
3, 14657, Note_on_c, 0, 72, 0
3, 14720, Note_on_c, 0, 70, 0
3, 14870, Control_c, 0, 64, 0
3, 14878, Note_on_c, 0, 64, 0
3, 15315, Note_on_c, 0, 60, 0
3, 15396, Note_on_c, 0, 70, 47
3, 15411, Note_on_c, 0, 62, 49
3, 15415, Note_on_c, 0, 65, 48
3, 15469, Note_on_c, 0, 53, 34
3, 16408, Control_c, 0, 64, 127
3, 16750, Note_on_c, 0, 62, 0
3, 16965, Note_on_c, 0, 65, 0
3, 17074, Note_on_c, 0, 53, 0
3, 17212, Note_on_c, 0, 70, 0
3, 17679, Control_c, 0, 64, 0
3, 18046, Note_on_c, 0, 58, 71
3, 18076, Note_on_c, 0, 82, 79
3, 18393, Note_on_c, 0, 58, 0
3, 18437, Note_on_c, 0, 82, 0
3, 18493, Note_on_c, 0, 56, 51
3, 18541, Note_on_c, 0, 80, 42
3, 18948, Note_on_c, 0, 80, 0
3, 18965, Note_on_c, 0, 56, 0
3, 19015, Note_on_c, 0, 57, 65
3, 19027, Note_on_c, 0, 81, 68
3, 19319, Note_on_c, 0, 81, 0
3, 19330, Note_on_c, 0, 57, 0
3, 19451, Note_on_c, 0, 53, 32
3, 19489, Note_on_c, 0, 77, 38
3, 19864, Note_on_c, 0, 53, 0
3, 19918, Note_on_c, 0, 77, 0
3, 19968, Note_on_c, 0, 72, 52
3, 19994, Note_on_c, 0, 48, 27
3, 20158, Note_on_c, 0, 72, 0
3, 20184, Note_on_c, 0, 48, 0
3, 21127, Note_on_c, 0, 72, 39
3, 21164, Note_on_c, 0, 48, 33
3, 21373, Control_c, 0, 64, 127
3, 21807, Note_on_c, 0, 48, 0
3, 22498, Note_on_c, 0, 72, 0
3, 22951, Control_c, 0, 64, 0
3, 23802, Note_on_c, 0, 58, 38
3, 23811, Note_on_c, 0, 62, 41
3, 23932, Note_on_c, 0, 62, 0
3, 23961, Note_on_c, 0, 58, 0
3, 24136, Note_on_c, 0, 67, 43
3, 24238, Note_on_c, 0, 67, 0
3, 24660, Note_on_c, 0, 69, 68
3, 24823, Note_on_c, 0, 69, 0
3, 25008, Note_on_c, 0, 70, 61
3, 25132, Note_on_c, 0, 70, 0
3, 25547, Note_on_c, 0, 74, 71
3, 25610, Note_on_c, 0, 62, 55
3, 25647, Note_on_c, 0, 52, 31
3, 25653, Note_on_c, 0, 58, 31
3, 25676, Note_on_c, 0, 62, 0
3, 25685, Note_on_c, 0, 74, 0
3, 25720, Note_on_c, 0, 52, 0
3, 25737, Note_on_c, 0, 58, 0
3, 25893, Note_on_c, 0, 77, 69
3, 26023, Note_on_c, 0, 77, 0
3, 26503, Note_on_c, 0, 81, 87
3, 26657, Note_on_c, 0, 81, 0
3, 26858, Note_on_c, 0, 82, 73
3, 27022, Note_on_c, 0, 82, 0
3, 27427, Note_on_c, 0, 61, 48
3, 27432, Note_on_c, 0, 84, 89
3, 27440, Note_on_c, 0, 65, 64
3, 27471, Note_on_c, 0, 55, 37
3, 27527, Note_on_c, 0, 65, 0
3, 27565, Note_on_c, 0, 55, 0
3, 27613, Note_on_c, 0, 84, 0
3, 27696, Note_on_c, 0, 61, 0
3, 27874, Note_on_c, 0, 82, 59
3, 28060, Note_on_c, 0, 82, 0
3, 28383, Note_on_c, 0, 73, 71
3, 28385, Note_on_c, 0, 84, 78
3, 28404, Note_on_c, 0, 61, 59
3, 28431, Note_on_c, 0, 64, 69
3, 28442, Note_on_c, 0, 55, 56
3, 28732, Note_on_c, 0, 73, 0
3, 28750, Note_on_c, 0, 84, 0
3, 28826, Note_on_c, 0, 72, 48
3, 29193, Note_on_c, 0, 61, 0
3, 29197, Note_on_c, 0, 64, 0
3, 29262, Note_on_c, 0, 72, 0
3, 29397, Note_on_c, 0, 61, 15
3, 29422, Note_on_c, 0, 72, 33
3, 29424, Note_on_c, 0, 71, 62
3, 29535, Note_on_c, 0, 72, 0
3, 29587, Note_on_c, 0, 61, 0
3, 29591, Note_on_c, 0, 71, 0
3, 29685, Note_on_c, 0, 55, 0
3, 29840, Note_on_c, 0, 69, 57
3, 30326, Note_on_c, 0, 69, 0
3, 30385, Note_on_c, 0, 67, 62
3, 30439, Note_on_c, 0, 60, 35
3, 30441, Note_on_c, 0, 50, 34
3, 30456, Note_on_c, 0, 57, 38
3, 30600, Note_on_c, 0, 67, 0
3, 30639, Note_on_c, 0, 60, 0
3, 30748, Note_on_c, 0, 65, 58
3, 31000, Note_on_c, 0, 57, 0
3, 31309, Note_on_c, 0, 65, 0
3, 31390, Note_on_c, 0, 67, 60
3, 31470, Note_on_c, 0, 57, 26
3, 31476, Note_on_c, 0, 50, 0
3, 31662, Note_on_c, 0, 67, 0
3, 31712, Note_on_c, 0, 57, 0
3, 31720, Note_on_c, 0, 64, 50
3, 32286, Note_on_c, 0, 64, 0
3, 32353, Note_on_c, 0, 65, 54
3, 32674, Note_on_c, 0, 65, 0
3, 32728, Note_on_c, 0, 62, 49
3, 34260, Note_on_c, 0, 64, 71
3, 34354, Note_on_c, 0, 50, 27
3, 34392, Note_on_c, 0, 62, 0
3, 34492, Note_on_c, 0, 64, 0
3, 34640, Note_on_c, 0, 61, 46
3, 35187, Note_on_c, 0, 63, 44
3, 35270, Note_on_c, 0, 53, 18
3, 35331, Note_on_c, 0, 50, 0
3, 35414, Note_on_c, 0, 61, 0
3, 35475, Note_on_c, 0, 53, 0
3, 35537, Note_on_c, 0, 63, 0
3, 35568, Note_on_c, 0, 59, 40
3, 35704, Note_on_c, 0, 50, 16
3, 35921, Note_on_c, 0, 50, 0
3, 36218, Note_on_c, 0, 50, 22
3, 36320, Note_on_c, 0, 59, 0
3, 36456, Note_on_c, 0, 59, 37
3, 36501, Note_on_c, 0, 50, 0
3, 37054, Note_on_c, 0, 61, 45
3, 37077, Note_on_c, 0, 53, 17
3, 37082, Note_on_c, 0, 59, 0
3, 37224, Note_on_c, 0, 53, 0
3, 37372, Note_on_c, 0, 57, 60
3, 38181, Note_on_c, 0, 57, 0
3, 38271, Note_on_c, 0, 61, 0
3, 39987, Note_on_c, 0, 57, 39
3, 40051, Note_on_c, 0, 53, 32
3, 40133, Note_on_c, 0, 57, 0
3, 40202, Note_on_c, 0, 53, 0
3, 40264, Note_on_c, 0, 67, 101
3, 40648, Note_on_c, 0, 67, 0
3, 40934, Note_on_c, 0, 69, 87
3, 41182, Note_on_c, 0, 69, 0
3, 41347, Note_on_c, 0, 67, 68
3, 41794, Note_on_c, 0, 67, 0
3, 41898, Note_on_c, 0, 66, 67
3, 41927, Note_on_c, 0, 59, 52
3, 42019, Note_on_c, 0, 53, 24
3, 42161, Note_on_c, 0, 53, 0
3, 42172, Note_on_c, 0, 66, 0
3, 42240, Note_on_c, 0, 59, 0
3, 42370, Note_on_c, 0, 65, 51
3, 42913, Note_on_c, 0, 65, 0
3, 43209, Note_on_c, 0, 64, 63
3, 43699, Note_on_c, 0, 64, 0
3, 43845, Note_on_c, 0, 64, 70
3, 43868, Note_on_c, 0, 59, 31
3, 44165, Control_c, 0, 64, 127
3, 44221, Note_on_c, 0, 59, 0
3, 44703, Control_c, 0, 64, 0
3, 44791, Note_on_c, 0, 63, 57
3, 44830, Note_on_c, 0, 59, 40
3, 44851, Note_on_c, 0, 64, 0
3, 44964, Note_on_c, 0, 59, 0
3, 45064, Note_on_c, 0, 63, 0
3, 45204, Note_on_c, 0, 62, 37
3, 45576, Note_on_c, 0, 62, 0
3, 46118, Note_on_c, 0, 70, 76
3, 46452, Note_on_c, 0, 70, 0
3, 46744, Note_on_c, 0, 72, 73
3, 46982, Note_on_c, 0, 72, 0
3, 47143, Note_on_c, 0, 70, 55
3, 47518, Note_on_c, 0, 70, 0
3, 47687, Note_on_c, 0, 69, 60
3, 47905, Note_on_c, 0, 69, 0
3, 48099, Note_on_c, 0, 70, 54
3, 48445, Note_on_c, 0, 70, 0
3, 48608, Note_on_c, 0, 71, 75
3, 48840, Note_on_c, 0, 71, 0
3, 48994, Note_on_c, 0, 72, 90
3, 49743, Note_on_c, 0, 72, 0
3, 49902, Note_on_c, 0, 74, 83
3, 50409, Note_on_c, 0, 74, 0
3, 50588, Note_on_c, 0, 73, 44
3, 50737, Note_on_c, 0, 74, 45
3, 50824, Note_on_c, 0, 74, 0
3, 50833, Note_on_c, 0, 72, 48
3, 50851, Note_on_c, 0, 71, 37
3, 50874, Note_on_c, 0, 73, 0
3, 50929, Note_on_c, 0, 71, 0
3, 50979, Note_on_c, 0, 71, 51
3, 51062, Note_on_c, 0, 72, 0
3, 51444, Note_on_c, 0, 71, 0
3, 51578, Note_on_c, 0, 77, 75
3, 51592, Note_on_c, 0, 76, 66
3, 51655, Note_on_c, 0, 76, 0
3, 52122, Note_on_c, 0, 76, 46
3, 52241, Note_on_c, 0, 77, 0
3, 52350, Note_on_c, 0, 75, 42
3, 52431, Note_on_c, 0, 76, 0
3, 52586, Note_on_c, 0, 74, 53
3, 52707, Note_on_c, 0, 75, 0
3, 52778, Note_on_c, 0, 74, 0
3, 52813, Note_on_c, 0, 57, 26
3, 52911, Note_on_c, 0, 57, 0
3, 53921, Control_c, 0, 64, 127
3, 54416, Note_on_c, 0, 63, 59
3, 54460, Control_c, 0, 64, 0
3, 54470, Note_on_c, 0, 53, 43
3, 54481, Note_on_c, 0, 58, 53
3, 54727, Note_on_c, 0, 63, 0
3, 55192, Note_on_c, 0, 61, 64
3, 55411, Note_on_c, 0, 61, 0
3, 55514, Note_on_c, 0, 63, 64
3, 55658, Note_on_c, 0, 63, 0
3, 55795, Note_on_c, 0, 65, 68
3, 56012, Note_on_c, 0, 65, 0
3, 56098, Note_on_c, 0, 68, 63
3, 56352, Note_on_c, 0, 68, 0
3, 56384, Note_on_c, 0, 70, 67
3, 56517, Note_on_c, 0, 70, 0
3, 56649, Note_on_c, 0, 72, 54
3, 56860, Note_on_c, 0, 72, 0
3, 56903, Note_on_c, 0, 53, 0
3, 56935, Note_on_c, 0, 75, 57
3, 57133, Note_on_c, 0, 58, 0
3, 57143, Note_on_c, 0, 75, 0
3, 57256, Note_on_c, 0, 77, 64
3, 57488, Note_on_c, 0, 77, 0
3, 57594, Note_on_c, 0, 82, 50
3, 57792, Note_on_c, 0, 82, 0
3, 57861, Note_on_c, 0, 82, 33
3, 57918, Note_on_c, 0, 83, 80
3, 57924, Note_on_c, 0, 82, 0
3, 58231, Note_on_c, 0, 84, 78
3, 58245, Note_on_c, 0, 72, 74
3, 58266, Note_on_c, 0, 64, 66
3, 58304, Note_on_c, 0, 58, 58
3, 58348, Note_on_c, 0, 83, 0
3, 59136, Control_c, 0, 64, 127
3, 59441, Note_on_c, 0, 64, 0
3, 59483, Note_on_c, 0, 58, 0
3, 60080, Control_c, 0, 64, 0
3, 60124, Note_on_c, 0, 52, 51
3, 60147, Note_on_c, 0, 58, 43
3, 60372, Note_on_c, 0, 52, 0
3, 60385, Note_on_c, 0, 58, 0
3, 60445, Control_c, 0, 64, 127
3, 60485, Note_on_c, 0, 72, 0
3, 60733, Note_on_c, 0, 84, 0
3, 61223, Note_on_c, 0, 58, 30
3, 61255, Note_on_c, 0, 61, 38
3, 61388, Note_on_c, 0, 58, 0
3, 61428, Control_c, 0, 64, 0
3, 61457, Note_on_c, 0, 86, 66
3, 61472, Note_on_c, 0, 85, 33
3, 61488, Note_on_c, 0, 61, 0
3, 61499, Note_on_c, 0, 62, 50
3, 61559, Note_on_c, 0, 85, 0
3, 62133, Note_on_c, 0, 62, 0
3, 62160, Note_on_c, 0, 60, 34
3, 62161, Note_on_c, 0, 84, 33
3, 62248, Note_on_c, 0, 86, 0
3, 62269, Note_on_c, 0, 60, 0
3, 62279, Note_on_c, 0, 84, 0
3, 62459, Note_on_c, 0, 91, 74
3, 62499, Note_on_c, 0, 67, 59
3, 63239, Note_on_c, 0, 91, 0
3, 63348, Note_on_c, 0, 67, 0
3, 63404, Note_on_c, 0, 89, 52
3, 63417, Note_on_c, 0, 65, 55
3, 64124, Note_on_c, 0, 89, 0
3, 64227, Note_on_c, 0, 65, 0
3, 64346, Note_on_c, 0, 86, 57
3, 64356, Note_on_c, 0, 62, 43
3, 65170, Note_on_c, 0, 86, 0
3, 65249, Note_on_c, 0, 62, 0
3, 65304, Note_on_c, 0, 64, 61
3, 65316, Note_on_c, 0, 88, 66
3, 66130, Note_on_c, 0, 88, 0
3, 66259, Note_on_c, 0, 82, 48
3, 66263, Note_on_c, 0, 58, 52
3, 66284, Note_on_c, 0, 64, 0
3, 66996, Note_on_c, 0, 82, 0
3, 67155, Note_on_c, 0, 58, 0
3, 67255, Note_on_c, 0, 52, 34
3, 68115, Note_on_c, 0, 58, 46
3, 68158, Note_on_c, 0, 64, 35
3, 68463, Note_on_c, 0, 52, 0
3, 68599, Note_on_c, 0, 64, 0
3, 68628, Note_on_c, 0, 58, 0
3, 69803, Note_on_c, 0, 86, 81
3, 69828, Note_on_c, 0, 85, 57
3, 69838, Note_on_c, 0, 61, 60
3, 69841, Note_on_c, 0, 62, 81
3, 69893, Note_on_c, 0, 85, 0
3, 70022, Note_on_c, 0, 61, 0
3, 70560, Note_on_c, 0, 84, 68
3, 70561, Note_on_c, 0, 60, 62
3, 70594, Note_on_c, 0, 62, 0
3, 70665, Note_on_c, 0, 86, 0
3, 70863, Note_on_c, 0, 84, 0
3, 71149, Note_on_c, 0, 60, 0
3, 71304, Note_on_c, 0, 88, 92
3, 71312, Note_on_c, 0, 64, 85
3, 71859, Note_on_c, 0, 88, 0
3, 71930, Note_on_c, 0, 86, 72
3, 71950, Note_on_c, 0, 62, 62
3, 71998, Note_on_c, 0, 64, 0
3, 73547, Note_on_c, 0, 86, 0
3, 73914, Note_on_c, 0, 64, 82
3, 73916, Note_on_c, 0, 62, 0
3, 73925, Note_on_c, 0, 88, 81
3, 73935, Note_on_c, 0, 76, 80
3, 74436, Note_on_c, 0, 88, 0
3, 74576, Note_on_c, 0, 62, 60
3, 74580, Note_on_c, 0, 86, 64
3, 74664, Note_on_c, 0, 64, 0
3, 74711, Note_on_c, 0, 76, 0
3, 74847, Note_on_c, 0, 86, 0
3, 74862, Note_on_c, 0, 62, 0
3, 75212, Note_on_c, 0, 67, 74
3, 75214, Note_on_c, 0, 56, 75
3, 75216, Note_on_c, 0, 91, 84
3, 75221, Note_on_c, 0, 79, 74
3, 75233, Note_on_c, 0, 62, 61
3, 75461, Control_c, 0, 64, 127
3, 75655, Note_on_c, 0, 56, 0
3, 75663, Note_on_c, 0, 91, 0
3, 75707, Note_on_c, 0, 67, 0
3, 75751, Note_on_c, 0, 79, 0
3, 75805, Note_on_c, 0, 62, 0
3, 75876, Note_on_c, 0, 56, 58
3, 75884, Note_on_c, 0, 67, 58
3, 75891, Note_on_c, 0, 62, 27
3, 75912, Note_on_c, 0, 89, 64
3, 75941, Note_on_c, 0, 77, 62
3, 76091, Note_on_c, 0, 67, 0
3, 76124, Note_on_c, 0, 89, 0
3, 76168, Note_on_c, 0, 62, 0
3, 76204, Note_on_c, 0, 77, 0
3, 76245, Note_on_c, 0, 56, 0
3, 76481, Control_c, 0, 64, 0
3, 76571, Note_on_c, 0, 61, 46
3, 76598, Note_on_c, 0, 64, 57
3, 76600, Note_on_c, 0, 88, 74
3, 76609, Note_on_c, 0, 76, 64
3, 76611, Note_on_c, 0, 54, 42
3, 76621, Note_on_c, 0, 59, 49
3, 77172, Note_on_c, 0, 88, 0
3, 77312, Note_on_c, 0, 76, 0
3, 77498, Note_on_c, 0, 85, 74
3, 77696, Note_on_c, 0, 59, 0
3, 77748, Note_on_c, 0, 54, 0
3, 77821, Note_on_c, 0, 61, 0
3, 77873, Note_on_c, 0, 64, 0
3, 77917, Note_on_c, 0, 81, 50
3, 78282, Note_on_c, 0, 81, 0
3, 78447, Note_on_c, 0, 75, 57
3, 78599, Note_on_c, 0, 75, 0
3, 78885, Note_on_c, 0, 74, 58
3, 78931, Note_on_c, 0, 85, 0
3, 79317, Note_on_c, 0, 74, 0
3, 79562, Note_on_c, 0, 66, 46
3, 79605, Note_on_c, 0, 57, 40
3, 79612, Note_on_c, 0, 61, 32
3, 79647, Note_on_c, 0, 62, 42
3, 79651, Note_on_c, 0, 74, 56
3, 80277, Note_on_c, 0, 66, 0
3, 80279, Note_on_c, 0, 57, 0
3, 80317, Note_on_c, 0, 74, 0
3, 80428, Note_on_c, 0, 62, 0
3, 80674, Note_on_c, 0, 73, 71
3, 81129, Note_on_c, 0, 73, 0
3, 81246, Note_on_c, 0, 74, 55
3, 81312, Note_on_c, 0, 73, 45
3, 81475, Note_on_c, 0, 62, 27
3, 81477, Note_on_c, 0, 74, 0
3, 81621, Note_on_c, 0, 71, 29
3, 81703, Note_on_c, 0, 62, 0
3, 81795, Note_on_c, 0, 73, 0
3, 82010, Note_on_c, 0, 61, 0
3, 82139, Note_on_c, 0, 71, 0
3, 82247, Note_on_c, 0, 73, 59
3, 82498, Note_on_c, 0, 73, 0
3, 82629, Note_on_c, 0, 74, 84
3, 82999, Note_on_c, 0, 74, 0
3, 83191, Note_on_c, 0, 78, 74
3, 83228, Note_on_c, 0, 62, 55
3, 83399, Note_on_c, 0, 62, 0
3, 83543, Note_on_c, 0, 74, 59
3, 83925, Note_on_c, 0, 78, 0
3, 84120, Note_on_c, 0, 74, 0
3, 84203, Note_on_c, 0, 69, 37
3, 84286, Note_on_c, 0, 59, 31
3, 84481, Note_on_c, 0, 59, 0
3, 84485, Note_on_c, 0, 69, 0
3, 84554, Note_on_c, 0, 68, 44
3, 85067, Note_on_c, 0, 68, 0
3, 85152, Note_on_c, 0, 76, 71
3, 85157, Note_on_c, 0, 64, 46
3, 85263, Note_on_c, 0, 64, 0
3, 85455, Note_on_c, 0, 68, 50
3, 85457, Note_on_c, 0, 76, 0
3, 85939, Note_on_c, 0, 68, 0
3, 86213, Note_on_c, 0, 58, 27
3, 86294, Note_on_c, 0, 60, 29
3, 86307, Note_on_c, 0, 58, 0
3, 86388, Note_on_c, 0, 60, 0
3, 86436, Note_on_c, 0, 62, 60
3, 86440, Note_on_c, 0, 74, 67
3, 86448, Note_on_c, 0, 66, 58
3, 86451, Note_on_c, 0, 63, 46
3, 86472, Note_on_c, 0, 73, 30
3, 86494, Note_on_c, 0, 69, 36
3, 86703, Note_on_c, 0, 73, 0
3, 86716, Note_on_c, 0, 74, 0
3, 86833, Note_on_c, 0, 63, 0
3, 86893, Note_on_c, 0, 66, 0
3, 86977, Note_on_c, 0, 69, 0
3, 87016, Note_on_c, 0, 62, 0
3, 87045, Note_on_c, 0, 61, 55
3, 87050, Note_on_c, 0, 73, 46
3, 87064, Note_on_c, 0, 63, 58
3, 87106, Note_on_c, 0, 66, 43
3, 87135, Note_on_c, 0, 69, 24
3, 87292, Note_on_c, 0, 61, 0
3, 87338, Note_on_c, 0, 69, 0
3, 87348, Note_on_c, 0, 63, 0
3, 87369, Note_on_c, 0, 66, 0
3, 87375, Note_on_c, 0, 73, 0
3, 87429, Note_on_c, 0, 60, 36
3, 87440, Note_on_c, 0, 72, 49
3, 87450, Note_on_c, 0, 66, 20
3, 87828, Note_on_c, 0, 66, 0
3, 87893, Note_on_c, 0, 72, 0
3, 88028, Note_on_c, 0, 60, 0
3, 88398, Note_on_c, 0, 70, 82
3, 88412, Note_on_c, 0, 58, 62
3, 88936, Note_on_c, 0, 57, 43
3, 88957, Note_on_c, 0, 69, 54
3, 88967, Note_on_c, 0, 58, 0
3, 89136, Note_on_c, 0, 68, 37
3, 89174, Note_on_c, 0, 57, 0
3, 89266, Note_on_c, 0, 69, 0
3, 89352, Note_on_c, 0, 70, 0
3, 89364, Note_on_c, 0, 55, 38
3, 89374, Note_on_c, 0, 67, 54
3, 89387, Note_on_c, 0, 68, 0
3, 89633, Note_on_c, 0, 67, 0
3, 89838, Note_on_c, 0, 55, 0
3, 89988, Note_on_c, 0, 60, 69
3, 89996, Note_on_c, 0, 72, 88
3, 90873, Note_on_c, 0, 67, 61
3, 90940, Note_on_c, 0, 72, 0
3, 91084, Note_on_c, 0, 67, 0
3, 91215, Note_on_c, 0, 68, 37
3, 91217, Note_on_c, 0, 60, 0
3, 91361, Note_on_c, 0, 68, 0
3, 91549, Note_on_c, 0, 69, 47
3, 91597, Note_on_c, 0, 57, 44
3, 91706, Note_on_c, 0, 69, 0
3, 91749, Note_on_c, 0, 57, 0
3, 91829, Note_on_c, 0, 74, 87
3, 91860, Note_on_c, 0, 62, 68
3, 92090, Note_on_c, 0, 74, 0
3, 92129, Note_on_c, 0, 62, 0
3, 92196, Note_on_c, 0, 72, 67
3, 92232, Note_on_c, 0, 60, 52
3, 92682, Note_on_c, 0, 72, 0
3, 92703, Note_on_c, 0, 60, 0
3, 92780, Note_on_c, 0, 69, 49
3, 93014, Note_on_c, 0, 69, 0
3, 93144, Note_on_c, 0, 65, 54
3, 93757, Note_on_c, 0, 65, 0
3, 93838, Note_on_c, 0, 60, 34
3, 93941, Note_on_c, 0, 60, 0
3, 94114, Note_on_c, 0, 62, 61
3, 96245, Note_on_c, 0, 62, 0
3, 96693, Note_on_c, 0, 60, 31
3, 96773, Note_on_c, 0, 60, 0
3, 96913, Note_on_c, 0, 72, 84
3, 97472, Note_on_c, 0, 72, 0
3, 97578, Note_on_c, 0, 60, 49
3, 97799, Note_on_c, 0, 60, 0
3, 98711, Note_on_c, 0, 58, 54
3, 98732, Note_on_c, 0, 52, 45
3, 98824, Note_on_c, 0, 52, 0
3, 98858, Note_on_c, 0, 58, 0
3, 98929, Note_on_c, 0, 72, 83
3, 99507, Note_on_c, 0, 72, 0
3, 99617, Note_on_c, 0, 60, 55
3, 99680, Note_on_c, 0, 60, 0
3, 100579, Note_on_c, 0, 60, 40
3, 100588, Note_on_c, 0, 57, 48
3, 100688, Note_on_c, 0, 60, 0
3, 100704, Note_on_c, 0, 57, 0
3, 100805, Note_on_c, 0, 80, 70
3, 100823, Note_on_c, 0, 68, 79
3, 100857, Note_on_c, 0, 77, 54
3, 100949, Note_on_c, 0, 77, 0
3, 101337, Note_on_c, 0, 80, 0
3, 101352, Note_on_c, 0, 68, 0
3, 101422, Note_on_c, 0, 77, 20
3, 101431, Note_on_c, 0, 69, 58
3, 101445, Note_on_c, 0, 81, 62
3, 101667, Note_on_c, 0, 69, 0
3, 101669, Note_on_c, 0, 81, 0
3, 101687, Note_on_c, 0, 77, 0
3, 101781, Note_on_c, 0, 69, 30
3, 101802, Note_on_c, 0, 81, 47
3, 101806, Note_on_c, 0, 77, 32
3, 102115, Note_on_c, 0, 81, 0
3, 102147, Note_on_c, 0, 69, 0
3, 102174, Note_on_c, 0, 77, 0
3, 102376, Note_on_c, 0, 81, 58
3, 102384, Note_on_c, 0, 69, 48
3, 102401, Note_on_c, 0, 77, 40
3, 102422, Note_on_c, 0, 62, 62
3, 102495, Note_on_c, 0, 53, 24
3, 102497, Note_on_c, 0, 62, 0
3, 102537, Note_on_c, 0, 69, 0
3, 102539, Note_on_c, 0, 81, 0
3, 102547, Note_on_c, 0, 57, 28
3, 102610, Note_on_c, 0, 53, 0
3, 102656, Note_on_c, 0, 77, 0
3, 102746, Note_on_c, 0, 57, 0
3, 102771, Note_on_c, 0, 68, 53
3, 102779, Note_on_c, 0, 80, 44
3, 102823, Note_on_c, 0, 77, 41
3, 103111, Note_on_c, 0, 80, 0
3, 103125, Note_on_c, 0, 68, 0
3, 103127, Note_on_c, 0, 77, 0
3, 103344, Note_on_c, 0, 77, 29
3, 103374, Note_on_c, 0, 81, 32
3, 103430, Note_on_c, 0, 77, 0
3, 103457, Note_on_c, 0, 81, 0
3, 103641, Note_on_c, 0, 79, 74
3, 103643, Note_on_c, 0, 84, 79
3, 103645, Note_on_c, 0, 72, 75
3, 103699, Note_on_c, 0, 67, 64
3, 103712, Note_on_c, 0, 58, 44
3, 103758, Note_on_c, 0, 64, 32
3, 103872, Note_on_c, 0, 62, 16
3, 103893, Note_on_c, 0, 64, 0
3, 103933, Note_on_c, 0, 58, 0
3, 103991, Note_on_c, 0, 67, 0
3, 103992, Note_on_c, 0, 62, 0
3, 104167, Note_on_c, 0, 72, 0
3, 104186, Note_on_c, 0, 84, 0
3, 104204, Note_on_c, 0, 79, 0
3, 104586, Note_on_c, 0, 67, 53
3, 104603, Note_on_c, 0, 64, 39
3, 104605, Note_on_c, 0, 58, 50
3, 104622, Note_on_c, 0, 62, 37
3, 104624, Note_on_c, 0, 84, 68
3, 104628, Note_on_c, 0, 79, 66
3, 104640, Note_on_c, 0, 72, 65
3, 104668, Note_on_c, 0, 67, 0
3, 104680, Note_on_c, 0, 64, 0
3, 104709, Note_on_c, 0, 62, 0
3, 104749, Note_on_c, 0, 58, 0
3, 105091, Note_on_c, 0, 72, 0
3, 105125, Note_on_c, 0, 79, 0
3, 105129, Note_on_c, 0, 84, 0
3, 106268, Note_on_c, 0, 58, 67
3, 106273, Note_on_c, 0, 62, 68
3, 106291, Note_on_c, 0, 52, 50
3, 106302, Note_on_c, 0, 84, 66
3, 106304, Note_on_c, 0, 72, 72
3, 106314, Note_on_c, 0, 79, 58
3, 106435, Note_on_c, 0, 52, 0
3, 106513, Control_c, 0, 64, 127
3, 106694, Note_on_c, 0, 58, 0
3, 106842, Note_on_c, 0, 62, 0
3, 106922, Note_on_c, 0, 72, 0
3, 106982, Note_on_c, 0, 84, 0
3, 106999, Note_on_c, 0, 79, 0
3, 107343, Control_c, 0, 64, 0
3, 107520, Note_on_c, 0, 63, 47
3, 107521, Note_on_c, 0, 62, 61
3, 107533, Note_on_c, 0, 67, 59
3, 107541, Note_on_c, 0, 58, 56
3, 108297, Note_on_c, 0, 86, 95
3, 108599, Note_on_c, 0, 86, 0
3, 108865, Note_on_c, 0, 83, 84
3, 109176, Note_on_c, 0, 83, 0
3, 109328, Note_on_c, 0, 84, 82
3, 109430, Note_on_c, 0, 62, 0
3, 109622, Note_on_c, 0, 67, 0
3, 109655, Note_on_c, 0, 84, 0
3, 109726, Note_on_c, 0, 81, 55
3, 109731, Note_on_c, 0, 63, 0
3, 110014, Note_on_c, 0, 58, 0
3, 110161, Note_on_c, 0, 78, 61
3, 110200, Note_on_c, 0, 63, 39
3, 110217, Note_on_c, 0, 67, 49
3, 110223, Note_on_c, 0, 57, 53
3, 110229, Note_on_c, 0, 81, 0
3, 110494, Note_on_c, 0, 67, 0
3, 110603, Note_on_c, 0, 78, 0
3, 110634, Note_on_c, 0, 77, 44
3, 110964, Note_on_c, 0, 63, 0
3, 111002, Note_on_c, 0, 77, 0
3, 111066, Note_on_c, 0, 57, 0
3, 111144, Note_on_c, 0, 75, 63
3, 111225, Note_on_c, 0, 65, 47
3, 111250, Note_on_c, 0, 60, 38
3, 111265, Note_on_c, 0, 62, 37
3, 111498, Note_on_c, 0, 75, 0
3, 111536, Note_on_c, 0, 65, 0
3, 111582, Note_on_c, 0, 74, 43
3, 111997, Note_on_c, 0, 74, 0
3, 112139, Note_on_c, 0, 81, 77
3, 112160, Note_on_c, 0, 53, 36
3, 112392, Note_on_c, 0, 81, 0
3, 112440, Note_on_c, 0, 53, 0
3, 112529, Note_on_c, 0, 62, 0
3, 112554, Note_on_c, 0, 77, 38
3, 112561, Note_on_c, 0, 60, 0
3, 113020, Note_on_c, 0, 77, 0
3, 113116, Note_on_c, 0, 74, 43
3, 113280, Note_on_c, 0, 74, 0
3, 113439, Note_on_c, 0, 61, 34
3, 113447, Note_on_c, 0, 65, 53
3, 113477, Note_on_c, 0, 55, 36
3, 113487, Note_on_c, 0, 81, 60
3, 113496, Note_on_c, 0, 69, 44
3, 113502, Note_on_c, 0, 77, 42
3, 113955, Note_on_c, 0, 55, 0
3, 113957, Note_on_c, 0, 81, 0
3, 113992, Note_on_c, 0, 65, 0
3, 114046, Note_on_c, 0, 69, 0
3, 114099, Note_on_c, 0, 61, 0
3, 114122, Note_on_c, 0, 77, 0
3, 114353, Note_on_c, 0, 73, 42
3, 114355, Note_on_c, 0, 79, 51
3, 114370, Note_on_c, 0, 61, 50
3, 114376, Note_on_c, 0, 67, 46
3, 114408, Note_on_c, 0, 55, 38
3, 114435, Note_on_c, 0, 65, 37
3, 114545, Note_on_c, 0, 65, 0
3, 114570, Note_on_c, 0, 67, 0
3, 114633, Note_on_c, 0, 73, 0
3, 114652, Note_on_c, 0, 79, 0
3, 114683, Note_on_c, 0, 55, 0
3, 114739, Note_on_c, 0, 61, 0
3, 115326, Note_on_c, 0, 57, 74
3, 115330, Note_on_c, 0, 64, 80
3, 115336, Note_on_c, 0, 84, 79
3, 115345, Note_on_c, 0, 72, 80
3, 115347, Note_on_c, 0, 79, 74
3, 115351, Note_on_c, 0, 60, 56
3, 115526, Control_c, 0, 64, 127
3, 115749, Note_on_c, 0, 72, 0
3, 115781, Note_on_c, 0, 84, 0
3, 115789, Note_on_c, 0, 64, 0
3, 115814, Note_on_c, 0, 60, 0
3, 115827, Note_on_c, 0, 57, 0
3, 115845, Note_on_c, 0, 79, 0
3, 115992, Note_on_c, 0, 57, 57
3, 115994, Note_on_c, 0, 86, 74
3, 115998, Note_on_c, 0, 79, 60
3, 116000, Note_on_c, 0, 74, 67
3, 116010, Note_on_c, 0, 64, 66
3, 116014, Note_on_c, 0, 60, 47
3, 116121, Control_c, 0, 64, 0
3, 116165, Note_on_c, 0, 86, 0
3, 116200, Note_on_c, 0, 74, 0
3, 116231, Note_on_c, 0, 64, 0
3, 116267, Note_on_c, 0, 79, 0
3, 116271, Note_on_c, 0, 60, 0
3, 116294, Note_on_c, 0, 57, 0
3, 116424, Note_on_c, 0, 84, 36
3, 116430, Note_on_c, 0, 79, 37
3, 116440, Note_on_c, 0, 64, 49
3, 116448, Note_on_c, 0, 57, 57
3, 116449, Note_on_c, 0, 60, 38
3, 116451, Note_on_c, 0, 72, 39
3, 116586, Note_on_c, 0, 72, 0
3, 116615, Note_on_c, 0, 64, 0
3, 116632, Note_on_c, 0, 84, 0
3, 116674, Note_on_c, 0, 79, 0
3, 116695, Note_on_c, 0, 60, 0
3, 116724, Note_on_c, 0, 57, 0
3, 116801, Control_c, 0, 64, 127
3, 116895, Note_on_c, 0, 57, 60
3, 116899, Control_c, 0, 64, 0
3, 116901, Note_on_c, 0, 60, 49
3, 116947, Note_on_c, 0, 86, 71
3, 116951, Note_on_c, 0, 74, 71
3, 116954, Note_on_c, 0, 81, 66
3, 116970, Note_on_c, 0, 58, 33
3, 117050, Note_on_c, 0, 60, 0
3, 117056, Note_on_c, 0, 58, 0
3, 117095, Note_on_c, 0, 57, 0
3, 117108, Note_on_c, 0, 86, 0
3, 117110, Note_on_c, 0, 74, 0
3, 117137, Note_on_c, 0, 81, 0
3, 117338, Note_on_c, 0, 84, 54
3, 117350, Note_on_c, 0, 79, 60
3, 117352, Note_on_c, 0, 57, 58
3, 117360, Note_on_c, 0, 72, 58
3, 117408, Note_on_c, 0, 60, 31
3, 117411, Note_on_c, 0, 53, 27
3, 117492, Note_on_c, 0, 60, 0
3, 117502, Note_on_c, 0, 84, 0
3, 117505, Note_on_c, 0, 79, 0
3, 117525, Note_on_c, 0, 72, 0
3, 117555, Note_on_c, 0, 57, 0
3, 117561, Note_on_c, 0, 53, 0
3, 118181, Note_on_c, 0, 74, 61
3, 118183, Note_on_c, 0, 57, 51
3, 118187, Note_on_c, 0, 53, 44
3, 118189, Note_on_c, 0, 81, 55
3, 118193, Note_on_c, 0, 69, 58
3, 118206, Note_on_c, 0, 50, 34
3, 118216, Note_on_c, 0, 77, 41
3, 118225, Note_on_c, 0, 60, 40
3, 118295, Note_on_c, 0, 50, 0
3, 118304, Note_on_c, 0, 60, 0
3, 118343, Note_on_c, 0, 77, 0
3, 118391, Note_on_c, 0, 81, 0
3, 118392, Note_on_c, 0, 69, 0
3, 118394, Note_on_c, 0, 53, 0
3, 118423, Note_on_c, 0, 57, 0
3, 118429, Note_on_c, 0, 74, 0
3, 119155, Note_on_c, 0, 74, 79
3, 119166, Note_on_c, 0, 69, 70
3, 119180, Note_on_c, 0, 57, 60
3, 119210, Note_on_c, 0, 62, 47
3, 119214, Note_on_c, 0, 65, 34
3, 119241, Note_on_c, 0, 64, 39
3, 119251, Control_c, 0, 64, 127
3, 119314, Note_on_c, 0, 64, 0
3, 119930, Note_on_c, 0, 65, 0
3, 120044, Note_on_c, 0, 62, 0
3, 120161, Note_on_c, 0, 57, 0
3, 120437, Note_on_c, 0, 69, 0
3, 120867, Control_c, 0, 64, 0
3, 120885, Note_on_c, 0, 74, 0
3, 120996, Note_on_c, 0, 73, 44
3, 121009, Note_on_c, 0, 68, 48
3, 121021, Note_on_c, 0, 61, 44
3, 121023, Note_on_c, 0, 65, 58
3, 121027, Note_on_c, 0, 56, 51
3, 121313, Control_c, 0, 64, 127
3, 121812, Note_on_c, 0, 65, 0
3, 121875, Note_on_c, 0, 68, 0
3, 121996, Note_on_c, 0, 56, 0
3, 122092, Note_on_c, 0, 61, 0
3, 122697, Control_c, 0, 64, 0
3, 122724, Note_on_c, 0, 73, 0
3, 122924, Note_on_c, 0, 67, 51
3, 122928, Note_on_c, 0, 72, 41
3, 122935, Note_on_c, 0, 60, 43
3, 122947, Note_on_c, 0, 55, 43
3, 123102, Control_c, 0, 64, 127
3, 123440, Note_on_c, 0, 72, 0
3, 123450, Note_on_c, 0, 60, 0
3, 123477, Note_on_c, 0, 67, 0
3, 123536, Note_on_c, 0, 55, 0
3, 124738, Control_c, 0, 64, 0
3, 124853, Note_on_c, 0, 67, 94
3, 124874, Note_on_c, 0, 55, 70
3, 125274, Note_on_c, 0, 54, 39
3, 125318, Note_on_c, 0, 66, 55
3, 125418, Note_on_c, 0, 55, 0
3, 125485, Note_on_c, 0, 65, 54
3, 125525, Note_on_c, 0, 54, 0
3, 125552, Note_on_c, 0, 67, 0
3, 125727, Note_on_c, 0, 52, 36
3, 125731, Note_on_c, 0, 66, 0
3, 125775, Note_on_c, 0, 65, 0
3, 125792, Note_on_c, 0, 64, 50
3, 126115, Note_on_c, 0, 64, 0
3, 126293, Note_on_c, 0, 52, 0
3, 126401, Note_on_c, 0, 65, 74
3, 126426, Note_on_c, 0, 53, 46
3, 126741, Note_on_c, 0, 53, 0
3, 126771, Note_on_c, 0, 65, 0
3, 126837, Note_on_c, 0, 50, 41
3, 126879, Note_on_c, 0, 62, 52
3, 127368, Note_on_c, 0, 50, 0
3, 127413, Note_on_c, 0, 62, 0
3, 127451, Note_on_c, 0, 46, 45
3, 127453, Note_on_c, 0, 58, 55
3, 128449, Note_on_c, 0, 58, 0
3, 128570, Note_on_c, 0, 46, 0
3, 128609, Note_on_c, 0, 48, 41
3, 128640, Note_on_c, 0, 60, 38
3, 129125, Note_on_c, 0, 60, 0
3, 129125, Note_on_c, 0, 48, 0
3, 129279, Note_on_c, 0, 50, 38
3, 129281, Note_on_c, 0, 62, 60
3, 129542, Note_on_c, 0, 50, 0
3, 129576, Note_on_c, 0, 62, 0
3, 129630, Note_on_c, 0, 52, 37
3, 129667, Note_on_c, 0, 64, 58
3, 130039, Note_on_c, 0, 52, 0
3, 130114, Note_on_c, 0, 64, 0
3, 130224, Note_on_c, 0, 53, 41
3, 130227, Note_on_c, 0, 65, 62
3, 132272, Note_on_c, 0, 53, 0
3, 133597, Control_c, 0, 64, 127
3, 133975, Note_on_c, 0, 65, 0
3, 134480, Control_c, 0, 64, 0
3, 135031, Note_on_c, 0, 69, 48
3, 135273, Note_on_c, 0, 69, 0
3, 135373, Note_on_c, 0, 70, 42
3, 135525, Note_on_c, 0, 70, 0
3, 135671, Note_on_c, 0, 72, 58
3, 135889, Note_on_c, 0, 72, 0
3, 135949, Note_on_c, 0, 73, 43
3, 136110, Note_on_c, 0, 73, 0
3, 136314, Note_on_c, 0, 77, 40
3, 136510, Note_on_c, 0, 77, 0
3, 136590, Note_on_c, 0, 82, 56
3, 136759, Note_on_c, 0, 82, 0
3, 136888, Note_on_c, 0, 84, 81
3, 137124, Note_on_c, 0, 84, 0
3, 137212, Note_on_c, 0, 85, 80
3, 137708, Note_on_c, 0, 85, 0
3, 137846, Note_on_c, 0, 84, 77
3, 137938, Note_on_c, 0, 57, 43
3, 137988, Note_on_c, 0, 53, 16
3, 138074, Note_on_c, 0, 53, 0
3, 138107, Note_on_c, 0, 84, 0
3, 138145, Note_on_c, 0, 57, 0
3, 138410, Note_on_c, 0, 80, 55
3, 138577, Note_on_c, 0, 80, 0
3, 138597, Note_on_c, 0, 81, 58
3, 138789, Note_on_c, 0, 81, 0
3, 138940, Note_on_c, 0, 77, 69
3, 139163, Note_on_c, 0, 77, 0
3, 139301, Note_on_c, 0, 72, 51
3, 139680, Note_on_c, 0, 72, 0
3, 140188, Note_on_c, 0, 77, 69
3, 140797, Note_on_c, 0, 72, 45
3, 140826, Note_on_c, 0, 77, 0
3, 140995, Note_on_c, 0, 72, 0
3, 141096, Note_on_c, 0, 61, 26
3, 141098, Note_on_c, 0, 65, 46
3, 141177, Note_on_c, 0, 74, 58
3, 141204, Note_on_c, 0, 55, 17
3, 141400, Note_on_c, 0, 65, 0
3, 141544, Note_on_c, 0, 55, 0
3, 141600, Note_on_c, 0, 61, 0
3, 141661, Note_on_c, 0, 74, 0
3, 141755, Note_on_c, 0, 75, 73
3, 142062, Note_on_c, 0, 75, 0
3, 142206, Note_on_c, 0, 77, 79
3, 142210, Note_on_c, 0, 63, 50
3, 142229, Note_on_c, 0, 53, 43
3, 142254, Note_on_c, 0, 58, 50
3, 142481, Note_on_c, 0, 77, 0
3, 142548, Note_on_c, 0, 58, 0
3, 142552, Note_on_c, 0, 63, 0
3, 142725, Note_on_c, 0, 75, 74
3, 142821, Note_on_c, 0, 53, 0
3, 142976, Note_on_c, 0, 75, 0
3, 143137, Note_on_c, 0, 72, 63
3, 143358, Note_on_c, 0, 72, 0
3, 143437, Note_on_c, 0, 68, 60
3, 143694, Note_on_c, 0, 68, 0
3, 143811, Note_on_c, 0, 65, 40
3, 144432, Note_on_c, 0, 65, 0
3, 144433, Note_on_c, 0, 70, 76
3, 144710, Note_on_c, 0, 68, 57
3, 144729, Note_on_c, 0, 70, 0
3, 144960, Note_on_c, 0, 68, 0
3, 144988, Note_on_c, 0, 65, 69
3, 145144, Note_on_c, 0, 65, 0
3, 145319, Note_on_c, 0, 63, 57
3, 145528, Note_on_c, 0, 63, 0
3, 145605, Note_on_c, 0, 60, 47
3, 145845, Note_on_c, 0, 60, 0
3, 145954, Note_on_c, 0, 58, 59
3, 146161, Note_on_c, 0, 58, 0
3, 146309, Note_on_c, 0, 55, 40
3, 146565, Note_on_c, 0, 55, 0
3, 146670, Note_on_c, 0, 56, 62
3, 147062, Note_on_c, 0, 56, 0
3, 147484, Note_on_c, 0, 57, 70
3, 147893, Note_on_c, 0, 57, 0
3, 148126, Note_on_c, 0, 58, 56
3, 148256, Note_on_c, 0, 58, 0
3, 148262, Note_on_c, 0, 59, 49
3, 148525, Note_on_c, 0, 59, 0
3, 148606, Note_on_c, 0, 60, 70
3, 148892, Note_on_c, 0, 60, 0
3, 149107, Note_on_c, 0, 60, 67
3, 149594, Control_c, 0, 64, 127
3, 149934, Note_on_c, 0, 60, 0
3, 150341, Note_on_c, 0, 48, 44
3, 150439, Control_c, 0, 64, 0
3, 150537, Note_on_c, 0, 48, 0
3, 150547, Note_on_c, 0, 49, 46
3, 150760, Note_on_c, 0, 51, 35
3, 150791, Note_on_c, 0, 49, 0
3, 150913, Note_on_c, 0, 51, 0
3, 150990, Note_on_c, 0, 53, 43
3, 151186, Note_on_c, 0, 53, 0
3, 151234, Note_on_c, 0, 55, 33
3, 151311, Note_on_c, 0, 56, 36
3, 151449, Note_on_c, 0, 55, 0
3, 151512, Note_on_c, 0, 58, 59
3, 151557, Note_on_c, 0, 56, 0
3, 151643, Note_on_c, 0, 58, 0
3, 151752, Note_on_c, 0, 60, 55
3, 151872, Note_on_c, 0, 60, 0
3, 151875, Note_on_c, 0, 61, 37
3, 152112, Note_on_c, 0, 63, 40
3, 152129, Note_on_c, 0, 61, 0
3, 152257, Note_on_c, 0, 63, 0
3, 152346, Note_on_c, 0, 65, 55
3, 152551, Note_on_c, 0, 65, 0
3, 152555, Note_on_c, 0, 67, 44
3, 152720, Note_on_c, 0, 68, 34
3, 152741, Note_on_c, 0, 67, 0
3, 153056, Note_on_c, 0, 68, 0
3, 153081, Note_on_c, 0, 70, 30
3, 153200, Note_on_c, 0, 70, 0
3, 153225, Note_on_c, 0, 71, 37
3, 153346, Note_on_c, 0, 71, 0
3, 153434, Note_on_c, 0, 72, 62
3, 153726, Note_on_c, 0, 69, 65
3, 154106, Note_on_c, 0, 69, 0
3, 154145, Note_on_c, 0, 72, 0
3, 154306, Note_on_c, 0, 64, 54
3, 154561, Note_on_c, 0, 64, 0
3, 154629, Note_on_c, 0, 67, 70
3, 155301, Note_on_c, 0, 64, 34
3, 155337, Note_on_c, 0, 67, 0
3, 155466, Note_on_c, 0, 64, 0
3, 155591, Note_on_c, 0, 65, 59
3, 156424, Control_c, 0, 64, 127
3, 157102, Note_on_c, 0, 65, 0
3, 157144, Note_on_c, 0, 60, 45
3, 157194, Control_c, 0, 64, 0
3, 157395, Note_on_c, 0, 60, 0
3, 157534, Note_on_c, 0, 61, 50
3, 157968, Note_on_c, 0, 61, 0
3, 158115, Note_on_c, 0, 63, 52
3, 158319, Note_on_c, 0, 63, 0
3, 158532, Note_on_c, 0, 65, 36
3, 158904, Note_on_c, 0, 65, 0
3, 159039, Note_on_c, 0, 68, 44
3, 159310, Note_on_c, 0, 68, 0
3, 159456, Note_on_c, 0, 70, 21
3, 159830, Note_on_c, 0, 70, 0
3, 159945, Note_on_c, 0, 72, 46
3, 160260, Note_on_c, 0, 72, 0
3, 160320, Note_on_c, 0, 75, 40
3, 160800, Note_on_c, 0, 75, 0
3, 160884, Note_on_c, 0, 76, 49
3, 161278, Note_on_c, 0, 76, 0
3, 161280, Note_on_c, 0, 57, 44
3, 161280, Note_on_c, 0, 62, 39
3, 161280, Note_on_c, 0, 67, 40
3, 161280, Note_on_c, 0, 77, 67
3, 161280, Note_on_c, 0, 79, 23
3, 161280, Note_on_c, 0, 84, 60
3, 161280, Note_on_c, 0, 89, 60
3, 161357, Note_on_c, 0, 77, 0
3, 161363, Note_on_c, 0, 79, 0
3, 161421, Note_on_c, 0, 84, 0
3, 161433, Note_on_c, 0, 67, 0
3, 161451, Note_on_c, 0, 89, 0
3, 161546, Note_on_c, 0, 57, 0
3, 161558, Note_on_c, 0, 62, 0
3, 163258, Note_on_c, 0, 53, 36
3, 163318, Note_on_c, 0, 60, 13
3, 163440, Note_on_c, 0, 60, 0
3, 163470, Note_on_c, 0, 53, 0
3, 164831, Note_on_c, 0, 57, 67
3, 164843, Note_on_c, 0, 62, 58
3, 164859, Note_on_c, 0, 58, 45
3, 164918, Note_on_c, 0, 62, 0
3, 164926, Note_on_c, 0, 57, 0
3, 164992, Note_on_c, 0, 58, 0
3, 165136, Note_on_c, 0, 72, 105
3, 165693, Note_on_c, 0, 72, 0
3, 165806, Note_on_c, 0, 72, 75
3, 165997, Note_on_c, 0, 72, 0
3, 166086, Note_on_c, 0, 72, 71
3, 166677, Note_on_c, 0, 72, 0
3, 166758, Note_on_c, 0, 72, 63
3, 166974, Note_on_c, 0, 72, 0
3, 166994, Note_on_c, 0, 64, 53
3, 167008, Note_on_c, 0, 58, 37
3, 167026, Note_on_c, 0, 72, 39
3, 167028, Note_on_c, 0, 60, 37
3, 167468, Note_on_c, 0, 60, 0
3, 167542, Note_on_c, 0, 58, 0
3, 167619, Note_on_c, 0, 72, 0
3, 167740, Note_on_c, 0, 72, 78
3, 167762, Note_on_c, 0, 58, 19
3, 167919, Note_on_c, 0, 72, 0
3, 167929, Note_on_c, 0, 64, 0
3, 167956, Note_on_c, 0, 58, 0
3, 168002, Note_on_c, 0, 72, 67
3, 168762, Note_on_c, 0, 72, 0
3, 168776, Note_on_c, 0, 67, 58
3, 168790, Note_on_c, 0, 57, 54
3, 168792, Note_on_c, 0, 62, 57
3, 168842, Note_on_c, 0, 67, 0
3, 168934, Note_on_c, 0, 62, 0
3, 168944, Note_on_c, 0, 57, 0
3, 168968, Note_on_c, 0, 81, 95
3, 169552, Note_on_c, 0, 81, 0
3, 169653, Note_on_c, 0, 81, 74
3, 169850, Note_on_c, 0, 81, 0
3, 170918, Note_on_c, 0, 60, 44
3, 170954, Note_on_c, 0, 53, 36
3, 170968, Note_on_c, 0, 57, 35
3, 170984, Note_on_c, 0, 50, 19
3, 171079, Note_on_c, 0, 57, 0
3, 171099, Note_on_c, 0, 50, 0
3, 171133, Note_on_c, 0, 60, 0
3, 171165, Note_on_c, 0, 53, 0
3, 172573, Note_on_c, 0, 57, 73
3, 172579, Note_on_c, 0, 62, 70
3, 172593, Note_on_c, 0, 58, 50
3, 172645, Note_on_c, 0, 62, 0
3, 172649, Note_on_c, 0, 57, 0
3, 172673, Note_on_c, 0, 58, 0
3, 172873, Note_on_c, 0, 72, 84
3, 172879, Note_on_c, 0, 84, 87
3, 172913, Note_on_c, 0, 80, 52
3, 172980, Note_on_c, 0, 80, 0
3, 173043, Note_on_c, 0, 72, 0
3, 173224, Note_on_c, 0, 72, 54
3, 173228, Note_on_c, 0, 84, 0
3, 173488, Note_on_c, 0, 72, 0
3, 173508, Note_on_c, 0, 84, 29
3, 173670, Note_on_c, 0, 72, 33
3, 173686, Note_on_c, 0, 84, 0
3, 173939, Note_on_c, 0, 84, 24
3, 174016, Note_on_c, 0, 72, 0
3, 174196, Note_on_c, 0, 72, 40
3, 174206, Note_on_c, 0, 84, 0
3, 174458, Note_on_c, 0, 84, 28
3, 174484, Note_on_c, 0, 72, 0
3, 174529, Note_on_c, 0, 64, 62
3, 174539, Note_on_c, 0, 58, 53
3, 174615, Note_on_c, 0, 64, 0
3, 174688, Note_on_c, 0, 84, 0
3, 174708, Note_on_c, 0, 72, 35
3, 174732, Note_on_c, 0, 58, 0
3, 174982, Note_on_c, 0, 84, 18
3, 174996, Note_on_c, 0, 72, 0
3, 175190, Note_on_c, 0, 84, 0
3, 175202, Note_on_c, 0, 72, 38
3, 175462, Note_on_c, 0, 72, 0
3, 175474, Note_on_c, 0, 84, 34
3, 175664, Note_on_c, 0, 72, 40
3, 175680, Note_on_c, 0, 84, 0
3, 175880, Note_on_c, 0, 72, 0
3, 175898, Note_on_c, 0, 84, 47
3, 176083, Note_on_c, 0, 72, 33
3, 176140, Note_on_c, 0, 84, 0
3, 176376, Note_on_c, 0, 84, 53
3, 176406, Note_on_c, 0, 72, 0
3, 176434, Note_on_c, 0, 62, 57
3, 176442, Note_on_c, 0, 53, 50
3, 176468, Note_on_c, 0, 58, 34
3, 176511, Note_on_c, 0, 62, 0
3, 176583, Note_on_c, 0, 53, 0
3, 176599, Note_on_c, 0, 58, 0
3, 176618, Note_on_c, 0, 84, 0
3, 176640, Note_on_c, 0, 72, 44
3, 176912, Note_on_c, 0, 84, 34
3, 176916, Note_on_c, 0, 72, 0
3, 177180, Note_on_c, 0, 72, 43
3, 177214, Note_on_c, 0, 84, 0
3, 177362, Note_on_c, 0, 62, 58
3, 177428, Note_on_c, 0, 62, 0
3, 177499, Note_on_c, 0, 72, 0
3, 177666, Note_on_c, 0, 82, 74
3, 177692, Note_on_c, 0, 70, 69
3, 178392, Note_on_c, 0, 70, 0
3, 178400, Note_on_c, 0, 82, 0
3, 178604, Note_on_c, 0, 81, 59
3, 178610, Note_on_c, 0, 69, 59
3, 179007, Note_on_c, 0, 81, 0
3, 179081, Note_on_c, 0, 69, 0
3, 179283, Note_on_c, 0, 62, 66
3, 179301, Note_on_c, 0, 58, 50
3, 179350, Note_on_c, 0, 62, 0
3, 179368, Note_on_c, 0, 53, 19
3, 179418, Note_on_c, 0, 58, 0
3, 179469, Note_on_c, 0, 53, 0
3, 180267, Note_on_c, 0, 73, 59
3, 180271, Note_on_c, 0, 63, 82
3, 180281, Note_on_c, 0, 68, 73
3, 180285, Note_on_c, 0, 58, 85
3, 180567, Note_on_c, 0, 58, 0
3, 180668, Note_on_c, 0, 63, 0
3, 180725, Note_on_c, 0, 68, 0
3, 180733, Note_on_c, 0, 73, 0
3, 180747, Note_on_c, 0, 57, 64
3, 180773, Note_on_c, 0, 72, 64
3, 180791, Note_on_c, 0, 67, 66
3, 180809, Note_on_c, 0, 62, 61
3, 181253, Note_on_c, 0, 67, 0
3, 181307, Note_on_c, 0, 62, 0
3, 181320, Note_on_c, 0, 72, 0
3, 181527, Note_on_c, 0, 57, 0
3, 181559, Note_on_c, 0, 71, 36
3, 181582, Note_on_c, 0, 56, 56
3, 181598, Note_on_c, 0, 66, 56
3, 181622, Note_on_c, 0, 62, 56
3, 182064, Note_on_c, 0, 62, 0
3, 182112, Note_on_c, 0, 66, 0
3, 182122, Note_on_c, 0, 71, 0
3, 182245, Note_on_c, 0, 67, 58
3, 182253, Note_on_c, 0, 72, 53
3, 182255, Note_on_c, 0, 62, 62
3, 182265, Note_on_c, 0, 56, 0
3, 182269, Note_on_c, 0, 57, 59
3, 182513, Control_c, 0, 64, 127
3, 182654, Control_c, 0, 64, 0
3, 182733, Control_c, 0, 64, 127
3, 183422, Note_on_c, 0, 57, 0
3, 183876, Note_on_c, 0, 62, 0
3, 184185, Control_c, 0, 64, 0
3, 184283, Note_on_c, 0, 67, 0
3, 184404, Note_on_c, 0, 62, 32
3, 184408, Note_on_c, 0, 72, 0
3, 184432, Note_on_c, 0, 57, 29
3, 184441, Note_on_c, 0, 58, 37
3, 184477, Note_on_c, 0, 52, 25
3, 184771, Note_on_c, 0, 67, 64
3, 184943, Note_on_c, 0, 67, 0
3, 185055, Note_on_c, 0, 69, 63
3, 185193, Note_on_c, 0, 52, 0
3, 185239, Note_on_c, 0, 58, 0
3, 185249, Note_on_c, 0, 69, 0
3, 185275, Note_on_c, 0, 62, 0
3, 185293, Note_on_c, 0, 57, 0
3, 185410, Note_on_c, 0, 70, 48
3, 185507, Note_on_c, 0, 70, 0
3, 185751, Note_on_c, 0, 74, 30
3, 185773, Note_on_c, 0, 72, 24
3, 185872, Note_on_c, 0, 72, 0
3, 185880, Note_on_c, 0, 74, 0
3, 185987, Note_on_c, 0, 78, 78
3, 186199, Note_on_c, 0, 78, 0
3, 186386, Note_on_c, 0, 81, 85
3, 186673, Note_on_c, 0, 81, 0
3, 186943, Note_on_c, 0, 84, 96
3, 187257, Note_on_c, 0, 84, 0
3, 187473, Note_on_c, 0, 82, 59
3, 187812, Note_on_c, 0, 82, 0
3, 187951, Note_on_c, 0, 81, 73
3, 187989, Note_on_c, 0, 61, 36
3, 188003, Note_on_c, 0, 65, 46
3, 188023, Note_on_c, 0, 55, 25
3, 188213, Note_on_c, 0, 81, 0
3, 188449, Note_on_c, 0, 81, 45
3, 188465, Note_on_c, 0, 79, 39
3, 188640, Note_on_c, 0, 81, 0
3, 188757, Note_on_c, 0, 79, 0
3, 188909, Note_on_c, 0, 77, 68
3, 188917, Note_on_c, 0, 81, 60
3, 189011, Note_on_c, 0, 65, 0
3, 189183, Note_on_c, 0, 77, 0
3, 189203, Note_on_c, 0, 81, 0
3, 189247, Note_on_c, 0, 55, 0
3, 189370, Note_on_c, 0, 76, 37
3, 189552, Note_on_c, 0, 61, 0
3, 189671, Note_on_c, 0, 76, 0
3, 189810, Note_on_c, 0, 74, 69
3, 189858, Note_on_c, 0, 79, 40
3, 189907, Note_on_c, 0, 61, 30
3, 190022, Note_on_c, 0, 79, 0
3, 190086, Note_on_c, 0, 74, 0
3, 190094, Note_on_c, 0, 61, 0
3, 190266, Note_on_c, 0, 73, 33
3, 190608, Note_on_c, 0, 73, 0
3, 190826, Note_on_c, 0, 79, 64
3, 190860, Note_on_c, 0, 61, 49
3, 190862, Note_on_c, 0, 73, 43
3, 190881, Note_on_c, 0, 64, 56
3, 190963, Note_on_c, 0, 64, 0
3, 190969, Note_on_c, 0, 55, 20
3, 191034, Note_on_c, 0, 73, 0
3, 191048, Note_on_c, 0, 61, 0
3, 191092, Note_on_c, 0, 79, 0
3, 191104, Note_on_c, 0, 55, 0
3, 191197, Note_on_c, 0, 70, 38
3, 191574, Note_on_c, 0, 70, 0
3, 191820, Note_on_c, 0, 57, 50
3, 191923, Note_on_c, 0, 57, 0
3, 192028, Note_on_c, 0, 76, 67
3, 192036, Note_on_c, 0, 65, 74
3, 192056, Note_on_c, 0, 69, 63
3, 192086, Note_on_c, 0, 64, 56
3, 192108, Note_on_c, 0, 62, 50
3, 192453, Note_on_c, 0, 76, 0
3, 192516, Note_on_c, 0, 62, 0
3, 192532, Note_on_c, 0, 65, 0
3, 192538, Note_on_c, 0, 64, 0
3, 192568, Note_on_c, 0, 69, 0
3, 192645, Note_on_c, 0, 63, 57
3, 192673, Note_on_c, 0, 75, 62
3, 192695, Note_on_c, 0, 69, 65
3, 192699, Note_on_c, 0, 65, 57
3, 192915, Note_on_c, 0, 63, 0
3, 192931, Note_on_c, 0, 65, 0
3, 192933, Note_on_c, 0, 75, 0
3, 192967, Note_on_c, 0, 62, 54
3, 193020, Note_on_c, 0, 74, 51
3, 193024, Note_on_c, 0, 65, 24
3, 193262, Note_on_c, 0, 74, 0
3, 193304, Note_on_c, 0, 65, 0
3, 193322, Note_on_c, 0, 69, 0
3, 193562, Note_on_c, 0, 62, 0
3, 193602, Note_on_c, 0, 61, 55
3, 193603, Note_on_c, 0, 73, 38
3, 193631, Note_on_c, 0, 69, 48
3, 193639, Note_on_c, 0, 65, 59
3, 193820, Note_on_c, 0, 65, 0
3, 193863, Note_on_c, 0, 61, 0
3, 193863, Note_on_c, 0, 73, 0
3, 193945, Note_on_c, 0, 60, 32
3, 193986, Note_on_c, 0, 72, 37
3, 194066, Note_on_c, 0, 65, 27
3, 194191, Note_on_c, 0, 69, 0
3, 194512, Note_on_c, 0, 65, 0
3, 194560, Note_on_c, 0, 72, 0
3, 194647, Note_on_c, 0, 57, 45
3, 194649, Note_on_c, 0, 60, 0
3, 194830, Note_on_c, 0, 57, 0
3, 194865, Note_on_c, 0, 65, 49
3, 194877, Note_on_c, 0, 69, 42
3, 195462, Note_on_c, 0, 65, 0
3, 195498, Note_on_c, 0, 69, 0
3, 195566, Note_on_c, 0, 31, 68
3, 195576, Note_on_c, 0, 33, 68
3, 195824, Note_on_c, 0, 33, 0
3, 195826, Note_on_c, 0, 31, 0
3, 195935, Note_on_c, 0, 76, 69
3, 195951, Note_on_c, 0, 65, 68
3, 196641, Note_on_c, 0, 65, 0
3, 196653, Note_on_c, 0, 76, 0
3, 196835, Note_on_c, 0, 74, 52
3, 196843, Note_on_c, 0, 65, 44
3, 196863, Note_on_c, 0, 64, 61
3, 196883, Note_on_c, 0, 69, 34
3, 197373, Note_on_c, 0, 65, 0
3, 197391, Note_on_c, 0, 69, 0
3, 197472, Note_on_c, 0, 74, 0
3, 197526, Note_on_c, 0, 64, 0
3, 197786, Note_on_c, 0, 64, 62
3, 197790, Note_on_c, 0, 69, 74
3, 197796, Note_on_c, 0, 76, 71
3, 197804, Note_on_c, 0, 65, 76
3, 198292, Note_on_c, 0, 65, 0
3, 198339, Note_on_c, 0, 69, 0
3, 198363, Note_on_c, 0, 76, 0
3, 198433, Note_on_c, 0, 64, 0
3, 198468, Note_on_c, 0, 74, 60
3, 198492, Note_on_c, 0, 69, 39
3, 198504, Note_on_c, 0, 62, 55
3, 198575, Note_on_c, 0, 62, 0
3, 198591, Note_on_c, 0, 69, 0
3, 198694, Note_on_c, 0, 74, 0
3, 199395, Note_on_c, 0, 60, 66
3, 199407, Note_on_c, 0, 57, 64
3, 199409, Note_on_c, 0, 53, 50
3, 199462, Note_on_c, 0, 60, 0
3, 199552, Note_on_c, 0, 75, 77
3, 199554, Note_on_c, 0, 79, 78
3, 199555, Note_on_c, 0, 67, 87
3, 199565, Note_on_c, 0, 57, 0
3, 199613, Note_on_c, 0, 53, 0
3, 199627, Note_on_c, 0, 76, 59
3, 199665, Note_on_c, 0, 75, 0
3, 199690, Note_on_c, 0, 77, 22
3, 199992, Note_on_c, 0, 77, 0
3, 200732, Control_c, 0, 64, 127
3, 201311, Control_c, 0, 64, 0
3, 201339, Note_on_c, 0, 60, 54
3, 201361, Note_on_c, 0, 57, 46
3, 201387, Note_on_c, 0, 53, 29
3, 201405, Note_on_c, 0, 60, 0
3, 201464, Note_on_c, 0, 57, 0
3, 201482, Note_on_c, 0, 67, 0
3, 201520, Note_on_c, 0, 53, 0
3, 201613, Note_on_c, 0, 76, 0
3, 201661, Note_on_c, 0, 79, 0
3, 202289, Note_on_c, 0, 81, 81
3, 202537, Note_on_c, 0, 81, 0
3, 202692, Note_on_c, 0, 79, 45
3, 203162, Note_on_c, 0, 79, 0
3, 203250, Note_on_c, 0, 77, 65
3, 203266, Note_on_c, 0, 59, 58
3, 203281, Note_on_c, 0, 64, 60
3, 203283, Note_on_c, 0, 53, 52
3, 203462, Note_on_c, 0, 64, 0
3, 203545, Note_on_c, 0, 53, 0
3, 203593, Note_on_c, 0, 77, 0
3, 203793, Note_on_c, 0, 75, 50
3, 203809, Note_on_c, 0, 59, 0
3, 204033, Note_on_c, 0, 76, 47
3, 204148, Note_on_c, 0, 75, 0
3, 204301, Note_on_c, 0, 76, 0
3, 204555, Note_on_c, 0, 73, 48
3, 204756, Note_on_c, 0, 74, 39
3, 204924, Note_on_c, 0, 73, 0
3, 205150, Note_on_c, 0, 74, 0
3, 205244, Note_on_c, 0, 64, 28
3, 205259, Note_on_c, 0, 59, 33
3, 205323, Note_on_c, 0, 64, 0
3, 205414, Note_on_c, 0, 59, 0
3, 205456, Note_on_c, 0, 70, 36
3, 205642, Note_on_c, 0, 71, 54
3, 205732, Note_on_c, 0, 70, 0
3, 205968, Note_on_c, 0, 71, 0
3, 206091, Note_on_c, 0, 59, 43
3, 206093, Note_on_c, 0, 64, 44
3, 206180, Note_on_c, 0, 64, 0
3, 206277, Note_on_c, 0, 59, 0
3, 207047, Note_on_c, 0, 58, 64
3, 207051, Note_on_c, 0, 62, 60
3, 207053, Note_on_c, 0, 57, 60
3, 207130, Note_on_c, 0, 57, 0
3, 207138, Note_on_c, 0, 62, 0
3, 207194, Note_on_c, 0, 58, 0
3, 207351, Note_on_c, 0, 82, 83
3, 207353, Note_on_c, 0, 70, 83
3, 207791, Control_c, 0, 64, 127
3, 207862, Note_on_c, 0, 70, 0
3, 207894, Note_on_c, 0, 82, 0
3, 207972, Control_c, 0, 64, 0
3, 207978, Note_on_c, 0, 72, 65
3, 207989, Note_on_c, 0, 84, 69
3, 208075, Note_on_c, 0, 83, 26
3, 208148, Note_on_c, 0, 83, 0
3, 208166, Note_on_c, 0, 72, 0
3, 208196, Note_on_c, 0, 57, 19
3, 208208, Note_on_c, 0, 84, 0
3, 208392, Note_on_c, 0, 70, 45
3, 208422, Note_on_c, 0, 82, 33
3, 208440, Note_on_c, 0, 57, 0
3, 208724, Note_on_c, 0, 70, 0
3, 208811, Note_on_c, 0, 82, 0
3, 208976, Note_on_c, 0, 84, 64
3, 209009, Note_on_c, 0, 72, 54
3, 209017, Note_on_c, 0, 58, 55
3, 209043, Note_on_c, 0, 62, 47
3, 209063, Note_on_c, 0, 57, 37
3, 209118, Note_on_c, 0, 72, 0
3, 209180, Note_on_c, 0, 84, 0
3, 209190, Note_on_c, 0, 62, 0
3, 209231, Note_on_c, 0, 58, 0
3, 209311, Note_on_c, 0, 57, 0
3, 209388, Note_on_c, 0, 82, 42
3, 209392, Note_on_c, 0, 70, 42
3, 209821, Note_on_c, 0, 82, 0
3, 209829, Note_on_c, 0, 70, 0
3, 209981, Note_on_c, 0, 57, 35
3, 210021, Note_on_c, 0, 58, 31
3, 210100, Note_on_c, 0, 58, 0
3, 210114, Note_on_c, 0, 57, 0
3, 210237, Note_on_c, 0, 81, 68
3, 210261, Note_on_c, 0, 69, 64
3, 210656, Note_on_c, 0, 81, 0
3, 210807, Note_on_c, 0, 69, 0
3, 211202, Note_on_c, 0, 57, 44
3, 211223, Note_on_c, 0, 79, 58
3, 211231, Note_on_c, 0, 67, 60
3, 211235, Note_on_c, 0, 62, 41
3, 211243, Note_on_c, 0, 58, 47
3, 211888, Control_c, 0, 64, 127
3, 212231, Note_on_c, 0, 79, 0
3, 212356, Note_on_c, 0, 57, 0
3, 212384, Note_on_c, 0, 58, 0
3, 212463, Note_on_c, 0, 67, 0
3, 212479, Note_on_c, 0, 62, 0
3, 213003, Control_c, 0, 64, 0
3, 213203, Note_on_c, 0, 76, 83
3, 213207, Note_on_c, 0, 71, 82
3, 213209, Note_on_c, 0, 68, 83
3, 213211, Note_on_c, 0, 65, 99
3, 213227, Note_on_c, 0, 64, 92
3, 213265, Note_on_c, 0, 74, 35
3, 213551, Note_on_c, 0, 76, 0
3, 213642, Note_on_c, 0, 74, 0
3, 213693, Note_on_c, 0, 65, 0
3, 213737, Note_on_c, 0, 68, 0
3, 213793, Note_on_c, 0, 71, 0
3, 213846, Note_on_c, 0, 63, 67
3, 213848, Note_on_c, 0, 75, 61
3, 213880, Note_on_c, 0, 65, 62
3, 213882, Note_on_c, 0, 64, 0
3, 213904, Note_on_c, 0, 68, 33
3, 213906, Note_on_c, 0, 71, 32
3, 214108, Note_on_c, 0, 65, 0
3, 214128, Note_on_c, 0, 75, 0
3, 214138, Note_on_c, 0, 71, 0
3, 214193, Note_on_c, 0, 63, 0
3, 214237, Note_on_c, 0, 65, 25
3, 214243, Note_on_c, 0, 62, 57
3, 214650, Note_on_c, 0, 68, 0
3, 214759, Note_on_c, 0, 65, 0
3, 214810, Note_on_c, 0, 62, 0
3, 214866, Note_on_c, 0, 58, 33
3, 215053, Note_on_c, 0, 58, 0
3, 215114, Note_on_c, 0, 72, 54
3, 215120, Note_on_c, 0, 65, 70
3, 215130, Note_on_c, 0, 60, 37
3, 215787, Note_on_c, 0, 60, 0
3, 216070, Note_on_c, 0, 60, 50
3, 216072, Note_on_c, 0, 65, 0
3, 216777, Note_on_c, 0, 60, 0
3, 216890, Note_on_c, 0, 72, 0
3, 217015, Note_on_c, 0, 60, 58
3, 217626, Note_on_c, 0, 57, 38
3, 217735, Note_on_c, 0, 57, 0
3, 218655, Note_on_c, 0, 57, 37
3, 218767, Note_on_c, 0, 57, 0
3, 220300, Note_on_c, 0, 61, 59
3, 220338, Note_on_c, 0, 60, 0
3, 220574, Note_on_c, 0, 63, 53
3, 220626, Note_on_c, 0, 61, 0
3, 220784, Note_on_c, 0, 63, 0
3, 220907, Note_on_c, 0, 64, 65
3, 221120, Note_on_c, 0, 64, 0
3, 221227, Note_on_c, 0, 68, 23
3, 221433, Note_on_c, 0, 72, 55
3, 221483, Note_on_c, 0, 68, 0
3, 221612, Note_on_c, 0, 63, 25
3, 221693, Note_on_c, 0, 72, 0
3, 221701, Note_on_c, 0, 58, 37
3, 221709, Note_on_c, 0, 63, 0
3, 221725, Note_on_c, 0, 52, 26
3, 221758, Note_on_c, 0, 75, 79
3, 221852, Note_on_c, 0, 52, 0
3, 221955, Note_on_c, 0, 58, 0
3, 222268, Note_on_c, 0, 75, 0
3, 222340, Note_on_c, 0, 73, 56
3, 222499, Note_on_c, 0, 57, 33
3, 222647, Note_on_c, 0, 57, 0
3, 222748, Note_on_c, 0, 73, 0
3, 222818, Note_on_c, 0, 72, 49
3, 223240, Note_on_c, 0, 72, 0
3, 223703, Note_on_c, 0, 74, 82
3, 225256, Note_on_c, 0, 74, 0
3, 225318, Note_on_c, 0, 54, 27
3, 225532, Note_on_c, 0, 54, 0
3, 225538, Note_on_c, 0, 72, 44
3, 225558, Note_on_c, 0, 57, 55
3, 225576, Note_on_c, 0, 62, 56
3, 225586, Note_on_c, 0, 67, 55
3, 225730, Note_on_c, 0, 62, 0
3, 225750, Note_on_c, 0, 57, 0
3, 225849, Note_on_c, 0, 67, 0
3, 225911, Note_on_c, 0, 72, 0
3, 226582, Note_on_c, 0, 77, 80
3, 226584, Note_on_c, 0, 57, 71
3, 226587, Note_on_c, 0, 89, 78
3, 226589, Note_on_c, 0, 84, 75
3, 226605, Note_on_c, 0, 62, 71
3, 226611, Note_on_c, 0, 53, 55
3, 226615, Note_on_c, 0, 58, 53
3, 227619, Control_c, 0, 64, 127
3, 227859, Note_on_c, 0, 57, 0
3, 227861, Note_on_c, 0, 53, 0
3, 227925, Note_on_c, 0, 77, 0
3, 227933, Note_on_c, 0, 89, 0
3, 227945, Note_on_c, 0, 58, 0
3, 227960, Note_on_c, 0, 62, 0
3, 228010, Note_on_c, 0, 84, 0
3, 229071, Control_c, 0, 64, 0
3, 229222, Note_on_c, 0, 61, 71
3, 229226, Note_on_c, 0, 58, 71
3, 229236, Note_on_c, 0, 82, 74
3, 229238, Note_on_c, 0, 64, 73
3, 229242, Note_on_c, 0, 88, 73
3, 229244, Note_on_c, 0, 76, 73
3, 229409, Note_on_c, 0, 76, 0
3, 229417, Note_on_c, 0, 64, 0
3, 229526, Note_on_c, 0, 82, 0
3, 229560, Note_on_c, 0, 88, 0
3, 229581, Note_on_c, 0, 58, 0
3, 229599, Note_on_c, 0, 61, 0
3, 229923, Note_on_c, 0, 61, 70
3, 229929, Note_on_c, 0, 58, 73
3, 229944, Note_on_c, 0, 94, 74
3, 229950, Note_on_c, 0, 64, 69
3, 229962, Note_on_c, 0, 82, 77
3, 229986, Control_c, 0, 64, 127
3, 230234, Note_on_c, 0, 64, 0
3, 230272, Note_on_c, 0, 58, 0
3, 230304, Control_c, 0, 64, 0
3, 230331, Note_on_c, 0, 61, 0
3, 230381, Note_on_c, 0, 94, 0
3, 230389, Note_on_c, 0, 82, 0
3, 230550, Note_on_c, 0, 57, 77
3, 230552, Note_on_c, 0, 62, 74
3, 230555, Note_on_c, 0, 67, 72
3, 230559, Note_on_c, 0, 88, 69
3, 230563, Note_on_c, 0, 81, 69
3, 230565, Note_on_c, 0, 93, 76
3, 230601, Note_on_c, 0, 90, 37
3, 230863, Control_c, 0, 64, 127
3, 231258, Note_on_c, 0, 67, 0
3, 231303, Note_on_c, 0, 62, 0
3, 231351, Note_on_c, 0, 57, 0
3, 231377, Note_on_c, 0, 93, 0
3, 231401, Note_on_c, 0, 90, 0
3, 231405, Note_on_c, 0, 88, 0
3, 231514, Note_on_c, 0, 81, 0
3, 232036, Control_c, 0, 64, 0
3, 232317, Note_on_c, 0, 88, 64
3, 232329, Note_on_c, 0, 83, 64
3, 232335, Note_on_c, 0, 57, 51
3, 232339, Note_on_c, 0, 76, 51
3, 232347, Note_on_c, 0, 50, 48
3, 232349, Note_on_c, 0, 53, 41
3, 232353, Note_on_c, 0, 60, 54
3, 232736, Control_c, 0, 64, 127
3, 233037, Note_on_c, 0, 88, 0
3, 233133, Note_on_c, 0, 83, 0
3, 233242, Note_on_c, 0, 50, 0
3, 233264, Note_on_c, 0, 76, 0
3, 233317, Note_on_c, 0, 57, 0
3, 233331, Note_on_c, 0, 53, 0
3, 233379, Note_on_c, 0, 60, 0
3, 234103, Control_c, 0, 64, 0
3, 234260, Note_on_c, 0, 76, 80
3, 234264, Note_on_c, 0, 69, 81
3, 234268, Note_on_c, 0, 71, 69
3, 234270, Note_on_c, 0, 65, 88
3, 234272, Note_on_c, 0, 64, 88
3, 235666, Note_on_c, 0, 69, 0
3, 235716, Note_on_c, 0, 71, 0
3, 235801, Note_on_c, 0, 65, 0
3, 235861, Note_on_c, 0, 76, 0
3, 236123, Note_on_c, 0, 64, 0
3, 236176, Note_on_c, 0, 62, 45
3, 236186, Note_on_c, 0, 65, 54
3, 236190, Note_on_c, 0, 70, 39
3, 236196, Note_on_c, 0, 68, 39
3, 236200, Note_on_c, 0, 56, 44
3, 236206, Note_on_c, 0, 74, 41
3, 236388, Note_on_c, 0, 65, 0
3, 236488, Note_on_c, 0, 68, 0
3, 236525, Note_on_c, 0, 70, 0
3, 236720, Note_on_c, 0, 74, 0
3, 237132, Note_on_c, 0, 74, 84
3, 237176, Note_on_c, 0, 62, 0
3, 237339, Note_on_c, 0, 56, 0
3, 237835, Note_on_c, 0, 73, 65
3, 237936, Note_on_c, 0, 74, 0
3, 238047, Note_on_c, 0, 73, 0
3, 238718, Note_on_c, 0, 56, 67
3, 238722, Note_on_c, 0, 45, 55
3, 238960, Note_on_c, 0, 56, 0
3, 239140, Note_on_c, 0, 54, 31
3, 239557, Note_on_c, 0, 45, 0
3, 239831, Note_on_c, 0, 54, 0
3, 240019, Note_on_c, 0, 47, 54
3, 240035, Note_on_c, 0, 57, 62
3, 240759, Note_on_c, 0, 57, 0
3, 240982, Note_on_c, 0, 56, 53
3, 241670, Note_on_c, 0, 47, 0
3, 241797, Note_on_c, 0, 56, 0
3, 241958, Note_on_c, 0, 64, 83
3, 241966, Note_on_c, 0, 59, 73
3, 242047, Note_on_c, 0, 50, 53
3, 242239, Note_on_c, 0, 50, 0
3, 242793, Note_on_c, 0, 59, 0
3, 242797, Note_on_c, 0, 56, 25
3, 242884, Note_on_c, 0, 63, 50
3, 242948, Note_on_c, 0, 59, 29
3, 242977, Note_on_c, 0, 64, 0
3, 243277, Note_on_c, 0, 59, 0
3, 243424, Note_on_c, 0, 56, 0
3, 243495, Note_on_c, 0, 63, 0
3, 243549, Note_on_c, 0, 66, 57
3, 243559, Note_on_c, 0, 57, 60
3, 243573, Note_on_c, 0, 62, 66
3, 244273, Note_on_c, 0, 57, 0
3, 244450, Control_c, 0, 64, 127
3, 244497, Note_on_c, 0, 50, 71
3, 244697, Note_on_c, 0, 62, 0
3, 244751, Note_on_c, 0, 50, 0
3, 244838, Note_on_c, 0, 66, 0
3, 245523, Control_c, 0, 64, 0
3, 245737, Note_on_c, 0, 56, 73
3, 245743, Note_on_c, 0, 52, 76
3, 245747, Note_on_c, 0, 80, 83
3, 245749, Note_on_c, 0, 62, 90
3, 245755, Note_on_c, 0, 68, 86
3, 246019, Control_c, 0, 64, 127
3, 246180, Note_on_c, 0, 52, 0
3, 246203, Note_on_c, 0, 80, 0
3, 246219, Note_on_c, 0, 62, 0
3, 246251, Note_on_c, 0, 68, 0
3, 246263, Note_on_c, 0, 56, 0
3, 246392, Note_on_c, 0, 68, 57
3, 246396, Note_on_c, 0, 80, 55
3, 246398, Note_on_c, 0, 52, 46
3, 246400, Note_on_c, 0, 56, 65
3, 246402, Note_on_c, 0, 62, 70
3, 246422, Control_c, 0, 64, 0
3, 246465, Note_on_c, 0, 78, 37
3, 246555, Note_on_c, 0, 62, 0
3, 246602, Note_on_c, 0, 80, 0
3, 246622, Note_on_c, 0, 68, 0
3, 246652, Note_on_c, 0, 78, 0
3, 246723, Control_c, 0, 64, 127
3, 246739, Note_on_c, 0, 80, 46
3, 246741, Note_on_c, 0, 62, 56
3, 246763, Note_on_c, 0, 68, 55
3, 246947, Note_on_c, 0, 52, 0
3, 247084, Note_on_c, 0, 62, 0
3, 247110, Note_on_c, 0, 68, 0
3, 247112, Note_on_c, 0, 56, 0
3, 247132, Note_on_c, 0, 80, 0
3, 247338, Control_c, 0, 64, 0
3, 247346, Note_on_c, 0, 80, 62
3, 247348, Note_on_c, 0, 68, 67
3, 247396, Note_on_c, 0, 60, 62
3, 247406, Note_on_c, 0, 54, 69
3, 247416, Note_on_c, 0, 63, 55
3, 247568, Note_on_c, 0, 63, 0
3, 247630, Note_on_c, 0, 68, 0
3, 247671, Note_on_c, 0, 54, 0
3, 247677, Note_on_c, 0, 80, 0
3, 247771, Note_on_c, 0, 63, 45
3, 247804, Note_on_c, 0, 54, 56
3, 247822, Note_on_c, 0, 81, 56
3, 247858, Note_on_c, 0, 75, 30
3, 247864, Note_on_c, 0, 69, 32
3, 247929, Note_on_c, 0, 78, 9
3, 248152, Note_on_c, 0, 54, 0
3, 248158, Note_on_c, 0, 63, 0
3, 248173, Note_on_c, 0, 81, 0
3, 248187, Note_on_c, 0, 69, 0
3, 248237, Note_on_c, 0, 75, 0
3, 248245, Note_on_c, 0, 78, 0
3, 248247, Note_on_c, 0, 60, 0
3, 248626, Note_on_c, 0, 63, 69
3, 248628, Note_on_c, 0, 54, 63
3, 248648, Note_on_c, 0, 75, 61
3, 248650, Note_on_c, 0, 81, 58
3, 248665, Note_on_c, 0, 69, 57
3, 248677, Note_on_c, 0, 60, 43
3, 248808, Control_c, 0, 64, 127
3, 248949, Note_on_c, 0, 60, 0
3, 249076, Note_on_c, 0, 69, 0
3, 249094, Note_on_c, 0, 81, 0
3, 249171, Note_on_c, 0, 54, 0
3, 249183, Note_on_c, 0, 63, 0
3, 249227, Control_c, 0, 64, 0
3, 249290, Note_on_c, 0, 75, 0
3, 249638, Note_on_c, 0, 82, 68
3, 249648, Note_on_c, 0, 70, 67
3, 249653, Note_on_c, 0, 65, 68
3, 249655, Note_on_c, 0, 77, 63
3, 249659, Note_on_c, 0, 62, 60
3, 249675, Note_on_c, 0, 55, 49
3, 249679, Note_on_c, 0, 58, 50
3, 249761, Control_c, 0, 64, 127
3, 250491, Note_on_c, 0, 65, 0
3, 250503, Note_on_c, 0, 62, 0
3, 250505, Note_on_c, 0, 70, 0
3, 250530, Note_on_c, 0, 77, 0
3, 250618, Note_on_c, 0, 58, 0
3, 250643, Note_on_c, 0, 82, 0
3, 250701, Note_on_c, 0, 55, 0
3, 251036, Control_c, 0, 64, 0
3, 251266, Note_on_c, 0, 48, 94
3, 251292, Note_on_c, 0, 47, 77
3, 251417, Note_on_c, 0, 47, 0
3, 252282, Note_on_c, 0, 47, 43
3, 252491, Note_on_c, 0, 74, 113
3, 252560, Note_on_c, 0, 47, 0
3, 252580, Note_on_c, 0, 48, 0
3, 254165, Note_on_c, 0, 57, 38
3, 254280, Note_on_c, 0, 74, 0
3, 254300, Note_on_c, 0, 57, 0
3, 254415, Note_on_c, 0, 72, 77
3, 255346, Note_on_c, 0, 65, 58
3, 255907, Note_on_c, 0, 65, 0
3, 256038, Note_on_c, 0, 65, 62
3, 256094, Note_on_c, 0, 72, 0
3, 256115, Note_on_c, 0, 65, 0
3, 257316, Note_on_c, 0, 62, 35
3, 257328, Note_on_c, 0, 57, 32
3, 257332, Note_on_c, 0, 58, 40
3, 257385, Note_on_c, 0, 53, 20
3, 257542, Note_on_c, 0, 53, 0
3, 257544, Note_on_c, 0, 62, 0
3, 257562, Note_on_c, 0, 57, 0
3, 257564, Note_on_c, 0, 58, 0
3, 258004, Note_on_c, 0, 57, 33
3, 258161, Note_on_c, 0, 57, 0
3, 258266, Note_on_c, 0, 84, 90
3, 258272, Note_on_c, 0, 72, 88
3, 258322, Note_on_c, 0, 74, 40
3, 258405, Note_on_c, 0, 74, 0
3, 258629, Note_on_c, 0, 72, 0
3, 258736, Note_on_c, 0, 72, 33
3, 258782, Note_on_c, 0, 84, 0
3, 259022, Note_on_c, 0, 72, 0
3, 259046, Note_on_c, 0, 84, 35
3, 259204, Note_on_c, 0, 72, 37
3, 259240, Note_on_c, 0, 84, 0
3, 259512, Note_on_c, 0, 84, 38
3, 259569, Note_on_c, 0, 72, 0
3, 259800, Note_on_c, 0, 72, 46
3, 259812, Note_on_c, 0, 84, 0
3, 259899, Note_on_c, 0, 62, 57
3, 259938, Note_on_c, 0, 58, 31
3, 259946, Note_on_c, 0, 52, 25
3, 259966, Note_on_c, 0, 62, 0
3, 260022, Note_on_c, 0, 52, 0
3, 260024, Note_on_c, 0, 58, 0
3, 260051, Note_on_c, 0, 84, 31
3, 260057, Note_on_c, 0, 72, 0
3, 260295, Note_on_c, 0, 84, 0
3, 260304, Note_on_c, 0, 72, 39
3, 260593, Note_on_c, 0, 84, 33
3, 260599, Note_on_c, 0, 72, 0
3, 260825, Note_on_c, 0, 72, 33
3, 260827, Note_on_c, 0, 84, 0
3, 261103, Note_on_c, 0, 84, 29
3, 261135, Note_on_c, 0, 72, 0
3, 261321, Note_on_c, 0, 72, 37
3, 261347, Note_on_c, 0, 84, 0
3, 261597, Note_on_c, 0, 72, 0
3, 261641, Note_on_c, 0, 84, 52
3, 261744, Note_on_c, 0, 67, 62
3, 261764, Note_on_c, 0, 57, 54
3, 261811, Note_on_c, 0, 62, 51
3, 261863, Note_on_c, 0, 72, 50
3, 261895, Note_on_c, 0, 84, 0
3, 261909, Note_on_c, 0, 67, 0
3, 261976, Note_on_c, 0, 62, 0
3, 261994, Note_on_c, 0, 57, 0
3, 262113, Note_on_c, 0, 72, 0
3, 262117, Note_on_c, 0, 84, 49
3, 262333, Note_on_c, 0, 72, 42
3, 262371, Note_on_c, 0, 84, 0
3, 262577, Note_on_c, 0, 72, 0
3, 262601, Note_on_c, 0, 84, 52
3, 262823, Note_on_c, 0, 72, 50
3, 262833, Note_on_c, 0, 84, 0
3, 263047, Note_on_c, 0, 84, 53
3, 263071, Note_on_c, 0, 72, 0
3, 263279, Note_on_c, 0, 72, 48
3, 263333, Note_on_c, 0, 84, 0
3, 263605, Note_on_c, 0, 72, 0
3, 263609, Note_on_c, 0, 84, 65
3, 263664, Note_on_c, 0, 57, 68
3, 263674, Note_on_c, 0, 60, 70
3, 263688, Note_on_c, 0, 50, 51
3, 263690, Note_on_c, 0, 53, 43
3, 263783, Note_on_c, 0, 50, 0
3, 263825, Note_on_c, 0, 72, 48
3, 263827, Note_on_c, 0, 60, 0
3, 263855, Note_on_c, 0, 84, 0
3, 263899, Note_on_c, 0, 53, 0
3, 263914, Note_on_c, 0, 57, 0
3, 264079, Note_on_c, 0, 84, 52
3, 264081, Note_on_c, 0, 72, 0
3, 264305, Note_on_c, 0, 72, 55
3, 264349, Note_on_c, 0, 84, 0
3, 264597, Note_on_c, 0, 72, 0
3, 264613, Note_on_c, 0, 84, 60
3, 264649, Note_on_c, 0, 82, 37
3, 264680, Note_on_c, 0, 62, 91
3, 264686, Note_on_c, 0, 57, 80
3, 264688, Note_on_c, 0, 53, 75
3, 264694, Note_on_c, 0, 58, 71
3, 264756, Note_on_c, 0, 82, 0
3, 264865, Note_on_c, 0, 72, 60
3, 264871, Note_on_c, 0, 84, 0
3, 265091, Note_on_c, 0, 72, 0
3, 265103, Note_on_c, 0, 84, 55
3, 265297, Note_on_c, 0, 72, 48
3, 265345, Note_on_c, 0, 84, 0
3, 265553, Note_on_c, 0, 72, 0
3, 265561, Note_on_c, 0, 84, 54
3, 265752, Note_on_c, 0, 72, 39
3, 265793, Note_on_c, 0, 84, 0
3, 265986, Note_on_c, 0, 84, 44
3, 266039, Note_on_c, 0, 72, 0
3, 266083, Note_on_c, 0, 62, 0
3, 266093, Note_on_c, 0, 57, 0
3, 266170, Note_on_c, 0, 58, 0
3, 266212, Note_on_c, 0, 53, 0
3, 266234, Note_on_c, 0, 72, 53
3, 266295, Note_on_c, 0, 84, 0
3, 266512, Note_on_c, 0, 84, 47
3, 266541, Note_on_c, 0, 72, 0
3, 266591, Note_on_c, 0, 62, 92
3, 266593, Note_on_c, 0, 58, 83
3, 266599, Note_on_c, 0, 52, 75
3, 266742, Note_on_c, 0, 72, 49
3, 266777, Note_on_c, 0, 84, 0
3, 266982, Note_on_c, 0, 72, 0
3, 267010, Note_on_c, 0, 84, 53
3, 267045, Control_c, 0, 64, 127
3, 267186, Note_on_c, 0, 72, 44
3, 267248, Note_on_c, 0, 84, 0
3, 267428, Note_on_c, 0, 52, 0
3, 267482, Note_on_c, 0, 84, 57
3, 267537, Note_on_c, 0, 72, 0
3, 267571, Note_on_c, 0, 58, 0
3, 267662, Note_on_c, 0, 62, 0
3, 267700, Control_c, 0, 64, 0
3, 267765, Note_on_c, 0, 72, 70
3, 267789, Note_on_c, 0, 84, 0
3, 267879, Note_on_c, 0, 61, 32
3, 267982, Control_c, 0, 64, 127
3, 267996, Note_on_c, 0, 61, 0
3, 268005, Note_on_c, 0, 79, 51
3, 268013, Note_on_c, 0, 84, 64
3, 268015, Note_on_c, 0, 72, 0
3, 268273, Note_on_c, 0, 72, 71
3, 268291, Note_on_c, 0, 84, 0
3, 268369, Note_on_c, 0, 79, 0
3, 268381, Control_c, 0, 64, 0
3, 268383, Note_on_c, 0, 63, 76
3, 268385, Note_on_c, 0, 58, 85
3, 268387, Note_on_c, 0, 67, 91
3, 268390, Note_on_c, 0, 62, 83
3, 268527, Note_on_c, 0, 79, 56
3, 268553, Note_on_c, 0, 84, 68
3, 268565, Note_on_c, 0, 72, 0
3, 268755, Note_on_c, 0, 72, 56
3, 268819, Control_c, 0, 64, 127
3, 268821, Note_on_c, 0, 84, 0
3, 268835, Note_on_c, 0, 79, 0
3, 269035, Note_on_c, 0, 79, 43
3, 269041, Note_on_c, 0, 84, 59
3, 269045, Note_on_c, 0, 72, 0
3, 269283, Note_on_c, 0, 72, 62
3, 269291, Note_on_c, 0, 84, 0
3, 269337, Note_on_c, 0, 79, 0
3, 269511, Note_on_c, 0, 79, 47
3, 269535, Note_on_c, 0, 72, 0
3, 269541, Note_on_c, 0, 84, 58
3, 269740, Note_on_c, 0, 72, 58
3, 269761, Note_on_c, 0, 84, 0
3, 269785, Note_on_c, 0, 79, 0
3, 269851, Note_on_c, 0, 62, 0
3, 269987, Note_on_c, 0, 79, 42
3, 269997, Note_on_c, 0, 84, 48
3, 270015, Note_on_c, 0, 72, 0
3, 270017, Note_on_c, 0, 67, 0
3, 270063, Note_on_c, 0, 63, 0
3, 270116, Note_on_c, 0, 58, 0
3, 270251, Note_on_c, 0, 84, 0
3, 270267, Note_on_c, 0, 72, 66
3, 270317, Note_on_c, 0, 79, 0
3, 270370, Note_on_c, 0, 63, 80
3, 270372, Note_on_c, 0, 67, 87
3, 270376, Note_on_c, 0, 57, 82
3, 270448, Control_c, 0, 64, 0
3, 270515, Note_on_c, 0, 78, 60
3, 270523, Note_on_c, 0, 84, 55
3, 270555, Note_on_c, 0, 72, 0
3, 270759, Note_on_c, 0, 72, 52
3, 270763, Note_on_c, 0, 84, 0
3, 270853, Note_on_c, 0, 78, 0
3, 271001, Note_on_c, 0, 78, 46
3, 271029, Note_on_c, 0, 84, 47
3, 271051, Note_on_c, 0, 72, 0
3, 271277, Note_on_c, 0, 72, 58
3, 271295, Note_on_c, 0, 84, 0
3, 271361, Note_on_c, 0, 78, 0
3, 271477, Note_on_c, 0, 78, 39
3, 271533, Note_on_c, 0, 84, 48
3, 271539, Note_on_c, 0, 72, 0
3, 271624, Control_c, 0, 64, 127
3, 271731, Note_on_c, 0, 72, 50
3, 271743, Note_on_c, 0, 84, 0
3, 271851, Note_on_c, 0, 67, 0
3, 271872, Note_on_c, 0, 78, 0
3, 271984, Note_on_c, 0, 78, 33
3, 271985, Note_on_c, 0, 57, 0
3, 271993, Note_on_c, 0, 84, 54
3, 272001, Note_on_c, 0, 72, 0
3, 272049, Note_on_c, 0, 63, 0
3, 272077, Control_c, 0, 64, 0
3, 272204, Note_on_c, 0, 65, 85
3, 272212, Note_on_c, 0, 62, 79
3, 272216, Note_on_c, 0, 60, 67
3, 272229, Note_on_c, 0, 55, 67
3, 272283, Note_on_c, 0, 58, 30
3, 272285, Note_on_c, 0, 84, 0
3, 272315, Note_on_c, 0, 72, 59
3, 272360, Note_on_c, 0, 58, 0
3, 272414, Note_on_c, 0, 78, 0
3, 272571, Note_on_c, 0, 77, 55
3, 272678, Note_on_c, 0, 81, 36
3, 272698, Note_on_c, 0, 84, 43
3, 272739, Note_on_c, 0, 72, 0
3, 272942, Note_on_c, 0, 60, 0
3, 272967, Note_on_c, 0, 62, 0
3, 273009, Note_on_c, 0, 72, 16
3, 273174, Note_on_c, 0, 81, 0
3, 273215, Note_on_c, 0, 84, 0
3, 273229, Note_on_c, 0, 77, 0
3, 273293, Control_c, 0, 64, 127
3, 273329, Note_on_c, 0, 72, 0
3, 273333, Note_on_c, 0, 60, 24
3, 273356, Note_on_c, 0, 65, 0
3, 273394, Control_c, 0, 64, 0
3, 273430, Note_on_c, 0, 62, 42
3, 273457, Note_on_c, 0, 55, 0
3, 273561, Note_on_c, 0, 65, 58
3, 273584, Note_on_c, 0, 81, 50
3, 273592, Note_on_c, 0, 55, 35
3, 273594, Note_on_c, 0, 74, 53
3, 273602, Note_on_c, 0, 77, 40
3, 273618, Note_on_c, 0, 69, 47
3, 274116, Note_on_c, 0, 69, 0
3, 274118, Note_on_c, 0, 74, 0
3, 274126, Note_on_c, 0, 62, 0
3, 274178, Note_on_c, 0, 77, 0
3, 274227, Note_on_c, 0, 65, 0
3, 274289, Note_on_c, 0, 60, 0
3, 274297, Note_on_c, 0, 55, 0
3, 274315, Note_on_c, 0, 81, 0
3, 274592, Note_on_c, 0, 65, 61
3, 274594, Note_on_c, 0, 69, 37
3, 274596, Note_on_c, 0, 77, 44
3, 274600, Note_on_c, 0, 61, 49
3, 274604, Note_on_c, 0, 73, 33
3, 274606, Note_on_c, 0, 55, 49
3, 275207, Note_on_c, 0, 69, 0
3, 275303, Note_on_c, 0, 55, 0
3, 275315, Note_on_c, 0, 65, 0
3, 275392, Note_on_c, 0, 61, 0
3, 275422, Note_on_c, 0, 77, 0
3, 275481, Note_on_c, 0, 73, 0
3, 275505, Note_on_c, 0, 69, 36
3, 275537, Note_on_c, 0, 61, 68
3, 275561, Note_on_c, 0, 55, 50
3, 275563, Note_on_c, 0, 65, 56
3, 275624, Note_on_c, 0, 69, 0
3, 275721, Control_c, 0, 64, 127
3, 275902, Control_c, 0, 64, 0
3, 275941, Control_c, 0, 64, 127
3, 276164, Note_on_c, 0, 65, 0
3, 276209, Note_on_c, 0, 55, 0
3, 276279, Control_c, 0, 64, 0
3, 276289, Note_on_c, 0, 61, 0
3, 276553, Note_on_c, 0, 64, 95
3, 276558, Note_on_c, 0, 57, 78
3, 276560, Note_on_c, 0, 60, 77
3, 276562, Note_on_c, 0, 55, 74
3, 276564, Note_on_c, 0, 79, 87
3, 276566, Note_on_c, 0, 84, 87
3, 276570, Note_on_c, 0, 72, 91
3, 276685, Control_c, 0, 64, 127
3, 277168, Note_on_c, 0, 84, 0
3, 277237, Note_on_c, 0, 72, 0
3, 277273, Note_on_c, 0, 55, 0
3, 277318, Note_on_c, 0, 64, 0
3, 277324, Control_c, 0, 64, 0
3, 277326, Note_on_c, 0, 79, 0
3, 277338, Note_on_c, 0, 60, 0
3, 277354, Note_on_c, 0, 57, 0
3, 277511, Note_on_c, 0, 64, 75
3, 277515, Note_on_c, 0, 57, 64
3, 277521, Note_on_c, 0, 55, 66
3, 277523, Note_on_c, 0, 60, 55
3, 277531, Note_on_c, 0, 86, 78
3, 277541, Note_on_c, 0, 81, 63
3, 277541, Note_on_c, 0, 74, 75
3, 277572, Note_on_c, 0, 79, 50
3, 277648, Note_on_c, 0, 79, 0
3, 277900, Note_on_c, 0, 64, 0
3, 277943, Note_on_c, 0, 60, 0
3, 277949, Note_on_c, 0, 55, 0
3, 277967, Note_on_c, 0, 57, 0
3, 278082, Note_on_c, 0, 86, 0
3, 278102, Note_on_c, 0, 74, 0
3, 278120, Note_on_c, 0, 81, 0
3, 278419, Note_on_c, 0, 53, 48
3, 278421, Note_on_c, 0, 50, 53
3, 278425, Note_on_c, 0, 60, 51
3, 278441, Note_on_c, 0, 84, 61
3, 278443, Note_on_c, 0, 57, 55
3, 278465, Note_on_c, 0, 79, 62
3, 278475, Note_on_c, 0, 72, 57
3, 278495, Control_c, 0, 64, 127
3, 278677, Note_on_c, 0, 84, 0
3, 278721, Note_on_c, 0, 79, 0
3, 278806, Note_on_c, 0, 72, 0
3, 278894, Note_on_c, 0, 50, 0
3, 278923, Note_on_c, 0, 60, 0
3, 278973, Note_on_c, 0, 57, 0
3, 278981, Note_on_c, 0, 53, 0
3, 279035, Control_c, 0, 64, 0
3, 279098, Note_on_c, 0, 76, 64
3, 279108, Note_on_c, 0, 81, 52
3, 279124, Note_on_c, 0, 60, 47
3, 279148, Note_on_c, 0, 57, 54
3, 279152, Note_on_c, 0, 69, 36
3, 279156, Note_on_c, 0, 53, 44
3, 279179, Note_on_c, 0, 50, 27
3, 279249, Note_on_c, 0, 60, 0
3, 279257, Note_on_c, 0, 81, 0
3, 279283, Note_on_c, 0, 69, 0
3, 279322, Note_on_c, 0, 76, 0
3, 279324, Note_on_c, 0, 50, 0
3, 279350, Note_on_c, 0, 57, 0
3, 279411, Note_on_c, 0, 53, 0
3, 280350, Note_on_c, 0, 69, 65
3, 280360, Note_on_c, 0, 62, 80
3, 280362, Note_on_c, 0, 57, 82
3, 280384, Note_on_c, 0, 65, 64
3, 281024, Note_on_c, 0, 47, 74
3, 281300, Control_c, 0, 64, 127
3, 281735, Note_on_c, 0, 69, 0
3, 281786, Note_on_c, 0, 57, 0
3, 281880, Note_on_c, 0, 62, 0
3, 282054, Control_c, 0, 64, 0
3, 282082, Note_on_c, 0, 65, 0
3, 282118, Note_on_c, 0, 47, 0
3, 282274, Note_on_c, 0, 58, 77
3, 282278, Note_on_c, 0, 61, 62
3, 282294, Note_on_c, 0, 65, 53
3, 282296, Note_on_c, 0, 67, 55
3, 282298, Note_on_c, 0, 46, 70
3, 282649, Note_on_c, 0, 58, 0
3, 282691, Note_on_c, 0, 61, 0
3, 282735, Note_on_c, 0, 65, 0
3, 282739, Note_on_c, 0, 46, 0
3, 282790, Note_on_c, 0, 67, 0
3, 283201, Note_on_c, 0, 46, 62
3, 283235, Note_on_c, 0, 58, 70
3, 283237, Note_on_c, 0, 61, 62
3, 283264, Note_on_c, 0, 67, 42
3, 283300, Note_on_c, 0, 65, 47
3, 283622, Note_on_c, 0, 65, 0
3, 283629, Note_on_c, 0, 58, 0
3, 283907, Note_on_c, 0, 61, 0
3, 283989, Note_on_c, 0, 67, 0
3, 284141, Note_on_c, 0, 46, 0
3, 284191, Control_c, 0, 64, 127
3, 284193, Note_on_c, 0, 45, 59
3, 284209, Note_on_c, 0, 64, 69
3, 284213, Note_on_c, 0, 60, 60
3, 284231, Note_on_c, 0, 55, 45
3, 284445, Note_on_c, 0, 60, 0
3, 284489, Note_on_c, 0, 64, 0
3, 284784, Note_on_c, 0, 55, 0
3, 284834, Note_on_c, 0, 45, 0
3, 285064, Control_c, 0, 64, 0
3, 285159, Note_on_c, 0, 72, 74
3, 285167, Note_on_c, 0, 67, 85
3, 285175, Note_on_c, 0, 62, 81
3, 285369, Note_on_c, 0, 62, 0
3, 285486, Note_on_c, 0, 67, 0
3, 285526, Note_on_c, 0, 72, 0
3, 286159, Note_on_c, 0, 76, 85
3, 286163, Note_on_c, 0, 69, 92
3, 286171, Note_on_c, 0, 65, 90
3, 286181, Note_on_c, 0, 60, 76
3, 286675, Note_on_c, 0, 65, 0
3, 286756, Note_on_c, 0, 69, 0
3, 286764, Note_on_c, 0, 76, 0
3, 286848, Note_on_c, 0, 74, 62
3, 286849, Note_on_c, 0, 60, 0
3, 286859, Note_on_c, 0, 65, 54
3, 286877, Note_on_c, 0, 69, 41
3, 286885, Note_on_c, 0, 57, 70
3, 286937, Note_on_c, 0, 65, 0
3, 286965, Note_on_c, 0, 69, 0
3, 287068, Note_on_c, 0, 57, 0
3, 287092, Note_on_c, 0, 74, 0
3, 287746, Note_on_c, 0, 84, 81
3, 287750, Note_on_c, 0, 72, 85
3, 287752, Note_on_c, 0, 79, 79
3, 287756, Note_on_c, 0, 57, 76
3, 287764, Note_on_c, 0, 58, 71
3, 287768, Note_on_c, 0, 62, 77
3, 287784, Note_on_c, 0, 53, 56
3, 287847, Note_on_c, 0, 72, 0
3, 287923, Note_on_c, 0, 62, 0
3, 287965, Note_on_c, 0, 57, 0
3, 287966, Note_on_c, 0, 79, 0
3, 288018, Note_on_c, 0, 58, 0
3, 288022, Note_on_c, 0, 84, 0
3, 288044, Note_on_c, 0, 53, 0
3, 288697, Note_on_c, 0, 88, 84
3, 288699, Note_on_c, 0, 58, 79
3, 288699, Note_on_c, 0, 82, 83
3, 288703, Note_on_c, 0, 57, 75
3, 288707, Note_on_c, 0, 76, 84
3, 288709, Note_on_c, 0, 62, 87
3, 288710, Note_on_c, 0, 53, 72
3, 288752, Note_on_c, 0, 85, 32
3, 288830, Note_on_c, 0, 85, 0
3, 289191, Note_on_c, 0, 83, 38
3, 289433, Note_on_c, 0, 57, 0
3, 289449, Note_on_c, 0, 83, 0
3, 289470, Note_on_c, 0, 88, 0
3, 289514, Note_on_c, 0, 82, 0
3, 289542, Note_on_c, 0, 62, 0
3, 289574, Note_on_c, 0, 76, 0
3, 289579, Note_on_c, 0, 53, 0
3, 289704, Note_on_c, 0, 58, 0
3, 289877, Note_on_c, 0, 84, 72
3, 289879, Note_on_c, 0, 78, 73
3, 289881, Note_on_c, 0, 62, 74
3, 289887, Note_on_c, 0, 52, 68
3, 289889, Note_on_c, 0, 72, 68
3, 289893, Note_on_c, 0, 58, 57
3, 290123, Note_on_c, 0, 78, 0
3, 290202, Note_on_c, 0, 79, 20
3, 290329, Note_on_c, 0, 72, 0
3, 290363, Note_on_c, 0, 79, 0
3, 290460, Note_on_c, 0, 84, 0
3, 290508, Control_c, 0, 64, 127
3, 290696, Note_on_c, 0, 62, 0
3, 290752, Note_on_c, 0, 58, 0
3, 290808, Control_c, 0, 64, 0
3, 290827, Note_on_c, 0, 84, 68
3, 290849, Note_on_c, 0, 72, 67
3, 290851, Note_on_c, 0, 52, 0
3, 290851, Note_on_c, 0, 79, 61
3, 290869, Note_on_c, 0, 81, 51
3, 291026, Control_c, 0, 64, 127
3, 291250, Note_on_c, 0, 72, 0
3, 291286, Note_on_c, 0, 79, 0
3, 291304, Note_on_c, 0, 81, 0
3, 291345, Note_on_c, 0, 84, 0
3, 291482, Control_c, 0, 64, 0
3, 292473, Note_on_c, 0, 48, 68
3, 292495, Note_on_c, 0, 41, 51
3, 292602, Note_on_c, 0, 41, 0
3, 292624, Note_on_c, 0, 48, 0
3, 293751, Note_on_c, 0, 46, 71
3, 293753, Note_on_c, 0, 39, 73
3, 294063, Note_on_c, 0, 39, 0
3, 294132, Note_on_c, 0, 46, 0
3, 295372, Note_on_c, 0, 44, 60
3, 295378, Note_on_c, 0, 37, 59
3, 295910, Control_c, 0, 64, 127
3, 296430, Note_on_c, 0, 60, 43
3, 296666, Note_on_c, 0, 60, 0
3, 296705, Note_on_c, 0, 61, 47
3, 296725, Control_c, 0, 64, 0
3, 296906, Note_on_c, 0, 61, 0
3, 297066, Note_on_c, 0, 65, 57
3, 297257, Note_on_c, 0, 65, 0
3, 297342, Note_on_c, 0, 68, 37
3, 297435, Note_on_c, 0, 68, 0
3, 297679, Note_on_c, 0, 72, 69
3, 298249, Note_on_c, 0, 72, 0
3, 298320, Note_on_c, 0, 73, 71
3, 298614, Note_on_c, 0, 73, 0
3, 298685, Note_on_c, 0, 72, 60
3, 299118, Note_on_c, 0, 72, 0
3, 299219, Note_on_c, 0, 44, 0
3, 299239, Note_on_c, 0, 37, 0
3, 299265, Note_on_c, 0, 70, 36
3, 299521, Note_on_c, 0, 70, 0
3, 299670, Note_on_c, 0, 65, 42
3, 299769, Note_on_c, 0, 65, 0
3, 300217, Note_on_c, 0, 48, 76
3, 300239, Note_on_c, 0, 41, 68
3, 300408, Note_on_c, 0, 48, 0
3, 300417, Note_on_c, 0, 41, 0
3, 301455, Note_on_c, 0, 46, 68
3, 301467, Note_on_c, 0, 39, 72
3, 301715, Note_on_c, 0, 39, 0
3, 301792, Note_on_c, 0, 46, 0
3, 302439, Control_c, 0, 64, 127
3, 302897, Control_c, 0, 64, 0
3, 303058, Note_on_c, 0, 44, 67
3, 303070, Note_on_c, 0, 37, 63
3, 303772, Note_on_c, 0, 71, 65
3, 303788, Note_on_c, 0, 72, 73
3, 303864, Note_on_c, 0, 71, 0
3, 304005, Note_on_c, 0, 72, 0
3, 304362, Note_on_c, 0, 75, 84
3, 304582, Note_on_c, 0, 75, 0
3, 304989, Note_on_c, 0, 72, 90
3, 305457, Note_on_c, 0, 71, 47
3, 305598, Note_on_c, 0, 70, 51
3, 305606, Note_on_c, 0, 72, 0
3, 305723, Note_on_c, 0, 70, 0
3, 305784, Note_on_c, 0, 71, 0
3, 305828, Note_on_c, 0, 68, 42
3, 306086, Note_on_c, 0, 65, 55
3, 306088, Note_on_c, 0, 68, 0
3, 306213, Note_on_c, 0, 65, 0
3, 306358, Note_on_c, 0, 70, 78
3, 306941, Note_on_c, 0, 44, 0
3, 306961, Note_on_c, 0, 65, 30
3, 307014, Note_on_c, 0, 37, 0
3, 307042, Note_on_c, 0, 70, 0
3, 307092, Note_on_c, 0, 65, 0
3, 307280, Note_on_c, 0, 68, 68
3, 307383, Note_on_c, 0, 70, 29
3, 307697, Note_on_c, 0, 70, 0
3, 307740, Note_on_c, 0, 68, 0
3, 307853, Note_on_c, 0, 65, 62
3, 307923, Note_on_c, 0, 65, 0
3, 308006, Note_on_c, 0, 48, 64
3, 308080, Note_on_c, 0, 41, 25
3, 308097, Note_on_c, 0, 48, 0
3, 308155, Note_on_c, 0, 41, 0
3, 309120, Note_on_c, 0, 39, 78
3, 309120, Note_on_c, 0, 46, 80
3, 309253, Note_on_c, 0, 39, 0
3, 309271, Note_on_c, 0, 46, 0
3, 310113, Control_c, 0, 64, 127
3, 310532, Control_c, 0, 64, 0
3, 310665, Note_on_c, 0, 44, 67
3, 310667, Note_on_c, 0, 37, 67
3, 311689, Note_on_c, 0, 60, 32
3, 311774, Note_on_c, 0, 60, 0
3, 311996, Note_on_c, 0, 72, 58
3, 311998, Note_on_c, 0, 65, 70
3, 312002, Note_on_c, 0, 71, 56
3, 312018, Note_on_c, 0, 64, 71
3, 312050, Note_on_c, 0, 70, 57
3, 312085, Note_on_c, 0, 64, 0
3, 312171, Note_on_c, 0, 71, 0
3, 312228, Note_on_c, 0, 65, 0
3, 312256, Note_on_c, 0, 70, 0
3, 312276, Note_on_c, 0, 72, 0
3, 312601, Note_on_c, 0, 65, 87
3, 312625, Note_on_c, 0, 72, 64
3, 312778, Note_on_c, 0, 72, 0
3, 312893, Note_on_c, 0, 65, 0
3, 312984, Note_on_c, 0, 70, 1
3, 313020, Note_on_c, 0, 60, 32
3, 313397, Note_on_c, 0, 60, 0
3, 313442, Note_on_c, 0, 70, 0
3, 313599, Note_on_c, 0, 65, 76
3, 313623, Note_on_c, 0, 72, 62
3, 313786, Note_on_c, 0, 72, 0
3, 313853, Note_on_c, 0, 65, 0
3, 313950, Note_on_c, 0, 70, 62
3, 313966, Note_on_c, 0, 60, 53
3, 314442, Note_on_c, 0, 60, 0
3, 314583, Note_on_c, 0, 70, 0
3, 314595, Note_on_c, 0, 37, 0
3, 314613, Note_on_c, 0, 44, 0
3, 314895, Note_on_c, 0, 65, 96
3, 314899, Note_on_c, 0, 72, 80
3, 315220, Note_on_c, 0, 72, 0
3, 315280, Note_on_c, 0, 65, 0
3, 315543, Note_on_c, 0, 41, 69
3, 315547, Note_on_c, 0, 48, 73
3, 315692, Note_on_c, 0, 48, 0
3, 315730, Note_on_c, 0, 41, 0
3, 316831, Note_on_c, 0, 46, 63
3, 316845, Note_on_c, 0, 39, 64
3, 317077, Note_on_c, 0, 46, 0
3, 317095, Note_on_c, 0, 39, 0
3, 317851, Control_c, 0, 64, 127
3, 318349, Control_c, 0, 64, 0
3, 318406, Note_on_c, 0, 65, 67
3, 318412, Note_on_c, 0, 72, 56
3, 318424, Note_on_c, 0, 44, 60
3, 318426, Note_on_c, 0, 60, 55
3, 318442, Note_on_c, 0, 37, 57
3, 319638, Control_c, 0, 64, 127
3, 320033, Note_on_c, 0, 60, 0
3, 320297, Note_on_c, 0, 65, 0
3, 320482, Note_on_c, 0, 72, 0
3, 320757, Note_on_c, 0, 67, 62
3, 320791, Note_on_c, 0, 68, 68
3, 320813, Control_c, 0, 64, 0
3, 320902, Note_on_c, 0, 67, 0
3, 320938, Note_on_c, 0, 44, 0
3, 320962, Note_on_c, 0, 68, 0
3, 320991, Note_on_c, 0, 69, 42
3, 321047, Note_on_c, 0, 37, 0
3, 321238, Note_on_c, 0, 69, 0
3, 321412, Note_on_c, 0, 72, 84
3, 321601, Note_on_c, 0, 72, 0
3, 321682, Note_on_c, 0, 74, 89
3, 322341, Note_on_c, 0, 69, 50
3, 322366, Note_on_c, 0, 74, 0
3, 322497, Note_on_c, 0, 69, 0
3, 322624, Note_on_c, 0, 72, 82
3, 323231, Note_on_c, 0, 74, 64
3, 323233, Note_on_c, 0, 72, 0
3, 323323, Note_on_c, 0, 72, 19
3, 323466, Note_on_c, 0, 74, 0
3, 323585, Note_on_c, 0, 72, 0
3, 323589, Note_on_c, 0, 69, 47
3, 324339, Note_on_c, 0, 60, 33
3, 324384, Note_on_c, 0, 53, 28
3, 324388, Note_on_c, 0, 57, 27
3, 324422, Note_on_c, 0, 60, 0
3, 324432, Note_on_c, 0, 69, 0
3, 324464, Note_on_c, 0, 57, 0
3, 324491, Note_on_c, 0, 53, 0
3, 324515, Note_on_c, 0, 65, 51
3, 325013, Note_on_c, 0, 65, 0
3, 325170, Note_on_c, 0, 65, 45
3, 325259, Note_on_c, 0, 65, 0
3, 326164, Note_on_c, 0, 58, 59
3, 326184, Note_on_c, 0, 62, 36
3, 326229, Note_on_c, 0, 58, 0
3, 326259, Note_on_c, 0, 62, 0
3, 326382, Note_on_c, 0, 72, 69
3, 326388, Note_on_c, 0, 84, 68
3, 326973, Note_on_c, 0, 72, 0
3, 326991, Note_on_c, 0, 84, 0
3, 328354, Note_on_c, 0, 69, 43
3, 328356, Note_on_c, 0, 64, 50
3, 328380, Note_on_c, 0, 58, 36
3, 328525, Note_on_c, 0, 69, 0
3, 328539, Note_on_c, 0, 64, 0
3, 328568, Note_on_c, 0, 58, 0
3, 329959, Note_on_c, 0, 64, 47
3, 330001, Note_on_c, 0, 57, 41
3, 330021, Note_on_c, 0, 60, 24
3, 330045, Note_on_c, 0, 64, 0
3, 330116, Note_on_c, 0, 60, 0
3, 330144, Note_on_c, 0, 57, 0
3, 330263, Note_on_c, 0, 79, 99
3, 331963, Note_on_c, 0, 60, 68
3, 331965, Note_on_c, 0, 57, 65
3, 331971, Note_on_c, 0, 53, 54
3, 332028, Note_on_c, 0, 60, 0
3, 332084, Note_on_c, 0, 57, 0
3, 332104, Note_on_c, 0, 79, 0
3, 332163, Note_on_c, 0, 53, 0
3, 332223, Note_on_c, 0, 77, 91
3, 332828, Note_on_c, 0, 77, 0
3, 332983, Note_on_c, 0, 73, 25
3, 333102, Note_on_c, 0, 73, 0
3, 333191, Note_on_c, 0, 76, 80
3, 333887, Note_on_c, 0, 73, 36
3, 333895, Note_on_c, 0, 57, 54
3, 333923, Note_on_c, 0, 58, 47
3, 333937, Note_on_c, 0, 62, 35
3, 333965, Note_on_c, 0, 76, 0
3, 334011, Note_on_c, 0, 62, 0
3, 334014, Note_on_c, 0, 57, 0
3, 334038, Note_on_c, 0, 73, 0
3, 334066, Note_on_c, 0, 58, 0
3, 334108, Note_on_c, 0, 74, 78
3, 334774, Note_on_c, 0, 74, 0
3, 335060, Note_on_c, 0, 72, 70
3, 335758, Note_on_c, 0, 72, 0
3, 335824, Note_on_c, 0, 58, 74
3, 335840, Note_on_c, 0, 69, 31
3, 335842, Note_on_c, 0, 62, 66
3, 335868, Note_on_c, 0, 52, 46
3, 335907, Note_on_c, 0, 62, 0
3, 335949, Note_on_c, 0, 69, 0
3, 335961, Note_on_c, 0, 52, 0
3, 335995, Note_on_c, 0, 58, 0
3, 336006, Note_on_c, 0, 70, 76
3, 336693, Note_on_c, 0, 70, 0
3, 336713, Note_on_c, 0, 67, 30
3, 336824, Note_on_c, 0, 67, 0
3, 336925, Note_on_c, 0, 68, 45
3, 336981, Note_on_c, 0, 69, 72
3, 337074, Note_on_c, 0, 68, 0
3, 337685, Note_on_c, 0, 69, 0
3, 337746, Note_on_c, 0, 62, 53
3, 337764, Note_on_c, 0, 55, 36
3, 337772, Note_on_c, 0, 58, 38
3, 337816, Note_on_c, 0, 62, 0
3, 337881, Note_on_c, 0, 58, 0
3, 337887, Note_on_c, 0, 55, 0
3, 337921, Note_on_c, 0, 70, 81
3, 338645, Note_on_c, 0, 62, 38
3, 338776, Note_on_c, 0, 70, 0
3, 338806, Note_on_c, 0, 62, 0
3, 338895, Note_on_c, 0, 65, 62
3, 339441, Note_on_c, 0, 65, 0
3, 340548, Note_on_c, 0, 62, 53
3, 340566, Note_on_c, 0, 58, 39
3, 340615, Note_on_c, 0, 62, 0
3, 340708, Note_on_c, 0, 58, 0
3, 341516, Note_on_c, 0, 57, 58
3, 341613, Note_on_c, 0, 57, 0
3, 341794, Note_on_c, 0, 75, 62
3, 341798, Note_on_c, 0, 63, 83
3, 341822, Note_on_c, 0, 69, 57
3, 341835, Note_on_c, 0, 72, 53
3, 341901, Note_on_c, 0, 64, 81
3, 341911, Note_on_c, 0, 76, 66
3, 341913, Note_on_c, 0, 63, 0
3, 341935, Note_on_c, 0, 75, 0
3, 341950, Note_on_c, 0, 74, 51
3, 342000, Note_on_c, 0, 73, 9
3, 342333, Note_on_c, 0, 64, 0
3, 342399, Note_on_c, 0, 69, 0
3, 342423, Note_on_c, 0, 76, 0
3, 342446, Note_on_c, 0, 73, 0
3, 342478, Note_on_c, 0, 72, 0
3, 342492, Note_on_c, 0, 74, 0
3, 342496, Note_on_c, 0, 60, 25
3, 342506, Note_on_c, 0, 57, 49
3, 342617, Note_on_c, 0, 60, 0
3, 342710, Note_on_c, 0, 57, 0
3, 342748, Note_on_c, 0, 79, 82
3, 342750, Note_on_c, 0, 72, 83
3, 342754, Note_on_c, 0, 67, 91
3, 342758, Note_on_c, 0, 76, 75
3, 342806, Note_on_c, 0, 77, 49
3, 342899, Note_on_c, 0, 77, 0
3, 343250, Note_on_c, 0, 79, 0
3, 343304, Note_on_c, 0, 76, 0
3, 343308, Note_on_c, 0, 72, 0
3, 343409, Note_on_c, 0, 67, 0
3, 343496, Note_on_c, 0, 57, 44
3, 343522, Note_on_c, 0, 60, 22
3, 343607, Note_on_c, 0, 60, 0
3, 343692, Note_on_c, 0, 57, 0
3, 343696, Note_on_c, 0, 75, 38
3, 343700, Note_on_c, 0, 63, 45
3, 343752, Note_on_c, 0, 72, 42
3, 343770, Note_on_c, 0, 69, 28
3, 343931, Note_on_c, 0, 64, 63
3, 343934, Note_on_c, 0, 76, 48
3, 343936, Note_on_c, 0, 63, 0
3, 343940, Note_on_c, 0, 75, 0
3, 344298, Note_on_c, 0, 64, 0
3, 344307, Note_on_c, 0, 69, 0
3, 344337, Note_on_c, 0, 74, 2
3, 344399, Note_on_c, 0, 76, 0
3, 344413, Note_on_c, 0, 72, 0
3, 344413, Note_on_c, 0, 57, 61
3, 344417, Note_on_c, 0, 60, 47
3, 344444, Note_on_c, 0, 74, 0
3, 344518, Note_on_c, 0, 60, 0
3, 344641, Note_on_c, 0, 74, 73
3, 344643, Note_on_c, 0, 79, 79
3, 344651, Note_on_c, 0, 67, 81
3, 344665, Note_on_c, 0, 57, 0
3, 344665, Note_on_c, 0, 69, 62
3, 344726, Note_on_c, 0, 77, 24
3, 344748, Note_on_c, 0, 69, 0
3, 344803, Note_on_c, 0, 77, 0
3, 345232, Note_on_c, 0, 79, 0
3, 345246, Note_on_c, 0, 67, 0
3, 345266, Note_on_c, 0, 74, 0
3, 345607, Note_on_c, 0, 58, 44
3, 345637, Note_on_c, 0, 52, 28
3, 345639, Note_on_c, 0, 62, 31
3, 345871, Note_on_c, 0, 52, 0
3, 345893, Note_on_c, 0, 62, 0
3, 345944, Note_on_c, 0, 58, 0
3, 347230, Note_on_c, 0, 56, 50
3, 347246, Note_on_c, 0, 67, 37
3, 347274, Note_on_c, 0, 62, 43
3, 347339, Note_on_c, 0, 67, 0
3, 347389, Note_on_c, 0, 56, 0
3, 347446, Note_on_c, 0, 62, 0
3, 347555, Note_on_c, 0, 67, 44
3, 347774, Note_on_c, 0, 67, 0
3, 347809, Note_on_c, 0, 69, 41
3, 348029, Note_on_c, 0, 69, 0
3, 348037, Note_on_c, 0, 70, 53
3, 348135, Note_on_c, 0, 70, 0
3, 348228, Note_on_c, 0, 72, 66
3, 348398, Note_on_c, 0, 72, 0
3, 348474, Note_on_c, 0, 77, 66
3, 348660, Note_on_c, 0, 77, 0
3, 348738, Note_on_c, 0, 82, 55
3, 348902, Note_on_c, 0, 82, 0
3, 349014, Note_on_c, 0, 84, 81
3, 349258, Note_on_c, 0, 82, 64
3, 349275, Note_on_c, 0, 84, 0
3, 349440, Note_on_c, 0, 82, 0
3, 349541, Note_on_c, 0, 77, 58
3, 349613, Note_on_c, 0, 77, 0
3, 350158, Note_on_c, 0, 61, 40
3, 350158, Note_on_c, 0, 65, 58
3, 350238, Note_on_c, 0, 65, 0
3, 350351, Note_on_c, 0, 61, 0
3, 351103, Note_on_c, 0, 73, 73
3, 351162, Note_on_c, 0, 61, 59
3, 351232, Note_on_c, 0, 61, 0
3, 351297, Note_on_c, 0, 73, 0
3, 351432, Note_on_c, 0, 76, 77
3, 351660, Note_on_c, 0, 76, 0
3, 351749, Note_on_c, 0, 75, 71
3, 351954, Note_on_c, 0, 75, 0
3, 352055, Note_on_c, 0, 73, 52
3, 352126, Note_on_c, 0, 57, 48
3, 352279, Note_on_c, 0, 73, 0
3, 352364, Note_on_c, 0, 57, 0
3, 352370, Note_on_c, 0, 72, 57
3, 352531, Note_on_c, 0, 72, 0
3, 352700, Note_on_c, 0, 70, 61
3, 352835, Note_on_c, 0, 70, 0
3, 353009, Note_on_c, 0, 68, 82
3, 353087, Note_on_c, 0, 57, 49
3, 353114, Note_on_c, 0, 60, 25
3, 353186, Note_on_c, 0, 60, 0
3, 353188, Note_on_c, 0, 68, 0
3, 353309, Note_on_c, 0, 57, 0
3, 353356, Note_on_c, 0, 69, 80
3, 353589, Note_on_c, 0, 69, 0
3, 353710, Note_on_c, 0, 65, 70
3, 353940, Note_on_c, 0, 65, 0
3, 353974, Note_on_c, 0, 57, 39
3, 353991, Note_on_c, 0, 64, 55
3, 354148, Note_on_c, 0, 64, 0
3, 354513, Note_on_c, 0, 57, 0
3, 354928, Note_on_c, 0, 57, 59
3, 355140, Note_on_c, 0, 57, 0
3, 355287, Note_on_c, 0, 64, 71
3, 355464, Note_on_c, 0, 64, 0
3, 355604, Note_on_c, 0, 67, 84
3, 355912, Note_on_c, 0, 65, 80
3, 355946, Note_on_c, 0, 57, 51
3, 355991, Note_on_c, 0, 53, 34
3, 356027, Note_on_c, 0, 67, 0
3, 356120, Note_on_c, 0, 65, 0
3, 356134, Note_on_c, 0, 57, 0
3, 356215, Note_on_c, 0, 53, 0
3, 356573, Note_on_c, 0, 57, 51
3, 356809, Note_on_c, 0, 57, 0
3, 356914, Note_on_c, 0, 58, 75
3, 356997, Note_on_c, 0, 62, 55
3, 357057, Note_on_c, 0, 58, 0
3, 357273, Note_on_c, 0, 62, 0
3, 357329, Note_on_c, 0, 61, 1
3, 357563, Note_on_c, 0, 52, 49
3, 357642, Note_on_c, 0, 61, 0
3, 357775, Note_on_c, 0, 52, 0
3, 357793, Note_on_c, 0, 43, 40
3, 357886, Note_on_c, 0, 57, 62
3, 357914, Note_on_c, 0, 43, 0
3, 358128, Note_on_c, 0, 57, 0
3, 358140, Note_on_c, 0, 61, 55
3, 358287, Note_on_c, 0, 61, 0
3, 358455, Note_on_c, 0, 64, 72
3, 358652, Note_on_c, 0, 64, 0
3, 358725, Note_on_c, 0, 69, 66
3, 358953, Note_on_c, 0, 69, 0
3, 359063, Note_on_c, 0, 73, 64
3, 359275, Note_on_c, 0, 73, 0
3, 359346, Note_on_c, 0, 76, 84
3, 359356, Note_on_c, 0, 64, 89
3, 359394, Note_on_c, 0, 75, 43
3, 359803, Note_on_c, 0, 76, 0
3, 359816, Note_on_c, 0, 64, 0
3, 359838, Note_on_c, 0, 75, 0
3, 359995, Note_on_c, 0, 76, 68
3, 360025, Note_on_c, 0, 64, 82
3, 360035, Note_on_c, 0, 69, 70
3, 360334, Note_on_c, 0, 69, 0
3, 360420, Note_on_c, 0, 64, 0
3, 360422, Note_on_c, 0, 73, 52
3, 360487, Note_on_c, 0, 76, 0
3, 360686, Note_on_c, 0, 73, 0
3, 361600, Note_on_c, 0, 60, 54
3, 361610, Note_on_c, 0, 57, 54
3, 361634, Note_on_c, 0, 53, 43
3, 361676, Note_on_c, 0, 60, 0
3, 361838, Note_on_c, 0, 57, 0
3, 361908, Note_on_c, 0, 53, 0
3, 362003, Note_on_c, 0, 79, 74
3, 362007, Note_on_c, 0, 67, 78
3, 362201, Note_on_c, 0, 67, 0
3, 362221, Note_on_c, 0, 79, 0
3, 362306, Note_on_c, 0, 76, 40
3, 362465, Note_on_c, 0, 76, 0
3, 362602, Note_on_c, 0, 79, 84
3, 362608, Note_on_c, 0, 67, 89
3, 362628, Note_on_c, 0, 57, 58
3, 362638, Note_on_c, 0, 60, 63
3, 362662, Note_on_c, 0, 53, 42
3, 362788, Note_on_c, 0, 60, 0
3, 362965, Note_on_c, 0, 57, 0
3, 362991, Note_on_c, 0, 53, 0
3, 363231, Note_on_c, 0, 67, 0
3, 363275, Note_on_c, 0, 79, 0
3, 363326, Note_on_c, 0, 76, 45
3, 363620, Note_on_c, 0, 72, 50
3, 363814, Note_on_c, 0, 76, 0
3, 363856, Note_on_c, 0, 57, 55
3, 363872, Note_on_c, 0, 53, 44
3, 363905, Note_on_c, 0, 72, 0
3, 363967, Note_on_c, 0, 67, 55
3, 364060, Note_on_c, 0, 57, 0
3, 364072, Note_on_c, 0, 53, 0
3, 364485, Note_on_c, 0, 67, 0
3, 365505, Note_on_c, 0, 64, 68
3, 365507, Note_on_c, 0, 59, 50
3, 365528, Note_on_c, 0, 53, 39
3, 365600, Note_on_c, 0, 64, 0
3, 365711, Note_on_c, 0, 59, 0
3, 365733, Note_on_c, 0, 53, 0
3, 366223, Note_on_c, 0, 79, 76
3, 366254, Note_on_c, 0, 73, 64
3, 366455, Note_on_c, 0, 79, 0
3, 366592, Note_on_c, 0, 73, 0
3, 366602, Note_on_c, 0, 76, 56
3, 366776, Note_on_c, 0, 76, 0
3, 366885, Note_on_c, 0, 73, 67
3, 366891, Note_on_c, 0, 79, 81
3, 366901, Note_on_c, 0, 69, 75
3, 367262, Note_on_c, 0, 69, 0
3, 367276, Note_on_c, 0, 79, 0
3, 367306, Note_on_c, 0, 73, 0
3, 367461, Note_on_c, 0, 64, 73
3, 367467, Note_on_c, 0, 59, 56
3, 367492, Note_on_c, 0, 53, 37
3, 367526, Note_on_c, 0, 64, 0
3, 367647, Note_on_c, 0, 53, 0
3, 367731, Note_on_c, 0, 79, 76
3, 367744, Note_on_c, 0, 69, 77
3, 367752, Note_on_c, 0, 73, 51
3, 367758, Note_on_c, 0, 59, 0
3, 367919, Note_on_c, 0, 69, 0
3, 367925, Note_on_c, 0, 73, 0
3, 367981, Note_on_c, 0, 79, 0
3, 368106, Note_on_c, 0, 76, 50
3, 368290, Note_on_c, 0, 76, 0
3, 368425, Note_on_c, 0, 57, 66
3, 368427, Note_on_c, 0, 58, 70
3, 368429, Note_on_c, 0, 53, 63
3, 368433, Note_on_c, 0, 62, 78
3, 368455, Note_on_c, 0, 74, 71
3, 368457, Note_on_c, 0, 80, 63
3, 368467, Note_on_c, 0, 70, 68
3, 368479, Note_on_c, 0, 68, 28
3, 368492, Note_on_c, 0, 81, 64
3, 368651, Note_on_c, 0, 68, 0
3, 368865, Note_on_c, 0, 81, 0
3, 369298, Note_on_c, 0, 74, 0
3, 369300, Note_on_c, 0, 70, 0
3, 369417, Note_on_c, 0, 80, 0
3, 369433, Note_on_c, 0, 62, 0
3, 369469, Note_on_c, 0, 53, 0
3, 369518, Note_on_c, 0, 58, 0
3, 369617, Note_on_c, 0, 82, 75
3, 369629, Note_on_c, 0, 62, 68
3, 369631, Note_on_c, 0, 74, 66
3, 369633, Note_on_c, 0, 70, 69
3, 369639, Control_c, 0, 64, 127
3, 369645, Note_on_c, 0, 53, 52
3, 369655, Note_on_c, 0, 58, 67
3, 369659, Note_on_c, 0, 77, 57
3, 369758, Control_c, 0, 64, 0
3, 369875, Control_c, 0, 64, 127
3, 369943, Note_on_c, 0, 70, 0
3, 369957, Note_on_c, 0, 62, 0
3, 369972, Note_on_c, 0, 77, 0
3, 370004, Note_on_c, 0, 58, 0
3, 370012, Note_on_c, 0, 82, 0
3, 370052, Note_on_c, 0, 74, 0
3, 370262, Note_on_c, 0, 82, 63
3, 370270, Note_on_c, 0, 62, 57
3, 370280, Note_on_c, 0, 58, 56
3, 370282, Note_on_c, 0, 70, 64
3, 370320, Note_on_c, 0, 80, 35
3, 370322, Note_on_c, 0, 53, 0
3, 370334, Note_on_c, 0, 57, 0
3, 370353, Control_c, 0, 64, 0
3, 370405, Note_on_c, 0, 80, 0
3, 370423, Note_on_c, 0, 70, 0
3, 370425, Note_on_c, 0, 62, 0
3, 370447, Note_on_c, 0, 82, 0
3, 370455, Note_on_c, 0, 58, 0
3, 370570, Note_on_c, 0, 78, 75
3, 370591, Note_on_c, 0, 72, 75
3, 370595, Note_on_c, 0, 57, 73
3, 370601, Note_on_c, 0, 84, 75
3, 370607, Note_on_c, 0, 64, 83
3, 370611, Note_on_c, 0, 55, 65
3, 370627, Note_on_c, 0, 79, 71
3, 370629, Note_on_c, 0, 59, 40
3, 370633, Note_on_c, 0, 60, 71
3, 370635, Note_on_c, 0, 78, 0
3, 370673, Note_on_c, 0, 62, 29
3, 370699, Note_on_c, 0, 59, 0
3, 370742, Note_on_c, 0, 62, 0
3, 371052, Note_on_c, 0, 55, 0
3, 371060, Note_on_c, 0, 72, 0
3, 371066, Note_on_c, 0, 64, 0
3, 371068, Note_on_c, 0, 84, 0
3, 371084, Note_on_c, 0, 60, 0
3, 371093, Note_on_c, 0, 79, 0
3, 371101, Note_on_c, 0, 57, 0
3, 371570, Note_on_c, 0, 55, 65
3, 371574, Note_on_c, 0, 60, 69
3, 371580, Note_on_c, 0, 64, 80
3, 371599, Note_on_c, 0, 57, 59
3, 371599, Note_on_c, 0, 84, 82
3, 371603, Note_on_c, 0, 79, 80
3, 371605, Note_on_c, 0, 72, 84
3, 371956, Note_on_c, 0, 60, 0
3, 372000, Note_on_c, 0, 72, 0
3, 372014, Note_on_c, 0, 64, 0
3, 372044, Note_on_c, 0, 79, 0
3, 372046, Note_on_c, 0, 84, 0
3, 372064, Note_on_c, 0, 55, 0
3, 372066, Note_on_c, 0, 57, 0
3, 372526, Control_c, 0, 64, 127
3, 372564, Note_on_c, 0, 58, 82
3, 372566, Note_on_c, 0, 55, 67
3, 372574, Note_on_c, 0, 62, 83
3, 372574, Note_on_c, 0, 74, 89
3, 372577, Note_on_c, 0, 86, 85
3, 372585, Note_on_c, 0, 53, 62
3, 372587, Note_on_c, 0, 79, 76
3, 372591, Note_on_c, 0, 82, 64
3, 373006, Note_on_c, 0, 62, 0
3, 373020, Note_on_c, 0, 86, 0
3, 373028, Note_on_c, 0, 53, 0
3, 373030, Note_on_c, 0, 74, 0
3, 373042, Note_on_c, 0, 55, 0
3, 373052, Note_on_c, 0, 79, 0
3, 373062, Note_on_c, 0, 58, 0
3, 373085, Note_on_c, 0, 82, 0
3, 373240, Note_on_c, 0, 62, 74
3, 373242, Note_on_c, 0, 58, 67
3, 373250, Control_c, 0, 64, 0
3, 373252, Note_on_c, 0, 53, 46
3, 373256, Note_on_c, 0, 55, 51
3, 373258, Note_on_c, 0, 82, 52
3, 373260, Note_on_c, 0, 86, 62
3, 373266, Note_on_c, 0, 74, 61
3, 373268, Note_on_c, 0, 79, 53
3, 373437, Note_on_c, 0, 62, 0
3, 373452, Note_on_c, 0, 53, 0
3, 373456, Note_on_c, 0, 86, 0
3, 373468, Note_on_c, 0, 74, 0
3, 373488, Note_on_c, 0, 55, 0
3, 373504, Note_on_c, 0, 79, 0
3, 373508, Note_on_c, 0, 58, 0
3, 373534, Note_on_c, 0, 82, 0
3, 373552, Control_c, 0, 64, 127
3, 373599, Note_on_c, 0, 58, 46
3, 373601, Note_on_c, 0, 86, 62
3, 373603, Note_on_c, 0, 53, 43
3, 373609, Note_on_c, 0, 62, 59
3, 373619, Note_on_c, 0, 74, 58
3, 373627, Note_on_c, 0, 82, 34
3, 373631, Note_on_c, 0, 79, 45
3, 373639, Note_on_c, 0, 55, 31
3, 373825, Note_on_c, 0, 62, 0
3, 373859, Note_on_c, 0, 74, 0
3, 373873, Note_on_c, 0, 86, 0
3, 373889, Note_on_c, 0, 53, 0
3, 373915, Note_on_c, 0, 55, 0
3, 373925, Note_on_c, 0, 79, 0
3, 373972, Note_on_c, 0, 82, 0
3, 373988, Note_on_c, 0, 58, 0
3, 374171, Note_on_c, 0, 58, 49
3, 374185, Note_on_c, 0, 62, 66
3, 374187, Note_on_c, 0, 53, 51
3, 374188, Note_on_c, 0, 86, 67
3, 374202, Note_on_c, 0, 74, 68
3, 374212, Note_on_c, 0, 82, 43
3, 374248, Note_on_c, 0, 79, 26
3, 374323, Control_c, 0, 64, 0
3, 374331, Note_on_c, 0, 79, 0
3, 374337, Note_on_c, 0, 62, 0
3, 374347, Note_on_c, 0, 53, 0
3, 374349, Note_on_c, 0, 74, 0
3, 374361, Note_on_c, 0, 86, 0
3, 374391, Note_on_c, 0, 58, 0
3, 374397, Note_on_c, 0, 82, 0
3, 374577, Note_on_c, 0, 80, 59
3, 374581, Note_on_c, 0, 56, 64
3, 374581, Note_on_c, 0, 76, 71
3, 374587, Note_on_c, 0, 62, 72
3, 374587, Note_on_c, 0, 59, 62
3, 374591, Note_on_c, 0, 88, 55
3, 374593, Note_on_c, 0, 53, 55
3, 374595, Note_on_c, 0, 83, 50
3, 374627, Note_on_c, 0, 86, 51
3, 374712, Note_on_c, 0, 86, 0
3, 374869, Note_on_c, 0, 62, 0
3, 374901, Note_on_c, 0, 59, 0
3, 374909, Note_on_c, 0, 56, 0
3, 374911, Note_on_c, 0, 76, 0
3, 374913, Note_on_c, 0, 88, 0
3, 374938, Note_on_c, 0, 53, 0
3, 374942, Note_on_c, 0, 80, 0
3, 374980, Note_on_c, 0, 83, 0
3, 375405, Note_on_c, 0, 56, 59
3, 375415, Note_on_c, 0, 62, 70
3, 375419, Note_on_c, 0, 80, 69
3, 375425, Note_on_c, 0, 83, 70
3, 375427, Note_on_c, 0, 59, 52
3, 375430, Note_on_c, 0, 53, 54
3, 375430, Note_on_c, 0, 76, 74
3, 375440, Note_on_c, 0, 88, 65
3, 375454, Control_c, 0, 64, 127
3, 375647, Note_on_c, 0, 59, 0
3, 375694, Note_on_c, 0, 62, 0
3, 375704, Note_on_c, 0, 80, 0
3, 375712, Note_on_c, 0, 53, 0
3, 375738, Note_on_c, 0, 83, 0
3, 375750, Note_on_c, 0, 56, 0
3, 375762, Note_on_c, 0, 76, 0
3, 375803, Note_on_c, 0, 88, 0
3, 376309, Control_c, 0, 64, 0
3, 376547, Control_c, 0, 64, 127
3, 376946, Control_c, 0, 64, 0
3, 377073, Note_on_c, 0, 55, 70
3, 377075, Note_on_c, 0, 53, 59
3, 377089, Note_on_c, 0, 58, 77
3, 377093, Note_on_c, 0, 89, 83
3, 377095, Note_on_c, 0, 84, 84
3, 377097, Note_on_c, 0, 62, 81
3, 377101, Note_on_c, 0, 77, 87
3, 377176, Note_on_c, 0, 88, 28
3, 377254, Note_on_c, 0, 88, 0
3, 377422, Control_c, 0, 64, 127
3, 377553, Note_on_c, 0, 89, 0
3, 377625, Note_on_c, 0, 84, 0
3, 377752, Note_on_c, 0, 77, 0
3, 378956, Note_on_c, 0, 72, 82
3, 379004, Note_on_c, 0, 62, 0
3, 379055, Control_c, 0, 64, 0
3, 379121, Note_on_c, 0, 58, 0
3, 379204, Note_on_c, 0, 55, 0
3, 379224, Note_on_c, 0, 72, 0
3, 379250, Note_on_c, 0, 53, 0
3, 379317, Note_on_c, 0, 70, 57
3, 379843, Note_on_c, 0, 70, 0
3, 379932, Note_on_c, 0, 62, 53
3, 379998, Note_on_c, 0, 62, 0
3, 380248, Note_on_c, 0, 69, 64
3, 380264, Note_on_c, 0, 57, 73
3, 380270, Note_on_c, 0, 61, 55
3, 380291, Note_on_c, 0, 64, 47
3, 380295, Note_on_c, 0, 58, 59
3, 380718, Note_on_c, 0, 69, 0
3, 380869, Note_on_c, 0, 58, 0
3, 380914, Note_on_c, 0, 61, 0
3, 380956, Note_on_c, 0, 64, 0
3, 381079, Note_on_c, 0, 57, 0
3, 381178, Note_on_c, 0, 68, 53
3, 381206, Note_on_c, 0, 61, 49
3, 381210, Note_on_c, 0, 58, 55
3, 381212, Note_on_c, 0, 56, 57
3, 381234, Note_on_c, 0, 64, 40
3, 381799, Note_on_c, 0, 68, 0
3, 381803, Note_on_c, 0, 64, 0
3, 381873, Note_on_c, 0, 54, 35
3, 381883, Note_on_c, 0, 58, 0
3, 381914, Note_on_c, 0, 61, 0
3, 381998, Note_on_c, 0, 56, 0
3, 382119, Note_on_c, 0, 61, 55
3, 382136, Note_on_c, 0, 58, 52
3, 382146, Note_on_c, 0, 67, 54
3, 382160, Note_on_c, 0, 55, 49
3, 382162, Note_on_c, 0, 54, 0
3, 382539, Note_on_c, 0, 67, 0
3, 382603, Note_on_c, 0, 58, 0
3, 382793, Note_on_c, 0, 61, 0
3, 382966, Note_on_c, 0, 55, 0
3, 383093, Control_c, 0, 64, 127
3, 383097, Note_on_c, 0, 58, 58
3, 383101, Note_on_c, 0, 66, 48
3, 383103, Note_on_c, 0, 61, 50
3, 383107, Note_on_c, 0, 54, 55
3, 383170, Control_c, 0, 64, 0
3, 383180, Note_on_c, 0, 63, 25
3, 383498, Note_on_c, 0, 58, 0
3, 383519, Note_on_c, 0, 66, 0
3, 383595, Note_on_c, 0, 61, 0
3, 383609, Note_on_c, 0, 63, 0
3, 383791, Note_on_c, 0, 67, 64
3, 383793, Note_on_c, 0, 54, 0
3, 383809, Note_on_c, 0, 55, 64
3, 383819, Note_on_c, 0, 59, 33
3, 383825, Note_on_c, 0, 62, 59
3, 383845, Note_on_c, 0, 63, 21
3, 383890, Note_on_c, 0, 62, 0
3, 383912, Note_on_c, 0, 59, 0
3, 383934, Note_on_c, 0, 63, 0
3, 383976, Note_on_c, 0, 67, 0
3, 383999, Note_on_c, 0, 55, 0
3, 384446, Note_on_c, 0, 74, 81
3, 384454, Note_on_c, 0, 65, 87
3, 384464, Note_on_c, 0, 68, 75
3, 384492, Note_on_c, 0, 58, 82
3, 384918, Note_on_c, 0, 74, 0
3, 384948, Note_on_c, 0, 58, 0
3, 384984, Note_on_c, 0, 65, 0
3, 385045, Note_on_c, 0, 68, 0
3, 385112, Note_on_c, 0, 72, 64
3, 385142, Note_on_c, 0, 67, 71
3, 385146, Note_on_c, 0, 64, 71
3, 385152, Note_on_c, 0, 57, 73
3, 385452, Note_on_c, 0, 72, 0
3, 385460, Note_on_c, 0, 67, 0
3, 385577, Note_on_c, 0, 64, 0
3, 385799, Note_on_c, 0, 69, 68
3, 385823, Note_on_c, 0, 57, 0
3, 385825, Note_on_c, 0, 65, 69
3, 385839, Note_on_c, 0, 60, 53
3, 385858, Note_on_c, 0, 53, 57
3, 385864, Note_on_c, 0, 62, 47
3, 385932, Note_on_c, 0, 62, 0
3, 386037, Note_on_c, 0, 65, 0
3, 386049, Note_on_c, 0, 69, 0
3, 386102, Note_on_c, 0, 60, 0
3, 386283, Note_on_c, 0, 53, 0
3, 386343, Note_on_c, 0, 65, 66
3, 386356, Note_on_c, 0, 50, 47
3, 386372, Note_on_c, 0, 62, 62
3, 386380, Note_on_c, 0, 57, 58
3, 386694, Note_on_c, 0, 50, 0
3, 386706, Note_on_c, 0, 57, 0
3, 386717, Note_on_c, 0, 62, 0
3, 386751, Note_on_c, 0, 65, 0
3, 386928, Note_on_c, 0, 47, 52
3, 387051, Control_c, 0, 64, 127
3, 387130, Control_c, 0, 64, 0
3, 387334, Note_on_c, 0, 47, 0
3, 387535, Note_on_c, 0, 64, 75
3, 387537, Note_on_c, 0, 53, 71
3, 387541, Note_on_c, 0, 57, 71
3, 387549, Note_on_c, 0, 52, 49
3, 387555, Note_on_c, 0, 60, 56
3, 387817, Note_on_c, 0, 52, 0
3, 388432, Note_on_c, 0, 53, 0
3, 388517, Note_on_c, 0, 57, 0
3, 388582, Note_on_c, 0, 64, 0
3, 388610, Note_on_c, 0, 60, 0
3, 388709, Note_on_c, 0, 62, 62
3, 388737, Note_on_c, 0, 53, 47
3, 388739, Note_on_c, 0, 57, 37
3, 388765, Note_on_c, 0, 50, 26
3, 389051, Note_on_c, 0, 62, 0
3, 389362, Note_on_c, 0, 50, 0
3, 389372, Note_on_c, 0, 57, 0
3, 389467, Note_on_c, 0, 46, 13
3, 389511, Note_on_c, 0, 53, 0
3, 389640, Note_on_c, 0, 46, 0
3, 389684, Note_on_c, 0, 48, 45
3, 389701, Note_on_c, 0, 61, 43
3, 389745, Note_on_c, 0, 56, 52
3, 389753, Note_on_c, 0, 52, 46
3, 389757, Note_on_c, 0, 58, 46
3, 390543, Note_on_c, 0, 48, 0
3, 390668, Note_on_c, 0, 52, 0
3, 390709, Note_on_c, 0, 42, 32
3, 390727, Control_c, 0, 64, 127
3, 390731, Note_on_c, 0, 49, 34
3, 390824, Note_on_c, 0, 58, 0
3, 390886, Control_c, 0, 64, 0
3, 390957, Note_on_c, 0, 56, 0
3, 391225, Note_on_c, 0, 42, 0
3, 391241, Note_on_c, 0, 61, 0
3, 391356, Note_on_c, 0, 49, 0
3, 391431, Note_on_c, 0, 57, 60
3, 391435, Note_on_c, 0, 60, 55
3, 391453, Note_on_c, 0, 53, 32
3, 391471, Note_on_c, 0, 48, 50
3, 391495, Note_on_c, 0, 41, 46
3, 391539, Note_on_c, 0, 57, 0
3, 391543, Note_on_c, 0, 53, 0
3, 391590, Note_on_c, 0, 41, 0
3, 391624, Note_on_c, 0, 60, 0
3, 391677, Note_on_c, 0, 48, 0
3, 392725, Note_on_c, 0, 93, 94
3, 392729, Note_on_c, 0, 60, 71
3, 392731, Note_on_c, 0, 88, 89
3, 392733, Note_on_c, 0, 81, 91
3, 392747, Note_on_c, 0, 53, 69
3, 392749, Note_on_c, 0, 57, 66
3, 392753, Note_on_c, 0, 62, 81
3, 392783, Note_on_c, 0, 91, 45
3, 392864, Note_on_c, 0, 91, 0
3, 393221, Note_on_c, 0, 62, 0
3, 393251, Note_on_c, 0, 93, 0
3, 393251, Note_on_c, 0, 53, 0
3, 393253, Note_on_c, 0, 81, 0
3, 393273, Note_on_c, 0, 60, 0
3, 393302, Note_on_c, 0, 88, 0
3, 393316, Note_on_c, 0, 57, 0
3, 393407, Note_on_c, 0, 60, 66
3, 393425, Note_on_c, 0, 62, 69
3, 393427, Note_on_c, 0, 53, 47
3, 393431, Note_on_c, 0, 88, 66
3, 393433, Note_on_c, 0, 57, 72
3, 393443, Note_on_c, 0, 93, 64
3, 393453, Note_on_c, 0, 81, 62
3, 393578, Note_on_c, 0, 62, 0
3, 393630, Note_on_c, 0, 93, 0
3, 393667, Note_on_c, 0, 81, 0
3, 393705, Note_on_c, 0, 88, 0
3, 393794, Note_on_c, 0, 62, 61
3, 393808, Note_on_c, 0, 93, 64
3, 393814, Note_on_c, 0, 88, 71
3, 393836, Note_on_c, 0, 81, 53
3, 394017, Note_on_c, 0, 62, 0
3, 394054, Note_on_c, 0, 93, 0
3, 394096, Note_on_c, 0, 60, 0
3, 394098, Note_on_c, 0, 81, 0
3, 394100, Note_on_c, 0, 88, 0
3, 394150, Note_on_c, 0, 53, 0
3, 394157, Note_on_c, 0, 57, 0
3, 394382, Note_on_c, 0, 83, 76
3, 394388, Note_on_c, 0, 88, 64
3, 394390, Note_on_c, 0, 76, 68
3, 394421, Note_on_c, 0, 60, 58
3, 394425, Note_on_c, 0, 50, 52
3, 394427, Note_on_c, 0, 53, 53
3, 394429, Note_on_c, 0, 57, 55
3, 394485, Note_on_c, 0, 76, 0
3, 394489, Note_on_c, 0, 60, 0
3, 394538, Note_on_c, 0, 83, 0
3, 394542, Note_on_c, 0, 50, 0
3, 394570, Note_on_c, 0, 88, 0
3, 394646, Note_on_c, 0, 53, 0
3, 394669, Note_on_c, 0, 57, 0
3, 395566, Control_c, 0, 64, 127
3, 396223, Control_c, 0, 64, 0
3, 396556, Note_on_c, 0, 88, 90
3, 396562, Note_on_c, 0, 65, 90
3, 396564, Note_on_c, 0, 57, 83
3, 396566, Note_on_c, 0, 83, 92
3, 396568, Note_on_c, 0, 76, 91
3, 396584, Note_on_c, 0, 62, 73
3, 396624, Note_on_c, 0, 86, 38
3, 396717, Note_on_c, 0, 86, 0
3, 396887, Note_on_c, 0, 88, 0
3, 396999, Note_on_c, 0, 76, 0
3, 397074, Note_on_c, 0, 57, 0
3, 397104, Note_on_c, 0, 83, 0
3, 397126, Note_on_c, 0, 65, 0
3, 397155, Note_on_c, 0, 62, 0
3, 397233, Note_on_c, 0, 75, 71
3, 397243, Note_on_c, 0, 83, 64
3, 397249, Note_on_c, 0, 57, 55
3, 397254, Note_on_c, 0, 87, 59
3, 397256, Note_on_c, 0, 65, 74
3, 397268, Note_on_c, 0, 62, 60
3, 397417, Note_on_c, 0, 65, 0
3, 397441, Note_on_c, 0, 87, 0
3, 397451, Note_on_c, 0, 83, 0
3, 397467, Note_on_c, 0, 75, 0
3, 397558, Note_on_c, 0, 83, 38
3, 397566, Note_on_c, 0, 88, 59
3, 397570, Note_on_c, 0, 65, 58
3, 397584, Note_on_c, 0, 76, 48
3, 397633, Control_c, 0, 64, 127
3, 397643, Note_on_c, 0, 86, 33
3, 397752, Note_on_c, 0, 86, 0
3, 397854, Note_on_c, 0, 76, 0
3, 397860, Note_on_c, 0, 57, 0
3, 397931, Note_on_c, 0, 83, 0
3, 397951, Note_on_c, 0, 88, 0
3, 397981, Note_on_c, 0, 65, 0
3, 398044, Note_on_c, 0, 62, 0
3, 398110, Control_c, 0, 64, 0
3, 398191, Note_on_c, 0, 65, 71
3, 398195, Note_on_c, 0, 62, 75
3, 398205, Note_on_c, 0, 89, 76
3, 398207, Note_on_c, 0, 56, 77
3, 398211, Note_on_c, 0, 84, 75
3, 398217, Note_on_c, 0, 77, 74
3, 398570, Control_c, 0, 64, 127
3, 398816, Note_on_c, 0, 89, 0
3, 398818, Note_on_c, 0, 84, 0
3, 398856, Note_on_c, 0, 62, 0
3, 398933, Note_on_c, 0, 65, 0
3, 398983, Note_on_c, 0, 77, 0
3, 399052, Note_on_c, 0, 56, 0
3, 399227, Control_c, 0, 64, 0
3, 399373, Note_on_c, 0, 88, 68
3, 399387, Note_on_c, 0, 81, 70
3, 399389, Note_on_c, 0, 85, 53
3, 399393, Note_on_c, 0, 76, 67
3, 399437, Note_on_c, 0, 86, 46
3, 399542, Note_on_c, 0, 86, 0
3, 399606, Note_on_c, 0, 88, 0
3, 399705, Note_on_c, 0, 85, 0
3, 399826, Note_on_c, 0, 81, 0
3, 400000, Note_on_c, 0, 76, 0
3, 400068, Note_on_c, 0, 45, 72
3, 400078, Note_on_c, 0, 52, 58
3, 400482, Control_c, 0, 64, 127
3, 400764, Control_c, 0, 64, 0
3, 401304, Note_on_c, 0, 45, 0
3, 401306, Note_on_c, 0, 66, 82
3, 401320, Note_on_c, 0, 62, 84
3, 401326, Note_on_c, 0, 57, 87
3, 401457, Note_on_c, 0, 52, 0
3, 402042, Note_on_c, 0, 52, 89
3, 402353, Control_c, 0, 64, 127
3, 402734, Note_on_c, 0, 57, 0
3, 402945, Note_on_c, 0, 62, 0
3, 402972, Note_on_c, 0, 66, 0
3, 403028, Control_c, 0, 64, 0
3, 403250, Note_on_c, 0, 68, 79
3, 403260, Note_on_c, 0, 64, 87
3, 403266, Note_on_c, 0, 59, 88
3, 403327, Note_on_c, 0, 66, 30
3, 403492, Note_on_c, 0, 52, 0
3, 403950, Note_on_c, 0, 52, 95
3, 404619, Note_on_c, 0, 68, 0
3, 404623, Note_on_c, 0, 64, 0
3, 404643, Note_on_c, 0, 59, 0
3, 404766, Note_on_c, 0, 66, 0
3, 405169, Note_on_c, 0, 66, 71
3, 405171, Note_on_c, 0, 69, 71
3, 405175, Note_on_c, 0, 62, 84
3, 405179, Note_on_c, 0, 57, 87
3, 405385, Note_on_c, 0, 52, 0
3, 405895, Note_on_c, 0, 52, 96
3, 406434, Note_on_c, 0, 69, 0
3, 406478, Note_on_c, 0, 57, 0
3, 406555, Note_on_c, 0, 62, 0
3, 406954, Note_on_c, 0, 66, 0
3, 407067, Control_c, 0, 64, 127
3, 407417, Note_on_c, 0, 52, 0
3, 407623, Control_c, 0, 64, 0
3, 407696, Note_on_c, 0, 68, 69
3, 407700, Note_on_c, 0, 71, 73
3, 407704, Note_on_c, 0, 64, 85
3, 407712, Note_on_c, 0, 59, 81
3, 407714, Note_on_c, 0, 52, 89
3, 407766, Note_on_c, 0, 69, 34
3, 407863, Note_on_c, 0, 69, 0
3, 408059, Control_c, 0, 64, 127
3, 408369, Note_on_c, 0, 71, 0
3, 408389, Note_on_c, 0, 59, 0
3, 408410, Note_on_c, 0, 64, 0
3, 408498, Note_on_c, 0, 68, 0
3, 408797, Control_c, 0, 64, 0
3, 408972, Note_on_c, 0, 72, 68
3, 408980, Note_on_c, 0, 66, 69
3, 408982, Note_on_c, 0, 54, 63
3, 408984, Note_on_c, 0, 63, 69
3, 408998, Note_on_c, 0, 69, 52
3, 409024, Note_on_c, 0, 52, 0
3, 409135, Control_c, 0, 64, 127
3, 409266, Note_on_c, 0, 63, 0
3, 409303, Note_on_c, 0, 69, 0
3, 409319, Note_on_c, 0, 72, 0
3, 409335, Note_on_c, 0, 54, 0
3, 409365, Note_on_c, 0, 66, 0
3, 409730, Control_c, 0, 64, 0
3, 409930, Note_on_c, 0, 57, 48
3, 409952, Note_on_c, 0, 75, 59
3, 409972, Note_on_c, 0, 66, 58
3, 409972, Note_on_c, 0, 69, 49
3, 409976, Note_on_c, 0, 72, 50
3, 410188, Control_c, 0, 64, 127
3, 410264, Note_on_c, 0, 69, 0
3, 410287, Note_on_c, 0, 72, 0
3, 410383, Note_on_c, 0, 66, 0
3, 410391, Note_on_c, 0, 75, 0
3, 410767, Control_c, 0, 64, 0
3, 410894, Note_on_c, 0, 57, 0
3, 410932, Note_on_c, 0, 77, 59
3, 410956, Note_on_c, 0, 70, 54
3, 410958, Note_on_c, 0, 65, 62
3, 410966, Note_on_c, 0, 74, 55
3, 410968, Note_on_c, 0, 58, 59
3, 411164, Control_c, 0, 64, 127
3, 411182, Note_on_c, 0, 65, 0
3, 411226, Note_on_c, 0, 70, 0
3, 411256, Note_on_c, 0, 77, 0
3, 411258, Note_on_c, 0, 74, 0
3, 411662, Control_c, 0, 64, 0
3, 411857, Note_on_c, 0, 70, 50
3, 411867, Note_on_c, 0, 74, 56
3, 411873, Note_on_c, 0, 81, 44
3, 411881, Note_on_c, 0, 62, 60
3, 411891, Note_on_c, 0, 77, 46
3, 411980, Control_c, 0, 64, 127
3, 411982, Note_on_c, 0, 58, 0
3, 412063, Note_on_c, 0, 70, 0
3, 412069, Note_on_c, 0, 62, 0
3, 412089, Note_on_c, 0, 74, 0
3, 412115, Note_on_c, 0, 77, 0
3, 412156, Note_on_c, 0, 81, 0
3, 412696, Control_c, 0, 64, 0
3, 412817, Note_on_c, 0, 84, 53
3, 412819, Note_on_c, 0, 77, 53
3, 412831, Note_on_c, 0, 71, 34
3, 412996, Control_c, 0, 64, 127
3, 413055, Note_on_c, 0, 71, 0
3, 413089, Note_on_c, 0, 77, 0
3, 413134, Note_on_c, 0, 84, 0
3, 413626, Control_c, 0, 64, 0
3, 413736, Note_on_c, 0, 70, 50
3, 413738, Note_on_c, 0, 80, 54
3, 413744, Note_on_c, 0, 76, 51
3, 413748, Note_on_c, 0, 85, 55
3, 414023, Control_c, 0, 64, 127
3, 414253, Note_on_c, 0, 70, 0
3, 414273, Note_on_c, 0, 76, 0
3, 414339, Note_on_c, 0, 80, 0
3, 414380, Note_on_c, 0, 85, 0
3, 414404, Control_c, 0, 64, 0
3, 414424, Note_on_c, 0, 84, 48
3, 414434, Note_on_c, 0, 69, 52
3, 414436, Note_on_c, 0, 74, 45
3, 414450, Note_on_c, 0, 79, 46
3, 414527, Note_on_c, 0, 74, 0
3, 414579, Note_on_c, 0, 69, 0
3, 414583, Note_on_c, 0, 79, 0
3, 414601, Note_on_c, 0, 84, 0
3, 415591, Note_on_c, 0, 88, 49
3, 415597, Note_on_c, 0, 64, 74
3, 415630, Note_on_c, 0, 89, 78
3, 415672, Note_on_c, 0, 65, 56
3, 415698, Note_on_c, 0, 88, 0
3, 415777, Note_on_c, 0, 64, 0
3, 416243, Note_on_c, 0, 65, 0
3, 416245, Note_on_c, 0, 89, 0
3, 416351, Note_on_c, 0, 89, 72
3, 416372, Note_on_c, 0, 65, 73
3, 416765, Note_on_c, 0, 89, 0
3, 416777, Note_on_c, 0, 65, 0
3, 416930, Note_on_c, 0, 65, 62
3, 416954, Note_on_c, 0, 89, 56
3, 417446, Note_on_c, 0, 89, 0
3, 417454, Note_on_c, 0, 65, 0
3, 417509, Note_on_c, 0, 81, 50
3, 417523, Note_on_c, 0, 57, 55
3, 417712, Note_on_c, 0, 81, 0
3, 417747, Note_on_c, 0, 57, 0
3, 418535, Note_on_c, 0, 62, 32
3, 418553, Note_on_c, 0, 57, 24
3, 418571, Note_on_c, 0, 58, 35
3, 418771, Note_on_c, 0, 62, 0
3, 418789, Note_on_c, 0, 58, 0
3, 418811, Note_on_c, 0, 57, 0
3, 420245, Note_on_c, 0, 62, 62
3, 420261, Note_on_c, 0, 58, 53
3, 420313, Note_on_c, 0, 62, 0
3, 420418, Note_on_c, 0, 58, 0
3, 420467, Note_on_c, 0, 84, 92
3, 421080, Note_on_c, 0, 84, 0
3, 421128, Note_on_c, 0, 72, 61
3, 421305, Note_on_c, 0, 72, 0
3, 421469, Note_on_c, 0, 72, 44
3, 421929, Note_on_c, 0, 72, 0
3, 422100, Note_on_c, 0, 64, 68
3, 422120, Note_on_c, 0, 60, 43
3, 422134, Note_on_c, 0, 72, 35
3, 422166, Note_on_c, 0, 64, 0
3, 422170, Note_on_c, 0, 57, 40
3, 422324, Note_on_c, 0, 60, 0
3, 422455, Note_on_c, 0, 57, 0
3, 422467, Note_on_c, 0, 72, 0
3, 422670, Note_on_c, 0, 84, 79
3, 423023, Note_on_c, 0, 84, 0
3, 423368, Note_on_c, 0, 72, 68
3, 423878, Note_on_c, 0, 72, 0
3, 424048, Note_on_c, 0, 72, 57
3, 424066, Note_on_c, 0, 60, 53
3, 424080, Note_on_c, 0, 57, 46
3, 424092, Note_on_c, 0, 53, 41
3, 424136, Note_on_c, 0, 60, 0
3, 424298, Note_on_c, 0, 72, 0
3, 424344, Note_on_c, 0, 57, 0
3, 424427, Note_on_c, 0, 53, 0
3, 424453, Note_on_c, 0, 72, 52
3, 424900, Note_on_c, 0, 72, 0
3, 425044, Note_on_c, 0, 72, 60
3, 425217, Note_on_c, 0, 72, 0
3, 425989, Note_on_c, 0, 58, 63
3, 425999, Note_on_c, 0, 57, 54
3, 426007, Note_on_c, 0, 62, 46
3, 426082, Note_on_c, 0, 62, 0
3, 426084, Note_on_c, 0, 57, 0
3, 426193, Note_on_c, 0, 58, 0
3, 426292, Note_on_c, 0, 71, 62
3, 426461, Note_on_c, 0, 72, 60
3, 426477, Note_on_c, 0, 71, 0
3, 426830, Note_on_c, 0, 72, 0
3, 427219, Note_on_c, 0, 76, 90
3, 427278, Note_on_c, 0, 75, 45
3, 427346, Note_on_c, 0, 75, 0
3, 427848, Note_on_c, 0, 76, 0
3, 427951, Note_on_c, 0, 58, 39
3, 428104, Note_on_c, 0, 58, 0
3, 428169, Note_on_c, 0, 72, 75
3, 428665, Note_on_c, 0, 71, 46
3, 428764, Note_on_c, 0, 70, 58
3, 428800, Note_on_c, 0, 72, 0
3, 428933, Note_on_c, 0, 68, 32
3, 428947, Note_on_c, 0, 58, 28
3, 428975, Note_on_c, 0, 71, 0
3, 429076, Note_on_c, 0, 58, 0
3, 429108, Note_on_c, 0, 70, 0
3, 429205, Note_on_c, 0, 65, 38
3, 429223, Note_on_c, 0, 68, 0
3, 429796, Note_on_c, 0, 63, 69
3, 429852, Note_on_c, 0, 58, 47
3, 429854, Note_on_c, 0, 55, 34
3, 429891, Note_on_c, 0, 65, 0
3, 430016, Note_on_c, 0, 58, 0
3, 430151, Note_on_c, 0, 55, 0
3, 430185, Note_on_c, 0, 63, 0
3, 430385, Note_on_c, 0, 62, 48
3, 430818, Note_on_c, 0, 62, 0
3, 430826, Note_on_c, 0, 55, 33
3, 430859, Note_on_c, 0, 65, 76
3, 430961, Note_on_c, 0, 55, 0
3, 431296, Note_on_c, 0, 63, 36
3, 431649, Note_on_c, 0, 65, 0
3, 431851, Note_on_c, 0, 53, 40
3, 431857, Note_on_c, 0, 63, 0
3, 431875, Note_on_c, 0, 48, 32
3, 432121, Note_on_c, 0, 48, 0
3, 432127, Note_on_c, 0, 54, 56
3, 432246, Note_on_c, 0, 53, 0
3, 432724, Note_on_c, 0, 56, 61
3, 432768, Note_on_c, 0, 48, 41
3, 432834, Note_on_c, 0, 54, 0
3, 433016, Note_on_c, 0, 48, 0
3, 433066, Note_on_c, 0, 56, 0
3, 433210, Note_on_c, 0, 57, 53
3, 433609, Note_on_c, 0, 57, 0
3, 433724, Note_on_c, 0, 58, 58
3, 433760, Note_on_c, 0, 53, 36
3, 433768, Note_on_c, 0, 46, 32
3, 434052, Note_on_c, 0, 58, 0
3, 434060, Note_on_c, 0, 46, 0
3, 434159, Note_on_c, 0, 59, 40
3, 434462, Note_on_c, 0, 53, 0
3, 434649, Note_on_c, 0, 59, 0
3, 434673, Note_on_c, 0, 60, 58
3, 434691, Note_on_c, 0, 46, 34
3, 434732, Note_on_c, 0, 57, 30
3, 434808, Note_on_c, 0, 53, 26
3, 434893, Note_on_c, 0, 46, 0
3, 434901, Note_on_c, 0, 60, 0
3, 434937, Note_on_c, 0, 57, 0
3, 434946, Note_on_c, 0, 53, 0
3, 435105, Note_on_c, 0, 62, 53
3, 435472, Note_on_c, 0, 62, 0
3, 435556, Note_on_c, 0, 63, 57
3, 435742, Note_on_c, 0, 63, 0
3, 435877, Note_on_c, 0, 65, 68
3, 436113, Note_on_c, 0, 65, 0
3, 436147, Note_on_c, 0, 70, 57
3, 436347, Note_on_c, 0, 70, 0
3, 436470, Note_on_c, 0, 72, 61
3, 436508, Note_on_c, 0, 61, 50
3, 436516, Note_on_c, 0, 65, 57
3, 436599, Note_on_c, 0, 55, 19
3, 436716, Note_on_c, 0, 77, 44
3, 436718, Note_on_c, 0, 72, 0
3, 436730, Note_on_c, 0, 65, 0
3, 436758, Note_on_c, 0, 55, 0
3, 436936, Note_on_c, 0, 77, 0
3, 437091, Note_on_c, 0, 81, 43
3, 437240, Note_on_c, 0, 61, 0
3, 437266, Note_on_c, 0, 81, 0
3, 437353, Note_on_c, 0, 84, 79
3, 437663, Note_on_c, 0, 82, 65
3, 437665, Note_on_c, 0, 84, 0
3, 437681, Note_on_c, 0, 65, 53
3, 437698, Note_on_c, 0, 57, 50
3, 437728, Note_on_c, 0, 60, 34
3, 437861, Note_on_c, 0, 65, 0
3, 437891, Note_on_c, 0, 82, 0
3, 437988, Note_on_c, 0, 81, 71
3, 438155, Note_on_c, 0, 57, 0
3, 438159, Note_on_c, 0, 60, 0
3, 438250, Note_on_c, 0, 81, 0
3, 438458, Note_on_c, 0, 76, 64
3, 438500, Note_on_c, 0, 60, 24
3, 438587, Note_on_c, 0, 60, 0
3, 438657, Note_on_c, 0, 76, 0
3, 438934, Note_on_c, 0, 76, 62
3, 439222, Note_on_c, 0, 76, 0
3, 439234, Note_on_c, 0, 74, 58
3, 439395, Note_on_c, 0, 74, 0
3, 439530, Note_on_c, 0, 76, 67
3, 439545, Note_on_c, 0, 60, 39
3, 439551, Note_on_c, 0, 57, 44
3, 439567, Note_on_c, 0, 53, 40
3, 439688, Note_on_c, 0, 60, 0
3, 439829, Note_on_c, 0, 57, 0
3, 439865, Note_on_c, 0, 53, 0
3, 440347, Note_on_c, 0, 76, 0
3, 440351, Note_on_c, 0, 72, 64
3, 440496, Note_on_c, 0, 72, 0
3, 441337, Note_on_c, 0, 47, 66
3, 441494, Note_on_c, 0, 47, 0
3, 441682, Note_on_c, 0, 81, 76
3, 441686, Note_on_c, 0, 74, 80
3, 441692, Control_c, 0, 64, 127
3, 441694, Note_on_c, 0, 69, 77
3, 441704, Note_on_c, 0, 77, 68
3, 441734, Note_on_c, 0, 64, 83
3, 441740, Note_on_c, 0, 55, 68
3, 441750, Note_on_c, 0, 60, 54
3, 441756, Note_on_c, 0, 58, 47
3, 441776, Note_on_c, 0, 61, 32
3, 441843, Note_on_c, 0, 61, 0
3, 441920, Note_on_c, 0, 58, 0
3, 442002, Note_on_c, 0, 55, 0
3, 442014, Note_on_c, 0, 60, 0
3, 442027, Note_on_c, 0, 64, 0
3, 442093, Note_on_c, 0, 69, 0
3, 442188, Note_on_c, 0, 81, 0
3, 442198, Note_on_c, 0, 77, 0
3, 442208, Control_c, 0, 64, 0
3, 442220, Note_on_c, 0, 74, 0
3, 442621, Note_on_c, 0, 57, 74
3, 442637, Note_on_c, 0, 65, 80
3, 442646, Note_on_c, 0, 74, 82
3, 442650, Note_on_c, 0, 62, 73
3, 442660, Note_on_c, 0, 81, 72
3, 442664, Note_on_c, 0, 77, 68
3, 442664, Note_on_c, 0, 69, 76
3, 443059, Note_on_c, 0, 62, 0
3, 443069, Note_on_c, 0, 57, 0
3, 443071, Note_on_c, 0, 74, 0
3, 443093, Note_on_c, 0, 69, 0
3, 443109, Note_on_c, 0, 65, 0
3, 443136, Note_on_c, 0, 77, 0
3, 443146, Note_on_c, 0, 81, 0
3, 443505, Control_c, 0, 64, 127
3, 443607, Note_on_c, 0, 73, 67
3, 443613, Note_on_c, 0, 77, 63
3, 443619, Note_on_c, 0, 69, 79
3, 443621, Note_on_c, 0, 81, 66
3, 443621, Note_on_c, 0, 61, 69
3, 443625, Note_on_c, 0, 56, 78
3, 443627, Note_on_c, 0, 65, 81
3, 443644, Note_on_c, 0, 60, 60
3, 443920, Note_on_c, 0, 69, 0
3, 443926, Note_on_c, 0, 56, 0
3, 443986, Note_on_c, 0, 73, 0
3, 443988, Note_on_c, 0, 81, 0
3, 444025, Note_on_c, 0, 65, 0
3, 444027, Note_on_c, 0, 60, 0
3, 444043, Note_on_c, 0, 77, 0
3, 444122, Note_on_c, 0, 61, 0
3, 444285, Note_on_c, 0, 82, 69
3, 444293, Note_on_c, 0, 70, 73
3, 444303, Note_on_c, 0, 61, 62
3, 444311, Note_on_c, 0, 65, 69
3, 444323, Control_c, 0, 64, 0
3, 444325, Note_on_c, 0, 56, 60
3, 444329, Note_on_c, 0, 60, 60
3, 444454, Note_on_c, 0, 60, 0
3, 444467, Note_on_c, 0, 65, 0
3, 444485, Note_on_c, 0, 56, 0
3, 444491, Note_on_c, 0, 82, 0
3, 444495, Note_on_c, 0, 70, 0
3, 444539, Note_on_c, 0, 61, 0
3, 444630, Note_on_c, 0, 56, 63
3, 444638, Note_on_c, 0, 65, 69
3, 444646, Note_on_c, 0, 61, 64
3, 444652, Note_on_c, 0, 84, 78
3, 444652, Note_on_c, 0, 72, 71
3, 444662, Control_c, 0, 64, 127
3, 444664, Note_on_c, 0, 60, 64
3, 444700, Note_on_c, 0, 74, 53
3, 444781, Note_on_c, 0, 74, 0
3, 444956, Note_on_c, 0, 84, 0
3, 444960, Note_on_c, 0, 72, 0
3, 444985, Note_on_c, 0, 60, 0
3, 444991, Note_on_c, 0, 65, 0
3, 445110, Note_on_c, 0, 56, 0
3, 445116, Control_c, 0, 64, 0
3, 445128, Note_on_c, 0, 61, 0
3, 445287, Note_on_c, 0, 81, 71
3, 445291, Note_on_c, 0, 76, 72
3, 445297, Note_on_c, 0, 69, 77
3, 445309, Note_on_c, 0, 60, 69
3, 445313, Note_on_c, 0, 57, 74
3, 445315, Note_on_c, 0, 64, 82
3, 445317, Note_on_c, 0, 55, 66
3, 445333, Note_on_c, 0, 78, 40
3, 445337, Note_on_c, 0, 80, 47
3, 445414, Note_on_c, 0, 78, 0
3, 445620, Control_c, 0, 64, 127
3, 446428, Note_on_c, 0, 64, 0
3, 446471, Note_on_c, 0, 69, 0
3, 446477, Note_on_c, 0, 60, 0
3, 446539, Note_on_c, 0, 57, 0
3, 446541, Note_on_c, 0, 55, 0
3, 446567, Note_on_c, 0, 76, 0
3, 446614, Note_on_c, 0, 81, 0
3, 446644, Note_on_c, 0, 80, 0
3, 447293, Control_c, 0, 64, 0
3, 447442, Note_on_c, 0, 89, 85
3, 447445, Note_on_c, 0, 50, 74
3, 447447, Note_on_c, 0, 57, 80
3, 447449, Note_on_c, 0, 84, 85
3, 447455, Note_on_c, 0, 53, 69
3, 447457, Note_on_c, 0, 60, 87
3, 447461, Note_on_c, 0, 77, 89
3, 447690, Control_c, 0, 64, 127
3, 447888, Note_on_c, 0, 89, 0
3, 447918, Note_on_c, 0, 77, 0
3, 447922, Note_on_c, 0, 84, 0
3, 447971, Note_on_c, 0, 50, 0
3, 447999, Note_on_c, 0, 60, 0
3, 448043, Note_on_c, 0, 57, 0
3, 448045, Note_on_c, 0, 53, 0
3, 448088, Control_c, 0, 64, 0
3, 448150, Note_on_c, 0, 86, 75
3, 448166, Note_on_c, 0, 74, 64
3, 448170, Note_on_c, 0, 81, 70
3, 448188, Note_on_c, 0, 60, 60
3, 448190, Note_on_c, 0, 57, 68
3, 448192, Note_on_c, 0, 53, 60
3, 448198, Note_on_c, 0, 76, 60
3, 448202, Note_on_c, 0, 50, 44
3, 448273, Note_on_c, 0, 76, 0
3, 448346, Note_on_c, 0, 60, 0
3, 448358, Note_on_c, 0, 74, 0
3, 448398, Note_on_c, 0, 50, 0
3, 448406, Note_on_c, 0, 86, 0
3, 448408, Note_on_c, 0, 81, 0
3, 448465, Note_on_c, 0, 57, 0
3, 448469, Note_on_c, 0, 53, 0
3, 449096, Note_on_c, 0, 57, 79
3, 449102, Note_on_c, 0, 80, 79
3, 449104, Note_on_c, 0, 62, 85
3, 449106, Note_on_c, 0, 58, 74
3, 449110, Note_on_c, 0, 53, 66
3, 449122, Note_on_c, 0, 84, 77
3, 449124, Note_on_c, 0, 72, 81
3, 449229, Note_on_c, 0, 83, 22
3, 449251, Note_on_c, 0, 62, 0
3, 449267, Note_on_c, 0, 81, 55
3, 449271, Note_on_c, 0, 80, 0
3, 449322, Note_on_c, 0, 57, 0
3, 449342, Note_on_c, 0, 58, 0
3, 449366, Note_on_c, 0, 72, 0
3, 449382, Note_on_c, 0, 53, 0
3, 449386, Note_on_c, 0, 83, 0
3, 449396, Note_on_c, 0, 84, 0
3, 449412, Note_on_c, 0, 81, 0
3, 450052, Note_on_c, 0, 58, 77
3, 450054, Note_on_c, 0, 57, 71
3, 450056, Note_on_c, 0, 81, 68
3, 450062, Note_on_c, 0, 53, 67
3, 450064, Note_on_c, 0, 69, 79
3, 450066, Note_on_c, 0, 62, 80
3, 450068, Note_on_c, 0, 77, 66
3, 450136, Note_on_c, 0, 79, 31
3, 450316, Control_c, 0, 64, 127
3, 450686, Note_on_c, 0, 77, 0
3, 450707, Note_on_c, 0, 81, 0
3, 450777, Note_on_c, 0, 79, 0
3, 450795, Note_on_c, 0, 57, 0
3, 450806, Note_on_c, 0, 69, 0
3, 450840, Note_on_c, 0, 62, 0
3, 450882, Note_on_c, 0, 53, 0
3, 450951, Note_on_c, 0, 58, 0
3, 451114, Control_c, 0, 64, 0
3, 451295, Note_on_c, 0, 52, 66
3, 451299, Note_on_c, 0, 58, 65
3, 451302, Note_on_c, 0, 62, 72
3, 451308, Note_on_c, 0, 73, 67
3, 451322, Note_on_c, 0, 76, 62
3, 451324, Note_on_c, 0, 79, 60
3, 451334, Note_on_c, 0, 67, 75
3, 451376, Note_on_c, 0, 77, 45
3, 451465, Note_on_c, 0, 77, 0
3, 451491, Control_c, 0, 64, 127
3, 451886, Note_on_c, 0, 76, 0
3, 452003, Note_on_c, 0, 73, 0
3, 452007, Note_on_c, 0, 67, 0
3, 452128, Note_on_c, 0, 79, 0
3, 452279, Note_on_c, 0, 73, 44
3, 452529, Note_on_c, 0, 62, 0
3, 452618, Note_on_c, 0, 58, 0
3, 452620, Note_on_c, 0, 73, 0
3, 452693, Note_on_c, 0, 52, 0
3, 452719, Control_c, 0, 64, 0
3, 452965, Note_on_c, 0, 77, 74
3, 452973, Note_on_c, 0, 72, 76
3, 452985, Note_on_c, 0, 67, 70
3, 453049, Note_on_c, 0, 67, 0
3, 453126, Note_on_c, 0, 77, 0
3, 453128, Note_on_c, 0, 72, 0
3, 453828, Note_on_c, 0, 48, 77
3, 453840, Note_on_c, 0, 41, 71
3, 454013, Note_on_c, 0, 48, 0
3, 454033, Note_on_c, 0, 41, 0
3, 455132, Note_on_c, 0, 46, 56
3, 455142, Note_on_c, 0, 39, 55
3, 455169, Control_c, 0, 64, 127
3, 455286, Control_c, 0, 64, 0
3, 455445, Control_c, 0, 64, 127
3, 455983, Note_on_c, 0, 46, 0
3, 456070, Note_on_c, 0, 39, 0
3, 456620, Control_c, 0, 64, 0
3, 456699, Note_on_c, 0, 44, 58
3, 456719, Note_on_c, 0, 37, 57
3, 457096, Note_on_c, 0, 70, 52
3, 457142, Note_on_c, 0, 71, 55
3, 457185, Note_on_c, 0, 72, 68
3, 457229, Note_on_c, 0, 70, 0
3, 457290, Note_on_c, 0, 71, 0
3, 457459, Note_on_c, 0, 72, 0
3, 457727, Note_on_c, 0, 75, 80
3, 457947, Note_on_c, 0, 75, 0
3, 458165, Note_on_c, 0, 72, 77
3, 458592, Note_on_c, 0, 72, 0
3, 459040, Note_on_c, 0, 71, 78
3, 459383, Note_on_c, 0, 71, 0
3, 459546, Note_on_c, 0, 71, 46
3, 459659, Note_on_c, 0, 70, 55
3, 459731, Note_on_c, 0, 71, 0
3, 459764, Note_on_c, 0, 68, 58
3, 459883, Note_on_c, 0, 70, 0
3, 460000, Note_on_c, 0, 68, 0
3, 460008, Note_on_c, 0, 65, 48
3, 460377, Note_on_c, 0, 65, 0
3, 460622, Note_on_c, 0, 63, 53
3, 460762, Note_on_c, 0, 44, 0
3, 460826, Note_on_c, 0, 63, 0
3, 460844, Note_on_c, 0, 37, 0
3, 460933, Note_on_c, 0, 65, 71
3, 461356, Note_on_c, 0, 65, 0
3, 461498, Note_on_c, 0, 65, 68
3, 461685, Note_on_c, 0, 65, 0
3, 461733, Note_on_c, 0, 41, 50
3, 461752, Note_on_c, 0, 48, 37
3, 462171, Note_on_c, 0, 48, 0
3, 462217, Note_on_c, 0, 41, 0
3, 462824, Note_on_c, 0, 46, 55
3, 462826, Note_on_c, 0, 39, 56
3, 463231, Note_on_c, 0, 39, 0
3, 463236, Note_on_c, 0, 46, 0
3, 463780, Control_c, 0, 64, 127
3, 464296, Control_c, 0, 64, 0
3, 464357, Note_on_c, 0, 44, 46
3, 464367, Note_on_c, 0, 37, 49
3, 464897, Note_on_c, 0, 48, 37
3, 465056, Note_on_c, 0, 49, 38
3, 465058, Note_on_c, 0, 48, 0
3, 465254, Note_on_c, 0, 51, 48
3, 465302, Note_on_c, 0, 49, 0
3, 465433, Note_on_c, 0, 51, 0
3, 465506, Note_on_c, 0, 53, 51
3, 465693, Note_on_c, 0, 53, 0
3, 465796, Note_on_c, 0, 55, 48
3, 465915, Note_on_c, 0, 55, 0
3, 466087, Note_on_c, 0, 56, 68
3, 466244, Note_on_c, 0, 56, 0
3, 466355, Note_on_c, 0, 58, 64
3, 466502, Note_on_c, 0, 58, 0
3, 466619, Note_on_c, 0, 60, 61
3, 466738, Note_on_c, 0, 60, 0
3, 466824, Note_on_c, 0, 61, 61
3, 467016, Note_on_c, 0, 61, 0
3, 467093, Note_on_c, 0, 63, 54
3, 467220, Note_on_c, 0, 63, 0
3, 467308, Note_on_c, 0, 65, 51
3, 467520, Note_on_c, 0, 67, 64
3, 467548, Note_on_c, 0, 65, 0
3, 467758, Note_on_c, 0, 68, 46
3, 467796, Control_c, 0, 64, 127
3, 467841, Note_on_c, 0, 67, 0
3, 467921, Note_on_c, 0, 70, 46
3, 467931, Note_on_c, 0, 37, 0
3, 467958, Note_on_c, 0, 68, 0
3, 467980, Note_on_c, 0, 44, 0
3, 468206, Note_on_c, 0, 70, 0
3, 468232, Note_on_c, 0, 71, 45
3, 468333, Control_c, 0, 64, 0
3, 468373, Note_on_c, 0, 71, 0
3, 468405, Note_on_c, 0, 74, 65
3, 468641, Note_on_c, 0, 48, 41
3, 468653, Note_on_c, 0, 41, 45
3, 468667, Note_on_c, 0, 72, 58
3, 468788, Note_on_c, 0, 74, 0
3, 468946, Note_on_c, 0, 72, 0
3, 469167, Note_on_c, 0, 69, 62
3, 469188, Note_on_c, 0, 67, 56
3, 469254, Note_on_c, 0, 67, 0
3, 469369, Note_on_c, 0, 69, 0
3, 469557, Note_on_c, 0, 65, 71
3, 469676, Note_on_c, 0, 41, 0
3, 469746, Note_on_c, 0, 48, 0
3, 469861, Note_on_c, 0, 65, 0
3, 469899, Note_on_c, 0, 60, 37
3, 469986, Note_on_c, 0, 60, 0
3, 470200, Note_on_c, 0, 65, 74
3, 470264, Note_on_c, 0, 46, 69
3, 470272, Note_on_c, 0, 39, 68
3, 470355, Note_on_c, 0, 65, 0
3, 471436, Control_c, 0, 64, 127
3, 471666, Note_on_c, 0, 46, 0
3, 471819, Note_on_c, 0, 39, 0
3, 471934, Control_c, 0, 64, 0
3, 472022, Note_on_c, 0, 44, 65
3, 472023, Note_on_c, 0, 37, 62
3, 472293, Control_c, 0, 64, 127
3, 472293, Control_c, 0, 64, 0
3, 472714, Note_on_c, 0, 84, 71
3, 472720, Note_on_c, 0, 77, 62
3, 472738, Note_on_c, 0, 76, 71
3, 472879, Note_on_c, 0, 76, 0
3, 472986, Note_on_c, 0, 72, 57
3, 472994, Note_on_c, 0, 84, 0
3, 473017, Note_on_c, 0, 77, 0
3, 473035, Note_on_c, 0, 81, 33
3, 473154, Note_on_c, 0, 72, 0
3, 473242, Note_on_c, 0, 81, 0
3, 473323, Note_on_c, 0, 84, 76
3, 473325, Note_on_c, 0, 77, 81
3, 473795, Note_on_c, 0, 84, 0
3, 473797, Note_on_c, 0, 77, 0
3, 473932, Note_on_c, 0, 84, 55
3, 473960, Note_on_c, 0, 77, 52
3, 474186, Note_on_c, 0, 84, 0
3, 474212, Note_on_c, 0, 72, 31
3, 474244, Note_on_c, 0, 77, 0
3, 474367, Note_on_c, 0, 72, 0
3, 474486, Note_on_c, 0, 84, 77
3, 474507, Note_on_c, 0, 77, 74
3, 474807, Note_on_c, 0, 84, 0
3, 474849, Note_on_c, 0, 77, 0
3, 475142, Note_on_c, 0, 84, 65
3, 475144, Note_on_c, 0, 77, 74
3, 475216, Control_c, 0, 64, 127
3, 475372, Note_on_c, 0, 77, 0
3, 475384, Note_on_c, 0, 84, 0
3, 475466, Note_on_c, 0, 72, 40
3, 475557, Note_on_c, 0, 44, 0
3, 475559, Note_on_c, 0, 81, 41
3, 475593, Note_on_c, 0, 37, 0
3, 475611, Control_c, 0, 64, 0
3, 475670, Note_on_c, 0, 72, 0
3, 475775, Note_on_c, 0, 81, 0
3, 475870, Note_on_c, 0, 84, 68
3, 475874, Note_on_c, 0, 77, 74
3, 475894, Note_on_c, 0, 48, 67
3, 475904, Note_on_c, 0, 41, 56
3, 476628, Note_on_c, 0, 84, 0
3, 476640, Note_on_c, 0, 77, 0
3, 476783, Note_on_c, 0, 77, 52
3, 476793, Note_on_c, 0, 84, 47
3, 476995, Note_on_c, 0, 84, 0
3, 476997, Note_on_c, 0, 77, 0
3, 477114, Note_on_c, 0, 41, 0
3, 477146, Note_on_c, 0, 81, 63
3, 477166, Note_on_c, 0, 77, 24
3, 477178, Note_on_c, 0, 48, 0
3, 477226, Note_on_c, 0, 72, 30
3, 477263, Note_on_c, 0, 77, 0
3, 477319, Note_on_c, 0, 72, 0
3, 477339, Note_on_c, 0, 81, 0
3, 477426, Note_on_c, 0, 48, 59
3, 477432, Note_on_c, 0, 77, 53
3, 477436, Note_on_c, 0, 84, 57
3, 477444, Note_on_c, 0, 41, 48
3, 477454, Note_on_c, 0, 72, 22
3, 477565, Note_on_c, 0, 72, 0
3, 477622, Note_on_c, 0, 77, 0
3, 477668, Note_on_c, 0, 84, 0
3, 477670, Note_on_c, 0, 48, 0
3, 477686, Note_on_c, 0, 41, 0
3, 478214, Note_on_c, 0, 84, 71
3, 478220, Control_c, 0, 64, 127
3, 478222, Note_on_c, 0, 77, 71
3, 478233, Note_on_c, 0, 72, 59
3, 478235, Note_on_c, 0, 46, 59
3, 478245, Note_on_c, 0, 39, 59
3, 478339, Note_on_c, 0, 72, 0
3, 478368, Note_on_c, 0, 77, 0
3, 478376, Control_c, 0, 64, 0
3, 478416, Note_on_c, 0, 84, 0
3, 478559, Note_on_c, 0, 81, 58
3, 478622, Note_on_c, 0, 46, 0
3, 478700, Note_on_c, 0, 39, 0
3, 478753, Note_on_c, 0, 81, 0
3, 478837, Note_on_c, 0, 84, 63
3, 478850, Note_on_c, 0, 77, 61
3, 478856, Note_on_c, 0, 46, 47
3, 478860, Note_on_c, 0, 39, 53
3, 478868, Note_on_c, 0, 72, 40
3, 478916, Control_c, 0, 64, 127
3, 479128, Note_on_c, 0, 77, 0
3, 479168, Note_on_c, 0, 72, 0
3, 479251, Note_on_c, 0, 46, 0
3, 479281, Note_on_c, 0, 84, 0
3, 479301, Note_on_c, 0, 39, 0
3, 479551, Control_c, 0, 64, 0
3, 479704, Note_on_c, 0, 84, 77
3, 479706, Note_on_c, 0, 80, 65
3, 479708, Note_on_c, 0, 77, 77
3, 479710, Note_on_c, 0, 72, 76
3, 479713, Note_on_c, 0, 37, 68
3, 479854, Control_c, 0, 64, 127
3, 480015, Note_on_c, 0, 84, 0
3, 480059, Note_on_c, 0, 77, 0
3, 480104, Note_on_c, 0, 80, 0
3, 480124, Note_on_c, 0, 72, 0
3, 480678, Note_on_c, 0, 37, 50
3, 480913, Control_c, 0, 64, 127
3, 481014, Note_on_c, 0, 48, 42
3, 481230, Note_on_c, 0, 48, 0
3, 481260, Note_on_c, 0, 49, 36
3, 481474, Note_on_c, 0, 51, 35
3, 481488, Note_on_c, 0, 49, 0
3, 481555, Note_on_c, 0, 51, 0
3, 481664, Note_on_c, 0, 53, 62
3, 481895, Note_on_c, 0, 53, 0
3, 481911, Note_on_c, 0, 55, 57
3, 482069, Note_on_c, 0, 56, 51
3, 482153, Note_on_c, 0, 55, 0
3, 482269, Note_on_c, 0, 58, 64
3, 482319, Note_on_c, 0, 56, 0
3, 482389, Note_on_c, 0, 58, 0
3, 482470, Note_on_c, 0, 60, 67
3, 482627, Note_on_c, 0, 61, 74
3, 482645, Note_on_c, 0, 60, 0
3, 482809, Note_on_c, 0, 63, 64
3, 482841, Note_on_c, 0, 61, 0
3, 482913, Note_on_c, 0, 63, 0
3, 482988, Note_on_c, 0, 65, 74
3, 483170, Note_on_c, 0, 67, 71
3, 483212, Note_on_c, 0, 65, 0
3, 483293, Note_on_c, 0, 68, 45
3, 483413, Note_on_c, 0, 67, 0
3, 483452, Note_on_c, 0, 70, 60
3, 483504, Note_on_c, 0, 68, 0
3, 483567, Note_on_c, 0, 70, 0
3, 483633, Note_on_c, 0, 72, 62
3, 483811, Note_on_c, 0, 72, 0
3, 483815, Note_on_c, 0, 73, 62
3, 484002, Note_on_c, 0, 75, 60
3, 484006, Note_on_c, 0, 73, 0
3, 484117, Note_on_c, 0, 75, 0
3, 484178, Note_on_c, 0, 77, 62
3, 484369, Note_on_c, 0, 79, 48
3, 484397, Note_on_c, 0, 77, 0
3, 484472, Note_on_c, 0, 80, 59
3, 484605, Note_on_c, 0, 79, 0
3, 484693, Note_on_c, 0, 82, 50
3, 484714, Note_on_c, 0, 80, 0
3, 484758, Note_on_c, 0, 82, 0
3, 484837, Note_on_c, 0, 84, 58
3, 485004, Note_on_c, 0, 84, 0
3, 485052, Note_on_c, 0, 85, 59
3, 485276, Note_on_c, 0, 87, 53
3, 485361, Note_on_c, 0, 85, 0
3, 485427, Note_on_c, 0, 87, 0
3, 485544, Note_on_c, 0, 89, 51
3, 485825, Note_on_c, 0, 91, 57
3, 485897, Note_on_c, 0, 89, 0
3, 486101, Note_on_c, 0, 92, 45
3, 486105, Note_on_c, 0, 91, 0
3, 486365, Note_on_c, 0, 94, 52
3, 486381, Note_on_c, 0, 92, 0
3, 486712, Note_on_c, 0, 96, 45
3, 486762, Note_on_c, 0, 94, 0
3, 487077, Note_on_c, 0, 96, 0
3, 487270, Note_on_c, 0, 96, 48
3, 487673, Note_on_c, 0, 96, 0
3, 487920, Note_on_c, 0, 96, 34
3, 488262, Note_on_c, 0, 96, 0
3, 488541, Note_on_c, 0, 96, 38
3, 488554, Note_on_c, 0, 37, 0
3, 488964, Note_on_c, 0, 96, 0
3, 489238, Note_on_c, 0, 96, 25
3, 489494, Note_on_c, 0, 37, 0
3, 489522, Note_on_c, 0, 96, 0
3, 489522, End_track
4, 0, Start_track
4, 0, Title_t, "Bass"
4, 0, Control_c, 1, 0, 0
4, 0, Control_c, 1, 7, 101
4, 1, Program_c, 1, 32
4, 131254, Note_on_c, 1, 41, 60
4, 131444, Note_on_c, 1, 41, 0
4, 132512, Note_on_c, 1, 39, 62
4, 134036, Note_on_c, 1, 37, 50
4, 134045, Note_on_c, 1, 39, 0
4, 138406, Note_on_c, 1, 37, 0
4, 138827, Note_on_c, 1, 41, 68
4, 139009, Note_on_c, 1, 41, 0
4, 140257, Note_on_c, 1, 39, 50
4, 141740, Note_on_c, 1, 39, 0
4, 141760, Note_on_c, 1, 37, 49
4, 145696, Note_on_c, 1, 37, 0
4, 146569, Note_on_c, 1, 57, 79
4, 146586, Note_on_c, 1, 41, 66
4, 146719, Note_on_c, 1, 57, 0
4, 146798, Note_on_c, 1, 41, 0
4, 147917, Note_on_c, 1, 55, 44
4, 147939, Note_on_c, 1, 39, 49
4, 148222, Note_on_c, 1, 55, 0
4, 148292, Note_on_c, 1, 39, 0
4, 149497, Note_on_c, 1, 37, 51
4, 149519, Note_on_c, 1, 53, 25
4, 153987, Note_on_c, 1, 53, 0
4, 154328, Note_on_c, 1, 37, 0
4, 154360, Note_on_c, 1, 57, 81
4, 154371, Note_on_c, 1, 41, 67
4, 154516, Note_on_c, 1, 57, 0
4, 154587, Note_on_c, 1, 41, 0
4, 155631, Note_on_c, 1, 55, 58
4, 155672, Note_on_c, 1, 39, 44
4, 155788, Note_on_c, 1, 55, 0
4, 155880, Note_on_c, 1, 39, 0
4, 157108, Note_on_c, 1, 53, 30
4, 157134, Note_on_c, 1, 37, 47
4, 157207, Note_on_c, 1, 37, 98
4, 158167, Note_on_c, 1, 37, 0
4, 158483, Note_on_c, 1, 53, 0
4, 160022, Note_on_c, 1, 39, 66
4, 160288, Note_on_c, 1, 39, 0
4, 160374, Note_on_c, 1, 40, 60
4, 160727, Note_on_c, 1, 37, 0
4, 161111, Note_on_c, 1, 40, 0
4, 161280, Note_on_c, 1, 41, 72
4, 161280, Control_c, 1, 64, 127
4, 161280, Control_c, 1, 64, 0
4, 162046, Note_on_c, 1, 41, 0
4, 162301, Note_on_c, 1, 36, 33
4, 163080, Note_on_c, 1, 34, 23
4, 163221, Note_on_c, 1, 34, 0
4, 163233, Note_on_c, 1, 36, 0
4, 163283, Note_on_c, 1, 38, 32
4, 164108, Note_on_c, 1, 38, 0
4, 164170, Note_on_c, 1, 32, 41
4, 165130, Note_on_c, 1, 32, 0
4, 165136, Note_on_c, 1, 31, 45
4, 165908, Note_on_c, 1, 32, 27
4, 166082, Note_on_c, 1, 43, 50
4, 166126, Note_on_c, 1, 32, 0
4, 166165, Note_on_c, 1, 31, 0
4, 166884, Note_on_c, 1, 36, 22
4, 166969, Note_on_c, 1, 43, 0
4, 166995, Note_on_c, 1, 36, 0
4, 167046, Note_on_c, 1, 48, 49
4, 168034, Note_on_c, 1, 40, 47
4, 168038, Note_on_c, 1, 48, 0
4, 168979, Note_on_c, 1, 40, 0
4, 168993, Note_on_c, 1, 41, 47
4, 169995, Note_on_c, 1, 51, 69
4, 170046, Note_on_c, 1, 41, 0
4, 170895, Note_on_c, 1, 51, 0
4, 170935, Note_on_c, 1, 50, 52
4, 171864, Note_on_c, 1, 50, 0
4, 171887, Note_on_c, 1, 44, 33
4, 172828, Note_on_c, 1, 44, 0
4, 172863, Note_on_c, 1, 43, 40
4, 173784, Note_on_c, 1, 43, 0
4, 173802, Note_on_c, 1, 37, 40
4, 174711, Note_on_c, 1, 37, 0
4, 174762, Note_on_c, 1, 36, 51
4, 175514, Note_on_c, 1, 34, 40
4, 175697, Note_on_c, 1, 36, 0
4, 175718, Note_on_c, 1, 40, 62
4, 175824, Note_on_c, 1, 34, 0
4, 176635, Note_on_c, 1, 40, 0
4, 176703, Note_on_c, 1, 41, 56
4, 177655, Note_on_c, 1, 34, 48
4, 177744, Note_on_c, 1, 41, 0
4, 178577, Note_on_c, 1, 34, 0
4, 178619, Note_on_c, 1, 29, 40
4, 179371, Note_on_c, 1, 34, 23
4, 179480, Note_on_c, 1, 34, 0
4, 179494, Note_on_c, 1, 29, 0
4, 179603, Note_on_c, 1, 40, 42
4, 179611, Note_on_c, 1, 38, 46
4, 179837, Note_on_c, 1, 38, 0
4, 180534, Note_on_c, 1, 41, 59
4, 180661, Note_on_c, 1, 40, 0
4, 181464, Note_on_c, 1, 29, 41
4, 181585, Note_on_c, 1, 41, 0
4, 182452, Note_on_c, 1, 41, 68
4, 182563, Note_on_c, 1, 29, 0
4, 183432, Note_on_c, 1, 39, 68
4, 183442, Note_on_c, 1, 41, 0
4, 184323, Note_on_c, 1, 39, 0
4, 184369, Note_on_c, 1, 40, 51
4, 185257, Note_on_c, 1, 40, 0
4, 185275, Note_on_c, 1, 28, 38
4, 186240, Note_on_c, 1, 28, 0
4, 186249, Note_on_c, 1, 34, 57
4, 187202, Note_on_c, 1, 34, 0
4, 187236, Note_on_c, 1, 31, 42
4, 188184, Note_on_c, 1, 31, 0
4, 188222, Note_on_c, 1, 33, 53
4, 188771, Note_on_c, 1, 33, 0
4, 188874, Note_on_c, 1, 33, 67
4, 189071, Note_on_c, 1, 33, 0
4, 189138, Note_on_c, 1, 35, 62
4, 190029, Note_on_c, 1, 35, 0
4, 190075, Note_on_c, 1, 36, 51
4, 190733, Note_on_c, 1, 33, 48
4, 190761, Note_on_c, 1, 36, 0
4, 190940, Note_on_c, 1, 33, 0
4, 191025, Note_on_c, 1, 37, 63
4, 191942, Note_on_c, 1, 37, 0
4, 191989, Note_on_c, 1, 38, 62
4, 192745, Note_on_c, 1, 33, 30
4, 192880, Note_on_c, 1, 33, 0
4, 192884, Note_on_c, 1, 38, 0
4, 192934, Note_on_c, 1, 40, 56
4, 193828, Note_on_c, 1, 40, 0
4, 193898, Note_on_c, 1, 41, 60
4, 194551, Note_on_c, 1, 38, 38
4, 194725, Note_on_c, 1, 41, 0
4, 194828, Note_on_c, 1, 42, 58
4, 194830, Note_on_c, 1, 38, 0
4, 195773, Note_on_c, 1, 42, 0
4, 195808, Note_on_c, 1, 43, 51
4, 196560, Note_on_c, 1, 38, 44
4, 196663, Note_on_c, 1, 43, 0
4, 196671, Note_on_c, 1, 38, 0
4, 196790, Note_on_c, 1, 51, 27
4, 196812, Note_on_c, 1, 52, 55
4, 197433, Note_on_c, 1, 42, 23
4, 197499, Note_on_c, 1, 42, 0
4, 197620, Note_on_c, 1, 52, 0
4, 197671, Note_on_c, 1, 51, 0
4, 197703, Note_on_c, 1, 50, 55
4, 198501, Note_on_c, 1, 50, 0
4, 198505, Note_on_c, 1, 44, 18
4, 198600, Note_on_c, 1, 44, 0
4, 198638, Note_on_c, 1, 49, 57
4, 199622, Note_on_c, 1, 49, 0
4, 199651, Note_on_c, 1, 50, 59
4, 200639, Note_on_c, 1, 45, 61
4, 200649, Note_on_c, 1, 50, 0
4, 201627, Note_on_c, 1, 41, 42
4, 201631, Note_on_c, 1, 45, 0
4, 202514, Note_on_c, 1, 41, 0
4, 202542, Note_on_c, 1, 42, 40
4, 203518, Note_on_c, 1, 43, 38
4, 203538, Note_on_c, 1, 42, 0
4, 204288, Note_on_c, 1, 42, 29
4, 204465, Note_on_c, 1, 57, 68
4, 204552, Note_on_c, 1, 42, 0
4, 205205, Note_on_c, 1, 43, 0
4, 205431, Note_on_c, 1, 56, 63
4, 205467, Note_on_c, 1, 57, 0
4, 206125, Note_on_c, 1, 43, 36
4, 206278, Note_on_c, 1, 43, 0
4, 206332, Note_on_c, 1, 56, 0
4, 206339, Note_on_c, 1, 54, 58
4, 207238, Note_on_c, 1, 54, 0
4, 207341, Note_on_c, 1, 55, 52
4, 208306, Note_on_c, 1, 50, 51
4, 208347, Note_on_c, 1, 55, 0
4, 209234, Note_on_c, 1, 50, 0
4, 209347, Note_on_c, 1, 46, 41
4, 210194, Note_on_c, 1, 46, 0
4, 210222, Note_on_c, 1, 43, 43
4, 211196, Note_on_c, 1, 43, 0
4, 211258, Note_on_c, 1, 45, 79
4, 211305, Note_on_c, 1, 43, 14
4, 211373, Note_on_c, 1, 43, 0
4, 212065, Note_on_c, 1, 45, 0
4, 212188, Note_on_c, 1, 45, 69
4, 213101, Note_on_c, 1, 46, 67
4, 213119, Note_on_c, 1, 45, 0
4, 213809, Note_on_c, 1, 45, 38
4, 213906, Note_on_c, 1, 45, 0
4, 214035, Note_on_c, 1, 46, 0
4, 214059, Note_on_c, 1, 47, 55
4, 214926, Note_on_c, 1, 47, 0
4, 215035, Note_on_c, 1, 48, 64
4, 216013, Note_on_c, 1, 36, 72
4, 216152, Note_on_c, 1, 48, 0
4, 217666, Note_on_c, 1, 43, 26
4, 217791, Note_on_c, 1, 43, 0
4, 217872, Note_on_c, 1, 48, 90
4, 219791, Note_on_c, 1, 48, 0
4, 219850, Note_on_c, 1, 49, 73
4, 220612, Note_on_c, 1, 36, 0
4, 221442, Note_on_c, 1, 48, 71
4, 221551, Note_on_c, 1, 49, 0
4, 221588, Note_on_c, 1, 48, 0
4, 221759, Note_on_c, 1, 40, 47
4, 222664, Note_on_c, 1, 40, 0
4, 222719, Note_on_c, 1, 41, 43
4, 223513, Note_on_c, 1, 37, 35
4, 223525, Note_on_c, 1, 41, 0
4, 223592, Note_on_c, 1, 37, 0
4, 223695, Note_on_c, 1, 39, 53
4, 224509, Note_on_c, 1, 37, 23
4, 224592, Note_on_c, 1, 39, 0
4, 224596, Note_on_c, 1, 37, 0
4, 224670, Note_on_c, 1, 38, 42
4, 225580, Note_on_c, 1, 44, 68
4, 225650, Note_on_c, 1, 38, 0
4, 226531, Note_on_c, 1, 44, 0
4, 226566, Note_on_c, 1, 43, 41
4, 227515, Note_on_c, 1, 43, 0
4, 227531, Note_on_c, 1, 31, 42
4, 228435, Note_on_c, 1, 31, 0
4, 228493, Note_on_c, 1, 36, 43
4, 229376, Note_on_c, 1, 36, 0
4, 229447, Note_on_c, 1, 30, 50
4, 230322, Note_on_c, 1, 30, 0
4, 230358, Note_on_c, 1, 29, 42
4, 231324, Note_on_c, 1, 29, 0
4, 231358, Note_on_c, 1, 39, 69
4, 232268, Note_on_c, 1, 39, 0
4, 232318, Note_on_c, 1, 38, 60
4, 233844, Note_on_c, 1, 34, 53
4, 233919, Note_on_c, 1, 38, 0
4, 234098, Note_on_c, 1, 34, 0
4, 234205, Note_on_c, 1, 35, 58
4, 235175, Note_on_c, 1, 47, 74
4, 235248, Note_on_c, 1, 35, 0
4, 235873, Note_on_c, 1, 35, 31
4, 236006, Note_on_c, 1, 35, 0
4, 236175, Note_on_c, 1, 40, 53
4, 236224, Note_on_c, 1, 47, 0
4, 236798, Note_on_c, 1, 35, 26
4, 236903, Note_on_c, 1, 40, 0
4, 237026, Note_on_c, 1, 35, 0
4, 237087, Note_on_c, 1, 28, 51
4, 237935, Note_on_c, 1, 28, 0
4, 238040, Note_on_c, 1, 33, 62
4, 238814, Note_on_c, 1, 33, 0
4, 238992, Note_on_c, 1, 33, 73
4, 239980, Note_on_c, 1, 33, 0
4, 239992, Note_on_c, 1, 35, 65
4, 240837, Note_on_c, 1, 35, 0
4, 240942, Note_on_c, 1, 35, 78
4, 241885, Note_on_c, 1, 37, 53
4, 241994, Note_on_c, 1, 35, 0
4, 242708, Note_on_c, 1, 37, 0
4, 242833, Note_on_c, 1, 37, 68
4, 243722, Note_on_c, 1, 37, 0
4, 243803, Note_on_c, 1, 38, 66
4, 244593, Note_on_c, 1, 38, 0
4, 244710, Note_on_c, 1, 38, 74
4, 245482, Note_on_c, 1, 35, 20
4, 245494, Note_on_c, 1, 38, 0
4, 245642, Note_on_c, 1, 35, 0
4, 245670, Note_on_c, 1, 40, 64
4, 246494, Note_on_c, 1, 40, 0
4, 246654, Note_on_c, 1, 40, 62
4, 247553, Note_on_c, 1, 40, 0
4, 247632, Note_on_c, 1, 42, 60
4, 248448, Note_on_c, 1, 42, 0
4, 248593, Note_on_c, 1, 42, 55
4, 249509, Note_on_c, 1, 42, 0
4, 249569, Note_on_c, 1, 43, 59
4, 250402, Note_on_c, 1, 42, 23
4, 250444, Note_on_c, 1, 43, 0
4, 250557, Note_on_c, 1, 43, 72
4, 250614, Note_on_c, 1, 42, 0
4, 251212, Note_on_c, 1, 50, 81
4, 251333, Note_on_c, 1, 43, 0
4, 251464, Note_on_c, 1, 50, 0
4, 251569, Note_on_c, 1, 48, 48
4, 252436, Note_on_c, 1, 40, 58
4, 253148, Note_on_c, 1, 48, 0
4, 253374, Note_on_c, 1, 40, 0
4, 253412, Note_on_c, 1, 41, 63
4, 254299, Note_on_c, 1, 41, 0
4, 254346, Note_on_c, 1, 39, 58
4, 255332, Note_on_c, 1, 38, 56
4, 255338, Note_on_c, 1, 39, 0
4, 256094, Note_on_c, 1, 37, 42
4, 256233, Note_on_c, 1, 38, 0
4, 256312, Note_on_c, 1, 48, 93
4, 256416, Note_on_c, 1, 37, 0
4, 257189, Note_on_c, 1, 48, 0
4, 257239, Note_on_c, 1, 46, 49
4, 258122, Note_on_c, 1, 46, 0
4, 258173, Note_on_c, 1, 38, 56
4, 259150, Note_on_c, 1, 38, 0
4, 259205, Note_on_c, 1, 36, 42
4, 259892, Note_on_c, 1, 38, 40
4, 260062, Note_on_c, 1, 38, 0
4, 260136, Note_on_c, 1, 36, 0
4, 260155, Note_on_c, 1, 48, 75
4, 260985, Note_on_c, 1, 48, 0
4, 261106, Note_on_c, 1, 41, 61
4, 261953, Note_on_c, 1, 41, 0
4, 262026, Note_on_c, 1, 37, 66
4, 262231, Note_on_c, 1, 38, 27
4, 262810, Note_on_c, 1, 38, 0
4, 262951, Note_on_c, 1, 37, 0
4, 263009, Note_on_c, 1, 38, 59
4, 263965, Note_on_c, 1, 38, 0
4, 264020, Note_on_c, 1, 32, 60
4, 264919, Note_on_c, 1, 32, 0
4, 264949, Note_on_c, 1, 31, 48
4, 265856, Note_on_c, 1, 31, 0
4, 265941, Note_on_c, 1, 37, 61
4, 266842, Note_on_c, 1, 37, 0
4, 266907, Note_on_c, 1, 36, 49
4, 267792, Note_on_c, 1, 36, 0
4, 267857, Note_on_c, 1, 35, 60
4, 268708, Note_on_c, 1, 34, 19
4, 268780, Note_on_c, 1, 34, 0
4, 268820, Note_on_c, 1, 36, 54
4, 268843, Note_on_c, 1, 35, 0
4, 269696, Note_on_c, 1, 43, 47
4, 269706, Note_on_c, 1, 36, 0
4, 270482, Note_on_c, 1, 36, 34
4, 270627, Note_on_c, 1, 43, 0
4, 270629, Note_on_c, 1, 36, 0
4, 270708, Note_on_c, 1, 53, 57
4, 271385, Note_on_c, 1, 36, 35
4, 271494, Note_on_c, 1, 36, 0
4, 271591, Note_on_c, 1, 53, 0
4, 271619, Note_on_c, 1, 46, 51
4, 272555, Note_on_c, 1, 46, 0
4, 272607, Note_on_c, 1, 41, 47
4, 273357, Note_on_c, 1, 39, 31
4, 273474, Note_on_c, 1, 41, 0
4, 273593, Note_on_c, 1, 39, 0
4, 273599, Note_on_c, 1, 50, 56
4, 274535, Note_on_c, 1, 39, 65
4, 274573, Note_on_c, 1, 50, 0
4, 275371, Note_on_c, 1, 39, 0
4, 275514, Note_on_c, 1, 39, 60
4, 276472, Note_on_c, 1, 45, 69
4, 276488, Note_on_c, 1, 39, 0
4, 277390, Note_on_c, 1, 45, 0
4, 277448, Note_on_c, 1, 39, 57
4, 278224, Note_on_c, 1, 37, 19
4, 278333, Note_on_c, 1, 37, 0
4, 278367, Note_on_c, 1, 39, 0
4, 278414, Note_on_c, 1, 38, 54
4, 279321, Note_on_c, 1, 38, 0
4, 279368, Note_on_c, 1, 36, 50
4, 280188, Note_on_c, 1, 36, 0
4, 280319, Note_on_c, 1, 35, 55
4, 281152, Note_on_c, 1, 35, 0
4, 281277, Note_on_c, 1, 35, 67
4, 282122, Note_on_c, 1, 35, 0
4, 282287, Note_on_c, 1, 34, 76
4, 283088, Note_on_c, 1, 34, 0
4, 283239, Note_on_c, 1, 34, 72
4, 284088, Note_on_c, 1, 34, 0
4, 284194, Note_on_c, 1, 33, 56
4, 285092, Note_on_c, 1, 45, 78
4, 285136, Note_on_c, 1, 33, 0
4, 286023, Note_on_c, 1, 45, 0
4, 286072, Note_on_c, 1, 38, 55
4, 286672, Note_on_c, 1, 37, 44
4, 286926, Note_on_c, 1, 37, 0
4, 287015, Note_on_c, 1, 50, 85
4, 287110, Note_on_c, 1, 38, 0
4, 287709, Note_on_c, 1, 38, 28
4, 287828, Note_on_c, 1, 38, 0
4, 287866, Note_on_c, 1, 50, 0
4, 287967, Note_on_c, 1, 43, 49
4, 288826, Note_on_c, 1, 43, 0
4, 288916, Note_on_c, 1, 37, 54
4, 289908, Note_on_c, 1, 36, 54
4, 289937, Note_on_c, 1, 37, 0
4, 290804, Note_on_c, 1, 36, 0
4, 292418, Note_on_c, 1, 41, 72
4, 292610, Note_on_c, 1, 41, 0
4, 293838, Note_on_c, 1, 39, 66
4, 294041, Note_on_c, 1, 39, 0
4, 295332, Note_on_c, 1, 37, 59
4, 299643, Note_on_c, 1, 37, 0
4, 300150, Note_on_c, 1, 41, 76
4, 300348, Note_on_c, 1, 41, 0
4, 301544, Note_on_c, 1, 39, 67
4, 301735, Note_on_c, 1, 39, 0
4, 303036, Note_on_c, 1, 37, 68
4, 307835, Note_on_c, 1, 37, 0
4, 308006, Note_on_c, 1, 41, 72
4, 308244, Note_on_c, 1, 41, 0
4, 309211, Note_on_c, 1, 39, 61
4, 309435, Note_on_c, 1, 39, 0
4, 310732, Note_on_c, 1, 37, 67
4, 315470, Note_on_c, 1, 37, 0
4, 315533, Note_on_c, 1, 41, 72
4, 315728, Note_on_c, 1, 41, 0
4, 316938, Note_on_c, 1, 39, 44
4, 317121, Note_on_c, 1, 39, 0
4, 318396, Note_on_c, 1, 37, 54
4, 321307, Note_on_c, 1, 39, 61
4, 321374, Note_on_c, 1, 37, 0
4, 321529, Note_on_c, 1, 39, 0
4, 321652, Note_on_c, 1, 40, 54
4, 321932, Note_on_c, 1, 40, 0
4, 323188, Note_on_c, 1, 41, 74
4, 323434, Note_on_c, 1, 41, 0
4, 323557, Note_on_c, 1, 38, 66
4, 325269, Note_on_c, 1, 38, 0
4, 325440, Note_on_c, 1, 32, 10
4, 326291, Note_on_c, 1, 32, 0
4, 326371, Note_on_c, 1, 31, 43
4, 327410, Note_on_c, 1, 43, 43
4, 328180, Note_on_c, 1, 36, 22
4, 328347, Note_on_c, 1, 50, 51
4, 328377, Note_on_c, 1, 36, 0
4, 328382, Note_on_c, 1, 43, 0
4, 328422, Note_on_c, 1, 31, 0
4, 329327, Note_on_c, 1, 48, 42
4, 329329, Note_on_c, 1, 50, 0
4, 330093, Note_on_c, 1, 41, 43
4, 330198, Note_on_c, 1, 41, 0
4, 330345, Note_on_c, 1, 45, 48
4, 330364, Note_on_c, 1, 48, 0
4, 331289, Note_on_c, 1, 40, 45
4, 331418, Note_on_c, 1, 45, 0
4, 332235, Note_on_c, 1, 41, 46
4, 332237, Note_on_c, 1, 40, 0
4, 333200, Note_on_c, 1, 32, 46
4, 333229, Note_on_c, 1, 41, 0
4, 334070, Note_on_c, 1, 31, 45
4, 334104, Note_on_c, 1, 32, 0
4, 335039, Note_on_c, 1, 31, 0
4, 335043, Note_on_c, 1, 37, 44
4, 335892, Note_on_c, 1, 34, 36
4, 335932, Note_on_c, 1, 37, 0
4, 336055, Note_on_c, 1, 36, 32
4, 336160, Note_on_c, 1, 34, 0
4, 336838, Note_on_c, 1, 34, 33
4, 336985, Note_on_c, 1, 41, 56
4, 337080, Note_on_c, 1, 34, 0
4, 337098, Note_on_c, 1, 36, 0
4, 337735, Note_on_c, 1, 36, 32
4, 337806, Note_on_c, 1, 41, 0
4, 337892, Note_on_c, 1, 36, 0
4, 338031, Note_on_c, 1, 53, 47
4, 338088, Note_on_c, 1, 55, 25
4, 338152, Note_on_c, 1, 55, 0
4, 338723, Note_on_c, 1, 41, 22
4, 338824, Note_on_c, 1, 53, 0
4, 338874, Note_on_c, 1, 41, 0
4, 338959, Note_on_c, 1, 53, 62
4, 339792, Note_on_c, 1, 53, 0
4, 339850, Note_on_c, 1, 41, 45
4, 340687, Note_on_c, 1, 41, 0
4, 340830, Note_on_c, 1, 40, 47
4, 341723, Note_on_c, 1, 40, 0
4, 341774, Note_on_c, 1, 41, 43
4, 342733, Note_on_c, 1, 36, 62
4, 342800, Note_on_c, 1, 41, 0
4, 343675, Note_on_c, 1, 33, 58
4, 343679, Note_on_c, 1, 36, 0
4, 344377, Note_on_c, 1, 36, 53
4, 344594, Note_on_c, 1, 36, 0
4, 344621, Note_on_c, 1, 39, 69
4, 344725, Note_on_c, 1, 33, 0
4, 345592, Note_on_c, 1, 39, 0
4, 345600, Note_on_c, 1, 40, 58
4, 346534, Note_on_c, 1, 40, 0
4, 346548, Note_on_c, 1, 46, 69
4, 347510, Note_on_c, 1, 34, 50
4, 347534, Note_on_c, 1, 46, 0
4, 348490, Note_on_c, 1, 32, 62
4, 348496, Note_on_c, 1, 34, 0
4, 349437, Note_on_c, 1, 32, 0
4, 349494, Note_on_c, 1, 33, 56
4, 350415, Note_on_c, 1, 48, 88
4, 351361, Note_on_c, 1, 48, 0
4, 351407, Note_on_c, 1, 49, 61
4, 352288, Note_on_c, 1, 33, 0
4, 352321, Note_on_c, 1, 37, 50
4, 352357, Note_on_c, 1, 49, 0
4, 353131, Note_on_c, 1, 34, 23
4, 353327, Note_on_c, 1, 38, 39
4, 353335, Note_on_c, 1, 37, 0
4, 353351, Note_on_c, 1, 34, 0
4, 354250, Note_on_c, 1, 52, 60
4, 354440, Note_on_c, 1, 38, 0
4, 354962, Note_on_c, 1, 38, 26
4, 355178, Note_on_c, 1, 38, 0
4, 355184, Note_on_c, 1, 52, 0
4, 355252, Note_on_c, 1, 50, 37
4, 356218, Note_on_c, 1, 44, 45
4, 356242, Note_on_c, 1, 50, 0
4, 357120, Note_on_c, 1, 43, 20
4, 357160, Note_on_c, 1, 44, 0
4, 358190, Note_on_c, 1, 31, 33
4, 358571, Note_on_c, 1, 43, 0
4, 359130, Note_on_c, 1, 43, 39
4, 359956, Note_on_c, 1, 43, 0
4, 360116, Note_on_c, 1, 43, 61
4, 360265, Note_on_c, 1, 31, 0
4, 361051, Note_on_c, 1, 31, 51
4, 361170, Note_on_c, 1, 43, 0
4, 361720, Note_on_c, 1, 43, 47
4, 361934, Note_on_c, 1, 43, 0
4, 362003, Note_on_c, 1, 31, 0
4, 362021, Note_on_c, 1, 50, 80
4, 362805, Note_on_c, 1, 50, 0
4, 362815, Note_on_c, 1, 38, 28
4, 362954, Note_on_c, 1, 50, 66
4, 362974, Note_on_c, 1, 38, 0
4, 363846, Note_on_c, 1, 50, 0
4, 363878, Note_on_c, 1, 42, 46
4, 364807, Note_on_c, 1, 42, 0
4, 364825, Note_on_c, 1, 43, 38
4, 365813, Note_on_c, 1, 31, 44
4, 365951, Note_on_c, 1, 43, 0
4, 366753, Note_on_c, 1, 31, 0
4, 366781, Note_on_c, 1, 38, 56
4, 367701, Note_on_c, 1, 42, 57
4, 367806, Note_on_c, 1, 38, 0
4, 368300, Note_on_c, 1, 38, 34
4, 368418, Note_on_c, 1, 38, 0
4, 368642, Note_on_c, 1, 42, 0
4, 368665, Note_on_c, 1, 43, 47
4, 369544, Note_on_c, 1, 43, 0
4, 369598, Note_on_c, 1, 31, 51
4, 370515, Note_on_c, 1, 31, 0
4, 370622, Note_on_c, 1, 33, 62
4, 371332, Note_on_c, 1, 36, 26
4, 371528, Note_on_c, 1, 36, 0
4, 371542, Note_on_c, 1, 45, 88
4, 371707, Note_on_c, 1, 33, 0
4, 372443, Note_on_c, 1, 45, 0
4, 372520, Note_on_c, 1, 46, 69
4, 373447, Note_on_c, 1, 46, 0
4, 373491, Note_on_c, 1, 34, 58
4, 374417, Note_on_c, 1, 34, 0
4, 374473, Note_on_c, 1, 35, 66
4, 375326, Note_on_c, 1, 35, 0
4, 375419, Note_on_c, 1, 35, 69
4, 376286, Note_on_c, 1, 35, 0
4, 376363, Note_on_c, 1, 36, 61
4, 377177, Note_on_c, 1, 36, 0
4, 377320, Note_on_c, 1, 36, 60
4, 378306, Note_on_c, 1, 38, 77
4, 378413, Note_on_c, 1, 36, 0
4, 379127, Note_on_c, 1, 38, 0
4, 379236, Note_on_c, 1, 38, 81
4, 380151, Note_on_c, 1, 38, 0
4, 380244, Note_on_c, 1, 39, 83
4, 381060, Note_on_c, 1, 39, 0
4, 381187, Note_on_c, 1, 39, 72
4, 382059, Note_on_c, 1, 39, 0
4, 382139, Note_on_c, 1, 40, 72
4, 383049, Note_on_c, 1, 36, 53
4, 383067, Note_on_c, 1, 40, 0
4, 384012, Note_on_c, 1, 41, 59
4, 384020, Note_on_c, 1, 36, 0
4, 384762, Note_on_c, 1, 38, 55
4, 384918, Note_on_c, 1, 41, 0
4, 384976, Note_on_c, 1, 55, 70
4, 385000, Note_on_c, 1, 38, 0
4, 385601, Note_on_c, 1, 40, 31
4, 385714, Note_on_c, 1, 40, 0
4, 385849, Note_on_c, 1, 55, 0
4, 385912, Note_on_c, 1, 50, 51
4, 386849, Note_on_c, 1, 50, 0
4, 386898, Note_on_c, 1, 42, 43
4, 387799, Note_on_c, 1, 42, 0
4, 387825, Note_on_c, 1, 43, 38
4, 388807, Note_on_c, 1, 43, 0
4, 388811, Note_on_c, 1, 37, 53
4, 389747, Note_on_c, 1, 36, 47
4, 389749, Note_on_c, 1, 37, 0
4, 390706, Note_on_c, 1, 34, 50
4, 390710, Note_on_c, 1, 36, 0
4, 391676, Note_on_c, 1, 34, 0
4, 391714, Note_on_c, 1, 33, 53
4, 392680, Note_on_c, 1, 39, 66
4, 392761, Note_on_c, 1, 33, 0
4, 393674, Note_on_c, 1, 38, 43
4, 393684, Note_on_c, 1, 39, 0
4, 394610, Note_on_c, 1, 32, 60
4, 395499, Note_on_c, 1, 38, 0
4, 395521, Note_on_c, 1, 32, 0
4, 395547, Note_on_c, 1, 35, 65
4, 396277, Note_on_c, 1, 32, 47
4, 396443, Note_on_c, 1, 35, 0
4, 396515, Note_on_c, 1, 47, 77
4, 396535, Note_on_c, 1, 32, 0
4, 397445, Note_on_c, 1, 47, 0
4, 397469, Note_on_c, 1, 40, 60
4, 398356, Note_on_c, 1, 40, 0
4, 398388, Note_on_c, 1, 34, 56
4, 399171, Note_on_c, 1, 34, 0
4, 399354, Note_on_c, 1, 33, 55
4, 399999, Note_on_c, 1, 33, 0
4, 400052, Note_on_c, 1, 40, 60
4, 401280, Note_on_c, 1, 40, 0
4, 401390, Note_on_c, 1, 40, 67
4, 402973, Note_on_c, 1, 39, 60
4, 403024, Note_on_c, 1, 40, 0
4, 403223, Note_on_c, 1, 39, 0
4, 403320, Note_on_c, 1, 40, 66
4, 404022, Note_on_c, 1, 40, 0
4, 404197, Note_on_c, 1, 40, 62
4, 405695, Note_on_c, 1, 39, 58
4, 405731, Note_on_c, 1, 40, 0
4, 405963, Note_on_c, 1, 39, 0
4, 406060, Note_on_c, 1, 40, 72
4, 407379, Note_on_c, 1, 40, 0
4, 407705, Note_on_c, 1, 40, 79
4, 408943, Note_on_c, 1, 40, 0
4, 409020, Note_on_c, 1, 42, 63
4, 410677, Note_on_c, 1, 39, 30
4, 410911, Note_on_c, 1, 42, 0
4, 410937, Note_on_c, 1, 43, 60
4, 410945, Note_on_c, 1, 39, 0
4, 412516, Note_on_c, 1, 43, 0
4, 412528, Note_on_c, 1, 50, 72
4, 412601, Note_on_c, 1, 51, 26
4, 412693, Note_on_c, 1, 51, 0
4, 412772, Note_on_c, 1, 50, 0
4, 412877, Note_on_c, 1, 48, 59
4, 413415, Note_on_c, 1, 48, 0
4, 413460, Note_on_c, 1, 39, 55
4, 413677, Note_on_c, 1, 39, 0
4, 413794, Note_on_c, 1, 40, 38
4, 414458, Note_on_c, 1, 39, 28
4, 414639, Note_on_c, 1, 40, 0
4, 414659, Note_on_c, 1, 39, 0
4, 414708, Note_on_c, 1, 41, 56
4, 415484, Note_on_c, 1, 37, 18
4, 415514, Note_on_c, 1, 41, 0
4, 415587, Note_on_c, 1, 37, 0
4, 415625, Note_on_c, 1, 39, 62
4, 416534, Note_on_c, 1, 39, 0
4, 416575, Note_on_c, 1, 38, 49
4, 417504, Note_on_c, 1, 38, 0
4, 417557, Note_on_c, 1, 32, 60
4, 418492, Note_on_c, 1, 32, 0
4, 418515, Note_on_c, 1, 31, 44
4, 419458, Note_on_c, 1, 31, 0
4, 419488, Note_on_c, 1, 37, 54
4, 420335, Note_on_c, 1, 34, 21
4, 420432, Note_on_c, 1, 34, 0
4, 420462, Note_on_c, 1, 36, 45
4, 420515, Note_on_c, 1, 37, 0
4, 421240, Note_on_c, 1, 34, 27
4, 421386, Note_on_c, 1, 50, 85
4, 421430, Note_on_c, 1, 36, 0
4, 421545, Note_on_c, 1, 34, 0
4, 422297, Note_on_c, 1, 50, 0
4, 422382, Note_on_c, 1, 48, 58
4, 423362, Note_on_c, 1, 46, 55
4, 423380, Note_on_c, 1, 48, 0
4, 424305, Note_on_c, 1, 46, 0
4, 424323, Note_on_c, 1, 45, 57
4, 425267, Note_on_c, 1, 45, 0
4, 425295, Note_on_c, 1, 42, 65
4, 426263, Note_on_c, 1, 42, 0
4, 426287, Note_on_c, 1, 43, 60
4, 427201, Note_on_c, 1, 43, 0
4, 427227, Note_on_c, 1, 37, 62
4, 428178, Note_on_c, 1, 37, 0
4, 428197, Note_on_c, 1, 36, 52
4, 429160, Note_on_c, 1, 35, 64
4, 429164, Note_on_c, 1, 36, 0
4, 430102, Note_on_c, 1, 35, 0
4, 430108, Note_on_c, 1, 36, 53
4, 430957, Note_on_c, 1, 34, 24
4, 431076, Note_on_c, 1, 36, 0
4, 431078, Note_on_c, 1, 42, 63
4, 431185, Note_on_c, 1, 34, 0
4, 432036, Note_on_c, 1, 41, 61
4, 432052, Note_on_c, 1, 42, 0
4, 432969, Note_on_c, 1, 29, 53
4, 432975, Note_on_c, 1, 41, 0
4, 433913, Note_on_c, 1, 29, 0
4, 433919, Note_on_c, 1, 34, 54
4, 434905, Note_on_c, 1, 41, 63
4, 434945, Note_on_c, 1, 34, 0
4, 435858, Note_on_c, 1, 39, 58
4, 435889, Note_on_c, 1, 41, 0
4, 437441, Note_on_c, 1, 46, 66
4, 437750, Note_on_c, 1, 39, 0
4, 437758, Note_on_c, 1, 46, 0
4, 437824, Note_on_c, 1, 45, 58
4, 438738, Note_on_c, 1, 45, 0
4, 438780, Note_on_c, 1, 40, 48
4, 439631, Note_on_c, 1, 40, 0
4, 439705, Note_on_c, 1, 38, 47
4, 440675, Note_on_c, 1, 36, 55
4, 440766, Note_on_c, 1, 38, 0
4, 441645, Note_on_c, 1, 36, 0
4, 441655, Note_on_c, 1, 35, 65
4, 442637, Note_on_c, 1, 47, 101
4, 442764, Note_on_c, 1, 35, 0
4, 443391, Note_on_c, 1, 35, 15
4, 443546, Note_on_c, 1, 35, 0
4, 443587, Note_on_c, 1, 47, 0
4, 443633, Note_on_c, 1, 46, 67
4, 444526, Note_on_c, 1, 46, 0
4, 444563, Note_on_c, 1, 34, 54
4, 445440, Note_on_c, 1, 34, 0
4, 445534, Note_on_c, 1, 33, 62
4, 446383, Note_on_c, 1, 33, 0
4, 446498, Note_on_c, 1, 33, 73
4, 447383, Note_on_c, 1, 33, 0
4, 447420, Note_on_c, 1, 38, 72
4, 448315, Note_on_c, 1, 38, 0
4, 448402, Note_on_c, 1, 38, 72
4, 449295, Note_on_c, 1, 38, 0
4, 449321, Note_on_c, 1, 31, 56
4, 450129, Note_on_c, 1, 31, 0
4, 450287, Note_on_c, 1, 31, 43
4, 451208, Note_on_c, 1, 31, 0
4, 451240, Note_on_c, 1, 36, 69
4, 452091, Note_on_c, 1, 36, 0
4, 452210, Note_on_c, 1, 36, 72
4, 452708, Note_on_c, 1, 36, 0
4, 453829, Note_on_c, 1, 41, 87
4, 454095, Note_on_c, 1, 41, 0
4, 455174, Note_on_c, 1, 39, 83
4, 456634, Note_on_c, 1, 39, 0
4, 456678, Note_on_c, 1, 37, 75
4, 459592, Note_on_c, 1, 39, 63
4, 459652, Note_on_c, 1, 37, 0
4, 459846, Note_on_c, 1, 39, 0
4, 459975, Note_on_c, 1, 40, 58
4, 460299, Note_on_c, 1, 40, 0
4, 461457, Note_on_c, 1, 41, 83
4, 461729, Note_on_c, 1, 41, 0
4, 462798, Note_on_c, 1, 39, 74
4, 463548, Note_on_c, 1, 39, 0
4, 464326, Note_on_c, 1, 37, 75
4, 467175, Note_on_c, 1, 39, 51
4, 467383, Note_on_c, 1, 37, 0
4, 467415, Note_on_c, 1, 39, 0
4, 467538, Note_on_c, 1, 40, 48
4, 468004, Note_on_c, 1, 40, 0
4, 469074, Note_on_c, 1, 41, 62
4, 469082, Note_on_c, 1, 57, 70
4, 469407, Note_on_c, 1, 57, 0
4, 469486, Note_on_c, 1, 41, 0
4, 470518, Note_on_c, 1, 39, 46
4, 470544, Note_on_c, 1, 55, 25
4, 470959, Note_on_c, 1, 55, 0
4, 470996, Note_on_c, 1, 39, 0
4, 472012, Note_on_c, 1, 37, 38
4, 472044, Note_on_c, 1, 53, 22
4, 474867, Note_on_c, 1, 39, 35
4, 474938, Note_on_c, 1, 37, 0
4, 475139, Note_on_c, 1, 39, 0
4, 475268, Note_on_c, 1, 40, 39
4, 475758, Note_on_c, 1, 53, 0
4, 475883, Note_on_c, 1, 40, 0
4, 475917, Note_on_c, 1, 41, 47
4, 476016, Note_on_c, 1, 41, 0
4, 476784, Note_on_c, 1, 57, 71
4, 476837, Note_on_c, 1, 41, 68
4, 476934, Note_on_c, 1, 57, 0
4, 477016, Note_on_c, 1, 41, 0
4, 478145, Note_on_c, 1, 55, 31
4, 478151, Note_on_c, 1, 39, 44
4, 478389, Note_on_c, 1, 55, 0
4, 478404, Note_on_c, 1, 39, 0
4, 479696, Note_on_c, 1, 37, 33
4, 479712, Note_on_c, 1, 53, 20
4, 488531, Note_on_c, 1, 53, 0
4, 489180, Note_on_c, 1, 37, 0
4, 489180, End_track
5, 0, Start_track
5, 0, Title_t, "Drums"
5, 0, Control_c, 9, 0, 0
5, 0, Control_c, 9, 7, 92
5, 1, Program_c, 9, 0
5, 131223, Note_on_c, 9, 36, 21
5, 131387, Note_on_c, 9, 36, 0
5, 132585, Note_on_c, 9, 36, 8
5, 132587, Note_on_c, 9, 59, 30
5, 132765, Note_on_c, 9, 59, 0
5, 132788, Note_on_c, 9, 36, 0
5, 134105, Note_on_c, 9, 36, 14
5, 134113, Note_on_c, 9, 59, 37
5, 136474, Note_on_c, 9, 59, 0
5, 137597, Note_on_c, 9, 36, 0
5, 138834, Note_on_c, 9, 36, 5
5, 138991, Note_on_c, 9, 36, 0
5, 140284, Note_on_c, 9, 36, 18
5, 140305, Note_on_c, 9, 59, 42
5, 140717, Note_on_c, 9, 36, 0
5, 140721, Note_on_c, 9, 59, 0
5, 141761, Note_on_c, 9, 36, 18
5, 141770, Note_on_c, 9, 59, 53
5, 142023, Note_on_c, 9, 59, 0
5, 142087, Note_on_c, 9, 36, 0
5, 144604, Note_on_c, 9, 36, 4
5, 144765, Note_on_c, 9, 36, 0
5, 144960, Note_on_c, 9, 36, 5
5, 145144, Note_on_c, 9, 36, 0
5, 145588, Note_on_c, 9, 36, 17
5, 145770, Note_on_c, 9, 36, 0
5, 146643, Note_on_c, 9, 59, 59
5, 146654, Note_on_c, 9, 36, 23
5, 146727, Note_on_c, 9, 59, 0
5, 146823, Note_on_c, 9, 36, 0
5, 147661, Note_on_c, 9, 36, 1
5, 147734, Note_on_c, 9, 36, 0
5, 148009, Note_on_c, 9, 36, 17
5, 148015, Note_on_c, 9, 59, 60
5, 148253, Note_on_c, 9, 59, 0
5, 148298, Note_on_c, 9, 36, 0
5, 149527, Note_on_c, 9, 59, 54
5, 149550, Note_on_c, 9, 36, 14
5, 149720, Note_on_c, 9, 59, 0
5, 149958, Note_on_c, 9, 36, 0
5, 153339, Note_on_c, 9, 36, 19
5, 153510, Note_on_c, 9, 36, 0
5, 153727, Note_on_c, 9, 36, 1
5, 153810, Note_on_c, 9, 36, 0
5, 154336, Note_on_c, 9, 59, 64
5, 154364, Note_on_c, 9, 36, 20
5, 154494, Note_on_c, 9, 59, 0
5, 154529, Note_on_c, 9, 36, 0
5, 155665, Note_on_c, 9, 59, 58
5, 155669, Note_on_c, 9, 36, 15
5, 155864, Note_on_c, 9, 36, 0
5, 155888, Note_on_c, 9, 59, 0
5, 157241, Note_on_c, 9, 36, 17
5, 157247, Note_on_c, 9, 59, 65
5, 157404, Note_on_c, 9, 59, 0
5, 157423, Note_on_c, 9, 36, 0
5, 160049, Note_on_c, 9, 36, 20
5, 160288, Note_on_c, 9, 36, 0
5, 161118, Note_on_c, 9, 57, 1
5, 162782, Note_on_c, 9, 57, 0
5, 162916, Note_on_c, 9, 59, 35
5, 163810, Note_on_c, 9, 59, 0
5, 164865, Note_on_c, 9, 59, 49
5, 165047, Note_on_c, 9, 59, 0
5, 165191, Note_on_c, 9, 59, 34
5, 165817, Note_on_c, 9, 59, 0
5, 166102, Note_on_c, 9, 59, 65
5, 166865, Note_on_c, 9, 59, 0
5, 167103, Note_on_c, 9, 59, 18
5, 167525, Note_on_c, 9, 59, 0
5, 167725, Note_on_c, 9, 59, 34
5, 167911, Note_on_c, 9, 59, 0
5, 167935, Note_on_c, 9, 38, 5
5, 168001, Note_on_c, 9, 59, 36
5, 168644, Note_on_c, 9, 38, 0
5, 168803, Note_on_c, 9, 59, 0
5, 168964, Note_on_c, 9, 59, 57
5, 168981, Note_on_c, 9, 38, 6
5, 169592, Note_on_c, 9, 38, 0
5, 169669, Note_on_c, 9, 36, 9
5, 169747, Note_on_c, 9, 59, 0
5, 169950, Note_on_c, 9, 59, 52
5, 170310, Note_on_c, 9, 36, 0
5, 170576, Note_on_c, 9, 59, 0
5, 170697, Note_on_c, 9, 59, 26
5, 170840, Note_on_c, 9, 59, 0
5, 170969, Note_on_c, 9, 59, 58
5, 171031, Note_on_c, 9, 36, 6
5, 171486, Note_on_c, 9, 36, 0
5, 171728, Note_on_c, 9, 59, 0
5, 171927, Note_on_c, 9, 59, 64
5, 172551, Note_on_c, 9, 59, 0
5, 172637, Note_on_c, 9, 59, 37
5, 172783, Note_on_c, 9, 59, 0
5, 172905, Note_on_c, 9, 59, 70
5, 173623, Note_on_c, 9, 59, 0
5, 173827, Note_on_c, 9, 59, 67
5, 174341, Note_on_c, 9, 59, 0
5, 174543, Note_on_c, 9, 59, 64
5, 174710, Note_on_c, 9, 59, 0
5, 174789, Note_on_c, 9, 59, 58
5, 175615, Note_on_c, 9, 59, 0
5, 175761, Note_on_c, 9, 59, 62
5, 176301, Note_on_c, 9, 59, 0
5, 176464, Note_on_c, 9, 59, 52
5, 176593, Note_on_c, 9, 38, 14
5, 176618, Note_on_c, 9, 59, 0
5, 176728, Note_on_c, 9, 38, 0
5, 176734, Note_on_c, 9, 59, 70
5, 176938, Note_on_c, 9, 38, 3
5, 177092, Note_on_c, 9, 38, 0
5, 177568, Note_on_c, 9, 59, 0
5, 177697, Note_on_c, 9, 59, 59
5, 178261, Note_on_c, 9, 59, 0
5, 178278, Note_on_c, 9, 36, 18
5, 178400, Note_on_c, 9, 36, 0
5, 178417, Note_on_c, 9, 59, 47
5, 178550, Note_on_c, 9, 59, 0
5, 178649, Note_on_c, 9, 36, 9
5, 178659, Note_on_c, 9, 59, 56
5, 179048, Note_on_c, 9, 36, 0
5, 179453, Note_on_c, 9, 59, 0
5, 179607, Note_on_c, 9, 59, 61
5, 180134, Note_on_c, 9, 59, 0
5, 180347, Note_on_c, 9, 59, 45
5, 180471, Note_on_c, 9, 59, 0
5, 180600, Note_on_c, 9, 59, 65
5, 181341, Note_on_c, 9, 59, 0
5, 181539, Note_on_c, 9, 59, 61
5, 182081, Note_on_c, 9, 59, 0
5, 182253, Note_on_c, 9, 59, 43
5, 182388, Note_on_c, 9, 59, 0
5, 182542, Note_on_c, 9, 59, 58
5, 183170, Note_on_c, 9, 53, 50
5, 183232, Note_on_c, 9, 59, 0
5, 183500, Note_on_c, 9, 59, 22
5, 183550, Note_on_c, 9, 53, 0
5, 184086, Note_on_c, 9, 53, 52
5, 184197, Note_on_c, 9, 59, 0
5, 184429, Note_on_c, 9, 59, 26
5, 184480, Note_on_c, 9, 53, 0
5, 185126, Note_on_c, 9, 59, 0
5, 185353, Note_on_c, 9, 59, 57
5, 186071, Note_on_c, 9, 59, 0
5, 186292, Note_on_c, 9, 59, 52
5, 186871, Note_on_c, 9, 59, 0
5, 187002, Note_on_c, 9, 59, 26
5, 187122, Note_on_c, 9, 59, 0
5, 187252, Note_on_c, 9, 59, 64
5, 188005, Note_on_c, 9, 59, 0
5, 188202, Note_on_c, 9, 59, 61
5, 188950, Note_on_c, 9, 59, 0
5, 189158, Note_on_c, 9, 59, 61
5, 189836, Note_on_c, 9, 59, 0
5, 189943, Note_on_c, 9, 59, 43
5, 190068, Note_on_c, 9, 59, 0
5, 190196, Note_on_c, 9, 59, 72
5, 190831, Note_on_c, 9, 38, 8
5, 190932, Note_on_c, 9, 38, 0
5, 190936, Note_on_c, 9, 59, 0
5, 191084, Note_on_c, 9, 59, 63
5, 191122, Note_on_c, 9, 38, 9
5, 191568, Note_on_c, 9, 38, 0
5, 191673, Note_on_c, 9, 59, 0
5, 191804, Note_on_c, 9, 59, 47
5, 191896, Note_on_c, 9, 59, 0
5, 192057, Note_on_c, 9, 59, 63
5, 192122, Note_on_c, 9, 38, 10
5, 192555, Note_on_c, 9, 38, 0
5, 192696, Note_on_c, 9, 38, 19
5, 192724, Note_on_c, 9, 59, 0
5, 192861, Note_on_c, 9, 38, 0
5, 192977, Note_on_c, 9, 59, 65
5, 193522, Note_on_c, 9, 59, 0
5, 193667, Note_on_c, 9, 59, 42
5, 193798, Note_on_c, 9, 59, 0
5, 193890, Note_on_c, 9, 38, 9
5, 193935, Note_on_c, 9, 59, 68
5, 194409, Note_on_c, 9, 38, 0
5, 194527, Note_on_c, 9, 59, 0
5, 194542, Note_on_c, 9, 36, 15
5, 194896, Note_on_c, 9, 59, 63
5, 194947, Note_on_c, 9, 36, 0
5, 195511, Note_on_c, 9, 59, 0
5, 195603, Note_on_c, 9, 59, 28
5, 195779, Note_on_c, 9, 59, 0
5, 195779, Note_on_c, 9, 36, 18
5, 195882, Note_on_c, 9, 59, 54
5, 196193, Note_on_c, 9, 36, 0
5, 196508, Note_on_c, 9, 59, 0
5, 196813, Note_on_c, 9, 59, 61
5, 197544, Note_on_c, 9, 59, 0
5, 197548, Note_on_c, 9, 53, 40
5, 197801, Note_on_c, 9, 53, 0
5, 197825, Note_on_c, 9, 59, 54
5, 198506, Note_on_c, 9, 53, 50
5, 198532, Note_on_c, 9, 59, 0
5, 198729, Note_on_c, 9, 53, 0
5, 198789, Note_on_c, 9, 59, 44
5, 199353, Note_on_c, 9, 59, 0
5, 199458, Note_on_c, 9, 59, 31
5, 199656, Note_on_c, 9, 59, 0
5, 199758, Note_on_c, 9, 59, 45
5, 200397, Note_on_c, 9, 59, 0
5, 200659, Note_on_c, 9, 59, 55
5, 201257, Note_on_c, 9, 59, 0
5, 201411, Note_on_c, 9, 59, 41
5, 201547, Note_on_c, 9, 59, 0
5, 201682, Note_on_c, 9, 59, 48
5, 202203, Note_on_c, 9, 38, 5
5, 202314, Note_on_c, 9, 38, 0
5, 202355, Note_on_c, 9, 59, 0
5, 202556, Note_on_c, 9, 59, 61
5, 203152, Note_on_c, 9, 59, 0
5, 203178, Note_on_c, 9, 36, 13
5, 203260, Note_on_c, 9, 59, 38
5, 203320, Note_on_c, 9, 36, 0
5, 203420, Note_on_c, 9, 59, 0
5, 203511, Note_on_c, 9, 38, 6
5, 203545, Note_on_c, 9, 59, 58
5, 204096, Note_on_c, 9, 38, 0
5, 204252, Note_on_c, 9, 59, 0
5, 204503, Note_on_c, 9, 59, 61
5, 205082, Note_on_c, 9, 38, 14
5, 205196, Note_on_c, 9, 59, 0
5, 205239, Note_on_c, 9, 38, 0
5, 205438, Note_on_c, 9, 59, 60
5, 206023, Note_on_c, 9, 59, 0
5, 206053, Note_on_c, 9, 36, 16
5, 206156, Note_on_c, 9, 59, 32
5, 206302, Note_on_c, 9, 59, 0
5, 206377, Note_on_c, 9, 36, 0
5, 206401, Note_on_c, 9, 59, 54
5, 206411, Note_on_c, 9, 38, 5
5, 206954, Note_on_c, 9, 38, 0
5, 207132, Note_on_c, 9, 59, 0
5, 207346, Note_on_c, 9, 59, 58
5, 208026, Note_on_c, 9, 59, 0
5, 208264, Note_on_c, 9, 59, 64
5, 208905, Note_on_c, 9, 59, 0
5, 209033, Note_on_c, 9, 59, 34
5, 209151, Note_on_c, 9, 59, 0
5, 209269, Note_on_c, 9, 59, 63
5, 210041, Note_on_c, 9, 59, 0
5, 210191, Note_on_c, 9, 59, 65
5, 210817, Note_on_c, 9, 59, 0
5, 210946, Note_on_c, 9, 59, 40
5, 211113, Note_on_c, 9, 59, 0
5, 211218, Note_on_c, 9, 59, 38
5, 211913, Note_on_c, 9, 59, 0
5, 212202, Note_on_c, 9, 59, 73
5, 212826, Note_on_c, 9, 59, 0
5, 212843, Note_on_c, 9, 38, 6
5, 212950, Note_on_c, 9, 59, 38
5, 212961, Note_on_c, 9, 38, 0
5, 213071, Note_on_c, 9, 59, 0
5, 213231, Note_on_c, 9, 59, 41
5, 213834, Note_on_c, 9, 38, 9
5, 213939, Note_on_c, 9, 59, 0
5, 214012, Note_on_c, 9, 38, 0
5, 214147, Note_on_c, 9, 59, 67
5, 214657, Note_on_c, 9, 59, 0
5, 214824, Note_on_c, 9, 59, 38
5, 214947, Note_on_c, 9, 59, 0
5, 215112, Note_on_c, 9, 59, 52
5, 215714, Note_on_c, 9, 53, 61
5, 215828, Note_on_c, 9, 59, 0
5, 216027, Note_on_c, 9, 59, 30
5, 216094, Note_on_c, 9, 53, 0
5, 216490, Note_on_c, 9, 59, 0
5, 216638, Note_on_c, 9, 38, 9
5, 216713, Note_on_c, 9, 53, 42
5, 216784, Note_on_c, 9, 53, 0
5, 216846, Note_on_c, 9, 38, 0
5, 217030, Note_on_c, 9, 59, 66
5, 217584, Note_on_c, 9, 36, 10
5, 217657, Note_on_c, 9, 53, 35
5, 217669, Note_on_c, 9, 36, 0
5, 217693, Note_on_c, 9, 59, 0
5, 217740, Note_on_c, 9, 53, 0
5, 218066, Note_on_c, 9, 59, 16
5, 218424, Note_on_c, 9, 59, 0
5, 218551, Note_on_c, 9, 38, 11
5, 218596, Note_on_c, 9, 59, 65
5, 218658, Note_on_c, 9, 38, 0
5, 218808, Note_on_c, 9, 59, 0
5, 218936, Note_on_c, 9, 59, 61
5, 219560, Note_on_c, 9, 38, 5
5, 219571, Note_on_c, 9, 59, 0
5, 219575, Note_on_c, 9, 53, 21
5, 219653, Note_on_c, 9, 38, 0
5, 219672, Note_on_c, 9, 53, 0
5, 219908, Note_on_c, 9, 59, 43
5, 220300, Note_on_c, 9, 59, 0
5, 220454, Note_on_c, 9, 59, 70
5, 220495, Note_on_c, 9, 47, 74
5, 220737, Note_on_c, 9, 59, 0
5, 220783, Note_on_c, 9, 47, 0
5, 220900, Note_on_c, 9, 59, 30
5, 220937, Note_on_c, 9, 45, 38
5, 221276, Note_on_c, 9, 45, 0
5, 221321, Note_on_c, 9, 59, 0
5, 221443, Note_on_c, 9, 53, 38
5, 221479, Note_on_c, 9, 38, 21
5, 221593, Note_on_c, 9, 38, 0
5, 221627, Note_on_c, 9, 53, 0
5, 221762, Note_on_c, 9, 59, 62
5, 221822, Note_on_c, 9, 43, 35
5, 222101, Note_on_c, 9, 43, 0
5, 222210, Note_on_c, 9, 59, 0
5, 222341, Note_on_c, 9, 53, 31
5, 222412, Note_on_c, 9, 36, 20
5, 222444, Note_on_c, 9, 53, 0
5, 222500, Note_on_c, 9, 36, 0
5, 222575, Note_on_c, 9, 57, 10
5, 222586, Note_on_c, 9, 59, 45
5, 222699, Note_on_c, 9, 36, 23
5, 222704, Note_on_c, 9, 57, 12
5, 223297, Note_on_c, 9, 57, 0
5, 223375, Note_on_c, 9, 59, 0
5, 223600, Note_on_c, 9, 59, 34
5, 224031, Note_on_c, 9, 59, 0
5, 224322, Note_on_c, 9, 59, 25
5, 224370, Note_on_c, 9, 57, 0
5, 224543, Note_on_c, 9, 59, 0
5, 224644, Note_on_c, 9, 59, 15
5, 225289, Note_on_c, 9, 59, 0
5, 225313, Note_on_c, 9, 36, 0
5, 225322, Note_on_c, 9, 38, 21
5, 225416, Note_on_c, 9, 38, 0
5, 225549, Note_on_c, 9, 59, 64
5, 225660, Note_on_c, 9, 36, 35
5, 225680, Note_on_c, 9, 57, 14
5, 226040, Note_on_c, 9, 57, 0
5, 226185, Note_on_c, 9, 59, 0
5, 226340, Note_on_c, 9, 59, 27
5, 226490, Note_on_c, 9, 59, 0
5, 226563, Note_on_c, 9, 59, 19
5, 227275, Note_on_c, 9, 59, 0
5, 227519, Note_on_c, 9, 59, 58
5, 227590, Note_on_c, 9, 36, 0
5, 228173, Note_on_c, 9, 59, 0
5, 228263, Note_on_c, 9, 59, 30
5, 228411, Note_on_c, 9, 59, 0
5, 228544, Note_on_c, 9, 59, 60
5, 229236, Note_on_c, 9, 59, 0
5, 229487, Note_on_c, 9, 59, 60
5, 230066, Note_on_c, 9, 59, 0
5, 230186, Note_on_c, 9, 59, 43
5, 230375, Note_on_c, 9, 59, 0
5, 230463, Note_on_c, 9, 59, 51
5, 231134, Note_on_c, 9, 59, 0
5, 231372, Note_on_c, 9, 59, 57
5, 232103, Note_on_c, 9, 59, 0
5, 232306, Note_on_c, 9, 59, 55
5, 232900, Note_on_c, 9, 59, 0
5, 233050, Note_on_c, 9, 59, 38
5, 233186, Note_on_c, 9, 59, 0
5, 233308, Note_on_c, 9, 59, 59
5, 234101, Note_on_c, 9, 59, 0
5, 234300, Note_on_c, 9, 59, 57
5, 234989, Note_on_c, 9, 59, 0
5, 235231, Note_on_c, 9, 59, 55
5, 235812, Note_on_c, 9, 59, 0
5, 235936, Note_on_c, 9, 59, 37
5, 236837, Note_on_c, 9, 59, 0
5, 237173, Note_on_c, 9, 59, 64
5, 237776, Note_on_c, 9, 59, 0
5, 237892, Note_on_c, 9, 59, 29
5, 238012, Note_on_c, 9, 59, 0
5, 238147, Note_on_c, 9, 59, 62
5, 238683, Note_on_c, 9, 59, 0
5, 238700, Note_on_c, 9, 38, 9
5, 238803, Note_on_c, 9, 38, 0
5, 239024, Note_on_c, 9, 59, 64
5, 239660, Note_on_c, 9, 59, 0
5, 239988, Note_on_c, 9, 59, 66
5, 240031, Note_on_c, 9, 38, 5
5, 240516, Note_on_c, 9, 38, 0
5, 240587, Note_on_c, 9, 59, 0
5, 240711, Note_on_c, 9, 59, 33
5, 240882, Note_on_c, 9, 59, 0
5, 240985, Note_on_c, 9, 59, 50
5, 241614, Note_on_c, 9, 38, 11
5, 241616, Note_on_c, 9, 59, 0
5, 241777, Note_on_c, 9, 38, 0
5, 241969, Note_on_c, 9, 59, 65
5, 242690, Note_on_c, 9, 59, 0
5, 242870, Note_on_c, 9, 38, 10
5, 242911, Note_on_c, 9, 59, 58
5, 243320, Note_on_c, 9, 38, 0
5, 243487, Note_on_c, 9, 59, 0
5, 243608, Note_on_c, 9, 59, 44
5, 243764, Note_on_c, 9, 59, 0
5, 243871, Note_on_c, 9, 59, 58
5, 244465, Note_on_c, 9, 38, 12
5, 244544, Note_on_c, 9, 59, 0
5, 244690, Note_on_c, 9, 38, 0
5, 244778, Note_on_c, 9, 36, 16
5, 244836, Note_on_c, 9, 59, 68
5, 245331, Note_on_c, 9, 36, 0
5, 245378, Note_on_c, 9, 59, 0
5, 245541, Note_on_c, 9, 59, 38
5, 245681, Note_on_c, 9, 59, 0
5, 245805, Note_on_c, 9, 59, 61
5, 245831, Note_on_c, 9, 38, 13
5, 246285, Note_on_c, 9, 38, 0
5, 246431, Note_on_c, 9, 36, 17
5, 246465, Note_on_c, 9, 59, 0
5, 246736, Note_on_c, 9, 59, 65
5, 246757, Note_on_c, 9, 36, 0
5, 247263, Note_on_c, 9, 59, 0
5, 247379, Note_on_c, 9, 38, 19
5, 247430, Note_on_c, 9, 59, 40
5, 247582, Note_on_c, 9, 59, 0
5, 247670, Note_on_c, 9, 38, 0
5, 247728, Note_on_c, 9, 59, 69
5, 247857, Note_on_c, 9, 36, 8
5, 248187, Note_on_c, 9, 59, 0
5, 248342, Note_on_c, 9, 36, 0
5, 248635, Note_on_c, 9, 59, 70
5, 248727, Note_on_c, 9, 38, 20
5, 249148, Note_on_c, 9, 38, 0
5, 249315, Note_on_c, 9, 36, 14
5, 249366, Note_on_c, 9, 59, 0
5, 249551, Note_on_c, 9, 59, 36
5, 249658, Note_on_c, 9, 36, 0
5, 249673, Note_on_c, 9, 59, 0
5, 249868, Note_on_c, 9, 59, 58
5, 250237, Note_on_c, 9, 59, 0
5, 250248, Note_on_c, 9, 38, 20
5, 250505, Note_on_c, 9, 38, 0
5, 250571, Note_on_c, 9, 59, 72
5, 251144, Note_on_c, 9, 59, 0
5, 251195, Note_on_c, 9, 38, 25
5, 251262, Note_on_c, 9, 59, 41
5, 251371, Note_on_c, 9, 59, 0
5, 251407, Note_on_c, 9, 38, 0
5, 251849, Note_on_c, 9, 59, 64
5, 252027, Note_on_c, 9, 59, 0
5, 252143, Note_on_c, 9, 38, 27
5, 252271, Note_on_c, 9, 53, 45
5, 252415, Note_on_c, 9, 38, 0
5, 252419, Note_on_c, 9, 53, 0
5, 252484, Note_on_c, 9, 59, 71
5, 252833, Note_on_c, 9, 59, 0
5, 253101, Note_on_c, 9, 59, 67
5, 253108, Note_on_c, 9, 57, 16
5, 253108, Note_on_c, 9, 38, 20
5, 253290, Note_on_c, 9, 38, 0
5, 253455, Note_on_c, 9, 36, 35
5, 253464, Note_on_c, 9, 57, 14
5, 254057, Note_on_c, 9, 57, 0
5, 254167, Note_on_c, 9, 59, 0
5, 254375, Note_on_c, 9, 59, 33
5, 254870, Note_on_c, 9, 59, 0
5, 255018, Note_on_c, 9, 59, 34
5, 255119, Note_on_c, 9, 57, 0
5, 255230, Note_on_c, 9, 59, 0
5, 255333, Note_on_c, 9, 59, 34
5, 255807, Note_on_c, 9, 36, 0
5, 256023, Note_on_c, 9, 59, 0
5, 256047, Note_on_c, 9, 38, 4
5, 256141, Note_on_c, 9, 38, 0
5, 256272, Note_on_c, 9, 59, 54
5, 256894, Note_on_c, 9, 59, 0
5, 257050, Note_on_c, 9, 59, 27
5, 257198, Note_on_c, 9, 59, 0
5, 257271, Note_on_c, 9, 59, 20
5, 257996, Note_on_c, 9, 59, 0
5, 258221, Note_on_c, 9, 59, 54
5, 258809, Note_on_c, 9, 59, 0
5, 258967, Note_on_c, 9, 59, 25
5, 259111, Note_on_c, 9, 59, 0
5, 259205, Note_on_c, 9, 59, 32
5, 259844, Note_on_c, 9, 59, 0
5, 260144, Note_on_c, 9, 59, 77
5, 260933, Note_on_c, 9, 59, 0
5, 261105, Note_on_c, 9, 59, 33
5, 261456, Note_on_c, 9, 59, 0
5, 261780, Note_on_c, 9, 59, 41
5, 261973, Note_on_c, 9, 59, 0
5, 262057, Note_on_c, 9, 59, 49
5, 262730, Note_on_c, 9, 59, 0
5, 262981, Note_on_c, 9, 59, 61
5, 263718, Note_on_c, 9, 59, 0
5, 263943, Note_on_c, 9, 59, 64
5, 264546, Note_on_c, 9, 59, 0
5, 264623, Note_on_c, 9, 38, 6
5, 264717, Note_on_c, 9, 59, 39
5, 264767, Note_on_c, 9, 38, 0
5, 264885, Note_on_c, 9, 59, 0
5, 264988, Note_on_c, 9, 59, 34
5, 265018, Note_on_c, 9, 38, 4
5, 265249, Note_on_c, 9, 38, 0
5, 265564, Note_on_c, 9, 36, 8
5, 265607, Note_on_c, 9, 53, 49
5, 265680, Note_on_c, 9, 59, 0
5, 265805, Note_on_c, 9, 36, 0
5, 265982, Note_on_c, 9, 59, 31
5, 266313, Note_on_c, 9, 53, 0
5, 266529, Note_on_c, 9, 59, 0
5, 266574, Note_on_c, 9, 38, 12
5, 266692, Note_on_c, 9, 38, 0
5, 266694, Note_on_c, 9, 59, 32
5, 266797, Note_on_c, 9, 59, 0
5, 266954, Note_on_c, 9, 59, 58
5, 267522, Note_on_c, 9, 53, 36
5, 267552, Note_on_c, 9, 36, 11
5, 267565, Note_on_c, 9, 59, 0
5, 267689, Note_on_c, 9, 53, 0
5, 267749, Note_on_c, 9, 36, 0
5, 267873, Note_on_c, 9, 59, 61
5, 268371, Note_on_c, 9, 59, 0
5, 268626, Note_on_c, 9, 53, 47
5, 268836, Note_on_c, 9, 59, 60
5, 269556, Note_on_c, 9, 59, 0
5, 269833, Note_on_c, 9, 59, 36
5, 269839, Note_on_c, 9, 53, 0
5, 270212, Note_on_c, 9, 59, 0
5, 270371, Note_on_c, 9, 38, 14
5, 270418, Note_on_c, 9, 59, 56
5, 270431, Note_on_c, 9, 53, 52
5, 270470, Note_on_c, 9, 38, 0
5, 270729, Note_on_c, 9, 38, 6
5, 270823, Note_on_c, 9, 59, 0
5, 270937, Note_on_c, 9, 59, 18
5, 271106, Note_on_c, 9, 53, 0
5, 271242, Note_on_c, 9, 38, 0
5, 271332, Note_on_c, 9, 36, 16
5, 271357, Note_on_c, 9, 59, 0
5, 271544, Note_on_c, 9, 36, 0
5, 271645, Note_on_c, 9, 53, 46
5, 271720, Note_on_c, 9, 59, 64
5, 272245, Note_on_c, 9, 53, 0
5, 272281, Note_on_c, 9, 38, 20
5, 272348, Note_on_c, 9, 59, 0
5, 272455, Note_on_c, 9, 59, 27
5, 272571, Note_on_c, 9, 59, 0
5, 272779, Note_on_c, 9, 59, 45
5, 273107, Note_on_c, 9, 38, 0
5, 273227, Note_on_c, 9, 36, 20
5, 273405, Note_on_c, 9, 36, 0
5, 273454, Note_on_c, 9, 59, 0
5, 273564, Note_on_c, 9, 38, 16
5, 273613, Note_on_c, 9, 59, 63
5, 274052, Note_on_c, 9, 38, 0
5, 274203, Note_on_c, 9, 38, 23
5, 274237, Note_on_c, 9, 59, 0
5, 274387, Note_on_c, 9, 59, 24
5, 274393, Note_on_c, 9, 38, 0
5, 274511, Note_on_c, 9, 59, 0
5, 274586, Note_on_c, 9, 59, 30
5, 275249, Note_on_c, 9, 36, 5
5, 275319, Note_on_c, 9, 59, 0
5, 275382, Note_on_c, 9, 36, 0
5, 275575, Note_on_c, 9, 59, 69
5, 276171, Note_on_c, 9, 59, 0
5, 276282, Note_on_c, 9, 59, 28
5, 276413, Note_on_c, 9, 59, 0
5, 276544, Note_on_c, 9, 59, 53
5, 277155, Note_on_c, 9, 59, 0
5, 277474, Note_on_c, 9, 59, 72
5, 278150, Note_on_c, 9, 59, 0
5, 278460, Note_on_c, 9, 59, 40
5, 278872, Note_on_c, 9, 59, 0
5, 279164, Note_on_c, 9, 59, 71
5, 279382, Note_on_c, 9, 59, 0
5, 279490, Note_on_c, 9, 59, 48
5, 279770, Note_on_c, 9, 59, 0
5, 280075, Note_on_c, 9, 59, 78
5, 280907, Note_on_c, 9, 59, 0
5, 281031, Note_on_c, 9, 59, 22
5, 281170, Note_on_c, 9, 59, 0
5, 281335, Note_on_c, 9, 59, 48
5, 281957, Note_on_c, 9, 59, 0
5, 281966, Note_on_c, 9, 38, 14
5, 282159, Note_on_c, 9, 38, 0
5, 282313, Note_on_c, 9, 38, 5
5, 282317, Note_on_c, 9, 59, 70
5, 282843, Note_on_c, 9, 59, 0
5, 282851, Note_on_c, 9, 38, 0
5, 282954, Note_on_c, 9, 36, 14
5, 283010, Note_on_c, 9, 59, 35
5, 283203, Note_on_c, 9, 36, 0
5, 283211, Note_on_c, 9, 59, 0
5, 283291, Note_on_c, 9, 38, 7
5, 283306, Note_on_c, 9, 59, 40
5, 283690, Note_on_c, 9, 59, 0
5, 283726, Note_on_c, 9, 38, 0
5, 283900, Note_on_c, 9, 38, 14
5, 283955, Note_on_c, 9, 59, 70
5, 284106, Note_on_c, 9, 38, 0
5, 284136, Note_on_c, 9, 59, 0
5, 284271, Note_on_c, 9, 59, 64
5, 284811, Note_on_c, 9, 59, 0
5, 284914, Note_on_c, 9, 59, 41
5, 285036, Note_on_c, 9, 59, 0
5, 285821, Note_on_c, 9, 59, 75
5, 286612, Note_on_c, 9, 59, 0
5, 286786, Note_on_c, 9, 59, 41
5, 286936, Note_on_c, 9, 59, 0
5, 287152, Note_on_c, 9, 59, 39
5, 287281, Note_on_c, 9, 59, 0
5, 287740, Note_on_c, 9, 59, 84
5, 288023, Note_on_c, 9, 59, 0
5, 288668, Note_on_c, 9, 59, 73
5, 288923, Note_on_c, 9, 59, 0
5, 289075, Note_on_c, 9, 59, 33
5, 289217, Note_on_c, 9, 59, 0
5, 289648, Note_on_c, 9, 59, 44
5, 289789, Note_on_c, 9, 59, 0
5, 289950, Note_on_c, 9, 59, 56
5, 290426, Note_on_c, 9, 59, 0
5, 290598, Note_on_c, 9, 59, 44
5, 290707, Note_on_c, 9, 59, 0
5, 290964, Note_on_c, 9, 59, 39
5, 291069, Note_on_c, 9, 59, 0
5, 291498, Note_on_c, 9, 38, 15
5, 291550, Note_on_c, 9, 59, 51
5, 291601, Note_on_c, 9, 38, 0
5, 291631, Note_on_c, 9, 59, 0
5, 292392, Note_on_c, 9, 38, 20
5, 292461, Note_on_c, 9, 59, 65
5, 292495, Note_on_c, 9, 38, 0
5, 292632, Note_on_c, 9, 59, 0
5, 293812, Note_on_c, 9, 36, 6
5, 293856, Note_on_c, 9, 59, 60
5, 293994, Note_on_c, 9, 36, 0
5, 294217, Note_on_c, 9, 59, 0
5, 295387, Note_on_c, 9, 59, 55
5, 295895, Note_on_c, 9, 59, 0
5, 296331, Note_on_c, 9, 53, 26
5, 296504, Note_on_c, 9, 53, 0
5, 297295, Note_on_c, 9, 53, 26
5, 297514, Note_on_c, 9, 53, 0
5, 298297, Note_on_c, 9, 53, 21
5, 298556, Note_on_c, 9, 53, 0
5, 299231, Note_on_c, 9, 53, 26
5, 299274, Note_on_c, 9, 36, 22
5, 299371, Note_on_c, 9, 53, 0
5, 299502, Note_on_c, 9, 36, 0
5, 299643, Note_on_c, 9, 36, 6
5, 300083, Note_on_c, 9, 36, 0
5, 300228, Note_on_c, 9, 59, 55
5, 300529, Note_on_c, 9, 59, 0
5, 301571, Note_on_c, 9, 59, 56
5, 301892, Note_on_c, 9, 59, 0
5, 303063, Note_on_c, 9, 59, 50
5, 305097, Note_on_c, 9, 59, 0
5, 305891, Note_on_c, 9, 36, 32
5, 306646, Note_on_c, 9, 36, 0
5, 306892, Note_on_c, 9, 36, 37
5, 307209, Note_on_c, 9, 36, 0
5, 307898, Note_on_c, 9, 59, 41
5, 307938, Note_on_c, 9, 36, 44
5, 308061, Note_on_c, 9, 59, 0
5, 308174, Note_on_c, 9, 36, 0
5, 308281, Note_on_c, 9, 59, 23
5, 308457, Note_on_c, 9, 59, 0
5, 309233, Note_on_c, 9, 59, 60
5, 309424, Note_on_c, 9, 59, 0
5, 310751, Note_on_c, 9, 59, 57
5, 310942, Note_on_c, 9, 59, 0
5, 311703, Note_on_c, 9, 53, 30
5, 311793, Note_on_c, 9, 53, 0
5, 313075, Note_on_c, 9, 53, 21
5, 313397, Note_on_c, 9, 53, 0
5, 313554, Note_on_c, 9, 38, 20
5, 313781, Note_on_c, 9, 38, 0
5, 313974, Note_on_c, 9, 36, 8
5, 314240, Note_on_c, 9, 36, 0
5, 314557, Note_on_c, 9, 36, 20
5, 314713, Note_on_c, 9, 36, 0
5, 315052, Note_on_c, 9, 36, 14
5, 315204, Note_on_c, 9, 36, 0
5, 315500, Note_on_c, 9, 59, 43
5, 315659, Note_on_c, 9, 59, 0
5, 315862, Note_on_c, 9, 59, 30
5, 316208, Note_on_c, 9, 59, 0
5, 316840, Note_on_c, 9, 59, 63
5, 317331, Note_on_c, 9, 59, 0
5, 317479, Note_on_c, 9, 59, 28
5, 317590, Note_on_c, 9, 59, 0
5, 318422, Note_on_c, 9, 59, 70
5, 318727, Note_on_c, 9, 59, 0
5, 320352, Note_on_c, 9, 38, 23
5, 320453, Note_on_c, 9, 38, 0
5, 321341, Note_on_c, 9, 38, 28
5, 321538, Note_on_c, 9, 38, 0
5, 322258, Note_on_c, 9, 59, 62
5, 322273, Note_on_c, 9, 57, 11
5, 322329, Note_on_c, 9, 38, 27
5, 322503, Note_on_c, 9, 38, 0
5, 322676, Note_on_c, 9, 36, 16
5, 322983, Note_on_c, 9, 36, 0
5, 323377, Note_on_c, 9, 57, 0
5, 323399, Note_on_c, 9, 59, 0
5, 323566, Note_on_c, 9, 59, 40
5, 324378, Note_on_c, 9, 59, 0
5, 324554, Note_on_c, 9, 59, 41
5, 325260, Note_on_c, 9, 59, 0
5, 325480, Note_on_c, 9, 59, 41
5, 326081, Note_on_c, 9, 59, 0
5, 326220, Note_on_c, 9, 59, 25
5, 326366, Note_on_c, 9, 59, 0
5, 326447, Note_on_c, 9, 59, 25
5, 327185, Note_on_c, 9, 59, 0
5, 327356, Note_on_c, 9, 59, 48
5, 328000, Note_on_c, 9, 59, 0
5, 328145, Note_on_c, 9, 59, 23
5, 328949, Note_on_c, 9, 59, 0
5, 329303, Note_on_c, 9, 59, 68
5, 330013, Note_on_c, 9, 59, 0
5, 330324, Note_on_c, 9, 59, 31
5, 330545, Note_on_c, 9, 59, 0
5, 331216, Note_on_c, 9, 59, 74
5, 331576, Note_on_c, 9, 59, 0
5, 331992, Note_on_c, 9, 59, 37
5, 332086, Note_on_c, 9, 59, 0
5, 332243, Note_on_c, 9, 59, 56
5, 332772, Note_on_c, 9, 59, 0
5, 333128, Note_on_c, 9, 59, 64
5, 333709, Note_on_c, 9, 59, 0
5, 333868, Note_on_c, 9, 59, 36
5, 333990, Note_on_c, 9, 59, 0
5, 334142, Note_on_c, 9, 59, 57
5, 334693, Note_on_c, 9, 59, 0
5, 335094, Note_on_c, 9, 59, 61
5, 335615, Note_on_c, 9, 59, 0
5, 335812, Note_on_c, 9, 59, 32
5, 335960, Note_on_c, 9, 59, 0
5, 336106, Note_on_c, 9, 59, 47
5, 336672, Note_on_c, 9, 59, 0
5, 336687, Note_on_c, 9, 53, 39
5, 336867, Note_on_c, 9, 53, 0
5, 336968, Note_on_c, 9, 59, 28
5, 337030, Note_on_c, 9, 38, 1
5, 337393, Note_on_c, 9, 59, 0
5, 337493, Note_on_c, 9, 38, 0
5, 337607, Note_on_c, 9, 59, 36
5, 337678, Note_on_c, 9, 38, 6
5, 337766, Note_on_c, 9, 59, 0
5, 337911, Note_on_c, 9, 38, 0
5, 337924, Note_on_c, 9, 59, 57
5, 338625, Note_on_c, 9, 36, 11
5, 338655, Note_on_c, 9, 59, 0
5, 338848, Note_on_c, 9, 36, 0
5, 338878, Note_on_c, 9, 59, 51
5, 339425, Note_on_c, 9, 59, 0
5, 339614, Note_on_c, 9, 59, 38
5, 339785, Note_on_c, 9, 59, 0
5, 339922, Note_on_c, 9, 59, 59
5, 339931, Note_on_c, 9, 36, 1
5, 340225, Note_on_c, 9, 36, 0
5, 340542, Note_on_c, 9, 59, 0
5, 340806, Note_on_c, 9, 59, 60
5, 341438, Note_on_c, 9, 59, 0
5, 341466, Note_on_c, 9, 36, 13
5, 341709, Note_on_c, 9, 36, 0
5, 341756, Note_on_c, 9, 59, 60
5, 342386, Note_on_c, 9, 59, 0
5, 342560, Note_on_c, 9, 59, 37
5, 342662, Note_on_c, 9, 59, 0
5, 342800, Note_on_c, 9, 59, 59
5, 342871, Note_on_c, 9, 36, 5
5, 343237, Note_on_c, 9, 36, 0
5, 343509, Note_on_c, 9, 59, 0
5, 343726, Note_on_c, 9, 59, 54
5, 344348, Note_on_c, 9, 59, 0
5, 344719, Note_on_c, 9, 59, 64
5, 345233, Note_on_c, 9, 59, 0
5, 345420, Note_on_c, 9, 59, 28
5, 345613, Note_on_c, 9, 59, 0
5, 345671, Note_on_c, 9, 59, 22
5, 346267, Note_on_c, 9, 59, 0
5, 346578, Note_on_c, 9, 59, 61
5, 347090, Note_on_c, 9, 59, 0
5, 347300, Note_on_c, 9, 59, 19
5, 347444, Note_on_c, 9, 59, 0
5, 347555, Note_on_c, 9, 59, 43
5, 347950, Note_on_c, 9, 59, 0
5, 348218, Note_on_c, 9, 59, 78
5, 349200, Note_on_c, 9, 59, 0
5, 349468, Note_on_c, 9, 59, 42
5, 350083, Note_on_c, 9, 59, 0
5, 350402, Note_on_c, 9, 59, 65
5, 351011, Note_on_c, 9, 59, 0
5, 351136, Note_on_c, 9, 59, 34
5, 351266, Note_on_c, 9, 59, 0
5, 351408, Note_on_c, 9, 59, 59
5, 352028, Note_on_c, 9, 45, 58
5, 352148, Note_on_c, 9, 59, 0
5, 352304, Note_on_c, 9, 45, 0
5, 352345, Note_on_c, 9, 59, 67
5, 352405, Note_on_c, 9, 45, 14
5, 352909, Note_on_c, 9, 36, 20
5, 352911, Note_on_c, 9, 45, 0
5, 352952, Note_on_c, 9, 59, 0
5, 353093, Note_on_c, 9, 59, 38
5, 353194, Note_on_c, 9, 59, 0
5, 353286, Note_on_c, 9, 36, 0
5, 353335, Note_on_c, 9, 59, 54
5, 354015, Note_on_c, 9, 59, 0
5, 354225, Note_on_c, 9, 59, 52
5, 354815, Note_on_c, 9, 59, 0
5, 355190, Note_on_c, 9, 59, 58
5, 355717, Note_on_c, 9, 59, 0
5, 355900, Note_on_c, 9, 59, 33
5, 356015, Note_on_c, 9, 59, 0
5, 356161, Note_on_c, 9, 59, 60
5, 356798, Note_on_c, 9, 59, 0
5, 357094, Note_on_c, 9, 59, 27
5, 357649, Note_on_c, 9, 59, 0
5, 357784, Note_on_c, 9, 40, 24
5, 357902, Note_on_c, 9, 40, 0
5, 358048, Note_on_c, 9, 59, 74
5, 358183, Note_on_c, 9, 40, 12
5, 358614, Note_on_c, 9, 59, 0
5, 358620, Note_on_c, 9, 40, 0
5, 358736, Note_on_c, 9, 36, 15
5, 358798, Note_on_c, 9, 59, 34
5, 358978, Note_on_c, 9, 59, 0
5, 358981, Note_on_c, 9, 36, 0
5, 359148, Note_on_c, 9, 59, 24
5, 359154, Note_on_c, 9, 40, 15
5, 359324, Note_on_c, 9, 59, 0
5, 359579, Note_on_c, 9, 40, 0
5, 359716, Note_on_c, 9, 40, 21
5, 359840, Note_on_c, 9, 40, 0
5, 359849, Note_on_c, 9, 59, 68
5, 359980, Note_on_c, 9, 36, 11
5, 360509, Note_on_c, 9, 59, 0
5, 360644, Note_on_c, 9, 36, 0
5, 360651, Note_on_c, 9, 40, 26
5, 360683, Note_on_c, 9, 59, 46
5, 360814, Note_on_c, 9, 59, 0
5, 360872, Note_on_c, 9, 40, 0
5, 360985, Note_on_c, 9, 59, 56
5, 360985, Note_on_c, 9, 40, 16
5, 361504, Note_on_c, 9, 40, 0
5, 361581, Note_on_c, 9, 36, 14
5, 361701, Note_on_c, 9, 59, 0
5, 361937, Note_on_c, 9, 36, 0
5, 361961, Note_on_c, 9, 59, 52
5, 362546, Note_on_c, 9, 59, 0
5, 362983, Note_on_c, 9, 59, 62
5, 363603, Note_on_c, 9, 59, 0
5, 363952, Note_on_c, 9, 59, 46
5, 364452, Note_on_c, 9, 59, 0
5, 364874, Note_on_c, 9, 59, 61
5, 365359, Note_on_c, 9, 59, 0
5, 365520, Note_on_c, 9, 59, 40
5, 365689, Note_on_c, 9, 59, 0
5, 365824, Note_on_c, 9, 59, 49
5, 366422, Note_on_c, 9, 59, 0
5, 366742, Note_on_c, 9, 59, 65
5, 367312, Note_on_c, 9, 59, 0
5, 367451, Note_on_c, 9, 59, 29
5, 367509, Note_on_c, 9, 38, 18
5, 367561, Note_on_c, 9, 59, 0
5, 367709, Note_on_c, 9, 59, 56
5, 367722, Note_on_c, 9, 38, 0
5, 368356, Note_on_c, 9, 36, 14
5, 368365, Note_on_c, 9, 59, 0
5, 368528, Note_on_c, 9, 36, 0
5, 368637, Note_on_c, 9, 59, 58
5, 368725, Note_on_c, 9, 38, 10
5, 369283, Note_on_c, 9, 38, 0
5, 369330, Note_on_c, 9, 59, 0
5, 369705, Note_on_c, 9, 59, 62
5, 370301, Note_on_c, 9, 59, 0
5, 370650, Note_on_c, 9, 59, 54
5, 371281, Note_on_c, 9, 59, 0
5, 371309, Note_on_c, 9, 36, 6
5, 371330, Note_on_c, 9, 53, 31
5, 371482, Note_on_c, 9, 36, 0
5, 371581, Note_on_c, 9, 59, 37
5, 371583, Note_on_c, 9, 53, 0
5, 371632, Note_on_c, 9, 38, 9
5, 372027, Note_on_c, 9, 59, 0
5, 372155, Note_on_c, 9, 38, 0
5, 372220, Note_on_c, 9, 59, 38
5, 372250, Note_on_c, 9, 36, 13
5, 372393, Note_on_c, 9, 59, 0
5, 372509, Note_on_c, 9, 36, 0
5, 372552, Note_on_c, 9, 59, 55
5, 372679, Note_on_c, 9, 38, 12
5, 373084, Note_on_c, 9, 38, 0
5, 373200, Note_on_c, 9, 38, 11
5, 373206, Note_on_c, 9, 53, 38
5, 373232, Note_on_c, 9, 59, 0
5, 373369, Note_on_c, 9, 38, 0
5, 373521, Note_on_c, 9, 53, 0
5, 373566, Note_on_c, 9, 59, 28
5, 373828, Note_on_c, 9, 59, 0
5, 374158, Note_on_c, 9, 59, 44
5, 374364, Note_on_c, 9, 59, 0
5, 374525, Note_on_c, 9, 59, 44
5, 375061, Note_on_c, 9, 59, 0
5, 375459, Note_on_c, 9, 59, 62
5, 375865, Note_on_c, 9, 59, 0
5, 376090, Note_on_c, 9, 59, 33
5, 376253, Note_on_c, 9, 59, 0
5, 376424, Note_on_c, 9, 59, 50
5, 376658, Note_on_c, 9, 38, 10
5, 376752, Note_on_c, 9, 38, 0
5, 376992, Note_on_c, 9, 53, 50
5, 377050, Note_on_c, 9, 59, 0
5, 377177, Note_on_c, 9, 53, 0
5, 377355, Note_on_c, 9, 53, 34
5, 377368, Note_on_c, 9, 38, 18
5, 377783, Note_on_c, 9, 53, 0
5, 377841, Note_on_c, 9, 38, 0
5, 378002, Note_on_c, 9, 36, 17
5, 378202, Note_on_c, 9, 36, 0
5, 378332, Note_on_c, 9, 59, 60
5, 378549, Note_on_c, 9, 36, 27
5, 378785, Note_on_c, 9, 59, 0
5, 378856, Note_on_c, 9, 36, 0
5, 378946, Note_on_c, 9, 53, 41
5, 379134, Note_on_c, 9, 53, 0
5, 379248, Note_on_c, 9, 36, 20
5, 379319, Note_on_c, 9, 53, 34
5, 379623, Note_on_c, 9, 36, 0
5, 379625, Note_on_c, 9, 53, 0
5, 379878, Note_on_c, 9, 36, 23
5, 379923, Note_on_c, 9, 59, 70
5, 380157, Note_on_c, 9, 36, 0
5, 380729, Note_on_c, 9, 59, 0
5, 380811, Note_on_c, 9, 53, 54
5, 381062, Note_on_c, 9, 53, 0
5, 381197, Note_on_c, 9, 59, 43
5, 381583, Note_on_c, 9, 59, 0
5, 381859, Note_on_c, 9, 53, 61
5, 382099, Note_on_c, 9, 53, 0
5, 382239, Note_on_c, 9, 59, 47
5, 382605, Note_on_c, 9, 59, 0
5, 382747, Note_on_c, 9, 38, 17
5, 382787, Note_on_c, 9, 53, 61
5, 382899, Note_on_c, 9, 38, 0
5, 383030, Note_on_c, 9, 53, 0
5, 383060, Note_on_c, 9, 36, 12
5, 383152, Note_on_c, 9, 59, 38
5, 383360, Note_on_c, 9, 36, 0
5, 383555, Note_on_c, 9, 59, 0
5, 383742, Note_on_c, 9, 53, 56
5, 383750, Note_on_c, 9, 36, 12
5, 383896, Note_on_c, 9, 53, 0
5, 384022, Note_on_c, 9, 36, 0
5, 384061, Note_on_c, 9, 59, 50
5, 384074, Note_on_c, 9, 57, 8
5, 384110, Note_on_c, 9, 38, 9
5, 384724, Note_on_c, 9, 38, 0
5, 384724, Note_on_c, 9, 36, 14
5, 384751, Note_on_c, 9, 59, 0
5, 384788, Note_on_c, 9, 57, 0
5, 384970, Note_on_c, 9, 36, 0
5, 385650, Note_on_c, 9, 59, 36
5, 385662, Note_on_c, 9, 36, 29
5, 385768, Note_on_c, 9, 59, 0
5, 385952, Note_on_c, 9, 59, 45
5, 386276, Note_on_c, 9, 36, 0
5, 386559, Note_on_c, 9, 59, 0
5, 386816, Note_on_c, 9, 59, 57
5, 387258, Note_on_c, 9, 59, 0
5, 387562, Note_on_c, 9, 59, 28
5, 387710, Note_on_c, 9, 59, 0
5, 387832, Note_on_c, 9, 59, 36
5, 388441, Note_on_c, 9, 38, 12
5, 388463, Note_on_c, 9, 59, 0
5, 388750, Note_on_c, 9, 38, 0
5, 388771, Note_on_c, 9, 59, 58
5, 389372, Note_on_c, 9, 59, 0
5, 389520, Note_on_c, 9, 59, 29
5, 389668, Note_on_c, 9, 59, 0
5, 389790, Note_on_c, 9, 59, 45
5, 390405, Note_on_c, 9, 59, 0
5, 390729, Note_on_c, 9, 59, 62
5, 391237, Note_on_c, 9, 59, 0
5, 391434, Note_on_c, 9, 59, 30
5, 391638, Note_on_c, 9, 59, 0
5, 391726, Note_on_c, 9, 59, 32
5, 392277, Note_on_c, 9, 59, 0
5, 392684, Note_on_c, 9, 59, 65
5, 393192, Note_on_c, 9, 59, 0
5, 393683, Note_on_c, 9, 59, 77
5, 394414, Note_on_c, 9, 59, 0
5, 394700, Note_on_c, 9, 59, 59
5, 395051, Note_on_c, 9, 59, 0
5, 395360, Note_on_c, 9, 59, 58
5, 395527, Note_on_c, 9, 59, 0
5, 395645, Note_on_c, 9, 59, 68
5, 396346, Note_on_c, 9, 59, 0
5, 396567, Note_on_c, 9, 59, 54
5, 397024, Note_on_c, 9, 59, 0
5, 397161, Note_on_c, 9, 36, 8
5, 397272, Note_on_c, 9, 59, 38
5, 397283, Note_on_c, 9, 36, 0
5, 397433, Note_on_c, 9, 59, 0
5, 397581, Note_on_c, 9, 59, 69
5, 398104, Note_on_c, 9, 59, 0
5, 398199, Note_on_c, 9, 59, 68
5, 399105, Note_on_c, 9, 59, 0
5, 399215, Note_on_c, 9, 59, 39
5, 399365, Note_on_c, 9, 59, 0
5, 399496, Note_on_c, 9, 59, 68
5, 400169, Note_on_c, 9, 59, 0
5, 400321, Note_on_c, 9, 36, 18
5, 400332, Note_on_c, 9, 59, 65
5, 400827, Note_on_c, 9, 36, 0
5, 400949, Note_on_c, 9, 59, 0
5, 401078, Note_on_c, 9, 59, 30
5, 401198, Note_on_c, 9, 59, 0
5, 401327, Note_on_c, 9, 59, 70
5, 401880, Note_on_c, 9, 59, 0
5, 401925, Note_on_c, 9, 38, 7
5, 402000, Note_on_c, 9, 59, 78
5, 402056, Note_on_c, 9, 38, 0
5, 402234, Note_on_c, 9, 36, 11
5, 402639, Note_on_c, 9, 36, 0
5, 402902, Note_on_c, 9, 59, 0
5, 402941, Note_on_c, 9, 36, 15
5, 402971, Note_on_c, 9, 59, 27
5, 403125, Note_on_c, 9, 59, 0
5, 403250, Note_on_c, 9, 36, 0
5, 403278, Note_on_c, 9, 59, 73
5, 403366, Note_on_c, 9, 38, 9
5, 403797, Note_on_c, 9, 38, 0
5, 403930, Note_on_c, 9, 36, 17
5, 404024, Note_on_c, 9, 59, 0
5, 404056, Note_on_c, 9, 36, 0
5, 404180, Note_on_c, 9, 59, 68
5, 404794, Note_on_c, 9, 59, 0
5, 404819, Note_on_c, 9, 38, 19
5, 404920, Note_on_c, 9, 59, 47
5, 405023, Note_on_c, 9, 38, 0
5, 405070, Note_on_c, 9, 59, 0
5, 405145, Note_on_c, 9, 38, 11
5, 405212, Note_on_c, 9, 59, 70
5, 405368, Note_on_c, 9, 38, 0
5, 405754, Note_on_c, 9, 59, 0
5, 405812, Note_on_c, 9, 36, 16
5, 405891, Note_on_c, 9, 59, 74
5, 406003, Note_on_c, 9, 36, 0
5, 406708, Note_on_c, 9, 59, 0
5, 406740, Note_on_c, 9, 38, 19
5, 406811, Note_on_c, 9, 59, 39
5, 406968, Note_on_c, 9, 59, 0
5, 407004, Note_on_c, 9, 38, 0
5, 407107, Note_on_c, 9, 59, 74
5, 407684, Note_on_c, 9, 36, 24
5, 407855, Note_on_c, 9, 36, 0
5, 407887, Note_on_c, 9, 59, 0
5, 408052, Note_on_c, 9, 59, 70
5, 408067, Note_on_c, 9, 36, 27
5, 408421, Note_on_c, 9, 36, 0
5, 408601, Note_on_c, 9, 59, 0
5, 408724, Note_on_c, 9, 59, 50
5, 408908, Note_on_c, 9, 59, 0
5, 409017, Note_on_c, 9, 59, 69
5, 409682, Note_on_c, 9, 59, 0
5, 409941, Note_on_c, 9, 59, 77
5, 410606, Note_on_c, 9, 38, 25
5, 410780, Note_on_c, 9, 59, 0
5, 410784, Note_on_c, 9, 38, 0
5, 410958, Note_on_c, 9, 38, 5
5, 410998, Note_on_c, 9, 59, 32
5, 411314, Note_on_c, 9, 38, 0
5, 411436, Note_on_c, 9, 59, 0
5, 411545, Note_on_c, 9, 36, 19
5, 411586, Note_on_c, 9, 59, 70
5, 411680, Note_on_c, 9, 36, 0
5, 411787, Note_on_c, 9, 59, 0
5, 411912, Note_on_c, 9, 59, 62
5, 412370, Note_on_c, 9, 59, 0
5, 412514, Note_on_c, 9, 38, 18
5, 412561, Note_on_c, 9, 59, 73
5, 412602, Note_on_c, 9, 38, 0
5, 413395, Note_on_c, 9, 59, 0
5, 413458, Note_on_c, 9, 38, 30
5, 413518, Note_on_c, 9, 59, 39
5, 413642, Note_on_c, 9, 38, 0
5, 413657, Note_on_c, 9, 59, 0
5, 413820, Note_on_c, 9, 59, 70
5, 414364, Note_on_c, 9, 36, 38
5, 414512, Note_on_c, 9, 59, 0
5, 414542, Note_on_c, 9, 36, 0
5, 414705, Note_on_c, 9, 57, 10
5, 414720, Note_on_c, 9, 36, 22
5, 414759, Note_on_c, 9, 59, 56
5, 415361, Note_on_c, 9, 59, 0
5, 415743, Note_on_c, 9, 59, 52
5, 416296, Note_on_c, 9, 59, 0
5, 416511, Note_on_c, 9, 57, 0
5, 416656, Note_on_c, 9, 59, 49
5, 417362, Note_on_c, 9, 59, 0
5, 417600, Note_on_c, 9, 59, 46
5, 417741, Note_on_c, 9, 36, 0
5, 418127, Note_on_c, 9, 59, 0
5, 418286, Note_on_c, 9, 59, 37
5, 418492, Note_on_c, 9, 59, 0
5, 418586, Note_on_c, 9, 59, 31
5, 419255, Note_on_c, 9, 59, 0
5, 419521, Note_on_c, 9, 59, 47
5, 420082, Note_on_c, 9, 59, 0
5, 420503, Note_on_c, 9, 59, 45
5, 420681, Note_on_c, 9, 59, 0
5, 420775, Note_on_c, 9, 53, 37
5, 421122, Note_on_c, 9, 38, 10
5, 421219, Note_on_c, 9, 38, 0
5, 421416, Note_on_c, 9, 53, 0
5, 421527, Note_on_c, 9, 59, 58
5, 422038, Note_on_c, 9, 36, 20
5, 422201, Note_on_c, 9, 36, 0
5, 422274, Note_on_c, 9, 59, 0
5, 422383, Note_on_c, 9, 38, 9
5, 422443, Note_on_c, 9, 59, 41
5, 422859, Note_on_c, 9, 38, 0
5, 422992, Note_on_c, 9, 36, 10
5, 423120, Note_on_c, 9, 59, 0
5, 423151, Note_on_c, 9, 36, 0
5, 423373, Note_on_c, 9, 59, 44
5, 424000, Note_on_c, 9, 36, 9
5, 424072, Note_on_c, 9, 59, 0
5, 424184, Note_on_c, 9, 36, 0
5, 424347, Note_on_c, 9, 59, 40
5, 424553, Note_on_c, 9, 59, 0
5, 424662, Note_on_c, 9, 53, 40
5, 424958, Note_on_c, 9, 53, 0
5, 425432, Note_on_c, 9, 53, 20
5, 425927, Note_on_c, 9, 53, 0
5, 425957, Note_on_c, 9, 59, 56
5, 426849, Note_on_c, 9, 59, 0
5, 426960, Note_on_c, 9, 59, 40
5, 427095, Note_on_c, 9, 59, 0
5, 427252, Note_on_c, 9, 59, 58
5, 427887, Note_on_c, 9, 38, 14
5, 428002, Note_on_c, 9, 38, 0
5, 428007, Note_on_c, 9, 59, 0
5, 428165, Note_on_c, 9, 59, 47
5, 428789, Note_on_c, 9, 38, 14
5, 428817, Note_on_c, 9, 53, 42
5, 428843, Note_on_c, 9, 59, 0
5, 428950, Note_on_c, 9, 38, 0
5, 429042, Note_on_c, 9, 53, 0
5, 429158, Note_on_c, 9, 59, 22
5, 429587, Note_on_c, 9, 59, 0
5, 429718, Note_on_c, 9, 38, 11
5, 429812, Note_on_c, 9, 53, 35
5, 429930, Note_on_c, 9, 38, 0
5, 429953, Note_on_c, 9, 53, 0
5, 430076, Note_on_c, 9, 59, 39
5, 430796, Note_on_c, 9, 59, 0
5, 430997, Note_on_c, 9, 59, 35
5, 431587, Note_on_c, 9, 59, 0
5, 431767, Note_on_c, 9, 59, 50
5, 431896, Note_on_c, 9, 59, 0
5, 432054, Note_on_c, 9, 59, 50
5, 432801, Note_on_c, 9, 59, 0
5, 433004, Note_on_c, 9, 59, 52
5, 433560, Note_on_c, 9, 59, 0
5, 433729, Note_on_c, 9, 59, 32
5, 433890, Note_on_c, 9, 59, 0
5, 433988, Note_on_c, 9, 59, 33
5, 434670, Note_on_c, 9, 59, 0
5, 434902, Note_on_c, 9, 59, 55
5, 435594, Note_on_c, 9, 59, 0
5, 435888, Note_on_c, 9, 59, 52
5, 436491, Note_on_c, 9, 38, 7
5, 436540, Note_on_c, 9, 59, 0
5, 436553, Note_on_c, 9, 53, 38
5, 436714, Note_on_c, 9, 53, 0
5, 436731, Note_on_c, 9, 38, 0
5, 436836, Note_on_c, 9, 59, 38
5, 437395, Note_on_c, 9, 38, 17
5, 437470, Note_on_c, 9, 59, 0
5, 437666, Note_on_c, 9, 38, 0
5, 437751, Note_on_c, 9, 59, 52
5, 438373, Note_on_c, 9, 36, 17
5, 438424, Note_on_c, 9, 59, 0
5, 438600, Note_on_c, 9, 36, 0
5, 438707, Note_on_c, 9, 36, 9
5, 438718, Note_on_c, 9, 59, 52
5, 439325, Note_on_c, 9, 36, 0
5, 439394, Note_on_c, 9, 59, 0
5, 439685, Note_on_c, 9, 36, 15
5, 439719, Note_on_c, 9, 59, 55
5, 440343, Note_on_c, 9, 59, 0
5, 440388, Note_on_c, 9, 36, 0
5, 440699, Note_on_c, 9, 59, 53
5, 441227, Note_on_c, 9, 59, 0
5, 441332, Note_on_c, 9, 36, 11
5, 441392, Note_on_c, 9, 59, 45
5, 441555, Note_on_c, 9, 36, 0
5, 441568, Note_on_c, 9, 59, 0
5, 441681, Note_on_c, 9, 36, 4
5, 441694, Note_on_c, 9, 59, 47
5, 442281, Note_on_c, 9, 36, 0
5, 442335, Note_on_c, 9, 59, 0
5, 442612, Note_on_c, 9, 59, 59
5, 443210, Note_on_c, 9, 59, 0
5, 443313, Note_on_c, 9, 36, 8
5, 443345, Note_on_c, 9, 59, 44
5, 443523, Note_on_c, 9, 59, 0
5, 443645, Note_on_c, 9, 59, 61
5, 444280, Note_on_c, 9, 36, 0
5, 444314, Note_on_c, 9, 59, 0
5, 444588, Note_on_c, 9, 59, 60
5, 445116, Note_on_c, 9, 59, 0
5, 445292, Note_on_c, 9, 59, 44
5, 445493, Note_on_c, 9, 59, 0
5, 445572, Note_on_c, 9, 59, 45
5, 445603, Note_on_c, 9, 36, 11
5, 446018, Note_on_c, 9, 36, 0
5, 446162, Note_on_c, 9, 59, 0
5, 446271, Note_on_c, 9, 38, 14
5, 446484, Note_on_c, 9, 59, 65
5, 446535, Note_on_c, 9, 38, 0
5, 447058, Note_on_c, 9, 59, 0
5, 447206, Note_on_c, 9, 59, 38
5, 447283, Note_on_c, 9, 38, 7
5, 447360, Note_on_c, 9, 59, 0
5, 447489, Note_on_c, 9, 59, 52
5, 447504, Note_on_c, 9, 38, 0
5, 447796, Note_on_c, 9, 38, 14
5, 448152, Note_on_c, 9, 38, 0
5, 448192, Note_on_c, 9, 59, 0
5, 448407, Note_on_c, 9, 59, 57
5, 448407, Note_on_c, 9, 38, 14
5, 448728, Note_on_c, 9, 38, 0
5, 448951, Note_on_c, 9, 59, 0
5, 449078, Note_on_c, 9, 36, 23
5, 449138, Note_on_c, 9, 59, 42
5, 449271, Note_on_c, 9, 59, 0
5, 449412, Note_on_c, 9, 59, 56
5, 449460, Note_on_c, 9, 36, 0
5, 450021, Note_on_c, 9, 59, 0
5, 450336, Note_on_c, 9, 59, 65
5, 450864, Note_on_c, 9, 59, 0
5, 451076, Note_on_c, 9, 59, 37
5, 451166, Note_on_c, 9, 38, 9
5, 451183, Note_on_c, 9, 59, 0
5, 451265, Note_on_c, 9, 38, 0
5, 451325, Note_on_c, 9, 59, 61
5, 451981, Note_on_c, 9, 38, 12
5, 452032, Note_on_c, 9, 59, 0
5, 452077, Note_on_c, 9, 38, 0
5, 452247, Note_on_c, 9, 59, 58
5, 452755, Note_on_c, 9, 59, 0
5, 452881, Note_on_c, 9, 59, 70
5, 452933, Note_on_c, 9, 36, 23
5, 453089, Note_on_c, 9, 59, 0
5, 453154, Note_on_c, 9, 36, 0
5, 453351, Note_on_c, 9, 36, 12
5, 453548, Note_on_c, 9, 36, 0
5, 453795, Note_on_c, 9, 59, 62
5, 453960, Note_on_c, 9, 59, 0
5, 455167, Note_on_c, 9, 59, 48
5, 455484, Note_on_c, 9, 59, 0
5, 456620, Note_on_c, 9, 59, 40
5, 459706, Note_on_c, 9, 38, 21
5, 459886, Note_on_c, 9, 38, 0
5, 460514, Note_on_c, 9, 38, 17
5, 460816, Note_on_c, 9, 38, 0
5, 460953, Note_on_c, 9, 59, 0
5, 461449, Note_on_c, 9, 59, 36
5, 461481, Note_on_c, 9, 38, 18
5, 461597, Note_on_c, 9, 59, 0
5, 461743, Note_on_c, 9, 38, 0
5, 461841, Note_on_c, 9, 59, 14
5, 461903, Note_on_c, 9, 36, 8
5, 461946, Note_on_c, 9, 59, 0
5, 462356, Note_on_c, 9, 36, 0
5, 462763, Note_on_c, 9, 59, 53
5, 462894, Note_on_c, 9, 36, 15
5, 463020, Note_on_c, 9, 59, 0
5, 463415, Note_on_c, 9, 36, 0
5, 463447, Note_on_c, 9, 59, 32
5, 463561, Note_on_c, 9, 59, 0
5, 464303, Note_on_c, 9, 36, 20
5, 464377, Note_on_c, 9, 59, 59
5, 464560, Note_on_c, 9, 59, 0
5, 465029, Note_on_c, 9, 36, 0
5, 467216, Note_on_c, 9, 53, 28
5, 467334, Note_on_c, 9, 53, 0
5, 467561, Note_on_c, 9, 53, 27
5, 467709, Note_on_c, 9, 53, 0
5, 468027, Note_on_c, 9, 36, 12
5, 468183, Note_on_c, 9, 53, 27
5, 468303, Note_on_c, 9, 36, 0
5, 468333, Note_on_c, 9, 53, 0
5, 468453, Note_on_c, 9, 36, 20
5, 468726, Note_on_c, 9, 36, 0
5, 469094, Note_on_c, 9, 59, 37
5, 469116, Note_on_c, 9, 36, 20
5, 469191, Note_on_c, 9, 59, 0
5, 469352, Note_on_c, 9, 36, 0
5, 470490, Note_on_c, 9, 59, 49
5, 470529, Note_on_c, 9, 36, 3
5, 470649, Note_on_c, 9, 59, 0
5, 470807, Note_on_c, 9, 36, 0
5, 472019, Note_on_c, 9, 59, 48
5, 472984, Note_on_c, 9, 38, 15
5, 473104, Note_on_c, 9, 38, 0
5, 474259, Note_on_c, 9, 38, 14
5, 474547, Note_on_c, 9, 38, 0
5, 475282, Note_on_c, 9, 59, 0
5, 475766, Note_on_c, 9, 38, 11
5, 475816, Note_on_c, 9, 59, 18
5, 475914, Note_on_c, 9, 38, 0
5, 476000, Note_on_c, 9, 59, 0
5, 476212, Note_on_c, 9, 36, 9
5, 476453, Note_on_c, 9, 36, 0
5, 476834, Note_on_c, 9, 38, 14
5, 476851, Note_on_c, 9, 53, 29
5, 476931, Note_on_c, 9, 38, 0
5, 476952, Note_on_c, 9, 53, 0
5, 477184, Note_on_c, 9, 59, 48
5, 477387, Note_on_c, 9, 59, 0
5, 478112, Note_on_c, 9, 38, 12
5, 478176, Note_on_c, 9, 59, 55
5, 478275, Note_on_c, 9, 38, 0
5, 478479, Note_on_c, 9, 59, 0
5, 479711, Note_on_c, 9, 59, 58
5, 479729, Note_on_c, 9, 57, 2
5, 479750, Note_on_c, 9, 36, 13
5, 482409, Note_on_c, 9, 57, 0
5, 483768, Note_on_c, 9, 36, 0
5, 488879, Note_on_c, 9, 59, 0
5, 488879, End_track
6, 0, Start_track
6, 0, Title_t, "HiHat"
6, 0, Control_c, 9, 0, 0
6, 0, Control_c, 9, 7, 83
6, 1, Program_c, 9, 0
6, 162262, Note_on_c, 9, 44, 42
6, 162967, Note_on_c, 9, 44, 0
6, 164194, Note_on_c, 9, 44, 44
6, 164588, Note_on_c, 9, 44, 0
6, 166059, Note_on_c, 9, 44, 46
6, 166353, Note_on_c, 9, 44, 0
6, 167993, Note_on_c, 9, 46, 45
6, 169268, Note_on_c, 9, 46, 0
6, 169884, Note_on_c, 9, 44, 35
6, 170422, Note_on_c, 9, 44, 0
6, 171822, Note_on_c, 9, 44, 34
6, 172508, Note_on_c, 9, 44, 0
6, 173803, Note_on_c, 9, 44, 34
6, 174125, Note_on_c, 9, 44, 0
6, 175713, Note_on_c, 9, 44, 37
6, 176116, Note_on_c, 9, 44, 0
6, 177589, Note_on_c, 9, 44, 37
6, 177954, Note_on_c, 9, 44, 0
6, 179497, Note_on_c, 9, 44, 37
6, 179838, Note_on_c, 9, 44, 0
6, 181519, Note_on_c, 9, 44, 42
6, 181834, Note_on_c, 9, 44, 0
6, 183444, Note_on_c, 9, 44, 36
6, 183755, Note_on_c, 9, 44, 0
6, 185295, Note_on_c, 9, 46, 36
6, 185659, Note_on_c, 9, 46, 0
6, 187173, Note_on_c, 9, 44, 38
6, 187509, Note_on_c, 9, 44, 0
6, 189178, Note_on_c, 9, 44, 39
6, 189491, Note_on_c, 9, 44, 0
6, 191028, Note_on_c, 9, 46, 37
6, 191761, Note_on_c, 9, 46, 0
6, 192985, Note_on_c, 9, 44, 39
6, 193358, Note_on_c, 9, 44, 0
6, 194810, Note_on_c, 9, 44, 43
6, 195129, Note_on_c, 9, 44, 0
6, 196746, Note_on_c, 9, 44, 37
6, 197063, Note_on_c, 9, 44, 0
6, 198660, Note_on_c, 9, 46, 45
6, 199430, Note_on_c, 9, 46, 0
6, 200573, Note_on_c, 9, 44, 34
6, 200942, Note_on_c, 9, 44, 0
6, 202533, Note_on_c, 9, 44, 30
6, 202921, Note_on_c, 9, 44, 0
6, 204439, Note_on_c, 9, 44, 34
6, 204812, Note_on_c, 9, 44, 0
6, 206364, Note_on_c, 9, 44, 23
6, 206722, Note_on_c, 9, 44, 0
6, 208276, Note_on_c, 9, 44, 36
6, 208604, Note_on_c, 9, 44, 0
6, 210208, Note_on_c, 9, 44, 56
6, 210528, Note_on_c, 9, 44, 0
6, 212168, Note_on_c, 9, 44, 48
6, 212524, Note_on_c, 9, 44, 0
6, 214076, Note_on_c, 9, 44, 45
6, 214432, Note_on_c, 9, 44, 0
6, 216001, Note_on_c, 9, 46, 33
6, 216252, Note_on_c, 9, 46, 0
6, 217892, Note_on_c, 9, 44, 42
6, 218214, Note_on_c, 9, 44, 0
6, 219811, Note_on_c, 9, 46, 37
6, 220184, Note_on_c, 9, 46, 0
6, 221728, Note_on_c, 9, 44, 38
6, 222024, Note_on_c, 9, 44, 0
6, 223677, Note_on_c, 9, 44, 40
6, 223897, Note_on_c, 9, 44, 0
6, 225598, Note_on_c, 9, 44, 33
6, 225889, Note_on_c, 9, 44, 0
6, 227510, Note_on_c, 9, 44, 43
6, 227872, Note_on_c, 9, 44, 0
6, 229450, Note_on_c, 9, 44, 39
6, 229798, Note_on_c, 9, 44, 0
6, 231414, Note_on_c, 9, 44, 37
6, 231639, Note_on_c, 9, 44, 0
6, 233295, Note_on_c, 9, 44, 63
6, 233674, Note_on_c, 9, 44, 0
6, 235203, Note_on_c, 9, 44, 31
6, 235456, Note_on_c, 9, 44, 0
6, 237075, Note_on_c, 9, 44, 34
6, 237358, Note_on_c, 9, 44, 0
6, 238948, Note_on_c, 9, 44, 35
6, 239219, Note_on_c, 9, 44, 0
6, 240964, Note_on_c, 9, 44, 36
6, 241238, Note_on_c, 9, 44, 0
6, 242880, Note_on_c, 9, 44, 35
6, 243221, Note_on_c, 9, 44, 0
6, 244769, Note_on_c, 9, 44, 30
6, 245050, Note_on_c, 9, 44, 0
6, 246671, Note_on_c, 9, 44, 35
6, 247008, Note_on_c, 9, 44, 0
6, 248594, Note_on_c, 9, 44, 47
6, 248856, Note_on_c, 9, 44, 0
6, 250586, Note_on_c, 9, 44, 46
6, 250826, Note_on_c, 9, 44, 0
6, 252398, Note_on_c, 9, 46, 50
6, 252730, Note_on_c, 9, 46, 0
6, 254338, Note_on_c, 9, 44, 38
6, 254604, Note_on_c, 9, 44, 0
6, 256246, Note_on_c, 9, 44, 37
6, 256495, Note_on_c, 9, 44, 0
6, 258210, Note_on_c, 9, 44, 39
6, 258474, Note_on_c, 9, 44, 0
6, 260110, Note_on_c, 9, 46, 39
6, 260371, Note_on_c, 9, 46, 0
6, 262022, Note_on_c, 9, 44, 46
6, 262307, Note_on_c, 9, 44, 0
6, 263930, Note_on_c, 9, 44, 42
6, 264173, Note_on_c, 9, 44, 0
6, 265877, Note_on_c, 9, 46, 48
6, 266171, Note_on_c, 9, 46, 0
6, 267839, Note_on_c, 9, 44, 51
6, 268109, Note_on_c, 9, 44, 0
6, 269715, Note_on_c, 9, 44, 39
6, 269983, Note_on_c, 9, 44, 0
6, 271597, Note_on_c, 9, 44, 44
6, 271852, Note_on_c, 9, 44, 0
6, 273516, Note_on_c, 9, 44, 43
6, 273728, Note_on_c, 9, 44, 0
6, 275431, Note_on_c, 9, 44, 53
6, 275759, Note_on_c, 9, 44, 0
6, 277465, Note_on_c, 9, 44, 44
6, 277710, Note_on_c, 9, 44, 0
6, 279361, Note_on_c, 9, 46, 37
6, 279742, Note_on_c, 9, 46, 0
6, 281275, Note_on_c, 9, 44, 47
6, 281640, Note_on_c, 9, 44, 0
6, 283201, Note_on_c, 9, 44, 39
6, 283586, Note_on_c, 9, 44, 0
6, 285122, Note_on_c, 9, 44, 38
6, 285520, Note_on_c, 9, 44, 0
6, 287079, Note_on_c, 9, 44, 39
6, 287353, Note_on_c, 9, 44, 0
6, 288921, Note_on_c, 9, 44, 40
6, 289206, Note_on_c, 9, 44, 0
6, 290827, Note_on_c, 9, 46, 37
6, 291174, Note_on_c, 9, 46, 0
6, 292739, Note_on_c, 9, 44, 46
6, 293084, Note_on_c, 9, 44, 0
6, 294630, Note_on_c, 9, 44, 35
6, 294988, Note_on_c, 9, 44, 0
6, 296616, Note_on_c, 9, 44, 33
6, 296918, Note_on_c, 9, 44, 0
6, 300432, Note_on_c, 9, 44, 37
6, 300779, Note_on_c, 9, 44, 0
6, 302381, Note_on_c, 9, 44, 30
6, 302687, Note_on_c, 9, 44, 0
6, 304295, Note_on_c, 9, 44, 33
6, 304600, Note_on_c, 9, 44, 0
6, 306201, Note_on_c, 9, 44, 36
6, 306487, Note_on_c, 9, 44, 0
6, 308125, Note_on_c, 9, 44, 31
6, 308442, Note_on_c, 9, 44, 0
6, 310071, Note_on_c, 9, 44, 38
6, 310348, Note_on_c, 9, 44, 0
6, 311975, Note_on_c, 9, 46, 36
6, 312717, Note_on_c, 9, 46, 0
6, 313828, Note_on_c, 9, 44, 42
6, 314102, Note_on_c, 9, 44, 0
6, 317777, Note_on_c, 9, 44, 36
6, 318058, Note_on_c, 9, 44, 0
6, 319683, Note_on_c, 9, 44, 40
6, 319878, Note_on_c, 9, 44, 0
6, 321597, Note_on_c, 9, 46, 54
6, 321863, Note_on_c, 9, 46, 0
6, 323491, Note_on_c, 9, 44, 57
6, 324203, Note_on_c, 9, 44, 0
6, 325384, Note_on_c, 9, 44, 37
6, 325716, Note_on_c, 9, 44, 0
6, 327305, Note_on_c, 9, 44, 33
6, 327635, Note_on_c, 9, 44, 0
6, 329226, Note_on_c, 9, 44, 35
6, 329659, Note_on_c, 9, 44, 0
6, 331160, Note_on_c, 9, 44, 35
6, 331604, Note_on_c, 9, 44, 0
6, 333134, Note_on_c, 9, 44, 37
6, 333578, Note_on_c, 9, 44, 0
6, 335038, Note_on_c, 9, 44, 39
6, 335473, Note_on_c, 9, 44, 0
6, 336936, Note_on_c, 9, 44, 37
6, 337287, Note_on_c, 9, 44, 0
6, 338891, Note_on_c, 9, 44, 35
6, 339142, Note_on_c, 9, 44, 0
6, 340786, Note_on_c, 9, 46, 33
6, 341301, Note_on_c, 9, 46, 0
6, 342679, Note_on_c, 9, 44, 36
6, 343215, Note_on_c, 9, 44, 0
6, 344630, Note_on_c, 9, 44, 43
6, 345297, Note_on_c, 9, 44, 0
6, 348470, Note_on_c, 9, 44, 50
6, 348863, Note_on_c, 9, 44, 0
6, 350398, Note_on_c, 9, 46, 35
6, 351108, Note_on_c, 9, 46, 0
6, 352276, Note_on_c, 9, 44, 44
6, 352763, Note_on_c, 9, 44, 0
6, 354218, Note_on_c, 9, 44, 37
6, 354598, Note_on_c, 9, 44, 0
6, 356099, Note_on_c, 9, 44, 46
6, 356504, Note_on_c, 9, 44, 0
6, 358028, Note_on_c, 9, 44, 46
6, 358369, Note_on_c, 9, 44, 0
6, 359969, Note_on_c, 9, 44, 47
6, 360425, Note_on_c, 9, 44, 0
6, 361939, Note_on_c, 9, 44, 37
6, 362338, Note_on_c, 9, 44, 0
6, 363841, Note_on_c, 9, 44, 44
6, 364186, Note_on_c, 9, 44, 0
6, 365809, Note_on_c, 9, 44, 42
6, 366216, Note_on_c, 9, 44, 0
6, 367702, Note_on_c, 9, 44, 51
6, 368088, Note_on_c, 9, 44, 0
6, 369612, Note_on_c, 9, 44, 56
6, 369955, Note_on_c, 9, 44, 0
6, 371531, Note_on_c, 9, 44, 57
6, 372061, Note_on_c, 9, 44, 0
6, 373495, Note_on_c, 9, 44, 52
6, 373943, Note_on_c, 9, 44, 0
6, 375363, Note_on_c, 9, 44, 51
6, 375796, Note_on_c, 9, 44, 0
6, 377311, Note_on_c, 9, 44, 51
6, 377772, Note_on_c, 9, 44, 0
6, 379235, Note_on_c, 9, 44, 49
6, 379582, Note_on_c, 9, 44, 0
6, 381156, Note_on_c, 9, 46, 46
6, 381518, Note_on_c, 9, 46, 0
6, 383066, Note_on_c, 9, 44, 50
6, 383390, Note_on_c, 9, 44, 0
6, 385002, Note_on_c, 9, 44, 42
6, 385386, Note_on_c, 9, 44, 0
6, 386822, Note_on_c, 9, 44, 46
6, 387213, Note_on_c, 9, 44, 0
6, 388758, Note_on_c, 9, 44, 47
6, 389091, Note_on_c, 9, 44, 0
6, 390701, Note_on_c, 9, 44, 46
6, 390997, Note_on_c, 9, 44, 0
6, 392633, Note_on_c, 9, 44, 39
6, 392907, Note_on_c, 9, 44, 0
6, 394581, Note_on_c, 9, 44, 47
6, 394937, Note_on_c, 9, 44, 0
6, 396507, Note_on_c, 9, 44, 47
6, 396820, Note_on_c, 9, 44, 0
6, 398372, Note_on_c, 9, 44, 46
6, 398717, Note_on_c, 9, 44, 0
6, 400280, Note_on_c, 9, 44, 40
6, 400634, Note_on_c, 9, 44, 0
6, 401292, Note_on_c, 9, 44, 20
6, 401687, Note_on_c, 9, 44, 0
6, 402227, Note_on_c, 9, 44, 34
6, 402771, Note_on_c, 9, 44, 0
6, 403215, Note_on_c, 9, 44, 27
6, 403651, Note_on_c, 9, 44, 0
6, 404139, Note_on_c, 9, 44, 36
6, 404665, Note_on_c, 9, 44, 0
6, 405100, Note_on_c, 9, 44, 25
6, 405574, Note_on_c, 9, 44, 0
6, 406088, Note_on_c, 9, 44, 52
6, 406614, Note_on_c, 9, 44, 0
6, 406997, Note_on_c, 9, 44, 36
6, 407649, Note_on_c, 9, 44, 0
6, 407951, Note_on_c, 9, 44, 49
6, 408552, Note_on_c, 9, 44, 0
6, 408918, Note_on_c, 9, 44, 28
6, 409469, Note_on_c, 9, 44, 0
6, 409870, Note_on_c, 9, 44, 56
6, 410395, Note_on_c, 9, 44, 0
6, 410854, Note_on_c, 9, 44, 35
6, 411245, Note_on_c, 9, 44, 0
6, 411802, Note_on_c, 9, 44, 59
6, 412332, Note_on_c, 9, 44, 0
6, 412780, Note_on_c, 9, 44, 32
6, 413303, Note_on_c, 9, 44, 0
6, 413751, Note_on_c, 9, 46, 51
6, 414287, Note_on_c, 9, 46, 0
6, 415618, Note_on_c, 9, 44, 42
6, 416041, Note_on_c, 9, 44, 0
6, 417473, Note_on_c, 9, 44, 37
6, 417876, Note_on_c, 9, 44, 0
6, 419486, Note_on_c, 9, 44, 28
6, 419857, Note_on_c, 9, 44, 0
6, 421347, Note_on_c, 9, 44, 45
6, 421845, Note_on_c, 9, 44, 0
6, 423320, Note_on_c, 9, 44, 37
6, 423753, Note_on_c, 9, 44, 0
6, 425217, Note_on_c, 9, 44, 42
6, 425541, Note_on_c, 9, 44, 0
6, 427194, Note_on_c, 9, 44, 34
6, 427590, Note_on_c, 9, 44, 0
6, 429119, Note_on_c, 9, 46, 36
6, 429614, Note_on_c, 9, 46, 0
6, 430991, Note_on_c, 9, 44, 35
6, 431375, Note_on_c, 9, 44, 0
6, 432905, Note_on_c, 9, 44, 40
6, 433246, Note_on_c, 9, 44, 0
6, 434899, Note_on_c, 9, 44, 40
6, 435375, Note_on_c, 9, 44, 0
6, 436872, Note_on_c, 9, 44, 47
6, 437251, Note_on_c, 9, 44, 0
6, 438733, Note_on_c, 9, 44, 38
6, 439142, Note_on_c, 9, 44, 0
6, 440637, Note_on_c, 9, 44, 42
6, 441061, Note_on_c, 9, 44, 0
6, 442586, Note_on_c, 9, 44, 42
6, 443040, Note_on_c, 9, 44, 0
6, 444573, Note_on_c, 9, 44, 40
6, 444968, Note_on_c, 9, 44, 0
6, 446501, Note_on_c, 9, 46, 45
6, 446803, Note_on_c, 9, 46, 0
6, 448385, Note_on_c, 9, 44, 43
6, 448724, Note_on_c, 9, 44, 0
6, 450306, Note_on_c, 9, 46, 37
6, 450892, Note_on_c, 9, 46, 0
6, 452193, Note_on_c, 9, 44, 46
6, 452521, Note_on_c, 9, 44, 0
6, 454103, Note_on_c, 9, 44, 46
6, 454322, Note_on_c, 9, 44, 0
6, 456028, Note_on_c, 9, 44, 35
6, 456271, Note_on_c, 9, 44, 0
6, 457954, Note_on_c, 9, 44, 25
6, 458252, Note_on_c, 9, 44, 0
6, 461712, Note_on_c, 9, 44, 35
6, 462021, Note_on_c, 9, 44, 0
6, 463691, Note_on_c, 9, 44, 35
6, 464013, Note_on_c, 9, 44, 0
6, 469364, Note_on_c, 9, 44, 34
6, 469692, Note_on_c, 9, 44, 0
6, 471373, Note_on_c, 9, 46, 32
6, 471609, Note_on_c, 9, 46, 0
6, 473213, Note_on_c, 9, 44, 35
6, 473676, Note_on_c, 9, 44, 0
6, 477102, Note_on_c, 9, 44, 37
6, 477329, Note_on_c, 9, 44, 0
6, 479057, Note_on_c, 9, 44, 34
6, 479233, Note_on_c, 9, 44, 0
6, 479872, Note_on_c, 9, 46, 30
6, 481038, Note_on_c, 9, 46, 0
6, 481038, End_track
0, 0, End_of_file
