0, 0, Header, 1, 7, 960
1, 0, Start_track
1, 0, Title_t, "On Green Dolphin St"
1, 0, Text_t, "dougmck@pipeline.com.au  \012"
1, 0, Text_t, " Usually played either in C or Eb - I have modulated fairly freely between these (and Gb) in the introduction before playing in tempo and staying in Eb. The First 8 Bars are often thought of as 'slash' chords - a series of triads over, in this case Eb Ba\012"
1, 0, Time_signature, 4, 2, 24, 8
1, 0, Key_signature, -3, "major"
1, 0, Tempo, 285714
1, 4163, Marker_t, "Last 16 bars of the song played freely"
1, 31285, Marker_t, "Black note glissando with sus pedal down on GbMaj7/Eb"
1, 135148, Marker_t, "Modulating from Eb to C "
1, 151015, Marker_t, "G13"
1, 157440, Marker_t, "Becomes G phrygian (i.e. an Eb scale is used over a G bass note)"
1, 194751, Marker_t, "Diatonic chords from Eb Major over G Bass (i.e. G phrygian) - note no accidentals."
1, 295680, Marker_t, "Abrupt change to C Major (Lydian)"
1, 309367, Marker_t, "E Phrygian"
1, 339155, Marker_t, "Abruptly to Gb Lydian"
1, 375618, Marker_t, "To Bb7sus"
1, 396166, Marker_t, "To Bb7b9"
1, 402692, Marker_t, "Left H plays Ab and Bb, R Hand plays B,D,E,G"
1, 410880, Marker_t, "Trio starts - I tried to play in the style of Chick Corea/Keith Jarrett trios with lots of space"
1, 414720, Marker_t, "On bars 1-7 and bars 17-21 I mainly thought of triads with neighbour tones."
1, 422400, Marker_t, "Gb/Eb - triad arpeggio with some neighbour tones"
1, 426240, Marker_t, "F/Eb  - F triad used"
1, 430117, Marker_t, "E/F"
1, 433966, Marker_t, "Eb - simple triad with neighbour/or passing tones."
1, 454496, Marker_t, "Anticipates key change to Gb coming in next bar"
1, 455922, Marker_t, "Up Gb Scale in rhythm based on 16th triplets."
1, 467446, Marker_t, "One note repeated in some sort of rhythm"
1, 472329, Marker_t, "More little melodic figures based on triads (Eb)"
1, 514560, Marker_t, "Scale fragment played in thirds - over Am7b5 D7alt"
1, 533760, Marker_t, "More melodic figures based on  triads"
1, 542880, Marker_t, "Playing very lightly - no pedalling"
1, 597812, Marker_t, "On Eb a little repeating figure on 5th and lower neighbour is developed with another tone above that changes as the chords change"
1, 602898, Marker_t, "G is lowered to Gb in figure"
1, 611065, Marker_t, "Lower note A is 3rd of F"
1, 656723, Marker_t, "A new melodic figure also based on triads"
1, 662160, Marker_t, "Figure is developed with notes changed to fit the new triads as trhey arrive"
1, 875206, Marker_t, "On Dm7b5 fast Eb scale up to G as target tone arriving right on beat 3 for the G7 chord"
1, 933055, Marker_t, "Very rapid downward arpeggiated chords"
1, 933055, End_track
2, 0, Start_track
2, 0, Title_t, "Bass"
2, 0, Program_c, 1, 33
2, 0, Control_c, 1, 7, 98
2, 0, Control_c, 1, 10, 63
2, 410880, Note_on_c, 1, 39, 97
2, 412380, Note_on_c, 1, 46, 88
2, 413779, Note_on_c, 1, 55, 101
2, 416089, Note_on_c, 1, 46, 0
2, 417628, Note_on_c, 1, 46, 92
2, 417884, Note_on_c, 1, 46, 0
2, 417978, Note_on_c, 1, 39, 0
2, 418630, Note_on_c, 1, 39, 101
2, 420995, Note_on_c, 1, 55, 0
2, 421555, Note_on_c, 1, 58, 101
2, 422921, Note_on_c, 1, 46, 73
2, 423030, Note_on_c, 1, 46, 0
2, 423971, Note_on_c, 1, 46, 91
2, 424080, Note_on_c, 1, 46, 0
2, 424156, Note_on_c, 1, 39, 0
2, 424294, Note_on_c, 1, 58, 0
2, 424432, Note_on_c, 1, 54, 96
2, 425433, Note_on_c, 1, 49, 96
2, 426316, Note_on_c, 1, 39, 90
2, 427107, Note_on_c, 1, 49, 0
2, 427222, Note_on_c, 1, 48, 88
2, 427334, Note_on_c, 1, 54, 0
2, 428649, Note_on_c, 1, 48, 0
2, 428784, Note_on_c, 1, 57, 101
2, 430707, Note_on_c, 1, 45, 77
2, 430784, Note_on_c, 1, 57, 0
2, 430851, Note_on_c, 1, 45, 0
2, 430908, Note_on_c, 1, 39, 0
2, 431024, Note_on_c, 1, 56, 101
2, 432393, Note_on_c, 1, 56, 0
2, 432464, Note_on_c, 1, 52, 99
2, 432665, Note_on_c, 1, 52, 0
2, 432873, Note_on_c, 1, 39, 95
2, 433734, Note_on_c, 1, 39, 0
2, 433939, Note_on_c, 1, 39, 101
2, 435897, Note_on_c, 1, 39, 0
2, 435936, Note_on_c, 1, 46, 80
2, 436051, Note_on_c, 1, 46, 0
2, 436857, Note_on_c, 1, 38, 96
2, 437100, Note_on_c, 1, 38, 0
2, 437558, Note_on_c, 1, 37, 101
2, 437820, Note_on_c, 1, 37, 0
2, 438003, Note_on_c, 1, 36, 80
2, 439427, Note_on_c, 1, 36, 0
2, 439820, Note_on_c, 1, 36, 97
2, 440195, Note_on_c, 1, 36, 0
2, 440713, Note_on_c, 1, 30, 97
2, 441260, Note_on_c, 1, 30, 0
2, 441321, Note_on_c, 1, 29, 97
2, 443219, Note_on_c, 1, 34, 88
2, 443347, Note_on_c, 1, 29, 0
2, 443443, Note_on_c, 1, 34, 0
2, 443616, Note_on_c, 1, 36, 96
2, 444940, Note_on_c, 1, 36, 0
2, 445091, Note_on_c, 1, 34, 92
2, 448380, Note_on_c, 1, 50, 101
2, 448515, Note_on_c, 1, 34, 0
2, 449833, Note_on_c, 1, 50, 0
2, 449964, Note_on_c, 1, 39, 101
2, 451280, Note_on_c, 1, 55, 101
2, 453036, Note_on_c, 1, 55, 0
2, 453155, Note_on_c, 1, 51, 88
2, 453504, Note_on_c, 1, 51, 0
2, 454108, Note_on_c, 1, 48, 100
2, 454659, Note_on_c, 1, 48, 0
2, 455104, Note_on_c, 1, 47, 87
2, 455206, Note_on_c, 1, 39, 0
2, 455574, Note_on_c, 1, 47, 0
2, 456096, Note_on_c, 1, 46, 96
2, 456473, Note_on_c, 1, 46, 0
2, 456694, Note_on_c, 1, 45, 99
2, 456985, Note_on_c, 1, 45, 0
2, 457088, Note_on_c, 1, 44, 95
2, 460851, Note_on_c, 1, 44, 0
2, 460909, Note_on_c, 1, 39, 96
2, 462364, Note_on_c, 1, 37, 98
2, 462441, Note_on_c, 1, 39, 0
2, 465452, Note_on_c, 1, 37, 0
2, 465606, Note_on_c, 1, 30, 101
2, 467225, Note_on_c, 1, 37, 101
2, 467491, Note_on_c, 1, 30, 0
2, 470374, Note_on_c, 1, 37, 0
2, 470397, Note_on_c, 1, 56, 100
2, 470697, Note_on_c, 1, 56, 0
2, 471347, Note_on_c, 1, 38, 91
2, 471603, Note_on_c, 1, 38, 0
2, 472329, Note_on_c, 1, 39, 101
2, 475142, Note_on_c, 1, 46, 81
2, 475500, Note_on_c, 1, 46, 0
2, 475840, Note_on_c, 1, 55, 100
2, 477660, Note_on_c, 1, 46, 84
2, 477788, Note_on_c, 1, 39, 0
2, 477939, Note_on_c, 1, 46, 0
2, 478012, Note_on_c, 1, 39, 99
2, 478915, Note_on_c, 1, 39, 0
2, 479113, Note_on_c, 1, 39, 101
2, 479168, Note_on_c, 1, 55, 0
2, 480083, Note_on_c, 1, 58, 101
2, 481635, Note_on_c, 1, 54, 99
2, 481664, Note_on_c, 1, 58, 0
2, 483548, Note_on_c, 1, 46, 75
2, 483667, Note_on_c, 1, 46, 0
2, 483910, Note_on_c, 1, 49, 99
2, 484425, Note_on_c, 1, 49, 0
2, 484883, Note_on_c, 1, 49, 100
2, 486009, Note_on_c, 1, 39, 0
2, 486508, Note_on_c, 1, 39, 101
2, 486652, Note_on_c, 1, 49, 0
2, 486953, Note_on_c, 1, 54, 0
2, 488537, Note_on_c, 1, 57, 101
2, 490086, Note_on_c, 1, 57, 0
2, 490137, Note_on_c, 1, 53, 101
2, 490451, Note_on_c, 1, 53, 0
2, 490566, Note_on_c, 1, 48, 96
2, 490889, Note_on_c, 1, 39, 0
2, 491331, Note_on_c, 1, 48, 0
2, 491500, Note_on_c, 1, 56, 101
2, 492499, Note_on_c, 1, 52, 97
2, 492854, Note_on_c, 1, 52, 0
2, 493001, Note_on_c, 1, 56, 0
2, 493398, Note_on_c, 1, 47, 86
2, 494192, Note_on_c, 1, 47, 0
2, 494380, Note_on_c, 1, 39, 95
2, 497334, Note_on_c, 1, 51, 93
2, 498156, Note_on_c, 1, 39, 0
2, 499808, Note_on_c, 1, 38, 93
2, 500089, Note_on_c, 1, 38, 0
2, 500214, Note_on_c, 1, 37, 99
2, 500713, Note_on_c, 1, 51, 0
2, 501014, Note_on_c, 1, 37, 0
2, 501209, Note_on_c, 1, 36, 91
2, 501728, Note_on_c, 1, 36, 0
2, 502064, Note_on_c, 1, 42, 101
2, 502947, Note_on_c, 1, 42, 0
2, 503126, Note_on_c, 1, 41, 93
2, 504960, Note_on_c, 1, 41, 0
2, 504979, Note_on_c, 1, 39, 94
2, 506422, Note_on_c, 1, 37, 79
2, 506621, Note_on_c, 1, 39, 0
2, 506710, Note_on_c, 1, 37, 0
2, 506806, Note_on_c, 1, 38, 88
2, 507500, Note_on_c, 1, 38, 0
2, 507721, Note_on_c, 1, 32, 91
2, 508560, Note_on_c, 1, 32, 0
2, 508707, Note_on_c, 1, 31, 86
2, 509628, Note_on_c, 1, 31, 0
2, 509638, Note_on_c, 1, 37, 88
2, 510460, Note_on_c, 1, 37, 0
2, 510736, Note_on_c, 1, 36, 88
2, 512668, Note_on_c, 1, 34, 96
2, 512710, Note_on_c, 1, 36, 0
2, 514118, Note_on_c, 1, 32, 76
2, 514236, Note_on_c, 1, 34, 0
2, 514441, Note_on_c, 1, 32, 0
2, 514550, Note_on_c, 1, 33, 84
2, 514883, Note_on_c, 1, 33, 0
2, 515481, Note_on_c, 1, 39, 101
2, 515788, Note_on_c, 1, 39, 0
2, 516982, Note_on_c, 1, 38, 101
2, 517353, Note_on_c, 1, 38, 0
2, 517395, Note_on_c, 1, 32, 91
2, 518259, Note_on_c, 1, 32, 0
2, 518428, Note_on_c, 1, 31, 101
2, 520256, Note_on_c, 1, 31, 0
2, 520467, Note_on_c, 1, 36, 101
2, 522416, Note_on_c, 1, 41, 101
2, 522480, Note_on_c, 1, 36, 0
2, 527158, Note_on_c, 1, 34, 101
2, 527248, Note_on_c, 1, 41, 0
2, 528992, Note_on_c, 1, 46, 101
2, 529254, Note_on_c, 1, 34, 0
2, 530864, Note_on_c, 1, 34, 101
2, 531126, Note_on_c, 1, 46, 0
2, 531142, Note_on_c, 1, 34, 0
2, 531881, Note_on_c, 1, 34, 98
2, 532220, Note_on_c, 1, 34, 0
2, 532806, Note_on_c, 1, 34, 97
2, 533212, Note_on_c, 1, 34, 0
2, 533760, Note_on_c, 1, 39, 88
2, 536649, Note_on_c, 1, 51, 101
2, 537718, Note_on_c, 1, 39, 0
2, 538230, Note_on_c, 1, 39, 98
2, 539203, Note_on_c, 1, 51, 0
2, 540556, Note_on_c, 1, 51, 88
2, 540732, Note_on_c, 1, 51, 0
2, 541468, Note_on_c, 1, 61, 101
2, 541913, Note_on_c, 1, 61, 0
2, 542387, Note_on_c, 1, 54, 100
2, 543942, Note_on_c, 1, 39, 0
2, 544396, Note_on_c, 1, 39, 100
2, 544688, Note_on_c, 1, 39, 0
2, 545395, Note_on_c, 1, 39, 101
2, 545814, Note_on_c, 1, 54, 0
2, 548374, Note_on_c, 1, 61, 95
2, 548640, Note_on_c, 1, 61, 0
2, 549238, Note_on_c, 1, 60, 101
2, 549718, Note_on_c, 1, 60, 0
2, 549872, Note_on_c, 1, 57, 92
2, 550060, Note_on_c, 1, 57, 0
2, 550275, Note_on_c, 1, 53, 92
2, 550300, Note_on_c, 1, 39, 0
2, 551155, Note_on_c, 1, 51, 81
2, 551270, Note_on_c, 1, 51, 0
2, 552083, Note_on_c, 1, 51, 101
2, 553622, Note_on_c, 1, 51, 0
2, 553667, Note_on_c, 1, 39, 96
2, 553789, Note_on_c, 1, 53, 0
2, 553974, Note_on_c, 1, 59, 98
2, 554102, Note_on_c, 1, 39, 0
2, 554502, Note_on_c, 1, 59, 0
2, 554956, Note_on_c, 1, 56, 100
2, 555465, Note_on_c, 1, 56, 0
2, 555504, Note_on_c, 1, 52, 96
2, 555773, Note_on_c, 1, 39, 96
2, 555824, Note_on_c, 1, 52, 0
2, 556681, Note_on_c, 1, 39, 0
2, 556902, Note_on_c, 1, 39, 100
2, 558832, Note_on_c, 1, 51, 100
2, 558925, Note_on_c, 1, 39, 0
2, 560732, Note_on_c, 1, 39, 96
2, 560979, Note_on_c, 1, 39, 0
2, 561657, Note_on_c, 1, 38, 101
2, 561901, Note_on_c, 1, 38, 0
2, 562640, Note_on_c, 1, 37, 96
2, 563523, Note_on_c, 1, 37, 0
2, 563609, Note_on_c, 1, 36, 97
2, 564208, Note_on_c, 1, 51, 0
2, 564444, Note_on_c, 1, 36, 0
2, 564492, Note_on_c, 1, 41, 101
2, 566460, Note_on_c, 1, 41, 0
2, 566489, Note_on_c, 1, 33, 85
2, 568278, Note_on_c, 1, 33, 0
2, 568345, Note_on_c, 1, 34, 93
2, 569910, Note_on_c, 1, 32, 77
2, 570265, Note_on_c, 1, 38, 93
2, 570275, Note_on_c, 1, 32, 0
2, 570358, Note_on_c, 1, 34, 0
2, 572000, Note_on_c, 1, 38, 0
2, 572099, Note_on_c, 1, 39, 96
2, 575027, Note_on_c, 1, 54, 101
2, 575731, Note_on_c, 1, 55, 98
2, 575766, Note_on_c, 1, 54, 0
2, 577356, Note_on_c, 1, 39, 0
2, 579891, Note_on_c, 1, 44, 98
2, 580009, Note_on_c, 1, 55, 0
2, 583667, Note_on_c, 1, 44, 0
2, 583750, Note_on_c, 1, 37, 75
2, 585520, Note_on_c, 1, 37, 0
2, 585532, Note_on_c, 1, 44, 100
2, 585766, Note_on_c, 1, 44, 0
2, 586598, Note_on_c, 1, 42, 101
2, 588582, Note_on_c, 1, 37, 97
2, 588749, Note_on_c, 1, 42, 0
2, 589196, Note_on_c, 1, 37, 0
2, 589504, Note_on_c, 1, 30, 96
2, 592204, Note_on_c, 1, 30, 0
2, 592307, Note_on_c, 1, 41, 97
2, 593814, Note_on_c, 1, 41, 0
2, 593865, Note_on_c, 1, 34, 101
2, 595056, Note_on_c, 1, 34, 0
2, 595238, Note_on_c, 1, 39, 98
2, 595561, Note_on_c, 1, 39, 0
2, 596131, Note_on_c, 1, 39, 101
2, 598048, Note_on_c, 1, 27, 100
2, 598300, Note_on_c, 1, 27, 0
2, 598694, Note_on_c, 1, 27, 101
2, 598860, Note_on_c, 1, 39, 0
2, 599452, Note_on_c, 1, 27, 0
2, 599990, Note_on_c, 1, 39, 101
2, 601411, Note_on_c, 1, 39, 0
2, 601990, Note_on_c, 1, 39, 101
2, 603088, Note_on_c, 1, 39, 0
2, 603356, Note_on_c, 1, 39, 95
2, 603644, Note_on_c, 1, 39, 0
2, 603734, Note_on_c, 1, 39, 81
2, 604291, Note_on_c, 1, 39, 0
2, 604793, Note_on_c, 1, 39, 101
2, 607456, Note_on_c, 1, 39, 0
2, 607667, Note_on_c, 1, 39, 101
2, 608835, Note_on_c, 1, 39, 0
2, 609062, Note_on_c, 1, 39, 100
2, 610035, Note_on_c, 1, 39, 0
2, 610544, Note_on_c, 1, 39, 101
2, 612179, Note_on_c, 1, 51, 96
2, 612365, Note_on_c, 1, 51, 0
2, 613094, Note_on_c, 1, 39, 0
2, 613510, Note_on_c, 1, 39, 101
2, 614713, Note_on_c, 1, 39, 0
2, 614985, Note_on_c, 1, 39, 101
2, 616195, Note_on_c, 1, 39, 0
2, 616422, Note_on_c, 1, 39, 101
2, 617881, Note_on_c, 1, 39, 0
2, 618262, Note_on_c, 1, 39, 101
2, 619395, Note_on_c, 1, 39, 0
2, 619689, Note_on_c, 1, 39, 100
2, 620000, Note_on_c, 1, 39, 0
2, 621116, Note_on_c, 1, 39, 101
2, 622633, Note_on_c, 1, 39, 0
2, 622860, Note_on_c, 1, 38, 101
2, 623132, Note_on_c, 1, 38, 0
2, 623436, Note_on_c, 1, 37, 97
2, 623740, Note_on_c, 1, 37, 0
2, 623884, Note_on_c, 1, 36, 101
2, 624390, Note_on_c, 1, 36, 0
2, 624710, Note_on_c, 1, 43, 96
2, 624825, Note_on_c, 1, 43, 0
2, 624992, Note_on_c, 1, 34, 60
2, 625334, Note_on_c, 1, 34, 0
2, 625520, Note_on_c, 1, 39, 85
2, 625878, Note_on_c, 1, 41, 101
2, 625955, Note_on_c, 1, 39, 0
2, 627513, Note_on_c, 1, 36, 80
2, 627564, Note_on_c, 1, 41, 0
2, 627644, Note_on_c, 1, 36, 0
2, 627859, Note_on_c, 1, 36, 101
2, 629756, Note_on_c, 1, 36, 0
2, 629872, Note_on_c, 1, 38, 101
2, 631641, Note_on_c, 1, 38, 0
2, 631740, Note_on_c, 1, 33, 100
2, 631875, Note_on_c, 1, 33, 0
2, 632688, Note_on_c, 1, 31, 101
2, 633043, Note_on_c, 1, 31, 0
2, 633692, Note_on_c, 1, 36, 101
2, 635571, Note_on_c, 1, 34, 101
2, 635670, Note_on_c, 1, 36, 0
2, 637273, Note_on_c, 1, 34, 0
2, 637488, Note_on_c, 1, 33, 101
2, 639280, Note_on_c, 1, 33, 0
2, 639328, Note_on_c, 1, 38, 101
2, 640780, Note_on_c, 1, 38, 0
2, 640828, Note_on_c, 1, 32, 101
2, 641123, Note_on_c, 1, 32, 0
2, 641360, Note_on_c, 1, 31, 100
2, 641628, Note_on_c, 1, 31, 0
2, 642192, Note_on_c, 1, 31, 97
2, 642966, Note_on_c, 1, 31, 0
2, 643145, Note_on_c, 1, 36, 101
2, 645033, Note_on_c, 1, 36, 0
2, 645126, Note_on_c, 1, 29, 97
2, 646508, Note_on_c, 1, 29, 0
2, 646672, Note_on_c, 1, 34, 101
2, 649936, Note_on_c, 1, 46, 101
2, 651904, Note_on_c, 1, 58, 99
2, 652054, Note_on_c, 1, 58, 0
2, 652787, Note_on_c, 1, 58, 101
2, 653091, Note_on_c, 1, 58, 0
2, 653747, Note_on_c, 1, 58, 101
2, 654064, Note_on_c, 1, 58, 0
2, 654707, Note_on_c, 1, 34, 0
2, 654768, Note_on_c, 1, 58, 101
2, 655059, Note_on_c, 1, 58, 0
2, 655270, Note_on_c, 1, 58, 101
2, 655545, Note_on_c, 1, 58, 0
2, 655676, Note_on_c, 1, 58, 101
2, 655980, Note_on_c, 1, 58, 0
2, 656208, Note_on_c, 1, 58, 101
2, 656489, Note_on_c, 1, 58, 0
2, 656556, Note_on_c, 1, 46, 0
2, 656691, Note_on_c, 1, 39, 101
2, 658169, Note_on_c, 1, 46, 99
2, 659609, Note_on_c, 1, 55, 101
2, 660016, Note_on_c, 1, 46, 0
2, 661062, Note_on_c, 1, 46, 81
2, 661523, Note_on_c, 1, 46, 0
2, 662422, Note_on_c, 1, 46, 101
2, 662672, Note_on_c, 1, 39, 0
2, 662838, Note_on_c, 1, 55, 0
2, 663404, Note_on_c, 1, 39, 101
2, 663516, Note_on_c, 1, 46, 0
2, 664265, Note_on_c, 1, 39, 0
2, 664476, Note_on_c, 1, 39, 101
2, 665872, Note_on_c, 1, 46, 100
2, 667212, Note_on_c, 1, 46, 0
2, 667302, Note_on_c, 1, 54, 101
2, 668864, Note_on_c, 1, 46, 100
2, 669142, Note_on_c, 1, 46, 0
2, 670131, Note_on_c, 1, 46, 101
2, 670380, Note_on_c, 1, 39, 0
2, 671091, Note_on_c, 1, 39, 97
2, 671772, Note_on_c, 1, 39, 0
2, 671888, Note_on_c, 1, 54, 0
2, 672045, Note_on_c, 1, 39, 101
2, 672048, Note_on_c, 1, 46, 0
2, 673408, Note_on_c, 1, 45, 101
2, 674854, Note_on_c, 1, 53, 101
2, 676131, Note_on_c, 1, 39, 0
2, 676531, Note_on_c, 1, 39, 101
2, 676758, Note_on_c, 1, 45, 0
2, 677481, Note_on_c, 1, 53, 0
2, 677772, Note_on_c, 1, 52, 101
2, 678483, Note_on_c, 1, 39, 0
2, 678745, Note_on_c, 1, 39, 100
2, 679593, Note_on_c, 1, 39, 0
2, 679772, Note_on_c, 1, 39, 101
2, 679852, Note_on_c, 1, 52, 0
2, 681219, Note_on_c, 1, 46, 101
2, 682649, Note_on_c, 1, 51, 101
2, 683990, Note_on_c, 1, 46, 0
2, 684032, Note_on_c, 1, 39, 0
2, 684556, Note_on_c, 1, 37, 100
2, 684790, Note_on_c, 1, 37, 0
2, 685475, Note_on_c, 1, 36, 101
2, 685833, Note_on_c, 1, 36, 0
2, 686384, Note_on_c, 1, 42, 101
2, 686451, Note_on_c, 1, 51, 0
2, 687216, Note_on_c, 1, 42, 0
2, 687408, Note_on_c, 1, 41, 101
2, 688899, Note_on_c, 1, 36, 76
2, 688921, Note_on_c, 1, 41, 0
2, 689043, Note_on_c, 1, 36, 0
2, 689324, Note_on_c, 1, 32, 101
2, 691283, Note_on_c, 1, 34, 101
2, 691449, Note_on_c, 1, 32, 0
2, 693059, Note_on_c, 1, 34, 0
2, 693222, Note_on_c, 1, 32, 101
2, 694992, Note_on_c, 1, 32, 0
2, 695110, Note_on_c, 1, 31, 101
2, 696934, Note_on_c, 1, 31, 0
2, 696950, Note_on_c, 1, 36, 101
2, 698717, Note_on_c, 1, 36, 0
2, 698880, Note_on_c, 1, 34, 100
2, 700793, Note_on_c, 1, 39, 101
2, 700796, Note_on_c, 1, 34, 0
2, 702726, Note_on_c, 1, 39, 0
2, 702764, Note_on_c, 1, 44, 101
2, 705664, Note_on_c, 1, 42, 77
2, 706163, Note_on_c, 1, 42, 0
2, 707520, Note_on_c, 1, 44, 0
2, 707532, Note_on_c, 1, 37, 101
2, 710438, Note_on_c, 1, 37, 0
2, 710486, Note_on_c, 1, 42, 101
2, 711945, Note_on_c, 1, 51, 101
2, 713270, Note_on_c, 1, 51, 0
2, 713369, Note_on_c, 1, 49, 101
2, 714937, Note_on_c, 1, 49, 0
2, 715193, Note_on_c, 1, 53, 101
2, 715305, Note_on_c, 1, 42, 0
2, 716803, Note_on_c, 1, 46, 101
2, 716960, Note_on_c, 1, 53, 0
2, 717158, Note_on_c, 1, 45, 72
2, 717881, Note_on_c, 1, 45, 0
2, 718035, Note_on_c, 1, 46, 0
2, 718131, Note_on_c, 1, 39, 101
2, 719638, Note_on_c, 1, 46, 82
2, 719750, Note_on_c, 1, 46, 0
2, 720041, Note_on_c, 1, 58, 101
2, 720297, Note_on_c, 1, 58, 0
2, 720979, Note_on_c, 1, 58, 101
2, 722531, Note_on_c, 1, 39, 0
2, 722937, Note_on_c, 1, 39, 100
2, 723248, Note_on_c, 1, 39, 0
2, 723436, Note_on_c, 1, 58, 0
2, 723900, Note_on_c, 1, 39, 101
2, 725312, Note_on_c, 1, 46, 88
2, 725420, Note_on_c, 1, 46, 0
2, 725782, Note_on_c, 1, 58, 101
2, 726038, Note_on_c, 1, 58, 0
2, 726758, Note_on_c, 1, 58, 101
2, 728268, Note_on_c, 1, 39, 0
2, 728694, Note_on_c, 1, 39, 101
2, 729030, Note_on_c, 1, 39, 0
2, 729526, Note_on_c, 1, 58, 0
2, 729568, Note_on_c, 1, 39, 101
2, 731206, Note_on_c, 1, 46, 92
2, 731356, Note_on_c, 1, 46, 0
2, 731549, Note_on_c, 1, 58, 101
2, 731856, Note_on_c, 1, 58, 0
2, 732563, Note_on_c, 1, 57, 101
2, 733811, Note_on_c, 1, 39, 0
2, 734387, Note_on_c, 1, 39, 101
2, 734710, Note_on_c, 1, 39, 0
2, 735379, Note_on_c, 1, 39, 101
2, 735740, Note_on_c, 1, 57, 0
2, 736361, Note_on_c, 1, 56, 101
2, 737766, Note_on_c, 1, 39, 0
2, 738310, Note_on_c, 1, 39, 100
2, 738617, Note_on_c, 1, 39, 0
2, 739270, Note_on_c, 1, 39, 101
2, 739606, Note_on_c, 1, 56, 0
2, 740256, Note_on_c, 1, 55, 101
2, 742828, Note_on_c, 1, 39, 0
2, 743177, Note_on_c, 1, 39, 100
2, 743500, Note_on_c, 1, 39, 0
2, 743904, Note_on_c, 1, 40, 86
2, 743932, Note_on_c, 1, 38, 88
2, 744038, Note_on_c, 1, 40, 0
2, 744044, Note_on_c, 1, 38, 0
2, 744604, Note_on_c, 1, 37, 101
2, 744912, Note_on_c, 1, 37, 0
2, 745107, Note_on_c, 1, 36, 101
2, 747529, Note_on_c, 1, 36, 0
2, 747766, Note_on_c, 1, 43, 97
2, 747785, Note_on_c, 1, 55, 0
2, 748064, Note_on_c, 1, 43, 0
2, 748403, Note_on_c, 1, 42, 90
2, 748739, Note_on_c, 1, 42, 0
2, 748902, Note_on_c, 1, 41, 97
2, 750451, Note_on_c, 1, 37, 83
2, 750454, Note_on_c, 1, 41, 0
2, 750684, Note_on_c, 1, 37, 0
2, 750755, Note_on_c, 1, 39, 96
2, 752307, Note_on_c, 1, 37, 81
2, 752448, Note_on_c, 1, 39, 0
2, 752630, Note_on_c, 1, 37, 0
2, 752716, Note_on_c, 1, 56, 91
2, 752739, Note_on_c, 1, 38, 88
2, 754480, Note_on_c, 1, 56, 0
2, 754585, Note_on_c, 1, 38, 0
2, 754649, Note_on_c, 1, 31, 97
2, 754691, Note_on_c, 1, 55, 97
2, 756131, Note_on_c, 1, 55, 0
2, 756192, Note_on_c, 1, 34, 84
2, 756198, Note_on_c, 1, 31, 0
2, 756601, Note_on_c, 1, 36, 85
2, 756649, Note_on_c, 1, 34, 0
2, 758134, Note_on_c, 1, 36, 0
2, 758160, Note_on_c, 1, 32, 83
2, 758406, Note_on_c, 1, 34, 101
2, 758537, Note_on_c, 1, 32, 0
2, 760137, Note_on_c, 1, 32, 97
2, 760220, Note_on_c, 1, 34, 0
2, 760358, Note_on_c, 1, 32, 0
2, 760467, Note_on_c, 1, 33, 101
2, 761824, Note_on_c, 1, 32, 100
2, 761827, Note_on_c, 1, 33, 0
2, 762108, Note_on_c, 1, 32, 0
2, 762297, Note_on_c, 1, 38, 101
2, 763011, Note_on_c, 1, 38, 0
2, 763241, Note_on_c, 1, 32, 101
2, 764032, Note_on_c, 1, 32, 0
2, 764185, Note_on_c, 1, 31, 101
2, 766073, Note_on_c, 1, 31, 0
2, 766092, Note_on_c, 1, 36, 101
2, 767952, Note_on_c, 1, 36, 0
2, 768041, Note_on_c, 1, 29, 101
2, 769459, Note_on_c, 1, 29, 0
2, 769517, Note_on_c, 1, 34, 101
2, 770739, Note_on_c, 1, 34, 0
2, 770940, Note_on_c, 1, 34, 101
2, 773814, Note_on_c, 1, 46, 101
2, 774076, Note_on_c, 1, 46, 0
2, 774412, Note_on_c, 1, 46, 101
2, 774758, Note_on_c, 1, 46, 0
2, 775846, Note_on_c, 1, 46, 101
2, 776211, Note_on_c, 1, 46, 0
2, 777228, Note_on_c, 1, 46, 101
2, 777549, Note_on_c, 1, 46, 0
2, 777606, Note_on_c, 1, 34, 0
2, 778076, Note_on_c, 1, 37, 92
2, 778387, Note_on_c, 1, 37, 0
2, 778486, Note_on_c, 1, 38, 96
2, 779321, Note_on_c, 1, 38, 0
2, 779510, Note_on_c, 1, 39, 87
2, 779540, Note_on_c, 1, 39, 69
2, 780435, Note_on_c, 1, 39, 0
2, 780438, Note_on_c, 1, 39, 0
2, 780501, Note_on_c, 1, 34, 63
2, 780657, Note_on_c, 1, 34, 0
2, 780825, Note_on_c, 1, 34, 55
2, 781009, Note_on_c, 1, 34, 0
2, 781428, Note_on_c, 1, 43, 82
2, 782309, Note_on_c, 1, 43, 0
2, 782387, Note_on_c, 1, 39, 67
2, 783266, Note_on_c, 1, 39, 0
2, 783417, Note_on_c, 1, 46, 82
2, 784169, Note_on_c, 1, 39, 38
2, 784221, Note_on_c, 1, 46, 0
2, 784331, Note_on_c, 1, 48, 100
2, 784348, Note_on_c, 1, 39, 0
2, 785238, Note_on_c, 1, 48, 0
2, 785348, Note_on_c, 1, 46, 63
2, 786037, Note_on_c, 1, 38, 64
2, 786158, Note_on_c, 1, 38, 0
2, 786175, Note_on_c, 1, 46, 0
2, 786240, Note_on_c, 1, 43, 69
2, 786996, Note_on_c, 1, 38, 52
2, 787083, Note_on_c, 1, 38, 0
2, 787176, Note_on_c, 1, 43, 0
2, 787249, Note_on_c, 1, 42, 55
2, 788141, Note_on_c, 1, 42, 0
2, 788173, Note_on_c, 1, 41, 67
2, 789074, Note_on_c, 1, 41, 0
2, 789156, Note_on_c, 1, 39, 51
2, 789986, Note_on_c, 1, 39, 0
2, 790079, Note_on_c, 1, 38, 74
2, 791007, Note_on_c, 1, 38, 0
2, 791059, Note_on_c, 1, 39, 72
2, 791990, Note_on_c, 1, 43, 101
2, 792014, Note_on_c, 1, 39, 0
2, 792601, Note_on_c, 1, 39, 39
2, 792696, Note_on_c, 1, 39, 0
2, 792837, Note_on_c, 1, 43, 0
2, 792971, Note_on_c, 1, 46, 68
2, 793625, Note_on_c, 1, 39, 80
2, 793649, Note_on_c, 1, 46, 0
2, 793843, Note_on_c, 1, 39, 0
2, 793939, Note_on_c, 1, 40, 70
2, 794604, Note_on_c, 1, 39, 43
2, 794818, Note_on_c, 1, 39, 0
2, 794854, Note_on_c, 1, 41, 68
2, 794874, Note_on_c, 1, 40, 0
2, 795563, Note_on_c, 1, 39, 53
2, 795774, Note_on_c, 1, 41, 0
2, 795835, Note_on_c, 1, 53, 101
2, 795863, Note_on_c, 1, 39, 0
2, 796753, Note_on_c, 1, 53, 0
2, 796837, Note_on_c, 1, 51, 80
2, 797455, Note_on_c, 1, 39, 36
2, 797589, Note_on_c, 1, 39, 0
2, 797747, Note_on_c, 1, 46, 44
2, 798438, Note_on_c, 1, 40, 86
2, 798554, Note_on_c, 1, 46, 0
2, 798593, Note_on_c, 1, 40, 0
2, 798606, Note_on_c, 1, 51, 0
2, 798783, Note_on_c, 1, 39, 82
2, 799641, Note_on_c, 1, 39, 0
2, 799714, Note_on_c, 1, 40, 77
2, 800445, Note_on_c, 1, 39, 44
2, 800533, Note_on_c, 1, 39, 0
2, 800671, Note_on_c, 1, 44, 74
2, 800725, Note_on_c, 1, 40, 0
2, 801334, Note_on_c, 1, 40, 65
2, 801479, Note_on_c, 1, 40, 0
2, 801544, Note_on_c, 1, 44, 0
2, 801645, Note_on_c, 1, 52, 88
2, 802380, Note_on_c, 1, 40, 34
2, 802479, Note_on_c, 1, 52, 0
2, 802490, Note_on_c, 1, 40, 0
2, 802602, Note_on_c, 1, 51, 80
2, 803250, Note_on_c, 1, 46, 72
2, 803367, Note_on_c, 1, 51, 0
2, 803529, Note_on_c, 1, 46, 0
2, 803548, Note_on_c, 1, 43, 57
2, 804510, Note_on_c, 1, 43, 0
2, 804564, Note_on_c, 1, 39, 60
2, 805408, Note_on_c, 1, 39, 0
2, 805460, Note_on_c, 1, 37, 86
2, 806387, Note_on_c, 1, 37, 0
2, 806462, Note_on_c, 1, 36, 43
2, 807177, Note_on_c, 1, 37, 57
2, 807259, Note_on_c, 1, 36, 0
2, 807367, Note_on_c, 1, 49, 98
2, 807369, Note_on_c, 1, 37, 0
2, 808225, Note_on_c, 1, 49, 0
2, 808346, Note_on_c, 1, 48, 68
2, 809182, Note_on_c, 1, 48, 0
2, 809247, Note_on_c, 1, 40, 69
2, 809722, Note_on_c, 1, 40, 0
2, 809892, Note_on_c, 1, 40, 69
2, 810180, Note_on_c, 1, 40, 0
2, 810236, Note_on_c, 1, 41, 84
2, 810970, Note_on_c, 1, 39, 55
2, 811147, Note_on_c, 1, 41, 0
2, 811210, Note_on_c, 1, 39, 0
2, 811238, Note_on_c, 1, 43, 84
2, 811715, Note_on_c, 1, 43, 0
2, 811914, Note_on_c, 1, 43, 68
2, 812089, Note_on_c, 1, 43, 0
2, 812223, Note_on_c, 1, 44, 88
2, 812875, Note_on_c, 1, 41, 34
2, 813020, Note_on_c, 1, 44, 0
2, 813044, Note_on_c, 1, 41, 0
2, 813094, Note_on_c, 1, 45, 68
2, 813586, Note_on_c, 1, 45, 0
2, 813763, Note_on_c, 1, 41, 53
2, 813798, Note_on_c, 1, 45, 67
2, 813856, Note_on_c, 1, 41, 0
2, 813947, Note_on_c, 1, 45, 0
2, 814072, Note_on_c, 1, 46, 81
2, 814521, Note_on_c, 1, 46, 0
2, 815074, Note_on_c, 1, 34, 70
2, 815832, Note_on_c, 1, 41, 41
2, 815975, Note_on_c, 1, 41, 0
2, 816091, Note_on_c, 1, 49, 98
2, 816241, Note_on_c, 1, 34, 0
2, 816798, Note_on_c, 1, 41, 28
2, 816934, Note_on_c, 1, 49, 0
2, 816940, Note_on_c, 1, 41, 0
2, 817003, Note_on_c, 1, 50, 87
2, 817634, Note_on_c, 1, 41, 50
2, 817729, Note_on_c, 1, 50, 0
2, 817804, Note_on_c, 1, 41, 0
2, 817969, Note_on_c, 1, 51, 93
2, 818804, Note_on_c, 1, 51, 0
2, 818902, Note_on_c, 1, 46, 48
2, 819703, Note_on_c, 1, 46, 0
2, 819841, Note_on_c, 1, 39, 44
2, 819997, Note_on_c, 1, 38, 70
2, 819999, Note_on_c, 1, 39, 0
2, 820822, Note_on_c, 1, 38, 0
2, 820869, Note_on_c, 1, 39, 72
2, 821820, Note_on_c, 1, 39, 0
2, 821820, Note_on_c, 1, 51, 89
2, 822632, Note_on_c, 1, 51, 0
2, 822757, Note_on_c, 1, 46, 67
2, 823414, Note_on_c, 1, 39, 44
2, 823522, Note_on_c, 1, 39, 0
2, 823548, Note_on_c, 1, 46, 0
2, 823677, Note_on_c, 1, 45, 74
2, 824397, Note_on_c, 1, 45, 0
2, 824623, Note_on_c, 1, 45, 74
2, 825267, Note_on_c, 1, 39, 50
2, 825341, Note_on_c, 1, 39, 0
2, 825436, Note_on_c, 1, 45, 0
2, 825585, Note_on_c, 1, 44, 70
2, 826222, Note_on_c, 1, 44, 0
2, 826243, Note_on_c, 1, 39, 70
2, 826444, Note_on_c, 1, 39, 0
2, 826548, Note_on_c, 1, 32, 74
2, 827455, Note_on_c, 1, 32, 0
2, 827550, Note_on_c, 1, 44, 82
2, 828414, Note_on_c, 1, 44, 0
2, 828455, Note_on_c, 1, 38, 80
2, 829334, Note_on_c, 1, 38, 0
2, 829427, Note_on_c, 1, 37, 56
2, 830220, Note_on_c, 1, 37, 0
2, 830391, Note_on_c, 1, 37, 67
2, 831348, Note_on_c, 1, 49, 100
2, 831386, Note_on_c, 1, 37, 0
2, 832281, Note_on_c, 1, 49, 0
2, 832324, Note_on_c, 1, 37, 68
2, 833181, Note_on_c, 1, 37, 0
2, 833311, Note_on_c, 1, 37, 88
2, 834261, Note_on_c, 1, 49, 101
2, 834341, Note_on_c, 1, 37, 0
2, 835082, Note_on_c, 1, 49, 0
2, 835223, Note_on_c, 1, 49, 96
2, 836162, Note_on_c, 1, 37, 80
2, 836277, Note_on_c, 1, 49, 0
2, 837121, Note_on_c, 1, 46, 88
2, 837128, Note_on_c, 1, 37, 0
2, 838102, Note_on_c, 1, 40, 72
2, 838108, Note_on_c, 1, 46, 0
2, 839074, Note_on_c, 1, 40, 0
2, 839119, Note_on_c, 1, 41, 55
2, 839772, Note_on_c, 1, 39, 58
2, 839860, Note_on_c, 1, 41, 0
2, 839897, Note_on_c, 1, 39, 0
2, 840018, Note_on_c, 1, 46, 74
2, 840722, Note_on_c, 1, 41, 39
2, 840737, Note_on_c, 1, 39, 31
2, 840776, Note_on_c, 1, 46, 0
2, 840813, Note_on_c, 1, 41, 0
2, 840830, Note_on_c, 1, 39, 0
2, 840906, Note_on_c, 1, 51, 76
2, 841865, Note_on_c, 1, 45, 72
2, 841914, Note_on_c, 1, 51, 0
2, 842817, Note_on_c, 1, 45, 0
2, 842869, Note_on_c, 1, 46, 60
2, 843785, Note_on_c, 1, 46, 0
2, 843804, Note_on_c, 1, 42, 76
2, 844722, Note_on_c, 1, 42, 0
2, 844791, Note_on_c, 1, 43, 60
2, 845467, Note_on_c, 1, 42, 52
2, 845547, Note_on_c, 1, 43, 0
2, 845629, Note_on_c, 1, 42, 0
2, 845729, Note_on_c, 1, 53, 101
2, 846554, Note_on_c, 1, 53, 0
2, 846697, Note_on_c, 1, 51, 76
2, 847638, Note_on_c, 1, 42, 67
2, 847675, Note_on_c, 1, 51, 0
2, 847738, Note_on_c, 1, 41, 55
2, 847908, Note_on_c, 1, 41, 0
2, 847913, Note_on_c, 1, 42, 0
2, 848517, Note_on_c, 1, 43, 38
2, 849463, Note_on_c, 1, 43, 0
2, 849520, Note_on_c, 1, 39, 72
2, 850433, Note_on_c, 1, 39, 0
2, 850520, Note_on_c, 1, 42, 62
2, 850930, Note_on_c, 1, 42, 0
2, 851183, Note_on_c, 1, 42, 44
2, 851369, Note_on_c, 1, 42, 0
2, 851528, Note_on_c, 1, 54, 84
2, 852345, Note_on_c, 1, 54, 0
2, 852468, Note_on_c, 1, 51, 68
2, 853151, Note_on_c, 1, 42, 34
2, 853228, Note_on_c, 1, 42, 0
2, 853295, Note_on_c, 1, 51, 0
2, 853447, Note_on_c, 1, 49, 65
2, 854308, Note_on_c, 1, 49, 0
2, 854380, Note_on_c, 1, 46, 45
2, 855062, Note_on_c, 1, 39, 58
2, 855194, Note_on_c, 1, 46, 0
2, 855213, Note_on_c, 1, 39, 0
2, 855337, Note_on_c, 1, 44, 58
2, 856026, Note_on_c, 1, 39, 44
2, 856103, Note_on_c, 1, 39, 0
2, 856324, Note_on_c, 1, 44, 0
2, 856339, Note_on_c, 1, 41, 60
2, 857004, Note_on_c, 1, 39, 51
2, 857121, Note_on_c, 1, 41, 0
2, 857222, Note_on_c, 1, 54, 29
2, 857233, Note_on_c, 1, 39, 0
2, 857287, Note_on_c, 1, 53, 69
2, 857296, Note_on_c, 1, 54, 0
2, 857903, Note_on_c, 1, 39, 40
2, 858095, Note_on_c, 1, 39, 0
2, 858281, Note_on_c, 1, 45, 65
2, 858821, Note_on_c, 1, 53, 0
2, 858985, Note_on_c, 1, 39, 51
2, 859147, Note_on_c, 1, 45, 0
2, 859177, Note_on_c, 1, 39, 0
2, 859231, Note_on_c, 1, 51, 88
2, 859894, Note_on_c, 1, 39, 40
2, 860095, Note_on_c, 1, 39, 0
2, 860166, Note_on_c, 1, 51, 0
2, 860212, Note_on_c, 1, 47, 64
2, 860873, Note_on_c, 1, 39, 52
2, 861035, Note_on_c, 1, 47, 0
2, 861067, Note_on_c, 1, 39, 0
2, 861158, Note_on_c, 1, 52, 88
2, 861618, Note_on_c, 1, 39, 40
2, 861730, Note_on_c, 1, 39, 0
2, 862063, Note_on_c, 1, 52, 0
2, 862121, Note_on_c, 1, 44, 48
2, 863028, Note_on_c, 1, 40, 65
2, 863100, Note_on_c, 1, 44, 0
2, 863791, Note_on_c, 1, 40, 0
2, 863992, Note_on_c, 1, 39, 69
2, 864795, Note_on_c, 1, 39, 0
2, 864946, Note_on_c, 1, 39, 65
2, 865923, Note_on_c, 1, 39, 0
2, 865964, Note_on_c, 1, 44, 82
2, 866664, Note_on_c, 1, 44, 0
2, 866694, Note_on_c, 1, 39, 44
2, 866819, Note_on_c, 1, 39, 0
2, 866936, Note_on_c, 1, 44, 76
2, 867765, Note_on_c, 1, 44, 0
2, 867871, Note_on_c, 1, 43, 62
2, 868763, Note_on_c, 1, 43, 0
2, 868824, Note_on_c, 1, 37, 91
2, 869716, Note_on_c, 1, 37, 0
2, 869802, Note_on_c, 1, 36, 62
2, 870470, Note_on_c, 1, 39, 82
2, 870530, Note_on_c, 1, 36, 0
2, 870649, Note_on_c, 1, 39, 0
2, 870748, Note_on_c, 1, 40, 60
2, 870776, Note_on_c, 1, 38, 50
2, 870854, Note_on_c, 1, 38, 0
2, 871498, Note_on_c, 1, 39, 24
2, 871645, Note_on_c, 1, 40, 0
2, 871651, Note_on_c, 1, 39, 0
2, 871735, Note_on_c, 1, 41, 79
2, 872580, Note_on_c, 1, 41, 0
2, 872729, Note_on_c, 1, 41, 82
2, 873593, Note_on_c, 1, 41, 0
2, 873664, Note_on_c, 1, 39, 69
2, 874429, Note_on_c, 1, 39, 0
2, 874584, Note_on_c, 1, 39, 67
2, 875304, Note_on_c, 1, 37, 41
2, 875468, Note_on_c, 1, 39, 0
2, 875530, Note_on_c, 1, 37, 0
2, 875552, Note_on_c, 1, 38, 57
2, 876224, Note_on_c, 1, 37, 50
2, 876466, Note_on_c, 1, 38, 0
2, 876526, Note_on_c, 1, 54, 92
2, 876582, Note_on_c, 1, 37, 0
2, 877306, Note_on_c, 1, 54, 0
2, 877448, Note_on_c, 1, 55, 79
2, 878282, Note_on_c, 1, 55, 0
2, 878364, Note_on_c, 1, 43, 64
2, 879066, Note_on_c, 1, 42, 65
2, 879148, Note_on_c, 1, 43, 0
2, 879274, Note_on_c, 1, 42, 0
2, 879347, Note_on_c, 1, 48, 76
2, 880086, Note_on_c, 1, 43, 28
2, 880181, Note_on_c, 1, 43, 0
2, 880185, Note_on_c, 1, 48, 0
2, 880315, Note_on_c, 1, 51, 82
2, 881241, Note_on_c, 1, 51, 0
2, 881285, Note_on_c, 1, 48, 72
2, 882108, Note_on_c, 1, 48, 0
2, 882250, Note_on_c, 1, 46, 74
2, 883131, Note_on_c, 1, 46, 0
2, 883177, Note_on_c, 1, 45, 69
2, 883862, Note_on_c, 1, 44, 40
2, 884030, Note_on_c, 1, 45, 0
2, 884121, Note_on_c, 1, 57, 91
2, 884192, Note_on_c, 1, 44, 0
2, 884961, Note_on_c, 1, 57, 0
2, 885106, Note_on_c, 1, 54, 67
2, 886056, Note_on_c, 1, 54, 0
2, 886067, Note_on_c, 1, 50, 65
2, 886698, Note_on_c, 1, 42, 48
2, 886771, Note_on_c, 1, 50, 0
2, 886948, Note_on_c, 1, 42, 0
2, 887026, Note_on_c, 1, 43, 63
2, 887821, Note_on_c, 1, 43, 0
2, 888004, Note_on_c, 1, 43, 65
2, 888877, Note_on_c, 1, 43, 0
2, 888953, Note_on_c, 1, 36, 68
2, 889704, Note_on_c, 1, 36, 0
2, 889897, Note_on_c, 1, 36, 96
2, 890739, Note_on_c, 1, 36, 0
2, 890838, Note_on_c, 1, 41, 63
2, 891676, Note_on_c, 1, 41, 0
2, 891832, Note_on_c, 1, 41, 89
2, 892692, Note_on_c, 1, 41, 0
2, 892754, Note_on_c, 1, 34, 70
2, 893523, Note_on_c, 1, 41, 39
2, 893616, Note_on_c, 1, 41, 0
2, 893731, Note_on_c, 1, 46, 101
2, 893856, Note_on_c, 1, 34, 0
2, 895750, Note_on_c, 1, 34, 72
2, 896260, Note_on_c, 1, 34, 0
2, 896264, Note_on_c, 1, 46, 0
2, 896685, Note_on_c, 1, 34, 86
2, 898573, Note_on_c, 1, 46, 68
2, 898651, Note_on_c, 1, 34, 0
2, 899074, Note_on_c, 1, 46, 0
2, 899545, Note_on_c, 1, 46, 87
2, 901416, Note_on_c, 1, 46, 0
2, 901437, Note_on_c, 1, 34, 65
2, 901857, Note_on_c, 1, 34, 0
2, 902343, Note_on_c, 1, 34, 84
2, 903047, Note_on_c, 1, 34, 0
2, 903360, Note_on_c, 1, 46, 88
2, 905313, Note_on_c, 1, 46, 84
2, 905953, Note_on_c, 1, 55, 92
2, 907069, Note_on_c, 1, 46, 0
2, 908235, Note_on_c, 1, 55, 0
2, 909356, Note_on_c, 1, 46, 0
2, 910114, Note_on_c, 1, 39, 97
2, 912145, Note_on_c, 1, 46, 85
2, 912371, Note_on_c, 1, 46, 0
2, 912743, Note_on_c, 1, 46, 88
2, 912884, Note_on_c, 1, 46, 0
2, 915069, Note_on_c, 1, 58, 89
2, 916468, Note_on_c, 1, 46, 83
2, 916654, Note_on_c, 1, 46, 0
2, 916751, Note_on_c, 1, 58, 0
2, 916912, Note_on_c, 1, 54, 79
2, 917049, Note_on_c, 1, 39, 0
2, 917619, Note_on_c, 1, 54, 0
2, 917834, Note_on_c, 1, 39, 80
2, 919781, Note_on_c, 1, 53, 86
2, 920352, Note_on_c, 1, 57, 101
2, 920356, Note_on_c, 1, 53, 0
2, 920572, Note_on_c, 1, 57, 0
2, 920783, Note_on_c, 1, 60, 101
2, 923469, Note_on_c, 1, 60, 0
2, 923585, Note_on_c, 1, 39, 0
2, 923655, Note_on_c, 1, 59, 92
2, 924029, Note_on_c, 1, 59, 0
2, 924193, Note_on_c, 1, 56, 76
2, 924510, Note_on_c, 1, 56, 0
2, 924553, Note_on_c, 1, 52, 83
2, 926438, Note_on_c, 1, 52, 0
2, 926502, Note_on_c, 1, 55, 92
2, 926864, Note_on_c, 1, 55, 0
2, 927070, Note_on_c, 1, 51, 92
2, 930006, Note_on_c, 1, 46, 78
2, 930073, Note_on_c, 1, 51, 0
2, 930088, Note_on_c, 1, 46, 0
2, 930344, Note_on_c, 1, 49, 97
2, 930825, Note_on_c, 1, 49, 0
2, 931271, Note_on_c, 1, 48, 88
2, 931879, Note_on_c, 1, 48, 0
2, 932221, Note_on_c, 1, 43, 80
2, 932720, Note_on_c, 1, 43, 0
2, 933178, Note_on_c, 1, 41, 84
2, 936090, Note_on_c, 1, 60, 101
2, 936229, Note_on_c, 1, 41, 0
2, 937865, Note_on_c, 1, 60, 0
2, 938019, Note_on_c, 1, 58, 87
2, 938964, Note_on_c, 1, 46, 77
2, 939274, Note_on_c, 1, 46, 0
2, 939800, Note_on_c, 1, 58, 0
2, 939859, Note_on_c, 1, 46, 76
2, 940744, Note_on_c, 1, 46, 0
2, 940831, Note_on_c, 1, 39, 83
2, 942756, Note_on_c, 1, 55, 92
2, 942885, Note_on_c, 1, 55, 0
2, 944767, Note_on_c, 1, 53, 80
2, 946302, Note_on_c, 1, 46, 72
2, 946441, Note_on_c, 1, 46, 0
2, 946558, Note_on_c, 1, 53, 0
2, 946642, Note_on_c, 1, 51, 85
2, 947528, Note_on_c, 1, 39, 0
2, 948247, Note_on_c, 1, 45, 79
2, 948386, Note_on_c, 1, 45, 0
2, 948401, Note_on_c, 1, 51, 0
2, 948544, Note_on_c, 1, 44, 87
2, 950451, Note_on_c, 1, 61, 87
2, 950891, Note_on_c, 1, 61, 0
2, 951431, Note_on_c, 1, 61, 87
2, 953324, Note_on_c, 1, 56, 82
2, 953710, Note_on_c, 1, 44, 0
2, 954052, Note_on_c, 1, 61, 0
2, 954246, Note_on_c, 1, 56, 0
2, 954305, Note_on_c, 1, 49, 73
2, 955007, Note_on_c, 1, 49, 0
2, 955233, Note_on_c, 1, 49, 80
2, 958854, Note_on_c, 1, 49, 0
2, 959139, Note_on_c, 1, 49, 83
2, 960994, Note_on_c, 1, 41, 77
2, 961063, Note_on_c, 1, 49, 0
2, 961874, Note_on_c, 1, 41, 0
2, 961946, Note_on_c, 1, 46, 94
2, 962668, Note_on_c, 1, 46, 0
2, 962814, Note_on_c, 1, 46, 88
2, 963833, Note_on_c, 1, 46, 0
2, 963895, Note_on_c, 1, 39, 92
2, 964692, Note_on_c, 1, 39, 0
2, 964871, Note_on_c, 1, 39, 100
2, 967635, Note_on_c, 1, 46, 80
2, 967923, Note_on_c, 1, 46, 0
2, 968255, Note_on_c, 1, 46, 84
2, 968471, Note_on_c, 1, 46, 0
2, 968677, Note_on_c, 1, 55, 96
2, 969619, Note_on_c, 1, 55, 0
2, 969644, Note_on_c, 1, 46, 80
2, 970309, Note_on_c, 1, 39, 0
2, 970577, Note_on_c, 1, 39, 95
2, 971303, Note_on_c, 1, 46, 0
2, 973500, Note_on_c, 1, 46, 73
2, 973734, Note_on_c, 1, 46, 0
2, 974016, Note_on_c, 1, 46, 89
2, 974257, Note_on_c, 1, 46, 0
2, 974453, Note_on_c, 1, 54, 96
2, 975261, Note_on_c, 1, 54, 0
2, 975408, Note_on_c, 1, 46, 82
2, 976020, Note_on_c, 1, 46, 0
2, 976365, Note_on_c, 1, 46, 91
2, 977724, Note_on_c, 1, 39, 0
2, 978307, Note_on_c, 1, 39, 100
2, 978468, Note_on_c, 1, 46, 0
2, 981151, Note_on_c, 1, 48, 87
2, 981293, Note_on_c, 1, 48, 0
2, 981617, Note_on_c, 1, 48, 85
2, 982148, Note_on_c, 1, 57, 101
2, 982942, Note_on_c, 1, 57, 0
2, 983088, Note_on_c, 1, 53, 81
2, 983282, Note_on_c, 1, 53, 0
2, 983396, Note_on_c, 1, 39, 0
2, 984033, Note_on_c, 1, 39, 87
2, 984817, Note_on_c, 1, 48, 0
2, 984998, Note_on_c, 1, 56, 100
2, 985620, Note_on_c, 1, 56, 0
2, 985920, Note_on_c, 1, 52, 94
2, 986366, Note_on_c, 1, 52, 0
2, 986611, Note_on_c, 1, 39, 0
2, 986918, Note_on_c, 1, 39, 88
2, 987708, Note_on_c, 1, 39, 0
2, 987895, Note_on_c, 1, 39, 92
2, 990826, Note_on_c, 1, 55, 101
2, 990948, Note_on_c, 1, 39, 0
2, 991181, Note_on_c, 1, 55, 0
2, 991349, Note_on_c, 1, 39, 87
2, 991646, Note_on_c, 1, 39, 0
2, 991785, Note_on_c, 1, 49, 89
2, 992502, Note_on_c, 1, 49, 0
2, 992705, Note_on_c, 1, 48, 90
2, 993219, Note_on_c, 1, 48, 0
2, 993272, Note_on_c, 1, 43, 98
2, 994590, Note_on_c, 1, 43, 0
2, 994687, Note_on_c, 1, 41, 90
2, 996579, Note_on_c, 1, 51, 101
2, 996743, Note_on_c, 1, 41, 0
2, 998419, Note_on_c, 1, 51, 0
2, 998452, Note_on_c, 1, 50, 93
2, 998640, Note_on_c, 1, 50, 0
2, 1000031, Note_on_c, 1, 44, 90
2, 1000361, Note_on_c, 1, 44, 0
2, 1000473, Note_on_c, 1, 43, 88
2, 1001844, Note_on_c, 1, 43, 0
2, 1001981, Note_on_c, 1, 47, 80
2, 1002244, Note_on_c, 1, 47, 0
2, 1002326, Note_on_c, 1, 48, 85
2, 1003100, Note_on_c, 1, 48, 0
2, 1003291, Note_on_c, 1, 48, 97
2, 1005129, Note_on_c, 1, 48, 0
2, 1005188, Note_on_c, 1, 46, 90
2, 1007030, Note_on_c, 1, 46, 0
2, 1007073, Note_on_c, 1, 45, 94
2, 1008910, Note_on_c, 1, 50, 98
2, 1008979, Note_on_c, 1, 45, 0
2, 1009664, Note_on_c, 1, 50, 0
2, 1009955, Note_on_c, 1, 43, 92
2, 1010611, Note_on_c, 1, 43, 0
2, 1010864, Note_on_c, 1, 43, 86
2, 1011774, Note_on_c, 1, 43, 0
2, 1011859, Note_on_c, 1, 48, 101
2, 1013749, Note_on_c, 1, 48, 0
2, 1013808, Note_on_c, 1, 41, 87
2, 1015413, Note_on_c, 1, 58, 101
2, 1015418, Note_on_c, 1, 41, 0
2, 1016347, Note_on_c, 1, 41, 80
2, 1016481, Note_on_c, 1, 41, 0
2, 1016491, Note_on_c, 1, 58, 0
2, 1016707, Note_on_c, 1, 56, 96
2, 1017531, Note_on_c, 1, 56, 0
2, 1017712, Note_on_c, 1, 55, 94
2, 1020474, Note_on_c, 1, 55, 0
2, 1020626, Note_on_c, 1, 54, 86
2, 1021419, Note_on_c, 1, 54, 0
2, 1021533, Note_on_c, 1, 53, 90
2, 1023150, Note_on_c, 1, 46, 87
2, 1023894, Note_on_c, 1, 53, 0
2, 1024395, Note_on_c, 1, 44, 101
2, 1024482, Note_on_c, 1, 46, 0
2, 1025308, Note_on_c, 1, 44, 0
2, 1026017, Note_on_c, 1, 43, 101
2, 1026357, Note_on_c, 1, 43, 0
2, 1027354, Note_on_c, 1, 36, 101
2, 1029003, Note_on_c, 1, 36, 0
2, 1029180, Note_on_c, 1, 41, 101
2, 1031069, Note_on_c, 1, 41, 0
2, 1031106, Note_on_c, 1, 46, 101
2, 1031800, Note_on_c, 1, 46, 0
2, 1032039, Note_on_c, 1, 46, 101
2, 1032343, Note_on_c, 1, 46, 0
2, 1032569, Note_on_c, 1, 39, 101
2, 1033214, Note_on_c, 1, 39, 0
2, 1033214, End_track
3, 0, Start_track
3, 0, Title_t, "Piano"
3, 0, Program_c, 0, 4
3, 0, Control_c, 0, 7, 88
3, 0, Control_c, 0, 10, 64
3, 1388, Control_c, 0, 64, 127
3, 4641, Note_on_c, 0, 75, 69
3, 6974, Note_on_c, 0, 51, 30
3, 7976, Note_on_c, 0, 58, 34
3, 8968, Note_on_c, 0, 70, 34
3, 9066, Note_on_c, 0, 65, 24
3, 9106, Note_on_c, 0, 75, 0
3, 9136, Note_on_c, 0, 62, 18
3, 9362, Note_on_c, 0, 58, 0
3, 9819, Note_on_c, 0, 65, 0
3, 9892, Note_on_c, 0, 70, 0
3, 10054, Note_on_c, 0, 75, 58
3, 10252, Note_on_c, 0, 62, 0
3, 10296, Note_on_c, 0, 75, 0
3, 11119, Note_on_c, 0, 89, 51
3, 11852, Note_on_c, 0, 59, 1
3, 12343, Note_on_c, 0, 89, 0
3, 12443, Note_on_c, 0, 77, 28
3, 12467, Note_on_c, 0, 86, 46
3, 12762, Note_on_c, 0, 62, 11
3, 12813, Note_on_c, 0, 77, 0
3, 12920, Note_on_c, 0, 59, 0
3, 12958, Note_on_c, 0, 86, 0
3, 13794, Note_on_c, 0, 101, 51
3, 14030, Note_on_c, 0, 101, 0
3, 14745, Note_on_c, 0, 59, 1
3, 16216, Note_on_c, 0, 59, 0
3, 24146, Note_on_c, 0, 74, 77
3, 25645, Note_on_c, 0, 70, 45
3, 25813, Note_on_c, 0, 62, 0
3, 26605, Note_on_c, 0, 74, 0
3, 26713, Note_on_c, 0, 67, 36
3, 26730, Note_on_c, 0, 51, 0
3, 27173, Note_on_c, 0, 70, 0
3, 27264, Note_on_c, 0, 67, 0
3, 27706, Note_on_c, 0, 73, 7
3, 27954, Note_on_c, 0, 73, 0
3, 28377, Note_on_c, 0, 73, 30
3, 28411, Note_on_c, 0, 61, 40
3, 28444, Note_on_c, 0, 51, 42
3, 28455, Note_on_c, 0, 66, 39
3, 28475, Note_on_c, 0, 70, 32
3, 28532, Control_c, 0, 64, 0
3, 29241, Control_c, 0, 64, 127
3, 29844, Note_on_c, 0, 73, 0
3, 29881, Note_on_c, 0, 70, 0
3, 29884, Note_on_c, 0, 61, 0
3, 29924, Note_on_c, 0, 58, 35
3, 29958, Note_on_c, 0, 66, 0
3, 30288, Note_on_c, 0, 58, 0
3, 30308, Note_on_c, 0, 51, 0
3, 31420, Note_on_c, 0, 54, 28
3, 31535, Note_on_c, 0, 54, 0
3, 31645, Note_on_c, 0, 56, 41
3, 31760, Note_on_c, 0, 56, 0
3, 31921, Note_on_c, 0, 58, 47
3, 32033, Note_on_c, 0, 58, 0
3, 32275, Note_on_c, 0, 61, 53
3, 32389, Note_on_c, 0, 61, 0
3, 32487, Note_on_c, 0, 63, 52
3, 32598, Note_on_c, 0, 63, 0
3, 32755, Note_on_c, 0, 66, 54
3, 32866, Note_on_c, 0, 66, 0
3, 32926, Note_on_c, 0, 68, 43
3, 33040, Note_on_c, 0, 68, 0
3, 33107, Note_on_c, 0, 70, 48
3, 33218, Note_on_c, 0, 70, 0
3, 33319, Note_on_c, 0, 71, 12
3, 33386, Note_on_c, 0, 73, 34
3, 33436, Note_on_c, 0, 71, 0
3, 33497, Note_on_c, 0, 73, 0
3, 33561, Note_on_c, 0, 75, 36
3, 33672, Note_on_c, 0, 75, 0
3, 33819, Note_on_c, 0, 78, 48
3, 33929, Note_on_c, 0, 78, 0
3, 34010, Note_on_c, 0, 80, 34
3, 34124, Note_on_c, 0, 80, 0
3, 34134, Note_on_c, 0, 82, 41
3, 34249, Note_on_c, 0, 82, 0
3, 34380, Note_on_c, 0, 85, 44
3, 34494, Note_on_c, 0, 85, 0
3, 34598, Note_on_c, 0, 87, 41
3, 34715, Note_on_c, 0, 87, 0
3, 34889, Note_on_c, 0, 90, 30
3, 35004, Note_on_c, 0, 90, 0
3, 35064, Note_on_c, 0, 92, 38
3, 35216, Note_on_c, 0, 92, 0
3, 35293, Note_on_c, 0, 94, 38
3, 35407, Note_on_c, 0, 94, 0
3, 35575, Note_on_c, 0, 97, 39
3, 35686, Note_on_c, 0, 97, 0
3, 35754, Note_on_c, 0, 99, 41
3, 35918, Note_on_c, 0, 99, 0
3, 36086, Note_on_c, 0, 102, 28
3, 36321, Note_on_c, 0, 102, 0
3, 36493, Note_on_c, 0, 104, 13
3, 36521, Note_on_c, 0, 58, 1
3, 36527, Note_on_c, 0, 66, 24
3, 36635, Note_on_c, 0, 104, 0
3, 38427, Note_on_c, 0, 66, 0
3, 41577, Note_on_c, 0, 58, 0
3, 42987, Note_on_c, 0, 72, 23
3, 42994, Note_on_c, 0, 60, 46
3, 43041, Note_on_c, 0, 51, 24
3, 43044, Note_on_c, 0, 65, 29
3, 43135, Note_on_c, 0, 57, 27
3, 43216, Control_c, 0, 64, 0
3, 46078, Control_c, 0, 64, 127
3, 48137, Note_on_c, 0, 65, 0
3, 48647, Note_on_c, 0, 57, 0
3, 48858, Note_on_c, 0, 60, 0
3, 48885, Note_on_c, 0, 65, 36
3, 49481, Note_on_c, 0, 72, 0
3, 49988, Note_on_c, 0, 65, 0
3, 51154, Note_on_c, 0, 51, 0
3, 52991, Note_on_c, 0, 71, 43
3, 53021, Note_on_c, 0, 68, 29
3, 53055, Note_on_c, 0, 64, 51
3, 53065, Note_on_c, 0, 59, 42
3, 53354, Control_c, 0, 64, 0
3, 54614, Note_on_c, 0, 58, 38
3, 55914, Control_c, 0, 64, 127
3, 56031, Note_on_c, 0, 46, 35
3, 56705, Note_on_c, 0, 59, 0
3, 57531, Note_on_c, 0, 58, 0
3, 57790, Note_on_c, 0, 59, 36
3, 58294, Note_on_c, 0, 59, 0
3, 58351, Note_on_c, 0, 64, 0
3, 58492, Note_on_c, 0, 71, 0
3, 59448, Note_on_c, 0, 68, 0
3, 59522, Note_on_c, 0, 70, 48
3, 59596, Note_on_c, 0, 65, 38
3, 59676, Note_on_c, 0, 55, 16
3, 59720, Control_c, 0, 64, 0
3, 59774, Note_on_c, 0, 60, 8
3, 60967, Note_on_c, 0, 46, 0
3, 61232, Note_on_c, 0, 46, 32
3, 61639, Control_c, 0, 64, 127
3, 62107, Note_on_c, 0, 65, 0
3, 62269, Note_on_c, 0, 60, 0
3, 63121, Note_on_c, 0, 65, 43
3, 63151, Note_on_c, 0, 60, 26
3, 64359, Note_on_c, 0, 60, 0
3, 65446, Note_on_c, 0, 70, 0
3, 65601, Note_on_c, 0, 60, 41
3, 66008, Note_on_c, 0, 60, 0
3, 66014, Note_on_c, 0, 65, 0
3, 66374, Note_on_c, 0, 55, 0
3, 66581, Note_on_c, 0, 46, 0
3, 68691, Note_on_c, 0, 36, 39
3, 69013, Note_on_c, 0, 43, 16
3, 69219, Note_on_c, 0, 58, 27
3, 69357, Note_on_c, 0, 43, 0
3, 69367, Note_on_c, 0, 63, 43
3, 69370, Note_on_c, 0, 52, 16
3, 69468, Note_on_c, 0, 66, 42
3, 69592, Note_on_c, 0, 70, 28
3, 69723, Control_c, 0, 64, 0
3, 70327, Control_c, 0, 64, 127
3, 71610, Note_on_c, 0, 63, 0
3, 73218, Note_on_c, 0, 61, 32
3, 75150, Note_on_c, 0, 70, 0
3, 76464, Note_on_c, 0, 36, 0
3, 78180, Note_on_c, 0, 52, 0
3, 78214, Note_on_c, 0, 66, 0
3, 78217, Note_on_c, 0, 58, 0
3, 78275, Note_on_c, 0, 61, 0
3, 78362, Note_on_c, 0, 41, 67
3, 78443, Control_c, 0, 64, 0
3, 79148, Control_c, 0, 64, 127
3, 80203, Note_on_c, 0, 65, 55
3, 80230, Note_on_c, 0, 56, 53
3, 80237, Note_on_c, 0, 60, 58
3, 80244, Note_on_c, 0, 50, 44
3, 80331, Control_c, 0, 64, 0
3, 80334, Note_on_c, 0, 41, 0
3, 80701, Control_c, 0, 64, 127
3, 81253, Note_on_c, 0, 65, 0
3, 81830, Note_on_c, 0, 60, 0
3, 82044, Note_on_c, 0, 56, 0
3, 82538, Note_on_c, 0, 67, 71
3, 82568, Note_on_c, 0, 58, 63
3, 82602, Note_on_c, 0, 61, 56
3, 82649, Note_on_c, 0, 52, 34
3, 82786, Control_c, 0, 64, 0
3, 82870, Note_on_c, 0, 50, 0
3, 83326, Control_c, 0, 64, 127
3, 83902, Note_on_c, 0, 67, 0
3, 83936, Note_on_c, 0, 58, 0
3, 84090, Note_on_c, 0, 61, 0
3, 84674, Note_on_c, 0, 60, 60
3, 84681, Note_on_c, 0, 68, 53
3, 84712, Note_on_c, 0, 63, 56
3, 84769, Note_on_c, 0, 53, 37
3, 84799, Note_on_c, 0, 52, 0
3, 84842, Control_c, 0, 64, 0
3, 85380, Control_c, 0, 64, 127
3, 86287, Note_on_c, 0, 60, 0
3, 86472, Note_on_c, 0, 68, 0
3, 86650, Note_on_c, 0, 63, 0
3, 87312, Note_on_c, 0, 53, 0
3, 87470, Note_on_c, 0, 70, 45
3, 87483, Note_on_c, 0, 63, 34
3, 87540, Note_on_c, 0, 59, 21
3, 87597, Note_on_c, 0, 67, 24
3, 87607, Note_on_c, 0, 55, 31
3, 87638, Control_c, 0, 64, 0
3, 88041, Control_c, 0, 64, 127
3, 88247, Note_on_c, 0, 59, 0
3, 88294, Note_on_c, 0, 67, 0
3, 88569, Note_on_c, 0, 55, 0
3, 88650, Note_on_c, 0, 63, 0
3, 88922, Note_on_c, 0, 70, 0
3, 89342, Note_on_c, 0, 71, 46
3, 89355, Note_on_c, 0, 62, 39
3, 89359, Note_on_c, 0, 68, 29
3, 89375, Note_on_c, 0, 56, 27
3, 89382, Note_on_c, 0, 65, 45
3, 89399, Control_c, 0, 64, 0
3, 89701, Control_c, 0, 64, 127
3, 89846, Note_on_c, 0, 62, 0
3, 89883, Note_on_c, 0, 65, 0
3, 89980, Note_on_c, 0, 71, 0
3, 90007, Note_on_c, 0, 68, 0
3, 91575, Note_on_c, 0, 71, 43
3, 91592, Note_on_c, 0, 79, 50
3, 91729, Note_on_c, 0, 62, 17
3, 91783, Note_on_c, 0, 68, 9
3, 91824, Control_c, 0, 64, 0
3, 92361, Control_c, 0, 64, 127
3, 93584, Note_on_c, 0, 79, 0
3, 93755, Note_on_c, 0, 62, 0
3, 93913, Note_on_c, 0, 77, 37
3, 94165, Note_on_c, 0, 56, 0
3, 94857, Note_on_c, 0, 71, 0
3, 94961, Note_on_c, 0, 77, 0
3, 95075, Note_on_c, 0, 68, 0
3, 99388, Note_on_c, 0, 77, 49
3, 99411, Note_on_c, 0, 62, 30
3, 99418, Note_on_c, 0, 70, 42
3, 99499, Control_c, 0, 64, 0
3, 99526, Note_on_c, 0, 67, 25
3, 100040, Control_c, 0, 64, 127
3, 101051, Note_on_c, 0, 67, 0
3, 101427, Note_on_c, 0, 70, 0
3, 101790, Note_on_c, 0, 77, 0
3, 102415, Note_on_c, 0, 75, 44
3, 102442, Note_on_c, 0, 70, 45
3, 102468, Note_on_c, 0, 65, 30
3, 102492, Note_on_c, 0, 62, 0
3, 102539, Note_on_c, 0, 60, 28
3, 102633, Control_c, 0, 64, 0
3, 103477, Control_c, 0, 64, 127
3, 104507, Note_on_c, 0, 60, 0
3, 105206, Note_on_c, 0, 65, 0
3, 105266, Note_on_c, 0, 75, 0
3, 105770, Note_on_c, 0, 70, 0
3, 106602, Note_on_c, 0, 74, 48
3, 106636, Note_on_c, 0, 54, 29
3, 106649, Note_on_c, 0, 70, 29
3, 106699, Note_on_c, 0, 65, 26
3, 106740, Control_c, 0, 64, 0
3, 106754, Note_on_c, 0, 60, 17
3, 107653, Control_c, 0, 64, 127
3, 108915, Note_on_c, 0, 65, 0
3, 109103, Note_on_c, 0, 60, 0
3, 109906, Note_on_c, 0, 70, 0
3, 109933, Note_on_c, 0, 74, 0
3, 110110, Note_on_c, 0, 54, 0
3, 110191, Note_on_c, 0, 72, 24
3, 110211, Note_on_c, 0, 64, 24
3, 110218, Note_on_c, 0, 50, 23
3, 110228, Note_on_c, 0, 68, 28
3, 110245, Control_c, 0, 64, 0
3, 110308, Note_on_c, 0, 60, 22
3, 111457, Control_c, 0, 64, 127
3, 113002, Note_on_c, 0, 60, 0
3, 113180, Note_on_c, 0, 50, 0
3, 116243, Note_on_c, 0, 72, 0
3, 116249, Note_on_c, 0, 43, 50
3, 116293, Note_on_c, 0, 64, 0
3, 116577, Note_on_c, 0, 43, 0
3, 116987, Note_on_c, 0, 68, 0
3, 117721, Control_c, 0, 64, 0
3, 117751, Note_on_c, 0, 70, 56
3, 117755, Note_on_c, 0, 63, 48
3, 117788, Note_on_c, 0, 67, 53
3, 117802, Note_on_c, 0, 53, 45
3, 117822, Note_on_c, 0, 59, 33
3, 117990, Control_c, 0, 64, 127
3, 118607, Note_on_c, 0, 67, 0
3, 118725, Note_on_c, 0, 70, 0
3, 118748, Note_on_c, 0, 59, 0
3, 118819, Note_on_c, 0, 53, 0
3, 119224, Note_on_c, 0, 63, 0
3, 119775, Note_on_c, 0, 75, 52
3, 119808, Control_c, 0, 64, 0
3, 119855, Note_on_c, 0, 68, 34
3, 119859, Note_on_c, 0, 52, 42
3, 119865, Note_on_c, 0, 64, 42
3, 119876, Note_on_c, 0, 72, 26
3, 119916, Note_on_c, 0, 58, 13
3, 120686, Control_c, 0, 64, 127
3, 121011, Note_on_c, 0, 64, 0
3, 121155, Note_on_c, 0, 72, 0
3, 121192, Note_on_c, 0, 52, 0
3, 121236, Note_on_c, 0, 68, 0
3, 121411, Note_on_c, 0, 75, 0
3, 121454, Note_on_c, 0, 58, 0
3, 124113, Note_on_c, 0, 80, 52
3, 124130, Note_on_c, 0, 77, 26
3, 124143, Note_on_c, 0, 74, 44
3, 124187, Control_c, 0, 64, 0
3, 124194, Note_on_c, 0, 69, 30
3, 124210, Note_on_c, 0, 63, 24
3, 124220, Note_on_c, 0, 57, 38
3, 125029, Control_c, 0, 64, 127
3, 126040, Note_on_c, 0, 80, 0
3, 126158, Note_on_c, 0, 69, 0
3, 126171, Note_on_c, 0, 74, 0
3, 126282, Note_on_c, 0, 77, 0
3, 126771, Note_on_c, 0, 80, 56
3, 126899, Note_on_c, 0, 63, 0
3, 126982, Note_on_c, 0, 57, 0
3, 127619, Note_on_c, 0, 80, 0
3, 128808, Note_on_c, 0, 79, 36
3, 128831, Note_on_c, 0, 71, 36
3, 128912, Note_on_c, 0, 74, 36
3, 128918, Note_on_c, 0, 67, 24
3, 128926, Note_on_c, 0, 46, 23
3, 128969, Control_c, 0, 64, 0
3, 128992, Note_on_c, 0, 56, 13
3, 130517, Control_c, 0, 64, 127
3, 131397, Note_on_c, 0, 46, 0
3, 131856, Note_on_c, 0, 46, 44
3, 132349, Note_on_c, 0, 79, 0
3, 132551, Note_on_c, 0, 46, 0
3, 132672, Note_on_c, 0, 74, 0
3, 132676, Note_on_c, 0, 56, 0
3, 132877, Note_on_c, 0, 71, 0
3, 133371, Note_on_c, 0, 67, 0
3, 134053, Note_on_c, 0, 51, 59
3, 134157, Control_c, 0, 64, 0
3, 134592, Control_c, 0, 64, 127
3, 135402, Control_c, 0, 64, 0
3, 135466, Note_on_c, 0, 69, 62
3, 135482, Note_on_c, 0, 77, 56
3, 135486, Note_on_c, 0, 62, 59
3, 135516, Note_on_c, 0, 66, 52
3, 135540, Note_on_c, 0, 74, 40
3, 135976, Control_c, 0, 64, 127
3, 135983, Note_on_c, 0, 69, 0
3, 136017, Note_on_c, 0, 74, 0
3, 136242, Note_on_c, 0, 66, 0
3, 136339, Note_on_c, 0, 62, 0
3, 136449, Note_on_c, 0, 77, 0
3, 137004, Note_on_c, 0, 75, 62
3, 137064, Note_on_c, 0, 70, 52
3, 137081, Control_c, 0, 64, 0
3, 137094, Note_on_c, 0, 60, 37
3, 137121, Note_on_c, 0, 65, 25
3, 137692, Control_c, 0, 64, 127
3, 138255, Note_on_c, 0, 75, 0
3, 138305, Note_on_c, 0, 60, 0
3, 138346, Note_on_c, 0, 51, 0
3, 138466, Note_on_c, 0, 65, 0
3, 138534, Note_on_c, 0, 70, 0
3, 138977, Note_on_c, 0, 50, 9
3, 139008, Note_on_c, 0, 70, 44
3, 139022, Note_on_c, 0, 74, 52
3, 139031, Note_on_c, 0, 65, 45
3, 139068, Control_c, 0, 64, 0
3, 139092, Note_on_c, 0, 60, 39
3, 140150, Control_c, 0, 64, 127
3, 140751, Note_on_c, 0, 65, 0
3, 140949, Note_on_c, 0, 70, 0
3, 141120, Note_on_c, 0, 74, 0
3, 141308, Note_on_c, 0, 72, 33
3, 141335, Note_on_c, 0, 60, 0
3, 141348, Note_on_c, 0, 68, 28
3, 141358, Note_on_c, 0, 54, 26
3, 141395, Note_on_c, 0, 64, 23
3, 141499, Control_c, 0, 64, 0
3, 141634, Control_c, 0, 64, 127
3, 142686, Note_on_c, 0, 50, 0
3, 142700, Note_on_c, 0, 54, 0
3, 143038, Note_on_c, 0, 64, 0
3, 143170, Note_on_c, 0, 72, 0
3, 143357, Note_on_c, 0, 68, 0
3, 144685, Note_on_c, 0, 63, 38
3, 144714, Note_on_c, 0, 70, 36
3, 144724, Note_on_c, 0, 67, 40
3, 144748, Note_on_c, 0, 43, 28
3, 144765, Control_c, 0, 64, 0
3, 144792, Note_on_c, 0, 53, 18
3, 145507, Control_c, 0, 64, 127
3, 146511, Note_on_c, 0, 67, 0
3, 146518, Note_on_c, 0, 53, 0
3, 147038, Note_on_c, 0, 63, 0
3, 147119, Note_on_c, 0, 70, 0
3, 147750, Note_on_c, 0, 62, 26
3, 147757, Note_on_c, 0, 68, 39
3, 147784, Note_on_c, 0, 65, 33
3, 147807, Note_on_c, 0, 53, 25
3, 149205, Note_on_c, 0, 68, 0
3, 149564, Note_on_c, 0, 65, 0
3, 149591, Note_on_c, 0, 53, 0
3, 149602, Note_on_c, 0, 62, 0
3, 150152, Note_on_c, 0, 43, 0
3, 151196, Note_on_c, 0, 67, 46
3, 151203, Note_on_c, 0, 63, 31
3, 151230, Control_c, 0, 64, 0
3, 151253, Note_on_c, 0, 59, 25
3, 151324, Note_on_c, 0, 43, 26
3, 151337, Note_on_c, 0, 53, 20
3, 152041, Control_c, 0, 64, 127
3, 152615, Note_on_c, 0, 59, 0
3, 153039, Note_on_c, 0, 43, 0
3, 153147, Note_on_c, 0, 63, 0
3, 153163, Note_on_c, 0, 67, 0
3, 153382, Note_on_c, 0, 53, 0
3, 157439, Note_on_c, 0, 43, 27
3, 157440, Control_c, 0, 64, 0
3, 157523, Note_on_c, 0, 55, 24
3, 159018, Note_on_c, 0, 43, 0
3, 159051, Note_on_c, 0, 55, 0
3, 159391, Note_on_c, 0, 43, 28
3, 159485, Note_on_c, 0, 55, 23
3, 160956, Note_on_c, 0, 43, 0
3, 160959, Note_on_c, 0, 55, 0
3, 161335, Note_on_c, 0, 43, 36
3, 161426, Note_on_c, 0, 55, 19
3, 162934, Note_on_c, 0, 55, 0
3, 162974, Note_on_c, 0, 43, 0
3, 163324, Note_on_c, 0, 43, 32
3, 163351, Note_on_c, 0, 55, 17
3, 164416, Note_on_c, 0, 43, 0
3, 164510, Note_on_c, 0, 55, 0
3, 164752, Note_on_c, 0, 56, 61
3, 165061, Note_on_c, 0, 56, 0
3, 165202, Note_on_c, 0, 43, 38
3, 165263, Note_on_c, 0, 58, 67
3, 165266, Note_on_c, 0, 55, 34
3, 165665, Note_on_c, 0, 58, 0
3, 165786, Note_on_c, 0, 60, 60
3, 165854, Note_on_c, 0, 55, 0
3, 166049, Note_on_c, 0, 43, 0
3, 166234, Note_on_c, 0, 60, 0
3, 166250, Note_on_c, 0, 58, 59
3, 166771, Note_on_c, 0, 56, 41
3, 166845, Note_on_c, 0, 58, 0
3, 167100, Note_on_c, 0, 43, 25
3, 167174, Note_on_c, 0, 56, 0
3, 167211, Note_on_c, 0, 55, 31
3, 167768, Note_on_c, 0, 55, 0
3, 168178, Note_on_c, 0, 55, 46
3, 168473, Note_on_c, 0, 43, 0
3, 168765, Note_on_c, 0, 55, 0
3, 169182, Note_on_c, 0, 43, 19
3, 169283, Note_on_c, 0, 50, 12
3, 169297, Note_on_c, 0, 55, 45
3, 169488, Note_on_c, 0, 50, 0
3, 169905, Note_on_c, 0, 43, 0
3, 169992, Note_on_c, 0, 55, 0
3, 170103, Note_on_c, 0, 53, 24
3, 170856, Note_on_c, 0, 53, 0
3, 171006, Note_on_c, 0, 43, 14
3, 171037, Note_on_c, 0, 31, 20
3, 171084, Note_on_c, 0, 55, 28
3, 172306, Note_on_c, 0, 31, 0
3, 172501, Note_on_c, 0, 43, 0
3, 173019, Note_on_c, 0, 43, 16
3, 173053, Note_on_c, 0, 31, 27
3, 174470, Note_on_c, 0, 31, 0
3, 174580, Note_on_c, 0, 43, 0
3, 174876, Note_on_c, 0, 43, 63
3, 174883, Note_on_c, 0, 31, 67
3, 176300, Note_on_c, 0, 31, 0
3, 176485, Note_on_c, 0, 43, 0
3, 176734, Note_on_c, 0, 43, 18
3, 176760, Note_on_c, 0, 31, 26
3, 178000, Note_on_c, 0, 31, 0
3, 178252, Note_on_c, 0, 43, 0
3, 178504, Note_on_c, 0, 43, 24
3, 178521, Note_on_c, 0, 31, 32
3, 179932, Note_on_c, 0, 55, 0
3, 180037, Note_on_c, 0, 43, 0
3, 180134, Note_on_c, 0, 38, 20
3, 180460, Note_on_c, 0, 43, 29
3, 180537, Note_on_c, 0, 55, 17
3, 180618, Note_on_c, 0, 38, 0
3, 180974, Note_on_c, 0, 31, 0
3, 181038, Note_on_c, 0, 43, 0
3, 181437, Note_on_c, 0, 41, 72
3, 181441, Note_on_c, 0, 29, 68
3, 181910, Note_on_c, 0, 55, 0
3, 182182, Note_on_c, 0, 29, 0
3, 182233, Note_on_c, 0, 41, 0
3, 182490, Note_on_c, 0, 31, 55
3, 182500, Note_on_c, 0, 43, 46
3, 182516, Note_on_c, 0, 55, 21
3, 183956, Note_on_c, 0, 38, 28
3, 183990, Note_on_c, 0, 55, 0
3, 184090, Note_on_c, 0, 43, 0
3, 184215, Note_on_c, 0, 31, 0
3, 184416, Note_on_c, 0, 55, 41
3, 184430, Note_on_c, 0, 43, 28
3, 184473, Note_on_c, 0, 31, 11
3, 184477, Note_on_c, 0, 38, 0
3, 184846, Note_on_c, 0, 55, 0
3, 184887, Note_on_c, 0, 53, 39
3, 185145, Note_on_c, 0, 53, 0
3, 185438, Note_on_c, 0, 38, 12
3, 185448, Note_on_c, 0, 55, 16
3, 185646, Note_on_c, 0, 43, 0
3, 185790, Note_on_c, 0, 31, 0
3, 185827, Note_on_c, 0, 56, 62
3, 185982, Note_on_c, 0, 55, 0
3, 186015, Note_on_c, 0, 38, 0
3, 186166, Note_on_c, 0, 43, 27
3, 186213, Note_on_c, 0, 31, 17
3, 186244, Note_on_c, 0, 58, 65
3, 186412, Note_on_c, 0, 56, 0
3, 187309, Note_on_c, 0, 38, 22
3, 187350, Note_on_c, 0, 55, 25
3, 187477, Note_on_c, 0, 55, 0
3, 187548, Note_on_c, 0, 58, 0
3, 187634, Note_on_c, 0, 31, 0
3, 187739, Note_on_c, 0, 38, 0
3, 188195, Note_on_c, 0, 31, 26
3, 189636, Note_on_c, 0, 43, 0
3, 189657, Note_on_c, 0, 38, 9
3, 189865, Note_on_c, 0, 31, 0
3, 190084, Note_on_c, 0, 31, 5
3, 190140, Note_on_c, 0, 43, 23
3, 190265, Note_on_c, 0, 38, 0
3, 191709, Note_on_c, 0, 43, 0
3, 191760, Note_on_c, 0, 38, 24
3, 191803, Note_on_c, 0, 31, 0
3, 192095, Note_on_c, 0, 38, 0
3, 192112, Note_on_c, 0, 43, 22
3, 192186, Note_on_c, 0, 31, 7
3, 193658, Note_on_c, 0, 43, 0
3, 193698, Note_on_c, 0, 38, 29
3, 193725, Note_on_c, 0, 31, 0
3, 193980, Note_on_c, 0, 31, 8
3, 193997, Note_on_c, 0, 38, 0
3, 194013, Note_on_c, 0, 43, 24
3, 194916, Note_on_c, 0, 43, 0
3, 194930, Note_on_c, 0, 38, 47
3, 195034, Note_on_c, 0, 63, 60
3, 195044, Note_on_c, 0, 60, 64
3, 195047, Note_on_c, 0, 56, 54
3, 195051, Note_on_c, 0, 55, 62
3, 195088, Note_on_c, 0, 43, 16
3, 195118, Note_on_c, 0, 57, 42
3, 195232, Note_on_c, 0, 57, 0
3, 195256, Note_on_c, 0, 38, 0
3, 195501, Note_on_c, 0, 55, 0
3, 195548, Note_on_c, 0, 60, 0
3, 195552, Note_on_c, 0, 56, 0
3, 195696, Note_on_c, 0, 63, 0
3, 195703, Note_on_c, 0, 43, 0
3, 195773, Note_on_c, 0, 38, 43
3, 196035, Note_on_c, 0, 56, 74
3, 196039, Note_on_c, 0, 58, 63
3, 196045, Note_on_c, 0, 65, 66
3, 196052, Note_on_c, 0, 62, 68
3, 196069, Note_on_c, 0, 43, 40
3, 196156, Note_on_c, 0, 38, 0
3, 196647, Note_on_c, 0, 65, 0
3, 196889, Note_on_c, 0, 58, 0
3, 196912, Note_on_c, 0, 62, 0
3, 197228, Note_on_c, 0, 56, 0
3, 197332, Note_on_c, 0, 38, 41
3, 197433, Note_on_c, 0, 43, 0
3, 197584, Note_on_c, 0, 67, 59
3, 197621, Note_on_c, 0, 58, 44
3, 197641, Note_on_c, 0, 60, 53
3, 197688, Note_on_c, 0, 63, 18
3, 197738, Note_on_c, 0, 43, 29
3, 197765, Note_on_c, 0, 38, 0
3, 197792, Note_on_c, 0, 58, 0
3, 197802, Note_on_c, 0, 60, 0
3, 197879, Note_on_c, 0, 67, 0
3, 197947, Note_on_c, 0, 63, 0
3, 198595, Note_on_c, 0, 31, 0
3, 198914, Note_on_c, 0, 31, 26
3, 198975, Note_on_c, 0, 38, 1
3, 199368, Note_on_c, 0, 31, 0
3, 199462, Note_on_c, 0, 38, 0
3, 199775, Note_on_c, 0, 31, 32
3, 199966, Note_on_c, 0, 56, 11
3, 200218, Note_on_c, 0, 55, 1
3, 200994, Note_on_c, 0, 55, 0
3, 201031, Note_on_c, 0, 56, 0
3, 201155, Note_on_c, 0, 43, 0
3, 201175, Note_on_c, 0, 38, 25
3, 201555, Note_on_c, 0, 38, 0
3, 201659, Note_on_c, 0, 43, 16
3, 202298, Note_on_c, 0, 31, 0
3, 202586, Note_on_c, 0, 58, 28
3, 202600, Note_on_c, 0, 31, 46
3, 202630, Note_on_c, 0, 53, 31
3, 202637, Note_on_c, 0, 62, 37
3, 202660, Note_on_c, 0, 55, 29
3, 203127, Note_on_c, 0, 31, 0
3, 203147, Note_on_c, 0, 55, 0
3, 203201, Note_on_c, 0, 53, 0
3, 203228, Note_on_c, 0, 58, 0
3, 203497, Note_on_c, 0, 31, 26
3, 203604, Note_on_c, 0, 58, 17
3, 203645, Note_on_c, 0, 53, 18
3, 204383, Note_on_c, 0, 53, 0
3, 204592, Note_on_c, 0, 38, 27
3, 204709, Note_on_c, 0, 43, 0
3, 204958, Note_on_c, 0, 58, 0
3, 205139, Note_on_c, 0, 62, 0
3, 205257, Note_on_c, 0, 55, 29
3, 205304, Note_on_c, 0, 38, 0
3, 205310, Note_on_c, 0, 43, 26
3, 205398, Note_on_c, 0, 55, 0
3, 205630, Note_on_c, 0, 43, 0
3, 206333, Note_on_c, 0, 43, 24
3, 206645, Note_on_c, 0, 31, 0
3, 207282, Note_on_c, 0, 31, 28
3, 207954, Note_on_c, 0, 31, 0
3, 208801, Note_on_c, 0, 31, 47
3, 208891, Note_on_c, 0, 43, 0
3, 209217, Note_on_c, 0, 43, 38
3, 209671, Note_on_c, 0, 43, 0
3, 210232, Note_on_c, 0, 51, 61
3, 210238, Note_on_c, 0, 43, 47
3, 210296, Note_on_c, 0, 55, 57
3, 210315, Note_on_c, 0, 58, 45
3, 210695, Note_on_c, 0, 43, 0
3, 210809, Note_on_c, 0, 51, 0
3, 210836, Note_on_c, 0, 55, 0
3, 210893, Note_on_c, 0, 58, 0
3, 211236, Note_on_c, 0, 43, 52
3, 211253, Note_on_c, 0, 51, 61
3, 211280, Note_on_c, 0, 55, 61
3, 211283, Note_on_c, 0, 58, 43
3, 212161, Note_on_c, 0, 55, 0
3, 212238, Note_on_c, 0, 51, 0
3, 212460, Note_on_c, 0, 43, 0
3, 212483, Note_on_c, 0, 38, 32
3, 212624, Note_on_c, 0, 56, 51
3, 212671, Note_on_c, 0, 38, 0
3, 212678, Note_on_c, 0, 60, 44
3, 212681, Note_on_c, 0, 53, 50
3, 212695, Note_on_c, 0, 58, 0
3, 212762, Note_on_c, 0, 43, 36
3, 212796, Note_on_c, 0, 53, 0
3, 212923, Note_on_c, 0, 56, 0
3, 212970, Note_on_c, 0, 60, 0
3, 213709, Note_on_c, 0, 43, 0
3, 214115, Note_on_c, 0, 43, 30
3, 214830, Note_on_c, 0, 43, 0
3, 215122, Note_on_c, 0, 56, 29
3, 215129, Note_on_c, 0, 53, 36
3, 215166, Note_on_c, 0, 43, 28
3, 215169, Note_on_c, 0, 60, 34
3, 216141, Note_on_c, 0, 53, 0
3, 216174, Note_on_c, 0, 60, 0
3, 216218, Note_on_c, 0, 56, 0
3, 216228, Note_on_c, 0, 43, 0
3, 216433, Note_on_c, 0, 56, 27
3, 216443, Note_on_c, 0, 53, 43
3, 216527, Note_on_c, 0, 60, 16
3, 216553, Note_on_c, 0, 43, 28
3, 216732, Note_on_c, 0, 53, 0
3, 216916, Note_on_c, 0, 53, 10
3, 217736, Note_on_c, 0, 53, 0
3, 217827, Note_on_c, 0, 60, 0
3, 217881, Note_on_c, 0, 38, 42
3, 218059, Note_on_c, 0, 56, 0
3, 218381, Note_on_c, 0, 43, 0
3, 218982, Note_on_c, 0, 60, 32
3, 218996, Note_on_c, 0, 63, 22
3, 218999, Note_on_c, 0, 38, 0
3, 219016, Note_on_c, 0, 55, 16
3, 219039, Note_on_c, 0, 43, 27
3, 219046, Note_on_c, 0, 56, 19
3, 219379, Note_on_c, 0, 63, 0
3, 219993, Note_on_c, 0, 43, 0
3, 220000, Note_on_c, 0, 55, 0
3, 220044, Note_on_c, 0, 56, 0
3, 220047, Note_on_c, 0, 60, 0
3, 220360, Note_on_c, 0, 55, 30
3, 220383, Note_on_c, 0, 56, 25
3, 220417, Note_on_c, 0, 43, 26
3, 220423, Note_on_c, 0, 60, 38
3, 220658, Note_on_c, 0, 55, 0
3, 220864, Note_on_c, 0, 60, 0
3, 220978, Note_on_c, 0, 56, 0
3, 221176, Note_on_c, 0, 43, 0
3, 221866, Note_on_c, 0, 60, 50
3, 221913, Note_on_c, 0, 43, 28
3, 221916, Note_on_c, 0, 55, 40
3, 221927, Note_on_c, 0, 56, 26
3, 222758, Control_c, 0, 64, 127
3, 223262, Note_on_c, 0, 43, 0
3, 223732, Note_on_c, 0, 43, 40
3, 224668, Note_on_c, 0, 31, 0
3, 225641, Note_on_c, 0, 31, 76
3, 226338, Note_on_c, 0, 31, 0
3, 226668, Note_on_c, 0, 31, 71
3, 226866, Control_c, 0, 64, 0
3, 227270, Control_c, 0, 64, 127
3, 227784, Note_on_c, 0, 56, 0
3, 228039, Note_on_c, 0, 43, 0
3, 228079, Note_on_c, 0, 55, 0
3, 228425, Note_on_c, 0, 60, 0
3, 228647, Control_c, 0, 64, 0
3, 228683, Note_on_c, 0, 43, 35
3, 229244, Note_on_c, 0, 43, 0
3, 229695, Note_on_c, 0, 43, 41
3, 230569, Control_c, 0, 64, 127
3, 231046, Note_on_c, 0, 31, 0
3, 231462, Note_on_c, 0, 31, 32
3, 231479, Control_c, 0, 64, 0
3, 231496, Note_on_c, 0, 59, 41
3, 231502, Note_on_c, 0, 62, 30
3, 231506, Note_on_c, 0, 55, 21
3, 232388, Control_c, 0, 64, 127
3, 232701, Note_on_c, 0, 31, 0
3, 233236, Note_on_c, 0, 59, 0
3, 233309, Note_on_c, 0, 31, 41
3, 233679, Note_on_c, 0, 55, 0
3, 233803, Note_on_c, 0, 43, 0
3, 234277, Note_on_c, 0, 43, 43
3, 234307, Note_on_c, 0, 62, 0
3, 235037, Note_on_c, 0, 43, 0
3, 235265, Note_on_c, 0, 63, 74
3, 235268, Note_on_c, 0, 56, 79
3, 235291, Note_on_c, 0, 55, 83
3, 235305, Note_on_c, 0, 60, 68
3, 235369, Note_on_c, 0, 43, 36
3, 235486, Control_c, 0, 64, 0
3, 236255, Note_on_c, 0, 43, 0
3, 236329, Control_c, 0, 64, 127
3, 236830, Note_on_c, 0, 43, 56
3, 236934, Control_c, 0, 64, 0
3, 237136, Note_on_c, 0, 43, 0
3, 238221, Note_on_c, 0, 43, 69
3, 238855, Control_c, 0, 64, 127
3, 239184, Note_on_c, 0, 43, 0
3, 239490, Note_on_c, 0, 43, 56
3, 239524, Note_on_c, 0, 55, 0
3, 239641, Note_on_c, 0, 60, 0
3, 239725, Note_on_c, 0, 56, 0
3, 239846, Note_on_c, 0, 63, 0
3, 240522, Note_on_c, 0, 38, 50
3, 240559, Note_on_c, 0, 43, 0
3, 240874, Control_c, 0, 64, 0
3, 240925, Note_on_c, 0, 65, 72
3, 240928, Note_on_c, 0, 43, 56
3, 240931, Note_on_c, 0, 56, 75
3, 240935, Note_on_c, 0, 58, 68
3, 240948, Note_on_c, 0, 62, 63
3, 241012, Note_on_c, 0, 38, 0
3, 241274, Note_on_c, 0, 56, 0
3, 241291, Note_on_c, 0, 62, 0
3, 241338, Note_on_c, 0, 65, 0
3, 241345, Note_on_c, 0, 58, 0
3, 241455, Note_on_c, 0, 31, 0
3, 242000, Note_on_c, 0, 31, 43
3, 242657, Note_on_c, 0, 31, 0
3, 243054, Note_on_c, 0, 31, 42
3, 243512, Note_on_c, 0, 43, 0
3, 243982, Note_on_c, 0, 43, 38
3, 244355, Note_on_c, 0, 43, 0
3, 244899, Note_on_c, 0, 55, 53
3, 244902, Note_on_c, 0, 63, 40
3, 244922, Note_on_c, 0, 58, 41
3, 244939, Note_on_c, 0, 43, 43
3, 244959, Note_on_c, 0, 60, 33
3, 245060, Note_on_c, 0, 55, 0
3, 245117, Note_on_c, 0, 60, 0
3, 245194, Note_on_c, 0, 63, 0
3, 245218, Note_on_c, 0, 58, 0
3, 245285, Note_on_c, 0, 31, 0
3, 246515, Note_on_c, 0, 43, 0
3, 246810, Note_on_c, 0, 62, 40
3, 246820, Note_on_c, 0, 53, 31
3, 246840, Note_on_c, 0, 43, 37
3, 246850, Note_on_c, 0, 55, 38
3, 246860, Note_on_c, 0, 58, 43
3, 247613, Control_c, 0, 64, 127
3, 248252, Note_on_c, 0, 43, 0
3, 248758, Note_on_c, 0, 43, 30
3, 248933, Note_on_c, 0, 43, 0
3, 249329, Control_c, 0, 64, 0
3, 249702, Note_on_c, 0, 31, 44
3, 249705, Note_on_c, 0, 43, 36
3, 250102, Control_c, 0, 64, 127
3, 250861, Note_on_c, 0, 31, 0
3, 251083, Note_on_c, 0, 43, 0
3, 251147, Control_c, 0, 64, 0
3, 251620, Control_c, 0, 64, 127
3, 251691, Note_on_c, 0, 31, 32
3, 251708, Note_on_c, 0, 43, 22
3, 252242, Note_on_c, 0, 31, 0
3, 252460, Note_on_c, 0, 43, 0
3, 252766, Note_on_c, 0, 53, 0
3, 253062, Note_on_c, 0, 55, 0
3, 253518, Note_on_c, 0, 43, 28
3, 253663, Note_on_c, 0, 55, 28
3, 254120, Note_on_c, 0, 58, 0
3, 254594, Note_on_c, 0, 55, 0
3, 254867, Note_on_c, 0, 43, 0
3, 254899, Note_on_c, 0, 62, 0
3, 255403, Note_on_c, 0, 43, 35
3, 255447, Note_on_c, 0, 55, 31
3, 255765, Note_on_c, 0, 55, 0
3, 255768, Note_on_c, 0, 43, 0
3, 256400, Note_on_c, 0, 67, 54
3, 256736, Note_on_c, 0, 67, 0
3, 257378, Control_c, 0, 64, 0
3, 257401, Note_on_c, 0, 79, 81
3, 257405, Note_on_c, 0, 55, 53
3, 257543, Control_c, 0, 64, 127
3, 258453, Note_on_c, 0, 69, 36
3, 258460, Note_on_c, 0, 67, 20
3, 258752, Note_on_c, 0, 67, 0
3, 258927, Note_on_c, 0, 69, 0
3, 258960, Note_on_c, 0, 79, 0
3, 259320, Note_on_c, 0, 70, 35
3, 259343, Note_on_c, 0, 67, 27
3, 259914, Note_on_c, 0, 67, 0
3, 259928, Note_on_c, 0, 55, 0
3, 260381, Note_on_c, 0, 55, 16
3, 260552, Note_on_c, 0, 55, 0
3, 261322, Note_on_c, 0, 55, 42
3, 262252, Note_on_c, 0, 67, 27
3, 262366, Note_on_c, 0, 43, 16
3, 262493, Note_on_c, 0, 70, 0
3, 262608, Note_on_c, 0, 43, 0
3, 263090, Note_on_c, 0, 67, 0
3, 263177, Note_on_c, 0, 68, 64
3, 263248, Note_on_c, 0, 43, 54
3, 263342, Control_c, 0, 64, 0
3, 263845, Control_c, 0, 64, 127
3, 263905, Note_on_c, 0, 55, 0
3, 264409, Note_on_c, 0, 68, 0
3, 264684, Note_on_c, 0, 70, 1
3, 265652, Note_on_c, 0, 70, 0
3, 266085, Note_on_c, 0, 58, 20
3, 266203, Note_on_c, 0, 55, 18
3, 266612, Note_on_c, 0, 43, 0
3, 266807, Note_on_c, 0, 58, 0
3, 266915, Note_on_c, 0, 55, 0
3, 267026, Note_on_c, 0, 43, 34
3, 267049, Note_on_c, 0, 56, 34
3, 267210, Control_c, 0, 64, 0
3, 267852, Control_c, 0, 64, 127
3, 268208, Note_on_c, 0, 43, 0
3, 269518, Note_on_c, 0, 56, 0
3, 269716, Note_on_c, 0, 55, 27
3, 269777, Note_on_c, 0, 43, 36
3, 270006, Control_c, 0, 64, 0
3, 270479, Control_c, 0, 64, 127
3, 271494, Note_on_c, 0, 55, 0
3, 271699, Note_on_c, 0, 31, 21
3, 271793, Control_c, 0, 64, 0
3, 271974, Note_on_c, 0, 31, 0
3, 272642, Note_on_c, 0, 55, 46
3, 272646, Note_on_c, 0, 31, 42
3, 273106, Control_c, 0, 64, 127
3, 273905, Note_on_c, 0, 31, 0
3, 274208, Note_on_c, 0, 31, 21
3, 274729, Note_on_c, 0, 31, 0
3, 275545, Note_on_c, 0, 31, 36
3, 276720, Note_on_c, 0, 31, 0
3, 278229, Note_on_c, 0, 55, 0
3, 278424, Note_on_c, 0, 31, 11
3, 278679, Note_on_c, 0, 31, 0
3, 279327, Note_on_c, 0, 31, 32
3, 279717, Note_on_c, 0, 31, 0
3, 280113, Note_on_c, 0, 43, 0
3, 280484, Note_on_c, 0, 31, 18
3, 280487, Note_on_c, 0, 43, 11
3, 280514, Control_c, 0, 64, 0
3, 280520, Note_on_c, 0, 50, 16
3, 280534, Note_on_c, 0, 55, 14
3, 281120, Control_c, 0, 64, 127
3, 281241, Note_on_c, 0, 50, 0
3, 281309, Note_on_c, 0, 31, 0
3, 281362, Note_on_c, 0, 43, 0
3, 281399, Note_on_c, 0, 55, 0
3, 281823, Note_on_c, 0, 55, 27
3, 281826, Note_on_c, 0, 31, 22
3, 281836, Note_on_c, 0, 43, 17
3, 282098, Note_on_c, 0, 31, 0
3, 282125, Note_on_c, 0, 43, 0
3, 282142, Note_on_c, 0, 55, 0
3, 283133, Note_on_c, 0, 50, 21
3, 283140, Note_on_c, 0, 31, 21
3, 283145, Control_c, 0, 64, 0
3, 283146, Note_on_c, 0, 55, 25
3, 283173, Note_on_c, 0, 43, 16
3, 283610, Control_c, 0, 64, 127
3, 283986, Note_on_c, 0, 50, 0
3, 284235, Note_on_c, 0, 55, 0
3, 288961, Note_on_c, 0, 31, 0
3, 288961, Note_on_c, 0, 43, 0
3, 292511, Note_on_c, 0, 67, 79
3, 292704, Control_c, 0, 64, 0
3, 293892, Control_c, 0, 64, 127
3, 294057, Note_on_c, 0, 67, 0
3, 294242, Note_on_c, 0, 67, 46
3, 295088, Note_on_c, 0, 67, 0
3, 295223, Note_on_c, 0, 36, 30
3, 295394, Note_on_c, 0, 66, 45
3, 295428, Note_on_c, 0, 57, 32
3, 295458, Note_on_c, 0, 62, 44
3, 295555, Control_c, 0, 64, 0
3, 295908, Note_on_c, 0, 52, 1
3, 296025, Control_c, 0, 64, 127
3, 296382, Note_on_c, 0, 57, 0
3, 296563, Note_on_c, 0, 62, 0
3, 296694, Note_on_c, 0, 66, 0
3, 296718, Note_on_c, 0, 43, 33
3, 296940, Note_on_c, 0, 52, 0
3, 297534, Note_on_c, 0, 36, 0
3, 297712, Note_on_c, 0, 43, 0
3, 297810, Note_on_c, 0, 81, 54
3, 297823, Note_on_c, 0, 74, 55
3, 297904, Note_on_c, 0, 52, 17
3, 298028, Note_on_c, 0, 52, 0
3, 298646, Note_on_c, 0, 74, 0
3, 298740, Note_on_c, 0, 81, 0
3, 298824, Note_on_c, 0, 78, 36
3, 298865, Note_on_c, 0, 74, 21
3, 298875, Note_on_c, 0, 69, 50
3, 298878, Note_on_c, 0, 52, 47
3, 299974, Note_on_c, 0, 59, 49
3, 299977, Note_on_c, 0, 69, 0
3, 300135, Note_on_c, 0, 74, 0
3, 300505, Note_on_c, 0, 78, 0
3, 300948, Note_on_c, 0, 52, 0
3, 301009, Note_on_c, 0, 71, 47
3, 301059, Note_on_c, 0, 59, 0
3, 301073, Note_on_c, 0, 76, 52
3, 301106, Note_on_c, 0, 64, 41
3, 301401, Note_on_c, 0, 76, 0
3, 301942, Note_on_c, 0, 71, 0
3, 302171, Note_on_c, 0, 76, 58
3, 302202, Note_on_c, 0, 66, 37
3, 302205, Note_on_c, 0, 81, 52
3, 302524, Note_on_c, 0, 64, 0
3, 303277, Note_on_c, 0, 81, 0
3, 303411, Note_on_c, 0, 78, 28
3, 303505, Note_on_c, 0, 76, 0
3, 303526, Note_on_c, 0, 69, 17
3, 303697, Note_on_c, 0, 78, 0
3, 304540, Note_on_c, 0, 69, 0
3, 304778, Note_on_c, 0, 81, 44
3, 304799, Note_on_c, 0, 88, 51
3, 305629, Note_on_c, 0, 88, 0
3, 306176, Note_on_c, 0, 81, 0
3, 306307, Note_on_c, 0, 69, 33
3, 306509, Note_on_c, 0, 69, 0
3, 306717, Note_on_c, 0, 66, 0
3, 308236, Note_on_c, 0, 59, 32
3, 309725, Note_on_c, 0, 52, 45
3, 310142, Note_on_c, 0, 59, 0
3, 310954, Note_on_c, 0, 71, 54
3, 310982, Note_on_c, 0, 67, 54
3, 310995, Note_on_c, 0, 59, 39
3, 311754, Note_on_c, 0, 67, 0
3, 311818, Note_on_c, 0, 71, 0
3, 312026, Note_on_c, 0, 64, 36
3, 312046, Note_on_c, 0, 76, 73
3, 312601, Note_on_c, 0, 76, 0
3, 312755, Note_on_c, 0, 52, 0
3, 312786, Note_on_c, 0, 64, 0
3, 313074, Note_on_c, 0, 77, 70
3, 313088, Note_on_c, 0, 69, 64
3, 313095, Note_on_c, 0, 73, 32
3, 313101, Note_on_c, 0, 59, 0
3, 313145, Note_on_c, 0, 52, 26
3, 313266, Control_c, 0, 64, 0
3, 313515, Note_on_c, 0, 73, 0
3, 314009, Control_c, 0, 64, 127
3, 314147, Note_on_c, 0, 60, 39
3, 314187, Note_on_c, 0, 65, 32
3, 314240, Note_on_c, 0, 67, 24
3, 314381, Note_on_c, 0, 67, 0
3, 314751, Note_on_c, 0, 65, 0
3, 314808, Note_on_c, 0, 69, 0
3, 315077, Note_on_c, 0, 77, 0
3, 315423, Note_on_c, 0, 65, 31
3, 315457, Note_on_c, 0, 69, 59
3, 315517, Note_on_c, 0, 81, 52
3, 316162, Note_on_c, 0, 69, 0
3, 316220, Note_on_c, 0, 60, 0
3, 316277, Note_on_c, 0, 81, 0
3, 316596, Note_on_c, 0, 65, 0
3, 316731, Note_on_c, 0, 84, 69
3, 316744, Note_on_c, 0, 72, 51
3, 316898, Note_on_c, 0, 60, 21
3, 317799, Note_on_c, 0, 84, 0
3, 317822, Note_on_c, 0, 52, 0
3, 317997, Note_on_c, 0, 72, 0
3, 318202, Note_on_c, 0, 83, 54
3, 318252, Note_on_c, 0, 71, 56
3, 318276, Note_on_c, 0, 60, 0
3, 318283, Note_on_c, 0, 52, 37
3, 318487, Control_c, 0, 64, 0
3, 318867, Note_on_c, 0, 83, 0
3, 318891, Control_c, 0, 64, 127
3, 319092, Note_on_c, 0, 71, 0
3, 319600, Note_on_c, 0, 79, 42
3, 319643, Note_on_c, 0, 67, 27
3, 319660, Note_on_c, 0, 59, 33
3, 320006, Note_on_c, 0, 79, 0
3, 320305, Note_on_c, 0, 67, 0
3, 320977, Note_on_c, 0, 78, 41
3, 320994, Note_on_c, 0, 64, 23
3, 321007, Note_on_c, 0, 66, 44
3, 321562, Note_on_c, 0, 78, 0
3, 321632, Note_on_c, 0, 66, 0
3, 322022, Note_on_c, 0, 81, 61
3, 322029, Note_on_c, 0, 69, 66
3, 322193, Note_on_c, 0, 64, 0
3, 322291, Note_on_c, 0, 52, 0
3, 322445, Note_on_c, 0, 81, 0
3, 322570, Note_on_c, 0, 69, 0
3, 322906, Note_on_c, 0, 79, 57
3, 322953, Note_on_c, 0, 67, 62
3, 322956, Note_on_c, 0, 52, 31
3, 323050, Note_on_c, 0, 59, 0
3, 323134, Control_c, 0, 64, 0
3, 323607, Control_c, 0, 64, 127
3, 323674, Note_on_c, 0, 79, 0
3, 323876, Note_on_c, 0, 78, 40
3, 323923, Note_on_c, 0, 59, 28
3, 324270, Note_on_c, 0, 78, 0
3, 324622, Note_on_c, 0, 67, 0
3, 324966, Note_on_c, 0, 64, 23
3, 325016, Note_on_c, 0, 76, 45
3, 326135, Note_on_c, 0, 64, 0
3, 326152, Note_on_c, 0, 71, 44
3, 326715, Note_on_c, 0, 52, 0
3, 327075, Note_on_c, 0, 71, 0
3, 327102, Note_on_c, 0, 69, 38
3, 327122, Note_on_c, 0, 76, 0
3, 327684, Note_on_c, 0, 69, 0
3, 327903, Note_on_c, 0, 67, 32
3, 327943, Note_on_c, 0, 59, 0
3, 328756, Note_on_c, 0, 69, 34
3, 328787, Note_on_c, 0, 52, 32
3, 328928, Note_on_c, 0, 67, 0
3, 329129, Control_c, 0, 64, 0
3, 329972, Control_c, 0, 64, 127
3, 329975, Note_on_c, 0, 65, 26
3, 330012, Note_on_c, 0, 57, 39
3, 330936, Note_on_c, 0, 69, 0
3, 331178, Note_on_c, 0, 65, 0
3, 331585, Note_on_c, 0, 65, 36
3, 331611, Note_on_c, 0, 60, 33
3, 332677, Note_on_c, 0, 52, 0
3, 333016, Note_on_c, 0, 67, 60
3, 333023, Note_on_c, 0, 52, 22
3, 333210, Note_on_c, 0, 57, 0
3, 334120, Note_on_c, 0, 65, 0
3, 334204, Note_on_c, 0, 67, 0
3, 334470, Note_on_c, 0, 67, 65
3, 335024, Note_on_c, 0, 60, 0
3, 335667, Note_on_c, 0, 69, 73
3, 335831, Note_on_c, 0, 52, 0
3, 336368, Note_on_c, 0, 67, 0
3, 336721, Note_on_c, 0, 69, 0
3, 336912, Note_on_c, 0, 69, 64
3, 337819, Note_on_c, 0, 69, 0
3, 338021, Note_on_c, 0, 70, 66
3, 338941, Note_on_c, 0, 70, 0
3, 339166, Note_on_c, 0, 70, 55
3, 339233, Note_on_c, 0, 30, 40
3, 339280, Note_on_c, 0, 42, 23
3, 339334, Control_c, 0, 64, 0
3, 339542, Note_on_c, 0, 30, 0
3, 339636, Control_c, 0, 64, 127
3, 339677, Note_on_c, 0, 42, 0
3, 339922, Note_on_c, 0, 70, 0
3, 340083, Note_on_c, 0, 72, 54
3, 340789, Note_on_c, 0, 72, 0
3, 340960, Note_on_c, 0, 54, 31
3, 341004, Note_on_c, 0, 72, 56
3, 341769, Note_on_c, 0, 73, 49
3, 341806, Note_on_c, 0, 58, 36
3, 341934, Note_on_c, 0, 72, 0
3, 342541, Note_on_c, 0, 75, 55
3, 342625, Note_on_c, 0, 60, 39
3, 342814, Note_on_c, 0, 73, 0
3, 343092, Note_on_c, 0, 75, 0
3, 343136, Note_on_c, 0, 60, 0
3, 343171, Note_on_c, 0, 77, 40
3, 343752, Note_on_c, 0, 78, 45
3, 343772, Note_on_c, 0, 77, 0
3, 344044, Note_on_c, 0, 80, 48
3, 344208, Note_on_c, 0, 78, 0
3, 344296, Note_on_c, 0, 60, 32
3, 344470, Note_on_c, 0, 82, 38
3, 344487, Note_on_c, 0, 80, 0
3, 344581, Note_on_c, 0, 82, 0
3, 344668, Note_on_c, 0, 65, 40
3, 344803, Note_on_c, 0, 65, 0
3, 344830, Note_on_c, 0, 54, 0
3, 344860, Note_on_c, 0, 84, 52
3, 344968, Note_on_c, 0, 84, 0
3, 345058, Note_on_c, 0, 60, 0
3, 345142, Note_on_c, 0, 85, 54
3, 345263, Note_on_c, 0, 58, 0
3, 345414, Note_on_c, 0, 85, 0
3, 345498, Note_on_c, 0, 87, 52
3, 345623, Note_on_c, 0, 87, 0
3, 345824, Note_on_c, 0, 89, 50
3, 346167, Note_on_c, 0, 89, 0
3, 346187, Note_on_c, 0, 90, 49
3, 346368, Note_on_c, 0, 92, 53
3, 346640, Note_on_c, 0, 94, 61
3, 346755, Note_on_c, 0, 90, 0
3, 346913, Note_on_c, 0, 92, 0
3, 347081, Note_on_c, 0, 96, 69
3, 347107, Note_on_c, 0, 30, 57
3, 347121, Note_on_c, 0, 42, 55
3, 347154, Note_on_c, 0, 94, 0
3, 347182, Control_c, 0, 64, 0
3, 347551, Control_c, 0, 64, 127
3, 347894, Note_on_c, 0, 30, 0
3, 348089, Note_on_c, 0, 42, 0
3, 348361, Note_on_c, 0, 94, 68
3, 348690, Note_on_c, 0, 96, 0
3, 349089, Note_on_c, 0, 94, 0
3, 349338, Note_on_c, 0, 90, 61
3, 349378, Note_on_c, 0, 96, 58
3, 349385, Note_on_c, 0, 54, 35
3, 350241, Note_on_c, 0, 96, 0
3, 350308, Note_on_c, 0, 89, 59
3, 350352, Note_on_c, 0, 58, 27
3, 350379, Note_on_c, 0, 90, 0
3, 351138, Note_on_c, 0, 89, 0
3, 351427, Note_on_c, 0, 87, 43
3, 351521, Note_on_c, 0, 60, 28
3, 352838, Note_on_c, 0, 84, 32
3, 352864, Note_on_c, 0, 65, 28
3, 353046, Note_on_c, 0, 87, 0
3, 353301, Note_on_c, 0, 60, 0
3, 353678, Note_on_c, 0, 84, 0
3, 354249, Note_on_c, 0, 82, 37
3, 354377, Note_on_c, 0, 60, 26
3, 355646, Note_on_c, 0, 54, 0
3, 356167, Note_on_c, 0, 78, 27
3, 356271, Note_on_c, 0, 54, 17
3, 358219, Note_on_c, 0, 77, 30
3, 358515, Note_on_c, 0, 78, 0
3, 358676, Note_on_c, 0, 82, 0
3, 359940, Note_on_c, 0, 75, 36
3, 360168, Note_on_c, 0, 75, 0
3, 360581, Note_on_c, 0, 77, 0
3, 360894, Note_on_c, 0, 75, 43
3, 361961, Note_on_c, 0, 75, 0
3, 362405, Note_on_c, 0, 75, 47
3, 364048, Note_on_c, 0, 73, 26
3, 365190, Note_on_c, 0, 73, 0
3, 365314, Note_on_c, 0, 75, 0
3, 365603, Note_on_c, 0, 73, 34
3, 366567, Note_on_c, 0, 73, 0
3, 366628, Note_on_c, 0, 72, 49
3, 367391, Note_on_c, 0, 72, 0
3, 367915, Note_on_c, 0, 72, 56
3, 368838, Note_on_c, 0, 65, 0
3, 369308, Note_on_c, 0, 70, 55
3, 370283, Note_on_c, 0, 70, 0
3, 370706, Note_on_c, 0, 72, 0
3, 370817, Note_on_c, 0, 70, 57
3, 372173, Note_on_c, 0, 68, 55
3, 372734, Note_on_c, 0, 70, 0
3, 373097, Note_on_c, 0, 68, 0
3, 373145, Note_on_c, 0, 60, 0
3, 373433, Note_on_c, 0, 68, 59
3, 373696, Note_on_c, 0, 58, 0
3, 373833, Note_on_c, 0, 54, 0
3, 374072, Note_on_c, 0, 68, 0
3, 374502, Note_on_c, 0, 67, 67
3, 375348, Note_on_c, 0, 67, 0
3, 375707, Note_on_c, 0, 63, 43
3, 375734, Note_on_c, 0, 67, 41
3, 375781, Note_on_c, 0, 46, 26
3, 375802, Note_on_c, 0, 56, 19
3, 375976, Control_c, 0, 64, 0
3, 376686, Control_c, 0, 64, 127
3, 376840, Note_on_c, 0, 67, 0
3, 376853, Note_on_c, 0, 65, 50
3, 376867, Note_on_c, 0, 60, 34
3, 376884, Note_on_c, 0, 53, 28
3, 377035, Note_on_c, 0, 56, 0
3, 377351, Note_on_c, 0, 65, 0
3, 377498, Note_on_c, 0, 60, 0
3, 377505, Note_on_c, 0, 63, 0
3, 378136, Note_on_c, 0, 60, 45
3, 378143, Note_on_c, 0, 63, 30
3, 378150, Note_on_c, 0, 56, 17
3, 378429, Note_on_c, 0, 60, 0
3, 378661, Note_on_c, 0, 56, 0
3, 378771, Note_on_c, 0, 46, 0
3, 379073, Note_on_c, 0, 53, 0
3, 379393, Note_on_c, 0, 56, 40
3, 379396, Note_on_c, 0, 60, 56
3, 379497, Note_on_c, 0, 46, 21
3, 379530, Note_on_c, 0, 53, 23
3, 379759, Note_on_c, 0, 53, 0
3, 380078, Note_on_c, 0, 46, 0
3, 380273, Note_on_c, 0, 60, 0
3, 380508, Note_on_c, 0, 56, 0
3, 381056, Note_on_c, 0, 56, 34
3, 381076, Note_on_c, 0, 34, 41
3, 381079, Note_on_c, 0, 46, 29
3, 381089, Note_on_c, 0, 60, 49
3, 381156, Control_c, 0, 64, 0
3, 381496, Control_c, 0, 64, 127
3, 381526, Note_on_c, 0, 34, 0
3, 381805, Note_on_c, 0, 46, 0
3, 382191, Note_on_c, 0, 56, 0
3, 382194, Note_on_c, 0, 60, 0
3, 382701, Note_on_c, 0, 46, 29
3, 382782, Note_on_c, 0, 60, 50
3, 382852, Note_on_c, 0, 56, 13
3, 383642, Note_on_c, 0, 56, 0
3, 383686, Note_on_c, 0, 46, 0
3, 383766, Note_on_c, 0, 60, 0
3, 383971, Note_on_c, 0, 63, 0
3, 384509, Note_on_c, 0, 46, 22
3, 384526, Note_on_c, 0, 56, 18
3, 384529, Note_on_c, 0, 60, 44
3, 384570, Note_on_c, 0, 63, 22
3, 384781, Note_on_c, 0, 56, 0
3, 384966, Note_on_c, 0, 46, 0
3, 385183, Note_on_c, 0, 60, 0
3, 385230, Note_on_c, 0, 63, 0
3, 386085, Note_on_c, 0, 34, 49
3, 386111, Note_on_c, 0, 63, 56
3, 386115, Note_on_c, 0, 46, 29
3, 386121, Note_on_c, 0, 67, 63
3, 386148, Note_on_c, 0, 60, 68
3, 386243, Control_c, 0, 64, 0
3, 386410, Control_c, 0, 64, 127
3, 386444, Note_on_c, 0, 34, 0
3, 386629, Note_on_c, 0, 46, 0
3, 386971, Note_on_c, 0, 60, 0
3, 387002, Note_on_c, 0, 67, 0
3, 387082, Note_on_c, 0, 63, 0
3, 387633, Note_on_c, 0, 46, 51
3, 387636, Note_on_c, 0, 63, 68
3, 387653, Note_on_c, 0, 56, 43
3, 387657, Note_on_c, 0, 60, 80
3, 387673, Note_on_c, 0, 67, 66
3, 388435, Note_on_c, 0, 60, 0
3, 388536, Note_on_c, 0, 67, 0
3, 388586, Note_on_c, 0, 63, 0
3, 388617, Note_on_c, 0, 56, 0
3, 388661, Note_on_c, 0, 46, 0
3, 389423, Note_on_c, 0, 70, 64
3, 389427, Note_on_c, 0, 46, 54
3, 389430, Note_on_c, 0, 63, 66
3, 389434, Note_on_c, 0, 67, 69
3, 389443, Note_on_c, 0, 60, 74
3, 389447, Note_on_c, 0, 56, 52
3, 389615, Control_c, 0, 64, 0
3, 389984, Control_c, 0, 64, 127
3, 390686, Note_on_c, 0, 60, 0
3, 390689, Note_on_c, 0, 46, 0
3, 390740, Note_on_c, 0, 70, 0
3, 390750, Note_on_c, 0, 67, 0
3, 390767, Note_on_c, 0, 56, 0
3, 390777, Note_on_c, 0, 63, 0
3, 391428, Note_on_c, 0, 70, 52
3, 391432, Note_on_c, 0, 63, 45
3, 391438, Note_on_c, 0, 67, 56
3, 391452, Note_on_c, 0, 56, 37
3, 391455, Note_on_c, 0, 60, 56
3, 391462, Note_on_c, 0, 46, 32
3, 392017, Note_on_c, 0, 67, 0
3, 392289, Note_on_c, 0, 70, 0
3, 392493, Note_on_c, 0, 60, 0
3, 392538, Note_on_c, 0, 46, 0
3, 392554, Note_on_c, 0, 63, 0
3, 392578, Note_on_c, 0, 56, 0
3, 393541, Note_on_c, 0, 59, 53
3, 393562, Note_on_c, 0, 62, 56
3, 393568, Note_on_c, 0, 67, 46
3, 393582, Note_on_c, 0, 64, 45
3, 393605, Note_on_c, 0, 46, 29
3, 393612, Note_on_c, 0, 56, 31
3, 393756, Control_c, 0, 64, 0
3, 394164, Control_c, 0, 64, 127
3, 395399, Note_on_c, 0, 46, 0
3, 395503, Note_on_c, 0, 59, 0
3, 395523, Note_on_c, 0, 56, 0
3, 395560, Note_on_c, 0, 62, 0
3, 395580, Note_on_c, 0, 64, 0
3, 395634, Note_on_c, 0, 67, 0
3, 396471, Note_on_c, 0, 67, 30
3, 396474, Note_on_c, 0, 59, 36
3, 396511, Note_on_c, 0, 62, 37
3, 396525, Note_on_c, 0, 64, 37
3, 396545, Note_on_c, 0, 46, 21
3, 396575, Note_on_c, 0, 56, 18
3, 397119, Note_on_c, 0, 56, 0
3, 397475, Note_on_c, 0, 46, 0
3, 399098, Note_on_c, 0, 59, 0
3, 399212, Note_on_c, 0, 22, 41
3, 399252, Note_on_c, 0, 62, 0
3, 399316, Note_on_c, 0, 64, 0
3, 399608, Note_on_c, 0, 67, 0
3, 400058, Note_on_c, 0, 22, 0
3, 402742, Note_on_c, 0, 80, 18
3, 402850, Note_on_c, 0, 82, 46
3, 403025, Note_on_c, 0, 80, 0
3, 403065, Note_on_c, 0, 83, 37
3, 403106, Note_on_c, 0, 82, 0
3, 403293, Note_on_c, 0, 86, 58
3, 403508, Note_on_c, 0, 83, 0
3, 403555, Note_on_c, 0, 88, 36
3, 403770, Note_on_c, 0, 86, 0
3, 403781, Note_on_c, 0, 91, 42
3, 403821, Note_on_c, 0, 88, 0
3, 403895, Note_on_c, 0, 91, 0
3, 403992, Note_on_c, 0, 92, 56
3, 404194, Note_on_c, 0, 95, 43
3, 404254, Note_on_c, 0, 92, 0
3, 404556, Note_on_c, 0, 98, 54
3, 404758, Note_on_c, 0, 100, 63
3, 404862, Note_on_c, 0, 103, 74
3, 406061, Note_on_c, 0, 103, 0
3, 406125, Note_on_c, 0, 98, 0
3, 406132, Note_on_c, 0, 95, 0
3, 406172, Note_on_c, 0, 100, 0
3, 411031, Note_on_c, 0, 80, 73
3, 411238, Note_on_c, 0, 80, 0
3, 411540, Control_c, 0, 64, 0
3, 411590, Note_on_c, 0, 79, 61
3, 411798, Note_on_c, 0, 79, 0
3, 412041, Note_on_c, 0, 75, 41
3, 412156, Note_on_c, 0, 75, 0
3, 412934, Note_on_c, 0, 70, 39
3, 413165, Note_on_c, 0, 70, 0
3, 413830, Note_on_c, 0, 68, 44
3, 413976, Note_on_c, 0, 68, 0
3, 414852, Note_on_c, 0, 67, 30
3, 420801, Note_on_c, 0, 67, 0
3, 421779, Note_on_c, 0, 72, 80
3, 422181, Note_on_c, 0, 72, 0
3, 422299, Note_on_c, 0, 69, 44
3, 422573, Note_on_c, 0, 69, 0
3, 422686, Note_on_c, 0, 70, 31
3, 423111, Note_on_c, 0, 70, 0
3, 423185, Note_on_c, 0, 73, 43
3, 423423, Note_on_c, 0, 73, 0
3, 423638, Note_on_c, 0, 78, 15
3, 423904, Note_on_c, 0, 78, 0
3, 424150, Note_on_c, 0, 82, 70
3, 424454, Note_on_c, 0, 82, 0
3, 424575, Note_on_c, 0, 85, 57
3, 425022, Note_on_c, 0, 90, 71
3, 425171, Note_on_c, 0, 85, 0
3, 425350, Note_on_c, 0, 90, 0
3, 425440, Note_on_c, 0, 92, 66
3, 425929, Note_on_c, 0, 92, 0
3, 426364, Note_on_c, 0, 93, 64
3, 426953, Note_on_c, 0, 93, 0
3, 427337, Note_on_c, 0, 96, 74
3, 427621, Note_on_c, 0, 96, 0
3, 427898, Note_on_c, 0, 93, 53
3, 428215, Note_on_c, 0, 93, 0
3, 428358, Note_on_c, 0, 89, 40
3, 428679, Note_on_c, 0, 89, 0
3, 428860, Note_on_c, 0, 84, 43
3, 429091, Note_on_c, 0, 84, 0
3, 429255, Note_on_c, 0, 81, 35
3, 429590, Note_on_c, 0, 81, 0
3, 432045, Note_on_c, 0, 92, 100
3, 432057, Note_on_c, 0, 66, 66
3, 432076, Note_on_c, 0, 56, 62
3, 432134, Note_on_c, 0, 61, 42
3, 432388, Note_on_c, 0, 66, 0
3, 432465, Note_on_c, 0, 56, 0
3, 432490, Note_on_c, 0, 92, 0
3, 432521, Note_on_c, 0, 61, 0
3, 432588, Note_on_c, 0, 95, 54
3, 432810, Note_on_c, 0, 95, 0
3, 433891, Note_on_c, 0, 65, 42
3, 433934, Note_on_c, 0, 60, 32
3, 434006, Note_on_c, 0, 55, 12
3, 434042, Note_on_c, 0, 60, 0
3, 434098, Note_on_c, 0, 65, 0
3, 434101, Note_on_c, 0, 55, 0
3, 434873, Note_on_c, 0, 91, 93
3, 435263, Note_on_c, 0, 91, 0
3, 435439, Note_on_c, 0, 92, 61
3, 435752, Note_on_c, 0, 92, 0
3, 435831, Note_on_c, 0, 91, 36
3, 436084, Note_on_c, 0, 91, 0
3, 436361, Note_on_c, 0, 87, 52
3, 436456, Note_on_c, 0, 63, 23
3, 436568, Note_on_c, 0, 87, 0
3, 436573, Note_on_c, 0, 63, 0
3, 436758, Note_on_c, 0, 82, 24
3, 437080, Note_on_c, 0, 82, 0
3, 437331, Note_on_c, 0, 80, 52
3, 437597, Note_on_c, 0, 80, 0
3, 437790, Note_on_c, 0, 79, 26
3, 438130, Note_on_c, 0, 79, 0
3, 438801, Note_on_c, 0, 79, 45
3, 439080, Note_on_c, 0, 79, 0
3, 439807, Note_on_c, 0, 79, 55
3, 440152, Note_on_c, 0, 79, 0
3, 440396, Note_on_c, 0, 80, 51
3, 440654, Note_on_c, 0, 80, 0
3, 440846, Note_on_c, 0, 81, 34
3, 441279, Note_on_c, 0, 81, 0
3, 441404, Note_on_c, 0, 82, 46
3, 441704, Note_on_c, 0, 82, 0
3, 441850, Note_on_c, 0, 80, 36
3, 442303, Note_on_c, 0, 80, 0
3, 443296, Note_on_c, 0, 79, 63
3, 443596, Note_on_c, 0, 79, 0
3, 443823, Note_on_c, 0, 75, 10
3, 444202, Note_on_c, 0, 75, 0
3, 444343, Note_on_c, 0, 72, 32
3, 444474, Note_on_c, 0, 72, 0
3, 445577, Note_on_c, 0, 67, 19
3, 445615, Note_on_c, 0, 62, 24
3, 445628, Note_on_c, 0, 56, 18
3, 445805, Note_on_c, 0, 62, 0
3, 445817, Note_on_c, 0, 67, 0
3, 445864, Note_on_c, 0, 56, 0
3, 447062, Note_on_c, 0, 66, 48
3, 447092, Note_on_c, 0, 62, 45
3, 447121, Note_on_c, 0, 56, 20
3, 447156, Note_on_c, 0, 66, 0
3, 447182, Note_on_c, 0, 62, 0
3, 447225, Note_on_c, 0, 56, 0
3, 447484, Note_on_c, 0, 78, 69
3, 447909, Note_on_c, 0, 78, 0
3, 448045, Note_on_c, 0, 85, 69
3, 448288, Note_on_c, 0, 85, 0
3, 448490, Note_on_c, 0, 83, 40
3, 448821, Note_on_c, 0, 83, 0
3, 448974, Note_on_c, 0, 78, 35
3, 449071, Note_on_c, 0, 65, 32
3, 449176, Note_on_c, 0, 65, 0
3, 449230, Note_on_c, 0, 78, 0
3, 449363, Note_on_c, 0, 82, 58
3, 449770, Note_on_c, 0, 82, 0
3, 449911, Note_on_c, 0, 78, 25
3, 450142, Note_on_c, 0, 78, 0
3, 450293, Note_on_c, 0, 80, 58
3, 450732, Note_on_c, 0, 80, 0
3, 450858, Note_on_c, 0, 79, 44
3, 451027, Note_on_c, 0, 62, 18
3, 451127, Note_on_c, 0, 62, 0
3, 451171, Note_on_c, 0, 79, 0
3, 451260, Note_on_c, 0, 75, 23
3, 451675, Note_on_c, 0, 75, 0
3, 451808, Note_on_c, 0, 70, 35
3, 451944, Note_on_c, 0, 70, 0
3, 452317, Note_on_c, 0, 68, 4
3, 452694, Note_on_c, 0, 68, 0
3, 452750, Note_on_c, 0, 65, 28
3, 452817, Note_on_c, 0, 62, 29
3, 452858, Note_on_c, 0, 65, 0
3, 452929, Note_on_c, 0, 62, 0
3, 453149, Note_on_c, 0, 67, 32
3, 453559, Note_on_c, 0, 67, 0
3, 454099, Note_on_c, 0, 67, 49
3, 454412, Note_on_c, 0, 67, 0
3, 455085, Note_on_c, 0, 68, 66
3, 455684, Note_on_c, 0, 70, 60
3, 455686, Note_on_c, 0, 68, 0
3, 455937, Note_on_c, 0, 70, 0
3, 455973, Note_on_c, 0, 71, 54
3, 456234, Note_on_c, 0, 73, 61
3, 456339, Note_on_c, 0, 71, 0
3, 456757, Note_on_c, 0, 73, 0
3, 456846, Note_on_c, 0, 75, 63
3, 456887, Note_on_c, 0, 70, 62
3, 456918, Note_on_c, 0, 66, 37
3, 456946, Note_on_c, 0, 59, 29
3, 456948, Note_on_c, 0, 63, 54
3, 457210, Note_on_c, 0, 70, 0
3, 457212, Note_on_c, 0, 63, 0
3, 457215, Note_on_c, 0, 59, 0
3, 457304, Note_on_c, 0, 66, 0
3, 457491, Note_on_c, 0, 77, 41
3, 457493, Note_on_c, 0, 75, 0
3, 457783, Note_on_c, 0, 77, 0
3, 457816, Note_on_c, 0, 78, 71
3, 458036, Note_on_c, 0, 78, 0
3, 458095, Note_on_c, 0, 80, 69
3, 458943, Note_on_c, 0, 80, 0
3, 460939, Note_on_c, 0, 70, 29
3, 460993, Note_on_c, 0, 65, 35
3, 461055, Note_on_c, 0, 59, 7
3, 461160, Note_on_c, 0, 65, 0
3, 461214, Note_on_c, 0, 70, 0
3, 461280, Note_on_c, 0, 59, 0
3, 462532, Note_on_c, 0, 69, 44
3, 462554, Note_on_c, 0, 65, 42
3, 462696, Note_on_c, 0, 69, 0
3, 462701, Note_on_c, 0, 65, 0
3, 462918, Note_on_c, 0, 85, 66
3, 463292, Note_on_c, 0, 85, 0
3, 463453, Note_on_c, 0, 86, 55
3, 463484, Note_on_c, 0, 65, 46
3, 463492, Note_on_c, 0, 69, 48
3, 463525, Note_on_c, 0, 59, 25
3, 463699, Note_on_c, 0, 86, 0
3, 463701, Note_on_c, 0, 69, 0
3, 463868, Note_on_c, 0, 89, 73
3, 463899, Note_on_c, 0, 59, 0
3, 464129, Note_on_c, 0, 65, 0
3, 464183, Note_on_c, 0, 89, 0
3, 464362, Note_on_c, 0, 92, 72
3, 464424, Note_on_c, 0, 65, 30
3, 464447, Note_on_c, 0, 68, 39
3, 464669, Note_on_c, 0, 92, 0
3, 464687, Note_on_c, 0, 68, 0
3, 464780, Note_on_c, 0, 90, 61
3, 464831, Note_on_c, 0, 65, 0
3, 465370, Note_on_c, 0, 90, 0
3, 465706, Note_on_c, 0, 89, 65
3, 466116, Note_on_c, 0, 89, 0
3, 466679, Note_on_c, 0, 85, 41
3, 467071, Note_on_c, 0, 85, 0
3, 467626, Note_on_c, 0, 82, 36
3, 468102, Note_on_c, 0, 82, 0
3, 468648, Note_on_c, 0, 82, 35
3, 468945, Note_on_c, 0, 82, 0
3, 469533, Note_on_c, 0, 67, 36
3, 469559, Note_on_c, 0, 82, 48
3, 469564, Note_on_c, 0, 62, 41
3, 469595, Note_on_c, 0, 56, 24
3, 469943, Note_on_c, 0, 82, 0
3, 469999, Note_on_c, 0, 62, 0
3, 470030, Note_on_c, 0, 67, 0
3, 470045, Note_on_c, 0, 56, 0
3, 470570, Note_on_c, 0, 82, 61
3, 470893, Note_on_c, 0, 82, 0
3, 471116, Note_on_c, 0, 83, 61
3, 471172, Note_on_c, 0, 62, 54
3, 471174, Note_on_c, 0, 67, 47
3, 471207, Note_on_c, 0, 56, 30
3, 471302, Note_on_c, 0, 67, 0
3, 471369, Note_on_c, 0, 62, 0
3, 471425, Note_on_c, 0, 56, 0
3, 471479, Note_on_c, 0, 83, 0
3, 471563, Note_on_c, 0, 86, 63
3, 471907, Note_on_c, 0, 86, 0
3, 472072, Note_on_c, 0, 89, 83
3, 472157, Note_on_c, 0, 60, 49
3, 472160, Note_on_c, 0, 65, 47
3, 472162, Note_on_c, 0, 55, 50
3, 472288, Note_on_c, 0, 65, 0
3, 472398, Note_on_c, 0, 60, 0
3, 472400, Note_on_c, 0, 89, 0
3, 472462, Note_on_c, 0, 55, 0
3, 472554, Note_on_c, 0, 87, 54
3, 473176, Note_on_c, 0, 87, 0
3, 473445, Note_on_c, 0, 82, 39
3, 473783, Note_on_c, 0, 82, 0
3, 474057, Note_on_c, 0, 79, 25
3, 474249, Note_on_c, 0, 79, 0
3, 474297, Note_on_c, 0, 65, 14
3, 474394, Note_on_c, 0, 84, 60
3, 474500, Note_on_c, 0, 65, 0
3, 474963, Note_on_c, 0, 84, 0
3, 475322, Note_on_c, 0, 82, 52
3, 475590, Note_on_c, 0, 82, 0
3, 476230, Note_on_c, 0, 79, 33
3, 476981, Note_on_c, 0, 79, 0
3, 477252, Note_on_c, 0, 70, 27
3, 477469, Note_on_c, 0, 70, 0
3, 478176, Note_on_c, 0, 70, 39
3, 478499, Note_on_c, 0, 70, 0
3, 479077, Note_on_c, 0, 70, 34
3, 479474, Note_on_c, 0, 70, 0
3, 480099, Note_on_c, 0, 70, 40
3, 483001, Note_on_c, 0, 61, 30
3, 483004, Note_on_c, 0, 63, 36
3, 483066, Note_on_c, 0, 55, 16
3, 483127, Note_on_c, 0, 63, 0
3, 483165, Note_on_c, 0, 55, 0
3, 483206, Note_on_c, 0, 61, 0
3, 483864, Note_on_c, 0, 70, 0
3, 483990, Note_on_c, 0, 78, 68
3, 484491, Note_on_c, 0, 78, 0
3, 484586, Note_on_c, 0, 70, 31
3, 484750, Note_on_c, 0, 70, 0
3, 485810, Note_on_c, 0, 63, 21
3, 485823, Note_on_c, 0, 61, 24
3, 486020, Note_on_c, 0, 63, 0
3, 486092, Note_on_c, 0, 61, 0
3, 486803, Note_on_c, 0, 73, 64
3, 487256, Note_on_c, 0, 73, 0
3, 487320, Note_on_c, 0, 78, 66
3, 487694, Note_on_c, 0, 78, 0
3, 487804, Note_on_c, 0, 77, 43
3, 488149, Note_on_c, 0, 77, 0
3, 488331, Note_on_c, 0, 72, 39
3, 488395, Note_on_c, 0, 65, 28
3, 488454, Note_on_c, 0, 60, 27
3, 488526, Note_on_c, 0, 65, 0
3, 488554, Note_on_c, 0, 72, 0
3, 488577, Note_on_c, 0, 60, 0
3, 488687, Note_on_c, 0, 69, 21
3, 489143, Note_on_c, 0, 69, 0
3, 489591, Note_on_c, 0, 69, 36
3, 489937, Note_on_c, 0, 69, 0
3, 490472, Note_on_c, 0, 65, 31
3, 490559, Note_on_c, 0, 60, 21
3, 490574, Note_on_c, 0, 55, 10
3, 490743, Note_on_c, 0, 60, 0
3, 490789, Note_on_c, 0, 55, 0
3, 490802, Note_on_c, 0, 65, 0
3, 492136, Note_on_c, 0, 63, 35
3, 492138, Note_on_c, 0, 59, 25
3, 492177, Note_on_c, 0, 55, 19
3, 492289, Note_on_c, 0, 63, 0
3, 492333, Note_on_c, 0, 55, 0
3, 492356, Note_on_c, 0, 59, 0
3, 493365, Note_on_c, 0, 76, 64
3, 493799, Note_on_c, 0, 76, 0
3, 493958, Note_on_c, 0, 71, 46
3, 494240, Note_on_c, 0, 71, 0
3, 494324, Note_on_c, 0, 68, 30
3, 494652, Note_on_c, 0, 68, 0
3, 494821, Note_on_c, 0, 75, 53
3, 495095, Note_on_c, 0, 75, 0
3, 495308, Note_on_c, 0, 74, 49
3, 495630, Note_on_c, 0, 74, 0
3, 495845, Note_on_c, 0, 70, 51
3, 496032, Note_on_c, 0, 70, 0
3, 496275, Note_on_c, 0, 67, 20
3, 496710, Note_on_c, 0, 67, 0
3, 496826, Note_on_c, 0, 65, 60
3, 497069, Note_on_c, 0, 65, 0
3, 497274, Note_on_c, 0, 63, 40
3, 498129, Note_on_c, 0, 63, 0
3, 498243, Note_on_c, 0, 65, 63
3, 498723, Note_on_c, 0, 65, 0
3, 499163, Note_on_c, 0, 67, 80
3, 499974, Note_on_c, 0, 67, 0
3, 500161, Note_on_c, 0, 60, 49
3, 502153, Note_on_c, 0, 68, 58
3, 502225, Note_on_c, 0, 60, 0
3, 502547, Note_on_c, 0, 68, 0
3, 503179, Note_on_c, 0, 65, 37
3, 504774, Note_on_c, 0, 65, 0
3, 506968, Note_on_c, 0, 67, 24
3, 506976, Note_on_c, 0, 65, 26
3, 506991, Note_on_c, 0, 60, 23
3, 507066, Note_on_c, 0, 67, 0
3, 507086, Note_on_c, 0, 65, 0
3, 507104, Note_on_c, 0, 60, 0
3, 507895, Note_on_c, 0, 68, 43
3, 508036, Note_on_c, 0, 68, 0
3, 508407, Note_on_c, 0, 72, 69
3, 508599, Note_on_c, 0, 72, 0
3, 508845, Note_on_c, 0, 80, 82
3, 508858, Note_on_c, 0, 59, 38
3, 508860, Note_on_c, 0, 70, 47
3, 508878, Note_on_c, 0, 65, 36
3, 509004, Note_on_c, 0, 70, 0
3, 509088, Note_on_c, 0, 65, 0
3, 509164, Note_on_c, 0, 80, 0
3, 509213, Note_on_c, 0, 59, 0
3, 509380, Note_on_c, 0, 79, 72
3, 509661, Note_on_c, 0, 79, 0
3, 509825, Note_on_c, 0, 77, 38
3, 510143, Note_on_c, 0, 77, 0
3, 510322, Note_on_c, 0, 75, 34
3, 510606, Note_on_c, 0, 75, 0
3, 510698, Note_on_c, 0, 60, 20
3, 510734, Note_on_c, 0, 63, 23
3, 510744, Note_on_c, 0, 74, 25
3, 511361, Note_on_c, 0, 74, 0
3, 511420, Note_on_c, 0, 63, 0
3, 511658, Note_on_c, 0, 77, 70
3, 511727, Note_on_c, 0, 60, 0
3, 511999, Note_on_c, 0, 77, 0
3, 512623, Note_on_c, 0, 75, 50
3, 512974, Note_on_c, 0, 75, 0
3, 513617, Note_on_c, 0, 72, 43
3, 513670, Note_on_c, 0, 58, 20
3, 513683, Note_on_c, 0, 63, 20
3, 513709, Note_on_c, 0, 67, 9
3, 513919, Note_on_c, 0, 63, 0
3, 513962, Note_on_c, 0, 67, 0
3, 513967, Note_on_c, 0, 58, 0
3, 514047, Note_on_c, 0, 72, 0
3, 514623, Note_on_c, 0, 75, 68
3, 514643, Note_on_c, 0, 72, 69
3, 514710, Note_on_c, 0, 57, 36
3, 514712, Note_on_c, 0, 67, 35
3, 514753, Note_on_c, 0, 63, 35
3, 515089, Note_on_c, 0, 75, 0
3, 515194, Note_on_c, 0, 72, 0
3, 515196, Note_on_c, 0, 77, 52
3, 515278, Note_on_c, 0, 74, 26
3, 515424, Note_on_c, 0, 74, 0
3, 515427, Note_on_c, 0, 67, 0
3, 515429, Note_on_c, 0, 63, 0
3, 515475, Note_on_c, 0, 77, 0
3, 515613, Note_on_c, 0, 75, 60
3, 515665, Note_on_c, 0, 79, 63
3, 515754, Note_on_c, 0, 57, 0
3, 516172, Note_on_c, 0, 75, 0
3, 516182, Note_on_c, 0, 79, 0
3, 516369, Note_on_c, 0, 74, 58
3, 516396, Note_on_c, 0, 77, 56
3, 516758, Note_on_c, 0, 74, 0
3, 516778, Note_on_c, 0, 77, 0
3, 517252, Note_on_c, 0, 72, 58
3, 517270, Note_on_c, 0, 75, 33
3, 517472, Note_on_c, 0, 72, 0
3, 517495, Note_on_c, 0, 75, 0
3, 518084, Note_on_c, 0, 74, 48
3, 518097, Note_on_c, 0, 70, 39
3, 518199, Note_on_c, 0, 58, 19
3, 518294, Note_on_c, 0, 70, 0
3, 518312, Note_on_c, 0, 74, 0
3, 518468, Note_on_c, 0, 55, 1
3, 518565, Note_on_c, 0, 58, 0
3, 518691, Note_on_c, 0, 70, 52
3, 518875, Note_on_c, 0, 55, 0
3, 518903, Note_on_c, 0, 70, 0
3, 520372, Note_on_c, 0, 75, 72
3, 520380, Note_on_c, 0, 59, 47
3, 520383, Note_on_c, 0, 70, 86
3, 520385, Note_on_c, 0, 79, 76
3, 520426, Note_on_c, 0, 66, 17
3, 520536, Note_on_c, 0, 70, 0
3, 520565, Note_on_c, 0, 66, 0
3, 520652, Note_on_c, 0, 79, 0
3, 520654, Note_on_c, 0, 75, 0
3, 520680, Note_on_c, 0, 59, 0
3, 521361, Note_on_c, 0, 58, 66
3, 521366, Note_on_c, 0, 64, 56
3, 521376, Note_on_c, 0, 75, 75
3, 521381, Note_on_c, 0, 80, 73
3, 521404, Note_on_c, 0, 68, 63
3, 522338, Control_c, 0, 64, 127
3, 522692, Note_on_c, 0, 68, 0
3, 522720, Note_on_c, 0, 80, 0
3, 522741, Note_on_c, 0, 75, 0
3, 522748, Note_on_c, 0, 58, 0
3, 522984, Note_on_c, 0, 64, 0
3, 523265, Control_c, 0, 64, 0
3, 523360, Note_on_c, 0, 77, 46
3, 523380, Note_on_c, 0, 73, 32
3, 523411, Note_on_c, 0, 57, 28
3, 523416, Note_on_c, 0, 63, 30
3, 523539, Note_on_c, 0, 63, 0
3, 523578, Note_on_c, 0, 73, 0
3, 523611, Note_on_c, 0, 77, 0
3, 523785, Note_on_c, 0, 57, 0
3, 524371, Note_on_c, 0, 66, 30
3, 524374, Note_on_c, 0, 79, 58
3, 524376, Note_on_c, 0, 71, 51
3, 524420, Note_on_c, 0, 56, 23
3, 524422, Note_on_c, 0, 74, 48
3, 524430, Note_on_c, 0, 62, 25
3, 524527, Note_on_c, 0, 74, 0
3, 524532, Note_on_c, 0, 62, 0
3, 524568, Note_on_c, 0, 66, 0
3, 524573, Note_on_c, 0, 71, 0
3, 524599, Note_on_c, 0, 79, 0
3, 524653, Note_on_c, 0, 56, 0
3, 525293, Note_on_c, 0, 58, 76
3, 525298, Note_on_c, 0, 57, 61
3, 525356, Note_on_c, 0, 75, 26
3, 525469, Note_on_c, 0, 75, 0
3, 525528, Note_on_c, 0, 57, 0
3, 527310, Note_on_c, 0, 70, 72
3, 527725, Note_on_c, 0, 70, 0
3, 528290, Note_on_c, 0, 68, 80
3, 528524, Note_on_c, 0, 58, 0
3, 530024, Note_on_c, 0, 68, 0
3, 530170, Note_on_c, 0, 67, 66
3, 530531, Note_on_c, 0, 67, 0
3, 530738, Note_on_c, 0, 63, 54
3, 530965, Note_on_c, 0, 63, 0
3, 531132, Note_on_c, 0, 58, 40
3, 531890, Note_on_c, 0, 58, 0
3, 532087, Note_on_c, 0, 56, 57
3, 533462, Note_on_c, 0, 56, 0
3, 533556, Note_on_c, 0, 53, 46
3, 533774, Note_on_c, 0, 53, 0
3, 534012, Note_on_c, 0, 54, 34
3, 534403, Note_on_c, 0, 54, 0
3, 534458, Note_on_c, 0, 55, 44
3, 534711, Note_on_c, 0, 55, 0
3, 534893, Note_on_c, 0, 58, 27
3, 535371, Note_on_c, 0, 58, 0
3, 535766, Note_on_c, 0, 63, 57
3, 536375, Note_on_c, 0, 63, 0
3, 537681, Note_on_c, 0, 65, 27
3, 537688, Note_on_c, 0, 55, 25
3, 537729, Note_on_c, 0, 60, 25
3, 537870, Note_on_c, 0, 65, 0
3, 537875, Note_on_c, 0, 60, 0
3, 537944, Note_on_c, 0, 55, 0
3, 539173, Note_on_c, 0, 65, 47
3, 539224, Note_on_c, 0, 60, 34
3, 539339, Note_on_c, 0, 65, 0
3, 539352, Note_on_c, 0, 60, 0
3, 540128, Note_on_c, 0, 69, 47
3, 540371, Note_on_c, 0, 69, 0
3, 540553, Note_on_c, 0, 70, 35
3, 540768, Note_on_c, 0, 70, 0
3, 541014, Note_on_c, 0, 73, 66
3, 541119, Note_on_c, 0, 66, 43
3, 541137, Note_on_c, 0, 56, 29
3, 541196, Note_on_c, 0, 61, 23
3, 541221, Note_on_c, 0, 66, 0
3, 541244, Note_on_c, 0, 56, 0
3, 541323, Note_on_c, 0, 61, 0
3, 541347, Note_on_c, 0, 73, 0
3, 541493, Note_on_c, 0, 78, 47
3, 541774, Note_on_c, 0, 78, 0
3, 541999, Note_on_c, 0, 82, 63
3, 542245, Note_on_c, 0, 82, 0
3, 542373, Note_on_c, 0, 85, 63
3, 542796, Note_on_c, 0, 85, 0
3, 542875, Note_on_c, 0, 90, 68
3, 542944, Note_on_c, 0, 85, 17
3, 543036, Note_on_c, 0, 85, 0
3, 543202, Note_on_c, 0, 90, 0
3, 543269, Note_on_c, 0, 68, 51
3, 543325, Note_on_c, 0, 92, 60
3, 543338, Note_on_c, 0, 63, 35
3, 543364, Note_on_c, 0, 58, 32
3, 543474, Note_on_c, 0, 63, 0
3, 543494, Note_on_c, 0, 58, 0
3, 543561, Note_on_c, 0, 68, 0
3, 543661, Note_on_c, 0, 92, 0
3, 544265, Note_on_c, 0, 90, 47
3, 544575, Note_on_c, 0, 90, 0
3, 545268, Note_on_c, 0, 85, 23
3, 545553, Note_on_c, 0, 85, 0
3, 546343, Note_on_c, 0, 66, 26
3, 546415, Note_on_c, 0, 56, 27
3, 546687, Note_on_c, 0, 56, 0
3, 546784, Note_on_c, 0, 66, 0
3, 547995, Note_on_c, 0, 66, 39
3, 548051, Note_on_c, 0, 56, 33
3, 548079, Note_on_c, 0, 61, 29
3, 548253, Note_on_c, 0, 56, 0
3, 548310, Note_on_c, 0, 66, 0
3, 548381, Note_on_c, 0, 61, 0
3, 551197, Note_on_c, 0, 67, 22
3, 551208, Note_on_c, 0, 57, 15
3, 551249, Note_on_c, 0, 62, 31
3, 551535, Note_on_c, 0, 62, 0
3, 551546, Note_on_c, 0, 67, 0
3, 551679, Note_on_c, 0, 57, 0
3, 552196, Note_on_c, 0, 86, 83
3, 552667, Note_on_c, 0, 86, 0
3, 552746, Note_on_c, 0, 89, 74
3, 553012, Note_on_c, 0, 89, 0
3, 553698, Note_on_c, 0, 87, 74
3, 553862, Note_on_c, 0, 66, 48
3, 553934, Note_on_c, 0, 87, 0
3, 553962, Note_on_c, 0, 59, 25
3, 553990, Note_on_c, 0, 66, 0
3, 554220, Note_on_c, 0, 59, 0
3, 554595, Note_on_c, 0, 83, 64
3, 554863, Note_on_c, 0, 83, 0
3, 555030, Note_on_c, 0, 80, 40
3, 555322, Note_on_c, 0, 80, 0
3, 555585, Note_on_c, 0, 66, 29
3, 555595, Note_on_c, 0, 63, 31
3, 555615, Note_on_c, 0, 59, 24
3, 555647, Note_on_c, 0, 76, 10
3, 555685, Note_on_c, 0, 66, 0
3, 555746, Note_on_c, 0, 63, 0
3, 555939, Note_on_c, 0, 76, 0
3, 555946, Note_on_c, 0, 59, 0
3, 556453, Note_on_c, 0, 65, 38
3, 556497, Note_on_c, 0, 62, 27
3, 556558, Note_on_c, 0, 65, 0
3, 556666, Note_on_c, 0, 62, 0
3, 556814, Note_on_c, 0, 77, 84
3, 557321, Note_on_c, 0, 77, 0
3, 557485, Note_on_c, 0, 74, 24
3, 557636, Note_on_c, 0, 74, 0
3, 557820, Note_on_c, 0, 75, 50
3, 558339, Note_on_c, 0, 75, 0
3, 558368, Note_on_c, 0, 70, 58
3, 558611, Note_on_c, 0, 70, 0
3, 558936, Note_on_c, 0, 67, 9
3, 559477, Note_on_c, 0, 67, 0
3, 559686, Note_on_c, 0, 68, 65
3, 560027, Note_on_c, 0, 68, 0
3, 560677, Note_on_c, 0, 70, 82
3, 561988, Note_on_c, 0, 70, 0
3, 562308, Note_on_c, 0, 67, 53
3, 562551, Note_on_c, 0, 67, 0
3, 562692, Note_on_c, 0, 63, 27
3, 563122, Note_on_c, 0, 63, 0
3, 563263, Note_on_c, 0, 65, 39
3, 563482, Note_on_c, 0, 65, 0
3, 563613, Note_on_c, 0, 67, 57
3, 563823, Note_on_c, 0, 67, 0
3, 564576, Note_on_c, 0, 60, 35
3, 567016, Note_on_c, 0, 62, 50
3, 567026, Note_on_c, 0, 60, 0
3, 567228, Note_on_c, 0, 62, 0
3, 567423, Note_on_c, 0, 63, 64
3, 568900, Note_on_c, 0, 63, 0
3, 568995, Note_on_c, 0, 56, 38
3, 569166, Note_on_c, 0, 56, 0
3, 569399, Note_on_c, 0, 58, 41
3, 569834, Note_on_c, 0, 58, 0
3, 569946, Note_on_c, 0, 60, 66
3, 570149, Note_on_c, 0, 60, 0
3, 570927, Note_on_c, 0, 46, 25
3, 570930, Note_on_c, 0, 56, 22
3, 571030, Note_on_c, 0, 56, 0
3, 571043, Note_on_c, 0, 46, 0
3, 571201, Note_on_c, 0, 61, 57
3, 571913, Note_on_c, 0, 61, 0
3, 572190, Note_on_c, 0, 62, 54
3, 572550, Note_on_c, 0, 62, 0
3, 573162, Note_on_c, 0, 65, 67
3, 573593, Note_on_c, 0, 65, 0
3, 573813, Note_on_c, 0, 62, 12
3, 573918, Note_on_c, 0, 62, 0
3, 574133, Note_on_c, 0, 63, 33
3, 574473, Note_on_c, 0, 63, 0
3, 574637, Note_on_c, 0, 65, 55
3, 574908, Note_on_c, 0, 65, 0
3, 575034, Note_on_c, 0, 67, 71
3, 575497, Note_on_c, 0, 67, 0
3, 576605, Note_on_c, 0, 62, 22
3, 576616, Note_on_c, 0, 58, 31
3, 576700, Note_on_c, 0, 62, 0
3, 576718, Note_on_c, 0, 58, 0
3, 577606, Note_on_c, 0, 63, 20
3, 577699, Note_on_c, 0, 63, 0
3, 578003, Note_on_c, 0, 67, 28
3, 578231, Note_on_c, 0, 67, 0
3, 578487, Note_on_c, 0, 70, 60
3, 578571, Note_on_c, 0, 70, 0
3, 578817, Note_on_c, 0, 74, 79
3, 579191, Note_on_c, 0, 74, 0
3, 579388, Note_on_c, 0, 77, 84
3, 579713, Note_on_c, 0, 70, 36
3, 579800, Note_on_c, 0, 63, 29
3, 579808, Note_on_c, 0, 75, 46
3, 579811, Note_on_c, 0, 77, 0
3, 579823, Note_on_c, 0, 70, 0
3, 579844, Note_on_c, 0, 66, 11
3, 580110, Note_on_c, 0, 63, 0
3, 580113, Note_on_c, 0, 66, 0
3, 580366, Note_on_c, 0, 71, 29
3, 580369, Note_on_c, 0, 75, 0
3, 580755, Note_on_c, 0, 71, 0
3, 580781, Note_on_c, 0, 70, 38
3, 581334, Note_on_c, 0, 70, 0
3, 582739, Note_on_c, 0, 70, 22
3, 582750, Note_on_c, 0, 66, 21
3, 582765, Note_on_c, 0, 63, 37
3, 582977, Note_on_c, 0, 70, 0
3, 583098, Note_on_c, 0, 63, 0
3, 583100, Note_on_c, 0, 66, 0
3, 584344, Note_on_c, 0, 70, 23
3, 584403, Note_on_c, 0, 65, 26
3, 584644, Note_on_c, 0, 65, 0
3, 584711, Note_on_c, 0, 70, 0
3, 585368, Note_on_c, 0, 65, 19
3, 585512, Note_on_c, 0, 65, 0
3, 585660, Note_on_c, 0, 82, 76
3, 586011, Note_on_c, 0, 82, 0
3, 586216, Note_on_c, 0, 79, 41
3, 586331, Note_on_c, 0, 65, 17
3, 586336, Note_on_c, 0, 59, 17
3, 586364, Note_on_c, 0, 79, 0
3, 586554, Note_on_c, 0, 65, 0
3, 586566, Note_on_c, 0, 80, 67
3, 586641, Note_on_c, 0, 59, 0
3, 587050, Note_on_c, 0, 80, 0
3, 587078, Note_on_c, 0, 77, 57
3, 587411, Note_on_c, 0, 77, 0
3, 587672, Note_on_c, 0, 74, 21
3, 587997, Note_on_c, 0, 74, 0
3, 588041, Note_on_c, 0, 70, 39
3, 588166, Note_on_c, 0, 70, 0
3, 588371, Note_on_c, 0, 80, 68
3, 588752, Note_on_c, 0, 80, 0
3, 588919, Note_on_c, 0, 77, 40
3, 589090, Note_on_c, 0, 77, 0
3, 589306, Note_on_c, 0, 78, 63
3, 589854, Note_on_c, 0, 73, 52
3, 589861, Note_on_c, 0, 78, 0
3, 590102, Note_on_c, 0, 73, 0
3, 590271, Note_on_c, 0, 70, 23
3, 590826, Note_on_c, 0, 70, 0
3, 591213, Note_on_c, 0, 75, 60
3, 591663, Note_on_c, 0, 75, 0
3, 592910, Note_on_c, 0, 66, 28
3, 592920, Note_on_c, 0, 62, 36
3, 592997, Note_on_c, 0, 66, 0
3, 593025, Note_on_c, 0, 62, 0
3, 593311, Note_on_c, 0, 71, 59
3, 593663, Note_on_c, 0, 71, 0
3, 593821, Note_on_c, 0, 74, 55
3, 593883, Note_on_c, 0, 56, 40
3, 593906, Note_on_c, 0, 66, 28
3, 593908, Note_on_c, 0, 62, 42
3, 594044, Note_on_c, 0, 74, 0
3, 594062, Note_on_c, 0, 66, 0
3, 594088, Note_on_c, 0, 62, 0
3, 594216, Note_on_c, 0, 77, 72
3, 594466, Note_on_c, 0, 56, 0
3, 594687, Note_on_c, 0, 77, 0
3, 594835, Note_on_c, 0, 74, 40
3, 595014, Note_on_c, 0, 74, 0
3, 595160, Note_on_c, 0, 65, 44
3, 595181, Note_on_c, 0, 75, 62
3, 595201, Note_on_c, 0, 55, 27
3, 595206, Note_on_c, 0, 60, 43
3, 595309, Note_on_c, 0, 65, 0
3, 595316, Note_on_c, 0, 60, 0
3, 595332, Note_on_c, 0, 55, 0
3, 595887, Note_on_c, 0, 75, 0
3, 596135, Note_on_c, 0, 70, 40
3, 596648, Note_on_c, 0, 70, 0
3, 598084, Note_on_c, 0, 70, 79
3, 598516, Note_on_c, 0, 70, 0
3, 598626, Note_on_c, 0, 69, 24
3, 598890, Note_on_c, 0, 69, 0
3, 598998, Note_on_c, 0, 70, 32
3, 599384, Note_on_c, 0, 70, 0
3, 599574, Note_on_c, 0, 79, 60
3, 599750, Note_on_c, 0, 79, 0
3, 600664, Note_on_c, 0, 65, 18
3, 600764, Note_on_c, 0, 65, 0
3, 600782, Note_on_c, 0, 60, 16
3, 600895, Note_on_c, 0, 60, 0
3, 600954, Note_on_c, 0, 70, 76
3, 601512, Note_on_c, 0, 70, 0
3, 601535, Note_on_c, 0, 69, 42
3, 601811, Note_on_c, 0, 69, 0
3, 601921, Note_on_c, 0, 70, 41
3, 602221, Note_on_c, 0, 70, 0
3, 602518, Note_on_c, 0, 82, 63
3, 602707, Note_on_c, 0, 82, 0
3, 603877, Note_on_c, 0, 70, 52
3, 604287, Note_on_c, 0, 70, 0
3, 604438, Note_on_c, 0, 69, 28
3, 604740, Note_on_c, 0, 69, 0
3, 604786, Note_on_c, 0, 70, 35
3, 605154, Note_on_c, 0, 70, 0
3, 605357, Note_on_c, 0, 78, 56
3, 605441, Note_on_c, 0, 54, 29
3, 605459, Note_on_c, 0, 63, 24
3, 605562, Note_on_c, 0, 63, 0
3, 605567, Note_on_c, 0, 54, 0
3, 605569, Note_on_c, 0, 78, 0
3, 606742, Note_on_c, 0, 70, 77
3, 607210, Note_on_c, 0, 70, 0
3, 607333, Note_on_c, 0, 69, 28
3, 607630, Note_on_c, 0, 69, 0
3, 607674, Note_on_c, 0, 70, 42
3, 608129, Note_on_c, 0, 70, 0
3, 608260, Note_on_c, 0, 78, 56
3, 608485, Note_on_c, 0, 78, 0
3, 609271, Note_on_c, 0, 54, 15
3, 609371, Note_on_c, 0, 54, 0
3, 609614, Note_on_c, 0, 68, 66
3, 611163, Note_on_c, 0, 69, 69
3, 611288, Note_on_c, 0, 68, 0
3, 612312, Note_on_c, 0, 69, 0
3, 612535, Note_on_c, 0, 77, 77
3, 612835, Note_on_c, 0, 77, 0
3, 613134, Note_on_c, 0, 54, 41
3, 613144, Note_on_c, 0, 63, 40
3, 613195, Note_on_c, 0, 61, 22
3, 613252, Note_on_c, 0, 63, 0
3, 613321, Note_on_c, 0, 61, 0
3, 613367, Note_on_c, 0, 54, 0
3, 614511, Note_on_c, 0, 62, 51
3, 614552, Note_on_c, 0, 56, 38
3, 614680, Note_on_c, 0, 56, 0
3, 614703, Note_on_c, 0, 62, 0
3, 615996, Note_on_c, 0, 62, 44
3, 615999, Note_on_c, 0, 66, 28
3, 616086, Note_on_c, 0, 66, 0
3, 616108, Note_on_c, 0, 62, 0
3, 616357, Note_on_c, 0, 68, 72
3, 616828, Note_on_c, 0, 68, 0
3, 616930, Note_on_c, 0, 75, 70
3, 617074, Note_on_c, 0, 56, 25
3, 617302, Note_on_c, 0, 56, 0
3, 617363, Note_on_c, 0, 75, 0
3, 617396, Note_on_c, 0, 68, 46
3, 617612, Note_on_c, 0, 68, 0
3, 618054, Note_on_c, 0, 60, 17
3, 618141, Note_on_c, 0, 60, 0
3, 618292, Note_on_c, 0, 67, 55
3, 618767, Note_on_c, 0, 67, 0
3, 619880, Note_on_c, 0, 65, 28
3, 619957, Note_on_c, 0, 60, 18
3, 619985, Note_on_c, 0, 65, 0
3, 620049, Note_on_c, 0, 60, 0
3, 620159, Note_on_c, 0, 72, 86
3, 620581, Note_on_c, 0, 72, 0
3, 620817, Note_on_c, 0, 70, 46
3, 621070, Note_on_c, 0, 70, 0
3, 621193, Note_on_c, 0, 67, 24
3, 621751, Note_on_c, 0, 67, 0
3, 622097, Note_on_c, 0, 63, 47
3, 622639, Note_on_c, 0, 63, 0
3, 623054, Note_on_c, 0, 63, 54
3, 625898, Note_on_c, 0, 63, 0
3, 627626, Note_on_c, 0, 56, 20
3, 627754, Note_on_c, 0, 56, 0
3, 627777, Note_on_c, 0, 68, 76
3, 628195, Note_on_c, 0, 68, 0
3, 628765, Note_on_c, 0, 68, 63
3, 629162, Note_on_c, 0, 68, 0
3, 629408, Note_on_c, 0, 67, 22
3, 629636, Note_on_c, 0, 51, 14
3, 629779, Note_on_c, 0, 68, 44
3, 629805, Note_on_c, 0, 67, 0
3, 629830, Note_on_c, 0, 51, 0
3, 630176, Note_on_c, 0, 68, 0
3, 630389, Note_on_c, 0, 79, 66
3, 630447, Note_on_c, 0, 60, 17
3, 630460, Note_on_c, 0, 50, 14
3, 630552, Note_on_c, 0, 60, 0
3, 630555, Note_on_c, 0, 50, 0
3, 630723, Note_on_c, 0, 79, 0
3, 630921, Note_on_c, 0, 77, 38
3, 631226, Note_on_c, 0, 77, 0
3, 631395, Note_on_c, 0, 75, 47
3, 631712, Note_on_c, 0, 75, 0
3, 631730, Note_on_c, 0, 68, 23
3, 631797, Note_on_c, 0, 74, 41
3, 631817, Note_on_c, 0, 65, 18
3, 631840, Note_on_c, 0, 59, 6
3, 632291, Note_on_c, 0, 68, 0
3, 632308, Note_on_c, 0, 74, 0
3, 632355, Note_on_c, 0, 72, 35
3, 632526, Note_on_c, 0, 65, 0
3, 632639, Note_on_c, 0, 72, 0
3, 632692, Note_on_c, 0, 59, 0
3, 632820, Note_on_c, 0, 71, 26
3, 633210, Note_on_c, 0, 71, 0
3, 633322, Note_on_c, 0, 74, 58
3, 633548, Note_on_c, 0, 67, 16
3, 633609, Note_on_c, 0, 60, 18
3, 633693, Note_on_c, 0, 74, 0
3, 633801, Note_on_c, 0, 72, 32
3, 634392, Note_on_c, 0, 67, 0
3, 634505, Note_on_c, 0, 72, 0
3, 635286, Note_on_c, 0, 60, 0
3, 635698, Note_on_c, 0, 58, 29
3, 635744, Note_on_c, 0, 63, 16
3, 635785, Note_on_c, 0, 67, 4
3, 636576, Note_on_c, 0, 67, 0
3, 636607, Note_on_c, 0, 63, 0
3, 636637, Note_on_c, 0, 58, 0
3, 637523, Note_on_c, 0, 57, 29
3, 637543, Note_on_c, 0, 67, 26
3, 637585, Note_on_c, 0, 63, 26
3, 638460, Note_on_c, 0, 67, 0
3, 638483, Note_on_c, 0, 63, 0
3, 638506, Note_on_c, 0, 87, 87
3, 638936, Note_on_c, 0, 87, 0
3, 639118, Note_on_c, 0, 57, 0
3, 639489, Note_on_c, 0, 87, 81
3, 639866, Note_on_c, 0, 87, 0
3, 640030, Note_on_c, 0, 86, 56
3, 640321, Note_on_c, 0, 86, 0
3, 640431, Note_on_c, 0, 84, 31
3, 640948, Note_on_c, 0, 84, 0
3, 641368, Note_on_c, 0, 82, 40
3, 641440, Note_on_c, 0, 65, 7
3, 641448, Note_on_c, 0, 58, 11
3, 641699, Note_on_c, 0, 82, 0
3, 641790, Note_on_c, 0, 58, 0
3, 641921, Note_on_c, 0, 65, 0
3, 642367, Note_on_c, 0, 82, 63
3, 642761, Note_on_c, 0, 82, 0
3, 643839, Note_on_c, 0, 87, 71
3, 643851, Note_on_c, 0, 75, 58
3, 643861, Note_on_c, 0, 64, 52
3, 643872, Note_on_c, 0, 58, 59
3, 643880, Note_on_c, 0, 68, 53
3, 643977, Note_on_c, 0, 68, 0
3, 644010, Note_on_c, 0, 75, 0
3, 644018, Note_on_c, 0, 87, 0
3, 644079, Note_on_c, 0, 64, 0
3, 644102, Note_on_c, 0, 58, 0
3, 645106, Note_on_c, 0, 63, 58
3, 645111, Note_on_c, 0, 68, 65
3, 645114, Note_on_c, 0, 57, 61
3, 645132, Note_on_c, 0, 92, 73
3, 645134, Note_on_c, 0, 80, 74
3, 645789, Control_c, 0, 64, 127
3, 646025, Note_on_c, 0, 80, 0
3, 646035, Note_on_c, 0, 63, 0
3, 646076, Note_on_c, 0, 92, 0
3, 646094, Note_on_c, 0, 68, 0
3, 646358, Note_on_c, 0, 57, 0
3, 646557, Control_c, 0, 64, 0
3, 646644, Note_on_c, 0, 98, 66
3, 646647, Note_on_c, 0, 86, 71
3, 646650, Note_on_c, 0, 67, 64
3, 646652, Note_on_c, 0, 56, 64
3, 646668, Note_on_c, 0, 62, 55
3, 648283, Note_on_c, 0, 86, 0
3, 648385, Note_on_c, 0, 67, 0
3, 648411, Note_on_c, 0, 98, 0
3, 648459, Note_on_c, 0, 62, 0
3, 648662, Note_on_c, 0, 56, 0
3, 648927, Note_on_c, 0, 58, 87
3, 648954, Note_on_c, 0, 101, 74
3, 648961, Note_on_c, 0, 57, 65
3, 648964, Note_on_c, 0, 89, 77
3, 649117, Note_on_c, 0, 101, 0
3, 649130, Note_on_c, 0, 89, 0
3, 649215, Note_on_c, 0, 57, 0
3, 649949, Note_on_c, 0, 46, 68
3, 650677, Note_on_c, 0, 58, 0
3, 651503, Note_on_c, 0, 53, 24
3, 651728, Note_on_c, 0, 53, 0
3, 651895, Note_on_c, 0, 70, 52
3, 651916, Note_on_c, 0, 65, 52
3, 651921, Note_on_c, 0, 60, 43
3, 651969, Note_on_c, 0, 55, 26
3, 652187, Note_on_c, 0, 60, 0
3, 652256, Note_on_c, 0, 65, 0
3, 652264, Note_on_c, 0, 70, 0
3, 652412, Note_on_c, 0, 46, 0
3, 652484, Note_on_c, 0, 55, 0
3, 652676, Note_on_c, 0, 54, 19
3, 652852, Note_on_c, 0, 60, 45
3, 652858, Note_on_c, 0, 70, 48
3, 652860, Note_on_c, 0, 65, 50
3, 652891, Note_on_c, 0, 55, 48
3, 652911, Note_on_c, 0, 54, 0
3, 654171, Note_on_c, 0, 70, 0
3, 654196, Note_on_c, 0, 65, 0
3, 654329, Note_on_c, 0, 60, 0
3, 654355, Note_on_c, 0, 55, 0
3, 654422, Note_on_c, 0, 46, 38
3, 654862, Note_on_c, 0, 68, 72
3, 654895, Note_on_c, 0, 58, 21
3, 654900, Note_on_c, 0, 63, 66
3, 654993, Note_on_c, 0, 63, 0
3, 654998, Note_on_c, 0, 58, 0
3, 655136, Note_on_c, 0, 68, 0
3, 655817, Note_on_c, 0, 68, 95
3, 655825, Note_on_c, 0, 46, 0
3, 656393, Note_on_c, 0, 68, 0
3, 656836, Note_on_c, 0, 67, 73
3, 657215, Note_on_c, 0, 67, 0
3, 657402, Note_on_c, 0, 63, 38
3, 657555, Note_on_c, 0, 63, 0
3, 657760, Note_on_c, 0, 58, 38
3, 658418, Note_on_c, 0, 58, 0
3, 658543, Note_on_c, 0, 56, 54
3, 658812, Note_on_c, 0, 56, 0
3, 658945, Note_on_c, 0, 55, 25
3, 660581, Note_on_c, 0, 55, 0
3, 662516, Note_on_c, 0, 80, 82
3, 662545, Note_on_c, 0, 67, 46
3, 662616, Note_on_c, 0, 63, 34
3, 662642, Note_on_c, 0, 67, 0
3, 662655, Note_on_c, 0, 62, 24
3, 662714, Note_on_c, 0, 63, 0
3, 662770, Note_on_c, 0, 62, 0
3, 662890, Note_on_c, 0, 80, 0
3, 663092, Note_on_c, 0, 79, 58
3, 663410, Note_on_c, 0, 79, 0
3, 663533, Note_on_c, 0, 75, 14
3, 663837, Note_on_c, 0, 75, 0
3, 664047, Note_on_c, 0, 70, 26
3, 664221, Note_on_c, 0, 70, 0
3, 664442, Note_on_c, 0, 68, 36
3, 665056, Note_on_c, 0, 58, 27
3, 665059, Note_on_c, 0, 68, 0
3, 665169, Note_on_c, 0, 58, 0
3, 665376, Note_on_c, 0, 66, 46
3, 666005, Note_on_c, 0, 66, 0
3, 667025, Note_on_c, 0, 51, 20
3, 667029, Note_on_c, 0, 58, 19
3, 667137, Note_on_c, 0, 58, 0
3, 667142, Note_on_c, 0, 51, 0
3, 668351, Note_on_c, 0, 80, 86
3, 668734, Note_on_c, 0, 80, 0
3, 668880, Note_on_c, 0, 78, 54
3, 669160, Note_on_c, 0, 78, 0
3, 669935, Note_on_c, 0, 73, 61
3, 670189, Note_on_c, 0, 73, 0
3, 670304, Note_on_c, 0, 70, 39
3, 670670, Note_on_c, 0, 70, 0
3, 670860, Note_on_c, 0, 66, 51
3, 671118, Note_on_c, 0, 66, 0
3, 671269, Note_on_c, 0, 65, 34
3, 671888, Note_on_c, 0, 65, 0
3, 672196, Note_on_c, 0, 51, 39
3, 672221, Note_on_c, 0, 60, 36
3, 672426, Note_on_c, 0, 60, 0
3, 672474, Note_on_c, 0, 51, 0
3, 673678, Note_on_c, 0, 51, 35
3, 673783, Note_on_c, 0, 51, 0
3, 674019, Note_on_c, 0, 82, 91
3, 674305, Note_on_c, 0, 82, 0
3, 674551, Note_on_c, 0, 81, 54
3, 674950, Note_on_c, 0, 81, 0
3, 674994, Note_on_c, 0, 77, 26
3, 675276, Note_on_c, 0, 77, 0
3, 675462, Note_on_c, 0, 72, 36
3, 675611, Note_on_c, 0, 72, 0
3, 675626, Note_on_c, 0, 60, 17
3, 675718, Note_on_c, 0, 60, 0
3, 676402, Note_on_c, 0, 65, 25
3, 676443, Note_on_c, 0, 60, 31
3, 676466, Note_on_c, 0, 51, 26
3, 676502, Note_on_c, 0, 65, 0
3, 676547, Note_on_c, 0, 60, 0
3, 676589, Note_on_c, 0, 51, 0
3, 676868, Note_on_c, 0, 83, 66
3, 677229, Note_on_c, 0, 83, 0
3, 677411, Note_on_c, 0, 80, 61
3, 677738, Note_on_c, 0, 80, 0
3, 677928, Note_on_c, 0, 76, 31
3, 678291, Note_on_c, 0, 76, 0
3, 678347, Note_on_c, 0, 75, 55
3, 678437, Note_on_c, 0, 56, 30
3, 678448, Note_on_c, 0, 66, 26
3, 678545, Note_on_c, 0, 61, 13
3, 678591, Note_on_c, 0, 66, 0
3, 678619, Note_on_c, 0, 75, 0
3, 678747, Note_on_c, 0, 56, 0
3, 678826, Note_on_c, 0, 61, 0
3, 679336, Note_on_c, 0, 70, 40
3, 679466, Note_on_c, 0, 70, 0
3, 679638, Note_on_c, 0, 77, 71
3, 680060, Note_on_c, 0, 77, 0
3, 680278, Note_on_c, 0, 74, 39
3, 680495, Note_on_c, 0, 74, 0
3, 680710, Note_on_c, 0, 75, 60
3, 680772, Note_on_c, 0, 67, 27
3, 680897, Note_on_c, 0, 67, 0
3, 681163, Note_on_c, 0, 75, 0
3, 681215, Note_on_c, 0, 70, 40
3, 681545, Note_on_c, 0, 70, 0
3, 681681, Note_on_c, 0, 67, 31
3, 682131, Note_on_c, 0, 67, 0
3, 683339, Note_on_c, 0, 65, 26
3, 683355, Note_on_c, 0, 60, 36
3, 683460, Note_on_c, 0, 65, 0
3, 683470, Note_on_c, 0, 60, 0
3, 683631, Note_on_c, 0, 68, 80
3, 684253, Note_on_c, 0, 70, 63
3, 684328, Note_on_c, 0, 68, 0
3, 684527, Note_on_c, 0, 70, 0
3, 684607, Note_on_c, 0, 72, 68
3, 685132, Note_on_c, 0, 72, 0
3, 685513, Note_on_c, 0, 58, 63
3, 685518, Note_on_c, 0, 75, 79
3, 685569, Note_on_c, 0, 68, 42
3, 685574, Note_on_c, 0, 64, 35
3, 685994, Note_on_c, 0, 68, 0
3, 686068, Note_on_c, 0, 75, 0
3, 686168, Note_on_c, 0, 58, 0
3, 686184, Note_on_c, 0, 64, 0
3, 686430, Note_on_c, 0, 58, 58
3, 686432, Note_on_c, 0, 79, 79
3, 686442, Note_on_c, 0, 64, 54
3, 686470, Note_on_c, 0, 68, 62
3, 687021, Note_on_c, 0, 58, 0
3, 687067, Note_on_c, 0, 68, 0
3, 687075, Note_on_c, 0, 79, 0
3, 687259, Note_on_c, 0, 64, 0
3, 687410, Note_on_c, 0, 67, 64
3, 687417, Note_on_c, 0, 63, 54
3, 687425, Note_on_c, 0, 56, 49
3, 687428, Note_on_c, 0, 82, 74
3, 687435, Note_on_c, 0, 60, 60
3, 687441, Note_on_c, 0, 75, 72
3, 688600, Note_on_c, 0, 82, 0
3, 688652, Note_on_c, 0, 67, 0
3, 688659, Note_on_c, 0, 56, 0
3, 688705, Note_on_c, 0, 60, 0
3, 688718, Note_on_c, 0, 75, 0
3, 688723, Note_on_c, 0, 63, 0
3, 688977, Note_on_c, 0, 79, 56
3, 689000, Note_on_c, 0, 70, 55
3, 689010, Note_on_c, 0, 75, 24
3, 689013, Note_on_c, 0, 60, 45
3, 689023, Note_on_c, 0, 56, 33
3, 689028, Note_on_c, 0, 67, 35
3, 689031, Note_on_c, 0, 63, 38
3, 689351, Note_on_c, 0, 70, 0
3, 689374, Note_on_c, 0, 67, 0
3, 689422, Note_on_c, 0, 63, 0
3, 689440, Note_on_c, 0, 75, 0
3, 689486, Note_on_c, 0, 60, 0
3, 689555, Note_on_c, 0, 56, 0
3, 689665, Note_on_c, 0, 79, 0
3, 690357, Note_on_c, 0, 84, 75
3, 690359, Note_on_c, 0, 56, 70
3, 690365, Note_on_c, 0, 87, 74
3, 690367, Note_on_c, 0, 75, 72
3, 690375, Note_on_c, 0, 62, 64
3, 690395, Note_on_c, 0, 67, 60
3, 691493, Note_on_c, 0, 87, 0
3, 691626, Note_on_c, 0, 56, 0
3, 691672, Note_on_c, 0, 67, 0
3, 691729, Note_on_c, 0, 75, 0
3, 691731, Note_on_c, 0, 84, 0
3, 691775, Note_on_c, 0, 62, 0
3, 691949, Note_on_c, 0, 86, 47
3, 691954, Note_on_c, 0, 74, 55
3, 691980, Note_on_c, 0, 62, 48
3, 691990, Note_on_c, 0, 56, 46
3, 691992, Note_on_c, 0, 67, 41
3, 692707, Note_on_c, 0, 86, 0
3, 692842, Note_on_c, 0, 56, 0
3, 692878, Note_on_c, 0, 67, 0
3, 692927, Note_on_c, 0, 74, 0
3, 692991, Note_on_c, 0, 62, 0
3, 693323, Note_on_c, 0, 78, 47
3, 693329, Note_on_c, 0, 83, 37
3, 693344, Note_on_c, 0, 62, 43
3, 693352, Note_on_c, 0, 56, 49
3, 693354, Note_on_c, 0, 71, 28
3, 693382, Note_on_c, 0, 67, 38
3, 694135, Note_on_c, 0, 67, 0
3, 694194, Note_on_c, 0, 56, 0
3, 694368, Note_on_c, 0, 62, 0
3, 694453, Note_on_c, 0, 83, 0
3, 694493, Note_on_c, 0, 78, 0
3, 694499, Note_on_c, 0, 71, 0
3, 694813, Note_on_c, 0, 55, 20
3, 694826, Note_on_c, 0, 82, 29
3, 694828, Note_on_c, 0, 65, 34
3, 694847, Note_on_c, 0, 77, 38
3, 694849, Note_on_c, 0, 70, 38
3, 694857, Note_on_c, 0, 62, 28
3, 694867, Note_on_c, 0, 58, 42
3, 695098, Note_on_c, 0, 65, 0
3, 695141, Note_on_c, 0, 77, 0
3, 695146, Note_on_c, 0, 62, 0
3, 695151, Note_on_c, 0, 70, 0
3, 695179, Note_on_c, 0, 82, 0
3, 695197, Note_on_c, 0, 58, 0
3, 695300, Note_on_c, 0, 55, 0
3, 696728, Note_on_c, 0, 72, 69
3, 696736, Note_on_c, 0, 82, 63
3, 696749, Note_on_c, 0, 77, 50
3, 696787, Note_on_c, 0, 67, 51
3, 696815, Note_on_c, 0, 72, 0
3, 696846, Note_on_c, 0, 77, 0
3, 696877, Note_on_c, 0, 67, 0
3, 696936, Note_on_c, 0, 82, 0
3, 700522, Note_on_c, 0, 62, 47
3, 700609, Note_on_c, 0, 62, 0
3, 700786, Note_on_c, 0, 67, 83
3, 701344, Note_on_c, 0, 67, 0
3, 701377, Note_on_c, 0, 69, 22
3, 701380, Note_on_c, 0, 66, 39
3, 701608, Note_on_c, 0, 66, 0
3, 701626, Note_on_c, 0, 69, 0
3, 701782, Note_on_c, 0, 67, 37
3, 702197, Note_on_c, 0, 67, 0
3, 702324, Note_on_c, 0, 66, 38
3, 702527, Note_on_c, 0, 66, 0
3, 702719, Note_on_c, 0, 67, 35
3, 703190, Note_on_c, 0, 67, 0
3, 703325, Note_on_c, 0, 66, 39
3, 703361, Note_on_c, 0, 68, 43
3, 703387, Note_on_c, 0, 63, 28
3, 703400, Note_on_c, 0, 56, 17
3, 703451, Note_on_c, 0, 59, 18
3, 703937, Note_on_c, 0, 68, 0
3, 704180, Note_on_c, 0, 63, 0
3, 704541, Note_on_c, 0, 66, 0
3, 704572, Note_on_c, 0, 63, 11
3, 704695, Note_on_c, 0, 68, 65
3, 704838, Note_on_c, 0, 63, 0
3, 704966, Note_on_c, 0, 59, 0
3, 705230, Note_on_c, 0, 68, 0
3, 705345, Note_on_c, 0, 67, 19
3, 705524, Note_on_c, 0, 67, 0
3, 705683, Note_on_c, 0, 68, 37
3, 705732, Note_on_c, 0, 56, 0
3, 706290, Note_on_c, 0, 70, 65
3, 706354, Note_on_c, 0, 63, 40
3, 706367, Note_on_c, 0, 68, 0
3, 706469, Note_on_c, 0, 63, 0
3, 706620, Note_on_c, 0, 70, 0
3, 706745, Note_on_c, 0, 71, 39
3, 707278, Note_on_c, 0, 71, 0
3, 708143, Note_on_c, 0, 59, 26
3, 708174, Note_on_c, 0, 70, 20
3, 708210, Note_on_c, 0, 65, 31
3, 708269, Note_on_c, 0, 70, 0
3, 708461, Note_on_c, 0, 65, 0
3, 708481, Note_on_c, 0, 59, 0
3, 708550, Note_on_c, 0, 70, 56
3, 708926, Note_on_c, 0, 70, 0
3, 709229, Note_on_c, 0, 59, 40
3, 709267, Note_on_c, 0, 65, 25
3, 709405, Note_on_c, 0, 65, 0
3, 709600, Note_on_c, 0, 59, 0
3, 709631, Note_on_c, 0, 69, 61
3, 710074, Note_on_c, 0, 69, 0
3, 710150, Note_on_c, 0, 70, 56
3, 710186, Note_on_c, 0, 65, 26
3, 710204, Note_on_c, 0, 68, 20
3, 710245, Note_on_c, 0, 63, 19
3, 710291, Note_on_c, 0, 68, 0
3, 710363, Note_on_c, 0, 63, 0
3, 710378, Note_on_c, 0, 65, 0
3, 710476, Note_on_c, 0, 70, 0
3, 710614, Note_on_c, 0, 71, 46
3, 711041, Note_on_c, 0, 71, 0
3, 711041, Note_on_c, 0, 65, 19
3, 711108, Note_on_c, 0, 72, 57
3, 711236, Note_on_c, 0, 65, 0
3, 711366, Note_on_c, 0, 72, 0
3, 711461, Note_on_c, 0, 73, 64
3, 711983, Note_on_c, 0, 73, 0
3, 712173, Note_on_c, 0, 65, 16
3, 712380, Note_on_c, 0, 65, 0
3, 712431, Note_on_c, 0, 73, 68
3, 712969, Note_on_c, 0, 65, 46
3, 712982, Note_on_c, 0, 68, 28
3, 713038, Note_on_c, 0, 63, 27
3, 713087, Note_on_c, 0, 68, 0
3, 713161, Note_on_c, 0, 65, 0
3, 713174, Note_on_c, 0, 63, 0
3, 713742, Note_on_c, 0, 73, 0
3, 713875, Note_on_c, 0, 72, 49
3, 714159, Note_on_c, 0, 72, 0
3, 714356, Note_on_c, 0, 73, 31
3, 714699, Note_on_c, 0, 73, 0
3, 714812, Note_on_c, 0, 74, 60
3, 714927, Note_on_c, 0, 62, 33
3, 715055, Note_on_c, 0, 62, 0
3, 715094, Note_on_c, 0, 74, 0
3, 715306, Note_on_c, 0, 75, 20
3, 715752, Note_on_c, 0, 76, 45
3, 715767, Note_on_c, 0, 75, 0
3, 715831, Note_on_c, 0, 66, 38
3, 715839, Note_on_c, 0, 56, 34
3, 715843, Note_on_c, 0, 62, 42
3, 715921, Note_on_c, 0, 66, 0
3, 715949, Note_on_c, 0, 62, 0
3, 715959, Note_on_c, 0, 56, 0
3, 715995, Note_on_c, 0, 76, 0
3, 716179, Note_on_c, 0, 77, 43
3, 716522, Note_on_c, 0, 77, 0
3, 716683, Note_on_c, 0, 67, 44
3, 716686, Note_on_c, 0, 62, 48
3, 716689, Note_on_c, 0, 56, 41
3, 716696, Note_on_c, 0, 82, 60
3, 716712, Note_on_c, 0, 59, 25
3, 716824, Note_on_c, 0, 67, 0
3, 716934, Note_on_c, 0, 62, 0
3, 716957, Note_on_c, 0, 82, 0
3, 716962, Note_on_c, 0, 56, 0
3, 717019, Note_on_c, 0, 59, 0
3, 717059, Note_on_c, 0, 86, 63
3, 717536, Note_on_c, 0, 86, 0
3, 717600, Note_on_c, 0, 89, 88
3, 717672, Note_on_c, 0, 65, 54
3, 717682, Note_on_c, 0, 88, 28
3, 717684, Note_on_c, 0, 55, 38
3, 717689, Note_on_c, 0, 60, 47
3, 717756, Note_on_c, 0, 65, 0
3, 717769, Note_on_c, 0, 88, 0
3, 717882, Note_on_c, 0, 60, 0
3, 717951, Note_on_c, 0, 55, 0
3, 718094, Note_on_c, 0, 87, 58
3, 718102, Note_on_c, 0, 89, 0
3, 718460, Note_on_c, 0, 87, 0
3, 718640, Note_on_c, 0, 83, 52
3, 718839, Note_on_c, 0, 83, 0
3, 719016, Note_on_c, 0, 86, 75
3, 719553, Note_on_c, 0, 83, 29
3, 719563, Note_on_c, 0, 86, 0
3, 719776, Note_on_c, 0, 83, 0
3, 719971, Note_on_c, 0, 84, 52
3, 720414, Note_on_c, 0, 84, 0
3, 720490, Note_on_c, 0, 79, 49
3, 720600, Note_on_c, 0, 65, 31
3, 720716, Note_on_c, 0, 65, 0
3, 720764, Note_on_c, 0, 79, 0
3, 720943, Note_on_c, 0, 77, 25
3, 721390, Note_on_c, 0, 77, 0
3, 721511, Note_on_c, 0, 75, 23
3, 721712, Note_on_c, 0, 75, 0
3, 721924, Note_on_c, 0, 74, 43
3, 722052, Note_on_c, 0, 65, 17
3, 722236, Note_on_c, 0, 65, 0
3, 722436, Note_on_c, 0, 77, 57
3, 722467, Note_on_c, 0, 74, 0
3, 722874, Note_on_c, 0, 77, 0
3, 722943, Note_on_c, 0, 75, 18
3, 723278, Note_on_c, 0, 75, 0
3, 723355, Note_on_c, 0, 70, 54
3, 723455, Note_on_c, 0, 65, 20
3, 723562, Note_on_c, 0, 60, 12
3, 723580, Note_on_c, 0, 65, 0
3, 723649, Note_on_c, 0, 70, 0
3, 723665, Note_on_c, 0, 60, 0
3, 723843, Note_on_c, 0, 67, 25
3, 724673, Note_on_c, 0, 67, 0
3, 724770, Note_on_c, 0, 65, 43
3, 725754, Note_on_c, 0, 66, 45
3, 725805, Note_on_c, 0, 65, 0
3, 727346, Note_on_c, 0, 61, 41
3, 727640, Note_on_c, 0, 61, 0
3, 727715, Note_on_c, 0, 58, 23
3, 727845, Note_on_c, 0, 66, 0
3, 728301, Note_on_c, 0, 58, 0
3, 728708, Note_on_c, 0, 58, 27
3, 733210, Note_on_c, 0, 58, 0
3, 734071, Note_on_c, 0, 56, 56
3, 734299, Note_on_c, 0, 56, 0
3, 734463, Note_on_c, 0, 57, 35
3, 734844, Note_on_c, 0, 57, 0
3, 734954, Note_on_c, 0, 60, 64
3, 735279, Note_on_c, 0, 60, 0
3, 735387, Note_on_c, 0, 65, 51
3, 735876, Note_on_c, 0, 69, 75
3, 735996, Note_on_c, 0, 57, 23
3, 735999, Note_on_c, 0, 65, 0
3, 736016, Note_on_c, 0, 59, 21
3, 736142, Note_on_c, 0, 69, 0
3, 736239, Note_on_c, 0, 57, 0
3, 736278, Note_on_c, 0, 59, 0
3, 736318, Note_on_c, 0, 72, 80
3, 736646, Note_on_c, 0, 72, 0
3, 736795, Note_on_c, 0, 77, 69
3, 737064, Note_on_c, 0, 77, 0
3, 737258, Note_on_c, 0, 81, 59
3, 737678, Note_on_c, 0, 81, 0
3, 737706, Note_on_c, 0, 80, 57
3, 738044, Note_on_c, 0, 66, 17
3, 738049, Note_on_c, 0, 56, 34
3, 738051, Note_on_c, 0, 80, 0
3, 738146, Note_on_c, 0, 61, 24
3, 738249, Note_on_c, 0, 76, 24
3, 738610, Note_on_c, 0, 76, 0
3, 738776, Note_on_c, 0, 56, 0
3, 738833, Note_on_c, 0, 66, 0
3, 738843, Note_on_c, 0, 61, 0
3, 739828, Note_on_c, 0, 56, 29
3, 739836, Note_on_c, 0, 66, 27
3, 739900, Note_on_c, 0, 61, 30
3, 740607, Note_on_c, 0, 56, 0
3, 740781, Note_on_c, 0, 66, 0
3, 741003, Note_on_c, 0, 61, 0
3, 741139, Note_on_c, 0, 55, 29
3, 741162, Note_on_c, 0, 65, 22
3, 741180, Note_on_c, 0, 60, 38
3, 742371, Note_on_c, 0, 65, 0
3, 742437, Note_on_c, 0, 60, 0
3, 742683, Note_on_c, 0, 70, 46
3, 742941, Note_on_c, 0, 70, 0
3, 742947, Note_on_c, 0, 72, 47
3, 743144, Note_on_c, 0, 55, 0
3, 743233, Note_on_c, 0, 72, 0
3, 743284, Note_on_c, 0, 74, 52
3, 743400, Note_on_c, 0, 74, 0
3, 743617, Note_on_c, 0, 77, 35
3, 743668, Note_on_c, 0, 79, 32
3, 743773, Note_on_c, 0, 77, 0
3, 743781, Note_on_c, 0, 79, 0
3, 743904, Note_on_c, 0, 79, 45
3, 744042, Note_on_c, 0, 79, 0
3, 744741, Note_on_c, 0, 86, 47
3, 744956, Note_on_c, 0, 89, 88
3, 744974, Note_on_c, 0, 86, 0
3, 745179, Note_on_c, 0, 70, 19
3, 745194, Note_on_c, 0, 65, 8
3, 745297, Note_on_c, 0, 86, 54
3, 745315, Note_on_c, 0, 70, 0
3, 745414, Note_on_c, 0, 89, 0
3, 745729, Note_on_c, 0, 86, 0
3, 746044, Note_on_c, 0, 86, 60
3, 746139, Note_on_c, 0, 65, 0
3, 746474, Note_on_c, 0, 86, 0
3, 746648, Note_on_c, 0, 82, 28
3, 746804, Note_on_c, 0, 82, 0
3, 746986, Note_on_c, 0, 86, 57
3, 747457, Note_on_c, 0, 86, 0
3, 747572, Note_on_c, 0, 82, 45
3, 747841, Note_on_c, 0, 82, 0
3, 748136, Note_on_c, 0, 79, 1
3, 748481, Note_on_c, 0, 79, 0
3, 748586, Note_on_c, 0, 77, 9
3, 748701, Note_on_c, 0, 77, 0
3, 748817, Note_on_c, 0, 82, 57
3, 749198, Note_on_c, 0, 82, 0
3, 749823, Note_on_c, 0, 80, 43
3, 749856, Note_on_c, 0, 81, 27
3, 750109, Note_on_c, 0, 80, 0
3, 750138, Note_on_c, 0, 81, 0
3, 750394, Note_on_c, 0, 76, 24
3, 750590, Note_on_c, 0, 76, 0
3, 750742, Note_on_c, 0, 80, 60
3, 751272, Note_on_c, 0, 80, 0
3, 751336, Note_on_c, 0, 76, 24
3, 751502, Note_on_c, 0, 76, 0
3, 751669, Note_on_c, 0, 79, 51
3, 752309, Note_on_c, 0, 77, 44
3, 752316, Note_on_c, 0, 79, 0
3, 752623, Note_on_c, 0, 77, 0
3, 752730, Note_on_c, 0, 72, 62
3, 753312, Note_on_c, 0, 50, 21
3, 753414, Note_on_c, 0, 50, 0
3, 754098, Note_on_c, 0, 72, 0
3, 754228, Note_on_c, 0, 74, 66
3, 754257, Note_on_c, 0, 59, 63
3, 754272, Note_on_c, 0, 65, 65
3, 754280, Note_on_c, 0, 70, 69
3, 754510, Note_on_c, 0, 74, 0
3, 754676, Note_on_c, 0, 79, 81
3, 754696, Note_on_c, 0, 70, 0
3, 755060, Note_on_c, 0, 79, 0
3, 755096, Note_on_c, 0, 65, 0
3, 755183, Note_on_c, 0, 77, 64
3, 755247, Note_on_c, 0, 68, 43
3, 755281, Note_on_c, 0, 65, 16
3, 755347, Note_on_c, 0, 68, 0
3, 755442, Note_on_c, 0, 65, 0
3, 755575, Note_on_c, 0, 59, 0
3, 755608, Note_on_c, 0, 77, 0
3, 755667, Note_on_c, 0, 75, 27
3, 756026, Note_on_c, 0, 75, 0
3, 756125, Note_on_c, 0, 74, 54
3, 756407, Note_on_c, 0, 60, 24
3, 756463, Note_on_c, 0, 74, 0
3, 756474, Note_on_c, 0, 63, 25
3, 756509, Note_on_c, 0, 67, 8
3, 756514, Note_on_c, 0, 72, 31
3, 756886, Note_on_c, 0, 72, 0
3, 756996, Note_on_c, 0, 67, 0
3, 757042, Note_on_c, 0, 71, 35
3, 757216, Note_on_c, 0, 71, 0
3, 757387, Note_on_c, 0, 63, 0
3, 757441, Note_on_c, 0, 74, 51
3, 757754, Note_on_c, 0, 60, 0
3, 757953, Note_on_c, 0, 71, 41
3, 757958, Note_on_c, 0, 74, 0
3, 758204, Note_on_c, 0, 71, 0
3, 758435, Note_on_c, 0, 72, 49
3, 758463, Note_on_c, 0, 58, 16
3, 759187, Note_on_c, 0, 58, 0
3, 759272, Note_on_c, 0, 72, 0
3, 759374, Note_on_c, 0, 67, 43
3, 759656, Note_on_c, 0, 67, 0
3, 760360, Note_on_c, 0, 75, 66
3, 760401, Note_on_c, 0, 57, 17
3, 760424, Note_on_c, 0, 63, 21
3, 760541, Note_on_c, 0, 63, 0
3, 760628, Note_on_c, 0, 75, 0
3, 760646, Note_on_c, 0, 57, 0
3, 761320, Note_on_c, 0, 75, 60
3, 761629, Note_on_c, 0, 75, 0
3, 762318, Note_on_c, 0, 75, 62
3, 762354, Note_on_c, 0, 54, 19
3, 762377, Note_on_c, 0, 60, 28
3, 762520, Note_on_c, 0, 60, 0
3, 762671, Note_on_c, 0, 75, 0
3, 762787, Note_on_c, 0, 54, 0
3, 762874, Note_on_c, 0, 74, 54
3, 763245, Note_on_c, 0, 74, 0
3, 763334, Note_on_c, 0, 72, 29
3, 763677, Note_on_c, 0, 72, 0
3, 763839, Note_on_c, 0, 70, 37
3, 764228, Note_on_c, 0, 70, 0
3, 764246, Note_on_c, 0, 69, 42
3, 764294, Note_on_c, 0, 62, 14
3, 764328, Note_on_c, 0, 65, 1
3, 764778, Note_on_c, 0, 69, 0
3, 764814, Note_on_c, 0, 70, 54
3, 764927, Note_on_c, 0, 65, 0
3, 764945, Note_on_c, 0, 62, 0
3, 765162, Note_on_c, 0, 70, 0
3, 765305, Note_on_c, 0, 72, 27
3, 765436, Note_on_c, 0, 72, 0
3, 765748, Note_on_c, 0, 75, 30
3, 765986, Note_on_c, 0, 75, 0
3, 766089, Note_on_c, 0, 64, 22
3, 766261, Note_on_c, 0, 58, 1
3, 766670, Note_on_c, 0, 68, 1
3, 766785, Note_on_c, 0, 77, 47
3, 766926, Note_on_c, 0, 77, 0
3, 766944, Note_on_c, 0, 68, 0
3, 767133, Note_on_c, 0, 58, 0
3, 767225, Note_on_c, 0, 84, 46
3, 767254, Note_on_c, 0, 64, 0
3, 767505, Note_on_c, 0, 84, 0
3, 767638, Note_on_c, 0, 87, 82
3, 767930, Note_on_c, 0, 67, 18
3, 767953, Note_on_c, 0, 63, 23
3, 767971, Note_on_c, 0, 60, 28
3, 767976, Note_on_c, 0, 87, 0
3, 768024, Note_on_c, 0, 67, 0
3, 768088, Note_on_c, 0, 84, 48
3, 768273, Note_on_c, 0, 63, 0
3, 768424, Note_on_c, 0, 60, 0
3, 768728, Note_on_c, 0, 84, 0
3, 769051, Note_on_c, 0, 84, 63
3, 769588, Note_on_c, 0, 84, 0
3, 769978, Note_on_c, 0, 67, 18
3, 770006, Note_on_c, 0, 62, 29
3, 770014, Note_on_c, 0, 84, 52
3, 770042, Note_on_c, 0, 56, 16
3, 770438, Note_on_c, 0, 84, 0
3, 770922, Note_on_c, 0, 67, 0
3, 770925, Note_on_c, 0, 62, 0
3, 770940, Note_on_c, 0, 80, 49
3, 771009, Note_on_c, 0, 56, 0
3, 771413, Note_on_c, 0, 80, 0
3, 771918, Note_on_c, 0, 65, 23
3, 771969, Note_on_c, 0, 82, 50
3, 771980, Note_on_c, 0, 62, 25
3, 771992, Note_on_c, 0, 58, 24
3, 771998, Note_on_c, 0, 55, 10
3, 772210, Note_on_c, 0, 62, 0
3, 772212, Note_on_c, 0, 65, 0
3, 772225, Note_on_c, 0, 82, 0
3, 772284, Note_on_c, 0, 55, 0
3, 772305, Note_on_c, 0, 58, 0
3, 772901, Note_on_c, 0, 79, 54
3, 773252, Note_on_c, 0, 79, 0
3, 773874, Note_on_c, 0, 65, 26
3, 773900, Note_on_c, 0, 80, 53
3, 773938, Note_on_c, 0, 62, 22
3, 773943, Note_on_c, 0, 58, 23
3, 773984, Note_on_c, 0, 55, 9
3, 774165, Note_on_c, 0, 65, 0
3, 774189, Note_on_c, 0, 80, 0
3, 774204, Note_on_c, 0, 62, 0
3, 774214, Note_on_c, 0, 55, 0
3, 774240, Note_on_c, 0, 58, 0
3, 774826, Note_on_c, 0, 77, 64
3, 775067, Note_on_c, 0, 77, 0
3, 775763, Note_on_c, 0, 79, 93
3, 775773, Note_on_c, 0, 64, 52
3, 775799, Note_on_c, 0, 58, 51
3, 775801, Note_on_c, 0, 68, 48
3, 775896, Note_on_c, 0, 58, 0
3, 775919, Note_on_c, 0, 68, 0
3, 776070, Note_on_c, 0, 64, 0
3, 776073, Note_on_c, 0, 79, 0
3, 776710, Note_on_c, 0, 75, 91
3, 776721, Note_on_c, 0, 64, 59
3, 776741, Note_on_c, 0, 58, 59
3, 776761, Note_on_c, 0, 68, 52
3, 776987, Note_on_c, 0, 68, 0
3, 777046, Note_on_c, 0, 75, 0
3, 777102, Note_on_c, 0, 58, 0
3, 777130, Note_on_c, 0, 64, 0
3, 777729, Note_on_c, 0, 77, 88
3, 777742, Note_on_c, 0, 67, 56
3, 777750, Note_on_c, 0, 56, 48
3, 777806, Note_on_c, 0, 62, 33
3, 777822, Note_on_c, 0, 63, 31
3, 778042, Note_on_c, 0, 63, 0
3, 778648, Note_on_c, 0, 77, 0
3, 778689, Note_on_c, 0, 67, 0
3, 778723, Note_on_c, 0, 74, 56
3, 778725, Note_on_c, 0, 62, 0
3, 778899, Note_on_c, 0, 56, 0
3, 779156, Note_on_c, 0, 74, 0
3, 779583, Note_on_c, 0, 65, 50
3, 779614, Note_on_c, 0, 55, 32
3, 779621, Note_on_c, 0, 75, 64
3, 779627, Note_on_c, 0, 60, 45
3, 779688, Note_on_c, 0, 65, 0
3, 779739, Note_on_c, 0, 60, 0
3, 779767, Note_on_c, 0, 55, 0
3, 779982, Note_on_c, 0, 75, 0
3, 780558, Note_on_c, 0, 70, 50
3, 781093, Note_on_c, 0, 70, 0
3, 781196, Note_on_c, 0, 68, 32
3, 781331, Note_on_c, 0, 68, 0
3, 781613, Note_on_c, 0, 70, 37
3, 782030, Note_on_c, 0, 70, 0
3, 782511, Note_on_c, 0, 70, 47
3, 782911, Note_on_c, 0, 70, 0
3, 782998, Note_on_c, 0, 69, 26
3, 783269, Note_on_c, 0, 69, 0
3, 783363, Note_on_c, 0, 70, 35
3, 783779, Note_on_c, 0, 70, 0
3, 783960, Note_on_c, 0, 79, 43
3, 784139, Note_on_c, 0, 79, 0
3, 785414, Note_on_c, 0, 70, 59
3, 786853, Note_on_c, 0, 70, 0
3, 786963, Note_on_c, 0, 69, 18
3, 787252, Note_on_c, 0, 70, 38
3, 787675, Note_on_c, 0, 69, 0
3, 787701, Note_on_c, 0, 70, 0
3, 787839, Note_on_c, 0, 78, 51
3, 787859, Note_on_c, 0, 51, 34
3, 787985, Note_on_c, 0, 51, 0
3, 788197, Note_on_c, 0, 78, 0
3, 789188, Note_on_c, 0, 66, 43
3, 789215, Note_on_c, 0, 56, 30
3, 789318, Note_on_c, 0, 61, 15
3, 789416, Note_on_c, 0, 56, 0
3, 789436, Note_on_c, 0, 66, 0
3, 789549, Note_on_c, 0, 61, 0
3, 790153, Note_on_c, 0, 68, 41
3, 790184, Note_on_c, 0, 63, 46
3, 790202, Note_on_c, 0, 58, 29
3, 790278, Note_on_c, 0, 68, 0
3, 790319, Note_on_c, 0, 58, 0
3, 790353, Note_on_c, 0, 63, 0
3, 791082, Note_on_c, 0, 82, 75
3, 791517, Note_on_c, 0, 82, 0
3, 792026, Note_on_c, 0, 66, 45
3, 792072, Note_on_c, 0, 56, 38
3, 792116, Note_on_c, 0, 61, 22
3, 792178, Note_on_c, 0, 56, 0
3, 792193, Note_on_c, 0, 66, 0
3, 792280, Note_on_c, 0, 61, 0
3, 793059, Note_on_c, 0, 80, 55
3, 793381, Note_on_c, 0, 80, 0
3, 793658, Note_on_c, 0, 82, 39
3, 793800, Note_on_c, 0, 51, 31
3, 793850, Note_on_c, 0, 82, 0
3, 793911, Note_on_c, 0, 51, 0
3, 794070, Note_on_c, 0, 84, 40
3, 794436, Note_on_c, 0, 84, 0
3, 794597, Note_on_c, 0, 85, 23
3, 794822, Note_on_c, 0, 85, 0
3, 795024, Note_on_c, 0, 86, 36
3, 795342, Note_on_c, 0, 86, 0
3, 795537, Note_on_c, 0, 89, 57
3, 795575, Note_on_c, 0, 57, 28
3, 795629, Note_on_c, 0, 65, 20
3, 795644, Note_on_c, 0, 60, 22
3, 795718, Note_on_c, 0, 65, 0
3, 795749, Note_on_c, 0, 60, 0
3, 795780, Note_on_c, 0, 89, 0
3, 795836, Note_on_c, 0, 57, 0
3, 795959, Note_on_c, 0, 93, 54
3, 796369, Note_on_c, 0, 93, 0
3, 796440, Note_on_c, 0, 96, 69
3, 796548, Note_on_c, 0, 51, 43
3, 796732, Note_on_c, 0, 51, 0
3, 796776, Note_on_c, 0, 96, 0
3, 796993, Note_on_c, 0, 93, 29
3, 797411, Note_on_c, 0, 93, 0
3, 797774, Note_on_c, 0, 65, 56
3, 797784, Note_on_c, 0, 93, 56
3, 797792, Note_on_c, 0, 55, 42
3, 797974, Note_on_c, 0, 55, 0
3, 798007, Note_on_c, 0, 65, 0
3, 798179, Note_on_c, 0, 93, 0
3, 799328, Note_on_c, 0, 66, 46
3, 799354, Note_on_c, 0, 56, 41
3, 799436, Note_on_c, 0, 61, 26
3, 800280, Note_on_c, 0, 56, 0
3, 800506, Note_on_c, 0, 66, 0
3, 800526, Note_on_c, 0, 61, 0
3, 800705, Note_on_c, 0, 68, 60
3, 800741, Note_on_c, 0, 63, 47
3, 800782, Note_on_c, 0, 58, 50
3, 801683, Note_on_c, 0, 92, 79
3, 801693, Note_on_c, 0, 99, 77
3, 801870, Note_on_c, 0, 68, 0
3, 801911, Note_on_c, 0, 63, 0
3, 802057, Note_on_c, 0, 58, 0
3, 802116, Note_on_c, 0, 99, 0
3, 802318, Note_on_c, 0, 95, 44
3, 802341, Note_on_c, 0, 87, 49
3, 802369, Note_on_c, 0, 65, 57
3, 802441, Note_on_c, 0, 60, 31
3, 802461, Note_on_c, 0, 55, 14
3, 802469, Note_on_c, 0, 92, 0
3, 802797, Note_on_c, 0, 95, 0
3, 802835, Note_on_c, 0, 87, 0
3, 803002, Note_on_c, 0, 91, 58
3, 803007, Note_on_c, 0, 98, 59
3, 803483, Note_on_c, 0, 98, 0
3, 803534, Note_on_c, 0, 91, 0
3, 803670, Note_on_c, 0, 94, 41
3, 803693, Note_on_c, 0, 86, 39
3, 803982, Note_on_c, 0, 94, 0
3, 804087, Note_on_c, 0, 86, 0
3, 804376, Note_on_c, 0, 94, 50
3, 804417, Note_on_c, 0, 89, 35
3, 804440, Note_on_c, 0, 82, 23
3, 804586, Note_on_c, 0, 89, 0
3, 804594, Note_on_c, 0, 94, 0
3, 804683, Note_on_c, 0, 65, 0
3, 804686, Note_on_c, 0, 82, 0
3, 804694, Note_on_c, 0, 60, 0
3, 805183, Note_on_c, 0, 65, 42
3, 805219, Note_on_c, 0, 60, 35
3, 805313, Note_on_c, 0, 65, 0
3, 805331, Note_on_c, 0, 60, 0
3, 805474, Note_on_c, 0, 55, 0
3, 806102, Note_on_c, 0, 89, 80
3, 806110, Note_on_c, 0, 77, 72
3, 806115, Note_on_c, 0, 82, 65
3, 807033, Note_on_c, 0, 77, 0
3, 807069, Note_on_c, 0, 89, 0
3, 807123, Note_on_c, 0, 82, 0
3, 807208, Note_on_c, 0, 65, 50
3, 807213, Note_on_c, 0, 55, 38
3, 807218, Note_on_c, 0, 62, 39
3, 807264, Note_on_c, 0, 58, 42
3, 807430, Note_on_c, 0, 65, 0
3, 807448, Note_on_c, 0, 55, 0
3, 807484, Note_on_c, 0, 62, 0
3, 807487, Note_on_c, 0, 58, 0
3, 808252, Note_on_c, 0, 58, 72
3, 808257, Note_on_c, 0, 90, 80
3, 808262, Note_on_c, 0, 61, 75
3, 808273, Note_on_c, 0, 64, 73
3, 808275, Note_on_c, 0, 84, 79
3, 808285, Note_on_c, 0, 96, 76
3, 808290, Note_on_c, 0, 68, 72
3, 808293, Note_on_c, 0, 94, 72
3, 808582, Note_on_c, 0, 84, 0
3, 808611, Note_on_c, 0, 94, 0
3, 808621, Note_on_c, 0, 90, 0
3, 808626, Note_on_c, 0, 96, 0
3, 808646, Note_on_c, 0, 68, 0
3, 808733, Note_on_c, 0, 61, 0
3, 808749, Note_on_c, 0, 64, 0
3, 808767, Note_on_c, 0, 58, 0
3, 809235, Note_on_c, 0, 58, 74
3, 809240, Note_on_c, 0, 87, 87
3, 809243, Note_on_c, 0, 64, 73
3, 809245, Note_on_c, 0, 94, 80
3, 809251, Note_on_c, 0, 99, 83
3, 809268, Note_on_c, 0, 61, 69
3, 809274, Note_on_c, 0, 68, 79
3, 809675, Note_on_c, 0, 99, 0
3, 809724, Note_on_c, 0, 94, 0
3, 809773, Note_on_c, 0, 87, 0
3, 809793, Note_on_c, 0, 68, 0
3, 809804, Note_on_c, 0, 58, 0
3, 809952, Note_on_c, 0, 61, 0
3, 809990, Note_on_c, 0, 64, 0
3, 810277, Note_on_c, 0, 91, 58
3, 810282, Note_on_c, 0, 84, 51
3, 810285, Note_on_c, 0, 56, 34
3, 810287, Note_on_c, 0, 60, 52
3, 810289, Note_on_c, 0, 96, 58
3, 810308, Note_on_c, 0, 63, 45
3, 810313, Note_on_c, 0, 67, 46
3, 811186, Note_on_c, 0, 96, 0
3, 811240, Note_on_c, 0, 91, 0
3, 811496, Note_on_c, 0, 84, 0
3, 811509, Note_on_c, 0, 67, 0
3, 811567, Note_on_c, 0, 60, 0
3, 811598, Note_on_c, 0, 63, 0
3, 811631, Note_on_c, 0, 56, 0
3, 811826, Note_on_c, 0, 92, 34
3, 811870, Note_on_c, 0, 56, 26
3, 811890, Note_on_c, 0, 87, 48
3, 811903, Note_on_c, 0, 80, 21
3, 811946, Note_on_c, 0, 63, 25
3, 811949, Note_on_c, 0, 60, 41
3, 811974, Note_on_c, 0, 67, 19
3, 812440, Note_on_c, 0, 92, 0
3, 812561, Note_on_c, 0, 87, 0
3, 812835, Note_on_c, 0, 80, 0
3, 813633, Note_on_c, 0, 67, 0
3, 813736, Note_on_c, 0, 56, 0
3, 813928, Note_on_c, 0, 63, 0
3, 813946, Note_on_c, 0, 60, 0
3, 814161, Note_on_c, 0, 79, 76
3, 814163, Note_on_c, 0, 75, 61
3, 814166, Note_on_c, 0, 72, 77
3, 814173, Note_on_c, 0, 67, 67
3, 814176, Note_on_c, 0, 68, 75
3, 814496, Note_on_c, 0, 68, 0
3, 814547, Note_on_c, 0, 72, 0
3, 814550, Note_on_c, 0, 75, 0
3, 814596, Note_on_c, 0, 79, 0
3, 814673, Note_on_c, 0, 67, 0
3, 814867, Note_on_c, 0, 63, 28
3, 815141, Note_on_c, 0, 79, 66
3, 815156, Note_on_c, 0, 72, 66
3, 815167, Note_on_c, 0, 75, 40
3, 815169, Note_on_c, 0, 68, 65
3, 815172, Note_on_c, 0, 63, 0
3, 815203, Note_on_c, 0, 67, 55
3, 815441, Note_on_c, 0, 67, 0
3, 815540, Note_on_c, 0, 79, 0
3, 815561, Note_on_c, 0, 75, 0
3, 815563, Note_on_c, 0, 72, 0
3, 815671, Note_on_c, 0, 68, 0
3, 816093, Note_on_c, 0, 63, 33
3, 816096, Note_on_c, 0, 75, 20
3, 816122, Note_on_c, 0, 68, 49
3, 816132, Note_on_c, 0, 65, 46
3, 816145, Note_on_c, 0, 72, 40
3, 816357, Note_on_c, 0, 63, 0
3, 816375, Note_on_c, 0, 68, 0
3, 816401, Note_on_c, 0, 72, 0
3, 816411, Note_on_c, 0, 75, 0
3, 816477, Note_on_c, 0, 65, 0
3, 817048, Note_on_c, 0, 59, 36
3, 817069, Note_on_c, 0, 66, 43
3, 817099, Note_on_c, 0, 62, 50
3, 817112, Note_on_c, 0, 71, 26
3, 817117, Note_on_c, 0, 69, 30
3, 817151, Note_on_c, 0, 59, 0
3, 817414, Note_on_c, 0, 69, 0
3, 817491, Note_on_c, 0, 71, 0
3, 817517, Note_on_c, 0, 66, 0
3, 817519, Note_on_c, 0, 62, 0
3, 817829, Note_on_c, 0, 52, 22
3, 818039, Note_on_c, 0, 52, 0
3, 818085, Note_on_c, 0, 55, 30
3, 818090, Note_on_c, 0, 60, 41
3, 818106, Note_on_c, 0, 70, 41
3, 818123, Note_on_c, 0, 65, 32
3, 818479, Note_on_c, 0, 70, 0
3, 818518, Note_on_c, 0, 65, 0
3, 818691, Note_on_c, 0, 60, 0
3, 818907, Note_on_c, 0, 55, 0
3, 819050, Note_on_c, 0, 64, 38
3, 819053, Note_on_c, 0, 69, 34
3, 819060, Note_on_c, 0, 54, 29
3, 819089, Note_on_c, 0, 60, 29
3, 819406, Note_on_c, 0, 60, 0
3, 819516, Note_on_c, 0, 69, 0
3, 819531, Note_on_c, 0, 64, 0
3, 819667, Note_on_c, 0, 54, 0
3, 819713, Note_on_c, 0, 70, 37
3, 819736, Note_on_c, 0, 60, 24
3, 819739, Note_on_c, 0, 65, 37
3, 819744, Note_on_c, 0, 55, 32
3, 822708, Note_on_c, 0, 60, 0
3, 822765, Note_on_c, 0, 65, 0
3, 822977, Note_on_c, 0, 70, 0
3, 823622, Note_on_c, 0, 54, 18
3, 823755, Note_on_c, 0, 63, 82
3, 823771, Note_on_c, 0, 55, 0
3, 823973, Note_on_c, 0, 54, 0
3, 824298, Note_on_c, 0, 63, 0
3, 824344, Note_on_c, 0, 60, 32
3, 824651, Note_on_c, 0, 60, 0
3, 824846, Note_on_c, 0, 61, 12
3, 825240, Note_on_c, 0, 61, 0
3, 825296, Note_on_c, 0, 63, 47
3, 825614, Note_on_c, 0, 63, 0
3, 825824, Note_on_c, 0, 65, 18
3, 826259, Note_on_c, 0, 66, 63
3, 826264, Note_on_c, 0, 65, 0
3, 826520, Note_on_c, 0, 66, 0
3, 826702, Note_on_c, 0, 68, 37
3, 827048, Note_on_c, 0, 68, 0
3, 827163, Note_on_c, 0, 70, 66
3, 827447, Note_on_c, 0, 70, 0
3, 827608, Note_on_c, 0, 71, 52
3, 828090, Note_on_c, 0, 73, 59
3, 828225, Note_on_c, 0, 71, 0
3, 828376, Note_on_c, 0, 73, 0
3, 828530, Note_on_c, 0, 74, 42
3, 828942, Note_on_c, 0, 74, 0
3, 829062, Note_on_c, 0, 76, 49
3, 829167, Note_on_c, 0, 65, 37
3, 829229, Note_on_c, 0, 59, 17
3, 829395, Note_on_c, 0, 76, 0
3, 829505, Note_on_c, 0, 77, 49
3, 829664, Note_on_c, 0, 65, 0
3, 829792, Note_on_c, 0, 77, 0
3, 829963, Note_on_c, 0, 78, 57
3, 830035, Note_on_c, 0, 65, 1
3, 830179, Note_on_c, 0, 78, 0
3, 830212, Note_on_c, 0, 59, 0
3, 830383, Note_on_c, 0, 79, 66
3, 830750, Note_on_c, 0, 79, 0
3, 830801, Note_on_c, 0, 65, 0
3, 830926, Note_on_c, 0, 80, 67
3, 830988, Note_on_c, 0, 69, 45
3, 831034, Note_on_c, 0, 65, 18
3, 831079, Note_on_c, 0, 59, 20
3, 831169, Note_on_c, 0, 69, 0
3, 831274, Note_on_c, 0, 80, 0
3, 831331, Note_on_c, 0, 59, 0
3, 831395, Note_on_c, 0, 74, 39
3, 831622, Note_on_c, 0, 65, 0
3, 831707, Note_on_c, 0, 74, 0
3, 831899, Note_on_c, 0, 75, 46
3, 831968, Note_on_c, 0, 69, 26
3, 832024, Note_on_c, 0, 59, 12
3, 832119, Note_on_c, 0, 75, 0
3, 832260, Note_on_c, 0, 69, 0
3, 832352, Note_on_c, 0, 76, 26
3, 832621, Note_on_c, 0, 59, 0
3, 832751, Note_on_c, 0, 76, 0
3, 832826, Note_on_c, 0, 77, 57
3, 833087, Note_on_c, 0, 65, 8
3, 833112, Note_on_c, 0, 77, 0
3, 833345, Note_on_c, 0, 73, 48
3, 833402, Note_on_c, 0, 65, 0
3, 833796, Note_on_c, 0, 73, 0
3, 834285, Note_on_c, 0, 73, 61
3, 835772, Note_on_c, 0, 72, 47
3, 835972, Note_on_c, 0, 65, 20
3, 836054, Note_on_c, 0, 72, 0
3, 836100, Note_on_c, 0, 71, 12
3, 836131, Note_on_c, 0, 73, 0
3, 836266, Note_on_c, 0, 70, 54
3, 836299, Note_on_c, 0, 71, 0
3, 836451, Note_on_c, 0, 65, 0
3, 836640, Note_on_c, 0, 70, 0
3, 836896, Note_on_c, 0, 77, 72
3, 838012, Note_on_c, 0, 77, 0
3, 838163, Note_on_c, 0, 75, 56
3, 838616, Note_on_c, 0, 75, 0
3, 838701, Note_on_c, 0, 73, 61
3, 839018, Note_on_c, 0, 73, 0
3, 839085, Note_on_c, 0, 74, 55
3, 839656, Note_on_c, 0, 70, 59
3, 839743, Note_on_c, 0, 74, 0
3, 839758, Note_on_c, 0, 62, 22
3, 839889, Note_on_c, 0, 62, 0
3, 839983, Note_on_c, 0, 70, 0
3, 840070, Note_on_c, 0, 68, 22
3, 840449, Note_on_c, 0, 68, 0
3, 840608, Note_on_c, 0, 67, 32
3, 840718, Note_on_c, 0, 60, 24
3, 840803, Note_on_c, 0, 67, 0
3, 840854, Note_on_c, 0, 60, 0
3, 840956, Note_on_c, 0, 68, 47
3, 841476, Note_on_c, 0, 68, 0
3, 841760, Note_on_c, 0, 67, 24
3, 842244, Note_on_c, 0, 67, 0
3, 842382, Note_on_c, 0, 63, 36
3, 842617, Note_on_c, 0, 63, 0
3, 842822, Note_on_c, 0, 58, 27
3, 844448, Note_on_c, 0, 51, 47
3, 844540, Note_on_c, 0, 51, 0
3, 845339, Note_on_c, 0, 58, 0
3, 845418, Note_on_c, 0, 57, 34
3, 845585, Note_on_c, 0, 57, 0
3, 845626, Note_on_c, 0, 46, 11
3, 845769, Note_on_c, 0, 60, 51
3, 845815, Note_on_c, 0, 46, 0
3, 846219, Note_on_c, 0, 60, 0
3, 846322, Note_on_c, 0, 57, 31
3, 846616, Note_on_c, 0, 57, 0
3, 846747, Note_on_c, 0, 58, 26
3, 847156, Note_on_c, 0, 58, 0
3, 847310, Note_on_c, 0, 61, 42
3, 847702, Note_on_c, 0, 61, 0
3, 847802, Note_on_c, 0, 66, 34
3, 848139, Note_on_c, 0, 66, 0
3, 848293, Note_on_c, 0, 68, 61
3, 848585, Note_on_c, 0, 68, 0
3, 849215, Note_on_c, 0, 78, 66
3, 849253, Note_on_c, 0, 56, 60
3, 849279, Note_on_c, 0, 66, 61
3, 849317, Note_on_c, 0, 61, 48
3, 849476, Note_on_c, 0, 77, 28
3, 849578, Note_on_c, 0, 77, 0
3, 849635, Note_on_c, 0, 78, 0
3, 849714, Note_on_c, 0, 80, 65
3, 850246, Note_on_c, 0, 56, 0
3, 850300, Note_on_c, 0, 75, 33
3, 850410, Note_on_c, 0, 66, 0
3, 850420, Note_on_c, 0, 80, 0
3, 850461, Note_on_c, 0, 61, 0
3, 850531, Note_on_c, 0, 75, 0
3, 850682, Note_on_c, 0, 68, 53
3, 850717, Note_on_c, 0, 63, 43
3, 850728, Note_on_c, 0, 58, 49
3, 850753, Note_on_c, 0, 77, 52
3, 851488, Note_on_c, 0, 77, 0
3, 851588, Note_on_c, 0, 78, 77
3, 851657, Note_on_c, 0, 76, 27
3, 851741, Note_on_c, 0, 76, 0
3, 852013, Note_on_c, 0, 78, 0
3, 852092, Note_on_c, 0, 58, 0
3, 852148, Note_on_c, 0, 63, 0
3, 852189, Note_on_c, 0, 68, 0
3, 853534, Note_on_c, 0, 66, 21
3, 853546, Note_on_c, 0, 56, 33
3, 853602, Note_on_c, 0, 61, 26
3, 854588, Note_on_c, 0, 56, 0
3, 854680, Note_on_c, 0, 66, 0
3, 854690, Note_on_c, 0, 61, 0
3, 857330, Note_on_c, 0, 51, 45
3, 857626, Note_on_c, 0, 51, 0
3, 858364, Note_on_c, 0, 69, 65
3, 858825, Note_on_c, 0, 69, 0
3, 858937, Note_on_c, 0, 77, 65
3, 859112, Note_on_c, 0, 51, 19
3, 859234, Note_on_c, 0, 51, 0
3, 859293, Note_on_c, 0, 77, 0
3, 859437, Note_on_c, 0, 65, 42
3, 859857, Note_on_c, 0, 65, 0
3, 859959, Note_on_c, 0, 51, 25
3, 860134, Note_on_c, 0, 51, 0
3, 860919, Note_on_c, 0, 51, 48
3, 861175, Note_on_c, 0, 51, 0
3, 862220, Note_on_c, 0, 68, 70
3, 862509, Note_on_c, 0, 68, 0
3, 862813, Note_on_c, 0, 78, 63
3, 863026, Note_on_c, 0, 78, 0
3, 863238, Note_on_c, 0, 68, 34
3, 863627, Note_on_c, 0, 68, 0
3, 863755, Note_on_c, 0, 66, 40
3, 864024, Note_on_c, 0, 66, 0
3, 864789, Note_on_c, 0, 63, 22
3, 864813, Note_on_c, 0, 58, 36
3, 864885, Note_on_c, 0, 63, 0
3, 864910, Note_on_c, 0, 58, 0
3, 865105, Note_on_c, 0, 67, 72
3, 865550, Note_on_c, 0, 67, 0
3, 865670, Note_on_c, 0, 68, 71
3, 866131, Note_on_c, 0, 68, 0
3, 866149, Note_on_c, 0, 67, 49
3, 866505, Note_on_c, 0, 67, 0
3, 867898, Note_on_c, 0, 63, 76
3, 868353, Note_on_c, 0, 63, 0
3, 868484, Note_on_c, 0, 65, 34
3, 868845, Note_on_c, 0, 65, 0
3, 868911, Note_on_c, 0, 63, 38
3, 869285, Note_on_c, 0, 63, 0
3, 869426, Note_on_c, 0, 51, 26
3, 869562, Note_on_c, 0, 51, 0
3, 869943, Note_on_c, 0, 58, 28
3, 870386, Note_on_c, 0, 58, 0
3, 871464, Note_on_c, 0, 53, 19
3, 871625, Note_on_c, 0, 53, 0
3, 871813, Note_on_c, 0, 65, 76
3, 872217, Note_on_c, 0, 65, 0
3, 872356, Note_on_c, 0, 64, 40
3, 872741, Note_on_c, 0, 64, 0
3, 872813, Note_on_c, 0, 65, 39
3, 873174, Note_on_c, 0, 65, 0
3, 873655, Note_on_c, 0, 51, 36
3, 873727, Note_on_c, 0, 67, 52
3, 873755, Note_on_c, 0, 60, 21
3, 874820, Note_on_c, 0, 67, 0
3, 874881, Note_on_c, 0, 51, 0
3, 874955, Note_on_c, 0, 60, 0
3, 875324, Note_on_c, 0, 50, 30
3, 875327, Note_on_c, 0, 62, 49
3, 875457, Note_on_c, 0, 50, 0
3, 875572, Note_on_c, 0, 62, 0
3, 875667, Note_on_c, 0, 63, 28
3, 875800, Note_on_c, 0, 63, 0
3, 875962, Note_on_c, 0, 65, 21
3, 876064, Note_on_c, 0, 65, 0
3, 876133, Note_on_c, 0, 67, 39
3, 876243, Note_on_c, 0, 67, 0
3, 876361, Note_on_c, 0, 68, 38
3, 876474, Note_on_c, 0, 68, 0
3, 876576, Note_on_c, 0, 70, 37
3, 876668, Note_on_c, 0, 70, 0
3, 876783, Note_on_c, 0, 72, 36
3, 876875, Note_on_c, 0, 72, 0
3, 876970, Note_on_c, 0, 74, 33
3, 877065, Note_on_c, 0, 74, 0
3, 877157, Note_on_c, 0, 75, 27
3, 877257, Note_on_c, 0, 75, 0
3, 877303, Note_on_c, 0, 77, 29
3, 877395, Note_on_c, 0, 79, 55
3, 877411, Note_on_c, 0, 77, 0
3, 877457, Note_on_c, 0, 59, 65
3, 877459, Note_on_c, 0, 65, 67
3, 877472, Note_on_c, 0, 70, 70
3, 878199, Note_on_c, 0, 79, 0
3, 878414, Note_on_c, 0, 70, 0
3, 878427, Note_on_c, 0, 77, 59
3, 878680, Note_on_c, 0, 65, 0
3, 879054, Note_on_c, 0, 77, 0
3, 879100, Note_on_c, 0, 59, 0
3, 879366, Note_on_c, 0, 75, 46
3, 879451, Note_on_c, 0, 60, 31
3, 879535, Note_on_c, 0, 67, 10
3, 879909, Note_on_c, 0, 63, 1
3, 880334, Note_on_c, 0, 75, 0
3, 880421, Note_on_c, 0, 74, 26
3, 880613, Note_on_c, 0, 67, 0
3, 880708, Note_on_c, 0, 63, 0
3, 880787, Note_on_c, 0, 74, 0
3, 880944, Note_on_c, 0, 75, 33
3, 881154, Note_on_c, 0, 75, 0
3, 881369, Note_on_c, 0, 84, 52
3, 881676, Note_on_c, 0, 84, 0
3, 882270, Note_on_c, 0, 84, 56
3, 882479, Note_on_c, 0, 60, 0
3, 882574, Note_on_c, 0, 84, 0
3, 883303, Note_on_c, 0, 57, 18
3, 883306, Note_on_c, 0, 75, 12
3, 883393, Note_on_c, 0, 63, 16
3, 883396, Note_on_c, 0, 67, 16
3, 883467, Note_on_c, 0, 75, 0
3, 883572, Note_on_c, 0, 63, 0
3, 883613, Note_on_c, 0, 67, 0
3, 883747, Note_on_c, 0, 57, 0
3, 884287, Note_on_c, 0, 74, 26
3, 884512, Note_on_c, 0, 74, 0
3, 885256, Note_on_c, 0, 87, 71
3, 885556, Note_on_c, 0, 87, 0
3, 885764, Note_on_c, 0, 86, 60
3, 885805, Note_on_c, 0, 54, 30
3, 885853, Note_on_c, 0, 65, 20
3, 885874, Note_on_c, 0, 60, 27
3, 885999, Note_on_c, 0, 60, 0
3, 886012, Note_on_c, 0, 65, 0
3, 886076, Note_on_c, 0, 86, 0
3, 886156, Note_on_c, 0, 54, 0
3, 886266, Note_on_c, 0, 84, 26
3, 886591, Note_on_c, 0, 84, 0
3, 886737, Note_on_c, 0, 82, 46
3, 887041, Note_on_c, 0, 82, 0
3, 887192, Note_on_c, 0, 81, 29
3, 887543, Note_on_c, 0, 81, 0
3, 887697, Note_on_c, 0, 84, 54
3, 888060, Note_on_c, 0, 84, 0
3, 888086, Note_on_c, 0, 82, 42
3, 888426, Note_on_c, 0, 82, 0
3, 889002, Note_on_c, 0, 79, 41
3, 889028, Note_on_c, 0, 64, 28
3, 889053, Note_on_c, 0, 58, 26
3, 889135, Note_on_c, 0, 68, 10
3, 890093, Note_on_c, 0, 58, 0
3, 890177, Note_on_c, 0, 68, 0
3, 890188, Note_on_c, 0, 79, 0
3, 890477, Note_on_c, 0, 64, 0
3, 890961, Note_on_c, 0, 56, 16
3, 890979, Note_on_c, 0, 60, 33
3, 890986, Note_on_c, 0, 67, 23
3, 890989, Note_on_c, 0, 63, 25
3, 891022, Note_on_c, 0, 87, 49
3, 891027, Note_on_c, 0, 75, 26
3, 891637, Note_on_c, 0, 75, 0
3, 891660, Control_c, 0, 64, 127
3, 891757, Note_on_c, 0, 87, 0
3, 891798, Note_on_c, 0, 63, 0
3, 891887, Note_on_c, 0, 60, 0
3, 891898, Note_on_c, 0, 67, 0
3, 892079, Note_on_c, 0, 56, 0
3, 892348, Control_c, 0, 64, 0
3, 892515, Note_on_c, 0, 96, 62
3, 892525, Note_on_c, 0, 84, 46
3, 892530, Note_on_c, 0, 91, 50
3, 892533, Note_on_c, 0, 67, 49
3, 892540, Note_on_c, 0, 56, 33
3, 892545, Note_on_c, 0, 62, 54
3, 892658, Note_on_c, 0, 91, 0
3, 892699, Note_on_c, 0, 96, 0
3, 892704, Note_on_c, 0, 84, 0
3, 892753, Note_on_c, 0, 67, 0
3, 892804, Note_on_c, 0, 56, 0
3, 892832, Note_on_c, 0, 62, 0
3, 893859, Note_on_c, 0, 58, 67
3, 893892, Note_on_c, 0, 68, 57
3, 893905, Note_on_c, 0, 63, 53
3, 893907, Note_on_c, 0, 82, 67
3, 893912, Note_on_c, 0, 94, 74
3, 893915, Note_on_c, 0, 89, 76
3, 894793, Control_c, 0, 64, 127
3, 895023, Note_on_c, 0, 63, 0
3, 895049, Note_on_c, 0, 89, 0
3, 895052, Note_on_c, 0, 94, 0
3, 895085, Note_on_c, 0, 68, 0
3, 895174, Note_on_c, 0, 82, 0
3, 895213, Note_on_c, 0, 58, 0
3, 895459, Note_on_c, 0, 79, 47
3, 895469, Note_on_c, 0, 91, 45
3, 895487, Control_c, 0, 64, 0
3, 895517, Note_on_c, 0, 86, 32
3, 895520, Note_on_c, 0, 67, 45
3, 895535, Note_on_c, 0, 63, 42
3, 895548, Note_on_c, 0, 58, 26
3, 895694, Note_on_c, 0, 67, 0
3, 895702, Note_on_c, 0, 58, 0
3, 895712, Note_on_c, 0, 91, 0
3, 895735, Note_on_c, 0, 79, 0
3, 895738, Note_on_c, 0, 63, 0
3, 895743, Note_on_c, 0, 86, 0
3, 896769, Control_c, 0, 64, 127
3, 896792, Note_on_c, 0, 87, 36
3, 896795, Note_on_c, 0, 82, 38
3, 896800, Note_on_c, 0, 75, 24
3, 896805, Note_on_c, 0, 67, 33
3, 896831, Note_on_c, 0, 58, 31
3, 896864, Note_on_c, 0, 63, 33
3, 897135, Note_on_c, 0, 67, 0
3, 897161, Note_on_c, 0, 63, 0
3, 897189, Note_on_c, 0, 87, 0
3, 897220, Note_on_c, 0, 58, 0
3, 897258, Note_on_c, 0, 82, 0
3, 897402, Note_on_c, 0, 75, 0
3, 898656, Note_on_c, 0, 70, 63
3, 898669, Note_on_c, 0, 67, 57
3, 898677, Note_on_c, 0, 63, 72
3, 898694, Note_on_c, 0, 58, 60
3, 898702, Control_c, 0, 64, 0
3, 898705, Note_on_c, 0, 60, 63
3, 898746, Note_on_c, 0, 68, 33
3, 899299, Note_on_c, 0, 60, 0
3, 899349, Note_on_c, 0, 63, 0
3, 899393, Control_c, 0, 64, 127
3, 899396, Note_on_c, 0, 70, 0
3, 899424, Note_on_c, 0, 68, 0
3, 899447, Note_on_c, 0, 67, 0
3, 899828, Note_on_c, 0, 58, 0
3, 900061, Control_c, 0, 64, 0
3, 900143, Note_on_c, 0, 73, 65
3, 900146, Note_on_c, 0, 68, 57
3, 900151, Note_on_c, 0, 66, 52
3, 900172, Note_on_c, 0, 62, 63
3, 900184, Note_on_c, 0, 56, 49
3, 900650, Note_on_c, 0, 73, 0
3, 900748, Note_on_c, 0, 62, 0
3, 900776, Note_on_c, 0, 68, 0
3, 900804, Note_on_c, 0, 66, 0
3, 901031, Note_on_c, 0, 46, 35
3, 901034, Note_on_c, 0, 56, 0
3, 901385, Note_on_c, 0, 71, 49
3, 901403, Note_on_c, 0, 66, 54
3, 901436, Note_on_c, 0, 56, 45
3, 901467, Note_on_c, 0, 60, 27
3, 901508, Note_on_c, 0, 62, 19
3, 901592, Note_on_c, 0, 62, 0
3, 901595, Note_on_c, 0, 56, 0
3, 901598, Note_on_c, 0, 60, 0
3, 901679, Note_on_c, 0, 71, 0
3, 901685, Note_on_c, 0, 46, 0
3, 901713, Note_on_c, 0, 66, 0
3, 902399, Note_on_c, 0, 75, 63
3, 902600, Note_on_c, 0, 75, 0
3, 903337, Note_on_c, 0, 75, 66
3, 906263, Note_on_c, 0, 65, 32
3, 906286, Note_on_c, 0, 55, 28
3, 906331, Note_on_c, 0, 62, 18
3, 906440, Note_on_c, 0, 62, 0
3, 906447, Note_on_c, 0, 65, 0
3, 906467, Note_on_c, 0, 55, 0
3, 907769, Note_on_c, 0, 65, 26
3, 907801, Note_on_c, 0, 62, 28
3, 907823, Note_on_c, 0, 55, 26
3, 907846, Note_on_c, 0, 75, 0
3, 907848, Note_on_c, 0, 60, 29
3, 908786, Note_on_c, 0, 74, 76
3, 908897, Note_on_c, 0, 65, 0
3, 909130, Note_on_c, 0, 74, 0
3, 909165, Note_on_c, 0, 60, 0
3, 909215, Note_on_c, 0, 55, 0
3, 909220, Note_on_c, 0, 62, 0
3, 909267, Note_on_c, 0, 70, 27
3, 909780, Note_on_c, 0, 67, 35
3, 909785, Note_on_c, 0, 70, 0
3, 909909, Note_on_c, 0, 67, 0
3, 910115, Note_on_c, 0, 73, 43
3, 911987, Note_on_c, 0, 63, 27
3, 912052, Note_on_c, 0, 68, 21
3, 912054, Note_on_c, 0, 58, 17
3, 912070, Note_on_c, 0, 70, 20
3, 912153, Note_on_c, 0, 68, 0
3, 912174, Note_on_c, 0, 58, 0
3, 912176, Note_on_c, 0, 63, 0
3, 912179, Note_on_c, 0, 70, 0
3, 912962, Note_on_c, 0, 63, 34
3, 913009, Note_on_c, 0, 68, 24
3, 913016, Note_on_c, 0, 70, 27
3, 913034, Note_on_c, 0, 58, 26
3, 913225, Note_on_c, 0, 63, 0
3, 913232, Note_on_c, 0, 68, 0
3, 913253, Note_on_c, 0, 58, 0
3, 913309, Note_on_c, 0, 70, 0
3, 914911, Note_on_c, 0, 63, 23
3, 914948, Note_on_c, 0, 70, 27
3, 914951, Note_on_c, 0, 68, 23
3, 914961, Note_on_c, 0, 58, 21
3, 915132, Note_on_c, 0, 63, 0
3, 915147, Note_on_c, 0, 68, 0
3, 915159, Note_on_c, 0, 58, 0
3, 915182, Note_on_c, 0, 70, 0
3, 915876, Note_on_c, 0, 63, 32
3, 915899, Note_on_c, 0, 58, 24
3, 915914, Note_on_c, 0, 68, 22
3, 915939, Note_on_c, 0, 70, 25
3, 916385, Note_on_c, 0, 58, 0
3, 916429, Note_on_c, 0, 63, 0
3, 916543, Note_on_c, 0, 68, 0
3, 916682, Note_on_c, 0, 70, 0
3, 917072, Note_on_c, 0, 73, 0
3, 917781, Note_on_c, 0, 69, 58
3, 917783, Note_on_c, 0, 65, 54
3, 917788, Note_on_c, 0, 72, 35
3, 917811, Note_on_c, 0, 63, 52
3, 917997, Note_on_c, 0, 65, 0
3, 918061, Note_on_c, 0, 69, 0
3, 918133, Note_on_c, 0, 72, 0
3, 918269, Note_on_c, 0, 63, 0
3, 918374, Note_on_c, 0, 51, 43
3, 918604, Note_on_c, 0, 51, 0
3, 918646, Note_on_c, 0, 63, 37
3, 918775, Note_on_c, 0, 72, 23
3, 918812, Note_on_c, 0, 69, 30
3, 918817, Note_on_c, 0, 65, 26
3, 919048, Note_on_c, 0, 65, 0
3, 919055, Note_on_c, 0, 69, 0
3, 919083, Note_on_c, 0, 72, 0
3, 919130, Note_on_c, 0, 63, 0
3, 919765, Note_on_c, 0, 65, 34
3, 919784, Note_on_c, 0, 69, 32
3, 919797, Note_on_c, 0, 72, 19
3, 919973, Note_on_c, 0, 65, 0
3, 919976, Note_on_c, 0, 69, 0
3, 920020, Note_on_c, 0, 72, 0
3, 920709, Note_on_c, 0, 69, 35
3, 920719, Note_on_c, 0, 65, 34
3, 920724, Note_on_c, 0, 63, 23
3, 920736, Note_on_c, 0, 72, 17
3, 921037, Note_on_c, 0, 65, 0
3, 921039, Note_on_c, 0, 69, 0
3, 921098, Note_on_c, 0, 72, 0
3, 921151, Note_on_c, 0, 63, 0
3, 923261, Note_on_c, 0, 63, 66
3, 923271, Note_on_c, 0, 71, 57
3, 923274, Note_on_c, 0, 68, 55
3, 923497, Note_on_c, 0, 63, 0
3, 923589, Note_on_c, 0, 68, 0
3, 923678, Note_on_c, 0, 71, 0
3, 924199, Note_on_c, 0, 71, 60
3, 924209, Note_on_c, 0, 68, 59
3, 924221, Note_on_c, 0, 63, 53
3, 924382, Note_on_c, 0, 63, 0
3, 924524, Note_on_c, 0, 71, 0
3, 924541, Note_on_c, 0, 68, 0
3, 925089, Note_on_c, 0, 51, 27
3, 925310, Note_on_c, 0, 51, 0
3, 925446, Note_on_c, 0, 70, 45
3, 925466, Note_on_c, 0, 60, 54
3, 925473, Note_on_c, 0, 65, 52
3, 925531, Note_on_c, 0, 51, 34
3, 926639, Control_c, 0, 64, 127
3, 927594, Note_on_c, 0, 60, 0
3, 927710, Note_on_c, 0, 51, 0
3, 927755, Note_on_c, 0, 65, 0
3, 927899, Note_on_c, 0, 70, 0
3, 929330, Note_on_c, 0, 75, 48
3, 929345, Control_c, 0, 64, 0
3, 929365, Note_on_c, 0, 68, 26
3, 929367, Note_on_c, 0, 70, 32
3, 929369, Note_on_c, 0, 63, 44
3, 929379, Note_on_c, 0, 64, 32
3, 930176, Control_c, 0, 64, 127
3, 931054, Note_on_c, 0, 64, 0
3, 931093, Note_on_c, 0, 75, 0
3, 931110, Note_on_c, 0, 70, 0
3, 931118, Note_on_c, 0, 63, 0
3, 931128, Note_on_c, 0, 68, 0
3, 931289, Note_on_c, 0, 73, 28
3, 931301, Note_on_c, 0, 61, 40
3, 931378, Note_on_c, 0, 64, 14
3, 931636, Note_on_c, 0, 64, 0
3, 931668, Note_on_c, 0, 61, 0
3, 932035, Note_on_c, 0, 73, 0
3, 933102, Note_on_c, 0, 82, 49
3, 933206, Note_on_c, 0, 79, 45
3, 933258, Control_c, 0, 64, 0
3, 933276, Note_on_c, 0, 75, 49
3, 933295, Note_on_c, 0, 67, 38
3, 933315, Note_on_c, 0, 63, 25
3, 933342, Note_on_c, 0, 56, 19
3, 933352, Note_on_c, 0, 60, 31
3, 933524, Note_on_c, 0, 70, 1
3, 933977, Control_c, 0, 64, 127
3, 934634, Note_on_c, 0, 75, 0
3, 934684, Note_on_c, 0, 67, 0
3, 934694, Note_on_c, 0, 70, 0
3, 934758, Note_on_c, 0, 60, 0
3, 934796, Note_on_c, 0, 79, 0
3, 934828, Note_on_c, 0, 56, 0
3, 934835, Note_on_c, 0, 63, 0
3, 934984, Note_on_c, 0, 82, 0
3, 935113, Note_on_c, 0, 77, 47
3, 935128, Note_on_c, 0, 70, 30
3, 935163, Note_on_c, 0, 67, 24
3, 935230, Note_on_c, 0, 56, 10
3, 935249, Note_on_c, 0, 63, 13
3, 935257, Note_on_c, 0, 60, 27
3, 935679, Note_on_c, 0, 70, 0
3, 935892, Note_on_c, 0, 77, 0
3, 935894, Note_on_c, 0, 67, 0
3, 936098, Note_on_c, 0, 63, 0
3, 936100, Note_on_c, 0, 56, 0
3, 936306, Note_on_c, 0, 60, 0
3, 936931, Note_on_c, 0, 86, 76
3, 936991, Note_on_c, 0, 83, 63
3, 937038, Control_c, 0, 64, 0
3, 937040, Note_on_c, 0, 79, 57
3, 937065, Note_on_c, 0, 66, 39
3, 937082, Note_on_c, 0, 62, 36
3, 937122, Note_on_c, 0, 56, 22
3, 937266, Note_on_c, 0, 74, 5
3, 937658, Control_c, 0, 64, 127
3, 937955, Note_on_c, 0, 74, 0
3, 937975, Note_on_c, 0, 66, 0
3, 938005, Note_on_c, 0, 79, 0
3, 938054, Note_on_c, 0, 86, 0
3, 938124, Note_on_c, 0, 83, 0
3, 938186, Note_on_c, 0, 56, 0
3, 938233, Note_on_c, 0, 62, 0
3, 938853, Note_on_c, 0, 89, 58
3, 938913, Note_on_c, 0, 86, 63
3, 938950, Control_c, 0, 64, 0
3, 938952, Note_on_c, 0, 66, 39
3, 938960, Note_on_c, 0, 83, 43
3, 938967, Note_on_c, 0, 62, 35
3, 938989, Note_on_c, 0, 56, 25
3, 938997, Note_on_c, 0, 77, 29
3, 939346, Control_c, 0, 64, 127
3, 939674, Note_on_c, 0, 89, 0
3, 939728, Note_on_c, 0, 66, 0
3, 939731, Note_on_c, 0, 86, 0
3, 939793, Note_on_c, 0, 83, 0
3, 939830, Note_on_c, 0, 62, 0
3, 939917, Note_on_c, 0, 77, 0
3, 939979, Note_on_c, 0, 56, 0
3, 940834, Note_on_c, 0, 82, 37
3, 940904, Note_on_c, 0, 65, 24
3, 940914, Control_c, 0, 64, 0
3, 940921, Note_on_c, 0, 62, 21
3, 940924, Note_on_c, 0, 77, 29
3, 940931, Note_on_c, 0, 70, 28
3, 940946, Note_on_c, 0, 60, 23
3, 940953, Note_on_c, 0, 55, 20
3, 941583, Control_c, 0, 64, 127
3, 941760, Note_on_c, 0, 77, 0
3, 941789, Note_on_c, 0, 82, 0
3, 941886, Note_on_c, 0, 70, 0
3, 941988, Note_on_c, 0, 65, 0
3, 942146, Note_on_c, 0, 60, 0
3, 942166, Note_on_c, 0, 62, 0
3, 942741, Note_on_c, 0, 67, 27
3, 942764, Note_on_c, 0, 74, 33
3, 942776, Note_on_c, 0, 70, 22
3, 942793, Note_on_c, 0, 65, 26
3, 942796, Note_on_c, 0, 62, 18
3, 942844, Note_on_c, 0, 60, 11
3, 943639, Note_on_c, 0, 67, 0
3, 943684, Note_on_c, 0, 74, 0
3, 943709, Note_on_c, 0, 70, 0
3, 944679, Note_on_c, 0, 60, 0
3, 944718, Note_on_c, 0, 65, 0
3, 944763, Note_on_c, 0, 62, 0
3, 944785, Note_on_c, 0, 55, 0
3, 946631, Note_on_c, 0, 82, 69
3, 946655, Control_c, 0, 64, 0
3, 947000, Note_on_c, 0, 82, 0
3, 947183, Note_on_c, 0, 83, 49
3, 947436, Note_on_c, 0, 83, 0
3, 947642, Note_on_c, 0, 84, 40
3, 947913, Note_on_c, 0, 84, 0
3, 948143, Note_on_c, 0, 86, 63
3, 948443, Note_on_c, 0, 86, 0
3, 948619, Note_on_c, 0, 63, 10
3, 948621, Note_on_c, 0, 85, 44
3, 948643, Note_on_c, 0, 54, 20
3, 948676, Note_on_c, 0, 58, 29
3, 948725, Note_on_c, 0, 59, 24
3, 949825, Note_on_c, 0, 59, 0
3, 949981, Note_on_c, 0, 85, 0
3, 950048, Note_on_c, 0, 58, 0
3, 950075, Note_on_c, 0, 63, 0
3, 950535, Note_on_c, 0, 85, 36
3, 950599, Note_on_c, 0, 58, 12
3, 950755, Note_on_c, 0, 85, 0
3, 951104, Note_on_c, 0, 58, 0
3, 951340, Note_on_c, 0, 54, 0
3, 952297, Note_on_c, 0, 63, 17
3, 952369, Note_on_c, 0, 59, 27
3, 952399, Note_on_c, 0, 53, 10
3, 952402, Note_on_c, 0, 58, 18
3, 952612, Note_on_c, 0, 53, 0
3, 952627, Note_on_c, 0, 63, 0
3, 952692, Note_on_c, 0, 59, 0
3, 952759, Note_on_c, 0, 58, 0
3, 953825, Note_on_c, 0, 63, 38
3, 953922, Note_on_c, 0, 59, 19
3, 954107, Note_on_c, 0, 63, 0
3, 954249, Note_on_c, 0, 83, 68
3, 954400, Note_on_c, 0, 59, 0
3, 954574, Note_on_c, 0, 83, 0
3, 954817, Note_on_c, 0, 85, 65
3, 954882, Note_on_c, 0, 59, 16
3, 954943, Note_on_c, 0, 58, 13
3, 955092, Note_on_c, 0, 59, 0
3, 955124, Note_on_c, 0, 85, 0
3, 955189, Note_on_c, 0, 58, 0
3, 955238, Note_on_c, 0, 86, 62
3, 955591, Note_on_c, 0, 86, 0
3, 955792, Note_on_c, 0, 87, 54
3, 955995, Note_on_c, 0, 87, 0
3, 956146, Note_on_c, 0, 85, 38
3, 956687, Note_on_c, 0, 85, 0
3, 957121, Note_on_c, 0, 85, 41
3, 957595, Note_on_c, 0, 85, 0
3, 958095, Note_on_c, 0, 85, 40
3, 958105, Note_on_c, 0, 61, 15
3, 958137, Note_on_c, 0, 54, 17
3, 958150, Note_on_c, 0, 73, 17
3, 958167, Note_on_c, 0, 51, 9
3, 958193, Note_on_c, 0, 58, 22
3, 958502, Note_on_c, 0, 58, 0
3, 958559, Note_on_c, 0, 51, 0
3, 958576, Note_on_c, 0, 54, 0
3, 958586, Note_on_c, 0, 85, 0
3, 958636, Note_on_c, 0, 73, 0
3, 958653, Note_on_c, 0, 61, 0
3, 959135, Control_c, 0, 64, 127
3, 959981, Note_on_c, 0, 94, 72
3, 960006, Note_on_c, 0, 82, 63
3, 960008, Note_on_c, 0, 63, 52
3, 960013, Note_on_c, 0, 56, 49
3, 960036, Note_on_c, 0, 67, 60
3, 960038, Note_on_c, 0, 60, 57
3, 960050, Control_c, 0, 64, 0
3, 960675, Control_c, 0, 64, 127
3, 960846, Note_on_c, 0, 82, 0
3, 960920, Note_on_c, 0, 94, 0
3, 960940, Note_on_c, 0, 67, 0
3, 961042, Note_on_c, 0, 56, 0
3, 961121, Note_on_c, 0, 63, 0
3, 961129, Note_on_c, 0, 60, 0
3, 961571, Note_on_c, 0, 98, 72
3, 961590, Note_on_c, 0, 91, 56
3, 961595, Note_on_c, 0, 56, 61
3, 961605, Note_on_c, 0, 66, 63
3, 961612, Note_on_c, 0, 86, 61
3, 961620, Control_c, 0, 64, 0
3, 961625, Note_on_c, 0, 92, 31
3, 961630, Note_on_c, 0, 62, 53
3, 961702, Note_on_c, 0, 92, 0
3, 962116, Control_c, 0, 64, 127
3, 962160, Note_on_c, 0, 91, 0
3, 962210, Note_on_c, 0, 86, 0
3, 962262, Note_on_c, 0, 98, 0
3, 962386, Note_on_c, 0, 62, 0
3, 962443, Note_on_c, 0, 66, 0
3, 962460, Note_on_c, 0, 56, 0
3, 962961, Control_c, 0, 64, 0
3, 962986, Note_on_c, 0, 103, 63
3, 962988, Note_on_c, 0, 91, 57
3, 963003, Note_on_c, 0, 62, 47
3, 963006, Note_on_c, 0, 65, 52
3, 963016, Note_on_c, 0, 60, 55
3, 963023, Note_on_c, 0, 55, 41
3, 963038, Note_on_c, 0, 102, 29
3, 963266, Note_on_c, 0, 102, 0
3, 963939, Control_c, 0, 64, 127
3, 964092, Note_on_c, 0, 103, 0
3, 964211, Note_on_c, 0, 55, 0
3, 964231, Note_on_c, 0, 91, 0
3, 964236, Note_on_c, 0, 60, 0
3, 964271, Note_on_c, 0, 65, 0
3, 964313, Note_on_c, 0, 62, 0
3, 964881, Control_c, 0, 64, 0
3, 964905, Note_on_c, 0, 99, 45
3, 964948, Note_on_c, 0, 65, 33
3, 964950, Note_on_c, 0, 87, 28
3, 964960, Note_on_c, 0, 62, 28
3, 964985, Note_on_c, 0, 60, 28
3, 965002, Note_on_c, 0, 55, 21
3, 965064, Note_on_c, 0, 87, 0
3, 965116, Note_on_c, 0, 99, 0
3, 965136, Note_on_c, 0, 60, 0
3, 965148, Note_on_c, 0, 65, 0
3, 965158, Note_on_c, 0, 62, 0
3, 965173, Note_on_c, 0, 55, 0
3, 965841, Note_on_c, 0, 87, 44
3, 965851, Note_on_c, 0, 99, 45
3, 965875, Note_on_c, 0, 65, 20
3, 965888, Note_on_c, 0, 62, 26
3, 965893, Note_on_c, 0, 60, 25
3, 965918, Note_on_c, 0, 55, 16
3, 966019, Note_on_c, 0, 99, 0
3, 966030, Note_on_c, 0, 87, 0
3, 966049, Note_on_c, 0, 60, 0
3, 966101, Note_on_c, 0, 55, 0
3, 966104, Note_on_c, 0, 65, 0
3, 966106, Note_on_c, 0, 62, 0
3, 966721, Control_c, 0, 64, 127
3, 967194, Control_c, 0, 64, 0
3, 967298, Note_on_c, 0, 99, 49
3, 967341, Note_on_c, 0, 87, 27
3, 967346, Note_on_c, 0, 65, 19
3, 967348, Note_on_c, 0, 62, 27
3, 967351, Note_on_c, 0, 60, 29
3, 967353, Note_on_c, 0, 55, 19
3, 967450, Control_c, 0, 64, 127
3, 968343, Note_on_c, 0, 99, 0
3, 968365, Note_on_c, 0, 87, 0
3, 969637, Note_on_c, 0, 98, 87
3, 970334, Note_on_c, 0, 65, 0
3, 970404, Note_on_c, 0, 94, 30
3, 970416, Note_on_c, 0, 60, 0
3, 970448, Note_on_c, 0, 62, 0
3, 970458, Note_on_c, 0, 98, 0
3, 970508, Note_on_c, 0, 55, 0
3, 970649, Note_on_c, 0, 94, 0
3, 971128, Note_on_c, 0, 91, 29
3, 971430, Note_on_c, 0, 91, 0
3, 971549, Control_c, 0, 64, 0
3, 971569, Note_on_c, 0, 97, 64
3, 971941, Note_on_c, 0, 97, 0
3, 973484, Note_on_c, 0, 73, 28
3, 973516, Note_on_c, 0, 66, 31
3, 973553, Note_on_c, 0, 70, 34
3, 973660, Note_on_c, 0, 66, 0
3, 973667, Note_on_c, 0, 70, 0
3, 973752, Note_on_c, 0, 73, 0
3, 974458, Note_on_c, 0, 73, 26
3, 974488, Note_on_c, 0, 66, 24
3, 974502, Note_on_c, 0, 63, 17
3, 974527, Note_on_c, 0, 70, 25
3, 975378, Control_c, 0, 64, 127
3, 975391, Note_on_c, 0, 66, 0
3, 975475, Note_on_c, 0, 63, 0
3, 975507, Note_on_c, 0, 70, 0
3, 975701, Control_c, 0, 64, 0
3, 975731, Note_on_c, 0, 73, 0
3, 976259, Note_on_c, 0, 73, 25
3, 976306, Note_on_c, 0, 65, 32
3, 976326, Note_on_c, 0, 66, 22
3, 976328, Note_on_c, 0, 63, 27
3, 976339, Note_on_c, 0, 70, 32
3, 976537, Note_on_c, 0, 65, 0
3, 976626, Note_on_c, 0, 66, 0
3, 976656, Note_on_c, 0, 63, 0
3, 976673, Note_on_c, 0, 70, 0
3, 976743, Note_on_c, 0, 73, 0
3, 977276, Note_on_c, 0, 73, 24
3, 977320, Note_on_c, 0, 70, 31
3, 977323, Note_on_c, 0, 66, 22
3, 977328, Note_on_c, 0, 65, 28
3, 977338, Note_on_c, 0, 63, 24
3, 978089, Control_c, 0, 64, 127
3, 978347, Note_on_c, 0, 73, 0
3, 978459, Note_on_c, 0, 63, 0
3, 978516, Note_on_c, 0, 65, 0
3, 978625, Note_on_c, 0, 66, 0
3, 978704, Note_on_c, 0, 70, 0
3, 979121, Note_on_c, 0, 72, 41
3, 979133, Control_c, 0, 64, 0
3, 979136, Note_on_c, 0, 64, 53
3, 979138, Note_on_c, 0, 65, 56
3, 979158, Note_on_c, 0, 69, 45
3, 979170, Note_on_c, 0, 63, 56
3, 979332, Note_on_c, 0, 64, 0
3, 979354, Note_on_c, 0, 65, 0
3, 979411, Note_on_c, 0, 72, 0
3, 979421, Note_on_c, 0, 63, 0
3, 979441, Note_on_c, 0, 69, 0
3, 980115, Note_on_c, 0, 69, 52
3, 980123, Note_on_c, 0, 65, 52
3, 980128, Note_on_c, 0, 64, 47
3, 980130, Note_on_c, 0, 72, 29
3, 980148, Note_on_c, 0, 63, 45
3, 980333, Note_on_c, 0, 64, 0
3, 980358, Note_on_c, 0, 65, 0
3, 980405, Note_on_c, 0, 69, 0
3, 980420, Note_on_c, 0, 72, 0
3, 980423, Note_on_c, 0, 63, 0
3, 981080, Note_on_c, 0, 65, 43
3, 981082, Note_on_c, 0, 64, 28
3, 981085, Note_on_c, 0, 69, 42
3, 981095, Note_on_c, 0, 72, 18
3, 981097, Note_on_c, 0, 63, 34
3, 981194, Control_c, 0, 64, 127
3, 981549, Note_on_c, 0, 63, 0
3, 981844, Note_on_c, 0, 65, 0
3, 981854, Note_on_c, 0, 69, 0
3, 981889, Note_on_c, 0, 64, 0
3, 981911, Note_on_c, 0, 72, 0
3, 982060, Note_on_c, 0, 63, 31
3, 982263, Note_on_c, 0, 63, 0
3, 982637, Control_c, 0, 64, 0
3, 982678, Note_on_c, 0, 63, 45
3, 982712, Note_on_c, 0, 71, 47
3, 982722, Note_on_c, 0, 68, 32
3, 982732, Note_on_c, 0, 64, 54
3, 983982, Note_on_c, 0, 51, 53
3, 984949, Control_c, 0, 64, 127
3, 985202, Note_on_c, 0, 51, 0
3, 985527, Note_on_c, 0, 51, 29
3, 985584, Note_on_c, 0, 63, 0
3, 985695, Note_on_c, 0, 64, 0
3, 985720, Control_c, 0, 64, 0
3, 985839, Note_on_c, 0, 71, 0
3, 985938, Note_on_c, 0, 63, 21
3, 986018, Control_c, 0, 64, 127
3, 986181, Note_on_c, 0, 63, 0
3, 986563, Control_c, 0, 64, 0
3, 986608, Note_on_c, 0, 68, 0
3, 986809, Note_on_c, 0, 51, 0
3, 986925, Note_on_c, 0, 70, 28
3, 986928, Note_on_c, 0, 55, 31
3, 986948, Note_on_c, 0, 65, 36
3, 986960, Note_on_c, 0, 60, 26
3, 987808, Control_c, 0, 64, 127
3, 988428, Control_c, 0, 64, 0
3, 988778, Control_c, 0, 64, 127
3, 989232, Note_on_c, 0, 65, 0
3, 989235, Note_on_c, 0, 60, 0
3, 989304, Note_on_c, 0, 70, 0
3, 989348, Note_on_c, 0, 55, 0
3, 989361, Note_on_c, 0, 54, 28
3, 989596, Control_c, 0, 64, 0
3, 989656, Note_on_c, 0, 54, 0
3, 989787, Note_on_c, 0, 70, 29
3, 989795, Note_on_c, 0, 55, 26
3, 989854, Note_on_c, 0, 65, 31
3, 989864, Note_on_c, 0, 60, 17
3, 989996, Note_on_c, 0, 60, 0
3, 989998, Note_on_c, 0, 55, 0
3, 990058, Note_on_c, 0, 65, 0
3, 990209, Note_on_c, 0, 70, 0
3, 990735, Note_on_c, 0, 75, 41
3, 990794, Note_on_c, 0, 63, 47
3, 990804, Note_on_c, 0, 68, 28
3, 990891, Note_on_c, 0, 72, 14
3, 990985, Note_on_c, 0, 63, 0
3, 991035, Note_on_c, 0, 68, 0
3, 991060, Note_on_c, 0, 72, 0
3, 991094, Note_on_c, 0, 75, 0
3, 991741, Note_on_c, 0, 73, 37
3, 991764, Note_on_c, 0, 61, 37
3, 991786, Note_on_c, 0, 68, 37
3, 991811, Note_on_c, 0, 64, 26
3, 992629, Control_c, 0, 64, 127
3, 992753, Note_on_c, 0, 64, 0
3, 992828, Note_on_c, 0, 68, 0
3, 992846, Note_on_c, 0, 73, 0
3, 993341, Note_on_c, 0, 64, 36
3, 993344, Note_on_c, 0, 61, 0
3, 993354, Note_on_c, 0, 60, 34
3, 993364, Note_on_c, 0, 67, 31
3, 993377, Note_on_c, 0, 72, 20
3, 993448, Control_c, 0, 64, 0
3, 993532, Note_on_c, 0, 64, 0
3, 993562, Note_on_c, 0, 67, 0
3, 993574, Note_on_c, 0, 60, 0
3, 993673, Control_c, 0, 64, 127
3, 993691, Note_on_c, 0, 72, 0
3, 994593, Note_on_c, 0, 63, 21
3, 994623, Note_on_c, 0, 53, 27
3, 994628, Note_on_c, 0, 82, 39
3, 994643, Control_c, 0, 64, 0
3, 994673, Note_on_c, 0, 60, 28
3, 994675, Note_on_c, 0, 70, 37
3, 994683, Note_on_c, 0, 56, 24
3, 995316, Control_c, 0, 64, 127
3, 995412, Note_on_c, 0, 53, 0
3, 995432, Note_on_c, 0, 60, 0
3, 995494, Note_on_c, 0, 56, 0
3, 995496, Note_on_c, 0, 70, 0
3, 995648, Note_on_c, 0, 63, 0
3, 996620, Note_on_c, 0, 67, 32
3, 996632, Note_on_c, 0, 82, 0
3, 996634, Note_on_c, 0, 56, 21
3, 996679, Note_on_c, 0, 62, 34
3, 997128, Control_c, 0, 64, 0
3, 997230, Note_on_c, 0, 67, 0
3, 997235, Note_on_c, 0, 77, 83
3, 997289, Note_on_c, 0, 62, 0
3, 997450, Note_on_c, 0, 56, 0
3, 997602, Control_c, 0, 64, 127
3, 997755, Note_on_c, 0, 77, 0
3, 997889, Note_on_c, 0, 79, 72
3, 998299, Note_on_c, 0, 79, 0
3, 998423, Control_c, 0, 64, 0
3, 998452, Note_on_c, 0, 60, 32
3, 998455, Note_on_c, 0, 56, 27
3, 998470, Note_on_c, 0, 50, 28
3, 998490, Note_on_c, 0, 80, 67
3, 998770, Control_c, 0, 64, 127
3, 998993, Control_c, 0, 64, 0
3, 999355, Note_on_c, 0, 50, 0
3, 999392, Control_c, 0, 64, 127
3, 999457, Note_on_c, 0, 56, 0
3, 999524, Note_on_c, 0, 60, 0
3, 999581, Note_on_c, 0, 80, 0
3, 999913, Note_on_c, 0, 82, 61
3, 1000221, Note_on_c, 0, 82, 0
3, 1000263, Control_c, 0, 64, 0
3, 1000365, Note_on_c, 0, 53, 19
3, 1000375, Note_on_c, 0, 59, 30
3, 1000398, Note_on_c, 0, 64, 17
3, 1000509, Note_on_c, 0, 83, 66
3, 1000891, Note_on_c, 0, 83, 0
3, 1001322, Note_on_c, 0, 53, 0
3, 1001325, Note_on_c, 0, 59, 0
3, 1001642, Note_on_c, 0, 64, 0
3, 1001748, Note_on_c, 0, 89, 73
3, 1002059, Note_on_c, 0, 89, 0
3, 1002105, Note_on_c, 0, 86, 63
3, 1002296, Note_on_c, 0, 86, 0
3, 1002500, Note_on_c, 0, 60, 27
3, 1002522, Note_on_c, 0, 67, 24
3, 1002527, Note_on_c, 0, 87, 62
3, 1002550, Note_on_c, 0, 63, 17
3, 1003286, Note_on_c, 0, 79, 42
3, 1003442, Control_c, 0, 64, 127
3, 1003641, Control_c, 0, 64, 0
3, 1003936, Note_on_c, 0, 60, 0
3, 1004065, Control_c, 0, 64, 127
3, 1004186, Note_on_c, 0, 58, 36
3, 1004905, Note_on_c, 0, 67, 0
3, 1005002, Note_on_c, 0, 58, 0
3, 1005292, Note_on_c, 0, 79, 0
3, 1005496, Note_on_c, 0, 63, 0
3, 1005965, Note_on_c, 0, 87, 0
3, 1006153, Control_c, 0, 64, 0
3, 1006168, Note_on_c, 0, 67, 21
3, 1006193, Note_on_c, 0, 63, 11
3, 1006212, Note_on_c, 0, 57, 23
3, 1006924, Note_on_c, 0, 67, 0
3, 1007023, Note_on_c, 0, 63, 0
3, 1007088, Note_on_c, 0, 87, 78
3, 1007095, Note_on_c, 0, 57, 0
3, 1007569, Note_on_c, 0, 87, 0
3, 1007618, Note_on_c, 0, 91, 67
3, 1007948, Note_on_c, 0, 91, 0
3, 1008047, Note_on_c, 0, 54, 15
3, 1008104, Note_on_c, 0, 89, 46
3, 1008109, Note_on_c, 0, 65, 19
3, 1008132, Note_on_c, 0, 60, 27
3, 1008499, Note_on_c, 0, 89, 0
3, 1008960, Note_on_c, 0, 65, 0
3, 1008982, Note_on_c, 0, 60, 0
3, 1009034, Note_on_c, 0, 87, 62
3, 1009302, Note_on_c, 0, 54, 0
3, 1009409, Note_on_c, 0, 87, 0
3, 1009570, Note_on_c, 0, 86, 63
3, 1009754, Note_on_c, 0, 86, 0
3, 1010551, Note_on_c, 0, 72, 62
3, 1010580, Note_on_c, 0, 59, 55
3, 1010588, Note_on_c, 0, 64, 50
3, 1010632, Note_on_c, 0, 53, 20
3, 1010675, Note_on_c, 0, 64, 0
3, 1010702, Note_on_c, 0, 59, 0
3, 1010718, Note_on_c, 0, 53, 0
3, 1010732, Note_on_c, 0, 72, 0
3, 1011913, Note_on_c, 0, 70, 55
3, 1011932, Note_on_c, 0, 58, 40
3, 1011939, Note_on_c, 0, 67, 58
3, 1011944, Note_on_c, 0, 52, 53
3, 1011956, Note_on_c, 0, 62, 50
3, 1012880, Note_on_c, 0, 62, 0
3, 1012954, Note_on_c, 0, 67, 0
3, 1012986, Note_on_c, 0, 58, 0
3, 1013050, Note_on_c, 0, 52, 0
3, 1013576, Note_on_c, 0, 70, 0
3, 1013816, Note_on_c, 0, 41, 49
3, 1013963, Note_on_c, 0, 41, 0
3, 1014764, Note_on_c, 0, 68, 60
3, 1014774, Note_on_c, 0, 61, 63
3, 1014791, Note_on_c, 0, 57, 63
3, 1014795, Note_on_c, 0, 63, 38
3, 1014870, Note_on_c, 0, 57, 0
3, 1014944, Note_on_c, 0, 61, 0
3, 1014975, Note_on_c, 0, 68, 0
3, 1014983, Note_on_c, 0, 63, 0
3, 1015594, Control_c, 0, 64, 127
3, 1016170, Control_c, 0, 64, 0
3, 1016238, Note_on_c, 0, 56, 66
3, 1016240, Note_on_c, 0, 74, 73
3, 1016242, Note_on_c, 0, 46, 59
3, 1016262, Note_on_c, 0, 67, 68
3, 1016264, Note_on_c, 0, 62, 76
3, 1016305, Note_on_c, 0, 73, 28
3, 1016393, Note_on_c, 0, 73, 0
3, 1016622, Note_on_c, 0, 74, 0
3, 1016737, Note_on_c, 0, 67, 0
3, 1016833, Note_on_c, 0, 62, 0
3, 1016871, Note_on_c, 0, 56, 0
3, 1016922, Control_c, 0, 64, 127
3, 1016929, Note_on_c, 0, 72, 66
3, 1016934, Note_on_c, 0, 46, 0
3, 1017205, Note_on_c, 0, 72, 0
3, 1017524, Control_c, 0, 64, 0
3, 1017718, Note_on_c, 0, 70, 51
3, 1017735, Note_on_c, 0, 43, 49
3, 1017754, Note_on_c, 0, 59, 60
3, 1017764, Note_on_c, 0, 63, 46
3, 1017776, Note_on_c, 0, 67, 57
3, 1017781, Note_on_c, 0, 53, 55
3, 1018700, Control_c, 0, 64, 127
3, 1018715, Note_on_c, 0, 67, 0
3, 1019063, Note_on_c, 0, 59, 0
3, 1019188, Note_on_c, 0, 63, 0
3, 1019411, Note_on_c, 0, 43, 0
3, 1019531, Note_on_c, 0, 53, 0
3, 1019615, Control_c, 0, 64, 0
3, 1019653, Note_on_c, 0, 61, 35
3, 1019656, Note_on_c, 0, 48, 38
3, 1019659, Note_on_c, 0, 58, 39
3, 1019675, Note_on_c, 0, 64, 47
3, 1020481, Control_c, 0, 64, 127
3, 1020499, Note_on_c, 0, 61, 0
3, 1020564, Note_on_c, 0, 48, 0
3, 1020619, Note_on_c, 0, 70, 0
3, 1020686, Note_on_c, 0, 64, 0
3, 1020725, Note_on_c, 0, 58, 0
3, 1021324, Control_c, 0, 64, 0
3, 1021492, Note_on_c, 0, 41, 40
3, 1021494, Note_on_c, 0, 68, 30
3, 1021504, Note_on_c, 0, 61, 40
3, 1021520, Note_on_c, 0, 57, 34
3, 1021523, Note_on_c, 0, 63, 31
3, 1021559, Note_on_c, 0, 51, 28
3, 1022055, Note_on_c, 0, 41, 0
3, 1022238, Control_c, 0, 64, 127
3, 1022240, Note_on_c, 0, 57, 0
3, 1022329, Note_on_c, 0, 51, 0
3, 1022453, Note_on_c, 0, 68, 0
3, 1022588, Note_on_c, 0, 61, 0
3, 1022718, Note_on_c, 0, 63, 0
3, 1022960, Control_c, 0, 64, 0
3, 1023037, Note_on_c, 0, 62, 46
3, 1023073, Note_on_c, 0, 56, 47
3, 1023082, Note_on_c, 0, 46, 41
3, 1023085, Note_on_c, 0, 67, 36
3, 1023121, Note_on_c, 0, 62, 0
3, 1023179, Note_on_c, 0, 67, 0
3, 1023296, Note_on_c, 0, 56, 0
3, 1023349, Note_on_c, 0, 46, 0
3, 1024040, Note_on_c, 0, 75, 75
3, 1024292, Note_on_c, 0, 75, 0
3, 1024762, Note_on_c, 0, 72, 77
3, 1024988, Note_on_c, 0, 72, 0
3, 1025974, Note_on_c, 0, 70, 76
3, 1026008, Note_on_c, 0, 64, 57
3, 1026010, Note_on_c, 0, 59, 58
3, 1026032, Note_on_c, 0, 53, 43
3, 1026104, Note_on_c, 0, 64, 0
3, 1026162, Note_on_c, 0, 70, 0
3, 1026174, Note_on_c, 0, 53, 0
3, 1026190, Note_on_c, 0, 59, 0
3, 1027257, Note_on_c, 0, 75, 63
3, 1027278, Note_on_c, 0, 70, 73
3, 1027288, Note_on_c, 0, 63, 67
3, 1027309, Note_on_c, 0, 52, 61
3, 1027316, Note_on_c, 0, 58, 48
3, 1028002, Note_on_c, 0, 52, 0
3, 1028118, Note_on_c, 0, 58, 0
3, 1028134, Control_c, 0, 64, 127
3, 1028156, Note_on_c, 0, 63, 0
3, 1028197, Note_on_c, 0, 70, 0
3, 1028206, Note_on_c, 0, 75, 0
3, 1029186, Note_on_c, 0, 80, 60
3, 1029188, Note_on_c, 0, 75, 72
3, 1029194, Control_c, 0, 64, 0
3, 1029210, Note_on_c, 0, 63, 56
3, 1029210, Note_on_c, 0, 69, 68
3, 1029218, Note_on_c, 0, 57, 68
3, 1029990, Control_c, 0, 64, 127
3, 1030057, Note_on_c, 0, 69, 0
3, 1030107, Note_on_c, 0, 57, 0
3, 1030203, Note_on_c, 0, 80, 0
3, 1030338, Note_on_c, 0, 63, 0
3, 1030412, Note_on_c, 0, 75, 0
3, 1031024, Control_c, 0, 64, 0
3, 1031078, Note_on_c, 0, 74, 91
3, 1031088, Note_on_c, 0, 79, 75
3, 1031088, Note_on_c, 0, 56, 67
3, 1031103, Note_on_c, 0, 66, 67
3, 1031110, Note_on_c, 0, 62, 62
3, 1031556, Control_c, 0, 64, 127
3, 1031751, Note_on_c, 0, 74, 0
3, 1031883, Note_on_c, 0, 79, 0
3, 1031905, Note_on_c, 0, 66, 0
3, 1032034, Note_on_c, 0, 62, 0
3, 1032246, Note_on_c, 0, 56, 0
3, 1032685, Note_on_c, 0, 87, 83
3, 1032692, Note_on_c, 0, 77, 81
3, 1032694, Note_on_c, 0, 82, 75
3, 1032704, Note_on_c, 0, 62, 88
3, 1032714, Note_on_c, 0, 65, 91
3, 1032718, Note_on_c, 0, 55, 82
3, 1032723, Note_on_c, 0, 60, 79
3, 1032757, Control_c, 0, 64, 0
3, 1032781, Note_on_c, 0, 58, 36
3, 1032829, Note_on_c, 0, 77, 0
3, 1032872, Note_on_c, 0, 82, 0
3, 1032908, Note_on_c, 0, 87, 0
3, 1033023, Note_on_c, 0, 58, 0
3, 1033083, Note_on_c, 0, 65, 0
3, 1033095, Note_on_c, 0, 55, 0
3, 1033158, Note_on_c, 0, 60, 0
3, 1033167, Note_on_c, 0, 62, 0
3, 1033167, End_track
4, 0, Start_track
4, 0, Title_t, "Drums"
4, 0, Control_c, 9, 7, 88
4, 411040, Note_on_c, 9, 59, 90
4, 411350, Note_on_c, 9, 59, 0
4, 412640, Note_on_c, 9, 59, 100
4, 412816, Note_on_c, 9, 59, 0
4, 414080, Note_on_c, 9, 59, 118
4, 414224, Note_on_c, 9, 59, 0
4, 416960, Note_on_c, 9, 59, 98
4, 417229, Note_on_c, 9, 59, 0
4, 417440, Note_on_c, 9, 59, 92
4, 417683, Note_on_c, 9, 59, 0
4, 417760, Note_on_c, 9, 59, 91
4, 417977, Note_on_c, 9, 59, 0
4, 418720, Note_on_c, 9, 59, 111
4, 418883, Note_on_c, 9, 59, 0
4, 420160, Note_on_c, 9, 59, 88
4, 420279, Note_on_c, 9, 59, 0
4, 420640, Note_on_c, 9, 59, 96
4, 420874, Note_on_c, 9, 59, 0
4, 421600, Note_on_c, 9, 59, 120
4, 422768, Note_on_c, 9, 59, 0
4, 423040, Note_on_c, 9, 59, 62
4, 423168, Note_on_c, 9, 59, 0
4, 423520, Note_on_c, 9, 59, 76
4, 423722, Note_on_c, 9, 59, 0
4, 424000, Note_on_c, 9, 53, 105
4, 424767, Note_on_c, 9, 53, 0
4, 425280, Note_on_c, 9, 53, 95
4, 426189, Note_on_c, 9, 53, 0
4, 428160, Note_on_c, 9, 59, 81
4, 428378, Note_on_c, 9, 59, 0
4, 428800, Note_on_c, 9, 59, 79
4, 428931, Note_on_c, 9, 59, 0
4, 429120, Note_on_c, 9, 59, 86
4, 429356, Note_on_c, 9, 59, 0
4, 430080, Note_on_c, 9, 59, 114
4, 430358, Note_on_c, 9, 59, 0
4, 432960, Note_on_c, 9, 59, 102
4, 433347, Note_on_c, 9, 59, 0
4, 435520, Note_on_c, 9, 59, 83
4, 435667, Note_on_c, 9, 59, 0
4, 436000, Note_on_c, 9, 59, 100
4, 436611, Note_on_c, 9, 59, 0
4, 437760, Note_on_c, 9, 59, 97
4, 438003, Note_on_c, 9, 59, 0
4, 440160, Note_on_c, 9, 59, 89
4, 440377, Note_on_c, 9, 59, 0
4, 440640, Note_on_c, 9, 53, 97
4, 441562, Note_on_c, 9, 53, 0
4, 441600, Note_on_c, 9, 51, 75
4, 441971, Note_on_c, 9, 51, 0
4, 442720, Note_on_c, 9, 51, 74
4, 442836, Note_on_c, 9, 51, 0
4, 444160, Note_on_c, 9, 51, 87
4, 444378, Note_on_c, 9, 51, 0
4, 444640, Note_on_c, 9, 51, 89
4, 444858, Note_on_c, 9, 51, 0
4, 445440, Note_on_c, 9, 51, 100
4, 445862, Note_on_c, 9, 51, 0
4, 447040, Note_on_c, 9, 51, 64
4, 447162, Note_on_c, 9, 51, 0
4, 447360, Note_on_c, 9, 51, 77
4, 447644, Note_on_c, 9, 51, 0
4, 448320, Note_on_c, 9, 51, 97
4, 448611, Note_on_c, 9, 51, 0
4, 450400, Note_on_c, 9, 51, 89
4, 450640, Note_on_c, 9, 51, 0
4, 452960, Note_on_c, 9, 51, 67
4, 453133, Note_on_c, 9, 51, 0
4, 453280, Note_on_c, 9, 51, 79
4, 453494, Note_on_c, 9, 51, 0
4, 455200, Note_on_c, 9, 51, 92
4, 455402, Note_on_c, 9, 51, 0
4, 456000, Note_on_c, 9, 51, 97
4, 456272, Note_on_c, 9, 51, 0
4, 456960, Note_on_c, 9, 51, 79
4, 457184, Note_on_c, 9, 51, 0
4, 457920, Note_on_c, 9, 51, 95
4, 458214, Note_on_c, 9, 51, 0
4, 459040, Note_on_c, 9, 51, 79
4, 459283, Note_on_c, 9, 51, 0
4, 463200, Note_on_c, 9, 51, 70
4, 463200, Note_on_c, 9, 53, 41
4, 463309, Note_on_c, 9, 53, 0
4, 463354, Note_on_c, 9, 51, 0
4, 465760, Note_on_c, 9, 51, 77
4, 465760, Note_on_c, 9, 53, 92
4, 466054, Note_on_c, 9, 53, 0
4, 466160, Note_on_c, 9, 51, 0
4, 467680, Note_on_c, 9, 53, 95
4, 467680, Note_on_c, 9, 51, 72
4, 467879, Note_on_c, 9, 53, 0
4, 468016, Note_on_c, 9, 51, 0
4, 469600, Note_on_c, 9, 51, 79
4, 469600, Note_on_c, 9, 53, 91
4, 469782, Note_on_c, 9, 53, 0
4, 469913, Note_on_c, 9, 51, 0
4, 471360, Note_on_c, 9, 51, 87
4, 471520, Note_on_c, 9, 53, 84
4, 471725, Note_on_c, 9, 51, 0
4, 471769, Note_on_c, 9, 53, 0
4, 472320, Note_on_c, 9, 59, 102
4, 472480, Note_on_c, 9, 57, 72
4, 472591, Note_on_c, 9, 57, 0
4, 472637, Note_on_c, 9, 59, 0
4, 475200, Note_on_c, 9, 59, 106
4, 475430, Note_on_c, 9, 59, 0
4, 477120, Note_on_c, 9, 57, 97
4, 477120, Note_on_c, 9, 59, 84
4, 477245, Note_on_c, 9, 59, 0
4, 477328, Note_on_c, 9, 57, 0
4, 482080, Note_on_c, 9, 59, 80
4, 482188, Note_on_c, 9, 59, 0
4, 482880, Note_on_c, 9, 59, 99
4, 483097, Note_on_c, 9, 59, 0
4, 484480, Note_on_c, 9, 59, 79
4, 484589, Note_on_c, 9, 59, 0
4, 484800, Note_on_c, 9, 59, 81
4, 485022, Note_on_c, 9, 59, 0
4, 485760, Note_on_c, 9, 59, 102
4, 485968, Note_on_c, 9, 59, 0
4, 487200, Note_on_c, 9, 59, 80
4, 487319, Note_on_c, 9, 59, 0
4, 487680, Note_on_c, 9, 59, 85
4, 487926, Note_on_c, 9, 59, 0
4, 488640, Note_on_c, 9, 59, 103
4, 488855, Note_on_c, 9, 59, 0
4, 489600, Note_on_c, 9, 59, 110
4, 489888, Note_on_c, 9, 59, 0
4, 491200, Note_on_c, 9, 59, 66
4, 491315, Note_on_c, 9, 59, 0
4, 491680, Note_on_c, 9, 59, 85
4, 491914, Note_on_c, 9, 59, 0
4, 492160, Note_on_c, 9, 59, 99
4, 492387, Note_on_c, 9, 59, 0
4, 493600, Note_on_c, 9, 59, 92
4, 493760, Note_on_c, 9, 59, 0
4, 495520, Note_on_c, 9, 59, 95
4, 495750, Note_on_c, 9, 59, 0
4, 496000, Note_on_c, 9, 59, 85
4, 496106, Note_on_c, 9, 59, 0
4, 497280, Note_on_c, 9, 59, 98
4, 497488, Note_on_c, 9, 59, 0
4, 500160, Note_on_c, 9, 59, 95
4, 500381, Note_on_c, 9, 59, 0
4, 501760, Note_on_c, 9, 59, 89
4, 501962, Note_on_c, 9, 59, 0
4, 502240, Note_on_c, 9, 59, 89
4, 502371, Note_on_c, 9, 59, 0
4, 503200, Note_on_c, 9, 59, 104
4, 503412, Note_on_c, 9, 59, 0
4, 504000, Note_on_c, 9, 59, 106
4, 504224, Note_on_c, 9, 59, 0
4, 504960, Note_on_c, 9, 59, 111
4, 505190, Note_on_c, 9, 59, 0
4, 506560, Note_on_c, 9, 59, 75
4, 506669, Note_on_c, 9, 59, 0
4, 507040, Note_on_c, 9, 59, 92
4, 507274, Note_on_c, 9, 59, 0
4, 508000, Note_on_c, 9, 59, 110
4, 508198, Note_on_c, 9, 59, 0
4, 509760, Note_on_c, 9, 51, 89
4, 510233, Note_on_c, 9, 51, 0
4, 512640, Note_on_c, 9, 59, 94
4, 512746, Note_on_c, 9, 59, 0
4, 513600, Note_on_c, 9, 59, 98
4, 513789, Note_on_c, 9, 59, 0
4, 514560, Note_on_c, 9, 59, 94
4, 514668, Note_on_c, 9, 59, 0
4, 515520, Note_on_c, 9, 51, 84
4, 515520, Note_on_c, 9, 46, 72
4, 515958, Note_on_c, 9, 51, 0
4, 516051, Note_on_c, 9, 46, 0
4, 517440, Note_on_c, 9, 59, 96
4, 517668, Note_on_c, 9, 59, 0
4, 518400, Note_on_c, 9, 59, 96
4, 518583, Note_on_c, 9, 59, 0
4, 520320, Note_on_c, 9, 59, 97
4, 520464, Note_on_c, 9, 59, 0
4, 522400, Note_on_c, 9, 59, 93
4, 522508, Note_on_c, 9, 59, 0
4, 523200, Note_on_c, 9, 59, 92
4, 523309, Note_on_c, 9, 59, 0
4, 524160, Note_on_c, 9, 53, 91
4, 524160, Note_on_c, 9, 51, 71
4, 524397, Note_on_c, 9, 53, 0
4, 524477, Note_on_c, 9, 51, 0
4, 527200, Note_on_c, 9, 59, 95
4, 527308, Note_on_c, 9, 59, 0
4, 528000, Note_on_c, 9, 51, 86
4, 528160, Note_on_c, 9, 53, 86
4, 528240, Note_on_c, 9, 51, 0
4, 528342, Note_on_c, 9, 53, 0
4, 528960, Note_on_c, 9, 51, 89
4, 529120, Note_on_c, 9, 53, 88
4, 529318, Note_on_c, 9, 51, 0
4, 529366, Note_on_c, 9, 53, 0
4, 531200, Note_on_c, 9, 59, 99
4, 531411, Note_on_c, 9, 59, 0
4, 532480, Note_on_c, 9, 59, 84
4, 532608, Note_on_c, 9, 59, 0
4, 532960, Note_on_c, 9, 59, 60
4, 533085, Note_on_c, 9, 59, 0
4, 533920, Note_on_c, 9, 59, 103
4, 534122, Note_on_c, 9, 59, 0
4, 535360, Note_on_c, 9, 59, 83
4, 535469, Note_on_c, 9, 59, 0
4, 535680, Note_on_c, 9, 59, 92
4, 535891, Note_on_c, 9, 59, 0
4, 536640, Note_on_c, 9, 59, 106
4, 536838, Note_on_c, 9, 59, 0
4, 538240, Note_on_c, 9, 59, 81
4, 538377, Note_on_c, 9, 59, 0
4, 538720, Note_on_c, 9, 59, 90
4, 538829, Note_on_c, 9, 59, 0
4, 539680, Note_on_c, 9, 59, 102
4, 539888, Note_on_c, 9, 59, 0
4, 541120, Note_on_c, 9, 59, 87
4, 541232, Note_on_c, 9, 59, 0
4, 541600, Note_on_c, 9, 53, 81
4, 541600, Note_on_c, 9, 59, 90
4, 541709, Note_on_c, 9, 59, 0
4, 541798, Note_on_c, 9, 53, 0
4, 542400, Note_on_c, 9, 59, 86
4, 542400, Note_on_c, 9, 53, 81
4, 542563, Note_on_c, 9, 59, 0
4, 542688, Note_on_c, 9, 53, 0
4, 544000, Note_on_c, 9, 59, 78
4, 544108, Note_on_c, 9, 59, 0
4, 544320, Note_on_c, 9, 53, 81
4, 544320, Note_on_c, 9, 59, 89
4, 544563, Note_on_c, 9, 59, 0
4, 544694, Note_on_c, 9, 53, 0
4, 545280, Note_on_c, 9, 59, 102
4, 545440, Note_on_c, 9, 53, 87
4, 545500, Note_on_c, 9, 59, 0
4, 545734, Note_on_c, 9, 53, 0
4, 546880, Note_on_c, 9, 59, 78
4, 546985, Note_on_c, 9, 59, 0
4, 547200, Note_on_c, 9, 53, 85
4, 547200, Note_on_c, 9, 59, 90
4, 547424, Note_on_c, 9, 59, 0
4, 547520, Note_on_c, 9, 53, 0
4, 548160, Note_on_c, 9, 59, 104
4, 548160, Note_on_c, 9, 53, 78
4, 548403, Note_on_c, 9, 59, 0
4, 548522, Note_on_c, 9, 53, 0
4, 550560, Note_on_c, 9, 59, 77
4, 550672, Note_on_c, 9, 59, 0
4, 551040, Note_on_c, 9, 53, 79
4, 551040, Note_on_c, 9, 59, 89
4, 551327, Note_on_c, 9, 59, 0
4, 551478, Note_on_c, 9, 53, 0
4, 552640, Note_on_c, 9, 59, 79
4, 552755, Note_on_c, 9, 59, 0
4, 552960, Note_on_c, 9, 59, 92
4, 552960, Note_on_c, 9, 53, 77
4, 553312, Note_on_c, 9, 59, 0
4, 553392, Note_on_c, 9, 53, 0
4, 554080, Note_on_c, 9, 59, 96
4, 554080, Note_on_c, 9, 53, 86
4, 554521, Note_on_c, 9, 59, 0
4, 554645, Note_on_c, 9, 53, 0
4, 555520, Note_on_c, 9, 59, 77
4, 555642, Note_on_c, 9, 59, 0
4, 555840, Note_on_c, 9, 53, 83
4, 555840, Note_on_c, 9, 59, 91
4, 556112, Note_on_c, 9, 59, 0
4, 556259, Note_on_c, 9, 53, 0
4, 556960, Note_on_c, 9, 59, 102
4, 556960, Note_on_c, 9, 53, 84
4, 557203, Note_on_c, 9, 59, 0
4, 557283, Note_on_c, 9, 53, 0
4, 559680, Note_on_c, 9, 59, 102
4, 559882, Note_on_c, 9, 59, 0
4, 561120, Note_on_c, 9, 59, 86
4, 561293, Note_on_c, 9, 59, 0
4, 561600, Note_on_c, 9, 59, 88
4, 561860, Note_on_c, 9, 59, 0
4, 562560, Note_on_c, 9, 59, 105
4, 562777, Note_on_c, 9, 59, 0
4, 564480, Note_on_c, 9, 51, 90
4, 564751, Note_on_c, 9, 51, 0
4, 565440, Note_on_c, 9, 51, 86
4, 565795, Note_on_c, 9, 51, 0
4, 566400, Note_on_c, 9, 51, 50
4, 566678, Note_on_c, 9, 51, 0
4, 567520, Note_on_c, 9, 51, 92
4, 567837, Note_on_c, 9, 51, 0
4, 568480, Note_on_c, 9, 51, 67
4, 568640, Note_on_c, 9, 51, 0
4, 569440, Note_on_c, 9, 51, 96
4, 569741, Note_on_c, 9, 51, 0
4, 570400, Note_on_c, 9, 51, 78
4, 570627, Note_on_c, 9, 51, 0
4, 571200, Note_on_c, 9, 51, 92
4, 571507, Note_on_c, 9, 51, 0
4, 572320, Note_on_c, 9, 51, 85
4, 572720, Note_on_c, 9, 51, 0
4, 573120, Note_on_c, 9, 51, 87
4, 573449, Note_on_c, 9, 51, 0
4, 574080, Note_on_c, 9, 51, 67
4, 574294, Note_on_c, 9, 51, 0
4, 575040, Note_on_c, 9, 51, 89
4, 575360, Note_on_c, 9, 51, 0
4, 576000, Note_on_c, 9, 51, 75
4, 576301, Note_on_c, 9, 51, 0
4, 576960, Note_on_c, 9, 51, 86
4, 576960, Note_on_c, 9, 53, 84
4, 577395, Note_on_c, 9, 51, 0
4, 577479, Note_on_c, 9, 53, 0
4, 578080, Note_on_c, 9, 51, 47
4, 578208, Note_on_c, 9, 51, 0
4, 578560, Note_on_c, 9, 51, 89
4, 578560, Note_on_c, 9, 53, 84
4, 579130, Note_on_c, 9, 51, 0
4, 579139, Note_on_c, 9, 53, 0
4, 579520, Note_on_c, 9, 51, 74
4, 579747, Note_on_c, 9, 51, 0
4, 580000, Note_on_c, 9, 51, 78
4, 580160, Note_on_c, 9, 53, 89
4, 580484, Note_on_c, 9, 51, 0
4, 580646, Note_on_c, 9, 53, 0
4, 580960, Note_on_c, 9, 51, 68
4, 581149, Note_on_c, 9, 51, 0
4, 581600, Note_on_c, 9, 51, 89
4, 581600, Note_on_c, 9, 53, 78
4, 581974, Note_on_c, 9, 51, 0
4, 581981, Note_on_c, 9, 53, 0
4, 583520, Note_on_c, 9, 51, 87
4, 583779, Note_on_c, 9, 51, 0
4, 583840, Note_on_c, 9, 51, 84
4, 584412, Note_on_c, 9, 51, 0
4, 585440, Note_on_c, 9, 51, 71
4, 585610, Note_on_c, 9, 51, 0
4, 585760, Note_on_c, 9, 51, 91
4, 586371, Note_on_c, 9, 51, 0
4, 587200, Note_on_c, 9, 51, 74
4, 587434, Note_on_c, 9, 51, 0
4, 587680, Note_on_c, 9, 51, 87
4, 588700, Note_on_c, 9, 51, 0
4, 589120, Note_on_c, 9, 51, 83
4, 589328, Note_on_c, 9, 51, 0
4, 589440, Note_on_c, 9, 51, 91
4, 590041, Note_on_c, 9, 51, 0
4, 591040, Note_on_c, 9, 51, 75
4, 591257, Note_on_c, 9, 51, 0
4, 591360, Note_on_c, 9, 51, 93
4, 591766, Note_on_c, 9, 51, 0
4, 592160, Note_on_c, 9, 51, 40
4, 592397, Note_on_c, 9, 51, 0
4, 592960, Note_on_c, 9, 51, 80
4, 593197, Note_on_c, 9, 51, 0
4, 593440, Note_on_c, 9, 51, 86
4, 593987, Note_on_c, 9, 51, 0
4, 594720, Note_on_c, 9, 53, 85
4, 594835, Note_on_c, 9, 53, 0
4, 595200, Note_on_c, 9, 53, 79
4, 595421, Note_on_c, 9, 53, 0
4, 596800, Note_on_c, 9, 53, 72
4, 596912, Note_on_c, 9, 53, 0
4, 597120, Note_on_c, 9, 53, 79
4, 597443, Note_on_c, 9, 53, 0
4, 598720, Note_on_c, 9, 53, 77
4, 598829, Note_on_c, 9, 53, 0
4, 599040, Note_on_c, 9, 53, 82
4, 599296, Note_on_c, 9, 53, 0
4, 599680, Note_on_c, 9, 51, 91
4, 600515, Note_on_c, 9, 51, 0
4, 601120, Note_on_c, 9, 51, 92
4, 601500, Note_on_c, 9, 51, 0
4, 602560, Note_on_c, 9, 53, 81
4, 602669, Note_on_c, 9, 53, 0
4, 602880, Note_on_c, 9, 53, 81
4, 603129, Note_on_c, 9, 53, 0
4, 604480, Note_on_c, 9, 53, 83
4, 604589, Note_on_c, 9, 53, 0
4, 604800, Note_on_c, 9, 53, 80
4, 605012, Note_on_c, 9, 53, 0
4, 606240, Note_on_c, 9, 53, 86
4, 606349, Note_on_c, 9, 53, 0
4, 606720, Note_on_c, 9, 53, 83
4, 606953, Note_on_c, 9, 53, 0
4, 607360, Note_on_c, 9, 51, 57
4, 607360, Note_on_c, 9, 57, 78
4, 607815, Note_on_c, 9, 57, 0
4, 607904, Note_on_c, 9, 51, 0
4, 609120, Note_on_c, 9, 53, 83
4, 609228, Note_on_c, 9, 53, 0
4, 609600, Note_on_c, 9, 53, 79
4, 609805, Note_on_c, 9, 53, 0
4, 610240, Note_on_c, 9, 51, 79
4, 610240, Note_on_c, 9, 57, 89
4, 610950, Note_on_c, 9, 57, 0
4, 611071, Note_on_c, 9, 51, 0
4, 612160, Note_on_c, 9, 53, 85
4, 612365, Note_on_c, 9, 53, 0
4, 613120, Note_on_c, 9, 53, 91
4, 613251, Note_on_c, 9, 53, 0
4, 614080, Note_on_c, 9, 53, 79
4, 614189, Note_on_c, 9, 53, 0
4, 614400, Note_on_c, 9, 53, 84
4, 614669, Note_on_c, 9, 53, 0
4, 616000, Note_on_c, 9, 53, 76
4, 616118, Note_on_c, 9, 53, 0
4, 616320, Note_on_c, 9, 53, 92
4, 616605, Note_on_c, 9, 53, 0
4, 617440, Note_on_c, 9, 53, 107
4, 617716, Note_on_c, 9, 53, 0
4, 618880, Note_on_c, 9, 53, 81
4, 619034, Note_on_c, 9, 53, 0
4, 619200, Note_on_c, 9, 53, 89
4, 619440, Note_on_c, 9, 53, 0
4, 620160, Note_on_c, 9, 53, 111
4, 620381, Note_on_c, 9, 53, 0
4, 621120, Note_on_c, 9, 53, 110
4, 621343, Note_on_c, 9, 53, 0
4, 622080, Note_on_c, 9, 53, 107
4, 622333, Note_on_c, 9, 53, 0
4, 623040, Note_on_c, 9, 53, 86
4, 623257, Note_on_c, 9, 53, 0
4, 623680, Note_on_c, 9, 59, 105
4, 624489, Note_on_c, 9, 59, 0
4, 624960, Note_on_c, 9, 53, 114
4, 626307, Note_on_c, 9, 53, 0
4, 627680, Note_on_c, 9, 53, 81
4, 627789, Note_on_c, 9, 53, 0
4, 628000, Note_on_c, 9, 59, 94
4, 628300, Note_on_c, 9, 59, 0
4, 629600, Note_on_c, 9, 59, 80
4, 629827, Note_on_c, 9, 59, 0
4, 631360, Note_on_c, 9, 53, 86
4, 631485, Note_on_c, 9, 53, 0
4, 631840, Note_on_c, 9, 59, 68
4, 631981, Note_on_c, 9, 59, 0
4, 632640, Note_on_c, 9, 59, 84
4, 632851, Note_on_c, 9, 59, 0
4, 633600, Note_on_c, 9, 59, 91
4, 633716, Note_on_c, 9, 59, 0
4, 634560, Note_on_c, 9, 59, 75
4, 634688, Note_on_c, 9, 59, 0
4, 635200, Note_on_c, 9, 59, 65
4, 635319, Note_on_c, 9, 59, 0
4, 635520, Note_on_c, 9, 59, 75
4, 635817, Note_on_c, 9, 59, 0
4, 636480, Note_on_c, 9, 59, 99
4, 636771, Note_on_c, 9, 59, 0
4, 637600, Note_on_c, 9, 59, 50
4, 637734, Note_on_c, 9, 59, 0
4, 638080, Note_on_c, 9, 59, 85
4, 638762, Note_on_c, 9, 59, 0
4, 639360, Note_on_c, 9, 59, 99
4, 639571, Note_on_c, 9, 59, 0
4, 640480, Note_on_c, 9, 59, 74
4, 640589, Note_on_c, 9, 59, 0
4, 640960, Note_on_c, 9, 59, 65
4, 641076, Note_on_c, 9, 59, 0
4, 641440, Note_on_c, 9, 59, 86
4, 641788, Note_on_c, 9, 59, 0
4, 642400, Note_on_c, 9, 59, 62
4, 642521, Note_on_c, 9, 59, 0
4, 643360, Note_on_c, 9, 59, 91
4, 643498, Note_on_c, 9, 59, 0
4, 644160, Note_on_c, 9, 53, 106
4, 644602, Note_on_c, 9, 53, 0
4, 645120, Note_on_c, 9, 59, 70
4, 645287, Note_on_c, 9, 59, 0
4, 646080, Note_on_c, 9, 59, 67
4, 646192, Note_on_c, 9, 59, 0
4, 647040, Note_on_c, 9, 59, 94
4, 647198, Note_on_c, 9, 59, 0
4, 647680, Note_on_c, 9, 53, 99
4, 648596, Note_on_c, 9, 53, 0
4, 648960, Note_on_c, 9, 53, 103
4, 649539, Note_on_c, 9, 53, 0
4, 650560, Note_on_c, 9, 59, 95
4, 650777, Note_on_c, 9, 59, 0
4, 651040, Note_on_c, 9, 53, 85
4, 651721, Note_on_c, 9, 53, 0
4, 652000, Note_on_c, 9, 53, 100
4, 652643, Note_on_c, 9, 53, 0
4, 653600, Note_on_c, 9, 59, 103
4, 653728, Note_on_c, 9, 59, 0
4, 653920, Note_on_c, 9, 53, 86
4, 654438, Note_on_c, 9, 53, 0
4, 654720, Note_on_c, 9, 53, 95
4, 655242, Note_on_c, 9, 53, 0
4, 656320, Note_on_c, 9, 59, 89
4, 656435, Note_on_c, 9, 59, 0
4, 656640, Note_on_c, 9, 53, 45
4, 656787, Note_on_c, 9, 53, 0
4, 656800, Note_on_c, 9, 59, 92
4, 657027, Note_on_c, 9, 59, 0
4, 657600, Note_on_c, 9, 59, 103
4, 657876, Note_on_c, 9, 59, 0
4, 659200, Note_on_c, 9, 51, 53
4, 659200, Note_on_c, 9, 53, 52
4, 659328, Note_on_c, 9, 51, 0
4, 659334, Note_on_c, 9, 53, 0
4, 659520, Note_on_c, 9, 59, 82
4, 659764, Note_on_c, 9, 59, 0
4, 660640, Note_on_c, 9, 59, 95
4, 660873, Note_on_c, 9, 59, 0
4, 661440, Note_on_c, 9, 59, 103
4, 661690, Note_on_c, 9, 59, 0
4, 662560, Note_on_c, 9, 59, 90
4, 662813, Note_on_c, 9, 59, 0
4, 663040, Note_on_c, 9, 59, 83
4, 663209, Note_on_c, 9, 59, 0
4, 664480, Note_on_c, 9, 59, 99
4, 664688, Note_on_c, 9, 59, 0
4, 665920, Note_on_c, 9, 59, 81
4, 666099, Note_on_c, 9, 59, 0
4, 666400, Note_on_c, 9, 59, 91
4, 666611, Note_on_c, 9, 59, 0
4, 667840, Note_on_c, 9, 59, 82
4, 667962, Note_on_c, 9, 59, 0
4, 668320, Note_on_c, 9, 59, 88
4, 668432, Note_on_c, 9, 59, 0
4, 669120, Note_on_c, 9, 59, 104
4, 669354, Note_on_c, 9, 59, 0
4, 670080, Note_on_c, 9, 51, 79
4, 670080, Note_on_c, 9, 53, 89
4, 670314, Note_on_c, 9, 53, 0
4, 670445, Note_on_c, 9, 51, 0
4, 673760, Note_on_c, 9, 59, 90
4, 673981, Note_on_c, 9, 59, 0
4, 674080, Note_on_c, 9, 59, 90
4, 674193, Note_on_c, 9, 59, 0
4, 676000, Note_on_c, 9, 59, 86
4, 676143, Note_on_c, 9, 59, 0
4, 676960, Note_on_c, 9, 59, 79
4, 676960, Note_on_c, 9, 57, 53
4, 677079, Note_on_c, 9, 57, 0
4, 677140, Note_on_c, 9, 59, 0
4, 679840, Note_on_c, 9, 59, 89
4, 679975, Note_on_c, 9, 59, 0
4, 681280, Note_on_c, 9, 59, 76
4, 681280, Note_on_c, 9, 57, 69
4, 681389, Note_on_c, 9, 59, 0
4, 681392, Note_on_c, 9, 57, 0
4, 684640, Note_on_c, 9, 59, 105
4, 684848, Note_on_c, 9, 59, 0
4, 686240, Note_on_c, 9, 59, 100
4, 686441, Note_on_c, 9, 59, 0
4, 687040, Note_on_c, 9, 59, 97
4, 687191, Note_on_c, 9, 59, 0
4, 687520, Note_on_c, 9, 59, 92
4, 687753, Note_on_c, 9, 59, 0
4, 688960, Note_on_c, 9, 59, 93
4, 689088, Note_on_c, 9, 59, 0
4, 689440, Note_on_c, 9, 59, 98
4, 689664, Note_on_c, 9, 59, 0
4, 690880, Note_on_c, 9, 59, 75
4, 690998, Note_on_c, 9, 59, 0
4, 691360, Note_on_c, 9, 59, 93
4, 691581, Note_on_c, 9, 59, 0
4, 692800, Note_on_c, 9, 59, 77
4, 692919, Note_on_c, 9, 59, 0
4, 693120, Note_on_c, 9, 59, 95
4, 693395, Note_on_c, 9, 59, 0
4, 694720, Note_on_c, 9, 59, 75
4, 694829, Note_on_c, 9, 59, 0
4, 695040, Note_on_c, 9, 59, 95
4, 695261, Note_on_c, 9, 59, 0
4, 696640, Note_on_c, 9, 59, 72
4, 696752, Note_on_c, 9, 59, 0
4, 697120, Note_on_c, 9, 59, 94
4, 697334, Note_on_c, 9, 59, 0
4, 698560, Note_on_c, 9, 59, 81
4, 698672, Note_on_c, 9, 59, 0
4, 699040, Note_on_c, 9, 59, 92
4, 699284, Note_on_c, 9, 59, 0
4, 700640, Note_on_c, 9, 59, 78
4, 700749, Note_on_c, 9, 59, 0
4, 700960, Note_on_c, 9, 59, 87
4, 701068, Note_on_c, 9, 59, 0
4, 701760, Note_on_c, 9, 59, 106
4, 702042, Note_on_c, 9, 59, 0
4, 702880, Note_on_c, 9, 59, 102
4, 703161, Note_on_c, 9, 59, 0
4, 704320, Note_on_c, 9, 59, 82
4, 704452, Note_on_c, 9, 59, 0
4, 704800, Note_on_c, 9, 59, 95
4, 705097, Note_on_c, 9, 59, 0
4, 706240, Note_on_c, 9, 59, 88
4, 706435, Note_on_c, 9, 59, 0
4, 706720, Note_on_c, 9, 59, 100
4, 707033, Note_on_c, 9, 59, 0
4, 708160, Note_on_c, 9, 59, 82
4, 708269, Note_on_c, 9, 59, 0
4, 708480, Note_on_c, 9, 59, 90
4, 708701, Note_on_c, 9, 59, 0
4, 709440, Note_on_c, 9, 59, 102
4, 709651, Note_on_c, 9, 59, 0
4, 710400, Note_on_c, 9, 59, 92
4, 710544, Note_on_c, 9, 59, 0
4, 711360, Note_on_c, 9, 59, 114
4, 711616, Note_on_c, 9, 59, 0
4, 712320, Note_on_c, 9, 59, 66
4, 712445, Note_on_c, 9, 59, 0
4, 712800, Note_on_c, 9, 59, 96
4, 713027, Note_on_c, 9, 59, 0
4, 714080, Note_on_c, 9, 59, 80
4, 714189, Note_on_c, 9, 59, 0
4, 714400, Note_on_c, 9, 59, 103
4, 714738, Note_on_c, 9, 59, 0
4, 715200, Note_on_c, 9, 59, 88
4, 715309, Note_on_c, 9, 59, 0
4, 715840, Note_on_c, 9, 59, 104
4, 716061, Note_on_c, 9, 59, 0
4, 716800, Note_on_c, 9, 59, 93
4, 716986, Note_on_c, 9, 59, 0
4, 717280, Note_on_c, 9, 59, 100
4, 717555, Note_on_c, 9, 59, 0
4, 718240, Note_on_c, 9, 59, 83
4, 718240, Note_on_c, 9, 53, 81
4, 718346, Note_on_c, 9, 59, 0
4, 718349, Note_on_c, 9, 53, 0
4, 718720, Note_on_c, 9, 59, 97
4, 718947, Note_on_c, 9, 59, 0
4, 719520, Note_on_c, 9, 59, 87
4, 719715, Note_on_c, 9, 59, 0
4, 720160, Note_on_c, 9, 59, 96
4, 720160, Note_on_c, 9, 57, 87
4, 720499, Note_on_c, 9, 59, 0
4, 720592, Note_on_c, 9, 57, 0
4, 720960, Note_on_c, 9, 59, 69
4, 721075, Note_on_c, 9, 59, 0
4, 721600, Note_on_c, 9, 59, 100
4, 721600, Note_on_c, 9, 57, 86
4, 721920, Note_on_c, 9, 57, 0
4, 721997, Note_on_c, 9, 59, 0
4, 722560, Note_on_c, 9, 59, 81
4, 722701, Note_on_c, 9, 59, 0
4, 723040, Note_on_c, 9, 59, 100
4, 723040, Note_on_c, 9, 57, 89
4, 723491, Note_on_c, 9, 59, 0
4, 723584, Note_on_c, 9, 57, 0
4, 723840, Note_on_c, 9, 59, 83
4, 723958, Note_on_c, 9, 59, 0
4, 724480, Note_on_c, 9, 59, 99
4, 724742, Note_on_c, 9, 59, 0
4, 725440, Note_on_c, 9, 59, 75
4, 725549, Note_on_c, 9, 59, 0
4, 725920, Note_on_c, 9, 59, 102
4, 726269, Note_on_c, 9, 59, 0
4, 726720, Note_on_c, 9, 59, 76
4, 726832, Note_on_c, 9, 59, 0
4, 727360, Note_on_c, 9, 59, 104
4, 727645, Note_on_c, 9, 59, 0
4, 728320, Note_on_c, 9, 59, 81
4, 728429, Note_on_c, 9, 59, 0
4, 728800, Note_on_c, 9, 59, 107
4, 729088, Note_on_c, 9, 59, 0
4, 729600, Note_on_c, 9, 59, 81
4, 729709, Note_on_c, 9, 59, 0
4, 730560, Note_on_c, 9, 59, 104
4, 730793, Note_on_c, 9, 59, 0
4, 731520, Note_on_c, 9, 59, 102
4, 731740, Note_on_c, 9, 59, 0
4, 732480, Note_on_c, 9, 59, 102
4, 732758, Note_on_c, 9, 59, 0
4, 734240, Note_on_c, 9, 59, 96
4, 734512, Note_on_c, 9, 59, 0
4, 735040, Note_on_c, 9, 59, 88
4, 735241, Note_on_c, 9, 59, 0
4, 735520, Note_on_c, 9, 59, 99
4, 735805, Note_on_c, 9, 59, 0
4, 736960, Note_on_c, 9, 59, 87
4, 737190, Note_on_c, 9, 59, 0
4, 737440, Note_on_c, 9, 59, 99
4, 737740, Note_on_c, 9, 59, 0
4, 738720, Note_on_c, 9, 59, 88
4, 738899, Note_on_c, 9, 59, 0
4, 739200, Note_on_c, 9, 59, 96
4, 739517, Note_on_c, 9, 59, 0
4, 740800, Note_on_c, 9, 59, 83
4, 740915, Note_on_c, 9, 59, 0
4, 741280, Note_on_c, 9, 59, 95
4, 741504, Note_on_c, 9, 59, 0
4, 742080, Note_on_c, 9, 59, 104
4, 742339, Note_on_c, 9, 59, 0
4, 743200, Note_on_c, 9, 59, 98
4, 743482, Note_on_c, 9, 59, 0
4, 744640, Note_on_c, 9, 59, 87
4, 744794, Note_on_c, 9, 59, 0
4, 744960, Note_on_c, 9, 59, 93
4, 745187, Note_on_c, 9, 59, 0
4, 745920, Note_on_c, 9, 59, 99
4, 746128, Note_on_c, 9, 59, 0
4, 746880, Note_on_c, 9, 59, 94
4, 747046, Note_on_c, 9, 59, 0
4, 747520, Note_on_c, 9, 51, 90
4, 747520, Note_on_c, 9, 53, 94
4, 747744, Note_on_c, 9, 53, 0
4, 748000, Note_on_c, 9, 53, 34
4, 748313, Note_on_c, 9, 53, 0
4, 748553, Note_on_c, 9, 51, 0
4, 748800, Note_on_c, 9, 51, 71
4, 748800, Note_on_c, 9, 53, 79
4, 749065, Note_on_c, 9, 53, 0
4, 749267, Note_on_c, 9, 51, 0
4, 751680, Note_on_c, 9, 53, 99
4, 751913, Note_on_c, 9, 53, 0
4, 753600, Note_on_c, 9, 51, 62
4, 753827, Note_on_c, 9, 51, 0
4, 754560, Note_on_c, 9, 51, 70
4, 754951, Note_on_c, 9, 51, 0
4, 755520, Note_on_c, 9, 51, 64
4, 755872, Note_on_c, 9, 51, 0
4, 756640, Note_on_c, 9, 51, 53
4, 756787, Note_on_c, 9, 51, 0
4, 757440, Note_on_c, 9, 51, 96
4, 757821, Note_on_c, 9, 51, 0
4, 758400, Note_on_c, 9, 51, 63
4, 758695, Note_on_c, 9, 51, 0
4, 759360, Note_on_c, 9, 51, 98
4, 759731, Note_on_c, 9, 51, 0
4, 760320, Note_on_c, 9, 51, 59
4, 760468, Note_on_c, 9, 51, 0
4, 761280, Note_on_c, 9, 51, 86
4, 761645, Note_on_c, 9, 51, 0
4, 762240, Note_on_c, 9, 51, 67
4, 762499, Note_on_c, 9, 51, 0
4, 763200, Note_on_c, 9, 51, 84
4, 763520, Note_on_c, 9, 51, 0
4, 764160, Note_on_c, 9, 51, 60
4, 764464, Note_on_c, 9, 51, 0
4, 765120, Note_on_c, 9, 59, 86
4, 765254, Note_on_c, 9, 59, 0
4, 768160, Note_on_c, 9, 51, 58
4, 768317, Note_on_c, 9, 51, 0
4, 769120, Note_on_c, 9, 53, 89
4, 769267, Note_on_c, 9, 53, 0
4, 771040, Note_on_c, 9, 53, 63
4, 771040, Note_on_c, 9, 57, 67
4, 771152, Note_on_c, 9, 57, 0
4, 771177, Note_on_c, 9, 53, 0
4, 772960, Note_on_c, 9, 57, 86
4, 773078, Note_on_c, 9, 57, 0
4, 774880, Note_on_c, 9, 57, 86
4, 774880, Note_on_c, 9, 53, 73
4, 774989, Note_on_c, 9, 57, 0
4, 775024, Note_on_c, 9, 53, 0
4, 776800, Note_on_c, 9, 57, 85
4, 776800, Note_on_c, 9, 53, 79
4, 776909, Note_on_c, 9, 57, 0
4, 776925, Note_on_c, 9, 53, 0
4, 778560, Note_on_c, 9, 53, 42
4, 778677, Note_on_c, 9, 53, 0
4, 779520, Note_on_c, 9, 51, 95
4, 779718, Note_on_c, 9, 51, 0
4, 780480, Note_on_c, 9, 51, 73
4, 780602, Note_on_c, 9, 51, 0
4, 781280, Note_on_c, 9, 51, 70
4, 781405, Note_on_c, 9, 51, 0
4, 781600, Note_on_c, 9, 51, 85
4, 781795, Note_on_c, 9, 51, 0
4, 782400, Note_on_c, 9, 51, 92
4, 782630, Note_on_c, 9, 51, 0
4, 783040, Note_on_c, 9, 51, 79
4, 783152, Note_on_c, 9, 51, 0
4, 783360, Note_on_c, 9, 51, 83
4, 783661, Note_on_c, 9, 51, 0
4, 784320, Note_on_c, 9, 51, 84
4, 784537, Note_on_c, 9, 51, 0
4, 784960, Note_on_c, 9, 51, 71
4, 785069, Note_on_c, 9, 51, 0
4, 785440, Note_on_c, 9, 51, 72
4, 785734, Note_on_c, 9, 51, 0
4, 786240, Note_on_c, 9, 51, 95
4, 786474, Note_on_c, 9, 51, 0
4, 787200, Note_on_c, 9, 51, 96
4, 787453, Note_on_c, 9, 51, 0
4, 788320, Note_on_c, 9, 51, 87
4, 788563, Note_on_c, 9, 51, 0
4, 788800, Note_on_c, 9, 51, 69
4, 788976, Note_on_c, 9, 51, 0
4, 789280, Note_on_c, 9, 51, 93
4, 789539, Note_on_c, 9, 51, 0
4, 790240, Note_on_c, 9, 51, 97
4, 790492, Note_on_c, 9, 51, 0
4, 790720, Note_on_c, 9, 51, 76
4, 790842, Note_on_c, 9, 51, 0
4, 791200, Note_on_c, 9, 51, 80
4, 791417, Note_on_c, 9, 51, 0
4, 792160, Note_on_c, 9, 51, 93
4, 792384, Note_on_c, 9, 51, 0
4, 792800, Note_on_c, 9, 51, 82
4, 792964, Note_on_c, 9, 51, 0
4, 793120, Note_on_c, 9, 51, 77
4, 793318, Note_on_c, 9, 51, 0
4, 793760, Note_on_c, 9, 51, 85
4, 793949, Note_on_c, 9, 51, 0
4, 794080, Note_on_c, 9, 51, 69
4, 794303, Note_on_c, 9, 51, 0
4, 795040, Note_on_c, 9, 51, 93
4, 795292, Note_on_c, 9, 51, 0
4, 796000, Note_on_c, 9, 51, 86
4, 796227, Note_on_c, 9, 51, 0
4, 796640, Note_on_c, 9, 51, 88
4, 796851, Note_on_c, 9, 51, 0
4, 797440, Note_on_c, 9, 51, 86
4, 797633, Note_on_c, 9, 51, 0
4, 797920, Note_on_c, 9, 51, 89
4, 798195, Note_on_c, 9, 51, 0
4, 798880, Note_on_c, 9, 51, 80
4, 799028, Note_on_c, 9, 51, 0
4, 799360, Note_on_c, 9, 51, 93
4, 799638, Note_on_c, 9, 51, 0
4, 800320, Note_on_c, 9, 51, 78
4, 800432, Note_on_c, 9, 51, 0
4, 800800, Note_on_c, 9, 51, 92
4, 801108, Note_on_c, 9, 51, 0
4, 801600, Note_on_c, 9, 51, 70
4, 801709, Note_on_c, 9, 51, 0
4, 802240, Note_on_c, 9, 51, 82
4, 802458, Note_on_c, 9, 51, 0
4, 803200, Note_on_c, 9, 51, 82
4, 803382, Note_on_c, 9, 51, 0
4, 803680, Note_on_c, 9, 51, 86
4, 804077, Note_on_c, 9, 51, 0
4, 804640, Note_on_c, 9, 51, 85
4, 804970, Note_on_c, 9, 51, 0
4, 805440, Note_on_c, 9, 51, 91
4, 805709, Note_on_c, 9, 51, 0
4, 806560, Note_on_c, 9, 51, 84
4, 806848, Note_on_c, 9, 51, 0
4, 807200, Note_on_c, 9, 51, 66
4, 807321, Note_on_c, 9, 51, 0
4, 807520, Note_on_c, 9, 51, 86
4, 807766, Note_on_c, 9, 51, 0
4, 808320, Note_on_c, 9, 51, 95
4, 808579, Note_on_c, 9, 51, 0
4, 809280, Note_on_c, 9, 51, 92
4, 809552, Note_on_c, 9, 51, 0
4, 809920, Note_on_c, 9, 51, 68
4, 810108, Note_on_c, 9, 51, 0
4, 810240, Note_on_c, 9, 51, 89
4, 810576, Note_on_c, 9, 51, 0
4, 811200, Note_on_c, 9, 51, 86
4, 811419, Note_on_c, 9, 51, 0
4, 812320, Note_on_c, 9, 51, 83
4, 812617, Note_on_c, 9, 51, 0
4, 812800, Note_on_c, 9, 51, 70
4, 812950, Note_on_c, 9, 51, 0
4, 813120, Note_on_c, 9, 51, 90
4, 813530, Note_on_c, 9, 51, 0
4, 814240, Note_on_c, 9, 51, 88
4, 814499, Note_on_c, 9, 51, 0
4, 815200, Note_on_c, 9, 51, 86
4, 815494, Note_on_c, 9, 51, 0
4, 816160, Note_on_c, 9, 51, 92
4, 816439, Note_on_c, 9, 51, 0
4, 816800, Note_on_c, 9, 51, 75
4, 817011, Note_on_c, 9, 51, 0
4, 817600, Note_on_c, 9, 51, 93
4, 817885, Note_on_c, 9, 51, 0
4, 818560, Note_on_c, 9, 51, 88
4, 818765, Note_on_c, 9, 51, 0
4, 819040, Note_on_c, 9, 51, 82
4, 819296, Note_on_c, 9, 51, 0
4, 820000, Note_on_c, 9, 51, 90
4, 820243, Note_on_c, 9, 51, 0
4, 820960, Note_on_c, 9, 51, 91
4, 821178, Note_on_c, 9, 51, 0
4, 821920, Note_on_c, 9, 51, 93
4, 822163, Note_on_c, 9, 51, 0
4, 822720, Note_on_c, 9, 51, 95
4, 823049, Note_on_c, 9, 51, 0
4, 823680, Note_on_c, 9, 51, 90
4, 823933, Note_on_c, 9, 51, 0
4, 824640, Note_on_c, 9, 51, 96
4, 824921, Note_on_c, 9, 51, 0
4, 825280, Note_on_c, 9, 51, 89
4, 825462, Note_on_c, 9, 51, 0
4, 825760, Note_on_c, 9, 51, 90
4, 826042, Note_on_c, 9, 51, 0
4, 826560, Note_on_c, 9, 51, 87
4, 826813, Note_on_c, 9, 51, 0
4, 827360, Note_on_c, 9, 51, 86
4, 827532, Note_on_c, 9, 51, 0
4, 827680, Note_on_c, 9, 51, 89
4, 828036, Note_on_c, 9, 51, 0
4, 828480, Note_on_c, 9, 51, 84
4, 828729, Note_on_c, 9, 51, 0
4, 829600, Note_on_c, 9, 51, 94
4, 829882, Note_on_c, 9, 51, 0
4, 830400, Note_on_c, 9, 51, 95
4, 830796, Note_on_c, 9, 51, 0
4, 831360, Note_on_c, 9, 51, 70
4, 831539, Note_on_c, 9, 51, 0
4, 832000, Note_on_c, 9, 51, 71
4, 832231, Note_on_c, 9, 51, 0
4, 832320, Note_on_c, 9, 51, 93
4, 832675, Note_on_c, 9, 51, 0
4, 833440, Note_on_c, 9, 51, 93
4, 833725, Note_on_c, 9, 51, 0
4, 834400, Note_on_c, 9, 51, 94
4, 834669, Note_on_c, 9, 51, 0
4, 835360, Note_on_c, 9, 51, 97
4, 835740, Note_on_c, 9, 51, 0
4, 836160, Note_on_c, 9, 51, 86
4, 836521, Note_on_c, 9, 51, 0
4, 837280, Note_on_c, 9, 51, 84
4, 837495, Note_on_c, 9, 51, 0
4, 837760, Note_on_c, 9, 51, 80
4, 838035, Note_on_c, 9, 51, 0
4, 838240, Note_on_c, 9, 51, 78
4, 838525, Note_on_c, 9, 51, 0
4, 839040, Note_on_c, 9, 51, 89
4, 839286, Note_on_c, 9, 51, 0
4, 840000, Note_on_c, 9, 51, 92
4, 840282, Note_on_c, 9, 51, 0
4, 840960, Note_on_c, 9, 51, 97
4, 841231, Note_on_c, 9, 51, 0
4, 841920, Note_on_c, 9, 51, 95
4, 842205, Note_on_c, 9, 51, 0
4, 843040, Note_on_c, 9, 51, 91
4, 843315, Note_on_c, 9, 51, 0
4, 843520, Note_on_c, 9, 51, 86
4, 844262, Note_on_c, 9, 51, 0
4, 844640, Note_on_c, 9, 51, 93
4, 844934, Note_on_c, 9, 51, 0
4, 845600, Note_on_c, 9, 51, 95
4, 845859, Note_on_c, 9, 51, 0
4, 846400, Note_on_c, 9, 51, 66
4, 846538, Note_on_c, 9, 51, 0
4, 846880, Note_on_c, 9, 51, 85
4, 847203, Note_on_c, 9, 51, 0
4, 847840, Note_on_c, 9, 51, 95
4, 848096, Note_on_c, 9, 51, 0
4, 848800, Note_on_c, 9, 51, 92
4, 849046, Note_on_c, 9, 51, 0
4, 849600, Note_on_c, 9, 51, 94
4, 849853, Note_on_c, 9, 51, 0
4, 850720, Note_on_c, 9, 51, 84
4, 851037, Note_on_c, 9, 51, 0
4, 851200, Note_on_c, 9, 51, 86
4, 851401, Note_on_c, 9, 51, 0
4, 852160, Note_on_c, 9, 51, 93
4, 852457, Note_on_c, 9, 51, 0
4, 852960, Note_on_c, 9, 51, 71
4, 853414, Note_on_c, 9, 51, 0
4, 854080, Note_on_c, 9, 51, 84
4, 854307, Note_on_c, 9, 51, 0
4, 854560, Note_on_c, 9, 51, 85
4, 854560, Note_on_c, 9, 54, 40
4, 854560, Note_on_c, 9, 53, 69
4, 854985, Note_on_c, 9, 53, 0
4, 855072, Note_on_c, 9, 51, 0
4, 855085, Note_on_c, 9, 54, 0
4, 855520, Note_on_c, 9, 51, 70
4, 855754, Note_on_c, 9, 51, 0
4, 856000, Note_on_c, 9, 51, 82
4, 856160, Note_on_c, 9, 53, 83
4, 856496, Note_on_c, 9, 51, 0
4, 856599, Note_on_c, 9, 53, 0
4, 856960, Note_on_c, 9, 51, 77
4, 857175, Note_on_c, 9, 51, 0
4, 857440, Note_on_c, 9, 51, 91
4, 857440, Note_on_c, 9, 53, 90
4, 857722, Note_on_c, 9, 51, 0
4, 857727, Note_on_c, 9, 53, 0
4, 859040, Note_on_c, 9, 51, 84
4, 859040, Note_on_c, 9, 53, 90
4, 859283, Note_on_c, 9, 53, 0
4, 859398, Note_on_c, 9, 51, 0
4, 860000, Note_on_c, 9, 51, 63
4, 860109, Note_on_c, 9, 51, 0
4, 860320, Note_on_c, 9, 51, 69
4, 860320, Note_on_c, 9, 53, 92
4, 860860, Note_on_c, 9, 53, 0
4, 861002, Note_on_c, 9, 51, 0
4, 861760, Note_on_c, 9, 51, 92
4, 861760, Note_on_c, 9, 53, 92
4, 861990, Note_on_c, 9, 53, 0
4, 862073, Note_on_c, 9, 51, 0
4, 862720, Note_on_c, 9, 51, 84
4, 862880, Note_on_c, 9, 53, 72
4, 862950, Note_on_c, 9, 51, 0
4, 862989, Note_on_c, 9, 53, 0
4, 863200, Note_on_c, 9, 51, 82
4, 863200, Note_on_c, 9, 53, 84
4, 863443, Note_on_c, 9, 53, 0
4, 863574, Note_on_c, 9, 51, 0
4, 864000, Note_on_c, 9, 51, 86
4, 864000, Note_on_c, 9, 53, 86
4, 864109, Note_on_c, 9, 53, 0
4, 864228, Note_on_c, 9, 51, 0
4, 864960, Note_on_c, 9, 51, 89
4, 864960, Note_on_c, 9, 53, 97
4, 865181, Note_on_c, 9, 53, 0
4, 865299, Note_on_c, 9, 51, 0
4, 866560, Note_on_c, 9, 51, 78
4, 866668, Note_on_c, 9, 51, 0
4, 866880, Note_on_c, 9, 51, 86
4, 867175, Note_on_c, 9, 51, 0
4, 867840, Note_on_c, 9, 51, 90
4, 868105, Note_on_c, 9, 51, 0
4, 868800, Note_on_c, 9, 51, 88
4, 869066, Note_on_c, 9, 51, 0
4, 869760, Note_on_c, 9, 51, 79
4, 870093, Note_on_c, 9, 51, 0
4, 870720, Note_on_c, 9, 51, 89
4, 870720, Note_on_c, 9, 59, 105
4, 870912, Note_on_c, 9, 59, 0
4, 871047, Note_on_c, 9, 51, 0
4, 871680, Note_on_c, 9, 59, 82
4, 871680, Note_on_c, 9, 51, 58
4, 871817, Note_on_c, 9, 59, 0
4, 871955, Note_on_c, 9, 51, 0
4, 872640, Note_on_c, 9, 51, 66
4, 872640, Note_on_c, 9, 59, 89
4, 872861, Note_on_c, 9, 59, 0
4, 872975, Note_on_c, 9, 51, 0
4, 873600, Note_on_c, 9, 51, 55
4, 873827, Note_on_c, 9, 51, 0
4, 874560, Note_on_c, 9, 59, 103
4, 874560, Note_on_c, 9, 51, 87
4, 874832, Note_on_c, 9, 59, 0
4, 874912, Note_on_c, 9, 51, 0
4, 875520, Note_on_c, 9, 59, 64
4, 875680, Note_on_c, 9, 51, 60
4, 875741, Note_on_c, 9, 59, 0
4, 875946, Note_on_c, 9, 51, 0
4, 876640, Note_on_c, 9, 59, 93
4, 876640, Note_on_c, 9, 51, 77
4, 876880, Note_on_c, 9, 59, 0
4, 876976, Note_on_c, 9, 51, 0
4, 877440, Note_on_c, 9, 51, 68
4, 877767, Note_on_c, 9, 51, 0
4, 878400, Note_on_c, 9, 51, 96
4, 878618, Note_on_c, 9, 51, 0
4, 879520, Note_on_c, 9, 53, 55
4, 879658, Note_on_c, 9, 53, 0
4, 880320, Note_on_c, 9, 59, 88
4, 880480, Note_on_c, 9, 51, 54
4, 880640, Note_on_c, 9, 59, 0
4, 880858, Note_on_c, 9, 51, 0
4, 881440, Note_on_c, 9, 59, 79
4, 881440, Note_on_c, 9, 51, 61
4, 881625, Note_on_c, 9, 59, 0
4, 881766, Note_on_c, 9, 51, 0
4, 882240, Note_on_c, 9, 51, 79
4, 882240, Note_on_c, 9, 59, 88
4, 882486, Note_on_c, 9, 59, 0
4, 882730, Note_on_c, 9, 51, 0
4, 883040, Note_on_c, 9, 59, 75
4, 883155, Note_on_c, 9, 59, 0
4, 883520, Note_on_c, 9, 59, 69
4, 883706, Note_on_c, 9, 59, 0
4, 884160, Note_on_c, 9, 59, 89
4, 884160, Note_on_c, 9, 51, 72
4, 884407, Note_on_c, 9, 59, 0
4, 884505, Note_on_c, 9, 51, 0
4, 885120, Note_on_c, 9, 59, 81
4, 885254, Note_on_c, 9, 59, 0
4, 885280, Note_on_c, 9, 51, 42
4, 885423, Note_on_c, 9, 51, 0
4, 886080, Note_on_c, 9, 51, 80
4, 886080, Note_on_c, 9, 59, 87
4, 886234, Note_on_c, 9, 59, 0
4, 886387, Note_on_c, 9, 51, 0
4, 887040, Note_on_c, 9, 51, 84
4, 887255, Note_on_c, 9, 51, 0
4, 888000, Note_on_c, 9, 51, 87
4, 888221, Note_on_c, 9, 51, 0
4, 888640, Note_on_c, 9, 51, 67
4, 888749, Note_on_c, 9, 51, 0
4, 888960, Note_on_c, 9, 51, 75
4, 889254, Note_on_c, 9, 51, 0
4, 889920, Note_on_c, 9, 51, 97
4, 890218, Note_on_c, 9, 51, 0
4, 890880, Note_on_c, 9, 51, 76
4, 891251, Note_on_c, 9, 51, 0
4, 891840, Note_on_c, 9, 51, 94
4, 892083, Note_on_c, 9, 51, 0
4, 892480, Note_on_c, 9, 51, 101
4, 892691, Note_on_c, 9, 51, 0
4, 892800, Note_on_c, 9, 51, 84
4, 893062, Note_on_c, 9, 51, 0
4, 893920, Note_on_c, 9, 51, 103
4, 894182, Note_on_c, 9, 51, 0
4, 894880, Note_on_c, 9, 51, 87
4, 895069, Note_on_c, 9, 51, 0
4, 895360, Note_on_c, 9, 51, 82
4, 895472, Note_on_c, 9, 51, 0
4, 895680, Note_on_c, 9, 51, 82
4, 895923, Note_on_c, 9, 51, 0
4, 896800, Note_on_c, 9, 51, 97
4, 897030, Note_on_c, 9, 51, 0
4, 897600, Note_on_c, 9, 51, 82
4, 897946, Note_on_c, 9, 51, 0
4, 898560, Note_on_c, 9, 51, 89
4, 898874, Note_on_c, 9, 51, 0
4, 899520, Note_on_c, 9, 51, 86
4, 899859, Note_on_c, 9, 51, 0
4, 900480, Note_on_c, 9, 51, 69
4, 900864, Note_on_c, 9, 51, 0
4, 901440, Note_on_c, 9, 51, 74
4, 901699, Note_on_c, 9, 51, 0
4, 902080, Note_on_c, 9, 57, 103
4, 902288, Note_on_c, 9, 57, 0
4, 902560, Note_on_c, 9, 59, 90
4, 902870, Note_on_c, 9, 59, 0
4, 904160, Note_on_c, 9, 59, 100
4, 904336, Note_on_c, 9, 59, 0
4, 905600, Note_on_c, 9, 59, 118
4, 905744, Note_on_c, 9, 59, 0
4, 908480, Note_on_c, 9, 59, 98
4, 908749, Note_on_c, 9, 59, 0
4, 908960, Note_on_c, 9, 59, 92
4, 909203, Note_on_c, 9, 59, 0
4, 909280, Note_on_c, 9, 59, 91
4, 909497, Note_on_c, 9, 59, 0
4, 910240, Note_on_c, 9, 59, 111
4, 910403, Note_on_c, 9, 59, 0
4, 911680, Note_on_c, 9, 59, 88
4, 911799, Note_on_c, 9, 59, 0
4, 912160, Note_on_c, 9, 59, 96
4, 912394, Note_on_c, 9, 59, 0
4, 913120, Note_on_c, 9, 59, 120
4, 914288, Note_on_c, 9, 59, 0
4, 914560, Note_on_c, 9, 59, 62
4, 914688, Note_on_c, 9, 59, 0
4, 915040, Note_on_c, 9, 59, 76
4, 915242, Note_on_c, 9, 59, 0
4, 915520, Note_on_c, 9, 53, 105
4, 916287, Note_on_c, 9, 53, 0
4, 916800, Note_on_c, 9, 53, 95
4, 917709, Note_on_c, 9, 53, 0
4, 919680, Note_on_c, 9, 59, 81
4, 919898, Note_on_c, 9, 59, 0
4, 920320, Note_on_c, 9, 59, 79
4, 920451, Note_on_c, 9, 59, 0
4, 920640, Note_on_c, 9, 59, 86
4, 920876, Note_on_c, 9, 59, 0
4, 921600, Note_on_c, 9, 59, 114
4, 921878, Note_on_c, 9, 59, 0
4, 924480, Note_on_c, 9, 59, 102
4, 924867, Note_on_c, 9, 59, 0
4, 927040, Note_on_c, 9, 59, 83
4, 927187, Note_on_c, 9, 59, 0
4, 927520, Note_on_c, 9, 59, 100
4, 928131, Note_on_c, 9, 59, 0
4, 929280, Note_on_c, 9, 59, 97
4, 929523, Note_on_c, 9, 59, 0
4, 931680, Note_on_c, 9, 59, 89
4, 931897, Note_on_c, 9, 59, 0
4, 932160, Note_on_c, 9, 53, 97
4, 933082, Note_on_c, 9, 53, 0
4, 933120, Note_on_c, 9, 51, 75
4, 933491, Note_on_c, 9, 51, 0
4, 934240, Note_on_c, 9, 51, 74
4, 934356, Note_on_c, 9, 51, 0
4, 935680, Note_on_c, 9, 51, 87
4, 935898, Note_on_c, 9, 51, 0
4, 936160, Note_on_c, 9, 51, 89
4, 936378, Note_on_c, 9, 51, 0
4, 936960, Note_on_c, 9, 51, 100
4, 937382, Note_on_c, 9, 51, 0
4, 938560, Note_on_c, 9, 51, 64
4, 938682, Note_on_c, 9, 51, 0
4, 938880, Note_on_c, 9, 51, 77
4, 939164, Note_on_c, 9, 51, 0
4, 939840, Note_on_c, 9, 51, 97
4, 940131, Note_on_c, 9, 51, 0
4, 941920, Note_on_c, 9, 51, 89
4, 942160, Note_on_c, 9, 51, 0
4, 944480, Note_on_c, 9, 51, 67
4, 944653, Note_on_c, 9, 51, 0
4, 944800, Note_on_c, 9, 51, 79
4, 945014, Note_on_c, 9, 51, 0
4, 946720, Note_on_c, 9, 51, 92
4, 946922, Note_on_c, 9, 51, 0
4, 947520, Note_on_c, 9, 51, 97
4, 947792, Note_on_c, 9, 51, 0
4, 948480, Note_on_c, 9, 51, 79
4, 948704, Note_on_c, 9, 51, 0
4, 949440, Note_on_c, 9, 51, 95
4, 949734, Note_on_c, 9, 51, 0
4, 950560, Note_on_c, 9, 51, 79
4, 950803, Note_on_c, 9, 51, 0
4, 954720, Note_on_c, 9, 51, 70
4, 954720, Note_on_c, 9, 53, 41
4, 954829, Note_on_c, 9, 53, 0
4, 954874, Note_on_c, 9, 51, 0
4, 957280, Note_on_c, 9, 51, 77
4, 957280, Note_on_c, 9, 53, 92
4, 957574, Note_on_c, 9, 53, 0
4, 957680, Note_on_c, 9, 51, 0
4, 959200, Note_on_c, 9, 53, 95
4, 959200, Note_on_c, 9, 51, 72
4, 959399, Note_on_c, 9, 53, 0
4, 959536, Note_on_c, 9, 51, 0
4, 961120, Note_on_c, 9, 51, 79
4, 961120, Note_on_c, 9, 53, 91
4, 961302, Note_on_c, 9, 53, 0
4, 961433, Note_on_c, 9, 51, 0
4, 962880, Note_on_c, 9, 51, 87
4, 963040, Note_on_c, 9, 53, 84
4, 963245, Note_on_c, 9, 51, 0
4, 963289, Note_on_c, 9, 53, 0
4, 963840, Note_on_c, 9, 59, 102
4, 964000, Note_on_c, 9, 57, 72
4, 964111, Note_on_c, 9, 57, 0
4, 964157, Note_on_c, 9, 59, 0
4, 966720, Note_on_c, 9, 59, 106
4, 966950, Note_on_c, 9, 59, 0
4, 968640, Note_on_c, 9, 57, 97
4, 968640, Note_on_c, 9, 59, 84
4, 968765, Note_on_c, 9, 59, 0
4, 968848, Note_on_c, 9, 57, 0
4, 973600, Note_on_c, 9, 59, 80
4, 973708, Note_on_c, 9, 59, 0
4, 974400, Note_on_c, 9, 59, 99
4, 974617, Note_on_c, 9, 59, 0
4, 976000, Note_on_c, 9, 59, 79
4, 976109, Note_on_c, 9, 59, 0
4, 976320, Note_on_c, 9, 59, 81
4, 976542, Note_on_c, 9, 59, 0
4, 977280, Note_on_c, 9, 59, 102
4, 977488, Note_on_c, 9, 59, 0
4, 978720, Note_on_c, 9, 59, 80
4, 978839, Note_on_c, 9, 59, 0
4, 979200, Note_on_c, 9, 59, 85
4, 979446, Note_on_c, 9, 59, 0
4, 980160, Note_on_c, 9, 59, 103
4, 980375, Note_on_c, 9, 59, 0
4, 981120, Note_on_c, 9, 59, 110
4, 981408, Note_on_c, 9, 59, 0
4, 982720, Note_on_c, 9, 59, 66
4, 982835, Note_on_c, 9, 59, 0
4, 983200, Note_on_c, 9, 59, 85
4, 983434, Note_on_c, 9, 59, 0
4, 983680, Note_on_c, 9, 59, 99
4, 983907, Note_on_c, 9, 59, 0
4, 985120, Note_on_c, 9, 59, 92
4, 985280, Note_on_c, 9, 59, 0
4, 987040, Note_on_c, 9, 59, 95
4, 987270, Note_on_c, 9, 59, 0
4, 987520, Note_on_c, 9, 59, 85
4, 987626, Note_on_c, 9, 59, 0
4, 988800, Note_on_c, 9, 59, 98
4, 989008, Note_on_c, 9, 59, 0
4, 991680, Note_on_c, 9, 59, 95
4, 991901, Note_on_c, 9, 59, 0
4, 993280, Note_on_c, 9, 59, 89
4, 993482, Note_on_c, 9, 59, 0
4, 993760, Note_on_c, 9, 59, 89
4, 993891, Note_on_c, 9, 59, 0
4, 994720, Note_on_c, 9, 59, 104
4, 994932, Note_on_c, 9, 59, 0
4, 995520, Note_on_c, 9, 59, 106
4, 995744, Note_on_c, 9, 59, 0
4, 996480, Note_on_c, 9, 59, 111
4, 996710, Note_on_c, 9, 59, 0
4, 998080, Note_on_c, 9, 59, 75
4, 998189, Note_on_c, 9, 59, 0
4, 998560, Note_on_c, 9, 59, 92
4, 998794, Note_on_c, 9, 59, 0
4, 999520, Note_on_c, 9, 59, 110
4, 999718, Note_on_c, 9, 59, 0
4, 1001280, Note_on_c, 9, 51, 89
4, 1001753, Note_on_c, 9, 51, 0
4, 1004160, Note_on_c, 9, 59, 94
4, 1004266, Note_on_c, 9, 59, 0
4, 1005120, Note_on_c, 9, 59, 98
4, 1005309, Note_on_c, 9, 59, 0
4, 1006080, Note_on_c, 9, 59, 94
4, 1006188, Note_on_c, 9, 59, 0
4, 1007040, Note_on_c, 9, 51, 84
4, 1007040, Note_on_c, 9, 46, 72
4, 1007478, Note_on_c, 9, 51, 0
4, 1007571, Note_on_c, 9, 46, 0
4, 1008960, Note_on_c, 9, 59, 96
4, 1009188, Note_on_c, 9, 59, 0
4, 1009920, Note_on_c, 9, 59, 96
4, 1010103, Note_on_c, 9, 59, 0
4, 1011840, Note_on_c, 9, 59, 97
4, 1011984, Note_on_c, 9, 59, 0
4, 1013920, Note_on_c, 9, 59, 93
4, 1014028, Note_on_c, 9, 59, 0
4, 1014720, Note_on_c, 9, 59, 92
4, 1014829, Note_on_c, 9, 59, 0
4, 1015680, Note_on_c, 9, 53, 91
4, 1015680, Note_on_c, 9, 51, 71
4, 1015917, Note_on_c, 9, 53, 0
4, 1015997, Note_on_c, 9, 51, 0
4, 1018720, Note_on_c, 9, 59, 95
4, 1018828, Note_on_c, 9, 59, 0
4, 1019520, Note_on_c, 9, 51, 86
4, 1019680, Note_on_c, 9, 53, 86
4, 1019760, Note_on_c, 9, 51, 0
4, 1019862, Note_on_c, 9, 53, 0
4, 1020480, Note_on_c, 9, 51, 89
4, 1020640, Note_on_c, 9, 53, 88
4, 1020838, Note_on_c, 9, 51, 0
4, 1020886, Note_on_c, 9, 53, 0
4, 1022720, Note_on_c, 9, 59, 99
4, 1022931, Note_on_c, 9, 59, 0
4, 1024000, Note_on_c, 9, 59, 84
4, 1024128, Note_on_c, 9, 59, 0
4, 1024480, Note_on_c, 9, 59, 60
4, 1024605, Note_on_c, 9, 59, 0
4, 1025440, Note_on_c, 9, 59, 103
4, 1025642, Note_on_c, 9, 59, 0
4, 1026880, Note_on_c, 9, 59, 83
4, 1026989, Note_on_c, 9, 59, 0
4, 1027200, Note_on_c, 9, 59, 92
4, 1027411, Note_on_c, 9, 59, 0
4, 1028160, Note_on_c, 9, 59, 106
4, 1028358, Note_on_c, 9, 59, 0
4, 1029760, Note_on_c, 9, 59, 81
4, 1029897, Note_on_c, 9, 59, 0
4, 1030240, Note_on_c, 9, 59, 90
4, 1030349, Note_on_c, 9, 59, 0
4, 1031200, Note_on_c, 9, 59, 102
4, 1031408, Note_on_c, 9, 59, 0
4, 1032640, Note_on_c, 9, 57, 87
4, 1032752, Note_on_c, 9, 57, 0
4, 1032752, End_track
5, 0, Start_track
5, 0, Title_t, "Pedal HiHat"
5, 0, Control_c, 9, 7, 96
5, 411840, Note_on_c, 9, 44, 37
5, 412234, Note_on_c, 9, 44, 0
5, 419680, Note_on_c, 9, 44, 46
5, 420039, Note_on_c, 9, 44, 0
5, 421600, Note_on_c, 9, 44, 37
5, 421997, Note_on_c, 9, 44, 0
5, 425440, Note_on_c, 9, 44, 38
5, 425766, Note_on_c, 9, 44, 0
5, 427360, Note_on_c, 9, 44, 33
5, 427808, Note_on_c, 9, 44, 0
5, 431200, Note_on_c, 9, 46, 35
5, 431350, Note_on_c, 9, 46, 0
5, 436800, Note_on_c, 9, 44, 26
5, 436944, Note_on_c, 9, 44, 0
5, 440160, Note_on_c, 9, 44, 28
5, 440420, Note_on_c, 9, 44, 0
5, 440640, Note_on_c, 9, 44, 14
5, 440794, Note_on_c, 9, 44, 0
5, 444480, Note_on_c, 9, 44, 43
5, 444672, Note_on_c, 9, 44, 0
5, 448320, Note_on_c, 9, 44, 47
5, 448477, Note_on_c, 9, 44, 0
5, 450400, Note_on_c, 9, 44, 38
5, 450611, Note_on_c, 9, 44, 0
5, 451360, Note_on_c, 9, 44, 29
5, 451661, Note_on_c, 9, 44, 0
5, 458560, Note_on_c, 9, 44, 27
5, 458803, Note_on_c, 9, 44, 0
5, 459040, Note_on_c, 9, 44, 22
5, 459200, Note_on_c, 9, 44, 0
5, 462080, Note_on_c, 9, 44, 23
5, 462249, Note_on_c, 9, 44, 0
5, 465760, Note_on_c, 9, 44, 29
5, 465926, Note_on_c, 9, 44, 0
5, 467680, Note_on_c, 9, 44, 45
5, 467904, Note_on_c, 9, 44, 0
5, 469600, Note_on_c, 9, 44, 36
5, 469744, Note_on_c, 9, 44, 0
5, 471520, Note_on_c, 9, 46, 33
5, 471667, Note_on_c, 9, 46, 0
5, 473440, Note_on_c, 9, 44, 35
5, 473587, Note_on_c, 9, 44, 0
5, 475200, Note_on_c, 9, 44, 36
5, 475385, Note_on_c, 9, 44, 0
5, 483040, Note_on_c, 9, 44, 24
5, 483590, Note_on_c, 9, 44, 0
5, 485760, Note_on_c, 9, 44, 27
5, 485932, Note_on_c, 9, 44, 0
5, 486560, Note_on_c, 9, 44, 34
5, 487014, Note_on_c, 9, 44, 0
5, 488480, Note_on_c, 9, 44, 37
5, 488765, Note_on_c, 9, 44, 0
5, 489600, Note_on_c, 9, 44, 34
5, 490016, Note_on_c, 9, 44, 0
5, 491520, Note_on_c, 9, 44, 37
5, 491859, Note_on_c, 9, 44, 0
5, 494400, Note_on_c, 9, 44, 38
5, 494777, Note_on_c, 9, 44, 0
5, 497280, Note_on_c, 9, 44, 36
5, 497594, Note_on_c, 9, 44, 0
5, 498240, Note_on_c, 9, 44, 33
5, 498669, Note_on_c, 9, 44, 0
5, 500320, Note_on_c, 9, 44, 38
5, 500623, Note_on_c, 9, 44, 0
5, 502080, Note_on_c, 9, 44, 33
5, 502404, Note_on_c, 9, 44, 0
5, 505920, Note_on_c, 9, 44, 26
5, 506336, Note_on_c, 9, 44, 0
5, 513600, Note_on_c, 9, 44, 40
5, 513997, Note_on_c, 9, 44, 0
5, 517440, Note_on_c, 9, 44, 46
5, 517767, Note_on_c, 9, 44, 0
5, 521280, Note_on_c, 9, 44, 40
5, 521677, Note_on_c, 9, 44, 0
5, 525280, Note_on_c, 9, 44, 43
5, 525674, Note_on_c, 9, 44, 0
5, 529120, Note_on_c, 9, 44, 39
5, 529427, Note_on_c, 9, 44, 0
5, 532800, Note_on_c, 9, 44, 39
5, 533101, Note_on_c, 9, 44, 0
5, 533760, Note_on_c, 9, 44, 39
5, 534262, Note_on_c, 9, 44, 0
5, 540480, Note_on_c, 9, 46, 33
5, 540695, Note_on_c, 9, 46, 0
5, 544320, Note_on_c, 9, 44, 25
5, 544557, Note_on_c, 9, 44, 0
5, 546240, Note_on_c, 9, 44, 26
5, 546582, Note_on_c, 9, 44, 0
5, 548160, Note_on_c, 9, 44, 31
5, 548535, Note_on_c, 9, 44, 0
5, 551840, Note_on_c, 9, 44, 24
5, 552214, Note_on_c, 9, 44, 0
5, 553920, Note_on_c, 9, 44, 44
5, 554256, Note_on_c, 9, 44, 0
5, 559680, Note_on_c, 9, 44, 39
5, 560106, Note_on_c, 9, 44, 0
5, 561600, Note_on_c, 9, 44, 36
5, 562090, Note_on_c, 9, 44, 0
5, 567520, Note_on_c, 9, 44, 52
5, 567958, Note_on_c, 9, 44, 0
5, 569280, Note_on_c, 9, 44, 52
5, 569751, Note_on_c, 9, 44, 0
5, 576960, Note_on_c, 9, 44, 41
5, 577405, Note_on_c, 9, 44, 0
5, 578880, Note_on_c, 9, 44, 42
5, 579309, Note_on_c, 9, 44, 0
5, 586560, Note_on_c, 9, 44, 36
5, 586995, Note_on_c, 9, 44, 0
5, 594240, Note_on_c, 9, 44, 39
5, 594601, Note_on_c, 9, 44, 0
5, 596160, Note_on_c, 9, 44, 34
5, 596515, Note_on_c, 9, 44, 0
5, 597120, Note_on_c, 9, 44, 40
5, 597689, Note_on_c, 9, 44, 0
5, 606400, Note_on_c, 9, 44, 16
5, 606525, Note_on_c, 9, 44, 0
5, 606720, Note_on_c, 9, 44, 28
5, 606999, Note_on_c, 9, 44, 0
5, 608320, Note_on_c, 9, 44, 20
5, 608467, Note_on_c, 9, 44, 0
5, 608640, Note_on_c, 9, 44, 25
5, 608995, Note_on_c, 9, 44, 0
5, 610080, Note_on_c, 9, 44, 27
5, 610253, Note_on_c, 9, 44, 0
5, 610400, Note_on_c, 9, 44, 24
5, 610701, Note_on_c, 9, 44, 0
5, 612000, Note_on_c, 9, 44, 23
5, 612212, Note_on_c, 9, 44, 0
5, 612320, Note_on_c, 9, 44, 19
5, 612486, Note_on_c, 9, 44, 0
5, 613280, Note_on_c, 9, 44, 37
5, 613657, Note_on_c, 9, 44, 0
5, 614240, Note_on_c, 9, 44, 43
5, 614688, Note_on_c, 9, 44, 0
5, 616960, Note_on_c, 9, 44, 43
5, 617296, Note_on_c, 9, 44, 0
5, 618080, Note_on_c, 9, 44, 37
5, 618496, Note_on_c, 9, 44, 0
5, 622720, Note_on_c, 9, 44, 50
5, 622890, Note_on_c, 9, 44, 0
5, 624000, Note_on_c, 9, 44, 61
5, 624211, Note_on_c, 9, 44, 0
5, 625600, Note_on_c, 9, 44, 50
5, 625709, Note_on_c, 9, 44, 0
5, 626080, Note_on_c, 9, 44, 37
5, 626237, Note_on_c, 9, 44, 0
5, 628800, Note_on_c, 9, 44, 36
5, 629113, Note_on_c, 9, 44, 0
5, 630880, Note_on_c, 9, 44, 27
5, 631207, Note_on_c, 9, 44, 0
5, 632800, Note_on_c, 9, 44, 18
5, 633117, Note_on_c, 9, 44, 0
5, 634560, Note_on_c, 9, 44, 26
5, 634880, Note_on_c, 9, 44, 0
5, 636480, Note_on_c, 9, 44, 35
5, 636806, Note_on_c, 9, 44, 0
5, 638400, Note_on_c, 9, 44, 24
5, 638710, Note_on_c, 9, 44, 0
5, 640320, Note_on_c, 9, 44, 24
5, 640652, Note_on_c, 9, 44, 0
5, 642240, Note_on_c, 9, 44, 35
5, 642544, Note_on_c, 9, 44, 0
5, 644000, Note_on_c, 9, 44, 28
5, 644359, Note_on_c, 9, 44, 0
5, 647840, Note_on_c, 9, 44, 35
5, 648176, Note_on_c, 9, 44, 0
5, 651840, Note_on_c, 9, 44, 34
5, 652109, Note_on_c, 9, 44, 0
5, 655680, Note_on_c, 9, 46, 30
5, 655885, Note_on_c, 9, 46, 0
5, 659520, Note_on_c, 9, 46, 43
5, 659776, Note_on_c, 9, 46, 0
5, 665440, Note_on_c, 9, 44, 28
5, 665661, Note_on_c, 9, 44, 0
5, 667360, Note_on_c, 9, 44, 24
5, 667830, Note_on_c, 9, 44, 0
5, 668392, Control_c, 9, 64, 127
5, 668491, Control_c, 9, 64, 0
5, 671200, Note_on_c, 9, 44, 31
5, 671315, Note_on_c, 9, 44, 0
5, 673120, Note_on_c, 9, 44, 18
5, 673245, Note_on_c, 9, 44, 0
5, 674560, Note_on_c, 9, 44, 23
5, 674695, Note_on_c, 9, 44, 0
5, 674880, Note_on_c, 9, 44, 25
5, 675001, Note_on_c, 9, 44, 0
5, 676800, Note_on_c, 9, 44, 42
5, 676957, Note_on_c, 9, 44, 0
5, 678720, Note_on_c, 9, 44, 27
5, 678848, Note_on_c, 9, 44, 0
5, 682560, Note_on_c, 9, 44, 40
5, 682957, Note_on_c, 9, 44, 0
5, 686400, Note_on_c, 9, 44, 50
5, 686804, Note_on_c, 9, 44, 0
5, 690080, Note_on_c, 9, 44, 37
5, 690544, Note_on_c, 9, 44, 0
5, 692160, Note_on_c, 9, 44, 39
5, 692544, Note_on_c, 9, 44, 0
5, 696000, Note_on_c, 9, 44, 44
5, 696304, Note_on_c, 9, 44, 0
5, 696960, Note_on_c, 9, 42, 30
5, 697283, Note_on_c, 9, 42, 0
5, 699840, Note_on_c, 9, 44, 41
5, 700125, Note_on_c, 9, 44, 0
5, 701440, Note_on_c, 9, 44, 41
5, 701692, Note_on_c, 9, 44, 0
5, 702880, Note_on_c, 9, 44, 46
5, 703159, Note_on_c, 9, 44, 0
5, 705600, Note_on_c, 9, 44, 40
5, 705952, Note_on_c, 9, 44, 0
5, 709600, Note_on_c, 9, 44, 29
5, 709884, Note_on_c, 9, 44, 0
5, 711520, Note_on_c, 9, 44, 31
5, 711818, Note_on_c, 9, 44, 0
5, 712480, Note_on_c, 9, 44, 33
5, 712919, Note_on_c, 9, 44, 0
5, 719040, Note_on_c, 9, 44, 31
5, 719389, Note_on_c, 9, 44, 0
5, 720960, Note_on_c, 9, 44, 31
5, 721344, Note_on_c, 9, 44, 0
5, 726720, Note_on_c, 9, 44, 41
5, 727117, Note_on_c, 9, 44, 0
5, 728640, Note_on_c, 9, 44, 35
5, 729018, Note_on_c, 9, 44, 0
5, 732480, Note_on_c, 9, 44, 28
5, 732861, Note_on_c, 9, 44, 0
5, 738240, Note_on_c, 9, 44, 42
5, 738624, Note_on_c, 9, 44, 0
5, 742080, Note_on_c, 9, 44, 41
5, 742540, Note_on_c, 9, 44, 0
5, 744000, Note_on_c, 9, 44, 54
5, 744439, Note_on_c, 9, 44, 0
5, 745920, Note_on_c, 9, 44, 42
5, 746316, Note_on_c, 9, 44, 0
5, 749760, Note_on_c, 9, 44, 42
5, 750179, Note_on_c, 9, 44, 0
5, 753440, Note_on_c, 9, 44, 40
5, 753847, Note_on_c, 9, 44, 0
5, 761920, Note_on_c, 9, 44, 44
5, 761920, Note_on_c, 9, 44, 0
5, 761920, Note_on_c, 9, 44, 51
5, 761959, Note_on_c, 9, 44, 0
5, 768000, Note_on_c, 9, 44, 39
5, 768352, Note_on_c, 9, 44, 0
5, 773920, Note_on_c, 9, 44, 40
5, 774311, Note_on_c, 9, 44, 0
5, 777920, Note_on_c, 9, 44, 27
5, 778256, Note_on_c, 9, 44, 0
5, 779840, Note_on_c, 9, 44, 29
5, 780087, Note_on_c, 9, 44, 0
5, 783520, Note_on_c, 9, 44, 28
5, 783805, Note_on_c, 9, 44, 0
5, 787040, Note_on_c, 9, 44, 39
5, 787386, Note_on_c, 9, 44, 0
5, 789120, Note_on_c, 9, 44, 26
5, 789500, Note_on_c, 9, 44, 0
5, 791040, Note_on_c, 9, 44, 33
5, 791373, Note_on_c, 9, 44, 0
5, 792960, Note_on_c, 9, 44, 24
5, 792960, Note_on_c, 9, 37, 20
5, 793223, Note_on_c, 9, 37, 0
5, 793338, Note_on_c, 9, 44, 0
5, 794880, Note_on_c, 9, 44, 23
5, 794880, Note_on_c, 9, 37, 26
5, 795168, Note_on_c, 9, 37, 0
5, 795216, Note_on_c, 9, 44, 0
5, 796960, Note_on_c, 9, 44, 30
5, 797277, Note_on_c, 9, 44, 0
5, 798880, Note_on_c, 9, 44, 30
5, 799296, Note_on_c, 9, 44, 0
5, 802560, Note_on_c, 9, 44, 39
5, 802979, Note_on_c, 9, 44, 0
5, 806560, Note_on_c, 9, 44, 28
5, 806841, Note_on_c, 9, 44, 0
5, 810240, Note_on_c, 9, 44, 47
5, 810580, Note_on_c, 9, 44, 0
5, 812160, Note_on_c, 9, 44, 36
5, 812451, Note_on_c, 9, 44, 0
5, 816160, Note_on_c, 9, 44, 23
5, 816403, Note_on_c, 9, 44, 0
5, 818080, Note_on_c, 9, 44, 28
5, 818403, Note_on_c, 9, 44, 0
5, 820000, Note_on_c, 9, 44, 53
5, 820339, Note_on_c, 9, 44, 0
5, 821920, Note_on_c, 9, 44, 47
5, 822253, Note_on_c, 9, 44, 0
5, 823840, Note_on_c, 9, 44, 45
5, 824195, Note_on_c, 9, 44, 0
5, 825600, Note_on_c, 9, 44, 41
5, 825965, Note_on_c, 9, 44, 0
5, 827520, Note_on_c, 9, 44, 38
5, 827831, Note_on_c, 9, 44, 0
5, 829440, Note_on_c, 9, 44, 38
5, 829786, Note_on_c, 9, 44, 0
5, 833280, Note_on_c, 9, 44, 20
5, 833786, Note_on_c, 9, 44, 0
5, 835200, Note_on_c, 9, 44, 39
5, 835510, Note_on_c, 9, 44, 0
5, 837120, Note_on_c, 9, 46, 25
5, 837366, Note_on_c, 9, 46, 0
5, 839200, Note_on_c, 9, 46, 31
5, 839436, Note_on_c, 9, 46, 0
5, 840960, Note_on_c, 9, 46, 33
5, 841235, Note_on_c, 9, 46, 0
5, 842880, Note_on_c, 9, 44, 31
5, 843181, Note_on_c, 9, 44, 0
5, 846720, Note_on_c, 9, 44, 29
5, 847053, Note_on_c, 9, 44, 0
5, 848640, Note_on_c, 9, 44, 28
5, 848957, Note_on_c, 9, 44, 0
5, 852480, Note_on_c, 9, 44, 41
5, 852752, Note_on_c, 9, 44, 0
5, 854400, Note_on_c, 9, 44, 30
5, 854745, Note_on_c, 9, 44, 0
5, 856320, Note_on_c, 9, 44, 26
5, 856675, Note_on_c, 9, 44, 0
5, 860160, Note_on_c, 9, 44, 29
5, 860413, Note_on_c, 9, 44, 0
5, 865920, Note_on_c, 9, 44, 47
5, 866202, Note_on_c, 9, 44, 0
5, 867840, Note_on_c, 9, 44, 29
5, 868189, Note_on_c, 9, 44, 0
5, 869920, Note_on_c, 9, 44, 47
5, 870275, Note_on_c, 9, 44, 0
5, 871840, Note_on_c, 9, 44, 42
5, 872186, Note_on_c, 9, 44, 0
5, 875680, Note_on_c, 9, 44, 31
5, 876029, Note_on_c, 9, 44, 0
5, 879360, Note_on_c, 9, 46, 24
5, 879546, Note_on_c, 9, 46, 0
5, 881280, Note_on_c, 9, 44, 41
5, 881657, Note_on_c, 9, 44, 0
5, 883200, Note_on_c, 9, 44, 37
5, 883504, Note_on_c, 9, 44, 0
5, 885280, Note_on_c, 9, 46, 30
5, 885520, Note_on_c, 9, 46, 0
5, 889120, Note_on_c, 9, 46, 30
5, 889392, Note_on_c, 9, 46, 0
5, 892800, Note_on_c, 9, 46, 58
5, 893219, Note_on_c, 9, 46, 0
5, 896640, Note_on_c, 9, 46, 46
5, 896963, Note_on_c, 9, 46, 0
5, 900480, Note_on_c, 9, 44, 39
5, 900752, Note_on_c, 9, 44, 0
5, 902400, Note_on_c, 9, 46, 46
5, 902612, Note_on_c, 9, 46, 0
5, 903360, Note_on_c, 9, 44, 37
5, 903754, Note_on_c, 9, 44, 0
5, 911200, Note_on_c, 9, 44, 46
5, 911559, Note_on_c, 9, 44, 0
5, 913120, Note_on_c, 9, 44, 37
5, 913517, Note_on_c, 9, 44, 0
5, 916960, Note_on_c, 9, 44, 38
5, 917286, Note_on_c, 9, 44, 0
5, 918880, Note_on_c, 9, 44, 33
5, 919328, Note_on_c, 9, 44, 0
5, 922720, Note_on_c, 9, 46, 35
5, 922870, Note_on_c, 9, 46, 0
5, 928320, Note_on_c, 9, 44, 26
5, 928464, Note_on_c, 9, 44, 0
5, 931680, Note_on_c, 9, 44, 28
5, 931940, Note_on_c, 9, 44, 0
5, 932160, Note_on_c, 9, 44, 14
5, 932314, Note_on_c, 9, 44, 0
5, 936000, Note_on_c, 9, 44, 43
5, 936192, Note_on_c, 9, 44, 0
5, 939840, Note_on_c, 9, 44, 47
5, 939997, Note_on_c, 9, 44, 0
5, 941920, Note_on_c, 9, 44, 38
5, 942131, Note_on_c, 9, 44, 0
5, 942880, Note_on_c, 9, 44, 29
5, 943181, Note_on_c, 9, 44, 0
5, 950080, Note_on_c, 9, 44, 27
5, 950323, Note_on_c, 9, 44, 0
5, 950560, Note_on_c, 9, 44, 22
5, 950720, Note_on_c, 9, 44, 0
5, 953600, Note_on_c, 9, 44, 23
5, 953769, Note_on_c, 9, 44, 0
5, 957280, Note_on_c, 9, 44, 29
5, 957446, Note_on_c, 9, 44, 0
5, 959200, Note_on_c, 9, 44, 45
5, 959424, Note_on_c, 9, 44, 0
5, 961120, Note_on_c, 9, 44, 36
5, 961264, Note_on_c, 9, 44, 0
5, 963040, Note_on_c, 9, 46, 33
5, 963187, Note_on_c, 9, 46, 0
5, 964960, Note_on_c, 9, 44, 35
5, 965107, Note_on_c, 9, 44, 0
5, 966720, Note_on_c, 9, 44, 36
5, 966905, Note_on_c, 9, 44, 0
5, 974560, Note_on_c, 9, 44, 24
5, 975110, Note_on_c, 9, 44, 0
5, 977280, Note_on_c, 9, 44, 27
5, 977452, Note_on_c, 9, 44, 0
5, 978080, Note_on_c, 9, 44, 34
5, 978534, Note_on_c, 9, 44, 0
5, 980000, Note_on_c, 9, 44, 37
5, 980285, Note_on_c, 9, 44, 0
5, 981120, Note_on_c, 9, 44, 34
5, 981536, Note_on_c, 9, 44, 0
5, 983040, Note_on_c, 9, 44, 37
5, 983379, Note_on_c, 9, 44, 0
5, 985920, Note_on_c, 9, 44, 38
5, 986297, Note_on_c, 9, 44, 0
5, 988800, Note_on_c, 9, 44, 36
5, 989114, Note_on_c, 9, 44, 0
5, 989760, Note_on_c, 9, 44, 33
5, 990189, Note_on_c, 9, 44, 0
5, 991840, Note_on_c, 9, 44, 38
5, 992143, Note_on_c, 9, 44, 0
5, 993600, Note_on_c, 9, 44, 33
5, 993924, Note_on_c, 9, 44, 0
5, 997440, Note_on_c, 9, 44, 26
5, 997856, Note_on_c, 9, 44, 0
5, 1005120, Note_on_c, 9, 44, 40
5, 1005517, Note_on_c, 9, 44, 0
5, 1008960, Note_on_c, 9, 44, 46
5, 1009287, Note_on_c, 9, 44, 0
5, 1012800, Note_on_c, 9, 44, 40
5, 1013197, Note_on_c, 9, 44, 0
5, 1016800, Note_on_c, 9, 44, 43
5, 1017194, Note_on_c, 9, 44, 0
5, 1020640, Note_on_c, 9, 44, 39
5, 1020947, Note_on_c, 9, 44, 0
5, 1024320, Note_on_c, 9, 44, 39
5, 1024621, Note_on_c, 9, 44, 0
5, 1025280, Note_on_c, 9, 44, 39
5, 1025782, Note_on_c, 9, 44, 0
5, 1032000, Note_on_c, 9, 46, 33
5, 1032215, Note_on_c, 9, 46, 0
5, 1032215, End_track
6, 0, Start_track
6, 0, Title_t, "Drum Hits"
6, 0, Control_c, 9, 7, 83
6, 412480, Note_on_c, 9, 36, 57
6, 412562, Note_on_c, 9, 36, 0
6, 429280, Note_on_c, 9, 37, 70
6, 429465, Note_on_c, 9, 37, 0
6, 436800, Note_on_c, 9, 38, 52
6, 436896, Note_on_c, 9, 38, 0
6, 437760, Note_on_c, 9, 38, 57
6, 438000, Note_on_c, 9, 38, 0
6, 438240, Note_on_c, 9, 38, 60
6, 438351, Note_on_c, 9, 38, 0
6, 440640, Note_on_c, 9, 38, 52
6, 441067, Note_on_c, 9, 38, 0
6, 441280, Note_on_c, 9, 36, 60
6, 441280, Note_on_c, 9, 57, 63
6, 441361, Note_on_c, 9, 57, 0
6, 441566, Note_on_c, 9, 36, 0
6, 444160, Note_on_c, 9, 38, 58
6, 444386, Note_on_c, 9, 38, 0
6, 444480, Note_on_c, 9, 36, 66
6, 444480, Note_on_c, 9, 57, 67
6, 444562, Note_on_c, 9, 57, 0
6, 444895, Note_on_c, 9, 36, 0
6, 455200, Note_on_c, 9, 38, 57
6, 455310, Note_on_c, 9, 38, 0
6, 456320, Note_on_c, 9, 38, 48
6, 456413, Note_on_c, 9, 38, 0
6, 459680, Note_on_c, 9, 38, 32
6, 459776, Note_on_c, 9, 38, 0
6, 460640, Note_on_c, 9, 38, 54
6, 460729, Note_on_c, 9, 38, 0
6, 467520, Note_on_c, 9, 38, 41
6, 467632, Note_on_c, 9, 38, 0
6, 468160, Note_on_c, 9, 38, 57
6, 468318, Note_on_c, 9, 38, 0
6, 469440, Note_on_c, 9, 38, 40
6, 469702, Note_on_c, 9, 38, 0
6, 470560, Note_on_c, 9, 38, 34
6, 470831, Note_on_c, 9, 38, 0
6, 471040, Note_on_c, 9, 38, 60
6, 471129, Note_on_c, 9, 38, 0
6, 471360, Note_on_c, 9, 36, 48
6, 471624, Note_on_c, 9, 36, 0
6, 472320, Note_on_c, 9, 36, 45
6, 472675, Note_on_c, 9, 36, 0
6, 476960, Note_on_c, 9, 38, 70
6, 477059, Note_on_c, 9, 38, 0
6, 478080, Note_on_c, 9, 38, 91
6, 478354, Note_on_c, 9, 38, 0
6, 478560, Note_on_c, 9, 38, 61
6, 478778, Note_on_c, 9, 38, 0
6, 479040, Note_on_c, 9, 38, 40
6, 479258, Note_on_c, 9, 38, 0
6, 484800, Note_on_c, 9, 47, 70
6, 484913, Note_on_c, 9, 47, 0
6, 486400, Note_on_c, 9, 45, 78
6, 486671, Note_on_c, 9, 45, 0
6, 487360, Note_on_c, 9, 38, 51
6, 487523, Note_on_c, 9, 38, 0
6, 487680, Note_on_c, 9, 38, 72
6, 488252, Note_on_c, 9, 38, 0
6, 490080, Note_on_c, 9, 47, 56
6, 490161, Note_on_c, 9, 47, 0
6, 490240, Note_on_c, 9, 38, 50
6, 491039, Note_on_c, 9, 38, 0
6, 491520, Note_on_c, 9, 36, 37
6, 491738, Note_on_c, 9, 36, 0
6, 492320, Note_on_c, 9, 36, 47
6, 492630, Note_on_c, 9, 36, 0
6, 497280, Note_on_c, 9, 45, 56
6, 497573, Note_on_c, 9, 45, 0
6, 500160, Note_on_c, 9, 43, 69
6, 500367, Note_on_c, 9, 43, 0
6, 501760, Note_on_c, 9, 38, 79
6, 501949, Note_on_c, 9, 38, 0
6, 502720, Note_on_c, 9, 38, 61
6, 502802, Note_on_c, 9, 38, 0
6, 503040, Note_on_c, 9, 69, 76
6, 503040, Note_on_c, 9, 36, 81
6, 503287, Note_on_c, 9, 69, 0
6, 503613, Note_on_c, 9, 36, 0
6, 511680, Note_on_c, 9, 45, 34
6, 511800, Note_on_c, 9, 45, 0
6, 512640, Note_on_c, 9, 45, 63
6, 512954, Note_on_c, 9, 45, 0
6, 513120, Note_on_c, 9, 45, 43
6, 513223, Note_on_c, 9, 45, 0
6, 514240, Note_on_c, 9, 43, 55
6, 514391, Note_on_c, 9, 43, 0
6, 515200, Note_on_c, 9, 43, 62
6, 515457, Note_on_c, 9, 43, 0
6, 516160, Note_on_c, 9, 38, 60
6, 516415, Note_on_c, 9, 38, 0
6, 517120, Note_on_c, 9, 38, 70
6, 517353, Note_on_c, 9, 38, 0
6, 517920, Note_on_c, 9, 38, 52
6, 518052, Note_on_c, 9, 38, 0
6, 518240, Note_on_c, 9, 36, 70
6, 518400, Note_on_c, 9, 57, 77
6, 518850, Note_on_c, 9, 57, 0
6, 519865, Note_on_c, 9, 36, 0
6, 529120, Note_on_c, 9, 38, 53
6, 529412, Note_on_c, 9, 38, 0
6, 530080, Note_on_c, 9, 38, 61
6, 530329, Note_on_c, 9, 38, 0
6, 530720, Note_on_c, 9, 38, 44
6, 530946, Note_on_c, 9, 38, 0
6, 532960, Note_on_c, 9, 38, 59
6, 533265, Note_on_c, 9, 38, 0
6, 533920, Note_on_c, 9, 38, 58
6, 534212, Note_on_c, 9, 38, 0
6, 534400, Note_on_c, 9, 38, 43
6, 534669, Note_on_c, 9, 38, 0
6, 536640, Note_on_c, 9, 38, 54
6, 536869, Note_on_c, 9, 38, 0
6, 537280, Note_on_c, 9, 38, 51
6, 537535, Note_on_c, 9, 38, 0
6, 539520, Note_on_c, 9, 38, 53
6, 539678, Note_on_c, 9, 38, 0
6, 540480, Note_on_c, 9, 38, 56
6, 540794, Note_on_c, 9, 38, 0
6, 547360, Note_on_c, 9, 38, 30
6, 547535, Note_on_c, 9, 38, 0
6, 547680, Note_on_c, 9, 38, 53
6, 547915, Note_on_c, 9, 38, 0
6, 548160, Note_on_c, 9, 38, 61
6, 548403, Note_on_c, 9, 38, 0
6, 550560, Note_on_c, 9, 38, 42
6, 550799, Note_on_c, 9, 38, 0
6, 551040, Note_on_c, 9, 38, 44
6, 551332, Note_on_c, 9, 38, 0
6, 551520, Note_on_c, 9, 38, 57
6, 551724, Note_on_c, 9, 38, 0
6, 552000, Note_on_c, 9, 38, 93
6, 552425, Note_on_c, 9, 38, 0
6, 555520, Note_on_c, 9, 38, 68
6, 555719, Note_on_c, 9, 38, 0
6, 556800, Note_on_c, 9, 38, 61
6, 557182, Note_on_c, 9, 38, 0
6, 561600, Note_on_c, 9, 38, 62
6, 561803, Note_on_c, 9, 38, 0
6, 563200, Note_on_c, 9, 38, 61
6, 563399, Note_on_c, 9, 38, 0
6, 564160, Note_on_c, 9, 38, 61
6, 564335, Note_on_c, 9, 38, 0
6, 564480, Note_on_c, 9, 36, 62
6, 564480, Note_on_c, 9, 57, 72
6, 564752, Note_on_c, 9, 57, 0
6, 564998, Note_on_c, 9, 36, 0
6, 571200, Note_on_c, 9, 38, 68
6, 571413, Note_on_c, 9, 38, 0
6, 572160, Note_on_c, 9, 38, 85
6, 572447, Note_on_c, 9, 38, 0
6, 572800, Note_on_c, 9, 38, 59
6, 572980, Note_on_c, 9, 38, 0
6, 578080, Note_on_c, 9, 36, 30
6, 578171, Note_on_c, 9, 36, 0
6, 579520, Note_on_c, 9, 38, 46
6, 579642, Note_on_c, 9, 38, 0
6, 580000, Note_on_c, 9, 38, 44
6, 580314, Note_on_c, 9, 38, 0
6, 580480, Note_on_c, 9, 38, 54
6, 580646, Note_on_c, 9, 38, 0
6, 581920, Note_on_c, 9, 36, 32
6, 582086, Note_on_c, 9, 36, 0
6, 585280, Note_on_c, 9, 38, 65
6, 585438, Note_on_c, 9, 38, 0
6, 586240, Note_on_c, 9, 38, 72
6, 586348, Note_on_c, 9, 38, 0
6, 587200, Note_on_c, 9, 38, 46
6, 587299, Note_on_c, 9, 38, 0
6, 587520, Note_on_c, 9, 38, 40
6, 587741, Note_on_c, 9, 38, 0
6, 592000, Note_on_c, 9, 38, 30
6, 592205, Note_on_c, 9, 38, 0
6, 593280, Note_on_c, 9, 38, 43
6, 593505, Note_on_c, 9, 38, 0
6, 594880, Note_on_c, 9, 38, 44
6, 595104, Note_on_c, 9, 38, 0
6, 596160, Note_on_c, 9, 38, 45
6, 596427, Note_on_c, 9, 38, 0
6, 597760, Note_on_c, 9, 38, 51
6, 597937, Note_on_c, 9, 38, 0
6, 598880, Note_on_c, 9, 36, 47
6, 599019, Note_on_c, 9, 36, 0
6, 601440, Note_on_c, 9, 38, 47
6, 601685, Note_on_c, 9, 38, 0
6, 602880, Note_on_c, 9, 38, 40
6, 603105, Note_on_c, 9, 38, 0
6, 609280, Note_on_c, 9, 38, 50
6, 609390, Note_on_c, 9, 38, 0
6, 610560, Note_on_c, 9, 38, 52
6, 610819, Note_on_c, 9, 38, 0
6, 620160, Note_on_c, 9, 38, 43
6, 620260, Note_on_c, 9, 38, 0
6, 621120, Note_on_c, 9, 37, 71
6, 621348, Note_on_c, 9, 37, 0
6, 623040, Note_on_c, 9, 37, 77
6, 623316, Note_on_c, 9, 37, 0
6, 624960, Note_on_c, 9, 38, 38
6, 625126, Note_on_c, 9, 38, 0
6, 625920, Note_on_c, 9, 38, 56
6, 625920, Note_on_c, 9, 57, 76
6, 626080, Note_on_c, 9, 36, 62
6, 626093, Note_on_c, 9, 57, 0
6, 626150, Note_on_c, 9, 38, 0
6, 626198, Note_on_c, 9, 36, 0
6, 628640, Note_on_c, 9, 38, 65
6, 628853, Note_on_c, 9, 38, 0
6, 629600, Note_on_c, 9, 38, 68
6, 629871, Note_on_c, 9, 38, 0
6, 630400, Note_on_c, 9, 38, 70
6, 630745, Note_on_c, 9, 38, 0
6, 631360, Note_on_c, 9, 38, 67
6, 631593, Note_on_c, 9, 38, 0
6, 631680, Note_on_c, 9, 57, 74
6, 631840, Note_on_c, 9, 38, 39
6, 631840, Note_on_c, 9, 36, 73
6, 632070, Note_on_c, 9, 38, 0
6, 633473, Note_on_c, 9, 57, 0
6, 633762, Note_on_c, 9, 36, 0
6, 647680, Note_on_c, 9, 38, 49
6, 647904, Note_on_c, 9, 38, 0
6, 648960, Note_on_c, 9, 38, 56
6, 649052, Note_on_c, 9, 38, 0
6, 650560, Note_on_c, 9, 38, 61
6, 650716, Note_on_c, 9, 38, 0
6, 652000, Note_on_c, 9, 38, 81
6, 652199, Note_on_c, 9, 38, 0
6, 653600, Note_on_c, 9, 38, 88
6, 653835, Note_on_c, 9, 38, 0
6, 654880, Note_on_c, 9, 38, 98
6, 655079, Note_on_c, 9, 38, 0
6, 656320, Note_on_c, 9, 38, 102
6, 656320, Note_on_c, 9, 57, 99
6, 656476, Note_on_c, 9, 57, 0
6, 656480, Note_on_c, 9, 36, 84
6, 656480, Note_on_c, 9, 35, 81
6, 656516, Note_on_c, 9, 38, 0
6, 656559, Note_on_c, 9, 35, 0
6, 656591, Note_on_c, 9, 36, 0
6, 659360, Note_on_c, 9, 38, 56
6, 659447, Note_on_c, 9, 38, 0
6, 659680, Note_on_c, 9, 36, 92
6, 659680, Note_on_c, 9, 38, 91
6, 659680, Note_on_c, 9, 57, 107
6, 664154, Note_on_c, 9, 57, 0
6, 664465, Note_on_c, 9, 36, 0
6, 664475, Note_on_c, 9, 38, 0
6, 674240, Note_on_c, 9, 38, 38
6, 674369, Note_on_c, 9, 38, 0
6, 674720, Note_on_c, 9, 38, 30
6, 674948, Note_on_c, 9, 38, 0
6, 675040, Note_on_c, 9, 38, 40
6, 675323, Note_on_c, 9, 38, 0
6, 675520, Note_on_c, 9, 38, 48
6, 675719, Note_on_c, 9, 38, 0
6, 676000, Note_on_c, 9, 38, 41
6, 676115, Note_on_c, 9, 38, 0
6, 677760, Note_on_c, 9, 38, 41
6, 677892, Note_on_c, 9, 38, 0
6, 678240, Note_on_c, 9, 38, 32
6, 678448, Note_on_c, 9, 38, 0
6, 678720, Note_on_c, 9, 38, 39
6, 678981, Note_on_c, 9, 38, 0
6, 683040, Note_on_c, 9, 40, 56
6, 683136, Note_on_c, 9, 40, 0
6, 683520, Note_on_c, 9, 40, 34
6, 683729, Note_on_c, 9, 40, 0
6, 686080, Note_on_c, 9, 40, 42
6, 686219, Note_on_c, 9, 40, 0
6, 687040, Note_on_c, 9, 36, 48
6, 687139, Note_on_c, 9, 36, 0
6, 687360, Note_on_c, 9, 38, 45
6, 687360, Note_on_c, 9, 40, 43
6, 687608, Note_on_c, 9, 38, 0
6, 687746, Note_on_c, 9, 40, 0
6, 693760, Note_on_c, 9, 47, 74
6, 694007, Note_on_c, 9, 47, 0
6, 694720, Note_on_c, 9, 43, 58
6, 694818, Note_on_c, 9, 43, 0
6, 695040, Note_on_c, 9, 38, 53
6, 695367, Note_on_c, 9, 38, 0
6, 698720, Note_on_c, 9, 47, 59
6, 698802, Note_on_c, 9, 47, 0
6, 699520, Note_on_c, 9, 47, 70
6, 699602, Note_on_c, 9, 47, 0
6, 700480, Note_on_c, 9, 38, 61
6, 700598, Note_on_c, 9, 38, 0
6, 701760, Note_on_c, 9, 57, 73
6, 701760, Note_on_c, 9, 36, 46
6, 701880, Note_on_c, 9, 57, 0
6, 702137, Note_on_c, 9, 36, 0
6, 711360, Note_on_c, 9, 46, 63
6, 712037, Note_on_c, 9, 46, 0
6, 716800, Note_on_c, 9, 38, 53
6, 716906, Note_on_c, 9, 38, 0
6, 718240, Note_on_c, 9, 38, 52
6, 718416, Note_on_c, 9, 38, 0
6, 719680, Note_on_c, 9, 38, 48
6, 719803, Note_on_c, 9, 38, 0
6, 720960, Note_on_c, 9, 46, 70
6, 721138, Note_on_c, 9, 46, 0
6, 722560, Note_on_c, 9, 38, 56
6, 722688, Note_on_c, 9, 38, 0
6, 723840, Note_on_c, 9, 38, 65
6, 724017, Note_on_c, 9, 38, 0
6, 725440, Note_on_c, 9, 38, 36
6, 725553, Note_on_c, 9, 38, 0
6, 725920, Note_on_c, 9, 38, 35
6, 726080, Note_on_c, 9, 38, 0
6, 729120, Note_on_c, 9, 38, 44
6, 729261, Note_on_c, 9, 38, 0
6, 729600, Note_on_c, 9, 38, 41
6, 729880, Note_on_c, 9, 38, 0
6, 732160, Note_on_c, 9, 38, 43
6, 732259, Note_on_c, 9, 38, 0
6, 735040, Note_on_c, 9, 40, 52
6, 735167, Note_on_c, 9, 40, 0
6, 735360, Note_on_c, 9, 40, 48
6, 735480, Note_on_c, 9, 40, 0
6, 736000, Note_on_c, 9, 38, 61
6, 736128, Note_on_c, 9, 38, 0
6, 738880, Note_on_c, 9, 40, 59
6, 738973, Note_on_c, 9, 40, 0
6, 739200, Note_on_c, 9, 38, 44
6, 739431, Note_on_c, 9, 38, 0
6, 740160, Note_on_c, 9, 38, 52
6, 740518, Note_on_c, 9, 38, 0
6, 743200, Note_on_c, 9, 38, 32
6, 743308, Note_on_c, 9, 38, 0
6, 743520, Note_on_c, 9, 53, 55
6, 743696, Note_on_c, 9, 53, 0
6, 744000, Note_on_c, 9, 53, 66
6, 744149, Note_on_c, 9, 53, 0
6, 744640, Note_on_c, 9, 38, 50
6, 744868, Note_on_c, 9, 38, 0
6, 745600, Note_on_c, 9, 38, 67
6, 745797, Note_on_c, 9, 38, 0
6, 747040, Note_on_c, 9, 38, 71
6, 747251, Note_on_c, 9, 38, 0
6, 755200, Note_on_c, 9, 38, 47
6, 755308, Note_on_c, 9, 38, 0
6, 756480, Note_on_c, 9, 38, 49
6, 756652, Note_on_c, 9, 38, 0
6, 760000, Note_on_c, 9, 38, 52
6, 760117, Note_on_c, 9, 38, 0
6, 760320, Note_on_c, 9, 38, 52
6, 760575, Note_on_c, 9, 38, 0
6, 760960, Note_on_c, 9, 36, 35
6, 761178, Note_on_c, 9, 36, 0
6, 761920, Note_on_c, 9, 38, 63
6, 762043, Note_on_c, 9, 38, 0
6, 762400, Note_on_c, 9, 38, 55
6, 762688, Note_on_c, 9, 38, 0
6, 763040, Note_on_c, 9, 36, 50
6, 763170, Note_on_c, 9, 36, 0
6, 768160, Note_on_c, 9, 38, 35
6, 768364, Note_on_c, 9, 38, 0
6, 768640, Note_on_c, 9, 38, 49
6, 768864, Note_on_c, 9, 38, 0
6, 775840, Note_on_c, 9, 38, 69
6, 775950, Note_on_c, 9, 38, 0
6, 776800, Note_on_c, 9, 38, 103
6, 777001, Note_on_c, 9, 38, 0
6, 777760, Note_on_c, 9, 38, 100
6, 777914, Note_on_c, 9, 38, 0
6, 778400, Note_on_c, 9, 38, 83
6, 778655, Note_on_c, 9, 38, 0
6, 779680, Note_on_c, 9, 38, 93
6, 779934, Note_on_c, 9, 38, 0
6, 780640, Note_on_c, 9, 36, 72
6, 780803, Note_on_c, 9, 36, 0
6, 781280, Note_on_c, 9, 36, 77
6, 781700, Note_on_c, 9, 36, 0
6, 784320, Note_on_c, 9, 38, 51
6, 784665, Note_on_c, 9, 38, 0
6, 784960, Note_on_c, 9, 38, 63
6, 785716, Note_on_c, 9, 38, 0
6, 785920, Note_on_c, 9, 36, 42
6, 786036, Note_on_c, 9, 36, 0
6, 786400, Note_on_c, 9, 36, 37
6, 786854, Note_on_c, 9, 36, 0
6, 790240, Note_on_c, 9, 38, 44
6, 790362, Note_on_c, 9, 38, 0
6, 793600, Note_on_c, 9, 40, 43
6, 793782, Note_on_c, 9, 40, 0
6, 796640, Note_on_c, 9, 40, 48
6, 796748, Note_on_c, 9, 40, 0
6, 797440, Note_on_c, 9, 40, 54
6, 797546, Note_on_c, 9, 40, 0
6, 798880, Note_on_c, 9, 38, 36
6, 799257, Note_on_c, 9, 38, 0
6, 799840, Note_on_c, 9, 38, 46
6, 800228, Note_on_c, 9, 38, 0
6, 802560, Note_on_c, 9, 38, 41
6, 802980, Note_on_c, 9, 38, 0
6, 803520, Note_on_c, 9, 38, 58
6, 803930, Note_on_c, 9, 38, 0
6, 804480, Note_on_c, 9, 38, 53
6, 804816, Note_on_c, 9, 38, 0
6, 804960, Note_on_c, 9, 38, 54
6, 805154, Note_on_c, 9, 38, 0
6, 805440, Note_on_c, 9, 36, 41
6, 805662, Note_on_c, 9, 36, 0
6, 808320, Note_on_c, 9, 38, 70
6, 808490, Note_on_c, 9, 38, 0
6, 809280, Note_on_c, 9, 38, 77
6, 809612, Note_on_c, 9, 38, 0
6, 810240, Note_on_c, 9, 38, 68
6, 810562, Note_on_c, 9, 38, 0
6, 823520, Note_on_c, 9, 38, 45
6, 823674, Note_on_c, 9, 38, 0
6, 823840, Note_on_c, 9, 38, 46
6, 824209, Note_on_c, 9, 38, 0
6, 825280, Note_on_c, 9, 38, 37
6, 825400, Note_on_c, 9, 38, 0
6, 825760, Note_on_c, 9, 38, 50
6, 826158, Note_on_c, 9, 38, 0
6, 827200, Note_on_c, 9, 38, 53
6, 827320, Note_on_c, 9, 38, 0
6, 827520, Note_on_c, 9, 38, 43
6, 827769, Note_on_c, 9, 38, 0
6, 828480, Note_on_c, 9, 36, 52
6, 828994, Note_on_c, 9, 36, 0
6, 831040, Note_on_c, 9, 36, 66
6, 831287, Note_on_c, 9, 36, 0
6, 831360, Note_on_c, 9, 36, 38
6, 831844, Note_on_c, 9, 36, 0
6, 833760, Note_on_c, 9, 38, 59
6, 833986, Note_on_c, 9, 38, 0
6, 834240, Note_on_c, 9, 36, 42
6, 834631, Note_on_c, 9, 36, 0
6, 835200, Note_on_c, 9, 36, 46
6, 835582, Note_on_c, 9, 36, 0
6, 839680, Note_on_c, 9, 38, 45
6, 839920, Note_on_c, 9, 38, 0
6, 840960, Note_on_c, 9, 38, 44
6, 841123, Note_on_c, 9, 38, 0
6, 842560, Note_on_c, 9, 38, 48
6, 842714, Note_on_c, 9, 38, 0
6, 844000, Note_on_c, 9, 38, 51
6, 844269, Note_on_c, 9, 38, 0
6, 847360, Note_on_c, 9, 38, 61
6, 847441, Note_on_c, 9, 38, 0
6, 847680, Note_on_c, 9, 36, 38
6, 848124, Note_on_c, 9, 36, 0
6, 848640, Note_on_c, 9, 36, 49
6, 848968, Note_on_c, 9, 36, 0
6, 850560, Note_on_c, 9, 38, 51
6, 850785, Note_on_c, 9, 38, 0
6, 851200, Note_on_c, 9, 38, 65
6, 851361, Note_on_c, 9, 38, 0
6, 851520, Note_on_c, 9, 36, 33
6, 851955, Note_on_c, 9, 36, 0
6, 852480, Note_on_c, 9, 36, 49
6, 852835, Note_on_c, 9, 36, 0
6, 859840, Note_on_c, 9, 38, 49
6, 860092, Note_on_c, 9, 38, 0
6, 860320, Note_on_c, 9, 38, 42
6, 860721, Note_on_c, 9, 38, 0
6, 861760, Note_on_c, 9, 38, 62
6, 862024, Note_on_c, 9, 38, 0
6, 862240, Note_on_c, 9, 38, 39
6, 862590, Note_on_c, 9, 38, 0
6, 867840, Note_on_c, 9, 38, 63
6, 868013, Note_on_c, 9, 38, 0
6, 868960, Note_on_c, 9, 38, 88
6, 869236, Note_on_c, 9, 38, 0
6, 869920, Note_on_c, 9, 45, 103
6, 870291, Note_on_c, 9, 45, 0
6, 870400, Note_on_c, 9, 38, 77
6, 870676, Note_on_c, 9, 38, 0
6, 871360, Note_on_c, 9, 38, 88
6, 871576, Note_on_c, 9, 38, 0
6, 871680, Note_on_c, 9, 36, 91
6, 871840, Note_on_c, 9, 57, 99
6, 874380, Note_on_c, 9, 36, 0
6, 874439, Note_on_c, 9, 57, 0
6, 877280, Note_on_c, 9, 38, 41
6, 877416, Note_on_c, 9, 38, 0
6, 880960, Note_on_c, 9, 38, 49
6, 881068, Note_on_c, 9, 38, 0
6, 882880, Note_on_c, 9, 38, 46
6, 882995, Note_on_c, 9, 38, 0
6, 885760, Note_on_c, 9, 38, 58
6, 885846, Note_on_c, 9, 38, 0
6, 888640, Note_on_c, 9, 38, 52
6, 888748, Note_on_c, 9, 38, 0
6, 889600, Note_on_c, 9, 38, 44
6, 889768, Note_on_c, 9, 38, 0
6, 890720, Note_on_c, 9, 38, 52
6, 890826, Note_on_c, 9, 38, 0
6, 891040, Note_on_c, 9, 38, 28
6, 891275, Note_on_c, 9, 38, 0
6, 896000, Note_on_c, 9, 38, 40
6, 896105, Note_on_c, 9, 38, 0
6, 896320, Note_on_c, 9, 38, 43
6, 896423, Note_on_c, 9, 38, 0
6, 896480, Note_on_c, 9, 38, 52
6, 896564, Note_on_c, 9, 38, 0
6, 896800, Note_on_c, 9, 38, 63
6, 896881, Note_on_c, 9, 38, 0
6, 896960, Note_on_c, 9, 38, 44
6, 897060, Note_on_c, 9, 38, 0
6, 899360, Note_on_c, 9, 38, 32
6, 899442, Note_on_c, 9, 38, 0
6, 899520, Note_on_c, 9, 38, 45
6, 899623, Note_on_c, 9, 38, 0
6, 900160, Note_on_c, 9, 38, 86
6, 900321, Note_on_c, 9, 38, 0
6, 900960, Note_on_c, 9, 38, 74
6, 901058, Note_on_c, 9, 38, 0
6, 901440, Note_on_c, 9, 38, 79
6, 901521, Note_on_c, 9, 38, 0
6, 902080, Note_on_c, 9, 36, 81
6, 902259, Note_on_c, 9, 36, 0
6, 902453, Note_on_c, 9, 36, 89
6, 902571, Note_on_c, 9, 31, 44
6, 902674, Note_on_c, 9, 31, 0
6, 902915, Note_on_c, 9, 36, 0
6, 904000, Note_on_c, 9, 36, 57
6, 904082, Note_on_c, 9, 36, 0
6, 920800, Note_on_c, 9, 37, 70
6, 920985, Note_on_c, 9, 37, 0
6, 928320, Note_on_c, 9, 38, 52
6, 928416, Note_on_c, 9, 38, 0
6, 929280, Note_on_c, 9, 38, 57
6, 929520, Note_on_c, 9, 38, 0
6, 929760, Note_on_c, 9, 38, 60
6, 929871, Note_on_c, 9, 38, 0
6, 932160, Note_on_c, 9, 38, 52
6, 932587, Note_on_c, 9, 38, 0
6, 932800, Note_on_c, 9, 36, 60
6, 932800, Note_on_c, 9, 57, 63
6, 932881, Note_on_c, 9, 57, 0
6, 933086, Note_on_c, 9, 36, 0
6, 935680, Note_on_c, 9, 38, 58
6, 935906, Note_on_c, 9, 38, 0
6, 936000, Note_on_c, 9, 36, 66
6, 936000, Note_on_c, 9, 57, 67
6, 936082, Note_on_c, 9, 57, 0
6, 936415, Note_on_c, 9, 36, 0
6, 946720, Note_on_c, 9, 38, 57
6, 946830, Note_on_c, 9, 38, 0
6, 947840, Note_on_c, 9, 38, 48
6, 947933, Note_on_c, 9, 38, 0
6, 951200, Note_on_c, 9, 38, 32
6, 951296, Note_on_c, 9, 38, 0
6, 952160, Note_on_c, 9, 38, 54
6, 952249, Note_on_c, 9, 38, 0
6, 959040, Note_on_c, 9, 38, 41
6, 959152, Note_on_c, 9, 38, 0
6, 959680, Note_on_c, 9, 38, 57
6, 959838, Note_on_c, 9, 38, 0
6, 960960, Note_on_c, 9, 38, 40
6, 961222, Note_on_c, 9, 38, 0
6, 962080, Note_on_c, 9, 38, 34
6, 962351, Note_on_c, 9, 38, 0
6, 962560, Note_on_c, 9, 38, 60
6, 962649, Note_on_c, 9, 38, 0
6, 962880, Note_on_c, 9, 36, 48
6, 963144, Note_on_c, 9, 36, 0
6, 963840, Note_on_c, 9, 36, 45
6, 964195, Note_on_c, 9, 36, 0
6, 968480, Note_on_c, 9, 38, 70
6, 968579, Note_on_c, 9, 38, 0
6, 969600, Note_on_c, 9, 38, 91
6, 969874, Note_on_c, 9, 38, 0
6, 970080, Note_on_c, 9, 38, 61
6, 970298, Note_on_c, 9, 38, 0
6, 970560, Note_on_c, 9, 38, 40
6, 970778, Note_on_c, 9, 38, 0
6, 976320, Note_on_c, 9, 47, 70
6, 976433, Note_on_c, 9, 47, 0
6, 977920, Note_on_c, 9, 45, 78
6, 978191, Note_on_c, 9, 45, 0
6, 978880, Note_on_c, 9, 38, 51
6, 979043, Note_on_c, 9, 38, 0
6, 979200, Note_on_c, 9, 38, 72
6, 979772, Note_on_c, 9, 38, 0
6, 981600, Note_on_c, 9, 47, 56
6, 981681, Note_on_c, 9, 47, 0
6, 981760, Note_on_c, 9, 38, 50
6, 982559, Note_on_c, 9, 38, 0
6, 983040, Note_on_c, 9, 36, 37
6, 983258, Note_on_c, 9, 36, 0
6, 983840, Note_on_c, 9, 36, 47
6, 984150, Note_on_c, 9, 36, 0
6, 988800, Note_on_c, 9, 45, 56
6, 989093, Note_on_c, 9, 45, 0
6, 991680, Note_on_c, 9, 43, 69
6, 991887, Note_on_c, 9, 43, 0
6, 993280, Note_on_c, 9, 38, 79
6, 993469, Note_on_c, 9, 38, 0
6, 994240, Note_on_c, 9, 38, 61
6, 994322, Note_on_c, 9, 38, 0
6, 994560, Note_on_c, 9, 69, 76
6, 994560, Note_on_c, 9, 36, 81
6, 994807, Note_on_c, 9, 69, 0
6, 995133, Note_on_c, 9, 36, 0
6, 1003200, Note_on_c, 9, 45, 34
6, 1003320, Note_on_c, 9, 45, 0
6, 1004160, Note_on_c, 9, 45, 63
6, 1004474, Note_on_c, 9, 45, 0
6, 1004640, Note_on_c, 9, 45, 43
6, 1004743, Note_on_c, 9, 45, 0
6, 1005760, Note_on_c, 9, 43, 55
6, 1005911, Note_on_c, 9, 43, 0
6, 1006720, Note_on_c, 9, 43, 62
6, 1006977, Note_on_c, 9, 43, 0
6, 1007680, Note_on_c, 9, 38, 60
6, 1007935, Note_on_c, 9, 38, 0
6, 1008640, Note_on_c, 9, 38, 70
6, 1008873, Note_on_c, 9, 38, 0
6, 1009440, Note_on_c, 9, 38, 52
6, 1009572, Note_on_c, 9, 38, 0
6, 1009760, Note_on_c, 9, 36, 70
6, 1009920, Note_on_c, 9, 57, 77
6, 1010370, Note_on_c, 9, 57, 0
6, 1011385, Note_on_c, 9, 36, 0
6, 1020640, Note_on_c, 9, 38, 53
6, 1020932, Note_on_c, 9, 38, 0
6, 1021600, Note_on_c, 9, 38, 61
6, 1021849, Note_on_c, 9, 38, 0
6, 1022240, Note_on_c, 9, 38, 44
6, 1022466, Note_on_c, 9, 38, 0
6, 1024480, Note_on_c, 9, 38, 59
6, 1024785, Note_on_c, 9, 38, 0
6, 1025440, Note_on_c, 9, 38, 58
6, 1025732, Note_on_c, 9, 38, 0
6, 1025920, Note_on_c, 9, 38, 43
6, 1026189, Note_on_c, 9, 38, 0
6, 1028160, Note_on_c, 9, 38, 54
6, 1028389, Note_on_c, 9, 38, 0
6, 1028800, Note_on_c, 9, 38, 51
6, 1029055, Note_on_c, 9, 38, 0
6, 1031040, Note_on_c, 9, 38, 53
6, 1031198, Note_on_c, 9, 38, 0
6, 1032000, Note_on_c, 9, 38, 56
6, 1032314, Note_on_c, 9, 38, 0
6, 1032314, End_track
7, 0, Start_track
7, 0, End_track
0, 0, End_of_file
