0, 0, Header, 1, 6, 960
1, 0, Start_track
1, 0, Title_t, "  Once upon a Summertime"
1, 0, Text_t, "Michel LeGrand"
1, 0, Text_t, "dougmck@pipeline.com.au\012"
1, 0, Time_signature, 3, 2, 24, 8
1, 0, Key_signature, 0, "major"
1, 0, Tempo, 923077
1, 0, End_track
2, 0, Start_track
2, 0, Title_t, "Piano"
2, 0, Control_c, 0, 64, 127
2, 29, Note_on_c, 0, 57, 50
2, 47, Note_on_c, 0, 76, 49
2, 73, Control_c, 0, 64, 0
2, 345, Control_c, 0, 64, 127
2, 1056, Note_on_c, 0, 60, 24
2, 1064, Note_on_c, 0, 64, 17
2, 2482, Note_on_c, 0, 72, 50
2, 2535, Note_on_c, 0, 76, 0
2, 2932, Note_on_c, 0, 76, 75
2, 2970, Note_on_c, 0, 72, 0
2, 3302, Note_on_c, 0, 60, 0
2, 3311, Note_on_c, 0, 64, 0
2, 3969, Note_on_c, 0, 66, 31
2, 3993, Note_on_c, 0, 62, 38
2, 4567, Note_on_c, 0, 74, 32
2, 5329, Note_on_c, 0, 72, 40
2, 5449, Note_on_c, 0, 74, 0
2, 5547, Note_on_c, 0, 57, 0
2, 5549, Note_on_c, 0, 66, 0
2, 5634, Note_on_c, 0, 76, 0
2, 5797, Note_on_c, 0, 71, 53
2, 5808, Note_on_c, 0, 62, 0
2, 5844, Note_on_c, 0, 57, 29
2, 5850, Control_c, 0, 64, 0
2, 5867, Note_on_c, 0, 72, 0
2, 6131, Control_c, 0, 64, 127
2, 6767, Note_on_c, 0, 58, 36
2, 6768, Note_on_c, 0, 67, 40
2, 6779, Note_on_c, 0, 63, 28
2, 6801, Control_c, 0, 64, 0
2, 7000, Control_c, 0, 64, 127
2, 7831, Note_on_c, 0, 71, 0
2, 7840, Note_on_c, 0, 67, 0
2, 8282, Note_on_c, 0, 67, 79
2, 8482, Note_on_c, 0, 57, 0
2, 8552, Note_on_c, 0, 67, 0
2, 8742, Note_on_c, 0, 58, 0
2, 8755, Note_on_c, 0, 69, 113
2, 8790, Note_on_c, 0, 57, 55
2, 8814, Control_c, 0, 64, 0
2, 8863, Note_on_c, 0, 63, 0
2, 9127, Control_c, 0, 64, 127
2, 9794, Note_on_c, 0, 66, 31
2, 9800, Note_on_c, 0, 62, 41
2, 10429, Note_on_c, 0, 66, 0
2, 10760, Note_on_c, 0, 62, 0
2, 10781, Note_on_c, 0, 57, 0
2, 11122, Note_on_c, 0, 69, 0
2, 11131, Note_on_c, 0, 66, 38
2, 11570, Note_on_c, 0, 66, 0
2, 11587, Control_c, 0, 64, 0
2, 11592, Note_on_c, 0, 67, 58
2, 11879, Control_c, 0, 64, 127
2, 12155, Note_on_c, 0, 57, 28
2, 12640, Note_on_c, 0, 60, 17
2, 12641, Note_on_c, 0, 64, 22
2, 13611, Note_on_c, 0, 67, 0
2, 14011, Note_on_c, 0, 76, 55
2, 14196, Note_on_c, 0, 57, 0
2, 14382, Note_on_c, 0, 76, 0
2, 14465, Control_c, 0, 64, 0
2, 14474, Note_on_c, 0, 57, 43
2, 14477, Note_on_c, 0, 76, 60
2, 14492, Note_on_c, 0, 60, 0
2, 14516, Note_on_c, 0, 64, 0
2, 14768, Control_c, 0, 64, 127
2, 15412, Note_on_c, 0, 66, 33
2, 15449, Note_on_c, 0, 63, 31
2, 15469, Note_on_c, 0, 59, 28
2, 15539, Control_c, 0, 64, 0
2, 15769, Control_c, 0, 64, 127
2, 16742, Note_on_c, 0, 76, 0
2, 16871, Note_on_c, 0, 76, 89
2, 17062, Note_on_c, 0, 57, 0
2, 17231, Note_on_c, 0, 59, 0
2, 17253, Note_on_c, 0, 66, 0
2, 17317, Note_on_c, 0, 76, 0
2, 17398, Note_on_c, 0, 57, 36
2, 17413, Note_on_c, 0, 79, 64
2, 17417, Note_on_c, 0, 63, 0
2, 17436, Control_c, 0, 64, 0
2, 17739, Control_c, 0, 64, 127
2, 18314, Note_on_c, 0, 65, 31
2, 18331, Note_on_c, 0, 62, 37
2, 18344, Control_c, 0, 64, 0
2, 18348, Note_on_c, 0, 58, 20
2, 18531, Control_c, 0, 64, 127
2, 19614, Note_on_c, 0, 79, 0
2, 19696, Note_on_c, 0, 76, 51
2, 19911, Note_on_c, 0, 58, 0
2, 19978, Note_on_c, 0, 57, 0
2, 20091, Note_on_c, 0, 76, 0
2, 20175, Note_on_c, 0, 57, 31
2, 20197, Note_on_c, 0, 65, 0
2, 20199, Note_on_c, 0, 76, 43
2, 20220, Control_c, 0, 64, 0
2, 20258, Note_on_c, 0, 62, 0
2, 20585, Control_c, 0, 64, 127
2, 21127, Note_on_c, 0, 65, 28
2, 21153, Note_on_c, 0, 62, 33
2, 21664, Note_on_c, 0, 62, 0
2, 21690, Note_on_c, 0, 65, 0
2, 21739, Note_on_c, 0, 57, 0
2, 21980, Note_on_c, 0, 76, 0
2, 22942, Control_c, 0, 64, 0
2, 22990, Note_on_c, 0, 45, 29
2, 23002, Note_on_c, 0, 88, 47
2, 23213, Control_c, 0, 64, 127
2, 23312, Note_on_c, 0, 45, 0
2, 24027, Note_on_c, 0, 59, 27
2, 24032, Note_on_c, 0, 64, 17
2, 24037, Note_on_c, 0, 60, 24
2, 24182, Note_on_c, 0, 88, 0
2, 24630, Note_on_c, 0, 89, 63
2, 25096, Note_on_c, 0, 89, 0
2, 25188, Note_on_c, 0, 88, 60
2, 25831, Note_on_c, 0, 87, 48
2, 25839, Note_on_c, 0, 88, 0
2, 25916, Note_on_c, 0, 59, 0
2, 25919, Note_on_c, 0, 64, 0
2, 25927, Note_on_c, 0, 60, 0
2, 26024, Note_on_c, 0, 87, 0
2, 26101, Control_c, 0, 64, 0
2, 26111, Note_on_c, 0, 64, 32
2, 26116, Note_on_c, 0, 88, 60
2, 26127, Note_on_c, 0, 60, 22
2, 26147, Note_on_c, 0, 59, 30
2, 26383, Control_c, 0, 64, 127
2, 26403, Note_on_c, 0, 89, 74
2, 26411, Note_on_c, 0, 88, 0
2, 26550, Control_c, 0, 64, 0
2, 26608, Note_on_c, 0, 88, 83
2, 26680, Note_on_c, 0, 89, 0
2, 26852, Control_c, 0, 64, 127
2, 27751, Note_on_c, 0, 87, 55
2, 27800, Note_on_c, 0, 88, 0
2, 28027, Note_on_c, 0, 87, 0
2, 28106, Note_on_c, 0, 88, 69
2, 28356, Note_on_c, 0, 87, 62
2, 28358, Note_on_c, 0, 88, 0
2, 28554, Note_on_c, 0, 87, 0
2, 28603, Note_on_c, 0, 88, 53
2, 28668, Note_on_c, 0, 60, 0
2, 28679, Note_on_c, 0, 64, 0
2, 28687, Note_on_c, 0, 59, 0
2, 28793, Note_on_c, 0, 88, 0
2, 28844, Note_on_c, 0, 84, 42
2, 28917, Control_c, 0, 64, 0
2, 29073, Control_c, 0, 64, 127
2, 29115, Note_on_c, 0, 84, 0
2, 29165, Note_on_c, 0, 86, 52
2, 31148, Note_on_c, 0, 65, 49
2, 31150, Note_on_c, 0, 61, 47
2, 31158, Control_c, 0, 64, 0
2, 31161, Note_on_c, 0, 62, 54
2, 31388, Control_c, 0, 64, 127
2, 31526, Note_on_c, 0, 62, 0
2, 31555, Note_on_c, 0, 65, 0
2, 31577, Note_on_c, 0, 61, 0
2, 31771, Note_on_c, 0, 67, 48
2, 31781, Note_on_c, 0, 56, 34
2, 31785, Note_on_c, 0, 62, 48
2, 31794, Control_c, 0, 64, 0
2, 32097, Control_c, 0, 64, 127
2, 32695, Note_on_c, 0, 86, 0
2, 33126, Note_on_c, 0, 86, 87
2, 33296, Note_on_c, 0, 86, 0
2, 33385, Note_on_c, 0, 88, 91
2, 33629, Note_on_c, 0, 88, 0
2, 33737, Note_on_c, 0, 86, 94
2, 33984, Note_on_c, 0, 86, 0
2, 34121, Note_on_c, 0, 86, 83
2, 34279, Note_on_c, 0, 67, 0
2, 34290, Note_on_c, 0, 62, 0
2, 34361, Note_on_c, 0, 86, 0
2, 34393, Note_on_c, 0, 56, 0
2, 34443, Note_on_c, 0, 85, 72
2, 34648, Note_on_c, 0, 85, 0
2, 34692, Note_on_c, 0, 64, 33
2, 34703, Control_c, 0, 64, 0
2, 34704, Note_on_c, 0, 86, 57
2, 34717, Note_on_c, 0, 57, 47
2, 34739, Note_on_c, 0, 60, 25
2, 34920, Note_on_c, 0, 86, 0
2, 35037, Note_on_c, 0, 86, 59
2, 35068, Control_c, 0, 64, 127
2, 35262, Note_on_c, 0, 86, 0
2, 35301, Note_on_c, 0, 84, 42
2, 35368, Note_on_c, 0, 60, 0
2, 35399, Note_on_c, 0, 64, 0
2, 35445, Note_on_c, 0, 84, 0
2, 35556, Note_on_c, 0, 64, 27
2, 35569, Control_c, 0, 64, 0
2, 35599, Note_on_c, 0, 60, 24
2, 35603, Note_on_c, 0, 84, 53
2, 35613, Note_on_c, 0, 59, 31
2, 35788, Control_c, 0, 64, 127
2, 36096, Note_on_c, 0, 86, 80
2, 36154, Note_on_c, 0, 84, 0
2, 36549, Note_on_c, 0, 86, 0
2, 36591, Note_on_c, 0, 84, 74
2, 37057, Note_on_c, 0, 59, 0
2, 37060, Note_on_c, 0, 83, 67
2, 37064, Note_on_c, 0, 64, 0
2, 37110, Note_on_c, 0, 60, 0
2, 37115, Note_on_c, 0, 57, 0
2, 37163, Note_on_c, 0, 84, 0
2, 37202, Note_on_c, 0, 83, 0
2, 37518, Note_on_c, 0, 84, 64
2, 37550, Control_c, 0, 64, 0
2, 37560, Note_on_c, 0, 57, 38
2, 37563, Note_on_c, 0, 76, 60
2, 37565, Note_on_c, 0, 64, 40
2, 37572, Note_on_c, 0, 60, 27
2, 37811, Control_c, 0, 64, 127
2, 37840, Note_on_c, 0, 84, 0
2, 37892, Note_on_c, 0, 76, 0
2, 37996, Note_on_c, 0, 86, 79
2, 38035, Note_on_c, 0, 77, 59
2, 38120, Note_on_c, 0, 64, 0
2, 38224, Note_on_c, 0, 60, 0
2, 38250, Note_on_c, 0, 86, 0
2, 38384, Note_on_c, 0, 77, 0
2, 38484, Note_on_c, 0, 84, 73
2, 38512, Note_on_c, 0, 64, 35
2, 38517, Note_on_c, 0, 76, 74
2, 38520, Note_on_c, 0, 60, 24
2, 38804, Note_on_c, 0, 84, 0
2, 38856, Note_on_c, 0, 76, 0
2, 38980, Note_on_c, 0, 83, 68
2, 39006, Note_on_c, 0, 74, 57
2, 39086, Note_on_c, 0, 64, 0
2, 39107, Note_on_c, 0, 60, 0
2, 39166, Note_on_c, 0, 74, 0
2, 39190, Note_on_c, 0, 83, 0
2, 39458, Control_c, 0, 64, 0
2, 39469, Note_on_c, 0, 76, 58
2, 39484, Note_on_c, 0, 60, 27
2, 39486, Note_on_c, 0, 64, 36
2, 39511, Note_on_c, 0, 84, 73
2, 39604, Control_c, 0, 64, 127
2, 39629, Note_on_c, 0, 84, 0
2, 39653, Note_on_c, 0, 76, 0
2, 39749, Note_on_c, 0, 64, 0
2, 39756, Note_on_c, 0, 60, 0
2, 39944, Note_on_c, 0, 81, 57
2, 39950, Note_on_c, 0, 72, 55
2, 40093, Note_on_c, 0, 57, 0
2, 40117, Note_on_c, 0, 81, 0
2, 40165, Note_on_c, 0, 72, 0
2, 40444, Note_on_c, 0, 83, 43
2, 40459, Control_c, 0, 64, 0
2, 40473, Note_on_c, 0, 76, 47
2, 40479, Note_on_c, 0, 71, 44
2, 40495, Note_on_c, 0, 64, 24
2, 40508, Note_on_c, 0, 53, 32
2, 40720, Control_c, 0, 64, 127
2, 40956, Note_on_c, 0, 60, 28
2, 40963, Note_on_c, 0, 64, 0
2, 41025, Note_on_c, 0, 71, 0
2, 41033, Note_on_c, 0, 76, 0
2, 41271, Note_on_c, 0, 53, 0
2, 41396, Note_on_c, 0, 71, 43
2, 41419, Note_on_c, 0, 76, 39
2, 41894, Note_on_c, 0, 67, 41
2, 42165, Note_on_c, 0, 67, 0
2, 42313, Note_on_c, 0, 71, 0
2, 42382, Note_on_c, 0, 69, 48
2, 42662, Note_on_c, 0, 69, 0
2, 42751, Note_on_c, 0, 60, 0
2, 42761, Note_on_c, 0, 83, 0
2, 42785, Note_on_c, 0, 76, 0
2, 42847, Note_on_c, 0, 72, 40
2, 43259, Note_on_c, 0, 72, 0
2, 43282, Note_on_c, 0, 77, 55
2, 43305, Control_c, 0, 64, 0
2, 43420, Control_c, 0, 64, 127
2, 43707, Note_on_c, 0, 67, 41
2, 43771, Note_on_c, 0, 67, 0
2, 44038, Note_on_c, 0, 77, 0
2, 44680, Note_on_c, 0, 77, 90
2, 45010, Note_on_c, 0, 77, 0
2, 45170, Note_on_c, 0, 76, 77
2, 45185, Note_on_c, 0, 56, 39
2, 45191, Note_on_c, 0, 62, 57
2, 45192, Note_on_c, 0, 72, 71
2, 45194, Note_on_c, 0, 67, 74
2, 45196, Control_c, 0, 64, 0
2, 45404, Control_c, 0, 64, 127
2, 45502, Note_on_c, 0, 62, 0
2, 45707, Note_on_c, 0, 62, 60
2, 45710, Note_on_c, 0, 67, 0
2, 45798, Note_on_c, 0, 72, 0
2, 45845, Note_on_c, 0, 76, 0
2, 45846, Note_on_c, 0, 62, 0
2, 45862, Note_on_c, 0, 56, 0
2, 46187, Note_on_c, 0, 52, 73
2, 46207, Control_c, 0, 64, 0
2, 46384, Control_c, 0, 64, 127
2, 46641, Note_on_c, 0, 59, 68
2, 46643, Note_on_c, 0, 52, 0
2, 46682, Note_on_c, 0, 59, 0
2, 47645, Note_on_c, 0, 66, 71
2, 47646, Note_on_c, 0, 62, 64
2, 47648, Note_on_c, 0, 88, 76
2, 47649, Note_on_c, 0, 55, 62
2, 47660, Note_on_c, 0, 76, 75
2, 47663, Note_on_c, 0, 59, 68
2, 47687, Control_c, 0, 64, 0
2, 47896, Control_c, 0, 64, 127
2, 48057, Note_on_c, 0, 76, 0
2, 48087, Note_on_c, 0, 88, 0
2, 48094, Note_on_c, 0, 55, 0
2, 48102, Note_on_c, 0, 59, 0
2, 48109, Note_on_c, 0, 66, 0
2, 48142, Note_on_c, 0, 62, 0
2, 48385, Note_on_c, 0, 78, 75
2, 48387, Note_on_c, 0, 90, 77
2, 48404, Note_on_c, 0, 66, 58
2, 48405, Note_on_c, 0, 62, 64
2, 48407, Note_on_c, 0, 55, 57
2, 48414, Note_on_c, 0, 59, 67
2, 48537, Note_on_c, 0, 90, 0
2, 48544, Note_on_c, 0, 78, 0
2, 48545, Note_on_c, 0, 66, 0
2, 48562, Note_on_c, 0, 55, 0
2, 48597, Control_c, 0, 64, 0
2, 48610, Note_on_c, 0, 55, 22
2, 48653, Note_on_c, 0, 88, 71
2, 48657, Note_on_c, 0, 76, 58
2, 48736, Note_on_c, 0, 88, 0
2, 48739, Note_on_c, 0, 55, 0
2, 48742, Control_c, 0, 64, 127
2, 48743, Note_on_c, 0, 76, 0
2, 48776, Note_on_c, 0, 59, 0
2, 48782, Note_on_c, 0, 62, 0
2, 48851, Note_on_c, 0, 66, 30
2, 48853, Note_on_c, 0, 75, 65
2, 48862, Note_on_c, 0, 87, 54
2, 48871, Note_on_c, 0, 59, 22
2, 48895, Note_on_c, 0, 66, 0
2, 48912, Note_on_c, 0, 85, 21
2, 48932, Note_on_c, 0, 59, 0
2, 48956, Note_on_c, 0, 85, 0
2, 48972, Control_c, 0, 64, 0
2, 48973, Note_on_c, 0, 75, 0
2, 48975, Note_on_c, 0, 87, 0
2, 49064, Note_on_c, 0, 66, 48
2, 49079, Note_on_c, 0, 61, 55
2, 49085, Note_on_c, 0, 55, 41
2, 49092, Note_on_c, 0, 76, 62
2, 49096, Note_on_c, 0, 88, 55
2, 49171, Control_c, 0, 64, 127
2, 49309, Note_on_c, 0, 88, 0
2, 49317, Note_on_c, 0, 76, 0
2, 49332, Note_on_c, 0, 55, 0
2, 49362, Note_on_c, 0, 61, 0
2, 49383, Note_on_c, 0, 66, 0
2, 49585, Note_on_c, 0, 90, 55
2, 49586, Note_on_c, 0, 78, 42
2, 49590, Note_on_c, 0, 66, 47
2, 49602, Note_on_c, 0, 61, 46
2, 49618, Note_on_c, 0, 55, 36
2, 49793, Note_on_c, 0, 90, 0
2, 49812, Note_on_c, 0, 55, 0
2, 49826, Note_on_c, 0, 78, 0
2, 49853, Note_on_c, 0, 61, 0
2, 49889, Note_on_c, 0, 66, 0
2, 50058, Note_on_c, 0, 66, 33
2, 50062, Note_on_c, 0, 88, 36
2, 50067, Control_c, 0, 64, 0
2, 50068, Note_on_c, 0, 61, 37
2, 50078, Note_on_c, 0, 76, 43
2, 50104, Note_on_c, 0, 55, 24
2, 50286, Control_c, 0, 64, 127
2, 51160, Note_on_c, 0, 76, 0
2, 51170, Note_on_c, 0, 86, 51
2, 51199, Note_on_c, 0, 88, 0
2, 51352, Note_on_c, 0, 55, 0
2, 51353, Note_on_c, 0, 86, 0
2, 51396, Note_on_c, 0, 66, 0
2, 51435, Note_on_c, 0, 88, 63
2, 51648, Note_on_c, 0, 88, 0
2, 51684, Note_on_c, 0, 85, 45
2, 51844, Note_on_c, 0, 54, 25
2, 51866, Note_on_c, 0, 64, 33
2, 51892, Control_c, 0, 64, 0
2, 51914, Note_on_c, 0, 85, 0
2, 51956, Note_on_c, 0, 86, 51
2, 52094, Note_on_c, 0, 59, 1
2, 52152, Control_c, 0, 64, 127
2, 52313, Note_on_c, 0, 86, 0
2, 52349, Note_on_c, 0, 88, 55
2, 52697, Note_on_c, 0, 88, 0
2, 52707, Note_on_c, 0, 86, 56
2, 52964, Note_on_c, 0, 86, 0
2, 52977, Note_on_c, 0, 88, 45
2, 53076, Note_on_c, 0, 86, 44
2, 53120, Note_on_c, 0, 88, 0
2, 53221, Note_on_c, 0, 85, 50
2, 53227, Control_c, 0, 64, 0
2, 53236, Note_on_c, 0, 86, 0
2, 53359, Note_on_c, 0, 85, 0
2, 53424, Note_on_c, 0, 86, 66
2, 53758, Control_c, 0, 64, 127
2, 53779, Note_on_c, 0, 88, 58
2, 53782, Note_on_c, 0, 86, 0
2, 54059, Note_on_c, 0, 86, 66
2, 54103, Note_on_c, 0, 88, 0
2, 54266, Note_on_c, 0, 59, 0
2, 54311, Note_on_c, 0, 88, 47
2, 54324, Note_on_c, 0, 86, 0
2, 54329, Note_on_c, 0, 64, 0
2, 54347, Note_on_c, 0, 61, 0
2, 54355, Note_on_c, 0, 54, 0
2, 54431, Note_on_c, 0, 86, 38
2, 54472, Note_on_c, 0, 88, 0
2, 54622, Note_on_c, 0, 85, 34
2, 54631, Note_on_c, 0, 86, 0
2, 54732, Note_on_c, 0, 85, 0
2, 54748, Note_on_c, 0, 59, 35
2, 54773, Note_on_c, 0, 53, 36
2, 54775, Note_on_c, 0, 64, 33
2, 54790, Control_c, 0, 64, 0
2, 54799, Note_on_c, 0, 86, 57
2, 55229, Control_c, 0, 64, 127
2, 55995, Note_on_c, 0, 88, 79
2, 56050, Note_on_c, 0, 86, 0
2, 56561, Note_on_c, 0, 64, 0
2, 56657, Note_on_c, 0, 64, 37
2, 56667, Note_on_c, 0, 88, 0
2, 56669, Note_on_c, 0, 86, 68
2, 57053, Note_on_c, 0, 85, 54
2, 57113, Note_on_c, 0, 86, 0
2, 57207, Note_on_c, 0, 59, 0
2, 57233, Note_on_c, 0, 53, 0
2, 57253, Note_on_c, 0, 64, 0
2, 57264, Note_on_c, 0, 85, 0
2, 57320, Note_on_c, 0, 86, 56
2, 57556, Note_on_c, 0, 86, 0
2, 57577, Note_on_c, 0, 88, 52
2, 57712, Note_on_c, 0, 61, 23
2, 57724, Note_on_c, 0, 64, 29
2, 57740, Note_on_c, 0, 54, 18
2, 57745, Note_on_c, 0, 59, 45
2, 57751, Control_c, 0, 64, 0
2, 57787, Note_on_c, 0, 88, 0
2, 57806, Note_on_c, 0, 85, 56
2, 58054, Control_c, 0, 64, 127
2, 58245, Note_on_c, 0, 85, 0
2, 58261, Note_on_c, 0, 59, 0
2, 58263, Note_on_c, 0, 64, 0
2, 58295, Note_on_c, 0, 61, 0
2, 58299, Note_on_c, 0, 54, 0
2, 58418, Note_on_c, 0, 85, 63
2, 58734, Note_on_c, 0, 85, 0
2, 58840, Note_on_c, 0, 85, 50
2, 59745, Note_on_c, 0, 85, 0
2, 59875, Note_on_c, 0, 86, 89
2, 60142, Note_on_c, 0, 86, 0
2, 60192, Note_on_c, 0, 85, 75
2, 60340, Note_on_c, 0, 85, 0
2, 60428, Note_on_c, 0, 84, 50
2, 60555, Note_on_c, 0, 84, 0
2, 60598, Control_c, 0, 64, 0
2, 60651, Note_on_c, 0, 85, 69
2, 60848, Control_c, 0, 64, 127
2, 62005, Note_on_c, 0, 86, 74
2, 62072, Note_on_c, 0, 85, 0
2, 62382, Note_on_c, 0, 86, 0
2, 62465, Note_on_c, 0, 85, 62
2, 63906, Note_on_c, 0, 83, 60
2, 64008, Note_on_c, 0, 85, 0
2, 64175, Note_on_c, 0, 83, 0
2, 64395, Note_on_c, 0, 83, 77
2, 64865, Note_on_c, 0, 61, 46
2, 64874, Note_on_c, 0, 65, 59
2, 64876, Note_on_c, 0, 62, 70
2, 65040, Control_c, 0, 64, 0
2, 65175, Control_c, 0, 64, 127
2, 65264, Note_on_c, 0, 62, 0
2, 65269, Note_on_c, 0, 65, 0
2, 65284, Note_on_c, 0, 61, 0
2, 65331, Control_c, 0, 64, 0
2, 65347, Note_on_c, 0, 65, 80
2, 65349, Note_on_c, 0, 61, 74
2, 65358, Note_on_c, 0, 62, 90
2, 65499, Control_c, 0, 64, 127
2, 65663, Note_on_c, 0, 62, 0
2, 65680, Note_on_c, 0, 65, 0
2, 65694, Note_on_c, 0, 61, 0
2, 65843, Note_on_c, 0, 61, 67
2, 65845, Note_on_c, 0, 65, 75
2, 65854, Note_on_c, 0, 62, 79
2, 65864, Control_c, 0, 64, 0
2, 65999, Control_c, 0, 64, 127
2, 66106, Note_on_c, 0, 62, 0
2, 66144, Note_on_c, 0, 65, 0
2, 66179, Note_on_c, 0, 61, 0
2, 66312, Control_c, 0, 64, 0
2, 66340, Note_on_c, 0, 67, 79
2, 66343, Note_on_c, 0, 62, 72
2, 66346, Note_on_c, 0, 56, 59
2, 66573, Control_c, 0, 64, 127
2, 66820, Note_on_c, 0, 83, 0
2, 66850, Note_on_c, 0, 88, 71
2, 67204, Note_on_c, 0, 88, 0
2, 67206, Note_on_c, 0, 67, 0
2, 67329, Note_on_c, 0, 76, 53
2, 67684, Note_on_c, 0, 76, 0
2, 67804, Note_on_c, 0, 76, 46
2, 68138, Note_on_c, 0, 76, 0
2, 68279, Note_on_c, 0, 76, 37
2, 68523, Note_on_c, 0, 56, 0
2, 68558, Note_on_c, 0, 76, 0
2, 68655, Note_on_c, 0, 62, 0
2, 68746, Note_on_c, 0, 56, 31
2, 68844, Note_on_c, 0, 56, 0
2, 69738, Note_on_c, 0, 85, 82
2, 69752, Control_c, 0, 64, 0
2, 69762, Note_on_c, 0, 61, 39
2, 69771, Note_on_c, 0, 54, 36
2, 69772, Note_on_c, 0, 64, 56
2, 69790, Note_on_c, 0, 59, 55
2, 69796, Note_on_c, 0, 73, 49
2, 70065, Control_c, 0, 64, 127
2, 70226, Note_on_c, 0, 59, 0
2, 70275, Note_on_c, 0, 64, 0
2, 70436, Note_on_c, 0, 73, 0
2, 70445, Note_on_c, 0, 54, 0
2, 70470, Note_on_c, 0, 85, 0
2, 70522, Note_on_c, 0, 61, 0
2, 70718, Note_on_c, 0, 54, 32
2, 70735, Note_on_c, 0, 74, 78
2, 70751, Note_on_c, 0, 86, 71
2, 70753, Note_on_c, 0, 61, 55
2, 70756, Note_on_c, 0, 59, 58
2, 70774, Note_on_c, 0, 64, 69
2, 70816, Control_c, 0, 64, 0
2, 71003, Control_c, 0, 64, 127
2, 71048, Note_on_c, 0, 74, 0
2, 71052, Note_on_c, 0, 59, 0
2, 71063, Note_on_c, 0, 64, 0
2, 71071, Note_on_c, 0, 86, 0
2, 71116, Note_on_c, 0, 61, 0
2, 71216, Note_on_c, 0, 73, 57
2, 71256, Note_on_c, 0, 64, 50
2, 71259, Note_on_c, 0, 61, 36
2, 71265, Note_on_c, 0, 59, 45
2, 71273, Note_on_c, 0, 85, 74
2, 71412, Note_on_c, 0, 64, 0
2, 71439, Note_on_c, 0, 59, 0
2, 71448, Note_on_c, 0, 61, 0
2, 71512, Note_on_c, 0, 73, 0
2, 71570, Note_on_c, 0, 85, 0
2, 71651, Note_on_c, 0, 72, 58
2, 71684, Note_on_c, 0, 64, 43
2, 71690, Note_on_c, 0, 61, 32
2, 71715, Note_on_c, 0, 59, 25
2, 71717, Note_on_c, 0, 84, 60
2, 71761, Note_on_c, 0, 59, 0
2, 71787, Note_on_c, 0, 64, 0
2, 71797, Note_on_c, 0, 72, 0
2, 71821, Note_on_c, 0, 61, 0
2, 71882, Note_on_c, 0, 54, 0
2, 71938, Note_on_c, 0, 84, 0
2, 72114, Note_on_c, 0, 73, 54
2, 72140, Control_c, 0, 64, 0
2, 72141, Note_on_c, 0, 57, 47
2, 72142, Note_on_c, 0, 54, 31
2, 72152, Note_on_c, 0, 64, 41
2, 72153, Note_on_c, 0, 61, 25
2, 72208, Note_on_c, 0, 85, 62
2, 72360, Control_c, 0, 64, 127
2, 72768, Note_on_c, 0, 64, 0
2, 72802, Note_on_c, 0, 61, 0
2, 72807, Note_on_c, 0, 57, 0
2, 72882, Note_on_c, 0, 54, 0
2, 73169, Note_on_c, 0, 73, 0
2, 73265, Note_on_c, 0, 85, 0
2, 73527, Note_on_c, 0, 86, 62
2, 73542, Note_on_c, 0, 74, 46
2, 73728, Note_on_c, 0, 86, 0
2, 73755, Note_on_c, 0, 74, 0
2, 74532, Note_on_c, 0, 85, 61
2, 74802, Note_on_c, 0, 85, 0
2, 74836, Note_on_c, 0, 72, 35
2, 74946, Note_on_c, 0, 72, 0
2, 75133, Control_c, 0, 64, 0
2, 75160, Note_on_c, 0, 83, 36
2, 75177, Note_on_c, 0, 71, 37
2, 75475, Note_on_c, 0, 83, 0
2, 75488, Control_c, 0, 64, 127
2, 75504, Note_on_c, 0, 71, 0
2, 75581, Note_on_c, 0, 71, 26
2, 75583, Note_on_c, 0, 83, 30
2, 75654, Control_c, 0, 64, 0
2, 75769, Control_c, 0, 64, 127
2, 75837, Note_on_c, 0, 83, 0
2, 75878, Note_on_c, 0, 71, 0
2, 75972, Note_on_c, 0, 71, 30
2, 75975, Note_on_c, 0, 83, 34
2, 75999, Control_c, 0, 64, 0
2, 76051, Control_c, 0, 64, 127
2, 77239, Control_c, 0, 64, 0
2, 77243, Note_on_c, 0, 61, 50
2, 77254, Note_on_c, 0, 65, 45
2, 77278, Note_on_c, 0, 62, 46
2, 77406, Control_c, 0, 64, 127
2, 77426, Note_on_c, 0, 62, 0
2, 77474, Note_on_c, 0, 61, 0
2, 77510, Note_on_c, 0, 65, 0
2, 77693, Note_on_c, 0, 71, 0
2, 77780, Note_on_c, 0, 67, 50
2, 77793, Note_on_c, 0, 62, 52
2, 77799, Note_on_c, 0, 56, 34
2, 77812, Control_c, 0, 64, 0
2, 78073, Control_c, 0, 64, 127
2, 78449, Note_on_c, 0, 67, 0
2, 78520, Note_on_c, 0, 62, 0
2, 78576, Note_on_c, 0, 83, 0
2, 78849, Note_on_c, 0, 65, 28
2, 78862, Note_on_c, 0, 62, 29
2, 79132, Note_on_c, 0, 83, 76
2, 79356, Note_on_c, 0, 83, 0
2, 79476, Note_on_c, 0, 85, 78
2, 79633, Note_on_c, 0, 65, 0
2, 79670, Note_on_c, 0, 62, 0
2, 79737, Note_on_c, 0, 85, 0
2, 79835, Control_c, 0, 64, 0
2, 79842, Note_on_c, 0, 83, 75
2, 79875, Note_on_c, 0, 65, 24
2, 79879, Note_on_c, 0, 62, 27
2, 80055, Control_c, 0, 64, 127
2, 80081, Note_on_c, 0, 82, 59
2, 80082, Note_on_c, 0, 83, 0
2, 80279, Note_on_c, 0, 82, 0
2, 80363, Note_on_c, 0, 83, 65
2, 80380, Note_on_c, 0, 62, 0
2, 80424, Note_on_c, 0, 65, 0
2, 80538, Note_on_c, 0, 83, 0
2, 80553, Note_on_c, 0, 56, 0
2, 80629, Note_on_c, 0, 80, 49
2, 80837, Control_c, 0, 64, 0
2, 80850, Note_on_c, 0, 80, 0
2, 80921, Note_on_c, 0, 81, 47
2, 81240, Note_on_c, 0, 64, 49
2, 81250, Note_on_c, 0, 61, 33
2, 81261, Note_on_c, 0, 59, 53
2, 81310, Note_on_c, 0, 59, 0
2, 81330, Note_on_c, 0, 61, 0
2, 81336, Note_on_c, 0, 64, 0
2, 81671, Control_c, 0, 64, 127
2, 81727, Note_on_c, 0, 61, 36
2, 81732, Note_on_c, 0, 64, 34
2, 81741, Note_on_c, 0, 59, 48
2, 82152, Note_on_c, 0, 81, 0
2, 82193, Note_on_c, 0, 83, 80
2, 82370, Note_on_c, 0, 59, 0
2, 82393, Note_on_c, 0, 64, 0
2, 82449, Note_on_c, 0, 61, 0
2, 82555, Note_on_c, 0, 83, 0
2, 82642, Note_on_c, 0, 61, 39
2, 82651, Note_on_c, 0, 64, 41
2, 82662, Note_on_c, 0, 59, 49
2, 82664, Note_on_c, 0, 81, 76
2, 83012, Note_on_c, 0, 64, 0
2, 83040, Note_on_c, 0, 61, 0
2, 83041, Note_on_c, 0, 59, 0
2, 83067, Note_on_c, 0, 81, 0
2, 83110, Note_on_c, 0, 80, 65
2, 83511, Note_on_c, 0, 80, 0
2, 83564, Note_on_c, 0, 81, 78
2, 83578, Control_c, 0, 64, 0
2, 83725, Control_c, 0, 64, 127
2, 84019, Note_on_c, 0, 68, 62
2, 84025, Note_on_c, 0, 81, 0
2, 84026, Note_on_c, 0, 57, 60
2, 84027, Note_on_c, 0, 64, 61
2, 84030, Note_on_c, 0, 61, 55
2, 84079, Control_c, 0, 64, 0
2, 84092, Note_on_c, 0, 83, 87
2, 84116, Note_on_c, 0, 82, 52
2, 84151, Note_on_c, 0, 82, 0
2, 84423, Control_c, 0, 64, 127
2, 84496, Note_on_c, 0, 83, 0
2, 84553, Note_on_c, 0, 81, 79
2, 85009, Note_on_c, 0, 80, 75
2, 85100, Note_on_c, 0, 81, 0
2, 85397, Note_on_c, 0, 80, 0
2, 85483, Note_on_c, 0, 81, 57
2, 85669, Note_on_c, 0, 81, 0
2, 85711, Note_on_c, 0, 68, 0
2, 85801, Note_on_c, 0, 64, 0
2, 85919, Note_on_c, 0, 57, 0
2, 85953, Note_on_c, 0, 61, 0
2, 85985, Note_on_c, 0, 78, 50
2, 86429, Note_on_c, 0, 78, 0
2, 86456, Note_on_c, 0, 57, 37
2, 86465, Note_on_c, 0, 66, 25
2, 86467, Control_c, 0, 64, 0
2, 86470, Note_on_c, 0, 76, 49
2, 86473, Note_on_c, 0, 62, 36
2, 86914, Control_c, 0, 64, 127
2, 86981, Note_on_c, 0, 83, 49
2, 87247, Note_on_c, 0, 83, 0
2, 87512, Note_on_c, 0, 83, 42
2, 87668, Note_on_c, 0, 76, 0
2, 88728, Note_on_c, 0, 57, 0
2, 88772, Note_on_c, 0, 62, 0
2, 88787, Note_on_c, 0, 66, 0
2, 89011, Note_on_c, 0, 83, 0
2, 89314, Control_c, 0, 64, 0
2, 89315, Note_on_c, 0, 80, 36
2, 89328, Note_on_c, 0, 67, 26
2, 89335, Note_on_c, 0, 62, 32
2, 89339, Note_on_c, 0, 56, 23
2, 89553, Control_c, 0, 64, 127
2, 89825, Note_on_c, 0, 76, 49
2, 89842, Note_on_c, 0, 80, 0
2, 89918, Note_on_c, 0, 76, 0
2, 90269, Note_on_c, 0, 88, 33
2, 90313, Note_on_c, 0, 76, 48
2, 90317, Note_on_c, 0, 67, 0
2, 90369, Note_on_c, 0, 76, 0
2, 90432, Note_on_c, 0, 88, 0
2, 90435, Note_on_c, 0, 62, 0
2, 90750, Note_on_c, 0, 100, 57
2, 90814, Note_on_c, 0, 88, 28
2, 91030, Note_on_c, 0, 100, 0
2, 91039, Note_on_c, 0, 88, 0
2, 91602, Note_on_c, 0, 56, 0
2, 92718, Note_on_c, 0, 55, 47
2, 92733, Note_on_c, 0, 88, 79
2, 92759, Note_on_c, 0, 59, 60
2, 92785, Note_on_c, 0, 62, 60
2, 92790, Note_on_c, 0, 83, 74
2, 92791, Note_on_c, 0, 85, 33
2, 92796, Control_c, 0, 64, 0
2, 92797, Note_on_c, 0, 66, 61
2, 92816, Note_on_c, 0, 86, 30
2, 92834, Note_on_c, 0, 85, 0
2, 92866, Note_on_c, 0, 76, 34
2, 92877, Note_on_c, 0, 86, 0
2, 93045, Control_c, 0, 64, 127
2, 93274, Note_on_c, 0, 76, 0
2, 93369, Note_on_c, 0, 83, 0
2, 93434, Note_on_c, 0, 76, 35
2, 93456, Note_on_c, 0, 88, 0
2, 93465, Note_on_c, 0, 66, 0
2, 93489, Note_on_c, 0, 55, 0
2, 93499, Note_on_c, 0, 59, 0
2, 93554, Note_on_c, 0, 76, 0
2, 93557, Note_on_c, 0, 62, 0
2, 93985, Note_on_c, 0, 66, 81
2, 93990, Note_on_c, 0, 90, 83
2, 93992, Note_on_c, 0, 55, 76
2, 93993, Note_on_c, 0, 78, 85
2, 93997, Control_c, 0, 64, 0
2, 93998, Note_on_c, 0, 62, 72
2, 94004, Note_on_c, 0, 59, 76
2, 94012, Note_on_c, 0, 83, 64
2, 94048, Note_on_c, 0, 83, 0
2, 94183, Control_c, 0, 64, 127
2, 94347, Note_on_c, 0, 78, 0
2, 94349, Note_on_c, 0, 90, 0
2, 94387, Note_on_c, 0, 59, 0
2, 94402, Note_on_c, 0, 55, 0
2, 94446, Note_on_c, 0, 66, 0
2, 94464, Note_on_c, 0, 62, 0
2, 94580, Note_on_c, 0, 66, 65
2, 94581, Note_on_c, 0, 88, 73
2, 94595, Note_on_c, 0, 62, 47
2, 94600, Note_on_c, 0, 55, 55
2, 94603, Note_on_c, 0, 76, 77
2, 94613, Note_on_c, 0, 59, 64
2, 94648, Note_on_c, 0, 86, 32
2, 94719, Note_on_c, 0, 55, 0
2, 94720, Note_on_c, 0, 76, 0
2, 94721, Note_on_c, 0, 88, 0
2, 94739, Note_on_c, 0, 66, 0
2, 94740, Note_on_c, 0, 86, 0
2, 94751, Note_on_c, 0, 59, 0
2, 94811, Note_on_c, 0, 66, 54
2, 94823, Note_on_c, 0, 55, 54
2, 94827, Note_on_c, 0, 87, 68
2, 94829, Note_on_c, 0, 75, 74
2, 94846, Note_on_c, 0, 59, 62
2, 94944, Note_on_c, 0, 62, 0
2, 94960, Note_on_c, 0, 55, 0
2, 94975, Note_on_c, 0, 66, 0
2, 94985, Note_on_c, 0, 75, 0
2, 94992, Note_on_c, 0, 87, 0
2, 94999, Note_on_c, 0, 59, 0
2, 95048, Control_c, 0, 64, 0
2, 95095, Note_on_c, 0, 83, 71
2, 95097, Note_on_c, 0, 66, 75
2, 95098, Note_on_c, 0, 88, 76
2, 95099, Note_on_c, 0, 61, 74
2, 95101, Note_on_c, 0, 76, 77
2, 95108, Note_on_c, 0, 55, 74
2, 95249, Control_c, 0, 64, 127
2, 95286, Note_on_c, 0, 76, 0
2, 95290, Note_on_c, 0, 88, 0
2, 95383, Note_on_c, 0, 83, 0
2, 95412, Note_on_c, 0, 55, 0
2, 95475, Note_on_c, 0, 66, 0
2, 95504, Note_on_c, 0, 61, 0
2, 95621, Note_on_c, 0, 66, 73
2, 95624, Note_on_c, 0, 90, 72
2, 95628, Note_on_c, 0, 61, 56
2, 95629, Note_on_c, 0, 78, 74
2, 95630, Note_on_c, 0, 55, 74
2, 95638, Note_on_c, 0, 83, 70
2, 95666, Control_c, 0, 64, 0
2, 95749, Control_c, 0, 64, 127
2, 95925, Note_on_c, 0, 55, 0
2, 95928, Note_on_c, 0, 90, 0
2, 95947, Note_on_c, 0, 83, 0
2, 95962, Note_on_c, 0, 78, 0
2, 95992, Note_on_c, 0, 66, 0
2, 96000, Note_on_c, 0, 61, 0
2, 96109, Note_on_c, 0, 88, 58
2, 96110, Note_on_c, 0, 66, 56
2, 96111, Note_on_c, 0, 61, 43
2, 96112, Note_on_c, 0, 76, 57
2, 96113, Note_on_c, 0, 83, 58
2, 96115, Control_c, 0, 64, 0
2, 96124, Note_on_c, 0, 55, 54
2, 96281, Control_c, 0, 64, 127
2, 96315, Note_on_c, 0, 88, 0
2, 96372, Note_on_c, 0, 83, 0
2, 96381, Note_on_c, 0, 76, 0
2, 96392, Note_on_c, 0, 55, 0
2, 96434, Note_on_c, 0, 66, 0
2, 96464, Note_on_c, 0, 61, 0
2, 96521, Control_c, 0, 64, 0
2, 96559, Note_on_c, 0, 66, 46
2, 96563, Note_on_c, 0, 87, 48
2, 96568, Note_on_c, 0, 61, 53
2, 96573, Note_on_c, 0, 55, 48
2, 96575, Note_on_c, 0, 75, 49
2, 96577, Note_on_c, 0, 82, 51
2, 96646, Control_c, 0, 64, 127
2, 96819, Note_on_c, 0, 82, 0
2, 96821, Note_on_c, 0, 55, 0
2, 96839, Note_on_c, 0, 75, 0
2, 96856, Note_on_c, 0, 87, 0
2, 96866, Note_on_c, 0, 61, 0
2, 96880, Note_on_c, 0, 66, 0
2, 97026, Note_on_c, 0, 66, 50
2, 97035, Note_on_c, 0, 61, 50
2, 97039, Note_on_c, 0, 88, 49
2, 97042, Control_c, 0, 64, 0
2, 97058, Note_on_c, 0, 55, 32
2, 97074, Note_on_c, 0, 76, 26
2, 97115, Control_c, 0, 64, 127
2, 97159, Note_on_c, 0, 88, 0
2, 97220, Note_on_c, 0, 76, 0
2, 97244, Note_on_c, 0, 55, 0
2, 97345, Note_on_c, 0, 66, 0
2, 97392, Note_on_c, 0, 61, 0
2, 97675, Note_on_c, 0, 66, 38
2, 97676, Note_on_c, 0, 73, 39
2, 97677, Note_on_c, 0, 85, 57
2, 97682, Note_on_c, 0, 61, 40
2, 97693, Note_on_c, 0, 55, 34
2, 97772, Note_on_c, 0, 55, 0
2, 97792, Note_on_c, 0, 73, 0
2, 97803, Note_on_c, 0, 66, 0
2, 97844, Note_on_c, 0, 85, 0
2, 97882, Note_on_c, 0, 61, 0
2, 97994, Control_c, 0, 64, 0
2, 98005, Note_on_c, 0, 86, 51
2, 98010, Note_on_c, 0, 65, 40
2, 98017, Note_on_c, 0, 54, 21
2, 98019, Note_on_c, 0, 74, 40
2, 98021, Note_on_c, 0, 82, 33
2, 98030, Note_on_c, 0, 60, 33
2, 98036, Note_on_c, 0, 58, 29
2, 98234, Control_c, 0, 64, 127
2, 98358, Note_on_c, 0, 58, 0
2, 98372, Note_on_c, 0, 60, 0
2, 98385, Note_on_c, 0, 65, 0
2, 98389, Note_on_c, 0, 82, 0
2, 98391, Note_on_c, 0, 54, 0
2, 98396, Note_on_c, 0, 86, 0
2, 98397, Note_on_c, 0, 74, 0
2, 98975, Note_on_c, 0, 74, 34
2, 98982, Note_on_c, 0, 77, 34
2, 98990, Note_on_c, 0, 65, 24
2, 99012, Note_on_c, 0, 60, 22
2, 99376, Note_on_c, 0, 74, 0
2, 99423, Note_on_c, 0, 60, 0
2, 99468, Note_on_c, 0, 77, 0
2, 99484, Note_on_c, 0, 65, 0
2, 100040, Note_on_c, 0, 88, 69
2, 100341, Note_on_c, 0, 88, 0
2, 100425, Note_on_c, 0, 86, 71
2, 100661, Note_on_c, 0, 86, 0
2, 100681, Note_on_c, 0, 85, 62
2, 100837, Note_on_c, 0, 53, 32
2, 100839, Note_on_c, 0, 59, 31
2, 100850, Control_c, 0, 64, 0
2, 100851, Note_on_c, 0, 64, 26
2, 100890, Note_on_c, 0, 85, 0
2, 100937, Note_on_c, 0, 86, 50
2, 101236, Control_c, 0, 64, 127
2, 101725, Note_on_c, 0, 86, 0
2, 101739, Note_on_c, 0, 88, 61
2, 101914, Control_c, 0, 64, 0
2, 102038, Note_on_c, 0, 86, 60
2, 102039, Note_on_c, 0, 88, 0
2, 102206, Control_c, 0, 64, 127
2, 102230, Note_on_c, 0, 85, 54
2, 102240, Note_on_c, 0, 86, 0
2, 102380, Note_on_c, 0, 85, 0
2, 102425, Control_c, 0, 64, 0
2, 102450, Note_on_c, 0, 86, 60
2, 102581, Control_c, 0, 64, 127
2, 102850, Note_on_c, 0, 88, 63
2, 102904, Note_on_c, 0, 86, 0
2, 103162, Note_on_c, 0, 88, 0
2, 103181, Note_on_c, 0, 86, 58
2, 103260, Note_on_c, 0, 64, 0
2, 103291, Note_on_c, 0, 59, 0
2, 103329, Note_on_c, 0, 86, 0
2, 103339, Note_on_c, 0, 53, 0
2, 103361, Note_on_c, 0, 85, 50
2, 103462, Note_on_c, 0, 85, 0
2, 103569, Note_on_c, 0, 86, 54
2, 103634, Control_c, 0, 64, 0
2, 103648, Note_on_c, 0, 52, 49
2, 103658, Note_on_c, 0, 63, 39
2, 103660, Note_on_c, 0, 58, 33
2, 103779, Note_on_c, 0, 86, 0
2, 103794, Note_on_c, 0, 88, 46
2, 104020, Note_on_c, 0, 88, 0
2, 104060, Note_on_c, 0, 86, 49
2, 104261, Control_c, 0, 64, 127
2, 104353, Note_on_c, 0, 86, 0
2, 104364, Note_on_c, 0, 85, 32
2, 104558, Note_on_c, 0, 85, 0
2, 104651, Note_on_c, 0, 85, 42
2, 104935, Note_on_c, 0, 85, 0
2, 105071, Note_on_c, 0, 85, 57
2, 105304, Note_on_c, 0, 85, 0
2, 105390, Note_on_c, 0, 58, 0
2, 105405, Note_on_c, 0, 52, 0
2, 105525, Note_on_c, 0, 63, 0
2, 105580, Note_on_c, 0, 85, 55
2, 106002, Control_c, 0, 64, 0
2, 106023, Note_on_c, 0, 59, 61
2, 106024, Note_on_c, 0, 68, 48
2, 106035, Note_on_c, 0, 64, 54
2, 106043, Note_on_c, 0, 63, 35
2, 106210, Control_c, 0, 64, 127
2, 106285, Note_on_c, 0, 59, 0
2, 106314, Note_on_c, 0, 64, 0
2, 106368, Note_on_c, 0, 68, 0
2, 106391, Note_on_c, 0, 63, 0
2, 106502, Control_c, 0, 64, 0
2, 106566, Note_on_c, 0, 68, 45
2, 106569, Note_on_c, 0, 58, 45
2, 106585, Note_on_c, 0, 63, 37
2, 106593, Note_on_c, 0, 64, 48
2, 106751, Control_c, 0, 64, 127
2, 106781, Note_on_c, 0, 85, 0
2, 107101, Note_on_c, 0, 86, 88
2, 107112, Note_on_c, 0, 85, 60
2, 107147, Note_on_c, 0, 85, 0
2, 107408, Note_on_c, 0, 86, 0
2, 107440, Note_on_c, 0, 85, 75
2, 107455, Note_on_c, 0, 86, 55
2, 107693, Note_on_c, 0, 86, 0
2, 107704, Note_on_c, 0, 85, 0
2, 107832, Note_on_c, 0, 85, 83
2, 108108, Note_on_c, 0, 84, 79
2, 108194, Note_on_c, 0, 85, 0
2, 108284, Note_on_c, 0, 84, 0
2, 108422, Note_on_c, 0, 84, 84
2, 108604, Note_on_c, 0, 64, 0
2, 108617, Note_on_c, 0, 84, 0
2, 108623, Note_on_c, 0, 68, 0
2, 108673, Note_on_c, 0, 85, 77
2, 108745, Note_on_c, 0, 58, 0
2, 108788, Note_on_c, 0, 63, 0
2, 108859, Note_on_c, 0, 85, 0
2, 108946, Note_on_c, 0, 85, 69
2, 109152, Note_on_c, 0, 85, 0
2, 109473, Control_c, 0, 64, 0
2, 109491, Note_on_c, 0, 67, 37
2, 109494, Note_on_c, 0, 83, 50
2, 109496, Note_on_c, 0, 62, 33
2, 109507, Note_on_c, 0, 57, 31
2, 109508, Note_on_c, 0, 63, 29
2, 109744, Control_c, 0, 64, 127
2, 110003, Note_on_c, 0, 83, 0
2, 110040, Note_on_c, 0, 67, 0
2, 110188, Note_on_c, 0, 62, 0
2, 110233, Note_on_c, 0, 63, 0
2, 110454, Note_on_c, 0, 71, 44
2, 110460, Note_on_c, 0, 75, 36
2, 110461, Note_on_c, 0, 62, 22
2, 110465, Note_on_c, 0, 79, 38
2, 110485, Note_on_c, 0, 67, 34
2, 110503, Note_on_c, 0, 63, 25
2, 111038, Note_on_c, 0, 67, 0
2, 111084, Note_on_c, 0, 62, 0
2, 111137, Note_on_c, 0, 63, 0
2, 111433, Note_on_c, 0, 62, 17
2, 111448, Note_on_c, 0, 67, 33
2, 111451, Note_on_c, 0, 71, 0
2, 111466, Note_on_c, 0, 63, 27
2, 111498, Note_on_c, 0, 75, 0
2, 111502, Note_on_c, 0, 79, 0
2, 111802, Note_on_c, 0, 67, 0
2, 111846, Note_on_c, 0, 62, 0
2, 111941, Note_on_c, 0, 83, 80
2, 111958, Note_on_c, 0, 57, 0
2, 111971, Note_on_c, 0, 63, 0
2, 112120, Note_on_c, 0, 83, 0
2, 112121, Note_on_c, 0, 82, 71
2, 112294, Note_on_c, 0, 82, 0
2, 112356, Note_on_c, 0, 83, 76
2, 112372, Control_c, 0, 64, 0
2, 112581, Control_c, 0, 64, 127
2, 112831, Note_on_c, 0, 52, 31
2, 112895, Note_on_c, 0, 52, 0
2, 113306, Note_on_c, 0, 85, 74
2, 113313, Note_on_c, 0, 66, 51
2, 113325, Note_on_c, 0, 56, 42
2, 113327, Note_on_c, 0, 62, 55
2, 113350, Note_on_c, 0, 83, 0
2, 113373, Control_c, 0, 64, 0
2, 113539, Control_c, 0, 64, 127
2, 114144, Note_on_c, 0, 85, 0
2, 114576, Note_on_c, 0, 66, 0
2, 114631, Note_on_c, 0, 56, 0
2, 114693, Note_on_c, 0, 62, 0
2, 114800, Note_on_c, 0, 83, 48
2, 115200, Note_on_c, 0, 81, 75
2, 115307, Control_c, 0, 64, 127
2, 115392, Note_on_c, 0, 83, 0
2, 116229, Note_on_c, 0, 95, 55
2, 116249, Note_on_c, 0, 91, 46
2, 116254, Note_on_c, 0, 64, 36
2, 116257, Note_on_c, 0, 88, 42
2, 116259, Note_on_c, 0, 59, 36
2, 116262, Note_on_c, 0, 83, 37
2, 116267, Note_on_c, 0, 55, 32
2, 116275, Note_on_c, 0, 60, 28
2, 117047, Note_on_c, 0, 95, 0
2, 117075, Note_on_c, 0, 91, 0
2, 117087, Note_on_c, 0, 88, 0
2, 117156, Note_on_c, 0, 83, 0
2, 117535, Note_on_c, 0, 64, 0
2, 117553, Note_on_c, 0, 60, 0
2, 117612, Note_on_c, 0, 59, 0
2, 117629, Note_on_c, 0, 55, 0
2, 118076, Note_on_c, 0, 79, 63
2, 118080, Note_on_c, 0, 81, 0
2, 118080, Note_on_c, 0, 76, 75
2, 118082, Note_on_c, 0, 72, 81
2, 118083, Note_on_c, 0, 81, 77
2, 118084, Note_on_c, 0, 69, 90
2, 118092, Control_c, 0, 64, 0
2, 118102, Note_on_c, 0, 64, 76
2, 118117, Note_on_c, 0, 81, 0
2, 118330, Note_on_c, 0, 79, 0
2, 118341, Control_c, 0, 64, 127
2, 118375, Note_on_c, 0, 76, 0
2, 118393, Note_on_c, 0, 72, 0
2, 118440, Note_on_c, 0, 69, 0
2, 118636, Note_on_c, 0, 64, 0
2, 120405, Note_on_c, 0, 76, 85
2, 120673, Note_on_c, 0, 69, 64
2, 120823, Note_on_c, 0, 69, 0
2, 120988, Note_on_c, 0, 69, 54
2, 120995, Note_on_c, 0, 65, 54
2, 121016, Note_on_c, 0, 64, 39
2, 121017, Note_on_c, 0, 76, 0
2, 121031, Control_c, 0, 64, 0
2, 121364, Note_on_c, 0, 74, 57
2, 121375, Control_c, 0, 64, 127
2, 121672, Note_on_c, 0, 69, 0
2, 121698, Note_on_c, 0, 65, 0
2, 121978, Note_on_c, 0, 65, 47
2, 121980, Note_on_c, 0, 69, 52
2, 122479, Note_on_c, 0, 64, 0
2, 123220, Control_c, 0, 64, 0
2, 123231, Control_c, 0, 64, 127
2, 123352, Note_on_c, 0, 28, 50
2, 123418, Note_on_c, 0, 65, 0
2, 123432, Note_on_c, 0, 28, 0
2, 123529, Note_on_c, 0, 69, 0
2, 123547, Note_on_c, 0, 74, 0
2, 123901, Note_on_c, 0, 56, 42
2, 123909, Note_on_c, 0, 67, 57
2, 123914, Note_on_c, 0, 76, 53
2, 123915, Note_on_c, 0, 72, 45
2, 123930, Control_c, 0, 64, 0
2, 124023, Control_c, 0, 64, 127
2, 124096, Note_on_c, 0, 67, 0
2, 124165, Note_on_c, 0, 72, 0
2, 124177, Note_on_c, 0, 76, 0
2, 124389, Note_on_c, 0, 88, 79
2, 124425, Note_on_c, 0, 62, 28
2, 124506, Note_on_c, 0, 88, 0
2, 124873, Note_on_c, 0, 80, 42
2, 124878, Note_on_c, 0, 76, 53
2, 124890, Note_on_c, 0, 67, 42
2, 125350, Note_on_c, 0, 86, 66
2, 125426, Note_on_c, 0, 67, 0
2, 126207, Note_on_c, 0, 62, 0
2, 126208, Note_on_c, 0, 86, 0
2, 126228, Note_on_c, 0, 76, 0
2, 126258, Note_on_c, 0, 80, 0
2, 126264, Note_on_c, 0, 56, 0
2, 126355, Note_on_c, 0, 83, 83
2, 126715, Note_on_c, 0, 83, 0
2, 126798, Note_on_c, 0, 83, 63
2, 126799, Note_on_c, 0, 57, 38
2, 126800, Note_on_c, 0, 64, 38
2, 126803, Note_on_c, 0, 60, 29
2, 126808, Note_on_c, 0, 59, 38
2, 126855, Control_c, 0, 64, 0
2, 127046, Note_on_c, 0, 86, 57
2, 127179, Control_c, 0, 64, 127
2, 127196, Note_on_c, 0, 83, 0
2, 127211, Note_on_c, 0, 86, 0
2, 127283, Note_on_c, 0, 84, 58
2, 127477, Note_on_c, 0, 84, 0
2, 127677, Note_on_c, 0, 64, 0
2, 127783, Note_on_c, 0, 72, 36
2, 128157, Note_on_c, 0, 72, 0
2, 128267, Note_on_c, 0, 72, 48
2, 128970, Note_on_c, 0, 72, 0
2, 129110, Note_on_c, 0, 60, 0
2, 129201, Note_on_c, 0, 59, 0
2, 129208, Note_on_c, 0, 57, 0
2, 130143, Note_on_c, 0, 83, 91
2, 130146, Note_on_c, 0, 76, 99
2, 130158, Control_c, 0, 64, 0
2, 130174, Note_on_c, 0, 60, 33
2, 130175, Note_on_c, 0, 55, 47
2, 130176, Note_on_c, 0, 64, 50
2, 130366, Control_c, 0, 64, 127
2, 130558, Note_on_c, 0, 60, 0
2, 130626, Note_on_c, 0, 83, 0
2, 130644, Note_on_c, 0, 79, 54
2, 130648, Note_on_c, 0, 71, 64
2, 130689, Control_c, 0, 64, 0
2, 130886, Control_c, 0, 64, 127
2, 131115, Note_on_c, 0, 60, 29
2, 131222, Note_on_c, 0, 64, 0
2, 131303, Note_on_c, 0, 71, 0
2, 131569, Note_on_c, 0, 71, 36
2, 131613, Note_on_c, 0, 76, 0
2, 131622, Note_on_c, 0, 79, 0
2, 131778, Note_on_c, 0, 55, 0
2, 131821, Note_on_c, 0, 71, 0
2, 131886, Note_on_c, 0, 60, 0
2, 132014, Note_on_c, 0, 55, 39
2, 132144, Note_on_c, 0, 55, 0
2, 132481, Control_c, 0, 64, 0
2, 132489, Note_on_c, 0, 71, 41
2, 132504, Note_on_c, 0, 59, 52
2, 132509, Note_on_c, 0, 64, 46
2, 132517, Note_on_c, 0, 41, 33
2, 132647, Note_on_c, 0, 59, 0
2, 132697, Note_on_c, 0, 64, 0
2, 132699, Control_c, 0, 64, 127
2, 132757, Note_on_c, 0, 71, 0
2, 132988, Note_on_c, 0, 83, 67
2, 132992, Note_on_c, 0, 48, 41
2, 133002, Note_on_c, 0, 76, 64
2, 133053, Note_on_c, 0, 41, 0
2, 133056, Note_on_c, 0, 48, 0
2, 133303, Note_on_c, 0, 76, 0
2, 133429, Note_on_c, 0, 83, 0
2, 133480, Note_on_c, 0, 71, 48
2, 133488, Note_on_c, 0, 79, 40
2, 133497, Note_on_c, 0, 60, 26
2, 133507, Note_on_c, 0, 76, 37
2, 134005, Note_on_c, 0, 64, 32
2, 134260, Note_on_c, 0, 71, 0
2, 134467, Note_on_c, 0, 71, 40
2, 134602, Note_on_c, 0, 71, 0
2, 134634, Note_on_c, 0, 76, 0
2, 134666, Note_on_c, 0, 79, 0
2, 134945, Note_on_c, 0, 60, 0
2, 135049, Note_on_c, 0, 64, 0
2, 135924, Note_on_c, 0, 89, 84
2, 135939, Control_c, 0, 64, 0
2, 135940, Note_on_c, 0, 82, 77
2, 135945, Note_on_c, 0, 86, 73
2, 135952, Note_on_c, 0, 56, 64
2, 135953, Note_on_c, 0, 62, 66
2, 135956, Note_on_c, 0, 67, 73
2, 136136, Control_c, 0, 64, 127
2, 136288, Note_on_c, 0, 82, 0
2, 136313, Note_on_c, 0, 56, 0
2, 136333, Note_on_c, 0, 86, 0
2, 136359, Note_on_c, 0, 67, 0
2, 136365, Note_on_c, 0, 89, 0
2, 136419, Note_on_c, 0, 62, 0
2, 136475, Note_on_c, 0, 88, 64
2, 136480, Note_on_c, 0, 79, 44
2, 136484, Note_on_c, 0, 56, 48
2, 136485, Note_on_c, 0, 65, 64
2, 136487, Note_on_c, 0, 84, 62
2, 136489, Note_on_c, 0, 62, 29
2, 136492, Control_c, 0, 64, 0
2, 136699, Control_c, 0, 64, 127
2, 136739, Note_on_c, 0, 84, 0
2, 136754, Note_on_c, 0, 88, 0
2, 136781, Note_on_c, 0, 62, 0
2, 136840, Note_on_c, 0, 79, 0
2, 136948, Note_on_c, 0, 62, 41
2, 137165, Note_on_c, 0, 65, 0
2, 137798, Note_on_c, 0, 62, 0
2, 137864, Note_on_c, 0, 84, 38
2, 137867, Note_on_c, 0, 74, 22
2, 137930, Note_on_c, 0, 84, 0
2, 137951, Note_on_c, 0, 56, 0
2, 137982, Note_on_c, 0, 74, 0
2, 138323, Note_on_c, 0, 52, 43
2, 138326, Note_on_c, 0, 78, 44
2, 138334, Note_on_c, 0, 71, 44
2, 138343, Note_on_c, 0, 67, 40
2, 138355, Control_c, 0, 64, 0
2, 138605, Control_c, 0, 64, 127
2, 138631, Note_on_c, 0, 52, 0
2, 138813, Note_on_c, 0, 66, 70
2, 139105, Note_on_c, 0, 71, 0
2, 139140, Note_on_c, 0, 78, 0
2, 139193, Note_on_c, 0, 67, 0
2, 139197, Note_on_c, 0, 66, 0
2, 139339, Note_on_c, 0, 79, 48
2, 139343, Note_on_c, 0, 67, 47
2, 139344, Note_on_c, 0, 64, 58
2, 139346, Note_on_c, 0, 71, 58
2, 139406, Control_c, 0, 64, 0
2, 139750, Control_c, 0, 64, 127
2, 140338, Note_on_c, 0, 67, 0
2, 140370, Note_on_c, 0, 79, 0
2, 140443, Note_on_c, 0, 71, 0
2, 140632, Note_on_c, 0, 64, 0
2, 141146, Note_on_c, 0, 82, 81
2, 141148, Note_on_c, 0, 55, 75
2, 141149, Note_on_c, 0, 88, 79
2, 141151, Note_on_c, 0, 61, 72
2, 141152, Note_on_c, 0, 66, 81
2, 141153, Note_on_c, 0, 76, 80
2, 141187, Control_c, 0, 64, 0
2, 141406, Control_c, 0, 64, 127
2, 141482, Note_on_c, 0, 55, 0
2, 141524, Note_on_c, 0, 76, 0
2, 141546, Note_on_c, 0, 88, 0
2, 141637, Note_on_c, 0, 82, 0
2, 141658, Note_on_c, 0, 61, 0
2, 141708, Note_on_c, 0, 66, 0
2, 143552, Control_c, 0, 64, 0
2, 143568, Note_on_c, 0, 94, 70
2, 143569, Note_on_c, 0, 66, 59
2, 143571, Note_on_c, 0, 61, 53
2, 143576, Note_on_c, 0, 82, 52
2, 143578, Note_on_c, 0, 55, 55
2, 143580, Note_on_c, 0, 87, 64
2, 143740, Control_c, 0, 64, 127
2, 143751, Note_on_c, 0, 55, 0
2, 143807, Note_on_c, 0, 87, 0
2, 143819, Note_on_c, 0, 66, 0
2, 143846, Note_on_c, 0, 82, 0
2, 143870, Note_on_c, 0, 94, 0
2, 143959, Note_on_c, 0, 61, 0
2, 144041, Control_c, 0, 64, 0
2, 144063, Note_on_c, 0, 61, 27
2, 144069, Note_on_c, 0, 90, 45
2, 144073, Note_on_c, 0, 64, 51
2, 144075, Note_on_c, 0, 81, 48
2, 144076, Note_on_c, 0, 93, 58
2, 144090, Note_on_c, 0, 54, 29
2, 144107, Note_on_c, 0, 59, 53
2, 144281, Control_c, 0, 64, 127
2, 144403, Note_on_c, 0, 81, 0
2, 144429, Note_on_c, 0, 59, 0
2, 144435, Note_on_c, 0, 54, 0
2, 144446, Note_on_c, 0, 90, 0
2, 144484, Note_on_c, 0, 93, 0
2, 144534, Note_on_c, 0, 64, 0
2, 144834, Note_on_c, 0, 61, 0
2, 144985, Note_on_c, 0, 61, 25
2, 144999, Note_on_c, 0, 64, 50
2, 145007, Note_on_c, 0, 54, 27
2, 145012, Note_on_c, 0, 88, 49
2, 145013, Note_on_c, 0, 100, 52
2, 145026, Note_on_c, 0, 95, 54
2, 145035, Note_on_c, 0, 59, 33
2, 145051, Control_c, 0, 64, 0
2, 145228, Control_c, 0, 64, 127
2, 145954, Note_on_c, 0, 64, 0
2, 145974, Note_on_c, 0, 59, 0
2, 146095, Note_on_c, 0, 61, 0
2, 146173, Note_on_c, 0, 88, 0
2, 146175, Note_on_c, 0, 95, 0
2, 146249, Note_on_c, 0, 54, 0
2, 146276, Note_on_c, 0, 100, 0
2, 146393, Note_on_c, 0, 54, 29
2, 146408, Note_on_c, 0, 98, 54
2, 146433, Note_on_c, 0, 61, 19
2, 146437, Note_on_c, 0, 59, 27
2, 146516, Note_on_c, 0, 59, 0
2, 146533, Note_on_c, 0, 61, 0
2, 146592, Note_on_c, 0, 54, 0
2, 146669, Note_on_c, 0, 98, 0
2, 146886, Control_c, 0, 64, 0
2, 146892, Note_on_c, 0, 100, 54
2, 146896, Note_on_c, 0, 95, 53
2, 146897, Note_on_c, 0, 53, 36
2, 146898, Note_on_c, 0, 93, 43
2, 146905, Note_on_c, 0, 88, 37
2, 146907, Note_on_c, 0, 59, 47
2, 146917, Note_on_c, 0, 64, 27
2, 147086, Note_on_c, 0, 100, 0
2, 147093, Control_c, 0, 64, 127
2, 147122, Note_on_c, 0, 93, 0
2, 147123, Note_on_c, 0, 95, 0
2, 147167, Note_on_c, 0, 88, 0
2, 147618, Note_on_c, 0, 59, 0
2, 147715, Note_on_c, 0, 64, 0
2, 147894, Note_on_c, 0, 76, 76
2, 147903, Note_on_c, 0, 65, 74
2, 147905, Note_on_c, 0, 69, 74
2, 147912, Note_on_c, 0, 71, 67
2, 147926, Note_on_c, 0, 64, 75
2, 147946, Control_c, 0, 64, 0
2, 147972, Note_on_c, 0, 53, 0
2, 148169, Note_on_c, 0, 63, 62
2, 148229, Note_on_c, 0, 64, 0
2, 148331, Note_on_c, 0, 65, 0
2, 148332, Note_on_c, 0, 71, 0
2, 148333, Note_on_c, 0, 69, 0
2, 148384, Control_c, 0, 64, 127
2, 148428, Note_on_c, 0, 76, 0
2, 148444, Note_on_c, 0, 65, 55
2, 148449, Note_on_c, 0, 74, 54
2, 148457, Note_on_c, 0, 62, 64
2, 148460, Note_on_c, 0, 69, 50
2, 148462, Note_on_c, 0, 71, 37
2, 148500, Control_c, 0, 64, 0
2, 148501, Note_on_c, 0, 63, 0
2, 148791, Control_c, 0, 64, 127
2, 148843, Control_c, 0, 64, 0
2, 148937, Control_c, 0, 64, 127
2, 149454, Note_on_c, 0, 65, 0
2, 149462, Note_on_c, 0, 74, 0
2, 149474, Note_on_c, 0, 69, 0
2, 149556, Note_on_c, 0, 71, 0
2, 149593, Note_on_c, 0, 62, 0
2, 149827, Note_on_c, 0, 73, 33
2, 149832, Control_c, 0, 64, 0
2, 149835, Note_on_c, 0, 59, 45
2, 149842, Note_on_c, 0, 64, 40
2, 149847, Note_on_c, 0, 68, 42
2, 150187, Control_c, 0, 64, 127
2, 150430, Note_on_c, 0, 59, 0
2, 150609, Note_on_c, 0, 64, 0
2, 150616, Note_on_c, 0, 68, 0
2, 150849, Note_on_c, 0, 68, 35
2, 150856, Note_on_c, 0, 64, 44
2, 151371, Note_on_c, 0, 64, 0
2, 151385, Note_on_c, 0, 68, 0
2, 151817, Note_on_c, 0, 64, 44
2, 151826, Note_on_c, 0, 68, 34
2, 152354, Note_on_c, 0, 64, 0
2, 152475, Note_on_c, 0, 68, 0
2, 152710, Note_on_c, 0, 69, 36
2, 152712, Note_on_c, 0, 64, 34
2, 152748, Control_c, 0, 64, 0
2, 152761, Note_on_c, 0, 49, 29
2, 152766, Note_on_c, 0, 59, 17
2, 153051, Control_c, 0, 64, 127
2, 153382, Note_on_c, 0, 64, 0
2, 153524, Note_on_c, 0, 49, 0
2, 153553, Note_on_c, 0, 69, 0
2, 153583, Note_on_c, 0, 59, 0
2, 153653, Note_on_c, 0, 73, 0
2, 155017, Note_on_c, 0, 63, 67
2, 155027, Note_on_c, 0, 52, 38
2, 155034, Note_on_c, 0, 85, 77
2, 155040, Note_on_c, 0, 73, 62
2, 155070, Note_on_c, 0, 52, 0
2, 155138, Note_on_c, 0, 63, 0
2, 155162, Note_on_c, 0, 85, 0
2, 155232, Note_on_c, 0, 73, 0
2, 156031, Note_on_c, 0, 61, 53
2, 156032, Note_on_c, 0, 74, 73
2, 156036, Note_on_c, 0, 65, 68
2, 156046, Note_on_c, 0, 62, 75
2, 156061, Control_c, 0, 64, 0
2, 156342, Control_c, 0, 64, 127
2, 156404, Note_on_c, 0, 62, 0
2, 156426, Note_on_c, 0, 65, 0
2, 156440, Note_on_c, 0, 61, 0
2, 156542, Note_on_c, 0, 61, 47
2, 156546, Note_on_c, 0, 65, 66
2, 156557, Note_on_c, 0, 62, 67
2, 156811, Note_on_c, 0, 62, 0
2, 156856, Note_on_c, 0, 61, 0
2, 156857, Note_on_c, 0, 65, 0
2, 157036, Note_on_c, 0, 61, 54
2, 157038, Note_on_c, 0, 65, 68
2, 157049, Note_on_c, 0, 62, 70
2, 157110, Note_on_c, 0, 74, 0
2, 157310, Note_on_c, 0, 62, 0
2, 157361, Note_on_c, 0, 65, 0
2, 157398, Note_on_c, 0, 61, 0
2, 157481, Note_on_c, 0, 72, 69
2, 157499, Note_on_c, 0, 61, 46
2, 157500, Note_on_c, 0, 65, 65
2, 157507, Note_on_c, 0, 62, 66
2, 157509, Control_c, 0, 64, 0
2, 157717, Control_c, 0, 64, 127
2, 157779, Note_on_c, 0, 62, 0
2, 157809, Note_on_c, 0, 65, 0
2, 157853, Note_on_c, 0, 61, 0
2, 157952, Note_on_c, 0, 71, 64
2, 157966, Note_on_c, 0, 65, 59
2, 157972, Note_on_c, 0, 61, 35
2, 157989, Note_on_c, 0, 62, 51
2, 158057, Note_on_c, 0, 72, 0
2, 158231, Note_on_c, 0, 62, 0
2, 158277, Note_on_c, 0, 71, 0
2, 158278, Note_on_c, 0, 61, 0
2, 158336, Note_on_c, 0, 65, 0
2, 158437, Note_on_c, 0, 71, 57
2, 158445, Control_c, 0, 64, 0
2, 158456, Note_on_c, 0, 62, 49
2, 158458, Note_on_c, 0, 56, 39
2, 158696, Control_c, 0, 64, 127
2, 158895, Note_on_c, 0, 76, 59
2, 158912, Note_on_c, 0, 71, 0
2, 159027, Note_on_c, 0, 62, 0
2, 159735, Note_on_c, 0, 56, 0
2, 159798, Note_on_c, 0, 76, 0
2, 160827, Note_on_c, 0, 86, 56
2, 160885, Note_on_c, 0, 74, 45
2, 160995, Note_on_c, 0, 86, 0
2, 161075, Note_on_c, 0, 74, 0
2, 161289, Note_on_c, 0, 85, 46
2, 161295, Note_on_c, 0, 54, 27
2, 161304, Note_on_c, 0, 61, 26
2, 161310, Control_c, 0, 64, 0
2, 161315, Note_on_c, 0, 59, 49
2, 161316, Note_on_c, 0, 64, 33
2, 161327, Note_on_c, 0, 73, 29
2, 161539, Control_c, 0, 64, 127
2, 161926, Note_on_c, 0, 64, 0
2, 161965, Note_on_c, 0, 59, 0
2, 162025, Note_on_c, 0, 73, 0
2, 162062, Note_on_c, 0, 61, 0
2, 162069, Note_on_c, 0, 85, 0
2, 162302, Note_on_c, 0, 85, 45
2, 162316, Note_on_c, 0, 73, 30
2, 162335, Note_on_c, 0, 61, 28
2, 162336, Note_on_c, 0, 64, 33
2, 162353, Note_on_c, 0, 59, 33
2, 163195, Note_on_c, 0, 59, 0
2, 163236, Note_on_c, 0, 54, 0
2, 163238, Note_on_c, 0, 61, 0
2, 163259, Note_on_c, 0, 64, 0
2, 163424, Note_on_c, 0, 73, 0
2, 163549, Note_on_c, 0, 85, 0
2, 164201, Note_on_c, 0, 97, 95
2, 164203, Note_on_c, 0, 58, 82
2, 164205, Note_on_c, 0, 69, 92
2, 164206, Note_on_c, 0, 64, 79
2, 164207, Note_on_c, 0, 85, 87
2, 164236, Control_c, 0, 64, 0
2, 164518, Control_c, 0, 64, 127
2, 165318, Note_on_c, 0, 58, 0
2, 165349, Note_on_c, 0, 69, 0
2, 165385, Note_on_c, 0, 64, 0
2, 165387, Note_on_c, 0, 85, 0
2, 165431, Note_on_c, 0, 97, 0
2, 165650, Note_on_c, 0, 96, 54
2, 165664, Note_on_c, 0, 84, 55
2, 165665, Note_on_c, 0, 69, 55
2, 165673, Note_on_c, 0, 64, 42
2, 165675, Note_on_c, 0, 58, 31
2, 165834, Note_on_c, 0, 96, 0
2, 165893, Note_on_c, 0, 84, 0
2, 165894, Note_on_c, 0, 58, 0
2, 165935, Note_on_c, 0, 69, 0
2, 165938, Note_on_c, 0, 64, 0
2, 166081, Control_c, 0, 64, 0
2, 166097, Note_on_c, 0, 97, 78
2, 166103, Note_on_c, 0, 85, 55
2, 166105, Note_on_c, 0, 69, 53
2, 166116, Note_on_c, 0, 64, 42
2, 166174, Control_c, 0, 64, 127
2, 166273, Note_on_c, 0, 97, 0
2, 166342, Note_on_c, 0, 85, 0
2, 166363, Note_on_c, 0, 69, 0
2, 166579, Note_on_c, 0, 64, 0
2, 166608, Note_on_c, 0, 58, 31
2, 167060, Note_on_c, 0, 65, 31
2, 167064, Note_on_c, 0, 58, 0
2, 167069, Note_on_c, 0, 74, 42
2, 167074, Note_on_c, 0, 69, 35
2, 167078, Note_on_c, 0, 71, 38
2, 167082, Note_on_c, 0, 64, 31
2, 167100, Control_c, 0, 64, 0
2, 167444, Control_c, 0, 64, 127
2, 167535, Note_on_c, 0, 74, 0
2, 167620, Note_on_c, 0, 74, 40
2, 167801, Note_on_c, 0, 69, 0
2, 167802, Note_on_c, 0, 65, 0
2, 167906, Note_on_c, 0, 74, 0
2, 167935, Note_on_c, 0, 64, 0
2, 167962, Note_on_c, 0, 71, 0
2, 168055, Note_on_c, 0, 74, 50
2, 168405, Note_on_c, 0, 74, 0
2, 168522, Note_on_c, 0, 64, 71
2, 168526, Note_on_c, 0, 66, 74
2, 168527, Note_on_c, 0, 74, 88
2, 168537, Note_on_c, 0, 62, 66
2, 168570, Control_c, 0, 64, 0
2, 168810, Control_c, 0, 64, 127
2, 168908, Note_on_c, 0, 74, 0
2, 169002, Note_on_c, 0, 74, 78
2, 169229, Note_on_c, 0, 64, 0
2, 169253, Note_on_c, 0, 62, 0
2, 169287, Note_on_c, 0, 66, 0
2, 169313, Note_on_c, 0, 74, 0
2, 169460, Note_on_c, 0, 74, 90
2, 169461, Note_on_c, 0, 65, 71
2, 169481, Note_on_c, 0, 62, 65
2, 169488, Note_on_c, 0, 64, 50
2, 169507, Control_c, 0, 64, 0
2, 169674, Control_c, 0, 64, 127
2, 169685, Note_on_c, 0, 64, 0
2, 169829, Note_on_c, 0, 62, 0
2, 169868, Note_on_c, 0, 74, 0
2, 169887, Note_on_c, 0, 65, 0
2, 169941, Note_on_c, 0, 74, 55
2, 170274, Note_on_c, 0, 74, 0
2, 170423, Note_on_c, 0, 76, 70
2, 170432, Note_on_c, 0, 72, 65
2, 170444, Control_c, 0, 64, 0
2, 170445, Note_on_c, 0, 67, 67
2, 170447, Note_on_c, 0, 56, 35
2, 170460, Note_on_c, 0, 62, 38
2, 170705, Control_c, 0, 64, 127
2, 170782, Note_on_c, 0, 76, 0
2, 170840, Note_on_c, 0, 67, 0
2, 170912, Note_on_c, 0, 76, 62
2, 170920, Note_on_c, 0, 67, 56
2, 171023, Note_on_c, 0, 67, 0
2, 171042, Note_on_c, 0, 72, 0
2, 171077, Note_on_c, 0, 76, 0
2, 171156, Note_on_c, 0, 62, 0
2, 171394, Note_on_c, 0, 77, 72
2, 171406, Note_on_c, 0, 71, 67
2, 171414, Note_on_c, 0, 68, 67
2, 171423, Control_c, 0, 64, 0
2, 171424, Note_on_c, 0, 74, 36
2, 171433, Note_on_c, 0, 65, 54
2, 171476, Note_on_c, 0, 74, 0
2, 171631, Control_c, 0, 64, 127
2, 171742, Note_on_c, 0, 77, 0
2, 171850, Note_on_c, 0, 77, 51
2, 171963, Note_on_c, 0, 65, 0
2, 171986, Note_on_c, 0, 77, 0
2, 172024, Note_on_c, 0, 56, 0
2, 172096, Note_on_c, 0, 71, 0
2, 172185, Note_on_c, 0, 68, 0
2, 172327, Note_on_c, 0, 78, 61
2, 172579, Note_on_c, 0, 78, 0
2, 172757, Control_c, 0, 64, 0
2, 172780, Note_on_c, 0, 45, 48
2, 172797, Note_on_c, 0, 78, 60
2, 172888, Note_on_c, 0, 45, 0
2, 172932, Control_c, 0, 64, 127
2, 173042, Note_on_c, 0, 78, 0
2, 173294, Note_on_c, 0, 80, 49
2, 173352, Note_on_c, 0, 59, 26
2, 173565, Note_on_c, 0, 80, 0
2, 173778, Note_on_c, 0, 80, 52
2, 173782, Note_on_c, 0, 61, 32
2, 173789, Note_on_c, 0, 64, 33
2, 173798, Note_on_c, 0, 73, 34
2, 173810, Note_on_c, 0, 71, 34
2, 174342, Note_on_c, 0, 64, 0
2, 174463, Note_on_c, 0, 61, 0
2, 174465, Note_on_c, 0, 73, 0
2, 174479, Note_on_c, 0, 71, 0
2, 174704, Note_on_c, 0, 71, 49
2, 174715, Note_on_c, 0, 73, 26
2, 174993, Note_on_c, 0, 59, 0
2, 175250, Note_on_c, 0, 71, 0
2, 175388, Note_on_c, 0, 73, 0
2, 175677, Note_on_c, 0, 80, 0
2, 175700, Note_on_c, 0, 73, 28
2, 175709, Note_on_c, 0, 69, 53
2, 175711, Note_on_c, 0, 54, 33
2, 175723, Note_on_c, 0, 64, 39
2, 175755, Control_c, 0, 64, 0
2, 175974, Control_c, 0, 64, 127
2, 176163, Note_on_c, 0, 64, 0
2, 176182, Note_on_c, 0, 73, 0
2, 176223, Note_on_c, 0, 69, 0
2, 176302, Note_on_c, 0, 54, 0
2, 176718, Note_on_c, 0, 68, 64
2, 176719, Note_on_c, 0, 56, 85
2, 176721, Note_on_c, 0, 61, 74
2, 176722, Note_on_c, 0, 64, 74
2, 176734, Note_on_c, 0, 57, 80
2, 176770, Note_on_c, 0, 66, 26
2, 176797, Control_c, 0, 64, 0
2, 176813, Note_on_c, 0, 66, 0
2, 177088, Control_c, 0, 64, 127
2, 177127, Note_on_c, 0, 57, 0
2, 177162, Note_on_c, 0, 64, 0
2, 177173, Note_on_c, 0, 61, 0
2, 177178, Note_on_c, 0, 68, 0
2, 177213, Note_on_c, 0, 54, 64
2, 177216, Note_on_c, 0, 61, 49
2, 177217, Note_on_c, 0, 66, 67
2, 177227, Note_on_c, 0, 57, 53
2, 177237, Note_on_c, 0, 56, 0
2, 177245, Control_c, 0, 64, 0
2, 177506, Control_c, 0, 64, 127
2, 177550, Note_on_c, 0, 57, 0
2, 177627, Note_on_c, 0, 61, 0
2, 177645, Note_on_c, 0, 66, 0
2, 177661, Control_c, 0, 64, 0
2, 177689, Note_on_c, 0, 53, 57
2, 177690, Note_on_c, 0, 61, 39
2, 177691, Note_on_c, 0, 54, 0
2, 177693, Note_on_c, 0, 65, 61
2, 177703, Note_on_c, 0, 57, 58
2, 177870, Control_c, 0, 64, 127
2, 178090, Note_on_c, 0, 65, 0
2, 178129, Note_on_c, 0, 57, 0
2, 178159, Note_on_c, 0, 54, 37
2, 178161, Note_on_c, 0, 66, 59
2, 178162, Note_on_c, 0, 53, 0
2, 178295, Note_on_c, 0, 61, 0
2, 178505, Note_on_c, 0, 66, 0
2, 178588, Note_on_c, 0, 54, 0
2, 178630, Control_c, 0, 64, 0
2, 178651, Note_on_c, 0, 62, 63
2, 178653, Note_on_c, 0, 57, 42
2, 178673, Note_on_c, 0, 47, 40
2, 178819, Note_on_c, 0, 57, 0
2, 178828, Control_c, 0, 64, 127
2, 178869, Note_on_c, 0, 47, 0
2, 178900, Note_on_c, 0, 62, 0
2, 179172, Note_on_c, 0, 83, 64
2, 179194, Note_on_c, 0, 71, 32
2, 179217, Note_on_c, 0, 72, 30
2, 179260, Note_on_c, 0, 72, 0
2, 179456, Note_on_c, 0, 83, 0
2, 179516, Note_on_c, 0, 71, 0
2, 179655, Note_on_c, 0, 83, 60
2, 179665, Note_on_c, 0, 71, 47
2, 180543, Note_on_c, 0, 66, 37
2, 180556, Note_on_c, 0, 62, 49
2, 180989, Note_on_c, 0, 62, 0
2, 181020, Note_on_c, 0, 66, 0
2, 181126, Note_on_c, 0, 71, 0
2, 181273, Note_on_c, 0, 83, 0
2, 181339, Control_c, 0, 64, 0
2, 181535, Control_c, 0, 64, 127
2, 181990, Note_on_c, 0, 88, 80
2, 181992, Note_on_c, 0, 56, 67
2, 181995, Note_on_c, 0, 76, 75
2, 181998, Note_on_c, 0, 62, 68
2, 181999, Note_on_c, 0, 67, 74
2, 182001, Note_on_c, 0, 84, 74
2, 182068, Control_c, 0, 64, 0
2, 182473, Control_c, 0, 64, 127
2, 183604, Note_on_c, 0, 84, 0
2, 183609, Note_on_c, 0, 56, 0
2, 183617, Note_on_c, 0, 67, 0
2, 183620, Note_on_c, 0, 62, 0
2, 183648, Note_on_c, 0, 88, 0
2, 183684, Note_on_c, 0, 76, 0
2, 183892, Note_on_c, 0, 86, 66
2, 183899, Note_on_c, 0, 74, 54
2, 183902, Note_on_c, 0, 56, 37
2, 183904, Note_on_c, 0, 67, 48
2, 183916, Note_on_c, 0, 62, 50
2, 184012, Note_on_c, 0, 67, 0
2, 184096, Note_on_c, 0, 74, 0
2, 184108, Note_on_c, 0, 56, 0
2, 184119, Note_on_c, 0, 86, 0
2, 184408, Note_on_c, 0, 66, 74
2, 184423, Note_on_c, 0, 55, 50
2, 184424, Note_on_c, 0, 59, 71
2, 184428, Note_on_c, 0, 88, 80
2, 184433, Note_on_c, 0, 76, 74
2, 184453, Control_c, 0, 64, 0
2, 184692, Control_c, 0, 64, 127
2, 184830, Note_on_c, 0, 55, 0
2, 184852, Note_on_c, 0, 59, 0
2, 184854, Note_on_c, 0, 62, 0
2, 184858, Note_on_c, 0, 66, 0
2, 185412, Note_on_c, 0, 40, 64
2, 185547, Note_on_c, 0, 40, 0
2, 185960, Note_on_c, 0, 76, 0
2, 186160, Note_on_c, 0, 88, 0
2, 186823, Note_on_c, 0, 62, 74
2, 186825, Note_on_c, 0, 55, 70
2, 186826, Note_on_c, 0, 66, 81
2, 186834, Note_on_c, 0, 91, 79
2, 186837, Note_on_c, 0, 79, 83
2, 186839, Note_on_c, 0, 86, 84
2, 186943, Note_on_c, 0, 79, 0
2, 186987, Note_on_c, 0, 86, 0
2, 187022, Note_on_c, 0, 91, 0
2, 187027, Note_on_c, 0, 62, 0
2, 187036, Note_on_c, 0, 55, 0
2, 187101, Note_on_c, 0, 66, 0
2, 187308, Note_on_c, 0, 61, 74
2, 187309, Note_on_c, 0, 66, 83
2, 187317, Note_on_c, 0, 100, 80
2, 187318, Note_on_c, 0, 55, 80
2, 187320, Note_on_c, 0, 88, 85
2, 187321, Note_on_c, 0, 95, 80
2, 187330, Note_on_c, 0, 98, 68
2, 187339, Control_c, 0, 64, 0
2, 187366, Note_on_c, 0, 98, 0
2, 187600, Control_c, 0, 64, 127
2, 188336, Note_on_c, 0, 100, 0
2, 188404, Note_on_c, 0, 95, 0
2, 188475, Note_on_c, 0, 88, 0
2, 188702, Note_on_c, 0, 55, 0
2, 188803, Note_on_c, 0, 61, 0
2, 188834, Note_on_c, 0, 66, 0
2, 189610, Control_c, 0, 64, 0
2, 189635, Note_on_c, 0, 66, 49
2, 189645, Note_on_c, 0, 61, 46
2, 189649, Note_on_c, 0, 55, 45
2, 189660, Note_on_c, 0, 93, 47
2, 189668, Note_on_c, 0, 81, 38
2, 189675, Note_on_c, 0, 88, 40
2, 189776, Control_c, 0, 64, 127
2, 189778, Note_on_c, 0, 81, 0
2, 189805, Note_on_c, 0, 88, 0
2, 189832, Note_on_c, 0, 93, 0
2, 189846, Note_on_c, 0, 55, 0
2, 189881, Note_on_c, 0, 66, 0
2, 189971, Note_on_c, 0, 61, 0
2, 190163, Note_on_c, 0, 54, 37
2, 190169, Note_on_c, 0, 65, 48
2, 190173, Control_c, 0, 64, 0
2, 190174, Note_on_c, 0, 98, 58
2, 190179, Note_on_c, 0, 60, 36
2, 190188, Note_on_c, 0, 94, 52
2, 190201, Note_on_c, 0, 86, 42
2, 190322, Note_on_c, 0, 86, 0
2, 190341, Note_on_c, 0, 94, 0
2, 190351, Note_on_c, 0, 60, 0
2, 190373, Note_on_c, 0, 98, 0
2, 190394, Note_on_c, 0, 65, 0
2, 190462, Note_on_c, 0, 54, 0
2, 190634, Note_on_c, 0, 98, 47
2, 190644, Note_on_c, 0, 94, 38
2, 190648, Note_on_c, 0, 54, 25
2, 190649, Note_on_c, 0, 86, 39
2, 190651, Note_on_c, 0, 65, 41
2, 190663, Note_on_c, 0, 60, 35
2, 190841, Note_on_c, 0, 86, 0
2, 190872, Note_on_c, 0, 94, 0
2, 190897, Note_on_c, 0, 60, 0
2, 190899, Note_on_c, 0, 98, 0
2, 190907, Note_on_c, 0, 54, 0
2, 190920, Note_on_c, 0, 65, 0
2, 191098, Control_c, 0, 64, 127
2, 191125, Note_on_c, 0, 54, 34
2, 191126, Note_on_c, 0, 98, 39
2, 191130, Note_on_c, 0, 65, 45
2, 191134, Note_on_c, 0, 94, 30
2, 191144, Note_on_c, 0, 86, 34
2, 191146, Note_on_c, 0, 60, 28
2, 191213, Control_c, 0, 64, 0
2, 191354, Note_on_c, 0, 86, 0
2, 191374, Note_on_c, 0, 94, 0
2, 191376, Note_on_c, 0, 60, 0
2, 191383, Note_on_c, 0, 98, 0
2, 191407, Note_on_c, 0, 65, 0
2, 191423, Note_on_c, 0, 54, 0
2, 191595, Note_on_c, 0, 98, 37
2, 191605, Note_on_c, 0, 94, 36
2, 191606, Note_on_c, 0, 54, 25
2, 191607, Note_on_c, 0, 65, 41
2, 191608, Note_on_c, 0, 86, 35
2, 191615, Note_on_c, 0, 60, 28
2, 191827, Note_on_c, 0, 60, 0
2, 191828, Note_on_c, 0, 98, 0
2, 191842, Note_on_c, 0, 94, 0
2, 191843, Note_on_c, 0, 86, 0
2, 191850, Note_on_c, 0, 54, 0
2, 191854, Note_on_c, 0, 65, 0
2, 192119, Control_c, 0, 64, 127
2, 192994, Control_c, 0, 64, 0
2, 193037, Note_on_c, 0, 74, 44
2, 193038, Note_on_c, 0, 65, 51
2, 193050, Note_on_c, 0, 64, 42
2, 193054, Note_on_c, 0, 69, 53
2, 193056, Note_on_c, 0, 71, 34
2, 193266, Note_on_c, 0, 65, 0
2, 193267, Note_on_c, 0, 69, 0
2, 193299, Note_on_c, 0, 64, 0
2, 193311, Note_on_c, 0, 71, 0
2, 193315, Note_on_c, 0, 74, 0
2, 193530, Note_on_c, 0, 65, 51
2, 193531, Note_on_c, 0, 74, 40
2, 193538, Note_on_c, 0, 71, 40
2, 193542, Note_on_c, 0, 69, 55
2, 193551, Note_on_c, 0, 64, 42
2, 194078, Control_c, 0, 64, 127
2, 194155, Note_on_c, 0, 74, 0
2, 194168, Note_on_c, 0, 69, 0
2, 194286, Note_on_c, 0, 65, 0
2, 194307, Note_on_c, 0, 64, 0
2, 194322, Note_on_c, 0, 71, 0
2, 194527, Note_on_c, 0, 76, 75
2, 194528, Note_on_c, 0, 71, 70
2, 194532, Note_on_c, 0, 65, 80
2, 194533, Note_on_c, 0, 69, 73
2, 194541, Note_on_c, 0, 64, 66
2, 194609, Control_c, 0, 64, 0
2, 194807, Control_c, 0, 64, 127
2, 194985, Note_on_c, 0, 76, 0
2, 195061, Note_on_c, 0, 64, 0
2, 195076, Note_on_c, 0, 69, 0
2, 195085, Note_on_c, 0, 65, 0
2, 195113, Note_on_c, 0, 71, 0
2, 195233, Note_on_c, 0, 65, 61
2, 195235, Note_on_c, 0, 64, 50
2, 195238, Note_on_c, 0, 71, 51
2, 195239, Note_on_c, 0, 74, 54
2, 195240, Note_on_c, 0, 69, 60
2, 195341, Note_on_c, 0, 64, 0
2, 195478, Note_on_c, 0, 69, 0
2, 195497, Note_on_c, 0, 71, 0
2, 195509, Note_on_c, 0, 65, 0
2, 195653, Note_on_c, 0, 74, 0
2, 195877, Note_on_c, 0, 73, 36
2, 195879, Note_on_c, 0, 52, 45
2, 195880, Note_on_c, 0, 64, 55
2, 195888, Note_on_c, 0, 63, 29
2, 195909, Note_on_c, 0, 58, 34
2, 195922, Control_c, 0, 64, 0
2, 196306, Control_c, 0, 64, 127
2, 196449, Note_on_c, 0, 63, 0
2, 196450, Note_on_c, 0, 58, 0
2, 196461, Note_on_c, 0, 52, 0
2, 196930, Note_on_c, 0, 30, 50
2, 197064, Note_on_c, 0, 30, 0
2, 197534, Note_on_c, 0, 64, 0
2, 198290, Note_on_c, 0, 68, 77
2, 198293, Note_on_c, 0, 59, 77
2, 198296, Note_on_c, 0, 64, 71
2, 198302, Note_on_c, 0, 63, 69
2, 198369, Control_c, 0, 64, 0
2, 198463, Control_c, 0, 64, 127
2, 198599, Note_on_c, 0, 73, 0
2, 198604, Note_on_c, 0, 59, 0
2, 198666, Note_on_c, 0, 68, 0
2, 198683, Note_on_c, 0, 64, 0
2, 198701, Note_on_c, 0, 63, 0
2, 198766, Note_on_c, 0, 73, 74
2, 198767, Note_on_c, 0, 68, 78
2, 198770, Note_on_c, 0, 64, 61
2, 198776, Note_on_c, 0, 58, 73
2, 198778, Note_on_c, 0, 63, 64
2, 198785, Control_c, 0, 64, 0
2, 199015, Control_c, 0, 64, 127
2, 199123, Note_on_c, 0, 64, 0
2, 199130, Note_on_c, 0, 68, 0
2, 199136, Note_on_c, 0, 58, 0
2, 199165, Note_on_c, 0, 63, 0
2, 199243, Note_on_c, 0, 73, 0
2, 199744, Note_on_c, 0, 30, 39
2, 199746, Note_on_c, 0, 61, 55
2, 199758, Note_on_c, 0, 42, 37
2, 199768, Note_on_c, 0, 52, 28
2, 199783, Note_on_c, 0, 58, 29
2, 199837, Control_c, 0, 64, 0
2, 200057, Control_c, 0, 64, 127
2, 200476, Note_on_c, 0, 58, 0
2, 200490, Note_on_c, 0, 52, 0
2, 200491, Note_on_c, 0, 30, 0
2, 200534, Note_on_c, 0, 42, 0
2, 200736, Note_on_c, 0, 61, 0
2, 201174, Note_on_c, 0, 74, 64
2, 201397, Note_on_c, 0, 74, 0
2, 201624, Note_on_c, 0, 48, 31
2, 201631, Note_on_c, 0, 71, 45
2, 201638, Note_on_c, 0, 63, 40
2, 201643, Note_on_c, 0, 41, 29
2, 201654, Note_on_c, 0, 67, 55
2, 201679, Note_on_c, 0, 57, 34
2, 201681, Control_c, 0, 64, 0
2, 201983, Control_c, 0, 64, 127
2, 202256, Note_on_c, 0, 57, 0
2, 202257, Note_on_c, 0, 67, 0
2, 202318, Note_on_c, 0, 63, 0
2, 202645, Note_on_c, 0, 63, 33
2, 202674, Note_on_c, 0, 67, 39
2, 202713, Note_on_c, 0, 57, 29
2, 203356, Note_on_c, 0, 57, 0
2, 203436, Note_on_c, 0, 48, 0
2, 203466, Note_on_c, 0, 41, 0
2, 203543, Note_on_c, 0, 67, 0
2, 203604, Note_on_c, 0, 63, 0
2, 203637, Note_on_c, 0, 71, 0
2, 204889, Control_c, 0, 64, 0
2, 204974, Note_on_c, 0, 28, 48
2, 205073, Note_on_c, 0, 28, 0
2, 205097, Control_c, 0, 64, 127
2, 205551, Note_on_c, 0, 78, 50
2, 205560, Note_on_c, 0, 56, 36
2, 205563, Note_on_c, 0, 69, 50
2, 205565, Note_on_c, 0, 62, 51
2, 205566, Note_on_c, 0, 74, 55
2, 205960, Note_on_c, 0, 69, 0
2, 205993, Note_on_c, 0, 56, 0
2, 205994, Note_on_c, 0, 74, 0
2, 206021, Note_on_c, 0, 78, 0
2, 206052, Note_on_c, 0, 62, 0
2, 206501, Note_on_c, 0, 56, 38
2, 206505, Note_on_c, 0, 76, 57
2, 206506, Note_on_c, 0, 69, 45
2, 206507, Note_on_c, 0, 74, 48
2, 206509, Note_on_c, 0, 62, 60
2, 206536, Control_c, 0, 64, 0
2, 206713, Control_c, 0, 64, 127
2, 206744, Control_c, 0, 64, 0
2, 206767, Note_on_c, 0, 69, 0
2, 206786, Note_on_c, 0, 74, 0
2, 206796, Note_on_c, 0, 56, 0
2, 206808, Note_on_c, 0, 76, 0
2, 206822, Note_on_c, 0, 62, 0
2, 207668, Note_on_c, 0, 45, 45
2, 208023, Control_c, 0, 64, 0
2, 208522, Note_on_c, 0, 52, 60
2, 209010, Note_on_c, 0, 57, 66
2, 209507, Note_on_c, 0, 60, 73
2, 209824, Note_on_c, 0, 45, 0
2, 209973, Note_on_c, 0, 71, 83
2, 210163, Note_on_c, 0, 57, 0
2, 210361, Note_on_c, 0, 71, 0
2, 210435, Note_on_c, 0, 71, 83
2, 210445, Note_on_c, 0, 41, 54
2, 210449, Note_on_c, 0, 43, 43
2, 210465, Note_on_c, 0, 52, 0
2, 210555, Note_on_c, 0, 43, 0
2, 210907, Note_on_c, 0, 48, 60
2, 211063, Control_c, 0, 64, 127
2, 211225, Note_on_c, 0, 60, 0
2, 211360, Note_on_c, 0, 41, 0
2, 211397, Note_on_c, 0, 64, 47
2, 211399, Note_on_c, 0, 62, 51
2, 211416, Note_on_c, 0, 57, 40
2, 211478, Note_on_c, 0, 48, 0
2, 211623, Note_on_c, 0, 62, 0
2, 211655, Note_on_c, 0, 64, 0
2, 211790, Note_on_c, 0, 71, 0
2, 211860, Note_on_c, 0, 57, 0
2, 211955, Note_on_c, 0, 60, 29
2, 212463, Note_on_c, 0, 71, 32
2, 212479, Note_on_c, 0, 76, 58
2, 212497, Note_on_c, 0, 64, 19
2, 212660, Note_on_c, 0, 71, 0
2, 212696, Note_on_c, 0, 76, 0
2, 212890, Note_on_c, 0, 64, 0
2, 212997, Note_on_c, 0, 60, 0
2, 213158, Note_on_c, 0, 86, 105
2, 213542, Note_on_c, 0, 86, 0
2, 213677, Note_on_c, 0, 86, 101
2, 213689, Note_on_c, 0, 45, 80
2, 213722, Control_c, 0, 64, 0
2, 213879, Control_c, 0, 64, 127
2, 214035, Note_on_c, 0, 52, 73
2, 214062, Note_on_c, 0, 86, 0
2, 214367, Note_on_c, 0, 45, 0
2, 214375, Note_on_c, 0, 83, 84
2, 214386, Note_on_c, 0, 76, 91
2, 214403, Note_on_c, 0, 57, 66
2, 214422, Note_on_c, 0, 52, 0
2, 214677, Note_on_c, 0, 57, 0
2, 214724, Note_on_c, 0, 60, 66
2, 214740, Note_on_c, 0, 59, 45
2, 214776, Note_on_c, 0, 59, 0
2, 214873, Note_on_c, 0, 76, 0
2, 215016, Note_on_c, 0, 83, 0
2, 215096, Note_on_c, 0, 76, 84
2, 215097, Note_on_c, 0, 79, 79
2, 215102, Note_on_c, 0, 71, 83
2, 215120, Note_on_c, 0, 64, 71
2, 215135, Note_on_c, 0, 60, 0
2, 215408, Note_on_c, 0, 64, 0
2, 215432, Note_on_c, 0, 79, 0
2, 215440, Note_on_c, 0, 76, 0
2, 215484, Note_on_c, 0, 67, 62
2, 215487, Note_on_c, 0, 65, 65
2, 215514, Note_on_c, 0, 71, 0
2, 215583, Note_on_c, 0, 67, 0
2, 215584, Note_on_c, 0, 65, 0
2, 215923, Note_on_c, 0, 69, 81
2, 215929, Note_on_c, 0, 67, 79
2, 215950, Note_on_c, 0, 53, 66
2, 215951, Note_on_c, 0, 64, 68
2, 215985, Control_c, 0, 64, 0
2, 216225, Control_c, 0, 64, 127
2, 216408, Note_on_c, 0, 67, 0
2, 216410, Note_on_c, 0, 60, 55
2, 216424, Note_on_c, 0, 69, 0
2, 216493, Note_on_c, 0, 64, 0
2, 216889, Note_on_c, 0, 81, 67
2, 216892, Note_on_c, 0, 60, 0
2, 216894, Note_on_c, 0, 74, 55
2, 216898, Note_on_c, 0, 69, 63
2, 216900, Note_on_c, 0, 62, 44
2, 217036, Note_on_c, 0, 69, 0
2, 217117, Note_on_c, 0, 74, 0
2, 217210, Note_on_c, 0, 81, 0
2, 217424, Note_on_c, 0, 60, 46
2, 217524, Note_on_c, 0, 62, 0
2, 217753, Note_on_c, 0, 53, 0
2, 218192, Note_on_c, 0, 93, 59
2, 218196, Note_on_c, 0, 86, 54
2, 218203, Note_on_c, 0, 81, 42
2, 218211, Note_on_c, 0, 53, 43
2, 219149, Note_on_c, 0, 93, 0
2, 219153, Note_on_c, 0, 88, 57
2, 219280, Note_on_c, 0, 60, 0
2, 219467, Note_on_c, 0, 53, 0
2, 219584, Note_on_c, 0, 86, 0
2, 219720, Note_on_c, 0, 88, 0
2, 220099, Note_on_c, 0, 81, 0
2, 221101, Note_on_c, 0, 86, 40
2, 221114, Note_on_c, 0, 45, 42
2, 221126, Control_c, 0, 64, 0
2, 221282, Control_c, 0, 64, 127
2, 221389, Note_on_c, 0, 86, 0
2, 221554, Note_on_c, 0, 52, 47
2, 221581, Note_on_c, 0, 45, 0
2, 221651, Note_on_c, 0, 52, 0
2, 222104, Note_on_c, 0, 62, 29
2, 222105, Note_on_c, 0, 67, 40
2, 222110, Note_on_c, 0, 64, 32
2, 222111, Note_on_c, 0, 71, 44
2, 222121, Note_on_c, 0, 74, 45
2, 222129, Note_on_c, 0, 60, 29
2, 222446, Note_on_c, 0, 67, 0
2, 222451, Note_on_c, 0, 64, 0
2, 222452, Note_on_c, 0, 60, 0
2, 222463, Note_on_c, 0, 62, 0
2, 222483, Note_on_c, 0, 71, 0
2, 222484, Note_on_c, 0, 74, 0
2, 222722, Note_on_c, 0, 71, 35
2, 222734, Note_on_c, 0, 67, 34
2, 222735, Note_on_c, 0, 74, 40
2, 222745, Note_on_c, 0, 62, 29
2, 222747, Note_on_c, 0, 64, 27
2, 222767, Note_on_c, 0, 60, 28
2, 222958, Note_on_c, 0, 60, 0
2, 222992, Note_on_c, 0, 62, 0
2, 222996, Note_on_c, 0, 67, 0
2, 223001, Note_on_c, 0, 64, 0
2, 223020, Note_on_c, 0, 71, 0
2, 223029, Note_on_c, 0, 74, 0
2, 223337, Note_on_c, 0, 71, 37
2, 223344, Note_on_c, 0, 74, 34
2, 223350, Note_on_c, 0, 67, 33
2, 223356, Note_on_c, 0, 64, 27
2, 223359, Note_on_c, 0, 62, 29
2, 223369, Note_on_c, 0, 60, 30
2, 223607, Note_on_c, 0, 60, 0
2, 223629, Note_on_c, 0, 64, 0
2, 223630, Note_on_c, 0, 67, 0
2, 223634, Note_on_c, 0, 62, 0
2, 223641, Note_on_c, 0, 71, 0
2, 223649, Note_on_c, 0, 74, 0
2, 223977, Note_on_c, 0, 71, 32
2, 223983, Note_on_c, 0, 74, 31
2, 223992, Note_on_c, 0, 67, 29
2, 223994, Note_on_c, 0, 62, 26
2, 224003, Note_on_c, 0, 64, 19
2, 224010, Note_on_c, 0, 60, 27
2, 224212, Note_on_c, 0, 60, 0
2, 224238, Note_on_c, 0, 71, 0
2, 224240, Note_on_c, 0, 74, 0
2, 224241, Note_on_c, 0, 67, 0
2, 224246, Note_on_c, 0, 62, 0
2, 224264, Note_on_c, 0, 64, 0
2, 224791, Note_on_c, 0, 64, 24
2, 224795, Note_on_c, 0, 62, 26
2, 224802, Note_on_c, 0, 74, 33
2, 224803, Note_on_c, 0, 71, 36
2, 224805, Note_on_c, 0, 60, 25
2, 224813, Note_on_c, 0, 67, 29
2, 225079, Note_on_c, 0, 62, 0
2, 225101, Note_on_c, 0, 60, 0
2, 225104, Note_on_c, 0, 64, 0
2, 225165, Note_on_c, 0, 67, 0
2, 225167, Note_on_c, 0, 71, 0
2, 225216, Note_on_c, 0, 74, 0
2, 226798, Note_on_c, 0, 21, 53
2, 226956, Note_on_c, 0, 21, 0
2, 231875, Control_c, 0, 64, 0
2, 231875, End_track
3, 0, Start_track
3, 0, Title_t, "Harmonica"
3, 0, Program_c, 2, 22
3, 115200, Note_on_c, 2, 76, 66
3, 116696, Pitch_bend_c, 2, 8192
3, 116715, Pitch_bend_c, 2, 8192
3, 116733, Pitch_bend_c, 2, 8192
3, 116751, Pitch_bend_c, 2, 8192
3, 116777, Pitch_bend_c, 2, 7680
3, 116799, Pitch_bend_c, 2, 7552
3, 116817, Pitch_bend_c, 2, 7424
3, 116832, Pitch_bend_c, 2, 7168
3, 116854, Pitch_bend_c, 2, 7040
3, 116872, Pitch_bend_c, 2, 6912
3, 116891, Pitch_bend_c, 2, 6784
3, 116917, Pitch_bend_c, 2, 6656
3, 116939, Pitch_bend_c, 2, 6528
3, 116960, Pitch_bend_c, 2, 6400
3, 116982, Pitch_bend_c, 2, 6272
3, 117001, Pitch_bend_c, 2, 6016
3, 117023, Pitch_bend_c, 2, 5888
3, 117037, Pitch_bend_c, 2, 5760
3, 117064, Pitch_bend_c, 2, 5632
3, 117079, Pitch_bend_c, 2, 5504
3, 117113, Pitch_bend_c, 2, 5376
3, 117135, Note_on_c, 2, 76, 0
3, 117168, Pitch_bend_c, 2, 5504
3, 117177, Pitch_bend_c, 2, 5760
3, 117184, Pitch_bend_c, 2, 5888
3, 117191, Pitch_bend_c, 2, 6144
3, 117199, Pitch_bend_c, 2, 6400
3, 117207, Pitch_bend_c, 2, 6656
3, 117214, Pitch_bend_c, 2, 6912
3, 117221, Pitch_bend_c, 2, 7296
3, 117229, Pitch_bend_c, 2, 7680
3, 117236, Pitch_bend_c, 2, 8192
3, 117240, Pitch_bend_c, 2, 8192
3, 117684, Note_on_c, 2, 77, 71
3, 117960, Note_on_c, 2, 77, 0
3, 118035, Note_on_c, 2, 76, 76
3, 118277, Note_on_c, 2, 75, 59
3, 118283, Note_on_c, 2, 76, 0
3, 118463, Note_on_c, 2, 75, 0
3, 118501, Note_on_c, 2, 76, 41
3, 118714, Note_on_c, 2, 77, 57
3, 118717, Note_on_c, 2, 76, 0
3, 118946, Note_on_c, 2, 77, 0
3, 118968, Note_on_c, 2, 76, 50
3, 119169, Note_on_c, 2, 75, 49
3, 119192, Note_on_c, 2, 76, 0
3, 119368, Note_on_c, 2, 75, 0
3, 119408, Note_on_c, 2, 76, 46
3, 120744, Note_on_c, 2, 72, 43
3, 120803, Note_on_c, 2, 76, 0
3, 120999, Note_on_c, 2, 72, 0
3, 121069, Note_on_c, 2, 74, 40
3, 122532, Note_on_c, 2, 74, 0
3, 122534, Note_on_c, 2, 75, 57
3, 122562, Note_on_c, 2, 76, 68
3, 122568, Note_on_c, 2, 75, 0
3, 123110, Note_on_c, 2, 76, 0
3, 123147, Note_on_c, 2, 74, 72
3, 123448, Note_on_c, 2, 74, 0
3, 123466, Note_on_c, 2, 73, 59
3, 123758, Note_on_c, 2, 73, 0
3, 123820, Note_on_c, 2, 74, 70
3, 124083, Note_on_c, 2, 74, 0
3, 124143, Note_on_c, 2, 76, 41
3, 124261, Note_on_c, 2, 76, 0
3, 124384, Note_on_c, 2, 74, 44
3, 124483, Note_on_c, 2, 74, 0
3, 124701, Note_on_c, 2, 73, 28
3, 124782, Note_on_c, 2, 73, 0
3, 125020, Note_on_c, 2, 74, 48
3, 125156, Note_on_c, 2, 74, 0
3, 125373, Note_on_c, 2, 74, 50
3, 125492, Note_on_c, 2, 74, 0
3, 125731, Note_on_c, 2, 74, 43
3, 126535, Note_on_c, 2, 74, 0
3, 126546, Note_on_c, 2, 71, 39
3, 126809, Note_on_c, 2, 71, 0
3, 126861, Note_on_c, 2, 72, 34
3, 127350, Note_on_c, 2, 72, 0
3, 127378, Note_on_c, 2, 74, 34
3, 127468, Note_on_c, 2, 72, 26
3, 127475, Note_on_c, 2, 74, 0
3, 127558, Note_on_c, 2, 72, 0
3, 127590, Note_on_c, 2, 71, 43
3, 127699, Note_on_c, 2, 71, 0
3, 127739, Note_on_c, 2, 72, 48
3, 127873, Note_on_c, 2, 72, 0
3, 128049, Note_on_c, 2, 72, 24
3, 128274, Note_on_c, 2, 72, 0
3, 129197, Note_on_c, 2, 71, 38
3, 129628, Note_on_c, 2, 71, 0
3, 129655, Note_on_c, 2, 72, 51
3, 130183, Note_on_c, 2, 72, 0
3, 130212, Note_on_c, 2, 74, 34
3, 130299, Note_on_c, 2, 74, 0
3, 130315, Note_on_c, 2, 72, 26
3, 130399, Note_on_c, 2, 72, 0
3, 130420, Note_on_c, 2, 71, 49
3, 130551, Note_on_c, 2, 71, 0
3, 130618, Note_on_c, 2, 72, 52
3, 130941, Note_on_c, 2, 72, 0
3, 131012, Note_on_c, 2, 71, 45
3, 131481, Note_on_c, 2, 71, 0
3, 131578, Note_on_c, 2, 72, 50
3, 132065, Note_on_c, 2, 72, 0
3, 132086, Note_on_c, 2, 69, 41
3, 132561, Note_on_c, 2, 69, 0
3, 132571, Note_on_c, 2, 71, 45
3, 134065, Note_on_c, 2, 68, 42
3, 134073, Note_on_c, 2, 71, 0
3, 134127, Note_on_c, 2, 69, 41
3, 134138, Note_on_c, 2, 68, 0
3, 134508, Note_on_c, 2, 69, 0
3, 134547, Note_on_c, 2, 67, 40
3, 134986, Note_on_c, 2, 67, 0
3, 134996, Note_on_c, 2, 66, 39
3, 135412, Note_on_c, 2, 66, 0
3, 135470, Note_on_c, 2, 65, 32
3, 136423, Note_on_c, 2, 65, 0
3, 136476, Note_on_c, 2, 64, 30
3, 138396, Note_on_c, 2, 64, 0
3, 138891, Note_on_c, 2, 76, 46
3, 139818, Note_on_c, 2, 78, 42
3, 139855, Note_on_c, 2, 76, 0
3, 140710, Note_on_c, 2, 78, 0
3, 140726, Note_on_c, 2, 76, 52
3, 140946, Note_on_c, 2, 76, 0
3, 140953, Note_on_c, 2, 75, 59
3, 141177, Note_on_c, 2, 75, 0
3, 141235, Note_on_c, 2, 76, 70
3, 141645, Note_on_c, 2, 78, 52
3, 141694, Note_on_c, 2, 76, 0
3, 141912, Note_on_c, 2, 78, 0
3, 141932, Note_on_c, 2, 76, 59
3, 142159, Note_on_c, 2, 76, 0
3, 142162, Note_on_c, 2, 75, 44
3, 142368, Note_on_c, 2, 75, 0
3, 142433, Note_on_c, 2, 76, 36
3, 143872, Note_on_c, 2, 73, 29
3, 143884, Note_on_c, 2, 76, 0
3, 144121, Note_on_c, 2, 73, 0
3, 144173, Note_on_c, 2, 74, 30
3, 145116, Note_on_c, 2, 74, 0
3, 145511, Note_on_c, 2, 75, 60
3, 145568, Note_on_c, 2, 76, 66
3, 145613, Note_on_c, 2, 75, 0
3, 145764, Note_on_c, 2, 76, 0
3, 145814, Note_on_c, 2, 75, 62
3, 145899, Note_on_c, 2, 76, 56
3, 145982, Note_on_c, 2, 75, 0
3, 146105, Note_on_c, 2, 76, 0
3, 146148, Note_on_c, 2, 74, 55
3, 146330, Note_on_c, 2, 74, 0
3, 146406, Note_on_c, 2, 74, 53
3, 146608, Note_on_c, 2, 74, 0
3, 146626, Note_on_c, 2, 73, 33
3, 146771, Note_on_c, 2, 73, 0
3, 146839, Note_on_c, 2, 73, 36
3, 147021, Note_on_c, 2, 73, 0
3, 147086, Note_on_c, 2, 74, 47
3, 147318, Note_on_c, 2, 74, 0
3, 147354, Note_on_c, 2, 76, 43
3, 147553, Note_on_c, 2, 76, 0
3, 147601, Note_on_c, 2, 74, 34
3, 148346, Note_on_c, 2, 73, 49
3, 148386, Note_on_c, 2, 74, 0
3, 148598, Note_on_c, 2, 73, 0
3, 148677, Note_on_c, 2, 74, 55
3, 148862, Note_on_c, 2, 74, 0
3, 148982, Note_on_c, 2, 74, 58
3, 149317, Note_on_c, 2, 71, 59
3, 149324, Note_on_c, 2, 74, 0
3, 149457, Note_on_c, 2, 71, 0
3, 149625, Note_on_c, 2, 71, 35
3, 149667, Note_on_c, 2, 72, 64
3, 149676, Note_on_c, 2, 71, 0
3, 149893, Note_on_c, 2, 72, 0
3, 149964, Note_on_c, 2, 73, 38
3, 151378, Note_on_c, 2, 73, 0
3, 151457, Note_on_c, 2, 70, 34
3, 151514, Note_on_c, 2, 70, 0
3, 151553, Note_on_c, 2, 71, 58
3, 151650, Note_on_c, 2, 72, 62
3, 151653, Note_on_c, 2, 71, 0
3, 151726, Note_on_c, 2, 73, 55
3, 151761, Note_on_c, 2, 72, 0
3, 151846, Note_on_c, 2, 74, 80
3, 151854, Note_on_c, 2, 73, 0
3, 152179, Note_on_c, 2, 73, 54
3, 152204, Note_on_c, 2, 74, 0
3, 152648, Note_on_c, 2, 72, 57
3, 152756, Note_on_c, 2, 73, 0
3, 152935, Note_on_c, 2, 72, 0
3, 152994, Note_on_c, 2, 73, 31
3, 154002, Note_on_c, 2, 74, 63
3, 154046, Note_on_c, 2, 73, 0
3, 154268, Note_on_c, 2, 73, 35
3, 154269, Note_on_c, 2, 74, 0
3, 154459, Note_on_c, 2, 73, 0
3, 154469, Note_on_c, 2, 72, 45
3, 154692, Note_on_c, 2, 72, 0
3, 154736, Note_on_c, 2, 73, 36
3, 155461, Note_on_c, 2, 73, 0
3, 155472, Note_on_c, 2, 69, 38
3, 155769, Note_on_c, 2, 69, 0
3, 155847, Note_on_c, 2, 71, 43
3, 158375, Note_on_c, 2, 71, 0
3, 158461, Note_on_c, 2, 70, 47
3, 158828, Note_on_c, 2, 70, 0
3, 158852, Note_on_c, 2, 71, 46
3, 159802, Note_on_c, 2, 71, 0
3, 161940, Note_on_c, 2, 69, 20
3, 161983, Note_on_c, 2, 69, 0
3, 162033, Note_on_c, 2, 70, 37
3, 162116, Note_on_c, 2, 70, 0
3, 162148, Note_on_c, 2, 71, 60
3, 162247, Note_on_c, 2, 71, 0
3, 162259, Note_on_c, 2, 72, 63
3, 162340, Note_on_c, 2, 72, 0
3, 162389, Note_on_c, 2, 73, 70
3, 162755, Note_on_c, 2, 73, 0
3, 162791, Note_on_c, 2, 74, 78
3, 163200, Note_on_c, 2, 73, 60
3, 163245, Note_on_c, 2, 74, 0
3, 163995, Note_on_c, 2, 73, 0
3, 164001, Note_on_c, 2, 72, 47
3, 164300, Note_on_c, 2, 73, 35
3, 164305, Note_on_c, 2, 72, 0
3, 164529, Note_on_c, 2, 74, 45
3, 164530, Note_on_c, 2, 73, 0
3, 164690, Note_on_c, 2, 74, 0
3, 164696, Note_on_c, 2, 73, 30
3, 165648, Note_on_c, 2, 72, 49
3, 165650, Note_on_c, 2, 73, 0
3, 166035, Note_on_c, 2, 72, 0
3, 166068, Note_on_c, 2, 73, 29
3, 166578, Note_on_c, 2, 69, 40
3, 166608, Note_on_c, 2, 73, 0
3, 166931, Note_on_c, 2, 69, 0
3, 166982, Note_on_c, 2, 71, 66
3, 167337, Pitch_bend_c, 2, 8192
3, 167351, Pitch_bend_c, 2, 8192
3, 167366, Pitch_bend_c, 2, 8192
3, 167395, Pitch_bend_c, 2, 7680
3, 167417, Pitch_bend_c, 2, 7552
3, 167432, Pitch_bend_c, 2, 7424
3, 167446, Pitch_bend_c, 2, 7296
3, 167457, Pitch_bend_c, 2, 7168
3, 167458, Note_on_c, 2, 71, 0
3, 167464, Pitch_bend_c, 2, 7040
3, 167472, Pitch_bend_c, 2, 6784
3, 167487, Pitch_bend_c, 2, 6656
3, 167494, Pitch_bend_c, 2, 6528
3, 167509, Pitch_bend_c, 2, 6272
3, 167523, Pitch_bend_c, 2, 6144
3, 167538, Pitch_bend_c, 2, 6016
3, 167546, Pitch_bend_c, 2, 5888
3, 167565, Pitch_bend_c, 2, 5632
3, 167579, Pitch_bend_c, 2, 5504
3, 167588, Pitch_bend_c, 2, 5376
3, 167602, Pitch_bend_c, 2, 5120
3, 167608, Pitch_bend_c, 2, 4864
3, 167616, Pitch_bend_c, 2, 4736
3, 167623, Pitch_bend_c, 2, 4608
3, 167632, Pitch_bend_c, 2, 4352
3, 167641, Pitch_bend_c, 2, 4224
3, 167648, Pitch_bend_c, 2, 4096
3, 167655, Pitch_bend_c, 2, 3968
3, 167671, Pitch_bend_c, 2, 3712
3, 167685, Pitch_bend_c, 2, 3584
3, 167707, Pitch_bend_c, 2, 3456
3, 167729, Pitch_bend_c, 2, 3328
3, 167765, Pitch_bend_c, 2, 3200
3, 167859, Pitch_bend_c, 2, 3456
3, 167874, Pitch_bend_c, 2, 3712
3, 167881, Pitch_bend_c, 2, 3840
3, 167889, Pitch_bend_c, 2, 4096
3, 167896, Pitch_bend_c, 2, 4480
3, 167904, Pitch_bend_c, 2, 4864
3, 167911, Pitch_bend_c, 2, 5376
3, 167919, Pitch_bend_c, 2, 5888
3, 167928, Pitch_bend_c, 2, 6272
3, 167935, Pitch_bend_c, 2, 6656
3, 167943, Pitch_bend_c, 2, 7040
3, 167951, Pitch_bend_c, 2, 7424
3, 167959, Pitch_bend_c, 2, 8192
3, 167962, Pitch_bend_c, 2, 8192
3, 167966, Pitch_bend_c, 2, 8192
3, 168424, Note_on_c, 2, 73, 63
3, 168669, Note_on_c, 2, 73, 0
3, 168711, Note_on_c, 2, 71, 75
3, 168965, Note_on_c, 2, 71, 0
3, 169059, Note_on_c, 2, 71, 66
3, 169483, Note_on_c, 2, 71, 0
3, 169494, Note_on_c, 2, 70, 57
3, 169801, Note_on_c, 2, 70, 0
3, 169884, Note_on_c, 2, 71, 67
3, 170143, Pitch_bend_c, 2, 8192
3, 170157, Pitch_bend_c, 2, 7680
3, 170165, Pitch_bend_c, 2, 7424
3, 170173, Pitch_bend_c, 2, 7040
3, 170180, Pitch_bend_c, 2, 6656
3, 170188, Pitch_bend_c, 2, 6144
3, 170195, Pitch_bend_c, 2, 5760
3, 170202, Pitch_bend_c, 2, 5376
3, 170209, Pitch_bend_c, 2, 4736
3, 170218, Pitch_bend_c, 2, 4480
3, 170225, Pitch_bend_c, 2, 4096
3, 170232, Pitch_bend_c, 2, 3840
3, 170240, Pitch_bend_c, 2, 3584
3, 170254, Pitch_bend_c, 2, 3328
3, 170272, Note_on_c, 2, 71, 0
3, 170280, Pitch_bend_c, 2, 3200
3, 170301, Pitch_bend_c, 2, 3456
3, 170308, Pitch_bend_c, 2, 3584
3, 170315, Pitch_bend_c, 2, 3968
3, 170323, Pitch_bend_c, 2, 4480
3, 170330, Pitch_bend_c, 2, 5120
3, 170337, Pitch_bend_c, 2, 6144
3, 170346, Pitch_bend_c, 2, 7424
3, 170353, Pitch_bend_c, 2, 8192
3, 170465, Note_on_c, 2, 73, 48
3, 170908, Note_on_c, 2, 73, 0
3, 170935, Note_on_c, 2, 71, 62
3, 171685, Note_on_c, 2, 70, 71
3, 171695, Note_on_c, 2, 71, 0
3, 172014, Note_on_c, 2, 70, 0
3, 172049, Note_on_c, 2, 71, 62
3, 172700, Note_on_c, 2, 68, 52
3, 172732, Note_on_c, 2, 71, 0
3, 172861, Note_on_c, 2, 68, 0
3, 172992, Note_on_c, 2, 68, 46
3, 173184, Note_on_c, 2, 68, 0
3, 173203, Note_on_c, 2, 69, 53
3, 173368, Note_on_c, 2, 69, 0
3, 173455, Note_on_c, 2, 69, 49
3, 174755, Note_on_c, 2, 71, 66
3, 174801, Note_on_c, 2, 69, 0
3, 175074, Note_on_c, 2, 71, 0
3, 175130, Note_on_c, 2, 69, 74
3, 175357, Note_on_c, 2, 69, 0
3, 175403, Note_on_c, 2, 68, 47
3, 175659, Note_on_c, 2, 68, 0
3, 175699, Note_on_c, 2, 69, 56
3, 175877, Note_on_c, 2, 69, 0
3, 175900, Note_on_c, 2, 71, 54
3, 176063, Note_on_c, 2, 71, 0
3, 176109, Note_on_c, 2, 69, 54
3, 176244, Note_on_c, 2, 69, 0
3, 176274, Note_on_c, 2, 68, 32
3, 176386, Note_on_c, 2, 68, 0
3, 176454, Note_on_c, 2, 69, 38
3, 177206, Note_on_c, 2, 68, 74
3, 177261, Note_on_c, 2, 69, 0
3, 177680, Note_on_c, 2, 66, 75
3, 177756, Note_on_c, 2, 68, 0
3, 178135, Note_on_c, 2, 64, 62
3, 178433, Note_on_c, 2, 66, 0
3, 178605, Note_on_c, 2, 64, 0
3, 178630, Note_on_c, 2, 66, 53
3, 179564, Note_on_c, 2, 71, 62
3, 179596, Note_on_c, 2, 66, 0
3, 181434, Note_on_c, 2, 71, 0
3, 181503, Note_on_c, 2, 68, 49
3, 182296, Note_on_c, 2, 68, 0
3, 182320, Note_on_c, 2, 62, 45
3, 182386, Note_on_c, 2, 62, 0
3, 182439, Note_on_c, 2, 59, 55
3, 182498, Note_on_c, 2, 59, 0
3, 184360, Note_on_c, 2, 75, 53
3, 184507, Note_on_c, 2, 76, 50
3, 184558, Note_on_c, 2, 75, 0
3, 184666, Note_on_c, 2, 76, 0
3, 184742, Note_on_c, 2, 76, 75
3, 184924, Note_on_c, 2, 76, 0
3, 184997, Note_on_c, 2, 75, 75
3, 185214, Note_on_c, 2, 75, 0
3, 185279, Note_on_c, 2, 76, 64
3, 185606, Note_on_c, 2, 76, 0
3, 185627, Note_on_c, 2, 81, 64
3, 186862, Note_on_c, 2, 76, 49
3, 186891, Note_on_c, 2, 81, 0
3, 187045, Note_on_c, 2, 76, 0
3, 187101, Note_on_c, 2, 69, 31
3, 187279, Note_on_c, 2, 69, 0
3, 187417, Note_on_c, 2, 76, 53
3, 187719, Note_on_c, 2, 78, 46
3, 187755, Note_on_c, 2, 76, 0
3, 187949, Note_on_c, 2, 78, 0
3, 187981, Note_on_c, 2, 76, 38
3, 188798, Note_on_c, 2, 75, 72
3, 188855, Note_on_c, 2, 76, 0
3, 189226, Note_on_c, 2, 75, 0
3, 189275, Note_on_c, 2, 76, 51
3, 189944, Note_on_c, 2, 73, 53
3, 189968, Note_on_c, 2, 76, 0
3, 190262, Note_on_c, 2, 73, 0
3, 190322, Note_on_c, 2, 74, 57
3, 191199, Note_on_c, 2, 74, 0
3, 193993, Note_on_c, 2, 74, 88
3, 194295, Note_on_c, 2, 74, 0
3, 194297, Note_on_c, 2, 75, 55
3, 194472, Note_on_c, 2, 74, 51
3, 194512, Note_on_c, 2, 75, 0
3, 194612, Note_on_c, 2, 74, 0
3, 194636, Note_on_c, 2, 73, 28
3, 194803, Note_on_c, 2, 73, 0
3, 194924, Note_on_c, 2, 74, 74
3, 195189, Note_on_c, 2, 74, 0
3, 195200, Note_on_c, 2, 76, 66
3, 195430, Note_on_c, 2, 74, 52
3, 195480, Note_on_c, 2, 76, 0
3, 195593, Note_on_c, 2, 74, 0
3, 195621, Note_on_c, 2, 73, 32
3, 195795, Note_on_c, 2, 73, 0
3, 195868, Note_on_c, 2, 74, 60
3, 196031, Note_on_c, 2, 74, 0
3, 196088, Note_on_c, 2, 76, 47
3, 196241, Note_on_c, 2, 76, 0
3, 196321, Note_on_c, 2, 74, 54
3, 196560, Note_on_c, 2, 74, 0
3, 196587, Note_on_c, 2, 73, 32
3, 196790, Note_on_c, 2, 73, 0
3, 196858, Note_on_c, 2, 74, 43
3, 197209, Note_on_c, 2, 73, 33
3, 197218, Note_on_c, 2, 74, 0
3, 197542, Note_on_c, 2, 73, 0
3, 197627, Note_on_c, 2, 73, 28
3, 197940, Note_on_c, 2, 66, 52
3, 198259, Note_on_c, 2, 66, 0
3, 198340, Note_on_c, 2, 66, 37
3, 198398, Note_on_c, 2, 73, 0
3, 198555, Note_on_c, 2, 66, 0
3, 198644, Note_on_c, 2, 66, 37
3, 198965, Note_on_c, 2, 66, 0
3, 198980, Note_on_c, 2, 73, 20
3, 198997, Note_on_c, 2, 74, 57
3, 199147, Note_on_c, 2, 73, 0
3, 199745, Note_on_c, 2, 74, 0
3, 199795, Note_on_c, 2, 73, 31
3, 200665, Note_on_c, 2, 64, 28
3, 201467, Note_on_c, 2, 73, 0
3, 201581, Note_on_c, 2, 64, 0
3, 201625, Note_on_c, 2, 71, 44
3, 202600, Note_on_c, 2, 71, 0
3, 202609, Note_on_c, 2, 74, 46
3, 202704, Note_on_c, 2, 74, 0
3, 202769, Note_on_c, 2, 71, 54
3, 202870, Note_on_c, 2, 71, 0
3, 202908, Note_on_c, 2, 67, 55
3, 202955, Note_on_c, 2, 67, 0
3, 203009, Note_on_c, 2, 62, 57
3, 203089, Note_on_c, 2, 62, 0
3, 203166, Note_on_c, 2, 59, 56
3, 203224, Note_on_c, 2, 59, 0
3, 203336, Note_on_c, 2, 55, 35
3, 203374, Note_on_c, 2, 55, 0
3, 203504, Note_on_c, 2, 50, 29
3, 203541, Note_on_c, 2, 50, 0
3, 204465, Note_on_c, 2, 73, 70
3, 204676, Note_on_c, 2, 71, 53
3, 204908, Note_on_c, 2, 71, 0
3, 204956, Note_on_c, 2, 70, 56
3, 205065, Note_on_c, 2, 73, 0
3, 205174, Note_on_c, 2, 70, 0
3, 205236, Note_on_c, 2, 71, 50
3, 206576, Note_on_c, 2, 73, 44
3, 206649, Note_on_c, 2, 71, 0
3, 207012, Note_on_c, 2, 71, 45
3, 207207, Note_on_c, 2, 71, 0
3, 207223, Note_on_c, 2, 73, 0
3, 207235, Note_on_c, 2, 70, 37
3, 207646, Note_on_c, 2, 70, 0
3, 207668, Note_on_c, 2, 69, 20
3, 209588, Note_on_c, 2, 69, 0
3, 209588, End_track
4, 0, Start_track
4, 0, Title_t, "Bass"
4, 0, Program_c, 1, 32
4, 55, Note_on_c, 1, 33, 68
4, 2779, Note_on_c, 1, 33, 0
4, 2868, Note_on_c, 1, 33, 64
4, 5728, Note_on_c, 1, 33, 0
4, 5825, Note_on_c, 1, 33, 69
4, 8610, Note_on_c, 1, 33, 0
4, 8711, Note_on_c, 1, 33, 74
4, 11468, Note_on_c, 1, 33, 0
4, 11559, Note_on_c, 1, 33, 51
4, 14373, Note_on_c, 1, 33, 0
4, 14457, Note_on_c, 1, 33, 58
4, 16730, Note_on_c, 1, 33, 0
4, 16809, Note_on_c, 1, 33, 35
4, 17237, Note_on_c, 1, 33, 0
4, 17306, Note_on_c, 1, 33, 63
4, 20065, Note_on_c, 1, 33, 0
4, 20157, Note_on_c, 1, 33, 47
4, 22576, Note_on_c, 1, 40, 49
4, 23022, Note_on_c, 1, 45, 96
4, 23078, Note_on_c, 1, 40, 0
4, 23251, Note_on_c, 1, 33, 0
4, 28321, Note_on_c, 1, 45, 57
4, 28351, Note_on_c, 1, 45, 0
4, 28779, Note_on_c, 1, 45, 0
4, 28816, Note_on_c, 1, 47, 32
4, 29748, Note_on_c, 1, 41, 59
4, 29856, Note_on_c, 1, 47, 0
4, 31672, Note_on_c, 1, 41, 0
4, 31674, Note_on_c, 1, 40, 64
4, 34046, Note_on_c, 1, 46, 79
4, 34083, Note_on_c, 1, 40, 0
4, 34500, Note_on_c, 1, 46, 0
4, 34537, Note_on_c, 1, 45, 63
4, 35035, Note_on_c, 1, 33, 57
4, 35044, Note_on_c, 1, 45, 0
4, 35627, Note_on_c, 1, 40, 72
4, 35764, Note_on_c, 1, 33, 0
4, 37025, Note_on_c, 1, 43, 89
4, 37092, Note_on_c, 1, 40, 0
4, 37449, Note_on_c, 1, 43, 0
4, 37502, Note_on_c, 1, 43, 87
4, 40283, Note_on_c, 1, 43, 0
4, 40295, Note_on_c, 1, 41, 58
4, 43284, Note_on_c, 1, 41, 0
4, 43672, Note_on_c, 1, 40, 56
4, 44676, Note_on_c, 1, 59, 101
4, 46058, Note_on_c, 1, 40, 0
4, 46068, Note_on_c, 1, 52, 83
4, 46170, Note_on_c, 1, 59, 0
4, 47063, Note_on_c, 1, 40, 55
4, 47828, Note_on_c, 1, 52, 0
4, 49933, Note_on_c, 1, 40, 0
4, 49947, Note_on_c, 1, 45, 68
4, 51323, Note_on_c, 1, 33, 45
4, 51779, Note_on_c, 1, 45, 0
4, 51851, Note_on_c, 1, 38, 47
4, 51941, Note_on_c, 1, 33, 0
4, 52818, Note_on_c, 1, 54, 42
4, 54751, Note_on_c, 1, 54, 0
4, 55214, Note_on_c, 1, 43, 69
4, 55235, Note_on_c, 1, 38, 0
4, 55469, Note_on_c, 1, 42, 61
4, 55499, Note_on_c, 1, 43, 0
4, 55696, Note_on_c, 1, 42, 0
4, 55726, Note_on_c, 1, 43, 63
4, 56183, Note_on_c, 1, 31, 73
4, 56717, Note_on_c, 1, 43, 0
4, 57144, Note_on_c, 1, 43, 52
4, 57294, Note_on_c, 1, 43, 0
4, 57419, Note_on_c, 1, 44, 71
4, 57650, Note_on_c, 1, 44, 0
4, 57672, Note_on_c, 1, 45, 80
4, 57680, Note_on_c, 1, 31, 0
4, 58671, Note_on_c, 1, 33, 71
4, 58905, Note_on_c, 1, 45, 0
4, 60425, Note_on_c, 1, 33, 0
4, 60580, Note_on_c, 1, 37, 60
4, 62358, Note_on_c, 1, 42, 68
4, 62528, Note_on_c, 1, 37, 0
4, 63310, Note_on_c, 1, 47, 68
4, 63330, Note_on_c, 1, 42, 0
4, 64304, Note_on_c, 1, 41, 77
4, 64306, Note_on_c, 1, 47, 0
4, 66286, Note_on_c, 1, 40, 59
4, 66289, Note_on_c, 1, 41, 0
4, 67224, Note_on_c, 1, 52, 56
4, 69113, Note_on_c, 1, 52, 0
4, 69124, Note_on_c, 1, 45, 48
4, 69139, Note_on_c, 1, 40, 0
4, 69656, Note_on_c, 1, 61, 45
4, 71971, Note_on_c, 1, 54, 72
4, 71998, Note_on_c, 1, 45, 0
4, 72048, Note_on_c, 1, 61, 0
4, 74413, Note_on_c, 1, 54, 0
4, 74419, Note_on_c, 1, 42, 57
4, 74953, Note_on_c, 1, 47, 74
4, 74985, Note_on_c, 1, 42, 0
4, 75353, Note_on_c, 1, 47, 0
4, 75422, Note_on_c, 1, 47, 71
4, 76366, Note_on_c, 1, 41, 67
4, 76419, Note_on_c, 1, 47, 0
4, 77695, Note_on_c, 1, 41, 0
4, 77781, Note_on_c, 1, 40, 66
4, 78282, Note_on_c, 1, 28, 82
4, 78290, Note_on_c, 1, 40, 0
4, 80614, Note_on_c, 1, 33, 57
4, 80664, Note_on_c, 1, 28, 0
4, 83441, Note_on_c, 1, 42, 56
4, 83529, Note_on_c, 1, 33, 0
4, 86423, Note_on_c, 1, 47, 68
4, 86470, Note_on_c, 1, 42, 0
4, 89727, Note_on_c, 1, 40, 62
4, 89761, Note_on_c, 1, 47, 0
4, 90217, Note_on_c, 1, 40, 0
4, 90231, Note_on_c, 1, 46, 77
4, 91663, Note_on_c, 1, 46, 0
4, 91671, Note_on_c, 1, 39, 64
4, 92164, Note_on_c, 1, 40, 68
4, 92165, Note_on_c, 1, 39, 0
4, 93217, Note_on_c, 1, 28, 66
4, 95014, Note_on_c, 1, 40, 0
4, 95031, Note_on_c, 1, 33, 73
4, 95063, Note_on_c, 1, 28, 0
4, 97438, Note_on_c, 1, 33, 0
4, 97448, Note_on_c, 1, 45, 64
4, 97955, Note_on_c, 1, 44, 57
4, 97956, Note_on_c, 1, 45, 0
4, 100266, Note_on_c, 1, 44, 0
4, 100279, Note_on_c, 1, 45, 46
4, 100478, Note_on_c, 1, 45, 0
4, 100489, Note_on_c, 1, 44, 59
4, 100713, Note_on_c, 1, 44, 0
4, 100748, Note_on_c, 1, 43, 46
4, 101301, Note_on_c, 1, 31, 47
4, 102735, Note_on_c, 1, 31, 0
4, 103134, Note_on_c, 1, 43, 0
4, 103216, Note_on_c, 1, 43, 55
4, 103651, Note_on_c, 1, 43, 0
4, 103668, Note_on_c, 1, 37, 49
4, 106118, Note_on_c, 1, 49, 74
4, 106545, Note_on_c, 1, 37, 0
4, 106583, Note_on_c, 1, 42, 75
4, 106618, Note_on_c, 1, 49, 0
4, 107507, Note_on_c, 1, 54, 82
4, 107586, Note_on_c, 1, 42, 0
4, 109447, Note_on_c, 1, 41, 70
4, 109451, Note_on_c, 1, 54, 0
4, 111637, Note_on_c, 1, 41, 0
4, 111682, Note_on_c, 1, 38, 33
4, 111794, Note_on_c, 1, 38, 0
4, 111978, Note_on_c, 1, 39, 59
4, 112278, Note_on_c, 1, 39, 0
4, 112301, Note_on_c, 1, 40, 55
4, 113823, Note_on_c, 1, 40, 0
4, 113823, Note_on_c, 1, 35, 68
4, 114244, Note_on_c, 1, 35, 0
4, 114303, Note_on_c, 1, 35, 61
4, 114830, Note_on_c, 1, 35, 0
4, 115200, Note_on_c, 1, 45, 77
4, 117916, Note_on_c, 1, 45, 0
4, 118052, Note_on_c, 1, 45, 73
4, 119912, Note_on_c, 1, 45, 0
4, 120500, Note_on_c, 1, 45, 57
4, 120958, Note_on_c, 1, 45, 0
4, 120995, Note_on_c, 1, 47, 32
4, 121927, Note_on_c, 1, 41, 59
4, 122035, Note_on_c, 1, 47, 0
4, 123851, Note_on_c, 1, 41, 0
4, 123853, Note_on_c, 1, 40, 64
4, 126225, Note_on_c, 1, 46, 79
4, 126262, Note_on_c, 1, 40, 0
4, 126679, Note_on_c, 1, 46, 0
4, 126716, Note_on_c, 1, 45, 63
4, 127214, Note_on_c, 1, 33, 57
4, 127223, Note_on_c, 1, 45, 0
4, 127806, Note_on_c, 1, 40, 72
4, 127943, Note_on_c, 1, 33, 0
4, 129204, Note_on_c, 1, 43, 89
4, 129271, Note_on_c, 1, 40, 0
4, 129628, Note_on_c, 1, 43, 0
4, 129681, Note_on_c, 1, 43, 87
4, 132462, Note_on_c, 1, 43, 0
4, 132474, Note_on_c, 1, 41, 58
4, 135463, Note_on_c, 1, 41, 0
4, 135851, Note_on_c, 1, 40, 56
4, 136855, Note_on_c, 1, 59, 101
4, 138237, Note_on_c, 1, 40, 0
4, 138247, Note_on_c, 1, 52, 83
4, 138349, Note_on_c, 1, 59, 0
4, 139242, Note_on_c, 1, 40, 55
4, 140007, Note_on_c, 1, 52, 0
4, 142112, Note_on_c, 1, 40, 0
4, 142126, Note_on_c, 1, 45, 68
4, 143502, Note_on_c, 1, 33, 45
4, 143958, Note_on_c, 1, 45, 0
4, 144030, Note_on_c, 1, 38, 47
4, 144120, Note_on_c, 1, 33, 0
4, 144997, Note_on_c, 1, 54, 42
4, 146930, Note_on_c, 1, 54, 0
4, 147393, Note_on_c, 1, 43, 69
4, 147414, Note_on_c, 1, 38, 0
4, 147648, Note_on_c, 1, 42, 61
4, 147678, Note_on_c, 1, 43, 0
4, 147875, Note_on_c, 1, 42, 0
4, 147905, Note_on_c, 1, 43, 63
4, 148362, Note_on_c, 1, 31, 73
4, 148896, Note_on_c, 1, 43, 0
4, 149323, Note_on_c, 1, 43, 52
4, 149473, Note_on_c, 1, 43, 0
4, 149598, Note_on_c, 1, 44, 71
4, 149829, Note_on_c, 1, 44, 0
4, 149851, Note_on_c, 1, 45, 80
4, 149859, Note_on_c, 1, 31, 0
4, 150850, Note_on_c, 1, 33, 71
4, 151084, Note_on_c, 1, 45, 0
4, 152604, Note_on_c, 1, 33, 0
4, 152639, Note_on_c, 1, 37, 60
4, 154537, Note_on_c, 1, 42, 68
4, 154587, Note_on_c, 1, 37, 0
4, 155489, Note_on_c, 1, 47, 68
4, 155509, Note_on_c, 1, 42, 0
4, 156483, Note_on_c, 1, 41, 77
4, 156485, Note_on_c, 1, 47, 0
4, 158465, Note_on_c, 1, 40, 59
4, 158468, Note_on_c, 1, 41, 0
4, 159403, Note_on_c, 1, 52, 56
4, 161292, Note_on_c, 1, 52, 0
4, 161303, Note_on_c, 1, 45, 48
4, 161318, Note_on_c, 1, 40, 0
4, 161835, Note_on_c, 1, 61, 45
4, 164150, Note_on_c, 1, 54, 72
4, 164177, Note_on_c, 1, 45, 0
4, 164227, Note_on_c, 1, 61, 0
4, 166592, Note_on_c, 1, 54, 0
4, 166598, Note_on_c, 1, 42, 57
4, 167132, Note_on_c, 1, 47, 74
4, 167164, Note_on_c, 1, 42, 0
4, 167532, Note_on_c, 1, 47, 0
4, 167601, Note_on_c, 1, 47, 71
4, 168545, Note_on_c, 1, 41, 67
4, 168598, Note_on_c, 1, 47, 0
4, 169874, Note_on_c, 1, 41, 0
4, 169960, Note_on_c, 1, 40, 66
4, 170461, Note_on_c, 1, 28, 82
4, 170469, Note_on_c, 1, 40, 0
4, 172793, Note_on_c, 1, 33, 57
4, 172843, Note_on_c, 1, 28, 0
4, 175620, Note_on_c, 1, 42, 56
4, 175708, Note_on_c, 1, 33, 0
4, 178602, Note_on_c, 1, 47, 68
4, 178649, Note_on_c, 1, 42, 0
4, 181906, Note_on_c, 1, 40, 62
4, 181940, Note_on_c, 1, 47, 0
4, 182396, Note_on_c, 1, 40, 0
4, 182410, Note_on_c, 1, 46, 77
4, 183842, Note_on_c, 1, 46, 0
4, 183850, Note_on_c, 1, 39, 64
4, 184343, Note_on_c, 1, 40, 68
4, 184344, Note_on_c, 1, 39, 0
4, 185396, Note_on_c, 1, 28, 66
4, 187193, Note_on_c, 1, 40, 0
4, 187210, Note_on_c, 1, 33, 73
4, 187242, Note_on_c, 1, 28, 0
4, 189617, Note_on_c, 1, 33, 0
4, 189627, Note_on_c, 1, 45, 64
4, 190134, Note_on_c, 1, 44, 57
4, 190135, Note_on_c, 1, 45, 0
4, 192445, Note_on_c, 1, 44, 0
4, 192458, Note_on_c, 1, 45, 46
4, 192657, Note_on_c, 1, 45, 0
4, 192668, Note_on_c, 1, 44, 59
4, 192892, Note_on_c, 1, 44, 0
4, 192927, Note_on_c, 1, 43, 46
4, 193480, Note_on_c, 1, 31, 47
4, 194914, Note_on_c, 1, 31, 0
4, 195313, Note_on_c, 1, 43, 0
4, 195395, Note_on_c, 1, 43, 55
4, 195830, Note_on_c, 1, 43, 0
4, 195847, Note_on_c, 1, 37, 49
4, 198297, Note_on_c, 1, 49, 74
4, 198724, Note_on_c, 1, 37, 0
4, 198762, Note_on_c, 1, 42, 75
4, 198797, Note_on_c, 1, 49, 0
4, 199686, Note_on_c, 1, 54, 82
4, 199765, Note_on_c, 1, 42, 0
4, 201626, Note_on_c, 1, 41, 70
4, 201630, Note_on_c, 1, 54, 0
4, 203816, Note_on_c, 1, 41, 0
4, 203861, Note_on_c, 1, 38, 33
4, 203973, Note_on_c, 1, 38, 0
4, 204157, Note_on_c, 1, 39, 59
4, 204457, Note_on_c, 1, 39, 0
4, 204480, Note_on_c, 1, 40, 55
4, 206002, Note_on_c, 1, 40, 0
4, 206002, Note_on_c, 1, 35, 68
4, 206423, Note_on_c, 1, 35, 0
4, 206482, Note_on_c, 1, 35, 61
4, 207009, Note_on_c, 1, 35, 0
4, 207668, Note_on_c, 1, 45, 100
4, 211508, Note_on_c, 1, 45, 0
4, 211508, End_track
5, 0, Start_track
5, 0, Title_t, "Drums"
5, 0, Program_c, 9, 0
5, 8, Note_on_c, 9, 59, 41
5, 627, Note_on_c, 9, 59, 0
5, 4836, Note_on_c, 9, 59, 62
5, 4935, Note_on_c, 9, 59, 0
5, 5295, Note_on_c, 9, 59, 51
5, 5438, Note_on_c, 9, 59, 0
5, 5744, Note_on_c, 9, 59, 46
5, 6100, Note_on_c, 9, 59, 0
5, 10163, Note_on_c, 9, 59, 35
5, 10271, Note_on_c, 9, 59, 0
5, 10653, Note_on_c, 9, 59, 46
5, 10931, Note_on_c, 9, 59, 0
5, 12579, Note_on_c, 9, 51, 15
5, 12591, Note_on_c, 9, 59, 31
5, 12684, Note_on_c, 9, 51, 0
5, 12778, Note_on_c, 9, 59, 0
5, 12987, Note_on_c, 9, 51, 29
5, 13040, Note_on_c, 9, 59, 51
5, 13153, Note_on_c, 9, 51, 0
5, 13253, Note_on_c, 9, 59, 0
5, 13912, Note_on_c, 9, 51, 27
5, 13986, Note_on_c, 9, 59, 44
5, 14046, Note_on_c, 9, 51, 0
5, 14189, Note_on_c, 9, 59, 0
5, 14822, Note_on_c, 9, 51, 37
5, 14899, Note_on_c, 9, 59, 49
5, 14911, Note_on_c, 9, 51, 0
5, 15017, Note_on_c, 9, 59, 0
5, 15323, Note_on_c, 9, 51, 25
5, 15372, Note_on_c, 9, 59, 53
5, 15502, Note_on_c, 9, 51, 0
5, 15593, Note_on_c, 9, 59, 0
5, 23005, Note_on_c, 9, 59, 38
5, 23137, Note_on_c, 9, 59, 0
5, 24041, Note_on_c, 9, 44, 34
5, 24163, Note_on_c, 9, 44, 0
5, 25446, Note_on_c, 9, 59, 66
5, 25521, Note_on_c, 9, 59, 0
5, 25656, Note_on_c, 9, 59, 58
5, 25849, Note_on_c, 9, 59, 0
5, 26032, Note_on_c, 9, 59, 64
5, 26286, Note_on_c, 9, 59, 0
5, 26854, Note_on_c, 9, 44, 46
5, 27199, Note_on_c, 9, 44, 0
5, 27778, Note_on_c, 9, 44, 35
5, 28023, Note_on_c, 9, 44, 0
5, 29856, Note_on_c, 9, 59, 36
5, 29939, Note_on_c, 9, 59, 0
5, 30334, Note_on_c, 9, 59, 54
5, 30400, Note_on_c, 9, 59, 0
5, 30823, Note_on_c, 9, 59, 48
5, 30885, Note_on_c, 9, 59, 0
5, 32711, Note_on_c, 9, 59, 44
5, 32797, Note_on_c, 9, 59, 0
5, 33594, Note_on_c, 9, 46, 38
5, 33715, Note_on_c, 9, 46, 0
5, 34566, Note_on_c, 9, 59, 53
5, 34615, Note_on_c, 9, 59, 0
5, 35075, Note_on_c, 9, 59, 63
5, 35123, Note_on_c, 9, 59, 0
5, 35601, Note_on_c, 9, 59, 53
5, 35653, Note_on_c, 9, 59, 0
5, 37936, Note_on_c, 9, 44, 44
5, 38053, Note_on_c, 9, 44, 0
5, 38423, Note_on_c, 9, 44, 31
5, 38615, Note_on_c, 9, 44, 0
5, 38935, Note_on_c, 9, 59, 34
5, 39014, Note_on_c, 9, 59, 0
5, 40821, Note_on_c, 9, 53, 31
5, 40929, Note_on_c, 9, 53, 0
5, 41294, Note_on_c, 9, 53, 38
5, 41423, Note_on_c, 9, 53, 0
5, 41763, Note_on_c, 9, 59, 67
5, 41838, Note_on_c, 9, 59, 0
5, 42251, Note_on_c, 9, 59, 66
5, 42353, Note_on_c, 9, 59, 0
5, 42748, Note_on_c, 9, 53, 44
5, 42762, Note_on_c, 9, 51, 36
5, 42937, Note_on_c, 9, 53, 0
5, 42966, Note_on_c, 9, 51, 0
5, 45132, Note_on_c, 9, 53, 51
5, 45177, Note_on_c, 9, 59, 67
5, 45234, Note_on_c, 9, 53, 0
5, 45463, Note_on_c, 9, 59, 0
5, 45605, Note_on_c, 9, 53, 50
5, 45652, Note_on_c, 9, 59, 56
5, 45699, Note_on_c, 9, 53, 0
5, 45887, Note_on_c, 9, 59, 0
5, 47121, Note_on_c, 9, 44, 49
5, 47309, Note_on_c, 9, 44, 0
5, 48066, Note_on_c, 9, 44, 42
5, 48232, Note_on_c, 9, 44, 0
5, 49807, Note_on_c, 9, 59, 53
5, 49853, Note_on_c, 9, 59, 0
5, 50006, Note_on_c, 9, 59, 50
5, 50155, Note_on_c, 9, 59, 0
5, 50455, Note_on_c, 9, 59, 66
5, 50807, Note_on_c, 9, 59, 0
5, 51157, Note_on_c, 9, 59, 48
5, 51213, Note_on_c, 9, 59, 0
5, 51366, Note_on_c, 9, 59, 54
5, 51534, Note_on_c, 9, 59, 0
5, 51862, Note_on_c, 9, 59, 57
5, 51982, Note_on_c, 9, 59, 0
5, 52366, Note_on_c, 9, 59, 52
5, 52497, Note_on_c, 9, 59, 0
5, 52865, Note_on_c, 9, 59, 41
5, 52999, Note_on_c, 9, 59, 0
5, 55634, Note_on_c, 9, 44, 61
5, 55985, Note_on_c, 9, 44, 0
5, 56680, Note_on_c, 9, 44, 42
5, 56965, Note_on_c, 9, 44, 0
5, 57455, Note_on_c, 9, 59, 33
5, 57544, Note_on_c, 9, 59, 0
5, 57646, Note_on_c, 9, 59, 44
5, 57921, Note_on_c, 9, 59, 0
5, 58141, Note_on_c, 9, 59, 48
5, 58383, Note_on_c, 9, 59, 0
5, 58647, Note_on_c, 9, 59, 38
5, 58851, Note_on_c, 9, 59, 0
5, 59133, Note_on_c, 9, 44, 23
5, 59267, Note_on_c, 9, 44, 0
5, 59604, Note_on_c, 9, 44, 31
5, 59782, Note_on_c, 9, 44, 0
5, 60100, Note_on_c, 9, 59, 34
5, 60212, Note_on_c, 9, 59, 0
5, 62384, Note_on_c, 9, 46, 36
5, 62500, Note_on_c, 9, 46, 0
5, 63377, Note_on_c, 9, 59, 33
5, 63429, Note_on_c, 9, 59, 0
5, 63836, Note_on_c, 9, 59, 58
5, 63878, Note_on_c, 9, 59, 0
5, 64329, Note_on_c, 9, 59, 57
5, 64392, Note_on_c, 9, 59, 0
5, 65301, Note_on_c, 9, 44, 40
5, 65672, Note_on_c, 9, 44, 0
5, 66277, Note_on_c, 9, 59, 26
5, 66337, Note_on_c, 9, 59, 0
5, 66789, Note_on_c, 9, 59, 58
5, 66831, Note_on_c, 9, 59, 0
5, 67277, Note_on_c, 9, 59, 65
5, 67319, Note_on_c, 9, 59, 0
5, 68230, Note_on_c, 9, 44, 33
5, 68308, Note_on_c, 9, 44, 0
5, 70148, Note_on_c, 9, 59, 79
5, 70225, Note_on_c, 9, 59, 0
5, 70625, Note_on_c, 9, 59, 64
5, 70714, Note_on_c, 9, 59, 0
5, 71121, Note_on_c, 9, 59, 62
5, 71204, Note_on_c, 9, 59, 0
5, 73035, Note_on_c, 9, 59, 53
5, 73107, Note_on_c, 9, 59, 0
5, 74429, Note_on_c, 9, 59, 19
5, 74533, Note_on_c, 9, 59, 0
5, 75861, Note_on_c, 9, 53, 42
5, 75910, Note_on_c, 9, 59, 61
5, 75982, Note_on_c, 9, 53, 0
5, 76001, Note_on_c, 9, 59, 0
5, 76341, Note_on_c, 9, 53, 46
5, 76362, Note_on_c, 9, 59, 51
5, 76448, Note_on_c, 9, 53, 0
5, 76495, Note_on_c, 9, 59, 0
5, 78786, Note_on_c, 9, 44, 49
5, 79064, Note_on_c, 9, 44, 0
5, 79727, Note_on_c, 9, 44, 37
5, 79971, Note_on_c, 9, 44, 0
5, 81627, Note_on_c, 9, 59, 47
5, 81730, Note_on_c, 9, 59, 0
5, 82632, Note_on_c, 9, 59, 41
5, 82723, Note_on_c, 9, 59, 0
5, 82867, Note_on_c, 9, 53, 31
5, 82937, Note_on_c, 9, 53, 0
5, 83068, Note_on_c, 9, 53, 41
5, 83141, Note_on_c, 9, 53, 0
5, 83516, Note_on_c, 9, 59, 40
5, 83586, Note_on_c, 9, 59, 0
5, 84188, Note_on_c, 9, 53, 37
5, 84262, Note_on_c, 9, 53, 0
5, 84447, Note_on_c, 9, 53, 33
5, 84531, Note_on_c, 9, 53, 0
5, 85517, Note_on_c, 9, 46, 43
5, 85606, Note_on_c, 9, 46, 0
5, 86327, Note_on_c, 9, 59, 47
5, 86384, Note_on_c, 9, 59, 0
5, 86514, Note_on_c, 9, 59, 56
5, 86633, Note_on_c, 9, 59, 0
5, 87004, Note_on_c, 9, 59, 44
5, 87129, Note_on_c, 9, 59, 0
5, 87491, Note_on_c, 9, 59, 38
5, 87572, Note_on_c, 9, 59, 0
5, 88375, Note_on_c, 9, 44, 40
5, 88490, Note_on_c, 9, 44, 0
5, 89784, Note_on_c, 9, 53, 31
5, 89845, Note_on_c, 9, 53, 0
5, 90285, Note_on_c, 9, 59, 57
5, 90327, Note_on_c, 9, 59, 0
5, 90740, Note_on_c, 9, 59, 57
5, 90777, Note_on_c, 9, 59, 0
5, 91220, Note_on_c, 9, 59, 57
5, 91262, Note_on_c, 9, 59, 0
5, 91684, Note_on_c, 9, 53, 53
5, 91738, Note_on_c, 9, 53, 0
5, 92175, Note_on_c, 9, 59, 64
5, 92207, Note_on_c, 9, 44, 25
5, 92213, Note_on_c, 9, 59, 0
5, 92249, Note_on_c, 9, 44, 0
5, 93169, Note_on_c, 9, 59, 46
5, 93178, Note_on_c, 9, 53, 36
5, 93220, Note_on_c, 9, 59, 0
5, 93232, Note_on_c, 9, 53, 0
5, 96091, Note_on_c, 9, 59, 42
5, 96100, Note_on_c, 9, 44, 29
5, 96103, Note_on_c, 9, 53, 28
5, 96153, Note_on_c, 9, 59, 0
5, 96208, Note_on_c, 9, 53, 0
5, 96229, Note_on_c, 9, 44, 0
5, 97483, Note_on_c, 9, 59, 46
5, 97545, Note_on_c, 9, 59, 0
5, 97954, Note_on_c, 9, 59, 48
5, 98019, Note_on_c, 9, 59, 0
5, 98455, Note_on_c, 9, 59, 47
5, 98522, Note_on_c, 9, 59, 0
5, 98962, Note_on_c, 9, 59, 40
5, 99065, Note_on_c, 9, 59, 0
5, 100177, Note_on_c, 9, 44, 37
5, 100227, Note_on_c, 9, 44, 0
5, 101793, Note_on_c, 9, 59, 35
5, 101813, Note_on_c, 9, 53, 26
5, 101874, Note_on_c, 9, 59, 0
5, 101903, Note_on_c, 9, 53, 0
5, 102290, Note_on_c, 9, 59, 46
5, 102302, Note_on_c, 9, 53, 34
5, 102373, Note_on_c, 9, 59, 0
5, 102408, Note_on_c, 9, 53, 0
5, 103269, Note_on_c, 9, 59, 47
5, 103276, Note_on_c, 9, 53, 32
5, 103341, Note_on_c, 9, 59, 0
5, 103355, Note_on_c, 9, 53, 0
5, 103729, Note_on_c, 9, 59, 48
5, 103750, Note_on_c, 9, 53, 34
5, 103823, Note_on_c, 9, 59, 0
5, 103836, Note_on_c, 9, 53, 0
5, 104185, Note_on_c, 9, 59, 51
5, 104192, Note_on_c, 9, 53, 34
5, 104272, Note_on_c, 9, 59, 0
5, 104281, Note_on_c, 9, 53, 0
5, 105180, Note_on_c, 9, 59, 48
5, 105188, Note_on_c, 9, 53, 36
5, 105253, Note_on_c, 9, 59, 0
5, 105292, Note_on_c, 9, 53, 0
5, 105678, Note_on_c, 9, 59, 50
5, 105687, Note_on_c, 9, 53, 33
5, 105749, Note_on_c, 9, 59, 0
5, 105758, Note_on_c, 9, 53, 0
5, 106116, Note_on_c, 9, 53, 48
5, 106120, Note_on_c, 9, 44, 37
5, 106123, Note_on_c, 9, 59, 45
5, 106189, Note_on_c, 9, 59, 0
5, 106222, Note_on_c, 9, 53, 0
5, 106223, Note_on_c, 9, 44, 0
5, 107049, Note_on_c, 9, 59, 59
5, 107071, Note_on_c, 9, 53, 34
5, 107135, Note_on_c, 9, 59, 0
5, 107159, Note_on_c, 9, 53, 0
5, 107518, Note_on_c, 9, 59, 54
5, 107529, Note_on_c, 9, 53, 37
5, 107610, Note_on_c, 9, 59, 0
5, 107622, Note_on_c, 9, 53, 0
5, 108474, Note_on_c, 9, 44, 31
5, 108538, Note_on_c, 9, 44, 0
5, 108960, Note_on_c, 9, 53, 42
5, 108966, Note_on_c, 9, 59, 24
5, 109000, Note_on_c, 9, 59, 0
5, 109022, Note_on_c, 9, 53, 0
5, 109429, Note_on_c, 9, 59, 60
5, 109444, Note_on_c, 9, 53, 45
5, 109497, Note_on_c, 9, 59, 0
5, 109520, Note_on_c, 9, 53, 0
5, 109952, Note_on_c, 9, 59, 40
5, 109988, Note_on_c, 9, 53, 24
5, 110012, Note_on_c, 9, 59, 0
5, 110045, Note_on_c, 9, 53, 0
5, 110438, Note_on_c, 9, 53, 35
5, 110439, Note_on_c, 9, 59, 42
5, 110519, Note_on_c, 9, 59, 0
5, 110540, Note_on_c, 9, 53, 0
5, 111881, Note_on_c, 9, 53, 47
5, 111892, Note_on_c, 9, 59, 48
5, 111953, Note_on_c, 9, 59, 0
5, 111976, Note_on_c, 9, 53, 0
5, 112299, Note_on_c, 9, 59, 58
5, 112323, Note_on_c, 9, 53, 45
5, 112405, Note_on_c, 9, 59, 0
5, 112414, Note_on_c, 9, 53, 0
5, 112786, Note_on_c, 9, 59, 54
5, 112798, Note_on_c, 9, 53, 40
5, 112852, Note_on_c, 9, 59, 0
5, 112865, Note_on_c, 9, 53, 0
5, 113266, Note_on_c, 9, 59, 50
5, 113276, Note_on_c, 9, 53, 38
5, 113328, Note_on_c, 9, 59, 0
5, 113335, Note_on_c, 9, 53, 0
5, 114793, Note_on_c, 9, 53, 40
5, 114846, Note_on_c, 9, 53, 0
5, 116220, Note_on_c, 9, 44, 34
5, 116342, Note_on_c, 9, 44, 0
5, 117625, Note_on_c, 9, 59, 66
5, 117700, Note_on_c, 9, 59, 0
5, 117835, Note_on_c, 9, 59, 58
5, 118028, Note_on_c, 9, 59, 0
5, 118211, Note_on_c, 9, 59, 64
5, 118465, Note_on_c, 9, 59, 0
5, 119033, Note_on_c, 9, 44, 46
5, 119378, Note_on_c, 9, 44, 0
5, 119957, Note_on_c, 9, 44, 35
5, 120202, Note_on_c, 9, 44, 0
5, 122035, Note_on_c, 9, 59, 36
5, 122118, Note_on_c, 9, 59, 0
5, 122513, Note_on_c, 9, 59, 54
5, 122579, Note_on_c, 9, 59, 0
5, 123002, Note_on_c, 9, 59, 48
5, 123064, Note_on_c, 9, 59, 0
5, 124890, Note_on_c, 9, 59, 44
5, 124976, Note_on_c, 9, 59, 0
5, 125773, Note_on_c, 9, 46, 38
5, 125894, Note_on_c, 9, 46, 0
5, 126745, Note_on_c, 9, 59, 53
5, 126794, Note_on_c, 9, 59, 0
5, 127254, Note_on_c, 9, 59, 63
5, 127302, Note_on_c, 9, 59, 0
5, 127780, Note_on_c, 9, 59, 53
5, 127832, Note_on_c, 9, 59, 0
5, 130115, Note_on_c, 9, 44, 44
5, 130232, Note_on_c, 9, 44, 0
5, 130602, Note_on_c, 9, 44, 31
5, 130794, Note_on_c, 9, 44, 0
5, 131114, Note_on_c, 9, 59, 34
5, 131193, Note_on_c, 9, 59, 0
5, 133000, Note_on_c, 9, 53, 31
5, 133108, Note_on_c, 9, 53, 0
5, 133473, Note_on_c, 9, 53, 38
5, 133602, Note_on_c, 9, 53, 0
5, 133942, Note_on_c, 9, 59, 67
5, 134017, Note_on_c, 9, 59, 0
5, 134430, Note_on_c, 9, 59, 66
5, 134532, Note_on_c, 9, 59, 0
5, 134927, Note_on_c, 9, 53, 44
5, 134941, Note_on_c, 9, 51, 36
5, 135116, Note_on_c, 9, 53, 0
5, 135145, Note_on_c, 9, 51, 0
5, 137311, Note_on_c, 9, 53, 51
5, 137356, Note_on_c, 9, 59, 67
5, 137413, Note_on_c, 9, 53, 0
5, 137642, Note_on_c, 9, 59, 0
5, 137784, Note_on_c, 9, 53, 50
5, 137831, Note_on_c, 9, 59, 56
5, 137878, Note_on_c, 9, 53, 0
5, 138066, Note_on_c, 9, 59, 0
5, 139300, Note_on_c, 9, 44, 49
5, 139488, Note_on_c, 9, 44, 0
5, 140245, Note_on_c, 9, 44, 42
5, 140411, Note_on_c, 9, 44, 0
5, 141986, Note_on_c, 9, 59, 53
5, 142032, Note_on_c, 9, 59, 0
5, 142185, Note_on_c, 9, 59, 50
5, 142334, Note_on_c, 9, 59, 0
5, 142634, Note_on_c, 9, 59, 66
5, 142986, Note_on_c, 9, 59, 0
5, 143336, Note_on_c, 9, 59, 48
5, 143392, Note_on_c, 9, 59, 0
5, 143545, Note_on_c, 9, 59, 54
5, 143713, Note_on_c, 9, 59, 0
5, 144041, Note_on_c, 9, 59, 57
5, 144161, Note_on_c, 9, 59, 0
5, 144545, Note_on_c, 9, 59, 52
5, 144676, Note_on_c, 9, 59, 0
5, 145044, Note_on_c, 9, 59, 41
5, 145178, Note_on_c, 9, 59, 0
5, 147813, Note_on_c, 9, 44, 61
5, 148164, Note_on_c, 9, 44, 0
5, 148859, Note_on_c, 9, 44, 42
5, 149144, Note_on_c, 9, 44, 0
5, 149634, Note_on_c, 9, 59, 33
5, 149723, Note_on_c, 9, 59, 0
5, 149825, Note_on_c, 9, 59, 44
5, 150100, Note_on_c, 9, 59, 0
5, 150320, Note_on_c, 9, 59, 48
5, 150562, Note_on_c, 9, 59, 0
5, 150826, Note_on_c, 9, 59, 38
5, 151030, Note_on_c, 9, 59, 0
5, 151312, Note_on_c, 9, 44, 23
5, 151446, Note_on_c, 9, 44, 0
5, 151783, Note_on_c, 9, 44, 31
5, 151961, Note_on_c, 9, 44, 0
5, 152279, Note_on_c, 9, 59, 34
5, 152391, Note_on_c, 9, 59, 0
5, 154563, Note_on_c, 9, 46, 36
5, 154679, Note_on_c, 9, 46, 0
5, 155556, Note_on_c, 9, 59, 33
5, 155608, Note_on_c, 9, 59, 0
5, 156015, Note_on_c, 9, 59, 58
5, 156057, Note_on_c, 9, 59, 0
5, 156508, Note_on_c, 9, 59, 57
5, 156571, Note_on_c, 9, 59, 0
5, 157480, Note_on_c, 9, 44, 40
5, 157851, Note_on_c, 9, 44, 0
5, 158456, Note_on_c, 9, 59, 26
5, 158516, Note_on_c, 9, 59, 0
5, 158968, Note_on_c, 9, 59, 58
5, 159010, Note_on_c, 9, 59, 0
5, 159456, Note_on_c, 9, 59, 65
5, 159498, Note_on_c, 9, 59, 0
5, 160409, Note_on_c, 9, 44, 33
5, 160487, Note_on_c, 9, 44, 0
5, 162327, Note_on_c, 9, 59, 79
5, 162404, Note_on_c, 9, 59, 0
5, 162804, Note_on_c, 9, 59, 64
5, 162893, Note_on_c, 9, 59, 0
5, 163300, Note_on_c, 9, 59, 62
5, 163383, Note_on_c, 9, 59, 0
5, 165214, Note_on_c, 9, 59, 53
5, 165286, Note_on_c, 9, 59, 0
5, 166608, Note_on_c, 9, 59, 19
5, 166712, Note_on_c, 9, 59, 0
5, 168040, Note_on_c, 9, 53, 42
5, 168089, Note_on_c, 9, 59, 61
5, 168161, Note_on_c, 9, 53, 0
5, 168180, Note_on_c, 9, 59, 0
5, 168520, Note_on_c, 9, 53, 46
5, 168541, Note_on_c, 9, 59, 51
5, 168627, Note_on_c, 9, 53, 0
5, 168674, Note_on_c, 9, 59, 0
5, 170965, Note_on_c, 9, 44, 49
5, 171243, Note_on_c, 9, 44, 0
5, 171906, Note_on_c, 9, 44, 37
5, 172150, Note_on_c, 9, 44, 0
5, 173806, Note_on_c, 9, 59, 47
5, 173909, Note_on_c, 9, 59, 0
5, 174811, Note_on_c, 9, 59, 41
5, 174902, Note_on_c, 9, 59, 0
5, 175046, Note_on_c, 9, 53, 31
5, 175116, Note_on_c, 9, 53, 0
5, 175247, Note_on_c, 9, 53, 41
5, 175320, Note_on_c, 9, 53, 0
5, 175695, Note_on_c, 9, 59, 40
5, 175765, Note_on_c, 9, 59, 0
5, 176367, Note_on_c, 9, 53, 37
5, 176441, Note_on_c, 9, 53, 0
5, 176626, Note_on_c, 9, 53, 33
5, 176710, Note_on_c, 9, 53, 0
5, 177696, Note_on_c, 9, 46, 43
5, 177785, Note_on_c, 9, 46, 0
5, 178506, Note_on_c, 9, 59, 47
5, 178563, Note_on_c, 9, 59, 0
5, 178693, Note_on_c, 9, 59, 56
5, 178812, Note_on_c, 9, 59, 0
5, 179183, Note_on_c, 9, 59, 44
5, 179308, Note_on_c, 9, 59, 0
5, 179670, Note_on_c, 9, 59, 38
5, 179751, Note_on_c, 9, 59, 0
5, 180554, Note_on_c, 9, 44, 40
5, 180669, Note_on_c, 9, 44, 0
5, 181963, Note_on_c, 9, 53, 31
5, 182024, Note_on_c, 9, 53, 0
5, 182464, Note_on_c, 9, 59, 57
5, 182506, Note_on_c, 9, 59, 0
5, 182919, Note_on_c, 9, 59, 57
5, 182956, Note_on_c, 9, 59, 0
5, 183399, Note_on_c, 9, 59, 57
5, 183441, Note_on_c, 9, 59, 0
5, 183863, Note_on_c, 9, 53, 53
5, 183917, Note_on_c, 9, 53, 0
5, 184354, Note_on_c, 9, 59, 64
5, 184386, Note_on_c, 9, 44, 25
5, 184392, Note_on_c, 9, 59, 0
5, 184428, Note_on_c, 9, 44, 0
5, 185348, Note_on_c, 9, 59, 46
5, 185357, Note_on_c, 9, 53, 36
5, 185399, Note_on_c, 9, 59, 0
5, 185411, Note_on_c, 9, 53, 0
5, 188270, Note_on_c, 9, 59, 42
5, 188279, Note_on_c, 9, 44, 29
5, 188282, Note_on_c, 9, 53, 28
5, 188332, Note_on_c, 9, 59, 0
5, 188387, Note_on_c, 9, 53, 0
5, 188408, Note_on_c, 9, 44, 0
5, 189662, Note_on_c, 9, 59, 46
5, 189724, Note_on_c, 9, 59, 0
5, 190133, Note_on_c, 9, 59, 48
5, 190198, Note_on_c, 9, 59, 0
5, 190634, Note_on_c, 9, 59, 47
5, 190701, Note_on_c, 9, 59, 0
5, 191141, Note_on_c, 9, 59, 40
5, 191244, Note_on_c, 9, 59, 0
5, 192356, Note_on_c, 9, 44, 37
5, 192406, Note_on_c, 9, 44, 0
5, 193972, Note_on_c, 9, 59, 35
5, 193992, Note_on_c, 9, 53, 26
5, 194053, Note_on_c, 9, 59, 0
5, 194082, Note_on_c, 9, 53, 0
5, 194469, Note_on_c, 9, 59, 46
5, 194481, Note_on_c, 9, 53, 34
5, 194552, Note_on_c, 9, 59, 0
5, 194587, Note_on_c, 9, 53, 0
5, 195448, Note_on_c, 9, 59, 47
5, 195455, Note_on_c, 9, 53, 32
5, 195520, Note_on_c, 9, 59, 0
5, 195534, Note_on_c, 9, 53, 0
5, 195908, Note_on_c, 9, 59, 48
5, 195929, Note_on_c, 9, 53, 34
5, 196002, Note_on_c, 9, 59, 0
5, 196015, Note_on_c, 9, 53, 0
5, 196364, Note_on_c, 9, 59, 51
5, 196371, Note_on_c, 9, 53, 34
5, 196451, Note_on_c, 9, 59, 0
5, 196460, Note_on_c, 9, 53, 0
5, 197359, Note_on_c, 9, 59, 48
5, 197367, Note_on_c, 9, 53, 36
5, 197432, Note_on_c, 9, 59, 0
5, 197471, Note_on_c, 9, 53, 0
5, 197857, Note_on_c, 9, 59, 50
5, 197866, Note_on_c, 9, 53, 33
5, 197928, Note_on_c, 9, 59, 0
5, 197937, Note_on_c, 9, 53, 0
5, 198295, Note_on_c, 9, 53, 48
5, 198299, Note_on_c, 9, 44, 37
5, 198302, Note_on_c, 9, 59, 45
5, 198368, Note_on_c, 9, 59, 0
5, 198401, Note_on_c, 9, 53, 0
5, 198402, Note_on_c, 9, 44, 0
5, 199228, Note_on_c, 9, 59, 59
5, 199250, Note_on_c, 9, 53, 34
5, 199314, Note_on_c, 9, 59, 0
5, 199338, Note_on_c, 9, 53, 0
5, 199697, Note_on_c, 9, 59, 54
5, 199708, Note_on_c, 9, 53, 37
5, 199789, Note_on_c, 9, 59, 0
5, 199801, Note_on_c, 9, 53, 0
5, 200653, Note_on_c, 9, 44, 31
5, 200717, Note_on_c, 9, 44, 0
5, 201139, Note_on_c, 9, 53, 42
5, 201145, Note_on_c, 9, 59, 24
5, 201179, Note_on_c, 9, 59, 0
5, 201201, Note_on_c, 9, 53, 0
5, 201608, Note_on_c, 9, 59, 60
5, 201623, Note_on_c, 9, 53, 45
5, 201676, Note_on_c, 9, 59, 0
5, 201699, Note_on_c, 9, 53, 0
5, 202131, Note_on_c, 9, 59, 40
5, 202167, Note_on_c, 9, 53, 24
5, 202191, Note_on_c, 9, 59, 0
5, 202224, Note_on_c, 9, 53, 0
5, 202617, Note_on_c, 9, 53, 35
5, 202618, Note_on_c, 9, 59, 42
5, 202698, Note_on_c, 9, 59, 0
5, 202719, Note_on_c, 9, 53, 0
5, 204060, Note_on_c, 9, 53, 47
5, 204071, Note_on_c, 9, 59, 48
5, 204132, Note_on_c, 9, 59, 0
5, 204155, Note_on_c, 9, 53, 0
5, 204478, Note_on_c, 9, 59, 58
5, 204502, Note_on_c, 9, 53, 45
5, 204584, Note_on_c, 9, 59, 0
5, 204593, Note_on_c, 9, 53, 0
5, 204965, Note_on_c, 9, 59, 54
5, 204977, Note_on_c, 9, 53, 40
5, 205031, Note_on_c, 9, 59, 0
5, 205044, Note_on_c, 9, 53, 0
5, 205445, Note_on_c, 9, 59, 50
5, 205455, Note_on_c, 9, 53, 38
5, 205507, Note_on_c, 9, 59, 0
5, 205514, Note_on_c, 9, 53, 0
5, 206972, Note_on_c, 9, 53, 40
5, 207025, Note_on_c, 9, 53, 0
5, 207668, Note_on_c, 9, 57, 17
5, 207719, Note_on_c, 9, 57, 0
5, 207719, End_track
6, 0, Start_track
6, 0, Title_t, "Drums"
6, 0, End_track
0, 0, End_of_file
