0, 0, Header, 1, 3, 960
1, 0, Start_track
1, 0, Key_signature, 1, "major"
1, 0, SMPTE_offset, 96, 0, 0, 0, 0
1, 0, Sequencer_specific, 126, 0, 0, 0, 106, 0, 1, 24, 39, 0, 0, 0, 0, 0, 0, 0, 0, 0, 0, 0, 0, 0, 0, 20, 42, 0, 0, 0, 0, 0, 0, 64, 36, 0, 0, 0, 0, 0, 0, 24, 8, 0, 0, 0, 0, 0, 0, 0, 0, 0, 0, 0, 0, 0, 0, 19, 23, 0, 0, 0, 0, 0, 0, 82, 5, 0, 0, 0, 0, 0, 0, 20, 12, 0, 0, 0, 0, 0, 0, 76, 49, 0, 0, 0, 0, 0, 0, 20, 12, 0, 0, 0, 0, 0, 0, 0, 0, 0, 0, 0, 0, 0, 0, 64, 36, 0, 0, 0, 0, 0, 0, 0, 0, 0, 0, 0, 0, 0, 0, 128, 3, 0, 0, 0, 0, 0, 0
1, 0, Sequencer_specific, 126, 0, 0, 0, 106, 0, 1, 1, 117, 0, 0, 0, 0, 0, 0, 6, 8, 0, 0, 0, 0, 0, 0, 0, 0, 0, 0, 0, 0, 0, 0, 19, 11, 0, 0, 0, 0, 0, 0, 67, 36, 0, 0, 0, 0, 0, 0, 6, 39, 0, 0, 0, 0, 0, 0, 0, 0, 0, 0, 0, 0, 0, 0, 20, 23, 0, 0, 0, 0, 64, 24, 76, 49, 0, 0, 0, 0, 0, 0, 20, 10, 0, 0, 0, 0, 0, 0, 76, 49, 0, 0, 0, 0, 0, 0, 19, 12, 0, 0, 0, 0, 0, 0, 31, 29, 0, 0, 0, 0, 0, 0, 20, 23, 0, 0, 33, 42, 0, 0, 20, 12, 0, 0, 64, 3, 0, 0
1, 0, Sequencer_specific, 126, 0, 0, 0, 106, 0, 1, 24, 8, 0, 0, 0, 0, 0, 0, 0, 0, 0, 0, 128, 27, 0, 0, 6, 39, 0, 0, 0, 0, 0, 0, 0, 0, 0, 0, 0, 0, 0, 0, 20, 42, 0, 0, 0, 0, 0, 0, 64, 4, 0, 0, 0, 0, 0, 0, 24, 39, 0, 0, 0, 0, 0, 0, 0, 0, 0, 0, 0, 0, 0, 0, 20, 12, 0, 0, 0, 0, 0, 0, 82, 49, 0, 0, 0, 0, 0, 0, 19, 12, 0, 0, 0, 0, 0, 0, 76, 5, 0, 0, 0, 0, 0, 0, 20, 12, 0, 0, 0, 0, 0, 0, 0, 0, 0, 0, 0, 0, 0, 0, 64, 36, 0, 0, 0, 0, 0, 0
1, 0, Sequencer_specific, 126, 0, 0, 0, 106, 0, 1, 0, 0, 0, 0, 0, 0, 0, 0, 128, 27, 0, 0, 0, 0, 0, 0, 64, 3, 0, 0, 0, 0, 0, 0, 24, 8, 0, 0, 0, 0, 0, 0, 0, 0, 0, 0, 0, 0, 0, 0, 19, 11, 0, 0, 0, 0, 0, 0, 67, 36, 0, 0, 0, 0, 0, 0, 6, 8, 0, 0, 0, 0, 0, 0, 0, 0, 0, 0, 0, 0, 0, 0, 19, 23, 0, 0, 0, 0, 64, 24, 76, 5, 0, 0, 0, 0, 0, 0, 20, 12, 0, 0, 0, 0, 0, 0, 76, 49, 0, 0, 0, 0, 0, 0, 20, 10, 0, 0, 0, 0, 0, 0, 31, 29, 0, 0, 0, 0, 0, 0
1, 0, Sequencer_specific, 126, 0, 0, 0, 106, 0, 1, 19, 23, 0, 0, 33, 11, 0, 0, 20, 12, 0, 0, 64, 27, 0, 0, 24, 39, 0, 0, 0, 0, 0, 0, 0, 0, 0, 0, 128, 3, 0, 0, 6, 8, 0, 0, 0, 0, 0, 0, 0, 0, 0, 0, 0, 0, 0, 0, 19, 11, 0, 0, 0, 0, 0, 0, 64, 4, 0, 0, 0, 0, 0, 0, 6, 8, 0, 0, 0, 0, 0, 0, 0, 0, 0, 0, 0, 0, 0, 0, 19, 12, 0, 0, 0, 0, 0, 0, 82, 5, 0, 0, 0, 0, 0, 0, 19, 10, 0, 0, 0, 0, 0, 0, 76, 5, 0, 0, 0, 0, 0, 0, 19, 10, 0, 0, 0, 0, 0, 0
1, 0, Sequencer_specific, 126, 0, 0, 0, 106, 0, 1, 0, 0, 0, 0, 0, 0, 0, 0, 64, 4, 0, 0, 0, 0, 0, 0, 0, 0, 0, 0, 0, 0, 0, 0, 128, 3, 0, 0, 0, 0, 0, 0, 1, 117, 0, 0, 0, 0, 0, 0, 6, 8, 0, 0, 0, 0, 0, 0, 0, 0, 0, 0, 0, 0, 0, 0, 19, 11, 0, 0, 0, 0, 0, 0, 67, 4, 0, 0, 0, 0, 0, 0, 6, 8, 0, 0, 0, 0, 0, 0, 0, 0, 0, 0, 0, 0, 0, 0, 19, 12, 0, 0, 0, 0, 64, 6, 76, 5, 0, 0, 0, 0, 0, 0, 19, 10, 0, 0, 0, 0, 0, 0, 76, 5, 0, 0, 0, 0, 0, 0
1, 0, Sequencer_specific, 126, 0, 0, 0, 106, 0, 1, 19, 10, 0, 0, 0, 0, 0, 0, 23, 1, 0, 0, 0, 0, 0, 0, 19, 12, 0, 0, 33, 11, 0, 0, 19, 10, 0, 0, 64, 3, 0, 0, 6, 8, 0, 0, 0, 0, 0, 0, 0, 0, 0, 0, 1, 8, 0, 0, 0, 0, 0, 0, 0, 0, 0, 0, 0, 0, 0, 0, 0, 0, 0, 0, 0, 0, 0, 0, 0, 0, 0, 0, 0, 0, 0, 0, 0, 0, 0, 0, 0, 0, 0, 0, 0, 0, 0, 0, 0, 0, 0, 0, 0, 0, 0, 0, 0, 0, 0, 0, 0, 0, 0, 0, 0, 0, 0, 0, 0, 0, 0, 0, 0, 0, 0, 0, 0, 0, 0, 0
1, 0, Sequencer_specific, 126, 0, 0, 0, 106, 0, 1, 0, 0, 0, 0, 0, 0, 0, 0, 0, 0, 0, 0, 0, 0, 0, 0, 0, 0, 0, 0, 0, 0, 0, 0, 0, 0, 0, 0, 0, 0, 0, 0, 0, 0, 0, 0, 0, 0, 0, 0, 0, 0, 0, 0, 0, 0, 0, 0, 0, 0, 0, 0, 0, 0, 0, 0, 0, 0, 0, 0, 0, 0, 0, 0, 0, 0, 0, 0, 0, 0, 0, 0, 0, 0, 0, 0, 0, 0, 0, 0, 0, 0, 0, 0, 0, 0, 0, 0, 0, 0, 0, 0, 0, 0, 0, 0, 0, 0, 0, 0, 0, 0, 0, 0, 0, 0, 0, 0, 0, 0, 0, 0, 0, 0, 0, 0, 0, 0, 0, 0
1, 0, Sequencer_specific, 72, 0, 0, 0, 106, 0, 1, 0, 0, 0, 0, 0, 0, 0, 0, 0, 0, 0, 0, 0, 0, 0, 0, 0, 0, 0, 0, 0, 0, 0, 0, 0, 0, 0, 0, 0, 0, 0, 0, 0, 0, 0, 0, 0, 0, 0, 0, 0, 0, 0, 0, 0, 0, 0, 0, 0, 0, 0, 0, 0, 0, 0, 0, 0, 0, 0, 0, 0, 0, 0, 0, 0, 0
1, 0, Tempo, 451127
1, 0, Time_signature, 4, 2, 24, 8
1, 269449, Marker_t, "Glissando on E7b9 chord"
1, 269449, End_track
2, 0, Start_track
2, 0, MIDI_port, 0
2, 0, Sequencer_specific, 7, 0, 0, 0, 106, 0, 4, 0
2, 0, Title_t, "Out of Nowhere 2"
2, 0, Lyric_t, "dougmck@pipeline.com.au\\"
2, 0, Lyric_t, "Played in real time\\"
2, 0, End_track
3, 0, Start_track
3, 0, MIDI_port, 0
3, 0, Sequencer_specific, 7, 0, 0, 0, 106, 0, 4, 1
3, 0, Title_t, "Acoustic Grand Piano"
3, 0, Program_c, 0, 0
3, 71, Note_on_c, 7, 52, 29
3, 71, Note_on_c, 7, 57, 28
3, 71, Note_on_c, 7, 59, 26
3, 142, Note_on_c, 7, 62, 22
3, 732, Note_on_c, 8, 74, 62
3, 1317, Note_on_c, 8, 74, 0
3, 1379, Note_on_c, 8, 76, 48
3, 1478, Note_on_c, 8, 76, 0
3, 1666, Note_on_c, 8, 78, 64
3, 1812, Note_on_c, 8, 78, 0
3, 2003, Note_on_c, 8, 81, 83
3, 2012, Note_on_c, 8, 69, 73
3, 2018, Note_on_c, 8, 74, 62
3, 2476, Note_on_c, 8, 74, 0
3, 2478, Note_on_c, 8, 69, 0
3, 2499, Note_on_c, 8, 81, 0
3, 2977, Note_on_c, 8, 81, 82
3, 2980, Note_on_c, 8, 69, 88
3, 2981, Note_on_c, 8, 74, 80
3, 2996, Note_on_c, 8, 78, 50
3, 3484, Note_on_c, 8, 69, 0
3, 3503, Note_on_c, 8, 74, 0
3, 3531, Note_on_c, 8, 81, 0
3, 3536, Note_on_c, 8, 78, 0
3, 3949, Note_on_c, 8, 69, 82
3, 3951, Note_on_c, 8, 78, 60
3, 3958, Note_on_c, 8, 81, 71
3, 3968, Note_on_c, 8, 74, 66
3, 4071, Note_on_c, 7, 52, 0
3, 4071, Note_on_c, 7, 57, 0
3, 4071, Note_on_c, 7, 59, 0
3, 4142, Note_on_c, 7, 62, 0
3, 4410, Note_on_c, 8, 81, 0
3, 4453, Note_on_c, 8, 69, 0
3, 4481, Note_on_c, 8, 74, 0
3, 4523, Note_on_c, 8, 78, 0
3, 4641, Note_on_c, 8, 79, 57
3, 4780, Note_on_c, 8, 79, 0
3, 4800, Note_on_c, 7, 62, 36
3, 4800, Note_on_c, 8, 67, 57
3, 4800, Note_on_c, 8, 74, 55
3, 4800, Control_c, 7, 85, 4
3, 4800, Control_c, 7, 86, 4
3, 4882, Note_on_c, 8, 67, 0
3, 4934, Note_on_c, 8, 74, 0
3, 4941, Note_on_c, 7, 62, 0
3, 5507, Note_on_c, 7, 62, 54
3, 5507, Note_on_c, 8, 74, 65
3, 5529, Note_on_c, 7, 59, 38
3, 5545, Note_on_c, 7, 57, 37
3, 5554, Note_on_c, 8, 67, 33
3, 5562, Note_on_c, 7, 52, 31
3, 5616, Note_on_c, 8, 67, 0
3, 5634, Note_on_c, 7, 57, 0
3, 5639, Note_on_c, 7, 59, 0
3, 5644, Note_on_c, 7, 62, 0
3, 5667, Note_on_c, 8, 74, 0
3, 5676, Note_on_c, 7, 52, 0
3, 5760, Control_c, 8, 85, 4
3, 5760, Control_c, 8, 86, 4
3, 6464, Note_on_c, 8, 76, 62
3, 6468, Note_on_c, 7, 62, 49
3, 6489, Note_on_c, 7, 59, 36
3, 6490, Note_on_c, 7, 52, 33
3, 6503, Note_on_c, 8, 67, 47
3, 6516, Note_on_c, 8, 74, 44
3, 6519, Note_on_c, 7, 57, 32
3, 6757, Control_c, 0, 64, 127
3, 7026, Note_on_c, 7, 52, 0
3, 7042, Note_on_c, 7, 57, 0
3, 7044, Note_on_c, 8, 67, 0
3, 7066, Note_on_c, 7, 59, 0
3, 7142, Note_on_c, 8, 74, 0
3, 7153, Note_on_c, 7, 62, 0
3, 7184, Note_on_c, 8, 76, 0
3, 7758, Note_on_c, 8, 82, 81
3, 7767, Note_on_c, 7, 56, 70
3, 7770, Note_on_c, 7, 65, 72
3, 7779, Control_c, 0, 64, 0
3, 7780, Note_on_c, 7, 61, 64
3, 7783, Note_on_c, 7, 60, 59
3, 7786, Note_on_c, 8, 89, 83
3, 7794, Note_on_c, 8, 77, 83
3, 7813, Note_on_c, 8, 85, 50
3, 7871, Note_on_c, 8, 85, 0
3, 7988, Note_on_c, 8, 82, 0
3, 8172, Control_c, 0, 64, 127
3, 8226, Note_on_c, 8, 77, 0
3, 8228, Note_on_c, 7, 56, 0
3, 8249, Note_on_c, 7, 65, 0
3, 8270, Note_on_c, 8, 89, 0
3, 8276, Note_on_c, 7, 60, 0
3, 8293, Note_on_c, 7, 61, 0
3, 8396, Note_on_c, 7, 56, 60
3, 8398, Note_on_c, 7, 65, 67
3, 8402, Control_c, 0, 64, 0
3, 8405, Note_on_c, 8, 89, 72
3, 8409, Note_on_c, 7, 61, 55
3, 8416, Note_on_c, 7, 60, 64
3, 8421, Note_on_c, 8, 77, 63
3, 8640, Note_on_c, 8, 89, 0
3, 8641, Note_on_c, 7, 65, 0
3, 8653, Note_on_c, 8, 77, 0
3, 8656, Note_on_c, 7, 60, 0
3, 8658, Note_on_c, 7, 56, 0
3, 8751, Note_on_c, 7, 56, 39
3, 8754, Note_on_c, 7, 65, 54
3, 8768, Note_on_c, 8, 89, 62
3, 8772, Control_c, 0, 64, 127
3, 8780, Note_on_c, 8, 77, 53
3, 8786, Note_on_c, 7, 60, 45
3, 9137, Note_on_c, 7, 65, 0
3, 9143, Note_on_c, 7, 56, 0
3, 9155, Note_on_c, 8, 89, 0
3, 9157, Note_on_c, 8, 77, 0
3, 9176, Note_on_c, 7, 60, 0
3, 9330, Note_on_c, 7, 56, 63
3, 9334, Note_on_c, 7, 65, 64
3, 9338, Note_on_c, 7, 60, 54
3, 9349, Note_on_c, 8, 89, 55
3, 9351, Note_on_c, 8, 77, 60
3, 9396, Note_on_c, 8, 82, 35
3, 9428, Note_on_c, 8, 85, 26
3, 9488, Note_on_c, 8, 85, 0
3, 9511, Control_c, 0, 64, 0
3, 9526, Note_on_c, 8, 82, 0
3, 9531, Note_on_c, 7, 65, 0
3, 9555, Note_on_c, 7, 56, 0
3, 9562, Note_on_c, 8, 89, 0
3, 9563, Note_on_c, 7, 60, 0
3, 9594, Note_on_c, 8, 77, 0
3, 9717, Note_on_c, 7, 56, 38
3, 9720, Note_on_c, 7, 65, 58
3, 9723, Note_on_c, 8, 89, 45
3, 9728, Control_c, 0, 64, 127
3, 9737, Note_on_c, 8, 77, 39
3, 9759, Note_on_c, 7, 60, 43
3, 9963, Note_on_c, 8, 77, 0
3, 10003, Note_on_c, 8, 89, 0
3, 10006, Note_on_c, 7, 56, 0
3, 10013, Note_on_c, 7, 65, 0
3, 10042, Note_on_c, 7, 60, 0
3, 10183, Note_on_c, 7, 61, 0
3, 10283, Note_on_c, 8, 91, 66
3, 10295, Note_on_c, 7, 65, 53
3, 10308, Note_on_c, 7, 61, 33
3, 10316, Note_on_c, 8, 79, 47
3, 10324, Note_on_c, 7, 60, 19
3, 10426, Note_on_c, 7, 60, 0
3, 10428, Note_on_c, 7, 65, 0
3, 10440, Note_on_c, 8, 79, 0
3, 10453, Note_on_c, 8, 91, 0
3, 10466, Control_c, 0, 64, 0
3, 10484, Note_on_c, 7, 61, 0
3, 10651, Note_on_c, 7, 56, 37
3, 10669, Note_on_c, 8, 89, 48
3, 10672, Note_on_c, 7, 61, 30
3, 10675, Note_on_c, 7, 65, 27
3, 10706, Note_on_c, 8, 77, 34
3, 10746, Control_c, 0, 64, 127
3, 10870, Note_on_c, 7, 65, 0
3, 10941, Note_on_c, 7, 61, 0
3, 10947, Note_on_c, 8, 77, 0
3, 10992, Note_on_c, 8, 89, 0
3, 11028, Note_on_c, 7, 56, 0
3, 11186, Control_c, 0, 64, 0
3, 11253, Note_on_c, 8, 89, 64
3, 11265, Note_on_c, 7, 65, 45
3, 11279, Note_on_c, 8, 77, 40
3, 11289, Note_on_c, 7, 61, 37
3, 11292, Note_on_c, 7, 55, 36
3, 11341, Note_on_c, 7, 65, 0
3, 11394, Note_on_c, 8, 77, 0
3, 11401, Note_on_c, 7, 61, 0
3, 11420, Control_c, 0, 64, 127
3, 11422, Note_on_c, 8, 89, 0
3, 11475, Note_on_c, 7, 55, 0
3, 12165, Note_on_c, 7, 39, 43
3, 12181, Note_on_c, 7, 27, 46
3, 12315, Note_on_c, 7, 27, 0
3, 12339, Note_on_c, 7, 39, 0
3, 13159, Note_on_c, 8, 72, 74
3, 13179, Note_on_c, 7, 60, 74
3, 13181, Note_on_c, 8, 61, 86
3, 13187, Note_on_c, 8, 65, 78
3, 13196, Note_on_c, 8, 69, 60
3, 13204, Control_c, 0, 64, 0
3, 13556, Control_c, 0, 64, 127
3, 13698, Note_on_c, 7, 60, 0
3, 13876, Note_on_c, 8, 69, 0
3, 13997, Note_on_c, 8, 61, 0
3, 14025, Note_on_c, 8, 72, 0
3, 14071, Note_on_c, 8, 65, 0
3, 14333, Control_c, 0, 64, 0
3, 14425, Note_on_c, 8, 70, 55
3, 14431, Note_on_c, 7, 44, 35
3, 14447, Note_on_c, 7, 54, 25
3, 14449, Note_on_c, 8, 61, 53
3, 14578, Control_c, 0, 64, 127
3, 14617, Note_on_c, 8, 70, 0
3, 14698, Note_on_c, 8, 61, 0
3, 14893, Note_on_c, 7, 54, 0
3, 14977, Note_on_c, 7, 44, 0
3, 15092, Note_on_c, 8, 66, 32
3, 15099, Note_on_c, 8, 57, 36
3, 15115, Note_on_c, 8, 62, 45
3, 15124, Note_on_c, 8, 59, 46
3, 15129, Control_c, 0, 64, 0
3, 15152, Note_on_c, 7, 43, 33
3, 15157, Note_on_c, 7, 54, 27
3, 15176, Note_on_c, 7, 50, 33
3, 15444, Control_c, 0, 64, 127
3, 15481, Note_on_c, 7, 50, 0
3, 15568, Note_on_c, 7, 54, 0
3, 15746, Note_on_c, 8, 62, 0
3, 15791, Note_on_c, 8, 59, 0
3, 15799, Note_on_c, 8, 57, 0
3, 15924, Note_on_c, 8, 66, 0
3, 16014, Note_on_c, 7, 49, 39
3, 16046, Note_on_c, 8, 62, 63
3, 16060, Control_c, 0, 64, 0
3, 16067, Note_on_c, 8, 57, 64
3, 16071, Note_on_c, 8, 59, 62
3, 16075, Note_on_c, 7, 50, 61
3, 16134, Note_on_c, 7, 49, 0
3, 16357, Note_on_c, 7, 43, 0
3, 16477, Note_on_c, 8, 59, 0
3, 16484, Control_c, 0, 64, 127
3, 16519, Control_c, 0, 64, 0
3, 16525, Note_on_c, 8, 57, 0
3, 16617, Note_on_c, 8, 62, 0
3, 16676, Note_on_c, 8, 57, 60
3, 16679, Note_on_c, 8, 64, 55
3, 16684, Note_on_c, 7, 52, 46
3, 16686, Note_on_c, 8, 59, 64
3, 16745, Note_on_c, 7, 50, 0
3, 16803, Control_c, 0, 64, 127
3, 17045, Note_on_c, 8, 59, 0
3, 17096, Note_on_c, 8, 57, 0
3, 17135, Note_on_c, 8, 64, 0
3, 17191, Control_c, 0, 64, 0
3, 17310, Note_on_c, 7, 54, 67
3, 17318, Note_on_c, 8, 59, 68
3, 17321, Note_on_c, 8, 66, 65
3, 17339, Note_on_c, 7, 52, 0
3, 17343, Note_on_c, 8, 57, 58
3, 17453, Control_c, 0, 64, 127
3, 17527, Note_on_c, 8, 59, 0
3, 17621, Note_on_c, 8, 66, 0
3, 17651, Note_on_c, 8, 57, 0
3, 17860, Note_on_c, 7, 56, 57
3, 17934, Note_on_c, 7, 54, 0
3, 17945, Note_on_c, 7, 56, 0
3, 17955, Note_on_c, 7, 55, 84
3, 17966, Control_c, 0, 64, 0
3, 17968, Note_on_c, 8, 66, 57
3, 17980, Note_on_c, 8, 59, 71
3, 17982, Note_on_c, 8, 69, 71
3, 17984, Note_on_c, 8, 62, 73
3, 17989, Note_on_c, 7, 57, 87
3, 17999, Note_on_c, 7, 54, 38
3, 18014, Note_on_c, 7, 55, 0
3, 18118, Note_on_c, 7, 54, 0
3, 18444, Note_on_c, 8, 59, 0
3, 18446, Note_on_c, 8, 69, 0
3, 18450, Note_on_c, 8, 62, 0
3, 18520, Note_on_c, 8, 66, 0
3, 18534, Note_on_c, 7, 57, 0
3, 18562, Note_on_c, 7, 54, 32
3, 18566, Note_on_c, 7, 53, 20
3, 18649, Note_on_c, 7, 55, 57
3, 18681, Note_on_c, 8, 66, 49
3, 18688, Note_on_c, 8, 69, 69
3, 18689, Note_on_c, 8, 59, 63
3, 18693, Note_on_c, 8, 62, 71
3, 18709, Note_on_c, 7, 54, 0
3, 18712, Note_on_c, 8, 57, 57
3, 18786, Note_on_c, 7, 55, 0
3, 18818, Note_on_c, 7, 53, 0
3, 19047, Note_on_c, 7, 53, 14
3, 19050, Note_on_c, 7, 52, 15
3, 19093, Note_on_c, 8, 62, 0
3, 19136, Note_on_c, 8, 59, 0
3, 19149, Note_on_c, 8, 57, 0
3, 19164, Note_on_c, 8, 69, 0
3, 19167, Note_on_c, 8, 66, 0
3, 19205, Note_on_c, 7, 52, 0
3, 19229, Note_on_c, 7, 55, 36
3, 19374, Note_on_c, 7, 53, 0
3, 19377, Note_on_c, 7, 56, 59
3, 19394, Note_on_c, 8, 69, 51
3, 19395, Note_on_c, 8, 59, 50
3, 19400, Note_on_c, 8, 66, 34
3, 19402, Note_on_c, 8, 62, 62
3, 19408, Note_on_c, 7, 55, 0
3, 19415, Note_on_c, 7, 57, 66
3, 19436, Note_on_c, 7, 56, 0
3, 19817, Note_on_c, 8, 59, 0
3, 19848, Note_on_c, 8, 62, 0
3, 19900, Note_on_c, 8, 69, 0
3, 19944, Note_on_c, 8, 66, 0
3, 20020, Note_on_c, 8, 59, 45
3, 20026, Note_on_c, 8, 67, 55
3, 20028, Note_on_c, 7, 57, 0
3, 20031, Note_on_c, 8, 62, 35
3, 20056, Note_on_c, 7, 55, 41
3, 20309, Control_c, 0, 64, 127
3, 20693, Note_on_c, 7, 55, 0
3, 20708, Note_on_c, 8, 62, 0
3, 20722, Note_on_c, 8, 59, 0
3, 20978, Control_c, 0, 64, 0
3, 21046, Note_on_c, 8, 67, 0
3, 21066, Note_on_c, 8, 59, 40
3, 21079, Note_on_c, 8, 62, 40
3, 21120, Note_on_c, 7, 50, 27
3, 21240, Control_c, 0, 64, 127
3, 21534, Note_on_c, 8, 59, 0
3, 21912, Control_c, 0, 64, 0
3, 22029, Note_on_c, 8, 55, 32
3, 22054, Control_c, 0, 64, 127
3, 22097, Note_on_c, 7, 50, 0
3, 22301, Note_on_c, 8, 55, 0
3, 22690, Note_on_c, 8, 64, 22
3, 22762, Control_c, 0, 64, 0
3, 22911, Note_on_c, 8, 64, 0
3, 22979, Note_on_c, 8, 57, 29
3, 22983, Note_on_c, 8, 62, 0
3, 22990, Control_c, 0, 64, 127
3, 22997, Note_on_c, 8, 66, 51
3, 23107, Note_on_c, 8, 57, 0
3, 23135, Note_on_c, 8, 66, 0
3, 23709, Note_on_c, 8, 78, 64
3, 23924, Note_on_c, 8, 78, 0
3, 23980, Control_c, 0, 64, 0
3, 24036, Note_on_c, 8, 66, 33
3, 24159, Note_on_c, 8, 66, 0
3, 24360, Note_on_c, 8, 74, 47
3, 24559, Note_on_c, 8, 74, 0
3, 24662, Note_on_c, 8, 78, 54
3, 24775, Note_on_c, 8, 78, 0
3, 24999, Note_on_c, 8, 81, 37
3, 25097, Note_on_c, 8, 81, 0
3, 25298, Note_on_c, 8, 86, 69
3, 25439, Note_on_c, 8, 86, 0
3, 25597, Note_on_c, 8, 90, 74
3, 25785, Note_on_c, 8, 90, 0
3, 25916, Note_on_c, 8, 91, 80
3, 25920, Note_on_c, 7, 52, 39
3, 25920, Control_c, 7, 85, 1
3, 25928, Note_on_c, 7, 62, 50
3, 25944, Note_on_c, 7, 56, 36
3, 26099, Note_on_c, 8, 91, 0
3, 26151, Note_on_c, 7, 52, 0
3, 26209, Note_on_c, 8, 90, 68
3, 26238, Note_on_c, 7, 56, 0
3, 26252, Note_on_c, 7, 62, 0
3, 26400, Note_on_c, 8, 90, 0
3, 26539, Note_on_c, 8, 89, 70
3, 26733, Note_on_c, 8, 89, 0
3, 26904, Note_on_c, 8, 88, 30
3, 27019, Note_on_c, 8, 88, 0
3, 27647, Note_on_c, 7, 67, 42
3, 27660, Note_on_c, 7, 56, 37
3, 27673, Note_on_c, 7, 62, 45
3, 28799, Note_on_c, 8, 88, 91
3, 28986, Note_on_c, 8, 88, 0
3, 29149, Note_on_c, 8, 76, 37
3, 29267, Note_on_c, 8, 76, 0
3, 29440, Note_on_c, 8, 80, 49
3, 29602, Note_on_c, 8, 80, 0
3, 29776, Note_on_c, 8, 83, 68
3, 29865, Note_on_c, 7, 67, 0
3, 29918, Note_on_c, 8, 83, 0
3, 29924, Note_on_c, 7, 62, 0
3, 30067, Note_on_c, 8, 86, 91
3, 30224, Control_c, 0, 64, 127
3, 30279, Note_on_c, 8, 86, 0
3, 30386, Note_on_c, 8, 83, 79
3, 30475, Note_on_c, 7, 56, 0
3, 30608, Note_on_c, 8, 83, 0
3, 30612, Control_c, 0, 64, 0
3, 30703, Note_on_c, 7, 57, 36
3, 30706, Note_on_c, 7, 64, 41
3, 30731, Note_on_c, 8, 84, 80
3, 30738, Note_on_c, 7, 60, 33
3, 30947, Control_c, 0, 64, 127
3, 30970, Note_on_c, 7, 64, 0
3, 31002, Note_on_c, 7, 60, 0
3, 31115, Note_on_c, 7, 57, 0
3, 31570, Note_on_c, 8, 84, 0
3, 31678, Note_on_c, 7, 45, 41
3, 31698, Note_on_c, 8, 81, 53
3, 31768, Note_on_c, 7, 45, 0
3, 32716, Note_on_c, 7, 64, 29
3, 32750, Note_on_c, 8, 72, 28
3, 32764, Note_on_c, 7, 60, 30
3, 32765, Note_on_c, 8, 76, 38
3, 32811, Note_on_c, 7, 59, 28
3, 32993, Note_on_c, 7, 64, 0
3, 33025, Note_on_c, 7, 60, 0
3, 33036, Note_on_c, 7, 59, 0
3, 33628, Control_c, 0, 64, 0
3, 33753, Note_on_c, 7, 52, 79
3, 33767, Note_on_c, 7, 40, 80
3, 33850, Note_on_c, 8, 76, 0
3, 33864, Note_on_c, 8, 81, 0
3, 33895, Note_on_c, 8, 72, 0
3, 34299, Note_on_c, 7, 40, 0
3, 34373, Note_on_c, 7, 52, 0
3, 34774, Control_c, 0, 64, 127
3, 35196, Control_c, 0, 64, 0
3, 35270, Note_on_c, 7, 56, 58
3, 35276, Note_on_c, 8, 76, 84
3, 35279, Note_on_c, 7, 62, 66
3, 35281, Note_on_c, 8, 72, 80
3, 35284, Note_on_c, 8, 67, 87
3, 35676, Control_c, 0, 64, 127
3, 35726, Note_on_c, 7, 62, 0
3, 35752, Note_on_c, 8, 67, 0
3, 35796, Note_on_c, 8, 72, 0
3, 35847, Note_on_c, 8, 76, 0
3, 35875, Note_on_c, 8, 74, 61
3, 35890, Control_c, 0, 64, 0
3, 35899, Note_on_c, 8, 70, 62
3, 35902, Note_on_c, 7, 62, 63
3, 35926, Control_c, 0, 64, 127
3, 35941, Note_on_c, 8, 65, 36
3, 35955, Note_on_c, 8, 67, 29
3, 36125, Note_on_c, 8, 67, 0
3, 36176, Note_on_c, 8, 74, 0
3, 36214, Note_on_c, 8, 70, 0
3, 36231, Note_on_c, 7, 62, 0
3, 36245, Note_on_c, 8, 65, 0
3, 36374, Note_on_c, 7, 56, 0
3, 36453, Control_c, 0, 64, 0
3, 36521, Note_on_c, 8, 72, 57
3, 36542, Note_on_c, 8, 67, 59
3, 36546, Note_on_c, 8, 64, 46
3, 36565, Note_on_c, 7, 62, 57
3, 36578, Note_on_c, 7, 56, 39
3, 36666, Control_c, 0, 64, 127
3, 36696, Note_on_c, 8, 67, 0
3, 36707, Note_on_c, 7, 62, 0
3, 36790, Note_on_c, 8, 72, 0
3, 36831, Note_on_c, 8, 64, 0
3, 36841, Note_on_c, 7, 56, 0
3, 37205, Note_on_c, 7, 46, 52
3, 37212, Control_c, 0, 64, 0
3, 37219, Note_on_c, 7, 56, 37
3, 37244, Note_on_c, 8, 67, 36
3, 37247, Note_on_c, 8, 64, 29
3, 37266, Note_on_c, 8, 60, 18
3, 37544, Note_on_c, 8, 60, 0
3, 37550, Control_c, 0, 64, 127
3, 37645, Note_on_c, 8, 64, 0
3, 37750, Note_on_c, 7, 56, 0
3, 37901, Note_on_c, 8, 67, 0
3, 38000, Note_on_c, 7, 46, 0
3, 38097, Control_c, 0, 64, 0
3, 38109, Note_on_c, 8, 64, 36
3, 38125, Note_on_c, 8, 60, 46
3, 38128, Note_on_c, 8, 59, 38
3, 38148, Note_on_c, 7, 45, 41
3, 38159, Note_on_c, 7, 55, 26
3, 38172, Note_on_c, 7, 52, 26
3, 38449, Control_c, 0, 64, 127
3, 38583, Note_on_c, 7, 45, 0
3, 38662, Note_on_c, 7, 52, 0
3, 38684, Note_on_c, 8, 59, 0
3, 38752, Note_on_c, 7, 55, 0
3, 38779, Note_on_c, 8, 60, 0
3, 38785, Note_on_c, 8, 64, 0
3, 39070, Note_on_c, 8, 71, 58
3, 39072, Note_on_c, 8, 60, 59
3, 39075, Note_on_c, 7, 59, 46
3, 39086, Note_on_c, 8, 64, 49
3, 39120, Note_on_c, 8, 67, 36
3, 39207, Note_on_c, 8, 60, 0
3, 39209, Note_on_c, 8, 67, 0
3, 39230, Note_on_c, 8, 64, 0
3, 39251, Note_on_c, 8, 71, 0
3, 39270, Note_on_c, 7, 59, 0
3, 39276, Control_c, 0, 64, 0
3, 39450, Note_on_c, 7, 57, 33
3, 40274, Note_on_c, 7, 57, 0
3, 40347, Note_on_c, 8, 71, 51
3, 40364, Note_on_c, 8, 64, 35
3, 40380, Note_on_c, 7, 59, 22
3, 40382, Note_on_c, 8, 60, 26
3, 40384, Note_on_c, 8, 67, 35
3, 40899, Note_on_c, 8, 64, 0
3, 40923, Note_on_c, 8, 60, 0
3, 41061, Note_on_c, 8, 67, 0
3, 41133, Note_on_c, 8, 71, 0
3, 41233, Note_on_c, 7, 59, 0
3, 41262, Note_on_c, 7, 57, 30
3, 41295, Note_on_c, 8, 60, 26
3, 41304, Note_on_c, 8, 69, 42
3, 41306, Note_on_c, 8, 64, 34
3, 41828, Note_on_c, 8, 60, 0
3, 41885, Note_on_c, 8, 64, 0
3, 42002, Note_on_c, 8, 69, 0
3, 42252, Note_on_c, 8, 68, 48
3, 42266, Note_on_c, 8, 60, 32
3, 42273, Note_on_c, 7, 57, 0
3, 42277, Note_on_c, 8, 64, 34
3, 42282, Note_on_c, 7, 56, 47
3, 42880, Note_on_c, 7, 57, 67
3, 42919, Note_on_c, 8, 60, 0
3, 42928, Note_on_c, 8, 64, 0
3, 42938, Note_on_c, 8, 68, 0
3, 42966, Control_c, 0, 64, 127
3, 43053, Note_on_c, 7, 56, 0
3, 43091, Note_on_c, 7, 57, 0
3, 43195, Control_c, 0, 64, 0
3, 43304, Note_on_c, 8, 60, 50
3, 43315, Note_on_c, 8, 71, 54
3, 43317, Note_on_c, 8, 68, 43
3, 43318, Note_on_c, 8, 64, 57
3, 43332, Note_on_c, 7, 59, 69
3, 43892, Note_on_c, 8, 60, 0
3, 43894, Note_on_c, 8, 68, 0
3, 43903, Note_on_c, 8, 64, 0
3, 43929, Note_on_c, 7, 59, 0
3, 43953, Note_on_c, 7, 56, 42
3, 44012, Note_on_c, 8, 71, 0
3, 44189, Note_on_c, 7, 56, 0
3, 44229, Note_on_c, 7, 57, 45
3, 44250, Note_on_c, 8, 69, 38
3, 44272, Note_on_c, 8, 60, 16
3, 44279, Note_on_c, 8, 64, 27
3, 44608, Note_on_c, 7, 57, 0
3, 44662, Note_on_c, 8, 60, 0
3, 44665, Note_on_c, 8, 64, 0
3, 44714, Control_c, 0, 64, 127
3, 44767, Control_c, 0, 64, 0
3, 44836, Note_on_c, 8, 64, 41
3, 44856, Note_on_c, 8, 60, 32
3, 44857, Note_on_c, 7, 55, 50
3, 45031, Control_c, 0, 64, 127
3, 45227, Note_on_c, 7, 55, 0
3, 45487, Note_on_c, 8, 69, 0
3, 45545, Note_on_c, 8, 64, 0
3, 45590, Note_on_c, 8, 60, 0
3, 46109, Control_c, 0, 64, 0
3, 46130, Note_on_c, 8, 70, 77
3, 46136, Note_on_c, 8, 61, 80
3, 46144, Note_on_c, 8, 65, 75
3, 46668, Note_on_c, 8, 61, 0
3, 46713, Note_on_c, 7, 58, 38
3, 46769, Note_on_c, 8, 65, 0
3, 46916, Note_on_c, 8, 70, 0
3, 46950, Note_on_c, 7, 58, 0
3, 47036, Note_on_c, 8, 72, 66
3, 47050, Note_on_c, 7, 60, 38
3, 47053, Note_on_c, 8, 61, 60
3, 47066, Note_on_c, 8, 65, 68
3, 47632, Note_on_c, 8, 65, 0
3, 47688, Note_on_c, 8, 61, 0
3, 47717, Note_on_c, 8, 72, 0
3, 47732, Note_on_c, 7, 60, 0
3, 47835, Note_on_c, 7, 56, 19
3, 47961, Note_on_c, 7, 56, 0
3, 48022, Note_on_c, 8, 70, 63
3, 48047, Note_on_c, 8, 61, 60
3, 48080, Note_on_c, 7, 58, 47
3, 48107, Note_on_c, 8, 65, 42
3, 48307, Note_on_c, 7, 58, 0
3, 48400, Control_c, 0, 64, 127
3, 48558, Note_on_c, 8, 61, 0
3, 48567, Note_on_c, 8, 65, 0
3, 48653, Note_on_c, 7, 46, 57
3, 48715, Note_on_c, 8, 61, 18
3, 48720, Control_c, 0, 64, 0
3, 48769, Note_on_c, 8, 65, 22
3, 49032, Note_on_c, 8, 70, 0
3, 49089, Control_c, 0, 64, 127
3, 49718, Note_on_c, 8, 65, 0
3, 49731, Note_on_c, 8, 61, 0
3, 49800, Note_on_c, 7, 46, 0
3, 49917, Control_c, 0, 64, 0
3, 49946, Note_on_c, 8, 61, 34
3, 49959, Note_on_c, 7, 51, 45
3, 50408, Note_on_c, 8, 61, 0
3, 50500, Control_c, 0, 64, 127
3, 50570, Control_c, 0, 64, 0
3, 50597, Note_on_c, 8, 61, 36
3, 50634, Note_on_c, 8, 65, 48
3, 50715, Note_on_c, 8, 65, 0
3, 50749, Note_on_c, 8, 61, 0
3, 51531, Note_on_c, 8, 61, 39
3, 51538, Note_on_c, 8, 65, 52
3, 51572, Note_on_c, 8, 60, 38
3, 51876, Control_c, 0, 64, 127
3, 52152, Note_on_c, 7, 51, 0
3, 52439, Note_on_c, 8, 60, 0
3, 52469, Note_on_c, 7, 51, 42
3, 52486, Note_on_c, 8, 61, 0
3, 52687, Control_c, 0, 64, 0
3, 52817, Note_on_c, 8, 60, 42
3, 52831, Note_on_c, 8, 61, 21
3, 52863, Control_c, 0, 64, 127
3, 53036, Note_on_c, 8, 65, 0
3, 53055, Note_on_c, 8, 60, 0
3, 53176, Note_on_c, 7, 51, 0
3, 53207, Note_on_c, 8, 61, 0
3, 53359, Control_c, 0, 64, 0
3, 53424, Note_on_c, 8, 60, 50
3, 53440, Note_on_c, 7, 50, 41
3, 53465, Note_on_c, 8, 69, 53
3, 53496, Note_on_c, 8, 67, 34
3, 53504, Note_on_c, 8, 64, 24
3, 53655, Note_on_c, 8, 60, 0
3, 53660, Control_c, 0, 64, 127
3, 53705, Note_on_c, 8, 64, 0
3, 53713, Note_on_c, 8, 67, 0
3, 53799, Note_on_c, 8, 69, 0
3, 54382, Note_on_c, 8, 86, 66
3, 54401, Note_on_c, 7, 62, 53
3, 54503, Control_c, 0, 64, 0
3, 54615, Note_on_c, 8, 86, 0
3, 54714, Control_c, 0, 64, 127
3, 54788, Note_on_c, 8, 74, 47
3, 54852, Note_on_c, 8, 74, 0
3, 54996, Note_on_c, 7, 50, 0
3, 55364, Note_on_c, 7, 50, 49
3, 55373, Note_on_c, 8, 98, 66
3, 55432, Note_on_c, 8, 98, 0
3, 55596, Note_on_c, 7, 62, 0
3, 56320, Note_on_c, 7, 62, 57
3, 56520, Note_on_c, 7, 62, 0
3, 56691, Note_on_c, 8, 67, 42
3, 56802, Note_on_c, 8, 67, 0
3, 57299, Note_on_c, 8, 75, 65
3, 57328, Note_on_c, 8, 68, 61
3, 57335, Note_on_c, 7, 62, 53
3, 57371, Note_on_c, 8, 72, 48
3, 57397, Control_c, 0, 64, 0
3, 57507, Note_on_c, 7, 63, 14
3, 58016, Note_on_c, 7, 50, 0
3, 58221, Note_on_c, 7, 50, 41
3, 58425, Note_on_c, 7, 62, 0
3, 58440, Control_c, 0, 64, 127
3, 58511, Note_on_c, 7, 63, 0
3, 58659, Note_on_c, 8, 72, 0
3, 58683, Note_on_c, 8, 75, 0
3, 58701, Note_on_c, 8, 68, 0
3, 59268, Note_on_c, 8, 63, 46
3, 59276, Note_on_c, 7, 62, 40
3, 59280, Note_on_c, 8, 68, 39
3, 59287, Control_c, 0, 64, 0
3, 59298, Note_on_c, 8, 72, 33
3, 59621, Control_c, 0, 64, 127
3, 59701, Note_on_c, 7, 50, 0
3, 59948, Note_on_c, 7, 62, 0
3, 60178, Note_on_c, 7, 50, 50
3, 60294, Note_on_c, 8, 63, 0
3, 60387, Note_on_c, 7, 50, 0
3, 60533, Note_on_c, 8, 72, 0
3, 60547, Note_on_c, 8, 68, 0
3, 61257, Note_on_c, 7, 43, 18
3, 61542, Control_c, 0, 64, 0
3, 61550, Note_on_c, 7, 50, 41
3, 61556, Note_on_c, 8, 62, 50
3, 61581, Note_on_c, 8, 55, 35
3, 61649, Note_on_c, 8, 59, 19
3, 62025, Note_on_c, 8, 55, 0
3, 62031, Note_on_c, 7, 43, 0
3, 62049, Note_on_c, 8, 59, 0
3, 62087, Note_on_c, 7, 50, 0
3, 62131, Note_on_c, 8, 62, 0
3, 62175, Note_on_c, 8, 64, 53
3, 62200, Note_on_c, 7, 52, 55
3, 62205, Note_on_c, 8, 55, 46
3, 62219, Note_on_c, 8, 59, 42
3, 62321, Note_on_c, 8, 64, 0
3, 62356, Control_c, 0, 64, 127
3, 62426, Control_c, 0, 64, 0
3, 62517, Note_on_c, 8, 59, 0
3, 62526, Note_on_c, 8, 55, 0
3, 62715, Note_on_c, 8, 55, 53
3, 62721, Note_on_c, 8, 66, 64
3, 62737, Note_on_c, 8, 59, 60
3, 62740, Note_on_c, 7, 54, 59
3, 62742, Note_on_c, 7, 52, 0
3, 62877, Note_on_c, 8, 59, 0
3, 62914, Note_on_c, 8, 55, 0
3, 63006, Control_c, 0, 64, 127
3, 63010, Note_on_c, 8, 66, 0
3, 63344, Control_c, 0, 64, 0
3, 63397, Note_on_c, 8, 66, 38
3, 63414, Note_on_c, 8, 59, 64
3, 63418, Note_on_c, 8, 69, 69
3, 63432, Note_on_c, 8, 62, 64
3, 63433, Note_on_c, 7, 54, 0
3, 63461, Note_on_c, 7, 55, 78
3, 63520, Note_on_c, 7, 55, 0
3, 64145, Note_on_c, 8, 59, 0
3, 64312, Note_on_c, 8, 59, 30
3, 64379, Note_on_c, 8, 67, 47
3, 64389, Note_on_c, 7, 55, 43
3, 64420, Control_c, 0, 64, 127
3, 64486, Note_on_c, 7, 55, 0
3, 64623, Note_on_c, 8, 59, 0
3, 64673, Note_on_c, 8, 62, 0
3, 64782, Note_on_c, 8, 69, 0
3, 64810, Note_on_c, 8, 66, 0
3, 64906, Note_on_c, 8, 67, 0
3, 65020, Note_on_c, 8, 66, 40
3, 65030, Note_on_c, 8, 59, 45
3, 65040, Note_on_c, 8, 62, 50
3, 65054, Control_c, 0, 64, 0
3, 65090, Note_on_c, 7, 54, 18
3, 65600, Control_c, 0, 64, 127
3, 65778, Note_on_c, 8, 59, 0
3, 65861, Note_on_c, 7, 54, 0
3, 65864, Note_on_c, 8, 62, 0
3, 65972, Control_c, 0, 64, 0
3, 65976, Note_on_c, 8, 59, 51
3, 65977, Note_on_c, 8, 62, 36
3, 65993, Note_on_c, 8, 67, 56
3, 66019, Note_on_c, 7, 55, 45
3, 66394, Control_c, 0, 64, 127
3, 66517, Control_c, 0, 64, 0
3, 66570, Control_c, 0, 64, 127
3, 66802, Note_on_c, 8, 62, 0
3, 66821, Note_on_c, 8, 59, 0
3, 67137, Control_c, 0, 64, 0
3, 67140, Note_on_c, 7, 55, 0
3, 67265, Note_on_c, 7, 50, 36
3, 67293, Note_on_c, 8, 62, 41
3, 67327, Note_on_c, 8, 59, 24
3, 67328, Note_on_c, 8, 67, 0
3, 67400, Note_on_c, 8, 66, 0
3, 67487, Note_on_c, 8, 59, 0
3, 67586, Note_on_c, 7, 50, 0
3, 67594, Note_on_c, 8, 62, 0
3, 68223, Note_on_c, 7, 52, 30
3, 68236, Note_on_c, 8, 64, 29
3, 68239, Note_on_c, 8, 59, 25
3, 68243, Note_on_c, 8, 62, 26
3, 68334, Control_c, 0, 64, 127
3, 68386, Note_on_c, 7, 52, 0
3, 68455, Note_on_c, 8, 64, 0
3, 68488, Note_on_c, 8, 62, 0
3, 68571, Note_on_c, 8, 59, 0
3, 69006, Control_c, 0, 64, 0
3, 69145, Note_on_c, 8, 56, 25
3, 69162, Note_on_c, 7, 46, 35
3, 69165, Note_on_c, 8, 65, 27
3, 69169, Note_on_c, 8, 61, 38
3, 69213, Note_on_c, 8, 60, 28
3, 69251, Control_c, 0, 64, 127
3, 69400, Note_on_c, 8, 56, 0
3, 69407, Note_on_c, 8, 60, 0
3, 69455, Note_on_c, 7, 46, 0
3, 69468, Note_on_c, 8, 65, 0
3, 69555, Note_on_c, 8, 61, 0
3, 70144, Note_on_c, 8, 61, 63
3, 70163, Note_on_c, 8, 65, 62
3, 70170, Note_on_c, 8, 69, 65
3, 70172, Note_on_c, 7, 60, 50
3, 70206, Control_c, 0, 64, 0
3, 70365, Control_c, 0, 64, 127
3, 70778, Note_on_c, 8, 61, 0
3, 70857, Note_on_c, 8, 65, 0
3, 70901, Note_on_c, 8, 69, 0
3, 71060, Note_on_c, 7, 60, 0
3, 71128, Note_on_c, 8, 61, 68
3, 71134, Note_on_c, 8, 72, 62
3, 71136, Note_on_c, 8, 65, 71
3, 71152, Note_on_c, 7, 58, 57
3, 71157, Control_c, 0, 64, 0
3, 71159, Note_on_c, 8, 69, 56
3, 71565, Control_c, 0, 64, 127
3, 71832, Note_on_c, 8, 61, 0
3, 71860, Note_on_c, 8, 65, 0
3, 71881, Note_on_c, 8, 72, 0
3, 71911, Note_on_c, 8, 69, 0
3, 72024, Control_c, 0, 64, 0
3, 72079, Note_on_c, 8, 61, 49
3, 72088, Note_on_c, 8, 70, 53
3, 72100, Note_on_c, 7, 57, 43
3, 72111, Note_on_c, 7, 58, 0
3, 72141, Note_on_c, 8, 65, 45
3, 72341, Control_c, 0, 64, 127
3, 72569, Note_on_c, 8, 65, 0
3, 72589, Note_on_c, 8, 61, 0
3, 72868, Note_on_c, 8, 70, 0
3, 72904, Control_c, 0, 64, 0
3, 72959, Note_on_c, 7, 57, 0
3, 72987, Note_on_c, 8, 61, 37
3, 73001, Note_on_c, 8, 65, 51
3, 73014, Note_on_c, 8, 69, 42
3, 73039, Note_on_c, 7, 55, 38
3, 73114, Note_on_c, 7, 55, 0
3, 73276, Control_c, 0, 64, 127
3, 73714, Note_on_c, 8, 61, 0
3, 73756, Note_on_c, 8, 65, 0
3, 73835, Note_on_c, 8, 69, 0
3, 73925, Note_on_c, 7, 27, 61
3, 74004, Note_on_c, 7, 27, 0
3, 74881, Note_on_c, 7, 55, 83
3, 74883, Note_on_c, 8, 84, 80
3, 74888, Note_on_c, 7, 65, 85
3, 74890, Note_on_c, 8, 72, 90
3, 74893, Note_on_c, 8, 77, 80
3, 74895, Note_on_c, 7, 61, 74
3, 74899, Control_c, 0, 64, 0
3, 74913, Note_on_c, 8, 81, 67
3, 74950, Note_on_c, 8, 83, 24
3, 75009, Note_on_c, 8, 83, 0
3, 75291, Note_on_c, 8, 72, 0
3, 75294, Note_on_c, 8, 77, 0
3, 75312, Note_on_c, 7, 55, 0
3, 75328, Note_on_c, 8, 84, 0
3, 75353, Note_on_c, 7, 65, 0
3, 75423, Note_on_c, 8, 81, 0
3, 75437, Note_on_c, 7, 61, 0
3, 75562, Note_on_c, 7, 61, 72
3, 75564, Note_on_c, 7, 55, 75
3, 75569, Note_on_c, 8, 84, 63
3, 75576, Note_on_c, 8, 81, 56
3, 75579, Note_on_c, 8, 77, 66
3, 75581, Note_on_c, 7, 65, 70
3, 75583, Note_on_c, 8, 72, 60
3, 75793, Note_on_c, 8, 84, 0
3, 75820, Note_on_c, 8, 81, 0
3, 75825, Note_on_c, 7, 55, 0
3, 75864, Note_on_c, 7, 65, 0
3, 75865, Note_on_c, 8, 72, 0
3, 75872, Control_c, 0, 64, 127
3, 75884, Note_on_c, 8, 77, 0
3, 75902, Note_on_c, 7, 61, 0
3, 76168, Note_on_c, 8, 75, 67
3, 76170, Note_on_c, 8, 82, 58
3, 76171, Note_on_c, 7, 61, 64
3, 76185, Note_on_c, 8, 70, 52
3, 76201, Note_on_c, 7, 55, 50
3, 76284, Note_on_c, 7, 55, 0
3, 76405, Note_on_c, 7, 61, 0
3, 76409, Note_on_c, 8, 75, 0
3, 76486, Note_on_c, 8, 82, 0
3, 76502, Note_on_c, 8, 70, 0
3, 76737, Control_c, 0, 64, 0
3, 76786, Note_on_c, 7, 62, 60
3, 76793, Note_on_c, 8, 83, 68
3, 76794, Note_on_c, 8, 71, 73
3, 76801, Note_on_c, 7, 54, 52
3, 76803, Note_on_c, 7, 59, 51
3, 76811, Note_on_c, 8, 78, 56
3, 77105, Control_c, 0, 64, 127
3, 77327, Note_on_c, 7, 62, 0
3, 77336, Note_on_c, 8, 83, 0
3, 77361, Note_on_c, 7, 59, 0
3, 77459, Note_on_c, 8, 78, 0
3, 77462, Note_on_c, 7, 54, 0
3, 77477, Note_on_c, 8, 71, 0
3, 78320, Note_on_c, 7, 50, 51
3, 78324, Note_on_c, 8, 62, 61
3, 78329, Note_on_c, 7, 43, 49
3, 78343, Control_c, 0, 64, 0
3, 78345, Note_on_c, 8, 55, 49
3, 78348, Note_on_c, 8, 59, 53
3, 78784, Control_c, 0, 64, 127
3, 79024, Note_on_c, 8, 55, 0
3, 79165, Note_on_c, 8, 59, 0
3, 79193, Note_on_c, 8, 62, 0
3, 79230, Note_on_c, 7, 50, 0
3, 79238, Note_on_c, 7, 43, 0
3, 79253, Note_on_c, 7, 52, 62
3, 79265, Note_on_c, 8, 59, 13
3, 79285, Note_on_c, 8, 64, 48
3, 79287, Note_on_c, 8, 55, 48
3, 79400, Note_on_c, 8, 55, 0
3, 79474, Note_on_c, 8, 64, 0
3, 79489, Control_c, 0, 64, 0
3, 79491, Note_on_c, 7, 52, 0
3, 79520, Note_on_c, 8, 59, 0
3, 79600, Note_on_c, 7, 54, 55
3, 79600, Note_on_c, 8, 66, 56
3, 79759, Note_on_c, 8, 66, 0
3, 79860, Control_c, 0, 64, 127
3, 79919, Note_on_c, 7, 54, 0
3, 80080, Note_on_c, 7, 54, 18
3, 80124, Control_c, 0, 64, 0
3, 80160, Note_on_c, 7, 55, 53
3, 80160, Note_on_c, 8, 69, 73
3, 80239, Note_on_c, 7, 54, 0
3, 80240, Note_on_c, 8, 66, 52
3, 80240, Note_on_c, 8, 62, 74
3, 80240, Note_on_c, 8, 59, 61
3, 80240, Note_on_c, 7, 57, 59
3, 80319, Note_on_c, 7, 57, 0
3, 80399, Note_on_c, 7, 55, 0
3, 80960, Note_on_c, 7, 54, 20
3, 81039, Note_on_c, 8, 69, 0
3, 81039, Note_on_c, 8, 62, 0
3, 81039, Note_on_c, 8, 59, 0
3, 81119, Note_on_c, 8, 66, 0
3, 81160, Note_on_c, 7, 54, 0
3, 81178, Note_on_c, 8, 67, 69
3, 81184, Note_on_c, 8, 66, 47
3, 81187, Note_on_c, 8, 62, 75
3, 81190, Note_on_c, 8, 59, 64
3, 81199, Note_on_c, 7, 55, 69
3, 81748, Control_c, 0, 64, 127
3, 81949, Note_on_c, 7, 55, 0
3, 82284, Note_on_c, 8, 67, 0
3, 82285, Note_on_c, 8, 66, 0
3, 82285, Note_on_c, 8, 62, 0
3, 82286, Note_on_c, 8, 59, 0
3, 82528, Note_on_c, 7, 47, 38
3, 82540, Note_on_c, 8, 62, 47
3, 82548, Note_on_c, 8, 59, 48
3, 82556, Control_c, 0, 64, 0
3, 82560, Note_on_c, 8, 66, 40
3, 83193, Note_on_c, 8, 59, 0
3, 83334, Note_on_c, 8, 66, 0
3, 83350, Control_c, 0, 64, 127
3, 83386, Control_c, 0, 64, 0
3, 83393, Note_on_c, 8, 62, 0
3, 83482, Note_on_c, 7, 47, 0
3, 83528, Note_on_c, 8, 59, 35
3, 83540, Note_on_c, 7, 48, 24
3, 83542, Note_on_c, 8, 64, 39
3, 83598, Note_on_c, 7, 48, 0
3, 83723, Control_c, 0, 64, 127
3, 84020, Note_on_c, 8, 59, 0
3, 84218, Control_c, 0, 64, 0
3, 84369, Note_on_c, 8, 64, 0
3, 84464, Control_c, 0, 64, 127
3, 84515, Note_on_c, 7, 47, 36
3, 84519, Note_on_c, 8, 66, 47
3, 84577, Note_on_c, 8, 62, 24
3, 84591, Note_on_c, 7, 47, 0
3, 84693, Note_on_c, 8, 62, 0
3, 84777, Note_on_c, 8, 66, 0
3, 85483, Note_on_c, 7, 57, 35
3, 85490, Note_on_c, 8, 78, 44
3, 85513, Note_on_c, 8, 69, 41
3, 85516, Note_on_c, 8, 74, 47
3, 85533, Note_on_c, 7, 66, 27
3, 85537, Note_on_c, 7, 62, 27
3, 85701, Note_on_c, 7, 66, 0
3, 85715, Note_on_c, 7, 62, 0
3, 85737, Note_on_c, 7, 57, 0
3, 85743, Note_on_c, 8, 74, 0
3, 85789, Note_on_c, 8, 78, 0
3, 85834, Note_on_c, 8, 69, 0
3, 86387, Control_c, 0, 64, 0
3, 86400, Note_on_c, 7, 53, 18
3, 86458, Note_on_c, 8, 66, 50
3, 86488, Note_on_c, 8, 62, 43
3, 86517, Note_on_c, 7, 53, 0
3, 86616, Control_c, 0, 64, 127
3, 86718, Note_on_c, 8, 62, 0
3, 86768, Note_on_c, 8, 66, 0
3, 87339, Control_c, 0, 64, 0
3, 87360, Note_on_c, 7, 48, 29
3, 87383, Note_on_c, 8, 63, 64
3, 87386, Note_on_c, 7, 57, 51
3, 87424, Note_on_c, 8, 67, 61
3, 87442, Note_on_c, 8, 71, 55
3, 87447, Note_on_c, 8, 74, 71
3, 87560, Note_on_c, 7, 48, 0
3, 87634, Note_on_c, 7, 57, 0
3, 87692, Control_c, 0, 64, 127
3, 87941, Note_on_c, 8, 71, 0
3, 87974, Note_on_c, 8, 74, 0
3, 87984, Note_on_c, 8, 67, 0
3, 88000, Note_on_c, 7, 40, 20
3, 88006, Note_on_c, 8, 63, 0
3, 88239, Control_c, 0, 64, 0
3, 88339, Note_on_c, 7, 40, 0
3, 88347, Note_on_c, 8, 72, 53
3, 88368, Note_on_c, 8, 64, 42
3, 88373, Note_on_c, 8, 67, 47
3, 88427, Note_on_c, 7, 52, 22
3, 88487, Control_c, 0, 64, 127
3, 88630, Note_on_c, 7, 52, 0
3, 88640, Note_on_c, 8, 64, 0
3, 88727, Note_on_c, 8, 67, 0
3, 88754, Note_on_c, 8, 72, 0
3, 89246, Control_c, 0, 64, 0
3, 89335, Note_on_c, 8, 76, 71
3, 89341, Note_on_c, 8, 72, 62
3, 89349, Note_on_c, 7, 62, 44
3, 89355, Note_on_c, 7, 56, 37
3, 89367, Note_on_c, 8, 67, 60
3, 89475, Control_c, 0, 64, 127
3, 89761, Note_on_c, 8, 72, 0
3, 89788, Note_on_c, 8, 76, 0
3, 89896, Note_on_c, 8, 67, 0
3, 89918, Note_on_c, 7, 62, 0
3, 90235, Control_c, 0, 64, 0
3, 90277, Note_on_c, 8, 74, 47
3, 90296, Note_on_c, 8, 68, 53
3, 90299, Note_on_c, 8, 71, 39
3, 90309, Note_on_c, 7, 62, 38
3, 90330, Note_on_c, 8, 72, 44
3, 90333, Note_on_c, 8, 65, 40
3, 90442, Control_c, 0, 64, 127
3, 90516, Note_on_c, 7, 62, 0
3, 90530, Note_on_c, 8, 74, 0
3, 90555, Note_on_c, 8, 71, 0
3, 90594, Note_on_c, 8, 68, 0
3, 90615, Note_on_c, 8, 72, 0
3, 90634, Note_on_c, 7, 56, 0
3, 90664, Note_on_c, 8, 65, 0
3, 91237, Control_c, 0, 64, 0
3, 91250, Note_on_c, 8, 71, 38
3, 91253, Note_on_c, 7, 46, 29
3, 91264, Note_on_c, 7, 56, 27
3, 91270, Note_on_c, 8, 62, 24
3, 91272, Note_on_c, 8, 68, 36
3, 91295, Note_on_c, 8, 65, 40
3, 91500, Control_c, 0, 64, 127
3, 91538, Note_on_c, 8, 65, 0
3, 91575, Note_on_c, 8, 62, 0
3, 91694, Note_on_c, 7, 56, 0
3, 91826, Note_on_c, 8, 68, 0
3, 91861, Note_on_c, 7, 46, 0
3, 91907, Note_on_c, 8, 64, 55
3, 91980, Note_on_c, 7, 45, 36
3, 91990, Note_on_c, 7, 55, 17
3, 92014, Control_c, 0, 64, 0
3, 92054, Note_on_c, 8, 71, 0
3, 92070, Note_on_c, 8, 60, 8
3, 92093, Note_on_c, 7, 55, 0
3, 92103, Note_on_c, 8, 64, 0
3, 92161, Note_on_c, 8, 60, 0
3, 92349, Control_c, 0, 64, 127
3, 92827, Note_on_c, 8, 65, 59
3, 92840, Note_on_c, 8, 57, 46
3, 92845, Note_on_c, 8, 60, 45
3, 92848, Note_on_c, 7, 53, 52
3, 92875, Note_on_c, 8, 62, 33
3, 92949, Control_c, 0, 64, 0
3, 92972, Note_on_c, 8, 57, 0
3, 93008, Note_on_c, 8, 60, 0
3, 93023, Note_on_c, 7, 53, 0
3, 93051, Note_on_c, 8, 65, 0
3, 93054, Note_on_c, 8, 62, 0
3, 93716, Note_on_c, 7, 45, 0
3, 93771, Note_on_c, 8, 72, 59
3, 93778, Note_on_c, 8, 64, 50
3, 93799, Note_on_c, 8, 67, 53
3, 93806, Note_on_c, 8, 69, 52
3, 94160, Note_on_c, 8, 64, 0
3, 94687, Note_on_c, 7, 64, 49
3, 94708, Note_on_c, 7, 60, 44
3, 94733, Note_on_c, 7, 59, 47
3, 94864, Note_on_c, 7, 59, 0
3, 94866, Note_on_c, 7, 64, 0
3, 94894, Note_on_c, 7, 60, 0
3, 95664, Note_on_c, 7, 60, 48
3, 95666, Note_on_c, 7, 64, 58
3, 95687, Note_on_c, 7, 59, 53
3, 95754, Note_on_c, 7, 59, 0
3, 95778, Note_on_c, 7, 64, 0
3, 95802, Note_on_c, 7, 60, 0
3, 95837, Note_on_c, 8, 67, 0
3, 96286, Note_on_c, 8, 69, 0
3, 96559, Note_on_c, 8, 72, 0
3, 96615, Note_on_c, 7, 67, 79
3, 96620, Note_on_c, 7, 62, 63
3, 96625, Note_on_c, 7, 56, 74
3, 96981, Note_on_c, 8, 76, 88
3, 97269, Note_on_c, 8, 76, 0
3, 97319, Note_on_c, 8, 77, 68
3, 97488, Note_on_c, 7, 67, 0
3, 97556, Note_on_c, 8, 77, 0
3, 97632, Note_on_c, 8, 76, 66
3, 97780, Note_on_c, 8, 76, 0
3, 98074, Note_on_c, 7, 62, 0
3, 98115, Note_on_c, 7, 56, 0
3, 98556, Note_on_c, 7, 67, 71
3, 98563, Note_on_c, 7, 56, 65
3, 98568, Note_on_c, 7, 62, 65
3, 99137, Note_on_c, 7, 67, 0
3, 99227, Control_c, 0, 64, 127
3, 99249, Note_on_c, 7, 62, 0
3, 99280, Note_on_c, 8, 83, 71
3, 99316, Control_c, 0, 64, 0
3, 99405, Control_c, 0, 64, 127
3, 99418, Note_on_c, 8, 83, 0
3, 99463, Note_on_c, 7, 56, 0
3, 99576, Note_on_c, 8, 84, 79
3, 99783, Note_on_c, 8, 84, 0
3, 99827, Control_c, 0, 64, 0
3, 99896, Note_on_c, 8, 86, 83
3, 99905, Note_on_c, 7, 64, 49
3, 99912, Note_on_c, 7, 57, 44
3, 99916, Note_on_c, 8, 74, 77
3, 99938, Note_on_c, 8, 84, 36
3, 99941, Note_on_c, 7, 60, 32
3, 100007, Note_on_c, 8, 84, 0
3, 100128, Note_on_c, 8, 74, 0
3, 100176, Note_on_c, 8, 86, 0
3, 100230, Note_on_c, 7, 64, 0
3, 100250, Note_on_c, 7, 60, 0
3, 100304, Note_on_c, 7, 57, 0
3, 100390, Note_on_c, 8, 88, 80
3, 100393, Note_on_c, 7, 57, 32
3, 100399, Note_on_c, 7, 64, 44
3, 100405, Note_on_c, 8, 76, 80
3, 100410, Note_on_c, 7, 60, 51
3, 100553, Note_on_c, 8, 76, 0
3, 100572, Note_on_c, 7, 64, 0
3, 100597, Note_on_c, 8, 88, 0
3, 100604, Note_on_c, 7, 60, 0
3, 100629, Note_on_c, 7, 57, 0
3, 100949, Note_on_c, 7, 64, 52
3, 100956, Note_on_c, 7, 60, 37
3, 100958, Note_on_c, 7, 57, 44
3, 100960, Note_on_c, 8, 88, 79
3, 100977, Note_on_c, 8, 76, 78
3, 100980, Note_on_c, 7, 59, 48
3, 101256, Note_on_c, 7, 59, 0
3, 101258, Note_on_c, 8, 76, 0
3, 101267, Note_on_c, 7, 64, 0
3, 101268, Note_on_c, 8, 88, 0
3, 101310, Note_on_c, 7, 60, 0
3, 101317, Note_on_c, 7, 57, 0
3, 101572, Note_on_c, 8, 88, 69
3, 101578, Note_on_c, 7, 64, 62
3, 101596, Note_on_c, 8, 76, 68
3, 101610, Note_on_c, 7, 60, 36
3, 101632, Note_on_c, 7, 59, 40
3, 101634, Note_on_c, 7, 57, 41
3, 101768, Control_c, 0, 64, 127
3, 101916, Note_on_c, 8, 88, 0
3, 101920, Note_on_c, 8, 76, 0
3, 101932, Note_on_c, 7, 59, 0
3, 101965, Note_on_c, 7, 60, 0
3, 101978, Note_on_c, 7, 64, 0
3, 102004, Note_on_c, 7, 57, 0
3, 102211, Note_on_c, 7, 64, 42
3, 102234, Note_on_c, 8, 88, 66
3, 102245, Note_on_c, 7, 60, 36
3, 102252, Note_on_c, 8, 76, 64
3, 102279, Note_on_c, 7, 59, 38
3, 102283, Note_on_c, 7, 57, 30
3, 102415, Note_on_c, 8, 88, 0
3, 102437, Note_on_c, 7, 59, 0
3, 102458, Note_on_c, 7, 64, 0
3, 102498, Note_on_c, 8, 76, 0
3, 102535, Note_on_c, 7, 60, 0
3, 102537, Note_on_c, 7, 57, 0
3, 102775, Control_c, 0, 64, 0
3, 102798, Note_on_c, 8, 84, 55
3, 102813, Note_on_c, 7, 64, 37
3, 102838, Note_on_c, 8, 72, 53
3, 102854, Note_on_c, 7, 60, 29
3, 102863, Control_c, 0, 64, 127
3, 102869, Note_on_c, 7, 57, 32
3, 103009, Note_on_c, 7, 64, 0
3, 103042, Note_on_c, 7, 60, 0
3, 103044, Note_on_c, 8, 72, 0
3, 103046, Note_on_c, 7, 57, 0
3, 103055, Note_on_c, 8, 84, 0
3, 103345, Note_on_c, 7, 64, 39
3, 103375, Note_on_c, 7, 60, 31
3, 103378, Note_on_c, 8, 84, 53
3, 103392, Note_on_c, 8, 72, 62
3, 103445, Note_on_c, 7, 60, 0
3, 103473, Note_on_c, 7, 64, 0
3, 103504, Note_on_c, 8, 84, 0
3, 103568, Note_on_c, 8, 72, 0
3, 103815, Control_c, 0, 64, 0
3, 103880, Note_on_c, 8, 83, 54
3, 103901, Note_on_c, 7, 67, 40
3, 103904, Note_on_c, 7, 58, 45
3, 103907, Note_on_c, 7, 63, 38
3, 103919, Note_on_c, 8, 75, 43
3, 103921, Note_on_c, 8, 71, 44
3, 103942, Note_on_c, 8, 79, 37
3, 103953, Note_on_c, 7, 62, 26
3, 104160, Note_on_c, 7, 58, 0
3, 104170, Note_on_c, 7, 67, 0
3, 104213, Note_on_c, 8, 75, 0
3, 104223, Note_on_c, 8, 71, 0
3, 104246, Note_on_c, 7, 63, 0
3, 104274, Note_on_c, 7, 62, 0
3, 104285, Note_on_c, 8, 83, 0
3, 104287, Note_on_c, 8, 79, 0
3, 104622, Note_on_c, 8, 83, 43
3, 104631, Note_on_c, 8, 71, 50
3, 104637, Note_on_c, 7, 58, 40
3, 104648, Note_on_c, 8, 75, 38
3, 104650, Note_on_c, 7, 67, 34
3, 104654, Note_on_c, 7, 63, 40
3, 104660, Note_on_c, 8, 79, 39
3, 104672, Note_on_c, 7, 62, 32
3, 104686, Control_c, 0, 64, 127
3, 104949, Note_on_c, 7, 67, 0
3, 104989, Note_on_c, 7, 63, 0
3, 105002, Note_on_c, 8, 71, 0
3, 105010, Note_on_c, 7, 62, 0
3, 105031, Note_on_c, 7, 58, 0
3, 105037, Note_on_c, 8, 75, 0
3, 105072, Note_on_c, 8, 79, 0
3, 105082, Note_on_c, 8, 83, 0
3, 105336, Control_c, 0, 64, 0
3, 105340, Note_on_c, 8, 83, 49
3, 105343, Note_on_c, 7, 67, 44
3, 105345, Note_on_c, 7, 63, 46
3, 105351, Note_on_c, 7, 57, 37
3, 105353, Note_on_c, 8, 71, 54
3, 105355, Note_on_c, 8, 75, 45
3, 105375, Note_on_c, 8, 79, 42
3, 105641, Control_c, 0, 64, 127
3, 105823, Note_on_c, 8, 83, 0
3, 105873, Note_on_c, 8, 71, 0
3, 105945, Note_on_c, 8, 79, 0
3, 105964, Note_on_c, 7, 67, 0
3, 105987, Note_on_c, 8, 75, 0
3, 106043, Note_on_c, 7, 57, 0
3, 106157, Note_on_c, 7, 63, 0
3, 106254, Note_on_c, 8, 82, 53
3, 106284, Note_on_c, 8, 70, 56
3, 106293, Note_on_c, 8, 75, 53
3, 106348, Note_on_c, 7, 63, 31
3, 106384, Note_on_c, 7, 57, 31
3, 106521, Note_on_c, 8, 70, 0
3, 106530, Note_on_c, 8, 82, 0
3, 106540, Control_c, 0, 64, 0
3, 106566, Note_on_c, 8, 75, 0
3, 106566, Note_on_c, 7, 63, 0
3, 106636, Note_on_c, 7, 57, 0
3, 106661, Note_on_c, 8, 81, 56
3, 106685, Note_on_c, 8, 75, 23
3, 106699, Control_c, 0, 64, 127
3, 106704, Note_on_c, 8, 69, 41
3, 106725, Note_on_c, 8, 81, 0
3, 106770, Note_on_c, 8, 75, 0
3, 106822, Note_on_c, 8, 69, 0
3, 107235, Note_on_c, 7, 44, 28
3, 107272, Note_on_c, 7, 46, 23
3, 107467, Note_on_c, 7, 46, 0
3, 107496, Note_on_c, 8, 66, 52
3, 107519, Note_on_c, 7, 47, 41
3, 107522, Note_on_c, 8, 57, 29
3, 107528, Control_c, 0, 64, 0
3, 107534, Note_on_c, 8, 62, 36
3, 107538, Note_on_c, 7, 44, 0
3, 107916, Control_c, 0, 64, 127
3, 108057, Note_on_c, 7, 47, 0
3, 108072, Note_on_c, 8, 57, 0
3, 108128, Note_on_c, 8, 67, 71
3, 108160, Note_on_c, 8, 57, 24
3, 108281, Note_on_c, 8, 66, 0
3, 108305, Note_on_c, 8, 57, 0
3, 108321, Note_on_c, 7, 47, 15
3, 108340, Control_c, 0, 64, 0
3, 108349, Note_on_c, 8, 67, 0
3, 108421, Note_on_c, 8, 62, 0
3, 108461, Note_on_c, 8, 66, 25
3, 108544, Note_on_c, 8, 57, 18
3, 108649, Note_on_c, 8, 57, 0
3, 108692, Control_c, 0, 64, 127
3, 108875, Note_on_c, 7, 47, 0
3, 108903, Note_on_c, 8, 66, 0
3, 109345, Control_c, 0, 64, 0
3, 109393, Note_on_c, 8, 67, 46
3, 109412, Note_on_c, 7, 34, 35
3, 109413, Note_on_c, 8, 61, 50
3, 109416, Note_on_c, 8, 56, 31
3, 109445, Note_on_c, 7, 46, 19
3, 109717, Note_on_c, 8, 67, 0
3, 109734, Note_on_c, 7, 34, 0
3, 109748, Note_on_c, 8, 56, 0
3, 109754, Note_on_c, 8, 61, 0
3, 109823, Note_on_c, 7, 46, 0
3, 110406, Note_on_c, 7, 34, 40
3, 110414, Note_on_c, 8, 61, 46
3, 110420, Note_on_c, 8, 56, 31
3, 110457, Note_on_c, 7, 46, 17
3, 110470, Note_on_c, 8, 67, 17
3, 110480, Control_c, 0, 64, 127
3, 110609, Note_on_c, 8, 67, 0
3, 110721, Note_on_c, 7, 46, 0
3, 110756, Note_on_c, 8, 56, 0
3, 110811, Note_on_c, 8, 61, 0
3, 110894, Note_on_c, 7, 34, 0
3, 111043, Control_c, 0, 64, 0
3, 111074, Note_on_c, 8, 64, 39
3, 111107, Note_on_c, 7, 45, 37
3, 111114, Note_on_c, 8, 55, 39
3, 111152, Note_on_c, 7, 33, 31
3, 111154, Note_on_c, 8, 60, 32
3, 111256, Control_c, 0, 64, 127
3, 111304, Note_on_c, 8, 55, 0
3, 111367, Note_on_c, 7, 33, 0
3, 111379, Note_on_c, 8, 60, 0
3, 111436, Note_on_c, 8, 64, 0
3, 111506, Note_on_c, 7, 45, 0
3, 112082, Note_on_c, 7, 62, 64
3, 112085, Note_on_c, 8, 74, 64
3, 112088, Note_on_c, 8, 71, 58
3, 112092, Note_on_c, 8, 64, 62
3, 112107, Note_on_c, 8, 67, 64
3, 112118, Control_c, 0, 64, 0
3, 112418, Control_c, 0, 64, 127
3, 112745, Note_on_c, 8, 71, 0
3, 112867, Note_on_c, 8, 74, 0
3, 112870, Note_on_c, 8, 67, 0
3, 112895, Note_on_c, 8, 64, 0
3, 112991, Note_on_c, 7, 62, 0
3, 113266, Control_c, 0, 64, 0
3, 113307, Note_on_c, 7, 60, 34
3, 113310, Note_on_c, 8, 72, 49
3, 113321, Note_on_c, 8, 64, 41
3, 113329, Note_on_c, 7, 54, 27
3, 113335, Note_on_c, 8, 69, 50
3, 113370, Note_on_c, 7, 50, 18
3, 113584, Control_c, 0, 64, 127
3, 113659, Note_on_c, 8, 69, 0
3, 113740, Note_on_c, 8, 72, 0
3, 113777, Note_on_c, 8, 64, 0
3, 113842, Note_on_c, 7, 60, 0
3, 114278, Note_on_c, 7, 60, 42
3, 114290, Control_c, 0, 64, 0
3, 114292, Note_on_c, 8, 71, 52
3, 114314, Note_on_c, 8, 66, 49
3, 114316, Note_on_c, 8, 63, 42
3, 114572, Control_c, 0, 64, 127
3, 114641, Note_on_c, 7, 54, 0
3, 114791, Note_on_c, 8, 71, 0
3, 114852, Note_on_c, 7, 60, 0
3, 114897, Note_on_c, 8, 66, 0
3, 115135, Note_on_c, 8, 63, 0
3, 115279, Control_c, 0, 64, 0
3, 115300, Note_on_c, 8, 69, 56
3, 115316, Note_on_c, 7, 59, 49
3, 115319, Note_on_c, 8, 66, 44
3, 115322, Note_on_c, 8, 62, 60
3, 115382, Note_on_c, 7, 50, 0
3, 115665, Control_c, 0, 64, 127
3, 115848, Note_on_c, 7, 59, 0
3, 115954, Note_on_c, 8, 62, 0
3, 116010, Note_on_c, 8, 66, 0
3, 116012, Note_on_c, 8, 69, 0
3, 116091, Control_c, 0, 64, 0
3, 116204, Note_on_c, 7, 49, 25
3, 116262, Note_on_c, 8, 67, 40
3, 116608, Note_on_c, 8, 67, 0
3, 116915, Note_on_c, 8, 69, 47
3, 116917, Note_on_c, 8, 59, 52
3, 116925, Note_on_c, 7, 49, 0
3, 116932, Note_on_c, 7, 50, 35
3, 116939, Note_on_c, 8, 62, 40
3, 116966, Note_on_c, 8, 66, 21
3, 117107, Note_on_c, 8, 59, 0
3, 117117, Note_on_c, 8, 69, 0
3, 117128, Note_on_c, 8, 62, 0
3, 117128, Note_on_c, 8, 66, 0
3, 117715, Note_on_c, 7, 50, 0
3, 117802, Note_on_c, 7, 49, 34
3, 117821, Note_on_c, 8, 61, 68
3, 118050, Note_on_c, 8, 61, 0
3, 118161, Note_on_c, 7, 49, 0
3, 118190, Note_on_c, 7, 50, 43
3, 118191, Note_on_c, 8, 62, 66
3, 119195, Control_c, 0, 64, 127
3, 119318, Control_c, 0, 64, 0
3, 119504, Note_on_c, 8, 62, 0
3, 119592, Note_on_c, 7, 50, 0
3, 119599, Control_c, 0, 64, 127
3, 119708, Note_on_c, 8, 61, 52
3, 119715, Note_on_c, 7, 49, 34
3, 119864, Control_c, 0, 64, 0
3, 119909, Note_on_c, 8, 61, 0
3, 119954, Note_on_c, 7, 49, 0
3, 120032, Note_on_c, 8, 62, 54
3, 120057, Note_on_c, 7, 50, 24
3, 120266, Note_on_c, 8, 62, 0
3, 120544, Note_on_c, 7, 50, 0
3, 120628, Note_on_c, 7, 46, 37
3, 120660, Note_on_c, 8, 58, 43
3, 120846, Note_on_c, 8, 58, 0
3, 120904, Note_on_c, 7, 46, 0
3, 120968, Note_on_c, 7, 48, 38
3, 120978, Note_on_c, 8, 60, 59
3, 121472, Note_on_c, 7, 48, 0
3, 121496, Note_on_c, 8, 60, 0
3, 121586, Note_on_c, 8, 58, 36
3, 121589, Note_on_c, 7, 46, 27
3, 121799, Note_on_c, 8, 58, 0
3, 121864, Note_on_c, 7, 46, 0
3, 121915, Note_on_c, 8, 59, 58
3, 121943, Note_on_c, 7, 47, 36
3, 122223, Note_on_c, 8, 59, 0
3, 122508, Note_on_c, 7, 47, 0
3, 122524, Note_on_c, 7, 42, 48
3, 122535, Note_on_c, 8, 54, 56
3, 122636, Note_on_c, 8, 54, 0
3, 122684, Note_on_c, 7, 42, 0
3, 122880, Note_on_c, 8, 62, 80
3, 122903, Note_on_c, 7, 50, 51
3, 122973, Note_on_c, 7, 50, 0
3, 123012, Note_on_c, 8, 62, 0
3, 123505, Note_on_c, 8, 59, 74
3, 123513, Note_on_c, 7, 47, 44
3, 123705, Note_on_c, 8, 59, 0
3, 123751, Note_on_c, 7, 47, 0
3, 123862, Note_on_c, 7, 42, 38
3, 123879, Note_on_c, 8, 54, 48
3, 124400, Note_on_c, 7, 42, 0
3, 124406, Note_on_c, 8, 54, 0
3, 124437, Note_on_c, 7, 38, 32
3, 124462, Note_on_c, 8, 50, 38
3, 124643, Note_on_c, 8, 50, 0
3, 124749, Note_on_c, 8, 52, 39
3, 124751, Note_on_c, 7, 38, 0
3, 124780, Note_on_c, 7, 40, 36
3, 127138, Note_on_c, 7, 40, 0
3, 127158, Note_on_c, 8, 52, 0
3, 127297, Note_on_c, 7, 37, 80
3, 127313, Note_on_c, 8, 49, 74
3, 127509, Note_on_c, 8, 49, 0
3, 127597, Note_on_c, 7, 37, 0
3, 127623, Note_on_c, 7, 40, 55
3, 127645, Note_on_c, 8, 52, 54
3, 128141, Note_on_c, 8, 52, 0
3, 128226, Note_on_c, 7, 37, 47
3, 128228, Note_on_c, 8, 49, 39
3, 128298, Note_on_c, 7, 40, 0
3, 128448, Note_on_c, 7, 37, 0
3, 128452, Note_on_c, 8, 49, 0
3, 128536, Note_on_c, 7, 38, 37
3, 128541, Note_on_c, 8, 50, 49
3, 129061, Note_on_c, 8, 50, 0
3, 129138, Note_on_c, 8, 52, 58
3, 129150, Note_on_c, 7, 38, 0
3, 129153, Note_on_c, 7, 40, 47
3, 129383, Note_on_c, 7, 40, 0
3, 129386, Note_on_c, 8, 52, 0
3, 129513, Note_on_c, 8, 54, 35
3, 130015, Note_on_c, 8, 54, 0
3, 130081, Note_on_c, 8, 55, 33
3, 130089, Note_on_c, 7, 43, 31
3, 130329, Note_on_c, 8, 55, 0
3, 130440, Note_on_c, 7, 45, 43
3, 130456, Note_on_c, 8, 57, 38
3, 130465, Note_on_c, 7, 43, 0
3, 130979, Note_on_c, 8, 57, 0
3, 131017, Note_on_c, 7, 45, 0
3, 131064, Note_on_c, 8, 60, 42
3, 131200, Note_on_c, 7, 48, 44
3, 131345, Note_on_c, 8, 60, 0
3, 131423, Note_on_c, 7, 45, 27
3, 131432, Note_on_c, 8, 57, 36
3, 131569, Note_on_c, 7, 48, 0
3, 131936, Note_on_c, 8, 57, 0
3, 131943, Note_on_c, 7, 45, 0
3, 132004, Note_on_c, 7, 46, 37
3, 132005, Note_on_c, 8, 58, 56
3, 132671, Note_on_c, 8, 58, 0
3, 132683, Note_on_c, 7, 49, 36
3, 132694, Note_on_c, 8, 61, 39
3, 132853, Note_on_c, 8, 61, 0
3, 132872, Note_on_c, 7, 46, 0
3, 132904, Note_on_c, 7, 49, 0
3, 132967, Note_on_c, 7, 53, 44
3, 133036, Note_on_c, 8, 65, 41
3, 133236, Note_on_c, 8, 65, 0
3, 133342, Note_on_c, 8, 68, 67
3, 133355, Note_on_c, 7, 56, 46
3, 133389, Note_on_c, 7, 53, 0
3, 133464, Note_on_c, 8, 68, 0
3, 133469, Note_on_c, 7, 56, 0
3, 133961, Note_on_c, 7, 58, 65
3, 133970, Note_on_c, 8, 70, 76
3, 134248, Note_on_c, 7, 58, 0
3, 134260, Note_on_c, 8, 70, 0
3, 134324, Note_on_c, 8, 68, 50
3, 134332, Note_on_c, 7, 56, 36
3, 134816, Note_on_c, 8, 68, 0
3, 134867, Note_on_c, 7, 56, 0
3, 134917, Note_on_c, 7, 54, 28
3, 134927, Note_on_c, 8, 66, 23
3, 135123, Note_on_c, 8, 66, 0
3, 135187, Note_on_c, 7, 54, 0
3, 135236, Note_on_c, 7, 55, 44
3, 135244, Note_on_c, 8, 67, 42
3, 136196, Note_on_c, 8, 67, 0
3, 136239, Note_on_c, 7, 55, 0
3, 136256, Note_on_c, 7, 51, 35
3, 136275, Note_on_c, 8, 63, 35
3, 136961, Note_on_c, 7, 51, 0
3, 136998, Note_on_c, 8, 63, 0
3, 137202, Note_on_c, 8, 63, 46
3, 137221, Note_on_c, 7, 51, 33
3, 137933, Note_on_c, 8, 63, 0
3, 137957, Note_on_c, 7, 51, 0
3, 138147, Note_on_c, 8, 63, 75
3, 138162, Note_on_c, 7, 51, 46
3, 138378, Note_on_c, 8, 63, 0
3, 138479, Note_on_c, 7, 51, 0
3, 138504, Note_on_c, 8, 61, 26
3, 138523, Note_on_c, 7, 49, 26
3, 138658, Note_on_c, 8, 61, 0
3, 138666, Note_on_c, 7, 49, 0
3, 138749, Note_on_c, 7, 50, 33
3, 138786, Note_on_c, 8, 62, 58
3, 139379, Note_on_c, 7, 50, 0
3, 139384, Note_on_c, 8, 59, 53
3, 139427, Note_on_c, 7, 47, 27
3, 139435, Note_on_c, 8, 62, 0
3, 139869, Note_on_c, 8, 59, 0
3, 139886, Note_on_c, 7, 47, 0
3, 139958, Note_on_c, 7, 42, 34
3, 139967, Note_on_c, 8, 54, 34
3, 140565, Note_on_c, 8, 54, 0
3, 140579, Note_on_c, 7, 42, 0
3, 140584, Note_on_c, 7, 45, 45
3, 140594, Note_on_c, 8, 57, 41
3, 140869, Note_on_c, 8, 57, 0
3, 140898, Note_on_c, 7, 45, 0
3, 140982, Note_on_c, 7, 42, 34
3, 140989, Note_on_c, 8, 54, 26
3, 141562, Note_on_c, 8, 54, 0
3, 141567, Note_on_c, 7, 42, 0
3, 141570, Note_on_c, 7, 43, 49
3, 141593, Note_on_c, 8, 55, 51
3, 141908, Note_on_c, 8, 55, 0
3, 141960, Note_on_c, 7, 43, 0
3, 141996, Note_on_c, 8, 57, 35
3, 142003, Note_on_c, 7, 45, 36
3, 142454, Note_on_c, 8, 57, 0
3, 142569, Note_on_c, 7, 46, 34
3, 142590, Note_on_c, 8, 58, 39
3, 142702, Note_on_c, 7, 45, 0
3, 142851, Note_on_c, 7, 46, 0
3, 142862, Note_on_c, 8, 58, 0
3, 142933, Note_on_c, 7, 47, 40
3, 142979, Note_on_c, 8, 59, 27
3, 144499, Note_on_c, 8, 59, 0
3, 144928, Note_on_c, 8, 62, 57
3, 144932, Note_on_c, 7, 47, 0
3, 144940, Note_on_c, 7, 50, 34
3, 145124, Note_on_c, 8, 62, 0
3, 145214, Note_on_c, 8, 63, 57
3, 145295, Note_on_c, 7, 50, 0
3, 145301, Note_on_c, 7, 51, 25
3, 145353, Note_on_c, 8, 63, 0
3, 145450, Note_on_c, 7, 51, 0
3, 145499, Note_on_c, 8, 64, 64
3, 145524, Note_on_c, 7, 52, 57
3, 145700, Note_on_c, 8, 64, 0
3, 145782, Note_on_c, 7, 52, 0
3, 145813, Note_on_c, 8, 65, 85
3, 145848, Note_on_c, 7, 53, 58
3, 146387, Note_on_c, 8, 65, 0
3, 146421, Note_on_c, 8, 62, 54
3, 146471, Note_on_c, 7, 50, 37
3, 146473, Note_on_c, 7, 53, 0
3, 146741, Note_on_c, 8, 62, 0
3, 146775, Note_on_c, 7, 50, 0
3, 146825, Note_on_c, 7, 47, 36
3, 146829, Note_on_c, 8, 59, 28
3, 147095, Note_on_c, 7, 47, 0
3, 147135, Note_on_c, 8, 59, 0
3, 147810, Note_on_c, 8, 59, 28
3, 147822, Note_on_c, 7, 47, 33
3, 148712, Note_on_c, 8, 59, 0
3, 148719, Note_on_c, 7, 47, 0
3, 148755, Note_on_c, 7, 45, 38
3, 148769, Note_on_c, 8, 57, 36
3, 148925, Note_on_c, 7, 45, 0
3, 149287, Note_on_c, 8, 57, 0
3, 149380, Note_on_c, 8, 55, 54
3, 149391, Note_on_c, 7, 43, 40
3, 149662, Note_on_c, 8, 55, 0
3, 149674, Note_on_c, 7, 43, 0
3, 149761, Note_on_c, 8, 56, 45
3, 149776, Note_on_c, 7, 44, 39
3, 150943, Note_on_c, 8, 56, 0
3, 150962, Note_on_c, 7, 44, 0
3, 151304, Note_on_c, 7, 38, 49
3, 151317, Note_on_c, 8, 50, 40
3, 151525, Note_on_c, 8, 50, 0
3, 151632, Note_on_c, 8, 51, 48
3, 151647, Note_on_c, 7, 39, 48
3, 151701, Note_on_c, 7, 38, 0
3, 151811, Note_on_c, 8, 51, 0
3, 151892, Note_on_c, 7, 39, 0
3, 151913, Note_on_c, 8, 52, 43
3, 151950, Note_on_c, 7, 40, 45
3, 152068, Note_on_c, 8, 52, 0
3, 152157, Note_on_c, 7, 40, 0
3, 152184, Note_on_c, 8, 56, 59
3, 152266, Note_on_c, 7, 44, 29
3, 152375, Note_on_c, 8, 56, 0
3, 152442, Note_on_c, 8, 59, 77
3, 152536, Note_on_c, 7, 47, 55
3, 152563, Note_on_c, 7, 44, 0
3, 152624, Note_on_c, 8, 59, 0
3, 152704, Note_on_c, 8, 62, 83
3, 152891, Note_on_c, 8, 62, 0
3, 152996, Note_on_c, 7, 47, 0
3, 153019, Note_on_c, 8, 59, 45
3, 153029, Note_on_c, 7, 44, 40
3, 153159, Note_on_c, 8, 59, 0
3, 153437, Note_on_c, 7, 44, 0
3, 153619, Note_on_c, 8, 62, 91
3, 153638, Note_on_c, 7, 47, 53
3, 153788, Note_on_c, 8, 62, 0
3, 153822, Note_on_c, 7, 47, 0
3, 153872, Note_on_c, 8, 60, 51
3, 153889, Note_on_c, 7, 45, 49
3, 155996, Note_on_c, 7, 45, 0
3, 156097, Note_on_c, 7, 45, 29
3, 156117, Note_on_c, 8, 57, 43
3, 156134, Note_on_c, 8, 60, 0
3, 156631, Note_on_c, 8, 57, 0
3, 156682, Note_on_c, 7, 45, 0
3, 156700, Note_on_c, 7, 48, 41
3, 156714, Note_on_c, 8, 60, 34
3, 156775, Note_on_c, 7, 48, 0
3, 156843, Note_on_c, 8, 60, 0
3, 156987, Note_on_c, 8, 62, 71
3, 157004, Note_on_c, 7, 50, 59
3, 157191, Note_on_c, 8, 62, 0
3, 157300, Note_on_c, 7, 50, 0
3, 157326, Note_on_c, 8, 64, 74
3, 157348, Note_on_c, 7, 52, 53
3, 157975, Note_on_c, 7, 47, 34
3, 157985, Note_on_c, 7, 52, 0
3, 157986, Note_on_c, 8, 56, 50
3, 158021, Note_on_c, 8, 64, 0
3, 158043, Note_on_c, 7, 47, 0
3, 158295, Note_on_c, 8, 56, 0
3, 158353, Note_on_c, 8, 50, 37
3, 158401, Note_on_c, 7, 38, 40
3, 158501, Note_on_c, 7, 38, 0
3, 158731, Note_on_c, 8, 50, 0
3, 159777, Note_on_c, 7, 40, 47
3, 160043, Note_on_c, 8, 56, 47
3, 160068, Note_on_c, 7, 40, 0
3, 160086, Note_on_c, 7, 44, 45
3, 160208, Note_on_c, 8, 56, 0
3, 160317, Note_on_c, 8, 59, 78
3, 160558, Note_on_c, 8, 59, 0
3, 160612, Note_on_c, 8, 62, 85
3, 160613, Note_on_c, 7, 44, 0
3, 160643, Note_on_c, 7, 47, 53
3, 160796, Note_on_c, 8, 62, 0
3, 160865, Note_on_c, 7, 47, 0
3, 160899, Note_on_c, 8, 59, 56
3, 160900, Note_on_c, 7, 44, 46
3, 161095, Note_on_c, 8, 59, 0
3, 161139, Note_on_c, 7, 44, 0
3, 161178, Note_on_c, 8, 60, 57
3, 161192, Note_on_c, 7, 45, 43
3, 161762, Note_on_c, 8, 60, 0
3, 161770, Note_on_c, 8, 57, 48
3, 161803, Note_on_c, 7, 45, 0
3, 161821, Note_on_c, 7, 40, 31
3, 161835, Note_on_c, 8, 57, 0
3, 161913, Note_on_c, 7, 40, 0
3, 163731, Note_on_c, 7, 57, 59
3, 163755, Note_on_c, 8, 69, 90
3, 163950, Note_on_c, 8, 69, 0
3, 164038, Note_on_c, 7, 57, 0
3, 164088, Note_on_c, 8, 67, 49
3, 164110, Note_on_c, 7, 55, 36
3, 164940, Note_on_c, 7, 55, 0
3, 164963, Note_on_c, 8, 67, 0
3, 165047, Note_on_c, 8, 64, 41
3, 165054, Note_on_c, 7, 52, 28
3, 165985, Note_on_c, 8, 60, 38
3, 165990, Note_on_c, 7, 52, 0
3, 165996, Note_on_c, 8, 64, 0
3, 165999, Note_on_c, 7, 48, 30
3, 166897, Note_on_c, 7, 48, 0
3, 166951, Note_on_c, 7, 45, 34
3, 166955, Note_on_c, 8, 57, 29
3, 166961, Note_on_c, 8, 60, 0
3, 168551, Note_on_c, 8, 60, 61
3, 168553, Note_on_c, 7, 45, 0
3, 168554, Note_on_c, 7, 48, 48
3, 168620, Note_on_c, 8, 57, 0
3, 168780, Note_on_c, 7, 48, 0
3, 168893, Note_on_c, 8, 60, 0
3, 168924, Note_on_c, 7, 49, 67
3, 168928, Note_on_c, 8, 61, 78
3, 171361, Note_on_c, 8, 61, 0
3, 171413, Note_on_c, 7, 51, 42
3, 171447, Note_on_c, 8, 63, 40
3, 171485, Note_on_c, 7, 49, 0
3, 171668, Note_on_c, 8, 63, 0
3, 171757, Note_on_c, 8, 65, 46
3, 171774, Note_on_c, 7, 51, 0
3, 171788, Note_on_c, 7, 53, 40
3, 172188, Note_on_c, 8, 65, 0
3, 172195, Note_on_c, 7, 53, 0
3, 172340, Note_on_c, 8, 67, 67
3, 172363, Note_on_c, 7, 55, 59
3, 174375, Note_on_c, 8, 67, 0
3, 174385, Note_on_c, 7, 55, 0
3, 174703, Note_on_c, 7, 55, 41
3, 174712, Note_on_c, 8, 67, 71
3, 175161, Note_on_c, 8, 67, 0
3, 175199, Note_on_c, 7, 55, 0
3, 175265, Note_on_c, 7, 53, 40
3, 175281, Note_on_c, 8, 65, 36
3, 175529, Note_on_c, 8, 65, 0
3, 175582, Note_on_c, 7, 53, 0
3, 175630, Note_on_c, 8, 63, 35
3, 175669, Note_on_c, 7, 51, 29
3, 176494, Note_on_c, 7, 51, 0
3, 176508, Note_on_c, 8, 63, 0
3, 176543, Note_on_c, 8, 64, 50
3, 176558, Note_on_c, 7, 52, 34
3, 177045, Note_on_c, 8, 64, 0
3, 177115, Note_on_c, 8, 60, 44
3, 177116, Note_on_c, 7, 52, 0
3, 177149, Note_on_c, 7, 48, 36
3, 177393, Note_on_c, 8, 60, 0
3, 177396, Note_on_c, 7, 48, 0
3, 177455, Note_on_c, 7, 45, 36
3, 177481, Note_on_c, 8, 57, 32
3, 177845, Note_on_c, 7, 45, 0
3, 177928, Note_on_c, 8, 57, 0
3, 179045, Note_on_c, 8, 52, 44
3, 179113, Note_on_c, 8, 52, 0
3, 179369, Note_on_c, 7, 43, 41
3, 179396, Note_on_c, 8, 55, 71
3, 179580, Note_on_c, 8, 55, 0
3, 179641, Note_on_c, 8, 57, 35
3, 179738, Note_on_c, 7, 43, 0
3, 179742, Note_on_c, 8, 55, 38
3, 179818, Note_on_c, 8, 57, 0
3, 179950, Note_on_c, 7, 38, 31
3, 179982, Note_on_c, 8, 55, 0
3, 180000, Note_on_c, 8, 52, 35
3, 180108, Note_on_c, 8, 52, 0
3, 180117, Note_on_c, 7, 38, 0
3, 180257, Note_on_c, 7, 42, 52
3, 180267, Note_on_c, 8, 54, 51
3, 180848, Note_on_c, 8, 54, 0
3, 180948, Note_on_c, 7, 42, 0
3, 180951, Note_on_c, 8, 57, 58
3, 180951, Note_on_c, 7, 45, 52
3, 181202, Note_on_c, 7, 45, 0
3, 181237, Note_on_c, 8, 57, 0
3, 181304, Note_on_c, 7, 48, 40
3, 181309, Note_on_c, 8, 60, 55
3, 181801, Note_on_c, 8, 60, 0
3, 181934, Note_on_c, 7, 48, 0
3, 181967, Note_on_c, 8, 63, 72
3, 181974, Note_on_c, 7, 51, 72
3, 182292, Note_on_c, 7, 51, 0
3, 182295, Note_on_c, 8, 63, 0
3, 182339, Note_on_c, 7, 50, 40
3, 182386, Note_on_c, 8, 62, 46
3, 182583, Note_on_c, 8, 62, 0
3, 182681, Note_on_c, 7, 50, 0
3, 182945, Note_on_c, 7, 48, 44
3, 182964, Note_on_c, 8, 60, 58
3, 183162, Note_on_c, 8, 60, 0
3, 183174, Note_on_c, 7, 48, 0
3, 183363, Note_on_c, 8, 57, 34
3, 183404, Note_on_c, 7, 43, 14
3, 183506, Note_on_c, 7, 43, 0
3, 183691, Note_on_c, 8, 57, 0
3, 183885, Note_on_c, 7, 46, 28
3, 183914, Note_on_c, 8, 58, 50
3, 184145, Note_on_c, 7, 46, 0
3, 184148, Note_on_c, 8, 58, 0
3, 184236, Note_on_c, 7, 47, 42
3, 184269, Note_on_c, 8, 59, 32
3, 184440, Note_on_c, 8, 59, 0
3, 184476, Note_on_c, 7, 47, 0
3, 184548, Note_on_c, 7, 50, 34
3, 184553, Note_on_c, 8, 62, 47
3, 184714, Note_on_c, 7, 50, 0
3, 184720, Note_on_c, 8, 62, 0
3, 184844, Note_on_c, 8, 66, 73
3, 184852, Note_on_c, 7, 54, 56
3, 185084, Note_on_c, 8, 66, 0
3, 185118, Note_on_c, 7, 54, 0
3, 185158, Note_on_c, 8, 69, 79
3, 185176, Note_on_c, 7, 57, 49
3, 185377, Note_on_c, 8, 69, 0
3, 185453, Note_on_c, 7, 57, 0
3, 185517, Note_on_c, 8, 66, 29
3, 185533, Note_on_c, 7, 54, 27
3, 185706, Note_on_c, 8, 66, 0
3, 185775, Note_on_c, 7, 54, 0
3, 185797, Note_on_c, 8, 67, 66
3, 185817, Note_on_c, 7, 55, 42
3, 186393, Note_on_c, 8, 67, 0
3, 186469, Note_on_c, 8, 66, 45
3, 186478, Note_on_c, 7, 54, 48
3, 186479, Note_on_c, 7, 55, 0
3, 186716, Note_on_c, 8, 66, 0
3, 186767, Note_on_c, 7, 54, 0
3, 186840, Note_on_c, 7, 50, 30
3, 186880, Note_on_c, 8, 62, 35
3, 187034, Note_on_c, 8, 62, 0
3, 187041, Note_on_c, 7, 50, 0
3, 187130, Note_on_c, 8, 64, 32
3, 187154, Note_on_c, 7, 52, 24
3, 187987, Note_on_c, 8, 64, 0
3, 188015, Note_on_c, 7, 52, 0
3, 188071, Note_on_c, 7, 50, 31
3, 188085, Note_on_c, 8, 62, 36
3, 188277, Note_on_c, 7, 50, 0
3, 188390, Note_on_c, 8, 62, 0
3, 188710, Note_on_c, 8, 60, 62
3, 188757, Note_on_c, 7, 48, 36
3, 188941, Note_on_c, 7, 48, 0
3, 188943, Note_on_c, 8, 60, 0
3, 189044, Note_on_c, 8, 58, 29
3, 189233, Note_on_c, 8, 58, 0
3, 189345, Note_on_c, 8, 59, 51
3, 189650, Note_on_c, 8, 59, 0
3, 189760, Note_on_c, 7, 47, 36
3, 189968, Note_on_c, 8, 54, 42
3, 189975, Note_on_c, 7, 42, 33
3, 190320, Note_on_c, 7, 47, 0
3, 190560, Note_on_c, 8, 54, 0
3, 190622, Note_on_c, 8, 57, 50
3, 190630, Note_on_c, 7, 45, 40
3, 190640, Note_on_c, 7, 42, 0
3, 190895, Note_on_c, 8, 57, 0
3, 190942, Note_on_c, 7, 45, 0
3, 190998, Note_on_c, 7, 43, 29
3, 191010, Note_on_c, 8, 55, 36
3, 191526, Note_on_c, 7, 43, 0
3, 191532, Note_on_c, 8, 55, 0
3, 191586, Note_on_c, 7, 41, 34
3, 191591, Note_on_c, 8, 53, 42
3, 192484, Note_on_c, 7, 41, 0
3, 192486, Note_on_c, 8, 53, 0
3, 193922, Note_on_c, 8, 53, 72
3, 193951, Note_on_c, 7, 41, 35
3, 194461, Note_on_c, 8, 53, 0
3, 194483, Note_on_c, 7, 41, 0
3, 194518, Note_on_c, 8, 50, 36
3, 194532, Note_on_c, 7, 38, 35
3, 194785, Note_on_c, 8, 50, 0
3, 194829, Note_on_c, 7, 38, 0
3, 194869, Note_on_c, 8, 51, 45
3, 194891, Note_on_c, 7, 39, 49
3, 195282, Note_on_c, 7, 39, 0
3, 195308, Note_on_c, 8, 51, 0
3, 195789, Note_on_c, 8, 53, 49
3, 195789, Note_on_c, 7, 41, 45
3, 195958, Note_on_c, 8, 53, 0
3, 195978, Note_on_c, 7, 41, 0
3, 196094, Note_on_c, 8, 58, 54
3, 196107, Note_on_c, 7, 46, 37
3, 196260, Note_on_c, 8, 58, 0
3, 196344, Note_on_c, 7, 46, 0
3, 196374, Note_on_c, 7, 48, 51
3, 196402, Note_on_c, 8, 60, 47
3, 196533, Note_on_c, 7, 48, 0
3, 196597, Note_on_c, 8, 60, 0
3, 197018, Note_on_c, 8, 65, 50
3, 197032, Note_on_c, 7, 53, 42
3, 197199, Note_on_c, 8, 65, 0
3, 197208, Note_on_c, 7, 53, 0
3, 197316, Note_on_c, 8, 70, 56
3, 197340, Note_on_c, 7, 57, 47
3, 197492, Note_on_c, 8, 70, 0
3, 197497, Note_on_c, 7, 57, 0
3, 197647, Note_on_c, 7, 60, 47
3, 197713, Note_on_c, 8, 72, 46
3, 197835, Note_on_c, 7, 60, 0
3, 197896, Note_on_c, 8, 72, 0
3, 197965, Note_on_c, 7, 64, 61
3, 198038, Note_on_c, 8, 76, 26
3, 198101, Note_on_c, 8, 76, 0
3, 198127, Note_on_c, 7, 64, 0
3, 198256, Note_on_c, 8, 82, 83
3, 198353, Note_on_c, 7, 69, 54
3, 198485, Note_on_c, 8, 82, 0
3, 198492, Note_on_c, 7, 69, 0
3, 198585, Note_on_c, 8, 84, 88
3, 198613, Note_on_c, 7, 72, 62
3, 198807, Note_on_c, 8, 84, 0
3, 198856, Note_on_c, 7, 72, 0
3, 198898, Note_on_c, 7, 70, 46
3, 198926, Note_on_c, 8, 80, 51
3, 199107, Note_on_c, 8, 80, 0
3, 199134, Note_on_c, 7, 70, 0
3, 199220, Note_on_c, 8, 83, 76
3, 199222, Note_on_c, 7, 71, 44
3, 199500, Note_on_c, 8, 83, 0
3, 199578, Note_on_c, 7, 71, 0
3, 199680, Note_on_c, 7, 69, 66
3, 199680, Note_on_c, 8, 81, 74
3, 199898, Note_on_c, 8, 81, 0
3, 199911, Note_on_c, 7, 69, 0
3, 200264, Note_on_c, 7, 66, 40
3, 200276, Note_on_c, 8, 78, 29
3, 200472, Note_on_c, 8, 78, 0
3, 200538, Note_on_c, 7, 66, 0
3, 200588, Note_on_c, 7, 67, 48
3, 200599, Note_on_c, 8, 79, 59
3, 200801, Note_on_c, 8, 79, 0
3, 200830, Note_on_c, 7, 67, 0
3, 200951, Note_on_c, 7, 62, 27
3, 201189, Note_on_c, 7, 62, 0
3, 201223, Note_on_c, 8, 78, 67
3, 201246, Note_on_c, 7, 66, 48
3, 201476, Note_on_c, 7, 66, 0
3, 201542, Note_on_c, 8, 78, 0
3, 201582, Note_on_c, 8, 72, 24
3, 201651, Note_on_c, 7, 62, 14
3, 201714, Note_on_c, 8, 72, 0
3, 201841, Note_on_c, 7, 62, 0
3, 201874, Note_on_c, 8, 76, 62
3, 201893, Note_on_c, 7, 64, 36
3, 202180, Note_on_c, 7, 64, 0
3, 202222, Note_on_c, 8, 74, 48
3, 202243, Note_on_c, 7, 62, 42
3, 202288, Note_on_c, 8, 76, 0
3, 202483, Note_on_c, 7, 62, 0
3, 202490, Note_on_c, 8, 74, 0
3, 202756, Note_on_c, 8, 72, 66
3, 202775, Note_on_c, 7, 60, 38
3, 203018, Note_on_c, 8, 72, 0
3, 203024, Note_on_c, 7, 60, 0
3, 203061, Note_on_c, 8, 70, 42
3, 203084, Note_on_c, 7, 58, 52
3, 203287, Note_on_c, 8, 70, 0
3, 203316, Note_on_c, 7, 58, 0
3, 203396, Note_on_c, 8, 71, 66
3, 203411, Note_on_c, 7, 59, 33
3, 203663, Note_on_c, 7, 59, 0
3, 203667, Note_on_c, 8, 71, 0
3, 203708, Note_on_c, 8, 67, 59
3, 203717, Note_on_c, 7, 55, 34
3, 203899, Note_on_c, 8, 67, 0
3, 203908, Note_on_c, 7, 55, 0
3, 204052, Note_on_c, 7, 52, 26
3, 204073, Note_on_c, 8, 64, 16
3, 204243, Note_on_c, 8, 64, 0
3, 204266, Note_on_c, 7, 52, 0
3, 204329, Note_on_c, 8, 69, 71
3, 204359, Note_on_c, 7, 57, 42
3, 204567, Note_on_c, 8, 69, 0
3, 204629, Note_on_c, 7, 57, 0
3, 204704, Note_on_c, 7, 54, 25
3, 204897, Note_on_c, 7, 54, 0
3, 204983, Note_on_c, 7, 55, 55
3, 204984, Note_on_c, 8, 67, 69
3, 205234, Note_on_c, 8, 67, 0
3, 205237, Note_on_c, 7, 55, 0
3, 205312, Note_on_c, 7, 54, 44
3, 205345, Note_on_c, 8, 66, 42
3, 205614, Note_on_c, 7, 54, 0
3, 205627, Note_on_c, 8, 66, 0
3, 205659, Note_on_c, 8, 62, 29
3, 205688, Note_on_c, 7, 50, 34
3, 206006, Note_on_c, 7, 50, 0
3, 206082, Note_on_c, 8, 62, 0
3, 206351, Note_on_c, 7, 50, 44
3, 206364, Note_on_c, 8, 62, 37
3, 206955, Note_on_c, 7, 50, 0
3, 206958, Note_on_c, 8, 62, 0
3, 206999, Note_on_c, 7, 48, 33
3, 207012, Note_on_c, 8, 60, 35
3, 207246, Note_on_c, 8, 60, 0
3, 207343, Note_on_c, 7, 48, 0
3, 207389, Note_on_c, 7, 47, 42
3, 207410, Note_on_c, 8, 59, 33
3, 207954, Note_on_c, 7, 47, 0
3, 207966, Note_on_c, 8, 59, 0
3, 207983, Note_on_c, 7, 50, 33
3, 207986, Note_on_c, 8, 62, 43
3, 208152, Note_on_c, 7, 50, 0
3, 208213, Note_on_c, 8, 62, 0
3, 208304, Note_on_c, 7, 54, 35
3, 208318, Note_on_c, 8, 66, 48
3, 208805, Note_on_c, 8, 66, 0
3, 208896, Note_on_c, 8, 69, 72
3, 208908, Note_on_c, 7, 54, 0
3, 208913, Note_on_c, 7, 57, 49
3, 209103, Note_on_c, 8, 69, 0
3, 209177, Note_on_c, 7, 57, 0
3, 209252, Note_on_c, 7, 54, 35
3, 209254, Note_on_c, 8, 66, 53
3, 209563, Note_on_c, 8, 66, 0
3, 209606, Note_on_c, 7, 54, 0
3, 209849, Note_on_c, 8, 62, 47
3, 209852, Note_on_c, 7, 50, 36
3, 210214, Note_on_c, 8, 62, 0
3, 210219, Note_on_c, 7, 47, 36
3, 210223, Note_on_c, 8, 59, 46
3, 210288, Note_on_c, 7, 50, 0
3, 210613, Note_on_c, 7, 47, 0
3, 210691, Note_on_c, 8, 59, 0
3, 210810, Note_on_c, 8, 57, 39
3, 210877, Note_on_c, 7, 45, 60
3, 211009, Note_on_c, 7, 45, 0
3, 211110, Note_on_c, 8, 57, 0
3, 211199, Note_on_c, 8, 56, 59
3, 211227, Note_on_c, 7, 44, 32
3, 212118, Note_on_c, 8, 58, 56
3, 212129, Note_on_c, 8, 56, 0
3, 212150, Note_on_c, 7, 46, 25
3, 212212, Note_on_c, 7, 44, 0
3, 212272, Note_on_c, 8, 58, 0
3, 212392, Note_on_c, 8, 62, 62
3, 212436, Note_on_c, 7, 50, 37
3, 212567, Note_on_c, 8, 62, 0
3, 212595, Note_on_c, 7, 46, 0
3, 212603, Note_on_c, 7, 50, 0
3, 212657, Note_on_c, 8, 65, 68
3, 212666, Note_on_c, 7, 53, 60
3, 212828, Note_on_c, 8, 65, 0
3, 212906, Note_on_c, 8, 68, 71
3, 212931, Note_on_c, 7, 56, 52
3, 212936, Note_on_c, 7, 53, 0
3, 213075, Note_on_c, 8, 68, 0
3, 213149, Note_on_c, 8, 70, 67
3, 213192, Note_on_c, 7, 58, 46
3, 213211, Note_on_c, 7, 56, 0
3, 213236, Note_on_c, 8, 70, 0
3, 213338, Note_on_c, 7, 58, 0
3, 213405, Note_on_c, 8, 74, 73
3, 213486, Note_on_c, 7, 64, 40
3, 213539, Note_on_c, 7, 64, 0
3, 213567, Note_on_c, 8, 74, 0
3, 213665, Note_on_c, 8, 77, 64
3, 213669, Note_on_c, 7, 64, 31
3, 213778, Note_on_c, 7, 64, 0
3, 213830, Note_on_c, 8, 77, 0
3, 214486, Note_on_c, 8, 80, 69
3, 214500, Note_on_c, 7, 68, 57
3, 214564, Note_on_c, 8, 81, 25
3, 214590, Note_on_c, 7, 68, 0
3, 214627, Note_on_c, 8, 81, 0
3, 214641, Note_on_c, 8, 80, 0
3, 214748, Note_on_c, 8, 82, 75
3, 214763, Note_on_c, 7, 68, 45
3, 214890, Note_on_c, 7, 68, 0
3, 215013, Note_on_c, 8, 82, 0
3, 215041, Note_on_c, 8, 83, 71
3, 215074, Note_on_c, 7, 71, 65
3, 215252, Note_on_c, 7, 71, 0
3, 215261, Note_on_c, 8, 83, 0
3, 215338, Note_on_c, 8, 86, 81
3, 215425, Note_on_c, 7, 74, 50
3, 215542, Note_on_c, 8, 86, 0
3, 215578, Note_on_c, 7, 74, 0
3, 215631, Note_on_c, 8, 83, 69
3, 215634, Note_on_c, 7, 71, 42
3, 215837, Note_on_c, 8, 83, 0
3, 215840, Note_on_c, 7, 71, 0
3, 215913, Note_on_c, 7, 72, 40
3, 215938, Note_on_c, 8, 84, 68
3, 216116, Note_on_c, 8, 84, 0
3, 216124, Note_on_c, 7, 72, 0
3, 216223, Note_on_c, 8, 81, 55
3, 216235, Note_on_c, 7, 69, 48
3, 216308, Note_on_c, 8, 81, 0
3, 216347, Note_on_c, 7, 69, 0
3, 216545, Note_on_c, 8, 76, 44
3, 216567, Note_on_c, 7, 64, 36
3, 216700, Note_on_c, 8, 76, 0
3, 216731, Note_on_c, 7, 64, 0
3, 218284, Note_on_c, 8, 79, 82
3, 218296, Note_on_c, 8, 67, 77
3, 218533, Note_on_c, 7, 66, 50
3, 218566, Note_on_c, 8, 78, 51
3, 218577, Note_on_c, 8, 67, 0
3, 218609, Note_on_c, 8, 79, 0
3, 218713, Note_on_c, 8, 77, 50
3, 218719, Note_on_c, 8, 78, 0
3, 218733, Note_on_c, 7, 66, 0
3, 218894, Note_on_c, 7, 64, 50
3, 218916, Note_on_c, 8, 77, 0
3, 218938, Note_on_c, 8, 76, 51
3, 219055, Note_on_c, 7, 64, 0
3, 219095, Note_on_c, 8, 76, 0
3, 219483, Note_on_c, 8, 74, 67
3, 219503, Note_on_c, 7, 62, 35
3, 219596, Note_on_c, 8, 74, 0
3, 219635, Note_on_c, 7, 62, 0
3, 219861, Note_on_c, 8, 71, 62
3, 219916, Note_on_c, 7, 59, 24
3, 220010, Note_on_c, 8, 71, 0
3, 220024, Note_on_c, 7, 59, 0
3, 220422, Note_on_c, 7, 56, 39
3, 220424, Note_on_c, 8, 68, 50
3, 220670, Note_on_c, 7, 56, 0
3, 220735, Note_on_c, 8, 68, 0
3, 220850, Note_on_c, 8, 65, 44
3, 221019, Note_on_c, 8, 65, 0
3, 222118, Note_on_c, 8, 62, 60
3, 222145, Note_on_c, 7, 50, 40
3, 222266, Note_on_c, 8, 62, 0
3, 222316, Note_on_c, 7, 50, 0
3, 222363, Note_on_c, 8, 65, 68
3, 222382, Note_on_c, 7, 53, 56
3, 222552, Note_on_c, 8, 65, 0
3, 222649, Note_on_c, 7, 53, 0
3, 222671, Note_on_c, 8, 64, 43
3, 222708, Note_on_c, 7, 52, 36
3, 223195, Note_on_c, 8, 64, 0
3, 223252, Note_on_c, 7, 52, 0
3, 223273, Note_on_c, 8, 60, 39
3, 223286, Note_on_c, 7, 48, 32
3, 223553, Note_on_c, 8, 60, 0
3, 223605, Note_on_c, 7, 48, 0
3, 223621, Note_on_c, 8, 57, 33
3, 223655, Note_on_c, 7, 45, 27
3, 223964, Note_on_c, 8, 57, 0
3, 224495, Note_on_c, 7, 45, 0
3, 224549, Note_on_c, 8, 60, 55
3, 224559, Note_on_c, 7, 48, 34
3, 225426, Note_on_c, 8, 60, 0
3, 225533, Note_on_c, 8, 62, 66
3, 225540, Note_on_c, 7, 48, 0
3, 225555, Note_on_c, 7, 50, 37
3, 226063, Note_on_c, 8, 62, 0
3, 226195, Note_on_c, 8, 60, 17
3, 226197, Note_on_c, 7, 48, 36
3, 226198, Note_on_c, 7, 50, 0
3, 226261, Note_on_c, 8, 60, 0
3, 226323, Note_on_c, 7, 48, 0
3, 226528, Note_on_c, 8, 63, 83
3, 226544, Note_on_c, 7, 51, 71
3, 228002, Note_on_c, 7, 51, 0
3, 228007, Note_on_c, 8, 63, 0
3, 228098, Note_on_c, 7, 55, 80
3, 228099, Note_on_c, 8, 67, 87
3, 228672, Note_on_c, 8, 63, 57
3, 228674, Note_on_c, 8, 67, 0
3, 228676, Note_on_c, 7, 55, 0
3, 228678, Note_on_c, 7, 51, 30
3, 228824, Note_on_c, 7, 51, 0
3, 228837, Note_on_c, 8, 63, 0
3, 228914, Note_on_c, 7, 48, 29
3, 228924, Note_on_c, 8, 60, 58
3, 229055, Note_on_c, 8, 60, 0
3, 229163, Note_on_c, 8, 58, 62
3, 229178, Note_on_c, 7, 46, 50
3, 229218, Note_on_c, 7, 48, 0
3, 229339, Note_on_c, 8, 58, 0
3, 229363, Note_on_c, 7, 46, 0
3, 229437, Note_on_c, 7, 45, 45
3, 229455, Note_on_c, 8, 57, 44
3, 229701, Note_on_c, 8, 57, 0
3, 229807, Note_on_c, 8, 60, 57
3, 229845, Note_on_c, 7, 48, 42
3, 229852, Note_on_c, 7, 45, 0
3, 229924, Note_on_c, 8, 60, 0
3, 229979, Note_on_c, 7, 48, 0
3, 230045, Note_on_c, 8, 63, 74
3, 230086, Note_on_c, 7, 51, 56
3, 230195, Note_on_c, 7, 51, 0
3, 230225, Note_on_c, 8, 63, 0
3, 230284, Note_on_c, 8, 67, 74
3, 230441, Note_on_c, 8, 67, 0
3, 230544, Note_on_c, 8, 66, 70
3, 230840, Note_on_c, 8, 66, 0
3, 231011, Note_on_c, 8, 62, 70
3, 231038, Note_on_c, 7, 50, 43
3, 231198, Note_on_c, 7, 50, 0
3, 231231, Note_on_c, 8, 62, 0
3, 231359, Note_on_c, 8, 58, 40
3, 231371, Note_on_c, 7, 46, 26
3, 231671, Note_on_c, 7, 46, 0
3, 231890, Note_on_c, 7, 46, 33
3, 231927, Note_on_c, 8, 55, 40
3, 231993, Note_on_c, 8, 58, 0
3, 232027, Note_on_c, 8, 55, 0
3, 232098, Note_on_c, 7, 46, 0
3, 232239, Note_on_c, 7, 43, 36
3, 232677, Note_on_c, 7, 43, 0
3, 232821, Note_on_c, 7, 46, 37
3, 232841, Note_on_c, 8, 58, 56
3, 233027, Note_on_c, 8, 58, 0
3, 233123, Note_on_c, 7, 46, 0
3, 233181, Note_on_c, 8, 61, 59
3, 233215, Note_on_c, 7, 49, 32
3, 233475, Note_on_c, 8, 61, 0
3, 233751, Note_on_c, 8, 64, 68
3, 233757, Note_on_c, 7, 49, 0
3, 233763, Note_on_c, 7, 52, 48
3, 234405, Note_on_c, 8, 64, 0
3, 234415, Note_on_c, 8, 60, 45
3, 234425, Note_on_c, 7, 52, 0
3, 234431, Note_on_c, 7, 48, 37
3, 234602, Note_on_c, 8, 60, 0
3, 234606, Note_on_c, 7, 48, 0
3, 234712, Note_on_c, 8, 57, 47
3, 234728, Note_on_c, 7, 45, 37
3, 234938, Note_on_c, 8, 57, 0
3, 235000, Note_on_c, 7, 45, 0
3, 235030, Note_on_c, 7, 43, 44
3, 235050, Note_on_c, 8, 55, 40
3, 235539, Note_on_c, 7, 43, 0
3, 235591, Note_on_c, 8, 55, 0
3, 235685, Note_on_c, 8, 52, 40
3, 235822, Note_on_c, 8, 52, 0
3, 236018, Note_on_c, 8, 54, 42
3, 236032, Note_on_c, 7, 42, 33
3, 236542, Note_on_c, 7, 42, 0
3, 236574, Note_on_c, 8, 54, 0
3, 236633, Note_on_c, 7, 45, 41
3, 236669, Note_on_c, 8, 57, 36
3, 236817, Note_on_c, 8, 57, 0
3, 236902, Note_on_c, 7, 45, 0
3, 236968, Note_on_c, 8, 60, 57
3, 236970, Note_on_c, 7, 48, 44
3, 237370, Note_on_c, 8, 60, 0
3, 237436, Note_on_c, 7, 48, 0
3, 237602, Note_on_c, 7, 45, 36
3, 237608, Note_on_c, 8, 57, 30
3, 237798, Note_on_c, 7, 45, 0
3, 237801, Note_on_c, 8, 57, 0
3, 237884, Note_on_c, 7, 47, 42
3, 237950, Note_on_c, 8, 59, 37
3, 238100, Note_on_c, 8, 59, 0
3, 238144, Note_on_c, 7, 47, 0
3, 238564, Note_on_c, 8, 62, 55
3, 238579, Note_on_c, 7, 50, 19
3, 238758, Note_on_c, 8, 62, 0
3, 238759, Note_on_c, 7, 50, 0
3, 238847, Note_on_c, 8, 64, 46
3, 238873, Note_on_c, 7, 52, 30
3, 239350, Note_on_c, 7, 52, 0
3, 239670, Note_on_c, 8, 54, 9
3, 239752, Note_on_c, 8, 64, 0
3, 239850, Note_on_c, 8, 54, 0
3, 239874, Note_on_c, 8, 69, 62
3, 239913, Note_on_c, 7, 57, 38
3, 240515, Note_on_c, 8, 69, 0
3, 240595, Note_on_c, 7, 57, 0
3, 240607, Note_on_c, 7, 54, 23
3, 240868, Note_on_c, 8, 67, 60
3, 240873, Note_on_c, 7, 55, 54
3, 240878, Note_on_c, 7, 54, 0
3, 241308, Note_on_c, 7, 55, 0
3, 241357, Note_on_c, 8, 67, 0
3, 241483, Note_on_c, 8, 69, 60
3, 241489, Note_on_c, 8, 57, 51
3, 242064, Note_on_c, 8, 64, 45
3, 242123, Note_on_c, 8, 69, 0
3, 242132, Note_on_c, 7, 52, 34
3, 242169, Note_on_c, 8, 57, 0
3, 242411, Note_on_c, 8, 64, 0
3, 242429, Note_on_c, 7, 52, 0
3, 242820, Note_on_c, 8, 63, 49
3, 242828, Note_on_c, 7, 51, 38
3, 243421, Note_on_c, 8, 63, 0
3, 243466, Note_on_c, 7, 51, 0
3, 243490, Note_on_c, 7, 50, 39
3, 243493, Note_on_c, 8, 62, 46
3, 244619, Note_on_c, 8, 62, 0
3, 244805, Note_on_c, 7, 38, 30
3, 244859, Note_on_c, 7, 64, 77
3, 244864, Note_on_c, 8, 76, 95
3, 245005, Note_on_c, 7, 64, 0
3, 245032, Note_on_c, 8, 76, 0
3, 245174, Note_on_c, 7, 50, 0
3, 245292, Note_on_c, 7, 38, 0
3, 245470, Note_on_c, 8, 73, 69
3, 245472, Note_on_c, 7, 61, 73
3, 245589, Note_on_c, 8, 73, 0
3, 245734, Note_on_c, 7, 61, 0
3, 245819, Note_on_c, 7, 62, 63
3, 245827, Note_on_c, 8, 74, 71
3, 245947, Note_on_c, 7, 62, 0
3, 245949, Note_on_c, 8, 74, 0
3, 246421, Note_on_c, 8, 70, 78
3, 246433, Note_on_c, 7, 58, 57
3, 246624, Note_on_c, 8, 70, 0
3, 246693, Note_on_c, 7, 58, 0
3, 246736, Note_on_c, 7, 59, 48
3, 246776, Note_on_c, 8, 71, 69
3, 246901, Control_c, 0, 64, 127
3, 246905, Note_on_c, 7, 59, 0
3, 246965, Control_c, 0, 64, 0
3, 246977, Note_on_c, 8, 71, 0
3, 247335, Note_on_c, 7, 50, 41
3, 247353, Note_on_c, 8, 67, 62
3, 247398, Control_c, 0, 64, 127
3, 247411, Note_on_c, 8, 67, 0
3, 247598, Note_on_c, 7, 50, 0
3, 247606, Control_c, 0, 64, 0
3, 247694, Note_on_c, 8, 62, 62
3, 247712, Note_on_c, 7, 43, 33
3, 247715, Note_on_c, 8, 54, 36
3, 247728, Note_on_c, 8, 66, 32
3, 248086, Control_c, 0, 64, 127
3, 248206, Note_on_c, 8, 62, 0
3, 248461, Note_on_c, 7, 50, 25
3, 248472, Note_on_c, 8, 54, 0
3, 248582, Note_on_c, 8, 66, 0
3, 248609, Note_on_c, 7, 50, 0
3, 248646, Control_c, 0, 64, 0
3, 248647, Note_on_c, 8, 64, 47
3, 248651, Note_on_c, 8, 54, 38
3, 248654, Note_on_c, 8, 59, 48
3, 248681, Note_on_c, 8, 62, 36
3, 248952, Control_c, 0, 64, 127
3, 249102, Note_on_c, 8, 64, 0
3, 249110, Note_on_c, 8, 62, 0
3, 249273, Note_on_c, 8, 59, 0
3, 249305, Note_on_c, 8, 54, 0
3, 249406, Note_on_c, 7, 50, 24
3, 249569, Note_on_c, 7, 50, 0
3, 249577, Control_c, 0, 64, 0
3, 249600, Note_on_c, 8, 62, 48
3, 249604, Note_on_c, 7, 52, 50
3, 249626, Note_on_c, 8, 55, 33
3, 249641, Note_on_c, 8, 59, 40
3, 250192, Note_on_c, 8, 62, 0
3, 250209, Note_on_c, 8, 59, 0
3, 250217, Control_c, 0, 64, 127
3, 250384, Note_on_c, 8, 55, 0
3, 250505, Control_c, 0, 64, 0
3, 250549, Note_on_c, 7, 52, 0
3, 250553, Note_on_c, 8, 63, 60
3, 250565, Note_on_c, 8, 55, 43
3, 250569, Note_on_c, 7, 51, 56
3, 250587, Note_on_c, 8, 58, 50
3, 250624, Note_on_c, 8, 61, 39
3, 251145, Control_c, 0, 64, 127
3, 251281, Note_on_c, 8, 55, 0
3, 251305, Note_on_c, 8, 58, 0
3, 251320, Note_on_c, 8, 63, 0
3, 251406, Note_on_c, 8, 61, 0
3, 251419, Control_c, 0, 64, 0
3, 251436, Note_on_c, 7, 51, 0
3, 251524, Note_on_c, 7, 50, 52
3, 251528, Note_on_c, 8, 64, 53
3, 251545, Note_on_c, 8, 55, 54
3, 251568, Note_on_c, 8, 59, 50
3, 251590, Note_on_c, 7, 43, 0
3, 251753, Control_c, 0, 64, 127
3, 251789, Note_on_c, 8, 64, 0
3, 251899, Control_c, 0, 64, 0
3, 251913, Control_c, 0, 64, 127
3, 252201, Note_on_c, 8, 59, 0
3, 252216, Note_on_c, 8, 55, 0
3, 252379, Control_c, 0, 64, 0
3, 252445, Note_on_c, 7, 43, 56
3, 252451, Note_on_c, 8, 66, 71
3, 252453, Note_on_c, 8, 55, 62
3, 252485, Note_on_c, 8, 59, 59
3, 252541, Note_on_c, 7, 50, 0
3, 252601, Control_c, 0, 64, 127
3, 252603, Note_on_c, 7, 43, 0
3, 252811, Note_on_c, 8, 55, 0
3, 252816, Note_on_c, 8, 59, 0
3, 253123, Note_on_c, 8, 66, 0
3, 253387, Control_c, 0, 64, 0
3, 253408, Note_on_c, 8, 67, 62
3, 253437, Note_on_c, 8, 60, 63
3, 253459, Note_on_c, 7, 46, 51
3, 253461, Note_on_c, 8, 56, 39
3, 253608, Note_on_c, 8, 56, 0
3, 253667, Note_on_c, 8, 60, 0
3, 253689, Control_c, 0, 64, 127
3, 253741, Note_on_c, 8, 67, 0
3, 253915, Note_on_c, 7, 46, 0
3, 254389, Note_on_c, 8, 72, 82
3, 254397, Control_c, 0, 64, 0
3, 254398, Note_on_c, 8, 65, 83
3, 254403, Note_on_c, 8, 61, 86
3, 254409, Note_on_c, 7, 60, 71
3, 254413, Note_on_c, 8, 69, 65
3, 254715, Control_c, 0, 64, 127
3, 255017, Note_on_c, 8, 69, 0
3, 255064, Note_on_c, 8, 61, 0
3, 255115, Note_on_c, 8, 65, 0
3, 255198, Note_on_c, 8, 72, 0
3, 255293, Control_c, 0, 64, 0
3, 255361, Note_on_c, 8, 61, 76
3, 255363, Note_on_c, 8, 70, 71
3, 255374, Note_on_c, 8, 65, 66
3, 255387, Note_on_c, 7, 58, 67
3, 255441, Note_on_c, 7, 60, 0
3, 255481, Note_on_c, 8, 61, 0
3, 255497, Control_c, 0, 64, 127
3, 255529, Note_on_c, 8, 65, 0
3, 255587, Note_on_c, 7, 58, 0
3, 255629, Note_on_c, 8, 70, 0
3, 256283, Control_c, 0, 64, 0
3, 256294, Note_on_c, 8, 84, 90
3, 256297, Note_on_c, 8, 77, 85
3, 256302, Note_on_c, 8, 73, 77
3, 256322, Note_on_c, 7, 60, 66
3, 256323, Note_on_c, 7, 65, 71
3, 256339, Note_on_c, 7, 61, 49
3, 256635, Control_c, 0, 64, 127
3, 256987, Note_on_c, 7, 65, 0
3, 257019, Note_on_c, 7, 61, 0
3, 257022, Note_on_c, 8, 73, 0
3, 257037, Note_on_c, 7, 60, 0
3, 257056, Note_on_c, 8, 84, 0
3, 257077, Note_on_c, 8, 77, 0
3, 257261, Control_c, 0, 64, 0
3, 257291, Note_on_c, 8, 73, 42
3, 257293, Note_on_c, 7, 61, 37
3, 257294, Note_on_c, 7, 65, 54
3, 257299, Note_on_c, 8, 82, 55
3, 257320, Note_on_c, 8, 77, 53
3, 257328, Note_on_c, 7, 55, 45
3, 257613, Control_c, 0, 64, 127
3, 257681, Note_on_c, 8, 77, 0
3, 257719, Note_on_c, 8, 82, 0
3, 257752, Note_on_c, 7, 55, 0
3, 257816, Note_on_c, 7, 65, 0
3, 257830, Note_on_c, 7, 61, 0
3, 257833, Note_on_c, 8, 73, 0
3, 258189, Control_c, 0, 64, 0
3, 258253, Note_on_c, 7, 65, 45
3, 258256, Note_on_c, 8, 72, 39
3, 258257, Note_on_c, 7, 61, 42
3, 258272, Note_on_c, 8, 73, 25
3, 258275, Note_on_c, 8, 81, 42
3, 258286, Note_on_c, 7, 55, 38
3, 258307, Note_on_c, 8, 77, 36
3, 258371, Note_on_c, 8, 81, 0
3, 258384, Note_on_c, 8, 72, 0
3, 258398, Note_on_c, 8, 77, 0
3, 258411, Note_on_c, 8, 73, 0
3, 258432, Note_on_c, 7, 65, 0
3, 258433, Note_on_c, 7, 55, 0
3, 258454, Note_on_c, 7, 61, 0
3, 259173, Note_on_c, 7, 65, 44
3, 259182, Note_on_c, 7, 61, 43
3, 259195, Note_on_c, 7, 55, 40
3, 259203, Note_on_c, 8, 73, 27
3, 259214, Note_on_c, 8, 81, 48
3, 259219, Note_on_c, 8, 72, 45
3, 259238, Note_on_c, 8, 77, 43
3, 259261, Control_c, 0, 64, 127
3, 259835, Note_on_c, 7, 55, 0
3, 259873, Note_on_c, 7, 61, 0
3, 259881, Note_on_c, 7, 65, 0
3, 260096, Note_on_c, 8, 81, 0
3, 260101, Note_on_c, 8, 72, 0
3, 260121, Note_on_c, 8, 77, 0
3, 260141, Note_on_c, 8, 73, 0
3, 260165, Note_on_c, 7, 65, 43
3, 260171, Note_on_c, 7, 55, 34
3, 260176, Note_on_c, 7, 61, 42
3, 260294, Note_on_c, 7, 65, 0
3, 260313, Note_on_c, 7, 55, 0
3, 260353, Note_on_c, 7, 61, 0
3, 260755, Note_on_c, 8, 82, 67
3, 260765, Note_on_c, 8, 70, 55
3, 260811, Note_on_c, 8, 78, 31
3, 260899, Note_on_c, 8, 70, 0
3, 261006, Note_on_c, 8, 82, 0
3, 261037, Note_on_c, 8, 78, 0
3, 261093, Note_on_c, 7, 43, 32
3, 261104, Control_c, 0, 64, 0
3, 261142, Note_on_c, 8, 83, 71
3, 261147, Note_on_c, 8, 74, 74
3, 261160, Note_on_c, 8, 79, 63
3, 261187, Note_on_c, 7, 50, 24
3, 261494, Note_on_c, 8, 79, 0
3, 261501, Note_on_c, 8, 83, 0
3, 261574, Note_on_c, 8, 74, 0
3, 261761, Note_on_c, 8, 70, 80
3, 261809, Note_on_c, 8, 77, 51
3, 261811, Note_on_c, 8, 72, 57
3, 261940, Note_on_c, 8, 72, 0
3, 262046, Note_on_c, 8, 77, 0
3, 262054, Note_on_c, 8, 70, 0
3, 262190, Note_on_c, 8, 77, 64
3, 262195, Note_on_c, 8, 71, 71
3, 262333, Note_on_c, 8, 77, 0
3, 262392, Note_on_c, 8, 71, 0
3, 262712, Note_on_c, 8, 70, 72
3, 262715, Note_on_c, 8, 66, 73
3, 262721, Note_on_c, 8, 73, 51
3, 263011, Note_on_c, 8, 73, 0
3, 263024, Note_on_c, 8, 70, 0
3, 263059, Note_on_c, 8, 66, 0
3, 263136, Note_on_c, 8, 74, 56
3, 263150, Note_on_c, 8, 71, 45
3, 263161, Note_on_c, 8, 67, 46
3, 263205, Note_on_c, 8, 74, 0
3, 263217, Note_on_c, 8, 71, 0
3, 263301, Note_on_c, 8, 67, 0
3, 263619, Note_on_c, 8, 70, 59
3, 263640, Note_on_c, 8, 66, 46
3, 263641, Note_on_c, 8, 61, 54
3, 263653, Note_on_c, 7, 55, 49
3, 263734, Note_on_c, 7, 55, 0
3, 263749, Note_on_c, 7, 43, 0
3, 263816, Note_on_c, 7, 50, 0
3, 263870, Note_on_c, 8, 61, 0
3, 263918, Note_on_c, 8, 70, 0
3, 263926, Note_on_c, 8, 66, 0
3, 264011, Note_on_c, 8, 71, 51
3, 264021, Note_on_c, 8, 62, 55
3, 264040, Note_on_c, 8, 67, 40
3, 264163, Note_on_c, 8, 67, 0
3, 264175, Note_on_c, 8, 71, 0
3, 264267, Note_on_c, 8, 62, 0
3, 264513, Note_on_c, 7, 58, 61
3, 264518, Note_on_c, 7, 49, 53
3, 264526, Note_on_c, 8, 66, 39
3, 264535, Note_on_c, 8, 61, 54
3, 264745, Note_on_c, 7, 58, 0
3, 264797, Note_on_c, 8, 61, 0
3, 264805, Note_on_c, 8, 66, 0
3, 264865, Note_on_c, 7, 49, 0
3, 264886, Note_on_c, 7, 50, 43
3, 264904, Note_on_c, 8, 67, 43
3, 264923, Note_on_c, 8, 59, 34
3, 264933, Note_on_c, 8, 62, 41
3, 264988, Note_on_c, 8, 67, 0
3, 265021, Note_on_c, 8, 62, 0
3, 265125, Note_on_c, 8, 59, 0
3, 265217, Note_on_c, 7, 50, 0
3, 265483, Note_on_c, 8, 54, 31
3, 265489, Note_on_c, 7, 42, 43
3, 265510, Note_on_c, 8, 61, 31
3, 265520, Note_on_c, 8, 58, 37
3, 265707, Note_on_c, 8, 61, 0
3, 265721, Note_on_c, 8, 54, 0
3, 265723, Note_on_c, 8, 58, 0
3, 265792, Note_on_c, 7, 42, 0
3, 265859, Note_on_c, 7, 43, 36
3, 265869, Note_on_c, 8, 55, 34
3, 265873, Note_on_c, 8, 62, 44
3, 265910, Note_on_c, 8, 59, 22
3, 266080, Note_on_c, 8, 55, 0
3, 266321, Note_on_c, 8, 59, 0
3, 266416, Note_on_c, 8, 62, 0
3, 266477, Note_on_c, 7, 31, 54
3, 266533, Control_c, 0, 64, 127
3, 266569, Note_on_c, 7, 31, 0
3, 266656, Note_on_c, 7, 43, 0
3, 266827, Note_on_c, 8, 62, 62
3, 267205, Note_on_c, 8, 62, 0
3, 267400, Note_on_c, 8, 66, 67
3, 267443, Note_on_c, 8, 55, 30
3, 267512, Note_on_c, 8, 55, 0
3, 267638, Note_on_c, 8, 66, 0
3, 267763, Note_on_c, 8, 69, 50
3, 267891, Note_on_c, 8, 69, 0
3, 268374, Note_on_c, 7, 57, 64
3, 268389, Note_on_c, 8, 76, 99
3, 268406, Note_on_c, 7, 47, 64
3, 268454, Control_c, 0, 64, 0
3, 268790, Control_c, 0, 64, 127
3, 268800, Control_c, 8, 86, 16
3, 268934, Note_on_c, 8, 76, 0
3, 269072, Note_on_c, 7, 57, 0
3, 269520, Note_on_c, 8, 55, 45
3, 269588, Note_on_c, 8, 55, 0
3, 269640, Control_c, 0, 64, 0
3, 269680, Note_on_c, 8, 57, 56
3, 269735, Note_on_c, 8, 57, 0
3, 269760, Control_c, 7, 85, 16
3, 269760, Control_c, 7, 86, 16
3, 269840, Note_on_c, 8, 59, 46
3, 269920, Note_on_c, 8, 59, 0
3, 269920, Note_on_c, 8, 60, 46
3, 270004, Note_on_c, 8, 60, 0
3, 270080, Note_on_c, 8, 62, 39
3, 270085, Note_on_c, 7, 47, 0
3, 270160, Note_on_c, 8, 64, 39
3, 270180, Note_on_c, 8, 62, 0
3, 270264, Note_on_c, 8, 64, 0
3, 270320, Note_on_c, 8, 65, 49
3, 270385, Note_on_c, 8, 65, 0
3, 270480, Note_on_c, 8, 67, 48
3, 270535, Note_on_c, 8, 67, 0
3, 270640, Note_on_c, 8, 69, 49
3, 270694, Note_on_c, 8, 69, 0
3, 270720, Note_on_c, 8, 71, 44
3, 270720, Control_c, 8, 85, 16
3, 270720, Control_c, 8, 86, 16
3, 270800, Note_on_c, 8, 71, 0
3, 270880, Note_on_c, 8, 72, 47
3, 270943, Note_on_c, 8, 72, 0
3, 271040, Note_on_c, 8, 74, 44
3, 271094, Note_on_c, 8, 74, 0
3, 271200, Note_on_c, 8, 76, 39
3, 271259, Note_on_c, 8, 76, 0
3, 271360, Note_on_c, 8, 77, 38
3, 271423, Note_on_c, 8, 77, 0
3, 271465, Control_c, 0, 64, 127
3, 271520, Note_on_c, 8, 79, 38
3, 271586, Note_on_c, 8, 79, 0
3, 271680, Note_on_c, 8, 81, 43
3, 271680, Control_c, 8, 85, 16
3, 271680, Control_c, 8, 86, 16
3, 271739, Note_on_c, 8, 81, 0
3, 271840, Note_on_c, 8, 83, 36
3, 271896, Note_on_c, 8, 83, 0
3, 271920, Note_on_c, 8, 84, 36
3, 271977, Note_on_c, 8, 84, 0
3, 272000, Note_on_c, 8, 86, 40
3, 272060, Note_on_c, 8, 86, 0
3, 272160, Note_on_c, 8, 88, 41
3, 272220, Note_on_c, 8, 88, 0
3, 272320, Note_on_c, 8, 89, 39
3, 272376, Note_on_c, 8, 89, 0
3, 272400, Note_on_c, 8, 91, 35
3, 272458, Note_on_c, 8, 91, 0
3, 272480, Note_on_c, 8, 93, 44
3, 272533, Note_on_c, 8, 93, 0
3, 272640, Control_c, 8, 85, 1
3, 272640, Note_on_c, 8, 95, 40
3, 272692, Note_on_c, 8, 95, 0
3, 272709, Note_on_c, 8, 96, 30
3, 272752, Note_on_c, 8, 98, 68
3, 272761, Note_on_c, 8, 96, 0
3, 272806, Note_on_c, 8, 98, 0
3, 272809, Note_on_c, 8, 100, 68
3, 272813, Note_on_c, 7, 62, 55
3, 272814, Note_on_c, 7, 67, 58
3, 272816, Note_on_c, 7, 56, 58
3, 272873, Control_c, 0, 64, 0
3, 273528, Note_on_c, 7, 67, 0
3, 273587, Note_on_c, 8, 100, 0
3, 273701, Note_on_c, 7, 65, 62
3, 273726, Note_on_c, 8, 98, 70
3, 273897, Control_c, 0, 64, 127
3, 274213, Note_on_c, 8, 98, 0
3, 274251, Note_on_c, 7, 56, 0
3, 274333, Note_on_c, 8, 96, 71
3, 274336, Note_on_c, 7, 56, 40
3, 274379, Control_c, 0, 64, 0
3, 274665, Control_c, 0, 64, 127
3, 274950, Note_on_c, 7, 65, 0
3, 274966, Note_on_c, 8, 96, 0
3, 275251, Note_on_c, 7, 65, 53
3, 275252, Note_on_c, 8, 95, 72
3, 275291, Control_c, 0, 64, 0
3, 275643, Control_c, 0, 64, 127
3, 275645, Note_on_c, 7, 65, 0
3, 275646, Note_on_c, 8, 95, 0
3, 275653, Note_on_c, 8, 94, 56
3, 275683, Note_on_c, 7, 62, 0
3, 275808, Note_on_c, 7, 56, 0
3, 276041, Note_on_c, 8, 94, 0
3, 276179, Note_on_c, 8, 95, 59
3, 276355, Note_on_c, 8, 95, 0
3, 276397, Control_c, 0, 64, 0
3, 276501, Note_on_c, 7, 45, 41
3, 276502, Note_on_c, 7, 52, 38
3, 276517, Note_on_c, 8, 98, 66
3, 276577, Note_on_c, 7, 45, 0
3, 276670, Note_on_c, 7, 52, 0
3, 276689, Note_on_c, 8, 98, 0
3, 277121, Note_on_c, 8, 95, 49
3, 277181, Control_c, 0, 64, 127
3, 277310, Control_c, 0, 64, 0
3, 277325, Note_on_c, 8, 95, 0
3, 277384, Note_on_c, 7, 64, 27
3, 277433, Note_on_c, 7, 60, 29
3, 277449, Note_on_c, 7, 57, 27
3, 277454, Note_on_c, 8, 96, 34
3, 277708, Control_c, 0, 64, 127
3, 277745, Note_on_c, 8, 96, 0
3, 277817, Note_on_c, 7, 60, 0
3, 277883, Note_on_c, 7, 64, 0
3, 278334, Control_c, 0, 64, 0
3, 278381, Note_on_c, 7, 60, 37
3, 278400, Note_on_c, 7, 64, 36
3, 278405, Note_on_c, 8, 96, 89
3, 278413, Note_on_c, 8, 100, 79
3, 278565, Note_on_c, 8, 100, 0
3, 278582, Note_on_c, 8, 96, 0
3, 278645, Note_on_c, 7, 64, 0
3, 278720, Note_on_c, 7, 60, 0
3, 278728, Note_on_c, 8, 98, 47
3, 278731, Note_on_c, 8, 95, 52
3, 278848, Note_on_c, 8, 98, 0
3, 278851, Note_on_c, 8, 95, 0
3, 279035, Note_on_c, 8, 96, 81
3, 279043, Note_on_c, 8, 100, 79
3, 279230, Note_on_c, 8, 100, 0
3, 279262, Note_on_c, 8, 96, 0
3, 279285, Note_on_c, 7, 64, 43
3, 279288, Note_on_c, 7, 60, 37
3, 279333, Note_on_c, 8, 98, 68
3, 279347, Note_on_c, 8, 95, 67
3, 279534, Control_c, 0, 64, 127
3, 279557, Note_on_c, 7, 60, 0
3, 279598, Note_on_c, 7, 57, 0
3, 279627, Note_on_c, 7, 64, 0
3, 279676, Note_on_c, 8, 95, 0
3, 279745, Note_on_c, 8, 98, 0
3, 279921, Note_on_c, 8, 93, 62
3, 279929, Note_on_c, 8, 96, 61
3, 280096, Note_on_c, 8, 93, 0
3, 280118, Note_on_c, 8, 96, 0
3, 280224, Control_c, 0, 64, 0
3, 280248, Note_on_c, 7, 56, 36
3, 280249, Note_on_c, 7, 65, 39
3, 280264, Note_on_c, 7, 62, 32
3, 280273, Note_on_c, 8, 91, 26
3, 280286, Note_on_c, 8, 95, 38
3, 280496, Note_on_c, 8, 95, 0
3, 280511, Note_on_c, 8, 91, 0
3, 280576, Note_on_c, 8, 96, 47
3, 280609, Note_on_c, 8, 93, 52
3, 280657, Note_on_c, 7, 65, 0
3, 280753, Note_on_c, 7, 62, 0
3, 280769, Note_on_c, 8, 96, 0
3, 280777, Note_on_c, 8, 93, 0
3, 280884, Note_on_c, 8, 91, 55
3, 280891, Note_on_c, 8, 95, 71
3, 280904, Note_on_c, 7, 56, 0
3, 281067, Note_on_c, 8, 91, 0
3, 281083, Note_on_c, 8, 95, 0
3, 281201, Note_on_c, 7, 62, 31
3, 281203, Note_on_c, 7, 65, 34
3, 281206, Note_on_c, 7, 56, 49
3, 281216, Note_on_c, 8, 89, 48
3, 281217, Note_on_c, 8, 93, 66
3, 281601, Control_c, 0, 64, 127
3, 281798, Note_on_c, 7, 65, 0
3, 281801, Note_on_c, 7, 62, 0
3, 281867, Note_on_c, 8, 89, 0
3, 282065, Note_on_c, 7, 56, 0
3, 282075, Note_on_c, 8, 93, 0
3, 282195, Control_c, 0, 64, 0
3, 282217, Note_on_c, 8, 91, 47
3, 282227, Note_on_c, 8, 88, 30
3, 282242, Note_on_c, 7, 62, 38
3, 282254, Note_on_c, 7, 65, 31
3, 282273, Note_on_c, 7, 56, 43
3, 282603, Note_on_c, 8, 88, 0
3, 282638, Note_on_c, 8, 91, 0
3, 282693, Note_on_c, 7, 65, 0
3, 282747, Note_on_c, 7, 62, 0
3, 282824, Note_on_c, 7, 56, 0
3, 283190, Note_on_c, 7, 65, 44
3, 283192, Note_on_c, 7, 56, 50
3, 283203, Note_on_c, 7, 62, 50
3, 283408, Note_on_c, 7, 65, 0
3, 283445, Note_on_c, 7, 62, 0
3, 283520, Note_on_c, 7, 56, 0
3, 283833, Note_on_c, 7, 45, 69
3, 283969, Note_on_c, 7, 45, 0
3, 284171, Note_on_c, 8, 60, 49
3, 284173, Note_on_c, 7, 59, 65
3, 284176, Note_on_c, 8, 64, 53
3, 284179, Note_on_c, 8, 71, 44
3, 284201, Note_on_c, 8, 67, 54
3, 284803, Control_c, 0, 64, 127
3, 284889, Note_on_c, 8, 60, 0
3, 284901, Note_on_c, 8, 64, 0
3, 284907, Note_on_c, 8, 67, 0
3, 284923, Note_on_c, 7, 59, 0
3, 285005, Note_on_c, 8, 71, 0
3, 285091, Control_c, 0, 64, 0
3, 285094, Note_on_c, 8, 60, 39
3, 285109, Note_on_c, 8, 64, 41
3, 285115, Note_on_c, 7, 57, 51
3, 285128, Note_on_c, 8, 69, 54
3, 285637, Control_c, 0, 64, 127
3, 285648, Note_on_c, 8, 64, 0
3, 285696, Note_on_c, 8, 60, 0
3, 285840, Note_on_c, 8, 69, 0
3, 286021, Control_c, 0, 64, 0
3, 286038, Note_on_c, 8, 60, 34
3, 286057, Note_on_c, 8, 68, 37
3, 286059, Note_on_c, 7, 57, 0
3, 286075, Note_on_c, 8, 64, 36
3, 286091, Note_on_c, 7, 56, 34
3, 286646, Note_on_c, 8, 60, 0
3, 286650, Note_on_c, 8, 64, 0
3, 286693, Control_c, 0, 64, 127
3, 286694, Note_on_c, 8, 68, 0
3, 286933, Control_c, 0, 64, 0
3, 286987, Note_on_c, 8, 60, 34
3, 286989, Note_on_c, 8, 71, 43
3, 287001, Note_on_c, 8, 64, 35
3, 287005, Note_on_c, 7, 55, 35
3, 287064, Note_on_c, 7, 56, 0
3, 287574, Control_c, 0, 64, 127
3, 287603, Note_on_c, 8, 64, 0
3, 287644, Note_on_c, 8, 60, 0
3, 287769, Note_on_c, 7, 55, 0
3, 287931, Note_on_c, 8, 71, 0
3, 287958, Control_c, 0, 64, 0
3, 287981, Note_on_c, 7, 60, 36
3, 287995, Note_on_c, 8, 64, 32
3, 288006, Note_on_c, 8, 68, 33
3, 288744, Note_on_c, 7, 60, 0
3, 288792, Note_on_c, 8, 64, 0
3, 288835, Note_on_c, 8, 68, 0
3, 288925, Note_on_c, 8, 60, 49
3, 288926, Note_on_c, 7, 57, 83
3, 288931, Note_on_c, 8, 64, 64
3, 288934, Note_on_c, 8, 68, 32
3, 289622, Note_on_c, 8, 60, 0
3, 289657, Note_on_c, 8, 64, 0
3, 289675, Note_on_c, 8, 68, 0
3, 289893, Note_on_c, 8, 60, 39
3, 289904, Note_on_c, 8, 64, 36
3, 289907, Note_on_c, 8, 68, 30
3, 290528, Note_on_c, 8, 60, 0
3, 290545, Note_on_c, 8, 64, 0
3, 290557, Note_on_c, 8, 68, 0
3, 290581, Note_on_c, 7, 56, 59
3, 290609, Note_on_c, 7, 57, 0
3, 290875, Note_on_c, 8, 68, 53
3, 290885, Note_on_c, 8, 60, 53
3, 290886, Note_on_c, 8, 64, 55
3, 290891, Note_on_c, 7, 57, 71
3, 290918, Note_on_c, 7, 56, 0
3, 291264, Note_on_c, 8, 64, 0
3, 291433, Control_c, 0, 64, 127
3, 291438, Note_on_c, 8, 60, 0
3, 291665, Note_on_c, 8, 68, 0
3, 291685, Note_on_c, 7, 57, 0
3, 291801, Control_c, 0, 64, 0
3, 291814, Note_on_c, 8, 61, 60
3, 291835, Note_on_c, 8, 65, 66
3, 291837, Note_on_c, 7, 60, 63
3, 291840, Note_on_c, 8, 69, 66
3, 292539, Control_c, 0, 64, 127
3, 292598, Note_on_c, 8, 69, 0
3, 292600, Note_on_c, 8, 61, 0
3, 292630, Note_on_c, 8, 65, 0
3, 292795, Control_c, 0, 64, 0
3, 292803, Note_on_c, 8, 61, 68
3, 292817, Note_on_c, 7, 60, 0
3, 292821, Note_on_c, 8, 65, 58
3, 292829, Note_on_c, 7, 58, 69
3, 292830, Note_on_c, 8, 69, 66
3, 293456, Note_on_c, 8, 69, 0
3, 293462, Note_on_c, 8, 61, 0
3, 293491, Note_on_c, 8, 65, 0
3, 293789, Note_on_c, 8, 61, 48
3, 293817, Note_on_c, 8, 69, 53
3, 293821, Note_on_c, 8, 65, 44
3, 294265, Note_on_c, 8, 61, 0
3, 294309, Note_on_c, 8, 65, 0
3, 294310, Note_on_c, 8, 69, 0
3, 294390, Note_on_c, 7, 58, 0
3, 294437, Note_on_c, 8, 61, 72
3, 294443, Note_on_c, 7, 57, 87
3, 294451, Note_on_c, 8, 65, 70
3, 294456, Note_on_c, 8, 69, 71
3, 294648, Note_on_c, 8, 61, 0
3, 294697, Note_on_c, 8, 65, 0
3, 294713, Note_on_c, 8, 69, 0
3, 294907, Note_on_c, 8, 61, 20
3, 294907, Note_on_c, 8, 65, 36
3, 295007, Note_on_c, 8, 61, 0
3, 295007, Note_on_c, 8, 65, 0
3, 295416, Note_on_c, 8, 61, 52
3, 295446, Note_on_c, 8, 69, 67
3, 295448, Note_on_c, 8, 65, 67
3, 295467, Note_on_c, 7, 58, 90
3, 295569, Note_on_c, 7, 57, 0
3, 295632, Note_on_c, 8, 61, 0
3, 295635, Note_on_c, 8, 65, 0
3, 295667, Note_on_c, 8, 69, 0
3, 295819, Note_on_c, 8, 61, 31
3, 295854, Note_on_c, 8, 69, 32
3, 295870, Note_on_c, 8, 65, 36
3, 296173, Note_on_c, 8, 65, 0
3, 296179, Note_on_c, 8, 69, 0
3, 296182, Note_on_c, 8, 61, 0
3, 296300, Control_c, 0, 64, 127
3, 296326, Note_on_c, 8, 61, 69
3, 296333, Control_c, 0, 64, 0
3, 296342, Note_on_c, 8, 69, 64
3, 296344, Note_on_c, 8, 65, 69
3, 296365, Note_on_c, 7, 60, 91
3, 296465, Note_on_c, 7, 58, 0
3, 296576, Note_on_c, 8, 61, 0
3, 296595, Note_on_c, 8, 69, 0
3, 296597, Note_on_c, 8, 65, 0
3, 296731, Note_on_c, 8, 61, 30
3, 296774, Note_on_c, 8, 69, 40
3, 296793, Note_on_c, 8, 65, 31
3, 297185, Note_on_c, 8, 61, 0
3, 297193, Note_on_c, 8, 69, 0
3, 297200, Note_on_c, 8, 65, 0
3, 297230, Control_c, 0, 64, 127
3, 297360, Control_c, 0, 64, 0
3, 297550, Note_on_c, 8, 61, 52
3, 297569, Note_on_c, 7, 58, 58
3, 297574, Note_on_c, 8, 65, 55
3, 297576, Note_on_c, 8, 69, 58
3, 297640, Note_on_c, 7, 60, 0
3, 297929, Note_on_c, 8, 61, 0
3, 298094, Control_c, 0, 64, 127
3, 298097, Note_on_c, 8, 69, 0
3, 298104, Note_on_c, 8, 65, 0
3, 298352, Control_c, 0, 64, 0
3, 298507, Note_on_c, 8, 61, 56
3, 298509, Note_on_c, 7, 57, 56
3, 298517, Note_on_c, 8, 69, 57
3, 298537, Note_on_c, 8, 65, 54
3, 298560, Note_on_c, 7, 58, 0
3, 298656, Control_c, 0, 64, 127
3, 298737, Note_on_c, 7, 57, 0
3, 298739, Note_on_c, 8, 69, 0
3, 298830, Note_on_c, 8, 61, 0
3, 298921, Note_on_c, 8, 65, 0
3, 299310, Control_c, 0, 64, 0
3, 299440, Note_on_c, 8, 69, 64
3, 299453, Note_on_c, 8, 60, 42
3, 299456, Note_on_c, 8, 64, 46
3, 299465, Note_on_c, 7, 45, 46
3, 299473, Note_on_c, 7, 55, 38
3, 299566, Control_c, 0, 64, 127
3, 299581, Note_on_c, 8, 60, 0
3, 299593, Note_on_c, 7, 45, 0
3, 299641, Note_on_c, 8, 64, 0
3, 299726, Note_on_c, 7, 55, 0
3, 299728, Note_on_c, 8, 69, 0
3, 300416, Control_c, 0, 64, 0
3, 300486, Note_on_c, 7, 64, 62
3, 300505, Note_on_c, 8, 83, 80
3, 300506, Note_on_c, 7, 60, 43
3, 300517, Note_on_c, 8, 71, 79
3, 300520, Note_on_c, 7, 55, 42
3, 300528, Note_on_c, 7, 59, 51
3, 300672, Control_c, 0, 64, 127
3, 300841, Note_on_c, 7, 55, 0
3, 300864, Note_on_c, 8, 71, 0
3, 300908, Note_on_c, 7, 64, 0
3, 300910, Note_on_c, 7, 59, 0
3, 300918, Note_on_c, 8, 83, 0
3, 300941, Note_on_c, 7, 60, 0
3, 301101, Note_on_c, 7, 60, 55
3, 301102, Note_on_c, 7, 64, 54
3, 301115, Note_on_c, 8, 72, 64
3, 301117, Note_on_c, 8, 84, 72
3, 301131, Note_on_c, 7, 59, 58
3, 301136, Note_on_c, 7, 55, 38
3, 301185, Note_on_c, 7, 59, 0
3, 301198, Note_on_c, 7, 55, 0
3, 301200, Note_on_c, 8, 72, 0
3, 301230, Note_on_c, 8, 84, 0
3, 301233, Note_on_c, 7, 60, 0
3, 301235, Note_on_c, 7, 64, 0
3, 301313, Control_c, 0, 64, 0
3, 301376, Note_on_c, 7, 64, 59
3, 301379, Note_on_c, 7, 60, 62
3, 301403, Note_on_c, 7, 59, 57
3, 301406, Note_on_c, 7, 55, 66
3, 301427, Note_on_c, 8, 88, 75
3, 301433, Note_on_c, 8, 76, 75
3, 301568, Control_c, 0, 64, 127
3, 301685, Note_on_c, 8, 76, 0
3, 301691, Note_on_c, 7, 55, 0
3, 301753, Note_on_c, 8, 88, 0
3, 301779, Note_on_c, 7, 59, 0
3, 301787, Note_on_c, 7, 60, 0
3, 301792, Note_on_c, 7, 64, 0
3, 302019, Note_on_c, 7, 60, 45
3, 302022, Note_on_c, 7, 64, 57
3, 302024, Note_on_c, 7, 59, 61
3, 302037, Note_on_c, 8, 79, 62
3, 302038, Note_on_c, 8, 91, 66
3, 302051, Note_on_c, 7, 55, 48
3, 302107, Note_on_c, 8, 79, 0
3, 302112, Note_on_c, 7, 55, 0
3, 302113, Note_on_c, 7, 64, 0
3, 302139, Note_on_c, 7, 59, 0
3, 302149, Note_on_c, 8, 91, 0
3, 302150, Note_on_c, 7, 60, 0
3, 302241, Control_c, 0, 64, 0
3, 302323, Note_on_c, 7, 60, 54
3, 302334, Note_on_c, 7, 64, 64
3, 302341, Note_on_c, 7, 55, 74
3, 302347, Note_on_c, 7, 59, 59
3, 302373, Note_on_c, 8, 95, 75
3, 302374, Note_on_c, 8, 83, 80
3, 302529, Control_c, 0, 64, 127
3, 302561, Note_on_c, 8, 83, 0
3, 302581, Note_on_c, 8, 95, 0
3, 302646, Note_on_c, 7, 59, 0
3, 302667, Note_on_c, 7, 55, 0
3, 302680, Note_on_c, 7, 60, 0
3, 302737, Note_on_c, 7, 64, 0
3, 303006, Note_on_c, 8, 98, 64
3, 303014, Note_on_c, 7, 60, 63
3, 303017, Note_on_c, 7, 58, 73
3, 303019, Note_on_c, 7, 65, 80
3, 303022, Note_on_c, 7, 54, 71
3, 303035, Note_on_c, 8, 86, 74
3, 303041, Control_c, 0, 64, 0
3, 303056, Note_on_c, 7, 64, 36
3, 303115, Note_on_c, 7, 64, 0
3, 303409, Control_c, 0, 64, 127
3, 304081, Note_on_c, 8, 86, 0
3, 304094, Note_on_c, 8, 98, 0
3, 304125, Note_on_c, 7, 65, 0
3, 304136, Note_on_c, 7, 60, 0
3, 304169, Note_on_c, 7, 58, 0
3, 304171, Note_on_c, 7, 54, 0
3, 305013, Note_on_c, 7, 60, 76
3, 305016, Note_on_c, 7, 54, 81
3, 305017, Note_on_c, 7, 65, 88
3, 305040, Note_on_c, 8, 101, 99
3, 305044, Control_c, 0, 64, 0
3, 305536, Note_on_c, 8, 101, 0
3, 305640, Note_on_c, 8, 99, 74
3, 305958, Note_on_c, 8, 96, 42
3, 305979, Note_on_c, 7, 65, 0
3, 306072, Note_on_c, 8, 99, 0
3, 306177, Note_on_c, 8, 96, 0
3, 306270, Note_on_c, 8, 90, 37
3, 306278, Note_on_c, 7, 65, 60
3, 306467, Note_on_c, 7, 65, 0
3, 306480, Note_on_c, 8, 90, 0
3, 306560, Note_on_c, 8, 89, 53
3, 306589, Note_on_c, 7, 60, 0
3, 306797, Note_on_c, 8, 89, 0
3, 306913, Note_on_c, 8, 87, 65
3, 306959, Note_on_c, 7, 54, 0
3, 307014, Control_c, 0, 64, 127
3, 307117, Note_on_c, 8, 87, 0
3, 307158, Control_c, 0, 64, 0
3, 307230, Note_on_c, 7, 59, 45
3, 307233, Note_on_c, 7, 62, 54
3, 307238, Note_on_c, 8, 86, 36
3, 307307, Note_on_c, 7, 54, 25
3, 307721, Note_on_c, 8, 86, 0
3, 307893, Note_on_c, 8, 90, 61
3, 307920, Note_on_c, 7, 62, 0
3, 308033, Note_on_c, 7, 59, 0
3, 308113, Note_on_c, 8, 90, 0
3, 308171, Note_on_c, 8, 86, 54
3, 308192, Note_on_c, 7, 62, 45
3, 308214, Note_on_c, 7, 59, 36
3, 308569, Note_on_c, 7, 54, 0
3, 308646, Note_on_c, 7, 62, 0
3, 308672, Note_on_c, 8, 86, 0
3, 308755, Note_on_c, 7, 59, 0
3, 308779, Note_on_c, 8, 88, 66
3, 308965, Note_on_c, 8, 88, 0
3, 309053, Note_on_c, 7, 62, 40
3, 309056, Note_on_c, 7, 54, 37
3, 309061, Note_on_c, 7, 59, 34
3, 309113, Note_on_c, 8, 90, 35
3, 309185, Note_on_c, 7, 62, 0
3, 309198, Note_on_c, 7, 59, 0
3, 309257, Note_on_c, 7, 54, 0
3, 309592, Note_on_c, 8, 90, 0
3, 309699, Note_on_c, 7, 50, 53
3, 309701, Note_on_c, 8, 90, 56
3, 309704, Note_on_c, 8, 93, 71
3, 309712, Note_on_c, 8, 81, 63
3, 309713, Note_on_c, 8, 86, 66
3, 309758, Note_on_c, 8, 93, 0
3, 309768, Note_on_c, 8, 86, 0
3, 309784, Note_on_c, 8, 90, 0
3, 309819, Note_on_c, 8, 81, 0
3, 309929, Note_on_c, 7, 50, 0
3, 310078, Note_on_c, 7, 43, 32
3, 310147, Note_on_c, 7, 43, 0
3, 310667, Note_on_c, 8, 62, 64
3, 310675, Note_on_c, 8, 69, 54
3, 310677, Note_on_c, 7, 59, 45
3, 310683, Note_on_c, 8, 66, 50
3, 310685, Note_on_c, 7, 57, 60
3, 310702, Note_on_c, 7, 54, 45
3, 311088, Control_c, 0, 64, 127
3, 311617, Note_on_c, 7, 57, 0
3, 311683, Note_on_c, 7, 59, 0
3, 311694, Note_on_c, 8, 66, 0
3, 311702, Note_on_c, 7, 50, 32
3, 311707, Note_on_c, 8, 62, 0
3, 311713, Note_on_c, 7, 54, 0
3, 311849, Note_on_c, 8, 69, 0
3, 312017, Control_c, 0, 64, 0
3, 312019, Note_on_c, 8, 67, 58
3, 312021, Note_on_c, 7, 59, 37
3, 312024, Note_on_c, 7, 57, 37
3, 312041, Note_on_c, 7, 50, 0
3, 312048, Note_on_c, 8, 66, 31
3, 312049, Note_on_c, 7, 52, 48
3, 312054, Note_on_c, 8, 62, 45
3, 312517, Note_on_c, 7, 57, 0
3, 312529, Note_on_c, 7, 59, 0
3, 312630, Note_on_c, 7, 52, 0
3, 312637, Note_on_c, 8, 62, 0
3, 312661, Note_on_c, 8, 67, 0
3, 312753, Note_on_c, 8, 66, 0
3, 312953, Note_on_c, 8, 62, 49
3, 312958, Note_on_c, 7, 43, 39
3, 312974, Note_on_c, 8, 59, 38
3, 312977, Note_on_c, 8, 57, 42
3, 312987, Note_on_c, 7, 52, 25
3, 313389, Note_on_c, 7, 52, 0
3, 313454, Note_on_c, 8, 57, 0
3, 313485, Note_on_c, 8, 59, 0
3, 313544, Note_on_c, 8, 62, 0
3, 313571, Control_c, 0, 64, 127
3, 313683, Note_on_c, 7, 50, 24
3, 313733, Control_c, 0, 64, 0
3, 313873, Note_on_c, 7, 52, 37
3, 313881, Note_on_c, 7, 50, 0
3, 313886, Note_on_c, 8, 59, 37
3, 313888, Note_on_c, 8, 62, 45
3, 313893, Note_on_c, 8, 64, 39
3, 313899, Note_on_c, 8, 57, 24
3, 314115, Control_c, 0, 64, 127
3, 314134, Note_on_c, 7, 43, 0
3, 314193, Note_on_c, 8, 64, 0
3, 314209, Note_on_c, 8, 62, 0
3, 314265, Note_on_c, 7, 52, 0
3, 314269, Note_on_c, 8, 59, 0
3, 314283, Note_on_c, 8, 57, 0
3, 314789, Control_c, 0, 64, 0
3, 314870, Note_on_c, 8, 56, 50
3, 314883, Note_on_c, 8, 65, 54
3, 314892, Note_on_c, 8, 61, 38
3, 314896, Note_on_c, 8, 60, 50
3, 314909, Note_on_c, 7, 46, 46
3, 315029, Control_c, 0, 64, 127
3, 315112, Note_on_c, 7, 46, 0
3, 315121, Note_on_c, 8, 56, 0
3, 315129, Note_on_c, 8, 60, 0
3, 315174, Note_on_c, 8, 65, 0
3, 315254, Note_on_c, 8, 61, 0
3, 315877, Control_c, 0, 64, 0
3, 315896, Note_on_c, 8, 77, 71
3, 315899, Note_on_c, 7, 61, 42
3, 315907, Note_on_c, 8, 65, 53
3, 315912, Note_on_c, 8, 72, 52
3, 315949, Note_on_c, 7, 60, 36
3, 316117, Control_c, 0, 64, 127
3, 316173, Note_on_c, 8, 65, 0
3, 316174, Note_on_c, 8, 77, 0
3, 316195, Note_on_c, 8, 72, 0
3, 316245, Note_on_c, 7, 61, 0
3, 316259, Note_on_c, 7, 60, 0
3, 316790, Control_c, 0, 64, 0
3, 316840, Note_on_c, 8, 65, 59
3, 316841, Note_on_c, 8, 61, 43
3, 316843, Note_on_c, 7, 60, 43
3, 316851, Note_on_c, 8, 69, 62
3, 316997, Note_on_c, 7, 60, 0
3, 317030, Control_c, 0, 64, 127
3, 317221, Note_on_c, 8, 65, 0
3, 317411, Note_on_c, 8, 61, 0
3, 317475, Note_on_c, 8, 69, 0
3, 317640, Control_c, 0, 64, 0
3, 317750, Note_on_c, 7, 50, 29
3, 317768, Note_on_c, 8, 61, 38
3, 317782, Note_on_c, 8, 65, 47
3, 317846, Control_c, 0, 64, 127
3, 317886, Note_on_c, 7, 50, 0
3, 317925, Note_on_c, 8, 65, 0
3, 317981, Note_on_c, 8, 61, 0
3, 318552, Control_c, 0, 64, 0
3, 318673, Note_on_c, 7, 27, 42
3, 318688, Note_on_c, 7, 39, 31
3, 318693, Note_on_c, 8, 61, 46
3, 318701, Note_on_c, 8, 65, 32
3, 318702, Note_on_c, 8, 55, 37
3, 318788, Note_on_c, 8, 55, 0
3, 318808, Control_c, 0, 64, 127
3, 318833, Note_on_c, 7, 27, 0
3, 318885, Note_on_c, 7, 39, 0
3, 318923, Note_on_c, 8, 61, 0
3, 318961, Note_on_c, 8, 65, 0
3, 319657, Control_c, 0, 64, 0
3, 319677, Note_on_c, 7, 65, 64
3, 319685, Note_on_c, 7, 55, 58
3, 319686, Note_on_c, 7, 61, 55
3, 319701, Note_on_c, 8, 78, 53
3, 319707, Note_on_c, 8, 84, 71
3, 319731, Note_on_c, 8, 72, 48
3, 319776, Note_on_c, 8, 74, 27
3, 319829, Note_on_c, 8, 74, 0
3, 319870, Note_on_c, 8, 78, 0
3, 319993, Control_c, 0, 64, 127
3, 320169, Note_on_c, 8, 84, 0
3, 320217, Note_on_c, 7, 55, 0
3, 320281, Note_on_c, 8, 72, 0
3, 320302, Note_on_c, 7, 65, 0
3, 320377, Note_on_c, 7, 61, 0
3, 320603, Control_c, 0, 64, 0
3, 320678, Note_on_c, 7, 60, 36
3, 320686, Note_on_c, 7, 65, 48
3, 320688, Note_on_c, 8, 82, 61
3, 320699, Note_on_c, 7, 61, 39
3, 320715, Note_on_c, 8, 75, 59
3, 320725, Note_on_c, 7, 55, 25
3, 320728, Note_on_c, 8, 70, 49
3, 320809, Control_c, 0, 64, 127
3, 321125, Note_on_c, 8, 70, 0
3, 321181, Note_on_c, 8, 75, 0
3, 321216, Note_on_c, 7, 65, 0
3, 321233, Note_on_c, 7, 61, 0
3, 321235, Note_on_c, 7, 55, 0
3, 321259, Note_on_c, 8, 82, 0
3, 321278, Note_on_c, 7, 60, 0
3, 321547, Control_c, 0, 64, 0
3, 321605, Note_on_c, 7, 61, 50
3, 321613, Note_on_c, 7, 65, 52
3, 321617, Note_on_c, 8, 85, 59
3, 321622, Note_on_c, 7, 55, 42
3, 321643, Note_on_c, 8, 80, 54
3, 321654, Note_on_c, 8, 73, 39
3, 321856, Note_on_c, 7, 65, 0
3, 321881, Control_c, 0, 64, 127
3, 321973, Note_on_c, 7, 55, 0
3, 322025, Note_on_c, 7, 61, 0
3, 322067, Note_on_c, 8, 80, 0
3, 322238, Note_on_c, 8, 73, 0
3, 322246, Note_on_c, 8, 85, 0
3, 322445, Control_c, 0, 64, 0
3, 322565, Note_on_c, 7, 54, 58
3, 322568, Note_on_c, 8, 86, 64
3, 322574, Note_on_c, 7, 62, 49
3, 322584, Note_on_c, 7, 59, 38
3, 322595, Note_on_c, 8, 74, 49
3, 322600, Note_on_c, 8, 79, 52
3, 322681, Note_on_c, 7, 59, 0
3, 322696, Note_on_c, 8, 86, 0
3, 322697, Note_on_c, 7, 62, 0
3, 322704, Note_on_c, 8, 79, 0
3, 322737, Note_on_c, 8, 74, 0
3, 322774, Note_on_c, 7, 54, 0
3, 323219, Note_on_c, 7, 43, 51
3, 323245, Control_c, 0, 64, 127
3, 323389, Control_c, 0, 64, 0
3, 323512, Note_on_c, 7, 50, 58
3, 323544, Note_on_c, 8, 55, 54
3, 323549, Note_on_c, 8, 62, 60
3, 323568, Note_on_c, 8, 59, 47
3, 324125, Control_c, 0, 64, 127
3, 324208, Note_on_c, 8, 55, 0
3, 324232, Note_on_c, 8, 59, 0
3, 324349, Note_on_c, 8, 62, 0
3, 324398, Control_c, 0, 64, 0
3, 324448, Note_on_c, 8, 55, 64
3, 324449, Note_on_c, 8, 64, 58
3, 324459, Note_on_c, 8, 52, 64
3, 324467, Note_on_c, 8, 59, 57
3, 324470, Note_on_c, 7, 50, 0
3, 324797, Control_c, 0, 64, 127
3, 325006, Note_on_c, 8, 55, 0
3, 325017, Note_on_c, 8, 59, 0
3, 325046, Note_on_c, 8, 52, 0
3, 325208, Note_on_c, 7, 50, 46
3, 325211, Note_on_c, 7, 43, 0
3, 325246, Note_on_c, 8, 64, 0
3, 325390, Control_c, 0, 64, 0
3, 325392, Note_on_c, 7, 50, 0
3, 325405, Note_on_c, 7, 54, 74
3, 325422, Note_on_c, 8, 59, 72
3, 325429, Note_on_c, 8, 62, 67
3, 325430, Note_on_c, 8, 55, 74
3, 325435, Note_on_c, 8, 66, 58
3, 325822, Control_c, 0, 64, 127
3, 325843, Note_on_c, 8, 55, 0
3, 325849, Note_on_c, 8, 59, 0
3, 325856, Note_on_c, 8, 62, 0
3, 325957, Note_on_c, 8, 66, 0
3, 326136, Note_on_c, 7, 51, 25
3, 326217, Note_on_c, 7, 52, 29
3, 326221, Note_on_c, 7, 53, 28
3, 326315, Note_on_c, 7, 55, 76
3, 326317, Note_on_c, 7, 51, 0
3, 326329, Note_on_c, 7, 52, 0
3, 326352, Control_c, 0, 64, 0
3, 326368, Note_on_c, 7, 53, 0
3, 326384, Note_on_c, 8, 69, 73
3, 326387, Note_on_c, 8, 66, 62
3, 326389, Note_on_c, 8, 62, 75
3, 326390, Note_on_c, 8, 59, 75
3, 326392, Note_on_c, 7, 57, 80
3, 326441, Note_on_c, 7, 55, 0
3, 326486, Note_on_c, 7, 54, 0
3, 326976, Control_c, 0, 64, 127
3, 327086, Note_on_c, 8, 62, 0
3, 327117, Note_on_c, 8, 59, 0
3, 327153, Note_on_c, 8, 66, 0
3, 327229, Note_on_c, 8, 69, 0
3, 327297, Control_c, 0, 64, 0
3, 327345, Note_on_c, 8, 59, 58
3, 327349, Note_on_c, 8, 67, 56
3, 327350, Note_on_c, 8, 62, 59
3, 327393, Note_on_c, 7, 55, 61
3, 327448, Note_on_c, 7, 57, 0
3, 327632, Control_c, 0, 64, 127
3, 327646, Note_on_c, 7, 55, 0
3, 327937, Note_on_c, 8, 67, 0
3, 327947, Note_on_c, 8, 59, 0
3, 328043, Note_on_c, 8, 62, 0
3, 328289, Control_c, 0, 64, 0
3, 328293, Note_on_c, 7, 50, 48
3, 328305, Note_on_c, 8, 59, 50
3, 328307, Note_on_c, 8, 62, 44
3, 328785, Control_c, 0, 64, 127
3, 328926, Note_on_c, 8, 59, 0
3, 329035, Note_on_c, 8, 62, 0
3, 329102, Note_on_c, 7, 50, 0
3, 329121, Control_c, 0, 64, 0
3, 329195, Note_on_c, 7, 51, 51
3, 329209, Note_on_c, 8, 59, 48
3, 329223, Note_on_c, 8, 64, 44
3, 329230, Note_on_c, 8, 62, 36
3, 329493, Note_on_c, 7, 51, 0
3, 329585, Control_c, 0, 64, 127
3, 329889, Note_on_c, 8, 62, 0
3, 329912, Note_on_c, 8, 59, 0
3, 330152, Note_on_c, 8, 64, 0
3, 330211, Control_c, 0, 64, 0
3, 330212, Note_on_c, 7, 52, 38
3, 330221, Note_on_c, 8, 66, 48
3, 330231, Note_on_c, 8, 62, 47
3, 330237, Note_on_c, 8, 57, 46
3, 330654, Note_on_c, 8, 57, 0
3, 330803, Control_c, 0, 64, 127
3, 330854, Note_on_c, 8, 62, 0
3, 331011, Note_on_c, 8, 66, 0
3, 331102, Note_on_c, 7, 52, 0
3, 331105, Note_on_c, 7, 47, 29
3, 331195, Note_on_c, 7, 47, 0
3, 332180, Note_on_c, 8, 64, 40
3, 332203, Note_on_c, 8, 62, 39
3, 332232, Note_on_c, 7, 57, 26
3, 332243, Control_c, 0, 64, 0
3, 332749, Note_on_c, 8, 69, 67
3, 332889, Note_on_c, 8, 69, 0
3, 333187, Note_on_c, 8, 74, 75
3, 333317, Note_on_c, 8, 74, 0
3, 333635, Note_on_c, 7, 57, 0
3, 333670, Note_on_c, 8, 76, 81
3, 333701, Note_on_c, 8, 64, 0
3, 333720, Note_on_c, 8, 62, 0
3, 333958, Control_c, 0, 64, 127
3, 334054, Control_c, 0, 64, 0
3, 334094, Note_on_c, 7, 62, 37
3, 334112, Note_on_c, 7, 56, 32
3, 334117, Note_on_c, 7, 67, 33
3, 334537, Note_on_c, 8, 76, 0
3, 334565, Note_on_c, 8, 74, 56
3, 334761, Note_on_c, 8, 74, 0
3, 334998, Note_on_c, 8, 88, 81
3, 335333, Note_on_c, 8, 88, 0
3, 335376, Note_on_c, 7, 67, 0
3, 335502, Note_on_c, 8, 76, 52
3, 335636, Note_on_c, 7, 56, 0
3, 335688, Control_c, 0, 64, 127
3, 335771, Note_on_c, 7, 62, 0
3, 335896, Control_c, 0, 64, 0
3, 335933, Note_on_c, 8, 80, 70
3, 335942, Note_on_c, 7, 65, 46
3, 336011, Note_on_c, 7, 62, 28
3, 336241, Note_on_c, 8, 76, 0
3, 336374, Note_on_c, 8, 80, 0
3, 336401, Note_on_c, 8, 88, 69
3, 336600, Note_on_c, 8, 88, 0
3, 336851, Note_on_c, 8, 74, 35
3, 336873, Note_on_c, 7, 56, 45
3, 336912, Note_on_c, 7, 65, 0
3, 336952, Note_on_c, 7, 62, 0
3, 337120, Note_on_c, 7, 56, 0
3, 337295, Note_on_c, 8, 74, 0
3, 337353, Control_c, 0, 64, 127
3, 337374, Note_on_c, 8, 72, 39
3, 337390, Note_on_c, 8, 71, 47
3, 337446, Note_on_c, 8, 71, 0
3, 337587, Note_on_c, 7, 52, 16
3, 337753, Control_c, 0, 64, 0
3, 337755, Note_on_c, 7, 52, 0
3, 337765, Note_on_c, 8, 72, 0
3, 337840, Note_on_c, 7, 45, 42
3, 337856, Note_on_c, 7, 55, 27
3, 337959, Control_c, 0, 64, 127
3, 337961, Note_on_c, 7, 45, 0
3, 338097, Note_on_c, 7, 55, 0
3, 338567, Note_on_c, 8, 76, 74
3, 338579, Note_on_c, 8, 72, 67
3, 338870, Note_on_c, 7, 64, 32
3, 338899, Note_on_c, 7, 57, 36
3, 338905, Control_c, 0, 64, 0
3, 338925, Note_on_c, 7, 60, 30
3, 339177, Note_on_c, 8, 76, 0
3, 339201, Note_on_c, 8, 72, 0
3, 339237, Note_on_c, 8, 77, 64
3, 339273, Note_on_c, 8, 74, 37
3, 339305, Note_on_c, 7, 60, 0
3, 339317, Note_on_c, 7, 64, 0
3, 339382, Note_on_c, 8, 74, 0
3, 339441, Note_on_c, 8, 77, 0
3, 339523, Note_on_c, 8, 72, 49
3, 339542, Note_on_c, 8, 76, 65
3, 339563, Control_c, 0, 64, 127
3, 339611, Note_on_c, 8, 72, 0
3, 339669, Note_on_c, 8, 76, 0
3, 339819, Control_c, 0, 64, 0
3, 339868, Note_on_c, 7, 64, 42
3, 339885, Note_on_c, 8, 84, 79
3, 339888, Note_on_c, 7, 60, 43
3, 340321, Note_on_c, 8, 84, 0
3, 340363, Control_c, 0, 64, 127
3, 340365, Note_on_c, 7, 64, 0
3, 340472, Note_on_c, 7, 60, 0
3, 340613, Note_on_c, 7, 57, 0
3, 340749, Control_c, 0, 64, 0
3, 340822, Note_on_c, 7, 64, 28
3, 340824, Note_on_c, 8, 72, 47
3, 340856, Note_on_c, 7, 55, 24
3, 340901, Note_on_c, 7, 64, 0
3, 340958, Note_on_c, 7, 55, 0
3, 341035, Control_c, 0, 64, 127
3, 341424, Note_on_c, 8, 72, 0
3, 341694, Control_c, 0, 64, 0
3, 341764, Note_on_c, 7, 40, 49
3, 341909, Note_on_c, 7, 40, 0
3, 341997, Control_c, 0, 64, 127
3, 342781, Control_c, 0, 64, 0
3, 342785, Note_on_c, 8, 67, 58
3, 342795, Note_on_c, 7, 56, 48
3, 342803, Note_on_c, 7, 62, 57
3, 342819, Note_on_c, 8, 72, 67
3, 342830, Note_on_c, 8, 76, 71
3, 342973, Note_on_c, 8, 67, 0
3, 343017, Note_on_c, 8, 72, 0
3, 343030, Note_on_c, 8, 76, 0
3, 343110, Note_on_c, 8, 77, 71
3, 343147, Note_on_c, 8, 74, 58
3, 343259, Note_on_c, 8, 74, 0
3, 343312, Note_on_c, 8, 77, 0
3, 343398, Note_on_c, 8, 72, 67
3, 343413, Note_on_c, 7, 62, 0
3, 343425, Note_on_c, 8, 76, 68
3, 343502, Control_c, 0, 64, 127
3, 343523, Note_on_c, 8, 72, 0
3, 343560, Note_on_c, 8, 76, 0
3, 343614, Control_c, 0, 64, 0
3, 343717, Note_on_c, 7, 62, 54
3, 343733, Note_on_c, 7, 67, 37
3, 343822, Note_on_c, 7, 67, 0
3, 344057, Note_on_c, 8, 83, 76
3, 344078, Note_on_c, 8, 71, 76
3, 344110, Note_on_c, 8, 82, 42
3, 344163, Note_on_c, 8, 82, 0
3, 344208, Control_c, 0, 64, 127
3, 344421, Note_on_c, 8, 71, 0
3, 344425, Note_on_c, 7, 62, 0
3, 344465, Note_on_c, 8, 83, 0
3, 344543, Control_c, 0, 64, 0
3, 344665, Note_on_c, 8, 84, 83
3, 344667, Note_on_c, 7, 67, 56
3, 344669, Note_on_c, 8, 72, 80
3, 344670, Note_on_c, 7, 62, 55
3, 344768, Note_on_c, 7, 67, 0
3, 344803, Control_c, 0, 64, 127
3, 344881, Note_on_c, 7, 62, 0
3, 344918, Note_on_c, 8, 72, 0
3, 344929, Note_on_c, 8, 84, 0
3, 344968, Note_on_c, 7, 56, 0
3, 345281, Note_on_c, 8, 86, 84
3, 345283, Note_on_c, 8, 74, 84
3, 345512, Note_on_c, 8, 86, 0
3, 345518, Note_on_c, 8, 74, 0
3, 345541, Control_c, 0, 64, 0
3, 345555, Note_on_c, 7, 52, 57
3, 345566, Note_on_c, 7, 45, 58
3, 345816, Note_on_c, 7, 45, 0
3, 345893, Note_on_c, 7, 52, 0
3, 345899, Note_on_c, 8, 87, 60
3, 345923, Note_on_c, 7, 75, 70
3, 345961, Note_on_c, 8, 81, 46
3, 346003, Note_on_c, 8, 84, 31
3, 346088, Note_on_c, 7, 75, 0
3, 346094, Note_on_c, 8, 87, 0
3, 346117, Note_on_c, 8, 88, 29
3, 346125, Note_on_c, 7, 76, 48
3, 346133, Control_c, 0, 64, 127
3, 346193, Note_on_c, 8, 88, 0
3, 346203, Note_on_c, 8, 84, 0
3, 346217, Note_on_c, 8, 81, 0
3, 346317, Note_on_c, 7, 76, 0
3, 346358, Note_on_c, 8, 84, 52
3, 346363, Note_on_c, 8, 88, 30
3, 346438, Note_on_c, 8, 76, 50
3, 346439, Note_on_c, 8, 88, 0
3, 346472, Note_on_c, 8, 84, 0
3, 346550, Control_c, 0, 64, 0
3, 346569, Note_on_c, 7, 64, 36
3, 346587, Note_on_c, 7, 57, 33
3, 346616, Note_on_c, 7, 60, 22
3, 346617, Note_on_c, 8, 76, 0
3, 346619, Note_on_c, 8, 88, 30
3, 346649, Note_on_c, 8, 84, 39
3, 346723, Note_on_c, 8, 84, 0
3, 346742, Note_on_c, 8, 76, 48
3, 346761, Note_on_c, 8, 88, 0
3, 346909, Note_on_c, 8, 76, 0
3, 346928, Note_on_c, 7, 60, 0
3, 346974, Note_on_c, 7, 64, 0
3, 347269, Note_on_c, 7, 57, 0
3, 347557, Note_on_c, 7, 64, 49
3, 347569, Note_on_c, 7, 60, 38
3, 347638, Control_c, 0, 64, 127
3, 348165, Note_on_c, 7, 64, 0
3, 348176, Note_on_c, 8, 88, 81
3, 348181, Note_on_c, 8, 76, 90
3, 348190, Note_on_c, 8, 84, 74
3, 348214, Note_on_c, 8, 86, 44
3, 348261, Note_on_c, 7, 60, 0
3, 348280, Note_on_c, 8, 86, 0
3, 348312, Note_on_c, 8, 84, 0
3, 348321, Note_on_c, 8, 88, 0
3, 348331, Note_on_c, 8, 76, 0
3, 348472, Control_c, 0, 64, 0
3, 348485, Note_on_c, 7, 64, 36
3, 348513, Note_on_c, 7, 60, 24
3, 348525, Note_on_c, 7, 57, 32
3, 348565, Note_on_c, 8, 84, 57
3, 348571, Note_on_c, 8, 72, 63
3, 348739, Note_on_c, 7, 60, 0
3, 348753, Note_on_c, 7, 57, 0
3, 348814, Note_on_c, 8, 72, 0
3, 348835, Note_on_c, 8, 84, 0
3, 348878, Note_on_c, 7, 64, 0
3, 349141, Note_on_c, 8, 86, 79
3, 349169, Note_on_c, 8, 74, 73
3, 349304, Control_c, 0, 64, 127
3, 349331, Note_on_c, 8, 86, 0
3, 349365, Note_on_c, 8, 74, 0
3, 349528, Control_c, 0, 64, 0
3, 349819, Note_on_c, 8, 78, 61
3, 349822, Note_on_c, 8, 71, 76
3, 349833, Note_on_c, 8, 83, 66
3, 349885, Note_on_c, 7, 67, 61
3, 349905, Note_on_c, 7, 58, 32
3, 349928, Note_on_c, 7, 63, 25
3, 350016, Note_on_c, 8, 79, 30
3, 350072, Note_on_c, 8, 78, 0
3, 350089, Note_on_c, 7, 67, 0
3, 350093, Note_on_c, 7, 58, 0
3, 350110, Note_on_c, 8, 71, 0
3, 350166, Note_on_c, 7, 63, 0
3, 350174, Note_on_c, 8, 83, 0
3, 350176, Note_on_c, 8, 79, 0
3, 350440, Note_on_c, 8, 71, 75
3, 350441, Note_on_c, 8, 78, 61
3, 350454, Note_on_c, 8, 83, 59
3, 350456, Note_on_c, 7, 67, 60
3, 350462, Note_on_c, 7, 63, 50
3, 350470, Note_on_c, 7, 62, 43
3, 350478, Note_on_c, 7, 58, 39
3, 350608, Note_on_c, 8, 79, 41
3, 350625, Note_on_c, 8, 78, 0
3, 350693, Note_on_c, 7, 58, 0
3, 350761, Note_on_c, 8, 71, 0
3, 350768, Note_on_c, 7, 63, 0
3, 350771, Note_on_c, 7, 67, 0
3, 350779, Note_on_c, 8, 79, 0
3, 350814, Note_on_c, 7, 62, 0
3, 350816, Note_on_c, 8, 83, 0
3, 350857, Control_c, 0, 64, 127
3, 351033, Control_c, 0, 64, 0
3, 351065, Note_on_c, 8, 78, 61
3, 351069, Note_on_c, 8, 71, 75
3, 351088, Note_on_c, 7, 58, 55
3, 351089, Note_on_c, 8, 83, 57
3, 351094, Note_on_c, 7, 63, 50
3, 351099, Note_on_c, 7, 67, 53
3, 351107, Note_on_c, 7, 62, 39
3, 351248, Note_on_c, 8, 79, 36
3, 351331, Note_on_c, 7, 58, 0
3, 351365, Note_on_c, 8, 78, 0
3, 351385, Note_on_c, 8, 83, 0
3, 351395, Note_on_c, 8, 71, 0
3, 351405, Note_on_c, 7, 67, 0
3, 351470, Note_on_c, 8, 79, 0
3, 351473, Note_on_c, 7, 63, 0
3, 351545, Note_on_c, 7, 62, 0
3, 351661, Note_on_c, 8, 82, 69
3, 351662, Note_on_c, 7, 62, 22
3, 351670, Note_on_c, 7, 70, 71
3, 351680, Note_on_c, 7, 67, 57
3, 351683, Note_on_c, 7, 63, 38
3, 351702, Note_on_c, 8, 79, 53
3, 351707, Control_c, 0, 64, 127
3, 351913, Note_on_c, 7, 62, 0
3, 351965, Note_on_c, 8, 79, 0
3, 351973, Note_on_c, 7, 67, 0
3, 352065, Note_on_c, 7, 70, 0
3, 352081, Note_on_c, 8, 82, 0
3, 352094, Note_on_c, 7, 63, 0
3, 352203, Control_c, 0, 64, 0
3, 352265, Note_on_c, 7, 63, 50
3, 352286, Note_on_c, 7, 57, 56
3, 352294, Note_on_c, 8, 81, 71
3, 352310, Note_on_c, 7, 69, 64
3, 352438, Note_on_c, 8, 81, 0
3, 352443, Note_on_c, 7, 63, 0
3, 352489, Control_c, 0, 64, 127
3, 352537, Note_on_c, 7, 69, 0
3, 352539, Note_on_c, 7, 57, 0
3, 353197, Control_c, 0, 64, 0
3, 353277, Note_on_c, 7, 47, 50
3, 353281, Note_on_c, 8, 66, 49
3, 353294, Note_on_c, 7, 57, 36
3, 353310, Note_on_c, 8, 62, 38
3, 353643, Control_c, 0, 64, 127
3, 353753, Note_on_c, 7, 47, 0
3, 353779, Note_on_c, 8, 66, 0
3, 353801, Note_on_c, 7, 57, 0
3, 353875, Note_on_c, 7, 57, 27
3, 353883, Note_on_c, 8, 67, 63
3, 353909, Note_on_c, 7, 47, 44
3, 354081, Note_on_c, 7, 47, 0
3, 354101, Note_on_c, 8, 67, 0
3, 354113, Note_on_c, 7, 57, 0
3, 354205, Control_c, 0, 64, 0
3, 354235, Note_on_c, 8, 66, 45
3, 354243, Note_on_c, 7, 47, 35
3, 354259, Note_on_c, 7, 57, 27
3, 354409, Note_on_c, 7, 47, 0
3, 354446, Note_on_c, 7, 57, 0
3, 354566, Note_on_c, 8, 62, 0
3, 354589, Control_c, 0, 64, 127
3, 354669, Note_on_c, 8, 66, 0
3, 355084, Control_c, 0, 64, 0
3, 355169, Note_on_c, 7, 46, 30
3, 355173, Note_on_c, 7, 34, 39
3, 355177, Note_on_c, 8, 56, 37
3, 355183, Note_on_c, 8, 65, 44
3, 355192, Note_on_c, 8, 61, 44
3, 355646, Note_on_c, 8, 65, 0
3, 355669, Note_on_c, 7, 46, 0
3, 355686, Note_on_c, 8, 56, 0
3, 355774, Control_c, 0, 64, 127
3, 355803, Note_on_c, 7, 46, 36
3, 355805, Note_on_c, 8, 56, 28
3, 355808, Note_on_c, 8, 67, 48
3, 356037, Note_on_c, 8, 67, 0
3, 356043, Note_on_c, 7, 34, 0
3, 356051, Note_on_c, 7, 46, 0
3, 356053, Note_on_c, 8, 56, 0
3, 356113, Control_c, 0, 64, 0
3, 356118, Note_on_c, 8, 61, 0
3, 356168, Note_on_c, 7, 46, 21
3, 356173, Note_on_c, 7, 34, 39
3, 356189, Note_on_c, 8, 65, 44
3, 356190, Note_on_c, 8, 56, 34
3, 356197, Note_on_c, 8, 61, 20
3, 356371, Note_on_c, 8, 65, 0
3, 356467, Note_on_c, 7, 46, 0
3, 356513, Control_c, 0, 64, 127
3, 356517, Note_on_c, 8, 56, 0
3, 356598, Note_on_c, 8, 61, 0
3, 356617, Note_on_c, 7, 34, 0
3, 356835, Control_c, 0, 64, 0
3, 356849, Note_on_c, 8, 64, 46
3, 356851, Note_on_c, 7, 45, 47
3, 356861, Note_on_c, 8, 55, 47
3, 356869, Note_on_c, 7, 33, 46
3, 356923, Note_on_c, 8, 60, 31
3, 357254, Control_c, 0, 64, 127
3, 357539, Note_on_c, 7, 45, 0
3, 357663, Note_on_c, 7, 33, 0
3, 357878, Note_on_c, 8, 55, 0
3, 357995, Note_on_c, 8, 60, 0
3, 358011, Note_on_c, 8, 64, 0
3, 359112, Control_c, 0, 64, 0
3, 359133, Note_on_c, 7, 38, 66
3, 359140, Note_on_c, 7, 26, 68
3, 359155, Note_on_c, 8, 71, 83
3, 359158, Note_on_c, 8, 66, 75
3, 359160, Note_on_c, 8, 63, 84
3, 359173, Note_on_c, 8, 60, 74
3, 359182, Note_on_c, 8, 59, 72
3, 359237, Note_on_c, 8, 59, 0
3, 359261, Note_on_c, 8, 60, 0
3, 359349, Note_on_c, 7, 26, 0
3, 359361, Note_on_c, 8, 71, 0
3, 359365, Note_on_c, 7, 38, 0
3, 359366, Note_on_c, 8, 63, 0
3, 359390, Note_on_c, 8, 66, 0
3, 359827, Note_on_c, 8, 62, 68
3, 360036, Note_on_c, 8, 62, 0
3, 360153, Note_on_c, 8, 64, 58
3, 360304, Note_on_c, 8, 64, 0
3, 360798, Note_on_c, 8, 67, 94
3, 361705, Note_on_c, 7, 59, 52
3, 361723, Note_on_c, 8, 64, 35
3, 361781, Note_on_c, 7, 49, 28
3, 361899, Note_on_c, 8, 67, 0
3, 361901, Note_on_c, 7, 59, 0
3, 362027, Note_on_c, 7, 49, 0
3, 362110, Note_on_c, 8, 64, 0
3, 362125, Note_on_c, 7, 58, 52
3, 362149, Note_on_c, 8, 63, 52
3, 362173, Note_on_c, 7, 48, 44
3, 362417, Note_on_c, 7, 48, 0
3, 362549, Note_on_c, 8, 63, 0
3, 362550, Note_on_c, 7, 58, 0
3, 362648, Note_on_c, 8, 67, 1
3, 362678, Note_on_c, 7, 57, 36
3, 362681, Note_on_c, 7, 47, 37
3, 362683, Note_on_c, 8, 62, 49
3, 362873, Note_on_c, 7, 57, 0
3, 362915, Note_on_c, 7, 47, 0
3, 362918, Note_on_c, 8, 62, 0
3, 363075, Note_on_c, 8, 67, 0
3, 363203, Note_on_c, 7, 56, 40
3, 363206, Note_on_c, 8, 61, 50
3, 363216, Note_on_c, 7, 46, 44
3, 363465, Note_on_c, 7, 46, 0
3, 363510, Note_on_c, 8, 61, 0
3, 363525, Note_on_c, 7, 56, 0
3, 363918, Note_on_c, 8, 60, 45
3, 363921, Note_on_c, 7, 55, 38
3, 363936, Note_on_c, 7, 45, 48
3, 364209, Note_on_c, 7, 45, 0
3, 364285, Note_on_c, 8, 60, 0
3, 364297, Note_on_c, 7, 55, 0
3, 364861, Note_on_c, 7, 32, 43
3, 364867, Note_on_c, 7, 44, 34
3, 364869, Note_on_c, 8, 54, 42
3, 364870, Note_on_c, 8, 59, 53
3, 365491, Control_c, 0, 64, 127
3, 365883, Note_on_c, 8, 59, 0
3, 366057, Note_on_c, 7, 44, 0
3, 366072, Note_on_c, 8, 54, 0
3, 366253, Note_on_c, 7, 32, 0
3, 366397, Note_on_c, 8, 61, 60
3, 366398, Note_on_c, 8, 53, 42
3, 366421, Note_on_c, 7, 43, 36
3, 366435, Control_c, 0, 64, 0
3, 366438, Note_on_c, 8, 59, 42
3, 366441, Note_on_c, 7, 31, 36
3, 367203, Control_c, 0, 64, 127
3, 367357, Note_on_c, 8, 61, 0
3, 367672, Note_on_c, 8, 53, 0
3, 367718, Note_on_c, 8, 59, 0
3, 368209, Note_on_c, 7, 31, 0
3, 368344, Note_on_c, 7, 43, 0
3, 369733, Control_c, 0, 64, 0
3, 369733, End_track
0, 0, End_of_file
