0, 0, Header, 1, 5, 960
1, 0, Start_track
1, 0, Title_t, "Out of Nowhere - 3"
1, 0, Text_t, "dougmck@pipeline.com.au\012"
1, 0, Text_t, "Played in Real Time\012"
1, 0, Time_signature, 4, 2, 24, 8
1, 0, Key_signature, 1, "major"
1, 0, Tempo, 428571
1, 0, Marker_t, "Simulated Bass in LH plays mainly in '2'"
1, 57600, Marker_t, "D triad with Ab Bass note"
1, 103793, Marker_t, "Fairly easy to master descending run on F9 chord"
1, 118821, Marker_t, "Ab triad with D as Bass note"
1, 211412, Marker_t, "Notes of C Triad used over E7 chord"
1, 211412, End_track
2, 0, Start_track
2, 0, End_track
3, 0, Start_track
3, 0, Note_on_c, 0, 49, 25
3, 88, Note_on_c, 0, 49, 0
3, 94, Note_on_c, 0, 50, 42
3, 134, Note_on_c, 0, 62, 50
3, 580, Note_on_c, 0, 62, 0
3, 712, Note_on_c, 0, 64, 47
3, 834, Note_on_c, 0, 64, 0
3, 1070, Note_on_c, 0, 66, 50
3, 1284, Note_on_c, 0, 66, 0
3, 1956, Note_on_c, 0, 69, 76
3, 2518, Note_on_c, 0, 69, 0
3, 2688, Note_on_c, 0, 66, 35
3, 2854, Note_on_c, 0, 66, 0
3, 2956, Note_on_c, 0, 67, 57
3, 3386, Note_on_c, 0, 67, 0
3, 3772, Note_on_c, 0, 50, 0
3, 3810, Note_on_c, 0, 43, 28
3, 4530, Note_on_c, 0, 62, 65
3, 4606, Note_on_c, 0, 62, 0
3, 5502, Note_on_c, 0, 50, 38
3, 5684, Note_on_c, 0, 50, 0
3, 6462, Note_on_c, 0, 62, 71
3, 6628, Note_on_c, 0, 62, 0
3, 6690, Note_on_c, 0, 43, 0
3, 7122, Note_on_c, 0, 63, 35
3, 7214, Note_on_c, 0, 63, 0
3, 7410, Note_on_c, 0, 64, 62
3, 7578, Note_on_c, 0, 64, 0
3, 7756, Note_on_c, 0, 56, 29
3, 7764, Note_on_c, 0, 65, 71
3, 7774, Note_on_c, 0, 46, 26
3, 9451, Note_on_c, 0, 56, 0
3, 9609, Note_on_c, 0, 65, 0
3, 9765, Note_on_c, 0, 65, 65
3, 9795, Note_on_c, 0, 56, 34
3, 10509, Control_c, 0, 64, 127
3, 10933, Note_on_c, 0, 65, 0
3, 11037, Note_on_c, 0, 46, 0
3, 11079, Note_on_c, 0, 56, 0
3, 11653, Control_c, 0, 64, 0
3, 11683, Note_on_c, 0, 65, 45
3, 11685, Note_on_c, 0, 72, 38
3, 11721, Note_on_c, 0, 61, 34
3, 11725, Note_on_c, 0, 60, 32
3, 11739, Note_on_c, 0, 69, 41
3, 12677, Control_c, 0, 64, 127
3, 13055, Note_on_c, 0, 65, 0
3, 13067, Note_on_c, 0, 72, 0
3, 13071, Note_on_c, 0, 61, 0
3, 13095, Note_on_c, 0, 69, 0
3, 13397, Note_on_c, 0, 60, 0
3, 13457, Control_c, 0, 64, 0
3, 13535, Note_on_c, 0, 70, 46
3, 13539, Note_on_c, 0, 61, 36
3, 13555, Note_on_c, 0, 58, 35
3, 13627, Note_on_c, 0, 65, 30
3, 13777, Control_c, 0, 64, 127
3, 13949, Note_on_c, 0, 58, 0
3, 14409, Note_on_c, 0, 65, 0
3, 14433, Note_on_c, 0, 70, 0
3, 14551, Note_on_c, 0, 61, 0
3, 15087, Note_on_c, 0, 50, 27
3, 15381, Control_c, 0, 64, 0
3, 15423, Note_on_c, 0, 43, 28
3, 15445, Note_on_c, 0, 57, 20
3, 15459, Note_on_c, 0, 62, 27
3, 15461, Note_on_c, 0, 50, 0
3, 15467, Note_on_c, 0, 59, 24
3, 15471, Note_on_c, 0, 54, 18
3, 15687, Note_on_c, 0, 57, 0
3, 15727, Note_on_c, 0, 59, 0
3, 15835, Note_on_c, 0, 62, 0
3, 15883, Note_on_c, 0, 54, 0
3, 16109, Note_on_c, 0, 62, 42
3, 16299, Note_on_c, 0, 62, 0
3, 16337, Note_on_c, 0, 50, 5
3, 17063, Note_on_c, 0, 64, 70
3, 17229, Note_on_c, 0, 64, 0
3, 17945, Note_on_c, 0, 66, 57
3, 17969, Note_on_c, 0, 43, 0
3, 18129, Note_on_c, 0, 66, 0
3, 18853, Note_on_c, 0, 69, 54
3, 18871, Note_on_c, 0, 62, 56
3, 18873, Note_on_c, 0, 50, 0
3, 18885, Note_on_c, 0, 66, 35
3, 18887, Note_on_c, 0, 59, 44
3, 18911, Note_on_c, 0, 57, 49
3, 19887, Note_on_c, 0, 57, 0
3, 19941, Note_on_c, 0, 59, 0
3, 20035, Note_on_c, 0, 69, 0
3, 20055, Note_on_c, 0, 62, 0
3, 20105, Note_on_c, 0, 66, 0
3, 20149, Note_on_c, 0, 59, 50
3, 20163, Note_on_c, 0, 55, 47
3, 20173, Note_on_c, 0, 62, 17
3, 20227, Note_on_c, 0, 67, 39
3, 21379, Note_on_c, 0, 62, 0
3, 21469, Note_on_c, 0, 59, 0
3, 21709, Note_on_c, 0, 67, 0
3, 21719, Note_on_c, 0, 55, 0
3, 21795, Note_on_c, 0, 50, 40
3, 21817, Note_on_c, 0, 59, 32
3, 21829, Note_on_c, 0, 62, 27
3, 21997, Note_on_c, 0, 59, 0
3, 22129, Note_on_c, 0, 50, 0
3, 22185, Note_on_c, 0, 52, 22
3, 22215, Note_on_c, 0, 64, 20
3, 22231, Note_on_c, 0, 59, 9
3, 22263, Note_on_c, 0, 62, 0
3, 22389, Note_on_c, 0, 59, 0
3, 22441, Control_c, 0, 64, 127
3, 22627, Note_on_c, 0, 64, 0
3, 22741, Control_c, 0, 64, 0
3, 22763, Note_on_c, 0, 52, 0
3, 22825, Note_on_c, 0, 62, 58
3, 22847, Note_on_c, 0, 57, 40
3, 22869, Note_on_c, 0, 66, 33
3, 22955, Note_on_c, 0, 47, 25
3, 23265, Control_c, 0, 64, 127
3, 23363, Note_on_c, 0, 57, 0
3, 23565, Note_on_c, 0, 62, 0
3, 23733, Note_on_c, 0, 66, 0
3, 24471, Note_on_c, 0, 47, 0
3, 24990, Control_c, 0, 64, 0
3, 25040, Note_on_c, 0, 41, 44
3, 26058, Note_on_c, 0, 69, 55
3, 26158, Note_on_c, 0, 69, 0
3, 26362, Note_on_c, 0, 74, 70
3, 26476, Note_on_c, 0, 74, 0
3, 26640, Note_on_c, 0, 78, 78
3, 26656, Note_on_c, 0, 39, 46
3, 26668, Note_on_c, 0, 41, 0
3, 26856, Note_on_c, 0, 78, 0
3, 26962, Note_on_c, 0, 39, 0
3, 26998, Note_on_c, 0, 79, 80
3, 27026, Note_on_c, 0, 40, 52
3, 27052, Note_on_c, 0, 75, 74
3, 27426, Note_on_c, 0, 76, 53
3, 27446, Note_on_c, 0, 75, 0
3, 27696, Note_on_c, 0, 79, 0
3, 27700, Note_on_c, 0, 76, 0
3, 28596, Note_on_c, 0, 28, 30
3, 28696, Note_on_c, 0, 40, 0
3, 28912, Note_on_c, 0, 64, 41
3, 29420, Note_on_c, 0, 64, 0
3, 29520, Note_on_c, 0, 68, 67
3, 29644, Note_on_c, 0, 28, 0
3, 29666, Note_on_c, 0, 68, 0
3, 29826, Note_on_c, 0, 71, 90
3, 29832, Note_on_c, 0, 32, 62
3, 30370, Note_on_c, 0, 71, 0
3, 30428, Note_on_c, 0, 74, 81
3, 30610, Note_on_c, 0, 32, 0
3, 30668, Note_on_c, 0, 74, 0
3, 30758, Note_on_c, 0, 33, 47
3, 30822, Note_on_c, 0, 72, 38
3, 31036, Note_on_c, 0, 33, 0
3, 31112, Note_on_c, 0, 72, 0
3, 31126, Note_on_c, 0, 33, 30
3, 31742, Note_on_c, 0, 64, 44
3, 31922, Note_on_c, 0, 64, 0
3, 31944, Note_on_c, 0, 65, 66
3, 32124, Note_on_c, 0, 65, 0
3, 32192, Note_on_c, 0, 64, 35
3, 32382, Note_on_c, 0, 64, 0
3, 32436, Note_on_c, 0, 63, 39
3, 32536, Note_on_c, 0, 63, 0
3, 32648, Note_on_c, 0, 64, 54
3, 32716, Note_on_c, 0, 64, 0
3, 32909, Note_on_c, 0, 72, 79
3, 33357, Note_on_c, 0, 72, 0
3, 33705, Note_on_c, 0, 72, 68
3, 34583, Note_on_c, 0, 33, 0
3, 34697, Note_on_c, 0, 40, 47
3, 35693, Control_c, 0, 64, 127
3, 36163, Note_on_c, 0, 72, 0
3, 36435, Control_c, 0, 64, 0
3, 36625, Note_on_c, 0, 64, 31
3, 36781, Note_on_c, 0, 64, 0
3, 37187, Note_on_c, 0, 65, 54
3, 37299, Note_on_c, 0, 65, 0
3, 37551, Note_on_c, 0, 74, 84
3, 37999, Note_on_c, 0, 74, 0
3, 38093, Note_on_c, 0, 40, 0
3, 38103, Note_on_c, 0, 44, 43
3, 38157, Note_on_c, 0, 71, 58
3, 38333, Note_on_c, 0, 71, 0
3, 38409, Note_on_c, 0, 44, 0
3, 38493, Note_on_c, 0, 45, 44
3, 38503, Note_on_c, 0, 72, 64
3, 38983, Note_on_c, 0, 72, 0
3, 39445, Note_on_c, 0, 71, 47
3, 39701, Note_on_c, 0, 71, 0
3, 40083, Note_on_c, 0, 67, 61
3, 40321, Note_on_c, 0, 67, 0
3, 40455, Note_on_c, 0, 64, 35
3, 40653, Note_on_c, 0, 64, 0
3, 41011, Note_on_c, 0, 40, 30
3, 41049, Note_on_c, 0, 59, 58
3, 41115, Note_on_c, 0, 59, 0
3, 41189, Note_on_c, 0, 40, 0
3, 41375, Note_on_c, 0, 33, 32
3, 41855, Note_on_c, 0, 45, 0
3, 43961, Note_on_c, 0, 40, 36
3, 44045, Note_on_c, 0, 33, 0
3, 44203, Note_on_c, 0, 40, 0
3, 44231, Note_on_c, 0, 71, 50
3, 44281, Note_on_c, 0, 47, 49
3, 44309, Note_on_c, 0, 71, 0
3, 44909, Note_on_c, 0, 47, 0
3, 45003, Note_on_c, 0, 40, 26
3, 45153, Note_on_c, 0, 40, 0
3, 45181, Note_on_c, 0, 45, 54
3, 45947, Note_on_c, 0, 45, 0
3, 46173, Note_on_c, 0, 61, 44
3, 46183, Note_on_c, 0, 72, 46
3, 46189, Note_on_c, 0, 46, 39
3, 46199, Note_on_c, 0, 65, 45
3, 46267, Note_on_c, 0, 69, 35
3, 47199, Control_c, 0, 64, 127
3, 47845, Note_on_c, 0, 61, 0
3, 47919, Note_on_c, 0, 65, 0
3, 47927, Note_on_c, 0, 69, 0
3, 48029, Note_on_c, 0, 72, 0
3, 48043, Control_c, 0, 64, 0
3, 48125, Note_on_c, 0, 61, 47
3, 48131, Note_on_c, 0, 65, 42
3, 48161, Note_on_c, 0, 70, 40
3, 49015, Note_on_c, 0, 46, 0
3, 49095, Note_on_c, 0, 39, 57
3, 49650, Note_on_c, 0, 39, 0
3, 49766, Note_on_c, 0, 39, 70
3, 51710, Note_on_c, 0, 46, 18
3, 51872, Note_on_c, 0, 46, 0
3, 51954, Note_on_c, 0, 51, 56
3, 52304, Note_on_c, 0, 61, 0
3, 52316, Note_on_c, 0, 65, 0
3, 52472, Note_on_c, 0, 70, 0
3, 52632, Note_on_c, 0, 61, 49
3, 52634, Note_on_c, 0, 72, 47
3, 52648, Note_on_c, 0, 65, 57
3, 52702, Note_on_c, 0, 61, 0
3, 52716, Note_on_c, 0, 65, 0
3, 52752, Note_on_c, 0, 72, 0
3, 53508, Note_on_c, 0, 39, 0
3, 53512, Note_on_c, 0, 74, 66
3, 53528, Note_on_c, 0, 71, 59
3, 53532, Note_on_c, 0, 64, 60
3, 53542, Note_on_c, 0, 67, 65
3, 53644, Note_on_c, 0, 51, 0
3, 54480, Note_on_c, 0, 62, 66
3, 54726, Note_on_c, 0, 62, 0
3, 54816, Note_on_c, 0, 50, 44
3, 55468, Note_on_c, 0, 62, 66
3, 55600, Control_c, 0, 64, 127
3, 55612, Note_on_c, 0, 64, 0
3, 55856, Note_on_c, 0, 67, 0
3, 56012, Note_on_c, 0, 62, 0
3, 56030, Note_on_c, 0, 71, 0
3, 56200, Note_on_c, 0, 74, 0
3, 56392, Note_on_c, 0, 62, 62
3, 56618, Note_on_c, 0, 50, 0
3, 56766, Note_on_c, 0, 62, 0
3, 57663, Control_c, 0, 64, 0
3, 57727, Note_on_c, 0, 86, 59
3, 57729, Note_on_c, 0, 78, 36
3, 57733, Note_on_c, 0, 56, 50
3, 57753, Note_on_c, 0, 74, 36
3, 57759, Note_on_c, 0, 81, 58
3, 58687, Control_c, 0, 64, 127
3, 59465, Note_on_c, 0, 60, 38
3, 59859, Note_on_c, 0, 60, 0
3, 59949, Control_c, 0, 64, 0
3, 60059, Note_on_c, 0, 63, 36
3, 60631, Control_c, 0, 64, 127
3, 60671, Note_on_c, 0, 74, 0
3, 60705, Note_on_c, 0, 86, 0
3, 60941, Note_on_c, 0, 78, 0
3, 60949, Note_on_c, 0, 81, 0
3, 61255, Control_c, 0, 64, 0
3, 61273, Note_on_c, 0, 63, 0
3, 61285, Note_on_c, 0, 83, 46
3, 61339, Note_on_c, 0, 78, 31
3, 61371, Note_on_c, 0, 56, 0
3, 61375, Note_on_c, 0, 67, 31
3, 61387, Note_on_c, 0, 74, 27
3, 61577, Note_on_c, 0, 78, 0
3, 61579, Note_on_c, 0, 74, 0
3, 61627, Note_on_c, 0, 83, 0
3, 62253, Note_on_c, 0, 67, 0
3, 62275, Note_on_c, 0, 62, 34
3, 62409, Note_on_c, 0, 62, 0
3, 62557, Note_on_c, 0, 74, 36
3, 62767, Note_on_c, 0, 74, 0
3, 62915, Note_on_c, 0, 76, 42
3, 63005, Note_on_c, 0, 76, 0
3, 63165, Note_on_c, 0, 78, 71
3, 63319, Note_on_c, 0, 78, 0
3, 63463, Note_on_c, 0, 81, 88
3, 63773, Note_on_c, 0, 81, 0
3, 64061, Note_on_c, 0, 50, 53
3, 64171, Note_on_c, 0, 50, 0
3, 64885, Note_on_c, 0, 43, 34
3, 64969, Note_on_c, 0, 43, 0
3, 65325, Note_on_c, 0, 57, 26
3, 65343, Note_on_c, 0, 59, 33
3, 65347, Note_on_c, 0, 62, 32
3, 65375, Note_on_c, 0, 66, 28
3, 65517, Note_on_c, 0, 54, 3
3, 66125, Note_on_c, 0, 54, 0
3, 66201, Note_on_c, 0, 51, 53
3, 66827, Note_on_c, 0, 51, 0
3, 66919, Note_on_c, 0, 52, 48
3, 67189, Note_on_c, 0, 57, 0
3, 67541, Note_on_c, 0, 59, 0
3, 67645, Note_on_c, 0, 62, 0
3, 67691, Note_on_c, 0, 66, 0
3, 67909, Note_on_c, 0, 64, 63
3, 68167, Note_on_c, 0, 64, 0
3, 68583, Note_on_c, 0, 52, 0
3, 68815, Note_on_c, 0, 64, 65
3, 69023, Note_on_c, 0, 64, 0
3, 69149, Note_on_c, 0, 65, 89
3, 69179, Note_on_c, 0, 46, 49
3, 69231, Note_on_c, 0, 56, 27
3, 70115, Control_c, 0, 64, 127
3, 70817, Control_c, 0, 64, 0
3, 70899, Note_on_c, 0, 65, 0
3, 71077, Note_on_c, 0, 60, 45
3, 71081, Note_on_c, 0, 65, 51
3, 71085, Note_on_c, 0, 61, 57
3, 71259, Note_on_c, 0, 60, 0
3, 71285, Note_on_c, 0, 61, 0
3, 71427, Note_on_c, 0, 65, 0
3, 71725, Note_on_c, 0, 61, 50
3, 71743, Note_on_c, 0, 60, 32
3, 71745, Note_on_c, 0, 65, 47
3, 71847, Note_on_c, 0, 65, 0
3, 71855, Note_on_c, 0, 60, 0
3, 71861, Note_on_c, 0, 61, 0
3, 71991, Note_on_c, 0, 56, 0
3, 72341, Note_on_c, 0, 46, 0
3, 72639, Note_on_c, 0, 65, 51
3, 72645, Note_on_c, 0, 61, 57
3, 72655, Note_on_c, 0, 60, 42
3, 72729, Note_on_c, 0, 60, 0
3, 72769, Note_on_c, 0, 65, 0
3, 72771, Note_on_c, 0, 61, 0
3, 73573, Note_on_c, 0, 61, 54
3, 73583, Note_on_c, 0, 65, 58
3, 73611, Note_on_c, 0, 39, 52
3, 73615, Note_on_c, 0, 60, 48
3, 73725, Note_on_c, 0, 60, 0
3, 73821, Note_on_c, 0, 61, 0
3, 73837, Note_on_c, 0, 65, 0
3, 74165, Note_on_c, 0, 65, 38
3, 74183, Note_on_c, 0, 61, 37
3, 74191, Note_on_c, 0, 60, 39
3, 74365, Note_on_c, 0, 65, 0
3, 74385, Note_on_c, 0, 60, 0
3, 74451, Note_on_c, 0, 61, 0
3, 75021, Note_on_c, 0, 61, 62
3, 75023, Note_on_c, 0, 51, 50
3, 75053, Note_on_c, 0, 60, 48
3, 75069, Note_on_c, 0, 65, 35
3, 75121, Note_on_c, 0, 60, 0
3, 75143, Note_on_c, 0, 65, 0
3, 75169, Note_on_c, 0, 61, 0
3, 75703, Note_on_c, 0, 61, 57
3, 75739, Note_on_c, 0, 60, 40
3, 75807, Note_on_c, 0, 60, 0
3, 75853, Note_on_c, 0, 61, 0
3, 76363, Note_on_c, 0, 61, 51
3, 76385, Note_on_c, 0, 65, 52
3, 76399, Note_on_c, 0, 60, 49
3, 76545, Note_on_c, 0, 60, 0
3, 76637, Note_on_c, 0, 65, 0
3, 76697, Note_on_c, 0, 61, 0
3, 76745, Note_on_c, 0, 51, 0
3, 76769, Note_on_c, 0, 39, 0
3, 76901, Note_on_c, 0, 43, 34
3, 76913, Note_on_c, 0, 57, 50
3, 76921, Note_on_c, 0, 59, 37
3, 76929, Note_on_c, 0, 50, 36
3, 76985, Note_on_c, 0, 64, 26
3, 77215, Control_c, 0, 64, 127
3, 77413, Note_on_c, 0, 57, 0
3, 77475, Note_on_c, 0, 59, 0
3, 77685, Note_on_c, 0, 64, 0
3, 77891, Note_on_c, 0, 62, 50
3, 77939, Note_on_c, 0, 43, 0
3, 77959, Control_c, 0, 64, 0
3, 78079, Note_on_c, 0, 62, 0
3, 78175, Note_on_c, 0, 64, 45
3, 78293, Note_on_c, 0, 64, 0
3, 78331, Note_on_c, 0, 50, 0
3, 78475, Note_on_c, 0, 66, 76
3, 78547, Note_on_c, 0, 50, 22
3, 78679, Note_on_c, 0, 66, 0
3, 78745, Note_on_c, 0, 50, 0
3, 78799, Note_on_c, 0, 66, 53
3, 78809, Note_on_c, 0, 69, 77
3, 78821, Note_on_c, 0, 59, 77
3, 78827, Note_on_c, 0, 62, 78
3, 78849, Note_on_c, 0, 54, 54
3, 78853, Note_on_c, 0, 43, 40
3, 79515, Note_on_c, 0, 54, 0
3, 79541, Note_on_c, 0, 59, 0
3, 79607, Note_on_c, 0, 69, 0
3, 79647, Note_on_c, 0, 62, 0
3, 79663, Note_on_c, 0, 66, 0
3, 79763, Note_on_c, 0, 52, 36
3, 79769, Note_on_c, 0, 59, 43
3, 79819, Note_on_c, 0, 67, 36
3, 80077, Note_on_c, 0, 52, 0
3, 80217, Note_on_c, 0, 59, 0
3, 80305, Note_on_c, 0, 67, 0
3, 80401, Note_on_c, 0, 59, 51
3, 80411, Note_on_c, 0, 69, 36
3, 80413, Note_on_c, 0, 54, 36
3, 80433, Note_on_c, 0, 62, 39
3, 80475, Note_on_c, 0, 59, 0
3, 80517, Note_on_c, 0, 62, 0
3, 80531, Note_on_c, 0, 69, 0
3, 80597, Note_on_c, 0, 54, 0
3, 81333, Note_on_c, 0, 52, 34
3, 81337, Note_on_c, 0, 67, 40
3, 81339, Note_on_c, 0, 59, 38
3, 81343, Note_on_c, 0, 62, 41
3, 82270, Note_on_c, 0, 43, 0
3, 82316, Note_on_c, 0, 62, 0
3, 82320, Note_on_c, 0, 59, 0
3, 82494, Note_on_c, 0, 67, 0
3, 82558, Note_on_c, 0, 43, 29
3, 82588, Note_on_c, 0, 59, 36
3, 82610, Note_on_c, 0, 62, 40
3, 82772, Note_on_c, 0, 52, 0
3, 83064, Note_on_c, 0, 59, 0
3, 83368, Note_on_c, 0, 62, 0
3, 83504, Note_on_c, 0, 59, 33
3, 83522, Note_on_c, 0, 64, 36
3, 83564, Note_on_c, 0, 52, 24
3, 83692, Control_c, 0, 64, 127
3, 83910, Note_on_c, 0, 59, 0
3, 84086, Note_on_c, 0, 64, 0
3, 84192, Control_c, 0, 64, 0
3, 84270, Note_on_c, 0, 52, 0
3, 84276, Note_on_c, 0, 43, 0
3, 84490, Note_on_c, 0, 66, 65
3, 84492, Note_on_c, 0, 62, 70
3, 84496, Note_on_c, 0, 57, 65
3, 84548, Note_on_c, 0, 47, 48
3, 85146, Note_on_c, 0, 57, 0
3, 85282, Note_on_c, 0, 62, 0
3, 85334, Note_on_c, 0, 66, 0
3, 85456, Note_on_c, 0, 57, 31
3, 85466, Note_on_c, 0, 64, 38
3, 85764, Note_on_c, 0, 57, 0
3, 85774, Note_on_c, 0, 47, 0
3, 85908, Note_on_c, 0, 64, 0
3, 86096, Note_on_c, 0, 62, 50
3, 86102, Note_on_c, 0, 47, 53
3, 86114, Note_on_c, 0, 66, 39
3, 86116, Note_on_c, 0, 57, 40
3, 86264, Note_on_c, 0, 57, 0
3, 86300, Note_on_c, 0, 47, 0
3, 86324, Note_on_c, 0, 62, 0
3, 86410, Note_on_c, 0, 66, 0
3, 87006, Note_on_c, 0, 67, 44
3, 87024, Note_on_c, 0, 47, 52
3, 87042, Note_on_c, 0, 62, 45
3, 87068, Note_on_c, 0, 57, 28
3, 87160, Note_on_c, 0, 57, 0
3, 87180, Note_on_c, 0, 67, 0
3, 87200, Note_on_c, 0, 47, 0
3, 87234, Note_on_c, 0, 62, 0
3, 87964, Note_on_c, 0, 65, 66
3, 88006, Note_on_c, 0, 40, 44
3, 88016, Note_on_c, 0, 56, 33
3, 88046, Note_on_c, 0, 62, 36
3, 88090, Note_on_c, 0, 52, 14
3, 88952, Note_on_c, 0, 65, 0
3, 88954, Note_on_c, 0, 52, 0
3, 89154, Note_on_c, 0, 56, 0
3, 89264, Note_on_c, 0, 64, 49
3, 89274, Note_on_c, 0, 56, 20
3, 89512, Note_on_c, 0, 62, 0
3, 89720, Note_on_c, 0, 56, 0
3, 89800, Note_on_c, 0, 64, 0
3, 89922, Note_on_c, 0, 65, 58
3, 89932, Note_on_c, 0, 56, 48
3, 89976, Note_on_c, 0, 52, 30
3, 90110, Note_on_c, 0, 52, 0
3, 90175, Note_on_c, 0, 65, 0
3, 90181, Note_on_c, 0, 56, 0
3, 90557, Note_on_c, 0, 64, 50
3, 90577, Note_on_c, 0, 52, 29
3, 90599, Note_on_c, 0, 56, 28
3, 90901, Note_on_c, 0, 52, 0
3, 90925, Note_on_c, 0, 56, 0
3, 91173, Note_on_c, 0, 47, 33
3, 91185, Note_on_c, 0, 56, 32
3, 91209, Note_on_c, 0, 62, 54
3, 91319, Note_on_c, 0, 40, 0
3, 91431, Note_on_c, 0, 64, 0
3, 91607, Note_on_c, 0, 56, 0
3, 91693, Note_on_c, 0, 47, 0
3, 91727, Note_on_c, 0, 62, 0
3, 91855, Note_on_c, 0, 55, 44
3, 91867, Note_on_c, 0, 60, 38
3, 91943, Note_on_c, 0, 45, 50
3, 91981, Note_on_c, 0, 55, 0
3, 92075, Note_on_c, 0, 60, 0
3, 92133, Control_c, 0, 64, 127
3, 92173, Control_c, 0, 64, 0
3, 92575, Control_c, 0, 64, 127
3, 92733, Note_on_c, 0, 64, 69
3, 92795, Control_c, 0, 64, 0
3, 93119, Note_on_c, 0, 64, 0
3, 93221, Note_on_c, 0, 65, 45
3, 93335, Note_on_c, 0, 65, 0
3, 93425, Note_on_c, 0, 64, 16
3, 93653, Note_on_c, 0, 64, 0
3, 93773, Note_on_c, 0, 63, 19
3, 93871, Note_on_c, 0, 63, 0
3, 93905, Note_on_c, 0, 64, 49
3, 94123, Note_on_c, 0, 64, 0
3, 94203, Note_on_c, 0, 72, 75
3, 94629, Note_on_c, 0, 72, 0
3, 94789, Note_on_c, 0, 45, 0
3, 95065, Note_on_c, 0, 51, 25
3, 95549, Note_on_c, 0, 51, 0
3, 95677, Note_on_c, 0, 52, 49
3, 96005, Control_c, 0, 64, 127
3, 96043, Control_c, 0, 64, 0
3, 96663, Note_on_c, 0, 76, 60
3, 96775, Note_on_c, 0, 76, 0
3, 97033, Note_on_c, 0, 77, 58
3, 97177, Note_on_c, 0, 77, 0
3, 97607, Note_on_c, 0, 76, 68
3, 97725, Note_on_c, 0, 76, 0
3, 98267, Note_on_c, 0, 83, 58
3, 98275, Note_on_c, 0, 84, 50
3, 98343, Note_on_c, 0, 84, 0
3, 98613, Note_on_c, 0, 83, 0
3, 98891, Control_c, 0, 64, 127
3, 98897, Note_on_c, 0, 84, 74
3, 98939, Note_on_c, 0, 52, 0
3, 99287, Note_on_c, 0, 84, 0
3, 99459, Note_on_c, 0, 86, 66
3, 99693, Note_on_c, 0, 86, 0
3, 99753, Control_c, 0, 64, 0
3, 99851, Note_on_c, 0, 60, 43
3, 99917, Note_on_c, 0, 88, 63
3, 100793, Control_c, 0, 64, 127
3, 101843, Note_on_c, 0, 84, 31
3, 102289, Note_on_c, 0, 84, 0
3, 102413, Note_on_c, 0, 60, 0
3, 102481, Note_on_c, 0, 88, 0
3, 103369, Note_on_c, 0, 52, 37
3, 103561, Control_c, 0, 64, 0
3, 103567, Note_on_c, 0, 52, 0
3, 103643, Note_on_c, 0, 101, 77
3, 103723, Note_on_c, 0, 53, 32
3, 103823, Note_on_c, 0, 101, 0
3, 104127, Note_on_c, 0, 99, 60
3, 104279, Note_on_c, 0, 48, 32
3, 104319, Note_on_c, 0, 96, 28
3, 104377, Note_on_c, 0, 99, 0
3, 104413, Note_on_c, 0, 96, 0
3, 104519, Note_on_c, 0, 93, 28
3, 104567, Note_on_c, 0, 48, 0
3, 104599, Note_on_c, 0, 93, 0
3, 104807, Note_on_c, 0, 91, 38
3, 105004, Note_on_c, 0, 89, 36
3, 105005, Note_on_c, 0, 91, 0
3, 105031, Note_on_c, 0, 48, 22
3, 105194, Note_on_c, 0, 89, 0
3, 105240, Note_on_c, 0, 86, 39
3, 105247, Note_on_c, 0, 48, 0
3, 105400, Note_on_c, 0, 86, 0
3, 105419, Note_on_c, 0, 41, 51
3, 105492, Note_on_c, 0, 87, 37
3, 105558, Note_on_c, 0, 87, 0
3, 105751, Note_on_c, 0, 84, 34
3, 105943, Note_on_c, 0, 84, 0
3, 106099, Note_on_c, 0, 81, 30
3, 106289, Note_on_c, 0, 81, 0
3, 106366, Note_on_c, 0, 80, 16
3, 106544, Note_on_c, 0, 79, 33
3, 106642, Note_on_c, 0, 80, 0
3, 106730, Note_on_c, 0, 79, 0
3, 106768, Note_on_c, 0, 41, 0
3, 106818, Note_on_c, 0, 78, 27
3, 106958, Note_on_c, 0, 78, 0
3, 107016, Note_on_c, 0, 77, 26
3, 107048, Note_on_c, 0, 53, 0
3, 107116, Note_on_c, 0, 77, 0
3, 107162, Note_on_c, 0, 76, 34
3, 107318, Note_on_c, 0, 75, 41
3, 107332, Note_on_c, 0, 76, 0
3, 107494, Note_on_c, 0, 75, 0
3, 107520, Note_on_c, 0, 74, 39
3, 108258, Note_on_c, 0, 57, 54
3, 108288, Note_on_c, 0, 47, 44
3, 108694, Control_c, 0, 64, 127
3, 108960, Note_on_c, 0, 74, 0
3, 109364, Note_on_c, 0, 57, 0
3, 109390, Note_on_c, 0, 47, 0
3, 109426, Note_on_c, 0, 53, 33
3, 109508, Note_on_c, 0, 53, 0
3, 109514, Control_c, 0, 64, 0
3, 109598, Note_on_c, 0, 56, 63
3, 110170, Note_on_c, 0, 73, 38
3, 110176, Note_on_c, 0, 70, 57
3, 110194, Note_on_c, 0, 67, 48
3, 110244, Note_on_c, 0, 46, 38
3, 110250, Note_on_c, 0, 73, 0
3, 110254, Note_on_c, 0, 70, 0
3, 110262, Note_on_c, 0, 67, 0
3, 111046, Note_on_c, 0, 71, 59
3, 111050, Note_on_c, 0, 60, 51
3, 111064, Note_on_c, 0, 64, 54
3, 111108, Note_on_c, 0, 67, 41
3, 111166, Note_on_c, 0, 56, 0
3, 111184, Note_on_c, 0, 46, 0
3, 111222, Note_on_c, 0, 55, 45
3, 111260, Note_on_c, 0, 45, 45
3, 112088, Note_on_c, 0, 60, 0
3, 112100, Note_on_c, 0, 52, 37
3, 112290, Note_on_c, 0, 55, 0
3, 112368, Note_on_c, 0, 60, 35
3, 112420, Note_on_c, 0, 67, 0
3, 112434, Note_on_c, 0, 52, 0
3, 112644, Note_on_c, 0, 64, 0
3, 112838, Note_on_c, 0, 60, 0
3, 112866, Note_on_c, 0, 71, 0
3, 113010, Note_on_c, 0, 60, 37
3, 113018, Note_on_c, 0, 69, 50
3, 113022, Note_on_c, 0, 66, 43
3, 113024, Note_on_c, 0, 63, 48
3, 113060, Note_on_c, 0, 50, 61
3, 113068, Note_on_c, 0, 45, 0
3, 113084, Note_on_c, 0, 60, 0
3, 113100, Note_on_c, 0, 63, 0
3, 113116, Note_on_c, 0, 69, 0
3, 113118, Note_on_c, 0, 66, 0
3, 113982, Note_on_c, 0, 63, 51
3, 113986, Note_on_c, 0, 69, 50
3, 113988, Note_on_c, 0, 60, 43
3, 114018, Note_on_c, 0, 66, 34
3, 114100, Note_on_c, 0, 66, 0
3, 114136, Note_on_c, 0, 60, 0
3, 114146, Note_on_c, 0, 69, 0
3, 114148, Note_on_c, 0, 63, 0
3, 114344, Note_on_c, 0, 69, 31
3, 114358, Note_on_c, 0, 63, 36
3, 114374, Note_on_c, 0, 60, 17
3, 114640, Note_on_c, 0, 63, 0
3, 114670, Note_on_c, 0, 60, 0
3, 114767, Note_on_c, 0, 69, 0
3, 114951, Note_on_c, 0, 69, 42
3, 114975, Note_on_c, 0, 63, 53
3, 114979, Note_on_c, 0, 60, 44
3, 115001, Note_on_c, 0, 66, 45
3, 115011, Note_on_c, 0, 49, 28
3, 115085, Note_on_c, 0, 49, 0
3, 115149, Note_on_c, 0, 69, 0
3, 115151, Note_on_c, 0, 60, 0
3, 115163, Note_on_c, 0, 66, 0
3, 115231, Note_on_c, 0, 63, 0
3, 115439, Note_on_c, 0, 59, 48
3, 115445, Note_on_c, 0, 66, 30
3, 115499, Note_on_c, 0, 62, 46
3, 115709, Note_on_c, 0, 59, 0
3, 115711, Note_on_c, 0, 62, 0
3, 115851, Note_on_c, 0, 66, 0
3, 116221, Note_on_c, 0, 66, 36
3, 116231, Note_on_c, 0, 59, 45
3, 116247, Note_on_c, 0, 62, 46
3, 116597, Note_on_c, 0, 59, 0
3, 116647, Note_on_c, 0, 62, 0
3, 116715, Note_on_c, 0, 66, 0
3, 116889, Note_on_c, 0, 59, 49
3, 116895, Note_on_c, 0, 66, 29
3, 116909, Note_on_c, 0, 62, 46
3, 117511, Note_on_c, 0, 50, 0
3, 117569, Note_on_c, 0, 59, 0
3, 117643, Note_on_c, 0, 62, 0
3, 117669, Note_on_c, 0, 66, 0
3, 117739, Control_c, 0, 64, 127
3, 117821, Control_c, 0, 64, 0
3, 117823, Note_on_c, 0, 62, 50
3, 117825, Note_on_c, 0, 59, 52
3, 117837, Note_on_c, 0, 66, 33
3, 117845, Note_on_c, 0, 50, 40
3, 118017, Note_on_c, 0, 59, 0
3, 118023, Note_on_c, 0, 50, 0
3, 118055, Note_on_c, 0, 66, 0
3, 118139, Note_on_c, 0, 62, 0
3, 118259, Note_on_c, 0, 66, 29
3, 118259, Note_on_c, 0, 59, 36
3, 118273, Note_on_c, 0, 50, 32
3, 118403, Control_c, 0, 64, 127
3, 118457, Note_on_c, 0, 59, 0
3, 118655, Note_on_c, 0, 66, 0
3, 118681, Note_on_c, 0, 50, 0
3, 118703, Control_c, 0, 64, 0
3, 118873, Note_on_c, 0, 56, 30
3, 118877, Note_on_c, 0, 38, 36
3, 118879, Note_on_c, 0, 68, 32
3, 118885, Note_on_c, 0, 60, 32
3, 118895, Note_on_c, 0, 63, 34
3, 118897, Note_on_c, 0, 50, 31
3, 119040, Note_on_c, 0, 60, 40
3, 119081, Note_on_c, 0, 60, 0
3, 119087, Note_on_c, 0, 50, 0
3, 119105, Note_on_c, 0, 56, 0
3, 119123, Note_on_c, 0, 38, 0
3, 119137, Note_on_c, 0, 63, 0
3, 119155, Note_on_c, 0, 68, 0
3, 119260, Note_on_c, 0, 60, 0
3, 120119, Note_on_c, 0, 68, 37
3, 120135, Note_on_c, 0, 50, 25
3, 120145, Note_on_c, 0, 38, 26
3, 120163, Note_on_c, 0, 63, 39
3, 120169, Note_on_c, 0, 60, 36
3, 120171, Note_on_c, 0, 56, 26
3, 120505, Control_c, 0, 64, 127
3, 121123, Note_on_c, 0, 56, 0
3, 121141, Note_on_c, 0, 60, 0
3, 121289, Note_on_c, 0, 63, 0
3, 121323, Note_on_c, 0, 68, 0
3, 122521, Note_on_c, 0, 50, 0
3, 122525, Note_on_c, 0, 38, 0
3, 122950, Note_on_c, 0, 78, 78
3, 123056, Note_on_c, 0, 54, 49
3, 123157, Control_c, 0, 64, 0
3, 123558, Note_on_c, 0, 78, 0
3, 123610, Note_on_c, 0, 81, 77
3, 123732, Note_on_c, 0, 54, 0
3, 123802, Note_on_c, 0, 55, 28
3, 123860, Note_on_c, 0, 81, 0
3, 124016, Note_on_c, 0, 78, 33
3, 124640, Note_on_c, 0, 78, 0
3, 124872, Note_on_c, 0, 55, 0
3, 124934, Note_on_c, 0, 74, 24
3, 125086, Note_on_c, 0, 50, 5
3, 125466, Note_on_c, 0, 74, 0
3, 125726, Note_on_c, 0, 50, 0
3, 125810, Note_on_c, 0, 44, 23
3, 125842, Note_on_c, 0, 71, 40
3, 125924, Note_on_c, 0, 71, 0
3, 126496, Note_on_c, 0, 50, 31
3, 126664, Note_on_c, 0, 44, 0
3, 126698, Note_on_c, 0, 50, 0
3, 126806, Note_on_c, 0, 66, 27
3, 126826, Note_on_c, 0, 43, 30
3, 127690, Note_on_c, 0, 50, 36
3, 127804, Note_on_c, 0, 43, 0
3, 128320, Note_on_c, 0, 66, 0
3, 128418, Note_on_c, 0, 62, 45
3, 128500, Note_on_c, 0, 62, 0
3, 128654, Note_on_c, 0, 50, 0
3, 128666, Note_on_c, 0, 55, 29
3, 128708, Note_on_c, 0, 64, 62
3, 129138, Note_on_c, 0, 64, 0
3, 129302, Note_on_c, 0, 66, 65
3, 129398, Note_on_c, 0, 55, 0
3, 129454, Note_on_c, 0, 50, 32
3, 129582, Note_on_c, 0, 66, 0
3, 129652, Note_on_c, 0, 64, 36
3, 130154, Note_on_c, 0, 64, 0
3, 130276, Note_on_c, 0, 62, 36
3, 130444, Note_on_c, 0, 62, 0
3, 130464, Note_on_c, 0, 50, 0
3, 130568, Note_on_c, 0, 46, 29
3, 130602, Note_on_c, 0, 72, 57
3, 130730, Note_on_c, 0, 65, 19
3, 131252, Note_on_c, 0, 72, 0
3, 131366, Note_on_c, 0, 65, 0
3, 131538, Note_on_c, 0, 70, 56
3, 132202, Note_on_c, 0, 61, 45
3, 132364, Note_on_c, 0, 61, 0
3, 132366, Note_on_c, 0, 70, 0
3, 132486, Note_on_c, 0, 53, 48
3, 132488, Note_on_c, 0, 65, 53
3, 132502, Note_on_c, 0, 46, 0
3, 134094, Note_on_c, 0, 53, 0
3, 134144, Note_on_c, 0, 46, 28
3, 134316, Note_on_c, 0, 46, 0
3, 134432, Note_on_c, 0, 51, 39
3, 134476, Note_on_c, 0, 65, 0
3, 134580, Note_on_c, 0, 51, 0
3, 135088, Note_on_c, 0, 46, 38
3, 135226, Note_on_c, 0, 46, 0
3, 135370, Note_on_c, 0, 39, 60
3, 136090, Note_on_c, 0, 46, 18
3, 136380, Note_on_c, 0, 61, 91
3, 136382, Note_on_c, 0, 46, 0
3, 136384, Note_on_c, 0, 72, 80
3, 136386, Note_on_c, 0, 65, 85
3, 136416, Note_on_c, 0, 69, 56
3, 136504, Note_on_c, 0, 69, 0
3, 136756, Note_on_c, 0, 65, 0
3, 136784, Note_on_c, 0, 61, 0
3, 136844, Note_on_c, 0, 72, 0
3, 137292, Note_on_c, 0, 46, 32
3, 137320, Note_on_c, 0, 70, 76
3, 137328, Note_on_c, 0, 61, 80
3, 137368, Note_on_c, 0, 65, 44
3, 137374, Note_on_c, 0, 64, 53
3, 137454, Note_on_c, 0, 64, 0
3, 137464, Note_on_c, 0, 65, 0
3, 137688, Note_on_c, 0, 70, 0
3, 137774, Note_on_c, 0, 61, 0
3, 137836, Note_on_c, 0, 46, 0
3, 137940, Note_on_c, 0, 39, 0
3, 137990, Note_on_c, 0, 42, 35
3, 138244, Note_on_c, 0, 42, 0
3, 138340, Note_on_c, 0, 43, 24
3, 138380, Note_on_c, 0, 66, 38
3, 138414, Note_on_c, 0, 57, 24
3, 138788, Note_on_c, 0, 66, 0
3, 138792, Note_on_c, 0, 57, 0
3, 139314, Note_on_c, 0, 66, 46
3, 139324, Note_on_c, 0, 57, 53
3, 139374, Note_on_c, 0, 62, 31
3, 139742, Note_on_c, 0, 57, 0
3, 139794, Note_on_c, 0, 62, 0
3, 139820, Note_on_c, 0, 66, 0
3, 139984, Note_on_c, 0, 64, 35
3, 140174, Note_on_c, 0, 43, 0
3, 140182, Note_on_c, 0, 64, 0
3, 140306, Note_on_c, 0, 38, 30
3, 140326, Note_on_c, 0, 66, 52
3, 140370, Note_on_c, 0, 57, 32
3, 140802, Note_on_c, 0, 66, 0
3, 140908, Note_on_c, 0, 67, 64
3, 140954, Note_on_c, 0, 62, 1
3, 141010, Note_on_c, 0, 57, 0
3, 141050, Note_on_c, 0, 62, 0
3, 141090, Note_on_c, 0, 67, 0
3, 141276, Note_on_c, 0, 66, 42
3, 141680, Note_on_c, 0, 66, 0
3, 141860, Note_on_c, 0, 64, 47
3, 141866, Note_on_c, 0, 57, 39
3, 141924, Note_on_c, 0, 31, 37
3, 141976, Note_on_c, 0, 57, 0
3, 142002, Note_on_c, 0, 38, 0
3, 142036, Note_on_c, 0, 64, 0
3, 142808, Note_on_c, 0, 64, 62
3, 142858, Note_on_c, 0, 57, 36
3, 142970, Note_on_c, 0, 57, 0
3, 143084, Note_on_c, 0, 64, 0
3, 143236, Note_on_c, 0, 57, 28
3, 143274, Note_on_c, 0, 62, 34
3, 143812, Note_on_c, 0, 43, 55
3, 143896, Note_on_c, 0, 43, 0
3, 144042, Note_on_c, 0, 31, 0
3, 144750, Note_on_c, 0, 43, 67
3, 144888, Note_on_c, 0, 43, 0
3, 145108, Note_on_c, 0, 38, 47
3, 145824, Note_on_c, 0, 57, 0
3, 145878, Note_on_c, 0, 38, 0
3, 145906, Note_on_c, 0, 62, 0
3, 146008, Note_on_c, 0, 35, 58
3, 146920, Note_on_c, 0, 66, 85
3, 146938, Note_on_c, 0, 57, 90
3, 147390, Note_on_c, 0, 57, 0
3, 147896, Note_on_c, 0, 57, 1
3, 147934, Note_on_c, 0, 62, 64
3, 147978, Note_on_c, 0, 66, 0
3, 148030, Note_on_c, 0, 45, 22
3, 148110, Note_on_c, 0, 45, 0
3, 148230, Note_on_c, 0, 57, 0
3, 148526, Note_on_c, 0, 63, 68
3, 148538, Note_on_c, 0, 62, 0
3, 148782, Note_on_c, 0, 63, 0
3, 148804, Note_on_c, 0, 35, 0
3, 148848, Note_on_c, 0, 39, 35
3, 148878, Note_on_c, 0, 64, 48
3, 149410, Note_on_c, 0, 64, 0
3, 149450, Note_on_c, 0, 65, 68
3, 149526, Note_on_c, 0, 39, 0
3, 149642, Note_on_c, 0, 40, 15
3, 149776, Note_on_c, 0, 65, 0
3, 149922, Note_on_c, 0, 70, 52
3, 150278, Note_on_c, 0, 70, 0
3, 150420, Note_on_c, 0, 74, 80
3, 150542, Note_on_c, 0, 28, 38
3, 150694, Note_on_c, 0, 74, 0
3, 150828, Note_on_c, 0, 77, 68
3, 151230, Note_on_c, 0, 77, 0
3, 151358, Note_on_c, 0, 84, 94
3, 151428, Note_on_c, 0, 35, 37
3, 151534, Note_on_c, 0, 40, 0
3, 151652, Note_on_c, 0, 84, 0
3, 151878, Note_on_c, 0, 80, 62
3, 152240, Note_on_c, 0, 80, 0
3, 152326, Note_on_c, 0, 75, 72
3, 152380, Note_on_c, 0, 28, 0
3, 152516, Note_on_c, 0, 35, 0
3, 152534, Note_on_c, 0, 75, 0
3, 152554, Note_on_c, 0, 32, 25
3, 152646, Note_on_c, 0, 72, 36
3, 153186, Note_on_c, 0, 72, 0
3, 153258, Note_on_c, 0, 70, 39
3, 153518, Note_on_c, 0, 70, 0
3, 153522, Note_on_c, 0, 32, 0
3, 153530, Note_on_c, 0, 33, 38
3, 153598, Note_on_c, 0, 71, 57
3, 154140, Note_on_c, 0, 71, 0
3, 154210, Note_on_c, 0, 76, 89
3, 154620, Note_on_c, 0, 72, 53
3, 154732, Note_on_c, 0, 76, 0
3, 155170, Note_on_c, 0, 33, 0
3, 155212, Note_on_c, 0, 69, 64
3, 155412, Note_on_c, 0, 72, 0
3, 155474, Note_on_c, 0, 69, 0
3, 155584, Note_on_c, 0, 64, 44
3, 155988, Note_on_c, 0, 52, 1
3, 156326, Note_on_c, 0, 64, 0
3, 156482, Note_on_c, 0, 52, 0
3, 156498, Note_on_c, 0, 60, 36
3, 156548, Note_on_c, 0, 45, 29
3, 157196, Note_on_c, 0, 45, 0
3, 157462, Note_on_c, 0, 52, 34
3, 157928, Note_on_c, 0, 60, 0
3, 158316, Note_on_c, 0, 52, 0
3, 158380, Note_on_c, 0, 40, 35
3, 159110, Note_on_c, 0, 47, 33
3, 159344, Note_on_c, 0, 47, 0
3, 159440, Note_on_c, 0, 56, 60
3, 159598, Note_on_c, 0, 56, 0
3, 159650, Note_on_c, 0, 58, 60
3, 159850, Note_on_c, 0, 56, 55
3, 159916, Note_on_c, 0, 58, 0
3, 160080, Note_on_c, 0, 56, 0
3, 160122, Note_on_c, 0, 55, 58
3, 160274, Note_on_c, 0, 55, 0
3, 160420, Note_on_c, 0, 56, 27
3, 160462, Note_on_c, 0, 47, 1
3, 160578, Note_on_c, 0, 58, 51
3, 160580, Note_on_c, 0, 56, 0
3, 160774, Note_on_c, 0, 58, 0
3, 160838, Note_on_c, 0, 47, 0
3, 160880, Note_on_c, 0, 59, 58
3, 161036, Note_on_c, 0, 59, 0
3, 161072, Note_on_c, 0, 44, 31
3, 161088, Note_on_c, 0, 40, 0
3, 161134, Note_on_c, 0, 62, 67
3, 161310, Note_on_c, 0, 44, 0
3, 161358, Note_on_c, 0, 45, 33
3, 161360, Note_on_c, 0, 62, 0
3, 161402, Note_on_c, 0, 59, 62
3, 161530, Note_on_c, 0, 59, 0
3, 161680, Note_on_c, 0, 60, 49
3, 161856, Note_on_c, 0, 60, 0
3, 162112, Note_on_c, 0, 67, 59
3, 162160, Note_on_c, 0, 40, 33
3, 162184, Note_on_c, 0, 67, 0
3, 162364, Note_on_c, 0, 71, 60
3, 162486, Note_on_c, 0, 40, 0
3, 162540, Note_on_c, 0, 71, 0
3, 162626, Note_on_c, 0, 74, 88
3, 162920, Note_on_c, 0, 72, 75
3, 163010, Note_on_c, 0, 74, 0
3, 163202, Note_on_c, 0, 72, 0
3, 163216, Note_on_c, 0, 68, 61
3, 163324, Note_on_c, 0, 68, 0
3, 163350, Note_on_c, 0, 45, 0
3, 163358, Note_on_c, 0, 33, 32
3, 163504, Note_on_c, 0, 71, 74
3, 163760, Note_on_c, 0, 68, 29
3, 163782, Note_on_c, 0, 71, 0
3, 163854, Note_on_c, 0, 68, 0
3, 164034, Note_on_c, 0, 69, 75
3, 164202, Note_on_c, 0, 69, 0
3, 164338, Note_on_c, 0, 64, 38
3, 164572, Note_on_c, 0, 64, 0
3, 164940, Note_on_c, 0, 40, 40
3, 165078, Note_on_c, 0, 33, 0
3, 165174, Note_on_c, 0, 40, 0
3, 165296, Note_on_c, 0, 45, 47
3, 165942, Note_on_c, 0, 45, 0
3, 165980, Note_on_c, 0, 40, 32
3, 166204, Note_on_c, 0, 40, 0
3, 166296, Note_on_c, 0, 47, 22
3, 166896, Note_on_c, 0, 47, 0
3, 167006, Note_on_c, 0, 40, 22
3, 167154, Note_on_c, 0, 45, 49
3, 167170, Note_on_c, 0, 40, 0
3, 167896, Note_on_c, 0, 45, 0
3, 168104, Note_on_c, 0, 47, 59
3, 169034, Note_on_c, 0, 47, 0
3, 169086, Note_on_c, 0, 46, 46
3, 170048, Note_on_c, 0, 72, 94
3, 170292, Note_on_c, 0, 72, 0
3, 170386, Note_on_c, 0, 70, 71
3, 170688, Note_on_c, 0, 70, 0
3, 170700, Note_on_c, 0, 65, 55
3, 170896, Note_on_c, 0, 65, 0
3, 170978, Note_on_c, 0, 61, 50
3, 171268, Note_on_c, 0, 61, 0
3, 171378, Note_on_c, 0, 60, 24
3, 171578, Note_on_c, 0, 60, 0
3, 171666, Note_on_c, 0, 58, 63
3, 171900, Note_on_c, 0, 58, 0
3, 172212, Note_on_c, 0, 57, 24
3, 172740, Note_on_c, 0, 57, 0
3, 172874, Note_on_c, 0, 58, 64
3, 173662, Note_on_c, 0, 46, 0
3, 173776, Note_on_c, 0, 39, 49
3, 174654, Note_on_c, 0, 58, 0
3, 174732, Note_on_c, 0, 60, 36
3, 175320, Note_on_c, 0, 60, 0
3, 175426, Note_on_c, 0, 57, 37
3, 175538, Note_on_c, 0, 57, 0
3, 175736, Note_on_c, 0, 58, 38
3, 175784, Note_on_c, 0, 44, 21
3, 176260, Note_on_c, 0, 39, 0
3, 176266, Note_on_c, 0, 58, 0
3, 176296, Note_on_c, 0, 42, 25
3, 176330, Note_on_c, 0, 59, 58
3, 176496, Note_on_c, 0, 59, 0
3, 176564, Note_on_c, 0, 42, 0
3, 176574, Note_on_c, 0, 44, 0
3, 176598, Note_on_c, 0, 45, 44
3, 176654, Note_on_c, 0, 62, 66
3, 177274, Note_on_c, 0, 62, 0
3, 177362, Note_on_c, 0, 59, 34
3, 177500, Note_on_c, 0, 59, 0
3, 177662, Note_on_c, 0, 60, 42
3, 178048, Note_on_c, 0, 60, 0
3, 178282, Note_on_c, 0, 64, 53
3, 178308, Note_on_c, 0, 45, 0
3, 178492, Note_on_c, 0, 64, 0
3, 178620, Note_on_c, 0, 52, 24
3, 178646, Note_on_c, 0, 67, 47
3, 178800, Note_on_c, 0, 67, 0
3, 179264, Note_on_c, 0, 71, 84
3, 179406, Note_on_c, 0, 71, 0
3, 179526, Note_on_c, 0, 52, 0
3, 179602, Note_on_c, 0, 74, 113
3, 180120, Note_on_c, 0, 74, 0
3, 180232, Note_on_c, 0, 72, 71
3, 180272, Note_on_c, 0, 60, 35
3, 180334, Note_on_c, 0, 54, 31
3, 180354, Note_on_c, 0, 50, 13
3, 180520, Note_on_c, 0, 72, 0
3, 180826, Note_on_c, 0, 68, 52
3, 181206, Note_on_c, 0, 68, 0
3, 181312, Note_on_c, 0, 60, 0
3, 181502, Note_on_c, 0, 68, 30
3, 181522, Note_on_c, 0, 63, 39
3, 181964, Note_on_c, 0, 68, 0
3, 182078, Note_on_c, 0, 63, 0
3, 182112, Note_on_c, 0, 60, 50
3, 182282, Note_on_c, 0, 54, 0
3, 182552, Note_on_c, 0, 60, 0
3, 182680, Note_on_c, 0, 50, 0
3, 182696, Note_on_c, 0, 63, 56
3, 182760, Note_on_c, 0, 58, 46
3, 182992, Note_on_c, 0, 63, 0
3, 183154, Note_on_c, 0, 58, 0
3, 183448, Note_on_c, 0, 55, 50
3, 183488, Note_on_c, 0, 62, 41
3, 183724, Note_on_c, 0, 55, 0
3, 183772, Note_on_c, 0, 62, 0
3, 183972, Note_on_c, 0, 54, 60
3, 184050, Note_on_c, 0, 43, 54
3, 184304, Note_on_c, 0, 54, 0
3, 184594, Note_on_c, 0, 59, 64
3, 184966, Note_on_c, 0, 59, 0
3, 185228, Note_on_c, 0, 54, 62
3, 185284, Note_on_c, 0, 31, 34
3, 185840, Note_on_c, 0, 50, 65
3, 185850, Note_on_c, 0, 54, 0
3, 186218, Note_on_c, 0, 50, 0
3, 186262, Note_on_c, 0, 43, 0
3, 186504, Note_on_c, 0, 52, 66
3, 186958, Note_on_c, 0, 52, 0
3, 187026, Note_on_c, 0, 38, 9
3, 187126, Note_on_c, 0, 47, 60
3, 187220, Note_on_c, 0, 31, 0
3, 187374, Note_on_c, 0, 38, 0
3, 187792, Note_on_c, 0, 42, 68
3, 188100, Note_on_c, 0, 47, 0
3, 188104, Note_on_c, 0, 42, 0
3, 188214, Note_on_c, 0, 43, 49
3, 188910, Note_on_c, 0, 38, 26
3, 189152, Note_on_c, 0, 38, 0
3, 189168, Note_on_c, 0, 50, 81
3, 189570, Note_on_c, 0, 50, 0
3, 189834, Note_on_c, 0, 52, 87
3, 189948, Note_on_c, 0, 38, 33
3, 190156, Note_on_c, 0, 52, 0
3, 190250, Note_on_c, 0, 43, 0
3, 190368, Note_on_c, 0, 50, 58
3, 190836, Note_on_c, 0, 50, 0
3, 190922, Note_on_c, 0, 43, 28
3, 191110, Note_on_c, 0, 50, 68
3, 191156, Note_on_c, 0, 38, 0
3, 191794, Note_on_c, 0, 52, 63
3, 191818, Note_on_c, 0, 50, 0
3, 191858, Note_on_c, 0, 43, 0
3, 192186, Note_on_c, 0, 52, 0
3, 192276, Note_on_c, 0, 49, 71
3, 192294, Note_on_c, 0, 44, 25
3, 192712, Note_on_c, 0, 49, 0
3, 192884, Note_on_c, 0, 41, 25
3, 192930, Note_on_c, 0, 44, 0
3, 192960, Note_on_c, 0, 41, 0
3, 193028, Note_on_c, 0, 49, 74
3, 193516, Note_on_c, 0, 49, 0
3, 193620, Note_on_c, 0, 51, 64
3, 193718, Note_on_c, 0, 44, 32
3, 193920, Note_on_c, 0, 51, 0
3, 194076, Note_on_c, 0, 49, 56
3, 194338, Note_on_c, 0, 49, 0
3, 194882, Note_on_c, 0, 53, 57
3, 195278, Note_on_c, 0, 53, 0
3, 195456, Note_on_c, 0, 57, 65
3, 195702, Note_on_c, 0, 44, 0
3, 195732, Note_on_c, 0, 57, 0
3, 195884, Note_on_c, 0, 60, 64
3, 196146, Note_on_c, 0, 60, 0
3, 196398, Note_on_c, 0, 65, 81
3, 196532, Note_on_c, 0, 61, 26
3, 196672, Note_on_c, 0, 65, 0
3, 196764, Note_on_c, 0, 61, 0
3, 196800, Note_on_c, 0, 69, 79
3, 196902, Note_on_c, 0, 55, 13
3, 197164, Note_on_c, 0, 55, 0
3, 197236, Note_on_c, 0, 69, 0
3, 197348, Note_on_c, 0, 55, 36
3, 197352, Note_on_c, 0, 72, 78
3, 197370, Note_on_c, 0, 61, 53
3, 197392, Note_on_c, 0, 65, 75
3, 197626, Note_on_c, 0, 72, 0
3, 197792, Note_on_c, 0, 70, 50
3, 198092, Note_on_c, 0, 65, 0
3, 198096, Note_on_c, 0, 61, 0
3, 198168, Note_on_c, 0, 70, 0
3, 198196, Note_on_c, 0, 55, 0
3, 198304, Note_on_c, 0, 61, 45
3, 198328, Note_on_c, 0, 55, 25
3, 198340, Note_on_c, 0, 69, 68
3, 198342, Note_on_c, 0, 65, 47
3, 198510, Note_on_c, 0, 65, 0
3, 198542, Note_on_c, 0, 61, 0
3, 198642, Note_on_c, 0, 55, 0
3, 198650, Note_on_c, 0, 69, 0
3, 198708, Note_on_c, 0, 68, 43
3, 199114, Note_on_c, 0, 68, 0
3, 199256, Note_on_c, 0, 69, 68
3, 199560, Note_on_c, 0, 69, 0
3, 199654, Note_on_c, 0, 71, 62
3, 199672, Note_on_c, 0, 54, 27
3, 199678, Note_on_c, 0, 66, 34
3, 199710, Note_on_c, 0, 62, 17
3, 200020, Note_on_c, 0, 66, 0
3, 200022, Note_on_c, 0, 71, 0
3, 200160, Note_on_c, 0, 62, 0
3, 200182, Note_on_c, 0, 54, 0
3, 200350, Note_on_c, 0, 43, 26
3, 200440, Note_on_c, 0, 43, 0
3, 200626, Note_on_c, 0, 66, 35
3, 200640, Note_on_c, 0, 62, 50
3, 200648, Note_on_c, 0, 54, 40
3, 200662, Note_on_c, 0, 59, 33
3, 200668, Note_on_c, 0, 57, 26
3, 201242, Note_on_c, 0, 54, 0
3, 201396, Note_on_c, 0, 57, 0
3, 201424, Note_on_c, 0, 59, 0
3, 201478, Note_on_c, 0, 62, 0
3, 201558, Note_on_c, 0, 66, 0
3, 201584, Note_on_c, 0, 50, 29
3, 201602, Note_on_c, 0, 57, 36
3, 201714, Note_on_c, 0, 64, 18
3, 201716, Note_on_c, 0, 50, 0
3, 201760, Note_on_c, 0, 52, 22
3, 202134, Note_on_c, 0, 57, 0
3, 202156, Note_on_c, 0, 52, 0
3, 202290, Note_on_c, 0, 57, 54
3, 202356, Note_on_c, 0, 54, 63
3, 202362, Note_on_c, 0, 57, 0
3, 202384, Note_on_c, 0, 64, 0
3, 203400, Note_on_c, 0, 54, 0
3, 203614, Note_on_c, 0, 50, 53
3, 204254, Note_on_c, 0, 57, 48
3, 204274, Note_on_c, 0, 64, 36
3, 204276, Note_on_c, 0, 50, 0
3, 204280, Note_on_c, 0, 52, 54
3, 204302, Note_on_c, 0, 59, 31
3, 204326, Note_on_c, 0, 57, 0
3, 204366, Note_on_c, 0, 64, 0
3, 204368, Note_on_c, 0, 59, 0
3, 205200, Note_on_c, 0, 46, 31
3, 205238, Note_on_c, 0, 52, 0
3, 205492, Note_on_c, 0, 46, 0
3, 205528, Note_on_c, 0, 55, 39
3, 205540, Note_on_c, 0, 59, 46
3, 205542, Note_on_c, 0, 50, 34
3, 205546, Note_on_c, 0, 62, 48
3, 206214, Note_on_c, 0, 50, 0
3, 206446, Note_on_c, 0, 55, 0
3, 206462, Note_on_c, 0, 45, 53
3, 206470, Note_on_c, 0, 59, 0
3, 206582, Note_on_c, 0, 62, 0
3, 206894, Note_on_c, 0, 45, 0
3, 207036, Note_on_c, 0, 46, 59
3, 207252, Note_on_c, 0, 46, 0
3, 207368, Note_on_c, 0, 47, 54
3, 207420, Note_on_c, 0, 66, 81
3, 207696, Note_on_c, 0, 66, 0
3, 207816, Note_on_c, 0, 57, 27
3, 207884, Note_on_c, 0, 57, 0
3, 208070, Note_on_c, 0, 62, 67
3, 208250, Note_on_c, 0, 62, 0
3, 208386, Note_on_c, 0, 66, 59
3, 208496, Note_on_c, 0, 66, 0
3, 208734, Note_on_c, 0, 69, 53
3, 208804, Note_on_c, 0, 69, 0
3, 208996, Note_on_c, 0, 74, 78
3, 209160, Note_on_c, 0, 74, 0
3, 209314, Note_on_c, 0, 78, 77
3, 209394, Note_on_c, 0, 41, 42
3, 209424, Note_on_c, 0, 47, 0
3, 209510, Note_on_c, 0, 78, 0
3, 209658, Note_on_c, 0, 74, 64
3, 209724, Note_on_c, 0, 74, 0
3, 209952, Note_on_c, 0, 78, 82
3, 210204, Note_on_c, 0, 78, 0
3, 210300, Note_on_c, 0, 74, 62
3, 210434, Note_on_c, 0, 74, 0
3, 210624, Note_on_c, 0, 69, 31
3, 210730, Note_on_c, 0, 69, 0
3, 210926, Note_on_c, 0, 41, 0
3, 210930, Note_on_c, 0, 39, 39
3, 211226, Note_on_c, 0, 39, 0
3, 211286, Note_on_c, 0, 40, 50
3, 211290, Note_on_c, 0, 76, 87
3, 211526, Note_on_c, 0, 76, 0
3, 211926, Note_on_c, 0, 76, 101
3, 212232, Note_on_c, 0, 76, 0
3, 212238, Note_on_c, 0, 72, 61
3, 212442, Note_on_c, 0, 72, 0
3, 212552, Note_on_c, 0, 35, 15
3, 212586, Note_on_c, 0, 67, 31
3, 212670, Note_on_c, 0, 67, 0
3, 213134, Note_on_c, 0, 35, 0
3, 213166, Note_on_c, 0, 28, 37
3, 213228, Note_on_c, 0, 72, 67
3, 213428, Note_on_c, 0, 72, 0
3, 213510, Note_on_c, 0, 40, 0
3, 213556, Note_on_c, 0, 67, 57
3, 213630, Note_on_c, 0, 67, 0
3, 213836, Note_on_c, 0, 72, 90
3, 214094, Note_on_c, 0, 72, 0
3, 214160, Note_on_c, 0, 67, 65
3, 214340, Note_on_c, 0, 67, 0
3, 214442, Note_on_c, 0, 28, 0
3, 214496, Note_on_c, 0, 40, 1
3, 214504, Note_on_c, 0, 64, 32
3, 214630, Note_on_c, 0, 64, 0
3, 214724, Note_on_c, 0, 40, 0
3, 214830, Note_on_c, 0, 60, 35
3, 214974, Note_on_c, 0, 60, 0
3, 215092, Note_on_c, 0, 64, 46
3, 215330, Note_on_c, 0, 64, 0
3, 215474, Note_on_c, 0, 60, 34
3, 215546, Note_on_c, 0, 60, 0
3, 215776, Note_on_c, 0, 60, 37
3, 215788, Note_on_c, 0, 62, 29
3, 215828, Note_on_c, 0, 45, 36
3, 215918, Note_on_c, 0, 60, 0
3, 215920, Note_on_c, 0, 62, 0
3, 216126, Note_on_c, 0, 64, 46
3, 216330, Note_on_c, 0, 64, 0
3, 216752, Note_on_c, 0, 69, 75
3, 216770, Note_on_c, 0, 52, 36
3, 216850, Note_on_c, 0, 69, 0
3, 217186, Note_on_c, 0, 71, 83
3, 217396, Note_on_c, 0, 71, 0
3, 217690, Note_on_c, 0, 74, 101
3, 217808, Note_on_c, 0, 57, 33
3, 217812, Note_on_c, 0, 45, 0
3, 217816, Note_on_c, 0, 52, 0
3, 217906, Note_on_c, 0, 74, 0
3, 218090, Note_on_c, 0, 72, 68
3, 218376, Note_on_c, 0, 57, 0
3, 218460, Note_on_c, 0, 72, 0
3, 218598, Note_on_c, 0, 71, 78
3, 218652, Note_on_c, 0, 72, 40
3, 218710, Note_on_c, 0, 52, 48
3, 218736, Note_on_c, 0, 72, 0
3, 218878, Note_on_c, 0, 71, 0
3, 219034, Note_on_c, 0, 69, 58
3, 219476, Note_on_c, 0, 69, 0
3, 219744, Note_on_c, 0, 62, 28
3, 219816, Note_on_c, 0, 68, 52
3, 220326, Note_on_c, 0, 62, 0
3, 220496, Note_on_c, 0, 65, 53
3, 220522, Note_on_c, 0, 68, 0
3, 220630, Note_on_c, 0, 59, 22
3, 220750, Note_on_c, 0, 52, 0
3, 221010, Note_on_c, 0, 59, 0
3, 221242, Note_on_c, 0, 65, 0
3, 221436, Note_on_c, 0, 64, 57
3, 221504, Note_on_c, 0, 46, 47
3, 221510, Note_on_c, 0, 56, 42
3, 221748, Note_on_c, 0, 64, 0
3, 221860, Note_on_c, 0, 62, 32
3, 222074, Note_on_c, 0, 56, 0
3, 222368, Note_on_c, 0, 52, 26
3, 222432, Note_on_c, 0, 62, 0
3, 222514, Note_on_c, 0, 59, 36
3, 222538, Note_on_c, 0, 46, 0
3, 222626, Note_on_c, 0, 59, 0
3, 222628, Note_on_c, 0, 52, 0
3, 222710, Note_on_c, 0, 45, 35
3, 222740, Note_on_c, 0, 55, 28
3, 222780, Note_on_c, 0, 62, 60
3, 223242, Note_on_c, 0, 55, 0
3, 223478, Note_on_c, 0, 62, 0
3, 223486, Note_on_c, 0, 59, 27
3, 223644, Note_on_c, 0, 59, 0
3, 223764, Note_on_c, 0, 60, 52
3, 224286, Note_on_c, 0, 60, 0
3, 224412, Note_on_c, 0, 62, 52
3, 224450, Note_on_c, 0, 45, 0
3, 224542, Note_on_c, 0, 48, 24
3, 224646, Note_on_c, 0, 62, 0
3, 224714, Note_on_c, 0, 64, 55
3, 225220, Note_on_c, 0, 64, 0
3, 225648, Note_on_c, 0, 67, 72
3, 225662, Note_on_c, 0, 48, 0
3, 225710, Note_on_c, 0, 52, 28
3, 226112, Note_on_c, 0, 67, 0
3, 226312, Note_on_c, 0, 52, 0
3, 226626, Note_on_c, 0, 59, 48
3, 226628, Note_on_c, 0, 74, 63
3, 226658, Note_on_c, 0, 63, 62
3, 226684, Note_on_c, 0, 67, 56
3, 227312, Note_on_c, 0, 74, 0
3, 227392, Note_on_c, 0, 63, 0
3, 227438, Note_on_c, 0, 67, 0
3, 227588, Note_on_c, 0, 59, 0
3, 227608, Note_on_c, 0, 73, 45
3, 227618, Note_on_c, 0, 58, 46
3, 227650, Note_on_c, 0, 67, 44
3, 227660, Note_on_c, 0, 63, 28
3, 228094, Note_on_c, 0, 63, 0
3, 228122, Note_on_c, 0, 73, 0
3, 228126, Note_on_c, 0, 67, 0
3, 228274, Note_on_c, 0, 72, 55
3, 228306, Note_on_c, 0, 63, 30
3, 228316, Note_on_c, 0, 67, 34
3, 228326, Note_on_c, 0, 58, 0
3, 228328, Note_on_c, 0, 57, 39
3, 229890, Note_on_c, 0, 72, 0
3, 229962, Note_on_c, 0, 67, 0
3, 230056, Note_on_c, 0, 71, 55
3, 230258, Note_on_c, 0, 63, 0
3, 230292, Note_on_c, 0, 57, 0
3, 230304, Note_on_c, 0, 71, 0
3, 230474, Note_on_c, 0, 66, 52
3, 230480, Note_on_c, 0, 47, 27
3, 230484, Note_on_c, 0, 57, 18
3, 230496, Note_on_c, 0, 62, 40
3, 232016, Note_on_c, 0, 62, 0
3, 232150, Note_on_c, 0, 57, 0
3, 232212, Note_on_c, 0, 47, 0
3, 232380, Note_on_c, 0, 66, 0
3, 232540, Note_on_c, 0, 56, 50
3, 233152, Note_on_c, 0, 72, 60
3, 233154, Note_on_c, 0, 65, 61
3, 233176, Note_on_c, 0, 61, 49
3, 233742, Note_on_c, 0, 65, 0
3, 233792, Note_on_c, 0, 61, 0
3, 233880, Note_on_c, 0, 72, 0
3, 234086, Note_on_c, 0, 46, 31
3, 234296, Note_on_c, 0, 56, 0
3, 234364, Note_on_c, 0, 46, 0
3, 234454, Note_on_c, 0, 74, 53
3, 234470, Note_on_c, 0, 60, 41
3, 234490, Note_on_c, 0, 67, 47
3, 234514, Note_on_c, 0, 55, 36
3, 234538, Note_on_c, 0, 45, 36
3, 235258, Control_c, 0, 64, 127
3, 235274, Note_on_c, 0, 60, 0
3, 235352, Note_on_c, 0, 67, 0
3, 235416, Note_on_c, 0, 74, 0
3, 235454, Note_on_c, 0, 45, 0
3, 235622, Note_on_c, 0, 55, 0
3, 235978, Control_c, 0, 64, 0
3, 235982, Note_on_c, 0, 75, 55
3, 236002, Note_on_c, 0, 77, 65
3, 236022, Note_on_c, 0, 70, 53
3, 236026, Note_on_c, 0, 65, 49
3, 236044, Note_on_c, 0, 54, 44
3, 236050, Note_on_c, 0, 75, 0
3, 236082, Note_on_c, 0, 60, 40
3, 236120, Note_on_c, 0, 74, 28
3, 237224, Control_c, 0, 64, 127
3, 237426, Note_on_c, 0, 65, 0
3, 237514, Note_on_c, 0, 60, 0
3, 237540, Note_on_c, 0, 70, 0
3, 237556, Note_on_c, 0, 74, 0
3, 237666, Note_on_c, 0, 77, 0
3, 237826, Note_on_c, 0, 54, 0
3, 238568, Control_c, 0, 64, 0
3, 238760, Note_on_c, 0, 62, 63
3, 238764, Note_on_c, 0, 69, 73
3, 238770, Note_on_c, 0, 81, 57
3, 238778, Note_on_c, 0, 74, 60
3, 238792, Note_on_c, 0, 78, 39
3, 238828, Note_on_c, 0, 69, 0
3, 238850, Note_on_c, 0, 74, 0
3, 238860, Note_on_c, 0, 78, 0
3, 238878, Note_on_c, 0, 81, 0
3, 238960, Note_on_c, 0, 62, 0
3, 239452, Note_on_c, 0, 81, 55
3, 239454, Note_on_c, 0, 69, 63
3, 239460, Note_on_c, 0, 78, 35
3, 239462, Note_on_c, 0, 74, 57
3, 239472, Note_on_c, 0, 62, 43
3, 239504, Note_on_c, 0, 66, 29
3, 239506, Note_on_c, 0, 55, 36
3, 239552, Note_on_c, 0, 69, 0
3, 239572, Note_on_c, 0, 74, 0
3, 239610, Note_on_c, 0, 66, 0
3, 239612, Note_on_c, 0, 55, 0
3, 239616, Note_on_c, 0, 78, 0
3, 239622, Note_on_c, 0, 81, 0
3, 239742, Note_on_c, 0, 62, 0
3, 240132, Note_on_c, 0, 62, 34
3, 240134, Note_on_c, 0, 81, 53
3, 240142, Note_on_c, 0, 66, 45
3, 240144, Note_on_c, 0, 74, 55
3, 240146, Note_on_c, 0, 78, 33
3, 240148, Note_on_c, 0, 69, 50
3, 240164, Note_on_c, 0, 55, 32
3, 240176, Control_c, 0, 64, 127
3, 240536, Note_on_c, 0, 69, 0
3, 240540, Note_on_c, 0, 78, 0
3, 240580, Note_on_c, 0, 81, 0
3, 240624, Note_on_c, 0, 74, 0
3, 240644, Note_on_c, 0, 55, 0
3, 240764, Note_on_c, 0, 66, 0
3, 240784, Note_on_c, 0, 79, 46
3, 240946, Note_on_c, 0, 79, 0
3, 241058, Control_c, 0, 64, 0
3, 241158, Control_c, 0, 64, 127
3, 241188, Note_on_c, 0, 80, 21
3, 241268, Note_on_c, 0, 80, 0
3, 241398, Note_on_c, 0, 62, 0
3, 241418, Control_c, 0, 64, 0
3, 241562, Note_on_c, 0, 83, 70
3, 241572, Note_on_c, 0, 64, 57
3, 241574, Note_on_c, 0, 72, 73
3, 241586, Note_on_c, 0, 79, 56
3, 241590, Note_on_c, 0, 76, 64
3, 241652, Note_on_c, 0, 79, 0
3, 241656, Note_on_c, 0, 76, 0
3, 241686, Note_on_c, 0, 64, 0
3, 241694, Note_on_c, 0, 72, 0
3, 241720, Note_on_c, 0, 83, 0
3, 242462, Note_on_c, 0, 79, 50
3, 242464, Note_on_c, 0, 62, 62
3, 242484, Note_on_c, 0, 72, 57
3, 242500, Note_on_c, 0, 69, 48
3, 242510, Note_on_c, 0, 76, 35
3, 242556, Note_on_c, 0, 62, 0
3, 242576, Note_on_c, 0, 69, 0
3, 242594, Note_on_c, 0, 76, 0
3, 242606, Note_on_c, 0, 79, 0
3, 242614, Note_on_c, 0, 72, 0
3, 242800, Control_c, 0, 64, 127
3, 243342, Control_c, 0, 64, 0
3, 243414, Note_on_c, 0, 76, 68
3, 243426, Note_on_c, 0, 66, 56
3, 243432, Note_on_c, 0, 72, 60
3, 243450, Note_on_c, 0, 70, 60
3, 244444, Control_c, 0, 64, 127
3, 244446, Note_on_c, 0, 49, 55
3, 244510, Note_on_c, 0, 76, 0
3, 244590, Note_on_c, 0, 72, 0
3, 244616, Note_on_c, 0, 70, 0
3, 244664, Note_on_c, 0, 49, 0
3, 244694, Note_on_c, 0, 66, 0
3, 244704, Control_c, 0, 64, 0
3, 244798, Note_on_c, 0, 50, 33
3, 245326, Note_on_c, 0, 50, 0
3, 245420, Note_on_c, 0, 42, 39
3, 245678, Note_on_c, 0, 42, 0
3, 245760, Note_on_c, 0, 61, 55
3, 245781, Note_on_c, 0, 31, 43
3, 245944, Note_on_c, 0, 61, 0
3, 246061, Note_on_c, 0, 62, 32
3, 246267, Note_on_c, 0, 62, 0
3, 246363, Note_on_c, 0, 71, 82
3, 246603, Note_on_c, 0, 71, 0
3, 246723, Note_on_c, 0, 69, 74
3, 246997, Note_on_c, 0, 69, 0
3, 247323, Note_on_c, 0, 66, 69
3, 247574, Note_on_c, 0, 66, 0
3, 247659, Note_on_c, 0, 38, 34
3, 247672, Note_on_c, 0, 31, 0
3, 247677, Note_on_c, 0, 62, 43
3, 248326, Note_on_c, 0, 59, 46
3, 248371, Note_on_c, 0, 62, 0
3, 248409, Note_on_c, 0, 59, 0
3, 249341, Note_on_c, 0, 46, 32
3, 249360, Note_on_c, 0, 38, 0
3, 249598, Note_on_c, 0, 46, 0
3, 249651, Note_on_c, 0, 47, 47
3, 250308, Note_on_c, 0, 47, 0
3, 250345, Note_on_c, 0, 44, 25
3, 250576, Note_on_c, 0, 44, 0
3, 250606, Note_on_c, 0, 45, 48
3, 251293, Note_on_c, 0, 42, 38
3, 251320, Note_on_c, 0, 45, 0
3, 251529, Note_on_c, 0, 42, 0
3, 251587, Note_on_c, 0, 43, 40
3, 251595, Note_on_c, 0, 67, 96
3, 251638, Note_on_c, 0, 65, 34
3, 251696, Note_on_c, 0, 65, 0
3, 252112, Note_on_c, 0, 67, 0
3, 252238, Note_on_c, 0, 62, 33
3, 252416, Note_on_c, 0, 43, 0
3, 252417, Note_on_c, 0, 62, 0
3, 252459, Note_on_c, 0, 38, 26
3, 252557, Note_on_c, 0, 64, 34
3, 253221, Note_on_c, 0, 64, 0
3, 253369, Note_on_c, 0, 38, 0
3, 253448, Note_on_c, 0, 34, 34
3, 253486, Note_on_c, 0, 65, 37
3, 253512, Note_on_c, 0, 61, 33
3, 254088, Note_on_c, 0, 65, 0
3, 254121, Note_on_c, 0, 61, 0
3, 254453, Note_on_c, 0, 61, 34
3, 254478, Note_on_c, 0, 56, 20
3, 254481, Note_on_c, 0, 65, 29
3, 254912, Note_on_c, 0, 65, 0
3, 254933, Note_on_c, 0, 56, 0
3, 254979, Note_on_c, 0, 61, 0
3, 255053, Note_on_c, 0, 34, 0
3, 255141, Note_on_c, 0, 41, 46
3, 255433, Note_on_c, 0, 65, 48
3, 255435, Note_on_c, 0, 56, 43
3, 255453, Note_on_c, 0, 61, 45
3, 255470, Note_on_c, 0, 60, 39
3, 256027, Note_on_c, 0, 60, 0
3, 256033, Note_on_c, 0, 56, 0
3, 256073, Note_on_c, 0, 65, 0
3, 256096, Note_on_c, 0, 48, 85
3, 256099, Note_on_c, 0, 61, 0
3, 256184, Note_on_c, 0, 41, 0
3, 256446, Note_on_c, 0, 56, 34
3, 256456, Note_on_c, 0, 65, 35
3, 256462, Note_on_c, 0, 61, 34
3, 256505, Note_on_c, 0, 60, 27
3, 256997, Note_on_c, 0, 60, 0
3, 257053, Note_on_c, 0, 65, 0
3, 257075, Note_on_c, 0, 61, 0
3, 257110, Note_on_c, 0, 56, 0
3, 257401, Note_on_c, 0, 61, 38
3, 257406, Note_on_c, 0, 55, 40
3, 257408, Note_on_c, 0, 65, 37
3, 257433, Note_on_c, 0, 60, 33
3, 257683, Note_on_c, 0, 55, 0
3, 257749, Note_on_c, 0, 65, 0
3, 257779, Note_on_c, 0, 60, 0
3, 257848, Note_on_c, 0, 61, 0
3, 258045, Note_on_c, 0, 39, 47
3, 258056, Note_on_c, 0, 48, 0
3, 258365, Note_on_c, 0, 61, 36
3, 258379, Note_on_c, 0, 65, 29
3, 258384, Note_on_c, 0, 55, 34
3, 258393, Note_on_c, 0, 60, 32
3, 258520, Note_on_c, 0, 55, 0
3, 258611, Note_on_c, 0, 60, 0
3, 258672, Note_on_c, 0, 65, 0
3, 258773, Note_on_c, 0, 61, 0
3, 258987, Note_on_c, 0, 46, 46
3, 259030, Note_on_c, 0, 39, 0
3, 259129, Note_on_c, 0, 46, 0
3, 259256, Note_on_c, 0, 53, 67
3, 259267, Note_on_c, 0, 72, 77
3, 259270, Note_on_c, 0, 65, 80
3, 259280, Note_on_c, 0, 61, 74
3, 259289, Note_on_c, 0, 69, 66
3, 259896, Note_on_c, 0, 61, 0
3, 259920, Note_on_c, 0, 65, 0
3, 259944, Note_on_c, 0, 69, 0
3, 259949, Note_on_c, 0, 72, 0
3, 260128, Note_on_c, 0, 53, 0
3, 260157, Note_on_c, 0, 51, 30
3, 260177, Note_on_c, 0, 70, 47
3, 260180, Note_on_c, 0, 61, 42
3, 260208, Note_on_c, 0, 65, 49
3, 260211, Note_on_c, 0, 51, 0
3, 260661, Note_on_c, 0, 65, 0
3, 260792, Note_on_c, 0, 70, 0
3, 260833, Note_on_c, 0, 61, 0
3, 260835, Note_on_c, 0, 42, 37
3, 261038, Note_on_c, 0, 42, 0
3, 261115, Note_on_c, 0, 62, 42
3, 261126, Note_on_c, 0, 43, 32
3, 261549, Note_on_c, 0, 62, 0
3, 261741, Note_on_c, 0, 64, 80
3, 261960, Note_on_c, 0, 64, 0
3, 262086, Note_on_c, 0, 43, 0
3, 262091, Note_on_c, 0, 61, 45
3, 262136, Note_on_c, 0, 38, 24
3, 262589, Note_on_c, 0, 61, 0
3, 262677, Note_on_c, 0, 62, 50
3, 262838, Note_on_c, 0, 38, 0
3, 262929, Note_on_c, 0, 62, 0
3, 262988, Note_on_c, 0, 33, 31
3, 263049, Note_on_c, 0, 60, 30
3, 263567, Note_on_c, 0, 60, 0
3, 263689, Note_on_c, 0, 57, 17
3, 263742, Note_on_c, 0, 33, 0
3, 263869, Note_on_c, 0, 57, 0
3, 263949, Note_on_c, 0, 58, 59
3, 263950, Note_on_c, 0, 32, 39
3, 264497, Note_on_c, 0, 58, 0
3, 264560, Note_on_c, 0, 59, 65
3, 264635, Note_on_c, 0, 32, 0
3, 264816, Note_on_c, 0, 31, 38
3, 264957, Note_on_c, 0, 59, 0
3, 265088, Note_on_c, 0, 55, 40
3, 265374, Note_on_c, 0, 55, 0
3, 265872, Note_on_c, 0, 50, 48
3, 265924, Note_on_c, 0, 43, 26
3, 266077, Note_on_c, 0, 43, 0
3, 266333, Note_on_c, 0, 50, 0
3, 266717, Note_on_c, 0, 31, 0
3, 266921, Note_on_c, 0, 38, 40
3, 267878, Note_on_c, 0, 38, 0
3, 267918, Note_on_c, 0, 46, 29
3, 268709, Note_on_c, 0, 46, 0
3, 268805, Note_on_c, 0, 47, 43
3, 269753, Note_on_c, 0, 66, 81
3, 269769, Note_on_c, 0, 47, 0
3, 269779, Note_on_c, 0, 41, 40
3, 270139, Note_on_c, 0, 66, 0
3, 270409, Note_on_c, 0, 62, 30
3, 270635, Note_on_c, 0, 62, 0
3, 270683, Note_on_c, 0, 41, 0
3, 270713, Note_on_c, 0, 66, 49
3, 270771, Note_on_c, 0, 38, 22
3, 270838, Note_on_c, 0, 66, 0
3, 271038, Note_on_c, 0, 69, 58
3, 271123, Note_on_c, 0, 69, 0
3, 271345, Note_on_c, 0, 74, 95
3, 271550, Note_on_c, 0, 74, 0
3, 271664, Note_on_c, 0, 78, 79
3, 271715, Note_on_c, 0, 38, 0
3, 271720, Note_on_c, 0, 75, 30
3, 271774, Note_on_c, 0, 39, 27
3, 271776, Note_on_c, 0, 75, 0
3, 271865, Note_on_c, 0, 78, 0
3, 271974, Note_on_c, 0, 79, 82
3, 272157, Note_on_c, 0, 79, 0
3, 272285, Note_on_c, 0, 77, 80
3, 272475, Note_on_c, 0, 39, 0
3, 272499, Note_on_c, 0, 77, 0
3, 272517, Note_on_c, 0, 40, 33
3, 272632, Note_on_c, 0, 76, 60
3, 272851, Note_on_c, 0, 76, 0
3, 272950, Note_on_c, 0, 74, 42
3, 273121, Note_on_c, 0, 74, 0
3, 273249, Note_on_c, 0, 72, 31
3, 273437, Note_on_c, 0, 72, 0
3, 273501, Note_on_c, 0, 28, 37
3, 273579, Note_on_c, 0, 71, 34
3, 273662, Note_on_c, 0, 40, 0
3, 273814, Note_on_c, 0, 71, 0
3, 274473, Note_on_c, 0, 38, 32
3, 274589, Note_on_c, 0, 28, 0
3, 274843, Note_on_c, 0, 69, 67
3, 275033, Note_on_c, 0, 69, 0
3, 275168, Note_on_c, 0, 65, 45
3, 275289, Note_on_c, 0, 65, 0
3, 275392, Note_on_c, 0, 38, 0
3, 275465, Note_on_c, 0, 32, 39
3, 275476, Note_on_c, 0, 68, 50
3, 275632, Note_on_c, 0, 68, 0
3, 275801, Note_on_c, 0, 71, 62
3, 275904, Note_on_c, 0, 71, 0
3, 276099, Note_on_c, 0, 74, 105
3, 276249, Note_on_c, 0, 32, 0
3, 276309, Note_on_c, 0, 74, 0
3, 276382, Note_on_c, 0, 33, 29
3, 276437, Note_on_c, 0, 72, 65
3, 277272, Note_on_c, 0, 72, 0
3, 277424, Note_on_c, 0, 64, 40
3, 277465, Note_on_c, 0, 45, 29
3, 277581, Note_on_c, 0, 64, 0
3, 277733, Note_on_c, 0, 65, 40
3, 277897, Note_on_c, 0, 65, 0
3, 278057, Note_on_c, 0, 64, 30
3, 278161, Note_on_c, 0, 64, 0
3, 278213, Note_on_c, 0, 45, 0
3, 278376, Note_on_c, 0, 72, 71
3, 278379, Note_on_c, 0, 40, 17
3, 278645, Note_on_c, 0, 40, 0
3, 279125, Note_on_c, 0, 33, 0
3, 279342, Note_on_c, 0, 39, 45
3, 280302, Note_on_c, 0, 39, 0
3, 280355, Note_on_c, 0, 40, 42
3, 281219, Note_on_c, 0, 72, 0
3, 281278, Note_on_c, 0, 28, 54
3, 281289, Note_on_c, 0, 64, 62
3, 281369, Note_on_c, 0, 40, 0
3, 281699, Note_on_c, 0, 64, 0
3, 281955, Note_on_c, 0, 76, 108
3, 282184, Note_on_c, 0, 28, 0
3, 282197, Note_on_c, 0, 40, 34
3, 282307, Note_on_c, 0, 76, 0
3, 282473, Note_on_c, 0, 74, 62
3, 283219, Note_on_c, 0, 40, 0
3, 283241, Note_on_c, 0, 44, 34
3, 283249, Note_on_c, 0, 72, 40
3, 283267, Note_on_c, 0, 74, 0
3, 283851, Note_on_c, 0, 42, 30
3, 284078, Note_on_c, 0, 72, 0
3, 284096, Note_on_c, 0, 44, 0
3, 284126, Note_on_c, 0, 42, 0
3, 284182, Note_on_c, 0, 45, 37
3, 284190, Note_on_c, 0, 71, 56
3, 284397, Note_on_c, 0, 71, 0
3, 284485, Note_on_c, 0, 72, 45
3, 284624, Note_on_c, 0, 71, 54
3, 284668, Note_on_c, 0, 72, 0
3, 284873, Note_on_c, 0, 71, 0
3, 284881, Note_on_c, 0, 69, 55
3, 285059, Note_on_c, 0, 69, 0
3, 285088, Note_on_c, 0, 33, 37
3, 285113, Note_on_c, 0, 45, 0
3, 285208, Note_on_c, 0, 68, 28
3, 285751, Note_on_c, 0, 68, 0
3, 285782, Note_on_c, 0, 71, 58
3, 285894, Note_on_c, 0, 33, 0
3, 286048, Note_on_c, 0, 71, 0
3, 286101, Note_on_c, 0, 40, 19
3, 286133, Note_on_c, 0, 69, 44
3, 286742, Note_on_c, 0, 64, 52
3, 286846, Note_on_c, 0, 69, 0
3, 286848, Note_on_c, 0, 64, 0
3, 286902, Note_on_c, 0, 40, 0
3, 287029, Note_on_c, 0, 47, 27
3, 287710, Note_on_c, 0, 46, 47
3, 287764, Note_on_c, 0, 47, 0
3, 287913, Note_on_c, 0, 46, 0
3, 288006, Note_on_c, 0, 45, 49
3, 288886, Note_on_c, 0, 45, 0
3, 288947, Note_on_c, 0, 40, 57
3, 289736, Note_on_c, 0, 39, 25
3, 289894, Note_on_c, 0, 40, 0
3, 289901, Note_on_c, 0, 39, 0
3, 289915, Note_on_c, 0, 43, 51
3, 290795, Note_on_c, 0, 43, 0
3, 290854, Note_on_c, 0, 38, 46
3, 291694, Note_on_c, 0, 38, 0
3, 291801, Note_on_c, 0, 34, 57
3, 292813, Note_on_c, 0, 72, 83
3, 292816, Note_on_c, 0, 61, 85
3, 292819, Note_on_c, 0, 65, 80
3, 292830, Note_on_c, 0, 68, 51
3, 292885, Note_on_c, 0, 68, 0
3, 293045, Note_on_c, 0, 65, 0
3, 293051, Note_on_c, 0, 61, 0
3, 293056, Note_on_c, 0, 34, 0
3, 293113, Note_on_c, 0, 72, 0
3, 293840, Note_on_c, 0, 70, 79
3, 293843, Note_on_c, 0, 61, 86
3, 293861, Note_on_c, 0, 65, 73
3, 293875, Note_on_c, 0, 60, 56
3, 293913, Note_on_c, 0, 65, 0
3, 293976, Note_on_c, 0, 65, 22
3, 294587, Note_on_c, 0, 61, 0
3, 294609, Note_on_c, 0, 65, 0
3, 294753, Note_on_c, 0, 70, 0
3, 294761, Note_on_c, 0, 61, 54
3, 294766, Note_on_c, 0, 60, 0
3, 294769, Note_on_c, 0, 68, 46
3, 294785, Note_on_c, 0, 58, 50
3, 294816, Note_on_c, 0, 65, 39
3, 295374, Note_on_c, 0, 61, 0
3, 295473, Note_on_c, 0, 65, 0
3, 295723, Note_on_c, 0, 65, 49
3, 295726, Note_on_c, 0, 57, 44
3, 295727, Note_on_c, 0, 61, 47
3, 295733, Note_on_c, 0, 58, 0
3, 295756, Note_on_c, 0, 69, 54
3, 296109, Note_on_c, 0, 68, 0
3, 297016, Note_on_c, 0, 61, 0
3, 297101, Note_on_c, 0, 65, 0
3, 297150, Note_on_c, 0, 69, 0
3, 297318, Note_on_c, 0, 70, 53
3, 297329, Note_on_c, 0, 61, 46
3, 297357, Note_on_c, 0, 65, 52
3, 297408, Note_on_c, 0, 56, 27
3, 297440, Note_on_c, 0, 57, 0
3, 298961, Note_on_c, 0, 61, 0
3, 299145, Note_on_c, 0, 65, 0
3, 299448, Note_on_c, 0, 70, 0
3, 299565, Note_on_c, 0, 67, 31
3, 299566, Note_on_c, 0, 56, 0
3, 299568, Note_on_c, 0, 50, 32
3, 299574, Note_on_c, 0, 64, 29
3, 299606, Note_on_c, 0, 60, 17
3, 299641, Note_on_c, 0, 59, 11
3, 299912, Control_c, 0, 64, 127
3, 299985, Note_on_c, 0, 60, 0
3, 300057, Note_on_c, 0, 64, 0
3, 300061, Note_on_c, 0, 67, 0
3, 300118, Note_on_c, 0, 59, 0
3, 300232, Note_on_c, 0, 74, 60
3, 300414, Note_on_c, 0, 74, 0
3, 300597, Note_on_c, 0, 74, 61
3, 300811, Note_on_c, 0, 74, 0
3, 302045, Note_on_c, 0, 86, 60
3, 302067, Note_on_c, 0, 62, 38
3, 302112, Note_on_c, 0, 74, 50
3, 302227, Note_on_c, 0, 86, 0
3, 302244, Note_on_c, 0, 74, 0
3, 302507, Note_on_c, 0, 86, 31
3, 302622, Note_on_c, 0, 86, 0
3, 302710, Note_on_c, 0, 62, 0
3, 303080, Note_on_c, 0, 98, 55
3, 303096, Note_on_c, 0, 62, 24
3, 303152, Note_on_c, 0, 98, 0
3, 303630, Note_on_c, 0, 50, 0
3, 303971, Note_on_c, 0, 98, 62
3, 304000, Note_on_c, 0, 86, 36
3, 304027, Note_on_c, 0, 50, 24
3, 304075, Note_on_c, 0, 62, 0
3, 304123, Note_on_c, 0, 86, 0
3, 304149, Note_on_c, 0, 98, 0
3, 304301, Note_on_c, 0, 50, 0
3, 304407, Note_on_c, 0, 98, 36
3, 304409, Note_on_c, 0, 86, 40
3, 304797, Note_on_c, 0, 86, 0
3, 304854, Note_on_c, 0, 98, 0
3, 304945, Note_on_c, 0, 50, 36
3, 305061, Control_c, 0, 64, 0
3, 305112, Note_on_c, 0, 50, 0
3, 305851, Note_on_c, 0, 37, 64
3, 306069, Note_on_c, 0, 37, 0
3, 306213, Note_on_c, 0, 38, 34
3, 306672, Note_on_c, 0, 38, 0
3, 306849, Note_on_c, 0, 30, 37
3, 307156, Note_on_c, 0, 30, 0
3, 307201, Note_on_c, 0, 31, 48
3, 308246, Note_on_c, 0, 62, 22
3, 308398, Note_on_c, 0, 62, 0
3, 308537, Note_on_c, 0, 64, 31
3, 308621, Note_on_c, 0, 64, 0
3, 308803, Note_on_c, 0, 66, 74
3, 309032, Note_on_c, 0, 66, 0
3, 309075, Note_on_c, 0, 31, 0
3, 309171, Note_on_c, 0, 69, 74
3, 309198, Note_on_c, 0, 38, 44
3, 309213, Note_on_c, 0, 62, 26
3, 310710, Note_on_c, 0, 42, 38
3, 310750, Note_on_c, 0, 38, 0
3, 310971, Note_on_c, 0, 42, 0
3, 311059, Note_on_c, 0, 43, 39
3, 311361, Note_on_c, 0, 69, 0
3, 311707, Note_on_c, 0, 62, 0
3, 311710, Note_on_c, 0, 38, 20
3, 311827, Note_on_c, 0, 38, 0
3, 312006, Note_on_c, 0, 67, 66
3, 312120, Note_on_c, 0, 67, 0
3, 312592, Note_on_c, 0, 43, 0
3, 312629, Note_on_c, 0, 37, 52
3, 312648, Note_on_c, 0, 67, 75
3, 312835, Note_on_c, 0, 67, 0
3, 312926, Note_on_c, 0, 37, 0
3, 312990, Note_on_c, 0, 38, 29
3, 313064, Note_on_c, 0, 62, 34
3, 313343, Note_on_c, 0, 62, 0
3, 313630, Note_on_c, 0, 62, 28
3, 313757, Note_on_c, 0, 62, 0
3, 313937, Note_on_c, 0, 64, 35
3, 313998, Note_on_c, 0, 64, 0
3, 314544, Note_on_c, 0, 32, 37
3, 314552, Note_on_c, 0, 64, 56
3, 314597, Note_on_c, 0, 38, 0
3, 314676, Note_on_c, 0, 64, 0
3, 314756, Note_on_c, 0, 32, 0
3, 314875, Note_on_c, 0, 61, 50
3, 314878, Note_on_c, 0, 34, 35
3, 314883, Note_on_c, 0, 65, 43
3, 315272, Note_on_c, 0, 61, 0
3, 315381, Note_on_c, 0, 65, 0
3, 315821, Note_on_c, 0, 65, 42
3, 315828, Note_on_c, 0, 61, 44
3, 315861, Note_on_c, 0, 56, 19
3, 316134, Note_on_c, 0, 34, 0
3, 316515, Note_on_c, 0, 38, 45
3, 316681, Note_on_c, 0, 38, 0
3, 316824, Note_on_c, 0, 39, 49
3, 317029, Note_on_c, 0, 61, 0
3, 317030, Note_on_c, 0, 56, 0
3, 317032, Note_on_c, 0, 65, 0
3, 317758, Note_on_c, 0, 56, 29
3, 317763, Note_on_c, 0, 61, 42
3, 317769, Note_on_c, 0, 65, 42
3, 317859, Note_on_c, 0, 39, 0
3, 318453, Note_on_c, 0, 45, 40
3, 318565, Note_on_c, 0, 45, 0
3, 318712, Note_on_c, 0, 46, 67
3, 319336, Note_on_c, 0, 61, 0
3, 319382, Note_on_c, 0, 56, 0
3, 319387, Note_on_c, 0, 65, 0
3, 319489, Note_on_c, 0, 44, 18
3, 319712, Note_on_c, 0, 56, 28
3, 319713, Note_on_c, 0, 61, 36
3, 319734, Note_on_c, 0, 65, 37
3, 319745, Note_on_c, 0, 44, 0
3, 319869, Note_on_c, 0, 46, 0
3, 320165, Note_on_c, 0, 65, 0
3, 320328, Note_on_c, 0, 56, 0
3, 320398, Note_on_c, 0, 61, 0
3, 320614, Note_on_c, 0, 51, 39
3, 320642, Note_on_c, 0, 55, 49
3, 320646, Note_on_c, 0, 65, 45
3, 320661, Note_on_c, 0, 61, 37
3, 320687, Note_on_c, 0, 60, 36
3, 321064, Note_on_c, 0, 65, 0
3, 321080, Note_on_c, 0, 60, 0
3, 321085, Note_on_c, 0, 55, 0
3, 321120, Note_on_c, 0, 61, 0
3, 321150, Note_on_c, 0, 51, 0
3, 321262, Note_on_c, 0, 55, 53
3, 321265, Note_on_c, 0, 65, 59
3, 321269, Note_on_c, 0, 51, 51
3, 321270, Note_on_c, 0, 60, 48
3, 321272, Note_on_c, 0, 61, 61
3, 321438, Note_on_c, 0, 55, 0
3, 321455, Note_on_c, 0, 60, 0
3, 321457, Note_on_c, 0, 65, 0
3, 321486, Note_on_c, 0, 61, 0
3, 321489, Note_on_c, 0, 51, 0
3, 321590, Note_on_c, 0, 46, 37
3, 322107, Note_on_c, 0, 46, 0
3, 322235, Note_on_c, 0, 42, 48
3, 322477, Note_on_c, 0, 42, 0
3, 322547, Note_on_c, 0, 62, 51
3, 322568, Note_on_c, 0, 54, 25
3, 322582, Note_on_c, 0, 43, 29
3, 322589, Note_on_c, 0, 57, 32
3, 322616, Note_on_c, 0, 59, 32
3, 322953, Note_on_c, 0, 57, 0
3, 323000, Note_on_c, 0, 59, 0
3, 323001, Note_on_c, 0, 54, 0
3, 323062, Note_on_c, 0, 62, 0
3, 323161, Note_on_c, 0, 54, 42
3, 323181, Note_on_c, 0, 57, 30
3, 323203, Note_on_c, 0, 59, 28
3, 323206, Note_on_c, 0, 64, 30
3, 323238, Note_on_c, 0, 62, 18
3, 323257, Note_on_c, 0, 57, 0
3, 323269, Note_on_c, 0, 59, 0
3, 323302, Note_on_c, 0, 64, 0
3, 323337, Note_on_c, 0, 62, 0
3, 323365, Note_on_c, 0, 54, 0
3, 323574, Note_on_c, 0, 66, 38
3, 323721, Note_on_c, 0, 66, 0
3, 324016, Note_on_c, 0, 43, 0
3, 324064, Note_on_c, 0, 37, 42
3, 324136, Note_on_c, 0, 59, 55
3, 324142, Note_on_c, 0, 69, 50
3, 324153, Note_on_c, 0, 62, 57
3, 324156, Note_on_c, 0, 66, 35
3, 324313, Note_on_c, 0, 37, 0
3, 324387, Note_on_c, 0, 38, 22
3, 324390, Note_on_c, 0, 59, 0
3, 324441, Note_on_c, 0, 62, 0
3, 324446, Note_on_c, 0, 69, 0
3, 324489, Note_on_c, 0, 66, 0
3, 324696, Note_on_c, 0, 69, 37
3, 324701, Note_on_c, 0, 66, 29
3, 324710, Note_on_c, 0, 62, 36
3, 324736, Note_on_c, 0, 59, 22
3, 324742, Note_on_c, 0, 57, 26
3, 324957, Note_on_c, 0, 57, 0
3, 324981, Note_on_c, 0, 59, 0
3, 324982, Note_on_c, 0, 62, 0
3, 325017, Note_on_c, 0, 69, 0
3, 325049, Note_on_c, 0, 66, 0
3, 325425, Note_on_c, 0, 66, 37
3, 325432, Note_on_c, 0, 59, 29
3, 325433, Note_on_c, 0, 69, 34
3, 325435, Note_on_c, 0, 62, 46
3, 325443, Note_on_c, 0, 57, 35
3, 325829, Note_on_c, 0, 57, 0
3, 325867, Note_on_c, 0, 59, 0
3, 325877, Note_on_c, 0, 69, 0
3, 325878, Note_on_c, 0, 62, 0
3, 325917, Note_on_c, 0, 38, 0
3, 325936, Note_on_c, 0, 66, 0
3, 326043, Note_on_c, 0, 30, 46
3, 326336, Note_on_c, 0, 30, 0
3, 326361, Note_on_c, 0, 31, 43
3, 327030, Note_on_c, 0, 59, 42
3, 327033, Note_on_c, 0, 66, 33
3, 327035, Note_on_c, 0, 62, 53
3, 327037, Note_on_c, 0, 69, 46
3, 327141, Note_on_c, 0, 59, 0
3, 327152, Note_on_c, 0, 69, 0
3, 327153, Note_on_c, 0, 62, 0
3, 327189, Note_on_c, 0, 66, 0
3, 327557, Note_on_c, 0, 31, 0
3, 327669, Note_on_c, 0, 67, 63
3, 327691, Note_on_c, 0, 62, 58
3, 327704, Note_on_c, 0, 59, 42
3, 327987, Note_on_c, 0, 37, 45
3, 327989, Note_on_c, 0, 59, 0
3, 328015, Note_on_c, 0, 62, 0
3, 328077, Note_on_c, 0, 67, 0
3, 328238, Note_on_c, 0, 37, 0
3, 328301, Note_on_c, 0, 38, 32
3, 328333, Note_on_c, 0, 62, 35
3, 328345, Note_on_c, 0, 59, 41
3, 328830, Note_on_c, 0, 59, 0
3, 328960, Note_on_c, 0, 62, 0
3, 329257, Note_on_c, 0, 64, 32
3, 329265, Note_on_c, 0, 59, 26
3, 329291, Note_on_c, 0, 62, 18
3, 329582, Note_on_c, 0, 62, 0
3, 329909, Note_on_c, 0, 59, 0
3, 329912, Note_on_c, 0, 38, 0
3, 329921, Note_on_c, 0, 39, 35
3, 330043, Note_on_c, 0, 64, 0
3, 330142, Note_on_c, 0, 39, 0
3, 330192, Note_on_c, 0, 40, 35
3, 330233, Note_on_c, 0, 66, 23
3, 330235, Note_on_c, 0, 62, 27
3, 330251, Note_on_c, 0, 57, 18
3, 330875, Note_on_c, 0, 34, 60
3, 330892, Note_on_c, 0, 40, 0
3, 331059, Note_on_c, 0, 34, 0
3, 331219, Note_on_c, 0, 35, 41
3, 331985, Note_on_c, 0, 57, 0
3, 332136, Note_on_c, 0, 35, 0
3, 332160, Note_on_c, 0, 28, 47
3, 333067, Note_on_c, 0, 29, 19
3, 333233, Note_on_c, 0, 28, 0
3, 333278, Note_on_c, 0, 29, 0
3, 333723, Note_on_c, 0, 62, 0
3, 333766, Note_on_c, 0, 66, 0
3, 333774, Note_on_c, 0, 50, 64
3, 333984, Note_on_c, 0, 50, 0
3, 334113, Note_on_c, 0, 64, 31
3, 334125, Note_on_c, 0, 57, 43
3, 334139, Note_on_c, 0, 52, 36
3, 334153, Note_on_c, 0, 59, 35
3, 334471, Note_on_c, 0, 64, 0
3, 334512, Note_on_c, 0, 57, 0
3, 334537, Note_on_c, 0, 59, 0
3, 334633, Note_on_c, 0, 52, 0
3, 334765, Note_on_c, 0, 50, 29
3, 334968, Note_on_c, 0, 50, 0
3, 335070, Note_on_c, 0, 53, 39
3, 335073, Note_on_c, 0, 52, 29
3, 335081, Note_on_c, 0, 59, 41
3, 335091, Note_on_c, 0, 57, 32
3, 335105, Note_on_c, 0, 64, 22
3, 335571, Note_on_c, 0, 59, 0
3, 335574, Note_on_c, 0, 57, 0
3, 335668, Note_on_c, 0, 53, 0
3, 335673, Note_on_c, 0, 64, 0
3, 335792, Note_on_c, 0, 52, 0
3, 335987, Note_on_c, 0, 52, 32
3, 336019, Note_on_c, 0, 58, 36
3, 336027, Note_on_c, 0, 62, 29
3, 336033, Note_on_c, 0, 53, 28
3, 336038, Note_on_c, 0, 56, 33
3, 336569, Note_on_c, 0, 52, 0
3, 336672, Note_on_c, 0, 41, 54
3, 337165, Note_on_c, 0, 41, 0
3, 337326, Note_on_c, 0, 43, 59
3, 337462, Note_on_c, 0, 53, 0
3, 337504, Note_on_c, 0, 56, 0
3, 337521, Note_on_c, 0, 43, 0
3, 337523, Note_on_c, 0, 58, 0
3, 337601, Note_on_c, 0, 62, 0
3, 337617, Note_on_c, 0, 44, 59
3, 337833, Note_on_c, 0, 44, 0
3, 337920, Note_on_c, 0, 45, 45
3, 338485, Note_on_c, 0, 64, 62
3, 338979, Note_on_c, 0, 64, 0
3, 339097, Note_on_c, 0, 65, 50
3, 339304, Note_on_c, 0, 65, 0
3, 339413, Note_on_c, 0, 64, 38
3, 339558, Note_on_c, 0, 64, 0
3, 339752, Note_on_c, 0, 33, 48
3, 339753, Note_on_c, 0, 72, 61
3, 340177, Note_on_c, 0, 45, 0
3, 340385, Note_on_c, 0, 38, 36
3, 340401, Note_on_c, 0, 33, 0
3, 340582, Note_on_c, 0, 38, 0
3, 340733, Note_on_c, 0, 39, 46
3, 341371, Note_on_c, 0, 39, 0
3, 341478, Note_on_c, 0, 38, 17
3, 341568, Note_on_c, 0, 38, 0
3, 341638, Note_on_c, 0, 40, 55
3, 341680, Note_on_c, 0, 72, 0
3, 342304, Note_on_c, 0, 64, 88
3, 342910, Note_on_c, 0, 64, 0
3, 342949, Note_on_c, 0, 65, 60
3, 343121, Note_on_c, 0, 65, 0
3, 343262, Note_on_c, 0, 64, 64
3, 343408, Note_on_c, 0, 64, 0
3, 343598, Note_on_c, 0, 28, 43
3, 344264, Note_on_c, 0, 71, 92
3, 344664, Note_on_c, 0, 28, 0
3, 344918, Note_on_c, 0, 72, 58
3, 344998, Note_on_c, 0, 71, 0
3, 345112, Note_on_c, 0, 72, 0
3, 345221, Note_on_c, 0, 74, 60
3, 345222, Note_on_c, 0, 40, 0
3, 345438, Note_on_c, 0, 74, 0
3, 345523, Note_on_c, 0, 45, 38
3, 345563, Note_on_c, 0, 64, 38
3, 345575, Note_on_c, 0, 76, 40
3, 345585, Note_on_c, 0, 69, 37
3, 345590, Note_on_c, 0, 72, 37
3, 346064, Note_on_c, 0, 72, 0
3, 346084, Note_on_c, 0, 64, 0
3, 346094, Note_on_c, 0, 69, 0
3, 346141, Note_on_c, 0, 76, 0
3, 346240, Note_on_c, 0, 74, 29
3, 346283, Note_on_c, 0, 45, 0
3, 346302, Note_on_c, 0, 44, 25
3, 346368, Note_on_c, 0, 74, 0
3, 346470, Note_on_c, 0, 44, 0
3, 346537, Note_on_c, 0, 64, 34
3, 346553, Note_on_c, 0, 76, 40
3, 346560, Note_on_c, 0, 45, 40
3, 346564, Note_on_c, 0, 72, 31
3, 346568, Note_on_c, 0, 69, 30
3, 346997, Control_c, 0, 64, 127
3, 347333, Control_c, 0, 64, 0
3, 347509, Control_c, 0, 64, 127
3, 347742, Note_on_c, 0, 69, 0
3, 347750, Note_on_c, 0, 64, 0
3, 347861, Note_on_c, 0, 72, 0
3, 347925, Note_on_c, 0, 76, 0
3, 347945, Note_on_c, 0, 45, 0
3, 348107, Note_on_c, 0, 74, 57
3, 348144, Note_on_c, 0, 64, 26
3, 348145, Note_on_c, 0, 45, 38
3, 348153, Note_on_c, 0, 69, 40
3, 348285, Note_on_c, 0, 64, 0
3, 348336, Note_on_c, 0, 69, 0
3, 348355, Note_on_c, 0, 45, 0
3, 348486, Note_on_c, 0, 74, 0
3, 349062, Note_on_c, 0, 70, 30
3, 349105, Note_on_c, 0, 86, 75
3, 349117, Note_on_c, 0, 70, 0
3, 349126, Note_on_c, 0, 69, 55
3, 349131, Control_c, 0, 64, 0
3, 349133, Note_on_c, 0, 79, 71
3, 349142, Note_on_c, 0, 75, 58
3, 349153, Note_on_c, 0, 71, 73
3, 349181, Note_on_c, 0, 69, 0
3, 349515, Control_c, 0, 64, 127
3, 349833, Note_on_c, 0, 75, 0
3, 349846, Note_on_c, 0, 86, 0
3, 349872, Note_on_c, 0, 79, 0
3, 350043, Control_c, 0, 64, 0
3, 350046, Note_on_c, 0, 84, 68
3, 350047, Note_on_c, 0, 75, 53
3, 350075, Note_on_c, 0, 79, 56
3, 350086, Note_on_c, 0, 69, 53
3, 350112, Note_on_c, 0, 71, 0
3, 350285, Control_c, 0, 64, 127
3, 350352, Note_on_c, 0, 79, 0
3, 350368, Note_on_c, 0, 84, 0
3, 350496, Note_on_c, 0, 75, 0
3, 350725, Note_on_c, 0, 69, 0
3, 350984, Note_on_c, 0, 83, 60
3, 350990, Control_c, 0, 64, 0
3, 350995, Note_on_c, 0, 67, 39
3, 350997, Note_on_c, 0, 75, 51
3, 351008, Note_on_c, 0, 79, 46
3, 351030, Note_on_c, 0, 72, 34
3, 351035, Note_on_c, 0, 71, 39
3, 351219, Note_on_c, 0, 71, 0
3, 351296, Control_c, 0, 64, 127
3, 351371, Note_on_c, 0, 79, 0
3, 351397, Note_on_c, 0, 83, 0
3, 351539, Note_on_c, 0, 72, 0
3, 351563, Note_on_c, 0, 75, 0
3, 351737, Note_on_c, 0, 67, 0
3, 351920, Control_c, 0, 64, 0
3, 351928, Note_on_c, 0, 81, 51
3, 351936, Note_on_c, 0, 75, 46
3, 351953, Note_on_c, 0, 78, 45
3, 351958, Note_on_c, 0, 72, 34
3, 351975, Note_on_c, 0, 66, 34
3, 352147, Note_on_c, 0, 66, 0
3, 352177, Control_c, 0, 64, 127
3, 352205, Note_on_c, 0, 72, 0
3, 352433, Note_on_c, 0, 78, 0
3, 352449, Note_on_c, 0, 75, 0
3, 352704, Note_on_c, 0, 81, 0
3, 352851, Control_c, 0, 64, 0
3, 352870, Note_on_c, 0, 81, 33
3, 352879, Note_on_c, 0, 78, 37
3, 352894, Note_on_c, 0, 74, 49
3, 352902, Note_on_c, 0, 47, 28
3, 352903, Note_on_c, 0, 57, 24
3, 352913, Note_on_c, 0, 69, 34
3, 353253, Control_c, 0, 64, 127
3, 353510, Note_on_c, 0, 57, 0
3, 353512, Note_on_c, 0, 69, 0
3, 353547, Note_on_c, 0, 74, 0
3, 353560, Note_on_c, 0, 78, 0
3, 353601, Note_on_c, 0, 81, 0
3, 353615, Note_on_c, 0, 47, 0
3, 353833, Note_on_c, 0, 47, 33
3, 353840, Note_on_c, 0, 57, 30
3, 353843, Note_on_c, 0, 78, 35
3, 353848, Note_on_c, 0, 81, 38
3, 353854, Note_on_c, 0, 69, 38
3, 353867, Note_on_c, 0, 74, 44
3, 354003, Note_on_c, 0, 57, 0
3, 354014, Note_on_c, 0, 47, 0
3, 354016, Note_on_c, 0, 69, 0
3, 354032, Note_on_c, 0, 74, 0
3, 354033, Note_on_c, 0, 81, 0
3, 354037, Control_c, 0, 64, 0
3, 354054, Note_on_c, 0, 78, 0
3, 354244, Note_on_c, 0, 57, 26
3, 354269, Note_on_c, 0, 47, 26
3, 354275, Note_on_c, 0, 69, 33
3, 354276, Note_on_c, 0, 78, 25
3, 354294, Control_c, 0, 64, 127
3, 354295, Note_on_c, 0, 74, 37
3, 354310, Note_on_c, 0, 81, 17
3, 354365, Note_on_c, 0, 57, 0
3, 354366, Note_on_c, 0, 47, 0
3, 354400, Note_on_c, 0, 69, 0
3, 354403, Note_on_c, 0, 74, 0
3, 354424, Note_on_c, 0, 81, 0
3, 354432, Note_on_c, 0, 78, 0
3, 354777, Note_on_c, 0, 47, 36
3, 354814, Note_on_c, 0, 69, 57
3, 354821, Note_on_c, 0, 78, 26
3, 354822, Note_on_c, 0, 81, 33
3, 354846, Note_on_c, 0, 79, 27
3, 354867, Note_on_c, 0, 47, 0
3, 354910, Note_on_c, 0, 79, 0
3, 354911, Note_on_c, 0, 81, 0
3, 354925, Note_on_c, 0, 78, 0
3, 354989, Note_on_c, 0, 69, 0
3, 355000, Control_c, 0, 64, 0
3, 355230, Note_on_c, 0, 79, 28
3, 355233, Note_on_c, 0, 56, 25
3, 355241, Note_on_c, 0, 67, 29
3, 355243, Note_on_c, 0, 46, 21
3, 355251, Note_on_c, 0, 76, 34
3, 355267, Note_on_c, 0, 72, 32
3, 355424, Note_on_c, 0, 46, 0
3, 355456, Note_on_c, 0, 79, 0
3, 355457, Note_on_c, 0, 72, 0
3, 355505, Note_on_c, 0, 67, 0
3, 355507, Note_on_c, 0, 76, 0
3, 355531, Note_on_c, 0, 56, 0
3, 356043, Control_c, 0, 64, 127
3, 356057, Note_on_c, 0, 79, 32
3, 356064, Note_on_c, 0, 46, 32
3, 356078, Note_on_c, 0, 72, 37
3, 356153, Note_on_c, 0, 79, 0
3, 356155, Note_on_c, 0, 72, 0
3, 356417, Note_on_c, 0, 46, 0
3, 356990, Control_c, 0, 64, 0
3, 357109, Note_on_c, 0, 74, 53
3, 357129, Note_on_c, 0, 67, 36
3, 357144, Note_on_c, 0, 60, 39
3, 357145, Note_on_c, 0, 62, 33
3, 357165, Note_on_c, 0, 55, 29
3, 357169, Note_on_c, 0, 45, 32
3, 357520, Control_c, 0, 64, 127
3, 358288, Note_on_c, 0, 55, 0
3, 358366, Note_on_c, 0, 45, 0
3, 358405, Note_on_c, 0, 60, 0
3, 358608, Note_on_c, 0, 62, 0
3, 358608, Note_on_c, 0, 67, 0
3, 358627, Note_on_c, 0, 74, 0
3, 358705, Note_on_c, 0, 72, 66
3, 358973, Note_on_c, 0, 72, 0
3, 359281, Control_c, 0, 64, 0
3, 359296, Note_on_c, 0, 71, 51
3, 359336, Note_on_c, 0, 50, 47
3, 359409, Note_on_c, 0, 71, 0
3, 359489, Note_on_c, 0, 50, 0
3, 359913, Note_on_c, 0, 48, 45
3, 360046, Note_on_c, 0, 48, 0
3, 360654, Note_on_c, 0, 47, 51
3, 360665, Note_on_c, 0, 35, 51
3, 360744, Note_on_c, 0, 35, 0
3, 360821, Note_on_c, 0, 47, 0
3, 360854, Control_c, 0, 64, 127
3, 361614, Note_on_c, 0, 62, 48
3, 361616, Note_on_c, 0, 66, 42
3, 361630, Note_on_c, 0, 57, 36
3, 361720, Control_c, 0, 64, 0
3, 362006, Note_on_c, 0, 90, 77
3, 362249, Control_c, 0, 64, 127
3, 362272, Note_on_c, 0, 83, 57
3, 362368, Note_on_c, 0, 90, 0
3, 362387, Note_on_c, 0, 57, 0
3, 362411, Note_on_c, 0, 83, 0
3, 362481, Note_on_c, 0, 62, 0
3, 362531, Note_on_c, 0, 66, 0
3, 362585, Note_on_c, 0, 86, 85
3, 362753, Note_on_c, 0, 86, 0
3, 362827, Control_c, 0, 64, 0
3, 362891, Note_on_c, 0, 86, 66
3, 362923, Note_on_c, 0, 62, 36
3, 362935, Note_on_c, 0, 67, 43
3, 362952, Note_on_c, 0, 56, 34
3, 362977, Note_on_c, 0, 87, 44
3, 363205, Note_on_c, 0, 87, 0
3, 363216, Note_on_c, 0, 88, 56
3, 363221, Note_on_c, 0, 86, 0
3, 363395, Note_on_c, 0, 88, 0
3, 363419, Note_on_c, 0, 67, 0
3, 363430, Note_on_c, 0, 62, 0
3, 363472, Note_on_c, 0, 56, 0
3, 363833, Note_on_c, 0, 91, 78
3, 363861, Note_on_c, 0, 56, 72
3, 363867, Note_on_c, 0, 67, 70
3, 363870, Note_on_c, 0, 62, 64
3, 363900, Control_c, 0, 64, 127
3, 364111, Note_on_c, 0, 67, 0
3, 364113, Note_on_c, 0, 62, 0
3, 364120, Note_on_c, 0, 91, 0
3, 364280, Note_on_c, 0, 56, 0
3, 364480, Control_c, 0, 64, 0
3, 364483, Note_on_c, 0, 95, 83
3, 364485, Note_on_c, 0, 57, 64
3, 364489, Note_on_c, 0, 64, 75
3, 364491, Note_on_c, 0, 83, 80
3, 364494, Note_on_c, 0, 88, 74
3, 364496, Note_on_c, 0, 55, 71
3, 364497, Note_on_c, 0, 91, 64
3, 364517, Note_on_c, 0, 60, 66
3, 364821, Control_c, 0, 64, 127
3, 365025, Note_on_c, 0, 55, 0
3, 365081, Note_on_c, 0, 64, 0
3, 365094, Note_on_c, 0, 60, 0
3, 365097, Note_on_c, 0, 57, 0
3, 365120, Note_on_c, 0, 95, 0
3, 365189, Note_on_c, 0, 83, 0
3, 365217, Note_on_c, 0, 91, 0
3, 365221, Note_on_c, 0, 88, 0
3, 365333, Control_c, 0, 64, 0
3, 365389, Note_on_c, 0, 64, 69
3, 365392, Note_on_c, 0, 60, 60
3, 365398, Note_on_c, 0, 93, 73
3, 365403, Note_on_c, 0, 57, 55
3, 365404, Note_on_c, 0, 55, 65
3, 365408, Note_on_c, 0, 88, 67
3, 365419, Note_on_c, 0, 81, 63
3, 365611, Note_on_c, 0, 81, 0
3, 365638, Control_c, 0, 64, 127
3, 365677, Note_on_c, 0, 88, 0
3, 365685, Note_on_c, 0, 93, 0
3, 365707, Note_on_c, 0, 55, 0
3, 365773, Note_on_c, 0, 64, 0
3, 365789, Note_on_c, 0, 60, 0
3, 365791, Note_on_c, 0, 57, 0
3, 366296, Control_c, 0, 64, 0
3, 366320, Note_on_c, 0, 97, 87
3, 366325, Note_on_c, 0, 60, 69
3, 366326, Note_on_c, 0, 58, 74
3, 366328, Note_on_c, 0, 89, 89
3, 366331, Note_on_c, 0, 101, 83
3, 366335, Note_on_c, 0, 65, 88
3, 366345, Note_on_c, 0, 54, 76
3, 366645, Note_on_c, 0, 98, 44
3, 366646, Note_on_c, 0, 97, 0
3, 366715, Note_on_c, 0, 98, 0
3, 366736, Note_on_c, 0, 60, 0
3, 366761, Note_on_c, 0, 89, 0
3, 366765, Note_on_c, 0, 101, 0
3, 366766, Note_on_c, 0, 65, 0
3, 366779, Note_on_c, 0, 58, 0
3, 366815, Note_on_c, 0, 54, 0
3, 367251, Note_on_c, 0, 98, 74
3, 367264, Note_on_c, 0, 60, 63
3, 367266, Note_on_c, 0, 94, 69
3, 367269, Note_on_c, 0, 58, 69
3, 367270, Note_on_c, 0, 86, 74
3, 367272, Note_on_c, 0, 54, 71
3, 367275, Note_on_c, 0, 65, 80
3, 367614, Control_c, 0, 64, 127
3, 367654, Note_on_c, 0, 86, 0
3, 367692, Note_on_c, 0, 95, 50
3, 367695, Note_on_c, 0, 94, 0
3, 367784, Note_on_c, 0, 95, 0
3, 367789, Note_on_c, 0, 98, 0
3, 367976, Note_on_c, 0, 60, 0
3, 368043, Note_on_c, 0, 65, 0
3, 368045, Note_on_c, 0, 58, 0
3, 368053, Note_on_c, 0, 54, 0
3, 368643, Control_c, 0, 64, 0
3, 368691, Note_on_c, 0, 78, 80
3, 368697, Note_on_c, 0, 63, 69
3, 368699, Note_on_c, 0, 57, 59
3, 368703, Note_on_c, 0, 67, 75
3, 368709, Note_on_c, 0, 69, 88
3, 368713, Note_on_c, 0, 74, 80
3, 368990, Note_on_c, 0, 67, 0
3, 369044, Note_on_c, 0, 69, 0
3, 369072, Note_on_c, 0, 63, 0
3, 369073, Note_on_c, 0, 57, 0
3, 369085, Note_on_c, 0, 74, 0
3, 369115, Note_on_c, 0, 78, 0
3, 369630, Note_on_c, 0, 78, 70
3, 369632, Note_on_c, 0, 57, 68
3, 369637, Note_on_c, 0, 63, 61
3, 369643, Note_on_c, 0, 67, 66
3, 369649, Note_on_c, 0, 74, 73
3, 369651, Note_on_c, 0, 69, 79
3, 369907, Note_on_c, 0, 67, 0
3, 369953, Note_on_c, 0, 69, 0
3, 369976, Note_on_c, 0, 74, 0
3, 370001, Note_on_c, 0, 78, 0
3, 370016, Note_on_c, 0, 63, 0
3, 370075, Note_on_c, 0, 57, 0
3, 370237, Note_on_c, 0, 78, 42
3, 370269, Note_on_c, 0, 69, 45
3, 370276, Note_on_c, 0, 74, 39
3, 370329, Note_on_c, 0, 69, 0
3, 370344, Note_on_c, 0, 74, 0
3, 370399, Note_on_c, 0, 78, 0
3, 370600, Note_on_c, 0, 70, 64
3, 370605, Note_on_c, 0, 79, 64
3, 370617, Note_on_c, 0, 73, 42
3, 370619, Note_on_c, 0, 64, 53
3, 370817, Note_on_c, 0, 79, 0
3, 370856, Note_on_c, 0, 73, 0
3, 370883, Note_on_c, 0, 70, 0
3, 371048, Note_on_c, 0, 64, 0
3, 371251, Note_on_c, 0, 70, 56
3, 371256, Note_on_c, 0, 61, 60
3, 371272, Note_on_c, 0, 76, 53
3, 371273, Note_on_c, 0, 67, 55
3, 371286, Note_on_c, 0, 73, 28
3, 371395, Note_on_c, 0, 76, 0
3, 371429, Note_on_c, 0, 61, 0
3, 371432, Note_on_c, 0, 67, 0
3, 371462, Note_on_c, 0, 70, 0
3, 371464, Note_on_c, 0, 73, 0
3, 372158, Note_on_c, 0, 71, 60
3, 372176, Note_on_c, 0, 64, 63
3, 372193, Note_on_c, 0, 60, 48
3, 372208, Note_on_c, 0, 45, 53
3, 372214, Note_on_c, 0, 55, 48
3, 372279, Note_on_c, 0, 60, 0
3, 372328, Note_on_c, 0, 55, 0
3, 372341, Note_on_c, 0, 64, 0
3, 372366, Note_on_c, 0, 71, 0
3, 372424, Note_on_c, 0, 45, 0
3, 373067, Note_on_c, 0, 50, 53
3, 373088, Note_on_c, 0, 49, 46
3, 373093, Note_on_c, 0, 64, 43
3, 373099, Note_on_c, 0, 60, 32
3, 373110, Note_on_c, 0, 67, 46
3, 373243, Note_on_c, 0, 49, 0
3, 373742, Control_c, 0, 64, 127
3, 373950, Note_on_c, 0, 67, 0
3, 374000, Note_on_c, 0, 64, 0
3, 374070, Note_on_c, 0, 60, 0
3, 374288, Control_c, 0, 64, 0
3, 374361, Note_on_c, 0, 66, 49
3, 374449, Note_on_c, 0, 62, 22
3, 374659, Note_on_c, 0, 62, 0
3, 374821, Note_on_c, 0, 66, 0
3, 374990, Note_on_c, 0, 62, 54
3, 375198, Note_on_c, 0, 62, 0
3, 375254, Note_on_c, 0, 50, 0
3, 375313, Note_on_c, 0, 64, 48
3, 375677, Note_on_c, 0, 64, 0
3, 375926, Note_on_c, 0, 64, 43
3, 375933, Note_on_c, 0, 59, 48
3, 375943, Note_on_c, 0, 67, 32
3, 375968, Note_on_c, 0, 49, 31
3, 376125, Note_on_c, 0, 67, 0
3, 376136, Note_on_c, 0, 59, 0
3, 376145, Note_on_c, 0, 64, 0
3, 376155, Note_on_c, 0, 49, 0
3, 376875, Note_on_c, 0, 48, 34
3, 376896, Note_on_c, 0, 58, 30
3, 376897, Note_on_c, 0, 63, 48
3, 376917, Note_on_c, 0, 67, 24
3, 377035, Note_on_c, 0, 67, 0
3, 377109, Note_on_c, 0, 48, 0
3, 377131, Note_on_c, 0, 63, 0
3, 377153, Note_on_c, 0, 58, 0
3, 377848, Note_on_c, 0, 47, 29
3, 377852, Note_on_c, 0, 67, 36
3, 377854, Note_on_c, 0, 62, 31
3, 377869, Note_on_c, 0, 35, 33
3, 378064, Note_on_c, 0, 67, 0
3, 378070, Note_on_c, 0, 35, 0
3, 378129, Note_on_c, 0, 62, 0
3, 378158, Note_on_c, 0, 47, 0
3, 378816, Note_on_c, 0, 34, 31
3, 378819, Note_on_c, 0, 61, 46
3, 378825, Note_on_c, 0, 56, 28
3, 378840, Note_on_c, 0, 67, 25
3, 378873, Note_on_c, 0, 46, 13
3, 378966, Note_on_c, 0, 67, 0
3, 379046, Note_on_c, 0, 56, 0
3, 379053, Note_on_c, 0, 61, 0
3, 379108, Note_on_c, 0, 34, 0
3, 379141, Note_on_c, 0, 46, 0
3, 379772, Note_on_c, 0, 67, 38
3, 379782, Note_on_c, 0, 60, 41
3, 379808, Note_on_c, 0, 45, 34
3, 379825, Note_on_c, 0, 55, 24
3, 379840, Note_on_c, 0, 33, 25
3, 379929, Note_on_c, 0, 55, 0
3, 379966, Note_on_c, 0, 60, 0
3, 379993, Note_on_c, 0, 33, 0
3, 380004, Note_on_c, 0, 67, 0
3, 380013, Note_on_c, 0, 45, 0
3, 380731, Note_on_c, 0, 60, 37
3, 380747, Note_on_c, 0, 67, 35
3, 380750, Note_on_c, 0, 44, 26
3, 380760, Note_on_c, 0, 32, 31
3, 380849, Control_c, 0, 64, 127
3, 381339, Note_on_c, 0, 60, 0
3, 381387, Note_on_c, 0, 32, 0
3, 381437, Note_on_c, 0, 44, 0
3, 381918, Note_on_c, 0, 67, 0
3, 382149, Control_c, 0, 64, 0
3, 382209, Note_on_c, 0, 61, 29
3, 382222, Note_on_c, 0, 43, 26
3, 382225, Note_on_c, 0, 31, 36
3, 382230, Note_on_c, 0, 59, 32
3, 382677, Control_c, 0, 64, 127
3, 383996, Note_on_c, 0, 59, 0
3, 384006, Note_on_c, 0, 61, 0
3, 384153, Note_on_c, 0, 43, 0
3, 384163, Note_on_c, 0, 31, 0
3, 384191, Note_on_c, 0, 86, 37
3, 384216, Note_on_c, 0, 74, 30
3, 384262, Control_c, 0, 64, 127
3, 384905, Note_on_c, 0, 88, 48
3, 384919, Note_on_c, 0, 73, 37
3, 384925, Note_on_c, 0, 74, 0
3, 384933, Note_on_c, 0, 86, 0
3, 385620, Note_on_c, 0, 73, 0
3, 385716, Note_on_c, 0, 72, 40
3, 385734, Note_on_c, 0, 90, 50
3, 385798, Note_on_c, 0, 88, 0
3, 386646, Control_c, 0, 64, 0
3, 386680, Note_on_c, 0, 71, 53
3, 386688, Note_on_c, 0, 93, 61
3, 386715, Note_on_c, 0, 90, 0
3, 387094, Note_on_c, 0, 72, 0
3, 387157, Control_c, 0, 64, 127
3, 389525, Note_on_c, 0, 71, 0
3, 390638, Note_on_c, 0, 93, 0
3, 394011, Control_c, 0, 64, 0
3, 394011, End_track
4, 0, Start_track
4, 0, Title_t, "MIDI 1"
4, 0, End_track
5, 0, Start_track
5, 0, Title_t, "MIDI 1"
5, 0, End_track
0, 0, End_of_file
