0, 0, Header, 1, 4, 960
1, 0, Start_track
1, 0, Title_t, "Out of Nowhere 1"
1, 0, Text_t, "dougmck@pipeline.com.au. Played in real time\012"
1, 0, Time_signature, 4, 2, 24, 8
1, 0, Key_signature, 1, "major"
1, 0, Tempo, 468750
1, 0, Marker_t, "Walking bass in LH. Notice no pedal used."
1, 42487, Marker_t, "Bass uses lower neighbours (accented) especially when walking down the k'board"
1, 53776, Marker_t, "'Pedal' tones - using octaves and 5ths"
1, 72120, Marker_t, "Walking bass in LHand can wander up into R Hand territory!"
1, 158513, Marker_t, "On E7b9, an easy to do run using 3rd finger on black notes, thumb aaand forefinger on white notes"
1, 188809, Marker_t, "Surrounding notes of G triad"
1, 211412, Marker_t, "An ascending Bb major pentatonic over the E7 chord"
1, 245760, Marker_t, "Deliberate 'wrong' note right on the downbeat resolves by a semitone step"
1, 264496, Marker_t, "'Stabs' of chords between melodic phrases"
1, 272287, Marker_t, "Ascending phrase on E7b9 uses dim chord notes, some connected with chromatic tones."
1, 276184, Marker_t, "Notes of Am triad are surrounded by Neighbour tones"
1, 303621, Marker_t, "Arbitrary melodic shape repeats in several positions before resolving to a chord tone."
1, 310094, Marker_t, "Each note of a G triad is 'surrounded' by it's neighbours"
1, 323435, Marker_t, "A diatonic triplet on each note of a G triad - but using the Lydian C#"
1, 364800, Marker_t, "Same sort of phrase continues from the turnaround bars into the first bars of the new chorus."
1, 385209, Marker_t, "Neighbour tones surround the notes of G triad"
1, 395520, Marker_t, "notes of diminished chord connected chromatically"
1, 423222, Marker_t, "Use thumb and forefinger alternately to 'drum' on notes"
1, 423222, End_track
2, 0, Start_track
2, 0, End_track
3, 0, Start_track
3, 0, Title_t, "MIDI 1"
3, 0, Note_on_c, 0, 39, 21
3, 51, Note_on_c, 0, 39, 0
3, 79, Note_on_c, 0, 43, 34
3, 91, Note_on_c, 0, 62, 47
3, 727, Note_on_c, 0, 62, 0
3, 738, Note_on_c, 0, 64, 62
3, 894, Note_on_c, 0, 64, 0
3, 1041, Note_on_c, 0, 66, 78
3, 1055, Note_on_c, 0, 45, 51
3, 1090, Note_on_c, 0, 43, 0
3, 1592, Note_on_c, 0, 66, 0
3, 1778, Note_on_c, 0, 44, 25
3, 1934, Note_on_c, 0, 45, 0
3, 1947, Note_on_c, 0, 44, 0
3, 1952, Note_on_c, 0, 62, 46
3, 1967, Note_on_c, 0, 66, 30
3, 1973, Note_on_c, 0, 47, 34
3, 1974, Note_on_c, 0, 69, 46
3, 2321, Note_on_c, 0, 62, 0
3, 2359, Note_on_c, 0, 69, 0
3, 2397, Note_on_c, 0, 66, 0
3, 2931, Note_on_c, 0, 49, 40
3, 3162, Note_on_c, 0, 47, 0
3, 3884, Note_on_c, 0, 50, 43
3, 3887, Note_on_c, 0, 49, 0
3, 4812, Note_on_c, 0, 62, 99
3, 4855, Note_on_c, 0, 52, 33
3, 4857, Note_on_c, 0, 50, 0
3, 5327, Note_on_c, 0, 62, 0
3, 5491, Note_on_c, 0, 62, 57
3, 5707, Note_on_c, 0, 62, 0
3, 5802, Note_on_c, 0, 54, 37
3, 6417, Note_on_c, 0, 67, 94
3, 6444, Note_on_c, 0, 65, 50
3, 6496, Note_on_c, 0, 65, 0
3, 6591, Note_on_c, 0, 54, 0
3, 6652, Note_on_c, 0, 52, 0
3, 6678, Note_on_c, 0, 67, 0
3, 6701, Note_on_c, 0, 55, 26
3, 6803, Note_on_c, 0, 62, 36
3, 7111, Note_on_c, 0, 55, 0
3, 7250, Note_on_c, 0, 62, 0
3, 7346, Note_on_c, 0, 64, 55
3, 7402, Note_on_c, 0, 46, 26
3, 7513, Note_on_c, 0, 46, 0
3, 7516, Note_on_c, 0, 64, 0
3, 7652, Note_on_c, 0, 65, 68
3, 8288, Note_on_c, 0, 61, 56
3, 8316, Note_on_c, 0, 56, 30
3, 8356, Note_on_c, 0, 41, 32
3, 8532, Note_on_c, 0, 41, 0
3, 8627, Note_on_c, 0, 46, 43
3, 8787, Note_on_c, 0, 46, 0
3, 9268, Note_on_c, 0, 39, 56
3, 9471, Note_on_c, 0, 39, 0
3, 9599, Note_on_c, 0, 41, 37
3, 10248, Note_on_c, 0, 41, 0
3, 10261, Note_on_c, 0, 38, 36
3, 10442, Note_on_c, 0, 38, 0
3, 10518, Note_on_c, 0, 40, 50
3, 11272, Note_on_c, 0, 34, 39
3, 11282, Note_on_c, 0, 65, 0
3, 11284, Note_on_c, 0, 40, 0
3, 11323, Note_on_c, 0, 61, 0
3, 11329, Note_on_c, 0, 56, 0
3, 11479, Note_on_c, 0, 34, 0
3, 11531, Note_on_c, 0, 65, 46
3, 11544, Note_on_c, 0, 39, 31
3, 11547, Note_on_c, 0, 55, 53
3, 11549, Note_on_c, 0, 61, 42
3, 12170, Note_on_c, 0, 39, 0
3, 12187, Note_on_c, 0, 34, 46
3, 12368, Note_on_c, 0, 34, 0
3, 12442, Note_on_c, 0, 27, 73
3, 13437, Note_on_c, 0, 39, 78
3, 14275, Note_on_c, 0, 39, 0
3, 14333, Note_on_c, 0, 27, 0
3, 14348, Note_on_c, 0, 55, 0
3, 14363, Note_on_c, 0, 30, 70
3, 14434, Note_on_c, 0, 61, 0
3, 14476, Note_on_c, 0, 65, 0
3, 15272, Note_on_c, 0, 30, 0
3, 15349, Note_on_c, 0, 31, 57
3, 16013, Note_on_c, 0, 62, 68
3, 16025, Note_on_c, 0, 57, 68
3, 16026, Note_on_c, 0, 59, 66
3, 16140, Note_on_c, 0, 57, 0
3, 16151, Note_on_c, 0, 59, 0
3, 16241, Note_on_c, 0, 62, 0
3, 16337, Note_on_c, 0, 38, 37
3, 16357, Note_on_c, 0, 31, 0
3, 16403, Note_on_c, 0, 64, 54
3, 16442, Note_on_c, 0, 57, 32
3, 16574, Note_on_c, 0, 57, 0
3, 16624, Note_on_c, 0, 64, 0
3, 16974, Note_on_c, 0, 66, 63
3, 17002, Note_on_c, 0, 42, 38
3, 17017, Note_on_c, 0, 57, 38
3, 17086, Note_on_c, 0, 57, 0
3, 17125, Note_on_c, 0, 42, 0
3, 17133, Note_on_c, 0, 66, 0
3, 17221, Note_on_c, 0, 38, 0
3, 17307, Note_on_c, 0, 59, 75
3, 17310, Note_on_c, 0, 62, 66
3, 17324, Note_on_c, 0, 66, 32
3, 17327, Note_on_c, 0, 69, 64
3, 17348, Note_on_c, 0, 45, 73
3, 17385, Note_on_c, 0, 67, 27
3, 17434, Note_on_c, 0, 67, 0
3, 18080, Note_on_c, 0, 59, 0
3, 18089, Note_on_c, 0, 62, 0
3, 18140, Note_on_c, 0, 45, 0
3, 18149, Note_on_c, 0, 69, 0
3, 18170, Note_on_c, 0, 66, 0
3, 18194, Note_on_c, 0, 44, 53
3, 19013, Note_on_c, 0, 42, 20
3, 19075, Note_on_c, 0, 42, 0
3, 19103, Note_on_c, 0, 44, 0
3, 19141, Note_on_c, 0, 43, 53
3, 20079, Note_on_c, 0, 43, 0
3, 20137, Note_on_c, 0, 38, 49
3, 20154, Note_on_c, 0, 67, 87
3, 20155, Note_on_c, 0, 62, 92
3, 20162, Note_on_c, 0, 59, 88
3, 20627, Note_on_c, 0, 62, 0
3, 20641, Note_on_c, 0, 59, 0
3, 20725, Note_on_c, 0, 67, 0
3, 21138, Note_on_c, 0, 31, 35
3, 21149, Note_on_c, 0, 38, 0
3, 21159, Note_on_c, 0, 62, 37
3, 21161, Note_on_c, 0, 59, 40
3, 21736, Note_on_c, 0, 59, 0
3, 21785, Note_on_c, 0, 62, 0
3, 22101, Note_on_c, 0, 38, 34
3, 22167, Note_on_c, 0, 31, 0
3, 22705, Note_on_c, 0, 64, 63
3, 22734, Note_on_c, 0, 59, 62
3, 22929, Note_on_c, 0, 59, 0
3, 23006, Note_on_c, 0, 64, 0
3, 23025, Note_on_c, 0, 38, 0
3, 23092, Note_on_c, 0, 35, 42
3, 23166, Note_on_c, 0, 66, 40
3, 23177, Note_on_c, 0, 57, 44
3, 23194, Note_on_c, 0, 62, 40
3, 23970, Note_on_c, 0, 35, 0
3, 24031, Note_on_c, 0, 47, 80
3, 24909, Note_on_c, 0, 47, 0
3, 24993, Note_on_c, 0, 42, 53
3, 25266, Note_on_c, 0, 42, 0
3, 25652, Note_on_c, 0, 38, 49
3, 25784, Note_on_c, 0, 57, 0
3, 25821, Note_on_c, 0, 62, 0
3, 25853, Note_on_c, 0, 38, 0
3, 25893, Note_on_c, 0, 66, 0
3, 25927, Note_on_c, 0, 39, 59
3, 26588, Note_on_c, 0, 60, 53
3, 26590, Note_on_c, 0, 67, 50
3, 26597, Note_on_c, 0, 56, 38
3, 26612, Note_on_c, 0, 62, 43
3, 26647, Note_on_c, 0, 56, 0
3, 26648, Note_on_c, 0, 67, 0
3, 26673, Note_on_c, 0, 60, 0
3, 26677, Note_on_c, 0, 62, 0
3, 26704, Note_on_c, 0, 39, 0
3, 26758, Note_on_c, 0, 40, 44
3, 27448, Note_on_c, 0, 74, 91
3, 27578, Note_on_c, 0, 74, 0
3, 27765, Note_on_c, 0, 40, 0
3, 27788, Note_on_c, 0, 46, 36
3, 28132, Note_on_c, 0, 70, 61
3, 28280, Note_on_c, 0, 70, 0
3, 28476, Note_on_c, 0, 65, 48
3, 28640, Note_on_c, 0, 65, 0
3, 28790, Note_on_c, 0, 53, 41
3, 28799, Note_on_c, 0, 62, 32
3, 28965, Note_on_c, 0, 62, 0
3, 29071, Note_on_c, 0, 46, 0
3, 29153, Note_on_c, 0, 58, 57
3, 29221, Note_on_c, 0, 53, 0
3, 29502, Note_on_c, 0, 58, 0
3, 29504, Note_on_c, 0, 55, 22
3, 29664, Note_on_c, 0, 55, 0
3, 29756, Note_on_c, 0, 46, 29
3, 29766, Note_on_c, 0, 64, 62
3, 29958, Note_on_c, 0, 64, 0
3, 30069, Note_on_c, 0, 56, 45
3, 30251, Note_on_c, 0, 56, 0
3, 30263, Note_on_c, 0, 46, 0
3, 30378, Note_on_c, 0, 44, 44
3, 30402, Note_on_c, 0, 59, 66
3, 30625, Note_on_c, 0, 59, 0
3, 30709, Note_on_c, 0, 62, 68
3, 30719, Note_on_c, 0, 44, 0
3, 30761, Note_on_c, 0, 45, 47
3, 30916, Note_on_c, 0, 62, 0
3, 31073, Note_on_c, 0, 59, 39
3, 31356, Note_on_c, 0, 59, 0
3, 31709, Note_on_c, 0, 33, 40
3, 31812, Note_on_c, 0, 45, 0
3, 32074, Note_on_c, 0, 64, 68
3, 32089, Note_on_c, 0, 55, 62
3, 32104, Note_on_c, 0, 60, 47
3, 32167, Note_on_c, 0, 55, 0
3, 32183, Note_on_c, 0, 60, 0
3, 32259, Note_on_c, 0, 64, 0
3, 32356, Note_on_c, 0, 65, 75
3, 32373, Note_on_c, 0, 60, 54
3, 32385, Note_on_c, 0, 57, 40
3, 32442, Note_on_c, 0, 57, 0
3, 32473, Note_on_c, 0, 60, 0
3, 32532, Note_on_c, 0, 65, 0
3, 32660, Note_on_c, 0, 45, 56
3, 32661, Note_on_c, 0, 64, 34
3, 32797, Note_on_c, 0, 64, 0
3, 33048, Note_on_c, 0, 72, 73
3, 33058, Note_on_c, 0, 64, 71
3, 33059, Note_on_c, 0, 69, 67
3, 33066, Note_on_c, 0, 67, 63
3, 33090, Note_on_c, 0, 45, 0
3, 33421, Note_on_c, 0, 64, 0
3, 33438, Note_on_c, 0, 67, 0
3, 33450, Note_on_c, 0, 69, 0
3, 33453, Note_on_c, 0, 72, 0
3, 33661, Note_on_c, 0, 64, 75
3, 33666, Note_on_c, 0, 72, 68
3, 33669, Note_on_c, 0, 45, 57
3, 33671, Note_on_c, 0, 67, 66
3, 33677, Note_on_c, 0, 69, 64
3, 33941, Note_on_c, 0, 69, 0
3, 33961, Note_on_c, 0, 67, 0
3, 33968, Note_on_c, 0, 64, 0
3, 33970, Note_on_c, 0, 72, 0
3, 34057, Note_on_c, 0, 33, 0
3, 34142, Note_on_c, 0, 45, 0
3, 34285, Note_on_c, 0, 39, 68
3, 34492, Note_on_c, 0, 39, 0
3, 34617, Note_on_c, 0, 40, 60
3, 35530, Note_on_c, 0, 65, 58
3, 35550, Note_on_c, 0, 56, 47
3, 35566, Note_on_c, 0, 60, 41
3, 35578, Note_on_c, 0, 62, 42
3, 35662, Note_on_c, 0, 65, 0
3, 35687, Note_on_c, 0, 56, 0
3, 35740, Note_on_c, 0, 62, 0
3, 35753, Note_on_c, 0, 60, 0
3, 35873, Note_on_c, 0, 67, 74
3, 35891, Note_on_c, 0, 60, 37
3, 35960, Note_on_c, 0, 60, 0
3, 36016, Note_on_c, 0, 67, 0
3, 36172, Note_on_c, 0, 65, 57
3, 36225, Note_on_c, 0, 47, 51
3, 36275, Note_on_c, 0, 65, 0
3, 36334, Note_on_c, 0, 40, 0
3, 36399, Note_on_c, 0, 47, 0
3, 36521, Note_on_c, 0, 71, 75
3, 36535, Note_on_c, 0, 68, 54
3, 36542, Note_on_c, 0, 62, 75
3, 36549, Note_on_c, 0, 64, 66
3, 36552, Note_on_c, 0, 56, 79
3, 36582, Note_on_c, 0, 69, 37
3, 36636, Note_on_c, 0, 69, 0
3, 36981, Note_on_c, 0, 62, 0
3, 36997, Note_on_c, 0, 71, 0
3, 37018, Note_on_c, 0, 64, 0
3, 37055, Note_on_c, 0, 68, 0
3, 37133, Note_on_c, 0, 71, 36
3, 37136, Note_on_c, 0, 56, 0
3, 37163, Note_on_c, 0, 62, 57
3, 37164, Note_on_c, 0, 64, 55
3, 37228, Note_on_c, 0, 64, 0
3, 37264, Note_on_c, 0, 71, 0
3, 37334, Note_on_c, 0, 62, 0
3, 37491, Note_on_c, 0, 59, 68
3, 37502, Note_on_c, 0, 62, 60
3, 37516, Note_on_c, 0, 52, 17
3, 37525, Note_on_c, 0, 67, 36
3, 37743, Note_on_c, 0, 67, 0
3, 37842, Note_on_c, 0, 62, 0
3, 37846, Note_on_c, 0, 59, 0
3, 38041, Note_on_c, 0, 52, 0
3, 38083, Note_on_c, 0, 46, 37
3, 38305, Note_on_c, 0, 46, 0
3, 38364, Note_on_c, 0, 45, 44
3, 38367, Note_on_c, 0, 71, 54
3, 38381, Note_on_c, 0, 60, 45
3, 38383, Note_on_c, 0, 64, 50
3, 38387, Note_on_c, 0, 67, 53
3, 39063, Note_on_c, 0, 49, 33
3, 39297, Note_on_c, 0, 45, 0
3, 39315, Note_on_c, 0, 49, 0
3, 39387, Note_on_c, 0, 53, 69
3, 40109, Note_on_c, 0, 60, 0
3, 40116, Note_on_c, 0, 53, 0
3, 40154, Note_on_c, 0, 64, 0
3, 40173, Note_on_c, 0, 67, 0
3, 40213, Note_on_c, 0, 71, 0
3, 40276, Note_on_c, 0, 69, 59
3, 40277, Note_on_c, 0, 60, 31
3, 40282, Note_on_c, 0, 64, 54
3, 40309, Note_on_c, 0, 52, 35
3, 40980, Note_on_c, 0, 69, 0
3, 41053, Note_on_c, 0, 60, 0
3, 41109, Note_on_c, 0, 64, 0
3, 41262, Note_on_c, 0, 70, 45
3, 41263, Note_on_c, 0, 51, 46
3, 41265, Note_on_c, 0, 64, 30
3, 41266, Note_on_c, 0, 60, 28
3, 41277, Note_on_c, 0, 52, 0
3, 41644, Note_on_c, 0, 64, 0
3, 41707, Note_on_c, 0, 60, 0
3, 41730, Note_on_c, 0, 70, 0
3, 41898, Note_on_c, 0, 60, 31
3, 41913, Note_on_c, 0, 64, 48
3, 41918, Note_on_c, 0, 69, 57
3, 42085, Note_on_c, 0, 51, 0
3, 42207, Note_on_c, 0, 50, 37
3, 42899, Note_on_c, 0, 50, 0
3, 42912, Note_on_c, 0, 47, 41
3, 43089, Note_on_c, 0, 47, 0
3, 43197, Note_on_c, 0, 48, 48
3, 43900, Note_on_c, 0, 48, 0
3, 43925, Note_on_c, 0, 44, 28
3, 44058, Note_on_c, 0, 44, 0
3, 44118, Note_on_c, 0, 47, 57
3, 44761, Note_on_c, 0, 47, 0
3, 44787, Note_on_c, 0, 44, 44
3, 45068, Note_on_c, 0, 44, 0
3, 45112, Note_on_c, 0, 45, 54
3, 45216, Note_on_c, 0, 64, 0
3, 45583, Note_on_c, 0, 69, 0
3, 45665, Note_on_c, 0, 60, 0
3, 45778, Note_on_c, 0, 44, 32
3, 45949, Note_on_c, 0, 45, 0
3, 45957, Note_on_c, 0, 44, 0
3, 46080, Note_on_c, 0, 61, 56
3, 46087, Note_on_c, 0, 39, 51
3, 46089, Note_on_c, 0, 72, 58
3, 46092, Note_on_c, 0, 65, 60
3, 46179, Note_on_c, 0, 72, 0
3, 46660, Note_on_c, 0, 61, 0
3, 46675, Note_on_c, 0, 65, 0
3, 46868, Note_on_c, 0, 46, 50
3, 46920, Note_on_c, 0, 39, 0
3, 47058, Note_on_c, 0, 70, 83
3, 47065, Note_on_c, 0, 61, 85
3, 47072, Note_on_c, 0, 65, 80
3, 47585, Note_on_c, 0, 61, 0
3, 47622, Note_on_c, 0, 70, 0
3, 47652, Note_on_c, 0, 65, 0
3, 47701, Note_on_c, 0, 61, 53
3, 47716, Note_on_c, 0, 69, 73
3, 47718, Note_on_c, 0, 65, 33
3, 47973, Note_on_c, 0, 55, 34
3, 48051, Note_on_c, 0, 55, 0
3, 48101, Note_on_c, 0, 61, 0
3, 48117, Note_on_c, 0, 65, 0
3, 48200, Note_on_c, 0, 69, 0
3, 48249, Note_on_c, 0, 61, 47
3, 48284, Note_on_c, 0, 67, 60
3, 48659, Note_on_c, 0, 61, 0
3, 48700, Note_on_c, 0, 67, 0
3, 48756, Note_on_c, 0, 46, 0
3, 48949, Note_on_c, 0, 67, 62
3, 48952, Note_on_c, 0, 61, 63
3, 48961, Note_on_c, 0, 46, 40
3, 49420, Note_on_c, 0, 61, 0
3, 49541, Note_on_c, 0, 67, 0
3, 49566, Note_on_c, 0, 61, 63
3, 49587, Note_on_c, 0, 39, 72
3, 49594, Note_on_c, 0, 69, 69
3, 49635, Note_on_c, 0, 46, 0
3, 49876, Note_on_c, 0, 61, 0
3, 49984, Note_on_c, 0, 69, 0
3, 50218, Note_on_c, 0, 70, 67
3, 50224, Note_on_c, 0, 61, 64
3, 50235, Note_on_c, 0, 65, 64
3, 50268, Note_on_c, 0, 46, 44
3, 50408, Note_on_c, 0, 39, 0
3, 50659, Note_on_c, 0, 70, 0
3, 50686, Note_on_c, 0, 61, 0
3, 50711, Note_on_c, 0, 65, 0
3, 50833, Note_on_c, 0, 55, 76
3, 50856, Note_on_c, 0, 70, 57
3, 50861, Note_on_c, 0, 61, 55
3, 50873, Note_on_c, 0, 65, 50
3, 51291, Note_on_c, 0, 70, 0
3, 51294, Note_on_c, 0, 61, 0
3, 51307, Note_on_c, 0, 65, 0
3, 51428, Note_on_c, 0, 55, 0
3, 51529, Note_on_c, 0, 70, 65
3, 51531, Note_on_c, 0, 61, 68
3, 51537, Note_on_c, 0, 55, 72
3, 51541, Note_on_c, 0, 65, 74
3, 52197, Note_on_c, 0, 46, 0
3, 52333, Note_on_c, 0, 61, 0
3, 52386, Note_on_c, 0, 70, 0
3, 52489, Note_on_c, 0, 61, 38
3, 52494, Note_on_c, 0, 46, 48
3, 52524, Note_on_c, 0, 69, 64
3, 52697, Note_on_c, 0, 61, 0
3, 52725, Note_on_c, 0, 65, 0
3, 52790, Note_on_c, 0, 69, 0
3, 52850, Note_on_c, 0, 61, 30
3, 52860, Note_on_c, 0, 67, 50
3, 52996, Note_on_c, 0, 46, 0
3, 53186, Note_on_c, 0, 61, 0
3, 53384, Note_on_c, 0, 67, 0
3, 53403, Note_on_c, 0, 55, 0
3, 53487, Note_on_c, 0, 46, 35
3, 53745, Note_on_c, 0, 46, 0
3, 53786, Note_on_c, 0, 50, 49
3, 53811, Note_on_c, 0, 60, 32
3, 53821, Note_on_c, 0, 64, 36
3, 53827, Note_on_c, 0, 67, 37
3, 54132, Note_on_c, 0, 67, 0
3, 54142, Note_on_c, 0, 64, 0
3, 54148, Note_on_c, 0, 60, 0
3, 54466, Note_on_c, 0, 74, 70
3, 54472, Note_on_c, 0, 38, 36
3, 54629, Note_on_c, 0, 74, 0
3, 54820, Note_on_c, 0, 74, 60
3, 54945, Note_on_c, 0, 38, 0
3, 55037, Note_on_c, 0, 50, 0
3, 55236, Note_on_c, 0, 74, 0
3, 55423, Note_on_c, 0, 74, 50
3, 55434, Note_on_c, 0, 64, 44
3, 55445, Note_on_c, 0, 67, 49
3, 55449, Note_on_c, 0, 69, 53
3, 55452, Note_on_c, 0, 62, 54
3, 55923, Note_on_c, 0, 62, 0
3, 56379, Note_on_c, 0, 50, 42
3, 56698, Note_on_c, 0, 69, 0
3, 56736, Note_on_c, 0, 67, 0
3, 56798, Note_on_c, 0, 64, 0
3, 56845, Note_on_c, 0, 38, 60
3, 56859, Note_on_c, 0, 74, 0
3, 57395, Note_on_c, 0, 72, 57
3, 57404, Note_on_c, 0, 75, 55
3, 57416, Note_on_c, 0, 63, 51
3, 57417, Note_on_c, 0, 68, 53
3, 58140, Note_on_c, 0, 50, 0
3, 58324, Note_on_c, 0, 45, 55
3, 58393, Note_on_c, 0, 38, 0
3, 58399, Note_on_c, 0, 45, 0
3, 58658, Note_on_c, 0, 50, 66
3, 59184, Note_on_c, 0, 50, 0
3, 59257, Note_on_c, 0, 50, 74
3, 60198, Note_on_c, 0, 45, 41
3, 60258, Note_on_c, 0, 45, 0
3, 60393, Note_on_c, 0, 50, 0
3, 60497, Note_on_c, 0, 42, 34
3, 60954, Note_on_c, 0, 72, 0
3, 61063, Note_on_c, 0, 75, 0
3, 61162, Note_on_c, 0, 63, 0
3, 61164, Note_on_c, 0, 39, 31
3, 61207, Note_on_c, 0, 68, 0
3, 61349, Note_on_c, 0, 42, 0
3, 61367, Note_on_c, 0, 39, 0
3, 61415, Note_on_c, 0, 43, 48
3, 62088, Note_on_c, 0, 62, 39
3, 62300, Note_on_c, 0, 43, 0
3, 62326, Note_on_c, 0, 38, 34
3, 62757, Note_on_c, 0, 64, 57
3, 62795, Note_on_c, 0, 62, 0
3, 62871, Note_on_c, 0, 64, 0
3, 63018, Note_on_c, 0, 66, 64
3, 63178, Note_on_c, 0, 38, 0
3, 63209, Note_on_c, 0, 66, 0
3, 63279, Note_on_c, 0, 31, 47
3, 63295, Note_on_c, 0, 69, 75
3, 63959, Note_on_c, 0, 31, 0
3, 63982, Note_on_c, 0, 38, 44
3, 64109, Note_on_c, 0, 38, 0
3, 64262, Note_on_c, 0, 45, 38
3, 64955, Note_on_c, 0, 42, 37
3, 64982, Note_on_c, 0, 45, 0
3, 65198, Note_on_c, 0, 42, 0
3, 65248, Note_on_c, 0, 43, 40
3, 65800, Note_on_c, 0, 69, 0
3, 66226, Note_on_c, 0, 43, 0
3, 66228, Note_on_c, 0, 42, 44
3, 66235, Note_on_c, 0, 67, 77
3, 66932, Note_on_c, 0, 67, 0
3, 67069, Note_on_c, 0, 42, 0
3, 67152, Note_on_c, 0, 40, 46
3, 67194, Note_on_c, 0, 62, 43
3, 68046, Note_on_c, 0, 62, 0
3, 68094, Note_on_c, 0, 40, 0
3, 68134, Note_on_c, 0, 38, 36
3, 68142, Note_on_c, 0, 64, 52
3, 68913, Note_on_c, 0, 38, 0
3, 69089, Note_on_c, 0, 65, 60
3, 69127, Note_on_c, 0, 64, 0
3, 69135, Note_on_c, 0, 39, 46
3, 69872, Note_on_c, 0, 65, 0
3, 69909, Note_on_c, 0, 39, 0
3, 70021, Note_on_c, 0, 65, 67
3, 70027, Note_on_c, 0, 60, 61
3, 70053, Note_on_c, 0, 53, 58
3, 70796, Note_on_c, 0, 65, 0
3, 70849, Note_on_c, 0, 60, 0
3, 71005, Note_on_c, 0, 53, 0
3, 71010, Note_on_c, 0, 60, 51
3, 71035, Note_on_c, 0, 65, 59
3, 71041, Note_on_c, 0, 51, 50
3, 71339, Note_on_c, 0, 60, 0
3, 71400, Note_on_c, 0, 65, 0
3, 71968, Note_on_c, 0, 60, 49
3, 71969, Note_on_c, 0, 65, 58
3, 71982, Note_on_c, 0, 69, 51
3, 71989, Note_on_c, 0, 61, 44
3, 72065, Note_on_c, 0, 51, 0
3, 72124, Note_on_c, 0, 72, 6
3, 72722, Note_on_c, 0, 72, 0
3, 72749, Note_on_c, 0, 61, 0
3, 72751, Note_on_c, 0, 65, 0
3, 72786, Note_on_c, 0, 69, 0
3, 72843, Note_on_c, 0, 60, 0
3, 72903, Note_on_c, 0, 61, 32
3, 72908, Note_on_c, 0, 58, 52
3, 72922, Note_on_c, 0, 70, 48
3, 72925, Note_on_c, 0, 65, 60
3, 73598, Note_on_c, 0, 61, 0
3, 73618, Note_on_c, 0, 65, 0
3, 73873, Note_on_c, 0, 61, 42
3, 73874, Note_on_c, 0, 58, 0
3, 73889, Note_on_c, 0, 57, 47
3, 73894, Note_on_c, 0, 65, 57
3, 73903, Note_on_c, 0, 69, 54
3, 74410, Note_on_c, 0, 69, 0
3, 74581, Note_on_c, 0, 65, 0
3, 74597, Note_on_c, 0, 61, 0
3, 74737, Note_on_c, 0, 70, 0
3, 74852, Note_on_c, 0, 68, 51
3, 74855, Note_on_c, 0, 61, 38
3, 74902, Note_on_c, 0, 65, 43
3, 74905, Note_on_c, 0, 56, 38
3, 74928, Note_on_c, 0, 57, 0
3, 75092, Note_on_c, 0, 56, 0
3, 75493, Note_on_c, 0, 41, 79
3, 75723, Note_on_c, 0, 65, 0
3, 75741, Note_on_c, 0, 61, 0
3, 75864, Note_on_c, 0, 42, 72
3, 75866, Note_on_c, 0, 68, 0
3, 75888, Note_on_c, 0, 41, 0
3, 75941, Note_on_c, 0, 70, 23
3, 76304, Note_on_c, 0, 70, 0
3, 76449, Note_on_c, 0, 39, 29
3, 76485, Note_on_c, 0, 71, 66
3, 76501, Note_on_c, 0, 62, 59
3, 76511, Note_on_c, 0, 66, 65
3, 76581, Note_on_c, 0, 43, 55
3, 76611, Note_on_c, 0, 39, 0
3, 76627, Note_on_c, 0, 42, 0
3, 76631, Note_on_c, 0, 71, 0
3, 76634, Note_on_c, 0, 62, 0
3, 76689, Note_on_c, 0, 66, 0
3, 76953, Note_on_c, 0, 66, 55
3, 77008, Note_on_c, 0, 57, 24
3, 77032, Note_on_c, 0, 62, 26
3, 77041, Note_on_c, 0, 59, 22
3, 77432, Note_on_c, 0, 59, 0
3, 77436, Note_on_c, 0, 62, 0
3, 77446, Note_on_c, 0, 57, 0
3, 77542, Note_on_c, 0, 43, 0
3, 77629, Note_on_c, 0, 50, 35
3, 77637, Note_on_c, 0, 66, 0
3, 77661, Note_on_c, 0, 62, 53
3, 77734, Note_on_c, 0, 59, 18
3, 78114, Note_on_c, 0, 59, 0
3, 78214, Note_on_c, 0, 62, 0
3, 78404, Note_on_c, 0, 64, 71
3, 78539, Note_on_c, 0, 50, 0
3, 78581, Note_on_c, 0, 52, 38
3, 78720, Note_on_c, 0, 64, 0
3, 78892, Note_on_c, 0, 66, 63
3, 79268, Note_on_c, 0, 66, 0
3, 79549, Note_on_c, 0, 69, 49
3, 79558, Note_on_c, 0, 66, 25
3, 79562, Note_on_c, 0, 59, 35
3, 79565, Note_on_c, 0, 62, 41
3, 79571, Note_on_c, 0, 54, 49
3, 79644, Note_on_c, 0, 52, 0
3, 80581, Note_on_c, 0, 54, 0
3, 80603, Note_on_c, 0, 55, 49
3, 81301, Note_on_c, 0, 59, 0
3, 81312, Note_on_c, 0, 66, 0
3, 81314, Note_on_c, 0, 62, 0
3, 81452, Note_on_c, 0, 69, 0
3, 81571, Note_on_c, 0, 55, 0
3, 81579, Note_on_c, 0, 67, 51
3, 81583, Note_on_c, 0, 59, 39
3, 81590, Note_on_c, 0, 50, 40
3, 81604, Note_on_c, 0, 62, 43
3, 81764, Note_on_c, 0, 50, 0
3, 82078, Note_on_c, 0, 67, 0
3, 82095, Note_on_c, 0, 62, 0
3, 82240, Note_on_c, 0, 59, 0
3, 82248, Note_on_c, 0, 42, 51
3, 82527, Note_on_c, 0, 42, 0
3, 82546, Note_on_c, 0, 62, 39
3, 82547, Note_on_c, 0, 43, 42
3, 82559, Note_on_c, 0, 55, 28
3, 82587, Note_on_c, 0, 59, 29
3, 83254, Note_on_c, 0, 59, 0
3, 83264, Note_on_c, 0, 55, 0
3, 83406, Note_on_c, 0, 62, 0
3, 83468, Note_on_c, 0, 43, 0
3, 83487, Note_on_c, 0, 55, 35
3, 83503, Note_on_c, 0, 64, 36
3, 83505, Note_on_c, 0, 41, 46
3, 83511, Note_on_c, 0, 59, 32
3, 83996, Note_on_c, 0, 55, 0
3, 84016, Note_on_c, 0, 41, 0
3, 84146, Note_on_c, 0, 39, 46
3, 84181, Note_on_c, 0, 59, 0
3, 84196, Note_on_c, 0, 39, 0
3, 84314, Note_on_c, 0, 64, 0
3, 84439, Note_on_c, 0, 57, 49
3, 84451, Note_on_c, 0, 66, 44
3, 84453, Note_on_c, 0, 35, 66
3, 84464, Note_on_c, 0, 62, 56
3, 85111, Note_on_c, 0, 35, 0
3, 85126, Note_on_c, 0, 34, 49
3, 85340, Note_on_c, 0, 34, 0
3, 85412, Note_on_c, 0, 40, 59
3, 85982, Note_on_c, 0, 40, 0
3, 86095, Note_on_c, 0, 39, 56
3, 86216, Note_on_c, 0, 39, 0
3, 86379, Note_on_c, 0, 52, 66
3, 87158, Note_on_c, 0, 52, 0
3, 87158, Note_on_c, 0, 46, 21
3, 87301, Note_on_c, 0, 46, 0
3, 87358, Note_on_c, 0, 50, 49
3, 88038, Note_on_c, 0, 50, 0
3, 88061, Note_on_c, 0, 46, 30
3, 88232, Note_on_c, 0, 46, 0
3, 88326, Note_on_c, 0, 48, 49
3, 88962, Note_on_c, 0, 66, 0
3, 88992, Note_on_c, 0, 57, 0
3, 89000, Note_on_c, 0, 48, 0
3, 89026, Note_on_c, 0, 44, 36
3, 89107, Note_on_c, 0, 62, 0
3, 89249, Note_on_c, 0, 44, 0
3, 89313, Note_on_c, 0, 65, 42
3, 89315, Note_on_c, 0, 47, 39
3, 89354, Note_on_c, 0, 62, 25
3, 89408, Note_on_c, 0, 65, 0
3, 89421, Note_on_c, 0, 62, 0
3, 89929, Note_on_c, 0, 64, 54
3, 89937, Note_on_c, 0, 56, 60
3, 89943, Note_on_c, 0, 53, 61
3, 89949, Note_on_c, 0, 59, 52
3, 89993, Note_on_c, 0, 53, 0
3, 90041, Note_on_c, 0, 47, 0
3, 90056, Note_on_c, 0, 59, 0
3, 90070, Note_on_c, 0, 56, 0
3, 90121, Note_on_c, 0, 64, 0
3, 90136, Note_on_c, 0, 40, 24
3, 90526, Note_on_c, 0, 70, 67
3, 90557, Note_on_c, 0, 65, 60
3, 90559, Note_on_c, 0, 76, 60
3, 90572, Note_on_c, 0, 68, 37
3, 90575, Note_on_c, 0, 74, 65
3, 90607, Note_on_c, 0, 71, 57
3, 90660, Note_on_c, 0, 70, 0
3, 91010, Note_on_c, 0, 76, 0
3, 91033, Note_on_c, 0, 74, 0
3, 91047, Note_on_c, 0, 68, 0
3, 91060, Note_on_c, 0, 65, 0
3, 91122, Note_on_c, 0, 71, 0
3, 91202, Note_on_c, 0, 40, 0
3, 91216, Note_on_c, 0, 71, 47
3, 91221, Note_on_c, 0, 74, 41
3, 91223, Note_on_c, 0, 68, 49
3, 91228, Note_on_c, 0, 65, 35
3, 91236, Note_on_c, 0, 46, 33
3, 91565, Note_on_c, 0, 71, 0
3, 91690, Note_on_c, 0, 74, 0
3, 91700, Note_on_c, 0, 65, 0
3, 91745, Note_on_c, 0, 68, 0
3, 91816, Note_on_c, 0, 44, 30
3, 91874, Note_on_c, 0, 72, 58
3, 91890, Note_on_c, 0, 67, 64
3, 91894, Note_on_c, 0, 64, 48
3, 91949, Note_on_c, 0, 64, 0
3, 91982, Note_on_c, 0, 67, 0
3, 91983, Note_on_c, 0, 46, 0
3, 92022, Note_on_c, 0, 72, 0
3, 92058, Note_on_c, 0, 44, 0
3, 92093, Note_on_c, 0, 45, 35
3, 92442, Note_on_c, 0, 65, 47
3, 92451, Note_on_c, 0, 64, 51
3, 92645, Note_on_c, 0, 65, 0
3, 92944, Note_on_c, 0, 45, 0
3, 93129, Note_on_c, 0, 65, 57
3, 93189, Note_on_c, 0, 64, 0
3, 93256, Note_on_c, 0, 52, 10
3, 93356, Note_on_c, 0, 65, 0
3, 93449, Note_on_c, 0, 64, 32
3, 93609, Note_on_c, 0, 64, 0
3, 93786, Note_on_c, 0, 72, 80
3, 93953, Note_on_c, 0, 72, 0
3, 94111, Note_on_c, 0, 57, 29
3, 94147, Note_on_c, 0, 52, 0
3, 94755, Note_on_c, 0, 50, 38
3, 94770, Note_on_c, 0, 57, 0
3, 94927, Note_on_c, 0, 50, 0
3, 95055, Note_on_c, 0, 51, 49
3, 95918, Note_on_c, 0, 51, 0
3, 95958, Note_on_c, 0, 52, 39
3, 96325, Note_on_c, 0, 64, 68
3, 96508, Note_on_c, 0, 64, 0
3, 96610, Note_on_c, 0, 65, 50
3, 96683, Note_on_c, 0, 65, 0
3, 96692, Note_on_c, 0, 64, 37
3, 96874, Note_on_c, 0, 63, 43
3, 96876, Note_on_c, 0, 52, 0
3, 96877, Note_on_c, 0, 64, 0
3, 97035, Note_on_c, 0, 63, 0
3, 97056, Note_on_c, 0, 40, 3
3, 97170, Note_on_c, 0, 64, 49
3, 97320, Note_on_c, 0, 64, 0
3, 97441, Note_on_c, 0, 65, 44
3, 97519, Note_on_c, 0, 65, 0
3, 97713, Note_on_c, 0, 71, 71
3, 97836, Note_on_c, 0, 71, 0
3, 97885, Note_on_c, 0, 52, 14
3, 98102, Note_on_c, 0, 74, 85
3, 98392, Note_on_c, 0, 74, 0
3, 98520, Note_on_c, 0, 74, 74
3, 98739, Note_on_c, 0, 74, 0
3, 98760, Note_on_c, 0, 52, 0
3, 98817, Note_on_c, 0, 47, 33
3, 98850, Note_on_c, 0, 40, 0
3, 98923, Note_on_c, 0, 74, 80
3, 99178, Note_on_c, 0, 74, 0
3, 99294, Note_on_c, 0, 47, 0
3, 99437, Note_on_c, 0, 44, 38
3, 99555, Note_on_c, 0, 71, 45
3, 99629, Note_on_c, 0, 71, 0
3, 99660, Note_on_c, 0, 44, 0
3, 99767, Note_on_c, 0, 45, 55
3, 99819, Note_on_c, 0, 74, 81
3, 100364, Note_on_c, 0, 74, 0
3, 100494, Note_on_c, 0, 71, 34
3, 100541, Note_on_c, 0, 52, 30
3, 100578, Note_on_c, 0, 71, 0
3, 100646, Note_on_c, 0, 52, 0
3, 100755, Note_on_c, 0, 72, 70
3, 100797, Note_on_c, 0, 57, 40
3, 101248, Note_on_c, 0, 72, 0
3, 101386, Note_on_c, 0, 57, 0
3, 101402, Note_on_c, 0, 69, 68
3, 101578, Note_on_c, 0, 52, 31
3, 101616, Note_on_c, 0, 45, 0
3, 101638, Note_on_c, 0, 69, 0
3, 101769, Note_on_c, 0, 60, 35
3, 102197, Note_on_c, 0, 52, 0
3, 102393, Note_on_c, 0, 46, 61
3, 102572, Note_on_c, 0, 46, 0
3, 102600, Note_on_c, 0, 60, 0
3, 102718, Note_on_c, 0, 47, 39
3, 103361, Note_on_c, 0, 46, 28
3, 103508, Note_on_c, 0, 47, 0
3, 103594, Note_on_c, 0, 46, 0
3, 103670, Note_on_c, 0, 62, 74
3, 103672, Note_on_c, 0, 65, 73
3, 103677, Note_on_c, 0, 48, 39
3, 104199, Note_on_c, 0, 62, 0
3, 104202, Note_on_c, 0, 65, 0
3, 104281, Note_on_c, 0, 48, 0
3, 104376, Note_on_c, 0, 46, 25
3, 104577, Note_on_c, 0, 46, 0
3, 104620, Note_on_c, 0, 48, 38
3, 104623, Note_on_c, 0, 62, 51
3, 104627, Note_on_c, 0, 65, 58
3, 104857, Note_on_c, 0, 62, 0
3, 104873, Note_on_c, 0, 65, 0
3, 105153, Note_on_c, 0, 48, 0
3, 105293, Note_on_c, 0, 42, 52
3, 105487, Note_on_c, 0, 42, 0
3, 105571, Note_on_c, 0, 71, 58
3, 105587, Note_on_c, 0, 63, 44
3, 105591, Note_on_c, 0, 41, 53
3, 105594, Note_on_c, 0, 67, 51
3, 106015, Note_on_c, 0, 63, 0
3, 106055, Note_on_c, 0, 67, 0
3, 106140, Note_on_c, 0, 71, 0
3, 106220, Note_on_c, 0, 74, 80
3, 106226, Note_on_c, 0, 63, 70
3, 106236, Note_on_c, 0, 67, 68
3, 106301, Note_on_c, 0, 57, 43
3, 106429, Note_on_c, 0, 57, 0
3, 106465, Note_on_c, 0, 63, 0
3, 106466, Note_on_c, 0, 74, 0
3, 106508, Note_on_c, 0, 67, 0
3, 106572, Note_on_c, 0, 72, 61
3, 106610, Note_on_c, 0, 63, 33
3, 106669, Note_on_c, 0, 67, 30
3, 106822, Note_on_c, 0, 67, 0
3, 106928, Note_on_c, 0, 63, 0
3, 106951, Note_on_c, 0, 41, 0
3, 107056, Note_on_c, 0, 72, 0
3, 107178, Note_on_c, 0, 46, 45
3, 107446, Note_on_c, 0, 46, 0
3, 107495, Note_on_c, 0, 47, 49
3, 107503, Note_on_c, 0, 62, 54
3, 107510, Note_on_c, 0, 66, 47
3, 107943, Note_on_c, 0, 47, 0
3, 107950, Note_on_c, 0, 62, 0
3, 107973, Note_on_c, 0, 66, 0
3, 108499, Note_on_c, 0, 47, 41
3, 108500, Note_on_c, 0, 66, 46
3, 108517, Note_on_c, 0, 62, 57
3, 108852, Note_on_c, 0, 47, 0
3, 108873, Note_on_c, 0, 62, 0
3, 108902, Note_on_c, 0, 66, 0
3, 109097, Note_on_c, 0, 66, 39
3, 109126, Note_on_c, 0, 62, 48
3, 109136, Note_on_c, 0, 47, 40
3, 109239, Note_on_c, 0, 66, 0
3, 109248, Note_on_c, 0, 62, 0
3, 109251, Note_on_c, 0, 47, 0
3, 109557, Note_on_c, 0, 34, 40
3, 109560, Note_on_c, 0, 58, 42
3, 109572, Note_on_c, 0, 67, 34
3, 109578, Note_on_c, 0, 46, 25
3, 109585, Note_on_c, 0, 64, 34
3, 109590, Note_on_c, 0, 61, 38
3, 109811, Note_on_c, 0, 61, 0
3, 109842, Note_on_c, 0, 58, 0
3, 109853, Note_on_c, 0, 64, 0
3, 109869, Note_on_c, 0, 67, 0
3, 109872, Note_on_c, 0, 34, 0
3, 109898, Note_on_c, 0, 46, 0
3, 110216, Note_on_c, 0, 67, 49
3, 110226, Note_on_c, 0, 58, 39
3, 110229, Note_on_c, 0, 46, 27
3, 110235, Note_on_c, 0, 34, 35
3, 110246, Note_on_c, 0, 61, 42
3, 110260, Note_on_c, 0, 64, 36
3, 110431, Note_on_c, 0, 61, 0
3, 110452, Note_on_c, 0, 58, 0
3, 110460, Note_on_c, 0, 67, 0
3, 110504, Note_on_c, 0, 64, 0
3, 110557, Note_on_c, 0, 46, 0
3, 110584, Note_on_c, 0, 34, 0
3, 111210, Note_on_c, 0, 74, 52
3, 111212, Note_on_c, 0, 45, 42
3, 111215, Note_on_c, 0, 62, 45
3, 111218, Note_on_c, 0, 67, 54
3, 111229, Note_on_c, 0, 60, 47
3, 111241, Note_on_c, 0, 33, 39
3, 111245, Note_on_c, 0, 69, 30
3, 111353, Note_on_c, 0, 60, 0
3, 111386, Note_on_c, 0, 62, 0
3, 111418, Note_on_c, 0, 67, 0
3, 111431, Note_on_c, 0, 69, 0
3, 111443, Note_on_c, 0, 33, 0
3, 111444, Note_on_c, 0, 45, 0
3, 111471, Note_on_c, 0, 74, 0
3, 112148, Note_on_c, 0, 45, 55
3, 112158, Note_on_c, 0, 33, 54
3, 112179, Note_on_c, 0, 74, 38
3, 112182, Note_on_c, 0, 67, 46
3, 112193, Note_on_c, 0, 60, 30
3, 112204, Note_on_c, 0, 69, 31
3, 112362, Note_on_c, 0, 67, 0
3, 112392, Note_on_c, 0, 45, 0
3, 112410, Note_on_c, 0, 33, 0
3, 112414, Note_on_c, 0, 60, 0
3, 112422, Note_on_c, 0, 69, 0
3, 112441, Note_on_c, 0, 74, 0
3, 112633, Note_on_c, 0, 33, 41
3, 112650, Note_on_c, 0, 67, 43
3, 112657, Note_on_c, 0, 45, 44
3, 112678, Note_on_c, 0, 74, 24
3, 112719, Note_on_c, 0, 33, 0
3, 112785, Note_on_c, 0, 45, 0
3, 112789, Note_on_c, 0, 67, 0
3, 112872, Note_on_c, 0, 74, 0
3, 113221, Note_on_c, 0, 60, 61
3, 113228, Note_on_c, 0, 54, 53
3, 113235, Note_on_c, 0, 74, 63
3, 113237, Note_on_c, 0, 50, 43
3, 113247, Note_on_c, 0, 70, 51
3, 113255, Note_on_c, 0, 65, 39
3, 113366, Note_on_c, 0, 65, 0
3, 113390, Note_on_c, 0, 60, 0
3, 113403, Note_on_c, 0, 70, 0
3, 113411, Note_on_c, 0, 50, 0
3, 113416, Note_on_c, 0, 74, 0
3, 113439, Note_on_c, 0, 54, 0
3, 113798, Note_on_c, 0, 74, 48
3, 113804, Note_on_c, 0, 70, 55
3, 113807, Note_on_c, 0, 65, 49
3, 113815, Note_on_c, 0, 54, 38
3, 113821, Note_on_c, 0, 60, 47
3, 113824, Note_on_c, 0, 50, 43
3, 114039, Note_on_c, 0, 60, 0
3, 114045, Note_on_c, 0, 50, 0
3, 114052, Note_on_c, 0, 65, 0
3, 114061, Note_on_c, 0, 70, 0
3, 114083, Note_on_c, 0, 54, 0
3, 114108, Note_on_c, 0, 74, 0
3, 114418, Note_on_c, 0, 74, 58
3, 114435, Note_on_c, 0, 70, 51
3, 114438, Note_on_c, 0, 54, 46
3, 114450, Note_on_c, 0, 65, 54
3, 114452, Note_on_c, 0, 60, 38
3, 114474, Note_on_c, 0, 50, 33
3, 114507, Note_on_c, 0, 60, 0
3, 114572, Note_on_c, 0, 65, 0
3, 114609, Note_on_c, 0, 74, 0
3, 114624, Note_on_c, 0, 54, 0
3, 114646, Note_on_c, 0, 50, 0
3, 114648, Note_on_c, 0, 70, 0
3, 115003, Note_on_c, 0, 71, 60
3, 115017, Note_on_c, 0, 50, 69
3, 115027, Note_on_c, 0, 66, 53
3, 115037, Note_on_c, 0, 62, 40
3, 115077, Note_on_c, 0, 49, 36
3, 115211, Note_on_c, 0, 49, 0
3, 115926, Note_on_c, 0, 50, 0
3, 115956, Note_on_c, 0, 49, 28
3, 116137, Note_on_c, 0, 49, 0
3, 116213, Note_on_c, 0, 50, 53
3, 116826, Note_on_c, 0, 38, 45
3, 116902, Note_on_c, 0, 62, 0
3, 116932, Note_on_c, 0, 66, 0
3, 116955, Note_on_c, 0, 71, 0
3, 117255, Note_on_c, 0, 50, 0
3, 117836, Note_on_c, 0, 42, 26
3, 118103, Note_on_c, 0, 42, 0
3, 118114, Note_on_c, 0, 38, 0
3, 118158, Note_on_c, 0, 50, 79
3, 118826, Note_on_c, 0, 50, 0
3, 118844, Note_on_c, 0, 49, 38
3, 119062, Note_on_c, 0, 49, 0
3, 119111, Note_on_c, 0, 50, 55
3, 119756, Note_on_c, 0, 38, 57
3, 119970, Note_on_c, 0, 50, 0
3, 120691, Note_on_c, 0, 50, 79
3, 120724, Note_on_c, 0, 38, 0
3, 121611, Note_on_c, 0, 50, 0
3, 121613, Note_on_c, 0, 49, 40
3, 121869, Note_on_c, 0, 49, 0
3, 121913, Note_on_c, 0, 50, 65
3, 122880, Note_on_c, 0, 62, 80
3, 122959, Note_on_c, 0, 50, 0
3, 123004, Note_on_c, 0, 55, 48
3, 123460, Note_on_c, 0, 62, 0
3, 123588, Note_on_c, 0, 64, 51
3, 123766, Note_on_c, 0, 64, 0
3, 123845, Note_on_c, 0, 55, 0
3, 123890, Note_on_c, 0, 66, 67
3, 123923, Note_on_c, 0, 54, 31
3, 124536, Note_on_c, 0, 69, 74
3, 124604, Note_on_c, 0, 66, 0
3, 124620, Note_on_c, 0, 51, 36
3, 124737, Note_on_c, 0, 54, 0
3, 124757, Note_on_c, 0, 69, 0
3, 124833, Note_on_c, 0, 51, 0
3, 124906, Note_on_c, 0, 67, 45
3, 124913, Note_on_c, 0, 52, 30
3, 125467, Note_on_c, 0, 62, 71
3, 125490, Note_on_c, 0, 67, 0
3, 125552, Note_on_c, 0, 62, 0
3, 125833, Note_on_c, 0, 52, 0
3, 125842, Note_on_c, 0, 50, 41
3, 126699, Note_on_c, 0, 50, 0
3, 126748, Note_on_c, 0, 48, 50
3, 127710, Note_on_c, 0, 47, 64
3, 127711, Note_on_c, 0, 48, 0
3, 128558, Note_on_c, 0, 44, 23
3, 128607, Note_on_c, 0, 47, 0
3, 128673, Note_on_c, 0, 44, 0
3, 128682, Note_on_c, 0, 45, 61
3, 128684, Note_on_c, 0, 62, 118
3, 129289, Note_on_c, 0, 62, 0
3, 129339, Note_on_c, 0, 66, 74
3, 129518, Note_on_c, 0, 66, 0
3, 129613, Note_on_c, 0, 69, 99
3, 129621, Note_on_c, 0, 44, 57
3, 129627, Note_on_c, 0, 45, 0
3, 130163, Note_on_c, 0, 69, 0
3, 130303, Note_on_c, 0, 42, 31
3, 130449, Note_on_c, 0, 44, 0
3, 130461, Note_on_c, 0, 42, 0
3, 130539, Note_on_c, 0, 46, 64
3, 130553, Note_on_c, 0, 67, 80
3, 131103, Note_on_c, 0, 67, 0
3, 131200, Note_on_c, 0, 65, 79
3, 131421, Note_on_c, 0, 46, 0
3, 131424, Note_on_c, 0, 65, 0
3, 131488, Note_on_c, 0, 39, 51
3, 131523, Note_on_c, 0, 61, 44
3, 132190, Note_on_c, 0, 61, 0
3, 132200, Note_on_c, 0, 55, 33
3, 132269, Note_on_c, 0, 46, 25
3, 132285, Note_on_c, 0, 55, 0
3, 132348, Note_on_c, 0, 39, 0
3, 132406, Note_on_c, 0, 46, 0
3, 132467, Note_on_c, 0, 60, 62
3, 132486, Note_on_c, 0, 53, 63
3, 133194, Note_on_c, 0, 60, 0
3, 133206, Note_on_c, 0, 53, 0
3, 133455, Note_on_c, 0, 52, 38
3, 134119, Note_on_c, 0, 63, 61
3, 134132, Note_on_c, 0, 52, 0
3, 134145, Note_on_c, 0, 55, 32
3, 134196, Note_on_c, 0, 55, 0
3, 134250, Note_on_c, 0, 63, 0
3, 134390, Note_on_c, 0, 51, 34
3, 135004, Note_on_c, 0, 51, 0
3, 135062, Note_on_c, 0, 39, 67
3, 135211, Note_on_c, 0, 39, 0
3, 135358, Note_on_c, 0, 72, 83
3, 135369, Note_on_c, 0, 55, 73
3, 135377, Note_on_c, 0, 65, 80
3, 135380, Note_on_c, 0, 61, 78
3, 135397, Note_on_c, 0, 69, 55
3, 136173, Note_on_c, 0, 55, 0
3, 136187, Note_on_c, 0, 72, 0
3, 136194, Note_on_c, 0, 61, 0
3, 136243, Note_on_c, 0, 69, 0
3, 136250, Note_on_c, 0, 65, 0
3, 136321, Note_on_c, 0, 61, 60
3, 136334, Note_on_c, 0, 70, 59
3, 136335, Note_on_c, 0, 65, 35
3, 136337, Note_on_c, 0, 55, 48
3, 136801, Note_on_c, 0, 61, 0
3, 136848, Note_on_c, 0, 55, 0
3, 136864, Note_on_c, 0, 70, 0
3, 136871, Note_on_c, 0, 65, 0
3, 136974, Note_on_c, 0, 61, 71
3, 136984, Note_on_c, 0, 72, 75
3, 136986, Note_on_c, 0, 65, 82
3, 137029, Note_on_c, 0, 69, 51
3, 137172, Note_on_c, 0, 69, 0
3, 137185, Note_on_c, 0, 61, 0
3, 137219, Note_on_c, 0, 72, 0
3, 137287, Note_on_c, 0, 61, 50
3, 137292, Note_on_c, 0, 42, 48
3, 137304, Note_on_c, 0, 70, 55
3, 137679, Note_on_c, 0, 65, 0
3, 137757, Note_on_c, 0, 70, 0
3, 137781, Note_on_c, 0, 61, 0
3, 137962, Note_on_c, 0, 39, 45
3, 138161, Note_on_c, 0, 42, 0
3, 138194, Note_on_c, 0, 39, 0
3, 138229, Note_on_c, 0, 43, 32
3, 138244, Note_on_c, 0, 69, 54
3, 138249, Note_on_c, 0, 66, 36
3, 138252, Note_on_c, 0, 62, 55
3, 138277, Note_on_c, 0, 57, 25
3, 138432, Note_on_c, 0, 57, 0
3, 138580, Note_on_c, 0, 69, 0
3, 138581, Note_on_c, 0, 62, 0
3, 138622, Note_on_c, 0, 66, 0
3, 138922, Note_on_c, 0, 62, 110
3, 139121, Note_on_c, 0, 43, 0
3, 139173, Note_on_c, 0, 38, 37
3, 139442, Note_on_c, 0, 62, 0
3, 139501, Note_on_c, 0, 62, 24
3, 139521, Note_on_c, 0, 64, 70
3, 139554, Note_on_c, 0, 62, 0
3, 139639, Note_on_c, 0, 64, 0
3, 139800, Note_on_c, 0, 66, 82
3, 139829, Note_on_c, 0, 30, 58
3, 139840, Note_on_c, 0, 38, 0
3, 139862, Note_on_c, 0, 67, 69
3, 139984, Note_on_c, 0, 67, 0
3, 139990, Note_on_c, 0, 66, 0
3, 140128, Note_on_c, 0, 69, 89
3, 140160, Note_on_c, 0, 31, 71
3, 140177, Note_on_c, 0, 30, 0
3, 140825, Note_on_c, 0, 69, 0
3, 140947, Note_on_c, 0, 38, 26
3, 141075, Note_on_c, 0, 38, 0
3, 141117, Note_on_c, 0, 67, 95
3, 141221, Note_on_c, 0, 43, 55
3, 141911, Note_on_c, 0, 67, 0
3, 142121, Note_on_c, 0, 59, 41
3, 142145, Note_on_c, 0, 43, 0
3, 142148, Note_on_c, 0, 38, 37
3, 142469, Note_on_c, 0, 31, 0
3, 142594, Note_on_c, 0, 59, 0
3, 142749, Note_on_c, 0, 59, 51
3, 142841, Note_on_c, 0, 59, 0
3, 143015, Note_on_c, 0, 40, 55
3, 143021, Note_on_c, 0, 64, 73
3, 143026, Note_on_c, 0, 38, 0
3, 143691, Note_on_c, 0, 62, 66
3, 143693, Note_on_c, 0, 64, 0
3, 143805, Note_on_c, 0, 62, 0
3, 143898, Note_on_c, 0, 40, 0
3, 143955, Note_on_c, 0, 38, 40
3, 144636, Note_on_c, 0, 38, 0
3, 144650, Note_on_c, 0, 33, 43
3, 144895, Note_on_c, 0, 33, 0
3, 144926, Note_on_c, 0, 34, 60
3, 145536, Note_on_c, 0, 32, 21
3, 145667, Note_on_c, 0, 62, 123
3, 145707, Note_on_c, 0, 34, 0
3, 145737, Note_on_c, 0, 32, 0
3, 145771, Note_on_c, 0, 35, 47
3, 146227, Note_on_c, 0, 62, 0
3, 146248, Note_on_c, 0, 64, 60
3, 146419, Note_on_c, 0, 62, 48
3, 146422, Note_on_c, 0, 64, 0
3, 146642, Note_on_c, 0, 61, 68
3, 146657, Note_on_c, 0, 62, 0
3, 146853, Note_on_c, 0, 61, 0
3, 146887, Note_on_c, 0, 62, 51
3, 146904, Note_on_c, 0, 29, 40
3, 146924, Note_on_c, 0, 35, 0
3, 147780, Note_on_c, 0, 29, 0
3, 147863, Note_on_c, 0, 26, 67
3, 148558, Note_on_c, 0, 63, 91
3, 148582, Note_on_c, 0, 62, 0
3, 148878, Note_on_c, 0, 63, 0
3, 148887, Note_on_c, 0, 26, 0
3, 148896, Note_on_c, 0, 27, 57
3, 149019, Note_on_c, 0, 64, 64
3, 149418, Note_on_c, 0, 64, 0
3, 149588, Note_on_c, 0, 65, 84
3, 149601, Note_on_c, 0, 64, 84
3, 149617, Note_on_c, 0, 27, 0
3, 149644, Note_on_c, 0, 28, 59
3, 149652, Note_on_c, 0, 64, 0
3, 149863, Note_on_c, 0, 65, 0
3, 150147, Note_on_c, 0, 76, 96
3, 150662, Note_on_c, 0, 76, 0
3, 150765, Note_on_c, 0, 74, 74
3, 150790, Note_on_c, 0, 40, 26
3, 151376, Note_on_c, 0, 74, 0
3, 151437, Note_on_c, 0, 62, 55
3, 151485, Note_on_c, 0, 40, 0
3, 151638, Note_on_c, 0, 34, 38
3, 151674, Note_on_c, 0, 28, 0
3, 152023, Note_on_c, 0, 62, 0
3, 152070, Note_on_c, 0, 68, 64
3, 152206, Note_on_c, 0, 68, 0
3, 152360, Note_on_c, 0, 71, 92
3, 152522, Note_on_c, 0, 34, 0
3, 152604, Note_on_c, 0, 32, 53
3, 152612, Note_on_c, 0, 71, 0
3, 152687, Note_on_c, 0, 74, 88
3, 152894, Note_on_c, 0, 74, 0
3, 152977, Note_on_c, 0, 73, 67
3, 153179, Note_on_c, 0, 73, 0
3, 153280, Note_on_c, 0, 72, 74
3, 153343, Note_on_c, 0, 32, 0
3, 153421, Note_on_c, 0, 33, 42
3, 153552, Note_on_c, 0, 72, 0
3, 153921, Note_on_c, 0, 71, 68
3, 154168, Note_on_c, 0, 68, 63
3, 154240, Note_on_c, 0, 71, 0
3, 154354, Note_on_c, 0, 68, 0
3, 154507, Note_on_c, 0, 69, 68
3, 154544, Note_on_c, 0, 45, 43
3, 154723, Note_on_c, 0, 69, 0
3, 154806, Note_on_c, 0, 64, 57
3, 155020, Note_on_c, 0, 64, 0
3, 155139, Note_on_c, 0, 62, 61
3, 155228, Note_on_c, 0, 45, 0
3, 155300, Note_on_c, 0, 40, 19
3, 155428, Note_on_c, 0, 62, 0
3, 155505, Note_on_c, 0, 60, 31
3, 155658, Note_on_c, 0, 60, 0
3, 155775, Note_on_c, 0, 62, 66
3, 156098, Note_on_c, 0, 62, 0
3, 156102, Note_on_c, 0, 59, 63
3, 156299, Note_on_c, 0, 59, 0
3, 156368, Note_on_c, 0, 40, 0
3, 156426, Note_on_c, 0, 60, 60
3, 156444, Note_on_c, 0, 45, 41
3, 156749, Note_on_c, 0, 57, 50
3, 156791, Note_on_c, 0, 60, 0
3, 156846, Note_on_c, 0, 57, 0
3, 156883, Note_on_c, 0, 45, 0
3, 157063, Note_on_c, 0, 33, 0
3, 157095, Note_on_c, 0, 39, 63
3, 157387, Note_on_c, 0, 39, 0
3, 157437, Note_on_c, 0, 40, 49
3, 158139, Note_on_c, 0, 35, 52
3, 158355, Note_on_c, 0, 40, 0
3, 158390, Note_on_c, 0, 35, 0
3, 158442, Note_on_c, 0, 28, 53
3, 158806, Note_on_c, 0, 77, 57
3, 158902, Note_on_c, 0, 77, 0
3, 158931, Note_on_c, 0, 80, 62
3, 159075, Note_on_c, 0, 77, 49
3, 159184, Note_on_c, 0, 80, 0
3, 159233, Note_on_c, 0, 77, 0
3, 159262, Note_on_c, 0, 35, 27
3, 159318, Note_on_c, 0, 74, 51
3, 159373, Note_on_c, 0, 35, 0
3, 159438, Note_on_c, 0, 74, 0
3, 159441, Note_on_c, 0, 38, 31
3, 159448, Note_on_c, 0, 73, 46
3, 159590, Note_on_c, 0, 72, 60
3, 159652, Note_on_c, 0, 73, 0
3, 159727, Note_on_c, 0, 72, 0
3, 159749, Note_on_c, 0, 38, 0
3, 159776, Note_on_c, 0, 71, 49
3, 159903, Note_on_c, 0, 71, 0
3, 159934, Note_on_c, 0, 35, 25
3, 159963, Note_on_c, 0, 70, 47
3, 160123, Note_on_c, 0, 70, 0
3, 160161, Note_on_c, 0, 69, 67
3, 160301, Note_on_c, 0, 35, 0
3, 160355, Note_on_c, 0, 68, 51
3, 160357, Note_on_c, 0, 38, 32
3, 160367, Note_on_c, 0, 69, 0
3, 160475, Note_on_c, 0, 68, 0
3, 160598, Note_on_c, 0, 65, 36
3, 160608, Note_on_c, 0, 28, 0
3, 160736, Note_on_c, 0, 65, 0
3, 160821, Note_on_c, 0, 62, 39
3, 160971, Note_on_c, 0, 62, 0
3, 161145, Note_on_c, 0, 38, 0
3, 161326, Note_on_c, 0, 60, 45
3, 161370, Note_on_c, 0, 40, 33
3, 161380, Note_on_c, 0, 60, 0
3, 161460, Note_on_c, 0, 40, 0
3, 161485, Note_on_c, 0, 45, 41
3, 161487, Note_on_c, 0, 64, 71
3, 161494, Note_on_c, 0, 43, 44
3, 161615, Note_on_c, 0, 43, 0
3, 161784, Note_on_c, 0, 64, 0
3, 161807, Note_on_c, 0, 59, 57
3, 161940, Note_on_c, 0, 59, 0
3, 162072, Note_on_c, 0, 62, 54
3, 162081, Note_on_c, 0, 60, 56
3, 162238, Note_on_c, 0, 62, 0
3, 162261, Note_on_c, 0, 60, 0
3, 162291, Note_on_c, 0, 45, 0
3, 162343, Note_on_c, 0, 40, 37
3, 162399, Note_on_c, 0, 55, 26
3, 162849, Note_on_c, 0, 55, 0
3, 162939, Note_on_c, 0, 39, 27
3, 163011, Note_on_c, 0, 59, 64
3, 163112, Note_on_c, 0, 59, 0
3, 163194, Note_on_c, 0, 40, 0
3, 163253, Note_on_c, 0, 39, 0
3, 163283, Note_on_c, 0, 47, 60
3, 163912, Note_on_c, 0, 44, 34
3, 163959, Note_on_c, 0, 47, 0
3, 164171, Note_on_c, 0, 48, 55
3, 164261, Note_on_c, 0, 44, 0
3, 164921, Note_on_c, 0, 48, 0
3, 164930, Note_on_c, 0, 46, 26
3, 165122, Note_on_c, 0, 46, 0
3, 165172, Note_on_c, 0, 47, 51
3, 165203, Note_on_c, 0, 71, 95
3, 165714, Note_on_c, 0, 71, 0
3, 165825, Note_on_c, 0, 70, 80
3, 166053, Note_on_c, 0, 70, 0
3, 166057, Note_on_c, 0, 47, 0
3, 166081, Note_on_c, 0, 46, 28
3, 166122, Note_on_c, 0, 69, 48
3, 166624, Note_on_c, 0, 69, 0
3, 166757, Note_on_c, 0, 44, 27
3, 166851, Note_on_c, 0, 68, 26
3, 166909, Note_on_c, 0, 68, 0
3, 166979, Note_on_c, 0, 46, 0
3, 167011, Note_on_c, 0, 44, 0
3, 167052, Note_on_c, 0, 45, 42
3, 167058, Note_on_c, 0, 69, 68
3, 167662, Note_on_c, 0, 69, 0
3, 167691, Note_on_c, 0, 64, 40
3, 167774, Note_on_c, 0, 45, 0
3, 167831, Note_on_c, 0, 40, 32
3, 167862, Note_on_c, 0, 64, 0
3, 168045, Note_on_c, 0, 67, 67
3, 168049, Note_on_c, 0, 40, 0
3, 168081, Note_on_c, 0, 43, 34
3, 168580, Note_on_c, 0, 67, 0
3, 168667, Note_on_c, 0, 69, 72
3, 168683, Note_on_c, 0, 45, 66
3, 168702, Note_on_c, 0, 43, 0
3, 168859, Note_on_c, 0, 69, 0
3, 168882, Note_on_c, 0, 45, 0
3, 168970, Note_on_c, 0, 39, 54
3, 169050, Note_on_c, 0, 65, 66
3, 169053, Note_on_c, 0, 72, 74
3, 169757, Note_on_c, 0, 72, 0
3, 169857, Note_on_c, 0, 65, 0
3, 169921, Note_on_c, 0, 39, 0
3, 169926, Note_on_c, 0, 46, 45
3, 169954, Note_on_c, 0, 70, 57
3, 169967, Note_on_c, 0, 65, 24
3, 169974, Note_on_c, 0, 61, 25
3, 170572, Note_on_c, 0, 65, 0
3, 170614, Note_on_c, 0, 61, 0
3, 170884, Note_on_c, 0, 61, 47
3, 170899, Note_on_c, 0, 65, 49
3, 170919, Note_on_c, 0, 55, 32
3, 171345, Note_on_c, 0, 46, 0
3, 171610, Note_on_c, 0, 55, 0
3, 171875, Note_on_c, 0, 46, 48
3, 172244, Note_on_c, 0, 46, 0
3, 172512, Note_on_c, 0, 46, 42
3, 172552, Note_on_c, 0, 61, 0
3, 172553, Note_on_c, 0, 65, 0
3, 172668, Note_on_c, 0, 70, 0
3, 172790, Note_on_c, 0, 46, 0
3, 172823, Note_on_c, 0, 72, 62
3, 172826, Note_on_c, 0, 65, 58
3, 172839, Note_on_c, 0, 39, 50
3, 173394, Note_on_c, 0, 65, 0
3, 173418, Note_on_c, 0, 72, 0
3, 173598, Note_on_c, 0, 46, 32
3, 173613, Note_on_c, 0, 39, 0
3, 173769, Note_on_c, 0, 70, 67
3, 173787, Note_on_c, 0, 61, 52
3, 173788, Note_on_c, 0, 65, 62
3, 174199, Note_on_c, 0, 65, 0
3, 174232, Note_on_c, 0, 61, 0
3, 174371, Note_on_c, 0, 70, 0
3, 174464, Note_on_c, 0, 65, 61
3, 174467, Note_on_c, 0, 61, 54
3, 174534, Note_on_c, 0, 55, 42
3, 174846, Note_on_c, 0, 46, 0
3, 175364, Note_on_c, 0, 61, 0
3, 175440, Note_on_c, 0, 70, 57
3, 175513, Note_on_c, 0, 65, 0
3, 175674, Note_on_c, 0, 70, 0
3, 175756, Note_on_c, 0, 65, 66
3, 175763, Note_on_c, 0, 46, 35
3, 175766, Note_on_c, 0, 61, 56
3, 175793, Note_on_c, 0, 72, 47
3, 175862, Note_on_c, 0, 55, 0
3, 175906, Note_on_c, 0, 65, 0
3, 175912, Note_on_c, 0, 61, 0
3, 175956, Note_on_c, 0, 72, 0
3, 176212, Note_on_c, 0, 46, 0
3, 176411, Note_on_c, 0, 46, 35
3, 176669, Note_on_c, 0, 46, 0
3, 176691, Note_on_c, 0, 74, 68
3, 176714, Note_on_c, 0, 60, 34
3, 176718, Note_on_c, 0, 67, 46
3, 176727, Note_on_c, 0, 50, 56
3, 177278, Note_on_c, 0, 50, 0
3, 177338, Note_on_c, 0, 38, 53
3, 177531, Note_on_c, 0, 38, 0
3, 177656, Note_on_c, 0, 45, 51
3, 178417, Note_on_c, 0, 60, 0
3, 178448, Note_on_c, 0, 67, 0
3, 178484, Note_on_c, 0, 74, 0
3, 178572, Note_on_c, 0, 52, 47
3, 178584, Note_on_c, 0, 45, 0
3, 179370, Note_on_c, 0, 45, 14
3, 179507, Note_on_c, 0, 53, 66
3, 179566, Note_on_c, 0, 45, 0
3, 180089, Note_on_c, 0, 52, 0
3, 180205, Note_on_c, 0, 45, 31
3, 180278, Note_on_c, 0, 45, 0
3, 180424, Note_on_c, 0, 53, 0
3, 180502, Note_on_c, 0, 54, 50
3, 181171, Note_on_c, 0, 45, 57
3, 181288, Note_on_c, 0, 45, 0
3, 181404, Note_on_c, 0, 54, 0
3, 181453, Note_on_c, 0, 38, 40
3, 182131, Note_on_c, 0, 45, 41
3, 182205, Note_on_c, 0, 45, 0
3, 182419, Note_on_c, 0, 62, 103
3, 182999, Note_on_c, 0, 62, 0
3, 183029, Note_on_c, 0, 58, 77
3, 183254, Note_on_c, 0, 38, 0
3, 183973, Note_on_c, 0, 38, 37
3, 184183, Note_on_c, 0, 38, 0
3, 184245, Note_on_c, 0, 58, 0
3, 184297, Note_on_c, 0, 54, 40
3, 184344, Note_on_c, 0, 31, 30
3, 184938, Note_on_c, 0, 54, 0
3, 185026, Note_on_c, 0, 50, 33
3, 185084, Note_on_c, 0, 50, 0
3, 185258, Note_on_c, 0, 52, 40
3, 185295, Note_on_c, 0, 38, 37
3, 185317, Note_on_c, 0, 52, 0
3, 185344, Note_on_c, 0, 31, 0
3, 186000, Note_on_c, 0, 37, 26
3, 186145, Note_on_c, 0, 38, 0
3, 186171, Note_on_c, 0, 37, 0
3, 186234, Note_on_c, 0, 40, 47
3, 187211, Note_on_c, 0, 42, 42
3, 187299, Note_on_c, 0, 40, 0
3, 187924, Note_on_c, 0, 39, 29
3, 188152, Note_on_c, 0, 42, 0
3, 188155, Note_on_c, 0, 39, 0
3, 188167, Note_on_c, 0, 43, 39
3, 188899, Note_on_c, 0, 60, 92
3, 188908, Note_on_c, 0, 62, 79
3, 188959, Note_on_c, 0, 62, 0
3, 189091, Note_on_c, 0, 43, 0
3, 189115, Note_on_c, 0, 47, 27
3, 189170, Note_on_c, 0, 60, 0
3, 189253, Note_on_c, 0, 58, 46
3, 189776, Note_on_c, 0, 58, 0
3, 189809, Note_on_c, 0, 59, 68
3, 189911, Note_on_c, 0, 47, 0
3, 190029, Note_on_c, 0, 59, 0
3, 190045, Note_on_c, 0, 43, 35
3, 190178, Note_on_c, 0, 64, 88
3, 190728, Note_on_c, 0, 64, 0
3, 190764, Note_on_c, 0, 61, 47
3, 190969, Note_on_c, 0, 61, 0
3, 190972, Note_on_c, 0, 47, 33
3, 191066, Note_on_c, 0, 62, 39
3, 191099, Note_on_c, 0, 43, 0
3, 191524, Note_on_c, 0, 47, 0
3, 191660, Note_on_c, 0, 65, 68
3, 191762, Note_on_c, 0, 62, 0
3, 192030, Note_on_c, 0, 65, 0
3, 192113, Note_on_c, 0, 65, 28
3, 192115, Note_on_c, 0, 69, 70
3, 192501, Note_on_c, 0, 65, 0
3, 192604, Note_on_c, 0, 69, 0
3, 192627, Note_on_c, 0, 72, 74
3, 192634, Note_on_c, 0, 65, 48
3, 192661, Note_on_c, 0, 61, 58
3, 192906, Note_on_c, 0, 60, 22
3, 192926, Note_on_c, 0, 72, 0
3, 193029, Note_on_c, 0, 70, 65
3, 193484, Note_on_c, 0, 61, 0
3, 193561, Note_on_c, 0, 60, 0
3, 193576, Note_on_c, 0, 65, 0
3, 193647, Note_on_c, 0, 58, 39
3, 193863, Note_on_c, 0, 58, 0
3, 193879, Note_on_c, 0, 70, 0
3, 193908, Note_on_c, 0, 61, 29
3, 193929, Note_on_c, 0, 57, 42
3, 193930, Note_on_c, 0, 65, 51
3, 194882, Note_on_c, 0, 57, 0
3, 194887, Note_on_c, 0, 56, 48
3, 195027, Note_on_c, 0, 65, 0
3, 195111, Note_on_c, 0, 61, 0
3, 195783, Note_on_c, 0, 56, 0
3, 195840, Note_on_c, 0, 61, 42
3, 195869, Note_on_c, 0, 55, 32
3, 195870, Note_on_c, 0, 65, 41
3, 196088, Note_on_c, 0, 55, 0
3, 196507, Note_on_c, 0, 46, 43
3, 196711, Note_on_c, 0, 46, 0
3, 196849, Note_on_c, 0, 39, 37
3, 197448, Note_on_c, 0, 39, 0
3, 197463, Note_on_c, 0, 46, 25
3, 197715, Note_on_c, 0, 46, 0
3, 197765, Note_on_c, 0, 53, 55
3, 198481, Note_on_c, 0, 46, 25
3, 198499, Note_on_c, 0, 53, 0
3, 198627, Note_on_c, 0, 46, 0
3, 198706, Note_on_c, 0, 51, 59
3, 198720, Note_on_c, 0, 65, 0
3, 198948, Note_on_c, 0, 61, 0
3, 199415, Note_on_c, 0, 51, 0
3, 199450, Note_on_c, 0, 49, 35
3, 199610, Note_on_c, 0, 49, 0
3, 199665, Note_on_c, 0, 50, 48
3, 199714, Note_on_c, 0, 70, 78
3, 199921, Note_on_c, 0, 70, 0
3, 200031, Note_on_c, 0, 71, 69
3, 200213, Note_on_c, 0, 71, 0
3, 200309, Note_on_c, 0, 74, 83
3, 200354, Note_on_c, 0, 50, 0
3, 200476, Note_on_c, 0, 74, 0
3, 200523, Note_on_c, 0, 42, 32
3, 201257, Note_on_c, 0, 71, 78
3, 201258, Note_on_c, 0, 39, 31
3, 201379, Note_on_c, 0, 42, 0
3, 201418, Note_on_c, 0, 39, 0
3, 201459, Note_on_c, 0, 43, 27
3, 201503, Note_on_c, 0, 71, 0
3, 201675, Note_on_c, 0, 62, 41
3, 202248, Note_on_c, 0, 58, 64
3, 202272, Note_on_c, 0, 62, 0
3, 202470, Note_on_c, 0, 58, 0
3, 202471, Note_on_c, 0, 43, 0
3, 202533, Note_on_c, 0, 34, 44
3, 203499, Note_on_c, 0, 34, 0
3, 203579, Note_on_c, 0, 35, 41
3, 204217, Note_on_c, 0, 55, 62
3, 204274, Note_on_c, 0, 55, 0
3, 204390, Note_on_c, 0, 35, 0
3, 204429, Note_on_c, 0, 31, 46
3, 205205, Note_on_c, 0, 38, 32
3, 205324, Note_on_c, 0, 38, 0
3, 205456, Note_on_c, 0, 40, 36
3, 205468, Note_on_c, 0, 67, 110
3, 205971, Note_on_c, 0, 67, 0
3, 206111, Note_on_c, 0, 40, 0
3, 206142, Note_on_c, 0, 62, 43
3, 206337, Note_on_c, 0, 31, 0
3, 206348, Note_on_c, 0, 62, 0
3, 206401, Note_on_c, 0, 35, 5
3, 206465, Note_on_c, 0, 63, 47
3, 206932, Note_on_c, 0, 35, 0
3, 206937, Note_on_c, 0, 63, 0
3, 207029, Note_on_c, 0, 64, 66
3, 207280, Note_on_c, 0, 64, 0
3, 207344, Note_on_c, 0, 40, 34
3, 207358, Note_on_c, 0, 66, 48
3, 207617, Note_on_c, 0, 66, 0
3, 207671, Note_on_c, 0, 57, 37
3, 207954, Note_on_c, 0, 57, 0
3, 208006, Note_on_c, 0, 64, 57
3, 208229, Note_on_c, 0, 40, 0
3, 208277, Note_on_c, 0, 28, 31
3, 208340, Note_on_c, 0, 64, 0
3, 208367, Note_on_c, 0, 56, 61
3, 208761, Note_on_c, 0, 56, 0
3, 209234, Note_on_c, 0, 40, 51
3, 210004, Note_on_c, 0, 28, 0
3, 210103, Note_on_c, 0, 40, 0
3, 210212, Note_on_c, 0, 32, 76
3, 211241, Note_on_c, 0, 32, 0
3, 211244, Note_on_c, 0, 28, 55
3, 211563, Note_on_c, 0, 53, 50
3, 211730, Note_on_c, 0, 53, 0
3, 211828, Note_on_c, 0, 55, 70
3, 212033, Note_on_c, 0, 55, 0
3, 212103, Note_on_c, 0, 58, 60
3, 212191, Note_on_c, 0, 38, 24
3, 212257, Note_on_c, 0, 58, 0
3, 212347, Note_on_c, 0, 60, 46
3, 212511, Note_on_c, 0, 60, 0
3, 212544, Note_on_c, 0, 28, 0
3, 212601, Note_on_c, 0, 62, 60
3, 212723, Note_on_c, 0, 62, 0
3, 212838, Note_on_c, 0, 65, 81
3, 213037, Note_on_c, 0, 65, 0
3, 213077, Note_on_c, 0, 67, 75
3, 213137, Note_on_c, 0, 32, 45
3, 213191, Note_on_c, 0, 38, 0
3, 213280, Note_on_c, 0, 67, 0
3, 213373, Note_on_c, 0, 70, 56
3, 213460, Note_on_c, 0, 70, 0
3, 213635, Note_on_c, 0, 74, 53
3, 213754, Note_on_c, 0, 74, 0
3, 213853, Note_on_c, 0, 77, 78
3, 214046, Note_on_c, 0, 77, 0
3, 214085, Note_on_c, 0, 38, 38
3, 214085, Note_on_c, 0, 82, 71
3, 214290, Note_on_c, 0, 82, 0
3, 214340, Note_on_c, 0, 32, 0
3, 214396, Note_on_c, 0, 86, 87
3, 214547, Note_on_c, 0, 38, 0
3, 214661, Note_on_c, 0, 86, 0
3, 214685, Note_on_c, 0, 83, 71
3, 214871, Note_on_c, 0, 83, 0
3, 214924, Note_on_c, 0, 84, 80
3, 215051, Note_on_c, 0, 45, 54
3, 215170, Note_on_c, 0, 84, 0
3, 215214, Note_on_c, 0, 80, 51
3, 215445, Note_on_c, 0, 80, 0
3, 215501, Note_on_c, 0, 83, 71
3, 215777, Note_on_c, 0, 81, 71
3, 215882, Note_on_c, 0, 83, 0
3, 215959, Note_on_c, 0, 81, 0
3, 216034, Note_on_c, 0, 76, 47
3, 216081, Note_on_c, 0, 57, 35
3, 216232, Note_on_c, 0, 76, 0
3, 216308, Note_on_c, 0, 74, 52
3, 216547, Note_on_c, 0, 74, 0
3, 216571, Note_on_c, 0, 45, 0
3, 216593, Note_on_c, 0, 72, 50
3, 216720, Note_on_c, 0, 57, 0
3, 216831, Note_on_c, 0, 71, 66
3, 216902, Note_on_c, 0, 72, 0
3, 216957, Note_on_c, 0, 52, 5
3, 216994, Note_on_c, 0, 71, 0
3, 217062, Note_on_c, 0, 74, 53
3, 217299, Note_on_c, 0, 74, 0
3, 217309, Note_on_c, 0, 71, 55
3, 217500, Note_on_c, 0, 71, 0
3, 217554, Note_on_c, 0, 72, 67
3, 217824, Note_on_c, 0, 72, 0
3, 217850, Note_on_c, 0, 64, 48
3, 217892, Note_on_c, 0, 52, 0
3, 218055, Note_on_c, 0, 57, 4
3, 218474, Note_on_c, 0, 57, 0
3, 218583, Note_on_c, 0, 52, 43
3, 218595, Note_on_c, 0, 64, 0
3, 218797, Note_on_c, 0, 52, 0
3, 218895, Note_on_c, 0, 68, 35
3, 218967, Note_on_c, 0, 52, 19
3, 219059, Note_on_c, 0, 68, 0
3, 219542, Note_on_c, 0, 56, 61
3, 219545, Note_on_c, 0, 67, 62
3, 219555, Note_on_c, 0, 60, 55
3, 219582, Note_on_c, 0, 62, 46
3, 219629, Note_on_c, 0, 56, 0
3, 219644, Note_on_c, 0, 62, 0
3, 219675, Note_on_c, 0, 60, 0
3, 219678, Note_on_c, 0, 67, 0
3, 219860, Note_on_c, 0, 52, 0
3, 219863, Note_on_c, 0, 40, 18
3, 220496, Note_on_c, 0, 44, 36
3, 220666, Note_on_c, 0, 40, 0
3, 220750, Note_on_c, 0, 44, 0
3, 220805, Note_on_c, 0, 47, 41
3, 220829, Note_on_c, 0, 64, 82
3, 221071, Note_on_c, 0, 64, 0
3, 221122, Note_on_c, 0, 65, 60
3, 221232, Note_on_c, 0, 64, 38
3, 221241, Note_on_c, 0, 65, 0
3, 221433, Note_on_c, 0, 64, 0
3, 221461, Note_on_c, 0, 63, 49
3, 221602, Note_on_c, 0, 63, 0
3, 221736, Note_on_c, 0, 64, 53
3, 221775, Note_on_c, 0, 40, 25
3, 221896, Note_on_c, 0, 64, 0
3, 222085, Note_on_c, 0, 67, 40
3, 222087, Note_on_c, 0, 69, 41
3, 222119, Note_on_c, 0, 40, 0
3, 222143, Note_on_c, 0, 69, 0
3, 222221, Note_on_c, 0, 47, 0
3, 222238, Note_on_c, 0, 67, 0
3, 222358, Note_on_c, 0, 71, 83
3, 222574, Note_on_c, 0, 71, 0
3, 222598, Note_on_c, 0, 74, 87
3, 222770, Note_on_c, 0, 45, 32
3, 222865, Note_on_c, 0, 74, 0
3, 222904, Note_on_c, 0, 71, 60
3, 223087, Note_on_c, 0, 71, 0
3, 223177, Note_on_c, 0, 72, 77
3, 223488, Note_on_c, 0, 71, 70
3, 223576, Note_on_c, 0, 72, 0
3, 223625, Note_on_c, 0, 71, 0
3, 223694, Note_on_c, 0, 57, 36
3, 223816, Note_on_c, 0, 64, 46
3, 223968, Note_on_c, 0, 60, 6
3, 224235, Note_on_c, 0, 60, 0
3, 224271, Note_on_c, 0, 57, 0
3, 224281, Note_on_c, 0, 64, 0
3, 224379, Note_on_c, 0, 60, 54
3, 224391, Note_on_c, 0, 64, 66
3, 224484, Note_on_c, 0, 60, 0
3, 224485, Note_on_c, 0, 45, 0
3, 224534, Note_on_c, 0, 64, 0
3, 224659, Note_on_c, 0, 56, 55
3, 225533, Note_on_c, 0, 56, 0
3, 225630, Note_on_c, 0, 55, 47
3, 226256, Note_on_c, 0, 75, 61
3, 226256, Note_on_c, 0, 74, 82
3, 226306, Note_on_c, 0, 75, 0
3, 226309, Note_on_c, 0, 63, 70
3, 226312, Note_on_c, 0, 67, 74
3, 226342, Note_on_c, 0, 70, 31
3, 226362, Note_on_c, 0, 67, 0
3, 226382, Note_on_c, 0, 55, 0
3, 226390, Note_on_c, 0, 63, 0
3, 226391, Note_on_c, 0, 70, 0
3, 226413, Note_on_c, 0, 74, 0
3, 226663, Note_on_c, 0, 60, 28
3, 227230, Note_on_c, 0, 60, 0
3, 227269, Note_on_c, 0, 72, 72
3, 227292, Note_on_c, 0, 63, 70
3, 227431, Note_on_c, 0, 72, 0
3, 227440, Note_on_c, 0, 63, 0
3, 227565, Note_on_c, 0, 59, 32
3, 227707, Note_on_c, 0, 60, 64
3, 227714, Note_on_c, 0, 71, 58
3, 227740, Note_on_c, 0, 63, 32
3, 227763, Note_on_c, 0, 67, 38
3, 227800, Note_on_c, 0, 59, 0
3, 227818, Note_on_c, 0, 60, 0
3, 227882, Note_on_c, 0, 71, 0
3, 227885, Note_on_c, 0, 60, 14
3, 228236, Note_on_c, 0, 60, 0
3, 228278, Note_on_c, 0, 63, 0
3, 228304, Note_on_c, 0, 67, 0
3, 228567, Note_on_c, 0, 55, 35
3, 228578, Note_on_c, 0, 63, 36
3, 228587, Note_on_c, 0, 59, 46
3, 228609, Note_on_c, 0, 67, 42
3, 229196, Note_on_c, 0, 63, 0
3, 229258, Note_on_c, 0, 59, 0
3, 229305, Note_on_c, 0, 55, 0
3, 229424, Note_on_c, 0, 67, 0
3, 229499, Note_on_c, 0, 46, 42
3, 229506, Note_on_c, 0, 63, 48
3, 229509, Note_on_c, 0, 59, 48
3, 230029, Note_on_c, 0, 59, 0
3, 230091, Note_on_c, 0, 63, 0
3, 230169, Note_on_c, 0, 44, 18
3, 230182, Note_on_c, 0, 62, 62
3, 230188, Note_on_c, 0, 57, 36
3, 230233, Note_on_c, 0, 62, 0
3, 230245, Note_on_c, 0, 57, 0
3, 230286, Note_on_c, 0, 46, 0
3, 230319, Note_on_c, 0, 44, 0
3, 230358, Note_on_c, 0, 47, 33
3, 231119, Note_on_c, 0, 78, 79
3, 231217, Note_on_c, 0, 78, 0
3, 231352, Note_on_c, 0, 41, 31
3, 231377, Note_on_c, 0, 47, 0
3, 231490, Note_on_c, 0, 69, 44
3, 232009, Note_on_c, 0, 69, 0
3, 232075, Note_on_c, 0, 79, 74
3, 232183, Note_on_c, 0, 41, 0
3, 232249, Note_on_c, 0, 79, 0
3, 232423, Note_on_c, 0, 46, 26
3, 232514, Note_on_c, 0, 68, 20
3, 232645, Note_on_c, 0, 70, 7
3, 232692, Note_on_c, 0, 68, 0
3, 232823, Note_on_c, 0, 70, 0
3, 233029, Note_on_c, 0, 70, 67
3, 233121, Note_on_c, 0, 70, 0
3, 233319, Note_on_c, 0, 34, 34
3, 233953, Note_on_c, 0, 46, 0
3, 233974, Note_on_c, 0, 40, 48
3, 234157, Note_on_c, 0, 34, 0
3, 234225, Note_on_c, 0, 40, 0
3, 234255, Note_on_c, 0, 45, 57
3, 234914, Note_on_c, 0, 67, 95
3, 234988, Note_on_c, 0, 40, 43
3, 235024, Note_on_c, 0, 45, 0
3, 235127, Note_on_c, 0, 67, 0
3, 235267, Note_on_c, 0, 63, 47
3, 235326, Note_on_c, 0, 64, 50
3, 235359, Note_on_c, 0, 63, 0
3, 235764, Note_on_c, 0, 64, 0
3, 235792, Note_on_c, 0, 40, 0
3, 235840, Note_on_c, 0, 37, 50
3, 235873, Note_on_c, 0, 55, 64
3, 236143, Note_on_c, 0, 37, 0
3, 236207, Note_on_c, 0, 38, 35
3, 236220, Note_on_c, 0, 55, 0
3, 236311, Note_on_c, 0, 54, 40
3, 237091, Note_on_c, 0, 54, 0
3, 237108, Note_on_c, 0, 50, 36
3, 237142, Note_on_c, 0, 62, 80
3, 237266, Note_on_c, 0, 50, 0
3, 237666, Note_on_c, 0, 62, 0
3, 237787, Note_on_c, 0, 42, 42
3, 237795, Note_on_c, 0, 58, 56
3, 237859, Note_on_c, 0, 38, 0
3, 238019, Note_on_c, 0, 58, 0
3, 238088, Note_on_c, 0, 42, 0
3, 238116, Note_on_c, 0, 43, 31
3, 238139, Note_on_c, 0, 59, 36
3, 238784, Note_on_c, 0, 59, 0
3, 238804, Note_on_c, 0, 62, 44
3, 238873, Note_on_c, 0, 43, 0
3, 238982, Note_on_c, 0, 62, 0
3, 239063, Note_on_c, 0, 50, 38
3, 239067, Note_on_c, 0, 52, 34
3, 239093, Note_on_c, 0, 64, 42
3, 239133, Note_on_c, 0, 52, 0
3, 239701, Note_on_c, 0, 64, 0
3, 239902, Note_on_c, 0, 50, 0
3, 240051, Note_on_c, 0, 59, 58
3, 240067, Note_on_c, 0, 64, 57
3, 240070, Note_on_c, 0, 71, 49
3, 240861, Note_on_c, 0, 64, 0
3, 240868, Note_on_c, 0, 71, 0
3, 240927, Note_on_c, 0, 59, 0
3, 241009, Note_on_c, 0, 64, 32
3, 241012, Note_on_c, 0, 57, 40
3, 241015, Note_on_c, 0, 69, 49
3, 241044, Note_on_c, 0, 60, 22
3, 241592, Note_on_c, 0, 69, 0
3, 241744, Note_on_c, 0, 64, 0
3, 241832, Note_on_c, 0, 60, 0
3, 241966, Note_on_c, 0, 60, 47
3, 241982, Note_on_c, 0, 68, 44
3, 241985, Note_on_c, 0, 63, 55
3, 241988, Note_on_c, 0, 50, 42
3, 241998, Note_on_c, 0, 57, 0
3, 242299, Note_on_c, 0, 50, 0
3, 242626, Note_on_c, 0, 60, 0
3, 242636, Note_on_c, 0, 50, 80
3, 242666, Note_on_c, 0, 49, 71
3, 242717, Note_on_c, 0, 69, 75
3, 242720, Note_on_c, 0, 60, 39
3, 242795, Note_on_c, 0, 49, 0
3, 242800, Note_on_c, 0, 68, 0
3, 243512, Note_on_c, 0, 69, 0
3, 243543, Note_on_c, 0, 63, 0
3, 243631, Note_on_c, 0, 63, 82
3, 243655, Note_on_c, 0, 38, 63
3, 244422, Note_on_c, 0, 50, 0
3, 244561, Note_on_c, 0, 45, 39
3, 244641, Note_on_c, 0, 50, 56
3, 244646, Note_on_c, 0, 45, 0
3, 245202, Note_on_c, 0, 63, 0
3, 245259, Note_on_c, 0, 38, 0
3, 245281, Note_on_c, 0, 66, 69
3, 245296, Note_on_c, 0, 50, 0
3, 245380, Note_on_c, 0, 60, 0
3, 245560, Note_on_c, 0, 63, 77
3, 245590, Note_on_c, 0, 42, 59
3, 245620, Note_on_c, 0, 66, 0
3, 245837, Note_on_c, 0, 63, 0
3, 245890, Note_on_c, 0, 42, 0
3, 245918, Note_on_c, 0, 61, 62
3, 245939, Note_on_c, 0, 43, 45
3, 246564, Note_on_c, 0, 38, 24
3, 246665, Note_on_c, 0, 38, 0
3, 246804, Note_on_c, 0, 43, 0
3, 246819, Note_on_c, 0, 31, 24
3, 247450, Note_on_c, 0, 62, 76
3, 247513, Note_on_c, 0, 61, 0
3, 247691, Note_on_c, 0, 43, 25
3, 247704, Note_on_c, 0, 31, 0
3, 247862, Note_on_c, 0, 62, 0
3, 247876, Note_on_c, 0, 54, 51
3, 248531, Note_on_c, 0, 43, 0
3, 248534, Note_on_c, 0, 38, 45
3, 248705, Note_on_c, 0, 38, 0
3, 248760, Note_on_c, 0, 45, 46
3, 249489, Note_on_c, 0, 45, 0
3, 249540, Note_on_c, 0, 43, 22
3, 249611, Note_on_c, 0, 43, 0
3, 249660, Note_on_c, 0, 47, 49
3, 250130, Note_on_c, 0, 54, 0
3, 250582, Note_on_c, 0, 50, 45
3, 250614, Note_on_c, 0, 47, 0
3, 251535, Note_on_c, 0, 52, 45
3, 251541, Note_on_c, 0, 50, 0
3, 251564, Note_on_c, 0, 57, 108
3, 252068, Note_on_c, 0, 57, 0
3, 252187, Note_on_c, 0, 54, 39
3, 252414, Note_on_c, 0, 54, 0
3, 252428, Note_on_c, 0, 52, 0
3, 252447, Note_on_c, 0, 50, 34
3, 252492, Note_on_c, 0, 55, 51
3, 252990, Note_on_c, 0, 55, 0
3, 253124, Note_on_c, 0, 57, 68
3, 253326, Note_on_c, 0, 50, 0
3, 253365, Note_on_c, 0, 57, 0
3, 253374, Note_on_c, 0, 46, 34
3, 253462, Note_on_c, 0, 60, 65
3, 253707, Note_on_c, 0, 60, 0
3, 253778, Note_on_c, 0, 57, 38
3, 253996, Note_on_c, 0, 57, 0
3, 254066, Note_on_c, 0, 58, 43
3, 254251, Note_on_c, 0, 58, 0
3, 254315, Note_on_c, 0, 53, 41
3, 254358, Note_on_c, 0, 60, 54
3, 254607, Note_on_c, 0, 60, 0
3, 254665, Note_on_c, 0, 61, 53
3, 254692, Note_on_c, 0, 46, 0
3, 254825, Note_on_c, 0, 61, 0
3, 254960, Note_on_c, 0, 63, 73
3, 255175, Note_on_c, 0, 53, 0
3, 255209, Note_on_c, 0, 63, 0
3, 255247, Note_on_c, 0, 46, 30
3, 255255, Note_on_c, 0, 60, 39
3, 255421, Note_on_c, 0, 60, 0
3, 255542, Note_on_c, 0, 61, 51
3, 255710, Note_on_c, 0, 61, 0
3, 255834, Note_on_c, 0, 63, 62
3, 255975, Note_on_c, 0, 46, 0
3, 256039, Note_on_c, 0, 63, 0
3, 256095, Note_on_c, 0, 65, 62
3, 256365, Note_on_c, 0, 65, 0
3, 256386, Note_on_c, 0, 67, 62
3, 256674, Note_on_c, 0, 68, 70
3, 256679, Note_on_c, 0, 67, 0
3, 257020, Note_on_c, 0, 39, 55
3, 257054, Note_on_c, 0, 68, 0
3, 257072, Note_on_c, 0, 67, 45
3, 257307, Note_on_c, 0, 67, 0
3, 257421, Note_on_c, 0, 68, 63
3, 257718, Note_on_c, 0, 70, 78
3, 257771, Note_on_c, 0, 68, 0
3, 258036, Note_on_c, 0, 70, 0
3, 258044, Note_on_c, 0, 71, 37
3, 258051, Note_on_c, 0, 72, 53
3, 258227, Note_on_c, 0, 71, 0
3, 258311, Note_on_c, 0, 72, 0
3, 258408, Note_on_c, 0, 67, 64
3, 258574, Note_on_c, 0, 67, 0
3, 258670, Note_on_c, 0, 68, 37
3, 258843, Note_on_c, 0, 68, 0
3, 258925, Note_on_c, 0, 70, 70
3, 259112, Note_on_c, 0, 70, 0
3, 259133, Note_on_c, 0, 51, 39
3, 259222, Note_on_c, 0, 72, 47
3, 259395, Note_on_c, 0, 72, 0
3, 259513, Note_on_c, 0, 73, 43
3, 259534, Note_on_c, 0, 51, 0
3, 259689, Note_on_c, 0, 73, 0
3, 259822, Note_on_c, 0, 74, 78
3, 259927, Note_on_c, 0, 46, 36
3, 260035, Note_on_c, 0, 39, 0
3, 260091, Note_on_c, 0, 75, 79
3, 260137, Note_on_c, 0, 74, 0
3, 260270, Note_on_c, 0, 75, 0
3, 260344, Note_on_c, 0, 76, 70
3, 260384, Note_on_c, 0, 46, 0
3, 260558, Note_on_c, 0, 76, 0
3, 260627, Note_on_c, 0, 42, 58
3, 260636, Note_on_c, 0, 79, 80
3, 260907, Note_on_c, 0, 78, 73
3, 260949, Note_on_c, 0, 42, 0
3, 260954, Note_on_c, 0, 79, 0
3, 261017, Note_on_c, 0, 43, 32
3, 261126, Note_on_c, 0, 78, 0
3, 261223, Note_on_c, 0, 74, 57
3, 261316, Note_on_c, 0, 74, 0
3, 261490, Note_on_c, 0, 71, 63
3, 261664, Note_on_c, 0, 71, 0
3, 261923, Note_on_c, 0, 50, 30
3, 262033, Note_on_c, 0, 64, 33
3, 262092, Note_on_c, 0, 64, 0
3, 262213, Note_on_c, 0, 69, 74
3, 262648, Note_on_c, 0, 69, 0
3, 262697, Note_on_c, 0, 43, 0
3, 262737, Note_on_c, 0, 66, 69
3, 262990, Note_on_c, 0, 50, 0
3, 263059, Note_on_c, 0, 62, 39
3, 263063, Note_on_c, 0, 54, 23
3, 263399, Note_on_c, 0, 62, 0
3, 263533, Note_on_c, 0, 66, 0
3, 263536, Note_on_c, 0, 54, 0
3, 263774, Note_on_c, 0, 51, 33
3, 264654, Note_on_c, 0, 57, 61
3, 264656, Note_on_c, 0, 59, 66
3, 264658, Note_on_c, 0, 62, 62
3, 264704, Note_on_c, 0, 57, 0
3, 264731, Note_on_c, 0, 51, 0
3, 264737, Note_on_c, 0, 59, 0
3, 264750, Note_on_c, 0, 52, 36
3, 264762, Note_on_c, 0, 62, 0
3, 265708, Note_on_c, 0, 52, 0
3, 265722, Note_on_c, 0, 49, 33
3, 265917, Note_on_c, 0, 49, 0
3, 265985, Note_on_c, 0, 54, 39
3, 266015, Note_on_c, 0, 57, 38
3, 266018, Note_on_c, 0, 62, 30
3, 266021, Note_on_c, 0, 50, 24
3, 266031, Note_on_c, 0, 59, 41
3, 266370, Note_on_c, 0, 57, 0
3, 266384, Note_on_c, 0, 54, 0
3, 266457, Note_on_c, 0, 59, 0
3, 266509, Note_on_c, 0, 62, 0
3, 266830, Note_on_c, 0, 50, 0
3, 266934, Note_on_c, 0, 43, 32
3, 267586, Note_on_c, 0, 54, 52
3, 267599, Note_on_c, 0, 57, 51
3, 267630, Note_on_c, 0, 62, 27
3, 267635, Note_on_c, 0, 54, 0
3, 267648, Note_on_c, 0, 57, 0
3, 267705, Note_on_c, 0, 43, 0
3, 267708, Note_on_c, 0, 62, 0
3, 267800, Note_on_c, 0, 46, 37
3, 268457, Note_on_c, 0, 46, 0
3, 268490, Note_on_c, 0, 43, 33
3, 268753, Note_on_c, 0, 43, 0
3, 268800, Note_on_c, 0, 47, 40
3, 269473, Note_on_c, 0, 66, 67
3, 269480, Note_on_c, 0, 62, 68
3, 269504, Note_on_c, 0, 57, 35
3, 269531, Note_on_c, 0, 62, 0
3, 269562, Note_on_c, 0, 57, 0
3, 269628, Note_on_c, 0, 47, 0
3, 269633, Note_on_c, 0, 66, 0
3, 269681, Note_on_c, 0, 41, 33
3, 270367, Note_on_c, 0, 41, 0
3, 270411, Note_on_c, 0, 38, 30
3, 270576, Note_on_c, 0, 38, 0
3, 270693, Note_on_c, 0, 41, 55
3, 271450, Note_on_c, 0, 38, 36
3, 271523, Note_on_c, 0, 41, 0
3, 271577, Note_on_c, 0, 38, 0
3, 271688, Note_on_c, 0, 39, 53
3, 272358, Note_on_c, 0, 37, 30
3, 272389, Note_on_c, 0, 56, 68
3, 272496, Note_on_c, 0, 37, 0
3, 272526, Note_on_c, 0, 39, 0
3, 272559, Note_on_c, 0, 40, 39
3, 272966, Note_on_c, 0, 56, 0
3, 272995, Note_on_c, 0, 59, 57
3, 273187, Note_on_c, 0, 59, 0
3, 273275, Note_on_c, 0, 60, 60
3, 273290, Note_on_c, 0, 59, 33
3, 273420, Note_on_c, 0, 35, 38
3, 273501, Note_on_c, 0, 40, 0
3, 273506, Note_on_c, 0, 59, 0
3, 273519, Note_on_c, 0, 60, 0
3, 273615, Note_on_c, 0, 61, 54
3, 273660, Note_on_c, 0, 28, 28
3, 273847, Note_on_c, 0, 35, 0
3, 273872, Note_on_c, 0, 61, 0
3, 273934, Note_on_c, 0, 62, 48
3, 274115, Note_on_c, 0, 62, 0
3, 274237, Note_on_c, 0, 63, 69
3, 274443, Note_on_c, 0, 63, 0
3, 274446, Note_on_c, 0, 40, 36
3, 274516, Note_on_c, 0, 64, 41
3, 274727, Note_on_c, 0, 64, 0
3, 274788, Note_on_c, 0, 65, 64
3, 274963, Note_on_c, 0, 65, 0
3, 275090, Note_on_c, 0, 68, 69
3, 275246, Note_on_c, 0, 40, 0
3, 275291, Note_on_c, 0, 68, 0
3, 275315, Note_on_c, 0, 35, 45
3, 275382, Note_on_c, 0, 71, 68
3, 275602, Note_on_c, 0, 28, 0
3, 275603, Note_on_c, 0, 71, 0
3, 275687, Note_on_c, 0, 74, 69
3, 275714, Note_on_c, 0, 35, 0
3, 275956, Note_on_c, 0, 74, 0
3, 275971, Note_on_c, 0, 71, 63
3, 276143, Note_on_c, 0, 71, 0
3, 276254, Note_on_c, 0, 72, 68
3, 276313, Note_on_c, 0, 45, 56
3, 276555, Note_on_c, 0, 74, 67
3, 276572, Note_on_c, 0, 72, 0
3, 276745, Note_on_c, 0, 74, 0
3, 276842, Note_on_c, 0, 72, 68
3, 277039, Note_on_c, 0, 72, 0
3, 277091, Note_on_c, 0, 52, 34
3, 277199, Note_on_c, 0, 68, 30
3, 277241, Note_on_c, 0, 45, 0
3, 277374, Note_on_c, 0, 68, 0
3, 277447, Note_on_c, 0, 71, 57
3, 277655, Note_on_c, 0, 71, 0
3, 277706, Note_on_c, 0, 69, 61
3, 277921, Note_on_c, 0, 69, 0
3, 278029, Note_on_c, 0, 69, 68
3, 278106, Note_on_c, 0, 57, 29
3, 278213, Note_on_c, 0, 69, 0
3, 278247, Note_on_c, 0, 52, 0
3, 278279, Note_on_c, 0, 64, 56
3, 278551, Note_on_c, 0, 64, 0
3, 278582, Note_on_c, 0, 62, 60
3, 278804, Note_on_c, 0, 62, 0
3, 278880, Note_on_c, 0, 60, 44
3, 279051, Note_on_c, 0, 52, 20
3, 279079, Note_on_c, 0, 57, 0
3, 279173, Note_on_c, 0, 59, 45
3, 279211, Note_on_c, 0, 60, 0
3, 279315, Note_on_c, 0, 59, 0
3, 279407, Note_on_c, 0, 60, 44
3, 279700, Note_on_c, 0, 60, 0
3, 279715, Note_on_c, 0, 59, 59
3, 279864, Note_on_c, 0, 59, 0
3, 279934, Note_on_c, 0, 60, 68
3, 280012, Note_on_c, 0, 45, 33
3, 280114, Note_on_c, 0, 52, 0
3, 280210, Note_on_c, 0, 60, 0
3, 280305, Note_on_c, 0, 45, 0
3, 280348, Note_on_c, 0, 60, 26
3, 280384, Note_on_c, 0, 52, 34
3, 280393, Note_on_c, 0, 59, 20
3, 280445, Note_on_c, 0, 60, 0
3, 280847, Note_on_c, 0, 59, 0
3, 281029, Note_on_c, 0, 52, 0
3, 281175, Note_on_c, 0, 40, 34
3, 281930, Note_on_c, 0, 47, 38
3, 281956, Note_on_c, 0, 40, 0
3, 282131, Note_on_c, 0, 47, 0
3, 282227, Note_on_c, 0, 52, 46
3, 282883, Note_on_c, 0, 64, 38
3, 282905, Note_on_c, 0, 56, 49
3, 282908, Note_on_c, 0, 59, 54
3, 282930, Note_on_c, 0, 53, 34
3, 282941, Note_on_c, 0, 52, 0
3, 283000, Note_on_c, 0, 53, 0
3, 283069, Note_on_c, 0, 56, 0
3, 283098, Note_on_c, 0, 59, 0
3, 283100, Note_on_c, 0, 64, 0
3, 283109, Note_on_c, 0, 47, 19
3, 283805, Note_on_c, 0, 47, 0
3, 283818, Note_on_c, 0, 44, 40
3, 284058, Note_on_c, 0, 44, 0
3, 284113, Note_on_c, 0, 45, 49
3, 284169, Note_on_c, 0, 64, 30
3, 284185, Note_on_c, 0, 59, 36
3, 284307, Note_on_c, 0, 59, 0
3, 284352, Note_on_c, 0, 64, 0
3, 284853, Note_on_c, 0, 71, 68
3, 284862, Note_on_c, 0, 64, 65
3, 284863, Note_on_c, 0, 60, 66
3, 284886, Note_on_c, 0, 67, 55
3, 285038, Note_on_c, 0, 60, 0
3, 285062, Note_on_c, 0, 67, 0
3, 285078, Note_on_c, 0, 71, 0
3, 285079, Note_on_c, 0, 64, 0
3, 285191, Note_on_c, 0, 69, 47
3, 285358, Note_on_c, 0, 69, 0
3, 285496, Note_on_c, 0, 71, 66
3, 285517, Note_on_c, 0, 60, 50
3, 285527, Note_on_c, 0, 64, 49
3, 285534, Note_on_c, 0, 67, 47
3, 285667, Note_on_c, 0, 60, 0
3, 285698, Note_on_c, 0, 67, 0
3, 285723, Note_on_c, 0, 71, 0
3, 285727, Note_on_c, 0, 64, 0
3, 285805, Note_on_c, 0, 69, 54
3, 285819, Note_on_c, 0, 64, 17
3, 285945, Note_on_c, 0, 64, 0
3, 285987, Note_on_c, 0, 69, 0
3, 286131, Note_on_c, 0, 71, 60
3, 286132, Note_on_c, 0, 60, 52
3, 286147, Note_on_c, 0, 64, 33
3, 286153, Note_on_c, 0, 58, 55
3, 286176, Note_on_c, 0, 67, 43
3, 286852, Note_on_c, 0, 60, 0
3, 286874, Note_on_c, 0, 64, 0
3, 286917, Note_on_c, 0, 67, 0
3, 286960, Note_on_c, 0, 71, 0
3, 286972, Note_on_c, 0, 58, 0
3, 287057, Note_on_c, 0, 60, 34
3, 287063, Note_on_c, 0, 57, 42
3, 287064, Note_on_c, 0, 69, 51
3, 287066, Note_on_c, 0, 64, 47
3, 287469, Note_on_c, 0, 60, 0
3, 287655, Note_on_c, 0, 64, 0
3, 287810, Note_on_c, 0, 57, 0
3, 287826, Note_on_c, 0, 69, 0
3, 288017, Note_on_c, 0, 71, 53
3, 288021, Note_on_c, 0, 64, 41
3, 288022, Note_on_c, 0, 60, 43
3, 288051, Note_on_c, 0, 56, 25
3, 288067, Note_on_c, 0, 67, 36
3, 288747, Note_on_c, 0, 45, 0
3, 288793, Note_on_c, 0, 67, 0
3, 288799, Note_on_c, 0, 60, 0
3, 288802, Note_on_c, 0, 56, 0
3, 288871, Note_on_c, 0, 64, 0
3, 288937, Note_on_c, 0, 71, 0
3, 288964, Note_on_c, 0, 60, 35
3, 288976, Note_on_c, 0, 69, 47
3, 288984, Note_on_c, 0, 64, 31
3, 288985, Note_on_c, 0, 45, 50
3, 289035, Note_on_c, 0, 55, 41
3, 289040, Note_on_c, 0, 45, 0
3, 289678, Note_on_c, 0, 60, 0
3, 289680, Note_on_c, 0, 64, 0
3, 289826, Note_on_c, 0, 69, 0
3, 289960, Note_on_c, 0, 60, 48
3, 289963, Note_on_c, 0, 71, 53
3, 289979, Note_on_c, 0, 64, 46
3, 290010, Note_on_c, 0, 67, 38
3, 290464, Note_on_c, 0, 60, 0
3, 290509, Note_on_c, 0, 67, 0
3, 290555, Note_on_c, 0, 64, 0
3, 290579, Note_on_c, 0, 55, 0
3, 290633, Note_on_c, 0, 71, 0
3, 290659, Note_on_c, 0, 56, 25
3, 290708, Note_on_c, 0, 56, 0
3, 290884, Note_on_c, 0, 60, 52
3, 290894, Note_on_c, 0, 64, 58
3, 290895, Note_on_c, 0, 69, 68
3, 290909, Note_on_c, 0, 59, 59
3, 291202, Note_on_c, 0, 64, 0
3, 291367, Note_on_c, 0, 69, 0
3, 291552, Note_on_c, 0, 54, 29
3, 291590, Note_on_c, 0, 60, 0
3, 291597, Note_on_c, 0, 59, 0
3, 291795, Note_on_c, 0, 54, 0
3, 291829, Note_on_c, 0, 57, 51
3, 291832, Note_on_c, 0, 72, 76
3, 291852, Note_on_c, 0, 61, 60
3, 291862, Note_on_c, 0, 65, 66
3, 292619, Note_on_c, 0, 61, 0
3, 292622, Note_on_c, 0, 65, 0
3, 292718, Note_on_c, 0, 72, 0
3, 292784, Note_on_c, 0, 61, 50
3, 292805, Note_on_c, 0, 70, 56
3, 292818, Note_on_c, 0, 65, 53
3, 292832, Note_on_c, 0, 56, 44
3, 292847, Note_on_c, 0, 57, 0
3, 293549, Note_on_c, 0, 61, 0
3, 293595, Note_on_c, 0, 65, 0
3, 293754, Note_on_c, 0, 61, 43
3, 293766, Note_on_c, 0, 56, 0
3, 293769, Note_on_c, 0, 70, 0
3, 293790, Note_on_c, 0, 55, 40
3, 293796, Note_on_c, 0, 69, 46
3, 293800, Note_on_c, 0, 65, 43
3, 294751, Note_on_c, 0, 53, 41
3, 294769, Note_on_c, 0, 55, 0
3, 295153, Note_on_c, 0, 61, 0
3, 295200, Note_on_c, 0, 65, 0
3, 295235, Note_on_c, 0, 69, 0
3, 295372, Note_on_c, 0, 61, 55
3, 295381, Note_on_c, 0, 70, 57
3, 295455, Note_on_c, 0, 65, 28
3, 295556, Note_on_c, 0, 65, 0
3, 295570, Note_on_c, 0, 53, 0
3, 295611, Note_on_c, 0, 52, 31
3, 295612, Note_on_c, 0, 61, 0
3, 295751, Note_on_c, 0, 70, 0
3, 295928, Note_on_c, 0, 72, 51
3, 295949, Note_on_c, 0, 61, 38
3, 295962, Note_on_c, 0, 69, 39
3, 295964, Note_on_c, 0, 65, 50
3, 296343, Note_on_c, 0, 72, 0
3, 296345, Note_on_c, 0, 61, 0
3, 296365, Note_on_c, 0, 65, 0
3, 296429, Note_on_c, 0, 69, 0
3, 296600, Note_on_c, 0, 70, 59
3, 296603, Note_on_c, 0, 61, 48
3, 296611, Note_on_c, 0, 51, 49
3, 296621, Note_on_c, 0, 52, 0
3, 296640, Note_on_c, 0, 65, 53
3, 296905, Note_on_c, 0, 51, 0
3, 297303, Note_on_c, 0, 39, 55
3, 297469, Note_on_c, 0, 39, 0
3, 297653, Note_on_c, 0, 46, 27
3, 297693, Note_on_c, 0, 55, 77
3, 297706, Note_on_c, 0, 53, 52
3, 297733, Note_on_c, 0, 46, 0
3, 297836, Note_on_c, 0, 55, 0
3, 298400, Note_on_c, 0, 65, 0
3, 298401, Note_on_c, 0, 61, 0
3, 298591, Note_on_c, 0, 61, 39
3, 298597, Note_on_c, 0, 69, 59
3, 298598, Note_on_c, 0, 70, 0
3, 298600, Note_on_c, 0, 51, 47
3, 298614, Note_on_c, 0, 53, 0
3, 298620, Note_on_c, 0, 65, 48
3, 298988, Note_on_c, 0, 69, 0
3, 299160, Note_on_c, 0, 61, 0
3, 299255, Note_on_c, 0, 65, 0
3, 299468, Note_on_c, 0, 51, 0
3, 299492, Note_on_c, 0, 50, 30
3, 299550, Note_on_c, 0, 60, 45
3, 299554, Note_on_c, 0, 67, 50
3, 299578, Note_on_c, 0, 64, 37
3, 300047, Note_on_c, 0, 60, 0
3, 300115, Note_on_c, 0, 64, 0
3, 300123, Note_on_c, 0, 67, 0
3, 300226, Note_on_c, 0, 74, 74
3, 300242, Note_on_c, 0, 62, 61
3, 300614, Note_on_c, 0, 67, 43
3, 301044, Note_on_c, 0, 67, 0
3, 301046, Note_on_c, 0, 50, 0
3, 301178, Note_on_c, 0, 67, 57
3, 301207, Note_on_c, 0, 50, 42
3, 301492, Note_on_c, 0, 62, 0
3, 301650, Note_on_c, 0, 50, 0
3, 302142, Note_on_c, 0, 49, 56
3, 302381, Note_on_c, 0, 49, 0
3, 302441, Note_on_c, 0, 50, 52
3, 302522, Note_on_c, 0, 67, 0
3, 302609, Note_on_c, 0, 74, 0
3, 303105, Note_on_c, 0, 38, 71
3, 303813, Note_on_c, 0, 79, 76
3, 303816, Note_on_c, 0, 81, 81
3, 303958, Note_on_c, 0, 81, 0
3, 304004, Note_on_c, 0, 79, 0
3, 304077, Note_on_c, 0, 78, 59
3, 304246, Note_on_c, 0, 50, 0
3, 304380, Note_on_c, 0, 73, 44
3, 304490, Note_on_c, 0, 78, 0
3, 304694, Note_on_c, 0, 73, 0
3, 304705, Note_on_c, 0, 72, 47
3, 304913, Note_on_c, 0, 72, 0
3, 305003, Note_on_c, 0, 77, 77
3, 305083, Note_on_c, 0, 50, 45
3, 305307, Note_on_c, 0, 76, 65
3, 305353, Note_on_c, 0, 77, 0
3, 305387, Note_on_c, 0, 38, 0
3, 305600, Note_on_c, 0, 76, 0
3, 305609, Note_on_c, 0, 71, 55
3, 305922, Note_on_c, 0, 70, 37
3, 305988, Note_on_c, 0, 38, 41
3, 306005, Note_on_c, 0, 71, 0
3, 306197, Note_on_c, 0, 70, 0
3, 306241, Note_on_c, 0, 75, 70
3, 306459, Note_on_c, 0, 75, 0
3, 306608, Note_on_c, 0, 74, 29
3, 306658, Note_on_c, 0, 74, 0
3, 306706, Note_on_c, 0, 38, 0
3, 306912, Note_on_c, 0, 42, 57
3, 306948, Note_on_c, 0, 68, 69
3, 307075, Note_on_c, 0, 50, 0
3, 307200, Note_on_c, 0, 42, 0
3, 307200, Note_on_c, 0, 67, 51
3, 307216, Note_on_c, 0, 68, 0
3, 307275, Note_on_c, 0, 43, 44
3, 307620, Note_on_c, 0, 67, 0
3, 307865, Note_on_c, 0, 71, 76
3, 308106, Note_on_c, 0, 71, 0
3, 308147, Note_on_c, 0, 66, 62
3, 308149, Note_on_c, 0, 55, 41
3, 308213, Note_on_c, 0, 55, 0
3, 308346, Note_on_c, 0, 66, 0
3, 308731, Note_on_c, 0, 60, 35
3, 308836, Note_on_c, 0, 60, 0
3, 309115, Note_on_c, 0, 50, 33
3, 309351, Note_on_c, 0, 43, 0
3, 309374, Note_on_c, 0, 59, 45
3, 309387, Note_on_c, 0, 60, 49
3, 309439, Note_on_c, 0, 60, 0
3, 309474, Note_on_c, 0, 59, 0
3, 309577, Note_on_c, 0, 60, 44
3, 309690, Note_on_c, 0, 60, 0
3, 309732, Note_on_c, 0, 59, 39
3, 309882, Note_on_c, 0, 58, 55
3, 309887, Note_on_c, 0, 59, 0
3, 309989, Note_on_c, 0, 58, 0
3, 310058, Note_on_c, 0, 59, 62
3, 310108, Note_on_c, 0, 59, 0
3, 310146, Note_on_c, 0, 43, 27
3, 310247, Note_on_c, 0, 62, 74
3, 310418, Note_on_c, 0, 64, 64
3, 310421, Note_on_c, 0, 62, 0
3, 310558, Note_on_c, 0, 50, 0
3, 310599, Note_on_c, 0, 62, 62
3, 310609, Note_on_c, 0, 64, 0
3, 310789, Note_on_c, 0, 62, 0
3, 310822, Note_on_c, 0, 61, 27
3, 310942, Note_on_c, 0, 61, 0
3, 310970, Note_on_c, 0, 62, 64
3, 311021, Note_on_c, 0, 62, 0
3, 311064, Note_on_c, 0, 50, 33
3, 311191, Note_on_c, 0, 67, 75
3, 311338, Note_on_c, 0, 67, 0
3, 311366, Note_on_c, 0, 69, 57
3, 311408, Note_on_c, 0, 43, 0
3, 311491, Note_on_c, 0, 67, 36
3, 311506, Note_on_c, 0, 69, 0
3, 311671, Note_on_c, 0, 67, 0
3, 311689, Note_on_c, 0, 66, 34
3, 311872, Note_on_c, 0, 66, 0
3, 311896, Note_on_c, 0, 67, 65
3, 311948, Note_on_c, 0, 67, 0
3, 312070, Note_on_c, 0, 55, 45
3, 312100, Note_on_c, 0, 50, 0
3, 312107, Note_on_c, 0, 71, 79
3, 312233, Note_on_c, 0, 71, 0
3, 312309, Note_on_c, 0, 72, 51
3, 312419, Note_on_c, 0, 71, 58
3, 312421, Note_on_c, 0, 72, 0
3, 312652, Note_on_c, 0, 71, 0
3, 312672, Note_on_c, 0, 70, 34
3, 312786, Note_on_c, 0, 70, 0
3, 312930, Note_on_c, 0, 50, 32
3, 312933, Note_on_c, 0, 74, 63
3, 313005, Note_on_c, 0, 55, 0
3, 313096, Note_on_c, 0, 74, 0
3, 313106, Note_on_c, 0, 76, 63
3, 313234, Note_on_c, 0, 74, 43
3, 313267, Note_on_c, 0, 76, 0
3, 313439, Note_on_c, 0, 74, 0
3, 313477, Note_on_c, 0, 73, 25
3, 313568, Note_on_c, 0, 73, 0
3, 313661, Note_on_c, 0, 74, 31
3, 313732, Note_on_c, 0, 74, 0
3, 313965, Note_on_c, 0, 43, 53
3, 313991, Note_on_c, 0, 50, 0
3, 314571, Note_on_c, 0, 50, 43
3, 314607, Note_on_c, 0, 84, 90
3, 314790, Note_on_c, 0, 43, 0
3, 314809, Note_on_c, 0, 50, 0
3, 314899, Note_on_c, 0, 84, 0
3, 314966, Note_on_c, 0, 46, 30
3, 314996, Note_on_c, 0, 82, 54
3, 315543, Note_on_c, 0, 73, 46
3, 315698, Note_on_c, 0, 82, 0
3, 315846, Note_on_c, 0, 73, 0
3, 315880, Note_on_c, 0, 53, 40
3, 315893, Note_on_c, 0, 72, 44
3, 316532, Note_on_c, 0, 77, 71
3, 316596, Note_on_c, 0, 72, 0
3, 316726, Note_on_c, 0, 46, 0
3, 316743, Note_on_c, 0, 53, 0
3, 316755, Note_on_c, 0, 57, 26
3, 316834, Note_on_c, 0, 77, 0
3, 316952, Note_on_c, 0, 75, 52
3, 317346, Note_on_c, 0, 75, 0
3, 317695, Note_on_c, 0, 57, 0
3, 317736, Note_on_c, 0, 53, 36
3, 318394, Note_on_c, 0, 61, 57
3, 318400, Note_on_c, 0, 72, 52
3, 318412, Note_on_c, 0, 65, 59
3, 318615, Note_on_c, 0, 53, 0
3, 318665, Note_on_c, 0, 61, 0
3, 318676, Note_on_c, 0, 72, 0
3, 318726, Note_on_c, 0, 51, 37
3, 318769, Note_on_c, 0, 61, 27
3, 318798, Note_on_c, 0, 70, 59
3, 319132, Note_on_c, 0, 51, 0
3, 319330, Note_on_c, 0, 65, 0
3, 319340, Note_on_c, 0, 61, 0
3, 319412, Note_on_c, 0, 39, 56
3, 319458, Note_on_c, 0, 70, 0
3, 319723, Note_on_c, 0, 51, 55
3, 319736, Note_on_c, 0, 61, 50
3, 319757, Note_on_c, 0, 65, 57
3, 319815, Note_on_c, 0, 65, 0
3, 319862, Note_on_c, 0, 61, 0
3, 320260, Note_on_c, 0, 51, 0
3, 320409, Note_on_c, 0, 65, 64
3, 320420, Note_on_c, 0, 60, 56
3, 320427, Note_on_c, 0, 61, 49
3, 320437, Note_on_c, 0, 55, 45
3, 320488, Note_on_c, 0, 51, 34
3, 320499, Note_on_c, 0, 55, 0
3, 320539, Note_on_c, 0, 60, 0
3, 320557, Note_on_c, 0, 61, 0
3, 320559, Note_on_c, 0, 65, 0
3, 320985, Note_on_c, 0, 65, 51
3, 320998, Note_on_c, 0, 55, 49
3, 321005, Note_on_c, 0, 60, 54
3, 321023, Note_on_c, 0, 61, 42
3, 321346, Note_on_c, 0, 60, 0
3, 321354, Note_on_c, 0, 61, 0
3, 321381, Note_on_c, 0, 55, 0
3, 321446, Note_on_c, 0, 65, 0
3, 321488, Note_on_c, 0, 51, 0
3, 321629, Note_on_c, 0, 46, 34
3, 321652, Note_on_c, 0, 39, 0
3, 321656, Note_on_c, 0, 63, 45
3, 321667, Note_on_c, 0, 55, 33
3, 321682, Note_on_c, 0, 60, 30
3, 321711, Note_on_c, 0, 61, 28
3, 321864, Note_on_c, 0, 60, 0
3, 321936, Note_on_c, 0, 61, 0
3, 321958, Note_on_c, 0, 55, 0
3, 322030, Note_on_c, 0, 63, 0
3, 322197, Note_on_c, 0, 42, 26
3, 322261, Note_on_c, 0, 54, 53
3, 322264, Note_on_c, 0, 46, 0
3, 322270, Note_on_c, 0, 59, 54
3, 322280, Note_on_c, 0, 62, 57
3, 322303, Note_on_c, 0, 57, 46
3, 322346, Note_on_c, 0, 42, 0
3, 322416, Note_on_c, 0, 43, 29
3, 323147, Note_on_c, 0, 57, 0
3, 323148, Note_on_c, 0, 54, 0
3, 323196, Note_on_c, 0, 59, 0
3, 323248, Note_on_c, 0, 50, 48
3, 323284, Note_on_c, 0, 62, 0
3, 323341, Note_on_c, 0, 43, 0
3, 323577, Note_on_c, 0, 62, 64
3, 323718, Note_on_c, 0, 62, 0
3, 323858, Note_on_c, 0, 64, 60
3, 323996, Note_on_c, 0, 64, 0
3, 324179, Note_on_c, 0, 66, 71
3, 324371, Note_on_c, 0, 50, 0
3, 324425, Note_on_c, 0, 54, 20
3, 324468, Note_on_c, 0, 66, 0
3, 324538, Note_on_c, 0, 59, 37
3, 324757, Note_on_c, 0, 59, 0
3, 324788, Note_on_c, 0, 61, 35
3, 324946, Note_on_c, 0, 61, 0
3, 325107, Note_on_c, 0, 62, 65
3, 325160, Note_on_c, 0, 54, 0
3, 325217, Note_on_c, 0, 50, 40
3, 325261, Note_on_c, 0, 62, 0
3, 325474, Note_on_c, 0, 55, 43
3, 325612, Note_on_c, 0, 55, 0
3, 325842, Note_on_c, 0, 57, 51
3, 325962, Note_on_c, 0, 57, 0
3, 326120, Note_on_c, 0, 59, 87
3, 326264, Note_on_c, 0, 59, 0
3, 326273, Note_on_c, 0, 50, 0
3, 326324, Note_on_c, 0, 43, 43
3, 326511, Note_on_c, 0, 50, 44
3, 326680, Note_on_c, 0, 50, 0
3, 326770, Note_on_c, 0, 52, 38
3, 326932, Note_on_c, 0, 52, 0
3, 327031, Note_on_c, 0, 54, 64
3, 327244, Note_on_c, 0, 54, 0
3, 327335, Note_on_c, 0, 50, 37
3, 327399, Note_on_c, 0, 50, 0
3, 328007, Note_on_c, 0, 43, 0
3, 328019, Note_on_c, 0, 50, 44
3, 328325, Note_on_c, 0, 57, 61
3, 328640, Note_on_c, 0, 50, 0
3, 328813, Note_on_c, 0, 57, 0
3, 328954, Note_on_c, 0, 50, 35
3, 329158, Note_on_c, 0, 50, 0
3, 329284, Note_on_c, 0, 50, 33
3, 329289, Note_on_c, 0, 54, 58
3, 329902, Note_on_c, 0, 54, 0
3, 329938, Note_on_c, 0, 55, 38
3, 330069, Note_on_c, 0, 50, 0
3, 330292, Note_on_c, 0, 46, 38
3, 331154, Note_on_c, 0, 55, 0
3, 331185, Note_on_c, 0, 60, 53
3, 331196, Note_on_c, 0, 46, 0
3, 331846, Note_on_c, 0, 62, 77
3, 331905, Note_on_c, 0, 60, 0
3, 332226, Note_on_c, 0, 47, 38
3, 332293, Note_on_c, 0, 57, 51
3, 332536, Note_on_c, 0, 62, 0
3, 333179, Note_on_c, 0, 47, 0
3, 333228, Note_on_c, 0, 41, 42
3, 333877, Note_on_c, 0, 39, 37
3, 333883, Note_on_c, 0, 41, 0
3, 334067, Note_on_c, 0, 39, 0
3, 334120, Note_on_c, 0, 40, 35
3, 334150, Note_on_c, 0, 57, 0
3, 334384, Note_on_c, 0, 55, 51
3, 334613, Note_on_c, 0, 55, 0
3, 334667, Note_on_c, 0, 56, 38
3, 334805, Note_on_c, 0, 56, 0
3, 334812, Note_on_c, 0, 58, 49
3, 334862, Note_on_c, 0, 58, 0
3, 334920, Note_on_c, 0, 59, 65
3, 335030, Note_on_c, 0, 28, 36
3, 335031, Note_on_c, 0, 59, 0
3, 335105, Note_on_c, 0, 60, 25
3, 335164, Note_on_c, 0, 60, 0
3, 335318, Note_on_c, 0, 40, 0
3, 335382, Note_on_c, 0, 62, 38
3, 335452, Note_on_c, 0, 62, 0
3, 335503, Note_on_c, 0, 63, 37
3, 335597, Note_on_c, 0, 63, 0
3, 335601, Note_on_c, 0, 64, 57
3, 335707, Note_on_c, 0, 64, 0
3, 335789, Note_on_c, 0, 65, 94
3, 336034, Note_on_c, 0, 65, 0
3, 336101, Note_on_c, 0, 64, 68
3, 336116, Note_on_c, 0, 40, 42
3, 336216, Note_on_c, 0, 64, 0
3, 336343, Note_on_c, 0, 62, 74
3, 336494, Note_on_c, 0, 62, 0
3, 336595, Note_on_c, 0, 59, 46
3, 336672, Note_on_c, 0, 59, 0
3, 337058, Note_on_c, 0, 55, 27
3, 337103, Note_on_c, 0, 35, 31
3, 337108, Note_on_c, 0, 55, 0
3, 337111, Note_on_c, 0, 40, 0
3, 337177, Note_on_c, 0, 59, 74
3, 337200, Note_on_c, 0, 28, 0
3, 337378, Note_on_c, 0, 59, 0
3, 337430, Note_on_c, 0, 55, 57
3, 337517, Note_on_c, 0, 55, 0
3, 337610, Note_on_c, 0, 56, 39
3, 337821, Note_on_c, 0, 35, 0
3, 337823, Note_on_c, 0, 56, 0
3, 337863, Note_on_c, 0, 57, 54
3, 338000, Note_on_c, 0, 45, 45
3, 338017, Note_on_c, 0, 57, 0
3, 338439, Note_on_c, 0, 64, 57
3, 338529, Note_on_c, 0, 64, 0
3, 338605, Note_on_c, 0, 67, 87
3, 338817, Note_on_c, 0, 67, 0
3, 338869, Note_on_c, 0, 64, 52
3, 338894, Note_on_c, 0, 45, 0
3, 338917, Note_on_c, 0, 33, 28
3, 338997, Note_on_c, 0, 64, 0
3, 339106, Note_on_c, 0, 60, 53
3, 339303, Note_on_c, 0, 60, 0
3, 339803, Note_on_c, 0, 45, 50
3, 340007, Note_on_c, 0, 33, 0
3, 340528, Note_on_c, 0, 38, 32
3, 340551, Note_on_c, 0, 45, 0
3, 340687, Note_on_c, 0, 38, 0
3, 340788, Note_on_c, 0, 39, 55
3, 341444, Note_on_c, 0, 67, 64
3, 341446, Note_on_c, 0, 56, 68
3, 341452, Note_on_c, 0, 60, 60
3, 341458, Note_on_c, 0, 62, 61
3, 341473, Note_on_c, 0, 39, 0
3, 341494, Note_on_c, 0, 67, 0
3, 341495, Note_on_c, 0, 56, 0
3, 341505, Note_on_c, 0, 60, 0
3, 341516, Note_on_c, 0, 62, 0
3, 341653, Note_on_c, 0, 40, 43
3, 342427, Note_on_c, 0, 68, 83
3, 342429, Note_on_c, 0, 79, 80
3, 342431, Note_on_c, 0, 72, 80
3, 342448, Note_on_c, 0, 74, 66
3, 342496, Note_on_c, 0, 74, 0
3, 342649, Note_on_c, 0, 79, 0
3, 342692, Note_on_c, 0, 68, 0
3, 342717, Note_on_c, 0, 72, 0
3, 342775, Note_on_c, 0, 52, 11
3, 342854, Note_on_c, 0, 77, 68
3, 342866, Note_on_c, 0, 68, 52
3, 343098, Note_on_c, 0, 77, 0
3, 343213, Note_on_c, 0, 68, 0
3, 343351, Note_on_c, 0, 52, 0
3, 343429, Note_on_c, 0, 76, 67
3, 343442, Note_on_c, 0, 71, 55
3, 343445, Note_on_c, 0, 65, 62
3, 343446, Note_on_c, 0, 68, 55
3, 343583, Note_on_c, 0, 52, 17
3, 343712, Note_on_c, 0, 76, 0
3, 343784, Note_on_c, 0, 68, 0
3, 343812, Note_on_c, 0, 65, 0
3, 343822, Note_on_c, 0, 71, 0
3, 343968, Note_on_c, 0, 74, 53
3, 343990, Note_on_c, 0, 71, 41
3, 343994, Note_on_c, 0, 68, 37
3, 343995, Note_on_c, 0, 65, 34
3, 344229, Note_on_c, 0, 71, 0
3, 344305, Note_on_c, 0, 52, 0
3, 344332, Note_on_c, 0, 65, 0
3, 344351, Note_on_c, 0, 68, 0
3, 344496, Note_on_c, 0, 74, 0
3, 344516, Note_on_c, 0, 40, 0
3, 344639, Note_on_c, 0, 71, 46
3, 344675, Note_on_c, 0, 65, 31
3, 344687, Note_on_c, 0, 44, 36
3, 344703, Note_on_c, 0, 68, 23
3, 344918, Note_on_c, 0, 65, 0
3, 344983, Note_on_c, 0, 71, 0
3, 345017, Note_on_c, 0, 68, 0
3, 345339, Note_on_c, 0, 76, 70
3, 345342, Note_on_c, 0, 72, 60
3, 345343, Note_on_c, 0, 69, 68
3, 345353, Note_on_c, 0, 67, 70
3, 345358, Note_on_c, 0, 44, 0
3, 345432, Note_on_c, 0, 45, 36
3, 345519, Note_on_c, 0, 72, 0
3, 345528, Note_on_c, 0, 69, 0
3, 345541, Note_on_c, 0, 76, 0
3, 345571, Note_on_c, 0, 67, 0
3, 345925, Note_on_c, 0, 74, 55
3, 345941, Note_on_c, 0, 69, 59
3, 345955, Note_on_c, 0, 65, 50
3, 346181, Note_on_c, 0, 74, 0
3, 346188, Note_on_c, 0, 69, 0
3, 346286, Note_on_c, 0, 65, 0
3, 346558, Note_on_c, 0, 72, 62
3, 346572, Note_on_c, 0, 67, 60
3, 346575, Note_on_c, 0, 64, 50
3, 346598, Note_on_c, 0, 57, 34
3, 346626, Note_on_c, 0, 69, 32
3, 346742, Note_on_c, 0, 69, 0
3, 346843, Note_on_c, 0, 72, 0
3, 346846, Note_on_c, 0, 67, 0
3, 346931, Note_on_c, 0, 57, 0
3, 346980, Note_on_c, 0, 64, 0
3, 347217, Note_on_c, 0, 71, 67
3, 347242, Note_on_c, 0, 64, 68
3, 347248, Note_on_c, 0, 60, 62
3, 347310, Note_on_c, 0, 56, 54
3, 348340, Note_on_c, 0, 60, 0
3, 348353, Note_on_c, 0, 64, 0
3, 348441, Note_on_c, 0, 56, 0
3, 348466, Note_on_c, 0, 71, 0
3, 348517, Note_on_c, 0, 55, 44
3, 348520, Note_on_c, 0, 64, 44
3, 348526, Note_on_c, 0, 69, 54
3, 348537, Note_on_c, 0, 60, 29
3, 349018, Note_on_c, 0, 64, 0
3, 349192, Note_on_c, 0, 60, 0
3, 349253, Note_on_c, 0, 45, 0
3, 349255, Note_on_c, 0, 55, 0
3, 349343, Note_on_c, 0, 69, 0
3, 349474, Note_on_c, 0, 67, 44
3, 349480, Note_on_c, 0, 60, 30
3, 349486, Note_on_c, 0, 63, 30
3, 349489, Note_on_c, 0, 51, 36
3, 349806, Note_on_c, 0, 67, 0
3, 349886, Note_on_c, 0, 60, 0
3, 349929, Note_on_c, 0, 63, 0
3, 350308, Note_on_c, 0, 51, 0
3, 350413, Note_on_c, 0, 63, 34
3, 350444, Note_on_c, 0, 60, 34
3, 350834, Note_on_c, 0, 60, 0
3, 350885, Note_on_c, 0, 63, 0
3, 351038, Note_on_c, 0, 48, 42
3, 351191, Note_on_c, 0, 48, 0
3, 351359, Note_on_c, 0, 74, 74
3, 351362, Note_on_c, 0, 59, 61
3, 351363, Note_on_c, 0, 63, 60
3, 351391, Note_on_c, 0, 67, 54
3, 351880, Note_on_c, 0, 59, 0
3, 352180, Note_on_c, 0, 63, 0
3, 352182, Note_on_c, 0, 67, 0
3, 352186, Note_on_c, 0, 74, 0
3, 352308, Note_on_c, 0, 57, 38
3, 352316, Note_on_c, 0, 72, 49
3, 352341, Note_on_c, 0, 63, 40
3, 352381, Note_on_c, 0, 67, 40
3, 352690, Note_on_c, 0, 67, 0
3, 352800, Note_on_c, 0, 63, 0
3, 352816, Note_on_c, 0, 72, 0
3, 353048, Note_on_c, 0, 57, 0
3, 353255, Note_on_c, 0, 57, 30
3, 353290, Note_on_c, 0, 47, 34
3, 353313, Note_on_c, 0, 66, 60
3, 353426, Note_on_c, 0, 66, 0
3, 353649, Note_on_c, 0, 57, 0
3, 353871, Note_on_c, 0, 66, 64
3, 354070, Note_on_c, 0, 66, 0
3, 354269, Note_on_c, 0, 57, 24
3, 354357, Note_on_c, 0, 66, 57
3, 354585, Note_on_c, 0, 66, 0
3, 354676, Note_on_c, 0, 76, 50
3, 354690, Note_on_c, 0, 74, 43
3, 354887, Note_on_c, 0, 76, 0
3, 355026, Note_on_c, 0, 47, 0
3, 355033, Note_on_c, 0, 57, 0
3, 355139, Note_on_c, 0, 74, 0
3, 355280, Note_on_c, 0, 74, 55
3, 355286, Note_on_c, 0, 46, 43
3, 355315, Note_on_c, 0, 56, 36
3, 356085, Note_on_c, 0, 46, 0
3, 356217, Note_on_c, 0, 74, 0
3, 356234, Note_on_c, 0, 46, 45
3, 356741, Note_on_c, 0, 46, 0
3, 356752, Note_on_c, 0, 56, 0
3, 356868, Note_on_c, 0, 44, 32
3, 356896, Note_on_c, 0, 45, 75
3, 356919, Note_on_c, 0, 44, 0
3, 357244, Note_on_c, 0, 55, 48
3, 357751, Note_on_c, 0, 55, 0
3, 357878, Note_on_c, 0, 72, 78
3, 357884, Note_on_c, 0, 60, 80
3, 358039, Note_on_c, 0, 55, 22
3, 358135, Note_on_c, 0, 60, 0
3, 358158, Note_on_c, 0, 72, 0
3, 358262, Note_on_c, 0, 67, 39
3, 358492, Note_on_c, 0, 55, 0
3, 358609, Note_on_c, 0, 67, 0
3, 358823, Note_on_c, 0, 72, 71
3, 358828, Note_on_c, 0, 55, 54
3, 358835, Note_on_c, 0, 67, 68
3, 358848, Note_on_c, 0, 60, 49
3, 358896, Note_on_c, 0, 55, 0
3, 358957, Note_on_c, 0, 67, 0
3, 358998, Note_on_c, 0, 72, 0
3, 359079, Note_on_c, 0, 60, 0
3, 359177, Note_on_c, 0, 45, 0
3, 359211, Note_on_c, 0, 48, 29
3, 359250, Note_on_c, 0, 71, 60
3, 359265, Note_on_c, 0, 66, 52
3, 359266, Note_on_c, 0, 60, 34
3, 359268, Note_on_c, 0, 48, 0
3, 359274, Note_on_c, 0, 50, 45
3, 359291, Note_on_c, 0, 49, 35
3, 359293, Note_on_c, 0, 63, 38
3, 359454, Note_on_c, 0, 49, 0
3, 359800, Note_on_c, 0, 71, 0
3, 359854, Note_on_c, 0, 66, 0
3, 359868, Note_on_c, 0, 60, 0
3, 359896, Note_on_c, 0, 63, 0
3, 359962, Note_on_c, 0, 50, 0
3, 360065, Note_on_c, 0, 63, 40
3, 360091, Note_on_c, 0, 50, 41
3, 360108, Note_on_c, 0, 66, 38
3, 360114, Note_on_c, 0, 60, 30
3, 360449, Note_on_c, 0, 60, 0
3, 360564, Note_on_c, 0, 50, 0
3, 360567, Note_on_c, 0, 63, 0
3, 360602, Note_on_c, 0, 66, 0
3, 360715, Note_on_c, 0, 69, 61
3, 360717, Note_on_c, 0, 50, 40
3, 360723, Note_on_c, 0, 66, 35
3, 360734, Note_on_c, 0, 62, 61
3, 360752, Note_on_c, 0, 59, 31
3, 360758, Note_on_c, 0, 57, 42
3, 361356, Note_on_c, 0, 57, 0
3, 361378, Note_on_c, 0, 59, 0
3, 361403, Note_on_c, 0, 62, 0
3, 361412, Note_on_c, 0, 69, 0
3, 361489, Note_on_c, 0, 50, 0
3, 361529, Note_on_c, 0, 66, 0
3, 361665, Note_on_c, 0, 69, 56
3, 361672, Note_on_c, 0, 66, 21
3, 361678, Note_on_c, 0, 62, 61
3, 361680, Note_on_c, 0, 50, 37
3, 361686, Note_on_c, 0, 59, 33
3, 361690, Note_on_c, 0, 57, 40
3, 361861, Note_on_c, 0, 57, 0
3, 361900, Note_on_c, 0, 59, 0
3, 361910, Note_on_c, 0, 69, 0
3, 361918, Note_on_c, 0, 62, 0
3, 362080, Note_on_c, 0, 67, 32
3, 362133, Note_on_c, 0, 50, 0
3, 362245, Note_on_c, 0, 49, 1
3, 362470, Note_on_c, 0, 66, 0
3, 362485, Note_on_c, 0, 67, 0
3, 362631, Note_on_c, 0, 62, 52
3, 362644, Note_on_c, 0, 66, 19
3, 362645, Note_on_c, 0, 69, 31
3, 362674, Note_on_c, 0, 50, 44
3, 362676, Note_on_c, 0, 49, 0
3, 362830, Note_on_c, 0, 62, 0
3, 362872, Note_on_c, 0, 69, 0
3, 363068, Note_on_c, 0, 66, 0
3, 363263, Note_on_c, 0, 50, 0
3, 363621, Note_on_c, 0, 69, 66
3, 363629, Note_on_c, 0, 62, 67
3, 363646, Note_on_c, 0, 66, 36
3, 363647, Note_on_c, 0, 50, 47
3, 363652, Note_on_c, 0, 49, 25
3, 363786, Note_on_c, 0, 49, 0
3, 363869, Note_on_c, 0, 66, 0
3, 363890, Note_on_c, 0, 62, 0
3, 363937, Note_on_c, 0, 69, 0
3, 364007, Note_on_c, 0, 67, 49
3, 364650, Note_on_c, 0, 38, 42
3, 364674, Note_on_c, 0, 67, 0
3, 364687, Note_on_c, 0, 50, 0
3, 364955, Note_on_c, 0, 67, 55
3, 364968, Note_on_c, 0, 64, 44
3, 364970, Note_on_c, 0, 69, 55
3, 364971, Note_on_c, 0, 50, 51
3, 364980, Note_on_c, 0, 60, 31
3, 365266, Note_on_c, 0, 50, 0
3, 365294, Note_on_c, 0, 64, 0
3, 365303, Note_on_c, 0, 69, 0
3, 365313, Note_on_c, 0, 60, 0
3, 365332, Note_on_c, 0, 67, 0
3, 365536, Note_on_c, 0, 69, 66
3, 365548, Note_on_c, 0, 50, 51
3, 365562, Note_on_c, 0, 60, 49
3, 365567, Note_on_c, 0, 64, 49
3, 365736, Note_on_c, 0, 60, 0
3, 365761, Note_on_c, 0, 64, 0
3, 365786, Note_on_c, 0, 69, 0
3, 365845, Note_on_c, 0, 50, 0
3, 365919, Note_on_c, 0, 45, 37
3, 365956, Note_on_c, 0, 67, 37
3, 366237, Note_on_c, 0, 67, 0
3, 366417, Note_on_c, 0, 45, 0
3, 366455, Note_on_c, 0, 69, 65
3, 366460, Note_on_c, 0, 50, 46
3, 366462, Note_on_c, 0, 60, 53
3, 366474, Note_on_c, 0, 64, 53
3, 366484, Note_on_c, 0, 38, 0
3, 366803, Note_on_c, 0, 67, 1
3, 366998, Note_on_c, 0, 64, 0
3, 367032, Note_on_c, 0, 60, 0
3, 367061, Note_on_c, 0, 69, 0
3, 367106, Note_on_c, 0, 67, 0
3, 367135, Note_on_c, 0, 50, 0
3, 367342, Note_on_c, 0, 49, 32
3, 367364, Note_on_c, 0, 50, 57
3, 367372, Note_on_c, 0, 69, 62
3, 367385, Note_on_c, 0, 60, 56
3, 367391, Note_on_c, 0, 64, 54
3, 367459, Note_on_c, 0, 49, 0
3, 367580, Note_on_c, 0, 60, 0
3, 367592, Note_on_c, 0, 64, 0
3, 367608, Note_on_c, 0, 69, 0
3, 367767, Note_on_c, 0, 67, 41
3, 367787, Note_on_c, 0, 64, 17
3, 367795, Note_on_c, 0, 60, 22
3, 367861, Note_on_c, 0, 64, 0
3, 367979, Note_on_c, 0, 60, 0
3, 368165, Note_on_c, 0, 67, 0
3, 368313, Note_on_c, 0, 69, 63
3, 368315, Note_on_c, 0, 66, 50
3, 368317, Note_on_c, 0, 59, 47
3, 368327, Note_on_c, 0, 43, 44
3, 368330, Note_on_c, 0, 62, 65
3, 368339, Note_on_c, 0, 57, 45
3, 368370, Note_on_c, 0, 50, 0
3, 368932, Note_on_c, 0, 57, 0
3, 368995, Note_on_c, 0, 59, 0
3, 369007, Note_on_c, 0, 62, 0
3, 369021, Note_on_c, 0, 69, 0
3, 369164, Note_on_c, 0, 66, 0
3, 369239, Note_on_c, 0, 49, 35
3, 369290, Note_on_c, 0, 69, 66
3, 369310, Note_on_c, 0, 62, 61
3, 369312, Note_on_c, 0, 59, 43
3, 369315, Note_on_c, 0, 57, 48
3, 369327, Note_on_c, 0, 66, 31
3, 369395, Note_on_c, 0, 50, 45
3, 369434, Note_on_c, 0, 49, 0
3, 369500, Note_on_c, 0, 66, 0
3, 369516, Note_on_c, 0, 57, 0
3, 369557, Note_on_c, 0, 59, 0
3, 369568, Note_on_c, 0, 69, 0
3, 369593, Note_on_c, 0, 62, 0
3, 369708, Note_on_c, 0, 67, 44
3, 369731, Note_on_c, 0, 59, 9
3, 370123, Note_on_c, 0, 59, 0
3, 370273, Note_on_c, 0, 50, 0
3, 370377, Note_on_c, 0, 49, 31
3, 370429, Note_on_c, 0, 67, 0
3, 370486, Note_on_c, 0, 43, 0
3, 370582, Note_on_c, 0, 49, 0
3, 370614, Note_on_c, 0, 69, 53
3, 370626, Note_on_c, 0, 59, 31
3, 370627, Note_on_c, 0, 57, 38
3, 370629, Note_on_c, 0, 66, 32
3, 370630, Note_on_c, 0, 62, 54
3, 370668, Note_on_c, 0, 52, 24
3, 371399, Note_on_c, 0, 57, 0
3, 371535, Note_on_c, 0, 52, 0
3, 371571, Note_on_c, 0, 51, 44
3, 371851, Note_on_c, 0, 59, 0
3, 371958, Note_on_c, 0, 62, 0
3, 372049, Note_on_c, 0, 66, 0
3, 372054, Note_on_c, 0, 69, 0
3, 372209, Note_on_c, 0, 49, 25
3, 372219, Note_on_c, 0, 67, 60
3, 372227, Note_on_c, 0, 57, 44
3, 372228, Note_on_c, 0, 59, 37
3, 372230, Note_on_c, 0, 62, 43
3, 372242, Note_on_c, 0, 66, 25
3, 372285, Note_on_c, 0, 51, 0
3, 372344, Note_on_c, 0, 57, 0
3, 372358, Note_on_c, 0, 59, 0
3, 372364, Note_on_c, 0, 49, 0
3, 372373, Note_on_c, 0, 50, 35
3, 372443, Note_on_c, 0, 62, 0
3, 372544, Note_on_c, 0, 67, 0
3, 372570, Note_on_c, 0, 66, 0
3, 372802, Note_on_c, 0, 62, 70
3, 372803, Note_on_c, 0, 71, 71
3, 372805, Note_on_c, 0, 66, 51
3, 373171, Note_on_c, 0, 66, 0
3, 373179, Note_on_c, 0, 62, 0
3, 373212, Note_on_c, 0, 71, 0
3, 373239, Note_on_c, 0, 50, 0
3, 373456, Note_on_c, 0, 50, 48
3, 374096, Note_on_c, 0, 69, 66
3, 374100, Note_on_c, 0, 62, 67
3, 374107, Note_on_c, 0, 57, 53
3, 374111, Note_on_c, 0, 59, 44
3, 374115, Note_on_c, 0, 66, 44
3, 374240, Note_on_c, 0, 50, 0
3, 374246, Note_on_c, 0, 43, 22
3, 375084, Note_on_c, 0, 57, 0
3, 375093, Note_on_c, 0, 59, 0
3, 375125, Note_on_c, 0, 50, 30
3, 375154, Note_on_c, 0, 62, 0
3, 375213, Note_on_c, 0, 69, 0
3, 375266, Note_on_c, 0, 66, 0
3, 375280, Note_on_c, 0, 50, 0
3, 375354, Note_on_c, 0, 52, 26
3, 375372, Note_on_c, 0, 43, 0
3, 375380, Note_on_c, 0, 67, 54
3, 375384, Note_on_c, 0, 57, 32
3, 375389, Note_on_c, 0, 59, 29
3, 375401, Note_on_c, 0, 62, 34
3, 375936, Note_on_c, 0, 57, 0
3, 375948, Note_on_c, 0, 59, 0
3, 375948, Note_on_c, 0, 62, 0
3, 376073, Note_on_c, 0, 52, 0
3, 376076, Note_on_c, 0, 53, 41
3, 376113, Note_on_c, 0, 67, 0
3, 376197, Note_on_c, 0, 53, 0
3, 376309, Note_on_c, 0, 68, 60
3, 376328, Note_on_c, 0, 46, 39
3, 376328, Note_on_c, 0, 65, 56
3, 376657, Note_on_c, 0, 65, 0
3, 376716, Note_on_c, 0, 68, 0
3, 377032, Note_on_c, 0, 72, 68
3, 377035, Note_on_c, 0, 61, 76
3, 377044, Note_on_c, 0, 65, 66
3, 377048, Note_on_c, 0, 69, 60
3, 377142, Note_on_c, 0, 57, 33
3, 377997, Note_on_c, 0, 57, 0
3, 378019, Note_on_c, 0, 61, 0
3, 378063, Note_on_c, 0, 53, 24
3, 378100, Note_on_c, 0, 65, 0
3, 378101, Note_on_c, 0, 69, 0
3, 378112, Note_on_c, 0, 72, 0
3, 378141, Note_on_c, 0, 53, 0
3, 378190, Note_on_c, 0, 57, 38
3, 378249, Note_on_c, 0, 65, 55
3, 378255, Note_on_c, 0, 61, 62
3, 378257, Note_on_c, 0, 72, 49
3, 378274, Note_on_c, 0, 69, 53
3, 378722, Note_on_c, 0, 57, 0
3, 378864, Note_on_c, 0, 61, 0
3, 378925, Note_on_c, 0, 65, 0
3, 378927, Note_on_c, 0, 72, 0
3, 378930, Note_on_c, 0, 53, 18
3, 378987, Note_on_c, 0, 69, 0
3, 379052, Note_on_c, 0, 53, 0
3, 379131, Note_on_c, 0, 55, 44
3, 379172, Note_on_c, 0, 70, 57
3, 379192, Note_on_c, 0, 61, 40
3, 379206, Note_on_c, 0, 65, 43
3, 379820, Note_on_c, 0, 65, 0
3, 379871, Note_on_c, 0, 61, 0
3, 379955, Note_on_c, 0, 55, 0
3, 380024, Note_on_c, 0, 46, 0
3, 380061, Note_on_c, 0, 70, 0
3, 380135, Note_on_c, 0, 61, 64
3, 380149, Note_on_c, 0, 65, 58
3, 380166, Note_on_c, 0, 69, 49
3, 380173, Note_on_c, 0, 72, 52
3, 380436, Note_on_c, 0, 51, 1
3, 380949, Note_on_c, 0, 61, 0
3, 380958, Note_on_c, 0, 72, 0
3, 381006, Note_on_c, 0, 69, 0
3, 381016, Note_on_c, 0, 65, 0
3, 381095, Note_on_c, 0, 51, 0
3, 381142, Note_on_c, 0, 61, 38
3, 381144, Note_on_c, 0, 70, 54
3, 381156, Note_on_c, 0, 39, 42
3, 381168, Note_on_c, 0, 65, 38
3, 381615, Note_on_c, 0, 65, 0
3, 381729, Note_on_c, 0, 61, 0
3, 382027, Note_on_c, 0, 70, 0
3, 382079, Note_on_c, 0, 61, 34
3, 382086, Note_on_c, 0, 65, 49
3, 382113, Note_on_c, 0, 45, 44
3, 382117, Note_on_c, 0, 39, 0
3, 382722, Note_on_c, 0, 45, 0
3, 382775, Note_on_c, 0, 42, 31
3, 383015, Note_on_c, 0, 42, 0
3, 383029, Note_on_c, 0, 44, 40
3, 383088, Note_on_c, 0, 65, 0
3, 383113, Note_on_c, 0, 61, 0
3, 383642, Note_on_c, 0, 42, 21
3, 383717, Note_on_c, 0, 66, 58
3, 383733, Note_on_c, 0, 62, 64
3, 383752, Note_on_c, 0, 57, 34
3, 383781, Note_on_c, 0, 42, 0
3, 383796, Note_on_c, 0, 44, 0
3, 383820, Note_on_c, 0, 43, 40
3, 384398, Note_on_c, 0, 62, 0
3, 384525, Note_on_c, 0, 66, 0
3, 384676, Note_on_c, 0, 37, 35
3, 384681, Note_on_c, 0, 57, 0
3, 384861, Note_on_c, 0, 43, 0
3, 385007, Note_on_c, 0, 58, 52
3, 385031, Note_on_c, 0, 37, 0
3, 385218, Note_on_c, 0, 58, 0
3, 385281, Note_on_c, 0, 60, 56
3, 385543, Note_on_c, 0, 60, 0
3, 385585, Note_on_c, 0, 58, 69
3, 385712, Note_on_c, 0, 38, 25
3, 385773, Note_on_c, 0, 58, 0
3, 385888, Note_on_c, 0, 59, 32
3, 386325, Note_on_c, 0, 59, 0
3, 386541, Note_on_c, 0, 38, 0
3, 386552, Note_on_c, 0, 31, 58
3, 387056, Note_on_c, 0, 61, 67
3, 387180, Note_on_c, 0, 61, 0
3, 387364, Note_on_c, 0, 64, 80
3, 387659, Note_on_c, 0, 64, 0
3, 387663, Note_on_c, 0, 61, 43
3, 387707, Note_on_c, 0, 31, 0
3, 387717, Note_on_c, 0, 38, 36
3, 387828, Note_on_c, 0, 61, 0
3, 387946, Note_on_c, 0, 62, 48
3, 388167, Note_on_c, 0, 62, 0
3, 388428, Note_on_c, 0, 38, 0
3, 388546, Note_on_c, 0, 38, 11
3, 388547, Note_on_c, 0, 37, 33
3, 388763, Note_on_c, 0, 37, 0
3, 388765, Note_on_c, 0, 38, 0
3, 388836, Note_on_c, 0, 45, 62
3, 389500, Note_on_c, 0, 39, 39
3, 389534, Note_on_c, 0, 45, 0
3, 389732, Note_on_c, 0, 39, 0
3, 389791, Note_on_c, 0, 43, 41
3, 389804, Note_on_c, 0, 62, 80
3, 390420, Note_on_c, 0, 63, 73
3, 390484, Note_on_c, 0, 62, 0
3, 390614, Note_on_c, 0, 43, 0
3, 390699, Note_on_c, 0, 63, 0
3, 390768, Note_on_c, 0, 64, 50
3, 390783, Note_on_c, 0, 46, 25
3, 391274, Note_on_c, 0, 44, 30
3, 391302, Note_on_c, 0, 64, 0
3, 391370, Note_on_c, 0, 65, 76
3, 391468, Note_on_c, 0, 46, 0
3, 391526, Note_on_c, 0, 44, 0
3, 391542, Note_on_c, 0, 47, 36
3, 391605, Note_on_c, 0, 65, 0
3, 391757, Note_on_c, 0, 66, 60
3, 391843, Note_on_c, 0, 67, 29
3, 392182, Note_on_c, 0, 67, 0
3, 392285, Note_on_c, 0, 66, 0
3, 392315, Note_on_c, 0, 57, 49
3, 392451, Note_on_c, 0, 57, 0
3, 392485, Note_on_c, 0, 47, 0
3, 392605, Note_on_c, 0, 41, 29
3, 393575, Note_on_c, 0, 41, 0
3, 393663, Note_on_c, 0, 38, 34
3, 394599, Note_on_c, 0, 38, 0
3, 394623, Note_on_c, 0, 39, 58
3, 395294, Note_on_c, 0, 37, 26
3, 395505, Note_on_c, 0, 39, 0
3, 395517, Note_on_c, 0, 37, 0
3, 395572, Note_on_c, 0, 62, 105
3, 395575, Note_on_c, 0, 40, 41
3, 395870, Note_on_c, 0, 62, 0
3, 395882, Note_on_c, 0, 61, 46
3, 396036, Note_on_c, 0, 60, 34
3, 396139, Note_on_c, 0, 61, 0
3, 396253, Note_on_c, 0, 59, 47
3, 396255, Note_on_c, 0, 60, 0
3, 396447, Note_on_c, 0, 59, 0
3, 396508, Note_on_c, 0, 28, 37
3, 396531, Note_on_c, 0, 40, 0
3, 396551, Note_on_c, 0, 65, 81
3, 396848, Note_on_c, 0, 64, 52
3, 396875, Note_on_c, 0, 65, 0
3, 396990, Note_on_c, 0, 63, 43
3, 396993, Note_on_c, 0, 64, 0
3, 397150, Note_on_c, 0, 62, 54
3, 397189, Note_on_c, 0, 63, 0
3, 397285, Note_on_c, 0, 62, 0
3, 397331, Note_on_c, 0, 68, 77
3, 397385, Note_on_c, 0, 38, 43
3, 397505, Note_on_c, 0, 28, 0
3, 397565, Note_on_c, 0, 68, 0
3, 397589, Note_on_c, 0, 67, 44
3, 397684, Note_on_c, 0, 67, 0
3, 397712, Note_on_c, 0, 66, 26
3, 397874, Note_on_c, 0, 65, 54
3, 397878, Note_on_c, 0, 66, 0
3, 397985, Note_on_c, 0, 65, 0
3, 398045, Note_on_c, 0, 74, 79
3, 398312, Note_on_c, 0, 73, 38
3, 398313, Note_on_c, 0, 38, 0
3, 398332, Note_on_c, 0, 32, 37
3, 398343, Note_on_c, 0, 74, 0
3, 398441, Note_on_c, 0, 72, 46
3, 398517, Note_on_c, 0, 73, 0
3, 398606, Note_on_c, 0, 71, 57
3, 398637, Note_on_c, 0, 72, 0
3, 398740, Note_on_c, 0, 71, 0
3, 398795, Note_on_c, 0, 77, 74
3, 399064, Note_on_c, 0, 77, 0
3, 399094, Note_on_c, 0, 74, 44
3, 399233, Note_on_c, 0, 32, 0
3, 399252, Note_on_c, 0, 74, 0
3, 399305, Note_on_c, 0, 75, 71
3, 399382, Note_on_c, 0, 33, 50
3, 399470, Note_on_c, 0, 75, 0
3, 399516, Note_on_c, 0, 76, 73
3, 399804, Note_on_c, 0, 76, 0
3, 399929, Note_on_c, 0, 71, 68
3, 400076, Note_on_c, 0, 71, 0
3, 400258, Note_on_c, 0, 74, 76
3, 400292, Note_on_c, 0, 33, 0
3, 400342, Note_on_c, 0, 45, 38
3, 400427, Note_on_c, 0, 74, 0
3, 400587, Note_on_c, 0, 72, 64
3, 400707, Note_on_c, 0, 72, 0
3, 400868, Note_on_c, 0, 69, 75
3, 400980, Note_on_c, 0, 69, 0
3, 401116, Note_on_c, 0, 64, 49
3, 401247, Note_on_c, 0, 64, 0
3, 401326, Note_on_c, 0, 40, 24
3, 401332, Note_on_c, 0, 45, 0
3, 401347, Note_on_c, 0, 62, 48
3, 401622, Note_on_c, 0, 62, 0
3, 401941, Note_on_c, 0, 59, 58
3, 402064, Note_on_c, 0, 59, 0
3, 402271, Note_on_c, 0, 40, 0
3, 402277, Note_on_c, 0, 45, 25
3, 402278, Note_on_c, 0, 60, 43
3, 402858, Note_on_c, 0, 62, 61
3, 402866, Note_on_c, 0, 45, 0
3, 402892, Note_on_c, 0, 40, 42
3, 402951, Note_on_c, 0, 60, 0
3, 403192, Note_on_c, 0, 40, 0
3, 403204, Note_on_c, 0, 56, 49
3, 403220, Note_on_c, 0, 64, 42
3, 403878, Note_on_c, 0, 52, 31
3, 403955, Note_on_c, 0, 56, 0
3, 403970, Note_on_c, 0, 52, 0
3, 404003, Note_on_c, 0, 64, 0
3, 404016, Note_on_c, 0, 62, 0
3, 404219, Note_on_c, 0, 40, 60
3, 404815, Note_on_c, 0, 56, 73
3, 404818, Note_on_c, 0, 67, 68
3, 404832, Note_on_c, 0, 60, 55
3, 404835, Note_on_c, 0, 62, 55
3, 404880, Note_on_c, 0, 60, 0
3, 404884, Note_on_c, 0, 56, 0
3, 404907, Note_on_c, 0, 62, 0
3, 404960, Note_on_c, 0, 67, 0
3, 405003, Note_on_c, 0, 52, 20
3, 405318, Note_on_c, 0, 40, 0
3, 405391, Note_on_c, 0, 56, 65
3, 405393, Note_on_c, 0, 67, 64
3, 405411, Note_on_c, 0, 60, 51
3, 405425, Note_on_c, 0, 62, 48
3, 405581, Note_on_c, 0, 56, 0
3, 405594, Note_on_c, 0, 60, 0
3, 405617, Note_on_c, 0, 67, 0
3, 405635, Note_on_c, 0, 62, 0
3, 406034, Note_on_c, 0, 52, 0
3, 406079, Note_on_c, 0, 56, 67
3, 406080, Note_on_c, 0, 67, 55
3, 406087, Note_on_c, 0, 47, 35
3, 406093, Note_on_c, 0, 60, 50
3, 406149, Note_on_c, 0, 62, 25
3, 406305, Note_on_c, 0, 60, 0
3, 406317, Note_on_c, 0, 62, 0
3, 406335, Note_on_c, 0, 56, 0
3, 406347, Note_on_c, 0, 67, 0
3, 406645, Note_on_c, 0, 47, 0
3, 406671, Note_on_c, 0, 44, 45
3, 406695, Note_on_c, 0, 65, 62
3, 406697, Note_on_c, 0, 56, 64
3, 406723, Note_on_c, 0, 60, 47
3, 406890, Note_on_c, 0, 60, 0
3, 406895, Note_on_c, 0, 65, 0
3, 406959, Note_on_c, 0, 44, 0
3, 406962, Note_on_c, 0, 56, 0
3, 407046, Note_on_c, 0, 45, 39
3, 407095, Note_on_c, 0, 64, 44
3, 407107, Note_on_c, 0, 60, 22
3, 407129, Note_on_c, 0, 55, 30
3, 407210, Note_on_c, 0, 55, 0
3, 407280, Note_on_c, 0, 60, 0
3, 407353, Note_on_c, 0, 64, 0
3, 407768, Note_on_c, 0, 52, 29
3, 407829, Note_on_c, 0, 45, 0
3, 407959, Note_on_c, 0, 52, 0
3, 408031, Note_on_c, 0, 71, 91
3, 408038, Note_on_c, 0, 57, 60
3, 408680, Note_on_c, 0, 64, 61
3, 408747, Note_on_c, 0, 71, 0
3, 408793, Note_on_c, 0, 57, 0
3, 408857, Note_on_c, 0, 52, 27
3, 408869, Note_on_c, 0, 64, 0
3, 409026, Note_on_c, 0, 60, 24
3, 409436, Note_on_c, 0, 60, 0
3, 409592, Note_on_c, 0, 59, 43
3, 409797, Note_on_c, 0, 59, 0
3, 409816, Note_on_c, 0, 52, 0
3, 409856, Note_on_c, 0, 55, 24
3, 410508, Note_on_c, 0, 55, 0
3, 410516, Note_on_c, 0, 52, 38
3, 410748, Note_on_c, 0, 52, 0
3, 410841, Note_on_c, 0, 59, 35
3, 410853, Note_on_c, 0, 45, 33
3, 411107, Note_on_c, 0, 59, 0
3, 411483, Note_on_c, 0, 45, 0
3, 411545, Note_on_c, 0, 52, 35
3, 411829, Note_on_c, 0, 59, 54
3, 412217, Note_on_c, 0, 52, 0
3, 412522, Note_on_c, 0, 52, 42
3, 412532, Note_on_c, 0, 59, 0
3, 412853, Note_on_c, 0, 57, 34
3, 412891, Note_on_c, 0, 60, 44
3, 412958, Note_on_c, 0, 52, 0
3, 413019, Note_on_c, 0, 60, 0
3, 413168, Note_on_c, 0, 64, 50
3, 413292, Note_on_c, 0, 64, 0
3, 413452, Note_on_c, 0, 67, 68
3, 413658, Note_on_c, 0, 67, 0
3, 413733, Note_on_c, 0, 52, 33
3, 413777, Note_on_c, 0, 71, 71
3, 413955, Note_on_c, 0, 71, 0
3, 414064, Note_on_c, 0, 57, 0
3, 414087, Note_on_c, 0, 72, 72
3, 414272, Note_on_c, 0, 72, 0
3, 414370, Note_on_c, 0, 70, 83
3, 414597, Note_on_c, 0, 52, 0
3, 414662, Note_on_c, 0, 65, 45
3, 414672, Note_on_c, 0, 70, 0
3, 414685, Note_on_c, 0, 51, 33
3, 414747, Note_on_c, 0, 70, 15
3, 415024, Note_on_c, 0, 61, 50
3, 415097, Note_on_c, 0, 65, 0
3, 415240, Note_on_c, 0, 61, 0
3, 415289, Note_on_c, 0, 70, 0
3, 415337, Note_on_c, 0, 65, 46
3, 415474, Note_on_c, 0, 65, 0
3, 415702, Note_on_c, 0, 60, 39
3, 416343, Note_on_c, 0, 60, 0
3, 416394, Note_on_c, 0, 58, 44
3, 416579, Note_on_c, 0, 58, 0
3, 416706, Note_on_c, 0, 57, 48
3, 417348, Note_on_c, 0, 61, 42
3, 417393, Note_on_c, 0, 57, 0
3, 417400, Note_on_c, 0, 61, 0
3, 417593, Note_on_c, 0, 58, 23
3, 417609, Note_on_c, 0, 65, 76
3, 417612, Note_on_c, 0, 51, 0
3, 417633, Note_on_c, 0, 61, 67
3, 417791, Note_on_c, 0, 58, 0
3, 417945, Note_on_c, 0, 61, 0
3, 417973, Note_on_c, 0, 69, 52
3, 418074, Note_on_c, 0, 65, 0
3, 418132, Note_on_c, 0, 69, 0
3, 418221, Note_on_c, 0, 70, 79
3, 418242, Note_on_c, 0, 61, 64
3, 418286, Note_on_c, 0, 47, 44
3, 418423, Note_on_c, 0, 47, 0
3, 418436, Note_on_c, 0, 61, 0
3, 418529, Note_on_c, 0, 61, 67
3, 418548, Note_on_c, 0, 39, 56
3, 418554, Note_on_c, 0, 70, 0
3, 418556, Note_on_c, 0, 72, 68
3, 418571, Note_on_c, 0, 65, 49
3, 418764, Note_on_c, 0, 65, 0
3, 418771, Note_on_c, 0, 61, 0
3, 418773, Note_on_c, 0, 72, 0
3, 418867, Note_on_c, 0, 70, 34
3, 418884, Note_on_c, 0, 46, 46
3, 418897, Note_on_c, 0, 39, 0
3, 419028, Note_on_c, 0, 70, 0
3, 419169, Note_on_c, 0, 61, 75
3, 419181, Note_on_c, 0, 65, 67
3, 419182, Note_on_c, 0, 72, 70
3, 419187, Note_on_c, 0, 55, 50
3, 419235, Note_on_c, 0, 69, 36
3, 419275, Note_on_c, 0, 46, 0
3, 419403, Note_on_c, 0, 69, 0
3, 419416, Note_on_c, 0, 55, 0
3, 419425, Note_on_c, 0, 72, 0
3, 419532, Note_on_c, 0, 70, 64
3, 419572, Note_on_c, 0, 53, 62
3, 420264, Note_on_c, 0, 65, 0
3, 420291, Note_on_c, 0, 61, 0
3, 420484, Note_on_c, 0, 61, 43
3, 420486, Note_on_c, 0, 53, 0
3, 420494, Note_on_c, 0, 70, 0
3, 420514, Note_on_c, 0, 52, 41
3, 420547, Note_on_c, 0, 69, 36
3, 420566, Note_on_c, 0, 65, 35
3, 421017, Note_on_c, 0, 61, 0
3, 421043, Note_on_c, 0, 65, 0
3, 421104, Note_on_c, 0, 69, 0
3, 421133, Note_on_c, 0, 52, 0
3, 421166, Note_on_c, 0, 61, 50
3, 421172, Note_on_c, 0, 70, 64
3, 421176, Note_on_c, 0, 53, 53
3, 421191, Note_on_c, 0, 65, 54
3, 421316, Note_on_c, 0, 53, 0
3, 422099, Note_on_c, 0, 65, 0
3, 422209, Note_on_c, 0, 70, 0
3, 422215, Note_on_c, 0, 45, 36
3, 422222, Note_on_c, 0, 61, 0
3, 422399, Note_on_c, 0, 45, 0
3, 422465, Note_on_c, 0, 69, 60
3, 422481, Note_on_c, 0, 60, 31
3, 422483, Note_on_c, 0, 64, 48
3, 422508, Note_on_c, 0, 50, 24
3, 423125, Note_on_c, 0, 38, 50
3, 423132, Note_on_c, 0, 60, 0
3, 423397, Note_on_c, 0, 64, 0
3, 423398, Note_on_c, 0, 69, 0
3, 423473, Note_on_c, 0, 60, 31
3, 423546, Note_on_c, 0, 50, 0
3, 423585, Note_on_c, 0, 60, 0
3, 423738, Note_on_c, 0, 60, 38
3, 423899, Note_on_c, 0, 60, 0
3, 424060, Note_on_c, 0, 50, 62
3, 424429, Note_on_c, 0, 55, 44
3, 424639, Note_on_c, 0, 55, 0
3, 424728, Note_on_c, 0, 55, 54
3, 424935, Note_on_c, 0, 38, 0
3, 424958, Note_on_c, 0, 55, 0
3, 425044, Note_on_c, 0, 57, 73
3, 425073, Note_on_c, 0, 38, 40
3, 425223, Note_on_c, 0, 57, 0
3, 425339, Note_on_c, 0, 57, 54
3, 425501, Note_on_c, 0, 50, 0
3, 425549, Note_on_c, 0, 57, 0
3, 425652, Note_on_c, 0, 59, 77
3, 425853, Note_on_c, 0, 59, 0
3, 425926, Note_on_c, 0, 59, 63
3, 426159, Note_on_c, 0, 59, 0
3, 426217, Note_on_c, 0, 50, 27
3, 426243, Note_on_c, 0, 60, 72
3, 426422, Note_on_c, 0, 60, 0
3, 426533, Note_on_c, 0, 60, 74
3, 426662, Note_on_c, 0, 38, 0
3, 426719, Note_on_c, 0, 60, 0
3, 426823, Note_on_c, 0, 62, 73
3, 426925, Note_on_c, 0, 38, 46
3, 426991, Note_on_c, 0, 50, 0
3, 427008, Note_on_c, 0, 62, 0
3, 427115, Note_on_c, 0, 62, 68
3, 427242, Note_on_c, 0, 62, 0
3, 427457, Note_on_c, 0, 63, 69
3, 427475, Note_on_c, 0, 51, 62
3, 427485, Note_on_c, 0, 50, 46
3, 427500, Note_on_c, 0, 56, 34
3, 427517, Note_on_c, 0, 61, 23
3, 427601, Note_on_c, 0, 61, 0
3, 427611, Note_on_c, 0, 63, 0
3, 427613, Note_on_c, 0, 56, 0
3, 427627, Note_on_c, 0, 51, 0
3, 427703, Note_on_c, 0, 50, 0
3, 427763, Note_on_c, 0, 63, 56
3, 427796, Note_on_c, 0, 56, 47
3, 427800, Note_on_c, 0, 51, 35
3, 427864, Note_on_c, 0, 51, 0
3, 427942, Note_on_c, 0, 56, 0
3, 427968, Note_on_c, 0, 63, 0
3, 428109, Note_on_c, 0, 58, 40
3, 428125, Note_on_c, 0, 50, 45
3, 428138, Note_on_c, 0, 53, 42
3, 428152, Note_on_c, 0, 65, 36
3, 428159, Note_on_c, 0, 58, 0
3, 428162, Note_on_c, 0, 64, 28
3, 428225, Note_on_c, 0, 64, 0
3, 428247, Note_on_c, 0, 65, 0
3, 428278, Note_on_c, 0, 53, 0
3, 428390, Note_on_c, 0, 65, 54
3, 428433, Note_on_c, 0, 60, 36
3, 428557, Note_on_c, 0, 65, 0
3, 428576, Note_on_c, 0, 60, 0
3, 428672, Note_on_c, 0, 38, 0
3, 428686, Note_on_c, 0, 50, 0
3, 428722, Note_on_c, 0, 60, 54
3, 428728, Note_on_c, 0, 55, 66
3, 428736, Note_on_c, 0, 67, 68
3, 428738, Note_on_c, 0, 63, 54
3, 428890, Note_on_c, 0, 55, 0
3, 428916, Note_on_c, 0, 60, 0
3, 428919, Note_on_c, 0, 67, 0
3, 428977, Note_on_c, 0, 63, 0
3, 429027, Note_on_c, 0, 67, 68
3, 429039, Note_on_c, 0, 55, 46
3, 429042, Note_on_c, 0, 60, 61
3, 429043, Note_on_c, 0, 63, 37
3, 429076, Note_on_c, 0, 50, 39
3, 429091, Note_on_c, 0, 38, 31
3, 429117, Note_on_c, 0, 55, 0
3, 429144, Note_on_c, 0, 67, 0
3, 429192, Note_on_c, 0, 60, 0
3, 429229, Note_on_c, 0, 63, 0
3, 429350, Note_on_c, 0, 38, 0
3, 429360, Note_on_c, 0, 68, 69
3, 429362, Note_on_c, 0, 56, 77
3, 429541, Note_on_c, 0, 56, 0
3, 429567, Note_on_c, 0, 68, 0
3, 429570, Note_on_c, 0, 50, 0
3, 429677, Note_on_c, 0, 57, 66
3, 429684, Note_on_c, 0, 69, 67
3, 429805, Note_on_c, 0, 57, 0
3, 429823, Note_on_c, 0, 69, 0
3, 429979, Note_on_c, 0, 58, 74
3, 429997, Note_on_c, 0, 70, 46
3, 430088, Note_on_c, 0, 43, 32
3, 430090, Note_on_c, 0, 50, 33
3, 430092, Note_on_c, 0, 59, 28
3, 430096, Note_on_c, 0, 54, 35
3, 430143, Note_on_c, 0, 59, 0
3, 430202, Note_on_c, 0, 58, 0
3, 430248, Note_on_c, 0, 70, 0
3, 430284, Note_on_c, 0, 54, 0
3, 430366, Note_on_c, 0, 59, 63
3, 430391, Note_on_c, 0, 71, 56
3, 430421, Note_on_c, 0, 67, 35
3, 430424, Note_on_c, 0, 64, 33
3, 430586, Note_on_c, 0, 50, 0
3, 430678, Note_on_c, 0, 67, 0
3, 430723, Note_on_c, 0, 64, 0
3, 430824, Note_on_c, 0, 64, 35
3, 430827, Note_on_c, 0, 59, 0
3, 430994, Note_on_c, 0, 59, 60
3, 431009, Note_on_c, 0, 64, 0
3, 431059, Note_on_c, 0, 43, 0
3, 431079, Note_on_c, 0, 71, 0
3, 431117, Note_on_c, 0, 59, 0
3, 431179, Note_on_c, 0, 50, 29
3, 431191, Note_on_c, 0, 71, 45
3, 431211, Note_on_c, 0, 64, 32
3, 431218, Note_on_c, 0, 66, 39
3, 431238, Note_on_c, 0, 50, 0
3, 431243, Note_on_c, 0, 52, 50
3, 431244, Note_on_c, 0, 59, 35
3, 431775, Note_on_c, 0, 64, 0
3, 431783, Note_on_c, 0, 71, 0
3, 431933, Note_on_c, 0, 51, 43
3, 431943, Note_on_c, 0, 52, 0
3, 431973, Note_on_c, 0, 59, 0
3, 432122, Note_on_c, 0, 51, 0
3, 432137, Note_on_c, 0, 59, 48
3, 432159, Note_on_c, 0, 69, 34
3, 432169, Note_on_c, 0, 62, 49
3, 432177, Note_on_c, 0, 57, 53
3, 432779, Note_on_c, 0, 59, 0
3, 432793, Note_on_c, 0, 62, 0
3, 432837, Note_on_c, 0, 57, 0
3, 432889, Note_on_c, 0, 54, 23
3, 432898, Note_on_c, 0, 66, 0
3, 432921, Note_on_c, 0, 69, 0
3, 432988, Note_on_c, 0, 54, 0
3, 433000, Note_on_c, 0, 59, 47
3, 433010, Note_on_c, 0, 62, 50
3, 433034, Note_on_c, 0, 55, 48
3, 433047, Note_on_c, 0, 67, 42
3, 433647, Note_on_c, 0, 62, 0
3, 433654, Note_on_c, 0, 59, 0
3, 433668, Note_on_c, 0, 55, 0
3, 433909, Note_on_c, 0, 67, 0
3, 433941, Note_on_c, 0, 66, 23
3, 433949, Note_on_c, 0, 59, 40
3, 433956, Note_on_c, 0, 62, 49
3, 433961, Note_on_c, 0, 54, 44
3, 434029, Note_on_c, 0, 59, 0
3, 434086, Note_on_c, 0, 62, 0
3, 434180, Note_on_c, 0, 66, 0
3, 434946, Note_on_c, 0, 70, 62
3, 434959, Note_on_c, 0, 50, 35
3, 435016, Note_on_c, 0, 54, 0
3, 435110, Note_on_c, 0, 70, 0
3, 435205, Note_on_c, 0, 71, 52
3, 435321, Note_on_c, 0, 71, 0
3, 435531, Note_on_c, 0, 74, 80
3, 435697, Note_on_c, 0, 74, 0
3, 435867, Note_on_c, 0, 43, 42
3, 435873, Note_on_c, 0, 81, 99
3, 436420, Note_on_c, 0, 81, 0
3, 436502, Note_on_c, 0, 79, 76
3, 436723, Note_on_c, 0, 79, 0
3, 436806, Note_on_c, 0, 55, 24
3, 436928, Note_on_c, 0, 78, 51
3, 437257, Note_on_c, 0, 43, 0
3, 437348, Note_on_c, 0, 78, 0
3, 437415, Note_on_c, 0, 55, 0
3, 437473, Note_on_c, 0, 77, 68
3, 437665, Note_on_c, 0, 50, 0
3, 437868, Note_on_c, 0, 73, 53
3, 437893, Note_on_c, 0, 77, 0
3, 437984, Note_on_c, 0, 51, 27
3, 438448, Note_on_c, 0, 84, 72
3, 438533, Note_on_c, 0, 77, 24
3, 438718, Note_on_c, 0, 84, 0
3, 438744, Note_on_c, 0, 77, 0
3, 438813, Note_on_c, 0, 82, 50
3, 439033, Note_on_c, 0, 60, 8
3, 439338, Note_on_c, 0, 73, 0
3, 439624, Note_on_c, 0, 60, 0
3, 439709, Note_on_c, 0, 73, 34
3, 439727, Note_on_c, 0, 82, 0
3, 439745, Note_on_c, 0, 77, 49
3, 439797, Note_on_c, 0, 58, 32
3, 440453, Note_on_c, 0, 51, 0
3, 440671, Note_on_c, 0, 58, 0
3, 440690, Note_on_c, 0, 57, 39
3, 441390, Note_on_c, 0, 57, 0
3, 441396, Note_on_c, 0, 56, 36
3, 441623, Note_on_c, 0, 56, 0
3, 441689, Note_on_c, 0, 55, 53
3, 442270, Note_on_c, 0, 55, 0
3, 442298, Note_on_c, 0, 51, 35
3, 442358, Note_on_c, 0, 51, 0
3, 442564, Note_on_c, 0, 46, 61
3, 442965, Note_on_c, 0, 82, 1
3, 443465, Note_on_c, 0, 46, 0
3, 443496, Note_on_c, 0, 39, 50
3, 443773, Note_on_c, 0, 77, 0
3, 444404, Note_on_c, 0, 39, 0
3, 444438, Note_on_c, 0, 32, 71
3, 444531, Note_on_c, 0, 73, 0
3, 445103, Note_on_c, 0, 39, 40
3, 445115, Note_on_c, 0, 82, 0
3, 445374, Note_on_c, 0, 32, 0
3, 445393, Note_on_c, 0, 39, 0
3, 445423, Note_on_c, 0, 31, 59
3, 445444, Note_on_c, 0, 83, 57
3, 445464, Note_on_c, 0, 74, 36
3, 445710, Note_on_c, 0, 83, 0
3, 445886, Note_on_c, 0, 74, 0
3, 446118, Note_on_c, 0, 78, 65
3, 446226, Note_on_c, 0, 38, 37
3, 446340, Note_on_c, 0, 78, 0
3, 446416, Note_on_c, 0, 31, 0
3, 446508, Note_on_c, 0, 74, 36
3, 446956, Note_on_c, 0, 74, 0
3, 447054, Note_on_c, 0, 71, 53
3, 447214, Note_on_c, 0, 71, 0
3, 447354, Note_on_c, 0, 38, 0
3, 447378, Note_on_c, 0, 43, 25
3, 447408, Note_on_c, 0, 66, 31
3, 448071, Note_on_c, 0, 62, 30
3, 448103, Note_on_c, 0, 43, 0
3, 448148, Note_on_c, 0, 62, 0
3, 448247, Note_on_c, 0, 66, 0
3, 448299, Note_on_c, 0, 46, 50
3, 449023, Note_on_c, 0, 44, 25
3, 449174, Note_on_c, 0, 46, 0
3, 449217, Note_on_c, 0, 44, 0
3, 449277, Note_on_c, 0, 47, 42
3, 449949, Note_on_c, 0, 57, 84
3, 450143, Note_on_c, 0, 47, 0
3, 450181, Note_on_c, 0, 43, 41
3, 450342, Note_on_c, 0, 57, 0
3, 450347, Note_on_c, 0, 58, 75
3, 450560, Note_on_c, 0, 43, 0
3, 450883, Note_on_c, 0, 38, 44
3, 450884, Note_on_c, 0, 58, 0
3, 450890, Note_on_c, 0, 59, 82
3, 451173, Note_on_c, 0, 59, 0
3, 451342, Note_on_c, 0, 62, 61
3, 451767, Note_on_c, 0, 62, 0
3, 451875, Note_on_c, 0, 64, 88
3, 451900, Note_on_c, 0, 31, 55
3, 451945, Note_on_c, 0, 38, 0
3, 452122, Note_on_c, 0, 64, 0
3, 452269, Note_on_c, 0, 62, 63
3, 452786, Note_on_c, 0, 31, 0
3, 452815, Note_on_c, 0, 38, 51
3, 452843, Note_on_c, 0, 62, 0
3, 453006, Note_on_c, 0, 38, 0
3, 453133, Note_on_c, 0, 47, 52
3, 453137, Note_on_c, 0, 57, 53
3, 453141, Note_on_c, 0, 62, 36
3, 453148, Note_on_c, 0, 66, 50
3, 453351, Note_on_c, 0, 57, 0
3, 453424, Note_on_c, 0, 66, 0
3, 453428, Note_on_c, 0, 62, 0
3, 454059, Note_on_c, 0, 47, 0
3, 454146, Note_on_c, 0, 41, 48
3, 455015, Note_on_c, 0, 41, 0
3, 455131, Note_on_c, 0, 38, 39
3, 456032, Note_on_c, 0, 38, 0
3, 456086, Note_on_c, 0, 39, 50
3, 456113, Note_on_c, 0, 58, 65
3, 456296, Note_on_c, 0, 58, 0
3, 456369, Note_on_c, 0, 59, 53
3, 456543, Note_on_c, 0, 59, 0
3, 456675, Note_on_c, 0, 62, 73
3, 456853, Note_on_c, 0, 62, 0
3, 457037, Note_on_c, 0, 39, 0
3, 457052, Note_on_c, 0, 76, 88
3, 457095, Note_on_c, 0, 40, 24
3, 457311, Note_on_c, 0, 76, 0
3, 457495, Note_on_c, 0, 74, 78
3, 457671, Note_on_c, 0, 74, 0
3, 457989, Note_on_c, 0, 40, 0
3, 458064, Note_on_c, 0, 68, 69
3, 458089, Note_on_c, 0, 28, 29
3, 458575, Note_on_c, 0, 68, 0
3, 458629, Note_on_c, 0, 62, 55
3, 458946, Note_on_c, 0, 40, 38
3, 459351, Note_on_c, 0, 62, 0
3, 459657, Note_on_c, 0, 62, 75
3, 459659, Note_on_c, 0, 56, 69
3, 459666, Note_on_c, 0, 67, 77
3, 459671, Note_on_c, 0, 40, 0
3, 459684, Note_on_c, 0, 66, 21
3, 459693, Note_on_c, 0, 28, 0
3, 459798, Note_on_c, 0, 35, 32
3, 459867, Note_on_c, 0, 66, 0
3, 460453, Note_on_c, 0, 35, 0
3, 460508, Note_on_c, 0, 67, 0
3, 460598, Note_on_c, 0, 34, 46
3, 460610, Note_on_c, 0, 62, 0
3, 460800, Note_on_c, 0, 56, 0
3, 460811, Note_on_c, 0, 34, 0
3, 460867, Note_on_c, 0, 33, 45
3, 460918, Note_on_c, 0, 64, 48
3, 460920, Note_on_c, 0, 55, 46
3, 461043, Note_on_c, 0, 55, 0
3, 461144, Note_on_c, 0, 64, 0
3, 461592, Note_on_c, 0, 40, 35
3, 461779, Note_on_c, 0, 40, 0
3, 461884, Note_on_c, 0, 64, 95
3, 461890, Note_on_c, 0, 45, 42
3, 462106, Note_on_c, 0, 33, 0
3, 462141, Note_on_c, 0, 64, 0
3, 462221, Note_on_c, 0, 65, 40
3, 462312, Note_on_c, 0, 65, 0
3, 462334, Note_on_c, 0, 64, 45
3, 462517, Note_on_c, 0, 64, 0
3, 462532, Note_on_c, 0, 63, 48
3, 462719, Note_on_c, 0, 63, 0
3, 462742, Note_on_c, 0, 40, 36
3, 462775, Note_on_c, 0, 64, 50
3, 462918, Note_on_c, 0, 64, 0
3, 462956, Note_on_c, 0, 40, 0
3, 463007, Note_on_c, 0, 74, 82
3, 463248, Note_on_c, 0, 74, 0
3, 463358, Note_on_c, 0, 72, 66
3, 463527, Note_on_c, 0, 72, 0
3, 463773, Note_on_c, 0, 33, 36
3, 463804, Note_on_c, 0, 64, 54
3, 463812, Note_on_c, 0, 67, 60
3, 463912, Note_on_c, 0, 64, 0
3, 463917, Note_on_c, 0, 67, 0
3, 464222, Note_on_c, 0, 45, 0
3, 464449, Note_on_c, 0, 40, 49
3, 464629, Note_on_c, 0, 33, 0
3, 464667, Note_on_c, 0, 40, 0
3, 464742, Note_on_c, 0, 67, 57
3, 464748, Note_on_c, 0, 62, 64
3, 464753, Note_on_c, 0, 56, 57
3, 465380, Note_on_c, 0, 47, 59
3, 465514, Note_on_c, 0, 67, 0
3, 465525, Note_on_c, 0, 56, 0
3, 465559, Note_on_c, 0, 62, 0
3, 465614, Note_on_c, 0, 47, 0
3, 465687, Note_on_c, 0, 52, 69
3, 466328, Note_on_c, 0, 47, 45
3, 466332, Note_on_c, 0, 52, 0
3, 466563, Note_on_c, 0, 47, 0
3, 466663, Note_on_c, 0, 52, 66
3, 467236, Note_on_c, 0, 64, 83
3, 467398, Note_on_c, 0, 64, 0
3, 467526, Note_on_c, 0, 65, 62
3, 467541, Note_on_c, 0, 47, 39
3, 467583, Note_on_c, 0, 52, 0
3, 467639, Note_on_c, 0, 65, 0
3, 467816, Note_on_c, 0, 68, 60
3, 467892, Note_on_c, 0, 68, 0
3, 468042, Note_on_c, 0, 71, 75
3, 468198, Note_on_c, 0, 71, 0
3, 468285, Note_on_c, 0, 72, 80
3, 468301, Note_on_c, 0, 47, 0
3, 468401, Note_on_c, 0, 45, 45
3, 468418, Note_on_c, 0, 72, 0
3, 468562, Note_on_c, 0, 76, 99
3, 469048, Note_on_c, 0, 76, 0
3, 469151, Note_on_c, 0, 74, 80
3, 469405, Note_on_c, 0, 74, 0
3, 469438, Note_on_c, 0, 57, 35
3, 469524, Note_on_c, 0, 72, 53
3, 470076, Note_on_c, 0, 72, 0
3, 470118, Note_on_c, 0, 69, 55
3, 470154, Note_on_c, 0, 57, 0
3, 470219, Note_on_c, 0, 52, 24
3, 470377, Note_on_c, 0, 69, 0
3, 470508, Note_on_c, 0, 64, 24
3, 470563, Note_on_c, 0, 45, 0
3, 470914, Note_on_c, 0, 64, 0
3, 471051, Note_on_c, 0, 60, 46
3, 471196, Note_on_c, 0, 45, 19
3, 471319, Note_on_c, 0, 60, 0
3, 471335, Note_on_c, 0, 52, 0
3, 471393, Note_on_c, 0, 59, 34
3, 471878, Note_on_c, 0, 59, 0
3, 471970, Note_on_c, 0, 45, 0
3, 472002, Note_on_c, 0, 62, 57
3, 472003, Note_on_c, 0, 50, 50
3, 472112, Note_on_c, 0, 62, 0
3, 472162, Note_on_c, 0, 50, 0
3, 472371, Note_on_c, 0, 41, 59
3, 472643, Note_on_c, 0, 63, 59
3, 472754, Note_on_c, 0, 63, 0
3, 472900, Note_on_c, 0, 67, 40
3, 473051, Note_on_c, 0, 67, 0
3, 473114, Note_on_c, 0, 71, 62
3, 473314, Note_on_c, 0, 48, 33
3, 473320, Note_on_c, 0, 71, 0
3, 473375, Note_on_c, 0, 74, 47
3, 473427, Note_on_c, 0, 74, 0
3, 473697, Note_on_c, 0, 86, 68
3, 473850, Note_on_c, 0, 86, 0
3, 473939, Note_on_c, 0, 89, 90
3, 474066, Note_on_c, 0, 41, 0
3, 474120, Note_on_c, 0, 89, 0
3, 474217, Note_on_c, 0, 87, 75
3, 474236, Note_on_c, 0, 41, 34
3, 474430, Note_on_c, 0, 87, 0
3, 474518, Note_on_c, 0, 83, 51
3, 474646, Note_on_c, 0, 83, 0
3, 474739, Note_on_c, 0, 86, 77
3, 474977, Note_on_c, 0, 84, 73
3, 475045, Note_on_c, 0, 86, 0
3, 475132, Note_on_c, 0, 84, 0
3, 475273, Note_on_c, 0, 79, 60
3, 475409, Note_on_c, 0, 79, 0
3, 475583, Note_on_c, 0, 76, 26
3, 475643, Note_on_c, 0, 76, 0
3, 475719, Note_on_c, 0, 41, 0
3, 475811, Note_on_c, 0, 74, 28
3, 475972, Note_on_c, 0, 74, 0
3, 475998, Note_on_c, 0, 41, 43
3, 476215, Note_on_c, 0, 69, 50
3, 476258, Note_on_c, 0, 41, 0
3, 476322, Note_on_c, 0, 69, 0
3, 476393, Note_on_c, 0, 48, 0
3, 476396, Note_on_c, 0, 47, 49
3, 476397, Note_on_c, 0, 78, 77
3, 476779, Note_on_c, 0, 74, 66
3, 476946, Note_on_c, 0, 74, 0
3, 476972, Note_on_c, 0, 78, 0
3, 477071, Note_on_c, 0, 69, 54
3, 477208, Note_on_c, 0, 69, 0
3, 477216, Note_on_c, 0, 57, 35
3, 477312, Note_on_c, 0, 57, 0
3, 477351, Note_on_c, 0, 66, 42
3, 477552, Note_on_c, 0, 66, 0
3, 477609, Note_on_c, 0, 62, 45
3, 477759, Note_on_c, 0, 62, 0
3, 477872, Note_on_c, 0, 67, 80
3, 478147, Note_on_c, 0, 47, 0
3, 478217, Note_on_c, 0, 46, 29
3, 478846, Note_on_c, 0, 61, 37
3, 478852, Note_on_c, 0, 58, 45
3, 478882, Note_on_c, 0, 64, 34
3, 478973, Note_on_c, 0, 56, 25
3, 479250, Note_on_c, 0, 56, 0
3, 479721, Note_on_c, 0, 52, 38
3, 479753, Note_on_c, 0, 58, 0
3, 479763, Note_on_c, 0, 64, 0
3, 479834, Note_on_c, 0, 46, 0
3, 479855, Note_on_c, 0, 61, 0
3, 479881, Note_on_c, 0, 67, 0
3, 479940, Note_on_c, 0, 52, 0
3, 479994, Note_on_c, 0, 45, 45
3, 479999, Note_on_c, 0, 55, 45
3, 480026, Note_on_c, 0, 60, 39
3, 480039, Note_on_c, 0, 64, 24
3, 480128, Note_on_c, 0, 55, 0
3, 480159, Note_on_c, 0, 60, 0
3, 480215, Note_on_c, 0, 64, 0
3, 480525, Note_on_c, 0, 45, 0
3, 480671, Note_on_c, 0, 59, 63
3, 480678, Note_on_c, 0, 71, 73
3, 480681, Note_on_c, 0, 60, 70
3, 480693, Note_on_c, 0, 64, 59
3, 480716, Note_on_c, 0, 67, 40
3, 480746, Note_on_c, 0, 64, 0
3, 480772, Note_on_c, 0, 67, 0
3, 480787, Note_on_c, 0, 60, 0
3, 480832, Note_on_c, 0, 71, 0
3, 480854, Note_on_c, 0, 59, 0
3, 480961, Note_on_c, 0, 57, 35
3, 481130, Note_on_c, 0, 57, 0
3, 481157, Note_on_c, 0, 64, 64
3, 481165, Note_on_c, 0, 71, 67
3, 481168, Note_on_c, 0, 60, 64
3, 481173, Note_on_c, 0, 67, 55
3, 481181, Note_on_c, 0, 59, 59
3, 481365, Note_on_c, 0, 60, 0
3, 481389, Note_on_c, 0, 64, 0
3, 481453, Note_on_c, 0, 67, 0
3, 481459, Note_on_c, 0, 59, 0
3, 481474, Note_on_c, 0, 71, 0
3, 481745, Note_on_c, 0, 62, 57
3, 481768, Note_on_c, 0, 74, 77
3, 481773, Note_on_c, 0, 67, 83
3, 481779, Note_on_c, 0, 64, 74
3, 481847, Note_on_c, 0, 62, 0
3, 481872, Note_on_c, 0, 67, 0
3, 481888, Note_on_c, 0, 74, 0
3, 481909, Note_on_c, 0, 64, 0
3, 482165, Note_on_c, 0, 71, 62
3, 482175, Note_on_c, 0, 63, 49
3, 482180, Note_on_c, 0, 66, 55
3, 482192, Note_on_c, 0, 60, 45
3, 482328, Note_on_c, 0, 49, 30
3, 482340, Note_on_c, 0, 50, 6
3, 482477, Note_on_c, 0, 49, 0
3, 482693, Note_on_c, 0, 71, 0
3, 482727, Note_on_c, 0, 50, 0
3, 482735, Note_on_c, 0, 60, 0
3, 482742, Note_on_c, 0, 63, 0
3, 482800, Note_on_c, 0, 66, 0
3, 482998, Note_on_c, 0, 60, 37
3, 483002, Note_on_c, 0, 50, 38
3, 483019, Note_on_c, 0, 69, 41
3, 483022, Note_on_c, 0, 63, 39
3, 483035, Note_on_c, 0, 66, 31
3, 483401, Note_on_c, 0, 60, 0
3, 483476, Note_on_c, 0, 69, 0
3, 483525, Note_on_c, 0, 66, 0
3, 483531, Note_on_c, 0, 50, 0
3, 483537, Note_on_c, 0, 63, 0
3, 483630, Note_on_c, 0, 66, 52
3, 483652, Note_on_c, 0, 50, 37
3, 483689, Note_on_c, 0, 62, 44
3, 483696, Note_on_c, 0, 57, 33
3, 484104, Note_on_c, 0, 50, 0
3, 484593, Note_on_c, 0, 49, 51
3, 484855, Note_on_c, 0, 49, 0
3, 484914, Note_on_c, 0, 50, 49
3, 485449, Note_on_c, 0, 57, 0
3, 485510, Note_on_c, 0, 62, 0
3, 485535, Note_on_c, 0, 38, 42
3, 485553, Note_on_c, 0, 50, 0
3, 485599, Note_on_c, 0, 66, 0
3, 485833, Note_on_c, 0, 50, 34
3, 485836, Note_on_c, 0, 66, 42
3, 485838, Note_on_c, 0, 57, 43
3, 485852, Note_on_c, 0, 62, 47
3, 485987, Note_on_c, 0, 57, 0
3, 485999, Note_on_c, 0, 50, 0
3, 486022, Note_on_c, 0, 62, 0
3, 486062, Note_on_c, 0, 66, 0
3, 486448, Note_on_c, 0, 50, 42
3, 486465, Note_on_c, 0, 66, 50
3, 486474, Note_on_c, 0, 57, 51
3, 486477, Note_on_c, 0, 62, 58
3, 486592, Note_on_c, 0, 57, 0
3, 486603, Note_on_c, 0, 50, 0
3, 486627, Note_on_c, 0, 62, 0
3, 486641, Note_on_c, 0, 66, 0
3, 486773, Note_on_c, 0, 50, 38
3, 486806, Note_on_c, 0, 66, 37
3, 486809, Note_on_c, 0, 57, 29
3, 486818, Note_on_c, 0, 62, 39
3, 486911, Note_on_c, 0, 50, 0
3, 486912, Note_on_c, 0, 57, 0
3, 486930, Note_on_c, 0, 62, 0
3, 486957, Note_on_c, 0, 66, 0
3, 487363, Note_on_c, 0, 66, 47
3, 487378, Note_on_c, 0, 50, 41
3, 487385, Note_on_c, 0, 62, 49
3, 487402, Note_on_c, 0, 57, 33
3, 487435, Note_on_c, 0, 62, 0
3, 487501, Note_on_c, 0, 50, 0
3, 487511, Note_on_c, 0, 57, 0
3, 487595, Note_on_c, 0, 66, 0
3, 487738, Note_on_c, 0, 68, 45
3, 487748, Note_on_c, 0, 50, 41
3, 487752, Note_on_c, 0, 63, 42
3, 487766, Note_on_c, 0, 56, 37
3, 487776, Note_on_c, 0, 60, 40
3, 487910, Note_on_c, 0, 50, 0
3, 487932, Note_on_c, 0, 60, 0
3, 487956, Note_on_c, 0, 56, 0
3, 488004, Note_on_c, 0, 68, 0
3, 488014, Note_on_c, 0, 63, 0
3, 488118, Note_on_c, 0, 38, 0
3, 488656, Note_on_c, 0, 68, 44
3, 488664, Note_on_c, 0, 56, 46
3, 488687, Note_on_c, 0, 60, 41
3, 488687, Note_on_c, 0, 63, 43
3, 488693, Note_on_c, 0, 50, 28
3, 489108, Note_on_c, 0, 60, 0
3, 489212, Note_on_c, 0, 63, 0
3, 489265, Note_on_c, 0, 56, 0
3, 489286, Note_on_c, 0, 50, 0
3, 489291, Note_on_c, 0, 38, 24
3, 489400, Note_on_c, 0, 68, 0
3, 489641, Note_on_c, 0, 69, 53
3, 489644, Note_on_c, 0, 57, 35
3, 489645, Note_on_c, 0, 62, 55
3, 489648, Note_on_c, 0, 50, 34
3, 489664, Note_on_c, 0, 66, 27
3, 490106, Note_on_c, 0, 57, 0
3, 490126, Note_on_c, 0, 69, 0
3, 490154, Note_on_c, 0, 62, 0
3, 490264, Note_on_c, 0, 66, 0
3, 490375, Note_on_c, 0, 50, 0
3, 490465, Note_on_c, 0, 38, 0
3, 490594, Note_on_c, 0, 70, 50
3, 490605, Note_on_c, 0, 58, 45
3, 490612, Note_on_c, 0, 63, 49
3, 490630, Note_on_c, 0, 44, 26
3, 490648, Note_on_c, 0, 66, 26
3, 490913, Note_on_c, 0, 63, 0
3, 490939, Note_on_c, 0, 66, 0
3, 491631, Note_on_c, 0, 43, 34
3, 491662, Note_on_c, 0, 70, 0
3, 491705, Note_on_c, 0, 62, 37
3, 491754, Note_on_c, 0, 44, 0
3, 491871, Note_on_c, 0, 58, 0
3, 492158, Note_on_c, 0, 62, 0
3, 492266, Note_on_c, 0, 64, 59
3, 492496, Note_on_c, 0, 64, 0
3, 492612, Note_on_c, 0, 43, 0
3, 492631, Note_on_c, 0, 50, 44
3, 492635, Note_on_c, 0, 66, 53
3, 493386, Note_on_c, 0, 49, 43
3, 493419, Note_on_c, 0, 66, 0
3, 493470, Note_on_c, 0, 50, 0
3, 493571, Note_on_c, 0, 69, 58
3, 493577, Note_on_c, 0, 49, 0
3, 493620, Note_on_c, 0, 57, 38
3, 494234, Note_on_c, 0, 69, 0
3, 494511, Note_on_c, 0, 57, 0
3, 494558, Note_on_c, 0, 56, 36
3, 495479, Note_on_c, 0, 56, 0
3, 495500, Note_on_c, 0, 55, 40
3, 496475, Note_on_c, 0, 55, 0
3, 496504, Note_on_c, 0, 67, 113
3, 496538, Note_on_c, 0, 54, 44
3, 496555, Note_on_c, 0, 66, 48
3, 496624, Note_on_c, 0, 66, 0
3, 496925, Note_on_c, 0, 67, 0
3, 497130, Note_on_c, 0, 67, 80
3, 497347, Note_on_c, 0, 54, 0
3, 497417, Note_on_c, 0, 52, 35
3, 497599, Note_on_c, 0, 67, 0
3, 497640, Note_on_c, 0, 62, 56
3, 498203, Note_on_c, 0, 62, 0
3, 498388, Note_on_c, 0, 52, 0
3, 498412, Note_on_c, 0, 64, 57
3, 498416, Note_on_c, 0, 50, 33
3, 499123, Note_on_c, 0, 64, 0
3, 499293, Note_on_c, 0, 50, 0
3, 499375, Note_on_c, 0, 65, 36
3, 499389, Note_on_c, 0, 46, 29
3, 499393, Note_on_c, 0, 61, 47
3, 499432, Note_on_c, 0, 56, 25
3, 500153, Note_on_c, 0, 51, 30
3, 500299, Note_on_c, 0, 46, 0
3, 500333, Note_on_c, 0, 51, 0
3, 500354, Note_on_c, 0, 53, 52
3, 501001, Note_on_c, 0, 56, 0
3, 501022, Note_on_c, 0, 51, 32
3, 501042, Note_on_c, 0, 53, 0
3, 501112, Note_on_c, 0, 51, 0
3, 501273, Note_on_c, 0, 60, 74
3, 502148, Note_on_c, 0, 60, 0
3, 502263, Note_on_c, 0, 59, 52
3, 502951, Note_on_c, 0, 65, 0
3, 502983, Note_on_c, 0, 61, 0
3, 503172, Note_on_c, 0, 59, 0
3, 503221, Note_on_c, 0, 58, 52
3, 504044, Note_on_c, 0, 58, 0
3, 504134, Note_on_c, 0, 57, 40
3, 505119, Note_on_c, 0, 61, 42
3, 505122, Note_on_c, 0, 57, 0
3, 505124, Note_on_c, 0, 69, 47
3, 505128, Note_on_c, 0, 65, 50
3, 505175, Note_on_c, 0, 56, 32
3, 505535, Note_on_c, 0, 69, 0
3, 505705, Note_on_c, 0, 65, 0
3, 505726, Note_on_c, 0, 61, 0
3, 506039, Note_on_c, 0, 56, 0
3, 506080, Note_on_c, 0, 70, 64
3, 506094, Note_on_c, 0, 55, 36
3, 506111, Note_on_c, 0, 66, 50
3, 506117, Note_on_c, 0, 61, 45
3, 506694, Note_on_c, 0, 61, 0
3, 506713, Note_on_c, 0, 55, 0
3, 506815, Note_on_c, 0, 70, 0
3, 506815, Note_on_c, 0, 71, 73
3, 506817, Note_on_c, 0, 62, 41
3, 508030, Note_on_c, 0, 66, 0
3, 508040, Note_on_c, 0, 43, 36
3, 508050, Note_on_c, 0, 71, 0
3, 508157, Note_on_c, 0, 54, 1
3, 508177, Note_on_c, 0, 62, 0
3, 508556, Note_on_c, 0, 54, 0
3, 508677, Note_on_c, 0, 66, 48
3, 508695, Note_on_c, 0, 59, 68
3, 508708, Note_on_c, 0, 57, 49
3, 508763, Note_on_c, 0, 59, 0
3, 508777, Note_on_c, 0, 57, 0
3, 508808, Note_on_c, 0, 66, 0
3, 508914, Note_on_c, 0, 49, 25
3, 508918, Note_on_c, 0, 43, 0
3, 508953, Note_on_c, 0, 50, 28
3, 509115, Note_on_c, 0, 49, 0
3, 509650, Note_on_c, 0, 62, 65
3, 509731, Note_on_c, 0, 50, 0
3, 509885, Note_on_c, 0, 62, 0
3, 509996, Note_on_c, 0, 52, 38
3, 510004, Note_on_c, 0, 64, 54
3, 510428, Note_on_c, 0, 64, 0
3, 510608, Note_on_c, 0, 66, 63
3, 510854, Note_on_c, 0, 52, 0
3, 510905, Note_on_c, 0, 66, 0
3, 510964, Note_on_c, 0, 54, 33
3, 511061, Note_on_c, 0, 62, 36
3, 511073, Note_on_c, 0, 59, 50
3, 511087, Note_on_c, 0, 69, 47
3, 511091, Note_on_c, 0, 66, 25
3, 511233, Note_on_c, 0, 59, 0
3, 511282, Note_on_c, 0, 69, 0
3, 511319, Note_on_c, 0, 66, 0
3, 511362, Note_on_c, 0, 62, 0
3, 511732, Note_on_c, 0, 54, 0
3, 511865, Note_on_c, 0, 49, 37
3, 512461, Note_on_c, 0, 66, 57
3, 512513, Note_on_c, 0, 59, 51
3, 512537, Note_on_c, 0, 49, 0
3, 512545, Note_on_c, 0, 57, 35
3, 512615, Note_on_c, 0, 59, 0
3, 512619, Note_on_c, 0, 57, 0
3, 512631, Note_on_c, 0, 50, 30
3, 512634, Note_on_c, 0, 66, 0
3, 513205, Note_on_c, 0, 59, 63
3, 513207, Note_on_c, 0, 62, 55
3, 513307, Note_on_c, 0, 59, 0
3, 513322, Note_on_c, 0, 62, 0
3, 513651, Note_on_c, 0, 50, 0
3, 513717, Note_on_c, 0, 43, 34
3, 513864, Note_on_c, 0, 64, 48
3, 513893, Note_on_c, 0, 62, 19
3, 513961, Note_on_c, 0, 62, 0
3, 514278, Note_on_c, 0, 64, 0
3, 514450, Note_on_c, 0, 62, 68
3, 514469, Note_on_c, 0, 57, 68
3, 514505, Note_on_c, 0, 43, 0
3, 514616, Note_on_c, 0, 47, 37
3, 514692, Note_on_c, 0, 57, 0
3, 514720, Note_on_c, 0, 62, 0
3, 515036, Note_on_c, 0, 66, 38
3, 515040, Note_on_c, 0, 57, 55
3, 515044, Note_on_c, 0, 62, 57
3, 515134, Note_on_c, 0, 57, 0
3, 515206, Note_on_c, 0, 66, 0
3, 515230, Note_on_c, 0, 62, 0
3, 515515, Note_on_c, 0, 47, 0
3, 515687, Note_on_c, 0, 41, 39
3, 516273, Note_on_c, 0, 66, 51
3, 516283, Note_on_c, 0, 57, 61
3, 516316, Note_on_c, 0, 62, 57
3, 516353, Note_on_c, 0, 57, 0
3, 516390, Note_on_c, 0, 62, 0
3, 516418, Note_on_c, 0, 41, 0
3, 516424, Note_on_c, 0, 66, 0
3, 516557, Note_on_c, 0, 38, 32
3, 516971, Note_on_c, 0, 66, 40
3, 516992, Note_on_c, 0, 62, 51
3, 517160, Note_on_c, 0, 66, 0
3, 517215, Note_on_c, 0, 62, 0
3, 517467, Note_on_c, 0, 38, 0
3, 517622, Note_on_c, 0, 39, 51
3, 518186, Note_on_c, 0, 67, 60
3, 518188, Note_on_c, 0, 56, 40
3, 518237, Note_on_c, 0, 62, 36
3, 518308, Note_on_c, 0, 39, 0
3, 518352, Note_on_c, 0, 40, 44
3, 518362, Note_on_c, 0, 56, 0
3, 518407, Note_on_c, 0, 67, 0
3, 518476, Note_on_c, 0, 62, 0
3, 518831, Note_on_c, 0, 67, 57
3, 518847, Note_on_c, 0, 56, 36
3, 518886, Note_on_c, 0, 62, 41
3, 519093, Note_on_c, 0, 56, 0
3, 519099, Note_on_c, 0, 67, 0
3, 519150, Note_on_c, 0, 62, 0
3, 519494, Note_on_c, 0, 28, 55
3, 519585, Note_on_c, 0, 40, 0
3, 520041, Note_on_c, 0, 56, 58
3, 520072, Note_on_c, 0, 65, 51
3, 520074, Note_on_c, 0, 62, 55
3, 520193, Note_on_c, 0, 56, 0
3, 520260, Note_on_c, 0, 65, 0
3, 520301, Note_on_c, 0, 62, 0
3, 520477, Note_on_c, 0, 35, 33
3, 520480, Note_on_c, 0, 28, 0
3, 520795, Note_on_c, 0, 65, 57
3, 520801, Note_on_c, 0, 62, 60
3, 520823, Note_on_c, 0, 56, 33
3, 521034, Note_on_c, 0, 56, 0
3, 521168, Note_on_c, 0, 62, 0
3, 521184, Note_on_c, 0, 65, 0
3, 521446, Note_on_c, 0, 32, 51
3, 521450, Note_on_c, 0, 35, 0
3, 521483, Note_on_c, 0, 64, 53
3, 521491, Note_on_c, 0, 56, 39
3, 521872, Note_on_c, 0, 56, 0
3, 521962, Note_on_c, 0, 64, 0
3, 522122, Note_on_c, 0, 62, 57
3, 522128, Note_on_c, 0, 32, 0
3, 522147, Note_on_c, 0, 55, 39
3, 522267, Note_on_c, 0, 55, 0
3, 522304, Note_on_c, 0, 33, 40
3, 522405, Note_on_c, 0, 62, 0
3, 523074, Note_on_c, 0, 64, 51
3, 523109, Note_on_c, 0, 65, 83
3, 523148, Note_on_c, 0, 64, 0
3, 523347, Note_on_c, 0, 64, 66
3, 523353, Note_on_c, 0, 65, 0
3, 523431, Note_on_c, 0, 45, 33
3, 523525, Note_on_c, 0, 64, 0
3, 523529, Note_on_c, 0, 63, 47
3, 523842, Note_on_c, 0, 63, 0
3, 524061, Note_on_c, 0, 64, 64
3, 524141, Note_on_c, 0, 45, 0
3, 524293, Note_on_c, 0, 64, 0
3, 524332, Note_on_c, 0, 40, 36
3, 524387, Note_on_c, 0, 33, 0
3, 524561, Note_on_c, 0, 77, 66
3, 525235, Note_on_c, 0, 77, 0
3, 525352, Note_on_c, 0, 40, 0
3, 525382, Note_on_c, 0, 33, 33
3, 525425, Note_on_c, 0, 76, 51
3, 525923, Note_on_c, 0, 76, 0
3, 525993, Note_on_c, 0, 74, 72
3, 526042, Note_on_c, 0, 33, 0
3, 526308, Note_on_c, 0, 40, 35
3, 526404, Note_on_c, 0, 74, 0
3, 526546, Note_on_c, 0, 72, 53
3, 526951, Note_on_c, 0, 40, 0
3, 527121, Note_on_c, 0, 40, 13
3, 527141, Note_on_c, 0, 72, 0
3, 527209, Note_on_c, 0, 71, 47
3, 527408, Note_on_c, 0, 47, 53
3, 527660, Note_on_c, 0, 40, 0
3, 527701, Note_on_c, 0, 71, 0
3, 527879, Note_on_c, 0, 68, 67
3, 528123, Note_on_c, 0, 47, 0
3, 528180, Note_on_c, 0, 52, 41
3, 528807, Note_on_c, 0, 60, 41
3, 528815, Note_on_c, 0, 68, 0
3, 528891, Note_on_c, 0, 60, 0
3, 528974, Note_on_c, 0, 52, 0
3, 529040, Note_on_c, 0, 44, 39
3, 529720, Note_on_c, 0, 42, 28
3, 529726, Note_on_c, 0, 64, 66
3, 529923, Note_on_c, 0, 44, 0
3, 529935, Note_on_c, 0, 42, 0
3, 529970, Note_on_c, 0, 45, 39
3, 530597, Note_on_c, 0, 64, 0
3, 530631, Note_on_c, 0, 63, 55
3, 530861, Note_on_c, 0, 40, 28
3, 530883, Note_on_c, 0, 45, 0
3, 530885, Note_on_c, 0, 63, 0
3, 530984, Note_on_c, 0, 64, 52
3, 531444, Note_on_c, 0, 64, 0
3, 531573, Note_on_c, 0, 71, 75
3, 531776, Note_on_c, 0, 40, 0
3, 531842, Note_on_c, 0, 33, 28
3, 531858, Note_on_c, 0, 71, 0
3, 532067, Note_on_c, 0, 71, 60
3, 532591, Note_on_c, 0, 71, 0
3, 532769, Note_on_c, 0, 40, 24
3, 532855, Note_on_c, 0, 69, 60
3, 533314, Note_on_c, 0, 33, 0
3, 533374, Note_on_c, 0, 69, 0
3, 533517, Note_on_c, 0, 71, 54
3, 533527, Note_on_c, 0, 64, 49
3, 533542, Note_on_c, 0, 60, 33
3, 533681, Note_on_c, 0, 60, 0
3, 533707, Note_on_c, 0, 40, 0
3, 533757, Note_on_c, 0, 45, 34
3, 534467, Note_on_c, 0, 45, 0
3, 534563, Note_on_c, 0, 40, 38
3, 534762, Note_on_c, 0, 40, 0
3, 534846, Note_on_c, 0, 47, 40
3, 535743, Note_on_c, 0, 47, 0
3, 535833, Note_on_c, 0, 45, 37
3, 536591, Note_on_c, 0, 45, 0
3, 536724, Note_on_c, 0, 38, 40
3, 536984, Note_on_c, 0, 64, 0
3, 537169, Note_on_c, 0, 71, 0
3, 537672, Note_on_c, 0, 38, 0
3, 537703, Note_on_c, 0, 39, 53
3, 537740, Note_on_c, 0, 69, 50
3, 537742, Note_on_c, 0, 61, 30
3, 537795, Note_on_c, 0, 65, 31
3, 538692, Note_on_c, 0, 48, 53
3, 538751, Note_on_c, 0, 39, 0
3, 539384, Note_on_c, 0, 61, 0
3, 539393, Note_on_c, 0, 65, 0
3, 539419, Note_on_c, 0, 69, 0
3, 539671, Note_on_c, 0, 51, 51
3, 539675, Note_on_c, 0, 70, 71
3, 539679, Note_on_c, 0, 61, 71
3, 539718, Note_on_c, 0, 65, 66
3, 539751, Note_on_c, 0, 48, 0
3, 540240, Note_on_c, 0, 61, 0
3, 540242, Note_on_c, 0, 65, 0
3, 540316, Note_on_c, 0, 70, 0
3, 540362, Note_on_c, 0, 69, 64
3, 540443, Note_on_c, 0, 65, 33
3, 540533, Note_on_c, 0, 65, 0
3, 540585, Note_on_c, 0, 69, 0
3, 540648, Note_on_c, 0, 57, 38
3, 541183, Note_on_c, 0, 57, 0
3, 541346, Note_on_c, 0, 61, 62
3, 541350, Note_on_c, 0, 67, 70
3, 541377, Note_on_c, 0, 65, 64
3, 541656, Note_on_c, 0, 60, 38
3, 542311, Note_on_c, 0, 60, 0
3, 542612, Note_on_c, 0, 62, 68
3, 543198, Note_on_c, 0, 61, 0
3, 543288, Note_on_c, 0, 62, 0
3, 543308, Note_on_c, 0, 65, 0
3, 543394, Note_on_c, 0, 67, 0
3, 543530, Note_on_c, 0, 61, 31
3, 543544, Note_on_c, 0, 60, 48
3, 543564, Note_on_c, 0, 67, 39
3, 543585, Note_on_c, 0, 65, 45
3, 543921, Note_on_c, 0, 51, 0
3, 544328, Note_on_c, 0, 60, 0
3, 544431, Note_on_c, 0, 58, 48
3, 544668, Note_on_c, 0, 61, 0
3, 544689, Note_on_c, 0, 65, 0
3, 544826, Note_on_c, 0, 67, 0
3, 545064, Note_on_c, 0, 69, 57
3, 545088, Note_on_c, 0, 64, 39
3, 545090, Note_on_c, 0, 60, 28
3, 545152, Note_on_c, 0, 58, 0
3, 545211, Note_on_c, 0, 57, 33
3, 546186, Note_on_c, 0, 57, 0
3, 546280, Note_on_c, 0, 54, 56
3, 547198, Note_on_c, 0, 54, 0
3, 547290, Note_on_c, 0, 55, 46
3, 548209, Note_on_c, 0, 64, 0
3, 548222, Note_on_c, 0, 55, 0
3, 548273, Note_on_c, 0, 69, 0
3, 548283, Note_on_c, 0, 52, 34
3, 548498, Note_on_c, 0, 60, 0
3, 549110, Note_on_c, 0, 52, 0
3, 549221, Note_on_c, 0, 50, 26
3, 549258, Note_on_c, 0, 66, 44
3, 550188, Note_on_c, 0, 66, 0
3, 550206, Note_on_c, 0, 38, 35
3, 550853, Note_on_c, 0, 50, 0
3, 550984, Note_on_c, 0, 45, 38
3, 551095, Note_on_c, 0, 45, 0
3, 551214, Note_on_c, 0, 82, 70
3, 551267, Note_on_c, 0, 50, 28
3, 551376, Note_on_c, 0, 50, 0
3, 551498, Note_on_c, 0, 78, 57
3, 551570, Note_on_c, 0, 82, 0
3, 551722, Note_on_c, 0, 78, 0
3, 551816, Note_on_c, 0, 76, 45
3, 551967, Note_on_c, 0, 76, 0
3, 552023, Note_on_c, 0, 75, 51
3, 552035, Note_on_c, 0, 50, 24
3, 552182, Note_on_c, 0, 75, 0
3, 552256, Note_on_c, 0, 74, 45
3, 552455, Note_on_c, 0, 74, 0
3, 552582, Note_on_c, 0, 73, 20
3, 552627, Note_on_c, 0, 38, 0
3, 552709, Note_on_c, 0, 73, 0
3, 552764, Note_on_c, 0, 72, 36
3, 552854, Note_on_c, 0, 50, 0
3, 552946, Note_on_c, 0, 72, 0
3, 553002, Note_on_c, 0, 70, 55
3, 553133, Note_on_c, 0, 43, 38
3, 553194, Note_on_c, 0, 70, 0
3, 553356, Note_on_c, 0, 71, 71
3, 553653, Note_on_c, 0, 71, 0
3, 554208, Note_on_c, 0, 66, 49
3, 554390, Note_on_c, 0, 66, 0
3, 554480, Note_on_c, 0, 64, 30
3, 554595, Note_on_c, 0, 64, 0
3, 554724, Note_on_c, 0, 66, 77
3, 554822, Note_on_c, 0, 43, 0
3, 555033, Note_on_c, 0, 66, 0
3, 555040, Note_on_c, 0, 55, 44
3, 555076, Note_on_c, 0, 62, 63
3, 555175, Note_on_c, 0, 55, 0
3, 555254, Note_on_c, 0, 62, 0
3, 555420, Note_on_c, 0, 59, 26
3, 555504, Note_on_c, 0, 59, 0
3, 555678, Note_on_c, 0, 50, 13
3, 556004, Note_on_c, 0, 52, 36
3, 556030, Note_on_c, 0, 50, 0
3, 556084, Note_on_c, 0, 43, 29
3, 556094, Note_on_c, 0, 52, 0
3, 556215, Note_on_c, 0, 54, 60
3, 556328, Note_on_c, 0, 43, 0
3, 556692, Note_on_c, 0, 50, 57
3, 556831, Note_on_c, 0, 54, 0
3, 556854, Note_on_c, 0, 50, 0
3, 557030, Note_on_c, 0, 52, 55
3, 557093, Note_on_c, 0, 43, 35
3, 557853, Note_on_c, 0, 43, 0
3, 558027, Note_on_c, 0, 38, 30
3, 558771, Note_on_c, 0, 52, 0
3, 558867, Note_on_c, 0, 38, 0
3, 558894, Note_on_c, 0, 50, 33
3, 558912, Note_on_c, 0, 43, 31
3, 559373, Note_on_c, 0, 50, 0
3, 559506, Note_on_c, 0, 52, 48
3, 559701, Note_on_c, 0, 43, 0
3, 559721, Note_on_c, 0, 52, 0
3, 559819, Note_on_c, 0, 38, 31
3, 559850, Note_on_c, 0, 54, 38
3, 560428, Note_on_c, 0, 54, 0
3, 560481, Note_on_c, 0, 55, 54
3, 560506, Note_on_c, 0, 38, 0
3, 560684, Note_on_c, 0, 55, 0
3, 560921, Note_on_c, 0, 57, 41
3, 560927, Note_on_c, 0, 39, 33
3, 561620, Note_on_c, 0, 57, 0
3, 561712, Note_on_c, 0, 60, 42
3, 561745, Note_on_c, 0, 53, 45
3, 561763, Note_on_c, 0, 57, 24
3, 561933, Note_on_c, 0, 39, 0
3, 562201, Note_on_c, 0, 60, 0
3, 562240, Note_on_c, 0, 57, 0
3, 562402, Note_on_c, 0, 58, 57
3, 562535, Note_on_c, 0, 53, 0
3, 562584, Note_on_c, 0, 46, 29
3, 562715, Note_on_c, 0, 58, 0
3, 563606, Note_on_c, 0, 46, 0
3, 563641, Note_on_c, 0, 72, 58
3, 563668, Note_on_c, 0, 65, 61
3, 563705, Note_on_c, 0, 61, 55
3, 563836, Note_on_c, 0, 59, 28
3, 564145, Note_on_c, 0, 61, 0
3, 564153, Note_on_c, 0, 59, 0
3, 564163, Note_on_c, 0, 72, 0
3, 564327, Note_on_c, 0, 61, 31
3, 564335, Note_on_c, 0, 70, 63
3, 564395, Note_on_c, 0, 61, 0
3, 564422, Note_on_c, 0, 65, 0
3, 564481, Note_on_c, 0, 58, 28
3, 564557, Note_on_c, 0, 70, 0
3, 565210, Note_on_c, 0, 84, 80
3, 565241, Note_on_c, 0, 77, 72
3, 565284, Note_on_c, 0, 73, 27
3, 565360, Note_on_c, 0, 73, 0
3, 565366, Note_on_c, 0, 58, 0
3, 565403, Note_on_c, 0, 84, 0
3, 565458, Note_on_c, 0, 77, 0
3, 565499, Note_on_c, 0, 51, 27
3, 565601, Note_on_c, 0, 73, 23
3, 565632, Note_on_c, 0, 82, 38
3, 565818, Note_on_c, 0, 73, 0
3, 565851, Note_on_c, 0, 82, 0
3, 566566, Note_on_c, 0, 60, 25
3, 566582, Note_on_c, 0, 72, 45
3, 566590, Note_on_c, 0, 65, 53
3, 566605, Note_on_c, 0, 61, 38
3, 566795, Note_on_c, 0, 60, 0
3, 566996, Note_on_c, 0, 72, 0
3, 567000, Note_on_c, 0, 61, 0
3, 567084, Note_on_c, 0, 51, 0
3, 567166, Note_on_c, 0, 61, 43
3, 567172, Note_on_c, 0, 70, 58
3, 567235, Note_on_c, 0, 61, 0
3, 567272, Note_on_c, 0, 65, 0
3, 567331, Note_on_c, 0, 70, 0
3, 567413, Note_on_c, 0, 44, 48
3, 567501, Note_on_c, 0, 44, 0
3, 568034, Note_on_c, 0, 66, 70
3, 568036, Note_on_c, 0, 62, 71
3, 568063, Note_on_c, 0, 64, 59
3, 568104, Note_on_c, 0, 62, 0
3, 568132, Note_on_c, 0, 64, 0
3, 568222, Note_on_c, 0, 66, 0
3, 568282, Note_on_c, 0, 54, 37
3, 568323, Note_on_c, 0, 43, 27
3, 568399, Note_on_c, 0, 63, 55
3, 568495, Note_on_c, 0, 63, 0
3, 568527, Note_on_c, 0, 54, 0
3, 568544, Note_on_c, 0, 64, 30
3, 568636, Note_on_c, 0, 62, 52
3, 568857, Note_on_c, 0, 62, 0
3, 568951, Note_on_c, 0, 64, 0
3, 569265, Note_on_c, 0, 43, 0
3, 569365, Note_on_c, 0, 50, 44
3, 569390, Note_on_c, 0, 74, 87
3, 569468, Note_on_c, 0, 73, 27
3, 569535, Note_on_c, 0, 73, 0
3, 569750, Note_on_c, 0, 74, 0
3, 570033, Note_on_c, 0, 71, 75
3, 570150, Note_on_c, 0, 50, 0
3, 570184, Note_on_c, 0, 71, 0
3, 570203, Note_on_c, 0, 54, 27
3, 570830, Note_on_c, 0, 54, 0
3, 570932, Note_on_c, 0, 74, 80
3, 570934, Note_on_c, 0, 81, 80
3, 570965, Note_on_c, 0, 71, 60
3, 571147, Note_on_c, 0, 74, 0
3, 571153, Note_on_c, 0, 71, 0
3, 571169, Note_on_c, 0, 81, 0
3, 571264, Note_on_c, 0, 52, 36
3, 571344, Note_on_c, 0, 78, 48
3, 571382, Note_on_c, 0, 69, 33
3, 571520, Note_on_c, 0, 78, 0
3, 571581, Note_on_c, 0, 69, 0
3, 572232, Note_on_c, 0, 66, 51
3, 572259, Note_on_c, 0, 74, 52
3, 572271, Note_on_c, 0, 71, 51
3, 572275, Note_on_c, 0, 52, 0
3, 572298, Note_on_c, 0, 50, 32
3, 572454, Note_on_c, 0, 74, 0
3, 572472, Note_on_c, 0, 71, 0
3, 572570, Note_on_c, 0, 66, 0
3, 573252, Note_on_c, 0, 71, 60
3, 573277, Note_on_c, 0, 66, 45
3, 573285, Note_on_c, 0, 62, 47
3, 573326, Note_on_c, 0, 43, 35
3, 573347, Note_on_c, 0, 50, 0
3, 573590, Note_on_c, 0, 66, 0
3, 573725, Note_on_c, 0, 62, 0
3, 573860, Note_on_c, 0, 71, 0
3, 574006, Note_on_c, 0, 50, 32
3, 574246, Note_on_c, 0, 62, 54
3, 574248, Note_on_c, 0, 50, 0
3, 574270, Note_on_c, 0, 54, 37
3, 574776, Note_on_c, 0, 43, 0
3, 574891, Note_on_c, 0, 64, 37
3, 574942, Note_on_c, 0, 54, 0
3, 574975, Note_on_c, 0, 62, 0
3, 575032, Note_on_c, 0, 50, 34
3, 575079, Note_on_c, 0, 64, 0
3, 575239, Note_on_c, 0, 65, 57
3, 575683, Note_on_c, 0, 65, 0
3, 575712, Note_on_c, 0, 50, 0
3, 575790, Note_on_c, 0, 46, 23
3, 575874, Note_on_c, 0, 66, 57
3, 575923, Note_on_c, 0, 62, 57
3, 575943, Note_on_c, 0, 46, 0
3, 576027, Note_on_c, 0, 47, 46
3, 576902, Note_on_c, 0, 47, 0
3, 577195, Note_on_c, 0, 41, 69
3, 578020, Note_on_c, 0, 62, 0
3, 578059, Note_on_c, 0, 41, 0
3, 578071, Note_on_c, 0, 57, 29
3, 578112, Note_on_c, 0, 38, 43
3, 578825, Note_on_c, 0, 37, 28
3, 578909, Note_on_c, 0, 37, 0
3, 578940, Note_on_c, 0, 38, 0
3, 579005, Note_on_c, 0, 39, 39
3, 579030, Note_on_c, 0, 57, 0
3, 579535, Note_on_c, 0, 39, 0
3, 579638, Note_on_c, 0, 40, 34
3, 579677, Note_on_c, 0, 56, 42
3, 579837, Note_on_c, 0, 66, 0
3, 579847, Note_on_c, 0, 56, 0
3, 580605, Note_on_c, 0, 65, 80
3, 580680, Note_on_c, 0, 40, 0
3, 580685, Note_on_c, 0, 56, 26
3, 580756, Note_on_c, 0, 56, 0
3, 580775, Note_on_c, 0, 28, 33
3, 580848, Note_on_c, 0, 65, 0
3, 581057, Note_on_c, 0, 62, 46
3, 581584, Note_on_c, 0, 62, 0
3, 581600, Note_on_c, 0, 35, 43
3, 581842, Note_on_c, 0, 35, 0
3, 581919, Note_on_c, 0, 38, 35
3, 582173, Note_on_c, 0, 28, 0
3, 582517, Note_on_c, 0, 59, 75
3, 582689, Note_on_c, 0, 59, 0
3, 582728, Note_on_c, 0, 32, 37
3, 582730, Note_on_c, 0, 38, 0
3, 582896, Note_on_c, 0, 56, 48
3, 583560, Note_on_c, 0, 56, 0
3, 583611, Note_on_c, 0, 32, 0
3, 583740, Note_on_c, 0, 33, 40
3, 583742, Note_on_c, 0, 57, 46
3, 584086, Note_on_c, 0, 57, 0
3, 584455, Note_on_c, 0, 40, 47
3, 584498, Note_on_c, 0, 64, 84
3, 584647, Note_on_c, 0, 40, 0
3, 584801, Note_on_c, 0, 45, 24
3, 584903, Note_on_c, 0, 45, 0
3, 585104, Note_on_c, 0, 64, 0
3, 585184, Note_on_c, 0, 65, 67
3, 585444, Note_on_c, 0, 65, 0
3, 585448, Note_on_c, 0, 64, 44
3, 585643, Note_on_c, 0, 33, 0
3, 585696, Note_on_c, 0, 64, 0
3, 585751, Note_on_c, 0, 63, 48
3, 585907, Note_on_c, 0, 63, 0
3, 585911, Note_on_c, 0, 40, 13
3, 586001, Note_on_c, 0, 64, 31
3, 586216, Note_on_c, 0, 64, 0
3, 586374, Note_on_c, 0, 72, 83
3, 586630, Note_on_c, 0, 40, 0
3, 586800, Note_on_c, 0, 40, 53
3, 586998, Note_on_c, 0, 40, 0
3, 587424, Note_on_c, 0, 40, 57
3, 587496, Note_on_c, 0, 40, 0
3, 587750, Note_on_c, 0, 52, 73
3, 588559, Note_on_c, 0, 52, 0
3, 588637, Note_on_c, 0, 40, 53
3, 589397, Note_on_c, 0, 47, 24
3, 589505, Note_on_c, 0, 72, 0
3, 589542, Note_on_c, 0, 47, 0
3, 589605, Note_on_c, 0, 52, 24
3, 589614, Note_on_c, 0, 64, 57
3, 590058, Note_on_c, 0, 64, 0
3, 590230, Note_on_c, 0, 65, 64
3, 590363, Note_on_c, 0, 52, 0
3, 590412, Note_on_c, 0, 40, 0
3, 590429, Note_on_c, 0, 47, 24
3, 590472, Note_on_c, 0, 65, 0
3, 590656, Note_on_c, 0, 64, 27
3, 590982, Note_on_c, 0, 64, 0
3, 591143, Note_on_c, 0, 44, 40
3, 591168, Note_on_c, 0, 47, 0
3, 591176, Note_on_c, 0, 74, 75
3, 591359, Note_on_c, 0, 44, 0
3, 591422, Note_on_c, 0, 45, 39
3, 591465, Note_on_c, 0, 74, 0
3, 591686, Note_on_c, 0, 76, 74
3, 592219, Note_on_c, 0, 45, 0
3, 592448, Note_on_c, 0, 60, 57
3, 593378, Note_on_c, 0, 60, 0
3, 593401, Note_on_c, 0, 76, 0
3, 593425, Note_on_c, 0, 74, 55
3, 593495, Note_on_c, 0, 59, 30
3, 594220, Note_on_c, 0, 59, 0
3, 594359, Note_on_c, 0, 74, 0
3, 594363, Note_on_c, 0, 57, 33
3, 595231, Note_on_c, 0, 57, 0
3, 595352, Note_on_c, 0, 74, 53
3, 595371, Note_on_c, 0, 63, 32
3, 595403, Note_on_c, 0, 67, 36
3, 596331, Note_on_c, 0, 55, 32
3, 596890, Note_on_c, 0, 55, 0
3, 596925, Note_on_c, 0, 54, 25
3, 597169, Note_on_c, 0, 54, 0
3, 597273, Note_on_c, 0, 53, 43
3, 597734, Note_on_c, 0, 63, 0
3, 597779, Note_on_c, 0, 67, 0
3, 597787, Note_on_c, 0, 74, 0
3, 597945, Note_on_c, 0, 63, 42
3, 597949, Note_on_c, 0, 71, 57
3, 598039, Note_on_c, 0, 67, 24
3, 598095, Note_on_c, 0, 63, 0
3, 598127, Note_on_c, 0, 67, 0
3, 598170, Note_on_c, 0, 53, 0
3, 598224, Note_on_c, 0, 50, 22
3, 598467, Note_on_c, 0, 71, 0
3, 598631, Note_on_c, 0, 50, 0
3, 598654, Note_on_c, 0, 67, 59
3, 598842, Note_on_c, 0, 46, 25
3, 598912, Note_on_c, 0, 67, 0
3, 598959, Note_on_c, 0, 63, 47
3, 599135, Note_on_c, 0, 63, 0
3, 599180, Note_on_c, 0, 46, 0
3, 599276, Note_on_c, 0, 62, 36
3, 599282, Note_on_c, 0, 47, 40
3, 599291, Note_on_c, 0, 47, 0
3, 599291, Note_on_c, 0, 66, 46
3, 600206, Note_on_c, 0, 41, 31
3, 600554, Note_on_c, 0, 62, 0
3, 601037, Note_on_c, 0, 66, 0
3, 601121, Note_on_c, 0, 41, 0
3, 601160, Note_on_c, 0, 61, 39
3, 601191, Note_on_c, 0, 65, 38
3, 601818, Note_on_c, 0, 46, 33
3, 602698, Note_on_c, 0, 40, 36
3, 602700, Note_on_c, 0, 46, 0
3, 602752, Note_on_c, 0, 65, 0
3, 602854, Note_on_c, 0, 61, 0
3, 602946, Note_on_c, 0, 40, 0
3, 603022, Note_on_c, 0, 45, 37
3, 603055, Note_on_c, 0, 64, 31
3, 603059, Note_on_c, 0, 60, 20
3, 603811, Note_on_c, 0, 64, 0
3, 603847, Note_on_c, 0, 45, 0
3, 603853, Note_on_c, 0, 60, 0
3, 603917, Note_on_c, 0, 39, 44
3, 604351, Note_on_c, 0, 39, 0
3, 604542, Note_on_c, 0, 71, 64
3, 604556, Note_on_c, 0, 66, 57
3, 604568, Note_on_c, 0, 60, 49
3, 604570, Note_on_c, 0, 63, 53
3, 604601, Note_on_c, 0, 38, 42
3, 604636, Note_on_c, 0, 60, 0
3, 604648, Note_on_c, 0, 63, 0
3, 604699, Note_on_c, 0, 38, 0
3, 604716, Note_on_c, 0, 66, 0
3, 604746, Note_on_c, 0, 71, 0
3, 605510, Note_on_c, 0, 49, 77
3, 605688, Note_on_c, 0, 49, 0
3, 606160, Note_on_c, 0, 48, 66
3, 606442, Note_on_c, 0, 48, 0
3, 606823, Note_on_c, 0, 47, 66
3, 607321, Note_on_c, 0, 47, 0
3, 607439, Note_on_c, 0, 47, 57
3, 607448, Note_on_c, 0, 66, 69
3, 607460, Note_on_c, 0, 57, 78
3, 607468, Note_on_c, 0, 62, 77
3, 607536, Note_on_c, 0, 62, 0
3, 607542, Note_on_c, 0, 57, 0
3, 607614, Note_on_c, 0, 47, 0
3, 607616, Note_on_c, 0, 66, 0
3, 608183, Note_on_c, 0, 66, 65
3, 608191, Note_on_c, 0, 62, 76
3, 608193, Note_on_c, 0, 47, 58
3, 608199, Note_on_c, 0, 57, 69
3, 608437, Note_on_c, 0, 62, 0
3, 608443, Note_on_c, 0, 57, 0
3, 608500, Note_on_c, 0, 47, 0
3, 608650, Note_on_c, 0, 66, 0
3, 608906, Note_on_c, 0, 58, 57
3, 608924, Note_on_c, 0, 64, 40
3, 608928, Note_on_c, 0, 46, 43
3, 608930, Note_on_c, 0, 67, 54
3, 608945, Note_on_c, 0, 61, 56
3, 609277, Note_on_c, 0, 67, 0
3, 609324, Note_on_c, 0, 58, 0
3, 609354, Note_on_c, 0, 61, 0
3, 609387, Note_on_c, 0, 64, 0
3, 609434, Note_on_c, 0, 46, 0
3, 609555, Note_on_c, 0, 61, 49
3, 609561, Note_on_c, 0, 46, 31
3, 609578, Note_on_c, 0, 67, 57
3, 609586, Note_on_c, 0, 58, 39
3, 609619, Note_on_c, 0, 34, 36
3, 609664, Note_on_c, 0, 67, 0
3, 609735, Note_on_c, 0, 58, 0
3, 609836, Note_on_c, 0, 61, 0
3, 610016, Note_on_c, 0, 46, 0
3, 610133, Note_on_c, 0, 34, 0
3, 610378, Note_on_c, 0, 64, 54
3, 610385, Note_on_c, 0, 55, 55
3, 610407, Note_on_c, 0, 45, 33
3, 610411, Note_on_c, 0, 60, 47
3, 610505, Note_on_c, 0, 33, 25
3, 610968, Note_on_c, 0, 33, 0
3, 611105, Note_on_c, 0, 45, 0
3, 611308, Note_on_c, 0, 40, 62
3, 611493, Note_on_c, 0, 40, 0
3, 611622, Note_on_c, 0, 55, 0
3, 611703, Note_on_c, 0, 39, 53
3, 611742, Note_on_c, 0, 60, 0
3, 611835, Note_on_c, 0, 64, 0
3, 612195, Note_on_c, 0, 39, 0
3, 612291, Note_on_c, 0, 38, 52
3, 612932, Note_on_c, 0, 38, 0
3, 613125, Note_on_c, 0, 66, 61
3, 613135, Note_on_c, 0, 38, 57
3, 613147, Note_on_c, 0, 54, 61
3, 613149, Note_on_c, 0, 60, 58
3, 613192, Note_on_c, 0, 62, 38
3, 613215, Note_on_c, 0, 54, 0
3, 613236, Note_on_c, 0, 60, 0
3, 613283, Note_on_c, 0, 62, 0
3, 613287, Note_on_c, 0, 38, 0
3, 613381, Note_on_c, 0, 66, 0
3, 613805, Note_on_c, 0, 36, 77
3, 614276, Note_on_c, 0, 36, 0
3, 614462, Note_on_c, 0, 35, 75
3, 615091, Note_on_c, 0, 66, 81
3, 615101, Note_on_c, 0, 62, 90
3, 615105, Note_on_c, 0, 57, 88
3, 616432, Note_on_c, 0, 35, 0
3, 617055, Note_on_c, 0, 40, 89
3, 617702, Note_on_c, 0, 62, 0
3, 617810, Note_on_c, 0, 66, 0
3, 617851, Note_on_c, 0, 57, 0
3, 618324, Note_on_c, 0, 40, 0
3, 618331, Note_on_c, 0, 64, 70
3, 618339, Note_on_c, 0, 60, 68
3, 618343, Note_on_c, 0, 55, 78
3, 618357, Note_on_c, 0, 33, 67
3, 619306, Note_on_c, 0, 64, 0
3, 619504, Note_on_c, 0, 60, 0
3, 619660, Note_on_c, 0, 55, 0
3, 620229, Note_on_c, 0, 33, 0
3, 620313, Note_on_c, 0, 63, 47
3, 620338, Note_on_c, 0, 54, 39
3, 620364, Note_on_c, 0, 58, 48
3, 620366, Note_on_c, 0, 38, 34
3, 620383, Note_on_c, 0, 60, 33
3, 621104, Note_on_c, 0, 60, 0
3, 621409, Note_on_c, 0, 54, 0
3, 621569, Note_on_c, 0, 58, 0
3, 621792, Note_on_c, 0, 63, 0
3, 621882, Note_on_c, 0, 61, 45
3, 621890, Note_on_c, 0, 53, 45
3, 621902, Note_on_c, 0, 59, 55
3, 621919, Note_on_c, 0, 31, 43
3, 621925, Note_on_c, 0, 43, 32
3, 621931, Note_on_c, 0, 38, 0
3, 629230, Note_on_c, 0, 53, 0
3, 629247, Note_on_c, 0, 59, 0
3, 629290, Note_on_c, 0, 61, 0
3, 629910, Note_on_c, 0, 43, 0
3, 629922, Note_on_c, 0, 31, 0
3, 629922, End_track
4, 0, Start_track
4, 0, Title_t, "MIDI 1"
4, 0, End_track
0, 0, End_of_file
