0, 0, Header, 1, 5, 120
1, 0, Start_track
1, 0, Title_t, "Over the Rainbow"
1, 0, Text_t, "Doug McKenzie dougmck@pipeline.com.au You may have to adjust the volumes of Bass and drums to balance thenm with the piano. Bass played in then drums. Piano recorded in real time.\012"
1, 0, Time_signature, 4, 2, 24, 8
1, 0, Key_signature, -3, "major"
1, 0, Tempo, 600000
1, 0, Marker_t, "Somewhere Over the Rainbow - music by Harold Arlen"
1, 51360, Tempo, 789474
1, 51360, Marker_t, "You may need to balance the bass and drum volumes with the piano"
1, 82080, Tempo, 600000
1, 82080, End_track
2, 0, Start_track
2, 0, Title_t, "Acoustic Piano"
2, 555, Control_c, 0, 64, 127
2, 649, Note_on_c, 0, 82, 73
2, 695, Note_on_c, 0, 82, 0
2, 701, Note_on_c, 0, 79, 64
2, 705, Note_on_c, 0, 67, 40
2, 706, Note_on_c, 0, 63, 32
2, 710, Note_on_c, 0, 65, 44
2, 719, Control_c, 0, 64, 0
2, 729, Control_c, 0, 64, 127
2, 745, Note_on_c, 0, 79, 0
2, 752, Note_on_c, 0, 82, 65
2, 783, Note_on_c, 0, 82, 0
2, 798, Note_on_c, 0, 58, 38
2, 799, Control_c, 0, 64, 0
2, 801, Note_on_c, 0, 79, 53
2, 816, Note_on_c, 0, 79, 0
2, 820, Note_on_c, 0, 65, 0
2, 825, Control_c, 0, 64, 127
2, 826, Note_on_c, 0, 63, 0
2, 834, Note_on_c, 0, 67, 0
2, 853, Note_on_c, 0, 82, 60
2, 872, Note_on_c, 0, 82, 0
2, 899, Note_on_c, 0, 63, 35
2, 902, Note_on_c, 0, 79, 51
2, 903, Note_on_c, 0, 67, 30
2, 903, Note_on_c, 0, 65, 35
2, 909, Note_on_c, 0, 79, 0
2, 951, Note_on_c, 0, 82, 71
2, 957, Note_on_c, 0, 58, 0
2, 975, Note_on_c, 0, 82, 0
2, 1000, Note_on_c, 0, 79, 70
2, 1005, Note_on_c, 0, 65, 0
2, 1006, Note_on_c, 0, 58, 28
2, 1014, Note_on_c, 0, 79, 0
2, 1016, Note_on_c, 0, 63, 0
2, 1019, Note_on_c, 0, 67, 0
2, 1046, Note_on_c, 0, 82, 76
2, 1070, Note_on_c, 0, 82, 0
2, 1091, Note_on_c, 0, 80, 60
2, 1091, Note_on_c, 0, 68, 48
2, 1093, Note_on_c, 0, 75, 57
2, 1094, Note_on_c, 0, 65, 45
2, 1094, Note_on_c, 0, 72, 36
2, 1100, Control_c, 0, 64, 0
2, 1125, Note_on_c, 0, 72, 0
2, 1130, Note_on_c, 0, 80, 0
2, 1132, Control_c, 0, 64, 127
2, 1135, Note_on_c, 0, 82, 67
2, 1143, Note_on_c, 0, 58, 0
2, 1147, Note_on_c, 0, 75, 0
2, 1159, Note_on_c, 0, 82, 0
2, 1179, Note_on_c, 0, 58, 51
2, 1181, Note_on_c, 0, 80, 71
2, 1184, Control_c, 0, 64, 0
2, 1190, Control_c, 0, 64, 127
2, 1200, Note_on_c, 0, 65, 0
2, 1205, Note_on_c, 0, 68, 0
2, 1213, Note_on_c, 0, 80, 0
2, 1229, Note_on_c, 0, 82, 48
2, 1253, Note_on_c, 0, 82, 0
2, 1283, Note_on_c, 0, 68, 32
2, 1283, Note_on_c, 0, 80, 53
2, 1284, Control_c, 0, 64, 0
2, 1287, Note_on_c, 0, 65, 39
2, 1287, Note_on_c, 0, 72, 43
2, 1287, Note_on_c, 0, 75, 38
2, 1325, Control_c, 0, 64, 127
2, 1330, Note_on_c, 0, 72, 0
2, 1332, Note_on_c, 0, 80, 0
2, 1340, Note_on_c, 0, 82, 50
2, 1344, Note_on_c, 0, 58, 0
2, 1354, Note_on_c, 0, 75, 0
2, 1376, Note_on_c, 0, 82, 0
2, 1404, Note_on_c, 0, 80, 38
2, 1405, Note_on_c, 0, 58, 32
2, 1407, Note_on_c, 0, 75, 33
2, 1408, Note_on_c, 0, 72, 31
2, 1494, Note_on_c, 0, 65, 0
2, 1496, Note_on_c, 0, 68, 0
2, 1513, Note_on_c, 0, 80, 0
2, 1517, Note_on_c, 0, 72, 0
2, 1521, Note_on_c, 0, 58, 0
2, 1526, Note_on_c, 0, 82, 62
2, 1539, Note_on_c, 0, 75, 0
2, 1554, Note_on_c, 0, 82, 0
2, 1625, Note_on_c, 0, 84, 77
2, 1627, Control_c, 0, 64, 0
2, 1628, Note_on_c, 0, 43, 57
2, 1645, Note_on_c, 0, 84, 0
2, 1650, Control_c, 0, 64, 127
2, 1691, Note_on_c, 0, 43, 0
2, 1698, Note_on_c, 0, 55, 52
2, 1707, Note_on_c, 0, 55, 0
2, 1762, Note_on_c, 0, 65, 47
2, 1762, Note_on_c, 0, 69, 59
2, 1765, Note_on_c, 0, 58, 31
2, 1807, Note_on_c, 0, 69, 0
2, 1809, Note_on_c, 0, 65, 0
2, 1817, Note_on_c, 0, 72, 64
2, 1820, Note_on_c, 0, 62, 46
2, 1841, Note_on_c, 0, 72, 0
2, 1864, Note_on_c, 0, 62, 0
2, 1883, Note_on_c, 0, 73, 45
2, 1887, Note_on_c, 0, 70, 44
2, 1887, Note_on_c, 0, 64, 46
2, 1888, Note_on_c, 0, 61, 35
2, 1888, Note_on_c, 0, 68, 37
2, 1894, Control_c, 0, 64, 0
2, 1917, Note_on_c, 0, 58, 0
2, 1922, Control_c, 0, 64, 127
2, 1937, Note_on_c, 0, 73, 0
2, 1949, Note_on_c, 0, 64, 0
2, 1959, Note_on_c, 0, 61, 0
2, 1959, Note_on_c, 0, 75, 56
2, 1961, Note_on_c, 0, 64, 24
2, 1962, Note_on_c, 0, 63, 46
2, 1970, Control_c, 0, 64, 0
2, 1982, Control_c, 0, 64, 127
2, 2007, Note_on_c, 0, 68, 0
2, 2013, Note_on_c, 0, 64, 0
2, 2015, Note_on_c, 0, 70, 0
2, 2019, Note_on_c, 0, 75, 0
2, 2031, Note_on_c, 0, 63, 0
2, 2038, Note_on_c, 0, 73, 31
2, 2038, Note_on_c, 0, 61, 40
2, 2040, Note_on_c, 0, 70, 42
2, 2041, Note_on_c, 0, 68, 37
2, 2043, Note_on_c, 0, 64, 36
2, 2045, Control_c, 0, 64, 0
2, 2057, Control_c, 0, 64, 127
2, 2113, Note_on_c, 0, 64, 0
2, 2115, Note_on_c, 0, 68, 0
2, 2129, Note_on_c, 0, 70, 0
2, 2134, Note_on_c, 0, 73, 0
2, 2139, Note_on_c, 0, 61, 0
2, 2144, Note_on_c, 0, 67, 51
2, 2152, Note_on_c, 0, 64, 24
2, 2173, Note_on_c, 0, 67, 0
2, 2188, Note_on_c, 0, 64, 0
2, 2263, Note_on_c, 0, 61, 48
2, 2267, Note_on_c, 0, 57, 38
2, 2270, Note_on_c, 0, 61, 0
2, 2274, Note_on_c, 0, 51, 33
2, 2274, Note_on_c, 0, 41, 40
2, 2275, Note_on_c, 0, 62, 47
2, 2287, Control_c, 0, 64, 0
2, 2337, Note_on_c, 0, 62, 0
2, 2356, Note_on_c, 0, 61, 46
2, 2361, Control_c, 0, 64, 127
2, 2415, Note_on_c, 0, 61, 0
2, 2434, Note_on_c, 0, 57, 0
2, 2439, Note_on_c, 0, 60, 59
2, 2498, Note_on_c, 0, 41, 0
2, 2505, Note_on_c, 0, 60, 0
2, 2512, Note_on_c, 0, 67, 74
2, 2522, Note_on_c, 0, 51, 0
2, 2586, Note_on_c, 0, 67, 0
2, 2596, Note_on_c, 0, 63, 35
2, 2596, Note_on_c, 0, 56, 35
2, 2600, Note_on_c, 0, 46, 29
2, 2600, Note_on_c, 0, 59, 29
2, 2604, Control_c, 0, 64, 0
2, 2626, Control_c, 0, 64, 127
2, 2645, Note_on_c, 0, 59, 0
2, 2659, Note_on_c, 0, 63, 0
2, 2687, Note_on_c, 0, 74, 66
2, 2705, Note_on_c, 0, 46, 0
2, 2719, Note_on_c, 0, 56, 0
2, 2750, Note_on_c, 0, 74, 0
2, 2782, Note_on_c, 0, 71, 54
2, 2785, Note_on_c, 0, 67, 55
2, 2786, Note_on_c, 0, 62, 33
2, 2790, Note_on_c, 0, 56, 34
2, 2801, Control_c, 0, 64, 0
2, 2809, Control_c, 0, 64, 127
2, 2838, Note_on_c, 0, 62, 0
2, 2845, Note_on_c, 0, 67, 0
2, 2851, Note_on_c, 0, 71, 0
2, 2916, Note_on_c, 0, 77, 69
2, 2960, Note_on_c, 0, 56, 0
2, 3111, Note_on_c, 0, 77, 0
2, 3162, Note_on_c, 0, 79, 49
2, 3167, Note_on_c, 0, 46, 29
2, 3169, Note_on_c, 0, 67, 57
2, 3170, Control_c, 0, 64, 0
2, 3173, Note_on_c, 0, 55, 29
2, 3192, Control_c, 0, 64, 127
2, 3199, Note_on_c, 0, 67, 0
2, 3202, Note_on_c, 0, 46, 0
2, 3206, Note_on_c, 0, 79, 0
2, 3212, Note_on_c, 0, 55, 0
2, 3275, Note_on_c, 0, 82, 64
2, 3285, Note_on_c, 0, 58, 30
2, 3340, Note_on_c, 0, 82, 0
2, 3364, Note_on_c, 0, 79, 52
2, 3366, Note_on_c, 0, 70, 39
2, 3367, Note_on_c, 0, 65, 39
2, 3416, Note_on_c, 0, 79, 0
2, 3439, Note_on_c, 0, 82, 70
2, 3481, Note_on_c, 0, 70, 0
2, 3487, Note_on_c, 0, 82, 0
2, 3490, Note_on_c, 0, 65, 0
2, 3513, Note_on_c, 0, 79, 59
2, 3514, Note_on_c, 0, 70, 39
2, 3574, Note_on_c, 0, 79, 0
2, 3579, Note_on_c, 0, 70, 0
2, 3589, Note_on_c, 0, 82, 67
2, 3635, Note_on_c, 0, 82, 0
2, 3661, Note_on_c, 0, 70, 51
2, 3662, Note_on_c, 0, 65, 37
2, 3662, Note_on_c, 0, 79, 50
2, 3729, Note_on_c, 0, 58, 0
2, 3742, Note_on_c, 0, 79, 0
2, 3761, Note_on_c, 0, 82, 58
2, 3767, Note_on_c, 0, 58, 18
2, 3778, Note_on_c, 0, 65, 0
2, 3833, Note_on_c, 0, 82, 0
2, 3835, Note_on_c, 0, 70, 0
2, 3843, Note_on_c, 0, 58, 0
2, 4012, Note_on_c, 0, 55, 46
2, 4023, Note_on_c, 0, 60, 33
2, 4034, Note_on_c, 0, 69, 53
2, 4039, Note_on_c, 0, 61, 35
2, 4043, Note_on_c, 0, 72, 48
2, 4045, Note_on_c, 0, 65, 44
2, 4055, Note_on_c, 0, 77, 44
2, 4063, Note_on_c, 0, 81, 64
2, 4068, Control_c, 0, 64, 0
2, 4108, Control_c, 0, 64, 127
2, 4147, Note_on_c, 0, 81, 0
2, 4147, Note_on_c, 0, 72, 0
2, 4147, Note_on_c, 0, 69, 0
2, 4157, Note_on_c, 0, 77, 0
2, 4216, Note_on_c, 0, 84, 68
2, 4276, Note_on_c, 0, 84, 0
2, 4285, Note_on_c, 0, 81, 58
2, 4304, Note_on_c, 0, 65, 0
2, 4312, Note_on_c, 0, 60, 0
2, 4313, Note_on_c, 0, 61, 0
2, 4315, Note_on_c, 0, 55, 0
2, 4338, Note_on_c, 0, 84, 60
2, 4341, Note_on_c, 0, 81, 0
2, 4405, Note_on_c, 0, 38, 47
2, 4409, Control_c, 0, 64, 0
2, 4420, Note_on_c, 0, 38, 0
2, 4429, Control_c, 0, 64, 127
2, 4476, Note_on_c, 0, 84, 0
2, 4508, Note_on_c, 0, 81, 43
2, 4511, Note_on_c, 0, 54, 29
2, 4511, Note_on_c, 0, 72, 24
2, 4511, Note_on_c, 0, 65, 37
2, 4512, Note_on_c, 0, 78, 33
2, 4515, Note_on_c, 0, 60, 40
2, 4601, Note_on_c, 0, 58, 1
2, 4624, Note_on_c, 0, 84, 73
2, 4655, Note_on_c, 0, 81, 0
2, 4701, Note_on_c, 0, 84, 0
2, 4707, Note_on_c, 0, 81, 60
2, 4807, Note_on_c, 0, 84, 64
2, 4810, Note_on_c, 0, 81, 0
2, 4892, Note_on_c, 0, 84, 0
2, 4924, Note_on_c, 0, 78, 0
2, 4927, Note_on_c, 0, 72, 0
2, 4941, Note_on_c, 0, 65, 0
2, 4980, Note_on_c, 0, 60, 0
2, 5079, Note_on_c, 0, 74, 75
2, 5080, Note_on_c, 0, 70, 78
2, 5081, Note_on_c, 0, 65, 81
2, 5082, Note_on_c, 0, 62, 73
2, 5095, Note_on_c, 0, 54, 0
2, 5099, Note_on_c, 0, 58, 0
2, 5103, Control_c, 0, 64, 0
2, 5159, Control_c, 0, 64, 127
2, 5161, Note_on_c, 0, 61, 74
2, 5173, Note_on_c, 0, 62, 0
2, 5188, Note_on_c, 0, 65, 0
2, 5205, Note_on_c, 0, 70, 0
2, 5217, Note_on_c, 0, 74, 0
2, 5246, Note_on_c, 0, 61, 0
2, 5246, Note_on_c, 0, 74, 71
2, 5247, Note_on_c, 0, 66, 65
2, 5250, Note_on_c, 0, 63, 46
2, 5251, Note_on_c, 0, 60, 66
2, 5251, Note_on_c, 0, 69, 54
2, 5260, Control_c, 0, 64, 0
2, 5312, Note_on_c, 0, 59, 66
2, 5316, Note_on_c, 0, 60, 0
2, 5336, Control_c, 0, 64, 127
2, 5358, Note_on_c, 0, 58, 60
2, 5362, Note_on_c, 0, 59, 0
2, 5389, Note_on_c, 0, 58, 0
2, 5396, Note_on_c, 0, 57, 58
2, 5412, Note_on_c, 0, 69, 0
2, 5422, Note_on_c, 0, 66, 0
2, 5424, Note_on_c, 0, 63, 0
2, 5429, Note_on_c, 0, 56, 40
2, 5434, Note_on_c, 0, 57, 0
2, 5454, Note_on_c, 0, 56, 0
2, 5455, Note_on_c, 0, 55, 58
2, 5456, Note_on_c, 0, 74, 0
2, 5476, Control_c, 0, 64, 0
2, 5483, Note_on_c, 0, 63, 46
2, 5484, Note_on_c, 0, 66, 42
2, 5486, Note_on_c, 0, 54, 49
2, 5487, Note_on_c, 0, 55, 0
2, 5487, Note_on_c, 0, 74, 34
2, 5490, Note_on_c, 0, 69, 45
2, 5530, Control_c, 0, 64, 127
2, 5575, Note_on_c, 0, 60, 53
2, 5592, Note_on_c, 0, 74, 0
2, 5598, Note_on_c, 0, 63, 0
2, 5628, Note_on_c, 0, 66, 0
2, 5640, Note_on_c, 0, 63, 43
2, 5660, Note_on_c, 0, 69, 0
2, 5690, Note_on_c, 0, 63, 0
2, 5696, Note_on_c, 0, 54, 0
2, 5699, Note_on_c, 0, 66, 56
2, 5701, Note_on_c, 0, 60, 0
2, 5719, Note_on_c, 0, 66, 0
2, 5804, Note_on_c, 0, 72, 54
2, 5804, Note_on_c, 0, 79, 63
2, 5808, Note_on_c, 0, 63, 43
2, 5812, Note_on_c, 0, 53, 35
2, 5815, Control_c, 0, 64, 0
2, 5867, Control_c, 0, 64, 127
2, 5883, Note_on_c, 0, 63, 0
2, 5890, Note_on_c, 0, 60, 39
2, 5901, Note_on_c, 0, 79, 0
2, 5932, Note_on_c, 0, 72, 0
2, 5963, Note_on_c, 0, 72, 40
2, 5963, Note_on_c, 0, 68, 33
2, 5965, Note_on_c, 0, 63, 28
2, 6035, Note_on_c, 0, 63, 0
2, 6037, Note_on_c, 0, 68, 0
2, 6045, Note_on_c, 0, 77, 57
2, 6051, Note_on_c, 0, 60, 0
2, 6060, Note_on_c, 0, 72, 0
2, 6063, Note_on_c, 0, 53, 0
2, 6078, Note_on_c, 0, 77, 0
2, 6142, Note_on_c, 0, 56, 37
2, 6142, Note_on_c, 0, 71, 46
2, 6143, Note_on_c, 0, 62, 47
2, 6143, Note_on_c, 0, 67, 51
2, 6147, Note_on_c, 0, 46, 27
2, 6156, Control_c, 0, 64, 0
2, 6200, Control_c, 0, 64, 127
2, 6248, Note_on_c, 0, 74, 55
2, 6255, Note_on_c, 0, 62, 0
2, 6266, Note_on_c, 0, 71, 0
2, 6269, Note_on_c, 0, 67, 0
2, 6282, Note_on_c, 0, 56, 0
2, 6296, Note_on_c, 0, 74, 0
2, 6353, Note_on_c, 0, 66, 43
2, 6354, Note_on_c, 0, 62, 35
2, 6359, Note_on_c, 0, 56, 26
2, 6377, Control_c, 0, 64, 0
2, 6409, Control_c, 0, 64, 127
2, 6476, Note_on_c, 0, 66, 0
2, 6497, Note_on_c, 0, 65, 34
2, 6621, Note_on_c, 0, 56, 0
2, 6659, Note_on_c, 0, 46, 0
2, 6667, Note_on_c, 0, 65, 0
2, 6674, Note_on_c, 0, 62, 0
2, 6816, Note_on_c, 0, 63, 53
2, 6818, Note_on_c, 0, 45, 53
2, 6828, Control_c, 0, 64, 0
2, 6852, Control_c, 0, 64, 127
2, 6871, Note_on_c, 0, 63, 0
2, 6880, Note_on_c, 0, 55, 53
2, 6910, Note_on_c, 0, 57, 54
2, 6911, Note_on_c, 0, 55, 0
2, 6934, Note_on_c, 0, 57, 0
2, 6936, Note_on_c, 0, 58, 63
2, 6951, Note_on_c, 0, 58, 0
2, 6957, Note_on_c, 0, 60, 66
2, 6980, Note_on_c, 0, 62, 58
2, 6981, Note_on_c, 0, 60, 0
2, 6998, Note_on_c, 0, 63, 68
2, 7000, Note_on_c, 0, 62, 0
2, 7002, Note_on_c, 0, 45, 0
2, 7010, Note_on_c, 0, 63, 0
2, 7019, Note_on_c, 0, 65, 65
2, 7039, Note_on_c, 0, 67, 54
2, 7043, Note_on_c, 0, 65, 0
2, 7057, Note_on_c, 0, 69, 53
2, 7060, Note_on_c, 0, 67, 0
2, 7065, Note_on_c, 0, 69, 0
2, 7066, Note_on_c, 0, 70, 53
2, 7075, Note_on_c, 0, 70, 0
2, 7088, Note_on_c, 0, 72, 55
2, 7096, Note_on_c, 0, 72, 0
2, 7109, Note_on_c, 0, 74, 49
2, 7119, Note_on_c, 0, 74, 0
2, 7133, Note_on_c, 0, 75, 46
2, 7143, Note_on_c, 0, 75, 0
2, 7157, Note_on_c, 0, 77, 33
2, 7179, Note_on_c, 0, 77, 0
2, 7198, Note_on_c, 0, 81, 34
2, 7209, Note_on_c, 0, 81, 0
2, 7214, Note_on_c, 0, 82, 33
2, 7221, Note_on_c, 0, 82, 0
2, 7233, Note_on_c, 0, 84, 59
2, 7241, Note_on_c, 0, 84, 0
2, 7258, Note_on_c, 0, 85, 56
2, 7267, Note_on_c, 0, 85, 0
2, 7275, Note_on_c, 0, 86, 50
2, 7283, Note_on_c, 0, 86, 0
2, 7291, Control_c, 0, 64, 0
2, 7293, Note_on_c, 0, 87, 75
2, 7294, Note_on_c, 0, 38, 34
2, 7298, Note_on_c, 0, 50, 20
2, 7325, Control_c, 0, 64, 127
2, 7333, Note_on_c, 0, 38, 0
2, 7345, Note_on_c, 0, 50, 0
2, 7387, Note_on_c, 0, 87, 0
2, 7389, Note_on_c, 0, 54, 44
2, 7474, Note_on_c, 0, 66, 52
2, 7479, Note_on_c, 0, 60, 29
2, 7570, Note_on_c, 0, 75, 52
2, 7579, Note_on_c, 0, 63, 27
2, 7706, Note_on_c, 0, 63, 0
2, 7710, Note_on_c, 0, 60, 0
2, 7718, Note_on_c, 0, 66, 0
2, 7729, Note_on_c, 0, 75, 0
2, 7730, Note_on_c, 0, 54, 0
2, 7813, Note_on_c, 0, 53, 50
2, 7813, Note_on_c, 0, 74, 66
2, 7813, Note_on_c, 0, 62, 45
2, 7817, Note_on_c, 0, 58, 39
2, 7831, Control_c, 0, 64, 0
2, 7865, Control_c, 0, 64, 127
2, 7889, Note_on_c, 0, 55, 45
2, 7933, Note_on_c, 0, 53, 0
2, 7949, Note_on_c, 0, 74, 0
2, 7950, Note_on_c, 0, 55, 0
2, 7955, Note_on_c, 0, 53, 42
2, 7956, Note_on_c, 0, 70, 64
2, 7973, Control_c, 0, 64, 0
2, 7982, Note_on_c, 0, 58, 0
2, 7995, Note_on_c, 0, 62, 0
2, 8011, Control_c, 0, 64, 127
2, 8024, Note_on_c, 0, 62, 36
2, 8025, Note_on_c, 0, 72, 60
2, 8028, Note_on_c, 0, 58, 30
2, 8039, Note_on_c, 0, 70, 0
2, 8040, Note_on_c, 0, 62, 0
2, 8056, Note_on_c, 0, 53, 0
2, 8080, Note_on_c, 0, 72, 0
2, 8088, Note_on_c, 0, 58, 0
2, 8109, Note_on_c, 0, 74, 54
2, 8114, Note_on_c, 0, 62, 49
2, 8117, Note_on_c, 0, 67, 40
2, 8120, Note_on_c, 0, 52, 35
2, 8122, Control_c, 0, 64, 0
2, 8174, Control_c, 0, 64, 127
2, 8208, Note_on_c, 0, 56, 29
2, 8270, Note_on_c, 0, 56, 0
2, 8272, Note_on_c, 0, 52, 0
2, 8337, Note_on_c, 0, 62, 0
2, 8345, Note_on_c, 0, 33, 62
2, 8349, Note_on_c, 0, 67, 0
2, 8354, Control_c, 0, 64, 0
2, 8368, Note_on_c, 0, 33, 0
2, 8374, Control_c, 0, 64, 127
2, 8434, Note_on_c, 0, 74, 0
2, 8646, Note_on_c, 0, 75, 64
2, 8651, Note_on_c, 0, 67, 60
2, 8651, Note_on_c, 0, 61, 37
2, 8653, Note_on_c, 0, 55, 44
2, 8655, Note_on_c, 0, 51, 33
2, 8670, Note_on_c, 0, 51, 0
2, 8674, Note_on_c, 0, 61, 0
2, 8677, Note_on_c, 0, 55, 0
2, 8718, Note_on_c, 0, 67, 0
2, 8743, Note_on_c, 0, 75, 0
2, 8760, Note_on_c, 0, 72, 46
2, 8760, Note_on_c, 0, 44, 49
2, 8761, Note_on_c, 0, 70, 51
2, 8764, Note_on_c, 0, 65, 49
2, 8765, Note_on_c, 0, 55, 49
2, 8770, Control_c, 0, 64, 0
2, 8818, Control_c, 0, 64, 127
2, 8836, Note_on_c, 0, 51, 60
2, 8840, Note_on_c, 0, 65, 0
2, 8842, Note_on_c, 0, 44, 0
2, 8849, Note_on_c, 0, 72, 0
2, 8852, Note_on_c, 0, 55, 0
2, 8852, Note_on_c, 0, 51, 0
2, 8853, Note_on_c, 0, 70, 0
2, 8912, Note_on_c, 0, 67, 71
2, 8913, Note_on_c, 0, 58, 73
2, 8917, Note_on_c, 0, 72, 52
2, 8969, Note_on_c, 0, 67, 0
2, 8972, Note_on_c, 0, 72, 0
2, 8990, Note_on_c, 0, 75, 78
2, 8990, Note_on_c, 0, 60, 74
2, 9052, Note_on_c, 0, 75, 0
2, 9112, Note_on_c, 0, 60, 0
2, 9130, Note_on_c, 0, 58, 0
2, 9241, Note_on_c, 0, 68, 48
2, 9241, Note_on_c, 0, 84, 81
2, 9243, Note_on_c, 0, 63, 44
2, 9243, Note_on_c, 0, 72, 68
2, 9245, Note_on_c, 0, 60, 56
2, 9261, Control_c, 0, 64, 0
2, 9314, Control_c, 0, 64, 127
2, 9318, Note_on_c, 0, 58, 59
2, 9346, Note_on_c, 0, 84, 0
2, 9379, Note_on_c, 0, 58, 0
2, 9381, Note_on_c, 0, 60, 0
2, 9383, Note_on_c, 0, 72, 0
2, 9388, Note_on_c, 0, 68, 0
2, 9391, Note_on_c, 0, 63, 0
2, 9403, Note_on_c, 0, 67, 60
2, 9405, Note_on_c, 0, 56, 45
2, 9408, Note_on_c, 0, 62, 51
2, 9503, Note_on_c, 0, 75, 63
2, 9524, Note_on_c, 0, 67, 0
2, 9546, Note_on_c, 0, 62, 0
2, 9555, Note_on_c, 0, 56, 0
2, 9565, Note_on_c, 0, 75, 0
2, 9579, Note_on_c, 0, 62, 14
2, 9583, Note_on_c, 0, 74, 66
2, 9584, Note_on_c, 0, 58, 46
2, 9585, Note_on_c, 0, 65, 30
2, 9585, Note_on_c, 0, 55, 33
2, 9588, Note_on_c, 0, 70, 37
2, 9588, Control_c, 0, 64, 0
2, 9631, Control_c, 0, 64, 127
2, 9641, Note_on_c, 0, 70, 0
2, 9662, Note_on_c, 0, 70, 53
2, 9664, Note_on_c, 0, 74, 0
2, 9664, Note_on_c, 0, 65, 0
2, 9680, Note_on_c, 0, 70, 0
2, 9685, Note_on_c, 0, 62, 0
2, 9725, Note_on_c, 0, 65, 71
2, 9729, Note_on_c, 0, 58, 0
2, 9734, Note_on_c, 0, 55, 0
2, 9765, Note_on_c, 0, 65, 0
2, 9774, Note_on_c, 0, 62, 51
2, 9816, Note_on_c, 0, 62, 0
2, 9825, Note_on_c, 0, 63, 42
2, 9827, Note_on_c, 0, 48, 38
2, 9834, Note_on_c, 0, 58, 20
2, 9841, Control_c, 0, 64, 0
2, 9869, Note_on_c, 0, 63, 0
2, 9873, Note_on_c, 0, 64, 50
2, 9922, Note_on_c, 0, 64, 0
2, 9924, Note_on_c, 0, 65, 48
2, 9954, Note_on_c, 0, 65, 0
2, 9974, Note_on_c, 0, 66, 44
2, 10028, Note_on_c, 0, 66, 0
2, 10033, Control_c, 0, 64, 127
2, 10034, Note_on_c, 0, 67, 32
2, 10085, Note_on_c, 0, 58, 0
2, 10093, Note_on_c, 0, 61, 46
2, 10107, Note_on_c, 0, 67, 0
2, 10154, Note_on_c, 0, 48, 0
2, 10160, Note_on_c, 0, 61, 0
2, 10165, Note_on_c, 0, 60, 36
2, 10220, Note_on_c, 0, 60, 0
2, 10234, Note_on_c, 0, 58, 31
2, 10298, Note_on_c, 0, 58, 0
2, 10315, Note_on_c, 0, 56, 23
2, 10315, Note_on_c, 0, 60, 47
2, 10318, Note_on_c, 0, 44, 33
2, 10326, Control_c, 0, 64, 0
2, 10369, Control_c, 0, 64, 127
2, 10371, Note_on_c, 0, 56, 0
2, 10373, Note_on_c, 0, 60, 0
2, 10375, Note_on_c, 0, 51, 32
2, 10377, Note_on_c, 0, 62, 58
2, 10379, Note_on_c, 0, 58, 46
2, 10410, Note_on_c, 0, 62, 0
2, 10421, Note_on_c, 0, 58, 0
2, 10435, Note_on_c, 0, 58, 25
2, 10436, Note_on_c, 0, 62, 62
2, 10440, Note_on_c, 0, 55, 29
2, 10454, Note_on_c, 0, 58, 0
2, 10456, Note_on_c, 0, 62, 0
2, 10481, Note_on_c, 0, 55, 0
2, 10490, Note_on_c, 0, 63, 62
2, 10494, Note_on_c, 0, 51, 0
2, 10494, Note_on_c, 0, 60, 46
2, 10500, Note_on_c, 0, 44, 0
2, 10525, Note_on_c, 0, 60, 0
2, 10525, Note_on_c, 0, 63, 0
2, 10554, Note_on_c, 0, 63, 59
2, 10557, Note_on_c, 0, 59, 50
2, 10559, Note_on_c, 0, 37, 51
2, 10563, Control_c, 0, 64, 0
2, 10604, Note_on_c, 0, 59, 0
2, 10612, Note_on_c, 0, 63, 0
2, 10613, Note_on_c, 0, 37, 0
2, 10613, Note_on_c, 0, 44, 44
2, 10615, Control_c, 0, 64, 127
2, 10617, Note_on_c, 0, 65, 63
2, 10650, Note_on_c, 0, 65, 0
2, 10687, Note_on_c, 0, 65, 60
2, 10688, Note_on_c, 0, 53, 39
2, 10691, Note_on_c, 0, 59, 49
2, 10695, Note_on_c, 0, 44, 0
2, 10746, Note_on_c, 0, 65, 0
2, 10759, Note_on_c, 0, 59, 0
2, 10761, Note_on_c, 0, 67, 64
2, 10774, Note_on_c, 0, 53, 0
2, 10794, Note_on_c, 0, 67, 0
2, 10843, Note_on_c, 0, 39, 44
2, 10844, Note_on_c, 0, 62, 61
2, 10844, Note_on_c, 0, 67, 62
2, 10847, Note_on_c, 0, 55, 55
2, 10856, Control_c, 0, 64, 0
2, 10883, Note_on_c, 0, 55, 0
2, 10886, Note_on_c, 0, 67, 0
2, 10888, Control_c, 0, 64, 127
2, 10906, Note_on_c, 0, 62, 0
2, 10909, Note_on_c, 0, 46, 39
2, 10910, Note_on_c, 0, 39, 0
2, 10913, Note_on_c, 0, 68, 67
2, 10933, Note_on_c, 0, 44, 10
2, 10946, Note_on_c, 0, 68, 0
2, 10947, Note_on_c, 0, 44, 0
2, 10970, Note_on_c, 0, 68, 58
2, 10975, Note_on_c, 0, 55, 53
2, 10975, Note_on_c, 0, 56, 46
2, 10977, Note_on_c, 0, 63, 49
2, 11002, Note_on_c, 0, 56, 0
2, 11003, Note_on_c, 0, 68, 0
2, 11008, Note_on_c, 0, 55, 0
2, 11015, Note_on_c, 0, 46, 0
2, 11016, Note_on_c, 0, 63, 0
2, 11031, Note_on_c, 0, 70, 73
2, 11066, Note_on_c, 0, 70, 0
2, 11095, Note_on_c, 0, 70, 64
2, 11096, Note_on_c, 0, 48, 48
2, 11098, Note_on_c, 0, 64, 67
2, 11100, Note_on_c, 0, 58, 39
2, 11103, Control_c, 0, 64, 0
2, 11139, Control_c, 0, 64, 127
2, 11144, Note_on_c, 0, 70, 0
2, 11147, Note_on_c, 0, 64, 0
2, 11159, Note_on_c, 0, 58, 0
2, 11165, Note_on_c, 0, 55, 47
2, 11165, Note_on_c, 0, 72, 64
2, 11196, Note_on_c, 0, 72, 0
2, 11233, Note_on_c, 0, 55, 0
2, 11234, Note_on_c, 0, 48, 0
2, 11237, Note_on_c, 0, 72, 58
2, 11240, Note_on_c, 0, 68, 48
2, 11241, Note_on_c, 0, 58, 33
2, 11243, Note_on_c, 0, 64, 49
2, 11259, Note_on_c, 0, 72, 0
2, 11260, Note_on_c, 0, 58, 0
2, 11287, Note_on_c, 0, 68, 0
2, 11294, Note_on_c, 0, 64, 0
2, 11315, Note_on_c, 0, 60, 36
2, 11315, Note_on_c, 0, 73, 50
2, 11325, Note_on_c, 0, 60, 0
2, 11367, Note_on_c, 0, 73, 0
2, 11388, Note_on_c, 0, 73, 33
2, 11393, Note_on_c, 0, 65, 39
2, 11395, Note_on_c, 0, 53, 32
2, 11396, Note_on_c, 0, 63, 31
2, 11399, Control_c, 0, 64, 0
2, 11442, Control_c, 0, 64, 127
2, 11453, Note_on_c, 0, 65, 0
2, 11454, Note_on_c, 0, 73, 0
2, 11460, Note_on_c, 0, 63, 0
2, 11462, Note_on_c, 0, 74, 54
2, 11474, Note_on_c, 0, 60, 28
2, 11504, Note_on_c, 0, 74, 0
2, 11530, Note_on_c, 0, 74, 53
2, 11533, Note_on_c, 0, 63, 39
2, 11535, Note_on_c, 0, 69, 58
2, 11535, Note_on_c, 0, 65, 48
2, 11550, Note_on_c, 0, 60, 0
2, 11557, Note_on_c, 0, 74, 0
2, 11585, Note_on_c, 0, 65, 0
2, 11589, Note_on_c, 0, 53, 0
2, 11595, Note_on_c, 0, 69, 0
2, 11596, Note_on_c, 0, 75, 72
2, 11597, Note_on_c, 0, 60, 38
2, 11599, Note_on_c, 0, 63, 0
2, 11605, Note_on_c, 0, 60, 0
2, 11644, Note_on_c, 0, 75, 0
2, 11663, Note_on_c, 0, 75, 59
2, 11665, Note_on_c, 0, 72, 66
2, 11669, Note_on_c, 0, 68, 46
2, 11673, Note_on_c, 0, 60, 44
2, 11673, Note_on_c, 0, 63, 46
2, 11676, Control_c, 0, 64, 0
2, 11708, Control_c, 0, 64, 127
2, 11715, Note_on_c, 0, 75, 0
2, 11720, Note_on_c, 0, 72, 0
2, 11732, Note_on_c, 0, 58, 55
2, 11734, Note_on_c, 0, 77, 66
2, 11772, Note_on_c, 0, 58, 0
2, 11774, Note_on_c, 0, 77, 0
2, 11776, Note_on_c, 0, 68, 0
2, 11778, Note_on_c, 0, 60, 0
2, 11789, Note_on_c, 0, 63, 0
2, 11809, Note_on_c, 0, 77, 53
2, 11813, Note_on_c, 0, 67, 43
2, 11814, Note_on_c, 0, 56, 35
2, 11815, Note_on_c, 0, 62, 38
2, 11815, Note_on_c, 0, 71, 65
2, 11821, Control_c, 0, 64, 0
2, 11843, Control_c, 0, 64, 127
2, 11858, Note_on_c, 0, 77, 0
2, 11879, Note_on_c, 0, 71, 0
2, 11889, Note_on_c, 0, 79, 64
2, 11893, Note_on_c, 0, 67, 0
2, 11927, Note_on_c, 0, 79, 0
2, 11929, Note_on_c, 0, 56, 0
2, 11930, Note_on_c, 0, 62, 0
2, 11962, Note_on_c, 0, 79, 48
2, 11965, Note_on_c, 0, 74, 60
2, 11966, Note_on_c, 0, 67, 50
2, 11966, Note_on_c, 0, 65, 36
2, 11967, Note_on_c, 0, 62, 30
2, 11969, Note_on_c, 0, 60, 34
2, 11969, Note_on_c, 0, 55, 29
2, 11971, Control_c, 0, 64, 0
2, 11993, Control_c, 0, 64, 127
2, 12002, Note_on_c, 0, 67, 0
2, 12002, Note_on_c, 0, 79, 0
2, 12022, Note_on_c, 0, 74, 0
2, 12030, Note_on_c, 0, 80, 72
2, 12038, Note_on_c, 0, 65, 0
2, 12046, Note_on_c, 0, 60, 0
2, 12052, Note_on_c, 0, 62, 0
2, 12063, Note_on_c, 0, 80, 0
2, 12087, Note_on_c, 0, 80, 64
2, 12094, Note_on_c, 0, 68, 57
2, 12094, Note_on_c, 0, 65, 43
2, 12095, Note_on_c, 0, 62, 38
2, 12098, Note_on_c, 0, 60, 34
2, 12117, Note_on_c, 0, 68, 0
2, 12126, Note_on_c, 0, 80, 0
2, 12138, Note_on_c, 0, 55, 0
2, 12145, Note_on_c, 0, 60, 0
2, 12147, Note_on_c, 0, 62, 0
2, 12154, Note_on_c, 0, 65, 0
2, 12156, Note_on_c, 0, 82, 69
2, 12164, Note_on_c, 0, 70, 43
2, 12186, Note_on_c, 0, 70, 0
2, 12193, Note_on_c, 0, 82, 0
2, 12228, Note_on_c, 0, 82, 52
2, 12230, Note_on_c, 0, 75, 48
2, 12231, Note_on_c, 0, 60, 43
2, 12231, Note_on_c, 0, 68, 32
2, 12231, Note_on_c, 0, 63, 36
2, 12232, Note_on_c, 0, 70, 36
2, 12236, Control_c, 0, 64, 0
2, 12256, Control_c, 0, 64, 127
2, 12279, Note_on_c, 0, 75, 0
2, 12284, Note_on_c, 0, 70, 0
2, 12285, Note_on_c, 0, 82, 0
2, 12305, Note_on_c, 0, 83, 57
2, 12309, Note_on_c, 0, 71, 58
2, 12312, Note_on_c, 0, 68, 0
2, 12331, Note_on_c, 0, 60, 0
2, 12346, Note_on_c, 0, 63, 0
2, 12352, Note_on_c, 0, 83, 0
2, 12355, Note_on_c, 0, 71, 0
2, 12390, Note_on_c, 0, 83, 47
2, 12393, Note_on_c, 0, 71, 54
2, 12395, Note_on_c, 0, 56, 34
2, 12396, Note_on_c, 0, 67, 36
2, 12400, Note_on_c, 0, 62, 36
2, 12411, Note_on_c, 0, 71, 0
2, 12416, Note_on_c, 0, 83, 0
2, 12440, Note_on_c, 0, 67, 0
2, 12449, Note_on_c, 0, 56, 0
2, 12455, Note_on_c, 0, 62, 0
2, 12486, Note_on_c, 0, 85, 62
2, 12489, Note_on_c, 0, 73, 36
2, 12558, Note_on_c, 0, 85, 0
2, 12559, Note_on_c, 0, 73, 0
2, 12573, Note_on_c, 0, 45, 46
2, 12573, Note_on_c, 0, 33, 44
2, 12575, Note_on_c, 0, 86, 74
2, 12577, Control_c, 0, 64, 0
2, 12577, Note_on_c, 0, 74, 61
2, 12592, Note_on_c, 0, 33, 0
2, 12599, Control_c, 0, 64, 127
2, 12606, Note_on_c, 0, 45, 0
2, 12615, Note_on_c, 0, 86, 0
2, 12621, Note_on_c, 0, 74, 0
2, 12653, Note_on_c, 0, 87, 77
2, 12654, Note_on_c, 0, 75, 69
2, 12702, Note_on_c, 0, 87, 0
2, 12708, Note_on_c, 0, 75, 0
2, 12726, Note_on_c, 0, 65, 51
2, 12727, Note_on_c, 0, 61, 43
2, 12728, Note_on_c, 0, 60, 45
2, 12729, Note_on_c, 0, 87, 64
2, 12730, Note_on_c, 0, 75, 62
2, 12731, Note_on_c, 0, 55, 44
2, 12787, Note_on_c, 0, 75, 0
2, 12788, Note_on_c, 0, 87, 0
2, 12807, Note_on_c, 0, 89, 71
2, 12808, Note_on_c, 0, 77, 68
2, 12825, Note_on_c, 0, 60, 0
2, 12829, Note_on_c, 0, 55, 0
2, 12832, Note_on_c, 0, 65, 0
2, 12843, Note_on_c, 0, 61, 0
2, 12865, Note_on_c, 0, 89, 0
2, 12872, Note_on_c, 0, 77, 0
2, 12886, Note_on_c, 0, 54, 46
2, 12888, Note_on_c, 0, 64, 52
2, 12889, Note_on_c, 0, 89, 43
2, 12891, Note_on_c, 0, 77, 49
2, 12891, Note_on_c, 0, 60, 57
2, 12894, Control_c, 0, 64, 0
2, 12918, Control_c, 0, 64, 127
2, 12956, Note_on_c, 0, 89, 0
2, 12958, Note_on_c, 0, 77, 0
2, 12966, Note_on_c, 0, 60, 0
2, 12968, Note_on_c, 0, 64, 0
2, 12978, Note_on_c, 0, 91, 55
2, 12979, Note_on_c, 0, 54, 0
2, 12980, Note_on_c, 0, 79, 36
2, 13005, Note_on_c, 0, 91, 0
2, 13014, Note_on_c, 0, 79, 0
2, 13078, Note_on_c, 0, 87, 53
2, 13079, Note_on_c, 0, 50, 45
2, 13080, Note_on_c, 0, 75, 36
2, 13081, Note_on_c, 0, 60, 35
2, 13092, Control_c, 0, 64, 0
2, 13120, Control_c, 0, 64, 127
2, 13179, Note_on_c, 0, 87, 0
2, 13197, Note_on_c, 0, 86, 74
2, 13198, Note_on_c, 0, 50, 0
2, 13204, Note_on_c, 0, 60, 0
2, 13232, Note_on_c, 0, 86, 0
2, 13234, Note_on_c, 0, 75, 0
2, 13245, Note_on_c, 0, 84, 52
2, 13277, Note_on_c, 0, 84, 0
2, 13292, Note_on_c, 0, 43, 50
2, 13293, Note_on_c, 0, 86, 68
2, 13297, Control_c, 0, 64, 0
2, 13317, Note_on_c, 0, 43, 0
2, 13317, Control_c, 0, 64, 127
2, 13382, Note_on_c, 0, 62, 44
2, 13383, Note_on_c, 0, 58, 48
2, 13414, Note_on_c, 0, 86, 0
2, 13457, Note_on_c, 0, 82, 64
2, 13461, Note_on_c, 0, 74, 53
2, 13463, Note_on_c, 0, 79, 44
2, 13518, Note_on_c, 0, 79, 0
2, 13521, Note_on_c, 0, 82, 0
2, 13527, Note_on_c, 0, 74, 0
2, 13532, Note_on_c, 0, 84, 74
2, 13535, Note_on_c, 0, 82, 51
2, 13540, Note_on_c, 0, 62, 0
2, 13543, Note_on_c, 0, 58, 0
2, 13563, Note_on_c, 0, 84, 0
2, 13580, Note_on_c, 0, 82, 0
2, 13612, Note_on_c, 0, 86, 80
2, 13689, Note_on_c, 0, 65, 44
2, 13689, Note_on_c, 0, 61, 32
2, 13691, Note_on_c, 0, 60, 47
2, 13782, Note_on_c, 0, 75, 56
2, 13793, Note_on_c, 0, 60, 0
2, 13811, Note_on_c, 0, 65, 0
2, 13839, Note_on_c, 0, 61, 0
2, 13870, Note_on_c, 0, 75, 0
2, 13873, Note_on_c, 0, 55, 47
2, 13877, Note_on_c, 0, 61, 25
2, 13909, Note_on_c, 0, 61, 0
2, 13910, Note_on_c, 0, 55, 0
2, 13913, Note_on_c, 0, 86, 0
2, 14096, Note_on_c, 0, 44, 42
2, 14097, Note_on_c, 0, 51, 46
2, 14098, Note_on_c, 0, 63, 37
2, 14100, Note_on_c, 0, 60, 45
2, 14101, Note_on_c, 0, 58, 45
2, 14115, Control_c, 0, 64, 0
2, 14127, Note_on_c, 0, 55, 1
2, 14158, Note_on_c, 0, 63, 0
2, 14160, Note_on_c, 0, 51, 0
2, 14163, Note_on_c, 0, 62, 68
2, 14167, Note_on_c, 0, 50, 47
2, 14179, Control_c, 0, 64, 127
2, 14191, Note_on_c, 0, 60, 0
2, 14197, Note_on_c, 0, 55, 0
2, 14207, Control_c, 0, 64, 0
2, 14212, Note_on_c, 0, 58, 0
2, 14212, Note_on_c, 0, 62, 0
2, 14217, Note_on_c, 0, 50, 0
2, 14225, Note_on_c, 0, 51, 46
2, 14225, Note_on_c, 0, 63, 59
2, 14225, Note_on_c, 0, 58, 48
2, 14227, Note_on_c, 0, 55, 60
2, 14233, Note_on_c, 0, 55, 0
2, 14239, Control_c, 0, 64, 127
2, 14244, Note_on_c, 0, 58, 0
2, 14246, Note_on_c, 0, 63, 0
2, 14297, Note_on_c, 0, 70, 56
2, 14298, Note_on_c, 0, 55, 55
2, 14298, Note_on_c, 0, 63, 55
2, 14302, Note_on_c, 0, 60, 60
2, 14302, Note_on_c, 0, 67, 53
2, 14304, Control_c, 0, 64, 0
2, 14305, Note_on_c, 0, 44, 0
2, 14311, Note_on_c, 0, 51, 0
2, 14314, Control_c, 0, 64, 127
2, 14318, Note_on_c, 0, 60, 0
2, 14324, Note_on_c, 0, 63, 0
2, 14324, Note_on_c, 0, 55, 0
2, 14325, Note_on_c, 0, 67, 0
2, 14334, Note_on_c, 0, 70, 0
2, 14387, Note_on_c, 0, 74, 70
2, 14389, Note_on_c, 0, 67, 68
2, 14390, Note_on_c, 0, 62, 70
2, 14390, Note_on_c, 0, 64, 68
2, 14391, Note_on_c, 0, 69, 62
2, 14398, Control_c, 0, 64, 0
2, 14462, Control_c, 0, 64, 127
2, 14469, Note_on_c, 0, 50, 48
2, 14473, Note_on_c, 0, 62, 0
2, 14473, Note_on_c, 0, 74, 0
2, 14477, Note_on_c, 0, 67, 0
2, 14477, Note_on_c, 0, 69, 0
2, 14499, Note_on_c, 0, 64, 0
2, 14555, Note_on_c, 0, 66, 42
2, 14556, Note_on_c, 0, 68, 36
2, 14556, Note_on_c, 0, 60, 49
2, 14557, Note_on_c, 0, 63, 39
2, 14558, Note_on_c, 0, 54, 42
2, 14570, Control_c, 0, 64, 0
2, 14616, Control_c, 0, 64, 127
2, 14632, Note_on_c, 0, 60, 0
2, 14644, Note_on_c, 0, 69, 67
2, 14645, Note_on_c, 0, 68, 0
2, 14648, Note_on_c, 0, 57, 44
2, 14649, Note_on_c, 0, 54, 0
2, 14650, Note_on_c, 0, 60, 48
2, 14692, Note_on_c, 0, 69, 0
2, 14696, Note_on_c, 0, 57, 0
2, 14696, Note_on_c, 0, 60, 0
2, 14711, Note_on_c, 0, 50, 0
2, 14719, Note_on_c, 0, 63, 0
2, 14721, Note_on_c, 0, 66, 0
2, 14819, Note_on_c, 0, 70, 70
2, 14823, Note_on_c, 0, 43, 35
2, 14825, Note_on_c, 0, 67, 60
2, 14830, Note_on_c, 0, 63, 51
2, 14834, Note_on_c, 0, 53, 40
2, 14835, Control_c, 0, 64, 0
2, 14853, Note_on_c, 0, 59, 12
2, 14911, Control_c, 0, 64, 127
2, 14912, Note_on_c, 0, 67, 0
2, 14915, Note_on_c, 0, 70, 0
2, 14927, Note_on_c, 0, 68, 60
2, 14978, Note_on_c, 0, 68, 0
2, 15006, Note_on_c, 0, 67, 58
2, 15017, Note_on_c, 0, 53, 0
2, 15027, Note_on_c, 0, 43, 0
2, 15061, Note_on_c, 0, 59, 0
2, 15078, Note_on_c, 0, 65, 55
2, 15100, Note_on_c, 0, 67, 0
2, 15110, Note_on_c, 0, 65, 0
2, 15116, Note_on_c, 0, 63, 0
2, 15237, Note_on_c, 0, 24, 40
2, 15240, Note_on_c, 0, 64, 40
2, 15241, Note_on_c, 0, 61, 30
2, 15242, Note_on_c, 0, 58, 27
2, 15242, Note_on_c, 0, 36, 30
2, 15248, Control_c, 0, 64, 0
2, 15274, Control_c, 0, 64, 127
2, 15300, Note_on_c, 0, 58, 0
2, 15303, Note_on_c, 0, 24, 0
2, 15317, Note_on_c, 0, 64, 0
2, 15317, Note_on_c, 0, 36, 0
2, 15319, Note_on_c, 0, 61, 0
2, 15396, Note_on_c, 0, 70, 67
2, 15397, Note_on_c, 0, 75, 62
2, 15398, Note_on_c, 0, 67, 64
2, 15399, Note_on_c, 0, 64, 59
2, 15402, Note_on_c, 0, 63, 59
2, 15488, Note_on_c, 0, 67, 0
2, 15490, Note_on_c, 0, 64, 0
2, 15494, Note_on_c, 0, 70, 0
2, 15499, Note_on_c, 0, 75, 0
2, 15510, Note_on_c, 0, 70, 47
2, 15510, Note_on_c, 0, 73, 38
2, 15514, Note_on_c, 0, 61, 53
2, 15514, Note_on_c, 0, 64, 43
2, 15515, Note_on_c, 0, 63, 0
2, 15516, Note_on_c, 0, 67, 40
2, 15525, Control_c, 0, 64, 0
2, 15535, Control_c, 0, 64, 127
2, 15567, Note_on_c, 0, 67, 0
2, 15570, Note_on_c, 0, 73, 0
2, 15584, Note_on_c, 0, 64, 0
2, 15592, Note_on_c, 0, 70, 0
2, 15715, Note_on_c, 0, 72, 53
2, 15721, Note_on_c, 0, 61, 0
2, 15758, Note_on_c, 0, 70, 53
2, 15763, Note_on_c, 0, 72, 0
2, 15792, Note_on_c, 0, 70, 0
2, 15801, Note_on_c, 0, 44, 42
2, 15803, Note_on_c, 0, 72, 48
2, 15812, Control_c, 0, 64, 0
2, 15846, Control_c, 0, 64, 127
2, 15881, Note_on_c, 0, 51, 36
2, 15907, Note_on_c, 0, 72, 0
2, 16044, Note_on_c, 0, 60, 55
2, 16070, Note_on_c, 0, 60, 0
2, 16117, Note_on_c, 0, 60, 70
2, 16121, Note_on_c, 0, 55, 40
2, 16123, Control_c, 0, 64, 0
2, 16151, Control_c, 0, 64, 127
2, 16173, Note_on_c, 0, 60, 0
2, 16222, Note_on_c, 0, 55, 0
2, 16222, Note_on_c, 0, 44, 0
2, 16225, Note_on_c, 0, 68, 64
2, 16233, Note_on_c, 0, 51, 0
2, 16254, Note_on_c, 0, 68, 0
2, 16268, Note_on_c, 0, 67, 25
2, 16279, Note_on_c, 0, 67, 0
2, 16298, Note_on_c, 0, 49, 40
2, 16299, Note_on_c, 0, 68, 58
2, 16309, Control_c, 0, 64, 0
2, 16355, Control_c, 0, 64, 127
2, 16410, Note_on_c, 0, 68, 0
2, 16410, Note_on_c, 0, 65, 46
2, 16421, Note_on_c, 0, 56, 25
2, 16503, Note_on_c, 0, 56, 0
2, 16505, Note_on_c, 0, 65, 0
2, 16535, Note_on_c, 0, 63, 37
2, 16536, Note_on_c, 0, 59, 36
2, 16541, Note_on_c, 0, 56, 20
2, 16618, Note_on_c, 0, 49, 0
2, 16655, Note_on_c, 0, 49, 34
2, 16671, Note_on_c, 0, 56, 0
2, 16684, Note_on_c, 0, 59, 0
2, 16690, Note_on_c, 0, 49, 0
2, 16762, Note_on_c, 0, 63, 0
2, 16851, Note_on_c, 0, 39, 43
2, 16851, Note_on_c, 0, 62, 41
2, 16855, Note_on_c, 0, 46, 27
2, 16855, Note_on_c, 0, 58, 19
2, 16857, Control_c, 0, 64, 0
2, 16903, Control_c, 0, 64, 127
2, 16908, Note_on_c, 0, 39, 0
2, 16940, Note_on_c, 0, 62, 0
2, 16951, Note_on_c, 0, 58, 0
2, 16958, Note_on_c, 0, 58, 27
2, 16959, Note_on_c, 0, 55, 56
2, 16959, Note_on_c, 0, 67, 65
2, 16962, Note_on_c, 0, 62, 62
2, 16966, Note_on_c, 0, 46, 0
2, 16984, Note_on_c, 0, 67, 0
2, 16984, Note_on_c, 0, 55, 0
2, 16986, Note_on_c, 0, 62, 0
2, 16998, Note_on_c, 0, 58, 0
2, 17055, Note_on_c, 0, 63, 60
2, 17059, Note_on_c, 0, 58, 47
2, 17060, Note_on_c, 0, 55, 44
2, 17062, Note_on_c, 0, 48, 43
2, 17067, Control_c, 0, 64, 0
2, 17089, Control_c, 0, 64, 127
2, 17117, Note_on_c, 0, 55, 0
2, 17124, Note_on_c, 0, 58, 0
2, 17134, Note_on_c, 0, 63, 0
2, 17305, Note_on_c, 0, 65, 54
2, 17307, Note_on_c, 0, 62, 54
2, 17308, Note_on_c, 0, 59, 59
2, 17309, Note_on_c, 0, 48, 0
2, 17310, Control_c, 0, 64, 0
2, 17311, Note_on_c, 0, 56, 27
2, 17312, Note_on_c, 0, 50, 34
2, 17334, Control_c, 0, 64, 127
2, 17337, Note_on_c, 0, 65, 0
2, 17344, Note_on_c, 0, 59, 0
2, 17344, Note_on_c, 0, 62, 0
2, 17349, Note_on_c, 0, 56, 0
2, 17383, Note_on_c, 0, 50, 0
2, 17402, Note_on_c, 0, 67, 56
2, 17403, Note_on_c, 0, 61, 50
2, 17405, Note_on_c, 0, 58, 38
2, 17405, Note_on_c, 0, 64, 49
2, 17406, Note_on_c, 0, 52, 36
2, 17412, Control_c, 0, 64, 0
2, 17438, Control_c, 0, 64, 127
2, 17471, Note_on_c, 0, 58, 0
2, 17473, Note_on_c, 0, 67, 0
2, 17481, Note_on_c, 0, 64, 0
2, 17484, Note_on_c, 0, 61, 0
2, 17551, Note_on_c, 0, 68, 51
2, 17552, Note_on_c, 0, 58, 46
2, 17554, Note_on_c, 0, 60, 51
2, 17554, Note_on_c, 0, 64, 55
2, 17558, Note_on_c, 0, 55, 35
2, 17561, Control_c, 0, 64, 0
2, 17563, Note_on_c, 0, 52, 0
2, 17587, Control_c, 0, 64, 127
2, 17591, Note_on_c, 0, 55, 0
2, 17598, Note_on_c, 0, 64, 0
2, 17602, Note_on_c, 0, 68, 0
2, 17604, Note_on_c, 0, 60, 0
2, 17642, Note_on_c, 0, 58, 0
2, 17659, Note_on_c, 0, 62, 51
2, 17659, Note_on_c, 0, 65, 53
2, 17661, Note_on_c, 0, 57, 44
2, 17663, Note_on_c, 0, 41, 39
2, 17664, Note_on_c, 0, 51, 33
2, 17671, Control_c, 0, 64, 0
2, 17722, Note_on_c, 0, 62, 0
2, 17745, Note_on_c, 0, 61, 56
2, 17779, Control_c, 0, 64, 127
2, 17805, Note_on_c, 0, 57, 0
2, 17807, Note_on_c, 0, 61, 0
2, 17811, Note_on_c, 0, 51, 0
2, 17822, Note_on_c, 0, 65, 0
2, 17827, Note_on_c, 0, 62, 52
2, 17829, Note_on_c, 0, 51, 32
2, 17830, Note_on_c, 0, 57, 40
2, 17835, Control_c, 0, 64, 0
2, 17882, Control_c, 0, 64, 127
2, 17900, Note_on_c, 0, 63, 62
2, 17904, Note_on_c, 0, 41, 0
2, 17908, Note_on_c, 0, 57, 0
2, 17926, Note_on_c, 0, 62, 0
2, 17926, Note_on_c, 0, 51, 0
2, 17955, Note_on_c, 0, 63, 0
2, 17980, Note_on_c, 0, 65, 54
2, 17983, Note_on_c, 0, 63, 37
2, 17983, Note_on_c, 0, 60, 39
2, 17987, Note_on_c, 0, 56, 31
2, 17989, Note_on_c, 0, 46, 25
2, 17990, Control_c, 0, 64, 0
2, 18038, Control_c, 0, 64, 127
2, 18051, Note_on_c, 0, 46, 0
2, 18068, Note_on_c, 0, 46, 49
2, 18092, Note_on_c, 0, 56, 0
2, 18098, Note_on_c, 0, 60, 0
2, 18120, Note_on_c, 0, 63, 0
2, 18134, Note_on_c, 0, 65, 0
2, 18161, Note_on_c, 0, 67, 46
2, 18161, Note_on_c, 0, 62, 42
2, 18161, Note_on_c, 0, 59, 43
2, 18164, Note_on_c, 0, 64, 33
2, 18166, Note_on_c, 0, 56, 23
2, 18177, Control_c, 0, 64, 0
2, 18213, Control_c, 0, 64, 127
2, 18245, Note_on_c, 0, 46, 0
2, 18270, Note_on_c, 0, 46, 37
2, 18359, Note_on_c, 0, 64, 0
2, 18368, Note_on_c, 0, 62, 0
2, 18390, Note_on_c, 0, 59, 0
2, 18411, Note_on_c, 0, 56, 0
2, 18424, Note_on_c, 0, 46, 0
2, 18457, Note_on_c, 0, 46, 49
2, 18593, Note_on_c, 0, 67, 0
2, 18600, Note_on_c, 0, 46, 0
2, 18638, Note_on_c, 0, 63, 38
2, 18641, Note_on_c, 0, 55, 41
2, 18642, Note_on_c, 0, 45, 46
2, 18642, Note_on_c, 0, 60, 51
2, 18652, Control_c, 0, 64, 0
2, 18673, Note_on_c, 0, 55, 0
2, 18676, Control_c, 0, 64, 127
2, 18681, Note_on_c, 0, 60, 0
2, 18690, Note_on_c, 0, 63, 0
2, 18707, Note_on_c, 0, 63, 49
2, 18707, Note_on_c, 0, 54, 52
2, 18708, Control_c, 0, 64, 0
2, 18710, Note_on_c, 0, 45, 0
2, 18711, Note_on_c, 0, 44, 44
2, 18712, Note_on_c, 0, 59, 48
2, 18750, Control_c, 0, 64, 127
2, 18758, Note_on_c, 0, 59, 0
2, 18769, Note_on_c, 0, 54, 0
2, 18775, Note_on_c, 0, 44, 0
2, 18781, Note_on_c, 0, 53, 52
2, 18781, Note_on_c, 0, 43, 35
2, 18782, Control_c, 0, 64, 0
2, 18784, Note_on_c, 0, 58, 56
2, 18814, Control_c, 0, 64, 127
2, 18839, Note_on_c, 0, 63, 0
2, 18841, Note_on_c, 0, 53, 0
2, 18841, Note_on_c, 0, 58, 0
2, 18848, Note_on_c, 0, 43, 0
2, 18858, Control_c, 0, 64, 0
2, 18861, Note_on_c, 0, 42, 35
2, 18863, Note_on_c, 0, 63, 25
2, 18864, Note_on_c, 0, 57, 55
2, 18867, Note_on_c, 0, 52, 38
2, 18890, Control_c, 0, 64, 127
2, 18905, Note_on_c, 0, 52, 0
2, 18908, Note_on_c, 0, 57, 0
2, 18922, Note_on_c, 0, 63, 0
2, 18943, Note_on_c, 0, 42, 0
2, 18949, Control_c, 0, 64, 0
2, 18949, Note_on_c, 0, 51, 36
2, 18949, Note_on_c, 0, 56, 47
2, 18955, Note_on_c, 0, 41, 34
2, 18957, Note_on_c, 0, 63, 10
2, 18979, Note_on_c, 0, 41, 0
2, 18983, Control_c, 0, 64, 127
2, 19012, Note_on_c, 0, 63, 0
2, 19019, Note_on_c, 0, 51, 0
2, 19022, Note_on_c, 0, 56, 0
2, 19037, Control_c, 0, 64, 0
2, 19041, Note_on_c, 0, 28, 36
2, 19042, Note_on_c, 0, 40, 27
2, 19043, Note_on_c, 0, 63, 18
2, 19075, Control_c, 0, 64, 127
2, 19103, Note_on_c, 0, 28, 0
2, 19109, Note_on_c, 0, 40, 0
2, 19129, Note_on_c, 0, 63, 0
2, 19165, Note_on_c, 0, 63, 42
2, 19169, Note_on_c, 0, 27, 39
2, 19171, Note_on_c, 0, 39, 23
2, 19173, Control_c, 0, 64, 0
2, 19176, Note_on_c, 0, 55, 31
2, 19209, Control_c, 0, 64, 127
2, 19230, Note_on_c, 0, 55, 0
2, 19256, Note_on_c, 0, 63, 0
2, 19269, Note_on_c, 0, 27, 0
2, 19282, Note_on_c, 0, 39, 0
2, 19364, Note_on_c, 0, 82, 2
2, 19412, Note_on_c, 0, 82, 0
2, 19435, Note_on_c, 0, 82, 54
2, 19477, Note_on_c, 0, 82, 0
2, 19486, Note_on_c, 0, 79, 43
2, 19487, Note_on_c, 0, 70, 32
2, 19491, Note_on_c, 0, 67, 32
2, 19495, Note_on_c, 0, 65, 33
2, 19496, Control_c, 0, 64, 0
2, 19522, Control_c, 0, 64, 127
2, 19548, Note_on_c, 0, 70, 0
2, 19552, Note_on_c, 0, 79, 0
2, 19555, Note_on_c, 0, 82, 42
2, 19589, Note_on_c, 0, 82, 0
2, 19605, Note_on_c, 0, 58, 37
2, 19610, Note_on_c, 0, 79, 33
2, 19613, Control_c, 0, 64, 0
2, 19625, Note_on_c, 0, 79, 0
2, 19627, Control_c, 0, 64, 127
2, 19650, Note_on_c, 0, 65, 0
2, 19672, Note_on_c, 0, 67, 0
2, 19704, Note_on_c, 0, 86, 91
2, 19713, Note_on_c, 0, 58, 0
2, 19749, Note_on_c, 0, 86, 0
2, 19759, Note_on_c, 0, 70, 35
2, 19762, Note_on_c, 0, 79, 55
2, 19765, Note_on_c, 0, 82, 38
2, 19767, Note_on_c, 0, 65, 30
2, 19768, Note_on_c, 0, 67, 31
2, 19797, Note_on_c, 0, 79, 0
2, 19800, Note_on_c, 0, 82, 0
2, 19801, Note_on_c, 0, 70, 0
2, 19825, Note_on_c, 0, 79, 42
2, 19848, Note_on_c, 0, 79, 0
2, 19879, Note_on_c, 0, 67, 0
2, 19890, Note_on_c, 0, 58, 31
2, 19892, Note_on_c, 0, 82, 35
2, 19908, Note_on_c, 0, 65, 0
2, 19997, Note_on_c, 0, 82, 0
2, 20015, Note_on_c, 0, 86, 80
2, 20078, Note_on_c, 0, 86, 0
2, 20093, Note_on_c, 0, 80, 47
2, 20094, Note_on_c, 0, 68, 20
2, 20096, Note_on_c, 0, 77, 44
2, 20097, Note_on_c, 0, 63, 32
2, 20107, Note_on_c, 0, 60, 24
2, 20112, Control_c, 0, 64, 0
2, 20152, Control_c, 0, 64, 127
2, 20153, Note_on_c, 0, 58, 0
2, 20153, Note_on_c, 0, 82, 68
2, 20166, Note_on_c, 0, 80, 0
2, 20186, Note_on_c, 0, 77, 0
2, 20203, Note_on_c, 0, 82, 0
2, 20207, Note_on_c, 0, 58, 40
2, 20208, Note_on_c, 0, 80, 59
2, 20208, Note_on_c, 0, 77, 66
2, 20209, Note_on_c, 0, 60, 0
2, 20252, Note_on_c, 0, 63, 0
2, 20257, Note_on_c, 0, 80, 0
2, 20262, Note_on_c, 0, 77, 0
2, 20266, Note_on_c, 0, 82, 67
2, 20271, Note_on_c, 0, 68, 0
2, 20318, Note_on_c, 0, 82, 0
2, 20330, Note_on_c, 0, 80, 48
2, 20331, Note_on_c, 0, 74, 53
2, 20332, Note_on_c, 0, 62, 35
2, 20334, Note_on_c, 0, 68, 29
2, 20345, Control_c, 0, 64, 0
2, 20393, Control_c, 0, 64, 127
2, 20398, Note_on_c, 0, 58, 0
2, 20401, Note_on_c, 0, 82, 56
2, 20416, Note_on_c, 0, 80, 0
2, 20450, Note_on_c, 0, 74, 0
2, 20462, Note_on_c, 0, 82, 0
2, 20467, Note_on_c, 0, 58, 37
2, 20469, Note_on_c, 0, 80, 39
2, 20477, Note_on_c, 0, 62, 0
2, 20499, Note_on_c, 0, 68, 0
2, 20531, Note_on_c, 0, 80, 0
2, 20540, Note_on_c, 0, 82, 53
2, 20549, Note_on_c, 0, 58, 0
2, 20590, Note_on_c, 0, 82, 0
2, 20622, Note_on_c, 0, 77, 51
2, 20623, Note_on_c, 0, 70, 36
2, 20626, Note_on_c, 0, 84, 32
2, 20629, Control_c, 0, 64, 0
2, 20630, Note_on_c, 0, 65, 25
2, 20631, Note_on_c, 0, 83, 30
2, 20639, Note_on_c, 0, 83, 0
2, 20669, Control_c, 0, 64, 127
2, 20697, Note_on_c, 0, 84, 0
2, 20702, Note_on_c, 0, 55, 41
2, 20711, Note_on_c, 0, 77, 0
2, 20715, Note_on_c, 0, 65, 0
2, 20729, Note_on_c, 0, 70, 0
2, 20785, Note_on_c, 0, 65, 40
2, 20849, Note_on_c, 0, 65, 0
2, 20863, Note_on_c, 0, 67, 42
2, 20864, Note_on_c, 0, 70, 35
2, 20890, Note_on_c, 0, 67, 0
2, 20894, Note_on_c, 0, 55, 0
2, 20907, Note_on_c, 0, 70, 0
2, 20961, Note_on_c, 0, 68, 33
2, 20961, Note_on_c, 0, 72, 36
2, 20962, Note_on_c, 0, 64, 35
2, 20963, Note_on_c, 0, 58, 35
2, 20970, Control_c, 0, 64, 0
2, 21000, Control_c, 0, 64, 127
2, 21011, Note_on_c, 0, 64, 0
2, 21054, Note_on_c, 0, 64, 31
2, 21059, Note_on_c, 0, 68, 0
2, 21102, Note_on_c, 0, 64, 0
2, 21109, Note_on_c, 0, 72, 0
2, 21126, Note_on_c, 0, 58, 0
2, 21155, Note_on_c, 0, 68, 33
2, 21155, Note_on_c, 0, 72, 38
2, 21157, Note_on_c, 0, 58, 25
2, 21159, Note_on_c, 0, 64, 20
2, 21233, Note_on_c, 0, 64, 0
2, 21240, Note_on_c, 0, 72, 0
2, 21244, Note_on_c, 0, 68, 0
2, 21253, Note_on_c, 0, 58, 0
2, 21292, Note_on_c, 0, 68, 31
2, 21292, Note_on_c, 0, 64, 28
2, 21292, Note_on_c, 0, 58, 26
2, 21294, Note_on_c, 0, 72, 30
2, 21314, Note_on_c, 0, 64, 0
2, 21339, Note_on_c, 0, 58, 0
2, 21371, Note_on_c, 0, 72, 0
2, 21408, Note_on_c, 0, 68, 0
2, 21431, Note_on_c, 0, 41, 53
2, 21440, Control_c, 0, 64, 0
2, 21447, Note_on_c, 0, 41, 0
2, 21450, Control_c, 0, 64, 127
2, 21524, Note_on_c, 0, 72, 76
2, 21526, Note_on_c, 0, 51, 65
2, 21526, Note_on_c, 0, 68, 73
2, 21527, Note_on_c, 0, 63, 76
2, 21535, Note_on_c, 0, 57, 35
2, 21582, Note_on_c, 0, 57, 0
2, 21590, Note_on_c, 0, 63, 0
2, 21594, Note_on_c, 0, 51, 0
2, 21598, Note_on_c, 0, 68, 0
2, 21599, Note_on_c, 0, 72, 0
2, 21636, Note_on_c, 0, 72, 62
2, 21638, Note_on_c, 0, 63, 63
2, 21639, Note_on_c, 0, 57, 50
2, 21639, Note_on_c, 0, 68, 55
2, 21639, Note_on_c, 0, 51, 54
2, 21701, Note_on_c, 0, 57, 0
2, 21707, Note_on_c, 0, 51, 0
2, 21707, Note_on_c, 0, 72, 0
2, 21712, Note_on_c, 0, 63, 0
2, 21716, Note_on_c, 0, 68, 0
2, 21762, Note_on_c, 0, 51, 53
2, 21764, Note_on_c, 0, 57, 45
2, 21766, Note_on_c, 0, 63, 48
2, 21768, Note_on_c, 0, 72, 35
2, 21768, Note_on_c, 0, 68, 43
2, 21875, Note_on_c, 0, 63, 0
2, 21877, Note_on_c, 0, 57, 0
2, 21894, Note_on_c, 0, 68, 0
2, 21898, Note_on_c, 0, 51, 0
2, 21903, Note_on_c, 0, 72, 0
2, 21968, Note_on_c, 0, 66, 52
2, 21968, Note_on_c, 0, 71, 66
2, 21970, Note_on_c, 0, 62, 54
2, 21974, Note_on_c, 0, 46, 45
2, 21978, Note_on_c, 0, 56, 28
2, 21985, Note_on_c, 0, 66, 0
2, 21987, Control_c, 0, 64, 0
2, 21993, Note_on_c, 0, 67, 26
2, 22043, Control_c, 0, 64, 127
2, 22064, Note_on_c, 0, 71, 0
2, 22081, Note_on_c, 0, 71, 68
2, 22117, Note_on_c, 0, 56, 0
2, 22139, Note_on_c, 0, 67, 0
2, 22139, Note_on_c, 0, 62, 0
2, 22156, Note_on_c, 0, 71, 0
2, 22184, Note_on_c, 0, 71, 55
2, 22185, Note_on_c, 0, 67, 57
2, 22188, Note_on_c, 0, 62, 35
2, 22189, Note_on_c, 0, 56, 31
2, 22236, Note_on_c, 0, 71, 0
2, 22281, Note_on_c, 0, 62, 0
2, 22283, Note_on_c, 0, 67, 0
2, 22284, Note_on_c, 0, 70, 68
2, 22334, Note_on_c, 0, 70, 0
2, 22338, Note_on_c, 0, 56, 0
2, 22342, Note_on_c, 0, 46, 0
2, 22412, Note_on_c, 0, 70, 53
2, 22417, Note_on_c, 0, 46, 33
2, 22418, Note_on_c, 0, 67, 48
2, 22419, Note_on_c, 0, 62, 45
2, 22423, Note_on_c, 0, 55, 37
2, 22436, Control_c, 0, 64, 0
2, 22486, Note_on_c, 0, 67, 0
2, 22487, Control_c, 0, 64, 127
2, 22500, Note_on_c, 0, 62, 0
2, 22507, Note_on_c, 0, 67, 52
2, 22517, Note_on_c, 0, 70, 0
2, 22541, Note_on_c, 0, 55, 0
2, 22560, Note_on_c, 0, 67, 0
2, 22592, Note_on_c, 0, 67, 60
2, 22595, Note_on_c, 0, 55, 41
2, 22595, Note_on_c, 0, 62, 50
2, 22627, Note_on_c, 0, 62, 0
2, 22641, Note_on_c, 0, 67, 0
2, 22669, Note_on_c, 0, 55, 0
2, 22673, Note_on_c, 0, 74, 85
2, 22716, Note_on_c, 0, 74, 0
2, 22750, Note_on_c, 0, 74, 67
2, 22753, Note_on_c, 0, 67, 64
2, 22756, Note_on_c, 0, 63, 45
2, 22757, Note_on_c, 0, 55, 45
2, 22760, Control_c, 0, 64, 0
2, 22796, Control_c, 0, 64, 127
2, 22813, Note_on_c, 0, 63, 0
2, 22817, Note_on_c, 0, 67, 0
2, 22832, Note_on_c, 0, 74, 0
2, 22832, Note_on_c, 0, 67, 66
2, 22856, Note_on_c, 0, 46, 0
2, 22868, Note_on_c, 0, 67, 0
2, 22914, Note_on_c, 0, 67, 60
2, 22915, Note_on_c, 0, 63, 46
2, 22916, Note_on_c, 0, 46, 35
2, 22957, Note_on_c, 0, 46, 0
2, 22963, Note_on_c, 0, 55, 0
2, 22984, Note_on_c, 0, 63, 0
2, 23003, Note_on_c, 0, 67, 0
2, 23006, Note_on_c, 0, 70, 61
2, 23160, Note_on_c, 0, 62, 50
2, 23162, Note_on_c, 0, 69, 53
2, 23163, Note_on_c, 0, 45, 47
2, 23164, Note_on_c, 0, 70, 0
2, 23164, Note_on_c, 0, 63, 45
2, 23177, Control_c, 0, 64, 0
2, 23199, Control_c, 0, 64, 127
2, 23200, Note_on_c, 0, 45, 0
2, 23237, Note_on_c, 0, 63, 0
2, 23255, Note_on_c, 0, 69, 0
2, 23264, Note_on_c, 0, 72, 67
2, 23266, Note_on_c, 0, 65, 42
2, 23268, Note_on_c, 0, 60, 54
2, 23269, Note_on_c, 0, 55, 50
2, 23271, Note_on_c, 0, 61, 38
2, 23280, Note_on_c, 0, 62, 0
2, 23330, Note_on_c, 0, 55, 0
2, 23336, Note_on_c, 0, 65, 0
2, 23340, Note_on_c, 0, 60, 0
2, 23346, Note_on_c, 0, 72, 0
2, 23348, Note_on_c, 0, 61, 0
2, 23367, Note_on_c, 0, 65, 48
2, 23367, Note_on_c, 0, 61, 51
2, 23367, Note_on_c, 0, 72, 60
2, 23368, Note_on_c, 0, 60, 43
2, 23371, Note_on_c, 0, 55, 49
2, 23446, Note_on_c, 0, 65, 0
2, 23456, Note_on_c, 0, 61, 0
2, 23460, Note_on_c, 0, 60, 0
2, 23464, Note_on_c, 0, 72, 0
2, 23464, Note_on_c, 0, 55, 0
2, 23470, Note_on_c, 0, 74, 66
2, 23548, Note_on_c, 0, 74, 0
2, 23570, Note_on_c, 0, 74, 52
2, 23571, Note_on_c, 0, 50, 40
2, 23575, Note_on_c, 0, 60, 37
2, 23576, Control_c, 0, 64, 0
2, 23598, Control_c, 0, 64, 127
2, 23619, Note_on_c, 0, 74, 0
2, 23638, Note_on_c, 0, 50, 0
2, 23647, Note_on_c, 0, 60, 0
2, 23665, Note_on_c, 0, 75, 60
2, 23717, Note_on_c, 0, 75, 0
2, 23763, Note_on_c, 0, 75, 59
2, 23768, Note_on_c, 0, 54, 31
2, 23770, Note_on_c, 0, 66, 48
2, 23771, Note_on_c, 0, 60, 40
2, 23851, Note_on_c, 0, 75, 0
2, 23891, Note_on_c, 0, 66, 0
2, 23916, Note_on_c, 0, 74, 63
2, 23927, Note_on_c, 0, 54, 0
2, 23938, Note_on_c, 0, 60, 0
2, 23953, Note_on_c, 0, 74, 0
2, 23953, Note_on_c, 0, 72, 48
2, 23986, Note_on_c, 0, 72, 0
2, 24001, Note_on_c, 0, 74, 68
2, 24006, Note_on_c, 0, 55, 43
2, 24021, Control_c, 0, 64, 0
2, 24072, Control_c, 0, 64, 127
2, 24086, Note_on_c, 0, 62, 44
2, 24201, Note_on_c, 0, 65, 38
2, 24232, Note_on_c, 0, 74, 0
2, 24270, Note_on_c, 0, 62, 0
2, 24281, Note_on_c, 0, 74, 61
2, 24297, Note_on_c, 0, 65, 0
2, 24316, Note_on_c, 0, 74, 0
2, 24362, Note_on_c, 0, 74, 60
2, 24365, Note_on_c, 0, 66, 47
2, 24366, Note_on_c, 0, 63, 53
2, 24373, Note_on_c, 0, 55, 0
2, 24375, Note_on_c, 0, 62, 36
2, 24389, Control_c, 0, 64, 0
2, 24434, Note_on_c, 0, 61, 30
2, 24436, Note_on_c, 0, 62, 0
2, 24454, Note_on_c, 0, 61, 0
2, 24467, Note_on_c, 0, 60, 35
2, 24483, Note_on_c, 0, 60, 0
2, 24488, Note_on_c, 0, 59, 38
2, 24509, Note_on_c, 0, 59, 0
2, 24519, Note_on_c, 0, 58, 44
2, 24537, Note_on_c, 0, 58, 0
2, 24546, Note_on_c, 0, 57, 48
2, 24567, Note_on_c, 0, 57, 0
2, 24582, Note_on_c, 0, 56, 54
2, 24595, Note_on_c, 0, 56, 0
2, 24602, Note_on_c, 0, 55, 57
2, 24632, Note_on_c, 0, 55, 0
2, 24632, Note_on_c, 0, 54, 72
2, 24673, Control_c, 0, 64, 127
2, 24714, Note_on_c, 0, 60, 32
2, 24730, Note_on_c, 0, 63, 0
2, 24766, Note_on_c, 0, 74, 0
2, 24766, Note_on_c, 0, 63, 37
2, 24768, Note_on_c, 0, 66, 0
2, 24801, Note_on_c, 0, 54, 0
2, 24810, Note_on_c, 0, 63, 0
2, 24815, Note_on_c, 0, 60, 0
2, 24815, Note_on_c, 0, 66, 50
2, 24860, Note_on_c, 0, 74, 59
2, 24891, Note_on_c, 0, 74, 0
2, 24895, Note_on_c, 0, 66, 0
2, 24933, Note_on_c, 0, 75, 50
2, 24965, Note_on_c, 0, 75, 0
2, 25010, Note_on_c, 0, 75, 47
2, 25016, Control_c, 0, 64, 0
2, 25016, Note_on_c, 0, 65, 33
2, 25018, Note_on_c, 0, 68, 29
2, 25018, Note_on_c, 0, 41, 34
2, 25022, Note_on_c, 0, 72, 30
2, 25040, Control_c, 0, 64, 127
2, 25052, Note_on_c, 0, 72, 0
2, 25055, Note_on_c, 0, 75, 0
2, 25057, Note_on_c, 0, 65, 0
2, 25059, Note_on_c, 0, 68, 0
2, 25108, Note_on_c, 0, 55, 64
2, 25110, Note_on_c, 0, 48, 27
2, 25141, Note_on_c, 0, 41, 0
2, 25155, Note_on_c, 0, 55, 0
2, 25157, Note_on_c, 0, 56, 62
2, 25213, Note_on_c, 0, 58, 67
2, 25218, Note_on_c, 0, 56, 0
2, 25221, Note_on_c, 0, 55, 37
2, 25255, Note_on_c, 0, 58, 0
2, 25260, Note_on_c, 0, 48, 0
2, 25261, Note_on_c, 0, 60, 63
2, 25287, Note_on_c, 0, 55, 0
2, 25291, Note_on_c, 0, 62, 68
2, 25294, Note_on_c, 0, 60, 0
2, 25323, Note_on_c, 0, 63, 64
2, 25324, Note_on_c, 0, 62, 0
2, 25337, Note_on_c, 0, 63, 0
2, 25344, Note_on_c, 0, 65, 68
2, 25372, Note_on_c, 0, 67, 69
2, 25376, Note_on_c, 0, 65, 0
2, 25397, Note_on_c, 0, 68, 65
2, 25406, Note_on_c, 0, 67, 0
2, 25419, Control_c, 0, 64, 0
2, 25422, Note_on_c, 0, 70, 64
2, 25427, Note_on_c, 0, 68, 0
2, 25434, Note_on_c, 0, 56, 33
2, 25435, Note_on_c, 0, 46, 34
2, 25439, Note_on_c, 0, 70, 0
2, 25445, Control_c, 0, 64, 127
2, 25449, Note_on_c, 0, 72, 64
2, 25462, Note_on_c, 0, 46, 0
2, 25469, Note_on_c, 0, 56, 0
2, 25477, Note_on_c, 0, 74, 53
2, 25479, Note_on_c, 0, 72, 0
2, 25502, Note_on_c, 0, 74, 0
2, 25506, Note_on_c, 0, 75, 49
2, 25514, Note_on_c, 0, 75, 0
2, 25529, Note_on_c, 0, 77, 49
2, 25559, Note_on_c, 0, 79, 44
2, 25561, Note_on_c, 0, 77, 0
2, 25585, Note_on_c, 0, 79, 0
2, 25613, Note_on_c, 0, 82, 35
2, 25627, Note_on_c, 0, 82, 0
2, 25642, Note_on_c, 0, 84, 48
2, 25655, Note_on_c, 0, 56, 25
2, 25655, Note_on_c, 0, 67, 25
2, 25659, Note_on_c, 0, 62, 31
2, 25669, Note_on_c, 0, 84, 0
2, 25675, Note_on_c, 0, 86, 64
2, 25703, Note_on_c, 0, 86, 0
2, 25711, Note_on_c, 0, 87, 63
2, 25729, Note_on_c, 0, 87, 0
2, 25739, Note_on_c, 0, 89, 59
2, 25743, Note_on_c, 0, 67, 0
2, 25766, Note_on_c, 0, 62, 0
2, 25771, Note_on_c, 0, 89, 0
2, 25773, Note_on_c, 0, 91, 58
2, 25786, Note_on_c, 0, 56, 0
2, 25802, Note_on_c, 0, 91, 0
2, 25809, Note_on_c, 0, 92, 58
2, 25834, Note_on_c, 0, 92, 0
2, 25845, Note_on_c, 0, 94, 57
2, 25863, Note_on_c, 0, 94, 0
2, 25880, Note_on_c, 0, 96, 65
2, 25910, Note_on_c, 0, 96, 0
2, 25926, Note_on_c, 0, 98, 69
2, 25935, Note_on_c, 0, 55, 30
2, 25937, Note_on_c, 0, 45, 27
2, 25945, Control_c, 0, 64, 0
2, 25960, Note_on_c, 0, 99, 72
2, 25970, Note_on_c, 0, 98, 0
2, 25973, Control_c, 0, 64, 127
2, 25997, Note_on_c, 0, 45, 0
2, 26001, Note_on_c, 0, 99, 0
2, 26010, Note_on_c, 0, 55, 0
2, 26020, Note_on_c, 0, 99, 63
2, 26055, Note_on_c, 0, 99, 0
2, 26074, Note_on_c, 0, 99, 67
2, 26102, Note_on_c, 0, 99, 0
2, 26129, Note_on_c, 0, 63, 28
2, 26129, Note_on_c, 0, 99, 63
2, 26132, Note_on_c, 0, 55, 44
2, 26134, Note_on_c, 0, 57, 37
2, 26181, Note_on_c, 0, 87, 54
2, 26196, Note_on_c, 0, 55, 0
2, 26200, Note_on_c, 0, 57, 0
2, 26203, Note_on_c, 0, 63, 0
2, 26210, Note_on_c, 0, 87, 0
2, 26221, Note_on_c, 0, 99, 0
2, 26228, Note_on_c, 0, 87, 46
2, 26272, Note_on_c, 0, 99, 64
2, 26294, Note_on_c, 0, 87, 0
2, 26302, Note_on_c, 0, 99, 0
2, 26322, Control_c, 0, 64, 0
2, 26323, Note_on_c, 0, 99, 55
2, 26324, Note_on_c, 0, 38, 46
2, 26326, Note_on_c, 0, 87, 42
2, 26340, Control_c, 0, 64, 127
2, 26342, Note_on_c, 0, 38, 0
2, 26360, Note_on_c, 0, 99, 0
2, 26365, Note_on_c, 0, 87, 0
2, 26384, Note_on_c, 0, 98, 49
2, 26385, Note_on_c, 0, 86, 50
2, 26413, Note_on_c, 0, 98, 0
2, 26417, Note_on_c, 0, 86, 0
2, 26451, Note_on_c, 0, 54, 37
2, 26453, Note_on_c, 0, 98, 53
2, 26454, Note_on_c, 0, 65, 34
2, 26456, Note_on_c, 0, 60, 41
2, 26456, Note_on_c, 0, 86, 53
2, 26583, Note_on_c, 0, 98, 0
2, 26585, Note_on_c, 0, 86, 0
2, 26636, Note_on_c, 0, 96, 57
2, 26656, Note_on_c, 0, 60, 0
2, 26659, Note_on_c, 0, 54, 0
2, 26662, Note_on_c, 0, 96, 0
2, 26737, Note_on_c, 0, 94, 57
2, 26773, Note_on_c, 0, 94, 0
2, 26789, Note_on_c, 0, 96, 62
2, 26819, Note_on_c, 0, 96, 0
2, 26846, Note_on_c, 0, 98, 65
2, 26847, Note_on_c, 0, 65, 0
2, 26849, Note_on_c, 0, 55, 42
2, 26865, Control_c, 0, 64, 0
2, 26885, Control_c, 0, 64, 127
2, 26896, Note_on_c, 0, 98, 0
2, 26912, Note_on_c, 0, 62, 35
2, 26983, Note_on_c, 0, 67, 43
2, 27067, Note_on_c, 0, 82, 57
2, 27116, Note_on_c, 0, 82, 0
2, 27137, Note_on_c, 0, 84, 64
2, 27153, Note_on_c, 0, 67, 0
2, 27171, Note_on_c, 0, 84, 0
2, 27194, Note_on_c, 0, 62, 0
2, 27213, Note_on_c, 0, 55, 0
2, 27402, Note_on_c, 0, 74, 59
2, 27408, Note_on_c, 0, 52, 44
2, 27427, Control_c, 0, 64, 0
2, 27449, Control_c, 0, 64, 127
2, 27478, Note_on_c, 0, 67, 50
2, 27478, Note_on_c, 0, 60, 30
2, 27479, Note_on_c, 0, 62, 49
2, 27487, Note_on_c, 0, 60, 0
2, 27500, Note_on_c, 0, 52, 0
2, 27502, Note_on_c, 0, 74, 0
2, 27511, Note_on_c, 0, 67, 0
2, 27515, Note_on_c, 0, 62, 0
2, 27562, Note_on_c, 0, 75, 60
2, 27562, Note_on_c, 0, 45, 44
2, 27579, Control_c, 0, 64, 0
2, 27612, Control_c, 0, 64, 127
2, 27635, Note_on_c, 0, 61, 49
2, 27637, Note_on_c, 0, 55, 39
2, 27637, Note_on_c, 0, 67, 49
2, 27642, Note_on_c, 0, 75, 0
2, 27657, Note_on_c, 0, 67, 0
2, 27658, Note_on_c, 0, 55, 0
2, 27665, Note_on_c, 0, 45, 0
2, 27674, Note_on_c, 0, 61, 0
2, 27733, Note_on_c, 0, 63, 48
2, 27736, Note_on_c, 0, 44, 35
2, 27738, Note_on_c, 0, 60, 45
2, 27744, Control_c, 0, 64, 0
2, 27800, Control_c, 0, 64, 127
2, 27829, Note_on_c, 0, 51, 39
2, 27851, Note_on_c, 0, 63, 0
2, 27866, Note_on_c, 0, 60, 0
2, 27924, Note_on_c, 0, 51, 0
2, 27992, Note_on_c, 0, 60, 62
2, 27993, Note_on_c, 0, 64, 65
2, 27995, Note_on_c, 0, 52, 35
2, 28007, Control_c, 0, 64, 0
2, 28041, Control_c, 0, 64, 127
2, 28047, Note_on_c, 0, 60, 0
2, 28064, Note_on_c, 0, 64, 0
2, 28065, Note_on_c, 0, 72, 68
2, 28068, Note_on_c, 0, 55, 58
2, 28104, Note_on_c, 0, 55, 0
2, 28144, Note_on_c, 0, 52, 0
2, 28236, Note_on_c, 0, 44, 0
2, 28242, Note_on_c, 0, 72, 0
2, 28385, Note_on_c, 0, 70, 56
2, 28390, Note_on_c, 0, 44, 45
2, 28391, Note_on_c, 0, 63, 38
2, 28392, Note_on_c, 0, 60, 38
2, 28392, Note_on_c, 0, 67, 50
2, 28400, Control_c, 0, 64, 0
2, 28450, Control_c, 0, 64, 127
2, 28468, Note_on_c, 0, 53, 47
2, 28491, Note_on_c, 0, 60, 0
2, 28492, Note_on_c, 0, 67, 0
2, 28500, Note_on_c, 0, 63, 0
2, 28509, Note_on_c, 0, 70, 0
2, 28542, Note_on_c, 0, 63, 38
2, 28544, Note_on_c, 0, 60, 48
2, 28545, Note_on_c, 0, 56, 31
2, 28577, Note_on_c, 0, 56, 0
2, 28594, Note_on_c, 0, 53, 0
2, 28596, Note_on_c, 0, 44, 0
2, 28604, Note_on_c, 0, 60, 0
2, 28616, Note_on_c, 0, 68, 57
2, 28620, Note_on_c, 0, 60, 32
2, 28620, Note_on_c, 0, 54, 28
2, 28631, Note_on_c, 0, 60, 0
2, 28662, Note_on_c, 0, 54, 0
2, 28670, Note_on_c, 0, 63, 0
2, 28681, Note_on_c, 0, 68, 0
2, 28707, Note_on_c, 0, 43, 38
2, 28709, Note_on_c, 0, 58, 33
2, 28710, Note_on_c, 0, 53, 34
2, 28710, Note_on_c, 0, 62, 40
2, 28717, Control_c, 0, 64, 0
2, 28769, Control_c, 0, 64, 127
2, 28786, Note_on_c, 0, 50, 43
2, 28792, Note_on_c, 0, 53, 0
2, 28795, Note_on_c, 0, 43, 0
2, 28807, Note_on_c, 0, 50, 0
2, 28826, Note_on_c, 0, 62, 0
2, 28835, Note_on_c, 0, 58, 0
2, 28869, Note_on_c, 0, 57, 40
2, 28929, Note_on_c, 0, 57, 0
2, 28943, Note_on_c, 0, 62, 44
2, 28950, Note_on_c, 0, 55, 17
2, 28951, Note_on_c, 0, 58, 14
2, 29001, Note_on_c, 0, 62, 0
2, 29012, Note_on_c, 0, 58, 0
2, 29032, Note_on_c, 0, 55, 0
2, 29037, Note_on_c, 0, 58, 19
2, 29038, Note_on_c, 0, 61, 39
2, 29041, Note_on_c, 0, 48, 25
2, 29046, Control_c, 0, 64, 0
2, 29064, Control_c, 0, 64, 127
2, 29097, Note_on_c, 0, 58, 0
2, 29123, Note_on_c, 0, 48, 0
2, 29136, Note_on_c, 0, 61, 0
2, 29145, Note_on_c, 0, 60, 50
2, 29158, Note_on_c, 0, 48, 26
2, 29178, Note_on_c, 0, 60, 0
2, 29180, Note_on_c, 0, 48, 0
2, 29184, Note_on_c, 0, 61, 53
2, 29189, Note_on_c, 0, 49, 35
2, 29209, Note_on_c, 0, 49, 0
2, 29211, Note_on_c, 0, 63, 52
2, 29212, Note_on_c, 0, 61, 0
2, 29214, Control_c, 0, 64, 0
2, 29223, Note_on_c, 0, 63, 0
2, 29228, Note_on_c, 0, 52, 28
2, 29231, Note_on_c, 0, 64, 51
2, 29242, Note_on_c, 0, 52, 0
2, 29244, Note_on_c, 0, 64, 0
2, 29251, Note_on_c, 0, 54, 45
2, 29254, Note_on_c, 0, 66, 42
2, 29261, Note_on_c, 0, 66, 0
2, 29274, Note_on_c, 0, 54, 0
2, 29274, Note_on_c, 0, 67, 46
2, 29297, Note_on_c, 0, 67, 0
2, 29297, Note_on_c, 0, 69, 49
2, 29319, Note_on_c, 0, 58, 28
2, 29320, Note_on_c, 0, 69, 0
2, 29322, Note_on_c, 0, 70, 37
2, 29337, Note_on_c, 0, 70, 0
2, 29339, Note_on_c, 0, 71, 57
2, 29341, Note_on_c, 0, 58, 0
2, 29342, Note_on_c, 0, 59, 32
2, 29352, Note_on_c, 0, 59, 0
2, 29364, Note_on_c, 0, 71, 0
2, 29367, Note_on_c, 0, 60, 29
2, 29372, Note_on_c, 0, 72, 39
2, 29410, Note_on_c, 0, 72, 0
2, 29427, Note_on_c, 0, 63, 35
2, 29429, Note_on_c, 0, 75, 43
2, 29431, Note_on_c, 0, 60, 0
2, 29473, Note_on_c, 0, 75, 0
2, 29480, Note_on_c, 0, 76, 58
2, 29481, Note_on_c, 0, 64, 34
2, 29503, Control_c, 0, 64, 127
2, 29521, Note_on_c, 0, 76, 0
2, 29526, Note_on_c, 0, 64, 0
2, 29531, Note_on_c, 0, 63, 0
2, 29531, Note_on_c, 0, 79, 47
2, 29534, Note_on_c, 0, 67, 37
2, 29566, Note_on_c, 0, 79, 0
2, 29588, Note_on_c, 0, 70, 29
2, 29588, Note_on_c, 0, 82, 61
2, 29589, Note_on_c, 0, 67, 0
2, 29637, Note_on_c, 0, 82, 0
2, 29647, Note_on_c, 0, 84, 68
2, 29649, Note_on_c, 0, 70, 0
2, 29651, Note_on_c, 0, 72, 22
2, 29709, Note_on_c, 0, 84, 0
2, 29710, Note_on_c, 0, 72, 0
2, 29729, Note_on_c, 0, 78, 52
2, 29736, Note_on_c, 0, 66, 23
2, 29811, Note_on_c, 0, 78, 0
2, 29811, Note_on_c, 0, 81, 66
2, 29822, Note_on_c, 0, 66, 0
2, 29906, Note_on_c, 0, 44, 46
2, 29910, Note_on_c, 0, 79, 58
2, 29930, Control_c, 0, 64, 0
2, 29966, Control_c, 0, 64, 127
2, 29967, Note_on_c, 0, 51, 46
2, 29970, Note_on_c, 0, 75, 57
2, 29977, Note_on_c, 0, 44, 0
2, 29987, Note_on_c, 0, 51, 0
2, 30016, Note_on_c, 0, 81, 0
2, 30017, Note_on_c, 0, 79, 0
2, 30023, Note_on_c, 0, 75, 0
2, 30029, Note_on_c, 0, 72, 55
2, 30033, Note_on_c, 0, 58, 25
2, 30047, Note_on_c, 0, 72, 0
2, 30090, Note_on_c, 0, 60, 44
2, 30092, Note_on_c, 0, 67, 50
2, 30149, Note_on_c, 0, 67, 0
2, 30159, Note_on_c, 0, 60, 0
2, 30161, Note_on_c, 0, 63, 37
2, 30162, Note_on_c, 0, 70, 56
2, 30221, Note_on_c, 0, 63, 0
2, 30226, Note_on_c, 0, 58, 0
2, 30233, Note_on_c, 0, 67, 60
2, 30238, Note_on_c, 0, 60, 30
2, 30268, Note_on_c, 0, 67, 0
2, 30311, Note_on_c, 0, 70, 0
2, 30311, Note_on_c, 0, 66, 59
2, 30325, Note_on_c, 0, 60, 0
2, 30373, Note_on_c, 0, 67, 59
2, 30400, Note_on_c, 0, 67, 0
2, 30402, Note_on_c, 0, 66, 0
2, 30451, Note_on_c, 0, 68, 45
2, 30458, Note_on_c, 0, 65, 41
2, 30461, Note_on_c, 0, 49, 29
2, 30464, Control_c, 0, 64, 0
2, 30478, Note_on_c, 0, 59, 4
2, 30520, Control_c, 0, 64, 127
2, 30536, Note_on_c, 0, 56, 25
2, 30554, Note_on_c, 0, 65, 0
2, 30559, Note_on_c, 0, 59, 0
2, 30609, Note_on_c, 0, 68, 0
2, 30613, Note_on_c, 0, 65, 46
2, 30618, Note_on_c, 0, 59, 36
2, 30640, Note_on_c, 0, 65, 0
2, 30652, Note_on_c, 0, 59, 0
2, 30674, Note_on_c, 0, 49, 0
2, 30687, Note_on_c, 0, 56, 0
2, 30690, Note_on_c, 0, 68, 42
2, 30733, Note_on_c, 0, 68, 0
2, 30778, Note_on_c, 0, 68, 42
2, 30780, Note_on_c, 0, 49, 32
2, 30781, Note_on_c, 0, 63, 39
2, 30782, Note_on_c, 0, 59, 36
2, 30786, Control_c, 0, 64, 0
2, 30787, Note_on_c, 0, 56, 23
2, 30817, Control_c, 0, 64, 127
2, 30839, Note_on_c, 0, 56, 0
2, 30873, Note_on_c, 0, 56, 31
2, 30880, Note_on_c, 0, 59, 0
2, 30892, Note_on_c, 0, 63, 0
2, 30935, Note_on_c, 0, 56, 0
2, 30958, Note_on_c, 0, 63, 35
2, 30964, Note_on_c, 0, 59, 33
2, 30969, Note_on_c, 0, 56, 25
2, 31027, Note_on_c, 0, 59, 0
2, 31044, Note_on_c, 0, 68, 0
2, 31057, Note_on_c, 0, 70, 51
2, 31105, Note_on_c, 0, 56, 0
2, 31118, Note_on_c, 0, 49, 0
2, 31138, Note_on_c, 0, 70, 0
2, 31165, Note_on_c, 0, 63, 0
2, 31211, Note_on_c, 0, 67, 57
2, 31211, Note_on_c, 0, 43, 40
2, 31214, Note_on_c, 0, 58, 31
2, 31217, Note_on_c, 0, 62, 45
2, 31221, Note_on_c, 0, 53, 32
2, 31226, Control_c, 0, 64, 0
2, 31256, Control_c, 0, 64, 127
2, 31290, Note_on_c, 0, 67, 0
2, 31294, Note_on_c, 0, 63, 58
2, 31314, Note_on_c, 0, 43, 0
2, 31318, Note_on_c, 0, 53, 0
2, 31325, Note_on_c, 0, 62, 0
2, 31341, Note_on_c, 0, 58, 0
2, 31347, Note_on_c, 0, 65, 64
2, 31361, Note_on_c, 0, 63, 0
2, 31395, Note_on_c, 0, 65, 0
2, 31414, Note_on_c, 0, 67, 62
2, 31417, Note_on_c, 0, 61, 44
2, 31418, Note_on_c, 0, 36, 45
2, 31419, Note_on_c, 0, 58, 25
2, 31420, Note_on_c, 0, 64, 45
2, 31424, Control_c, 0, 64, 0
2, 31445, Note_on_c, 0, 36, 0
2, 31448, Control_c, 0, 64, 127
2, 31468, Note_on_c, 0, 67, 0
2, 31472, Note_on_c, 0, 64, 0
2, 31500, Note_on_c, 0, 61, 0
2, 31501, Note_on_c, 0, 58, 0
2, 31645, Note_on_c, 0, 68, 46
2, 31646, Note_on_c, 0, 58, 33
2, 31647, Note_on_c, 0, 61, 42
2, 31648, Note_on_c, 0, 52, 37
2, 31648, Note_on_c, 0, 64, 47
2, 31665, Control_c, 0, 64, 0
2, 31673, Control_c, 0, 64, 127
2, 31681, Note_on_c, 0, 52, 0
2, 31699, Note_on_c, 0, 64, 0
2, 31704, Note_on_c, 0, 68, 0
2, 31705, Note_on_c, 0, 58, 0
2, 31709, Note_on_c, 0, 61, 0
2, 31754, Note_on_c, 0, 62, 49
2, 31755, Note_on_c, 0, 41, 44
2, 31755, Note_on_c, 0, 65, 50
2, 31758, Note_on_c, 0, 57, 37
2, 31758, Note_on_c, 0, 51, 25
2, 31764, Control_c, 0, 64, 0
2, 31798, Note_on_c, 0, 62, 0
2, 31819, Note_on_c, 0, 61, 52
2, 31858, Control_c, 0, 64, 127
2, 31859, Note_on_c, 0, 61, 0
2, 31884, Control_c, 0, 64, 0
2, 31890, Note_on_c, 0, 60, 46
2, 31891, Note_on_c, 0, 65, 0
2, 31924, Control_c, 0, 64, 127
2, 31979, Note_on_c, 0, 62, 59
2, 32064, Note_on_c, 0, 41, 0
2, 32066, Note_on_c, 0, 63, 48
2, 32071, Note_on_c, 0, 51, 0
2, 32236, Note_on_c, 0, 62, 0
2, 32389, Note_on_c, 0, 63, 0
2, 32398, Note_on_c, 0, 22, 46
2, 32399, Note_on_c, 0, 57, 0
2, 32402, Note_on_c, 0, 65, 55
2, 32410, Control_c, 0, 64, 0
2, 32414, Note_on_c, 0, 60, 0
2, 32438, Control_c, 0, 64, 127
2, 32451, Note_on_c, 0, 22, 0
2, 32521, Note_on_c, 0, 65, 0
2, 32537, Note_on_c, 0, 56, 50
2, 32554, Note_on_c, 0, 56, 0
2, 32562, Note_on_c, 0, 59, 53
2, 32581, Note_on_c, 0, 59, 0
2, 32583, Note_on_c, 0, 62, 55
2, 32599, Note_on_c, 0, 63, 62
2, 32603, Note_on_c, 0, 62, 0
2, 32613, Note_on_c, 0, 63, 0
2, 32618, Note_on_c, 0, 64, 71
2, 32638, Note_on_c, 0, 65, 66
2, 32639, Note_on_c, 0, 64, 0
2, 32652, Note_on_c, 0, 68, 69
2, 32653, Note_on_c, 0, 65, 0
2, 32668, Note_on_c, 0, 68, 0
2, 32674, Control_c, 0, 64, 0
2, 32679, Note_on_c, 0, 71, 55
2, 32700, Note_on_c, 0, 74, 60
2, 32702, Note_on_c, 0, 71, 0
2, 32717, Note_on_c, 0, 74, 0
2, 32784, Note_on_c, 0, 76, 49
2, 32812, Note_on_c, 0, 76, 0
2, 32837, Note_on_c, 0, 77, 46
2, 32864, Note_on_c, 0, 77, 0
2, 32898, Note_on_c, 0, 80, 39
2, 32914, Note_on_c, 0, 80, 0
2, 32944, Note_on_c, 0, 83, 53
2, 32967, Note_on_c, 0, 83, 0
2, 32999, Note_on_c, 0, 86, 60
2, 33014, Note_on_c, 0, 86, 0
2, 33063, Note_on_c, 0, 89, 41
2, 33068, Note_on_c, 0, 67, 24
2, 33069, Note_on_c, 0, 56, 23
2, 33069, Control_c, 0, 64, 127
2, 33070, Note_on_c, 0, 62, 30
2, 33178, Note_on_c, 0, 89, 0
2, 33203, Note_on_c, 0, 91, 47
2, 33290, Note_on_c, 0, 91, 0
2, 33381, Note_on_c, 0, 86, 49
2, 33382, Note_on_c, 0, 88, 35
2, 33390, Note_on_c, 0, 88, 0
2, 33423, Note_on_c, 0, 86, 0
2, 33468, Note_on_c, 0, 87, 67
2, 33494, Note_on_c, 0, 67, 0
2, 33506, Note_on_c, 0, 62, 0
2, 33526, Note_on_c, 0, 56, 0
2, 33539, Note_on_c, 0, 86, 62
2, 33554, Note_on_c, 0, 87, 0
2, 33637, Note_on_c, 0, 86, 0
2, 33688, Note_on_c, 0, 45, 47
2, 33688, Note_on_c, 0, 87, 50
2, 33697, Note_on_c, 0, 45, 0
2, 33697, Control_c, 0, 64, 0
2, 33707, Control_c, 0, 64, 127
2, 33788, Note_on_c, 0, 61, 33
2, 33789, Note_on_c, 0, 60, 39
2, 33790, Note_on_c, 0, 65, 28
2, 33796, Note_on_c, 0, 55, 30
2, 33826, Note_on_c, 0, 65, 0
2, 33827, Note_on_c, 0, 60, 0
2, 33833, Note_on_c, 0, 55, 0
2, 33835, Note_on_c, 0, 61, 0
2, 33895, Note_on_c, 0, 87, 0
2, 33956, Note_on_c, 0, 38, 49
2, 33958, Control_c, 0, 64, 0
2, 33964, Control_c, 0, 64, 127
2, 33965, Note_on_c, 0, 38, 0
2, 34054, Note_on_c, 0, 87, 59
2, 34054, Note_on_c, 0, 99, 67
2, 34054, Note_on_c, 0, 65, 35
2, 34059, Note_on_c, 0, 60, 34
2, 34059, Note_on_c, 0, 54, 32
2, 34060, Note_on_c, 0, 58, 23
2, 34109, Note_on_c, 0, 65, 0
2, 34110, Note_on_c, 0, 60, 0
2, 34124, Note_on_c, 0, 58, 0
2, 34126, Note_on_c, 0, 54, 0
2, 34141, Note_on_c, 0, 99, 0
2, 34142, Note_on_c, 0, 87, 0
2, 34227, Control_c, 0, 64, 0
2, 34236, Note_on_c, 0, 43, 43
2, 34236, Note_on_c, 0, 50, 43
2, 34239, Note_on_c, 0, 98, 64
2, 34242, Note_on_c, 0, 86, 48
2, 34243, Control_c, 0, 64, 127
2, 34245, Note_on_c, 0, 43, 0
2, 34254, Note_on_c, 0, 50, 0
2, 34299, Note_on_c, 0, 86, 0
2, 34306, Note_on_c, 0, 98, 0
2, 34329, Note_on_c, 0, 62, 42
2, 34330, Note_on_c, 0, 55, 40
2, 34331, Note_on_c, 0, 58, 32
2, 34332, Note_on_c, 0, 94, 40
2, 34350, Note_on_c, 0, 62, 0
2, 34355, Note_on_c, 0, 55, 0
2, 34359, Note_on_c, 0, 94, 0
2, 34363, Note_on_c, 0, 58, 0
2, 34382, Note_on_c, 0, 96, 35
2, 34419, Note_on_c, 0, 96, 0
2, 34461, Note_on_c, 0, 60, 45
2, 34461, Note_on_c, 0, 98, 47
2, 34462, Note_on_c, 0, 65, 38
2, 34462, Note_on_c, 0, 61, 31
2, 34462, Note_on_c, 0, 86, 48
2, 34464, Note_on_c, 0, 91, 35
2, 34465, Note_on_c, 0, 56, 27
2, 34466, Note_on_c, 0, 94, 28
2, 34467, Control_c, 0, 64, 0
2, 34495, Control_c, 0, 64, 127
2, 34516, Note_on_c, 0, 91, 0
2, 34516, Note_on_c, 0, 86, 0
2, 34519, Note_on_c, 0, 98, 0
2, 34523, Note_on_c, 0, 94, 0
2, 34525, Note_on_c, 0, 60, 0
2, 34529, Note_on_c, 0, 65, 0
2, 34537, Note_on_c, 0, 61, 0
2, 34541, Note_on_c, 0, 56, 0
2, 34590, Note_on_c, 0, 85, 49
2, 34591, Note_on_c, 0, 99, 47
2, 34591, Note_on_c, 0, 94, 49
2, 34593, Note_on_c, 0, 61, 36
2, 34594, Note_on_c, 0, 55, 50
2, 34597, Note_on_c, 0, 65, 37
2, 34598, Control_c, 0, 64, 0
2, 34608, Control_c, 0, 64, 127
2, 34623, Note_on_c, 0, 65, 0
2, 34626, Note_on_c, 0, 99, 0
2, 34629, Note_on_c, 0, 94, 0
2, 34632, Note_on_c, 0, 61, 0
2, 34634, Note_on_c, 0, 85, 0
2, 34636, Note_on_c, 0, 55, 0
2, 34724, Note_on_c, 0, 45, 40
2, 34746, Note_on_c, 0, 45, 0
2, 34774, Note_on_c, 0, 63, 31
2, 34776, Control_c, 0, 64, 0
2, 34776, Note_on_c, 0, 51, 37
2, 34776, Note_on_c, 0, 55, 40
2, 34777, Note_on_c, 0, 44, 38
2, 34778, Note_on_c, 0, 60, 42
2, 34779, Note_on_c, 0, 58, 32
2, 34808, Control_c, 0, 64, 127
2, 34836, Note_on_c, 0, 55, 0
2, 34862, Note_on_c, 0, 60, 0
2, 34869, Note_on_c, 0, 58, 0
2, 34877, Note_on_c, 0, 51, 0
2, 34917, Note_on_c, 0, 58, 34
2, 34917, Note_on_c, 0, 51, 30
2, 34922, Note_on_c, 0, 55, 34
2, 34947, Note_on_c, 0, 55, 0
2, 34950, Note_on_c, 0, 44, 0
2, 34961, Note_on_c, 0, 51, 0
2, 34967, Note_on_c, 0, 63, 0
2, 34968, Note_on_c, 0, 58, 0
2, 35064, Note_on_c, 0, 68, 46
2, 35064, Note_on_c, 0, 72, 57
2, 35066, Note_on_c, 0, 60, 54
2, 35067, Note_on_c, 0, 65, 59
2, 35067, Note_on_c, 0, 56, 25
2, 35077, Control_c, 0, 64, 0
2, 35123, Control_c, 0, 64, 127
2, 35153, Note_on_c, 0, 56, 0
2, 35192, Note_on_c, 0, 44, 43
2, 35194, Note_on_c, 0, 54, 39
2, 35203, Control_c, 0, 64, 0
2, 35221, Control_c, 0, 64, 127
2, 35230, Note_on_c, 0, 72, 0
2, 35230, Note_on_c, 0, 65, 0
2, 35238, Note_on_c, 0, 68, 0
2, 35248, Note_on_c, 0, 60, 0
2, 35271, Note_on_c, 0, 54, 0
2, 35277, Note_on_c, 0, 44, 0
2, 35327, Note_on_c, 0, 70, 48
2, 35332, Control_c, 0, 64, 0
2, 35332, Note_on_c, 0, 62, 42
2, 35333, Note_on_c, 0, 43, 39
2, 35334, Note_on_c, 0, 53, 32
2, 35337, Note_on_c, 0, 58, 14
2, 35360, Control_c, 0, 64, 127
2, 35381, Note_on_c, 0, 53, 0
2, 35386, Note_on_c, 0, 43, 0
2, 35391, Note_on_c, 0, 70, 0
2, 35395, Note_on_c, 0, 62, 0
2, 35409, Note_on_c, 0, 58, 0
2, 35460, Note_on_c, 0, 53, 63
2, 35554, Note_on_c, 0, 43, 36
2, 35556, Note_on_c, 0, 53, 0
2, 35566, Note_on_c, 0, 43, 0
2, 35582, Control_c, 0, 64, 0
2, 35593, Note_on_c, 0, 52, 46
2, 35600, Note_on_c, 0, 36, 41
2, 35605, Control_c, 0, 64, 127
2, 35615, Note_on_c, 0, 52, 0
2, 35620, Note_on_c, 0, 36, 0
2, 35731, Note_on_c, 0, 64, 49
2, 35743, Note_on_c, 0, 58, 20
2, 35761, Note_on_c, 0, 64, 0
2, 35806, Note_on_c, 0, 58, 0
2, 35814, Note_on_c, 0, 75, 67
2, 35818, Note_on_c, 0, 68, 55
2, 35820, Note_on_c, 0, 64, 60
2, 35836, Note_on_c, 0, 64, 0
2, 35840, Note_on_c, 0, 75, 0
2, 35845, Note_on_c, 0, 68, 0
2, 35873, Note_on_c, 0, 44, 45
2, 35877, Note_on_c, 0, 72, 39
2, 35878, Note_on_c, 0, 55, 54
2, 35878, Note_on_c, 0, 67, 53
2, 35880, Note_on_c, 0, 60, 44
2, 35881, Control_c, 0, 64, 0
2, 35913, Control_c, 0, 64, 127
2, 35929, Note_on_c, 0, 67, 0
2, 35941, Note_on_c, 0, 55, 0
2, 35953, Note_on_c, 0, 72, 0
2, 35957, Note_on_c, 0, 60, 0
2, 36011, Note_on_c, 0, 63, 42
2, 36012, Note_on_c, 0, 60, 49
2, 36015, Note_on_c, 0, 53, 36
2, 36073, Note_on_c, 0, 53, 0
2, 36090, Note_on_c, 0, 60, 0
2, 36105, Note_on_c, 0, 63, 0
2, 36118, Note_on_c, 0, 44, 0
2, 36145, Note_on_c, 0, 59, 48
2, 36146, Note_on_c, 0, 56, 30
2, 36146, Note_on_c, 0, 63, 40
2, 36149, Note_on_c, 0, 49, 39
2, 36154, Control_c, 0, 64, 0
2, 36196, Control_c, 0, 64, 127
2, 36238, Note_on_c, 0, 59, 0
2, 36239, Note_on_c, 0, 56, 0
2, 36258, Note_on_c, 0, 63, 0
2, 36283, Note_on_c, 0, 68, 40
2, 36283, Note_on_c, 0, 63, 40
2, 36284, Note_on_c, 0, 59, 55
2, 36288, Note_on_c, 0, 56, 33
2, 36288, Note_on_c, 0, 65, 46
2, 36347, Note_on_c, 0, 59, 0
2, 36364, Note_on_c, 0, 65, 0
2, 36367, Note_on_c, 0, 68, 0
2, 36367, Note_on_c, 0, 56, 0
2, 36371, Note_on_c, 0, 63, 0
2, 36397, Note_on_c, 0, 49, 0
2, 36424, Note_on_c, 0, 46, 33
2, 36426, Note_on_c, 0, 63, 46
2, 36427, Note_on_c, 0, 58, 37
2, 36429, Control_c, 0, 64, 0
2, 36429, Note_on_c, 0, 67, 49
2, 36431, Note_on_c, 0, 55, 34
2, 36461, Control_c, 0, 64, 127
2, 36478, Note_on_c, 0, 63, 0
2, 36501, Note_on_c, 0, 67, 0
2, 36506, Note_on_c, 0, 55, 0
2, 36508, Note_on_c, 0, 63, 36
2, 36542, Note_on_c, 0, 63, 0
2, 36543, Note_on_c, 0, 58, 0
2, 36557, Note_on_c, 0, 65, 45
2, 36560, Note_on_c, 0, 55, 35
2, 36584, Note_on_c, 0, 46, 0
2, 36609, Note_on_c, 0, 55, 0
2, 36614, Note_on_c, 0, 65, 0
2, 36641, Note_on_c, 0, 67, 57
2, 36644, Note_on_c, 0, 58, 37
2, 36644, Note_on_c, 0, 48, 30
2, 36647, Note_on_c, 0, 64, 39
2, 36648, Control_c, 0, 64, 0
2, 36648, Note_on_c, 0, 61, 37
2, 36650, Note_on_c, 0, 55, 34
2, 36678, Note_on_c, 0, 67, 0
2, 36680, Note_on_c, 0, 64, 0
2, 36686, Control_c, 0, 64, 127
2, 36689, Note_on_c, 0, 58, 0
2, 36690, Note_on_c, 0, 55, 0
2, 36691, Note_on_c, 0, 61, 0
2, 36744, Note_on_c, 0, 48, 0
2, 36772, Note_on_c, 0, 68, 45
2, 36773, Note_on_c, 0, 48, 37
2, 36776, Note_on_c, 0, 61, 40
2, 36777, Note_on_c, 0, 58, 34
2, 36777, Note_on_c, 0, 64, 47
2, 36786, Control_c, 0, 64, 0
2, 36809, Note_on_c, 0, 48, 0
2, 36810, Control_c, 0, 64, 127
2, 36815, Note_on_c, 0, 64, 0
2, 36817, Note_on_c, 0, 68, 0
2, 36821, Note_on_c, 0, 58, 0
2, 36832, Note_on_c, 0, 61, 0
2, 36897, Note_on_c, 0, 62, 51
2, 36898, Note_on_c, 0, 41, 45
2, 36899, Note_on_c, 0, 65, 53
2, 36900, Note_on_c, 0, 57, 48
2, 36905, Note_on_c, 0, 51, 23
2, 36908, Control_c, 0, 64, 0
2, 36956, Note_on_c, 0, 62, 0
2, 36986, Note_on_c, 0, 61, 53
2, 37003, Note_on_c, 0, 57, 0
2, 37010, Note_on_c, 0, 61, 0
2, 37021, Control_c, 0, 64, 127
2, 37025, Note_on_c, 0, 60, 44
2, 37028, Note_on_c, 0, 51, 0
2, 37052, Note_on_c, 0, 60, 0
2, 37059, Control_c, 0, 64, 0
2, 37077, Note_on_c, 0, 51, 42
2, 37091, Control_c, 0, 64, 127
2, 37110, Note_on_c, 0, 65, 0
2, 37115, Note_on_c, 0, 57, 36
2, 37137, Note_on_c, 0, 41, 0
2, 37144, Note_on_c, 0, 57, 0
2, 37149, Control_c, 0, 64, 0
2, 37157, Note_on_c, 0, 58, 51
2, 37159, Note_on_c, 0, 51, 0
2, 37163, Control_c, 0, 64, 127
2, 37177, Note_on_c, 0, 58, 0
2, 37199, Control_c, 0, 64, 0
2, 37205, Note_on_c, 0, 46, 42
2, 37225, Control_c, 0, 64, 127
2, 37253, Note_on_c, 0, 56, 46
2, 37257, Note_on_c, 0, 60, 64
2, 37282, Note_on_c, 0, 56, 0
2, 37289, Note_on_c, 0, 60, 0
2, 37297, Note_on_c, 0, 62, 71
2, 37341, Note_on_c, 0, 62, 0
2, 37348, Control_c, 0, 64, 0
2, 37349, Note_on_c, 0, 56, 47
2, 37373, Control_c, 0, 64, 127
2, 37389, Note_on_c, 0, 63, 59
2, 37391, Note_on_c, 0, 60, 58
2, 37394, Note_on_c, 0, 56, 0
2, 37395, Note_on_c, 0, 46, 0
2, 37411, Note_on_c, 0, 60, 0
2, 37420, Note_on_c, 0, 63, 0
2, 37428, Note_on_c, 0, 46, 37
2, 37432, Note_on_c, 0, 65, 54
2, 37448, Note_on_c, 0, 65, 0
2, 37451, Note_on_c, 0, 46, 0
2, 37484, Control_c, 0, 64, 0
2, 37532, Note_on_c, 0, 67, 45
2, 37532, Note_on_c, 0, 55, 64
2, 37532, Note_on_c, 0, 43, 48
2, 37536, Note_on_c, 0, 63, 25
2, 37538, Note_on_c, 0, 55, 0
2, 37544, Note_on_c, 0, 67, 0
2, 37545, Note_on_c, 0, 63, 0
2, 37550, Note_on_c, 0, 43, 0
2, 37611, Note_on_c, 0, 67, 51
2, 37612, Note_on_c, 0, 43, 49
2, 37613, Note_on_c, 0, 63, 43
2, 37616, Control_c, 0, 64, 127
2, 37617, Note_on_c, 0, 53, 29
2, 37617, Note_on_c, 0, 55, 29
2, 37624, Note_on_c, 0, 55, 0
2, 37627, Note_on_c, 0, 53, 0
2, 37629, Note_on_c, 0, 67, 0
2, 37631, Note_on_c, 0, 43, 0
2, 37639, Note_on_c, 0, 63, 0
2, 37686, Control_c, 0, 64, 0
2, 37690, Note_on_c, 0, 68, 53
2, 37692, Note_on_c, 0, 42, 51
2, 37692, Note_on_c, 0, 56, 46
2, 37694, Note_on_c, 0, 63, 48
2, 37702, Control_c, 0, 64, 127
2, 37708, Note_on_c, 0, 56, 0
2, 37713, Note_on_c, 0, 68, 0
2, 37721, Note_on_c, 0, 63, 0
2, 37726, Note_on_c, 0, 42, 0
2, 37745, Control_c, 0, 64, 0
2, 37749, Note_on_c, 0, 41, 46
2, 37750, Note_on_c, 0, 63, 59
2, 37751, Note_on_c, 0, 70, 61
2, 37753, Note_on_c, 0, 56, 37
2, 37754, Note_on_c, 0, 51, 34
2, 37789, Control_c, 0, 64, 127
2, 37812, Note_on_c, 0, 41, 0
2, 37818, Note_on_c, 0, 56, 0
2, 37821, Note_on_c, 0, 51, 0
2, 37830, Note_on_c, 0, 63, 0
2, 37836, Note_on_c, 0, 70, 0
2, 37881, Control_c, 0, 64, 0
2, 37881, Note_on_c, 0, 71, 58
2, 37886, Note_on_c, 0, 40, 45
2, 37887, Note_on_c, 0, 67, 38
2, 37892, Note_on_c, 0, 56, 29
2, 37893, Note_on_c, 0, 52, 24
2, 37893, Note_on_c, 0, 62, 25
2, 37917, Control_c, 0, 64, 127
2, 37940, Note_on_c, 0, 56, 0
2, 37941, Note_on_c, 0, 62, 0
2, 37943, Note_on_c, 0, 40, 0
2, 37951, Note_on_c, 0, 71, 0
2, 37951, Note_on_c, 0, 67, 0
2, 37952, Note_on_c, 0, 52, 0
2, 38018, Note_on_c, 0, 72, 28
2, 38019, Note_on_c, 0, 39, 46
2, 38020, Note_on_c, 0, 60, 45
2, 38021, Control_c, 0, 64, 0
2, 38022, Note_on_c, 0, 46, 34
2, 38050, Control_c, 0, 64, 127
2, 38055, Note_on_c, 0, 39, 0
2, 38064, Note_on_c, 0, 46, 0
2, 38067, Note_on_c, 0, 60, 0
2, 38078, Note_on_c, 0, 72, 0
2, 38153, Note_on_c, 0, 75, 54
2, 38155, Note_on_c, 0, 55, 46
2, 38157, Note_on_c, 0, 63, 38
2, 38157, Note_on_c, 0, 70, 45
2, 38158, Note_on_c, 0, 67, 48
2, 38163, Note_on_c, 0, 61, 23
2, 38185, Note_on_c, 0, 55, 0
2, 38196, Note_on_c, 0, 61, 0
2, 38214, Note_on_c, 0, 67, 0
2, 38215, Note_on_c, 0, 63, 0
2, 38223, Note_on_c, 0, 70, 0
2, 38231, Note_on_c, 0, 75, 0
2, 38290, Note_on_c, 0, 87, 67
2, 38291, Note_on_c, 0, 75, 67
2, 38294, Note_on_c, 0, 63, 71
2, 38296, Note_on_c, 0, 55, 74
2, 38298, Note_on_c, 0, 57, 57
2, 38299, Note_on_c, 0, 88, 33
2, 38302, Note_on_c, 0, 60, 36
2, 38304, Control_c, 0, 64, 0
2, 38306, Note_on_c, 0, 88, 0
2, 38342, Control_c, 0, 64, 127
2, 38356, Note_on_c, 0, 55, 0
2, 38358, Note_on_c, 0, 63, 0
2, 38359, Note_on_c, 0, 57, 0
2, 38359, Note_on_c, 0, 60, 0
2, 38434, Note_on_c, 0, 54, 37
2, 38436, Note_on_c, 0, 60, 51
2, 38436, Note_on_c, 0, 50, 48
2, 38437, Control_c, 0, 64, 0
2, 38443, Control_c, 0, 64, 127
2, 38467, Note_on_c, 0, 60, 0
2, 38475, Note_on_c, 0, 50, 0
2, 38477, Note_on_c, 0, 54, 0
2, 38500, Note_on_c, 0, 75, 0
2, 38504, Note_on_c, 0, 87, 0
2, 38563, Control_c, 0, 64, 0
2, 38567, Note_on_c, 0, 82, 51
2, 38567, Note_on_c, 0, 86, 68
2, 38569, Note_on_c, 0, 43, 44
2, 38571, Note_on_c, 0, 74, 38
2, 38571, Note_on_c, 0, 50, 30
2, 38593, Control_c, 0, 64, 127
2, 38600, Note_on_c, 0, 43, 0
2, 38605, Note_on_c, 0, 50, 0
2, 38654, Note_on_c, 0, 74, 0
2, 38684, Note_on_c, 0, 82, 0
2, 38700, Note_on_c, 0, 62, 34
2, 38701, Note_on_c, 0, 55, 36
2, 38702, Note_on_c, 0, 58, 40
2, 38703, Note_on_c, 0, 53, 36
2, 38714, Note_on_c, 0, 86, 0
2, 38744, Note_on_c, 0, 53, 0
2, 38745, Note_on_c, 0, 55, 0
2, 38758, Note_on_c, 0, 62, 0
2, 38764, Note_on_c, 0, 58, 0
2, 38832, Note_on_c, 0, 61, 59
2, 38832, Note_on_c, 0, 60, 70
2, 38833, Note_on_c, 0, 65, 68
2, 38837, Note_on_c, 0, 55, 62
2, 38846, Control_c, 0, 64, 0
2, 38872, Control_c, 0, 64, 127
2, 38923, Note_on_c, 0, 60, 0
2, 38924, Note_on_c, 0, 65, 0
2, 38934, Note_on_c, 0, 55, 0
2, 38947, Note_on_c, 0, 61, 0
2, 38970, Note_on_c, 0, 87, 69
2, 38971, Note_on_c, 0, 73, 56
2, 38971, Note_on_c, 0, 61, 50
2, 38973, Note_on_c, 0, 79, 60
2, 38974, Control_c, 0, 64, 0
2, 38974, Note_on_c, 0, 55, 59
2, 38976, Note_on_c, 0, 64, 43
2, 38977, Note_on_c, 0, 85, 30
2, 38984, Note_on_c, 0, 85, 0
2, 38991, Note_on_c, 0, 64, 0
2, 38998, Note_on_c, 0, 61, 0
2, 39002, Note_on_c, 0, 55, 0
2, 39004, Control_c, 0, 64, 127
2, 39051, Note_on_c, 0, 79, 0
2, 39052, Note_on_c, 0, 87, 0
2, 39065, Note_on_c, 0, 45, 30
2, 39067, Note_on_c, 0, 73, 0
2, 39078, Note_on_c, 0, 45, 0
2, 39114, Note_on_c, 0, 72, 38
2, 39115, Note_on_c, 0, 84, 43
2, 39115, Note_on_c, 0, 44, 42
2, 39115, Note_on_c, 0, 55, 52
2, 39117, Note_on_c, 0, 79, 36
2, 39118, Control_c, 0, 64, 0
2, 39140, Control_c, 0, 64, 127
2, 39150, Note_on_c, 0, 44, 0
2, 39154, Note_on_c, 0, 55, 0
2, 39171, Note_on_c, 0, 79, 0
2, 39173, Note_on_c, 0, 84, 0
2, 39200, Note_on_c, 0, 72, 0
2, 39244, Note_on_c, 0, 63, 50
2, 39252, Note_on_c, 0, 58, 35
2, 39255, Note_on_c, 0, 60, 32
2, 39276, Note_on_c, 0, 63, 0
2, 39277, Note_on_c, 0, 60, 0
2, 39293, Note_on_c, 0, 58, 0
2, 39378, Note_on_c, 0, 75, 58
2, 39381, Note_on_c, 0, 68, 52
2, 39385, Note_on_c, 0, 72, 37
2, 39385, Note_on_c, 0, 56, 51
2, 39389, Control_c, 0, 64, 0
2, 39421, Control_c, 0, 64, 127
2, 39435, Note_on_c, 0, 56, 0
2, 39439, Note_on_c, 0, 68, 0
2, 39452, Note_on_c, 0, 72, 0
2, 39455, Note_on_c, 0, 56, 46
2, 39466, Note_on_c, 0, 75, 0
2, 39494, Note_on_c, 0, 56, 0
2, 39520, Note_on_c, 0, 70, 54
2, 39520, Note_on_c, 0, 56, 46
2, 39521, Note_on_c, 0, 65, 54
2, 39521, Note_on_c, 0, 74, 53
2, 39547, Note_on_c, 0, 56, 0
2, 39588, Note_on_c, 0, 65, 0
2, 39590, Note_on_c, 0, 56, 43
2, 39594, Note_on_c, 0, 70, 0
2, 39599, Note_on_c, 0, 74, 0
2, 39655, Note_on_c, 0, 56, 0
2, 39657, Note_on_c, 0, 62, 44
2, 39658, Note_on_c, 0, 70, 38
2, 39660, Note_on_c, 0, 65, 44
2, 39665, Note_on_c, 0, 55, 38
2, 39668, Control_c, 0, 64, 0
2, 39700, Control_c, 0, 64, 127
2, 39709, Note_on_c, 0, 65, 0
2, 39711, Note_on_c, 0, 70, 0
2, 39716, Note_on_c, 0, 55, 0
2, 39725, Note_on_c, 0, 62, 0
2, 39725, Note_on_c, 0, 43, 42
2, 39796, Note_on_c, 0, 62, 49
2, 39797, Note_on_c, 0, 58, 37
2, 39800, Note_on_c, 0, 53, 29
2, 39809, Note_on_c, 0, 43, 0
2, 39834, Note_on_c, 0, 53, 0
2, 39862, Note_on_c, 0, 65, 55
2, 39878, Note_on_c, 0, 58, 0
2, 39886, Note_on_c, 0, 62, 0
2, 39890, Note_on_c, 0, 65, 0
2, 39928, Note_on_c, 0, 43, 36
2, 39931, Note_on_c, 0, 58, 46
2, 39934, Note_on_c, 0, 36, 20
2, 39935, Control_c, 0, 64, 0
2, 39935, Note_on_c, 0, 61, 33
2, 39935, Note_on_c, 0, 52, 40
2, 39936, Note_on_c, 0, 64, 40
2, 39975, Note_on_c, 0, 36, 0
2, 39979, Control_c, 0, 64, 127
2, 39986, Note_on_c, 0, 64, 0
2, 39995, Note_on_c, 0, 43, 0
2, 39997, Note_on_c, 0, 58, 0
2, 40001, Note_on_c, 0, 68, 50
2, 40007, Note_on_c, 0, 52, 0
2, 40007, Note_on_c, 0, 61, 0
2, 40021, Note_on_c, 0, 68, 0
2, 40073, Note_on_c, 0, 75, 69
2, 40076, Note_on_c, 0, 63, 74
2, 40076, Note_on_c, 0, 68, 64
2, 40077, Note_on_c, 0, 64, 65
2, 40127, Note_on_c, 0, 68, 0
2, 40132, Note_on_c, 0, 64, 0
2, 40132, Note_on_c, 0, 75, 0
2, 40134, Note_on_c, 0, 63, 0
2, 40141, Control_c, 0, 64, 0
2, 40145, Note_on_c, 0, 73, 44
2, 40146, Note_on_c, 0, 68, 40
2, 40149, Note_on_c, 0, 58, 53
2, 40150, Note_on_c, 0, 64, 55
2, 40161, Control_c, 0, 64, 127
2, 40172, Note_on_c, 0, 64, 0
2, 40179, Note_on_c, 0, 68, 0
2, 40180, Note_on_c, 0, 73, 0
2, 40186, Note_on_c, 0, 58, 0
2, 40218, Note_on_c, 0, 72, 57
2, 40219, Note_on_c, 0, 67, 64
2, 40222, Control_c, 0, 64, 0
2, 40222, Note_on_c, 0, 60, 54
2, 40223, Note_on_c, 0, 55, 58
2, 40224, Note_on_c, 0, 44, 43
2, 40258, Control_c, 0, 64, 127
2, 40279, Note_on_c, 0, 55, 0
2, 40286, Note_on_c, 0, 67, 0
2, 40296, Note_on_c, 0, 53, 69
2, 40335, Note_on_c, 0, 72, 0
2, 40337, Note_on_c, 0, 60, 0
2, 40367, Note_on_c, 0, 60, 59
2, 40368, Note_on_c, 0, 63, 53
2, 40418, Note_on_c, 0, 44, 0
2, 40436, Note_on_c, 0, 60, 0
2, 40436, Note_on_c, 0, 44, 46
2, 40463, Note_on_c, 0, 53, 0
2, 40470, Note_on_c, 0, 63, 0
2, 40471, Note_on_c, 0, 44, 0
2, 40509, Note_on_c, 0, 63, 53
2, 40509, Note_on_c, 0, 49, 59
2, 40510, Note_on_c, 0, 58, 71
2, 40510, Note_on_c, 0, 59, 57
2, 40526, Control_c, 0, 64, 0
2, 40577, Note_on_c, 0, 58, 0
2, 40587, Note_on_c, 0, 57, 52
2, 40595, Control_c, 0, 64, 127
2, 40643, Note_on_c, 0, 57, 0
2, 40663, Control_c, 0, 64, 0
2, 40666, Note_on_c, 0, 56, 49
2, 40689, Control_c, 0, 64, 127
2, 40702, Note_on_c, 0, 59, 0
2, 40721, Note_on_c, 0, 49, 0
2, 40736, Note_on_c, 0, 49, 26
2, 40742, Note_on_c, 0, 59, 26
2, 40752, Note_on_c, 0, 59, 0
2, 40752, Note_on_c, 0, 56, 0
2, 40760, Note_on_c, 0, 49, 0
2, 40766, Note_on_c, 0, 63, 0
2, 40814, Note_on_c, 0, 67, 53
2, 40814, Note_on_c, 0, 46, 31
2, 40817, Note_on_c, 0, 58, 33
2, 40819, Note_on_c, 0, 63, 34
2, 40821, Note_on_c, 0, 55, 34
2, 40821, Control_c, 0, 64, 0
2, 40855, Control_c, 0, 64, 127
2, 40892, Note_on_c, 0, 67, 0
2, 40893, Note_on_c, 0, 55, 0
2, 40899, Note_on_c, 0, 63, 0
2, 40901, Note_on_c, 0, 58, 0
2, 40928, Note_on_c, 0, 46, 0
2, 40950, Note_on_c, 0, 63, 46
2, 40953, Note_on_c, 0, 46, 31
2, 40953, Note_on_c, 0, 55, 39
2, 40956, Note_on_c, 0, 58, 28
2, 41001, Note_on_c, 0, 55, 0
2, 41007, Note_on_c, 0, 63, 0
2, 41009, Note_on_c, 0, 46, 0
2, 41019, Note_on_c, 0, 58, 0
2, 41039, Note_on_c, 0, 65, 54
2, 41048, Note_on_c, 0, 65, 0
2, 41088, Note_on_c, 0, 48, 39
2, 41090, Control_c, 0, 64, 0
2, 41091, Note_on_c, 0, 55, 46
2, 41092, Note_on_c, 0, 67, 30
2, 41094, Note_on_c, 0, 61, 25
2, 41102, Note_on_c, 0, 64, 17
2, 41105, Note_on_c, 0, 58, 5
2, 41120, Control_c, 0, 64, 127
2, 41155, Note_on_c, 0, 67, 0
2, 41170, Note_on_c, 0, 58, 0
2, 41178, Note_on_c, 0, 61, 0
2, 41178, Note_on_c, 0, 64, 0
2, 41183, Note_on_c, 0, 55, 0
2, 41190, Note_on_c, 0, 68, 63
2, 41192, Note_on_c, 0, 58, 46
2, 41192, Note_on_c, 0, 61, 57
2, 41193, Note_on_c, 0, 64, 37
2, 41194, Note_on_c, 0, 56, 48
2, 41210, Control_c, 0, 64, 0
2, 41236, Control_c, 0, 64, 127
2, 41239, Note_on_c, 0, 56, 0
2, 41242, Note_on_c, 0, 48, 0
2, 41321, Note_on_c, 0, 64, 0
2, 41326, Note_on_c, 0, 48, 34
2, 41327, Note_on_c, 0, 58, 0
2, 41337, Note_on_c, 0, 68, 0
2, 41339, Note_on_c, 0, 61, 0
2, 41373, Note_on_c, 0, 48, 0
2, 41376, Note_on_c, 0, 61, 57
2, 41380, Note_on_c, 0, 51, 36
2, 41381, Note_on_c, 0, 41, 43
2, 41383, Note_on_c, 0, 57, 26
2, 41384, Note_on_c, 0, 65, 42
2, 41389, Control_c, 0, 64, 0
2, 41406, Note_on_c, 0, 61, 0
2, 41412, Note_on_c, 0, 62, 33
2, 41435, Control_c, 0, 64, 127
2, 41443, Note_on_c, 0, 62, 0
2, 41452, Note_on_c, 0, 57, 0
2, 41461, Note_on_c, 0, 65, 0
2, 41466, Note_on_c, 0, 62, 48
2, 41475, Note_on_c, 0, 57, 20
2, 41482, Note_on_c, 0, 57, 0
2, 41507, Note_on_c, 0, 62, 0
2, 41510, Note_on_c, 0, 41, 0
2, 41514, Note_on_c, 0, 63, 48
2, 41535, Note_on_c, 0, 51, 0
2, 41581, Note_on_c, 0, 63, 0
2, 41597, Note_on_c, 0, 65, 55
2, 41597, Note_on_c, 0, 63, 31
2, 41601, Note_on_c, 0, 46, 37
2, 41601, Note_on_c, 0, 60, 57
2, 41605, Control_c, 0, 64, 0
2, 41607, Note_on_c, 0, 56, 28
2, 41654, Control_c, 0, 64, 127
2, 41672, Note_on_c, 0, 60, 0
2, 41692, Note_on_c, 0, 56, 0
2, 41695, Note_on_c, 0, 46, 0
2, 41701, Note_on_c, 0, 63, 0
2, 41707, Note_on_c, 0, 65, 0
2, 41732, Note_on_c, 0, 46, 32
2, 41732, Note_on_c, 0, 67, 51
2, 41734, Note_on_c, 0, 62, 57
2, 41738, Note_on_c, 0, 55, 41
2, 41746, Control_c, 0, 64, 0
2, 41767, Note_on_c, 0, 55, 0
2, 41772, Control_c, 0, 64, 127
2, 41776, Note_on_c, 0, 34, 46
2, 41803, Note_on_c, 0, 62, 0
2, 41806, Note_on_c, 0, 67, 0
2, 41818, Note_on_c, 0, 46, 0
2, 41866, Note_on_c, 0, 34, 0
2, 41872, Note_on_c, 0, 46, 38
2, 41924, Note_on_c, 0, 46, 0
2, 41950, Control_c, 0, 64, 0
2, 41954, Note_on_c, 0, 46, 38
2, 41954, Note_on_c, 0, 63, 43
2, 41959, Note_on_c, 0, 55, 37
2, 41964, Note_on_c, 0, 58, 20
2, 41966, Note_on_c, 0, 60, 25
2, 41997, Note_on_c, 0, 60, 0
2, 41998, Note_on_c, 0, 55, 0
2, 42007, Note_on_c, 0, 58, 0
2, 42010, Note_on_c, 0, 63, 0
2, 42015, Note_on_c, 0, 46, 0
2, 42043, Control_c, 0, 64, 127
2, 42051, Note_on_c, 0, 46, 33
2, 42054, Note_on_c, 0, 63, 31
2, 42057, Note_on_c, 0, 55, 31
2, 42061, Note_on_c, 0, 60, 29
2, 42075, Note_on_c, 0, 55, 0
2, 42080, Note_on_c, 0, 60, 0
2, 42090, Note_on_c, 0, 63, 0
2, 42151, Note_on_c, 0, 67, 49
2, 42152, Note_on_c, 0, 60, 49
2, 42152, Note_on_c, 0, 63, 34
2, 42153, Note_on_c, 0, 56, 32
2, 42161, Control_c, 0, 64, 0
2, 42185, Control_c, 0, 64, 127
2, 42232, Note_on_c, 0, 60, 0
2, 42235, Note_on_c, 0, 46, 0
2, 42244, Note_on_c, 0, 63, 0
2, 42253, Note_on_c, 0, 67, 0
2, 42284, Note_on_c, 0, 46, 33
2, 42334, Note_on_c, 0, 46, 0
2, 42337, Note_on_c, 0, 56, 0
2, 42388, Note_on_c, 0, 79, 51
2, 42411, Note_on_c, 0, 79, 0
2, 42424, Note_on_c, 0, 86, 81
2, 42451, Note_on_c, 0, 86, 0
2, 42460, Control_c, 0, 64, 0
2, 42464, Note_on_c, 0, 67, 34
2, 42465, Note_on_c, 0, 63, 30
2, 42466, Note_on_c, 0, 82, 50
2, 42471, Note_on_c, 0, 62, 32
2, 42480, Control_c, 0, 64, 127
2, 42599, Note_on_c, 0, 82, 0
2, 42605, Note_on_c, 0, 79, 40
2, 42606, Note_on_c, 0, 58, 35
2, 42608, Note_on_c, 0, 74, 43
2, 42641, Note_on_c, 0, 67, 0
2, 42644, Note_on_c, 0, 62, 0
2, 42648, Note_on_c, 0, 63, 0
2, 42664, Note_on_c, 0, 58, 0
2, 42748, Note_on_c, 0, 46, 36
2, 42769, Note_on_c, 0, 46, 0
2, 42813, Note_on_c, 0, 74, 0
2, 42836, Note_on_c, 0, 79, 0
2, 42883, Note_on_c, 0, 67, 30
2, 42885, Note_on_c, 0, 62, 36
2, 42886, Note_on_c, 0, 63, 25
2, 42889, Note_on_c, 0, 58, 20
2, 42936, Note_on_c, 0, 79, 50
2, 42947, Note_on_c, 0, 67, 0
2, 42951, Note_on_c, 0, 79, 0
2, 42956, Note_on_c, 0, 62, 0
2, 42973, Note_on_c, 0, 86, 95
2, 42976, Note_on_c, 0, 63, 0
2, 43006, Note_on_c, 0, 86, 0
2, 43013, Note_on_c, 0, 58, 0
2, 43018, Note_on_c, 0, 84, 84
2, 43019, Note_on_c, 0, 68, 48
2, 43020, Note_on_c, 0, 60, 44
2, 43022, Note_on_c, 0, 63, 46
2, 43025, Control_c, 0, 64, 0
2, 43047, Control_c, 0, 64, 127
2, 43105, Note_on_c, 0, 80, 67
2, 43147, Note_on_c, 0, 84, 0
2, 43152, Note_on_c, 0, 80, 0
2, 43156, Note_on_c, 0, 58, 35
2, 43178, Note_on_c, 0, 60, 0
2, 43185, Note_on_c, 0, 68, 0
2, 43189, Note_on_c, 0, 63, 0
2, 43207, Note_on_c, 0, 58, 0
2, 43303, Note_on_c, 0, 62, 40
2, 43304, Note_on_c, 0, 46, 29
2, 43307, Note_on_c, 0, 59, 36
2, 43311, Note_on_c, 0, 56, 23
2, 43322, Control_c, 0, 64, 0
2, 43370, Control_c, 0, 64, 127
2, 43407, Note_on_c, 0, 56, 0
2, 43447, Note_on_c, 0, 56, 34
2, 43468, Note_on_c, 0, 56, 0
2, 43477, Note_on_c, 0, 46, 0
2, 43486, Note_on_c, 0, 59, 0
2, 43495, Note_on_c, 0, 63, 60
2, 43502, Note_on_c, 0, 62, 0
2, 43521, Note_on_c, 0, 63, 0
2, 43540, Note_on_c, 0, 44, 39
2, 43542, Note_on_c, 0, 54, 25
2, 43564, Note_on_c, 0, 54, 0
2, 43583, Note_on_c, 0, 44, 0
2, 43590, Note_on_c, 0, 72, 41
2, 43592, Note_on_c, 0, 65, 51
2, 43595, Control_c, 0, 64, 0
2, 43595, Note_on_c, 0, 43, 37
2, 43596, Note_on_c, 0, 53, 39
2, 43635, Control_c, 0, 64, 127
2, 43639, Note_on_c, 0, 72, 0
2, 43670, Note_on_c, 0, 65, 0
2, 43680, Note_on_c, 0, 53, 0
2, 43734, Note_on_c, 0, 53, 40
2, 43751, Note_on_c, 0, 53, 0
2, 43755, Note_on_c, 0, 43, 0
2, 43770, Note_on_c, 0, 61, 31
2, 43780, Control_c, 0, 64, 0
2, 43785, Note_on_c, 0, 61, 0
2, 43786, Note_on_c, 0, 63, 39
2, 43792, Note_on_c, 0, 63, 0
2, 43802, Note_on_c, 0, 64, 48
2, 43814, Note_on_c, 0, 64, 0
2, 43823, Note_on_c, 0, 66, 50
2, 43829, Note_on_c, 0, 66, 0
2, 43847, Note_on_c, 0, 67, 38
2, 43862, Note_on_c, 0, 67, 0
2, 43864, Note_on_c, 0, 69, 49
2, 43878, Note_on_c, 0, 69, 0
2, 43883, Note_on_c, 0, 70, 55
2, 43890, Note_on_c, 0, 70, 0
2, 43903, Note_on_c, 0, 72, 45
2, 43916, Note_on_c, 0, 72, 0
2, 43920, Note_on_c, 0, 73, 35
2, 43935, Note_on_c, 0, 73, 0
2, 43953, Note_on_c, 0, 76, 49
2, 43967, Note_on_c, 0, 76, 0
2, 43973, Note_on_c, 0, 78, 42
2, 43980, Note_on_c, 0, 78, 0
2, 43996, Note_on_c, 0, 79, 43
2, 44018, Note_on_c, 0, 79, 0
2, 44021, Note_on_c, 0, 81, 51
2, 44035, Note_on_c, 0, 81, 0
2, 44037, Note_on_c, 0, 43, 15
2, 44039, Note_on_c, 0, 36, 43
2, 44045, Note_on_c, 0, 52, 35
2, 44048, Note_on_c, 0, 82, 55
2, 44057, Note_on_c, 0, 82, 0
2, 44084, Note_on_c, 0, 84, 70
2, 44085, Note_on_c, 0, 36, 0
2, 44089, Note_on_c, 0, 43, 0
2, 44107, Note_on_c, 0, 52, 0
2, 44112, Note_on_c, 0, 84, 0
2, 44123, Note_on_c, 0, 82, 47
2, 44138, Note_on_c, 0, 82, 0
2, 44147, Control_c, 0, 64, 127
2, 44158, Note_on_c, 0, 81, 62
2, 44182, Note_on_c, 0, 81, 0
2, 44195, Note_on_c, 0, 80, 47
2, 44201, Note_on_c, 0, 63, 19
2, 44203, Note_on_c, 0, 57, 32
2, 44205, Control_c, 0, 64, 0
2, 44206, Note_on_c, 0, 65, 28
2, 44212, Note_on_c, 0, 80, 0
2, 44249, Note_on_c, 0, 77, 59
2, 44288, Note_on_c, 0, 77, 0
2, 44292, Note_on_c, 0, 76, 66
2, 44293, Note_on_c, 0, 65, 0
2, 44307, Note_on_c, 0, 63, 0
2, 44307, Control_c, 0, 64, 127
2, 44312, Note_on_c, 0, 76, 0
2, 44329, Note_on_c, 0, 79, 75
2, 44335, Control_c, 0, 64, 0
2, 44343, Note_on_c, 0, 65, 28
2, 44345, Note_on_c, 0, 63, 25
2, 44365, Note_on_c, 0, 78, 50
2, 44366, Note_on_c, 0, 79, 0
2, 44377, Note_on_c, 0, 78, 0
2, 44377, Control_c, 0, 64, 127
2, 44397, Note_on_c, 0, 77, 62
2, 44413, Note_on_c, 0, 57, 0
2, 44419, Note_on_c, 0, 65, 0
2, 44423, Note_on_c, 0, 77, 0
2, 44431, Note_on_c, 0, 75, 51
2, 44449, Note_on_c, 0, 63, 0
2, 44457, Note_on_c, 0, 75, 0
2, 44474, Note_on_c, 0, 72, 30
2, 44489, Control_c, 0, 64, 0
2, 44492, Note_on_c, 0, 72, 0
2, 44502, Note_on_c, 0, 67, 32
2, 44503, Note_on_c, 0, 63, 23
2, 44507, Note_on_c, 0, 75, 61
2, 44507, Note_on_c, 0, 56, 21
2, 44511, Note_on_c, 0, 60, 30
2, 44526, Control_c, 0, 64, 127
2, 44534, Note_on_c, 0, 67, 0
2, 44539, Note_on_c, 0, 75, 0
2, 44540, Note_on_c, 0, 60, 0
2, 44548, Note_on_c, 0, 63, 0
2, 44549, Note_on_c, 0, 72, 35
2, 44564, Note_on_c, 0, 56, 0
2, 44569, Note_on_c, 0, 72, 0
2, 44587, Note_on_c, 0, 73, 62
2, 44612, Note_on_c, 0, 73, 0
2, 44623, Note_on_c, 0, 74, 74
2, 44656, Note_on_c, 0, 74, 0
2, 44662, Control_c, 0, 64, 0
2, 44662, Note_on_c, 0, 46, 32
2, 44663, Note_on_c, 0, 56, 27
2, 44704, Control_c, 0, 64, 127
2, 44727, Note_on_c, 0, 67, 55
2, 44746, Note_on_c, 0, 67, 0
2, 44757, Note_on_c, 0, 46, 0
2, 44766, Note_on_c, 0, 46, 38
2, 44790, Note_on_c, 0, 56, 0
2, 44819, Note_on_c, 0, 70, 43
2, 44820, Note_on_c, 0, 62, 41
2, 44820, Note_on_c, 0, 67, 41
2, 44824, Note_on_c, 0, 55, 41
2, 44826, Control_c, 0, 64, 0
2, 44881, Control_c, 0, 64, 127
2, 44894, Note_on_c, 0, 46, 0
2, 44909, Note_on_c, 0, 67, 0
2, 44909, Note_on_c, 0, 46, 58
2, 44921, Note_on_c, 0, 62, 0
2, 44928, Note_on_c, 0, 70, 0
2, 44962, Note_on_c, 0, 67, 58
2, 44978, Note_on_c, 0, 55, 0
2, 44990, Note_on_c, 0, 67, 0
2, 44997, Control_c, 0, 64, 0
2, 45005, Note_on_c, 0, 70, 65
2, 45027, Note_on_c, 0, 70, 0
2, 45101, Note_on_c, 0, 67, 55
2, 45104, Note_on_c, 0, 55, 38
2, 45108, Note_on_c, 0, 60, 28
2, 45109, Control_c, 0, 64, 127
2, 45131, Note_on_c, 0, 60, 0
2, 45152, Note_on_c, 0, 70, 50
2, 45153, Note_on_c, 0, 67, 0
2, 45191, Note_on_c, 0, 70, 0
2, 45218, Note_on_c, 0, 55, 0
2, 45247, Note_on_c, 0, 67, 60
2, 45249, Note_on_c, 0, 62, 41
2, 45254, Note_on_c, 0, 55, 33
2, 45260, Control_c, 0, 64, 0
2, 45288, Control_c, 0, 64, 127
2, 45305, Note_on_c, 0, 46, 0
2, 45332, Note_on_c, 0, 62, 0
2, 45336, Note_on_c, 0, 46, 35
2, 45354, Note_on_c, 0, 55, 0
2, 45356, Note_on_c, 0, 67, 0
2, 45374, Note_on_c, 0, 46, 0
2, 45386, Control_c, 0, 64, 0
2, 45391, Note_on_c, 0, 45, 44
2, 45391, Note_on_c, 0, 63, 42
2, 45391, Note_on_c, 0, 69, 54
2, 45398, Note_on_c, 0, 60, 34
2, 45399, Note_on_c, 0, 55, 19
2, 45406, Control_c, 0, 64, 127
2, 45413, Note_on_c, 0, 45, 0
2, 45421, Note_on_c, 0, 60, 0
2, 45425, Note_on_c, 0, 55, 0
2, 45429, Note_on_c, 0, 63, 0
2, 45432, Note_on_c, 0, 69, 0
2, 45485, Note_on_c, 0, 63, 62
2, 45486, Note_on_c, 0, 67, 66
2, 45486, Note_on_c, 0, 72, 54
2, 45486, Note_on_c, 0, 60, 60
2, 45487, Note_on_c, 0, 69, 57
2, 45501, Control_c, 0, 64, 0
2, 45514, Note_on_c, 0, 69, 0
2, 45535, Control_c, 0, 64, 127
2, 45587, Note_on_c, 0, 72, 0
2, 45596, Note_on_c, 0, 69, 43
2, 45603, Note_on_c, 0, 67, 0
2, 45604, Note_on_c, 0, 63, 0
2, 45613, Note_on_c, 0, 69, 0
2, 45631, Note_on_c, 0, 72, 48
2, 45635, Note_on_c, 0, 60, 0
2, 45665, Note_on_c, 0, 72, 0
2, 45677, Control_c, 0, 64, 0
2, 45678, Note_on_c, 0, 50, 37
2, 45679, Note_on_c, 0, 63, 33
2, 45680, Note_on_c, 0, 66, 37
2, 45682, Note_on_c, 0, 69, 43
2, 45686, Note_on_c, 0, 60, 20
2, 45712, Control_c, 0, 64, 127
2, 45728, Note_on_c, 0, 60, 0
2, 45742, Note_on_c, 0, 63, 0
2, 45750, Note_on_c, 0, 69, 0
2, 45751, Note_on_c, 0, 66, 0
2, 45776, Note_on_c, 0, 66, 27
2, 45776, Note_on_c, 0, 60, 40
2, 45776, Note_on_c, 0, 63, 35
2, 45778, Note_on_c, 0, 72, 26
2, 45790, Control_c, 0, 64, 0
2, 45808, Note_on_c, 0, 63, 0
2, 45814, Control_c, 0, 64, 127
2, 45819, Note_on_c, 0, 66, 0
2, 45833, Note_on_c, 0, 72, 0
2, 45853, Note_on_c, 0, 50, 0
2, 45867, Note_on_c, 0, 60, 0
2, 45880, Note_on_c, 0, 69, 40
2, 45902, Note_on_c, 0, 69, 0
2, 45918, Note_on_c, 0, 72, 43
2, 45949, Note_on_c, 0, 72, 0
2, 45965, Note_on_c, 0, 74, 46
2, 45966, Control_c, 0, 64, 0
2, 45971, Note_on_c, 0, 55, 35
2, 45998, Control_c, 0, 64, 127
2, 46063, Note_on_c, 0, 62, 39
2, 46070, Note_on_c, 0, 58, 25
2, 46135, Note_on_c, 0, 55, 0
2, 46201, Note_on_c, 0, 55, 44
2, 46221, Note_on_c, 0, 55, 0
2, 46252, Note_on_c, 0, 54, 59
2, 46255, Note_on_c, 0, 58, 0
2, 46255, Control_c, 0, 64, 0
2, 46267, Control_c, 0, 64, 127
2, 46272, Note_on_c, 0, 62, 0
2, 46281, Note_on_c, 0, 74, 0
2, 46342, Note_on_c, 0, 74, 64
2, 46347, Note_on_c, 0, 66, 58
2, 46347, Note_on_c, 0, 62, 48
2, 46348, Note_on_c, 0, 63, 51
2, 46349, Note_on_c, 0, 69, 54
2, 46353, Control_c, 0, 64, 0
2, 46389, Control_c, 0, 64, 127
2, 46437, Note_on_c, 0, 63, 0
2, 46451, Note_on_c, 0, 54, 0
2, 46453, Note_on_c, 0, 69, 0
2, 46463, Note_on_c, 0, 66, 0
2, 46465, Note_on_c, 0, 74, 0
2, 46491, Note_on_c, 0, 54, 35
2, 46533, Note_on_c, 0, 54, 0
2, 46541, Note_on_c, 0, 62, 0
2, 46548, Note_on_c, 0, 77, 72
2, 46551, Note_on_c, 0, 53, 55
2, 46552, Control_c, 0, 64, 0
2, 46578, Control_c, 0, 64, 127
2, 46612, Note_on_c, 0, 77, 0
2, 46637, Note_on_c, 0, 67, 54
2, 46642, Note_on_c, 0, 63, 18
2, 46645, Note_on_c, 0, 60, 31
2, 46665, Note_on_c, 0, 67, 0
2, 46671, Note_on_c, 0, 68, 40
2, 46701, Note_on_c, 0, 68, 0
2, 46704, Note_on_c, 0, 70, 58
2, 46707, Note_on_c, 0, 60, 0
2, 46714, Note_on_c, 0, 53, 0
2, 46718, Note_on_c, 0, 63, 0
2, 46720, Note_on_c, 0, 70, 0
2, 46728, Note_on_c, 0, 72, 55
2, 46753, Note_on_c, 0, 74, 57
2, 46755, Note_on_c, 0, 72, 0
2, 46778, Note_on_c, 0, 75, 64
2, 46780, Note_on_c, 0, 74, 0
2, 46796, Note_on_c, 0, 75, 0
2, 46804, Note_on_c, 0, 77, 62
2, 46825, Control_c, 0, 64, 0
2, 46825, Note_on_c, 0, 79, 59
2, 46830, Note_on_c, 0, 77, 0
2, 46831, Note_on_c, 0, 67, 30
2, 46834, Note_on_c, 0, 56, 27
2, 46835, Note_on_c, 0, 62, 32
2, 46845, Note_on_c, 0, 67, 0
2, 46849, Control_c, 0, 64, 127
2, 46850, Note_on_c, 0, 80, 51
2, 46851, Note_on_c, 0, 62, 0
2, 46854, Note_on_c, 0, 79, 0
2, 46866, Note_on_c, 0, 56, 0
2, 46868, Note_on_c, 0, 80, 0
2, 46877, Note_on_c, 0, 82, 45
2, 46884, Note_on_c, 0, 82, 0
2, 46897, Note_on_c, 0, 84, 42
2, 46916, Note_on_c, 0, 84, 0
2, 46922, Note_on_c, 0, 86, 55
2, 46939, Note_on_c, 0, 86, 0
2, 46962, Note_on_c, 0, 89, 48
2, 46985, Note_on_c, 0, 91, 36
2, 46985, Note_on_c, 0, 46, 30
2, 46986, Note_on_c, 0, 89, 0
2, 46989, Note_on_c, 0, 56, 18
2, 47010, Note_on_c, 0, 93, 26
2, 47013, Note_on_c, 0, 91, 0
2, 47017, Note_on_c, 0, 93, 0
2, 47040, Note_on_c, 0, 95, 36
2, 47045, Note_on_c, 0, 46, 0
2, 47049, Note_on_c, 0, 95, 0
2, 47069, Note_on_c, 0, 97, 25
2, 47072, Note_on_c, 0, 46, 25
2, 47091, Note_on_c, 0, 56, 0
2, 47093, Note_on_c, 0, 97, 0
2, 47102, Note_on_c, 0, 98, 40
2, 47111, Note_on_c, 0, 46, 0
2, 47118, Note_on_c, 0, 98, 0
2, 47127, Control_c, 0, 64, 0
2, 47128, Note_on_c, 0, 45, 49
2, 47130, Note_on_c, 0, 55, 38
2, 47131, Note_on_c, 0, 99, 49
2, 47158, Control_c, 0, 64, 127
2, 47173, Note_on_c, 0, 45, 0
2, 47185, Note_on_c, 0, 55, 0
2, 47221, Note_on_c, 0, 99, 0
2, 47268, Note_on_c, 0, 55, 52
2, 47269, Note_on_c, 0, 63, 49
2, 47276, Note_on_c, 0, 57, 36
2, 47335, Note_on_c, 0, 55, 0
2, 47336, Note_on_c, 0, 57, 0
2, 47342, Note_on_c, 0, 63, 0
2, 47412, Note_on_c, 0, 87, 68
2, 47416, Note_on_c, 0, 75, 57
2, 47417, Note_on_c, 0, 54, 45
2, 47419, Note_on_c, 0, 60, 54
2, 47420, Control_c, 0, 64, 0
2, 47421, Note_on_c, 0, 58, 37
2, 47422, Note_on_c, 0, 65, 38
2, 47456, Note_on_c, 0, 65, 0
2, 47458, Control_c, 0, 64, 127
2, 47464, Note_on_c, 0, 60, 0
2, 47471, Note_on_c, 0, 58, 0
2, 47475, Note_on_c, 0, 54, 0
2, 47553, Note_on_c, 0, 50, 43
2, 47555, Note_on_c, 0, 54, 34
2, 47558, Note_on_c, 0, 60, 32
2, 47592, Note_on_c, 0, 60, 0
2, 47599, Note_on_c, 0, 87, 0
2, 47604, Note_on_c, 0, 75, 0
2, 47604, Note_on_c, 0, 50, 0
2, 47604, Note_on_c, 0, 54, 0
2, 47701, Note_on_c, 0, 74, 76
2, 47701, Note_on_c, 0, 70, 73
2, 47704, Note_on_c, 0, 67, 64
2, 47705, Note_on_c, 0, 62, 57
2, 47706, Note_on_c, 0, 55, 60
2, 47713, Control_c, 0, 64, 0
2, 47753, Control_c, 0, 64, 127
2, 47791, Note_on_c, 0, 74, 0
2, 47795, Note_on_c, 0, 70, 0
2, 47796, Note_on_c, 0, 62, 0
2, 47798, Note_on_c, 0, 67, 0
2, 47798, Note_on_c, 0, 55, 0
2, 47851, Note_on_c, 0, 74, 75
2, 47852, Note_on_c, 0, 67, 77
2, 47852, Note_on_c, 0, 70, 68
2, 47852, Note_on_c, 0, 62, 81
2, 47854, Note_on_c, 0, 53, 69
2, 47858, Control_c, 0, 64, 0
2, 47896, Control_c, 0, 64, 127
2, 47928, Note_on_c, 0, 62, 0
2, 47931, Note_on_c, 0, 67, 0
2, 47939, Note_on_c, 0, 70, 0
2, 47941, Note_on_c, 0, 53, 0
2, 47959, Note_on_c, 0, 74, 0
2, 47998, Note_on_c, 0, 74, 64
2, 48000, Note_on_c, 0, 40, 53
2, 48000, Note_on_c, 0, 62, 62
2, 48001, Note_on_c, 0, 67, 66
2, 48002, Control_c, 0, 64, 0
2, 48005, Note_on_c, 0, 52, 39
2, 48044, Control_c, 0, 64, 127
2, 48056, Note_on_c, 0, 40, 0
2, 48071, Note_on_c, 0, 62, 0
2, 48074, Note_on_c, 0, 52, 0
2, 48074, Note_on_c, 0, 67, 0
2, 48085, Note_on_c, 0, 74, 0
2, 48145, Note_on_c, 0, 61, 46
2, 48145, Note_on_c, 0, 66, 57
2, 48145, Note_on_c, 0, 70, 60
2, 48148, Note_on_c, 0, 45, 39
2, 48150, Note_on_c, 0, 55, 40
2, 48154, Control_c, 0, 64, 0
2, 48196, Control_c, 0, 64, 127
2, 48220, Note_on_c, 0, 45, 0
2, 48224, Note_on_c, 0, 55, 0
2, 48247, Note_on_c, 0, 61, 0
2, 48256, Note_on_c, 0, 70, 0
2, 48260, Note_on_c, 0, 66, 0
2, 48290, Note_on_c, 0, 72, 57
2, 48291, Note_on_c, 0, 44, 43
2, 48293, Note_on_c, 0, 60, 38
2, 48293, Note_on_c, 0, 55, 42
2, 48294, Note_on_c, 0, 65, 40
2, 48297, Control_c, 0, 64, 0
2, 48339, Control_c, 0, 64, 127
2, 48363, Note_on_c, 0, 72, 0
2, 48369, Note_on_c, 0, 65, 0
2, 48374, Note_on_c, 0, 55, 0
2, 48380, Note_on_c, 0, 60, 0
2, 48433, Note_on_c, 0, 63, 39
2, 48433, Note_on_c, 0, 67, 48
2, 48436, Note_on_c, 0, 53, 43
2, 48437, Note_on_c, 0, 60, 36
2, 48441, Control_c, 0, 64, 0
2, 48475, Control_c, 0, 64, 127
2, 48497, Note_on_c, 0, 67, 0
2, 48497, Note_on_c, 0, 63, 0
2, 48501, Note_on_c, 0, 60, 0
2, 48512, Note_on_c, 0, 53, 0
2, 48539, Note_on_c, 0, 44, 0
2, 48569, Note_on_c, 0, 56, 38
2, 48572, Note_on_c, 0, 60, 51
2, 48573, Note_on_c, 0, 46, 37
2, 48582, Control_c, 0, 64, 0
2, 48622, Control_c, 0, 64, 127
2, 48629, Note_on_c, 0, 56, 0
2, 48652, Note_on_c, 0, 60, 0
2, 48709, Note_on_c, 0, 63, 42
2, 48711, Note_on_c, 0, 60, 56
2, 48711, Note_on_c, 0, 56, 38
2, 48711, Note_on_c, 0, 65, 47
2, 48744, Note_on_c, 0, 56, 0
2, 48749, Note_on_c, 0, 46, 0
2, 48779, Note_on_c, 0, 65, 0
2, 48779, Note_on_c, 0, 60, 0
2, 48781, Note_on_c, 0, 44, 36
2, 48787, Note_on_c, 0, 63, 0
2, 48831, Note_on_c, 0, 44, 0
2, 48854, Note_on_c, 0, 70, 49
2, 48855, Control_c, 0, 64, 0
2, 48856, Note_on_c, 0, 43, 43
2, 48857, Note_on_c, 0, 62, 46
2, 48861, Note_on_c, 0, 58, 25
2, 48861, Note_on_c, 0, 53, 32
2, 48866, Note_on_c, 0, 65, 29
2, 48878, Control_c, 0, 64, 127
2, 48885, Note_on_c, 0, 65, 0
2, 48890, Note_on_c, 0, 62, 0
2, 48891, Note_on_c, 0, 58, 0
2, 48904, Note_on_c, 0, 70, 0
2, 48937, Note_on_c, 0, 74, 74
2, 48975, Note_on_c, 0, 74, 0
2, 48975, Note_on_c, 0, 43, 0
2, 48992, Note_on_c, 0, 53, 0
2, 49007, Note_on_c, 0, 74, 79
2, 49056, Note_on_c, 0, 74, 0
2, 49075, Note_on_c, 0, 72, 68
2, 49125, Note_on_c, 0, 72, 0
2, 49150, Note_on_c, 0, 72, 62
2, 49150, Note_on_c, 0, 52, 41
2, 49152, Note_on_c, 0, 63, 30
2, 49156, Note_on_c, 0, 58, 32
2, 49161, Control_c, 0, 64, 0
2, 49221, Note_on_c, 0, 70, 71
2, 49223, Control_c, 0, 64, 127
2, 49231, Note_on_c, 0, 72, 0
2, 49254, Note_on_c, 0, 70, 0
2, 49265, Note_on_c, 0, 63, 0
2, 49302, Note_on_c, 0, 58, 0
2, 49304, Note_on_c, 0, 75, 68
2, 49307, Note_on_c, 0, 70, 67
2, 49307, Note_on_c, 0, 64, 68
2, 49310, Note_on_c, 0, 63, 60
2, 49316, Control_c, 0, 64, 0
2, 49319, Note_on_c, 0, 52, 0
2, 49356, Control_c, 0, 64, 127
2, 49381, Note_on_c, 0, 70, 0
2, 49384, Note_on_c, 0, 63, 0
2, 49386, Note_on_c, 0, 73, 43
2, 49399, Note_on_c, 0, 75, 0
2, 49409, Note_on_c, 0, 64, 0
2, 49429, Note_on_c, 0, 72, 55
2, 49444, Note_on_c, 0, 73, 0
2, 49453, Note_on_c, 0, 72, 0
2, 49473, Note_on_c, 0, 72, 42
2, 49474, Note_on_c, 0, 44, 44
2, 49480, Control_c, 0, 64, 0
2, 49522, Control_c, 0, 64, 127
2, 49627, Note_on_c, 0, 64, 37
2, 49629, Note_on_c, 0, 60, 31
2, 49634, Note_on_c, 0, 55, 24
2, 49668, Note_on_c, 0, 72, 0
2, 49681, Note_on_c, 0, 55, 0
2, 49752, Note_on_c, 0, 64, 0
2, 49754, Note_on_c, 0, 60, 0
2, 49827, Note_on_c, 0, 44, 0
2, 49856, Note_on_c, 0, 68, 46
2, 49860, Note_on_c, 0, 59, 48
2, 49860, Note_on_c, 0, 63, 40
2, 49863, Note_on_c, 0, 49, 33
2, 49875, Control_c, 0, 64, 0
2, 49903, Control_c, 0, 64, 127
2, 49928, Note_on_c, 0, 63, 0
2, 49945, Note_on_c, 0, 59, 0
2, 49994, Note_on_c, 0, 49, 0
2, 50002, Note_on_c, 0, 63, 42
2, 50007, Note_on_c, 0, 68, 0
2, 50019, Note_on_c, 0, 63, 0
2, 50086, Note_on_c, 0, 67, 51
2, 50088, Note_on_c, 0, 39, 42
2, 50088, Note_on_c, 0, 55, 48
2, 50089, Note_on_c, 0, 59, 54
2, 50090, Note_on_c, 0, 62, 45
2, 50092, Control_c, 0, 64, 0
2, 50093, Note_on_c, 0, 47, 33
2, 50136, Control_c, 0, 64, 127
2, 50163, Note_on_c, 0, 62, 0
2, 50179, Note_on_c, 0, 59, 0
2, 50188, Note_on_c, 0, 55, 0
2, 50213, Note_on_c, 0, 67, 0
2, 50236, Note_on_c, 0, 47, 0
2, 50244, Note_on_c, 0, 63, 46
2, 50245, Note_on_c, 0, 48, 38
2, 50247, Note_on_c, 0, 59, 48
2, 50249, Note_on_c, 0, 55, 33
2, 50256, Control_c, 0, 64, 0
2, 50294, Control_c, 0, 64, 127
2, 50301, Note_on_c, 0, 39, 0
2, 50305, Note_on_c, 0, 48, 0
2, 50306, Note_on_c, 0, 55, 0
2, 50315, Note_on_c, 0, 59, 0
2, 50317, Note_on_c, 0, 65, 49
2, 50328, Note_on_c, 0, 63, 0
2, 50368, Note_on_c, 0, 65, 0
2, 50390, Note_on_c, 0, 36, 29
2, 50390, Note_on_c, 0, 67, 47
2, 50393, Note_on_c, 0, 43, 25
2, 50393, Note_on_c, 0, 58, 31
2, 50394, Note_on_c, 0, 61, 38
2, 50398, Note_on_c, 0, 64, 38
2, 50399, Control_c, 0, 64, 0
2, 50415, Note_on_c, 0, 43, 0
2, 50467, Note_on_c, 0, 43, 58
2, 50473, Control_c, 0, 64, 127
2, 50474, Note_on_c, 0, 67, 0
2, 50487, Note_on_c, 0, 36, 0
2, 50493, Note_on_c, 0, 58, 0
2, 50514, Note_on_c, 0, 64, 0
2, 50520, Note_on_c, 0, 61, 0
2, 50541, Note_on_c, 0, 68, 65
2, 50542, Note_on_c, 0, 61, 60
2, 50542, Note_on_c, 0, 58, 67
2, 50543, Note_on_c, 0, 64, 65
2, 50546, Note_on_c, 0, 52, 54
2, 50576, Note_on_c, 0, 43, 0
2, 50587, Note_on_c, 0, 52, 0
2, 50618, Note_on_c, 0, 64, 0
2, 50621, Note_on_c, 0, 58, 0
2, 50622, Note_on_c, 0, 36, 39
2, 50625, Note_on_c, 0, 68, 0
2, 50630, Note_on_c, 0, 36, 0
2, 50653, Note_on_c, 0, 61, 0
2, 50700, Note_on_c, 0, 61, 73
2, 50702, Note_on_c, 0, 65, 64
2, 50704, Note_on_c, 0, 57, 67
2, 50704, Note_on_c, 0, 41, 55
2, 50707, Note_on_c, 0, 51, 46
2, 50716, Control_c, 0, 64, 0
2, 50720, Note_on_c, 0, 61, 0
2, 50726, Note_on_c, 0, 62, 43
2, 50762, Note_on_c, 0, 41, 0
2, 50780, Control_c, 0, 64, 127
2, 50784, Note_on_c, 0, 41, 47
2, 50810, Note_on_c, 0, 51, 0
2, 50814, Note_on_c, 0, 62, 0
2, 50828, Note_on_c, 0, 57, 0
2, 50860, Note_on_c, 0, 62, 61
2, 50861, Note_on_c, 0, 65, 0
2, 50865, Note_on_c, 0, 51, 36
2, 50865, Note_on_c, 0, 57, 45
2, 50890, Note_on_c, 0, 41, 0
2, 50912, Note_on_c, 0, 57, 0
2, 50912, Note_on_c, 0, 51, 0
2, 50933, Note_on_c, 0, 41, 47
2, 50935, Note_on_c, 0, 62, 0
2, 50935, Note_on_c, 0, 63, 68
2, 50946, Note_on_c, 0, 41, 0
2, 50984, Note_on_c, 0, 63, 0
2, 51016, Note_on_c, 0, 56, 51
2, 51017, Note_on_c, 0, 65, 50
2, 51020, Note_on_c, 0, 46, 45
2, 51020, Note_on_c, 0, 60, 56
2, 51024, Note_on_c, 0, 63, 28
2, 51025, Control_c, 0, 64, 0
2, 51057, Note_on_c, 0, 56, 0
2, 51075, Control_c, 0, 64, 127
2, 51094, Note_on_c, 0, 60, 0
2, 51100, Note_on_c, 0, 58, 52
2, 51136, Note_on_c, 0, 58, 0
2, 51160, Note_on_c, 0, 65, 0
2, 51169, Note_on_c, 0, 63, 0
2, 51182, Note_on_c, 0, 56, 36
2, 51182, Note_on_c, 0, 62, 45
2, 51183, Note_on_c, 0, 67, 49
2, 51195, Control_c, 0, 64, 0
2, 51218, Note_on_c, 0, 46, 0
2, 51225, Control_c, 0, 64, 127
2, 51256, Note_on_c, 0, 56, 0
2, 51263, Note_on_c, 0, 46, 33
2, 51267, Note_on_c, 0, 62, 0
2, 51279, Note_on_c, 0, 67, 0
2, 51286, Note_on_c, 0, 46, 0
2, 51360, Note_on_c, 0, 75, 100
2, 51360, Control_c, 0, 64, 127
2, 51360, Control_c, 0, 64, 0
2, 51360, Note_on_c, 0, 61, 34
2, 51360, Note_on_c, 0, 67, 36
2, 51360, Note_on_c, 0, 60, 54
2, 51399, Control_c, 0, 64, 127
2, 51464, Note_on_c, 0, 67, 0
2, 51465, Note_on_c, 0, 60, 0
2, 51468, Note_on_c, 0, 61, 0
2, 51480, Note_on_c, 0, 75, 0
2, 51499, Note_on_c, 0, 61, 39
2, 51501, Note_on_c, 0, 67, 38
2, 51502, Note_on_c, 0, 60, 51
2, 51531, Note_on_c, 0, 60, 0
2, 51535, Note_on_c, 0, 67, 0
2, 51540, Note_on_c, 0, 61, 0
2, 51619, Note_on_c, 0, 66, 42
2, 51619, Control_c, 0, 64, 0
2, 51621, Note_on_c, 0, 65, 57
2, 51622, Note_on_c, 0, 60, 53
2, 51664, Control_c, 0, 64, 127
2, 51686, Note_on_c, 0, 65, 0
2, 51699, Note_on_c, 0, 60, 0
2, 51706, Note_on_c, 0, 66, 0
2, 51737, Note_on_c, 0, 66, 36
2, 51741, Note_on_c, 0, 65, 46
2, 51742, Note_on_c, 0, 60, 41
2, 51790, Note_on_c, 0, 65, 0
2, 51791, Note_on_c, 0, 66, 0
2, 51797, Note_on_c, 0, 60, 0
2, 51827, Note_on_c, 0, 99, 77
2, 51844, Note_on_c, 0, 99, 0
2, 51860, Note_on_c, 0, 98, 85
2, 51861, Control_c, 0, 64, 0
2, 51883, Note_on_c, 0, 98, 0
2, 51888, Note_on_c, 0, 99, 56
2, 51900, Note_on_c, 0, 98, 44
2, 51905, Note_on_c, 0, 99, 0
2, 51913, Note_on_c, 0, 96, 51
2, 51916, Note_on_c, 0, 98, 0
2, 51923, Note_on_c, 0, 96, 0
2, 51934, Note_on_c, 0, 98, 71
2, 51942, Note_on_c, 0, 98, 0
2, 51967, Note_on_c, 0, 62, 40
2, 51973, Note_on_c, 0, 55, 20
2, 51973, Note_on_c, 0, 58, 27
2, 51993, Control_c, 0, 64, 127
2, 52022, Note_on_c, 0, 55, 0
2, 52024, Note_on_c, 0, 62, 0
2, 52025, Note_on_c, 0, 58, 0
2, 52206, Note_on_c, 0, 66, 39
2, 52206, Note_on_c, 0, 61, 42
2, 52207, Note_on_c, 0, 55, 57
2, 52208, Control_c, 0, 64, 0
2, 52234, Control_c, 0, 64, 127
2, 52272, Note_on_c, 0, 55, 0
2, 52275, Note_on_c, 0, 66, 0
2, 52281, Note_on_c, 0, 84, 89
2, 52285, Note_on_c, 0, 61, 0
2, 52296, Note_on_c, 0, 84, 0
2, 52314, Note_on_c, 0, 91, 90
2, 52336, Note_on_c, 0, 91, 0
2, 52342, Note_on_c, 0, 63, 29
2, 52344, Note_on_c, 0, 53, 25
2, 52344, Note_on_c, 0, 60, 37
2, 52346, Control_c, 0, 64, 0
2, 52346, Note_on_c, 0, 89, 59
2, 52349, Note_on_c, 0, 58, 27
2, 52359, Note_on_c, 0, 89, 0
2, 52379, Note_on_c, 0, 87, 59
2, 52387, Note_on_c, 0, 87, 0
2, 52410, Note_on_c, 0, 84, 60
2, 52419, Note_on_c, 0, 84, 0
2, 52438, Note_on_c, 0, 79, 47
2, 52447, Note_on_c, 0, 79, 0
2, 52469, Note_on_c, 0, 75, 57
2, 52479, Note_on_c, 0, 75, 0
2, 52498, Note_on_c, 0, 72, 50
2, 52510, Note_on_c, 0, 72, 0
2, 52531, Note_on_c, 0, 67, 45
2, 52537, Note_on_c, 0, 53, 0
2, 52538, Note_on_c, 0, 67, 0
2, 52541, Note_on_c, 0, 60, 0
2, 52546, Note_on_c, 0, 63, 0
2, 52552, Note_on_c, 0, 58, 0
2, 52588, Note_on_c, 0, 63, 28
2, 52589, Note_on_c, 0, 60, 39
2, 52591, Note_on_c, 0, 57, 35
2, 52602, Note_on_c, 0, 63, 0
2, 52605, Note_on_c, 0, 60, 0
2, 52609, Note_on_c, 0, 57, 0
2, 52628, Note_on_c, 0, 89, 95
2, 52639, Note_on_c, 0, 89, 0
2, 52656, Note_on_c, 0, 87, 79
2, 52669, Note_on_c, 0, 87, 0
2, 52682, Note_on_c, 0, 84, 59
2, 52685, Note_on_c, 0, 65, 54
2, 52686, Note_on_c, 0, 54, 33
2, 52688, Note_on_c, 0, 60, 36
2, 52691, Note_on_c, 0, 65, 0
2, 52692, Note_on_c, 0, 84, 0
2, 52697, Note_on_c, 0, 60, 0
2, 52699, Note_on_c, 0, 54, 0
2, 52709, Note_on_c, 0, 78, 49
2, 52720, Note_on_c, 0, 78, 0
2, 52736, Note_on_c, 0, 77, 48
2, 52752, Note_on_c, 0, 77, 0
2, 52763, Note_on_c, 0, 75, 48
2, 52776, Note_on_c, 0, 75, 0
2, 52792, Note_on_c, 0, 74, 53
2, 52805, Note_on_c, 0, 74, 0
2, 52815, Note_on_c, 0, 58, 26
2, 52816, Note_on_c, 0, 55, 27
2, 52816, Note_on_c, 0, 77, 52
2, 52817, Note_on_c, 0, 62, 17
2, 52826, Note_on_c, 0, 62, 0
2, 52828, Note_on_c, 0, 55, 0
2, 52829, Note_on_c, 0, 77, 0
2, 52835, Note_on_c, 0, 58, 0
2, 52847, Note_on_c, 0, 74, 60
2, 52856, Note_on_c, 0, 74, 0
2, 52871, Note_on_c, 0, 70, 43
2, 52889, Note_on_c, 0, 70, 0
2, 52901, Note_on_c, 0, 69, 44
2, 52914, Note_on_c, 0, 69, 0
2, 52930, Note_on_c, 0, 67, 58
2, 52941, Note_on_c, 0, 67, 0
2, 52966, Note_on_c, 0, 65, 60
2, 52981, Note_on_c, 0, 65, 0
2, 52998, Note_on_c, 0, 62, 51
2, 53018, Note_on_c, 0, 62, 0
2, 53025, Note_on_c, 0, 63, 49
2, 53042, Note_on_c, 0, 63, 0
2, 53053, Note_on_c, 0, 64, 39
2, 53057, Note_on_c, 0, 52, 15
2, 53068, Note_on_c, 0, 52, 0
2, 53083, Note_on_c, 0, 64, 0
2, 53246, Note_on_c, 0, 79, 68
2, 53258, Note_on_c, 0, 80, 39
2, 53262, Note_on_c, 0, 79, 0
2, 53267, Note_on_c, 0, 81, 62
2, 53281, Note_on_c, 0, 80, 0
2, 53282, Note_on_c, 0, 81, 0
2, 53282, Note_on_c, 0, 82, 59
2, 53293, Note_on_c, 0, 82, 0
2, 53315, Note_on_c, 0, 72, 49
2, 53332, Note_on_c, 0, 72, 0
2, 53381, Note_on_c, 0, 73, 34
2, 53390, Note_on_c, 0, 74, 72
2, 53402, Note_on_c, 0, 73, 0
2, 53403, Note_on_c, 0, 74, 0
2, 53404, Note_on_c, 0, 75, 63
2, 53422, Note_on_c, 0, 75, 0
2, 53444, Note_on_c, 0, 72, 58
2, 53458, Note_on_c, 0, 72, 0
2, 53484, Note_on_c, 0, 68, 49
2, 53499, Note_on_c, 0, 68, 0
2, 53516, Note_on_c, 0, 71, 61
2, 53523, Note_on_c, 0, 63, 25
2, 53526, Note_on_c, 0, 59, 45
2, 53529, Note_on_c, 0, 56, 23
2, 53530, Note_on_c, 0, 71, 0
2, 53543, Note_on_c, 0, 63, 0
2, 53547, Note_on_c, 0, 59, 0
2, 53551, Note_on_c, 0, 56, 0
2, 53551, Note_on_c, 0, 70, 52
2, 53568, Note_on_c, 0, 70, 0
2, 53591, Note_on_c, 0, 68, 42
2, 53607, Note_on_c, 0, 68, 0
2, 53673, Note_on_c, 0, 67, 64
2, 53688, Note_on_c, 0, 67, 0
2, 53697, Note_on_c, 0, 68, 49
2, 53711, Note_on_c, 0, 68, 0
2, 53721, Note_on_c, 0, 69, 65
2, 53737, Note_on_c, 0, 69, 0
2, 53744, Note_on_c, 0, 70, 73
2, 53837, Note_on_c, 0, 67, 61
2, 53841, Note_on_c, 0, 70, 0
2, 53855, Note_on_c, 0, 67, 0
2, 53863, Note_on_c, 0, 63, 46
2, 53879, Note_on_c, 0, 63, 0
2, 53898, Note_on_c, 0, 58, 34
2, 54019, Note_on_c, 0, 58, 0
2, 54056, Note_on_c, 0, 60, 46
2, 54067, Note_on_c, 0, 60, 0
2, 54071, Note_on_c, 0, 61, 49
2, 54086, Note_on_c, 0, 61, 0
2, 54097, Note_on_c, 0, 64, 46
2, 54107, Note_on_c, 0, 64, 0
2, 54113, Note_on_c, 0, 66, 51
2, 54121, Note_on_c, 0, 66, 0
2, 54131, Note_on_c, 0, 67, 24
2, 54142, Note_on_c, 0, 67, 0
2, 54143, Note_on_c, 0, 69, 47
2, 54154, Note_on_c, 0, 69, 0
2, 54155, Note_on_c, 0, 70, 52
2, 54159, Note_on_c, 0, 70, 0
2, 54170, Note_on_c, 0, 72, 48
2, 54180, Note_on_c, 0, 72, 0
2, 54181, Note_on_c, 0, 73, 29
2, 54189, Note_on_c, 0, 73, 0
2, 54195, Note_on_c, 0, 75, 29
2, 54203, Note_on_c, 0, 75, 0
2, 54208, Note_on_c, 0, 76, 48
2, 54220, Note_on_c, 0, 76, 0
2, 54224, Note_on_c, 0, 79, 66
2, 54236, Note_on_c, 0, 79, 0
2, 54246, Note_on_c, 0, 77, 46
2, 54258, Note_on_c, 0, 77, 0
2, 54269, Note_on_c, 0, 75, 54
2, 54281, Note_on_c, 0, 75, 0
2, 54294, Note_on_c, 0, 74, 45
2, 54305, Note_on_c, 0, 74, 0
2, 54317, Note_on_c, 0, 75, 54
2, 54335, Note_on_c, 0, 75, 0
2, 54343, Note_on_c, 0, 72, 29
2, 54413, Note_on_c, 0, 67, 34
2, 54414, Note_on_c, 0, 63, 28
2, 54419, Note_on_c, 0, 67, 0
2, 54426, Note_on_c, 0, 63, 0
2, 54451, Note_on_c, 0, 72, 0
2, 54461, Note_on_c, 0, 74, 69
2, 54478, Note_on_c, 0, 74, 0
2, 54488, Note_on_c, 0, 66, 42
2, 54489, Note_on_c, 0, 73, 44
2, 54489, Note_on_c, 0, 62, 42
2, 54492, Note_on_c, 0, 56, 30
2, 54517, Note_on_c, 0, 73, 0
2, 54520, Note_on_c, 0, 74, 49
2, 54536, Note_on_c, 0, 74, 0
2, 54545, Note_on_c, 0, 71, 53
2, 54613, Note_on_c, 0, 70, 73
2, 54629, Note_on_c, 0, 71, 0
2, 54629, Note_on_c, 0, 56, 0
2, 54638, Note_on_c, 0, 66, 0
2, 54639, Note_on_c, 0, 72, 60
2, 54646, Note_on_c, 0, 62, 0
2, 54647, Note_on_c, 0, 70, 0
2, 54660, Note_on_c, 0, 72, 0
2, 54665, Note_on_c, 0, 66, 34
2, 54666, Note_on_c, 0, 62, 22
2, 54667, Note_on_c, 0, 69, 59
2, 54667, Note_on_c, 0, 56, 33
2, 54705, Note_on_c, 0, 66, 0
2, 54713, Note_on_c, 0, 62, 0
2, 54719, Note_on_c, 0, 56, 0
2, 54724, Note_on_c, 0, 69, 0
2, 54728, Note_on_c, 0, 68, 36
2, 54729, Note_on_c, 0, 65, 27
2, 54729, Note_on_c, 0, 62, 14
2, 54731, Note_on_c, 0, 60, 38
2, 54732, Note_on_c, 0, 55, 31
2, 54755, Note_on_c, 0, 68, 0
2, 54760, Note_on_c, 0, 70, 37
2, 54784, Note_on_c, 0, 70, 0
2, 54786, Note_on_c, 0, 67, 44
2, 54827, Note_on_c, 0, 67, 0
2, 54834, Note_on_c, 0, 65, 0
2, 54844, Note_on_c, 0, 67, 48
2, 54846, Note_on_c, 0, 65, 19
2, 54856, Control_c, 0, 64, 127
2, 54901, Note_on_c, 0, 65, 0
2, 54903, Note_on_c, 0, 55, 0
2, 54903, Note_on_c, 0, 60, 0
2, 54907, Note_on_c, 0, 62, 0
2, 54907, Note_on_c, 0, 68, 57
2, 54910, Note_on_c, 0, 67, 0
2, 54923, Note_on_c, 0, 68, 0
2, 54935, Note_on_c, 0, 70, 69
2, 54953, Note_on_c, 0, 70, 0
2, 54961, Note_on_c, 0, 72, 80
2, 54962, Note_on_c, 0, 58, 60
2, 54962, Note_on_c, 0, 68, 56
2, 54963, Control_c, 0, 64, 0
2, 54963, Note_on_c, 0, 63, 54
2, 54964, Note_on_c, 0, 60, 53
2, 54992, Note_on_c, 0, 74, 68
2, 54995, Note_on_c, 0, 72, 0
2, 55010, Note_on_c, 0, 74, 0
2, 55020, Note_on_c, 0, 75, 78
2, 55024, Control_c, 0, 64, 127
2, 55055, Note_on_c, 0, 68, 0
2, 55067, Note_on_c, 0, 58, 0
2, 55068, Note_on_c, 0, 60, 0
2, 55069, Note_on_c, 0, 63, 0
2, 55080, Note_on_c, 0, 67, 59
2, 55082, Note_on_c, 0, 77, 64
2, 55083, Note_on_c, 0, 56, 32
2, 55084, Control_c, 0, 64, 0
2, 55086, Note_on_c, 0, 75, 0
2, 55086, Note_on_c, 0, 62, 38
2, 55096, Note_on_c, 0, 67, 0
2, 55098, Note_on_c, 0, 56, 0
2, 55100, Control_c, 0, 64, 127
2, 55107, Note_on_c, 0, 62, 0
2, 55108, Note_on_c, 0, 77, 0
2, 55116, Note_on_c, 0, 78, 54
2, 55116, Note_on_c, 0, 62, 30
2, 55117, Note_on_c, 0, 66, 52
2, 55119, Note_on_c, 0, 56, 51
2, 55130, Note_on_c, 0, 66, 0
2, 55131, Note_on_c, 0, 62, 0
2, 55133, Note_on_c, 0, 56, 0
2, 55134, Note_on_c, 0, 78, 0
2, 55140, Control_c, 0, 64, 0
2, 55142, Note_on_c, 0, 79, 60
2, 55143, Note_on_c, 0, 67, 64
2, 55144, Note_on_c, 0, 56, 18
2, 55145, Note_on_c, 0, 62, 24
2, 55153, Note_on_c, 0, 62, 0
2, 55153, Note_on_c, 0, 79, 0
2, 55154, Note_on_c, 0, 67, 0
2, 55158, Note_on_c, 0, 56, 0
2, 55161, Control_c, 0, 64, 127
2, 55175, Note_on_c, 0, 80, 55
2, 55176, Note_on_c, 0, 68, 54
2, 55187, Note_on_c, 0, 68, 0
2, 55191, Note_on_c, 0, 80, 0
2, 55198, Control_c, 0, 64, 0
2, 55200, Note_on_c, 0, 61, 43
2, 55203, Note_on_c, 0, 66, 35
2, 55203, Note_on_c, 0, 55, 42
2, 55205, Note_on_c, 0, 81, 43
2, 55206, Note_on_c, 0, 69, 55
2, 55213, Control_c, 0, 64, 127
2, 55218, Note_on_c, 0, 69, 0
2, 55219, Note_on_c, 0, 81, 0
2, 55221, Note_on_c, 0, 55, 0
2, 55222, Note_on_c, 0, 66, 0
2, 55224, Note_on_c, 0, 61, 0
2, 55237, Note_on_c, 0, 82, 56
2, 55237, Note_on_c, 0, 61, 37
2, 55237, Note_on_c, 0, 70, 51
2, 55237, Note_on_c, 0, 66, 39
2, 55240, Note_on_c, 0, 55, 47
2, 55246, Note_on_c, 0, 55, 0
2, 55249, Note_on_c, 0, 70, 0
2, 55250, Note_on_c, 0, 66, 0
2, 55251, Note_on_c, 0, 82, 0
2, 55255, Note_on_c, 0, 61, 0
2, 55264, Note_on_c, 0, 66, 53
2, 55266, Note_on_c, 0, 61, 52
2, 55266, Note_on_c, 0, 72, 71
2, 55266, Note_on_c, 0, 84, 77
2, 55266, Note_on_c, 0, 55, 60
2, 55281, Note_on_c, 0, 84, 0
2, 55282, Note_on_c, 0, 72, 0
2, 55282, Note_on_c, 0, 55, 0
2, 55285, Note_on_c, 0, 66, 0
2, 55288, Note_on_c, 0, 61, 0
2, 55295, Note_on_c, 0, 73, 56
2, 55295, Note_on_c, 0, 66, 64
2, 55295, Note_on_c, 0, 85, 74
2, 55296, Note_on_c, 0, 61, 64
2, 55297, Note_on_c, 0, 55, 72
2, 55311, Note_on_c, 0, 55, 0
2, 55311, Note_on_c, 0, 73, 0
2, 55311, Note_on_c, 0, 66, 0
2, 55312, Note_on_c, 0, 85, 0
2, 55316, Note_on_c, 0, 61, 0
2, 55324, Note_on_c, 0, 66, 65
2, 55324, Note_on_c, 0, 61, 67
2, 55325, Note_on_c, 0, 55, 70
2, 55326, Note_on_c, 0, 75, 69
2, 55326, Note_on_c, 0, 87, 77
2, 55339, Note_on_c, 0, 75, 0
2, 55341, Note_on_c, 0, 55, 0
2, 55342, Note_on_c, 0, 66, 0
2, 55345, Note_on_c, 0, 87, 0
2, 55346, Note_on_c, 0, 61, 0
2, 55355, Note_on_c, 0, 61, 60
2, 55355, Note_on_c, 0, 66, 57
2, 55356, Note_on_c, 0, 55, 66
2, 55356, Note_on_c, 0, 89, 72
2, 55357, Note_on_c, 0, 77, 68
2, 55367, Note_on_c, 0, 66, 0
2, 55368, Note_on_c, 0, 55, 0
2, 55369, Note_on_c, 0, 77, 0
2, 55369, Note_on_c, 0, 89, 0
2, 55374, Note_on_c, 0, 61, 0
2, 55386, Note_on_c, 0, 61, 42
2, 55387, Note_on_c, 0, 79, 60
2, 55387, Note_on_c, 0, 55, 59
2, 55387, Note_on_c, 0, 91, 60
2, 55387, Note_on_c, 0, 66, 38
2, 55391, Note_on_c, 0, 90, 25
2, 55392, Note_on_c, 0, 79, 0
2, 55393, Note_on_c, 0, 66, 0
2, 55393, Note_on_c, 0, 55, 0
2, 55394, Note_on_c, 0, 91, 0
2, 55397, Note_on_c, 0, 90, 0
2, 55401, Note_on_c, 0, 61, 0
2, 55415, Note_on_c, 0, 61, 42
2, 55417, Note_on_c, 0, 55, 45
2, 55418, Note_on_c, 0, 66, 32
2, 55419, Note_on_c, 0, 93, 67
2, 55420, Note_on_c, 0, 81, 34
2, 55424, Note_on_c, 0, 55, 0
2, 55425, Note_on_c, 0, 66, 0
2, 55426, Note_on_c, 0, 81, 0
2, 55427, Note_on_c, 0, 93, 0
2, 55440, Control_c, 0, 64, 0
2, 55442, Note_on_c, 0, 61, 0
2, 55450, Note_on_c, 0, 94, 57
2, 55450, Note_on_c, 0, 54, 37
2, 55450, Note_on_c, 0, 65, 53
2, 55451, Note_on_c, 0, 82, 40
2, 55452, Note_on_c, 0, 60, 50
2, 55453, Note_on_c, 0, 58, 31
2, 55456, Control_c, 0, 64, 127
2, 55465, Note_on_c, 0, 82, 0
2, 55465, Note_on_c, 0, 65, 0
2, 55467, Note_on_c, 0, 94, 0
2, 55469, Note_on_c, 0, 54, 0
2, 55469, Note_on_c, 0, 60, 0
2, 55475, Note_on_c, 0, 58, 0
2, 55484, Note_on_c, 0, 96, 41
2, 55484, Note_on_c, 0, 84, 50
2, 55487, Note_on_c, 0, 60, 33
2, 55488, Note_on_c, 0, 65, 30
2, 55490, Note_on_c, 0, 58, 15
2, 55494, Note_on_c, 0, 65, 0
2, 55494, Note_on_c, 0, 84, 0
2, 55496, Note_on_c, 0, 96, 0
2, 55496, Note_on_c, 0, 60, 0
2, 55506, Note_on_c, 0, 58, 0
2, 55514, Note_on_c, 0, 86, 62
2, 55515, Note_on_c, 0, 54, 31
2, 55516, Note_on_c, 0, 65, 29
2, 55516, Note_on_c, 0, 60, 46
2, 55516, Note_on_c, 0, 98, 36
2, 55517, Note_on_c, 0, 58, 12
2, 55547, Note_on_c, 0, 65, 0
2, 55548, Note_on_c, 0, 60, 0
2, 55550, Note_on_c, 0, 86, 0
2, 55556, Note_on_c, 0, 58, 0
2, 55557, Note_on_c, 0, 98, 0
2, 55557, Note_on_c, 0, 54, 0
2, 55629, Note_on_c, 0, 65, 43
2, 55630, Note_on_c, 0, 54, 27
2, 55634, Note_on_c, 0, 60, 33
2, 55642, Note_on_c, 0, 60, 0
2, 55643, Note_on_c, 0, 65, 0
2, 55657, Note_on_c, 0, 54, 0
2, 55674, Note_on_c, 0, 101, 74
2, 55691, Note_on_c, 0, 101, 0
2, 55696, Note_on_c, 0, 62, 34
2, 55700, Note_on_c, 0, 57, 28
2, 55700, Control_c, 0, 64, 0
2, 55700, Note_on_c, 0, 55, 25
2, 55701, Note_on_c, 0, 98, 45
2, 55703, Note_on_c, 0, 58, 17
2, 55715, Note_on_c, 0, 98, 0
2, 55738, Note_on_c, 0, 98, 63
2, 55747, Note_on_c, 0, 98, 0
2, 55775, Note_on_c, 0, 98, 62
2, 55781, Note_on_c, 0, 98, 0
2, 55807, Note_on_c, 0, 98, 70
2, 55821, Note_on_c, 0, 98, 0
2, 55833, Note_on_c, 0, 96, 51
2, 55836, Note_on_c, 0, 57, 0
2, 55839, Note_on_c, 0, 96, 0
2, 55839, Note_on_c, 0, 55, 0
2, 55847, Note_on_c, 0, 62, 0
2, 55860, Note_on_c, 0, 62, 24
2, 55863, Note_on_c, 0, 53, 32
2, 55866, Note_on_c, 0, 96, 53
2, 55876, Note_on_c, 0, 96, 0
2, 55905, Note_on_c, 0, 62, 0
2, 55909, Note_on_c, 0, 53, 0
2, 55917, Note_on_c, 0, 58, 0
2, 55989, Note_on_c, 0, 62, 32
2, 56000, Note_on_c, 0, 62, 0
2, 56023, Note_on_c, 0, 91, 59
2, 56032, Note_on_c, 0, 91, 0
2, 56049, Note_on_c, 0, 94, 53
2, 56060, Note_on_c, 0, 94, 0
2, 56081, Note_on_c, 0, 98, 74
2, 56093, Note_on_c, 0, 98, 0
2, 56107, Note_on_c, 0, 61, 59
2, 56107, Note_on_c, 0, 66, 67
2, 56108, Note_on_c, 0, 89, 71
2, 56108, Note_on_c, 0, 101, 68
2, 56109, Note_on_c, 0, 55, 55
2, 56113, Note_on_c, 0, 89, 0
2, 56114, Note_on_c, 0, 55, 0
2, 56117, Note_on_c, 0, 101, 0
2, 56118, Note_on_c, 0, 66, 0
2, 56123, Note_on_c, 0, 61, 0
2, 56137, Note_on_c, 0, 66, 53
2, 56137, Note_on_c, 0, 61, 38
2, 56141, Note_on_c, 0, 102, 72
2, 56141, Note_on_c, 0, 90, 73
2, 56148, Note_on_c, 0, 66, 0
2, 56149, Note_on_c, 0, 90, 0
2, 56151, Note_on_c, 0, 102, 0
2, 56154, Note_on_c, 0, 61, 0
2, 56168, Note_on_c, 0, 102, 71
2, 56168, Note_on_c, 0, 90, 71
2, 56168, Note_on_c, 0, 63, 46
2, 56169, Note_on_c, 0, 60, 60
2, 56170, Note_on_c, 0, 58, 45
2, 56174, Note_on_c, 0, 53, 43
2, 56178, Note_on_c, 0, 103, 52
2, 56182, Note_on_c, 0, 90, 0
2, 56182, Note_on_c, 0, 102, 0
2, 56183, Note_on_c, 0, 91, 65
2, 56183, Note_on_c, 0, 101, 36
2, 56200, Note_on_c, 0, 103, 0
2, 56201, Note_on_c, 0, 91, 0
2, 56201, Note_on_c, 0, 101, 0
2, 56205, Note_on_c, 0, 53, 0
2, 56207, Note_on_c, 0, 63, 0
2, 56212, Note_on_c, 0, 60, 0
2, 56212, Note_on_c, 0, 58, 0
2, 56232, Note_on_c, 0, 63, 42
2, 56233, Note_on_c, 0, 87, 57
2, 56233, Note_on_c, 0, 99, 64
2, 56233, Note_on_c, 0, 60, 47
2, 56234, Note_on_c, 0, 58, 38
2, 56236, Note_on_c, 0, 53, 33
2, 56248, Note_on_c, 0, 99, 0
2, 56248, Note_on_c, 0, 87, 0
2, 56249, Note_on_c, 0, 63, 0
2, 56250, Note_on_c, 0, 53, 0
2, 56254, Note_on_c, 0, 60, 0
2, 56258, Note_on_c, 0, 58, 0
2, 56293, Note_on_c, 0, 63, 35
2, 56293, Note_on_c, 0, 53, 31
2, 56294, Note_on_c, 0, 96, 44
2, 56294, Note_on_c, 0, 60, 42
2, 56295, Note_on_c, 0, 84, 40
2, 56297, Note_on_c, 0, 58, 30
2, 56350, Control_c, 0, 64, 127
2, 56352, Note_on_c, 0, 96, 0
2, 56360, Note_on_c, 0, 53, 0
2, 56363, Note_on_c, 0, 60, 0
2, 56367, Note_on_c, 0, 84, 0
2, 56370, Note_on_c, 0, 63, 0
2, 56373, Note_on_c, 0, 58, 0
2, 56413, Note_on_c, 0, 68, 28
2, 56415, Note_on_c, 0, 63, 34
2, 56416, Note_on_c, 0, 60, 37
2, 56420, Control_c, 0, 64, 0
2, 56501, Note_on_c, 0, 68, 0
2, 56511, Note_on_c, 0, 60, 0
2, 56513, Note_on_c, 0, 63, 0
2, 56535, Note_on_c, 0, 74, 80
2, 56550, Note_on_c, 0, 74, 0
2, 56565, Note_on_c, 0, 75, 79
2, 56583, Note_on_c, 0, 75, 0
2, 56590, Note_on_c, 0, 74, 74
2, 56590, Note_on_c, 0, 62, 47
2, 56593, Note_on_c, 0, 60, 38
2, 56595, Note_on_c, 0, 54, 17
2, 56598, Note_on_c, 0, 62, 0
2, 56600, Note_on_c, 0, 60, 0
2, 56610, Note_on_c, 0, 74, 0
2, 56610, Note_on_c, 0, 54, 0
2, 56617, Note_on_c, 0, 72, 53
2, 56631, Note_on_c, 0, 72, 0
2, 56641, Note_on_c, 0, 70, 60
2, 56655, Note_on_c, 0, 70, 0
2, 56660, Note_on_c, 0, 58, 25
2, 56661, Note_on_c, 0, 62, 18
2, 56662, Note_on_c, 0, 55, 24
2, 56662, Note_on_c, 0, 69, 51
2, 56678, Note_on_c, 0, 69, 0
2, 56687, Note_on_c, 0, 72, 55
2, 56705, Note_on_c, 0, 72, 0
2, 56710, Note_on_c, 0, 69, 56
2, 56721, Note_on_c, 0, 69, 0
2, 56730, Note_on_c, 0, 70, 54
2, 56828, Note_on_c, 0, 62, 0
2, 56833, Note_on_c, 0, 70, 0
2, 56833, Note_on_c, 0, 65, 57
2, 56845, Note_on_c, 0, 58, 0
2, 56846, Note_on_c, 0, 55, 0
2, 56855, Note_on_c, 0, 65, 0
2, 56855, Note_on_c, 0, 62, 43
2, 56871, Note_on_c, 0, 62, 0
2, 56877, Note_on_c, 0, 63, 35
2, 56890, Note_on_c, 0, 63, 0
2, 56895, Note_on_c, 0, 52, 28
2, 56897, Note_on_c, 0, 64, 36
2, 56908, Note_on_c, 0, 58, 8
2, 56908, Note_on_c, 0, 60, 13
2, 56917, Note_on_c, 0, 64, 0
2, 56927, Note_on_c, 0, 67, 34
2, 56936, Note_on_c, 0, 67, 0
2, 56950, Note_on_c, 0, 74, 53
2, 56963, Note_on_c, 0, 74, 0
2, 56995, Note_on_c, 0, 74, 71
2, 57016, Note_on_c, 0, 74, 0
2, 57035, Note_on_c, 0, 72, 58
2, 57045, Note_on_c, 0, 60, 0
2, 57045, Note_on_c, 0, 52, 0
2, 57050, Note_on_c, 0, 72, 0
2, 57058, Note_on_c, 0, 58, 0
2, 57066, Note_on_c, 0, 72, 47
2, 57082, Note_on_c, 0, 72, 0
2, 57093, Note_on_c, 0, 70, 51
2, 57104, Note_on_c, 0, 70, 0
2, 57119, Note_on_c, 0, 70, 56
2, 57138, Note_on_c, 0, 70, 0
2, 57145, Note_on_c, 0, 67, 56
2, 57157, Note_on_c, 0, 67, 0
2, 57173, Note_on_c, 0, 67, 47
2, 57183, Note_on_c, 0, 67, 0
2, 57228, Note_on_c, 0, 63, 49
2, 57247, Note_on_c, 0, 63, 0
2, 57261, Note_on_c, 0, 60, 39
2, 57319, Note_on_c, 0, 60, 0
2, 57378, Note_on_c, 0, 63, 23
2, 57380, Note_on_c, 0, 56, 29
2, 57381, Note_on_c, 0, 59, 39
2, 57383, Note_on_c, 0, 53, 17
2, 57404, Note_on_c, 0, 59, 0
2, 57411, Note_on_c, 0, 53, 0
2, 57411, Note_on_c, 0, 63, 0
2, 57419, Note_on_c, 0, 94, 82
2, 57433, Note_on_c, 0, 94, 0
2, 57442, Note_on_c, 0, 92, 52
2, 57447, Note_on_c, 0, 56, 0
2, 57453, Note_on_c, 0, 92, 0
2, 57467, Note_on_c, 0, 87, 65
2, 57481, Note_on_c, 0, 87, 0
2, 57486, Note_on_c, 0, 83, 57
2, 57502, Note_on_c, 0, 83, 0
2, 57508, Note_on_c, 0, 82, 48
2, 57509, Note_on_c, 0, 63, 25
2, 57515, Note_on_c, 0, 56, 21
2, 57519, Note_on_c, 0, 59, 15
2, 57522, Note_on_c, 0, 82, 0
2, 57533, Note_on_c, 0, 80, 53
2, 57545, Note_on_c, 0, 80, 0
2, 57563, Note_on_c, 0, 82, 35
2, 57566, Note_on_c, 0, 80, 50
2, 57569, Note_on_c, 0, 59, 0
2, 57574, Note_on_c, 0, 63, 0
2, 57576, Note_on_c, 0, 82, 0
2, 57577, Note_on_c, 0, 56, 0
2, 57582, Note_on_c, 0, 79, 38
2, 57586, Note_on_c, 0, 80, 0
2, 57601, Note_on_c, 0, 79, 0
2, 57611, Note_on_c, 0, 78, 40
2, 57634, Note_on_c, 0, 78, 0
2, 57636, Note_on_c, 0, 77, 62
2, 57638, Note_on_c, 0, 62, 26
2, 57638, Note_on_c, 0, 65, 22
2, 57640, Note_on_c, 0, 60, 33
2, 57645, Note_on_c, 0, 55, 17
2, 57661, Note_on_c, 0, 77, 0
2, 57675, Note_on_c, 0, 74, 57
2, 57691, Note_on_c, 0, 74, 0
2, 57710, Note_on_c, 0, 70, 50
2, 57722, Note_on_c, 0, 65, 0
2, 57726, Note_on_c, 0, 70, 0
2, 57732, Note_on_c, 0, 62, 0
2, 57734, Note_on_c, 0, 60, 0
2, 57736, Note_on_c, 0, 55, 0
2, 57736, Note_on_c, 0, 67, 33
2, 57743, Note_on_c, 0, 67, 0
2, 57759, Note_on_c, 0, 70, 62
2, 57773, Note_on_c, 0, 70, 0
2, 57783, Note_on_c, 0, 72, 60
2, 57797, Note_on_c, 0, 72, 0
2, 57809, Note_on_c, 0, 73, 50
2, 57825, Note_on_c, 0, 73, 0
2, 57835, Note_on_c, 0, 74, 54
2, 57849, Note_on_c, 0, 74, 0
2, 57862, Note_on_c, 0, 63, 33
2, 57862, Note_on_c, 0, 52, 44
2, 57862, Note_on_c, 0, 75, 50
2, 57864, Note_on_c, 0, 58, 37
2, 57880, Note_on_c, 0, 75, 0
2, 57881, Note_on_c, 0, 63, 0
2, 57884, Note_on_c, 0, 52, 0
2, 57896, Note_on_c, 0, 58, 0
2, 57896, Note_on_c, 0, 75, 52
2, 57912, Note_on_c, 0, 75, 0
2, 57927, Note_on_c, 0, 73, 38
2, 57939, Note_on_c, 0, 73, 0
2, 57954, Note_on_c, 0, 63, 37
2, 57955, Note_on_c, 0, 75, 60
2, 57957, Note_on_c, 0, 58, 34
2, 57958, Note_on_c, 0, 52, 32
2, 57971, Note_on_c, 0, 75, 0
2, 57982, Note_on_c, 0, 63, 0
2, 57992, Note_on_c, 0, 75, 58
2, 58003, Note_on_c, 0, 52, 0
2, 58006, Note_on_c, 0, 75, 0
2, 58022, Note_on_c, 0, 58, 0
2, 58026, Note_on_c, 0, 75, 59
2, 58044, Note_on_c, 0, 73, 30
2, 58045, Note_on_c, 0, 75, 0
2, 58066, Note_on_c, 0, 73, 0
2, 58072, Note_on_c, 0, 72, 49
2, 58073, Note_on_c, 0, 65, 32
2, 58074, Note_on_c, 0, 57, 30
2, 58074, Note_on_c, 0, 63, 32
2, 58175, Control_c, 0, 64, 127
2, 58179, Note_on_c, 0, 57, 0
2, 58179, Note_on_c, 0, 65, 0
2, 58183, Note_on_c, 0, 63, 0
2, 58213, Note_on_c, 0, 63, 34
2, 58214, Note_on_c, 0, 57, 34
2, 58272, Note_on_c, 0, 57, 0
2, 58276, Note_on_c, 0, 72, 0
2, 58276, Note_on_c, 0, 65, 47
2, 58289, Note_on_c, 0, 63, 0
2, 58291, Note_on_c, 0, 65, 0
2, 58307, Note_on_c, 0, 66, 74
2, 58332, Note_on_c, 0, 66, 0
2, 58339, Note_on_c, 0, 62, 46
2, 58340, Note_on_c, 0, 56, 49
2, 58340, Note_on_c, 0, 66, 38
2, 58340, Note_on_c, 0, 68, 73
2, 58342, Control_c, 0, 64, 0
2, 58367, Note_on_c, 0, 66, 0
2, 58369, Note_on_c, 0, 56, 0
2, 58370, Control_c, 0, 64, 127
2, 58373, Note_on_c, 0, 70, 72
2, 58376, Note_on_c, 0, 66, 47
2, 58376, Note_on_c, 0, 56, 35
2, 58380, Note_on_c, 0, 68, 0
2, 58393, Note_on_c, 0, 56, 0
2, 58394, Note_on_c, 0, 66, 0
2, 58398, Note_on_c, 0, 70, 0
2, 58399, Note_on_c, 0, 62, 0
2, 58404, Control_c, 0, 64, 0
2, 58405, Note_on_c, 0, 66, 59
2, 58405, Note_on_c, 0, 71, 80
2, 58405, Note_on_c, 0, 56, 53
2, 58406, Note_on_c, 0, 62, 43
2, 58422, Control_c, 0, 64, 127
2, 58447, Note_on_c, 0, 56, 0
2, 58448, Note_on_c, 0, 66, 0
2, 58456, Note_on_c, 0, 71, 0
2, 58457, Note_on_c, 0, 62, 0
2, 58463, Control_c, 0, 64, 0
2, 58464, Note_on_c, 0, 62, 22
2, 58464, Note_on_c, 0, 66, 42
2, 58465, Note_on_c, 0, 73, 39
2, 58465, Note_on_c, 0, 56, 39
2, 58476, Control_c, 0, 64, 127
2, 58482, Note_on_c, 0, 66, 0
2, 58483, Note_on_c, 0, 56, 0
2, 58488, Note_on_c, 0, 73, 0
2, 58491, Note_on_c, 0, 56, 29
2, 58491, Note_on_c, 0, 74, 66
2, 58492, Note_on_c, 0, 66, 36
2, 58505, Note_on_c, 0, 66, 0
2, 58507, Note_on_c, 0, 56, 0
2, 58508, Note_on_c, 0, 74, 0
2, 58510, Control_c, 0, 64, 0
2, 58519, Note_on_c, 0, 56, 52
2, 58519, Note_on_c, 0, 75, 67
2, 58519, Note_on_c, 0, 66, 43
2, 58524, Control_c, 0, 64, 127
2, 58538, Note_on_c, 0, 66, 0
2, 58555, Note_on_c, 0, 56, 0
2, 58557, Note_on_c, 0, 62, 0
2, 58559, Note_on_c, 0, 75, 0
2, 58569, Note_on_c, 0, 62, 13
2, 58570, Control_c, 0, 64, 0
2, 58571, Note_on_c, 0, 77, 59
2, 58572, Note_on_c, 0, 65, 46
2, 58573, Note_on_c, 0, 60, 30
2, 58574, Note_on_c, 0, 55, 35
2, 58584, Control_c, 0, 64, 127
2, 58587, Note_on_c, 0, 55, 0
2, 58587, Note_on_c, 0, 65, 0
2, 58587, Note_on_c, 0, 60, 0
2, 58590, Note_on_c, 0, 77, 0
2, 58593, Note_on_c, 0, 62, 0
2, 58602, Note_on_c, 0, 62, 33
2, 58604, Note_on_c, 0, 67, 64
2, 58604, Note_on_c, 0, 79, 48
2, 58606, Note_on_c, 0, 60, 32
2, 58608, Note_on_c, 0, 55, 29
2, 58612, Control_c, 0, 64, 0
2, 58613, Note_on_c, 0, 55, 0
2, 58613, Note_on_c, 0, 60, 0
2, 58614, Note_on_c, 0, 79, 0
2, 58614, Note_on_c, 0, 67, 0
2, 58617, Note_on_c, 0, 62, 0
2, 58629, Note_on_c, 0, 62, 37
2, 58632, Control_c, 0, 64, 127
2, 58633, Note_on_c, 0, 55, 44
2, 58633, Note_on_c, 0, 60, 35
2, 58633, Note_on_c, 0, 68, 39
2, 58633, Note_on_c, 0, 65, 45
2, 58633, Note_on_c, 0, 80, 43
2, 58661, Note_on_c, 0, 60, 0
2, 58662, Note_on_c, 0, 55, 0
2, 58663, Note_on_c, 0, 68, 0
2, 58663, Note_on_c, 0, 65, 0
2, 58667, Note_on_c, 0, 80, 0
2, 58668, Note_on_c, 0, 62, 0
2, 58684, Note_on_c, 0, 65, 38
2, 58684, Note_on_c, 0, 62, 32
2, 58684, Note_on_c, 0, 70, 42
2, 58685, Note_on_c, 0, 82, 50
2, 58687, Note_on_c, 0, 60, 44
2, 58695, Note_on_c, 0, 65, 0
2, 58696, Note_on_c, 0, 60, 0
2, 58697, Note_on_c, 0, 70, 0
2, 58698, Note_on_c, 0, 82, 0
2, 58699, Note_on_c, 0, 62, 0
2, 58709, Control_c, 0, 64, 0
2, 58715, Note_on_c, 0, 65, 35
2, 58715, Note_on_c, 0, 84, 65
2, 58715, Note_on_c, 0, 62, 35
2, 58716, Note_on_c, 0, 72, 50
2, 58718, Note_on_c, 0, 60, 41
2, 58721, Note_on_c, 0, 55, 22
2, 58725, Note_on_c, 0, 60, 0
2, 58725, Note_on_c, 0, 65, 0
2, 58726, Note_on_c, 0, 72, 0
2, 58726, Note_on_c, 0, 84, 0
2, 58726, Note_on_c, 0, 55, 0
2, 58729, Note_on_c, 0, 62, 0
2, 58734, Control_c, 0, 64, 127
2, 58741, Note_on_c, 0, 74, 66
2, 58742, Note_on_c, 0, 86, 75
2, 58742, Note_on_c, 0, 62, 53
2, 58742, Note_on_c, 0, 65, 55
2, 58743, Note_on_c, 0, 55, 50
2, 58744, Note_on_c, 0, 60, 58
2, 58763, Note_on_c, 0, 55, 0
2, 58765, Note_on_c, 0, 60, 0
2, 58766, Note_on_c, 0, 62, 0
2, 58766, Note_on_c, 0, 65, 0
2, 58768, Note_on_c, 0, 86, 0
2, 58769, Note_on_c, 0, 74, 0
2, 58799, Note_on_c, 0, 61, 36
2, 58802, Control_c, 0, 64, 0
2, 58803, Note_on_c, 0, 68, 55
2, 58803, Note_on_c, 0, 75, 64
2, 58803, Note_on_c, 0, 63, 44
2, 58804, Note_on_c, 0, 87, 65
2, 58806, Control_c, 0, 64, 127
2, 58808, Note_on_c, 0, 60, 37
2, 58808, Note_on_c, 0, 59, 29
2, 58814, Note_on_c, 0, 59, 0
2, 58819, Note_on_c, 0, 68, 0
2, 58819, Note_on_c, 0, 63, 0
2, 58821, Note_on_c, 0, 75, 0
2, 58823, Note_on_c, 0, 87, 0
2, 58823, Note_on_c, 0, 60, 0
2, 58828, Note_on_c, 0, 61, 0
2, 58835, Note_on_c, 0, 68, 64
2, 58836, Note_on_c, 0, 89, 73
2, 58836, Note_on_c, 0, 77, 66
2, 58836, Note_on_c, 0, 58, 48
2, 58838, Note_on_c, 0, 60, 40
2, 58838, Note_on_c, 0, 63, 51
2, 58848, Note_on_c, 0, 68, 0
2, 58849, Note_on_c, 0, 89, 0
2, 58849, Note_on_c, 0, 77, 0
2, 58851, Note_on_c, 0, 60, 0
2, 58853, Note_on_c, 0, 63, 0
2, 58855, Note_on_c, 0, 58, 0
2, 58860, Control_c, 0, 64, 0
2, 58861, Note_on_c, 0, 68, 74
2, 58861, Note_on_c, 0, 79, 77
2, 58861, Note_on_c, 0, 91, 84
2, 58862, Note_on_c, 0, 58, 37
2, 58862, Note_on_c, 0, 63, 71
2, 58862, Note_on_c, 0, 60, 72
2, 58864, Note_on_c, 0, 84, 55
2, 58866, Note_on_c, 0, 87, 29
2, 58869, Note_on_c, 0, 84, 0
2, 58870, Note_on_c, 0, 87, 0
2, 58875, Control_c, 0, 64, 127
2, 58896, Note_on_c, 0, 91, 0
2, 58897, Note_on_c, 0, 68, 0
2, 58897, Note_on_c, 0, 79, 0
2, 58898, Note_on_c, 0, 63, 0
2, 58899, Note_on_c, 0, 60, 0
2, 58903, Note_on_c, 0, 58, 0
2, 58914, Note_on_c, 0, 58, 43
2, 58915, Note_on_c, 0, 68, 59
2, 58915, Note_on_c, 0, 63, 52
2, 58916, Note_on_c, 0, 92, 70
2, 58917, Note_on_c, 0, 60, 60
2, 58917, Note_on_c, 0, 80, 64
2, 58929, Note_on_c, 0, 68, 0
2, 58930, Note_on_c, 0, 80, 0
2, 58931, Note_on_c, 0, 60, 0
2, 58933, Note_on_c, 0, 63, 0
2, 58936, Note_on_c, 0, 58, 0
2, 58936, Note_on_c, 0, 92, 0
2, 58949, Note_on_c, 0, 68, 32
2, 58949, Note_on_c, 0, 63, 37
2, 58949, Note_on_c, 0, 93, 64
2, 58950, Note_on_c, 0, 81, 50
2, 58953, Note_on_c, 0, 68, 0
2, 58956, Note_on_c, 0, 81, 0
2, 58956, Note_on_c, 0, 93, 0
2, 58959, Note_on_c, 0, 63, 0
2, 58970, Control_c, 0, 64, 0
2, 58974, Note_on_c, 0, 63, 62
2, 58974, Note_on_c, 0, 66, 70
2, 58975, Note_on_c, 0, 61, 52
2, 58977, Note_on_c, 0, 84, 68
2, 58977, Note_on_c, 0, 98, 62
2, 58978, Note_on_c, 0, 96, 74
2, 58978, Note_on_c, 0, 86, 68
2, 58978, Note_on_c, 0, 56, 49
2, 58981, Control_c, 0, 64, 127
2, 58982, Note_on_c, 0, 86, 0
2, 58987, Note_on_c, 0, 98, 0
2, 59005, Note_on_c, 0, 96, 0
2, 59014, Note_on_c, 0, 84, 0
2, 59016, Note_on_c, 0, 63, 0
2, 59017, Note_on_c, 0, 56, 0
2, 59018, Note_on_c, 0, 66, 0
2, 59023, Note_on_c, 0, 61, 0
2, 59041, Note_on_c, 0, 65, 51
2, 59042, Note_on_c, 0, 62, 46
2, 59042, Note_on_c, 0, 94, 55
2, 59043, Note_on_c, 0, 60, 54
2, 59044, Note_on_c, 0, 89, 58
2, 59045, Note_on_c, 0, 82, 38
2, 59046, Control_c, 0, 64, 0
2, 59046, Note_on_c, 0, 55, 53
2, 59070, Control_c, 0, 64, 127
2, 59073, Note_on_c, 0, 89, 0
2, 59077, Note_on_c, 0, 94, 0
2, 59079, Note_on_c, 0, 65, 0
2, 59080, Note_on_c, 0, 55, 0
2, 59080, Note_on_c, 0, 82, 0
2, 59081, Note_on_c, 0, 60, 0
2, 59083, Note_on_c, 0, 62, 0
2, 59096, Control_c, 0, 64, 0
2, 59098, Note_on_c, 0, 65, 53
2, 59099, Note_on_c, 0, 62, 38
2, 59100, Note_on_c, 0, 60, 55
2, 59100, Note_on_c, 0, 91, 50
2, 59101, Note_on_c, 0, 79, 44
2, 59102, Note_on_c, 0, 55, 37
2, 59102, Note_on_c, 0, 86, 54
2, 59107, Note_on_c, 0, 86, 0
2, 59108, Note_on_c, 0, 79, 0
2, 59109, Note_on_c, 0, 65, 0
2, 59110, Note_on_c, 0, 55, 0
2, 59111, Note_on_c, 0, 62, 0
2, 59111, Note_on_c, 0, 91, 0
2, 59111, Note_on_c, 0, 60, 0
2, 59157, Note_on_c, 0, 65, 42
2, 59157, Control_c, 0, 64, 127
2, 59157, Note_on_c, 0, 91, 54
2, 59157, Note_on_c, 0, 62, 37
2, 59158, Note_on_c, 0, 86, 58
2, 59159, Note_on_c, 0, 60, 46
2, 59159, Note_on_c, 0, 79, 36
2, 59160, Note_on_c, 0, 55, 40
2, 59214, Note_on_c, 0, 79, 0
2, 59219, Note_on_c, 0, 86, 0
2, 59219, Note_on_c, 0, 91, 0
2, 59219, Note_on_c, 0, 55, 0
2, 59221, Note_on_c, 0, 60, 0
2, 59224, Note_on_c, 0, 65, 0
2, 59228, Note_on_c, 0, 62, 0
2, 59256, Note_on_c, 0, 62, 68
2, 59256, Note_on_c, 0, 65, 73
2, 59257, Note_on_c, 0, 98, 83
2, 59257, Note_on_c, 0, 60, 61
2, 59257, Note_on_c, 0, 86, 92
2, 59259, Note_on_c, 0, 55, 50
2, 59259, Note_on_c, 0, 97, 61
2, 59263, Note_on_c, 0, 97, 0
2, 59264, Note_on_c, 0, 86, 0
2, 59264, Note_on_c, 0, 55, 0
2, 59266, Note_on_c, 0, 98, 0
2, 59266, Note_on_c, 0, 65, 0
2, 59267, Note_on_c, 0, 62, 0
2, 59269, Note_on_c, 0, 60, 0
2, 59284, Note_on_c, 0, 65, 71
2, 59285, Note_on_c, 0, 62, 61
2, 59286, Note_on_c, 0, 94, 74
2, 59286, Note_on_c, 0, 60, 65
2, 59287, Control_c, 0, 64, 0
2, 59287, Note_on_c, 0, 82, 72
2, 59288, Note_on_c, 0, 55, 54
2, 59310, Note_on_c, 0, 94, 0
2, 59311, Control_c, 0, 64, 127
2, 59314, Note_on_c, 0, 82, 0
2, 59319, Note_on_c, 0, 55, 0
2, 59320, Note_on_c, 0, 65, 0
2, 59322, Note_on_c, 0, 60, 0
2, 59325, Note_on_c, 0, 62, 0
2, 59329, Control_c, 0, 64, 0
2, 59339, Note_on_c, 0, 62, 44
2, 59339, Note_on_c, 0, 65, 49
2, 59339, Note_on_c, 0, 91, 62
2, 59341, Note_on_c, 0, 60, 47
2, 59341, Note_on_c, 0, 79, 49
2, 59342, Note_on_c, 0, 86, 61
2, 59347, Note_on_c, 0, 86, 0
2, 59349, Note_on_c, 0, 79, 0
2, 59350, Note_on_c, 0, 60, 0
2, 59351, Note_on_c, 0, 65, 0
2, 59352, Note_on_c, 0, 62, 0
2, 59354, Note_on_c, 0, 91, 0
2, 59394, Control_c, 0, 64, 127
2, 59394, Note_on_c, 0, 62, 49
2, 59395, Note_on_c, 0, 91, 55
2, 59395, Note_on_c, 0, 86, 66
2, 59396, Note_on_c, 0, 79, 41
2, 59396, Note_on_c, 0, 65, 55
2, 59397, Note_on_c, 0, 60, 51
2, 59399, Note_on_c, 0, 55, 40
2, 59417, Note_on_c, 0, 79, 0
2, 59424, Note_on_c, 0, 86, 0
2, 59425, Note_on_c, 0, 65, 0
2, 59429, Note_on_c, 0, 91, 0
2, 59431, Note_on_c, 0, 60, 0
2, 59432, Note_on_c, 0, 62, 0
2, 59433, Note_on_c, 0, 55, 0
2, 59495, Note_on_c, 0, 87, 91
2, 59495, Note_on_c, 0, 99, 85
2, 59495, Note_on_c, 0, 94, 82
2, 59495, Note_on_c, 0, 63, 63
2, 59495, Note_on_c, 0, 67, 84
2, 59496, Note_on_c, 0, 56, 64
2, 59496, Note_on_c, 0, 60, 64
2, 59512, Note_on_c, 0, 94, 0
2, 59512, Note_on_c, 0, 87, 0
2, 59513, Note_on_c, 0, 99, 0
2, 59516, Note_on_c, 0, 67, 0
2, 59517, Note_on_c, 0, 56, 0
2, 59518, Note_on_c, 0, 60, 0
2, 59521, Note_on_c, 0, 63, 0
2, 59524, Control_c, 0, 64, 0
2, 59528, Note_on_c, 0, 67, 57
2, 59529, Note_on_c, 0, 63, 42
2, 59529, Note_on_c, 0, 96, 63
2, 59529, Note_on_c, 0, 56, 38
2, 59530, Note_on_c, 0, 84, 64
2, 59531, Note_on_c, 0, 60, 66
2, 59542, Control_c, 0, 64, 127
2, 59550, Note_on_c, 0, 96, 0
2, 59556, Note_on_c, 0, 84, 0
2, 59559, Note_on_c, 0, 67, 0
2, 59559, Note_on_c, 0, 60, 0
2, 59561, Note_on_c, 0, 56, 0
2, 59564, Note_on_c, 0, 63, 0
2, 59584, Note_on_c, 0, 63, 43
2, 59584, Note_on_c, 0, 56, 48
2, 59584, Note_on_c, 0, 67, 58
2, 59585, Note_on_c, 0, 92, 51
2, 59586, Note_on_c, 0, 80, 39
2, 59587, Note_on_c, 0, 60, 50
2, 59587, Control_c, 0, 64, 0
2, 59596, Control_c, 0, 64, 127
2, 59599, Note_on_c, 0, 60, 0
2, 59599, Note_on_c, 0, 67, 0
2, 59604, Note_on_c, 0, 92, 0
2, 59605, Note_on_c, 0, 56, 0
2, 59606, Note_on_c, 0, 80, 0
2, 59608, Note_on_c, 0, 63, 0
2, 59630, Control_c, 0, 64, 0
2, 59642, Note_on_c, 0, 63, 46
2, 59642, Note_on_c, 0, 67, 50
2, 59642, Note_on_c, 0, 56, 36
2, 59643, Note_on_c, 0, 60, 57
2, 59644, Note_on_c, 0, 92, 60
2, 59646, Note_on_c, 0, 80, 44
2, 59648, Control_c, 0, 64, 127
2, 59676, Note_on_c, 0, 80, 0
2, 59679, Note_on_c, 0, 67, 0
2, 59681, Note_on_c, 0, 60, 0
2, 59681, Note_on_c, 0, 56, 0
2, 59683, Note_on_c, 0, 92, 0
2, 59684, Note_on_c, 0, 63, 0
2, 59735, Note_on_c, 0, 63, 67
2, 59735, Note_on_c, 0, 67, 83
2, 59735, Note_on_c, 0, 56, 63
2, 59736, Note_on_c, 0, 60, 69
2, 59736, Note_on_c, 0, 103, 81
2, 59736, Note_on_c, 0, 91, 84
2, 59736, Note_on_c, 0, 98, 81
2, 59746, Note_on_c, 0, 67, 0
2, 59754, Note_on_c, 0, 56, 0
2, 59755, Note_on_c, 0, 91, 0
2, 59755, Note_on_c, 0, 98, 0
2, 59756, Note_on_c, 0, 103, 0
2, 59757, Note_on_c, 0, 63, 0
2, 59758, Note_on_c, 0, 60, 0
2, 59769, Control_c, 0, 64, 0
2, 59769, Note_on_c, 0, 56, 67
2, 59770, Note_on_c, 0, 62, 74
2, 59770, Note_on_c, 0, 67, 74
2, 59770, Note_on_c, 0, 101, 70
2, 59771, Note_on_c, 0, 89, 70
2, 59771, Note_on_c, 0, 96, 73
2, 59786, Control_c, 0, 64, 127
2, 59798, Note_on_c, 0, 101, 0
2, 59799, Note_on_c, 0, 96, 0
2, 59803, Note_on_c, 0, 67, 0
2, 59804, Note_on_c, 0, 89, 0
2, 59805, Note_on_c, 0, 56, 0
2, 59811, Note_on_c, 0, 62, 0
2, 59822, Note_on_c, 0, 67, 57
2, 59822, Note_on_c, 0, 98, 49
2, 59822, Note_on_c, 0, 56, 51
2, 59822, Note_on_c, 0, 62, 45
2, 59823, Note_on_c, 0, 86, 58
2, 59824, Note_on_c, 0, 93, 60
2, 59849, Note_on_c, 0, 67, 0
2, 59851, Note_on_c, 0, 86, 0
2, 59852, Note_on_c, 0, 56, 0
2, 59853, Note_on_c, 0, 93, 0
2, 59855, Note_on_c, 0, 62, 0
2, 59857, Note_on_c, 0, 98, 0
2, 59874, Control_c, 0, 64, 0
2, 59879, Note_on_c, 0, 56, 51
2, 59879, Note_on_c, 0, 62, 51
2, 59880, Note_on_c, 0, 67, 45
2, 59882, Note_on_c, 0, 98, 46
2, 59882, Note_on_c, 0, 93, 55
2, 59883, Note_on_c, 0, 86, 55
2, 59885, Control_c, 0, 64, 127
2, 59898, Note_on_c, 0, 67, 0
2, 59915, Note_on_c, 0, 98, 0
2, 59926, Note_on_c, 0, 93, 0
2, 59927, Note_on_c, 0, 86, 0
2, 59935, Note_on_c, 0, 62, 0
2, 59942, Note_on_c, 0, 56, 0
2, 60004, Note_on_c, 0, 65, 33
2, 60005, Note_on_c, 0, 62, 36
2, 60006, Note_on_c, 0, 55, 32
2, 60007, Note_on_c, 0, 58, 35
2, 60010, Control_c, 0, 64, 0
2, 60066, Note_on_c, 0, 94, 77
2, 60077, Note_on_c, 0, 94, 0
2, 60086, Note_on_c, 0, 92, 61
2, 60103, Note_on_c, 0, 92, 0
2, 60108, Note_on_c, 0, 87, 60
2, 60121, Note_on_c, 0, 87, 0
2, 60128, Note_on_c, 0, 83, 36
2, 60143, Note_on_c, 0, 83, 0
2, 60151, Note_on_c, 0, 82, 42
2, 60166, Note_on_c, 0, 82, 0
2, 60173, Note_on_c, 0, 80, 55
2, 60181, Note_on_c, 0, 62, 0
2, 60182, Note_on_c, 0, 65, 0
2, 60189, Note_on_c, 0, 80, 0
2, 60192, Note_on_c, 0, 55, 0
2, 60195, Note_on_c, 0, 79, 49
2, 60200, Note_on_c, 0, 58, 0
2, 60207, Note_on_c, 0, 79, 0
2, 60235, Note_on_c, 0, 77, 63
2, 60248, Note_on_c, 0, 77, 0
2, 60261, Note_on_c, 0, 75, 55
2, 60275, Note_on_c, 0, 75, 0
2, 60283, Note_on_c, 0, 76, 68
2, 60298, Note_on_c, 0, 76, 0
2, 60324, Note_on_c, 0, 73, 52
2, 60340, Note_on_c, 0, 73, 0
2, 60344, Note_on_c, 0, 72, 31
2, 60362, Note_on_c, 0, 72, 0
2, 60382, Note_on_c, 0, 70, 52
2, 60466, Note_on_c, 0, 70, 0
2, 60469, Note_on_c, 0, 67, 35
2, 60484, Note_on_c, 0, 67, 0
2, 60495, Note_on_c, 0, 68, 37
2, 60495, Note_on_c, 0, 60, 32
2, 60498, Note_on_c, 0, 63, 23
2, 60500, Note_on_c, 0, 53, 16
2, 60590, Note_on_c, 0, 68, 0
2, 60603, Note_on_c, 0, 67, 68
2, 60604, Note_on_c, 0, 63, 0
2, 60616, Note_on_c, 0, 67, 0
2, 60618, Note_on_c, 0, 68, 54
2, 60628, Note_on_c, 0, 67, 42
2, 60637, Note_on_c, 0, 68, 0
2, 60649, Note_on_c, 0, 60, 0
2, 60649, Note_on_c, 0, 65, 53
2, 60650, Note_on_c, 0, 67, 0
2, 60663, Note_on_c, 0, 53, 0
2, 60664, Note_on_c, 0, 65, 0
2, 60697, Note_on_c, 0, 63, 60
2, 60711, Note_on_c, 0, 63, 0
2, 60738, Note_on_c, 0, 62, 48
2, 60739, Note_on_c, 0, 56, 25
2, 60739, Note_on_c, 0, 46, 30
2, 60777, Note_on_c, 0, 63, 49
2, 60785, Note_on_c, 0, 63, 0
2, 60786, Note_on_c, 0, 62, 0
2, 60787, Note_on_c, 0, 64, 58
2, 60802, Note_on_c, 0, 64, 0
2, 60803, Note_on_c, 0, 65, 67
2, 60816, Note_on_c, 0, 65, 0
2, 60834, Note_on_c, 0, 56, 0
2, 60834, Note_on_c, 0, 62, 60
2, 60849, Note_on_c, 0, 62, 0
2, 60857, Note_on_c, 0, 59, 54
2, 60880, Note_on_c, 0, 59, 0
2, 60891, Note_on_c, 0, 59, 64
2, 60900, Control_c, 0, 64, 127
2, 60931, Note_on_c, 0, 56, 56
2, 60936, Note_on_c, 0, 46, 0
2, 60937, Note_on_c, 0, 59, 0
2, 60947, Note_on_c, 0, 56, 0
2, 60958, Note_on_c, 0, 56, 48
2, 60976, Note_on_c, 0, 56, 0
2, 60982, Control_c, 0, 64, 0
2, 60985, Note_on_c, 0, 55, 36
2, 60987, Note_on_c, 0, 39, 28
2, 60988, Note_on_c, 0, 46, 26
2, 61019, Control_c, 0, 64, 127
2, 61047, Note_on_c, 0, 55, 0
2, 61052, Note_on_c, 0, 39, 0
2, 61057, Note_on_c, 0, 46, 0
2, 61149, Note_on_c, 0, 70, 71
2, 61150, Note_on_c, 0, 65, 77
2, 61150, Control_c, 0, 64, 0
2, 61151, Note_on_c, 0, 55, 65
2, 61151, Note_on_c, 0, 60, 68
2, 61165, Control_c, 0, 64, 127
2, 61188, Note_on_c, 0, 55, 0
2, 61190, Note_on_c, 0, 60, 0
2, 61192, Note_on_c, 0, 70, 0
2, 61194, Note_on_c, 0, 65, 0
2, 61209, Note_on_c, 0, 70, 69
2, 61210, Note_on_c, 0, 65, 79
2, 61211, Control_c, 0, 64, 0
2, 61211, Note_on_c, 0, 55, 57
2, 61211, Note_on_c, 0, 60, 67
2, 61224, Control_c, 0, 64, 127
2, 61227, Note_on_c, 0, 65, 0
2, 61228, Note_on_c, 0, 70, 0
2, 61235, Note_on_c, 0, 60, 0
2, 61254, Note_on_c, 0, 55, 0
2, 61261, Control_c, 0, 64, 0
2, 61265, Note_on_c, 0, 62, 60
2, 61266, Note_on_c, 0, 67, 55
2, 61270, Note_on_c, 0, 51, 45
2, 61271, Note_on_c, 0, 57, 18
2, 61281, Control_c, 0, 64, 127
2, 61288, Note_on_c, 0, 57, 0
2, 61291, Note_on_c, 0, 62, 0
2, 61291, Note_on_c, 0, 67, 0
2, 61321, Control_c, 0, 64, 0
2, 61322, Note_on_c, 0, 70, 63
2, 61323, Note_on_c, 0, 65, 69
2, 61325, Note_on_c, 0, 60, 58
2, 61325, Note_on_c, 0, 55, 55
2, 61335, Note_on_c, 0, 51, 0
2, 61345, Control_c, 0, 64, 127
2, 61361, Note_on_c, 0, 55, 0
2, 61363, Note_on_c, 0, 60, 0
2, 61363, Note_on_c, 0, 65, 0
2, 61364, Note_on_c, 0, 70, 0
2, 61382, Note_on_c, 0, 70, 60
2, 61383, Note_on_c, 0, 65, 64
2, 61383, Note_on_c, 0, 55, 46
2, 61383, Note_on_c, 0, 60, 58
2, 61390, Note_on_c, 0, 55, 0
2, 61391, Note_on_c, 0, 60, 0
2, 61399, Note_on_c, 0, 65, 0
2, 61404, Note_on_c, 0, 70, 0
2, 61440, Control_c, 0, 64, 0
2, 61440, Note_on_c, 0, 61, 55
2, 61441, Note_on_c, 0, 60, 57
2, 61441, Note_on_c, 0, 72, 68
2, 61441, Note_on_c, 0, 69, 78
2, 61442, Note_on_c, 0, 65, 79
2, 61442, Note_on_c, 0, 55, 62
2, 61460, Note_on_c, 0, 65, 0
2, 61464, Note_on_c, 0, 69, 0
2, 61464, Control_c, 0, 64, 127
2, 61466, Note_on_c, 0, 72, 0
2, 61473, Note_on_c, 0, 55, 0
2, 61476, Note_on_c, 0, 60, 0
2, 61477, Note_on_c, 0, 61, 0
2, 61497, Control_c, 0, 64, 0
2, 61500, Note_on_c, 0, 77, 65
2, 61501, Note_on_c, 0, 61, 46
2, 61501, Note_on_c, 0, 65, 60
2, 61501, Note_on_c, 0, 72, 51
2, 61502, Note_on_c, 0, 60, 56
2, 61503, Note_on_c, 0, 55, 50
2, 61505, Control_c, 0, 64, 127
2, 61506, Note_on_c, 0, 75, 30
2, 61510, Note_on_c, 0, 75, 0
2, 61515, Note_on_c, 0, 65, 0
2, 61522, Note_on_c, 0, 72, 0
2, 61525, Note_on_c, 0, 60, 0
2, 61525, Note_on_c, 0, 77, 0
2, 61526, Note_on_c, 0, 55, 0
2, 61529, Note_on_c, 0, 61, 0
2, 61557, Control_c, 0, 64, 0
2, 61567, Control_c, 0, 64, 127
2, 61603, Note_on_c, 0, 72, 54
2, 61603, Note_on_c, 0, 84, 52
2, 61604, Note_on_c, 0, 77, 43
2, 61604, Note_on_c, 0, 60, 54
2, 61604, Note_on_c, 0, 65, 46
2, 61605, Note_on_c, 0, 61, 33
2, 61606, Control_c, 0, 64, 0
2, 61606, Note_on_c, 0, 81, 40
2, 61606, Note_on_c, 0, 55, 49
2, 61616, Note_on_c, 0, 65, 0
2, 61616, Note_on_c, 0, 72, 0
2, 61619, Note_on_c, 0, 55, 0
2, 61619, Note_on_c, 0, 77, 0
2, 61620, Note_on_c, 0, 60, 0
2, 61621, Note_on_c, 0, 81, 0
2, 61622, Control_c, 0, 64, 127
2, 61623, Note_on_c, 0, 61, 0
2, 61623, Note_on_c, 0, 84, 0
2, 61645, Note_on_c, 0, 61, 37
2, 61646, Note_on_c, 0, 65, 46
2, 61647, Note_on_c, 0, 55, 39
2, 61650, Note_on_c, 0, 88, 31
2, 61652, Note_on_c, 0, 65, 0
2, 61655, Note_on_c, 0, 55, 0
2, 61656, Note_on_c, 0, 88, 0
2, 61660, Note_on_c, 0, 61, 0
2, 61679, Control_c, 0, 64, 0
2, 61683, Note_on_c, 0, 89, 50
2, 61684, Note_on_c, 0, 77, 40
2, 61684, Note_on_c, 0, 54, 42
2, 61685, Note_on_c, 0, 65, 57
2, 61686, Note_on_c, 0, 84, 36
2, 61687, Note_on_c, 0, 60, 37
2, 61690, Note_on_c, 0, 58, 25
2, 61704, Control_c, 0, 64, 127
2, 61730, Note_on_c, 0, 65, 0
2, 61732, Note_on_c, 0, 84, 0
2, 61733, Note_on_c, 0, 54, 0
2, 61733, Note_on_c, 0, 89, 0
2, 61734, Note_on_c, 0, 60, 0
2, 61735, Note_on_c, 0, 77, 0
2, 61741, Note_on_c, 0, 58, 0
2, 61750, Note_on_c, 0, 54, 39
2, 61750, Note_on_c, 0, 65, 46
2, 61751, Note_on_c, 0, 89, 32
2, 61752, Note_on_c, 0, 77, 31
2, 61754, Note_on_c, 0, 60, 44
2, 61754, Note_on_c, 0, 84, 46
2, 61755, Note_on_c, 0, 58, 15
2, 61789, Note_on_c, 0, 89, 0
2, 61790, Note_on_c, 0, 84, 0
2, 61797, Note_on_c, 0, 65, 0
2, 61799, Note_on_c, 0, 54, 0
2, 61804, Note_on_c, 0, 77, 0
2, 61819, Note_on_c, 0, 60, 0
2, 61826, Note_on_c, 0, 58, 0
2, 61841, Note_on_c, 0, 80, 55
2, 61842, Note_on_c, 0, 86, 61
2, 61842, Note_on_c, 0, 54, 44
2, 61843, Note_on_c, 0, 64, 49
2, 61844, Note_on_c, 0, 74, 40
2, 61844, Note_on_c, 0, 58, 25
2, 61845, Note_on_c, 0, 60, 44
2, 61845, Control_c, 0, 64, 0
2, 61860, Control_c, 0, 64, 127
2, 61863, Note_on_c, 0, 80, 0
2, 61866, Note_on_c, 0, 81, 22
2, 61872, Note_on_c, 0, 60, 0
2, 61876, Note_on_c, 0, 64, 0
2, 61877, Note_on_c, 0, 81, 0
2, 61880, Note_on_c, 0, 86, 0
2, 61881, Note_on_c, 0, 74, 0
2, 61883, Note_on_c, 0, 54, 0
2, 61892, Note_on_c, 0, 58, 0
2, 61919, Note_on_c, 0, 72, 48
2, 61919, Note_on_c, 0, 80, 40
2, 61920, Note_on_c, 0, 62, 40
2, 61921, Note_on_c, 0, 57, 38
2, 61922, Note_on_c, 0, 84, 42
2, 61924, Note_on_c, 0, 58, 31
2, 61925, Note_on_c, 0, 55, 40
2, 61925, Control_c, 0, 64, 0
2, 61932, Note_on_c, 0, 80, 0
2, 61935, Note_on_c, 0, 81, 24
2, 61955, Control_c, 0, 64, 127
2, 61973, Note_on_c, 0, 81, 0
2, 61973, Note_on_c, 0, 84, 0
2, 61984, Note_on_c, 0, 82, 34
2, 62007, Note_on_c, 0, 72, 0
2, 62023, Note_on_c, 0, 62, 0
2, 62023, Note_on_c, 0, 82, 0
2, 62027, Note_on_c, 0, 58, 0
2, 62029, Note_on_c, 0, 57, 0
2, 62045, Note_on_c, 0, 62, 41
2, 62048, Note_on_c, 0, 57, 17
2, 62052, Note_on_c, 0, 58, 14
2, 62085, Note_on_c, 0, 82, 67
2, 62090, Note_on_c, 0, 57, 0
2, 62095, Note_on_c, 0, 55, 0
2, 62101, Note_on_c, 0, 62, 0
2, 62111, Note_on_c, 0, 58, 0
2, 62116, Note_on_c, 0, 82, 0
2, 62167, Note_on_c, 0, 63, 23
2, 62168, Note_on_c, 0, 60, 33
2, 62170, Note_on_c, 0, 54, 33
2, 62174, Control_c, 0, 64, 0
2, 62265, Note_on_c, 0, 63, 0
2, 62278, Note_on_c, 0, 60, 0
2, 62294, Note_on_c, 0, 77, 48
2, 62296, Note_on_c, 0, 63, 23
2, 62298, Note_on_c, 0, 60, 17
2, 62307, Note_on_c, 0, 77, 0
2, 62309, Note_on_c, 0, 78, 38
2, 62320, Note_on_c, 0, 80, 47
2, 62321, Note_on_c, 0, 78, 0
2, 62325, Note_on_c, 0, 63, 0
2, 62330, Note_on_c, 0, 80, 0
2, 62333, Note_on_c, 0, 81, 48
2, 62346, Note_on_c, 0, 81, 0
2, 62346, Note_on_c, 0, 82, 57
2, 62348, Note_on_c, 0, 63, 19
2, 62352, Note_on_c, 0, 82, 0
2, 62361, Note_on_c, 0, 83, 48
2, 62371, Note_on_c, 0, 83, 0
2, 62374, Note_on_c, 0, 84, 41
2, 62375, Note_on_c, 0, 63, 0
2, 62386, Note_on_c, 0, 60, 0
2, 62387, Note_on_c, 0, 54, 0
2, 62388, Note_on_c, 0, 85, 46
2, 62389, Note_on_c, 0, 84, 0
2, 62398, Note_on_c, 0, 85, 0
2, 62399, Note_on_c, 0, 86, 65
2, 62411, Note_on_c, 0, 86, 0
2, 62415, Note_on_c, 0, 87, 65
2, 62422, Note_on_c, 0, 63, 27
2, 62424, Note_on_c, 0, 60, 39
2, 62424, Note_on_c, 0, 53, 36
2, 62427, Note_on_c, 0, 56, 33
2, 62431, Note_on_c, 0, 87, 0
2, 62435, Note_on_c, 0, 84, 51
2, 62442, Note_on_c, 0, 84, 0
2, 62499, Note_on_c, 0, 79, 40
2, 62505, Note_on_c, 0, 79, 0
2, 62518, Note_on_c, 0, 82, 57
2, 62534, Note_on_c, 0, 82, 0
2, 62536, Note_on_c, 0, 80, 62
2, 62546, Note_on_c, 0, 63, 0
2, 62548, Note_on_c, 0, 80, 0
2, 62558, Note_on_c, 0, 79, 65
2, 62566, Note_on_c, 0, 63, 33
2, 62571, Note_on_c, 0, 79, 0
2, 62577, Note_on_c, 0, 77, 41
2, 62593, Note_on_c, 0, 77, 0
2, 62599, Note_on_c, 0, 75, 49
2, 62612, Note_on_c, 0, 75, 0
2, 62623, Note_on_c, 0, 74, 39
2, 62633, Note_on_c, 0, 74, 0
2, 62636, Note_on_c, 0, 53, 0
2, 62638, Note_on_c, 0, 60, 0
2, 62643, Note_on_c, 0, 56, 0
2, 62644, Note_on_c, 0, 63, 0
2, 62645, Note_on_c, 0, 75, 53
2, 62657, Note_on_c, 0, 75, 0
2, 62663, Note_on_c, 0, 77, 57
2, 62679, Note_on_c, 0, 77, 0
2, 62682, Note_on_c, 0, 74, 51
2, 62685, Note_on_c, 0, 67, 43
2, 62690, Note_on_c, 0, 56, 18
2, 62692, Note_on_c, 0, 62, 32
2, 62698, Note_on_c, 0, 74, 0
2, 62711, Note_on_c, 0, 67, 0
2, 62715, Note_on_c, 0, 74, 49
2, 62731, Note_on_c, 0, 74, 0
2, 62737, Note_on_c, 0, 62, 0
2, 62745, Note_on_c, 0, 70, 55
2, 62752, Note_on_c, 0, 62, 16
2, 62759, Note_on_c, 0, 70, 0
2, 62767, Note_on_c, 0, 62, 0
2, 62774, Note_on_c, 0, 70, 58
2, 62784, Control_c, 0, 64, 127
2, 62786, Note_on_c, 0, 70, 0
2, 62801, Note_on_c, 0, 70, 69
2, 62803, Note_on_c, 0, 62, 32
2, 62817, Note_on_c, 0, 70, 0
2, 62819, Note_on_c, 0, 62, 0
2, 62835, Note_on_c, 0, 56, 0
2, 62838, Note_on_c, 0, 70, 62
2, 62854, Note_on_c, 0, 70, 0
2, 62865, Note_on_c, 0, 70, 62
2, 62879, Note_on_c, 0, 70, 0
2, 62883, Note_on_c, 0, 70, 60
2, 62903, Note_on_c, 0, 70, 0
2, 62916, Note_on_c, 0, 67, 30
2, 62918, Control_c, 0, 64, 0
2, 62918, Note_on_c, 0, 60, 38
2, 62919, Note_on_c, 0, 61, 25
2, 62952, Control_c, 0, 64, 127
2, 62976, Note_on_c, 0, 60, 0
2, 62977, Note_on_c, 0, 67, 0
2, 62987, Note_on_c, 0, 61, 0
2, 63028, Note_on_c, 0, 67, 51
2, 63029, Note_on_c, 0, 61, 39
2, 63031, Note_on_c, 0, 60, 52
2, 63076, Note_on_c, 0, 87, 92
2, 63092, Note_on_c, 0, 67, 0
2, 63099, Note_on_c, 0, 60, 0
2, 63103, Note_on_c, 0, 61, 0
2, 63105, Note_on_c, 0, 87, 0
2, 63115, Note_on_c, 0, 87, 74
2, 63140, Note_on_c, 0, 87, 0
2, 63153, Note_on_c, 0, 87, 74
2, 63160, Control_c, 0, 64, 0
2, 63185, Note_on_c, 0, 66, 62
2, 63187, Note_on_c, 0, 65, 62
2, 63188, Note_on_c, 0, 60, 55
2, 63194, Note_on_c, 0, 65, 0
2, 63196, Note_on_c, 0, 60, 0
2, 63197, Note_on_c, 0, 66, 0
2, 63259, Note_on_c, 0, 66, 67
2, 63261, Note_on_c, 0, 65, 59
2, 63262, Control_c, 0, 64, 127
2, 63262, Note_on_c, 0, 60, 58
2, 63315, Note_on_c, 0, 65, 0
2, 63319, Note_on_c, 0, 60, 0
2, 63321, Note_on_c, 0, 66, 0
2, 63372, Note_on_c, 0, 57, 40
2, 63373, Note_on_c, 0, 62, 31
2, 63373, Note_on_c, 0, 58, 50
2, 63378, Control_c, 0, 64, 0
2, 63410, Control_c, 0, 64, 127
2, 63460, Note_on_c, 0, 62, 0
2, 63460, Note_on_c, 0, 87, 0
2, 63463, Note_on_c, 0, 57, 0
2, 63468, Note_on_c, 0, 58, 0
2, 63488, Note_on_c, 0, 62, 43
2, 63489, Note_on_c, 0, 57, 36
2, 63492, Note_on_c, 0, 58, 27
2, 63529, Note_on_c, 0, 98, 85
2, 63533, Note_on_c, 0, 97, 46
2, 63538, Note_on_c, 0, 97, 0
2, 63539, Note_on_c, 0, 62, 0
2, 63542, Note_on_c, 0, 57, 0
2, 63549, Note_on_c, 0, 58, 0
2, 63556, Note_on_c, 0, 98, 0
2, 63572, Note_on_c, 0, 94, 74
2, 63585, Note_on_c, 0, 94, 0
2, 63591, Note_on_c, 0, 97, 68
2, 63603, Note_on_c, 0, 96, 47
2, 63604, Note_on_c, 0, 97, 0
2, 63607, Note_on_c, 0, 96, 0
2, 63616, Note_on_c, 0, 62, 51
2, 63617, Note_on_c, 0, 86, 79
2, 63617, Note_on_c, 0, 67, 50
2, 63617, Note_on_c, 0, 56, 48
2, 63617, Note_on_c, 0, 98, 80
2, 63618, Control_c, 0, 64, 0
2, 63636, Control_c, 0, 64, 127
2, 63692, Note_on_c, 0, 86, 0
2, 63699, Note_on_c, 0, 98, 0
2, 63705, Note_on_c, 0, 67, 0
2, 63712, Note_on_c, 0, 62, 0
2, 63725, Note_on_c, 0, 56, 0
2, 63769, Note_on_c, 0, 66, 74
2, 63769, Note_on_c, 0, 61, 64
2, 63771, Note_on_c, 0, 99, 80
2, 63772, Note_on_c, 0, 55, 62
2, 63772, Note_on_c, 0, 87, 80
2, 63775, Control_c, 0, 64, 0
2, 63791, Control_c, 0, 64, 127
2, 63803, Note_on_c, 0, 55, 0
2, 63805, Note_on_c, 0, 66, 0
2, 63811, Note_on_c, 0, 99, 0
2, 63816, Note_on_c, 0, 87, 0
2, 63838, Note_on_c, 0, 61, 0
2, 63888, Note_on_c, 0, 63, 78
2, 63888, Note_on_c, 0, 99, 68
2, 63889, Note_on_c, 0, 87, 76
2, 63889, Note_on_c, 0, 53, 70
2, 63891, Note_on_c, 0, 58, 69
2, 63892, Control_c, 0, 64, 0
2, 63913, Control_c, 0, 64, 127
2, 63927, Note_on_c, 0, 53, 0
2, 63927, Note_on_c, 0, 87, 0
2, 63931, Note_on_c, 0, 63, 0
2, 63931, Note_on_c, 0, 99, 0
2, 63938, Note_on_c, 0, 58, 0
2, 63968, Note_on_c, 0, 55, 80
2, 63969, Note_on_c, 0, 65, 75
2, 63969, Note_on_c, 0, 60, 75
2, 63970, Note_on_c, 0, 96, 79
2, 63970, Note_on_c, 0, 108, 80
2, 63975, Control_c, 0, 64, 0
2, 63991, Control_c, 0, 64, 127
2, 64065, Note_on_c, 0, 108, 0
2, 64082, Note_on_c, 0, 96, 0
2, 64086, Note_on_c, 0, 60, 0
2, 64087, Note_on_c, 0, 65, 0
2, 64089, Note_on_c, 0, 55, 0
2, 64198, Note_on_c, 0, 68, 80
2, 64199, Note_on_c, 0, 77, 88
2, 64199, Note_on_c, 0, 63, 69
2, 64199, Note_on_c, 0, 84, 92
2, 64200, Note_on_c, 0, 60, 72
2, 64200, Note_on_c, 0, 80, 64
2, 64200, Note_on_c, 0, 72, 76
2, 64202, Control_c, 0, 64, 0
2, 64220, Control_c, 0, 64, 127
2, 64236, Note_on_c, 0, 84, 0
2, 64237, Note_on_c, 0, 68, 0
2, 64237, Note_on_c, 0, 72, 0
2, 64238, Note_on_c, 0, 60, 0
2, 64245, Note_on_c, 0, 77, 0
2, 64247, Note_on_c, 0, 63, 0
2, 64248, Note_on_c, 0, 80, 0
2, 64260, Control_c, 0, 64, 0
2, 64261, Note_on_c, 0, 78, 61
2, 64263, Note_on_c, 0, 56, 65
2, 64263, Note_on_c, 0, 61, 33
2, 64263, Note_on_c, 0, 82, 61
2, 64264, Note_on_c, 0, 66, 65
2, 64264, Note_on_c, 0, 70, 74
2, 64265, Note_on_c, 0, 78, 0
2, 64265, Note_on_c, 0, 77, 74
2, 64277, Note_on_c, 0, 61, 0
2, 64278, Control_c, 0, 64, 127
2, 64286, Note_on_c, 0, 77, 0
2, 64294, Note_on_c, 0, 82, 0
2, 64295, Note_on_c, 0, 66, 0
2, 64306, Note_on_c, 0, 56, 0
2, 64307, Note_on_c, 0, 70, 0
2, 64325, Control_c, 0, 64, 0
2, 64326, Note_on_c, 0, 65, 46
2, 64327, Note_on_c, 0, 62, 44
2, 64327, Note_on_c, 0, 70, 51
2, 64327, Note_on_c, 0, 74, 66
2, 64328, Note_on_c, 0, 55, 47
2, 64328, Note_on_c, 0, 58, 44
2, 64353, Control_c, 0, 64, 127
2, 64356, Note_on_c, 0, 74, 0
2, 64363, Note_on_c, 0, 70, 0
2, 64372, Note_on_c, 0, 65, 0
2, 64374, Note_on_c, 0, 62, 0
2, 64385, Note_on_c, 0, 70, 53
2, 64388, Note_on_c, 0, 65, 42
2, 64388, Note_on_c, 0, 62, 43
2, 64410, Note_on_c, 0, 62, 0
2, 64413, Note_on_c, 0, 65, 0
2, 64431, Note_on_c, 0, 70, 0
2, 64445, Note_on_c, 0, 64, 41
2, 64496, Note_on_c, 0, 55, 0
2, 64500, Note_on_c, 0, 58, 0
2, 64536, Note_on_c, 0, 63, 37
2, 64547, Note_on_c, 0, 64, 0
2, 64561, Note_on_c, 0, 63, 0
2, 64568, Note_on_c, 0, 48, 33
2, 64568, Note_on_c, 0, 64, 45
2, 64571, Control_c, 0, 64, 0
2, 64573, Note_on_c, 0, 58, 17
2, 64599, Note_on_c, 0, 61, 57
2, 64604, Note_on_c, 0, 64, 0
2, 64617, Note_on_c, 0, 58, 0
2, 64619, Note_on_c, 0, 61, 0
2, 64628, Note_on_c, 0, 60, 40
2, 64653, Note_on_c, 0, 60, 0
2, 64658, Note_on_c, 0, 58, 60
2, 64675, Note_on_c, 0, 48, 0
2, 64688, Note_on_c, 0, 56, 60
2, 64694, Note_on_c, 0, 58, 0
2, 64712, Note_on_c, 0, 56, 0
2, 64780, Note_on_c, 0, 55, 59
2, 64795, Note_on_c, 0, 55, 0
2, 64815, Note_on_c, 0, 56, 49
2, 64815, Note_on_c, 0, 44, 32
2, 64817, Note_on_c, 0, 51, 25
2, 64849, Control_c, 0, 64, 127
2, 64902, Note_on_c, 0, 56, 0
2, 64919, Note_on_c, 0, 51, 0
2, 64955, Note_on_c, 0, 53, 7
2, 64972, Note_on_c, 0, 59, 58
2, 64988, Note_on_c, 0, 59, 0
2, 64990, Note_on_c, 0, 44, 0
2, 64995, Note_on_c, 0, 53, 0
2, 64998, Note_on_c, 0, 63, 51
2, 65002, Control_c, 0, 64, 0
2, 65011, Note_on_c, 0, 63, 0
2, 65034, Note_on_c, 0, 70, 68
2, 65034, Note_on_c, 0, 63, 65
2, 65034, Note_on_c, 0, 67, 65
2, 65035, Note_on_c, 0, 59, 77
2, 65036, Note_on_c, 0, 58, 60
2, 65061, Note_on_c, 0, 59, 0
2, 65063, Note_on_c, 0, 67, 0
2, 65065, Note_on_c, 0, 70, 0
2, 65067, Note_on_c, 0, 63, 0
2, 65071, Note_on_c, 0, 58, 0
2, 65074, Note_on_c, 0, 56, 35
2, 65078, Note_on_c, 0, 68, 27
2, 65093, Note_on_c, 0, 68, 0
2, 65104, Note_on_c, 0, 70, 56
2, 65104, Note_on_c, 0, 63, 42
2, 65105, Note_on_c, 0, 56, 0
2, 65105, Note_on_c, 0, 67, 48
2, 65105, Note_on_c, 0, 59, 54
2, 65107, Note_on_c, 0, 58, 36
2, 65121, Note_on_c, 0, 59, 0
2, 65122, Note_on_c, 0, 67, 0
2, 65124, Note_on_c, 0, 63, 0
2, 65125, Note_on_c, 0, 70, 0
2, 65128, Note_on_c, 0, 58, 0
2, 65135, Note_on_c, 0, 56, 35
2, 65162, Note_on_c, 0, 56, 0
2, 65164, Note_on_c, 0, 70, 45
2, 65165, Note_on_c, 0, 58, 39
2, 65166, Note_on_c, 0, 63, 34
2, 65166, Note_on_c, 0, 59, 44
2, 65168, Note_on_c, 0, 67, 36
2, 65183, Control_c, 0, 64, 127
2, 65184, Note_on_c, 0, 67, 0
2, 65185, Note_on_c, 0, 59, 0
2, 65191, Note_on_c, 0, 63, 0
2, 65193, Note_on_c, 0, 70, 0
2, 65197, Note_on_c, 0, 58, 0
2, 65202, Note_on_c, 0, 63, 45
2, 65204, Note_on_c, 0, 56, 36
2, 65204, Note_on_c, 0, 68, 37
2, 65204, Note_on_c, 0, 59, 48
2, 65220, Note_on_c, 0, 56, 0
2, 65227, Note_on_c, 0, 59, 0
2, 65244, Note_on_c, 0, 68, 0
2, 65253, Note_on_c, 0, 63, 0
2, 65287, Note_on_c, 0, 46, 33
2, 65287, Note_on_c, 0, 67, 54
2, 65287, Control_c, 0, 64, 0
2, 65288, Note_on_c, 0, 62, 47
2, 65288, Note_on_c, 0, 55, 33
2, 65289, Note_on_c, 0, 58, 25
2, 65319, Control_c, 0, 64, 127
2, 65348, Note_on_c, 0, 58, 0
2, 65353, Note_on_c, 0, 62, 0
2, 65378, Note_on_c, 0, 46, 0
2, 65390, Note_on_c, 0, 55, 0
2, 65404, Note_on_c, 0, 46, 29
2, 65405, Note_on_c, 0, 55, 41
2, 65441, Note_on_c, 0, 67, 0
2, 65467, Note_on_c, 0, 46, 0
2, 65472, Note_on_c, 0, 63, 58
2, 65474, Note_on_c, 0, 55, 0
2, 65488, Note_on_c, 0, 63, 0
2, 65498, Note_on_c, 0, 64, 55
2, 65500, Control_c, 0, 64, 0
2, 65516, Note_on_c, 0, 64, 0
2, 65527, Note_on_c, 0, 70, 57
2, 65552, Note_on_c, 0, 70, 0
2, 65552, Note_on_c, 0, 75, 51
2, 65559, Note_on_c, 0, 75, 0
2, 65579, Note_on_c, 0, 76, 54
2, 65592, Note_on_c, 0, 76, 0
2, 65603, Note_on_c, 0, 82, 64
2, 65620, Note_on_c, 0, 82, 0
2, 65624, Note_on_c, 0, 87, 67
2, 65632, Note_on_c, 0, 87, 0
2, 65646, Note_on_c, 0, 88, 57
2, 65652, Note_on_c, 0, 88, 0
2, 65668, Note_on_c, 0, 94, 64
2, 65686, Note_on_c, 0, 94, 0
2, 65689, Note_on_c, 0, 99, 62
2, 65699, Note_on_c, 0, 99, 0
2, 65719, Note_on_c, 0, 98, 60
2, 65731, Note_on_c, 0, 98, 0
2, 65760, Note_on_c, 0, 96, 60
2, 65771, Note_on_c, 0, 96, 0
2, 65796, Note_on_c, 0, 94, 55
2, 65803, Note_on_c, 0, 65, 41
2, 65809, Note_on_c, 0, 57, 22
2, 65813, Note_on_c, 0, 94, 0
2, 65814, Note_on_c, 0, 65, 0
2, 65816, Note_on_c, 0, 57, 0
2, 65827, Note_on_c, 0, 96, 55
2, 65840, Note_on_c, 0, 96, 0
2, 65856, Note_on_c, 0, 92, 64
2, 65859, Note_on_c, 0, 65, 28
2, 65861, Note_on_c, 0, 57, 33
2, 65861, Note_on_c, 0, 63, 20
2, 65866, Note_on_c, 0, 93, 57
2, 65870, Note_on_c, 0, 92, 0
2, 65884, Note_on_c, 0, 93, 0
2, 65892, Note_on_c, 0, 65, 0
2, 65893, Note_on_c, 0, 57, 0
2, 65894, Note_on_c, 0, 63, 0
2, 65903, Note_on_c, 0, 89, 60
2, 65910, Note_on_c, 0, 65, 15
2, 65911, Note_on_c, 0, 63, 20
2, 65911, Note_on_c, 0, 57, 28
2, 65919, Note_on_c, 0, 89, 0
2, 65923, Note_on_c, 0, 65, 0
2, 65924, Note_on_c, 0, 57, 0
2, 65927, Note_on_c, 0, 63, 0
2, 65946, Note_on_c, 0, 87, 57
2, 65949, Note_on_c, 0, 57, 34
2, 65949, Note_on_c, 0, 63, 31
2, 65950, Note_on_c, 0, 65, 24
2, 65961, Note_on_c, 0, 65, 0
2, 65964, Note_on_c, 0, 87, 0
2, 65964, Note_on_c, 0, 57, 0
2, 65976, Note_on_c, 0, 63, 0
2, 65984, Note_on_c, 0, 86, 67
2, 65998, Note_on_c, 0, 86, 0
2, 66004, Note_on_c, 0, 87, 60
2, 66014, Note_on_c, 0, 88, 65
2, 66015, Note_on_c, 0, 87, 0
2, 66016, Note_on_c, 0, 65, 26
2, 66017, Note_on_c, 0, 62, 33
2, 66017, Note_on_c, 0, 56, 26
2, 66031, Note_on_c, 0, 89, 60
2, 66032, Note_on_c, 0, 88, 0
2, 66044, Note_on_c, 0, 89, 0
2, 66044, Note_on_c, 0, 62, 0
2, 66045, Note_on_c, 0, 65, 0
2, 66047, Note_on_c, 0, 56, 0
2, 66056, Note_on_c, 0, 86, 68
2, 66057, Note_on_c, 0, 65, 31
2, 66059, Note_on_c, 0, 56, 17
2, 66060, Note_on_c, 0, 62, 30
2, 66066, Note_on_c, 0, 86, 0
2, 66069, Note_on_c, 0, 62, 0
2, 66071, Note_on_c, 0, 65, 0
2, 66074, Note_on_c, 0, 56, 0
2, 66120, Note_on_c, 0, 82, 42
2, 66122, Note_on_c, 0, 65, 33
2, 66124, Note_on_c, 0, 62, 27
2, 66126, Note_on_c, 0, 56, 21
2, 66136, Note_on_c, 0, 65, 0
2, 66136, Note_on_c, 0, 82, 0
2, 66137, Note_on_c, 0, 62, 0
2, 66138, Note_on_c, 0, 56, 0
2, 66160, Note_on_c, 0, 82, 45
2, 66163, Note_on_c, 0, 65, 27
2, 66164, Note_on_c, 0, 62, 29
2, 66166, Note_on_c, 0, 56, 18
2, 66171, Note_on_c, 0, 82, 0
2, 66172, Note_on_c, 0, 65, 0
2, 66173, Note_on_c, 0, 62, 0
2, 66174, Note_on_c, 0, 56, 0
2, 66208, Note_on_c, 0, 82, 65
2, 66230, Note_on_c, 0, 82, 0
2, 66231, Note_on_c, 0, 81, 36
2, 66243, Note_on_c, 0, 81, 0
2, 66248, Note_on_c, 0, 82, 47
2, 66249, Note_on_c, 0, 67, 31
2, 66256, Note_on_c, 0, 62, 18
2, 66260, Note_on_c, 0, 67, 0
2, 66261, Note_on_c, 0, 82, 0
2, 66264, Note_on_c, 0, 62, 0
2, 66293, Note_on_c, 0, 82, 56
2, 66295, Note_on_c, 0, 67, 35
2, 66296, Note_on_c, 0, 63, 28
2, 66300, Note_on_c, 0, 62, 16
2, 66308, Note_on_c, 0, 67, 0
2, 66311, Note_on_c, 0, 63, 0
2, 66314, Note_on_c, 0, 82, 0
2, 66316, Note_on_c, 0, 62, 0
2, 66320, Note_on_c, 0, 81, 36
2, 66337, Note_on_c, 0, 81, 0
2, 66339, Note_on_c, 0, 82, 51
2, 66352, Note_on_c, 0, 82, 0
2, 66359, Note_on_c, 0, 87, 68
2, 66368, Note_on_c, 0, 67, 24
2, 66375, Note_on_c, 0, 67, 0
2, 66375, Note_on_c, 0, 87, 0
2, 66376, Note_on_c, 0, 82, 54
2, 66390, Note_on_c, 0, 82, 0
2, 66417, Note_on_c, 0, 82, 62
2, 66420, Note_on_c, 0, 67, 32
2, 66426, Note_on_c, 0, 82, 0
2, 66428, Note_on_c, 0, 67, 0
2, 66446, Note_on_c, 0, 82, 58
2, 66461, Note_on_c, 0, 82, 0
2, 66466, Note_on_c, 0, 81, 36
2, 66479, Note_on_c, 0, 81, 0
2, 66479, Note_on_c, 0, 82, 55
2, 66496, Note_on_c, 0, 82, 0
2, 66500, Note_on_c, 0, 87, 67
2, 66515, Note_on_c, 0, 87, 0
2, 66521, Note_on_c, 0, 82, 55
2, 66526, Note_on_c, 0, 68, 21
2, 66526, Note_on_c, 0, 63, 27
2, 66532, Note_on_c, 0, 82, 0
2, 66534, Note_on_c, 0, 68, 0
2, 66535, Note_on_c, 0, 63, 0
2, 66574, Note_on_c, 0, 82, 62
2, 66575, Note_on_c, 0, 68, 30
2, 66578, Note_on_c, 0, 63, 29
2, 66580, Note_on_c, 0, 60, 34
2, 66581, Note_on_c, 0, 58, 25
2, 66655, Control_c, 0, 64, 127
2, 66677, Note_on_c, 0, 82, 0
2, 66696, Note_on_c, 0, 68, 0
2, 66699, Note_on_c, 0, 63, 0
2, 66701, Note_on_c, 0, 60, 0
2, 66706, Control_c, 0, 64, 0
2, 66709, Note_on_c, 0, 58, 0
2, 66722, Note_on_c, 0, 61, 35
2, 66722, Note_on_c, 0, 67, 31
2, 66725, Note_on_c, 0, 60, 32
2, 66739, Note_on_c, 0, 60, 0
2, 66740, Note_on_c, 0, 67, 0
2, 66746, Note_on_c, 0, 61, 0
2, 66794, Note_on_c, 0, 69, 32
2, 66801, Note_on_c, 0, 69, 0
2, 66804, Note_on_c, 0, 70, 48
2, 66812, Note_on_c, 0, 70, 0
2, 66819, Note_on_c, 0, 72, 53
2, 66830, Note_on_c, 0, 72, 0
2, 66831, Note_on_c, 0, 73, 40
2, 66842, Note_on_c, 0, 73, 0
2, 66845, Note_on_c, 0, 75, 50
2, 66852, Note_on_c, 0, 75, 0
2, 66857, Note_on_c, 0, 76, 49
2, 66866, Note_on_c, 0, 76, 0
2, 66885, Note_on_c, 0, 79, 36
2, 66896, Note_on_c, 0, 79, 0
2, 66897, Note_on_c, 0, 81, 41
2, 66911, Note_on_c, 0, 81, 0
2, 66912, Note_on_c, 0, 82, 43
2, 66916, Note_on_c, 0, 82, 0
2, 66927, Note_on_c, 0, 84, 48
2, 66934, Note_on_c, 0, 84, 0
2, 66937, Note_on_c, 0, 85, 35
2, 66942, Note_on_c, 0, 85, 0
2, 66950, Note_on_c, 0, 87, 37
2, 66958, Note_on_c, 0, 87, 0
2, 66960, Note_on_c, 0, 88, 53
2, 66969, Note_on_c, 0, 88, 0
2, 66973, Note_on_c, 0, 89, 58
2, 66976, Note_on_c, 0, 54, 28
2, 66979, Note_on_c, 0, 65, 25
2, 66980, Note_on_c, 0, 60, 33
2, 66985, Note_on_c, 0, 89, 0
2, 66991, Note_on_c, 0, 86, 48
2, 67004, Note_on_c, 0, 86, 0
2, 67028, Note_on_c, 0, 86, 40
2, 67038, Note_on_c, 0, 86, 0
2, 67060, Note_on_c, 0, 86, 54
2, 67068, Note_on_c, 0, 86, 0
2, 67089, Note_on_c, 0, 86, 44
2, 67142, Note_on_c, 0, 60, 0
2, 67146, Note_on_c, 0, 65, 0
2, 67156, Note_on_c, 0, 54, 0
2, 67171, Note_on_c, 0, 86, 0
2, 67177, Note_on_c, 0, 84, 47
2, 67192, Note_on_c, 0, 84, 0
2, 67197, Note_on_c, 0, 53, 20
2, 67199, Note_on_c, 0, 85, 48
2, 67201, Note_on_c, 0, 62, 29
2, 67203, Note_on_c, 0, 55, 20
2, 67205, Note_on_c, 0, 58, 25
2, 67210, Note_on_c, 0, 85, 0
2, 67211, Note_on_c, 0, 86, 51
2, 67229, Note_on_c, 0, 86, 0
2, 67231, Note_on_c, 0, 53, 0
2, 67245, Note_on_c, 0, 86, 52
2, 67251, Note_on_c, 0, 86, 0
2, 67267, Note_on_c, 0, 55, 0
2, 67267, Note_on_c, 0, 62, 0
2, 67272, Note_on_c, 0, 58, 0
2, 67326, Note_on_c, 0, 62, 24
2, 67327, Note_on_c, 0, 53, 22
2, 67328, Note_on_c, 0, 55, 24
2, 67338, Note_on_c, 0, 62, 0
2, 67339, Note_on_c, 0, 53, 0
2, 67341, Note_on_c, 0, 55, 0
2, 67433, Note_on_c, 0, 67, 32
2, 67434, Note_on_c, 0, 56, 29
2, 67435, Note_on_c, 0, 62, 39
2, 67480, Note_on_c, 0, 67, 0
2, 67482, Note_on_c, 0, 56, 0
2, 67485, Note_on_c, 0, 62, 0
2, 67495, Note_on_c, 0, 67, 55
2, 67496, Note_on_c, 0, 56, 45
2, 67496, Note_on_c, 0, 79, 79
2, 67496, Note_on_c, 0, 62, 44
2, 67496, Note_on_c, 0, 91, 81
2, 67502, Note_on_c, 0, 67, 0
2, 67503, Note_on_c, 0, 91, 0
2, 67503, Note_on_c, 0, 79, 0
2, 67505, Note_on_c, 0, 62, 0
2, 67509, Note_on_c, 0, 56, 0
2, 67555, Note_on_c, 0, 61, 77
2, 67555, Note_on_c, 0, 55, 83
2, 67556, Note_on_c, 0, 66, 83
2, 67556, Note_on_c, 0, 96, 95
2, 67556, Note_on_c, 0, 84, 99
2, 67613, Control_c, 0, 64, 127
2, 67628, Note_on_c, 0, 96, 0
2, 67634, Note_on_c, 0, 84, 0
2, 67635, Note_on_c, 0, 55, 0
2, 67639, Note_on_c, 0, 66, 0
2, 67643, Note_on_c, 0, 61, 0
2, 67653, Note_on_c, 0, 61, 52
2, 67653, Note_on_c, 0, 66, 44
2, 67654, Note_on_c, 0, 94, 71
2, 67655, Note_on_c, 0, 82, 55
2, 67660, Note_on_c, 0, 66, 0
2, 67668, Note_on_c, 0, 94, 0
2, 67669, Note_on_c, 0, 61, 0
2, 67669, Note_on_c, 0, 82, 0
2, 67689, Control_c, 0, 64, 0
2, 67690, Note_on_c, 0, 79, 53
2, 67690, Note_on_c, 0, 91, 61
2, 67691, Note_on_c, 0, 60, 55
2, 67691, Note_on_c, 0, 63, 40
2, 67692, Note_on_c, 0, 53, 43
2, 67695, Note_on_c, 0, 58, 33
2, 67725, Control_c, 0, 64, 127
2, 67741, Note_on_c, 0, 91, 0
2, 67746, Note_on_c, 0, 53, 0
2, 67751, Note_on_c, 0, 79, 0
2, 67753, Note_on_c, 0, 63, 0
2, 67755, Note_on_c, 0, 60, 0
2, 67765, Note_on_c, 0, 58, 0
2, 67805, Note_on_c, 0, 87, 39
2, 67806, Note_on_c, 0, 75, 30
2, 67807, Note_on_c, 0, 60, 36
2, 67808, Note_on_c, 0, 63, 19
2, 67808, Control_c, 0, 64, 0
2, 67809, Note_on_c, 0, 53, 18
2, 67815, Note_on_c, 0, 58, 14
2, 67831, Control_c, 0, 64, 127
2, 67858, Note_on_c, 0, 53, 0
2, 67860, Note_on_c, 0, 60, 0
2, 67868, Note_on_c, 0, 63, 0
2, 67870, Note_on_c, 0, 58, 0
2, 67927, Note_on_c, 0, 87, 0
2, 67937, Note_on_c, 0, 75, 0
2, 67989, Note_on_c, 0, 67, 67
2, 67990, Note_on_c, 0, 63, 48
2, 67992, Note_on_c, 0, 56, 46
2, 67992, Note_on_c, 0, 60, 60
2, 67998, Control_c, 0, 64, 0
2, 68050, Note_on_c, 0, 79, 95
2, 68064, Note_on_c, 0, 67, 0
2, 68071, Note_on_c, 0, 79, 0
2, 68072, Note_on_c, 0, 56, 0
2, 68078, Note_on_c, 0, 63, 0
2, 68082, Note_on_c, 0, 60, 0
2, 68086, Note_on_c, 0, 77, 73
2, 68092, Note_on_c, 0, 66, 31
2, 68092, Note_on_c, 0, 62, 36
2, 68099, Note_on_c, 0, 56, 14
2, 68104, Note_on_c, 0, 77, 0
2, 68117, Note_on_c, 0, 75, 42
2, 68125, Note_on_c, 0, 66, 0
2, 68127, Note_on_c, 0, 62, 0
2, 68139, Note_on_c, 0, 75, 0
2, 68140, Note_on_c, 0, 56, 0
2, 68149, Note_on_c, 0, 74, 63
2, 68154, Note_on_c, 0, 65, 24
2, 68156, Note_on_c, 0, 55, 24
2, 68158, Note_on_c, 0, 62, 22
2, 68166, Note_on_c, 0, 74, 0
2, 68177, Note_on_c, 0, 58, 1
2, 68179, Note_on_c, 0, 72, 42
2, 68204, Note_on_c, 0, 72, 0
2, 68223, Note_on_c, 0, 70, 45
2, 68251, Note_on_c, 0, 70, 0
2, 68264, Note_on_c, 0, 70, 33
2, 68318, Note_on_c, 0, 70, 0
2, 68329, Note_on_c, 0, 65, 0
2, 68337, Note_on_c, 0, 62, 0
2, 68338, Note_on_c, 0, 82, 77
2, 68345, Note_on_c, 0, 55, 0
2, 68353, Note_on_c, 0, 58, 0
2, 68364, Note_on_c, 0, 82, 0
2, 68383, Note_on_c, 0, 80, 62
2, 68384, Note_on_c, 0, 58, 31
2, 68384, Note_on_c, 0, 63, 28
2, 68386, Note_on_c, 0, 52, 25
2, 68395, Note_on_c, 0, 63, 0
2, 68398, Note_on_c, 0, 52, 0
2, 68407, Note_on_c, 0, 80, 0
2, 68414, Note_on_c, 0, 58, 0
2, 68417, Note_on_c, 0, 79, 47
2, 68437, Note_on_c, 0, 79, 0
2, 68444, Note_on_c, 0, 77, 50
2, 68463, Note_on_c, 0, 77, 0
2, 68472, Note_on_c, 0, 76, 35
2, 68494, Note_on_c, 0, 76, 0
2, 68502, Note_on_c, 0, 63, 40
2, 68503, Note_on_c, 0, 75, 47
2, 68514, Note_on_c, 0, 63, 0
2, 68525, Note_on_c, 0, 75, 0
2, 68535, Note_on_c, 0, 73, 36
2, 68566, Note_on_c, 0, 63, 43
2, 68567, Note_on_c, 0, 73, 0
2, 68573, Note_on_c, 0, 63, 0
2, 68585, Note_on_c, 0, 73, 45
2, 68625, Note_on_c, 0, 72, 59
2, 68626, Note_on_c, 0, 63, 46
2, 68627, Note_on_c, 0, 73, 0
2, 68627, Note_on_c, 0, 60, 46
2, 68631, Note_on_c, 0, 58, 36
2, 68637, Note_on_c, 0, 63, 0
2, 68646, Note_on_c, 0, 60, 0
2, 68655, Note_on_c, 0, 72, 0
2, 68660, Note_on_c, 0, 70, 50
2, 68672, Note_on_c, 0, 58, 0
2, 68694, Note_on_c, 0, 70, 0
2, 68705, Note_on_c, 0, 70, 45
2, 68742, Note_on_c, 0, 68, 55
2, 68748, Note_on_c, 0, 60, 27
2, 68749, Note_on_c, 0, 70, 0
2, 68756, Note_on_c, 0, 60, 0
2, 68765, Note_on_c, 0, 68, 0
2, 68773, Note_on_c, 0, 67, 48
2, 68797, Note_on_c, 0, 67, 0
2, 68804, Note_on_c, 0, 68, 53
2, 68819, Note_on_c, 0, 68, 0
2, 68827, Note_on_c, 0, 70, 47
2, 68861, Note_on_c, 0, 63, 36
2, 68863, Note_on_c, 0, 68, 36
2, 68865, Note_on_c, 0, 59, 36
2, 68866, Note_on_c, 0, 56, 27
2, 68876, Note_on_c, 0, 63, 0
2, 68884, Note_on_c, 0, 59, 0
2, 68889, Note_on_c, 0, 68, 0
2, 68890, Note_on_c, 0, 70, 0
2, 68896, Note_on_c, 0, 65, 40
2, 68903, Note_on_c, 0, 56, 0
2, 68926, Note_on_c, 0, 65, 0
2, 68941, Note_on_c, 0, 65, 44
2, 68977, Note_on_c, 0, 65, 0
2, 69041, Note_on_c, 0, 63, 37
2, 69041, Note_on_c, 0, 59, 44
2, 69043, Note_on_c, 0, 56, 27
2, 69055, Note_on_c, 0, 59, 0
2, 69055, Note_on_c, 0, 63, 0
2, 69060, Note_on_c, 0, 56, 0
2, 69121, Note_on_c, 0, 62, 32
2, 69122, Note_on_c, 0, 65, 25
2, 69122, Note_on_c, 0, 60, 39
2, 69123, Note_on_c, 0, 55, 32
2, 69140, Note_on_c, 0, 65, 0
2, 69142, Note_on_c, 0, 62, 0
2, 69142, Note_on_c, 0, 60, 0
2, 69142, Note_on_c, 0, 55, 0
2, 69220, Note_on_c, 0, 62, 30
2, 69233, Note_on_c, 0, 62, 0
2, 69237, Note_on_c, 0, 71, 59
2, 69238, Note_on_c, 0, 79, 57
2, 69249, Note_on_c, 0, 71, 0
2, 69254, Note_on_c, 0, 79, 0
2, 69256, Note_on_c, 0, 74, 57
2, 69269, Note_on_c, 0, 74, 0
2, 69276, Note_on_c, 0, 71, 66
2, 69278, Note_on_c, 0, 79, 60
2, 69279, Note_on_c, 0, 62, 46
2, 69284, Note_on_c, 0, 55, 44
2, 69320, Note_on_c, 0, 62, 0
2, 69322, Note_on_c, 0, 55, 0
2, 69329, Note_on_c, 0, 79, 0
2, 69333, Note_on_c, 0, 74, 49
2, 69335, Note_on_c, 0, 67, 50
2, 69343, Note_on_c, 0, 71, 0
2, 69344, Note_on_c, 0, 67, 0
2, 69347, Note_on_c, 0, 74, 0
2, 69417, Note_on_c, 0, 75, 60
2, 69418, Note_on_c, 0, 68, 46
2, 69418, Note_on_c, 0, 63, 43
2, 69419, Note_on_c, 0, 64, 48
2, 69423, Note_on_c, 0, 64, 0
2, 69423, Note_on_c, 0, 68, 0
2, 69428, Note_on_c, 0, 75, 0
2, 69432, Note_on_c, 0, 63, 0
2, 69439, Note_on_c, 0, 61, 46
2, 69455, Note_on_c, 0, 61, 0
2, 69461, Note_on_c, 0, 75, 63
2, 69461, Note_on_c, 0, 68, 67
2, 69461, Note_on_c, 0, 72, 62
2, 69462, Note_on_c, 0, 64, 70
2, 69462, Note_on_c, 0, 63, 67
2, 69519, Note_on_c, 0, 72, 0
2, 69527, Note_on_c, 0, 64, 0
2, 69527, Note_on_c, 0, 68, 0
2, 69531, Note_on_c, 0, 75, 0
2, 69533, Note_on_c, 0, 63, 0
2, 69541, Note_on_c, 0, 68, 40
2, 69541, Note_on_c, 0, 64, 44
2, 69542, Note_on_c, 0, 72, 38
2, 69543, Note_on_c, 0, 60, 38
2, 69549, Note_on_c, 0, 64, 0
2, 69550, Note_on_c, 0, 68, 0
2, 69550, Note_on_c, 0, 60, 0
2, 69553, Note_on_c, 0, 72, 0
2, 69658, Note_on_c, 0, 73, 49
2, 69659, Note_on_c, 0, 69, 71
2, 69659, Note_on_c, 0, 77, 57
2, 69660, Note_on_c, 0, 63, 47
2, 69661, Note_on_c, 0, 67, 41
2, 69663, Note_on_c, 0, 74, 54
2, 69664, Note_on_c, 0, 69, 0
2, 69665, Note_on_c, 0, 73, 0
2, 69666, Note_on_c, 0, 67, 0
2, 69668, Note_on_c, 0, 63, 0
2, 69669, Note_on_c, 0, 77, 0
2, 69676, Note_on_c, 0, 74, 0
2, 69706, Note_on_c, 0, 77, 80
2, 69706, Note_on_c, 0, 73, 50
2, 69707, Note_on_c, 0, 68, 76
2, 69709, Note_on_c, 0, 67, 58
2, 69709, Note_on_c, 0, 63, 50
2, 69723, Note_on_c, 0, 74, 24
2, 69753, Note_on_c, 0, 74, 0
2, 69758, Note_on_c, 0, 73, 0
2, 69761, Note_on_c, 0, 67, 0
2, 69763, Note_on_c, 0, 68, 0
2, 69766, Note_on_c, 0, 63, 0
2, 69770, Note_on_c, 0, 77, 0
2, 69774, Note_on_c, 0, 68, 35
2, 69775, Note_on_c, 0, 73, 33
2, 69775, Note_on_c, 0, 63, 42
2, 69775, Note_on_c, 0, 67, 32
2, 69784, Note_on_c, 0, 67, 0
2, 69788, Note_on_c, 0, 68, 0
2, 69793, Note_on_c, 0, 63, 0
2, 69797, Note_on_c, 0, 73, 0
2, 69837, Note_on_c, 0, 75, 42
2, 69837, Note_on_c, 0, 68, 42
2, 69837, Note_on_c, 0, 72, 48
2, 69839, Note_on_c, 0, 62, 37
2, 69840, Note_on_c, 0, 67, 40
2, 69841, Note_on_c, 0, 56, 23
2, 69892, Control_c, 0, 64, 127
2, 69915, Note_on_c, 0, 67, 0
2, 69918, Note_on_c, 0, 68, 0
2, 69923, Note_on_c, 0, 72, 0
2, 69929, Note_on_c, 0, 56, 0
2, 69943, Note_on_c, 0, 75, 0
2, 69945, Note_on_c, 0, 62, 0
2, 69958, Note_on_c, 0, 62, 24
2, 69959, Note_on_c, 0, 74, 52
2, 69959, Note_on_c, 0, 66, 37
2, 69959, Note_on_c, 0, 71, 49
2, 69960, Note_on_c, 0, 67, 35
2, 69961, Note_on_c, 0, 56, 28
2, 69961, Control_c, 0, 64, 0
2, 69996, Control_c, 0, 64, 127
2, 70018, Note_on_c, 0, 67, 0
2, 70026, Note_on_c, 0, 71, 0
2, 70026, Note_on_c, 0, 74, 0
2, 70034, Note_on_c, 0, 66, 0
2, 70035, Note_on_c, 0, 62, 0
2, 70055, Note_on_c, 0, 56, 0
2, 70056, Note_on_c, 0, 77, 62
2, 70072, Note_on_c, 0, 77, 0
2, 70080, Note_on_c, 0, 70, 56
2, 70080, Note_on_c, 0, 65, 55
2, 70083, Control_c, 0, 64, 0
2, 70083, Note_on_c, 0, 62, 37
2, 70087, Note_on_c, 0, 58, 25
2, 70087, Note_on_c, 0, 55, 32
2, 70117, Control_c, 0, 64, 127
2, 70153, Note_on_c, 0, 65, 0
2, 70167, Note_on_c, 0, 62, 0
2, 70168, Note_on_c, 0, 70, 0
2, 70189, Note_on_c, 0, 58, 0
2, 70195, Note_on_c, 0, 55, 0
2, 70237, Note_on_c, 0, 62, 62
2, 70237, Note_on_c, 0, 91, 75
2, 70238, Note_on_c, 0, 65, 67
2, 70239, Note_on_c, 0, 58, 52
2, 70239, Note_on_c, 0, 55, 65
2, 70239, Note_on_c, 0, 79, 69
2, 70239, Note_on_c, 0, 86, 82
2, 70256, Note_on_c, 0, 65, 0
2, 70258, Note_on_c, 0, 79, 0
2, 70258, Note_on_c, 0, 91, 0
2, 70260, Note_on_c, 0, 90, 32
2, 70263, Note_on_c, 0, 55, 0
2, 70263, Note_on_c, 0, 86, 0
2, 70264, Note_on_c, 0, 90, 0
2, 70264, Note_on_c, 0, 62, 0
2, 70266, Note_on_c, 0, 58, 0
2, 70280, Note_on_c, 0, 55, 65
2, 70280, Note_on_c, 0, 62, 62
2, 70280, Note_on_c, 0, 80, 76
2, 70280, Note_on_c, 0, 92, 80
2, 70280, Note_on_c, 0, 58, 52
2, 70281, Note_on_c, 0, 65, 65
2, 70281, Note_on_c, 0, 87, 64
2, 70294, Note_on_c, 0, 55, 0
2, 70297, Note_on_c, 0, 62, 0
2, 70300, Note_on_c, 0, 80, 0
2, 70301, Note_on_c, 0, 65, 0
2, 70303, Note_on_c, 0, 87, 0
2, 70305, Note_on_c, 0, 58, 0
2, 70306, Note_on_c, 0, 92, 0
2, 70323, Note_on_c, 0, 67, 80
2, 70323, Note_on_c, 0, 63, 62
2, 70323, Note_on_c, 0, 56, 69
2, 70324, Note_on_c, 0, 60, 68
2, 70324, Note_on_c, 0, 94, 83
2, 70325, Note_on_c, 0, 82, 79
2, 70325, Note_on_c, 0, 87, 80
2, 70326, Control_c, 0, 64, 0
2, 70365, Control_c, 0, 64, 127
2, 70416, Note_on_c, 0, 82, 0
2, 70417, Note_on_c, 0, 94, 0
2, 70419, Note_on_c, 0, 87, 0
2, 70421, Note_on_c, 0, 67, 0
2, 70423, Note_on_c, 0, 56, 0
2, 70427, Note_on_c, 0, 63, 0
2, 70428, Note_on_c, 0, 60, 0
2, 70445, Note_on_c, 0, 66, 56
2, 70446, Note_on_c, 0, 91, 52
2, 70446, Note_on_c, 0, 79, 45
2, 70447, Note_on_c, 0, 56, 32
2, 70449, Note_on_c, 0, 62, 42
2, 70450, Note_on_c, 0, 60, 44
2, 70450, Note_on_c, 0, 86, 33
2, 70452, Control_c, 0, 64, 0
2, 70462, Note_on_c, 0, 91, 0
2, 70465, Note_on_c, 0, 79, 0
2, 70466, Note_on_c, 0, 86, 0
2, 70468, Note_on_c, 0, 56, 0
2, 70469, Note_on_c, 0, 60, 0
2, 70470, Note_on_c, 0, 66, 0
2, 70470, Control_c, 0, 64, 127
2, 70473, Note_on_c, 0, 62, 0
2, 70473, Control_c, 0, 64, 0
2, 70486, Note_on_c, 0, 92, 56
2, 70487, Note_on_c, 0, 80, 37
2, 70489, Note_on_c, 0, 66, 28
2, 70490, Note_on_c, 0, 62, 36
2, 70493, Note_on_c, 0, 66, 0
2, 70496, Note_on_c, 0, 92, 0
2, 70496, Note_on_c, 0, 80, 0
2, 70496, Note_on_c, 0, 62, 0
2, 70504, Note_on_c, 0, 66, 51
2, 70506, Note_on_c, 0, 56, 40
2, 70506, Note_on_c, 0, 62, 33
2, 70506, Note_on_c, 0, 81, 57
2, 70507, Note_on_c, 0, 93, 38
2, 70509, Note_on_c, 0, 60, 36
2, 70525, Note_on_c, 0, 62, 0
2, 70529, Note_on_c, 0, 60, 0
2, 70535, Note_on_c, 0, 66, 0
2, 70539, Note_on_c, 0, 93, 0
2, 70545, Note_on_c, 0, 81, 0
2, 70547, Note_on_c, 0, 56, 0
2, 70567, Note_on_c, 0, 66, 55
2, 70567, Note_on_c, 0, 61, 53
2, 70568, Note_on_c, 0, 55, 50
2, 70569, Note_on_c, 0, 94, 55
2, 70571, Note_on_c, 0, 82, 25
2, 70574, Note_on_c, 0, 94, 0
2, 70575, Note_on_c, 0, 82, 0
2, 70576, Note_on_c, 0, 66, 0
2, 70580, Note_on_c, 0, 55, 0
2, 70588, Note_on_c, 0, 61, 0
2, 70681, Note_on_c, 0, 66, 44
2, 70681, Note_on_c, 0, 61, 43
2, 70685, Note_on_c, 0, 55, 32
2, 70692, Note_on_c, 0, 55, 0
2, 70698, Note_on_c, 0, 61, 0
2, 70699, Note_on_c, 0, 66, 0
2, 70731, Note_on_c, 0, 61, 18
2, 70745, Note_on_c, 0, 61, 0
2, 70777, Note_on_c, 0, 100, 76
2, 70791, Note_on_c, 0, 100, 0
2, 70801, Note_on_c, 0, 54, 37
2, 70801, Note_on_c, 0, 65, 35
2, 70803, Note_on_c, 0, 60, 45
2, 70816, Note_on_c, 0, 100, 33
2, 70818, Note_on_c, 0, 101, 65
2, 70822, Note_on_c, 0, 100, 0
2, 70831, Note_on_c, 0, 60, 0
2, 70831, Note_on_c, 0, 54, 0
2, 70832, Note_on_c, 0, 65, 0
2, 70835, Note_on_c, 0, 101, 0
2, 70855, Note_on_c, 0, 98, 62
2, 70867, Note_on_c, 0, 98, 0
2, 70893, Note_on_c, 0, 96, 62
2, 70896, Note_on_c, 0, 65, 55
2, 70899, Note_on_c, 0, 60, 44
2, 70900, Note_on_c, 0, 54, 20
2, 70903, Note_on_c, 0, 96, 0
2, 70906, Note_on_c, 0, 65, 0
2, 70908, Note_on_c, 0, 54, 0
2, 70918, Note_on_c, 0, 60, 0
2, 70930, Note_on_c, 0, 94, 60
2, 70952, Note_on_c, 0, 94, 0
2, 70972, Note_on_c, 0, 93, 69
2, 70999, Note_on_c, 0, 93, 0
2, 71014, Note_on_c, 0, 62, 56
2, 71015, Note_on_c, 0, 58, 45
2, 71015, Note_on_c, 0, 57, 38
2, 71016, Note_on_c, 0, 96, 59
2, 71018, Note_on_c, 0, 53, 30
2, 71022, Note_on_c, 0, 57, 0
2, 71023, Note_on_c, 0, 62, 0
2, 71025, Note_on_c, 0, 53, 0
2, 71026, Note_on_c, 0, 58, 0
2, 71033, Note_on_c, 0, 96, 0
2, 71048, Note_on_c, 0, 94, 54
2, 71072, Note_on_c, 0, 94, 0
2, 71079, Note_on_c, 0, 86, 53
2, 71093, Note_on_c, 0, 86, 0
2, 71218, Note_on_c, 0, 62, 47
2, 71219, Note_on_c, 0, 58, 37
2, 71219, Note_on_c, 0, 53, 40
2, 71228, Note_on_c, 0, 53, 0
2, 71233, Note_on_c, 0, 62, 0
2, 71234, Note_on_c, 0, 58, 0
2, 71279, Note_on_c, 0, 67, 62
2, 71280, Note_on_c, 0, 62, 54
2, 71283, Note_on_c, 0, 56, 33
2, 71376, Note_on_c, 0, 62, 0
2, 71383, Note_on_c, 0, 67, 0
2, 71394, Note_on_c, 0, 56, 0
2, 71402, Note_on_c, 0, 66, 55
2, 71402, Note_on_c, 0, 55, 60
2, 71403, Note_on_c, 0, 61, 45
2, 71461, Note_on_c, 0, 84, 99
2, 71466, Note_on_c, 0, 55, 0
2, 71466, Note_on_c, 0, 66, 0
2, 71482, Note_on_c, 0, 61, 0
2, 71491, Note_on_c, 0, 84, 0
2, 71503, Note_on_c, 0, 91, 83
2, 71504, Note_on_c, 0, 63, 56
2, 71505, Note_on_c, 0, 60, 57
2, 71508, Note_on_c, 0, 58, 36
2, 71510, Note_on_c, 0, 53, 24
2, 71523, Note_on_c, 0, 63, 0
2, 71528, Note_on_c, 0, 91, 0
2, 71528, Note_on_c, 0, 53, 0
2, 71535, Note_on_c, 0, 60, 0
2, 71539, Note_on_c, 0, 89, 66
2, 71563, Note_on_c, 0, 89, 0
2, 71565, Note_on_c, 0, 58, 0
2, 71584, Note_on_c, 0, 87, 64
2, 71609, Note_on_c, 0, 87, 0
2, 71623, Note_on_c, 0, 63, 37
2, 71623, Note_on_c, 0, 84, 55
2, 71624, Note_on_c, 0, 60, 39
2, 71630, Note_on_c, 0, 58, 20
2, 71631, Note_on_c, 0, 63, 0
2, 71636, Note_on_c, 0, 60, 0
2, 71639, Note_on_c, 0, 84, 0
2, 71652, Note_on_c, 0, 79, 43
2, 71660, Note_on_c, 0, 58, 0
2, 71680, Note_on_c, 0, 79, 0
2, 71701, Note_on_c, 0, 79, 35
2, 71737, Note_on_c, 0, 79, 0
2, 71740, Note_on_c, 0, 77, 37
2, 71757, Note_on_c, 0, 77, 0
2, 71770, Note_on_c, 0, 75, 52
2, 71802, Note_on_c, 0, 75, 0
2, 71817, Note_on_c, 0, 75, 61
2, 71817, Note_on_c, 0, 68, 35
2, 71820, Note_on_c, 0, 63, 33
2, 71849, Note_on_c, 0, 75, 0
2, 71856, Note_on_c, 0, 74, 59
2, 71859, Note_on_c, 0, 68, 0
2, 71879, Note_on_c, 0, 74, 0
2, 71885, Note_on_c, 0, 63, 0
2, 71887, Note_on_c, 0, 72, 33
2, 71938, Note_on_c, 0, 64, 61
2, 71940, Note_on_c, 0, 60, 48
2, 71940, Note_on_c, 0, 54, 31
2, 71951, Note_on_c, 0, 64, 0
2, 71953, Note_on_c, 0, 60, 0
2, 71968, Note_on_c, 0, 54, 0
2, 71995, Note_on_c, 0, 55, 50
2, 71998, Note_on_c, 0, 58, 37
2, 71999, Note_on_c, 0, 62, 39
2, 72010, Note_on_c, 0, 72, 0
2, 72060, Note_on_c, 0, 69, 88
2, 72060, Note_on_c, 0, 72, 74
2, 72094, Note_on_c, 0, 69, 0
2, 72098, Note_on_c, 0, 70, 44
2, 72099, Note_on_c, 0, 67, 45
2, 72101, Note_on_c, 0, 72, 0
2, 72113, Note_on_c, 0, 67, 0
2, 72115, Note_on_c, 0, 70, 0
2, 72119, Note_on_c, 0, 62, 0
2, 72123, Note_on_c, 0, 69, 58
2, 72125, Note_on_c, 0, 72, 45
2, 72156, Note_on_c, 0, 72, 0
2, 72157, Note_on_c, 0, 69, 0
2, 72161, Note_on_c, 0, 70, 46
2, 72162, Note_on_c, 0, 62, 36
2, 72162, Note_on_c, 0, 67, 47
2, 72173, Note_on_c, 0, 62, 0
2, 72194, Note_on_c, 0, 55, 0
2, 72223, Note_on_c, 0, 70, 0
2, 72224, Note_on_c, 0, 67, 0
2, 72236, Note_on_c, 0, 73, 43
2, 72237, Note_on_c, 0, 70, 49
2, 72238, Note_on_c, 0, 52, 29
2, 72243, Note_on_c, 0, 64, 24
2, 72261, Note_on_c, 0, 58, 0
2, 72267, Note_on_c, 0, 64, 0
2, 72275, Note_on_c, 0, 70, 0
2, 72277, Note_on_c, 0, 73, 0
2, 72282, Note_on_c, 0, 52, 0
2, 72295, Note_on_c, 0, 73, 35
2, 72296, Note_on_c, 0, 70, 46
2, 72298, Note_on_c, 0, 64, 35
2, 72300, Note_on_c, 0, 61, 32
2, 72329, Note_on_c, 0, 64, 0
2, 72330, Note_on_c, 0, 61, 0
2, 72333, Note_on_c, 0, 73, 0
2, 72337, Note_on_c, 0, 64, 37
2, 72339, Note_on_c, 0, 72, 33
2, 72344, Note_on_c, 0, 60, 34
2, 72406, Note_on_c, 0, 64, 0
2, 72420, Note_on_c, 0, 72, 0
2, 72429, Note_on_c, 0, 70, 0
2, 72460, Note_on_c, 0, 60, 0
2, 72476, Note_on_c, 0, 75, 55
2, 72476, Note_on_c, 0, 72, 51
2, 72477, Note_on_c, 0, 68, 42
2, 72477, Note_on_c, 0, 65, 50
2, 72479, Note_on_c, 0, 63, 43
2, 72514, Note_on_c, 0, 65, 0
2, 72515, Note_on_c, 0, 75, 0
2, 72516, Note_on_c, 0, 68, 0
2, 72517, Note_on_c, 0, 63, 0
2, 72519, Note_on_c, 0, 72, 0
2, 72535, Note_on_c, 0, 63, 48
2, 72537, Note_on_c, 0, 75, 55
2, 72538, Note_on_c, 0, 68, 46
2, 72538, Note_on_c, 0, 72, 47
2, 72538, Note_on_c, 0, 65, 59
2, 72577, Note_on_c, 0, 72, 0
2, 72581, Note_on_c, 0, 65, 0
2, 72583, Note_on_c, 0, 68, 0
2, 72589, Note_on_c, 0, 75, 0
2, 72599, Note_on_c, 0, 72, 34
2, 72600, Note_on_c, 0, 63, 0
2, 72600, Note_on_c, 0, 65, 40
2, 72601, Note_on_c, 0, 68, 34
2, 72603, Note_on_c, 0, 60, 40
2, 72642, Note_on_c, 0, 65, 0
2, 72645, Note_on_c, 0, 68, 0
2, 72657, Note_on_c, 0, 72, 0
2, 72662, Note_on_c, 0, 63, 25
2, 72664, Note_on_c, 0, 65, 29
2, 72664, Note_on_c, 0, 68, 27
2, 72706, Note_on_c, 0, 63, 0
2, 72732, Note_on_c, 0, 65, 0
2, 72737, Note_on_c, 0, 68, 0
2, 72769, Note_on_c, 0, 60, 0
2, 72841, Note_on_c, 0, 75, 49
2, 72843, Note_on_c, 0, 79, 66
2, 72844, Note_on_c, 0, 68, 53
2, 72845, Note_on_c, 0, 67, 73
2, 72846, Note_on_c, 0, 72, 49
2, 72846, Note_on_c, 0, 71, 59
2, 72850, Note_on_c, 0, 72, 0
2, 72870, Note_on_c, 0, 79, 0
2, 72873, Note_on_c, 0, 68, 0
2, 72878, Note_on_c, 0, 71, 0
2, 72888, Note_on_c, 0, 67, 0
2, 72888, Note_on_c, 0, 68, 53
2, 72888, Note_on_c, 0, 77, 54
2, 72888, Note_on_c, 0, 71, 64
2, 72890, Note_on_c, 0, 65, 55
2, 72920, Note_on_c, 0, 65, 0
2, 72927, Note_on_c, 0, 77, 0
2, 72927, Note_on_c, 0, 71, 0
2, 72929, Note_on_c, 0, 75, 0
2, 72934, Note_on_c, 0, 68, 0
2, 72947, Note_on_c, 0, 70, 52
2, 72949, Note_on_c, 0, 67, 28
2, 72960, Note_on_c, 0, 67, 0
2, 72968, Note_on_c, 0, 70, 0
2, 72985, Note_on_c, 0, 62, 39
2, 72985, Note_on_c, 0, 74, 62
2, 72987, Note_on_c, 0, 65, 37
2, 72987, Note_on_c, 0, 70, 40
2, 73008, Note_on_c, 0, 74, 0
2, 73009, Note_on_c, 0, 70, 0
2, 73016, Note_on_c, 0, 65, 0
2, 73017, Note_on_c, 0, 62, 0
2, 73029, Note_on_c, 0, 58, 30
2, 73055, Note_on_c, 0, 58, 0
2, 73064, Note_on_c, 0, 62, 34
2, 73065, Note_on_c, 0, 65, 56
2, 73065, Note_on_c, 0, 55, 38
2, 73077, Note_on_c, 0, 55, 0
2, 73077, Note_on_c, 0, 65, 0
2, 73081, Note_on_c, 0, 62, 0
2, 73184, Note_on_c, 0, 61, 37
2, 73197, Note_on_c, 0, 61, 0
2, 73199, Note_on_c, 0, 75, 52
2, 73199, Note_on_c, 0, 63, 54
2, 73200, Note_on_c, 0, 68, 44
2, 73200, Note_on_c, 0, 64, 48
2, 73200, Note_on_c, 0, 72, 37
2, 73210, Note_on_c, 0, 64, 0
2, 73212, Note_on_c, 0, 68, 0
2, 73212, Note_on_c, 0, 72, 0
2, 73215, Note_on_c, 0, 75, 0
2, 73217, Note_on_c, 0, 63, 0
2, 73258, Note_on_c, 0, 72, 53
2, 73258, Note_on_c, 0, 64, 53
2, 73259, Note_on_c, 0, 61, 37
2, 73261, Note_on_c, 0, 60, 43
2, 73283, Note_on_c, 0, 64, 0
2, 73284, Note_on_c, 0, 61, 0
2, 73287, Note_on_c, 0, 72, 0
2, 73288, Note_on_c, 0, 60, 0
2, 73297, Note_on_c, 0, 61, 34
2, 73299, Note_on_c, 0, 67, 41
2, 73299, Note_on_c, 0, 64, 36
2, 73302, Note_on_c, 0, 57, 37
2, 73308, Note_on_c, 0, 57, 0
2, 73309, Note_on_c, 0, 64, 0
2, 73309, Note_on_c, 0, 61, 0
2, 73314, Note_on_c, 0, 67, 0
2, 73417, Note_on_c, 0, 63, 20
2, 73422, Note_on_c, 0, 66, 28
2, 73431, Note_on_c, 0, 63, 0
2, 73432, Note_on_c, 0, 66, 0
2, 73432, Note_on_c, 0, 72, 45
2, 73433, Note_on_c, 0, 75, 37
2, 73433, Note_on_c, 0, 69, 55
2, 73433, Note_on_c, 0, 79, 51
2, 73434, Note_on_c, 0, 67, 60
2, 73463, Note_on_c, 0, 69, 0
2, 73464, Note_on_c, 0, 72, 0
2, 73465, Note_on_c, 0, 75, 0
2, 73465, Note_on_c, 0, 79, 0
2, 73469, Note_on_c, 0, 67, 0
2, 73478, Note_on_c, 0, 65, 34
2, 73488, Note_on_c, 0, 65, 0
2, 73495, Note_on_c, 0, 75, 33
2, 73495, Note_on_c, 0, 79, 47
2, 73496, Note_on_c, 0, 72, 38
2, 73496, Note_on_c, 0, 69, 36
2, 73497, Note_on_c, 0, 67, 36
2, 73521, Note_on_c, 0, 69, 0
2, 73522, Note_on_c, 0, 72, 0
2, 73527, Note_on_c, 0, 75, 0
2, 73528, Note_on_c, 0, 79, 0
2, 73534, Note_on_c, 0, 67, 0
2, 73538, Note_on_c, 0, 69, 55
2, 73539, Note_on_c, 0, 77, 55
2, 73539, Note_on_c, 0, 72, 38
2, 73540, Note_on_c, 0, 65, 40
2, 73540, Note_on_c, 0, 75, 33
2, 73545, Note_on_c, 0, 65, 0
2, 73545, Note_on_c, 0, 69, 0
2, 73546, Note_on_c, 0, 72, 0
2, 73550, Note_on_c, 0, 75, 0
2, 73555, Note_on_c, 0, 77, 0
2, 73613, Note_on_c, 0, 75, 67
2, 73614, Note_on_c, 0, 82, 71
2, 73614, Note_on_c, 0, 70, 73
2, 73615, Note_on_c, 0, 71, 67
2, 73615, Note_on_c, 0, 77, 55
2, 73627, Note_on_c, 0, 71, 0
2, 73629, Note_on_c, 0, 70, 0
2, 73630, Note_on_c, 0, 82, 0
2, 73633, Note_on_c, 0, 77, 0
2, 73635, Note_on_c, 0, 75, 0
2, 73650, Note_on_c, 0, 75, 69
2, 73651, Note_on_c, 0, 70, 71
2, 73651, Note_on_c, 0, 82, 65
2, 73652, Note_on_c, 0, 77, 55
2, 73653, Note_on_c, 0, 71, 72
2, 73667, Note_on_c, 0, 77, 0
2, 73667, Note_on_c, 0, 82, 0
2, 73671, Note_on_c, 0, 75, 0
2, 73673, Note_on_c, 0, 70, 0
2, 73673, Note_on_c, 0, 71, 0
2, 73677, Note_on_c, 0, 68, 37
2, 73696, Note_on_c, 0, 68, 0
2, 73701, Note_on_c, 0, 67, 67
2, 73702, Note_on_c, 0, 79, 61
2, 73703, Note_on_c, 0, 71, 53
2, 73704, Note_on_c, 0, 74, 44
2, 73713, Note_on_c, 0, 67, 0
2, 73717, Note_on_c, 0, 71, 0
2, 73718, Note_on_c, 0, 79, 0
2, 73719, Note_on_c, 0, 74, 0
2, 73809, Note_on_c, 0, 71, 72
2, 73810, Note_on_c, 0, 79, 63
2, 73811, Note_on_c, 0, 68, 55
2, 73812, Note_on_c, 0, 74, 54
2, 73812, Note_on_c, 0, 67, 66
2, 73849, Note_on_c, 0, 79, 0
2, 73857, Note_on_c, 0, 71, 0
2, 73857, Note_on_c, 0, 68, 0
2, 73862, Note_on_c, 0, 67, 0
2, 73868, Note_on_c, 0, 62, 35
2, 73869, Note_on_c, 0, 74, 0
2, 73869, Note_on_c, 0, 71, 22
2, 73870, Note_on_c, 0, 68, 34
2, 73893, Note_on_c, 0, 71, 0
2, 73896, Note_on_c, 0, 68, 0
2, 73896, Note_on_c, 0, 61, 27
2, 73908, Note_on_c, 0, 61, 0
2, 73909, Note_on_c, 0, 77, 57
2, 73909, Note_on_c, 0, 70, 55
2, 73909, Note_on_c, 0, 67, 60
2, 73910, Note_on_c, 0, 62, 0
2, 73910, Note_on_c, 0, 74, 47
2, 73911, Note_on_c, 0, 65, 59
2, 73950, Note_on_c, 0, 74, 0
2, 73957, Note_on_c, 0, 67, 0
2, 73961, Note_on_c, 0, 65, 0
2, 73964, Note_on_c, 0, 77, 0
2, 73965, Note_on_c, 0, 74, 39
2, 73969, Note_on_c, 0, 62, 39
2, 73974, Note_on_c, 0, 70, 0
2, 73980, Note_on_c, 0, 74, 0
2, 73981, Note_on_c, 0, 62, 0
2, 73986, Note_on_c, 0, 63, 43
2, 73988, Note_on_c, 0, 75, 36
2, 73988, Note_on_c, 0, 67, 44
2, 73992, Note_on_c, 0, 70, 29
2, 74008, Note_on_c, 0, 63, 0
2, 74013, Note_on_c, 0, 67, 0
2, 74017, Note_on_c, 0, 70, 0
2, 74021, Note_on_c, 0, 77, 67
2, 74022, Note_on_c, 0, 65, 54
2, 74022, Note_on_c, 0, 70, 18
2, 74022, Note_on_c, 0, 67, 62
2, 74026, Note_on_c, 0, 75, 0
2, 74033, Note_on_c, 0, 70, 0
2, 74034, Note_on_c, 0, 67, 0
2, 74034, Note_on_c, 0, 65, 0
2, 74038, Note_on_c, 0, 77, 0
2, 74045, Note_on_c, 0, 62, 43
2, 74046, Note_on_c, 0, 74, 47
2, 74046, Note_on_c, 0, 67, 37
2, 74048, Note_on_c, 0, 70, 25
2, 74068, Note_on_c, 0, 70, 0
2, 74069, Note_on_c, 0, 67, 0
2, 74082, Note_on_c, 0, 70, 42
2, 74084, Note_on_c, 0, 67, 38
2, 74085, Note_on_c, 0, 62, 0
2, 74089, Note_on_c, 0, 74, 0
2, 74089, Note_on_c, 0, 58, 23
2, 74091, Note_on_c, 0, 67, 0
2, 74093, Note_on_c, 0, 70, 0
2, 74101, Note_on_c, 0, 58, 0
2, 74217, Note_on_c, 0, 70, 43
2, 74217, Note_on_c, 0, 65, 48
2, 74219, Note_on_c, 0, 60, 32
2, 74221, Note_on_c, 0, 62, 34
2, 74222, Note_on_c, 0, 55, 30
2, 74264, Control_c, 0, 64, 127
2, 74269, Note_on_c, 0, 55, 0
2, 74270, Note_on_c, 0, 60, 0
2, 74271, Note_on_c, 0, 62, 0
2, 74278, Note_on_c, 0, 65, 0
2, 74282, Note_on_c, 0, 70, 0
2, 74338, Note_on_c, 0, 68, 44
2, 74339, Note_on_c, 0, 63, 44
2, 74339, Note_on_c, 0, 58, 37
2, 74339, Note_on_c, 0, 94, 69
2, 74340, Note_on_c, 0, 82, 57
2, 74341, Note_on_c, 0, 89, 58
2, 74345, Note_on_c, 0, 89, 0
2, 74345, Note_on_c, 0, 82, 0
2, 74346, Note_on_c, 0, 68, 0
2, 74347, Control_c, 0, 64, 0
2, 74349, Note_on_c, 0, 94, 0
2, 74352, Note_on_c, 0, 63, 0
2, 74358, Note_on_c, 0, 58, 0
2, 74379, Note_on_c, 0, 63, 38
2, 74380, Note_on_c, 0, 66, 32
2, 74382, Note_on_c, 0, 94, 69
2, 74383, Note_on_c, 0, 82, 58
2, 74384, Note_on_c, 0, 66, 0
2, 74390, Note_on_c, 0, 82, 0
2, 74390, Note_on_c, 0, 94, 0
2, 74392, Note_on_c, 0, 63, 0
2, 74406, Note_on_c, 0, 65, 55
2, 74406, Note_on_c, 0, 79, 48
2, 74407, Note_on_c, 0, 62, 46
2, 74408, Note_on_c, 0, 86, 37
2, 74409, Note_on_c, 0, 91, 29
2, 74410, Note_on_c, 0, 60, 39
2, 74416, Note_on_c, 0, 65, 0
2, 74418, Note_on_c, 0, 79, 0
2, 74419, Note_on_c, 0, 86, 0
2, 74420, Note_on_c, 0, 91, 0
2, 74420, Note_on_c, 0, 60, 0
2, 74423, Note_on_c, 0, 62, 0
2, 74462, Note_on_c, 0, 62, 45
2, 74462, Note_on_c, 0, 94, 69
2, 74463, Note_on_c, 0, 65, 56
2, 74463, Note_on_c, 0, 82, 50
2, 74464, Note_on_c, 0, 60, 44
2, 74465, Note_on_c, 0, 89, 45
2, 74469, Note_on_c, 0, 89, 0
2, 74469, Note_on_c, 0, 60, 0
2, 74470, Note_on_c, 0, 65, 0
2, 74471, Note_on_c, 0, 82, 0
2, 74472, Note_on_c, 0, 94, 0
2, 74472, Note_on_c, 0, 62, 0
2, 74522, Note_on_c, 0, 62, 39
2, 74522, Note_on_c, 0, 65, 53
2, 74523, Note_on_c, 0, 79, 51
2, 74523, Note_on_c, 0, 91, 57
2, 74523, Note_on_c, 0, 60, 37
2, 74523, Note_on_c, 0, 86, 55
2, 74524, Note_on_c, 0, 55, 40
2, 74580, Control_c, 0, 64, 127
2, 74587, Note_on_c, 0, 79, 0
2, 74592, Note_on_c, 0, 86, 0
2, 74593, Note_on_c, 0, 91, 0
2, 74593, Note_on_c, 0, 65, 0
2, 74595, Note_on_c, 0, 55, 0
2, 74596, Note_on_c, 0, 60, 0
2, 74597, Note_on_c, 0, 62, 0
2, 74621, Note_on_c, 0, 94, 87
2, 74621, Note_on_c, 0, 82, 83
2, 74622, Note_on_c, 0, 62, 81
2, 74622, Note_on_c, 0, 60, 81
2, 74622, Note_on_c, 0, 65, 83
2, 74622, Note_on_c, 0, 89, 77
2, 74623, Note_on_c, 0, 55, 72
2, 74626, Note_on_c, 0, 89, 0
2, 74632, Note_on_c, 0, 65, 0
2, 74633, Control_c, 0, 64, 0
2, 74635, Note_on_c, 0, 82, 0
2, 74635, Note_on_c, 0, 94, 0
2, 74636, Note_on_c, 0, 55, 0
2, 74638, Note_on_c, 0, 60, 0
2, 74638, Note_on_c, 0, 62, 0
2, 74649, Note_on_c, 0, 78, 57
2, 74649, Note_on_c, 0, 90, 59
2, 74649, Note_on_c, 0, 85, 62
2, 74649, Note_on_c, 0, 62, 71
2, 74649, Note_on_c, 0, 60, 55
2, 74650, Note_on_c, 0, 65, 66
2, 74650, Note_on_c, 0, 55, 66
2, 74660, Note_on_c, 0, 78, 0
2, 74660, Note_on_c, 0, 91, 33
2, 74662, Note_on_c, 0, 79, 44
2, 74665, Note_on_c, 0, 90, 0
2, 74672, Note_on_c, 0, 79, 0
2, 74677, Note_on_c, 0, 91, 0
2, 74678, Note_on_c, 0, 85, 0
2, 74678, Note_on_c, 0, 55, 0
2, 74680, Note_on_c, 0, 65, 0
2, 74680, Note_on_c, 0, 60, 0
2, 74682, Note_on_c, 0, 62, 0
2, 74704, Note_on_c, 0, 94, 76
2, 74705, Note_on_c, 0, 65, 63
2, 74705, Note_on_c, 0, 82, 61
2, 74706, Note_on_c, 0, 62, 48
2, 74706, Note_on_c, 0, 60, 39
2, 74707, Note_on_c, 0, 55, 42
2, 74709, Note_on_c, 0, 65, 0
2, 74710, Note_on_c, 0, 82, 0
2, 74712, Note_on_c, 0, 62, 0
2, 74713, Note_on_c, 0, 60, 0
2, 74713, Note_on_c, 0, 55, 0
2, 74714, Note_on_c, 0, 94, 0
2, 74762, Note_on_c, 0, 65, 58
2, 74763, Note_on_c, 0, 62, 48
2, 74764, Note_on_c, 0, 60, 48
2, 74764, Note_on_c, 0, 78, 38
2, 74764, Note_on_c, 0, 55, 45
2, 74765, Note_on_c, 0, 85, 45
2, 74768, Note_on_c, 0, 91, 46
2, 74776, Note_on_c, 0, 78, 0
2, 74778, Note_on_c, 0, 79, 34
2, 74784, Note_on_c, 0, 79, 0
2, 74785, Note_on_c, 0, 65, 0
2, 74785, Note_on_c, 0, 60, 0
2, 74786, Note_on_c, 0, 91, 0
2, 74788, Note_on_c, 0, 62, 0
2, 74789, Note_on_c, 0, 85, 0
2, 74789, Note_on_c, 0, 55, 0
2, 74820, Note_on_c, 0, 62, 73
2, 74821, Note_on_c, 0, 94, 77
2, 74821, Note_on_c, 0, 65, 72
2, 74821, Note_on_c, 0, 55, 70
2, 74822, Note_on_c, 0, 60, 62
2, 74822, Note_on_c, 0, 82, 67
2, 74826, Note_on_c, 0, 65, 0
2, 74828, Note_on_c, 0, 82, 0
2, 74831, Note_on_c, 0, 94, 0
2, 74832, Note_on_c, 0, 62, 0
2, 74835, Note_on_c, 0, 60, 0
2, 74835, Note_on_c, 0, 55, 0
2, 74882, Note_on_c, 0, 63, 55
2, 74882, Note_on_c, 0, 56, 59
2, 74882, Note_on_c, 0, 67, 73
2, 74882, Note_on_c, 0, 92, 77
2, 74883, Note_on_c, 0, 80, 70
2, 74883, Control_c, 0, 64, 127
2, 74883, Note_on_c, 0, 60, 55
2, 74884, Note_on_c, 0, 87, 64
2, 74908, Note_on_c, 0, 80, 0
2, 74910, Note_on_c, 0, 67, 0
2, 74910, Note_on_c, 0, 56, 0
2, 74911, Note_on_c, 0, 92, 0
2, 74911, Note_on_c, 0, 87, 0
2, 74913, Note_on_c, 0, 60, 0
2, 74915, Note_on_c, 0, 63, 0
2, 74923, Note_on_c, 0, 94, 80
2, 74924, Note_on_c, 0, 63, 65
2, 74924, Note_on_c, 0, 82, 69
2, 74925, Note_on_c, 0, 67, 80
2, 74925, Note_on_c, 0, 56, 64
2, 74925, Note_on_c, 0, 60, 66
2, 74926, Note_on_c, 0, 87, 69
2, 74936, Note_on_c, 0, 67, 0
2, 74937, Note_on_c, 0, 82, 0
2, 74937, Note_on_c, 0, 94, 0
2, 74939, Note_on_c, 0, 56, 0
2, 74939, Note_on_c, 0, 60, 0
2, 74940, Note_on_c, 0, 87, 0
2, 74942, Note_on_c, 0, 63, 0
2, 74947, Note_on_c, 0, 67, 52
2, 74948, Note_on_c, 0, 63, 31
2, 74948, Note_on_c, 0, 92, 55
2, 74949, Note_on_c, 0, 56, 54
2, 74949, Control_c, 0, 64, 0
2, 74950, Note_on_c, 0, 87, 37
2, 74950, Note_on_c, 0, 80, 35
2, 74950, Note_on_c, 0, 60, 65
2, 74969, Note_on_c, 0, 80, 0
2, 74970, Control_c, 0, 64, 127
2, 74971, Note_on_c, 0, 56, 0
2, 74972, Note_on_c, 0, 92, 0
2, 74973, Note_on_c, 0, 87, 0
2, 74973, Note_on_c, 0, 67, 0
2, 74973, Note_on_c, 0, 60, 0
2, 74977, Note_on_c, 0, 63, 0
2, 74984, Note_on_c, 0, 82, 57
2, 74985, Note_on_c, 0, 94, 70
2, 74985, Note_on_c, 0, 63, 54
2, 74986, Note_on_c, 0, 56, 55
2, 74986, Note_on_c, 0, 67, 57
2, 74987, Note_on_c, 0, 87, 52
2, 74988, Note_on_c, 0, 60, 57
2, 74995, Note_on_c, 0, 94, 0
2, 74996, Note_on_c, 0, 67, 0
2, 74996, Note_on_c, 0, 60, 0
2, 74997, Control_c, 0, 64, 0
2, 74998, Note_on_c, 0, 82, 0
2, 75001, Note_on_c, 0, 87, 0
2, 75001, Note_on_c, 0, 63, 0
2, 75002, Note_on_c, 0, 56, 0
2, 75009, Note_on_c, 0, 56, 28
2, 75009, Note_on_c, 0, 92, 47
2, 75011, Note_on_c, 0, 67, 44
2, 75011, Note_on_c, 0, 63, 45
2, 75012, Note_on_c, 0, 87, 33
2, 75013, Note_on_c, 0, 60, 49
2, 75015, Note_on_c, 0, 80, 28
2, 75025, Control_c, 0, 64, 127
2, 75033, Note_on_c, 0, 80, 0
2, 75033, Note_on_c, 0, 67, 0
2, 75033, Note_on_c, 0, 60, 0
2, 75036, Note_on_c, 0, 56, 0
2, 75036, Note_on_c, 0, 87, 0
2, 75036, Note_on_c, 0, 92, 0
2, 75037, Note_on_c, 0, 63, 0
2, 75044, Control_c, 0, 64, 0
2, 75060, Note_on_c, 0, 63, 52
2, 75061, Note_on_c, 0, 67, 63
2, 75061, Note_on_c, 0, 56, 49
2, 75062, Note_on_c, 0, 82, 60
2, 75062, Note_on_c, 0, 94, 72
2, 75063, Note_on_c, 0, 60, 55
2, 75065, Note_on_c, 0, 87, 56
2, 75079, Control_c, 0, 64, 127
2, 75146, Note_on_c, 0, 67, 0
2, 75148, Note_on_c, 0, 63, 0
2, 75148, Note_on_c, 0, 56, 0
2, 75150, Note_on_c, 0, 94, 0
2, 75151, Note_on_c, 0, 60, 0
2, 75152, Note_on_c, 0, 82, 0
2, 75152, Note_on_c, 0, 87, 0
2, 75182, Note_on_c, 0, 92, 69
2, 75182, Note_on_c, 0, 63, 62
2, 75182, Note_on_c, 0, 67, 75
2, 75183, Note_on_c, 0, 80, 60
2, 75183, Note_on_c, 0, 56, 57
2, 75184, Note_on_c, 0, 60, 73
2, 75184, Note_on_c, 0, 87, 64
2, 75184, Control_c, 0, 64, 0
2, 75204, Note_on_c, 0, 80, 0
2, 75206, Note_on_c, 0, 67, 0
2, 75207, Note_on_c, 0, 56, 0
2, 75207, Note_on_c, 0, 92, 0
2, 75210, Note_on_c, 0, 60, 0
2, 75210, Note_on_c, 0, 87, 0
2, 75211, Note_on_c, 0, 63, 0
2, 75223, Note_on_c, 0, 63, 63
2, 75223, Note_on_c, 0, 94, 78
2, 75223, Note_on_c, 0, 67, 78
2, 75223, Note_on_c, 0, 56, 64
2, 75223, Note_on_c, 0, 82, 73
2, 75224, Note_on_c, 0, 60, 72
2, 75228, Note_on_c, 0, 88, 48
2, 75229, Note_on_c, 0, 87, 18
2, 75235, Note_on_c, 0, 88, 0
2, 75238, Note_on_c, 0, 87, 0
2, 75240, Note_on_c, 0, 94, 0
2, 75241, Note_on_c, 0, 67, 0
2, 75242, Note_on_c, 0, 56, 0
2, 75243, Control_c, 0, 64, 127
2, 75244, Note_on_c, 0, 82, 0
2, 75244, Note_on_c, 0, 60, 0
2, 75246, Note_on_c, 0, 63, 0
2, 75257, Note_on_c, 0, 92, 68
2, 75257, Note_on_c, 0, 63, 43
2, 75258, Note_on_c, 0, 67, 67
2, 75258, Note_on_c, 0, 80, 51
2, 75258, Note_on_c, 0, 56, 55
2, 75258, Note_on_c, 0, 87, 60
2, 75259, Note_on_c, 0, 60, 61
2, 75276, Note_on_c, 0, 80, 0
2, 75277, Note_on_c, 0, 56, 0
2, 75277, Note_on_c, 0, 67, 0
2, 75279, Note_on_c, 0, 87, 0
2, 75280, Note_on_c, 0, 60, 0
2, 75281, Note_on_c, 0, 92, 0
2, 75284, Note_on_c, 0, 63, 0
2, 75295, Control_c, 0, 64, 0
2, 75295, Note_on_c, 0, 63, 59
2, 75297, Note_on_c, 0, 56, 64
2, 75298, Note_on_c, 0, 82, 56
2, 75298, Note_on_c, 0, 94, 71
2, 75299, Note_on_c, 0, 87, 62
2, 75300, Note_on_c, 0, 67, 25
2, 75301, Control_c, 0, 64, 127
2, 75306, Note_on_c, 0, 67, 0
2, 75309, Note_on_c, 0, 87, 0
2, 75310, Note_on_c, 0, 82, 0
2, 75312, Note_on_c, 0, 63, 0
2, 75314, Note_on_c, 0, 94, 0
2, 75320, Note_on_c, 0, 56, 0
2, 75415, Note_on_c, 0, 62, 74
2, 75416, Control_c, 0, 64, 0
2, 75416, Note_on_c, 0, 58, 57
2, 75416, Note_on_c, 0, 57, 65
2, 75416, Note_on_c, 0, 96, 80
2, 75417, Note_on_c, 0, 53, 55
2, 75417, Note_on_c, 0, 89, 68
2, 75417, Note_on_c, 0, 84, 74
2, 75436, Note_on_c, 0, 84, 0
2, 75436, Note_on_c, 0, 62, 0
2, 75438, Note_on_c, 0, 57, 0
2, 75438, Note_on_c, 0, 96, 0
2, 75438, Note_on_c, 0, 53, 0
2, 75438, Note_on_c, 0, 89, 0
2, 75443, Note_on_c, 0, 58, 0
2, 75459, Note_on_c, 0, 62, 70
2, 75459, Note_on_c, 0, 57, 62
2, 75459, Note_on_c, 0, 58, 56
2, 75460, Note_on_c, 0, 96, 74
2, 75461, Note_on_c, 0, 53, 54
2, 75461, Note_on_c, 0, 89, 63
2, 75461, Note_on_c, 0, 84, 64
2, 75474, Note_on_c, 0, 62, 0
2, 75475, Note_on_c, 0, 84, 0
2, 75476, Note_on_c, 0, 53, 0
2, 75476, Note_on_c, 0, 57, 0
2, 75477, Note_on_c, 0, 89, 0
2, 75478, Note_on_c, 0, 96, 0
2, 75482, Note_on_c, 0, 58, 0
2, 75499, Note_on_c, 0, 62, 67
2, 75499, Note_on_c, 0, 57, 57
2, 75499, Note_on_c, 0, 58, 53
2, 75500, Note_on_c, 0, 53, 50
2, 75501, Note_on_c, 0, 96, 69
2, 75501, Note_on_c, 0, 89, 66
2, 75501, Note_on_c, 0, 84, 63
2, 75512, Note_on_c, 0, 62, 0
2, 75512, Control_c, 0, 64, 127
2, 75513, Note_on_c, 0, 57, 0
2, 75513, Note_on_c, 0, 84, 0
2, 75514, Note_on_c, 0, 53, 0
2, 75515, Note_on_c, 0, 89, 0
2, 75518, Note_on_c, 0, 96, 0
2, 75518, Control_c, 0, 64, 0
2, 75519, Note_on_c, 0, 58, 0
2, 75538, Control_c, 0, 64, 127
2, 75542, Note_on_c, 0, 62, 67
2, 75542, Note_on_c, 0, 96, 69
2, 75542, Note_on_c, 0, 89, 60
2, 75542, Note_on_c, 0, 58, 55
2, 75543, Note_on_c, 0, 57, 45
2, 75543, Note_on_c, 0, 84, 60
2, 75544, Note_on_c, 0, 53, 37
2, 75547, Note_on_c, 0, 57, 0
2, 75547, Note_on_c, 0, 62, 0
2, 75549, Note_on_c, 0, 53, 0
2, 75550, Note_on_c, 0, 84, 0
2, 75552, Note_on_c, 0, 89, 0
2, 75553, Note_on_c, 0, 58, 0
2, 75557, Note_on_c, 0, 96, 0
2, 75583, Note_on_c, 0, 63, 69
2, 75584, Note_on_c, 0, 52, 65
2, 75584, Control_c, 0, 64, 0
2, 75584, Note_on_c, 0, 96, 75
2, 75585, Note_on_c, 0, 58, 59
2, 75585, Note_on_c, 0, 84, 77
2, 75607, Control_c, 0, 64, 127
2, 75678, Note_on_c, 0, 52, 0
2, 75686, Note_on_c, 0, 63, 0
2, 75687, Note_on_c, 0, 58, 0
2, 75714, Note_on_c, 0, 84, 0
2, 75719, Note_on_c, 0, 63, 33
2, 75721, Note_on_c, 0, 58, 37
2, 75723, Note_on_c, 0, 52, 32
2, 75737, Note_on_c, 0, 96, 0
2, 75749, Note_on_c, 0, 52, 0
2, 75757, Note_on_c, 0, 58, 0
2, 75759, Note_on_c, 0, 63, 0
2, 75838, Note_on_c, 0, 67, 41
2, 75839, Note_on_c, 0, 62, 31
2, 75840, Note_on_c, 0, 63, 35
2, 75841, Note_on_c, 0, 57, 38
2, 75856, Control_c, 0, 64, 0
2, 75880, Note_on_c, 0, 98, 57
2, 75888, Note_on_c, 0, 98, 0
2, 75909, Note_on_c, 0, 101, 59
2, 75918, Note_on_c, 0, 101, 0
2, 75941, Note_on_c, 0, 99, 62
2, 75957, Note_on_c, 0, 99, 0
2, 75969, Note_on_c, 0, 95, 38
2, 75979, Note_on_c, 0, 95, 0
2, 75983, Note_on_c, 0, 67, 0
2, 75985, Note_on_c, 0, 63, 0
2, 75990, Note_on_c, 0, 62, 0
2, 75997, Note_on_c, 0, 98, 66
2, 75999, Note_on_c, 0, 62, 19
2, 75999, Note_on_c, 0, 67, 42
2, 76000, Note_on_c, 0, 63, 36
2, 76006, Note_on_c, 0, 67, 0
2, 76008, Note_on_c, 0, 62, 0
2, 76009, Note_on_c, 0, 57, 0
2, 76009, Note_on_c, 0, 98, 0
2, 76009, Note_on_c, 0, 63, 0
2, 76024, Note_on_c, 0, 96, 54
2, 76029, Note_on_c, 0, 96, 0
2, 76056, Note_on_c, 0, 94, 69
2, 76060, Note_on_c, 0, 67, 35
2, 76065, Note_on_c, 0, 67, 0
2, 76065, Note_on_c, 0, 94, 0
2, 76080, Note_on_c, 0, 92, 67
2, 76090, Note_on_c, 0, 92, 0
2, 76095, Note_on_c, 0, 94, 48
2, 76106, Note_on_c, 0, 92, 39
2, 76117, Note_on_c, 0, 94, 0
2, 76120, Note_on_c, 0, 92, 0
2, 76122, Note_on_c, 0, 91, 53
2, 76133, Note_on_c, 0, 91, 0
2, 76136, Note_on_c, 0, 67, 37
2, 76142, Note_on_c, 0, 89, 64
2, 76143, Note_on_c, 0, 67, 0
2, 76163, Note_on_c, 0, 89, 0
2, 76178, Note_on_c, 0, 87, 65
2, 76179, Note_on_c, 0, 63, 37
2, 76179, Note_on_c, 0, 67, 55
2, 76182, Note_on_c, 0, 60, 46
2, 76188, Note_on_c, 0, 87, 0
2, 76199, Note_on_c, 0, 67, 0
2, 76200, Note_on_c, 0, 86, 49
2, 76204, Note_on_c, 0, 60, 0
2, 76212, Note_on_c, 0, 63, 0
2, 76218, Note_on_c, 0, 86, 0
2, 76219, Note_on_c, 0, 87, 49
2, 76228, Note_on_c, 0, 87, 0
2, 76228, Note_on_c, 0, 88, 60
2, 76241, Note_on_c, 0, 88, 0
2, 76243, Note_on_c, 0, 89, 68
2, 76249, Note_on_c, 0, 63, 27
2, 76250, Note_on_c, 0, 67, 25
2, 76252, Note_on_c, 0, 89, 0
2, 76257, Note_on_c, 0, 67, 0
2, 76261, Note_on_c, 0, 86, 71
2, 76266, Note_on_c, 0, 63, 0
2, 76271, Note_on_c, 0, 86, 0
2, 76294, Note_on_c, 0, 82, 36
2, 76314, Note_on_c, 0, 82, 0
2, 76320, Note_on_c, 0, 79, 36
2, 76333, Note_on_c, 0, 79, 0
2, 76355, Note_on_c, 0, 79, 54
2, 76360, Note_on_c, 0, 67, 30
2, 76365, Note_on_c, 0, 67, 0
2, 76366, Note_on_c, 0, 79, 0
2, 76381, Note_on_c, 0, 82, 37
2, 76391, Note_on_c, 0, 82, 0
2, 76415, Note_on_c, 0, 82, 63
2, 76417, Note_on_c, 0, 67, 45
2, 76418, Note_on_c, 0, 63, 30
2, 76422, Note_on_c, 0, 67, 0
2, 76431, Note_on_c, 0, 82, 0
2, 76433, Note_on_c, 0, 63, 0
2, 76440, Note_on_c, 0, 79, 41
2, 76465, Note_on_c, 0, 79, 0
2, 76535, Note_on_c, 0, 63, 38
2, 76535, Note_on_c, 0, 82, 69
2, 76535, Note_on_c, 0, 67, 63
2, 76536, Note_on_c, 0, 58, 52
2, 76536, Note_on_c, 0, 62, 56
2, 76536, Note_on_c, 0, 75, 61
2, 76537, Note_on_c, 0, 70, 50
2, 76540, Note_on_c, 0, 62, 0
2, 76541, Note_on_c, 0, 67, 0
2, 76541, Note_on_c, 0, 70, 0
2, 76542, Note_on_c, 0, 75, 0
2, 76544, Note_on_c, 0, 63, 0
2, 76545, Note_on_c, 0, 82, 0
2, 76546, Note_on_c, 0, 58, 0
2, 76574, Note_on_c, 0, 67, 59
2, 76574, Note_on_c, 0, 79, 54
2, 76575, Note_on_c, 0, 62, 42
2, 76575, Note_on_c, 0, 63, 34
2, 76576, Note_on_c, 0, 58, 25
2, 76577, Note_on_c, 0, 70, 37
2, 76585, Note_on_c, 0, 70, 0
2, 76586, Note_on_c, 0, 67, 0
2, 76587, Note_on_c, 0, 62, 0
2, 76589, Note_on_c, 0, 79, 0
2, 76589, Note_on_c, 0, 63, 0
2, 76590, Note_on_c, 0, 58, 0
2, 76616, Note_on_c, 0, 82, 67
2, 76617, Note_on_c, 0, 67, 67
2, 76617, Note_on_c, 0, 63, 43
2, 76618, Note_on_c, 0, 62, 48
2, 76618, Note_on_c, 0, 70, 53
2, 76619, Note_on_c, 0, 75, 53
2, 76620, Note_on_c, 0, 58, 27
2, 76623, Note_on_c, 0, 75, 0
2, 76623, Note_on_c, 0, 62, 0
2, 76623, Note_on_c, 0, 70, 0
2, 76624, Note_on_c, 0, 67, 0
2, 76626, Note_on_c, 0, 82, 0
2, 76628, Note_on_c, 0, 63, 0
2, 76630, Note_on_c, 0, 58, 0
2, 76659, Note_on_c, 0, 79, 53
2, 76659, Note_on_c, 0, 62, 62
2, 76659, Note_on_c, 0, 67, 64
2, 76660, Note_on_c, 0, 75, 46
2, 76660, Note_on_c, 0, 70, 36
2, 76661, Note_on_c, 0, 63, 35
2, 76661, Note_on_c, 0, 58, 34
2, 76664, Note_on_c, 0, 70, 0
2, 76664, Note_on_c, 0, 75, 0
2, 76665, Note_on_c, 0, 67, 0
2, 76666, Note_on_c, 0, 62, 0
2, 76666, Note_on_c, 0, 63, 0
2, 76667, Note_on_c, 0, 79, 0
2, 76670, Note_on_c, 0, 58, 0
2, 76699, Note_on_c, 0, 82, 74
2, 76700, Note_on_c, 0, 67, 74
2, 76700, Note_on_c, 0, 62, 70
2, 76700, Note_on_c, 0, 58, 63
2, 76700, Note_on_c, 0, 70, 78
2, 76700, Note_on_c, 0, 63, 52
2, 76701, Note_on_c, 0, 75, 64
2, 76710, Note_on_c, 0, 67, 0
2, 76715, Note_on_c, 0, 75, 0
2, 76717, Note_on_c, 0, 62, 0
2, 76718, Note_on_c, 0, 70, 0
2, 76718, Note_on_c, 0, 63, 0
2, 76720, Note_on_c, 0, 58, 0
2, 76722, Note_on_c, 0, 82, 0
2, 76740, Note_on_c, 0, 63, 29
2, 76741, Note_on_c, 0, 79, 44
2, 76741, Note_on_c, 0, 70, 43
2, 76742, Note_on_c, 0, 58, 28
2, 76742, Note_on_c, 0, 75, 34
2, 76747, Note_on_c, 0, 79, 0
2, 76748, Note_on_c, 0, 63, 0
2, 76748, Note_on_c, 0, 75, 0
2, 76749, Note_on_c, 0, 70, 0
2, 76749, Note_on_c, 0, 58, 0
2, 76750, Control_c, 0, 64, 127
2, 76777, Control_c, 0, 64, 0
2, 76781, Note_on_c, 0, 76, 60
2, 76782, Note_on_c, 0, 69, 58
2, 76782, Note_on_c, 0, 63, 53
2, 76783, Note_on_c, 0, 81, 52
2, 76785, Note_on_c, 0, 55, 41
2, 76785, Note_on_c, 0, 80, 21
2, 76786, Note_on_c, 0, 69, 0
2, 76786, Note_on_c, 0, 60, 31
2, 76786, Note_on_c, 0, 57, 34
2, 76789, Note_on_c, 0, 63, 0
2, 76790, Note_on_c, 0, 55, 0
2, 76790, Note_on_c, 0, 80, 0
2, 76790, Note_on_c, 0, 60, 0
2, 76791, Note_on_c, 0, 76, 0
2, 76792, Note_on_c, 0, 57, 0
2, 76794, Note_on_c, 0, 81, 0
2, 76819, Note_on_c, 0, 79, 74
2, 76819, Note_on_c, 0, 63, 64
2, 76819, Note_on_c, 0, 84, 81
2, 76819, Note_on_c, 0, 72, 73
2, 76820, Note_on_c, 0, 57, 59
2, 76821, Note_on_c, 0, 60, 55
2, 76821, Note_on_c, 0, 55, 54
2, 76835, Control_c, 0, 64, 127
2, 76838, Note_on_c, 0, 55, 0
2, 76839, Note_on_c, 0, 79, 0
2, 76839, Note_on_c, 0, 84, 0
2, 76844, Note_on_c, 0, 72, 0
2, 76844, Note_on_c, 0, 63, 0
2, 76846, Note_on_c, 0, 57, 0
2, 76848, Note_on_c, 0, 60, 0
2, 76850, Control_c, 0, 64, 0
2, 76861, Note_on_c, 0, 63, 48
2, 76861, Note_on_c, 0, 76, 58
2, 76861, Note_on_c, 0, 81, 53
2, 76861, Note_on_c, 0, 69, 60
2, 76862, Note_on_c, 0, 60, 44
2, 76864, Note_on_c, 0, 57, 48
2, 76864, Note_on_c, 0, 55, 36
2, 76866, Note_on_c, 0, 69, 0
2, 76869, Note_on_c, 0, 57, 0
2, 76869, Note_on_c, 0, 76, 0
2, 76869, Note_on_c, 0, 63, 0
2, 76869, Note_on_c, 0, 55, 0
2, 76870, Note_on_c, 0, 60, 0
2, 76872, Note_on_c, 0, 81, 0
2, 76900, Note_on_c, 0, 78, 74
2, 76900, Note_on_c, 0, 72, 76
2, 76900, Note_on_c, 0, 80, 70
2, 76901, Note_on_c, 0, 84, 81
2, 76901, Note_on_c, 0, 57, 66
2, 76901, Note_on_c, 0, 63, 77
2, 76902, Note_on_c, 0, 55, 75
2, 76902, Note_on_c, 0, 60, 71
2, 76910, Note_on_c, 0, 78, 0
2, 76914, Note_on_c, 0, 81, 46
2, 76915, Note_on_c, 0, 80, 0
2, 76918, Note_on_c, 0, 72, 0
2, 76919, Note_on_c, 0, 55, 0
2, 76922, Note_on_c, 0, 84, 0
2, 76922, Note_on_c, 0, 63, 0
2, 76925, Note_on_c, 0, 81, 0
2, 76925, Note_on_c, 0, 57, 0
2, 76927, Note_on_c, 0, 60, 0
2, 76940, Note_on_c, 0, 81, 57
2, 76940, Note_on_c, 0, 69, 64
2, 76942, Note_on_c, 0, 63, 37
2, 76943, Note_on_c, 0, 77, 38
2, 76943, Note_on_c, 0, 60, 39
2, 76943, Note_on_c, 0, 55, 51
2, 76944, Note_on_c, 0, 57, 44
2, 76950, Note_on_c, 0, 69, 0
2, 76951, Note_on_c, 0, 60, 0
2, 76951, Note_on_c, 0, 77, 0
2, 76952, Note_on_c, 0, 63, 0
2, 76952, Note_on_c, 0, 55, 0
2, 76956, Note_on_c, 0, 81, 0
2, 76956, Note_on_c, 0, 57, 0
2, 76981, Note_on_c, 0, 80, 74
2, 76981, Note_on_c, 0, 78, 67
2, 76981, Note_on_c, 0, 72, 78
2, 76981, Note_on_c, 0, 55, 75
2, 76981, Note_on_c, 0, 84, 80
2, 76982, Note_on_c, 0, 63, 73
2, 76983, Note_on_c, 0, 60, 64
2, 76985, Note_on_c, 0, 57, 46
2, 76993, Note_on_c, 0, 78, 0
2, 76996, Note_on_c, 0, 81, 54
2, 76999, Note_on_c, 0, 80, 0
2, 77000, Note_on_c, 0, 55, 0
2, 77001, Note_on_c, 0, 57, 0
2, 77004, Note_on_c, 0, 63, 0
2, 77005, Note_on_c, 0, 60, 0
2, 77005, Note_on_c, 0, 72, 0
2, 77006, Note_on_c, 0, 84, 0
2, 77008, Note_on_c, 0, 81, 0
2, 77024, Note_on_c, 0, 81, 50
2, 77025, Note_on_c, 0, 69, 58
2, 77025, Note_on_c, 0, 54, 47
2, 77025, Note_on_c, 0, 60, 54
2, 77026, Note_on_c, 0, 79, 36
2, 77027, Note_on_c, 0, 64, 36
2, 77029, Note_on_c, 0, 69, 0
2, 77031, Note_on_c, 0, 79, 0
2, 77032, Note_on_c, 0, 64, 0
2, 77033, Note_on_c, 0, 60, 0
2, 77035, Note_on_c, 0, 81, 0
2, 77038, Note_on_c, 0, 54, 0
2, 77061, Note_on_c, 0, 72, 79
2, 77061, Note_on_c, 0, 54, 74
2, 77061, Note_on_c, 0, 80, 68
2, 77062, Note_on_c, 0, 84, 77
2, 77062, Note_on_c, 0, 64, 74
2, 77062, Note_on_c, 0, 78, 49
2, 77062, Note_on_c, 0, 60, 64
2, 77071, Note_on_c, 0, 78, 0
2, 77078, Note_on_c, 0, 81, 28
2, 77081, Note_on_c, 0, 80, 0
2, 77084, Note_on_c, 0, 64, 0
2, 77086, Note_on_c, 0, 54, 0
2, 77086, Note_on_c, 0, 72, 0
2, 77086, Note_on_c, 0, 81, 0
2, 77087, Note_on_c, 0, 84, 0
2, 77087, Note_on_c, 0, 60, 0
2, 77101, Note_on_c, 0, 54, 55
2, 77102, Note_on_c, 0, 64, 53
2, 77103, Note_on_c, 0, 81, 46
2, 77103, Note_on_c, 0, 60, 40
2, 77104, Note_on_c, 0, 69, 51
2, 77109, Note_on_c, 0, 69, 0
2, 77109, Note_on_c, 0, 60, 0
2, 77111, Note_on_c, 0, 64, 0
2, 77115, Note_on_c, 0, 54, 0
2, 77116, Note_on_c, 0, 81, 0
2, 77142, Note_on_c, 0, 72, 60
2, 77143, Note_on_c, 0, 54, 60
2, 77143, Note_on_c, 0, 64, 63
2, 77144, Note_on_c, 0, 60, 58
2, 77144, Note_on_c, 0, 84, 51
2, 77144, Note_on_c, 0, 86, 55
2, 77149, Note_on_c, 0, 81, 27
2, 77154, Note_on_c, 0, 86, 0
2, 77169, Control_c, 0, 64, 127
2, 77223, Note_on_c, 0, 81, 0
2, 77227, Note_on_c, 0, 72, 0
2, 77228, Note_on_c, 0, 84, 0
2, 77234, Note_on_c, 0, 64, 0
2, 77236, Note_on_c, 0, 54, 0
2, 77242, Note_on_c, 0, 60, 0
2, 77260, Note_on_c, 0, 54, 47
2, 77263, Note_on_c, 0, 85, 67
2, 77263, Note_on_c, 0, 60, 30
2, 77263, Note_on_c, 0, 73, 51
2, 77269, Note_on_c, 0, 60, 0
2, 77276, Note_on_c, 0, 73, 0
2, 77280, Note_on_c, 0, 85, 0
2, 77280, Note_on_c, 0, 54, 0
2, 77291, Note_on_c, 0, 53, 38
2, 77292, Note_on_c, 0, 86, 55
2, 77292, Note_on_c, 0, 74, 39
2, 77292, Note_on_c, 0, 62, 40
2, 77294, Note_on_c, 0, 55, 47
2, 77295, Control_c, 0, 64, 0
2, 77295, Note_on_c, 0, 82, 31
2, 77299, Note_on_c, 0, 58, 21
2, 77332, Control_c, 0, 64, 127
2, 77365, Note_on_c, 0, 55, 0
2, 77367, Note_on_c, 0, 62, 0
2, 77369, Note_on_c, 0, 53, 0
2, 77369, Note_on_c, 0, 58, 0
2, 77375, Note_on_c, 0, 74, 0
2, 77395, Note_on_c, 0, 82, 0
2, 77397, Note_on_c, 0, 86, 0
2, 77406, Note_on_c, 0, 53, 35
2, 77407, Note_on_c, 0, 62, 40
2, 77409, Note_on_c, 0, 58, 31
2, 77413, Note_on_c, 0, 55, 24
2, 77450, Note_on_c, 0, 55, 0
2, 77457, Note_on_c, 0, 53, 0
2, 77463, Note_on_c, 0, 62, 0
2, 77471, Note_on_c, 0, 58, 0
2, 77520, Note_on_c, 0, 63, 18
2, 77520, Note_on_c, 0, 54, 28
2, 77521, Note_on_c, 0, 60, 31
2, 77533, Control_c, 0, 64, 0
2, 77538, Note_on_c, 0, 65, 45
2, 77547, Note_on_c, 0, 65, 0
2, 77548, Note_on_c, 0, 66, 38
2, 77560, Note_on_c, 0, 66, 0
2, 77560, Note_on_c, 0, 68, 36
2, 77565, Note_on_c, 0, 68, 0
2, 77569, Note_on_c, 0, 69, 50
2, 77581, Note_on_c, 0, 69, 0
2, 77583, Note_on_c, 0, 71, 64
2, 77597, Note_on_c, 0, 71, 0
2, 77600, Note_on_c, 0, 72, 48
2, 77607, Note_on_c, 0, 72, 0
2, 77613, Note_on_c, 0, 74, 53
2, 77618, Note_on_c, 0, 74, 0
2, 77628, Note_on_c, 0, 75, 67
2, 77636, Note_on_c, 0, 75, 0
2, 77647, Note_on_c, 0, 77, 61
2, 77657, Note_on_c, 0, 77, 0
2, 77664, Note_on_c, 0, 78, 62
2, 77674, Note_on_c, 0, 78, 0
2, 77682, Note_on_c, 0, 80, 56
2, 77690, Note_on_c, 0, 80, 0
2, 77699, Note_on_c, 0, 81, 53
2, 77706, Note_on_c, 0, 81, 0
2, 77712, Note_on_c, 0, 60, 0
2, 77715, Note_on_c, 0, 83, 64
2, 77719, Note_on_c, 0, 54, 0
2, 77721, Note_on_c, 0, 63, 0
2, 77724, Note_on_c, 0, 83, 0
2, 77735, Note_on_c, 0, 84, 66
2, 77742, Note_on_c, 0, 84, 0
2, 77752, Note_on_c, 0, 86, 62
2, 77762, Note_on_c, 0, 86, 0
2, 77773, Note_on_c, 0, 87, 35
2, 77780, Note_on_c, 0, 87, 0
2, 77796, Note_on_c, 0, 89, 57
2, 77806, Note_on_c, 0, 89, 0
2, 77820, Note_on_c, 0, 67, 38
2, 77821, Note_on_c, 0, 87, 61
2, 77823, Note_on_c, 0, 63, 26
2, 77823, Note_on_c, 0, 91, 51
2, 77828, Note_on_c, 0, 60, 24
2, 77831, Note_on_c, 0, 91, 0
2, 77834, Note_on_c, 0, 87, 0
2, 77850, Note_on_c, 0, 86, 71
2, 77850, Note_on_c, 0, 89, 38
2, 77852, Note_on_c, 0, 56, 1
2, 77858, Note_on_c, 0, 86, 0
2, 77860, Note_on_c, 0, 89, 0
2, 77870, Note_on_c, 0, 87, 58
2, 77873, Note_on_c, 0, 91, 55
2, 77878, Note_on_c, 0, 67, 0
2, 77881, Note_on_c, 0, 91, 0
2, 77882, Note_on_c, 0, 60, 0
2, 77882, Note_on_c, 0, 87, 0
2, 77886, Note_on_c, 0, 63, 0
2, 77894, Note_on_c, 0, 89, 52
2, 77894, Note_on_c, 0, 86, 66
2, 77897, Note_on_c, 0, 56, 0
2, 77907, Note_on_c, 0, 86, 0
2, 77909, Note_on_c, 0, 89, 0
2, 77984, Note_on_c, 0, 66, 57
2, 77986, Note_on_c, 0, 62, 54
2, 77986, Note_on_c, 0, 56, 37
2, 78031, Note_on_c, 0, 66, 0
2, 78032, Note_on_c, 0, 56, 0
2, 78037, Note_on_c, 0, 62, 0
2, 78045, Note_on_c, 0, 78, 71
2, 78046, Note_on_c, 0, 90, 72
2, 78046, Note_on_c, 0, 66, 64
2, 78046, Note_on_c, 0, 56, 64
2, 78047, Note_on_c, 0, 62, 64
2, 78061, Note_on_c, 0, 56, 0
2, 78061, Note_on_c, 0, 66, 0
2, 78064, Note_on_c, 0, 78, 0
2, 78067, Note_on_c, 0, 90, 0
2, 78071, Note_on_c, 0, 66, 59
2, 78072, Note_on_c, 0, 56, 46
2, 78074, Note_on_c, 0, 91, 60
2, 78074, Note_on_c, 0, 79, 55
2, 78080, Control_c, 0, 64, 127
2, 78082, Note_on_c, 0, 79, 0
2, 78083, Note_on_c, 0, 66, 0
2, 78085, Note_on_c, 0, 91, 0
2, 78085, Note_on_c, 0, 56, 0
2, 78087, Note_on_c, 0, 62, 0
2, 78101, Control_c, 0, 64, 0
2, 78109, Note_on_c, 0, 93, 75
2, 78109, Note_on_c, 0, 81, 68
2, 78109, Note_on_c, 0, 62, 68
2, 78109, Note_on_c, 0, 66, 57
2, 78110, Note_on_c, 0, 56, 50
2, 78112, Note_on_c, 0, 92, 36
2, 78114, Note_on_c, 0, 66, 0
2, 78114, Note_on_c, 0, 62, 0
2, 78114, Note_on_c, 0, 93, 0
2, 78115, Note_on_c, 0, 81, 0
2, 78115, Note_on_c, 0, 56, 0
2, 78116, Note_on_c, 0, 92, 0
2, 78128, Control_c, 0, 64, 127
2, 78132, Note_on_c, 0, 82, 52
2, 78132, Note_on_c, 0, 94, 65
2, 78132, Note_on_c, 0, 66, 50
2, 78132, Note_on_c, 0, 62, 63
2, 78136, Note_on_c, 0, 66, 0
2, 78137, Note_on_c, 0, 62, 0
2, 78138, Note_on_c, 0, 82, 0
2, 78140, Note_on_c, 0, 94, 0
2, 78167, Note_on_c, 0, 62, 69
2, 78167, Note_on_c, 0, 84, 71
2, 78167, Note_on_c, 0, 66, 55
2, 78168, Note_on_c, 0, 96, 51
2, 78168, Note_on_c, 0, 56, 46
2, 78169, Note_on_c, 0, 95, 37
2, 78171, Note_on_c, 0, 66, 0
2, 78171, Note_on_c, 0, 62, 0
2, 78172, Note_on_c, 0, 84, 0
2, 78173, Note_on_c, 0, 56, 0
2, 78174, Note_on_c, 0, 95, 0
2, 78175, Control_c, 0, 64, 0
2, 78176, Note_on_c, 0, 96, 0
2, 78187, Note_on_c, 0, 66, 67
2, 78187, Note_on_c, 0, 62, 63
2, 78188, Control_c, 0, 64, 127
2, 78188, Note_on_c, 0, 56, 59
2, 78189, Note_on_c, 0, 86, 80
2, 78189, Note_on_c, 0, 98, 71
2, 78195, Note_on_c, 0, 66, 0
2, 78198, Note_on_c, 0, 86, 0
2, 78198, Note_on_c, 0, 98, 0
2, 78201, Note_on_c, 0, 56, 0
2, 78202, Note_on_c, 0, 62, 0
2, 78222, Note_on_c, 0, 56, 57
2, 78225, Note_on_c, 0, 62, 33
2, 78225, Note_on_c, 0, 87, 70
2, 78226, Note_on_c, 0, 99, 71
2, 78230, Note_on_c, 0, 62, 0
2, 78234, Note_on_c, 0, 87, 0
2, 78235, Note_on_c, 0, 56, 0
2, 78235, Note_on_c, 0, 99, 0
2, 78247, Note_on_c, 0, 63, 63
2, 78248, Note_on_c, 0, 55, 65
2, 78250, Control_c, 0, 64, 0
2, 78251, Note_on_c, 0, 89, 70
2, 78251, Note_on_c, 0, 57, 49
2, 78252, Note_on_c, 0, 101, 66
2, 78253, Note_on_c, 0, 60, 49
2, 78272, Control_c, 0, 64, 127
2, 78286, Note_on_c, 0, 101, 0
2, 78289, Note_on_c, 0, 55, 0
2, 78290, Note_on_c, 0, 57, 0
2, 78291, Note_on_c, 0, 63, 0
2, 78291, Note_on_c, 0, 60, 0
2, 78292, Note_on_c, 0, 89, 0
2, 78306, Control_c, 0, 64, 0
2, 78308, Note_on_c, 0, 63, 55
2, 78310, Note_on_c, 0, 99, 73
2, 78310, Note_on_c, 0, 60, 60
2, 78310, Note_on_c, 0, 55, 57
2, 78311, Note_on_c, 0, 57, 57
2, 78311, Note_on_c, 0, 87, 65
2, 78329, Control_c, 0, 64, 127
2, 78340, Note_on_c, 0, 99, 0
2, 78341, Note_on_c, 0, 87, 0
2, 78347, Note_on_c, 0, 55, 0
2, 78348, Note_on_c, 0, 57, 0
2, 78350, Note_on_c, 0, 63, 0
2, 78352, Note_on_c, 0, 60, 0
2, 78365, Control_c, 0, 64, 0
2, 78369, Note_on_c, 0, 63, 43
2, 78369, Note_on_c, 0, 55, 58
2, 78370, Note_on_c, 0, 60, 55
2, 78371, Note_on_c, 0, 96, 59
2, 78371, Note_on_c, 0, 57, 59
2, 78372, Note_on_c, 0, 84, 57
2, 78378, Control_c, 0, 64, 127
2, 78386, Note_on_c, 0, 96, 0
2, 78391, Note_on_c, 0, 84, 0
2, 78400, Note_on_c, 0, 57, 0
2, 78403, Note_on_c, 0, 55, 0
2, 78406, Note_on_c, 0, 63, 0
2, 78408, Note_on_c, 0, 60, 0
2, 78426, Note_on_c, 0, 63, 52
2, 78426, Control_c, 0, 64, 0
2, 78427, Note_on_c, 0, 55, 53
2, 78428, Note_on_c, 0, 79, 53
2, 78428, Note_on_c, 0, 91, 60
2, 78430, Note_on_c, 0, 60, 36
2, 78436, Control_c, 0, 64, 127
2, 78449, Note_on_c, 0, 91, 0
2, 78450, Note_on_c, 0, 60, 0
2, 78452, Note_on_c, 0, 55, 0
2, 78456, Note_on_c, 0, 63, 0
2, 78458, Note_on_c, 0, 79, 0
2, 78485, Note_on_c, 0, 89, 56
2, 78485, Note_on_c, 0, 65, 53
2, 78485, Note_on_c, 0, 77, 48
2, 78486, Note_on_c, 0, 54, 39
2, 78487, Note_on_c, 0, 60, 50
2, 78487, Note_on_c, 0, 58, 39
2, 78488, Control_c, 0, 64, 0
2, 78513, Control_c, 0, 64, 127
2, 78550, Note_on_c, 0, 89, 0
2, 78552, Note_on_c, 0, 60, 0
2, 78559, Note_on_c, 0, 54, 0
2, 78562, Note_on_c, 0, 77, 0
2, 78563, Note_on_c, 0, 65, 0
2, 78576, Note_on_c, 0, 58, 0
2, 78600, Note_on_c, 0, 80, 39
2, 78600, Note_on_c, 0, 74, 40
2, 78601, Note_on_c, 0, 86, 54
2, 78602, Note_on_c, 0, 54, 36
2, 78602, Note_on_c, 0, 65, 48
2, 78602, Note_on_c, 0, 60, 55
2, 78603, Note_on_c, 0, 58, 33
2, 78604, Control_c, 0, 64, 0
2, 78614, Note_on_c, 0, 80, 0
2, 78618, Note_on_c, 0, 81, 25
2, 78637, Control_c, 0, 64, 127
2, 78662, Note_on_c, 0, 86, 0
2, 78663, Note_on_c, 0, 81, 0
2, 78666, Note_on_c, 0, 74, 0
2, 78672, Note_on_c, 0, 65, 0
2, 78675, Note_on_c, 0, 54, 0
2, 78677, Note_on_c, 0, 60, 0
2, 78680, Note_on_c, 0, 58, 0
2, 78691, Note_on_c, 0, 54, 45
2, 78695, Note_on_c, 0, 84, 64
2, 78696, Note_on_c, 0, 72, 46
2, 78706, Note_on_c, 0, 72, 0
2, 78710, Note_on_c, 0, 84, 0
2, 78711, Note_on_c, 0, 54, 0
2, 78724, Note_on_c, 0, 62, 41
2, 78725, Note_on_c, 0, 82, 39
2, 78726, Note_on_c, 0, 57, 40
2, 78726, Control_c, 0, 64, 0
2, 78726, Note_on_c, 0, 55, 44
2, 78727, Note_on_c, 0, 58, 25
2, 78728, Note_on_c, 0, 79, 47
2, 78775, Note_on_c, 0, 79, 0
2, 78779, Control_c, 0, 64, 127
2, 78783, Note_on_c, 0, 77, 31
2, 78784, Note_on_c, 0, 82, 0
2, 78786, Note_on_c, 0, 81, 33
2, 78816, Note_on_c, 0, 62, 0
2, 78817, Note_on_c, 0, 57, 0
2, 78818, Note_on_c, 0, 77, 0
2, 78823, Note_on_c, 0, 55, 0
2, 78823, Note_on_c, 0, 58, 0
2, 78826, Note_on_c, 0, 81, 0
2, 78843, Control_c, 0, 64, 0
2, 78843, Note_on_c, 0, 79, 35
2, 78843, Note_on_c, 0, 55, 34
2, 78844, Note_on_c, 0, 82, 25
2, 78845, Note_on_c, 0, 62, 35
2, 78846, Note_on_c, 0, 58, 31
2, 78902, Control_c, 0, 64, 127
2, 78923, Note_on_c, 0, 62, 0
2, 78928, Note_on_c, 0, 55, 0
2, 78930, Note_on_c, 0, 58, 0
2, 79057, Note_on_c, 0, 62, 68
2, 79057, Note_on_c, 0, 67, 73
2, 79058, Note_on_c, 0, 56, 58
2, 79059, Control_c, 0, 64, 0
2, 79077, Note_on_c, 0, 67, 0
2, 79079, Note_on_c, 0, 62, 0
2, 79085, Note_on_c, 0, 56, 0
2, 79094, Note_on_c, 0, 66, 69
2, 79095, Note_on_c, 0, 55, 64
2, 79095, Note_on_c, 0, 61, 55
2, 79100, Note_on_c, 0, 79, 0
2, 79106, Note_on_c, 0, 82, 0
2, 79135, Control_c, 0, 64, 127
2, 79164, Note_on_c, 0, 55, 0
2, 79167, Note_on_c, 0, 66, 0
2, 79176, Note_on_c, 0, 61, 0
2, 79177, Note_on_c, 0, 84, 58
2, 79192, Note_on_c, 0, 85, 74
2, 79197, Note_on_c, 0, 84, 0
2, 79201, Note_on_c, 0, 86, 88
2, 79203, Note_on_c, 0, 85, 0
2, 79207, Control_c, 0, 64, 0
2, 79210, Note_on_c, 0, 63, 25
2, 79210, Note_on_c, 0, 60, 50
2, 79210, Note_on_c, 0, 53, 44
2, 79212, Note_on_c, 0, 58, 42
2, 79217, Note_on_c, 0, 87, 71
2, 79220, Note_on_c, 0, 86, 0
2, 79238, Note_on_c, 0, 87, 0
2, 79264, Note_on_c, 0, 84, 64
2, 79274, Note_on_c, 0, 84, 0
2, 79303, Note_on_c, 0, 79, 53
2, 79314, Note_on_c, 0, 79, 0
2, 79337, Note_on_c, 0, 75, 56
2, 79358, Note_on_c, 0, 75, 0
2, 79377, Note_on_c, 0, 72, 39
2, 79419, Note_on_c, 0, 72, 0
2, 79424, Note_on_c, 0, 63, 0
2, 79430, Note_on_c, 0, 60, 0
2, 79440, Note_on_c, 0, 53, 0
2, 79445, Note_on_c, 0, 58, 0
2, 79501, Note_on_c, 0, 46, 46
2, 79541, Note_on_c, 0, 70, 90
2, 79541, Note_on_c, 0, 74, 83
2, 79542, Note_on_c, 0, 65, 92
2, 79542, Note_on_c, 0, 56, 61
2, 79554, Note_on_c, 0, 56, 0
2, 79554, Note_on_c, 0, 65, 0
2, 79557, Note_on_c, 0, 74, 0
2, 79557, Note_on_c, 0, 70, 0
2, 79561, Note_on_c, 0, 46, 0
2, 79582, Note_on_c, 0, 70, 84
2, 79582, Note_on_c, 0, 74, 79
2, 79583, Note_on_c, 0, 56, 64
2, 79583, Note_on_c, 0, 65, 87
2, 79595, Control_c, 0, 64, 127
2, 79600, Note_on_c, 0, 56, 0
2, 79601, Note_on_c, 0, 70, 0
2, 79602, Note_on_c, 0, 65, 0
2, 79607, Note_on_c, 0, 74, 0
2, 79614, Control_c, 0, 64, 0
2, 79620, Note_on_c, 0, 54, 59
2, 79621, Note_on_c, 0, 72, 64
2, 79623, Note_on_c, 0, 44, 47
2, 79623, Note_on_c, 0, 64, 58
2, 79623, Note_on_c, 0, 67, 57
2, 79628, Note_on_c, 0, 67, 0
2, 79631, Note_on_c, 0, 64, 0
2, 79632, Note_on_c, 0, 72, 0
2, 79639, Control_c, 0, 64, 127
2, 79652, Note_on_c, 0, 54, 0
2, 79657, Note_on_c, 0, 44, 0
2, 79665, Control_c, 0, 64, 0
2, 79666, Note_on_c, 0, 70, 48
2, 79667, Note_on_c, 0, 62, 57
2, 79668, Note_on_c, 0, 65, 47
2, 79668, Note_on_c, 0, 53, 45
2, 79668, Note_on_c, 0, 43, 47
2, 79670, Note_on_c, 0, 58, 30
2, 79733, Control_c, 0, 64, 127
2, 79760, Note_on_c, 0, 65, 0
2, 79763, Note_on_c, 0, 53, 0
2, 79768, Note_on_c, 0, 58, 0
2, 79773, Note_on_c, 0, 62, 0
2, 79791, Note_on_c, 0, 70, 0
2, 79801, Control_c, 0, 64, 0
2, 79803, Note_on_c, 0, 58, 29
2, 79804, Note_on_c, 0, 62, 44
2, 79806, Note_on_c, 0, 53, 36
2, 79807, Note_on_c, 0, 65, 32
2, 79815, Control_c, 0, 64, 127
2, 79846, Note_on_c, 0, 58, 0
2, 79848, Note_on_c, 0, 43, 0
2, 79851, Note_on_c, 0, 65, 0
2, 79851, Note_on_c, 0, 62, 0
2, 79855, Note_on_c, 0, 53, 0
2, 79907, Note_on_c, 0, 72, 71
2, 79916, Note_on_c, 0, 72, 0
2, 79926, Control_c, 0, 64, 0
2, 79938, Note_on_c, 0, 73, 52
2, 79953, Note_on_c, 0, 73, 0
2, 79971, Note_on_c, 0, 75, 73
2, 79979, Note_on_c, 0, 69, 37
2, 79983, Note_on_c, 0, 64, 25
2, 79984, Note_on_c, 0, 69, 0
2, 79986, Note_on_c, 0, 75, 0
2, 79989, Note_on_c, 0, 64, 0
2, 80000, Note_on_c, 0, 73, 42
2, 80016, Note_on_c, 0, 73, 0
2, 80032, Note_on_c, 0, 72, 55
2, 80047, Note_on_c, 0, 72, 0
2, 80056, Note_on_c, 0, 70, 40
2, 80078, Note_on_c, 0, 70, 0
2, 80091, Note_on_c, 0, 72, 51
2, 80094, Note_on_c, 0, 62, 38
2, 80096, Note_on_c, 0, 58, 31
2, 80100, Note_on_c, 0, 62, 0
2, 80105, Note_on_c, 0, 72, 0
2, 80111, Note_on_c, 0, 58, 0
2, 80118, Note_on_c, 0, 70, 33
2, 80132, Note_on_c, 0, 70, 0
2, 80150, Note_on_c, 0, 69, 51
2, 80164, Note_on_c, 0, 69, 0
2, 80177, Note_on_c, 0, 68, 27
2, 80205, Note_on_c, 0, 68, 0
2, 80226, Note_on_c, 0, 68, 46
2, 80256, Note_on_c, 0, 68, 0
2, 80262, Note_on_c, 0, 67, 48
2, 80274, Note_on_c, 0, 67, 0
2, 80285, Note_on_c, 0, 68, 48
2, 80317, Note_on_c, 0, 68, 0
2, 80319, Note_on_c, 0, 70, 61
2, 80337, Note_on_c, 0, 70, 0
2, 80347, Note_on_c, 0, 68, 37
2, 80391, Note_on_c, 0, 68, 0
2, 80493, Control_c, 0, 64, 127
2, 80511, Control_c, 0, 64, 0
2, 80526, Note_on_c, 0, 68, 73
2, 80560, Note_on_c, 0, 68, 0
2, 80565, Note_on_c, 0, 70, 64
2, 80582, Note_on_c, 0, 70, 0
2, 80589, Note_on_c, 0, 68, 47
2, 80608, Control_c, 0, 64, 127
2, 80625, Note_on_c, 0, 68, 0
2, 80630, Control_c, 0, 64, 0
2, 80643, Note_on_c, 0, 67, 53
2, 80643, Note_on_c, 0, 51, 39
2, 80644, Note_on_c, 0, 62, 42
2, 80646, Note_on_c, 0, 58, 40
2, 80649, Note_on_c, 0, 55, 37
2, 80668, Note_on_c, 0, 55, 0
2, 80668, Note_on_c, 0, 62, 0
2, 80670, Note_on_c, 0, 51, 0
2, 80683, Note_on_c, 0, 58, 0
2, 80686, Note_on_c, 0, 67, 0
2, 80688, Note_on_c, 0, 63, 46
2, 80702, Note_on_c, 0, 63, 0
2, 80710, Note_on_c, 0, 65, 51
2, 80746, Note_on_c, 0, 65, 0
2, 80749, Note_on_c, 0, 62, 37
2, 80750, Note_on_c, 0, 67, 64
2, 80752, Note_on_c, 0, 55, 45
2, 80754, Note_on_c, 0, 62, 0
2, 80759, Note_on_c, 0, 55, 0
2, 80764, Note_on_c, 0, 67, 0
2, 80926, Note_on_c, 0, 63, 58
2, 80926, Note_on_c, 0, 78, 69
2, 80928, Note_on_c, 0, 90, 28
2, 80928, Note_on_c, 0, 58, 53
2, 80928, Note_on_c, 0, 91, 68
2, 80929, Note_on_c, 0, 52, 38
2, 80933, Note_on_c, 0, 89, 24
2, 80936, Note_on_c, 0, 78, 0
2, 80937, Note_on_c, 0, 90, 0
2, 80938, Note_on_c, 0, 79, 40
2, 80939, Note_on_c, 0, 63, 0
2, 80945, Note_on_c, 0, 89, 0
2, 80947, Note_on_c, 0, 91, 0
2, 80947, Note_on_c, 0, 52, 0
2, 80948, Note_on_c, 0, 79, 0
2, 80954, Note_on_c, 0, 58, 0
2, 80990, Note_on_c, 0, 63, 59
2, 80990, Note_on_c, 0, 87, 60
2, 80990, Note_on_c, 0, 75, 63
2, 80991, Note_on_c, 0, 58, 48
2, 80993, Note_on_c, 0, 52, 32
2, 80999, Note_on_c, 0, 52, 0
2, 81001, Note_on_c, 0, 63, 0
2, 81002, Note_on_c, 0, 75, 0
2, 81006, Note_on_c, 0, 87, 0
2, 81009, Note_on_c, 0, 58, 0
2, 81032, Note_on_c, 0, 88, 55
2, 81033, Note_on_c, 0, 63, 53
2, 81034, Note_on_c, 0, 76, 48
2, 81037, Note_on_c, 0, 52, 27
2, 81040, Note_on_c, 0, 76, 0
2, 81040, Note_on_c, 0, 63, 0
2, 81042, Note_on_c, 0, 52, 0
2, 81044, Note_on_c, 0, 88, 0
2, 81073, Note_on_c, 0, 89, 68
2, 81073, Note_on_c, 0, 63, 55
2, 81073, Note_on_c, 0, 77, 64
2, 81074, Note_on_c, 0, 52, 52
2, 81075, Note_on_c, 0, 58, 35
2, 81080, Note_on_c, 0, 52, 0
2, 81082, Note_on_c, 0, 89, 0
2, 81083, Note_on_c, 0, 77, 0
2, 81086, Note_on_c, 0, 63, 0
2, 81093, Note_on_c, 0, 58, 0
2, 81113, Note_on_c, 0, 63, 50
2, 81114, Note_on_c, 0, 53, 51
2, 81115, Note_on_c, 0, 60, 51
2, 81116, Note_on_c, 0, 90, 63
2, 81116, Note_on_c, 0, 78, 67
2, 81126, Note_on_c, 0, 63, 0
2, 81127, Note_on_c, 0, 60, 0
2, 81129, Note_on_c, 0, 78, 0
2, 81131, Note_on_c, 0, 53, 0
2, 81134, Note_on_c, 0, 90, 0
2, 81155, Note_on_c, 0, 91, 53
2, 81156, Note_on_c, 0, 79, 50
2, 81157, Note_on_c, 0, 63, 54
2, 81158, Note_on_c, 0, 53, 51
2, 81159, Note_on_c, 0, 60, 57
2, 81166, Note_on_c, 0, 60, 0
2, 81169, Note_on_c, 0, 91, 0
2, 81170, Note_on_c, 0, 63, 0
2, 81171, Note_on_c, 0, 79, 0
2, 81172, Note_on_c, 0, 53, 0
2, 81193, Note_on_c, 0, 89, 60
2, 81195, Note_on_c, 0, 63, 47
2, 81195, Note_on_c, 0, 77, 51
2, 81196, Note_on_c, 0, 53, 43
2, 81198, Note_on_c, 0, 60, 51
2, 81244, Note_on_c, 0, 89, 0
2, 81245, Control_c, 0, 64, 127
2, 81252, Note_on_c, 0, 77, 0
2, 81258, Note_on_c, 0, 63, 0
2, 81263, Note_on_c, 0, 53, 0
2, 81264, Note_on_c, 0, 60, 0
2, 81288, Note_on_c, 0, 86, 71
2, 81288, Note_on_c, 0, 74, 66
2, 81290, Note_on_c, 0, 63, 42
2, 81291, Note_on_c, 0, 60, 58
2, 81295, Note_on_c, 0, 74, 0
2, 81296, Note_on_c, 0, 63, 0
2, 81298, Note_on_c, 0, 86, 0
2, 81298, Note_on_c, 0, 60, 0
2, 81311, Note_on_c, 0, 75, 60
2, 81311, Note_on_c, 0, 63, 52
2, 81311, Note_on_c, 0, 87, 71
2, 81312, Note_on_c, 0, 60, 51
2, 81314, Note_on_c, 0, 53, 31
2, 81320, Note_on_c, 0, 53, 0
2, 81322, Note_on_c, 0, 60, 0
2, 81327, Note_on_c, 0, 75, 0
2, 81327, Note_on_c, 0, 63, 0
2, 81330, Note_on_c, 0, 87, 0
2, 81348, Note_on_c, 0, 86, 75
2, 81348, Note_on_c, 0, 56, 79
2, 81349, Note_on_c, 0, 67, 87
2, 81349, Note_on_c, 0, 82, 67
2, 81349, Note_on_c, 0, 62, 75
2, 81349, Note_on_c, 0, 89, 73
2, 81350, Note_on_c, 0, 77, 70
2, 81352, Note_on_c, 0, 88, 53
2, 81354, Control_c, 0, 64, 0
2, 81356, Note_on_c, 0, 88, 0
2, 81375, Control_c, 0, 64, 127
2, 81429, Note_on_c, 0, 82, 0
2, 81430, Note_on_c, 0, 86, 0
2, 81430, Note_on_c, 0, 77, 0
2, 81435, Note_on_c, 0, 89, 0
2, 81452, Note_on_c, 0, 67, 0
2, 81453, Note_on_c, 0, 62, 0
2, 81456, Note_on_c, 0, 56, 0
2, 81480, Note_on_c, 0, 66, 87
2, 81480, Note_on_c, 0, 56, 77
2, 81480, Note_on_c, 0, 62, 80
2, 81480, Note_on_c, 0, 91, 84
2, 81480, Note_on_c, 0, 85, 88
2, 81481, Note_on_c, 0, 79, 85
2, 81484, Control_c, 0, 64, 0
2, 81497, Note_on_c, 0, 85, 0
2, 81499, Note_on_c, 0, 86, 58
2, 81506, Control_c, 0, 64, 127
2, 81549, Note_on_c, 0, 62, 0
2, 81550, Note_on_c, 0, 91, 0
2, 81551, Note_on_c, 0, 66, 0
2, 81552, Note_on_c, 0, 86, 0
2, 81558, Note_on_c, 0, 79, 0
2, 81558, Note_on_c, 0, 56, 0
2, 81602, Note_on_c, 0, 87, 76
2, 81602, Note_on_c, 0, 62, 75
2, 81603, Note_on_c, 0, 65, 75
2, 81603, Control_c, 0, 64, 0
2, 81603, Note_on_c, 0, 60, 64
2, 81604, Note_on_c, 0, 82, 74
2, 81604, Note_on_c, 0, 75, 76
2, 81604, Note_on_c, 0, 55, 59
2, 81626, Control_c, 0, 64, 127
2, 81655, Note_on_c, 0, 55, 0
2, 81656, Note_on_c, 0, 65, 0
2, 81657, Note_on_c, 0, 75, 0
2, 81663, Note_on_c, 0, 60, 0
2, 81664, Note_on_c, 0, 82, 0
2, 81664, Note_on_c, 0, 87, 0
2, 81665, Note_on_c, 0, 62, 0
2, 81724, Note_on_c, 0, 62, 75
2, 81726, Note_on_c, 0, 55, 74
2, 81726, Note_on_c, 0, 65, 73
2, 81726, Note_on_c, 0, 94, 85
2, 81727, Note_on_c, 0, 87, 83
2, 81728, Note_on_c, 0, 82, 64
2, 81728, Note_on_c, 0, 60, 35
2, 81779, Note_on_c, 0, 82, 0
2, 81779, Note_on_c, 0, 55, 0
2, 81783, Note_on_c, 0, 65, 0
2, 81783, Note_on_c, 0, 60, 0
2, 81785, Note_on_c, 0, 87, 0
2, 81785, Note_on_c, 0, 62, 0
2, 81791, Note_on_c, 0, 94, 0
2, 81852, Note_on_c, 0, 106, 72
2, 81852, Note_on_c, 0, 56, 67
2, 81852, Note_on_c, 0, 66, 67
2, 81853, Note_on_c, 0, 94, 51
2, 81853, Note_on_c, 0, 62, 59
2, 81854, Note_on_c, 0, 101, 52
2, 81862, Control_c, 0, 64, 0
2, 81888, Control_c, 0, 64, 127
2, 81907, Note_on_c, 0, 101, 0
2, 81908, Note_on_c, 0, 106, 0
2, 81914, Note_on_c, 0, 62, 0
2, 81916, Note_on_c, 0, 94, 0
2, 81919, Note_on_c, 0, 66, 0
2, 81924, Note_on_c, 0, 56, 0
2, 81945, Control_c, 0, 64, 0
2, 81967, Control_c, 0, 64, 127
2, 81970, Note_on_c, 0, 103, 45
2, 81970, Note_on_c, 0, 97, 47
2, 81970, Note_on_c, 0, 63, 37
2, 81970, Note_on_c, 0, 66, 36
2, 81971, Note_on_c, 0, 91, 33
2, 81971, Note_on_c, 0, 61, 37
2, 81971, Note_on_c, 0, 56, 31
2, 81990, Note_on_c, 0, 97, 0
2, 81993, Note_on_c, 0, 98, 33
2, 82002, Note_on_c, 0, 98, 0
2, 82004, Note_on_c, 0, 91, 0
2, 82007, Note_on_c, 0, 103, 0
2, 82019, Note_on_c, 0, 61, 0
2, 82020, Note_on_c, 0, 63, 0
2, 82021, Note_on_c, 0, 66, 0
2, 82025, Note_on_c, 0, 56, 0
2, 82042, Note_on_c, 0, 82, 59
2, 82107, Control_c, 0, 64, 0
2, 82114, Note_on_c, 0, 79, 49
2, 82116, Note_on_c, 0, 82, 0
2, 82116, Note_on_c, 0, 51, 35
2, 82116, Control_c, 0, 64, 0
2, 82154, Control_c, 0, 64, 127
2, 82183, Note_on_c, 0, 79, 0
2, 82189, Note_on_c, 0, 82, 49
2, 82198, Note_on_c, 0, 58, 23
2, 82254, Note_on_c, 0, 51, 0
2, 82258, Note_on_c, 0, 82, 0
2, 82260, Note_on_c, 0, 79, 38
2, 82265, Note_on_c, 0, 58, 0
2, 82265, Note_on_c, 0, 74, 33
2, 82268, Note_on_c, 0, 62, 28
2, 82328, Note_on_c, 0, 74, 0
2, 82341, Note_on_c, 0, 62, 0
2, 82341, Note_on_c, 0, 79, 0
2, 82343, Note_on_c, 0, 63, 35
2, 82384, Note_on_c, 0, 86, 74
2, 82410, Note_on_c, 0, 86, 0
2, 82423, Note_on_c, 0, 82, 56
2, 82427, Note_on_c, 0, 74, 45
2, 82430, Note_on_c, 0, 67, 37
2, 82452, Note_on_c, 0, 82, 0
2, 82483, Note_on_c, 0, 63, 0
2, 82511, Note_on_c, 0, 63, 29
2, 82518, Note_on_c, 0, 74, 0
2, 82520, Note_on_c, 0, 67, 0
2, 82533, Note_on_c, 0, 63, 0
2, 82576, Note_on_c, 0, 70, 40
2, 82576, Note_on_c, 0, 79, 40
2, 82577, Note_on_c, 0, 75, 48
2, 82652, Note_on_c, 0, 70, 0
2, 82654, Note_on_c, 0, 79, 0
2, 82663, Note_on_c, 0, 75, 0
2, 82732, Note_on_c, 0, 80, 53
2, 82733, Note_on_c, 0, 51, 46
2, 82737, Note_on_c, 0, 75, 39
2, 82739, Note_on_c, 0, 72, 38
2, 82741, Note_on_c, 0, 68, 30
2, 82742, Note_on_c, 0, 60, 41
2, 82744, Control_c, 0, 64, 0
2, 82782, Control_c, 0, 64, 127
2, 82796, Note_on_c, 0, 72, 0
2, 82798, Note_on_c, 0, 80, 0
2, 82800, Note_on_c, 0, 68, 0
2, 82805, Note_on_c, 0, 75, 0
2, 82821, Note_on_c, 0, 82, 59
2, 82823, Note_on_c, 0, 60, 0
2, 82824, Note_on_c, 0, 56, 29
2, 82847, Note_on_c, 0, 82, 0
2, 82902, Note_on_c, 0, 80, 49
2, 82908, Note_on_c, 0, 68, 33
2, 82910, Note_on_c, 0, 60, 33
2, 82934, Note_on_c, 0, 80, 0
2, 82938, Note_on_c, 0, 68, 0
2, 82952, Note_on_c, 0, 51, 0
2, 82991, Note_on_c, 0, 51, 43
2, 82996, Note_on_c, 0, 60, 0
2, 82998, Note_on_c, 0, 82, 37
2, 83001, Note_on_c, 0, 80, 30
2, 83005, Note_on_c, 0, 68, 18
2, 83007, Note_on_c, 0, 82, 0
2, 83008, Note_on_c, 0, 56, 0
2, 83019, Note_on_c, 0, 51, 0
2, 83030, Note_on_c, 0, 80, 0
2, 83034, Note_on_c, 0, 68, 0
2, 83104, Note_on_c, 0, 34, 50
2, 83105, Note_on_c, 0, 80, 36
2, 83105, Note_on_c, 0, 46, 37
2, 83106, Note_on_c, 0, 68, 39
2, 83109, Control_c, 0, 64, 0
2, 83141, Control_c, 0, 64, 127
2, 83144, Note_on_c, 0, 34, 0
2, 83154, Note_on_c, 0, 46, 0
2, 83157, Note_on_c, 0, 68, 0
2, 83163, Note_on_c, 0, 80, 0
2, 83214, Note_on_c, 0, 82, 64
2, 83216, Note_on_c, 0, 70, 51
2, 83248, Note_on_c, 0, 70, 0
2, 83256, Note_on_c, 0, 82, 0
2, 83328, Note_on_c, 0, 56, 37
2, 83350, Note_on_c, 0, 72, 44
2, 83352, Note_on_c, 0, 62, 41
2, 83360, Note_on_c, 0, 79, 57
2, 83361, Note_on_c, 0, 67, 44
2, 83379, Note_on_c, 0, 84, 61
2, 83588, Note_on_c, 0, 84, 0
2, 83649, Note_on_c, 0, 74, 60
2, 83651, Note_on_c, 0, 72, 0
2, 83652, Note_on_c, 0, 68, 60
2, 83653, Note_on_c, 0, 46, 60
2, 83655, Note_on_c, 0, 79, 60
2, 83655, Note_on_c, 0, 83, 60
2, 83658, Note_on_c, 0, 86, 60
2, 83675, Note_on_c, 0, 67, 0
2, 83699, Note_on_c, 0, 56, 0
2, 83702, Note_on_c, 0, 62, 0
2, 83769, Note_on_c, 0, 74, 0
2, 83772, Note_on_c, 0, 68, 0
2, 83773, Note_on_c, 0, 46, 0
2, 83775, Note_on_c, 0, 79, 0
2, 83775, Note_on_c, 0, 83, 0
2, 83775, Note_on_c, 0, 79, 0
2, 83787, Note_on_c, 0, 34, 70
2, 83799, Note_on_c, 0, 86, 0
2, 83907, Note_on_c, 0, 34, 0
2, 83938, Note_on_c, 0, 27, 48
2, 83938, Note_on_c, 0, 67, 60
2, 83939, Note_on_c, 0, 87, 60
2, 83940, Note_on_c, 0, 72, 60
2, 83940, Note_on_c, 0, 77, 60
2, 83940, Note_on_c, 0, 82, 60
2, 83941, Note_on_c, 0, 39, 30
2, 83941, Control_c, 0, 64, 0
2, 83971, Control_c, 0, 64, 127
2, 83990, Note_on_c, 0, 27, 0
2, 84003, Note_on_c, 0, 39, 0
2, 84025, Note_on_c, 0, 87, 0
2, 84058, Note_on_c, 0, 67, 0
2, 84060, Note_on_c, 0, 72, 0
2, 84060, Note_on_c, 0, 82, 0
2, 84060, Note_on_c, 0, 77, 0
2, 84119, Note_on_c, 0, 96, 62
2, 84120, Note_on_c, 0, 91, 57
2, 84122, Note_on_c, 0, 86, 49
2, 84122, Note_on_c, 0, 79, 36
2, 84160, Note_on_c, 0, 96, 0
2, 84164, Note_on_c, 0, 91, 0
2, 84177, Note_on_c, 0, 86, 0
2, 84180, Note_on_c, 0, 79, 0
2, 84266, Note_on_c, 0, 91, 56
2, 84268, Note_on_c, 0, 86, 66
2, 84270, Note_on_c, 0, 81, 40
2, 84273, Note_on_c, 0, 74, 40
2, 84312, Note_on_c, 0, 74, 0
2, 84315, Note_on_c, 0, 86, 0
2, 84316, Note_on_c, 0, 91, 0
2, 84331, Note_on_c, 0, 81, 0
2, 84399, Note_on_c, 0, 87, 53
2, 84401, Note_on_c, 0, 82, 44
2, 84402, Note_on_c, 0, 77, 36
2, 84403, Note_on_c, 0, 72, 34
2, 84438, Note_on_c, 0, 87, 0
2, 84439, Note_on_c, 0, 72, 0
2, 84441, Note_on_c, 0, 82, 0
2, 84453, Note_on_c, 0, 77, 0
2, 84527, Note_on_c, 0, 84, 50
2, 84528, Note_on_c, 0, 74, 41
2, 84528, Note_on_c, 0, 79, 43
2, 84529, Note_on_c, 0, 67, 36
2, 84556, Note_on_c, 0, 84, 0
2, 84565, Note_on_c, 0, 67, 0
2, 84570, Note_on_c, 0, 79, 0
2, 84583, Note_on_c, 0, 74, 0
2, 84655, Note_on_c, 0, 79, 40
2, 84656, Note_on_c, 0, 74, 52
2, 84660, Note_on_c, 0, 63, 43
2, 84662, Note_on_c, 0, 69, 45
2, 84691, Note_on_c, 0, 63, 0
2, 84696, Note_on_c, 0, 74, 0
2, 84699, Note_on_c, 0, 79, 0
2, 84704, Note_on_c, 0, 69, 0
2, 84788, Note_on_c, 0, 75, 42
2, 84791, Note_on_c, 0, 70, 47
2, 84793, Note_on_c, 0, 65, 30
2, 84797, Note_on_c, 0, 60, 33
2, 84841, Note_on_c, 0, 75, 0
2, 84845, Note_on_c, 0, 70, 0
2, 84854, Note_on_c, 0, 65, 0
2, 84862, Note_on_c, 0, 60, 0
2, 84933, Note_on_c, 0, 67, 44
2, 84935, Note_on_c, 0, 62, 33
2, 84936, Note_on_c, 0, 72, 28
2, 84942, Note_on_c, 0, 55, 31
2, 84958, Note_on_c, 0, 55, 0
2, 84964, Note_on_c, 0, 72, 0
2, 84969, Note_on_c, 0, 67, 0
2, 84983, Note_on_c, 0, 62, 0
2, 85123, Note_on_c, 0, 67, 1
2, 85127, Note_on_c, 0, 39, 37
2, 85128, Note_on_c, 0, 55, 45
2, 85128, Note_on_c, 0, 57, 36
2, 85129, Note_on_c, 0, 46, 33
2, 85130, Note_on_c, 0, 60, 47
2, 85132, Note_on_c, 0, 62, 26
2, 85147, Control_c, 0, 64, 0
2, 85203, Control_c, 0, 64, 127
2, 85293, Note_on_c, 0, 46, 0
2, 85305, Note_on_c, 0, 39, 0
2, 85388, Note_on_c, 0, 27, 42
2, 85426, Note_on_c, 0, 27, 0
2, 85513, Note_on_c, 0, 27, 52
2, 85588, Note_on_c, 0, 27, 0
2, 85636, Note_on_c, 0, 27, 74
2, 85677, Note_on_c, 0, 55, 0
2, 85677, Note_on_c, 0, 60, 0
2, 85680, Note_on_c, 0, 62, 0
2, 85682, Note_on_c, 0, 57, 0
2, 85694, Note_on_c, 0, 67, 0
2, 85993, Control_c, 0, 64, 0
2, 86356, Note_on_c, 0, 27, 0
2, 86356, End_track
3, 0, Start_track
3, 0, Title_t, "Acoustic Bass"
3, 0, Program_c, 1, 32
3, 0, Control_c, 1, 7, 100
3, 51192, Note_on_c, 1, 34, 100
3, 51312, Note_on_c, 1, 34, 0
3, 51360, Note_on_c, 1, 33, 80
3, 51598, Note_on_c, 1, 38, 83
3, 51604, Note_on_c, 1, 33, 0
3, 51820, Note_on_c, 1, 34, 24
3, 51839, Note_on_c, 1, 43, 84
3, 51844, Note_on_c, 1, 38, 0
3, 51846, Note_on_c, 1, 34, 0
3, 51962, Note_on_c, 1, 41, 76
3, 51971, Note_on_c, 1, 43, 0
3, 52042, Note_on_c, 1, 38, 21
3, 52050, Note_on_c, 1, 38, 0
3, 52085, Note_on_c, 1, 41, 0
3, 52086, Note_on_c, 1, 40, 57
3, 52205, Note_on_c, 1, 33, 72
3, 52212, Note_on_c, 1, 40, 0
3, 52325, Note_on_c, 1, 33, 0
3, 52326, Note_on_c, 1, 32, 73
3, 52561, Note_on_c, 1, 46, 74
3, 52609, Note_on_c, 1, 32, 0
3, 52683, Note_on_c, 1, 32, 72
3, 52688, Note_on_c, 1, 46, 0
3, 52795, Note_on_c, 1, 32, 0
3, 52801, Note_on_c, 1, 31, 69
3, 52804, Note_on_c, 1, 32, 33
3, 52810, Note_on_c, 1, 32, 0
3, 53038, Note_on_c, 1, 31, 0
3, 53040, Note_on_c, 1, 36, 83
3, 53271, Note_on_c, 1, 36, 0
3, 53275, Note_on_c, 1, 32, 71
3, 53522, Note_on_c, 1, 37, 76
3, 53531, Note_on_c, 1, 32, 0
3, 53756, Note_on_c, 1, 39, 76
3, 53760, Note_on_c, 1, 37, 0
3, 53763, Note_on_c, 1, 36, 19
3, 53768, Note_on_c, 1, 36, 0
3, 53997, Note_on_c, 1, 48, 85
3, 54004, Note_on_c, 1, 39, 0
3, 54117, Note_on_c, 1, 40, 79
3, 54123, Note_on_c, 1, 48, 0
3, 54237, Note_on_c, 1, 40, 0
3, 54243, Note_on_c, 1, 41, 66
3, 54349, Note_on_c, 1, 41, 0
3, 54354, Note_on_c, 1, 29, 72
3, 54600, Note_on_c, 1, 34, 72
3, 54607, Note_on_c, 1, 29, 0
3, 54725, Note_on_c, 1, 39, 69
3, 54734, Note_on_c, 1, 34, 0
3, 54843, Note_on_c, 1, 46, 69
3, 54855, Note_on_c, 1, 39, 0
3, 55203, Note_on_c, 1, 46, 0
3, 55204, Note_on_c, 1, 45, 69
3, 55441, Note_on_c, 1, 38, 74
3, 55442, Note_on_c, 1, 45, 0
3, 55679, Note_on_c, 1, 43, 79
3, 55689, Note_on_c, 1, 38, 0
3, 55799, Note_on_c, 1, 41, 70
3, 55809, Note_on_c, 1, 43, 0
3, 55911, Note_on_c, 1, 41, 0
3, 55916, Note_on_c, 1, 40, 60
3, 56039, Note_on_c, 1, 33, 69
3, 56046, Note_on_c, 1, 40, 0
3, 56161, Note_on_c, 1, 33, 0
3, 56162, Note_on_c, 1, 32, 69
3, 56399, Note_on_c, 1, 32, 0
3, 56403, Note_on_c, 1, 33, 69
3, 56521, Note_on_c, 1, 38, 69
3, 56522, Note_on_c, 1, 33, 0
3, 56642, Note_on_c, 1, 43, 83
3, 56646, Note_on_c, 1, 38, 0
3, 56881, Note_on_c, 1, 36, 69
3, 56888, Note_on_c, 1, 43, 0
3, 57124, Note_on_c, 1, 32, 72
3, 57130, Note_on_c, 1, 36, 0
3, 57365, Note_on_c, 1, 37, 71
3, 57369, Note_on_c, 1, 32, 0
3, 57605, Note_on_c, 1, 39, 69
3, 57611, Note_on_c, 1, 37, 0
3, 57835, Note_on_c, 1, 39, 0
3, 57838, Note_on_c, 1, 36, 55
3, 57899, Note_on_c, 1, 36, 0
3, 57906, Note_on_c, 1, 36, 76
3, 58084, Note_on_c, 1, 41, 63
3, 58089, Note_on_c, 1, 36, 0
3, 58206, Note_on_c, 1, 41, 0
3, 58206, Note_on_c, 1, 35, 76
3, 58326, Note_on_c, 1, 35, 0
3, 58326, Note_on_c, 1, 34, 63
3, 58444, Note_on_c, 1, 40, 59
3, 58455, Note_on_c, 1, 34, 0
3, 58564, Note_on_c, 1, 39, 66
3, 58569, Note_on_c, 1, 40, 0
3, 58686, Note_on_c, 1, 46, 72
3, 58697, Note_on_c, 1, 39, 0
3, 58920, Note_on_c, 1, 34, 57
3, 59023, Note_on_c, 1, 46, 0
3, 59040, Note_on_c, 1, 46, 63
3, 59150, Note_on_c, 1, 46, 0
3, 59163, Note_on_c, 1, 46, 57
3, 59239, Note_on_c, 1, 34, 0
3, 59399, Note_on_c, 1, 34, 56
3, 59469, Note_on_c, 1, 46, 0
3, 59523, Note_on_c, 1, 46, 70
3, 59619, Note_on_c, 1, 34, 0
3, 59632, Note_on_c, 1, 46, 0
3, 59639, Note_on_c, 1, 46, 62
3, 59876, Note_on_c, 1, 34, 56
3, 59879, Note_on_c, 1, 46, 0
3, 59941, Note_on_c, 1, 44, 70
3, 59955, Note_on_c, 1, 34, 0
3, 59986, Note_on_c, 1, 34, 1
3, 60001, Note_on_c, 1, 44, 0
3, 60001, Note_on_c, 1, 43, 69
3, 60003, Note_on_c, 1, 34, 0
3, 60238, Note_on_c, 1, 36, 70
3, 60245, Note_on_c, 1, 43, 0
3, 60472, Note_on_c, 1, 41, 69
3, 60481, Note_on_c, 1, 36, 0
3, 60719, Note_on_c, 1, 34, 65
3, 60727, Note_on_c, 1, 41, 0
3, 60856, Note_on_c, 1, 46, 33
3, 60869, Note_on_c, 1, 46, 0
3, 60910, Note_on_c, 1, 46, 75
3, 60951, Note_on_c, 1, 46, 0
3, 60963, Note_on_c, 1, 46, 65
3, 61053, Note_on_c, 1, 34, 0
3, 61080, Note_on_c, 1, 34, 71
3, 61090, Note_on_c, 1, 46, 0
3, 61382, Note_on_c, 1, 46, 77
3, 61436, Note_on_c, 1, 46, 0
3, 61436, Note_on_c, 1, 34, 0
3, 61439, Note_on_c, 1, 45, 69
3, 61559, Note_on_c, 1, 33, 68
3, 61570, Note_on_c, 1, 45, 0
3, 61686, Note_on_c, 1, 38, 71
3, 61687, Note_on_c, 1, 33, 0
3, 61913, Note_on_c, 1, 38, 0
3, 61922, Note_on_c, 1, 31, 69
3, 62150, Note_on_c, 1, 31, 0
3, 62161, Note_on_c, 1, 30, 75
3, 62389, Note_on_c, 1, 30, 0
3, 62407, Note_on_c, 1, 29, 92
3, 62640, Note_on_c, 1, 29, 0
3, 62645, Note_on_c, 1, 28, 78
3, 62874, Note_on_c, 1, 28, 0
3, 62885, Note_on_c, 1, 33, 85
3, 63087, Note_on_c, 1, 32, 38
3, 63114, Note_on_c, 1, 32, 0
3, 63116, Note_on_c, 1, 38, 90
3, 63127, Note_on_c, 1, 33, 0
3, 63361, Note_on_c, 1, 31, 88
3, 63370, Note_on_c, 1, 38, 0
3, 63479, Note_on_c, 1, 29, 66
3, 63487, Note_on_c, 1, 31, 0
3, 63594, Note_on_c, 1, 29, 0
3, 63599, Note_on_c, 1, 28, 69
3, 63603, Note_on_c, 1, 29, 23
3, 63609, Note_on_c, 1, 29, 0
3, 63723, Note_on_c, 1, 33, 77
3, 63729, Note_on_c, 1, 28, 0
3, 63836, Note_on_c, 1, 33, 0
3, 63840, Note_on_c, 1, 32, 70
3, 64078, Note_on_c, 1, 34, 74
3, 64085, Note_on_c, 1, 32, 0
3, 64259, Note_on_c, 1, 34, 0
3, 64263, Note_on_c, 1, 32, 71
3, 64322, Note_on_c, 1, 31, 68
3, 64330, Note_on_c, 1, 32, 0
3, 64475, Note_on_c, 1, 38, 61
3, 64476, Note_on_c, 1, 31, 0
3, 64486, Note_on_c, 1, 38, 0
3, 64507, Note_on_c, 1, 37, 67
3, 64537, Note_on_c, 1, 37, 0
3, 64548, Note_on_c, 1, 36, 72
3, 64611, Note_on_c, 1, 31, 59
3, 64613, Note_on_c, 1, 36, 0
3, 64663, Note_on_c, 1, 31, 0
3, 64672, Note_on_c, 1, 28, 68
3, 64796, Note_on_c, 1, 28, 0
3, 64800, Note_on_c, 1, 29, 83
3, 64802, Note_on_c, 1, 28, 30
3, 64817, Note_on_c, 1, 28, 0
3, 64919, Note_on_c, 1, 32, 72
3, 64927, Note_on_c, 1, 29, 0
3, 65039, Note_on_c, 1, 37, 77
3, 65048, Note_on_c, 1, 32, 0
3, 65278, Note_on_c, 1, 39, 75
3, 65286, Note_on_c, 1, 37, 0
3, 65521, Note_on_c, 1, 39, 0
3, 65523, Note_on_c, 1, 36, 65
3, 65646, Note_on_c, 1, 43, 77
3, 65654, Note_on_c, 1, 36, 0
3, 65761, Note_on_c, 1, 29, 69
3, 65766, Note_on_c, 1, 43, 0
3, 65869, Note_on_c, 1, 29, 0
3, 65880, Note_on_c, 1, 29, 59
3, 65993, Note_on_c, 1, 29, 0
3, 65994, Note_on_c, 1, 34, 70
3, 66356, Note_on_c, 1, 46, 74
3, 66365, Note_on_c, 1, 34, 0
3, 66545, Note_on_c, 1, 34, 56
3, 66593, Note_on_c, 1, 34, 0
3, 66605, Note_on_c, 1, 34, 45
3, 66646, Note_on_c, 1, 34, 0
3, 66666, Note_on_c, 1, 46, 0
3, 66666, Note_on_c, 1, 34, 64
3, 66708, Note_on_c, 1, 34, 0
3, 66731, Note_on_c, 1, 45, 65
3, 66844, Note_on_c, 1, 33, 57
3, 66851, Note_on_c, 1, 45, 0
3, 66940, Note_on_c, 1, 37, 32
3, 66945, Note_on_c, 1, 33, 0
3, 66951, Note_on_c, 1, 37, 0
3, 66956, Note_on_c, 1, 38, 57
3, 67198, Note_on_c, 1, 38, 0
3, 67201, Note_on_c, 1, 31, 63
3, 67306, Note_on_c, 1, 37, 19
3, 67311, Note_on_c, 1, 31, 0
3, 67314, Note_on_c, 1, 37, 0
3, 67319, Note_on_c, 1, 41, 65
3, 67424, Note_on_c, 1, 41, 0
3, 67424, Note_on_c, 1, 37, 24
3, 67435, Note_on_c, 1, 37, 0
3, 67437, Note_on_c, 1, 40, 59
3, 67555, Note_on_c, 1, 40, 0
3, 67561, Note_on_c, 1, 33, 76
3, 67677, Note_on_c, 1, 33, 0
3, 67681, Note_on_c, 1, 32, 68
3, 67868, Note_on_c, 1, 44, 72
3, 67999, Note_on_c, 1, 32, 0
3, 68017, Note_on_c, 1, 32, 26
3, 68043, Note_on_c, 1, 32, 0
3, 68043, Note_on_c, 1, 46, 66
3, 68048, Note_on_c, 1, 44, 0
3, 68100, Note_on_c, 1, 46, 0
3, 68101, Note_on_c, 1, 44, 64
3, 68158, Note_on_c, 1, 44, 0
3, 68162, Note_on_c, 1, 43, 52
3, 68377, Note_on_c, 1, 37, 46
3, 68381, Note_on_c, 1, 43, 0
3, 68392, Note_on_c, 1, 37, 0
3, 68401, Note_on_c, 1, 36, 47
3, 68493, Note_on_c, 1, 36, 0
3, 68502, Note_on_c, 1, 36, 56
3, 68513, Note_on_c, 1, 36, 0
3, 68524, Note_on_c, 1, 48, 77
3, 68581, Note_on_c, 1, 48, 0
3, 68582, Note_on_c, 1, 40, 49
3, 68702, Note_on_c, 1, 44, 66
3, 68703, Note_on_c, 1, 40, 0
3, 68820, Note_on_c, 1, 32, 51
3, 68826, Note_on_c, 1, 44, 0
3, 68871, Note_on_c, 1, 32, 0
3, 68875, Note_on_c, 1, 37, 59
3, 68996, Note_on_c, 1, 53, 30
3, 69100, Note_on_c, 1, 38, 42
3, 69104, Note_on_c, 1, 37, 0
3, 69115, Note_on_c, 1, 38, 0
3, 69118, Note_on_c, 1, 53, 0
3, 69121, Note_on_c, 1, 39, 53
3, 69352, Note_on_c, 1, 39, 0
3, 69358, Note_on_c, 1, 36, 49
3, 69480, Note_on_c, 1, 48, 72
3, 69486, Note_on_c, 1, 36, 0
3, 69512, Note_on_c, 1, 48, 0
3, 69520, Note_on_c, 1, 36, 40
3, 69533, Note_on_c, 1, 36, 0
3, 69540, Note_on_c, 1, 42, 56
3, 69655, Note_on_c, 1, 42, 0
3, 69662, Note_on_c, 1, 41, 40
3, 69777, Note_on_c, 1, 41, 0
3, 69778, Note_on_c, 1, 36, 46
3, 69834, Note_on_c, 1, 36, 0
3, 69839, Note_on_c, 1, 34, 38
3, 69955, Note_on_c, 1, 46, 63
3, 69970, Note_on_c, 1, 34, 0
3, 70080, Note_on_c, 1, 34, 56
3, 70083, Note_on_c, 1, 46, 0
3, 70137, Note_on_c, 1, 34, 0
3, 70144, Note_on_c, 1, 34, 69
3, 70264, Note_on_c, 1, 46, 77
3, 70339, Note_on_c, 1, 34, 0
3, 70383, Note_on_c, 1, 34, 73
3, 70406, Note_on_c, 1, 46, 0
3, 70443, Note_on_c, 1, 46, 72
3, 70482, Note_on_c, 1, 46, 0
3, 70503, Note_on_c, 1, 46, 73
3, 70550, Note_on_c, 1, 46, 0
3, 70561, Note_on_c, 1, 45, 85
3, 70570, Note_on_c, 1, 34, 0
3, 70740, Note_on_c, 1, 33, 43
3, 70742, Note_on_c, 1, 45, 0
3, 70797, Note_on_c, 1, 38, 51
3, 70798, Note_on_c, 1, 33, 0
3, 71021, Note_on_c, 1, 38, 0
3, 71036, Note_on_c, 1, 43, 70
3, 71145, Note_on_c, 1, 39, 25
3, 71149, Note_on_c, 1, 43, 0
3, 71161, Note_on_c, 1, 39, 0
3, 71161, Note_on_c, 1, 41, 57
3, 71282, Note_on_c, 1, 41, 0
3, 71286, Note_on_c, 1, 39, 33
3, 71449, Note_on_c, 1, 39, 0
3, 71458, Note_on_c, 1, 39, 51
3, 71518, Note_on_c, 1, 32, 39
3, 71531, Note_on_c, 1, 39, 0
3, 71633, Note_on_c, 1, 44, 66
3, 71656, Note_on_c, 1, 32, 0
3, 71818, Note_on_c, 1, 44, 0
3, 71821, Note_on_c, 1, 45, 69
3, 71880, Note_on_c, 1, 45, 0
3, 71880, Note_on_c, 1, 38, 70
3, 71934, Note_on_c, 1, 38, 0
3, 71940, Note_on_c, 1, 38, 72
3, 71998, Note_on_c, 1, 38, 0
3, 71999, Note_on_c, 1, 43, 72
3, 72219, Note_on_c, 1, 37, 37
3, 72220, Note_on_c, 1, 43, 0
3, 72233, Note_on_c, 1, 37, 0
3, 72238, Note_on_c, 1, 36, 46
3, 72340, Note_on_c, 1, 41, 20
3, 72346, Note_on_c, 1, 41, 0
3, 72356, Note_on_c, 1, 36, 0
3, 72358, Note_on_c, 1, 48, 51
3, 72453, Note_on_c, 1, 43, 28
3, 72460, Note_on_c, 1, 48, 0
3, 72467, Note_on_c, 1, 43, 0
3, 72476, Note_on_c, 1, 44, 45
3, 72600, Note_on_c, 1, 32, 56
3, 72637, Note_on_c, 1, 44, 0
3, 72722, Note_on_c, 1, 37, 60
3, 72726, Note_on_c, 1, 32, 0
3, 72903, Note_on_c, 1, 38, 73
3, 72910, Note_on_c, 1, 37, 0
3, 72959, Note_on_c, 1, 39, 69
3, 72966, Note_on_c, 1, 38, 0
3, 73194, Note_on_c, 1, 48, 73
3, 73205, Note_on_c, 1, 39, 0
3, 73315, Note_on_c, 1, 36, 63
3, 73316, Note_on_c, 1, 48, 0
3, 73441, Note_on_c, 1, 41, 69
3, 73445, Note_on_c, 1, 36, 0
3, 73624, Note_on_c, 1, 35, 78
3, 73630, Note_on_c, 1, 41, 0
3, 73736, Note_on_c, 1, 35, 0
3, 73742, Note_on_c, 1, 34, 60
3, 73807, Note_on_c, 1, 46, 76
3, 73857, Note_on_c, 1, 46, 0
3, 73864, Note_on_c, 1, 46, 64
3, 73879, Note_on_c, 1, 34, 0
3, 73924, Note_on_c, 1, 39, 60
3, 73930, Note_on_c, 1, 46, 0
3, 74036, Note_on_c, 1, 39, 0
3, 74041, Note_on_c, 1, 34, 63
3, 74163, Note_on_c, 1, 46, 69
3, 74214, Note_on_c, 1, 46, 0
3, 74223, Note_on_c, 1, 46, 63
3, 74243, Note_on_c, 1, 34, 0
3, 74280, Note_on_c, 1, 34, 56
3, 74333, Note_on_c, 1, 34, 0
3, 74343, Note_on_c, 1, 34, 66
3, 74350, Note_on_c, 1, 46, 0
3, 74522, Note_on_c, 1, 46, 76
3, 74604, Note_on_c, 1, 34, 0
3, 74641, Note_on_c, 1, 34, 60
3, 74690, Note_on_c, 1, 34, 0
3, 74699, Note_on_c, 1, 34, 62
3, 74726, Note_on_c, 1, 46, 0
3, 74761, Note_on_c, 1, 46, 79
3, 74813, Note_on_c, 1, 46, 0
3, 74823, Note_on_c, 1, 46, 75
3, 74884, Note_on_c, 1, 34, 0
3, 75003, Note_on_c, 1, 34, 60
3, 75020, Note_on_c, 1, 46, 0
3, 75126, Note_on_c, 1, 46, 75
3, 75154, Note_on_c, 1, 46, 0
3, 75180, Note_on_c, 1, 46, 73
3, 75191, Note_on_c, 1, 34, 0
3, 75239, Note_on_c, 1, 34, 49
3, 75272, Note_on_c, 1, 34, 0
3, 75298, Note_on_c, 1, 34, 53
3, 75303, Note_on_c, 1, 46, 0
3, 75353, Note_on_c, 1, 43, 63
3, 75392, Note_on_c, 1, 34, 0
3, 75518, Note_on_c, 1, 34, 33
3, 75520, Note_on_c, 1, 43, 0
3, 75530, Note_on_c, 1, 34, 0
3, 75539, Note_on_c, 1, 35, 43
3, 75596, Note_on_c, 1, 35, 0
3, 75596, Note_on_c, 1, 36, 55
3, 75719, Note_on_c, 1, 48, 74
3, 75723, Note_on_c, 1, 36, 0
3, 75760, Note_on_c, 1, 34, 34
3, 75764, Note_on_c, 1, 48, 0
3, 75770, Note_on_c, 1, 34, 0
3, 75778, Note_on_c, 1, 42, 50
3, 75831, Note_on_c, 1, 42, 0
3, 75837, Note_on_c, 1, 41, 53
3, 75955, Note_on_c, 1, 33, 71
3, 75958, Note_on_c, 1, 41, 0
3, 76077, Note_on_c, 1, 34, 66
3, 76079, Note_on_c, 1, 33, 0
3, 76196, Note_on_c, 1, 47, 81
3, 76256, Note_on_c, 1, 34, 0
3, 76294, Note_on_c, 1, 33, 47
3, 76300, Note_on_c, 1, 33, 0
3, 76309, Note_on_c, 1, 47, 0
3, 76315, Note_on_c, 1, 46, 65
3, 76435, Note_on_c, 1, 34, 63
3, 76446, Note_on_c, 1, 46, 0
3, 76548, Note_on_c, 1, 34, 0
3, 76558, Note_on_c, 1, 34, 57
3, 76614, Note_on_c, 1, 34, 0
3, 76620, Note_on_c, 1, 34, 67
3, 76680, Note_on_c, 1, 46, 81
3, 76752, Note_on_c, 1, 34, 0
3, 76780, Note_on_c, 1, 34, 56
3, 76795, Note_on_c, 1, 34, 0
3, 76800, Note_on_c, 1, 46, 0
3, 76804, Note_on_c, 1, 33, 67
3, 76856, Note_on_c, 1, 33, 0
3, 76863, Note_on_c, 1, 33, 76
3, 77041, Note_on_c, 1, 33, 0
3, 77041, Note_on_c, 1, 38, 59
3, 77203, Note_on_c, 1, 34, 37
3, 77213, Note_on_c, 1, 38, 0
3, 77219, Note_on_c, 1, 34, 0
3, 77222, Note_on_c, 1, 44, 65
3, 77280, Note_on_c, 1, 44, 0
3, 77282, Note_on_c, 1, 43, 62
3, 77399, Note_on_c, 1, 31, 69
3, 77411, Note_on_c, 1, 43, 0
3, 77515, Note_on_c, 1, 31, 0
3, 77518, Note_on_c, 1, 30, 65
3, 77642, Note_on_c, 1, 42, 86
3, 77646, Note_on_c, 1, 44, 35
3, 77650, Note_on_c, 1, 44, 0
3, 77690, Note_on_c, 1, 30, 0
3, 77741, Note_on_c, 1, 30, 56
3, 77753, Note_on_c, 1, 42, 0
3, 77755, Note_on_c, 1, 30, 0
3, 77761, Note_on_c, 1, 41, 80
3, 77883, Note_on_c, 1, 29, 74
3, 77887, Note_on_c, 1, 41, 0
3, 77995, Note_on_c, 1, 29, 0
3, 78002, Note_on_c, 1, 28, 78
3, 78127, Note_on_c, 1, 40, 80
3, 78131, Note_on_c, 1, 28, 0
3, 78226, Note_on_c, 1, 32, 49
3, 78241, Note_on_c, 1, 32, 0
3, 78242, Note_on_c, 1, 40, 0
3, 78247, Note_on_c, 1, 33, 79
3, 78470, Note_on_c, 1, 32, 25
3, 78482, Note_on_c, 1, 38, 76
3, 78487, Note_on_c, 1, 33, 0
3, 78493, Note_on_c, 1, 32, 0
3, 78702, Note_on_c, 1, 39, 35
3, 78721, Note_on_c, 1, 43, 70
3, 78726, Note_on_c, 1, 39, 0
3, 78727, Note_on_c, 1, 38, 0
3, 78823, Note_on_c, 1, 39, 20
3, 78829, Note_on_c, 1, 43, 0
3, 78840, Note_on_c, 1, 39, 0
3, 78840, Note_on_c, 1, 41, 70
3, 78948, Note_on_c, 1, 41, 0
3, 78948, Note_on_c, 1, 37, 25
3, 78949, Note_on_c, 1, 39, 10
3, 78956, Note_on_c, 1, 39, 0
3, 78958, Note_on_c, 1, 37, 0
3, 78958, Note_on_c, 1, 40, 66
3, 79082, Note_on_c, 1, 40, 0
3, 79082, Note_on_c, 1, 33, 74
3, 79198, Note_on_c, 1, 33, 0
3, 79203, Note_on_c, 1, 32, 68
3, 79559, Note_on_c, 1, 32, 0
3, 79560, Note_on_c, 1, 46, 70
3, 79564, Note_on_c, 1, 39, 1
3, 79565, Note_on_c, 1, 34, 1
3, 79574, Note_on_c, 1, 39, 0
3, 79610, Note_on_c, 1, 46, 0
3, 79622, Note_on_c, 1, 44, 56
3, 79677, Note_on_c, 1, 44, 0
3, 79684, Note_on_c, 1, 43, 58
3, 79697, Note_on_c, 1, 34, 0
3, 79841, Note_on_c, 1, 37, 42
3, 79843, Note_on_c, 1, 43, 0
3, 79852, Note_on_c, 1, 37, 0
3, 79867, Note_on_c, 1, 35, 46
3, 79918, Note_on_c, 1, 35, 0
3, 79922, Note_on_c, 1, 36, 57
3, 80084, Note_on_c, 1, 34, 25
3, 80099, Note_on_c, 1, 34, 0
3, 80101, Note_on_c, 1, 36, 0
3, 80102, Note_on_c, 1, 45, 68
3, 80148, Note_on_c, 1, 36, 19
3, 80153, Note_on_c, 1, 36, 0
3, 80157, Note_on_c, 1, 45, 0
3, 80159, Note_on_c, 1, 44, 60
3, 80279, Note_on_c, 1, 32, 63
3, 80315, Note_on_c, 1, 44, 0
3, 80402, Note_on_c, 1, 37, 63
3, 80409, Note_on_c, 1, 32, 0
3, 80465, Note_on_c, 1, 53, 49
3, 80634, Note_on_c, 1, 53, 0
3, 80638, Note_on_c, 1, 37, 0
3, 80641, Note_on_c, 1, 39, 79
3, 80877, Note_on_c, 1, 39, 0
3, 80882, Note_on_c, 1, 36, 65
3, 80989, Note_on_c, 1, 34, 19
3, 81006, Note_on_c, 1, 48, 73
3, 81008, Note_on_c, 1, 36, 0
3, 81011, Note_on_c, 1, 34, 0
3, 81045, Note_on_c, 1, 48, 0
3, 81045, Note_on_c, 1, 36, 37
3, 81052, Note_on_c, 1, 36, 0
3, 81065, Note_on_c, 1, 42, 60
3, 81118, Note_on_c, 1, 42, 0
3, 81124, Note_on_c, 1, 41, 62
3, 81304, Note_on_c, 1, 34, 68
3, 81319, Note_on_c, 1, 41, 0
3, 81479, Note_on_c, 1, 46, 72
3, 81495, Note_on_c, 1, 34, 0
3, 81726, Note_on_c, 1, 34, 49
3, 81741, Note_on_c, 1, 46, 0
3, 81844, Note_on_c, 1, 46, 53
3, 81855, Note_on_c, 1, 34, 0
3, 81948, Note_on_c, 1, 46, 0
3, 81960, Note_on_c, 1, 46, 77
3, 82082, Note_on_c, 1, 39, 100
3, 82192, Note_on_c, 1, 46, 0
3, 82682, Note_on_c, 1, 39, 0
3, 82682, End_track
4, 0, Start_track
4, 0, Title_t, "Brush Kit"
4, 0, Program_c, 9, 40
4, 0, Control_c, 9, 7, 80
4, 51194, Note_on_c, 9, 46, 47
4, 51195, Note_on_c, 9, 59, 47
4, 51209, Note_on_c, 9, 46, 0
4, 51210, Note_on_c, 9, 59, 0
4, 51369, Note_on_c, 9, 59, 100
4, 51370, Note_on_c, 9, 38, 61
4, 51370, Note_on_c, 9, 40, 40
4, 51384, Note_on_c, 9, 59, 0
4, 51459, Note_on_c, 9, 40, 0
4, 51463, Note_on_c, 9, 38, 0
4, 51482, Note_on_c, 9, 44, 48
4, 51483, Note_on_c, 9, 40, 40
4, 51486, Note_on_c, 9, 38, 66
4, 51499, Note_on_c, 9, 44, 0
4, 51555, Note_on_c, 9, 40, 0
4, 51565, Note_on_c, 9, 38, 0
4, 51593, Note_on_c, 9, 40, 40
4, 51594, Note_on_c, 9, 38, 51
4, 51695, Note_on_c, 9, 40, 0
4, 51701, Note_on_c, 9, 38, 0
4, 51720, Note_on_c, 9, 38, 55
4, 51720, Note_on_c, 9, 40, 40
4, 51721, Note_on_c, 9, 44, 77
4, 51766, Note_on_c, 9, 44, 0
4, 51796, Note_on_c, 9, 38, 0
4, 51799, Note_on_c, 9, 39, 62
4, 51800, Note_on_c, 9, 40, 0
4, 51828, Note_on_c, 9, 39, 0
4, 51836, Note_on_c, 9, 38, 44
4, 51836, Note_on_c, 9, 40, 40
4, 51940, Note_on_c, 9, 40, 0
4, 51947, Note_on_c, 9, 38, 0
4, 51965, Note_on_c, 9, 44, 73
4, 51966, Note_on_c, 9, 40, 40
4, 51967, Note_on_c, 9, 38, 57
4, 52004, Note_on_c, 9, 44, 0
4, 52052, Note_on_c, 9, 40, 0
4, 52059, Note_on_c, 9, 38, 0
4, 52078, Note_on_c, 9, 40, 40
4, 52079, Note_on_c, 9, 38, 45
4, 52171, Note_on_c, 9, 40, 0
4, 52177, Note_on_c, 9, 38, 0
4, 52196, Note_on_c, 9, 38, 45
4, 52197, Note_on_c, 9, 40, 40
4, 52202, Note_on_c, 9, 46, 49
4, 52216, Note_on_c, 9, 46, 0
4, 52301, Note_on_c, 9, 40, 0
4, 52305, Note_on_c, 9, 38, 0
4, 52322, Note_on_c, 9, 40, 36
4, 52323, Note_on_c, 9, 38, 51
4, 52413, Note_on_c, 9, 40, 0
4, 52416, Note_on_c, 9, 38, 0
4, 52441, Note_on_c, 9, 38, 40
4, 52441, Note_on_c, 9, 40, 36
4, 52444, Note_on_c, 9, 44, 51
4, 52458, Note_on_c, 9, 44, 0
4, 52534, Note_on_c, 9, 40, 0
4, 52541, Note_on_c, 9, 38, 0
4, 52562, Note_on_c, 9, 40, 40
4, 52564, Note_on_c, 9, 38, 58
4, 52648, Note_on_c, 9, 40, 0
4, 52657, Note_on_c, 9, 38, 0
4, 52676, Note_on_c, 9, 38, 41
4, 52676, Note_on_c, 9, 40, 40
4, 52687, Note_on_c, 9, 44, 56
4, 52702, Note_on_c, 9, 44, 0
4, 52756, Note_on_c, 9, 40, 0
4, 52757, Note_on_c, 9, 38, 0
4, 52758, Note_on_c, 9, 39, 63
4, 52788, Note_on_c, 9, 39, 0
4, 52792, Note_on_c, 9, 38, 43
4, 52793, Note_on_c, 9, 40, 40
4, 52870, Note_on_c, 9, 40, 0
4, 52871, Note_on_c, 9, 38, 0
4, 52878, Note_on_c, 9, 39, 57
4, 52918, Note_on_c, 9, 39, 0
4, 52919, Note_on_c, 9, 40, 40
4, 52920, Note_on_c, 9, 38, 46
4, 52923, Note_on_c, 9, 44, 60
4, 52940, Note_on_c, 9, 44, 0
4, 53020, Note_on_c, 9, 40, 0
4, 53028, Note_on_c, 9, 38, 0
4, 53044, Note_on_c, 9, 38, 42
4, 53044, Note_on_c, 9, 40, 40
4, 53134, Note_on_c, 9, 40, 0
4, 53141, Note_on_c, 9, 38, 0
4, 53161, Note_on_c, 9, 38, 49
4, 53162, Note_on_c, 9, 40, 40
4, 53172, Note_on_c, 9, 44, 56
4, 53196, Note_on_c, 9, 44, 0
4, 53197, Note_on_c, 9, 38, 0
4, 53199, Note_on_c, 9, 40, 0
4, 53199, Note_on_c, 9, 39, 57
4, 53226, Note_on_c, 9, 39, 0
4, 53235, Note_on_c, 9, 38, 51
4, 53261, Note_on_c, 9, 38, 0
4, 53274, Note_on_c, 9, 40, 40
4, 53277, Note_on_c, 9, 38, 60
4, 53366, Note_on_c, 9, 40, 0
4, 53372, Note_on_c, 9, 38, 0
4, 53399, Note_on_c, 9, 38, 44
4, 53399, Note_on_c, 9, 40, 40
4, 53403, Note_on_c, 9, 44, 45
4, 53425, Note_on_c, 9, 44, 0
4, 53489, Note_on_c, 9, 40, 0
4, 53492, Note_on_c, 9, 38, 0
4, 53519, Note_on_c, 9, 38, 48
4, 53520, Note_on_c, 9, 40, 40
4, 53621, Note_on_c, 9, 40, 0
4, 53625, Note_on_c, 9, 38, 0
4, 53643, Note_on_c, 9, 40, 40
4, 53644, Note_on_c, 9, 38, 46
4, 53648, Note_on_c, 9, 44, 51
4, 53677, Note_on_c, 9, 44, 0
4, 53714, Note_on_c, 9, 40, 0
4, 53715, Note_on_c, 9, 38, 0
4, 53728, Note_on_c, 9, 38, 56
4, 53744, Note_on_c, 9, 38, 0
4, 53764, Note_on_c, 9, 38, 56
4, 53766, Note_on_c, 9, 40, 40
4, 53861, Note_on_c, 9, 40, 0
4, 53866, Note_on_c, 9, 38, 0
4, 53883, Note_on_c, 9, 38, 40
4, 53883, Note_on_c, 9, 40, 40
4, 53890, Note_on_c, 9, 44, 54
4, 53908, Note_on_c, 9, 44, 0
4, 53944, Note_on_c, 9, 38, 0
4, 53963, Note_on_c, 9, 38, 60
4, 53969, Note_on_c, 9, 40, 0
4, 53984, Note_on_c, 9, 38, 0
4, 53997, Note_on_c, 9, 40, 35
4, 53999, Note_on_c, 9, 38, 60
4, 54059, Note_on_c, 9, 38, 0
4, 54077, Note_on_c, 9, 40, 0
4, 54082, Note_on_c, 9, 38, 62
4, 54107, Note_on_c, 9, 38, 0
4, 54120, Note_on_c, 9, 38, 32
4, 54124, Note_on_c, 9, 40, 28
4, 54128, Note_on_c, 9, 44, 47
4, 54151, Note_on_c, 9, 44, 0
4, 54156, Note_on_c, 9, 38, 0
4, 54157, Note_on_c, 9, 40, 0
4, 54189, Note_on_c, 9, 39, 62
4, 54228, Note_on_c, 9, 39, 0
4, 54236, Note_on_c, 9, 38, 41
4, 54236, Note_on_c, 9, 40, 36
4, 54326, Note_on_c, 9, 40, 0
4, 54337, Note_on_c, 9, 38, 0
4, 54357, Note_on_c, 9, 44, 51
4, 54361, Note_on_c, 9, 38, 44
4, 54361, Note_on_c, 9, 40, 40
4, 54391, Note_on_c, 9, 44, 0
4, 54455, Note_on_c, 9, 40, 0
4, 54460, Note_on_c, 9, 38, 0
4, 54481, Note_on_c, 9, 40, 40
4, 54482, Note_on_c, 9, 38, 44
4, 54519, Note_on_c, 9, 38, 0
4, 54519, Note_on_c, 9, 39, 53
4, 54520, Note_on_c, 9, 40, 0
4, 54547, Note_on_c, 9, 39, 0
4, 54558, Note_on_c, 9, 38, 37
4, 54558, Note_on_c, 9, 40, 40
4, 54579, Note_on_c, 9, 40, 0
4, 54583, Note_on_c, 9, 38, 0
4, 54597, Note_on_c, 9, 40, 40
4, 54598, Note_on_c, 9, 44, 42
4, 54599, Note_on_c, 9, 38, 51
4, 54628, Note_on_c, 9, 44, 0
4, 54668, Note_on_c, 9, 40, 0
4, 54669, Note_on_c, 9, 38, 0
4, 54684, Note_on_c, 9, 38, 55
4, 54684, Note_on_c, 9, 40, 40
4, 54707, Note_on_c, 9, 40, 0
4, 54709, Note_on_c, 9, 38, 0
4, 54724, Note_on_c, 9, 40, 39
4, 54726, Note_on_c, 9, 38, 48
4, 54810, Note_on_c, 9, 40, 0
4, 54815, Note_on_c, 9, 38, 0
4, 54838, Note_on_c, 9, 38, 51
4, 54838, Note_on_c, 9, 40, 40
4, 54841, Note_on_c, 9, 44, 63
4, 54869, Note_on_c, 9, 44, 0
4, 54916, Note_on_c, 9, 38, 0
4, 54918, Note_on_c, 9, 39, 65
4, 54922, Note_on_c, 9, 40, 0
4, 54952, Note_on_c, 9, 39, 0
4, 54958, Note_on_c, 9, 38, 36
4, 54958, Note_on_c, 9, 40, 32
4, 55046, Note_on_c, 9, 40, 0
4, 55057, Note_on_c, 9, 38, 0
4, 55080, Note_on_c, 9, 38, 47
4, 55080, Note_on_c, 9, 40, 40
4, 55084, Note_on_c, 9, 44, 52
4, 55112, Note_on_c, 9, 44, 0
4, 55172, Note_on_c, 9, 40, 0
4, 55178, Note_on_c, 9, 38, 0
4, 55202, Note_on_c, 9, 40, 40
4, 55203, Note_on_c, 9, 38, 52
4, 55290, Note_on_c, 9, 40, 0
4, 55298, Note_on_c, 9, 38, 0
4, 55321, Note_on_c, 9, 38, 49
4, 55321, Note_on_c, 9, 40, 40
4, 55331, Note_on_c, 9, 44, 60
4, 55358, Note_on_c, 9, 44, 0
4, 55414, Note_on_c, 9, 40, 0
4, 55419, Note_on_c, 9, 38, 0
4, 55440, Note_on_c, 9, 40, 40
4, 55442, Note_on_c, 9, 38, 54
4, 55516, Note_on_c, 9, 38, 0
4, 55521, Note_on_c, 9, 40, 0
4, 55521, Note_on_c, 9, 39, 56
4, 55558, Note_on_c, 9, 39, 0
4, 55560, Note_on_c, 9, 44, 64
4, 55562, Note_on_c, 9, 38, 49
4, 55562, Note_on_c, 9, 40, 38
4, 55594, Note_on_c, 9, 44, 0
4, 55626, Note_on_c, 9, 40, 0
4, 55631, Note_on_c, 9, 38, 0
4, 55648, Note_on_c, 9, 40, 40
4, 55649, Note_on_c, 9, 38, 64
4, 55673, Note_on_c, 9, 40, 0
4, 55676, Note_on_c, 9, 38, 0
4, 55690, Note_on_c, 9, 38, 55
4, 55690, Note_on_c, 9, 40, 40
4, 55778, Note_on_c, 9, 40, 0
4, 55784, Note_on_c, 9, 38, 0
4, 55800, Note_on_c, 9, 44, 52
4, 55803, Note_on_c, 9, 40, 40
4, 55804, Note_on_c, 9, 38, 55
4, 55832, Note_on_c, 9, 44, 0
4, 55891, Note_on_c, 9, 40, 0
4, 55895, Note_on_c, 9, 38, 0
4, 55919, Note_on_c, 9, 38, 50
4, 55920, Note_on_c, 9, 40, 40
4, 56018, Note_on_c, 9, 40, 0
4, 56022, Note_on_c, 9, 38, 0
4, 56039, Note_on_c, 9, 46, 32
4, 56041, Note_on_c, 9, 40, 40
4, 56042, Note_on_c, 9, 38, 54
4, 56059, Note_on_c, 9, 46, 0
4, 56092, Note_on_c, 9, 40, 0
4, 56094, Note_on_c, 9, 38, 0
4, 56120, Note_on_c, 9, 38, 64
4, 56136, Note_on_c, 9, 38, 0
4, 56156, Note_on_c, 9, 38, 54
4, 56156, Note_on_c, 9, 40, 40
4, 56244, Note_on_c, 9, 40, 0
4, 56249, Note_on_c, 9, 38, 0
4, 56275, Note_on_c, 9, 44, 52
4, 56278, Note_on_c, 9, 40, 40
4, 56279, Note_on_c, 9, 38, 46
4, 56298, Note_on_c, 9, 44, 0
4, 56343, Note_on_c, 9, 38, 0
4, 56348, Note_on_c, 9, 40, 0
4, 56359, Note_on_c, 9, 38, 68
4, 56387, Note_on_c, 9, 38, 0
4, 56401, Note_on_c, 9, 38, 50
4, 56401, Note_on_c, 9, 40, 40
4, 56494, Note_on_c, 9, 40, 0
4, 56497, Note_on_c, 9, 38, 0
4, 56519, Note_on_c, 9, 44, 47
4, 56520, Note_on_c, 9, 40, 40
4, 56521, Note_on_c, 9, 38, 53
4, 56534, Note_on_c, 9, 44, 0
4, 56559, Note_on_c, 9, 39, 63
4, 56560, Note_on_c, 9, 40, 0
4, 56561, Note_on_c, 9, 38, 0
4, 56589, Note_on_c, 9, 39, 0
4, 56595, Note_on_c, 9, 40, 40
4, 56596, Note_on_c, 9, 38, 39
4, 56620, Note_on_c, 9, 40, 0
4, 56625, Note_on_c, 9, 38, 0
4, 56641, Note_on_c, 9, 38, 55
4, 56641, Note_on_c, 9, 40, 40
4, 56670, Note_on_c, 9, 40, 0
4, 56676, Note_on_c, 9, 38, 0
4, 56680, Note_on_c, 9, 39, 58
4, 56708, Note_on_c, 9, 39, 0
4, 56715, Note_on_c, 9, 38, 35
4, 56716, Note_on_c, 9, 40, 40
4, 56739, Note_on_c, 9, 40, 0
4, 56744, Note_on_c, 9, 38, 0
4, 56759, Note_on_c, 9, 38, 46
4, 56759, Note_on_c, 9, 40, 40
4, 56760, Note_on_c, 9, 44, 48
4, 56791, Note_on_c, 9, 44, 0
4, 56858, Note_on_c, 9, 40, 0
4, 56863, Note_on_c, 9, 38, 0
4, 56883, Note_on_c, 9, 38, 50
4, 56883, Note_on_c, 9, 40, 40
4, 56972, Note_on_c, 9, 40, 0
4, 56979, Note_on_c, 9, 38, 0
4, 57002, Note_on_c, 9, 44, 57
4, 57005, Note_on_c, 9, 40, 40
4, 57007, Note_on_c, 9, 38, 52
4, 57040, Note_on_c, 9, 44, 0
4, 57074, Note_on_c, 9, 40, 0
4, 57075, Note_on_c, 9, 38, 0
4, 57089, Note_on_c, 9, 38, 61
4, 57109, Note_on_c, 9, 38, 0
4, 57123, Note_on_c, 9, 38, 51
4, 57124, Note_on_c, 9, 40, 40
4, 57215, Note_on_c, 9, 40, 0
4, 57222, Note_on_c, 9, 38, 0
4, 57245, Note_on_c, 9, 38, 54
4, 57245, Note_on_c, 9, 40, 40
4, 57246, Note_on_c, 9, 44, 63
4, 57276, Note_on_c, 9, 44, 0
4, 57330, Note_on_c, 9, 40, 0
4, 57332, Note_on_c, 9, 38, 0
4, 57368, Note_on_c, 9, 38, 56
4, 57369, Note_on_c, 9, 40, 39
4, 57461, Note_on_c, 9, 40, 0
4, 57464, Note_on_c, 9, 38, 0
4, 57485, Note_on_c, 9, 40, 40
4, 57485, Note_on_c, 9, 44, 55
4, 57486, Note_on_c, 9, 38, 50
4, 57515, Note_on_c, 9, 44, 0
4, 57542, Note_on_c, 9, 40, 0
4, 57543, Note_on_c, 9, 38, 0
4, 57543, Note_on_c, 9, 39, 61
4, 57564, Note_on_c, 9, 39, 0
4, 57601, Note_on_c, 9, 38, 51
4, 57602, Note_on_c, 9, 40, 40
4, 57640, Note_on_c, 9, 40, 0
4, 57640, Note_on_c, 9, 38, 0
4, 57665, Note_on_c, 9, 38, 54
4, 57665, Note_on_c, 9, 40, 40
4, 57711, Note_on_c, 9, 40, 0
4, 57714, Note_on_c, 9, 38, 0
4, 57723, Note_on_c, 9, 44, 56
4, 57727, Note_on_c, 9, 40, 40
4, 57728, Note_on_c, 9, 38, 64
4, 57763, Note_on_c, 9, 44, 0
4, 57779, Note_on_c, 9, 38, 0
4, 57779, Note_on_c, 9, 40, 0
4, 57787, Note_on_c, 9, 39, 53
4, 57833, Note_on_c, 9, 39, 0
4, 57843, Note_on_c, 9, 38, 47
4, 57843, Note_on_c, 9, 40, 40
4, 57928, Note_on_c, 9, 40, 0
4, 57934, Note_on_c, 9, 38, 0
4, 57957, Note_on_c, 9, 40, 40
4, 57959, Note_on_c, 9, 38, 49
4, 57963, Note_on_c, 9, 44, 58
4, 58020, Note_on_c, 9, 44, 0
4, 58048, Note_on_c, 9, 40, 0
4, 58057, Note_on_c, 9, 38, 0
4, 58077, Note_on_c, 9, 40, 40
4, 58078, Note_on_c, 9, 38, 56
4, 58174, Note_on_c, 9, 40, 0
4, 58180, Note_on_c, 9, 38, 0
4, 58202, Note_on_c, 9, 40, 40
4, 58203, Note_on_c, 9, 38, 53
4, 58207, Note_on_c, 9, 44, 67
4, 58236, Note_on_c, 9, 44, 0
4, 58255, Note_on_c, 9, 40, 0
4, 58258, Note_on_c, 9, 38, 0
4, 58259, Note_on_c, 9, 39, 51
4, 58283, Note_on_c, 9, 39, 0
4, 58295, Note_on_c, 9, 38, 57
4, 58309, Note_on_c, 9, 38, 0
4, 58325, Note_on_c, 9, 40, 36
4, 58327, Note_on_c, 9, 38, 54
4, 58373, Note_on_c, 9, 38, 0
4, 58373, Note_on_c, 9, 40, 0
4, 58389, Note_on_c, 9, 38, 40
4, 58389, Note_on_c, 9, 40, 40
4, 58441, Note_on_c, 9, 38, 0
4, 58445, Note_on_c, 9, 40, 0
4, 58445, Note_on_c, 9, 39, 55
4, 58446, Note_on_c, 9, 44, 59
4, 58480, Note_on_c, 9, 39, 0
4, 58483, Note_on_c, 9, 40, 40
4, 58485, Note_on_c, 9, 38, 60
4, 58487, Note_on_c, 9, 44, 0
4, 58526, Note_on_c, 9, 38, 0
4, 58527, Note_on_c, 9, 40, 0
4, 58545, Note_on_c, 9, 38, 50
4, 58547, Note_on_c, 9, 40, 40
4, 58555, Note_on_c, 9, 40, 0
4, 58556, Note_on_c, 9, 38, 0
4, 58569, Note_on_c, 9, 40, 37
4, 58570, Note_on_c, 9, 38, 49
4, 58654, Note_on_c, 9, 40, 0
4, 58659, Note_on_c, 9, 38, 0
4, 58676, Note_on_c, 9, 40, 40
4, 58677, Note_on_c, 9, 38, 42
4, 58680, Note_on_c, 9, 44, 56
4, 58716, Note_on_c, 9, 44, 0
4, 58779, Note_on_c, 9, 40, 0
4, 58785, Note_on_c, 9, 38, 0
4, 58800, Note_on_c, 9, 40, 38
4, 58802, Note_on_c, 9, 38, 38
4, 58899, Note_on_c, 9, 40, 0
4, 58907, Note_on_c, 9, 38, 0
4, 58923, Note_on_c, 9, 38, 36
4, 58923, Note_on_c, 9, 40, 40
4, 58923, Note_on_c, 9, 44, 63
4, 58961, Note_on_c, 9, 44, 0
4, 58962, Note_on_c, 9, 38, 0
4, 58962, Note_on_c, 9, 39, 67
4, 58965, Note_on_c, 9, 40, 0
4, 58981, Note_on_c, 9, 39, 0
4, 58988, Note_on_c, 9, 38, 28
4, 58991, Note_on_c, 9, 40, 36
4, 59011, Note_on_c, 9, 40, 0
4, 59015, Note_on_c, 9, 38, 0
4, 59048, Note_on_c, 9, 40, 40
4, 59049, Note_on_c, 9, 38, 55
4, 59142, Note_on_c, 9, 40, 0
4, 59149, Note_on_c, 9, 38, 0
4, 59161, Note_on_c, 9, 44, 60
4, 59166, Note_on_c, 9, 40, 40
4, 59167, Note_on_c, 9, 38, 48
4, 59235, Note_on_c, 9, 38, 0
4, 59239, Note_on_c, 9, 40, 0
4, 59250, Note_on_c, 9, 44, 0
4, 59252, Note_on_c, 9, 38, 45
4, 59254, Note_on_c, 9, 36, 44
4, 59260, Note_on_c, 9, 36, 0
4, 59264, Note_on_c, 9, 38, 0
4, 59282, Note_on_c, 9, 38, 56
4, 59282, Note_on_c, 9, 40, 40
4, 59372, Note_on_c, 9, 40, 0
4, 59373, Note_on_c, 9, 38, 0
4, 59400, Note_on_c, 9, 38, 53
4, 59400, Note_on_c, 9, 40, 40
4, 59405, Note_on_c, 9, 44, 55
4, 59421, Note_on_c, 9, 44, 0
4, 59432, Note_on_c, 9, 40, 0
4, 59436, Note_on_c, 9, 38, 0
4, 59439, Note_on_c, 9, 39, 64
4, 59489, Note_on_c, 9, 39, 0
4, 59502, Note_on_c, 9, 38, 45
4, 59503, Note_on_c, 9, 40, 30
4, 59510, Note_on_c, 9, 40, 0
4, 59511, Note_on_c, 9, 38, 0
4, 59527, Note_on_c, 9, 38, 55
4, 59527, Note_on_c, 9, 40, 40
4, 59582, Note_on_c, 9, 44, 59
4, 59601, Note_on_c, 9, 44, 0
4, 59612, Note_on_c, 9, 40, 0
4, 59618, Note_on_c, 9, 38, 0
4, 59640, Note_on_c, 9, 40, 40
4, 59641, Note_on_c, 9, 38, 55
4, 59699, Note_on_c, 9, 44, 61
4, 59717, Note_on_c, 9, 44, 0
4, 59734, Note_on_c, 9, 40, 0
4, 59739, Note_on_c, 9, 38, 0
4, 59757, Note_on_c, 9, 40, 40
4, 59759, Note_on_c, 9, 38, 54
4, 59851, Note_on_c, 9, 40, 0
4, 59855, Note_on_c, 9, 38, 0
4, 59877, Note_on_c, 9, 44, 48
4, 59880, Note_on_c, 9, 40, 40
4, 59881, Note_on_c, 9, 38, 47
4, 59917, Note_on_c, 9, 44, 0
4, 59971, Note_on_c, 9, 40, 0
4, 59973, Note_on_c, 9, 38, 0
4, 59978, Note_on_c, 9, 39, 55
4, 59993, Note_on_c, 9, 39, 0
4, 60002, Note_on_c, 9, 40, 40
4, 60003, Note_on_c, 9, 38, 48
4, 60049, Note_on_c, 9, 40, 0
4, 60053, Note_on_c, 9, 38, 0
4, 60070, Note_on_c, 9, 40, 40
4, 60071, Note_on_c, 9, 38, 45
4, 60103, Note_on_c, 9, 40, 0
4, 60108, Note_on_c, 9, 38, 0
4, 60130, Note_on_c, 9, 44, 67
4, 60132, Note_on_c, 9, 40, 40
4, 60133, Note_on_c, 9, 38, 43
4, 60151, Note_on_c, 9, 44, 0
4, 60166, Note_on_c, 9, 40, 0
4, 60168, Note_on_c, 9, 38, 0
4, 60170, Note_on_c, 9, 39, 65
4, 60186, Note_on_c, 9, 39, 0
4, 60193, Note_on_c, 9, 40, 40
4, 60194, Note_on_c, 9, 38, 43
4, 60222, Note_on_c, 9, 40, 0
4, 60230, Note_on_c, 9, 38, 0
4, 60248, Note_on_c, 9, 38, 53
4, 60248, Note_on_c, 9, 40, 40
4, 60301, Note_on_c, 9, 44, 50
4, 60320, Note_on_c, 9, 44, 0
4, 60336, Note_on_c, 9, 40, 0
4, 60340, Note_on_c, 9, 38, 0
4, 60359, Note_on_c, 9, 40, 40
4, 60361, Note_on_c, 9, 38, 46
4, 60417, Note_on_c, 9, 44, 57
4, 60439, Note_on_c, 9, 44, 0
4, 60451, Note_on_c, 9, 40, 0
4, 60457, Note_on_c, 9, 38, 0
4, 60482, Note_on_c, 9, 40, 40
4, 60484, Note_on_c, 9, 38, 54
4, 60568, Note_on_c, 9, 40, 0
4, 60574, Note_on_c, 9, 38, 0
4, 60597, Note_on_c, 9, 44, 47
4, 60598, Note_on_c, 9, 40, 40
4, 60600, Note_on_c, 9, 38, 44
4, 60626, Note_on_c, 9, 40, 0
4, 60630, Note_on_c, 9, 44, 0
4, 60631, Note_on_c, 9, 38, 0
4, 60636, Note_on_c, 9, 39, 58
4, 60656, Note_on_c, 9, 39, 0
4, 60662, Note_on_c, 9, 38, 30
4, 60663, Note_on_c, 9, 40, 33
4, 60682, Note_on_c, 9, 40, 0
4, 60687, Note_on_c, 9, 38, 0
4, 60719, Note_on_c, 9, 40, 40
4, 60720, Note_on_c, 9, 38, 54
4, 60751, Note_on_c, 9, 40, 0
4, 60755, Note_on_c, 9, 38, 0
4, 60781, Note_on_c, 9, 40, 40
4, 60783, Note_on_c, 9, 38, 49
4, 60814, Note_on_c, 9, 40, 0
4, 60818, Note_on_c, 9, 38, 0
4, 60843, Note_on_c, 9, 44, 64
4, 60845, Note_on_c, 9, 38, 35
4, 60845, Note_on_c, 9, 40, 28
4, 60876, Note_on_c, 9, 44, 0
4, 60882, Note_on_c, 9, 40, 0
4, 60887, Note_on_c, 9, 38, 0
4, 60904, Note_on_c, 9, 40, 40
4, 60905, Note_on_c, 9, 38, 55
4, 60943, Note_on_c, 9, 40, 0
4, 60948, Note_on_c, 9, 38, 0
4, 60964, Note_on_c, 9, 40, 33
4, 60966, Note_on_c, 9, 38, 45
4, 61019, Note_on_c, 9, 40, 0
4, 61020, Note_on_c, 9, 38, 0
4, 61032, Note_on_c, 9, 40, 40
4, 61033, Note_on_c, 9, 38, 74
4, 61075, Note_on_c, 9, 40, 0
4, 61078, Note_on_c, 9, 38, 0
4, 61088, Note_on_c, 9, 44, 55
4, 61091, Note_on_c, 9, 40, 32
4, 61093, Note_on_c, 9, 38, 45
4, 61103, Note_on_c, 9, 44, 0
4, 61123, Note_on_c, 9, 40, 0
4, 61129, Note_on_c, 9, 38, 0
4, 61150, Note_on_c, 9, 40, 40
4, 61151, Note_on_c, 9, 38, 65
4, 61189, Note_on_c, 9, 40, 0
4, 61195, Note_on_c, 9, 38, 0
4, 61210, Note_on_c, 9, 40, 40
4, 61211, Note_on_c, 9, 38, 51
4, 61261, Note_on_c, 9, 40, 0
4, 61269, Note_on_c, 9, 39, 67
4, 61271, Note_on_c, 9, 38, 0
4, 61305, Note_on_c, 9, 39, 0
4, 61311, Note_on_c, 9, 40, 40
4, 61313, Note_on_c, 9, 38, 50
4, 61323, Note_on_c, 9, 40, 0
4, 61326, Note_on_c, 9, 38, 0
4, 61327, Note_on_c, 9, 44, 53
4, 61334, Note_on_c, 9, 40, 37
4, 61337, Note_on_c, 9, 38, 57
4, 61342, Note_on_c, 9, 44, 0
4, 61371, Note_on_c, 9, 40, 0
4, 61376, Note_on_c, 9, 38, 0
4, 61389, Note_on_c, 9, 40, 35
4, 61390, Note_on_c, 9, 38, 58
4, 61417, Note_on_c, 9, 40, 0
4, 61420, Note_on_c, 9, 38, 0
4, 61443, Note_on_c, 9, 38, 53
4, 61443, Note_on_c, 9, 40, 40
4, 61483, Note_on_c, 9, 40, 0
4, 61485, Note_on_c, 9, 38, 0
4, 61502, Note_on_c, 9, 40, 40
4, 61504, Note_on_c, 9, 38, 53
4, 61561, Note_on_c, 9, 44, 61
4, 61580, Note_on_c, 9, 44, 0
4, 61602, Note_on_c, 9, 40, 0
4, 61606, Note_on_c, 9, 38, 0
4, 61624, Note_on_c, 9, 38, 53
4, 61624, Note_on_c, 9, 40, 40
4, 61658, Note_on_c, 9, 40, 0
4, 61661, Note_on_c, 9, 38, 0
4, 61685, Note_on_c, 9, 38, 47
4, 61685, Note_on_c, 9, 40, 40
4, 61747, Note_on_c, 9, 39, 60
4, 61750, Note_on_c, 9, 40, 0
4, 61752, Note_on_c, 9, 38, 0
4, 61795, Note_on_c, 9, 39, 0
4, 61804, Note_on_c, 9, 44, 69
4, 61806, Note_on_c, 9, 38, 45
4, 61806, Note_on_c, 9, 40, 40
4, 61823, Note_on_c, 9, 44, 0
4, 61842, Note_on_c, 9, 40, 0
4, 61846, Note_on_c, 9, 38, 0
4, 61866, Note_on_c, 9, 38, 55
4, 61866, Note_on_c, 9, 40, 40
4, 61880, Note_on_c, 9, 40, 0
4, 61885, Note_on_c, 9, 38, 0
4, 61926, Note_on_c, 9, 38, 59
4, 61927, Note_on_c, 9, 40, 40
4, 62019, Note_on_c, 9, 40, 0
4, 62024, Note_on_c, 9, 38, 0
4, 62041, Note_on_c, 9, 44, 42
4, 62041, Note_on_c, 9, 59, 69
4, 62048, Note_on_c, 9, 59, 0
4, 62050, Note_on_c, 9, 40, 40
4, 62052, Note_on_c, 9, 38, 48
4, 62064, Note_on_c, 9, 44, 0
4, 62105, Note_on_c, 9, 40, 0
4, 62113, Note_on_c, 9, 38, 0
4, 62113, Note_on_c, 9, 39, 49
4, 62131, Note_on_c, 9, 39, 0
4, 62145, Note_on_c, 9, 39, 56
4, 62162, Note_on_c, 9, 39, 0
4, 62171, Note_on_c, 9, 40, 40
4, 62172, Note_on_c, 9, 38, 54
4, 62261, Note_on_c, 9, 38, 0
4, 62261, Note_on_c, 9, 40, 0
4, 62285, Note_on_c, 9, 40, 40
4, 62286, Note_on_c, 9, 38, 54
4, 62286, Note_on_c, 9, 59, 73
4, 62286, Note_on_c, 9, 44, 57
4, 62297, Note_on_c, 9, 59, 0
4, 62308, Note_on_c, 9, 44, 0
4, 62378, Note_on_c, 9, 40, 0
4, 62383, Note_on_c, 9, 38, 0
4, 62405, Note_on_c, 9, 40, 40
4, 62407, Note_on_c, 9, 38, 54
4, 62447, Note_on_c, 9, 38, 0
4, 62447, Note_on_c, 9, 40, 0
4, 62467, Note_on_c, 9, 40, 40
4, 62478, Note_on_c, 9, 38, 63
4, 62528, Note_on_c, 9, 59, 67
4, 62530, Note_on_c, 9, 44, 56
4, 62533, Note_on_c, 9, 59, 0
4, 62548, Note_on_c, 9, 44, 0
4, 62556, Note_on_c, 9, 40, 0
4, 62557, Note_on_c, 9, 38, 0
4, 62583, Note_on_c, 9, 40, 40
4, 62584, Note_on_c, 9, 38, 57
4, 62607, Note_on_c, 9, 38, 0
4, 62607, Note_on_c, 9, 40, 0
4, 62645, Note_on_c, 9, 38, 44
4, 62645, Note_on_c, 9, 40, 40
4, 62724, Note_on_c, 9, 40, 0
4, 62737, Note_on_c, 9, 38, 0
4, 62739, Note_on_c, 9, 39, 53
4, 62746, Note_on_c, 9, 44, 51
4, 62752, Note_on_c, 9, 44, 0
4, 62753, Note_on_c, 9, 39, 0
4, 62766, Note_on_c, 9, 40, 40
4, 62767, Note_on_c, 9, 38, 41
4, 62768, Note_on_c, 9, 44, 65
4, 62790, Note_on_c, 9, 38, 0
4, 62790, Note_on_c, 9, 40, 0
4, 62814, Note_on_c, 9, 44, 0
4, 62826, Note_on_c, 9, 40, 38
4, 62827, Note_on_c, 9, 38, 44
4, 62839, Note_on_c, 9, 40, 0
4, 62842, Note_on_c, 9, 38, 0
4, 62885, Note_on_c, 9, 59, 64
4, 62889, Note_on_c, 9, 40, 39
4, 62890, Note_on_c, 9, 38, 40
4, 62891, Note_on_c, 9, 59, 0
4, 62905, Note_on_c, 9, 40, 0
4, 62937, Note_on_c, 9, 38, 0
4, 63005, Note_on_c, 9, 44, 69
4, 63012, Note_on_c, 9, 40, 40
4, 63013, Note_on_c, 9, 38, 46
4, 63040, Note_on_c, 9, 44, 0
4, 63045, Note_on_c, 9, 40, 0
4, 63049, Note_on_c, 9, 38, 0
4, 63054, Note_on_c, 9, 39, 55
4, 63067, Note_on_c, 9, 39, 0
4, 63072, Note_on_c, 9, 40, 40
4, 63076, Note_on_c, 9, 38, 44
4, 63104, Note_on_c, 9, 40, 0
4, 63109, Note_on_c, 9, 38, 0
4, 63129, Note_on_c, 9, 40, 40
4, 63130, Note_on_c, 9, 38, 57
4, 63214, Note_on_c, 9, 40, 0
4, 63218, Note_on_c, 9, 38, 0
4, 63245, Note_on_c, 9, 40, 40
4, 63245, Note_on_c, 9, 44, 62
4, 63246, Note_on_c, 9, 38, 48
4, 63276, Note_on_c, 9, 44, 0
4, 63333, Note_on_c, 9, 40, 0
4, 63340, Note_on_c, 9, 38, 0
4, 63363, Note_on_c, 9, 40, 40
4, 63365, Note_on_c, 9, 38, 44
4, 63457, Note_on_c, 9, 38, 0
4, 63457, Note_on_c, 9, 40, 0
4, 63482, Note_on_c, 9, 40, 40
4, 63484, Note_on_c, 9, 38, 48
4, 63487, Note_on_c, 9, 44, 64
4, 63519, Note_on_c, 9, 44, 0
4, 63552, Note_on_c, 9, 38, 0
4, 63556, Note_on_c, 9, 40, 0
4, 63573, Note_on_c, 9, 38, 48
4, 63584, Note_on_c, 9, 38, 0
4, 63599, Note_on_c, 9, 40, 40
4, 63601, Note_on_c, 9, 38, 47
4, 63691, Note_on_c, 9, 40, 0
4, 63696, Note_on_c, 9, 38, 0
4, 63720, Note_on_c, 9, 38, 44
4, 63720, Note_on_c, 9, 40, 36
4, 63723, Note_on_c, 9, 44, 62
4, 63755, Note_on_c, 9, 44, 0
4, 63811, Note_on_c, 9, 40, 0
4, 63813, Note_on_c, 9, 38, 0
4, 63836, Note_on_c, 9, 40, 38
4, 63837, Note_on_c, 9, 38, 53
4, 63926, Note_on_c, 9, 40, 0
4, 63928, Note_on_c, 9, 38, 0
4, 63956, Note_on_c, 9, 44, 71
4, 63959, Note_on_c, 9, 38, 53
4, 63960, Note_on_c, 9, 40, 40
4, 63977, Note_on_c, 9, 38, 0
4, 63977, Note_on_c, 9, 44, 0
4, 63994, Note_on_c, 9, 38, 58
4, 64049, Note_on_c, 9, 38, 0
4, 64050, Note_on_c, 9, 40, 0
4, 64074, Note_on_c, 9, 40, 40
4, 64076, Note_on_c, 9, 38, 53
4, 64116, Note_on_c, 9, 38, 0
4, 64117, Note_on_c, 9, 40, 0
4, 64117, Note_on_c, 9, 39, 52
4, 64132, Note_on_c, 9, 39, 0
4, 64141, Note_on_c, 9, 40, 40
4, 64145, Note_on_c, 9, 38, 40
4, 64174, Note_on_c, 9, 40, 0
4, 64181, Note_on_c, 9, 38, 0
4, 64199, Note_on_c, 9, 46, 44
4, 64203, Note_on_c, 9, 38, 48
4, 64204, Note_on_c, 9, 40, 40
4, 64209, Note_on_c, 9, 46, 0
4, 64239, Note_on_c, 9, 40, 0
4, 64246, Note_on_c, 9, 38, 0
4, 64264, Note_on_c, 9, 38, 49
4, 64264, Note_on_c, 9, 40, 40
4, 64308, Note_on_c, 9, 40, 0
4, 64311, Note_on_c, 9, 38, 0
4, 64327, Note_on_c, 9, 40, 40
4, 64328, Note_on_c, 9, 38, 51
4, 64420, Note_on_c, 9, 40, 0
4, 64426, Note_on_c, 9, 38, 0
4, 64440, Note_on_c, 9, 44, 59
4, 64447, Note_on_c, 9, 40, 40
4, 64448, Note_on_c, 9, 38, 56
4, 64473, Note_on_c, 9, 44, 0
4, 64539, Note_on_c, 9, 40, 0
4, 64542, Note_on_c, 9, 38, 0
4, 64565, Note_on_c, 9, 40, 40
4, 64566, Note_on_c, 9, 38, 51
4, 64623, Note_on_c, 9, 40, 0
4, 64627, Note_on_c, 9, 38, 0
4, 64627, Note_on_c, 9, 39, 59
4, 64644, Note_on_c, 9, 39, 0
4, 64664, Note_on_c, 9, 39, 45
4, 64680, Note_on_c, 9, 39, 0
4, 64684, Note_on_c, 9, 38, 39
4, 64684, Note_on_c, 9, 40, 40
4, 64684, Note_on_c, 9, 44, 62
4, 64717, Note_on_c, 9, 44, 0
4, 64742, Note_on_c, 9, 40, 0
4, 64746, Note_on_c, 9, 38, 0
4, 64754, Note_on_c, 9, 40, 40
4, 64757, Note_on_c, 9, 38, 62
4, 64799, Note_on_c, 9, 40, 0
4, 64802, Note_on_c, 9, 38, 0
4, 64814, Note_on_c, 9, 40, 40
4, 64817, Note_on_c, 9, 38, 60
4, 64898, Note_on_c, 9, 40, 0
4, 64905, Note_on_c, 9, 38, 0
4, 64921, Note_on_c, 9, 38, 46
4, 64921, Note_on_c, 9, 40, 40
4, 64925, Note_on_c, 9, 44, 54
4, 64957, Note_on_c, 9, 44, 0
4, 65020, Note_on_c, 9, 40, 0
4, 65025, Note_on_c, 9, 38, 0
4, 65041, Note_on_c, 9, 40, 40
4, 65042, Note_on_c, 9, 38, 51
4, 65133, Note_on_c, 9, 40, 0
4, 65138, Note_on_c, 9, 38, 0
4, 65160, Note_on_c, 9, 40, 40
4, 65161, Note_on_c, 9, 38, 57
4, 65164, Note_on_c, 9, 44, 68
4, 65198, Note_on_c, 9, 44, 0
4, 65201, Note_on_c, 9, 40, 0
4, 65203, Note_on_c, 9, 38, 0
4, 65205, Note_on_c, 9, 39, 61
4, 65227, Note_on_c, 9, 39, 0
4, 65231, Note_on_c, 9, 40, 40
4, 65233, Note_on_c, 9, 38, 38
4, 65260, Note_on_c, 9, 40, 0
4, 65266, Note_on_c, 9, 38, 0
4, 65284, Note_on_c, 9, 40, 40
4, 65285, Note_on_c, 9, 38, 60
4, 65371, Note_on_c, 9, 40, 0
4, 65374, Note_on_c, 9, 38, 0
4, 65403, Note_on_c, 9, 44, 60
4, 65405, Note_on_c, 9, 40, 40
4, 65406, Note_on_c, 9, 38, 53
4, 65432, Note_on_c, 9, 38, 0
4, 65439, Note_on_c, 9, 44, 0
4, 65447, Note_on_c, 9, 38, 62
4, 65463, Note_on_c, 9, 38, 0
4, 65503, Note_on_c, 9, 38, 57
4, 65507, Note_on_c, 9, 40, 0
4, 65509, Note_on_c, 9, 38, 0
4, 65527, Note_on_c, 9, 40, 40
4, 65528, Note_on_c, 9, 38, 62
4, 65571, Note_on_c, 9, 40, 0
4, 65576, Note_on_c, 9, 38, 0
4, 65590, Note_on_c, 9, 38, 53
4, 65593, Note_on_c, 9, 40, 33
4, 65602, Note_on_c, 9, 40, 0
4, 65605, Note_on_c, 9, 38, 0
4, 65649, Note_on_c, 9, 44, 60
4, 65653, Note_on_c, 9, 40, 40
4, 65654, Note_on_c, 9, 38, 46
4, 65686, Note_on_c, 9, 44, 0
4, 65687, Note_on_c, 9, 38, 0
4, 65693, Note_on_c, 9, 40, 0
4, 65706, Note_on_c, 9, 40, 38
4, 65707, Note_on_c, 9, 38, 72
4, 65717, Note_on_c, 9, 40, 0
4, 65734, Note_on_c, 9, 38, 0
4, 65767, Note_on_c, 9, 38, 47
4, 65767, Note_on_c, 9, 40, 40
4, 65796, Note_on_c, 9, 40, 0
4, 65799, Note_on_c, 9, 38, 0
4, 65823, Note_on_c, 9, 38, 53
4, 65823, Note_on_c, 9, 40, 40
4, 65850, Note_on_c, 9, 40, 0
4, 65851, Note_on_c, 9, 38, 0
4, 65885, Note_on_c, 9, 38, 32
4, 65887, Note_on_c, 9, 44, 65
4, 65888, Note_on_c, 9, 40, 40
4, 65909, Note_on_c, 9, 38, 0
4, 65910, Note_on_c, 9, 40, 0
4, 65917, Note_on_c, 9, 44, 0
4, 65942, Note_on_c, 9, 38, 68
4, 65943, Note_on_c, 9, 40, 40
4, 65967, Note_on_c, 9, 40, 0
4, 65969, Note_on_c, 9, 38, 0
4, 65998, Note_on_c, 9, 38, 32
4, 66023, Note_on_c, 9, 38, 0
4, 66058, Note_on_c, 9, 38, 55
4, 66058, Note_on_c, 9, 40, 40
4, 66090, Note_on_c, 9, 38, 0
4, 66093, Note_on_c, 9, 40, 0
4, 66120, Note_on_c, 9, 44, 64
4, 66122, Note_on_c, 9, 40, 33
4, 66123, Note_on_c, 9, 38, 31
4, 66132, Note_on_c, 9, 40, 0
4, 66138, Note_on_c, 9, 38, 0
4, 66151, Note_on_c, 9, 44, 0
4, 66180, Note_on_c, 9, 38, 50
4, 66180, Note_on_c, 9, 40, 40
4, 66208, Note_on_c, 9, 40, 0
4, 66209, Note_on_c, 9, 38, 0
4, 66238, Note_on_c, 9, 40, 39
4, 66240, Note_on_c, 9, 38, 39
4, 66267, Note_on_c, 9, 40, 0
4, 66269, Note_on_c, 9, 38, 0
4, 66277, Note_on_c, 9, 39, 56
4, 66294, Note_on_c, 9, 39, 0
4, 66300, Note_on_c, 9, 38, 34
4, 66302, Note_on_c, 9, 40, 36
4, 66324, Note_on_c, 9, 40, 0
4, 66332, Note_on_c, 9, 38, 0
4, 66337, Note_on_c, 9, 44, 60
4, 66356, Note_on_c, 9, 38, 53
4, 66357, Note_on_c, 9, 44, 0
4, 66357, Note_on_c, 9, 40, 40
4, 66362, Note_on_c, 9, 59, 71
4, 66406, Note_on_c, 9, 38, 0
4, 66412, Note_on_c, 9, 40, 0
4, 66449, Note_on_c, 9, 59, 0
4, 66483, Note_on_c, 9, 38, 47
4, 66485, Note_on_c, 9, 40, 40
4, 66489, Note_on_c, 9, 59, 87
4, 66516, Note_on_c, 9, 40, 0
4, 66518, Note_on_c, 9, 38, 0
4, 66539, Note_on_c, 9, 40, 40
4, 66541, Note_on_c, 9, 38, 46
4, 66557, Note_on_c, 9, 40, 0
4, 66566, Note_on_c, 9, 38, 0
4, 66569, Note_on_c, 9, 59, 0
4, 66599, Note_on_c, 9, 38, 51
4, 66600, Note_on_c, 9, 40, 40
4, 66608, Note_on_c, 9, 59, 91
4, 66635, Note_on_c, 9, 40, 0
4, 66638, Note_on_c, 9, 38, 0
4, 66658, Note_on_c, 9, 40, 40
4, 66661, Note_on_c, 9, 38, 64
4, 66674, Note_on_c, 9, 40, 0
4, 66674, Note_on_c, 9, 59, 0
4, 66680, Note_on_c, 9, 38, 0
4, 66720, Note_on_c, 9, 38, 44
4, 66720, Note_on_c, 9, 40, 36
4, 66720, Note_on_c, 9, 59, 90
4, 66729, Note_on_c, 9, 59, 0
4, 66742, Note_on_c, 9, 40, 0
4, 66742, Note_on_c, 9, 38, 0
4, 66780, Note_on_c, 9, 40, 40
4, 66780, Note_on_c, 9, 44, 47
4, 66782, Note_on_c, 9, 38, 44
4, 66794, Note_on_c, 9, 44, 0
4, 66806, Note_on_c, 9, 38, 0
4, 66815, Note_on_c, 9, 40, 0
4, 66819, Note_on_c, 9, 39, 57
4, 66836, Note_on_c, 9, 39, 0
4, 66842, Note_on_c, 9, 40, 33
4, 66843, Note_on_c, 9, 38, 45
4, 66874, Note_on_c, 9, 38, 0
4, 66874, Note_on_c, 9, 40, 0
4, 66896, Note_on_c, 9, 44, 42
4, 66899, Note_on_c, 9, 40, 29
4, 66901, Note_on_c, 9, 38, 40
4, 66914, Note_on_c, 9, 44, 0
4, 66916, Note_on_c, 9, 38, 0
4, 66916, Note_on_c, 9, 40, 0
4, 66956, Note_on_c, 9, 38, 40
4, 66956, Note_on_c, 9, 40, 36
4, 66979, Note_on_c, 9, 40, 0
4, 66979, Note_on_c, 9, 38, 0
4, 67015, Note_on_c, 9, 38, 38
4, 67015, Note_on_c, 9, 40, 34
4, 67017, Note_on_c, 9, 44, 44
4, 67036, Note_on_c, 9, 44, 0
4, 67038, Note_on_c, 9, 40, 0
4, 67038, Note_on_c, 9, 38, 0
4, 67074, Note_on_c, 9, 40, 35
4, 67075, Note_on_c, 9, 38, 44
4, 67095, Note_on_c, 9, 40, 0
4, 67096, Note_on_c, 9, 38, 0
4, 67134, Note_on_c, 9, 40, 40
4, 67134, Note_on_c, 9, 46, 49
4, 67135, Note_on_c, 9, 38, 48
4, 67147, Note_on_c, 9, 46, 0
4, 67163, Note_on_c, 9, 38, 0
4, 67167, Note_on_c, 9, 40, 0
4, 67172, Note_on_c, 9, 39, 57
4, 67172, Note_on_c, 9, 36, 45
4, 67177, Note_on_c, 9, 36, 0
4, 67185, Note_on_c, 9, 39, 0
4, 67193, Note_on_c, 9, 38, 50
4, 67193, Note_on_c, 9, 40, 37
4, 67217, Note_on_c, 9, 40, 0
4, 67221, Note_on_c, 9, 38, 0
4, 67253, Note_on_c, 9, 44, 44
4, 67255, Note_on_c, 9, 40, 37
4, 67256, Note_on_c, 9, 38, 46
4, 67268, Note_on_c, 9, 44, 0
4, 67275, Note_on_c, 9, 38, 0
4, 67278, Note_on_c, 9, 40, 0
4, 67314, Note_on_c, 9, 38, 45
4, 67314, Note_on_c, 9, 40, 37
4, 67336, Note_on_c, 9, 38, 0
4, 67357, Note_on_c, 9, 38, 63
4, 67360, Note_on_c, 9, 40, 0
4, 67362, Note_on_c, 9, 38, 0
4, 67376, Note_on_c, 9, 44, 38
4, 67377, Note_on_c, 9, 38, 46
4, 67379, Note_on_c, 9, 40, 40
4, 67396, Note_on_c, 9, 44, 0
4, 67414, Note_on_c, 9, 40, 0
4, 67416, Note_on_c, 9, 38, 0
4, 67436, Note_on_c, 9, 38, 43
4, 67436, Note_on_c, 9, 40, 34
4, 67456, Note_on_c, 9, 38, 0
4, 67461, Note_on_c, 9, 40, 0
4, 67478, Note_on_c, 9, 38, 57
4, 67483, Note_on_c, 9, 38, 0
4, 67496, Note_on_c, 9, 38, 57
4, 67498, Note_on_c, 9, 40, 40
4, 67500, Note_on_c, 9, 44, 48
4, 67522, Note_on_c, 9, 44, 0
4, 67532, Note_on_c, 9, 40, 0
4, 67533, Note_on_c, 9, 38, 0
4, 67559, Note_on_c, 9, 38, 50
4, 67559, Note_on_c, 9, 40, 40
4, 67588, Note_on_c, 9, 40, 0
4, 67588, Note_on_c, 9, 38, 0
4, 67621, Note_on_c, 9, 44, 38
4, 67624, Note_on_c, 9, 38, 53
4, 67624, Note_on_c, 9, 40, 40
4, 67640, Note_on_c, 9, 44, 0
4, 67656, Note_on_c, 9, 40, 0
4, 67656, Note_on_c, 9, 38, 0
4, 67656, Note_on_c, 9, 39, 50
4, 67661, Note_on_c, 9, 39, 0
4, 67665, Note_on_c, 9, 39, 57
4, 67678, Note_on_c, 9, 39, 0
4, 67684, Note_on_c, 9, 40, 40
4, 67686, Note_on_c, 9, 38, 46
4, 67716, Note_on_c, 9, 40, 0
4, 67719, Note_on_c, 9, 36, 53
4, 67723, Note_on_c, 9, 38, 0
4, 67728, Note_on_c, 9, 36, 0
4, 67741, Note_on_c, 9, 44, 37
4, 67749, Note_on_c, 9, 38, 41
4, 67749, Note_on_c, 9, 40, 34
4, 67760, Note_on_c, 9, 44, 0
4, 67766, Note_on_c, 9, 38, 0
4, 67769, Note_on_c, 9, 40, 0
4, 67805, Note_on_c, 9, 40, 40
4, 67806, Note_on_c, 9, 38, 37
4, 67806, Note_on_c, 9, 36, 44
4, 67813, Note_on_c, 9, 36, 0
4, 67836, Note_on_c, 9, 38, 0
4, 67836, Note_on_c, 9, 40, 0
4, 67843, Note_on_c, 9, 39, 53
4, 67857, Note_on_c, 9, 39, 0
4, 67861, Note_on_c, 9, 44, 45
4, 67864, Note_on_c, 9, 38, 45
4, 67865, Note_on_c, 9, 40, 28
4, 67877, Note_on_c, 9, 44, 0
4, 67891, Note_on_c, 9, 40, 0
4, 67897, Note_on_c, 9, 38, 0
4, 67919, Note_on_c, 9, 40, 40
4, 67920, Note_on_c, 9, 38, 38
4, 67949, Note_on_c, 9, 38, 0
4, 67949, Note_on_c, 9, 40, 0
4, 67959, Note_on_c, 9, 39, 54
4, 67970, Note_on_c, 9, 39, 0
4, 67977, Note_on_c, 9, 40, 34
4, 67978, Note_on_c, 9, 38, 50
4, 67978, Note_on_c, 9, 44, 45
4, 67990, Note_on_c, 9, 44, 0
4, 68008, Note_on_c, 9, 40, 0
4, 68014, Note_on_c, 9, 38, 0
4, 68039, Note_on_c, 9, 40, 37
4, 68040, Note_on_c, 9, 38, 40
4, 68064, Note_on_c, 9, 38, 0
4, 68066, Note_on_c, 9, 40, 0
4, 68098, Note_on_c, 9, 40, 40
4, 68098, Note_on_c, 9, 46, 35
4, 68099, Note_on_c, 9, 38, 48
4, 68105, Note_on_c, 9, 46, 0
4, 68123, Note_on_c, 9, 38, 0
4, 68125, Note_on_c, 9, 40, 0
4, 68157, Note_on_c, 9, 40, 33
4, 68158, Note_on_c, 9, 38, 35
4, 68188, Note_on_c, 9, 40, 0
4, 68190, Note_on_c, 9, 38, 0
4, 68218, Note_on_c, 9, 40, 37
4, 68218, Note_on_c, 9, 44, 37
4, 68219, Note_on_c, 9, 38, 41
4, 68233, Note_on_c, 9, 44, 0
4, 68245, Note_on_c, 9, 38, 0
4, 68246, Note_on_c, 9, 40, 0
4, 68278, Note_on_c, 9, 40, 39
4, 68280, Note_on_c, 9, 38, 40
4, 68306, Note_on_c, 9, 38, 0
4, 68308, Note_on_c, 9, 40, 0
4, 68314, Note_on_c, 9, 47, 53
4, 68317, Note_on_c, 9, 39, 44
4, 68320, Note_on_c, 9, 47, 0
4, 68327, Note_on_c, 9, 39, 0
4, 68335, Note_on_c, 9, 38, 32
4, 68335, Note_on_c, 9, 40, 29
4, 68337, Note_on_c, 9, 44, 42
4, 68344, Note_on_c, 9, 36, 22
4, 68348, Note_on_c, 9, 44, 0
4, 68348, Note_on_c, 9, 38, 0
4, 68348, Note_on_c, 9, 40, 0
4, 68351, Note_on_c, 9, 36, 0
4, 68376, Note_on_c, 9, 40, 40
4, 68378, Note_on_c, 9, 38, 42
4, 68383, Note_on_c, 9, 38, 0
4, 68384, Note_on_c, 9, 40, 0
4, 68398, Note_on_c, 9, 38, 50
4, 68398, Note_on_c, 9, 36, 36
4, 68399, Note_on_c, 9, 40, 22
4, 68407, Note_on_c, 9, 36, 0
4, 68428, Note_on_c, 9, 40, 0
4, 68429, Note_on_c, 9, 38, 0
4, 68456, Note_on_c, 9, 40, 40
4, 68457, Note_on_c, 9, 38, 51
4, 68460, Note_on_c, 9, 44, 35
4, 68469, Note_on_c, 9, 44, 0
4, 68491, Note_on_c, 9, 40, 0
4, 68492, Note_on_c, 9, 38, 0
4, 68518, Note_on_c, 9, 40, 40
4, 68519, Note_on_c, 9, 38, 42
4, 68546, Note_on_c, 9, 40, 0
4, 68547, Note_on_c, 9, 38, 0
4, 68557, Note_on_c, 9, 39, 47
4, 68557, Note_on_c, 9, 36, 49
4, 68564, Note_on_c, 9, 36, 0
4, 68569, Note_on_c, 9, 39, 0
4, 68576, Note_on_c, 9, 40, 40
4, 68577, Note_on_c, 9, 38, 44
4, 68577, Note_on_c, 9, 44, 42
4, 68589, Note_on_c, 9, 44, 0
4, 68601, Note_on_c, 9, 40, 0
4, 68604, Note_on_c, 9, 38, 0
4, 68619, Note_on_c, 9, 38, 54
4, 68620, Note_on_c, 9, 40, 40
4, 68626, Note_on_c, 9, 40, 0
4, 68627, Note_on_c, 9, 38, 0
4, 68640, Note_on_c, 9, 38, 51
4, 68640, Note_on_c, 9, 40, 34
4, 68641, Note_on_c, 9, 36, 35
4, 68648, Note_on_c, 9, 36, 0
4, 68672, Note_on_c, 9, 40, 0
4, 68673, Note_on_c, 9, 38, 0
4, 68697, Note_on_c, 9, 44, 37
4, 68699, Note_on_c, 9, 38, 52
4, 68699, Note_on_c, 9, 40, 40
4, 68710, Note_on_c, 9, 44, 0
4, 68724, Note_on_c, 9, 38, 0
4, 68725, Note_on_c, 9, 40, 0
4, 68736, Note_on_c, 9, 39, 49
4, 68747, Note_on_c, 9, 39, 0
4, 68753, Note_on_c, 9, 40, 40
4, 68754, Note_on_c, 9, 38, 49
4, 68796, Note_on_c, 9, 40, 0
4, 68799, Note_on_c, 9, 38, 0
4, 68815, Note_on_c, 9, 44, 44
4, 68817, Note_on_c, 9, 40, 40
4, 68819, Note_on_c, 9, 38, 48
4, 68825, Note_on_c, 9, 44, 0
4, 68844, Note_on_c, 9, 38, 0
4, 68844, Note_on_c, 9, 40, 0
4, 68854, Note_on_c, 9, 39, 57
4, 68866, Note_on_c, 9, 39, 0
4, 68875, Note_on_c, 9, 40, 35
4, 68876, Note_on_c, 9, 38, 36
4, 68906, Note_on_c, 9, 40, 0
4, 68910, Note_on_c, 9, 38, 0
4, 68937, Note_on_c, 9, 44, 46
4, 68939, Note_on_c, 9, 40, 39
4, 68940, Note_on_c, 9, 38, 46
4, 68950, Note_on_c, 9, 44, 0
4, 68966, Note_on_c, 9, 40, 0
4, 68967, Note_on_c, 9, 38, 0
4, 68998, Note_on_c, 9, 38, 47
4, 68998, Note_on_c, 9, 40, 40
4, 69031, Note_on_c, 9, 40, 0
4, 69031, Note_on_c, 9, 38, 0
4, 69038, Note_on_c, 9, 36, 36
4, 69044, Note_on_c, 9, 36, 0
4, 69058, Note_on_c, 9, 40, 40
4, 69060, Note_on_c, 9, 38, 44
4, 69061, Note_on_c, 9, 44, 47
4, 69073, Note_on_c, 9, 44, 0
4, 69086, Note_on_c, 9, 38, 0
4, 69087, Note_on_c, 9, 40, 0
4, 69119, Note_on_c, 9, 38, 49
4, 69119, Note_on_c, 9, 40, 38
4, 69145, Note_on_c, 9, 38, 0
4, 69147, Note_on_c, 9, 40, 0
4, 69178, Note_on_c, 9, 40, 40
4, 69179, Note_on_c, 9, 38, 50
4, 69181, Note_on_c, 9, 44, 42
4, 69194, Note_on_c, 9, 44, 0
4, 69211, Note_on_c, 9, 38, 0
4, 69213, Note_on_c, 9, 40, 0
4, 69216, Note_on_c, 9, 36, 31
4, 69219, Note_on_c, 9, 39, 58
4, 69223, Note_on_c, 9, 36, 0
4, 69231, Note_on_c, 9, 39, 0
4, 69238, Note_on_c, 9, 40, 40
4, 69239, Note_on_c, 9, 38, 45
4, 69253, Note_on_c, 9, 40, 0
4, 69256, Note_on_c, 9, 38, 0
4, 69277, Note_on_c, 9, 39, 61
4, 69291, Note_on_c, 9, 39, 0
4, 69294, Note_on_c, 9, 40, 40
4, 69297, Note_on_c, 9, 38, 37
4, 69300, Note_on_c, 9, 44, 49
4, 69310, Note_on_c, 9, 40, 0
4, 69311, Note_on_c, 9, 44, 0
4, 69311, Note_on_c, 9, 38, 0
4, 69335, Note_on_c, 9, 38, 51
4, 69335, Note_on_c, 9, 40, 38
4, 69342, Note_on_c, 9, 40, 0
4, 69343, Note_on_c, 9, 38, 0
4, 69356, Note_on_c, 9, 40, 32
4, 69357, Note_on_c, 9, 38, 39
4, 69380, Note_on_c, 9, 40, 0
4, 69381, Note_on_c, 9, 38, 0
4, 69414, Note_on_c, 9, 40, 37
4, 69415, Note_on_c, 9, 38, 44
4, 69416, Note_on_c, 9, 44, 49
4, 69429, Note_on_c, 9, 44, 0
4, 69441, Note_on_c, 9, 38, 0
4, 69441, Note_on_c, 9, 40, 0
4, 69451, Note_on_c, 9, 39, 56
4, 69460, Note_on_c, 9, 39, 0
4, 69475, Note_on_c, 9, 40, 34
4, 69481, Note_on_c, 9, 40, 0
4, 69512, Note_on_c, 9, 38, 55
4, 69517, Note_on_c, 9, 38, 0
4, 69533, Note_on_c, 9, 46, 35
4, 69535, Note_on_c, 9, 39, 26
4, 69539, Note_on_c, 9, 46, 0
4, 69541, Note_on_c, 9, 39, 0
4, 69569, Note_on_c, 9, 39, 58
4, 69571, Note_on_c, 9, 36, 40
4, 69579, Note_on_c, 9, 39, 0
4, 69584, Note_on_c, 9, 36, 0
4, 69589, Note_on_c, 9, 38, 45
4, 69590, Note_on_c, 9, 40, 26
4, 69600, Note_on_c, 9, 36, 36
4, 69614, Note_on_c, 9, 40, 0
4, 69615, Note_on_c, 9, 36, 0
4, 69618, Note_on_c, 9, 38, 0
4, 69653, Note_on_c, 9, 40, 40
4, 69654, Note_on_c, 9, 44, 53
4, 69655, Note_on_c, 9, 38, 44
4, 69662, Note_on_c, 9, 44, 0
4, 69682, Note_on_c, 9, 38, 0
4, 69682, Note_on_c, 9, 40, 0
4, 69717, Note_on_c, 9, 38, 40
4, 69717, Note_on_c, 9, 40, 40
4, 69744, Note_on_c, 9, 40, 0
4, 69744, Note_on_c, 9, 38, 0
4, 69776, Note_on_c, 9, 44, 51
4, 69777, Note_on_c, 9, 40, 40
4, 69778, Note_on_c, 9, 38, 37
4, 69786, Note_on_c, 9, 44, 0
4, 69804, Note_on_c, 9, 38, 0
4, 69804, Note_on_c, 9, 40, 0
4, 69808, Note_on_c, 9, 36, 36
4, 69814, Note_on_c, 9, 36, 0
4, 69816, Note_on_c, 9, 39, 49
4, 69828, Note_on_c, 9, 39, 0
4, 69834, Note_on_c, 9, 40, 40
4, 69835, Note_on_c, 9, 38, 50
4, 69849, Note_on_c, 9, 40, 0
4, 69868, Note_on_c, 9, 38, 0
4, 69895, Note_on_c, 9, 44, 49
4, 69896, Note_on_c, 9, 38, 51
4, 69897, Note_on_c, 9, 40, 35
4, 69908, Note_on_c, 9, 44, 0
4, 69922, Note_on_c, 9, 40, 0
4, 69924, Note_on_c, 9, 38, 0
4, 69952, Note_on_c, 9, 38, 46
4, 69953, Note_on_c, 9, 40, 40
4, 69976, Note_on_c, 9, 38, 0
4, 69977, Note_on_c, 9, 40, 0
4, 70016, Note_on_c, 9, 38, 55
4, 70017, Note_on_c, 9, 40, 40
4, 70017, Note_on_c, 9, 44, 49
4, 70029, Note_on_c, 9, 44, 0
4, 70029, Note_on_c, 9, 40, 0
4, 70031, Note_on_c, 9, 38, 0
4, 70060, Note_on_c, 9, 38, 60
4, 70061, Note_on_c, 9, 40, 38
4, 70065, Note_on_c, 9, 38, 0
4, 70067, Note_on_c, 9, 40, 0
4, 70080, Note_on_c, 9, 38, 53
4, 70080, Note_on_c, 9, 40, 40
4, 70110, Note_on_c, 9, 40, 0
4, 70112, Note_on_c, 9, 38, 0
4, 70139, Note_on_c, 9, 38, 53
4, 70139, Note_on_c, 9, 40, 40
4, 70139, Note_on_c, 9, 44, 39
4, 70156, Note_on_c, 9, 44, 0
4, 70170, Note_on_c, 9, 40, 0
4, 70173, Note_on_c, 9, 38, 0
4, 70200, Note_on_c, 9, 38, 51
4, 70200, Note_on_c, 9, 40, 40
4, 70229, Note_on_c, 9, 38, 0
4, 70230, Note_on_c, 9, 40, 0
4, 70239, Note_on_c, 9, 39, 60
4, 70254, Note_on_c, 9, 39, 0
4, 70260, Note_on_c, 9, 37, 34
4, 70261, Note_on_c, 9, 44, 55
4, 70262, Note_on_c, 9, 38, 49
4, 70263, Note_on_c, 9, 40, 35
4, 70265, Note_on_c, 9, 37, 0
4, 70281, Note_on_c, 9, 44, 0
4, 70293, Note_on_c, 9, 40, 0
4, 70299, Note_on_c, 9, 38, 0
4, 70320, Note_on_c, 9, 40, 40
4, 70321, Note_on_c, 9, 38, 55
4, 70351, Note_on_c, 9, 40, 0
4, 70354, Note_on_c, 9, 38, 0
4, 70361, Note_on_c, 9, 39, 60
4, 70376, Note_on_c, 9, 39, 0
4, 70381, Note_on_c, 9, 38, 32
4, 70382, Note_on_c, 9, 40, 40
4, 70382, Note_on_c, 9, 44, 48
4, 70401, Note_on_c, 9, 44, 0
4, 70409, Note_on_c, 9, 40, 0
4, 70418, Note_on_c, 9, 38, 0
4, 70439, Note_on_c, 9, 38, 54
4, 70440, Note_on_c, 9, 40, 40
4, 70466, Note_on_c, 9, 40, 0
4, 70467, Note_on_c, 9, 38, 0
4, 70485, Note_on_c, 9, 36, 31
4, 70491, Note_on_c, 9, 36, 0
4, 70493, Note_on_c, 9, 44, 50
4, 70496, Note_on_c, 9, 38, 50
4, 70496, Note_on_c, 9, 40, 40
4, 70516, Note_on_c, 9, 44, 0
4, 70518, Note_on_c, 9, 38, 0
4, 70520, Note_on_c, 9, 40, 0
4, 70554, Note_on_c, 9, 38, 50
4, 70554, Note_on_c, 9, 40, 40
4, 70580, Note_on_c, 9, 40, 0
4, 70582, Note_on_c, 9, 38, 0
4, 70613, Note_on_c, 9, 44, 49
4, 70616, Note_on_c, 9, 38, 57
4, 70617, Note_on_c, 9, 40, 40
4, 70624, Note_on_c, 9, 40, 0
4, 70628, Note_on_c, 9, 38, 0
4, 70632, Note_on_c, 9, 44, 0
4, 70660, Note_on_c, 9, 38, 45
4, 70664, Note_on_c, 9, 38, 0
4, 70676, Note_on_c, 9, 38, 51
4, 70676, Note_on_c, 9, 40, 40
4, 70710, Note_on_c, 9, 40, 0
4, 70714, Note_on_c, 9, 38, 0
4, 70720, Note_on_c, 9, 36, 32
4, 70725, Note_on_c, 9, 36, 0
4, 70733, Note_on_c, 9, 44, 55
4, 70736, Note_on_c, 9, 40, 40
4, 70737, Note_on_c, 9, 38, 49
4, 70748, Note_on_c, 9, 44, 0
4, 70764, Note_on_c, 9, 38, 0
4, 70766, Note_on_c, 9, 40, 0
4, 70772, Note_on_c, 9, 39, 57
4, 70785, Note_on_c, 9, 39, 0
4, 70791, Note_on_c, 9, 40, 40
4, 70793, Note_on_c, 9, 38, 43
4, 70823, Note_on_c, 9, 40, 0
4, 70824, Note_on_c, 9, 38, 0
4, 70853, Note_on_c, 9, 44, 53
4, 70855, Note_on_c, 9, 38, 48
4, 70855, Note_on_c, 9, 40, 40
4, 70870, Note_on_c, 9, 44, 0
4, 70879, Note_on_c, 9, 40, 0
4, 70879, Note_on_c, 9, 38, 0
4, 70915, Note_on_c, 9, 38, 49
4, 70916, Note_on_c, 9, 40, 40
4, 70943, Note_on_c, 9, 40, 0
4, 70943, Note_on_c, 9, 38, 0
4, 70954, Note_on_c, 9, 39, 60
4, 70968, Note_on_c, 9, 39, 0
4, 70973, Note_on_c, 9, 44, 50
4, 70976, Note_on_c, 9, 40, 40
4, 70978, Note_on_c, 9, 38, 42
4, 70990, Note_on_c, 9, 44, 0
4, 71003, Note_on_c, 9, 40, 0
4, 71004, Note_on_c, 9, 38, 0
4, 71033, Note_on_c, 9, 59, 41
4, 71036, Note_on_c, 9, 38, 49
4, 71036, Note_on_c, 9, 40, 36
4, 71045, Note_on_c, 9, 59, 0
4, 71058, Note_on_c, 9, 40, 0
4, 71058, Note_on_c, 9, 38, 0
4, 71095, Note_on_c, 9, 38, 45
4, 71095, Note_on_c, 9, 40, 36
4, 71096, Note_on_c, 9, 44, 40
4, 71112, Note_on_c, 9, 44, 0
4, 71116, Note_on_c, 9, 38, 0
4, 71117, Note_on_c, 9, 40, 0
4, 71154, Note_on_c, 9, 38, 47
4, 71154, Note_on_c, 9, 40, 40
4, 71174, Note_on_c, 9, 40, 0
4, 71176, Note_on_c, 9, 38, 0
4, 71214, Note_on_c, 9, 38, 43
4, 71214, Note_on_c, 9, 40, 40
4, 71218, Note_on_c, 9, 44, 46
4, 71233, Note_on_c, 9, 44, 0
4, 71235, Note_on_c, 9, 40, 0
4, 71235, Note_on_c, 9, 38, 0
4, 71256, Note_on_c, 9, 36, 36
4, 71263, Note_on_c, 9, 36, 0
4, 71277, Note_on_c, 9, 38, 47
4, 71277, Note_on_c, 9, 40, 40
4, 71280, Note_on_c, 9, 36, 28
4, 71290, Note_on_c, 9, 36, 0
4, 71303, Note_on_c, 9, 38, 0
4, 71305, Note_on_c, 9, 40, 0
4, 71316, Note_on_c, 9, 39, 53
4, 71332, Note_on_c, 9, 39, 0
4, 71335, Note_on_c, 9, 44, 59
4, 71336, Note_on_c, 9, 40, 29
4, 71337, Note_on_c, 9, 38, 37
4, 71348, Note_on_c, 9, 44, 0
4, 71355, Note_on_c, 9, 40, 0
4, 71359, Note_on_c, 9, 38, 0
4, 71371, Note_on_c, 9, 36, 57
4, 71376, Note_on_c, 9, 40, 40
4, 71377, Note_on_c, 9, 36, 0
4, 71377, Note_on_c, 9, 38, 73
4, 71426, Note_on_c, 9, 40, 0
4, 71428, Note_on_c, 9, 38, 0
4, 71437, Note_on_c, 9, 39, 58
4, 71448, Note_on_c, 9, 39, 0
4, 71453, Note_on_c, 9, 46, 47
4, 71459, Note_on_c, 9, 38, 41
4, 71459, Note_on_c, 9, 40, 40
4, 71464, Note_on_c, 9, 46, 0
4, 71482, Note_on_c, 9, 40, 0
4, 71483, Note_on_c, 9, 38, 0
4, 71500, Note_on_c, 9, 38, 53
4, 71501, Note_on_c, 9, 40, 36
4, 71506, Note_on_c, 9, 40, 0
4, 71506, Note_on_c, 9, 38, 0
4, 71519, Note_on_c, 9, 40, 40
4, 71520, Note_on_c, 9, 38, 57
4, 71549, Note_on_c, 9, 40, 0
4, 71552, Note_on_c, 9, 38, 0
4, 71576, Note_on_c, 9, 44, 48
4, 71580, Note_on_c, 9, 38, 53
4, 71580, Note_on_c, 9, 40, 40
4, 71588, Note_on_c, 9, 44, 0
4, 71607, Note_on_c, 9, 40, 0
4, 71608, Note_on_c, 9, 38, 0
4, 71638, Note_on_c, 9, 38, 54
4, 71638, Note_on_c, 9, 40, 40
4, 71663, Note_on_c, 9, 40, 0
4, 71663, Note_on_c, 9, 38, 0
4, 71695, Note_on_c, 9, 44, 51
4, 71697, Note_on_c, 9, 40, 40
4, 71698, Note_on_c, 9, 38, 51
4, 71709, Note_on_c, 9, 40, 0
4, 71710, Note_on_c, 9, 44, 0
4, 71712, Note_on_c, 9, 38, 0
4, 71740, Note_on_c, 9, 38, 38
4, 71740, Note_on_c, 9, 40, 27
4, 71745, Note_on_c, 9, 40, 0
4, 71745, Note_on_c, 9, 38, 0
4, 71755, Note_on_c, 9, 40, 35
4, 71757, Note_on_c, 9, 38, 52
4, 71782, Note_on_c, 9, 40, 0
4, 71783, Note_on_c, 9, 38, 0
4, 71794, Note_on_c, 9, 39, 59
4, 71809, Note_on_c, 9, 39, 0
4, 71814, Note_on_c, 9, 40, 40
4, 71815, Note_on_c, 9, 38, 45
4, 71820, Note_on_c, 9, 44, 56
4, 71830, Note_on_c, 9, 38, 0
4, 71835, Note_on_c, 9, 40, 0
4, 71836, Note_on_c, 9, 44, 0
4, 71876, Note_on_c, 9, 38, 47
4, 71876, Note_on_c, 9, 40, 37
4, 71902, Note_on_c, 9, 40, 0
4, 71907, Note_on_c, 9, 38, 0
4, 71916, Note_on_c, 9, 39, 56
4, 71918, Note_on_c, 9, 36, 27
4, 71923, Note_on_c, 9, 36, 0
4, 71933, Note_on_c, 9, 39, 0
4, 71937, Note_on_c, 9, 40, 36
4, 71937, Note_on_c, 9, 44, 55
4, 71939, Note_on_c, 9, 38, 36
4, 71954, Note_on_c, 9, 44, 0
4, 71968, Note_on_c, 9, 40, 0
4, 71972, Note_on_c, 9, 38, 0
4, 71979, Note_on_c, 9, 44, 47
4, 71984, Note_on_c, 9, 44, 0
4, 71995, Note_on_c, 9, 40, 40
4, 71996, Note_on_c, 9, 38, 57
4, 72019, Note_on_c, 9, 38, 0
4, 72020, Note_on_c, 9, 40, 0
4, 72055, Note_on_c, 9, 44, 55
4, 72058, Note_on_c, 9, 40, 40
4, 72059, Note_on_c, 9, 38, 49
4, 72071, Note_on_c, 9, 44, 0
4, 72082, Note_on_c, 9, 38, 0
4, 72083, Note_on_c, 9, 40, 0
4, 72116, Note_on_c, 9, 38, 41
4, 72116, Note_on_c, 9, 40, 38
4, 72139, Note_on_c, 9, 40, 0
4, 72139, Note_on_c, 9, 38, 0
4, 72152, Note_on_c, 9, 36, 40
4, 72160, Note_on_c, 9, 36, 0
4, 72176, Note_on_c, 9, 44, 47
4, 72177, Note_on_c, 9, 38, 36
4, 72177, Note_on_c, 9, 40, 32
4, 72193, Note_on_c, 9, 44, 0
4, 72202, Note_on_c, 9, 38, 0
4, 72203, Note_on_c, 9, 40, 0
4, 72233, Note_on_c, 9, 40, 38
4, 72234, Note_on_c, 9, 38, 40
4, 72255, Note_on_c, 9, 38, 0
4, 72263, Note_on_c, 9, 40, 0
4, 72276, Note_on_c, 9, 40, 24
4, 72278, Note_on_c, 9, 38, 64
4, 72283, Note_on_c, 9, 38, 0
4, 72287, Note_on_c, 9, 40, 0
4, 72298, Note_on_c, 9, 38, 38
4, 72298, Note_on_c, 9, 44, 48
4, 72308, Note_on_c, 9, 38, 0
4, 72314, Note_on_c, 9, 44, 0
4, 72331, Note_on_c, 9, 36, 37
4, 72337, Note_on_c, 9, 36, 0
4, 72337, Note_on_c, 9, 38, 50
4, 72337, Note_on_c, 9, 40, 38
4, 72344, Note_on_c, 9, 38, 0
4, 72345, Note_on_c, 9, 40, 0
4, 72355, Note_on_c, 9, 40, 30
4, 72356, Note_on_c, 9, 38, 54
4, 72397, Note_on_c, 9, 38, 0
4, 72397, Note_on_c, 9, 40, 0
4, 72397, Note_on_c, 9, 36, 31
4, 72402, Note_on_c, 9, 36, 0
4, 72414, Note_on_c, 9, 44, 48
4, 72416, Note_on_c, 9, 38, 48
4, 72416, Note_on_c, 9, 40, 40
4, 72433, Note_on_c, 9, 44, 0
4, 72436, Note_on_c, 9, 40, 0
4, 72437, Note_on_c, 9, 38, 0
4, 72457, Note_on_c, 9, 40, 40
4, 72467, Note_on_c, 9, 40, 0
4, 72475, Note_on_c, 9, 38, 57
4, 72486, Note_on_c, 9, 40, 14
4, 72505, Note_on_c, 9, 40, 0
4, 72507, Note_on_c, 9, 38, 0
4, 72537, Note_on_c, 9, 38, 49
4, 72537, Note_on_c, 9, 40, 40
4, 72540, Note_on_c, 9, 44, 50
4, 72557, Note_on_c, 9, 44, 0
4, 72559, Note_on_c, 9, 40, 0
4, 72560, Note_on_c, 9, 38, 0
4, 72596, Note_on_c, 9, 38, 48
4, 72596, Note_on_c, 9, 40, 40
4, 72623, Note_on_c, 9, 40, 0
4, 72624, Note_on_c, 9, 38, 0
4, 72635, Note_on_c, 9, 39, 57
4, 72648, Note_on_c, 9, 39, 0
4, 72655, Note_on_c, 9, 40, 35
4, 72656, Note_on_c, 9, 38, 45
4, 72659, Note_on_c, 9, 44, 52
4, 72677, Note_on_c, 9, 44, 0
4, 72686, Note_on_c, 9, 40, 0
4, 72692, Note_on_c, 9, 38, 0
4, 72717, Note_on_c, 9, 38, 54
4, 72717, Note_on_c, 9, 40, 40
4, 72737, Note_on_c, 9, 40, 0
4, 72740, Note_on_c, 9, 38, 0
4, 72778, Note_on_c, 9, 38, 48
4, 72778, Note_on_c, 9, 40, 39
4, 72779, Note_on_c, 9, 44, 46
4, 72797, Note_on_c, 9, 44, 0
4, 72803, Note_on_c, 9, 40, 0
4, 72805, Note_on_c, 9, 38, 0
4, 72839, Note_on_c, 9, 38, 51
4, 72839, Note_on_c, 9, 40, 40
4, 72861, Note_on_c, 9, 40, 0
4, 72865, Note_on_c, 9, 38, 0
4, 72877, Note_on_c, 9, 36, 38
4, 72878, Note_on_c, 9, 39, 55
4, 72883, Note_on_c, 9, 36, 0
4, 72890, Note_on_c, 9, 39, 0
4, 72898, Note_on_c, 9, 38, 41
4, 72898, Note_on_c, 9, 40, 33
4, 72898, Note_on_c, 9, 44, 31
4, 72899, Note_on_c, 9, 44, 40
4, 72904, Note_on_c, 9, 44, 0
4, 72916, Note_on_c, 9, 44, 0
4, 72925, Note_on_c, 9, 40, 0
4, 72933, Note_on_c, 9, 38, 0
4, 72937, Note_on_c, 9, 44, 45
4, 72944, Note_on_c, 9, 44, 0
4, 72959, Note_on_c, 9, 40, 40
4, 72960, Note_on_c, 9, 38, 44
4, 72976, Note_on_c, 9, 40, 0
4, 72979, Note_on_c, 9, 38, 0
4, 73003, Note_on_c, 9, 36, 30
4, 73008, Note_on_c, 9, 36, 0
4, 73017, Note_on_c, 9, 38, 39
4, 73017, Note_on_c, 9, 40, 37
4, 73020, Note_on_c, 9, 44, 46
4, 73030, Note_on_c, 9, 36, 36
4, 73035, Note_on_c, 9, 44, 0
4, 73039, Note_on_c, 9, 36, 0
4, 73040, Note_on_c, 9, 38, 0
4, 73041, Note_on_c, 9, 40, 0
4, 73068, Note_on_c, 9, 36, 42
4, 73075, Note_on_c, 9, 36, 0
4, 73077, Note_on_c, 9, 38, 45
4, 73078, Note_on_c, 9, 40, 40
4, 73109, Note_on_c, 9, 40, 0
4, 73111, Note_on_c, 9, 38, 0
4, 73136, Note_on_c, 9, 44, 55
4, 73139, Note_on_c, 9, 38, 44
4, 73139, Note_on_c, 9, 40, 40
4, 73155, Note_on_c, 9, 44, 0
4, 73163, Note_on_c, 9, 38, 0
4, 73164, Note_on_c, 9, 40, 0
4, 73177, Note_on_c, 9, 39, 52
4, 73192, Note_on_c, 9, 39, 0
4, 73197, Note_on_c, 9, 38, 44
4, 73197, Note_on_c, 9, 40, 33
4, 73226, Note_on_c, 9, 40, 0
4, 73231, Note_on_c, 9, 38, 0
4, 73255, Note_on_c, 9, 44, 52
4, 73257, Note_on_c, 9, 38, 45
4, 73257, Note_on_c, 9, 40, 40
4, 73273, Note_on_c, 9, 44, 0
4, 73282, Note_on_c, 9, 38, 0
4, 73283, Note_on_c, 9, 40, 0
4, 73322, Note_on_c, 9, 38, 38
4, 73322, Note_on_c, 9, 40, 36
4, 73345, Note_on_c, 9, 40, 0
4, 73348, Note_on_c, 9, 38, 0
4, 73361, Note_on_c, 9, 39, 50
4, 73374, Note_on_c, 9, 39, 0
4, 73377, Note_on_c, 9, 44, 59
4, 73378, Note_on_c, 9, 40, 33
4, 73379, Note_on_c, 9, 38, 43
4, 73394, Note_on_c, 9, 40, 0
4, 73397, Note_on_c, 9, 44, 0
4, 73400, Note_on_c, 9, 38, 0
4, 73416, Note_on_c, 9, 46, 36
4, 73422, Note_on_c, 9, 46, 0
4, 73435, Note_on_c, 9, 40, 40
4, 73436, Note_on_c, 9, 38, 50
4, 73456, Note_on_c, 9, 40, 0
4, 73459, Note_on_c, 9, 38, 0
4, 73482, Note_on_c, 9, 36, 35
4, 73489, Note_on_c, 9, 36, 0
4, 73498, Note_on_c, 9, 38, 47
4, 73498, Note_on_c, 9, 40, 40
4, 73498, Note_on_c, 9, 44, 51
4, 73519, Note_on_c, 9, 44, 0
4, 73521, Note_on_c, 9, 40, 0
4, 73522, Note_on_c, 9, 38, 0
4, 73540, Note_on_c, 9, 36, 44
4, 73546, Note_on_c, 9, 36, 0
4, 73558, Note_on_c, 9, 38, 46
4, 73558, Note_on_c, 9, 40, 40
4, 73581, Note_on_c, 9, 40, 0
4, 73581, Note_on_c, 9, 38, 0
4, 73618, Note_on_c, 9, 38, 44
4, 73618, Note_on_c, 9, 44, 48
4, 73619, Note_on_c, 9, 40, 40
4, 73638, Note_on_c, 9, 44, 0
4, 73639, Note_on_c, 9, 38, 0
4, 73647, Note_on_c, 9, 40, 0
4, 73661, Note_on_c, 9, 38, 58
4, 73667, Note_on_c, 9, 38, 0
4, 73680, Note_on_c, 9, 40, 40
4, 73681, Note_on_c, 9, 38, 47
4, 73714, Note_on_c, 9, 40, 0
4, 73715, Note_on_c, 9, 38, 0
4, 73740, Note_on_c, 9, 38, 53
4, 73740, Note_on_c, 9, 40, 38
4, 73741, Note_on_c, 9, 44, 55
4, 73758, Note_on_c, 9, 44, 0
4, 73768, Note_on_c, 9, 40, 0
4, 73769, Note_on_c, 9, 38, 0
4, 73778, Note_on_c, 9, 39, 60
4, 73790, Note_on_c, 9, 39, 0
4, 73799, Note_on_c, 9, 38, 47
4, 73799, Note_on_c, 9, 40, 38
4, 73826, Note_on_c, 9, 40, 0
4, 73832, Note_on_c, 9, 38, 0
4, 73858, Note_on_c, 9, 46, 37
4, 73860, Note_on_c, 9, 38, 49
4, 73862, Note_on_c, 9, 40, 40
4, 73867, Note_on_c, 9, 46, 0
4, 73879, Note_on_c, 9, 40, 0
4, 73881, Note_on_c, 9, 38, 0
4, 73920, Note_on_c, 9, 38, 38
4, 73921, Note_on_c, 9, 40, 37
4, 73947, Note_on_c, 9, 38, 0
4, 73948, Note_on_c, 9, 40, 0
4, 73961, Note_on_c, 9, 39, 58
4, 73975, Note_on_c, 9, 39, 0
4, 73980, Note_on_c, 9, 44, 55
4, 73981, Note_on_c, 9, 40, 34
4, 73982, Note_on_c, 9, 38, 35
4, 73997, Note_on_c, 9, 44, 0
4, 74012, Note_on_c, 9, 40, 0
4, 74015, Note_on_c, 9, 38, 0
4, 74042, Note_on_c, 9, 38, 43
4, 74042, Note_on_c, 9, 40, 40
4, 74066, Note_on_c, 9, 38, 0
4, 74068, Note_on_c, 9, 40, 0
4, 74101, Note_on_c, 9, 38, 41
4, 74101, Note_on_c, 9, 40, 38
4, 74102, Note_on_c, 9, 44, 55
4, 74118, Note_on_c, 9, 44, 0
4, 74129, Note_on_c, 9, 40, 0
4, 74129, Note_on_c, 9, 38, 0
4, 74141, Note_on_c, 9, 53, 27
4, 74146, Note_on_c, 9, 53, 0
4, 74161, Note_on_c, 9, 40, 40
4, 74161, Note_on_c, 9, 53, 55
4, 74162, Note_on_c, 9, 38, 46
4, 74172, Note_on_c, 9, 53, 0
4, 74184, Note_on_c, 9, 38, 0
4, 74185, Note_on_c, 9, 40, 0
4, 74200, Note_on_c, 9, 39, 54
4, 74211, Note_on_c, 9, 39, 0
4, 74218, Note_on_c, 9, 46, 42
4, 74221, Note_on_c, 9, 40, 24
4, 74224, Note_on_c, 9, 38, 25
4, 74230, Note_on_c, 9, 38, 0
4, 74231, Note_on_c, 9, 40, 0
4, 74232, Note_on_c, 9, 46, 0
4, 74256, Note_on_c, 9, 40, 40
4, 74257, Note_on_c, 9, 38, 53
4, 74259, Note_on_c, 9, 53, 62
4, 74262, Note_on_c, 9, 38, 0
4, 74263, Note_on_c, 9, 40, 0
4, 74265, Note_on_c, 9, 53, 0
4, 74276, Note_on_c, 9, 40, 40
4, 74277, Note_on_c, 9, 38, 52
4, 74284, Note_on_c, 9, 53, 48
4, 74292, Note_on_c, 9, 53, 0
4, 74311, Note_on_c, 9, 40, 0
4, 74313, Note_on_c, 9, 38, 0
4, 74324, Note_on_c, 9, 36, 50
4, 74330, Note_on_c, 9, 36, 0
4, 74335, Note_on_c, 9, 40, 40
4, 74337, Note_on_c, 9, 44, 50
4, 74338, Note_on_c, 9, 38, 44
4, 74353, Note_on_c, 9, 38, 0
4, 74354, Note_on_c, 9, 44, 0
4, 74355, Note_on_c, 9, 40, 0
4, 74377, Note_on_c, 9, 38, 47
4, 74382, Note_on_c, 9, 38, 0
4, 74382, Note_on_c, 9, 39, 48
4, 74387, Note_on_c, 9, 39, 0
4, 74398, Note_on_c, 9, 38, 51
4, 74398, Note_on_c, 9, 40, 34
4, 74428, Note_on_c, 9, 40, 0
4, 74432, Note_on_c, 9, 38, 0
4, 74459, Note_on_c, 9, 44, 55
4, 74460, Note_on_c, 9, 38, 54
4, 74460, Note_on_c, 9, 40, 40
4, 74474, Note_on_c, 9, 44, 0
4, 74491, Note_on_c, 9, 40, 0
4, 74491, Note_on_c, 9, 38, 0
4, 74499, Note_on_c, 9, 39, 37
4, 74509, Note_on_c, 9, 39, 0
4, 74518, Note_on_c, 9, 38, 44
4, 74519, Note_on_c, 9, 40, 40
4, 74554, Note_on_c, 9, 40, 0
4, 74554, Note_on_c, 9, 38, 0
4, 74580, Note_on_c, 9, 44, 46
4, 74581, Note_on_c, 9, 38, 43
4, 74582, Note_on_c, 9, 40, 38
4, 74582, Note_on_c, 9, 59, 43
4, 74588, Note_on_c, 9, 59, 0
4, 74600, Note_on_c, 9, 44, 0
4, 74608, Note_on_c, 9, 40, 0
4, 74608, Note_on_c, 9, 38, 0
4, 74618, Note_on_c, 9, 39, 62
4, 74634, Note_on_c, 9, 39, 0
4, 74639, Note_on_c, 9, 40, 36
4, 74641, Note_on_c, 9, 38, 34
4, 74671, Note_on_c, 9, 40, 0
4, 74676, Note_on_c, 9, 38, 0
4, 74698, Note_on_c, 9, 38, 50
4, 74698, Note_on_c, 9, 40, 40
4, 74700, Note_on_c, 9, 59, 67
4, 74702, Note_on_c, 9, 44, 34
4, 74706, Note_on_c, 9, 59, 0
4, 74721, Note_on_c, 9, 40, 0
4, 74722, Note_on_c, 9, 38, 0
4, 74727, Note_on_c, 9, 44, 0
4, 74743, Note_on_c, 9, 53, 38
4, 74750, Note_on_c, 9, 53, 0
4, 74756, Note_on_c, 9, 38, 42
4, 74757, Note_on_c, 9, 40, 40
4, 74766, Note_on_c, 9, 53, 55
4, 74771, Note_on_c, 9, 53, 0
4, 74783, Note_on_c, 9, 40, 0
4, 74785, Note_on_c, 9, 38, 0
4, 74798, Note_on_c, 9, 39, 59
4, 74809, Note_on_c, 9, 39, 0
4, 74819, Note_on_c, 9, 40, 36
4, 74821, Note_on_c, 9, 38, 34
4, 74821, Note_on_c, 9, 44, 50
4, 74822, Note_on_c, 9, 59, 70
4, 74827, Note_on_c, 9, 59, 0
4, 74842, Note_on_c, 9, 40, 0
4, 74843, Note_on_c, 9, 44, 0
4, 74843, Note_on_c, 9, 38, 0
4, 74858, Note_on_c, 9, 38, 45
4, 74861, Note_on_c, 9, 40, 29
4, 74864, Note_on_c, 9, 53, 40
4, 74866, Note_on_c, 9, 40, 0
4, 74867, Note_on_c, 9, 38, 0
4, 74870, Note_on_c, 9, 53, 0
4, 74880, Note_on_c, 9, 40, 40
4, 74881, Note_on_c, 9, 38, 49
4, 74882, Note_on_c, 9, 53, 60
4, 74889, Note_on_c, 9, 53, 0
4, 74909, Note_on_c, 9, 40, 0
4, 74910, Note_on_c, 9, 38, 0
4, 74941, Note_on_c, 9, 44, 52
4, 74942, Note_on_c, 9, 38, 46
4, 74942, Note_on_c, 9, 40, 40
4, 74942, Note_on_c, 9, 59, 72
4, 74947, Note_on_c, 9, 59, 0
4, 74964, Note_on_c, 9, 44, 0
4, 74970, Note_on_c, 9, 40, 0
4, 74975, Note_on_c, 9, 38, 0
4, 74981, Note_on_c, 9, 39, 49
4, 74993, Note_on_c, 9, 39, 0
4, 74999, Note_on_c, 9, 38, 44
4, 75000, Note_on_c, 9, 40, 40
4, 75006, Note_on_c, 9, 53, 55
4, 75012, Note_on_c, 9, 53, 0
4, 75030, Note_on_c, 9, 40, 0
4, 75037, Note_on_c, 9, 38, 0
4, 75059, Note_on_c, 9, 44, 47
4, 75060, Note_on_c, 9, 38, 50
4, 75061, Note_on_c, 9, 40, 40
4, 75061, Note_on_c, 9, 59, 68
4, 75065, Note_on_c, 9, 59, 0
4, 75084, Note_on_c, 9, 44, 0
4, 75087, Note_on_c, 9, 40, 0
4, 75090, Note_on_c, 9, 38, 0
4, 75118, Note_on_c, 9, 38, 45
4, 75118, Note_on_c, 9, 40, 40
4, 75143, Note_on_c, 9, 40, 0
4, 75145, Note_on_c, 9, 38, 0
4, 75156, Note_on_c, 9, 39, 53
4, 75170, Note_on_c, 9, 39, 0
4, 75177, Note_on_c, 9, 38, 39
4, 75177, Note_on_c, 9, 40, 33
4, 75180, Note_on_c, 9, 44, 40
4, 75180, Note_on_c, 9, 59, 56
4, 75185, Note_on_c, 9, 59, 0
4, 75200, Note_on_c, 9, 40, 0
4, 75202, Note_on_c, 9, 44, 0
4, 75202, Note_on_c, 9, 38, 0
4, 75218, Note_on_c, 9, 38, 66
4, 75218, Note_on_c, 9, 40, 40
4, 75218, Note_on_c, 9, 53, 53
4, 75223, Note_on_c, 9, 53, 0
4, 75227, Note_on_c, 9, 38, 0
4, 75228, Note_on_c, 9, 40, 0
4, 75228, Note_on_c, 9, 39, 68
4, 75239, Note_on_c, 9, 53, 57
4, 75247, Note_on_c, 9, 53, 0
4, 75265, Note_on_c, 9, 39, 0
4, 75278, Note_on_c, 9, 36, 58
4, 75280, Note_on_c, 9, 40, 40
4, 75281, Note_on_c, 9, 38, 45
4, 75287, Note_on_c, 9, 38, 0
4, 75290, Note_on_c, 9, 36, 0
4, 75291, Note_on_c, 9, 40, 0
4, 75292, Note_on_c, 9, 44, 43
4, 75294, Note_on_c, 9, 59, 62
4, 75299, Note_on_c, 9, 59, 0
4, 75303, Note_on_c, 9, 38, 20
4, 75303, Note_on_c, 9, 40, 24
4, 75310, Note_on_c, 9, 40, 0
4, 75311, Note_on_c, 9, 38, 0
4, 75319, Note_on_c, 9, 44, 0
4, 75337, Note_on_c, 9, 38, 57
4, 75337, Note_on_c, 9, 40, 40
4, 75340, Note_on_c, 9, 40, 0
4, 75349, Note_on_c, 9, 38, 0
4, 75356, Note_on_c, 9, 40, 40
4, 75357, Note_on_c, 9, 38, 49
4, 75390, Note_on_c, 9, 40, 0
4, 75392, Note_on_c, 9, 38, 0
4, 75415, Note_on_c, 9, 44, 45
4, 75417, Note_on_c, 9, 38, 42
4, 75417, Note_on_c, 9, 40, 40
4, 75438, Note_on_c, 9, 44, 0
4, 75440, Note_on_c, 9, 40, 0
4, 75443, Note_on_c, 9, 38, 0
4, 75453, Note_on_c, 9, 39, 56
4, 75467, Note_on_c, 9, 39, 0
4, 75473, Note_on_c, 9, 40, 33
4, 75474, Note_on_c, 9, 38, 42
4, 75504, Note_on_c, 9, 40, 0
4, 75511, Note_on_c, 9, 38, 0
4, 75534, Note_on_c, 9, 38, 56
4, 75534, Note_on_c, 9, 44, 53
4, 75535, Note_on_c, 9, 40, 40
4, 75555, Note_on_c, 9, 38, 0
4, 75556, Note_on_c, 9, 40, 0
4, 75557, Note_on_c, 9, 44, 0
4, 75592, Note_on_c, 9, 38, 47
4, 75592, Note_on_c, 9, 40, 40
4, 75614, Note_on_c, 9, 40, 0
4, 75616, Note_on_c, 9, 38, 0
4, 75653, Note_on_c, 9, 38, 49
4, 75655, Note_on_c, 9, 40, 40
4, 75659, Note_on_c, 9, 44, 53
4, 75677, Note_on_c, 9, 40, 0
4, 75678, Note_on_c, 9, 38, 0
4, 75682, Note_on_c, 9, 44, 0
4, 75714, Note_on_c, 9, 38, 52
4, 75714, Note_on_c, 9, 40, 40
4, 75737, Note_on_c, 9, 40, 0
4, 75739, Note_on_c, 9, 38, 0
4, 75752, Note_on_c, 9, 39, 61
4, 75762, Note_on_c, 9, 37, 37
4, 75764, Note_on_c, 9, 39, 0
4, 75767, Note_on_c, 9, 37, 0
4, 75777, Note_on_c, 9, 40, 40
4, 75778, Note_on_c, 9, 44, 49
4, 75780, Note_on_c, 9, 38, 26
4, 75786, Note_on_c, 9, 38, 0
4, 75791, Note_on_c, 9, 40, 0
4, 75800, Note_on_c, 9, 44, 0
4, 75802, Note_on_c, 9, 37, 35
4, 75808, Note_on_c, 9, 37, 0
4, 75837, Note_on_c, 9, 38, 52
4, 75837, Note_on_c, 9, 40, 40
4, 75843, Note_on_c, 9, 37, 55
4, 75851, Note_on_c, 9, 37, 0
4, 75880, Note_on_c, 9, 40, 0
4, 75881, Note_on_c, 9, 38, 0
4, 75893, Note_on_c, 9, 44, 55
4, 75894, Note_on_c, 9, 39, 55
4, 75916, Note_on_c, 9, 44, 0
4, 75923, Note_on_c, 9, 39, 0
4, 75935, Note_on_c, 9, 38, 49
4, 75935, Note_on_c, 9, 40, 40
4, 75952, Note_on_c, 9, 40, 0
4, 75953, Note_on_c, 9, 38, 0
4, 75993, Note_on_c, 9, 38, 51
4, 75994, Note_on_c, 9, 40, 39
4, 76001, Note_on_c, 9, 40, 0
4, 76006, Note_on_c, 9, 38, 0
4, 76016, Note_on_c, 9, 44, 47
4, 76018, Note_on_c, 9, 40, 40
4, 76019, Note_on_c, 9, 38, 35
4, 76034, Note_on_c, 9, 40, 0
4, 76035, Note_on_c, 9, 38, 0
4, 76039, Note_on_c, 9, 44, 0
4, 76056, Note_on_c, 9, 38, 58
4, 76056, Note_on_c, 9, 40, 40
4, 76105, Note_on_c, 9, 40, 0
4, 76109, Note_on_c, 9, 38, 0
4, 76117, Note_on_c, 9, 39, 53
4, 76129, Note_on_c, 9, 39, 0
4, 76134, Note_on_c, 9, 44, 54
4, 76138, Note_on_c, 9, 40, 40
4, 76139, Note_on_c, 9, 38, 36
4, 76153, Note_on_c, 9, 40, 0
4, 76155, Note_on_c, 9, 38, 0
4, 76156, Note_on_c, 9, 44, 0
4, 76176, Note_on_c, 9, 38, 49
4, 76177, Note_on_c, 9, 40, 35
4, 76183, Note_on_c, 9, 40, 0
4, 76185, Note_on_c, 9, 38, 0
4, 76197, Note_on_c, 9, 38, 53
4, 76197, Note_on_c, 9, 40, 34
4, 76220, Note_on_c, 9, 40, 0
4, 76223, Note_on_c, 9, 38, 0
4, 76234, Note_on_c, 9, 39, 62
4, 76248, Note_on_c, 9, 39, 0
4, 76256, Note_on_c, 9, 40, 40
4, 76256, Note_on_c, 9, 44, 52
4, 76258, Note_on_c, 9, 38, 37
4, 76267, Note_on_c, 9, 38, 0
4, 76268, Note_on_c, 9, 40, 0
4, 76277, Note_on_c, 9, 44, 0
4, 76295, Note_on_c, 9, 53, 35
4, 76297, Note_on_c, 9, 38, 47
4, 76298, Note_on_c, 9, 40, 34
4, 76301, Note_on_c, 9, 53, 0
4, 76304, Note_on_c, 9, 40, 0
4, 76305, Note_on_c, 9, 38, 0
4, 76324, Note_on_c, 9, 40, 40
4, 76325, Note_on_c, 9, 38, 45
4, 76356, Note_on_c, 9, 40, 0
4, 76357, Note_on_c, 9, 38, 0
4, 76377, Note_on_c, 9, 44, 49
4, 76380, Note_on_c, 9, 40, 40
4, 76381, Note_on_c, 9, 38, 44
4, 76401, Note_on_c, 9, 44, 0
4, 76404, Note_on_c, 9, 40, 0
4, 76406, Note_on_c, 9, 38, 0
4, 76441, Note_on_c, 9, 38, 48
4, 76442, Note_on_c, 9, 40, 40
4, 76463, Note_on_c, 9, 40, 0
4, 76464, Note_on_c, 9, 38, 0
4, 76496, Note_on_c, 9, 38, 50
4, 76496, Note_on_c, 9, 40, 40
4, 76499, Note_on_c, 9, 44, 49
4, 76514, Note_on_c, 9, 40, 0
4, 76517, Note_on_c, 9, 38, 0
4, 76520, Note_on_c, 9, 44, 0
4, 76536, Note_on_c, 9, 39, 59
4, 76547, Note_on_c, 9, 39, 0
4, 76555, Note_on_c, 9, 40, 40
4, 76559, Note_on_c, 9, 38, 46
4, 76578, Note_on_c, 9, 38, 0
4, 76579, Note_on_c, 9, 40, 0
4, 76615, Note_on_c, 9, 40, 40
4, 76616, Note_on_c, 9, 38, 43
4, 76616, Note_on_c, 9, 44, 49
4, 76620, Note_on_c, 9, 53, 28
4, 76627, Note_on_c, 9, 53, 0
4, 76629, Note_on_c, 9, 40, 0
4, 76632, Note_on_c, 9, 38, 0
4, 76638, Note_on_c, 9, 44, 0
4, 76675, Note_on_c, 9, 38, 51
4, 76675, Note_on_c, 9, 40, 40
4, 76686, Note_on_c, 9, 40, 0
4, 76687, Note_on_c, 9, 38, 0
4, 76724, Note_on_c, 9, 53, 59
4, 76730, Note_on_c, 9, 53, 0
4, 76736, Note_on_c, 9, 38, 53
4, 76736, Note_on_c, 9, 40, 40
4, 76737, Note_on_c, 9, 44, 47
4, 76746, Note_on_c, 9, 53, 38
4, 76747, Note_on_c, 9, 40, 0
4, 76747, Note_on_c, 9, 38, 0
4, 76753, Note_on_c, 9, 53, 0
4, 76758, Note_on_c, 9, 44, 0
4, 76778, Note_on_c, 9, 38, 54
4, 76783, Note_on_c, 9, 38, 0
4, 76797, Note_on_c, 9, 36, 22
4, 76799, Note_on_c, 9, 40, 40
4, 76800, Note_on_c, 9, 38, 53
4, 76812, Note_on_c, 9, 36, 0
4, 76821, Note_on_c, 9, 38, 0
4, 76821, Note_on_c, 9, 40, 0
4, 76858, Note_on_c, 9, 59, 65
4, 76858, Note_on_c, 9, 44, 43
4, 76860, Note_on_c, 9, 40, 40
4, 76861, Note_on_c, 9, 38, 50
4, 76863, Note_on_c, 9, 59, 0
4, 76880, Note_on_c, 9, 40, 0
4, 76881, Note_on_c, 9, 38, 0
4, 76886, Note_on_c, 9, 44, 0
4, 76922, Note_on_c, 9, 38, 48
4, 76922, Note_on_c, 9, 40, 40
4, 76946, Note_on_c, 9, 40, 0
4, 76947, Note_on_c, 9, 38, 0
4, 76960, Note_on_c, 9, 39, 52
4, 76973, Note_on_c, 9, 39, 0
4, 76977, Note_on_c, 9, 44, 47
4, 76978, Note_on_c, 9, 40, 36
4, 76981, Note_on_c, 9, 38, 30
4, 76995, Note_on_c, 9, 40, 0
4, 77002, Note_on_c, 9, 44, 0
4, 77010, Note_on_c, 9, 38, 0
4, 77038, Note_on_c, 9, 40, 40
4, 77039, Note_on_c, 9, 38, 47
4, 77060, Note_on_c, 9, 40, 0
4, 77064, Note_on_c, 9, 38, 0
4, 77100, Note_on_c, 9, 38, 47
4, 77100, Note_on_c, 9, 40, 40
4, 77102, Note_on_c, 9, 44, 52
4, 77121, Note_on_c, 9, 44, 0
4, 77123, Note_on_c, 9, 40, 0
4, 77125, Note_on_c, 9, 38, 0
4, 77142, Note_on_c, 9, 47, 68
4, 77149, Note_on_c, 9, 47, 0
4, 77159, Note_on_c, 9, 40, 40
4, 77160, Note_on_c, 9, 38, 45
4, 77167, Note_on_c, 9, 47, 61
4, 77177, Note_on_c, 9, 47, 0
4, 77186, Note_on_c, 9, 40, 0
4, 77189, Note_on_c, 9, 38, 0
4, 77220, Note_on_c, 9, 44, 62
4, 77221, Note_on_c, 9, 40, 40
4, 77223, Note_on_c, 9, 38, 51
4, 77236, Note_on_c, 9, 40, 0
4, 77237, Note_on_c, 9, 38, 0
4, 77238, Note_on_c, 9, 44, 0
4, 77261, Note_on_c, 9, 46, 59
4, 77267, Note_on_c, 9, 46, 0
4, 77284, Note_on_c, 9, 36, 60
4, 77285, Note_on_c, 9, 38, 34
4, 77285, Note_on_c, 9, 40, 29
4, 77298, Note_on_c, 9, 40, 0
4, 77298, Note_on_c, 9, 38, 0
4, 77299, Note_on_c, 9, 36, 0
4, 77339, Note_on_c, 9, 40, 40
4, 77339, Note_on_c, 9, 44, 37
4, 77340, Note_on_c, 9, 38, 44
4, 77351, Note_on_c, 9, 40, 0
4, 77354, Note_on_c, 9, 38, 0
4, 77354, Note_on_c, 9, 44, 0
4, 77398, Note_on_c, 9, 38, 31
4, 77400, Note_on_c, 9, 40, 22
4, 77419, Note_on_c, 9, 40, 0
4, 77419, Note_on_c, 9, 38, 0
4, 77457, Note_on_c, 9, 44, 53
4, 77459, Note_on_c, 9, 38, 44
4, 77459, Note_on_c, 9, 40, 40
4, 77473, Note_on_c, 9, 44, 0
4, 77481, Note_on_c, 9, 38, 0
4, 77482, Note_on_c, 9, 40, 0
4, 77521, Note_on_c, 9, 40, 39
4, 77522, Note_on_c, 9, 38, 43
4, 77545, Note_on_c, 9, 40, 0
4, 77547, Note_on_c, 9, 38, 0
4, 77560, Note_on_c, 9, 39, 56
4, 77573, Note_on_c, 9, 39, 0
4, 77579, Note_on_c, 9, 44, 48
4, 77580, Note_on_c, 9, 40, 40
4, 77582, Note_on_c, 9, 38, 37
4, 77590, Note_on_c, 9, 38, 0
4, 77592, Note_on_c, 9, 40, 0
4, 77598, Note_on_c, 9, 44, 0
4, 77626, Note_on_c, 9, 38, 40
4, 77626, Note_on_c, 9, 40, 34
4, 77634, Note_on_c, 9, 40, 0
4, 77634, Note_on_c, 9, 38, 0
4, 77642, Note_on_c, 9, 40, 22
4, 77648, Note_on_c, 9, 38, 19
4, 77654, Note_on_c, 9, 38, 0
4, 77656, Note_on_c, 9, 40, 0
4, 77698, Note_on_c, 9, 40, 40
4, 77698, Note_on_c, 9, 44, 55
4, 77699, Note_on_c, 9, 38, 40
4, 77715, Note_on_c, 9, 44, 0
4, 77718, Note_on_c, 9, 38, 0
4, 77723, Note_on_c, 9, 40, 0
4, 77757, Note_on_c, 9, 40, 40
4, 77759, Note_on_c, 9, 38, 38
4, 77784, Note_on_c, 9, 40, 0
4, 77787, Note_on_c, 9, 38, 0
4, 77815, Note_on_c, 9, 40, 36
4, 77816, Note_on_c, 9, 38, 39
4, 77821, Note_on_c, 9, 44, 53
4, 77840, Note_on_c, 9, 44, 0
4, 77840, Note_on_c, 9, 38, 0
4, 77840, Note_on_c, 9, 40, 0
4, 77877, Note_on_c, 9, 40, 33
4, 77878, Note_on_c, 9, 38, 36
4, 77882, Note_on_c, 9, 47, 51
4, 77887, Note_on_c, 9, 47, 0
4, 77901, Note_on_c, 9, 40, 0
4, 77903, Note_on_c, 9, 38, 0
4, 77919, Note_on_c, 9, 39, 62
4, 77924, Note_on_c, 9, 47, 37
4, 77928, Note_on_c, 9, 39, 0
4, 77930, Note_on_c, 9, 47, 0
4, 77939, Note_on_c, 9, 44, 48
4, 77941, Note_on_c, 9, 39, 53
4, 77951, Note_on_c, 9, 39, 0
4, 77957, Note_on_c, 9, 44, 0
4, 77978, Note_on_c, 9, 38, 53
4, 77978, Note_on_c, 9, 40, 40
4, 77990, Note_on_c, 9, 40, 0
4, 77992, Note_on_c, 9, 38, 0
4, 78002, Note_on_c, 9, 40, 40
4, 78004, Note_on_c, 9, 38, 38
4, 78019, Note_on_c, 9, 40, 0
4, 78020, Note_on_c, 9, 38, 0
4, 78043, Note_on_c, 9, 40, 40
4, 78044, Note_on_c, 9, 38, 44
4, 78050, Note_on_c, 9, 38, 0
4, 78053, Note_on_c, 9, 40, 0
4, 78061, Note_on_c, 9, 44, 50
4, 78063, Note_on_c, 9, 40, 34
4, 78066, Note_on_c, 9, 38, 44
4, 78077, Note_on_c, 9, 44, 0
4, 78081, Note_on_c, 9, 40, 0
4, 78085, Note_on_c, 9, 38, 0
4, 78101, Note_on_c, 9, 39, 64
4, 78116, Note_on_c, 9, 39, 0
4, 78124, Note_on_c, 9, 40, 40
4, 78126, Note_on_c, 9, 38, 38
4, 78133, Note_on_c, 9, 38, 0
4, 78136, Note_on_c, 9, 40, 0
4, 78160, Note_on_c, 9, 39, 71
4, 78178, Note_on_c, 9, 44, 55
4, 78179, Note_on_c, 9, 39, 0
4, 78184, Note_on_c, 9, 38, 50
4, 78184, Note_on_c, 9, 40, 40
4, 78191, Note_on_c, 9, 47, 20
4, 78192, Note_on_c, 9, 40, 0
4, 78194, Note_on_c, 9, 38, 0
4, 78200, Note_on_c, 9, 44, 0
4, 78203, Note_on_c, 9, 47, 0
4, 78220, Note_on_c, 9, 38, 63
4, 78220, Note_on_c, 9, 40, 40
4, 78227, Note_on_c, 9, 52, 64
4, 78229, Note_on_c, 9, 40, 0
4, 78230, Note_on_c, 9, 38, 0
4, 78232, Note_on_c, 9, 52, 0
4, 78232, Note_on_c, 9, 36, 44
4, 78238, Note_on_c, 9, 36, 0
4, 78242, Note_on_c, 9, 38, 57
4, 78242, Note_on_c, 9, 40, 40
4, 78268, Note_on_c, 9, 38, 0
4, 78269, Note_on_c, 9, 40, 0
4, 78296, Note_on_c, 9, 44, 57
4, 78299, Note_on_c, 9, 40, 40
4, 78301, Note_on_c, 9, 38, 47
4, 78313, Note_on_c, 9, 40, 0
4, 78314, Note_on_c, 9, 38, 0
4, 78316, Note_on_c, 9, 44, 0
4, 78359, Note_on_c, 9, 38, 52
4, 78359, Note_on_c, 9, 40, 40
4, 78376, Note_on_c, 9, 40, 0
4, 78376, Note_on_c, 9, 38, 0
4, 78418, Note_on_c, 9, 44, 50
4, 78419, Note_on_c, 9, 38, 47
4, 78419, Note_on_c, 9, 40, 40
4, 78432, Note_on_c, 9, 38, 0
4, 78433, Note_on_c, 9, 40, 0
4, 78435, Note_on_c, 9, 44, 0
4, 78456, Note_on_c, 9, 39, 63
4, 78469, Note_on_c, 9, 39, 0
4, 78479, Note_on_c, 9, 40, 39
4, 78481, Note_on_c, 9, 38, 40
4, 78490, Note_on_c, 9, 40, 0
4, 78491, Note_on_c, 9, 38, 0
4, 78536, Note_on_c, 9, 44, 55
4, 78537, Note_on_c, 9, 40, 40
4, 78538, Note_on_c, 9, 38, 53
4, 78549, Note_on_c, 9, 40, 0
4, 78551, Note_on_c, 9, 44, 0
4, 78552, Note_on_c, 9, 38, 0
4, 78595, Note_on_c, 9, 38, 43
4, 78595, Note_on_c, 9, 40, 40
4, 78616, Note_on_c, 9, 40, 0
4, 78618, Note_on_c, 9, 38, 0
4, 78634, Note_on_c, 9, 39, 64
4, 78652, Note_on_c, 9, 39, 0
4, 78657, Note_on_c, 9, 40, 34
4, 78657, Note_on_c, 9, 44, 58
4, 78659, Note_on_c, 9, 38, 32
4, 78672, Note_on_c, 9, 38, 0
4, 78672, Note_on_c, 9, 44, 0
4, 78672, Note_on_c, 9, 40, 0
4, 78714, Note_on_c, 9, 40, 40
4, 78715, Note_on_c, 9, 38, 48
4, 78732, Note_on_c, 9, 40, 0
4, 78734, Note_on_c, 9, 38, 0
4, 78776, Note_on_c, 9, 38, 36
4, 78776, Note_on_c, 9, 40, 38
4, 78779, Note_on_c, 9, 44, 57
4, 78794, Note_on_c, 9, 44, 0
4, 78797, Note_on_c, 9, 40, 0
4, 78797, Note_on_c, 9, 38, 0
4, 78837, Note_on_c, 9, 38, 44
4, 78837, Note_on_c, 9, 40, 40
4, 78859, Note_on_c, 9, 40, 0
4, 78862, Note_on_c, 9, 38, 0
4, 78877, Note_on_c, 9, 39, 67
4, 78879, Note_on_c, 9, 36, 46
4, 78886, Note_on_c, 9, 36, 0
4, 78890, Note_on_c, 9, 39, 0
4, 78899, Note_on_c, 9, 40, 40
4, 78899, Note_on_c, 9, 44, 54
4, 78901, Note_on_c, 9, 38, 43
4, 78917, Note_on_c, 9, 44, 0
4, 78919, Note_on_c, 9, 40, 0
4, 78922, Note_on_c, 9, 38, 0
4, 78958, Note_on_c, 9, 38, 50
4, 78958, Note_on_c, 9, 40, 40
4, 78963, Note_on_c, 9, 36, 36
4, 78971, Note_on_c, 9, 36, 0
4, 78974, Note_on_c, 9, 40, 0
4, 78976, Note_on_c, 9, 38, 0
4, 79018, Note_on_c, 9, 38, 47
4, 79018, Note_on_c, 9, 40, 40
4, 79018, Note_on_c, 9, 44, 46
4, 79036, Note_on_c, 9, 44, 0
4, 79036, Note_on_c, 9, 40, 0
4, 79037, Note_on_c, 9, 38, 0
4, 79077, Note_on_c, 9, 40, 40
4, 79078, Note_on_c, 9, 38, 44
4, 79096, Note_on_c, 9, 38, 0
4, 79096, Note_on_c, 9, 40, 0
4, 79140, Note_on_c, 9, 38, 37
4, 79140, Note_on_c, 9, 40, 34
4, 79140, Note_on_c, 9, 44, 57
4, 79150, Note_on_c, 9, 40, 0
4, 79152, Note_on_c, 9, 38, 0
4, 79155, Note_on_c, 9, 44, 0
4, 79180, Note_on_c, 9, 36, 56
4, 79182, Note_on_c, 9, 38, 56
4, 79187, Note_on_c, 9, 38, 0
4, 79190, Note_on_c, 9, 36, 0
4, 79198, Note_on_c, 9, 40, 40
4, 79200, Note_on_c, 9, 38, 58
4, 79205, Note_on_c, 9, 36, 39
4, 79223, Note_on_c, 9, 36, 0
4, 79232, Note_on_c, 9, 40, 0
4, 79233, Note_on_c, 9, 38, 0
4, 79244, Note_on_c, 9, 36, 25
4, 79253, Note_on_c, 9, 36, 0
4, 79258, Note_on_c, 9, 44, 52
4, 79261, Note_on_c, 9, 38, 56
4, 79262, Note_on_c, 9, 40, 40
4, 79275, Note_on_c, 9, 40, 0
4, 79275, Note_on_c, 9, 38, 0
4, 79276, Note_on_c, 9, 44, 0
4, 79299, Note_on_c, 9, 38, 55
4, 79304, Note_on_c, 9, 38, 0
4, 79320, Note_on_c, 9, 40, 40
4, 79322, Note_on_c, 9, 38, 53
4, 79354, Note_on_c, 9, 40, 0
4, 79355, Note_on_c, 9, 38, 0
4, 79379, Note_on_c, 9, 38, 50
4, 79379, Note_on_c, 9, 44, 50
4, 79380, Note_on_c, 9, 40, 40
4, 79391, Note_on_c, 9, 40, 0
4, 79393, Note_on_c, 9, 38, 0
4, 79394, Note_on_c, 9, 44, 0
4, 79438, Note_on_c, 9, 38, 50
4, 79438, Note_on_c, 9, 40, 40
4, 79452, Note_on_c, 9, 40, 0
4, 79454, Note_on_c, 9, 38, 0
4, 79496, Note_on_c, 9, 38, 53
4, 79497, Note_on_c, 9, 44, 59
4, 79498, Note_on_c, 9, 40, 40
4, 79511, Note_on_c, 9, 44, 0
4, 79519, Note_on_c, 9, 40, 0
4, 79519, Note_on_c, 9, 38, 0
4, 79538, Note_on_c, 9, 38, 66
4, 79547, Note_on_c, 9, 38, 0
4, 79556, Note_on_c, 9, 40, 40
4, 79560, Note_on_c, 9, 38, 50
4, 79577, Note_on_c, 9, 38, 0
4, 79589, Note_on_c, 9, 40, 0
4, 79617, Note_on_c, 9, 38, 44
4, 79617, Note_on_c, 9, 40, 40
4, 79619, Note_on_c, 9, 44, 44
4, 79633, Note_on_c, 9, 44, 0
4, 79646, Note_on_c, 9, 38, 0
4, 79647, Note_on_c, 9, 40, 0
4, 79661, Note_on_c, 9, 39, 48
4, 79672, Note_on_c, 9, 39, 0
4, 79678, Note_on_c, 9, 40, 40
4, 79680, Note_on_c, 9, 38, 39
4, 79710, Note_on_c, 9, 40, 0
4, 79714, Note_on_c, 9, 38, 0
4, 79739, Note_on_c, 9, 38, 48
4, 79739, Note_on_c, 9, 40, 40
4, 79741, Note_on_c, 9, 44, 52
4, 79757, Note_on_c, 9, 44, 0
4, 79765, Note_on_c, 9, 38, 0
4, 79766, Note_on_c, 9, 40, 0
4, 79802, Note_on_c, 9, 40, 40
4, 79803, Note_on_c, 9, 38, 49
4, 79828, Note_on_c, 9, 38, 0
4, 79828, Note_on_c, 9, 40, 0
4, 79835, Note_on_c, 9, 39, 64
4, 79843, Note_on_c, 9, 48, 58
4, 79847, Note_on_c, 9, 39, 0
4, 79848, Note_on_c, 9, 48, 0
4, 79859, Note_on_c, 9, 44, 52
4, 79861, Note_on_c, 9, 38, 52
4, 79862, Note_on_c, 9, 40, 36
4, 79868, Note_on_c, 9, 40, 0
4, 79873, Note_on_c, 9, 38, 0
4, 79875, Note_on_c, 9, 44, 0
4, 79903, Note_on_c, 9, 38, 46
4, 79904, Note_on_c, 9, 40, 36
4, 79904, Note_on_c, 9, 36, 37
4, 79910, Note_on_c, 9, 38, 0
4, 79911, Note_on_c, 9, 36, 0
4, 79911, Note_on_c, 9, 40, 0
4, 79925, Note_on_c, 9, 38, 49
4, 79926, Note_on_c, 9, 40, 40
4, 79945, Note_on_c, 9, 38, 0
4, 79947, Note_on_c, 9, 40, 0
4, 79973, Note_on_c, 9, 44, 45
4, 79980, Note_on_c, 9, 38, 44
4, 79980, Note_on_c, 9, 40, 40
4, 79989, Note_on_c, 9, 44, 0
4, 79996, Note_on_c, 9, 38, 0
4, 79997, Note_on_c, 9, 40, 0
4, 80021, Note_on_c, 9, 48, 63
4, 80027, Note_on_c, 9, 48, 0
4, 80034, Note_on_c, 9, 38, 52
4, 80035, Note_on_c, 9, 40, 40
4, 80048, Note_on_c, 9, 48, 57
4, 80055, Note_on_c, 9, 48, 0
4, 80060, Note_on_c, 9, 40, 0
4, 80060, Note_on_c, 9, 38, 0
4, 80074, Note_on_c, 9, 39, 55
4, 80085, Note_on_c, 9, 39, 0
4, 80093, Note_on_c, 9, 40, 37
4, 80093, Note_on_c, 9, 46, 47
4, 80094, Note_on_c, 9, 38, 33
4, 80105, Note_on_c, 9, 46, 0
4, 80122, Note_on_c, 9, 40, 0
4, 80125, Note_on_c, 9, 38, 0
4, 80137, Note_on_c, 9, 36, 33
4, 80144, Note_on_c, 9, 36, 0
4, 80154, Note_on_c, 9, 40, 40
4, 80155, Note_on_c, 9, 38, 49
4, 80166, Note_on_c, 9, 40, 0
4, 80168, Note_on_c, 9, 36, 32
4, 80170, Note_on_c, 9, 38, 0
4, 80183, Note_on_c, 9, 36, 0
4, 80217, Note_on_c, 9, 38, 47
4, 80217, Note_on_c, 9, 40, 40
4, 80217, Note_on_c, 9, 44, 54
4, 80231, Note_on_c, 9, 44, 0
4, 80233, Note_on_c, 9, 40, 0
4, 80235, Note_on_c, 9, 38, 0
4, 80278, Note_on_c, 9, 38, 42
4, 80278, Note_on_c, 9, 40, 40
4, 80303, Note_on_c, 9, 40, 0
4, 80305, Note_on_c, 9, 38, 0
4, 80317, Note_on_c, 9, 39, 56
4, 80329, Note_on_c, 9, 39, 0
4, 80338, Note_on_c, 9, 40, 34
4, 80338, Note_on_c, 9, 44, 59
4, 80340, Note_on_c, 9, 38, 35
4, 80353, Note_on_c, 9, 44, 0
4, 80369, Note_on_c, 9, 40, 0
4, 80371, Note_on_c, 9, 38, 0
4, 80380, Note_on_c, 9, 36, 36
4, 80387, Note_on_c, 9, 36, 0
4, 80398, Note_on_c, 9, 40, 40
4, 80399, Note_on_c, 9, 38, 45
4, 80404, Note_on_c, 9, 36, 40
4, 80414, Note_on_c, 9, 36, 0
4, 80421, Note_on_c, 9, 40, 0
4, 80422, Note_on_c, 9, 38, 0
4, 80459, Note_on_c, 9, 40, 30
4, 80459, Note_on_c, 9, 44, 55
4, 80460, Note_on_c, 9, 38, 32
4, 80474, Note_on_c, 9, 44, 0
4, 80478, Note_on_c, 9, 40, 0
4, 80479, Note_on_c, 9, 38, 0
4, 80501, Note_on_c, 9, 36, 26
4, 80508, Note_on_c, 9, 36, 0
4, 80519, Note_on_c, 9, 40, 35
4, 80520, Note_on_c, 9, 38, 36
4, 80532, Note_on_c, 9, 40, 0
4, 80533, Note_on_c, 9, 38, 0
4, 80565, Note_on_c, 9, 59, 48
4, 80567, Note_on_c, 9, 53, 29
4, 80571, Note_on_c, 9, 59, 0
4, 80573, Note_on_c, 9, 53, 0
4, 80579, Note_on_c, 9, 40, 40
4, 80579, Note_on_c, 9, 44, 54
4, 80580, Note_on_c, 9, 38, 58
4, 80596, Note_on_c, 9, 44, 0
4, 80603, Note_on_c, 9, 40, 0
4, 80605, Note_on_c, 9, 38, 0
4, 80622, Note_on_c, 9, 36, 47
4, 80623, Note_on_c, 9, 39, 43
4, 80628, Note_on_c, 9, 39, 0
4, 80628, Note_on_c, 9, 36, 0
4, 80640, Note_on_c, 9, 40, 40
4, 80641, Note_on_c, 9, 38, 51
4, 80650, Note_on_c, 9, 36, 35
4, 80659, Note_on_c, 9, 36, 0
4, 80663, Note_on_c, 9, 40, 0
4, 80671, Note_on_c, 9, 38, 0
4, 80686, Note_on_c, 9, 59, 45
4, 80688, Note_on_c, 9, 53, 34
4, 80692, Note_on_c, 9, 59, 0
4, 80694, Note_on_c, 9, 53, 0
4, 80701, Note_on_c, 9, 44, 48
4, 80703, Note_on_c, 9, 40, 37
4, 80704, Note_on_c, 9, 38, 40
4, 80715, Note_on_c, 9, 44, 0
4, 80726, Note_on_c, 9, 38, 0
4, 80727, Note_on_c, 9, 40, 0
4, 80741, Note_on_c, 9, 36, 33
4, 80747, Note_on_c, 9, 36, 0
4, 80762, Note_on_c, 9, 38, 40
4, 80763, Note_on_c, 9, 40, 40
4, 80796, Note_on_c, 9, 38, 0
4, 80797, Note_on_c, 9, 40, 0
4, 80821, Note_on_c, 9, 44, 52
4, 80825, Note_on_c, 9, 39, 49
4, 80833, Note_on_c, 9, 44, 0
4, 80838, Note_on_c, 9, 39, 0
4, 80862, Note_on_c, 9, 38, 51
4, 80863, Note_on_c, 9, 40, 40
4, 80867, Note_on_c, 9, 38, 0
4, 80869, Note_on_c, 9, 40, 0
4, 80885, Note_on_c, 9, 40, 38
4, 80886, Note_on_c, 9, 38, 57
4, 80911, Note_on_c, 9, 40, 0
4, 80912, Note_on_c, 9, 38, 0
4, 80921, Note_on_c, 9, 36, 44
4, 80929, Note_on_c, 9, 36, 0
4, 80942, Note_on_c, 9, 44, 50
4, 80944, Note_on_c, 9, 40, 40
4, 80944, Note_on_c, 9, 53, 46
4, 80945, Note_on_c, 9, 38, 38
4, 80951, Note_on_c, 9, 53, 0
4, 80957, Note_on_c, 9, 44, 0
4, 80961, Note_on_c, 9, 38, 0
4, 80964, Note_on_c, 9, 40, 0
4, 80982, Note_on_c, 9, 59, 60
4, 80983, Note_on_c, 9, 53, 60
4, 80988, Note_on_c, 9, 59, 0
4, 80989, Note_on_c, 9, 53, 0
4, 81005, Note_on_c, 9, 40, 40
4, 81006, Note_on_c, 9, 38, 42
4, 81041, Note_on_c, 9, 40, 0
4, 81044, Note_on_c, 9, 38, 0
4, 81062, Note_on_c, 9, 44, 59
4, 81078, Note_on_c, 9, 44, 0
4, 81103, Note_on_c, 9, 38, 40
4, 81103, Note_on_c, 9, 40, 35
4, 81109, Note_on_c, 9, 40, 0
4, 81109, Note_on_c, 9, 38, 0
4, 81125, Note_on_c, 9, 40, 40
4, 81126, Note_on_c, 9, 38, 45
4, 81129, Note_on_c, 9, 36, 36
4, 81135, Note_on_c, 9, 36, 0
4, 81155, Note_on_c, 9, 40, 0
4, 81156, Note_on_c, 9, 38, 0
4, 81182, Note_on_c, 9, 40, 40
4, 81182, Note_on_c, 9, 44, 54
4, 81183, Note_on_c, 9, 38, 41
4, 81198, Note_on_c, 9, 44, 0
4, 81213, Note_on_c, 9, 40, 0
4, 81215, Note_on_c, 9, 38, 0
4, 81243, Note_on_c, 9, 40, 40
4, 81244, Note_on_c, 9, 38, 44
4, 81283, Note_on_c, 9, 38, 0
4, 81286, Note_on_c, 9, 40, 0
4, 81299, Note_on_c, 9, 44, 58
4, 81302, Note_on_c, 9, 39, 53
4, 81315, Note_on_c, 9, 44, 0
4, 81316, Note_on_c, 9, 39, 0
4, 81340, Note_on_c, 9, 38, 49
4, 81340, Note_on_c, 9, 40, 40
4, 81348, Note_on_c, 9, 40, 0
4, 81351, Note_on_c, 9, 38, 0
4, 81365, Note_on_c, 9, 40, 36
4, 81367, Note_on_c, 9, 38, 41
4, 81390, Note_on_c, 9, 38, 0
4, 81393, Note_on_c, 9, 40, 0
4, 81419, Note_on_c, 9, 44, 51
4, 81430, Note_on_c, 9, 44, 0
4, 81479, Note_on_c, 9, 40, 40
4, 81480, Note_on_c, 9, 38, 44
4, 81520, Note_on_c, 9, 40, 0
4, 81522, Note_on_c, 9, 38, 0
4, 81535, Note_on_c, 9, 44, 53
4, 81543, Note_on_c, 9, 40, 37
4, 81544, Note_on_c, 9, 38, 47
4, 81551, Note_on_c, 9, 44, 0
4, 81567, Note_on_c, 9, 40, 0
4, 81573, Note_on_c, 9, 38, 0
4, 81602, Note_on_c, 9, 40, 40
4, 81604, Note_on_c, 9, 38, 41
4, 81632, Note_on_c, 9, 40, 0
4, 81636, Note_on_c, 9, 38, 0
4, 81662, Note_on_c, 9, 40, 40
4, 81663, Note_on_c, 9, 38, 44
4, 81724, Note_on_c, 9, 44, 49
4, 81737, Note_on_c, 9, 44, 0
4, 81738, Note_on_c, 9, 40, 0
4, 81747, Note_on_c, 9, 38, 0
4, 81780, Note_on_c, 9, 40, 40
4, 81782, Note_on_c, 9, 38, 46
4, 81813, Note_on_c, 9, 40, 0
4, 81818, Note_on_c, 9, 38, 0
4, 81840, Note_on_c, 9, 40, 39
4, 81841, Note_on_c, 9, 38, 43
4, 81890, Note_on_c, 9, 40, 0
4, 81891, Note_on_c, 9, 38, 0
4, 81902, Note_on_c, 9, 39, 39
4, 81933, Note_on_c, 9, 39, 0
4, 81941, Note_on_c, 9, 38, 36
4, 81949, Note_on_c, 9, 38, 0
4, 81964, Note_on_c, 9, 38, 45
4, 81964, Note_on_c, 9, 40, 20
4, 81964, Note_on_c, 9, 44, 55
4, 81978, Note_on_c, 9, 44, 0
4, 81996, Note_on_c, 9, 40, 0
4, 81996, Note_on_c, 9, 38, 0
4, 82016, Note_on_c, 9, 40, 40
4, 82018, Note_on_c, 9, 38, 56
4, 82040, Note_on_c, 9, 38, 0
4, 82043, Note_on_c, 9, 40, 0
4, 82066, Note_on_c, 9, 46, 59
4, 82066, Note_on_c, 9, 51, 59
4, 82071, Note_on_c, 9, 40, 76
4, 82072, Note_on_c, 9, 51, 0
4, 82072, Note_on_c, 9, 46, 0
4, 82076, Note_on_c, 9, 36, 36
4, 82082, Note_on_c, 9, 36, 0
4, 82197, Note_on_c, 9, 40, 0
4, 82197, End_track
5, 0, Start_track
5, 0, Title_t, "dougmck@pipeline.com.au"
5, 0, End_track
0, 0, End_of_file
