0, 0, Header, 1, 5, 384
1, 0, Start_track
1, 0, Key_signature, -3, "major"
1, 0, SMPTE_offset, 96, 0, 0, 0, 0
1, 0, Tempo, 500000
1, 0, Time_signature, 4, 2, 24, 8
1, 4, Tempo, 600000
1, 8, Tempo, 600000
1, 12, Tempo, 600000
1, 1552, Tempo, 983606
1, 1552, End_track
2, 0, Start_track
2, 0, MIDI_port, 0
2, 0, Sequencer_specific, 7, 0, 0, 0, 106, 0, 4, 1
2, 0, Title_t, "Over the Rainbow"
2, 0, Lyric_t, "dougmck@tpg.com.au\012"
2, 0, System_exclusive, 5, 126, 127, 9, 1, 247
2, 1, System_exclusive, 8, 67, 16, 76, 0, 0, 126, 0, 247
2, 1, System_exclusive, 8, 67, 16, 76, 8, 15, 0, 1, 247
2, 1, System_exclusive, 8, 67, 16, 76, 8, 14, 0, 1, 247
2, 1, System_exclusive, 8, 67, 16, 76, 8, 13, 0, 1, 247
2, 1, System_exclusive, 8, 67, 16, 76, 8, 12, 0, 1, 247
2, 1, System_exclusive, 8, 67, 16, 76, 8, 11, 0, 1, 247
2, 1, System_exclusive, 8, 67, 16, 76, 8, 10, 0, 1, 247
2, 1, System_exclusive, 8, 67, 16, 76, 8, 9, 0, 0, 247
2, 1, System_exclusive, 8, 67, 16, 76, 8, 8, 0, 1, 247
2, 1, System_exclusive, 8, 67, 16, 76, 8, 7, 0, 1, 247
2, 1, System_exclusive, 8, 67, 16, 76, 8, 6, 0, 1, 247
2, 1, System_exclusive, 8, 67, 16, 76, 8, 5, 0, 1, 247
2, 1, System_exclusive, 8, 67, 16, 76, 8, 4, 0, 2, 247
2, 1, System_exclusive, 8, 67, 16, 76, 8, 3, 0, 2, 247
2, 1, System_exclusive, 8, 67, 16, 76, 8, 2, 0, 4, 247
2, 1, System_exclusive, 8, 67, 16, 76, 8, 1, 0, 4, 247
2, 1, System_exclusive, 8, 67, 16, 76, 8, 0, 0, 8, 247
2, 1, System_exclusive, 8, 67, 16, 76, 8, 0, 7, 0, 247
2, 1, System_exclusive, 8, 67, 16, 76, 8, 1, 7, 0, 247
2, 1, System_exclusive, 8, 67, 16, 76, 8, 2, 7, 0, 247
2, 1, System_exclusive, 8, 67, 16, 76, 8, 3, 7, 0, 247
2, 1, System_exclusive, 8, 67, 16, 76, 8, 4, 7, 0, 247
2, 1, System_exclusive, 8, 67, 16, 76, 8, 5, 7, 0, 247
2, 1, System_exclusive, 8, 67, 16, 76, 8, 6, 7, 0, 247
2, 1, System_exclusive, 8, 67, 16, 76, 8, 7, 7, 0, 247
2, 1, System_exclusive, 8, 67, 16, 76, 8, 8, 7, 0, 247
2, 1, System_exclusive, 8, 67, 16, 76, 8, 9, 7, 1, 247
2, 1, System_exclusive, 8, 67, 16, 76, 8, 10, 7, 0, 247
2, 1, System_exclusive, 8, 67, 16, 76, 8, 11, 7, 0, 247
2, 1, System_exclusive, 8, 67, 16, 76, 8, 12, 7, 0, 247
2, 1, System_exclusive, 8, 67, 16, 76, 8, 13, 7, 0, 247
2, 1, System_exclusive, 8, 67, 16, 76, 8, 14, 7, 0, 247
2, 1, System_exclusive, 8, 67, 16, 76, 8, 15, 7, 0, 247
2, 1, System_exclusive, 9, 67, 16, 76, 2, 1, 0, 3, 17, 247
2, 1, System_exclusive, 9, 67, 16, 76, 2, 1, 32, 67, 1, 247
2, 1, System_exclusive, 9, 67, 16, 76, 2, 1, 64, 5, 0, 247
2, 1, System_exclusive, 8, 67, 16, 76, 8, 9, 32, 10, 247
2, 1, System_exclusive, 8, 67, 16, 76, 8, 9, 114, 64, 247
2, 1, System_exclusive, 8, 67, 16, 76, 8, 9, 115, 64, 247
2, 1, System_exclusive, 8, 67, 16, 76, 8, 9, 119, 46, 247
2, 2, System_exclusive, 9, 67, 16, 76, 3, 0, 0, 3, 18, 247
2, 2, System_exclusive, 8, 67, 16, 76, 3, 0, 11, 5, 247
2, 2, System_exclusive, 8, 67, 16, 76, 3, 0, 12, 127, 247
2, 3, System_exclusive, 9, 67, 16, 76, 3, 0, 0, 3, 18, 247
2, 3, System_exclusive, 8, 67, 16, 76, 3, 0, 12, 127, 247
2, 3, System_exclusive, 8, 67, 16, 76, 3, 0, 11, 5, 247
2, 3, System_exclusive, 9, 67, 16, 76, 2, 1, 0, 3, 17, 247
2, 3, System_exclusive, 9, 67, 16, 76, 2, 1, 32, 67, 1, 247
2, 4, System_exclusive, 9, 67, 16, 76, 3, 1, 0, 3, 18, 247
2, 4, System_exclusive, 8, 67, 16, 76, 3, 1, 12, 2, 247
2, 4, System_exclusive, 9, 67, 16, 76, 2, 1, 0, 1, 19, 247
2, 4, System_exclusive, 9, 67, 16, 76, 2, 1, 32, 65, 8, 247
2, 4, System_exclusive, 8, 67, 16, 76, 3, 0, 12, 0, 247
2, 4, System_exclusive, 8, 67, 16, 76, 8, 0, 114, 64, 247
2, 4, System_exclusive, 8, 67, 16, 76, 8, 0, 115, 95, 247
2, 4, System_exclusive, 8, 67, 16, 76, 8, 0, 119, 46, 247
2, 4, System_exclusive, 8, 67, 16, 76, 3, 1, 11, 5, 247
2, 4, System_exclusive, 8, 67, 16, 76, 8, 2, 114, 64, 247
2, 4, System_exclusive, 8, 67, 16, 76, 8, 2, 115, 95, 247
2, 4, System_exclusive, 8, 67, 16, 76, 8, 2, 119, 46, 247
2, 389, Control_c, 0, 7, 100
2, 389, Control_c, 0, 10, 64
2, 389, Control_c, 0, 91, 10
2, 389, Control_c, 0, 93, 0
2, 1546, Control_c, 0, 0, 0
2, 1546, Control_c, 0, 32, 122
2, 1547, Control_c, 0, 0, 0
2, 1547, Control_c, 0, 32, 122
2, 1548, Program_c, 0, 0
2, 1548, Control_c, 0, 7, 107
2, 1548, Control_c, 0, 10, 64
2, 1548, Control_c, 0, 11, 127
2, 1548, Control_c, 0, 91, 10
2, 1548, Control_c, 0, 93, 0
2, 1548, Control_c, 0, 94, 0
2, 1548, Control_c, 0, 101, 0
2, 1549, Control_c, 0, 100, 1
2, 1550, Control_c, 0, 6, 64
2, 1551, Control_c, 0, 38, 0
2, 1551, Control_c, 0, 71, 43
2, 1551, Control_c, 0, 74, 46
2, 1551, Control_c, 0, 64, 127
2, 3086, Note_on_c, 0, 87, 82
2, 3088, Note_on_c, 0, 75, 66
2, 3092, Note_on_c, 0, 55, 53
2, 3092, Control_c, 0, 64, 0
2, 3096, Note_on_c, 0, 65, 54
2, 3098, Note_on_c, 0, 62, 52
2, 3104, Note_on_c, 0, 60, 57
2, 3124, System_exclusive, 8, 67, 16, 76, 8, 1, 114, 64, 247
2, 3124, System_exclusive, 8, 67, 16, 76, 8, 1, 115, 64, 247
2, 3124, System_exclusive, 8, 67, 16, 76, 8, 1, 119, 46, 247
2, 3204, Control_c, 0, 64, 127
2, 3380, Note_on_c, 0, 65, 0
2, 3384, Note_on_c, 0, 60, 0
2, 3392, Note_on_c, 0, 62, 0
2, 3532, Note_on_c, 0, 60, 39
2, 3536, Note_on_c, 0, 65, 38
2, 3544, Note_on_c, 0, 62, 28
2, 3588, Note_on_c, 0, 62, 0
2, 3600, Note_on_c, 0, 65, 0
2, 3616, Note_on_c, 0, 75, 0
2, 3616, Note_on_c, 0, 60, 0
2, 3652, Note_on_c, 0, 55, 0
2, 3668, Note_on_c, 0, 87, 0
2, 4408, Control_c, 0, 64, 0
2, 4420, Note_on_c, 0, 63, 57
2, 4420, Note_on_c, 0, 55, 54
2, 4424, Note_on_c, 0, 99, 85
2, 4428, Note_on_c, 0, 87, 76
2, 4432, Note_on_c, 0, 60, 37
2, 4460, Control_c, 0, 64, 127
2, 4512, Note_on_c, 0, 55, 0
2, 4520, Note_on_c, 0, 60, 0
2, 4536, Note_on_c, 0, 63, 0
2, 4544, Note_on_c, 0, 99, 0
2, 4560, Note_on_c, 0, 87, 0
2, 4668, Control_c, 0, 64, 0
2, 4680, Note_on_c, 0, 98, 63
2, 4684, Note_on_c, 0, 58, 42
2, 4684, Note_on_c, 0, 86, 50
2, 4684, Note_on_c, 0, 62, 37
2, 4692, Note_on_c, 0, 53, 27
2, 4700, Note_on_c, 0, 57, 39
2, 4740, Control_c, 0, 64, 127
2, 4824, Note_on_c, 0, 98, 0
2, 4880, Note_on_c, 0, 86, 0
2, 4892, Note_on_c, 0, 62, 0
2, 4900, Note_on_c, 0, 57, 0
2, 4904, Note_on_c, 0, 58, 0
2, 5044, Note_on_c, 0, 58, 31
2, 5060, Note_on_c, 0, 62, 26
2, 5064, Note_on_c, 0, 57, 28
2, 5156, Note_on_c, 0, 57, 0
2, 5176, Note_on_c, 0, 53, 0
2, 5196, Note_on_c, 0, 58, 0
2, 5244, Note_on_c, 0, 62, 0
2, 5308, Note_on_c, 0, 82, 48
2, 5360, Note_on_c, 0, 82, 0
2, 5380, Note_on_c, 0, 84, 55
2, 5428, Note_on_c, 0, 84, 0
2, 5456, Control_c, 0, 64, 0
2, 5500, Control_c, 0, 64, 127
2, 5856, Note_on_c, 0, 86, 73
2, 5908, Note_on_c, 0, 86, 0
2, 5964, Control_c, 0, 64, 0
2, 5984, Note_on_c, 0, 61, 43
2, 5988, Note_on_c, 0, 86, 66
2, 5988, Note_on_c, 0, 65, 37
2, 5992, Note_on_c, 0, 56, 41
2, 5992, Note_on_c, 0, 60, 47
2, 6036, Note_on_c, 0, 86, 0
2, 6044, Control_c, 0, 64, 127
2, 6084, Note_on_c, 0, 87, 63
2, 6116, Note_on_c, 0, 87, 0
2, 6136, Note_on_c, 0, 60, 0
2, 6144, Note_on_c, 0, 65, 0
2, 6164, Note_on_c, 0, 61, 0
2, 6196, Note_on_c, 0, 56, 0
2, 6200, Note_on_c, 0, 87, 70
2, 6228, Note_on_c, 0, 87, 0
2, 6292, Note_on_c, 0, 63, 45
2, 6292, Control_c, 0, 64, 0
2, 6300, Note_on_c, 0, 75, 57
2, 6316, Note_on_c, 0, 58, 38
2, 6320, Note_on_c, 0, 55, 26
2, 6320, Note_on_c, 0, 60, 35
2, 6344, Note_on_c, 0, 63, 0
2, 6344, Note_on_c, 0, 60, 0
2, 6348, Note_on_c, 0, 75, 0
2, 6348, Note_on_c, 0, 58, 0
2, 6348, Note_on_c, 0, 55, 0
2, 6484, Note_on_c, 0, 75, 52
2, 6488, Note_on_c, 0, 63, 39
2, 6504, Note_on_c, 0, 58, 34
2, 6512, Note_on_c, 0, 60, 36
2, 6512, Note_on_c, 0, 53, 33
2, 6560, Note_on_c, 0, 53, 0
2, 6564, Note_on_c, 0, 60, 0
2, 6576, Note_on_c, 0, 63, 0
2, 6576, Note_on_c, 0, 58, 0
2, 6588, Note_on_c, 0, 75, 0
2, 6680, Note_on_c, 0, 63, 32
2, 6692, Control_c, 0, 64, 127
2, 6692, Note_on_c, 0, 75, 50
2, 6692, Note_on_c, 0, 58, 36
2, 6700, Note_on_c, 0, 53, 35
2, 6704, Note_on_c, 0, 60, 36
2, 6856, Note_on_c, 0, 53, 0
2, 6888, Note_on_c, 0, 60, 0
2, 6908, Note_on_c, 0, 58, 0
2, 6920, Note_on_c, 0, 63, 0
2, 7220, Note_on_c, 0, 75, 0
2, 7480, Control_c, 0, 64, 0
2, 7496, Note_on_c, 0, 80, 61
2, 7500, Note_on_c, 0, 84, 54
2, 7500, Note_on_c, 0, 65, 38
2, 7500, Note_on_c, 0, 60, 49
2, 7500, Note_on_c, 0, 75, 50
2, 7500, Note_on_c, 0, 54, 41
2, 7540, Control_c, 0, 64, 127
2, 7600, Note_on_c, 0, 65, 0
2, 7608, Note_on_c, 0, 60, 0
2, 7652, Note_on_c, 0, 54, 0
2, 7664, Note_on_c, 0, 75, 0
2, 7668, Note_on_c, 0, 84, 0
2, 7676, Note_on_c, 0, 80, 0
2, 7736, Control_c, 0, 64, 0
2, 7768, Note_on_c, 0, 82, 51
2, 7768, Note_on_c, 0, 58, 38
2, 7772, Note_on_c, 0, 74, 43
2, 7772, Note_on_c, 0, 62, 30
2, 7776, Note_on_c, 0, 55, 33
2, 7792, Note_on_c, 0, 57, 30
2, 7800, Control_c, 0, 64, 127
2, 7888, Note_on_c, 0, 82, 0
2, 7908, Note_on_c, 0, 74, 0
2, 8168, Note_on_c, 0, 62, 0
2, 8176, Note_on_c, 0, 58, 0
2, 8184, Note_on_c, 0, 57, 0
2, 8212, Note_on_c, 0, 55, 0
2, 8376, Note_on_c, 0, 60, 48
2, 8392, Control_c, 0, 64, 0
2, 8396, Note_on_c, 0, 60, 0
2, 8432, Note_on_c, 0, 61, 61
2, 8472, Note_on_c, 0, 61, 0
2, 8488, Note_on_c, 0, 63, 66
2, 8532, Note_on_c, 0, 63, 0
2, 8548, Note_on_c, 0, 64, 70
2, 8584, Note_on_c, 0, 64, 0
2, 8612, Note_on_c, 0, 66, 60
2, 8648, Note_on_c, 0, 66, 0
2, 8688, Note_on_c, 0, 67, 56
2, 8712, Note_on_c, 0, 67, 0
2, 8740, Note_on_c, 0, 69, 64
2, 8772, Note_on_c, 0, 69, 0
2, 8796, Note_on_c, 0, 70, 63
2, 8812, Note_on_c, 0, 70, 0
2, 8840, Note_on_c, 0, 72, 68
2, 8868, Note_on_c, 0, 63, 35
2, 8876, Note_on_c, 0, 72, 0
2, 8876, Note_on_c, 0, 58, 41
2, 8896, Note_on_c, 0, 73, 58
2, 8896, Note_on_c, 0, 52, 32
2, 8940, Note_on_c, 0, 73, 0
2, 8956, Note_on_c, 0, 75, 50
2, 8972, Note_on_c, 0, 75, 0
2, 9000, Note_on_c, 0, 76, 64
2, 9044, Note_on_c, 0, 76, 0
2, 9056, Note_on_c, 0, 77, 56
2, 9076, Note_on_c, 0, 77, 0
2, 9100, Note_on_c, 0, 78, 41
2, 9120, Note_on_c, 0, 78, 0
2, 9152, Note_on_c, 0, 79, 37
2, 9164, Control_c, 0, 64, 127
2, 9172, Note_on_c, 0, 52, 0
2, 9172, Note_on_c, 0, 79, 0
2, 9188, Note_on_c, 0, 58, 0
2, 9188, Note_on_c, 0, 80, 31
2, 9224, Note_on_c, 0, 63, 0
2, 9224, Note_on_c, 0, 80, 0
2, 9240, Note_on_c, 0, 81, 44
2, 9264, Control_c, 0, 64, 0
2, 9268, Note_on_c, 0, 81, 0
2, 9284, Note_on_c, 0, 84, 55
2, 9288, Note_on_c, 0, 63, 28
2, 9312, Note_on_c, 0, 60, 35
2, 9316, Note_on_c, 0, 84, 0
2, 9320, Note_on_c, 0, 56, 28
2, 9328, Note_on_c, 0, 53, 20
2, 9376, Note_on_c, 0, 82, 52
2, 9412, Note_on_c, 0, 82, 0
2, 9468, Note_on_c, 0, 80, 54
2, 9492, Note_on_c, 0, 80, 0
2, 9552, Note_on_c, 0, 79, 49
2, 9584, Note_on_c, 0, 79, 0
2, 9616, Note_on_c, 0, 77, 55
2, 9636, Note_on_c, 0, 77, 0
2, 9708, Note_on_c, 0, 72, 50
2, 9728, Note_on_c, 0, 72, 0
2, 9796, Note_on_c, 0, 68, 63
2, 9820, Note_on_c, 0, 68, 0
2, 9880, Control_c, 0, 64, 127
2, 9904, Note_on_c, 0, 67, 43
2, 9948, Note_on_c, 0, 67, 0
2, 9952, Note_on_c, 0, 60, 0
2, 9956, Note_on_c, 0, 53, 0
2, 9972, Note_on_c, 0, 63, 0
2, 9976, Note_on_c, 0, 56, 0
2, 9984, Note_on_c, 0, 68, 45
2, 10024, Note_on_c, 0, 68, 0
2, 10064, Control_c, 0, 64, 0
2, 10076, Note_on_c, 0, 63, 36
2, 10088, Note_on_c, 0, 68, 46
2, 10088, Note_on_c, 0, 59, 46
2, 10100, Note_on_c, 0, 56, 32
2, 10112, Note_on_c, 0, 53, 27
2, 10220, Control_c, 0, 64, 127
2, 10240, Note_on_c, 0, 68, 0
2, 10244, Note_on_c, 0, 67, 43
2, 10304, Note_on_c, 0, 59, 0
2, 10340, Note_on_c, 0, 63, 0
2, 10368, Note_on_c, 0, 67, 0
2, 10452, Note_on_c, 0, 63, 37
2, 10452, Note_on_c, 0, 68, 43
2, 10464, Note_on_c, 0, 59, 38
2, 10576, Note_on_c, 0, 59, 0
2, 10580, Note_on_c, 0, 63, 0
2, 10612, Note_on_c, 0, 53, 0
2, 10624, Note_on_c, 0, 56, 0
2, 10628, Note_on_c, 0, 68, 0
2, 10800, Control_c, 0, 64, 0
2, 10824, Note_on_c, 0, 62, 46
2, 10824, Note_on_c, 0, 58, 40
2, 10828, Note_on_c, 0, 67, 48
2, 10836, Note_on_c, 0, 51, 41
2, 10916, Control_c, 0, 64, 127
2, 11060, Note_on_c, 0, 58, 0
2, 11108, Note_on_c, 0, 51, 0
2, 11124, Note_on_c, 0, 62, 0
2, 11128, Note_on_c, 0, 67, 0
2, 11340, Note_on_c, 0, 63, 56
2, 11340, Control_c, 0, 64, 0
2, 11364, Note_on_c, 0, 58, 29
2, 11376, Note_on_c, 0, 63, 0
2, 11384, Note_on_c, 0, 58, 0
2, 11448, Control_c, 0, 64, 127
2, 11452, Note_on_c, 0, 65, 49
2, 11464, Note_on_c, 0, 65, 0
2, 11556, Control_c, 0, 64, 0
2, 11576, Note_on_c, 0, 67, 51
2, 11576, Note_on_c, 0, 58, 49
2, 11576, Note_on_c, 0, 62, 56
2, 11584, Note_on_c, 0, 55, 39
2, 11612, Control_c, 0, 64, 127
2, 11756, Note_on_c, 0, 67, 0
2, 11764, Note_on_c, 0, 55, 0
2, 11776, Note_on_c, 0, 58, 0
2, 11800, Note_on_c, 0, 62, 0
2, 12120, Control_c, 0, 64, 0
2, 12160, Note_on_c, 0, 48, 55
2, 12160, Note_on_c, 0, 68, 71
2, 12160, Note_on_c, 0, 61, 71
2, 12164, Note_on_c, 0, 58, 72
2, 12172, Control_c, 0, 64, 127
2, 12200, Note_on_c, 0, 48, 0
2, 12240, Note_on_c, 0, 68, 0
2, 12256, Note_on_c, 0, 58, 0
2, 12260, Note_on_c, 0, 61, 0
2, 12332, Control_c, 0, 64, 0
2, 12360, Note_on_c, 0, 65, 63
2, 12360, Note_on_c, 0, 63, 57
2, 12360, Note_on_c, 0, 56, 61
2, 12364, Note_on_c, 0, 60, 63
2, 12368, Note_on_c, 0, 41, 54
2, 12428, Control_c, 0, 64, 127
2, 12524, Note_on_c, 0, 56, 0
2, 12536, Note_on_c, 0, 41, 0
2, 12548, Note_on_c, 0, 60, 0
2, 12600, Note_on_c, 0, 65, 0
2, 12668, Note_on_c, 0, 63, 0
2, 12852, Note_on_c, 0, 62, 102
2, 12928, Note_on_c, 0, 62, 0
2, 12988, Note_on_c, 0, 63, 85
2, 13048, Note_on_c, 0, 63, 0
2, 13108, Control_c, 0, 64, 0
2, 13128, Note_on_c, 0, 62, 69
2, 13128, Note_on_c, 0, 65, 62
2, 13136, Note_on_c, 0, 56, 40
2, 13136, Note_on_c, 0, 46, 42
2, 13236, Control_c, 0, 64, 127
2, 13272, Note_on_c, 0, 65, 0
2, 13292, Note_on_c, 0, 62, 0
2, 13332, Note_on_c, 0, 62, 42
2, 13336, Note_on_c, 0, 65, 49
2, 13364, Note_on_c, 0, 56, 0
2, 13392, Note_on_c, 0, 62, 0
2, 13444, Note_on_c, 0, 65, 0
2, 13524, Note_on_c, 0, 62, 50
2, 13524, Note_on_c, 0, 67, 53
2, 13528, Note_on_c, 0, 56, 37
2, 13628, Note_on_c, 0, 46, 0
2, 13640, Note_on_c, 0, 62, 0
2, 13688, Note_on_c, 0, 67, 0
2, 13720, Note_on_c, 0, 46, 39
2, 13776, Note_on_c, 0, 46, 0
2, 13820, Note_on_c, 0, 56, 0
2, 13884, Control_c, 0, 64, 0
2, 13916, Note_on_c, 0, 74, 57
2, 13916, Note_on_c, 0, 65, 44
2, 13916, Note_on_c, 0, 67, 49
2, 13920, Note_on_c, 0, 46, 31
2, 13924, Note_on_c, 0, 55, 31
2, 13964, Control_c, 0, 64, 127
2, 14016, Note_on_c, 0, 46, 0
2, 14028, Note_on_c, 0, 55, 0
2, 14112, Note_on_c, 0, 65, 0
2, 14140, Note_on_c, 0, 67, 0
2, 14184, Note_on_c, 0, 74, 0
2, 14272, Note_on_c, 0, 65, 25
2, 14280, Note_on_c, 0, 60, 39
2, 14284, Note_on_c, 0, 62, 31
2, 14384, Note_on_c, 0, 91, 88
2, 14460, Note_on_c, 0, 91, 0
2, 14464, Note_on_c, 0, 60, 0
2, 14464, Note_on_c, 0, 62, 0
2, 14468, Note_on_c, 0, 65, 0
2, 14488, Note_on_c, 0, 86, 81
2, 14560, Note_on_c, 0, 86, 0
2, 14580, Note_on_c, 0, 84, 63
2, 14640, Note_on_c, 0, 84, 0
2, 14656, Control_c, 0, 64, 0
2, 14664, Note_on_c, 0, 58, 45
2, 14672, Note_on_c, 0, 68, 38
2, 14676, Note_on_c, 0, 89, 79
2, 14676, Note_on_c, 0, 63, 43
2, 14680, Note_on_c, 0, 60, 41
2, 14776, Note_on_c, 0, 87, 65
2, 14804, Control_c, 0, 64, 127
2, 14816, Note_on_c, 0, 89, 0
2, 14860, Note_on_c, 0, 87, 0
2, 14864, Note_on_c, 0, 68, 0
2, 14872, Note_on_c, 0, 84, 56
2, 14892, Note_on_c, 0, 63, 0
2, 14940, Note_on_c, 0, 84, 0
2, 14952, Note_on_c, 0, 60, 0
2, 14964, Note_on_c, 0, 80, 50
2, 14976, Note_on_c, 0, 58, 0
2, 15012, Note_on_c, 0, 80, 0
2, 15048, Note_on_c, 0, 56, 39
2, 15056, Control_c, 0, 64, 0
2, 15064, Note_on_c, 0, 67, 37
2, 15068, Note_on_c, 0, 79, 54
2, 15084, Note_on_c, 0, 62, 28
2, 15116, Control_c, 0, 64, 127
2, 15216, Note_on_c, 0, 79, 0
2, 15232, Note_on_c, 0, 62, 0
2, 15236, Note_on_c, 0, 67, 0
2, 15308, Note_on_c, 0, 56, 0
2, 15332, Note_on_c, 0, 77, 64
2, 15424, Note_on_c, 0, 77, 0
2, 15424, Control_c, 0, 64, 0
2, 15440, Note_on_c, 0, 75, 57
2, 15448, Note_on_c, 0, 63, 31
2, 15448, Note_on_c, 0, 60, 30
2, 15456, Note_on_c, 0, 55, 36
2, 15460, Note_on_c, 0, 57, 44
2, 15608, Control_c, 0, 64, 127
2, 15628, Note_on_c, 0, 55, 0
2, 15636, Note_on_c, 0, 60, 0
2, 15644, Note_on_c, 0, 57, 0
2, 15664, Note_on_c, 0, 63, 0
2, 15800, Note_on_c, 0, 63, 31
2, 15820, Note_on_c, 0, 57, 36
2, 15820, Note_on_c, 0, 60, 37
2, 15824, Note_on_c, 0, 75, 0
2, 15944, Note_on_c, 0, 60, 0
2, 15984, Note_on_c, 0, 63, 0
2, 15996, Note_on_c, 0, 57, 0
2, 16276, Control_c, 0, 64, 0
2, 16320, Note_on_c, 0, 65, 47
2, 16324, Note_on_c, 0, 87, 60
2, 16332, Note_on_c, 0, 58, 38
2, 16336, Note_on_c, 0, 65, 0
2, 16336, Note_on_c, 0, 87, 0
2, 16336, Note_on_c, 0, 60, 36
2, 16336, Note_on_c, 0, 54, 27
2, 16352, Note_on_c, 0, 58, 0
2, 16352, Note_on_c, 0, 60, 0
2, 16356, Note_on_c, 0, 54, 0
2, 16460, Control_c, 0, 64, 127
2, 16468, Note_on_c, 0, 65, 63
2, 16468, Note_on_c, 0, 89, 80
2, 16472, Note_on_c, 0, 77, 70
2, 16476, Note_on_c, 0, 54, 50
2, 16476, Note_on_c, 0, 60, 56
2, 16476, Note_on_c, 0, 84, 59
2, 16476, Note_on_c, 0, 58, 48
2, 16492, Note_on_c, 0, 77, 0
2, 16492, Note_on_c, 0, 84, 0
2, 16496, Note_on_c, 0, 58, 0
2, 16504, Note_on_c, 0, 65, 0
2, 16504, Note_on_c, 0, 89, 0
2, 16512, Note_on_c, 0, 60, 0
2, 16520, Note_on_c, 0, 54, 0
2, 16520, Control_c, 0, 64, 0
2, 16612, Note_on_c, 0, 89, 90
2, 16612, Note_on_c, 0, 77, 86
2, 16612, Note_on_c, 0, 84, 82
2, 16612, Note_on_c, 0, 65, 73
2, 16612, Note_on_c, 0, 54, 63
2, 16612, Note_on_c, 0, 60, 62
2, 16620, Control_c, 0, 64, 127
2, 16624, Note_on_c, 0, 58, 52
2, 16672, Note_on_c, 0, 89, 0
2, 16692, Note_on_c, 0, 77, 0
2, 16696, Note_on_c, 0, 84, 0
2, 16696, Note_on_c, 0, 58, 0
2, 16704, Note_on_c, 0, 65, 0
2, 16708, Note_on_c, 0, 54, 0
2, 16712, Note_on_c, 0, 60, 0
2, 16744, Note_on_c, 0, 87, 70
2, 16748, Note_on_c, 0, 75, 60
2, 16752, Note_on_c, 0, 65, 57
2, 16756, Note_on_c, 0, 82, 57
2, 16756, Note_on_c, 0, 54, 43
2, 16756, Note_on_c, 0, 60, 48
2, 16764, Note_on_c, 0, 58, 48
2, 16780, Note_on_c, 0, 58, 0
2, 16788, Note_on_c, 0, 75, 0
2, 16788, Note_on_c, 0, 60, 0
2, 16792, Note_on_c, 0, 65, 0
2, 16792, Note_on_c, 0, 82, 0
2, 16800, Note_on_c, 0, 87, 0
2, 16804, Note_on_c, 0, 54, 0
2, 16884, Note_on_c, 0, 87, 69
2, 16888, Note_on_c, 0, 75, 60
2, 16892, Note_on_c, 0, 65, 46
2, 16896, Note_on_c, 0, 87, 0
2, 16896, Note_on_c, 0, 58, 39
2, 16900, Note_on_c, 0, 75, 0
2, 16900, Note_on_c, 0, 60, 39
2, 16908, Note_on_c, 0, 65, 0
2, 16916, Note_on_c, 0, 58, 0
2, 16916, Note_on_c, 0, 60, 0
2, 16944, Note_on_c, 0, 87, 68
2, 16944, Note_on_c, 0, 75, 57
2, 16948, Note_on_c, 0, 82, 63
2, 16952, Note_on_c, 0, 54, 49
2, 16960, Note_on_c, 0, 82, 0
2, 16964, Note_on_c, 0, 58, 38
2, 16980, Note_on_c, 0, 87, 0
2, 16980, Note_on_c, 0, 75, 0
2, 16980, Note_on_c, 0, 58, 0
2, 16980, Control_c, 0, 64, 0
2, 16992, Note_on_c, 0, 54, 0
2, 17008, Note_on_c, 0, 74, 72
2, 17008, Note_on_c, 0, 82, 59
2, 17012, Note_on_c, 0, 86, 61
2, 17020, Note_on_c, 0, 58, 43
2, 17020, Note_on_c, 0, 62, 57
2, 17020, Note_on_c, 0, 53, 42
2, 17056, Note_on_c, 0, 55, 17
2, 17100, Control_c, 0, 64, 127
2, 17200, Note_on_c, 0, 55, 0
2, 17216, Note_on_c, 0, 62, 0
2, 17236, Note_on_c, 0, 58, 0
2, 17364, Note_on_c, 0, 86, 0
2, 17368, Note_on_c, 0, 82, 0
2, 17376, Note_on_c, 0, 74, 0
2, 17376, Note_on_c, 0, 55, 22
2, 17380, Note_on_c, 0, 62, 37
2, 17384, Note_on_c, 0, 58, 40
2, 17516, Note_on_c, 0, 55, 0
2, 17524, Note_on_c, 0, 53, 0
2, 17528, Note_on_c, 0, 58, 0
2, 17548, Note_on_c, 0, 62, 0
2, 17720, Control_c, 0, 64, 0
2, 17724, Note_on_c, 0, 65, 43
2, 17732, Note_on_c, 0, 61, 41
2, 17736, Note_on_c, 0, 60, 40
2, 17736, Note_on_c, 0, 56, 37
2, 17904, Control_c, 0, 64, 127
2, 17980, Note_on_c, 0, 65, 0
2, 17992, Note_on_c, 0, 60, 0
2, 18028, Note_on_c, 0, 61, 0
2, 18036, Note_on_c, 0, 72, 86
2, 18068, Control_c, 0, 64, 0
2, 18072, Note_on_c, 0, 56, 0
2, 18092, Note_on_c, 0, 72, 0
2, 18116, Note_on_c, 0, 61, 34
2, 18116, Note_on_c, 0, 64, 38
2, 18124, Note_on_c, 0, 69, 39
2, 18128, Note_on_c, 0, 55, 34
2, 18152, Note_on_c, 0, 69, 0
2, 18184, Note_on_c, 0, 70, 43
2, 18216, Note_on_c, 0, 70, 0
2, 18244, Note_on_c, 0, 72, 61
2, 18284, Note_on_c, 0, 72, 0
2, 18300, Note_on_c, 0, 73, 57
2, 18308, Note_on_c, 0, 64, 0
2, 18320, Note_on_c, 0, 73, 0
2, 18324, Note_on_c, 0, 55, 0
2, 18356, Note_on_c, 0, 61, 0
2, 18364, Note_on_c, 0, 75, 54
2, 18380, Note_on_c, 0, 75, 0
2, 18424, Note_on_c, 0, 77, 80
2, 18472, Note_on_c, 0, 77, 0
2, 18496, Note_on_c, 0, 60, 38
2, 18496, Note_on_c, 0, 58, 32
2, 18500, Note_on_c, 0, 63, 29
2, 18500, Note_on_c, 0, 79, 72
2, 18512, Note_on_c, 0, 53, 23
2, 18544, Note_on_c, 0, 79, 0
2, 18624, Note_on_c, 0, 82, 64
2, 18652, Note_on_c, 0, 82, 0
2, 18712, Note_on_c, 0, 79, 43
2, 18728, Note_on_c, 0, 79, 0
2, 18876, Note_on_c, 0, 75, 57
2, 18912, Note_on_c, 0, 75, 0
2, 19060, Control_c, 0, 64, 127
2, 19068, Note_on_c, 0, 72, 39
2, 19100, Note_on_c, 0, 72, 0
2, 19172, Control_c, 0, 64, 0
2, 19196, Note_on_c, 0, 53, 0
2, 19240, Note_on_c, 0, 58, 0
2, 19244, Note_on_c, 0, 60, 0
2, 19244, Note_on_c, 0, 63, 0
2, 19256, Note_on_c, 0, 72, 45
2, 19316, Control_c, 0, 64, 127
2, 19516, Note_on_c, 0, 72, 0
2, 19556, Note_on_c, 0, 75, 63
2, 19588, Control_c, 0, 64, 0
2, 19608, Note_on_c, 0, 75, 0
2, 19648, Note_on_c, 0, 74, 50
2, 19672, Note_on_c, 0, 74, 0
2, 19816, Control_c, 0, 64, 127
2, 19936, Note_on_c, 0, 72, 67
2, 19976, Note_on_c, 0, 72, 0
2, 19980, Control_c, 0, 64, 0
2, 20020, Note_on_c, 0, 55, 27
2, 20020, Note_on_c, 0, 70, 50
2, 20024, Note_on_c, 0, 58, 30
2, 20028, Note_on_c, 0, 62, 28
2, 20036, Note_on_c, 0, 57, 38
2, 20060, Note_on_c, 0, 70, 0
2, 20076, Note_on_c, 0, 72, 48
2, 20124, Note_on_c, 0, 72, 0
2, 20124, Note_on_c, 0, 70, 45
2, 20172, Note_on_c, 0, 70, 0
2, 20176, Note_on_c, 0, 69, 55
2, 20204, Note_on_c, 0, 69, 0
2, 20240, Note_on_c, 0, 70, 60
2, 20268, Note_on_c, 0, 62, 0
2, 20276, Note_on_c, 0, 70, 0
2, 20324, Note_on_c, 0, 58, 0
2, 20352, Note_on_c, 0, 74, 67
2, 20384, Note_on_c, 0, 74, 0
2, 20444, Note_on_c, 0, 78, 68
2, 20456, Note_on_c, 0, 78, 0
2, 20544, Note_on_c, 0, 81, 64
2, 20564, Note_on_c, 0, 81, 0
2, 20592, Note_on_c, 0, 57, 0
2, 20616, Note_on_c, 0, 55, 0
2, 20632, Note_on_c, 0, 82, 60
2, 20644, Note_on_c, 0, 82, 0
2, 20728, Note_on_c, 0, 84, 57
2, 20760, Note_on_c, 0, 84, 0
2, 20820, Note_on_c, 0, 63, 31
2, 20820, Note_on_c, 0, 73, 48
2, 20824, Note_on_c, 0, 85, 49
2, 20828, Note_on_c, 0, 58, 39
2, 20836, Note_on_c, 0, 52, 33
2, 20836, Control_c, 0, 64, 127
2, 20916, Note_on_c, 0, 73, 0
2, 20920, Note_on_c, 0, 85, 0
2, 20928, Note_on_c, 0, 63, 0
2, 20928, Note_on_c, 0, 52, 0
2, 20936, Note_on_c, 0, 58, 0
2, 20964, Note_on_c, 0, 75, 41
2, 20964, Note_on_c, 0, 87, 54
2, 20968, Note_on_c, 0, 63, 32
2, 20988, Note_on_c, 0, 58, 30
2, 21000, Note_on_c, 0, 87, 0
2, 21012, Note_on_c, 0, 63, 0
2, 21024, Note_on_c, 0, 75, 0
2, 21060, Note_on_c, 0, 58, 0
2, 21160, Control_c, 0, 64, 0
2, 21200, Note_on_c, 0, 84, 50
2, 21200, Note_on_c, 0, 63, 31
2, 21204, Control_c, 0, 64, 127
2, 21204, Note_on_c, 0, 72, 36
2, 21212, Note_on_c, 0, 58, 37
2, 21352, Note_on_c, 0, 84, 0
2, 21352, Note_on_c, 0, 63, 0
2, 21356, Note_on_c, 0, 58, 0
2, 21392, Note_on_c, 0, 72, 0
2, 21920, Control_c, 0, 64, 0
2, 21968, Note_on_c, 0, 63, 57
2, 21972, Note_on_c, 0, 72, 52
2, 21972, Note_on_c, 0, 56, 47
2, 21972, Note_on_c, 0, 65, 56
2, 21976, Note_on_c, 0, 68, 56
2, 22016, Control_c, 0, 64, 127
2, 22052, Note_on_c, 0, 72, 0
2, 22052, Note_on_c, 0, 56, 0
2, 22052, Note_on_c, 0, 65, 0
2, 22056, Note_on_c, 0, 63, 0
2, 22056, Note_on_c, 0, 68, 0
2, 22068, Control_c, 0, 64, 0
2, 22116, Note_on_c, 0, 63, 61
2, 22120, Note_on_c, 0, 72, 56
2, 22124, Note_on_c, 0, 65, 56
2, 22124, Note_on_c, 0, 68, 48
2, 22128, Note_on_c, 0, 56, 54
2, 22132, Control_c, 0, 64, 127
2, 22180, Note_on_c, 0, 56, 0
2, 22188, Note_on_c, 0, 63, 0
2, 22192, Note_on_c, 0, 72, 0
2, 22204, Note_on_c, 0, 65, 0
2, 22212, Note_on_c, 0, 68, 0
2, 22248, Note_on_c, 0, 70, 63
2, 22248, Note_on_c, 0, 63, 57
2, 22252, Note_on_c, 0, 56, 43
2, 22272, Note_on_c, 0, 56, 0
2, 22284, Note_on_c, 0, 63, 0
2, 22288, Note_on_c, 0, 70, 0
2, 22352, Control_c, 0, 64, 0
2, 22376, Note_on_c, 0, 68, 62
2, 22380, Note_on_c, 0, 56, 45
2, 22384, Note_on_c, 0, 59, 46
2, 22384, Note_on_c, 0, 63, 52
2, 22468, Control_c, 0, 64, 127
2, 22656, Note_on_c, 0, 59, 0
2, 22668, Note_on_c, 0, 63, 0
2, 22672, Note_on_c, 0, 56, 0
2, 22748, Note_on_c, 0, 56, 35
2, 22752, Note_on_c, 0, 59, 39
2, 22752, Note_on_c, 0, 63, 39
2, 22896, Note_on_c, 0, 56, 0
2, 22904, Note_on_c, 0, 59, 0
2, 22912, Note_on_c, 0, 68, 0
2, 22988, Note_on_c, 0, 63, 0
2, 23056, Control_c, 0, 64, 0
2, 23064, Note_on_c, 0, 54, 31
2, 23084, Note_on_c, 0, 58, 46
2, 23088, Note_on_c, 0, 54, 0
2, 23088, Note_on_c, 0, 55, 43
2, 23092, Note_on_c, 0, 67, 46
2, 23092, Note_on_c, 0, 62, 48
2, 23136, Control_c, 0, 64, 127
2, 23204, Note_on_c, 0, 58, 0
2, 23236, Note_on_c, 0, 62, 0
2, 23244, Note_on_c, 0, 55, 0
2, 23244, Note_on_c, 0, 67, 0
2, 23564, Control_c, 0, 64, 0
2, 23592, Note_on_c, 0, 87, 62
2, 23596, Note_on_c, 0, 67, 42
2, 23596, Note_on_c, 0, 63, 40
2, 23596, Note_on_c, 0, 75, 41
2, 23600, Note_on_c, 0, 82, 48
2, 23608, Note_on_c, 0, 62, 31
2, 23608, Control_c, 0, 64, 127
2, 23616, Note_on_c, 0, 82, 0
2, 23620, Note_on_c, 0, 75, 0
2, 23620, Note_on_c, 0, 58, 22
2, 23624, Note_on_c, 0, 67, 0
2, 23628, Note_on_c, 0, 62, 0
2, 23632, Note_on_c, 0, 63, 0
2, 23636, Note_on_c, 0, 87, 0
2, 23640, Note_on_c, 0, 58, 0
2, 23740, Note_on_c, 0, 84, 58
2, 23740, Note_on_c, 0, 89, 59
2, 23744, Note_on_c, 0, 77, 56
2, 23744, Note_on_c, 0, 67, 42
2, 23748, Note_on_c, 0, 58, 39
2, 23748, Note_on_c, 0, 63, 41
2, 23752, Note_on_c, 0, 62, 36
2, 23768, Note_on_c, 0, 67, 0
2, 23772, Note_on_c, 0, 62, 0
2, 23776, Note_on_c, 0, 63, 0
2, 23784, Note_on_c, 0, 77, 0
2, 23788, Note_on_c, 0, 84, 0
2, 23796, Note_on_c, 0, 58, 0
2, 23812, Note_on_c, 0, 89, 0
2, 23868, Control_c, 0, 64, 0
2, 23976, Note_on_c, 0, 91, 64
2, 23980, Note_on_c, 0, 79, 54
2, 23980, Note_on_c, 0, 58, 43
2, 23980, Note_on_c, 0, 62, 49
2, 23980, Note_on_c, 0, 86, 46
2, 23984, Note_on_c, 0, 57, 43
2, 23992, Note_on_c, 0, 79, 0
2, 23996, Note_on_c, 0, 86, 0
2, 23996, Note_on_c, 0, 53, 27
2, 24000, Note_on_c, 0, 62, 0
2, 24000, Note_on_c, 0, 57, 0
2, 24008, Note_on_c, 0, 91, 0
2, 24016, Note_on_c, 0, 58, 0
2, 24016, Note_on_c, 0, 53, 0
2, 24088, Control_c, 0, 64, 127
2, 24112, Note_on_c, 0, 91, 72
2, 24112, Note_on_c, 0, 62, 49
2, 24112, Note_on_c, 0, 57, 42
2, 24112, Note_on_c, 0, 58, 50
2, 24116, Note_on_c, 0, 79, 63
2, 24116, Note_on_c, 0, 86, 63
2, 24116, Note_on_c, 0, 53, 44
2, 24252, Note_on_c, 0, 62, 0
2, 24256, Note_on_c, 0, 79, 0
2, 24264, Note_on_c, 0, 86, 0
2, 24264, Note_on_c, 0, 53, 0
2, 24268, Note_on_c, 0, 57, 0
2, 24268, Note_on_c, 0, 58, 0
2, 24272, Note_on_c, 0, 91, 0
2, 24544, Note_on_c, 0, 63, 66
2, 24544, Note_on_c, 0, 58, 58
2, 24544, Note_on_c, 0, 92, 81
2, 24548, Note_on_c, 0, 80, 80
2, 24548, Note_on_c, 0, 87, 70
2, 24560, Note_on_c, 0, 58, 0
2, 24564, Note_on_c, 0, 87, 0
2, 24584, Note_on_c, 0, 63, 0
2, 24584, Note_on_c, 0, 92, 0
2, 24584, Note_on_c, 0, 80, 0
2, 24644, Control_c, 0, 64, 0
2, 24660, Note_on_c, 0, 56, 56
2, 24664, Note_on_c, 0, 89, 75
2, 24664, Note_on_c, 0, 77, 72
2, 24668, Note_on_c, 0, 60, 50
2, 24668, Note_on_c, 0, 63, 52
2, 24672, Note_on_c, 0, 84, 68
2, 24676, Note_on_c, 0, 67, 40
2, 24732, Control_c, 0, 64, 127
2, 24792, Note_on_c, 0, 77, 0
2, 24792, Note_on_c, 0, 60, 0
2, 24800, Note_on_c, 0, 84, 0
2, 24804, Note_on_c, 0, 89, 0
2, 24804, Note_on_c, 0, 67, 0
2, 24808, Note_on_c, 0, 63, 0
2, 24816, Note_on_c, 0, 56, 0
2, 24836, Control_c, 0, 64, 0
2, 24856, Note_on_c, 0, 56, 51
2, 24856, Note_on_c, 0, 89, 61
2, 24856, Note_on_c, 0, 67, 53
2, 24860, Note_on_c, 0, 63, 46
2, 24860, Note_on_c, 0, 77, 56
2, 24860, Note_on_c, 0, 84, 63
2, 24868, Note_on_c, 0, 60, 54
2, 24916, Control_c, 0, 64, 127
2, 24980, Note_on_c, 0, 77, 0
2, 24984, Note_on_c, 0, 67, 0
2, 24984, Note_on_c, 0, 60, 0
2, 24992, Note_on_c, 0, 56, 0
2, 25000, Note_on_c, 0, 63, 0
2, 25000, Note_on_c, 0, 84, 0
2, 25008, Note_on_c, 0, 89, 0
2, 25028, Control_c, 0, 64, 0
2, 25060, Note_on_c, 0, 89, 55
2, 25064, Note_on_c, 0, 77, 48
2, 25064, Note_on_c, 0, 63, 44
2, 25064, Note_on_c, 0, 84, 53
2, 25068, Note_on_c, 0, 67, 39
2, 25072, Note_on_c, 0, 56, 35
2, 25076, Note_on_c, 0, 60, 49
2, 25080, Control_c, 0, 64, 127
2, 25148, Note_on_c, 0, 77, 0
2, 25160, Note_on_c, 0, 89, 0
2, 25160, Note_on_c, 0, 84, 0
2, 25164, Note_on_c, 0, 56, 0
2, 25168, Note_on_c, 0, 67, 0
2, 25172, Note_on_c, 0, 60, 0
2, 25188, Note_on_c, 0, 63, 0
2, 25248, Note_on_c, 0, 89, 52
2, 25252, Note_on_c, 0, 84, 55
2, 25256, Note_on_c, 0, 67, 38
2, 25256, Note_on_c, 0, 63, 41
2, 25260, Note_on_c, 0, 56, 33
2, 25260, Note_on_c, 0, 77, 36
2, 25268, Note_on_c, 0, 60, 39
2, 25292, Note_on_c, 0, 77, 0
2, 25320, Note_on_c, 0, 89, 0
2, 25320, Note_on_c, 0, 67, 0
2, 25320, Note_on_c, 0, 56, 0
2, 25324, Note_on_c, 0, 84, 0
2, 25328, Note_on_c, 0, 63, 0
2, 25344, Note_on_c, 0, 60, 0
2, 25432, Control_c, 0, 64, 0
2, 25444, Note_on_c, 0, 91, 47
2, 25444, Note_on_c, 0, 67, 55
2, 25448, Note_on_c, 0, 56, 46
2, 25452, Note_on_c, 0, 79, 38
2, 25452, Note_on_c, 0, 86, 52
2, 25456, Note_on_c, 0, 62, 47
2, 25516, Control_c, 0, 64, 127
2, 25536, Note_on_c, 0, 79, 0
2, 25540, Note_on_c, 0, 62, 0
2, 25544, Note_on_c, 0, 86, 0
2, 25552, Note_on_c, 0, 91, 0
2, 25552, Note_on_c, 0, 67, 0
2, 25556, Note_on_c, 0, 56, 0
2, 25604, Control_c, 0, 64, 0
2, 25632, Note_on_c, 0, 91, 51
2, 25632, Control_c, 0, 64, 127
2, 25640, Note_on_c, 0, 56, 42
2, 25640, Note_on_c, 0, 67, 48
2, 25644, Note_on_c, 0, 79, 36
2, 25648, Note_on_c, 0, 86, 45
2, 25652, Note_on_c, 0, 62, 44
2, 25712, Note_on_c, 0, 79, 0
2, 25712, Note_on_c, 0, 86, 0
2, 25712, Note_on_c, 0, 62, 0
2, 25728, Note_on_c, 0, 56, 0
2, 25732, Note_on_c, 0, 91, 0
2, 25732, Note_on_c, 0, 67, 0
2, 25792, Control_c, 0, 64, 24
2, 25792, Control_c, 0, 64, 0
2, 25828, Note_on_c, 0, 91, 52
2, 25832, Note_on_c, 0, 56, 45
2, 25836, Note_on_c, 0, 67, 38
2, 25836, Control_c, 0, 64, 127
2, 25840, Note_on_c, 0, 79, 31
2, 25844, Note_on_c, 0, 86, 42
2, 25848, Note_on_c, 0, 62, 40
2, 25864, Note_on_c, 0, 79, 0
2, 25876, Note_on_c, 0, 86, 0
2, 25900, Note_on_c, 0, 91, 0
2, 25996, Note_on_c, 0, 62, 0
2, 26000, Note_on_c, 0, 67, 0
2, 26108, Note_on_c, 0, 56, 0
2, 26124, Note_on_c, 0, 98, 115
2, 26208, Note_on_c, 0, 98, 0
2, 26216, Control_c, 0, 64, 0
2, 26216, Note_on_c, 0, 55, 46
2, 26220, Note_on_c, 0, 62, 44
2, 26220, Note_on_c, 0, 94, 81
2, 26220, Note_on_c, 0, 65, 40
2, 26220, Note_on_c, 0, 60, 52
2, 26304, Note_on_c, 0, 94, 0
2, 26320, Note_on_c, 0, 91, 69
2, 26332, Control_c, 0, 64, 127
2, 26380, Note_on_c, 0, 91, 0
2, 26408, Note_on_c, 0, 86, 56
2, 26432, Note_on_c, 0, 65, 0
2, 26444, Note_on_c, 0, 62, 0
2, 26444, Note_on_c, 0, 60, 0
2, 26452, Note_on_c, 0, 86, 0
2, 26580, Note_on_c, 0, 82, 56
2, 26588, Note_on_c, 0, 65, 29
2, 26592, Note_on_c, 0, 62, 33
2, 26592, Note_on_c, 0, 60, 33
2, 26764, Note_on_c, 0, 55, 0
2, 26764, Note_on_c, 0, 62, 0
2, 26764, Note_on_c, 0, 60, 0
2, 26780, Note_on_c, 0, 65, 0
2, 27108, Control_c, 0, 64, 0
2, 27120, Note_on_c, 0, 68, 40
2, 27132, Note_on_c, 0, 63, 43
2, 27140, Note_on_c, 0, 58, 36
2, 27148, Note_on_c, 0, 60, 36
2, 27300, Note_on_c, 0, 82, 0
2, 27304, Note_on_c, 0, 79, 52
2, 27320, Control_c, 0, 64, 127
2, 27328, Control_c, 0, 64, 0
2, 27420, Note_on_c, 0, 79, 0
2, 27428, Note_on_c, 0, 80, 57
2, 27468, Note_on_c, 0, 80, 0
2, 27492, Note_on_c, 0, 68, 0
2, 27512, Note_on_c, 0, 81, 47
2, 27544, Control_c, 0, 64, 127
2, 27548, Note_on_c, 0, 60, 0
2, 27572, Note_on_c, 0, 58, 0
2, 27584, Note_on_c, 0, 81, 0
2, 27604, Note_on_c, 0, 63, 0
2, 27624, Note_on_c, 0, 82, 56
2, 27648, Control_c, 0, 64, 0
2, 27680, Note_on_c, 0, 82, 0
2, 27700, Note_on_c, 0, 65, 31
2, 27700, Note_on_c, 0, 62, 36
2, 27708, Note_on_c, 0, 55, 33
2, 27708, Note_on_c, 0, 60, 37
2, 27708, Note_on_c, 0, 79, 45
2, 27764, Note_on_c, 0, 79, 0
2, 27896, Note_on_c, 0, 82, 54
2, 27932, Note_on_c, 0, 82, 0
2, 28008, Note_on_c, 0, 82, 57
2, 28048, Note_on_c, 0, 82, 0
2, 28092, Note_on_c, 0, 79, 39
2, 28112, Note_on_c, 0, 79, 0
2, 28260, Note_on_c, 0, 85, 54
2, 28264, Note_on_c, 0, 73, 58
2, 28324, Note_on_c, 0, 85, 0
2, 28328, Note_on_c, 0, 60, 0
2, 28328, Note_on_c, 0, 73, 0
2, 28332, Note_on_c, 0, 62, 0
2, 28344, Note_on_c, 0, 65, 0
2, 28344, Note_on_c, 0, 74, 46
2, 28376, Note_on_c, 0, 74, 0
2, 28452, Note_on_c, 0, 70, 54
2, 28456, Note_on_c, 0, 82, 49
2, 28456, Note_on_c, 0, 65, 35
2, 28464, Note_on_c, 0, 60, 29
2, 28464, Note_on_c, 0, 62, 29
2, 28600, Note_on_c, 0, 82, 0
2, 28644, Note_on_c, 0, 79, 50
2, 28660, Note_on_c, 0, 70, 0
2, 28660, Control_c, 0, 64, 127
2, 28680, Note_on_c, 0, 60, 0
2, 28684, Note_on_c, 0, 65, 0
2, 28688, Note_on_c, 0, 62, 0
2, 28704, Note_on_c, 0, 79, 0
2, 28832, Note_on_c, 0, 65, 39
2, 28836, Note_on_c, 0, 79, 56
2, 28840, Note_on_c, 0, 62, 35
2, 28844, Note_on_c, 0, 60, 33
2, 28960, Note_on_c, 0, 55, 0
2, 28976, Note_on_c, 0, 60, 0
2, 28984, Note_on_c, 0, 62, 0
2, 28996, Note_on_c, 0, 65, 0
2, 29196, Note_on_c, 0, 79, 0
2, 29196, Control_c, 0, 64, 0
2, 29204, Note_on_c, 0, 68, 39
2, 29212, Note_on_c, 0, 58, 36
2, 29212, Note_on_c, 0, 63, 47
2, 29220, Note_on_c, 0, 60, 42
2, 29420, Note_on_c, 0, 80, 68
2, 29516, Note_on_c, 0, 80, 0
2, 29532, Note_on_c, 0, 82, 92
2, 29600, Note_on_c, 0, 82, 0
2, 29628, Note_on_c, 0, 80, 44
2, 29708, Note_on_c, 0, 68, 0
2, 29708, Note_on_c, 0, 80, 0
2, 29712, Note_on_c, 0, 60, 0
2, 29728, Note_on_c, 0, 82, 64
2, 29760, Note_on_c, 0, 80, 58
2, 29788, Note_on_c, 0, 82, 0
2, 29804, Note_on_c, 0, 58, 0
2, 29816, Note_on_c, 0, 80, 0
2, 29824, Note_on_c, 0, 79, 41
2, 29856, Note_on_c, 0, 63, 0
2, 29904, Note_on_c, 0, 79, 0
2, 29984, Note_on_c, 0, 68, 42
2, 29984, Note_on_c, 0, 80, 50
2, 29992, Note_on_c, 0, 63, 43
2, 30004, Note_on_c, 0, 58, 28
2, 30024, Note_on_c, 0, 60, 25
2, 30176, Note_on_c, 0, 82, 51
2, 30180, Note_on_c, 0, 80, 0
2, 30348, Note_on_c, 0, 82, 0
2, 30360, Control_c, 0, 64, 127
2, 30360, Note_on_c, 0, 79, 43
2, 30388, Note_on_c, 0, 79, 0
2, 30392, Note_on_c, 0, 68, 0
2, 30396, Note_on_c, 0, 58, 0
2, 30400, Note_on_c, 0, 60, 0
2, 30420, Note_on_c, 0, 63, 0
2, 30476, Note_on_c, 0, 80, 82
2, 30484, Note_on_c, 0, 68, 55
2, 30488, Note_on_c, 0, 58, 45
2, 30492, Note_on_c, 0, 63, 37
2, 30532, Note_on_c, 0, 68, 0
2, 30544, Note_on_c, 0, 80, 0
2, 30552, Note_on_c, 0, 63, 0
2, 30572, Note_on_c, 0, 82, 81
2, 30580, Note_on_c, 0, 58, 0
2, 30648, Note_on_c, 0, 82, 0
2, 30680, Note_on_c, 0, 84, 81
2, 30740, Note_on_c, 0, 84, 0
2, 30752, Control_c, 0, 64, 0
2, 30784, Note_on_c, 0, 65, 36
2, 30784, Note_on_c, 0, 58, 41
2, 30784, Note_on_c, 0, 55, 38
2, 30792, Note_on_c, 0, 62, 39
2, 30796, Note_on_c, 0, 84, 54
2, 30836, Control_c, 0, 64, 127
2, 30928, Note_on_c, 0, 84, 0
2, 30964, Note_on_c, 0, 72, 42
2, 30980, Note_on_c, 0, 65, 0
2, 31008, Note_on_c, 0, 58, 0
2, 31008, Note_on_c, 0, 62, 0
2, 31024, Note_on_c, 0, 72, 0
2, 31160, Note_on_c, 0, 65, 30
2, 31172, Note_on_c, 0, 58, 26
2, 31176, Note_on_c, 0, 72, 31
2, 31180, Note_on_c, 0, 62, 25
2, 31220, Note_on_c, 0, 72, 0
2, 31248, Note_on_c, 0, 62, 0
2, 31260, Note_on_c, 0, 65, 0
2, 31264, Note_on_c, 0, 58, 0
2, 31292, Note_on_c, 0, 55, 0
2, 31348, Note_on_c, 0, 84, 54
2, 31396, Note_on_c, 0, 84, 0
2, 31536, Note_on_c, 0, 84, 52
2, 31876, Note_on_c, 0, 84, 0
2, 31928, Note_on_c, 0, 65, 28
2, 31928, Note_on_c, 0, 58, 38
2, 31928, Note_on_c, 0, 55, 34
2, 31932, Note_on_c, 0, 62, 39
2, 32020, Note_on_c, 0, 62, 0
2, 32024, Note_on_c, 0, 65, 0
2, 32024, Note_on_c, 0, 55, 0
2, 32040, Note_on_c, 0, 58, 0
2, 32272, Control_c, 0, 64, 0
2, 32288, Note_on_c, 0, 94, 82
2, 32292, Note_on_c, 0, 63, 44
2, 32292, Note_on_c, 0, 67, 47
2, 32292, Note_on_c, 0, 87, 81
2, 32296, Note_on_c, 0, 56, 43
2, 32312, Note_on_c, 0, 60, 39
2, 32352, Note_on_c, 0, 94, 0
2, 32352, Control_c, 0, 64, 127
2, 32376, Note_on_c, 0, 82, 49
2, 32380, Note_on_c, 0, 91, 52
2, 32388, Note_on_c, 0, 87, 0
2, 32420, Note_on_c, 0, 67, 0
2, 32420, Note_on_c, 0, 82, 0
2, 32424, Note_on_c, 0, 56, 0
2, 32424, Note_on_c, 0, 60, 0
2, 32428, Note_on_c, 0, 63, 0
2, 32440, Note_on_c, 0, 91, 0
2, 32468, Note_on_c, 0, 87, 68
2, 32468, Note_on_c, 0, 94, 70
2, 32472, Note_on_c, 0, 56, 39
2, 32472, Note_on_c, 0, 63, 40
2, 32472, Note_on_c, 0, 67, 43
2, 32476, Note_on_c, 0, 60, 40
2, 32784, Note_on_c, 0, 87, 0
2, 32784, Note_on_c, 0, 67, 0
2, 32792, Note_on_c, 0, 60, 0
2, 32796, Note_on_c, 0, 56, 0
2, 32796, Note_on_c, 0, 63, 0
2, 32872, Note_on_c, 0, 94, 0
2, 32984, Note_on_c, 0, 91, 49
2, 32988, Note_on_c, 0, 82, 41
2, 32988, Note_on_c, 0, 63, 33
2, 32992, Note_on_c, 0, 56, 29
2, 33008, Note_on_c, 0, 60, 32
2, 33020, Note_on_c, 0, 91, 0
2, 33020, Note_on_c, 0, 82, 0
2, 33020, Note_on_c, 0, 56, 0
2, 33028, Note_on_c, 0, 63, 0
2, 33048, Note_on_c, 0, 60, 0
2, 33072, Control_c, 0, 64, 0
2, 33096, Note_on_c, 0, 66, 54
2, 33096, Note_on_c, 0, 94, 60
2, 33096, Note_on_c, 0, 85, 60
2, 33100, Note_on_c, 0, 62, 48
2, 33104, Note_on_c, 0, 56, 36
2, 33112, Note_on_c, 0, 85, 0
2, 33144, Note_on_c, 0, 66, 0
2, 33148, Note_on_c, 0, 94, 0
2, 33148, Note_on_c, 0, 56, 0
2, 33156, Note_on_c, 0, 62, 0
2, 33272, Note_on_c, 0, 66, 49
2, 33272, Note_on_c, 0, 94, 49
2, 33280, Note_on_c, 0, 85, 38
2, 33280, Note_on_c, 0, 62, 42
2, 33284, Note_on_c, 0, 56, 37
2, 33284, Note_on_c, 0, 90, 40
2, 33340, Control_c, 0, 64, 127
2, 33404, Note_on_c, 0, 94, 0
2, 33408, Note_on_c, 0, 85, 0
2, 33408, Note_on_c, 0, 90, 0
2, 33428, Note_on_c, 0, 66, 0
2, 33476, Note_on_c, 0, 56, 0
2, 33532, Note_on_c, 0, 62, 0
2, 33576, Note_on_c, 0, 85, 56
2, 33580, Note_on_c, 0, 66, 52
2, 33584, Note_on_c, 0, 90, 45
2, 33584, Note_on_c, 0, 80, 39
2, 33588, Note_on_c, 0, 62, 27
2, 33592, Note_on_c, 0, 56, 41
2, 33664, Note_on_c, 0, 90, 0
2, 33668, Note_on_c, 0, 66, 0
2, 33672, Note_on_c, 0, 85, 0
2, 33680, Note_on_c, 0, 62, 0
2, 33684, Note_on_c, 0, 80, 0
2, 33724, Note_on_c, 0, 56, 0
2, 33776, Control_c, 0, 64, 0
2, 33816, Note_on_c, 0, 62, 36
2, 33816, Note_on_c, 0, 65, 34
2, 33824, Note_on_c, 0, 79, 39
2, 33824, Note_on_c, 0, 60, 41
2, 33824, Note_on_c, 0, 82, 38
2, 33824, Note_on_c, 0, 55, 30
2, 33828, Control_c, 0, 64, 127
2, 33836, Note_on_c, 0, 86, 39
2, 33876, Note_on_c, 0, 86, 0
2, 33908, Note_on_c, 0, 82, 0
2, 33912, Note_on_c, 0, 65, 0
2, 33924, Note_on_c, 0, 79, 0
2, 33932, Note_on_c, 0, 62, 0
2, 33940, Note_on_c, 0, 60, 0
2, 33976, Note_on_c, 0, 55, 0
2, 34212, Control_c, 0, 64, 0
2, 34212, Note_on_c, 0, 66, 51
2, 34216, Note_on_c, 0, 63, 45
2, 34220, Note_on_c, 0, 60, 39
2, 34224, Note_on_c, 0, 54, 39
2, 34236, Note_on_c, 0, 55, 39
2, 34244, Note_on_c, 0, 54, 0
2, 34252, Note_on_c, 0, 60, 0
2, 34256, Note_on_c, 0, 67, 42
2, 34268, Note_on_c, 0, 66, 0
2, 34292, Note_on_c, 0, 55, 0
2, 34296, Note_on_c, 0, 63, 0
2, 34316, Note_on_c, 0, 67, 0
2, 34344, Note_on_c, 0, 63, 59
2, 34348, Note_on_c, 0, 60, 63
2, 34348, Note_on_c, 0, 58, 68
2, 34348, Note_on_c, 0, 70, 69
2, 34348, Note_on_c, 0, 67, 63
2, 34544, Note_on_c, 0, 60, 0
2, 34544, Note_on_c, 0, 67, 0
2, 34556, Note_on_c, 0, 63, 0
2, 34576, Note_on_c, 0, 70, 0
2, 34592, Note_on_c, 0, 58, 0
2, 34612, Note_on_c, 0, 67, 28
2, 34612, Note_on_c, 0, 60, 26
2, 34616, Note_on_c, 0, 55, 35
2, 34620, Note_on_c, 0, 63, 32
2, 34684, Note_on_c, 0, 60, 0
2, 34688, Note_on_c, 0, 63, 0
2, 34700, Note_on_c, 0, 67, 0
2, 34740, Note_on_c, 0, 58, 67
2, 34740, Note_on_c, 0, 63, 68
2, 34740, Note_on_c, 0, 70, 66
2, 34740, Note_on_c, 0, 67, 57
2, 34740, Note_on_c, 0, 60, 72
2, 34748, Note_on_c, 0, 55, 0
2, 34884, Control_c, 0, 64, 127
2, 34904, Note_on_c, 0, 67, 0
2, 34924, Note_on_c, 0, 60, 0
2, 34940, Note_on_c, 0, 63, 0
2, 34956, Control_c, 0, 64, 0
2, 34980, Note_on_c, 0, 70, 0
2, 34996, Note_on_c, 0, 58, 0
2, 35004, Note_on_c, 0, 67, 55
2, 35004, Note_on_c, 0, 60, 49
2, 35004, Note_on_c, 0, 63, 47
2, 35008, Note_on_c, 0, 55, 48
2, 35084, Note_on_c, 0, 67, 0
2, 35108, Control_c, 0, 64, 127
2, 35112, Control_c, 0, 64, 0
2, 35128, Note_on_c, 0, 60, 0
2, 35132, Note_on_c, 0, 63, 0
2, 35188, Control_c, 0, 64, 127
2, 35264, Note_on_c, 0, 55, 0
2, 35284, Control_c, 0, 64, 0
2, 35300, Note_on_c, 0, 56, 56
2, 35304, Note_on_c, 0, 61, 62
2, 35304, Note_on_c, 0, 68, 60
2, 35312, Note_on_c, 0, 60, 58
2, 35312, Note_on_c, 0, 66, 48
2, 35336, Note_on_c, 0, 66, 0
2, 35356, Note_on_c, 0, 60, 0
2, 35364, Note_on_c, 0, 56, 0
2, 35364, Note_on_c, 0, 68, 0
2, 35396, Note_on_c, 0, 60, 49
2, 35404, Note_on_c, 0, 57, 45
2, 35408, Note_on_c, 0, 61, 0
2, 35408, Note_on_c, 0, 69, 43
2, 35420, Note_on_c, 0, 60, 0
2, 35424, Note_on_c, 0, 69, 0
2, 35476, Note_on_c, 0, 57, 0
2, 35516, Note_on_c, 0, 72, 54
2, 35520, Note_on_c, 0, 64, 54
2, 35524, Note_on_c, 0, 67, 49
2, 35528, Note_on_c, 0, 60, 52
2, 35540, Note_on_c, 0, 64, 0
2, 35540, Note_on_c, 0, 67, 0
2, 35544, Note_on_c, 0, 72, 0
2, 35564, Note_on_c, 0, 60, 0
2, 35620, Note_on_c, 0, 62, 63
2, 35620, Note_on_c, 0, 74, 53
2, 35620, Note_on_c, 0, 65, 39
2, 35636, Note_on_c, 0, 62, 0
2, 35640, Note_on_c, 0, 74, 0
2, 35640, Note_on_c, 0, 65, 0
2, 35740, Note_on_c, 0, 63, 52
2, 35740, Note_on_c, 0, 69, 56
2, 35744, Note_on_c, 0, 75, 55
2, 35748, Note_on_c, 0, 65, 26
2, 35768, Note_on_c, 0, 65, 0
2, 35784, Note_on_c, 0, 75, 0
2, 35788, Note_on_c, 0, 69, 0
2, 35816, Note_on_c, 0, 63, 0
2, 35860, Note_on_c, 0, 77, 71
2, 35864, Note_on_c, 0, 69, 52
2, 35868, Note_on_c, 0, 65, 61
2, 35868, Note_on_c, 0, 66, 46
2, 35884, Note_on_c, 0, 72, 31
2, 35920, Note_on_c, 0, 72, 0
2, 35928, Note_on_c, 0, 77, 0
2, 35936, Note_on_c, 0, 69, 0
2, 35948, Note_on_c, 0, 65, 0
2, 35948, Note_on_c, 0, 66, 0
2, 35976, Note_on_c, 0, 75, 51
2, 35976, Note_on_c, 0, 66, 40
2, 35984, Note_on_c, 0, 63, 47
2, 35992, Note_on_c, 0, 75, 0
2, 36028, Note_on_c, 0, 66, 0
2, 36036, Note_on_c, 0, 63, 0
2, 36096, Note_on_c, 0, 63, 57
2, 36096, Note_on_c, 0, 74, 65
2, 36100, Note_on_c, 0, 66, 44
2, 36100, Note_on_c, 0, 62, 54
2, 36112, Note_on_c, 0, 69, 25
2, 36120, Note_on_c, 0, 66, 0
2, 36128, Note_on_c, 0, 63, 0
2, 36132, Note_on_c, 0, 74, 0
2, 36132, Note_on_c, 0, 62, 0
2, 36140, Note_on_c, 0, 69, 0
2, 36196, Note_on_c, 0, 73, 57
2, 36200, Note_on_c, 0, 63, 46
2, 36204, Note_on_c, 0, 61, 47
2, 36204, Note_on_c, 0, 66, 50
2, 36232, Note_on_c, 0, 63, 0
2, 36244, Note_on_c, 0, 73, 0
2, 36248, Note_on_c, 0, 66, 0
2, 36260, Note_on_c, 0, 61, 0
2, 36324, Note_on_c, 0, 63, 43
2, 36324, Note_on_c, 0, 72, 49
2, 36324, Note_on_c, 0, 66, 45
2, 36332, Note_on_c, 0, 60, 42
2, 36384, Note_on_c, 0, 72, 0
2, 36388, Note_on_c, 0, 63, 0
2, 36396, Note_on_c, 0, 66, 0
2, 36396, Note_on_c, 0, 60, 0
2, 36456, Note_on_c, 0, 63, 50
2, 36460, Note_on_c, 0, 66, 54
2, 36464, Note_on_c, 0, 69, 49
2, 36472, Note_on_c, 0, 57, 46
2, 36492, Note_on_c, 0, 63, 0
2, 36512, Note_on_c, 0, 66, 0
2, 36512, Note_on_c, 0, 69, 0
2, 36548, Note_on_c, 0, 57, 0
2, 36588, Note_on_c, 0, 72, 52
2, 36588, Note_on_c, 0, 66, 59
2, 36588, Note_on_c, 0, 63, 51
2, 36592, Note_on_c, 0, 60, 51
2, 36608, Note_on_c, 0, 69, 31
2, 36632, Note_on_c, 0, 69, 0
2, 36640, Note_on_c, 0, 63, 0
2, 36652, Note_on_c, 0, 66, 0
2, 36660, Note_on_c, 0, 72, 0
2, 36676, Note_on_c, 0, 60, 0
2, 36708, Note_on_c, 0, 57, 43
2, 36712, Note_on_c, 0, 63, 45
2, 36712, Control_c, 0, 64, 127
2, 36712, Note_on_c, 0, 69, 48
2, 36736, Note_on_c, 0, 63, 0
2, 36736, Control_c, 0, 64, 0
2, 36764, Note_on_c, 0, 69, 0
2, 36772, Note_on_c, 0, 57, 0
2, 36788, Control_c, 0, 64, 127
2, 36796, Note_on_c, 0, 66, 58
2, 36848, Note_on_c, 0, 66, 0
2, 36852, Note_on_c, 0, 63, 43
2, 36864, Note_on_c, 0, 54, 39
2, 36868, Note_on_c, 0, 63, 0
2, 36880, Control_c, 0, 64, 0
2, 36892, Note_on_c, 0, 54, 0
2, 36924, Note_on_c, 0, 62, 51
2, 36924, Note_on_c, 0, 55, 42
2, 36928, Note_on_c, 0, 70, 56
2, 36960, Control_c, 0, 64, 127
2, 37052, Note_on_c, 0, 55, 0
2, 37076, Note_on_c, 0, 62, 0
2, 37112, Note_on_c, 0, 70, 0
2, 37112, Note_on_c, 0, 62, 25
2, 37116, Note_on_c, 0, 67, 49
2, 37132, Note_on_c, 0, 62, 0
2, 37140, Note_on_c, 0, 67, 0
2, 37308, Note_on_c, 0, 62, 30
2, 37308, Note_on_c, 0, 58, 43
2, 37316, Note_on_c, 0, 53, 35
2, 37316, Note_on_c, 0, 55, 39
2, 37412, Note_on_c, 0, 53, 0
2, 37420, Note_on_c, 0, 58, 0
2, 37428, Note_on_c, 0, 62, 0
2, 37460, Note_on_c, 0, 55, 0
2, 37600, Note_on_c, 0, 74, 56
2, 37604, Note_on_c, 0, 86, 49
2, 37624, Note_on_c, 0, 86, 0
2, 37636, Note_on_c, 0, 74, 0
2, 37676, Control_c, 0, 64, 0
2, 37704, Note_on_c, 0, 58, 38
2, 37704, Note_on_c, 0, 62, 35
2, 37708, Note_on_c, 0, 74, 45
2, 37712, Note_on_c, 0, 86, 43
2, 37716, Note_on_c, 0, 82, 45
2, 37716, Note_on_c, 0, 52, 39
2, 37752, Control_c, 0, 64, 127
2, 37816, Note_on_c, 0, 74, 0
2, 37816, Note_on_c, 0, 82, 0
2, 37820, Note_on_c, 0, 86, 0
2, 37828, Note_on_c, 0, 52, 0
2, 37832, Note_on_c, 0, 62, 0
2, 37844, Note_on_c, 0, 58, 0
2, 37912, Note_on_c, 0, 58, 42
2, 37916, Note_on_c, 0, 82, 47
2, 37916, Note_on_c, 0, 86, 48
2, 37920, Note_on_c, 0, 62, 36
2, 37920, Note_on_c, 0, 74, 37
2, 37924, Note_on_c, 0, 52, 37
2, 38008, Note_on_c, 0, 74, 0
2, 38008, Note_on_c, 0, 52, 0
2, 38016, Note_on_c, 0, 58, 0
2, 38016, Note_on_c, 0, 62, 0
2, 38020, Note_on_c, 0, 82, 0
2, 38028, Note_on_c, 0, 86, 0
2, 38288, Note_on_c, 0, 58, 49
2, 38296, Note_on_c, 0, 86, 57
2, 38296, Note_on_c, 0, 82, 54
2, 38296, Note_on_c, 0, 62, 34
2, 38300, Note_on_c, 0, 74, 50
2, 38324, Note_on_c, 0, 74, 0
2, 38328, Note_on_c, 0, 62, 0
2, 38332, Note_on_c, 0, 58, 0
2, 38344, Note_on_c, 0, 86, 0
2, 38344, Note_on_c, 0, 82, 0
2, 38444, Control_c, 0, 64, 0
2, 38488, Note_on_c, 0, 89, 90
2, 38492, Note_on_c, 0, 84, 78
2, 38492, Note_on_c, 0, 67, 73
2, 38492, Note_on_c, 0, 77, 79
2, 38492, Note_on_c, 0, 56, 63
2, 38492, Note_on_c, 0, 63, 57
2, 38496, Control_c, 0, 64, 127
2, 38496, Note_on_c, 0, 60, 57
2, 38596, Note_on_c, 0, 77, 0
2, 38608, Note_on_c, 0, 89, 0
2, 38608, Note_on_c, 0, 67, 0
2, 38608, Note_on_c, 0, 56, 0
2, 38612, Note_on_c, 0, 84, 0
2, 38616, Note_on_c, 0, 60, 0
2, 38624, Note_on_c, 0, 63, 0
2, 38692, Note_on_c, 0, 89, 72
2, 38696, Note_on_c, 0, 84, 68
2, 38700, Note_on_c, 0, 77, 58
2, 38704, Note_on_c, 0, 67, 57
2, 38704, Note_on_c, 0, 56, 51
2, 38704, Note_on_c, 0, 63, 52
2, 38712, Note_on_c, 0, 60, 54
2, 38796, Note_on_c, 0, 77, 0
2, 38800, Note_on_c, 0, 67, 0
2, 38804, Note_on_c, 0, 89, 0
2, 38804, Note_on_c, 0, 84, 0
2, 38804, Note_on_c, 0, 56, 0
2, 38804, Note_on_c, 0, 60, 0
2, 38812, Note_on_c, 0, 63, 0
2, 38908, Note_on_c, 0, 89, 66
2, 38908, Note_on_c, 0, 67, 52
2, 38908, Note_on_c, 0, 84, 60
2, 38908, Note_on_c, 0, 63, 50
2, 38908, Note_on_c, 0, 77, 52
2, 38908, Note_on_c, 0, 56, 45
2, 38916, Note_on_c, 0, 60, 54
2, 38960, Note_on_c, 0, 77, 0
2, 38972, Note_on_c, 0, 67, 0
2, 38972, Note_on_c, 0, 84, 0
2, 38976, Note_on_c, 0, 56, 0
2, 38976, Note_on_c, 0, 60, 0
2, 38980, Note_on_c, 0, 89, 0
2, 38988, Note_on_c, 0, 63, 0
2, 39084, Note_on_c, 0, 89, 63
2, 39088, Note_on_c, 0, 63, 53
2, 39088, Note_on_c, 0, 84, 61
2, 39092, Note_on_c, 0, 67, 48
2, 39092, Note_on_c, 0, 56, 46
2, 39096, Note_on_c, 0, 77, 48
2, 39100, Note_on_c, 0, 60, 43
2, 39120, Note_on_c, 0, 67, 0
2, 39124, Note_on_c, 0, 77, 0
2, 39136, Note_on_c, 0, 89, 0
2, 39148, Note_on_c, 0, 56, 0
2, 39152, Note_on_c, 0, 84, 0
2, 39160, Note_on_c, 0, 63, 0
2, 39180, Note_on_c, 0, 60, 0
2, 39256, Control_c, 0, 64, 0
2, 39288, Note_on_c, 0, 90, 75
2, 39288, Note_on_c, 0, 66, 68
2, 39288, Note_on_c, 0, 85, 68
2, 39288, Note_on_c, 0, 82, 68
2, 39288, Note_on_c, 0, 62, 58
2, 39288, Note_on_c, 0, 78, 57
2, 39296, Note_on_c, 0, 56, 52
2, 39300, Note_on_c, 0, 60, 53
2, 39328, Control_c, 0, 64, 127
2, 39420, Note_on_c, 0, 90, 0
2, 39420, Note_on_c, 0, 66, 0
2, 39424, Note_on_c, 0, 82, 0
2, 39428, Note_on_c, 0, 78, 0
2, 39428, Note_on_c, 0, 56, 0
2, 39436, Note_on_c, 0, 62, 0
2, 39436, Note_on_c, 0, 60, 0
2, 39440, Note_on_c, 0, 85, 0
2, 39480, Note_on_c, 0, 66, 60
2, 39484, Note_on_c, 0, 78, 57
2, 39484, Note_on_c, 0, 90, 61
2, 39488, Note_on_c, 0, 62, 41
2, 39488, Note_on_c, 0, 82, 60
2, 39488, Note_on_c, 0, 85, 49
2, 39488, Note_on_c, 0, 56, 48
2, 39488, Note_on_c, 0, 60, 35
2, 39564, Note_on_c, 0, 82, 0
2, 39564, Note_on_c, 0, 56, 0
2, 39564, Note_on_c, 0, 60, 0
2, 39568, Note_on_c, 0, 78, 0
2, 39572, Note_on_c, 0, 66, 0
2, 39576, Note_on_c, 0, 85, 0
2, 39580, Note_on_c, 0, 90, 0
2, 39580, Note_on_c, 0, 62, 0
2, 39748, Note_on_c, 0, 87, 58
2, 39752, Note_on_c, 0, 91, 67
2, 39752, Note_on_c, 0, 66, 64
2, 39756, Note_on_c, 0, 79, 64
2, 39756, Note_on_c, 0, 84, 59
2, 39756, Note_on_c, 0, 56, 52
2, 39760, Note_on_c, 0, 62, 52
2, 39768, Note_on_c, 0, 60, 48
2, 39784, Note_on_c, 0, 60, 0
2, 39796, Note_on_c, 0, 79, 0
2, 39808, Note_on_c, 0, 91, 0
2, 39808, Note_on_c, 0, 66, 0
2, 39812, Note_on_c, 0, 84, 0
2, 39816, Note_on_c, 0, 56, 0
2, 39820, Note_on_c, 0, 62, 0
2, 39828, Note_on_c, 0, 87, 0
2, 39880, Note_on_c, 0, 92, 58
2, 39880, Note_on_c, 0, 56, 56
2, 39880, Note_on_c, 0, 66, 55
2, 39888, Note_on_c, 0, 80, 50
2, 39888, Note_on_c, 0, 87, 42
2, 39900, Note_on_c, 0, 66, 0
2, 39912, Note_on_c, 0, 87, 0
2, 39940, Note_on_c, 0, 80, 0
2, 39944, Note_on_c, 0, 56, 0
2, 39952, Note_on_c, 0, 92, 0
2, 39992, Control_c, 0, 64, 0
2, 40020, Note_on_c, 0, 63, 55
2, 40028, Note_on_c, 0, 93, 56
2, 40028, Note_on_c, 0, 81, 54
2, 40028, Note_on_c, 0, 60, 50
2, 40036, Note_on_c, 0, 55, 45
2, 40044, Note_on_c, 0, 57, 38
2, 40080, Control_c, 0, 64, 127
2, 40176, Note_on_c, 0, 93, 0
2, 40216, Note_on_c, 0, 63, 0
2, 40224, Note_on_c, 0, 57, 0
2, 40236, Note_on_c, 0, 81, 0
2, 40264, Note_on_c, 0, 60, 0
2, 40360, Note_on_c, 0, 55, 0
2, 40396, Note_on_c, 0, 63, 41
2, 40400, Note_on_c, 0, 60, 48
2, 40404, Note_on_c, 0, 55, 10
2, 40408, Note_on_c, 0, 57, 37
2, 40532, Note_on_c, 0, 75, 82
2, 40576, Note_on_c, 0, 55, 0
2, 40580, Note_on_c, 0, 63, 0
2, 40596, Note_on_c, 0, 60, 0
2, 40600, Note_on_c, 0, 57, 0
2, 40616, Note_on_c, 0, 75, 0
2, 40632, Note_on_c, 0, 77, 46
2, 40668, Note_on_c, 0, 75, 53
2, 40672, Note_on_c, 0, 77, 0
2, 40732, Note_on_c, 0, 74, 57
2, 40736, Note_on_c, 0, 75, 0
2, 40764, Control_c, 0, 64, 0
2, 40776, Note_on_c, 0, 54, 44
2, 40780, Note_on_c, 0, 65, 21
2, 40780, Note_on_c, 0, 60, 41
2, 40800, Note_on_c, 0, 75, 56
2, 40804, Note_on_c, 0, 74, 0
2, 40840, Note_on_c, 0, 75, 0
2, 40904, Note_on_c, 0, 87, 61
2, 40920, Note_on_c, 0, 87, 0
2, 41024, Note_on_c, 0, 87, 55
2, 41048, Note_on_c, 0, 87, 0
2, 41052, Note_on_c, 0, 65, 0
2, 41064, Note_on_c, 0, 60, 0
2, 41164, Note_on_c, 0, 65, 31
2, 41168, Note_on_c, 0, 87, 41
2, 41172, Note_on_c, 0, 60, 31
2, 41188, Note_on_c, 0, 87, 0
2, 41292, Note_on_c, 0, 87, 47
2, 41308, Note_on_c, 0, 87, 0
2, 41352, Note_on_c, 0, 60, 0
2, 41356, Note_on_c, 0, 65, 0
2, 41364, Control_c, 0, 64, 127
2, 41412, Note_on_c, 0, 87, 49
2, 41432, Note_on_c, 0, 87, 0
2, 41444, Note_on_c, 0, 54, 0
2, 41512, Control_c, 0, 64, 0
2, 41520, Note_on_c, 0, 87, 49
2, 41540, Note_on_c, 0, 55, 37
2, 41544, Note_on_c, 0, 57, 37
2, 41548, Note_on_c, 0, 87, 0
2, 41556, Note_on_c, 0, 58, 32
2, 41564, Note_on_c, 0, 62, 15
2, 41636, Note_on_c, 0, 87, 58
2, 41676, Note_on_c, 0, 87, 0
2, 41684, Note_on_c, 0, 86, 47
2, 41740, Note_on_c, 0, 86, 0
2, 41792, Note_on_c, 0, 86, 54
2, 41828, Note_on_c, 0, 86, 0
2, 41888, Note_on_c, 0, 86, 52
2, 41912, Note_on_c, 0, 86, 0
2, 41968, Control_c, 0, 64, 127
2, 41980, Note_on_c, 0, 86, 55
2, 42136, Note_on_c, 0, 58, 0
2, 42140, Note_on_c, 0, 57, 0
2, 42140, Note_on_c, 0, 62, 0
2, 42148, Note_on_c, 0, 55, 0
2, 42476, Control_c, 0, 64, 0
2, 42476, Note_on_c, 0, 65, 52
2, 42480, Note_on_c, 0, 61, 45
2, 42488, Note_on_c, 0, 60, 39
2, 42496, Note_on_c, 0, 56, 34
2, 42592, Note_on_c, 0, 86, 0
2, 42600, Control_c, 0, 64, 127
2, 42680, Note_on_c, 0, 60, 0
2, 42688, Note_on_c, 0, 82, 60
2, 42692, Note_on_c, 0, 65, 0
2, 42704, Control_c, 0, 64, 0
2, 42716, Note_on_c, 0, 61, 0
2, 42760, Note_on_c, 0, 82, 0
2, 42784, Note_on_c, 0, 84, 66
2, 42796, Note_on_c, 0, 56, 0
2, 42832, Note_on_c, 0, 85, 71
2, 42836, Note_on_c, 0, 84, 0
2, 42848, Note_on_c, 0, 61, 38
2, 42856, Note_on_c, 0, 64, 36
2, 42856, Note_on_c, 0, 55, 38
2, 42888, Note_on_c, 0, 85, 0
2, 42888, Note_on_c, 0, 87, 74
2, 42924, Note_on_c, 0, 87, 0
2, 42924, Note_on_c, 0, 88, 64
2, 42976, Note_on_c, 0, 88, 0
2, 42980, Note_on_c, 0, 64, 0
2, 42980, Note_on_c, 0, 90, 66
2, 42992, Note_on_c, 0, 55, 0
2, 43012, Note_on_c, 0, 90, 0
2, 43044, Note_on_c, 0, 91, 72
2, 43048, Note_on_c, 0, 61, 0
2, 43096, Note_on_c, 0, 91, 0
2, 43100, Note_on_c, 0, 93, 63
2, 43156, Note_on_c, 0, 58, 31
2, 43156, Note_on_c, 0, 53, 30
2, 43156, Note_on_c, 0, 60, 39
2, 43160, Note_on_c, 0, 93, 0
2, 43160, Note_on_c, 0, 94, 56
2, 43168, Note_on_c, 0, 63, 9
2, 43200, Note_on_c, 0, 94, 0
2, 43212, Note_on_c, 0, 95, 51
2, 43252, Note_on_c, 0, 95, 0
2, 43280, Note_on_c, 0, 96, 57
2, 43320, Note_on_c, 0, 96, 0
2, 43380, Note_on_c, 0, 96, 62
2, 43408, Note_on_c, 0, 96, 0
2, 43492, Note_on_c, 0, 96, 55
2, 43512, Note_on_c, 0, 96, 0
2, 43596, Note_on_c, 0, 96, 48
2, 43616, Note_on_c, 0, 96, 0
2, 43688, Note_on_c, 0, 96, 49
2, 43708, Note_on_c, 0, 96, 0
2, 43772, Control_c, 0, 64, 127
2, 43784, Note_on_c, 0, 96, 54
2, 43788, Control_c, 0, 64, 0
2, 43800, Note_on_c, 0, 96, 0
2, 43876, Control_c, 0, 64, 127
2, 43880, Note_on_c, 0, 96, 61
2, 43936, Note_on_c, 0, 96, 0
2, 43972, Note_on_c, 0, 98, 55
2, 44000, Note_on_c, 0, 98, 0
2, 44064, Note_on_c, 0, 98, 54
2, 44096, Note_on_c, 0, 98, 0
2, 44144, Note_on_c, 0, 98, 68
2, 44156, Note_on_c, 0, 58, 0
2, 44168, Note_on_c, 0, 53, 0
2, 44184, Note_on_c, 0, 60, 0
2, 44184, Note_on_c, 0, 63, 0
2, 44188, Note_on_c, 0, 98, 0
2, 44240, Note_on_c, 0, 98, 82
2, 44408, Note_on_c, 0, 63, 39
2, 44424, Note_on_c, 0, 54, 24
2, 44440, Note_on_c, 0, 63, 0
2, 44496, Note_on_c, 0, 54, 0
2, 44500, Note_on_c, 0, 98, 0
2, 44520, Note_on_c, 0, 96, 57
2, 44576, Note_on_c, 0, 96, 0
2, 44584, Control_c, 0, 64, 0
2, 44616, Note_on_c, 0, 94, 56
2, 44620, Note_on_c, 0, 58, 39
2, 44624, Note_on_c, 0, 55, 31
2, 44628, Note_on_c, 0, 62, 22
2, 44632, Note_on_c, 0, 57, 32
2, 44676, Note_on_c, 0, 94, 0
2, 44684, Note_on_c, 0, 96, 49
2, 44732, Note_on_c, 0, 94, 42
2, 44740, Note_on_c, 0, 96, 0
2, 44780, Note_on_c, 0, 94, 0
2, 44784, Note_on_c, 0, 93, 44
2, 44808, Note_on_c, 0, 93, 0
2, 44852, Note_on_c, 0, 94, 55
2, 44916, Note_on_c, 0, 94, 0
2, 44948, Note_on_c, 0, 98, 68
2, 44988, Note_on_c, 0, 98, 0
2, 45060, Note_on_c, 0, 94, 42
2, 45080, Note_on_c, 0, 94, 0
2, 45192, Control_c, 0, 64, 127
2, 45236, Note_on_c, 0, 57, 0
2, 45248, Note_on_c, 0, 58, 0
2, 45256, Note_on_c, 0, 62, 0
2, 45280, Note_on_c, 0, 55, 0
2, 45296, Note_on_c, 0, 96, 74
2, 45340, Note_on_c, 0, 96, 0
2, 45380, Control_c, 0, 64, 0
2, 45392, Note_on_c, 0, 94, 66
2, 45404, Note_on_c, 0, 58, 39
2, 45420, Note_on_c, 0, 52, 33
2, 45440, Note_on_c, 0, 63, 9
2, 45448, Note_on_c, 0, 94, 0
2, 45480, Note_on_c, 0, 85, 45
2, 45540, Note_on_c, 0, 85, 0
2, 45604, Note_on_c, 0, 93, 74
2, 45612, Note_on_c, 0, 63, 0
2, 45664, Note_on_c, 0, 93, 0
2, 45672, Note_on_c, 0, 88, 62
2, 45712, Note_on_c, 0, 88, 0
2, 45736, Note_on_c, 0, 82, 46
2, 45756, Note_on_c, 0, 82, 0
2, 45872, Note_on_c, 0, 90, 71
2, 45928, Note_on_c, 0, 90, 0
2, 45928, Note_on_c, 0, 85, 57
2, 45948, Note_on_c, 0, 58, 0
2, 45972, Note_on_c, 0, 85, 0
2, 45988, Note_on_c, 0, 77, 46
2, 46008, Note_on_c, 0, 77, 0
2, 46008, Note_on_c, 0, 58, 24
2, 46008, Note_on_c, 0, 63, 28
2, 46064, Note_on_c, 0, 52, 0
2, 46072, Note_on_c, 0, 58, 0
2, 46080, Note_on_c, 0, 87, 69
2, 46100, Note_on_c, 0, 63, 0
2, 46120, Note_on_c, 0, 87, 0
2, 46184, Note_on_c, 0, 85, 60
2, 46200, Note_on_c, 0, 85, 0
2, 46212, Note_on_c, 0, 56, 32
2, 46216, Note_on_c, 0, 63, 39
2, 46220, Note_on_c, 0, 60, 41
2, 46292, Note_on_c, 0, 84, 56
2, 46332, Note_on_c, 0, 84, 0
2, 46392, Note_on_c, 0, 82, 55
2, 46408, Note_on_c, 0, 82, 0
2, 46468, Note_on_c, 0, 80, 53
2, 46488, Note_on_c, 0, 80, 0
2, 46516, Note_on_c, 0, 82, 52
2, 46544, Note_on_c, 0, 63, 0
2, 46560, Note_on_c, 0, 80, 40
2, 46576, Note_on_c, 0, 82, 0
2, 46596, Note_on_c, 0, 80, 0
2, 46604, Note_on_c, 0, 79, 36
2, 46620, Note_on_c, 0, 79, 0
2, 46656, Note_on_c, 0, 77, 65
2, 46688, Note_on_c, 0, 63, 31
2, 46704, Note_on_c, 0, 77, 0
2, 46732, Note_on_c, 0, 76, 39
2, 46780, Note_on_c, 0, 60, 0
2, 46780, Note_on_c, 0, 63, 0
2, 46796, Note_on_c, 0, 76, 0
2, 46812, Note_on_c, 0, 56, 0
2, 46820, Note_on_c, 0, 77, 65
2, 46876, Note_on_c, 0, 77, 0
2, 46908, Note_on_c, 0, 79, 66
2, 46916, Note_on_c, 0, 63, 33
2, 46924, Note_on_c, 0, 56, 38
2, 46928, Note_on_c, 0, 60, 39
2, 46964, Note_on_c, 0, 53, 13
2, 46976, Note_on_c, 0, 79, 0
2, 47008, Note_on_c, 0, 80, 63
2, 47084, Note_on_c, 0, 80, 0
2, 47104, Note_on_c, 0, 82, 60
2, 47104, Note_on_c, 0, 70, 54
2, 47224, Note_on_c, 0, 60, 0
2, 47240, Note_on_c, 0, 63, 0
2, 47244, Note_on_c, 0, 82, 0
2, 47256, Note_on_c, 0, 70, 0
2, 47276, Control_c, 0, 64, 127
2, 47292, Note_on_c, 0, 63, 43
2, 47296, Note_on_c, 0, 80, 57
2, 47300, Note_on_c, 0, 68, 51
2, 47312, Note_on_c, 0, 60, 35
2, 47448, Note_on_c, 0, 53, 0
2, 47464, Note_on_c, 0, 60, 0
2, 47472, Note_on_c, 0, 63, 0
2, 47476, Note_on_c, 0, 56, 0
2, 47520, Note_on_c, 0, 68, 0
2, 47528, Note_on_c, 0, 80, 0
2, 47624, Control_c, 0, 64, 0
2, 47668, Note_on_c, 0, 79, 53
2, 47668, Note_on_c, 0, 60, 40
2, 47672, Note_on_c, 0, 67, 36
2, 47672, Note_on_c, 0, 55, 36
2, 47676, Note_on_c, 0, 74, 47
2, 47676, Note_on_c, 0, 62, 37
2, 47704, Control_c, 0, 64, 127
2, 48028, Note_on_c, 0, 67, 0
2, 48040, Note_on_c, 0, 74, 0
2, 48052, Note_on_c, 0, 62, 0
2, 48068, Note_on_c, 0, 60, 0
2, 48096, Note_on_c, 0, 55, 0
2, 48136, Note_on_c, 0, 79, 0
2, 48416, Control_c, 0, 64, 0
2, 48436, Note_on_c, 0, 62, 37
2, 48440, Note_on_c, 0, 58, 42
2, 48444, Note_on_c, 0, 52, 31
2, 48744, Note_on_c, 0, 85, 86
2, 48784, Note_on_c, 0, 85, 0
2, 48840, Note_on_c, 0, 87, 87
2, 48896, Note_on_c, 0, 62, 0
2, 48908, Note_on_c, 0, 58, 0
2, 48912, Note_on_c, 0, 87, 0
2, 48940, Note_on_c, 0, 88, 88
2, 48968, Note_on_c, 0, 62, 40
2, 48972, Note_on_c, 0, 58, 45
2, 48988, Note_on_c, 0, 88, 0
2, 49040, Note_on_c, 0, 85, 68
2, 49056, Note_on_c, 0, 52, 0
2, 49056, Note_on_c, 0, 62, 0
2, 49076, Note_on_c, 0, 58, 0
2, 49116, Note_on_c, 0, 85, 0
2, 49152, Note_on_c, 0, 84, 76
2, 49164, Note_on_c, 0, 63, 39
2, 49168, Note_on_c, 0, 60, 42
2, 49168, Note_on_c, 0, 53, 34
2, 49172, Note_on_c, 0, 56, 36
2, 49196, Note_on_c, 0, 84, 0
2, 49248, Note_on_c, 0, 82, 57
2, 49296, Note_on_c, 0, 82, 0
2, 49348, Note_on_c, 0, 80, 68
2, 49352, Note_on_c, 0, 82, 49
2, 49408, Note_on_c, 0, 80, 0
2, 49408, Note_on_c, 0, 82, 0
2, 49440, Note_on_c, 0, 79, 51
2, 49440, Note_on_c, 0, 82, 40
2, 49476, Note_on_c, 0, 79, 0
2, 49508, Note_on_c, 0, 82, 0
2, 49540, Note_on_c, 0, 77, 50
2, 49592, Note_on_c, 0, 77, 0
2, 49644, Note_on_c, 0, 75, 42
2, 49656, Note_on_c, 0, 82, 17
2, 49692, Note_on_c, 0, 63, 0
2, 49704, Note_on_c, 0, 60, 0
2, 49724, Note_on_c, 0, 75, 0
2, 49772, Note_on_c, 0, 53, 0
2, 49776, Control_c, 0, 64, 127
2, 49784, Note_on_c, 0, 63, 24
2, 49796, Note_on_c, 0, 72, 45
2, 49812, Note_on_c, 0, 56, 0
2, 49828, Note_on_c, 0, 63, 0
2, 49832, Note_on_c, 0, 82, 0
2, 49900, Note_on_c, 0, 72, 0
2, 49952, Control_c, 0, 64, 0
2, 49980, Note_on_c, 0, 67, 31
2, 49988, Note_on_c, 0, 74, 55
2, 49988, Note_on_c, 0, 56, 31
2, 50012, Note_on_c, 0, 62, 22
2, 50024, Control_c, 0, 64, 127
2, 50064, Note_on_c, 0, 74, 0
2, 50108, Note_on_c, 0, 75, 46
2, 50144, Note_on_c, 0, 67, 0
2, 50144, Note_on_c, 0, 75, 0
2, 50176, Note_on_c, 0, 77, 68
2, 50232, Note_on_c, 0, 77, 0
2, 50240, Note_on_c, 0, 62, 0
2, 50268, Note_on_c, 0, 56, 0
2, 50344, Control_c, 0, 64, 0
2, 50364, Note_on_c, 0, 56, 31
2, 50364, Note_on_c, 0, 70, 49
2, 50368, Note_on_c, 0, 67, 23
2, 50376, Note_on_c, 0, 62, 36
2, 50404, Control_c, 0, 64, 127
2, 50436, Note_on_c, 0, 67, 0
2, 50464, Note_on_c, 0, 62, 0
2, 50556, Note_on_c, 0, 56, 0
2, 50852, Note_on_c, 0, 70, 0
2, 51124, Note_on_c, 0, 79, 84
2, 51224, Note_on_c, 0, 79, 0
2, 51244, Note_on_c, 0, 74, 68
2, 51320, Note_on_c, 0, 74, 0
2, 51352, Note_on_c, 0, 72, 36
2, 51420, Note_on_c, 0, 72, 0
2, 51448, Note_on_c, 0, 77, 82
2, 51484, Control_c, 0, 64, 0
2, 51508, Note_on_c, 0, 68, 32
2, 51516, Note_on_c, 0, 77, 0
2, 51524, Note_on_c, 0, 63, 38
2, 51528, Note_on_c, 0, 58, 32
2, 51544, Note_on_c, 0, 75, 51
2, 51548, Note_on_c, 0, 60, 31
2, 51592, Note_on_c, 0, 68, 0
2, 51636, Note_on_c, 0, 63, 0
2, 51640, Note_on_c, 0, 72, 57
2, 51652, Note_on_c, 0, 60, 0
2, 51676, Control_c, 0, 64, 127
2, 51688, Note_on_c, 0, 58, 0
2, 51700, Note_on_c, 0, 72, 0
2, 51736, Note_on_c, 0, 68, 36
2, 51756, Note_on_c, 0, 75, 0
2, 51792, Note_on_c, 0, 68, 0
2, 51888, Control_c, 0, 64, 0
2, 51904, Note_on_c, 0, 65, 61
2, 51912, Note_on_c, 0, 56, 39
2, 51924, Note_on_c, 0, 68, 35
2, 51924, Control_c, 0, 64, 127
2, 51944, Note_on_c, 0, 68, 0
2, 52060, Note_on_c, 0, 65, 0
2, 52088, Note_on_c, 0, 56, 0
2, 52104, Note_on_c, 0, 46, 40
2, 52224, Control_c, 0, 64, 0
2, 52228, Note_on_c, 0, 46, 0
2, 52244, System_exclusive, 8, 67, 16, 76, 8, 1, 114, 64, 247
2, 52244, System_exclusive, 8, 67, 16, 76, 8, 1, 115, 64, 247
2, 52284, Note_on_c, 0, 63, 46
2, 52288, Note_on_c, 0, 55, 39
2, 52296, Note_on_c, 0, 60, 45
2, 52300, Note_on_c, 0, 45, 32
2, 52408, Control_c, 0, 64, 127
2, 52420, Note_on_c, 0, 55, 0
2, 52440, Note_on_c, 0, 45, 0
2, 52452, Note_on_c, 0, 60, 0
2, 52500, Note_on_c, 0, 63, 0
2, 52660, Note_on_c, 0, 63, 28
2, 52680, Note_on_c, 0, 60, 29
2, 52680, Note_on_c, 0, 55, 34
2, 52680, Note_on_c, 0, 57, 33
2, 52692, Control_c, 0, 64, 0
2, 52700, Control_c, 0, 64, 127
2, 52772, Control_c, 0, 64, 0
2, 52808, Note_on_c, 0, 84, 51
2, 52824, Note_on_c, 0, 84, 0
2, 52836, Note_on_c, 0, 55, 0
2, 52848, Note_on_c, 0, 63, 0
2, 52860, Note_on_c, 0, 57, 0
2, 52864, Note_on_c, 0, 60, 0
2, 52920, Note_on_c, 0, 86, 98
2, 52924, Note_on_c, 0, 93, 76
2, 52976, Note_on_c, 0, 93, 0
2, 52992, Note_on_c, 0, 87, 77
2, 52996, Note_on_c, 0, 93, 21
2, 53000, Note_on_c, 0, 86, 0
2, 53008, Note_on_c, 0, 90, 38
2, 53016, Note_on_c, 0, 93, 0
2, 53032, Note_on_c, 0, 90, 0
2, 53040, Note_on_c, 0, 87, 0
2, 53068, Note_on_c, 0, 86, 86
2, 53068, Note_on_c, 0, 93, 81
2, 53080, Note_on_c, 0, 64, 43
2, 53084, Note_on_c, 0, 54, 38
2, 53084, Note_on_c, 0, 60, 42
2, 53124, Note_on_c, 0, 86, 0
2, 53140, Note_on_c, 0, 87, 68
2, 53168, Note_on_c, 0, 90, 24
2, 53176, Note_on_c, 0, 93, 0
2, 53188, Note_on_c, 0, 90, 0
2, 53196, Note_on_c, 0, 87, 0
2, 53216, Note_on_c, 0, 86, 74
2, 53220, Note_on_c, 0, 93, 57
2, 53424, Control_c, 0, 64, 127
2, 53436, Note_on_c, 0, 64, 0
2, 53460, Note_on_c, 0, 60, 0
2, 53484, Note_on_c, 0, 54, 0
2, 53564, Note_on_c, 0, 54, 46
2, 53660, Note_on_c, 0, 54, 0
2, 53732, Note_on_c, 0, 93, 0
2, 53752, Note_on_c, 0, 86, 0
2, 53760, Control_c, 0, 64, 0
2, 53796, Note_on_c, 0, 57, 32
2, 53796, Note_on_c, 0, 55, 32
2, 53800, Note_on_c, 0, 62, 22
2, 53800, Note_on_c, 0, 58, 35
2, 53876, Control_c, 0, 64, 127
2, 53996, Note_on_c, 0, 57, 0
2, 54000, Note_on_c, 0, 62, 0
2, 54008, Note_on_c, 0, 58, 0
2, 54020, Note_on_c, 0, 55, 0
2, 54180, Note_on_c, 0, 57, 32
2, 54180, Note_on_c, 0, 62, 31
2, 54188, Note_on_c, 0, 55, 39
2, 54188, Note_on_c, 0, 58, 38
2, 54292, Note_on_c, 0, 55, 0
2, 54296, Note_on_c, 0, 57, 0
2, 54308, Note_on_c, 0, 58, 0
2, 54320, Note_on_c, 0, 62, 0
2, 54552, Control_c, 0, 64, 0
2, 54572, Note_on_c, 0, 65, 32
2, 54572, Note_on_c, 0, 61, 39
2, 54576, Note_on_c, 0, 60, 39
2, 54576, Note_on_c, 0, 55, 33
2, 54592, Note_on_c, 0, 58, 31
2, 54696, Note_on_c, 0, 87, 86
2, 54756, Note_on_c, 0, 87, 0
2, 54768, Note_on_c, 0, 88, 82
2, 54780, Note_on_c, 0, 65, 0
2, 54808, Note_on_c, 0, 60, 0
2, 54820, Note_on_c, 0, 61, 0
2, 54832, Note_on_c, 0, 88, 0
2, 54836, Note_on_c, 0, 85, 81
2, 54840, Note_on_c, 0, 55, 0
2, 54852, Note_on_c, 0, 58, 0
2, 54896, Note_on_c, 0, 85, 0
2, 54896, Note_on_c, 0, 84, 70
2, 54928, Note_on_c, 0, 84, 0
2, 54960, Note_on_c, 0, 82, 81
2, 54976, Note_on_c, 0, 61, 38
2, 54984, Note_on_c, 0, 55, 38
2, 54984, Note_on_c, 0, 64, 27
2, 54992, Note_on_c, 0, 82, 0
2, 55040, Note_on_c, 0, 81, 70
2, 55080, Note_on_c, 0, 81, 0
2, 55104, Note_on_c, 0, 82, 39
2, 55132, Note_on_c, 0, 81, 62
2, 55156, Note_on_c, 0, 82, 0
2, 55176, Note_on_c, 0, 81, 0
2, 55180, Note_on_c, 0, 64, 0
2, 55184, Note_on_c, 0, 79, 54
2, 55192, Note_on_c, 0, 55, 0
2, 55216, Note_on_c, 0, 79, 0
2, 55244, Note_on_c, 0, 61, 0
2, 55244, Note_on_c, 0, 78, 54
2, 55296, Note_on_c, 0, 78, 0
2, 55312, Note_on_c, 0, 76, 53
2, 55348, Note_on_c, 0, 75, 61
2, 55350, Note_on_c, 0, 76, 0
2, 55356, Note_on_c, 0, 58, 38
2, 55368, Note_on_c, 0, 60, 32
2, 55372, Note_on_c, 0, 63, 17
2, 55380, Note_on_c, 0, 53, 18
2, 55396, Note_on_c, 0, 75, 0
2, 55412, Note_on_c, 0, 74, 46
2, 55448, Note_on_c, 0, 74, 0
2, 55460, Note_on_c, 0, 73, 57
2, 55504, Note_on_c, 0, 73, 0
2, 55516, Note_on_c, 0, 72, 48
2, 55560, Note_on_c, 0, 72, 0
2, 55616, Note_on_c, 0, 72, 40
2, 55636, Note_on_c, 0, 72, 0
2, 55700, Note_on_c, 0, 72, 46
2, 55724, Note_on_c, 0, 72, 0
2, 55784, Note_on_c, 0, 72, 44
2, 55808, Note_on_c, 0, 72, 0
2, 55864, Note_on_c, 0, 72, 47
2, 55888, Note_on_c, 0, 72, 0
2, 55948, Note_on_c, 0, 72, 47
2, 55968, Note_on_c, 0, 72, 0
2, 56020, Note_on_c, 0, 72, 45
2, 56044, Note_on_c, 0, 72, 0
2, 56096, Note_on_c, 0, 72, 50
2, 56124, Note_on_c, 0, 72, 0
2, 56168, Note_on_c, 0, 72, 53
2, 56412, Note_on_c, 0, 72, 0
2, 56420, Note_on_c, 0, 60, 0
2, 56428, Note_on_c, 0, 58, 0
2, 56428, Note_on_c, 0, 53, 0
2, 56432, Control_c, 0, 64, 127
2, 56440, Note_on_c, 0, 63, 0
2, 56680, Note_on_c, 0, 74, 81
2, 56684, Note_on_c, 0, 70, 70
2, 56688, Note_on_c, 0, 65, 54
2, 56692, Note_on_c, 0, 56, 57
2, 56696, Note_on_c, 0, 67, 53
2, 56712, Note_on_c, 0, 67, 0
2, 56752, Note_on_c, 0, 74, 0
2, 56756, Note_on_c, 0, 70, 0
2, 56768, Note_on_c, 0, 65, 0
2, 56844, Control_c, 0, 64, 0
2, 56852, Note_on_c, 0, 56, 0
2, 56860, Note_on_c, 0, 65, 69
2, 56864, Note_on_c, 0, 72, 68
2, 56864, Note_on_c, 0, 62, 65
2, 56868, Note_on_c, 0, 55, 54
2, 56940, Control_c, 0, 64, 127
2, 57004, Note_on_c, 0, 72, 0
2, 57044, Note_on_c, 0, 70, 66
2, 57108, Note_on_c, 0, 55, 0
2, 57140, Note_on_c, 0, 65, 0
2, 57164, Note_on_c, 0, 62, 0
2, 57200, Note_on_c, 0, 70, 0
2, 57236, Note_on_c, 0, 62, 41
2, 57236, Note_on_c, 0, 65, 59
2, 57248, Note_on_c, 0, 55, 33
2, 57356, Note_on_c, 0, 62, 0
2, 57368, Note_on_c, 0, 55, 0
2, 57428, Note_on_c, 0, 65, 0
2, 57432, Note_on_c, 0, 62, 51
2, 57468, Note_on_c, 0, 62, 0
2, 57604, Control_c, 0, 64, 0
2, 57616, Note_on_c, 0, 68, 48
2, 57616, Note_on_c, 0, 58, 45
2, 57624, Note_on_c, 0, 61, 48
2, 57624, Note_on_c, 0, 48, 42
2, 57636, Note_on_c, 0, 55, 36
2, 57640, Note_on_c, 0, 64, 40
2, 57700, Control_c, 0, 64, 127
2, 57808, Note_on_c, 0, 58, 0
2, 57832, Note_on_c, 0, 55, 0
2, 57852, Note_on_c, 0, 64, 0
2, 57876, Note_on_c, 0, 68, 0
2, 57896, Note_on_c, 0, 61, 0
2, 57992, Control_c, 0, 64, 0
2, 58020, Note_on_c, 0, 58, 42
2, 58020, Control_c, 0, 64, 127
2, 58024, Note_on_c, 0, 61, 41
2, 58028, Note_on_c, 0, 67, 38
2, 58040, Note_on_c, 0, 55, 26
2, 58084, Note_on_c, 0, 55, 0
2, 58116, Note_on_c, 0, 67, 0
2, 58136, Note_on_c, 0, 61, 0
2, 58140, Note_on_c, 0, 58, 0
2, 58176, Note_on_c, 0, 48, 0
2, 58432, Note_on_c, 0, 52, 102
2, 58444, Note_on_c, 0, 41, 51
2, 58448, Control_c, 0, 64, 104
2, 58448, Control_c, 0, 64, 0
2, 58544, Note_on_c, 0, 52, 0
2, 58556, Note_on_c, 0, 53, 83
2, 58648, Note_on_c, 0, 55, 75
2, 58664, Note_on_c, 0, 53, 0
2, 58748, Note_on_c, 0, 55, 0
2, 58756, Note_on_c, 0, 56, 82
2, 58776, Note_on_c, 0, 51, 39
2, 58848, Note_on_c, 0, 56, 0
2, 58852, Note_on_c, 0, 53, 57
2, 58940, Note_on_c, 0, 53, 0
2, 58940, Note_on_c, 0, 55, 80
2, 58984, Note_on_c, 0, 41, 0
2, 59008, Note_on_c, 0, 55, 0
2, 59020, Note_on_c, 0, 51, 0
2, 59028, Note_on_c, 0, 56, 75
2, 59120, Note_on_c, 0, 56, 0
2, 59128, Note_on_c, 0, 58, 72
2, 59224, Note_on_c, 0, 58, 0
2, 59228, Note_on_c, 0, 55, 52
2, 59232, Note_on_c, 0, 49, 46
2, 59312, Note_on_c, 0, 55, 0
2, 59328, Note_on_c, 0, 56, 67
2, 59404, Note_on_c, 0, 56, 0
2, 59416, Note_on_c, 0, 58, 55
2, 59496, Note_on_c, 0, 58, 0
2, 59516, Note_on_c, 0, 59, 68
2, 59532, Note_on_c, 0, 56, 41
2, 59568, Note_on_c, 0, 59, 0
2, 59592, Control_c, 0, 64, 127
2, 59600, Note_on_c, 0, 61, 43
2, 59672, Note_on_c, 0, 61, 0
2, 59696, Note_on_c, 0, 63, 55
2, 59704, Note_on_c, 0, 59, 39
2, 59744, Note_on_c, 0, 49, 0
2, 59744, Note_on_c, 0, 56, 0
2, 59748, Note_on_c, 0, 63, 0
2, 59772, Note_on_c, 0, 59, 0
2, 59780, Note_on_c, 0, 65, 47
2, 59844, Note_on_c, 0, 65, 0
2, 59888, Note_on_c, 0, 72, 72
2, 59908, Control_c, 0, 64, 0
2, 59932, Note_on_c, 0, 65, 22
2, 59944, Note_on_c, 0, 62, 33
2, 59948, Note_on_c, 0, 60, 31
2, 59952, Note_on_c, 0, 72, 0
2, 59956, Note_on_c, 0, 55, 32
2, 59984, Note_on_c, 0, 69, 41
2, 60064, Note_on_c, 0, 69, 0
2, 60076, Note_on_c, 0, 70, 52
2, 60128, Note_on_c, 0, 65, 0
2, 60132, Note_on_c, 0, 70, 0
2, 60172, Note_on_c, 0, 67, 30
2, 60196, Note_on_c, 0, 60, 0
2, 60212, Note_on_c, 0, 62, 0
2, 60304, Note_on_c, 0, 67, 0
2, 60352, Note_on_c, 0, 69, 46
2, 60356, Note_on_c, 0, 65, 27
2, 60368, Note_on_c, 0, 60, 29
2, 60384, Control_c, 0, 64, 127
2, 60460, Note_on_c, 0, 65, 0
2, 60472, Note_on_c, 0, 60, 0
2, 60496, Note_on_c, 0, 55, 0
2, 60504, Note_on_c, 0, 69, 0
2, 60688, Control_c, 0, 64, 0
2, 60752, Note_on_c, 0, 62, 37
2, 60756, Note_on_c, 0, 57, 30
2, 60760, Note_on_c, 0, 58, 33
2, 60784, Note_on_c, 0, 58, 0
2, 60788, Note_on_c, 0, 62, 0
2, 60804, Note_on_c, 0, 57, 0
2, 60936, Note_on_c, 0, 57, 38
2, 60936, Note_on_c, 0, 62, 35
2, 60944, Note_on_c, 0, 58, 40
2, 60984, Note_on_c, 0, 57, 0
2, 60984, Note_on_c, 0, 62, 0
2, 60996, Note_on_c, 0, 58, 0
2, 61176, Control_c, 0, 64, 127
2, 61244, Note_on_c, 0, 62, 36
2, 61248, Note_on_c, 0, 58, 42
2, 61248, Note_on_c, 0, 52, 36
2, 61304, Note_on_c, 0, 52, 0
2, 61320, Note_on_c, 0, 58, 0
2, 61344, Note_on_c, 0, 62, 0
2, 61504, Control_c, 0, 64, 0
2, 61512, Note_on_c, 0, 67, 31
2, 61512, Note_on_c, 0, 63, 39
2, 61516, Note_on_c, 0, 56, 29
2, 61524, Note_on_c, 0, 60, 46
2, 61700, Note_on_c, 0, 91, 77
2, 61704, Note_on_c, 0, 87, 79
2, 61720, Note_on_c, 0, 67, 0
2, 61736, Note_on_c, 0, 87, 0
2, 61740, Note_on_c, 0, 60, 0
2, 61744, Note_on_c, 0, 91, 0
2, 61756, Note_on_c, 0, 56, 0
2, 61760, Note_on_c, 0, 63, 0
2, 61760, Control_c, 0, 64, 127
2, 61776, Note_on_c, 0, 86, 38
2, 61796, Note_on_c, 0, 86, 0
2, 61796, Control_c, 0, 64, 0
2, 61836, Note_on_c, 0, 87, 75
2, 61836, Note_on_c, 0, 91, 79
2, 61844, Note_on_c, 0, 56, 41
2, 61844, Note_on_c, 0, 67, 36
2, 61852, Note_on_c, 0, 63, 40
2, 61856, Note_on_c, 0, 60, 46
2, 61916, Control_c, 0, 64, 127
2, 61940, Note_on_c, 0, 91, 0
2, 61944, Note_on_c, 0, 87, 0
2, 61972, Note_on_c, 0, 67, 0
2, 61972, Note_on_c, 0, 89, 60
2, 61980, Note_on_c, 0, 86, 50
2, 61988, Note_on_c, 0, 63, 0
2, 61988, Note_on_c, 0, 60, 0
2, 62012, Note_on_c, 0, 56, 0
2, 62016, Note_on_c, 0, 86, 0
2, 62020, Note_on_c, 0, 89, 0
2, 62052, Note_on_c, 0, 84, 42
2, 62052, Note_on_c, 0, 87, 31
2, 62056, Control_c, 0, 64, 0
2, 62072, Note_on_c, 0, 84, 0
2, 62080, Note_on_c, 0, 87, 0
2, 62108, Note_on_c, 0, 67, 34
2, 62108, Note_on_c, 0, 63, 45
2, 62108, Note_on_c, 0, 56, 35
2, 62112, Note_on_c, 0, 89, 68
2, 62112, Note_on_c, 0, 86, 66
2, 62116, Note_on_c, 0, 60, 49
2, 62132, Control_c, 0, 64, 127
2, 62188, Note_on_c, 0, 89, 0
2, 62188, Note_on_c, 0, 86, 0
2, 62200, Note_on_c, 0, 67, 0
2, 62212, Note_on_c, 0, 56, 0
2, 62220, Note_on_c, 0, 63, 0
2, 62232, Note_on_c, 0, 60, 0
2, 62252, Control_c, 0, 64, 0
2, 62268, Note_on_c, 0, 84, 61
2, 62276, Note_on_c, 0, 87, 57
2, 62304, Note_on_c, 0, 84, 0
2, 62320, Note_on_c, 0, 87, 0
2, 62408, Note_on_c, 0, 56, 42
2, 62408, Note_on_c, 0, 67, 39
2, 62408, Note_on_c, 0, 87, 63
2, 62408, Note_on_c, 0, 84, 63
2, 62412, Note_on_c, 0, 62, 46
2, 62456, Control_c, 0, 64, 127
2, 62512, Note_on_c, 0, 67, 0
2, 62516, Note_on_c, 0, 84, 0
2, 62520, Note_on_c, 0, 87, 0
2, 62544, Note_on_c, 0, 56, 0
2, 62552, Note_on_c, 0, 86, 55
2, 62568, Note_on_c, 0, 82, 32
2, 62596, Note_on_c, 0, 82, 0
2, 62600, Note_on_c, 0, 86, 0
2, 62636, Control_c, 0, 64, 0
2, 62640, Note_on_c, 0, 62, 0
2, 62676, Note_on_c, 0, 62, 24
2, 62680, Note_on_c, 0, 56, 46
2, 62684, Note_on_c, 0, 67, 39
2, 62684, Note_on_c, 0, 84, 45
2, 62688, Note_on_c, 0, 86, 57
2, 62700, Control_c, 0, 64, 127
2, 62752, Note_on_c, 0, 84, 0
2, 62768, Note_on_c, 0, 86, 0
2, 62796, Note_on_c, 0, 67, 0
2, 62844, Note_on_c, 0, 84, 57
2, 62844, Note_on_c, 0, 81, 52
2, 62872, Note_on_c, 0, 62, 0
2, 62876, Note_on_c, 0, 81, 0
2, 62892, Note_on_c, 0, 56, 0
2, 62904, Note_on_c, 0, 84, 0
2, 62924, Note_on_c, 0, 79, 28
2, 62940, Note_on_c, 0, 79, 0
2, 62940, Control_c, 0, 64, 0
2, 62976, Note_on_c, 0, 84, 56
2, 62980, Note_on_c, 0, 81, 58
2, 62984, Note_on_c, 0, 62, 37
2, 62988, Note_on_c, 0, 65, 36
2, 62988, Note_on_c, 0, 55, 42
2, 62988, Note_on_c, 0, 60, 45
2, 63064, Control_c, 0, 64, 127
2, 63088, Note_on_c, 0, 84, 0
2, 63092, Note_on_c, 0, 81, 0
2, 63112, Note_on_c, 0, 82, 63
2, 63128, Note_on_c, 0, 65, 0
2, 63128, Note_on_c, 0, 60, 0
2, 63132, Note_on_c, 0, 62, 0
2, 63148, Note_on_c, 0, 55, 0
2, 63164, Note_on_c, 0, 82, 0
2, 63220, Control_c, 0, 64, 0
2, 63248, Note_on_c, 0, 82, 61
2, 63252, Note_on_c, 0, 79, 56
2, 63252, Note_on_c, 0, 65, 37
2, 63256, Note_on_c, 0, 62, 40
2, 63256, Note_on_c, 0, 55, 38
2, 63256, Note_on_c, 0, 60, 42
2, 63324, Control_c, 0, 64, 127
2, 63376, Note_on_c, 0, 62, 0
2, 63400, Note_on_c, 0, 65, 0
2, 63408, Note_on_c, 0, 60, 0
2, 63412, Note_on_c, 0, 79, 0
2, 63456, Note_on_c, 0, 82, 0
2, 63556, Note_on_c, 0, 75, 56
2, 63576, Note_on_c, 0, 65, 33
2, 63584, Note_on_c, 0, 79, 35
2, 63584, Note_on_c, 0, 62, 31
2, 63588, Note_on_c, 0, 60, 31
2, 63608, Note_on_c, 0, 65, 0
2, 63616, Note_on_c, 0, 62, 0
2, 63616, Note_on_c, 0, 60, 0
2, 63620, Note_on_c, 0, 55, 0
2, 63644, Note_on_c, 0, 75, 0
2, 63660, Note_on_c, 0, 79, 0
2, 63728, Control_c, 0, 64, 0
2, 63760, Note_on_c, 0, 77, 70
2, 63760, Note_on_c, 0, 74, 66
2, 63764, Note_on_c, 0, 60, 46
2, 63768, Note_on_c, 0, 63, 43
2, 63768, Note_on_c, 0, 68, 37
2, 63796, Control_c, 0, 64, 127
2, 63880, Note_on_c, 0, 74, 0
2, 63944, Note_on_c, 0, 77, 0
2, 63944, Note_on_c, 0, 75, 64
2, 63952, Note_on_c, 0, 72, 56
2, 63976, Note_on_c, 0, 68, 0
2, 64004, Note_on_c, 0, 63, 0
2, 64012, Note_on_c, 0, 60, 0
2, 64012, Note_on_c, 0, 72, 0
2, 64072, Note_on_c, 0, 75, 0
2, 64112, Control_c, 0, 64, 0
2, 64140, Note_on_c, 0, 70, 55
2, 64144, Note_on_c, 0, 56, 38
2, 64148, Note_on_c, 0, 74, 55
2, 64148, Note_on_c, 0, 62, 41
2, 64148, Note_on_c, 0, 67, 31
2, 64164, Control_c, 0, 64, 127
2, 64176, Note_on_c, 0, 67, 0
2, 64244, Note_on_c, 0, 70, 0
2, 64288, Note_on_c, 0, 74, 0
2, 64328, Note_on_c, 0, 62, 0
2, 64392, Note_on_c, 0, 56, 0
2, 64436, Note_on_c, 0, 75, 62
2, 64444, Note_on_c, 0, 72, 57
2, 64488, Note_on_c, 0, 72, 0
2, 64516, Note_on_c, 0, 75, 0
2, 64544, Control_c, 0, 64, 0
2, 64564, Note_on_c, 0, 63, 42
2, 64568, Note_on_c, 0, 75, 74
2, 64572, Note_on_c, 0, 79, 75
2, 64576, Note_on_c, 0, 55, 48
2, 64576, Note_on_c, 0, 60, 22
2, 64580, Note_on_c, 0, 57, 40
2, 64700, Note_on_c, 0, 75, 0
2, 64700, Note_on_c, 0, 79, 0
2, 64724, Control_c, 0, 64, 127
2, 64744, Note_on_c, 0, 77, 72
2, 64756, Note_on_c, 0, 63, 0
2, 64760, Note_on_c, 0, 72, 49
2, 64792, Note_on_c, 0, 57, 0
2, 64828, Note_on_c, 0, 55, 0
2, 64836, Note_on_c, 0, 60, 0
2, 64860, Note_on_c, 0, 72, 0
2, 64868, Note_on_c, 0, 77, 0
2, 64940, Control_c, 0, 64, 0
2, 64948, Note_on_c, 0, 75, 60
2, 64952, Note_on_c, 0, 63, 38
2, 64952, Note_on_c, 0, 60, 38
2, 64956, Note_on_c, 0, 67, 44
2, 64960, Note_on_c, 0, 57, 36
2, 64960, Note_on_c, 0, 72, 46
2, 64964, Note_on_c, 0, 55, 36
2, 64980, Control_c, 0, 64, 127
2, 65048, Note_on_c, 0, 72, 0
2, 65100, Note_on_c, 0, 67, 0
2, 65116, Note_on_c, 0, 55, 0
2, 65120, Note_on_c, 0, 63, 0
2, 65128, Note_on_c, 0, 57, 0
2, 65144, Note_on_c, 0, 72, 60
2, 65152, Note_on_c, 0, 67, 45
2, 65212, Note_on_c, 0, 60, 0
2, 65216, Note_on_c, 0, 75, 0
2, 65220, Note_on_c, 0, 67, 0
2, 65244, Note_on_c, 0, 72, 0
2, 65316, Control_c, 0, 64, 0
2, 65344, Note_on_c, 0, 70, 50
2, 65344, Note_on_c, 0, 54, 41
2, 65344, Note_on_c, 0, 74, 57
2, 65344, Note_on_c, 0, 60, 35
2, 65344, Note_on_c, 0, 66, 38
2, 65392, Control_c, 0, 64, 127
2, 65516, Note_on_c, 0, 60, 0
2, 65552, Note_on_c, 0, 54, 0
2, 65616, Note_on_c, 0, 66, 0
2, 65696, Note_on_c, 0, 70, 0
2, 65712, Note_on_c, 0, 74, 0
2, 65736, Note_on_c, 0, 54, 39
2, 65744, Note_on_c, 0, 65, 36
2, 65748, Note_on_c, 0, 60, 41
2, 65872, Note_on_c, 0, 65, 0
2, 65876, Note_on_c, 0, 60, 0
2, 65932, Note_on_c, 0, 54, 0
2, 66124, Control_c, 0, 64, 0
2, 66136, Note_on_c, 0, 55, 33
2, 66136, Note_on_c, 0, 58, 44
2, 66136, Note_on_c, 0, 62, 33
2, 66136, Note_on_c, 0, 57, 36
2, 66360, Control_c, 0, 64, 127
2, 66520, Control_c, 0, 64, 0
2, 66584, Note_on_c, 0, 75, 76
2, 66632, Note_on_c, 0, 75, 0
2, 66636, Note_on_c, 0, 73, 45
2, 66664, Note_on_c, 0, 73, 0
2, 66688, Note_on_c, 0, 74, 79
2, 66764, Note_on_c, 0, 74, 0
2, 66776, Note_on_c, 0, 69, 56
2, 66804, Note_on_c, 0, 69, 0
2, 66812, Note_on_c, 0, 57, 0
2, 66816, Note_on_c, 0, 55, 0
2, 66824, Note_on_c, 0, 58, 0
2, 66828, Note_on_c, 0, 62, 0
2, 66888, Note_on_c, 0, 72, 70
2, 66944, Note_on_c, 0, 72, 0
2, 66960, Note_on_c, 0, 70, 65
2, 67000, Note_on_c, 0, 70, 0
2, 67032, Note_on_c, 0, 69, 56
2, 67032, Note_on_c, 0, 60, 36
2, 67036, Note_on_c, 0, 65, 46
2, 67044, Note_on_c, 0, 61, 39
2, 67072, Note_on_c, 0, 65, 0
2, 67072, Note_on_c, 0, 61, 0
2, 67076, Note_on_c, 0, 60, 0
2, 67104, Note_on_c, 0, 69, 0
2, 67124, Note_on_c, 0, 70, 58
2, 67156, Note_on_c, 0, 70, 0
2, 67252, Note_on_c, 0, 65, 51
2, 67256, Note_on_c, 0, 61, 43
2, 67260, Note_on_c, 0, 60, 34
2, 67280, Note_on_c, 0, 55, 28
2, 67392, Note_on_c, 0, 65, 0
2, 67404, Note_on_c, 0, 70, 71
2, 67408, Note_on_c, 0, 60, 0
2, 67412, Control_c, 0, 64, 127
2, 67412, Note_on_c, 0, 65, 75
2, 67424, Note_on_c, 0, 61, 0
2, 67440, Note_on_c, 0, 55, 0
2, 67484, Note_on_c, 0, 65, 0
2, 67500, Note_on_c, 0, 70, 0
2, 67528, Note_on_c, 0, 63, 68
2, 67560, Note_on_c, 0, 45, 28
2, 67584, Note_on_c, 0, 45, 0
2, 67592, Note_on_c, 0, 63, 0
2, 67612, Control_c, 0, 64, 0
2, 67644, Note_on_c, 0, 60, 54
2, 67652, Note_on_c, 0, 44, 46
2, 67660, Note_on_c, 0, 55, 31
2, 67704, Control_c, 0, 64, 127
2, 67764, Note_on_c, 0, 55, 0
2, 67812, Note_on_c, 0, 60, 0
2, 67944, Note_on_c, 0, 63, 60
2, 67944, Note_on_c, 0, 55, 66
2, 67948, Note_on_c, 0, 58, 61
2, 67952, Note_on_c, 0, 51, 63
2, 67952, Control_c, 0, 64, 0
2, 67952, Note_on_c, 0, 60, 57
2, 68008, Note_on_c, 0, 55, 0
2, 68016, Note_on_c, 0, 63, 0
2, 68016, Note_on_c, 0, 60, 0
2, 68024, Note_on_c, 0, 51, 0
2, 68028, Note_on_c, 0, 58, 0
2, 68052, Note_on_c, 0, 50, 27
2, 68160, Note_on_c, 0, 50, 0
2, 68168, Note_on_c, 0, 51, 51
2, 68168, Note_on_c, 0, 55, 52
2, 68168, Note_on_c, 0, 63, 45
2, 68168, Note_on_c, 0, 58, 52
2, 68172, Note_on_c, 0, 60, 52
2, 68180, Control_c, 0, 64, 127
2, 68320, Note_on_c, 0, 55, 0
2, 68336, Note_on_c, 0, 60, 0
2, 68356, Note_on_c, 0, 51, 0
2, 68360, Note_on_c, 0, 58, 0
2, 68368, Note_on_c, 0, 44, 0
2, 68368, Note_on_c, 0, 63, 0
2, 68676, Control_c, 0, 64, 0
2, 68896, Note_on_c, 0, 63, 52
2, 68896, Note_on_c, 0, 60, 52
2, 68900, Note_on_c, 0, 66, 49
2, 68900, Note_on_c, 0, 72, 47
2, 68928, Note_on_c, 0, 63, 0
2, 68932, Note_on_c, 0, 66, 0
2, 68948, Note_on_c, 0, 60, 0
2, 68956, Note_on_c, 0, 72, 0
2, 69028, Note_on_c, 0, 63, 49
2, 69032, Note_on_c, 0, 66, 48
2, 69040, Note_on_c, 0, 57, 38
2, 69040, Note_on_c, 0, 69, 43
2, 69080, Note_on_c, 0, 66, 0
2, 69080, Note_on_c, 0, 69, 0
2, 69096, Note_on_c, 0, 63, 0
2, 69136, Note_on_c, 0, 57, 0
2, 69164, Note_on_c, 0, 62, 48
2, 69168, Note_on_c, 0, 58, 38
2, 69168, Note_on_c, 0, 70, 46
2, 69184, Note_on_c, 0, 67, 33
2, 69444, Note_on_c, 0, 62, 0
2, 69456, Note_on_c, 0, 67, 0
2, 69524, Note_on_c, 0, 58, 0
2, 69556, Note_on_c, 0, 70, 0
2, 69876, Note_on_c, 0, 82, 44
2, 69892, Note_on_c, 0, 82, 0
2, 69928, Note_on_c, 0, 70, 48
2, 69928, Note_on_c, 0, 85, 52
2, 70036, Note_on_c, 0, 70, 0
2, 70048, Note_on_c, 0, 85, 0
2, 70076, Note_on_c, 0, 82, 31
2, 70096, Note_on_c, 0, 82, 0
2, 70124, Note_on_c, 0, 85, 58
2, 70128, Note_on_c, 0, 63, 39
2, 70132, Note_on_c, 0, 70, 39
2, 70140, Note_on_c, 0, 58, 40
2, 70148, Note_on_c, 0, 52, 32
2, 70224, Note_on_c, 0, 85, 0
2, 70236, Note_on_c, 0, 70, 0
2, 70264, Note_on_c, 0, 85, 52
2, 70316, Note_on_c, 0, 52, 0
2, 70320, Note_on_c, 0, 85, 0
2, 70328, Note_on_c, 0, 63, 0
2, 70328, Note_on_c, 0, 58, 0
2, 70436, Note_on_c, 0, 82, 56
2, 70436, Note_on_c, 0, 70, 54
2, 70440, Note_on_c, 0, 63, 38
2, 70448, Control_c, 0, 64, 127
2, 70452, Note_on_c, 0, 58, 39
2, 70460, Note_on_c, 0, 52, 32
2, 70552, Note_on_c, 0, 52, 0
2, 70576, Note_on_c, 0, 58, 0
2, 70584, Note_on_c, 0, 70, 0
2, 70600, Note_on_c, 0, 82, 0
2, 70608, Note_on_c, 0, 63, 0
2, 70656, Control_c, 0, 64, 0
2, 70688, Note_on_c, 0, 84, 49
2, 70692, Note_on_c, 0, 63, 36
2, 70712, Note_on_c, 0, 56, 34
2, 70716, Note_on_c, 0, 53, 22
2, 70740, Note_on_c, 0, 84, 0
2, 70740, Note_on_c, 0, 63, 0
2, 70740, Note_on_c, 0, 56, 0
2, 70740, Note_on_c, 0, 53, 0
2, 70868, Note_on_c, 0, 63, 36
2, 70876, Note_on_c, 0, 84, 45
2, 70880, Note_on_c, 0, 72, 35
2, 70880, Note_on_c, 0, 53, 33
2, 70880, Note_on_c, 0, 77, 41
2, 70880, Note_on_c, 0, 80, 37
2, 70888, Note_on_c, 0, 56, 38
2, 70892, Note_on_c, 0, 60, 39
2, 71052, Control_c, 0, 64, 127
2, 71144, Note_on_c, 0, 72, 0
2, 71152, Note_on_c, 0, 53, 0
2, 71152, Note_on_c, 0, 77, 0
2, 71152, Note_on_c, 0, 60, 0
2, 71160, Note_on_c, 0, 63, 0
2, 71172, Note_on_c, 0, 56, 0
2, 71192, Note_on_c, 0, 80, 0
2, 71196, Note_on_c, 0, 84, 0
2, 72044, Control_c, 0, 64, 0
2, 72140, Note_on_c, 0, 75, 80
2, 72144, Note_on_c, 0, 70, 75
2, 72144, Note_on_c, 0, 59, 61
2, 72144, Note_on_c, 0, 79, 75
2, 72148, Note_on_c, 0, 64, 62
2, 72152, Note_on_c, 0, 53, 54
2, 72216, Control_c, 0, 64, 127
2, 72232, Note_on_c, 0, 59, 0
2, 72232, Note_on_c, 0, 79, 0
2, 72232, Note_on_c, 0, 64, 0
2, 72236, Note_on_c, 0, 70, 0
2, 72236, Note_on_c, 0, 53, 0
2, 72256, Note_on_c, 0, 75, 0
2, 72264, Control_c, 0, 64, 0
2, 72304, Note_on_c, 0, 77, 68
2, 72304, Note_on_c, 0, 68, 61
2, 72304, Note_on_c, 0, 73, 66
2, 72308, Note_on_c, 0, 65, 61
2, 72316, Note_on_c, 0, 60, 42
2, 72324, Note_on_c, 0, 68, 0
2, 72324, Note_on_c, 0, 65, 0
2, 72356, Note_on_c, 0, 77, 0
2, 72356, Note_on_c, 0, 73, 0
2, 72364, Note_on_c, 0, 60, 0
2, 72448, Note_on_c, 0, 75, 60
2, 72448, Note_on_c, 0, 62, 42
2, 72452, Note_on_c, 0, 70, 54
2, 72456, Note_on_c, 0, 67, 44
2, 72460, Note_on_c, 0, 60, 39
2, 72476, Note_on_c, 0, 67, 0
2, 72480, Note_on_c, 0, 60, 0
2, 72488, Note_on_c, 0, 70, 0
2, 72492, Note_on_c, 0, 75, 0
2, 72496, Note_on_c, 0, 62, 0
2, 72584, Control_c, 0, 64, 127
2, 72588, Note_on_c, 0, 65, 44
2, 72592, Note_on_c, 0, 62, 39
2, 72592, Note_on_c, 0, 67, 48
2, 72596, Note_on_c, 0, 74, 49
2, 72596, Note_on_c, 0, 70, 33
2, 72600, Note_on_c, 0, 60, 38
2, 72612, Note_on_c, 0, 55, 34
2, 72620, Control_c, 0, 64, 0
2, 72632, Control_c, 0, 64, 127
2, 72652, Note_on_c, 0, 62, 0
2, 72652, Note_on_c, 0, 70, 0
2, 72656, Note_on_c, 0, 60, 0
2, 72660, Note_on_c, 0, 65, 0
2, 72660, Note_on_c, 0, 67, 0
2, 72660, Note_on_c, 0, 55, 0
2, 72680, Note_on_c, 0, 74, 0
2, 72700, Note_on_c, 0, 70, 57
2, 72704, Note_on_c, 0, 65, 47
2, 72708, Note_on_c, 0, 62, 39
2, 72720, Note_on_c, 0, 55, 27
2, 72724, Note_on_c, 0, 60, 20
2, 72760, Note_on_c, 0, 65, 0
2, 72760, Note_on_c, 0, 60, 0
2, 72764, Note_on_c, 0, 62, 0
2, 72808, Note_on_c, 0, 55, 0
2, 72812, Note_on_c, 0, 70, 0
2, 72824, Note_on_c, 0, 65, 45
2, 72848, Note_on_c, 0, 65, 0
2, 72916, Control_c, 0, 64, 0
2, 72948, Note_on_c, 0, 70, 54
2, 72948, Note_on_c, 0, 62, 57
2, 72952, Note_on_c, 0, 54, 42
2, 72952, Note_on_c, 0, 65, 57
2, 72952, Note_on_c, 0, 55, 55
2, 72968, Note_on_c, 0, 65, 0
2, 72980, Note_on_c, 0, 70, 0
2, 72980, Note_on_c, 0, 54, 0
2, 72996, Note_on_c, 0, 62, 0
2, 73000, Note_on_c, 0, 55, 0
2, 73136, Note_on_c, 0, 62, 57
2, 73136, Note_on_c, 0, 58, 57
2, 73144, Note_on_c, 0, 50, 45
2, 73176, Note_on_c, 0, 58, 0
2, 73184, Note_on_c, 0, 62, 0
2, 73188, Note_on_c, 0, 50, 0
2, 73208, Note_on_c, 0, 58, 61
2, 73224, Note_on_c, 0, 55, 49
2, 73224, Note_on_c, 0, 62, 49
2, 73228, Note_on_c, 0, 65, 49
2, 73248, Note_on_c, 0, 65, 0
2, 73260, Note_on_c, 0, 58, 0
2, 73260, Note_on_c, 0, 62, 0
2, 73316, Note_on_c, 0, 55, 0
2, 73336, Note_on_c, 0, 51, 49
2, 73376, Note_on_c, 0, 51, 0
2, 73392, Note_on_c, 0, 54, 45
2, 73400, Note_on_c, 0, 58, 56
2, 73400, Note_on_c, 0, 61, 55
2, 73408, Note_on_c, 0, 68, 46
2, 73416, Note_on_c, 0, 64, 45
2, 73476, Note_on_c, 0, 68, 0
2, 73476, Note_on_c, 0, 64, 0
2, 73492, Note_on_c, 0, 58, 0
2, 73496, Note_on_c, 0, 54, 0
2, 73496, Note_on_c, 0, 61, 0
2, 73516, Note_on_c, 0, 51, 46
2, 73564, Note_on_c, 0, 51, 0
2, 73572, Note_on_c, 0, 58, 57
2, 73572, Note_on_c, 0, 61, 54
2, 73580, Note_on_c, 0, 53, 44
2, 73580, Note_on_c, 0, 67, 45
2, 73588, Note_on_c, 0, 64, 43
2, 73640, Note_on_c, 0, 64, 0
2, 73644, Note_on_c, 0, 67, 0
2, 73668, Note_on_c, 0, 61, 0
2, 73670, Note_on_c, 0, 58, 0
2, 73672, Note_on_c, 0, 53, 0
2, 73688, Note_on_c, 0, 49, 43
2, 73732, Note_on_c, 0, 49, 0
2, 73744, Note_on_c, 0, 56, 58
2, 73752, Note_on_c, 0, 63, 48
2, 73756, Note_on_c, 0, 60, 48
2, 73760, Note_on_c, 0, 67, 40
2, 73884, Note_on_c, 0, 67, 0
2, 73888, Note_on_c, 0, 56, 0
2, 73900, Note_on_c, 0, 60, 0
2, 73928, Note_on_c, 0, 56, 42
2, 73928, Note_on_c, 0, 65, 49
2, 73936, Note_on_c, 0, 53, 42
2, 73940, Note_on_c, 0, 60, 45
2, 74040, Note_on_c, 0, 56, 0
2, 74040, Note_on_c, 0, 60, 0
2, 74052, Note_on_c, 0, 63, 0
2, 74096, Note_on_c, 0, 65, 0
2, 74116, Note_on_c, 0, 56, 48
2, 74120, Note_on_c, 0, 53, 0
2, 74124, Note_on_c, 0, 63, 47
2, 74128, Note_on_c, 0, 51, 42
2, 74132, Note_on_c, 0, 60, 46
2, 74200, Control_c, 0, 64, 127
2, 74204, Note_on_c, 0, 60, 0
2, 74236, Note_on_c, 0, 51, 0
2, 74256, Note_on_c, 0, 51, 20
2, 74256, Note_on_c, 0, 60, 43
2, 74272, Note_on_c, 0, 56, 0
2, 74296, Note_on_c, 0, 60, 0
2, 74300, Note_on_c, 0, 63, 0
2, 74328, Control_c, 0, 64, 0
2, 74368, Note_on_c, 0, 51, 0
2, 74424, Note_on_c, 0, 46, 45
2, 74428, Note_on_c, 0, 60, 52
2, 74428, Note_on_c, 0, 63, 49
2, 74428, Note_on_c, 0, 56, 29
2, 74460, Note_on_c, 0, 60, 0
2, 74460, Note_on_c, 0, 56, 0
2, 74480, Note_on_c, 0, 46, 0
2, 74480, Note_on_c, 0, 63, 0
2, 74624, Note_on_c, 0, 46, 45
2, 74628, Note_on_c, 0, 56, 41
2, 74628, Note_on_c, 0, 63, 50
2, 74632, Note_on_c, 0, 60, 55
2, 74652, Note_on_c, 0, 60, 0
2, 74668, Note_on_c, 0, 63, 0
2, 74684, Note_on_c, 0, 56, 0
2, 74712, Note_on_c, 0, 63, 39
2, 74716, Note_on_c, 0, 60, 44
2, 74716, Note_on_c, 0, 56, 13
2, 74736, Note_on_c, 0, 60, 0
2, 74748, Note_on_c, 0, 46, 0
2, 74748, Note_on_c, 0, 56, 0
2, 74752, Note_on_c, 0, 63, 0
2, 74816, Note_on_c, 0, 63, 49
2, 74816, Note_on_c, 0, 46, 31
2, 74848, Note_on_c, 0, 46, 0
2, 74868, Note_on_c, 0, 63, 0
2, 74896, Note_on_c, 0, 63, 48
2, 74896, Note_on_c, 0, 60, 57
2, 74896, Note_on_c, 0, 46, 38
2, 74904, Note_on_c, 0, 56, 42
2, 74924, Note_on_c, 0, 56, 0
2, 74936, Note_on_c, 0, 60, 0
2, 74944, Note_on_c, 0, 46, 0
2, 74956, Note_on_c, 0, 63, 0
2, 74996, Control_c, 0, 64, 104
2, 74996, Control_c, 0, 64, 127
2, 75016, Control_c, 0, 64, 0
2, 75088, Note_on_c, 0, 54, 49
2, 75088, Note_on_c, 0, 66, 42
2, 75088, Note_on_c, 0, 61, 55
2, 75092, Note_on_c, 0, 40, 43
2, 75104, Control_c, 0, 64, 127
2, 75104, Note_on_c, 0, 47, 39
2, 75148, Note_on_c, 0, 40, 0
2, 75152, Note_on_c, 0, 54, 0
2, 75152, Note_on_c, 0, 47, 0
2, 75164, Note_on_c, 0, 61, 0
2, 75176, Note_on_c, 0, 66, 0
2, 75228, Control_c, 0, 64, 0
2, 75280, Note_on_c, 0, 67, 48
2, 75280, Note_on_c, 0, 60, 57
2, 75292, Note_on_c, 0, 62, 41
2, 75292, Note_on_c, 0, 39, 49
2, 75308, Note_on_c, 0, 53, 23
2, 75324, Control_c, 0, 64, 127
2, 75344, Note_on_c, 0, 53, 0
2, 75376, Note_on_c, 0, 62, 0
2, 75384, Note_on_c, 0, 60, 0
2, 75404, Note_on_c, 0, 67, 0
2, 75436, Note_on_c, 0, 39, 0
2, 75504, Note_on_c, 0, 46, 41
2, 75504, Note_on_c, 0, 60, 44
2, 75504, Note_on_c, 0, 68, 38
2, 75528, Note_on_c, 0, 60, 0
2, 75528, Note_on_c, 0, 55, 31
2, 75544, Note_on_c, 0, 68, 0
2, 75548, Note_on_c, 0, 55, 0
2, 75672, Note_on_c, 0, 46, 0
2, 75676, Note_on_c, 0, 67, 54
2, 75676, Note_on_c, 0, 74, 54
2, 75680, Note_on_c, 0, 55, 41
2, 75684, Note_on_c, 0, 70, 50
2, 75696, Note_on_c, 0, 55, 0
2, 75712, Note_on_c, 0, 67, 0
2, 75718, Note_on_c, 0, 70, 0
2, 75728, Note_on_c, 0, 74, 0
2, 75864, Note_on_c, 0, 70, 59
2, 75868, Note_on_c, 0, 58, 52
2, 75868, Note_on_c, 0, 77, 63
2, 75872, Note_on_c, 0, 67, 52
2, 75872, Note_on_c, 0, 74, 52
2, 75876, Note_on_c, 0, 62, 41
2, 75896, Note_on_c, 0, 62, 0
2, 75912, Note_on_c, 0, 58, 0
2, 75932, Note_on_c, 0, 70, 0
2, 75952, Note_on_c, 0, 67, 0
2, 75996, Note_on_c, 0, 74, 0
2, 76012, Note_on_c, 0, 77, 0
2, 76260, Note_on_c, 0, 70, 59
2, 76260, Note_on_c, 0, 77, 62
2, 76264, Note_on_c, 0, 67, 54
2, 76268, Note_on_c, 0, 62, 49
2, 76280, Note_on_c, 0, 67, 0
2, 76300, Note_on_c, 0, 70, 0
2, 76324, Note_on_c, 0, 77, 0
2, 76468, Note_on_c, 0, 86, 107
2, 76476, Note_on_c, 0, 62, 0
2, 76580, Note_on_c, 0, 79, 67
2, 76636, Note_on_c, 0, 79, 0
2, 76688, Note_on_c, 0, 77, 63
2, 76844, Control_c, 0, 64, 0
2, 76860, Note_on_c, 0, 70, 45
2, 76872, Note_on_c, 0, 65, 44
2, 76872, Note_on_c, 0, 67, 41
2, 76900, Control_c, 0, 64, 127
2, 77012, Note_on_c, 0, 86, 0
2, 77044, Note_on_c, 0, 70, 0
2, 77048, Note_on_c, 0, 77, 0
2, 77052, Note_on_c, 0, 86, 80
2, 77160, Note_on_c, 0, 79, 71
2, 77232, Note_on_c, 0, 67, 0
2, 77236, Note_on_c, 0, 79, 0
2, 77244, Control_c, 0, 64, 0
2, 77260, Note_on_c, 0, 58, 44
2, 77276, Note_on_c, 0, 77, 43
2, 77292, Control_c, 0, 64, 127
2, 77296, Note_on_c, 0, 65, 0
2, 77388, Note_on_c, 0, 77, 0
2, 77392, Note_on_c, 0, 58, 0
2, 77396, Note_on_c, 0, 86, 0
2, 77616, Note_on_c, 0, 70, 41
2, 77628, Note_on_c, 0, 67, 36
2, 77628, Note_on_c, 0, 65, 40
2, 77764, Note_on_c, 0, 70, 0
2, 77792, Note_on_c, 0, 86, 92
2, 77812, Note_on_c, 0, 67, 0
2, 77852, Note_on_c, 0, 65, 0
2, 77864, Note_on_c, 0, 86, 0
2, 77924, Note_on_c, 0, 79, 115
2, 77928, Note_on_c, 0, 70, 58
2, 77936, Note_on_c, 0, 67, 56
2, 77940, Note_on_c, 0, 65, 46
2, 77988, Note_on_c, 0, 70, 0
2, 78040, Note_on_c, 0, 79, 0
2, 78056, Note_on_c, 0, 67, 0
2, 78076, Note_on_c, 0, 65, 0
2, 78080, Note_on_c, 0, 77, 79
2, 78128, Note_on_c, 0, 77, 0
2, 78216, Note_on_c, 0, 87, 92
2, 78244, Note_on_c, 0, 87, 0
2, 78256, Note_on_c, 0, 86, 52
2, 78292, Note_on_c, 0, 86, 0
2, 78348, Note_on_c, 0, 68, 51
2, 78348, Note_on_c, 0, 80, 76
2, 78352, Control_c, 0, 64, 0
2, 78360, Note_on_c, 0, 58, 42
2, 78364, Note_on_c, 0, 63, 46
2, 78364, Note_on_c, 0, 60, 48
2, 78460, Note_on_c, 0, 80, 0
2, 78488, Note_on_c, 0, 77, 58
2, 78528, Control_c, 0, 64, 127
2, 78556, Note_on_c, 0, 77, 0
2, 78600, Note_on_c, 0, 77, 62
2, 78668, Note_on_c, 0, 77, 0
2, 78740, Note_on_c, 0, 77, 52
2, 78872, Note_on_c, 0, 87, 66
2, 78904, Note_on_c, 0, 68, 0
2, 78956, Note_on_c, 0, 60, 0
2, 78964, Note_on_c, 0, 77, 0
2, 78992, Note_on_c, 0, 63, 0
2, 79000, Note_on_c, 0, 58, 0
2, 79000, Note_on_c, 0, 80, 49
2, 79108, Note_on_c, 0, 80, 0
2, 79136, Control_c, 0, 64, 0
2, 79144, Note_on_c, 0, 77, 51
2, 79144, Note_on_c, 0, 67, 35
2, 79152, Note_on_c, 0, 56, 37
2, 79160, Note_on_c, 0, 62, 46
2, 79240, Control_c, 0, 64, 127
2, 79316, Note_on_c, 0, 87, 0
2, 79352, Note_on_c, 0, 67, 0
2, 79352, Note_on_c, 0, 62, 0
2, 79396, Note_on_c, 0, 56, 0
2, 79440, Note_on_c, 0, 77, 0
2, 79536, Note_on_c, 0, 56, 39
2, 79540, Note_on_c, 0, 67, 32
2, 79548, Note_on_c, 0, 62, 37
2, 79660, Note_on_c, 0, 67, 0
2, 79684, Note_on_c, 0, 62, 0
2, 79748, Note_on_c, 0, 56, 0
2, 79856, Note_on_c, 0, 75, 68
2, 79908, Note_on_c, 0, 75, 0
2, 79920, Control_c, 0, 64, 0
2, 79936, Note_on_c, 0, 58, 31
2, 79944, Note_on_c, 0, 55, 34
2, 79944, Note_on_c, 0, 62, 29
2, 79948, Note_on_c, 0, 74, 54
2, 79964, Note_on_c, 0, 65, 13
2, 80068, Note_on_c, 0, 74, 0
2, 80072, Note_on_c, 0, 70, 51
2, 80080, Note_on_c, 0, 65, 0
2, 80116, Note_on_c, 0, 70, 0
2, 80168, Note_on_c, 0, 62, 0
2, 80192, Note_on_c, 0, 67, 7
2, 80236, Note_on_c, 0, 67, 0
2, 80336, Note_on_c, 0, 65, 50
2, 80340, Note_on_c, 0, 62, 25
2, 80468, Note_on_c, 0, 65, 0
2, 80488, Note_on_c, 0, 62, 0
2, 80552, Note_on_c, 0, 58, 0
2, 80552, Note_on_c, 0, 55, 0
2, 80600, Note_on_c, 0, 66, 60
2, 80632, Note_on_c, 0, 66, 0
2, 80656, Note_on_c, 0, 69, 68
2, 80700, Note_on_c, 0, 69, 0
2, 80712, Note_on_c, 0, 66, 56
2, 80736, Note_on_c, 0, 58, 35
2, 80744, Note_on_c, 0, 62, 30
2, 80748, Note_on_c, 0, 66, 0
2, 80756, Note_on_c, 0, 52, 31
2, 80768, Note_on_c, 0, 67, 49
2, 80812, Note_on_c, 0, 67, 0
2, 80832, Note_on_c, 0, 69, 51
2, 80864, Note_on_c, 0, 69, 0
2, 80888, Note_on_c, 0, 70, 61
2, 80904, Note_on_c, 0, 70, 0
2, 80940, Note_on_c, 0, 72, 56
2, 80968, Note_on_c, 0, 72, 0
2, 80984, Note_on_c, 0, 73, 56
2, 81000, Note_on_c, 0, 73, 0
2, 81016, Note_on_c, 0, 62, 0
2, 81032, Note_on_c, 0, 75, 49
2, 81044, Note_on_c, 0, 75, 0
2, 81084, Note_on_c, 0, 76, 54
2, 81104, Note_on_c, 0, 76, 0
2, 81124, Note_on_c, 0, 52, 0
2, 81132, Note_on_c, 0, 78, 58
2, 81148, Note_on_c, 0, 78, 0
2, 81180, Note_on_c, 0, 58, 0
2, 81200, Note_on_c, 0, 84, 70
2, 81240, Note_on_c, 0, 84, 0
2, 81284, Note_on_c, 0, 73, 56
2, 81308, Note_on_c, 0, 73, 0
2, 81372, Note_on_c, 0, 72, 51
2, 81420, Note_on_c, 0, 72, 0
2, 81460, Note_on_c, 0, 70, 52
2, 81496, Note_on_c, 0, 70, 0
2, 81540, Note_on_c, 0, 68, 49
2, 81560, Note_on_c, 0, 68, 0
2, 81628, Note_on_c, 0, 67, 49
2, 81660, Note_on_c, 0, 67, 0
2, 81672, Note_on_c, 0, 68, 50
2, 81712, Note_on_c, 0, 67, 55
2, 81736, Note_on_c, 0, 68, 0
2, 81752, Note_on_c, 0, 67, 0
2, 81764, Note_on_c, 0, 65, 55
2, 81808, Note_on_c, 0, 65, 0
2, 81824, Note_on_c, 0, 64, 45
2, 81844, Note_on_c, 0, 64, 0
2, 81876, Note_on_c, 0, 67, 68
2, 81932, Note_on_c, 0, 67, 0
2, 81996, Note_on_c, 0, 65, 68
2, 82076, Note_on_c, 0, 65, 0
2, 82080, Note_on_c, 0, 63, 45
2, 82144, Note_on_c, 0, 63, 0
2, 82204, Note_on_c, 0, 62, 42
2, 82268, Note_on_c, 0, 62, 0
2, 82312, Note_on_c, 0, 60, 43
2, 82340, Note_on_c, 0, 60, 0
2, 82432, Note_on_c, 0, 60, 55
2, 82500, Note_on_c, 0, 60, 0
2, 82532, Note_on_c, 0, 63, 45
2, 82544, Note_on_c, 0, 59, 45
2, 82568, Note_on_c, 0, 63, 0
2, 82568, Note_on_c, 0, 59, 0
2, 82632, Note_on_c, 0, 59, 68
2, 82636, Note_on_c, 0, 63, 56
2, 82688, Note_on_c, 0, 59, 0
2, 82736, Note_on_c, 0, 58, 63
2, 82772, Note_on_c, 0, 58, 0
2, 82784, Note_on_c, 0, 63, 0
2, 82840, Note_on_c, 0, 58, 82
2, 82840, Note_on_c, 0, 63, 68
2, 82912, Note_on_c, 0, 58, 0
2, 82944, Note_on_c, 0, 56, 75
2, 82948, Note_on_c, 0, 63, 0
2, 83000, Note_on_c, 0, 56, 0
2, 83044, Note_on_c, 0, 63, 64
2, 83048, Note_on_c, 0, 56, 67
2, 83116, Note_on_c, 0, 63, 0
2, 83128, Note_on_c, 0, 56, 0
2, 83148, Note_on_c, 0, 55, 48
2, 83160, Note_on_c, 0, 63, 36
2, 83192, Note_on_c, 0, 63, 0
2, 83212, Note_on_c, 0, 55, 0
2, 83252, Note_on_c, 0, 63, 51
2, 83260, Note_on_c, 0, 55, 51
2, 83380, Control_c, 0, 64, 127
2, 83432, Note_on_c, 0, 55, 0
2, 83496, Note_on_c, 0, 63, 0
2, 83784, Note_on_c, 0, 55, 44
2, 83788, Note_on_c, 0, 65, 37
2, 83796, Note_on_c, 0, 62, 38
2, 83800, Note_on_c, 0, 60, 40
2, 83864, Control_c, 0, 64, 0
2, 83912, Control_c, 0, 64, 127
2, 84028, Note_on_c, 0, 55, 0
2, 84028, Note_on_c, 0, 60, 0
2, 84032, Note_on_c, 0, 62, 0
2, 84048, Note_on_c, 0, 65, 0
2, 84116, Control_c, 0, 64, 0
2, 84144, Note_on_c, 0, 65, 46
2, 84148, Note_on_c, 0, 55, 44
2, 84152, Note_on_c, 0, 62, 39
2, 84156, Note_on_c, 0, 60, 48
2, 84428, Note_on_c, 0, 65, 0
2, 84428, Note_on_c, 0, 62, 0
2, 84444, Note_on_c, 0, 60, 0
2, 84476, Note_on_c, 0, 55, 0
2, 84676, Note_on_c, 0, 63, 36
2, 84684, Note_on_c, 0, 60, 29
2, 84692, Note_on_c, 0, 55, 38
2, 84692, Note_on_c, 0, 57, 35
2, 84748, Note_on_c, 0, 63, 0
2, 84752, Note_on_c, 0, 55, 0
2, 84764, Note_on_c, 0, 57, 0
2, 84768, Note_on_c, 0, 60, 0
2, 84868, Note_on_c, 0, 63, 36
2, 84880, Note_on_c, 0, 60, 36
2, 84896, Note_on_c, 0, 57, 27
2, 84956, Note_on_c, 0, 60, 0
2, 85008, Note_on_c, 0, 63, 0
2, 85048, Note_on_c, 0, 57, 0
2, 85076, Note_on_c, 0, 81, 51
2, 85088, Note_on_c, 0, 81, 0
2, 85136, Note_on_c, 0, 82, 67
2, 85168, Note_on_c, 0, 82, 0
2, 85192, Note_on_c, 0, 84, 79
2, 85232, Note_on_c, 0, 84, 0
2, 85256, Note_on_c, 0, 60, 37
2, 85256, Note_on_c, 0, 54, 42
2, 85260, Note_on_c, 0, 64, 35
2, 85264, Note_on_c, 0, 78, 71
2, 85296, Note_on_c, 0, 78, 0
2, 85408, Note_on_c, 0, 64, 0
2, 85428, Note_on_c, 0, 60, 0
2, 85448, Note_on_c, 0, 78, 56
2, 85492, Note_on_c, 0, 78, 0
2, 85568, Note_on_c, 0, 54, 0
2, 85624, Note_on_c, 0, 54, 39
2, 85628, Note_on_c, 0, 78, 54
2, 85632, Note_on_c, 0, 64, 28
2, 85640, Note_on_c, 0, 60, 36
2, 85684, Note_on_c, 0, 78, 0
2, 85736, Note_on_c, 0, 64, 0
2, 85744, Note_on_c, 0, 60, 0
2, 85744, Note_on_c, 0, 75, 61
2, 85808, Note_on_c, 0, 75, 0
2, 85824, Note_on_c, 0, 54, 0
2, 85836, Note_on_c, 0, 74, 45
2, 85908, Note_on_c, 0, 74, 0
2, 85948, Note_on_c, 0, 72, 54
2, 85996, Note_on_c, 0, 72, 0
2, 86020, Note_on_c, 0, 58, 31
2, 86020, Note_on_c, 0, 57, 23
2, 86028, Note_on_c, 0, 62, 22
2, 86032, Note_on_c, 0, 55, 22
2, 86032, Note_on_c, 0, 70, 48
2, 86136, Note_on_c, 0, 70, 0
2, 86160, Note_on_c, 0, 69, 37
2, 86200, Note_on_c, 0, 69, 0
2, 86236, Note_on_c, 0, 70, 44
2, 86280, Note_on_c, 0, 55, 0
2, 86288, Note_on_c, 0, 62, 0
2, 86296, Note_on_c, 0, 57, 0
2, 86300, Note_on_c, 0, 58, 0
2, 86556, Note_on_c, 0, 62, 45
2, 86560, Note_on_c, 0, 58, 38
2, 86576, Note_on_c, 0, 62, 0
2, 86584, Note_on_c, 0, 58, 0
2, 86808, Note_on_c, 0, 63, 38
2, 86820, Note_on_c, 0, 58, 44
2, 86820, Note_on_c, 0, 52, 38
2, 87124, Note_on_c, 0, 63, 0
2, 87136, Note_on_c, 0, 52, 0
2, 87156, Note_on_c, 0, 58, 0
2, 87204, Note_on_c, 0, 61, 40
2, 87208, Note_on_c, 0, 70, 0
2, 87212, Note_on_c, 0, 58, 39
2, 87220, Note_on_c, 0, 52, 36
2, 87444, Note_on_c, 0, 52, 0
2, 87472, Note_on_c, 0, 58, 0
2, 87516, Note_on_c, 0, 61, 0
2, 87752, Note_on_c, 0, 67, 37
2, 87756, Note_on_c, 0, 56, 37
2, 87760, Note_on_c, 0, 63, 43
2, 87784, Note_on_c, 0, 60, 23
2, 87848, Note_on_c, 0, 67, 0
2, 87908, Note_on_c, 0, 67, 48
2, 87956, Note_on_c, 0, 67, 0
2, 87972, Note_on_c, 0, 68, 69
2, 88004, Note_on_c, 0, 63, 0
2, 88008, Note_on_c, 0, 68, 0
2, 88036, Note_on_c, 0, 67, 49
2, 88036, Note_on_c, 0, 70, 85
2, 88036, Note_on_c, 0, 63, 43
2, 88148, Note_on_c, 0, 70, 0
2, 88164, Note_on_c, 0, 67, 0
2, 88176, Note_on_c, 0, 72, 47
2, 88200, Note_on_c, 0, 72, 0
2, 88224, Note_on_c, 0, 60, 0
2, 88224, Note_on_c, 0, 63, 0
2, 88232, Note_on_c, 0, 56, 0
2, 88236, Note_on_c, 0, 74, 58
2, 88264, Note_on_c, 0, 74, 0
2, 88304, Note_on_c, 0, 67, 60
2, 88304, Note_on_c, 0, 75, 89
2, 88304, Note_on_c, 0, 56, 48
2, 88320, Note_on_c, 0, 62, 54
2, 88412, Note_on_c, 0, 75, 0
2, 88432, Note_on_c, 0, 77, 63
2, 88468, Note_on_c, 0, 67, 0
2, 88472, Note_on_c, 0, 62, 0
2, 88472, Note_on_c, 0, 77, 0
2, 88488, Note_on_c, 0, 56, 0
2, 88496, Note_on_c, 0, 79, 82
2, 88544, Note_on_c, 0, 79, 0
2, 88564, Note_on_c, 0, 80, 89
2, 88572, Note_on_c, 0, 56, 50
2, 88572, Note_on_c, 0, 67, 50
2, 88576, Note_on_c, 0, 62, 57
2, 88700, Note_on_c, 0, 67, 0
2, 88716, Note_on_c, 0, 80, 0
2, 88732, Note_on_c, 0, 56, 0
2, 88740, Note_on_c, 0, 82, 61
2, 88760, Note_on_c, 0, 62, 0
2, 88780, Note_on_c, 0, 82, 0
2, 88804, Note_on_c, 0, 84, 69
2, 88840, Note_on_c, 0, 84, 0
2, 88868, Note_on_c, 0, 86, 90
2, 88872, Note_on_c, 0, 56, 54
2, 88876, Note_on_c, 0, 67, 46
2, 88876, Note_on_c, 0, 62, 56
2, 88916, Note_on_c, 0, 67, 0
2, 88944, Note_on_c, 0, 86, 0
2, 88944, Note_on_c, 0, 62, 0
2, 89000, Note_on_c, 0, 87, 57
2, 89016, Note_on_c, 0, 56, 0
2, 89052, Note_on_c, 0, 87, 0
2, 89072, Note_on_c, 0, 89, 68
2, 89124, Note_on_c, 0, 89, 0
2, 89148, Note_on_c, 0, 63, 40
2, 89148, Note_on_c, 0, 55, 45
2, 89148, Note_on_c, 0, 60, 46
2, 89152, Note_on_c, 0, 65, 1
2, 89152, Note_on_c, 0, 86, 58
2, 89320, Note_on_c, 0, 86, 0
2, 89336, Note_on_c, 0, 82, 51
2, 89500, Note_on_c, 0, 82, 0
2, 89520, Note_on_c, 0, 77, 49
2, 89732, Note_on_c, 0, 65, 0
2, 89764, Note_on_c, 0, 63, 0
2, 89784, Note_on_c, 0, 55, 0
2, 89796, Note_on_c, 0, 60, 0
2, 89816, Control_c, 0, 64, 127
2, 90272, Control_c, 0, 64, 0
2, 90312, Note_on_c, 0, 87, 72
2, 90328, Note_on_c, 0, 77, 0
2, 90356, Note_on_c, 0, 87, 0
2, 90456, Note_on_c, 0, 87, 76
2, 90504, Note_on_c, 0, 87, 0
2, 90572, Note_on_c, 0, 87, 63
2, 90612, Note_on_c, 0, 87, 0
2, 90640, Note_on_c, 0, 87, 63
2, 90700, Note_on_c, 0, 87, 0
2, 90716, Note_on_c, 0, 86, 68
2, 90740, Control_c, 0, 64, 127
2, 90872, Note_on_c, 0, 82, 52
2, 91016, Note_on_c, 0, 86, 0
2, 91020, Note_on_c, 0, 82, 0
2, 91036, Note_on_c, 0, 79, 50
2, 91228, Note_on_c, 0, 79, 0
2, 91540, Control_c, 0, 64, 0
2, 91564, Note_on_c, 0, 80, 61
2, 91568, Note_on_c, 0, 84, 68
2, 91568, Note_on_c, 0, 77, 64
2, 91568, Note_on_c, 0, 65, 55
2, 91568, Note_on_c, 0, 72, 62
2, 91572, Note_on_c, 0, 61, 46
2, 91572, Note_on_c, 0, 60, 50
2, 91576, Note_on_c, 0, 56, 42
2, 91612, Control_c, 0, 64, 127
2, 91624, Note_on_c, 0, 72, 0
2, 91628, Note_on_c, 0, 84, 0
2, 91636, Note_on_c, 0, 77, 0
2, 91652, Note_on_c, 0, 65, 0
2, 91656, Note_on_c, 0, 56, 0
2, 91660, Note_on_c, 0, 60, 0
2, 91668, Note_on_c, 0, 61, 0
2, 91672, Note_on_c, 0, 80, 0
2, 91700, Note_on_c, 0, 85, 69
2, 91704, Note_on_c, 0, 77, 63
2, 91708, Note_on_c, 0, 80, 62
2, 91708, Note_on_c, 0, 73, 57
2, 91712, Note_on_c, 0, 61, 46
2, 91712, Note_on_c, 0, 65, 60
2, 91712, Note_on_c, 0, 56, 58
2, 91720, Note_on_c, 0, 60, 38
2, 91732, Note_on_c, 0, 77, 0
2, 91740, Note_on_c, 0, 60, 0
2, 91752, Note_on_c, 0, 65, 0
2, 91756, Note_on_c, 0, 80, 0
2, 91756, Note_on_c, 0, 73, 0
2, 91772, Note_on_c, 0, 85, 0
2, 91788, Note_on_c, 0, 61, 0
2, 91788, Control_c, 0, 64, 0
2, 91808, Note_on_c, 0, 56, 0
2, 91836, Note_on_c, 0, 87, 78
2, 91836, Note_on_c, 0, 82, 75
2, 91836, Note_on_c, 0, 75, 73
2, 91844, Note_on_c, 0, 61, 58
2, 91844, Note_on_c, 0, 64, 61
2, 91844, Note_on_c, 0, 55, 63
2, 91848, Control_c, 0, 64, 127
2, 91900, Note_on_c, 0, 64, 0
2, 91924, Note_on_c, 0, 55, 0
2, 91932, Note_on_c, 0, 87, 0
2, 91932, Note_on_c, 0, 82, 0
2, 91932, Note_on_c, 0, 75, 0
2, 91944, Note_on_c, 0, 61, 0
2, 91976, Note_on_c, 0, 88, 74
2, 91976, Note_on_c, 0, 82, 63
2, 91980, Note_on_c, 0, 76, 57
2, 91980, Note_on_c, 0, 61, 55
2, 91984, Note_on_c, 0, 55, 58
2, 91988, Note_on_c, 0, 64, 57
2, 91996, Note_on_c, 0, 85, 26
2, 92008, Note_on_c, 0, 64, 0
2, 92016, Note_on_c, 0, 76, 0
2, 92016, Note_on_c, 0, 85, 0
2, 92028, Note_on_c, 0, 82, 0
2, 92032, Note_on_c, 0, 55, 0
2, 92036, Note_on_c, 0, 88, 0
2, 92044, Note_on_c, 0, 61, 0
2, 92096, Note_on_c, 0, 89, 81
2, 92100, Note_on_c, 0, 84, 68
2, 92100, Note_on_c, 0, 77, 66
2, 92108, Note_on_c, 0, 61, 57
2, 92108, Note_on_c, 0, 55, 55
2, 92112, Note_on_c, 0, 64, 46
2, 92124, Note_on_c, 0, 55, 0
2, 92128, Note_on_c, 0, 64, 0
2, 92144, Note_on_c, 0, 77, 0
2, 92160, Note_on_c, 0, 89, 0
2, 92160, Note_on_c, 0, 84, 0
2, 92172, Note_on_c, 0, 61, 0
2, 92196, Control_c, 0, 64, 0
2, 92212, Note_on_c, 0, 60, 68
2, 92212, Note_on_c, 0, 58, 57
2, 92212, Note_on_c, 0, 91, 89
2, 92212, Note_on_c, 0, 53, 72
2, 92212, Note_on_c, 0, 87, 70
2, 92212, Note_on_c, 0, 63, 57
2, 92212, Note_on_c, 0, 79, 77
2, 92212, Note_on_c, 0, 84, 75
2, 92260, Note_on_c, 0, 63, 0
2, 92296, Control_c, 0, 64, 127
2, 92380, Note_on_c, 0, 91, 0
2, 92388, Note_on_c, 0, 53, 0
2, 92396, Note_on_c, 0, 84, 0
2, 92404, Note_on_c, 0, 87, 0
2, 92424, Note_on_c, 0, 79, 0
2, 92436, Note_on_c, 0, 58, 0
2, 92444, Note_on_c, 0, 60, 0
2, 92544, Control_c, 0, 64, 0
2, 92564, Note_on_c, 0, 84, 61
2, 92564, Note_on_c, 0, 63, 48
2, 92568, Note_on_c, 0, 72, 49
2, 92568, Note_on_c, 0, 79, 60
2, 92572, Note_on_c, 0, 53, 36
2, 92572, Note_on_c, 0, 60, 46
2, 92580, Note_on_c, 0, 58, 43
2, 92600, Control_c, 0, 64, 127
2, 92716, Note_on_c, 0, 84, 0
2, 92748, Note_on_c, 0, 53, 0
2, 92756, Note_on_c, 0, 79, 0
2, 92792, Note_on_c, 0, 72, 0
2, 92812, Note_on_c, 0, 63, 0
2, 92824, Note_on_c, 0, 58, 0
2, 92836, Note_on_c, 0, 60, 0
2, 93448, Control_c, 0, 64, 0
2, 93480, Note_on_c, 0, 86, 75
2, 93480, Note_on_c, 0, 82, 70
2, 93480, Note_on_c, 0, 54, 53
2, 93480, Note_on_c, 0, 65, 56
2, 93480, Note_on_c, 0, 74, 68
2, 93488, Note_on_c, 0, 60, 50
2, 93504, Note_on_c, 0, 74, 0
2, 93508, Note_on_c, 0, 65, 0
2, 93508, Note_on_c, 0, 60, 0
2, 93512, Note_on_c, 0, 82, 0
2, 93520, Note_on_c, 0, 86, 0
2, 93524, Note_on_c, 0, 54, 0
2, 93612, Control_c, 0, 64, 127
2, 93628, Note_on_c, 0, 84, 66
2, 93632, Note_on_c, 0, 54, 53
2, 93632, Note_on_c, 0, 72, 48
2, 93636, Note_on_c, 0, 58, 43
2, 93644, Note_on_c, 0, 84, 0
2, 93652, Note_on_c, 0, 72, 0
2, 93680, Note_on_c, 0, 58, 0
2, 93696, Note_on_c, 0, 54, 0
2, 93732, Control_c, 0, 64, 0
2, 93772, Note_on_c, 0, 82, 56
2, 93772, Note_on_c, 0, 53, 35
2, 93776, Note_on_c, 0, 62, 41
2, 93776, Note_on_c, 0, 74, 45
2, 93780, Note_on_c, 0, 58, 43
2, 93780, Note_on_c, 0, 70, 37
2, 93780, Note_on_c, 0, 55, 48
2, 93800, Control_c, 0, 64, 127
2, 93800, Note_on_c, 0, 77, 31
2, 93868, Note_on_c, 0, 82, 0
2, 93872, Note_on_c, 0, 77, 0
2, 93880, Note_on_c, 0, 74, 0
2, 93908, Note_on_c, 0, 62, 0
2, 93908, Note_on_c, 0, 70, 0
2, 93916, Note_on_c, 0, 58, 0
2, 93936, Note_on_c, 0, 53, 0
2, 93952, Note_on_c, 0, 55, 0
2, 94056, Note_on_c, 0, 58, 47
2, 94064, Control_c, 0, 64, 0
2, 94064, Note_on_c, 0, 72, 63
2, 94064, Note_on_c, 0, 65, 66
2, 94068, Note_on_c, 0, 62, 56
2, 94072, Note_on_c, 0, 58, 0
2, 94076, Note_on_c, 0, 59, 46
2, 94076, Note_on_c, 0, 69, 45
2, 94084, Note_on_c, 0, 60, 57
2, 94092, Note_on_c, 0, 59, 0
2, 94108, Note_on_c, 0, 69, 0
2, 94152, Note_on_c, 0, 65, 0
2, 94164, Note_on_c, 0, 72, 0
2, 94168, Note_on_c, 0, 62, 0
2, 94188, Note_on_c, 0, 60, 0
2, 94192, Note_on_c, 0, 58, 42
2, 94192, Note_on_c, 0, 70, 63
2, 94200, Control_c, 0, 64, 127
2, 94208, Note_on_c, 0, 62, 42
2, 94208, Note_on_c, 0, 65, 24
2, 94272, Note_on_c, 0, 70, 0
2, 94284, Note_on_c, 0, 62, 0
2, 94296, Note_on_c, 0, 58, 0
2, 94312, Note_on_c, 0, 65, 0
2, 94420, Note_on_c, 0, 63, 54
2, 94424, Note_on_c, 0, 68, 47
2, 94428, Note_on_c, 0, 56, 51
2, 94440, Note_on_c, 0, 68, 0
2, 94456, Note_on_c, 0, 63, 0
2, 94480, Control_c, 0, 64, 72
2, 94484, Control_c, 0, 64, 0
2, 94504, Note_on_c, 0, 56, 0
2, 94536, Note_on_c, 0, 58, 50
2, 94540, Note_on_c, 0, 67, 41
2, 94540, Note_on_c, 0, 61, 45
2, 94540, Note_on_c, 0, 55, 43
2, 94676, Note_on_c, 0, 67, 0
2, 94680, Control_c, 0, 64, 127
2, 94704, Note_on_c, 0, 58, 0
2, 94704, Note_on_c, 0, 61, 0
2, 94712, Note_on_c, 0, 55, 0
2, 94788, Note_on_c, 0, 56, 51
2, 94788, Note_on_c, 0, 65, 57
2, 94792, Note_on_c, 0, 60, 55
2, 94792, Note_on_c, 0, 53, 42
2, 94828, Note_on_c, 0, 65, 0
2, 94832, Note_on_c, 0, 60, 0
2, 94840, Note_on_c, 0, 53, 0
2, 94852, Note_on_c, 0, 56, 0
2, 94864, Control_c, 0, 64, 0
2, 94880, Note_on_c, 0, 49, 43
2, 94908, Note_on_c, 0, 58, 47
2, 94916, Note_on_c, 0, 64, 43
2, 94920, Note_on_c, 0, 55, 31
2, 94924, Note_on_c, 0, 52, 43
2, 94928, Note_on_c, 0, 49, 0
2, 94928, Note_on_c, 0, 61, 37
2, 94992, Note_on_c, 0, 61, 0
2, 95004, Note_on_c, 0, 58, 0
2, 95008, Note_on_c, 0, 55, 0
2, 95032, Note_on_c, 0, 64, 0
2, 95040, Note_on_c, 0, 52, 0
2, 95040, Note_on_c, 0, 58, 48
2, 95044, Note_on_c, 0, 61, 45
2, 95044, Note_on_c, 0, 49, 46
2, 95048, Note_on_c, 0, 55, 45
2, 95076, Control_c, 0, 64, 127
2, 95128, Note_on_c, 0, 49, 0
2, 95148, Note_on_c, 0, 55, 0
2, 95160, Note_on_c, 0, 58, 0
2, 95192, Note_on_c, 0, 61, 0
2, 95224, Control_c, 0, 64, 0
2, 95264, Note_on_c, 0, 60, 51
2, 95268, Note_on_c, 0, 56, 44
2, 95268, Note_on_c, 0, 51, 35
2, 95268, Note_on_c, 0, 53, 37
2, 95272, Note_on_c, 0, 41, 41
2, 95456, Control_c, 0, 64, 127
2, 95500, Note_on_c, 0, 53, 0
2, 95516, Note_on_c, 0, 60, 0
2, 95516, Note_on_c, 0, 56, 0
2, 95516, Note_on_c, 0, 51, 0
2, 95556, Control_c, 0, 64, 0
2, 95568, Note_on_c, 0, 41, 0
2, 95580, Note_on_c, 0, 51, 62
2, 95584, Note_on_c, 0, 56, 72
2, 95584, Note_on_c, 0, 63, 61
2, 95588, Note_on_c, 0, 60, 63
2, 95588, Note_on_c, 0, 53, 71
2, 95632, Note_on_c, 0, 53, 0
2, 95648, Note_on_c, 0, 56, 0
2, 95648, Note_on_c, 0, 60, 0
2, 95656, Note_on_c, 0, 51, 0
2, 95656, Note_on_c, 0, 63, 0
2, 95700, Note_on_c, 0, 66, 41
2, 95704, Note_on_c, 0, 56, 77
2, 95704, Note_on_c, 0, 60, 70
2, 95704, Note_on_c, 0, 67, 75
2, 95704, Note_on_c, 0, 63, 48
2, 95712, Note_on_c, 0, 55, 74
2, 95764, Note_on_c, 0, 66, 0
2, 95768, Note_on_c, 0, 67, 0
2, 95792, Note_on_c, 0, 56, 0
2, 95796, Note_on_c, 0, 60, 0
2, 95808, Note_on_c, 0, 63, 0
2, 95824, Note_on_c, 0, 55, 0
2, 95828, Note_on_c, 0, 54, 60
2, 95828, Note_on_c, 0, 66, 63
2, 95836, Note_on_c, 0, 56, 56
2, 95836, Note_on_c, 0, 60, 57
2, 95840, Note_on_c, 0, 63, 50
2, 95880, Note_on_c, 0, 66, 0
2, 95884, Note_on_c, 0, 60, 0
2, 95888, Note_on_c, 0, 56, 0
2, 95904, Note_on_c, 0, 63, 0
2, 95936, Note_on_c, 0, 54, 0
2, 95948, Note_on_c, 0, 65, 59
2, 95948, Note_on_c, 0, 56, 50
2, 95952, Note_on_c, 0, 60, 64
2, 95952, Note_on_c, 0, 53, 54
2, 95964, Note_on_c, 0, 65, 0
2, 95968, Note_on_c, 0, 56, 0
2, 95976, Note_on_c, 0, 60, 0
2, 95996, Note_on_c, 0, 53, 0
2, 96068, Note_on_c, 0, 59, 66
2, 96072, Note_on_c, 0, 63, 59
2, 96072, Note_on_c, 0, 70, 63
2, 96072, Note_on_c, 0, 58, 63
2, 96076, Note_on_c, 0, 65, 56
2, 96156, Note_on_c, 0, 70, 0
2, 96172, Note_on_c, 0, 58, 0
2, 96176, Note_on_c, 0, 59, 0
2, 96180, Note_on_c, 0, 65, 0
2, 96208, Note_on_c, 0, 59, 44
2, 96208, Note_on_c, 0, 69, 52
2, 96208, Note_on_c, 0, 65, 22
2, 96212, Note_on_c, 0, 57, 47
2, 96244, Note_on_c, 0, 69, 0
2, 96284, Note_on_c, 0, 59, 0
2, 96288, Note_on_c, 0, 63, 0
2, 96292, Note_on_c, 0, 65, 0
2, 96332, Note_on_c, 0, 57, 0
2, 96336, Note_on_c, 0, 68, 57
2, 96340, Note_on_c, 0, 63, 45
2, 96340, Note_on_c, 0, 65, 46
2, 96340, Note_on_c, 0, 59, 52
2, 96340, Note_on_c, 0, 56, 48
2, 96364, Note_on_c, 0, 49, 43
2, 96492, Control_c, 0, 64, 127
2, 96616, Note_on_c, 0, 59, 0
2, 96616, Note_on_c, 0, 56, 0
2, 96644, Note_on_c, 0, 65, 0
2, 96644, Note_on_c, 0, 49, 0
2, 96648, Note_on_c, 0, 68, 0
2, 96656, Note_on_c, 0, 63, 0
2, 96772, Control_c, 0, 64, 0
2, 96800, Note_on_c, 0, 62, 54
2, 96804, Note_on_c, 0, 67, 39
2, 96804, Note_on_c, 0, 68, 39
2, 96804, Note_on_c, 0, 55, 39
2, 96808, Note_on_c, 0, 39, 41
2, 96812, Note_on_c, 0, 46, 39
2, 96820, Note_on_c, 0, 68, 0
2, 96920, Control_c, 0, 64, 127
2, 97060, Note_on_c, 0, 55, 0
2, 97084, Note_on_c, 0, 62, 0
2, 97132, Note_on_c, 0, 67, 0
2, 97148, Note_on_c, 0, 46, 0
2, 97180, Note_on_c, 0, 63, 58
2, 97200, Control_c, 0, 64, 0
2, 97208, Note_on_c, 0, 39, 0
2, 97224, Note_on_c, 0, 63, 0
2, 97252, Note_on_c, 0, 65, 37
2, 97268, Note_on_c, 0, 63, 43
2, 97280, Note_on_c, 0, 65, 0
2, 97312, Note_on_c, 0, 62, 56
2, 97316, Note_on_c, 0, 63, 0
2, 97352, Note_on_c, 0, 62, 0
2, 97404, Note_on_c, 0, 62, 39
2, 97424, Note_on_c, 0, 62, 0
2, 97460, Note_on_c, 0, 69, 72
2, 97524, Note_on_c, 0, 69, 0
2, 97524, Note_on_c, 0, 66, 66
2, 97556, Note_on_c, 0, 66, 0
2, 97564, Note_on_c, 0, 58, 38
2, 97568, Note_on_c, 0, 62, 15
2, 97568, Note_on_c, 0, 67, 58
2, 97572, Note_on_c, 0, 55, 40
2, 97572, Note_on_c, 0, 53, 30
2, 97592, Note_on_c, 0, 67, 0
2, 97616, Note_on_c, 0, 69, 57
2, 97648, Note_on_c, 0, 69, 0
2, 97656, Note_on_c, 0, 70, 57
2, 97672, Note_on_c, 0, 70, 0
2, 97696, Note_on_c, 0, 72, 64
2, 97732, Note_on_c, 0, 72, 0
2, 97736, Note_on_c, 0, 73, 52
2, 97756, Note_on_c, 0, 73, 0
2, 97760, Note_on_c, 0, 75, 62
2, 97784, Note_on_c, 0, 75, 0
2, 97804, Note_on_c, 0, 62, 0
2, 97804, Note_on_c, 0, 76, 68
2, 97828, Note_on_c, 0, 53, 0
2, 97840, Note_on_c, 0, 76, 0
2, 97848, Note_on_c, 0, 78, 57
2, 97860, Note_on_c, 0, 55, 0
2, 97860, Note_on_c, 0, 78, 0
2, 97876, Note_on_c, 0, 58, 0
2, 97884, Note_on_c, 0, 79, 61
2, 97900, Note_on_c, 0, 79, 0
2, 97936, Note_on_c, 0, 81, 45
2, 97956, Note_on_c, 0, 82, 58
2, 97960, Note_on_c, 0, 81, 0
2, 97992, Note_on_c, 0, 82, 0
2, 98000, Note_on_c, 0, 83, 42
2, 98036, Note_on_c, 0, 83, 0
2, 98044, Note_on_c, 0, 84, 63
2, 98084, Note_on_c, 0, 84, 0
2, 98136, Note_on_c, 0, 82, 58
2, 98144, Note_on_c, 0, 58, 41
2, 98144, Note_on_c, 0, 62, 40
2, 98152, Note_on_c, 0, 82, 0
2, 98172, Note_on_c, 0, 62, 0
2, 98184, Note_on_c, 0, 58, 0
2, 98224, Note_on_c, 0, 82, 60
2, 98240, Note_on_c, 0, 82, 0
2, 98328, Note_on_c, 0, 82, 60
2, 98364, Note_on_c, 0, 82, 0
2, 98404, Note_on_c, 0, 80, 54
2, 98404, Note_on_c, 0, 63, 34
2, 98404, Note_on_c, 0, 67, 32
2, 98412, Note_on_c, 0, 56, 36
2, 98420, Note_on_c, 0, 60, 42
2, 98436, Note_on_c, 0, 80, 0
2, 98496, Note_on_c, 0, 80, 61
2, 98532, Note_on_c, 0, 80, 0
2, 98572, Note_on_c, 0, 79, 54
2, 98592, Note_on_c, 0, 79, 0
2, 98676, Note_on_c, 0, 79, 54
2, 98688, Note_on_c, 0, 79, 0
2, 98740, Note_on_c, 0, 77, 54
2, 98776, Note_on_c, 0, 77, 0
2, 98840, Note_on_c, 0, 77, 69
2, 98872, Control_c, 0, 64, 127
2, 98876, Note_on_c, 0, 77, 0
2, 98920, Note_on_c, 0, 75, 57
2, 98936, Note_on_c, 0, 67, 0
2, 98944, Note_on_c, 0, 60, 0
2, 98948, Note_on_c, 0, 75, 0
2, 98964, Note_on_c, 0, 56, 0
2, 98976, Note_on_c, 0, 63, 0
2, 99036, Note_on_c, 0, 75, 68
2, 99040, Note_on_c, 0, 56, 31
2, 99044, Note_on_c, 0, 63, 38
2, 99060, Note_on_c, 0, 60, 39
2, 99064, Control_c, 0, 64, 0
2, 99068, Note_on_c, 0, 56, 0
2, 99076, Note_on_c, 0, 63, 0
2, 99080, Note_on_c, 0, 60, 0
2, 99088, Note_on_c, 0, 75, 0
2, 99116, Note_on_c, 0, 56, 43
2, 99120, Control_c, 0, 64, 127
2, 99124, Note_on_c, 0, 74, 72
2, 99124, Note_on_c, 0, 67, 53
2, 99144, Note_on_c, 0, 62, 42
2, 99224, Note_on_c, 0, 67, 0
2, 99232, Note_on_c, 0, 56, 0
2, 99236, Note_on_c, 0, 62, 0
2, 99256, Note_on_c, 0, 74, 0
2, 99304, Note_on_c, 0, 56, 50
2, 99308, Note_on_c, 0, 75, 82
2, 99308, Note_on_c, 0, 67, 50
2, 99316, Note_on_c, 0, 62, 48
2, 99364, Note_on_c, 0, 67, 0
2, 99380, Note_on_c, 0, 62, 0
2, 99396, Note_on_c, 0, 56, 0
2, 99408, Note_on_c, 0, 75, 0
2, 99488, Note_on_c, 0, 56, 54
2, 99492, Note_on_c, 0, 67, 48
2, 99492, Note_on_c, 0, 77, 76
2, 99508, Note_on_c, 0, 62, 42
2, 99536, Note_on_c, 0, 67, 0
2, 99552, Note_on_c, 0, 62, 0
2, 99604, Note_on_c, 0, 56, 0
2, 99664, Note_on_c, 0, 77, 0
2, 99700, Note_on_c, 0, 74, 68
2, 99732, Note_on_c, 0, 74, 0
2, 99872, Control_c, 0, 64, 0
2, 99888, Note_on_c, 0, 82, 72
2, 99896, Note_on_c, 0, 74, 76
2, 99904, Note_on_c, 0, 70, 61
2, 99924, Control_c, 0, 64, 127
2, 100080, Note_on_c, 0, 82, 0
2, 100088, Note_on_c, 0, 74, 0
2, 100088, Note_on_c, 0, 46, 61
2, 100112, Note_on_c, 0, 70, 0
2, 100276, Control_c, 0, 64, 0
2, 100284, Note_on_c, 0, 70, 60
2, 100288, Note_on_c, 0, 55, 48
2, 100292, Note_on_c, 0, 62, 62
2, 100292, Note_on_c, 0, 67, 63
2, 100300, Control_c, 0, 64, 127
2, 100432, Note_on_c, 0, 46, 0
2, 100476, Note_on_c, 0, 46, 56
2, 100484, Note_on_c, 0, 67, 0
2, 100492, Note_on_c, 0, 70, 0
2, 100512, Note_on_c, 0, 55, 0
2, 100512, Note_on_c, 0, 62, 0
2, 100608, Note_on_c, 0, 46, 0
2, 100672, Note_on_c, 0, 46, 70
2, 100808, Note_on_c, 0, 46, 0
2, 100860, Note_on_c, 0, 46, 69
2, 101052, Note_on_c, 0, 58, 53
2, 101056, Note_on_c, 0, 62, 55
2, 101060, Note_on_c, 0, 55, 45
2, 101164, Note_on_c, 0, 62, 0
2, 101168, Note_on_c, 0, 46, 0
2, 101176, Note_on_c, 0, 58, 0
2, 101228, Note_on_c, 0, 46, 55
2, 101268, Note_on_c, 0, 46, 0
2, 101272, Note_on_c, 0, 55, 0
2, 101396, System_exclusive, 8, 67, 16, 76, 8, 9, 114, 64, 247
2, 101396, System_exclusive, 8, 67, 16, 76, 8, 9, 115, 95, 247
2, 101396, System_exclusive, 8, 67, 16, 76, 8, 9, 119, 46, 247
2, 101396, System_exclusive, 8, 67, 16, 76, 8, 9, 32, 10, 247
2, 101416, Control_c, 0, 64, 0
2, 101432, Note_on_c, 0, 62, 40
2, 101432, Note_on_c, 0, 58, 43
2, 101436, Note_on_c, 0, 51, 39
2, 101440, Note_on_c, 0, 55, 42
2, 101516, Control_c, 0, 64, 127
2, 101688, Note_on_c, 0, 62, 0
2, 101736, Note_on_c, 0, 70, 60
2, 101804, Note_on_c, 0, 70, 0
2, 101836, Note_on_c, 0, 67, 43
2, 101860, Note_on_c, 0, 58, 0
2, 101888, Note_on_c, 0, 67, 0
2, 101896, Note_on_c, 0, 55, 0
2, 101928, Note_on_c, 0, 70, 56
2, 101988, Note_on_c, 0, 70, 0
2, 102024, Note_on_c, 0, 67, 48
2, 102064, Note_on_c, 0, 67, 0
2, 102096, Note_on_c, 0, 51, 0
2, 102120, Note_on_c, 0, 70, 56
2, 102188, Control_c, 0, 64, 0
2, 102192, Note_on_c, 0, 70, 0
2, 102208, Note_on_c, 0, 51, 41
2, 102212, Note_on_c, 0, 62, 49
2, 102212, Note_on_c, 0, 67, 53
2, 102216, Note_on_c, 0, 58, 43
2, 102244, Control_c, 0, 64, 127
2, 102376, Note_on_c, 0, 62, 0
2, 102400, Note_on_c, 0, 67, 0
2, 102400, Note_on_c, 0, 70, 58
2, 102436, Note_on_c, 0, 70, 0
2, 102484, Note_on_c, 0, 58, 0
2, 102576, Note_on_c, 0, 82, 73
2, 102588, Note_on_c, 0, 58, 44
2, 102588, Note_on_c, 0, 62, 44
2, 102592, Note_on_c, 0, 74, 68
2, 102692, Note_on_c, 0, 62, 0
2, 102712, Note_on_c, 0, 58, 0
2, 102780, Note_on_c, 0, 51, 0
2, 102868, Note_on_c, 0, 74, 0
2, 102872, Note_on_c, 0, 82, 0
2, 102876, Note_on_c, 0, 79, 63
2, 102952, Note_on_c, 0, 79, 0
2, 102968, Control_c, 0, 64, 0
2, 102968, Note_on_c, 0, 58, 46
2, 102976, Note_on_c, 0, 80, 63
2, 102980, Note_on_c, 0, 63, 46
2, 102992, Note_on_c, 0, 60, 34
2, 102992, Note_on_c, 0, 68, 25
2, 103096, Control_c, 0, 64, 127
2, 103152, Note_on_c, 0, 82, 68
2, 103172, Note_on_c, 0, 80, 0
2, 103296, Note_on_c, 0, 82, 0
2, 103340, Note_on_c, 0, 80, 63
2, 103420, Note_on_c, 0, 68, 0
2, 103480, Note_on_c, 0, 63, 0
2, 103488, Note_on_c, 0, 60, 0
2, 103492, Note_on_c, 0, 58, 0
2, 103500, Note_on_c, 0, 80, 0
2, 103524, Note_on_c, 0, 82, 48
2, 103584, Note_on_c, 0, 82, 0
2, 103696, Control_c, 0, 64, 0
2, 103716, Note_on_c, 0, 67, 39
2, 103716, Note_on_c, 0, 56, 40
2, 103724, Note_on_c, 0, 80, 53
2, 103732, Note_on_c, 0, 62, 39
2, 103808, Control_c, 0, 64, 127
2, 103920, Note_on_c, 0, 82, 57
2, 103936, Note_on_c, 0, 62, 0
2, 103948, Note_on_c, 0, 80, 0
2, 103952, Note_on_c, 0, 67, 0
2, 104084, Note_on_c, 0, 82, 0
2, 104124, Note_on_c, 0, 67, 30
2, 104132, Note_on_c, 0, 84, 54
2, 104144, Note_on_c, 0, 62, 25
2, 104180, Note_on_c, 0, 67, 0
2, 104188, Note_on_c, 0, 62, 0
2, 104196, Note_on_c, 0, 84, 0
2, 104272, Note_on_c, 0, 56, 0
2, 104328, Note_on_c, 0, 86, 53
2, 104396, Note_on_c, 0, 86, 0
2, 104528, Control_c, 0, 64, 0
2, 104544, Note_on_c, 0, 87, 56
2, 104552, Note_on_c, 0, 39, 44
2, 104612, Control_c, 0, 64, 127
2, 104684, Note_on_c, 0, 87, 0
2, 104692, Note_on_c, 0, 39, 0
2, 104692, Note_on_c, 0, 46, 48
2, 104792, Note_on_c, 0, 46, 0
2, 104820, Note_on_c, 0, 53, 48
2, 104920, Note_on_c, 0, 53, 0
2, 104944, Note_on_c, 0, 55, 48
2, 105072, Note_on_c, 0, 58, 46
2, 105220, Note_on_c, 0, 60, 49
2, 105292, Note_on_c, 0, 60, 0
2, 105308, Note_on_c, 0, 62, 63
2, 105348, Note_on_c, 0, 62, 0
2, 105400, Note_on_c, 0, 65, 59
2, 105456, Note_on_c, 0, 65, 0
2, 105496, Note_on_c, 0, 67, 56
2, 105544, Note_on_c, 0, 67, 0
2, 105592, Note_on_c, 0, 70, 60
2, 105628, Note_on_c, 0, 70, 0
2, 105688, Note_on_c, 0, 72, 58
2, 105736, Note_on_c, 0, 72, 0
2, 105804, Note_on_c, 0, 74, 42
2, 105844, Note_on_c, 0, 74, 0
2, 105928, Note_on_c, 0, 77, 57
2, 106004, Note_on_c, 0, 77, 0
2, 106028, Note_on_c, 0, 82, 58
2, 106064, Note_on_c, 0, 82, 0
2, 106112, Note_on_c, 0, 84, 56
2, 106168, Note_on_c, 0, 84, 0
2, 106184, Note_on_c, 0, 89, 60
2, 106236, Note_on_c, 0, 89, 0
2, 106252, Note_on_c, 0, 94, 59
2, 106276, Note_on_c, 0, 94, 0
2, 106324, Note_on_c, 0, 95, 55
2, 106328, Note_on_c, 0, 96, 47
2, 106344, Note_on_c, 0, 96, 0
2, 106356, Note_on_c, 0, 95, 0
2, 106396, Note_on_c, 0, 101, 66
2, 106452, Note_on_c, 0, 101, 0
2, 106468, Note_on_c, 0, 106, 68
2, 106528, Note_on_c, 0, 106, 0
2, 106552, Note_on_c, 0, 108, 71
2, 106632, Note_on_c, 0, 58, 0
2, 106652, Note_on_c, 0, 55, 0
2, 106668, Note_on_c, 0, 108, 0
2, 106704, Note_on_c, 0, 108, 63
2, 106816, Note_on_c, 0, 108, 0
2, 106864, Note_on_c, 0, 108, 61
2, 106968, Note_on_c, 0, 108, 0
2, 107040, Note_on_c, 0, 108, 51
2, 107140, Note_on_c, 0, 108, 0
2, 107240, Note_on_c, 0, 108, 46
2, 107256, Note_on_c, 0, 27, 32
2, 107288, System_exclusive, 8, 67, 16, 76, 8, 1, 114, 64, 247
2, 107288, System_exclusive, 8, 67, 16, 76, 8, 1, 115, 64, 247
2, 107736, Note_on_c, 0, 108, 0
2, 107760, Note_on_c, 0, 27, 0
2, 108584, Control_c, 0, 64, 0
2, 108656, System_exclusive, 8, 67, 16, 76, 3, 1, 12, 127, 247
2, 108672, System_exclusive, 8, 67, 16, 76, 3, 0, 12, 127, 247
2, 108672, End_track
3, 0, Start_track
3, 0, MIDI_port, 0
3, 0, Sequencer_specific, 7, 0, 0, 0, 106, 0, 4, 2
3, 0, Title_t, "Acoustic Bass"
3, 0, Control_c, 1, 0, 0
3, 0, Control_c, 1, 32, 0
3, 0, Program_c, 1, 32
3, 391, Control_c, 1, 7, 127
3, 391, Control_c, 1, 10, 64
3, 391, Control_c, 1, 91, 16
3, 391, Control_c, 1, 93, 0
3, 3124, Note_on_c, 1, 39, 68
3, 3868, Note_on_c, 1, 48, 85
3, 3916, Note_on_c, 1, 39, 0
3, 4580, Note_on_c, 1, 42, 49
3, 4636, Note_on_c, 1, 42, 0
3, 4644, Note_on_c, 1, 48, 0
3, 4644, Note_on_c, 1, 43, 63
3, 5636, Note_on_c, 1, 43, 0
3, 5648, Note_on_c, 1, 39, 65
3, 5860, Note_on_c, 1, 51, 85
3, 6152, Note_on_c, 1, 39, 0
3, 6160, Note_on_c, 1, 49, 63
3, 6180, Note_on_c, 1, 51, 0
3, 6228, Note_on_c, 1, 49, 0
3, 6248, Note_on_c, 1, 48, 60
3, 6976, Note_on_c, 1, 48, 0
3, 6976, Note_on_c, 1, 45, 67
3, 7376, Note_on_c, 1, 45, 0
3, 7380, Note_on_c, 1, 38, 50
3, 7736, Note_on_c, 1, 43, 52
3, 7740, Note_on_c, 1, 38, 0
3, 8196, Note_on_c, 1, 38, 52
3, 8288, Note_on_c, 1, 38, 0
3, 8316, Note_on_c, 1, 43, 0
3, 8340, Note_on_c, 1, 37, 66
3, 8464, Note_on_c, 1, 37, 0
3, 8484, Note_on_c, 1, 36, 62
3, 9456, Note_on_c, 1, 32, 50
3, 9460, Note_on_c, 1, 36, 0
3, 9660, Note_on_c, 1, 44, 72
3, 9840, Note_on_c, 1, 44, 0
3, 9864, Note_on_c, 1, 44, 69
3, 10044, Note_on_c, 1, 44, 0
3, 10048, Note_on_c, 1, 32, 0
3, 10052, Note_on_c, 1, 37, 57
3, 10160, Note_on_c, 1, 52, 37
3, 10248, Note_on_c, 1, 52, 0
3, 10252, Note_on_c, 1, 53, 50
3, 10844, Note_on_c, 1, 39, 55
3, 10856, Note_on_c, 1, 39, 0
3, 11032, Note_on_c, 1, 37, 0
3, 11036, Note_on_c, 1, 39, 68
3, 11052, Note_on_c, 1, 53, 0
3, 11772, Note_on_c, 1, 48, 86
3, 11796, Note_on_c, 1, 39, 0
3, 11972, Note_on_c, 1, 49, 80
3, 12012, Note_on_c, 1, 48, 0
3, 12172, Note_on_c, 1, 40, 73
3, 12184, Note_on_c, 1, 49, 0
3, 12356, Note_on_c, 1, 40, 0
3, 12360, Note_on_c, 1, 41, 59
3, 12744, Note_on_c, 1, 33, 79
3, 12784, Note_on_c, 1, 41, 0
3, 13104, Note_on_c, 1, 34, 71
3, 13112, Note_on_c, 1, 33, 0
3, 14048, Note_on_c, 1, 46, 85
3, 14372, Note_on_c, 1, 34, 0
3, 14424, Note_on_c, 1, 34, 85
3, 14944, Note_on_c, 1, 46, 0
3, 15032, Note_on_c, 1, 46, 79
3, 15180, Note_on_c, 1, 46, 0
3, 15208, Note_on_c, 1, 46, 74
3, 15372, Note_on_c, 1, 46, 0
3, 15392, Note_on_c, 1, 45, 78
3, 15404, Note_on_c, 1, 34, 0
3, 16052, Note_on_c, 1, 39, 53
3, 16084, Note_on_c, 1, 39, 0
3, 16096, Note_on_c, 1, 45, 0
3, 16112, Note_on_c, 1, 37, 50
3, 16176, Note_on_c, 1, 37, 0
3, 16196, Note_on_c, 1, 38, 50
3, 17308, Note_on_c, 1, 43, 82
3, 17324, Note_on_c, 1, 38, 0
3, 17888, Note_on_c, 1, 41, 81
3, 17904, Note_on_c, 1, 43, 0
3, 18192, Note_on_c, 1, 41, 0
3, 18200, Note_on_c, 1, 40, 60
3, 18288, Note_on_c, 1, 40, 0
3, 18332, Note_on_c, 1, 33, 68
3, 18452, Note_on_c, 1, 33, 0
3, 18460, Note_on_c, 1, 32, 66
3, 19216, Note_on_c, 1, 44, 88
3, 19280, Note_on_c, 1, 32, 0
3, 19956, Note_on_c, 1, 44, 0
3, 19960, Note_on_c, 1, 38, 39
3, 19992, Note_on_c, 1, 38, 0
3, 20012, Note_on_c, 1, 43, 76
3, 20788, Note_on_c, 1, 36, 68
3, 20800, Note_on_c, 1, 43, 0
3, 21276, Note_on_c, 1, 34, 54
3, 21344, Note_on_c, 1, 34, 0
3, 21368, Note_on_c, 1, 36, 0
3, 21380, Note_on_c, 1, 33, 64
3, 21516, Note_on_c, 1, 33, 0
3, 21520, Note_on_c, 1, 32, 63
3, 22052, Note_on_c, 1, 34, 52
3, 22208, Note_on_c, 1, 32, 0
3, 22212, Note_on_c, 1, 35, 49
3, 22216, Note_on_c, 1, 34, 0
3, 22256, Note_on_c, 1, 35, 0
3, 22280, Note_on_c, 1, 36, 57
3, 22344, Note_on_c, 1, 37, 69
3, 22352, Note_on_c, 1, 36, 0
3, 23064, Note_on_c, 1, 39, 69
3, 23076, Note_on_c, 1, 37, 0
3, 23836, Note_on_c, 1, 48, 88
3, 23868, Note_on_c, 1, 39, 0
3, 24232, Note_on_c, 1, 55, 79
3, 24596, Note_on_c, 1, 48, 0
3, 24620, Note_on_c, 1, 53, 76
3, 24628, Note_on_c, 1, 55, 0
3, 25216, Note_on_c, 1, 41, 76
3, 25404, Note_on_c, 1, 34, 78
3, 25412, Note_on_c, 1, 53, 0
3, 25412, Note_on_c, 1, 41, 0
3, 25588, Note_on_c, 1, 34, 0
3, 25608, Note_on_c, 1, 34, 92
3, 26732, Note_on_c, 1, 46, 62
3, 26892, Note_on_c, 1, 46, 0
3, 26920, Note_on_c, 1, 46, 57
3, 27084, Note_on_c, 1, 46, 0
3, 27112, Note_on_c, 1, 46, 68
3, 27284, Note_on_c, 1, 46, 0
3, 27306, Note_on_c, 1, 46, 57
3, 27704, Note_on_c, 1, 46, 0
3, 27704, Note_on_c, 1, 39, 57
3, 27736, Note_on_c, 1, 34, 0
3, 28244, Note_on_c, 1, 46, 72
3, 28412, Note_on_c, 1, 46, 0
3, 28440, Note_on_c, 1, 46, 67
3, 28616, Note_on_c, 1, 46, 0
3, 28636, Note_on_c, 1, 46, 65
3, 28688, Note_on_c, 1, 39, 0
3, 28824, Note_on_c, 1, 34, 65
3, 29200, Note_on_c, 1, 46, 0
3, 29212, Note_on_c, 1, 39, 79
3, 29224, Note_on_c, 1, 34, 0
3, 29772, Note_on_c, 1, 48, 75
3, 29904, Note_on_c, 1, 39, 0
3, 29980, Note_on_c, 1, 39, 48
3, 30128, Note_on_c, 1, 39, 0
3, 30164, Note_on_c, 1, 39, 57
3, 30340, Note_on_c, 1, 39, 0
3, 30364, Note_on_c, 1, 39, 60
3, 30724, Note_on_c, 1, 39, 0
3, 30748, Note_on_c, 1, 39, 75
3, 30752, Note_on_c, 1, 48, 0
3, 31316, Note_on_c, 1, 46, 63
3, 31640, Note_on_c, 1, 46, 0
3, 31708, Note_on_c, 1, 46, 63
3, 31856, Note_on_c, 1, 46, 0
3, 31896, Note_on_c, 1, 46, 54
3, 32044, Note_on_c, 1, 39, 0
3, 32088, Note_on_c, 1, 39, 61
3, 32264, Note_on_c, 1, 39, 0
3, 32288, Note_on_c, 1, 39, 77
3, 32292, Note_on_c, 1, 46, 0
3, 33068, Note_on_c, 1, 48, 86
3, 33264, Note_on_c, 1, 48, 0
3, 33272, Note_on_c, 1, 46, 66
3, 33276, Note_on_c, 1, 39, 0
3, 33636, Note_on_c, 1, 38, 71
3, 33784, Note_on_c, 1, 46, 0
3, 33824, Note_on_c, 1, 39, 76
3, 33832, Note_on_c, 1, 38, 0
3, 34408, Note_on_c, 1, 46, 83
3, 34572, Note_on_c, 1, 46, 0
3, 34604, Note_on_c, 1, 46, 75
3, 34772, Note_on_c, 1, 46, 0
3, 34812, Note_on_c, 1, 46, 79
3, 35264, Note_on_c, 1, 49, 54
3, 35276, Note_on_c, 1, 46, 0
3, 35320, Note_on_c, 1, 46, 63
3, 35336, Note_on_c, 1, 49, 0
3, 35380, Note_on_c, 1, 46, 0
3, 35396, Note_on_c, 1, 39, 0
3, 35400, Note_on_c, 1, 45, 80
3, 35932, Note_on_c, 1, 39, 68
3, 35944, Note_on_c, 1, 45, 0
3, 36116, Note_on_c, 1, 39, 0
3, 36120, Note_on_c, 1, 38, 75
3, 36324, Note_on_c, 1, 38, 0
3, 36348, Note_on_c, 1, 38, 80
3, 36692, Note_on_c, 1, 33, 57
3, 36696, Note_on_c, 1, 38, 0
3, 36740, Note_on_c, 1, 33, 0
3, 36792, Note_on_c, 1, 32, 57
3, 36880, Note_on_c, 1, 32, 0
3, 36896, Note_on_c, 1, 31, 68
3, 37684, Note_on_c, 1, 31, 0
3, 37692, Note_on_c, 1, 42, 85
3, 38404, Note_on_c, 1, 39, 47
3, 38416, Note_on_c, 1, 42, 0
3, 38472, Note_on_c, 1, 39, 0
3, 38472, Note_on_c, 1, 41, 81
3, 38860, Note_on_c, 1, 35, 83
3, 38876, Note_on_c, 1, 41, 0
3, 39192, Note_on_c, 1, 35, 0
3, 39200, Note_on_c, 1, 34, 72
3, 39596, Note_on_c, 1, 46, 86
3, 39964, Note_on_c, 1, 46, 0
3, 39992, Note_on_c, 1, 45, 89
3, 40000, Note_on_c, 1, 34, 0
3, 40736, Note_on_c, 1, 38, 72
3, 40740, Note_on_c, 1, 45, 0
3, 41508, Note_on_c, 1, 31, 67
3, 41516, Note_on_c, 1, 38, 0
3, 42652, Note_on_c, 1, 31, 0
3, 42660, Note_on_c, 1, 39, 73
3, 43060, Note_on_c, 1, 39, 0
3, 43060, Note_on_c, 1, 32, 66
3, 43996, Note_on_c, 1, 45, 57
3, 44172, Note_on_c, 1, 45, 0
3, 44196, Note_on_c, 1, 50, 72
3, 44280, Note_on_c, 1, 32, 0
3, 44384, Note_on_c, 1, 50, 0
3, 44388, Note_on_c, 1, 38, 65
3, 44768, Note_on_c, 1, 43, 82
3, 44796, Note_on_c, 1, 38, 0
3, 45160, Note_on_c, 1, 50, 81
3, 45220, Note_on_c, 1, 43, 0
3, 45276, Note_on_c, 1, 38, 46
3, 45328, Note_on_c, 1, 38, 0
3, 45348, Note_on_c, 1, 50, 0
3, 45356, Note_on_c, 1, 48, 76
3, 45652, Note_on_c, 1, 43, 57
3, 45696, Note_on_c, 1, 43, 0
3, 45740, Note_on_c, 1, 36, 68
3, 45764, Note_on_c, 1, 48, 0
3, 45900, Note_on_c, 1, 36, 0
3, 45928, Note_on_c, 1, 36, 73
3, 46088, Note_on_c, 1, 36, 0
3, 46104, Note_on_c, 1, 32, 70
3, 46872, Note_on_c, 1, 32, 0
3, 46872, Note_on_c, 1, 37, 56
3, 46876, Note_on_c, 1, 53, 56
3, 46936, Note_on_c, 1, 53, 0
3, 46956, Note_on_c, 1, 52, 36
3, 46964, Note_on_c, 1, 37, 0
3, 46976, Note_on_c, 1, 36, 40
3, 47004, Note_on_c, 1, 36, 0
3, 47012, Note_on_c, 1, 52, 0
3, 47016, Note_on_c, 1, 37, 61
3, 47024, Note_on_c, 1, 53, 56
3, 47648, Note_on_c, 1, 37, 0
3, 47652, Note_on_c, 1, 43, 86
3, 47700, Note_on_c, 1, 53, 0
3, 48148, Note_on_c, 1, 38, 63
3, 48160, Note_on_c, 1, 43, 0
3, 48180, Note_on_c, 1, 38, 0
3, 48240, Note_on_c, 1, 37, 52
3, 48256, Note_on_c, 1, 37, 0
3, 48348, Note_on_c, 1, 35, 63
3, 48424, Note_on_c, 1, 35, 0
3, 48440, Note_on_c, 1, 36, 63
3, 48800, Note_on_c, 1, 36, 0
3, 48812, Note_on_c, 1, 48, 79
3, 49088, Note_on_c, 1, 48, 0
3, 49120, Note_on_c, 1, 40, 57
3, 49180, Note_on_c, 1, 40, 0
3, 49192, Note_on_c, 1, 41, 63
3, 49580, Note_on_c, 1, 35, 80
3, 49584, Note_on_c, 1, 41, 0
3, 49964, Note_on_c, 1, 35, 0
3, 49972, Note_on_c, 1, 34, 68
3, 50332, Note_on_c, 1, 40, 77
3, 50344, Note_on_c, 1, 34, 0
3, 50708, Note_on_c, 1, 40, 0
3, 50712, Note_on_c, 1, 39, 66
3, 51308, Note_on_c, 1, 46, 85
3, 51460, Note_on_c, 1, 46, 0
3, 51496, Note_on_c, 1, 46, 77
3, 51744, Note_on_c, 1, 39, 0
3, 51844, Note_on_c, 1, 46, 0
3, 51876, Note_on_c, 1, 46, 68
3, 52220, Note_on_c, 1, 46, 0
3, 52242, Control_c, 1, 0, 0
3, 52242, Control_c, 1, 32, 122
3, 52243, Control_c, 1, 0, 0
3, 52243, Control_c, 1, 32, 122
3, 52244, Control_c, 1, 0, 0
3, 52244, Control_c, 1, 32, 122
3, 52244, Control_c, 1, 0, 0
3, 52244, Control_c, 1, 32, 122
3, 52244, Control_c, 1, 0, 0
3, 52244, Control_c, 1, 32, 122
3, 52244, Control_c, 1, 91, 16
3, 52244, Control_c, 1, 0, 0
3, 52244, Control_c, 1, 7, 127
3, 52244, Control_c, 1, 32, 122
3, 52244, Control_c, 1, 11, 127
3, 52244, Control_c, 1, 94, 0
3, 52244, Note_on_c, 1, 45, 82
3, 52244, Control_c, 1, 10, 64
3, 52244, Control_c, 1, 93, 0
3, 52244, Program_c, 1, 32
3, 52244, Control_c, 1, 101, 0
3, 52245, Control_c, 1, 100, 1
3, 52246, Control_c, 1, 6, 64
3, 52247, Control_c, 1, 38, 0
3, 52976, Note_on_c, 1, 39, 55
3, 53000, Note_on_c, 1, 45, 0
3, 53016, Note_on_c, 1, 39, 0
3, 53048, Note_on_c, 1, 38, 59
3, 53532, Note_on_c, 1, 50, 71
3, 53552, Note_on_c, 1, 50, 0
3, 53556, Note_on_c, 1, 38, 0
3, 53600, Note_on_c, 1, 45, 65
3, 53680, Note_on_c, 1, 45, 0
3, 53708, Note_on_c, 1, 44, 68
3, 53768, Note_on_c, 1, 44, 0
3, 53788, Note_on_c, 1, 43, 62
3, 54096, Note_on_c, 1, 38, 49
3, 54104, Note_on_c, 1, 43, 0
3, 54144, Note_on_c, 1, 38, 0
3, 54164, Note_on_c, 1, 34, 66
3, 54588, Note_on_c, 1, 34, 0
3, 54588, Note_on_c, 1, 31, 75
3, 54956, Note_on_c, 1, 31, 0
3, 54968, Note_on_c, 1, 33, 80
3, 54980, Note_on_c, 1, 35, 55
3, 54992, Note_on_c, 1, 35, 0
3, 55276, Note_on_c, 1, 33, 0
3, 55280, Note_on_c, 1, 31, 67
3, 55336, Note_on_c, 1, 31, 0
3, 55344, Note_on_c, 1, 32, 72
3, 56092, Note_on_c, 1, 44, 54
3, 56140, Note_on_c, 1, 44, 0
3, 56164, Note_on_c, 1, 43, 46
3, 56188, Note_on_c, 1, 43, 0
3, 56220, Note_on_c, 1, 44, 78
3, 56764, Note_on_c, 1, 42, 56
3, 56792, Note_on_c, 1, 32, 0
3, 56796, Note_on_c, 1, 44, 0
3, 56816, Note_on_c, 1, 42, 0
3, 56836, Note_on_c, 1, 43, 66
3, 56848, Note_on_c, 1, 43, 0
3, 56952, Note_on_c, 1, 38, 51
3, 57000, Note_on_c, 1, 38, 0
3, 57020, Note_on_c, 1, 34, 60
3, 57616, Note_on_c, 1, 34, 0
3, 57624, Note_on_c, 1, 36, 58
3, 58028, Note_on_c, 1, 48, 120
3, 58396, Note_on_c, 1, 36, 0
3, 58424, Note_on_c, 1, 44, 94
3, 58440, Note_on_c, 1, 48, 0
3, 58920, Note_on_c, 1, 39, 57
3, 58952, Note_on_c, 1, 44, 0
3, 58964, Note_on_c, 1, 39, 0
3, 59032, Note_on_c, 1, 38, 71
3, 59148, Note_on_c, 1, 38, 0
3, 59164, Note_on_c, 1, 37, 68
3, 59860, Note_on_c, 1, 38, 56
3, 59888, Note_on_c, 1, 37, 0
3, 59912, Note_on_c, 1, 38, 0
3, 59952, Note_on_c, 1, 55, 63
3, 59956, Note_on_c, 1, 39, 60
3, 60048, Note_on_c, 1, 55, 0
3, 60060, Note_on_c, 1, 54, 38
3, 60084, Note_on_c, 1, 38, 50
3, 60088, Note_on_c, 1, 39, 0
3, 60128, Note_on_c, 1, 54, 0
3, 60160, Note_on_c, 1, 55, 40
3, 60160, Note_on_c, 1, 39, 57
3, 60164, Note_on_c, 1, 38, 0
3, 60720, Note_on_c, 1, 36, 76
3, 60724, Note_on_c, 1, 55, 0
3, 60736, Note_on_c, 1, 39, 0
3, 61132, Note_on_c, 1, 42, 89
3, 61136, Note_on_c, 1, 36, 0
3, 61476, Note_on_c, 1, 42, 0
3, 61508, Note_on_c, 1, 41, 78
3, 61812, Note_on_c, 1, 36, 63
3, 61852, Note_on_c, 1, 36, 0
3, 61888, Note_on_c, 1, 41, 0
3, 61892, Note_on_c, 1, 29, 83
3, 62256, Note_on_c, 1, 29, 0
3, 62264, Note_on_c, 1, 34, 82
3, 63204, Note_on_c, 1, 46, 89
3, 63240, Note_on_c, 1, 46, 0
3, 63380, Note_on_c, 1, 46, 85
3, 63412, Note_on_c, 1, 46, 0
3, 63560, Note_on_c, 1, 46, 85
3, 63628, Note_on_c, 1, 46, 0
3, 63740, Note_on_c, 1, 46, 81
3, 63816, Note_on_c, 1, 46, 0
3, 63848, Note_on_c, 1, 46, 61
3, 63896, Note_on_c, 1, 46, 0
3, 63928, Note_on_c, 1, 46, 78
3, 64208, Note_on_c, 1, 34, 0
3, 64352, Note_on_c, 1, 34, 59
3, 64536, Note_on_c, 1, 46, 0
3, 64552, Note_on_c, 1, 45, 98
3, 64572, Note_on_c, 1, 34, 0
3, 65204, Note_on_c, 1, 39, 57
3, 65236, Note_on_c, 1, 39, 0
3, 65276, Note_on_c, 1, 37, 65
3, 65312, Note_on_c, 1, 45, 0
3, 65340, Note_on_c, 1, 37, 0
3, 65348, Note_on_c, 1, 38, 76
3, 65928, Note_on_c, 1, 50, 56
3, 65940, Note_on_c, 1, 51, 30
3, 65960, Note_on_c, 1, 51, 0
3, 66076, Note_on_c, 1, 38, 0
3, 66084, Note_on_c, 1, 50, 0
3, 66112, Note_on_c, 1, 43, 71
3, 66244, Control_c, 1, 1, 3
3, 66248, Control_c, 1, 1, 6
3, 66252, Control_c, 1, 1, 10
3, 66256, Control_c, 1, 1, 14
3, 66260, Control_c, 1, 1, 19
3, 66264, Control_c, 1, 1, 24
3, 66268, Control_c, 1, 1, 29
3, 66272, Control_c, 1, 1, 34
3, 66276, Control_c, 1, 1, 41
3, 66280, Control_c, 1, 1, 48
3, 66284, Control_c, 1, 1, 55
3, 66288, Control_c, 1, 1, 62
3, 66292, Control_c, 1, 1, 68
3, 66296, Control_c, 1, 1, 75
3, 66300, Control_c, 1, 1, 81
3, 66304, Control_c, 1, 1, 86
3, 66308, Control_c, 1, 1, 92
3, 66312, Control_c, 1, 1, 97
3, 66316, Control_c, 1, 1, 101
3, 66320, Control_c, 1, 1, 106
3, 66324, Control_c, 1, 1, 111
3, 66328, Control_c, 1, 1, 115
3, 66332, Control_c, 1, 1, 118
3, 66336, Control_c, 1, 1, 122
3, 66340, Control_c, 1, 1, 125
3, 66344, Control_c, 1, 1, 127
3, 66488, Control_c, 1, 1, 126
3, 66492, Control_c, 1, 1, 125
3, 66496, Control_c, 1, 1, 124
3, 66500, Control_c, 1, 1, 123
3, 66504, Control_c, 1, 1, 121
3, 66508, Control_c, 1, 1, 119
3, 66512, Control_c, 1, 1, 117
3, 66516, Control_c, 1, 1, 115
3, 66520, Control_c, 1, 1, 112
3, 66524, Control_c, 1, 1, 108
3, 66528, Control_c, 1, 1, 104
3, 66532, Control_c, 1, 1, 100
3, 66536, Control_c, 1, 1, 96
3, 66540, Control_c, 1, 1, 90
3, 66544, Control_c, 1, 1, 85
3, 66548, Control_c, 1, 1, 79
3, 66552, Control_c, 1, 1, 72
3, 66556, Control_c, 1, 1, 65
3, 66560, Control_c, 1, 1, 58
3, 66564, Control_c, 1, 1, 50
3, 66568, Control_c, 1, 1, 43
3, 66572, Control_c, 1, 1, 34
3, 66576, Control_c, 1, 1, 27
3, 66580, Control_c, 1, 1, 19
3, 66584, Control_c, 1, 1, 10
3, 66588, Control_c, 1, 1, 3
3, 66592, Control_c, 1, 1, 0
3, 67536, Note_on_c, 1, 33, 63
3, 67612, Note_on_c, 1, 33, 0
3, 67620, Note_on_c, 1, 43, 0
3, 67624, Note_on_c, 1, 32, 65
3, 68184, Note_on_c, 1, 39, 63
3, 68204, Note_on_c, 1, 32, 0
3, 68376, Note_on_c, 1, 46, 79
3, 68400, Note_on_c, 1, 39, 0
3, 68548, Note_on_c, 1, 46, 0
3, 68572, Note_on_c, 1, 46, 74
3, 68760, Note_on_c, 1, 44, 72
3, 68780, Note_on_c, 1, 46, 0
3, 69160, Note_on_c, 1, 43, 66
3, 69164, Note_on_c, 1, 44, 0
3, 69284, Note_on_c, 1, 43, 0
3, 69284, Note_on_c, 1, 38, 54
3, 69308, Note_on_c, 1, 38, 0
3, 69352, Note_on_c, 1, 34, 57
3, 69720, Note_on_c, 1, 31, 69
3, 69728, Note_on_c, 1, 34, 0
3, 70112, Note_on_c, 1, 36, 77
3, 70120, Note_on_c, 1, 31, 0
3, 70300, Note_on_c, 1, 48, 98
3, 70488, Note_on_c, 1, 45, 74
3, 70496, Note_on_c, 1, 48, 0
3, 70676, Note_on_c, 1, 45, 0
3, 70680, Note_on_c, 1, 44, 78
3, 70712, Note_on_c, 1, 36, 0
3, 71200, Note_on_c, 1, 39, 58
3, 71248, Note_on_c, 1, 44, 0
3, 71316, Note_on_c, 1, 39, 0
3, 71336, Note_on_c, 1, 38, 63
3, 71480, Note_on_c, 1, 38, 0
3, 71480, Note_on_c, 1, 53, 50
3, 71480, Note_on_c, 1, 37, 53
3, 72132, Note_on_c, 1, 37, 0
3, 72132, Note_on_c, 1, 38, 49
3, 72136, Note_on_c, 1, 53, 0
3, 72144, Note_on_c, 1, 54, 42
3, 72220, Note_on_c, 1, 38, 0
3, 72232, Note_on_c, 1, 54, 0
3, 72236, Note_on_c, 1, 39, 50
3, 72240, Note_on_c, 1, 55, 48
3, 73352, Note_on_c, 1, 55, 0
3, 73356, Note_on_c, 1, 39, 0
3, 73356, Note_on_c, 1, 36, 58
3, 73760, Note_on_c, 1, 29, 76
3, 73768, Note_on_c, 1, 36, 0
3, 74504, Note_on_c, 1, 29, 0
3, 74516, Note_on_c, 1, 28, 68
3, 75100, Note_on_c, 1, 40, 68
3, 75108, Note_on_c, 1, 28, 0
3, 75288, Note_on_c, 1, 40, 0
3, 75308, Note_on_c, 1, 39, 73
3, 75872, Note_on_c, 1, 34, 70
3, 75920, Note_on_c, 1, 39, 0
3, 76064, Note_on_c, 1, 46, 85
3, 76248, Note_on_c, 1, 46, 0
3, 76276, Note_on_c, 1, 46, 88
3, 76440, Note_on_c, 1, 46, 0
3, 76468, Note_on_c, 1, 46, 85
3, 76836, Note_on_c, 1, 34, 0
3, 76844, Note_on_c, 1, 46, 0
3, 76848, Note_on_c, 1, 39, 83
3, 77020, Note_on_c, 1, 39, 0
3, 77040, Note_on_c, 1, 39, 85
3, 77416, Note_on_c, 1, 46, 86
3, 77580, Note_on_c, 1, 46, 0
3, 77604, Note_on_c, 1, 46, 77
3, 77744, Note_on_c, 1, 46, 0
3, 77780, Note_on_c, 1, 46, 68
3, 77912, Note_on_c, 1, 46, 0
3, 77960, Note_on_c, 1, 46, 71
3, 78268, Note_on_c, 1, 34, 57
3, 78292, Note_on_c, 1, 39, 0
3, 78336, Note_on_c, 1, 34, 0
3, 78352, Note_on_c, 1, 41, 78
3, 78516, Note_on_c, 1, 41, 0
3, 78540, Note_on_c, 1, 41, 84
3, 78552, Note_on_c, 1, 46, 0
3, 78944, Note_on_c, 1, 46, 87
3, 79096, Note_on_c, 1, 46, 0
3, 79128, Note_on_c, 1, 46, 71
3, 79288, Note_on_c, 1, 46, 0
3, 79328, Note_on_c, 1, 46, 66
3, 79524, Note_on_c, 1, 41, 0
3, 79528, Note_on_c, 1, 34, 82
3, 79644, Note_on_c, 1, 46, 0
3, 79948, Note_on_c, 1, 43, 85
3, 79988, Note_on_c, 1, 34, 0
3, 80124, Note_on_c, 1, 43, 0
3, 80140, Note_on_c, 1, 43, 85
3, 80704, Note_on_c, 1, 43, 0
3, 80704, Note_on_c, 1, 36, 69
3, 80888, Note_on_c, 1, 36, 0
3, 80896, Note_on_c, 1, 36, 39
3, 81428, Note_on_c, 1, 36, 0
3, 81440, Note_on_c, 1, 41, 66
3, 81844, Note_on_c, 1, 35, 86
3, 81856, Note_on_c, 1, 41, 0
3, 82224, Note_on_c, 1, 35, 0
3, 82228, Note_on_c, 1, 34, 75
3, 82616, Note_on_c, 1, 46, 86
3, 82724, Note_on_c, 1, 34, 0
3, 83000, Note_on_c, 1, 46, 0
3, 83016, Note_on_c, 1, 39, 74
3, 83192, Note_on_c, 1, 39, 0
3, 83216, Note_on_c, 1, 39, 85
3, 83748, Note_on_c, 1, 46, 87
3, 83772, Note_on_c, 1, 39, 0
3, 83904, Note_on_c, 1, 46, 0
3, 83928, Note_on_c, 1, 46, 87
3, 84104, Note_on_c, 1, 46, 0
3, 84124, Note_on_c, 1, 39, 81
3, 84304, Note_on_c, 1, 34, 82
3, 84308, Note_on_c, 1, 39, 0
3, 84480, Note_on_c, 1, 34, 0
3, 84496, Note_on_c, 1, 33, 86
3, 85192, Note_on_c, 1, 51, 85
3, 85264, Note_on_c, 1, 51, 0
3, 85276, Note_on_c, 1, 50, 66
3, 85296, Note_on_c, 1, 33, 0
3, 85384, Note_on_c, 1, 37, 64
3, 85388, Note_on_c, 1, 50, 0
3, 85452, Note_on_c, 1, 37, 0
3, 85456, Note_on_c, 1, 38, 76
3, 85640, Note_on_c, 1, 38, 0
3, 85652, Note_on_c, 1, 33, 77
3, 85832, Note_on_c, 1, 33, 0
3, 85844, Note_on_c, 1, 32, 71
3, 86024, Note_on_c, 1, 32, 0
3, 86032, Note_on_c, 1, 31, 82
3, 87192, Note_on_c, 1, 31, 0
3, 87192, Note_on_c, 1, 36, 75
3, 87400, Note_on_c, 1, 42, 83
3, 87420, Note_on_c, 1, 36, 0
3, 87572, Note_on_c, 1, 36, 27
3, 87592, Note_on_c, 1, 36, 0
3, 87600, Note_on_c, 1, 41, 76
3, 87608, Note_on_c, 1, 42, 0
3, 87992, Note_on_c, 1, 41, 0
3, 88000, Note_on_c, 1, 35, 107
3, 88356, Note_on_c, 1, 35, 0
3, 88368, Note_on_c, 1, 34, 79
3, 88760, Note_on_c, 1, 46, 99
3, 89140, Note_on_c, 1, 46, 0
3, 89144, Note_on_c, 1, 34, 0
3, 89148, Note_on_c, 1, 45, 89
3, 89532, Note_on_c, 1, 39, 89
3, 89696, Note_on_c, 1, 45, 0
3, 89912, Note_on_c, 1, 39, 0
3, 89916, Note_on_c, 1, 38, 75
3, 90660, Note_on_c, 1, 38, 0
3, 90660, Note_on_c, 1, 31, 72
3, 91608, Note_on_c, 1, 31, 0
3, 91628, Note_on_c, 1, 39, 82
3, 91988, Note_on_c, 1, 45, 96
3, 92036, Note_on_c, 1, 39, 0
3, 92156, Note_on_c, 1, 45, 0
3, 92168, Note_on_c, 1, 44, 76
3, 92756, Note_on_c, 1, 44, 0
3, 92764, Note_on_c, 1, 43, 52
3, 92876, Note_on_c, 1, 44, 68
3, 92884, Note_on_c, 1, 43, 0
3, 92960, Note_on_c, 1, 44, 0
3, 92972, Note_on_c, 1, 46, 89
3, 93364, Note_on_c, 1, 44, 85
3, 93376, Note_on_c, 1, 46, 0
3, 93732, Note_on_c, 1, 44, 0
3, 93740, Note_on_c, 1, 43, 70
3, 93808, Note_on_c, 1, 43, 0
3, 93864, Note_on_c, 1, 38, 61
3, 93920, Note_on_c, 1, 38, 0
3, 93948, Note_on_c, 1, 32, 50
3, 93948, Note_on_c, 1, 30, 60
3, 93960, Note_on_c, 1, 30, 0
3, 94104, Note_on_c, 1, 32, 0
3, 94116, Note_on_c, 1, 30, 63
3, 94304, Note_on_c, 1, 30, 0
3, 94304, Note_on_c, 1, 31, 71
3, 94496, Note_on_c, 1, 36, 82
3, 94500, Note_on_c, 1, 31, 0
3, 95084, Note_on_c, 1, 48, 88
3, 95256, Note_on_c, 1, 48, 0
3, 95268, Note_on_c, 1, 44, 84
3, 95284, Note_on_c, 1, 36, 0
3, 95448, Note_on_c, 1, 44, 0
3, 95468, Note_on_c, 1, 44, 88
3, 96032, Note_on_c, 1, 37, 81
3, 96064, Note_on_c, 1, 44, 0
3, 96416, Note_on_c, 1, 38, 89
3, 96432, Note_on_c, 1, 37, 0
3, 96788, Note_on_c, 1, 39, 87
3, 96808, Note_on_c, 1, 38, 0
3, 97760, Note_on_c, 1, 39, 0
3, 97760, Note_on_c, 1, 36, 74
3, 97964, Note_on_c, 1, 48, 80
3, 97996, Note_on_c, 1, 36, 0
3, 98136, Note_on_c, 1, 48, 0
3, 98152, Note_on_c, 1, 40, 73
3, 98344, Note_on_c, 1, 40, 0
3, 98348, Note_on_c, 1, 41, 75
3, 98736, Note_on_c, 1, 41, 0
3, 98748, Note_on_c, 1, 35, 84
3, 99112, Note_on_c, 1, 35, 0
3, 99124, Note_on_c, 1, 34, 83
3, 99468, Note_on_c, 1, 34, 0
3, 99504, Note_on_c, 1, 34, 70
3, 99996, Note_on_c, 1, 34, 0
3, 100072, Note_on_c, 1, 34, 75
3, 100276, Note_on_c, 1, 46, 85
3, 100620, Note_on_c, 1, 46, 0
3, 100652, Note_on_c, 1, 46, 77
3, 100988, Note_on_c, 1, 46, 0
3, 101020, Note_on_c, 1, 46, 72
3, 101396, Note_on_c, 1, 46, 0
3, 101396, Note_on_c, 1, 39, 84
3, 101408, Note_on_c, 1, 34, 0
3, 102352, Note_on_c, 1, 46, 67
3, 102504, Note_on_c, 1, 46, 0
3, 102544, Note_on_c, 1, 46, 57
3, 102604, Note_on_c, 1, 39, 0
3, 102740, Note_on_c, 1, 34, 57
3, 102772, Note_on_c, 1, 46, 0
3, 102940, Note_on_c, 1, 41, 80
3, 102948, Note_on_c, 1, 34, 0
3, 103708, Note_on_c, 1, 34, 84
3, 103716, Note_on_c, 1, 41, 0
3, 104052, Note_on_c, 1, 34, 0
3, 104100, Note_on_c, 1, 34, 68
3, 104484, Note_on_c, 1, 39, 78
3, 104492, Note_on_c, 1, 34, 0
3, 107200, Note_on_c, 1, 39, 0
3, 107286, Control_c, 1, 0, 0
3, 107286, Control_c, 1, 32, 122
3, 107287, Control_c, 1, 0, 0
3, 107287, Control_c, 1, 32, 122
3, 107288, Control_c, 1, 0, 0
3, 107288, Control_c, 1, 32, 122
3, 107288, Control_c, 1, 0, 0
3, 107288, Control_c, 1, 32, 122
3, 107288, Control_c, 1, 7, 127
3, 107288, Control_c, 1, 10, 64
3, 107288, Control_c, 1, 11, 127
3, 107288, Control_c, 1, 91, 16
3, 107288, Control_c, 1, 0, 0
3, 107288, Control_c, 1, 32, 122
3, 107288, Control_c, 1, 94, 0
3, 107288, Control_c, 1, 93, 0
3, 107288, Program_c, 1, 32
3, 107288, Control_c, 1, 101, 0
3, 107289, Control_c, 1, 100, 1
3, 107290, Control_c, 1, 6, 64
3, 107291, Control_c, 1, 38, 0
3, 107291, End_track
4, 0, Start_track
4, 0, MIDI_port, 0
4, 0, Sequencer_specific, 7, 0, 0, 0, 106, 0, 4, 3
4, 393, Control_c, 2, 7, 100
4, 393, End_track
5, 0, Start_track
5, 0, MIDI_port, 0
5, 0, Sequencer_specific, 7, 0, 0, 0, 106, 0, 4, 10
5, 0, Control_c, 9, 0, 127
5, 0, Control_c, 9, 32, 0
5, 0, Program_c, 9, 40
5, 407, Control_c, 9, 7, 76
5, 407, Control_c, 9, 10, 64
5, 407, Control_c, 9, 91, 0
5, 407, Control_c, 9, 93, 0
5, 1548, Note_on_c, 9, 48, 1
5, 1574, Note_on_c, 9, 48, 0
5, 3098, Note_on_c, 9, 28, 34
5, 3108, Note_on_c, 9, 57, 29
5, 3108, Note_on_c, 9, 35, 24
5, 3136, Note_on_c, 9, 57, 0
5, 3140, Note_on_c, 9, 35, 0
5, 3472, Note_on_c, 9, 28, 42
5, 3476, Note_on_c, 9, 28, 0
5, 3476, Note_on_c, 9, 44, 73
5, 3860, Note_on_c, 9, 28, 0
5, 3872, Note_on_c, 9, 28, 36
5, 3898, Note_on_c, 9, 44, 0
5, 4244, Note_on_c, 9, 28, 0
5, 4244, Note_on_c, 9, 44, 77
5, 4266, Note_on_c, 9, 28, 44
5, 4628, Note_on_c, 9, 28, 0
5, 4644, Note_on_c, 9, 28, 33
5, 4684, Note_on_c, 9, 44, 0
5, 5012, Note_on_c, 9, 28, 0
5, 5012, Note_on_c, 9, 44, 70
5, 5030, Note_on_c, 9, 28, 40
5, 5380, Note_on_c, 9, 44, 0
5, 5396, Note_on_c, 9, 28, 0
5, 5434, Note_on_c, 9, 28, 44
5, 5718, Note_on_c, 9, 27, 46
5, 5764, Note_on_c, 9, 27, 0
5, 5780, Note_on_c, 9, 28, 0
5, 5780, Note_on_c, 9, 46, 39
5, 5796, Note_on_c, 9, 28, 33
5, 5798, Note_on_c, 9, 46, 0
5, 5996, Note_on_c, 9, 28, 34
5, 6164, Note_on_c, 9, 28, 0
5, 6176, Note_on_c, 9, 28, 37
5, 6548, Note_on_c, 9, 28, 0
5, 6548, Note_on_c, 9, 28, 0
5, 6548, Note_on_c, 9, 44, 52
5, 6580, Note_on_c, 9, 28, 40
5, 6630, Note_on_c, 9, 44, 0
5, 6932, Note_on_c, 9, 28, 0
5, 6970, Note_on_c, 9, 28, 34
5, 7316, Note_on_c, 9, 28, 0
5, 7316, Note_on_c, 9, 44, 61
5, 7328, Note_on_c, 9, 28, 34
5, 7436, Note_on_c, 9, 44, 0
5, 7700, Note_on_c, 9, 28, 0
5, 7702, Note_on_c, 9, 28, 31
5, 8084, Note_on_c, 9, 28, 0
5, 8084, Note_on_c, 9, 44, 62
5, 8106, Note_on_c, 9, 28, 34
5, 8144, Note_on_c, 9, 44, 0
5, 8468, Note_on_c, 9, 28, 0
5, 8476, Note_on_c, 9, 28, 36
5, 8666, Note_on_c, 9, 28, 31
5, 8852, Note_on_c, 9, 28, 0
5, 8852, Note_on_c, 9, 44, 51
5, 8852, Note_on_c, 9, 28, 44
5, 8950, Note_on_c, 9, 44, 0
5, 9156, Note_on_c, 9, 35, 27
5, 9172, Note_on_c, 9, 35, 0
5, 9236, Note_on_c, 9, 28, 0
5, 9236, Note_on_c, 9, 28, 0
5, 9244, Note_on_c, 9, 28, 50
5, 9620, Note_on_c, 9, 28, 0
5, 9620, Note_on_c, 9, 44, 52
5, 9644, Note_on_c, 9, 28, 34
5, 9684, Note_on_c, 9, 44, 0
5, 9942, Note_on_c, 9, 35, 33
5, 9958, Note_on_c, 9, 35, 0
5, 10004, Note_on_c, 9, 28, 0
5, 10036, Note_on_c, 9, 28, 50
5, 10388, Note_on_c, 9, 28, 0
5, 10388, Note_on_c, 9, 44, 55
5, 10416, Note_on_c, 9, 28, 46
5, 10448, Note_on_c, 9, 44, 0
5, 10596, Note_on_c, 9, 27, 46
5, 10694, Note_on_c, 9, 27, 0
5, 10772, Note_on_c, 9, 28, 0
5, 10796, Note_on_c, 9, 28, 34
5, 11156, Note_on_c, 9, 28, 0
5, 11156, Note_on_c, 9, 44, 56
5, 11168, Note_on_c, 9, 28, 36
5, 11204, Note_on_c, 9, 44, 0
5, 11462, Note_on_c, 9, 35, 30
5, 11508, Note_on_c, 9, 35, 0
5, 11540, Note_on_c, 9, 28, 0
5, 11556, Note_on_c, 9, 28, 37
5, 11558, Note_on_c, 9, 35, 36
5, 11558, Note_on_c, 9, 59, 34
5, 11584, Note_on_c, 9, 35, 0
5, 11590, Note_on_c, 9, 59, 0
5, 11748, Note_on_c, 9, 59, 38
5, 11748, Note_on_c, 9, 35, 32
5, 11792, Note_on_c, 9, 59, 0
5, 11796, Note_on_c, 9, 35, 0
5, 11924, Note_on_c, 9, 28, 0
5, 11924, Note_on_c, 9, 46, 25
5, 11932, Note_on_c, 9, 28, 42
5, 11972, Note_on_c, 9, 46, 0
5, 12308, Note_on_c, 9, 28, 0
5, 12310, Note_on_c, 9, 28, 50
5, 12316, Note_on_c, 9, 28, 40
5, 12692, Note_on_c, 9, 28, 0
5, 12692, Note_on_c, 9, 28, 0
5, 12692, Note_on_c, 9, 44, 69
5, 12698, Note_on_c, 9, 28, 47
5, 12800, Note_on_c, 9, 44, 0
5, 12880, Note_on_c, 9, 27, 62
5, 13056, Note_on_c, 9, 27, 0
5, 13072, Note_on_c, 9, 28, 40
5, 13076, Note_on_c, 9, 28, 0
5, 13460, Note_on_c, 9, 28, 0
5, 13460, Note_on_c, 9, 44, 53
5, 13462, Note_on_c, 9, 28, 39
5, 13552, Note_on_c, 9, 44, 0
5, 13766, Note_on_c, 9, 35, 48
5, 13782, Note_on_c, 9, 35, 0
5, 13844, Note_on_c, 9, 28, 0
5, 13844, Note_on_c, 9, 59, 40
5, 13844, Note_on_c, 9, 28, 36
5, 13846, Note_on_c, 9, 35, 35
5, 13894, Note_on_c, 9, 59, 0
5, 13904, Note_on_c, 9, 35, 0
5, 14228, Note_on_c, 9, 28, 0
5, 14228, Note_on_c, 9, 44, 71
5, 14234, Note_on_c, 9, 28, 34
5, 14292, Note_on_c, 9, 44, 0
5, 14612, Note_on_c, 9, 28, 0
5, 14614, Note_on_c, 9, 28, 44
5, 14628, Note_on_c, 9, 35, 32
5, 14656, Note_on_c, 9, 35, 0
5, 14822, Note_on_c, 9, 35, 35
5, 14916, Note_on_c, 9, 35, 0
5, 14992, Note_on_c, 9, 28, 42
5, 14996, Note_on_c, 9, 28, 0
5, 14996, Note_on_c, 9, 46, 55
5, 15024, Note_on_c, 9, 46, 0
5, 15142, Note_on_c, 9, 35, 60
5, 15168, Note_on_c, 9, 35, 0
5, 15220, Note_on_c, 9, 35, 47
5, 15220, Note_on_c, 9, 59, 26
5, 15236, Note_on_c, 9, 59, 0
5, 15238, Note_on_c, 9, 35, 0
5, 15360, Note_on_c, 9, 28, 46
5, 15380, Note_on_c, 9, 28, 0
5, 15396, Note_on_c, 9, 35, 47
5, 15396, Note_on_c, 9, 59, 54
5, 15414, Note_on_c, 9, 59, 0
5, 15418, Note_on_c, 9, 35, 0
5, 15604, Note_on_c, 9, 59, 61
5, 15606, Note_on_c, 9, 35, 32
5, 15638, Note_on_c, 9, 59, 0
5, 15686, Note_on_c, 9, 35, 0
5, 15764, Note_on_c, 9, 28, 0
5, 15764, Note_on_c, 9, 44, 45
5, 15782, Note_on_c, 9, 28, 39
5, 15818, Note_on_c, 9, 44, 0
5, 16148, Note_on_c, 9, 28, 0
5, 16164, Note_on_c, 9, 28, 46
5, 16532, Note_on_c, 9, 28, 0
5, 16532, Note_on_c, 9, 44, 70
5, 16540, Note_on_c, 9, 28, 31
5, 16634, Note_on_c, 9, 44, 0
5, 16916, Note_on_c, 9, 28, 0
5, 16934, Note_on_c, 9, 28, 52
5, 17300, Note_on_c, 9, 28, 0
5, 17300, Note_on_c, 9, 44, 75
5, 17332, Note_on_c, 9, 28, 33
5, 17412, Note_on_c, 9, 44, 0
5, 17684, Note_on_c, 9, 28, 0
5, 17692, Note_on_c, 9, 28, 31
5, 18068, Note_on_c, 9, 28, 0
5, 18068, Note_on_c, 9, 44, 69
5, 18068, Note_on_c, 9, 28, 33
5, 18180, Note_on_c, 9, 44, 0
5, 18188, Note_on_c, 9, 27, 56
5, 18346, Note_on_c, 9, 27, 0
5, 18374, Note_on_c, 9, 28, 39
5, 18452, Note_on_c, 9, 28, 0
5, 18458, Note_on_c, 9, 28, 24
5, 18828, Note_on_c, 9, 28, 34
5, 18836, Note_on_c, 9, 28, 0
5, 18836, Note_on_c, 9, 28, 0
5, 18836, Note_on_c, 9, 44, 69
5, 18954, Note_on_c, 9, 44, 0
5, 19216, Note_on_c, 9, 28, 36
5, 19220, Note_on_c, 9, 28, 0
5, 19424, Note_on_c, 9, 27, 50
5, 19596, Note_on_c, 9, 27, 0
5, 19604, Note_on_c, 9, 28, 0
5, 19604, Note_on_c, 9, 44, 70
5, 19616, Note_on_c, 9, 28, 29
5, 19700, Note_on_c, 9, 44, 0
5, 19804, Note_on_c, 9, 28, 31
5, 19988, Note_on_c, 9, 28, 0
5, 19990, Note_on_c, 9, 28, 39
5, 20372, Note_on_c, 9, 28, 0
5, 20372, Note_on_c, 9, 28, 0
5, 20372, Note_on_c, 9, 44, 62
5, 20400, Note_on_c, 9, 28, 34
5, 20422, Note_on_c, 9, 37, 25
5, 20438, Note_on_c, 9, 37, 0
5, 20458, Note_on_c, 9, 44, 0
5, 20756, Note_on_c, 9, 28, 0
5, 20772, Note_on_c, 9, 28, 34
5, 21140, Note_on_c, 9, 28, 0
5, 21140, Note_on_c, 9, 44, 64
5, 21140, Note_on_c, 9, 28, 49
5, 21212, Note_on_c, 9, 44, 0
5, 21494, Note_on_c, 9, 35, 37
5, 21514, Note_on_c, 9, 28, 40
5, 21520, Note_on_c, 9, 35, 0
5, 21524, Note_on_c, 9, 28, 0
5, 21580, Note_on_c, 9, 35, 32
5, 21648, Note_on_c, 9, 35, 0
5, 21764, Note_on_c, 9, 59, 60
5, 21770, Note_on_c, 9, 35, 35
5, 21780, Note_on_c, 9, 59, 0
5, 21820, Note_on_c, 9, 35, 0
5, 21908, Note_on_c, 9, 28, 0
5, 21908, Note_on_c, 9, 44, 55
5, 21924, Note_on_c, 9, 28, 40
5, 21942, Note_on_c, 9, 44, 0
5, 22276, Note_on_c, 9, 28, 49
5, 22292, Note_on_c, 9, 28, 0
5, 22652, Note_on_c, 9, 27, 68
5, 22676, Note_on_c, 9, 28, 0
5, 22676, Note_on_c, 9, 44, 74
5, 22742, Note_on_c, 9, 44, 0
5, 22828, Note_on_c, 9, 27, 0
5, 22858, Note_on_c, 9, 28, 36
5, 23052, Note_on_c, 9, 28, 40
5, 23060, Note_on_c, 9, 28, 0
5, 23268, Note_on_c, 9, 28, 44
5, 23444, Note_on_c, 9, 28, 0
5, 23444, Note_on_c, 9, 44, 75
5, 23444, Note_on_c, 9, 44, 70
5, 23444, Note_on_c, 9, 44, 58
5, 23484, Note_on_c, 9, 44, 0
5, 23504, Note_on_c, 9, 44, 0
5, 23594, Note_on_c, 9, 44, 0
5, 23828, Note_on_c, 9, 28, 0
5, 23844, Note_on_c, 9, 28, 49
5, 24212, Note_on_c, 9, 28, 0
5, 24212, Note_on_c, 9, 44, 54
5, 24212, Note_on_c, 9, 44, 55
5, 24240, Note_on_c, 9, 28, 39
5, 24262, Note_on_c, 9, 44, 0
5, 24384, Note_on_c, 9, 44, 0
5, 24596, Note_on_c, 9, 28, 0
5, 24628, Note_on_c, 9, 28, 40
5, 24980, Note_on_c, 9, 28, 0
5, 24980, Note_on_c, 9, 44, 56
5, 24980, Note_on_c, 9, 44, 60
5, 25014, Note_on_c, 9, 28, 39
5, 25028, Note_on_c, 9, 44, 0
5, 25040, Note_on_c, 9, 35, 29
5, 25056, Note_on_c, 9, 35, 0
5, 25108, Note_on_c, 9, 44, 0
5, 25210, Note_on_c, 9, 28, 42
5, 25364, Note_on_c, 9, 28, 0
5, 25396, Note_on_c, 9, 28, 44
5, 25594, Note_on_c, 9, 35, 27
5, 25712, Note_on_c, 9, 35, 0
5, 25748, Note_on_c, 9, 28, 0
5, 25748, Note_on_c, 9, 28, 0
5, 25748, Note_on_c, 9, 44, 51
5, 25748, Note_on_c, 9, 44, 62
5, 25756, Note_on_c, 9, 28, 36
5, 25780, Note_on_c, 9, 44, 0
5, 25852, Note_on_c, 9, 44, 0
5, 26132, Note_on_c, 9, 28, 0
5, 26148, Note_on_c, 9, 28, 39
5, 26516, Note_on_c, 9, 28, 0
5, 26516, Note_on_c, 9, 44, 58
5, 26516, Note_on_c, 9, 44, 60
5, 26544, Note_on_c, 9, 44, 0
5, 26550, Note_on_c, 9, 28, 36
5, 26620, Note_on_c, 9, 44, 0
5, 26748, Note_on_c, 9, 35, 28
5, 26780, Note_on_c, 9, 35, 0
5, 26900, Note_on_c, 9, 28, 0
5, 26908, Note_on_c, 9, 28, 42
5, 27124, Note_on_c, 9, 27, 36
5, 27284, Note_on_c, 9, 28, 0
5, 27284, Note_on_c, 9, 46, 44
5, 27284, Note_on_c, 9, 46, 34
5, 27286, Note_on_c, 9, 27, 0
5, 27306, Note_on_c, 9, 46, 0
5, 27306, Note_on_c, 9, 28, 36
5, 27396, Note_on_c, 9, 46, 0
5, 27504, Note_on_c, 9, 27, 35
5, 27600, Note_on_c, 9, 35, 31
5, 27610, Note_on_c, 9, 27, 0
5, 27628, Note_on_c, 9, 35, 0
5, 27654, Note_on_c, 9, 28, 24
5, 27668, Note_on_c, 9, 28, 0
5, 27692, Note_on_c, 9, 35, 37
5, 27700, Note_on_c, 9, 59, 40
5, 27702, Note_on_c, 9, 28, 34
5, 27780, Note_on_c, 9, 35, 0
5, 27788, Note_on_c, 9, 59, 0
5, 27888, Note_on_c, 9, 35, 37
5, 27892, Note_on_c, 9, 59, 31
5, 27964, Note_on_c, 9, 59, 0
5, 27968, Note_on_c, 9, 35, 0
5, 28052, Note_on_c, 9, 28, 0
5, 28052, Note_on_c, 9, 28, 0
5, 28052, Note_on_c, 9, 44, 79
5, 28052, Note_on_c, 9, 44, 34
5, 28054, Note_on_c, 9, 28, 31
5, 28160, Note_on_c, 9, 44, 0
5, 28160, Note_on_c, 9, 44, 0
5, 28428, Note_on_c, 9, 28, 34
5, 28436, Note_on_c, 9, 28, 0
5, 28796, Note_on_c, 9, 28, 42
5, 28820, Note_on_c, 9, 28, 0
5, 28820, Note_on_c, 9, 44, 55
5, 28820, Note_on_c, 9, 44, 50
5, 28874, Note_on_c, 9, 44, 0
5, 28928, Note_on_c, 9, 44, 0
5, 29116, Note_on_c, 9, 27, 53
5, 29158, Note_on_c, 9, 27, 0
5, 29190, Note_on_c, 9, 28, 47
5, 29204, Note_on_c, 9, 28, 0
5, 29392, Note_on_c, 9, 28, 36
5, 29588, Note_on_c, 9, 28, 0
5, 29588, Note_on_c, 9, 28, 0
5, 29588, Note_on_c, 9, 44, 57
5, 29588, Note_on_c, 9, 44, 44
5, 29622, Note_on_c, 9, 44, 0
5, 29708, Note_on_c, 9, 44, 0
5, 29780, Note_on_c, 9, 28, 36
5, 29962, Note_on_c, 9, 28, 49
5, 30188, Note_on_c, 9, 27, 32
5, 30346, Note_on_c, 9, 27, 0
5, 30356, Note_on_c, 9, 28, 0
5, 30356, Note_on_c, 9, 28, 0
5, 30356, Note_on_c, 9, 44, 58
5, 30356, Note_on_c, 9, 44, 48
5, 30374, Note_on_c, 9, 28, 34
5, 30436, Note_on_c, 9, 44, 0
5, 30454, Note_on_c, 9, 44, 0
5, 30676, Note_on_c, 9, 35, 31
5, 30694, Note_on_c, 9, 35, 0
5, 30740, Note_on_c, 9, 28, 0
5, 30746, Note_on_c, 9, 28, 34
5, 30756, Note_on_c, 9, 57, 29
5, 30756, Note_on_c, 9, 35, 24
5, 30784, Note_on_c, 9, 57, 0
5, 30788, Note_on_c, 9, 35, 0
5, 31120, Note_on_c, 9, 28, 42
5, 31124, Note_on_c, 9, 28, 0
5, 31124, Note_on_c, 9, 44, 73
5, 31508, Note_on_c, 9, 28, 0
5, 31520, Note_on_c, 9, 28, 36
5, 31546, Note_on_c, 9, 44, 0
5, 31892, Note_on_c, 9, 28, 0
5, 31892, Note_on_c, 9, 44, 77
5, 31914, Note_on_c, 9, 28, 44
5, 32276, Note_on_c, 9, 28, 0
5, 32292, Note_on_c, 9, 28, 33
5, 32332, Note_on_c, 9, 44, 0
5, 32660, Note_on_c, 9, 28, 0
5, 32660, Note_on_c, 9, 44, 70
5, 32678, Note_on_c, 9, 28, 40
5, 33028, Note_on_c, 9, 44, 0
5, 33044, Note_on_c, 9, 28, 0
5, 33082, Note_on_c, 9, 28, 44
5, 33366, Note_on_c, 9, 27, 46
5, 33412, Note_on_c, 9, 27, 0
5, 33428, Note_on_c, 9, 28, 0
5, 33428, Note_on_c, 9, 46, 39
5, 33444, Note_on_c, 9, 28, 33
5, 33446, Note_on_c, 9, 46, 0
5, 33644, Note_on_c, 9, 28, 34
5, 33812, Note_on_c, 9, 28, 0
5, 33824, Note_on_c, 9, 28, 37
5, 34196, Note_on_c, 9, 28, 0
5, 34196, Note_on_c, 9, 28, 0
5, 34196, Note_on_c, 9, 44, 52
5, 34228, Note_on_c, 9, 28, 40
5, 34278, Note_on_c, 9, 44, 0
5, 34580, Note_on_c, 9, 28, 0
5, 34618, Note_on_c, 9, 28, 34
5, 34964, Note_on_c, 9, 28, 0
5, 34964, Note_on_c, 9, 44, 61
5, 34976, Note_on_c, 9, 28, 34
5, 35084, Note_on_c, 9, 44, 0
5, 35348, Note_on_c, 9, 28, 0
5, 35350, Note_on_c, 9, 28, 31
5, 35732, Note_on_c, 9, 28, 0
5, 35732, Note_on_c, 9, 44, 62
5, 35754, Note_on_c, 9, 28, 34
5, 35792, Note_on_c, 9, 44, 0
5, 36116, Note_on_c, 9, 28, 0
5, 36124, Note_on_c, 9, 28, 36
5, 36314, Note_on_c, 9, 28, 31
5, 36500, Note_on_c, 9, 28, 0
5, 36500, Note_on_c, 9, 44, 51
5, 36500, Note_on_c, 9, 28, 44
5, 36598, Note_on_c, 9, 44, 0
5, 36804, Note_on_c, 9, 35, 27
5, 36820, Note_on_c, 9, 35, 0
5, 36884, Note_on_c, 9, 28, 0
5, 36884, Note_on_c, 9, 28, 0
5, 36892, Note_on_c, 9, 28, 50
5, 37268, Note_on_c, 9, 28, 0
5, 37268, Note_on_c, 9, 44, 52
5, 37292, Note_on_c, 9, 28, 34
5, 37332, Note_on_c, 9, 44, 0
5, 37590, Note_on_c, 9, 35, 33
5, 37606, Note_on_c, 9, 35, 0
5, 37652, Note_on_c, 9, 28, 0
5, 37684, Note_on_c, 9, 28, 50
5, 38036, Note_on_c, 9, 28, 0
5, 38036, Note_on_c, 9, 44, 55
5, 38064, Note_on_c, 9, 28, 46
5, 38096, Note_on_c, 9, 44, 0
5, 38244, Note_on_c, 9, 27, 46
5, 38342, Note_on_c, 9, 27, 0
5, 38420, Note_on_c, 9, 28, 0
5, 38444, Note_on_c, 9, 28, 34
5, 38804, Note_on_c, 9, 28, 0
5, 38804, Note_on_c, 9, 44, 56
5, 38816, Note_on_c, 9, 28, 36
5, 38852, Note_on_c, 9, 44, 0
5, 39110, Note_on_c, 9, 35, 30
5, 39156, Note_on_c, 9, 35, 0
5, 39188, Note_on_c, 9, 28, 0
5, 39204, Note_on_c, 9, 28, 37
5, 39206, Note_on_c, 9, 35, 36
5, 39206, Note_on_c, 9, 59, 34
5, 39232, Note_on_c, 9, 35, 0
5, 39238, Note_on_c, 9, 59, 0
5, 39396, Note_on_c, 9, 59, 38
5, 39396, Note_on_c, 9, 35, 32
5, 39440, Note_on_c, 9, 59, 0
5, 39444, Note_on_c, 9, 35, 0
5, 39572, Note_on_c, 9, 28, 0
5, 39572, Note_on_c, 9, 46, 25
5, 39580, Note_on_c, 9, 28, 42
5, 39620, Note_on_c, 9, 46, 0
5, 39956, Note_on_c, 9, 28, 0
5, 39958, Note_on_c, 9, 28, 50
5, 39964, Note_on_c, 9, 28, 40
5, 40340, Note_on_c, 9, 28, 0
5, 40340, Note_on_c, 9, 28, 0
5, 40340, Note_on_c, 9, 44, 69
5, 40346, Note_on_c, 9, 28, 47
5, 40448, Note_on_c, 9, 44, 0
5, 40528, Note_on_c, 9, 27, 62
5, 40704, Note_on_c, 9, 27, 0
5, 40720, Note_on_c, 9, 28, 40
5, 40724, Note_on_c, 9, 28, 0
5, 41108, Note_on_c, 9, 28, 0
5, 41108, Note_on_c, 9, 44, 53
5, 41110, Note_on_c, 9, 28, 39
5, 41200, Note_on_c, 9, 44, 0
5, 41414, Note_on_c, 9, 35, 48
5, 41430, Note_on_c, 9, 35, 0
5, 41492, Note_on_c, 9, 28, 0
5, 41492, Note_on_c, 9, 59, 40
5, 41492, Note_on_c, 9, 28, 36
5, 41494, Note_on_c, 9, 35, 35
5, 41542, Note_on_c, 9, 59, 0
5, 41552, Note_on_c, 9, 35, 0
5, 41876, Note_on_c, 9, 28, 0
5, 41876, Note_on_c, 9, 44, 71
5, 41882, Note_on_c, 9, 28, 34
5, 41940, Note_on_c, 9, 44, 0
5, 42260, Note_on_c, 9, 28, 0
5, 42262, Note_on_c, 9, 28, 44
5, 42276, Note_on_c, 9, 35, 32
5, 42304, Note_on_c, 9, 35, 0
5, 42470, Note_on_c, 9, 35, 35
5, 42564, Note_on_c, 9, 35, 0
5, 42640, Note_on_c, 9, 28, 42
5, 42644, Note_on_c, 9, 28, 0
5, 42644, Note_on_c, 9, 46, 55
5, 42672, Note_on_c, 9, 46, 0
5, 42790, Note_on_c, 9, 35, 60
5, 42816, Note_on_c, 9, 35, 0
5, 42868, Note_on_c, 9, 35, 47
5, 42868, Note_on_c, 9, 59, 26
5, 42884, Note_on_c, 9, 59, 0
5, 42886, Note_on_c, 9, 35, 0
5, 43008, Note_on_c, 9, 28, 46
5, 43028, Note_on_c, 9, 28, 0
5, 43044, Note_on_c, 9, 35, 47
5, 43044, Note_on_c, 9, 59, 54
5, 43062, Note_on_c, 9, 59, 0
5, 43066, Note_on_c, 9, 35, 0
5, 43252, Note_on_c, 9, 59, 61
5, 43254, Note_on_c, 9, 35, 32
5, 43286, Note_on_c, 9, 59, 0
5, 43334, Note_on_c, 9, 35, 0
5, 43412, Note_on_c, 9, 28, 0
5, 43412, Note_on_c, 9, 44, 45
5, 43430, Note_on_c, 9, 28, 39
5, 43466, Note_on_c, 9, 44, 0
5, 43796, Note_on_c, 9, 28, 0
5, 43812, Note_on_c, 9, 28, 46
5, 44180, Note_on_c, 9, 28, 0
5, 44180, Note_on_c, 9, 44, 70
5, 44188, Note_on_c, 9, 28, 31
5, 44282, Note_on_c, 9, 44, 0
5, 44564, Note_on_c, 9, 28, 0
5, 44582, Note_on_c, 9, 28, 52
5, 44948, Note_on_c, 9, 28, 0
5, 44948, Note_on_c, 9, 44, 75
5, 44980, Note_on_c, 9, 28, 33
5, 45060, Note_on_c, 9, 44, 0
5, 45332, Note_on_c, 9, 28, 0
5, 45340, Note_on_c, 9, 28, 31
5, 45716, Note_on_c, 9, 28, 0
5, 45716, Note_on_c, 9, 44, 69
5, 45716, Note_on_c, 9, 28, 33
5, 45828, Note_on_c, 9, 44, 0
5, 45836, Note_on_c, 9, 27, 56
5, 45994, Note_on_c, 9, 27, 0
5, 46022, Note_on_c, 9, 28, 39
5, 46100, Note_on_c, 9, 28, 0
5, 46106, Note_on_c, 9, 28, 24
5, 46476, Note_on_c, 9, 28, 34
5, 46484, Note_on_c, 9, 28, 0
5, 46484, Note_on_c, 9, 28, 0
5, 46484, Note_on_c, 9, 44, 69
5, 46602, Note_on_c, 9, 44, 0
5, 46864, Note_on_c, 9, 28, 36
5, 46868, Note_on_c, 9, 28, 0
5, 47072, Note_on_c, 9, 27, 50
5, 47244, Note_on_c, 9, 27, 0
5, 47252, Note_on_c, 9, 28, 0
5, 47252, Note_on_c, 9, 44, 70
5, 47264, Note_on_c, 9, 28, 29
5, 47348, Note_on_c, 9, 44, 0
5, 47452, Note_on_c, 9, 28, 31
5, 47636, Note_on_c, 9, 28, 0
5, 47638, Note_on_c, 9, 28, 39
5, 48020, Note_on_c, 9, 28, 0
5, 48020, Note_on_c, 9, 28, 0
5, 48020, Note_on_c, 9, 44, 62
5, 48048, Note_on_c, 9, 28, 34
5, 48070, Note_on_c, 9, 37, 25
5, 48086, Note_on_c, 9, 37, 0
5, 48106, Note_on_c, 9, 44, 0
5, 48404, Note_on_c, 9, 28, 0
5, 48420, Note_on_c, 9, 28, 34
5, 48788, Note_on_c, 9, 28, 0
5, 48788, Note_on_c, 9, 44, 64
5, 48788, Note_on_c, 9, 28, 49
5, 48860, Note_on_c, 9, 44, 0
5, 49142, Note_on_c, 9, 35, 37
5, 49162, Note_on_c, 9, 28, 40
5, 49168, Note_on_c, 9, 35, 0
5, 49172, Note_on_c, 9, 28, 0
5, 49228, Note_on_c, 9, 35, 32
5, 49296, Note_on_c, 9, 35, 0
5, 49412, Note_on_c, 9, 59, 60
5, 49418, Note_on_c, 9, 35, 35
5, 49428, Note_on_c, 9, 59, 0
5, 49468, Note_on_c, 9, 35, 0
5, 49556, Note_on_c, 9, 28, 0
5, 49556, Note_on_c, 9, 44, 55
5, 49572, Note_on_c, 9, 28, 40
5, 49590, Note_on_c, 9, 44, 0
5, 49924, Note_on_c, 9, 28, 49
5, 49940, Note_on_c, 9, 28, 0
5, 50300, Note_on_c, 9, 27, 68
5, 50324, Note_on_c, 9, 28, 0
5, 50324, Note_on_c, 9, 44, 74
5, 50390, Note_on_c, 9, 44, 0
5, 50476, Note_on_c, 9, 27, 0
5, 50506, Note_on_c, 9, 28, 36
5, 50700, Note_on_c, 9, 28, 40
5, 50708, Note_on_c, 9, 28, 0
5, 50916, Note_on_c, 9, 28, 44
5, 51092, Note_on_c, 9, 28, 0
5, 51092, Note_on_c, 9, 44, 75
5, 51092, Note_on_c, 9, 44, 70
5, 51092, Note_on_c, 9, 44, 58
5, 51132, Note_on_c, 9, 44, 0
5, 51152, Note_on_c, 9, 44, 0
5, 51242, Note_on_c, 9, 44, 0
5, 51476, Note_on_c, 9, 28, 0
5, 51492, Note_on_c, 9, 28, 49
5, 51860, Note_on_c, 9, 28, 0
5, 51860, Note_on_c, 9, 44, 54
5, 51860, Note_on_c, 9, 44, 55
5, 51888, Note_on_c, 9, 28, 39
5, 51910, Note_on_c, 9, 44, 0
5, 52032, Note_on_c, 9, 44, 0
5, 52244, Note_on_c, 9, 28, 0
5, 52276, Note_on_c, 9, 28, 40
5, 52628, Note_on_c, 9, 28, 0
5, 52628, Note_on_c, 9, 44, 56
5, 52628, Note_on_c, 9, 44, 60
5, 52662, Note_on_c, 9, 28, 39
5, 52676, Note_on_c, 9, 44, 0
5, 52688, Note_on_c, 9, 35, 29
5, 52704, Note_on_c, 9, 35, 0
5, 52756, Note_on_c, 9, 44, 0
5, 52858, Note_on_c, 9, 28, 42
5, 53012, Note_on_c, 9, 28, 0
5, 53044, Note_on_c, 9, 28, 44
5, 53242, Note_on_c, 9, 35, 27
5, 53360, Note_on_c, 9, 35, 0
5, 53396, Note_on_c, 9, 28, 0
5, 53396, Note_on_c, 9, 28, 0
5, 53396, Note_on_c, 9, 44, 51
5, 53396, Note_on_c, 9, 44, 62
5, 53404, Note_on_c, 9, 28, 36
5, 53428, Note_on_c, 9, 44, 0
5, 53500, Note_on_c, 9, 44, 0
5, 53780, Note_on_c, 9, 28, 0
5, 53796, Note_on_c, 9, 28, 39
5, 54164, Note_on_c, 9, 28, 0
5, 54164, Note_on_c, 9, 44, 58
5, 54164, Note_on_c, 9, 44, 60
5, 54192, Note_on_c, 9, 44, 0
5, 54198, Note_on_c, 9, 28, 36
5, 54268, Note_on_c, 9, 44, 0
5, 54396, Note_on_c, 9, 35, 28
5, 54428, Note_on_c, 9, 35, 0
5, 54548, Note_on_c, 9, 28, 0
5, 54556, Note_on_c, 9, 28, 42
5, 54772, Note_on_c, 9, 27, 36
5, 54932, Note_on_c, 9, 28, 0
5, 54932, Note_on_c, 9, 46, 44
5, 54932, Note_on_c, 9, 46, 34
5, 54934, Note_on_c, 9, 27, 0
5, 54954, Note_on_c, 9, 46, 0
5, 54954, Note_on_c, 9, 28, 36
5, 55044, Note_on_c, 9, 46, 0
5, 55152, Note_on_c, 9, 27, 35
5, 55248, Note_on_c, 9, 35, 31
5, 55258, Note_on_c, 9, 27, 0
5, 55276, Note_on_c, 9, 35, 0
5, 55302, Note_on_c, 9, 28, 24
5, 55316, Note_on_c, 9, 28, 0
5, 55340, Note_on_c, 9, 35, 37
5, 55348, Note_on_c, 9, 59, 40
5, 55350, Note_on_c, 9, 28, 34
5, 55428, Note_on_c, 9, 35, 0
5, 55436, Note_on_c, 9, 59, 0
5, 55536, Note_on_c, 9, 35, 37
5, 55540, Note_on_c, 9, 59, 31
5, 55612, Note_on_c, 9, 59, 0
5, 55616, Note_on_c, 9, 35, 0
5, 55700, Note_on_c, 9, 28, 0
5, 55700, Note_on_c, 9, 28, 0
5, 55700, Note_on_c, 9, 44, 79
5, 55700, Note_on_c, 9, 44, 34
5, 55702, Note_on_c, 9, 28, 31
5, 55808, Note_on_c, 9, 44, 0
5, 55808, Note_on_c, 9, 44, 0
5, 56076, Note_on_c, 9, 28, 34
5, 56084, Note_on_c, 9, 28, 0
5, 56444, Note_on_c, 9, 28, 42
5, 56468, Note_on_c, 9, 28, 0
5, 56468, Note_on_c, 9, 44, 55
5, 56468, Note_on_c, 9, 44, 50
5, 56522, Note_on_c, 9, 44, 0
5, 56576, Note_on_c, 9, 44, 0
5, 56764, Note_on_c, 9, 27, 53
5, 56806, Note_on_c, 9, 27, 0
5, 56838, Note_on_c, 9, 28, 47
5, 56852, Note_on_c, 9, 28, 0
5, 57040, Note_on_c, 9, 28, 36
5, 57236, Note_on_c, 9, 28, 0
5, 57236, Note_on_c, 9, 28, 0
5, 57236, Note_on_c, 9, 44, 57
5, 57236, Note_on_c, 9, 44, 44
5, 57270, Note_on_c, 9, 44, 0
5, 57356, Note_on_c, 9, 44, 0
5, 57428, Note_on_c, 9, 28, 36
5, 57610, Note_on_c, 9, 28, 49
5, 57836, Note_on_c, 9, 27, 32
5, 57994, Note_on_c, 9, 27, 0
5, 58004, Note_on_c, 9, 28, 0
5, 58004, Note_on_c, 9, 28, 0
5, 58004, Note_on_c, 9, 44, 58
5, 58004, Note_on_c, 9, 44, 48
5, 58022, Note_on_c, 9, 28, 34
5, 58084, Note_on_c, 9, 44, 0
5, 58102, Note_on_c, 9, 44, 0
5, 58324, Note_on_c, 9, 35, 31
5, 58342, Note_on_c, 9, 35, 0
5, 58388, Note_on_c, 9, 28, 0
5, 58394, Note_on_c, 9, 28, 34
5, 58404, Note_on_c, 9, 57, 29
5, 58404, Note_on_c, 9, 35, 24
5, 58432, Note_on_c, 9, 57, 0
5, 58436, Note_on_c, 9, 35, 0
5, 58768, Note_on_c, 9, 28, 42
5, 58772, Note_on_c, 9, 28, 0
5, 58772, Note_on_c, 9, 44, 73
5, 59156, Note_on_c, 9, 28, 0
5, 59168, Note_on_c, 9, 28, 36
5, 59194, Note_on_c, 9, 44, 0
5, 59540, Note_on_c, 9, 28, 0
5, 59540, Note_on_c, 9, 44, 77
5, 59562, Note_on_c, 9, 28, 44
5, 59924, Note_on_c, 9, 28, 0
5, 59940, Note_on_c, 9, 28, 33
5, 59980, Note_on_c, 9, 44, 0
5, 60308, Note_on_c, 9, 28, 0
5, 60308, Note_on_c, 9, 44, 70
5, 60326, Note_on_c, 9, 28, 40
5, 60676, Note_on_c, 9, 44, 0
5, 60692, Note_on_c, 9, 28, 0
5, 60730, Note_on_c, 9, 28, 44
5, 61014, Note_on_c, 9, 27, 46
5, 61060, Note_on_c, 9, 27, 0
5, 61076, Note_on_c, 9, 28, 0
5, 61076, Note_on_c, 9, 46, 39
5, 61092, Note_on_c, 9, 28, 33
5, 61094, Note_on_c, 9, 46, 0
5, 61292, Note_on_c, 9, 28, 34
5, 61460, Note_on_c, 9, 28, 0
5, 61472, Note_on_c, 9, 28, 37
5, 61844, Note_on_c, 9, 28, 0
5, 61844, Note_on_c, 9, 28, 0
5, 61844, Note_on_c, 9, 44, 52
5, 61876, Note_on_c, 9, 28, 40
5, 61926, Note_on_c, 9, 44, 0
5, 62228, Note_on_c, 9, 28, 0
5, 62266, Note_on_c, 9, 28, 34
5, 62612, Note_on_c, 9, 28, 0
5, 62612, Note_on_c, 9, 44, 61
5, 62624, Note_on_c, 9, 28, 34
5, 62732, Note_on_c, 9, 44, 0
5, 62996, Note_on_c, 9, 28, 0
5, 62998, Note_on_c, 9, 28, 31
5, 63380, Note_on_c, 9, 28, 0
5, 63380, Note_on_c, 9, 44, 62
5, 63402, Note_on_c, 9, 28, 34
5, 63440, Note_on_c, 9, 44, 0
5, 63764, Note_on_c, 9, 28, 0
5, 63772, Note_on_c, 9, 28, 36
5, 63962, Note_on_c, 9, 28, 31
5, 64148, Note_on_c, 9, 28, 0
5, 64148, Note_on_c, 9, 44, 51
5, 64148, Note_on_c, 9, 28, 44
5, 64246, Note_on_c, 9, 44, 0
5, 64452, Note_on_c, 9, 35, 27
5, 64468, Note_on_c, 9, 35, 0
5, 64532, Note_on_c, 9, 28, 0
5, 64532, Note_on_c, 9, 28, 0
5, 64540, Note_on_c, 9, 28, 50
5, 64916, Note_on_c, 9, 28, 0
5, 64916, Note_on_c, 9, 44, 52
5, 64940, Note_on_c, 9, 28, 34
5, 64980, Note_on_c, 9, 44, 0
5, 65238, Note_on_c, 9, 35, 33
5, 65254, Note_on_c, 9, 35, 0
5, 65300, Note_on_c, 9, 28, 0
5, 65332, Note_on_c, 9, 28, 50
5, 65684, Note_on_c, 9, 28, 0
5, 65684, Note_on_c, 9, 44, 55
5, 65712, Note_on_c, 9, 28, 46
5, 65744, Note_on_c, 9, 44, 0
5, 65892, Note_on_c, 9, 27, 46
5, 65990, Note_on_c, 9, 27, 0
5, 66068, Note_on_c, 9, 28, 0
5, 66092, Note_on_c, 9, 28, 34
5, 66452, Note_on_c, 9, 28, 0
5, 66452, Note_on_c, 9, 44, 56
5, 66464, Note_on_c, 9, 28, 36
5, 66500, Note_on_c, 9, 44, 0
5, 66758, Note_on_c, 9, 35, 30
5, 66804, Note_on_c, 9, 35, 0
5, 66836, Note_on_c, 9, 28, 0
5, 66852, Note_on_c, 9, 28, 37
5, 66854, Note_on_c, 9, 35, 36
5, 66854, Note_on_c, 9, 59, 34
5, 66880, Note_on_c, 9, 35, 0
5, 66886, Note_on_c, 9, 59, 0
5, 67044, Note_on_c, 9, 59, 38
5, 67044, Note_on_c, 9, 35, 32
5, 67088, Note_on_c, 9, 59, 0
5, 67092, Note_on_c, 9, 35, 0
5, 67220, Note_on_c, 9, 28, 0
5, 67220, Note_on_c, 9, 46, 25
5, 67228, Note_on_c, 9, 28, 42
5, 67268, Note_on_c, 9, 46, 0
5, 67604, Note_on_c, 9, 28, 0
5, 67606, Note_on_c, 9, 28, 50
5, 67612, Note_on_c, 9, 28, 40
5, 67988, Note_on_c, 9, 28, 0
5, 67988, Note_on_c, 9, 28, 0
5, 67988, Note_on_c, 9, 44, 69
5, 67994, Note_on_c, 9, 28, 47
5, 68096, Note_on_c, 9, 44, 0
5, 68176, Note_on_c, 9, 27, 62
5, 68352, Note_on_c, 9, 27, 0
5, 68368, Note_on_c, 9, 28, 40
5, 68372, Note_on_c, 9, 28, 0
5, 68756, Note_on_c, 9, 28, 0
5, 68756, Note_on_c, 9, 44, 53
5, 68758, Note_on_c, 9, 28, 39
5, 68848, Note_on_c, 9, 44, 0
5, 69062, Note_on_c, 9, 35, 48
5, 69078, Note_on_c, 9, 35, 0
5, 69140, Note_on_c, 9, 28, 0
5, 69140, Note_on_c, 9, 59, 40
5, 69140, Note_on_c, 9, 28, 36
5, 69142, Note_on_c, 9, 35, 35
5, 69190, Note_on_c, 9, 59, 0
5, 69200, Note_on_c, 9, 35, 0
5, 69524, Note_on_c, 9, 28, 0
5, 69524, Note_on_c, 9, 44, 71
5, 69530, Note_on_c, 9, 28, 34
5, 69588, Note_on_c, 9, 44, 0
5, 69908, Note_on_c, 9, 28, 0
5, 69910, Note_on_c, 9, 28, 44
5, 69924, Note_on_c, 9, 35, 32
5, 69952, Note_on_c, 9, 35, 0
5, 70118, Note_on_c, 9, 35, 35
5, 70212, Note_on_c, 9, 35, 0
5, 70288, Note_on_c, 9, 28, 42
5, 70292, Note_on_c, 9, 28, 0
5, 70292, Note_on_c, 9, 46, 55
5, 70320, Note_on_c, 9, 46, 0
5, 70438, Note_on_c, 9, 35, 60
5, 70464, Note_on_c, 9, 35, 0
5, 70516, Note_on_c, 9, 35, 47
5, 70516, Note_on_c, 9, 59, 26
5, 70532, Note_on_c, 9, 59, 0
5, 70534, Note_on_c, 9, 35, 0
5, 70656, Note_on_c, 9, 28, 46
5, 70676, Note_on_c, 9, 28, 0
5, 70692, Note_on_c, 9, 35, 47
5, 70692, Note_on_c, 9, 59, 54
5, 70710, Note_on_c, 9, 59, 0
5, 70714, Note_on_c, 9, 35, 0
5, 70900, Note_on_c, 9, 59, 61
5, 70902, Note_on_c, 9, 35, 32
5, 70934, Note_on_c, 9, 59, 0
5, 70982, Note_on_c, 9, 35, 0
5, 71060, Note_on_c, 9, 28, 0
5, 71060, Note_on_c, 9, 44, 45
5, 71078, Note_on_c, 9, 28, 39
5, 71114, Note_on_c, 9, 44, 0
5, 71444, Note_on_c, 9, 28, 0
5, 71460, Note_on_c, 9, 28, 46
5, 71828, Note_on_c, 9, 28, 0
5, 71828, Note_on_c, 9, 44, 70
5, 71836, Note_on_c, 9, 28, 31
5, 71930, Note_on_c, 9, 44, 0
5, 72212, Note_on_c, 9, 28, 0
5, 72230, Note_on_c, 9, 28, 52
5, 72596, Note_on_c, 9, 28, 0
5, 72596, Note_on_c, 9, 44, 75
5, 72628, Note_on_c, 9, 28, 33
5, 72708, Note_on_c, 9, 44, 0
5, 72980, Note_on_c, 9, 28, 0
5, 72988, Note_on_c, 9, 28, 31
5, 73364, Note_on_c, 9, 28, 0
5, 73364, Note_on_c, 9, 44, 69
5, 73364, Note_on_c, 9, 28, 33
5, 73476, Note_on_c, 9, 44, 0
5, 73484, Note_on_c, 9, 27, 56
5, 73642, Note_on_c, 9, 27, 0
5, 73670, Note_on_c, 9, 28, 39
5, 73748, Note_on_c, 9, 28, 0
5, 73754, Note_on_c, 9, 28, 24
5, 74124, Note_on_c, 9, 28, 34
5, 74132, Note_on_c, 9, 28, 0
5, 74132, Note_on_c, 9, 28, 0
5, 74132, Note_on_c, 9, 44, 69
5, 74250, Note_on_c, 9, 44, 0
5, 74512, Note_on_c, 9, 28, 36
5, 74516, Note_on_c, 9, 28, 0
5, 74720, Note_on_c, 9, 27, 50
5, 74892, Note_on_c, 9, 27, 0
5, 74900, Note_on_c, 9, 28, 0
5, 74900, Note_on_c, 9, 44, 70
5, 74912, Note_on_c, 9, 28, 29
5, 74996, Note_on_c, 9, 44, 0
5, 75100, Note_on_c, 9, 28, 31
5, 75284, Note_on_c, 9, 28, 0
5, 75286, Note_on_c, 9, 28, 39
5, 75668, Note_on_c, 9, 28, 0
5, 75668, Note_on_c, 9, 28, 0
5, 75668, Note_on_c, 9, 44, 62
5, 75696, Note_on_c, 9, 28, 34
5, 75718, Note_on_c, 9, 37, 25
5, 75734, Note_on_c, 9, 37, 0
5, 75754, Note_on_c, 9, 44, 0
5, 76052, Note_on_c, 9, 28, 0
5, 76068, Note_on_c, 9, 28, 34
5, 76436, Note_on_c, 9, 28, 0
5, 76436, Note_on_c, 9, 44, 64
5, 76436, Note_on_c, 9, 28, 49
5, 76508, Note_on_c, 9, 44, 0
5, 76790, Note_on_c, 9, 35, 37
5, 76810, Note_on_c, 9, 28, 40
5, 76816, Note_on_c, 9, 35, 0
5, 76820, Note_on_c, 9, 28, 0
5, 76876, Note_on_c, 9, 35, 32
5, 76944, Note_on_c, 9, 35, 0
5, 77060, Note_on_c, 9, 59, 60
5, 77066, Note_on_c, 9, 35, 35
5, 77076, Note_on_c, 9, 59, 0
5, 77116, Note_on_c, 9, 35, 0
5, 77204, Note_on_c, 9, 28, 0
5, 77204, Note_on_c, 9, 44, 55
5, 77220, Note_on_c, 9, 28, 40
5, 77238, Note_on_c, 9, 44, 0
5, 77572, Note_on_c, 9, 28, 49
5, 77588, Note_on_c, 9, 28, 0
5, 77948, Note_on_c, 9, 27, 68
5, 77972, Note_on_c, 9, 28, 0
5, 77972, Note_on_c, 9, 44, 74
5, 78038, Note_on_c, 9, 44, 0
5, 78124, Note_on_c, 9, 27, 0
5, 78154, Note_on_c, 9, 28, 36
5, 78348, Note_on_c, 9, 28, 40
5, 78356, Note_on_c, 9, 28, 0
5, 78564, Note_on_c, 9, 28, 44
5, 78740, Note_on_c, 9, 28, 0
5, 78740, Note_on_c, 9, 44, 75
5, 78740, Note_on_c, 9, 44, 70
5, 78740, Note_on_c, 9, 44, 58
5, 78780, Note_on_c, 9, 44, 0
5, 78800, Note_on_c, 9, 44, 0
5, 78890, Note_on_c, 9, 44, 0
5, 79124, Note_on_c, 9, 28, 0
5, 79140, Note_on_c, 9, 28, 49
5, 79508, Note_on_c, 9, 28, 0
5, 79508, Note_on_c, 9, 44, 54
5, 79508, Note_on_c, 9, 44, 55
5, 79536, Note_on_c, 9, 28, 39
5, 79558, Note_on_c, 9, 44, 0
5, 79680, Note_on_c, 9, 44, 0
5, 79892, Note_on_c, 9, 28, 0
5, 79924, Note_on_c, 9, 28, 40
5, 80276, Note_on_c, 9, 28, 0
5, 80276, Note_on_c, 9, 44, 56
5, 80276, Note_on_c, 9, 44, 60
5, 80310, Note_on_c, 9, 28, 39
5, 80324, Note_on_c, 9, 44, 0
5, 80336, Note_on_c, 9, 35, 29
5, 80352, Note_on_c, 9, 35, 0
5, 80404, Note_on_c, 9, 44, 0
5, 80506, Note_on_c, 9, 28, 42
5, 80660, Note_on_c, 9, 28, 0
5, 80692, Note_on_c, 9, 28, 44
5, 80890, Note_on_c, 9, 35, 27
5, 81008, Note_on_c, 9, 35, 0
5, 81044, Note_on_c, 9, 28, 0
5, 81044, Note_on_c, 9, 28, 0
5, 81044, Note_on_c, 9, 44, 51
5, 81044, Note_on_c, 9, 44, 62
5, 81052, Note_on_c, 9, 28, 36
5, 81076, Note_on_c, 9, 44, 0
5, 81148, Note_on_c, 9, 44, 0
5, 81428, Note_on_c, 9, 28, 0
5, 81444, Note_on_c, 9, 28, 39
5, 81812, Note_on_c, 9, 28, 0
5, 81812, Note_on_c, 9, 44, 58
5, 81812, Note_on_c, 9, 44, 60
5, 81840, Note_on_c, 9, 44, 0
5, 81846, Note_on_c, 9, 28, 36
5, 81916, Note_on_c, 9, 44, 0
5, 82044, Note_on_c, 9, 35, 28
5, 82076, Note_on_c, 9, 35, 0
5, 82196, Note_on_c, 9, 28, 0
5, 82204, Note_on_c, 9, 28, 42
5, 82420, Note_on_c, 9, 27, 36
5, 82580, Note_on_c, 9, 28, 0
5, 82580, Note_on_c, 9, 46, 44
5, 82580, Note_on_c, 9, 46, 34
5, 82582, Note_on_c, 9, 27, 0
5, 82602, Note_on_c, 9, 46, 0
5, 82602, Note_on_c, 9, 28, 36
5, 82692, Note_on_c, 9, 46, 0
5, 82800, Note_on_c, 9, 27, 35
5, 82896, Note_on_c, 9, 35, 31
5, 82906, Note_on_c, 9, 27, 0
5, 82924, Note_on_c, 9, 35, 0
5, 82950, Note_on_c, 9, 28, 24
5, 82964, Note_on_c, 9, 28, 0
5, 82988, Note_on_c, 9, 35, 37
5, 82996, Note_on_c, 9, 59, 40
5, 82998, Note_on_c, 9, 28, 34
5, 83076, Note_on_c, 9, 35, 0
5, 83084, Note_on_c, 9, 59, 0
5, 83184, Note_on_c, 9, 35, 37
5, 83188, Note_on_c, 9, 59, 31
5, 83260, Note_on_c, 9, 59, 0
5, 83264, Note_on_c, 9, 35, 0
5, 83348, Note_on_c, 9, 28, 0
5, 83348, Note_on_c, 9, 28, 0
5, 83348, Note_on_c, 9, 44, 79
5, 83348, Note_on_c, 9, 44, 34
5, 83350, Note_on_c, 9, 28, 31
5, 83456, Note_on_c, 9, 44, 0
5, 83456, Note_on_c, 9, 44, 0
5, 83724, Note_on_c, 9, 28, 34
5, 83732, Note_on_c, 9, 28, 0
5, 84092, Note_on_c, 9, 28, 42
5, 84116, Note_on_c, 9, 28, 0
5, 84116, Note_on_c, 9, 44, 55
5, 84116, Note_on_c, 9, 44, 50
5, 84170, Note_on_c, 9, 44, 0
5, 84224, Note_on_c, 9, 44, 0
5, 84412, Note_on_c, 9, 27, 53
5, 84454, Note_on_c, 9, 27, 0
5, 84486, Note_on_c, 9, 28, 47
5, 84500, Note_on_c, 9, 28, 0
5, 84688, Note_on_c, 9, 28, 36
5, 84884, Note_on_c, 9, 28, 0
5, 84884, Note_on_c, 9, 28, 0
5, 84884, Note_on_c, 9, 44, 57
5, 84884, Note_on_c, 9, 44, 44
5, 84918, Note_on_c, 9, 44, 0
5, 85004, Note_on_c, 9, 44, 0
5, 85076, Note_on_c, 9, 28, 36
5, 85258, Note_on_c, 9, 28, 49
5, 85484, Note_on_c, 9, 27, 32
5, 85642, Note_on_c, 9, 27, 0
5, 85652, Note_on_c, 9, 28, 0
5, 85652, Note_on_c, 9, 28, 0
5, 85652, Note_on_c, 9, 44, 58
5, 85652, Note_on_c, 9, 44, 48
5, 85670, Note_on_c, 9, 28, 34
5, 85732, Note_on_c, 9, 44, 0
5, 85750, Note_on_c, 9, 44, 0
5, 85972, Note_on_c, 9, 35, 31
5, 85990, Note_on_c, 9, 35, 0
5, 86036, Note_on_c, 9, 28, 0
5, 86042, Note_on_c, 9, 28, 34
5, 86052, Note_on_c, 9, 57, 29
5, 86052, Note_on_c, 9, 35, 24
5, 86080, Note_on_c, 9, 57, 0
5, 86084, Note_on_c, 9, 35, 0
5, 86416, Note_on_c, 9, 28, 42
5, 86420, Note_on_c, 9, 28, 0
5, 86420, Note_on_c, 9, 44, 73
5, 86804, Note_on_c, 9, 28, 0
5, 86816, Note_on_c, 9, 28, 36
5, 86842, Note_on_c, 9, 44, 0
5, 87188, Note_on_c, 9, 28, 0
5, 87188, Note_on_c, 9, 44, 77
5, 87210, Note_on_c, 9, 28, 44
5, 87572, Note_on_c, 9, 28, 0
5, 87588, Note_on_c, 9, 28, 33
5, 87628, Note_on_c, 9, 44, 0
5, 87956, Note_on_c, 9, 28, 0
5, 87956, Note_on_c, 9, 44, 70
5, 87974, Note_on_c, 9, 28, 40
5, 88324, Note_on_c, 9, 44, 0
5, 88340, Note_on_c, 9, 28, 0
5, 88378, Note_on_c, 9, 28, 44
5, 88662, Note_on_c, 9, 27, 46
5, 88708, Note_on_c, 9, 27, 0
5, 88724, Note_on_c, 9, 28, 0
5, 88724, Note_on_c, 9, 46, 39
5, 88740, Note_on_c, 9, 28, 33
5, 88742, Note_on_c, 9, 46, 0
5, 88940, Note_on_c, 9, 28, 34
5, 89108, Note_on_c, 9, 28, 0
5, 89120, Note_on_c, 9, 28, 37
5, 89492, Note_on_c, 9, 28, 0
5, 89492, Note_on_c, 9, 28, 0
5, 89492, Note_on_c, 9, 44, 52
5, 89524, Note_on_c, 9, 28, 40
5, 89574, Note_on_c, 9, 44, 0
5, 89876, Note_on_c, 9, 28, 0
5, 89914, Note_on_c, 9, 28, 34
5, 90260, Note_on_c, 9, 28, 0
5, 90260, Note_on_c, 9, 44, 61
5, 90272, Note_on_c, 9, 28, 34
5, 90380, Note_on_c, 9, 44, 0
5, 90644, Note_on_c, 9, 28, 0
5, 90646, Note_on_c, 9, 28, 31
5, 91028, Note_on_c, 9, 28, 0
5, 91028, Note_on_c, 9, 44, 62
5, 91050, Note_on_c, 9, 28, 34
5, 91088, Note_on_c, 9, 44, 0
5, 91412, Note_on_c, 9, 28, 0
5, 91420, Note_on_c, 9, 28, 36
5, 91610, Note_on_c, 9, 28, 31
5, 91796, Note_on_c, 9, 28, 0
5, 91796, Note_on_c, 9, 44, 51
5, 91796, Note_on_c, 9, 28, 44
5, 91894, Note_on_c, 9, 44, 0
5, 92100, Note_on_c, 9, 35, 27
5, 92116, Note_on_c, 9, 35, 0
5, 92180, Note_on_c, 9, 28, 0
5, 92180, Note_on_c, 9, 28, 0
5, 92188, Note_on_c, 9, 28, 50
5, 92564, Note_on_c, 9, 28, 0
5, 92564, Note_on_c, 9, 44, 52
5, 92588, Note_on_c, 9, 28, 34
5, 92628, Note_on_c, 9, 44, 0
5, 92886, Note_on_c, 9, 35, 33
5, 92902, Note_on_c, 9, 35, 0
5, 92948, Note_on_c, 9, 28, 0
5, 92980, Note_on_c, 9, 28, 50
5, 93332, Note_on_c, 9, 28, 0
5, 93332, Note_on_c, 9, 44, 55
5, 93360, Note_on_c, 9, 28, 46
5, 93392, Note_on_c, 9, 44, 0
5, 93540, Note_on_c, 9, 27, 46
5, 93638, Note_on_c, 9, 27, 0
5, 93716, Note_on_c, 9, 28, 0
5, 93740, Note_on_c, 9, 28, 34
5, 94100, Note_on_c, 9, 28, 0
5, 94100, Note_on_c, 9, 44, 56
5, 94112, Note_on_c, 9, 28, 36
5, 94148, Note_on_c, 9, 44, 0
5, 94406, Note_on_c, 9, 35, 30
5, 94452, Note_on_c, 9, 35, 0
5, 94484, Note_on_c, 9, 28, 0
5, 94500, Note_on_c, 9, 28, 37
5, 94502, Note_on_c, 9, 35, 36
5, 94502, Note_on_c, 9, 59, 34
5, 94528, Note_on_c, 9, 35, 0
5, 94534, Note_on_c, 9, 59, 0
5, 94692, Note_on_c, 9, 59, 38
5, 94692, Note_on_c, 9, 35, 32
5, 94736, Note_on_c, 9, 59, 0
5, 94740, Note_on_c, 9, 35, 0
5, 94868, Note_on_c, 9, 28, 0
5, 94868, Note_on_c, 9, 46, 25
5, 94876, Note_on_c, 9, 28, 42
5, 94916, Note_on_c, 9, 46, 0
5, 95252, Note_on_c, 9, 28, 0
5, 95254, Note_on_c, 9, 28, 50
5, 95260, Note_on_c, 9, 28, 40
5, 95636, Note_on_c, 9, 28, 0
5, 95636, Note_on_c, 9, 28, 0
5, 95636, Note_on_c, 9, 44, 69
5, 95642, Note_on_c, 9, 28, 47
5, 95744, Note_on_c, 9, 44, 0
5, 95824, Note_on_c, 9, 27, 62
5, 96000, Note_on_c, 9, 27, 0
5, 96016, Note_on_c, 9, 28, 40
5, 96020, Note_on_c, 9, 28, 0
5, 96404, Note_on_c, 9, 28, 0
5, 96404, Note_on_c, 9, 44, 53
5, 96406, Note_on_c, 9, 28, 39
5, 96496, Note_on_c, 9, 44, 0
5, 96710, Note_on_c, 9, 35, 48
5, 96726, Note_on_c, 9, 35, 0
5, 96788, Note_on_c, 9, 28, 0
5, 96788, Note_on_c, 9, 59, 40
5, 96788, Note_on_c, 9, 28, 36
5, 96790, Note_on_c, 9, 35, 35
5, 96838, Note_on_c, 9, 59, 0
5, 96848, Note_on_c, 9, 35, 0
5, 97172, Note_on_c, 9, 28, 0
5, 97172, Note_on_c, 9, 44, 71
5, 97178, Note_on_c, 9, 28, 34
5, 97236, Note_on_c, 9, 44, 0
5, 97556, Note_on_c, 9, 28, 0
5, 97558, Note_on_c, 9, 28, 44
5, 97572, Note_on_c, 9, 35, 32
5, 97600, Note_on_c, 9, 35, 0
5, 97766, Note_on_c, 9, 35, 35
5, 97860, Note_on_c, 9, 35, 0
5, 97936, Note_on_c, 9, 28, 42
5, 97940, Note_on_c, 9, 28, 0
5, 97940, Note_on_c, 9, 46, 55
5, 97968, Note_on_c, 9, 46, 0
5, 98086, Note_on_c, 9, 35, 60
5, 98112, Note_on_c, 9, 35, 0
5, 98164, Note_on_c, 9, 35, 47
5, 98164, Note_on_c, 9, 59, 26
5, 98180, Note_on_c, 9, 59, 0
5, 98182, Note_on_c, 9, 35, 0
5, 98304, Note_on_c, 9, 28, 46
5, 98324, Note_on_c, 9, 28, 0
5, 98340, Note_on_c, 9, 35, 47
5, 98340, Note_on_c, 9, 59, 54
5, 98358, Note_on_c, 9, 59, 0
5, 98362, Note_on_c, 9, 35, 0
5, 98548, Note_on_c, 9, 59, 61
5, 98550, Note_on_c, 9, 35, 32
5, 98582, Note_on_c, 9, 59, 0
5, 98630, Note_on_c, 9, 35, 0
5, 98708, Note_on_c, 9, 28, 0
5, 98708, Note_on_c, 9, 44, 45
5, 98726, Note_on_c, 9, 28, 39
5, 98762, Note_on_c, 9, 44, 0
5, 99092, Note_on_c, 9, 28, 0
5, 99108, Note_on_c, 9, 28, 46
5, 99476, Note_on_c, 9, 28, 0
5, 99476, Note_on_c, 9, 44, 70
5, 99484, Note_on_c, 9, 28, 31
5, 99578, Note_on_c, 9, 44, 0
5, 99860, Note_on_c, 9, 28, 0
5, 99878, Note_on_c, 9, 28, 52
5, 100244, Note_on_c, 9, 28, 0
5, 100244, Note_on_c, 9, 44, 75
5, 100276, Note_on_c, 9, 28, 33
5, 100356, Note_on_c, 9, 44, 0
5, 100628, Note_on_c, 9, 28, 0
5, 100636, Note_on_c, 9, 28, 31
5, 101012, Note_on_c, 9, 28, 0
5, 101012, Note_on_c, 9, 44, 69
5, 101012, Note_on_c, 9, 28, 33
5, 101124, Note_on_c, 9, 44, 0
5, 101132, Note_on_c, 9, 27, 56
5, 101290, Note_on_c, 9, 27, 0
5, 101318, Note_on_c, 9, 28, 39
5, 101396, Note_on_c, 9, 28, 0
5, 101396, Control_c, 9, 0, 0
5, 101396, Control_c, 9, 32, 122
5, 101396, Control_c, 9, 7, 107
5, 101396, Control_c, 9, 10, 64
5, 101396, Control_c, 9, 11, 127
5, 101396, Control_c, 9, 91, 10
5, 101396, Control_c, 9, 93, 0
5, 101396, Control_c, 9, 94, 0
5, 101396, Control_c, 9, 101, 0
5, 101397, Control_c, 9, 100, 1
5, 101398, Control_c, 9, 6, 64
5, 101399, Control_c, 9, 38, 0
5, 101400, Control_c, 9, 71, 43
5, 101400, Control_c, 9, 74, 46
5, 101400, Note_on_c, 9, 57, 57
5, 101400, Control_c, 9, 0, 0
5, 101400, Control_c, 9, 32, 122
5, 101400, Control_c, 9, 0, 0
5, 101400, Control_c, 9, 32, 122
5, 101400, Control_c, 9, 0, 0
5, 101400, Control_c, 9, 32, 122
5, 101400, Control_c, 9, 0, 0
5, 101400, Control_c, 9, 32, 122
5, 101400, Control_c, 9, 0, 0
5, 101400, Control_c, 9, 32, 122
5, 101400, Program_c, 9, 0
5, 101436, Note_on_c, 9, 57, 0
5, 101780, Note_on_c, 9, 28, 0
5, 101780, End_track
0, 0, End_of_file
