0, 0, Header, 0, 1, 384
1, 0, Start_track
1, 0, Title_t, "Over The Rainbow"
1, 0, Text_t, "dougmck@tpg.com.au\012"
1, 0, System_exclusive, 5, 126, 127, 9, 1, 247
1, 1, System_exclusive, 8, 67, 16, 76, 0, 0, 126, 0, 247
1, 1, System_exclusive, 8, 67, 16, 76, 8, 15, 0, 1, 247
1, 1, System_exclusive, 8, 67, 16, 76, 8, 14, 0, 1, 247
1, 1, System_exclusive, 8, 67, 16, 76, 8, 13, 0, 1, 247
1, 1, System_exclusive, 8, 67, 16, 76, 8, 12, 0, 1, 247
1, 1, System_exclusive, 8, 67, 16, 76, 8, 11, 0, 1, 247
1, 1, System_exclusive, 8, 67, 16, 76, 8, 10, 0, 1, 247
1, 1, System_exclusive, 8, 67, 16, 76, 8, 9, 0, 0, 247
1, 1, System_exclusive, 8, 67, 16, 76, 8, 8, 0, 1, 247
1, 1, System_exclusive, 8, 67, 16, 76, 8, 7, 0, 1, 247
1, 1, System_exclusive, 8, 67, 16, 76, 8, 6, 0, 1, 247
1, 1, System_exclusive, 8, 67, 16, 76, 8, 5, 0, 1, 247
1, 1, System_exclusive, 8, 67, 16, 76, 8, 4, 0, 2, 247
1, 1, System_exclusive, 8, 67, 16, 76, 8, 3, 0, 2, 247
1, 1, System_exclusive, 8, 67, 16, 76, 8, 2, 0, 4, 247
1, 1, System_exclusive, 8, 67, 16, 76, 8, 1, 0, 4, 247
1, 1, System_exclusive, 8, 67, 16, 76, 8, 0, 0, 8, 247
1, 1, System_exclusive, 8, 67, 16, 76, 8, 0, 7, 0, 247
1, 1, System_exclusive, 8, 67, 16, 76, 8, 1, 7, 0, 247
1, 1, System_exclusive, 8, 67, 16, 76, 8, 2, 7, 0, 247
1, 1, System_exclusive, 8, 67, 16, 76, 8, 3, 7, 0, 247
1, 1, System_exclusive, 8, 67, 16, 76, 8, 4, 7, 0, 247
1, 1, System_exclusive, 8, 67, 16, 76, 8, 5, 7, 0, 247
1, 1, System_exclusive, 8, 67, 16, 76, 8, 6, 7, 0, 247
1, 1, System_exclusive, 8, 67, 16, 76, 8, 7, 7, 0, 247
1, 1, System_exclusive, 8, 67, 16, 76, 8, 8, 7, 0, 247
1, 1, System_exclusive, 8, 67, 16, 76, 8, 9, 7, 1, 247
1, 1, System_exclusive, 8, 67, 16, 76, 8, 10, 7, 0, 247
1, 1, System_exclusive, 8, 67, 16, 76, 8, 11, 7, 0, 247
1, 1, System_exclusive, 8, 67, 16, 76, 8, 12, 7, 0, 247
1, 1, System_exclusive, 8, 67, 16, 76, 8, 13, 7, 0, 247
1, 1, System_exclusive, 8, 67, 16, 76, 8, 14, 7, 0, 247
1, 1, System_exclusive, 8, 67, 16, 76, 8, 15, 7, 0, 247
1, 1, System_exclusive, 9, 67, 16, 76, 2, 1, 0, 3, 17, 247
1, 1, System_exclusive, 9, 67, 16, 76, 2, 1, 32, 67, 1, 247
1, 1, System_exclusive, 9, 67, 16, 76, 2, 1, 64, 5, 0, 247
1, 1, System_exclusive, 8, 67, 16, 76, 8, 9, 32, 10, 247
1, 1, System_exclusive, 8, 67, 16, 76, 8, 9, 114, 64, 247
1, 1, System_exclusive, 8, 67, 16, 76, 8, 9, 115, 64, 247
1, 1, System_exclusive, 8, 67, 16, 76, 8, 9, 119, 46, 247
1, 2, System_exclusive, 9, 67, 16, 76, 3, 0, 0, 3, 18, 247
1, 2, System_exclusive, 8, 67, 16, 76, 3, 0, 11, 5, 247
1, 2, System_exclusive, 8, 67, 16, 76, 3, 0, 12, 127, 247
1, 3, System_exclusive, 9, 67, 16, 76, 3, 0, 0, 3, 18, 247
1, 3, System_exclusive, 8, 67, 16, 76, 3, 0, 12, 127, 247
1, 3, System_exclusive, 8, 67, 16, 76, 3, 0, 11, 5, 247
1, 3, System_exclusive, 9, 67, 16, 76, 2, 1, 0, 3, 17, 247
1, 3, System_exclusive, 9, 67, 16, 76, 2, 1, 32, 67, 1, 247
1, 4, System_exclusive, 9, 67, 16, 76, 3, 1, 0, 3, 18, 247
1, 4, System_exclusive, 8, 67, 16, 76, 3, 1, 12, 2, 247
1, 4, System_exclusive, 9, 67, 16, 76, 2, 1, 0, 1, 19, 247
1, 4, System_exclusive, 9, 67, 16, 76, 2, 1, 32, 65, 8, 247
1, 4, System_exclusive, 8, 67, 16, 76, 3, 0, 12, 0, 247
1, 4, System_exclusive, 8, 67, 16, 76, 8, 0, 114, 64, 247
1, 4, System_exclusive, 8, 67, 16, 76, 8, 0, 115, 95, 247
1, 4, System_exclusive, 8, 67, 16, 76, 8, 0, 119, 46, 247
1, 4, System_exclusive, 8, 67, 16, 76, 3, 1, 11, 5, 247
1, 4, System_exclusive, 8, 67, 16, 76, 8, 2, 114, 64, 247
1, 4, System_exclusive, 8, 67, 16, 76, 8, 2, 115, 95, 247
1, 4, System_exclusive, 8, 67, 16, 76, 8, 2, 119, 46, 247
1, 4, Time_signature, 4, 2, 24, 8
1, 4, Key_signature, -3, "major"
1, 4, Tempo, 600000
1, 8, Tempo, 600000
1, 12, Tempo, 600000
1, 16, Sequencer_specific, 21, 67, 115, 10, 0, 5, 75, 90, 75, 79, 79, 79, 79, 79, 79, 90, 79, 79, 79, 79, 79, 79
1, 16, Sequencer_specific, 6, 67, 115, 10, 0, 4, 1
1, 16, Sequencer_specific, 9, 67, 123, 0, 88, 70, 48, 50, 0, 0
1, 388, Program_c, 0, 0
1, 389, Control_c, 0, 7, 100
1, 389, Control_c, 0, 10, 64
1, 389, Control_c, 0, 91, 10
1, 389, Control_c, 0, 93, 0
1, 390, Control_c, 1, 0, 0
1, 390, Control_c, 1, 32, 0
1, 390, Program_c, 1, 32
1, 391, Control_c, 1, 7, 127
1, 391, Control_c, 1, 10, 64
1, 391, Control_c, 1, 91, 16
1, 391, Control_c, 1, 93, 0
1, 393, Control_c, 2, 7, 100
1, 406, Control_c, 9, 0, 127
1, 406, Control_c, 9, 32, 0
1, 406, Program_c, 9, 40
1, 407, Control_c, 9, 7, 76
1, 407, Control_c, 9, 10, 64
1, 407, Control_c, 9, 91, 0
1, 407, Control_c, 9, 93, 0
1, 1546, Control_c, 0, 0, 0
1, 1546, Control_c, 0, 32, 122
1, 1547, Control_c, 0, 0, 0
1, 1547, Control_c, 0, 32, 122
1, 1548, Program_c, 0, 0
1, 1548, Control_c, 0, 7, 107
1, 1548, Control_c, 0, 10, 64
1, 1548, Control_c, 0, 11, 127
1, 1548, Control_c, 0, 91, 10
1, 1548, Control_c, 0, 93, 0
1, 1548, Control_c, 0, 94, 0
1, 1548, Note_on_c, 9, 48, 1
1, 1548, Control_c, 0, 101, 0
1, 1549, Control_c, 0, 100, 1
1, 1550, Control_c, 0, 6, 64
1, 1551, Control_c, 0, 38, 0
1, 1551, Control_c, 0, 71, 43
1, 1551, Control_c, 0, 74, 46
1, 1551, Control_c, 0, 64, 127
1, 1552, Tempo, 983607
1, 1574, Note_on_c, 9, 48, 0
1, 3086, Note_on_c, 0, 87, 82
1, 3088, Note_on_c, 0, 75, 66
1, 3092, Note_on_c, 0, 55, 53
1, 3092, Control_c, 0, 64, 0
1, 3096, Note_on_c, 0, 65, 54
1, 3098, Note_on_c, 0, 62, 52
1, 3098, Note_on_c, 9, 40, 34
1, 3104, Note_on_c, 0, 60, 57
1, 3108, Note_on_c, 9, 57, 29
1, 3108, Note_on_c, 9, 35, 24
1, 3124, Note_on_c, 1, 39, 68
1, 3124, System_exclusive, 8, 67, 16, 76, 8, 1, 114, 64, 247
1, 3124, System_exclusive, 8, 67, 16, 76, 8, 1, 115, 64, 247
1, 3124, System_exclusive, 8, 67, 16, 76, 8, 1, 119, 46, 247
1, 3136, Note_on_c, 9, 57, 0
1, 3140, Note_on_c, 9, 35, 0
1, 3204, Control_c, 0, 64, 127
1, 3380, Note_on_c, 0, 65, 0
1, 3384, Note_on_c, 0, 60, 0
1, 3392, Note_on_c, 0, 62, 0
1, 3472, Note_on_c, 9, 40, 42
1, 3476, Note_on_c, 9, 40, 0
1, 3476, Note_on_c, 9, 44, 73
1, 3532, Note_on_c, 0, 60, 39
1, 3536, Note_on_c, 0, 65, 38
1, 3544, Note_on_c, 0, 62, 28
1, 3588, Note_on_c, 0, 62, 0
1, 3600, Note_on_c, 0, 65, 0
1, 3616, Note_on_c, 0, 60, 0
1, 3616, Note_on_c, 0, 75, 0
1, 3652, Note_on_c, 0, 55, 0
1, 3668, Note_on_c, 0, 87, 0
1, 3860, Note_on_c, 9, 40, 0
1, 3868, Note_on_c, 1, 48, 85
1, 3872, Note_on_c, 9, 40, 36
1, 3898, Note_on_c, 9, 44, 0
1, 3916, Note_on_c, 1, 39, 0
1, 4244, Note_on_c, 9, 40, 0
1, 4244, Note_on_c, 9, 44, 77
1, 4266, Note_on_c, 9, 40, 44
1, 4408, Control_c, 0, 64, 0
1, 4420, Note_on_c, 0, 63, 57
1, 4420, Note_on_c, 0, 55, 54
1, 4424, Note_on_c, 0, 99, 85
1, 4428, Note_on_c, 0, 87, 76
1, 4432, Note_on_c, 0, 60, 37
1, 4460, Control_c, 0, 64, 127
1, 4512, Note_on_c, 0, 55, 0
1, 4520, Note_on_c, 0, 60, 0
1, 4536, Note_on_c, 0, 63, 0
1, 4544, Note_on_c, 0, 99, 0
1, 4560, Note_on_c, 0, 87, 0
1, 4580, Note_on_c, 1, 42, 49
1, 4628, Note_on_c, 9, 40, 0
1, 4636, Note_on_c, 1, 42, 0
1, 4644, Note_on_c, 1, 48, 0
1, 4644, Note_on_c, 1, 43, 63
1, 4644, Note_on_c, 9, 40, 33
1, 4668, Control_c, 0, 64, 0
1, 4680, Note_on_c, 0, 98, 63
1, 4684, Note_on_c, 9, 44, 0
1, 4684, Note_on_c, 0, 58, 42
1, 4684, Note_on_c, 0, 86, 50
1, 4684, Note_on_c, 0, 62, 37
1, 4692, Note_on_c, 0, 53, 27
1, 4700, Note_on_c, 0, 57, 39
1, 4740, Control_c, 0, 64, 127
1, 4824, Note_on_c, 0, 98, 0
1, 4880, Note_on_c, 0, 86, 0
1, 4892, Note_on_c, 0, 62, 0
1, 4900, Note_on_c, 0, 57, 0
1, 4904, Note_on_c, 0, 58, 0
1, 5012, Note_on_c, 9, 40, 0
1, 5012, Note_on_c, 9, 44, 70
1, 5030, Note_on_c, 9, 40, 40
1, 5044, Note_on_c, 0, 58, 31
1, 5060, Note_on_c, 0, 62, 26
1, 5064, Note_on_c, 0, 57, 28
1, 5156, Note_on_c, 0, 57, 0
1, 5176, Note_on_c, 0, 53, 0
1, 5196, Note_on_c, 0, 58, 0
1, 5244, Note_on_c, 0, 62, 0
1, 5308, Note_on_c, 0, 82, 48
1, 5360, Note_on_c, 0, 82, 0
1, 5380, Note_on_c, 9, 44, 0
1, 5380, Note_on_c, 0, 84, 55
1, 5396, Note_on_c, 9, 40, 0
1, 5428, Note_on_c, 0, 84, 0
1, 5434, Note_on_c, 9, 40, 44
1, 5456, Control_c, 0, 64, 0
1, 5500, Control_c, 0, 64, 127
1, 5636, Note_on_c, 1, 43, 0
1, 5648, Note_on_c, 1, 39, 65
1, 5718, Note_on_c, 9, 39, 46
1, 5764, Note_on_c, 9, 39, 0
1, 5780, Note_on_c, 9, 40, 0
1, 5780, Note_on_c, 9, 46, 39
1, 5796, Note_on_c, 9, 40, 33
1, 5798, Note_on_c, 9, 46, 0
1, 5856, Note_on_c, 0, 86, 73
1, 5860, Note_on_c, 1, 51, 85
1, 5908, Note_on_c, 0, 86, 0
1, 5964, Control_c, 0, 64, 0
1, 5984, Note_on_c, 0, 61, 43
1, 5988, Note_on_c, 0, 86, 66
1, 5988, Note_on_c, 0, 65, 37
1, 5992, Note_on_c, 0, 56, 41
1, 5992, Note_on_c, 0, 60, 47
1, 5996, Note_on_c, 9, 40, 34
1, 6036, Note_on_c, 0, 86, 0
1, 6044, Control_c, 0, 64, 127
1, 6084, Note_on_c, 0, 87, 63
1, 6116, Note_on_c, 0, 87, 0
1, 6136, Note_on_c, 0, 60, 0
1, 6144, Note_on_c, 0, 65, 0
1, 6152, Note_on_c, 1, 39, 0
1, 6160, Note_on_c, 1, 49, 63
1, 6164, Note_on_c, 9, 40, 0
1, 6164, Note_on_c, 0, 61, 0
1, 6176, Note_on_c, 9, 40, 37
1, 6180, Note_on_c, 1, 51, 0
1, 6196, Note_on_c, 0, 56, 0
1, 6200, Note_on_c, 0, 87, 70
1, 6228, Note_on_c, 0, 87, 0
1, 6228, Note_on_c, 1, 49, 0
1, 6248, Note_on_c, 1, 48, 60
1, 6292, Note_on_c, 0, 63, 45
1, 6292, Control_c, 0, 64, 0
1, 6300, Note_on_c, 0, 75, 57
1, 6316, Note_on_c, 0, 58, 38
1, 6320, Note_on_c, 0, 55, 26
1, 6320, Note_on_c, 0, 60, 35
1, 6344, Note_on_c, 0, 60, 0
1, 6344, Note_on_c, 0, 63, 0
1, 6348, Note_on_c, 0, 58, 0
1, 6348, Note_on_c, 0, 75, 0
1, 6348, Note_on_c, 0, 55, 0
1, 6484, Note_on_c, 0, 75, 52
1, 6488, Note_on_c, 0, 63, 39
1, 6504, Note_on_c, 0, 58, 34
1, 6512, Note_on_c, 0, 60, 36
1, 6512, Note_on_c, 0, 53, 33
1, 6548, Note_on_c, 9, 40, 0
1, 6548, Note_on_c, 9, 40, 0
1, 6548, Note_on_c, 9, 44, 52
1, 6560, Note_on_c, 0, 53, 0
1, 6564, Note_on_c, 0, 60, 0
1, 6576, Note_on_c, 0, 63, 0
1, 6576, Note_on_c, 0, 58, 0
1, 6580, Note_on_c, 9, 40, 40
1, 6588, Note_on_c, 0, 75, 0
1, 6630, Note_on_c, 9, 44, 0
1, 6680, Note_on_c, 0, 63, 32
1, 6692, Control_c, 0, 64, 127
1, 6692, Note_on_c, 0, 75, 50
1, 6692, Note_on_c, 0, 58, 36
1, 6700, Note_on_c, 0, 53, 35
1, 6704, Note_on_c, 0, 60, 36
1, 6856, Note_on_c, 0, 53, 0
1, 6888, Note_on_c, 0, 60, 0
1, 6908, Note_on_c, 0, 58, 0
1, 6920, Note_on_c, 0, 63, 0
1, 6932, Note_on_c, 9, 40, 0
1, 6970, Note_on_c, 9, 40, 34
1, 6976, Note_on_c, 1, 48, 0
1, 6976, Note_on_c, 1, 45, 67
1, 7220, Note_on_c, 0, 75, 0
1, 7316, Note_on_c, 9, 40, 0
1, 7316, Note_on_c, 9, 44, 61
1, 7328, Note_on_c, 9, 40, 34
1, 7376, Note_on_c, 1, 45, 0
1, 7380, Note_on_c, 1, 38, 50
1, 7436, Note_on_c, 9, 44, 0
1, 7480, Control_c, 0, 64, 0
1, 7496, Note_on_c, 0, 80, 61
1, 7500, Note_on_c, 0, 84, 54
1, 7500, Note_on_c, 0, 65, 38
1, 7500, Note_on_c, 0, 60, 49
1, 7500, Note_on_c, 0, 75, 50
1, 7500, Note_on_c, 0, 54, 41
1, 7540, Control_c, 0, 64, 127
1, 7600, Note_on_c, 0, 65, 0
1, 7608, Note_on_c, 0, 60, 0
1, 7652, Note_on_c, 0, 54, 0
1, 7664, Note_on_c, 0, 75, 0
1, 7668, Note_on_c, 0, 84, 0
1, 7676, Note_on_c, 0, 80, 0
1, 7700, Note_on_c, 9, 40, 0
1, 7702, Note_on_c, 9, 40, 31
1, 7736, Control_c, 0, 64, 0
1, 7736, Note_on_c, 1, 43, 52
1, 7740, Note_on_c, 1, 38, 0
1, 7768, Note_on_c, 0, 82, 51
1, 7768, Note_on_c, 0, 58, 38
1, 7772, Note_on_c, 0, 74, 43
1, 7772, Note_on_c, 0, 62, 30
1, 7776, Note_on_c, 0, 55, 33
1, 7792, Note_on_c, 0, 57, 30
1, 7800, Control_c, 0, 64, 127
1, 7888, Note_on_c, 0, 82, 0
1, 7908, Note_on_c, 0, 74, 0
1, 8084, Note_on_c, 9, 40, 0
1, 8084, Note_on_c, 9, 44, 62
1, 8106, Note_on_c, 9, 40, 34
1, 8144, Note_on_c, 9, 44, 0
1, 8168, Note_on_c, 0, 62, 0
1, 8176, Note_on_c, 0, 58, 0
1, 8184, Note_on_c, 0, 57, 0
1, 8196, Note_on_c, 1, 38, 52
1, 8212, Note_on_c, 0, 55, 0
1, 8288, Note_on_c, 1, 38, 0
1, 8316, Note_on_c, 1, 43, 0
1, 8340, Note_on_c, 1, 37, 66
1, 8376, Note_on_c, 0, 60, 48
1, 8392, Control_c, 0, 64, 0
1, 8396, Note_on_c, 0, 60, 0
1, 8432, Note_on_c, 0, 61, 61
1, 8464, Note_on_c, 1, 37, 0
1, 8468, Note_on_c, 9, 40, 0
1, 8472, Note_on_c, 0, 61, 0
1, 8476, Note_on_c, 9, 40, 36
1, 8484, Note_on_c, 1, 36, 62
1, 8488, Note_on_c, 0, 63, 66
1, 8532, Note_on_c, 0, 63, 0
1, 8548, Note_on_c, 0, 64, 70
1, 8584, Note_on_c, 0, 64, 0
1, 8612, Note_on_c, 0, 66, 60
1, 8648, Note_on_c, 0, 66, 0
1, 8666, Note_on_c, 9, 40, 31
1, 8688, Note_on_c, 0, 67, 56
1, 8712, Note_on_c, 0, 67, 0
1, 8740, Note_on_c, 0, 69, 64
1, 8772, Note_on_c, 0, 69, 0
1, 8796, Note_on_c, 0, 70, 63
1, 8812, Note_on_c, 0, 70, 0
1, 8840, Note_on_c, 0, 72, 68
1, 8852, Note_on_c, 9, 40, 0
1, 8852, Note_on_c, 9, 44, 51
1, 8852, Note_on_c, 9, 40, 44
1, 8868, Note_on_c, 0, 63, 35
1, 8876, Note_on_c, 0, 72, 0
1, 8876, Note_on_c, 0, 58, 41
1, 8896, Note_on_c, 0, 73, 58
1, 8896, Note_on_c, 0, 52, 32
1, 8940, Note_on_c, 0, 73, 0
1, 8950, Note_on_c, 9, 44, 0
1, 8956, Note_on_c, 0, 75, 50
1, 8972, Note_on_c, 0, 75, 0
1, 9000, Note_on_c, 0, 76, 64
1, 9044, Note_on_c, 0, 76, 0
1, 9056, Note_on_c, 0, 77, 56
1, 9076, Note_on_c, 0, 77, 0
1, 9100, Note_on_c, 0, 78, 41
1, 9120, Note_on_c, 0, 78, 0
1, 9152, Note_on_c, 0, 79, 37
1, 9156, Note_on_c, 9, 35, 27
1, 9164, Control_c, 0, 64, 127
1, 9172, Note_on_c, 9, 35, 0
1, 9172, Note_on_c, 0, 79, 0
1, 9172, Note_on_c, 0, 52, 0
1, 9188, Note_on_c, 0, 58, 0
1, 9188, Note_on_c, 0, 80, 31
1, 9224, Note_on_c, 0, 80, 0
1, 9224, Note_on_c, 0, 63, 0
1, 9236, Note_on_c, 9, 40, 0
1, 9236, Note_on_c, 9, 40, 0
1, 9240, Note_on_c, 0, 81, 44
1, 9244, Note_on_c, 9, 40, 50
1, 9264, Control_c, 0, 64, 0
1, 9268, Note_on_c, 0, 81, 0
1, 9284, Note_on_c, 0, 84, 55
1, 9288, Note_on_c, 0, 63, 28
1, 9312, Note_on_c, 0, 60, 35
1, 9316, Note_on_c, 0, 84, 0
1, 9320, Note_on_c, 0, 56, 28
1, 9328, Note_on_c, 0, 53, 20
1, 9376, Note_on_c, 0, 82, 52
1, 9412, Note_on_c, 0, 82, 0
1, 9456, Note_on_c, 1, 32, 50
1, 9460, Note_on_c, 1, 36, 0
1, 9468, Note_on_c, 0, 80, 54
1, 9492, Note_on_c, 0, 80, 0
1, 9552, Note_on_c, 0, 79, 49
1, 9584, Note_on_c, 0, 79, 0
1, 9616, Note_on_c, 0, 77, 55
1, 9620, Note_on_c, 9, 40, 0
1, 9620, Note_on_c, 9, 44, 52
1, 9636, Note_on_c, 0, 77, 0
1, 9644, Note_on_c, 9, 40, 34
1, 9660, Note_on_c, 1, 44, 72
1, 9684, Note_on_c, 9, 44, 0
1, 9708, Note_on_c, 0, 72, 50
1, 9728, Note_on_c, 0, 72, 0
1, 9796, Note_on_c, 0, 68, 63
1, 9820, Note_on_c, 0, 68, 0
1, 9840, Note_on_c, 1, 44, 0
1, 9864, Note_on_c, 1, 44, 69
1, 9880, Control_c, 0, 64, 127
1, 9904, Note_on_c, 0, 67, 43
1, 9942, Note_on_c, 9, 35, 33
1, 9948, Note_on_c, 0, 67, 0
1, 9952, Note_on_c, 0, 60, 0
1, 9956, Note_on_c, 0, 53, 0
1, 9958, Note_on_c, 9, 35, 0
1, 9972, Note_on_c, 0, 63, 0
1, 9976, Note_on_c, 0, 56, 0
1, 9984, Note_on_c, 0, 68, 45
1, 10004, Note_on_c, 9, 40, 0
1, 10024, Note_on_c, 0, 68, 0
1, 10036, Note_on_c, 9, 40, 50
1, 10044, Note_on_c, 1, 44, 0
1, 10048, Note_on_c, 1, 32, 0
1, 10052, Note_on_c, 1, 37, 57
1, 10064, Control_c, 0, 64, 0
1, 10076, Note_on_c, 0, 63, 36
1, 10088, Note_on_c, 0, 68, 46
1, 10088, Note_on_c, 0, 59, 46
1, 10100, Note_on_c, 0, 56, 32
1, 10112, Note_on_c, 0, 53, 27
1, 10160, Note_on_c, 1, 52, 37
1, 10220, Control_c, 0, 64, 127
1, 10240, Note_on_c, 0, 68, 0
1, 10244, Note_on_c, 0, 67, 43
1, 10248, Note_on_c, 1, 52, 0
1, 10252, Note_on_c, 1, 53, 50
1, 10304, Note_on_c, 0, 59, 0
1, 10340, Note_on_c, 0, 63, 0
1, 10368, Note_on_c, 0, 67, 0
1, 10388, Note_on_c, 9, 40, 0
1, 10388, Note_on_c, 9, 44, 55
1, 10416, Note_on_c, 9, 40, 46
1, 10448, Note_on_c, 9, 44, 0
1, 10452, Note_on_c, 0, 63, 37
1, 10452, Note_on_c, 0, 68, 43
1, 10464, Note_on_c, 0, 59, 38
1, 10576, Note_on_c, 0, 59, 0
1, 10580, Note_on_c, 0, 63, 0
1, 10596, Note_on_c, 9, 39, 46
1, 10612, Note_on_c, 0, 53, 0
1, 10624, Note_on_c, 0, 56, 0
1, 10628, Note_on_c, 0, 68, 0
1, 10694, Note_on_c, 9, 39, 0
1, 10772, Note_on_c, 9, 40, 0
1, 10796, Note_on_c, 9, 40, 34
1, 10800, Control_c, 0, 64, 0
1, 10824, Note_on_c, 0, 62, 46
1, 10824, Note_on_c, 0, 58, 40
1, 10828, Note_on_c, 0, 67, 48
1, 10836, Note_on_c, 0, 51, 41
1, 10844, Note_on_c, 1, 39, 55
1, 10856, Note_on_c, 1, 39, 0
1, 10916, Control_c, 0, 64, 127
1, 11032, Note_on_c, 1, 37, 0
1, 11036, Note_on_c, 1, 39, 68
1, 11052, Note_on_c, 1, 53, 0
1, 11060, Note_on_c, 0, 58, 0
1, 11108, Note_on_c, 0, 51, 0
1, 11124, Note_on_c, 0, 62, 0
1, 11128, Note_on_c, 0, 67, 0
1, 11156, Note_on_c, 9, 40, 0
1, 11156, Note_on_c, 9, 44, 56
1, 11168, Note_on_c, 9, 40, 36
1, 11204, Note_on_c, 9, 44, 0
1, 11340, Note_on_c, 0, 63, 56
1, 11340, Control_c, 0, 64, 0
1, 11364, Note_on_c, 0, 58, 29
1, 11376, Note_on_c, 0, 63, 0
1, 11384, Note_on_c, 0, 58, 0
1, 11448, Control_c, 0, 64, 127
1, 11452, Note_on_c, 0, 65, 49
1, 11462, Note_on_c, 9, 35, 30
1, 11464, Note_on_c, 0, 65, 0
1, 11508, Note_on_c, 9, 35, 0
1, 11540, Note_on_c, 9, 40, 0
1, 11556, Control_c, 0, 64, 0
1, 11556, Note_on_c, 9, 40, 37
1, 11558, Note_on_c, 9, 35, 36
1, 11558, Note_on_c, 9, 59, 34
1, 11576, Note_on_c, 0, 67, 51
1, 11576, Note_on_c, 0, 58, 49
1, 11576, Note_on_c, 0, 62, 56
1, 11584, Note_on_c, 9, 35, 0
1, 11584, Note_on_c, 0, 55, 39
1, 11590, Note_on_c, 9, 59, 0
1, 11612, Control_c, 0, 64, 127
1, 11748, Note_on_c, 9, 59, 38
1, 11748, Note_on_c, 9, 35, 32
1, 11756, Note_on_c, 0, 67, 0
1, 11764, Note_on_c, 0, 55, 0
1, 11772, Note_on_c, 1, 48, 86
1, 11776, Note_on_c, 0, 58, 0
1, 11792, Note_on_c, 9, 59, 0
1, 11796, Note_on_c, 9, 35, 0
1, 11796, Note_on_c, 1, 39, 0
1, 11800, Note_on_c, 0, 62, 0
1, 11924, Note_on_c, 9, 40, 0
1, 11924, Note_on_c, 9, 46, 25
1, 11932, Note_on_c, 9, 40, 42
1, 11972, Note_on_c, 9, 46, 0
1, 11972, Note_on_c, 1, 49, 80
1, 12012, Note_on_c, 1, 48, 0
1, 12120, Control_c, 0, 64, 0
1, 12160, Note_on_c, 0, 48, 55
1, 12160, Note_on_c, 0, 68, 71
1, 12160, Note_on_c, 0, 61, 71
1, 12164, Note_on_c, 0, 58, 72
1, 12172, Control_c, 0, 64, 127
1, 12172, Note_on_c, 1, 40, 73
1, 12184, Note_on_c, 1, 49, 0
1, 12200, Note_on_c, 0, 48, 0
1, 12240, Note_on_c, 0, 68, 0
1, 12256, Note_on_c, 0, 58, 0
1, 12260, Note_on_c, 0, 61, 0
1, 12308, Note_on_c, 9, 40, 0
1, 12310, Note_on_c, 9, 40, 50
1, 12316, Note_on_c, 9, 40, 40
1, 12332, Control_c, 0, 64, 0
1, 12356, Note_on_c, 1, 40, 0
1, 12360, Note_on_c, 0, 65, 63
1, 12360, Note_on_c, 0, 63, 57
1, 12360, Note_on_c, 0, 56, 61
1, 12360, Note_on_c, 1, 41, 59
1, 12364, Note_on_c, 0, 60, 63
1, 12368, Note_on_c, 0, 41, 54
1, 12428, Control_c, 0, 64, 127
1, 12524, Note_on_c, 0, 56, 0
1, 12536, Note_on_c, 0, 41, 0
1, 12548, Note_on_c, 0, 60, 0
1, 12600, Note_on_c, 0, 65, 0
1, 12668, Note_on_c, 0, 63, 0
1, 12692, Note_on_c, 9, 40, 0
1, 12692, Note_on_c, 9, 40, 0
1, 12692, Note_on_c, 9, 44, 69
1, 12698, Note_on_c, 9, 40, 47
1, 12744, Note_on_c, 1, 33, 79
1, 12784, Note_on_c, 1, 41, 0
1, 12800, Note_on_c, 9, 44, 0
1, 12852, Note_on_c, 0, 62, 102
1, 12880, Note_on_c, 9, 39, 62
1, 12928, Note_on_c, 0, 62, 0
1, 12988, Note_on_c, 0, 63, 85
1, 13048, Note_on_c, 0, 63, 0
1, 13056, Note_on_c, 9, 39, 0
1, 13072, Note_on_c, 9, 40, 40
1, 13076, Note_on_c, 9, 40, 0
1, 13104, Note_on_c, 1, 34, 71
1, 13108, Control_c, 0, 64, 0
1, 13112, Note_on_c, 1, 33, 0
1, 13128, Note_on_c, 0, 62, 69
1, 13128, Note_on_c, 0, 65, 62
1, 13136, Note_on_c, 0, 56, 40
1, 13136, Note_on_c, 0, 46, 42
1, 13236, Control_c, 0, 64, 127
1, 13272, Note_on_c, 0, 65, 0
1, 13292, Note_on_c, 0, 62, 0
1, 13332, Note_on_c, 0, 62, 42
1, 13336, Note_on_c, 0, 65, 49
1, 13364, Note_on_c, 0, 56, 0
1, 13392, Note_on_c, 0, 62, 0
1, 13444, Note_on_c, 0, 65, 0
1, 13460, Note_on_c, 9, 40, 0
1, 13460, Note_on_c, 9, 44, 53
1, 13462, Note_on_c, 9, 40, 39
1, 13524, Note_on_c, 0, 62, 50
1, 13524, Note_on_c, 0, 67, 53
1, 13528, Note_on_c, 0, 56, 37
1, 13552, Note_on_c, 9, 44, 0
1, 13628, Note_on_c, 0, 46, 0
1, 13640, Note_on_c, 0, 62, 0
1, 13688, Note_on_c, 0, 67, 0
1, 13720, Note_on_c, 0, 46, 39
1, 13766, Note_on_c, 9, 35, 48
1, 13776, Note_on_c, 0, 46, 0
1, 13782, Note_on_c, 9, 35, 0
1, 13820, Note_on_c, 0, 56, 0
1, 13844, Note_on_c, 9, 40, 0
1, 13844, Note_on_c, 9, 59, 40
1, 13844, Note_on_c, 9, 40, 36
1, 13846, Note_on_c, 9, 35, 35
1, 13884, Control_c, 0, 64, 0
1, 13894, Note_on_c, 9, 59, 0
1, 13904, Note_on_c, 9, 35, 0
1, 13916, Note_on_c, 0, 74, 57
1, 13916, Note_on_c, 0, 65, 44
1, 13916, Note_on_c, 0, 67, 49
1, 13920, Note_on_c, 0, 46, 31
1, 13924, Note_on_c, 0, 55, 31
1, 13964, Control_c, 0, 64, 127
1, 14016, Note_on_c, 0, 46, 0
1, 14028, Note_on_c, 0, 55, 0
1, 14048, Note_on_c, 1, 46, 85
1, 14112, Note_on_c, 0, 65, 0
1, 14140, Note_on_c, 0, 67, 0
1, 14184, Note_on_c, 0, 74, 0
1, 14228, Note_on_c, 9, 40, 0
1, 14228, Note_on_c, 9, 44, 71
1, 14234, Note_on_c, 9, 40, 34
1, 14272, Note_on_c, 0, 65, 25
1, 14280, Note_on_c, 0, 60, 39
1, 14284, Note_on_c, 0, 62, 31
1, 14292, Note_on_c, 9, 44, 0
1, 14372, Note_on_c, 1, 34, 0
1, 14384, Note_on_c, 0, 91, 88
1, 14424, Note_on_c, 1, 34, 85
1, 14460, Note_on_c, 0, 91, 0
1, 14464, Note_on_c, 0, 60, 0
1, 14464, Note_on_c, 0, 62, 0
1, 14468, Note_on_c, 0, 65, 0
1, 14488, Note_on_c, 0, 86, 81
1, 14560, Note_on_c, 0, 86, 0
1, 14580, Note_on_c, 0, 84, 63
1, 14612, Note_on_c, 9, 40, 0
1, 14614, Note_on_c, 9, 40, 44
1, 14628, Note_on_c, 9, 35, 32
1, 14640, Note_on_c, 0, 84, 0
1, 14656, Note_on_c, 9, 35, 0
1, 14656, Control_c, 0, 64, 0
1, 14664, Note_on_c, 0, 58, 45
1, 14672, Note_on_c, 0, 68, 38
1, 14676, Note_on_c, 0, 89, 79
1, 14676, Note_on_c, 0, 63, 43
1, 14680, Note_on_c, 0, 60, 41
1, 14776, Note_on_c, 0, 87, 65
1, 14804, Control_c, 0, 64, 127
1, 14816, Note_on_c, 0, 89, 0
1, 14822, Note_on_c, 9, 35, 35
1, 14860, Note_on_c, 0, 87, 0
1, 14864, Note_on_c, 0, 68, 0
1, 14872, Note_on_c, 0, 84, 56
1, 14892, Note_on_c, 0, 63, 0
1, 14916, Note_on_c, 9, 35, 0
1, 14940, Note_on_c, 0, 84, 0
1, 14944, Note_on_c, 1, 46, 0
1, 14952, Note_on_c, 0, 60, 0
1, 14964, Note_on_c, 0, 80, 50
1, 14976, Note_on_c, 0, 58, 0
1, 14992, Note_on_c, 9, 40, 42
1, 14996, Note_on_c, 9, 40, 0
1, 14996, Note_on_c, 9, 46, 55
1, 15012, Note_on_c, 0, 80, 0
1, 15024, Note_on_c, 9, 46, 0
1, 15032, Note_on_c, 1, 46, 79
1, 15048, Note_on_c, 0, 56, 39
1, 15056, Control_c, 0, 64, 0
1, 15064, Note_on_c, 0, 67, 37
1, 15068, Note_on_c, 0, 79, 54
1, 15084, Note_on_c, 0, 62, 28
1, 15116, Control_c, 0, 64, 127
1, 15142, Note_on_c, 9, 35, 60
1, 15168, Note_on_c, 9, 35, 0
1, 15180, Note_on_c, 1, 46, 0
1, 15208, Note_on_c, 1, 46, 74
1, 15216, Note_on_c, 0, 79, 0
1, 15220, Note_on_c, 9, 35, 47
1, 15220, Note_on_c, 9, 59, 26
1, 15232, Note_on_c, 0, 62, 0
1, 15236, Note_on_c, 9, 59, 0
1, 15236, Note_on_c, 0, 67, 0
1, 15238, Note_on_c, 9, 35, 0
1, 15308, Note_on_c, 0, 56, 0
1, 15332, Note_on_c, 0, 77, 64
1, 15360, Note_on_c, 9, 40, 46
1, 15372, Note_on_c, 1, 46, 0
1, 15380, Note_on_c, 9, 40, 0
1, 15392, Note_on_c, 1, 45, 78
1, 15396, Note_on_c, 9, 35, 47
1, 15396, Note_on_c, 9, 59, 54
1, 15404, Note_on_c, 1, 34, 0
1, 15414, Note_on_c, 9, 59, 0
1, 15418, Note_on_c, 9, 35, 0
1, 15424, Note_on_c, 0, 77, 0
1, 15424, Control_c, 0, 64, 0
1, 15440, Note_on_c, 0, 75, 57
1, 15448, Note_on_c, 0, 63, 31
1, 15448, Note_on_c, 0, 60, 30
1, 15456, Note_on_c, 0, 55, 36
1, 15460, Note_on_c, 0, 57, 44
1, 15604, Note_on_c, 9, 59, 61
1, 15606, Note_on_c, 9, 35, 32
1, 15608, Control_c, 0, 64, 127
1, 15628, Note_on_c, 0, 55, 0
1, 15636, Note_on_c, 0, 60, 0
1, 15638, Note_on_c, 9, 59, 0
1, 15644, Note_on_c, 0, 57, 0
1, 15664, Note_on_c, 0, 63, 0
1, 15686, Note_on_c, 9, 35, 0
1, 15764, Note_on_c, 9, 40, 0
1, 15764, Note_on_c, 9, 44, 45
1, 15782, Note_on_c, 9, 40, 39
1, 15800, Note_on_c, 0, 63, 31
1, 15818, Note_on_c, 9, 44, 0
1, 15820, Note_on_c, 0, 57, 36
1, 15820, Note_on_c, 0, 60, 37
1, 15824, Note_on_c, 0, 75, 0
1, 15944, Note_on_c, 0, 60, 0
1, 15984, Note_on_c, 0, 63, 0
1, 15996, Note_on_c, 0, 57, 0
1, 16052, Note_on_c, 1, 39, 53
1, 16084, Note_on_c, 1, 39, 0
1, 16096, Note_on_c, 1, 45, 0
1, 16112, Note_on_c, 1, 37, 50
1, 16148, Note_on_c, 9, 40, 0
1, 16164, Note_on_c, 9, 40, 46
1, 16176, Note_on_c, 1, 37, 0
1, 16196, Note_on_c, 1, 38, 50
1, 16276, Control_c, 0, 64, 0
1, 16320, Note_on_c, 0, 65, 47
1, 16324, Note_on_c, 0, 87, 60
1, 16332, Note_on_c, 0, 58, 38
1, 16336, Note_on_c, 0, 87, 0
1, 16336, Note_on_c, 0, 65, 0
1, 16336, Note_on_c, 0, 60, 36
1, 16336, Note_on_c, 0, 54, 27
1, 16352, Note_on_c, 0, 60, 0
1, 16352, Note_on_c, 0, 58, 0
1, 16356, Note_on_c, 0, 54, 0
1, 16460, Control_c, 0, 64, 127
1, 16468, Note_on_c, 0, 65, 63
1, 16468, Note_on_c, 0, 89, 80
1, 16472, Note_on_c, 0, 77, 70
1, 16476, Note_on_c, 0, 54, 50
1, 16476, Note_on_c, 0, 60, 56
1, 16476, Note_on_c, 0, 84, 59
1, 16476, Note_on_c, 0, 58, 48
1, 16492, Note_on_c, 0, 84, 0
1, 16492, Note_on_c, 0, 77, 0
1, 16496, Note_on_c, 0, 58, 0
1, 16504, Note_on_c, 0, 89, 0
1, 16504, Note_on_c, 0, 65, 0
1, 16512, Note_on_c, 0, 60, 0
1, 16520, Note_on_c, 0, 54, 0
1, 16520, Control_c, 0, 64, 0
1, 16532, Note_on_c, 9, 40, 0
1, 16532, Note_on_c, 9, 44, 70
1, 16540, Note_on_c, 9, 40, 31
1, 16612, Note_on_c, 0, 89, 90
1, 16612, Note_on_c, 0, 77, 86
1, 16612, Note_on_c, 0, 84, 82
1, 16612, Note_on_c, 0, 65, 73
1, 16612, Note_on_c, 0, 54, 63
1, 16612, Note_on_c, 0, 60, 62
1, 16620, Control_c, 0, 64, 127
1, 16624, Note_on_c, 0, 58, 52
1, 16634, Note_on_c, 9, 44, 0
1, 16672, Note_on_c, 0, 89, 0
1, 16692, Note_on_c, 0, 77, 0
1, 16696, Note_on_c, 0, 58, 0
1, 16696, Note_on_c, 0, 84, 0
1, 16704, Note_on_c, 0, 65, 0
1, 16708, Note_on_c, 0, 54, 0
1, 16712, Note_on_c, 0, 60, 0
1, 16744, Note_on_c, 0, 87, 70
1, 16748, Note_on_c, 0, 75, 60
1, 16752, Note_on_c, 0, 65, 57
1, 16756, Note_on_c, 0, 82, 57
1, 16756, Note_on_c, 0, 54, 43
1, 16756, Note_on_c, 0, 60, 48
1, 16764, Note_on_c, 0, 58, 48
1, 16780, Note_on_c, 0, 58, 0
1, 16788, Note_on_c, 0, 60, 0
1, 16788, Note_on_c, 0, 75, 0
1, 16792, Note_on_c, 0, 65, 0
1, 16792, Note_on_c, 0, 82, 0
1, 16800, Note_on_c, 0, 87, 0
1, 16804, Note_on_c, 0, 54, 0
1, 16884, Note_on_c, 0, 87, 69
1, 16888, Note_on_c, 0, 75, 60
1, 16892, Note_on_c, 0, 65, 46
1, 16896, Note_on_c, 0, 87, 0
1, 16896, Note_on_c, 0, 58, 39
1, 16900, Note_on_c, 0, 75, 0
1, 16900, Note_on_c, 0, 60, 39
1, 16908, Note_on_c, 0, 65, 0
1, 16916, Note_on_c, 0, 58, 0
1, 16916, Note_on_c, 0, 60, 0
1, 16916, Note_on_c, 9, 40, 0
1, 16934, Note_on_c, 9, 40, 52
1, 16944, Note_on_c, 0, 87, 68
1, 16944, Note_on_c, 0, 75, 57
1, 16948, Note_on_c, 0, 82, 63
1, 16952, Note_on_c, 0, 54, 49
1, 16960, Note_on_c, 0, 82, 0
1, 16964, Note_on_c, 0, 58, 38
1, 16980, Note_on_c, 0, 58, 0
1, 16980, Note_on_c, 0, 87, 0
1, 16980, Note_on_c, 0, 75, 0
1, 16980, Control_c, 0, 64, 0
1, 16992, Note_on_c, 0, 54, 0
1, 17008, Note_on_c, 0, 74, 72
1, 17008, Note_on_c, 0, 82, 59
1, 17012, Note_on_c, 0, 86, 61
1, 17020, Note_on_c, 0, 58, 43
1, 17020, Note_on_c, 0, 62, 57
1, 17020, Note_on_c, 0, 53, 42
1, 17056, Note_on_c, 0, 55, 17
1, 17100, Control_c, 0, 64, 127
1, 17200, Note_on_c, 0, 55, 0
1, 17216, Note_on_c, 0, 62, 0
1, 17236, Note_on_c, 0, 58, 0
1, 17300, Note_on_c, 9, 40, 0
1, 17300, Note_on_c, 9, 44, 75
1, 17308, Note_on_c, 1, 43, 82
1, 17324, Note_on_c, 1, 38, 0
1, 17332, Note_on_c, 9, 40, 33
1, 17364, Note_on_c, 0, 86, 0
1, 17368, Note_on_c, 0, 82, 0
1, 17376, Note_on_c, 0, 74, 0
1, 17376, Note_on_c, 0, 55, 22
1, 17380, Note_on_c, 0, 62, 37
1, 17384, Note_on_c, 0, 58, 40
1, 17412, Note_on_c, 9, 44, 0
1, 17516, Note_on_c, 0, 55, 0
1, 17524, Note_on_c, 0, 53, 0
1, 17528, Note_on_c, 0, 58, 0
1, 17548, Note_on_c, 0, 62, 0
1, 17684, Note_on_c, 9, 40, 0
1, 17692, Note_on_c, 9, 40, 31
1, 17720, Control_c, 0, 64, 0
1, 17724, Note_on_c, 0, 65, 43
1, 17732, Note_on_c, 0, 61, 41
1, 17736, Note_on_c, 0, 60, 40
1, 17736, Note_on_c, 0, 56, 37
1, 17888, Note_on_c, 1, 41, 81
1, 17904, Note_on_c, 1, 43, 0
1, 17904, Control_c, 0, 64, 127
1, 17980, Note_on_c, 0, 65, 0
1, 17992, Note_on_c, 0, 60, 0
1, 18028, Note_on_c, 0, 61, 0
1, 18036, Note_on_c, 0, 72, 86
1, 18068, Note_on_c, 9, 40, 0
1, 18068, Control_c, 0, 64, 0
1, 18068, Note_on_c, 9, 44, 69
1, 18068, Note_on_c, 9, 40, 33
1, 18072, Note_on_c, 0, 56, 0
1, 18092, Note_on_c, 0, 72, 0
1, 18116, Note_on_c, 0, 61, 34
1, 18116, Note_on_c, 0, 64, 38
1, 18124, Note_on_c, 0, 69, 39
1, 18128, Note_on_c, 0, 55, 34
1, 18152, Note_on_c, 0, 69, 0
1, 18180, Note_on_c, 9, 44, 0
1, 18184, Note_on_c, 0, 70, 43
1, 18188, Note_on_c, 9, 39, 56
1, 18192, Note_on_c, 1, 41, 0
1, 18200, Note_on_c, 1, 40, 60
1, 18216, Note_on_c, 0, 70, 0
1, 18244, Note_on_c, 0, 72, 61
1, 18284, Note_on_c, 0, 72, 0
1, 18288, Note_on_c, 1, 40, 0
1, 18300, Note_on_c, 0, 73, 57
1, 18308, Note_on_c, 0, 64, 0
1, 18320, Note_on_c, 0, 73, 0
1, 18324, Note_on_c, 0, 55, 0
1, 18332, Note_on_c, 1, 33, 68
1, 18346, Note_on_c, 9, 39, 0
1, 18356, Note_on_c, 0, 61, 0
1, 18364, Note_on_c, 0, 75, 54
1, 18374, Note_on_c, 9, 40, 39
1, 18380, Note_on_c, 0, 75, 0
1, 18424, Note_on_c, 0, 77, 80
1, 18452, Note_on_c, 1, 33, 0
1, 18452, Note_on_c, 9, 40, 0
1, 18458, Note_on_c, 9, 40, 24
1, 18460, Note_on_c, 1, 32, 66
1, 18472, Note_on_c, 0, 77, 0
1, 18496, Note_on_c, 0, 60, 38
1, 18496, Note_on_c, 0, 58, 32
1, 18500, Note_on_c, 0, 63, 29
1, 18500, Note_on_c, 0, 79, 72
1, 18512, Note_on_c, 0, 53, 23
1, 18544, Note_on_c, 0, 79, 0
1, 18624, Note_on_c, 0, 82, 64
1, 18652, Note_on_c, 0, 82, 0
1, 18712, Note_on_c, 0, 79, 43
1, 18728, Note_on_c, 0, 79, 0
1, 18828, Note_on_c, 9, 40, 34
1, 18836, Note_on_c, 9, 40, 0
1, 18836, Note_on_c, 9, 40, 0
1, 18836, Note_on_c, 9, 44, 69
1, 18876, Note_on_c, 0, 75, 57
1, 18912, Note_on_c, 0, 75, 0
1, 18954, Note_on_c, 9, 44, 0
1, 19060, Control_c, 0, 64, 127
1, 19068, Note_on_c, 0, 72, 39
1, 19100, Note_on_c, 0, 72, 0
1, 19172, Control_c, 0, 64, 0
1, 19196, Note_on_c, 0, 53, 0
1, 19216, Note_on_c, 1, 44, 88
1, 19216, Note_on_c, 9, 40, 36
1, 19220, Note_on_c, 9, 40, 0
1, 19240, Note_on_c, 0, 58, 0
1, 19244, Note_on_c, 0, 63, 0
1, 19244, Note_on_c, 0, 60, 0
1, 19256, Note_on_c, 0, 72, 45
1, 19280, Note_on_c, 1, 32, 0
1, 19316, Control_c, 0, 64, 127
1, 19424, Note_on_c, 9, 39, 50
1, 19516, Note_on_c, 0, 72, 0
1, 19556, Note_on_c, 0, 75, 63
1, 19588, Control_c, 0, 64, 0
1, 19596, Note_on_c, 9, 39, 0
1, 19604, Note_on_c, 9, 40, 0
1, 19604, Note_on_c, 9, 44, 70
1, 19608, Note_on_c, 0, 75, 0
1, 19616, Note_on_c, 9, 40, 29
1, 19648, Note_on_c, 0, 74, 50
1, 19672, Note_on_c, 0, 74, 0
1, 19700, Note_on_c, 9, 44, 0
1, 19804, Note_on_c, 9, 40, 31
1, 19816, Control_c, 0, 64, 127
1, 19936, Note_on_c, 0, 72, 67
1, 19956, Note_on_c, 1, 44, 0
1, 19960, Note_on_c, 1, 38, 39
1, 19976, Note_on_c, 0, 72, 0
1, 19980, Control_c, 0, 64, 0
1, 19988, Note_on_c, 9, 40, 0
1, 19990, Note_on_c, 9, 40, 39
1, 19992, Note_on_c, 1, 38, 0
1, 20012, Note_on_c, 1, 43, 76
1, 20020, Note_on_c, 0, 55, 27
1, 20020, Note_on_c, 0, 70, 50
1, 20024, Note_on_c, 0, 58, 30
1, 20028, Note_on_c, 0, 62, 28
1, 20036, Note_on_c, 0, 57, 38
1, 20060, Note_on_c, 0, 70, 0
1, 20076, Note_on_c, 0, 72, 48
1, 20124, Note_on_c, 0, 72, 0
1, 20124, Note_on_c, 0, 70, 45
1, 20172, Note_on_c, 0, 70, 0
1, 20176, Note_on_c, 0, 69, 55
1, 20204, Note_on_c, 0, 69, 0
1, 20240, Note_on_c, 0, 70, 60
1, 20268, Note_on_c, 0, 62, 0
1, 20276, Note_on_c, 0, 70, 0
1, 20324, Note_on_c, 0, 58, 0
1, 20352, Note_on_c, 0, 74, 67
1, 20372, Note_on_c, 9, 40, 0
1, 20372, Note_on_c, 9, 40, 0
1, 20372, Note_on_c, 9, 44, 62
1, 20384, Note_on_c, 0, 74, 0
1, 20400, Note_on_c, 9, 40, 34
1, 20422, Note_on_c, 9, 37, 25
1, 20438, Note_on_c, 9, 37, 0
1, 20444, Note_on_c, 0, 78, 68
1, 20456, Note_on_c, 0, 78, 0
1, 20458, Note_on_c, 9, 44, 0
1, 20544, Note_on_c, 0, 81, 64
1, 20564, Note_on_c, 0, 81, 0
1, 20592, Note_on_c, 0, 57, 0
1, 20616, Note_on_c, 0, 55, 0
1, 20632, Note_on_c, 0, 82, 60
1, 20644, Note_on_c, 0, 82, 0
1, 20728, Note_on_c, 0, 84, 57
1, 20756, Note_on_c, 9, 40, 0
1, 20760, Note_on_c, 0, 84, 0
1, 20772, Note_on_c, 9, 40, 34
1, 20788, Note_on_c, 1, 36, 68
1, 20800, Note_on_c, 1, 43, 0
1, 20820, Note_on_c, 0, 63, 31
1, 20820, Note_on_c, 0, 73, 48
1, 20824, Note_on_c, 0, 85, 49
1, 20828, Note_on_c, 0, 58, 39
1, 20836, Note_on_c, 0, 52, 33
1, 20836, Control_c, 0, 64, 127
1, 20916, Note_on_c, 0, 73, 0
1, 20920, Note_on_c, 0, 85, 0
1, 20928, Note_on_c, 0, 63, 0
1, 20928, Note_on_c, 0, 52, 0
1, 20936, Note_on_c, 0, 58, 0
1, 20964, Note_on_c, 0, 75, 41
1, 20964, Note_on_c, 0, 87, 54
1, 20968, Note_on_c, 0, 63, 32
1, 20988, Note_on_c, 0, 58, 30
1, 21000, Note_on_c, 0, 87, 0
1, 21012, Note_on_c, 0, 63, 0
1, 21024, Note_on_c, 0, 75, 0
1, 21060, Note_on_c, 0, 58, 0
1, 21140, Note_on_c, 9, 40, 0
1, 21140, Note_on_c, 9, 44, 64
1, 21140, Note_on_c, 9, 40, 49
1, 21160, Control_c, 0, 64, 0
1, 21200, Note_on_c, 0, 84, 50
1, 21200, Note_on_c, 0, 63, 31
1, 21204, Control_c, 0, 64, 127
1, 21204, Note_on_c, 0, 72, 36
1, 21212, Note_on_c, 9, 44, 0
1, 21212, Note_on_c, 0, 58, 37
1, 21276, Note_on_c, 1, 34, 54
1, 21344, Note_on_c, 1, 34, 0
1, 21352, Note_on_c, 0, 84, 0
1, 21352, Note_on_c, 0, 63, 0
1, 21356, Note_on_c, 0, 58, 0
1, 21368, Note_on_c, 1, 36, 0
1, 21380, Note_on_c, 1, 33, 64
1, 21392, Note_on_c, 0, 72, 0
1, 21494, Note_on_c, 9, 35, 37
1, 21514, Note_on_c, 9, 40, 40
1, 21516, Note_on_c, 1, 33, 0
1, 21520, Note_on_c, 9, 35, 0
1, 21520, Note_on_c, 1, 32, 63
1, 21524, Note_on_c, 9, 40, 0
1, 21580, Note_on_c, 9, 35, 32
1, 21648, Note_on_c, 9, 35, 0
1, 21764, Note_on_c, 9, 59, 60
1, 21770, Note_on_c, 9, 35, 35
1, 21780, Note_on_c, 9, 59, 0
1, 21820, Note_on_c, 9, 35, 0
1, 21908, Note_on_c, 9, 40, 0
1, 21908, Note_on_c, 9, 44, 55
1, 21920, Control_c, 0, 64, 0
1, 21924, Note_on_c, 9, 40, 40
1, 21942, Note_on_c, 9, 44, 0
1, 21968, Note_on_c, 0, 63, 57
1, 21972, Note_on_c, 0, 72, 52
1, 21972, Note_on_c, 0, 56, 47
1, 21972, Note_on_c, 0, 65, 56
1, 21976, Note_on_c, 0, 68, 56
1, 22016, Control_c, 0, 64, 127
1, 22052, Note_on_c, 0, 65, 0
1, 22052, Note_on_c, 0, 72, 0
1, 22052, Note_on_c, 0, 56, 0
1, 22052, Note_on_c, 1, 34, 52
1, 22056, Note_on_c, 0, 63, 0
1, 22056, Note_on_c, 0, 68, 0
1, 22068, Control_c, 0, 64, 0
1, 22116, Note_on_c, 0, 63, 61
1, 22120, Note_on_c, 0, 72, 56
1, 22124, Note_on_c, 0, 65, 56
1, 22124, Note_on_c, 0, 68, 48
1, 22128, Note_on_c, 0, 56, 54
1, 22132, Control_c, 0, 64, 127
1, 22180, Note_on_c, 0, 56, 0
1, 22188, Note_on_c, 0, 63, 0
1, 22192, Note_on_c, 0, 72, 0
1, 22204, Note_on_c, 0, 65, 0
1, 22208, Note_on_c, 1, 32, 0
1, 22212, Note_on_c, 0, 68, 0
1, 22212, Note_on_c, 1, 35, 49
1, 22216, Note_on_c, 1, 34, 0
1, 22248, Note_on_c, 0, 70, 63
1, 22248, Note_on_c, 0, 63, 57
1, 22252, Note_on_c, 0, 56, 43
1, 22256, Note_on_c, 1, 35, 0
1, 22272, Note_on_c, 0, 56, 0
1, 22276, Note_on_c, 9, 40, 49
1, 22280, Note_on_c, 1, 36, 57
1, 22284, Note_on_c, 0, 63, 0
1, 22288, Note_on_c, 0, 70, 0
1, 22292, Note_on_c, 9, 40, 0
1, 22344, Note_on_c, 1, 37, 69
1, 22352, Note_on_c, 1, 36, 0
1, 22352, Control_c, 0, 64, 0
1, 22376, Note_on_c, 0, 68, 62
1, 22380, Note_on_c, 0, 56, 45
1, 22384, Note_on_c, 0, 59, 46
1, 22384, Note_on_c, 0, 63, 52
1, 22468, Control_c, 0, 64, 127
1, 22652, Note_on_c, 9, 39, 68
1, 22656, Note_on_c, 0, 59, 0
1, 22668, Note_on_c, 0, 63, 0
1, 22672, Note_on_c, 0, 56, 0
1, 22676, Note_on_c, 9, 40, 0
1, 22676, Note_on_c, 9, 44, 74
1, 22742, Note_on_c, 9, 44, 0
1, 22748, Note_on_c, 0, 56, 35
1, 22752, Note_on_c, 0, 59, 39
1, 22752, Note_on_c, 0, 63, 39
1, 22828, Note_on_c, 9, 39, 0
1, 22858, Note_on_c, 9, 40, 36
1, 22896, Note_on_c, 0, 56, 0
1, 22904, Note_on_c, 0, 59, 0
1, 22912, Note_on_c, 0, 68, 0
1, 22988, Note_on_c, 0, 63, 0
1, 23052, Note_on_c, 9, 40, 40
1, 23056, Control_c, 0, 64, 0
1, 23060, Note_on_c, 9, 40, 0
1, 23064, Note_on_c, 0, 54, 31
1, 23064, Note_on_c, 1, 39, 69
1, 23076, Note_on_c, 1, 37, 0
1, 23084, Note_on_c, 0, 58, 46
1, 23088, Note_on_c, 0, 54, 0
1, 23088, Note_on_c, 0, 55, 43
1, 23092, Note_on_c, 0, 67, 46
1, 23092, Note_on_c, 0, 62, 48
1, 23136, Control_c, 0, 64, 127
1, 23204, Note_on_c, 0, 58, 0
1, 23236, Note_on_c, 0, 62, 0
1, 23244, Note_on_c, 0, 55, 0
1, 23244, Note_on_c, 0, 67, 0
1, 23268, Note_on_c, 9, 40, 44
1, 23444, Note_on_c, 9, 40, 0
1, 23444, Note_on_c, 9, 44, 75
1, 23444, Note_on_c, 9, 44, 70
1, 23444, Note_on_c, 9, 44, 58
1, 23484, Note_on_c, 9, 44, 0
1, 23504, Note_on_c, 9, 44, 0
1, 23564, Control_c, 0, 64, 0
1, 23592, Note_on_c, 0, 87, 62
1, 23594, Note_on_c, 9, 44, 0
1, 23596, Note_on_c, 0, 67, 42
1, 23596, Note_on_c, 0, 63, 40
1, 23596, Note_on_c, 0, 75, 41
1, 23600, Note_on_c, 0, 82, 48
1, 23608, Note_on_c, 0, 62, 31
1, 23608, Control_c, 0, 64, 127
1, 23616, Note_on_c, 0, 82, 0
1, 23620, Note_on_c, 0, 75, 0
1, 23620, Note_on_c, 0, 58, 22
1, 23624, Note_on_c, 0, 67, 0
1, 23628, Note_on_c, 0, 62, 0
1, 23632, Note_on_c, 0, 63, 0
1, 23636, Note_on_c, 0, 87, 0
1, 23640, Note_on_c, 0, 58, 0
1, 23740, Note_on_c, 0, 84, 58
1, 23740, Note_on_c, 0, 89, 59
1, 23744, Note_on_c, 0, 77, 56
1, 23744, Note_on_c, 0, 67, 42
1, 23748, Note_on_c, 0, 58, 39
1, 23748, Note_on_c, 0, 63, 41
1, 23752, Note_on_c, 0, 62, 36
1, 23768, Note_on_c, 0, 67, 0
1, 23772, Note_on_c, 0, 62, 0
1, 23776, Note_on_c, 0, 63, 0
1, 23784, Note_on_c, 0, 77, 0
1, 23788, Note_on_c, 0, 84, 0
1, 23796, Note_on_c, 0, 58, 0
1, 23812, Note_on_c, 0, 89, 0
1, 23828, Note_on_c, 9, 40, 0
1, 23836, Note_on_c, 1, 48, 88
1, 23844, Note_on_c, 9, 40, 49
1, 23868, Note_on_c, 1, 39, 0
1, 23868, Control_c, 0, 64, 0
1, 23976, Note_on_c, 0, 91, 64
1, 23980, Note_on_c, 0, 79, 54
1, 23980, Note_on_c, 0, 58, 43
1, 23980, Note_on_c, 0, 62, 49
1, 23980, Note_on_c, 0, 86, 46
1, 23984, Note_on_c, 0, 57, 43
1, 23992, Note_on_c, 0, 79, 0
1, 23996, Note_on_c, 0, 86, 0
1, 23996, Note_on_c, 0, 53, 27
1, 24000, Note_on_c, 0, 57, 0
1, 24000, Note_on_c, 0, 62, 0
1, 24008, Note_on_c, 0, 91, 0
1, 24016, Note_on_c, 0, 58, 0
1, 24016, Note_on_c, 0, 53, 0
1, 24088, Control_c, 0, 64, 127
1, 24112, Note_on_c, 0, 91, 72
1, 24112, Note_on_c, 0, 62, 49
1, 24112, Note_on_c, 0, 57, 42
1, 24112, Note_on_c, 0, 58, 50
1, 24116, Note_on_c, 0, 79, 63
1, 24116, Note_on_c, 0, 86, 63
1, 24116, Note_on_c, 0, 53, 44
1, 24212, Note_on_c, 9, 40, 0
1, 24212, Note_on_c, 9, 44, 54
1, 24212, Note_on_c, 9, 44, 55
1, 24232, Note_on_c, 1, 55, 79
1, 24240, Note_on_c, 9, 40, 39
1, 24252, Note_on_c, 0, 62, 0
1, 24256, Note_on_c, 0, 79, 0
1, 24262, Note_on_c, 9, 44, 0
1, 24264, Note_on_c, 0, 86, 0
1, 24264, Note_on_c, 0, 53, 0
1, 24268, Note_on_c, 0, 57, 0
1, 24268, Note_on_c, 0, 58, 0
1, 24272, Note_on_c, 0, 91, 0
1, 24384, Note_on_c, 9, 44, 0
1, 24544, Note_on_c, 0, 63, 66
1, 24544, Note_on_c, 0, 58, 58
1, 24544, Note_on_c, 0, 92, 81
1, 24548, Note_on_c, 0, 80, 80
1, 24548, Note_on_c, 0, 87, 70
1, 24560, Note_on_c, 0, 58, 0
1, 24564, Note_on_c, 0, 87, 0
1, 24584, Note_on_c, 0, 92, 0
1, 24584, Note_on_c, 0, 63, 0
1, 24584, Note_on_c, 0, 80, 0
1, 24596, Note_on_c, 9, 40, 0
1, 24596, Note_on_c, 1, 48, 0
1, 24620, Note_on_c, 1, 53, 76
1, 24628, Note_on_c, 1, 55, 0
1, 24628, Note_on_c, 9, 40, 40
1, 24644, Control_c, 0, 64, 0
1, 24660, Note_on_c, 0, 56, 56
1, 24664, Note_on_c, 0, 89, 75
1, 24664, Note_on_c, 0, 77, 72
1, 24668, Note_on_c, 0, 60, 50
1, 24668, Note_on_c, 0, 63, 52
1, 24672, Note_on_c, 0, 84, 68
1, 24676, Note_on_c, 0, 67, 40
1, 24732, Control_c, 0, 64, 127
1, 24792, Note_on_c, 0, 60, 0
1, 24792, Note_on_c, 0, 77, 0
1, 24800, Note_on_c, 0, 84, 0
1, 24804, Note_on_c, 0, 67, 0
1, 24804, Note_on_c, 0, 89, 0
1, 24808, Note_on_c, 0, 63, 0
1, 24816, Note_on_c, 0, 56, 0
1, 24836, Control_c, 0, 64, 0
1, 24856, Note_on_c, 0, 56, 51
1, 24856, Note_on_c, 0, 89, 61
1, 24856, Note_on_c, 0, 67, 53
1, 24860, Note_on_c, 0, 63, 46
1, 24860, Note_on_c, 0, 77, 56
1, 24860, Note_on_c, 0, 84, 63
1, 24868, Note_on_c, 0, 60, 54
1, 24916, Control_c, 0, 64, 127
1, 24980, Note_on_c, 0, 77, 0
1, 24980, Note_on_c, 9, 40, 0
1, 24980, Note_on_c, 9, 44, 56
1, 24980, Note_on_c, 9, 44, 60
1, 24984, Note_on_c, 0, 60, 0
1, 24984, Note_on_c, 0, 67, 0
1, 24992, Note_on_c, 0, 56, 0
1, 25000, Note_on_c, 0, 84, 0
1, 25000, Note_on_c, 0, 63, 0
1, 25008, Note_on_c, 0, 89, 0
1, 25014, Note_on_c, 9, 40, 39
1, 25028, Note_on_c, 9, 44, 0
1, 25028, Control_c, 0, 64, 0
1, 25040, Note_on_c, 9, 35, 29
1, 25056, Note_on_c, 9, 35, 0
1, 25060, Note_on_c, 0, 89, 55
1, 25064, Note_on_c, 0, 77, 48
1, 25064, Note_on_c, 0, 63, 44
1, 25064, Note_on_c, 0, 84, 53
1, 25068, Note_on_c, 0, 67, 39
1, 25072, Note_on_c, 0, 56, 35
1, 25076, Note_on_c, 0, 60, 49
1, 25080, Control_c, 0, 64, 127
1, 25108, Note_on_c, 9, 44, 0
1, 25148, Note_on_c, 0, 77, 0
1, 25160, Note_on_c, 0, 89, 0
1, 25160, Note_on_c, 0, 84, 0
1, 25164, Note_on_c, 0, 56, 0
1, 25168, Note_on_c, 0, 67, 0
1, 25172, Note_on_c, 0, 60, 0
1, 25188, Note_on_c, 0, 63, 0
1, 25210, Note_on_c, 9, 40, 42
1, 25216, Note_on_c, 1, 41, 76
1, 25248, Note_on_c, 0, 89, 52
1, 25252, Note_on_c, 0, 84, 55
1, 25256, Note_on_c, 0, 67, 38
1, 25256, Note_on_c, 0, 63, 41
1, 25260, Note_on_c, 0, 56, 33
1, 25260, Note_on_c, 0, 77, 36
1, 25268, Note_on_c, 0, 60, 39
1, 25292, Note_on_c, 0, 77, 0
1, 25320, Note_on_c, 0, 56, 0
1, 25320, Note_on_c, 0, 67, 0
1, 25320, Note_on_c, 0, 89, 0
1, 25324, Note_on_c, 0, 84, 0
1, 25328, Note_on_c, 0, 63, 0
1, 25344, Note_on_c, 0, 60, 0
1, 25364, Note_on_c, 9, 40, 0
1, 25396, Note_on_c, 9, 40, 44
1, 25404, Note_on_c, 1, 34, 78
1, 25412, Note_on_c, 1, 41, 0
1, 25412, Note_on_c, 1, 53, 0
1, 25432, Control_c, 0, 64, 0
1, 25444, Note_on_c, 0, 91, 47
1, 25444, Note_on_c, 0, 67, 55
1, 25448, Note_on_c, 0, 56, 46
1, 25452, Note_on_c, 0, 79, 38
1, 25452, Note_on_c, 0, 86, 52
1, 25456, Note_on_c, 0, 62, 47
1, 25516, Control_c, 0, 64, 127
1, 25536, Note_on_c, 0, 79, 0
1, 25540, Note_on_c, 0, 62, 0
1, 25544, Note_on_c, 0, 86, 0
1, 25552, Note_on_c, 0, 91, 0
1, 25552, Note_on_c, 0, 67, 0
1, 25556, Note_on_c, 0, 56, 0
1, 25588, Note_on_c, 1, 34, 0
1, 25594, Note_on_c, 9, 35, 27
1, 25604, Control_c, 0, 64, 0
1, 25608, Note_on_c, 1, 34, 92
1, 25632, Note_on_c, 0, 91, 51
1, 25632, Control_c, 0, 64, 127
1, 25640, Note_on_c, 0, 56, 42
1, 25640, Note_on_c, 0, 67, 48
1, 25644, Note_on_c, 0, 79, 36
1, 25648, Note_on_c, 0, 86, 45
1, 25652, Note_on_c, 0, 62, 44
1, 25712, Note_on_c, 0, 62, 0
1, 25712, Note_on_c, 0, 86, 0
1, 25712, Note_on_c, 9, 35, 0
1, 25712, Note_on_c, 0, 79, 0
1, 25728, Note_on_c, 0, 56, 0
1, 25732, Note_on_c, 0, 91, 0
1, 25732, Note_on_c, 0, 67, 0
1, 25748, Note_on_c, 9, 40, 0
1, 25748, Note_on_c, 9, 40, 0
1, 25748, Note_on_c, 9, 44, 51
1, 25748, Note_on_c, 9, 44, 62
1, 25756, Note_on_c, 9, 40, 36
1, 25780, Note_on_c, 9, 44, 0
1, 25792, Control_c, 0, 64, 24
1, 25792, Control_c, 0, 64, 0
1, 25828, Note_on_c, 0, 91, 52
1, 25832, Note_on_c, 0, 56, 45
1, 25836, Note_on_c, 0, 67, 38
1, 25836, Control_c, 0, 64, 127
1, 25840, Note_on_c, 0, 79, 31
1, 25844, Note_on_c, 0, 86, 42
1, 25848, Note_on_c, 0, 62, 40
1, 25852, Note_on_c, 9, 44, 0
1, 25864, Note_on_c, 0, 79, 0
1, 25876, Note_on_c, 0, 86, 0
1, 25900, Note_on_c, 0, 91, 0
1, 25996, Note_on_c, 0, 62, 0
1, 26000, Note_on_c, 0, 67, 0
1, 26108, Note_on_c, 0, 56, 0
1, 26124, Note_on_c, 0, 98, 115
1, 26132, Note_on_c, 9, 40, 0
1, 26148, Note_on_c, 9, 40, 39
1, 26208, Note_on_c, 0, 98, 0
1, 26216, Control_c, 0, 64, 0
1, 26216, Note_on_c, 0, 55, 46
1, 26220, Note_on_c, 0, 62, 44
1, 26220, Note_on_c, 0, 94, 81
1, 26220, Note_on_c, 0, 65, 40
1, 26220, Note_on_c, 0, 60, 52
1, 26304, Note_on_c, 0, 94, 0
1, 26320, Note_on_c, 0, 91, 69
1, 26332, Control_c, 0, 64, 127
1, 26380, Note_on_c, 0, 91, 0
1, 26408, Note_on_c, 0, 86, 56
1, 26432, Note_on_c, 0, 65, 0
1, 26444, Note_on_c, 0, 62, 0
1, 26444, Note_on_c, 0, 60, 0
1, 26452, Note_on_c, 0, 86, 0
1, 26516, Note_on_c, 9, 40, 0
1, 26516, Note_on_c, 9, 44, 58
1, 26516, Note_on_c, 9, 44, 60
1, 26544, Note_on_c, 9, 44, 0
1, 26550, Note_on_c, 9, 40, 36
1, 26580, Note_on_c, 0, 82, 56
1, 26588, Note_on_c, 0, 65, 29
1, 26592, Note_on_c, 0, 62, 33
1, 26592, Note_on_c, 0, 60, 33
1, 26620, Note_on_c, 9, 44, 0
1, 26732, Note_on_c, 1, 46, 62
1, 26748, Note_on_c, 9, 35, 28
1, 26764, Note_on_c, 0, 60, 0
1, 26764, Note_on_c, 0, 62, 0
1, 26764, Note_on_c, 0, 55, 0
1, 26780, Note_on_c, 9, 35, 0
1, 26780, Note_on_c, 0, 65, 0
1, 26892, Note_on_c, 1, 46, 0
1, 26900, Note_on_c, 9, 40, 0
1, 26908, Note_on_c, 9, 40, 42
1, 26920, Note_on_c, 1, 46, 57
1, 27084, Note_on_c, 1, 46, 0
1, 27108, Control_c, 0, 64, 0
1, 27112, Note_on_c, 1, 46, 68
1, 27120, Note_on_c, 0, 68, 40
1, 27124, Note_on_c, 9, 39, 36
1, 27132, Note_on_c, 0, 63, 43
1, 27140, Note_on_c, 0, 58, 36
1, 27148, Note_on_c, 0, 60, 36
1, 27284, Note_on_c, 1, 46, 0
1, 27284, Note_on_c, 9, 40, 0
1, 27284, Note_on_c, 9, 46, 44
1, 27284, Note_on_c, 9, 46, 34
1, 27286, Note_on_c, 9, 39, 0
1, 27300, Note_on_c, 0, 82, 0
1, 27304, Note_on_c, 0, 79, 52
1, 27306, Note_on_c, 9, 46, 0
1, 27306, Note_on_c, 1, 46, 57
1, 27306, Note_on_c, 9, 40, 36
1, 27320, Control_c, 0, 64, 127
1, 27328, Control_c, 0, 64, 0
1, 27396, Note_on_c, 9, 46, 0
1, 27420, Note_on_c, 0, 79, 0
1, 27428, Note_on_c, 0, 80, 57
1, 27468, Note_on_c, 0, 80, 0
1, 27492, Note_on_c, 0, 68, 0
1, 27504, Note_on_c, 9, 39, 35
1, 27512, Note_on_c, 0, 81, 47
1, 27544, Control_c, 0, 64, 127
1, 27548, Note_on_c, 0, 60, 0
1, 27572, Note_on_c, 0, 58, 0
1, 27584, Note_on_c, 0, 81, 0
1, 27600, Note_on_c, 9, 35, 31
1, 27604, Note_on_c, 0, 63, 0
1, 27610, Note_on_c, 9, 39, 0
1, 27624, Note_on_c, 0, 82, 56
1, 27628, Note_on_c, 9, 35, 0
1, 27648, Control_c, 0, 64, 0
1, 27654, Note_on_c, 9, 40, 24
1, 27668, Note_on_c, 9, 40, 0
1, 27680, Note_on_c, 0, 82, 0
1, 27692, Note_on_c, 9, 35, 37
1, 27700, Note_on_c, 0, 65, 31
1, 27700, Note_on_c, 0, 62, 36
1, 27700, Note_on_c, 9, 59, 40
1, 27702, Note_on_c, 9, 40, 34
1, 27704, Note_on_c, 1, 46, 0
1, 27704, Note_on_c, 1, 39, 57
1, 27708, Note_on_c, 0, 55, 33
1, 27708, Note_on_c, 0, 60, 37
1, 27708, Note_on_c, 0, 79, 45
1, 27736, Note_on_c, 1, 34, 0
1, 27764, Note_on_c, 0, 79, 0
1, 27780, Note_on_c, 9, 35, 0
1, 27788, Note_on_c, 9, 59, 0
1, 27888, Note_on_c, 9, 35, 37
1, 27892, Note_on_c, 9, 59, 31
1, 27896, Note_on_c, 0, 82, 54
1, 27932, Note_on_c, 0, 82, 0
1, 27964, Note_on_c, 9, 59, 0
1, 27968, Note_on_c, 9, 35, 0
1, 28008, Note_on_c, 0, 82, 57
1, 28048, Note_on_c, 0, 82, 0
1, 28052, Note_on_c, 9, 40, 0
1, 28052, Note_on_c, 9, 40, 0
1, 28052, Note_on_c, 9, 44, 79
1, 28052, Note_on_c, 9, 44, 34
1, 28054, Note_on_c, 9, 40, 31
1, 28092, Note_on_c, 0, 79, 39
1, 28112, Note_on_c, 0, 79, 0
1, 28160, Note_on_c, 9, 44, 0
1, 28160, Note_on_c, 9, 44, 0
1, 28244, Note_on_c, 1, 46, 72
1, 28260, Note_on_c, 0, 85, 54
1, 28264, Note_on_c, 0, 73, 58
1, 28324, Note_on_c, 0, 85, 0
1, 28328, Note_on_c, 0, 73, 0
1, 28328, Note_on_c, 0, 60, 0
1, 28332, Note_on_c, 0, 62, 0
1, 28344, Note_on_c, 0, 65, 0
1, 28344, Note_on_c, 0, 74, 46
1, 28376, Note_on_c, 0, 74, 0
1, 28412, Note_on_c, 1, 46, 0
1, 28428, Note_on_c, 9, 40, 34
1, 28436, Note_on_c, 9, 40, 0
1, 28440, Note_on_c, 1, 46, 67
1, 28452, Note_on_c, 0, 70, 54
1, 28456, Note_on_c, 0, 82, 49
1, 28456, Note_on_c, 0, 65, 35
1, 28464, Note_on_c, 0, 60, 29
1, 28464, Note_on_c, 0, 62, 29
1, 28600, Note_on_c, 0, 82, 0
1, 28616, Note_on_c, 1, 46, 0
1, 28636, Note_on_c, 1, 46, 65
1, 28644, Note_on_c, 0, 79, 50
1, 28660, Note_on_c, 0, 70, 0
1, 28660, Control_c, 0, 64, 127
1, 28680, Note_on_c, 0, 60, 0
1, 28684, Note_on_c, 0, 65, 0
1, 28688, Note_on_c, 1, 39, 0
1, 28688, Note_on_c, 0, 62, 0
1, 28704, Note_on_c, 0, 79, 0
1, 28796, Note_on_c, 9, 40, 42
1, 28820, Note_on_c, 9, 40, 0
1, 28820, Note_on_c, 9, 44, 55
1, 28820, Note_on_c, 9, 44, 50
1, 28824, Note_on_c, 1, 34, 65
1, 28832, Note_on_c, 0, 65, 39
1, 28836, Note_on_c, 0, 79, 56
1, 28840, Note_on_c, 0, 62, 35
1, 28844, Note_on_c, 0, 60, 33
1, 28874, Note_on_c, 9, 44, 0
1, 28928, Note_on_c, 9, 44, 0
1, 28960, Note_on_c, 0, 55, 0
1, 28976, Note_on_c, 0, 60, 0
1, 28984, Note_on_c, 0, 62, 0
1, 28996, Note_on_c, 0, 65, 0
1, 29116, Note_on_c, 9, 39, 53
1, 29158, Note_on_c, 9, 39, 0
1, 29190, Note_on_c, 9, 40, 47
1, 29196, Note_on_c, 0, 79, 0
1, 29196, Control_c, 0, 64, 0
1, 29200, Note_on_c, 1, 46, 0
1, 29204, Note_on_c, 9, 40, 0
1, 29204, Note_on_c, 0, 68, 39
1, 29212, Note_on_c, 0, 58, 36
1, 29212, Note_on_c, 0, 63, 47
1, 29212, Note_on_c, 1, 39, 79
1, 29220, Note_on_c, 0, 60, 42
1, 29224, Note_on_c, 1, 34, 0
1, 29392, Note_on_c, 9, 40, 36
1, 29420, Note_on_c, 0, 80, 68
1, 29516, Note_on_c, 0, 80, 0
1, 29532, Note_on_c, 0, 82, 92
1, 29588, Note_on_c, 9, 40, 0
1, 29588, Note_on_c, 9, 40, 0
1, 29588, Note_on_c, 9, 44, 57
1, 29588, Note_on_c, 9, 44, 44
1, 29600, Note_on_c, 0, 82, 0
1, 29622, Note_on_c, 9, 44, 0
1, 29628, Note_on_c, 0, 80, 44
1, 29708, Note_on_c, 0, 80, 0
1, 29708, Note_on_c, 0, 68, 0
1, 29708, Note_on_c, 9, 44, 0
1, 29712, Note_on_c, 0, 60, 0
1, 29728, Note_on_c, 0, 82, 64
1, 29760, Note_on_c, 0, 80, 58
1, 29772, Note_on_c, 1, 48, 75
1, 29780, Note_on_c, 9, 40, 36
1, 29788, Note_on_c, 0, 82, 0
1, 29804, Note_on_c, 0, 58, 0
1, 29816, Note_on_c, 0, 80, 0
1, 29824, Note_on_c, 0, 79, 41
1, 29856, Note_on_c, 0, 63, 0
1, 29904, Note_on_c, 0, 79, 0
1, 29904, Note_on_c, 1, 39, 0
1, 29962, Note_on_c, 9, 40, 49
1, 29980, Note_on_c, 1, 39, 48
1, 29984, Note_on_c, 0, 68, 42
1, 29984, Note_on_c, 0, 80, 50
1, 29992, Note_on_c, 0, 63, 43
1, 30004, Note_on_c, 0, 58, 28
1, 30024, Note_on_c, 0, 60, 25
1, 30128, Note_on_c, 1, 39, 0
1, 30164, Note_on_c, 1, 39, 57
1, 30176, Note_on_c, 0, 82, 51
1, 30180, Note_on_c, 0, 80, 0
1, 30188, Note_on_c, 9, 39, 32
1, 30340, Note_on_c, 1, 39, 0
1, 30346, Note_on_c, 9, 39, 0
1, 30348, Note_on_c, 0, 82, 0
1, 30356, Note_on_c, 9, 40, 0
1, 30356, Note_on_c, 9, 40, 0
1, 30356, Note_on_c, 9, 44, 58
1, 30356, Note_on_c, 9, 44, 48
1, 30360, Control_c, 0, 64, 127
1, 30360, Note_on_c, 0, 79, 43
1, 30364, Note_on_c, 1, 39, 60
1, 30374, Note_on_c, 9, 40, 34
1, 30388, Note_on_c, 0, 79, 0
1, 30392, Note_on_c, 0, 68, 0
1, 30396, Note_on_c, 0, 58, 0
1, 30400, Note_on_c, 0, 60, 0
1, 30420, Note_on_c, 0, 63, 0
1, 30436, Note_on_c, 9, 44, 0
1, 30454, Note_on_c, 9, 44, 0
1, 30476, Note_on_c, 0, 80, 82
1, 30484, Note_on_c, 0, 68, 55
1, 30488, Note_on_c, 0, 58, 45
1, 30492, Note_on_c, 0, 63, 37
1, 30532, Note_on_c, 0, 68, 0
1, 30544, Note_on_c, 0, 80, 0
1, 30552, Note_on_c, 0, 63, 0
1, 30572, Note_on_c, 0, 82, 81
1, 30580, Note_on_c, 0, 58, 0
1, 30648, Note_on_c, 0, 82, 0
1, 30676, Note_on_c, 9, 35, 31
1, 30680, Note_on_c, 0, 84, 81
1, 30694, Note_on_c, 9, 35, 0
1, 30724, Note_on_c, 1, 39, 0
1, 30740, Note_on_c, 9, 40, 0
1, 30740, Note_on_c, 0, 84, 0
1, 30746, Note_on_c, 9, 40, 34
1, 30748, Note_on_c, 1, 39, 75
1, 30752, Note_on_c, 1, 48, 0
1, 30752, Control_c, 0, 64, 0
1, 30756, Note_on_c, 9, 57, 29
1, 30756, Note_on_c, 9, 35, 24
1, 30784, Note_on_c, 9, 57, 0
1, 30784, Note_on_c, 0, 65, 36
1, 30784, Note_on_c, 0, 58, 41
1, 30784, Note_on_c, 0, 55, 38
1, 30788, Note_on_c, 9, 35, 0
1, 30792, Note_on_c, 0, 62, 39
1, 30796, Note_on_c, 0, 84, 54
1, 30836, Control_c, 0, 64, 127
1, 30928, Note_on_c, 0, 84, 0
1, 30964, Note_on_c, 0, 72, 42
1, 30980, Note_on_c, 0, 65, 0
1, 31008, Note_on_c, 0, 58, 0
1, 31008, Note_on_c, 0, 62, 0
1, 31024, Note_on_c, 0, 72, 0
1, 31120, Note_on_c, 9, 40, 42
1, 31124, Note_on_c, 9, 40, 0
1, 31124, Note_on_c, 9, 44, 73
1, 31160, Note_on_c, 0, 65, 30
1, 31172, Note_on_c, 0, 58, 26
1, 31176, Note_on_c, 0, 72, 31
1, 31180, Note_on_c, 0, 62, 25
1, 31220, Note_on_c, 0, 72, 0
1, 31248, Note_on_c, 0, 62, 0
1, 31260, Note_on_c, 0, 65, 0
1, 31264, Note_on_c, 0, 58, 0
1, 31292, Note_on_c, 0, 55, 0
1, 31316, Note_on_c, 1, 46, 63
1, 31348, Note_on_c, 0, 84, 54
1, 31396, Note_on_c, 0, 84, 0
1, 31508, Note_on_c, 9, 40, 0
1, 31520, Note_on_c, 9, 40, 36
1, 31536, Note_on_c, 0, 84, 52
1, 31546, Note_on_c, 9, 44, 0
1, 31640, Note_on_c, 1, 46, 0
1, 31708, Note_on_c, 1, 46, 63
1, 31856, Note_on_c, 1, 46, 0
1, 31876, Note_on_c, 0, 84, 0
1, 31892, Note_on_c, 9, 40, 0
1, 31892, Note_on_c, 9, 44, 77
1, 31896, Note_on_c, 1, 46, 54
1, 31914, Note_on_c, 9, 40, 44
1, 31928, Note_on_c, 0, 65, 28
1, 31928, Note_on_c, 0, 58, 38
1, 31928, Note_on_c, 0, 55, 34
1, 31932, Note_on_c, 0, 62, 39
1, 32020, Note_on_c, 0, 62, 0
1, 32024, Note_on_c, 0, 55, 0
1, 32024, Note_on_c, 0, 65, 0
1, 32040, Note_on_c, 0, 58, 0
1, 32044, Note_on_c, 1, 39, 0
1, 32088, Note_on_c, 1, 39, 61
1, 32264, Note_on_c, 1, 39, 0
1, 32272, Control_c, 0, 64, 0
1, 32276, Note_on_c, 9, 40, 0
1, 32288, Note_on_c, 0, 94, 82
1, 32288, Note_on_c, 1, 39, 77
1, 32292, Note_on_c, 1, 46, 0
1, 32292, Note_on_c, 0, 63, 44
1, 32292, Note_on_c, 0, 67, 47
1, 32292, Note_on_c, 0, 87, 81
1, 32292, Note_on_c, 9, 40, 33
1, 32296, Note_on_c, 0, 56, 43
1, 32312, Note_on_c, 0, 60, 39
1, 32332, Note_on_c, 9, 44, 0
1, 32352, Note_on_c, 0, 94, 0
1, 32352, Control_c, 0, 64, 127
1, 32376, Note_on_c, 0, 82, 49
1, 32380, Note_on_c, 0, 91, 52
1, 32388, Note_on_c, 0, 87, 0
1, 32420, Note_on_c, 0, 82, 0
1, 32420, Note_on_c, 0, 67, 0
1, 32424, Note_on_c, 0, 60, 0
1, 32424, Note_on_c, 0, 56, 0
1, 32428, Note_on_c, 0, 63, 0
1, 32440, Note_on_c, 0, 91, 0
1, 32468, Note_on_c, 0, 87, 68
1, 32468, Note_on_c, 0, 94, 70
1, 32472, Note_on_c, 0, 56, 39
1, 32472, Note_on_c, 0, 63, 40
1, 32472, Note_on_c, 0, 67, 43
1, 32476, Note_on_c, 0, 60, 40
1, 32660, Note_on_c, 9, 40, 0
1, 32660, Note_on_c, 9, 44, 70
1, 32678, Note_on_c, 9, 40, 40
1, 32784, Note_on_c, 0, 67, 0
1, 32784, Note_on_c, 0, 87, 0
1, 32792, Note_on_c, 0, 60, 0
1, 32796, Note_on_c, 0, 56, 0
1, 32796, Note_on_c, 0, 63, 0
1, 32872, Note_on_c, 0, 94, 0
1, 32984, Note_on_c, 0, 91, 49
1, 32988, Note_on_c, 0, 82, 41
1, 32988, Note_on_c, 0, 63, 33
1, 32992, Note_on_c, 0, 56, 29
1, 33008, Note_on_c, 0, 60, 32
1, 33020, Note_on_c, 0, 56, 0
1, 33020, Note_on_c, 0, 91, 0
1, 33020, Note_on_c, 0, 82, 0
1, 33028, Note_on_c, 9, 44, 0
1, 33028, Note_on_c, 0, 63, 0
1, 33044, Note_on_c, 9, 40, 0
1, 33048, Note_on_c, 0, 60, 0
1, 33068, Note_on_c, 1, 48, 86
1, 33072, Control_c, 0, 64, 0
1, 33082, Note_on_c, 9, 40, 44
1, 33096, Note_on_c, 0, 66, 54
1, 33096, Note_on_c, 0, 94, 60
1, 33096, Note_on_c, 0, 85, 60
1, 33100, Note_on_c, 0, 62, 48
1, 33104, Note_on_c, 0, 56, 36
1, 33112, Note_on_c, 0, 85, 0
1, 33144, Note_on_c, 0, 66, 0
1, 33148, Note_on_c, 0, 56, 0
1, 33148, Note_on_c, 0, 94, 0
1, 33156, Note_on_c, 0, 62, 0
1, 33264, Note_on_c, 1, 48, 0
1, 33272, Note_on_c, 0, 66, 49
1, 33272, Note_on_c, 0, 94, 49
1, 33272, Note_on_c, 1, 46, 66
1, 33276, Note_on_c, 1, 39, 0
1, 33280, Note_on_c, 0, 85, 38
1, 33280, Note_on_c, 0, 62, 42
1, 33284, Note_on_c, 0, 56, 37
1, 33284, Note_on_c, 0, 90, 40
1, 33340, Control_c, 0, 64, 127
1, 33366, Note_on_c, 9, 39, 46
1, 33404, Note_on_c, 0, 94, 0
1, 33408, Note_on_c, 0, 90, 0
1, 33408, Note_on_c, 0, 85, 0
1, 33412, Note_on_c, 9, 39, 0
1, 33428, Note_on_c, 9, 40, 0
1, 33428, Note_on_c, 0, 66, 0
1, 33428, Note_on_c, 9, 46, 39
1, 33444, Note_on_c, 9, 40, 33
1, 33446, Note_on_c, 9, 46, 0
1, 33476, Note_on_c, 0, 56, 0
1, 33532, Note_on_c, 0, 62, 0
1, 33576, Note_on_c, 0, 85, 56
1, 33580, Note_on_c, 0, 66, 52
1, 33584, Note_on_c, 0, 90, 45
1, 33584, Note_on_c, 0, 80, 39
1, 33588, Note_on_c, 0, 62, 27
1, 33592, Note_on_c, 0, 56, 41
1, 33636, Note_on_c, 1, 38, 71
1, 33644, Note_on_c, 9, 40, 34
1, 33664, Note_on_c, 0, 90, 0
1, 33668, Note_on_c, 0, 66, 0
1, 33672, Note_on_c, 0, 85, 0
1, 33680, Note_on_c, 0, 62, 0
1, 33684, Note_on_c, 0, 80, 0
1, 33724, Note_on_c, 0, 56, 0
1, 33776, Control_c, 0, 64, 0
1, 33784, Note_on_c, 1, 46, 0
1, 33812, Note_on_c, 9, 40, 0
1, 33816, Note_on_c, 0, 62, 36
1, 33816, Note_on_c, 0, 65, 34
1, 33824, Note_on_c, 0, 79, 39
1, 33824, Note_on_c, 0, 60, 41
1, 33824, Note_on_c, 0, 82, 38
1, 33824, Note_on_c, 0, 55, 30
1, 33824, Note_on_c, 1, 39, 76
1, 33824, Note_on_c, 9, 40, 37
1, 33828, Control_c, 0, 64, 127
1, 33832, Note_on_c, 1, 38, 0
1, 33836, Note_on_c, 0, 86, 39
1, 33876, Note_on_c, 0, 86, 0
1, 33908, Note_on_c, 0, 82, 0
1, 33912, Note_on_c, 0, 65, 0
1, 33924, Note_on_c, 0, 79, 0
1, 33932, Note_on_c, 0, 62, 0
1, 33940, Note_on_c, 0, 60, 0
1, 33976, Note_on_c, 0, 55, 0
1, 34196, Note_on_c, 9, 40, 0
1, 34196, Note_on_c, 9, 40, 0
1, 34196, Note_on_c, 9, 44, 52
1, 34212, Control_c, 0, 64, 0
1, 34212, Note_on_c, 0, 66, 51
1, 34216, Note_on_c, 0, 63, 45
1, 34220, Note_on_c, 0, 60, 39
1, 34224, Note_on_c, 0, 54, 39
1, 34228, Note_on_c, 9, 40, 40
1, 34236, Note_on_c, 0, 55, 39
1, 34244, Note_on_c, 0, 54, 0
1, 34252, Note_on_c, 0, 60, 0
1, 34256, Note_on_c, 0, 67, 42
1, 34268, Note_on_c, 0, 66, 0
1, 34278, Note_on_c, 9, 44, 0
1, 34292, Note_on_c, 0, 55, 0
1, 34296, Note_on_c, 0, 63, 0
1, 34316, Note_on_c, 0, 67, 0
1, 34344, Note_on_c, 0, 63, 59
1, 34348, Note_on_c, 0, 60, 63
1, 34348, Note_on_c, 0, 58, 68
1, 34348, Note_on_c, 0, 70, 69
1, 34348, Note_on_c, 0, 67, 63
1, 34408, Note_on_c, 1, 46, 83
1, 34544, Note_on_c, 0, 67, 0
1, 34544, Note_on_c, 0, 60, 0
1, 34556, Note_on_c, 0, 63, 0
1, 34572, Note_on_c, 1, 46, 0
1, 34576, Note_on_c, 0, 70, 0
1, 34580, Note_on_c, 9, 40, 0
1, 34592, Note_on_c, 0, 58, 0
1, 34604, Note_on_c, 1, 46, 75
1, 34612, Note_on_c, 0, 67, 28
1, 34612, Note_on_c, 0, 60, 26
1, 34616, Note_on_c, 0, 55, 35
1, 34618, Note_on_c, 9, 40, 34
1, 34620, Note_on_c, 0, 63, 32
1, 34684, Note_on_c, 0, 60, 0
1, 34688, Note_on_c, 0, 63, 0
1, 34700, Note_on_c, 0, 67, 0
1, 34740, Note_on_c, 0, 58, 67
1, 34740, Note_on_c, 0, 63, 68
1, 34740, Note_on_c, 0, 70, 66
1, 34740, Note_on_c, 0, 67, 57
1, 34740, Note_on_c, 0, 60, 72
1, 34748, Note_on_c, 0, 55, 0
1, 34772, Note_on_c, 1, 46, 0
1, 34812, Note_on_c, 1, 46, 79
1, 34884, Control_c, 0, 64, 127
1, 34904, Note_on_c, 0, 67, 0
1, 34924, Note_on_c, 0, 60, 0
1, 34940, Note_on_c, 0, 63, 0
1, 34956, Control_c, 0, 64, 0
1, 34964, Note_on_c, 9, 40, 0
1, 34964, Note_on_c, 9, 44, 61
1, 34976, Note_on_c, 9, 40, 34
1, 34980, Note_on_c, 0, 70, 0
1, 34996, Note_on_c, 0, 58, 0
1, 35004, Note_on_c, 0, 67, 55
1, 35004, Note_on_c, 0, 60, 49
1, 35004, Note_on_c, 0, 63, 47
1, 35008, Note_on_c, 0, 55, 48
1, 35084, Note_on_c, 0, 67, 0
1, 35084, Note_on_c, 9, 44, 0
1, 35108, Control_c, 0, 64, 127
1, 35112, Control_c, 0, 64, 0
1, 35128, Note_on_c, 0, 60, 0
1, 35132, Note_on_c, 0, 63, 0
1, 35188, Control_c, 0, 64, 127
1, 35264, Note_on_c, 0, 55, 0
1, 35264, Note_on_c, 1, 49, 54
1, 35276, Note_on_c, 1, 46, 0
1, 35284, Control_c, 0, 64, 0
1, 35300, Note_on_c, 0, 56, 56
1, 35304, Note_on_c, 0, 61, 62
1, 35304, Note_on_c, 0, 68, 60
1, 35312, Note_on_c, 0, 60, 58
1, 35312, Note_on_c, 0, 66, 48
1, 35320, Note_on_c, 1, 46, 63
1, 35336, Note_on_c, 0, 66, 0
1, 35336, Note_on_c, 1, 49, 0
1, 35348, Note_on_c, 9, 40, 0
1, 35350, Note_on_c, 9, 40, 31
1, 35356, Note_on_c, 0, 60, 0
1, 35364, Note_on_c, 0, 56, 0
1, 35364, Note_on_c, 0, 68, 0
1, 35380, Note_on_c, 1, 46, 0
1, 35396, Note_on_c, 1, 39, 0
1, 35396, Note_on_c, 0, 60, 49
1, 35400, Note_on_c, 1, 45, 80
1, 35404, Note_on_c, 0, 57, 45
1, 35408, Note_on_c, 0, 61, 0
1, 35408, Note_on_c, 0, 69, 43
1, 35420, Note_on_c, 0, 60, 0
1, 35424, Note_on_c, 0, 69, 0
1, 35476, Note_on_c, 0, 57, 0
1, 35516, Note_on_c, 0, 72, 54
1, 35520, Note_on_c, 0, 64, 54
1, 35524, Note_on_c, 0, 67, 49
1, 35528, Note_on_c, 0, 60, 52
1, 35540, Note_on_c, 0, 67, 0
1, 35540, Note_on_c, 0, 64, 0
1, 35544, Note_on_c, 0, 72, 0
1, 35564, Note_on_c, 0, 60, 0
1, 35620, Note_on_c, 0, 62, 63
1, 35620, Note_on_c, 0, 74, 53
1, 35620, Note_on_c, 0, 65, 39
1, 35636, Note_on_c, 0, 62, 0
1, 35640, Note_on_c, 0, 74, 0
1, 35640, Note_on_c, 0, 65, 0
1, 35732, Note_on_c, 9, 40, 0
1, 35732, Note_on_c, 9, 44, 62
1, 35740, Note_on_c, 0, 63, 52
1, 35740, Note_on_c, 0, 69, 56
1, 35744, Note_on_c, 0, 75, 55
1, 35748, Note_on_c, 0, 65, 26
1, 35754, Note_on_c, 9, 40, 34
1, 35768, Note_on_c, 0, 65, 0
1, 35784, Note_on_c, 0, 75, 0
1, 35788, Note_on_c, 0, 69, 0
1, 35792, Note_on_c, 9, 44, 0
1, 35816, Note_on_c, 0, 63, 0
1, 35860, Note_on_c, 0, 77, 71
1, 35864, Note_on_c, 0, 69, 52
1, 35868, Note_on_c, 0, 65, 61
1, 35868, Note_on_c, 0, 66, 46
1, 35884, Note_on_c, 0, 72, 31
1, 35920, Note_on_c, 0, 72, 0
1, 35928, Note_on_c, 0, 77, 0
1, 35932, Note_on_c, 1, 39, 68
1, 35936, Note_on_c, 0, 69, 0
1, 35944, Note_on_c, 1, 45, 0
1, 35948, Note_on_c, 0, 65, 0
1, 35948, Note_on_c, 0, 66, 0
1, 35976, Note_on_c, 0, 75, 51
1, 35976, Note_on_c, 0, 66, 40
1, 35984, Note_on_c, 0, 63, 47
1, 35992, Note_on_c, 0, 75, 0
1, 36028, Note_on_c, 0, 66, 0
1, 36036, Note_on_c, 0, 63, 0
1, 36096, Note_on_c, 0, 63, 57
1, 36096, Note_on_c, 0, 74, 65
1, 36100, Note_on_c, 0, 66, 44
1, 36100, Note_on_c, 0, 62, 54
1, 36112, Note_on_c, 0, 69, 25
1, 36116, Note_on_c, 1, 39, 0
1, 36116, Note_on_c, 9, 40, 0
1, 36120, Note_on_c, 0, 66, 0
1, 36120, Note_on_c, 1, 38, 75
1, 36124, Note_on_c, 9, 40, 36
1, 36128, Note_on_c, 0, 63, 0
1, 36132, Note_on_c, 0, 62, 0
1, 36132, Note_on_c, 0, 74, 0
1, 36140, Note_on_c, 0, 69, 0
1, 36196, Note_on_c, 0, 73, 57
1, 36200, Note_on_c, 0, 63, 46
1, 36204, Note_on_c, 0, 61, 47
1, 36204, Note_on_c, 0, 66, 50
1, 36232, Note_on_c, 0, 63, 0
1, 36244, Note_on_c, 0, 73, 0
1, 36248, Note_on_c, 0, 66, 0
1, 36260, Note_on_c, 0, 61, 0
1, 36314, Note_on_c, 9, 40, 31
1, 36324, Note_on_c, 1, 38, 0
1, 36324, Note_on_c, 0, 63, 43
1, 36324, Note_on_c, 0, 72, 49
1, 36324, Note_on_c, 0, 66, 45
1, 36332, Note_on_c, 0, 60, 42
1, 36348, Note_on_c, 1, 38, 80
1, 36384, Note_on_c, 0, 72, 0
1, 36388, Note_on_c, 0, 63, 0
1, 36396, Note_on_c, 0, 66, 0
1, 36396, Note_on_c, 0, 60, 0
1, 36456, Note_on_c, 0, 63, 50
1, 36460, Note_on_c, 0, 66, 54
1, 36464, Note_on_c, 0, 69, 49
1, 36472, Note_on_c, 0, 57, 46
1, 36492, Note_on_c, 0, 63, 0
1, 36500, Note_on_c, 9, 40, 0
1, 36500, Note_on_c, 9, 44, 51
1, 36500, Note_on_c, 9, 40, 44
1, 36512, Note_on_c, 0, 66, 0
1, 36512, Note_on_c, 0, 69, 0
1, 36548, Note_on_c, 0, 57, 0
1, 36588, Note_on_c, 0, 72, 52
1, 36588, Note_on_c, 0, 66, 59
1, 36588, Note_on_c, 0, 63, 51
1, 36592, Note_on_c, 0, 60, 51
1, 36598, Note_on_c, 9, 44, 0
1, 36608, Note_on_c, 0, 69, 31
1, 36632, Note_on_c, 0, 69, 0
1, 36640, Note_on_c, 0, 63, 0
1, 36652, Note_on_c, 0, 66, 0
1, 36660, Note_on_c, 0, 72, 0
1, 36676, Note_on_c, 0, 60, 0
1, 36692, Note_on_c, 1, 33, 57
1, 36696, Note_on_c, 1, 38, 0
1, 36708, Note_on_c, 0, 57, 43
1, 36712, Note_on_c, 0, 63, 45
1, 36712, Control_c, 0, 64, 127
1, 36712, Note_on_c, 0, 69, 48
1, 36736, Note_on_c, 0, 63, 0
1, 36736, Control_c, 0, 64, 0
1, 36740, Note_on_c, 1, 33, 0
1, 36764, Note_on_c, 0, 69, 0
1, 36772, Note_on_c, 0, 57, 0
1, 36788, Control_c, 0, 64, 127
1, 36792, Note_on_c, 1, 32, 57
1, 36796, Note_on_c, 0, 66, 58
1, 36804, Note_on_c, 9, 35, 27
1, 36820, Note_on_c, 9, 35, 0
1, 36848, Note_on_c, 0, 66, 0
1, 36852, Note_on_c, 0, 63, 43
1, 36864, Note_on_c, 0, 54, 39
1, 36868, Note_on_c, 0, 63, 0
1, 36880, Note_on_c, 1, 32, 0
1, 36880, Control_c, 0, 64, 0
1, 36884, Note_on_c, 9, 40, 0
1, 36884, Note_on_c, 9, 40, 0
1, 36892, Note_on_c, 0, 54, 0
1, 36892, Note_on_c, 9, 40, 50
1, 36896, Note_on_c, 1, 31, 68
1, 36924, Note_on_c, 0, 62, 51
1, 36924, Note_on_c, 0, 55, 42
1, 36928, Note_on_c, 0, 70, 56
1, 36960, Control_c, 0, 64, 127
1, 37052, Note_on_c, 0, 55, 0
1, 37076, Note_on_c, 0, 62, 0
1, 37112, Note_on_c, 0, 70, 0
1, 37112, Note_on_c, 0, 62, 25
1, 37116, Note_on_c, 0, 67, 49
1, 37132, Note_on_c, 0, 62, 0
1, 37140, Note_on_c, 0, 67, 0
1, 37268, Note_on_c, 9, 40, 0
1, 37268, Note_on_c, 9, 44, 52
1, 37292, Note_on_c, 9, 40, 34
1, 37308, Note_on_c, 0, 62, 30
1, 37308, Note_on_c, 0, 58, 43
1, 37316, Note_on_c, 0, 53, 35
1, 37316, Note_on_c, 0, 55, 39
1, 37332, Note_on_c, 9, 44, 0
1, 37412, Note_on_c, 0, 53, 0
1, 37420, Note_on_c, 0, 58, 0
1, 37428, Note_on_c, 0, 62, 0
1, 37460, Note_on_c, 0, 55, 0
1, 37590, Note_on_c, 9, 35, 33
1, 37600, Note_on_c, 0, 74, 56
1, 37604, Note_on_c, 0, 86, 49
1, 37606, Note_on_c, 9, 35, 0
1, 37624, Note_on_c, 0, 86, 0
1, 37636, Note_on_c, 0, 74, 0
1, 37652, Note_on_c, 9, 40, 0
1, 37676, Control_c, 0, 64, 0
1, 37684, Note_on_c, 1, 31, 0
1, 37684, Note_on_c, 9, 40, 50
1, 37692, Note_on_c, 1, 42, 85
1, 37704, Note_on_c, 0, 58, 38
1, 37704, Note_on_c, 0, 62, 35
1, 37708, Note_on_c, 0, 74, 45
1, 37712, Note_on_c, 0, 86, 43
1, 37716, Note_on_c, 0, 82, 45
1, 37716, Note_on_c, 0, 52, 39
1, 37752, Control_c, 0, 64, 127
1, 37816, Note_on_c, 0, 82, 0
1, 37816, Note_on_c, 0, 74, 0
1, 37820, Note_on_c, 0, 86, 0
1, 37828, Note_on_c, 0, 52, 0
1, 37832, Note_on_c, 0, 62, 0
1, 37844, Note_on_c, 0, 58, 0
1, 37912, Note_on_c, 0, 58, 42
1, 37916, Note_on_c, 0, 82, 47
1, 37916, Note_on_c, 0, 86, 48
1, 37920, Note_on_c, 0, 62, 36
1, 37920, Note_on_c, 0, 74, 37
1, 37924, Note_on_c, 0, 52, 37
1, 38008, Note_on_c, 0, 52, 0
1, 38008, Note_on_c, 0, 74, 0
1, 38016, Note_on_c, 0, 58, 0
1, 38016, Note_on_c, 0, 62, 0
1, 38020, Note_on_c, 0, 82, 0
1, 38028, Note_on_c, 0, 86, 0
1, 38036, Note_on_c, 9, 40, 0
1, 38036, Note_on_c, 9, 44, 55
1, 38064, Note_on_c, 9, 40, 46
1, 38096, Note_on_c, 9, 44, 0
1, 38244, Note_on_c, 9, 39, 46
1, 38288, Note_on_c, 0, 58, 49
1, 38296, Note_on_c, 0, 86, 57
1, 38296, Note_on_c, 0, 82, 54
1, 38296, Note_on_c, 0, 62, 34
1, 38300, Note_on_c, 0, 74, 50
1, 38324, Note_on_c, 0, 74, 0
1, 38328, Note_on_c, 0, 62, 0
1, 38332, Note_on_c, 0, 58, 0
1, 38342, Note_on_c, 9, 39, 0
1, 38344, Note_on_c, 0, 86, 0
1, 38344, Note_on_c, 0, 82, 0
1, 38404, Note_on_c, 1, 39, 47
1, 38416, Note_on_c, 1, 42, 0
1, 38420, Note_on_c, 9, 40, 0
1, 38444, Control_c, 0, 64, 0
1, 38444, Note_on_c, 9, 40, 34
1, 38472, Note_on_c, 1, 39, 0
1, 38472, Note_on_c, 1, 41, 81
1, 38488, Note_on_c, 0, 89, 90
1, 38492, Note_on_c, 0, 84, 78
1, 38492, Note_on_c, 0, 67, 73
1, 38492, Note_on_c, 0, 77, 79
1, 38492, Note_on_c, 0, 56, 63
1, 38492, Note_on_c, 0, 63, 57
1, 38496, Control_c, 0, 64, 127
1, 38496, Note_on_c, 0, 60, 57
1, 38596, Note_on_c, 0, 77, 0
1, 38608, Note_on_c, 0, 89, 0
1, 38608, Note_on_c, 0, 56, 0
1, 38608, Note_on_c, 0, 67, 0
1, 38612, Note_on_c, 0, 84, 0
1, 38616, Note_on_c, 0, 60, 0
1, 38624, Note_on_c, 0, 63, 0
1, 38692, Note_on_c, 0, 89, 72
1, 38696, Note_on_c, 0, 84, 68
1, 38700, Note_on_c, 0, 77, 58
1, 38704, Note_on_c, 0, 67, 57
1, 38704, Note_on_c, 0, 56, 51
1, 38704, Note_on_c, 0, 63, 52
1, 38712, Note_on_c, 0, 60, 54
1, 38796, Note_on_c, 0, 77, 0
1, 38800, Note_on_c, 0, 67, 0
1, 38804, Note_on_c, 0, 60, 0
1, 38804, Note_on_c, 0, 56, 0
1, 38804, Note_on_c, 0, 84, 0
1, 38804, Note_on_c, 0, 89, 0
1, 38804, Note_on_c, 9, 40, 0
1, 38804, Note_on_c, 9, 44, 56
1, 38812, Note_on_c, 0, 63, 0
1, 38816, Note_on_c, 9, 40, 36
1, 38852, Note_on_c, 9, 44, 0
1, 38860, Note_on_c, 1, 35, 83
1, 38876, Note_on_c, 1, 41, 0
1, 38908, Note_on_c, 0, 89, 66
1, 38908, Note_on_c, 0, 67, 52
1, 38908, Note_on_c, 0, 84, 60
1, 38908, Note_on_c, 0, 63, 50
1, 38908, Note_on_c, 0, 77, 52
1, 38908, Note_on_c, 0, 56, 45
1, 38916, Note_on_c, 0, 60, 54
1, 38960, Note_on_c, 0, 77, 0
1, 38972, Note_on_c, 0, 67, 0
1, 38972, Note_on_c, 0, 84, 0
1, 38976, Note_on_c, 0, 56, 0
1, 38976, Note_on_c, 0, 60, 0
1, 38980, Note_on_c, 0, 89, 0
1, 38988, Note_on_c, 0, 63, 0
1, 39084, Note_on_c, 0, 89, 63
1, 39088, Note_on_c, 0, 63, 53
1, 39088, Note_on_c, 0, 84, 61
1, 39092, Note_on_c, 0, 67, 48
1, 39092, Note_on_c, 0, 56, 46
1, 39096, Note_on_c, 0, 77, 48
1, 39100, Note_on_c, 0, 60, 43
1, 39110, Note_on_c, 9, 35, 30
1, 39120, Note_on_c, 0, 67, 0
1, 39124, Note_on_c, 0, 77, 0
1, 39136, Note_on_c, 0, 89, 0
1, 39148, Note_on_c, 0, 56, 0
1, 39152, Note_on_c, 0, 84, 0
1, 39156, Note_on_c, 9, 35, 0
1, 39160, Note_on_c, 0, 63, 0
1, 39180, Note_on_c, 0, 60, 0
1, 39188, Note_on_c, 9, 40, 0
1, 39192, Note_on_c, 1, 35, 0
1, 39200, Note_on_c, 1, 34, 72
1, 39204, Note_on_c, 9, 40, 37
1, 39206, Note_on_c, 9, 35, 36
1, 39206, Note_on_c, 9, 59, 34
1, 39232, Note_on_c, 9, 35, 0
1, 39238, Note_on_c, 9, 59, 0
1, 39256, Control_c, 0, 64, 0
1, 39288, Note_on_c, 0, 90, 75
1, 39288, Note_on_c, 0, 66, 68
1, 39288, Note_on_c, 0, 85, 68
1, 39288, Note_on_c, 0, 82, 68
1, 39288, Note_on_c, 0, 62, 58
1, 39288, Note_on_c, 0, 78, 57
1, 39296, Note_on_c, 0, 56, 52
1, 39300, Note_on_c, 0, 60, 53
1, 39328, Control_c, 0, 64, 127
1, 39396, Note_on_c, 9, 59, 38
1, 39396, Note_on_c, 9, 35, 32
1, 39420, Note_on_c, 0, 66, 0
1, 39420, Note_on_c, 0, 90, 0
1, 39424, Note_on_c, 0, 82, 0
1, 39428, Note_on_c, 0, 56, 0
1, 39428, Note_on_c, 0, 78, 0
1, 39436, Note_on_c, 0, 60, 0
1, 39436, Note_on_c, 0, 62, 0
1, 39440, Note_on_c, 0, 85, 0
1, 39440, Note_on_c, 9, 59, 0
1, 39444, Note_on_c, 9, 35, 0
1, 39480, Note_on_c, 0, 66, 60
1, 39484, Note_on_c, 0, 78, 57
1, 39484, Note_on_c, 0, 90, 61
1, 39488, Note_on_c, 0, 62, 41
1, 39488, Note_on_c, 0, 82, 60
1, 39488, Note_on_c, 0, 85, 49
1, 39488, Note_on_c, 0, 56, 48
1, 39488, Note_on_c, 0, 60, 35
1, 39564, Note_on_c, 0, 60, 0
1, 39564, Note_on_c, 0, 56, 0
1, 39564, Note_on_c, 0, 82, 0
1, 39568, Note_on_c, 0, 78, 0
1, 39572, Note_on_c, 0, 66, 0
1, 39572, Note_on_c, 9, 40, 0
1, 39572, Note_on_c, 9, 46, 25
1, 39576, Note_on_c, 0, 85, 0
1, 39580, Note_on_c, 0, 90, 0
1, 39580, Note_on_c, 0, 62, 0
1, 39580, Note_on_c, 9, 40, 42
1, 39596, Note_on_c, 1, 46, 86
1, 39620, Note_on_c, 9, 46, 0
1, 39748, Note_on_c, 0, 87, 58
1, 39752, Note_on_c, 0, 91, 67
1, 39752, Note_on_c, 0, 66, 64
1, 39756, Note_on_c, 0, 79, 64
1, 39756, Note_on_c, 0, 84, 59
1, 39756, Note_on_c, 0, 56, 52
1, 39760, Note_on_c, 0, 62, 52
1, 39768, Note_on_c, 0, 60, 48
1, 39784, Note_on_c, 0, 60, 0
1, 39796, Note_on_c, 0, 79, 0
1, 39808, Note_on_c, 0, 66, 0
1, 39808, Note_on_c, 0, 91, 0
1, 39812, Note_on_c, 0, 84, 0
1, 39816, Note_on_c, 0, 56, 0
1, 39820, Note_on_c, 0, 62, 0
1, 39828, Note_on_c, 0, 87, 0
1, 39880, Note_on_c, 0, 92, 58
1, 39880, Note_on_c, 0, 56, 56
1, 39880, Note_on_c, 0, 66, 55
1, 39888, Note_on_c, 0, 80, 50
1, 39888, Note_on_c, 0, 87, 42
1, 39900, Note_on_c, 0, 66, 0
1, 39912, Note_on_c, 0, 87, 0
1, 39940, Note_on_c, 0, 80, 0
1, 39944, Note_on_c, 0, 56, 0
1, 39952, Note_on_c, 0, 92, 0
1, 39956, Note_on_c, 9, 40, 0
1, 39958, Note_on_c, 9, 40, 50
1, 39964, Note_on_c, 1, 46, 0
1, 39964, Note_on_c, 9, 40, 40
1, 39992, Control_c, 0, 64, 0
1, 39992, Note_on_c, 1, 45, 89
1, 40000, Note_on_c, 1, 34, 0
1, 40020, Note_on_c, 0, 63, 55
1, 40028, Note_on_c, 0, 93, 56
1, 40028, Note_on_c, 0, 81, 54
1, 40028, Note_on_c, 0, 60, 50
1, 40036, Note_on_c, 0, 55, 45
1, 40044, Note_on_c, 0, 57, 38
1, 40080, Control_c, 0, 64, 127
1, 40176, Note_on_c, 0, 93, 0
1, 40216, Note_on_c, 0, 63, 0
1, 40224, Note_on_c, 0, 57, 0
1, 40236, Note_on_c, 0, 81, 0
1, 40264, Note_on_c, 0, 60, 0
1, 40340, Note_on_c, 9, 40, 0
1, 40340, Note_on_c, 9, 40, 0
1, 40340, Note_on_c, 9, 44, 69
1, 40346, Note_on_c, 9, 40, 47
1, 40360, Note_on_c, 0, 55, 0
1, 40396, Note_on_c, 0, 63, 41
1, 40400, Note_on_c, 0, 60, 48
1, 40404, Note_on_c, 0, 55, 10
1, 40408, Note_on_c, 0, 57, 37
1, 40448, Note_on_c, 9, 44, 0
1, 40528, Note_on_c, 9, 39, 62
1, 40532, Note_on_c, 0, 75, 82
1, 40576, Note_on_c, 0, 55, 0
1, 40580, Note_on_c, 0, 63, 0
1, 40596, Note_on_c, 0, 60, 0
1, 40600, Note_on_c, 0, 57, 0
1, 40616, Note_on_c, 0, 75, 0
1, 40632, Note_on_c, 0, 77, 46
1, 40668, Note_on_c, 0, 75, 53
1, 40672, Note_on_c, 0, 77, 0
1, 40704, Note_on_c, 9, 39, 0
1, 40720, Note_on_c, 9, 40, 40
1, 40724, Note_on_c, 9, 40, 0
1, 40732, Note_on_c, 0, 74, 57
1, 40736, Note_on_c, 0, 75, 0
1, 40736, Note_on_c, 1, 38, 72
1, 40740, Note_on_c, 1, 45, 0
1, 40764, Control_c, 0, 64, 0
1, 40776, Note_on_c, 0, 54, 44
1, 40780, Note_on_c, 0, 65, 21
1, 40780, Note_on_c, 0, 60, 41
1, 40800, Note_on_c, 0, 75, 56
1, 40804, Note_on_c, 0, 74, 0
1, 40840, Note_on_c, 0, 75, 0
1, 40904, Note_on_c, 0, 87, 61
1, 40920, Note_on_c, 0, 87, 0
1, 41024, Note_on_c, 0, 87, 55
1, 41048, Note_on_c, 0, 87, 0
1, 41052, Note_on_c, 0, 65, 0
1, 41064, Note_on_c, 0, 60, 0
1, 41108, Note_on_c, 9, 40, 0
1, 41108, Note_on_c, 9, 44, 53
1, 41110, Note_on_c, 9, 40, 39
1, 41164, Note_on_c, 0, 65, 31
1, 41168, Note_on_c, 0, 87, 41
1, 41172, Note_on_c, 0, 60, 31
1, 41188, Note_on_c, 0, 87, 0
1, 41200, Note_on_c, 9, 44, 0
1, 41292, Note_on_c, 0, 87, 47
1, 41308, Note_on_c, 0, 87, 0
1, 41352, Note_on_c, 0, 60, 0
1, 41356, Note_on_c, 0, 65, 0
1, 41364, Control_c, 0, 64, 127
1, 41412, Note_on_c, 0, 87, 49
1, 41414, Note_on_c, 9, 35, 48
1, 41430, Note_on_c, 9, 35, 0
1, 41432, Note_on_c, 0, 87, 0
1, 41444, Note_on_c, 0, 54, 0
1, 41492, Note_on_c, 9, 40, 0
1, 41492, Note_on_c, 9, 59, 40
1, 41492, Note_on_c, 9, 40, 36
1, 41494, Note_on_c, 9, 35, 35
1, 41508, Note_on_c, 1, 31, 67
1, 41512, Control_c, 0, 64, 0
1, 41516, Note_on_c, 1, 38, 0
1, 41520, Note_on_c, 0, 87, 49
1, 41540, Note_on_c, 0, 55, 37
1, 41542, Note_on_c, 9, 59, 0
1, 41544, Note_on_c, 0, 57, 37
1, 41548, Note_on_c, 0, 87, 0
1, 41552, Note_on_c, 9, 35, 0
1, 41556, Note_on_c, 0, 58, 32
1, 41564, Note_on_c, 0, 62, 15
1, 41636, Note_on_c, 0, 87, 58
1, 41676, Note_on_c, 0, 87, 0
1, 41684, Note_on_c, 0, 86, 47
1, 41740, Note_on_c, 0, 86, 0
1, 41792, Note_on_c, 0, 86, 54
1, 41828, Note_on_c, 0, 86, 0
1, 41876, Note_on_c, 9, 40, 0
1, 41876, Note_on_c, 9, 44, 71
1, 41882, Note_on_c, 9, 40, 34
1, 41888, Note_on_c, 0, 86, 52
1, 41912, Note_on_c, 0, 86, 0
1, 41940, Note_on_c, 9, 44, 0
1, 41968, Control_c, 0, 64, 127
1, 41980, Note_on_c, 0, 86, 55
1, 42136, Note_on_c, 0, 58, 0
1, 42140, Note_on_c, 0, 57, 0
1, 42140, Note_on_c, 0, 62, 0
1, 42148, Note_on_c, 0, 55, 0
1, 42260, Note_on_c, 9, 40, 0
1, 42262, Note_on_c, 9, 40, 44
1, 42276, Note_on_c, 9, 35, 32
1, 42304, Note_on_c, 9, 35, 0
1, 42470, Note_on_c, 9, 35, 35
1, 42476, Control_c, 0, 64, 0
1, 42476, Note_on_c, 0, 65, 52
1, 42480, Note_on_c, 0, 61, 45
1, 42488, Note_on_c, 0, 60, 39
1, 42496, Note_on_c, 0, 56, 34
1, 42564, Note_on_c, 9, 35, 0
1, 42592, Note_on_c, 0, 86, 0
1, 42600, Control_c, 0, 64, 127
1, 42640, Note_on_c, 9, 40, 42
1, 42644, Note_on_c, 9, 40, 0
1, 42644, Note_on_c, 9, 46, 55
1, 42652, Note_on_c, 1, 31, 0
1, 42660, Note_on_c, 1, 39, 73
1, 42672, Note_on_c, 9, 46, 0
1, 42680, Note_on_c, 0, 60, 0
1, 42688, Note_on_c, 0, 82, 60
1, 42692, Note_on_c, 0, 65, 0
1, 42704, Control_c, 0, 64, 0
1, 42716, Note_on_c, 0, 61, 0
1, 42760, Note_on_c, 0, 82, 0
1, 42784, Note_on_c, 0, 84, 66
1, 42790, Note_on_c, 9, 35, 60
1, 42796, Note_on_c, 0, 56, 0
1, 42816, Note_on_c, 9, 35, 0
1, 42832, Note_on_c, 0, 85, 71
1, 42836, Note_on_c, 0, 84, 0
1, 42848, Note_on_c, 0, 61, 38
1, 42856, Note_on_c, 0, 64, 36
1, 42856, Note_on_c, 0, 55, 38
1, 42868, Note_on_c, 9, 35, 47
1, 42868, Note_on_c, 9, 59, 26
1, 42884, Note_on_c, 9, 59, 0
1, 42886, Note_on_c, 9, 35, 0
1, 42888, Note_on_c, 0, 85, 0
1, 42888, Note_on_c, 0, 87, 74
1, 42924, Note_on_c, 0, 87, 0
1, 42924, Note_on_c, 0, 88, 64
1, 42976, Note_on_c, 0, 88, 0
1, 42980, Note_on_c, 0, 64, 0
1, 42980, Note_on_c, 0, 90, 66
1, 42992, Note_on_c, 0, 55, 0
1, 43008, Note_on_c, 9, 40, 46
1, 43012, Note_on_c, 0, 90, 0
1, 43028, Note_on_c, 9, 40, 0
1, 43044, Note_on_c, 0, 91, 72
1, 43044, Note_on_c, 9, 35, 47
1, 43044, Note_on_c, 9, 59, 54
1, 43048, Note_on_c, 0, 61, 0
1, 43060, Note_on_c, 1, 39, 0
1, 43060, Note_on_c, 1, 32, 66
1, 43062, Note_on_c, 9, 59, 0
1, 43066, Note_on_c, 9, 35, 0
1, 43096, Note_on_c, 0, 91, 0
1, 43100, Note_on_c, 0, 93, 63
1, 43156, Note_on_c, 0, 58, 31
1, 43156, Note_on_c, 0, 53, 30
1, 43156, Note_on_c, 0, 60, 39
1, 43160, Note_on_c, 0, 93, 0
1, 43160, Note_on_c, 0, 94, 56
1, 43168, Note_on_c, 0, 63, 9
1, 43200, Note_on_c, 0, 94, 0
1, 43212, Note_on_c, 0, 95, 51
1, 43252, Note_on_c, 0, 95, 0
1, 43252, Note_on_c, 9, 59, 61
1, 43254, Note_on_c, 9, 35, 32
1, 43280, Note_on_c, 0, 96, 57
1, 43286, Note_on_c, 9, 59, 0
1, 43320, Note_on_c, 0, 96, 0
1, 43334, Note_on_c, 9, 35, 0
1, 43380, Note_on_c, 0, 96, 62
1, 43408, Note_on_c, 0, 96, 0
1, 43412, Note_on_c, 9, 40, 0
1, 43412, Note_on_c, 9, 44, 45
1, 43430, Note_on_c, 9, 40, 39
1, 43466, Note_on_c, 9, 44, 0
1, 43492, Note_on_c, 0, 96, 55
1, 43512, Note_on_c, 0, 96, 0
1, 43596, Note_on_c, 0, 96, 48
1, 43616, Note_on_c, 0, 96, 0
1, 43688, Note_on_c, 0, 96, 49
1, 43708, Note_on_c, 0, 96, 0
1, 43772, Control_c, 0, 64, 127
1, 43784, Note_on_c, 0, 96, 54
1, 43788, Control_c, 0, 64, 0
1, 43796, Note_on_c, 9, 40, 0
1, 43800, Note_on_c, 0, 96, 0
1, 43812, Note_on_c, 9, 40, 46
1, 43876, Control_c, 0, 64, 127
1, 43880, Note_on_c, 0, 96, 61
1, 43936, Note_on_c, 0, 96, 0
1, 43972, Note_on_c, 0, 98, 55
1, 43996, Note_on_c, 1, 45, 57
1, 44000, Note_on_c, 0, 98, 0
1, 44064, Note_on_c, 0, 98, 54
1, 44096, Note_on_c, 0, 98, 0
1, 44144, Note_on_c, 0, 98, 68
1, 44156, Note_on_c, 0, 58, 0
1, 44168, Note_on_c, 0, 53, 0
1, 44172, Note_on_c, 1, 45, 0
1, 44180, Note_on_c, 9, 40, 0
1, 44180, Note_on_c, 9, 44, 70
1, 44184, Note_on_c, 0, 60, 0
1, 44184, Note_on_c, 0, 63, 0
1, 44188, Note_on_c, 0, 98, 0
1, 44188, Note_on_c, 9, 40, 31
1, 44196, Note_on_c, 1, 50, 72
1, 44240, Note_on_c, 0, 98, 82
1, 44280, Note_on_c, 1, 32, 0
1, 44282, Note_on_c, 9, 44, 0
1, 44384, Note_on_c, 1, 50, 0
1, 44388, Note_on_c, 1, 38, 65
1, 44408, Note_on_c, 0, 63, 39
1, 44424, Note_on_c, 0, 54, 24
1, 44440, Note_on_c, 0, 63, 0
1, 44496, Note_on_c, 0, 54, 0
1, 44500, Note_on_c, 0, 98, 0
1, 44520, Note_on_c, 0, 96, 57
1, 44564, Note_on_c, 9, 40, 0
1, 44576, Note_on_c, 0, 96, 0
1, 44582, Note_on_c, 9, 40, 52
1, 44584, Control_c, 0, 64, 0
1, 44616, Note_on_c, 0, 94, 56
1, 44620, Note_on_c, 0, 58, 39
1, 44624, Note_on_c, 0, 55, 31
1, 44628, Note_on_c, 0, 62, 22
1, 44632, Note_on_c, 0, 57, 32
1, 44676, Note_on_c, 0, 94, 0
1, 44684, Note_on_c, 0, 96, 49
1, 44732, Note_on_c, 0, 94, 42
1, 44740, Note_on_c, 0, 96, 0
1, 44768, Note_on_c, 1, 43, 82
1, 44780, Note_on_c, 0, 94, 0
1, 44784, Note_on_c, 0, 93, 44
1, 44796, Note_on_c, 1, 38, 0
1, 44808, Note_on_c, 0, 93, 0
1, 44852, Note_on_c, 0, 94, 55
1, 44916, Note_on_c, 0, 94, 0
1, 44948, Note_on_c, 9, 40, 0
1, 44948, Note_on_c, 0, 98, 68
1, 44948, Note_on_c, 9, 44, 75
1, 44980, Note_on_c, 9, 40, 33
1, 44988, Note_on_c, 0, 98, 0
1, 45060, Note_on_c, 9, 44, 0
1, 45060, Note_on_c, 0, 94, 42
1, 45080, Note_on_c, 0, 94, 0
1, 45160, Note_on_c, 1, 50, 81
1, 45192, Control_c, 0, 64, 127
1, 45220, Note_on_c, 1, 43, 0
1, 45236, Note_on_c, 0, 57, 0
1, 45248, Note_on_c, 0, 58, 0
1, 45256, Note_on_c, 0, 62, 0
1, 45276, Note_on_c, 1, 38, 46
1, 45280, Note_on_c, 0, 55, 0
1, 45296, Note_on_c, 0, 96, 74
1, 45328, Note_on_c, 1, 38, 0
1, 45332, Note_on_c, 9, 40, 0
1, 45340, Note_on_c, 0, 96, 0
1, 45340, Note_on_c, 9, 40, 31
1, 45348, Note_on_c, 1, 50, 0
1, 45356, Note_on_c, 1, 48, 76
1, 45380, Control_c, 0, 64, 0
1, 45392, Note_on_c, 0, 94, 66
1, 45404, Note_on_c, 0, 58, 39
1, 45420, Note_on_c, 0, 52, 33
1, 45440, Note_on_c, 0, 63, 9
1, 45448, Note_on_c, 0, 94, 0
1, 45480, Note_on_c, 0, 85, 45
1, 45540, Note_on_c, 0, 85, 0
1, 45604, Note_on_c, 0, 93, 74
1, 45612, Note_on_c, 0, 63, 0
1, 45652, Note_on_c, 1, 43, 57
1, 45664, Note_on_c, 0, 93, 0
1, 45672, Note_on_c, 0, 88, 62
1, 45696, Note_on_c, 1, 43, 0
1, 45712, Note_on_c, 0, 88, 0
1, 45716, Note_on_c, 9, 40, 0
1, 45716, Note_on_c, 9, 44, 69
1, 45716, Note_on_c, 9, 40, 33
1, 45736, Note_on_c, 0, 82, 46
1, 45740, Note_on_c, 1, 36, 68
1, 45756, Note_on_c, 0, 82, 0
1, 45764, Note_on_c, 1, 48, 0
1, 45828, Note_on_c, 9, 44, 0
1, 45836, Note_on_c, 9, 39, 56
1, 45872, Note_on_c, 0, 90, 71
1, 45900, Note_on_c, 1, 36, 0
1, 45928, Note_on_c, 0, 90, 0
1, 45928, Note_on_c, 0, 85, 57
1, 45928, Note_on_c, 1, 36, 73
1, 45948, Note_on_c, 0, 58, 0
1, 45972, Note_on_c, 0, 85, 0
1, 45988, Note_on_c, 0, 77, 46
1, 45994, Note_on_c, 9, 39, 0
1, 46008, Note_on_c, 0, 77, 0
1, 46008, Note_on_c, 0, 58, 24
1, 46008, Note_on_c, 0, 63, 28
1, 46022, Note_on_c, 9, 40, 39
1, 46064, Note_on_c, 0, 52, 0
1, 46072, Note_on_c, 0, 58, 0
1, 46080, Note_on_c, 0, 87, 69
1, 46088, Note_on_c, 1, 36, 0
1, 46100, Note_on_c, 9, 40, 0
1, 46100, Note_on_c, 0, 63, 0
1, 46104, Note_on_c, 1, 32, 70
1, 46106, Note_on_c, 9, 40, 24
1, 46120, Note_on_c, 0, 87, 0
1, 46184, Note_on_c, 0, 85, 60
1, 46200, Note_on_c, 0, 85, 0
1, 46212, Note_on_c, 0, 56, 32
1, 46216, Note_on_c, 0, 63, 39
1, 46220, Note_on_c, 0, 60, 41
1, 46292, Note_on_c, 0, 84, 56
1, 46332, Note_on_c, 0, 84, 0
1, 46392, Note_on_c, 0, 82, 55
1, 46408, Note_on_c, 0, 82, 0
1, 46468, Note_on_c, 0, 80, 53
1, 46476, Note_on_c, 9, 40, 34
1, 46484, Note_on_c, 9, 40, 0
1, 46484, Note_on_c, 9, 40, 0
1, 46484, Note_on_c, 9, 44, 69
1, 46488, Note_on_c, 0, 80, 0
1, 46516, Note_on_c, 0, 82, 52
1, 46544, Note_on_c, 0, 63, 0
1, 46560, Note_on_c, 0, 80, 40
1, 46576, Note_on_c, 0, 82, 0
1, 46596, Note_on_c, 0, 80, 0
1, 46602, Note_on_c, 9, 44, 0
1, 46604, Note_on_c, 0, 79, 36
1, 46620, Note_on_c, 0, 79, 0
1, 46656, Note_on_c, 0, 77, 65
1, 46688, Note_on_c, 0, 63, 31
1, 46704, Note_on_c, 0, 77, 0
1, 46732, Note_on_c, 0, 76, 39
1, 46780, Note_on_c, 0, 60, 0
1, 46780, Note_on_c, 0, 63, 0
1, 46796, Note_on_c, 0, 76, 0
1, 46812, Note_on_c, 0, 56, 0
1, 46820, Note_on_c, 0, 77, 65
1, 46864, Note_on_c, 9, 40, 36
1, 46868, Note_on_c, 9, 40, 0
1, 46872, Note_on_c, 1, 32, 0
1, 46872, Note_on_c, 1, 37, 56
1, 46876, Note_on_c, 0, 77, 0
1, 46876, Note_on_c, 1, 53, 56
1, 46908, Note_on_c, 0, 79, 66
1, 46916, Note_on_c, 0, 63, 33
1, 46924, Note_on_c, 0, 56, 38
1, 46928, Note_on_c, 0, 60, 39
1, 46936, Note_on_c, 1, 53, 0
1, 46956, Note_on_c, 1, 52, 36
1, 46964, Note_on_c, 1, 37, 0
1, 46964, Note_on_c, 0, 53, 13
1, 46976, Note_on_c, 0, 79, 0
1, 46976, Note_on_c, 1, 36, 40
1, 47004, Note_on_c, 1, 36, 0
1, 47008, Note_on_c, 0, 80, 63
1, 47012, Note_on_c, 1, 52, 0
1, 47016, Note_on_c, 1, 37, 61
1, 47024, Note_on_c, 1, 53, 56
1, 47072, Note_on_c, 9, 39, 50
1, 47084, Note_on_c, 0, 80, 0
1, 47104, Note_on_c, 0, 82, 60
1, 47104, Note_on_c, 0, 70, 54
1, 47224, Note_on_c, 0, 60, 0
1, 47240, Note_on_c, 0, 63, 0
1, 47244, Note_on_c, 0, 82, 0
1, 47244, Note_on_c, 9, 39, 0
1, 47252, Note_on_c, 9, 40, 0
1, 47252, Note_on_c, 9, 44, 70
1, 47256, Note_on_c, 0, 70, 0
1, 47264, Note_on_c, 9, 40, 29
1, 47276, Control_c, 0, 64, 127
1, 47292, Note_on_c, 0, 63, 43
1, 47296, Note_on_c, 0, 80, 57
1, 47300, Note_on_c, 0, 68, 51
1, 47312, Note_on_c, 0, 60, 35
1, 47348, Note_on_c, 9, 44, 0
1, 47448, Note_on_c, 0, 53, 0
1, 47452, Note_on_c, 9, 40, 31
1, 47464, Note_on_c, 0, 60, 0
1, 47472, Note_on_c, 0, 63, 0
1, 47476, Note_on_c, 0, 56, 0
1, 47520, Note_on_c, 0, 68, 0
1, 47528, Note_on_c, 0, 80, 0
1, 47624, Control_c, 0, 64, 0
1, 47636, Note_on_c, 9, 40, 0
1, 47638, Note_on_c, 9, 40, 39
1, 47648, Note_on_c, 1, 37, 0
1, 47652, Note_on_c, 1, 43, 86
1, 47668, Note_on_c, 0, 79, 53
1, 47668, Note_on_c, 0, 60, 40
1, 47672, Note_on_c, 0, 67, 36
1, 47672, Note_on_c, 0, 55, 36
1, 47676, Note_on_c, 0, 74, 47
1, 47676, Note_on_c, 0, 62, 37
1, 47700, Note_on_c, 1, 53, 0
1, 47704, Control_c, 0, 64, 127
1, 48020, Note_on_c, 9, 40, 0
1, 48020, Note_on_c, 9, 40, 0
1, 48020, Note_on_c, 9, 44, 62
1, 48028, Note_on_c, 0, 67, 0
1, 48040, Note_on_c, 0, 74, 0
1, 48048, Note_on_c, 9, 40, 34
1, 48052, Note_on_c, 0, 62, 0
1, 48068, Note_on_c, 0, 60, 0
1, 48070, Note_on_c, 9, 37, 25
1, 48086, Note_on_c, 9, 37, 0
1, 48096, Note_on_c, 0, 55, 0
1, 48106, Note_on_c, 9, 44, 0
1, 48136, Note_on_c, 0, 79, 0
1, 48148, Note_on_c, 1, 38, 63
1, 48160, Note_on_c, 1, 43, 0
1, 48180, Note_on_c, 1, 38, 0
1, 48240, Note_on_c, 1, 37, 52
1, 48256, Note_on_c, 1, 37, 0
1, 48348, Note_on_c, 1, 35, 63
1, 48404, Note_on_c, 9, 40, 0
1, 48416, Control_c, 0, 64, 0
1, 48420, Note_on_c, 9, 40, 34
1, 48424, Note_on_c, 1, 35, 0
1, 48436, Note_on_c, 0, 62, 37
1, 48440, Note_on_c, 0, 58, 42
1, 48440, Note_on_c, 1, 36, 63
1, 48444, Note_on_c, 0, 52, 31
1, 48744, Note_on_c, 0, 85, 86
1, 48784, Note_on_c, 0, 85, 0
1, 48788, Note_on_c, 9, 40, 0
1, 48788, Note_on_c, 9, 44, 64
1, 48788, Note_on_c, 9, 40, 49
1, 48800, Note_on_c, 1, 36, 0
1, 48812, Note_on_c, 1, 48, 79
1, 48840, Note_on_c, 0, 87, 87
1, 48860, Note_on_c, 9, 44, 0
1, 48896, Note_on_c, 0, 62, 0
1, 48908, Note_on_c, 0, 58, 0
1, 48912, Note_on_c, 0, 87, 0
1, 48940, Note_on_c, 0, 88, 88
1, 48968, Note_on_c, 0, 62, 40
1, 48972, Note_on_c, 0, 58, 45
1, 48988, Note_on_c, 0, 88, 0
1, 49040, Note_on_c, 0, 85, 68
1, 49056, Note_on_c, 0, 62, 0
1, 49056, Note_on_c, 0, 52, 0
1, 49076, Note_on_c, 0, 58, 0
1, 49088, Note_on_c, 1, 48, 0
1, 49116, Note_on_c, 0, 85, 0
1, 49120, Note_on_c, 1, 40, 57
1, 49142, Note_on_c, 9, 35, 37
1, 49152, Note_on_c, 0, 84, 76
1, 49162, Note_on_c, 9, 40, 40
1, 49164, Note_on_c, 0, 63, 39
1, 49168, Note_on_c, 9, 35, 0
1, 49168, Note_on_c, 0, 60, 42
1, 49168, Note_on_c, 0, 53, 34
1, 49172, Note_on_c, 9, 40, 0
1, 49172, Note_on_c, 0, 56, 36
1, 49180, Note_on_c, 1, 40, 0
1, 49192, Note_on_c, 1, 41, 63
1, 49196, Note_on_c, 0, 84, 0
1, 49228, Note_on_c, 9, 35, 32
1, 49248, Note_on_c, 0, 82, 57
1, 49296, Note_on_c, 0, 82, 0
1, 49296, Note_on_c, 9, 35, 0
1, 49348, Note_on_c, 0, 80, 68
1, 49352, Note_on_c, 0, 82, 49
1, 49408, Note_on_c, 0, 82, 0
1, 49408, Note_on_c, 0, 80, 0
1, 49412, Note_on_c, 9, 59, 60
1, 49418, Note_on_c, 9, 35, 35
1, 49428, Note_on_c, 9, 59, 0
1, 49440, Note_on_c, 0, 79, 51
1, 49440, Note_on_c, 0, 82, 40
1, 49468, Note_on_c, 9, 35, 0
1, 49476, Note_on_c, 0, 79, 0
1, 49508, Note_on_c, 0, 82, 0
1, 49540, Note_on_c, 0, 77, 50
1, 49556, Note_on_c, 9, 40, 0
1, 49556, Note_on_c, 9, 44, 55
1, 49572, Note_on_c, 9, 40, 40
1, 49580, Note_on_c, 1, 35, 80
1, 49584, Note_on_c, 1, 41, 0
1, 49590, Note_on_c, 9, 44, 0
1, 49592, Note_on_c, 0, 77, 0
1, 49644, Note_on_c, 0, 75, 42
1, 49656, Note_on_c, 0, 82, 17
1, 49692, Note_on_c, 0, 63, 0
1, 49704, Note_on_c, 0, 60, 0
1, 49724, Note_on_c, 0, 75, 0
1, 49772, Note_on_c, 0, 53, 0
1, 49776, Control_c, 0, 64, 127
1, 49784, Note_on_c, 0, 63, 24
1, 49796, Note_on_c, 0, 72, 45
1, 49812, Note_on_c, 0, 56, 0
1, 49828, Note_on_c, 0, 63, 0
1, 49832, Note_on_c, 0, 82, 0
1, 49900, Note_on_c, 0, 72, 0
1, 49924, Note_on_c, 9, 40, 49
1, 49940, Note_on_c, 9, 40, 0
1, 49952, Control_c, 0, 64, 0
1, 49964, Note_on_c, 1, 35, 0
1, 49972, Note_on_c, 1, 34, 68
1, 49980, Note_on_c, 0, 67, 31
1, 49988, Note_on_c, 0, 74, 55
1, 49988, Note_on_c, 0, 56, 31
1, 50012, Note_on_c, 0, 62, 22
1, 50024, Control_c, 0, 64, 127
1, 50064, Note_on_c, 0, 74, 0
1, 50108, Note_on_c, 0, 75, 46
1, 50144, Note_on_c, 0, 75, 0
1, 50144, Note_on_c, 0, 67, 0
1, 50176, Note_on_c, 0, 77, 68
1, 50232, Note_on_c, 0, 77, 0
1, 50240, Note_on_c, 0, 62, 0
1, 50268, Note_on_c, 0, 56, 0
1, 50300, Note_on_c, 9, 39, 68
1, 50324, Note_on_c, 9, 40, 0
1, 50324, Note_on_c, 9, 44, 74
1, 50332, Note_on_c, 1, 40, 77
1, 50344, Note_on_c, 1, 34, 0
1, 50344, Control_c, 0, 64, 0
1, 50364, Note_on_c, 0, 56, 31
1, 50364, Note_on_c, 0, 70, 49
1, 50368, Note_on_c, 0, 67, 23
1, 50376, Note_on_c, 0, 62, 36
1, 50390, Note_on_c, 9, 44, 0
1, 50404, Control_c, 0, 64, 127
1, 50436, Note_on_c, 0, 67, 0
1, 50464, Note_on_c, 0, 62, 0
1, 50476, Note_on_c, 9, 39, 0
1, 50506, Note_on_c, 9, 40, 36
1, 50556, Note_on_c, 0, 56, 0
1, 50700, Note_on_c, 9, 40, 40
1, 50708, Note_on_c, 9, 40, 0
1, 50708, Note_on_c, 1, 40, 0
1, 50712, Note_on_c, 1, 39, 66
1, 50852, Note_on_c, 0, 70, 0
1, 50916, Note_on_c, 9, 40, 44
1, 51092, Note_on_c, 9, 40, 0
1, 51092, Note_on_c, 9, 44, 75
1, 51092, Note_on_c, 9, 44, 70
1, 51092, Note_on_c, 9, 44, 58
1, 51124, Note_on_c, 0, 79, 84
1, 51132, Note_on_c, 9, 44, 0
1, 51152, Note_on_c, 9, 44, 0
1, 51224, Note_on_c, 0, 79, 0
1, 51242, Note_on_c, 9, 44, 0
1, 51244, Note_on_c, 0, 74, 68
1, 51308, Note_on_c, 1, 46, 85
1, 51320, Note_on_c, 0, 74, 0
1, 51352, Note_on_c, 0, 72, 36
1, 51420, Note_on_c, 0, 72, 0
1, 51448, Note_on_c, 0, 77, 82
1, 51460, Note_on_c, 1, 46, 0
1, 51476, Note_on_c, 9, 40, 0
1, 51484, Control_c, 0, 64, 0
1, 51492, Note_on_c, 9, 40, 49
1, 51496, Note_on_c, 1, 46, 77
1, 51508, Note_on_c, 0, 68, 32
1, 51516, Note_on_c, 0, 77, 0
1, 51524, Note_on_c, 0, 63, 38
1, 51528, Note_on_c, 0, 58, 32
1, 51544, Note_on_c, 0, 75, 51
1, 51548, Note_on_c, 0, 60, 31
1, 51592, Note_on_c, 0, 68, 0
1, 51636, Note_on_c, 0, 63, 0
1, 51640, Note_on_c, 0, 72, 57
1, 51652, Note_on_c, 0, 60, 0
1, 51676, Control_c, 0, 64, 127
1, 51688, Note_on_c, 0, 58, 0
1, 51700, Note_on_c, 0, 72, 0
1, 51736, Note_on_c, 0, 68, 36
1, 51744, Note_on_c, 1, 39, 0
1, 51756, Note_on_c, 0, 75, 0
1, 51792, Note_on_c, 0, 68, 0
1, 51844, Note_on_c, 1, 46, 0
1, 51860, Note_on_c, 9, 40, 0
1, 51860, Note_on_c, 9, 44, 54
1, 51860, Note_on_c, 9, 44, 55
1, 51876, Note_on_c, 1, 46, 68
1, 51888, Control_c, 0, 64, 0
1, 51888, Note_on_c, 9, 40, 39
1, 51904, Note_on_c, 0, 65, 61
1, 51910, Note_on_c, 9, 44, 0
1, 51912, Note_on_c, 0, 56, 39
1, 51924, Note_on_c, 0, 68, 35
1, 51924, Control_c, 0, 64, 127
1, 51944, Note_on_c, 0, 68, 0
1, 52032, Note_on_c, 9, 44, 0
1, 52060, Note_on_c, 0, 65, 0
1, 52088, Note_on_c, 0, 56, 0
1, 52104, Note_on_c, 0, 46, 40
1, 52220, Note_on_c, 1, 46, 0
1, 52224, Control_c, 0, 64, 0
1, 52228, Note_on_c, 0, 46, 0
1, 52242, Control_c, 1, 0, 0
1, 52242, Control_c, 1, 32, 122
1, 52243, Control_c, 1, 0, 0
1, 52243, Control_c, 1, 32, 122
1, 52244, Note_on_c, 9, 40, 0
1, 52244, Control_c, 1, 0, 0
1, 52244, Control_c, 1, 32, 122
1, 52244, Control_c, 1, 0, 0
1, 52244, Control_c, 1, 32, 122
1, 52244, Control_c, 1, 0, 0
1, 52244, Control_c, 1, 32, 122
1, 52244, Control_c, 1, 91, 16
1, 52244, Control_c, 1, 0, 0
1, 52244, Control_c, 1, 7, 127
1, 52244, Control_c, 1, 32, 122
1, 52244, Control_c, 1, 11, 127
1, 52244, System_exclusive, 8, 67, 16, 76, 8, 1, 114, 64, 247
1, 52244, System_exclusive, 8, 67, 16, 76, 8, 1, 115, 64, 247
1, 52244, Control_c, 1, 94, 0
1, 52244, Note_on_c, 1, 45, 82
1, 52244, Control_c, 1, 10, 64
1, 52244, Control_c, 1, 93, 0
1, 52244, Program_c, 1, 32
1, 52244, Control_c, 1, 101, 0
1, 52245, Control_c, 1, 100, 1
1, 52246, Control_c, 1, 6, 64
1, 52247, Control_c, 1, 38, 0
1, 52276, Note_on_c, 9, 40, 40
1, 52284, Note_on_c, 0, 63, 46
1, 52288, Note_on_c, 0, 55, 39
1, 52296, Note_on_c, 0, 60, 45
1, 52300, Note_on_c, 0, 45, 32
1, 52408, Control_c, 0, 64, 127
1, 52420, Note_on_c, 0, 55, 0
1, 52440, Note_on_c, 0, 45, 0
1, 52452, Note_on_c, 0, 60, 0
1, 52500, Note_on_c, 0, 63, 0
1, 52628, Note_on_c, 9, 40, 0
1, 52628, Note_on_c, 9, 44, 56
1, 52628, Note_on_c, 9, 44, 60
1, 52660, Note_on_c, 0, 63, 28
1, 52662, Note_on_c, 9, 40, 39
1, 52676, Note_on_c, 9, 44, 0
1, 52680, Note_on_c, 0, 60, 29
1, 52680, Note_on_c, 0, 55, 34
1, 52680, Note_on_c, 0, 57, 33
1, 52688, Note_on_c, 9, 35, 29
1, 52692, Control_c, 0, 64, 0
1, 52700, Control_c, 0, 64, 127
1, 52704, Note_on_c, 9, 35, 0
1, 52756, Note_on_c, 9, 44, 0
1, 52772, Control_c, 0, 64, 0
1, 52808, Note_on_c, 0, 84, 51
1, 52824, Note_on_c, 0, 84, 0
1, 52836, Note_on_c, 0, 55, 0
1, 52848, Note_on_c, 0, 63, 0
1, 52858, Note_on_c, 9, 40, 42
1, 52860, Note_on_c, 0, 57, 0
1, 52864, Note_on_c, 0, 60, 0
1, 52920, Note_on_c, 0, 86, 98
1, 52924, Note_on_c, 0, 93, 76
1, 52976, Note_on_c, 0, 93, 0
1, 52976, Note_on_c, 1, 39, 55
1, 52992, Note_on_c, 0, 87, 77
1, 52996, Note_on_c, 0, 93, 21
1, 53000, Note_on_c, 1, 45, 0
1, 53000, Note_on_c, 0, 86, 0
1, 53008, Note_on_c, 0, 90, 38
1, 53012, Note_on_c, 9, 40, 0
1, 53016, Note_on_c, 0, 93, 0
1, 53016, Note_on_c, 1, 39, 0
1, 53032, Note_on_c, 0, 90, 0
1, 53040, Note_on_c, 0, 87, 0
1, 53044, Note_on_c, 9, 40, 44
1, 53048, Note_on_c, 1, 38, 59
1, 53068, Note_on_c, 0, 86, 86
1, 53068, Note_on_c, 0, 93, 81
1, 53080, Note_on_c, 0, 64, 43
1, 53084, Note_on_c, 0, 54, 38
1, 53084, Note_on_c, 0, 60, 42
1, 53124, Note_on_c, 0, 86, 0
1, 53140, Note_on_c, 0, 87, 68
1, 53168, Note_on_c, 0, 90, 24
1, 53176, Note_on_c, 0, 93, 0
1, 53188, Note_on_c, 0, 90, 0
1, 53196, Note_on_c, 0, 87, 0
1, 53216, Note_on_c, 0, 86, 74
1, 53220, Note_on_c, 0, 93, 57
1, 53242, Note_on_c, 9, 35, 27
1, 53360, Note_on_c, 9, 35, 0
1, 53396, Note_on_c, 9, 40, 0
1, 53396, Note_on_c, 9, 40, 0
1, 53396, Note_on_c, 9, 44, 51
1, 53396, Note_on_c, 9, 44, 62
1, 53404, Note_on_c, 9, 40, 36
1, 53424, Control_c, 0, 64, 127
1, 53428, Note_on_c, 9, 44, 0
1, 53436, Note_on_c, 0, 64, 0
1, 53460, Note_on_c, 0, 60, 0
1, 53484, Note_on_c, 0, 54, 0
1, 53500, Note_on_c, 9, 44, 0
1, 53532, Note_on_c, 1, 50, 71
1, 53552, Note_on_c, 1, 50, 0
1, 53556, Note_on_c, 1, 38, 0
1, 53564, Note_on_c, 0, 54, 46
1, 53600, Note_on_c, 1, 45, 65
1, 53660, Note_on_c, 0, 54, 0
1, 53680, Note_on_c, 1, 45, 0
1, 53708, Note_on_c, 1, 44, 68
1, 53732, Note_on_c, 0, 93, 0
1, 53752, Note_on_c, 0, 86, 0
1, 53760, Control_c, 0, 64, 0
1, 53768, Note_on_c, 1, 44, 0
1, 53780, Note_on_c, 9, 40, 0
1, 53788, Note_on_c, 1, 43, 62
1, 53796, Note_on_c, 0, 57, 32
1, 53796, Note_on_c, 0, 55, 32
1, 53796, Note_on_c, 9, 40, 39
1, 53800, Note_on_c, 0, 62, 22
1, 53800, Note_on_c, 0, 58, 35
1, 53876, Control_c, 0, 64, 127
1, 53996, Note_on_c, 0, 57, 0
1, 54000, Note_on_c, 0, 62, 0
1, 54008, Note_on_c, 0, 58, 0
1, 54020, Note_on_c, 0, 55, 0
1, 54096, Note_on_c, 1, 38, 49
1, 54104, Note_on_c, 1, 43, 0
1, 54144, Note_on_c, 1, 38, 0
1, 54164, Note_on_c, 9, 40, 0
1, 54164, Note_on_c, 1, 34, 66
1, 54164, Note_on_c, 9, 44, 58
1, 54164, Note_on_c, 9, 44, 60
1, 54180, Note_on_c, 0, 57, 32
1, 54180, Note_on_c, 0, 62, 31
1, 54188, Note_on_c, 0, 55, 39
1, 54188, Note_on_c, 0, 58, 38
1, 54192, Note_on_c, 9, 44, 0
1, 54198, Note_on_c, 9, 40, 36
1, 54268, Note_on_c, 9, 44, 0
1, 54292, Note_on_c, 0, 55, 0
1, 54296, Note_on_c, 0, 57, 0
1, 54308, Note_on_c, 0, 58, 0
1, 54320, Note_on_c, 0, 62, 0
1, 54396, Note_on_c, 9, 35, 28
1, 54428, Note_on_c, 9, 35, 0
1, 54548, Note_on_c, 9, 40, 0
1, 54552, Control_c, 0, 64, 0
1, 54556, Note_on_c, 9, 40, 42
1, 54572, Note_on_c, 0, 65, 32
1, 54572, Note_on_c, 0, 61, 39
1, 54576, Note_on_c, 0, 60, 39
1, 54576, Note_on_c, 0, 55, 33
1, 54588, Note_on_c, 1, 34, 0
1, 54588, Note_on_c, 1, 31, 75
1, 54592, Note_on_c, 0, 58, 31
1, 54696, Note_on_c, 0, 87, 86
1, 54756, Note_on_c, 0, 87, 0
1, 54768, Note_on_c, 0, 88, 82
1, 54772, Note_on_c, 9, 39, 36
1, 54780, Note_on_c, 0, 65, 0
1, 54808, Note_on_c, 0, 60, 0
1, 54820, Note_on_c, 0, 61, 0
1, 54832, Note_on_c, 0, 88, 0
1, 54836, Note_on_c, 0, 85, 81
1, 54840, Note_on_c, 0, 55, 0
1, 54852, Note_on_c, 0, 58, 0
1, 54896, Note_on_c, 0, 85, 0
1, 54896, Note_on_c, 0, 84, 70
1, 54928, Note_on_c, 0, 84, 0
1, 54932, Note_on_c, 9, 40, 0
1, 54932, Note_on_c, 9, 46, 44
1, 54932, Note_on_c, 9, 46, 34
1, 54934, Note_on_c, 9, 39, 0
1, 54954, Note_on_c, 9, 46, 0
1, 54954, Note_on_c, 9, 40, 36
1, 54956, Note_on_c, 1, 31, 0
1, 54960, Note_on_c, 0, 82, 81
1, 54968, Note_on_c, 1, 33, 80
1, 54976, Note_on_c, 0, 61, 38
1, 54980, Note_on_c, 1, 35, 55
1, 54984, Note_on_c, 0, 55, 38
1, 54984, Note_on_c, 0, 64, 27
1, 54992, Note_on_c, 1, 35, 0
1, 54992, Note_on_c, 0, 82, 0
1, 55040, Note_on_c, 0, 81, 70
1, 55044, Note_on_c, 9, 46, 0
1, 55080, Note_on_c, 0, 81, 0
1, 55104, Note_on_c, 0, 82, 39
1, 55132, Note_on_c, 0, 81, 62
1, 55152, Note_on_c, 9, 39, 35
1, 55156, Note_on_c, 0, 82, 0
1, 55176, Note_on_c, 0, 81, 0
1, 55180, Note_on_c, 0, 64, 0
1, 55184, Note_on_c, 0, 79, 54
1, 55192, Note_on_c, 0, 55, 0
1, 55216, Note_on_c, 0, 79, 0
1, 55244, Note_on_c, 0, 61, 0
1, 55244, Note_on_c, 0, 78, 54
1, 55248, Note_on_c, 9, 35, 31
1, 55258, Note_on_c, 9, 39, 0
1, 55276, Note_on_c, 1, 33, 0
1, 55276, Note_on_c, 9, 35, 0
1, 55280, Note_on_c, 1, 31, 67
1, 55296, Note_on_c, 0, 78, 0
1, 55302, Note_on_c, 9, 40, 24
1, 55312, Note_on_c, 0, 76, 53
1, 55316, Note_on_c, 9, 40, 0
1, 55336, Note_on_c, 1, 31, 0
1, 55340, Note_on_c, 9, 35, 37
1, 55344, Note_on_c, 1, 32, 72
1, 55348, Note_on_c, 0, 75, 61
1, 55348, Note_on_c, 9, 59, 40
1, 55350, Note_on_c, 0, 76, 0
1, 55350, Note_on_c, 9, 40, 34
1, 55356, Note_on_c, 0, 58, 38
1, 55368, Note_on_c, 0, 60, 32
1, 55372, Note_on_c, 0, 63, 17
1, 55380, Note_on_c, 0, 53, 18
1, 55396, Note_on_c, 0, 75, 0
1, 55412, Note_on_c, 0, 74, 46
1, 55428, Note_on_c, 9, 35, 0
1, 55436, Note_on_c, 9, 59, 0
1, 55448, Note_on_c, 0, 74, 0
1, 55460, Note_on_c, 0, 73, 57
1, 55504, Note_on_c, 0, 73, 0
1, 55516, Note_on_c, 0, 72, 48
1, 55536, Note_on_c, 9, 35, 37
1, 55540, Note_on_c, 9, 59, 31
1, 55560, Note_on_c, 0, 72, 0
1, 55612, Note_on_c, 9, 59, 0
1, 55616, Note_on_c, 9, 35, 0
1, 55616, Note_on_c, 0, 72, 40
1, 55636, Note_on_c, 0, 72, 0
1, 55700, Note_on_c, 9, 40, 0
1, 55700, Note_on_c, 9, 40, 0
1, 55700, Note_on_c, 0, 72, 46
1, 55700, Note_on_c, 9, 44, 79
1, 55700, Note_on_c, 9, 44, 34
1, 55702, Note_on_c, 9, 40, 31
1, 55724, Note_on_c, 0, 72, 0
1, 55784, Note_on_c, 0, 72, 44
1, 55808, Note_on_c, 0, 72, 0
1, 55808, Note_on_c, 9, 44, 0
1, 55808, Note_on_c, 9, 44, 0
1, 55864, Note_on_c, 0, 72, 47
1, 55888, Note_on_c, 0, 72, 0
1, 55948, Note_on_c, 0, 72, 47
1, 55968, Note_on_c, 0, 72, 0
1, 56020, Note_on_c, 0, 72, 45
1, 56044, Note_on_c, 0, 72, 0
1, 56076, Note_on_c, 9, 40, 34
1, 56084, Note_on_c, 9, 40, 0
1, 56092, Note_on_c, 1, 44, 54
1, 56096, Note_on_c, 0, 72, 50
1, 56124, Note_on_c, 0, 72, 0
1, 56140, Note_on_c, 1, 44, 0
1, 56164, Note_on_c, 1, 43, 46
1, 56168, Note_on_c, 0, 72, 53
1, 56188, Note_on_c, 1, 43, 0
1, 56220, Note_on_c, 1, 44, 78
1, 56412, Note_on_c, 0, 72, 0
1, 56420, Note_on_c, 0, 60, 0
1, 56428, Note_on_c, 0, 53, 0
1, 56428, Note_on_c, 0, 58, 0
1, 56432, Control_c, 0, 64, 127
1, 56440, Note_on_c, 0, 63, 0
1, 56444, Note_on_c, 9, 40, 42
1, 56468, Note_on_c, 9, 40, 0
1, 56468, Note_on_c, 9, 44, 55
1, 56468, Note_on_c, 9, 44, 50
1, 56522, Note_on_c, 9, 44, 0
1, 56576, Note_on_c, 9, 44, 0
1, 56680, Note_on_c, 0, 74, 81
1, 56684, Note_on_c, 0, 70, 70
1, 56688, Note_on_c, 0, 65, 54
1, 56692, Note_on_c, 0, 56, 57
1, 56696, Note_on_c, 0, 67, 53
1, 56712, Note_on_c, 0, 67, 0
1, 56752, Note_on_c, 0, 74, 0
1, 56756, Note_on_c, 0, 70, 0
1, 56764, Note_on_c, 1, 42, 56
1, 56764, Note_on_c, 9, 39, 53
1, 56768, Note_on_c, 0, 65, 0
1, 56792, Note_on_c, 1, 32, 0
1, 56796, Note_on_c, 1, 44, 0
1, 56806, Note_on_c, 9, 39, 0
1, 56816, Note_on_c, 1, 42, 0
1, 56836, Note_on_c, 1, 43, 66
1, 56838, Note_on_c, 9, 40, 47
1, 56844, Control_c, 0, 64, 0
1, 56848, Note_on_c, 1, 43, 0
1, 56852, Note_on_c, 0, 56, 0
1, 56852, Note_on_c, 9, 40, 0
1, 56860, Note_on_c, 0, 65, 69
1, 56864, Note_on_c, 0, 72, 68
1, 56864, Note_on_c, 0, 62, 65
1, 56868, Note_on_c, 0, 55, 54
1, 56940, Control_c, 0, 64, 127
1, 56952, Note_on_c, 1, 38, 51
1, 57000, Note_on_c, 1, 38, 0
1, 57004, Note_on_c, 0, 72, 0
1, 57020, Note_on_c, 1, 34, 60
1, 57040, Note_on_c, 9, 40, 36
1, 57044, Note_on_c, 0, 70, 66
1, 57108, Note_on_c, 0, 55, 0
1, 57140, Note_on_c, 0, 65, 0
1, 57164, Note_on_c, 0, 62, 0
1, 57200, Note_on_c, 0, 70, 0
1, 57236, Note_on_c, 9, 40, 0
1, 57236, Note_on_c, 9, 40, 0
1, 57236, Note_on_c, 0, 62, 41
1, 57236, Note_on_c, 0, 65, 59
1, 57236, Note_on_c, 9, 44, 57
1, 57236, Note_on_c, 9, 44, 44
1, 57248, Note_on_c, 0, 55, 33
1, 57270, Note_on_c, 9, 44, 0
1, 57356, Note_on_c, 9, 44, 0
1, 57356, Note_on_c, 0, 62, 0
1, 57368, Note_on_c, 0, 55, 0
1, 57428, Note_on_c, 0, 65, 0
1, 57428, Note_on_c, 9, 40, 36
1, 57432, Note_on_c, 0, 62, 51
1, 57468, Note_on_c, 0, 62, 0
1, 57604, Control_c, 0, 64, 0
1, 57610, Note_on_c, 9, 40, 49
1, 57616, Note_on_c, 1, 34, 0
1, 57616, Note_on_c, 0, 68, 48
1, 57616, Note_on_c, 0, 58, 45
1, 57624, Note_on_c, 0, 61, 48
1, 57624, Note_on_c, 0, 48, 42
1, 57624, Note_on_c, 1, 36, 58
1, 57636, Note_on_c, 0, 55, 36
1, 57640, Note_on_c, 0, 64, 40
1, 57700, Control_c, 0, 64, 127
1, 57808, Note_on_c, 0, 58, 0
1, 57832, Note_on_c, 0, 55, 0
1, 57836, Note_on_c, 9, 39, 32
1, 57852, Note_on_c, 0, 64, 0
1, 57876, Note_on_c, 0, 68, 0
1, 57896, Note_on_c, 0, 61, 0
1, 57992, Control_c, 0, 64, 0
1, 57994, Note_on_c, 9, 39, 0
1, 58004, Note_on_c, 9, 40, 0
1, 58004, Note_on_c, 9, 40, 0
1, 58004, Note_on_c, 9, 44, 58
1, 58004, Note_on_c, 9, 44, 48
1, 58020, Note_on_c, 0, 58, 42
1, 58020, Control_c, 0, 64, 127
1, 58022, Note_on_c, 9, 40, 34
1, 58024, Note_on_c, 0, 61, 41
1, 58028, Note_on_c, 0, 67, 38
1, 58028, Note_on_c, 1, 48, 120
1, 58040, Note_on_c, 0, 55, 26
1, 58084, Note_on_c, 0, 55, 0
1, 58084, Note_on_c, 9, 44, 0
1, 58102, Note_on_c, 9, 44, 0
1, 58116, Note_on_c, 0, 67, 0
1, 58136, Note_on_c, 0, 61, 0
1, 58140, Note_on_c, 0, 58, 0
1, 58176, Note_on_c, 0, 48, 0
1, 58324, Note_on_c, 9, 35, 31
1, 58342, Note_on_c, 9, 35, 0
1, 58388, Note_on_c, 9, 40, 0
1, 58394, Note_on_c, 9, 40, 34
1, 58396, Note_on_c, 1, 36, 0
1, 58404, Note_on_c, 9, 57, 29
1, 58404, Note_on_c, 9, 35, 24
1, 58424, Note_on_c, 1, 44, 94
1, 58432, Note_on_c, 9, 57, 0
1, 58432, Note_on_c, 0, 52, 102
1, 58436, Note_on_c, 9, 35, 0
1, 58440, Note_on_c, 1, 48, 0
1, 58444, Note_on_c, 0, 41, 51
1, 58448, Control_c, 0, 64, 104
1, 58448, Control_c, 0, 64, 0
1, 58544, Note_on_c, 0, 52, 0
1, 58556, Note_on_c, 0, 53, 83
1, 58648, Note_on_c, 0, 55, 75
1, 58664, Note_on_c, 0, 53, 0
1, 58748, Note_on_c, 0, 55, 0
1, 58756, Note_on_c, 0, 56, 82
1, 58768, Note_on_c, 9, 40, 42
1, 58772, Note_on_c, 9, 40, 0
1, 58772, Note_on_c, 9, 44, 73
1, 58776, Note_on_c, 0, 51, 39
1, 58848, Note_on_c, 0, 56, 0
1, 58852, Note_on_c, 0, 53, 57
1, 58920, Note_on_c, 1, 39, 57
1, 58940, Note_on_c, 0, 53, 0
1, 58940, Note_on_c, 0, 55, 80
1, 58952, Note_on_c, 1, 44, 0
1, 58964, Note_on_c, 1, 39, 0
1, 58984, Note_on_c, 0, 41, 0
1, 59008, Note_on_c, 0, 55, 0
1, 59020, Note_on_c, 0, 51, 0
1, 59028, Note_on_c, 0, 56, 75
1, 59032, Note_on_c, 1, 38, 71
1, 59120, Note_on_c, 0, 56, 0
1, 59128, Note_on_c, 0, 58, 72
1, 59148, Note_on_c, 1, 38, 0
1, 59156, Note_on_c, 9, 40, 0
1, 59164, Note_on_c, 1, 37, 68
1, 59168, Note_on_c, 9, 40, 36
1, 59194, Note_on_c, 9, 44, 0
1, 59224, Note_on_c, 0, 58, 0
1, 59228, Note_on_c, 0, 55, 52
1, 59232, Note_on_c, 0, 49, 46
1, 59312, Note_on_c, 0, 55, 0
1, 59328, Note_on_c, 0, 56, 67
1, 59404, Note_on_c, 0, 56, 0
1, 59416, Note_on_c, 0, 58, 55
1, 59496, Note_on_c, 0, 58, 0
1, 59516, Note_on_c, 0, 59, 68
1, 59532, Note_on_c, 0, 56, 41
1, 59540, Note_on_c, 9, 40, 0
1, 59540, Note_on_c, 9, 44, 77
1, 59562, Note_on_c, 9, 40, 44
1, 59568, Note_on_c, 0, 59, 0
1, 59592, Control_c, 0, 64, 127
1, 59600, Note_on_c, 0, 61, 43
1, 59672, Note_on_c, 0, 61, 0
1, 59696, Note_on_c, 0, 63, 55
1, 59704, Note_on_c, 0, 59, 39
1, 59744, Note_on_c, 0, 49, 0
1, 59744, Note_on_c, 0, 56, 0
1, 59748, Note_on_c, 0, 63, 0
1, 59772, Note_on_c, 0, 59, 0
1, 59780, Note_on_c, 0, 65, 47
1, 59844, Note_on_c, 0, 65, 0
1, 59860, Note_on_c, 1, 38, 56
1, 59888, Note_on_c, 1, 37, 0
1, 59888, Note_on_c, 0, 72, 72
1, 59908, Control_c, 0, 64, 0
1, 59912, Note_on_c, 1, 38, 0
1, 59924, Note_on_c, 9, 40, 0
1, 59932, Note_on_c, 0, 65, 22
1, 59940, Note_on_c, 9, 40, 33
1, 59944, Note_on_c, 0, 62, 33
1, 59948, Note_on_c, 0, 60, 31
1, 59952, Note_on_c, 0, 72, 0
1, 59952, Note_on_c, 1, 55, 63
1, 59956, Note_on_c, 0, 55, 32
1, 59956, Note_on_c, 1, 39, 60
1, 59980, Note_on_c, 9, 44, 0
1, 59984, Note_on_c, 0, 69, 41
1, 60048, Note_on_c, 1, 55, 0
1, 60060, Note_on_c, 1, 54, 38
1, 60064, Note_on_c, 0, 69, 0
1, 60076, Note_on_c, 0, 70, 52
1, 60084, Note_on_c, 1, 38, 50
1, 60088, Note_on_c, 1, 39, 0
1, 60128, Note_on_c, 1, 54, 0
1, 60128, Note_on_c, 0, 65, 0
1, 60132, Note_on_c, 0, 70, 0
1, 60160, Note_on_c, 1, 55, 40
1, 60160, Note_on_c, 1, 39, 57
1, 60164, Note_on_c, 1, 38, 0
1, 60172, Note_on_c, 0, 67, 30
1, 60196, Note_on_c, 0, 60, 0
1, 60212, Note_on_c, 0, 62, 0
1, 60304, Note_on_c, 0, 67, 0
1, 60308, Note_on_c, 9, 40, 0
1, 60308, Note_on_c, 9, 44, 70
1, 60326, Note_on_c, 9, 40, 40
1, 60352, Note_on_c, 0, 69, 46
1, 60356, Note_on_c, 0, 65, 27
1, 60368, Note_on_c, 0, 60, 29
1, 60384, Control_c, 0, 64, 127
1, 60460, Note_on_c, 0, 65, 0
1, 60472, Note_on_c, 0, 60, 0
1, 60496, Note_on_c, 0, 55, 0
1, 60504, Note_on_c, 0, 69, 0
1, 60676, Note_on_c, 9, 44, 0
1, 60688, Control_c, 0, 64, 0
1, 60692, Note_on_c, 9, 40, 0
1, 60720, Note_on_c, 1, 36, 76
1, 60724, Note_on_c, 1, 55, 0
1, 60730, Note_on_c, 9, 40, 44
1, 60736, Note_on_c, 1, 39, 0
1, 60752, Note_on_c, 0, 62, 37
1, 60756, Note_on_c, 0, 57, 30
1, 60760, Note_on_c, 0, 58, 33
1, 60784, Note_on_c, 0, 58, 0
1, 60788, Note_on_c, 0, 62, 0
1, 60804, Note_on_c, 0, 57, 0
1, 60936, Note_on_c, 0, 57, 38
1, 60936, Note_on_c, 0, 62, 35
1, 60944, Note_on_c, 0, 58, 40
1, 60984, Note_on_c, 0, 62, 0
1, 60984, Note_on_c, 0, 57, 0
1, 60996, Note_on_c, 0, 58, 0
1, 61014, Note_on_c, 9, 39, 46
1, 61060, Note_on_c, 9, 39, 0
1, 61076, Note_on_c, 9, 40, 0
1, 61076, Note_on_c, 9, 46, 39
1, 61092, Note_on_c, 9, 40, 33
1, 61094, Note_on_c, 9, 46, 0
1, 61132, Note_on_c, 1, 42, 89
1, 61136, Note_on_c, 1, 36, 0
1, 61176, Control_c, 0, 64, 127
1, 61244, Note_on_c, 0, 62, 36
1, 61248, Note_on_c, 0, 58, 42
1, 61248, Note_on_c, 0, 52, 36
1, 61292, Note_on_c, 9, 40, 34
1, 61304, Note_on_c, 0, 52, 0
1, 61320, Note_on_c, 0, 58, 0
1, 61344, Note_on_c, 0, 62, 0
1, 61460, Note_on_c, 9, 40, 0
1, 61472, Note_on_c, 9, 40, 37
1, 61476, Note_on_c, 1, 42, 0
1, 61504, Control_c, 0, 64, 0
1, 61508, Note_on_c, 1, 41, 78
1, 61512, Note_on_c, 0, 67, 31
1, 61512, Note_on_c, 0, 63, 39
1, 61516, Note_on_c, 0, 56, 29
1, 61524, Note_on_c, 0, 60, 46
1, 61700, Note_on_c, 0, 91, 77
1, 61704, Note_on_c, 0, 87, 79
1, 61720, Note_on_c, 0, 67, 0
1, 61736, Note_on_c, 0, 87, 0
1, 61740, Note_on_c, 0, 60, 0
1, 61744, Note_on_c, 0, 91, 0
1, 61756, Note_on_c, 0, 56, 0
1, 61760, Note_on_c, 0, 63, 0
1, 61760, Control_c, 0, 64, 127
1, 61776, Note_on_c, 0, 86, 38
1, 61796, Note_on_c, 0, 86, 0
1, 61796, Control_c, 0, 64, 0
1, 61812, Note_on_c, 1, 36, 63
1, 61836, Note_on_c, 0, 87, 75
1, 61836, Note_on_c, 0, 91, 79
1, 61844, Note_on_c, 9, 40, 0
1, 61844, Note_on_c, 9, 40, 0
1, 61844, Note_on_c, 0, 56, 41
1, 61844, Note_on_c, 0, 67, 36
1, 61844, Note_on_c, 9, 44, 52
1, 61852, Note_on_c, 1, 36, 0
1, 61852, Note_on_c, 0, 63, 40
1, 61856, Note_on_c, 0, 60, 46
1, 61876, Note_on_c, 9, 40, 40
1, 61888, Note_on_c, 1, 41, 0
1, 61892, Note_on_c, 1, 29, 83
1, 61916, Control_c, 0, 64, 127
1, 61926, Note_on_c, 9, 44, 0
1, 61940, Note_on_c, 0, 91, 0
1, 61944, Note_on_c, 0, 87, 0
1, 61972, Note_on_c, 0, 67, 0
1, 61972, Note_on_c, 0, 89, 60
1, 61980, Note_on_c, 0, 86, 50
1, 61988, Note_on_c, 0, 60, 0
1, 61988, Note_on_c, 0, 63, 0
1, 62012, Note_on_c, 0, 56, 0
1, 62016, Note_on_c, 0, 86, 0
1, 62020, Note_on_c, 0, 89, 0
1, 62052, Note_on_c, 0, 84, 42
1, 62052, Note_on_c, 0, 87, 31
1, 62056, Control_c, 0, 64, 0
1, 62072, Note_on_c, 0, 84, 0
1, 62080, Note_on_c, 0, 87, 0
1, 62108, Note_on_c, 0, 67, 34
1, 62108, Note_on_c, 0, 63, 45
1, 62108, Note_on_c, 0, 56, 35
1, 62112, Note_on_c, 0, 89, 68
1, 62112, Note_on_c, 0, 86, 66
1, 62116, Note_on_c, 0, 60, 49
1, 62132, Control_c, 0, 64, 127
1, 62188, Note_on_c, 0, 86, 0
1, 62188, Note_on_c, 0, 89, 0
1, 62200, Note_on_c, 0, 67, 0
1, 62212, Note_on_c, 0, 56, 0
1, 62220, Note_on_c, 0, 63, 0
1, 62228, Note_on_c, 9, 40, 0
1, 62232, Note_on_c, 0, 60, 0
1, 62252, Control_c, 0, 64, 0
1, 62256, Note_on_c, 1, 29, 0
1, 62264, Note_on_c, 1, 34, 82
1, 62266, Note_on_c, 9, 40, 34
1, 62268, Note_on_c, 0, 84, 61
1, 62276, Note_on_c, 0, 87, 57
1, 62304, Note_on_c, 0, 84, 0
1, 62320, Note_on_c, 0, 87, 0
1, 62408, Note_on_c, 0, 56, 42
1, 62408, Note_on_c, 0, 67, 39
1, 62408, Note_on_c, 0, 87, 63
1, 62408, Note_on_c, 0, 84, 63
1, 62412, Note_on_c, 0, 62, 46
1, 62456, Control_c, 0, 64, 127
1, 62512, Note_on_c, 0, 67, 0
1, 62516, Note_on_c, 0, 84, 0
1, 62520, Note_on_c, 0, 87, 0
1, 62544, Note_on_c, 0, 56, 0
1, 62552, Note_on_c, 0, 86, 55
1, 62568, Note_on_c, 0, 82, 32
1, 62596, Note_on_c, 0, 82, 0
1, 62600, Note_on_c, 0, 86, 0
1, 62612, Note_on_c, 9, 40, 0
1, 62612, Note_on_c, 9, 44, 61
1, 62624, Note_on_c, 9, 40, 34
1, 62636, Control_c, 0, 64, 0
1, 62640, Note_on_c, 0, 62, 0
1, 62676, Note_on_c, 0, 62, 24
1, 62680, Note_on_c, 0, 56, 46
1, 62684, Note_on_c, 0, 67, 39
1, 62684, Note_on_c, 0, 84, 45
1, 62688, Note_on_c, 0, 86, 57
1, 62700, Control_c, 0, 64, 127
1, 62732, Note_on_c, 9, 44, 0
1, 62752, Note_on_c, 0, 84, 0
1, 62768, Note_on_c, 0, 86, 0
1, 62796, Note_on_c, 0, 67, 0
1, 62844, Note_on_c, 0, 84, 57
1, 62844, Note_on_c, 0, 81, 52
1, 62872, Note_on_c, 0, 62, 0
1, 62876, Note_on_c, 0, 81, 0
1, 62892, Note_on_c, 0, 56, 0
1, 62904, Note_on_c, 0, 84, 0
1, 62924, Note_on_c, 0, 79, 28
1, 62940, Note_on_c, 0, 79, 0
1, 62940, Control_c, 0, 64, 0
1, 62976, Note_on_c, 0, 84, 56
1, 62980, Note_on_c, 0, 81, 58
1, 62984, Note_on_c, 0, 62, 37
1, 62988, Note_on_c, 0, 65, 36
1, 62988, Note_on_c, 0, 55, 42
1, 62988, Note_on_c, 0, 60, 45
1, 62996, Note_on_c, 9, 40, 0
1, 62998, Note_on_c, 9, 40, 31
1, 63064, Control_c, 0, 64, 127
1, 63088, Note_on_c, 0, 84, 0
1, 63092, Note_on_c, 0, 81, 0
1, 63112, Note_on_c, 0, 82, 63
1, 63128, Note_on_c, 0, 60, 0
1, 63128, Note_on_c, 0, 65, 0
1, 63132, Note_on_c, 0, 62, 0
1, 63148, Note_on_c, 0, 55, 0
1, 63164, Note_on_c, 0, 82, 0
1, 63204, Note_on_c, 1, 46, 89
1, 63220, Control_c, 0, 64, 0
1, 63240, Note_on_c, 1, 46, 0
1, 63248, Note_on_c, 0, 82, 61
1, 63252, Note_on_c, 0, 79, 56
1, 63252, Note_on_c, 0, 65, 37
1, 63256, Note_on_c, 0, 62, 40
1, 63256, Note_on_c, 0, 55, 38
1, 63256, Note_on_c, 0, 60, 42
1, 63324, Control_c, 0, 64, 127
1, 63376, Note_on_c, 0, 62, 0
1, 63380, Note_on_c, 9, 40, 0
1, 63380, Note_on_c, 1, 46, 85
1, 63380, Note_on_c, 9, 44, 62
1, 63400, Note_on_c, 0, 65, 0
1, 63402, Note_on_c, 9, 40, 34
1, 63408, Note_on_c, 0, 60, 0
1, 63412, Note_on_c, 0, 79, 0
1, 63412, Note_on_c, 1, 46, 0
1, 63440, Note_on_c, 9, 44, 0
1, 63456, Note_on_c, 0, 82, 0
1, 63556, Note_on_c, 0, 75, 56
1, 63560, Note_on_c, 1, 46, 85
1, 63576, Note_on_c, 0, 65, 33
1, 63584, Note_on_c, 0, 79, 35
1, 63584, Note_on_c, 0, 62, 31
1, 63588, Note_on_c, 0, 60, 31
1, 63608, Note_on_c, 0, 65, 0
1, 63616, Note_on_c, 0, 60, 0
1, 63616, Note_on_c, 0, 62, 0
1, 63620, Note_on_c, 0, 55, 0
1, 63628, Note_on_c, 1, 46, 0
1, 63644, Note_on_c, 0, 75, 0
1, 63660, Note_on_c, 0, 79, 0
1, 63728, Control_c, 0, 64, 0
1, 63740, Note_on_c, 1, 46, 81
1, 63760, Note_on_c, 0, 77, 70
1, 63760, Note_on_c, 0, 74, 66
1, 63764, Note_on_c, 9, 40, 0
1, 63764, Note_on_c, 0, 60, 46
1, 63768, Note_on_c, 0, 63, 43
1, 63768, Note_on_c, 0, 68, 37
1, 63772, Note_on_c, 9, 40, 36
1, 63796, Control_c, 0, 64, 127
1, 63816, Note_on_c, 1, 46, 0
1, 63848, Note_on_c, 1, 46, 61
1, 63880, Note_on_c, 0, 74, 0
1, 63896, Note_on_c, 1, 46, 0
1, 63928, Note_on_c, 1, 46, 78
1, 63944, Note_on_c, 0, 77, 0
1, 63944, Note_on_c, 0, 75, 64
1, 63952, Note_on_c, 0, 72, 56
1, 63962, Note_on_c, 9, 40, 31
1, 63976, Note_on_c, 0, 68, 0
1, 64004, Note_on_c, 0, 63, 0
1, 64012, Note_on_c, 0, 72, 0
1, 64012, Note_on_c, 0, 60, 0
1, 64072, Note_on_c, 0, 75, 0
1, 64112, Control_c, 0, 64, 0
1, 64140, Note_on_c, 0, 70, 55
1, 64144, Note_on_c, 0, 56, 38
1, 64148, Note_on_c, 9, 40, 0
1, 64148, Note_on_c, 0, 74, 55
1, 64148, Note_on_c, 0, 62, 41
1, 64148, Note_on_c, 0, 67, 31
1, 64148, Note_on_c, 9, 44, 51
1, 64148, Note_on_c, 9, 40, 44
1, 64164, Control_c, 0, 64, 127
1, 64176, Note_on_c, 0, 67, 0
1, 64208, Note_on_c, 1, 34, 0
1, 64244, Note_on_c, 0, 70, 0
1, 64246, Note_on_c, 9, 44, 0
1, 64288, Note_on_c, 0, 74, 0
1, 64328, Note_on_c, 0, 62, 0
1, 64352, Note_on_c, 1, 34, 59
1, 64392, Note_on_c, 0, 56, 0
1, 64436, Note_on_c, 0, 75, 62
1, 64444, Note_on_c, 0, 72, 57
1, 64452, Note_on_c, 9, 35, 27
1, 64468, Note_on_c, 9, 35, 0
1, 64488, Note_on_c, 0, 72, 0
1, 64516, Note_on_c, 0, 75, 0
1, 64532, Note_on_c, 9, 40, 0
1, 64532, Note_on_c, 9, 40, 0
1, 64536, Note_on_c, 1, 46, 0
1, 64540, Note_on_c, 9, 40, 50
1, 64544, Control_c, 0, 64, 0
1, 64552, Note_on_c, 1, 45, 98
1, 64564, Note_on_c, 0, 63, 42
1, 64568, Note_on_c, 0, 75, 74
1, 64572, Note_on_c, 1, 34, 0
1, 64572, Note_on_c, 0, 79, 75
1, 64576, Note_on_c, 0, 55, 48
1, 64576, Note_on_c, 0, 60, 22
1, 64580, Note_on_c, 0, 57, 40
1, 64700, Note_on_c, 0, 79, 0
1, 64700, Note_on_c, 0, 75, 0
1, 64724, Control_c, 0, 64, 127
1, 64744, Note_on_c, 0, 77, 72
1, 64756, Note_on_c, 0, 63, 0
1, 64760, Note_on_c, 0, 72, 49
1, 64792, Note_on_c, 0, 57, 0
1, 64828, Note_on_c, 0, 55, 0
1, 64836, Note_on_c, 0, 60, 0
1, 64860, Note_on_c, 0, 72, 0
1, 64868, Note_on_c, 0, 77, 0
1, 64916, Note_on_c, 9, 40, 0
1, 64916, Note_on_c, 9, 44, 52
1, 64940, Control_c, 0, 64, 0
1, 64940, Note_on_c, 9, 40, 34
1, 64948, Note_on_c, 0, 75, 60
1, 64952, Note_on_c, 0, 63, 38
1, 64952, Note_on_c, 0, 60, 38
1, 64956, Note_on_c, 0, 67, 44
1, 64960, Note_on_c, 0, 57, 36
1, 64960, Note_on_c, 0, 72, 46
1, 64964, Note_on_c, 0, 55, 36
1, 64980, Note_on_c, 9, 44, 0
1, 64980, Control_c, 0, 64, 127
1, 65048, Note_on_c, 0, 72, 0
1, 65100, Note_on_c, 0, 67, 0
1, 65116, Note_on_c, 0, 55, 0
1, 65120, Note_on_c, 0, 63, 0
1, 65128, Note_on_c, 0, 57, 0
1, 65144, Note_on_c, 0, 72, 60
1, 65152, Note_on_c, 0, 67, 45
1, 65204, Note_on_c, 1, 39, 57
1, 65212, Note_on_c, 0, 60, 0
1, 65216, Note_on_c, 0, 75, 0
1, 65220, Note_on_c, 0, 67, 0
1, 65236, Note_on_c, 1, 39, 0
1, 65238, Note_on_c, 9, 35, 33
1, 65244, Note_on_c, 0, 72, 0
1, 65254, Note_on_c, 9, 35, 0
1, 65276, Note_on_c, 1, 37, 65
1, 65300, Note_on_c, 9, 40, 0
1, 65312, Note_on_c, 1, 45, 0
1, 65316, Control_c, 0, 64, 0
1, 65332, Note_on_c, 9, 40, 50
1, 65340, Note_on_c, 1, 37, 0
1, 65344, Note_on_c, 0, 70, 50
1, 65344, Note_on_c, 0, 54, 41
1, 65344, Note_on_c, 0, 74, 57
1, 65344, Note_on_c, 0, 60, 35
1, 65344, Note_on_c, 0, 66, 38
1, 65348, Note_on_c, 1, 38, 76
1, 65392, Control_c, 0, 64, 127
1, 65516, Note_on_c, 0, 60, 0
1, 65552, Note_on_c, 0, 54, 0
1, 65616, Note_on_c, 0, 66, 0
1, 65684, Note_on_c, 9, 40, 0
1, 65684, Note_on_c, 9, 44, 55
1, 65696, Note_on_c, 0, 70, 0
1, 65712, Note_on_c, 0, 74, 0
1, 65712, Note_on_c, 9, 40, 46
1, 65736, Note_on_c, 0, 54, 39
1, 65744, Note_on_c, 9, 44, 0
1, 65744, Note_on_c, 0, 65, 36
1, 65748, Note_on_c, 0, 60, 41
1, 65872, Note_on_c, 0, 65, 0
1, 65876, Note_on_c, 0, 60, 0
1, 65892, Note_on_c, 9, 39, 46
1, 65928, Note_on_c, 1, 50, 56
1, 65932, Note_on_c, 0, 54, 0
1, 65940, Note_on_c, 1, 51, 30
1, 65960, Note_on_c, 1, 51, 0
1, 65990, Note_on_c, 9, 39, 0
1, 66068, Note_on_c, 9, 40, 0
1, 66076, Note_on_c, 1, 38, 0
1, 66084, Note_on_c, 1, 50, 0
1, 66092, Note_on_c, 9, 40, 34
1, 66112, Note_on_c, 1, 43, 71
1, 66124, Control_c, 0, 64, 0
1, 66136, Note_on_c, 0, 55, 33
1, 66136, Note_on_c, 0, 58, 44
1, 66136, Note_on_c, 0, 62, 33
1, 66136, Note_on_c, 0, 57, 36
1, 66244, Control_c, 1, 1, 3
1, 66248, Control_c, 1, 1, 6
1, 66252, Control_c, 1, 1, 10
1, 66256, Control_c, 1, 1, 14
1, 66260, Control_c, 1, 1, 19
1, 66264, Control_c, 1, 1, 24
1, 66268, Control_c, 1, 1, 29
1, 66272, Control_c, 1, 1, 34
1, 66276, Control_c, 1, 1, 41
1, 66280, Control_c, 1, 1, 48
1, 66284, Control_c, 1, 1, 55
1, 66288, Control_c, 1, 1, 62
1, 66292, Control_c, 1, 1, 68
1, 66296, Control_c, 1, 1, 75
1, 66300, Control_c, 1, 1, 81
1, 66304, Control_c, 1, 1, 86
1, 66308, Control_c, 1, 1, 92
1, 66312, Control_c, 1, 1, 97
1, 66316, Control_c, 1, 1, 101
1, 66320, Control_c, 1, 1, 106
1, 66324, Control_c, 1, 1, 111
1, 66328, Control_c, 1, 1, 115
1, 66332, Control_c, 1, 1, 118
1, 66336, Control_c, 1, 1, 122
1, 66340, Control_c, 1, 1, 125
1, 66344, Control_c, 1, 1, 127
1, 66360, Control_c, 0, 64, 127
1, 66452, Note_on_c, 9, 40, 0
1, 66452, Note_on_c, 9, 44, 56
1, 66464, Note_on_c, 9, 40, 36
1, 66488, Control_c, 1, 1, 126
1, 66492, Control_c, 1, 1, 125
1, 66496, Control_c, 1, 1, 124
1, 66500, Note_on_c, 9, 44, 0
1, 66500, Control_c, 1, 1, 123
1, 66504, Control_c, 1, 1, 121
1, 66508, Control_c, 1, 1, 119
1, 66512, Control_c, 1, 1, 117
1, 66516, Control_c, 1, 1, 115
1, 66520, Control_c, 0, 64, 0
1, 66520, Control_c, 1, 1, 112
1, 66524, Control_c, 1, 1, 108
1, 66528, Control_c, 1, 1, 104
1, 66532, Control_c, 1, 1, 100
1, 66536, Control_c, 1, 1, 96
1, 66540, Control_c, 1, 1, 90
1, 66544, Control_c, 1, 1, 85
1, 66548, Control_c, 1, 1, 79
1, 66552, Control_c, 1, 1, 72
1, 66556, Control_c, 1, 1, 65
1, 66560, Control_c, 1, 1, 58
1, 66564, Control_c, 1, 1, 50
1, 66568, Control_c, 1, 1, 43
1, 66572, Control_c, 1, 1, 34
1, 66576, Control_c, 1, 1, 27
1, 66580, Control_c, 1, 1, 19
1, 66584, Note_on_c, 0, 75, 76
1, 66584, Control_c, 1, 1, 10
1, 66588, Control_c, 1, 1, 3
1, 66592, Control_c, 1, 1, 0
1, 66632, Note_on_c, 0, 75, 0
1, 66636, Note_on_c, 0, 73, 45
1, 66664, Note_on_c, 0, 73, 0
1, 66688, Note_on_c, 0, 74, 79
1, 66758, Note_on_c, 9, 35, 30
1, 66764, Note_on_c, 0, 74, 0
1, 66776, Note_on_c, 0, 69, 56
1, 66804, Note_on_c, 0, 69, 0
1, 66804, Note_on_c, 9, 35, 0
1, 66812, Note_on_c, 0, 57, 0
1, 66816, Note_on_c, 0, 55, 0
1, 66824, Note_on_c, 0, 58, 0
1, 66828, Note_on_c, 0, 62, 0
1, 66836, Note_on_c, 9, 40, 0
1, 66852, Note_on_c, 9, 40, 37
1, 66854, Note_on_c, 9, 35, 36
1, 66854, Note_on_c, 9, 59, 34
1, 66880, Note_on_c, 9, 35, 0
1, 66886, Note_on_c, 9, 59, 0
1, 66888, Note_on_c, 0, 72, 70
1, 66944, Note_on_c, 0, 72, 0
1, 66960, Note_on_c, 0, 70, 65
1, 67000, Note_on_c, 0, 70, 0
1, 67032, Note_on_c, 0, 69, 56
1, 67032, Note_on_c, 0, 60, 36
1, 67036, Note_on_c, 0, 65, 46
1, 67044, Note_on_c, 0, 61, 39
1, 67044, Note_on_c, 9, 59, 38
1, 67044, Note_on_c, 9, 35, 32
1, 67072, Note_on_c, 0, 61, 0
1, 67072, Note_on_c, 0, 65, 0
1, 67076, Note_on_c, 0, 60, 0
1, 67088, Note_on_c, 9, 59, 0
1, 67092, Note_on_c, 9, 35, 0
1, 67104, Note_on_c, 0, 69, 0
1, 67124, Note_on_c, 0, 70, 58
1, 67156, Note_on_c, 0, 70, 0
1, 67220, Note_on_c, 9, 40, 0
1, 67220, Note_on_c, 9, 46, 25
1, 67228, Note_on_c, 9, 40, 42
1, 67252, Note_on_c, 0, 65, 51
1, 67256, Note_on_c, 0, 61, 43
1, 67260, Note_on_c, 0, 60, 34
1, 67268, Note_on_c, 9, 46, 0
1, 67280, Note_on_c, 0, 55, 28
1, 67392, Note_on_c, 0, 65, 0
1, 67404, Note_on_c, 0, 70, 71
1, 67408, Note_on_c, 0, 60, 0
1, 67412, Control_c, 0, 64, 127
1, 67412, Note_on_c, 0, 65, 75
1, 67424, Note_on_c, 0, 61, 0
1, 67440, Note_on_c, 0, 55, 0
1, 67484, Note_on_c, 0, 65, 0
1, 67500, Note_on_c, 0, 70, 0
1, 67528, Note_on_c, 0, 63, 68
1, 67536, Note_on_c, 1, 33, 63
1, 67560, Note_on_c, 0, 45, 28
1, 67584, Note_on_c, 0, 45, 0
1, 67592, Note_on_c, 0, 63, 0
1, 67604, Note_on_c, 9, 40, 0
1, 67606, Note_on_c, 9, 40, 50
1, 67612, Note_on_c, 1, 33, 0
1, 67612, Control_c, 0, 64, 0
1, 67612, Note_on_c, 9, 40, 40
1, 67620, Note_on_c, 1, 43, 0
1, 67624, Note_on_c, 1, 32, 65
1, 67644, Note_on_c, 0, 60, 54
1, 67652, Note_on_c, 0, 44, 46
1, 67660, Note_on_c, 0, 55, 31
1, 67704, Control_c, 0, 64, 127
1, 67764, Note_on_c, 0, 55, 0
1, 67812, Note_on_c, 0, 60, 0
1, 67944, Note_on_c, 0, 63, 60
1, 67944, Note_on_c, 0, 55, 66
1, 67948, Note_on_c, 0, 58, 61
1, 67952, Note_on_c, 0, 51, 63
1, 67952, Control_c, 0, 64, 0
1, 67952, Note_on_c, 0, 60, 57
1, 67988, Note_on_c, 9, 40, 0
1, 67988, Note_on_c, 9, 40, 0
1, 67988, Note_on_c, 9, 44, 69
1, 67994, Note_on_c, 9, 40, 47
1, 68008, Note_on_c, 0, 55, 0
1, 68016, Note_on_c, 0, 60, 0
1, 68016, Note_on_c, 0, 63, 0
1, 68024, Note_on_c, 0, 51, 0
1, 68028, Note_on_c, 0, 58, 0
1, 68052, Note_on_c, 0, 50, 27
1, 68096, Note_on_c, 9, 44, 0
1, 68160, Note_on_c, 0, 50, 0
1, 68168, Note_on_c, 0, 51, 51
1, 68168, Note_on_c, 0, 55, 52
1, 68168, Note_on_c, 0, 63, 45
1, 68168, Note_on_c, 0, 58, 52
1, 68172, Note_on_c, 0, 60, 52
1, 68176, Note_on_c, 9, 39, 62
1, 68180, Control_c, 0, 64, 127
1, 68184, Note_on_c, 1, 39, 63
1, 68204, Note_on_c, 1, 32, 0
1, 68320, Note_on_c, 0, 55, 0
1, 68336, Note_on_c, 0, 60, 0
1, 68352, Note_on_c, 9, 39, 0
1, 68356, Note_on_c, 0, 51, 0
1, 68360, Note_on_c, 0, 58, 0
1, 68368, Note_on_c, 0, 63, 0
1, 68368, Note_on_c, 0, 44, 0
1, 68368, Note_on_c, 9, 40, 40
1, 68372, Note_on_c, 9, 40, 0
1, 68376, Note_on_c, 1, 46, 79
1, 68400, Note_on_c, 1, 39, 0
1, 68548, Note_on_c, 1, 46, 0
1, 68572, Note_on_c, 1, 46, 74
1, 68676, Control_c, 0, 64, 0
1, 68756, Note_on_c, 9, 40, 0
1, 68756, Note_on_c, 9, 44, 53
1, 68758, Note_on_c, 9, 40, 39
1, 68760, Note_on_c, 1, 44, 72
1, 68780, Note_on_c, 1, 46, 0
1, 68848, Note_on_c, 9, 44, 0
1, 68896, Note_on_c, 0, 63, 52
1, 68896, Note_on_c, 0, 60, 52
1, 68900, Note_on_c, 0, 66, 49
1, 68900, Note_on_c, 0, 72, 47
1, 68928, Note_on_c, 0, 63, 0
1, 68932, Note_on_c, 0, 66, 0
1, 68948, Note_on_c, 0, 60, 0
1, 68956, Note_on_c, 0, 72, 0
1, 69028, Note_on_c, 0, 63, 49
1, 69032, Note_on_c, 0, 66, 48
1, 69040, Note_on_c, 0, 57, 38
1, 69040, Note_on_c, 0, 69, 43
1, 69062, Note_on_c, 9, 35, 48
1, 69078, Note_on_c, 9, 35, 0
1, 69080, Note_on_c, 0, 66, 0
1, 69080, Note_on_c, 0, 69, 0
1, 69096, Note_on_c, 0, 63, 0
1, 69136, Note_on_c, 0, 57, 0
1, 69140, Note_on_c, 9, 40, 0
1, 69140, Note_on_c, 9, 59, 40
1, 69140, Note_on_c, 9, 40, 36
1, 69142, Note_on_c, 9, 35, 35
1, 69160, Note_on_c, 1, 43, 66
1, 69164, Note_on_c, 1, 44, 0
1, 69164, Note_on_c, 0, 62, 48
1, 69168, Note_on_c, 0, 58, 38
1, 69168, Note_on_c, 0, 70, 46
1, 69184, Note_on_c, 0, 67, 33
1, 69190, Note_on_c, 9, 59, 0
1, 69200, Note_on_c, 9, 35, 0
1, 69284, Note_on_c, 1, 43, 0
1, 69284, Note_on_c, 1, 38, 54
1, 69308, Note_on_c, 1, 38, 0
1, 69352, Note_on_c, 1, 34, 57
1, 69444, Note_on_c, 0, 62, 0
1, 69456, Note_on_c, 0, 67, 0
1, 69524, Note_on_c, 9, 40, 0
1, 69524, Note_on_c, 0, 58, 0
1, 69524, Note_on_c, 9, 44, 71
1, 69530, Note_on_c, 9, 40, 34
1, 69556, Note_on_c, 0, 70, 0
1, 69588, Note_on_c, 9, 44, 0
1, 69720, Note_on_c, 1, 31, 69
1, 69728, Note_on_c, 1, 34, 0
1, 69876, Note_on_c, 0, 82, 44
1, 69892, Note_on_c, 0, 82, 0
1, 69908, Note_on_c, 9, 40, 0
1, 69910, Note_on_c, 9, 40, 44
1, 69924, Note_on_c, 9, 35, 32
1, 69928, Note_on_c, 0, 70, 48
1, 69928, Note_on_c, 0, 85, 52
1, 69952, Note_on_c, 9, 35, 0
1, 70036, Note_on_c, 0, 70, 0
1, 70048, Note_on_c, 0, 85, 0
1, 70076, Note_on_c, 0, 82, 31
1, 70096, Note_on_c, 0, 82, 0
1, 70112, Note_on_c, 1, 36, 77
1, 70118, Note_on_c, 9, 35, 35
1, 70120, Note_on_c, 1, 31, 0
1, 70124, Note_on_c, 0, 85, 58
1, 70128, Note_on_c, 0, 63, 39
1, 70132, Note_on_c, 0, 70, 39
1, 70140, Note_on_c, 0, 58, 40
1, 70148, Note_on_c, 0, 52, 32
1, 70212, Note_on_c, 9, 35, 0
1, 70224, Note_on_c, 0, 85, 0
1, 70236, Note_on_c, 0, 70, 0
1, 70264, Note_on_c, 0, 85, 52
1, 70288, Note_on_c, 9, 40, 42
1, 70292, Note_on_c, 9, 40, 0
1, 70292, Note_on_c, 9, 46, 55
1, 70300, Note_on_c, 1, 48, 98
1, 70316, Note_on_c, 0, 52, 0
1, 70320, Note_on_c, 9, 46, 0
1, 70320, Note_on_c, 0, 85, 0
1, 70328, Note_on_c, 0, 63, 0
1, 70328, Note_on_c, 0, 58, 0
1, 70436, Note_on_c, 0, 82, 56
1, 70436, Note_on_c, 0, 70, 54
1, 70438, Note_on_c, 9, 35, 60
1, 70440, Note_on_c, 0, 63, 38
1, 70448, Control_c, 0, 64, 127
1, 70452, Note_on_c, 0, 58, 39
1, 70460, Note_on_c, 0, 52, 32
1, 70464, Note_on_c, 9, 35, 0
1, 70488, Note_on_c, 1, 45, 74
1, 70496, Note_on_c, 1, 48, 0
1, 70516, Note_on_c, 9, 35, 47
1, 70516, Note_on_c, 9, 59, 26
1, 70532, Note_on_c, 9, 59, 0
1, 70534, Note_on_c, 9, 35, 0
1, 70552, Note_on_c, 0, 52, 0
1, 70576, Note_on_c, 0, 58, 0
1, 70584, Note_on_c, 0, 70, 0
1, 70600, Note_on_c, 0, 82, 0
1, 70608, Note_on_c, 0, 63, 0
1, 70656, Control_c, 0, 64, 0
1, 70656, Note_on_c, 9, 40, 46
1, 70676, Note_on_c, 1, 45, 0
1, 70676, Note_on_c, 9, 40, 0
1, 70680, Note_on_c, 1, 44, 78
1, 70688, Note_on_c, 0, 84, 49
1, 70692, Note_on_c, 0, 63, 36
1, 70692, Note_on_c, 9, 35, 47
1, 70692, Note_on_c, 9, 59, 54
1, 70710, Note_on_c, 9, 59, 0
1, 70712, Note_on_c, 1, 36, 0
1, 70712, Note_on_c, 0, 56, 34
1, 70714, Note_on_c, 9, 35, 0
1, 70716, Note_on_c, 0, 53, 22
1, 70740, Note_on_c, 0, 53, 0
1, 70740, Note_on_c, 0, 56, 0
1, 70740, Note_on_c, 0, 84, 0
1, 70740, Note_on_c, 0, 63, 0
1, 70868, Note_on_c, 0, 63, 36
1, 70876, Note_on_c, 0, 84, 45
1, 70880, Note_on_c, 0, 72, 35
1, 70880, Note_on_c, 0, 53, 33
1, 70880, Note_on_c, 0, 77, 41
1, 70880, Note_on_c, 0, 80, 37
1, 70888, Note_on_c, 0, 56, 38
1, 70892, Note_on_c, 0, 60, 39
1, 70900, Note_on_c, 9, 59, 61
1, 70902, Note_on_c, 9, 35, 32
1, 70934, Note_on_c, 9, 59, 0
1, 70982, Note_on_c, 9, 35, 0
1, 71052, Control_c, 0, 64, 127
1, 71060, Note_on_c, 9, 40, 0
1, 71060, Note_on_c, 9, 44, 45
1, 71078, Note_on_c, 9, 40, 39
1, 71114, Note_on_c, 9, 44, 0
1, 71144, Note_on_c, 0, 72, 0
1, 71152, Note_on_c, 0, 60, 0
1, 71152, Note_on_c, 0, 77, 0
1, 71152, Note_on_c, 0, 53, 0
1, 71160, Note_on_c, 0, 63, 0
1, 71172, Note_on_c, 0, 56, 0
1, 71192, Note_on_c, 0, 80, 0
1, 71196, Note_on_c, 0, 84, 0
1, 71200, Note_on_c, 1, 39, 58
1, 71248, Note_on_c, 1, 44, 0
1, 71316, Note_on_c, 1, 39, 0
1, 71336, Note_on_c, 1, 38, 63
1, 71444, Note_on_c, 9, 40, 0
1, 71460, Note_on_c, 9, 40, 46
1, 71480, Note_on_c, 1, 38, 0
1, 71480, Note_on_c, 1, 53, 50
1, 71480, Note_on_c, 1, 37, 53
1, 71828, Note_on_c, 9, 40, 0
1, 71828, Note_on_c, 9, 44, 70
1, 71836, Note_on_c, 9, 40, 31
1, 71930, Note_on_c, 9, 44, 0
1, 72044, Control_c, 0, 64, 0
1, 72132, Note_on_c, 1, 37, 0
1, 72132, Note_on_c, 1, 38, 49
1, 72136, Note_on_c, 1, 53, 0
1, 72140, Note_on_c, 0, 75, 80
1, 72144, Note_on_c, 0, 70, 75
1, 72144, Note_on_c, 0, 59, 61
1, 72144, Note_on_c, 0, 79, 75
1, 72144, Note_on_c, 1, 54, 42
1, 72148, Note_on_c, 0, 64, 62
1, 72152, Note_on_c, 0, 53, 54
1, 72212, Note_on_c, 9, 40, 0
1, 72216, Control_c, 0, 64, 127
1, 72220, Note_on_c, 1, 38, 0
1, 72230, Note_on_c, 9, 40, 52
1, 72232, Note_on_c, 0, 64, 0
1, 72232, Note_on_c, 0, 59, 0
1, 72232, Note_on_c, 0, 79, 0
1, 72232, Note_on_c, 1, 54, 0
1, 72236, Note_on_c, 0, 70, 0
1, 72236, Note_on_c, 0, 53, 0
1, 72236, Note_on_c, 1, 39, 50
1, 72240, Note_on_c, 1, 55, 48
1, 72256, Note_on_c, 0, 75, 0
1, 72264, Control_c, 0, 64, 0
1, 72304, Note_on_c, 0, 77, 68
1, 72304, Note_on_c, 0, 68, 61
1, 72304, Note_on_c, 0, 73, 66
1, 72308, Note_on_c, 0, 65, 61
1, 72316, Note_on_c, 0, 60, 42
1, 72324, Note_on_c, 0, 65, 0
1, 72324, Note_on_c, 0, 68, 0
1, 72356, Note_on_c, 0, 77, 0
1, 72356, Note_on_c, 0, 73, 0
1, 72364, Note_on_c, 0, 60, 0
1, 72448, Note_on_c, 0, 75, 60
1, 72448, Note_on_c, 0, 62, 42
1, 72452, Note_on_c, 0, 70, 54
1, 72456, Note_on_c, 0, 67, 44
1, 72460, Note_on_c, 0, 60, 39
1, 72476, Note_on_c, 0, 67, 0
1, 72480, Note_on_c, 0, 60, 0
1, 72488, Note_on_c, 0, 70, 0
1, 72492, Note_on_c, 0, 75, 0
1, 72496, Note_on_c, 0, 62, 0
1, 72584, Control_c, 0, 64, 127
1, 72588, Note_on_c, 0, 65, 44
1, 72592, Note_on_c, 0, 62, 39
1, 72592, Note_on_c, 0, 67, 48
1, 72596, Note_on_c, 9, 40, 0
1, 72596, Note_on_c, 0, 74, 49
1, 72596, Note_on_c, 0, 70, 33
1, 72596, Note_on_c, 9, 44, 75
1, 72600, Note_on_c, 0, 60, 38
1, 72612, Note_on_c, 0, 55, 34
1, 72620, Control_c, 0, 64, 0
1, 72628, Note_on_c, 9, 40, 33
1, 72632, Control_c, 0, 64, 127
1, 72652, Note_on_c, 0, 70, 0
1, 72652, Note_on_c, 0, 62, 0
1, 72656, Note_on_c, 0, 60, 0
1, 72660, Note_on_c, 0, 65, 0
1, 72660, Note_on_c, 0, 55, 0
1, 72660, Note_on_c, 0, 67, 0
1, 72680, Note_on_c, 0, 74, 0
1, 72700, Note_on_c, 0, 70, 57
1, 72704, Note_on_c, 0, 65, 47
1, 72708, Note_on_c, 9, 44, 0
1, 72708, Note_on_c, 0, 62, 39
1, 72720, Note_on_c, 0, 55, 27
1, 72724, Note_on_c, 0, 60, 20
1, 72760, Note_on_c, 0, 60, 0
1, 72760, Note_on_c, 0, 65, 0
1, 72764, Note_on_c, 0, 62, 0
1, 72808, Note_on_c, 0, 55, 0
1, 72812, Note_on_c, 0, 70, 0
1, 72824, Note_on_c, 0, 65, 45
1, 72848, Note_on_c, 0, 65, 0
1, 72916, Control_c, 0, 64, 0
1, 72948, Note_on_c, 0, 70, 54
1, 72948, Note_on_c, 0, 62, 57
1, 72952, Note_on_c, 0, 54, 42
1, 72952, Note_on_c, 0, 65, 57
1, 72952, Note_on_c, 0, 55, 55
1, 72968, Note_on_c, 0, 65, 0
1, 72980, Note_on_c, 9, 40, 0
1, 72980, Note_on_c, 0, 70, 0
1, 72980, Note_on_c, 0, 54, 0
1, 72988, Note_on_c, 9, 40, 31
1, 72996, Note_on_c, 0, 62, 0
1, 73000, Note_on_c, 0, 55, 0
1, 73136, Note_on_c, 0, 62, 57
1, 73136, Note_on_c, 0, 58, 57
1, 73144, Note_on_c, 0, 50, 45
1, 73176, Note_on_c, 0, 58, 0
1, 73184, Note_on_c, 0, 62, 0
1, 73188, Note_on_c, 0, 50, 0
1, 73208, Note_on_c, 0, 58, 61
1, 73224, Note_on_c, 0, 55, 49
1, 73224, Note_on_c, 0, 62, 49
1, 73228, Note_on_c, 0, 65, 49
1, 73248, Note_on_c, 0, 65, 0
1, 73260, Note_on_c, 0, 58, 0
1, 73260, Note_on_c, 0, 62, 0
1, 73316, Note_on_c, 0, 55, 0
1, 73336, Note_on_c, 0, 51, 49
1, 73352, Note_on_c, 1, 55, 0
1, 73356, Note_on_c, 1, 39, 0
1, 73356, Note_on_c, 1, 36, 58
1, 73364, Note_on_c, 9, 40, 0
1, 73364, Note_on_c, 9, 44, 69
1, 73364, Note_on_c, 9, 40, 33
1, 73376, Note_on_c, 0, 51, 0
1, 73392, Note_on_c, 0, 54, 45
1, 73400, Note_on_c, 0, 58, 56
1, 73400, Note_on_c, 0, 61, 55
1, 73408, Note_on_c, 0, 68, 46
1, 73416, Note_on_c, 0, 64, 45
1, 73476, Note_on_c, 0, 64, 0
1, 73476, Note_on_c, 0, 68, 0
1, 73476, Note_on_c, 9, 44, 0
1, 73484, Note_on_c, 9, 39, 56
1, 73492, Note_on_c, 0, 58, 0
1, 73496, Note_on_c, 0, 54, 0
1, 73496, Note_on_c, 0, 61, 0
1, 73516, Note_on_c, 0, 51, 46
1, 73564, Note_on_c, 0, 51, 0
1, 73572, Note_on_c, 0, 58, 57
1, 73572, Note_on_c, 0, 61, 54
1, 73580, Note_on_c, 0, 53, 44
1, 73580, Note_on_c, 0, 67, 45
1, 73588, Note_on_c, 0, 64, 43
1, 73640, Note_on_c, 0, 64, 0
1, 73642, Note_on_c, 9, 39, 0
1, 73644, Note_on_c, 0, 67, 0
1, 73668, Note_on_c, 0, 61, 0
1, 73670, Note_on_c, 0, 58, 0
1, 73670, Note_on_c, 9, 40, 39
1, 73672, Note_on_c, 0, 53, 0
1, 73688, Note_on_c, 0, 49, 43
1, 73732, Note_on_c, 0, 49, 0
1, 73744, Note_on_c, 0, 56, 58
1, 73748, Note_on_c, 9, 40, 0
1, 73752, Note_on_c, 0, 63, 48
1, 73754, Note_on_c, 9, 40, 24
1, 73756, Note_on_c, 0, 60, 48
1, 73760, Note_on_c, 0, 67, 40
1, 73760, Note_on_c, 1, 29, 76
1, 73768, Note_on_c, 1, 36, 0
1, 73884, Note_on_c, 0, 67, 0
1, 73888, Note_on_c, 0, 56, 0
1, 73900, Note_on_c, 0, 60, 0
1, 73928, Note_on_c, 0, 56, 42
1, 73928, Note_on_c, 0, 65, 49
1, 73936, Note_on_c, 0, 53, 42
1, 73940, Note_on_c, 0, 60, 45
1, 74040, Note_on_c, 0, 60, 0
1, 74040, Note_on_c, 0, 56, 0
1, 74052, Note_on_c, 0, 63, 0
1, 74096, Note_on_c, 0, 65, 0
1, 74116, Note_on_c, 0, 56, 48
1, 74120, Note_on_c, 0, 53, 0
1, 74124, Note_on_c, 0, 63, 47
1, 74124, Note_on_c, 9, 40, 34
1, 74128, Note_on_c, 0, 51, 42
1, 74132, Note_on_c, 9, 40, 0
1, 74132, Note_on_c, 9, 40, 0
1, 74132, Note_on_c, 0, 60, 46
1, 74132, Note_on_c, 9, 44, 69
1, 74200, Control_c, 0, 64, 127
1, 74204, Note_on_c, 0, 60, 0
1, 74236, Note_on_c, 0, 51, 0
1, 74250, Note_on_c, 9, 44, 0
1, 74256, Note_on_c, 0, 51, 20
1, 74256, Note_on_c, 0, 60, 43
1, 74272, Note_on_c, 0, 56, 0
1, 74296, Note_on_c, 0, 60, 0
1, 74300, Note_on_c, 0, 63, 0
1, 74328, Control_c, 0, 64, 0
1, 74368, Note_on_c, 0, 51, 0
1, 74424, Note_on_c, 0, 46, 45
1, 74428, Note_on_c, 0, 60, 52
1, 74428, Note_on_c, 0, 63, 49
1, 74428, Note_on_c, 0, 56, 29
1, 74460, Note_on_c, 0, 56, 0
1, 74460, Note_on_c, 0, 60, 0
1, 74480, Note_on_c, 0, 46, 0
1, 74480, Note_on_c, 0, 63, 0
1, 74504, Note_on_c, 1, 29, 0
1, 74512, Note_on_c, 9, 40, 36
1, 74516, Note_on_c, 9, 40, 0
1, 74516, Note_on_c, 1, 28, 68
1, 74624, Note_on_c, 0, 46, 45
1, 74628, Note_on_c, 0, 56, 41
1, 74628, Note_on_c, 0, 63, 50
1, 74632, Note_on_c, 0, 60, 55
1, 74652, Note_on_c, 0, 60, 0
1, 74668, Note_on_c, 0, 63, 0
1, 74684, Note_on_c, 0, 56, 0
1, 74712, Note_on_c, 0, 63, 39
1, 74716, Note_on_c, 0, 60, 44
1, 74716, Note_on_c, 0, 56, 13
1, 74720, Note_on_c, 9, 39, 50
1, 74736, Note_on_c, 0, 60, 0
1, 74748, Note_on_c, 0, 46, 0
1, 74748, Note_on_c, 0, 56, 0
1, 74752, Note_on_c, 0, 63, 0
1, 74816, Note_on_c, 0, 63, 49
1, 74816, Note_on_c, 0, 46, 31
1, 74848, Note_on_c, 0, 46, 0
1, 74868, Note_on_c, 0, 63, 0
1, 74892, Note_on_c, 9, 39, 0
1, 74896, Note_on_c, 0, 63, 48
1, 74896, Note_on_c, 0, 60, 57
1, 74896, Note_on_c, 0, 46, 38
1, 74900, Note_on_c, 9, 40, 0
1, 74900, Note_on_c, 9, 44, 70
1, 74904, Note_on_c, 0, 56, 42
1, 74912, Note_on_c, 9, 40, 29
1, 74924, Note_on_c, 0, 56, 0
1, 74936, Note_on_c, 0, 60, 0
1, 74944, Note_on_c, 0, 46, 0
1, 74956, Note_on_c, 0, 63, 0
1, 74996, Note_on_c, 9, 44, 0
1, 74996, Control_c, 0, 64, 104
1, 74996, Control_c, 0, 64, 127
1, 75016, Control_c, 0, 64, 0
1, 75088, Note_on_c, 0, 54, 49
1, 75088, Note_on_c, 0, 66, 42
1, 75088, Note_on_c, 0, 61, 55
1, 75092, Note_on_c, 0, 40, 43
1, 75100, Note_on_c, 1, 40, 68
1, 75100, Note_on_c, 9, 40, 31
1, 75104, Control_c, 0, 64, 127
1, 75104, Note_on_c, 0, 47, 39
1, 75108, Note_on_c, 1, 28, 0
1, 75148, Note_on_c, 0, 40, 0
1, 75152, Note_on_c, 0, 47, 0
1, 75152, Note_on_c, 0, 54, 0
1, 75164, Note_on_c, 0, 61, 0
1, 75176, Note_on_c, 0, 66, 0
1, 75228, Control_c, 0, 64, 0
1, 75280, Note_on_c, 0, 67, 48
1, 75280, Note_on_c, 0, 60, 57
1, 75284, Note_on_c, 9, 40, 0
1, 75286, Note_on_c, 9, 40, 39
1, 75288, Note_on_c, 1, 40, 0
1, 75292, Note_on_c, 0, 62, 41
1, 75292, Note_on_c, 0, 39, 49
1, 75308, Note_on_c, 0, 53, 23
1, 75308, Note_on_c, 1, 39, 73
1, 75324, Control_c, 0, 64, 127
1, 75344, Note_on_c, 0, 53, 0
1, 75376, Note_on_c, 0, 62, 0
1, 75384, Note_on_c, 0, 60, 0
1, 75404, Note_on_c, 0, 67, 0
1, 75436, Note_on_c, 0, 39, 0
1, 75504, Note_on_c, 0, 46, 41
1, 75504, Note_on_c, 0, 60, 44
1, 75504, Note_on_c, 0, 68, 38
1, 75528, Note_on_c, 0, 60, 0
1, 75528, Note_on_c, 0, 55, 31
1, 75544, Note_on_c, 0, 68, 0
1, 75548, Note_on_c, 0, 55, 0
1, 75668, Note_on_c, 9, 40, 0
1, 75668, Note_on_c, 9, 40, 0
1, 75668, Note_on_c, 9, 44, 62
1, 75672, Note_on_c, 0, 46, 0
1, 75676, Note_on_c, 0, 67, 54
1, 75676, Note_on_c, 0, 74, 54
1, 75680, Note_on_c, 0, 55, 41
1, 75684, Note_on_c, 0, 70, 50
1, 75696, Note_on_c, 0, 55, 0
1, 75696, Note_on_c, 9, 40, 34
1, 75712, Note_on_c, 0, 67, 0
1, 75718, Note_on_c, 0, 70, 0
1, 75718, Note_on_c, 9, 37, 25
1, 75728, Note_on_c, 0, 74, 0
1, 75734, Note_on_c, 9, 37, 0
1, 75754, Note_on_c, 9, 44, 0
1, 75864, Note_on_c, 0, 70, 59
1, 75868, Note_on_c, 0, 58, 52
1, 75868, Note_on_c, 0, 77, 63
1, 75872, Note_on_c, 0, 67, 52
1, 75872, Note_on_c, 0, 74, 52
1, 75872, Note_on_c, 1, 34, 70
1, 75876, Note_on_c, 0, 62, 41
1, 75896, Note_on_c, 0, 62, 0
1, 75912, Note_on_c, 0, 58, 0
1, 75920, Note_on_c, 1, 39, 0
1, 75932, Note_on_c, 0, 70, 0
1, 75952, Note_on_c, 0, 67, 0
1, 75996, Note_on_c, 0, 74, 0
1, 76012, Note_on_c, 0, 77, 0
1, 76052, Note_on_c, 9, 40, 0
1, 76064, Note_on_c, 1, 46, 85
1, 76068, Note_on_c, 9, 40, 34
1, 76248, Note_on_c, 1, 46, 0
1, 76260, Note_on_c, 0, 70, 59
1, 76260, Note_on_c, 0, 77, 62
1, 76264, Note_on_c, 0, 67, 54
1, 76268, Note_on_c, 0, 62, 49
1, 76276, Note_on_c, 1, 46, 88
1, 76280, Note_on_c, 0, 67, 0
1, 76300, Note_on_c, 0, 70, 0
1, 76324, Note_on_c, 0, 77, 0
1, 76436, Note_on_c, 9, 40, 0
1, 76436, Note_on_c, 9, 44, 64
1, 76436, Note_on_c, 9, 40, 49
1, 76440, Note_on_c, 1, 46, 0
1, 76468, Note_on_c, 0, 86, 107
1, 76468, Note_on_c, 1, 46, 85
1, 76476, Note_on_c, 0, 62, 0
1, 76508, Note_on_c, 9, 44, 0
1, 76580, Note_on_c, 0, 79, 67
1, 76636, Note_on_c, 0, 79, 0
1, 76688, Note_on_c, 0, 77, 63
1, 76790, Note_on_c, 9, 35, 37
1, 76810, Note_on_c, 9, 40, 40
1, 76816, Note_on_c, 9, 35, 0
1, 76820, Note_on_c, 9, 40, 0
1, 76836, Note_on_c, 1, 34, 0
1, 76844, Note_on_c, 1, 46, 0
1, 76844, Control_c, 0, 64, 0
1, 76848, Note_on_c, 1, 39, 83
1, 76860, Note_on_c, 0, 70, 45
1, 76872, Note_on_c, 0, 65, 44
1, 76872, Note_on_c, 0, 67, 41
1, 76876, Note_on_c, 9, 35, 32
1, 76900, Control_c, 0, 64, 127
1, 76944, Note_on_c, 9, 35, 0
1, 77012, Note_on_c, 0, 86, 0
1, 77020, Note_on_c, 1, 39, 0
1, 77040, Note_on_c, 1, 39, 85
1, 77044, Note_on_c, 0, 70, 0
1, 77048, Note_on_c, 0, 77, 0
1, 77052, Note_on_c, 0, 86, 80
1, 77060, Note_on_c, 9, 59, 60
1, 77066, Note_on_c, 9, 35, 35
1, 77076, Note_on_c, 9, 59, 0
1, 77116, Note_on_c, 9, 35, 0
1, 77160, Note_on_c, 0, 79, 71
1, 77204, Note_on_c, 9, 40, 0
1, 77204, Note_on_c, 9, 44, 55
1, 77220, Note_on_c, 9, 40, 40
1, 77232, Note_on_c, 0, 67, 0
1, 77236, Note_on_c, 0, 79, 0
1, 77238, Note_on_c, 9, 44, 0
1, 77244, Control_c, 0, 64, 0
1, 77260, Note_on_c, 0, 58, 44
1, 77276, Note_on_c, 0, 77, 43
1, 77292, Control_c, 0, 64, 127
1, 77296, Note_on_c, 0, 65, 0
1, 77388, Note_on_c, 0, 77, 0
1, 77392, Note_on_c, 0, 58, 0
1, 77396, Note_on_c, 0, 86, 0
1, 77416, Note_on_c, 1, 46, 86
1, 77572, Note_on_c, 9, 40, 49
1, 77580, Note_on_c, 1, 46, 0
1, 77588, Note_on_c, 9, 40, 0
1, 77604, Note_on_c, 1, 46, 77
1, 77616, Note_on_c, 0, 70, 41
1, 77628, Note_on_c, 0, 67, 36
1, 77628, Note_on_c, 0, 65, 40
1, 77744, Note_on_c, 1, 46, 0
1, 77764, Note_on_c, 0, 70, 0
1, 77780, Note_on_c, 1, 46, 68
1, 77792, Note_on_c, 0, 86, 92
1, 77812, Note_on_c, 0, 67, 0
1, 77852, Note_on_c, 0, 65, 0
1, 77864, Note_on_c, 0, 86, 0
1, 77912, Note_on_c, 1, 46, 0
1, 77924, Note_on_c, 0, 79, 115
1, 77928, Note_on_c, 0, 70, 58
1, 77936, Note_on_c, 0, 67, 56
1, 77940, Note_on_c, 0, 65, 46
1, 77948, Note_on_c, 9, 39, 68
1, 77960, Note_on_c, 1, 46, 71
1, 77972, Note_on_c, 9, 40, 0
1, 77972, Note_on_c, 9, 44, 74
1, 77988, Note_on_c, 0, 70, 0
1, 78038, Note_on_c, 9, 44, 0
1, 78040, Note_on_c, 0, 79, 0
1, 78056, Note_on_c, 0, 67, 0
1, 78076, Note_on_c, 0, 65, 0
1, 78080, Note_on_c, 0, 77, 79
1, 78124, Note_on_c, 9, 39, 0
1, 78128, Note_on_c, 0, 77, 0
1, 78154, Note_on_c, 9, 40, 36
1, 78216, Note_on_c, 0, 87, 92
1, 78244, Note_on_c, 0, 87, 0
1, 78256, Note_on_c, 0, 86, 52
1, 78268, Note_on_c, 1, 34, 57
1, 78292, Note_on_c, 0, 86, 0
1, 78292, Note_on_c, 1, 39, 0
1, 78336, Note_on_c, 1, 34, 0
1, 78348, Note_on_c, 0, 68, 51
1, 78348, Note_on_c, 0, 80, 76
1, 78348, Note_on_c, 9, 40, 40
1, 78352, Control_c, 0, 64, 0
1, 78352, Note_on_c, 1, 41, 78
1, 78356, Note_on_c, 9, 40, 0
1, 78360, Note_on_c, 0, 58, 42
1, 78364, Note_on_c, 0, 63, 46
1, 78364, Note_on_c, 0, 60, 48
1, 78460, Note_on_c, 0, 80, 0
1, 78488, Note_on_c, 0, 77, 58
1, 78516, Note_on_c, 1, 41, 0
1, 78528, Control_c, 0, 64, 127
1, 78540, Note_on_c, 1, 41, 84
1, 78552, Note_on_c, 1, 46, 0
1, 78556, Note_on_c, 0, 77, 0
1, 78564, Note_on_c, 9, 40, 44
1, 78600, Note_on_c, 0, 77, 62
1, 78668, Note_on_c, 0, 77, 0
1, 78740, Note_on_c, 9, 40, 0
1, 78740, Note_on_c, 0, 77, 52
1, 78740, Note_on_c, 9, 44, 75
1, 78740, Note_on_c, 9, 44, 70
1, 78740, Note_on_c, 9, 44, 58
1, 78780, Note_on_c, 9, 44, 0
1, 78800, Note_on_c, 9, 44, 0
1, 78872, Note_on_c, 0, 87, 66
1, 78890, Note_on_c, 9, 44, 0
1, 78904, Note_on_c, 0, 68, 0
1, 78944, Note_on_c, 1, 46, 87
1, 78956, Note_on_c, 0, 60, 0
1, 78964, Note_on_c, 0, 77, 0
1, 78992, Note_on_c, 0, 63, 0
1, 79000, Note_on_c, 0, 58, 0
1, 79000, Note_on_c, 0, 80, 49
1, 79096, Note_on_c, 1, 46, 0
1, 79108, Note_on_c, 0, 80, 0
1, 79124, Note_on_c, 9, 40, 0
1, 79128, Note_on_c, 1, 46, 71
1, 79136, Control_c, 0, 64, 0
1, 79140, Note_on_c, 9, 40, 49
1, 79144, Note_on_c, 0, 77, 51
1, 79144, Note_on_c, 0, 67, 35
1, 79152, Note_on_c, 0, 56, 37
1, 79160, Note_on_c, 0, 62, 46
1, 79240, Control_c, 0, 64, 127
1, 79288, Note_on_c, 1, 46, 0
1, 79316, Note_on_c, 0, 87, 0
1, 79328, Note_on_c, 1, 46, 66
1, 79352, Note_on_c, 0, 62, 0
1, 79352, Note_on_c, 0, 67, 0
1, 79396, Note_on_c, 0, 56, 0
1, 79440, Note_on_c, 0, 77, 0
1, 79508, Note_on_c, 9, 40, 0
1, 79508, Note_on_c, 9, 44, 54
1, 79508, Note_on_c, 9, 44, 55
1, 79524, Note_on_c, 1, 41, 0
1, 79528, Note_on_c, 1, 34, 82
1, 79536, Note_on_c, 0, 56, 39
1, 79536, Note_on_c, 9, 40, 39
1, 79540, Note_on_c, 0, 67, 32
1, 79548, Note_on_c, 0, 62, 37
1, 79558, Note_on_c, 9, 44, 0
1, 79644, Note_on_c, 1, 46, 0
1, 79660, Note_on_c, 0, 67, 0
1, 79680, Note_on_c, 9, 44, 0
1, 79684, Note_on_c, 0, 62, 0
1, 79748, Note_on_c, 0, 56, 0
1, 79856, Note_on_c, 0, 75, 68
1, 79892, Note_on_c, 9, 40, 0
1, 79908, Note_on_c, 0, 75, 0
1, 79920, Control_c, 0, 64, 0
1, 79924, Note_on_c, 9, 40, 40
1, 79936, Note_on_c, 0, 58, 31
1, 79944, Note_on_c, 0, 55, 34
1, 79944, Note_on_c, 0, 62, 29
1, 79948, Note_on_c, 0, 74, 54
1, 79948, Note_on_c, 1, 43, 85
1, 79964, Note_on_c, 0, 65, 13
1, 79988, Note_on_c, 1, 34, 0
1, 80068, Note_on_c, 0, 74, 0
1, 80072, Note_on_c, 0, 70, 51
1, 80080, Note_on_c, 0, 65, 0
1, 80116, Note_on_c, 0, 70, 0
1, 80124, Note_on_c, 1, 43, 0
1, 80140, Note_on_c, 1, 43, 85
1, 80168, Note_on_c, 0, 62, 0
1, 80192, Note_on_c, 0, 67, 7
1, 80236, Note_on_c, 0, 67, 0
1, 80276, Note_on_c, 9, 40, 0
1, 80276, Note_on_c, 9, 44, 56
1, 80276, Note_on_c, 9, 44, 60
1, 80310, Note_on_c, 9, 40, 39
1, 80324, Note_on_c, 9, 44, 0
1, 80336, Note_on_c, 0, 65, 50
1, 80336, Note_on_c, 9, 35, 29
1, 80340, Note_on_c, 0, 62, 25
1, 80352, Note_on_c, 9, 35, 0
1, 80404, Note_on_c, 9, 44, 0
1, 80468, Note_on_c, 0, 65, 0
1, 80488, Note_on_c, 0, 62, 0
1, 80506, Note_on_c, 9, 40, 42
1, 80552, Note_on_c, 0, 55, 0
1, 80552, Note_on_c, 0, 58, 0
1, 80600, Note_on_c, 0, 66, 60
1, 80632, Note_on_c, 0, 66, 0
1, 80656, Note_on_c, 0, 69, 68
1, 80660, Note_on_c, 9, 40, 0
1, 80692, Note_on_c, 9, 40, 44
1, 80700, Note_on_c, 0, 69, 0
1, 80704, Note_on_c, 1, 43, 0
1, 80704, Note_on_c, 1, 36, 69
1, 80712, Note_on_c, 0, 66, 56
1, 80736, Note_on_c, 0, 58, 35
1, 80744, Note_on_c, 0, 62, 30
1, 80748, Note_on_c, 0, 66, 0
1, 80756, Note_on_c, 0, 52, 31
1, 80768, Note_on_c, 0, 67, 49
1, 80812, Note_on_c, 0, 67, 0
1, 80832, Note_on_c, 0, 69, 51
1, 80864, Note_on_c, 0, 69, 0
1, 80888, Note_on_c, 1, 36, 0
1, 80888, Note_on_c, 0, 70, 61
1, 80890, Note_on_c, 9, 35, 27
1, 80896, Note_on_c, 1, 36, 39
1, 80904, Note_on_c, 0, 70, 0
1, 80940, Note_on_c, 0, 72, 56
1, 80968, Note_on_c, 0, 72, 0
1, 80984, Note_on_c, 0, 73, 56
1, 81000, Note_on_c, 0, 73, 0
1, 81008, Note_on_c, 9, 35, 0
1, 81016, Note_on_c, 0, 62, 0
1, 81032, Note_on_c, 0, 75, 49
1, 81044, Note_on_c, 0, 75, 0
1, 81044, Note_on_c, 9, 40, 0
1, 81044, Note_on_c, 9, 40, 0
1, 81044, Note_on_c, 9, 44, 51
1, 81044, Note_on_c, 9, 44, 62
1, 81052, Note_on_c, 9, 40, 36
1, 81076, Note_on_c, 9, 44, 0
1, 81084, Note_on_c, 0, 76, 54
1, 81104, Note_on_c, 0, 76, 0
1, 81124, Note_on_c, 0, 52, 0
1, 81132, Note_on_c, 0, 78, 58
1, 81148, Note_on_c, 0, 78, 0
1, 81148, Note_on_c, 9, 44, 0
1, 81180, Note_on_c, 0, 58, 0
1, 81200, Note_on_c, 0, 84, 70
1, 81240, Note_on_c, 0, 84, 0
1, 81284, Note_on_c, 0, 73, 56
1, 81308, Note_on_c, 0, 73, 0
1, 81372, Note_on_c, 0, 72, 51
1, 81420, Note_on_c, 0, 72, 0
1, 81428, Note_on_c, 1, 36, 0
1, 81428, Note_on_c, 9, 40, 0
1, 81440, Note_on_c, 1, 41, 66
1, 81444, Note_on_c, 9, 40, 39
1, 81460, Note_on_c, 0, 70, 52
1, 81496, Note_on_c, 0, 70, 0
1, 81540, Note_on_c, 0, 68, 49
1, 81560, Note_on_c, 0, 68, 0
1, 81628, Note_on_c, 0, 67, 49
1, 81660, Note_on_c, 0, 67, 0
1, 81672, Note_on_c, 0, 68, 50
1, 81712, Note_on_c, 0, 67, 55
1, 81736, Note_on_c, 0, 68, 0
1, 81752, Note_on_c, 0, 67, 0
1, 81764, Note_on_c, 0, 65, 55
1, 81808, Note_on_c, 0, 65, 0
1, 81812, Note_on_c, 9, 40, 0
1, 81812, Note_on_c, 9, 44, 58
1, 81812, Note_on_c, 9, 44, 60
1, 81824, Note_on_c, 0, 64, 45
1, 81840, Note_on_c, 9, 44, 0
1, 81844, Note_on_c, 0, 64, 0
1, 81844, Note_on_c, 1, 35, 86
1, 81846, Note_on_c, 9, 40, 36
1, 81856, Note_on_c, 1, 41, 0
1, 81876, Note_on_c, 0, 67, 68
1, 81916, Note_on_c, 9, 44, 0
1, 81932, Note_on_c, 0, 67, 0
1, 81996, Note_on_c, 0, 65, 68
1, 82044, Note_on_c, 9, 35, 28
1, 82076, Note_on_c, 9, 35, 0
1, 82076, Note_on_c, 0, 65, 0
1, 82080, Note_on_c, 0, 63, 45
1, 82144, Note_on_c, 0, 63, 0
1, 82196, Note_on_c, 9, 40, 0
1, 82204, Note_on_c, 0, 62, 42
1, 82204, Note_on_c, 9, 40, 42
1, 82224, Note_on_c, 1, 35, 0
1, 82228, Note_on_c, 1, 34, 75
1, 82268, Note_on_c, 0, 62, 0
1, 82312, Note_on_c, 0, 60, 43
1, 82340, Note_on_c, 0, 60, 0
1, 82420, Note_on_c, 9, 39, 36
1, 82432, Note_on_c, 0, 60, 55
1, 82500, Note_on_c, 0, 60, 0
1, 82532, Note_on_c, 0, 63, 45
1, 82544, Note_on_c, 0, 59, 45
1, 82568, Note_on_c, 0, 59, 0
1, 82568, Note_on_c, 0, 63, 0
1, 82580, Note_on_c, 9, 40, 0
1, 82580, Note_on_c, 9, 46, 44
1, 82580, Note_on_c, 9, 46, 34
1, 82582, Note_on_c, 9, 39, 0
1, 82602, Note_on_c, 9, 46, 0
1, 82602, Note_on_c, 9, 40, 36
1, 82616, Note_on_c, 1, 46, 86
1, 82632, Note_on_c, 0, 59, 68
1, 82636, Note_on_c, 0, 63, 56
1, 82688, Note_on_c, 0, 59, 0
1, 82692, Note_on_c, 9, 46, 0
1, 82724, Note_on_c, 1, 34, 0
1, 82736, Note_on_c, 0, 58, 63
1, 82772, Note_on_c, 0, 58, 0
1, 82784, Note_on_c, 0, 63, 0
1, 82800, Note_on_c, 9, 39, 35
1, 82840, Note_on_c, 0, 58, 82
1, 82840, Note_on_c, 0, 63, 68
1, 82896, Note_on_c, 9, 35, 31
1, 82906, Note_on_c, 9, 39, 0
1, 82912, Note_on_c, 0, 58, 0
1, 82924, Note_on_c, 9, 35, 0
1, 82944, Note_on_c, 0, 56, 75
1, 82948, Note_on_c, 0, 63, 0
1, 82950, Note_on_c, 9, 40, 24
1, 82964, Note_on_c, 9, 40, 0
1, 82988, Note_on_c, 9, 35, 37
1, 82996, Note_on_c, 9, 59, 40
1, 82998, Note_on_c, 9, 40, 34
1, 83000, Note_on_c, 0, 56, 0
1, 83000, Note_on_c, 1, 46, 0
1, 83016, Note_on_c, 1, 39, 74
1, 83044, Note_on_c, 0, 63, 64
1, 83048, Note_on_c, 0, 56, 67
1, 83076, Note_on_c, 9, 35, 0
1, 83084, Note_on_c, 9, 59, 0
1, 83116, Note_on_c, 0, 63, 0
1, 83128, Note_on_c, 0, 56, 0
1, 83148, Note_on_c, 0, 55, 48
1, 83160, Note_on_c, 0, 63, 36
1, 83184, Note_on_c, 9, 35, 37
1, 83188, Note_on_c, 9, 59, 31
1, 83192, Note_on_c, 0, 63, 0
1, 83192, Note_on_c, 1, 39, 0
1, 83212, Note_on_c, 0, 55, 0
1, 83216, Note_on_c, 1, 39, 85
1, 83252, Note_on_c, 0, 63, 51
1, 83260, Note_on_c, 9, 59, 0
1, 83260, Note_on_c, 0, 55, 51
1, 83264, Note_on_c, 9, 35, 0
1, 83348, Note_on_c, 9, 40, 0
1, 83348, Note_on_c, 9, 40, 0
1, 83348, Note_on_c, 9, 44, 79
1, 83348, Note_on_c, 9, 44, 34
1, 83350, Note_on_c, 9, 40, 31
1, 83380, Control_c, 0, 64, 127
1, 83432, Note_on_c, 0, 55, 0
1, 83456, Note_on_c, 9, 44, 0
1, 83456, Note_on_c, 9, 44, 0
1, 83496, Note_on_c, 0, 63, 0
1, 83724, Note_on_c, 9, 40, 34
1, 83732, Note_on_c, 9, 40, 0
1, 83748, Note_on_c, 1, 46, 87
1, 83772, Note_on_c, 1, 39, 0
1, 83784, Note_on_c, 0, 55, 44
1, 83788, Note_on_c, 0, 65, 37
1, 83796, Note_on_c, 0, 62, 38
1, 83800, Note_on_c, 0, 60, 40
1, 83864, Control_c, 0, 64, 0
1, 83904, Note_on_c, 1, 46, 0
1, 83912, Control_c, 0, 64, 127
1, 83928, Note_on_c, 1, 46, 87
1, 84028, Note_on_c, 0, 55, 0
1, 84028, Note_on_c, 0, 60, 0
1, 84032, Note_on_c, 0, 62, 0
1, 84048, Note_on_c, 0, 65, 0
1, 84092, Note_on_c, 9, 40, 42
1, 84104, Note_on_c, 1, 46, 0
1, 84116, Note_on_c, 9, 40, 0
1, 84116, Control_c, 0, 64, 0
1, 84116, Note_on_c, 9, 44, 55
1, 84116, Note_on_c, 9, 44, 50
1, 84124, Note_on_c, 1, 39, 81
1, 84144, Note_on_c, 0, 65, 46
1, 84148, Note_on_c, 0, 55, 44
1, 84152, Note_on_c, 0, 62, 39
1, 84156, Note_on_c, 0, 60, 48
1, 84170, Note_on_c, 9, 44, 0
1, 84224, Note_on_c, 9, 44, 0
1, 84304, Note_on_c, 1, 34, 82
1, 84308, Note_on_c, 1, 39, 0
1, 84412, Note_on_c, 9, 39, 53
1, 84428, Note_on_c, 0, 65, 0
1, 84428, Note_on_c, 0, 62, 0
1, 84444, Note_on_c, 0, 60, 0
1, 84454, Note_on_c, 9, 39, 0
1, 84476, Note_on_c, 0, 55, 0
1, 84480, Note_on_c, 1, 34, 0
1, 84486, Note_on_c, 9, 40, 47
1, 84496, Note_on_c, 1, 33, 86
1, 84500, Note_on_c, 9, 40, 0
1, 84676, Note_on_c, 0, 63, 36
1, 84684, Note_on_c, 0, 60, 29
1, 84688, Note_on_c, 9, 40, 36
1, 84692, Note_on_c, 0, 55, 38
1, 84692, Note_on_c, 0, 57, 35
1, 84748, Note_on_c, 0, 63, 0
1, 84752, Note_on_c, 0, 55, 0
1, 84764, Note_on_c, 0, 57, 0
1, 84768, Note_on_c, 0, 60, 0
1, 84868, Note_on_c, 0, 63, 36
1, 84880, Note_on_c, 0, 60, 36
1, 84884, Note_on_c, 9, 40, 0
1, 84884, Note_on_c, 9, 40, 0
1, 84884, Note_on_c, 9, 44, 57
1, 84884, Note_on_c, 9, 44, 44
1, 84896, Note_on_c, 0, 57, 27
1, 84918, Note_on_c, 9, 44, 0
1, 84956, Note_on_c, 0, 60, 0
1, 85004, Note_on_c, 9, 44, 0
1, 85008, Note_on_c, 0, 63, 0
1, 85048, Note_on_c, 0, 57, 0
1, 85076, Note_on_c, 0, 81, 51
1, 85076, Note_on_c, 9, 40, 36
1, 85088, Note_on_c, 0, 81, 0
1, 85136, Note_on_c, 0, 82, 67
1, 85168, Note_on_c, 0, 82, 0
1, 85192, Note_on_c, 0, 84, 79
1, 85192, Note_on_c, 1, 51, 85
1, 85232, Note_on_c, 0, 84, 0
1, 85256, Note_on_c, 0, 60, 37
1, 85256, Note_on_c, 0, 54, 42
1, 85258, Note_on_c, 9, 40, 49
1, 85260, Note_on_c, 0, 64, 35
1, 85264, Note_on_c, 1, 51, 0
1, 85264, Note_on_c, 0, 78, 71
1, 85276, Note_on_c, 1, 50, 66
1, 85296, Note_on_c, 0, 78, 0
1, 85296, Note_on_c, 1, 33, 0
1, 85384, Note_on_c, 1, 37, 64
1, 85388, Note_on_c, 1, 50, 0
1, 85408, Note_on_c, 0, 64, 0
1, 85428, Note_on_c, 0, 60, 0
1, 85448, Note_on_c, 0, 78, 56
1, 85452, Note_on_c, 1, 37, 0
1, 85456, Note_on_c, 1, 38, 76
1, 85484, Note_on_c, 9, 39, 32
1, 85492, Note_on_c, 0, 78, 0
1, 85568, Note_on_c, 0, 54, 0
1, 85624, Note_on_c, 0, 54, 39
1, 85628, Note_on_c, 0, 78, 54
1, 85632, Note_on_c, 0, 64, 28
1, 85640, Note_on_c, 1, 38, 0
1, 85640, Note_on_c, 0, 60, 36
1, 85642, Note_on_c, 9, 39, 0
1, 85652, Note_on_c, 9, 40, 0
1, 85652, Note_on_c, 9, 40, 0
1, 85652, Note_on_c, 1, 33, 77
1, 85652, Note_on_c, 9, 44, 58
1, 85652, Note_on_c, 9, 44, 48
1, 85670, Note_on_c, 9, 40, 34
1, 85684, Note_on_c, 0, 78, 0
1, 85732, Note_on_c, 9, 44, 0
1, 85736, Note_on_c, 0, 64, 0
1, 85744, Note_on_c, 0, 60, 0
1, 85744, Note_on_c, 0, 75, 61
1, 85750, Note_on_c, 9, 44, 0
1, 85808, Note_on_c, 0, 75, 0
1, 85824, Note_on_c, 0, 54, 0
1, 85832, Note_on_c, 1, 33, 0
1, 85836, Note_on_c, 0, 74, 45
1, 85844, Note_on_c, 1, 32, 71
1, 85908, Note_on_c, 0, 74, 0
1, 85948, Note_on_c, 0, 72, 54
1, 85972, Note_on_c, 9, 35, 31
1, 85990, Note_on_c, 9, 35, 0
1, 85996, Note_on_c, 0, 72, 0
1, 86020, Note_on_c, 0, 58, 31
1, 86020, Note_on_c, 0, 57, 23
1, 86024, Note_on_c, 1, 32, 0
1, 86028, Note_on_c, 0, 62, 22
1, 86032, Note_on_c, 0, 55, 22
1, 86032, Note_on_c, 0, 70, 48
1, 86032, Note_on_c, 1, 31, 82
1, 86036, Note_on_c, 9, 40, 0
1, 86042, Note_on_c, 9, 40, 34
1, 86052, Note_on_c, 9, 57, 29
1, 86052, Note_on_c, 9, 35, 24
1, 86080, Note_on_c, 9, 57, 0
1, 86084, Note_on_c, 9, 35, 0
1, 86136, Note_on_c, 0, 70, 0
1, 86160, Note_on_c, 0, 69, 37
1, 86200, Note_on_c, 0, 69, 0
1, 86236, Note_on_c, 0, 70, 44
1, 86280, Note_on_c, 0, 55, 0
1, 86288, Note_on_c, 0, 62, 0
1, 86296, Note_on_c, 0, 57, 0
1, 86300, Note_on_c, 0, 58, 0
1, 86416, Note_on_c, 9, 40, 42
1, 86420, Note_on_c, 9, 40, 0
1, 86420, Note_on_c, 9, 44, 73
1, 86556, Note_on_c, 0, 62, 45
1, 86560, Note_on_c, 0, 58, 38
1, 86576, Note_on_c, 0, 62, 0
1, 86584, Note_on_c, 0, 58, 0
1, 86804, Note_on_c, 9, 40, 0
1, 86808, Note_on_c, 0, 63, 38
1, 86816, Note_on_c, 9, 40, 36
1, 86820, Note_on_c, 0, 58, 44
1, 86820, Note_on_c, 0, 52, 38
1, 86842, Note_on_c, 9, 44, 0
1, 87124, Note_on_c, 0, 63, 0
1, 87136, Note_on_c, 0, 52, 0
1, 87156, Note_on_c, 0, 58, 0
1, 87188, Note_on_c, 9, 40, 0
1, 87188, Note_on_c, 9, 44, 77
1, 87192, Note_on_c, 1, 31, 0
1, 87192, Note_on_c, 1, 36, 75
1, 87204, Note_on_c, 0, 61, 40
1, 87208, Note_on_c, 0, 70, 0
1, 87210, Note_on_c, 9, 40, 44
1, 87212, Note_on_c, 0, 58, 39
1, 87220, Note_on_c, 0, 52, 36
1, 87400, Note_on_c, 1, 42, 83
1, 87420, Note_on_c, 1, 36, 0
1, 87444, Note_on_c, 0, 52, 0
1, 87472, Note_on_c, 0, 58, 0
1, 87516, Note_on_c, 0, 61, 0
1, 87572, Note_on_c, 9, 40, 0
1, 87572, Note_on_c, 1, 36, 27
1, 87588, Note_on_c, 9, 40, 33
1, 87592, Note_on_c, 1, 36, 0
1, 87600, Note_on_c, 1, 41, 76
1, 87608, Note_on_c, 1, 42, 0
1, 87628, Note_on_c, 9, 44, 0
1, 87752, Note_on_c, 0, 67, 37
1, 87756, Note_on_c, 0, 56, 37
1, 87760, Note_on_c, 0, 63, 43
1, 87784, Note_on_c, 0, 60, 23
1, 87848, Note_on_c, 0, 67, 0
1, 87908, Note_on_c, 0, 67, 48
1, 87956, Note_on_c, 0, 67, 0
1, 87956, Note_on_c, 9, 40, 0
1, 87956, Note_on_c, 9, 44, 70
1, 87972, Note_on_c, 0, 68, 69
1, 87974, Note_on_c, 9, 40, 40
1, 87992, Note_on_c, 1, 41, 0
1, 88000, Note_on_c, 1, 35, 107
1, 88004, Note_on_c, 0, 63, 0
1, 88008, Note_on_c, 0, 68, 0
1, 88036, Note_on_c, 0, 67, 49
1, 88036, Note_on_c, 0, 70, 85
1, 88036, Note_on_c, 0, 63, 43
1, 88148, Note_on_c, 0, 70, 0
1, 88164, Note_on_c, 0, 67, 0
1, 88176, Note_on_c, 0, 72, 47
1, 88200, Note_on_c, 0, 72, 0
1, 88224, Note_on_c, 0, 60, 0
1, 88224, Note_on_c, 0, 63, 0
1, 88232, Note_on_c, 0, 56, 0
1, 88236, Note_on_c, 0, 74, 58
1, 88264, Note_on_c, 0, 74, 0
1, 88304, Note_on_c, 0, 67, 60
1, 88304, Note_on_c, 0, 75, 89
1, 88304, Note_on_c, 0, 56, 48
1, 88320, Note_on_c, 0, 62, 54
1, 88324, Note_on_c, 9, 44, 0
1, 88340, Note_on_c, 9, 40, 0
1, 88356, Note_on_c, 1, 35, 0
1, 88368, Note_on_c, 1, 34, 79
1, 88378, Note_on_c, 9, 40, 44
1, 88412, Note_on_c, 0, 75, 0
1, 88432, Note_on_c, 0, 77, 63
1, 88468, Note_on_c, 0, 67, 0
1, 88472, Note_on_c, 0, 62, 0
1, 88472, Note_on_c, 0, 77, 0
1, 88488, Note_on_c, 0, 56, 0
1, 88496, Note_on_c, 0, 79, 82
1, 88544, Note_on_c, 0, 79, 0
1, 88564, Note_on_c, 0, 80, 89
1, 88572, Note_on_c, 0, 56, 50
1, 88572, Note_on_c, 0, 67, 50
1, 88576, Note_on_c, 0, 62, 57
1, 88662, Note_on_c, 9, 39, 46
1, 88700, Note_on_c, 0, 67, 0
1, 88708, Note_on_c, 9, 39, 0
1, 88716, Note_on_c, 0, 80, 0
1, 88724, Note_on_c, 9, 40, 0
1, 88724, Note_on_c, 9, 46, 39
1, 88732, Note_on_c, 0, 56, 0
1, 88740, Note_on_c, 0, 82, 61
1, 88740, Note_on_c, 9, 40, 33
1, 88742, Note_on_c, 9, 46, 0
1, 88760, Note_on_c, 0, 62, 0
1, 88760, Note_on_c, 1, 46, 99
1, 88780, Note_on_c, 0, 82, 0
1, 88804, Note_on_c, 0, 84, 69
1, 88840, Note_on_c, 0, 84, 0
1, 88868, Note_on_c, 0, 86, 90
1, 88872, Note_on_c, 0, 56, 54
1, 88876, Note_on_c, 0, 67, 46
1, 88876, Note_on_c, 0, 62, 56
1, 88916, Note_on_c, 0, 67, 0
1, 88940, Note_on_c, 9, 40, 34
1, 88944, Note_on_c, 0, 86, 0
1, 88944, Note_on_c, 0, 62, 0
1, 89000, Note_on_c, 0, 87, 57
1, 89016, Note_on_c, 0, 56, 0
1, 89052, Note_on_c, 0, 87, 0
1, 89072, Note_on_c, 0, 89, 68
1, 89108, Note_on_c, 9, 40, 0
1, 89120, Note_on_c, 9, 40, 37
1, 89124, Note_on_c, 0, 89, 0
1, 89140, Note_on_c, 1, 46, 0
1, 89144, Note_on_c, 1, 34, 0
1, 89148, Note_on_c, 0, 63, 40
1, 89148, Note_on_c, 0, 55, 45
1, 89148, Note_on_c, 0, 60, 46
1, 89148, Note_on_c, 1, 45, 89
1, 89152, Note_on_c, 0, 65, 1
1, 89152, Note_on_c, 0, 86, 58
1, 89320, Note_on_c, 0, 86, 0
1, 89336, Note_on_c, 0, 82, 51
1, 89492, Note_on_c, 9, 40, 0
1, 89492, Note_on_c, 9, 40, 0
1, 89492, Note_on_c, 9, 44, 52
1, 89500, Note_on_c, 0, 82, 0
1, 89520, Note_on_c, 0, 77, 49
1, 89524, Note_on_c, 9, 40, 40
1, 89532, Note_on_c, 1, 39, 89
1, 89574, Note_on_c, 9, 44, 0
1, 89696, Note_on_c, 1, 45, 0
1, 89732, Note_on_c, 0, 65, 0
1, 89764, Note_on_c, 0, 63, 0
1, 89784, Note_on_c, 0, 55, 0
1, 89796, Note_on_c, 0, 60, 0
1, 89816, Control_c, 0, 64, 127
1, 89876, Note_on_c, 9, 40, 0
1, 89912, Note_on_c, 1, 39, 0
1, 89914, Note_on_c, 9, 40, 34
1, 89916, Note_on_c, 1, 38, 75
1, 90260, Note_on_c, 9, 40, 0
1, 90260, Note_on_c, 9, 44, 61
1, 90272, Control_c, 0, 64, 0
1, 90272, Note_on_c, 9, 40, 34
1, 90312, Note_on_c, 0, 87, 72
1, 90328, Note_on_c, 0, 77, 0
1, 90356, Note_on_c, 0, 87, 0
1, 90380, Note_on_c, 9, 44, 0
1, 90456, Note_on_c, 0, 87, 76
1, 90504, Note_on_c, 0, 87, 0
1, 90572, Note_on_c, 0, 87, 63
1, 90612, Note_on_c, 0, 87, 0
1, 90640, Note_on_c, 0, 87, 63
1, 90644, Note_on_c, 9, 40, 0
1, 90646, Note_on_c, 9, 40, 31
1, 90660, Note_on_c, 1, 38, 0
1, 90660, Note_on_c, 1, 31, 72
1, 90700, Note_on_c, 0, 87, 0
1, 90716, Note_on_c, 0, 86, 68
1, 90740, Control_c, 0, 64, 127
1, 90872, Note_on_c, 0, 82, 52
1, 91016, Note_on_c, 0, 86, 0
1, 91020, Note_on_c, 0, 82, 0
1, 91028, Note_on_c, 9, 40, 0
1, 91028, Note_on_c, 9, 44, 62
1, 91036, Note_on_c, 0, 79, 50
1, 91050, Note_on_c, 9, 40, 34
1, 91088, Note_on_c, 9, 44, 0
1, 91228, Note_on_c, 0, 79, 0
1, 91412, Note_on_c, 9, 40, 0
1, 91420, Note_on_c, 9, 40, 36
1, 91540, Control_c, 0, 64, 0
1, 91564, Note_on_c, 0, 80, 61
1, 91568, Note_on_c, 0, 84, 68
1, 91568, Note_on_c, 0, 77, 64
1, 91568, Note_on_c, 0, 65, 55
1, 91568, Note_on_c, 0, 72, 62
1, 91572, Note_on_c, 0, 61, 46
1, 91572, Note_on_c, 0, 60, 50
1, 91576, Note_on_c, 0, 56, 42
1, 91608, Note_on_c, 1, 31, 0
1, 91610, Note_on_c, 9, 40, 31
1, 91612, Control_c, 0, 64, 127
1, 91624, Note_on_c, 0, 72, 0
1, 91628, Note_on_c, 0, 84, 0
1, 91628, Note_on_c, 1, 39, 82
1, 91636, Note_on_c, 0, 77, 0
1, 91652, Note_on_c, 0, 65, 0
1, 91656, Note_on_c, 0, 56, 0
1, 91660, Note_on_c, 0, 60, 0
1, 91668, Note_on_c, 0, 61, 0
1, 91672, Note_on_c, 0, 80, 0
1, 91700, Note_on_c, 0, 85, 69
1, 91704, Note_on_c, 0, 77, 63
1, 91708, Note_on_c, 0, 80, 62
1, 91708, Note_on_c, 0, 73, 57
1, 91712, Note_on_c, 0, 61, 46
1, 91712, Note_on_c, 0, 65, 60
1, 91712, Note_on_c, 0, 56, 58
1, 91720, Note_on_c, 0, 60, 38
1, 91732, Note_on_c, 0, 77, 0
1, 91740, Note_on_c, 0, 60, 0
1, 91752, Note_on_c, 0, 65, 0
1, 91756, Note_on_c, 0, 73, 0
1, 91756, Note_on_c, 0, 80, 0
1, 91772, Note_on_c, 0, 85, 0
1, 91788, Note_on_c, 0, 61, 0
1, 91788, Control_c, 0, 64, 0
1, 91796, Note_on_c, 9, 40, 0
1, 91796, Note_on_c, 9, 44, 51
1, 91796, Note_on_c, 9, 40, 44
1, 91808, Note_on_c, 0, 56, 0
1, 91836, Note_on_c, 0, 87, 78
1, 91836, Note_on_c, 0, 82, 75
1, 91836, Note_on_c, 0, 75, 73
1, 91844, Note_on_c, 0, 61, 58
1, 91844, Note_on_c, 0, 64, 61
1, 91844, Note_on_c, 0, 55, 63
1, 91848, Control_c, 0, 64, 127
1, 91894, Note_on_c, 9, 44, 0
1, 91900, Note_on_c, 0, 64, 0
1, 91924, Note_on_c, 0, 55, 0
1, 91932, Note_on_c, 0, 87, 0
1, 91932, Note_on_c, 0, 82, 0
1, 91932, Note_on_c, 0, 75, 0
1, 91944, Note_on_c, 0, 61, 0
1, 91976, Note_on_c, 0, 88, 74
1, 91976, Note_on_c, 0, 82, 63
1, 91980, Note_on_c, 0, 76, 57
1, 91980, Note_on_c, 0, 61, 55
1, 91984, Note_on_c, 0, 55, 58
1, 91988, Note_on_c, 0, 64, 57
1, 91988, Note_on_c, 1, 45, 96
1, 91996, Note_on_c, 0, 85, 26
1, 92008, Note_on_c, 0, 64, 0
1, 92016, Note_on_c, 0, 85, 0
1, 92016, Note_on_c, 0, 76, 0
1, 92028, Note_on_c, 0, 82, 0
1, 92032, Note_on_c, 0, 55, 0
1, 92036, Note_on_c, 0, 88, 0
1, 92036, Note_on_c, 1, 39, 0
1, 92044, Note_on_c, 0, 61, 0
1, 92096, Note_on_c, 0, 89, 81
1, 92100, Note_on_c, 0, 84, 68
1, 92100, Note_on_c, 0, 77, 66
1, 92100, Note_on_c, 9, 35, 27
1, 92108, Note_on_c, 0, 61, 57
1, 92108, Note_on_c, 0, 55, 55
1, 92112, Note_on_c, 0, 64, 46
1, 92116, Note_on_c, 9, 35, 0
1, 92124, Note_on_c, 0, 55, 0
1, 92128, Note_on_c, 0, 64, 0
1, 92144, Note_on_c, 0, 77, 0
1, 92156, Note_on_c, 1, 45, 0
1, 92160, Note_on_c, 0, 84, 0
1, 92160, Note_on_c, 0, 89, 0
1, 92168, Note_on_c, 1, 44, 76
1, 92172, Note_on_c, 0, 61, 0
1, 92180, Note_on_c, 9, 40, 0
1, 92180, Note_on_c, 9, 40, 0
1, 92188, Note_on_c, 9, 40, 50
1, 92196, Control_c, 0, 64, 0
1, 92212, Note_on_c, 0, 60, 68
1, 92212, Note_on_c, 0, 58, 57
1, 92212, Note_on_c, 0, 91, 89
1, 92212, Note_on_c, 0, 53, 72
1, 92212, Note_on_c, 0, 87, 70
1, 92212, Note_on_c, 0, 63, 57
1, 92212, Note_on_c, 0, 79, 77
1, 92212, Note_on_c, 0, 84, 75
1, 92260, Note_on_c, 0, 63, 0
1, 92296, Control_c, 0, 64, 127
1, 92380, Note_on_c, 0, 91, 0
1, 92388, Note_on_c, 0, 53, 0
1, 92396, Note_on_c, 0, 84, 0
1, 92404, Note_on_c, 0, 87, 0
1, 92424, Note_on_c, 0, 79, 0
1, 92436, Note_on_c, 0, 58, 0
1, 92444, Note_on_c, 0, 60, 0
1, 92544, Control_c, 0, 64, 0
1, 92564, Note_on_c, 9, 40, 0
1, 92564, Note_on_c, 0, 84, 61
1, 92564, Note_on_c, 0, 63, 48
1, 92564, Note_on_c, 9, 44, 52
1, 92568, Note_on_c, 0, 72, 49
1, 92568, Note_on_c, 0, 79, 60
1, 92572, Note_on_c, 0, 53, 36
1, 92572, Note_on_c, 0, 60, 46
1, 92580, Note_on_c, 0, 58, 43
1, 92588, Note_on_c, 9, 40, 34
1, 92600, Control_c, 0, 64, 127
1, 92628, Note_on_c, 9, 44, 0
1, 92716, Note_on_c, 0, 84, 0
1, 92748, Note_on_c, 0, 53, 0
1, 92756, Note_on_c, 1, 44, 0
1, 92756, Note_on_c, 0, 79, 0
1, 92764, Note_on_c, 1, 43, 52
1, 92792, Note_on_c, 0, 72, 0
1, 92812, Note_on_c, 0, 63, 0
1, 92824, Note_on_c, 0, 58, 0
1, 92836, Note_on_c, 0, 60, 0
1, 92876, Note_on_c, 1, 44, 68
1, 92884, Note_on_c, 1, 43, 0
1, 92886, Note_on_c, 9, 35, 33
1, 92902, Note_on_c, 9, 35, 0
1, 92948, Note_on_c, 9, 40, 0
1, 92960, Note_on_c, 1, 44, 0
1, 92972, Note_on_c, 1, 46, 89
1, 92980, Note_on_c, 9, 40, 50
1, 93332, Note_on_c, 9, 40, 0
1, 93332, Note_on_c, 9, 44, 55
1, 93360, Note_on_c, 9, 40, 46
1, 93364, Note_on_c, 1, 44, 85
1, 93376, Note_on_c, 1, 46, 0
1, 93392, Note_on_c, 9, 44, 0
1, 93448, Control_c, 0, 64, 0
1, 93480, Note_on_c, 0, 86, 75
1, 93480, Note_on_c, 0, 82, 70
1, 93480, Note_on_c, 0, 54, 53
1, 93480, Note_on_c, 0, 65, 56
1, 93480, Note_on_c, 0, 74, 68
1, 93488, Note_on_c, 0, 60, 50
1, 93504, Note_on_c, 0, 74, 0
1, 93508, Note_on_c, 0, 60, 0
1, 93508, Note_on_c, 0, 65, 0
1, 93512, Note_on_c, 0, 82, 0
1, 93520, Note_on_c, 0, 86, 0
1, 93524, Note_on_c, 0, 54, 0
1, 93540, Note_on_c, 9, 39, 46
1, 93612, Control_c, 0, 64, 127
1, 93628, Note_on_c, 0, 84, 66
1, 93632, Note_on_c, 0, 54, 53
1, 93632, Note_on_c, 0, 72, 48
1, 93636, Note_on_c, 0, 58, 43
1, 93638, Note_on_c, 9, 39, 0
1, 93644, Note_on_c, 0, 84, 0
1, 93652, Note_on_c, 0, 72, 0
1, 93680, Note_on_c, 0, 58, 0
1, 93696, Note_on_c, 0, 54, 0
1, 93716, Note_on_c, 9, 40, 0
1, 93732, Note_on_c, 1, 44, 0
1, 93732, Control_c, 0, 64, 0
1, 93740, Note_on_c, 1, 43, 70
1, 93740, Note_on_c, 9, 40, 34
1, 93772, Note_on_c, 0, 82, 56
1, 93772, Note_on_c, 0, 53, 35
1, 93776, Note_on_c, 0, 62, 41
1, 93776, Note_on_c, 0, 74, 45
1, 93780, Note_on_c, 0, 58, 43
1, 93780, Note_on_c, 0, 70, 37
1, 93780, Note_on_c, 0, 55, 48
1, 93800, Control_c, 0, 64, 127
1, 93800, Note_on_c, 0, 77, 31
1, 93808, Note_on_c, 1, 43, 0
1, 93864, Note_on_c, 1, 38, 61
1, 93868, Note_on_c, 0, 82, 0
1, 93872, Note_on_c, 0, 77, 0
1, 93880, Note_on_c, 0, 74, 0
1, 93908, Note_on_c, 0, 62, 0
1, 93908, Note_on_c, 0, 70, 0
1, 93916, Note_on_c, 0, 58, 0
1, 93920, Note_on_c, 1, 38, 0
1, 93936, Note_on_c, 0, 53, 0
1, 93948, Note_on_c, 1, 32, 50
1, 93948, Note_on_c, 1, 30, 60
1, 93952, Note_on_c, 0, 55, 0
1, 93960, Note_on_c, 1, 30, 0
1, 94056, Note_on_c, 0, 58, 47
1, 94064, Control_c, 0, 64, 0
1, 94064, Note_on_c, 0, 72, 63
1, 94064, Note_on_c, 0, 65, 66
1, 94068, Note_on_c, 0, 62, 56
1, 94072, Note_on_c, 0, 58, 0
1, 94076, Note_on_c, 0, 59, 46
1, 94076, Note_on_c, 0, 69, 45
1, 94084, Note_on_c, 0, 60, 57
1, 94092, Note_on_c, 0, 59, 0
1, 94100, Note_on_c, 9, 40, 0
1, 94100, Note_on_c, 9, 44, 56
1, 94104, Note_on_c, 1, 32, 0
1, 94108, Note_on_c, 0, 69, 0
1, 94112, Note_on_c, 9, 40, 36
1, 94116, Note_on_c, 1, 30, 63
1, 94148, Note_on_c, 9, 44, 0
1, 94152, Note_on_c, 0, 65, 0
1, 94164, Note_on_c, 0, 72, 0
1, 94168, Note_on_c, 0, 62, 0
1, 94188, Note_on_c, 0, 60, 0
1, 94192, Note_on_c, 0, 58, 42
1, 94192, Note_on_c, 0, 70, 63
1, 94200, Control_c, 0, 64, 127
1, 94208, Note_on_c, 0, 62, 42
1, 94208, Note_on_c, 0, 65, 24
1, 94272, Note_on_c, 0, 70, 0
1, 94284, Note_on_c, 0, 62, 0
1, 94296, Note_on_c, 0, 58, 0
1, 94304, Note_on_c, 1, 30, 0
1, 94304, Note_on_c, 1, 31, 71
1, 94312, Note_on_c, 0, 65, 0
1, 94406, Note_on_c, 9, 35, 30
1, 94420, Note_on_c, 0, 63, 54
1, 94424, Note_on_c, 0, 68, 47
1, 94428, Note_on_c, 0, 56, 51
1, 94440, Note_on_c, 0, 68, 0
1, 94452, Note_on_c, 9, 35, 0
1, 94456, Note_on_c, 0, 63, 0
1, 94480, Control_c, 0, 64, 72
1, 94484, Note_on_c, 9, 40, 0
1, 94484, Control_c, 0, 64, 0
1, 94496, Note_on_c, 1, 36, 82
1, 94500, Note_on_c, 1, 31, 0
1, 94500, Note_on_c, 9, 40, 37
1, 94502, Note_on_c, 9, 35, 36
1, 94502, Note_on_c, 9, 59, 34
1, 94504, Note_on_c, 0, 56, 0
1, 94528, Note_on_c, 9, 35, 0
1, 94534, Note_on_c, 9, 59, 0
1, 94536, Note_on_c, 0, 58, 50
1, 94540, Note_on_c, 0, 67, 41
1, 94540, Note_on_c, 0, 61, 45
1, 94540, Note_on_c, 0, 55, 43
1, 94676, Note_on_c, 0, 67, 0
1, 94680, Control_c, 0, 64, 127
1, 94692, Note_on_c, 9, 59, 38
1, 94692, Note_on_c, 9, 35, 32
1, 94704, Note_on_c, 0, 61, 0
1, 94704, Note_on_c, 0, 58, 0
1, 94712, Note_on_c, 0, 55, 0
1, 94736, Note_on_c, 9, 59, 0
1, 94740, Note_on_c, 9, 35, 0
1, 94788, Note_on_c, 0, 56, 51
1, 94788, Note_on_c, 0, 65, 57
1, 94792, Note_on_c, 0, 60, 55
1, 94792, Note_on_c, 0, 53, 42
1, 94828, Note_on_c, 0, 65, 0
1, 94832, Note_on_c, 0, 60, 0
1, 94840, Note_on_c, 0, 53, 0
1, 94852, Note_on_c, 0, 56, 0
1, 94864, Control_c, 0, 64, 0
1, 94868, Note_on_c, 9, 40, 0
1, 94868, Note_on_c, 9, 46, 25
1, 94876, Note_on_c, 9, 40, 42
1, 94880, Note_on_c, 0, 49, 43
1, 94908, Note_on_c, 0, 58, 47
1, 94916, Note_on_c, 9, 46, 0
1, 94916, Note_on_c, 0, 64, 43
1, 94920, Note_on_c, 0, 55, 31
1, 94924, Note_on_c, 0, 52, 43
1, 94928, Note_on_c, 0, 49, 0
1, 94928, Note_on_c, 0, 61, 37
1, 94992, Note_on_c, 0, 61, 0
1, 95004, Note_on_c, 0, 58, 0
1, 95008, Note_on_c, 0, 55, 0
1, 95032, Note_on_c, 0, 64, 0
1, 95040, Note_on_c, 0, 52, 0
1, 95040, Note_on_c, 0, 58, 48
1, 95044, Note_on_c, 0, 61, 45
1, 95044, Note_on_c, 0, 49, 46
1, 95048, Note_on_c, 0, 55, 45
1, 95076, Control_c, 0, 64, 127
1, 95084, Note_on_c, 1, 48, 88
1, 95128, Note_on_c, 0, 49, 0
1, 95148, Note_on_c, 0, 55, 0
1, 95160, Note_on_c, 0, 58, 0
1, 95192, Note_on_c, 0, 61, 0
1, 95224, Control_c, 0, 64, 0
1, 95252, Note_on_c, 9, 40, 0
1, 95254, Note_on_c, 9, 40, 50
1, 95256, Note_on_c, 1, 48, 0
1, 95260, Note_on_c, 9, 40, 40
1, 95264, Note_on_c, 0, 60, 51
1, 95268, Note_on_c, 0, 56, 44
1, 95268, Note_on_c, 0, 51, 35
1, 95268, Note_on_c, 0, 53, 37
1, 95268, Note_on_c, 1, 44, 84
1, 95272, Note_on_c, 0, 41, 41
1, 95284, Note_on_c, 1, 36, 0
1, 95448, Note_on_c, 1, 44, 0
1, 95456, Control_c, 0, 64, 127
1, 95468, Note_on_c, 1, 44, 88
1, 95500, Note_on_c, 0, 53, 0
1, 95516, Note_on_c, 0, 56, 0
1, 95516, Note_on_c, 0, 60, 0
1, 95516, Note_on_c, 0, 51, 0
1, 95556, Control_c, 0, 64, 0
1, 95568, Note_on_c, 0, 41, 0
1, 95580, Note_on_c, 0, 51, 62
1, 95584, Note_on_c, 0, 56, 72
1, 95584, Note_on_c, 0, 63, 61
1, 95588, Note_on_c, 0, 60, 63
1, 95588, Note_on_c, 0, 53, 71
1, 95632, Note_on_c, 0, 53, 0
1, 95636, Note_on_c, 9, 40, 0
1, 95636, Note_on_c, 9, 40, 0
1, 95636, Note_on_c, 9, 44, 69
1, 95642, Note_on_c, 9, 40, 47
1, 95648, Note_on_c, 0, 56, 0
1, 95648, Note_on_c, 0, 60, 0
1, 95656, Note_on_c, 0, 63, 0
1, 95656, Note_on_c, 0, 51, 0
1, 95700, Note_on_c, 0, 66, 41
1, 95704, Note_on_c, 0, 56, 77
1, 95704, Note_on_c, 0, 60, 70
1, 95704, Note_on_c, 0, 67, 75
1, 95704, Note_on_c, 0, 63, 48
1, 95712, Note_on_c, 0, 55, 74
1, 95744, Note_on_c, 9, 44, 0
1, 95764, Note_on_c, 0, 66, 0
1, 95768, Note_on_c, 0, 67, 0
1, 95792, Note_on_c, 0, 56, 0
1, 95796, Note_on_c, 0, 60, 0
1, 95808, Note_on_c, 0, 63, 0
1, 95824, Note_on_c, 0, 55, 0
1, 95824, Note_on_c, 9, 39, 62
1, 95828, Note_on_c, 0, 54, 60
1, 95828, Note_on_c, 0, 66, 63
1, 95836, Note_on_c, 0, 56, 56
1, 95836, Note_on_c, 0, 60, 57
1, 95840, Note_on_c, 0, 63, 50
1, 95880, Note_on_c, 0, 66, 0
1, 95884, Note_on_c, 0, 60, 0
1, 95888, Note_on_c, 0, 56, 0
1, 95904, Note_on_c, 0, 63, 0
1, 95936, Note_on_c, 0, 54, 0
1, 95948, Note_on_c, 0, 65, 59
1, 95948, Note_on_c, 0, 56, 50
1, 95952, Note_on_c, 0, 60, 64
1, 95952, Note_on_c, 0, 53, 54
1, 95964, Note_on_c, 0, 65, 0
1, 95968, Note_on_c, 0, 56, 0
1, 95976, Note_on_c, 0, 60, 0
1, 95996, Note_on_c, 0, 53, 0
1, 96000, Note_on_c, 9, 39, 0
1, 96016, Note_on_c, 9, 40, 40
1, 96020, Note_on_c, 9, 40, 0
1, 96032, Note_on_c, 1, 37, 81
1, 96064, Note_on_c, 1, 44, 0
1, 96068, Note_on_c, 0, 59, 66
1, 96072, Note_on_c, 0, 63, 59
1, 96072, Note_on_c, 0, 70, 63
1, 96072, Note_on_c, 0, 58, 63
1, 96076, Note_on_c, 0, 65, 56
1, 96156, Note_on_c, 0, 70, 0
1, 96172, Note_on_c, 0, 58, 0
1, 96176, Note_on_c, 0, 59, 0
1, 96180, Note_on_c, 0, 65, 0
1, 96208, Note_on_c, 0, 59, 44
1, 96208, Note_on_c, 0, 69, 52
1, 96208, Note_on_c, 0, 65, 22
1, 96212, Note_on_c, 0, 57, 47
1, 96244, Note_on_c, 0, 69, 0
1, 96284, Note_on_c, 0, 59, 0
1, 96288, Note_on_c, 0, 63, 0
1, 96292, Note_on_c, 0, 65, 0
1, 96332, Note_on_c, 0, 57, 0
1, 96336, Note_on_c, 0, 68, 57
1, 96340, Note_on_c, 0, 63, 45
1, 96340, Note_on_c, 0, 65, 46
1, 96340, Note_on_c, 0, 59, 52
1, 96340, Note_on_c, 0, 56, 48
1, 96364, Note_on_c, 0, 49, 43
1, 96404, Note_on_c, 9, 40, 0
1, 96404, Note_on_c, 9, 44, 53
1, 96406, Note_on_c, 9, 40, 39
1, 96416, Note_on_c, 1, 38, 89
1, 96432, Note_on_c, 1, 37, 0
1, 96492, Control_c, 0, 64, 127
1, 96496, Note_on_c, 9, 44, 0
1, 96616, Note_on_c, 0, 56, 0
1, 96616, Note_on_c, 0, 59, 0
1, 96644, Note_on_c, 0, 49, 0
1, 96644, Note_on_c, 0, 65, 0
1, 96648, Note_on_c, 0, 68, 0
1, 96656, Note_on_c, 0, 63, 0
1, 96710, Note_on_c, 9, 35, 48
1, 96726, Note_on_c, 9, 35, 0
1, 96772, Control_c, 0, 64, 0
1, 96788, Note_on_c, 9, 40, 0
1, 96788, Note_on_c, 1, 39, 87
1, 96788, Note_on_c, 9, 59, 40
1, 96788, Note_on_c, 9, 40, 36
1, 96790, Note_on_c, 9, 35, 35
1, 96800, Note_on_c, 0, 62, 54
1, 96804, Note_on_c, 0, 67, 39
1, 96804, Note_on_c, 0, 68, 39
1, 96804, Note_on_c, 0, 55, 39
1, 96808, Note_on_c, 1, 38, 0
1, 96808, Note_on_c, 0, 39, 41
1, 96812, Note_on_c, 0, 46, 39
1, 96820, Note_on_c, 0, 68, 0
1, 96838, Note_on_c, 9, 59, 0
1, 96848, Note_on_c, 9, 35, 0
1, 96920, Control_c, 0, 64, 127
1, 97060, Note_on_c, 0, 55, 0
1, 97084, Note_on_c, 0, 62, 0
1, 97132, Note_on_c, 0, 67, 0
1, 97148, Note_on_c, 0, 46, 0
1, 97172, Note_on_c, 9, 40, 0
1, 97172, Note_on_c, 9, 44, 71
1, 97178, Note_on_c, 9, 40, 34
1, 97180, Note_on_c, 0, 63, 58
1, 97200, Control_c, 0, 64, 0
1, 97208, Note_on_c, 0, 39, 0
1, 97224, Note_on_c, 0, 63, 0
1, 97236, Note_on_c, 9, 44, 0
1, 97252, Note_on_c, 0, 65, 37
1, 97268, Note_on_c, 0, 63, 43
1, 97280, Note_on_c, 0, 65, 0
1, 97312, Note_on_c, 0, 62, 56
1, 97316, Note_on_c, 0, 63, 0
1, 97352, Note_on_c, 0, 62, 0
1, 97404, Note_on_c, 0, 62, 39
1, 97424, Note_on_c, 0, 62, 0
1, 97460, Note_on_c, 0, 69, 72
1, 97524, Note_on_c, 0, 69, 0
1, 97524, Note_on_c, 0, 66, 66
1, 97556, Note_on_c, 0, 66, 0
1, 97556, Note_on_c, 9, 40, 0
1, 97558, Note_on_c, 9, 40, 44
1, 97564, Note_on_c, 0, 58, 38
1, 97568, Note_on_c, 0, 62, 15
1, 97568, Note_on_c, 0, 67, 58
1, 97572, Note_on_c, 0, 55, 40
1, 97572, Note_on_c, 0, 53, 30
1, 97572, Note_on_c, 9, 35, 32
1, 97592, Note_on_c, 0, 67, 0
1, 97600, Note_on_c, 9, 35, 0
1, 97616, Note_on_c, 0, 69, 57
1, 97648, Note_on_c, 0, 69, 0
1, 97656, Note_on_c, 0, 70, 57
1, 97672, Note_on_c, 0, 70, 0
1, 97696, Note_on_c, 0, 72, 64
1, 97732, Note_on_c, 0, 72, 0
1, 97736, Note_on_c, 0, 73, 52
1, 97756, Note_on_c, 0, 73, 0
1, 97760, Note_on_c, 1, 39, 0
1, 97760, Note_on_c, 0, 75, 62
1, 97760, Note_on_c, 1, 36, 74
1, 97766, Note_on_c, 9, 35, 35
1, 97784, Note_on_c, 0, 75, 0
1, 97804, Note_on_c, 0, 62, 0
1, 97804, Note_on_c, 0, 76, 68
1, 97828, Note_on_c, 0, 53, 0
1, 97840, Note_on_c, 0, 76, 0
1, 97848, Note_on_c, 0, 78, 57
1, 97860, Note_on_c, 0, 78, 0
1, 97860, Note_on_c, 0, 55, 0
1, 97860, Note_on_c, 9, 35, 0
1, 97876, Note_on_c, 0, 58, 0
1, 97884, Note_on_c, 0, 79, 61
1, 97900, Note_on_c, 0, 79, 0
1, 97936, Note_on_c, 0, 81, 45
1, 97936, Note_on_c, 9, 40, 42
1, 97940, Note_on_c, 9, 40, 0
1, 97940, Note_on_c, 9, 46, 55
1, 97956, Note_on_c, 0, 82, 58
1, 97960, Note_on_c, 0, 81, 0
1, 97964, Note_on_c, 1, 48, 80
1, 97968, Note_on_c, 9, 46, 0
1, 97992, Note_on_c, 0, 82, 0
1, 97996, Note_on_c, 1, 36, 0
1, 98000, Note_on_c, 0, 83, 42
1, 98036, Note_on_c, 0, 83, 0
1, 98044, Note_on_c, 0, 84, 63
1, 98084, Note_on_c, 0, 84, 0
1, 98086, Note_on_c, 9, 35, 60
1, 98112, Note_on_c, 9, 35, 0
1, 98136, Note_on_c, 1, 48, 0
1, 98136, Note_on_c, 0, 82, 58
1, 98144, Note_on_c, 0, 58, 41
1, 98144, Note_on_c, 0, 62, 40
1, 98152, Note_on_c, 0, 82, 0
1, 98152, Note_on_c, 1, 40, 73
1, 98164, Note_on_c, 9, 35, 47
1, 98164, Note_on_c, 9, 59, 26
1, 98172, Note_on_c, 0, 62, 0
1, 98180, Note_on_c, 9, 59, 0
1, 98182, Note_on_c, 9, 35, 0
1, 98184, Note_on_c, 0, 58, 0
1, 98224, Note_on_c, 0, 82, 60
1, 98240, Note_on_c, 0, 82, 0
1, 98304, Note_on_c, 9, 40, 46
1, 98324, Note_on_c, 9, 40, 0
1, 98328, Note_on_c, 0, 82, 60
1, 98340, Note_on_c, 9, 35, 47
1, 98340, Note_on_c, 9, 59, 54
1, 98344, Note_on_c, 1, 40, 0
1, 98348, Note_on_c, 1, 41, 75
1, 98358, Note_on_c, 9, 59, 0
1, 98362, Note_on_c, 9, 35, 0
1, 98364, Note_on_c, 0, 82, 0
1, 98404, Note_on_c, 0, 80, 54
1, 98404, Note_on_c, 0, 63, 34
1, 98404, Note_on_c, 0, 67, 32
1, 98412, Note_on_c, 0, 56, 36
1, 98420, Note_on_c, 0, 60, 42
1, 98436, Note_on_c, 0, 80, 0
1, 98496, Note_on_c, 0, 80, 61
1, 98532, Note_on_c, 0, 80, 0
1, 98548, Note_on_c, 9, 59, 61
1, 98550, Note_on_c, 9, 35, 32
1, 98572, Note_on_c, 0, 79, 54
1, 98582, Note_on_c, 9, 59, 0
1, 98592, Note_on_c, 0, 79, 0
1, 98630, Note_on_c, 9, 35, 0
1, 98676, Note_on_c, 0, 79, 54
1, 98688, Note_on_c, 0, 79, 0
1, 98708, Note_on_c, 9, 40, 0
1, 98708, Note_on_c, 9, 44, 45
1, 98726, Note_on_c, 9, 40, 39
1, 98736, Note_on_c, 1, 41, 0
1, 98740, Note_on_c, 0, 77, 54
1, 98748, Note_on_c, 1, 35, 84
1, 98762, Note_on_c, 9, 44, 0
1, 98776, Note_on_c, 0, 77, 0
1, 98840, Note_on_c, 0, 77, 69
1, 98872, Control_c, 0, 64, 127
1, 98876, Note_on_c, 0, 77, 0
1, 98920, Note_on_c, 0, 75, 57
1, 98936, Note_on_c, 0, 67, 0
1, 98944, Note_on_c, 0, 60, 0
1, 98948, Note_on_c, 0, 75, 0
1, 98964, Note_on_c, 0, 56, 0
1, 98976, Note_on_c, 0, 63, 0
1, 99036, Note_on_c, 0, 75, 68
1, 99040, Note_on_c, 0, 56, 31
1, 99044, Note_on_c, 0, 63, 38
1, 99060, Note_on_c, 0, 60, 39
1, 99064, Control_c, 0, 64, 0
1, 99068, Note_on_c, 0, 56, 0
1, 99076, Note_on_c, 0, 63, 0
1, 99080, Note_on_c, 0, 60, 0
1, 99088, Note_on_c, 0, 75, 0
1, 99092, Note_on_c, 9, 40, 0
1, 99108, Note_on_c, 9, 40, 46
1, 99112, Note_on_c, 1, 35, 0
1, 99116, Note_on_c, 0, 56, 43
1, 99120, Control_c, 0, 64, 127
1, 99124, Note_on_c, 0, 74, 72
1, 99124, Note_on_c, 0, 67, 53
1, 99124, Note_on_c, 1, 34, 83
1, 99144, Note_on_c, 0, 62, 42
1, 99224, Note_on_c, 0, 67, 0
1, 99232, Note_on_c, 0, 56, 0
1, 99236, Note_on_c, 0, 62, 0
1, 99256, Note_on_c, 0, 74, 0
1, 99304, Note_on_c, 0, 56, 50
1, 99308, Note_on_c, 0, 75, 82
1, 99308, Note_on_c, 0, 67, 50
1, 99316, Note_on_c, 0, 62, 48
1, 99364, Note_on_c, 0, 67, 0
1, 99380, Note_on_c, 0, 62, 0
1, 99396, Note_on_c, 0, 56, 0
1, 99408, Note_on_c, 0, 75, 0
1, 99468, Note_on_c, 1, 34, 0
1, 99476, Note_on_c, 9, 40, 0
1, 99476, Note_on_c, 9, 44, 70
1, 99484, Note_on_c, 9, 40, 31
1, 99488, Note_on_c, 0, 56, 54
1, 99492, Note_on_c, 0, 67, 48
1, 99492, Note_on_c, 0, 77, 76
1, 99504, Note_on_c, 1, 34, 70
1, 99508, Note_on_c, 0, 62, 42
1, 99536, Note_on_c, 0, 67, 0
1, 99552, Note_on_c, 0, 62, 0
1, 99578, Note_on_c, 9, 44, 0
1, 99604, Note_on_c, 0, 56, 0
1, 99664, Note_on_c, 0, 77, 0
1, 99700, Note_on_c, 0, 74, 68
1, 99732, Note_on_c, 0, 74, 0
1, 99860, Note_on_c, 9, 40, 0
1, 99872, Control_c, 0, 64, 0
1, 99878, Note_on_c, 9, 40, 52
1, 99888, Note_on_c, 0, 82, 72
1, 99896, Note_on_c, 0, 74, 76
1, 99904, Note_on_c, 0, 70, 61
1, 99924, Control_c, 0, 64, 127
1, 99996, Note_on_c, 1, 34, 0
1, 100072, Note_on_c, 1, 34, 75
1, 100080, Note_on_c, 0, 82, 0
1, 100088, Note_on_c, 0, 74, 0
1, 100088, Note_on_c, 0, 46, 61
1, 100112, Note_on_c, 0, 70, 0
1, 100244, Note_on_c, 9, 40, 0
1, 100244, Note_on_c, 9, 44, 75
1, 100276, Control_c, 0, 64, 0
1, 100276, Note_on_c, 1, 46, 85
1, 100276, Note_on_c, 9, 40, 33
1, 100284, Note_on_c, 0, 70, 60
1, 100288, Note_on_c, 0, 55, 48
1, 100292, Note_on_c, 0, 62, 62
1, 100292, Note_on_c, 0, 67, 63
1, 100300, Control_c, 0, 64, 127
1, 100356, Note_on_c, 9, 44, 0
1, 100432, Note_on_c, 0, 46, 0
1, 100476, Note_on_c, 0, 46, 56
1, 100484, Note_on_c, 0, 67, 0
1, 100492, Note_on_c, 0, 70, 0
1, 100512, Note_on_c, 0, 62, 0
1, 100512, Note_on_c, 0, 55, 0
1, 100608, Note_on_c, 0, 46, 0
1, 100620, Note_on_c, 1, 46, 0
1, 100628, Note_on_c, 9, 40, 0
1, 100636, Note_on_c, 9, 40, 31
1, 100652, Note_on_c, 1, 46, 77
1, 100672, Note_on_c, 0, 46, 70
1, 100808, Note_on_c, 0, 46, 0
1, 100860, Note_on_c, 0, 46, 69
1, 100988, Note_on_c, 1, 46, 0
1, 101012, Note_on_c, 9, 40, 0
1, 101012, Note_on_c, 9, 44, 69
1, 101012, Note_on_c, 9, 40, 33
1, 101020, Note_on_c, 1, 46, 72
1, 101052, Note_on_c, 0, 58, 53
1, 101056, Note_on_c, 0, 62, 55
1, 101060, Note_on_c, 0, 55, 45
1, 101124, Note_on_c, 9, 44, 0
1, 101132, Note_on_c, 9, 39, 56
1, 101164, Note_on_c, 0, 62, 0
1, 101168, Note_on_c, 0, 46, 0
1, 101176, Note_on_c, 0, 58, 0
1, 101228, Note_on_c, 0, 46, 55
1, 101268, Note_on_c, 0, 46, 0
1, 101272, Note_on_c, 0, 55, 0
1, 101290, Note_on_c, 9, 39, 0
1, 101318, Note_on_c, 9, 40, 39
1, 101396, Note_on_c, 9, 40, 0
1, 101396, Note_on_c, 1, 46, 0
1, 101396, Note_on_c, 1, 39, 84
1, 101396, System_exclusive, 8, 67, 16, 76, 8, 9, 114, 64, 247
1, 101396, System_exclusive, 8, 67, 16, 76, 8, 9, 115, 95, 247
1, 101396, System_exclusive, 8, 67, 16, 76, 8, 9, 119, 46, 247
1, 101396, System_exclusive, 8, 67, 16, 76, 8, 9, 32, 10, 247
1, 101396, Control_c, 9, 0, 0
1, 101396, Control_c, 9, 32, 122
1, 101396, Control_c, 9, 7, 107
1, 101396, Control_c, 9, 10, 64
1, 101396, Control_c, 9, 11, 127
1, 101396, Control_c, 9, 91, 10
1, 101396, Control_c, 9, 93, 0
1, 101396, Control_c, 9, 94, 0
1, 101396, Control_c, 9, 101, 0
1, 101397, Control_c, 9, 100, 1
1, 101398, Control_c, 9, 6, 64
1, 101399, Control_c, 9, 38, 0
1, 101400, Control_c, 9, 71, 43
1, 101400, Control_c, 9, 74, 46
1, 101400, Note_on_c, 9, 57, 57
1, 101400, Control_c, 9, 0, 0
1, 101400, Control_c, 9, 32, 122
1, 101400, Control_c, 9, 0, 0
1, 101400, Control_c, 9, 32, 122
1, 101400, Control_c, 9, 0, 0
1, 101400, Control_c, 9, 32, 122
1, 101400, Control_c, 9, 0, 0
1, 101400, Control_c, 9, 32, 122
1, 101400, Control_c, 9, 0, 0
1, 101400, Control_c, 9, 32, 122
1, 101400, Program_c, 9, 0
1, 101408, Note_on_c, 1, 34, 0
1, 101416, Control_c, 0, 64, 0
1, 101432, Note_on_c, 0, 62, 40
1, 101432, Note_on_c, 0, 58, 43
1, 101436, Note_on_c, 9, 57, 0
1, 101436, Note_on_c, 0, 51, 39
1, 101440, Note_on_c, 0, 55, 42
1, 101516, Control_c, 0, 64, 127
1, 101688, Note_on_c, 0, 62, 0
1, 101736, Note_on_c, 0, 70, 60
1, 101780, Note_on_c, 9, 40, 0
1, 101804, Note_on_c, 0, 70, 0
1, 101836, Note_on_c, 0, 67, 43
1, 101860, Note_on_c, 0, 58, 0
1, 101888, Note_on_c, 0, 67, 0
1, 101896, Note_on_c, 0, 55, 0
1, 101928, Note_on_c, 0, 70, 56
1, 101988, Note_on_c, 0, 70, 0
1, 102024, Note_on_c, 0, 67, 48
1, 102064, Note_on_c, 0, 67, 0
1, 102096, Note_on_c, 0, 51, 0
1, 102120, Note_on_c, 0, 70, 56
1, 102188, Control_c, 0, 64, 0
1, 102192, Note_on_c, 0, 70, 0
1, 102208, Note_on_c, 0, 51, 41
1, 102212, Note_on_c, 0, 62, 49
1, 102212, Note_on_c, 0, 67, 53
1, 102216, Note_on_c, 0, 58, 43
1, 102244, Control_c, 0, 64, 127
1, 102352, Note_on_c, 1, 46, 67
1, 102376, Note_on_c, 0, 62, 0
1, 102400, Note_on_c, 0, 67, 0
1, 102400, Note_on_c, 0, 70, 58
1, 102436, Note_on_c, 0, 70, 0
1, 102484, Note_on_c, 0, 58, 0
1, 102504, Note_on_c, 1, 46, 0
1, 102544, Note_on_c, 1, 46, 57
1, 102576, Note_on_c, 0, 82, 73
1, 102588, Note_on_c, 0, 58, 44
1, 102588, Note_on_c, 0, 62, 44
1, 102592, Note_on_c, 0, 74, 68
1, 102604, Note_on_c, 1, 39, 0
1, 102692, Note_on_c, 0, 62, 0
1, 102712, Note_on_c, 0, 58, 0
1, 102740, Note_on_c, 1, 34, 57
1, 102772, Note_on_c, 1, 46, 0
1, 102780, Note_on_c, 0, 51, 0
1, 102868, Note_on_c, 0, 74, 0
1, 102872, Note_on_c, 0, 82, 0
1, 102876, Note_on_c, 0, 79, 63
1, 102928, Sequencer_specific, 7, 67, 115, 6, 0, 0, 0, 0
1, 102928, Sequencer_specific, 7, 67, 115, 6, 0, 0, 0, 0
1, 102928, Sequencer_specific, 7, 67, 115, 6, 0, 0, 0, 0
1, 102928, Sequencer_specific, 7, 67, 115, 6, 0, 0, 0, 0
1, 102928, Sequencer_specific, 7, 67, 115, 6, 0, 0, 0, 0
1, 102940, Note_on_c, 1, 41, 80
1, 102948, Note_on_c, 1, 34, 0
1, 102952, Note_on_c, 0, 79, 0
1, 102968, Control_c, 0, 64, 0
1, 102968, Note_on_c, 0, 58, 46
1, 102976, Note_on_c, 0, 80, 63
1, 102980, Note_on_c, 0, 63, 46
1, 102992, Note_on_c, 0, 60, 34
1, 102992, Note_on_c, 0, 68, 25
1, 103096, Control_c, 0, 64, 127
1, 103152, Note_on_c, 0, 82, 68
1, 103172, Note_on_c, 0, 80, 0
1, 103296, Note_on_c, 0, 82, 0
1, 103340, Note_on_c, 0, 80, 63
1, 103420, Note_on_c, 0, 68, 0
1, 103480, Note_on_c, 0, 63, 0
1, 103488, Note_on_c, 0, 60, 0
1, 103492, Note_on_c, 0, 58, 0
1, 103500, Note_on_c, 0, 80, 0
1, 103524, Note_on_c, 0, 82, 48
1, 103584, Note_on_c, 0, 82, 0
1, 103696, Control_c, 0, 64, 0
1, 103708, Note_on_c, 1, 34, 84
1, 103716, Note_on_c, 1, 41, 0
1, 103716, Note_on_c, 0, 67, 39
1, 103716, Note_on_c, 0, 56, 40
1, 103724, Note_on_c, 0, 80, 53
1, 103732, Note_on_c, 0, 62, 39
1, 103808, Control_c, 0, 64, 127
1, 103920, Note_on_c, 0, 82, 57
1, 103936, Note_on_c, 0, 62, 0
1, 103948, Note_on_c, 0, 80, 0
1, 103952, Note_on_c, 0, 67, 0
1, 104052, Note_on_c, 1, 34, 0
1, 104084, Note_on_c, 0, 82, 0
1, 104100, Note_on_c, 1, 34, 68
1, 104124, Note_on_c, 0, 67, 30
1, 104132, Note_on_c, 0, 84, 54
1, 104144, Note_on_c, 0, 62, 25
1, 104180, Note_on_c, 0, 67, 0
1, 104188, Note_on_c, 0, 62, 0
1, 104196, Note_on_c, 0, 84, 0
1, 104272, Note_on_c, 0, 56, 0
1, 104328, Note_on_c, 0, 86, 53
1, 104396, Note_on_c, 0, 86, 0
1, 104484, Note_on_c, 1, 39, 78
1, 104492, Note_on_c, 1, 34, 0
1, 104528, Control_c, 0, 64, 0
1, 104544, Note_on_c, 0, 87, 56
1, 104552, Note_on_c, 0, 39, 44
1, 104612, Control_c, 0, 64, 127
1, 104684, Note_on_c, 0, 87, 0
1, 104692, Note_on_c, 0, 39, 0
1, 104692, Note_on_c, 0, 46, 48
1, 104792, Note_on_c, 0, 46, 0
1, 104820, Note_on_c, 0, 53, 48
1, 104920, Note_on_c, 0, 53, 0
1, 104944, Note_on_c, 0, 55, 48
1, 104956, Sequencer_specific, 7, 67, 115, 6, 0, 0, 0, 0
1, 104956, Sequencer_specific, 7, 67, 115, 6, 0, 0, 0, 0
1, 104956, Sequencer_specific, 7, 67, 115, 6, 0, 0, 0, 0
1, 105072, Note_on_c, 0, 58, 46
1, 105220, Note_on_c, 0, 60, 49
1, 105292, Note_on_c, 0, 60, 0
1, 105308, Note_on_c, 0, 62, 63
1, 105348, Note_on_c, 0, 62, 0
1, 105400, Note_on_c, 0, 65, 59
1, 105456, Note_on_c, 0, 65, 0
1, 105496, Note_on_c, 0, 67, 56
1, 105544, Note_on_c, 0, 67, 0
1, 105592, Note_on_c, 0, 70, 60
1, 105628, Note_on_c, 0, 70, 0
1, 105688, Note_on_c, 0, 72, 58
1, 105736, Note_on_c, 0, 72, 0
1, 105804, Note_on_c, 0, 74, 42
1, 105844, Note_on_c, 0, 74, 0
1, 105928, Note_on_c, 0, 77, 57
1, 106004, Note_on_c, 0, 77, 0
1, 106028, Note_on_c, 0, 82, 58
1, 106064, Note_on_c, 0, 82, 0
1, 106112, Note_on_c, 0, 84, 56
1, 106168, Note_on_c, 0, 84, 0
1, 106184, Note_on_c, 0, 89, 60
1, 106236, Note_on_c, 0, 89, 0
1, 106252, Note_on_c, 0, 94, 59
1, 106276, Note_on_c, 0, 94, 0
1, 106324, Note_on_c, 0, 95, 55
1, 106328, Note_on_c, 0, 96, 47
1, 106344, Note_on_c, 0, 96, 0
1, 106356, Note_on_c, 0, 95, 0
1, 106396, Note_on_c, 0, 101, 66
1, 106452, Note_on_c, 0, 101, 0
1, 106468, Note_on_c, 0, 106, 68
1, 106528, Note_on_c, 0, 106, 0
1, 106552, Note_on_c, 0, 108, 71
1, 106632, Note_on_c, 0, 58, 0
1, 106652, Note_on_c, 0, 55, 0
1, 106668, Note_on_c, 0, 108, 0
1, 106704, Note_on_c, 0, 108, 63
1, 106816, Note_on_c, 0, 108, 0
1, 106864, Note_on_c, 0, 108, 61
1, 106968, Note_on_c, 0, 108, 0
1, 107040, Note_on_c, 0, 108, 51
1, 107140, Note_on_c, 0, 108, 0
1, 107200, Note_on_c, 1, 39, 0
1, 107240, Note_on_c, 0, 108, 46
1, 107256, Note_on_c, 0, 27, 32
1, 107286, Control_c, 1, 0, 0
1, 107286, Control_c, 1, 32, 122
1, 107287, Control_c, 1, 0, 0
1, 107287, Control_c, 1, 32, 122
1, 107288, Control_c, 1, 0, 0
1, 107288, Control_c, 1, 32, 122
1, 107288, Control_c, 1, 0, 0
1, 107288, Control_c, 1, 32, 122
1, 107288, System_exclusive, 8, 67, 16, 76, 8, 1, 114, 64, 247
1, 107288, System_exclusive, 8, 67, 16, 76, 8, 1, 115, 64, 247
1, 107288, Control_c, 1, 7, 127
1, 107288, Control_c, 1, 10, 64
1, 107288, Control_c, 1, 11, 127
1, 107288, Control_c, 1, 91, 16
1, 107288, Control_c, 1, 0, 0
1, 107288, Control_c, 1, 32, 122
1, 107288, Control_c, 1, 94, 0
1, 107288, Control_c, 1, 93, 0
1, 107288, Program_c, 1, 32
1, 107288, Control_c, 1, 101, 0
1, 107289, Control_c, 1, 100, 1
1, 107290, Control_c, 1, 6, 64
1, 107291, Control_c, 1, 38, 0
1, 107736, Note_on_c, 0, 108, 0
1, 107760, Note_on_c, 0, 27, 0
1, 108584, Control_c, 0, 64, 0
1, 108656, System_exclusive, 8, 67, 16, 76, 3, 1, 12, 127, 247
1, 108672, System_exclusive, 8, 67, 16, 76, 3, 0, 12, 127, 247
1, 108672, End_track
0, 0, End_of_file
